Time_Shift_7
Sustain_On
Time_Shift_457
Note_On_40_Vel_22
Time_Shift_18
Note_On_71_Vel_45
Time_Shift_348
Note_On_52_Vel_36
Time_Shift_30
Note_On_47_Vel_27
Time_Shift_353
Note_On_52_Vel_0
Time_Shift_6
Note_On_52_Vel_23
Time_Shift_1
Note_On_59_Vel_44
Time_Shift_371
Note_On_64_Vel_37
Time_Shift_9
Note_On_76_Vel_57
Time_Shift_12
Note_On_52_Vel_0
Time_Shift_6
Note_On_52_Vel_25
Time_Shift_2
Note_On_59_Vel_0
Time_Shift_5
Note_On_59_Vel_36
Time_Shift_341
Note_On_59_Vel_0
Time_Shift_4
Note_On_59_Vel_32
Time_Shift_3
Note_On_52_Vel_0
Time_Shift_5
Note_On_52_Vel_27
Time_Shift_333
Note_On_64_Vel_0
Time_Shift_11
Note_On_64_Vel_42
Time_Shift_13
Note_On_73_Vel_41
Time_Shift_158
Note_On_78_Vel_59
Time_Shift_176
Note_On_80_Vel_65
Time_Shift_11
Note_On_71_Vel_0
Time_Shift_8
Note_On_52_Vel_0
Note_On_64_Vel_0
Time_Shift_2
Note_On_71_Vel_50
Time_Shift_2
Note_On_64_Vel_37
Time_Shift_1
Note_On_52_Vel_34
Time_Shift_325
Note_On_64_Vel_0
Time_Shift_5
Note_On_64_Vel_40
Time_Shift_2
Note_On_59_Vel_0
Time_Shift_8
Note_On_59_Vel_36
Time_Shift_8
Note_On_52_Vel_0
Time_Shift_7
Note_On_52_Vel_21
Time_Shift_300
Note_On_52_Vel_0
Note_On_59_Vel_0
Time_Shift_10
Note_On_59_Vel_44
Time_Shift_1
Note_On_52_Vel_38
Time_Shift_388
Note_On_47_Vel_0
Note_On_80_Vel_0
Time_Shift_8
Note_On_52_Vel_0
Note_On_47_Vel_47
Time_Shift_4
Note_On_80_Vel_64
Time_Shift_3
Note_On_52_Vel_43
Time_Shift_415
Note_On_47_Vel_0
Time_Shift_8
Note_On_40_Vel_0
Time_Shift_3
Note_On_47_Vel_42
Time_Shift_7
Note_On_40_Vel_43
Time_Shift_32
Sustain_Off
Time_Shift_18
Note_On_78_Vel_0
Time_Shift_2
Note_On_71_Vel_0
Time_Shift_1
Note_On_64_Vel_0
Time_Shift_1
Note_On_59_Vel_0
Time_Shift_1
Note_On_52_Vel_0
Time_Shift_27
Note_On_73_Vel_0
Time_Shift_46
Sustain_On
Time_Shift_131
Note_On_76_Vel_0
Time_Shift_152
Note_On_39_Vel_44
Time_Shift_5
Note_On_48_Vel_45
Time_Shift_23
Sustain_Off
Time_Shift_12
Note_On_47_Vel_0
Time_Shift_54
Sustain_On
Time_Shift_61
Note_On_40_Vel_0
Time_Shift_340
Note_On_37_Vel_39
Time_Shift_21
Note_On_80_Vel_0
Time_Shift_7
Note_On_80_Vel_66
Time_Shift_40
Note_On_68_Vel_22
Time_Shift_7
Note_On_68_Vel_0
Time_Shift_18
Note_On_48_Vel_0
Time_Shift_1
Note_On_39_Vel_0
Sustain_Off
Time_Shift_96
Sustain_On
Time_Shift_161
Note_On_37_Vel_0
Time_Shift_182
Note_On_49_Vel_40
Time_Shift_6
Note_On_56_Vel_36
Time_Shift_6
Note_On_75_Vel_39
Time_Shift_6
Note_On_75_Vel_0
Time_Shift_320
Note_On_61_Vel_44
Time_Shift_10
Note_On_56_Vel_0
Time_Shift_4
Note_On_68_Vel_43
Time_Shift_3
Note_On_56_Vel_50
Time_Shift_316
Note_On_68_Vel_0
Time_Shift_8
Note_On_68_Vel_48
Time_Shift_7
Note_On_61_Vel_0
Time_Shift_11
Note_On_61_Vel_40
Time_Shift_330
Note_On_64_Vel_50
Time_Shift_20
Note_On_56_Vel_0
Note_On_68_Vel_0
Time_Shift_4
Note_On_68_Vel_41
Time_Shift_1
Note_On_56_Vel_45
Time_Shift_419
Note_On_72_Vel_43
Time_Shift_1
Note_On_63_Vel_36
Time_Shift_201
Note_On_81_Vel_59
Time_Shift_188
Sustain_Off
Time_Shift_4
Note_On_68_Vel_0
Time_Shift_3
Note_On_72_Vel_0
Time_Shift_1
Note_On_64_Vel_0
Note_On_80_Vel_0
Time_Shift_6
Note_On_64_Vel_40
Time_Shift_1
Note_On_80_Vel_62
Time_Shift_11
Note_On_73_Vel_46
Time_Shift_5
Note_On_63_Vel_0
Sustain_On
Time_Shift_130
Note_On_81_Vel_0
Time_Shift_296
Note_On_76_Vel_48
Time_Shift_6
Note_On_68_Vel_44
Time_Shift_6
Note_On_73_Vel_0
Time_Shift_11
Note_On_73_Vel_24
Time_Shift_281
Note_On_61_Vel_0
Note_On_68_Vel_0
Time_Shift_7
Note_On_80_Vel_0
Time_Shift_1
Note_On_61_Vel_32
Time_Shift_3
Note_On_68_Vel_41
Note_On_80_Vel_44
Time_Shift_334
Note_On_64_Vel_0
Note_On_73_Vel_0
Time_Shift_5
Note_On_73_Vel_40
Time_Shift_1
Note_On_64_Vel_39
Time_Shift_363
Note_On_49_Vel_0
Time_Shift_10
Note_On_37_Vel_39
Note_On_49_Vel_35
Time_Shift_418
Note_On_48_Vel_51
Time_Shift_21
Note_On_36_Vel_37
Time_Shift_181
Note_On_56_Vel_0
Time_Shift_303
Note_On_47_Vel_42
Note_On_35_Vel_40
Time_Shift_88
Note_On_80_Vel_0
Time_Shift_11
Note_On_80_Vel_68
Time_Shift_39
Note_On_76_Vel_0
Note_On_64_Vel_0
Note_On_61_Vel_0
Time_Shift_1
Note_On_73_Vel_0
Note_On_49_Vel_0
Time_Shift_1
Note_On_48_Vel_0
Time_Shift_1
Note_On_37_Vel_0
Time_Shift_2
Note_On_36_Vel_0
Time_Shift_4
Sustain_Off
Time_Shift_18
Sustain_On
Time_Shift_38
Note_On_68_Vel_0
Time_Shift_381
Note_On_51_Vel_58
Time_Shift_7
Note_On_56_Vel_50
Time_Shift_342
Note_On_56_Vel_0
Time_Shift_8
Note_On_63_Vel_54
Time_Shift_3
Note_On_56_Vel_49
Time_Shift_304
Note_On_63_Vel_0
Time_Shift_4
Note_On_63_Vel_51
Time_Shift_1
Note_On_68_Vel_45
Time_Shift_41
Note_On_80_Vel_0
Time_Shift_5
Note_On_80_Vel_76
Time_Shift_41
Note_On_68_Vel_0
Time_Shift_4
Note_On_68_Vel_33
Time_Shift_234
Note_On_56_Vel_0
Note_On_63_Vel_0
Time_Shift_6
Note_On_63_Vel_47
Time_Shift_2
Note_On_56_Vel_49
Time_Shift_361
Note_On_68_Vel_0
Time_Shift_4
Note_On_75_Vel_57
Time_Shift_6
Note_On_68_Vel_45
Time_Shift_151
Note_On_80_Vel_0
Time_Shift_10
Note_On_80_Vel_76
Time_Shift_160
Note_On_33_Vel_42
Time_Shift_8
Note_On_45_Vel_44
Time_Shift_75
Note_On_80_Vel_0
Time_Shift_5
Note_On_80_Vel_72
Time_Shift_3
Note_On_35_Vel_0
Sustain_Off
Time_Shift_8
Note_On_47_Vel_0
Time_Shift_11
Note_On_63_Vel_0
Note_On_56_Vel_0
Time_Shift_1
Note_On_75_Vel_0
Note_On_51_Vel_0
Note_On_68_Vel_0
Time_Shift_65
Sustain_On
Time_Shift_24
Note_On_33_Vel_0
Time_Shift_334
Note_On_51_Vel_48
Time_Shift_4
Note_On_54_Vel_44
Time_Shift_156
Note_On_78_Vel_73
Time_Shift_35
Note_On_45_Vel_0
Time_Shift_138
Note_On_54_Vel_0
Time_Shift_1
Note_On_61_Vel_49
Time_Shift_3
Note_On_54_Vel_53
Time_Shift_318
Note_On_61_Vel_0
Time_Shift_5
Note_On_66_Vel_54
Time_Shift_3
Note_On_61_Vel_54
Time_Shift_12
Note_On_76_Vel_71
Time_Shift_380
Note_On_61_Vel_0
Time_Shift_6
Note_On_61_Vel_38
Time_Shift_17
Note_On_54_Vel_0
Time_Shift_1
Note_On_51_Vel_0
Time_Shift_4
Note_On_54_Vel_33
Time_Shift_118
Note_On_78_Vel_0
Time_Shift_7
Note_On_78_Vel_67
Time_Shift_196
Note_On_63_Vel_47
Time_Shift_24
Note_On_73_Vel_48
Time_Shift_455
Note_On_44_Vel_49
Time_Shift_3
Note_On_32_Vel_42
Time_Shift_52
Note_On_80_Vel_0
Time_Shift_7
Note_On_80_Vel_68
Time_Shift_36
Sustain_Off
Time_Shift_14
Note_On_63_Vel_0
Note_On_66_Vel_0
Time_Shift_1
Note_On_76_Vel_0
Note_On_78_Vel_0
Time_Shift_11
Note_On_61_Vel_0
Time_Shift_8
Note_On_54_Vel_0
Time_Shift_38
Sustain_On
Time_Shift_384
Note_On_32_Vel_0
Time_Shift_29
Note_On_51_Vel_44
Time_Shift_22
Note_On_56_Vel_38
Time_Shift_382
Note_On_63_Vel_45
Time_Shift_5
Note_On_56_Vel_0
Time_Shift_4
Note_On_56_Vel_34
Time_Shift_407
Note_On_72_Vel_46
Time_Shift_42
Note_On_56_Vel_0
Note_On_63_Vel_0
Time_Shift_5
Note_On_63_Vel_37
Time_Shift_5
Note_On_56_Vel_18
Time_Shift_374
Note_On_56_Vel_0
Note_On_63_Vel_0
Time_Shift_11
Note_On_63_Vel_45
Note_On_56_Vel_39
Time_Shift_319
Note_On_51_Vel_0
Time_Shift_7
Note_On_51_Vel_42
Time_Shift_1
Note_On_56_Vel_0
Time_Shift_8
Note_On_44_Vel_0
Time_Shift_1
Note_On_56_Vel_33
Time_Shift_4
Note_On_44_Vel_29
Time_Shift_302
Note_On_63_Vel_0
Time_Shift_6
Note_On_63_Vel_49
Time_Shift_17
Note_On_44_Vel_0
Note_On_56_Vel_0
Time_Shift_6
Note_On_56_Vel_38
Time_Shift_4
Note_On_44_Vel_32
Time_Shift_167
Note_On_73_Vel_0
Note_On_80_Vel_0
Time_Shift_192
Note_On_51_Vel_0
Note_On_56_Vel_0
Time_Shift_4
Note_On_51_Vel_46
Time_Shift_4
Note_On_56_Vel_40
Time_Shift_383
Note_On_44_Vel_0
Time_Shift_10
Note_On_44_Vel_47
Time_Shift_6
Note_On_51_Vel_0
Time_Shift_6
Note_On_51_Vel_38
Time_Shift_512
Note_On_71_Vel_56
Time_Shift_8
Note_On_31_Vel_38
Time_Shift_7
Note_On_43_Vel_34
Time_Shift_4
Note_On_43_Vel_0
Time_Shift_72
Note_On_72_Vel_0
Note_On_51_Vel_0
Note_On_56_Vel_0
Time_Shift_1
Note_On_63_Vel_0
Sustain_Off
Time_Shift_12
Note_On_44_Vel_0
Time_Shift_99
Sustain_On
Time_Shift_302
Note_On_42_Vel_42
Time_Shift_3
Note_On_30_Vel_38
Time_Shift_3
Note_On_31_Vel_0
Time_Shift_50
Sustain_Off
Time_Shift_34
Sustain_On
Time_Shift_308
Note_On_29_Vel_44
Time_Shift_24
Note_On_30_Vel_0
Time_Shift_1
Note_On_42_Vel_0
Time_Shift_2
Note_On_71_Vel_0
Time_Shift_1
Sustain_Off
Time_Shift_87
Sustain_On
Time_Shift_436
Note_On_28_Vel_42
Time_Shift_4
Note_On_40_Vel_33
Time_Shift_78
Note_On_71_Vel_58
Time_Shift_50
Note_On_29_Vel_0
Time_Shift_10
Sustain_Off
Time_Shift_82
Sustain_On
Time_Shift_417
Note_On_52_Vel_41
Time_Shift_2
Note_On_47_Vel_44
Time_Shift_349
Note_On_52_Vel_0
Time_Shift_10
Note_On_52_Vel_41
Time_Shift_17
Note_On_59_Vel_40
Time_Shift_403
Note_On_52_Vel_0
Note_On_59_Vel_0
Time_Shift_5
Note_On_64_Vel_42
Time_Shift_2
Note_On_59_Vel_44
Time_Shift_2
Note_On_52_Vel_33
Time_Shift_3
Note_On_76_Vel_60
Time_Shift_349
Note_On_52_Vel_0
Note_On_59_Vel_0
Time_Shift_4
Note_On_52_Vel_41
Time_Shift_2
Note_On_59_Vel_50
Time_Shift_347
Note_On_64_Vel_0
Time_Shift_6
Note_On_64_Vel_44
Time_Shift_11
Note_On_73_Vel_48
Time_Shift_151
Note_On_78_Vel_64
Time_Shift_177
Note_On_80_Vel_66
Time_Shift_16
Note_On_64_Vel_0
Time_Shift_8
Note_On_71_Vel_0
Time_Shift_4
Note_On_64_Vel_44
Time_Shift_1
Note_On_71_Vel_49
Time_Shift_325
Note_On_64_Vel_0
Time_Shift_12
Note_On_64_Vel_46
Time_Shift_4
Note_On_59_Vel_0
Time_Shift_7
Note_On_59_Vel_39
Time_Shift_307
Note_On_40_Vel_0
Note_On_52_Vel_0
Time_Shift_4
Note_On_52_Vel_38
Time_Shift_4
Note_On_59_Vel_0
Time_Shift_3
Note_On_40_Vel_26
Time_Shift_8
Note_On_59_Vel_29
Time_Shift_381
Note_On_47_Vel_0
Time_Shift_8
Note_On_40_Vel_0
Note_On_52_Vel_0
Time_Shift_1
Note_On_47_Vel_36
Time_Shift_3
Note_On_52_Vel_39
Time_Shift_5
Note_On_40_Vel_31
Time_Shift_6
Note_On_80_Vel_0
Time_Shift_9
Note_On_80_Vel_66
Time_Shift_367
Note_On_28_Vel_0
Note_On_40_Vel_0
Time_Shift_7
Note_On_40_Vel_40
Time_Shift_2
Note_On_28_Vel_42
Time_Shift_433
Note_On_61_Vel_46
Time_Shift_1
Note_On_64_Vel_0
Time_Shift_3
Note_On_52_Vel_0
Time_Shift_5
Note_On_52_Vel_49
Time_Shift_471
Note_On_40_Vel_0
Time_Shift_7
Note_On_40_Vel_36
Note_On_47_Vel_0
Time_Shift_12
Note_On_47_Vel_41
Time_Shift_42
Note_On_80_Vel_0
Time_Shift_7
Note_On_80_Vel_72
Time_Shift_155
Note_On_59_Vel_0
Note_On_71_Vel_0
Note_On_73_Vel_0
Note_On_76_Vel_0
Note_On_78_Vel_0
Time_Shift_307
Note_On_52_Vel_0
Time_Shift_10
Note_On_52_Vel_50
Time_Shift_20
Note_On_47_Vel_0
Time_Shift_5
Note_On_47_Vel_49
Time_Shift_352
Note_On_59_Vel_55
Time_Shift_4
Note_On_52_Vel_0
Time_Shift_8
Note_On_52_Vel_47
Time_Shift_297
Note_On_64_Vel_54
Time_Shift_26
Note_On_59_Vel_0
Time_Shift_4
Note_On_59_Vel_39
Time_Shift_353
Note_On_62_Vel_52
Time_Shift_4
Note_On_52_Vel_0
Time_Shift_10
Note_On_52_Vel_39
Time_Shift_427
Note_On_28_Vel_0
Time_Shift_8
Note_On_52_Vel_0
Note_On_64_Vel_0
Time_Shift_4
Note_On_52_Vel_36
Time_Shift_5
Note_On_64_Vel_38
Time_Shift_3
Note_On_73_Vel_55
Time_Shift_260
Note_On_81_Vel_61
Time_Shift_181
Note_On_80_Vel_0
Time_Shift_9
Note_On_80_Vel_71
Time_Shift_19
Note_On_74_Vel_35
Time_Shift_3
Note_On_62_Vel_0
Time_Shift_5
Note_On_62_Vel_38
Time_Shift_3
Note_On_74_Vel_0
Time_Shift_6
Note_On_71_Vel_35
Time_Shift_9
Note_On_59_Vel_0
Time_Shift_9
Note_On_59_Vel_28
Time_Shift_367
Note_On_64_Vel_0
Time_Shift_9
Note_On_64_Vel_44
Time_Shift_14
Note_On_59_Vel_0
Time_Shift_10
Note_On_59_Vel_39
Time_Shift_313
Note_On_52_Vel_0
Note_On_59_Vel_0
Time_Shift_9
Note_On_52_Vel_39
Time_Shift_1
Note_On_59_Vel_41
Time_Shift_351
Note_On_52_Vel_0
Time_Shift_4
Note_On_52_Vel_41
Time_Shift_3
Note_On_40_Vel_0
Note_On_47_Vel_0
Time_Shift_5
Note_On_40_Vel_34
Time_Shift_1
Note_On_47_Vel_47
Time_Shift_386
Note_On_40_Vel_0
Note_On_47_Vel_0
Time_Shift_4
Note_On_47_Vel_42
Time_Shift_1
Note_On_40_Vel_35
Time_Shift_11
Note_On_61_Vel_0
Time_Shift_414
Note_On_52_Vel_0
Time_Shift_8
Note_On_62_Vel_0
Time_Shift_2
Note_On_64_Vel_0
Time_Shift_2
Note_On_52_Vel_42
Time_Shift_2
Note_On_62_Vel_44
Time_Shift_518
Note_On_33_Vel_40
Note_On_45_Vel_43
Time_Shift_75
Note_On_80_Vel_0
Time_Shift_9
Note_On_80_Vel_68
Time_Shift_45
Note_On_73_Vel_0
Time_Shift_1
Sustain_Off
Time_Shift_2
Note_On_59_Vel_0
Note_On_47_Vel_0
Note_On_71_Vel_0
Note_On_62_Vel_0
Time_Shift_1
Note_On_52_Vel_0
Note_On_40_Vel_0
Note_On_81_Vel_0
Time_Shift_5
Note_On_73_Vel_18
Time_Shift_21
Note_On_73_Vel_0
Time_Shift_39
Sustain_On
Time_Shift_29
Note_On_33_Vel_0
Time_Shift_412
Note_On_54_Vel_40
Time_Shift_22
Note_On_49_Vel_32
Time_Shift_362
Note_On_61_Vel_54
Time_Shift_12
Note_On_54_Vel_0
Time_Shift_10
Note_On_54_Vel_38
Time_Shift_297
Note_On_54_Vel_0
Note_On_61_Vel_0
Time_Shift_8
Note_On_66_Vel_52
Time_Shift_1
Note_On_54_Vel_38
Time_Shift_1
Note_On_61_Vel_46
Time_Shift_67
Note_On_80_Vel_0
Time_Shift_6
Note_On_80_Vel_72
Time_Shift_317
Note_On_54_Vel_0
Note_On_61_Vel_0
Time_Shift_4
Note_On_61_Vel_45
Time_Shift_2
Note_On_54_Vel_47
Time_Shift_339
Note_On_66_Vel_0
Time_Shift_3
Note_On_73_Vel_61
Time_Shift_2
Note_On_66_Vel_49
Time_Shift_172
Note_On_80_Vel_0
Time_Shift_9
Note_On_80_Vel_77
Time_Shift_211
Note_On_47_Vel_44
Time_Shift_5
Note_On_35_Vel_41
Time_Shift_8
Note_On_49_Vel_0
Time_Shift_1
Note_On_45_Vel_0
Note_On_66_Vel_0
Note_On_54_Vel_0
Note_On_61_Vel_0
Time_Shift_3
Sustain_Off
Time_Shift_16
Note_On_73_Vel_0
Note_On_80_Vel_0
Time_Shift_5
Note_On_80_Vel_60
Time_Shift_6
Note_On_73_Vel_58
Time_Shift_43
Sustain_On
Time_Shift_371
Note_On_63_Vel_44
Time_Shift_2
Note_On_54_Vel_47
Time_Shift_122
Note_On_78_Vel_72
Time_Shift_150
Note_On_57_Vel_40
Time_Shift_23
Note_On_66_Vel_49
Time_Shift_292
Note_On_54_Vel_0
Note_On_63_Vel_0
Time_Shift_6
Note_On_63_Vel_47
Time_Shift_2
Note_On_54_Vel_34
Time_Shift_37
Note_On_69_Vel_44
Time_Shift_6
Note_On_76_Vel_59
Time_Shift_302
Note_On_57_Vel_0
Time_Shift_8
Note_On_66_Vel_0
Time_Shift_2
Note_On_57_Vel_43
Time_Shift_2
Note_On_71_Vel_50
Time_Shift_5
Note_On_66_Vel_42
Time_Shift_352
Note_On_63_Vel_0
Time_Shift_4
Note_On_63_Vel_41
Time_Shift_4
Note_On_54_Vel_0
Time_Shift_5
Note_On_54_Vel_31
Time_Shift_41
Note_On_69_Vel_0
Time_Shift_11
Note_On_69_Vel_55
Time_Shift_211
Note_On_78_Vel_0
Time_Shift_11
Note_On_78_Vel_62
Time_Shift_185
Note_On_40_Vel_38
Time_Shift_12
Note_On_47_Vel_0
Time_Shift_5
Note_On_47_Vel_42
Time_Shift_18
Note_On_80_Vel_0
Time_Shift_9
Note_On_80_Vel_62
Time_Shift_3
Note_On_68_Vel_49
Time_Shift_18
Note_On_35_Vel_0
Time_Shift_61
Sustain_Off
Time_Shift_5
Note_On_69_Vel_0
Note_On_66_Vel_0
Note_On_63_Vel_0
Note_On_71_Vel_0
Time_Shift_1
Note_On_57_Vel_0
Note_On_73_Vel_0
Note_On_54_Vel_0
Note_On_78_Vel_0
Time_Shift_110
Sustain_On
Time_Shift_302
Note_On_52_Vel_48
Time_Shift_5
Note_On_47_Vel_0
Time_Shift_6
Note_On_47_Vel_47
Time_Shift_340
Note_On_52_Vel_0
Time_Shift_10
Note_On_52_Vel_48
Time_Shift_17
Note_On_59_Vel_40
Time_Shift_311
Note_On_64_Vel_46
Time_Shift_23
Note_On_59_Vel_0
Time_Shift_8
Note_On_59_Vel_25
Time_Shift_337
Note_On_52_Vel_0
Note_On_59_Vel_0
Time_Shift_6
Note_On_52_Vel_35
Time_Shift_2
Note_On_59_Vel_44
Time_Shift_400
Note_On_76_Vel_0
Time_Shift_23
Note_On_64_Vel_0
Time_Shift_4
Note_On_71_Vel_39
Time_Shift_2
Note_On_64_Vel_42
Time_Shift_331
Note_On_80_Vel_0
Time_Shift_130
Note_On_33_Vel_32
Time_Shift_1
Note_On_45_Vel_32
Time_Shift_120
Note_On_80_Vel_60
Time_Shift_6
Note_On_73_Vel_39
Time_Shift_23
Note_On_47_Vel_0
Note_On_71_Vel_0
Note_On_59_Vel_0
Note_On_64_Vel_0
Note_On_52_Vel_0
Time_Shift_1
Note_On_68_Vel_0
Note_On_40_Vel_0
Time_Shift_7
Sustain_Off
Time_Shift_27
Sustain_On
Time_Shift_455
Note_On_61_Vel_38
Time_Shift_19
Note_On_54_Vel_38
Time_Shift_163
Note_On_78_Vel_73
Time_Shift_8
Note_On_33_Vel_0
Time_Shift_141
Note_On_69_Vel_48
Time_Shift_5
Note_On_61_Vel_0
Time_Shift_4
Note_On_73_Vel_0
Time_Shift_7
Note_On_61_Vel_40
Time_Shift_380
Note_On_35_Vel_40
Time_Shift_7
Note_On_47_Vel_36
Time_Shift_75
Note_On_76_Vel_57
Time_Shift_30
Note_On_61_Vel_0
Note_On_78_Vel_0
Time_Shift_1
Note_On_54_Vel_0
Note_On_69_Vel_0
Time_Shift_2
Sustain_Off
Time_Shift_1
Note_On_45_Vel_0
Time_Shift_16
Note_On_80_Vel_0
Time_Shift_23
Sustain_On
Time_Shift_353
Note_On_47_Vel_0
Time_Shift_9
Note_On_71_Vel_48
Time_Shift_1
Note_On_47_Vel_40
Time_Shift_8
Note_On_57_Vel_45
Time_Shift_453
Note_On_54_Vel_48
Time_Shift_8
Note_On_63_Vel_41
Time_Shift_1
Note_On_69_Vel_54
Time_Shift_257
Note_On_78_Vel_62
Time_Shift_407
Note_On_80_Vel_60
Time_Shift_4
Note_On_68_Vel_49
Time_Shift_6
Note_On_28_Vel_49
Note_On_40_Vel_36
Time_Shift_103
Note_On_69_Vel_0
Note_On_76_Vel_0
Note_On_78_Vel_0
Time_Shift_1
Note_On_54_Vel_0
Note_On_63_Vel_0
Time_Shift_1
Note_On_47_Vel_0
Time_Shift_5
Sustain_Off
Time_Shift_11
Note_On_35_Vel_0
Note_On_57_Vel_0
Time_Shift_46
Sustain_On
Time_Shift_430
Note_On_28_Vel_0
Time_Shift_2
Note_On_52_Vel_45
Time_Shift_1
Note_On_47_Vel_40
Time_Shift_412
Note_On_52_Vel_0
Time_Shift_4
Note_On_52_Vel_50
Time_Shift_7
Note_On_59_Vel_48
Time_Shift_311
Note_On_59_Vel_0
Time_Shift_2
Note_On_64_Vel_54
Time_Shift_4
Note_On_59_Vel_46
Time_Shift_309
Note_On_71_Vel_0
Time_Shift_4
Note_On_71_Vel_58
Time_Shift_4
Note_On_64_Vel_0
Time_Shift_10
Note_On_64_Vel_43
Time_Shift_259
Note_On_59_Vel_0
Time_Shift_5
Note_On_59_Vel_60
Time_Shift_33
Note_On_52_Vel_0
Time_Shift_6
Note_On_52_Vel_25
Time_Shift_263
Note_On_59_Vel_0
Time_Shift_8
Note_On_52_Vel_0
Time_Shift_3
Note_On_59_Vel_54
Time_Shift_8
Note_On_52_Vel_40
Time_Shift_296
Note_On_64_Vel_0
Time_Shift_4
Note_On_64_Vel_58
Time_Shift_303
Note_On_47_Vel_0
Note_On_52_Vel_0
Time_Shift_7
Note_On_47_Vel_44
Time_Shift_2
Note_On_52_Vel_42
Time_Shift_367
Note_On_59_Vel_0
Time_Shift_7
Note_On_59_Vel_52
Time_Shift_1
Note_On_52_Vel_0
Time_Shift_6
Note_On_52_Vel_42
Time_Shift_378
Note_On_40_Vel_0
Time_Shift_9
Note_On_28_Vel_56
Time_Shift_1
Note_On_40_Vel_51
Time_Shift_462
Note_On_30_Vel_71
Time_Shift_2
Note_On_42_Vel_69
Time_Shift_64
Note_On_47_Vel_0
Note_On_68_Vel_0
Note_On_71_Vel_0
Note_On_80_Vel_0
Time_Shift_130
Note_On_40_Vel_0
Time_Shift_115
Note_On_28_Vel_0
Time_Shift_100
Note_On_59_Vel_0
Time_Shift_143
Note_On_44_Vel_70
Note_On_63_Vel_73
Time_Shift_6
Note_On_60_Vel_64
Note_On_56_Vel_60
Time_Shift_1
Note_On_32_Vel_54
Time_Shift_27
Note_On_42_Vel_0
Time_Shift_54
Note_On_30_Vel_0
Note_On_64_Vel_0
Time_Shift_23
Note_On_52_Vel_0
Time_Shift_6
Sustain_Off
Time_Shift_132
Sustain_On
Time_Shift_284
Note_On_56_Vel_0
Note_On_60_Vel_0
Time_Shift_4
Note_On_60_Vel_62
Time_Shift_2
Note_On_56_Vel_59
Time_Shift_347
Note_On_56_Vel_0
Note_On_60_Vel_0
Time_Shift_9
Note_On_60_Vel_78
Time_Shift_2
Note_On_56_Vel_68
Time_Shift_356
Note_On_25_Vel_74
Time_Shift_30
Note_On_68_Vel_91
Time_Shift_3
Note_On_56_Vel_0
Time_Shift_4
Note_On_64_Vel_79
Time_Shift_4
Note_On_56_Vel_74
Time_Shift_1
Note_On_61_Vel_65
Time_Shift_37
Note_On_44_Vel_0
Time_Shift_7
Note_On_32_Vel_0
Time_Shift_17
Sustain_Off
Time_Shift_22
Note_On_63_Vel_0
Time_Shift_15
Sustain_On
Time_Shift_223
Note_On_68_Vel_0
Time_Shift_8
Note_On_56_Vel_0
Note_On_61_Vel_0
Note_On_64_Vel_0
Time_Shift_2
Note_On_68_Vel_69
Time_Shift_2
Note_On_64_Vel_69
Time_Shift_6
Note_On_56_Vel_65
Time_Shift_1
Note_On_61_Vel_63
Time_Shift_303
Note_On_56_Vel_0
Time_Shift_8
Note_On_61_Vel_0
Time_Shift_3
Note_On_56_Vel_57
Time_Shift_1
Note_On_61_Vel_75
Time_Shift_118
Note_On_70_Vel_88
Time_Shift_1
Note_On_25_Vel_0
Time_Shift_15
Note_On_60_Vel_0
Time_Shift_146
Note_On_68_Vel_0
Time_Shift_2
Note_On_72_Vel_95
Time_Shift_5
Note_On_68_Vel_87
Time_Shift_5
Note_On_44_Vel_76
Note_On_60_Vel_72
Note_On_32_Vel_73
Time_Shift_66
Note_On_64_Vel_0
Time_Shift_1
Note_On_61_Vel_0
Time_Shift_1
Note_On_70_Vel_0
Time_Shift_1
Note_On_56_Vel_0
Time_Shift_16
Sustain_Off
Time_Shift_103
Sustain_On
Time_Shift_238
Note_On_68_Vel_0
Time_Shift_5
Note_On_68_Vel_74
Time_Shift_3
Note_On_60_Vel_0
Time_Shift_7
Note_On_60_Vel_68
Time_Shift_4
Note_On_63_Vel_54
Time_Shift_281
Note_On_68_Vel_0
Time_Shift_5
Note_On_68_Vel_89
Time_Shift_2
Note_On_60_Vel_0
Note_On_63_Vel_0
Time_Shift_4
Note_On_63_Vel_72
Note_On_60_Vel_74
Time_Shift_326
Note_On_72_Vel_0
Time_Shift_5
Note_On_72_Vel_96
Time_Shift_2
Note_On_25_Vel_90
Time_Shift_1
Note_On_68_Vel_0
Time_Shift_3
Note_On_64_Vel_85
Note_On_37_Vel_81
Time_Shift_3
Note_On_68_Vel_83
Time_Shift_5
Note_On_61_Vel_83
Time_Shift_78
Note_On_60_Vel_0
Time_Shift_1
Note_On_63_Vel_0
Time_Shift_3
Note_On_44_Vel_0
Time_Shift_1
Note_On_32_Vel_0
Time_Shift_2
Sustain_Off
Time_Shift_142
Sustain_On
Time_Shift_261
Note_On_64_Vel_0
Note_On_68_Vel_0
Time_Shift_5
Note_On_68_Vel_73
Time_Shift_2
Note_On_64_Vel_69
Time_Shift_1
Note_On_61_Vel_0
Time_Shift_4
Note_On_61_Vel_70
Time_Shift_334
Note_On_25_Vel_0
Note_On_68_Vel_0
Time_Shift_8
Note_On_61_Vel_0
Note_On_64_Vel_0
Time_Shift_3
Note_On_68_Vel_74
Time_Shift_1
Note_On_64_Vel_72
Time_Shift_5
Note_On_61_Vel_65
Time_Shift_106
Note_On_40_Vel_88
Note_On_28_Vel_98
Time_Shift_199
Note_On_72_Vel_0
Time_Shift_11
Note_On_72_Vel_99
Time_Shift_5
Note_On_68_Vel_0
Time_Shift_3
Note_On_60_Vel_86
Time_Shift_3
Note_On_32_Vel_92
Note_On_68_Vel_89
Time_Shift_2
Note_On_44_Vel_94
Time_Shift_50
Note_On_64_Vel_0
Time_Shift_1
Note_On_40_Vel_0
Note_On_61_Vel_0
Time_Shift_1
Note_On_37_Vel_0
Time_Shift_1
Note_On_28_Vel_0
Time_Shift_26
Sustain_Off
Time_Shift_136
Sustain_On
Time_Shift_207
Note_On_60_Vel_0
Note_On_68_Vel_0
Time_Shift_2
Note_On_66_Vel_51
Time_Shift_2
Note_On_60_Vel_57
Time_Shift_4
Note_On_66_Vel_0
Note_On_68_Vel_71
Time_Shift_1
Note_On_63_Vel_56
Time_Shift_267
Note_On_68_Vel_0
Time_Shift_6
Note_On_68_Vel_80
Time_Shift_2
Note_On_60_Vel_0
Note_On_63_Vel_0
Time_Shift_4
Note_On_63_Vel_70
Time_Shift_1
Note_On_60_Vel_73
Time_Shift_295
Note_On_68_Vel_0
Time_Shift_4
Note_On_64_Vel_83
Note_On_49_Vel_94
Time_Shift_2
Note_On_68_Vel_83
Time_Shift_2
Note_On_61_Vel_91
Note_On_37_Vel_87
Time_Shift_61
Note_On_60_Vel_0
Note_On_72_Vel_0
Time_Shift_2
Note_On_63_Vel_0
Note_On_44_Vel_0
Note_On_32_Vel_0
Time_Shift_1
Sustain_Off
Time_Shift_104
Sustain_On
Time_Shift_154
Note_On_61_Vel_0
Note_On_64_Vel_0
Note_On_68_Vel_0
Time_Shift_7
Note_On_68_Vel_75
Time_Shift_3
Note_On_61_Vel_75
Time_Shift_1
Note_On_64_Vel_66
Time_Shift_388
Note_On_68_Vel_0
Time_Shift_8
Note_On_61_Vel_0
Note_On_64_Vel_0
Time_Shift_3
Note_On_68_Vel_82
Time_Shift_1
Note_On_64_Vel_76
Time_Shift_1
Note_On_61_Vel_74
Time_Shift_169
Note_On_73_Vel_103
Time_Shift_182
Note_On_72_Vel_94
Time_Shift_5
Note_On_68_Vel_0
Time_Shift_11
Note_On_68_Vel_90
Note_On_56_Vel_81
Time_Shift_1
Note_On_63_Vel_78
Time_Shift_1
Note_On_60_Vel_78
Note_On_44_Vel_82
Time_Shift_52
Note_On_64_Vel_0
Note_On_61_Vel_0
Time_Shift_1
Note_On_73_Vel_0
Note_On_49_Vel_0
Time_Shift_5
Note_On_37_Vel_0
Time_Shift_2
Sustain_Off
Time_Shift_157
Sustain_On
Time_Shift_215
Note_On_60_Vel_0
Note_On_68_Vel_0
Time_Shift_8
Note_On_63_Vel_0
Time_Shift_1
Note_On_60_Vel_74
Time_Shift_3
Note_On_68_Vel_68
Note_On_63_Vel_51
Time_Shift_311
Note_On_68_Vel_0
Time_Shift_8
Note_On_60_Vel_0
Note_On_63_Vel_0
Time_Shift_2
Note_On_68_Vel_70
Time_Shift_4
Note_On_63_Vel_55
Note_On_60_Vel_62
Time_Shift_4
Note_On_56_Vel_0
Time_Shift_381
Note_On_68_Vel_0
Time_Shift_5
Note_On_49_Vel_90
Time_Shift_1
Note_On_37_Vel_81
Time_Shift_5
Note_On_68_Vel_70
Note_On_64_Vel_69
Time_Shift_1
Note_On_61_Vel_76
Time_Shift_78
Note_On_72_Vel_0
Time_Shift_1
Note_On_60_Vel_0
Note_On_63_Vel_0
Time_Shift_8
Sustain_Off
Time_Shift_116
Sustain_On
Time_Shift_315
Note_On_68_Vel_0
Time_Shift_8
Note_On_61_Vel_0
Note_On_64_Vel_0
Note_On_68_Vel_73
Time_Shift_4
Note_On_61_Vel_63
Time_Shift_1
Note_On_64_Vel_59
Time_Shift_363
Note_On_68_Vel_0
Time_Shift_8
Note_On_61_Vel_0
Note_On_64_Vel_0
Time_Shift_4
Note_On_68_Vel_78
Note_On_64_Vel_73
Time_Shift_1
Note_On_61_Vel_66
Time_Shift_145
Note_On_52_Vel_85
Time_Shift_1
Note_On_40_Vel_84
Time_Shift_199
Note_On_72_Vel_97
Time_Shift_3
Note_On_44_Vel_0
Note_On_68_Vel_0
Time_Shift_5
Note_On_56_Vel_90
Time_Shift_1
Note_On_60_Vel_92
Time_Shift_4
Note_On_68_Vel_89
Time_Shift_1
Note_On_44_Vel_95
Time_Shift_66
Note_On_61_Vel_0
Note_On_37_Vel_0
Time_Shift_1
Note_On_49_Vel_0
Note_On_40_Vel_0
Time_Shift_2
Sustain_Off
Time_Shift_20
Note_On_52_Vel_0
Note_On_64_Vel_0
Time_Shift_115
Sustain_On
Time_Shift_185
Note_On_68_Vel_0
Time_Shift_7
Note_On_60_Vel_0
Time_Shift_2
Note_On_68_Vel_73
Time_Shift_3
Note_On_63_Vel_57
Time_Shift_1
Note_On_60_Vel_70
Time_Shift_263
Note_On_68_Vel_0
Time_Shift_8
Note_On_60_Vel_0
Note_On_63_Vel_0
Time_Shift_4
Note_On_68_Vel_83
Note_On_60_Vel_78
Time_Shift_1
Note_On_63_Vel_66
Time_Shift_296
Note_On_40_Vel_72
Time_Shift_18
Note_On_52_Vel_66
Time_Shift_27
Note_On_72_Vel_0
Time_Shift_4
Note_On_72_Vel_98
Time_Shift_7
Note_On_64_Vel_83
Time_Shift_4
Note_On_68_Vel_0
Time_Shift_4
Note_On_68_Vel_74
Time_Shift_1
Note_On_61_Vel_79
Time_Shift_58
Note_On_60_Vel_0
Time_Shift_1
Note_On_63_Vel_0
Time_Shift_1
Note_On_44_Vel_0
Time_Shift_3
Sustain_Off
Time_Shift_9
Note_On_56_Vel_0
Time_Shift_115
Sustain_On
Time_Shift_215
Note_On_68_Vel_0
Time_Shift_8
Note_On_61_Vel_0
Time_Shift_3
Note_On_68_Vel_66
Time_Shift_4
Note_On_64_Vel_0
Time_Shift_1
Note_On_61_Vel_61
Time_Shift_4
Note_On_64_Vel_57
Time_Shift_364
Note_On_61_Vel_0
Note_On_64_Vel_0
Note_On_68_Vel_0
Time_Shift_4
Note_On_64_Vel_65
Note_On_68_Vel_68
Time_Shift_7
Note_On_61_Vel_64
Time_Shift_166
Note_On_72_Vel_0
Time_Shift_4
Note_On_72_Vel_105
Time_Shift_15
Note_On_37_Vel_78
Time_Shift_188
Note_On_72_Vel_0
Time_Shift_4
Note_On_72_Vel_87
Time_Shift_4
Note_On_68_Vel_0
Time_Shift_6
Note_On_60_Vel_82
Time_Shift_2
Note_On_68_Vel_87
Time_Shift_3
Note_On_44_Vel_80
Time_Shift_2
Note_On_32_Vel_77
Time_Shift_67
Note_On_61_Vel_0
Time_Shift_1
Note_On_52_Vel_0
Time_Shift_2
Note_On_64_Vel_0
Note_On_37_Vel_0
Time_Shift_1
Note_On_40_Vel_0
Time_Shift_1
Sustain_Off
Time_Shift_84
Sustain_On
Time_Shift_230
Note_On_60_Vel_0
Note_On_68_Vel_0
Time_Shift_5
Note_On_63_Vel_62
Time_Shift_4
Note_On_68_Vel_49
Time_Shift_2
Note_On_60_Vel_62
Time_Shift_281
Note_On_63_Vel_0
Time_Shift_7
Note_On_60_Vel_0
Time_Shift_2
Note_On_63_Vel_77
Time_Shift_5
Note_On_60_Vel_75
Time_Shift_127
Note_On_82_Vel_83
Note_On_70_Vel_90
Time_Shift_5
Note_On_82_Vel_0
Time_Shift_153
Note_On_68_Vel_0
Time_Shift_6
Note_On_80_Vel_94
Note_On_68_Vel_93
Time_Shift_4
Note_On_64_Vel_92
Time_Shift_2
Note_On_76_Vel_82
Note_On_37_Vel_86
Note_On_25_Vel_90
Time_Shift_96
Sustain_Off
Time_Shift_4
Note_On_60_Vel_0
Time_Shift_1
Note_On_63_Vel_0
Time_Shift_33
Note_On_72_Vel_0
Time_Shift_92
Note_On_32_Vel_0
Time_Shift_8
Note_On_44_Vel_0
Sustain_On
Time_Shift_177
Note_On_64_Vel_0
Note_On_68_Vel_0
Time_Shift_6
Note_On_68_Vel_69
Time_Shift_3
Note_On_61_Vel_83
Time_Shift_1
Note_On_64_Vel_83
Time_Shift_335
Note_On_61_Vel_0
Note_On_64_Vel_0
Time_Shift_5
Note_On_64_Vel_85
Time_Shift_2
Note_On_61_Vel_67
Time_Shift_132
Note_On_70_Vel_0
Time_Shift_35
Note_On_82_Vel_95
Time_Shift_1
Note_On_70_Vel_99
Time_Shift_202
Note_On_25_Vel_0
Time_Shift_76
Note_On_68_Vel_0
Time_Shift_2
Note_On_72_Vel_100
Time_Shift_7
Note_On_60_Vel_96
Time_Shift_1
Note_On_68_Vel_91
Time_Shift_3
Note_On_44_Vel_93
Time_Shift_1
Note_On_32_Vel_87
Time_Shift_63
Note_On_80_Vel_0
Time_Shift_8
Note_On_76_Vel_0
Time_Shift_8
Note_On_37_Vel_0
Time_Shift_2
Note_On_61_Vel_0
Note_On_64_Vel_0
Time_Shift_1
Note_On_70_Vel_0
Time_Shift_4
Note_On_82_Vel_0
Time_Shift_10
Sustain_Off
Time_Shift_182
Sustain_On
Time_Shift_215
Note_On_60_Vel_0
Note_On_68_Vel_0
Time_Shift_5
Note_On_64_Vel_50
Time_Shift_5
Note_On_68_Vel_70
Note_On_60_Vel_68
Time_Shift_6
Note_On_64_Vel_0
Time_Shift_315
Note_On_60_Vel_0
Note_On_68_Vel_0
Time_Shift_9
Note_On_68_Vel_73
Time_Shift_1
Note_On_60_Vel_73
Time_Shift_404
Note_On_32_Vel_0
Note_On_44_Vel_0
Time_Shift_6
Note_On_56_Vel_83
Time_Shift_2
Note_On_44_Vel_73
Time_Shift_3
Note_On_32_Vel_63
Time_Shift_58
Sustain_Off
Time_Shift_85
Sustain_On
Time_Shift_61
Note_On_72_Vel_0
Time_Shift_323
Note_On_60_Vel_0
Note_On_68_Vel_0
Time_Shift_6
Note_On_68_Vel_58
Note_On_63_Vel_54
Time_Shift_3
Note_On_60_Vel_55
Time_Shift_383
Note_On_68_Vel_0
Time_Shift_9
Note_On_68_Vel_56
Time_Shift_6
Note_On_63_Vel_0
Time_Shift_6
Note_On_63_Vel_44
Time_Shift_2
Note_On_60_Vel_0
Time_Shift_3
Note_On_66_Vel_39
Time_Shift_3
Note_On_60_Vel_47
Time_Shift_1
Note_On_66_Vel_0
Time_Shift_163
Note_On_55_Vel_60
Time_Shift_1
Note_On_43_Vel_68
Time_Shift_1
Sustain_Off
Time_Shift_27
Sustain_On
Time_Shift_369
Note_On_32_Vel_0
Time_Shift_9
Note_On_42_Vel_65
Time_Shift_2
Note_On_69_Vel_58
Time_Shift_5
Note_On_54_Vel_60
Time_Shift_9
Note_On_66_Vel_51
Time_Shift_2
Note_On_61_Vel_48
Time_Shift_31
Sustain_Off
Time_Shift_3
Note_On_43_Vel_0
Note_On_60_Vel_0
Time_Shift_2
Note_On_44_Vel_0
Time_Shift_1
Note_On_55_Vel_0
Time_Shift_13
Note_On_56_Vel_0
Time_Shift_7
Note_On_68_Vel_0
Time_Shift_31
Note_On_63_Vel_0
Time_Shift_146
Sustain_On
Time_Shift_328
Note_On_63_Vel_41
Time_Shift_10
Note_On_69_Vel_0
Time_Shift_5
Note_On_60_Vel_44
Time_Shift_4
Note_On_69_Vel_39
Time_Shift_383
Note_On_63_Vel_0
Time_Shift_7
Note_On_60_Vel_0
Note_On_69_Vel_0
Time_Shift_3
Note_On_63_Vel_47
Time_Shift_3
Note_On_69_Vel_43
Time_Shift_6
Note_On_60_Vel_40
Time_Shift_503
Note_On_61_Vel_0
Time_Shift_62
Note_On_47_Vel_45
Time_Shift_17
Note_On_71_Vel_51
Time_Shift_5
Note_On_63_Vel_0
Time_Shift_6
Note_On_59_Vel_40
Time_Shift_2
Note_On_69_Vel_0
Time_Shift_2
Note_On_63_Vel_44
Time_Shift_5
Note_On_69_Vel_44
Time_Shift_28
Sustain_Off
Time_Shift_4
Note_On_60_Vel_0
Time_Shift_1
Note_On_54_Vel_0
Time_Shift_1
Note_On_42_Vel_0
Time_Shift_13
Note_On_66_Vel_0
Time_Shift_84
Sustain_On
Time_Shift_261
Note_On_63_Vel_0
Time_Shift_10
Note_On_63_Vel_46
Time_Shift_159
Note_On_69_Vel_0
Time_Shift_2
Note_On_61_Vel_39
Time_Shift_9
Note_On_69_Vel_41
Time_Shift_565
Note_On_63_Vel_0
Time_Shift_11
Note_On_63_Vel_33
Time_Shift_20
Note_On_59_Vel_0
Time_Shift_8
Note_On_71_Vel_0
Time_Shift_2
Note_On_59_Vel_30
Time_Shift_2
Note_On_71_Vel_27
Time_Shift_341
Note_On_71_Vel_0
Time_Shift_10
Note_On_71_Vel_43
Time_Shift_611
Note_On_40_Vel_30
Time_Shift_94
Note_On_71_Vel_0
Time_Shift_6
Note_On_71_Vel_54
Time_Shift_392
Note_On_52_Vel_42
Time_Shift_1
Note_On_40_Vel_0
Note_On_47_Vel_0
Time_Shift_5
Note_On_40_Vel_34
Time_Shift_1
Note_On_47_Vel_39
Time_Shift_409
Note_On_52_Vel_0
Time_Shift_7
Note_On_40_Vel_0
Time_Shift_2
Note_On_52_Vel_29
Time_Shift_8
Note_On_40_Vel_21
Time_Shift_351
Note_On_59_Vel_0
Time_Shift_5
Note_On_59_Vel_36
Time_Shift_3
Note_On_52_Vel_0
Time_Shift_4
Note_On_76_Vel_49
Time_Shift_4
Note_On_64_Vel_44
Time_Shift_1
Note_On_52_Vel_26
Time_Shift_344
Note_On_52_Vel_0
Note_On_59_Vel_0
Time_Shift_8
Note_On_40_Vel_0
Time_Shift_1
Note_On_59_Vel_49
Time_Shift_3
Note_On_52_Vel_31
Time_Shift_1
Note_On_40_Vel_28
Time_Shift_326
Note_On_73_Vel_51
Time_Shift_7
Note_On_64_Vel_0
Time_Shift_6
Note_On_64_Vel_42
Time_Shift_2
Note_On_52_Vel_0
Note_On_59_Vel_0
Time_Shift_5
Note_On_52_Vel_30
Time_Shift_4
Note_On_59_Vel_23
Time_Shift_158
Note_On_78_Vel_60
Time_Shift_178
Note_On_64_Vel_0
Time_Shift_5
Note_On_80_Vel_66
Time_Shift_6
Note_On_64_Vel_42
Time_Shift_12
Note_On_71_Vel_0
Time_Shift_6
Note_On_71_Vel_47
Time_Shift_179
Note_On_61_Vel_0
Note_On_63_Vel_0
Note_On_69_Vel_0
Time_Shift_130
Note_On_59_Vel_0
Note_On_64_Vel_0
Time_Shift_5
Note_On_64_Vel_36
Time_Shift_2
Note_On_59_Vel_37
Time_Shift_293
Note_On_52_Vel_0
Note_On_59_Vel_0
Time_Shift_7
Note_On_40_Vel_0
Note_On_59_Vel_42
Time_Shift_4
Note_On_52_Vel_35
Time_Shift_1
Note_On_40_Vel_29
Time_Shift_395
Note_On_47_Vel_0
Note_On_52_Vel_0
Time_Shift_6
Note_On_47_Vel_39
Time_Shift_4
Note_On_52_Vel_34
Time_Shift_28
Note_On_80_Vel_0
Time_Shift_5
Note_On_80_Vel_62
Time_Shift_356
Note_On_40_Vel_0
Note_On_47_Vel_0
Time_Shift_6
Note_On_47_Vel_44
Time_Shift_2
Note_On_40_Vel_39
Time_Shift_399
Note_On_40_Vel_0
Note_On_47_Vel_0
Time_Shift_8
Note_On_52_Vel_0
Note_On_47_Vel_37
Time_Shift_3
Note_On_40_Vel_35
Time_Shift_1
Note_On_61_Vel_44
Time_Shift_3
Note_On_52_Vel_39
Time_Shift_438
Note_On_40_Vel_0
Time_Shift_5
Note_On_40_Vel_35
Time_Shift_18
Note_On_47_Vel_0
Time_Shift_5
Note_On_47_Vel_34
Time_Shift_41
Note_On_80_Vel_0
Time_Shift_11
Note_On_80_Vel_65
Time_Shift_419
Note_On_52_Vel_0
Time_Shift_7
Note_On_52_Vel_35
Time_Shift_24
Note_On_40_Vel_0
Time_Shift_8
Note_On_47_Vel_0
Time_Shift_3
Note_On_40_Vel_27
Time_Shift_2
Note_On_47_Vel_37
Time_Shift_333
Note_On_59_Vel_0
Time_Shift_6
Note_On_59_Vel_46
Time_Shift_9
Note_On_40_Vel_0
Note_On_52_Vel_0
Time_Shift_9
Note_On_52_Vel_41
Time_Shift_1
Note_On_40_Vel_34
Time_Shift_320
Note_On_64_Vel_0
Time_Shift_6
Note_On_64_Vel_41
Time_Shift_2
Note_On_59_Vel_0
Time_Shift_11
Note_On_59_Vel_33
Time_Shift_12
Note_On_76_Vel_0
Time_Shift_342
Note_On_62_Vel_37
Time_Shift_11
Note_On_52_Vel_0
Time_Shift_4
Note_On_52_Vel_32
Time_Shift_135
Note_On_61_Vel_0
Note_On_71_Vel_0
Note_On_73_Vel_0
Note_On_78_Vel_0
Time_Shift_253
Note_On_64_Vel_0
Time_Shift_11
Note_On_64_Vel_34
Time_Shift_15
Note_On_73_Vel_43
Time_Shift_267
Note_On_81_Vel_53
Time_Shift_198
Note_On_80_Vel_0
Time_Shift_10
Note_On_80_Vel_60
Time_Shift_21
Note_On_52_Vel_0
Time_Shift_6
Note_On_52_Vel_23
Time_Shift_2
Note_On_59_Vel_0
Time_Shift_1
Note_On_71_Vel_36
Time_Shift_3
Note_On_59_Vel_29
Time_Shift_426
Note_On_64_Vel_0
Time_Shift_5
Note_On_64_Vel_35
Time_Shift_3
Note_On_59_Vel_0
Time_Shift_10
Note_On_59_Vel_37
Time_Shift_289
Note_On_62_Vel_0
Time_Shift_10
Note_On_62_Vel_42
Time_Shift_21
Note_On_52_Vel_0
Time_Shift_4
Note_On_52_Vel_32
Time_Shift_349
Note_On_52_Vel_0
Time_Shift_7
Note_On_52_Vel_32
Time_Shift_9
Note_On_40_Vel_0
Note_On_47_Vel_0
Time_Shift_5
Note_On_40_Vel_22
Time_Shift_1
Note_On_47_Vel_32
Time_Shift_347
Note_On_40_Vel_0
Note_On_47_Vel_0
Time_Shift_5
Note_On_40_Vel_30
Time_Shift_5
Note_On_47_Vel_32
Time_Shift_474
Note_On_62_Vel_0
Time_Shift_5
Note_On_62_Vel_25
Time_Shift_2
Note_On_52_Vel_0
Time_Shift_8
Note_On_64_Vel_0
Time_Shift_2
Note_On_52_Vel_27
Time_Shift_4
Note_On_64_Vel_25
Time_Shift_566
Note_On_33_Vel_32
Note_On_45_Vel_31
Time_Shift_42
Note_On_80_Vel_0
Time_Shift_11
Note_On_80_Vel_57
Time_Shift_443
Note_On_59_Vel_0
Note_On_71_Vel_0
Note_On_73_Vel_0
Note_On_81_Vel_0
Time_Shift_151
Note_On_49_Vel_35
Time_Shift_6
Note_On_61_Vel_28
Time_Shift_3
Note_On_54_Vel_29
Time_Shift_316
Note_On_61_Vel_0
Time_Shift_4
Note_On_61_Vel_45
Time_Shift_3
Note_On_54_Vel_0
Time_Shift_10
Note_On_54_Vel_39
Time_Shift_321
Note_On_80_Vel_0
Time_Shift_5
Note_On_80_Vel_67
Time_Shift_2
Note_On_61_Vel_0
Time_Shift_3
Note_On_66_Vel_50
Time_Shift_5
Note_On_54_Vel_0
Time_Shift_4
Note_On_61_Vel_41
Time_Shift_1
Note_On_54_Vel_34
Time_Shift_287
Note_On_61_Vel_0
Time_Shift_5
Note_On_61_Vel_37
Time_Shift_2
Note_On_54_Vel_0
Time_Shift_5
Note_On_54_Vel_41
Time_Shift_287
Note_On_66_Vel_0
Time_Shift_11
Note_On_66_Vel_53
Time_Shift_3
Note_On_73_Vel_52
Time_Shift_155
Note_On_80_Vel_0
Time_Shift_10
Note_On_80_Vel_63
Time_Shift_167
Note_On_47_Vel_0
Time_Shift_5
Note_On_47_Vel_47
Time_Shift_41
Note_On_80_Vel_0
Time_Shift_4
Note_On_80_Vel_68
Time_Shift_1
Sustain_Off
Time_Shift_10
Note_On_73_Vel_0
Time_Shift_10
Note_On_49_Vel_0
Note_On_61_Vel_0
Note_On_73_Vel_58
Time_Shift_6
Note_On_33_Vel_0
Note_On_45_Vel_0
Note_On_62_Vel_0
Note_On_64_Vel_0
Note_On_54_Vel_0
Time_Shift_4
Note_On_66_Vel_0
Time_Shift_11
Note_On_40_Vel_0
Note_On_52_Vel_0
Time_Shift_8
Sustain_On
Time_Shift_422
Note_On_54_Vel_43
Time_Shift_3
Note_On_63_Vel_41
Time_Shift_127
Note_On_78_Vel_65
Time_Shift_167
Note_On_57_Vel_45
Time_Shift_35
Note_On_66_Vel_50
Time_Shift_344
Note_On_63_Vel_0
Time_Shift_11
Note_On_69_Vel_45
Note_On_63_Vel_34
Time_Shift_69
Note_On_76_Vel_54
Time_Shift_365
Note_On_66_Vel_0
Time_Shift_8
Note_On_66_Vel_42
Time_Shift_14
Note_On_71_Vel_44
Time_Shift_370
Note_On_63_Vel_0
Time_Shift_8
Note_On_54_Vel_0
Time_Shift_3
Note_On_63_Vel_31
Time_Shift_1
Note_On_54_Vel_30
Time_Shift_27
Note_On_47_Vel_0
Note_On_73_Vel_0
Note_On_80_Vel_0
Time_Shift_30
Note_On_69_Vel_0
Time_Shift_6
Note_On_69_Vel_36
Time_Shift_217
Note_On_78_Vel_0
Time_Shift_9
Note_On_78_Vel_53
Time_Shift_258
Note_On_40_Vel_29
Time_Shift_31
Note_On_80_Vel_57
Time_Shift_21
Note_On_47_Vel_38
Time_Shift_91
Sustain_Off
Time_Shift_1
Note_On_78_Vel_0
Time_Shift_1
Note_On_71_Vel_0
Note_On_66_Vel_0
Note_On_54_Vel_0
Note_On_63_Vel_0
Note_On_69_Vel_0
Time_Shift_1
Note_On_76_Vel_0
Time_Shift_9
Note_On_57_Vel_0
Time_Shift_69
Sustain_On
Time_Shift_85
Note_On_47_Vel_0
Time_Shift_174
Note_On_52_Vel_44
Time_Shift_341
Note_On_52_Vel_0
Time_Shift_10
Note_On_52_Vel_25
Time_Shift_2
Note_On_64_Vel_24
Time_Shift_4
Note_On_59_Vel_36
Time_Shift_329
Note_On_59_Vel_0
Note_On_64_Vel_0
Time_Shift_6
Note_On_64_Vel_42
Time_Shift_3
Note_On_59_Vel_41
Time_Shift_398
Note_On_64_Vel_0
Time_Shift_5
Note_On_64_Vel_33
Time_Shift_3
Note_On_59_Vel_0
Time_Shift_8
Note_On_59_Vel_36
Time_Shift_371
Note_On_71_Vel_48
Time_Shift_13
Note_On_64_Vel_0
Time_Shift_10
Note_On_64_Vel_26
Time_Shift_479
Note_On_33_Vel_35
Time_Shift_78
Sustain_Off
Time_Shift_16
Note_On_80_Vel_0
Time_Shift_12
Note_On_80_Vel_61
Note_On_73_Vel_48
Time_Shift_26
Note_On_71_Vel_0
Time_Shift_13
Note_On_59_Vel_0
Time_Shift_3
Note_On_52_Vel_0
Time_Shift_8
Note_On_64_Vel_0
Sustain_On
Time_Shift_476
Note_On_54_Vel_41
Note_On_61_Vel_38
Time_Shift_213
Note_On_78_Vel_62
Time_Shift_10
Note_On_40_Vel_0
Time_Shift_161
Note_On_61_Vel_0
Time_Shift_5
Note_On_73_Vel_0
Note_On_61_Vel_32
Time_Shift_4
Note_On_69_Vel_37
Time_Shift_450
Note_On_35_Vel_35
Time_Shift_5
Note_On_47_Vel_30
Time_Shift_48
Note_On_61_Vel_0
Time_Shift_1
Note_On_54_Vel_0
Time_Shift_3
Note_On_76_Vel_52
Time_Shift_1
Note_On_80_Vel_0
Sustain_Off
Time_Shift_5
Note_On_33_Vel_0
Sustain_On
Time_Shift_15
Note_On_69_Vel_0
Time_Shift_6
Note_On_69_Vel_25
Time_Shift_441
Note_On_71_Vel_46
Time_Shift_22
Note_On_47_Vel_0
Time_Shift_8
Note_On_69_Vel_0
Note_On_57_Vel_38
Note_On_47_Vel_41
Time_Shift_4
Note_On_69_Vel_37
Time_Shift_13
Note_On_61_Vel_22
Time_Shift_489
Note_On_69_Vel_0
Time_Shift_3
Note_On_63_Vel_39
Time_Shift_2
Note_On_54_Vel_32
Note_On_69_Vel_41
Time_Shift_349
Note_On_78_Vel_0
Time_Shift_6
Note_On_78_Vel_54
Time_Shift_528
Note_On_28_Vel_34
Time_Shift_62
Note_On_80_Vel_57
Time_Shift_15
Note_On_68_Vel_39
Time_Shift_52
Note_On_71_Vel_0
Note_On_76_Vel_0
Time_Shift_1
Note_On_78_Vel_0
Note_On_69_Vel_0
Note_On_57_Vel_0
Note_On_54_Vel_0
Note_On_63_Vel_0
Note_On_47_Vel_0
Time_Shift_1
Note_On_35_Vel_0
Time_Shift_3
Note_On_61_Vel_0
Time_Shift_3
Sustain_Off
Time_Shift_66
Sustain_On
Time_Shift_392
Note_On_28_Vel_0
Time_Shift_217
Note_On_52_Vel_37
Note_On_47_Vel_40
Time_Shift_443
Note_On_52_Vel_0
Time_Shift_11
Note_On_52_Vel_41
Time_Shift_7
Note_On_59_Vel_38
Time_Shift_1076
Note_On_64_Vel_32
Time_Shift_4
Note_On_59_Vel_0
Time_Shift_8
Note_On_52_Vel_0
Time_Shift_3
Note_On_59_Vel_26
Time_Shift_7
Note_On_52_Vel_19
Time_Shift_2302
Note_On_80_Vel_0
Time_Shift_15
Note_On_68_Vel_0
Time_Shift_423
Note_On_47_Vel_0
Note_On_52_Vel_0
Note_On_59_Vel_0
Note_On_64_Vel_0
Time_Shift_1046
Sustain_Off
