Time_Shift_434
Note_On_78_Vel_76
Note_On_59_Vel_88
Note_On_47_Vel_86
Time_Shift_2
Note_On_71_Vel_83
Time_Shift_24
Note_On_78_Vel_0
Time_Shift_156
Note_On_59_Vel_0
Time_Shift_107
Note_On_64_Vel_99
Time_Shift_2
Note_On_52_Vel_87
Time_Shift_1
Note_On_40_Vel_81
Time_Shift_6
Note_On_47_Vel_0
Time_Shift_20
Note_On_71_Vel_0
Time_Shift_92
Sustain_On
Time_Shift_335
Note_On_47_Vel_83
Note_On_71_Vel_76
Time_Shift_1
Note_On_59_Vel_79
Time_Shift_71
Note_On_59_Vel_0
Note_On_71_Vel_0
Time_Shift_9
Note_On_59_Vel_77
Time_Shift_1
Note_On_71_Vel_69
Time_Shift_80
Sustain_Off
Time_Shift_3
Note_On_52_Vel_0
Note_On_64_Vel_0
Time_Shift_4
Note_On_64_Vel_102
Time_Shift_1
Note_On_76_Vel_92
Time_Shift_2
Note_On_40_Vel_0
Time_Shift_2
Note_On_52_Vel_89
Time_Shift_2
Note_On_59_Vel_0
Time_Shift_1
Note_On_40_Vel_81
Time_Shift_4
Note_On_47_Vel_0
Time_Shift_83
Note_On_71_Vel_0
Time_Shift_39
Sustain_On
Time_Shift_277
Note_On_59_Vel_84
Time_Shift_1
Note_On_47_Vel_85
Note_On_71_Vel_81
Time_Shift_67
Note_On_59_Vel_0
Note_On_71_Vel_0
Time_Shift_11
Note_On_71_Vel_77
Note_On_59_Vel_81
Time_Shift_44
Sustain_Off
Time_Shift_2
Note_On_64_Vel_0
Note_On_47_Vel_0
Time_Shift_12
Note_On_52_Vel_0
Note_On_76_Vel_0
Time_Shift_31
Note_On_40_Vel_0
Time_Shift_5
Note_On_64_Vel_101
Time_Shift_3
Note_On_59_Vel_0
Note_On_76_Vel_86
Note_On_52_Vel_88
Time_Shift_3
Note_On_40_Vel_77
Time_Shift_12
Note_On_71_Vel_0
Time_Shift_39
Sustain_On
Time_Shift_150
Note_On_59_Vel_85
Time_Shift_1
Note_On_71_Vel_80
Time_Shift_4
Note_On_47_Vel_79
Time_Shift_75
Note_On_59_Vel_0
Note_On_71_Vel_0
Time_Shift_7
Note_On_59_Vel_82
Note_On_71_Vel_83
Time_Shift_89
Note_On_59_Vel_0
Time_Shift_1
Note_On_47_Vel_0
Sustain_Off
Time_Shift_3
Note_On_64_Vel_0
Time_Shift_7
Note_On_64_Vel_94
Time_Shift_8
Note_On_40_Vel_0
Note_On_52_Vel_0
Note_On_76_Vel_0
Time_Shift_6
Note_On_52_Vel_73
Time_Shift_2
Note_On_40_Vel_61
Time_Shift_15
Note_On_71_Vel_0
Time_Shift_85
Sustain_On
Time_Shift_100
Note_On_47_Vel_78
Time_Shift_2
Note_On_71_Vel_74
Time_Shift_1
Note_On_59_Vel_77
Time_Shift_89
Note_On_59_Vel_0
Time_Shift_10
Note_On_59_Vel_65
Time_Shift_74
Note_On_52_Vel_0
Note_On_64_Vel_0
Time_Shift_5
Note_On_64_Vel_81
Time_Shift_7
Note_On_52_Vel_66
Time_Shift_11
Note_On_40_Vel_0
Time_Shift_7
Note_On_40_Vel_52
Time_Shift_180
Sustain_Off
Time_Shift_1
Note_On_40_Vel_0
Time_Shift_1
Note_On_64_Vel_0
Time_Shift_19
Note_On_47_Vel_0
Note_On_52_Vel_0
Note_On_59_Vel_0
Note_On_71_Vel_0
Time_Shift_11
Note_On_47_Vel_66
Note_On_59_Vel_67
Time_Shift_227
Note_On_47_Vel_0
Time_Shift_1
Note_On_59_Vel_0
Time_Shift_38
Note_On_64_Vel_60
Time_Shift_7
Note_On_52_Vel_55
Time_Shift_46
Sustain_On
Time_Shift_207
Note_On_66_Vel_60
Time_Shift_4
Note_On_54_Vel_56
Time_Shift_92
Note_On_56_Vel_69
Time_Shift_1
Note_On_68_Vel_60
Time_Shift_76
Note_On_69_Vel_73
Time_Shift_31
Note_On_57_Vel_44
Time_Shift_6
Note_On_59_Vel_40
Time_Shift_5
Note_On_59_Vel_0
Time_Shift_39
Note_On_71_Vel_79
Time_Shift_20
Note_On_59_Vel_57
Time_Shift_5
Note_On_54_Vel_0
Time_Shift_1
Note_On_52_Vel_0
Note_On_66_Vel_0
Note_On_68_Vel_0
Note_On_64_Vel_0
Note_On_56_Vel_0
Time_Shift_2
Sustain_Off
Time_Shift_13
Note_On_69_Vel_0
Time_Shift_12
Note_On_57_Vel_0
Time_Shift_49
Note_On_71_Vel_0
Time_Shift_3
Note_On_59_Vel_0
Time_Shift_13
Note_On_73_Vel_85
Time_Shift_2
Note_On_61_Vel_67
Time_Shift_225
Sustain_On
Time_Shift_32
Note_On_51_Vel_54
Time_Shift_11
Note_On_69_Vel_60
Time_Shift_6
Note_On_66_Vel_55
Time_Shift_170
Note_On_71_Vel_89
Time_Shift_10
Note_On_59_Vel_73
Time_Shift_201
Note_On_73_Vel_0
Time_Shift_8
Note_On_61_Vel_0
Time_Shift_3
Note_On_73_Vel_94
Time_Shift_7
Note_On_61_Vel_73
Time_Shift_6
Note_On_66_Vel_0
Note_On_51_Vel_0
Time_Shift_1
Note_On_69_Vel_0
Note_On_71_Vel_0
Time_Shift_1
Sustain_Off
Note_On_59_Vel_0
Time_Shift_197
Sustain_On
Time_Shift_18
Note_On_68_Vel_67
Time_Shift_1
Note_On_52_Vel_59
Time_Shift_1
Note_On_64_Vel_58
Time_Shift_244
Note_On_71_Vel_71
Time_Shift_26
Note_On_59_Vel_53
Time_Shift_268
Sustain_Off
Time_Shift_6
Note_On_68_Vel_0
Note_On_59_Vel_0
Time_Shift_1
Note_On_52_Vel_0
Note_On_71_Vel_0
Time_Shift_19
Note_On_61_Vel_0
Note_On_64_Vel_0
Note_On_73_Vel_0
Time_Shift_4
Note_On_73_Vel_70
Time_Shift_2
Note_On_61_Vel_41
Time_Shift_348
Note_On_69_Vel_55
Time_Shift_3
Note_On_66_Vel_52
Time_Shift_3
Note_On_51_Vel_47
Time_Shift_16
Sustain_On
Time_Shift_8
Sustain_Off
Time_Shift_84
Sustain_On
Time_Shift_295
Note_On_71_Vel_65
Time_Shift_17
Note_On_59_Vel_47
Time_Shift_326
Note_On_71_Vel_0
Time_Shift_5
Note_On_71_Vel_72
Time_Shift_54
Note_On_66_Vel_0
Note_On_61_Vel_0
Note_On_69_Vel_0
Time_Shift_1
Sustain_Off
Note_On_51_Vel_0
Note_On_73_Vel_0
Time_Shift_1
Note_On_59_Vel_0
Time_Shift_1
Note_On_71_Vel_0
Time_Shift_27
Note_On_80_Vel_78
Time_Shift_4
Note_On_52_Vel_57
Time_Shift_68
Sustain_On
Time_Shift_184
Sustain_Off
Time_Shift_8
Note_On_52_Vel_0
Time_Shift_4
Note_On_52_Vel_59
Time_Shift_5
Note_On_78_Vel_76
Time_Shift_3
Note_On_75_Vel_66
Time_Shift_9
Note_On_80_Vel_0
Time_Shift_33
Note_On_52_Vel_0
Time_Shift_130
Note_On_75_Vel_0
Time_Shift_27
Note_On_80_Vel_86
Time_Shift_4
Note_On_52_Vel_69
Note_On_64_Vel_60
Time_Shift_5
Note_On_74_Vel_66
Time_Shift_3
Note_On_64_Vel_0
Time_Shift_13
Note_On_71_Vel_39
Time_Shift_14
Note_On_52_Vel_0
Time_Shift_5
Note_On_74_Vel_0
Time_Shift_14
Note_On_78_Vel_0
Time_Shift_84
Note_On_71_Vel_0
Time_Shift_75
Note_On_83_Vel_89
Time_Shift_13
Note_On_73_Vel_73
Time_Shift_4
Note_On_45_Vel_59
Time_Shift_39
Sustain_On
Time_Shift_160
Note_On_64_Vel_69
Time_Shift_4
Note_On_57_Vel_58
Time_Shift_186
Note_On_81_Vel_91
Time_Shift_3
Note_On_64_Vel_0
Note_On_73_Vel_0
Time_Shift_4
Note_On_73_Vel_84
Time_Shift_4
Note_On_57_Vel_0
Time_Shift_1
Note_On_64_Vel_70
Time_Shift_3
Note_On_57_Vel_65
Time_Shift_7
Note_On_45_Vel_0
Time_Shift_159
Sustain_Off
Note_On_80_Vel_0
Note_On_73_Vel_0
Note_On_81_Vel_0
Time_Shift_1
Note_On_83_Vel_0
Time_Shift_13
Note_On_57_Vel_0
Note_On_64_Vel_0
Time_Shift_35
Note_On_76_Vel_91
Time_Shift_5
Note_On_45_Vel_71
Time_Shift_8
Note_On_72_Vel_77
Time_Shift_52
Sustain_On
Time_Shift_147
Note_On_64_Vel_71
Time_Shift_1
Note_On_57_Vel_61
Time_Shift_88
Note_On_78_Vel_91
Time_Shift_2
Note_On_72_Vel_0
Time_Shift_11
Note_On_72_Vel_75
Time_Shift_66
Note_On_57_Vel_0
Note_On_64_Vel_0
Note_On_76_Vel_0
Time_Shift_5
Note_On_57_Vel_68
Time_Shift_2
Note_On_72_Vel_0
Time_Shift_2
Note_On_64_Vel_73
Time_Shift_2
Note_On_76_Vel_84
Time_Shift_6
Note_On_72_Vel_68
Time_Shift_261
Note_On_57_Vel_0
Sustain_Off
Note_On_76_Vel_0
Note_On_78_Vel_0
Time_Shift_1
Note_On_72_Vel_0
Note_On_64_Vel_0
Time_Shift_1
Note_On_45_Vel_0
Time_Shift_15
Note_On_80_Vel_80
Time_Shift_1
Note_On_52_Vel_56
Time_Shift_5
Note_On_71_Vel_65
Time_Shift_106
Sustain_On
Time_Shift_122
Note_On_64_Vel_53
Time_Shift_1
Note_On_52_Vel_0
Time_Shift_3
Note_On_59_Vel_46
Time_Shift_4
Note_On_52_Vel_41
Time_Shift_208
Note_On_52_Vel_0
Note_On_59_Vel_0
Note_On_64_Vel_0
Time_Shift_6
Note_On_59_Vel_56
Time_Shift_1
Note_On_71_Vel_0
Time_Shift_1
Note_On_64_Vel_52
Time_Shift_1
Note_On_52_Vel_46
Time_Shift_225
Note_On_73_Vel_77
Note_On_54_Vel_62
Note_On_52_Vel_0
Time_Shift_1
Note_On_80_Vel_0
Note_On_64_Vel_0
Time_Shift_2
Note_On_59_Vel_0
Time_Shift_2
Sustain_Off
Time_Shift_10
Note_On_70_Vel_65
Time_Shift_66
Sustain_On
Time_Shift_134
Note_On_61_Vel_50
Time_Shift_1
Note_On_64_Vel_47
Time_Shift_83
Note_On_75_Vel_86
Time_Shift_4
Note_On_70_Vel_0
Time_Shift_11
Note_On_70_Vel_74
Time_Shift_74
Note_On_73_Vel_0
Time_Shift_8
Note_On_61_Vel_0
Note_On_64_Vel_0
Note_On_70_Vel_0
Time_Shift_1
Note_On_73_Vel_92
Time_Shift_5
Note_On_58_Vel_55
Time_Shift_2
Note_On_61_Vel_53
Note_On_64_Vel_65
Time_Shift_1
Note_On_70_Vel_86
Time_Shift_6
Note_On_58_Vel_0
Time_Shift_220
Note_On_54_Vel_0
Time_Shift_1
Note_On_75_Vel_0
Sustain_Off
Time_Shift_17
Note_On_61_Vel_0
Note_On_64_Vel_0
Note_On_70_Vel_0
Note_On_73_Vel_0
Time_Shift_11
Note_On_80_Vel_79
Time_Shift_3
Note_On_47_Vel_66
Time_Shift_6
Note_On_69_Vel_65
Time_Shift_38
Note_On_47_Vel_0
Time_Shift_11
Sustain_On
Time_Shift_167
Note_On_63_Vel_61
Time_Shift_7
Note_On_47_Vel_54
Time_Shift_1
Note_On_59_Vel_55
Time_Shift_2
Note_On_54_Vel_56
Time_Shift_169
Note_On_54_Vel_0
Note_On_59_Vel_0
Note_On_63_Vel_0
Time_Shift_4
Note_On_63_Vel_59
Time_Shift_3
Note_On_69_Vel_0
Time_Shift_2
Note_On_59_Vel_69
Time_Shift_2
Note_On_54_Vel_55
Note_On_78_Vel_78
Time_Shift_5
Note_On_69_Vel_66
Time_Shift_151
Sustain_Off
Note_On_69_Vel_0
Time_Shift_1
Note_On_63_Vel_0
Note_On_80_Vel_0
Time_Shift_1
Note_On_47_Vel_0
Time_Shift_15
Note_On_54_Vel_0
Note_On_59_Vel_0
Time_Shift_51
Note_On_47_Vel_63
Time_Shift_12
Note_On_71_Vel_78
Time_Shift_2
Note_On_69_Vel_72
Time_Shift_3
Note_On_59_Vel_59
Time_Shift_16
Sustain_On
Time_Shift_24
Note_On_47_Vel_0
Time_Shift_161
Note_On_69_Vel_0
Time_Shift_2
Note_On_75_Vel_92
Time_Shift_1
Note_On_63_Vel_72
Time_Shift_1
Note_On_54_Vel_69
Note_On_47_Vel_65
Time_Shift_1
Note_On_69_Vel_82
Time_Shift_194
Note_On_54_Vel_0
Note_On_59_Vel_0
Note_On_69_Vel_0
Time_Shift_5
Note_On_76_Vel_93
Time_Shift_1
Note_On_63_Vel_0
Time_Shift_2
Note_On_47_Vel_0
Time_Shift_2
Note_On_54_Vel_73
Time_Shift_1
Note_On_59_Vel_79
Time_Shift_1
Note_On_69_Vel_87
Note_On_47_Vel_69
Time_Shift_180
Sustain_Off
Time_Shift_2
Note_On_54_Vel_0
Time_Shift_1
Note_On_71_Vel_0
Time_Shift_1
Note_On_76_Vel_0
Time_Shift_12
Note_On_59_Vel_0
Time_Shift_15
Note_On_47_Vel_0
Note_On_69_Vel_0
Time_Shift_8
Note_On_77_Vel_91
Time_Shift_2
Note_On_47_Vel_76
Time_Shift_2
Note_On_69_Vel_84
Time_Shift_32
Note_On_47_Vel_0
Time_Shift_2
Note_On_78_Vel_0
Time_Shift_16
Sustain_On
Time_Shift_184
Note_On_69_Vel_0
Note_On_75_Vel_0
Time_Shift_3
Note_On_78_Vel_95
Note_On_63_Vel_79
Time_Shift_1
Note_On_47_Vel_74
Time_Shift_1
Note_On_59_Vel_77
Time_Shift_2
Note_On_54_Vel_73
Time_Shift_2
Note_On_75_Vel_87
Time_Shift_1
Note_On_69_Vel_81
Time_Shift_190
Note_On_47_Vel_0
Time_Shift_3
Note_On_79_Vel_98
Time_Shift_4
Note_On_54_Vel_0
Note_On_59_Vel_0
Note_On_69_Vel_0
Note_On_75_Vel_0
Time_Shift_4
Note_On_47_Vel_75
Note_On_69_Vel_85
Note_On_81_Vel_92
Time_Shift_1
Note_On_54_Vel_72
Note_On_75_Vel_87
Note_On_59_Vel_73
Time_Shift_189
Sustain_Off
Time_Shift_1
Note_On_54_Vel_0
Note_On_69_Vel_0
Time_Shift_1
Note_On_78_Vel_0
Note_On_81_Vel_0
Note_On_79_Vel_0
Note_On_75_Vel_0
Note_On_59_Vel_0
Time_Shift_12
Note_On_63_Vel_0
Note_On_77_Vel_0
Time_Shift_7
Note_On_47_Vel_0
Time_Shift_18
Note_On_80_Vel_103
Time_Shift_1
Note_On_52_Vel_82
Time_Shift_1
Note_On_68_Vel_92
Time_Shift_1
Note_On_40_Vel_79
Time_Shift_1
Note_On_76_Vel_70
Time_Shift_29
Note_On_40_Vel_0
Time_Shift_1
Note_On_52_Vel_0
Time_Shift_25
Sustain_On
Time_Shift_108
Note_On_68_Vel_0
Time_Shift_41
Note_On_52_Vel_81
Time_Shift_6
Note_On_75_Vel_94
Time_Shift_1
Note_On_78_Vel_90
Time_Shift_182
Note_On_52_Vel_0
Time_Shift_8
Note_On_80_Vel_0
Time_Shift_2
Note_On_52_Vel_81
Note_On_64_Vel_79
Time_Shift_2
Note_On_80_Vel_99
Time_Shift_5
Note_On_74_Vel_90
Time_Shift_202
Sustain_Off
Time_Shift_2
Note_On_74_Vel_0
Note_On_75_Vel_0
Time_Shift_1
Note_On_80_Vel_0
Time_Shift_2
Note_On_78_Vel_0
Time_Shift_6
Note_On_64_Vel_0
Note_On_76_Vel_0
Time_Shift_8
Note_On_52_Vel_0
Time_Shift_6
Note_On_83_Vel_102
Time_Shift_7
Note_On_45_Vel_82
Note_On_73_Vel_95
Time_Shift_6
Note_On_57_Vel_86
Time_Shift_66
Sustain_On
Time_Shift_7
Note_On_45_Vel_0
Time_Shift_123
Note_On_57_Vel_0
Time_Shift_11
Note_On_57_Vel_68
Time_Shift_1
Note_On_64_Vel_70
Time_Shift_180
Note_On_57_Vel_0
Note_On_64_Vel_0
Note_On_73_Vel_0
Time_Shift_3
Note_On_81_Vel_96
Time_Shift_1
Note_On_45_Vel_74
Time_Shift_1
Note_On_73_Vel_90
Note_On_57_Vel_78
Time_Shift_1
Note_On_64_Vel_73
Time_Shift_216
Sustain_Off
Note_On_73_Vel_0
Time_Shift_1
Note_On_81_Vel_0
Time_Shift_1
Note_On_64_Vel_0
Note_On_57_Vel_0
Time_Shift_1
Note_On_83_Vel_0
Time_Shift_21
Note_On_45_Vel_0
Time_Shift_3
Note_On_76_Vel_88
Time_Shift_1
Note_On_72_Vel_83
Time_Shift_1
Note_On_45_Vel_75
Time_Shift_72
Sustain_On
Time_Shift_142
Note_On_64_Vel_71
Time_Shift_1
Note_On_57_Vel_62
Time_Shift_87
Note_On_72_Vel_0
Time_Shift_4
Note_On_78_Vel_84
Time_Shift_3
Note_On_72_Vel_79
Time_Shift_70
Note_On_57_Vel_0
Note_On_64_Vel_0
Note_On_76_Vel_0
Time_Shift_4
Note_On_57_Vel_69
Note_On_64_Vel_76
Time_Shift_1
Note_On_76_Vel_93
Time_Shift_18
Note_On_72_Vel_0
Time_Shift_11
Note_On_72_Vel_64
Time_Shift_210
Note_On_72_Vel_0
Time_Shift_1
Note_On_57_Vel_0
Note_On_76_Vel_0
Note_On_78_Vel_0
Time_Shift_1
Note_On_64_Vel_0
Time_Shift_1
Sustain_Off
Time_Shift_6
Note_On_45_Vel_0
Time_Shift_26
Note_On_80_Vel_83
Time_Shift_1
Note_On_52_Vel_66
Time_Shift_4
Note_On_64_Vel_54
Time_Shift_4
Note_On_71_Vel_66
Time_Shift_65
Sustain_On
Time_Shift_16
Note_On_64_Vel_0
Time_Shift_130
Note_On_71_Vel_0
Time_Shift_7
Note_On_59_Vel_56
Time_Shift_2
Note_On_64_Vel_56
Time_Shift_1
Note_On_71_Vel_51
Time_Shift_205
Note_On_59_Vel_0
Note_On_64_Vel_0
Note_On_71_Vel_0
Time_Shift_4
Note_On_59_Vel_62
Time_Shift_2
Note_On_71_Vel_53
Time_Shift_5
Note_On_64_Vel_50
Time_Shift_214
Note_On_52_Vel_0
Time_Shift_1
Note_On_64_Vel_0
Note_On_71_Vel_0
Time_Shift_1
Note_On_59_Vel_0
Sustain_Off
Time_Shift_6
Note_On_73_Vel_75
Time_Shift_7
Note_On_54_Vel_61
Time_Shift_3
Note_On_70_Vel_66
Time_Shift_3
Note_On_80_Vel_0
Time_Shift_69
Sustain_On
Time_Shift_135
Note_On_64_Vel_49
Note_On_61_Vel_47
Time_Shift_94
Note_On_75_Vel_89
Time_Shift_1
Note_On_70_Vel_0
Time_Shift_10
Note_On_70_Vel_79
Time_Shift_83
Note_On_73_Vel_0
Time_Shift_7
Note_On_73_Vel_91
Note_On_54_Vel_0
Note_On_61_Vel_0
Note_On_64_Vel_0
Note_On_70_Vel_0
Time_Shift_4
Note_On_64_Vel_68
Time_Shift_1
Note_On_54_Vel_56
Note_On_70_Vel_90
Time_Shift_1
Note_On_61_Vel_61
Time_Shift_216
Note_On_54_Vel_0
Note_On_70_Vel_0
Sustain_Off
Note_On_73_Vel_0
Time_Shift_1
Note_On_64_Vel_0
Time_Shift_1
Note_On_61_Vel_0
Note_On_75_Vel_0
Time_Shift_30
Note_On_80_Vel_81
Time_Shift_3
Note_On_47_Vel_70
Time_Shift_3
Note_On_69_Vel_71
Time_Shift_32
Note_On_47_Vel_0
Time_Shift_23
Sustain_On
Time_Shift_163
Note_On_59_Vel_52
Time_Shift_3
Note_On_63_Vel_59
Time_Shift_7
Note_On_75_Vel_53
Time_Shift_6
Note_On_54_Vel_56
Time_Shift_182
Note_On_54_Vel_0
Note_On_59_Vel_0
Note_On_69_Vel_0
Time_Shift_4
Note_On_78_Vel_75
Note_On_59_Vel_62
Time_Shift_2
Note_On_63_Vel_0
Time_Shift_3
Note_On_54_Vel_62
Time_Shift_1
Note_On_69_Vel_68
Time_Shift_156
Sustain_Off
Note_On_54_Vel_0
Note_On_59_Vel_0
Time_Shift_1
Note_On_69_Vel_0
Time_Shift_1
Note_On_80_Vel_0
Time_Shift_58
Note_On_47_Vel_69
Time_Shift_2
Note_On_71_Vel_78
Time_Shift_3
Note_On_69_Vel_70
Time_Shift_30
Sustain_On
Time_Shift_146
Note_On_75_Vel_0
Time_Shift_10
Note_On_75_Vel_76
Time_Shift_28
Note_On_73_Vel_86
Time_Shift_1
Note_On_69_Vel_0
Note_On_59_Vel_66
Time_Shift_1
Note_On_63_Vel_68
Time_Shift_3
Note_On_54_Vel_67
Note_On_69_Vel_72
Time_Shift_188
Note_On_54_Vel_0
Note_On_59_Vel_0
Note_On_63_Vel_0
Note_On_69_Vel_0
Note_On_71_Vel_0
Time_Shift_5
Note_On_59_Vel_65
Time_Shift_3
Note_On_71_Vel_80
Time_Shift_1
Note_On_54_Vel_63
Time_Shift_1
Note_On_69_Vel_68
Time_Shift_1
Note_On_63_Vel_62
Time_Shift_223
Sustain_Off
Note_On_54_Vel_0
Time_Shift_1
Note_On_69_Vel_0
Note_On_75_Vel_0
Note_On_73_Vel_0
Note_On_47_Vel_0
Time_Shift_1
Note_On_71_Vel_0
Note_On_59_Vel_0
Time_Shift_2
Note_On_78_Vel_0
Time_Shift_15
Note_On_63_Vel_0
Time_Shift_47
Note_On_76_Vel_64
Time_Shift_1
Note_On_52_Vel_55
Time_Shift_2
Note_On_64_Vel_56
Time_Shift_1
Note_On_59_Vel_48
Time_Shift_4
Note_On_68_Vel_59
Time_Shift_37
Sustain_On
Time_Shift_305
Note_On_40_Vel_39
Time_Shift_310
Note_On_68_Vel_0
Note_On_75_Vel_73
Time_Shift_9
Note_On_68_Vel_38
Time_Shift_2
Note_On_63_Vel_49
Time_Shift_315
Sustain_Off
Time_Shift_2
Note_On_63_Vel_0
Note_On_59_Vel_0
Time_Shift_1
Note_On_76_Vel_0
Note_On_64_Vel_0
Time_Shift_1
Note_On_68_Vel_0
Note_On_40_Vel_0
Time_Shift_8
Note_On_52_Vel_0
Time_Shift_23
Note_On_75_Vel_0
Time_Shift_3
Note_On_75_Vel_72
Time_Shift_3
Note_On_56_Vel_63
Note_On_63_Vel_55
Time_Shift_2
Note_On_68_Vel_58
Time_Shift_61
Sustain_On
Time_Shift_192
Note_On_63_Vel_0
Time_Shift_4
Note_On_59_Vel_53
Note_On_63_Vel_45
Time_Shift_196
Note_On_80_Vel_88
Time_Shift_7
Note_On_68_Vel_0
Time_Shift_6
Note_On_68_Vel_67
Time_Shift_2
Note_On_59_Vel_0
Note_On_63_Vel_0
Time_Shift_5
Note_On_59_Vel_56
Time_Shift_6
Note_On_63_Vel_48
Time_Shift_192
Note_On_63_Vel_0
Note_On_56_Vel_0
Note_On_75_Vel_0
Note_On_59_Vel_0
Time_Shift_1
Sustain_Off
Time_Shift_11
Note_On_80_Vel_0
Time_Shift_11
Note_On_80_Vel_84
Time_Shift_12
Note_On_68_Vel_0
Time_Shift_4
Note_On_68_Vel_63
Note_On_49_Vel_68
Time_Shift_31
Note_On_49_Vel_0
Time_Shift_26
Sustain_On
Time_Shift_154
Note_On_68_Vel_0
Time_Shift_3
Note_On_64_Vel_54
Time_Shift_2
Note_On_56_Vel_60
Time_Shift_2
Note_On_68_Vel_48
Time_Shift_1
Note_On_61_Vel_48
Time_Shift_168
Note_On_64_Vel_0
Time_Shift_11
Note_On_64_Vel_64
Time_Shift_5
Note_On_56_Vel_0
Note_On_61_Vel_0
Time_Shift_2
Note_On_82_Vel_101
Time_Shift_2
Note_On_61_Vel_52
Time_Shift_4
Note_On_56_Vel_65
Time_Shift_2
Note_On_70_Vel_79
Time_Shift_247
Note_On_56_Vel_0
Note_On_70_Vel_0
Note_On_61_Vel_0
Note_On_80_Vel_0
Note_On_68_Vel_0
Sustain_Off
Time_Shift_2
Note_On_82_Vel_0
Time_Shift_10
Note_On_64_Vel_0
Time_Shift_3
Note_On_85_Vel_79
Time_Shift_1
Note_On_44_Vel_64
Time_Shift_6
Note_On_73_Vel_65
Time_Shift_66
Sustain_On
Time_Shift_175
Note_On_59_Vel_50
Time_Shift_4
Note_On_56_Vel_58
Time_Shift_173
Note_On_83_Vel_80
Time_Shift_3
Note_On_47_Vel_76
Time_Shift_3
Note_On_71_Vel_67
Time_Shift_88
Note_On_44_Vel_0
Time_Shift_178
Note_On_47_Vel_0
Time_Shift_1
Note_On_56_Vel_0
Note_On_85_Vel_0
Note_On_59_Vel_0
Time_Shift_1
Note_On_73_Vel_0
Time_Shift_1
Sustain_Off
Time_Shift_1
Note_On_52_Vel_69
Time_Shift_125
Sustain_On
Time_Shift_112
Note_On_59_Vel_52
Note_On_56_Vel_62
Time_Shift_4
Note_On_68_Vel_50
Time_Shift_226
Note_On_51_Vel_58
Time_Shift_187
Note_On_52_Vel_0
Sustain_Off
Note_On_51_Vel_0
Time_Shift_1
Note_On_56_Vel_0
Time_Shift_1
Note_On_59_Vel_0
Time_Shift_7
Note_On_71_Vel_0
Time_Shift_7
Note_On_68_Vel_0
Time_Shift_8
Note_On_83_Vel_0
Time_Shift_13
Note_On_43_Vel_68
Time_Shift_4
Note_On_87_Vel_73
Time_Shift_49
Note_On_88_Vel_79
Time_Shift_3
Sustain_On
Time_Shift_39
Note_On_87_Vel_0
Time_Shift_7
Note_On_87_Vel_86
Time_Shift_77
Note_On_87_Vel_0
Time_Shift_11
Note_On_87_Vel_89
Time_Shift_20
Note_On_43_Vel_0
Time_Shift_23
Note_On_51_Vel_70
Time_Shift_3
Note_On_39_Vel_62
Time_Shift_5
Sustain_Off
Time_Shift_2
Note_On_46_Vel_59
Time_Shift_2
Note_On_85_Vel_78
Time_Shift_22
Note_On_39_Vel_0
Time_Shift_7
Note_On_51_Vel_0
Time_Shift_13
Note_On_46_Vel_0
Time_Shift_7
Note_On_87_Vel_0
Time_Shift_143
Note_On_51_Vel_65
Time_Shift_1
Note_On_94_Vel_90
Time_Shift_25
Note_On_88_Vel_0
Time_Shift_5
Note_On_51_Vel_0
Time_Shift_133
Sustain_On
Time_Shift_8
Note_On_85_Vel_0
Time_Shift_8
Note_On_44_Vel_68
Time_Shift_3
Note_On_85_Vel_70
Time_Shift_45
Note_On_87_Vel_89
Time_Shift_44
Note_On_85_Vel_0
Time_Shift_7
Note_On_85_Vel_85
Time_Shift_47
Note_On_87_Vel_0
Time_Shift_9
Note_On_87_Vel_81
Time_Shift_21
Note_On_85_Vel_0
Time_Shift_6
Note_On_85_Vel_78
Time_Shift_40
Note_On_51_Vel_72
Time_Shift_3
Note_On_59_Vel_72
Time_Shift_4
Note_On_56_Vel_75
Time_Shift_5
Note_On_83_Vel_88
Time_Shift_27
Note_On_94_Vel_0
Time_Shift_20
Note_On_85_Vel_0
Time_Shift_1
Note_On_59_Vel_0
Note_On_44_Vel_0
Note_On_51_Vel_0
Note_On_56_Vel_0
Time_Shift_1
Note_On_83_Vel_0
Time_Shift_4
Sustain_Off
Time_Shift_20
Note_On_87_Vel_0
Time_Shift_114
Note_On_92_Vel_95
Time_Shift_12
Note_On_56_Vel_74
Time_Shift_3
Note_On_48_Vel_52
Time_Shift_5
Note_On_51_Vel_60
Time_Shift_4
Note_On_48_Vel_0
Time_Shift_20
Note_On_56_Vel_0
Time_Shift_1
Note_On_51_Vel_0
Time_Shift_48
Note_On_92_Vel_0
Time_Shift_97
Note_On_83_Vel_91
Time_Shift_8
Note_On_39_Vel_76
Time_Shift_11
Sustain_On
Time_Shift_42
Note_On_85_Vel_86
Time_Shift_80
Note_On_85_Vel_0
Time_Shift_11
Note_On_85_Vel_83
Time_Shift_36
Note_On_83_Vel_0
Time_Shift_4
Note_On_83_Vel_86
Time_Shift_50
Note_On_61_Vel_65
Time_Shift_1
Note_On_55_Vel_76
Time_Shift_2
Note_On_51_Vel_69
Time_Shift_24
Note_On_82_Vel_85
Time_Shift_83
Sustain_Off
Time_Shift_1
Note_On_82_Vel_0
Note_On_83_Vel_0
Note_On_85_Vel_0
Time_Shift_1
Note_On_39_Vel_0
Note_On_51_Vel_0
Note_On_61_Vel_0
Time_Shift_1
Note_On_55_Vel_0
Time_Shift_89
Note_On_61_Vel_69
Time_Shift_8
Note_On_87_Vel_85
Time_Shift_2
Note_On_51_Vel_71
Time_Shift_5
Note_On_55_Vel_64
Time_Shift_22
Note_On_61_Vel_0
Time_Shift_16
Note_On_51_Vel_0
Time_Shift_2
Note_On_55_Vel_0
Time_Shift_164
Note_On_44_Vel_53
Time_Shift_13
Note_On_82_Vel_87
Time_Shift_18
Sustain_On
Time_Shift_196
Note_On_59_Vel_54
Time_Shift_2
Note_On_56_Vel_63
Time_Shift_5
Note_On_51_Vel_50
Time_Shift_12
Note_On_44_Vel_0
Time_Shift_5
Note_On_44_Vel_47
Time_Shift_85
Note_On_80_Vel_77
Time_Shift_87
Note_On_51_Vel_0
Note_On_56_Vel_0
Time_Shift_3
Note_On_75_Vel_83
Time_Shift_5
Note_On_59_Vel_0
Note_On_51_Vel_54
Time_Shift_1
Note_On_56_Vel_61
Time_Shift_3
Note_On_59_Vel_56
Time_Shift_85
Note_On_71_Vel_71
Time_Shift_80
Sustain_Off
Note_On_82_Vel_0
Note_On_75_Vel_0
Time_Shift_1
Note_On_80_Vel_0
Note_On_44_Vel_0
Note_On_87_Vel_0
Time_Shift_2
Note_On_59_Vel_0
Note_On_71_Vel_0
Time_Shift_12
Note_On_51_Vel_0
Note_On_56_Vel_0
Time_Shift_34
Note_On_56_Vel_75
Note_On_68_Vel_70
Time_Shift_66
Sustain_On
Time_Shift_54
Sustain_Off
Time_Shift_84
Sustain_On
Time_Shift_16
Note_On_63_Vel_67
Time_Shift_5
Note_On_59_Vel_51
Time_Shift_187
Note_On_59_Vel_0
Note_On_63_Vel_0
Note_On_68_Vel_0
Time_Shift_3
Note_On_80_Vel_97
Time_Shift_7
Note_On_63_Vel_63
Note_On_59_Vel_73
Time_Shift_1
Note_On_68_Vel_78
Time_Shift_216
Sustain_Off
Time_Shift_1
Note_On_56_Vel_0
Note_On_63_Vel_0
Time_Shift_17
Note_On_59_Vel_0
Note_On_68_Vel_0
Note_On_80_Vel_0
Time_Shift_6
Note_On_80_Vel_96
Time_Shift_4
Note_On_49_Vel_85
Time_Shift_2
Note_On_68_Vel_90
Time_Shift_39
Note_On_49_Vel_0
Time_Shift_34
Sustain_On
Time_Shift_140
Note_On_64_Vel_74
Time_Shift_1
Note_On_61_Vel_68
Time_Shift_1
Note_On_56_Vel_78
Time_Shift_165
Note_On_64_Vel_0
Time_Shift_5
Note_On_82_Vel_107
Time_Shift_1
Note_On_64_Vel_79
Time_Shift_2
Note_On_56_Vel_0
Note_On_61_Vel_0
Time_Shift_3
Note_On_70_Vel_104
Time_Shift_2
Note_On_61_Vel_73
Note_On_56_Vel_83
Time_Shift_240
Note_On_70_Vel_0
Note_On_80_Vel_0
Note_On_68_Vel_0
Note_On_61_Vel_0
Time_Shift_1
Note_On_64_Vel_0
Note_On_56_Vel_0
Time_Shift_1
Note_On_82_Vel_0
Time_Shift_1
Sustain_Off
Time_Shift_14
Note_On_85_Vel_96
Time_Shift_3
Note_On_44_Vel_79
Time_Shift_1
Note_On_73_Vel_87
Time_Shift_79
Note_On_44_Vel_0
Sustain_On
Time_Shift_132
Note_On_59_Vel_70
Time_Shift_1
Note_On_56_Vel_73
Time_Shift_169
Note_On_47_Vel_90
Time_Shift_2
Note_On_83_Vel_92
Time_Shift_5
Note_On_71_Vel_84
Time_Shift_270
Note_On_52_Vel_84
Time_Shift_28
Sustain_Off
Time_Shift_2
Note_On_47_Vel_0
Note_On_59_Vel_0
Note_On_85_Vel_0
Time_Shift_1
Note_On_56_Vel_0
Note_On_73_Vel_0
Time_Shift_223
Note_On_59_Vel_58
Time_Shift_2
Note_On_56_Vel_58
Time_Shift_33
Note_On_59_Vel_0
Time_Shift_12
Note_On_56_Vel_0
Time_Shift_191
Note_On_51_Vel_57
Time_Shift_7
Note_On_52_Vel_0
Time_Shift_36
Note_On_71_Vel_0
Time_Shift_83
Note_On_51_Vel_0
Time_Shift_86
Note_On_83_Vel_0
Time_Shift_28
Note_On_43_Vel_73
Note_On_87_Vel_70
Time_Shift_5
Note_On_55_Vel_67
Time_Shift_46
Note_On_88_Vel_76
Time_Shift_13
Sustain_On
Time_Shift_31
Note_On_87_Vel_0
Time_Shift_11
Note_On_87_Vel_74
Time_Shift_81
Note_On_87_Vel_0
Time_Shift_4
Note_On_87_Vel_77
Time_Shift_23
Note_On_88_Vel_0
Time_Shift_1
Note_On_43_Vel_0
Time_Shift_2
Sustain_Off
Time_Shift_15
Note_On_85_Vel_66
Time_Shift_9
Note_On_55_Vel_0
Time_Shift_27
Note_On_58_Vel_38
Time_Shift_19
Note_On_87_Vel_0
Time_Shift_115
Note_On_85_Vel_0
Time_Shift_33
Note_On_94_Vel_82
Time_Shift_1
Note_On_51_Vel_60
Time_Shift_37
Note_On_51_Vel_0
Time_Shift_6
Note_On_58_Vel_0
Time_Shift_120
Note_On_85_Vel_68
Time_Shift_15
Note_On_44_Vel_60
Time_Shift_40
Note_On_87_Vel_75
Time_Shift_9
Note_On_94_Vel_0
Sustain_On
Time_Shift_31
Note_On_85_Vel_0
Time_Shift_5
Note_On_85_Vel_71
Time_Shift_41
Note_On_87_Vel_0
Time_Shift_9
Note_On_87_Vel_81
Time_Shift_29
Note_On_85_Vel_0
Time_Shift_11
Note_On_85_Vel_80
Time_Shift_31
Sustain_Off
Time_Shift_2
Note_On_87_Vel_0
Time_Shift_5
Note_On_85_Vel_0
Time_Shift_2
Note_On_83_Vel_85
Time_Shift_6
Note_On_59_Vel_63
Time_Shift_1
Note_On_56_Vel_62
Time_Shift_19
Note_On_44_Vel_0
Time_Shift_15
Note_On_83_Vel_0
Time_Shift_69
Sustain_On
Time_Shift_97
Note_On_59_Vel_0
Time_Shift_6
Note_On_92_Vel_83
Time_Shift_2
Note_On_51_Vel_63
Time_Shift_2
Note_On_56_Vel_0
Time_Shift_32
Sustain_Off
Time_Shift_2
Note_On_51_Vel_0
Time_Shift_51
Note_On_92_Vel_0
Time_Shift_97
Note_On_83_Vel_73
Time_Shift_1
Note_On_39_Vel_64
Time_Shift_33
Sustain_On
Time_Shift_20
Note_On_85_Vel_77
Time_Shift_41
Note_On_83_Vel_0
Time_Shift_8
Note_On_83_Vel_83
Time_Shift_39
Note_On_85_Vel_0
Time_Shift_9
Note_On_85_Vel_79
Time_Shift_21
Note_On_83_Vel_0
Time_Shift_10
Note_On_83_Vel_83
Time_Shift_42
Note_On_55_Vel_74
Time_Shift_5
Note_On_73_Vel_61
Note_On_61_Vel_57
Time_Shift_5
Note_On_82_Vel_95
Time_Shift_12
Note_On_39_Vel_0
Note_On_83_Vel_0
Time_Shift_1
Sustain_Off
Time_Shift_17
Note_On_85_Vel_0
Time_Shift_8
Note_On_73_Vel_0
Time_Shift_9
Note_On_82_Vel_0
Time_Shift_164
Note_On_87_Vel_90
Time_Shift_2
Note_On_51_Vel_63
Time_Shift_5
Note_On_61_Vel_0
Time_Shift_27
Note_On_55_Vel_0
Time_Shift_6
Note_On_51_Vel_0
Time_Shift_168
Note_On_80_Vel_77
Note_On_44_Vel_57
Time_Shift_26
Sustain_On
Time_Shift_192
Note_On_80_Vel_0
Time_Shift_3
Note_On_59_Vel_64
Time_Shift_2
Note_On_51_Vel_58
Time_Shift_6
Note_On_80_Vel_93
Time_Shift_89
Note_On_80_Vel_0
Time_Shift_7
Note_On_80_Vel_84
Time_Shift_65
Note_On_87_Vel_0
Note_On_44_Vel_0
Time_Shift_1
Note_On_51_Vel_0
Note_On_59_Vel_0
Time_Shift_2
Sustain_Off
Time_Shift_9
Note_On_80_Vel_0
Time_Shift_9
Note_On_42_Vel_81
Time_Shift_2
Note_On_80_Vel_96
Time_Shift_63
Note_On_80_Vel_0
Time_Shift_168
Note_On_80_Vel_96
Time_Shift_7
Note_On_40_Vel_73
Time_Shift_1
Note_On_76_Vel_77
Time_Shift_19
Note_On_42_Vel_0
Time_Shift_16
Sustain_On
Time_Shift_185
Note_On_52_Vel_80
Time_Shift_4
Note_On_78_Vel_91
Time_Shift_1
Note_On_75_Vel_91
Time_Shift_171
Note_On_80_Vel_0
Time_Shift_10
Note_On_80_Vel_101
Time_Shift_5
Note_On_52_Vel_0
Note_On_78_Vel_0
Time_Shift_3
Note_On_74_Vel_90
Time_Shift_1
Note_On_52_Vel_81
Time_Shift_6
Note_On_78_Vel_80
Time_Shift_179
Sustain_Off
Time_Shift_1
Note_On_52_Vel_0
Note_On_74_Vel_0
Time_Shift_1
Note_On_75_Vel_0
Time_Shift_1
Note_On_78_Vel_0
Time_Shift_8
Note_On_40_Vel_0
Note_On_76_Vel_0
Note_On_80_Vel_0
Time_Shift_34
Note_On_83_Vel_102
Time_Shift_4
Note_On_45_Vel_81
Time_Shift_2
Note_On_57_Vel_81
Note_On_73_Vel_92
Time_Shift_38
Note_On_45_Vel_0
Time_Shift_29
Sustain_On
Time_Shift_146
Note_On_57_Vel_0
Time_Shift_2
Note_On_64_Vel_68
Time_Shift_2
Note_On_57_Vel_61
Time_Shift_188
Note_On_57_Vel_0
Note_On_64_Vel_0
Note_On_73_Vel_0
Time_Shift_5
Note_On_81_Vel_93
Time_Shift_1
Note_On_64_Vel_68
Time_Shift_1
Note_On_57_Vel_65
Note_On_45_Vel_65
Time_Shift_4
Note_On_73_Vel_85
Time_Shift_162
Note_On_45_Vel_0
Time_Shift_1
Note_On_64_Vel_0
Note_On_83_Vel_0
Note_On_73_Vel_0
Time_Shift_1
Note_On_57_Vel_0
Sustain_Off
Note_On_81_Vel_0
Time_Shift_70
Note_On_45_Vel_68
Time_Shift_4
Note_On_76_Vel_88
Time_Shift_1
Note_On_64_Vel_63
Time_Shift_2
Note_On_72_Vel_74
Time_Shift_30
Note_On_45_Vel_0
Time_Shift_33
Sustain_On
Time_Shift_146
Note_On_64_Vel_0
Time_Shift_5
Note_On_64_Vel_71
Time_Shift_15
Note_On_57_Vel_52
Time_Shift_6
Note_On_45_Vel_56
Time_Shift_70
Note_On_78_Vel_93
Time_Shift_4
Note_On_72_Vel_0
Time_Shift_5
Note_On_72_Vel_74
Time_Shift_72
Note_On_57_Vel_0
Note_On_64_Vel_0
Note_On_76_Vel_0
Time_Shift_6
Note_On_64_Vel_70
Time_Shift_1
Note_On_72_Vel_0
Time_Shift_2
Note_On_76_Vel_91
Time_Shift_2
Note_On_57_Vel_67
Note_On_72_Vel_74
Time_Shift_224
Sustain_Off
Time_Shift_4
Note_On_72_Vel_0
Time_Shift_1
Note_On_76_Vel_0
Note_On_64_Vel_0
Note_On_78_Vel_0
Time_Shift_13
Note_On_45_Vel_0
Note_On_57_Vel_0
Time_Shift_15
Note_On_80_Vel_92
Time_Shift_5
Note_On_52_Vel_70
Time_Shift_11
Note_On_71_Vel_61
Time_Shift_69
Sustain_On
Time_Shift_15
Note_On_52_Vel_0
Time_Shift_130
Note_On_59_Vel_54
Note_On_64_Vel_50
Time_Shift_11
Note_On_52_Vel_49
Time_Shift_197
Note_On_59_Vel_0
Note_On_64_Vel_0
Note_On_71_Vel_0
Time_Shift_4
Note_On_59_Vel_55
Time_Shift_3
Note_On_71_Vel_53
Time_Shift_2
Note_On_64_Vel_48
Time_Shift_241
Note_On_64_Vel_0
Time_Shift_2
Note_On_80_Vel_0
Time_Shift_1
Sustain_Off
Time_Shift_2
Note_On_59_Vel_0
Note_On_71_Vel_0
Time_Shift_2
Note_On_73_Vel_77
Time_Shift_4
Note_On_52_Vel_0
Time_Shift_2
Note_On_54_Vel_57
Time_Shift_4
Note_On_70_Vel_68
Time_Shift_71
Sustain_On
Time_Shift_129
Note_On_61_Vel_52
Time_Shift_5
Note_On_64_Vel_49
Time_Shift_91
Note_On_75_Vel_87
Time_Shift_13
Note_On_70_Vel_0
Time_Shift_4
Note_On_70_Vel_66
Time_Shift_73
Note_On_73_Vel_0
Time_Shift_6
Note_On_73_Vel_89
Time_Shift_2
Note_On_54_Vel_0
Note_On_61_Vel_0
Note_On_64_Vel_0
Time_Shift_7
Note_On_64_Vel_65
Note_On_61_Vel_55
Note_On_70_Vel_0
Time_Shift_4
Note_On_54_Vel_51
Note_On_70_Vel_82
Time_Shift_229
Sustain_Off
Note_On_70_Vel_0
Note_On_73_Vel_0
Note_On_54_Vel_0
Note_On_64_Vel_0
Time_Shift_1
Note_On_75_Vel_0
Note_On_61_Vel_0
Time_Shift_19
Note_On_80_Vel_85
Time_Shift_3
Note_On_47_Vel_66
Time_Shift_8
Note_On_69_Vel_64
Time_Shift_37
Note_On_47_Vel_0
Time_Shift_14
Sustain_On
Time_Shift_175
Note_On_59_Vel_54
Time_Shift_2
Note_On_47_Vel_52
Time_Shift_3
Note_On_63_Vel_49
Time_Shift_8
Note_On_54_Vel_56
Time_Shift_165
Note_On_63_Vel_0
Time_Shift_8
Note_On_47_Vel_0
Note_On_59_Vel_0
Note_On_63_Vel_54
Time_Shift_5
Note_On_59_Vel_64
Time_Shift_3
Note_On_54_Vel_0
Note_On_69_Vel_0
Time_Shift_2
Note_On_78_Vel_80
Time_Shift_1
Note_On_47_Vel_57
Time_Shift_1
Note_On_54_Vel_59
Time_Shift_1
Note_On_69_Vel_67
Time_Shift_160
Sustain_Off
Note_On_47_Vel_0
Time_Shift_1
Note_On_59_Vel_0
Note_On_69_Vel_0
Note_On_54_Vel_0
Time_Shift_1
Note_On_80_Vel_0
Time_Shift_17
Note_On_63_Vel_0
Time_Shift_60
Note_On_71_Vel_76
Time_Shift_1
Note_On_47_Vel_59
Time_Shift_5
Note_On_69_Vel_61
Time_Shift_19
Sustain_On
Time_Shift_207
Note_On_69_Vel_0
Time_Shift_1
Note_On_63_Vel_67
Time_Shift_2
Note_On_75_Vel_88
Time_Shift_1
Note_On_59_Vel_61
Time_Shift_1
Note_On_69_Vel_72
Time_Shift_1
Note_On_54_Vel_63
Time_Shift_186
Note_On_54_Vel_0
Note_On_63_Vel_0
Time_Shift_8
Note_On_59_Vel_0
Note_On_69_Vel_0
Time_Shift_1
Note_On_63_Vel_63
Time_Shift_1
Note_On_54_Vel_73
Time_Shift_1
Note_On_76_Vel_93
Time_Shift_2
Note_On_59_Vel_68
Time_Shift_6
Note_On_69_Vel_80
Time_Shift_154
Sustain_Off
Time_Shift_3
Note_On_69_Vel_0
Time_Shift_1
Note_On_63_Vel_0
Time_Shift_1
Note_On_78_Vel_0
Note_On_47_Vel_0
Note_On_75_Vel_0
Note_On_59_Vel_0
Note_On_54_Vel_0
Time_Shift_14
Note_On_71_Vel_0
Time_Shift_42
Note_On_47_Vel_77
Note_On_77_Vel_93
Time_Shift_3
Note_On_75_Vel_74
Note_On_59_Vel_69
Time_Shift_3
Note_On_69_Vel_88
Time_Shift_33
Note_On_47_Vel_0
Time_Shift_3
Sustain_On
Time_Shift_16
Note_On_59_Vel_0
Time_Shift_169
Note_On_75_Vel_0
Time_Shift_3
Note_On_63_Vel_80
Time_Shift_1
Note_On_78_Vel_92
Time_Shift_1
Note_On_47_Vel_76
Note_On_54_Vel_76
Time_Shift_2
Note_On_69_Vel_0
Time_Shift_3
Note_On_59_Vel_78
Time_Shift_1
Note_On_75_Vel_89
Time_Shift_2
Note_On_69_Vel_81
Time_Shift_179
Note_On_54_Vel_0
Note_On_63_Vel_0
Time_Shift_4
Note_On_79_Vel_101
Time_Shift_3
Note_On_47_Vel_0
Note_On_59_Vel_0
Note_On_69_Vel_0
Note_On_75_Vel_0
Time_Shift_2
Note_On_63_Vel_84
Time_Shift_2
Note_On_66_Vel_79
Note_On_54_Vel_86
Time_Shift_1
Note_On_75_Vel_96
Note_On_47_Vel_83
Note_On_69_Vel_88
Time_Shift_1
Note_On_59_Vel_80
Time_Shift_2
Note_On_66_Vel_0
Time_Shift_184
Note_On_76_Vel_0
Time_Shift_2
Sustain_Off
Time_Shift_2
Note_On_47_Vel_0
Time_Shift_1
Note_On_69_Vel_0
Note_On_63_Vel_0
Note_On_79_Vel_0
Note_On_75_Vel_0
Time_Shift_1
Note_On_59_Vel_0
Note_On_77_Vel_0
Time_Shift_17
Note_On_54_Vel_0
Note_On_78_Vel_0
Time_Shift_27
Note_On_80_Vel_103
Time_Shift_3
Note_On_52_Vel_94
Time_Shift_4
Note_On_68_Vel_95
Time_Shift_1
Note_On_40_Vel_86
Time_Shift_1
Note_On_76_Vel_68
Time_Shift_30
Note_On_68_Vel_0
Time_Shift_19
Note_On_40_Vel_0
Time_Shift_8
Sustain_On
Time_Shift_153
Note_On_52_Vel_0
Time_Shift_4
Note_On_52_Vel_85
Time_Shift_2
Note_On_75_Vel_99
Note_On_40_Vel_80
Time_Shift_1
Note_On_78_Vel_97
Time_Shift_178
Note_On_52_Vel_0
Note_On_80_Vel_0
Time_Shift_5
Note_On_52_Vel_89
Time_Shift_3
Note_On_59_Vel_77
Time_Shift_1
Note_On_80_Vel_103
Time_Shift_3
Note_On_74_Vel_99
Time_Shift_3
Note_On_59_Vel_0
Time_Shift_194
Sustain_Off
Time_Shift_1
Note_On_52_Vel_0
Time_Shift_1
Note_On_74_Vel_0
Note_On_78_Vel_0
Note_On_75_Vel_0
Note_On_80_Vel_0
Time_Shift_11
Note_On_40_Vel_0
Note_On_76_Vel_0
Time_Shift_25
Note_On_83_Vel_104
Time_Shift_8
Note_On_73_Vel_97
Time_Shift_3
Note_On_45_Vel_87
Time_Shift_3
Note_On_57_Vel_87
Time_Shift_1
Note_On_52_Vel_72
Time_Shift_60
Sustain_On
Time_Shift_154
Note_On_57_Vel_0
Time_Shift_6
Note_On_64_Vel_72
Time_Shift_2
Note_On_57_Vel_69
Time_Shift_176
Note_On_57_Vel_0
Note_On_64_Vel_0
Note_On_73_Vel_0
Time_Shift_5
Note_On_81_Vel_98
Time_Shift_2
Note_On_64_Vel_77
Time_Shift_3
Note_On_73_Vel_94
Time_Shift_1
Note_On_57_Vel_75
Time_Shift_205
Sustain_Off
Time_Shift_3
Note_On_81_Vel_0
Time_Shift_1
Note_On_64_Vel_0
Note_On_83_Vel_0
Time_Shift_3
Note_On_52_Vel_0
Time_Shift_15
Note_On_73_Vel_0
Time_Shift_8
Note_On_45_Vel_0
Time_Shift_6
Note_On_76_Vel_89
Time_Shift_1
Note_On_45_Vel_77
Time_Shift_2
Note_On_72_Vel_85
Time_Shift_68
Sustain_On
Time_Shift_145
Note_On_57_Vel_0
Time_Shift_4
Note_On_64_Vel_74
Time_Shift_2
Note_On_57_Vel_63
Time_Shift_87
Note_On_57_Vel_0
Time_Shift_4
Note_On_78_Vel_91
Time_Shift_3
Note_On_72_Vel_0
Time_Shift_4
Note_On_57_Vel_64
Note_On_72_Vel_85
Time_Shift_65
Note_On_57_Vel_0
Note_On_64_Vel_0
Note_On_72_Vel_0
Note_On_76_Vel_0
Time_Shift_8
Note_On_64_Vel_80
Time_Shift_1
Note_On_76_Vel_93
Time_Shift_2
Note_On_72_Vel_82
Time_Shift_1
Note_On_57_Vel_75
Time_Shift_223
Sustain_Off
Time_Shift_1
Note_On_72_Vel_0
Time_Shift_1
Note_On_76_Vel_0
Note_On_64_Vel_0
Note_On_78_Vel_0
Time_Shift_9
Note_On_45_Vel_0
Time_Shift_8
Note_On_57_Vel_0
Time_Shift_8
Note_On_52_Vel_82
Time_Shift_2
Note_On_80_Vel_93
Time_Shift_7
Note_On_71_Vel_77
Time_Shift_67
Sustain_On
Time_Shift_69
Note_On_52_Vel_0
Time_Shift_76
Note_On_64_Vel_60
Time_Shift_14
Note_On_59_Vel_53
Time_Shift_1
Note_On_52_Vel_52
Time_Shift_194
Note_On_64_Vel_0
Time_Shift_7
Note_On_59_Vel_0
Time_Shift_4
Note_On_64_Vel_57
Note_On_59_Vel_69
Time_Shift_238
Note_On_73_Vel_88
Time_Shift_2
Note_On_80_Vel_0
Time_Shift_1
Note_On_64_Vel_0
Time_Shift_1
Sustain_Off
Time_Shift_1
Note_On_59_Vel_0
Time_Shift_1
Note_On_71_Vel_0
Time_Shift_2
Note_On_54_Vel_68
Time_Shift_1
Note_On_70_Vel_79
Time_Shift_10
Note_On_52_Vel_0
Time_Shift_62
Sustain_On
Time_Shift_123
Note_On_70_Vel_0
Time_Shift_5
Note_On_61_Vel_62
Time_Shift_4
Note_On_70_Vel_56
Time_Shift_1
Note_On_64_Vel_58
Time_Shift_97
Note_On_70_Vel_0
Time_Shift_1
Note_On_75_Vel_91
Time_Shift_10
Note_On_70_Vel_84
Time_Shift_81
Note_On_70_Vel_0
Note_On_73_Vel_0
Time_Shift_5
Note_On_73_Vel_93
Time_Shift_3
Note_On_61_Vel_0
Note_On_64_Vel_0
Time_Shift_4
Note_On_70_Vel_88
Time_Shift_1
Note_On_61_Vel_71
Time_Shift_1
Note_On_64_Vel_75
Time_Shift_207
Note_On_54_Vel_0
Time_Shift_1
Note_On_73_Vel_0
Note_On_64_Vel_0
Note_On_70_Vel_0
Time_Shift_1
Note_On_75_Vel_0
Note_On_61_Vel_0
Sustain_Off
Time_Shift_35
Note_On_80_Vel_85
Time_Shift_1
Note_On_47_Vel_82
Time_Shift_7
Note_On_69_Vel_76
Time_Shift_31
Note_On_47_Vel_0
Time_Shift_34
Sustain_On
Time_Shift_148
Note_On_63_Vel_61
Time_Shift_1
Note_On_59_Vel_58
Time_Shift_11
Note_On_54_Vel_60
Time_Shift_162
Note_On_63_Vel_0
Time_Shift_8
Note_On_54_Vel_0
Note_On_59_Vel_0
Note_On_69_Vel_0
Time_Shift_1
Note_On_71_Vel_75
Time_Shift_1
Note_On_63_Vel_62
Time_Shift_2
Note_On_59_Vel_72
Note_On_69_Vel_78
Time_Shift_1
Note_On_78_Vel_83
Time_Shift_1
Note_On_54_Vel_64
Time_Shift_200
Sustain_Off
Time_Shift_2
Note_On_59_Vel_0
Note_On_54_Vel_0
Time_Shift_1
Note_On_63_Vel_0
Note_On_78_Vel_0
Time_Shift_1
Note_On_80_Vel_0
Time_Shift_28
Note_On_69_Vel_0
Note_On_71_Vel_0
Time_Shift_5
Note_On_71_Vel_78
Time_Shift_2
Note_On_47_Vel_67
Time_Shift_3
Note_On_69_Vel_75
Time_Shift_36
Note_On_47_Vel_0
Time_Shift_38
Sustain_On
Time_Shift_97
Note_On_75_Vel_78
Time_Shift_34
Note_On_69_Vel_0
Time_Shift_1
Note_On_73_Vel_89
Time_Shift_2
Note_On_63_Vel_75
Time_Shift_4
Note_On_59_Vel_72
Time_Shift_3
Note_On_54_Vel_74
Time_Shift_1
Note_On_69_Vel_77
Time_Shift_189
Note_On_54_Vel_0
Note_On_59_Vel_0
Note_On_63_Vel_0
Note_On_71_Vel_0
Time_Shift_4
Note_On_54_Vel_67
Time_Shift_3
Note_On_69_Vel_0
Time_Shift_1
Note_On_59_Vel_78
Time_Shift_2
Note_On_63_Vel_62
Time_Shift_1
Note_On_71_Vel_89
Time_Shift_1
Note_On_69_Vel_80
Time_Shift_205
Sustain_Off
Time_Shift_1
Note_On_54_Vel_0
Note_On_63_Vel_0
Note_On_75_Vel_0
Note_On_59_Vel_0
Note_On_69_Vel_0
Time_Shift_1
Note_On_73_Vel_0
Time_Shift_80
Note_On_71_Vel_0
Time_Shift_4
Note_On_76_Vel_72
Note_On_52_Vel_65
Time_Shift_1
Note_On_64_Vel_67
Time_Shift_1
Note_On_59_Vel_66
Time_Shift_2
Note_On_71_Vel_65
Time_Shift_1
Note_On_68_Vel_71
Time_Shift_45
Sustain_On
Time_Shift_308
Note_On_40_Vel_55
Time_Shift_460
Note_On_64_Vel_0
Time_Shift_7
Note_On_64_Vel_75
Time_Shift_33
Sustain_Off
Time_Shift_2
Note_On_40_Vel_0
Note_On_76_Vel_0
Note_On_71_Vel_0
Time_Shift_1
Note_On_59_Vel_0
Time_Shift_11
Note_On_52_Vel_0
Note_On_68_Vel_0
Time_Shift_293
Note_On_44_Vel_50
Time_Shift_45
Sustain_On
Time_Shift_242
Note_On_63_Vel_63
Time_Shift_1
Note_On_62_Vel_49
Time_Shift_102
Note_On_64_Vel_0
Time_Shift_9
Note_On_64_Vel_72
Time_Shift_88
Note_On_66_Vel_74
Time_Shift_34
Note_On_52_Vel_57
Time_Shift_54
Note_On_64_Vel_0
Time_Shift_3
Note_On_64_Vel_85
Time_Shift_62
Note_On_52_Vel_0
Note_On_62_Vel_0
Time_Shift_1
Note_On_66_Vel_0
Note_On_63_Vel_0
Note_On_64_Vel_0
Sustain_Off
Time_Shift_10
Note_On_44_Vel_0
Time_Shift_37
Note_On_45_Vel_72
Time_Shift_2
Note_On_64_Vel_78
Time_Shift_61
Sustain_On
Time_Shift_152
Note_On_61_Vel_57
Time_Shift_1
Note_On_81_Vel_78
Time_Shift_4
Note_On_69_Vel_83
Time_Shift_79
Note_On_71_Vel_91
Note_On_83_Vel_78
Time_Shift_10
Note_On_83_Vel_0
Time_Shift_71
Note_On_52_Vel_72
Time_Shift_14
Note_On_73_Vel_94
Time_Shift_46
Note_On_64_Vel_0
Time_Shift_112
Note_On_52_Vel_0
Note_On_45_Vel_0
Note_On_69_Vel_0
Time_Shift_1
Note_On_81_Vel_0
Note_On_61_Vel_0
Time_Shift_1
Note_On_71_Vel_0
Time_Shift_1
Note_On_73_Vel_0
Time_Shift_2
Sustain_Off
Time_Shift_55
Note_On_44_Vel_67
Time_Shift_4
Note_On_82_Vel_74
Time_Shift_3
Note_On_70_Vel_87
Time_Shift_5
Note_On_82_Vel_0
Time_Shift_38
Sustain_On
Time_Shift_62
Note_On_71_Vel_88
Time_Shift_90
Note_On_73_Vel_91
Time_Shift_20
Note_On_62_Vel_58
Time_Shift_66
Note_On_71_Vel_0
Time_Shift_11
Note_On_71_Vel_87
Time_Shift_108
Note_On_52_Vel_75
Time_Shift_2
Note_On_78_Vel_93
Time_Shift_20
Note_On_62_Vel_0
Time_Shift_1
Note_On_70_Vel_0
Note_On_73_Vel_0
Time_Shift_1
Note_On_44_Vel_0
Sustain_Off
Time_Shift_19
Note_On_71_Vel_0
Time_Shift_25
Note_On_78_Vel_0
Time_Shift_91
Note_On_76_Vel_83
Time_Shift_19
Note_On_52_Vel_0
Time_Shift_7
Note_On_76_Vel_0
Time_Shift_46
Note_On_45_Vel_73
Time_Shift_22
Note_On_76_Vel_81
Time_Shift_12
Sustain_On
Time_Shift_211
Note_On_61_Vel_63
Time_Shift_1
Note_On_81_Vel_94
Time_Shift_85
Note_On_83_Vel_96
Time_Shift_97
Note_On_85_Vel_87
Time_Shift_4
Note_On_52_Vel_74
Time_Shift_161
Sustain_Off
Time_Shift_2
Note_On_45_Vel_0
Note_On_52_Vel_0
Time_Shift_2
Note_On_81_Vel_0
Note_On_76_Vel_0
Time_Shift_1
Note_On_61_Vel_0
Note_On_83_Vel_0
Note_On_85_Vel_0
Time_Shift_78
Note_On_40_Vel_57
Time_Shift_3
Note_On_85_Vel_75
Time_Shift_39
Sustain_On
Time_Shift_211
Note_On_52_Vel_56
Time_Shift_1
Note_On_74_Vel_79
Note_On_64_Vel_58
Time_Shift_87
Note_On_85_Vel_0
Time_Shift_4
Note_On_85_Vel_78
Time_Shift_80
Note_On_83_Vel_90
Time_Shift_9
Note_On_52_Vel_0
Time_Shift_8
Note_On_52_Vel_68
Time_Shift_170
Sustain_Off
Note_On_52_Vel_0
Time_Shift_1
Note_On_74_Vel_0
Note_On_83_Vel_0
Note_On_64_Vel_0
Note_On_85_Vel_0
Time_Shift_20
Note_On_40_Vel_0
Time_Shift_20
Note_On_81_Vel_90
Time_Shift_9
Note_On_45_Vel_71
Time_Shift_63
Sustain_On
Time_Shift_157
Note_On_57_Vel_58
Time_Shift_1
Note_On_73_Vel_83
Time_Shift_1
Note_On_64_Vel_68
Time_Shift_104
Note_On_83_Vel_77
Time_Shift_83
Note_On_57_Vel_0
Note_On_81_Vel_0
Time_Shift_5
Note_On_57_Vel_64
Time_Shift_1
Note_On_81_Vel_83
Time_Shift_167
Sustain_Off
Note_On_81_Vel_0
Time_Shift_1
Note_On_83_Vel_0
Note_On_73_Vel_0
Note_On_64_Vel_0
Time_Shift_1
Note_On_57_Vel_0
Time_Shift_2
Note_On_45_Vel_0
Time_Shift_63
Note_On_47_Vel_75
Time_Shift_1
Note_On_78_Vel_88
Time_Shift_43
Sustain_On
Time_Shift_146
Note_On_47_Vel_0
Time_Shift_26
Note_On_69_Vel_80
Time_Shift_2
Note_On_63_Vel_68
Time_Shift_98
Note_On_80_Vel_94
Time_Shift_89
Note_On_78_Vel_0
Time_Shift_8
Note_On_78_Vel_92
Time_Shift_3
Note_On_59_Vel_68
Time_Shift_189
Sustain_Off
Time_Shift_2
Note_On_78_Vel_0
Time_Shift_1
Note_On_59_Vel_0
Note_On_63_Vel_0
Note_On_69_Vel_0
Note_On_80_Vel_0
Time_Shift_55
Note_On_76_Vel_69
Time_Shift_1
Note_On_52_Vel_61
Time_Shift_64
Sustain_On
Time_Shift_179
Note_On_68_Vel_69
Time_Shift_1
Note_On_64_Vel_61
Time_Shift_109
Note_On_78_Vel_73
Time_Shift_110
Note_On_76_Vel_0
Time_Shift_6
Note_On_76_Vel_64
Note_On_59_Vel_61
Time_Shift_4
Note_On_71_Vel_56
Time_Shift_268
Sustain_Off
Time_Shift_1
Note_On_68_Vel_0
Note_On_78_Vel_0
Time_Shift_1
Note_On_59_Vel_0
Note_On_71_Vel_0
Note_On_76_Vel_0
Time_Shift_12
Note_On_52_Vel_0
Time_Shift_15
Note_On_64_Vel_0
Time_Shift_9
Note_On_64_Vel_69
Time_Shift_23
Note_On_40_Vel_64
Time_Shift_45
Sustain_On
Time_Shift_177
Note_On_40_Vel_0
Time_Shift_24
Note_On_63_Vel_74
Time_Shift_1
Note_On_75_Vel_61
Time_Shift_2
Note_On_62_Vel_63
Time_Shift_80
Note_On_64_Vel_0
Time_Shift_11
Note_On_64_Vel_75
Time_Shift_86
Note_On_66_Vel_77
Time_Shift_4
Note_On_52_Vel_69
Time_Shift_68
Note_On_64_Vel_0
Time_Shift_9
Note_On_64_Vel_81
Time_Shift_80
Note_On_52_Vel_0
Note_On_63_Vel_0
Note_On_66_Vel_0
Note_On_62_Vel_0
Sustain_Off
Time_Shift_1
Note_On_64_Vel_0
Time_Shift_18
Note_On_75_Vel_0
Time_Shift_33
Note_On_45_Vel_75
Time_Shift_2
Note_On_64_Vel_77
Time_Shift_57
Sustain_On
Time_Shift_163
Note_On_61_Vel_69
Time_Shift_4
Note_On_81_Vel_82
Time_Shift_4
Note_On_69_Vel_85
Time_Shift_5
Note_On_81_Vel_0
Time_Shift_75
Note_On_83_Vel_79
Note_On_71_Vel_90
Time_Shift_10
Note_On_83_Vel_0
Time_Shift_80
Note_On_52_Vel_74
Time_Shift_4
Note_On_73_Vel_92
Time_Shift_197
Sustain_Off
Note_On_64_Vel_0
Note_On_52_Vel_0
Note_On_69_Vel_0
Time_Shift_1
Note_On_61_Vel_0
Note_On_71_Vel_0
Note_On_73_Vel_0
Time_Shift_2
Note_On_45_Vel_0
Time_Shift_32
Note_On_44_Vel_77
Time_Shift_2
Note_On_82_Vel_83
Note_On_70_Vel_94
Time_Shift_5
Note_On_82_Vel_0
Time_Shift_53
Sustain_On
Time_Shift_47
Note_On_71_Vel_84
Time_Shift_95
Note_On_85_Vel_82
Time_Shift_1
Note_On_73_Vel_92
Time_Shift_3
Note_On_85_Vel_0
Time_Shift_1
Note_On_62_Vel_71
Time_Shift_84
Note_On_44_Vel_0
Note_On_71_Vel_0
Time_Shift_5
Note_On_44_Vel_64
Time_Shift_2
Note_On_71_Vel_88
Time_Shift_110
Note_On_74_Vel_96
Time_Shift_1
Note_On_52_Vel_79
Time_Shift_86
Note_On_78_Vel_94
Time_Shift_70
Note_On_73_Vel_0
Sustain_Off
Time_Shift_1
Note_On_62_Vel_0
Note_On_52_Vel_0
Note_On_74_Vel_0
Note_On_44_Vel_0
Note_On_71_Vel_0
Time_Shift_9
Note_On_70_Vel_0
Time_Shift_23
Note_On_78_Vel_0
Time_Shift_10
Note_On_45_Vel_77
Note_On_78_Vel_96
Time_Shift_44
Sustain_On
Time_Shift_57
Note_On_76_Vel_89
Time_Shift_105
Note_On_81_Vel_97
Time_Shift_4
Note_On_61_Vel_70
Time_Shift_91
Note_On_83_Vel_97
Time_Shift_107
Note_On_85_Vel_90
Time_Shift_8
Note_On_52_Vel_75
Time_Shift_204
Note_On_85_Vel_0
Time_Shift_9
Note_On_57_Vel_55
Time_Shift_1
Note_On_85_Vel_83
Time_Shift_160
Sustain_Off
Time_Shift_4
Note_On_52_Vel_0
Time_Shift_1
Note_On_81_Vel_0
Note_On_61_Vel_0
Note_On_83_Vel_0
Note_On_78_Vel_0
Time_Shift_1
Note_On_45_Vel_0
Time_Shift_1
Note_On_76_Vel_0
Time_Shift_4
Note_On_97_Vel_95
Time_Shift_3
Note_On_85_Vel_0
Time_Shift_6
Note_On_85_Vel_69
Time_Shift_2
Note_On_57_Vel_0
Time_Shift_26
Note_On_41_Vel_57
Time_Shift_43
Sustain_On
Time_Shift_153
Note_On_41_Vel_0
Time_Shift_28
Note_On_92_Vel_65
Time_Shift_10
Note_On_59_Vel_62
Time_Shift_37
Note_On_93_Vel_84
Time_Shift_2
Note_On_97_Vel_0
Time_Shift_39
Note_On_92_Vel_0
Time_Shift_6
Note_On_92_Vel_88
Time_Shift_47
Note_On_93_Vel_0
Time_Shift_5
Note_On_93_Vel_80
Time_Shift_41
Note_On_85_Vel_0
Note_On_92_Vel_0
Time_Shift_5
Note_On_92_Vel_97
Time_Shift_53
Note_On_91_Vel_91
Note_On_49_Vel_70
Time_Shift_88
Note_On_92_Vel_0
Time_Shift_7
Note_On_92_Vel_99
Time_Shift_67
Note_On_93_Vel_0
Note_On_92_Vel_0
Time_Shift_1
Note_On_91_Vel_0
Sustain_Off
Note_On_59_Vel_0
Note_On_49_Vel_0
Time_Shift_44
Note_On_42_Vel_71
Time_Shift_4
Note_On_95_Vel_86
Time_Shift_69
Sustain_On
Time_Shift_28
Note_On_93_Vel_82
Time_Shift_105
Note_On_85_Vel_79
Time_Shift_4
Note_On_57_Vel_59
Time_Shift_99
Note_On_84_Vel_92
Time_Shift_102
Note_On_92_Vel_93
Time_Shift_10
Note_On_51_Vel_63
Time_Shift_85
Note_On_90_Vel_89
Time_Shift_92
Sustain_Off
Time_Shift_1
Note_On_90_Vel_0
Note_On_93_Vel_0
Note_On_92_Vel_0
Note_On_57_Vel_0
Note_On_51_Vel_0
Note_On_84_Vel_0
Time_Shift_1
Note_On_85_Vel_0
Note_On_42_Vel_0
Time_Shift_11
Note_On_95_Vel_0
Time_Shift_10
Note_On_88_Vel_83
Time_Shift_9
Note_On_52_Vel_70
Time_Shift_58
Sustain_On
Time_Shift_33
Note_On_93_Vel_78
Note_On_81_Vel_86
Time_Shift_5
Note_On_93_Vel_0
Time_Shift_103
Note_On_86_Vel_92
Time_Shift_12
Note_On_52_Vel_0
Time_Shift_9
Note_On_64_Vel_65
Time_Shift_1
Note_On_52_Vel_65
Time_Shift_91
Note_On_85_Vel_80
Time_Shift_109
Note_On_52_Vel_0
Note_On_76_Vel_65
Time_Shift_1
Note_On_64_Vel_0
Time_Shift_1
Note_On_81_Vel_0
Note_On_62_Vel_60
Time_Shift_1
Note_On_86_Vel_0
Note_On_88_Vel_0
Time_Shift_2
Sustain_Off
Time_Shift_2
Note_On_85_Vel_0
Time_Shift_25
Note_On_56_Vel_48
Time_Shift_56
Note_On_83_Vel_80
Time_Shift_23
Note_On_76_Vel_0
Time_Shift_120
Note_On_56_Vel_0
Time_Shift_17
Note_On_81_Vel_75
Time_Shift_15
Note_On_83_Vel_0
Time_Shift_13
Note_On_57_Vel_46
Time_Shift_8
Note_On_61_Vel_49
Time_Shift_20
Note_On_62_Vel_0
Time_Shift_70
Sustain_On
Time_Shift_246
Note_On_45_Vel_64
Time_Shift_583
Sustain_Off
Time_Shift_6
Note_On_81_Vel_0
Note_On_45_Vel_0
Note_On_64_Vel_79
Note_On_61_Vel_0
Time_Shift_1
Note_On_57_Vel_0
Time_Shift_3
Note_On_52_Vel_74
Time_Shift_268
Note_On_66_Vel_87
Time_Shift_2
Note_On_54_Vel_74
Time_Shift_4
Note_On_64_Vel_0
Time_Shift_35
Note_On_52_Vel_0
Time_Shift_38
Note_On_68_Vel_90
Time_Shift_8
Note_On_56_Vel_81
Time_Shift_4
Note_On_54_Vel_0
Time_Shift_2
Note_On_66_Vel_0
Time_Shift_65
Note_On_68_Vel_0
Time_Shift_6
Note_On_81_Vel_85
Time_Shift_1
Note_On_56_Vel_0
Time_Shift_2
Note_On_69_Vel_89
Time_Shift_3
Note_On_57_Vel_76
Time_Shift_67
Note_On_57_Vel_0
Time_Shift_9
Note_On_71_Vel_95
Time_Shift_3
Note_On_59_Vel_77
Note_On_69_Vel_0
Time_Shift_19
Note_On_81_Vel_0
Time_Shift_56
Note_On_59_Vel_0
Time_Shift_22
Note_On_61_Vel_85
Time_Shift_1
Note_On_73_Vel_98
Time_Shift_20
Note_On_71_Vel_0
Time_Shift_108
Sustain_On
Time_Shift_109
Note_On_69_Vel_77
Time_Shift_2
Note_On_66_Vel_72
Time_Shift_1
Note_On_51_Vel_70
Time_Shift_202
Note_On_59_Vel_89
Time_Shift_4
Note_On_71_Vel_94
Note_On_83_Vel_80
Time_Shift_5
Note_On_83_Vel_0
Time_Shift_230
Note_On_51_Vel_0
Note_On_61_Vel_0
Note_On_73_Vel_0
Time_Shift_1
Note_On_69_Vel_0
Note_On_66_Vel_0
Time_Shift_1
Note_On_59_Vel_0
Note_On_71_Vel_0
Time_Shift_1
Sustain_Off
Time_Shift_3
Note_On_73_Vel_102
Time_Shift_2
Note_On_61_Vel_88
Time_Shift_115
Sustain_On
Time_Shift_111
Note_On_52_Vel_77
Time_Shift_2
Note_On_64_Vel_75
Time_Shift_3
Note_On_68_Vel_79
Time_Shift_195
Note_On_71_Vel_95
Time_Shift_3
Note_On_59_Vel_85
Time_Shift_285
Note_On_73_Vel_0
Time_Shift_11
Note_On_73_Vel_89
Time_Shift_11
Note_On_68_Vel_0
Time_Shift_2
Note_On_52_Vel_0
Sustain_Off
Time_Shift_1
Note_On_59_Vel_0
Note_On_71_Vel_0
Time_Shift_6
Note_On_61_Vel_0
Time_Shift_5
Note_On_61_Vel_49
Time_Shift_2
Note_On_64_Vel_0
Time_Shift_139
Sustain_On
Time_Shift_165
Note_On_69_Vel_69
Note_On_66_Vel_56
Time_Shift_14
Note_On_51_Vel_49
Time_Shift_350
Note_On_71_Vel_74
Time_Shift_22
Note_On_59_Vel_61
Time_Shift_339
Note_On_71_Vel_0
Time_Shift_6
Note_On_71_Vel_68
Time_Shift_54
Note_On_66_Vel_0
Note_On_69_Vel_0
Time_Shift_1
Note_On_61_Vel_0
Note_On_71_Vel_0
Note_On_51_Vel_0
Time_Shift_1
Note_On_59_Vel_0
Sustain_Off
Time_Shift_8
Note_On_73_Vel_0
Time_Shift_43
Note_On_52_Vel_59
Note_On_80_Vel_73
Time_Shift_18
Note_On_76_Vel_48
Time_Shift_46
Sustain_On
Time_Shift_172
Sustain_Off
Time_Shift_5
Note_On_52_Vel_0
Time_Shift_4
Note_On_52_Vel_63
Time_Shift_1
Note_On_78_Vel_82
Time_Shift_11
Note_On_75_Vel_70
Time_Shift_11
Note_On_76_Vel_0
Time_Shift_6
Note_On_80_Vel_0
Time_Shift_5
Note_On_52_Vel_0
Time_Shift_70
Note_On_75_Vel_0
Time_Shift_102
Note_On_80_Vel_87
Time_Shift_10
Note_On_64_Vel_67
Note_On_78_Vel_0
Time_Shift_2
Note_On_52_Vel_72
Time_Shift_2
Note_On_74_Vel_72
Time_Shift_33
Note_On_74_Vel_0
Time_Shift_12
Note_On_52_Vel_0
Note_On_64_Vel_0
Time_Shift_181
Note_On_83_Vel_94
Time_Shift_15
Note_On_45_Vel_66
Note_On_73_Vel_78
Time_Shift_19
Sustain_On
Time_Shift_188
Note_On_64_Vel_72
Time_Shift_5
Note_On_69_Vel_62
Time_Shift_16
Note_On_57_Vel_54
Time_Shift_40
Sustain_Off
Note_On_73_Vel_0
Time_Shift_1
Note_On_64_Vel_0
Note_On_57_Vel_0
Time_Shift_11
Note_On_45_Vel_0
Note_On_80_Vel_0
Time_Shift_30
Note_On_69_Vel_0
Time_Shift_105
Note_On_81_Vel_82
Time_Shift_6
Note_On_64_Vel_64
Time_Shift_1
Note_On_57_Vel_58
Time_Shift_9
Note_On_73_Vel_76
Time_Shift_16
Note_On_57_Vel_0
Time_Shift_1
Note_On_64_Vel_0
Time_Shift_49
Note_On_73_Vel_0
Time_Shift_82
Note_On_83_Vel_0
Time_Shift_73
Note_On_45_Vel_71
Time_Shift_8
Note_On_76_Vel_75
Time_Shift_3
Note_On_72_Vel_72
Time_Shift_16
Sustain_On
Time_Shift_191
Note_On_64_Vel_73
Time_Shift_12
Note_On_57_Vel_60
Time_Shift_75
Note_On_78_Vel_90
Time_Shift_6
Note_On_72_Vel_0
Time_Shift_11
Note_On_72_Vel_74
Time_Shift_58
Note_On_57_Vel_0
Note_On_64_Vel_0
Note_On_76_Vel_0
Time_Shift_7
Note_On_64_Vel_87
Time_Shift_1
Note_On_72_Vel_0
Time_Shift_2
Note_On_76_Vel_93
Time_Shift_1
Note_On_57_Vel_66
Time_Shift_2
Note_On_72_Vel_78
Time_Shift_30
Note_On_57_Vel_0
Note_On_64_Vel_0
Note_On_76_Vel_0
Time_Shift_1
Note_On_78_Vel_0
Note_On_72_Vel_0
Time_Shift_2
Sustain_Off
Time_Shift_8
Note_On_81_Vel_0
Time_Shift_8
Note_On_45_Vel_0
Time_Shift_195
Note_On_80_Vel_81
Note_On_52_Vel_68
Time_Shift_6
Note_On_64_Vel_54
Time_Shift_2
Note_On_71_Vel_63
Time_Shift_43
Sustain_On
Time_Shift_169
Note_On_64_Vel_0
Note_On_71_Vel_0
Time_Shift_4
Note_On_59_Vel_57
Time_Shift_2
Note_On_64_Vel_46
Time_Shift_1
Note_On_71_Vel_47
Time_Shift_208
Note_On_59_Vel_0
Note_On_64_Vel_0
Note_On_71_Vel_0
Time_Shift_4
Note_On_59_Vel_62
Note_On_71_Vel_55
Note_On_64_Vel_56
Time_Shift_7
Note_On_52_Vel_0
Time_Shift_196
Note_On_80_Vel_0
Time_Shift_1
Note_On_64_Vel_0
Time_Shift_1
Note_On_71_Vel_0
Time_Shift_1
Note_On_59_Vel_0
Time_Shift_1
Sustain_Off
Time_Shift_13
Note_On_73_Vel_86
Time_Shift_10
Note_On_54_Vel_72
Time_Shift_1
Note_On_70_Vel_72
Time_Shift_4
Note_On_66_Vel_64
Time_Shift_6
Note_On_66_Vel_0
Time_Shift_46
Sustain_On
Time_Shift_156
Note_On_61_Vel_62
Time_Shift_2
Note_On_64_Vel_57
Time_Shift_88
Note_On_70_Vel_0
Time_Shift_2
Note_On_75_Vel_94
Time_Shift_7
Note_On_70_Vel_89
Time_Shift_76
Note_On_73_Vel_0
Time_Shift_7
Note_On_61_Vel_0
Note_On_64_Vel_0
Note_On_70_Vel_0
Time_Shift_3
Note_On_73_Vel_98
Time_Shift_2
Note_On_64_Vel_74
Time_Shift_1
Note_On_70_Vel_88
Time_Shift_4
Note_On_61_Vel_67
Time_Shift_225
Sustain_Off
Note_On_54_Vel_0
Time_Shift_1
Note_On_70_Vel_0
Note_On_64_Vel_0
Time_Shift_1
Note_On_75_Vel_0
Time_Shift_17
Note_On_61_Vel_0
Note_On_73_Vel_0
Time_Shift_5
Note_On_59_Vel_76
Note_On_47_Vel_77
Time_Shift_1
Note_On_80_Vel_91
Time_Shift_13
Note_On_69_Vel_76
Time_Shift_32
Note_On_47_Vel_0
Time_Shift_10
Sustain_On
Time_Shift_54
Note_On_59_Vel_0
Time_Shift_96
Note_On_63_Vel_69
Time_Shift_16
Note_On_59_Vel_58
Note_On_47_Vel_60
Time_Shift_2
Note_On_54_Vel_67
Time_Shift_170
Note_On_54_Vel_0
Note_On_63_Vel_0
Time_Shift_8
Note_On_59_Vel_0
Note_On_69_Vel_0
Time_Shift_2
Note_On_63_Vel_66
Time_Shift_1
Note_On_78_Vel_88
Note_On_54_Vel_71
Time_Shift_1
Note_On_59_Vel_72
Time_Shift_1
Note_On_69_Vel_77
Time_Shift_183
Sustain_Off
Note_On_59_Vel_0
Time_Shift_1
Note_On_63_Vel_0
Note_On_80_Vel_0
Time_Shift_18
Note_On_54_Vel_0
Time_Shift_8
Note_On_47_Vel_0
Time_Shift_31
Note_On_69_Vel_0
Time_Shift_4
Note_On_47_Vel_67
Time_Shift_2
Note_On_71_Vel_82
Time_Shift_3
Note_On_59_Vel_66
Time_Shift_1
Note_On_69_Vel_68
Time_Shift_43
Sustain_On
Time_Shift_169
Note_On_47_Vel_0
Note_On_59_Vel_0
Note_On_69_Vel_0
Time_Shift_4
Note_On_63_Vel_78
Time_Shift_3
Note_On_75_Vel_90
Time_Shift_2
Note_On_47_Vel_70
Time_Shift_1
Note_On_59_Vel_72
Time_Shift_1
Note_On_54_Vel_68
Time_Shift_1
Note_On_69_Vel_82
Time_Shift_188
Note_On_63_Vel_0
Note_On_69_Vel_0
Time_Shift_4
Note_On_76_Vel_96
Time_Shift_2
Note_On_81_Vel_88
Time_Shift_2
Note_On_54_Vel_0
Note_On_59_Vel_0
Time_Shift_1
Note_On_63_Vel_78
Time_Shift_2
Note_On_69_Vel_88
Time_Shift_1
Note_On_54_Vel_76
Note_On_59_Vel_78
Time_Shift_3
Note_On_81_Vel_0
Time_Shift_173
Sustain_Off
Time_Shift_2
Note_On_54_Vel_0
Time_Shift_1
Note_On_59_Vel_0
Note_On_75_Vel_0
Time_Shift_2
Note_On_76_Vel_0
Time_Shift_7
Note_On_71_Vel_0
Time_Shift_7
Note_On_63_Vel_0
Note_On_78_Vel_0
Time_Shift_8
Note_On_69_Vel_0
Time_Shift_8
Note_On_47_Vel_0
Time_Shift_4
Note_On_81_Vel_89
Time_Shift_3
Note_On_77_Vel_94
Time_Shift_2
Note_On_47_Vel_83
Time_Shift_3
Note_On_69_Vel_88
Time_Shift_30
Note_On_47_Vel_0
Time_Shift_4
Note_On_81_Vel_0
Time_Shift_7
Sustain_On
Time_Shift_183
Note_On_78_Vel_95
Time_Shift_2
Note_On_69_Vel_0
Note_On_63_Vel_79
Time_Shift_3
Note_On_47_Vel_76
Time_Shift_1
Note_On_59_Vel_77
Note_On_54_Vel_77
Time_Shift_1
Note_On_69_Vel_84
Note_On_75_Vel_89
Time_Shift_187
Note_On_63_Vel_0
Note_On_69_Vel_0
Time_Shift_6
Note_On_79_Vel_101
Time_Shift_1
Note_On_54_Vel_0
Note_On_59_Vel_0
Note_On_75_Vel_0
Time_Shift_1
Note_On_63_Vel_81
Time_Shift_3
Note_On_69_Vel_90
Time_Shift_2
Note_On_54_Vel_83
Note_On_75_Vel_93
Time_Shift_4
Note_On_59_Vel_77
Time_Shift_195
Sustain_Off
Note_On_47_Vel_0
Time_Shift_1
Note_On_54_Vel_0
Note_On_75_Vel_0
Note_On_79_Vel_0
Note_On_78_Vel_0
Time_Shift_1
Note_On_59_Vel_0
Time_Shift_8
Note_On_69_Vel_0
Time_Shift_8
Note_On_63_Vel_0
Note_On_77_Vel_0
Time_Shift_22
Note_On_80_Vel_103
Time_Shift_5
Note_On_52_Vel_89
Time_Shift_2
Note_On_40_Vel_86
Time_Shift_1
Note_On_68_Vel_94
Time_Shift_4
Note_On_76_Vel_70
Time_Shift_26
Note_On_40_Vel_0
Time_Shift_4
Note_On_68_Vel_0
Time_Shift_2
Note_On_52_Vel_0
Time_Shift_34
Sustain_On
Time_Shift_143
Note_On_78_Vel_93
Note_On_52_Vel_83
Time_Shift_1
Note_On_75_Vel_92
Time_Shift_179
Note_On_52_Vel_0
Note_On_80_Vel_0
Time_Shift_6
Note_On_52_Vel_91
Time_Shift_3
Note_On_80_Vel_102
Time_Shift_3
Note_On_74_Vel_97
Time_Shift_216
Sustain_Off
Time_Shift_1
Note_On_75_Vel_0
Time_Shift_1
Note_On_52_Vel_0
Note_On_74_Vel_0
Note_On_80_Vel_0
Note_On_76_Vel_0
Time_Shift_1
Note_On_78_Vel_0
Time_Shift_16
Note_On_83_Vel_102
Time_Shift_3
Note_On_45_Vel_82
Note_On_73_Vel_97
Time_Shift_3
Note_On_69_Vel_82
Time_Shift_2
Note_On_57_Vel_85
Time_Shift_45
Note_On_45_Vel_0
Time_Shift_4
Note_On_57_Vel_0
Time_Shift_33
Sustain_On
Time_Shift_132
Note_On_64_Vel_75
Time_Shift_2
Note_On_57_Vel_70
Note_On_45_Vel_67
Time_Shift_181
Note_On_64_Vel_0
Time_Shift_8
Note_On_57_Vel_0
Note_On_73_Vel_0
Time_Shift_2
Note_On_64_Vel_76
Time_Shift_2
Note_On_81_Vel_96
Time_Shift_2
Note_On_57_Vel_74
Time_Shift_1
Note_On_73_Vel_90
Time_Shift_197
Sustain_Off
Time_Shift_2
Note_On_73_Vel_0
Time_Shift_2
Note_On_81_Vel_0
Time_Shift_2
Note_On_83_Vel_0
Time_Shift_13
Note_On_64_Vel_0
Note_On_69_Vel_0
Time_Shift_7
Note_On_45_Vel_0
Note_On_57_Vel_0
Time_Shift_10
Note_On_45_Vel_79
Note_On_76_Vel_89
Note_On_64_Vel_74
Time_Shift_1
Note_On_57_Vel_79
Time_Shift_1
Note_On_72_Vel_85
Time_Shift_65
Sustain_On
Time_Shift_146
Note_On_57_Vel_0
Note_On_64_Vel_0
Time_Shift_4
Note_On_64_Vel_71
Time_Shift_1
Note_On_57_Vel_62
Time_Shift_95
Note_On_72_Vel_0
Time_Shift_5
Note_On_78_Vel_88
Time_Shift_2
Note_On_72_Vel_81
Time_Shift_70
Note_On_57_Vel_0
Note_On_64_Vel_0
Note_On_76_Vel_0
Time_Shift_4
Note_On_57_Vel_78
Time_Shift_1
Note_On_64_Vel_81
Time_Shift_2
Note_On_72_Vel_0
Time_Shift_4
Note_On_76_Vel_91
Time_Shift_7
Note_On_72_Vel_80
Time_Shift_168
Sustain_Off
Time_Shift_1
Note_On_57_Vel_0
Note_On_72_Vel_0
Time_Shift_1
Note_On_64_Vel_0
Note_On_78_Vel_0
Note_On_76_Vel_0
Time_Shift_4
Note_On_45_Vel_0
Time_Shift_49
Note_On_80_Vel_96
Time_Shift_3
Note_On_71_Vel_87
Note_On_52_Vel_84
Time_Shift_63
Sustain_On
Time_Shift_172
Note_On_64_Vel_64
Time_Shift_2
Note_On_59_Vel_63
Time_Shift_195
Note_On_59_Vel_0
Note_On_64_Vel_0
Note_On_71_Vel_0
Time_Shift_4
Note_On_59_Vel_73
Note_On_64_Vel_57
Time_Shift_1
Note_On_71_Vel_68
Time_Shift_7
Note_On_52_Vel_0
Time_Shift_249
Note_On_73_Vel_80
Time_Shift_3
Note_On_54_Vel_68
Time_Shift_8
Note_On_70_Vel_76
Time_Shift_8
Sustain_Off
Note_On_80_Vel_0
Note_On_71_Vel_0
Time_Shift_1
Note_On_59_Vel_0
Note_On_64_Vel_0
Time_Shift_87
Sustain_On
Time_Shift_94
Note_On_61_Vel_60
Time_Shift_1
Note_On_64_Vel_61
Time_Shift_90
Note_On_70_Vel_0
Time_Shift_4
Note_On_75_Vel_86
Time_Shift_7
Note_On_70_Vel_76
Time_Shift_81
Note_On_73_Vel_0
Time_Shift_4
Note_On_73_Vel_90
Time_Shift_3
Note_On_61_Vel_0
Note_On_64_Vel_0
Note_On_70_Vel_0
Time_Shift_4
Note_On_70_Vel_84
Note_On_64_Vel_68
Time_Shift_3
Note_On_61_Vel_68
Time_Shift_232
Note_On_54_Vel_0
Note_On_70_Vel_0
Time_Shift_1
Note_On_73_Vel_0
Note_On_64_Vel_0
Sustain_Off
Time_Shift_1
Note_On_61_Vel_0
Note_On_75_Vel_0
Time_Shift_24
Note_On_80_Vel_84
Time_Shift_5
Note_On_47_Vel_67
Time_Shift_8
Note_On_69_Vel_68
Time_Shift_40
Note_On_47_Vel_0
Time_Shift_20
Sustain_On
Time_Shift_151
Note_On_63_Vel_64
Time_Shift_13
Note_On_54_Vel_59
Time_Shift_9
Note_On_59_Vel_52
Time_Shift_158
Note_On_59_Vel_0
Time_Shift_7
Note_On_63_Vel_0
Note_On_69_Vel_0
Time_Shift_2
Note_On_59_Vel_68
Time_Shift_1
Note_On_78_Vel_78
Time_Shift_5
Note_On_63_Vel_58
Note_On_54_Vel_0
Time_Shift_1
Note_On_69_Vel_68
Time_Shift_2
Note_On_47_Vel_61
Time_Shift_2
Note_On_54_Vel_59
Time_Shift_188
Sustain_Off
Time_Shift_1
Note_On_54_Vel_0
Note_On_63_Vel_0
Time_Shift_1
Note_On_80_Vel_0
Time_Shift_12
Note_On_59_Vel_0
Time_Shift_23
Note_On_47_Vel_0
Note_On_69_Vel_0
Time_Shift_8
Note_On_47_Vel_70
Time_Shift_3
Note_On_71_Vel_74
Note_On_69_Vel_70
Time_Shift_58
Sustain_On
Time_Shift_112
Note_On_75_Vel_76
Time_Shift_36
Note_On_57_Vel_68
Time_Shift_3
Note_On_73_Vel_86
Time_Shift_3
Note_On_57_Vel_0
Note_On_69_Vel_0
Time_Shift_3
Note_On_63_Vel_66
Time_Shift_7
Note_On_69_Vel_76
Note_On_54_Vel_65
Time_Shift_35
Sustain_Off
Time_Shift_1
Note_On_47_Vel_0
Note_On_78_Vel_0
Time_Shift_4
Note_On_71_Vel_0
Note_On_75_Vel_0
Note_On_54_Vel_0
Time_Shift_1
Note_On_63_Vel_0
Time_Shift_1
Note_On_69_Vel_0
Time_Shift_150
Note_On_47_Vel_54
Time_Shift_9
Note_On_59_Vel_59
Note_On_71_Vel_81
Time_Shift_1
Note_On_63_Vel_64
Note_On_54_Vel_60
Time_Shift_3
Note_On_69_Vel_74
Time_Shift_19
Note_On_73_Vel_0
Time_Shift_8
Note_On_63_Vel_0
Time_Shift_6
Note_On_47_Vel_0
Time_Shift_1
Note_On_69_Vel_0
Time_Shift_12
Note_On_54_Vel_0
Note_On_59_Vel_0
Time_Shift_230
Note_On_52_Vel_60
Time_Shift_4
Note_On_76_Vel_64
Time_Shift_4
Note_On_71_Vel_0
Time_Shift_2
Note_On_64_Vel_58
Time_Shift_1
Note_On_68_Vel_62
Time_Shift_6
Note_On_59_Vel_37
Time_Shift_1
Note_On_71_Vel_45
Time_Shift_29
Note_On_71_Vel_0
Time_Shift_23
Sustain_On
Time_Shift_7
Note_On_59_Vel_0
Time_Shift_273
Note_On_40_Vel_56
Time_Shift_322
Note_On_75_Vel_70
Time_Shift_7
Note_On_63_Vel_53
Time_Shift_319
Note_On_40_Vel_0
Note_On_52_Vel_0
Sustain_Off
Note_On_76_Vel_0
Time_Shift_1
Note_On_64_Vel_0
Time_Shift_8
Note_On_75_Vel_0
Time_Shift_7
Note_On_63_Vel_0
Time_Shift_3
Note_On_75_Vel_71
Time_Shift_9
Note_On_63_Vel_54
Time_Shift_13
Note_On_56_Vel_59
Time_Shift_52
Sustain_On
Time_Shift_208
Note_On_63_Vel_0
Time_Shift_8
Note_On_63_Vel_54
Time_Shift_17
Note_On_59_Vel_51
Time_Shift_180
Note_On_80_Vel_84
Time_Shift_2
Note_On_68_Vel_0
Time_Shift_11
Note_On_68_Vel_68
Time_Shift_4
Note_On_59_Vel_0
Note_On_63_Vel_0
Time_Shift_7
Note_On_63_Vel_59
Time_Shift_2
Note_On_59_Vel_51
Time_Shift_178
Sustain_Off
Time_Shift_1
Note_On_56_Vel_0
Note_On_63_Vel_0
Note_On_59_Vel_0
Time_Shift_1
Note_On_75_Vel_0
Time_Shift_11
Note_On_80_Vel_0
Time_Shift_8
Note_On_68_Vel_0
Time_Shift_3
Note_On_80_Vel_81
Time_Shift_1
Note_On_49_Vel_78
Time_Shift_5
Note_On_68_Vel_75
Time_Shift_34
Note_On_49_Vel_0
Time_Shift_26
Sustain_On
Time_Shift_148
Note_On_61_Vel_62
Note_On_64_Vel_58
Time_Shift_1
Note_On_56_Vel_67
Time_Shift_166
Note_On_61_Vel_0
Note_On_64_Vel_0
Time_Shift_4
Note_On_64_Vel_73
Note_On_82_Vel_101
Time_Shift_3
Note_On_56_Vel_0
Time_Shift_3
Note_On_61_Vel_68
Time_Shift_1
Note_On_70_Vel_90
Time_Shift_3
Note_On_56_Vel_73
Time_Shift_3
Note_On_49_Vel_67
Time_Shift_271
Sustain_Off
Note_On_56_Vel_0
Note_On_80_Vel_0
Note_On_64_Vel_0
Note_On_70_Vel_0
Note_On_61_Vel_0
Note_On_68_Vel_0
Time_Shift_2
Note_On_82_Vel_0
Time_Shift_9
Note_On_49_Vel_0
Time_Shift_11
Note_On_85_Vel_76
Time_Shift_1
Note_On_44_Vel_59
Time_Shift_3
Note_On_73_Vel_69
Time_Shift_85
Sustain_On
Time_Shift_160
Note_On_56_Vel_58
Time_Shift_5
Note_On_59_Vel_51
Time_Shift_178
Note_On_83_Vel_70
Time_Shift_6
Note_On_47_Vel_64
Time_Shift_1
Note_On_71_Vel_60
Time_Shift_239
Note_On_52_Vel_78
Time_Shift_1
Note_On_64_Vel_60
Time_Shift_35
Sustain_Off
Time_Shift_1
Note_On_85_Vel_0
Note_On_47_Vel_0
Note_On_56_Vel_0
Time_Shift_1
Note_On_73_Vel_0
Note_On_59_Vel_0
Note_On_44_Vel_0
Time_Shift_186
Note_On_59_Vel_63
Time_Shift_4
Note_On_56_Vel_50
Time_Shift_60
Note_On_56_Vel_0
Time_Shift_6
Note_On_59_Vel_0
Time_Shift_151
Note_On_52_Vel_0
Time_Shift_6
Note_On_51_Vel_63
Time_Shift_12
Note_On_64_Vel_0
Time_Shift_8
Note_On_71_Vel_0
Time_Shift_15
Note_On_83_Vel_0
Time_Shift_77
Sustain_On
Time_Shift_133
Note_On_87_Vel_77
Time_Shift_8
Note_On_51_Vel_0
Sustain_Off
Time_Shift_1
Note_On_43_Vel_51
Time_Shift_40
Note_On_88_Vel_78
Time_Shift_7
Note_On_43_Vel_0
Time_Shift_41
Note_On_87_Vel_0
Time_Shift_6
Note_On_87_Vel_87
Time_Shift_2
Sustain_On
Time_Shift_54
Note_On_88_Vel_0
Time_Shift_4
Note_On_88_Vel_62
Time_Shift_34
Note_On_87_Vel_0
Time_Shift_7
Note_On_87_Vel_78
Time_Shift_24
Note_On_88_Vel_0
Time_Shift_7
Sustain_Off
Time_Shift_13
Note_On_61_Vel_66
Note_On_85_Vel_78
Time_Shift_3
Note_On_51_Vel_75
Time_Shift_4
Note_On_58_Vel_64
Time_Shift_19
Note_On_87_Vel_0
Time_Shift_5
Note_On_61_Vel_0
Time_Shift_14
Note_On_58_Vel_0
Time_Shift_27
Note_On_51_Vel_0
Time_Shift_23
Note_On_85_Vel_0
Time_Shift_113
Note_On_94_Vel_89
Time_Shift_2
Note_On_51_Vel_66
Time_Shift_4
Note_On_58_Vel_58
Time_Shift_2
Note_On_61_Vel_51
Time_Shift_22
Note_On_51_Vel_0
Time_Shift_1
Note_On_58_Vel_0
Time_Shift_33
Note_On_61_Vel_0
Time_Shift_119
Note_On_44_Vel_71
Time_Shift_1
Note_On_85_Vel_69
Time_Shift_26
Sustain_On
Time_Shift_19
Note_On_87_Vel_87
Time_Shift_50
Note_On_85_Vel_0
Time_Shift_6
Note_On_85_Vel_74
Time_Shift_25
Note_On_94_Vel_0
Time_Shift_7
Note_On_87_Vel_0
Time_Shift_10
Note_On_87_Vel_76
Time_Shift_29
Note_On_85_Vel_0
Time_Shift_9
Note_On_85_Vel_91
Time_Shift_35
Note_On_51_Vel_74
Time_Shift_2
Note_On_44_Vel_0
Time_Shift_2
Note_On_59_Vel_83
Time_Shift_1
Note_On_56_Vel_82
Note_On_83_Vel_93
Time_Shift_1
Note_On_44_Vel_68
Time_Shift_22
Note_On_87_Vel_0
Time_Shift_2
Note_On_85_Vel_0
Time_Shift_7
Note_On_44_Vel_0
Note_On_59_Vel_0
Note_On_56_Vel_0
Time_Shift_1
Note_On_51_Vel_0
Time_Shift_1
Sustain_Off
Time_Shift_18
Note_On_83_Vel_0
Time_Shift_142
Note_On_92_Vel_91
Time_Shift_13
Note_On_59_Vel_62
Time_Shift_1
Note_On_56_Vel_75
Time_Shift_3
Note_On_51_Vel_64
Time_Shift_1
Note_On_59_Vel_0
Time_Shift_27
Note_On_56_Vel_0
Note_On_51_Vel_0
Time_Shift_1
Note_On_92_Vel_0
Time_Shift_160
Note_On_83_Vel_76
Note_On_39_Vel_70
Time_Shift_34
Sustain_On
Time_Shift_17
Note_On_85_Vel_88
Time_Shift_37
Note_On_83_Vel_0
Time_Shift_10
Note_On_83_Vel_92
Time_Shift_44
Note_On_85_Vel_0
Time_Shift_6
Note_On_85_Vel_79
Time_Shift_32
Note_On_83_Vel_0
Time_Shift_6
Note_On_83_Vel_82
Time_Shift_27
Note_On_61_Vel_63
Time_Shift_1
Note_On_55_Vel_80
Time_Shift_8
Note_On_51_Vel_64
Time_Shift_20
Note_On_82_Vel_99
Time_Shift_10
Note_On_94_Vel_90
Time_Shift_5
Note_On_94_Vel_0
Time_Shift_21
Note_On_83_Vel_0
Time_Shift_2
Note_On_51_Vel_0
Time_Shift_1
Note_On_39_Vel_0
Time_Shift_1
Sustain_Off
Note_On_82_Vel_0
Note_On_55_Vel_0
Time_Shift_2
Note_On_61_Vel_0
Time_Shift_12
Note_On_85_Vel_0
Time_Shift_149
Note_On_55_Vel_74
Time_Shift_1
Note_On_87_Vel_93
Time_Shift_3
Note_On_61_Vel_56
Time_Shift_5
Note_On_51_Vel_57
Time_Shift_30
Note_On_55_Vel_0
Time_Shift_5
Note_On_51_Vel_0
Time_Shift_6
Note_On_61_Vel_0
Time_Shift_188
Note_On_82_Vel_87
Time_Shift_1
Note_On_44_Vel_56
Time_Shift_19
Sustain_On
Time_Shift_197
Note_On_59_Vel_61
Time_Shift_14
Note_On_56_Vel_58
Time_Shift_10
Note_On_51_Vel_38
Time_Shift_99
Note_On_80_Vel_78
Time_Shift_79
Note_On_51_Vel_0
Time_Shift_8
Note_On_56_Vel_0
Time_Shift_1
Note_On_51_Vel_54
Time_Shift_3
Note_On_56_Vel_67
Time_Shift_3
Note_On_59_Vel_0
Time_Shift_6
Note_On_75_Vel_76
Time_Shift_2
Note_On_59_Vel_53
Time_Shift_86
Note_On_71_Vel_72
Time_Shift_126
Note_On_82_Vel_0
Note_On_71_Vel_0
Note_On_44_Vel_0
Time_Shift_1
Note_On_80_Vel_0
Sustain_Off
Note_On_87_Vel_0
Time_Shift_1
Note_On_75_Vel_0
Time_Shift_1
Note_On_56_Vel_0
Time_Shift_4
Note_On_47_Vel_42
Time_Shift_1
Note_On_56_Vel_69
Time_Shift_3
Note_On_51_Vel_0
Note_On_59_Vel_0
Time_Shift_2
Note_On_68_Vel_66
Time_Shift_5
Note_On_47_Vel_0
Time_Shift_162
Note_On_56_Vel_0
Time_Shift_59
Note_On_63_Vel_55
Time_Shift_1
Note_On_59_Vel_48
Note_On_56_Vel_42
Time_Shift_47
Sustain_On
Time_Shift_146
Note_On_59_Vel_0
Note_On_68_Vel_0
Time_Shift_5
Note_On_80_Vel_91
Time_Shift_3
Note_On_63_Vel_0
Time_Shift_1
Note_On_59_Vel_74
Note_On_68_Vel_86
Time_Shift_3
Note_On_63_Vel_63
Time_Shift_210
Note_On_63_Vel_0
Time_Shift_1
Note_On_80_Vel_0
Time_Shift_1
Sustain_Off
Time_Shift_7
Note_On_56_Vel_0
Note_On_68_Vel_0
Time_Shift_1
Note_On_80_Vel_88
Time_Shift_1
Note_On_49_Vel_82
Time_Shift_5
Note_On_59_Vel_0
Time_Shift_1
Note_On_68_Vel_76
Time_Shift_50
Note_On_49_Vel_0
Time_Shift_64
Sustain_On
Time_Shift_100
Note_On_64_Vel_64
Time_Shift_1
Note_On_56_Vel_73
Time_Shift_2
Note_On_61_Vel_63
Time_Shift_166
Note_On_61_Vel_0
Note_On_64_Vel_0
Time_Shift_4
Note_On_82_Vel_104
Time_Shift_4
Note_On_56_Vel_0
Note_On_64_Vel_87
Time_Shift_2
Note_On_70_Vel_96
Time_Shift_1
Note_On_61_Vel_82
Time_Shift_7
Note_On_56_Vel_83
Time_Shift_206
Note_On_56_Vel_0
Note_On_70_Vel_0
Time_Shift_1
Note_On_68_Vel_0
Note_On_80_Vel_0
Sustain_Off
Note_On_64_Vel_0
Time_Shift_1
Note_On_82_Vel_0
Time_Shift_5
Note_On_61_Vel_0
Time_Shift_24
Note_On_85_Vel_91
Note_On_44_Vel_81
Time_Shift_6
Note_On_73_Vel_80
Time_Shift_69
Sustain_On
Time_Shift_142
Note_On_56_Vel_60
Time_Shift_1
Note_On_59_Vel_55
Time_Shift_157
Note_On_47_Vel_90
Note_On_83_Vel_92
Time_Shift_3
Note_On_71_Vel_84
Time_Shift_256
Note_On_52_Vel_78
Time_Shift_28
Note_On_47_Vel_0
Note_On_85_Vel_0
Time_Shift_1
Note_On_59_Vel_0
Note_On_56_Vel_0
Sustain_Off
Note_On_73_Vel_0
Note_On_44_Vel_0
Time_Shift_206
Note_On_59_Vel_57
Note_On_56_Vel_59
Time_Shift_47
Note_On_56_Vel_0
Time_Shift_2
Note_On_59_Vel_0
Time_Shift_158
Note_On_51_Vel_65
Time_Shift_2
Note_On_63_Vel_50
Time_Shift_6
Note_On_52_Vel_0
Time_Shift_13
Note_On_83_Vel_0
Time_Shift_8
Note_On_71_Vel_0
Time_Shift_153
Sustain_On
Time_Shift_49
Note_On_43_Vel_74
Time_Shift_47
Note_On_88_Vel_80
Time_Shift_61
Note_On_87_Vel_78
Time_Shift_74
Note_On_87_Vel_0
Time_Shift_7
Note_On_87_Vel_88
Time_Shift_23
Sustain_Off
Time_Shift_5
Note_On_88_Vel_0
Time_Shift_2
Note_On_43_Vel_0
Time_Shift_1
Note_On_63_Vel_0
Time_Shift_1
Note_On_51_Vel_0
Time_Shift_25
Note_On_85_Vel_74
Time_Shift_15
Note_On_58_Vel_55
Time_Shift_1
Note_On_61_Vel_51
Time_Shift_4
Note_On_87_Vel_0
Time_Shift_46
Note_On_85_Vel_0
Time_Shift_67
Note_On_89_Vel_30
Time_Shift_10
Note_On_89_Vel_0
Time_Shift_58
Note_On_94_Vel_86
Time_Shift_20
Note_On_51_Vel_63
Time_Shift_47
Note_On_61_Vel_0
Time_Shift_3
Note_On_58_Vel_0
Time_Shift_5
Note_On_51_Vel_0
Time_Shift_82
Note_On_94_Vel_0
Time_Shift_12
Note_On_44_Vel_60
Time_Shift_8
Note_On_85_Vel_65
Time_Shift_44
Note_On_87_Vel_86
Time_Shift_13
Sustain_On
Time_Shift_46
Note_On_85_Vel_0
Time_Shift_6
Note_On_85_Vel_63
Time_Shift_25
Note_On_87_Vel_0
Time_Shift_11
Note_On_87_Vel_71
Time_Shift_27
Note_On_85_Vel_0
Time_Shift_4
Note_On_85_Vel_78
Time_Shift_41
Note_On_83_Vel_90
Time_Shift_2
Note_On_56_Vel_81
Time_Shift_17
Sustain_Off
Time_Shift_2
Note_On_85_Vel_0
Note_On_87_Vel_0
Note_On_44_Vel_0
Time_Shift_28
Note_On_83_Vel_0
Time_Shift_152
Note_On_92_Vel_89
Time_Shift_7
Note_On_56_Vel_0
Time_Shift_4
Note_On_51_Vel_66
Note_On_56_Vel_56
Time_Shift_35
Note_On_56_Vel_0
Time_Shift_23
Note_On_51_Vel_0
Time_Shift_107
Note_On_92_Vel_0
Time_Shift_26
Note_On_39_Vel_71
Time_Shift_6
Note_On_83_Vel_72
Time_Shift_45
Sustain_On
Time_Shift_10
Note_On_85_Vel_79
Time_Shift_44
Note_On_83_Vel_0
Time_Shift_10
Note_On_83_Vel_83
Time_Shift_44
Note_On_85_Vel_0
Time_Shift_10
Note_On_85_Vel_65
Time_Shift_5
Note_On_83_Vel_0
Time_Shift_7
Note_On_83_Vel_71
Time_Shift_64
Sustain_Off
Time_Shift_2
Note_On_85_Vel_0
Note_On_83_Vel_0
Note_On_61_Vel_60
Note_On_39_Vel_0
Note_On_55_Vel_75
Time_Shift_1
Note_On_82_Vel_92
Time_Shift_45
Note_On_82_Vel_0
Time_Shift_167
Note_On_87_Vel_81
Time_Shift_10
Note_On_51_Vel_60
Time_Shift_1
Note_On_61_Vel_0
Time_Shift_6
Note_On_55_Vel_0
Time_Shift_33
Note_On_51_Vel_0
Time_Shift_159
Note_On_80_Vel_75
Time_Shift_3
Note_On_44_Vel_59
Time_Shift_32
Sustain_On
Time_Shift_207
Note_On_80_Vel_0
Time_Shift_6
Note_On_80_Vel_89
Time_Shift_2
Note_On_59_Vel_73
Time_Shift_1
Note_On_51_Vel_68
Time_Shift_4
Note_On_71_Vel_68
Time_Shift_79
Note_On_80_Vel_0
Time_Shift_11
Note_On_80_Vel_90
Time_Shift_97
Note_On_80_Vel_0
Time_Shift_6
Note_On_80_Vel_97
Time_Shift_4
Note_On_42_Vel_87
Time_Shift_1
Note_On_47_Vel_67
Time_Shift_4
Note_On_47_Vel_0
Time_Shift_240
Sustain_Off
Time_Shift_2
Note_On_44_Vel_0
Time_Shift_1
Note_On_51_Vel_0
Time_Shift_1
Note_On_42_Vel_0
Time_Shift_1
Note_On_87_Vel_0
Note_On_59_Vel_0
Time_Shift_16
Note_On_71_Vel_0
Note_On_80_Vel_0
Time_Shift_12
Note_On_80_Vel_94
Time_Shift_8
Note_On_76_Vel_78
Time_Shift_1
Note_On_40_Vel_81
Time_Shift_87
Note_On_40_Vel_0
Sustain_On
Time_Shift_180
Note_On_52_Vel_78
Time_Shift_1
Note_On_78_Vel_91
Time_Shift_1
Note_On_40_Vel_72
Time_Shift_1
Note_On_75_Vel_87
Time_Shift_193
Note_On_80_Vel_0
Time_Shift_7
Note_On_80_Vel_95
Time_Shift_1
Note_On_52_Vel_0
Time_Shift_5
Note_On_74_Vel_86
Time_Shift_2
Note_On_64_Vel_77
Time_Shift_3
Note_On_52_Vel_82
Time_Shift_187
Sustain_Off
Note_On_52_Vel_0
Note_On_80_Vel_0
Time_Shift_1
Note_On_40_Vel_0
Note_On_64_Vel_0
Note_On_74_Vel_0
Note_On_75_Vel_0
Time_Shift_1
Note_On_78_Vel_0
Time_Shift_8
Note_On_76_Vel_0
Time_Shift_18
Note_On_83_Vel_102
Time_Shift_5
Note_On_73_Vel_93
Time_Shift_3
Note_On_45_Vel_84
Time_Shift_54
Note_On_45_Vel_0
Time_Shift_36
Sustain_On
Time_Shift_132
Note_On_64_Vel_70
Note_On_57_Vel_68
Time_Shift_182
Note_On_57_Vel_0
Note_On_64_Vel_0
Note_On_73_Vel_0
Time_Shift_4
Note_On_81_Vel_94
Time_Shift_3
Note_On_64_Vel_74
Time_Shift_3
Note_On_57_Vel_64
Note_On_73_Vel_82
Time_Shift_176
Sustain_Off
Time_Shift_1
Note_On_73_Vel_0
Note_On_64_Vel_0
Note_On_81_Vel_0
Note_On_57_Vel_0
Time_Shift_1
Note_On_83_Vel_0
Time_Shift_53
Note_On_76_Vel_91
Time_Shift_1
Note_On_45_Vel_76
Time_Shift_1
Note_On_72_Vel_79
Note_On_64_Vel_73
Time_Shift_72
Sustain_On
Time_Shift_139
Note_On_64_Vel_0
Time_Shift_10
Note_On_64_Vel_69
Time_Shift_2
Note_On_57_Vel_56
Time_Shift_78
Note_On_78_Vel_89
Time_Shift_2
Note_On_72_Vel_0
Time_Shift_7
Note_On_72_Vel_81
Time_Shift_70
Note_On_72_Vel_0
Note_On_76_Vel_0
Time_Shift_5
Note_On_76_Vel_96
Time_Shift_2
Note_On_45_Vel_0
Note_On_57_Vel_0
Note_On_64_Vel_0
Time_Shift_3
Note_On_72_Vel_88
Time_Shift_2
Note_On_64_Vel_81
Note_On_57_Vel_77
Time_Shift_6
Note_On_45_Vel_70
Time_Shift_120
Note_On_72_Vel_0
Time_Shift_10
Note_On_72_Vel_56
Time_Shift_80
Note_On_57_Vel_0
Time_Shift_1
Note_On_72_Vel_0
Note_On_45_Vel_0
Time_Shift_1
Note_On_64_Vel_0
Note_On_78_Vel_0
Note_On_76_Vel_0
Time_Shift_3
Sustain_Off
Time_Shift_31
Note_On_80_Vel_95
Time_Shift_1
Note_On_52_Vel_80
Time_Shift_2
Note_On_71_Vel_80
Time_Shift_93
Sustain_On
Time_Shift_130
Note_On_59_Vel_57
Time_Shift_1
Note_On_64_Vel_54
Time_Shift_200
Note_On_59_Vel_0
Note_On_64_Vel_0
Time_Shift_5
Note_On_59_Vel_64
Time_Shift_1
Note_On_64_Vel_64
Time_Shift_1
Note_On_56_Vel_43
Time_Shift_8
Note_On_56_Vel_0
Time_Shift_217
Note_On_64_Vel_0
Note_On_71_Vel_0
Note_On_59_Vel_0
Time_Shift_1
Sustain_Off
Time_Shift_5
Note_On_52_Vel_0
Note_On_80_Vel_0
Time_Shift_10
Note_On_73_Vel_85
Time_Shift_3
Note_On_54_Vel_72
Note_On_70_Vel_76
Time_Shift_79
Sustain_On
Time_Shift_134
Note_On_61_Vel_53
Time_Shift_7
Note_On_64_Vel_47
Time_Shift_82
Note_On_70_Vel_0
Time_Shift_5
Note_On_75_Vel_90
Time_Shift_5
Note_On_70_Vel_83
Time_Shift_82
Note_On_73_Vel_0
Time_Shift_8
Note_On_70_Vel_0
Time_Shift_3
Note_On_73_Vel_92
Time_Shift_4
Note_On_70_Vel_90
Note_On_61_Vel_0
Note_On_64_Vel_0
Time_Shift_4
Note_On_64_Vel_73
Time_Shift_3
Note_On_61_Vel_64
Time_Shift_204
Sustain_Off
Time_Shift_1
Note_On_54_Vel_0
Note_On_73_Vel_0
Note_On_70_Vel_0
Time_Shift_1
Note_On_64_Vel_0
Note_On_75_Vel_0
Note_On_61_Vel_0
Time_Shift_33
Note_On_80_Vel_88
Time_Shift_4
Note_On_47_Vel_79
Time_Shift_2
Note_On_69_Vel_79
Time_Shift_44
Note_On_47_Vel_0
Time_Shift_34
Sustain_On
Time_Shift_130
Note_On_63_Vel_71
Time_Shift_5
Note_On_59_Vel_61
Time_Shift_4
Note_On_47_Vel_61
Time_Shift_3
Note_On_54_Vel_64
Time_Shift_173
Note_On_59_Vel_0
Note_On_63_Vel_0
Time_Shift_7
Note_On_63_Vel_62
Time_Shift_1
Note_On_54_Vel_0
Note_On_69_Vel_0
Note_On_59_Vel_72
Time_Shift_1
Note_On_78_Vel_82
Time_Shift_3
Note_On_54_Vel_65
Time_Shift_7
Note_On_69_Vel_69
Time_Shift_149
Sustain_Off
Time_Shift_3
Note_On_54_Vel_0
Time_Shift_1
Note_On_63_Vel_0
Note_On_69_Vel_0
Time_Shift_1
Note_On_80_Vel_0
Time_Shift_12
Note_On_47_Vel_0
Note_On_59_Vel_0
Time_Shift_55
Note_On_47_Vel_67
Time_Shift_1
Note_On_54_Vel_58
Note_On_83_Vel_72
Time_Shift_1
Note_On_71_Vel_82
Time_Shift_1
Note_On_69_Vel_71
Time_Shift_1
Note_On_59_Vel_63
Time_Shift_2
Note_On_83_Vel_0
Time_Shift_26
Note_On_47_Vel_0
Time_Shift_36
Sustain_On
Time_Shift_145
Note_On_54_Vel_0
Note_On_59_Vel_0
Note_On_69_Vel_0
Time_Shift_5
Note_On_75_Vel_90
Time_Shift_1
Note_On_63_Vel_73
Note_On_47_Vel_65
Time_Shift_2
Note_On_59_Vel_66
Time_Shift_3
Note_On_54_Vel_66
Time_Shift_1
Note_On_69_Vel_79
Time_Shift_173
Note_On_63_Vel_0
Time_Shift_4
Note_On_63_Vel_67
Time_Shift_11
Note_On_47_Vel_0
Note_On_54_Vel_0
Note_On_59_Vel_0
Note_On_69_Vel_0
Time_Shift_5
Note_On_59_Vel_75
Note_On_81_Vel_88
Note_On_76_Vel_90
Time_Shift_3
Note_On_54_Vel_70
Time_Shift_1
Note_On_69_Vel_87
Time_Shift_1
Note_On_47_Vel_71
Time_Shift_160
Sustain_Off
Time_Shift_4
Note_On_69_Vel_0
Note_On_71_Vel_0
Note_On_81_Vel_0
Note_On_75_Vel_0
Time_Shift_1
Note_On_76_Vel_0
Time_Shift_17
Note_On_47_Vel_0
Note_On_54_Vel_0
Note_On_59_Vel_0
Note_On_63_Vel_0
Note_On_78_Vel_0
Time_Shift_35
Note_On_47_Vel_77
Note_On_81_Vel_85
Note_On_77_Vel_89
Time_Shift_2
Note_On_69_Vel_87
Time_Shift_34
Note_On_47_Vel_0
Time_Shift_14
Sustain_On
Time_Shift_169
Note_On_81_Vel_0
Time_Shift_7
Note_On_69_Vel_0
Note_On_81_Vel_88
Time_Shift_1
Note_On_78_Vel_95
Time_Shift_3
Note_On_47_Vel_74
Note_On_63_Vel_75
Time_Shift_1
Note_On_69_Vel_86
Note_On_75_Vel_87
Time_Shift_1
Note_On_59_Vel_77
Time_Shift_1
Note_On_54_Vel_76
Time_Shift_178
Note_On_63_Vel_0
Time_Shift_3
Note_On_79_Vel_99
Time_Shift_1
Note_On_63_Vel_81
Time_Shift_3
Note_On_47_Vel_0
Note_On_54_Vel_0
Note_On_59_Vel_0
Note_On_69_Vel_0
Note_On_75_Vel_0
Time_Shift_4
Note_On_47_Vel_80
Time_Shift_1
Note_On_59_Vel_79
Note_On_54_Vel_80
Note_On_75_Vel_89
Time_Shift_1
Note_On_69_Vel_85
Time_Shift_183
Sustain_Off
Time_Shift_2
Note_On_47_Vel_0
Time_Shift_1
Note_On_54_Vel_0
Note_On_63_Vel_0
Time_Shift_1
Note_On_69_Vel_0
Note_On_75_Vel_0
Note_On_81_Vel_0
Note_On_79_Vel_0
Note_On_59_Vel_0
Note_On_78_Vel_0
Time_Shift_15
Note_On_77_Vel_0
Time_Shift_21
Note_On_80_Vel_104
Time_Shift_4
Note_On_52_Vel_89
Time_Shift_2
Note_On_40_Vel_84
Note_On_68_Vel_95
Time_Shift_5
Note_On_76_Vel_73
Time_Shift_29
Note_On_68_Vel_0
Time_Shift_23
Note_On_40_Vel_0
Time_Shift_8
Sustain_On
Time_Shift_146
Note_On_52_Vel_0
Time_Shift_4
Note_On_78_Vel_93
Time_Shift_1
Note_On_52_Vel_85
Time_Shift_1
Note_On_75_Vel_93
Time_Shift_186
Note_On_52_Vel_0
Note_On_80_Vel_0
Time_Shift_2
Note_On_64_Vel_84
Time_Shift_2
Note_On_52_Vel_90
Time_Shift_2
Note_On_80_Vel_106
Time_Shift_1
Note_On_64_Vel_0
Time_Shift_8
Note_On_74_Vel_94
Time_Shift_209
Note_On_75_Vel_0
Note_On_52_Vel_0
Sustain_Off
Time_Shift_1
Note_On_74_Vel_0
Note_On_80_Vel_0
Note_On_78_Vel_0
Time_Shift_20
Note_On_76_Vel_0
Time_Shift_6
Note_On_83_Vel_102
Time_Shift_7
Note_On_73_Vel_95
Time_Shift_1
Note_On_45_Vel_82
Time_Shift_3
Note_On_57_Vel_84
Time_Shift_76
Sustain_On
Time_Shift_30
Note_On_45_Vel_0
Time_Shift_100
Note_On_57_Vel_0
Time_Shift_2
Note_On_64_Vel_74
Time_Shift_4
Note_On_57_Vel_64
Time_Shift_178
Note_On_57_Vel_0
Note_On_64_Vel_0
Note_On_73_Vel_0
Time_Shift_5
Note_On_81_Vel_95
Time_Shift_1
Note_On_64_Vel_75
Time_Shift_1
Note_On_45_Vel_68
Note_On_57_Vel_70
Note_On_73_Vel_92
Time_Shift_201
Sustain_Off
Time_Shift_3
Note_On_73_Vel_0
Note_On_81_Vel_0
Note_On_64_Vel_0
Time_Shift_1
Note_On_57_Vel_0
Time_Shift_4
Note_On_83_Vel_0
Time_Shift_30
Note_On_45_Vel_0
Time_Shift_4
Note_On_45_Vel_75
Time_Shift_1
Note_On_76_Vel_91
Time_Shift_1
Note_On_72_Vel_81
Time_Shift_2
Note_On_57_Vel_76
Time_Shift_77
Sustain_On
Time_Shift_138
Note_On_57_Vel_0
Time_Shift_6
Note_On_57_Vel_63
Time_Shift_2
Note_On_64_Vel_63
Time_Shift_92
Note_On_57_Vel_0
Note_On_72_Vel_0
Time_Shift_2
Note_On_78_Vel_86
Time_Shift_4
Note_On_57_Vel_60
Note_On_72_Vel_76
Time_Shift_71
Note_On_57_Vel_0
Note_On_64_Vel_0
Note_On_72_Vel_0
Note_On_76_Vel_0
Time_Shift_4
Note_On_76_Vel_93
Time_Shift_2
Note_On_57_Vel_69
Time_Shift_2
Note_On_64_Vel_68
Time_Shift_1
Note_On_72_Vel_76
Time_Shift_239
Sustain_Off
Note_On_57_Vel_0
Time_Shift_1
Note_On_76_Vel_0
Note_On_64_Vel_0
Note_On_78_Vel_0
Time_Shift_4
Note_On_45_Vel_0
Time_Shift_11
Note_On_52_Vel_83
Note_On_80_Vel_93
Time_Shift_4
Note_On_71_Vel_75
Note_On_72_Vel_0
Time_Shift_85
Sustain_On
Time_Shift_129
Note_On_64_Vel_61
Time_Shift_1
Note_On_59_Vel_60
Time_Shift_215
Note_On_59_Vel_0
Note_On_64_Vel_0
Time_Shift_5
Note_On_59_Vel_72
Time_Shift_1
Note_On_64_Vel_62
Time_Shift_213
Note_On_80_Vel_0
Time_Shift_1
Note_On_52_Vel_0
Time_Shift_1
Note_On_64_Vel_0
Note_On_71_Vel_0
Time_Shift_1
Note_On_59_Vel_0
Time_Shift_2
Sustain_Off
Time_Shift_5
Note_On_73_Vel_86
Time_Shift_5
Note_On_54_Vel_76
Time_Shift_1
Note_On_70_Vel_81
Time_Shift_73
Sustain_On
Time_Shift_135
Note_On_64_Vel_58
Note_On_61_Vel_55
Time_Shift_98
Note_On_75_Vel_94
Time_Shift_12
Note_On_70_Vel_0
Time_Shift_9
Note_On_70_Vel_80
Time_Shift_76
Note_On_70_Vel_0
Note_On_73_Vel_0
Time_Shift_4
Note_On_73_Vel_95
Time_Shift_4
Note_On_61_Vel_0
Note_On_64_Vel_0
Time_Shift_2
Note_On_70_Vel_96
Time_Shift_8
Note_On_61_Vel_65
Note_On_64_Vel_71
Time_Shift_216
Note_On_54_Vel_0
Time_Shift_1
Note_On_70_Vel_0
Note_On_73_Vel_0
Sustain_Off
Note_On_64_Vel_0
Note_On_61_Vel_0
Note_On_75_Vel_0
Time_Shift_27
Note_On_80_Vel_88
Time_Shift_1
Note_On_47_Vel_77
Time_Shift_5
Note_On_69_Vel_77
Time_Shift_44
Note_On_47_Vel_0
Time_Shift_26
Sustain_On
Time_Shift_157
Note_On_63_Vel_63
Time_Shift_8
Note_On_54_Vel_58
Time_Shift_4
Note_On_59_Vel_49
Time_Shift_176
Note_On_59_Vel_0
Note_On_69_Vel_0
Time_Shift_4
Note_On_78_Vel_81
Time_Shift_1
Note_On_59_Vel_71
Time_Shift_2
Note_On_71_Vel_68
Time_Shift_1
Note_On_69_Vel_75
Time_Shift_200
Sustain_Off
Time_Shift_3
Note_On_54_Vel_0
Note_On_63_Vel_0
Note_On_78_Vel_0
Time_Shift_1
Note_On_59_Vel_0
Note_On_80_Vel_0
Time_Shift_27
Note_On_71_Vel_0
Time_Shift_7
Note_On_69_Vel_0
Time_Shift_3
Note_On_83_Vel_79
Time_Shift_1
Note_On_71_Vel_90
Time_Shift_2
Note_On_47_Vel_77
Time_Shift_2
Note_On_83_Vel_0
Time_Shift_1
Note_On_69_Vel_77
Time_Shift_1
Note_On_59_Vel_75
Time_Shift_59
Sustain_On
Time_Shift_8
Note_On_47_Vel_0
Time_Shift_119
Note_On_75_Vel_87
Time_Shift_30
Note_On_73_Vel_98
Time_Shift_8
Note_On_63_Vel_77
Time_Shift_4
Note_On_69_Vel_0
Time_Shift_6
Note_On_54_Vel_75
Time_Shift_1
Note_On_69_Vel_79
Time_Shift_1
Note_On_59_Vel_0
Time_Shift_5
Note_On_59_Vel_68
Time_Shift_195
Note_On_54_Vel_0
Note_On_63_Vel_0
Note_On_69_Vel_0
Note_On_71_Vel_0
Time_Shift_4
Note_On_83_Vel_83
Time_Shift_2
Note_On_71_Vel_94
Time_Shift_1
Note_On_59_Vel_0
Time_Shift_3
Note_On_69_Vel_84
Time_Shift_1
Note_On_63_Vel_71
Note_On_54_Vel_71
Note_On_59_Vel_80
Time_Shift_234
Note_On_83_Vel_0
Time_Shift_3
Sustain_Off
Note_On_73_Vel_0
Note_On_71_Vel_0
Note_On_59_Vel_0
Time_Shift_1
Note_On_75_Vel_0
Time_Shift_12
Note_On_54_Vel_0
Note_On_63_Vel_0
Time_Shift_7
Note_On_69_Vel_0
Time_Shift_29
Note_On_76_Vel_84
Time_Shift_5
Note_On_52_Vel_75
Time_Shift_1
Note_On_64_Vel_81
Note_On_59_Vel_77
Note_On_71_Vel_72
Time_Shift_1
Note_On_68_Vel_82
Time_Shift_31
Note_On_64_Vel_0
Time_Shift_24
Note_On_59_Vel_0
Time_Shift_17
Sustain_On
Time_Shift_23
Note_On_52_Vel_0
Time_Shift_335
Note_On_40_Vel_71
Time_Shift_164
Note_On_71_Vel_0
Time_Shift_642
Sustain_Off
Time_Shift_1
Note_On_76_Vel_0
Note_On_68_Vel_0
Time_Shift_1
Note_On_40_Vel_0
