Time_Shift_7
Sustain_On
Time_Shift_195
Note_On_58_Vel_30
Time_Shift_16
Note_On_53_Vel_26
Time_Shift_26
Note_On_46_Vel_16
Time_Shift_6
Note_On_41_Vel_20
Note_On_34_Vel_16
Time_Shift_940
Note_On_58_Vel_0
Time_Shift_4
Note_On_58_Vel_31
Time_Shift_7
Note_On_49_Vel_25
Time_Shift_1
Note_On_54_Vel_29
Time_Shift_4
Note_On_42_Vel_23
Time_Shift_3
Note_On_37_Vel_23
Time_Shift_7
Note_On_30_Vel_24
Time_Shift_5
Note_On_30_Vel_0
Time_Shift_4
Sustain_Off
Time_Shift_1
Note_On_53_Vel_0
Time_Shift_102
Sustain_On
Time_Shift_584
Note_On_58_Vel_0
Time_Shift_11
Note_On_58_Vel_33
Time_Shift_235
Note_On_34_Vel_0
Note_On_41_Vel_0
Note_On_46_Vel_0
Note_On_58_Vel_0
Time_Shift_5
Note_On_58_Vel_30
Time_Shift_5
Note_On_41_Vel_26
Note_On_46_Vel_24
Time_Shift_1
Sustain_Off
Note_On_34_Vel_25
Note_On_53_Vel_32
Time_Shift_1
Note_On_54_Vel_0
Time_Shift_4
Note_On_37_Vel_0
Time_Shift_1
Note_On_49_Vel_0
Time_Shift_21
Note_On_42_Vel_0
Time_Shift_100
Sustain_On
Time_Shift_852
Note_On_54_Vel_31
Time_Shift_11
Sustain_Off
Time_Shift_1
Note_On_34_Vel_0
Time_Shift_2
Note_On_41_Vel_0
Note_On_53_Vel_0
Time_Shift_3
Note_On_42_Vel_23
Time_Shift_1
Note_On_49_Vel_19
Time_Shift_3
Note_On_37_Vel_21
Time_Shift_141
Sustain_On
Time_Shift_837
Note_On_58_Vel_0
Time_Shift_7
Note_On_46_Vel_0
Time_Shift_4
Note_On_58_Vel_38
Time_Shift_6
Note_On_46_Vel_31
Time_Shift_4
Note_On_53_Vel_33
Time_Shift_1
Note_On_34_Vel_26
Time_Shift_2
Sustain_Off
Time_Shift_2
Note_On_41_Vel_26
Note_On_37_Vel_0
Time_Shift_1
Note_On_54_Vel_0
Time_Shift_2
Note_On_42_Vel_0
Time_Shift_1
Note_On_49_Vel_0
Time_Shift_146
Sustain_On
Time_Shift_853
Note_On_58_Vel_0
Time_Shift_6
Note_On_58_Vel_34
Time_Shift_12
Note_On_54_Vel_30
Time_Shift_1
Sustain_Off
Note_On_42_Vel_26
Time_Shift_1
Note_On_49_Vel_24
Time_Shift_4
Note_On_34_Vel_0
Time_Shift_2
Note_On_46_Vel_0
Note_On_30_Vel_26
Time_Shift_1
Note_On_41_Vel_0
Time_Shift_4
Note_On_30_Vel_0
Time_Shift_1
Note_On_53_Vel_0
Time_Shift_2
Note_On_37_Vel_25
Time_Shift_127
Sustain_On
Time_Shift_622
Note_On_58_Vel_0
Time_Shift_5
Note_On_58_Vel_34
Time_Shift_203
Note_On_58_Vel_0
Time_Shift_8
Note_On_58_Vel_40
Time_Shift_25
Note_On_53_Vel_31
Time_Shift_2
Note_On_46_Vel_26
Time_Shift_1
Note_On_37_Vel_0
Note_On_41_Vel_25
Time_Shift_2
Note_On_49_Vel_0
Sustain_Off
Time_Shift_2
Note_On_54_Vel_0
Time_Shift_1
Note_On_42_Vel_0
Time_Shift_128
Sustain_On
Time_Shift_885
Note_On_54_Vel_31
Time_Shift_2
Note_On_49_Vel_23
Time_Shift_3
Note_On_37_Vel_24
Time_Shift_3
Note_On_42_Vel_21
Time_Shift_15
Sustain_Off
Note_On_46_Vel_0
Time_Shift_1
Note_On_41_Vel_0
Time_Shift_20
Note_On_53_Vel_0
Time_Shift_146
Sustain_On
Time_Shift_829
Note_On_58_Vel_0
Time_Shift_5
Note_On_58_Vel_42
Time_Shift_22
Sustain_Off
Time_Shift_4
Note_On_46_Vel_28
Note_On_49_Vel_0
Time_Shift_2
Note_On_37_Vel_0
Note_On_54_Vel_0
Time_Shift_2
Note_On_53_Vel_31
Time_Shift_2
Note_On_41_Vel_27
Time_Shift_9
Note_On_42_Vel_0
Time_Shift_138
Sustain_On
Time_Shift_792
Note_On_58_Vel_0
Time_Shift_10
Note_On_58_Vel_43
Time_Shift_17
Sustain_Off
Time_Shift_1
Note_On_49_Vel_26
Time_Shift_4
Note_On_37_Vel_28
Time_Shift_1
Note_On_46_Vel_0
Time_Shift_1
Note_On_41_Vel_0
Note_On_42_Vel_28
Note_On_53_Vel_0
Time_Shift_1
Note_On_54_Vel_35
Time_Shift_187
Sustain_On
Time_Shift_576
Note_On_58_Vel_0
Time_Shift_10
Note_On_58_Vel_43
Time_Shift_205
Note_On_58_Vel_0
Time_Shift_10
Note_On_58_Vel_42
Time_Shift_8
Note_On_46_Vel_32
Time_Shift_8
Note_On_34_Vel_27
Time_Shift_1
Note_On_41_Vel_30
Time_Shift_1
Note_On_53_Vel_34
Time_Shift_7
Sustain_Off
Note_On_49_Vel_0
Note_On_54_Vel_0
Time_Shift_1
Note_On_37_Vel_0
Time_Shift_1
Note_On_42_Vel_0
Time_Shift_132
Sustain_On
Time_Shift_848
Note_On_61_Vel_41
Time_Shift_13
Note_On_54_Vel_34
Time_Shift_2
Note_On_49_Vel_25
Time_Shift_2
Sustain_Off
Time_Shift_1
Note_On_34_Vel_0
Note_On_46_Vel_0
Time_Shift_1
Note_On_41_Vel_0
Time_Shift_3
Note_On_53_Vel_0
Time_Shift_10
Note_On_42_Vel_24
Time_Shift_2
Note_On_30_Vel_25
Time_Shift_6
Note_On_37_Vel_20
Time_Shift_3
Note_On_30_Vel_0
Time_Shift_15
Note_On_58_Vel_0
Time_Shift_70
Sustain_On
Time_Shift_682
Note_On_60_Vel_42
Time_Shift_170
Note_On_61_Vel_0
Time_Shift_8
Note_On_60_Vel_0
Time_Shift_3
Note_On_61_Vel_44
Time_Shift_6
Note_On_60_Vel_44
Time_Shift_20
Note_On_58_Vel_29
Time_Shift_9
Note_On_53_Vel_34
Time_Shift_3
Note_On_46_Vel_27
Time_Shift_1
Note_On_41_Vel_29
Time_Shift_1
Note_On_34_Vel_27
Time_Shift_22
Note_On_49_Vel_0
Sustain_Off
Note_On_61_Vel_0
Time_Shift_1
Note_On_54_Vel_0
Time_Shift_1
Note_On_42_Vel_0
Time_Shift_2
Note_On_37_Vel_0
Time_Shift_153
Sustain_On
Time_Shift_538
Note_On_58_Vel_0
Time_Shift_5
Note_On_58_Vel_44
Time_Shift_210
Note_On_58_Vel_0
Time_Shift_10
Note_On_58_Vel_46
Time_Shift_3
Sustain_Off
Time_Shift_7
Note_On_34_Vel_0
Time_Shift_1
Note_On_46_Vel_0
Time_Shift_1
Note_On_41_Vel_0
Note_On_54_Vel_37
Time_Shift_1
Note_On_53_Vel_0
Time_Shift_7
Note_On_49_Vel_31
Time_Shift_1
Note_On_60_Vel_0
Time_Shift_3
Note_On_42_Vel_28
Time_Shift_1
Note_On_30_Vel_28
Time_Shift_4
Note_On_37_Vel_27
Time_Shift_7
Note_On_30_Vel_0
Time_Shift_154
Sustain_On
Time_Shift_599
Note_On_58_Vel_0
Time_Shift_5
Note_On_58_Vel_41
Time_Shift_210
Note_On_58_Vel_0
Time_Shift_11
Sustain_Off
Note_On_58_Vel_44
Note_On_49_Vel_0
Note_On_37_Vel_0
Note_On_54_Vel_0
Time_Shift_16
Note_On_53_Vel_37
Note_On_46_Vel_29
Note_On_41_Vel_28
Time_Shift_4
Note_On_42_Vel_0
Time_Shift_2
Note_On_34_Vel_28
Time_Shift_136
Sustain_On
Time_Shift_898
Note_On_58_Vel_0
Time_Shift_2
Note_On_34_Vel_0
Note_On_46_Vel_0
Time_Shift_2
Note_On_41_Vel_0
Time_Shift_1
Note_On_53_Vel_0
Time_Shift_2
Sustain_Off
Time_Shift_3
Note_On_42_Vel_29
Time_Shift_1
Note_On_58_Vel_27
Time_Shift_1
Note_On_49_Vel_25
Time_Shift_1
Note_On_30_Vel_26
Note_On_54_Vel_32
Time_Shift_10
Note_On_30_Vel_0
Time_Shift_154
Sustain_On
Time_Shift_810
Note_On_42_Vel_0
Note_On_54_Vel_0
Time_Shift_2
Note_On_49_Vel_0
Time_Shift_3
Sustain_Off
Time_Shift_24
Note_On_61_Vel_60
Time_Shift_6
Note_On_58_Vel_0
Time_Shift_4
Note_On_53_Vel_40
Note_On_41_Vel_34
Time_Shift_6
Note_On_58_Vel_47
Time_Shift_1
Note_On_46_Vel_38
Time_Shift_1
Note_On_34_Vel_33
Time_Shift_134
Sustain_On
Time_Shift_860
Note_On_61_Vel_0
Time_Shift_10
Note_On_61_Vel_62
Time_Shift_5
Note_On_58_Vel_0
Time_Shift_8
Note_On_49_Vel_43
Time_Shift_1
Note_On_58_Vel_52
Time_Shift_3
Note_On_42_Vel_39
Time_Shift_3
Note_On_30_Vel_37
Time_Shift_3
Note_On_37_Vel_40
Time_Shift_1
Note_On_54_Vel_50
Time_Shift_4
Note_On_30_Vel_0
Time_Shift_19
Note_On_34_Vel_0
Time_Shift_1
Note_On_41_Vel_0
Time_Shift_1
Note_On_46_Vel_0
Time_Shift_1
Note_On_53_Vel_0
Time_Shift_2
Sustain_Off
Time_Shift_153
Sustain_On
Time_Shift_607
Note_On_61_Vel_0
Time_Shift_8
Note_On_61_Vel_60
Time_Shift_199
Note_On_61_Vel_0
Time_Shift_11
Note_On_61_Vel_65
Time_Shift_4
Note_On_58_Vel_0
Time_Shift_3
Note_On_49_Vel_0
Time_Shift_2
Note_On_37_Vel_0
Note_On_54_Vel_0
Sustain_Off
Time_Shift_5
Note_On_42_Vel_0
Time_Shift_1
Note_On_58_Vel_50
Time_Shift_2
Note_On_53_Vel_48
Time_Shift_3
Note_On_46_Vel_37
Time_Shift_1
Note_On_41_Vel_34
Time_Shift_3
Note_On_34_Vel_35
Time_Shift_111
Sustain_On
Time_Shift_852
Note_On_65_Vel_69
Time_Shift_8
Note_On_61_Vel_0
Time_Shift_8
Note_On_61_Vel_61
Time_Shift_5
Note_On_42_Vel_39
Time_Shift_2
Note_On_30_Vel_42
Time_Shift_5
Note_On_54_Vel_45
Time_Shift_1
Note_On_49_Vel_44
Time_Shift_2
Note_On_30_Vel_0
Time_Shift_1
Note_On_37_Vel_41
Time_Shift_3
Note_On_34_Vel_0
Note_On_58_Vel_0
Note_On_41_Vel_0
Time_Shift_2
Note_On_46_Vel_0
Time_Shift_1
Sustain_Off
Note_On_53_Vel_0
Time_Shift_147
Sustain_On
Time_Shift_620
Note_On_63_Vel_66
Time_Shift_9
Note_On_60_Vel_47
Time_Shift_146
Note_On_65_Vel_0
Time_Shift_5
Note_On_65_Vel_64
Time_Shift_34
Note_On_63_Vel_0
Time_Shift_5
Note_On_63_Vel_65
Time_Shift_6
Note_On_34_Vel_42
Time_Shift_2
Note_On_53_Vel_46
Time_Shift_3
Note_On_46_Vel_41
Note_On_41_Vel_41
Time_Shift_15
Note_On_49_Vel_0
Time_Shift_5
Note_On_37_Vel_0
Time_Shift_2
Note_On_54_Vel_0
Time_Shift_1
Note_On_65_Vel_0
Time_Shift_3
Note_On_42_Vel_0
Time_Shift_2
Sustain_Off
Time_Shift_10
Note_On_61_Vel_0
Time_Shift_115
Sustain_On
Time_Shift_576
Note_On_60_Vel_0
Time_Shift_19
Note_On_61_Vel_50
Time_Shift_15
Note_On_58_Vel_41
Time_Shift_181
Note_On_61_Vel_0
Time_Shift_11
Note_On_61_Vel_48
Time_Shift_12
Note_On_58_Vel_0
Time_Shift_4
Sustain_Off
Time_Shift_1
Note_On_42_Vel_37
Time_Shift_1
Note_On_46_Vel_0
Note_On_58_Vel_44
Time_Shift_1
Note_On_34_Vel_0
Time_Shift_1
Note_On_30_Vel_35
Time_Shift_1
Note_On_41_Vel_0
Time_Shift_1
Note_On_53_Vel_0
Time_Shift_1
Note_On_49_Vel_35
Time_Shift_2
Note_On_54_Vel_43
Time_Shift_2
Note_On_30_Vel_0
Note_On_63_Vel_0
Note_On_37_Vel_35
Time_Shift_200
Sustain_On
Time_Shift_545
Note_On_61_Vel_0
Time_Shift_8
Note_On_58_Vel_0
Time_Shift_3
Note_On_61_Vel_43
Time_Shift_2
Note_On_58_Vel_42
Time_Shift_215
Sustain_Off
Note_On_49_Vel_0
Time_Shift_1
Note_On_54_Vel_0
Time_Shift_2
Note_On_58_Vel_0
Note_On_61_Vel_0
Time_Shift_2
Note_On_42_Vel_0
Time_Shift_2
Note_On_37_Vel_0
Time_Shift_1
Note_On_61_Vel_48
Time_Shift_3
Note_On_58_Vel_38
Note_On_46_Vel_33
Time_Shift_6
Note_On_41_Vel_29
Time_Shift_7
Note_On_53_Vel_36
Time_Shift_163
Sustain_On
Time_Shift_814
Note_On_58_Vel_0
Time_Shift_9
Note_On_54_Vel_38
Time_Shift_2
Note_On_58_Vel_31
Time_Shift_1
Note_On_42_Vel_31
Time_Shift_3
Note_On_49_Vel_29
Time_Shift_2
Sustain_Off
Time_Shift_1
Note_On_30_Vel_31
Time_Shift_5
Note_On_37_Vel_30
Note_On_30_Vel_0
Time_Shift_1
Note_On_61_Vel_0
Time_Shift_1
Note_On_46_Vel_0
Note_On_41_Vel_0
Time_Shift_1
Note_On_53_Vel_0
Time_Shift_143
Sustain_On
Time_Shift_886
Note_On_70_Vel_74
Time_Shift_8
Note_On_61_Vel_52
Time_Shift_9
Note_On_46_Vel_41
Note_On_41_Vel_37
Note_On_34_Vel_41
Time_Shift_30
Sustain_Off
Time_Shift_3
Note_On_54_Vel_0
Time_Shift_3
Note_On_37_Vel_0
Time_Shift_29
Note_On_49_Vel_0
Time_Shift_7
Note_On_42_Vel_0
Time_Shift_85
Sustain_On
Time_Shift_376
Note_On_58_Vel_0
Time_Shift_14
Note_On_68_Vel_74
Time_Shift_339
Note_On_68_Vel_0
Time_Shift_9
Note_On_68_Vel_66
Time_Shift_37
Note_On_61_Vel_0
Time_Shift_7
Note_On_58_Vel_43
Time_Shift_4
Note_On_61_Vel_45
Time_Shift_14
Note_On_66_Vel_63
Time_Shift_10
Note_On_30_Vel_34
Time_Shift_1
Note_On_49_Vel_33
Note_On_42_Vel_37
Time_Shift_11
Note_On_30_Vel_0
Time_Shift_25
Sustain_Off
Time_Shift_1
Note_On_34_Vel_0
Time_Shift_1
Note_On_70_Vel_0
Note_On_41_Vel_0
Note_On_68_Vel_0
Time_Shift_1
Note_On_46_Vel_0
Time_Shift_141
Sustain_On
Time_Shift_557
Note_On_65_Vel_55
Time_Shift_211
Note_On_65_Vel_0
Time_Shift_4
Note_On_65_Vel_52
Time_Shift_3
Note_On_58_Vel_0
Time_Shift_8
Note_On_61_Vel_0
Time_Shift_4
Note_On_58_Vel_37
Note_On_53_Vel_30
Time_Shift_2
Note_On_41_Vel_28
Time_Shift_4
Note_On_46_Vel_34
Note_On_49_Vel_0
Note_On_66_Vel_0
Time_Shift_1
Note_On_61_Vel_41
Sustain_Off
Time_Shift_1
Note_On_42_Vel_0
Time_Shift_1
Note_On_34_Vel_30
Time_Shift_125
Sustain_On
Time_Shift_845
Note_On_58_Vel_0
Note_On_61_Vel_0
Time_Shift_10
Note_On_61_Vel_44
Time_Shift_1
Note_On_58_Vel_46
Note_On_42_Vel_33
Time_Shift_5
Note_On_49_Vel_30
Time_Shift_1
Note_On_30_Vel_31
Time_Shift_5
Note_On_37_Vel_30
Time_Shift_1
Note_On_30_Vel_0
Time_Shift_1
Note_On_54_Vel_32
Time_Shift_9
Sustain_Off
Time_Shift_11
Note_On_34_Vel_0
Time_Shift_4
Note_On_41_Vel_0
Time_Shift_2
Note_On_46_Vel_0
Time_Shift_19
Note_On_53_Vel_0
Note_On_65_Vel_0
Time_Shift_123
Sustain_On
Time_Shift_898
Note_On_54_Vel_0
Time_Shift_8
Note_On_61_Vel_0
Time_Shift_1
Note_On_70_Vel_76
Time_Shift_9
Note_On_61_Vel_53
Time_Shift_19
Note_On_34_Vel_43
Note_On_46_Vel_43
Time_Shift_1
Note_On_41_Vel_37
Note_On_37_Vel_0
Time_Shift_3
Note_On_42_Vel_0
Time_Shift_2
Sustain_Off
Time_Shift_4
Note_On_49_Vel_0
Time_Shift_130
Sustain_On
Time_Shift_345
Note_On_68_Vel_72
Time_Shift_377
Note_On_58_Vel_0
Note_On_68_Vel_0
Time_Shift_7
Note_On_68_Vel_61
Time_Shift_47
Note_On_61_Vel_0
Time_Shift_5
Note_On_58_Vel_41
Time_Shift_4
Note_On_61_Vel_42
Time_Shift_1
Note_On_49_Vel_38
Note_On_42_Vel_35
Time_Shift_1
Note_On_66_Vel_56
Time_Shift_2
Note_On_30_Vel_35
Note_On_37_Vel_38
Time_Shift_10
Note_On_30_Vel_0
Time_Shift_28
Note_On_34_Vel_0
Time_Shift_2
Sustain_Off
Note_On_70_Vel_0
Note_On_68_Vel_0
Time_Shift_2
Note_On_46_Vel_0
Note_On_41_Vel_0
Time_Shift_144
Sustain_On
Time_Shift_568
Note_On_65_Vel_51
Time_Shift_224
Note_On_65_Vel_0
Time_Shift_11
Note_On_65_Vel_39
Time_Shift_1
Sustain_Off
Time_Shift_2
Note_On_66_Vel_0
Time_Shift_1
Note_On_49_Vel_0
Note_On_37_Vel_0
Time_Shift_3
Note_On_42_Vel_0
Time_Shift_5
Note_On_58_Vel_0
Note_On_61_Vel_0
Time_Shift_4
Note_On_58_Vel_36
Time_Shift_5
Note_On_46_Vel_33
Note_On_41_Vel_25
Time_Shift_1
Note_On_61_Vel_36
Time_Shift_2
Note_On_34_Vel_28
Time_Shift_87
Sustain_On
Time_Shift_899
Note_On_61_Vel_0
Time_Shift_4
Note_On_61_Vel_37
Time_Shift_4
Note_On_58_Vel_0
Time_Shift_3
Note_On_42_Vel_30
Time_Shift_1
Note_On_49_Vel_28
Time_Shift_3
Note_On_30_Vel_28
Time_Shift_3
Note_On_58_Vel_35
Time_Shift_2
Note_On_54_Vel_26
Time_Shift_3
Note_On_30_Vel_0
Time_Shift_14
Sustain_Off
Time_Shift_11
Note_On_41_Vel_0
Time_Shift_2
Note_On_46_Vel_0
Time_Shift_11
Note_On_34_Vel_0
Time_Shift_16
Note_On_65_Vel_0
Time_Shift_153
Sustain_On
Time_Shift_891
Note_On_58_Vel_0
Time_Shift_4
Sustain_Off
Time_Shift_4
Note_On_54_Vel_0
Note_On_61_Vel_0
Time_Shift_2
Note_On_58_Vel_37
Time_Shift_1
Note_On_70_Vel_43
Time_Shift_1
Note_On_42_Vel_0
Note_On_41_Vel_33
Time_Shift_1
Note_On_53_Vel_36
Note_On_61_Vel_30
Time_Shift_3
Note_On_49_Vel_0
Time_Shift_1
Note_On_46_Vel_32
Time_Shift_3
Note_On_34_Vel_30
Time_Shift_118
Sustain_On
Time_Shift_24
Note_On_61_Vel_0
Time_Shift_852
Note_On_58_Vel_0
Time_Shift_7
Note_On_58_Vel_39
Time_Shift_16
Note_On_42_Vel_28
Time_Shift_3
Note_On_54_Vel_33
Note_On_49_Vel_28
Time_Shift_1
Sustain_Off
Time_Shift_1
Note_On_30_Vel_28
Time_Shift_1
Note_On_34_Vel_0
Note_On_70_Vel_0
Note_On_46_Vel_0
Time_Shift_2
Note_On_41_Vel_0
Time_Shift_1
Note_On_53_Vel_0
Time_Shift_4
Note_On_37_Vel_25
Time_Shift_2
Note_On_30_Vel_0
Time_Shift_131
Sustain_On
Time_Shift_614
Note_On_58_Vel_0
Time_Shift_11
Note_On_58_Vel_40
Time_Shift_235
Note_On_58_Vel_0
Time_Shift_10
Note_On_49_Vel_0
Time_Shift_1
Note_On_58_Vel_42
Note_On_37_Vel_0
Time_Shift_1
Sustain_Off
Note_On_54_Vel_0
Time_Shift_2
Note_On_53_Vel_39
Time_Shift_2
Note_On_41_Vel_30
Note_On_46_Vel_31
Time_Shift_2
Note_On_34_Vel_29
Time_Shift_13
Note_On_42_Vel_0
Time_Shift_123
Sustain_On
Time_Shift_856
Note_On_42_Vel_37
Time_Shift_1
Note_On_61_Vel_46
Time_Shift_1
Note_On_54_Vel_42
Time_Shift_5
Note_On_49_Vel_37
Time_Shift_7
Note_On_37_Vel_34
Time_Shift_2
Sustain_Off
Time_Shift_3
Note_On_46_Vel_0
Time_Shift_1
Note_On_58_Vel_0
Note_On_41_Vel_0
Time_Shift_1
Note_On_34_Vel_0
Time_Shift_1
Note_On_53_Vel_0
Time_Shift_143
Sustain_On
Time_Shift_680
Note_On_60_Vel_41
Time_Shift_150
Note_On_61_Vel_0
Time_Shift_5
Note_On_61_Vel_48
Time_Shift_59
Note_On_46_Vel_36
Time_Shift_4
Note_On_53_Vel_45
Time_Shift_2
Note_On_41_Vel_37
Time_Shift_1
Note_On_34_Vel_36
Time_Shift_18
Sustain_Off
Note_On_49_Vel_0
Time_Shift_2
Note_On_60_Vel_0
Time_Shift_2
Note_On_37_Vel_0
Note_On_54_Vel_0
Time_Shift_1
Note_On_42_Vel_0
Time_Shift_151
Sustain_On
Time_Shift_603
Note_On_58_Vel_34
Time_Shift_227
Note_On_58_Vel_0
Time_Shift_4
Sustain_Off
Time_Shift_1
Note_On_58_Vel_41
Time_Shift_7
Note_On_41_Vel_0
Time_Shift_1
Note_On_53_Vel_0
Time_Shift_2
Note_On_34_Vel_0
Time_Shift_10
Note_On_54_Vel_34
Time_Shift_1
Note_On_49_Vel_25
Time_Shift_6
Note_On_42_Vel_28
Time_Shift_2
Note_On_30_Vel_28
Time_Shift_4
Note_On_30_Vel_0
Time_Shift_146
Sustain_On
Time_Shift_638
Note_On_58_Vel_0
Time_Shift_6
Note_On_58_Vel_41
Time_Shift_239
Note_On_58_Vel_0
Time_Shift_8
Note_On_58_Vel_38
Time_Shift_6
Note_On_49_Vel_0
Time_Shift_1
Note_On_54_Vel_0
Time_Shift_1
Note_On_46_Vel_0
Time_Shift_1
Note_On_42_Vel_0
Time_Shift_2
Sustain_Off
Time_Shift_2
Note_On_46_Vel_33
Time_Shift_2
Note_On_61_Vel_0
Time_Shift_4
Note_On_53_Vel_39
Note_On_34_Vel_29
Time_Shift_1
Note_On_41_Vel_29
Time_Shift_164
Sustain_On
Time_Shift_880
Note_On_46_Vel_0
Note_On_34_Vel_0
Time_Shift_1
Note_On_41_Vel_0
Sustain_Off
Time_Shift_1
Note_On_53_Vel_0
Time_Shift_19
Note_On_42_Vel_31
Time_Shift_4
Note_On_54_Vel_37
Time_Shift_1
Note_On_49_Vel_33
Time_Shift_1
Note_On_30_Vel_32
Time_Shift_7
Note_On_30_Vel_0
Time_Shift_1
Note_On_37_Vel_31
Time_Shift_137
Sustain_On
Time_Shift_902
Note_On_42_Vel_0
Note_On_54_Vel_0
Sustain_Off
Note_On_49_Vel_0
Time_Shift_5
Note_On_37_Vel_0
Note_On_58_Vel_0
Time_Shift_48
Note_On_82_Vel_84
Time_Shift_7
Note_On_46_Vel_65
Time_Shift_1
Note_On_73_Vel_73
Note_On_70_Vel_77
Time_Shift_2
Note_On_41_Vel_55
Note_On_34_Vel_56
Time_Shift_49
Sustain_On
Time_Shift_466
Note_On_68_Vel_74
Time_Shift_1
Note_On_80_Vel_76
Time_Shift_232
Note_On_68_Vel_0
Time_Shift_11
Note_On_68_Vel_71
Time_Shift_51
Note_On_73_Vel_0
Time_Shift_6
Note_On_73_Vel_68
Time_Shift_40
Note_On_80_Vel_0
Time_Shift_4
Note_On_80_Vel_80
Time_Shift_82
Note_On_78_Vel_92
Time_Shift_12
Sustain_Off
Time_Shift_5
Note_On_49_Vel_57
Note_On_42_Vel_54
Time_Shift_1
Note_On_66_Vel_71
Note_On_41_Vel_0
Note_On_37_Vel_52
Time_Shift_1
Note_On_46_Vel_0
Note_On_30_Vel_46
Time_Shift_1
Note_On_82_Vel_0
Note_On_70_Vel_0
Time_Shift_4
Note_On_80_Vel_0
Time_Shift_5
Note_On_30_Vel_0
Time_Shift_8
Note_On_34_Vel_0
Note_On_68_Vel_0
Time_Shift_46
Sustain_On
Time_Shift_99
Note_On_73_Vel_0
Time_Shift_586
Note_On_77_Vel_70
Note_On_65_Vel_62
Time_Shift_213
Note_On_77_Vel_0
Time_Shift_1
Note_On_37_Vel_0
Note_On_49_Vel_0
Time_Shift_1
Note_On_42_Vel_0
Time_Shift_1
Note_On_78_Vel_0
Note_On_66_Vel_0
Time_Shift_1
Sustain_Off
Time_Shift_4
Note_On_65_Vel_0
Time_Shift_2
Note_On_46_Vel_51
Time_Shift_1
Note_On_77_Vel_67
Note_On_41_Vel_46
Time_Shift_1
Note_On_65_Vel_61
Time_Shift_1
Note_On_34_Vel_45
Time_Shift_4
Note_On_70_Vel_56
Time_Shift_1
Note_On_73_Vel_68
Time_Shift_90
Sustain_On
Time_Shift_944
Note_On_70_Vel_0
Time_Shift_3
Note_On_42_Vel_41
Time_Shift_1
Note_On_34_Vel_0
Note_On_61_Vel_49
Time_Shift_1
Note_On_46_Vel_0
Note_On_41_Vel_0
Note_On_73_Vel_0
Sustain_Off
Time_Shift_1
Note_On_65_Vel_0
Time_Shift_1
Note_On_70_Vel_54
Time_Shift_1
Note_On_77_Vel_0
Note_On_37_Vel_39
Note_On_49_Vel_41
Time_Shift_184
Sustain_On
Time_Shift_860
Note_On_61_Vel_0
Time_Shift_20
Note_On_49_Vel_0
Time_Shift_1
Note_On_37_Vel_0
Time_Shift_4
Sustain_Off
Time_Shift_14
Note_On_70_Vel_0
Time_Shift_3
Note_On_82_Vel_89
Time_Shift_3
Note_On_70_Vel_85
Note_On_73_Vel_81
Time_Shift_2
Note_On_42_Vel_0
Time_Shift_2
Note_On_46_Vel_70
Time_Shift_1
Note_On_41_Vel_63
Note_On_34_Vel_63
Time_Shift_4
Note_On_61_Vel_67
Time_Shift_85
Sustain_On
Time_Shift_53
Note_On_61_Vel_0
Time_Shift_357
Note_On_80_Vel_81
Time_Shift_1
Note_On_68_Vel_73
Time_Shift_249
Note_On_68_Vel_0
Time_Shift_7
Note_On_68_Vel_61
Time_Shift_62
Note_On_73_Vel_0
Time_Shift_10
Note_On_73_Vel_64
Time_Shift_29
Note_On_80_Vel_0
Time_Shift_9
Note_On_80_Vel_73
Time_Shift_94
Note_On_78_Vel_90
Time_Shift_8
Note_On_42_Vel_54
Time_Shift_6
Note_On_66_Vel_68
Note_On_49_Vel_54
Time_Shift_6
Note_On_37_Vel_52
Time_Shift_7
Note_On_34_Vel_0
Time_Shift_4
Sustain_Off
Note_On_41_Vel_0
Note_On_82_Vel_0
Time_Shift_1
Note_On_70_Vel_0
Note_On_68_Vel_0
Time_Shift_1
Note_On_46_Vel_0
Note_On_80_Vel_0
Time_Shift_48
Note_On_73_Vel_0
Time_Shift_54
Sustain_On
Time_Shift_636
Note_On_77_Vel_69
Time_Shift_3
Note_On_65_Vel_62
Time_Shift_229
Note_On_65_Vel_0
Note_On_77_Vel_0
Time_Shift_3
Note_On_49_Vel_0
Time_Shift_1
Note_On_65_Vel_57
Time_Shift_1
Note_On_37_Vel_0
Note_On_77_Vel_68
Time_Shift_2
Note_On_42_Vel_0
Time_Shift_1
Note_On_66_Vel_0
Time_Shift_2
Note_On_78_Vel_0
Sustain_Off
Time_Shift_3
Note_On_53_Vel_38
Time_Shift_1
Note_On_41_Vel_40
Time_Shift_2
Note_On_46_Vel_41
Time_Shift_2
Note_On_70_Vel_48
Time_Shift_3
Note_On_73_Vel_57
Time_Shift_109
Sustain_On
Time_Shift_123
Note_On_53_Vel_0
Time_Shift_837
Note_On_70_Vel_0
Note_On_73_Vel_0
Time_Shift_3
Note_On_66_Vel_35
Note_On_61_Vel_45
Time_Shift_2
Note_On_73_Vel_51
Time_Shift_3
Note_On_66_Vel_0
Time_Shift_2
Note_On_70_Vel_55
Time_Shift_2
Note_On_30_Vel_33
Note_On_42_Vel_32
Time_Shift_4
Note_On_30_Vel_0
Time_Shift_1
Note_On_49_Vel_31
Time_Shift_2
Note_On_37_Vel_33
Time_Shift_9
Sustain_Off
Time_Shift_1
Note_On_41_Vel_0
Note_On_46_Vel_0
Note_On_65_Vel_0
Time_Shift_3
Note_On_77_Vel_0
Time_Shift_45
Note_On_73_Vel_0
Time_Shift_123
Sustain_On
Time_Shift_905
Sustain_Off
Time_Shift_1
Note_On_70_Vel_0
Time_Shift_8
Note_On_49_Vel_0
Note_On_61_Vel_0
Time_Shift_1
Note_On_70_Vel_64
Time_Shift_7
Note_On_65_Vel_50
Time_Shift_2
Note_On_46_Vel_40
Time_Shift_1
Note_On_34_Vel_35
Time_Shift_1
Note_On_41_Vel_35
Time_Shift_1
Note_On_58_Vel_38
Time_Shift_2
Note_On_37_Vel_0
Time_Shift_23
Note_On_42_Vel_0
Time_Shift_138
Sustain_On
Time_Shift_861
Note_On_70_Vel_0
Time_Shift_4
Note_On_70_Vel_70
Time_Shift_10
Note_On_66_Vel_56
Time_Shift_1
Note_On_58_Vel_0
Time_Shift_6
Note_On_58_Vel_45
Time_Shift_7
Note_On_42_Vel_35
Time_Shift_5
Note_On_49_Vel_39
Time_Shift_6
Sustain_Off
Time_Shift_11
Note_On_65_Vel_0
Time_Shift_2
Note_On_46_Vel_0
Time_Shift_4
Note_On_41_Vel_0
Time_Shift_97
Note_On_34_Vel_0
Time_Shift_46
Sustain_On
Time_Shift_607
Note_On_58_Vel_0
Note_On_70_Vel_0
Time_Shift_4
Note_On_70_Vel_68
Time_Shift_7
Note_On_58_Vel_48
Time_Shift_212
Note_On_70_Vel_0
Time_Shift_5
Note_On_70_Vel_77
Time_Shift_6
Note_On_34_Vel_36
Time_Shift_1
Note_On_65_Vel_58
Time_Shift_2
Note_On_53_Vel_40
Time_Shift_1
Note_On_46_Vel_40
Note_On_58_Vel_0
Time_Shift_5
Note_On_41_Vel_33
Note_On_58_Vel_44
Time_Shift_3
Note_On_53_Vel_0
Time_Shift_3
Note_On_61_Vel_39
Time_Shift_5
Sustain_Off
Time_Shift_19
Note_On_49_Vel_0
Time_Shift_6
Note_On_66_Vel_0
Time_Shift_36
Note_On_42_Vel_0
Time_Shift_77
Sustain_On
Time_Shift_138
Note_On_61_Vel_0
Time_Shift_718
Note_On_73_Vel_72
Time_Shift_5
Note_On_66_Vel_60
Time_Shift_4
Note_On_61_Vel_52
Time_Shift_3
Note_On_70_Vel_0
Time_Shift_4
Note_On_70_Vel_49
Note_On_54_Vel_47
Time_Shift_8
Note_On_49_Vel_44
Note_On_42_Vel_41
Time_Shift_3
Note_On_30_Vel_40
Time_Shift_1
Sustain_Off
Time_Shift_3
Note_On_37_Vel_41
Time_Shift_4
Note_On_30_Vel_0
Time_Shift_122
Sustain_On
Time_Shift_88
Note_On_46_Vel_0
Note_On_41_Vel_0
Time_Shift_12
Note_On_65_Vel_0
Time_Shift_8
Note_On_34_Vel_0
Time_Shift_169
Note_On_58_Vel_0
Time_Shift_399
Note_On_72_Vel_63
Time_Shift_4
Note_On_60_Vel_59
Time_Shift_211
Note_On_72_Vel_0
Time_Shift_7
Note_On_72_Vel_68
Time_Shift_1
Note_On_60_Vel_0
Time_Shift_9
Note_On_60_Vel_57
Time_Shift_4
Note_On_65_Vel_56
Note_On_46_Vel_45
Time_Shift_4
Note_On_34_Vel_41
Note_On_41_Vel_41
Time_Shift_9
Sustain_Off
Time_Shift_1
Note_On_49_Vel_0
Time_Shift_1
Note_On_66_Vel_0
Note_On_73_Vel_0
Note_On_37_Vel_0
Time_Shift_3
Note_On_42_Vel_0
Time_Shift_7
Note_On_54_Vel_0
Note_On_61_Vel_0
Time_Shift_131
Sustain_On
Time_Shift_614
Note_On_70_Vel_0
Time_Shift_11
Note_On_70_Vel_66
Time_Shift_7
Note_On_58_Vel_48
Time_Shift_213
Note_On_70_Vel_0
Time_Shift_7
Note_On_58_Vel_0
Time_Shift_1
Note_On_70_Vel_73
Time_Shift_4
Note_On_58_Vel_54
Time_Shift_5
Note_On_49_Vel_42
Note_On_42_Vel_44
Time_Shift_1
Note_On_66_Vel_59
Time_Shift_2
Note_On_65_Vel_0
Time_Shift_3
Note_On_30_Vel_42
Time_Shift_1
Note_On_72_Vel_0
Time_Shift_1
Note_On_41_Vel_0
Sustain_Off
Note_On_46_Vel_0
Time_Shift_1
Note_On_37_Vel_43
Time_Shift_4
Note_On_30_Vel_0
Note_On_34_Vel_0
Time_Shift_16
Note_On_60_Vel_0
Time_Shift_138
Sustain_On
Time_Shift_684
Note_On_70_Vel_0
Time_Shift_7
Note_On_58_Vel_0
Time_Shift_3
Note_On_70_Vel_67
Time_Shift_4
Note_On_58_Vel_47
Time_Shift_216
Note_On_70_Vel_0
Time_Shift_8
Note_On_58_Vel_0
Time_Shift_2
Note_On_70_Vel_72
Time_Shift_3
Note_On_46_Vel_42
Time_Shift_3
Note_On_65_Vel_55
Time_Shift_3
Note_On_58_Vel_45
Time_Shift_1
Note_On_41_Vel_40
Time_Shift_7
Note_On_37_Vel_0
Note_On_49_Vel_0
Note_On_66_Vel_0
Time_Shift_4
Sustain_Off
Time_Shift_1
Note_On_42_Vel_0
Time_Shift_152
Sustain_On
Time_Shift_963
Note_On_41_Vel_0
Time_Shift_1
Note_On_65_Vel_0
Time_Shift_1
Note_On_46_Vel_0
Time_Shift_4
Sustain_Off
Time_Shift_7
Note_On_70_Vel_0
Time_Shift_7
Note_On_58_Vel_0
Time_Shift_37
Note_On_72_Vel_81
Time_Shift_5
Note_On_32_Vel_70
Note_On_44_Vel_76
Note_On_60_Vel_73
Time_Shift_2
Note_On_66_Vel_71
Time_Shift_1
Note_On_68_Vel_72
Time_Shift_71
Sustain_On
Time_Shift_1064
Sustain_Off
Time_Shift_13
Note_On_37_Vel_72
Time_Shift_1
Note_On_73_Vel_82
Note_On_25_Vel_76
Time_Shift_5
Note_On_61_Vel_76
Time_Shift_2
Note_On_65_Vel_69
Time_Shift_2
Note_On_66_Vel_0
Time_Shift_2
Note_On_60_Vel_0
Time_Shift_32
Note_On_72_Vel_0
Time_Shift_54
Sustain_On
Time_Shift_338
Note_On_32_Vel_0
Time_Shift_599
Note_On_61_Vel_0
Note_On_65_Vel_0
Note_On_73_Vel_0
Time_Shift_3
Note_On_77_Vel_99
Time_Shift_4
Note_On_73_Vel_85
Time_Shift_1
Note_On_65_Vel_81
Time_Shift_2
Note_On_61_Vel_79
Time_Shift_1
Note_On_56_Vel_75
Time_Shift_1
Note_On_49_Vel_68
Time_Shift_733
Note_On_68_Vel_0
Time_Shift_12
Note_On_63_Vel_72
Time_Shift_7
Note_On_66_Vel_90
Time_Shift_6
Note_On_78_Vel_94
Time_Shift_13
Note_On_49_Vel_0
Time_Shift_7
Sustain_Off
Time_Shift_1
Note_On_44_Vel_0
Note_On_49_Vel_72
Time_Shift_23
Sustain_On
Time_Shift_46
Note_On_56_Vel_0
Time_Shift_5
Note_On_56_Vel_79
Time_Shift_87
Note_On_73_Vel_0
Time_Shift_5
Note_On_80_Vel_101
Time_Shift_3
Note_On_65_Vel_0
Time_Shift_2
Note_On_68_Vel_99
Time_Shift_1
Note_On_73_Vel_81
Time_Shift_1
Note_On_65_Vel_77
Time_Shift_6
Note_On_77_Vel_0
Time_Shift_688
Note_On_66_Vel_0
Time_Shift_5
Note_On_82_Vel_101
Time_Shift_1
Note_On_70_Vel_101
Note_On_66_Vel_83
Time_Shift_148
Note_On_25_Vel_0
Time_Shift_1
Note_On_70_Vel_0
Note_On_65_Vel_0
Note_On_61_Vel_0
Note_On_68_Vel_0
Note_On_37_Vel_0
Note_On_56_Vel_0
Note_On_49_Vel_0
Time_Shift_1
Note_On_78_Vel_0
Note_On_80_Vel_0
Note_On_82_Vel_0
Sustain_Off
Time_Shift_1
Note_On_66_Vel_0
Time_Shift_5
Note_On_63_Vel_0
Time_Shift_7
Note_On_73_Vel_0
Time_Shift_17
Note_On_84_Vel_100
Time_Shift_9
Note_On_80_Vel_92
Time_Shift_1
Note_On_72_Vel_94
Time_Shift_2
Note_On_68_Vel_94
Time_Shift_2
Note_On_75_Vel_84
Time_Shift_3
Note_On_56_Vel_85
Time_Shift_1
Note_On_63_Vel_76
Time_Shift_27
Sustain_On
Time_Shift_676
Note_On_85_Vel_99
Time_Shift_1
Note_On_65_Vel_87
Time_Shift_1
Note_On_73_Vel_97
Time_Shift_157
Note_On_80_Vel_0
Note_On_72_Vel_0
Time_Shift_1
Note_On_84_Vel_0
Time_Shift_1
Note_On_73_Vel_0
Note_On_63_Vel_0
Time_Shift_1
Note_On_56_Vel_0
Note_On_85_Vel_0
Time_Shift_1
Note_On_65_Vel_0
Time_Shift_1
Sustain_Off
Time_Shift_5
Note_On_68_Vel_0
Time_Shift_7
Note_On_75_Vel_0
Time_Shift_35
Note_On_80_Vel_101
Note_On_89_Vel_105
Time_Shift_1
Note_On_84_Vel_97
Time_Shift_1
Note_On_44_Vel_96
Note_On_77_Vel_102
Time_Shift_3
Note_On_32_Vel_84
Time_Shift_14
Sustain_On
Time_Shift_949
Note_On_72_Vel_102
Time_Shift_2
Note_On_66_Vel_93
Time_Shift_1
Note_On_63_Vel_96
Time_Shift_722
Note_On_66_Vel_0
Note_On_72_Vel_0
Time_Shift_4
Note_On_61_Vel_83
Time_Shift_1
Note_On_72_Vel_79
Note_On_70_Vel_95
Time_Shift_3
Note_On_66_Vel_79
Time_Shift_178
Sustain_Off
Time_Shift_6
Note_On_61_Vel_0
Note_On_66_Vel_0
Note_On_70_Vel_0
Time_Shift_4
Note_On_63_Vel_0
Time_Shift_1
Note_On_77_Vel_0
Time_Shift_3
Note_On_70_Vel_96
Note_On_80_Vel_0
Note_On_84_Vel_0
Time_Shift_2
Note_On_87_Vel_99
Time_Shift_1
Note_On_66_Vel_80
Time_Shift_1
Note_On_61_Vel_80
Note_On_80_Vel_88
Time_Shift_1
Note_On_75_Vel_95
Time_Shift_1
Note_On_84_Vel_87
Time_Shift_25
Sustain_On
Time_Shift_353
Note_On_72_Vel_0
Time_Shift_330
Note_On_66_Vel_0
Time_Shift_5
Note_On_68_Vel_89
Time_Shift_1
Note_On_60_Vel_80
Time_Shift_1
Note_On_66_Vel_75
Time_Shift_178
Note_On_68_Vel_0
Time_Shift_7
Note_On_60_Vel_0
Note_On_66_Vel_0
Time_Shift_4
Note_On_68_Vel_82
Note_On_66_Vel_83
Time_Shift_1
Note_On_60_Vel_73
Time_Shift_678
Note_On_57_Vel_83
Time_Shift_1
Note_On_66_Vel_0
Note_On_75_Vel_0
Note_On_63_Vel_77
Time_Shift_4
Note_On_66_Vel_88
Note_On_78_Vel_91
Time_Shift_1
Note_On_75_Vel_82
Time_Shift_2
Note_On_72_Vel_78
Time_Shift_146
Note_On_32_Vel_0
Time_Shift_4
Note_On_70_Vel_0
Note_On_61_Vel_0
Note_On_68_Vel_0
Time_Shift_1
Note_On_60_Vel_0
Note_On_80_Vel_0
Note_On_66_Vel_0
Note_On_57_Vel_0
Sustain_Off
Note_On_87_Vel_0
Note_On_78_Vel_0
Note_On_75_Vel_0
Note_On_84_Vel_0
Time_Shift_3
Note_On_89_Vel_0
Time_Shift_8
Note_On_44_Vel_0
Time_Shift_7
Note_On_63_Vel_0
Note_On_72_Vel_0
Time_Shift_15
Note_On_65_Vel_102
Time_Shift_2
Note_On_77_Vel_100
Time_Shift_1
Note_On_75_Vel_87
Time_Shift_1
Note_On_46_Vel_97
Time_Shift_2
Note_On_34_Vel_80
Time_Shift_1
Note_On_70_Vel_88
Time_Shift_24
Sustain_On
Time_Shift_876
Note_On_77_Vel_0
Time_Shift_8
Note_On_65_Vel_0
Note_On_70_Vel_0
Time_Shift_2
Note_On_77_Vel_98
Time_Shift_2
Note_On_65_Vel_87
Time_Shift_1
Note_On_70_Vel_91
Time_Shift_3
Note_On_73_Vel_87
Note_On_53_Vel_79
Time_Shift_2
Note_On_61_Vel_79
Note_On_58_Vel_82
Time_Shift_721
Note_On_79_Vel_96
Note_On_67_Vel_102
Time_Shift_164
Note_On_61_Vel_0
Note_On_70_Vel_0
Note_On_75_Vel_0
Note_On_67_Vel_0
Sustain_Off
Note_On_65_Vel_0
Note_On_58_Vel_0
Time_Shift_1
Note_On_79_Vel_0
Time_Shift_1
Note_On_53_Vel_0
Time_Shift_1
Note_On_34_Vel_0
Note_On_77_Vel_0
Time_Shift_7
Note_On_37_Vel_91
Time_Shift_1
Note_On_81_Vel_99
Note_On_46_Vel_0
Note_On_73_Vel_0
Time_Shift_1
Note_On_69_Vel_102
Note_On_49_Vel_98
Time_Shift_2
Note_On_77_Vel_96
Time_Shift_2
Note_On_73_Vel_84
Time_Shift_41
Sustain_On
Time_Shift_664
Note_On_82_Vel_101
Note_On_70_Vel_102
Time_Shift_181
Note_On_37_Vel_0
Note_On_77_Vel_0
Time_Shift_1
Note_On_72_Vel_100
Time_Shift_2
Note_On_84_Vel_100
Time_Shift_1
Note_On_65_Vel_98
Time_Shift_1
Note_On_77_Vel_93
Time_Shift_2
Note_On_61_Vel_89
Time_Shift_1
Note_On_58_Vel_94
Note_On_53_Vel_90
Time_Shift_6
Sustain_Off
Time_Shift_1
Note_On_49_Vel_0
Note_On_69_Vel_0
Note_On_73_Vel_0
Time_Shift_2
Note_On_81_Vel_0
Note_On_70_Vel_0
Time_Shift_52
Sustain_On
Time_Shift_695
Note_On_85_Vel_99
Time_Shift_3
Note_On_73_Vel_97
Time_Shift_110
Note_On_29_Vel_78
Time_Shift_57
Note_On_70_Vel_92
Time_Shift_17
Note_On_72_Vel_0
Note_On_53_Vel_0
Time_Shift_1
Note_On_58_Vel_0
Time_Shift_1
Note_On_84_Vel_0
Note_On_73_Vel_0
Note_On_61_Vel_0
Time_Shift_1
Note_On_65_Vel_0
Time_Shift_1
Sustain_Off
Note_On_85_Vel_0
Time_Shift_12
Note_On_82_Vel_0
Time_Shift_8
Note_On_77_Vel_0
Time_Shift_27
Note_On_76_Vel_87
Time_Shift_12
Sustain_On
Time_Shift_4
Note_On_79_Vel_86
Time_Shift_19
Note_On_29_Vel_0
Time_Shift_6
Note_On_41_Vel_86
Time_Shift_5
Note_On_29_Vel_75
Time_Shift_4
Note_On_85_Vel_98
Time_Shift_8
Note_On_70_Vel_0
Time_Shift_1001
Note_On_67_Vel_92
Time_Shift_1
Note_On_53_Vel_80
Note_On_61_Vel_84
Time_Shift_3
Note_On_58_Vel_83
Time_Shift_984
Note_On_29_Vel_0
Time_Shift_19
Note_On_41_Vel_0
Time_Shift_1
Note_On_84_Vel_81
Time_Shift_1
Note_On_76_Vel_0
Note_On_85_Vel_0
Time_Shift_1
Note_On_58_Vel_0
Time_Shift_1
Note_On_53_Vel_0
Note_On_67_Vel_0
Note_On_61_Vel_0
Time_Shift_1
Note_On_79_Vel_0
Sustain_Off
Time_Shift_1
Note_On_72_Vel_71
Time_Shift_1
Note_On_77_Vel_70
Time_Shift_1
Note_On_60_Vel_61
Time_Shift_1
Note_On_57_Vel_65
Note_On_53_Vel_57
Time_Shift_118
Sustain_On
Time_Shift_883
Note_On_53_Vel_0
Time_Shift_6
Note_On_53_Vel_83
Time_Shift_32
Note_On_72_Vel_0
Time_Shift_2
Note_On_84_Vel_0
Time_Shift_1
Note_On_77_Vel_0
Note_On_57_Vel_0
Time_Shift_1
Note_On_60_Vel_0
Time_Shift_3
Sustain_Off
Time_Shift_132
Sustain_On
Time_Shift_748
Note_On_43_Vel_55
Time_Shift_58
Note_On_53_Vel_0
Time_Shift_15
Note_On_44_Vel_66
Time_Shift_71
Note_On_46_Vel_67
Time_Shift_13
Note_On_43_Vel_0
Time_Shift_13
Sustain_Off
Time_Shift_1
Note_On_68_Vel_74
Time_Shift_1
Note_On_60_Vel_63
Time_Shift_2
Note_On_65_Vel_63
Note_On_56_Vel_65
Time_Shift_76
Note_On_44_Vel_0
Time_Shift_5
Note_On_44_Vel_66
Time_Shift_10
Sustain_On
Time_Shift_108
Note_On_46_Vel_0
Time_Shift_10
Note_On_46_Vel_50
Time_Shift_74
Note_On_44_Vel_0
Time_Shift_12
Note_On_44_Vel_49
Time_Shift_50
Note_On_46_Vel_0
Time_Shift_6
Note_On_46_Vel_50
Time_Shift_47
Note_On_44_Vel_0
Time_Shift_9
Note_On_44_Vel_62
Time_Shift_76
Note_On_46_Vel_0
Time_Shift_7
Note_On_46_Vel_53
Time_Shift_70
Note_On_44_Vel_0
Time_Shift_10
Note_On_44_Vel_48
Time_Shift_36
Note_On_46_Vel_0
Time_Shift_10
Note_On_46_Vel_56
Time_Shift_74
Note_On_44_Vel_0
Time_Shift_10
Note_On_44_Vel_61
Time_Shift_44
Note_On_46_Vel_0
Time_Shift_11
Note_On_46_Vel_51
Time_Shift_66
Note_On_44_Vel_0
Time_Shift_8
Note_On_44_Vel_53
Time_Shift_46
Note_On_46_Vel_0
Time_Shift_10
Note_On_46_Vel_48
Time_Shift_51
Note_On_68_Vel_0
Time_Shift_8
Note_On_68_Vel_75
Time_Shift_11
Note_On_63_Vel_70
Time_Shift_4
Note_On_44_Vel_0
Note_On_60_Vel_0
Time_Shift_6
Note_On_60_Vel_52
Time_Shift_3
Note_On_44_Vel_56
Time_Shift_2
Note_On_54_Vel_50
Time_Shift_81
Note_On_46_Vel_0
Time_Shift_8
Note_On_46_Vel_38
Time_Shift_46
Note_On_44_Vel_0
Time_Shift_5
Note_On_44_Vel_51
Time_Shift_110
Note_On_46_Vel_0
Time_Shift_11
Note_On_46_Vel_40
Time_Shift_12
Note_On_44_Vel_0
Time_Shift_11
Note_On_44_Vel_52
Time_Shift_120
Note_On_44_Vel_0
Time_Shift_11
Note_On_44_Vel_54
Time_Shift_142
Note_On_46_Vel_0
Time_Shift_7
Note_On_46_Vel_43
Time_Shift_132
Note_On_44_Vel_0
Time_Shift_6
Note_On_44_Vel_53
Time_Shift_117
Note_On_43_Vel_50
Time_Shift_76
Note_On_44_Vel_0
Time_Shift_4
Note_On_44_Vel_51
Time_Shift_127
Note_On_56_Vel_0
Time_Shift_6
Note_On_56_Vel_50
Time_Shift_13
Note_On_53_Vel_47
Time_Shift_1
Note_On_49_Vel_44
Time_Shift_1
Note_On_68_Vel_0
Note_On_65_Vel_0
Note_On_63_Vel_0
Note_On_46_Vel_0
Time_Shift_1
Note_On_43_Vel_0
Time_Shift_2
Sustain_Off
Time_Shift_2
Note_On_61_Vel_50
Time_Shift_12
Note_On_54_Vel_0
Note_On_60_Vel_0
Time_Shift_223
Sustain_On
Time_Shift_92
Note_On_44_Vel_0
Time_Shift_799
Note_On_49_Vel_0
Time_Shift_5
Note_On_49_Vel_60
Time_Shift_45
Sustain_Off
Time_Shift_2
Note_On_61_Vel_0
Note_On_53_Vel_0
Time_Shift_2
Note_On_56_Vel_0
Time_Shift_184
Sustain_On
Time_Shift_723
Note_On_40_Vel_37
Time_Shift_81
Note_On_41_Vel_45
Time_Shift_47
Note_On_65_Vel_55
Time_Shift_7
Sustain_Off
Time_Shift_7
Note_On_61_Vel_50
Time_Shift_4
Note_On_40_Vel_0
Time_Shift_2
Note_On_57_Vel_50
Time_Shift_2
Note_On_51_Vel_38
Time_Shift_10
Note_On_49_Vel_0
Time_Shift_46
Sustain_On
Time_Shift_115
Note_On_41_Vel_0
Time_Shift_5
Note_On_41_Vel_33
Time_Shift_106
Note_On_42_Vel_47
Time_Shift_66
Note_On_41_Vel_0
Time_Shift_11
Note_On_41_Vel_33
Time_Shift_97
Note_On_42_Vel_0
Time_Shift_4
Note_On_42_Vel_40
Time_Shift_180
Note_On_42_Vel_0
Time_Shift_5
Note_On_42_Vel_34
Time_Shift_56
Note_On_41_Vel_0
Time_Shift_8
Note_On_41_Vel_42
Time_Shift_77
Note_On_42_Vel_0
Time_Shift_7
Note_On_42_Vel_48
Time_Shift_85
Note_On_41_Vel_0
Time_Shift_7
Note_On_41_Vel_38
Time_Shift_62
Note_On_65_Vel_0
Time_Shift_11
Note_On_65_Vel_56
Time_Shift_12
Note_On_57_Vel_0
Time_Shift_4
Note_On_60_Vel_52
Time_Shift_4
Note_On_41_Vel_0
Time_Shift_1
Note_On_57_Vel_47
Time_Shift_4
Note_On_41_Vel_42
Time_Shift_3
Note_On_51_Vel_0
Time_Shift_8
Note_On_51_Vel_32
Time_Shift_24
Sustain_Off
Time_Shift_6
Sustain_On
Time_Shift_77
Note_On_41_Vel_0
Time_Shift_5
Note_On_41_Vel_33
Time_Shift_64
Note_On_42_Vel_0
Time_Shift_5
Note_On_42_Vel_49
Time_Shift_79
Note_On_41_Vel_0
Time_Shift_4
Note_On_41_Vel_37
Time_Shift_112
Note_On_41_Vel_0
Time_Shift_5
Note_On_41_Vel_25
Time_Shift_125
Note_On_42_Vel_0
Time_Shift_9
Note_On_42_Vel_45
Time_Shift_99
Note_On_41_Vel_0
Time_Shift_6
Note_On_41_Vel_30
Time_Shift_165
Note_On_40_Vel_41
Time_Shift_128
Note_On_41_Vel_0
Time_Shift_10
Note_On_41_Vel_39
Time_Shift_55
Note_On_41_Vel_0
Time_Shift_12
Note_On_42_Vel_0
Time_Shift_8
Note_On_51_Vel_0
Time_Shift_2
Sustain_Off
Time_Shift_5
Note_On_57_Vel_0
Note_On_60_Vel_0
Note_On_65_Vel_0
Time_Shift_18
Note_On_58_Vel_50
Note_On_49_Vel_41
Time_Shift_21
Note_On_61_Vel_0
Time_Shift_9
Note_On_42_Vel_36
Time_Shift_2
Note_On_54_Vel_30
Time_Shift_50
Note_On_40_Vel_0
Time_Shift_146
Note_On_42_Vel_0
Time_Shift_10
Note_On_42_Vel_16
Time_Shift_121
Sustain_On
Time_Shift_630
Note_On_41_Vel_35
Time_Shift_27
Sustain_Off
Time_Shift_72
Note_On_42_Vel_0
Time_Shift_3
Note_On_49_Vel_0
Time_Shift_5
Note_On_54_Vel_0
Time_Shift_192
Sustain_On
Time_Shift_267
Note_On_37_Vel_34
Time_Shift_547
Note_On_58_Vel_0
Time_Shift_6
Note_On_58_Vel_41
Time_Shift_21
Note_On_46_Vel_33
Time_Shift_4
Note_On_34_Vel_30
Time_Shift_2
Note_On_53_Vel_40
Time_Shift_3
Note_On_41_Vel_0
Time_Shift_1
Note_On_37_Vel_0
Time_Shift_4
Sustain_Off
Time_Shift_128
Sustain_On
Time_Shift_904
Note_On_42_Vel_33
Time_Shift_2
Note_On_58_Vel_0
Time_Shift_5
Note_On_58_Vel_39
Time_Shift_14
Note_On_49_Vel_31
Time_Shift_1
Note_On_54_Vel_35
Time_Shift_28
Sustain_Off
Time_Shift_2
Note_On_34_Vel_0
Note_On_53_Vel_0
Time_Shift_111
Sustain_On
Time_Shift_676
Note_On_58_Vel_0
Time_Shift_5
Note_On_58_Vel_36
Time_Shift_210
Note_On_58_Vel_0
Time_Shift_10
Note_On_58_Vel_40
Time_Shift_13
Note_On_46_Vel_0
Time_Shift_7
Note_On_46_Vel_29
Time_Shift_5
Note_On_34_Vel_28
Time_Shift_9
Note_On_53_Vel_37
Time_Shift_3
Note_On_41_Vel_29
Time_Shift_13
Note_On_54_Vel_0
Time_Shift_2
Note_On_49_Vel_0
Time_Shift_1
Note_On_42_Vel_0
Time_Shift_1
Sustain_Off
Time_Shift_144
Sustain_On
Time_Shift_910
Note_On_61_Vel_46
Time_Shift_6
Note_On_49_Vel_33
Time_Shift_2
Note_On_37_Vel_32
Time_Shift_1
Note_On_42_Vel_33
Time_Shift_2
Note_On_54_Vel_37
Time_Shift_13
Sustain_Off
Time_Shift_7
Note_On_34_Vel_0
Note_On_46_Vel_0
Note_On_41_Vel_0
Time_Shift_2
Note_On_53_Vel_0
Time_Shift_124
Sustain_On
Time_Shift_338
Note_On_58_Vel_0
Time_Shift_413
Note_On_60_Vel_43
Time_Shift_163
Note_On_61_Vel_0
Time_Shift_9
Note_On_61_Vel_46
Time_Shift_49
Note_On_53_Vel_34
Time_Shift_2
Note_On_46_Vel_34
Time_Shift_3
Note_On_41_Vel_30
Time_Shift_2
Note_On_34_Vel_34
Time_Shift_43
Note_On_60_Vel_0
Time_Shift_1
Note_On_49_Vel_0
Note_On_61_Vel_0
Time_Shift_1
Note_On_37_Vel_0
Note_On_54_Vel_0
Sustain_Off
Note_On_42_Vel_0
Time_Shift_151
Sustain_On
Time_Shift_620
Note_On_58_Vel_38
Time_Shift_240
Note_On_58_Vel_0
Time_Shift_4
Sustain_Off
Time_Shift_3
Note_On_34_Vel_0
Note_On_46_Vel_0
Time_Shift_1
Note_On_58_Vel_40
Time_Shift_3
Note_On_41_Vel_0
Note_On_53_Vel_0
Time_Shift_2
Note_On_49_Vel_27
Time_Shift_1
Note_On_42_Vel_30
Time_Shift_3
Note_On_54_Vel_34
Time_Shift_2
Note_On_30_Vel_29
Note_On_37_Vel_30
Time_Shift_4
Note_On_30_Vel_0
Time_Shift_162
Sustain_On
Time_Shift_660
Note_On_58_Vel_0
Time_Shift_7
Note_On_58_Vel_40
Time_Shift_231
Note_On_58_Vel_0
Time_Shift_12
Note_On_58_Vel_36
Time_Shift_14
Note_On_53_Vel_34
Time_Shift_1
Note_On_46_Vel_28
Time_Shift_1
Note_On_41_Vel_30
Time_Shift_4
Sustain_Off
Time_Shift_2
Note_On_34_Vel_28
Time_Shift_2
Note_On_37_Vel_0
Time_Shift_1
Note_On_49_Vel_0
Time_Shift_3
Note_On_54_Vel_0
Time_Shift_29
Note_On_42_Vel_0
Time_Shift_139
Sustain_On
Time_Shift_1043
Sustain_Off
Time_Shift_1
Note_On_53_Vel_0
Time_Shift_1
Note_On_41_Vel_0
Note_On_46_Vel_0
Time_Shift_1
Note_On_34_Vel_0
Time_Shift_14
Note_On_58_Vel_0
Time_Shift_34
Note_On_61_Vel_79
Time_Shift_8
Note_On_52_Vel_63
Time_Shift_1
Note_On_45_Vel_64
Note_On_33_Vel_63
Note_On_57_Vel_66
Time_Shift_5
Note_On_55_Vel_61
Time_Shift_74
Sustain_On
Time_Shift_788
Note_On_63_Vel_86
Time_Shift_1
Note_On_44_Vel_74
Note_On_32_Vel_67
Time_Shift_1
Note_On_54_Vel_78
Time_Shift_1
Note_On_60_Vel_77
Time_Shift_54
Note_On_57_Vel_0
Time_Shift_99
Note_On_54_Vel_0
Time_Shift_1
Note_On_55_Vel_0
Note_On_60_Vel_0
Note_On_44_Vel_0
Note_On_45_Vel_0
Time_Shift_1
Note_On_63_Vel_0
Note_On_52_Vel_0
Time_Shift_2
Sustain_Off
Time_Shift_12
Note_On_33_Vel_0
Note_On_61_Vel_0
Time_Shift_4
Note_On_37_Vel_91
Note_On_25_Vel_96
Note_On_65_Vel_92
Time_Shift_1
Note_On_61_Vel_89
Time_Shift_1
Note_On_53_Vel_93
Time_Shift_40
Sustain_On
Time_Shift_922
Note_On_61_Vel_0
Note_On_65_Vel_0
Time_Shift_4
Note_On_77_Vel_101
Note_On_73_Vel_90
Time_Shift_2
Note_On_61_Vel_92
Time_Shift_1
Note_On_65_Vel_89
Time_Shift_3
Note_On_49_Vel_77
Time_Shift_1
Note_On_56_Vel_84
Time_Shift_4
Note_On_73_Vel_0
Time_Shift_169
Note_On_32_Vel_0
Time_Shift_562
Note_On_63_Vel_82
Time_Shift_19
Note_On_66_Vel_97
Time_Shift_4
Note_On_78_Vel_97
Time_Shift_53
Note_On_49_Vel_0
Time_Shift_5
Note_On_49_Vel_72
Time_Shift_102
Note_On_56_Vel_0
Time_Shift_3
Note_On_80_Vel_103
Time_Shift_1
Note_On_56_Vel_70
Time_Shift_4
Note_On_65_Vel_0
Note_On_68_Vel_105
Time_Shift_3
Note_On_73_Vel_85
Time_Shift_1
Note_On_65_Vel_86
Time_Shift_680
Note_On_66_Vel_0
Time_Shift_8
Note_On_66_Vel_84
Time_Shift_1
Note_On_70_Vel_104
Time_Shift_1
Note_On_82_Vel_102
Time_Shift_159
Note_On_25_Vel_0
Time_Shift_2
Note_On_53_Vel_0
Time_Shift_1
Sustain_Off
Note_On_61_Vel_0
Note_On_77_Vel_0
Note_On_78_Vel_0
Time_Shift_1
Note_On_65_Vel_0
Time_Shift_1
Note_On_66_Vel_0
Time_Shift_10
Note_On_37_Vel_0
Time_Shift_8
Note_On_68_Vel_0
Note_On_80_Vel_0
Time_Shift_4
Note_On_84_Vel_101
Time_Shift_3
Note_On_56_Vel_0
Note_On_63_Vel_0
Time_Shift_3
Note_On_68_Vel_101
Note_On_72_Vel_99
Time_Shift_1
Note_On_80_Vel_97
Note_On_75_Vel_89
Time_Shift_2
Note_On_63_Vel_80
Time_Shift_2
Note_On_70_Vel_0
Note_On_56_Vel_85
Time_Shift_8
Note_On_49_Vel_0
Note_On_73_Vel_0
Sustain_On
Time_Shift_725
Note_On_65_Vel_87
Time_Shift_2
Note_On_85_Vel_105
Time_Shift_3
Note_On_73_Vel_101
Time_Shift_144
Note_On_80_Vel_0
Time_Shift_1
Note_On_72_Vel_0
Note_On_68_Vel_0
Note_On_84_Vel_0
Note_On_63_Vel_0
Time_Shift_1
Note_On_73_Vel_0
Note_On_65_Vel_0
Note_On_56_Vel_0
Time_Shift_1
Note_On_85_Vel_0
Time_Shift_4
Sustain_Off
Time_Shift_2
Note_On_82_Vel_0
Time_Shift_7
Note_On_75_Vel_0
Time_Shift_43
Note_On_77_Vel_103
Note_On_84_Vel_99
Note_On_89_Vel_102
Time_Shift_1
Note_On_44_Vel_94
Time_Shift_2
Note_On_32_Vel_82
Time_Shift_16
Sustain_On
Time_Shift_971
Note_On_72_Vel_100
Note_On_66_Vel_90
Time_Shift_1
Note_On_63_Vel_93
Time_Shift_748
Note_On_66_Vel_0
Time_Shift_4
Note_On_61_Vel_78
Note_On_70_Vel_95
Time_Shift_2
Note_On_66_Vel_80
Time_Shift_186
Note_On_61_Vel_0
Note_On_66_Vel_0
Time_Shift_6
Note_On_80_Vel_93
Time_Shift_2
Note_On_84_Vel_0
Time_Shift_2
Note_On_87_Vel_96
Time_Shift_1
Note_On_66_Vel_75
Time_Shift_1
Note_On_61_Vel_79
Note_On_75_Vel_96
Note_On_84_Vel_85
Time_Shift_733
Note_On_66_Vel_0
Time_Shift_10
Note_On_68_Vel_88
Time_Shift_1
Note_On_60_Vel_79
Note_On_66_Vel_76
Time_Shift_181
Note_On_60_Vel_0
Note_On_66_Vel_0
Note_On_68_Vel_0
Time_Shift_10
Note_On_68_Vel_81
Note_On_56_Vel_66
Time_Shift_1
Note_On_66_Vel_79
Note_On_60_Vel_74
Time_Shift_5
Note_On_56_Vel_0
Time_Shift_691
Note_On_63_Vel_0
Time_Shift_9
Note_On_63_Vel_79
Time_Shift_6
Note_On_66_Vel_0
Note_On_72_Vel_0
Note_On_75_Vel_0
Time_Shift_2
Note_On_57_Vel_79
Time_Shift_3
Note_On_75_Vel_78
Time_Shift_5
Note_On_66_Vel_85
Time_Shift_1
Note_On_72_Vel_75
Time_Shift_1
Note_On_78_Vel_86
Time_Shift_133
Note_On_32_Vel_0
Note_On_70_Vel_0
Time_Shift_1
Note_On_68_Vel_0
Note_On_61_Vel_0
Note_On_80_Vel_0
Note_On_77_Vel_0
Note_On_72_Vel_0
Note_On_44_Vel_0
Note_On_78_Vel_0
Time_Shift_1
Note_On_57_Vel_0
Note_On_75_Vel_0
Note_On_84_Vel_0
Note_On_63_Vel_0
Note_On_66_Vel_0
Note_On_87_Vel_0
Note_On_60_Vel_0
Time_Shift_1
Sustain_Off
Time_Shift_6
Note_On_89_Vel_0
Time_Shift_34
Note_On_77_Vel_98
Note_On_75_Vel_82
Time_Shift_1
Note_On_65_Vel_95
Time_Shift_1
Note_On_46_Vel_89
Time_Shift_5
Note_On_34_Vel_78
Time_Shift_2
Note_On_70_Vel_77
Time_Shift_18
Sustain_On
Time_Shift_891
Note_On_65_Vel_0
Note_On_77_Vel_0
Time_Shift_6
Note_On_77_Vel_97
Time_Shift_2
Note_On_70_Vel_0
Time_Shift_3
Note_On_65_Vel_87
Time_Shift_1
Note_On_61_Vel_83
Time_Shift_1
Note_On_53_Vel_80
Time_Shift_1
Note_On_58_Vel_83
Note_On_70_Vel_89
Note_On_73_Vel_86
Time_Shift_654
Note_On_34_Vel_0
Time_Shift_87
Note_On_79_Vel_97
Note_On_67_Vel_101
Time_Shift_159
Note_On_77_Vel_0
Time_Shift_3
Sustain_Off
Time_Shift_5
Note_On_73_Vel_0
Note_On_81_Vel_100
Time_Shift_2
Note_On_69_Vel_100
Time_Shift_1
Note_On_65_Vel_0
Note_On_70_Vel_0
Note_On_67_Vel_0
Note_On_77_Vel_94
Note_On_58_Vel_0
Note_On_61_Vel_0
Note_On_37_Vel_89
Note_On_79_Vel_0
Time_Shift_1
Note_On_49_Vel_92
Note_On_53_Vel_0
Time_Shift_1
Note_On_46_Vel_0
Time_Shift_1
Note_On_73_Vel_86
Time_Shift_1
Note_On_75_Vel_0
Time_Shift_39
Sustain_On
Time_Shift_662
Note_On_82_Vel_101
Time_Shift_1
Note_On_70_Vel_103
Time_Shift_166
Note_On_77_Vel_0
Time_Shift_2
Note_On_72_Vel_97
Note_On_84_Vel_100
Time_Shift_2
Note_On_77_Vel_92
Time_Shift_2
Note_On_65_Vel_97
Time_Shift_4
Note_On_61_Vel_94
Time_Shift_1
Note_On_53_Vel_93
Time_Shift_1
Note_On_58_Vel_92
Time_Shift_815
Note_On_85_Vel_98
Time_Shift_3
Note_On_73_Vel_0
Time_Shift_3
Note_On_73_Vel_94
Time_Shift_147
Note_On_29_Vel_76
Time_Shift_19
Note_On_70_Vel_0
Time_Shift_11
Note_On_70_Vel_95
Time_Shift_4
Note_On_37_Vel_0
Time_Shift_34
Note_On_53_Vel_0
Time_Shift_1
Note_On_81_Vel_0
Note_On_65_Vel_0
Note_On_58_Vel_0
Note_On_61_Vel_0
Time_Shift_1
Note_On_72_Vel_0
Note_On_82_Vel_0
Time_Shift_1
Note_On_69_Vel_0
Note_On_84_Vel_0
Time_Shift_1
Note_On_49_Vel_0
Time_Shift_1
Note_On_73_Vel_0
Time_Shift_1
Note_On_85_Vel_0
Time_Shift_2
Sustain_Off
Time_Shift_14
Note_On_76_Vel_76
Time_Shift_5
Sustain_On
Time_Shift_23
Note_On_77_Vel_0
Time_Shift_12
Note_On_79_Vel_80
Time_Shift_42
Note_On_85_Vel_97
Time_Shift_2
Note_On_41_Vel_81
Time_Shift_144
Note_On_70_Vel_0
Time_Shift_848
Note_On_53_Vel_78
Note_On_61_Vel_79
Time_Shift_1
Note_On_67_Vel_79
Time_Shift_1
Note_On_58_Vel_77
Time_Shift_1039
Note_On_29_Vel_0
Time_Shift_3
Note_On_84_Vel_84
Time_Shift_5
Note_On_53_Vel_0
Note_On_77_Vel_74
Time_Shift_1
Note_On_72_Vel_70
Note_On_69_Vel_69
Time_Shift_1
Note_On_41_Vel_0
Time_Shift_1
Note_On_76_Vel_0
Note_On_57_Vel_65
Note_On_85_Vel_0
Time_Shift_1
Note_On_53_Vel_54
Note_On_60_Vel_62
Note_On_58_Vel_0
Note_On_61_Vel_0
Time_Shift_1
Note_On_79_Vel_0
Note_On_67_Vel_0
Time_Shift_2
Sustain_Off
Time_Shift_124
Sustain_On
Time_Shift_944
Note_On_53_Vel_0
Time_Shift_11
Note_On_53_Vel_82
Time_Shift_34
Note_On_84_Vel_0
Note_On_69_Vel_0
Time_Shift_1
Note_On_60_Vel_0
Note_On_57_Vel_0
Time_Shift_1
Note_On_77_Vel_0
Time_Shift_1
Sustain_Off
Time_Shift_6
Note_On_72_Vel_0
Time_Shift_123
Sustain_On
Time_Shift_794
Note_On_43_Vel_49
Time_Shift_89
Note_On_53_Vel_0
Time_Shift_2
Note_On_44_Vel_65
Time_Shift_57
Note_On_68_Vel_74
Time_Shift_6
Note_On_60_Vel_54
Time_Shift_3
Note_On_54_Vel_55
Time_Shift_3
Note_On_46_Vel_60
Time_Shift_2
Note_On_56_Vel_61
Note_On_43_Vel_0
Time_Shift_2
Note_On_44_Vel_0
Time_Shift_10
Sustain_Off
Time_Shift_92
Sustain_On
Time_Shift_32
Note_On_44_Vel_58
Time_Shift_129
Note_On_44_Vel_0
Note_On_46_Vel_0
Time_Shift_6
Note_On_46_Vel_30
Time_Shift_3
Note_On_44_Vel_38
Time_Shift_175
Note_On_44_Vel_0
Time_Shift_5
Note_On_44_Vel_34
Time_Shift_64
Note_On_46_Vel_0
Time_Shift_10
Note_On_46_Vel_23
Time_Shift_98
Note_On_44_Vel_0
Time_Shift_11
Note_On_44_Vel_26
Time_Shift_35
Note_On_46_Vel_0
Time_Shift_7
Note_On_46_Vel_46
Time_Shift_124
Note_On_46_Vel_0
Time_Shift_5
Note_On_46_Vel_36
Time_Shift_102
Note_On_46_Vel_0
Time_Shift_4
Note_On_46_Vel_38
Time_Shift_73
Note_On_68_Vel_0
Time_Shift_11
Note_On_68_Vel_71
Time_Shift_20
Note_On_44_Vel_0
Time_Shift_3
Note_On_63_Vel_60
Time_Shift_4
Note_On_44_Vel_45
Note_On_54_Vel_0
Note_On_60_Vel_0
Time_Shift_7
Note_On_60_Vel_42
Time_Shift_4
Note_On_54_Vel_37
Time_Shift_74
Note_On_46_Vel_0
Time_Shift_11
Note_On_46_Vel_38
Time_Shift_50
Note_On_44_Vel_0
Time_Shift_6
Note_On_44_Vel_51
Time_Shift_79
Note_On_46_Vel_0
Time_Shift_11
Note_On_46_Vel_39
Time_Shift_42
Note_On_44_Vel_0
Time_Shift_12
Note_On_44_Vel_51
Time_Shift_50
Note_On_46_Vel_0
Time_Shift_10
Note_On_46_Vel_35
Time_Shift_67
Note_On_44_Vel_0
Time_Shift_5
Note_On_44_Vel_50
Time_Shift_164
Note_On_46_Vel_0
Time_Shift_9
Note_On_46_Vel_40
Time_Shift_175
Note_On_44_Vel_0
Time_Shift_5
Note_On_44_Vel_47
Time_Shift_135
Note_On_43_Vel_47
Time_Shift_160
Note_On_68_Vel_0
Time_Shift_9
Note_On_68_Vel_67
Time_Shift_14
Note_On_56_Vel_0
Time_Shift_3
Note_On_49_Vel_44
Time_Shift_1
Note_On_56_Vel_39
Time_Shift_2
Note_On_46_Vel_0
Time_Shift_1
Note_On_43_Vel_0
Note_On_63_Vel_0
Time_Shift_3
Note_On_44_Vel_0
Time_Shift_1
Sustain_Off
Time_Shift_1
Note_On_53_Vel_38
Time_Shift_4
Note_On_61_Vel_49
Time_Shift_7
Note_On_60_Vel_0
Time_Shift_7
Note_On_54_Vel_0
Time_Shift_331
Sustain_On
Time_Shift_791
Note_On_49_Vel_0
Time_Shift_7
Note_On_49_Vel_47
Time_Shift_60
Note_On_61_Vel_0
Time_Shift_1
Note_On_53_Vel_0
Time_Shift_4
Sustain_Off
Time_Shift_4
Note_On_56_Vel_0
Note_On_68_Vel_0
Time_Shift_215
Sustain_On
Time_Shift_794
Note_On_40_Vel_31
Time_Shift_86
Note_On_41_Vel_39
Time_Shift_38
Note_On_65_Vel_45
Time_Shift_24
Sustain_Off
Time_Shift_1
Note_On_61_Vel_36
Time_Shift_3
Note_On_40_Vel_0
Time_Shift_10
Note_On_57_Vel_41
Time_Shift_4
Note_On_49_Vel_0
Time_Shift_70
Sustain_On
Time_Shift_38
Sustain_Off
Time_Shift_84
Sustain_On
Time_Shift_16
Note_On_41_Vel_0
Time_Shift_4
Note_On_41_Vel_29
Time_Shift_101
Note_On_42_Vel_37
Time_Shift_79
Note_On_41_Vel_0
Time_Shift_9
Note_On_41_Vel_27
Time_Shift_106
Note_On_42_Vel_0
Time_Shift_10
Note_On_42_Vel_34
Time_Shift_59
Note_On_41_Vel_0
Time_Shift_12
Note_On_41_Vel_39
Time_Shift_142
Note_On_41_Vel_0
Time_Shift_7
Note_On_41_Vel_30
Time_Shift_93
Note_On_42_Vel_0
Time_Shift_10
Note_On_42_Vel_31
Time_Shift_59
Note_On_65_Vel_0
Time_Shift_10
Note_On_65_Vel_49
Time_Shift_9
Note_On_60_Vel_45
Time_Shift_4
Note_On_57_Vel_0
Time_Shift_7
Note_On_57_Vel_41
Time_Shift_1
Note_On_41_Vel_0
Time_Shift_10
Note_On_41_Vel_43
Time_Shift_90
Note_On_42_Vel_0
Time_Shift_8
Note_On_42_Vel_46
Time_Shift_84
Note_On_41_Vel_0
Time_Shift_4
Note_On_41_Vel_28
Time_Shift_157
Note_On_42_Vel_0
Time_Shift_4
Note_On_42_Vel_36
Time_Shift_57
Note_On_41_Vel_0
Time_Shift_5
Note_On_41_Vel_33
Time_Shift_126
Note_On_42_Vel_0
Time_Shift_5
Note_On_42_Vel_45
Time_Shift_110
Note_On_41_Vel_0
Time_Shift_11
Note_On_41_Vel_31
Time_Shift_172
Note_On_40_Vel_34
Time_Shift_109
Note_On_41_Vel_0
Time_Shift_9
Note_On_41_Vel_42
Time_Shift_99
Note_On_42_Vel_0
Time_Shift_11
Note_On_42_Vel_42
Time_Shift_3
Note_On_54_Vel_37
Time_Shift_13
Sustain_Off
Note_On_65_Vel_0
Note_On_41_Vel_0
Note_On_61_Vel_0
Note_On_60_Vel_0
Time_Shift_11
Note_On_40_Vel_0
Time_Shift_4
Note_On_49_Vel_38
Time_Shift_6
Note_On_58_Vel_40
Time_Shift_5
Note_On_57_Vel_0
Time_Shift_192
Sustain_On
Time_Shift_822
Note_On_53_Vel_23
Time_Shift_1
Note_On_41_Vel_32
Time_Shift_96
Sustain_Off
Time_Shift_3
Note_On_54_Vel_0
Time_Shift_46
Note_On_42_Vel_0
Time_Shift_422
Sustain_On
Time_Shift_8
Note_On_49_Vel_0
Time_Shift_5
Note_On_37_Vel_26
Time_Shift_4
Note_On_49_Vel_18
Time_Shift_682
Note_On_58_Vel_0
Time_Shift_5
Note_On_58_Vel_37
Time_Shift_3
Note_On_53_Vel_0
Time_Shift_11
Note_On_53_Vel_33
Note_On_46_Vel_30
Time_Shift_2
Note_On_34_Vel_26
Time_Shift_20
Sustain_Off
Time_Shift_2
Note_On_41_Vel_0
Time_Shift_9
Note_On_49_Vel_0
Time_Shift_125
Sustain_On
Time_Shift_952
Note_On_58_Vel_0
Time_Shift_6
Note_On_58_Vel_36
Time_Shift_18
Note_On_49_Vel_25
Time_Shift_3
Note_On_42_Vel_25
Time_Shift_1
Note_On_54_Vel_30
Time_Shift_15
Note_On_34_Vel_0
Time_Shift_1
Sustain_Off
Time_Shift_1
Note_On_46_Vel_0
Time_Shift_2
Note_On_53_Vel_0
Time_Shift_138
Sustain_On
Time_Shift_698
Note_On_58_Vel_0
Time_Shift_11
Note_On_58_Vel_38
Time_Shift_227
Note_On_58_Vel_0
Time_Shift_9
Note_On_58_Vel_39
Time_Shift_16
Note_On_46_Vel_28
Time_Shift_9
Note_On_34_Vel_23
Time_Shift_3
Note_On_41_Vel_23
Time_Shift_3
Note_On_53_Vel_29
Time_Shift_4
Note_On_49_Vel_0
Sustain_Off
Time_Shift_2
Note_On_54_Vel_0
Time_Shift_3
Note_On_42_Vel_0
Time_Shift_13
Note_On_37_Vel_0
Time_Shift_123
Sustain_On
Time_Shift_898
Note_On_61_Vel_43
Time_Shift_17
Note_On_54_Vel_40
Time_Shift_3
Note_On_42_Vel_30
Time_Shift_11
Note_On_49_Vel_29
Time_Shift_7
Note_On_37_Vel_28
Time_Shift_9
Note_On_34_Vel_0
Time_Shift_3
Note_On_46_Vel_0
Time_Shift_1
Note_On_53_Vel_0
Time_Shift_5
Sustain_Off
Time_Shift_6
Note_On_41_Vel_0
Time_Shift_123
Sustain_On
Time_Shift_391
Note_On_58_Vel_0
Time_Shift_344
Note_On_60_Vel_42
Time_Shift_186
Note_On_61_Vel_0
Time_Shift_12
Note_On_61_Vel_40
Time_Shift_11
Note_On_60_Vel_0
Time_Shift_11
Note_On_60_Vel_36
Time_Shift_24
Note_On_58_Vel_29
Note_On_53_Vel_31
Time_Shift_1
Note_On_46_Vel_29
Note_On_41_Vel_31
Time_Shift_4
Note_On_34_Vel_32
Time_Shift_38
Sustain_Off
Time_Shift_4
Note_On_49_Vel_0
Time_Shift_1
Note_On_54_Vel_0
Time_Shift_1
Note_On_42_Vel_0
Time_Shift_6
Note_On_61_Vel_0
Time_Shift_10
Note_On_37_Vel_0
Time_Shift_146
Sustain_On
Time_Shift_630
Note_On_58_Vel_0
Time_Shift_7
Note_On_58_Vel_38
Time_Shift_262
Note_On_58_Vel_0
Time_Shift_5
Note_On_42_Vel_28
Time_Shift_3
Note_On_58_Vel_32
Time_Shift_1
Note_On_49_Vel_25
Time_Shift_2
Note_On_54_Vel_23
Note_On_30_Vel_27
Time_Shift_8
Note_On_37_Vel_27
Time_Shift_3
Note_On_34_Vel_0
Time_Shift_1
Note_On_30_Vel_0
Time_Shift_2
Note_On_46_Vel_0
Sustain_Off
Time_Shift_2
Note_On_41_Vel_0
Time_Shift_11
Note_On_60_Vel_0
Time_Shift_15
Note_On_53_Vel_0
Time_Shift_123
Sustain_On
Time_Shift_730
Note_On_58_Vel_0
Time_Shift_10
Note_On_58_Vel_36
Time_Shift_266
Note_On_58_Vel_0
Time_Shift_5
Note_On_58_Vel_43
Time_Shift_14
Note_On_46_Vel_32
Time_Shift_5
Note_On_53_Vel_34
Time_Shift_2
Note_On_41_Vel_30
Note_On_34_Vel_30
Time_Shift_31
Sustain_Off
Time_Shift_1
Note_On_49_Vel_0
Note_On_37_Vel_0
Time_Shift_1
Note_On_42_Vel_0
Time_Shift_18
Note_On_54_Vel_0
Time_Shift_161
Sustain_On
Time_Shift_1432
Note_On_44_Vel_31
Time_Shift_4
Note_On_32_Vel_25
Time_Shift_34
Note_On_46_Vel_0
Time_Shift_1
Note_On_41_Vel_0
Note_On_34_Vel_0
Time_Shift_2
Note_On_53_Vel_0
Time_Shift_13
Sustain_Off
Time_Shift_27
Note_On_58_Vel_0
Time_Shift_346
Sustain_On
Time_Shift_1407
Note_On_77_Vel_54
Time_Shift_12
Note_On_37_Vel_31
Time_Shift_25
Sustain_Off
Time_Shift_3
Note_On_44_Vel_0
Time_Shift_12
Note_On_32_Vel_0
Time_Shift_100
Sustain_On
Time_Shift_411
Note_On_44_Vel_36
Time_Shift_437
Note_On_53_Vel_37
Time_Shift_480
Note_On_61_Vel_34
Time_Shift_477
Note_On_37_Vel_0
Time_Shift_4
Note_On_37_Vel_38
Time_Shift_6
Note_On_78_Vel_64
Time_Shift_489
Note_On_77_Vel_0
Time_Shift_5
Note_On_77_Vel_62
Time_Shift_3
Note_On_44_Vel_0
Time_Shift_11
Note_On_44_Vel_35
Time_Shift_410
Note_On_75_Vel_58
Time_Shift_16
Note_On_53_Vel_0
Time_Shift_11
Note_On_53_Vel_34
Time_Shift_412
Note_On_61_Vel_0
Time_Shift_8
Note_On_73_Vel_59
Time_Shift_1
Note_On_61_Vel_47
Time_Shift_471
Note_On_72_Vel_55
Time_Shift_8
Note_On_39_Vel_45
Time_Shift_30
Note_On_37_Vel_0
Time_Shift_1
Note_On_53_Vel_0
Note_On_61_Vel_0
Sustain_Off
Note_On_44_Vel_0
Note_On_77_Vel_0
Time_Shift_1
Note_On_75_Vel_0
Note_On_73_Vel_0
Time_Shift_1
Note_On_78_Vel_0
Time_Shift_155
Sustain_On
Time_Shift_279
Note_On_44_Vel_43
Time_Shift_471
Note_On_82_Vel_60
Note_On_54_Vel_35
Time_Shift_457
Note_On_60_Vel_39
Time_Shift_452
Note_On_39_Vel_0
Time_Shift_4
Note_On_39_Vel_35
Time_Shift_4
Note_On_80_Vel_55
Time_Shift_452
Note_On_44_Vel_0
Time_Shift_5
Note_On_44_Vel_38
Time_Shift_410
Note_On_54_Vel_0
Time_Shift_7
Note_On_54_Vel_38
Time_Shift_454
Note_On_60_Vel_0
Time_Shift_10
Note_On_60_Vel_39
Time_Shift_336
Note_On_72_Vel_0
Note_On_82_Vel_0
Time_Shift_215
Note_On_44_Vel_0
Time_Shift_1
Note_On_39_Vel_0
Time_Shift_1
Note_On_54_Vel_0
Time_Shift_1
Note_On_80_Vel_0
Time_Shift_2
Sustain_Off
Time_Shift_15
Note_On_78_Vel_73
Time_Shift_3
Note_On_60_Vel_0
Time_Shift_34
Note_On_32_Vel_28
Time_Shift_112
Sustain_On
Time_Shift_319
Note_On_44_Vel_43
Time_Shift_195
Note_On_32_Vel_0
Time_Shift_249
Note_On_54_Vel_38
Time_Shift_446
Note_On_60_Vel_35
Time_Shift_411
Note_On_80_Vel_69
Time_Shift_14
Note_On_32_Vel_28
Time_Shift_454
Note_On_78_Vel_0
Time_Shift_12
Note_On_78_Vel_82
Time_Shift_19
Note_On_44_Vel_0
Time_Shift_6
Note_On_44_Vel_35
Time_Shift_401
Note_On_54_Vel_0
Time_Shift_6
Note_On_54_Vel_38
Time_Shift_1
Note_On_77_Vel_69
Time_Shift_416
Note_On_60_Vel_0
Time_Shift_6
Note_On_60_Vel_42
Time_Shift_1
Note_On_75_Vel_65
Time_Shift_464
Note_On_73_Vel_61
Time_Shift_2
Note_On_32_Vel_0
Time_Shift_4
Note_On_44_Vel_0
Time_Shift_1
Note_On_54_Vel_0
Note_On_80_Vel_0
Note_On_37_Vel_35
Time_Shift_1
Note_On_78_Vel_0
Note_On_60_Vel_0
Time_Shift_1
Note_On_77_Vel_0
Time_Shift_1
Sustain_Off
Time_Shift_6
Note_On_75_Vel_0
Time_Shift_142
Sustain_On
Time_Shift_269
Note_On_44_Vel_40
Time_Shift_439
Note_On_53_Vel_35
Time_Shift_2
Note_On_85_Vel_64
Time_Shift_458
Note_On_61_Vel_30
Time_Shift_442
Note_On_80_Vel_57
Time_Shift_26
Note_On_37_Vel_0
Time_Shift_5
Note_On_37_Vel_25
Time_Shift_418
Note_On_44_Vel_0
Time_Shift_7
Note_On_44_Vel_41
Time_Shift_430
Note_On_53_Vel_0
Time_Shift_5
Note_On_53_Vel_35
Time_Shift_441
Note_On_61_Vel_0
Time_Shift_7
Note_On_61_Vel_32
Time_Shift_553
Note_On_37_Vel_0
Time_Shift_8
Note_On_37_Vel_36
Time_Shift_4
Note_On_77_Vel_64
Time_Shift_37
Sustain_Off
Time_Shift_1
Note_On_44_Vel_0
Note_On_80_Vel_0
Time_Shift_1
Note_On_53_Vel_0
Note_On_85_Vel_0
Note_On_61_Vel_0
Note_On_73_Vel_0
Time_Shift_134
Sustain_On
Time_Shift_298
Note_On_44_Vel_38
Time_Shift_433
Note_On_53_Vel_36
Time_Shift_488
Note_On_61_Vel_32
Time_Shift_511
Note_On_78_Vel_66
Time_Shift_14
Note_On_34_Vel_30
Time_Shift_22
Note_On_37_Vel_0
Time_Shift_13
Note_On_44_Vel_0
Note_On_53_Vel_0
Time_Shift_1
Note_On_61_Vel_0
Time_Shift_11
Sustain_Off
Time_Shift_136
Sustain_On
Time_Shift_277
Note_On_77_Vel_0
Time_Shift_4
Note_On_77_Vel_62
Note_On_46_Vel_39
Time_Shift_388
Note_On_75_Vel_62
Time_Shift_36
Note_On_56_Vel_40
Time_Shift_397
Note_On_74_Vel_55
Time_Shift_2
Note_On_62_Vel_47
Time_Shift_317
Note_On_75_Vel_0
Time_Shift_11
Note_On_75_Vel_64
Time_Shift_81
Note_On_77_Vel_0
Time_Shift_5
Note_On_77_Vel_60
Time_Shift_65
Note_On_75_Vel_0
Time_Shift_4
Note_On_75_Vel_67
Note_On_39_Vel_41
Time_Shift_51
Note_On_34_Vel_0
Time_Shift_2
Note_On_46_Vel_0
Note_On_56_Vel_0
Note_On_62_Vel_0
Note_On_78_Vel_0
Note_On_74_Vel_0
Note_On_77_Vel_0
Time_Shift_1
Sustain_Off
Time_Shift_149
Sustain_On
Time_Shift_218
Note_On_74_Vel_63
Time_Shift_8
Note_On_46_Vel_46
Time_Shift_373
Note_On_75_Vel_0
Time_Shift_10
Note_On_75_Vel_75
Time_Shift_9
Note_On_54_Vel_43
Time_Shift_399
Note_On_77_Vel_69
Note_On_63_Vel_52
Time_Shift_473
Note_On_75_Vel_0
Time_Shift_4
Note_On_78_Vel_74
Time_Shift_1
Note_On_42_Vel_45
Time_Shift_5
Note_On_75_Vel_44
Time_Shift_44
Sustain_Off
Time_Shift_4
Note_On_54_Vel_0
Note_On_46_Vel_0
Note_On_74_Vel_0
Time_Shift_1
Note_On_63_Vel_0
Note_On_77_Vel_0
Note_On_75_Vel_0
Time_Shift_5
Note_On_39_Vel_0
Time_Shift_120
Sustain_On
Time_Shift_301
Note_On_70_Vel_62
Time_Shift_3
Note_On_51_Vel_42
Time_Shift_386
Note_On_77_Vel_60
Time_Shift_4
Note_On_58_Vel_43
Time_Shift_477
Note_On_75_Vel_56
Time_Shift_3
Note_On_63_Vel_42
Time_Shift_366
Note_On_72_Vel_44
Time_Shift_169
Note_On_73_Vel_52
Time_Shift_97
Note_On_63_Vel_0
Time_Shift_1
Note_On_75_Vel_0
Note_On_51_Vel_0
Note_On_42_Vel_0
Note_On_70_Vel_0
Time_Shift_1
Note_On_58_Vel_0
Note_On_77_Vel_0
Note_On_72_Vel_0
Note_On_78_Vel_0
Time_Shift_1
Sustain_Off
Note_On_43_Vel_36
Time_Shift_2
Note_On_73_Vel_0
Time_Shift_41
Note_On_75_Vel_56
Time_Shift_60
Sustain_On
Time_Shift_70
Note_On_73_Vel_52
Time_Shift_92
Note_On_75_Vel_0
Time_Shift_11
Note_On_75_Vel_59
Time_Shift_104
Note_On_73_Vel_0
Time_Shift_4
Note_On_73_Vel_57
Time_Shift_25
Note_On_52_Vel_35
Time_Shift_71
Note_On_75_Vel_0
Time_Shift_6
Note_On_75_Vel_62
Time_Shift_78
Note_On_73_Vel_0
Time_Shift_11
Note_On_73_Vel_52
Time_Shift_81
Note_On_75_Vel_0
Time_Shift_10
Note_On_75_Vel_55
Time_Shift_60
Note_On_73_Vel_0
Time_Shift_5
Note_On_73_Vel_53
Time_Shift_30
Note_On_61_Vel_41
Time_Shift_41
Note_On_75_Vel_0
Time_Shift_12
Note_On_75_Vel_53
Time_Shift_50
Note_On_73_Vel_0
Time_Shift_11
Note_On_73_Vel_57
Time_Shift_66
Note_On_75_Vel_0
Time_Shift_7
Note_On_75_Vel_61
Time_Shift_69
Note_On_73_Vel_0
Time_Shift_5
Note_On_73_Vel_57
Time_Shift_49
Note_On_75_Vel_0
Time_Shift_8
Note_On_75_Vel_57
Time_Shift_46
Note_On_73_Vel_0
Time_Shift_8
Note_On_73_Vel_62
Time_Shift_37
Note_On_70_Vel_50
Time_Shift_104
Note_On_72_Vel_44
Time_Shift_104
Note_On_73_Vel_0
Time_Shift_11
Note_On_73_Vel_54
Time_Shift_112
Note_On_72_Vel_0
Time_Shift_10
Note_On_72_Vel_57
Time_Shift_248
Note_On_82_Vel_62
Time_Shift_29
Note_On_70_Vel_0
Time_Shift_1
Note_On_75_Vel_0
Note_On_52_Vel_0
Note_On_72_Vel_0
Note_On_61_Vel_0
Time_Shift_1
Note_On_73_Vel_0
Note_On_44_Vel_33
Sustain_Off
Time_Shift_1
Note_On_43_Vel_0
Time_Shift_171
Sustain_On
Time_Shift_275
Note_On_80_Vel_60
Time_Shift_29
Note_On_51_Vel_34
Time_Shift_383
Note_On_78_Vel_64
Time_Shift_15
Note_On_60_Vel_34
Time_Shift_423
Note_On_66_Vel_41
Time_Shift_1
Note_On_68_Vel_47
Time_Shift_528
Note_On_75_Vel_53
Time_Shift_27
Note_On_32_Vel_24
Time_Shift_24
Sustain_Off
Time_Shift_5
Note_On_66_Vel_0
Time_Shift_1
Note_On_78_Vel_0
Note_On_60_Vel_0
Time_Shift_1
Note_On_82_Vel_0
Note_On_44_Vel_0
Note_On_51_Vel_0
Note_On_80_Vel_0
Time_Shift_1
Note_On_68_Vel_0
Time_Shift_138
Sustain_On
Time_Shift_169
Note_On_32_Vel_0
Time_Shift_98
Note_On_44_Vel_40
Time_Shift_458
Note_On_54_Vel_32
Time_Shift_448
Note_On_60_Vel_36
Time_Shift_499
Note_On_73_Vel_48
Time_Shift_24
Note_On_37_Vel_29
Time_Shift_66
Note_On_60_Vel_0
Note_On_54_Vel_0
Time_Shift_1
Note_On_75_Vel_0
Time_Shift_1
Note_On_44_Vel_0
Time_Shift_9
Sustain_Off
Time_Shift_193
Sustain_On
Time_Shift_184
Note_On_44_Vel_42
Time_Shift_435
Note_On_53_Vel_39
Time_Shift_536
Note_On_61_Vel_34
Time_Shift_725
Note_On_77_Vel_63
Time_Shift_9
Note_On_37_Vel_0
Time_Shift_10
Note_On_37_Vel_30
Time_Shift_20
Note_On_44_Vel_0
Time_Shift_3
Note_On_61_Vel_0
Note_On_53_Vel_0
Time_Shift_1
Note_On_73_Vel_0
Time_Shift_3
Sustain_Off
Time_Shift_132
Sustain_On
Time_Shift_351
Note_On_44_Vel_40
Time_Shift_451
Note_On_53_Vel_32
Time_Shift_433
Note_On_61_Vel_39
Time_Shift_428
Note_On_78_Vel_70
Time_Shift_27
Note_On_37_Vel_0
Time_Shift_8
Note_On_37_Vel_36
Time_Shift_453
Note_On_44_Vel_0
Note_On_77_Vel_0
Time_Shift_6
Note_On_44_Vel_39
Time_Shift_2
Note_On_77_Vel_63
Time_Shift_403
Note_On_75_Vel_64
Time_Shift_3
Note_On_53_Vel_0
Time_Shift_4
Note_On_53_Vel_39
Time_Shift_403
Note_On_61_Vel_0
Time_Shift_10
Note_On_73_Vel_70
Time_Shift_2
Note_On_61_Vel_50
Time_Shift_445
Note_On_72_Vel_63
Time_Shift_24
Note_On_39_Vel_45
Time_Shift_19
Note_On_37_Vel_0
Time_Shift_2
Note_On_78_Vel_0
Note_On_75_Vel_0
Note_On_44_Vel_0
Note_On_77_Vel_0
Time_Shift_1
Note_On_73_Vel_0
Note_On_53_Vel_0
Sustain_Off
Time_Shift_12
Note_On_61_Vel_0
Time_Shift_154
Sustain_On
Time_Shift_265
Note_On_44_Vel_39
Time_Shift_408
Note_On_82_Vel_67
Time_Shift_29
Note_On_54_Vel_37
Time_Shift_443
Note_On_60_Vel_36
Time_Shift_452
Note_On_39_Vel_0
Time_Shift_5
Note_On_39_Vel_38
Time_Shift_13
Note_On_80_Vel_51
Time_Shift_75
Note_On_44_Vel_0
Note_On_60_Vel_0
Time_Shift_1
Note_On_54_Vel_0
Note_On_72_Vel_0
Time_Shift_2
Sustain_Off
Time_Shift_127
Sustain_On
Time_Shift_245
Note_On_44_Vel_39
Time_Shift_397
Note_On_54_Vel_39
Time_Shift_463
Note_On_60_Vel_38
Time_Shift_377
Note_On_39_Vel_0
Time_Shift_173
Note_On_78_Vel_76
Time_Shift_44
Note_On_32_Vel_29
Time_Shift_9
Sustain_Off
Time_Shift_1
Note_On_54_Vel_0
Time_Shift_1
Note_On_44_Vel_0
Time_Shift_1
Note_On_60_Vel_0
Time_Shift_2
Note_On_80_Vel_0
Time_Shift_30
Note_On_82_Vel_0
Time_Shift_100
Sustain_On
Time_Shift_292
Note_On_32_Vel_0
Time_Shift_19
Note_On_44_Vel_48
Time_Shift_430
Note_On_54_Vel_40
Time_Shift_422
Note_On_60_Vel_40
Time_Shift_417
Note_On_80_Vel_67
Time_Shift_29
Note_On_32_Vel_32
Time_Shift_434
Note_On_78_Vel_0
Time_Shift_10
Note_On_78_Vel_80
Time_Shift_13
Note_On_44_Vel_0
Time_Shift_4
Note_On_44_Vel_44
Time_Shift_388
Note_On_54_Vel_0
Time_Shift_2
Note_On_77_Vel_71
Time_Shift_5
Note_On_60_Vel_0
Time_Shift_4
Note_On_54_Vel_45
Time_Shift_8
Note_On_60_Vel_31
Time_Shift_372
Note_On_60_Vel_0
Time_Shift_9
Note_On_75_Vel_78
Time_Shift_1
Note_On_60_Vel_49
Time_Shift_13
Note_On_54_Vel_0
Time_Shift_8
Note_On_54_Vel_40
Time_Shift_429
Note_On_73_Vel_67
Time_Shift_29
Note_On_37_Vel_42
Time_Shift_15
Note_On_32_Vel_0
Time_Shift_1
Note_On_60_Vel_0
Time_Shift_2
Note_On_54_Vel_0
Time_Shift_2
Sustain_Off
Note_On_80_Vel_0
Note_On_44_Vel_0
Time_Shift_1
Note_On_78_Vel_0
Note_On_77_Vel_0
Time_Shift_1
Note_On_75_Vel_0
Time_Shift_142
Sustain_On
Time_Shift_279
Note_On_44_Vel_45
Time_Shift_436
Note_On_85_Vel_65
Time_Shift_8
Note_On_53_Vel_35
Time_Shift_437
Note_On_61_Vel_36
Time_Shift_464
Note_On_80_Vel_60
Time_Shift_27
Note_On_37_Vel_0
Time_Shift_6
Note_On_37_Vel_32
Time_Shift_401
Note_On_44_Vel_0
Time_Shift_10
Note_On_44_Vel_40
Time_Shift_443
Note_On_53_Vel_0
Time_Shift_4
Note_On_53_Vel_37
Time_Shift_534
Note_On_61_Vel_0
Time_Shift_6
Note_On_61_Vel_37
Time_Shift_585
Note_On_37_Vel_0
Time_Shift_5
Note_On_77_Vel_64
Time_Shift_6
Note_On_37_Vel_37
Time_Shift_38
Sustain_Off
Time_Shift_4
Note_On_44_Vel_0
Time_Shift_1
Note_On_53_Vel_0
Time_Shift_1
Note_On_80_Vel_0
Note_On_73_Vel_0
Time_Shift_1
Note_On_85_Vel_0
Time_Shift_1
Note_On_61_Vel_0
Time_Shift_66
Sustain_On
Time_Shift_368
Note_On_44_Vel_43
Time_Shift_421
Note_On_53_Vel_42
Time_Shift_438
Note_On_61_Vel_41
Time_Shift_454
Note_On_34_Vel_36
Time_Shift_23
Note_On_78_Vel_69
Time_Shift_20
Sustain_Off
Time_Shift_36
Note_On_44_Vel_0
Time_Shift_3
Note_On_61_Vel_0
Time_Shift_4
Note_On_37_Vel_0
Time_Shift_23
Note_On_53_Vel_0
Time_Shift_53
Sustain_On
Time_Shift_333
Note_On_46_Vel_44
Time_Shift_28
Note_On_77_Vel_0
Time_Shift_5
Note_On_77_Vel_65
Time_Shift_377
Note_On_75_Vel_65
Time_Shift_29
Note_On_56_Vel_45
Time_Shift_384
Note_On_62_Vel_44
Time_Shift_5
Note_On_58_Vel_33
Time_Shift_7
Note_On_58_Vel_0
Time_Shift_3
Note_On_74_Vel_61
Time_Shift_312
Note_On_75_Vel_0
Time_Shift_4
Note_On_75_Vel_57
Time_Shift_80
Note_On_77_Vel_0
Time_Shift_5
Note_On_77_Vel_55
Time_Shift_57
Note_On_75_Vel_0
Time_Shift_10
Note_On_75_Vel_60
Time_Shift_1
Note_On_39_Vel_37
Time_Shift_47
Sustain_Off
Time_Shift_6
Note_On_34_Vel_0
Time_Shift_2
Note_On_56_Vel_0
Note_On_62_Vel_0
Time_Shift_5
Note_On_74_Vel_0
Time_Shift_1
Note_On_78_Vel_0
Time_Shift_20
Note_On_46_Vel_0
Time_Shift_176
Sustain_On
Time_Shift_191
Note_On_46_Vel_39
Time_Shift_4
Note_On_74_Vel_58
Time_Shift_374
Note_On_75_Vel_0
Time_Shift_8
Note_On_75_Vel_70
Time_Shift_23
Note_On_54_Vel_39
Time_Shift_22
Note_On_77_Vel_0
Time_Shift_349
Note_On_77_Vel_67
Time_Shift_28
Note_On_54_Vel_0
Time_Shift_7
Note_On_54_Vel_28
Time_Shift_2
Note_On_63_Vel_41
Time_Shift_415
Note_On_78_Vel_71
Time_Shift_15
Note_On_42_Vel_35
Time_Shift_30
Note_On_54_Vel_0
Time_Shift_1
Note_On_63_Vel_0
Note_On_46_Vel_0
Time_Shift_1
Note_On_74_Vel_0
Note_On_39_Vel_0
Note_On_75_Vel_0
Time_Shift_1
Note_On_77_Vel_0
Time_Shift_1
Sustain_Off
Time_Shift_164
Sustain_On
Time_Shift_273
Note_On_51_Vel_41
Time_Shift_6
Note_On_70_Vel_57
Time_Shift_405
Note_On_58_Vel_37
Time_Shift_1
Note_On_77_Vel_54
Time_Shift_484
Note_On_75_Vel_54
Time_Shift_22
Note_On_63_Vel_37
Time_Shift_386
Note_On_72_Vel_42
Time_Shift_157
Note_On_73_Vel_51
Time_Shift_113
Note_On_43_Vel_40
Time_Shift_42
Note_On_75_Vel_0
Time_Shift_5
Note_On_75_Vel_55
Time_Shift_10
Note_On_70_Vel_0
Time_Shift_1
Note_On_63_Vel_0
Note_On_77_Vel_0
Time_Shift_1
Note_On_58_Vel_0
Note_On_51_Vel_0
Note_On_42_Vel_0
Time_Shift_1
Note_On_78_Vel_0
Note_On_73_Vel_0
Note_On_72_Vel_0
Time_Shift_2
Sustain_Off
Time_Shift_96
Sustain_On
Time_Shift_20
Note_On_73_Vel_47
Time_Shift_103
Note_On_75_Vel_0
Time_Shift_8
Note_On_75_Vel_58
Time_Shift_114
Note_On_73_Vel_0
Time_Shift_11
Note_On_73_Vel_56
Time_Shift_63
Note_On_52_Vel_30
Time_Shift_49
Note_On_75_Vel_0
Time_Shift_8
Note_On_75_Vel_58
Time_Shift_77
Note_On_73_Vel_0
Time_Shift_9
Note_On_73_Vel_58
Time_Shift_68
Note_On_75_Vel_0
Time_Shift_11
Note_On_75_Vel_57
Time_Shift_65
Note_On_73_Vel_0
Time_Shift_4
Note_On_73_Vel_58
Time_Shift_73
Note_On_75_Vel_0
Time_Shift_9
Note_On_75_Vel_57
Time_Shift_1
Note_On_61_Vel_44
Time_Shift_52
Note_On_73_Vel_0
Time_Shift_9
Note_On_73_Vel_59
Time_Shift_75
Note_On_75_Vel_0
Time_Shift_5
Note_On_75_Vel_58
Time_Shift_64
Note_On_73_Vel_0
Time_Shift_4
Note_On_73_Vel_62
Time_Shift_50
Note_On_75_Vel_0
Time_Shift_9
Note_On_75_Vel_66
Time_Shift_68
Note_On_73_Vel_0
Time_Shift_11
Note_On_73_Vel_59
Time_Shift_39
Note_On_70_Vel_51
Time_Shift_77
Note_On_72_Vel_50
Time_Shift_134
Note_On_73_Vel_0
Time_Shift_6
Note_On_73_Vel_62
Time_Shift_117
Note_On_72_Vel_0
Time_Shift_4
Note_On_72_Vel_57
Time_Shift_236
Note_On_82_Vel_64
Time_Shift_10
Note_On_44_Vel_37
Time_Shift_22
Note_On_70_Vel_0
Note_On_73_Vel_0
Note_On_72_Vel_0
Note_On_75_Vel_0
Time_Shift_1
Note_On_52_Vel_0
Sustain_Off
Time_Shift_1
Note_On_43_Vel_0
Time_Shift_18
Note_On_61_Vel_0
Time_Shift_153
Sustain_On
Time_Shift_268
Note_On_80_Vel_57
Time_Shift_12
Note_On_51_Vel_31
Time_Shift_415
Note_On_78_Vel_60
Time_Shift_13
Note_On_60_Vel_29
Time_Shift_407
Note_On_68_Vel_49
Time_Shift_2
Note_On_66_Vel_41
Time_Shift_500
Note_On_75_Vel_53
Time_Shift_31
Note_On_32_Vel_31
Time_Shift_22
Sustain_Off
Time_Shift_1
Note_On_51_Vel_0
Note_On_78_Vel_0
Note_On_66_Vel_0
Note_On_44_Vel_0
Time_Shift_1
Note_On_60_Vel_0
Time_Shift_1
Note_On_80_Vel_0
Note_On_82_Vel_0
Note_On_68_Vel_0
Time_Shift_163
Sustain_On
Time_Shift_238
Note_On_44_Vel_41
Time_Shift_61
Note_On_32_Vel_0
Time_Shift_377
Note_On_54_Vel_29
Time_Shift_420
Note_On_60_Vel_33
Time_Shift_478
Note_On_73_Vel_46
Time_Shift_19
Note_On_37_Vel_27
Time_Shift_60
Note_On_60_Vel_0
Note_On_54_Vel_0
Time_Shift_1
Note_On_75_Vel_0
Note_On_44_Vel_0
Time_Shift_3
Sustain_Off
Time_Shift_178
Sustain_On
Time_Shift_200
Note_On_44_Vel_36
Time_Shift_444
Note_On_53_Vel_31
Time_Shift_549
Note_On_61_Vel_33
Time_Shift_706
Note_On_72_Vel_58
Time_Shift_18
Note_On_32_Vel_26
Time_Shift_27
Note_On_37_Vel_0
Time_Shift_2
Note_On_44_Vel_0
Note_On_73_Vel_0
Time_Shift_1
Note_On_61_Vel_0
Note_On_53_Vel_0
Time_Shift_2
Sustain_Off
Time_Shift_133
Sustain_On
Time_Shift_335
Note_On_44_Vel_30
Time_Shift_415
Note_On_51_Vel_40
Time_Shift_436
Note_On_60_Vel_36
Time_Shift_390
Note_On_73_Vel_56
Time_Shift_21
Note_On_32_Vel_0
Time_Shift_10
Note_On_32_Vel_27
Time_Shift_397
Note_On_44_Vel_0
Time_Shift_7
Note_On_44_Vel_39
Time_Shift_16
Note_On_72_Vel_0
Time_Shift_8
Note_On_72_Vel_62
Time_Shift_376
Note_On_51_Vel_0
Time_Shift_11
Note_On_51_Vel_41
Note_On_70_Vel_71
Time_Shift_396
Note_On_60_Vel_0
Time_Shift_5
Note_On_60_Vel_47
Note_On_68_Vel_67
Time_Shift_458
Note_On_67_Vel_67
Time_Shift_25
Note_On_34_Vel_35
Time_Shift_13
Note_On_44_Vel_0
Note_On_60_Vel_0
Time_Shift_1
Note_On_70_Vel_0
Note_On_68_Vel_0
Note_On_72_Vel_0
Time_Shift_1
Note_On_73_Vel_0
Sustain_Off
Time_Shift_12
Note_On_51_Vel_0
Time_Shift_7
Note_On_32_Vel_0
Time_Shift_131
Sustain_On
Time_Shift_250
Note_On_46_Vel_42
Time_Shift_400
Note_On_51_Vel_36
Time_Shift_46
Note_On_77_Vel_63
Time_Shift_415
Note_On_61_Vel_36
Time_Shift_424
Note_On_75_Vel_62
Time_Shift_16
Note_On_34_Vel_0
Time_Shift_5
Note_On_34_Vel_32
Time_Shift_410
Note_On_46_Vel_0
Time_Shift_5
Note_On_46_Vel_40
Time_Shift_410
Note_On_51_Vel_0
Time_Shift_5
Note_On_51_Vel_45
Time_Shift_456
Note_On_61_Vel_0
Time_Shift_8
Note_On_61_Vel_47
Time_Shift_537
Note_On_34_Vel_0
Time_Shift_5
Note_On_34_Vel_44
Note_On_73_Vel_71
Time_Shift_53
Sustain_Off
Time_Shift_1
Note_On_67_Vel_0
Time_Shift_1
Note_On_51_Vel_0
Time_Shift_1
Note_On_46_Vel_0
Time_Shift_2
Note_On_61_Vel_0
Time_Shift_1
Note_On_77_Vel_0
Note_On_75_Vel_0
Time_Shift_128
Sustain_On
Time_Shift_318
Note_On_46_Vel_53
Time_Shift_437
Note_On_52_Vel_45
Time_Shift_440
Note_On_61_Vel_47
Time_Shift_418
Note_On_34_Vel_0
Time_Shift_5
Note_On_34_Vel_42
Time_Shift_2
Note_On_75_Vel_76
Time_Shift_484
Note_On_46_Vel_0
Note_On_73_Vel_0
Time_Shift_5
Note_On_46_Vel_48
Time_Shift_6
Note_On_73_Vel_82
Time_Shift_398
Note_On_72_Vel_74
Time_Shift_14
Note_On_52_Vel_0
Time_Shift_11
Note_On_52_Vel_49
Time_Shift_365
Note_On_61_Vel_0
Time_Shift_9
Note_On_61_Vel_50
Time_Shift_4
Note_On_70_Vel_83
Time_Shift_436
Note_On_69_Vel_74
Time_Shift_24
Note_On_36_Vel_44
Time_Shift_24
Note_On_34_Vel_0
Time_Shift_2
Note_On_46_Vel_0
Note_On_72_Vel_0
Note_On_61_Vel_0
Time_Shift_1
Note_On_70_Vel_0
Note_On_52_Vel_0
Note_On_75_Vel_0
Sustain_Off
Time_Shift_14
Note_On_73_Vel_0
Time_Shift_85
Sustain_On
Time_Shift_303
Note_On_48_Vel_51
Time_Shift_385
Note_On_53_Vel_53
Time_Shift_4
Note_On_78_Vel_84
Time_Shift_447
Note_On_63_Vel_62
Time_Shift_443
Note_On_36_Vel_0
Time_Shift_11
Note_On_36_Vel_39
Note_On_77_Vel_71
Time_Shift_419
Note_On_48_Vel_0
Time_Shift_5
Note_On_48_Vel_48
Time_Shift_387
Note_On_53_Vel_0
Time_Shift_7
Note_On_53_Vel_57
Time_Shift_70
Note_On_69_Vel_0
Time_Shift_407
Note_On_63_Vel_0
Time_Shift_9
Note_On_63_Vel_60
Time_Shift_562
Note_On_37_Vel_52
Time_Shift_20
Note_On_77_Vel_0
Time_Shift_11
Note_On_77_Vel_86
Time_Shift_29
Sustain_Off
Time_Shift_1
Note_On_36_Vel_0
Time_Shift_1
Note_On_53_Vel_0
Note_On_63_Vel_0
Note_On_48_Vel_0
Note_On_78_Vel_0
Time_Shift_119
Sustain_On
Time_Shift_347
Note_On_49_Vel_52
Time_Shift_406
Note_On_37_Vel_0
Time_Shift_17
Note_On_58_Vel_55
Time_Shift_422
Note_On_65_Vel_44
Time_Shift_406
Note_On_78_Vel_83
Time_Shift_26
Note_On_37_Vel_47
Time_Shift_457
Note_On_77_Vel_0
Time_Shift_5
Note_On_77_Vel_84
Time_Shift_11
Note_On_49_Vel_0
Time_Shift_5
Note_On_49_Vel_55
Time_Shift_371
Note_On_58_Vel_0
Time_Shift_3
Note_On_75_Vel_82
Time_Shift_5
Note_On_58_Vel_63
Time_Shift_368
Note_On_53_Vel_50
Note_On_65_Vel_0
Time_Shift_4
Note_On_65_Vel_57
Time_Shift_4
Note_On_53_Vel_0
Time_Shift_9
Note_On_73_Vel_85
Time_Shift_398
Note_On_39_Vel_59
Time_Shift_39
Note_On_73_Vel_0
Time_Shift_7
Note_On_73_Vel_86
Time_Shift_41
Note_On_37_Vel_0
Note_On_58_Vel_0
Time_Shift_1
Note_On_65_Vel_0
Note_On_49_Vel_0
Note_On_78_Vel_0
Note_On_75_Vel_0
Note_On_77_Vel_0
Time_Shift_4
Sustain_Off
Time_Shift_131
Sustain_On
Time_Shift_324
Note_On_51_Vel_50
Time_Shift_401
Note_On_72_Vel_64
Time_Shift_9
Note_On_58_Vel_48
Time_Shift_367
Note_On_66_Vel_62
Time_Shift_435
Note_On_39_Vel_0
Time_Shift_13
Note_On_41_Vel_59
Time_Shift_10
Sustain_Off
Time_Shift_1
Note_On_51_Vel_0
Note_On_58_Vel_0
Time_Shift_68
Sustain_On
Time_Shift_361
Note_On_72_Vel_0
Time_Shift_4
Note_On_72_Vel_69
Time_Shift_6
Note_On_53_Vel_51
Time_Shift_429
Note_On_58_Vel_50
Time_Shift_25
Note_On_75_Vel_65
Time_Shift_58
Note_On_73_Vel_0
Time_Shift_11
Note_On_73_Vel_71
Time_Shift_417
Note_On_65_Vel_43
Time_Shift_95
Note_On_66_Vel_0
Time_Shift_199
Note_On_72_Vel_0
Time_Shift_10
Note_On_72_Vel_57
Time_Shift_244
Note_On_72_Vel_0
Time_Shift_10
Note_On_72_Vel_64
Time_Shift_18
Note_On_42_Vel_40
Time_Shift_3
Sustain_Off
Time_Shift_2
Note_On_58_Vel_0
Note_On_41_Vel_0
Note_On_73_Vel_0
Note_On_75_Vel_0
Time_Shift_1
Note_On_65_Vel_0
Note_On_53_Vel_0
Time_Shift_112
Sustain_On
Time_Shift_301
Note_On_51_Vel_37
Time_Shift_75
Note_On_42_Vel_0
Time_Shift_325
Note_On_58_Vel_38
Time_Shift_2
Note_On_70_Vel_63
Time_Shift_425
Note_On_63_Vel_41
Time_Shift_478
Note_On_63_Vel_0
Note_On_58_Vel_0
Time_Shift_1
Note_On_51_Vel_0
Time_Shift_1
Sustain_Off
Time_Shift_34
Note_On_42_Vel_41
Time_Shift_47
Sustain_On
Time_Shift_154
Note_On_42_Vel_0
Time_Shift_153
Note_On_70_Vel_0
Time_Shift_8
Note_On_70_Vel_17
Time_Shift_113
Note_On_54_Vel_36
Time_Shift_79
Note_On_72_Vel_0
Time_Shift_4
Note_On_72_Vel_49
Time_Shift_353
Note_On_58_Vel_34
Time_Shift_1
Note_On_75_Vel_48
Time_Shift_51
Note_On_73_Vel_55
Time_Shift_503
Note_On_64_Vel_40
Time_Shift_325
Note_On_70_Vel_0
Note_On_72_Vel_0
Time_Shift_4
Note_On_72_Vel_46
Time_Shift_1
Note_On_70_Vel_38
Time_Shift_309
Note_On_72_Vel_0
Time_Shift_12
Note_On_72_Vel_49
Time_Shift_7
Note_On_73_Vel_0
Time_Shift_1
Note_On_75_Vel_0
Note_On_64_Vel_0
Note_On_58_Vel_0
Note_On_54_Vel_0
Time_Shift_1
Note_On_70_Vel_0
Time_Shift_4
Sustain_Off
Time_Shift_4
Note_On_41_Vel_34
Time_Shift_148
Sustain_On
Time_Shift_388
Note_On_48_Vel_33
Time_Shift_413
Note_On_77_Vel_59
Time_Shift_2
Note_On_57_Vel_35
Time_Shift_452
Note_On_65_Vel_32
Time_Shift_540
Note_On_78_Vel_66
Time_Shift_6
Sustain_Off
Time_Shift_15
Note_On_48_Vel_0
Note_On_41_Vel_0
Note_On_65_Vel_0
Note_On_57_Vel_0
Time_Shift_2
Note_On_77_Vel_0
Time_Shift_18
Note_On_72_Vel_0
Time_Shift_4
Note_On_39_Vel_29
Time_Shift_149
Sustain_On
Time_Shift_357
Note_On_51_Vel_31
Time_Shift_522
Note_On_68_Vel_47
Time_Shift_4
Note_On_39_Vel_0
Time_Shift_2
Note_On_56_Vel_35
Time_Shift_701
Note_On_60_Vel_25
Time_Shift_4
Note_On_66_Vel_20
Time_Shift_903
Note_On_77_Vel_50
Time_Shift_1
Note_On_37_Vel_26
Time_Shift_17
Sustain_Off
Time_Shift_6
Note_On_56_Vel_0
Time_Shift_1
Note_On_60_Vel_0
Note_On_78_Vel_0
Time_Shift_2
Note_On_51_Vel_0
Time_Shift_2
Note_On_66_Vel_0
Time_Shift_20
Note_On_68_Vel_0
Time_Shift_154
Sustain_On
Time_Shift_322
Note_On_44_Vel_34
Time_Shift_445
Note_On_53_Vel_28
Time_Shift_430
Note_On_61_Vel_28
Time_Shift_457
Note_On_78_Vel_59
Time_Shift_28
Note_On_37_Vel_0
Time_Shift_5
Note_On_37_Vel_29
Time_Shift_448
Note_On_44_Vel_0
Note_On_77_Vel_0
Time_Shift_9
Note_On_44_Vel_31
Time_Shift_1
Note_On_77_Vel_56
Time_Shift_420
Note_On_53_Vel_0
Time_Shift_5
Note_On_53_Vel_27
Time_Shift_5
Note_On_75_Vel_54
Time_Shift_420
Note_On_61_Vel_0
Time_Shift_4
Note_On_61_Vel_39
Time_Shift_5
Note_On_73_Vel_51
Time_Shift_491
Note_On_72_Vel_49
Time_Shift_11
Note_On_37_Vel_0
Note_On_75_Vel_0
Time_Shift_1
Note_On_73_Vel_0
Note_On_44_Vel_0
Time_Shift_1
Note_On_61_Vel_0
Note_On_77_Vel_0
Note_On_53_Vel_0
Sustain_Off
Time_Shift_2
Note_On_78_Vel_0
Time_Shift_14
Note_On_39_Vel_29
Time_Shift_132
Sustain_On
Time_Shift_308
Note_On_44_Vel_23
Time_Shift_413
Note_On_54_Vel_34
Time_Shift_4
Note_On_82_Vel_58
Time_Shift_454
Note_On_60_Vel_23
Time_Shift_474
Note_On_80_Vel_54
Time_Shift_28
Note_On_39_Vel_0
Time_Shift_5
Note_On_39_Vel_25
Time_Shift_402
Note_On_44_Vel_0
Time_Shift_9
Note_On_44_Vel_32
Time_Shift_399
Note_On_72_Vel_0
Time_Shift_23
Note_On_54_Vel_0
Time_Shift_4
Note_On_54_Vel_30
Time_Shift_472
Note_On_60_Vel_0
Time_Shift_11
Note_On_60_Vel_27
Time_Shift_623
Note_On_78_Vel_68
Time_Shift_22
Note_On_32_Vel_26
Time_Shift_18
Sustain_Off
Time_Shift_5
Note_On_39_Vel_0
Time_Shift_3
Note_On_54_Vel_0
Time_Shift_1
Note_On_82_Vel_0
Note_On_80_Vel_0
Time_Shift_23
Note_On_60_Vel_0
Time_Shift_77
Sustain_On
Time_Shift_330
Note_On_44_Vel_0
Time_Shift_8
Note_On_44_Vel_41
Time_Shift_161
Note_On_32_Vel_0
Time_Shift_282
Note_On_54_Vel_35
Time_Shift_445
Note_On_60_Vel_35
Time_Shift_498
Note_On_32_Vel_32
Time_Shift_1
Note_On_80_Vel_56
Time_Shift_464
Note_On_44_Vel_0
Time_Shift_9
Note_On_44_Vel_34
Time_Shift_22
Note_On_78_Vel_0
Time_Shift_7
Note_On_78_Vel_72
Time_Shift_415
Note_On_54_Vel_0
Time_Shift_9
Note_On_77_Vel_63
Time_Shift_2
Note_On_54_Vel_32
Time_Shift_396
Note_On_60_Vel_0
Time_Shift_9
Note_On_60_Vel_37
Time_Shift_4
Note_On_75_Vel_63
Time_Shift_428
Note_On_73_Vel_54
Time_Shift_1
Note_On_37_Vel_33
Time_Shift_9
Note_On_32_Vel_0
Time_Shift_5
Note_On_60_Vel_0
Note_On_80_Vel_0
Sustain_Off
Time_Shift_1
Note_On_78_Vel_0
Note_On_77_Vel_0
Time_Shift_2
Note_On_75_Vel_0
Time_Shift_10
Note_On_54_Vel_0
Time_Shift_7
Note_On_44_Vel_0
Time_Shift_131
Sustain_On
Time_Shift_260
Note_On_44_Vel_40
Time_Shift_440
Note_On_53_Vel_31
Time_Shift_2
Note_On_85_Vel_61
Time_Shift_446
Note_On_61_Vel_37
Time_Shift_490
Note_On_80_Vel_56
Time_Shift_5
Note_On_37_Vel_0
Time_Shift_7
Note_On_37_Vel_29
Time_Shift_423
Note_On_44_Vel_0
Time_Shift_7
Note_On_44_Vel_39
Time_Shift_431
Note_On_53_Vel_0
Time_Shift_6
Note_On_53_Vel_31
Time_Shift_225
Note_On_73_Vel_0
Note_On_85_Vel_0
Time_Shift_261
Note_On_61_Vel_0
Time_Shift_4
Note_On_61_Vel_27
Time_Shift_598
Note_On_77_Vel_57
Time_Shift_4
Note_On_37_Vel_0
Time_Shift_5
Sustain_Off
Time_Shift_5
Note_On_44_Vel_0
Note_On_37_Vel_28
Time_Shift_1
Note_On_53_Vel_0
Note_On_80_Vel_0
Time_Shift_1
Note_On_61_Vel_0
Time_Shift_111
Sustain_On
Time_Shift_312
Note_On_44_Vel_38
Time_Shift_431
Note_On_53_Vel_34
Time_Shift_467
Note_On_61_Vel_35
Time_Shift_536
Note_On_78_Vel_64
Time_Shift_9
Note_On_34_Vel_24
Time_Shift_12
Note_On_37_Vel_0
Time_Shift_3
Note_On_44_Vel_0
Time_Shift_1
Note_On_53_Vel_0
Time_Shift_1
Note_On_61_Vel_0
Sustain_Off
Note_On_77_Vel_0
Time_Shift_156
Sustain_On
Time_Shift_325
Note_On_77_Vel_55
Time_Shift_4
Note_On_46_Vel_30
Time_Shift_412
Note_On_75_Vel_52
Time_Shift_25
Note_On_56_Vel_35
Time_Shift_413
Note_On_62_Vel_36
Time_Shift_12
Note_On_74_Vel_44
Time_Shift_360
Note_On_75_Vel_0
Time_Shift_5
Note_On_75_Vel_52
Time_Shift_87
Note_On_77_Vel_0
Time_Shift_6
Note_On_77_Vel_48
Time_Shift_2
Note_On_34_Vel_0
Time_Shift_54
Note_On_75_Vel_0
Time_Shift_11
Note_On_75_Vel_59
Time_Shift_9
Note_On_39_Vel_33
Time_Shift_64
Note_On_78_Vel_0
Note_On_56_Vel_0
Time_Shift_1
Note_On_62_Vel_0
Note_On_74_Vel_0
Note_On_46_Vel_0
Time_Shift_9
Sustain_Off
Time_Shift_152
Sustain_On
Time_Shift_53
Note_On_77_Vel_0
Time_Shift_148
Note_On_74_Vel_57
Time_Shift_25
Note_On_46_Vel_40
Time_Shift_357
Note_On_75_Vel_0
Time_Shift_9
Note_On_75_Vel_66
Time_Shift_21
Note_On_54_Vel_40
Time_Shift_397
Note_On_77_Vel_64
Time_Shift_11
Note_On_54_Vel_0
Time_Shift_8
Note_On_54_Vel_29
Time_Shift_13
Note_On_63_Vel_45
Time_Shift_484
Note_On_42_Vel_40
Time_Shift_5
Note_On_78_Vel_63
Time_Shift_46
Note_On_74_Vel_0
Note_On_54_Vel_0
Sustain_Off
Time_Shift_1
Note_On_46_Vel_0
Note_On_75_Vel_0
Note_On_63_Vel_0
Note_On_77_Vel_0
Time_Shift_19
Note_On_39_Vel_0
Time_Shift_131
Sustain_On
Time_Shift_281
Note_On_70_Vel_56
Time_Shift_3
Note_On_51_Vel_34
Time_Shift_420
Note_On_58_Vel_37
Time_Shift_1
Note_On_77_Vel_46
Time_Shift_485
Note_On_75_Vel_51
Time_Shift_22
Note_On_63_Vel_27
Time_Shift_375
Note_On_72_Vel_42
Time_Shift_163
Note_On_73_Vel_51
Time_Shift_126
Note_On_43_Vel_38
Time_Shift_25
Note_On_42_Vel_0
Time_Shift_1
Note_On_63_Vel_0
Time_Shift_1
Note_On_51_Vel_0
Note_On_58_Vel_0
Note_On_70_Vel_0
Time_Shift_1
Note_On_77_Vel_0
Note_On_75_Vel_0
Time_Shift_1
Note_On_72_Vel_0
Note_On_78_Vel_0
Time_Shift_1
Note_On_73_Vel_0
Time_Shift_3
Sustain_Off
Time_Shift_7
Note_On_75_Vel_53
Time_Shift_103
Sustain_On
Time_Shift_44
Note_On_73_Vel_49
Time_Shift_118
Note_On_75_Vel_0
Time_Shift_5
Note_On_75_Vel_55
Time_Shift_133
Note_On_73_Vel_0
Time_Shift_9
Note_On_73_Vel_50
Time_Shift_2
Note_On_52_Vel_33
Time_Shift_112
Note_On_75_Vel_0
Time_Shift_10
Note_On_75_Vel_61
Time_Shift_120
Note_On_73_Vel_0
Time_Shift_5
Note_On_73_Vel_58
Time_Shift_80
Note_On_75_Vel_0
Time_Shift_9
Note_On_75_Vel_60
Time_Shift_45
Note_On_73_Vel_0
Time_Shift_4
Note_On_61_Vel_49
Time_Shift_6
Note_On_73_Vel_56
Time_Shift_74
Note_On_75_Vel_0
Time_Shift_8
Note_On_75_Vel_59
Time_Shift_61
Note_On_73_Vel_0
Time_Shift_5
Note_On_73_Vel_58
Time_Shift_72
Note_On_75_Vel_0
Time_Shift_11
Note_On_75_Vel_62
Time_Shift_74
Note_On_73_Vel_0
Time_Shift_9
Note_On_73_Vel_54
Time_Shift_29
Note_On_75_Vel_0
Time_Shift_8
Note_On_75_Vel_63
Time_Shift_28
Note_On_70_Vel_54
Time_Shift_48
Note_On_73_Vel_0
Time_Shift_5
Note_On_73_Vel_60
Time_Shift_98
Note_On_72_Vel_58
Time_Shift_97
Note_On_73_Vel_0
Time_Shift_7
Note_On_73_Vel_63
Time_Shift_108
Note_On_72_Vel_0
Time_Shift_10
Note_On_72_Vel_63
Time_Shift_217
Note_On_82_Vel_65
Time_Shift_23
Note_On_44_Vel_36
Time_Shift_6
Note_On_70_Vel_0
Note_On_61_Vel_0
Time_Shift_1
Note_On_52_Vel_0
Note_On_72_Vel_0
Note_On_75_Vel_0
Note_On_73_Vel_0
Time_Shift_1
Note_On_43_Vel_0
Sustain_Off
Time_Shift_165
Sustain_On
Time_Shift_267
Note_On_80_Vel_60
Time_Shift_14
Note_On_51_Vel_33
Time_Shift_411
Note_On_78_Vel_67
Time_Shift_2
Note_On_60_Vel_35
Time_Shift_422
Note_On_68_Vel_46
Time_Shift_1
Note_On_66_Vel_39
Time_Shift_523
Note_On_75_Vel_56
Time_Shift_29
Sustain_Off
Time_Shift_2
Note_On_51_Vel_0
Note_On_66_Vel_0
Note_On_60_Vel_0
Note_On_82_Vel_0
Note_On_80_Vel_0
Note_On_78_Vel_0
Note_On_68_Vel_0
Time_Shift_2
Note_On_44_Vel_0
Time_Shift_3
Note_On_32_Vel_21
Time_Shift_159
Sustain_On
Time_Shift_185
Note_On_32_Vel_0
Time_Shift_93
Note_On_44_Vel_38
Time_Shift_434
Note_On_54_Vel_30
Time_Shift_424
Note_On_60_Vel_36
Time_Shift_465
Note_On_73_Vel_49
Time_Shift_37
Note_On_37_Vel_27
Time_Shift_25
Note_On_44_Vel_0
Note_On_54_Vel_0
Note_On_60_Vel_0
Time_Shift_1
Sustain_Off
Time_Shift_1
Note_On_75_Vel_0
Time_Shift_171
Sustain_On
Time_Shift_226
Note_On_44_Vel_34
Time_Shift_431
Note_On_53_Vel_31
Time_Shift_535
Note_On_61_Vel_26
Time_Shift_647
Note_On_72_Vel_57
Note_On_32_Vel_26
Time_Shift_39
Sustain_Off
Time_Shift_3
Note_On_37_Vel_0
Time_Shift_7
Note_On_44_Vel_0
Time_Shift_2
Note_On_73_Vel_0
Note_On_61_Vel_0
Time_Shift_1
Note_On_53_Vel_0
Time_Shift_136
Sustain_On
Time_Shift_363
Note_On_44_Vel_41
Time_Shift_449
Note_On_51_Vel_44
Time_Shift_462
Note_On_60_Vel_35
Time_Shift_500
Note_On_32_Vel_0
Time_Shift_10
Note_On_32_Vel_29
Time_Shift_1
Note_On_73_Vel_55
Time_Shift_450
Note_On_44_Vel_0
Note_On_72_Vel_0
Time_Shift_8
Note_On_44_Vel_43
Time_Shift_3
Note_On_72_Vel_64
Time_Shift_408
Note_On_70_Vel_71
Time_Shift_27
Note_On_51_Vel_0
Time_Shift_11
Note_On_51_Vel_39
Time_Shift_365
Note_On_60_Vel_0
Time_Shift_3
Note_On_68_Vel_73
Time_Shift_5
Note_On_60_Vel_48
Time_Shift_439
Note_On_67_Vel_76
Time_Shift_39
Note_On_34_Vel_36
Time_Shift_1
Note_On_46_Vel_36
Time_Shift_23
Sustain_Off
Note_On_32_Vel_0
Time_Shift_1
Note_On_51_Vel_0
Note_On_68_Vel_0
Note_On_72_Vel_0
Note_On_73_Vel_0
Note_On_70_Vel_0
Time_Shift_1
Note_On_44_Vel_0
Time_Shift_10
Note_On_60_Vel_0
Time_Shift_154
Sustain_On
Time_Shift_222
Note_On_46_Vel_0
Time_Shift_12
Note_On_46_Vel_47
Time_Shift_443
Note_On_77_Vel_68
Note_On_51_Vel_36
Time_Shift_434
Note_On_61_Vel_35
Time_Shift_417
Note_On_34_Vel_0
Time_Shift_3
Note_On_75_Vel_66
Time_Shift_2
Note_On_34_Vel_31
Time_Shift_402
Note_On_46_Vel_0
Time_Shift_11
Note_On_46_Vel_45
Time_Shift_412
Note_On_51_Vel_0
Time_Shift_10
Note_On_51_Vel_44
Time_Shift_443
Note_On_61_Vel_0
Time_Shift_9
Note_On_61_Vel_38
Time_Shift_306
Note_On_67_Vel_0
Note_On_77_Vel_0
Time_Shift_222
Note_On_34_Vel_0
Time_Shift_1
Note_On_73_Vel_76
Time_Shift_10
Note_On_34_Vel_36
Time_Shift_39
Note_On_51_Vel_0
Time_Shift_1
Note_On_61_Vel_0
Note_On_46_Vel_0
Time_Shift_1
Note_On_75_Vel_0
Sustain_Off
Time_Shift_133
Sustain_On
Time_Shift_280
Note_On_46_Vel_47
Time_Shift_432
Note_On_52_Vel_49
Time_Shift_461
Note_On_61_Vel_47
Time_Shift_386
Note_On_34_Vel_0
Time_Shift_3
Note_On_75_Vel_71
Time_Shift_5
Note_On_34_Vel_38
Time_Shift_468
Note_On_46_Vel_0
Note_On_73_Vel_0
Time_Shift_9
Note_On_46_Vel_45
Time_Shift_1
Note_On_73_Vel_74
Time_Shift_397
Note_On_52_Vel_0
Time_Shift_6
Note_On_72_Vel_73
Time_Shift_5
Note_On_52_Vel_48
Time_Shift_373
Note_On_61_Vel_0
Time_Shift_10
Note_On_61_Vel_53
Time_Shift_1
Note_On_70_Vel_82
Time_Shift_431
Note_On_69_Vel_75
Time_Shift_15
Note_On_36_Vel_44
Time_Shift_40
Sustain_Off
Time_Shift_1
Note_On_72_Vel_0
Note_On_73_Vel_0
Note_On_46_Vel_0
Time_Shift_1
Note_On_75_Vel_0
Note_On_70_Vel_0
Time_Shift_1
Note_On_52_Vel_0
Note_On_61_Vel_0
Time_Shift_14
Note_On_34_Vel_0
Time_Shift_108
Sustain_On
Time_Shift_283
Note_On_48_Vel_40
Time_Shift_392
Note_On_78_Vel_84
Time_Shift_3
Note_On_53_Vel_49
Time_Shift_444
Note_On_63_Vel_59
Time_Shift_463
Note_On_77_Vel_76
Time_Shift_5
Note_On_36_Vel_0
Time_Shift_4
Note_On_36_Vel_41
Time_Shift_403
Note_On_48_Vel_0
Time_Shift_4
Note_On_48_Vel_46
Time_Shift_387
Note_On_53_Vel_0
Time_Shift_8
Note_On_53_Vel_62
Time_Shift_476
Note_On_63_Vel_0
Time_Shift_10
Note_On_63_Vel_69
Time_Shift_605
Note_On_77_Vel_0
Time_Shift_6
Note_On_77_Vel_82
Time_Shift_1
Note_On_37_Vel_50
Time_Shift_43
Sustain_Off
Note_On_36_Vel_0
Time_Shift_3
Note_On_69_Vel_0
Time_Shift_1
Note_On_78_Vel_0
Time_Shift_1
Note_On_53_Vel_0
Note_On_63_Vel_0
Time_Shift_1
Note_On_48_Vel_0
Time_Shift_128
Sustain_On
Time_Shift_336
Note_On_49_Vel_51
Time_Shift_427
Note_On_58_Vel_57
Time_Shift_404
Note_On_65_Vel_52
Time_Shift_384
Note_On_37_Vel_0
Time_Shift_9
Note_On_78_Vel_84
Note_On_37_Vel_48
Time_Shift_467
Note_On_49_Vel_0
Note_On_77_Vel_0
Time_Shift_4
Note_On_77_Vel_80
Time_Shift_3
Note_On_49_Vel_49
Time_Shift_374
Note_On_75_Vel_78
Time_Shift_3
Note_On_58_Vel_0
Time_Shift_6
Note_On_58_Vel_54
Time_Shift_394
Note_On_65_Vel_0
Time_Shift_10
Note_On_65_Vel_52
Time_Shift_2
Note_On_73_Vel_80
Time_Shift_416
Note_On_39_Vel_47
Time_Shift_56
Note_On_73_Vel_0
Time_Shift_10
Note_On_73_Vel_83
Time_Shift_3
Note_On_58_Vel_0
Note_On_49_Vel_0
Time_Shift_1
Note_On_37_Vel_0
Note_On_78_Vel_0
Note_On_75_Vel_0
Time_Shift_1
Note_On_65_Vel_0
Time_Shift_1
Note_On_77_Vel_0
Time_Shift_7
Sustain_Off
Time_Shift_107
Sustain_On
Time_Shift_352
Note_On_51_Vel_45
Time_Shift_437
Note_On_72_Vel_60
Time_Shift_1
Note_On_58_Vel_44
Time_Shift_403
Note_On_66_Vel_53
Time_Shift_67
Note_On_39_Vel_0
Time_Shift_382
Note_On_58_Vel_0
Note_On_51_Vel_0
Time_Shift_3
Note_On_72_Vel_0
Time_Shift_1
Sustain_Off
Time_Shift_23
Note_On_41_Vel_49
Time_Shift_36
Sustain_On
Time_Shift_461
Note_On_72_Vel_58
Time_Shift_4
Note_On_53_Vel_38
Time_Shift_398
Note_On_58_Vel_41
Time_Shift_11
Note_On_75_Vel_57
Time_Shift_63
Note_On_73_Vel_0
Time_Shift_5
Note_On_73_Vel_58
Time_Shift_475
Note_On_65_Vel_38
Time_Shift_342
Note_On_72_Vel_0
Time_Shift_4
Note_On_72_Vel_46
Time_Shift_280
Note_On_72_Vel_0
Time_Shift_6
Note_On_72_Vel_51
Time_Shift_5
Note_On_42_Vel_39
Time_Shift_17
Note_On_41_Vel_0
Note_On_58_Vel_0
Note_On_73_Vel_0
Note_On_75_Vel_0
Time_Shift_1
Note_On_65_Vel_0
Note_On_53_Vel_0
Time_Shift_1
Sustain_Off
Time_Shift_124
Sustain_On
Time_Shift_320
Note_On_51_Vel_32
Time_Shift_25
Note_On_42_Vel_0
Time_Shift_162
Note_On_66_Vel_0
Time_Shift_219
Note_On_58_Vel_35
Time_Shift_1
Note_On_70_Vel_54
Time_Shift_445
Note_On_63_Vel_40
Time_Shift_498
Note_On_63_Vel_0
Time_Shift_1
Sustain_Off
Note_On_51_Vel_0
Note_On_58_Vel_0
Time_Shift_69
Note_On_42_Vel_34
Time_Shift_11
Sustain_On
Time_Shift_488
Note_On_54_Vel_20
Time_Shift_19
Note_On_42_Vel_0
Time_Shift_30
Note_On_72_Vel_0
Time_Shift_10
Note_On_72_Vel_43
Time_Shift_352
Note_On_75_Vel_45
Time_Shift_35
Note_On_58_Vel_26
Time_Shift_40
Note_On_73_Vel_45
Time_Shift_521
Note_On_64_Vel_38
Time_Shift_348
Note_On_72_Vel_0
Time_Shift_4
Note_On_72_Vel_46
Time_Shift_357
Note_On_72_Vel_0
Time_Shift_7
Note_On_72_Vel_60
Time_Shift_33
Sustain_Off
Time_Shift_1
Note_On_41_Vel_36
Time_Shift_4
Note_On_73_Vel_0
Time_Shift_1
Note_On_64_Vel_0
Note_On_58_Vel_0
Time_Shift_1
Note_On_75_Vel_0
Time_Shift_1
Note_On_54_Vel_0
Time_Shift_13
Note_On_70_Vel_0
Time_Shift_100
Sustain_On
Time_Shift_451
Note_On_48_Vel_30
Time_Shift_401
Note_On_57_Vel_39
Time_Shift_2
Note_On_77_Vel_61
Time_Shift_462
Note_On_65_Vel_34
Time_Shift_472
Note_On_41_Vel_0
Note_On_48_Vel_0
Time_Shift_1
Sustain_Off
Note_On_65_Vel_0
Note_On_57_Vel_0
Time_Shift_3
Note_On_77_Vel_0
Time_Shift_3
Note_On_78_Vel_67
Time_Shift_10
Note_On_72_Vel_0
Time_Shift_19
Note_On_39_Vel_30
Time_Shift_135
Sustain_On
Time_Shift_371
Note_On_51_Vel_24
Time_Shift_517
Note_On_56_Vel_36
Time_Shift_4
Note_On_68_Vel_45
Time_Shift_770
Note_On_60_Vel_26
Time_Shift_3
Note_On_66_Vel_31
Time_Shift_447
Note_On_39_Vel_0
Note_On_78_Vel_0
Time_Shift_692
Note_On_77_Vel_52
Time_Shift_27
Note_On_37_Vel_27
Time_Shift_22
Note_On_60_Vel_0
Note_On_56_Vel_0
Time_Shift_3
Note_On_51_Vel_0
Note_On_68_Vel_0
Time_Shift_1
Note_On_66_Vel_0
Sustain_Off
Time_Shift_145
Sustain_On
Time_Shift_389
Note_On_44_Vel_32
Time_Shift_426
Note_On_53_Vel_35
Time_Shift_452
Note_On_61_Vel_31
Time_Shift_492
Note_On_37_Vel_0
Time_Shift_10
Note_On_37_Vel_30
Time_Shift_2
Note_On_78_Vel_58
Time_Shift_495
Note_On_77_Vel_0
Time_Shift_4
Note_On_77_Vel_51
Time_Shift_34
Note_On_44_Vel_0
Time_Shift_5
Note_On_44_Vel_33
Time_Shift_391
Note_On_75_Vel_52
Time_Shift_11
Note_On_53_Vel_0
Time_Shift_7
Note_On_53_Vel_33
Time_Shift_424
Note_On_61_Vel_0
Time_Shift_4
Note_On_73_Vel_55
Time_Shift_5
Note_On_61_Vel_39
Time_Shift_464
Note_On_72_Vel_54
Time_Shift_16
Note_On_73_Vel_0
Note_On_44_Vel_0
Note_On_61_Vel_0
Time_Shift_1
Note_On_53_Vel_0
Note_On_75_Vel_0
Note_On_77_Vel_0
Time_Shift_2
Note_On_78_Vel_0
Time_Shift_3
Sustain_Off
Time_Shift_4
Note_On_37_Vel_0
Time_Shift_16
Note_On_39_Vel_31
Time_Shift_122
Sustain_On
Time_Shift_295
Note_On_44_Vel_36
Time_Shift_470
Note_On_54_Vel_32
Note_On_82_Vel_53
Time_Shift_460
Note_On_60_Vel_37
Time_Shift_460
Note_On_80_Vel_52
Time_Shift_5
Note_On_39_Vel_0
Time_Shift_5
Note_On_39_Vel_31
Time_Shift_432
Note_On_44_Vel_0
Time_Shift_5
Note_On_44_Vel_34
Time_Shift_441
Note_On_54_Vel_0
Time_Shift_6
Note_On_54_Vel_34
Time_Shift_432
Note_On_72_Vel_0
Note_On_82_Vel_0
Time_Shift_61
Note_On_60_Vel_0
Time_Shift_9
Note_On_60_Vel_29
Time_Shift_612
Note_On_78_Vel_67
Time_Shift_30
Note_On_39_Vel_0
Time_Shift_3
Note_On_54_Vel_0
Note_On_44_Vel_0
Time_Shift_1
Note_On_80_Vel_0
Time_Shift_1
Note_On_60_Vel_0
Time_Shift_1
Note_On_32_Vel_27
Time_Shift_11
Sustain_Off
Time_Shift_146
Sustain_On
Time_Shift_305
Note_On_44_Vel_42
Time_Shift_429
Note_On_54_Vel_32
Time_Shift_433
Note_On_60_Vel_31
Time_Shift_475
Note_On_80_Vel_55
Time_Shift_2
Note_On_32_Vel_0
Time_Shift_10
Note_On_32_Vel_26
Time_Shift_473
Note_On_78_Vel_0
Time_Shift_8
Note_On_78_Vel_71
Time_Shift_31
Note_On_32_Vel_0
Note_On_44_Vel_0
Time_Shift_4
Note_On_32_Vel_27
Note_On_44_Vel_31
Time_Shift_413
Note_On_77_Vel_63
Time_Shift_21
Note_On_54_Vel_0
Time_Shift_10
Note_On_54_Vel_29
Time_Shift_381
Note_On_60_Vel_0
Time_Shift_9
Note_On_60_Vel_35
Time_Shift_2
Note_On_75_Vel_61
Time_Shift_536
Note_On_73_Vel_60
Time_Shift_9
Note_On_37_Vel_34
Time_Shift_23
Sustain_Off
Time_Shift_1
Note_On_32_Vel_0
Time_Shift_3
Note_On_60_Vel_0
Time_Shift_1
Note_On_54_Vel_0
Time_Shift_2
Note_On_80_Vel_0
Note_On_78_Vel_0
Note_On_44_Vel_0
Time_Shift_1
Note_On_75_Vel_0
Note_On_77_Vel_0
Time_Shift_127
Sustain_On
Time_Shift_297
Note_On_44_Vel_44
Time_Shift_450
Note_On_85_Vel_65
Time_Shift_3
Note_On_53_Vel_34
Time_Shift_483
Note_On_61_Vel_33
Time_Shift_518
Note_On_80_Vel_56
Time_Shift_8
Note_On_37_Vel_0
Time_Shift_11
Note_On_37_Vel_37
Time_Shift_458
Note_On_44_Vel_0
Time_Shift_10
Note_On_44_Vel_39
Time_Shift_435
Note_On_53_Vel_0
Time_Shift_9
Note_On_53_Vel_35
Time_Shift_414
Note_On_73_Vel_0
Note_On_85_Vel_0
Time_Shift_76
Note_On_61_Vel_0
Time_Shift_11
Note_On_61_Vel_31
Time_Shift_616
Note_On_77_Vel_55
Time_Shift_34
Note_On_37_Vel_0
Time_Shift_4
Note_On_37_Vel_29
Time_Shift_5
Note_On_44_Vel_0
Note_On_53_Vel_0
Time_Shift_1
Note_On_61_Vel_0
Note_On_80_Vel_0
Time_Shift_7
Sustain_Off
Time_Shift_90
Sustain_On
Time_Shift_364
Note_On_44_Vel_37
Time_Shift_425
Note_On_53_Vel_34
Time_Shift_511
Note_On_61_Vel_30
Time_Shift_638
Note_On_78_Vel_65
Time_Shift_12
Note_On_34_Vel_28
Time_Shift_30
Sustain_Off
Time_Shift_13
Note_On_37_Vel_0
Time_Shift_2
Note_On_53_Vel_0
Note_On_44_Vel_0
Time_Shift_4
Note_On_61_Vel_0
Time_Shift_106
Sustain_On
Time_Shift_400
Note_On_46_Vel_37
Time_Shift_30
Note_On_77_Vel_0
Time_Shift_10
Note_On_77_Vel_53
Time_Shift_445
Note_On_75_Vel_56
Time_Shift_13
Note_On_34_Vel_0
Time_Shift_11
Note_On_56_Vel_33
Time_Shift_445
Note_On_62_Vel_33
Time_Shift_8
Note_On_74_Vel_39
Time_Shift_465
Note_On_75_Vel_0
Time_Shift_8
Note_On_75_Vel_48
Time_Shift_100
Note_On_77_Vel_0
Time_Shift_11
Note_On_77_Vel_42
Time_Shift_58
Note_On_75_Vel_0
Time_Shift_4
Note_On_75_Vel_51
Time_Shift_1
Note_On_39_Vel_35
Time_Shift_64
Note_On_75_Vel_0
Time_Shift_2
Note_On_74_Vel_0
Note_On_56_Vel_0
Time_Shift_1
Note_On_62_Vel_0
Note_On_78_Vel_0
Time_Shift_1
Note_On_77_Vel_0
Time_Shift_1
Note_On_75_Vel_33
Sustain_Off
Time_Shift_18
Note_On_46_Vel_0
Time_Shift_115
Sustain_On
Time_Shift_275
Note_On_74_Vel_51
Time_Shift_3
Note_On_58_Vel_37
Time_Shift_3
Note_On_46_Vel_38
Time_Shift_4
Note_On_58_Vel_0
Time_Shift_407
Note_On_75_Vel_0
Time_Shift_8
Note_On_75_Vel_62
Time_Shift_24
Note_On_54_Vel_30
Time_Shift_414
Note_On_77_Vel_61
Time_Shift_19
Note_On_63_Vel_37
Time_Shift_1
Note_On_70_Vel_32
Time_Shift_490
Note_On_78_Vel_63
Time_Shift_3
Note_On_42_Vel_37
Time_Shift_27
Note_On_54_Vel_0
Sustain_Off
Note_On_63_Vel_0
Note_On_74_Vel_0
Note_On_46_Vel_0
Note_On_39_Vel_0
Time_Shift_1
Note_On_77_Vel_0
Note_On_75_Vel_0
Time_Shift_119
Note_On_70_Vel_0
Time_Shift_30
Sustain_On
Time_Shift_388
Note_On_51_Vel_33
Time_Shift_43
Note_On_70_Vel_53
Time_Shift_446
Note_On_77_Vel_49
Time_Shift_3
Note_On_58_Vel_37
Time_Shift_509
Note_On_75_Vel_50
Time_Shift_2
Note_On_63_Vel_34
Time_Shift_479
Note_On_72_Vel_43
Time_Shift_200
Note_On_73_Vel_47
Time_Shift_122
Note_On_43_Vel_36
Time_Shift_51
Note_On_63_Vel_0
Time_Shift_2
Note_On_58_Vel_0
Note_On_51_Vel_0
Time_Shift_1
Note_On_77_Vel_0
Note_On_70_Vel_0
Note_On_72_Vel_0
Time_Shift_1
Note_On_78_Vel_0
Sustain_Off
Time_Shift_1
Note_On_73_Vel_0
Time_Shift_18
Note_On_42_Vel_0
Note_On_75_Vel_0
Time_Shift_8
Note_On_75_Vel_49
Time_Shift_76
Sustain_On
Time_Shift_71
Note_On_73_Vel_51
Time_Shift_106
Note_On_75_Vel_0
Time_Shift_11
Note_On_75_Vel_54
Time_Shift_112
Note_On_73_Vel_0
Time_Shift_4
Note_On_73_Vel_50
Time_Shift_39
Note_On_52_Vel_36
Time_Shift_72
Note_On_75_Vel_0
Time_Shift_11
Note_On_75_Vel_57
Time_Shift_104
Note_On_73_Vel_0
Time_Shift_11
Note_On_73_Vel_44
Time_Shift_43
Note_On_75_Vel_0
Time_Shift_11
Note_On_75_Vel_56
Time_Shift_66
Note_On_73_Vel_0
Time_Shift_8
Note_On_73_Vel_52
Time_Shift_81
Note_On_61_Vel_43
Time_Shift_11
Note_On_75_Vel_0
Time_Shift_5
Note_On_75_Vel_59
Time_Shift_79
Note_On_73_Vel_0
Time_Shift_10
Note_On_73_Vel_55
Time_Shift_59
Note_On_75_Vel_0
Time_Shift_4
Note_On_75_Vel_55
Time_Shift_58
Note_On_73_Vel_0
Time_Shift_5
Note_On_73_Vel_58
Time_Shift_87
Note_On_75_Vel_0
Time_Shift_5
Note_On_75_Vel_60
Time_Shift_87
Note_On_73_Vel_0
Time_Shift_10
Note_On_73_Vel_52
Time_Shift_36
Note_On_75_Vel_0
Time_Shift_11
Note_On_75_Vel_57
Time_Shift_33
Note_On_70_Vel_45
Time_Shift_48
Note_On_73_Vel_0
Time_Shift_5
Note_On_73_Vel_49
Time_Shift_138
Note_On_72_Vel_49
Time_Shift_149
Note_On_73_Vel_0
Time_Shift_5
Note_On_73_Vel_49
Time_Shift_133
Note_On_72_Vel_0
Time_Shift_5
Note_On_72_Vel_45
Time_Shift_280
Note_On_82_Vel_58
Time_Shift_30
Note_On_44_Vel_34
Time_Shift_9
Note_On_70_Vel_0
Time_Shift_1
Note_On_61_Vel_0
Sustain_Off
Time_Shift_1
Note_On_52_Vel_0
Note_On_72_Vel_0
Note_On_43_Vel_0
Time_Shift_1
Note_On_73_Vel_0
Time_Shift_19
Note_On_75_Vel_0
Time_Shift_131
Sustain_On
Time_Shift_355
Note_On_80_Vel_53
Time_Shift_4
Note_On_51_Vel_33
Time_Shift_468
Note_On_60_Vel_36
Time_Shift_3
Note_On_78_Vel_57
Time_Shift_3
Note_On_75_Vel_31
Time_Shift_11
Note_On_75_Vel_0
Time_Shift_456
Note_On_68_Vel_50
Time_Shift_32
Note_On_66_Vel_37
Time_Shift_512
Note_On_75_Vel_55
Time_Shift_34
Note_On_32_Vel_24
Time_Shift_19
Sustain_Off
Time_Shift_3
Note_On_66_Vel_0
Note_On_60_Vel_0
Note_On_78_Vel_0
Time_Shift_1
Note_On_51_Vel_0
Note_On_82_Vel_0
Note_On_44_Vel_0
Note_On_80_Vel_0
Time_Shift_1
Note_On_68_Vel_0
Time_Shift_156
Sustain_On
Time_Shift_184
Note_On_32_Vel_0
Time_Shift_141
Note_On_44_Vel_28
Time_Shift_493
Note_On_54_Vel_28
Time_Shift_598
Note_On_60_Vel_33
Time_Shift_977
Note_On_73_Vel_41
Time_Shift_22
Note_On_53_Vel_27
Time_Shift_8
Note_On_61_Vel_29
Time_Shift_4
Note_On_49_Vel_30
Time_Shift_133
Note_On_54_Vel_0
Note_On_75_Vel_0
Note_On_44_Vel_0
Time_Shift_1
Note_On_60_Vel_0
Time_Shift_7
Sustain_Off
Time_Shift_220
Sustain_On
Time_Shift_1946
Note_On_53_Vel_0
Time_Shift_6
Note_On_73_Vel_0
Time_Shift_3
Note_On_49_Vel_0
Time_Shift_18
Note_On_61_Vel_0
Time_Shift_19
Sustain_Off
Time_Shift_219
Sustain_On
Time_Shift_698
Note_On_53_Vel_34
Time_Shift_6
Note_On_41_Vel_30
Time_Shift_2
Note_On_46_Vel_33
Note_On_58_Vel_36
Time_Shift_4
Note_On_34_Vel_29
Time_Shift_980
Note_On_58_Vel_0
Time_Shift_5
Note_On_58_Vel_34
Time_Shift_12
Note_On_49_Vel_25
Time_Shift_3
Note_On_54_Vel_29
Time_Shift_1
Note_On_42_Vel_23
Time_Shift_4
Note_On_30_Vel_26
Sustain_Off
Time_Shift_1
Note_On_34_Vel_0
Time_Shift_2
Note_On_41_Vel_0
Time_Shift_1
Note_On_53_Vel_0
Time_Shift_2
Note_On_30_Vel_0
Time_Shift_130
Sustain_On
Time_Shift_592
Note_On_58_Vel_0
Time_Shift_9
Note_On_58_Vel_34
Time_Shift_221
Note_On_58_Vel_0
Time_Shift_6
Note_On_58_Vel_39
Time_Shift_25
Note_On_46_Vel_0
Time_Shift_3
Note_On_53_Vel_34
Time_Shift_1
Note_On_46_Vel_27
Time_Shift_3
Note_On_41_Vel_30
Time_Shift_12
Sustain_Off
Note_On_49_Vel_0
Time_Shift_1
Note_On_54_Vel_0
Time_Shift_26
Note_On_42_Vel_0
Time_Shift_130
Sustain_On
Time_Shift_787
Note_On_49_Vel_25
Time_Shift_1
Sustain_Off
Note_On_54_Vel_27
Time_Shift_2
Note_On_41_Vel_0
Time_Shift_1
Note_On_42_Vel_23
Time_Shift_2
Note_On_53_Vel_0
Time_Shift_2
Note_On_37_Vel_23
Time_Shift_158
Sustain_On
Time_Shift_775
Note_On_58_Vel_0
Time_Shift_5
Note_On_58_Vel_41
Time_Shift_9
Note_On_41_Vel_32
Time_Shift_4
Note_On_53_Vel_37
Time_Shift_6
Note_On_46_Vel_0
Time_Shift_4
Note_On_46_Vel_31
Time_Shift_5
Sustain_Off
Time_Shift_1
Note_On_34_Vel_26
Time_Shift_4
Note_On_54_Vel_0
Time_Shift_2
Note_On_49_Vel_0
Time_Shift_2
Note_On_37_Vel_0
Note_On_42_Vel_0
Time_Shift_150
Sustain_On
Time_Shift_784
Note_On_58_Vel_0
Time_Shift_4
Note_On_58_Vel_43
Time_Shift_2
Note_On_42_Vel_34
Time_Shift_5
Note_On_30_Vel_32
Time_Shift_1
Note_On_49_Vel_29
Time_Shift_5
Note_On_54_Vel_40
Time_Shift_3
Note_On_37_Vel_30
Time_Shift_3
Note_On_30_Vel_0
Time_Shift_10
Sustain_Off
Time_Shift_1
Note_On_34_Vel_0
Time_Shift_1
Note_On_46_Vel_0
Time_Shift_1
Note_On_41_Vel_0
Note_On_53_Vel_0
Time_Shift_156
Sustain_On
Time_Shift_530
Note_On_58_Vel_0
Time_Shift_9
Note_On_58_Vel_43
Time_Shift_206
Note_On_58_Vel_0
Time_Shift_10
Note_On_58_Vel_42
Time_Shift_27
Note_On_46_Vel_34
Note_On_53_Vel_44
Time_Shift_4
Note_On_41_Vel_33
Time_Shift_2
Note_On_34_Vel_32
Time_Shift_2
Sustain_Off
Time_Shift_1
Note_On_37_Vel_0
Note_On_54_Vel_0
Time_Shift_3
Note_On_49_Vel_0
Note_On_42_Vel_0
Time_Shift_143
Sustain_On
Time_Shift_826
Note_On_54_Vel_41
Time_Shift_1
Note_On_42_Vel_35
Time_Shift_6
Note_On_30_Vel_35
Note_On_49_Vel_34
Time_Shift_4
Note_On_30_Vel_0
Time_Shift_11
Note_On_37_Vel_31
Time_Shift_30
Sustain_Off
Time_Shift_1
Note_On_34_Vel_0
Time_Shift_1
Note_On_46_Vel_0
Note_On_41_Vel_0
Time_Shift_1
Note_On_53_Vel_0
Time_Shift_148
Sustain_On
Time_Shift_768
Note_On_58_Vel_0
Time_Shift_9
Note_On_58_Vel_66
Time_Shift_22
Sustain_Off
Time_Shift_2
Note_On_53_Vel_50
Time_Shift_1
Note_On_46_Vel_42
Note_On_41_Vel_38
Time_Shift_3
Note_On_49_Vel_0
Time_Shift_1
Note_On_54_Vel_0
Time_Shift_2
Note_On_37_Vel_0
Time_Shift_1
Note_On_42_Vel_0
Note_On_34_Vel_35
Time_Shift_136
Sustain_On
Time_Shift_814
Note_On_58_Vel_0
Time_Shift_11
Note_On_58_Vel_64
Time_Shift_7
Note_On_54_Vel_60
Time_Shift_7
Note_On_49_Vel_48
Note_On_42_Vel_45
Time_Shift_10
Note_On_37_Vel_41
Time_Shift_27
Sustain_Off
Time_Shift_2
Note_On_34_Vel_0
Time_Shift_1
Note_On_46_Vel_0
Time_Shift_1
Note_On_41_Vel_0
Time_Shift_26
Note_On_53_Vel_0
Time_Shift_77
Sustain_On
Time_Shift_622
Note_On_58_Vel_0
Time_Shift_6
Note_On_58_Vel_64
Time_Shift_209
Note_On_58_Vel_0
Time_Shift_10
Note_On_58_Vel_69
Time_Shift_6
Note_On_53_Vel_56
Time_Shift_1
Note_On_41_Vel_42
Time_Shift_2
Note_On_46_Vel_45
Time_Shift_2
Note_On_37_Vel_0
Time_Shift_2
Note_On_49_Vel_0
Time_Shift_2
Note_On_54_Vel_0
Time_Shift_1
Sustain_Off
Note_On_42_Vel_0
Time_Shift_3
Note_On_34_Vel_38
Time_Shift_132
Sustain_On
Time_Shift_810
Note_On_61_Vel_75
Time_Shift_4
Note_On_58_Vel_0
Time_Shift_5
Note_On_54_Vel_63
Time_Shift_5
Note_On_58_Vel_59
Time_Shift_3
Note_On_42_Vel_49
Time_Shift_5
Note_On_49_Vel_54
Time_Shift_2
Note_On_37_Vel_50
Time_Shift_20
Note_On_34_Vel_0
Time_Shift_2
Note_On_41_Vel_0
Time_Shift_1
Note_On_46_Vel_0
Sustain_Off
Time_Shift_2
Note_On_53_Vel_0
Time_Shift_147
Sustain_On
Time_Shift_580
Note_On_60_Vel_71
Time_Shift_127
Note_On_61_Vel_0
Time_Shift_10
Note_On_61_Vel_66
Time_Shift_66
Note_On_60_Vel_0
Time_Shift_8
Note_On_58_Vel_0
Time_Shift_3
Note_On_60_Vel_63
Time_Shift_3
Note_On_53_Vel_54
Time_Shift_1
Note_On_41_Vel_45
Time_Shift_4
Note_On_46_Vel_48
Note_On_58_Vel_49
Time_Shift_3
Note_On_34_Vel_46
Time_Shift_20
Note_On_61_Vel_0
Note_On_49_Vel_0
Time_Shift_1
Note_On_54_Vel_0
Note_On_37_Vel_0
Time_Shift_1
Note_On_42_Vel_0
Time_Shift_4
Sustain_Off
Time_Shift_206
Sustain_On
Time_Shift_476
Note_On_58_Vel_0
Time_Shift_9
Note_On_58_Vel_58
Time_Shift_206
Note_On_58_Vel_0
Time_Shift_2
Sustain_Off
Time_Shift_3
Note_On_58_Vel_52
Time_Shift_7
Note_On_46_Vel_0
Time_Shift_10
Note_On_53_Vel_0
Time_Shift_3
Note_On_42_Vel_35
Time_Shift_1
Note_On_54_Vel_46
Note_On_30_Vel_34
Time_Shift_2
Note_On_41_Vel_0
Time_Shift_3
Note_On_30_Vel_0
Note_On_34_Vel_0
Note_On_60_Vel_0
Time_Shift_3
Note_On_49_Vel_33
Time_Shift_7
Note_On_37_Vel_31
Time_Shift_128
Sustain_On
Time_Shift_591
Note_On_58_Vel_0
Time_Shift_6
Note_On_58_Vel_53
Time_Shift_217
Note_On_58_Vel_0
Time_Shift_6
Note_On_46_Vel_41
Time_Shift_4
Note_On_41_Vel_37
Time_Shift_1
Note_On_58_Vel_45
Note_On_34_Vel_37
Note_On_53_Vel_43
Time_Shift_3
Sustain_Off
Note_On_54_Vel_0
Time_Shift_3
Note_On_49_Vel_0
Time_Shift_2
Note_On_42_Vel_0
Note_On_37_Vel_0
Time_Shift_188
Sustain_On
Time_Shift_740
Note_On_42_Vel_38
Note_On_54_Vel_44
Time_Shift_2
Note_On_49_Vel_38
Time_Shift_7
Note_On_30_Vel_36
Time_Shift_4
Note_On_30_Vel_0
Time_Shift_4
Sustain_Off
Note_On_37_Vel_37
Time_Shift_8
Note_On_34_Vel_0
Time_Shift_4
Note_On_41_Vel_0
Time_Shift_15
Note_On_53_Vel_0
Time_Shift_138
Sustain_On
Time_Shift_795
Note_On_61_Vel_76
Time_Shift_4
Note_On_46_Vel_0
Note_On_58_Vel_0
Time_Shift_4
Note_On_58_Vel_55
Time_Shift_1
Note_On_46_Vel_47
Time_Shift_1
Note_On_53_Vel_53
Time_Shift_2
Note_On_34_Vel_44
Time_Shift_2
Note_On_41_Vel_42
Time_Shift_15
Sustain_Off
Time_Shift_1
Note_On_54_Vel_0
Time_Shift_1
Note_On_37_Vel_0
Note_On_49_Vel_0
Note_On_42_Vel_0
Time_Shift_96
Sustain_On
Time_Shift_829
Note_On_61_Vel_0
Time_Shift_8
Note_On_58_Vel_0
Time_Shift_3
Note_On_61_Vel_71
Time_Shift_7
Note_On_49_Vel_52
Time_Shift_1
Note_On_58_Vel_64
Time_Shift_1
Note_On_42_Vel_49
Time_Shift_2
Note_On_54_Vel_62
Time_Shift_4
Note_On_37_Vel_48
Time_Shift_26
Sustain_Off
Time_Shift_6
Note_On_34_Vel_0
Time_Shift_1
Note_On_41_Vel_0
Time_Shift_2
Note_On_46_Vel_0
Time_Shift_24
Note_On_53_Vel_0
Time_Shift_130
Sustain_On
Time_Shift_568
Note_On_61_Vel_0
Time_Shift_11
Note_On_61_Vel_74
Time_Shift_205
Note_On_61_Vel_0
Time_Shift_4
Note_On_61_Vel_71
Time_Shift_3
Note_On_58_Vel_0
Time_Shift_1
Note_On_41_Vel_45
Time_Shift_2
Note_On_53_Vel_56
Note_On_34_Vel_49
Note_On_46_Vel_52
Time_Shift_6
Note_On_58_Vel_56
Time_Shift_21
Note_On_37_Vel_0
Time_Shift_2
Note_On_54_Vel_0
Time_Shift_1
Note_On_49_Vel_0
Time_Shift_8
Sustain_Off
Time_Shift_21
Note_On_42_Vel_0
Time_Shift_76
Sustain_On
Time_Shift_827
Note_On_65_Vel_76
Time_Shift_3
Note_On_61_Vel_0
Time_Shift_6
Note_On_42_Vel_49
Time_Shift_3
Note_On_61_Vel_71
Time_Shift_3
Note_On_37_Vel_52
Time_Shift_3
Note_On_49_Vel_57
Time_Shift_2
Note_On_54_Vel_61
Time_Shift_40
Note_On_34_Vel_0
Sustain_Off
Note_On_41_Vel_0
Time_Shift_1
Note_On_46_Vel_0
Time_Shift_1
Note_On_53_Vel_0
Time_Shift_25
Note_On_58_Vel_0
Time_Shift_85
Sustain_On
Time_Shift_618
Note_On_63_Vel_76
Time_Shift_7
Note_On_60_Vel_58
Time_Shift_127
Note_On_65_Vel_0
Time_Shift_9
Note_On_65_Vel_60
Time_Shift_45
Note_On_63_Vel_0
Time_Shift_11
Note_On_63_Vel_84
Time_Shift_5
Note_On_60_Vel_0
Time_Shift_4
Note_On_60_Vel_58
Time_Shift_1
Note_On_46_Vel_56
Note_On_53_Vel_61
Time_Shift_2
Note_On_34_Vel_56
Note_On_41_Vel_55
Time_Shift_18
Note_On_65_Vel_0
Note_On_49_Vel_0
Time_Shift_1
Note_On_54_Vel_0
Note_On_37_Vel_0
Time_Shift_7
Sustain_Off
Time_Shift_5
Note_On_42_Vel_0
Time_Shift_8
Note_On_61_Vel_0
Time_Shift_107
Sustain_On
Time_Shift_589
Note_On_61_Vel_69
Time_Shift_7
Note_On_58_Vel_60
Time_Shift_203
Note_On_61_Vel_0
Time_Shift_8
Note_On_58_Vel_0
Time_Shift_2
Note_On_61_Vel_72
Time_Shift_3
Note_On_42_Vel_50
Time_Shift_1
Note_On_58_Vel_62
Time_Shift_4
Note_On_30_Vel_45
Note_On_49_Vel_50
Time_Shift_2
Sustain_Off
Time_Shift_1
Note_On_46_Vel_0
Note_On_54_Vel_57
Time_Shift_1
Note_On_34_Vel_0
Time_Shift_1
Note_On_30_Vel_0
Time_Shift_2
Note_On_41_Vel_0
Time_Shift_6
Note_On_60_Vel_0
Time_Shift_7
Note_On_53_Vel_0
Note_On_63_Vel_0
Time_Shift_100
Sustain_On
Time_Shift_599
Note_On_61_Vel_0
Time_Shift_8
Note_On_58_Vel_0
Time_Shift_2
Note_On_61_Vel_65
Time_Shift_6
Note_On_58_Vel_62
Time_Shift_199
Note_On_61_Vel_0
Time_Shift_8
Note_On_58_Vel_0
Time_Shift_4
Note_On_61_Vel_71
Time_Shift_1
Note_On_46_Vel_57
Time_Shift_1
Note_On_49_Vel_0
Time_Shift_2
Note_On_58_Vel_61
Time_Shift_1
Note_On_54_Vel_0
Time_Shift_3
Note_On_42_Vel_0
Time_Shift_2
Note_On_53_Vel_59
Time_Shift_1
Note_On_41_Vel_44
Time_Shift_3
Sustain_Off
Time_Shift_112
Sustain_On
Time_Shift_814
Note_On_54_Vel_68
Time_Shift_8
Note_On_49_Vel_58
Time_Shift_3
Note_On_42_Vel_52
Time_Shift_7
Note_On_30_Vel_51
Time_Shift_5
Sustain_Off
Note_On_41_Vel_0
Time_Shift_1
Note_On_37_Vel_48
Note_On_30_Vel_0
Time_Shift_1
Note_On_46_Vel_0
Time_Shift_6
Note_On_53_Vel_0
Time_Shift_108
Sustain_On
Time_Shift_415
Note_On_61_Vel_0
Time_Shift_464
Note_On_70_Vel_89
Time_Shift_5
Note_On_61_Vel_68
Time_Shift_8
Note_On_46_Vel_58
Time_Shift_2
Note_On_41_Vel_51
Time_Shift_1
Note_On_34_Vel_52
Time_Shift_8
Sustain_Off
Note_On_49_Vel_0
Time_Shift_1
Note_On_54_Vel_0
Time_Shift_2
Note_On_37_Vel_0
Note_On_42_Vel_0
Time_Shift_92
Sustain_On
Time_Shift_418
Note_On_68_Vel_81
Time_Shift_20
Note_On_58_Vel_0
Time_Shift_315
Note_On_68_Vel_0
Time_Shift_4
Note_On_68_Vel_78
Time_Shift_46
Note_On_58_Vel_58
Time_Shift_4
Note_On_61_Vel_0
Time_Shift_2
Note_On_66_Vel_72
Time_Shift_2
Note_On_61_Vel_63
Time_Shift_1
Note_On_42_Vel_47
Time_Shift_6
Note_On_49_Vel_50
Note_On_30_Vel_42
Time_Shift_7
Note_On_37_Vel_47
Time_Shift_5
Note_On_30_Vel_0
Time_Shift_34
Sustain_Off
Note_On_34_Vel_0
Note_On_41_Vel_0
Note_On_68_Vel_0
Note_On_70_Vel_0
Time_Shift_1
Note_On_46_Vel_0
Time_Shift_111
Sustain_On
Time_Shift_584
Note_On_65_Vel_66
Time_Shift_214
Note_On_65_Vel_0
Time_Shift_5
Note_On_65_Vel_65
Time_Shift_3
Note_On_58_Vel_0
Note_On_61_Vel_0
Time_Shift_3
Note_On_53_Vel_46
Time_Shift_2
Note_On_46_Vel_47
Time_Shift_1
Note_On_58_Vel_51
Note_On_41_Vel_41
Time_Shift_1
Note_On_34_Vel_41
Time_Shift_1
Note_On_53_Vel_0
Time_Shift_2
Note_On_61_Vel_53
Time_Shift_13
Note_On_66_Vel_0
Time_Shift_2
Note_On_49_Vel_0
Note_On_37_Vel_0
Time_Shift_1
Note_On_42_Vel_0
Time_Shift_1
Sustain_Off
Time_Shift_119
Sustain_On
Time_Shift_799
Note_On_58_Vel_0
Note_On_61_Vel_0
Time_Shift_4
Note_On_61_Vel_58
Time_Shift_6
Note_On_42_Vel_40
Note_On_49_Vel_39
Note_On_58_Vel_54
Time_Shift_3
Note_On_30_Vel_36
Time_Shift_6
Note_On_37_Vel_39
Time_Shift_3
Note_On_54_Vel_41
Time_Shift_1
Note_On_30_Vel_0
Time_Shift_5
Note_On_34_Vel_0
Time_Shift_2
Note_On_41_Vel_0
Time_Shift_3
Note_On_46_Vel_0
Time_Shift_1
Sustain_Off
Time_Shift_12
Note_On_65_Vel_0
Time_Shift_115
Sustain_On
Time_Shift_875
Note_On_61_Vel_0
Time_Shift_1
Note_On_70_Vel_86
Time_Shift_5
Note_On_61_Vel_67
Time_Shift_11
Note_On_46_Vel_59
Time_Shift_3
Note_On_41_Vel_46
Note_On_34_Vel_50
Time_Shift_26
Note_On_54_Vel_0
Time_Shift_4
Sustain_Off
Time_Shift_20
Note_On_42_Vel_0
Note_On_49_Vel_0
Time_Shift_92
Sustain_On
Time_Shift_365
Note_On_68_Vel_80
Time_Shift_364
Note_On_68_Vel_0
Time_Shift_8
Note_On_68_Vel_68
Time_Shift_46
Note_On_37_Vel_0
Note_On_58_Vel_0
Note_On_61_Vel_0
Time_Shift_1
Note_On_42_Vel_46
Time_Shift_4
Note_On_58_Vel_57
Time_Shift_1
Note_On_66_Vel_67
Note_On_61_Vel_59
Note_On_49_Vel_50
Time_Shift_2
Note_On_37_Vel_47
Time_Shift_51
Note_On_68_Vel_0
Note_On_34_Vel_0
Sustain_Off
Note_On_70_Vel_0
Note_On_41_Vel_0
Time_Shift_2
Note_On_46_Vel_0
Time_Shift_108
Sustain_On
Time_Shift_583
Note_On_65_Vel_63
Time_Shift_208
Note_On_65_Vel_0
Time_Shift_5
Note_On_41_Vel_36
Note_On_53_Vel_38
Time_Shift_1
Note_On_65_Vel_63
Note_On_46_Vel_41
Time_Shift_2
Note_On_58_Vel_0
Note_On_61_Vel_0
Time_Shift_3
Note_On_34_Vel_37
Time_Shift_1
Note_On_58_Vel_44
Time_Shift_5
Note_On_61_Vel_55
Time_Shift_16
Sustain_Off
Note_On_49_Vel_0
Time_Shift_1
Note_On_37_Vel_0
Note_On_66_Vel_0
Time_Shift_2
Note_On_42_Vel_0
Time_Shift_102
Sustain_On
Time_Shift_845
Note_On_61_Vel_0
Time_Shift_11
Note_On_61_Vel_57
Time_Shift_4
Note_On_58_Vel_0
Time_Shift_5
Note_On_58_Vel_45
Time_Shift_2
Note_On_49_Vel_34
Note_On_42_Vel_36
Time_Shift_6
Note_On_30_Vel_33
Time_Shift_2
Note_On_54_Vel_37
Time_Shift_6
Note_On_37_Vel_32
Time_Shift_2
Note_On_30_Vel_0
Time_Shift_2
Sustain_Off
Time_Shift_1
Note_On_41_Vel_0
Time_Shift_2
Note_On_46_Vel_0
Time_Shift_11
Note_On_34_Vel_0
Time_Shift_8
Note_On_65_Vel_0
Time_Shift_7
Note_On_53_Vel_0
Time_Shift_100
Sustain_On
Time_Shift_860
Note_On_58_Vel_0
Time_Shift_5
Note_On_58_Vel_46
Time_Shift_13
Note_On_53_Vel_48
Time_Shift_1
Note_On_46_Vel_38
Note_On_41_Vel_35
Time_Shift_3
Note_On_34_Vel_32
Time_Shift_4
Sustain_Off
Time_Shift_4
Note_On_49_Vel_0
Time_Shift_2
Note_On_37_Vel_0
Time_Shift_1
Note_On_42_Vel_0
Time_Shift_13
Note_On_54_Vel_0
Note_On_61_Vel_0
Time_Shift_123
Sustain_On
Time_Shift_814
Note_On_58_Vel_0
Time_Shift_11
Note_On_58_Vel_55
Time_Shift_14
Note_On_54_Vel_46
Time_Shift_3
Note_On_49_Vel_35
Time_Shift_6
Note_On_42_Vel_37
Time_Shift_5
Note_On_30_Vel_36
Time_Shift_3
Note_On_37_Vel_36
Time_Shift_1
Sustain_Off
Time_Shift_2
Note_On_41_Vel_0
Time_Shift_1
Note_On_46_Vel_0
Note_On_30_Vel_0
Note_On_34_Vel_0
Time_Shift_2
Note_On_53_Vel_0
Time_Shift_121
Sustain_On
Time_Shift_615
Note_On_58_Vel_0
Time_Shift_7
Note_On_58_Vel_51
Time_Shift_223
Note_On_58_Vel_0
Time_Shift_8
Note_On_58_Vel_61
Time_Shift_8
Note_On_41_Vel_34
Time_Shift_1
Note_On_53_Vel_48
Time_Shift_2
Note_On_46_Vel_39
Time_Shift_3
Note_On_34_Vel_36
Time_Shift_13
Note_On_37_Vel_0
Note_On_49_Vel_0
Time_Shift_1
Note_On_54_Vel_0
Time_Shift_1
Note_On_42_Vel_0
Time_Shift_1
Sustain_Off
Time_Shift_139
Sustain_On
Time_Shift_815
Note_On_61_Vel_65
Time_Shift_4
Note_On_42_Vel_41
Time_Shift_1
Note_On_49_Vel_42
Time_Shift_5
Note_On_54_Vel_53
Time_Shift_4
Note_On_37_Vel_38
Time_Shift_14
Sustain_Off
Note_On_34_Vel_0
Time_Shift_3
Note_On_41_Vel_0
Time_Shift_2
Note_On_53_Vel_0
Time_Shift_119
Sustain_On
Time_Shift_633
Note_On_60_Vel_62
Time_Shift_135
Note_On_61_Vel_0
Time_Shift_10
Note_On_61_Vel_59
Time_Shift_44
Note_On_46_Vel_0
Time_Shift_6
Note_On_41_Vel_41
Time_Shift_2
Note_On_61_Vel_0
Time_Shift_3
Note_On_46_Vel_40
Note_On_53_Vel_45
Time_Shift_1
Note_On_34_Vel_40
Note_On_61_Vel_49
Time_Shift_19
Note_On_49_Vel_0
Time_Shift_1
Note_On_37_Vel_0
Time_Shift_2
Sustain_Off
Note_On_54_Vel_0
Time_Shift_1
Note_On_42_Vel_0
Time_Shift_34
Note_On_61_Vel_0
Time_Shift_100
Sustain_On
Time_Shift_568
Note_On_58_Vel_0
Time_Shift_11
Note_On_58_Vel_53
Time_Shift_204
Note_On_58_Vel_0
Time_Shift_12
Note_On_58_Vel_47
Time_Shift_5
Sustain_Off
Time_Shift_2
Note_On_46_Vel_0
Time_Shift_1
Note_On_34_Vel_0
Note_On_49_Vel_40
Note_On_41_Vel_0
Note_On_42_Vel_37
Time_Shift_1
Note_On_53_Vel_0
Time_Shift_2
Note_On_60_Vel_0
Time_Shift_2
Note_On_54_Vel_45
Note_On_37_Vel_39
Time_Shift_129
Sustain_On
Time_Shift_607
Note_On_58_Vel_0
Time_Shift_10
Note_On_58_Vel_47
Time_Shift_228
Note_On_58_Vel_0
Time_Shift_4
Note_On_41_Vel_37
Time_Shift_1
Note_On_53_Vel_43
Time_Shift_2
Sustain_Off
Time_Shift_2
Note_On_34_Vel_35
Note_On_46_Vel_38
Time_Shift_1
Note_On_58_Vel_43
Time_Shift_2
Note_On_54_Vel_0
Time_Shift_3
Note_On_37_Vel_0
Note_On_49_Vel_0
Time_Shift_1
Note_On_42_Vel_0
Time_Shift_107
Sustain_On
Time_Shift_875
Sustain_Off
Time_Shift_1
Note_On_42_Vel_38
Time_Shift_1
Note_On_54_Vel_46
Time_Shift_1
Note_On_41_Vel_0
Note_On_46_Vel_0
Note_On_53_Vel_0
Time_Shift_1
Note_On_49_Vel_39
Time_Shift_10
Note_On_37_Vel_32
Time_Shift_63
Note_On_34_Vel_0
Time_Shift_15
Sustain_On
Time_Shift_964
Note_On_82_Vel_93
Time_Shift_8
Note_On_70_Vel_87
Time_Shift_1
Note_On_73_Vel_81
Time_Shift_1
Note_On_46_Vel_74
Time_Shift_2
Note_On_41_Vel_65
Time_Shift_3
Note_On_34_Vel_68
Time_Shift_10
Note_On_54_Vel_0
Time_Shift_4
Sustain_Off
Time_Shift_1
Note_On_49_Vel_0
Time_Shift_20
Note_On_37_Vel_0
Note_On_58_Vel_0
Time_Shift_39
Sustain_On
Time_Shift_434
Note_On_80_Vel_82
Time_Shift_2
Note_On_68_Vel_81
Time_Shift_201
Note_On_68_Vel_0
Time_Shift_10
Note_On_68_Vel_76
Time_Shift_59
Note_On_73_Vel_0
Time_Shift_4
Note_On_73_Vel_62
Time_Shift_42
Note_On_80_Vel_0
Time_Shift_6
Note_On_80_Vel_76
Time_Shift_85
Note_On_78_Vel_92
Time_Shift_5
Note_On_49_Vel_62
Time_Shift_2
Note_On_37_Vel_58
Time_Shift_2
Note_On_66_Vel_78
Time_Shift_5
Sustain_Off
Time_Shift_7
Note_On_34_Vel_0
Time_Shift_1
Note_On_68_Vel_0
Time_Shift_1
Note_On_70_Vel_0
Note_On_46_Vel_0
Time_Shift_1
Note_On_41_Vel_0
Time_Shift_2
Note_On_82_Vel_0
Time_Shift_44
Sustain_On
Time_Shift_70
Note_On_80_Vel_0
Time_Shift_573
Note_On_77_Vel_72
Time_Shift_1
Note_On_65_Vel_69
Time_Shift_194
Note_On_77_Vel_0
Time_Shift_7
Note_On_65_Vel_0
Note_On_73_Vel_0
Time_Shift_3
Note_On_77_Vel_82
Time_Shift_2
Note_On_65_Vel_67
Time_Shift_2
Note_On_41_Vel_51
Time_Shift_1
Note_On_46_Vel_55
Time_Shift_3
Note_On_73_Vel_68
Note_On_70_Vel_65
Time_Shift_1
Note_On_34_Vel_55
Time_Shift_6
Sustain_Off
Time_Shift_4
Note_On_49_Vel_0
Time_Shift_1
Note_On_37_Vel_0
Note_On_66_Vel_0
Time_Shift_1
Note_On_78_Vel_0
Time_Shift_22
Note_On_42_Vel_0
Time_Shift_77
Sustain_On
Time_Shift_830
Note_On_73_Vel_0
Time_Shift_4
Note_On_73_Vel_74
Time_Shift_3
Note_On_61_Vel_71
Note_On_70_Vel_0
Time_Shift_2
Note_On_42_Vel_58
Time_Shift_2
Note_On_49_Vel_59
Note_On_37_Vel_55
Note_On_70_Vel_74
Time_Shift_10
Sustain_Off
Time_Shift_6
Note_On_34_Vel_0
Time_Shift_5
Note_On_41_Vel_0
Note_On_46_Vel_0
Time_Shift_6
Note_On_77_Vel_0
Time_Shift_8
Note_On_65_Vel_0
Time_Shift_84
Sustain_On
Time_Shift_914
Note_On_70_Vel_0
Note_On_73_Vel_0
Time_Shift_5
Note_On_82_Vel_91
Time_Shift_6
Note_On_73_Vel_84
Note_On_70_Vel_89
Time_Shift_3
Note_On_46_Vel_77
Time_Shift_4
Note_On_41_Vel_63
Time_Shift_1
Note_On_34_Vel_68
Time_Shift_2
Sustain_Off
Time_Shift_3
Note_On_49_Vel_0
Time_Shift_2
Note_On_37_Vel_0
Time_Shift_5
Note_On_61_Vel_0
Time_Shift_23
Note_On_42_Vel_0
Time_Shift_46
Sustain_On
Time_Shift_426
Note_On_80_Vel_81
Time_Shift_1
Note_On_68_Vel_85
Time_Shift_203
Note_On_68_Vel_0
Time_Shift_5
Note_On_68_Vel_74
Time_Shift_48
Note_On_73_Vel_0
Time_Shift_9
Note_On_73_Vel_61
Time_Shift_53
Note_On_80_Vel_0
Time_Shift_11
Note_On_80_Vel_81
Time_Shift_53
Note_On_41_Vel_0
Note_On_34_Vel_0
Note_On_82_Vel_0
Time_Shift_1
Note_On_46_Vel_0
Note_On_68_Vel_0
Time_Shift_1
Sustain_Off
Time_Shift_9
Note_On_37_Vel_59
Time_Shift_2
Note_On_70_Vel_0
Time_Shift_2
Note_On_42_Vel_62
Note_On_49_Vel_59
Time_Shift_13
Note_On_73_Vel_0
Time_Shift_13
Note_On_78_Vel_77
Time_Shift_4
Note_On_66_Vel_73
Time_Shift_6
Sustain_On
Time_Shift_661
Note_On_80_Vel_0
Time_Shift_12
Note_On_65_Vel_69
Note_On_77_Vel_69
Time_Shift_203
Note_On_77_Vel_0
Time_Shift_3
Note_On_37_Vel_0
Note_On_49_Vel_0
Note_On_42_Vel_0
Time_Shift_2
Note_On_66_Vel_0
Sustain_Off
Time_Shift_1
Note_On_78_Vel_0
Time_Shift_1
Note_On_65_Vel_0
Time_Shift_3
Note_On_77_Vel_83
Time_Shift_1
Note_On_41_Vel_44
Time_Shift_3
Note_On_65_Vel_65
Time_Shift_3
Note_On_46_Vel_52
Time_Shift_2
Note_On_70_Vel_57
Time_Shift_1
Note_On_34_Vel_46
Time_Shift_3
Note_On_73_Vel_64
Time_Shift_69
Sustain_On
Time_Shift_883
Note_On_73_Vel_0
Time_Shift_9
Note_On_42_Vel_46
Time_Shift_1
Note_On_30_Vel_47
Note_On_73_Vel_66
Time_Shift_2
Note_On_66_Vel_47
Note_On_49_Vel_45
Time_Shift_3
Note_On_30_Vel_0
Note_On_70_Vel_0
Time_Shift_4
Note_On_37_Vel_46
Note_On_61_Vel_51
Time_Shift_1
Note_On_70_Vel_60
Time_Shift_8
Sustain_Off
Time_Shift_3
Note_On_41_Vel_0
Time_Shift_3
Note_On_34_Vel_0
Time_Shift_1
Note_On_65_Vel_0
Note_On_77_Vel_0
Note_On_46_Vel_0
Time_Shift_88
Sustain_On
Time_Shift_929
Note_On_70_Vel_0
Time_Shift_7
Note_On_70_Vel_77
Time_Shift_3
Note_On_65_Vel_61
Time_Shift_1
Note_On_53_Vel_47
Time_Shift_1
Note_On_34_Vel_41
Time_Shift_3
Note_On_46_Vel_45
Note_On_58_Vel_48
Time_Shift_2
Note_On_41_Vel_42
Time_Shift_10
Note_On_49_Vel_0
Note_On_42_Vel_0
Time_Shift_1
Sustain_Off
Note_On_37_Vel_0
Time_Shift_3
Note_On_66_Vel_0
Time_Shift_7
Note_On_73_Vel_0
Time_Shift_8
Note_On_61_Vel_0
Time_Shift_92
Sustain_On
Time_Shift_822
Note_On_70_Vel_0
Time_Shift_8
Note_On_70_Vel_76
Note_On_58_Vel_0
Time_Shift_4
Note_On_66_Vel_64
Time_Shift_2
Note_On_58_Vel_56
Time_Shift_7
Note_On_42_Vel_46
Time_Shift_3
Note_On_49_Vel_47
Time_Shift_3
Note_On_30_Vel_46
Time_Shift_1
Note_On_37_Vel_48
Time_Shift_3
Note_On_30_Vel_0
Time_Shift_11
Note_On_65_Vel_0
Time_Shift_1
Sustain_Off
Note_On_41_Vel_0
Time_Shift_1
Note_On_46_Vel_0
Time_Shift_10
Note_On_53_Vel_0
Time_Shift_8
Note_On_34_Vel_0
Time_Shift_99
Sustain_On
Time_Shift_607
Note_On_70_Vel_0
Time_Shift_5
Note_On_70_Vel_77
Time_Shift_3
Note_On_58_Vel_0
Time_Shift_7
Note_On_58_Vel_63
Time_Shift_192
Note_On_70_Vel_0
Time_Shift_8
Note_On_58_Vel_0
Time_Shift_2
Note_On_70_Vel_77
Time_Shift_1
Note_On_66_Vel_0
Sustain_Off
Note_On_42_Vel_0
Note_On_49_Vel_0
Time_Shift_1
Note_On_46_Vel_59
Time_Shift_1
Note_On_58_Vel_65
Time_Shift_1
Note_On_37_Vel_0
Time_Shift_1
Note_On_34_Vel_45
Time_Shift_3
Note_On_41_Vel_43
Time_Shift_1
Note_On_65_Vel_63
Time_Shift_74
Sustain_On
Time_Shift_855
Note_On_73_Vel_85
Time_Shift_5
Note_On_70_Vel_0
Time_Shift_2
Note_On_30_Vel_53
Time_Shift_1
Note_On_61_Vel_69
Time_Shift_1
Note_On_70_Vel_65
Note_On_66_Vel_70
Time_Shift_1
Note_On_42_Vel_53
Note_On_49_Vel_55
Time_Shift_2
Note_On_30_Vel_0
Time_Shift_3
Note_On_37_Vel_57
Time_Shift_6
Sustain_Off
Time_Shift_4
Note_On_65_Vel_0
Time_Shift_1
Note_On_34_Vel_0
Time_Shift_2
Note_On_58_Vel_0
Time_Shift_2
Note_On_41_Vel_0
Note_On_46_Vel_0
Time_Shift_82
Sustain_On
Time_Shift_685
Note_On_72_Vel_74
Time_Shift_2
Note_On_60_Vel_79
Time_Shift_4
Note_On_72_Vel_0
Time_Shift_184
Note_On_49_Vel_0
Time_Shift_2
Note_On_73_Vel_0
Note_On_37_Vel_0
Time_Shift_1
Note_On_61_Vel_0
Note_On_42_Vel_0
Time_Shift_1
Note_On_66_Vel_0
Sustain_Off
Time_Shift_4
Note_On_60_Vel_0
Time_Shift_5
Note_On_72_Vel_79
Time_Shift_3
Note_On_60_Vel_65
Time_Shift_6
Note_On_65_Vel_61
Time_Shift_1
Note_On_46_Vel_58
Time_Shift_1
Note_On_70_Vel_0
Time_Shift_2
Note_On_34_Vel_51
Time_Shift_2
Note_On_70_Vel_65
Time_Shift_57
Sustain_On
Time_Shift_699
Note_On_70_Vel_0
Time_Shift_11
Note_On_70_Vel_78
Time_Shift_3
Note_On_58_Vel_68
Time_Shift_190
Sustain_Off
Time_Shift_4
Note_On_70_Vel_0
Time_Shift_2
Note_On_65_Vel_0
Time_Shift_1
Note_On_72_Vel_0
Note_On_60_Vel_0
Time_Shift_1
Note_On_46_Vel_0
Time_Shift_3
Note_On_58_Vel_0
Note_On_70_Vel_80
Time_Shift_4
Note_On_58_Vel_66
Time_Shift_1
Note_On_66_Vel_69
Time_Shift_3
Note_On_34_Vel_0
Time_Shift_2
Note_On_49_Vel_61
Time_Shift_4
Note_On_42_Vel_53
Note_On_37_Vel_60
Time_Shift_3
Note_On_30_Vel_53
Time_Shift_6
Note_On_30_Vel_0
Time_Shift_62
Sustain_On
Time_Shift_699
Note_On_58_Vel_0
Note_On_70_Vel_0
Time_Shift_10
Note_On_70_Vel_80
Note_On_58_Vel_68
Time_Shift_170
Note_On_37_Vel_0
Note_On_49_Vel_0
Time_Shift_1
Note_On_66_Vel_0
Time_Shift_2
Sustain_Off
Time_Shift_9
Note_On_58_Vel_0
Note_On_70_Vel_0
Time_Shift_6
Note_On_70_Vel_91
Time_Shift_1
Note_On_42_Vel_0
Time_Shift_4
Note_On_46_Vel_72
Note_On_58_Vel_76
Note_On_65_Vel_68
Time_Shift_2
Note_On_41_Vel_58
Time_Shift_2
Note_On_34_Vel_62
Time_Shift_38
Sustain_On
Time_Shift_916
Note_On_34_Vel_0
Time_Shift_1
Note_On_41_Vel_0
Time_Shift_1
Note_On_70_Vel_0
Sustain_Off
Note_On_58_Vel_0
Note_On_65_Vel_0
Note_On_46_Vel_0
Time_Shift_77
Note_On_72_Vel_90
Time_Shift_5
Note_On_32_Vel_71
Time_Shift_1
Note_On_66_Vel_81
Note_On_44_Vel_75
Note_On_60_Vel_79
Time_Shift_1
Note_On_68_Vel_87
Time_Shift_112
Sustain_On
Time_Shift_903
Note_On_68_Vel_0
Note_On_66_Vel_0
Sustain_Off
Note_On_60_Vel_0
Time_Shift_1
Note_On_72_Vel_0
Time_Shift_10
Note_On_32_Vel_0
Note_On_44_Vel_0
Time_Shift_30
Note_On_73_Vel_92
Time_Shift_3
Note_On_37_Vel_79
Time_Shift_1
Note_On_25_Vel_85
Time_Shift_1
Note_On_61_Vel_85
Time_Shift_6
Note_On_65_Vel_80
Note_On_68_Vel_76
Time_Shift_28
Sustain_On
Time_Shift_945
Note_On_61_Vel_0
Note_On_65_Vel_0
Note_On_73_Vel_0
Time_Shift_3
Note_On_77_Vel_98
Time_Shift_2
Note_On_73_Vel_87
Time_Shift_3
Note_On_61_Vel_84
Note_On_65_Vel_82
Time_Shift_2
Note_On_56_Vel_78
Time_Shift_1
Note_On_49_Vel_72
Time_Shift_713
Note_On_66_Vel_88
Time_Shift_1
Note_On_63_Vel_75
Time_Shift_1
Note_On_78_Vel_88
Time_Shift_1
Note_On_75_Vel_75
Time_Shift_79
Note_On_49_Vel_0
Time_Shift_8
Note_On_49_Vel_71
Time_Shift_53
Note_On_56_Vel_0
Time_Shift_9
Note_On_56_Vel_69
Time_Shift_30
Note_On_68_Vel_0
Note_On_73_Vel_0
Time_Shift_4
Note_On_80_Vel_99
Time_Shift_5
Note_On_68_Vel_102
Time_Shift_2
Note_On_73_Vel_91
Time_Shift_12
Note_On_65_Vel_0
Time_Shift_6
Note_On_65_Vel_77
Time_Shift_654
Note_On_66_Vel_0
Time_Shift_8
Note_On_78_Vel_0
Time_Shift_4
Note_On_82_Vel_99
Note_On_66_Vel_81
Note_On_70_Vel_97
Time_Shift_4
Note_On_78_Vel_74
Time_Shift_77
Note_On_25_Vel_0
Time_Shift_46
Note_On_37_Vel_0
Time_Shift_43
Note_On_84_Vel_102
Time_Shift_3
Note_On_63_Vel_0
Note_On_68_Vel_0
Note_On_75_Vel_0
Note_On_80_Vel_0
Time_Shift_4
Note_On_72_Vel_98
Time_Shift_3
Note_On_80_Vel_94
Note_On_56_Vel_0
Note_On_61_Vel_0
Note_On_68_Vel_96
Time_Shift_3
Note_On_63_Vel_83
Time_Shift_1
Note_On_75_Vel_88
Note_On_56_Vel_83
Time_Shift_4
Note_On_49_Vel_0
Note_On_70_Vel_0
Time_Shift_31
Note_On_73_Vel_0
Time_Shift_330
Note_On_65_Vel_0
Time_Shift_341
Note_On_65_Vel_84
Note_On_85_Vel_100
Time_Shift_1
Note_On_73_Vel_95
Time_Shift_145
Note_On_72_Vel_0
Note_On_63_Vel_0
Note_On_56_Vel_0
Note_On_84_Vel_0
Note_On_80_Vel_0
Time_Shift_1
Note_On_66_Vel_0
Note_On_73_Vel_0
Time_Shift_1
Note_On_85_Vel_0
Note_On_65_Vel_0
Time_Shift_3
Note_On_68_Vel_0
Note_On_78_Vel_0
Time_Shift_2
Sustain_Off
Time_Shift_5
Note_On_77_Vel_0
Note_On_82_Vel_0
Time_Shift_8
Note_On_75_Vel_0
Time_Shift_49
Note_On_44_Vel_98
Note_On_80_Vel_101
Time_Shift_1
Note_On_84_Vel_98
Note_On_32_Vel_87
Time_Shift_1
Note_On_77_Vel_99
Time_Shift_1
Note_On_89_Vel_103
Time_Shift_9
Sustain_On
Time_Shift_950
Note_On_72_Vel_99
Time_Shift_1
Note_On_63_Vel_96
Note_On_66_Vel_89
Time_Shift_731
Note_On_66_Vel_0
Note_On_72_Vel_0
Time_Shift_5
Note_On_61_Vel_78
Time_Shift_5
Note_On_70_Vel_97
Time_Shift_1
Note_On_72_Vel_79
Note_On_66_Vel_81
Time_Shift_185
Sustain_Off
Time_Shift_12
Note_On_61_Vel_0
Note_On_66_Vel_0
Note_On_70_Vel_0
Time_Shift_4
Note_On_70_Vel_93
Time_Shift_1
Note_On_66_Vel_85
Time_Shift_2
Note_On_61_Vel_77
Note_On_80_Vel_0
Note_On_84_Vel_0
Sustain_On
Time_Shift_5
Note_On_80_Vel_87
Time_Shift_2
Note_On_87_Vel_94
Note_On_84_Vel_86
Time_Shift_5
Note_On_75_Vel_90
Time_Shift_710
Note_On_66_Vel_0
Time_Shift_4
Note_On_68_Vel_83
Time_Shift_1
Note_On_60_Vel_74
Note_On_66_Vel_70
Time_Shift_180
Note_On_32_Vel_0
Note_On_44_Vel_0
Note_On_60_Vel_0
Note_On_66_Vel_0
Note_On_68_Vel_0
Note_On_72_Vel_0
Note_On_77_Vel_0
Note_On_89_Vel_0
Time_Shift_6
Note_On_60_Vel_76
Note_On_72_Vel_68
Time_Shift_2
Note_On_66_Vel_76
Time_Shift_1
Note_On_68_Vel_86
Time_Shift_651
Note_On_63_Vel_0
Time_Shift_4
Note_On_57_Vel_77
Note_On_63_Vel_73
Time_Shift_11
Note_On_66_Vel_0
Note_On_75_Vel_0
Time_Shift_5
Note_On_75_Vel_81
Time_Shift_3
Note_On_72_Vel_0
Time_Shift_2
Note_On_66_Vel_80
Time_Shift_2
Note_On_78_Vel_87
Time_Shift_5
Note_On_72_Vel_78
Time_Shift_127
Note_On_68_Vel_0
Note_On_72_Vel_0
Note_On_60_Vel_0
Note_On_61_Vel_0
Time_Shift_1
Note_On_66_Vel_0
Note_On_70_Vel_0
Note_On_84_Vel_0
Note_On_57_Vel_0
Note_On_63_Vel_0
Note_On_75_Vel_0
Note_On_80_Vel_0
Time_Shift_1
Note_On_87_Vel_0
Time_Shift_1
Note_On_78_Vel_0
Sustain_Off
Time_Shift_39
Note_On_46_Vel_93
Time_Shift_1
Note_On_65_Vel_98
Note_On_77_Vel_97
Time_Shift_2
Note_On_34_Vel_78
Note_On_70_Vel_79
Time_Shift_19
Sustain_On
Time_Shift_883
Note_On_77_Vel_0
Time_Shift_8
Note_On_46_Vel_0
Note_On_65_Vel_0
Note_On_70_Vel_0
Time_Shift_3
Note_On_77_Vel_97
Time_Shift_5
Note_On_53_Vel_76
Time_Shift_1
Note_On_65_Vel_87
Note_On_46_Vel_77
Note_On_58_Vel_81
Time_Shift_2
Note_On_61_Vel_80
Note_On_70_Vel_90
Note_On_73_Vel_88
Time_Shift_728
Note_On_67_Vel_98
Note_On_79_Vel_95
Time_Shift_150
Sustain_Off
Time_Shift_1
Note_On_34_Vel_0
Time_Shift_2
Note_On_61_Vel_0
Time_Shift_1
Note_On_67_Vel_0
Note_On_65_Vel_0
Note_On_79_Vel_0
Note_On_58_Vel_0
Time_Shift_1
Note_On_53_Vel_0
Note_On_46_Vel_0
Time_Shift_4
Note_On_77_Vel_0
Time_Shift_5
Note_On_81_Vel_95
Time_Shift_3
Note_On_70_Vel_0
Note_On_73_Vel_0
Note_On_37_Vel_93
Time_Shift_1
Note_On_69_Vel_96
Time_Shift_1
Note_On_49_Vel_97
Time_Shift_1
Note_On_77_Vel_94
Time_Shift_1
Note_On_73_Vel_84
Time_Shift_34
Sustain_On
Time_Shift_673
Note_On_82_Vel_99
Time_Shift_1
Note_On_70_Vel_98
Time_Shift_163
Note_On_77_Vel_0
Time_Shift_5
Note_On_84_Vel_100
Time_Shift_5
Note_On_65_Vel_99
Note_On_72_Vel_95
Time_Shift_1
Note_On_77_Vel_92
Time_Shift_2
Note_On_53_Vel_90
Note_On_58_Vel_93
Time_Shift_2
Note_On_61_Vel_88
Time_Shift_707
Note_On_73_Vel_0
Time_Shift_4
Note_On_85_Vel_102
Time_Shift_2
Note_On_73_Vel_98
Time_Shift_116
Note_On_29_Vel_77
Time_Shift_32
Note_On_70_Vel_0
Time_Shift_8
Note_On_70_Vel_96
Time_Shift_15
Note_On_37_Vel_0
Time_Shift_9
Note_On_53_Vel_0
Time_Shift_1
Note_On_61_Vel_0
Note_On_58_Vel_0
Time_Shift_1
Note_On_77_Vel_0
Note_On_73_Vel_0
Note_On_81_Vel_0
Note_On_82_Vel_0
Note_On_65_Vel_0
Time_Shift_1
Note_On_84_Vel_0
Note_On_85_Vel_0
Note_On_69_Vel_0
Time_Shift_1
Note_On_72_Vel_0
Sustain_Off
Time_Shift_2
Note_On_49_Vel_0
Time_Shift_30
Note_On_76_Vel_78
Time_Shift_9
Sustain_On
Time_Shift_26
Note_On_79_Vel_76
Time_Shift_39
Note_On_41_Vel_88
Time_Shift_1
Note_On_85_Vel_99
Time_Shift_959
Note_On_61_Vel_81
Note_On_67_Vel_88
Time_Shift_2
Note_On_53_Vel_79
Time_Shift_1
Note_On_58_Vel_80
Time_Shift_921
Note_On_84_Vel_87
Time_Shift_1
Note_On_53_Vel_0
Time_Shift_4
Note_On_77_Vel_78
Note_On_72_Vel_80
Time_Shift_1
Note_On_53_Vel_62
Note_On_60_Vel_66
Note_On_57_Vel_69
Time_Shift_6
Note_On_85_Vel_0
Time_Shift_1
Note_On_41_Vel_0
Note_On_58_Vel_0
Time_Shift_1
Note_On_61_Vel_0
Time_Shift_1
Note_On_67_Vel_0
Time_Shift_1
Note_On_79_Vel_0
Time_Shift_1
Note_On_70_Vel_0
Time_Shift_2
Sustain_Off
Time_Shift_5
Note_On_29_Vel_0
Time_Shift_23
Note_On_76_Vel_0
Time_Shift_70
Sustain_On
Time_Shift_860
Note_On_53_Vel_0
Time_Shift_4
Note_On_53_Vel_85
Time_Shift_51
Note_On_84_Vel_0
Note_On_57_Vel_0
Time_Shift_1
Note_On_72_Vel_0
Note_On_77_Vel_0
Note_On_60_Vel_0
Sustain_Off
Time_Shift_128
Sustain_On
Time_Shift_710
Note_On_43_Vel_53
Time_Shift_78
Note_On_44_Vel_65
Time_Shift_18
Note_On_53_Vel_0
Time_Shift_34
Note_On_43_Vel_0
Time_Shift_3
Sustain_Off
Time_Shift_18
Note_On_68_Vel_74
Time_Shift_2
Note_On_65_Vel_59
Time_Shift_7
Note_On_46_Vel_61
Time_Shift_1
Note_On_60_Vel_60
Time_Shift_1
Note_On_56_Vel_63
Time_Shift_73
Sustain_On
Time_Shift_15
Note_On_44_Vel_0
Time_Shift_9
Note_On_44_Vel_62
Time_Shift_83
Note_On_46_Vel_0
Time_Shift_6
Note_On_46_Vel_49
Time_Shift_56
Note_On_44_Vel_0
Time_Shift_5
Note_On_44_Vel_61
Time_Shift_64
Note_On_46_Vel_0
Time_Shift_8
Note_On_46_Vel_60
Time_Shift_69
Note_On_44_Vel_0
Time_Shift_4
Note_On_44_Vel_57
Time_Shift_57
Note_On_46_Vel_0
Time_Shift_7
Note_On_46_Vel_52
Time_Shift_62
Note_On_44_Vel_0
Time_Shift_4
Note_On_44_Vel_60
Time_Shift_50
Note_On_46_Vel_0
Time_Shift_6
Note_On_46_Vel_56
Time_Shift_71
Note_On_44_Vel_0
Time_Shift_4
Note_On_44_Vel_55
Time_Shift_42
Note_On_46_Vel_0
Time_Shift_10
Note_On_46_Vel_57
Time_Shift_59
Note_On_44_Vel_0
Time_Shift_9
Note_On_44_Vel_63
Time_Shift_45
Note_On_46_Vel_0
Time_Shift_11
Note_On_46_Vel_49
Time_Shift_19
Note_On_68_Vel_0
Time_Shift_5
Note_On_68_Vel_74
Time_Shift_22
Note_On_63_Vel_67
Time_Shift_4
Note_On_44_Vel_0
Time_Shift_10
Note_On_44_Vel_58
Time_Shift_5
Note_On_60_Vel_0
Time_Shift_4
Note_On_60_Vel_54
Time_Shift_4
Note_On_54_Vel_60
Time_Shift_69
Note_On_46_Vel_0
Time_Shift_5
Note_On_46_Vel_46
Time_Shift_49
Note_On_44_Vel_0
Time_Shift_11
Note_On_44_Vel_53
Time_Shift_81
Note_On_46_Vel_0
Time_Shift_7
Note_On_46_Vel_31
Time_Shift_39
Note_On_44_Vel_0
Time_Shift_7
Note_On_44_Vel_59
Time_Shift_162
Note_On_44_Vel_0
Time_Shift_11
Note_On_44_Vel_43
Time_Shift_104
Note_On_46_Vel_0
Time_Shift_5
Note_On_46_Vel_29
Time_Shift_149
Note_On_44_Vel_0
Time_Shift_8
Note_On_44_Vel_50
Time_Shift_103
Note_On_43_Vel_50
Time_Shift_73
Note_On_44_Vel_0
Time_Shift_10
Note_On_44_Vel_57
Time_Shift_90
Note_On_56_Vel_0
Time_Shift_9
Note_On_68_Vel_0
Time_Shift_1
Note_On_56_Vel_47
Note_On_63_Vel_0
Note_On_46_Vel_0
Time_Shift_1
Note_On_65_Vel_0
Note_On_49_Vel_52
Note_On_43_Vel_0
Note_On_60_Vel_0
Note_On_53_Vel_52
Time_Shift_1
Note_On_61_Vel_53
Time_Shift_2
Sustain_Off
Time_Shift_17
Note_On_54_Vel_0
Time_Shift_138
Sustain_On
Time_Shift_123
Sustain_Off
Time_Shift_85
Sustain_On
Time_Shift_645
Note_On_44_Vel_0
Note_On_49_Vel_0
Time_Shift_4
Note_On_49_Vel_70
Time_Shift_50
Sustain_Off
Time_Shift_5
Note_On_53_Vel_0
Note_On_61_Vel_0
Time_Shift_2
Note_On_56_Vel_0
Time_Shift_123
Sustain_On
Time_Shift_792
Note_On_40_Vel_40
Time_Shift_78
Note_On_41_Vel_41
Time_Shift_32
Note_On_65_Vel_56
Time_Shift_7
Sustain_Off
Time_Shift_7
Note_On_61_Vel_47
Time_Shift_1
Note_On_42_Vel_49
Note_On_40_Vel_0
Time_Shift_8
Note_On_57_Vel_52
Time_Shift_6
Note_On_51_Vel_38
Time_Shift_6
Note_On_49_Vel_0
Time_Shift_69
Sustain_On
Time_Shift_77
Note_On_41_Vel_0
Time_Shift_7
Note_On_41_Vel_36
Time_Shift_108
Note_On_42_Vel_0
Time_Shift_10
Note_On_42_Vel_41
Time_Shift_67
Note_On_41_Vel_0
Time_Shift_9
Note_On_41_Vel_41
Time_Shift_98
Note_On_42_Vel_0
Time_Shift_9
Note_On_42_Vel_40
Time_Shift_76
Note_On_41_Vel_0
Time_Shift_7
Note_On_41_Vel_33
Time_Shift_62
Note_On_42_Vel_0
Note_On_57_Vel_0
Time_Shift_5
Note_On_42_Vel_44
Time_Shift_4
Note_On_57_Vel_31
Time_Shift_68
Note_On_41_Vel_0
Time_Shift_10
Note_On_41_Vel_39
Time_Shift_97
Note_On_42_Vel_0
Time_Shift_5
Note_On_42_Vel_41
Time_Shift_64
Note_On_41_Vel_0
Time_Shift_7
Note_On_41_Vel_32
Time_Shift_47
Note_On_65_Vel_0
Time_Shift_5
Note_On_65_Vel_54
Time_Shift_15
Note_On_60_Vel_45
Time_Shift_3
Note_On_57_Vel_0
Time_Shift_5
Note_On_57_Vel_46
Time_Shift_3
Note_On_41_Vel_0
Time_Shift_5
Note_On_41_Vel_39
Time_Shift_18
Note_On_42_Vel_0
Time_Shift_11
Note_On_42_Vel_45
Time_Shift_89
Note_On_41_Vel_0
Time_Shift_5
Note_On_41_Vel_29
Time_Shift_87
Note_On_41_Vel_0
Note_On_42_Vel_0
Time_Shift_4
Note_On_42_Vel_43
Time_Shift_4
Note_On_41_Vel_33
Time_Shift_84
Note_On_41_Vel_0
Time_Shift_5
Note_On_41_Vel_34
Time_Shift_95
Note_On_42_Vel_0
Time_Shift_5
Note_On_42_Vel_40
Time_Shift_49
Note_On_41_Vel_0
Time_Shift_5
Note_On_41_Vel_38
Time_Shift_101
Note_On_61_Vel_0
Time_Shift_1
Note_On_42_Vel_0
Time_Shift_5
Note_On_42_Vel_49
Time_Shift_72
Note_On_41_Vel_0
Time_Shift_5
Note_On_41_Vel_45
Time_Shift_114
Note_On_40_Vel_46
Time_Shift_96
Note_On_41_Vel_0
Time_Shift_6
Note_On_41_Vel_55
Time_Shift_97
Note_On_40_Vel_0
Note_On_65_Vel_0
Note_On_57_Vel_0
Note_On_41_Vel_0
Time_Shift_1
Note_On_51_Vel_0
Note_On_60_Vel_0
Time_Shift_2
Sustain_Off
Time_Shift_9
Note_On_42_Vel_0
Time_Shift_10
Note_On_42_Vel_46
Time_Shift_2
Note_On_49_Vel_45
Time_Shift_1
Note_On_58_Vel_45
Time_Shift_371
Sustain_On
Time_Shift_546
Sustain_Off
Time_Shift_27
Note_On_41_Vel_33
Time_Shift_68
Note_On_42_Vel_0
Time_Shift_289
Sustain_On
Time_Shift_177
Note_On_37_Vel_35
Time_Shift_544
Note_On_58_Vel_0
Time_Shift_3
Sustain_Off
Time_Shift_8
Note_On_58_Vel_40
Time_Shift_3
Note_On_53_Vel_34
Time_Shift_2
Note_On_37_Vel_0
Note_On_49_Vel_0
Time_Shift_4
Note_On_46_Vel_32
Time_Shift_6
Note_On_34_Vel_27
Time_Shift_21
Note_On_41_Vel_0
Time_Shift_145
Sustain_On
Time_Shift_805
Note_On_42_Vel_30
Time_Shift_9
Note_On_49_Vel_32
Time_Shift_1
Note_On_58_Vel_0
Time_Shift_6
Sustain_Off
Time_Shift_2
Note_On_37_Vel_30
Time_Shift_2
Note_On_58_Vel_36
Time_Shift_7
Note_On_46_Vel_0
Note_On_34_Vel_0
Time_Shift_1
Note_On_53_Vel_0
Time_Shift_3
Note_On_54_Vel_34
Time_Shift_147
Sustain_On
Time_Shift_630
Note_On_58_Vel_0
Time_Shift_4
Note_On_58_Vel_37
Time_Shift_211
Note_On_58_Vel_0
Time_Shift_10
Note_On_58_Vel_41
Time_Shift_6
Sustain_Off
Time_Shift_8
Note_On_54_Vel_0
Time_Shift_2
Note_On_49_Vel_0
Note_On_37_Vel_0
Time_Shift_1
Note_On_42_Vel_0
Time_Shift_1
Note_On_46_Vel_28
Time_Shift_7
Note_On_53_Vel_36
Note_On_34_Vel_24
Time_Shift_2
Note_On_41_Vel_28
Time_Shift_132
Sustain_On
Time_Shift_857
Note_On_61_Vel_43
Time_Shift_16
Note_On_54_Vel_34
Time_Shift_3
Note_On_58_Vel_0
Time_Shift_4
Note_On_58_Vel_22
Time_Shift_1
Note_On_42_Vel_25
Time_Shift_2
Note_On_49_Vel_21
Time_Shift_2
Sustain_Off
Note_On_30_Vel_24
Time_Shift_2
Note_On_41_Vel_0
Note_On_46_Vel_0
Time_Shift_1
Note_On_34_Vel_0
Time_Shift_2
Note_On_53_Vel_0
Time_Shift_1
Note_On_30_Vel_0
Time_Shift_6
Note_On_37_Vel_19
Time_Shift_117
Sustain_On
Time_Shift_680
Note_On_60_Vel_41
Time_Shift_142
Note_On_61_Vel_0
Time_Shift_9
Note_On_61_Vel_38
Time_Shift_45
Note_On_60_Vel_0
Time_Shift_10
Note_On_41_Vel_32
Note_On_60_Vel_43
Time_Shift_2
Note_On_46_Vel_30
Time_Shift_1
Note_On_34_Vel_31
Time_Shift_8
Note_On_53_Vel_36
Time_Shift_5
Note_On_37_Vel_0
Time_Shift_1
Note_On_54_Vel_0
Time_Shift_1
Note_On_61_Vel_0
Time_Shift_2
Note_On_49_Vel_0
Time_Shift_1
Sustain_Off
Time_Shift_22
Note_On_42_Vel_0
Time_Shift_154
Sustain_On
Time_Shift_553
Note_On_58_Vel_0
Time_Shift_5
Note_On_58_Vel_38
Time_Shift_224
Note_On_46_Vel_0
Time_Shift_2
Note_On_34_Vel_0
Sustain_Off
Time_Shift_1
Note_On_41_Vel_0
Time_Shift_1
Note_On_53_Vel_0
Time_Shift_5
Note_On_58_Vel_0
Time_Shift_11
Note_On_58_Vel_36
Time_Shift_2
Note_On_42_Vel_27
Time_Shift_1
Note_On_49_Vel_26
Time_Shift_1
Note_On_60_Vel_0
Time_Shift_3
Note_On_30_Vel_27
Time_Shift_1
Note_On_54_Vel_30
Time_Shift_2
Note_On_37_Vel_27
Time_Shift_2
Note_On_30_Vel_0
Time_Shift_115
Sustain_On
Time_Shift_661
Note_On_58_Vel_0
Time_Shift_8
Note_On_58_Vel_29
Time_Shift_237
Note_On_58_Vel_0
Time_Shift_8
Note_On_58_Vel_36
Time_Shift_4
Note_On_41_Vel_24
Time_Shift_1
Note_On_46_Vel_28
Sustain_Off
Time_Shift_1
Note_On_53_Vel_26
Time_Shift_3
Note_On_54_Vel_0
Note_On_49_Vel_0
Note_On_37_Vel_0
Time_Shift_2
Note_On_42_Vel_0
Time_Shift_3
Note_On_34_Vel_22
Time_Shift_155
Sustain_On
Time_Shift_453
Note_On_53_Vel_0
Time_Shift_486
Note_On_41_Vel_0
Time_Shift_1
Note_On_46_Vel_0
Time_Shift_1
Note_On_34_Vel_0
Sustain_Off
Time_Shift_11
Note_On_58_Vel_0
Time_Shift_17
Note_On_61_Vel_78
Time_Shift_3
Note_On_45_Vel_69
Note_On_33_Vel_68
Time_Shift_1
Note_On_55_Vel_63
Time_Shift_1
Note_On_52_Vel_67
Time_Shift_63
Sustain_On
Time_Shift_765
Note_On_32_Vel_69
Time_Shift_1
Note_On_44_Vel_72
Time_Shift_3
Note_On_63_Vel_85
Time_Shift_3
Note_On_54_Vel_74
Note_On_60_Vel_71
Time_Shift_149
Note_On_45_Vel_0
Time_Shift_4
Note_On_54_Vel_0
Note_On_61_Vel_0
Note_On_60_Vel_0
Note_On_55_Vel_0
Note_On_52_Vel_0
Note_On_63_Vel_0
Sustain_Off
Note_On_44_Vel_0
Time_Shift_19
Note_On_33_Vel_0
Time_Shift_13
Note_On_37_Vel_85
Note_On_25_Vel_90
Time_Shift_2
Note_On_65_Vel_89
Time_Shift_2
Note_On_53_Vel_90
Time_Shift_2
Note_On_56_Vel_82
Note_On_61_Vel_86
Time_Shift_43
Sustain_On
Time_Shift_276
Note_On_32_Vel_0
Time_Shift_653
Note_On_61_Vel_0
Note_On_65_Vel_0
Time_Shift_7
Note_On_77_Vel_99
Time_Shift_1
Note_On_56_Vel_0
Time_Shift_2
Note_On_68_Vel_83
Note_On_73_Vel_83
Note_On_65_Vel_83
Time_Shift_2
Note_On_61_Vel_83
Time_Shift_1
Note_On_49_Vel_72
Time_Shift_1
Note_On_56_Vel_75
Time_Shift_751
Note_On_63_Vel_68
Time_Shift_1
Note_On_66_Vel_81
Time_Shift_1
Note_On_78_Vel_91
Time_Shift_2
Note_On_75_Vel_73
Time_Shift_76
Note_On_49_Vel_0
Time_Shift_10
Note_On_49_Vel_67
Time_Shift_51
Note_On_56_Vel_0
Time_Shift_10
Note_On_56_Vel_72
Time_Shift_37
Note_On_68_Vel_0
Time_Shift_2
Note_On_80_Vel_97
Time_Shift_5
Note_On_65_Vel_0
Note_On_73_Vel_0
Note_On_77_Vel_0
Note_On_68_Vel_93
Time_Shift_4
Note_On_73_Vel_75
Time_Shift_2
Note_On_77_Vel_71
Time_Shift_5
Note_On_65_Vel_76
Time_Shift_174
Note_On_25_Vel_0
Time_Shift_499
Note_On_66_Vel_0
Time_Shift_7
Note_On_66_Vel_75
Time_Shift_1
Note_On_82_Vel_93
Time_Shift_1
Note_On_70_Vel_92
Time_Shift_187
Note_On_84_Vel_97
Time_Shift_3
Note_On_56_Vel_0
Note_On_63_Vel_0
Note_On_68_Vel_0
Note_On_80_Vel_0
Time_Shift_4
Note_On_72_Vel_89
Time_Shift_1
Note_On_80_Vel_86
Time_Shift_1
Note_On_68_Vel_92
Time_Shift_2
Note_On_37_Vel_0
Time_Shift_1
Note_On_63_Vel_76
Time_Shift_1
Note_On_56_Vel_82
Time_Shift_728
Note_On_65_Vel_0
Time_Shift_7
Note_On_73_Vel_0
Time_Shift_4
Note_On_65_Vel_71
Note_On_85_Vel_96
Time_Shift_1
Note_On_73_Vel_87
Time_Shift_181
Note_On_53_Vel_0
Note_On_80_Vel_0
Time_Shift_1
Note_On_56_Vel_0
Note_On_68_Vel_0
Note_On_63_Vel_0
Note_On_82_Vel_0
Note_On_78_Vel_0
Note_On_84_Vel_0
Note_On_72_Vel_0
Time_Shift_1
Note_On_70_Vel_0
Note_On_73_Vel_0
Note_On_61_Vel_0
Note_On_65_Vel_0
Note_On_77_Vel_0
Note_On_66_Vel_0
Time_Shift_1
Note_On_85_Vel_0
Time_Shift_3
Sustain_Off
Note_On_75_Vel_0
Time_Shift_8
Note_On_49_Vel_0
Time_Shift_26
Note_On_44_Vel_98
Time_Shift_1
Note_On_84_Vel_97
Time_Shift_1
Note_On_77_Vel_95
Note_On_89_Vel_103
Note_On_32_Vel_85
Time_Shift_41
Sustain_On
Time_Shift_927
Note_On_72_Vel_89
Time_Shift_1
Note_On_66_Vel_77
Time_Shift_4
Note_On_63_Vel_83
Time_Shift_704
Note_On_66_Vel_0
Note_On_72_Vel_0
Time_Shift_4
Note_On_61_Vel_70
Note_On_70_Vel_81
Time_Shift_1
Note_On_54_Vel_58
Time_Shift_1
Note_On_72_Vel_68
Time_Shift_3
Note_On_66_Vel_66
Time_Shift_6
Note_On_54_Vel_0
Time_Shift_144
Note_On_77_Vel_0
Note_On_72_Vel_0
Time_Shift_1
Sustain_Off
Note_On_70_Vel_0
Note_On_89_Vel_0
Time_Shift_1
Note_On_32_Vel_0
Time_Shift_1
Note_On_63_Vel_0
Note_On_61_Vel_0
Time_Shift_22
Note_On_44_Vel_0
Note_On_66_Vel_0
Time_Shift_3
Note_On_70_Vel_85
Time_Shift_3
Note_On_80_Vel_86
Time_Shift_2
Note_On_84_Vel_0
Note_On_66_Vel_73
Time_Shift_1
Note_On_87_Vel_88
Note_On_61_Vel_69
Time_Shift_2
Note_On_72_Vel_79
Note_On_75_Vel_86
Time_Shift_1
Note_On_84_Vel_78
Time_Shift_4
Sustain_On
Time_Shift_728
Note_On_60_Vel_71
Time_Shift_1
Note_On_66_Vel_0
Time_Shift_1
Note_On_68_Vel_78
Time_Shift_3
Note_On_66_Vel_68
Time_Shift_181
Note_On_60_Vel_0
Note_On_66_Vel_0
Note_On_68_Vel_0
Time_Shift_4
Note_On_60_Vel_65
Time_Shift_5
Note_On_66_Vel_68
Note_On_68_Vel_76
Time_Shift_686
Note_On_63_Vel_68
Note_On_57_Vel_67
Time_Shift_27
Note_On_66_Vel_0
Note_On_75_Vel_0
Time_Shift_7
Note_On_72_Vel_0
Time_Shift_3
Note_On_66_Vel_76
Time_Shift_1
Note_On_75_Vel_72
Note_On_78_Vel_83
Time_Shift_2
Note_On_72_Vel_66
Time_Shift_128
Note_On_61_Vel_0
Time_Shift_1
Note_On_68_Vel_0
Note_On_80_Vel_0
Note_On_66_Vel_0
Note_On_57_Vel_0
Note_On_60_Vel_0
Note_On_63_Vel_0
Note_On_72_Vel_0
Note_On_75_Vel_0
Time_Shift_1
Note_On_84_Vel_0
Note_On_87_Vel_0
Time_Shift_1
Sustain_Off
Time_Shift_1
Note_On_70_Vel_0
Time_Shift_16
Note_On_78_Vel_0
Time_Shift_34
Note_On_77_Vel_84
Time_Shift_1
Note_On_65_Vel_83
Note_On_75_Vel_77
Note_On_46_Vel_76
Time_Shift_4
Note_On_34_Vel_65
Time_Shift_1
Note_On_70_Vel_72
Time_Shift_14
Sustain_On
Time_Shift_276
Note_On_34_Vel_0
Time_Shift_630
Note_On_77_Vel_0
Time_Shift_7
Note_On_65_Vel_0
Note_On_70_Vel_0
Time_Shift_3
Note_On_77_Vel_90
Time_Shift_4
Note_On_53_Vel_64
Note_On_65_Vel_73
Time_Shift_2
Note_On_70_Vel_82
Note_On_61_Vel_71
Time_Shift_1
Note_On_73_Vel_82
Time_Shift_1
Note_On_58_Vel_71
Time_Shift_745
Note_On_79_Vel_88
Time_Shift_1
Note_On_67_Vel_82
Time_Shift_142
Note_On_67_Vel_0
Note_On_70_Vel_0
Note_On_73_Vel_0
Time_Shift_1
Note_On_61_Vel_0
Note_On_65_Vel_0
Sustain_Off
Note_On_58_Vel_0
Note_On_75_Vel_0
Note_On_53_Vel_0
Time_Shift_1
Note_On_79_Vel_0
Time_Shift_6
Note_On_46_Vel_0
Time_Shift_15
Note_On_77_Vel_0
Time_Shift_1
Note_On_81_Vel_89
Time_Shift_1
Note_On_37_Vel_78
Time_Shift_1
Note_On_69_Vel_92
Time_Shift_1
Note_On_77_Vel_82
Note_On_49_Vel_80
Time_Shift_34
Sustain_On
Time_Shift_681
Note_On_82_Vel_92
Time_Shift_1
Note_On_70_Vel_89
Time_Shift_163
Note_On_37_Vel_0
Time_Shift_8
Note_On_77_Vel_0
Time_Shift_3
Note_On_84_Vel_96
Time_Shift_2
Note_On_72_Vel_85
Time_Shift_3
Note_On_77_Vel_79
Time_Shift_1
Note_On_65_Vel_86
Time_Shift_2
Note_On_61_Vel_79
Time_Shift_1
Note_On_53_Vel_79
Time_Shift_2
Note_On_58_Vel_80
Time_Shift_5
Note_On_69_Vel_0
Time_Shift_4
Note_On_49_Vel_0
Time_Shift_819
Note_On_85_Vel_89
Time_Shift_10
Note_On_73_Vel_76
Time_Shift_128
Note_On_29_Vel_60
Note_On_41_Vel_57
Time_Shift_41
Note_On_70_Vel_0
Time_Shift_8
Note_On_81_Vel_0
Time_Shift_2
Note_On_70_Vel_78
Time_Shift_61
Note_On_76_Vel_74
Time_Shift_10
Note_On_84_Vel_0
Time_Shift_1
Note_On_72_Vel_0
Note_On_65_Vel_0
Note_On_58_Vel_0
Note_On_73_Vel_0
Note_On_53_Vel_0
Time_Shift_1
Note_On_61_Vel_0
Time_Shift_3
Note_On_70_Vel_0
Note_On_85_Vel_0
Time_Shift_7
Note_On_82_Vel_0
Time_Shift_3
Sustain_Off
Time_Shift_8
Note_On_79_Vel_70
Time_Shift_4
Note_On_77_Vel_0
Time_Shift_15
Note_On_41_Vel_0
Time_Shift_4
Note_On_41_Vel_63
Time_Shift_4
Note_On_29_Vel_0
Time_Shift_4
Note_On_29_Vel_51
Time_Shift_8
Note_On_85_Vel_93
Time_Shift_34
Sustain_On
Time_Shift_945
Note_On_67_Vel_67
Time_Shift_2
Note_On_53_Vel_56
Time_Shift_1
Note_On_61_Vel_61
Time_Shift_1
Note_On_58_Vel_54
Time_Shift_1048
Note_On_53_Vel_0
Time_Shift_3
Note_On_69_Vel_55
Time_Shift_1
Note_On_84_Vel_63
Time_Shift_1
Note_On_81_Vel_54
Time_Shift_2
Note_On_65_Vel_48
Note_On_53_Vel_43
Time_Shift_1
Note_On_72_Vel_59
Time_Shift_1
Note_On_57_Vel_50
Time_Shift_1
Note_On_77_Vel_56
Time_Shift_1
Note_On_60_Vel_49
Time_Shift_17
Note_On_58_Vel_0
Time_Shift_4
Note_On_41_Vel_0
Note_On_61_Vel_0
Time_Shift_1
Note_On_67_Vel_0
Time_Shift_2
Sustain_Off
Time_Shift_11
Note_On_29_Vel_0
Time_Shift_15
Note_On_76_Vel_0
Note_On_79_Vel_0
Note_On_85_Vel_0
Time_Shift_100
Sustain_On
Time_Shift_100
Note_On_81_Vel_0
Time_Shift_845
Note_On_53_Vel_0
Time_Shift_11
Note_On_53_Vel_69
Time_Shift_51
Note_On_84_Vel_0
Time_Shift_1
Note_On_57_Vel_0
Note_On_72_Vel_0
Time_Shift_1
Note_On_65_Vel_0
Note_On_69_Vel_0
Note_On_77_Vel_0
Note_On_60_Vel_0
Time_Shift_7
Sustain_Off
Time_Shift_182
Sustain_On
Time_Shift_149
Note_On_44_Vel_21
Time_Shift_89
Note_On_44_Vel_0
Time_Shift_461
Note_On_43_Vel_46
Time_Shift_31
Note_On_53_Vel_0
Time_Shift_59
Note_On_44_Vel_60
Time_Shift_76
Sustain_Off
Note_On_43_Vel_0
Time_Shift_5
Note_On_68_Vel_67
Time_Shift_3
Note_On_46_Vel_57
Note_On_65_Vel_57
Time_Shift_5
Note_On_60_Vel_52
Time_Shift_2
Note_On_56_Vel_54
Time_Shift_73
Sustain_On
Time_Shift_7
Note_On_44_Vel_0
Time_Shift_44
Note_On_44_Vel_54
Time_Shift_79
Note_On_46_Vel_0
Time_Shift_4
Note_On_46_Vel_46
Time_Shift_58
Note_On_44_Vel_0
Time_Shift_4
Note_On_44_Vel_59
Time_Shift_80
Note_On_46_Vel_0
Time_Shift_11
Note_On_46_Vel_38
Time_Shift_58
Note_On_44_Vel_0
Time_Shift_8
Note_On_44_Vel_53
Time_Shift_69
Note_On_46_Vel_0
Time_Shift_11
Note_On_46_Vel_49
Time_Shift_58
Note_On_44_Vel_0
Time_Shift_11
Note_On_44_Vel_50
Time_Shift_50
Note_On_46_Vel_0
Time_Shift_6
Note_On_46_Vel_43
Time_Shift_64
Note_On_44_Vel_0
Time_Shift_11
Note_On_44_Vel_50
Time_Shift_50
Note_On_46_Vel_0
Time_Shift_10
Note_On_46_Vel_50
Time_Shift_82
Note_On_44_Vel_0
Time_Shift_5
Note_On_44_Vel_43
Time_Shift_34
Note_On_68_Vel_0
Time_Shift_10
Note_On_68_Vel_68
Time_Shift_20
Note_On_46_Vel_0
Note_On_60_Vel_0
Time_Shift_3
Note_On_63_Vel_64
Time_Shift_3
Note_On_60_Vel_43
Time_Shift_5
Note_On_46_Vel_49
Time_Shift_2
Note_On_54_Vel_43
Time_Shift_56
Note_On_44_Vel_0
Time_Shift_12
Note_On_44_Vel_56
Time_Shift_88
Note_On_46_Vel_0
Time_Shift_6
Note_On_46_Vel_35
Time_Shift_56
Note_On_44_Vel_0
Time_Shift_10
Note_On_44_Vel_49
Time_Shift_82
Note_On_46_Vel_0
Time_Shift_10
Note_On_46_Vel_34
Time_Shift_59
Note_On_44_Vel_0
Time_Shift_9
Note_On_44_Vel_48
Time_Shift_175
Note_On_46_Vel_0
Time_Shift_4
Note_On_46_Vel_22
Time_Shift_127
Note_On_44_Vel_0
Time_Shift_6
Note_On_44_Vel_40
Time_Shift_156
Note_On_43_Vel_43
Time_Shift_76
Note_On_44_Vel_0
Time_Shift_10
Note_On_44_Vel_50
Time_Shift_113
Note_On_68_Vel_0
Time_Shift_1
Note_On_49_Vel_44
Time_Shift_5
Note_On_68_Vel_59
Time_Shift_2
Note_On_56_Vel_0
Time_Shift_5
Note_On_56_Vel_36
Time_Shift_5
Sustain_Off
Time_Shift_2
Note_On_53_Vel_39
Time_Shift_5
Note_On_43_Vel_0
Note_On_46_Vel_0
Note_On_65_Vel_0
Note_On_63_Vel_0
Time_Shift_1
Note_On_54_Vel_0
Note_On_60_Vel_0
Time_Shift_1
Note_On_44_Vel_0
Time_Shift_5
Note_On_61_Vel_47
Time_Shift_183
Sustain_On
Time_Shift_898
Note_On_49_Vel_0
Time_Shift_12
Note_On_49_Vel_56
Time_Shift_50
Note_On_53_Vel_0
Note_On_61_Vel_0
Time_Shift_2
Sustain_Off
Time_Shift_6
Note_On_56_Vel_0
Time_Shift_7
Note_On_68_Vel_0
Time_Shift_185
Sustain_On
Time_Shift_778
Note_On_40_Vel_38
Time_Shift_115
Note_On_41_Vel_36
Time_Shift_40
Note_On_65_Vel_46
Time_Shift_6
Note_On_61_Vel_48
Time_Shift_10
Note_On_40_Vel_0
Time_Shift_1
Sustain_Off
Time_Shift_10
Note_On_49_Vel_0
Time_Shift_3
Note_On_57_Vel_49
Time_Shift_16
Note_On_42_Vel_38
Time_Shift_57
Sustain_On
Time_Shift_123
Note_On_41_Vel_0
Time_Shift_9
Note_On_41_Vel_33
Time_Shift_114
Note_On_42_Vel_0
Time_Shift_4
Note_On_42_Vel_39
Time_Shift_81
Note_On_41_Vel_0
Time_Shift_7
Note_On_41_Vel_37
Time_Shift_100
Note_On_42_Vel_0
Time_Shift_4
Note_On_42_Vel_45
Time_Shift_81
Note_On_41_Vel_0
Time_Shift_6
Note_On_41_Vel_31
Time_Shift_93
Note_On_42_Vel_0
Time_Shift_6
Note_On_42_Vel_43
Time_Shift_87
Note_On_41_Vel_0
Time_Shift_4
Note_On_41_Vel_32
Time_Shift_88
Note_On_42_Vel_0
Time_Shift_11
Note_On_42_Vel_40
Time_Shift_27
Note_On_65_Vel_0
Time_Shift_10
Note_On_65_Vel_48
Time_Shift_9
Note_On_60_Vel_51
Time_Shift_4
Note_On_41_Vel_0
Note_On_57_Vel_0
Time_Shift_5
Note_On_41_Vel_35
Time_Shift_3
Note_On_57_Vel_45
Time_Shift_146
Note_On_42_Vel_0
Time_Shift_11
Note_On_42_Vel_38
Time_Shift_73
Note_On_41_Vel_0
Time_Shift_12
Note_On_41_Vel_24
Time_Shift_96
Note_On_42_Vel_0
Time_Shift_6
Note_On_42_Vel_41
Time_Shift_63
Note_On_41_Vel_0
Time_Shift_5
Note_On_41_Vel_29
Time_Shift_125
Note_On_42_Vel_0
Time_Shift_10
Note_On_42_Vel_28
Time_Shift_113
Note_On_41_Vel_0
Time_Shift_10
Note_On_41_Vel_29
Time_Shift_116
Note_On_40_Vel_34
Time_Shift_105
Note_On_41_Vel_0
Time_Shift_10
Note_On_41_Vel_38
Time_Shift_143
Note_On_41_Vel_0
Note_On_65_Vel_0
Time_Shift_3
Note_On_60_Vel_0
Note_On_57_Vel_0
Time_Shift_2
Sustain_Off
Time_Shift_3
Note_On_42_Vel_0
Time_Shift_5
Note_On_42_Vel_35
Time_Shift_4
Note_On_58_Vel_40
Time_Shift_1
Note_On_49_Vel_36
Time_Shift_105
Note_On_40_Vel_0
Time_Shift_100
Note_On_61_Vel_0
Time_Shift_223
Note_On_58_Vel_0
Time_Shift_11
Note_On_58_Vel_14
Time_Shift_27
Sustain_On
Time_Shift_131
Note_On_58_Vel_0
Time_Shift_7
Note_On_58_Vel_10
Time_Shift_481
Note_On_41_Vel_34
Time_Shift_2
Note_On_53_Vel_23
Time_Shift_87
Sustain_Off
Time_Shift_2
Note_On_42_Vel_0
Time_Shift_281
Sustain_On
Time_Shift_233
Note_On_37_Vel_33
Time_Shift_658
Note_On_53_Vel_0
Note_On_58_Vel_0
Time_Shift_10
Note_On_58_Vel_34
Time_Shift_1
Note_On_53_Vel_32
Note_On_46_Vel_34
Time_Shift_4
Note_On_34_Vel_30
Note_On_49_Vel_0
Time_Shift_20
Note_On_41_Vel_0
Time_Shift_3
Note_On_37_Vel_0
Time_Shift_3
Sustain_Off
Time_Shift_174
Sustain_On
Time_Shift_852
Note_On_58_Vel_0
Time_Shift_11
Note_On_58_Vel_39
Time_Shift_1
Note_On_37_Vel_30
Time_Shift_5
Note_On_49_Vel_27
Time_Shift_10
Note_On_54_Vel_27
Time_Shift_1
Note_On_42_Vel_24
Time_Shift_9
Sustain_Off
Time_Shift_5
Note_On_34_Vel_0
Time_Shift_2
Note_On_46_Vel_0
Time_Shift_5
Note_On_53_Vel_0
Time_Shift_143
Sustain_On
Time_Shift_684
Note_On_58_Vel_0
Time_Shift_8
Note_On_58_Vel_36
Time_Shift_222
Note_On_58_Vel_0
Time_Shift_5
Note_On_34_Vel_33
Time_Shift_5
Note_On_46_Vel_36
Time_Shift_1
Note_On_58_Vel_36
Time_Shift_3
Note_On_41_Vel_31
Time_Shift_6
Note_On_53_Vel_39
Time_Shift_21
Note_On_54_Vel_0
Time_Shift_2
Note_On_37_Vel_0
Time_Shift_1
Sustain_Off
Time_Shift_1
Note_On_42_Vel_0
Time_Shift_1
Note_On_49_Vel_0
Time_Shift_139
Sustain_On
Time_Shift_915
Note_On_61_Vel_38
Time_Shift_8
Note_On_49_Vel_24
Time_Shift_1
Note_On_42_Vel_29
Time_Shift_2
Note_On_54_Vel_35
Time_Shift_1
Note_On_37_Vel_25
Time_Shift_10
Sustain_Off
Time_Shift_3
Note_On_34_Vel_0
Note_On_46_Vel_0
Note_On_41_Vel_0
Time_Shift_1
Note_On_53_Vel_0
Time_Shift_42
Note_On_58_Vel_0
Time_Shift_99
Sustain_On
Time_Shift_770
Note_On_60_Vel_41
Time_Shift_6
Note_On_49_Vel_0
Time_Shift_161
Note_On_61_Vel_0
Time_Shift_7
Note_On_61_Vel_45
Time_Shift_60
Note_On_46_Vel_40
Time_Shift_3
Note_On_61_Vel_0
Time_Shift_1
Note_On_53_Vel_44
Time_Shift_1
Note_On_41_Vel_40
Time_Shift_1
Note_On_34_Vel_40
Time_Shift_1
Note_On_61_Vel_39
Time_Shift_4
Note_On_58_Vel_34
Time_Shift_51
Note_On_60_Vel_0
Time_Shift_2
Note_On_37_Vel_0
Sustain_Off
Time_Shift_1
Note_On_54_Vel_0
Time_Shift_2
Note_On_42_Vel_0
Note_On_61_Vel_0
Time_Shift_158
Sustain_On
Time_Shift_745
Note_On_58_Vel_0
Time_Shift_9
Note_On_58_Vel_37
Time_Shift_275
Note_On_58_Vel_0
Time_Shift_10
Note_On_58_Vel_42
Time_Shift_18
Note_On_49_Vel_27
Time_Shift_3
Note_On_54_Vel_34
Time_Shift_4
Note_On_37_Vel_30
Time_Shift_2
Note_On_42_Vel_30
Time_Shift_4
Note_On_30_Vel_29
Time_Shift_5
Note_On_30_Vel_0
Time_Shift_26
Sustain_Off
Time_Shift_6
Note_On_34_Vel_0
Time_Shift_2
Note_On_41_Vel_0
Time_Shift_2
Note_On_53_Vel_0
Time_Shift_203
Sustain_On
Time_Shift_952
Note_On_58_Vel_0
Time_Shift_10
Note_On_58_Vel_28
Time_Shift_543
Note_On_58_Vel_0
Time_Shift_5
Note_On_58_Vel_38
Time_Shift_10
Note_On_46_Vel_0
Time_Shift_4
Note_On_46_Vel_31
Time_Shift_1
Note_On_41_Vel_29
Time_Shift_3
Note_On_34_Vel_30
Time_Shift_133
Note_On_37_Vel_0
Time_Shift_1
Note_On_54_Vel_0
Note_On_49_Vel_0
Time_Shift_1
Note_On_42_Vel_0
Time_Shift_3
Sustain_Off
Time_Shift_661
Sustain_On
Time_Shift_3793
Note_On_58_Vel_0
Time_Shift_16
Note_On_34_Vel_0
Note_On_41_Vel_0
Note_On_46_Vel_0
Time_Shift_1593
Sustain_Off
