Time_Shift_15
Sustain_On
Time_Shift_2895
Sustain_Off
Time_Shift_46
Note_On_72_Vel_62
Time_Shift_758
Note_On_41_Vel_39
Time_Shift_18
Sustain_On
Time_Shift_680
Note_On_60_Vel_26
Time_Shift_1
Note_On_77_Vel_62
Time_Shift_4
Note_On_65_Vel_29
Time_Shift_10
Note_On_56_Vel_32
Time_Shift_554
Sustain_Off
Time_Shift_3
Note_On_41_Vel_0
Time_Shift_1
Note_On_72_Vel_0
Time_Shift_2
Note_On_60_Vel_0
Note_On_56_Vel_0
Note_On_77_Vel_0
Time_Shift_10
Note_On_75_Vel_55
Time_Shift_12
Note_On_43_Vel_30
Time_Shift_2
Note_On_67_Vel_23
Time_Shift_4
Note_On_65_Vel_0
Time_Shift_153
Sustain_On
Time_Shift_449
Note_On_73_Vel_52
Time_Shift_9
Note_On_63_Vel_32
Time_Shift_5
Note_On_70_Vel_36
Time_Shift_2
Note_On_51_Vel_28
Time_Shift_4
Note_On_70_Vel_0
Time_Shift_20
Note_On_58_Vel_29
Time_Shift_586
Note_On_67_Vel_0
Time_Shift_1
Note_On_72_Vel_50
Time_Shift_2
Note_On_51_Vel_0
Note_On_73_Vel_0
Note_On_58_Vel_0
Note_On_75_Vel_0
Sustain_Off
Time_Shift_1
Note_On_43_Vel_0
Time_Shift_19
Note_On_63_Vel_0
Time_Shift_5
Note_On_44_Vel_31
Time_Shift_6
Note_On_63_Vel_19
Time_Shift_204
Sustain_On
Time_Shift_282
Note_On_71_Vel_55
Time_Shift_141
Note_On_72_Vel_0
Time_Shift_4
Sustain_Off
Time_Shift_4
Note_On_44_Vel_0
Time_Shift_2
Note_On_72_Vel_55
Time_Shift_1
Note_On_71_Vel_0
Time_Shift_12
Note_On_63_Vel_0
Time_Shift_7
Note_On_68_Vel_32
Time_Shift_6
Note_On_60_Vel_29
Time_Shift_148
Sustain_On
Time_Shift_315
Note_On_73_Vel_51
Time_Shift_149
Note_On_60_Vel_0
Sustain_Off
Time_Shift_1
Note_On_68_Vel_0
Time_Shift_1
Note_On_73_Vel_0
Time_Shift_18
Note_On_72_Vel_0
Time_Shift_11
Note_On_72_Vel_55
Time_Shift_20
Note_On_40_Vel_26
Time_Shift_169
Sustain_On
Time_Shift_511
Note_On_67_Vel_30
Time_Shift_3
Note_On_60_Vel_30
Time_Shift_4
Note_On_58_Vel_30
Time_Shift_706
Sustain_Off
Note_On_58_Vel_0
Note_On_67_Vel_0
Note_On_60_Vel_0
Time_Shift_12
Note_On_40_Vel_0
Time_Shift_13
Note_On_41_Vel_34
Time_Shift_187
Sustain_On
Time_Shift_54
Note_On_41_Vel_0
Time_Shift_338
Note_On_72_Vel_0
Time_Shift_129
Note_On_77_Vel_60
Time_Shift_24
Note_On_65_Vel_24
Time_Shift_5
Note_On_60_Vel_24
Time_Shift_14
Note_On_56_Vel_22
Time_Shift_609
Note_On_60_Vel_0
Time_Shift_1
Note_On_65_Vel_0
Time_Shift_1
Note_On_56_Vel_0
Sustain_Off
Time_Shift_1
Note_On_77_Vel_0
Time_Shift_23
Note_On_75_Vel_59
Time_Shift_5
Note_On_43_Vel_31
Time_Shift_148
Sustain_On
Time_Shift_515
Note_On_63_Vel_34
Note_On_73_Vel_45
Time_Shift_11
Note_On_58_Vel_32
Time_Shift_11
Note_On_43_Vel_0
Time_Shift_4
Note_On_51_Vel_24
Time_Shift_617
Note_On_72_Vel_50
Time_Shift_12
Sustain_Off
Time_Shift_8
Note_On_75_Vel_0
Time_Shift_1
Note_On_58_Vel_0
Note_On_73_Vel_0
Note_On_51_Vel_0
Time_Shift_3
Note_On_63_Vel_0
Time_Shift_1
Note_On_68_Vel_25
Time_Shift_3
Note_On_44_Vel_33
Time_Shift_1
Note_On_63_Vel_21
Time_Shift_187
Sustain_On
Time_Shift_330
Note_On_68_Vel_0
Time_Shift_22
Note_On_71_Vel_51
Time_Shift_155
Note_On_72_Vel_0
Time_Shift_6
Sustain_Off
Time_Shift_2
Note_On_63_Vel_0
Time_Shift_2
Note_On_72_Vel_48
Time_Shift_1
Note_On_71_Vel_0
Time_Shift_4
Note_On_44_Vel_0
Time_Shift_5
Note_On_60_Vel_32
Time_Shift_2
Note_On_68_Vel_37
Time_Shift_139
Sustain_On
Time_Shift_192
Note_On_60_Vel_0
Time_Shift_174
Note_On_75_Vel_47
Time_Shift_41
Note_On_68_Vel_0
Time_Shift_7
Note_On_73_Vel_46
Time_Shift_1
Note_On_68_Vel_27
Time_Shift_188
Note_On_73_Vel_0
Time_Shift_1
Note_On_68_Vel_0
Note_On_75_Vel_0
Time_Shift_3
Note_On_72_Vel_0
Time_Shift_3
Sustain_Off
Time_Shift_2
Note_On_72_Vel_50
Time_Shift_5
Note_On_40_Vel_28
Time_Shift_159
Sustain_On
Time_Shift_123
Note_On_40_Vel_0
Time_Shift_452
Note_On_67_Vel_24
Time_Shift_3
Note_On_60_Vel_26
Time_Shift_10
Note_On_58_Vel_31
Time_Shift_7
Sustain_Off
Time_Shift_50
Sustain_On
Time_Shift_758
Note_On_67_Vel_0
Note_On_58_Vel_0
Time_Shift_2
Sustain_Off
Time_Shift_2
Note_On_60_Vel_0
Time_Shift_10
Note_On_41_Vel_31
Time_Shift_242
Sustain_On
Time_Shift_46
Note_On_41_Vel_0
Time_Shift_488
Note_On_77_Vel_47
Time_Shift_23
Note_On_60_Vel_23
Time_Shift_3
Note_On_65_Vel_17
Time_Shift_22
Note_On_56_Vel_20
Time_Shift_639
Note_On_75_Vel_51
Time_Shift_3
Note_On_43_Vel_31
Time_Shift_8
Note_On_72_Vel_0
Note_On_60_Vel_0
Note_On_56_Vel_0
Time_Shift_1
Note_On_65_Vel_0
Sustain_Off
Note_On_77_Vel_0
Time_Shift_188
Sustain_On
Time_Shift_497
Note_On_73_Vel_46
Time_Shift_12
Note_On_63_Vel_30
Time_Shift_3
Note_On_70_Vel_34
Time_Shift_17
Note_On_58_Vel_26
Time_Shift_22
Note_On_51_Vel_18
Time_Shift_664
Note_On_72_Vel_48
Time_Shift_13
Note_On_51_Vel_0
Time_Shift_2
Note_On_58_Vel_0
Note_On_44_Vel_35
Time_Shift_1
Note_On_75_Vel_0
Note_On_70_Vel_0
Note_On_73_Vel_0
Note_On_43_Vel_0
Time_Shift_6
Sustain_Off
Time_Shift_191
Sustain_On
Time_Shift_538
Note_On_63_Vel_0
Time_Shift_3
Note_On_68_Vel_38
Time_Shift_1
Note_On_63_Vel_30
Time_Shift_27
Note_On_60_Vel_30
Time_Shift_752
Note_On_44_Vel_0
Time_Shift_4
Note_On_70_Vel_49
Time_Shift_7
Sustain_Off
Note_On_63_Vel_0
Note_On_60_Vel_0
Note_On_68_Vel_0
Time_Shift_2
Note_On_72_Vel_0
Time_Shift_14
Note_On_53_Vel_18
Time_Shift_1
Note_On_46_Vel_28
Time_Shift_3
Note_On_53_Vel_0
Time_Shift_123
Sustain_On
Time_Shift_3
Note_On_72_Vel_47
Time_Shift_66
Note_On_70_Vel_0
Time_Shift_8
Note_On_70_Vel_41
Time_Shift_61
Note_On_72_Vel_0
Time_Shift_5
Note_On_72_Vel_48
Time_Shift_33
Note_On_70_Vel_0
Time_Shift_5
Note_On_53_Vel_16
Time_Shift_1
Note_On_70_Vel_49
Time_Shift_79
Note_On_72_Vel_0
Time_Shift_6
Note_On_72_Vel_46
Time_Shift_48
Note_On_70_Vel_0
Time_Shift_11
Note_On_70_Vel_49
Time_Shift_92
Note_On_69_Vel_43
Time_Shift_73
Note_On_70_Vel_0
Time_Shift_5
Note_On_70_Vel_44
Time_Shift_97
Sustain_Off
Time_Shift_6
Note_On_53_Vel_0
Note_On_72_Vel_0
Time_Shift_2
Note_On_46_Vel_0
Time_Shift_1
Note_On_69_Vel_0
Note_On_70_Vel_0
Time_Shift_3
Note_On_72_Vel_50
Time_Shift_27
Note_On_54_Vel_18
Time_Shift_2
Note_On_61_Vel_20
Time_Shift_188
Sustain_On
Time_Shift_457
Note_On_73_Vel_50
Time_Shift_136
Note_On_72_Vel_0
Time_Shift_1
Note_On_61_Vel_0
Time_Shift_24
Sustain_Off
Time_Shift_4
Note_On_54_Vel_0
Time_Shift_5
Note_On_68_Vel_45
Time_Shift_1
Note_On_48_Vel_21
Time_Shift_8
Note_On_73_Vel_0
Time_Shift_11
Note_On_60_Vel_12
Time_Shift_136
Note_On_60_Vel_0
Time_Shift_23
Sustain_On
Time_Shift_534
Note_On_65_Vel_26
Time_Shift_14
Note_On_60_Vel_24
Time_Shift_4
Note_On_56_Vel_29
Time_Shift_239
Note_On_48_Vel_0
Time_Shift_372
Note_On_58_Vel_41
Time_Shift_122
Note_On_64_Vel_39
Time_Shift_55
Sustain_Off
Time_Shift_58
Note_On_68_Vel_0
Time_Shift_5
Note_On_36_Vel_23
Time_Shift_5
Note_On_68_Vel_40
Time_Shift_67
Sustain_On
Time_Shift_675
Note_On_64_Vel_0
Time_Shift_6
Sustain_Off
Time_Shift_1
Note_On_67_Vel_26
Time_Shift_1
Note_On_58_Vel_0
Note_On_60_Vel_0
Time_Shift_3
Note_On_48_Vel_28
Note_On_64_Vel_16
Time_Shift_1
Note_On_68_Vel_0
Time_Shift_2
Note_On_58_Vel_17
Time_Shift_4
Note_On_60_Vel_21
Time_Shift_5
Note_On_36_Vel_0
Note_On_56_Vel_0
Time_Shift_16
Note_On_65_Vel_0
Time_Shift_123
Sustain_On
Time_Shift_656
Note_On_65_Vel_31
Time_Shift_211
Note_On_65_Vel_0
Time_Shift_9
Note_On_65_Vel_22
Time_Shift_11
Sustain_Off
Time_Shift_10
Note_On_56_Vel_24
Time_Shift_21
Note_On_58_Vel_0
Time_Shift_1
Note_On_64_Vel_0
Note_On_48_Vel_0
Time_Shift_14
Note_On_41_Vel_24
Time_Shift_4
Note_On_67_Vel_0
Time_Shift_30
Note_On_60_Vel_0
Time_Shift_123
Sustain_On
Time_Shift_574
Note_On_60_Vel_24
Time_Shift_18
Note_On_56_Vel_0
Time_Shift_9
Note_On_56_Vel_27
Time_Shift_820
Note_On_72_Vel_53
Time_Shift_23
Note_On_41_Vel_0
Time_Shift_5
Note_On_41_Vel_24
Time_Shift_7
Note_On_56_Vel_0
Time_Shift_5
Sustain_Off
Time_Shift_29
Note_On_60_Vel_0
Note_On_65_Vel_0
Time_Shift_138
Sustain_On
Time_Shift_638
Note_On_72_Vel_0
Time_Shift_8
Note_On_72_Vel_45
Time_Shift_36
Note_On_64_Vel_27
Time_Shift_19
Note_On_55_Vel_11
Time_Shift_6
Note_On_55_Vel_0
Time_Shift_983
Note_On_41_Vel_0
Time_Shift_4
Note_On_41_Vel_26
Time_Shift_7
Note_On_64_Vel_0
Time_Shift_14
Sustain_Off
Time_Shift_182
Sustain_On
Time_Shift_617
Note_On_77_Vel_39
Time_Shift_1
Note_On_60_Vel_18
Time_Shift_4
Note_On_65_Vel_22
Time_Shift_19
Note_On_56_Vel_26
Time_Shift_243
Note_On_72_Vel_0
Time_Shift_404
Sustain_Off
Time_Shift_3
Note_On_41_Vel_0
Time_Shift_5
Note_On_65_Vel_0
Note_On_56_Vel_0
Time_Shift_1
Note_On_77_Vel_0
Time_Shift_5
Note_On_75_Vel_38
Time_Shift_2
Note_On_43_Vel_25
Time_Shift_2
Note_On_60_Vel_0
Time_Shift_184
Sustain_On
Time_Shift_542
Note_On_63_Vel_28
Time_Shift_2
Note_On_73_Vel_41
Time_Shift_11
Note_On_58_Vel_29
Time_Shift_1
Note_On_51_Vel_27
Time_Shift_673
Note_On_43_Vel_0
Note_On_75_Vel_0
Time_Shift_5
Note_On_51_Vel_0
Sustain_Off
Time_Shift_1
Note_On_72_Vel_40
Note_On_75_Vel_33
Time_Shift_1
Note_On_58_Vel_0
Note_On_73_Vel_0
Time_Shift_16
Note_On_63_Vel_0
Time_Shift_2
Note_On_68_Vel_25
Time_Shift_1
Note_On_44_Vel_30
Time_Shift_4
Note_On_63_Vel_16
Time_Shift_1
Note_On_68_Vel_0
Time_Shift_246
Sustain_On
Time_Shift_294
Note_On_71_Vel_40
Time_Shift_143
Note_On_72_Vel_0
Time_Shift_6
Note_On_72_Vel_46
Time_Shift_1
Sustain_Off
Time_Shift_4
Note_On_68_Vel_34
Time_Shift_1
Note_On_60_Vel_29
Time_Shift_9
Note_On_44_Vel_0
Time_Shift_6
Note_On_63_Vel_0
Time_Shift_4
Note_On_71_Vel_0
Time_Shift_8
Note_On_75_Vel_0
Time_Shift_176
Sustain_On
Time_Shift_361
Note_On_73_Vel_48
Time_Shift_162
Note_On_60_Vel_0
Note_On_72_Vel_0
Time_Shift_3
Sustain_Off
Time_Shift_2
Note_On_72_Vel_42
Time_Shift_1
Note_On_68_Vel_0
Time_Shift_3
Note_On_73_Vel_0
Time_Shift_8
Note_On_40_Vel_19
Time_Shift_182
Sustain_On
Time_Shift_521
Note_On_60_Vel_24
Time_Shift_5
Note_On_67_Vel_29
Time_Shift_16
Note_On_58_Vel_28
Time_Shift_721
Note_On_41_Vel_37
Time_Shift_16
Sustain_Off
Time_Shift_3
Note_On_58_Vel_0
Time_Shift_1
Note_On_67_Vel_0
Note_On_60_Vel_0
Time_Shift_1
Note_On_72_Vel_0
Time_Shift_14
Note_On_40_Vel_0
Time_Shift_169
Sustain_On
Time_Shift_62
Note_On_41_Vel_0
Time_Shift_521
Note_On_77_Vel_55
Time_Shift_22
Note_On_65_Vel_20
Time_Shift_6
Note_On_60_Vel_20
Time_Shift_7
Note_On_56_Vel_26
Time_Shift_638
Note_On_43_Vel_31
Time_Shift_5
Note_On_75_Vel_53
Time_Shift_26
Sustain_Off
Time_Shift_1
Note_On_60_Vel_0
Note_On_65_Vel_0
Note_On_56_Vel_0
Time_Shift_3
Note_On_77_Vel_0
Time_Shift_207
Sustain_On
Time_Shift_473
Note_On_63_Vel_31
Time_Shift_1
Note_On_73_Vel_44
Time_Shift_35
Note_On_51_Vel_22
Time_Shift_1
Note_On_58_Vel_27
Time_Shift_678
Note_On_72_Vel_43
Time_Shift_4
Note_On_44_Vel_33
Time_Shift_3
Note_On_68_Vel_30
Time_Shift_3
Sustain_Off
Time_Shift_4
Note_On_58_Vel_0
Time_Shift_1
Note_On_63_Vel_0
Note_On_51_Vel_0
Time_Shift_3
Note_On_43_Vel_0
Time_Shift_3
Note_On_75_Vel_0
Note_On_73_Vel_0
Time_Shift_227
Sustain_On
Time_Shift_358
Note_On_71_Vel_42
Time_Shift_164
Note_On_72_Vel_0
Time_Shift_10
Note_On_72_Vel_47
Time_Shift_5
Note_On_68_Vel_0
Time_Shift_5
Note_On_60_Vel_28
Time_Shift_3
Note_On_68_Vel_31
Time_Shift_5
Sustain_Off
Time_Shift_6
Note_On_71_Vel_0
Time_Shift_12
Note_On_44_Vel_0
Time_Shift_177
Sustain_On
Time_Shift_451
Note_On_75_Vel_36
Time_Shift_69
Note_On_73_Vel_42
Time_Shift_202
Note_On_72_Vel_0
Time_Shift_4
Note_On_73_Vel_0
Time_Shift_1
Note_On_72_Vel_43
Time_Shift_1
Note_On_60_Vel_0
Note_On_68_Vel_0
Time_Shift_1
Note_On_75_Vel_0
Time_Shift_4
Sustain_Off
Time_Shift_25
Note_On_40_Vel_19
Time_Shift_171
Sustain_On
Time_Shift_525
Note_On_67_Vel_30
Time_Shift_17
Note_On_58_Vel_29
Time_Shift_2
Note_On_60_Vel_25
Time_Shift_332
Note_On_40_Vel_0
Time_Shift_381
Note_On_60_Vel_0
Note_On_72_Vel_0
Note_On_58_Vel_0
Note_On_67_Vel_0
Time_Shift_4
Sustain_Off
Time_Shift_32
Note_On_41_Vel_33
Time_Shift_189
Sustain_On
Time_Shift_477
Note_On_41_Vel_0
Time_Shift_82
Note_On_77_Vel_53
Time_Shift_2
Note_On_60_Vel_23
Time_Shift_2
Note_On_53_Vel_21
Time_Shift_6
Note_On_53_Vel_0
Time_Shift_7
Note_On_65_Vel_22
Time_Shift_5
Note_On_56_Vel_26
Time_Shift_677
Note_On_43_Vel_38
Time_Shift_5
Sustain_Off
Time_Shift_1
Note_On_75_Vel_59
Time_Shift_4
Note_On_56_Vel_0
Time_Shift_2
Note_On_60_Vel_0
Note_On_65_Vel_0
Time_Shift_2
Note_On_77_Vel_0
Time_Shift_126
Sustain_On
Time_Shift_207
Note_On_43_Vel_0
Time_Shift_338
Note_On_73_Vel_53
Time_Shift_4
Note_On_58_Vel_36
Time_Shift_3
Note_On_63_Vel_38
Time_Shift_11
Note_On_70_Vel_36
Time_Shift_5
Note_On_70_Vel_0
Time_Shift_4
Note_On_51_Vel_29
Time_Shift_713
Note_On_72_Vel_53
Time_Shift_10
Note_On_44_Vel_39
Time_Shift_24
Sustain_Off
Time_Shift_9
Note_On_63_Vel_0
Time_Shift_3
Note_On_58_Vel_0
Time_Shift_1
Note_On_51_Vel_0
Note_On_73_Vel_0
Time_Shift_1
Note_On_75_Vel_0
Time_Shift_249
Sustain_On
Time_Shift_524
Note_On_68_Vel_36
Time_Shift_20
Note_On_63_Vel_30
Time_Shift_9
Note_On_60_Vel_29
Time_Shift_554
Note_On_69_Vel_43
Time_Shift_110
Note_On_70_Vel_53
Time_Shift_120
Note_On_44_Vel_0
Time_Shift_7
Note_On_70_Vel_0
Time_Shift_11
Note_On_69_Vel_0
Time_Shift_1
Note_On_70_Vel_51
Note_On_68_Vel_0
Note_On_72_Vel_0
Note_On_63_Vel_0
Note_On_60_Vel_0
Time_Shift_1
Note_On_46_Vel_35
Time_Shift_1
Sustain_Off
Time_Shift_109
Sustain_On
Time_Shift_52
Note_On_72_Vel_54
Time_Shift_71
Note_On_70_Vel_0
Time_Shift_5
Note_On_70_Vel_50
Time_Shift_79
Note_On_72_Vel_0
Time_Shift_7
Note_On_72_Vel_46
Time_Shift_32
Note_On_70_Vel_0
Time_Shift_11
Note_On_70_Vel_47
Time_Shift_43
Note_On_72_Vel_0
Time_Shift_6
Note_On_72_Vel_51
Time_Shift_63
Note_On_70_Vel_0
Time_Shift_6
Note_On_70_Vel_41
Time_Shift_55
Note_On_72_Vel_0
Time_Shift_4
Note_On_72_Vel_40
Time_Shift_19
Note_On_70_Vel_0
Time_Shift_10
Note_On_70_Vel_51
Time_Shift_52
Note_On_72_Vel_0
Time_Shift_8
Note_On_72_Vel_46
Time_Shift_38
Note_On_70_Vel_0
Time_Shift_10
Note_On_70_Vel_50
Time_Shift_67
Note_On_72_Vel_0
Time_Shift_2
Note_On_54_Vel_40
Time_Shift_2
Note_On_72_Vel_53
Time_Shift_26
Note_On_70_Vel_0
Time_Shift_6
Note_On_70_Vel_52
Time_Shift_48
Note_On_72_Vel_0
Time_Shift_4
Note_On_72_Vel_54
Time_Shift_65
Note_On_70_Vel_0
Time_Shift_11
Note_On_70_Vel_54
Time_Shift_115
Note_On_69_Vel_51
Time_Shift_151
Note_On_70_Vel_0
Time_Shift_8
Note_On_70_Vel_53
Time_Shift_138
Note_On_72_Vel_0
Time_Shift_8
Note_On_72_Vel_53
Time_Shift_137
Note_On_75_Vel_52
Time_Shift_105
Note_On_73_Vel_54
Time_Shift_122
Note_On_46_Vel_0
Note_On_75_Vel_0
Note_On_70_Vel_0
Note_On_72_Vel_0
Note_On_54_Vel_0
Time_Shift_1
Sustain_Off
Time_Shift_2
Note_On_69_Vel_0
Time_Shift_5
Note_On_73_Vel_0
Time_Shift_20
Note_On_68_Vel_51
Time_Shift_23
Note_On_60_Vel_20
Time_Shift_4
Note_On_48_Vel_29
Time_Shift_110
Note_On_60_Vel_0
Time_Shift_184
Sustain_On
Time_Shift_510
Note_On_65_Vel_26
Note_On_60_Vel_32
Time_Shift_2
Note_On_56_Vel_30
Time_Shift_620
Note_On_58_Vel_49
Time_Shift_128
Note_On_58_Vel_0
Time_Shift_4
Note_On_58_Vel_49
Time_Shift_111
Note_On_58_Vel_0
Time_Shift_11
Note_On_58_Vel_39
Time_Shift_50
Note_On_64_Vel_49
Time_Shift_90
Sustain_Off
Time_Shift_18
Note_On_68_Vel_0
Time_Shift_7
Note_On_68_Vel_43
Time_Shift_200
Sustain_On
Time_Shift_24
Note_On_48_Vel_0
Note_On_56_Vel_0
Time_Shift_15
Note_On_65_Vel_0
Time_Shift_561
Note_On_60_Vel_0
Time_Shift_6
Note_On_67_Vel_38
Note_On_60_Vel_25
Time_Shift_1
Note_On_58_Vel_0
Time_Shift_8
Note_On_58_Vel_22
Time_Shift_9
Note_On_48_Vel_27
Time_Shift_35
Note_On_68_Vel_0
Time_Shift_4
Sustain_Off
Time_Shift_267
Sustain_On
Time_Shift_571
Note_On_65_Vel_35
Time_Shift_243
Note_On_65_Vel_0
Time_Shift_11
Note_On_65_Vel_30
Time_Shift_1
Note_On_56_Vel_28
Time_Shift_30
Note_On_41_Vel_21
Time_Shift_15
Sustain_Off
Time_Shift_1
Note_On_67_Vel_0
Note_On_64_Vel_0
Time_Shift_11
Note_On_58_Vel_0
Note_On_60_Vel_0
Time_Shift_8
Note_On_48_Vel_0
Time_Shift_169
Sustain_On
Time_Shift_570
Note_On_60_Vel_27
Time_Shift_13
Note_On_56_Vel_0
Time_Shift_9
Note_On_56_Vel_28
Time_Shift_690
Note_On_41_Vel_0
Time_Shift_5
Note_On_68_Vel_52
Time_Shift_2
Note_On_41_Vel_20
Time_Shift_12
Note_On_53_Vel_21
Time_Shift_15
Sustain_Off
Time_Shift_51
Sustain_On
Time_Shift_507
Note_On_41_Vel_0
Note_On_65_Vel_0
Time_Shift_99
Note_On_68_Vel_0
Time_Shift_6
Note_On_68_Vel_50
Time_Shift_10
Note_On_56_Vel_0
Time_Shift_7
Note_On_56_Vel_26
Time_Shift_5
Note_On_62_Vel_35
Time_Shift_15
Note_On_52_Vel_28
Time_Shift_19
Sustain_Off
Time_Shift_54
Sustain_On
Time_Shift_528
Note_On_70_Vel_45
Time_Shift_1
Note_On_53_Vel_0
Time_Shift_4
Note_On_51_Vel_29
Time_Shift_7
Note_On_52_Vel_0
Time_Shift_1
Note_On_62_Vel_0
Sustain_Off
Time_Shift_4
Note_On_68_Vel_0
Time_Shift_8
Note_On_60_Vel_0
Time_Shift_38
Note_On_56_Vel_0
Time_Shift_192
Sustain_On
Time_Shift_514
Note_On_62_Vel_42
Time_Shift_6
Note_On_61_Vel_29
Time_Shift_45
Note_On_56_Vel_9
Time_Shift_271
Note_On_63_Vel_52
Time_Shift_258
Sustain_Off
Time_Shift_1
Note_On_61_Vel_0
Time_Shift_1
Note_On_65_Vel_42
Note_On_62_Vel_0
Note_On_56_Vel_0
Time_Shift_1
Note_On_63_Vel_0
Time_Shift_2
Note_On_51_Vel_0
Time_Shift_23
Note_On_39_Vel_28
Time_Shift_130
Sustain_On
Time_Shift_134
Note_On_63_Vel_54
Time_Shift_278
Note_On_68_Vel_54
Time_Shift_23
Note_On_61_Vel_28
Time_Shift_4
Note_On_55_Vel_28
Time_Shift_2
Note_On_65_Vel_0
Sustain_Off
Note_On_63_Vel_0
Time_Shift_66
Note_On_70_Vel_0
Time_Shift_76
Sustain_On
Time_Shift_8
Note_On_39_Vel_0
Time_Shift_117
Note_On_70_Vel_56
Time_Shift_263
Note_On_61_Vel_0
Note_On_68_Vel_0
Time_Shift_8
Note_On_55_Vel_0
Time_Shift_1
Sustain_Off
Time_Shift_26
Note_On_72_Vel_51
Time_Shift_3
Note_On_70_Vel_0
Time_Shift_23
Note_On_44_Vel_28
Time_Shift_204
Sustain_On
Time_Shift_414
Note_On_60_Vel_27
Time_Shift_7
Note_On_56_Vel_25
Time_Shift_15
Note_On_51_Vel_22
Time_Shift_570
Note_On_72_Vel_0
Time_Shift_5
Note_On_72_Vel_61
Time_Shift_18
Note_On_44_Vel_0
Time_Shift_11
Note_On_44_Vel_31
Time_Shift_1
Sustain_Off
Time_Shift_1
Note_On_56_Vel_0
Time_Shift_3
Note_On_51_Vel_0
Note_On_60_Vel_0
Time_Shift_123
Sustain_On
Time_Shift_483
Note_On_72_Vel_0
Time_Shift_6
Note_On_72_Vel_65
Time_Shift_27
Note_On_60_Vel_33
Time_Shift_7
Note_On_53_Vel_22
Time_Shift_8
Note_On_50_Vel_27
Time_Shift_587
Note_On_74_Vel_63
Time_Shift_5
Note_On_43_Vel_33
Time_Shift_17
Sustain_Off
Time_Shift_2
Note_On_53_Vel_0
Note_On_60_Vel_0
Time_Shift_1
Note_On_50_Vel_0
Note_On_72_Vel_0
Time_Shift_16
Note_On_44_Vel_0
Time_Shift_192
Sustain_On
Time_Shift_424
Note_On_66_Vel_53
Time_Shift_19
Note_On_60_Vel_35
Time_Shift_15
Note_On_53_Vel_23
Time_Shift_11
Note_On_53_Vel_0
Time_Shift_1
Note_On_50_Vel_30
Time_Shift_275
Note_On_67_Vel_67
Time_Shift_264
Note_On_68_Vel_66
Time_Shift_6
Note_On_60_Vel_0
Note_On_66_Vel_0
Sustain_Off
Time_Shift_3
Note_On_74_Vel_0
Time_Shift_4
Note_On_43_Vel_0
Time_Shift_7
Note_On_50_Vel_0
Time_Shift_4
Note_On_43_Vel_36
Time_Shift_1
Note_On_50_Vel_27
Time_Shift_18
Note_On_50_Vel_0
Time_Shift_8
Note_On_67_Vel_0
Time_Shift_169
Sustain_On
Time_Shift_149
Note_On_67_Vel_70
Time_Shift_271
Note_On_72_Vel_75
Time_Shift_29
Note_On_59_Vel_40
Time_Shift_1
Note_On_50_Vel_32
Time_Shift_1
Note_On_53_Vel_31
Time_Shift_259
Note_On_74_Vel_79
Time_Shift_286
Note_On_68_Vel_0
Note_On_72_Vel_0
Note_On_50_Vel_0
Note_On_59_Vel_0
Note_On_74_Vel_0
Time_Shift_1
Note_On_53_Vel_0
Note_On_67_Vel_0
Time_Shift_1
Note_On_43_Vel_0
Time_Shift_5
Sustain_Off
Time_Shift_30
Note_On_76_Vel_74
Time_Shift_3
Note_On_36_Vel_36
Time_Shift_277
Sustain_On
Time_Shift_512
Note_On_67_Vel_35
Time_Shift_1
Note_On_60_Vel_39
Time_Shift_1
Note_On_58_Vel_41
Time_Shift_4
Note_On_55_Vel_32
Time_Shift_874
Note_On_60_Vel_0
Time_Shift_1
Note_On_36_Vel_0
Note_On_58_Vel_0
Time_Shift_2
Note_On_76_Vel_0
Time_Shift_1
Sustain_Off
Time_Shift_16
Note_On_77_Vel_73
Time_Shift_1
Note_On_67_Vel_0
Time_Shift_3
Note_On_48_Vel_34
Time_Shift_3
Note_On_67_Vel_41
Time_Shift_186
Note_On_55_Vel_0
Time_Shift_24
Sustain_On
Time_Shift_122
Note_On_67_Vel_0
Time_Shift_457
Note_On_75_Vel_68
Note_On_60_Vel_35
Time_Shift_2
Note_On_68_Vel_41
Time_Shift_5
Note_On_56_Vel_35
Time_Shift_5
Note_On_68_Vel_0
Time_Shift_549
Note_On_73_Vel_73
Time_Shift_204
Note_On_73_Vel_0
Time_Shift_6
Note_On_73_Vel_59
Time_Shift_9
Note_On_48_Vel_0
Time_Shift_7
Note_On_48_Vel_28
Time_Shift_4
Sustain_Off
Time_Shift_30
Note_On_77_Vel_0
Note_On_56_Vel_0
Time_Shift_1
Note_On_60_Vel_0
Time_Shift_2
Note_On_75_Vel_0
Time_Shift_240
Sustain_On
Time_Shift_396
Note_On_72_Vel_51
Time_Shift_8
Note_On_55_Vel_25
Time_Shift_2
Note_On_63_Vel_33
Time_Shift_16
Sustain_Off
Time_Shift_31
Note_On_73_Vel_0
Time_Shift_192
Sustain_On
Time_Shift_461
Note_On_48_Vel_0
Time_Shift_3
Note_On_73_Vel_58
Time_Shift_7
Note_On_48_Vel_42
Time_Shift_26
Sustain_Off
Time_Shift_22
Note_On_72_Vel_0
Time_Shift_7
Note_On_63_Vel_0
Time_Shift_258
Sustain_On
Time_Shift_322
Note_On_55_Vel_0
Time_Shift_103
Note_On_72_Vel_56
Time_Shift_16
Note_On_53_Vel_31
Time_Shift_7
Note_On_56_Vel_32
Time_Shift_37
Sustain_Off
Time_Shift_10
Note_On_48_Vel_0
Time_Shift_1
Note_On_73_Vel_0
Time_Shift_248
Sustain_On
Time_Shift_260
Note_On_70_Vel_55
Time_Shift_186
Note_On_70_Vel_0
Time_Shift_9
Note_On_70_Vel_46
Time_Shift_8
Sustain_Off
Time_Shift_4
Note_On_48_Vel_34
Time_Shift_22
Note_On_72_Vel_0
Time_Shift_4
Note_On_53_Vel_0
Time_Shift_3
Note_On_56_Vel_0
Time_Shift_219
Sustain_On
Time_Shift_472
Note_On_68_Vel_48
Time_Shift_8
Note_On_60_Vel_33
Time_Shift_19
Note_On_51_Vel_30
Time_Shift_20
Sustain_Off
Time_Shift_8
Note_On_48_Vel_0
Time_Shift_56
Note_On_70_Vel_0
Time_Shift_116
Sustain_On
Time_Shift_521
Note_On_48_Vel_33
Time_Shift_1
Note_On_67_Vel_44
Time_Shift_24
Sustain_Off
Time_Shift_11
Note_On_68_Vel_0
Time_Shift_5
Note_On_51_Vel_0
Time_Shift_14
Note_On_60_Vel_0
Time_Shift_161
Sustain_On
Time_Shift_481
Note_On_70_Vel_39
Time_Shift_92
Note_On_68_Vel_43
Time_Shift_5
Note_On_67_Vel_0
Time_Shift_2
Note_On_48_Vel_0
Time_Shift_1
Sustain_Off
Time_Shift_4
Note_On_59_Vel_32
Time_Shift_11
Note_On_53_Vel_24
Time_Shift_5
Note_On_49_Vel_27
Time_Shift_190
Sustain_On
Time_Shift_184
Note_On_70_Vel_0
Time_Shift_190
Note_On_67_Vel_46
Time_Shift_179
Note_On_67_Vel_0
Time_Shift_9
Note_On_67_Vel_45
Time_Shift_10
Note_On_48_Vel_32
Time_Shift_31
Sustain_Off
Time_Shift_2
Note_On_53_Vel_0
Note_On_49_Vel_0
Time_Shift_1
Note_On_68_Vel_0
Time_Shift_1
Note_On_59_Vel_0
Time_Shift_199
Sustain_On
Time_Shift_515
Note_On_67_Vel_0
Time_Shift_10
Note_On_67_Vel_35
Time_Shift_6
Note_On_60_Vel_25
Time_Shift_21
Note_On_52_Vel_28
Time_Shift_1
Note_On_48_Vel_0
Time_Shift_4
Note_On_48_Vel_19
Sustain_Off
Time_Shift_104
Sustain_On
Time_Shift_637
Note_On_67_Vel_0
Time_Shift_6
Note_On_67_Vel_39
Time_Shift_17
Note_On_48_Vel_0
Time_Shift_11
Note_On_48_Vel_31
Time_Shift_23
Sustain_Off
Time_Shift_52
Note_On_52_Vel_0
Time_Shift_22
Note_On_60_Vel_0
Time_Shift_115
Sustain_On
Time_Shift_475
Note_On_70_Vel_37
Time_Shift_100
Note_On_68_Vel_35
Time_Shift_12
Note_On_59_Vel_28
Time_Shift_9
Note_On_49_Vel_18
Time_Shift_1
Note_On_53_Vel_15
Time_Shift_48
Note_On_67_Vel_0
Time_Shift_46
Sustain_Off
Time_Shift_92
Sustain_On
Time_Shift_580
Note_On_67_Vel_38
Time_Shift_227
Note_On_48_Vel_0
Note_On_67_Vel_0
Time_Shift_8
Note_On_48_Vel_30
Time_Shift_3
Note_On_67_Vel_35
Time_Shift_45
Sustain_Off
Time_Shift_8
Note_On_53_Vel_0
Time_Shift_1
Note_On_49_Vel_0
Note_On_59_Vel_0
Time_Shift_1
Note_On_68_Vel_0
Time_Shift_11
Note_On_70_Vel_0
Time_Shift_138
Sustain_On
Time_Shift_577
Note_On_72_Vel_54
Time_Shift_20
Note_On_58_Vel_32
Time_Shift_11
Note_On_52_Vel_31
Time_Shift_106
Sustain_Off
Time_Shift_85
Sustain_On
Time_Shift_491
Note_On_72_Vel_0
Time_Shift_4
Note_On_72_Vel_65
Time_Shift_657
Note_On_48_Vel_0
Time_Shift_322
Note_On_72_Vel_0
Time_Shift_5
Note_On_72_Vel_51
Time_Shift_812
Sustain_Off
Time_Shift_5
Note_On_67_Vel_0
Time_Shift_7
Note_On_52_Vel_0
Time_Shift_12
Note_On_58_Vel_0
Time_Shift_565
Sustain_On
Time_Shift_16
Note_On_41_Vel_25
Time_Shift_14
Sustain_Off
Time_Shift_138
Sustain_On
Time_Shift_783
Note_On_77_Vel_41
Time_Shift_7
Note_On_56_Vel_25
Time_Shift_5
Note_On_48_Vel_19
Time_Shift_64
Sustain_Off
Time_Shift_34
Note_On_72_Vel_0
Time_Shift_2
Note_On_41_Vel_0
Time_Shift_127
Sustain_On
Time_Shift_485
Note_On_75_Vel_43
Time_Shift_12
Note_On_43_Vel_25
Time_Shift_10
Note_On_48_Vel_0
Time_Shift_4
Note_On_56_Vel_0
Time_Shift_1
Sustain_Off
Time_Shift_3
Note_On_77_Vel_0
Time_Shift_191
Sustain_On
Time_Shift_494
Note_On_73_Vel_45
Time_Shift_9
Note_On_63_Vel_28
Time_Shift_8
Note_On_75_Vel_0
Sustain_Off
Time_Shift_4
Note_On_43_Vel_0
Time_Shift_4
Note_On_51_Vel_24
Time_Shift_7
Note_On_58_Vel_19
Time_Shift_173
Sustain_On
Time_Shift_504
Sustain_Off
Time_Shift_3
Note_On_72_Vel_46
Time_Shift_3
Note_On_58_Vel_0
Note_On_51_Vel_0
Note_On_73_Vel_0
Time_Shift_6
Note_On_44_Vel_30
Time_Shift_4
Note_On_68_Vel_25
Time_Shift_3
Note_On_63_Vel_0
Time_Shift_5
Note_On_63_Vel_15
Time_Shift_179
Sustain_On
Time_Shift_394
Note_On_71_Vel_46
Time_Shift_105
Note_On_63_Vel_0
Time_Shift_8
Note_On_68_Vel_0
Time_Shift_14
Sustain_Off
Time_Shift_1
Note_On_72_Vel_0
Time_Shift_11
Note_On_72_Vel_51
Time_Shift_7
Note_On_44_Vel_0
Time_Shift_3
Note_On_71_Vel_0
Time_Shift_13
Note_On_68_Vel_26
Time_Shift_13
Note_On_60_Vel_28
Time_Shift_214
Sustain_On
Time_Shift_397
Note_On_73_Vel_50
Time_Shift_16
Note_On_53_Vel_12
Time_Shift_10
Note_On_53_Vel_0
Time_Shift_100
Note_On_60_Vel_0
Time_Shift_26
Sustain_Off
Time_Shift_8
Note_On_68_Vel_0
Time_Shift_4
Note_On_72_Vel_0
Time_Shift_2
Note_On_73_Vel_0
Time_Shift_5
Note_On_72_Vel_41
Time_Shift_22
Note_On_40_Vel_21
Time_Shift_247
Sustain_On
Time_Shift_496
Note_On_60_Vel_23
Time_Shift_2
Note_On_58_Vel_26
Time_Shift_3
Note_On_67_Vel_24
Time_Shift_722
Note_On_41_Vel_35
Time_Shift_5
Sustain_Off
Time_Shift_5
Note_On_67_Vel_0
Note_On_58_Vel_0
Note_On_72_Vel_0
Note_On_60_Vel_0
Time_Shift_27
Note_On_40_Vel_0
Time_Shift_161
Note_On_41_Vel_0
Time_Shift_8
Sustain_On
Time_Shift_492
Note_On_56_Vel_25
Time_Shift_1
Note_On_60_Vel_27
Time_Shift_10
Note_On_53_Vel_17
Time_Shift_54
Note_On_76_Vel_46
Time_Shift_54
Note_On_65_Vel_11
Time_Shift_286
Note_On_79_Vel_51
Time_Shift_237
Note_On_77_Vel_48
Time_Shift_182
Sustain_Off
Time_Shift_6
Note_On_79_Vel_0
Time_Shift_1
Note_On_56_Vel_0
Note_On_60_Vel_0
Time_Shift_1
Note_On_76_Vel_0
Note_On_65_Vel_0
Note_On_77_Vel_0
Time_Shift_8
Note_On_43_Vel_25
Time_Shift_4
Note_On_53_Vel_0
Time_Shift_18
Note_On_75_Vel_45
Time_Shift_174
Sustain_On
Time_Shift_191
Note_On_63_Vel_38
Time_Shift_9
Note_On_43_Vel_0
Time_Shift_257
Note_On_70_Vel_50
Time_Shift_56
Note_On_51_Vel_20
Time_Shift_54
Note_On_58_Vel_25
Time_Shift_94
Note_On_63_Vel_0
Time_Shift_5
Note_On_72_Vel_54
Time_Shift_1
Note_On_63_Vel_28
Time_Shift_186
Note_On_75_Vel_0
Time_Shift_10
Note_On_75_Vel_51
Time_Shift_193
Note_On_73_Vel_55
Time_Shift_196
Note_On_72_Vel_0
Time_Shift_6
Note_On_72_Vel_49
Time_Shift_6
Note_On_44_Vel_35
Time_Shift_10
Note_On_63_Vel_0
Time_Shift_2
Note_On_58_Vel_0
Note_On_73_Vel_0
Time_Shift_1
Note_On_75_Vel_0
Note_On_51_Vel_0
Sustain_Off
Time_Shift_1
Note_On_70_Vel_0
Time_Shift_201
Note_On_60_Vel_43
Time_Shift_19
Sustain_On
Time_Shift_204
Note_On_63_Vel_49
Time_Shift_204
Sustain_Off
Time_Shift_7
Note_On_60_Vel_0
Time_Shift_5
Note_On_68_Vel_45
Note_On_63_Vel_0
Time_Shift_5
Note_On_60_Vel_24
Time_Shift_9
Note_On_56_Vel_29
Time_Shift_14
Note_On_51_Vel_18
Time_Shift_36
Note_On_72_Vel_0
Time_Shift_123
Note_On_44_Vel_0
Time_Shift_38
Sustain_On
Time_Shift_54
Sustain_Off
Time_Shift_27
Note_On_71_Vel_44
Time_Shift_96
Sustain_On
Time_Shift_218
Note_On_73_Vel_46
Time_Shift_248
Note_On_68_Vel_0
Sustain_Off
Time_Shift_2
Note_On_60_Vel_0
Time_Shift_3
Note_On_72_Vel_46
Time_Shift_9
Note_On_40_Vel_17
Time_Shift_19
Note_On_56_Vel_0
Time_Shift_7
Note_On_51_Vel_0
Time_Shift_8
Note_On_71_Vel_0
Time_Shift_3
Note_On_73_Vel_0
Time_Shift_212
Sustain_On
Time_Shift_518
Note_On_67_Vel_23
Time_Shift_3
Note_On_60_Vel_23
Time_Shift_3
Note_On_58_Vel_27
Time_Shift_824
Note_On_41_Vel_39
Time_Shift_35
Sustain_Off
Time_Shift_2
Note_On_58_Vel_0
Note_On_67_Vel_0
Note_On_72_Vel_0
Time_Shift_1
Note_On_60_Vel_0
Time_Shift_12
Note_On_40_Vel_0
Time_Shift_154
Sustain_On
Time_Shift_168
Note_On_41_Vel_0
Time_Shift_391
Note_On_77_Vel_68
Time_Shift_6
Note_On_56_Vel_37
Time_Shift_7
Note_On_65_Vel_34
Time_Shift_1
Note_On_60_Vel_37
Time_Shift_2
Note_On_72_Vel_45
Time_Shift_666
Note_On_75_Vel_71
Time_Shift_1
Note_On_43_Vel_60
Time_Shift_28
Note_On_60_Vel_0
Note_On_56_Vel_0
Time_Shift_1
Note_On_72_Vel_0
Note_On_65_Vel_0
Time_Shift_1
Note_On_77_Vel_0
Time_Shift_5
Sustain_Off
Time_Shift_143
Sustain_On
Time_Shift_494
Note_On_63_Vel_51
Time_Shift_13
Note_On_73_Vel_69
Time_Shift_1
Note_On_58_Vel_48
Time_Shift_3
Note_On_51_Vel_42
Time_Shift_735
Note_On_72_Vel_67
Time_Shift_1
Note_On_44_Vel_53
Time_Shift_16
Sustain_Off
Time_Shift_8
Note_On_51_Vel_0
Note_On_63_Vel_0
Time_Shift_1
Note_On_58_Vel_0
Time_Shift_6
Note_On_43_Vel_0
Time_Shift_1
Note_On_75_Vel_0
Note_On_73_Vel_0
Time_Shift_265
Sustain_On
Time_Shift_506
Note_On_68_Vel_51
Time_Shift_4
Note_On_63_Vel_48
Time_Shift_7
Note_On_60_Vel_45
Time_Shift_553
Note_On_69_Vel_63
Time_Shift_146
Note_On_70_Vel_73
Time_Shift_143
Note_On_70_Vel_0
Time_Shift_6
Note_On_70_Vel_67
Time_Shift_5
Note_On_46_Vel_60
Time_Shift_32
Note_On_72_Vel_0
Note_On_63_Vel_0
Note_On_60_Vel_0
Note_On_44_Vel_0
Time_Shift_1
Note_On_68_Vel_0
Note_On_69_Vel_0
Time_Shift_2
Sustain_Off
Time_Shift_123
Sustain_On
Time_Shift_17
Note_On_72_Vel_62
Time_Shift_75
Note_On_70_Vel_0
Time_Shift_6
Note_On_70_Vel_60
Time_Shift_56
Note_On_72_Vel_0
Time_Shift_5
Note_On_72_Vel_60
Time_Shift_56
Note_On_70_Vel_0
Time_Shift_4
Note_On_70_Vel_57
Time_Shift_50
Note_On_72_Vel_0
Time_Shift_9
Note_On_72_Vel_64
Time_Shift_60
Note_On_70_Vel_0
Time_Shift_10
Note_On_70_Vel_66
Time_Shift_44
Note_On_72_Vel_0
Time_Shift_7
Note_On_72_Vel_52
Time_Shift_54
Note_On_70_Vel_0
Time_Shift_9
Note_On_70_Vel_60
Time_Shift_45
Note_On_72_Vel_0
Time_Shift_6
Note_On_72_Vel_69
Time_Shift_56
Note_On_70_Vel_0
Time_Shift_9
Note_On_70_Vel_57
Time_Shift_52
Note_On_72_Vel_0
Time_Shift_7
Note_On_72_Vel_71
Time_Shift_27
Note_On_66_Vel_61
Time_Shift_18
Note_On_61_Vel_51
Time_Shift_2
Note_On_70_Vel_0
Time_Shift_4
Note_On_54_Vel_54
Time_Shift_2
Note_On_70_Vel_55
Time_Shift_48
Note_On_72_Vel_0
Time_Shift_5
Note_On_72_Vel_60
Time_Shift_71
Note_On_70_Vel_0
Time_Shift_7
Note_On_70_Vel_62
Time_Shift_55
Note_On_72_Vel_0
Time_Shift_4
Note_On_72_Vel_64
Time_Shift_73
Note_On_70_Vel_0
Time_Shift_4
Note_On_70_Vel_63
Time_Shift_87
Note_On_69_Vel_73
Time_Shift_147
Note_On_70_Vel_0
Time_Shift_4
Note_On_70_Vel_67
Time_Shift_111
Note_On_72_Vel_0
Time_Shift_8
Note_On_72_Vel_75
Time_Shift_118
Note_On_73_Vel_73
Time_Shift_146
Note_On_68_Vel_71
Time_Shift_6
Note_On_48_Vel_65
Time_Shift_10
Sustain_Off
Note_On_46_Vel_0
Note_On_72_Vel_0
Note_On_70_Vel_0
Time_Shift_1
Note_On_69_Vel_0
Time_Shift_1
Note_On_54_Vel_0
Time_Shift_1
Note_On_61_Vel_0
Time_Shift_2
Note_On_66_Vel_0
Time_Shift_2
Note_On_73_Vel_0
Time_Shift_335
Sustain_On
Time_Shift_456
Note_On_65_Vel_49
Time_Shift_9
Note_On_56_Vel_47
Time_Shift_1
Note_On_60_Vel_47
Time_Shift_43
Sustain_Off
Time_Shift_67
Sustain_On
Time_Shift_443
Note_On_58_Vel_61
Time_Shift_125
Note_On_58_Vel_0
Time_Shift_6
Note_On_58_Vel_68
Time_Shift_94
Note_On_64_Vel_67
Time_Shift_146
Note_On_68_Vel_0
Time_Shift_9
Note_On_68_Vel_63
Time_Shift_15
Note_On_36_Vel_46
Time_Shift_32
Sustain_Off
Time_Shift_10
Note_On_60_Vel_0
Note_On_48_Vel_0
Time_Shift_1
Note_On_65_Vel_0
Note_On_56_Vel_0
Time_Shift_125
Sustain_On
Time_Shift_673
Note_On_67_Vel_50
Time_Shift_7
Note_On_60_Vel_38
Time_Shift_3
Note_On_58_Vel_0
Time_Shift_11
Note_On_58_Vel_35
Note_On_48_Vel_36
Time_Shift_13
Note_On_36_Vel_0
Time_Shift_1
Sustain_Off
Time_Shift_14
Note_On_68_Vel_0
Time_Shift_184
Sustain_On
Time_Shift_772
Note_On_65_Vel_47
Time_Shift_246
Note_On_56_Vel_35
Time_Shift_19
Note_On_65_Vel_0
Time_Shift_7
Note_On_65_Vel_47
Time_Shift_39
Sustain_Off
Time_Shift_1
Note_On_60_Vel_0
Note_On_48_Vel_0
Time_Shift_1
Note_On_41_Vel_25
Time_Shift_1
Note_On_67_Vel_0
Time_Shift_5
Note_On_58_Vel_0
Note_On_64_Vel_0
Time_Shift_161
Sustain_On
Time_Shift_709
Note_On_60_Vel_23
Time_Shift_13
Note_On_56_Vel_0
Time_Shift_7
Note_On_56_Vel_26
Time_Shift_599
Note_On_56_Vel_0
Time_Shift_6
Note_On_56_Vel_8
Time_Shift_471
Note_On_65_Vel_0
Time_Shift_8
Note_On_68_Vel_40
Time_Shift_1
Note_On_65_Vel_25
Time_Shift_4
Note_On_53_Vel_19
Time_Shift_36
Sustain_Off
Time_Shift_8
Note_On_60_Vel_0
Time_Shift_119
Sustain_On
Time_Shift_523
Note_On_41_Vel_0
Note_On_65_Vel_0
Time_Shift_23
Note_On_68_Vel_0
Time_Shift_10
Note_On_68_Vel_41
Time_Shift_5
Note_On_52_Vel_27
Time_Shift_11
Note_On_62_Vel_24
Time_Shift_20
Note_On_56_Vel_0
Time_Shift_4
Note_On_56_Vel_20
Time_Shift_9
Sustain_Off
Time_Shift_17
Note_On_53_Vel_0
Time_Shift_169
Sustain_On
Time_Shift_458
Note_On_70_Vel_41
Time_Shift_5
Note_On_51_Vel_33
Time_Shift_24
Note_On_52_Vel_0
Time_Shift_2
Note_On_62_Vel_0
Time_Shift_2
Sustain_Off
Time_Shift_13
Note_On_56_Vel_0
Time_Shift_19
Note_On_68_Vel_0
Time_Shift_169
Sustain_On
Time_Shift_454
Note_On_62_Vel_38
Time_Shift_8
Note_On_61_Vel_26
Time_Shift_11
Note_On_56_Vel_24
Time_Shift_10
Sustain_Off
Time_Shift_93
Sustain_On
Time_Shift_204
Note_On_63_Vel_43
Time_Shift_269
Note_On_61_Vel_0
Time_Shift_5
Sustain_Off
Time_Shift_1
Note_On_56_Vel_0
Time_Shift_9
Note_On_65_Vel_36
Time_Shift_6
Note_On_39_Vel_28
Time_Shift_5
Note_On_62_Vel_0
Time_Shift_11
Note_On_63_Vel_0
Time_Shift_35
Note_On_51_Vel_0
Time_Shift_123
Sustain_On
Time_Shift_211
Note_On_63_Vel_44
Time_Shift_267
Note_On_68_Vel_48
Time_Shift_6
Note_On_61_Vel_29
Time_Shift_18
Note_On_55_Vel_26
Time_Shift_15
Note_On_65_Vel_0
Time_Shift_1
Note_On_51_Vel_16
Time_Shift_19
Note_On_39_Vel_0
Time_Shift_16
Note_On_70_Vel_0
Time_Shift_22
Sustain_Off
Time_Shift_185
Note_On_70_Vel_56
Time_Shift_54
Sustain_On
Time_Shift_46
Sustain_Off
Time_Shift_84
Sustain_On
Time_Shift_23
Sustain_Off
Time_Shift_50
Note_On_68_Vel_0
Time_Shift_1
Note_On_61_Vel_0
Time_Shift_1
Note_On_55_Vel_0
Time_Shift_17
Note_On_51_Vel_0
Time_Shift_8
Note_On_63_Vel_0
Time_Shift_1
Note_On_72_Vel_53
Time_Shift_11
Note_On_44_Vel_33
Time_Shift_8
Note_On_70_Vel_0
Time_Shift_188
Sustain_On
Time_Shift_433
Note_On_60_Vel_29
Time_Shift_3
Note_On_51_Vel_25
Time_Shift_5
Note_On_56_Vel_26
Time_Shift_664
Note_On_72_Vel_0
Time_Shift_9
Note_On_72_Vel_56
Time_Shift_14
Note_On_44_Vel_0
Time_Shift_11
Note_On_44_Vel_44
Time_Shift_18
Sustain_Off
Time_Shift_163
Sustain_On
Time_Shift_415
Note_On_72_Vel_0
Time_Shift_10
Note_On_72_Vel_64
Time_Shift_6
Note_On_60_Vel_0
Time_Shift_5
Note_On_60_Vel_41
Time_Shift_6
Note_On_50_Vel_37
Time_Shift_1
Note_On_53_Vel_33
Time_Shift_561
Note_On_74_Vel_63
Time_Shift_2
Note_On_43_Vel_48
Time_Shift_33
Sustain_Off
Time_Shift_2
Note_On_53_Vel_0
Note_On_60_Vel_0
Note_On_44_Vel_0
Time_Shift_1
Note_On_50_Vel_0
Note_On_72_Vel_0
Time_Shift_3
Note_On_51_Vel_0
Time_Shift_8
Note_On_56_Vel_0
Time_Shift_276
Sustain_On
Time_Shift_350
Note_On_60_Vel_46
Note_On_66_Vel_55
Time_Shift_15
Note_On_50_Vel_39
Time_Shift_3
Note_On_53_Vel_37
Time_Shift_270
Note_On_67_Vel_67
Time_Shift_276
Note_On_43_Vel_0
Time_Shift_2
Note_On_68_Vel_61
Time_Shift_4
Note_On_43_Vel_55
Time_Shift_20
Note_On_60_Vel_0
Note_On_50_Vel_0
Time_Shift_1
Note_On_53_Vel_0
Note_On_67_Vel_0
Note_On_66_Vel_0
Time_Shift_3
Sustain_Off
Time_Shift_170
Sustain_On
Time_Shift_137
Note_On_67_Vel_71
Time_Shift_306
Note_On_72_Vel_73
Time_Shift_18
Note_On_74_Vel_0
Time_Shift_3
Note_On_59_Vel_48
Time_Shift_2
Note_On_53_Vel_42
Time_Shift_5
Note_On_50_Vel_43
Time_Shift_279
Note_On_74_Vel_80
Time_Shift_332
Note_On_76_Vel_75
Time_Shift_20
Note_On_36_Vel_50
Time_Shift_16
Note_On_68_Vel_0
Sustain_Off
Time_Shift_1
Note_On_59_Vel_0
Note_On_50_Vel_0
Note_On_53_Vel_0
Time_Shift_1
Note_On_72_Vel_0
Time_Shift_2
Note_On_67_Vel_0
Time_Shift_2
Note_On_74_Vel_0
Time_Shift_5
Note_On_43_Vel_0
Time_Shift_207
Sustain_On
Time_Shift_527
Note_On_67_Vel_43
Time_Shift_2
Note_On_58_Vel_47
Note_On_60_Vel_47
Time_Shift_902
Note_On_77_Vel_74
Time_Shift_7
Note_On_48_Vel_42
Time_Shift_8
Note_On_58_Vel_0
Time_Shift_1
Note_On_36_Vel_0
Sustain_Off
Note_On_60_Vel_0
Note_On_67_Vel_0
Time_Shift_2
Note_On_76_Vel_0
Time_Shift_294
Sustain_On
Time_Shift_530
Note_On_75_Vel_62
Time_Shift_13
Note_On_68_Vel_39
Time_Shift_7
Note_On_56_Vel_36
Note_On_60_Vel_36
Time_Shift_584
Note_On_73_Vel_56
Time_Shift_195
Note_On_48_Vel_0
Note_On_73_Vel_0
Time_Shift_10
Note_On_73_Vel_53
Note_On_48_Vel_29
Time_Shift_24
Sustain_Off
Time_Shift_15
Note_On_60_Vel_0
Note_On_77_Vel_0
Note_On_56_Vel_0
Time_Shift_1
Note_On_75_Vel_0
Time_Shift_19
Note_On_68_Vel_0
Time_Shift_146
Sustain_On
Time_Shift_534
Note_On_72_Vel_51
Time_Shift_8
Note_On_55_Vel_22
Time_Shift_7
Note_On_63_Vel_31
Time_Shift_31
Sustain_Off
Time_Shift_50
Note_On_73_Vel_0
Time_Shift_54
Note_On_48_Vel_0
Time_Shift_92
Sustain_On
Time_Shift_450
Note_On_73_Vel_47
Time_Shift_6
Note_On_48_Vel_26
Time_Shift_14
Note_On_60_Vel_20
Time_Shift_6
Note_On_60_Vel_0
Time_Shift_15
Note_On_63_Vel_0
Time_Shift_4
Note_On_72_Vel_0
Time_Shift_4
Sustain_Off
Time_Shift_107
Sustain_On
Time_Shift_16
Note_On_55_Vel_0
Time_Shift_542
Note_On_65_Vel_27
Time_Shift_6
Note_On_72_Vel_50
Time_Shift_8
Note_On_56_Vel_30
Time_Shift_18
Note_On_53_Vel_24
Time_Shift_23
Sustain_Off
Time_Shift_79
Sustain_On
Time_Shift_486
Note_On_70_Vel_50
Time_Shift_174
Note_On_48_Vel_0
Note_On_70_Vel_0
Time_Shift_4
Note_On_48_Vel_28
Time_Shift_1
Note_On_70_Vel_43
Time_Shift_30
Sustain_Off
Time_Shift_9
Note_On_56_Vel_0
Time_Shift_1
Note_On_53_Vel_0
Note_On_73_Vel_0
Time_Shift_1
Note_On_72_Vel_0
Time_Shift_23
Note_On_65_Vel_0
Time_Shift_139
Sustain_On
Time_Shift_509
Note_On_68_Vel_43
Time_Shift_23
Note_On_60_Vel_26
Time_Shift_1
Note_On_51_Vel_24
Time_Shift_16
Sustain_Off
Time_Shift_149
Note_On_48_Vel_0
Time_Shift_39
Sustain_On
Time_Shift_591
Note_On_60_Vel_0
Time_Shift_6
Note_On_67_Vel_39
Time_Shift_4
Note_On_48_Vel_26
Note_On_60_Vel_20
Time_Shift_17
Sustain_Off
Time_Shift_18
Note_On_51_Vel_0
Time_Shift_1
Note_On_68_Vel_0
Note_On_70_Vel_0
Time_Shift_177
Sustain_On
Time_Shift_449
Note_On_70_Vel_42
Time_Shift_84
Note_On_68_Vel_40
Time_Shift_3
Note_On_59_Vel_31
Time_Shift_6
Note_On_49_Vel_27
Time_Shift_6
Note_On_53_Vel_23
Time_Shift_13
Note_On_67_Vel_0
Time_Shift_3
Note_On_48_Vel_0
Time_Shift_1
Sustain_Off
Time_Shift_1
Note_On_60_Vel_0
Time_Shift_163
Sustain_On
Time_Shift_108
Note_On_70_Vel_0
Time_Shift_319
Note_On_67_Vel_41
Time_Shift_171
Note_On_79_Vel_38
Time_Shift_2
Note_On_67_Vel_0
Time_Shift_7
Note_On_79_Vel_0
Time_Shift_1
Note_On_48_Vel_21
Time_Shift_2
Note_On_67_Vel_28
Sustain_Off
Time_Shift_1
Note_On_59_Vel_0
Note_On_68_Vel_0
Time_Shift_1
Note_On_49_Vel_0
Time_Shift_2
Note_On_53_Vel_0
Time_Shift_224
Sustain_On
Time_Shift_491
Note_On_67_Vel_0
Time_Shift_4
Note_On_67_Vel_39
Time_Shift_37
Note_On_60_Vel_23
Time_Shift_4
Note_On_52_Vel_26
Time_Shift_738
Note_On_67_Vel_0
Time_Shift_10
Note_On_67_Vel_39
Time_Shift_14
Note_On_48_Vel_0
Time_Shift_5
Note_On_48_Vel_22
Time_Shift_14
Sustain_Off
Time_Shift_21
Note_On_60_Vel_0
Time_Shift_1
Note_On_52_Vel_0
Time_Shift_166
Sustain_On
Time_Shift_517
Note_On_70_Vel_35
Time_Shift_148
Sustain_Off
Time_Shift_6
Note_On_68_Vel_38
Time_Shift_1
Note_On_70_Vel_0
Time_Shift_4
Note_On_67_Vel_0
Time_Shift_29
Note_On_53_Vel_12
Note_On_59_Vel_16
Time_Shift_13
Note_On_49_Vel_17
Time_Shift_73
Sustain_On
Time_Shift_633
Note_On_67_Vel_38
Time_Shift_212
Note_On_67_Vel_0
Time_Shift_4
Note_On_67_Vel_34
Time_Shift_19
Note_On_48_Vel_0
Time_Shift_8
Note_On_48_Vel_25
Time_Shift_13
Sustain_Off
Time_Shift_30
Note_On_49_Vel_0
Note_On_68_Vel_0
Time_Shift_3
Note_On_59_Vel_0
Time_Shift_1
Note_On_53_Vel_0
Time_Shift_106
Sustain_On
Time_Shift_622
Note_On_72_Vel_44
Time_Shift_2
Note_On_58_Vel_23
Time_Shift_33
Note_On_52_Vel_20
Time_Shift_687
Note_On_72_Vel_0
Time_Shift_8
Note_On_72_Vel_51
Time_Shift_53
Note_On_48_Vel_0
Time_Shift_408
Note_On_67_Vel_0
Time_Shift_683
Note_On_72_Vel_0
Time_Shift_6
Note_On_72_Vel_44
Time_Shift_77
Sustain_Off
Time_Shift_14
Note_On_52_Vel_0
Note_On_58_Vel_0
Time_Shift_233
Sustain_On
Time_Shift_847
Note_On_41_Vel_23
Time_Shift_21
Sustain_Off
Time_Shift_85
Sustain_On
Time_Shift_842
Note_On_77_Vel_37
Note_On_48_Vel_23
Time_Shift_3
Note_On_56_Vel_30
Time_Shift_11
Note_On_68_Vel_25
Time_Shift_11
Note_On_68_Vel_0
Time_Shift_680
Note_On_43_Vel_32
Note_On_75_Vel_43
Time_Shift_5
Note_On_67_Vel_22
Time_Shift_5
Sustain_Off
Time_Shift_2
Note_On_41_Vel_0
Time_Shift_2
Note_On_56_Vel_0
Time_Shift_1
Note_On_48_Vel_0
Time_Shift_1
Note_On_77_Vel_0
Time_Shift_11
Note_On_72_Vel_0
Time_Shift_108
Sustain_On
Time_Shift_61
Note_On_43_Vel_0
Time_Shift_131
Note_On_67_Vel_0
Time_Shift_396
Note_On_73_Vel_43
Time_Shift_5
Note_On_63_Vel_30
Time_Shift_1
Note_On_67_Vel_23
Time_Shift_10
Note_On_70_Vel_27
Time_Shift_6
Note_On_58_Vel_25
Note_On_51_Vel_25
Time_Shift_703
Note_On_75_Vel_0
Time_Shift_8
Note_On_51_Vel_0
Sustain_Off
Note_On_73_Vel_0
Note_On_58_Vel_0
Time_Shift_2
Note_On_72_Vel_44
Note_On_75_Vel_32
Time_Shift_13
Note_On_67_Vel_0
Time_Shift_8
Note_On_63_Vel_0
Note_On_70_Vel_0
Time_Shift_1
Note_On_68_Vel_27
Time_Shift_7
Note_On_44_Vel_34
Time_Shift_3
Note_On_63_Vel_18
Time_Shift_181
Sustain_On
Time_Shift_398
Note_On_71_Vel_48
Time_Shift_154
Note_On_72_Vel_0
Time_Shift_8
Note_On_68_Vel_0
Time_Shift_3
Note_On_60_Vel_31
Note_On_72_Vel_48
Time_Shift_3
Note_On_68_Vel_33
Time_Shift_5
Sustain_Off
Time_Shift_5
Note_On_71_Vel_0
Time_Shift_7
Note_On_44_Vel_0
Note_On_63_Vel_0
Time_Shift_8
Note_On_75_Vel_0
Time_Shift_138
Sustain_On
Time_Shift_361
Note_On_75_Vel_45
Time_Shift_58
Note_On_73_Vel_50
Time_Shift_196
Note_On_72_Vel_0
Time_Shift_7
Note_On_72_Vel_48
Time_Shift_13
Note_On_40_Vel_22
Time_Shift_8
Note_On_60_Vel_0
Time_Shift_1
Note_On_75_Vel_0
Note_On_68_Vel_0
Time_Shift_21
Sustain_Off
Note_On_73_Vel_0
Time_Shift_157
Sustain_On
Time_Shift_588
Note_On_58_Vel_34
Time_Shift_2
Note_On_60_Vel_27
Time_Shift_1
Note_On_67_Vel_27
Time_Shift_870
Note_On_41_Vel_35
Time_Shift_11
Sustain_Off
Time_Shift_6
Note_On_58_Vel_0
Note_On_72_Vel_0
Note_On_67_Vel_0
Note_On_60_Vel_0
Time_Shift_12
Note_On_40_Vel_0
Time_Shift_192
Sustain_On
Time_Shift_38
Note_On_41_Vel_0
Time_Shift_523
Note_On_76_Vel_42
Time_Shift_19
Note_On_56_Vel_30
Time_Shift_6
Note_On_65_Vel_27
Time_Shift_1
Note_On_60_Vel_26
Time_Shift_376
Note_On_79_Vel_49
Time_Shift_247
Note_On_77_Vel_54
Time_Shift_222
Note_On_75_Vel_51
Time_Shift_10
Note_On_43_Vel_30
Time_Shift_6
Sustain_Off
Time_Shift_2
Note_On_79_Vel_0
Note_On_56_Vel_0
Note_On_60_Vel_0
Time_Shift_2
Note_On_77_Vel_0
Note_On_65_Vel_0
Note_On_76_Vel_0
Time_Shift_184
Sustain_On
Time_Shift_76
Note_On_63_Vel_44
Time_Shift_47
Note_On_43_Vel_0
Time_Shift_183
Note_On_70_Vel_56
Time_Shift_208
Note_On_63_Vel_0
Time_Shift_6
Note_On_72_Vel_51
Time_Shift_3
Note_On_63_Vel_39
Time_Shift_2
Note_On_58_Vel_34
Time_Shift_10
Note_On_51_Vel_31
Time_Shift_248
Note_On_75_Vel_0
Time_Shift_6
Note_On_75_Vel_51
Time_Shift_226
Note_On_73_Vel_59
Time_Shift_222
Note_On_58_Vel_0
Time_Shift_1
Note_On_51_Vel_0
Note_On_75_Vel_0
Time_Shift_1
Note_On_70_Vel_0
Sustain_Off
Note_On_63_Vel_0
Note_On_73_Vel_0
Time_Shift_10
Note_On_44_Vel_35
Time_Shift_2
Note_On_72_Vel_0
Time_Shift_11
Note_On_72_Vel_46
Time_Shift_251
Sustain_On
Time_Shift_215
Note_On_60_Vel_38
Time_Shift_298
Note_On_63_Vel_44
Time_Shift_216
Note_On_68_Vel_45
Time_Shift_8
Note_On_60_Vel_0
Time_Shift_8
Note_On_60_Vel_34
Time_Shift_37
Note_On_56_Vel_23
Time_Shift_12
Note_On_51_Vel_18
Time_Shift_162
Note_On_71_Vel_49
Time_Shift_180
Note_On_72_Vel_0
Time_Shift_6
Note_On_72_Vel_51
Time_Shift_192
Note_On_75_Vel_44
Time_Shift_54
Note_On_73_Vel_50
Time_Shift_184
Note_On_71_Vel_0
Time_Shift_3
Note_On_60_Vel_0
Time_Shift_1
Note_On_44_Vel_0
Sustain_Off
Note_On_63_Vel_0
Time_Shift_1
Note_On_68_Vel_0
Note_On_56_Vel_0
Note_On_75_Vel_0
Time_Shift_1
Note_On_51_Vel_0
Note_On_73_Vel_0
Time_Shift_11
Note_On_72_Vel_0
Time_Shift_4
Note_On_72_Vel_46
Time_Shift_36
Note_On_40_Vel_18
Time_Shift_221
Sustain_On
Time_Shift_526
Note_On_60_Vel_24
Time_Shift_2
Note_On_67_Vel_27
Time_Shift_22
Note_On_58_Vel_27
Time_Shift_850
Note_On_41_Vel_49
Time_Shift_72
Sustain_Off
Note_On_58_Vel_0
Time_Shift_1
Note_On_72_Vel_0
Note_On_60_Vel_0
Time_Shift_1
Note_On_67_Vel_0
Time_Shift_16
Note_On_40_Vel_0
Time_Shift_146
Sustain_On
Time_Shift_308
Note_On_41_Vel_0
Time_Shift_221
Note_On_77_Vel_70
Time_Shift_11
Note_On_53_Vel_33
Time_Shift_3
Note_On_60_Vel_33
Time_Shift_6
Note_On_56_Vel_38
Note_On_65_Vel_34
Time_Shift_690
Note_On_75_Vel_72
Time_Shift_1
Note_On_43_Vel_57
Time_Shift_39
Note_On_60_Vel_0
Time_Shift_1
Note_On_65_Vel_0
Note_On_56_Vel_0
Sustain_Off
Time_Shift_3
Note_On_77_Vel_0
Time_Shift_15
Note_On_53_Vel_0
Time_Shift_169
Sustain_On
Time_Shift_452
Note_On_73_Vel_69
Time_Shift_2
Note_On_63_Vel_57
Time_Shift_8
Note_On_70_Vel_55
Time_Shift_17
Note_On_51_Vel_43
Time_Shift_1
Note_On_58_Vel_47
Time_Shift_742
Note_On_44_Vel_54
Time_Shift_1
Note_On_72_Vel_63
Time_Shift_16
Sustain_Off
Time_Shift_2
Note_On_63_Vel_0
Note_On_51_Vel_0
Note_On_58_Vel_0
Note_On_73_Vel_0
Time_Shift_1
Note_On_75_Vel_0
Time_Shift_1
Note_On_43_Vel_0
Time_Shift_32
Note_On_70_Vel_0
Time_Shift_223
Sustain_On
Time_Shift_54
Note_On_44_Vel_0
Time_Shift_494
Note_On_68_Vel_47
Time_Shift_24
Note_On_63_Vel_43
Time_Shift_1
Note_On_60_Vel_41
Time_Shift_576
Note_On_69_Vel_61
Time_Shift_138
Note_On_70_Vel_68
Time_Shift_134
Note_On_70_Vel_0
Time_Shift_4
Note_On_70_Vel_58
Time_Shift_5
Note_On_46_Vel_57
Time_Shift_34
Note_On_72_Vel_0
Time_Shift_1
Note_On_69_Vel_0
Time_Shift_1
Note_On_63_Vel_0
Time_Shift_1
Note_On_60_Vel_0
Note_On_68_Vel_0
Time_Shift_1
Sustain_Off
Time_Shift_133
Note_On_72_Vel_64
Time_Shift_12
Sustain_On
Time_Shift_76
Note_On_70_Vel_0
Time_Shift_11
Note_On_70_Vel_63
Time_Shift_66
Note_On_72_Vel_0
Time_Shift_11
Note_On_72_Vel_58
Time_Shift_51
Note_On_70_Vel_0
Time_Shift_6
Note_On_70_Vel_57
Time_Shift_63
Note_On_72_Vel_0
Time_Shift_7
Note_On_72_Vel_66
Time_Shift_70
Note_On_70_Vel_0
Time_Shift_4
Note_On_70_Vel_63
Time_Shift_49
Note_On_72_Vel_0
Time_Shift_9
Note_On_72_Vel_66
Time_Shift_53
Note_On_70_Vel_0
Time_Shift_4
Note_On_70_Vel_60
Time_Shift_50
Note_On_72_Vel_0
Time_Shift_5
Note_On_72_Vel_68
Time_Shift_56
Note_On_70_Vel_0
Time_Shift_11
Note_On_70_Vel_60
Time_Shift_40
Note_On_66_Vel_57
Time_Shift_10
Note_On_72_Vel_0
Time_Shift_6
Note_On_61_Vel_48
Time_Shift_5
Note_On_72_Vel_61
Time_Shift_1
Note_On_54_Vel_53
Time_Shift_42
Note_On_70_Vel_0
Time_Shift_8
Note_On_70_Vel_52
Time_Shift_46
Note_On_72_Vel_0
Time_Shift_5
Note_On_72_Vel_64
Time_Shift_64
Note_On_70_Vel_0
Time_Shift_5
Note_On_70_Vel_61
Time_Shift_49
Note_On_72_Vel_0
Time_Shift_10
Note_On_72_Vel_68
Time_Shift_82
Note_On_70_Vel_0
Time_Shift_5
Note_On_70_Vel_61
Time_Shift_91
Note_On_69_Vel_71
Time_Shift_111
Note_On_70_Vel_0
Time_Shift_8
Note_On_70_Vel_75
Time_Shift_112
Note_On_71_Vel_76
Time_Shift_88
Note_On_72_Vel_0
Time_Shift_10
Note_On_72_Vel_80
Time_Shift_101
Note_On_75_Vel_78
Time_Shift_89
Note_On_73_Vel_80
Time_Shift_121
Note_On_68_Vel_76
Time_Shift_23
Note_On_48_Vel_63
Time_Shift_9
Sustain_Off
Time_Shift_2
Note_On_70_Vel_0
Note_On_69_Vel_0
Note_On_54_Vel_0
Note_On_61_Vel_0
Note_On_71_Vel_0
Time_Shift_1
Note_On_66_Vel_0
Note_On_46_Vel_0
Note_On_73_Vel_0
Time_Shift_1
Note_On_75_Vel_0
Time_Shift_11
Note_On_72_Vel_0
Time_Shift_246
Sustain_On
Time_Shift_494
Note_On_65_Vel_54
Time_Shift_1
Note_On_56_Vel_52
Time_Shift_3
Note_On_60_Vel_52
Time_Shift_543
Note_On_58_Vel_78
Time_Shift_111
Note_On_58_Vel_0
Time_Shift_8
Note_On_58_Vel_76
Time_Shift_100
Note_On_58_Vel_0
Time_Shift_8
Note_On_58_Vel_66
Time_Shift_2
Note_On_64_Vel_73
Time_Shift_112
Note_On_68_Vel_0
Time_Shift_5
Note_On_68_Vel_74
Time_Shift_15
Note_On_36_Vel_60
Time_Shift_23
Sustain_Off
Time_Shift_96
Sustain_On
Time_Shift_643
Note_On_67_Vel_63
Time_Shift_2
Note_On_60_Vel_0
Time_Shift_4
Note_On_60_Vel_55
Time_Shift_4
Note_On_48_Vel_0
Time_Shift_3
Note_On_48_Vel_55
Time_Shift_941
Note_On_65_Vel_0
Time_Shift_4
Note_On_65_Vel_63
Time_Shift_188
Note_On_65_Vel_0
Time_Shift_8
Note_On_65_Vel_53
Time_Shift_8
Note_On_56_Vel_0
Time_Shift_6
Note_On_56_Vel_53
Time_Shift_17
Note_On_48_Vel_0
Time_Shift_3
Note_On_41_Vel_37
Time_Shift_3
Note_On_48_Vel_39
Time_Shift_24
Sustain_Off
Time_Shift_3
Note_On_58_Vel_0
Time_Shift_1
Note_On_67_Vel_0
Note_On_36_Vel_0
Note_On_64_Vel_0
Time_Shift_19
Note_On_68_Vel_0
Time_Shift_162
Sustain_On
Time_Shift_996
Note_On_59_Vel_72
Time_Shift_5
Note_On_47_Vel_60
Time_Shift_51
Note_On_60_Vel_0
Time_Shift_28
Sustain_Off
Time_Shift_13
Note_On_41_Vel_0
Time_Shift_2
Note_On_56_Vel_0
Time_Shift_11
Note_On_48_Vel_0
Time_Shift_7
Note_On_65_Vel_0
Time_Shift_108
Note_On_48_Vel_66
Time_Shift_3
Note_On_60_Vel_74
Time_Shift_32
Note_On_59_Vel_0
Time_Shift_5
Note_On_47_Vel_0
Time_Shift_104
Note_On_61_Vel_72
Time_Shift_4
Note_On_49_Vel_63
Time_Shift_17
Note_On_48_Vel_0
Time_Shift_8
Note_On_60_Vel_0
Time_Shift_76
Note_On_60_Vel_74
Time_Shift_2
Note_On_48_Vel_69
Time_Shift_38
Note_On_49_Vel_0
Time_Shift_22
Note_On_61_Vel_0
Time_Shift_38
Note_On_48_Vel_0
Time_Shift_2
Note_On_55_Vel_70
Time_Shift_5
Note_On_43_Vel_62
Time_Shift_58
Note_On_60_Vel_0
Time_Shift_19
Note_On_43_Vel_0
Time_Shift_24
Note_On_58_Vel_72
Note_On_46_Vel_59
Time_Shift_22
Note_On_55_Vel_0
Time_Shift_75
Note_On_56_Vel_72
Note_On_44_Vel_65
Time_Shift_71
Note_On_58_Vel_0
Time_Shift_2
Note_On_46_Vel_0
Time_Shift_16
Note_On_52_Vel_69
Time_Shift_4
Note_On_44_Vel_0
Time_Shift_3
Note_On_39_Vel_56
Time_Shift_10
Note_On_39_Vel_0
Time_Shift_87
Note_On_55_Vel_76
Time_Shift_8
Note_On_43_Vel_56
Time_Shift_5
Note_On_56_Vel_0
Time_Shift_4
Note_On_52_Vel_0
Time_Shift_68
Note_On_53_Vel_79
Note_On_41_Vel_73
Time_Shift_33
Note_On_43_Vel_0
Time_Shift_3
Note_On_55_Vel_0
Time_Shift_69
Sustain_On
Time_Shift_348
Note_On_77_Vel_79
Time_Shift_6
Note_On_68_Vel_72
Time_Shift_2
Note_On_72_Vel_67
Time_Shift_5
Note_On_41_Vel_0
Note_On_53_Vel_0
Note_On_65_Vel_70
Time_Shift_4
Note_On_60_Vel_64
Time_Shift_2
Note_On_41_Vel_57
Time_Shift_4
Note_On_53_Vel_60
Time_Shift_48
Sustain_Off
Time_Shift_3
Note_On_41_Vel_0
Time_Shift_115
Sustain_On
Time_Shift_546
Note_On_77_Vel_0
Time_Shift_7
Note_On_65_Vel_0
Time_Shift_1
Note_On_77_Vel_60
Time_Shift_4
Note_On_65_Vel_45
Time_Shift_3
Note_On_53_Vel_0
Time_Shift_3
Note_On_70_Vel_49
Time_Shift_5
Note_On_67_Vel_43
Time_Shift_3
Note_On_53_Vel_40
Time_Shift_1
Note_On_61_Vel_37
Time_Shift_24
Sustain_Off
Time_Shift_3
Note_On_72_Vel_0
Time_Shift_1
Note_On_60_Vel_0
Note_On_68_Vel_0
Time_Shift_75
Sustain_On
Time_Shift_277
Note_On_77_Vel_0
Time_Shift_10
Note_On_77_Vel_53
Time_Shift_5
Note_On_65_Vel_0
Time_Shift_3
Note_On_68_Vel_51
Time_Shift_1
Note_On_72_Vel_46
Time_Shift_4
Note_On_53_Vel_0
Time_Shift_1
Note_On_65_Vel_39
Time_Shift_10
Note_On_60_Vel_39
Note_On_53_Vel_35
Time_Shift_12
Sustain_Off
Time_Shift_2
Note_On_70_Vel_0
Note_On_61_Vel_0
Time_Shift_1
Note_On_67_Vel_0
Time_Shift_112
Sustain_On
Time_Shift_488
Sustain_Off
Time_Shift_9
Note_On_47_Vel_51
Note_On_59_Vel_65
Time_Shift_10
Note_On_60_Vel_0
Sustain_On
Time_Shift_23
Note_On_72_Vel_0
Time_Shift_102
Note_On_48_Vel_62
Time_Shift_19
Note_On_60_Vel_64
Time_Shift_102
Note_On_49_Vel_61
Time_Shift_3
Note_On_61_Vel_65
Time_Shift_46
Note_On_59_Vel_0
Time_Shift_4
Note_On_47_Vel_0
Time_Shift_8
Note_On_77_Vel_0
Time_Shift_8
Note_On_53_Vel_0
Time_Shift_9
Sustain_Off
Time_Shift_6
Note_On_48_Vel_0
Time_Shift_4
Note_On_48_Vel_55
Time_Shift_4
Note_On_60_Vel_0
Note_On_65_Vel_0
Time_Shift_6
Note_On_60_Vel_62
Time_Shift_17
Note_On_68_Vel_0
Time_Shift_23
Note_On_49_Vel_0
Time_Shift_20
Note_On_61_Vel_0
Time_Shift_30
Note_On_48_Vel_0
Time_Shift_3
Note_On_60_Vel_0
Time_Shift_2
Note_On_43_Vel_59
Note_On_55_Vel_65
Time_Shift_96
Note_On_46_Vel_57
Note_On_58_Vel_71
Time_Shift_28
Note_On_43_Vel_0
Note_On_55_Vel_0
Time_Shift_57
Note_On_44_Vel_64
Time_Shift_2
Note_On_56_Vel_71
Time_Shift_47
Note_On_46_Vel_0
Time_Shift_8
Note_On_58_Vel_0
Time_Shift_31
Note_On_52_Vel_69
Time_Shift_3
Note_On_40_Vel_63
Time_Shift_19
Note_On_44_Vel_0
Time_Shift_2
Note_On_56_Vel_0
Time_Shift_60
Note_On_53_Vel_73
Time_Shift_10
Note_On_41_Vel_62
Note_On_40_Vel_0
Time_Shift_2
Note_On_52_Vel_0
Time_Shift_75
Note_On_55_Vel_82
Time_Shift_2
Note_On_53_Vel_0
Time_Shift_4
Note_On_41_Vel_0
Time_Shift_1
Note_On_43_Vel_77
Time_Shift_135
Sustain_On
Time_Shift_361
Note_On_75_Vel_83
Note_On_43_Vel_0
Note_On_55_Vel_0
Time_Shift_5
Note_On_67_Vel_66
Time_Shift_1
Note_On_60_Vel_64
Time_Shift_1
Note_On_63_Vel_69
Time_Shift_3
Note_On_43_Vel_56
Time_Shift_1
Note_On_55_Vel_63
Time_Shift_52
Sustain_Off
Time_Shift_168
Sustain_On
Time_Shift_621
Note_On_74_Vel_64
Time_Shift_7
Note_On_59_Vel_47
Time_Shift_1
Note_On_55_Vel_0
Note_On_67_Vel_0
Time_Shift_2
Note_On_71_Vel_49
Time_Shift_1
Note_On_65_Vel_43
Time_Shift_2
Note_On_55_Vel_45
Time_Shift_1
Note_On_67_Vel_42
Time_Shift_2
Note_On_71_Vel_0
Time_Shift_25
Sustain_Off
Time_Shift_7
Note_On_63_Vel_0
Time_Shift_1
Note_On_60_Vel_0
Time_Shift_1
Note_On_75_Vel_0
Time_Shift_20
Note_On_43_Vel_0
Time_Shift_77
Sustain_On
Time_Shift_169
Note_On_74_Vel_0
Time_Shift_5
Note_On_74_Vel_53
Time_Shift_62
Sustain_Off
Time_Shift_17
Note_On_67_Vel_0
Time_Shift_1
Note_On_72_Vel_63
Time_Shift_3
Note_On_63_Vel_54
Time_Shift_4
Note_On_67_Vel_51
Note_On_55_Vel_0
Time_Shift_2
Note_On_60_Vel_45
Time_Shift_2
Note_On_65_Vel_0
Time_Shift_5
Note_On_55_Vel_42
Time_Shift_14
Note_On_59_Vel_0
Time_Shift_4
Note_On_74_Vel_0
Note_On_48_Vel_34
Time_Shift_126
Sustain_On
Time_Shift_300
Note_On_55_Vel_0
Time_Shift_3
Note_On_71_Vel_72
Time_Shift_2
Note_On_65_Vel_52
Time_Shift_2
Note_On_67_Vel_0
Time_Shift_2
Note_On_62_Vel_49
Time_Shift_1
Note_On_55_Vel_48
Time_Shift_7
Note_On_67_Vel_51
Time_Shift_90
Note_On_72_Vel_0
Time_Shift_5
Note_On_72_Vel_66
Time_Shift_4
Sustain_Off
Time_Shift_3
Note_On_71_Vel_0
Time_Shift_1
Note_On_65_Vel_0
Time_Shift_4
Note_On_62_Vel_0
Time_Shift_6
Note_On_60_Vel_0
Note_On_63_Vel_0
Note_On_67_Vel_0
Time_Shift_6
Note_On_67_Vel_43
Time_Shift_1
Note_On_63_Vel_54
Time_Shift_1
Note_On_55_Vel_0
Time_Shift_1
Note_On_60_Vel_42
Time_Shift_5
Note_On_55_Vel_39
Time_Shift_178
Sustain_On
Time_Shift_441
Note_On_54_Vel_55
Time_Shift_40
Note_On_42_Vel_45
Time_Shift_111
Note_On_55_Vel_0
Time_Shift_8
Note_On_55_Vel_63
Time_Shift_1
Note_On_43_Vel_50
Time_Shift_40
Note_On_42_Vel_0
Time_Shift_54
Note_On_56_Vel_64
Note_On_44_Vel_54
Time_Shift_20
Note_On_48_Vel_0
Time_Shift_10
Note_On_54_Vel_0
Time_Shift_43
Note_On_43_Vel_0
Time_Shift_8
Note_On_55_Vel_0
Time_Shift_3
Note_On_43_Vel_52
Time_Shift_1
Note_On_55_Vel_57
Time_Shift_7
Sustain_Off
Time_Shift_59
Note_On_56_Vel_0
Time_Shift_1
Note_On_55_Vel_0
Time_Shift_10
Note_On_43_Vel_0
Time_Shift_2
Note_On_44_Vel_0
Time_Shift_7
Note_On_50_Vel_68
Time_Shift_5
Note_On_38_Vel_55
Time_Shift_20
Note_On_63_Vel_0
Time_Shift_39
Note_On_72_Vel_0
Time_Shift_28
Note_On_63_Vel_65
Time_Shift_1
Note_On_51_Vel_73
Time_Shift_5
Note_On_39_Vel_61
Time_Shift_18
Note_On_50_Vel_0
Time_Shift_1
Note_On_38_Vel_0
Time_Shift_66
Note_On_48_Vel_76
Time_Shift_2
Note_On_36_Vel_73
Time_Shift_14
Note_On_39_Vel_0
Time_Shift_5
Note_On_55_Vel_60
Time_Shift_4
Note_On_51_Vel_0
Time_Shift_78
Sustain_On
Time_Shift_354
Note_On_60_Vel_0
Note_On_63_Vel_0
Time_Shift_3
Note_On_72_Vel_82
Time_Shift_2
Note_On_63_Vel_71
Time_Shift_2
Note_On_48_Vel_0
Note_On_55_Vel_0
Note_On_67_Vel_0
Time_Shift_1
Note_On_60_Vel_64
Time_Shift_4
Note_On_67_Vel_57
Time_Shift_2
Note_On_48_Vel_59
Time_Shift_4
Note_On_55_Vel_59
Time_Shift_60
Sustain_Off
Note_On_36_Vel_0
Time_Shift_160
Sustain_On
Time_Shift_606
Note_On_72_Vel_0
Time_Shift_5
Note_On_72_Vel_66
Time_Shift_3
Note_On_60_Vel_0
Time_Shift_8
Note_On_48_Vel_0
Time_Shift_2
Note_On_62_Vel_50
Time_Shift_1
Note_On_65_Vel_40
Note_On_60_Vel_45
Time_Shift_1
Note_On_48_Vel_41
Time_Shift_2
Note_On_56_Vel_41
Time_Shift_32
Sustain_Off
Time_Shift_23
Note_On_55_Vel_0
Note_On_63_Vel_0
Time_Shift_77
Note_On_67_Vel_0
Time_Shift_15
Sustain_On
Time_Shift_254
Note_On_72_Vel_0
Time_Shift_4
Note_On_72_Vel_55
Time_Shift_11
Note_On_60_Vel_0
Time_Shift_2
Sustain_Off
Time_Shift_2
Note_On_62_Vel_0
Note_On_56_Vel_0
Time_Shift_1
Note_On_65_Vel_0
Note_On_60_Vel_34
Time_Shift_3
Note_On_48_Vel_0
Note_On_67_Vel_40
Time_Shift_2
Note_On_63_Vel_43
Time_Shift_7
Note_On_48_Vel_34
Time_Shift_2
Note_On_55_Vel_33
Time_Shift_142
Sustain_On
Time_Shift_448
Note_On_54_Vel_62
Time_Shift_5
Note_On_42_Vel_49
Time_Shift_100
Note_On_55_Vel_0
Time_Shift_5
Note_On_43_Vel_56
Time_Shift_4
Note_On_55_Vel_61
Time_Shift_96
Note_On_44_Vel_56
Note_On_56_Vel_65
Time_Shift_72
Note_On_43_Vel_0
Note_On_55_Vel_0
Time_Shift_5
Note_On_43_Vel_60
Time_Shift_5
Note_On_55_Vel_57
Time_Shift_82
Note_On_38_Vel_60
Time_Shift_3
Note_On_50_Vel_62
Time_Shift_93
Note_On_41_Vel_61
Time_Shift_7
Note_On_53_Vel_55
Time_Shift_72
Note_On_39_Vel_61
Time_Shift_3
Note_On_51_Vel_71
Time_Shift_92
Note_On_35_Vel_65
Time_Shift_1
Note_On_47_Vel_59
Time_Shift_6
Note_On_35_Vel_0
Time_Shift_69
Note_On_48_Vel_0
Time_Shift_11
Note_On_48_Vel_74
Time_Shift_1
Note_On_36_Vel_70
Time_Shift_12
Note_On_63_Vel_0
Time_Shift_2
Note_On_67_Vel_0
Time_Shift_1
Note_On_41_Vel_0
Note_On_60_Vel_0
Note_On_39_Vel_0
Note_On_38_Vel_0
Time_Shift_1
Note_On_42_Vel_0
Note_On_51_Vel_0
Note_On_56_Vel_0
Note_On_44_Vel_0
Time_Shift_1
Note_On_50_Vel_0
Note_On_55_Vel_0
Note_On_53_Vel_0
Note_On_54_Vel_0
Time_Shift_1
Note_On_43_Vel_0
Time_Shift_1
Note_On_47_Vel_0
Time_Shift_5
Sustain_Off
Time_Shift_58
Note_On_50_Vel_80
Time_Shift_2
Note_On_38_Vel_80
Time_Shift_19
Note_On_36_Vel_0
Note_On_48_Vel_0
Time_Shift_138
Sustain_On
Time_Shift_305
Note_On_70_Vel_82
Time_Shift_2
Note_On_62_Vel_76
Note_On_50_Vel_0
Time_Shift_2
Note_On_58_Vel_70
Time_Shift_2
Note_On_55_Vel_67
Time_Shift_1
Note_On_50_Vel_65
Time_Shift_49
Sustain_Off
Time_Shift_2
Note_On_38_Vel_0
Time_Shift_14
Note_On_72_Vel_0
Time_Shift_192
Sustain_On
Time_Shift_591
Note_On_62_Vel_0
Time_Shift_5
Note_On_69_Vel_60
Time_Shift_2
Note_On_60_Vel_53
Time_Shift_4
Note_On_62_Vel_44
Time_Shift_12
Note_On_50_Vel_0
Time_Shift_2
Sustain_Off
Time_Shift_1
Note_On_54_Vel_39
Time_Shift_3
Note_On_58_Vel_0
Note_On_55_Vel_0
Time_Shift_1
Note_On_70_Vel_0
Time_Shift_3
Note_On_50_Vel_41
Time_Shift_113
Sustain_On
Time_Shift_230
Note_On_69_Vel_0
Time_Shift_4
Note_On_69_Vel_51
Time_Shift_93
Note_On_58_Vel_55
Time_Shift_5
Note_On_67_Vel_49
Time_Shift_3
Note_On_55_Vel_46
Time_Shift_3
Note_On_50_Vel_0
Sustain_Off
Time_Shift_8
Note_On_50_Vel_41
Time_Shift_1
Note_On_54_Vel_0
Time_Shift_1
Note_On_60_Vel_0
Time_Shift_3
Note_On_43_Vel_40
Time_Shift_1
Note_On_69_Vel_0
Time_Shift_47
Note_On_62_Vel_0
Time_Shift_39
Sustain_On
Time_Shift_369
Note_On_57_Vel_45
Time_Shift_3
Note_On_66_Vel_50
Time_Shift_4
Note_On_50_Vel_0
Time_Shift_6
Note_On_60_Vel_41
Time_Shift_2
Note_On_43_Vel_0
Time_Shift_2
Note_On_50_Vel_42
Time_Shift_9
Note_On_43_Vel_30
Time_Shift_79
Sustain_Off
Time_Shift_12
Note_On_57_Vel_0
Note_On_66_Vel_0
Time_Shift_1
Note_On_60_Vel_0
Time_Shift_4
Note_On_58_Vel_0
Note_On_67_Vel_0
Time_Shift_5
Note_On_58_Vel_48
Time_Shift_3
Note_On_43_Vel_0
Note_On_50_Vel_0
Note_On_67_Vel_49
Time_Shift_7
Note_On_43_Vel_32
Time_Shift_1
Note_On_55_Vel_0
Time_Shift_1
Note_On_50_Vel_36
Time_Shift_5
Note_On_55_Vel_38
Time_Shift_278
Sustain_On
Time_Shift_437
Note_On_67_Vel_0
Time_Shift_6
Note_On_67_Vel_51
Time_Shift_20
Sustain_Off
Time_Shift_16
Note_On_58_Vel_0
Note_On_55_Vel_0
Note_On_43_Vel_0
Note_On_50_Vel_0
Time_Shift_158
Sustain_On
Time_Shift_177
Note_On_67_Vel_0
Time_Shift_158
Note_On_67_Vel_60
Time_Shift_529
Note_On_73_Vel_63
Time_Shift_7
Note_On_40_Vel_29
Time_Shift_40
Note_On_67_Vel_0
Time_Shift_8
Sustain_Off
Time_Shift_95
Sustain_On
Time_Shift_43
Note_On_49_Vel_30
Time_Shift_114
Note_On_46_Vel_34
Time_Shift_104
Note_On_55_Vel_43
Time_Shift_223
Note_On_55_Vel_0
Time_Shift_4
Note_On_55_Vel_19
Time_Shift_154
Note_On_72_Vel_61
Time_Shift_4
Note_On_52_Vel_25
Time_Shift_145
Note_On_49_Vel_0
Time_Shift_9
Note_On_49_Vel_37
Time_Shift_22
Note_On_73_Vel_0
Time_Shift_8
Note_On_73_Vel_65
Time_Shift_99
Note_On_46_Vel_0
Time_Shift_5
Note_On_46_Vel_34
Time_Shift_3
Note_On_72_Vel_0
Time_Shift_6
Note_On_72_Vel_68
Time_Shift_71
Note_On_55_Vel_0
Time_Shift_5
Note_On_55_Vel_38
Time_Shift_38
Sustain_Off
Time_Shift_10
Note_On_73_Vel_0
Time_Shift_5
Note_On_73_Vel_69
Time_Shift_34
Note_On_72_Vel_0
Time_Shift_46
Sustain_On
Time_Shift_31
Note_On_75_Vel_72
Time_Shift_30
Note_On_40_Vel_0
Time_Shift_54
Note_On_73_Vel_0
Time_Shift_9
Note_On_73_Vel_75
Time_Shift_99
Note_On_75_Vel_0
Sustain_Off
Time_Shift_1
Note_On_55_Vel_0
Note_On_49_Vel_0
Time_Shift_6
Note_On_41_Vel_41
Time_Shift_10
Note_On_72_Vel_69
Time_Shift_2
Note_On_70_Vel_63
Time_Shift_4
Note_On_52_Vel_0
Time_Shift_7
Note_On_46_Vel_0
Time_Shift_23
Note_On_73_Vel_0
Time_Shift_124
Note_On_48_Vel_33
Time_Shift_15
Sustain_On
Time_Shift_98
Note_On_44_Vel_42
Time_Shift_103
Note_On_77_Vel_76
Time_Shift_11
Note_On_68_Vel_57
Time_Shift_15
Note_On_56_Vel_46
Time_Shift_349
Note_On_77_Vel_0
Time_Shift_5
Note_On_77_Vel_53
Time_Shift_2
Note_On_44_Vel_0
Time_Shift_4
Note_On_67_Vel_47
Time_Shift_1
Note_On_44_Vel_37
Time_Shift_1
Sustain_Off
Time_Shift_4
Note_On_70_Vel_0
Time_Shift_1
Note_On_56_Vel_0
Time_Shift_1
Note_On_72_Vel_0
Note_On_68_Vel_0
Note_On_48_Vel_0
Time_Shift_27
Note_On_41_Vel_0
Time_Shift_130
Sustain_On
Time_Shift_23
Note_On_53_Vel_34
Time_Shift_169
Note_On_48_Vel_35
Time_Shift_127
Note_On_65_Vel_44
Time_Shift_7
Note_On_60_Vel_40
Time_Shift_398
Note_On_73_Vel_56
Time_Shift_6
Note_On_65_Vel_0
Time_Shift_4
Note_On_43_Vel_32
Sustain_Off
Time_Shift_1
Note_On_65_Vel_31
Time_Shift_5
Note_On_67_Vel_0
Note_On_60_Vel_0
Time_Shift_1
Note_On_44_Vel_0
Note_On_53_Vel_0
Note_On_48_Vel_0
Time_Shift_12
Note_On_77_Vel_0
Time_Shift_123
Sustain_On
Time_Shift_17
Note_On_53_Vel_38
Time_Shift_105
Note_On_49_Vel_52
Time_Shift_120
Note_On_58_Vel_61
Time_Shift_157
Note_On_58_Vel_0
Time_Shift_6
Note_On_58_Vel_35
Time_Shift_125
Note_On_43_Vel_0
Time_Shift_7
Note_On_43_Vel_51
Time_Shift_2
Note_On_72_Vel_70
Time_Shift_3
Note_On_64_Vel_63
Time_Shift_52
Note_On_49_Vel_0
Note_On_58_Vel_0
Note_On_65_Vel_0
Time_Shift_1
Note_On_53_Vel_0
Time_Shift_4
Sustain_Off
Time_Shift_54
Note_On_73_Vel_0
Time_Shift_3
Note_On_73_Vel_74
Time_Shift_10
Note_On_52_Vel_46
Time_Shift_17
Sustain_On
Time_Shift_62
Note_On_72_Vel_0
Time_Shift_4
Note_On_72_Vel_76
Time_Shift_26
Note_On_48_Vel_51
Time_Shift_93
Note_On_73_Vel_0
Time_Shift_4
Note_On_73_Vel_75
Time_Shift_16
Note_On_58_Vel_60
Time_Shift_101
Note_On_75_Vel_86
Time_Shift_101
Note_On_73_Vel_0
Time_Shift_5
Note_On_73_Vel_85
Time_Shift_103
Note_On_72_Vel_0
Time_Shift_6
Note_On_72_Vel_84
Time_Shift_15
Note_On_67_Vel_66
Time_Shift_11
Note_On_44_Vel_49
Time_Shift_3
Note_On_64_Vel_0
Note_On_48_Vel_0
Note_On_52_Vel_0
Sustain_Off
Time_Shift_1
Note_On_75_Vel_0
Note_On_58_Vel_0
Time_Shift_1
Note_On_73_Vel_0
Time_Shift_17
Note_On_43_Vel_0
Time_Shift_83
Note_On_55_Vel_54
Time_Shift_24
Sustain_On
Time_Shift_67
Note_On_48_Vel_52
Time_Shift_133
Note_On_77_Vel_92
Time_Shift_7
Note_On_72_Vel_0
Time_Shift_5
Note_On_72_Vel_65
Time_Shift_3
Note_On_48_Vel_0
Time_Shift_4
Note_On_48_Vel_49
Time_Shift_7
Note_On_60_Vel_57
Time_Shift_335
Note_On_77_Vel_0
Time_Shift_9
Note_On_77_Vel_80
Time_Shift_14
Note_On_72_Vel_0
Time_Shift_4
Note_On_65_Vel_51
Time_Shift_2
Note_On_72_Vel_49
Time_Shift_9
Note_On_44_Vel_0
Time_Shift_6
Note_On_44_Vel_42
Time_Shift_2
Sustain_Off
Time_Shift_3
Note_On_48_Vel_0
Note_On_60_Vel_0
Note_On_67_Vel_0
Note_On_55_Vel_0
Time_Shift_136
Note_On_53_Vel_37
Time_Shift_30
Sustain_On
Time_Shift_96
Note_On_48_Vel_44
Time_Shift_164
Note_On_60_Vel_52
Time_Shift_581
Note_On_78_Vel_64
Time_Shift_8
Note_On_45_Vel_36
Time_Shift_14
Note_On_75_Vel_51
Note_On_53_Vel_0
Note_On_65_Vel_0
Time_Shift_1
Note_On_48_Vel_0
Note_On_44_Vel_0
Note_On_60_Vel_0
Note_On_77_Vel_0
Time_Shift_1
Sustain_Off
Time_Shift_3
Note_On_72_Vel_0
Time_Shift_147
Note_On_54_Vel_34
Time_Shift_22
Sustain_On
Time_Shift_105
Note_On_51_Vel_46
Time_Shift_113
Note_On_60_Vel_52
Time_Shift_300
Note_On_77_Vel_63
Time_Shift_27
Note_On_45_Vel_0
Time_Shift_11
Note_On_45_Vel_27
Time_Shift_47
Note_On_51_Vel_0
Time_Shift_1
Note_On_60_Vel_0
Time_Shift_1
Sustain_Off
Time_Shift_4
Note_On_75_Vel_0
Time_Shift_13
Note_On_78_Vel_0
Time_Shift_4
Note_On_78_Vel_53
Time_Shift_19
Note_On_77_Vel_0
Time_Shift_7
Note_On_54_Vel_0
Time_Shift_5
Note_On_54_Vel_42
Time_Shift_65
Sustain_On
Time_Shift_3
Note_On_77_Vel_68
Time_Shift_31
Note_On_51_Vel_42
Time_Shift_73
Note_On_78_Vel_0
Time_Shift_10
Note_On_78_Vel_72
Time_Shift_1
Note_On_60_Vel_49
Time_Shift_100
Note_On_80_Vel_71
Time_Shift_6
Note_On_70_Vel_47
Time_Shift_6
Note_On_70_Vel_0
Time_Shift_77
Note_On_78_Vel_0
Time_Shift_4
Note_On_78_Vel_75
Time_Shift_96
Note_On_77_Vel_0
Time_Shift_9
Note_On_77_Vel_72
Time_Shift_10
Note_On_75_Vel_62
Time_Shift_6
Note_On_46_Vel_35
Time_Shift_20
Note_On_54_Vel_0
Time_Shift_2
Note_On_51_Vel_0
Note_On_78_Vel_0
Note_On_60_Vel_0
Time_Shift_1
Note_On_80_Vel_0
Time_Shift_1
Sustain_Off
Time_Shift_4
Note_On_45_Vel_0
Time_Shift_113
Note_On_53_Vel_43
Time_Shift_26
Sustain_On
Time_Shift_102
Note_On_49_Vel_42
Time_Shift_92
Note_On_82_Vel_71
Note_On_73_Vel_61
Time_Shift_18
Note_On_61_Vel_40
Time_Shift_181
Note_On_58_Vel_16
Time_Shift_144
Note_On_49_Vel_0
Note_On_82_Vel_0
Time_Shift_5
Note_On_49_Vel_33
Time_Shift_2
Note_On_82_Vel_63
Time_Shift_4
Sustain_Off
Time_Shift_1
Note_On_46_Vel_0
Note_On_75_Vel_0
Note_On_73_Vel_0
Note_On_61_Vel_0
Time_Shift_1
Note_On_77_Vel_0
Time_Shift_2
Note_On_72_Vel_50
Time_Shift_1
Note_On_58_Vel_0
Time_Shift_15
Note_On_53_Vel_0
Time_Shift_123
Sustain_On
Time_Shift_27
Note_On_58_Vel_39
Time_Shift_162
Note_On_53_Vel_33
Time_Shift_127
Note_On_70_Vel_57
Time_Shift_6
Note_On_53_Vel_0
Time_Shift_4
Note_On_65_Vel_33
Time_Shift_4
Note_On_53_Vel_29
Time_Shift_169
Note_On_58_Vel_0
Time_Shift_8
Note_On_58_Vel_15
Time_Shift_207
Note_On_70_Vel_0
Time_Shift_6
Note_On_78_Vel_49
Time_Shift_4
Note_On_48_Vel_31
Time_Shift_1
Note_On_70_Vel_46
Time_Shift_1
Note_On_58_Vel_0
Note_On_72_Vel_0
Time_Shift_1
Note_On_65_Vel_0
Time_Shift_3
Sustain_Off
Time_Shift_15
Note_On_49_Vel_0
Note_On_53_Vel_0
Note_On_82_Vel_0
Time_Shift_107
Note_On_48_Vel_0
Time_Shift_23
Sustain_On
Time_Shift_4
Note_On_58_Vel_36
Time_Shift_123
Note_On_54_Vel_42
Time_Shift_121
Note_On_63_Vel_54
Time_Shift_307
Note_On_77_Vel_71
Time_Shift_2
Note_On_69_Vel_64
Time_Shift_9
Note_On_48_Vel_38
Time_Shift_20
Note_On_54_Vel_0
Time_Shift_1
Note_On_78_Vel_0
Note_On_63_Vel_0
Note_On_58_Vel_0
Time_Shift_2
Sustain_Off
Time_Shift_10
Note_On_70_Vel_0
Time_Shift_80
Note_On_48_Vel_0
Time_Shift_1
Note_On_78_Vel_67
Time_Shift_17
Note_On_57_Vel_49
Time_Shift_2
Sustain_On
Time_Shift_62
Note_On_77_Vel_0
Time_Shift_10
Note_On_77_Vel_73
Time_Shift_31
Note_On_53_Vel_49
Time_Shift_81
Note_On_78_Vel_0
Time_Shift_11
Note_On_78_Vel_73
Time_Shift_11
Note_On_63_Vel_52
Time_Shift_91
Note_On_80_Vel_82
Time_Shift_95
Note_On_78_Vel_0
Time_Shift_7
Note_On_78_Vel_86
Time_Shift_93
Note_On_77_Vel_0
Time_Shift_10
Note_On_77_Vel_79
Time_Shift_7
Note_On_72_Vel_71
Time_Shift_2
Note_On_49_Vel_49
Time_Shift_14
Note_On_80_Vel_0
Note_On_78_Vel_0
Time_Shift_1
Note_On_53_Vel_0
Note_On_69_Vel_0
Note_On_57_Vel_0
Time_Shift_1
Note_On_63_Vel_0
Time_Shift_4
Sustain_Off
Time_Shift_110
Note_On_60_Vel_50
Time_Shift_12
Sustain_On
Time_Shift_97
Note_On_53_Vel_49
Time_Shift_117
Note_On_82_Vel_85
Time_Shift_34
Note_On_65_Vel_48
Time_Shift_351
Note_On_82_Vel_0
Time_Shift_11
Note_On_82_Vel_69
Time_Shift_10
Note_On_70_Vel_54
Time_Shift_25
Note_On_49_Vel_0
Time_Shift_5
Note_On_49_Vel_34
Time_Shift_5
Note_On_60_Vel_0
Time_Shift_2
Note_On_72_Vel_0
Note_On_65_Vel_0
Time_Shift_2
Note_On_53_Vel_0
Time_Shift_4
Sustain_Off
Time_Shift_5
Note_On_77_Vel_0
Time_Shift_110
Note_On_58_Vel_45
Time_Shift_21
Sustain_On
Time_Shift_102
Note_On_53_Vel_43
Time_Shift_142
Note_On_65_Vel_55
Time_Shift_466
Note_On_58_Vel_0
Note_On_65_Vel_0
Time_Shift_1
Sustain_Off
Note_On_53_Vel_0
Time_Shift_5
Note_On_49_Vel_0
Time_Shift_6
Note_On_82_Vel_0
Time_Shift_7
Note_On_70_Vel_0
Time_Shift_1
Note_On_82_Vel_88
Time_Shift_2
Note_On_37_Vel_68
Time_Shift_2
Note_On_70_Vel_81
Time_Shift_1
Note_On_73_Vel_76
Time_Shift_48
Sustain_On
Time_Shift_23
Note_On_37_Vel_0
Time_Shift_160
Note_On_58_Vel_57
Time_Shift_97
Note_On_54_Vel_55
Time_Shift_142
Note_On_66_Vel_71
Time_Shift_146
Note_On_58_Vel_0
Time_Shift_4
Note_On_58_Vel_33
Time_Shift_126
Note_On_80_Vel_92
Time_Shift_6
Note_On_49_Vel_51
Time_Shift_110
Note_On_58_Vel_0
Time_Shift_4
Note_On_58_Vel_60
Time_Shift_104
Note_On_54_Vel_0
Time_Shift_11
Note_On_54_Vel_57
Time_Shift_158
Note_On_66_Vel_0
Time_Shift_5
Note_On_66_Vel_60
Time_Shift_187
Note_On_70_Vel_0
Time_Shift_7
Note_On_70_Vel_54
Time_Shift_1
Note_On_78_Vel_88
Time_Shift_168
Note_On_49_Vel_0
Time_Shift_5
Note_On_49_Vel_48
Time_Shift_3
Note_On_78_Vel_0
Time_Shift_8
Note_On_70_Vel_0
Time_Shift_2
Note_On_78_Vel_77
Time_Shift_5
Note_On_66_Vel_0
Time_Shift_3
Note_On_70_Vel_69
Time_Shift_2
Note_On_66_Vel_57
Time_Shift_103
Note_On_58_Vel_0
Time_Shift_4
Note_On_58_Vel_58
Time_Shift_96
Note_On_54_Vel_0
Time_Shift_7
Note_On_54_Vel_56
Time_Shift_127
Note_On_61_Vel_64
Time_Shift_316
Note_On_77_Vel_87
Time_Shift_5
Note_On_65_Vel_65
Time_Shift_21
Note_On_49_Vel_0
Time_Shift_6
Note_On_49_Vel_46
Time_Shift_109
Note_On_58_Vel_0
Time_Shift_6
Note_On_58_Vel_53
Time_Shift_102
Note_On_54_Vel_0
Time_Shift_4
Note_On_54_Vel_62
Time_Shift_103
Note_On_61_Vel_0
Time_Shift_11
Note_On_61_Vel_66
Time_Shift_327
Note_On_77_Vel_0
Time_Shift_5
Note_On_77_Vel_84
Time_Shift_3
Note_On_65_Vel_0
Note_On_70_Vel_0
Time_Shift_4
Note_On_70_Vel_73
Time_Shift_2
Note_On_65_Vel_59
Time_Shift_27
Note_On_82_Vel_0
Note_On_73_Vel_0
Time_Shift_1
Note_On_49_Vel_0
Note_On_80_Vel_0
Note_On_58_Vel_0
Note_On_66_Vel_0
Note_On_54_Vel_0
Time_Shift_2
Sustain_Off
Time_Shift_17
Note_On_61_Vel_0
Note_On_78_Vel_0
Time_Shift_90
Note_On_58_Vel_52
Time_Shift_26
Sustain_On
Time_Shift_109
Note_On_55_Vel_50
Time_Shift_113
Note_On_61_Vel_56
Time_Shift_333
Note_On_76_Vel_62
Time_Shift_30
Note_On_64_Vel_50
Time_Shift_3
Note_On_49_Vel_37
Time_Shift_22
Sustain_Off
Note_On_61_Vel_0
Note_On_58_Vel_0
Note_On_55_Vel_0
Time_Shift_4
Note_On_65_Vel_0
Time_Shift_8
Note_On_77_Vel_0
Time_Shift_66
Note_On_58_Vel_39
Time_Shift_72
Sustain_On
Time_Shift_49
Note_On_55_Vel_35
Time_Shift_43
Note_On_70_Vel_0
Time_Shift_43
Note_On_61_Vel_36
Time_Shift_19
Note_On_64_Vel_0
Time_Shift_291
Note_On_49_Vel_0
Time_Shift_6
Note_On_49_Vel_35
Time_Shift_110
Note_On_58_Vel_0
Time_Shift_9
Note_On_58_Vel_44
Time_Shift_121
Note_On_55_Vel_0
Time_Shift_5
Note_On_55_Vel_35
Time_Shift_103
Note_On_61_Vel_0
Time_Shift_8
Note_On_61_Vel_39
Time_Shift_307
Note_On_76_Vel_0
Time_Shift_7
Note_On_49_Vel_0
Time_Shift_1
Note_On_76_Vel_75
Time_Shift_4
Note_On_49_Vel_40
Note_On_70_Vel_64
Time_Shift_5
Note_On_64_Vel_54
Time_Shift_113
Note_On_58_Vel_0
Time_Shift_10
Note_On_58_Vel_47
Time_Shift_128
Note_On_55_Vel_0
Time_Shift_5
Note_On_55_Vel_50
Time_Shift_141
Note_On_61_Vel_0
Time_Shift_5
Note_On_61_Vel_59
Time_Shift_432
Note_On_65_Vel_89
Time_Shift_1
Note_On_77_Vel_96
Time_Shift_177
Note_On_65_Vel_0
Note_On_77_Vel_0
Time_Shift_4
Note_On_77_Vel_91
Time_Shift_3
Note_On_49_Vel_0
Time_Shift_2
Sustain_Off
Time_Shift_1
Note_On_65_Vel_85
Note_On_68_Vel_85
Time_Shift_2
Note_On_49_Vel_77
Note_On_59_Vel_80
Time_Shift_11
Note_On_64_Vel_0
Time_Shift_69
Sustain_On
Time_Shift_15
Note_On_70_Vel_0
Time_Shift_31
Note_On_58_Vel_0
Time_Shift_501
Note_On_89_Vel_100
Time_Shift_13
Note_On_76_Vel_0
Time_Shift_288
Note_On_87_Vel_92
Time_Shift_186
Note_On_85_Vel_89
Time_Shift_143
Note_On_84_Vel_87
Time_Shift_48
Note_On_49_Vel_0
Note_On_65_Vel_0
Note_On_68_Vel_0
Note_On_85_Vel_0
Note_On_61_Vel_0
Sustain_Off
Note_On_77_Vel_0
Time_Shift_1
Note_On_59_Vel_0
Time_Shift_10
Note_On_55_Vel_0
Note_On_87_Vel_0
Time_Shift_16
Note_On_89_Vel_0
Time_Shift_59
Note_On_83_Vel_90
Time_Shift_124
Note_On_80_Vel_88
Time_Shift_32
Note_On_84_Vel_0
Time_Shift_17
Note_On_83_Vel_0
Time_Shift_61
Note_On_79_Vel_81
Time_Shift_33
Note_On_80_Vel_0
Time_Shift_71
Note_On_77_Vel_83
Time_Shift_37
Note_On_79_Vel_0
Time_Shift_72
Note_On_76_Vel_82
Time_Shift_38
Note_On_77_Vel_0
Time_Shift_77
Note_On_77_Vel_80
Time_Shift_43
Note_On_76_Vel_0
Time_Shift_63
Note_On_75_Vel_83
Time_Shift_36
Note_On_77_Vel_0
Time_Shift_71
Note_On_73_Vel_80
Time_Shift_34
Note_On_75_Vel_0
Time_Shift_77
Note_On_72_Vel_80
Time_Shift_49
Note_On_73_Vel_0
Time_Shift_53
Note_On_71_Vel_81
Time_Shift_41
Note_On_72_Vel_0
Time_Shift_80
Note_On_68_Vel_77
Time_Shift_38
Note_On_71_Vel_0
Time_Shift_80
Note_On_67_Vel_79
Time_Shift_31
Note_On_68_Vel_0
Time_Shift_96
Note_On_70_Vel_75
Time_Shift_44
Note_On_67_Vel_0
Time_Shift_92
Note_On_68_Vel_77
Time_Shift_58
Note_On_70_Vel_0
Time_Shift_80
Note_On_67_Vel_72
Time_Shift_52
Note_On_68_Vel_0
Time_Shift_95
Note_On_65_Vel_74
Time_Shift_27
Note_On_67_Vel_0
Time_Shift_130
Note_On_64_Vel_76
Time_Shift_44
Note_On_65_Vel_0
Time_Shift_129
Note_On_65_Vel_67
Time_Shift_31
Note_On_64_Vel_0
Time_Shift_141
Note_On_63_Vel_73
Time_Shift_47
Note_On_65_Vel_0
Time_Shift_147
Note_On_61_Vel_75
Time_Shift_39
Note_On_63_Vel_0
Time_Shift_153
Note_On_60_Vel_73
Time_Shift_108
Note_On_61_Vel_0
Time_Shift_124
Note_On_61_Vel_64
Time_Shift_36
Note_On_60_Vel_0
Time_Shift_213
Note_On_56_Vel_64
Time_Shift_50
Note_On_61_Vel_0
Time_Shift_229
Note_On_58_Vel_69
Time_Shift_111
Note_On_56_Vel_0
Time_Shift_240
Note_On_60_Vel_69
Time_Shift_55
Note_On_58_Vel_0
Time_Shift_159
Sustain_On
Time_Shift_191
Note_On_52_Vel_47
Time_Shift_3
Note_On_55_Vel_42
Time_Shift_5
Note_On_48_Vel_39
Time_Shift_160
Sustain_Off
Time_Shift_105
Note_On_61_Vel_76
Time_Shift_67
Note_On_60_Vel_0
Time_Shift_6
Note_On_55_Vel_0
Note_On_48_Vel_0
Time_Shift_3
Note_On_52_Vel_0
Time_Shift_144
Sustain_On
Time_Shift_101
Note_On_47_Vel_48
Note_On_53_Vel_58
Time_Shift_2
Note_On_56_Vel_61
Time_Shift_237
Note_On_65_Vel_86
Time_Shift_58
Note_On_47_Vel_0
Time_Shift_2
Note_On_53_Vel_0
Time_Shift_1
Note_On_61_Vel_0
Time_Shift_1
Note_On_56_Vel_0
Time_Shift_3
Sustain_Off
Time_Shift_101
Sustain_On
Time_Shift_148
Note_On_62_Vel_59
Time_Shift_2
Note_On_46_Vel_44
Note_On_56_Vel_58
Time_Shift_319
Note_On_64_Vel_85
Time_Shift_44
Note_On_56_Vel_0
Time_Shift_2
Note_On_46_Vel_0
Time_Shift_1
Note_On_62_Vel_0
Time_Shift_1
Note_On_65_Vel_0
Time_Shift_1
Sustain_Off
Time_Shift_235
Sustain_On
Time_Shift_169
Note_On_62_Vel_47
Time_Shift_1
Note_On_56_Vel_45
Time_Shift_5
Note_On_40_Vel_33
Time_Shift_432
Note_On_64_Vel_0
Time_Shift_10
Note_On_64_Vel_78
Time_Shift_34
Sustain_Off
Time_Shift_19
Note_On_62_Vel_0
Time_Shift_1
Note_On_40_Vel_0
Note_On_56_Vel_0
Time_Shift_105
Sustain_On
Time_Shift_251
Note_On_55_Vel_35
Time_Shift_4
Note_On_61_Vel_43
Time_Shift_2
Note_On_45_Vel_40
Time_Shift_407
Note_On_65_Vel_64
Time_Shift_20
Sustain_Off
Time_Shift_10
Note_On_55_Vel_0
Time_Shift_1
Note_On_45_Vel_0
Time_Shift_1
Note_On_61_Vel_0
Time_Shift_33
Note_On_64_Vel_0
Time_Shift_363
Note_On_60_Vel_41
Time_Shift_6
Sustain_On
Time_Shift_3
Note_On_53_Vel_27
Time_Shift_23
Note_On_44_Vel_33
Time_Shift_557
Note_On_68_Vel_66
Time_Shift_27
Sustain_Off
Time_Shift_16
Note_On_44_Vel_0
Note_On_53_Vel_0
Note_On_60_Vel_0
Time_Shift_7
Note_On_65_Vel_0
Time_Shift_143
Sustain_On
Time_Shift_480
Note_On_65_Vel_29
Time_Shift_14
Note_On_59_Vel_27
Note_On_43_Vel_26
Time_Shift_66
Sustain_Off
Time_Shift_208
Sustain_On
Time_Shift_621
Note_On_67_Vel_37
Time_Shift_21
Sustain_Off
Time_Shift_29
Note_On_68_Vel_0
Time_Shift_1
Note_On_65_Vel_0
Time_Shift_1
Note_On_59_Vel_0
Time_Shift_10
Note_On_43_Vel_0
Time_Shift_292
Sustain_On
Time_Shift_549
Note_On_64_Vel_30
Time_Shift_7
Note_On_58_Vel_21
Time_Shift_12
Note_On_36_Vel_17
Time_Shift_5
Note_On_55_Vel_12
Time_Shift_1071
Note_On_67_Vel_0
Time_Shift_1340
Sustain_Off
Time_Shift_23
Note_On_58_Vel_0
Time_Shift_7
Note_On_64_Vel_0
Note_On_36_Vel_0
Time_Shift_20
Note_On_55_Vel_0
Time_Shift_263
Note_On_72_Vel_47
Time_Shift_261
Note_On_41_Vel_26
Time_Shift_52
Sustain_On
Time_Shift_798
Note_On_41_Vel_0
Time_Shift_14
Note_On_77_Vel_44
Time_Shift_21
Note_On_60_Vel_24
Note_On_65_Vel_23
Time_Shift_20
Note_On_56_Vel_22
Time_Shift_69
Sustain_Off
Time_Shift_153
Sustain_On
Time_Shift_472
Note_On_43_Vel_26
Note_On_75_Vel_41
Time_Shift_8
Sustain_Off
Time_Shift_9
Note_On_72_Vel_0
Time_Shift_4
Note_On_56_Vel_0
Time_Shift_1
Note_On_60_Vel_0
Note_On_65_Vel_0
Time_Shift_5
Note_On_77_Vel_0
Time_Shift_169
Sustain_On
Time_Shift_468
Note_On_43_Vel_0
Time_Shift_42
Note_On_73_Vel_40
Time_Shift_1
Note_On_63_Vel_23
Note_On_58_Vel_23
Time_Shift_6
Note_On_51_Vel_25
Time_Shift_15
Sustain_Off
Time_Shift_9
Note_On_75_Vel_0
Time_Shift_135
Sustain_On
Time_Shift_516
Sustain_Off
Time_Shift_2
Note_On_72_Vel_43
Time_Shift_3
Note_On_73_Vel_0
Time_Shift_1
Note_On_51_Vel_0
Note_On_58_Vel_0
Time_Shift_15
Note_On_63_Vel_0
Time_Shift_5
Note_On_68_Vel_20
Note_On_44_Vel_30
Time_Shift_5
Note_On_63_Vel_14
Time_Shift_313
Sustain_On
Time_Shift_255
Note_On_71_Vel_46
Time_Shift_149
Sustain_Off
Time_Shift_3
Note_On_63_Vel_0
Note_On_68_Vel_0
Note_On_72_Vel_0
Time_Shift_5
Note_On_72_Vel_42
Time_Shift_4
Note_On_44_Vel_0
Time_Shift_2
Note_On_68_Vel_31
Note_On_60_Vel_30
Time_Shift_8
Note_On_71_Vel_0
Time_Shift_165
Sustain_On
Time_Shift_395
Note_On_73_Vel_48
Time_Shift_148
Sustain_Off
Time_Shift_10
Note_On_60_Vel_0
Time_Shift_13
Note_On_68_Vel_0
Time_Shift_3
Note_On_72_Vel_0
Time_Shift_3
Note_On_73_Vel_0
Time_Shift_3
Note_On_72_Vel_47
Time_Shift_5
Note_On_40_Vel_17
Time_Shift_227
Sustain_On
Time_Shift_502
Note_On_60_Vel_26
Note_On_67_Vel_27
Time_Shift_1
Note_On_58_Vel_31
Time_Shift_784
Sustain_Off
Time_Shift_2
Note_On_67_Vel_0
Time_Shift_1
Note_On_72_Vel_0
Time_Shift_1
Note_On_58_Vel_0
Time_Shift_2
Note_On_60_Vel_0
Time_Shift_13
Note_On_41_Vel_36
Time_Shift_7
Note_On_40_Vel_0
Time_Shift_177
Sustain_On
Time_Shift_637
Note_On_41_Vel_0
Time_Shift_2
Note_On_76_Vel_43
Time_Shift_10
Note_On_60_Vel_19
Time_Shift_5
Note_On_56_Vel_23
Time_Shift_8
Note_On_65_Vel_16
Time_Shift_37
Sustain_Off
Time_Shift_7
Sustain_On
Time_Shift_239
Note_On_79_Vel_52
Time_Shift_210
Note_On_77_Vel_53
Time_Shift_182
Sustain_Off
Time_Shift_11
Note_On_56_Vel_0
Note_On_79_Vel_0
Time_Shift_1
Note_On_60_Vel_0
Time_Shift_1
Note_On_76_Vel_0
Time_Shift_1
Note_On_65_Vel_0
Time_Shift_2
Note_On_77_Vel_0
Time_Shift_18
Note_On_75_Vel_48
Time_Shift_5
Note_On_43_Vel_26
Time_Shift_213
Sustain_On
Time_Shift_137
Note_On_63_Vel_38
Time_Shift_290
Note_On_70_Vel_45
Time_Shift_203
Note_On_63_Vel_0
Time_Shift_4
Note_On_72_Vel_47
Time_Shift_2
Note_On_63_Vel_26
Time_Shift_6
Note_On_58_Vel_17
Time_Shift_23
Note_On_51_Vel_20
Time_Shift_23
Sustain_Off
Time_Shift_4
Note_On_43_Vel_0
Time_Shift_22
Note_On_70_Vel_0
Time_Shift_108
Sustain_On
Time_Shift_39
Note_On_75_Vel_0
Time_Shift_9
Note_On_75_Vel_45
Time_Shift_194
Note_On_73_Vel_50
Time_Shift_214
Note_On_51_Vel_0
Note_On_75_Vel_0
Note_On_58_Vel_0
Time_Shift_1
Sustain_Off
Time_Shift_12
Note_On_63_Vel_0
Note_On_72_Vel_0
Time_Shift_4
Note_On_72_Vel_43
Time_Shift_13
Note_On_44_Vel_32
Time_Shift_7
Note_On_63_Vel_17
Time_Shift_22
Note_On_73_Vel_0
Time_Shift_289
Note_On_60_Vel_39
Time_Shift_141
Sustain_On
Time_Shift_138
Note_On_63_Vel_0
Time_Shift_5
Note_On_63_Vel_41
Time_Shift_227
Note_On_68_Vel_38
Time_Shift_6
Note_On_60_Vel_0
Time_Shift_9
Note_On_60_Vel_26
Time_Shift_4
Sustain_Off
Time_Shift_6
Note_On_56_Vel_26
Time_Shift_1
Note_On_44_Vel_0
Time_Shift_3
Note_On_63_Vel_0
Time_Shift_3
Note_On_72_Vel_0
Time_Shift_21
Note_On_51_Vel_14
Time_Shift_168
Note_On_60_Vel_0
Time_Shift_28
Note_On_71_Vel_37
Time_Shift_11
Sustain_On
Time_Shift_186
Note_On_73_Vel_39
Time_Shift_241
Note_On_72_Vel_39
Time_Shift_21
Sustain_Off
Time_Shift_1
Note_On_40_Vel_19
Time_Shift_16
Note_On_56_Vel_0
Time_Shift_1
Note_On_71_Vel_0
Time_Shift_3
Note_On_68_Vel_0
Time_Shift_14
Note_On_51_Vel_0
Time_Shift_5
Note_On_73_Vel_0
Time_Shift_226
Sustain_On
Time_Shift_489
Note_On_67_Vel_26
Note_On_60_Vel_27
Time_Shift_1
Note_On_58_Vel_31
Time_Shift_826
Note_On_41_Vel_38
Time_Shift_34
Note_On_40_Vel_0
Time_Shift_2
Note_On_58_Vel_0
Time_Shift_1
Note_On_72_Vel_0
Note_On_60_Vel_0
Time_Shift_1
Note_On_67_Vel_0
Sustain_Off
Time_Shift_166
Sustain_On
Time_Shift_123
Note_On_41_Vel_0
Time_Shift_488
Note_On_60_Vel_29
Time_Shift_2
Note_On_77_Vel_60
Time_Shift_2
Note_On_68_Vel_37
Time_Shift_3
Note_On_53_Vel_19
Time_Shift_5
Note_On_53_Vel_0
Time_Shift_348
Note_On_89_Vel_75
Time_Shift_243
Note_On_77_Vel_0
Time_Shift_4
Note_On_77_Vel_63
Time_Shift_211
Note_On_88_Vel_71
Time_Shift_4
Note_On_53_Vel_32
Time_Shift_14
Note_On_68_Vel_0
Time_Shift_1
Note_On_60_Vel_0
Sustain_Off
Time_Shift_2
Note_On_77_Vel_0
Time_Shift_1
Note_On_89_Vel_0
Time_Shift_55
Sustain_On
Time_Shift_128
Note_On_79_Vel_64
Time_Shift_156
Note_On_88_Vel_0
Time_Shift_10
Note_On_88_Vel_74
Time_Shift_171
Note_On_80_Vel_72
Time_Shift_3
Note_On_53_Vel_0
Time_Shift_9
Note_On_60_Vel_40
Time_Shift_2
Note_On_53_Vel_35
Time_Shift_2
Note_On_65_Vel_31
Time_Shift_168
Note_On_87_Vel_75
Time_Shift_154
Note_On_81_Vel_66
Time_Shift_159
Note_On_87_Vel_0
Time_Shift_1
Note_On_88_Vel_0
Note_On_79_Vel_0
Note_On_80_Vel_0
Note_On_60_Vel_0
Note_On_65_Vel_0
Note_On_81_Vel_0
Time_Shift_1
Note_On_53_Vel_0
Time_Shift_2
Note_On_86_Vel_71
Time_Shift_4
Sustain_Off
Time_Shift_24
Note_On_46_Vel_31
Time_Shift_112
Sustain_On
Time_Shift_36
Note_On_82_Vel_62
Time_Shift_133
Note_On_86_Vel_0
Time_Shift_8
Note_On_86_Vel_65
Time_Shift_150
Note_On_85_Vel_58
Time_Shift_22
Note_On_70_Vel_42
Time_Shift_8
Note_On_65_Vel_26
Time_Shift_1
Note_On_58_Vel_32
Time_Shift_5
Note_On_61_Vel_29
Time_Shift_136
Note_On_73_Vel_54
Time_Shift_123
Note_On_85_Vel_0
Time_Shift_4
Note_On_85_Vel_61
Time_Shift_157
Note_On_84_Vel_59
Time_Shift_4
Note_On_61_Vel_0
Note_On_58_Vel_0
Note_On_65_Vel_0
Time_Shift_1
Note_On_70_Vel_0
Note_On_82_Vel_0
Note_On_73_Vel_0
Sustain_Off
Note_On_48_Vel_36
Note_On_85_Vel_0
Time_Shift_1
Note_On_46_Vel_0
Note_On_72_Vel_37
Time_Shift_9
Note_On_72_Vel_0
Note_On_86_Vel_0
Time_Shift_69
Sustain_On
Time_Shift_76
Note_On_74_Vel_57
Time_Shift_47
Note_On_48_Vel_0
Time_Shift_69
Note_On_84_Vel_0
Time_Shift_7
Note_On_84_Vel_65
Time_Shift_158
Note_On_75_Vel_70
Time_Shift_10
Note_On_70_Vel_45
Time_Shift_5
Note_On_60_Vel_40
Time_Shift_1
Note_On_67_Vel_32
Time_Shift_118
Note_On_82_Vel_71
Time_Shift_118
Note_On_76_Vel_70
Time_Shift_141
Note_On_81_Vel_73
Time_Shift_11
Note_On_76_Vel_0
Time_Shift_2
Note_On_49_Vel_42
Time_Shift_1
Note_On_84_Vel_0
Note_On_74_Vel_0
Time_Shift_1
Note_On_60_Vel_0
Note_On_82_Vel_0
Note_On_75_Vel_0
Time_Shift_1
Note_On_67_Vel_0
Note_On_70_Vel_0
Time_Shift_1
Sustain_Off
Time_Shift_3
Note_On_76_Vel_49
Time_Shift_83
Sustain_On
Time_Shift_39
Note_On_77_Vel_74
Time_Shift_61
Note_On_76_Vel_0
Time_Shift_54
Note_On_81_Vel_0
Time_Shift_6
Note_On_81_Vel_74
Time_Shift_134
Note_On_80_Vel_73
Time_Shift_3
Note_On_65_Vel_41
Time_Shift_7
Note_On_61_Vel_40
Time_Shift_3
Note_On_56_Vel_41
Time_Shift_113
Note_On_68_Vel_64
Time_Shift_110
Note_On_80_Vel_0
Time_Shift_5
Note_On_80_Vel_74
Time_Shift_136
Note_On_79_Vel_72
Time_Shift_24
Note_On_46_Vel_36
Time_Shift_1
Sustain_Off
Note_On_77_Vel_0
Note_On_49_Vel_0
Note_On_61_Vel_0
Time_Shift_1
Note_On_65_Vel_0
Time_Shift_1
Note_On_56_Vel_0
Note_On_81_Vel_0
Time_Shift_3
Note_On_80_Vel_0
Note_On_68_Vel_0
Time_Shift_98
Sustain_On
Time_Shift_24
Note_On_73_Vel_63
Time_Shift_106
Note_On_79_Vel_0
Time_Shift_7
Note_On_79_Vel_68
Time_Shift_107
Note_On_78_Vel_71
Time_Shift_13
Note_On_70_Vel_55
Time_Shift_1
Note_On_58_Vel_45
Note_On_61_Vel_44
Time_Shift_108
Note_On_66_Vel_59
Time_Shift_102
Note_On_78_Vel_0
Time_Shift_6
Note_On_78_Vel_71
Time_Shift_132
Note_On_77_Vel_68
Time_Shift_3
Note_On_48_Vel_40
Time_Shift_11
Sustain_Off
Time_Shift_4
Note_On_58_Vel_0
Time_Shift_1
Note_On_61_Vel_0
Note_On_46_Vel_0
Note_On_70_Vel_0
Note_On_79_Vel_0
Time_Shift_2
Note_On_66_Vel_0
Time_Shift_1
Note_On_78_Vel_0
Note_On_73_Vel_0
Time_Shift_123
Note_On_65_Vel_57
Time_Shift_9
Note_On_48_Vel_0
Time_Shift_15
Sustain_On
Time_Shift_101
Note_On_68_Vel_70
Time_Shift_117
Note_On_72_Vel_71
Time_Shift_3
Note_On_60_Vel_45
Time_Shift_13
Note_On_56_Vel_47
Time_Shift_116
Note_On_75_Vel_76
Time_Shift_121
Note_On_73_Vel_74
Time_Shift_128
Note_On_72_Vel_0
Time_Shift_7
Note_On_72_Vel_69
Time_Shift_3
Note_On_36_Vel_33
Time_Shift_3
Sustain_Off
Time_Shift_2
Note_On_60_Vel_0
Time_Shift_1
Note_On_68_Vel_0
Note_On_65_Vel_0
Time_Shift_1
Note_On_56_Vel_0
Note_On_77_Vel_0
Time_Shift_1
Note_On_75_Vel_0
Note_On_73_Vel_0
Time_Shift_152
Note_On_64_Vel_62
Time_Shift_30
Sustain_On
Time_Shift_86
Note_On_67_Vel_67
Time_Shift_60
Note_On_36_Vel_0
Time_Shift_50
Note_On_60_Vel_47
Time_Shift_4
Note_On_60_Vel_0
Time_Shift_4
Note_On_71_Vel_74
Note_On_48_Vel_45
Time_Shift_1
Note_On_55_Vel_46
Time_Shift_110
Note_On_72_Vel_0
Time_Shift_4
Note_On_72_Vel_75
Time_Shift_101
Note_On_70_Vel_76
Time_Shift_108
Note_On_71_Vel_0
Time_Shift_1
Note_On_72_Vel_0
Note_On_64_Vel_0
Note_On_67_Vel_0
Note_On_48_Vel_0
Time_Shift_1
Note_On_55_Vel_0
Time_Shift_3
Sustain_Off
Time_Shift_1
Note_On_69_Vel_75
Time_Shift_23
Note_On_41_Vel_43
Time_Shift_23
Note_On_70_Vel_0
Time_Shift_72
Note_On_41_Vel_0
Time_Shift_5
Note_On_68_Vel_75
Time_Shift_42
Sustain_On
Time_Shift_74
Note_On_65_Vel_77
Time_Shift_121
Note_On_77_Vel_83
Time_Shift_1
Note_On_60_Vel_51
Time_Shift_2
Note_On_56_Vel_54
Time_Shift_117
Note_On_65_Vel_0
Time_Shift_5
Note_On_65_Vel_67
Time_Shift_102
Note_On_77_Vel_0
Time_Shift_6
Note_On_77_Vel_82
Time_Shift_111
Note_On_67_Vel_70
Time_Shift_2
Note_On_41_Vel_48
Time_Shift_21
Sustain_Off
Time_Shift_1
Note_On_68_Vel_0
Note_On_65_Vel_0
Note_On_60_Vel_0
Note_On_56_Vel_0
Note_On_69_Vel_0
Time_Shift_86
Note_On_76_Vel_76
Time_Shift_34
Note_On_67_Vel_0
Time_Shift_8
Sustain_On
Time_Shift_39
Note_On_77_Vel_0
Time_Shift_21
Note_On_68_Vel_73
Time_Shift_111
Note_On_75_Vel_80
Time_Shift_26
Note_On_65_Vel_47
Time_Shift_4
Note_On_60_Vel_50
Time_Shift_1
Note_On_53_Vel_45
Time_Shift_67
Note_On_69_Vel_73
Time_Shift_100
Note_On_75_Vel_0
Time_Shift_4
Note_On_75_Vel_83
Time_Shift_107
Note_On_74_Vel_78
Time_Shift_46
Note_On_46_Vel_40
Time_Shift_29
Note_On_60_Vel_0
Time_Shift_1
Note_On_69_Vel_0
Time_Shift_1
Note_On_65_Vel_0
Note_On_75_Vel_0
Time_Shift_2
Note_On_68_Vel_0
Sustain_Off
Time_Shift_9
Note_On_41_Vel_0
Time_Shift_16
Note_On_53_Vel_0
Note_On_76_Vel_0
Time_Shift_34
Note_On_70_Vel_72
Time_Shift_10
Note_On_74_Vel_0
Time_Shift_33
Sustain_On
Time_Shift_61
Note_On_74_Vel_78
Time_Shift_97
Note_On_73_Vel_76
Time_Shift_23
Note_On_65_Vel_49
Time_Shift_9
Note_On_58_Vel_54
Time_Shift_2
Note_On_53_Vel_41
Time_Shift_78
Note_On_61_Vel_69
Time_Shift_91
Note_On_73_Vel_0
Time_Shift_5
Note_On_73_Vel_73
Time_Shift_105
Note_On_62_Vel_71
Time_Shift_24
Note_On_48_Vel_51
Time_Shift_29
Note_On_65_Vel_0
Note_On_70_Vel_0
Time_Shift_1
Note_On_53_Vel_0
Note_On_61_Vel_0
Note_On_58_Vel_0
Note_On_46_Vel_0
Note_On_74_Vel_0
Time_Shift_1
Note_On_73_Vel_0
Time_Shift_5
Sustain_Off
Time_Shift_38
Note_On_72_Vel_75
Time_Shift_25
Note_On_62_Vel_0
Time_Shift_28
Sustain_On
Time_Shift_52
Note_On_63_Vel_70
Time_Shift_101
Note_On_48_Vel_0
Time_Shift_4
Note_On_70_Vel_72
Time_Shift_5
Note_On_48_Vel_48
Time_Shift_10
Note_On_55_Vel_52
Time_Shift_83
Note_On_64_Vel_69
Time_Shift_90
Note_On_70_Vel_0
Time_Shift_7
Note_On_70_Vel_75
Time_Shift_110
Note_On_69_Vel_77
Time_Shift_25
Note_On_37_Vel_41
Time_Shift_2
Note_On_63_Vel_0
Time_Shift_1
Note_On_48_Vel_0
Time_Shift_1
Note_On_72_Vel_0
Time_Shift_1
Note_On_55_Vel_0
Note_On_64_Vel_0
Time_Shift_3
Note_On_70_Vel_0
Sustain_Off
Time_Shift_46
Note_On_37_Vel_0
Time_Shift_23
Note_On_65_Vel_63
Time_Shift_27
Sustain_On
Time_Shift_69
Note_On_69_Vel_0
Time_Shift_6
Note_On_69_Vel_71
Time_Shift_106
Note_On_56_Vel_57
Time_Shift_3
Note_On_68_Vel_71
Time_Shift_12
Note_On_49_Vel_49
Time_Shift_81
Note_On_65_Vel_0
Time_Shift_4
Note_On_65_Vel_62
Time_Shift_95
Note_On_68_Vel_0
Time_Shift_5
Note_On_68_Vel_72
Time_Shift_110
Note_On_66_Vel_67
Time_Shift_4
Note_On_58_Vel_55
Time_Shift_1
Note_On_46_Vel_52
Time_Shift_30
Sustain_Off
Time_Shift_7
Note_On_69_Vel_0
Note_On_49_Vel_0
Note_On_65_Vel_0
Time_Shift_1
Note_On_56_Vel_0
Time_Shift_1
Note_On_68_Vel_0
Time_Shift_60
Note_On_61_Vel_61
Time_Shift_19
Sustain_On
Time_Shift_77
Note_On_66_Vel_0
Time_Shift_12
Note_On_66_Vel_69
Time_Shift_106
Note_On_65_Vel_66
Time_Shift_16
Note_On_56_Vel_52
Time_Shift_3
Note_On_47_Vel_44
Time_Shift_4
Sustain_Off
Time_Shift_3
Note_On_58_Vel_0
Time_Shift_1
Note_On_61_Vel_0
Note_On_46_Vel_0
Note_On_66_Vel_0
Time_Shift_78
Sustain_On
Time_Shift_15
Note_On_61_Vel_60
Time_Shift_85
Note_On_65_Vel_0
Time_Shift_10
Note_On_65_Vel_71
Time_Shift_131
Note_On_58_Vel_48
Note_On_66_Vel_61
Time_Shift_3
Note_On_46_Vel_45
Time_Shift_18
Note_On_61_Vel_0
Time_Shift_1
Note_On_56_Vel_0
Time_Shift_1
Note_On_47_Vel_0
Time_Shift_1
Sustain_Off
Note_On_65_Vel_0
Time_Shift_84
Note_On_61_Vel_53
Time_Shift_20
Sustain_On
Time_Shift_92
Note_On_66_Vel_0
Time_Shift_7
Note_On_66_Vel_54
Time_Shift_88
Sustain_Off
Time_Shift_10
Note_On_61_Vel_0
Time_Shift_22
Note_On_65_Vel_52
Time_Shift_3
Note_On_58_Vel_0
Time_Shift_5
Note_On_56_Vel_42
Time_Shift_3
Note_On_47_Vel_35
Time_Shift_4
Note_On_66_Vel_0
Time_Shift_73
Sustain_On
Time_Shift_56
Note_On_61_Vel_47
Time_Shift_105
Note_On_65_Vel_0
Time_Shift_7
Note_On_65_Vel_53
Time_Shift_119
Note_On_46_Vel_0
Time_Shift_1
Note_On_61_Vel_0
Time_Shift_3
Sustain_Off
Time_Shift_1
Note_On_47_Vel_0
Time_Shift_23
Note_On_56_Vel_0
Time_Shift_4
Note_On_72_Vel_59
Note_On_56_Vel_40
Time_Shift_19
Note_On_48_Vel_27
Time_Shift_69
Sustain_On
Time_Shift_143
Note_On_60_Vel_36
Time_Shift_141
Note_On_65_Vel_0
Time_Shift_6
Note_On_65_Vel_38
Time_Shift_140
Note_On_48_Vel_0
Time_Shift_1
Note_On_64_Vel_51
Time_Shift_3
Note_On_55_Vel_31
Time_Shift_2
Sustain_Off
Time_Shift_1
Note_On_56_Vel_0
Note_On_48_Vel_28
Time_Shift_1
Note_On_72_Vel_0
Time_Shift_2
Note_On_60_Vel_0
Time_Shift_36
Note_On_65_Vel_0
Time_Shift_92
Sustain_On
Time_Shift_59
Note_On_58_Vel_36
Time_Shift_158
Note_On_60_Vel_42
Time_Shift_188
Note_On_65_Vel_45
Time_Shift_18
Note_On_41_Vel_25
Time_Shift_18
Note_On_58_Vel_0
Sustain_Off
Time_Shift_1
Note_On_55_Vel_0
Time_Shift_4
Note_On_48_Vel_0
Time_Shift_1
Note_On_64_Vel_0
Time_Shift_1
Note_On_60_Vel_0
Time_Shift_136
Sustain_On
Time_Shift_55
Note_On_56_Vel_39
Time_Shift_164
Note_On_60_Vel_47
Time_Shift_239
Note_On_57_Vel_52
Note_On_54_Vel_59
Time_Shift_31
Note_On_56_Vel_0
Time_Shift_1
Sustain_Off
Note_On_60_Vel_0
Note_On_65_Vel_0
Time_Shift_2
Note_On_41_Vel_0
Time_Shift_84
Sustain_On
Time_Shift_47
Note_On_60_Vel_50
Time_Shift_125
Note_On_63_Vel_52
Time_Shift_116
Note_On_53_Vel_64
Time_Shift_7
Note_On_66_Vel_48
Time_Shift_139
Note_On_69_Vel_54
Time_Shift_100
Note_On_72_Vel_59
Time_Shift_122
Note_On_75_Vel_59
Time_Shift_1
Note_On_51_Vel_69
Time_Shift_121
Note_On_78_Vel_55
Time_Shift_109
Note_On_81_Vel_62
Time_Shift_134
Note_On_51_Vel_0
Time_Shift_11
Note_On_51_Vel_67
Time_Shift_4
Note_On_41_Vel_50
Time_Shift_5
Note_On_90_Vel_62
Time_Shift_28
Note_On_72_Vel_0
Time_Shift_1
Note_On_75_Vel_0
Note_On_60_Vel_0
Time_Shift_1
Note_On_53_Vel_0
Note_On_69_Vel_0
Note_On_57_Vel_0
Time_Shift_1
Note_On_54_Vel_0
Time_Shift_1
Sustain_Off
Time_Shift_64
Note_On_63_Vel_0
Time_Shift_23
Note_On_66_Vel_0
Time_Shift_21
Note_On_84_Vel_55
Time_Shift_17
Sustain_On
Time_Shift_100
Note_On_81_Vel_0
Time_Shift_13
Note_On_87_Vel_54
Time_Shift_123
Note_On_81_Vel_52
Time_Shift_228
Note_On_72_Vel_55
Time_Shift_114
Note_On_53_Vel_60
Time_Shift_12
Note_On_75_Vel_58
Time_Shift_137
Note_On_69_Vel_47
Time_Shift_3
Note_On_90_Vel_0
Time_Shift_125
Note_On_66_Vel_49
Time_Shift_120
Note_On_69_Vel_0
Time_Shift_7
Note_On_69_Vel_49
Time_Shift_1
Note_On_51_Vel_0
Time_Shift_5
Note_On_51_Vel_64
Time_Shift_12
Note_On_60_Vel_49
Time_Shift_125
Note_On_63_Vel_52
Time_Shift_122
Note_On_57_Vel_49
Time_Shift_163
Note_On_58_Vel_56
Time_Shift_3
Note_On_41_Vel_0
Time_Shift_3
Note_On_49_Vel_64
Time_Shift_5
Note_On_78_Vel_0
Time_Shift_1
Note_On_41_Vel_44
Time_Shift_15
Note_On_87_Vel_0
Note_On_84_Vel_0
Time_Shift_1
Sustain_Off
Note_On_81_Vel_0
Note_On_51_Vel_0
Note_On_63_Vel_0
Note_On_69_Vel_0
Note_On_72_Vel_0
Time_Shift_1
Note_On_75_Vel_0
Note_On_53_Vel_0
Note_On_66_Vel_0
Note_On_60_Vel_0
Time_Shift_1
Note_On_57_Vel_0
Time_Shift_150
Sustain_On
Time_Shift_33
Note_On_53_Vel_41
Time_Shift_116
Note_On_55_Vel_51
Time_Shift_112
Note_On_58_Vel_0
Time_Shift_6
Note_On_58_Vel_53
Time_Shift_101
Note_On_61_Vel_54
Time_Shift_111
Note_On_65_Vel_59
Time_Shift_125
Note_On_48_Vel_64
Time_Shift_13
Note_On_67_Vel_54
Time_Shift_37
Sustain_Off
Note_On_61_Vel_0
Time_Shift_1
Note_On_58_Vel_0
Note_On_53_Vel_0
Note_On_65_Vel_0
Note_On_49_Vel_0
Note_On_55_Vel_0
Time_Shift_80
Note_On_67_Vel_0
Time_Shift_14
Note_On_70_Vel_51
Time_Shift_19
Sustain_On
Time_Shift_121
Note_On_73_Vel_52
Time_Shift_153
Note_On_77_Vel_56
Time_Shift_165
Note_On_79_Vel_51
Time_Shift_224
Note_On_82_Vel_58
Time_Shift_18
Note_On_46_Vel_57
Time_Shift_182
Note_On_85_Vel_58
Time_Shift_5
Note_On_46_Vel_0
Time_Shift_11
Note_On_46_Vel_46
Time_Shift_34
Note_On_73_Vel_0
Time_Shift_2
Note_On_79_Vel_0
Time_Shift_1
Note_On_77_Vel_0
Note_On_82_Vel_0
Note_On_48_Vel_0
Time_Shift_1
Note_On_70_Vel_0
Time_Shift_4
Sustain_Off
Time_Shift_8
Note_On_41_Vel_0
Time_Shift_80
Note_On_79_Vel_47
Time_Shift_28
Sustain_On
Time_Shift_97
Note_On_82_Vel_55
Time_Shift_130
Note_On_76_Vel_41
Time_Shift_127
Note_On_73_Vel_51
Time_Shift_153
Note_On_67_Vel_42
Time_Shift_148
Note_On_49_Vel_47
Time_Shift_22
Sustain_Off
Time_Shift_1
Note_On_82_Vel_0
Note_On_76_Vel_0
Time_Shift_1
Note_On_73_Vel_0
Note_On_85_Vel_0
Note_On_79_Vel_0
Time_Shift_7
Note_On_67_Vel_0
Time_Shift_128
Sustain_On
Time_Shift_34
Note_On_64_Vel_38
Time_Shift_174
Note_On_61_Vel_40
Time_Shift_166
Note_On_55_Vel_34
Time_Shift_233
Note_On_58_Vel_36
Time_Shift_242
Note_On_52_Vel_37
Time_Shift_257
Note_On_46_Vel_0
Time_Shift_134
Note_On_48_Vel_53
Time_Shift_7
Note_On_41_Vel_41
Time_Shift_49
Note_On_52_Vel_0
Time_Shift_2
Sustain_Off
Time_Shift_1
Note_On_61_Vel_0
Time_Shift_1
Note_On_64_Vel_0
Note_On_58_Vel_0
Note_On_55_Vel_0
Time_Shift_1
Note_On_49_Vel_0
Time_Shift_250
Sustain_On
Time_Shift_23
Note_On_57_Vel_44
Time_Shift_203
Note_On_60_Vel_48
Time_Shift_170
Note_On_65_Vel_47
Time_Shift_156
Note_On_58_Vel_53
Time_Shift_131
Note_On_60_Vel_0
Time_Shift_11
Note_On_60_Vel_60
Time_Shift_135
Note_On_57_Vel_0
Time_Shift_5
Note_On_57_Vel_60
Time_Shift_66
Note_On_65_Vel_0
Note_On_58_Vel_0
Time_Shift_3
Sustain_Off
Time_Shift_11
Note_On_60_Vel_0
Time_Shift_110
Note_On_60_Vel_52
Time_Shift_5
Sustain_On
Time_Shift_140
Note_On_65_Vel_44
Time_Shift_148
Note_On_69_Vel_54
Time_Shift_121
Note_On_62_Vel_53
Time_Shift_113
Note_On_65_Vel_0
Time_Shift_5
Note_On_65_Vel_57
Time_Shift_118
Note_On_60_Vel_0
Time_Shift_4
Note_On_60_Vel_59
Time_Shift_119
Note_On_65_Vel_0
Time_Shift_5
Note_On_65_Vel_57
Time_Shift_118
Note_On_69_Vel_0
Time_Shift_4
Note_On_69_Vel_61
Time_Shift_125
Note_On_72_Vel_65
Time_Shift_27
Note_On_62_Vel_0
Time_Shift_36
Sustain_Off
Time_Shift_57
Note_On_67_Vel_50
Time_Shift_27
Sustain_On
Time_Shift_8
Sustain_Off
Time_Shift_46
Note_On_69_Vel_0
Time_Shift_11
Note_On_69_Vel_61
Time_Shift_28
Sustain_On
Time_Shift_84
Note_On_65_Vel_0
Time_Shift_5
Note_On_65_Vel_51
Time_Shift_110
Note_On_69_Vel_0
Time_Shift_9
Note_On_69_Vel_59
Time_Shift_99
Note_On_72_Vel_0
Time_Shift_11
Note_On_72_Vel_63
Time_Shift_122
Note_On_77_Vel_60
Time_Shift_101
Note_On_70_Vel_51
Time_Shift_81
Note_On_72_Vel_0
Time_Shift_7
Note_On_72_Vel_62
Time_Shift_100
Note_On_69_Vel_0
Time_Shift_5
Note_On_69_Vel_55
Time_Shift_87
Note_On_72_Vel_0
Time_Shift_11
Note_On_72_Vel_58
Time_Shift_89
Note_On_77_Vel_0
Time_Shift_5
Note_On_77_Vel_54
Time_Shift_95
Note_On_81_Vel_56
Time_Shift_85
Note_On_41_Vel_0
Note_On_48_Vel_0
Note_On_57_Vel_0
Time_Shift_16
Note_On_74_Vel_50
Time_Shift_68
Note_On_77_Vel_0
Time_Shift_11
Note_On_77_Vel_56
Time_Shift_81
Note_On_72_Vel_0
Time_Shift_12
Note_On_72_Vel_55
Time_Shift_80
Note_On_77_Vel_0
Time_Shift_6
Note_On_77_Vel_58
Time_Shift_79
Note_On_81_Vel_0
Time_Shift_10
Note_On_81_Vel_56
Time_Shift_88
Note_On_84_Vel_54
Time_Shift_77
Note_On_79_Vel_57
Time_Shift_63
Note_On_81_Vel_0
Time_Shift_4
Note_On_81_Vel_53
Time_Shift_80
Note_On_77_Vel_0
Time_Shift_10
Note_On_77_Vel_55
Time_Shift_75
Note_On_81_Vel_0
Time_Shift_5
Note_On_81_Vel_63
Time_Shift_64
Note_On_84_Vel_0
Time_Shift_11
Note_On_84_Vel_60
Time_Shift_80
Note_On_89_Vel_68
Time_Shift_67
Note_On_82_Vel_62
Time_Shift_49
Note_On_84_Vel_0
Time_Shift_11
Note_On_84_Vel_60
Time_Shift_66
Note_On_81_Vel_0
Time_Shift_8
Note_On_81_Vel_61
Time_Shift_61
Note_On_84_Vel_0
Time_Shift_11
Note_On_84_Vel_57
Time_Shift_58
Note_On_89_Vel_0
Time_Shift_11
Note_On_89_Vel_66
Time_Shift_1
Sustain_Off
Time_Shift_27
Note_On_67_Vel_0
Time_Shift_23
Note_On_60_Vel_0
Time_Shift_7
Sustain_On
Time_Shift_9
Note_On_93_Vel_73
Time_Shift_15
Note_On_82_Vel_0
Time_Shift_30
Note_On_79_Vel_0
Time_Shift_23
Note_On_77_Vel_0
Time_Shift_1
Note_On_86_Vel_61
Time_Shift_45
Note_On_70_Vel_0
Time_Shift_23
Note_On_89_Vel_0
Time_Shift_10
Note_On_89_Vel_70
Time_Shift_13
Note_On_65_Vel_0
Time_Shift_31
Note_On_69_Vel_0
Time_Shift_8
Note_On_84_Vel_0
Time_Shift_6
Note_On_84_Vel_60
Time_Shift_78
Note_On_89_Vel_0
Time_Shift_5
Note_On_89_Vel_70
Time_Shift_57
Note_On_93_Vel_0
Time_Shift_10
Note_On_93_Vel_71
Time_Shift_69
Note_On_96_Vel_69
Time_Shift_56
Note_On_91_Vel_55
Time_Shift_57
Note_On_93_Vel_0
Time_Shift_10
Note_On_93_Vel_70
Time_Shift_51
Note_On_89_Vel_0
Time_Shift_9
Note_On_89_Vel_71
Time_Shift_76
Note_On_93_Vel_0
Time_Shift_11
Note_On_93_Vel_76
Time_Shift_50
Note_On_81_Vel_0
Time_Shift_8
Note_On_96_Vel_0
Time_Shift_10
Note_On_96_Vel_70
Time_Shift_81
Note_On_101_Vel_80
Time_Shift_78
Note_On_91_Vel_0
Time_Shift_11
Note_On_91_Vel_59
Time_Shift_66
Note_On_93_Vel_0
Time_Shift_6
Note_On_93_Vel_70
Time_Shift_63
Note_On_89_Vel_0
Time_Shift_9
Note_On_89_Vel_70
Time_Shift_75
Note_On_93_Vel_0
Time_Shift_11
Note_On_93_Vel_70
Time_Shift_66
Note_On_96_Vel_0
Time_Shift_6
Note_On_96_Vel_63
Time_Shift_78
Note_On_101_Vel_0
Time_Shift_5
Note_On_101_Vel_70
Time_Shift_65
Note_On_91_Vel_0
Time_Shift_4
Note_On_91_Vel_48
Time_Shift_57
Note_On_93_Vel_0
Time_Shift_11
Note_On_93_Vel_63
Time_Shift_73
Note_On_89_Vel_0
Time_Shift_6
Note_On_89_Vel_61
Time_Shift_71
Note_On_93_Vel_0
Time_Shift_10
Note_On_93_Vel_62
Time_Shift_59
Note_On_96_Vel_0
Time_Shift_4
Note_On_96_Vel_60
Time_Shift_81
Note_On_101_Vel_0
Time_Shift_4
Note_On_101_Vel_68
Time_Shift_73
Note_On_91_Vel_0
Time_Shift_9
Note_On_91_Vel_47
Time_Shift_83
Note_On_93_Vel_0
Time_Shift_5
Note_On_93_Vel_58
Time_Shift_64
Note_On_89_Vel_0
Time_Shift_7
Note_On_89_Vel_58
Time_Shift_77
Note_On_93_Vel_0
Time_Shift_7
Note_On_93_Vel_58
Time_Shift_78
Note_On_96_Vel_0
Time_Shift_9
Note_On_96_Vel_58
Time_Shift_83
Note_On_101_Vel_0
Time_Shift_10
Note_On_101_Vel_65
Time_Shift_67
Note_On_91_Vel_0
Time_Shift_11
Note_On_91_Vel_43
Time_Shift_73
Note_On_93_Vel_0
Time_Shift_10
Note_On_93_Vel_54
Time_Shift_75
Note_On_89_Vel_0
Time_Shift_4
Note_On_89_Vel_52
Time_Shift_4
Note_On_72_Vel_0
Note_On_74_Vel_0
Note_On_84_Vel_0
Note_On_86_Vel_0
Time_Shift_76
Note_On_93_Vel_0
Time_Shift_11
Note_On_93_Vel_56
Time_Shift_74
Note_On_96_Vel_0
Time_Shift_11
Note_On_96_Vel_57
Time_Shift_81
Note_On_101_Vel_0
Time_Shift_7
Note_On_101_Vel_61
Time_Shift_85
Note_On_91_Vel_0
Time_Shift_4
Note_On_91_Vel_40
Time_Shift_88
Note_On_93_Vel_0
Time_Shift_6
Note_On_93_Vel_51
Time_Shift_79
Note_On_89_Vel_0
Time_Shift_8
Note_On_89_Vel_52
Time_Shift_99
Note_On_93_Vel_0
Time_Shift_11
Note_On_93_Vel_51
Time_Shift_89
Note_On_96_Vel_0
Time_Shift_11
Note_On_96_Vel_55
Time_Shift_104
Note_On_101_Vel_0
Time_Shift_8
Note_On_101_Vel_61
Time_Shift_92
Note_On_91_Vel_0
Time_Shift_9
Note_On_91_Vel_41
Time_Shift_106
Note_On_93_Vel_0
Time_Shift_11
Note_On_93_Vel_46
Time_Shift_97
Note_On_89_Vel_0
Time_Shift_8
Note_On_89_Vel_49
Time_Shift_107
Note_On_93_Vel_0
Time_Shift_10
Note_On_93_Vel_42
Time_Shift_121
Note_On_96_Vel_0
Time_Shift_4
Note_On_96_Vel_44
Time_Shift_119
Note_On_101_Vel_0
Time_Shift_10
Note_On_101_Vel_54
Time_Shift_105
Note_On_91_Vel_0
Time_Shift_9
Note_On_91_Vel_39
Time_Shift_144
Note_On_93_Vel_0
Time_Shift_11
Note_On_93_Vel_36
Time_Shift_181
Note_On_89_Vel_0
Time_Shift_5
Note_On_89_Vel_46
Time_Shift_1738
Sustain_Off
Time_Shift_27
Note_On_96_Vel_0
Time_Shift_3
Note_On_93_Vel_0
Time_Shift_1
Note_On_91_Vel_0
Time_Shift_16
Note_On_101_Vel_0
Time_Shift_15
Note_On_89_Vel_0
Time_Shift_776
Note_On_73_Vel_46
Time_Shift_8
Note_On_67_Vel_36
Time_Shift_7
Note_On_65_Vel_29
Time_Shift_1
Note_On_61_Vel_25
Time_Shift_2
Note_On_34_Vel_27
Note_On_46_Vel_32
Time_Shift_258
Sustain_On
Time_Shift_1172
Note_On_58_Vel_34
Time_Shift_10
Note_On_72_Vel_45
Time_Shift_1
Note_On_67_Vel_0
Time_Shift_3
Note_On_64_Vel_36
Time_Shift_1
Note_On_36_Vel_30
Time_Shift_2
Note_On_48_Vel_25
Note_On_67_Vel_29
Time_Shift_48
Sustain_Off
Time_Shift_16
Note_On_73_Vel_0
Time_Shift_3
Note_On_46_Vel_0
Time_Shift_1
Note_On_61_Vel_0
Note_On_65_Vel_0
Time_Shift_49
Note_On_34_Vel_0
Time_Shift_276
Sustain_On
Time_Shift_1245
Note_On_48_Vel_0
Note_On_67_Vel_0
Time_Shift_70
Note_On_41_Vel_27
Time_Shift_122
Note_On_48_Vel_35
Time_Shift_72
Note_On_36_Vel_0
Time_Shift_20
Note_On_58_Vel_0
Note_On_64_Vel_0
Time_Shift_23
Note_On_72_Vel_0
Time_Shift_13
Note_On_53_Vel_29
Time_Shift_75
Note_On_57_Vel_41
Time_Shift_4
Sustain_Off
Time_Shift_105
Note_On_60_Vel_41
Time_Shift_138
Note_On_65_Vel_24
Time_Shift_194
Note_On_69_Vel_41
Time_Shift_108
Sustain_On
Time_Shift_2250
Note_On_41_Vel_0
Time_Shift_11
Note_On_41_Vel_36
Time_Shift_47
Sustain_Off
Time_Shift_19
Note_On_48_Vel_0
Time_Shift_5
Note_On_48_Vel_49
Time_Shift_26
Sustain_On
Time_Shift_46
Note_On_53_Vel_0
Time_Shift_8
Note_On_53_Vel_46
Time_Shift_30
Note_On_57_Vel_0
Time_Shift_11
Note_On_57_Vel_54
Time_Shift_59
Note_On_60_Vel_0
Time_Shift_8
Note_On_60_Vel_56
Time_Shift_53
Note_On_65_Vel_0
Time_Shift_10
Note_On_65_Vel_53
Time_Shift_82
Note_On_69_Vel_0
Time_Shift_11
Note_On_69_Vel_71
Time_Shift_1326
Note_On_72_Vel_18
Time_Shift_7
Note_On_72_Vel_0
Time_Shift_31
Note_On_41_Vel_0
Time_Shift_5
Note_On_41_Vel_28
Time_Shift_72
Note_On_48_Vel_0
Time_Shift_6
Note_On_48_Vel_33
Time_Shift_86
Note_On_53_Vel_0
Time_Shift_11
Note_On_53_Vel_27
Time_Shift_50
Note_On_57_Vel_0
Time_Shift_10
Note_On_57_Vel_43
Time_Shift_90
Note_On_60_Vel_0
Time_Shift_7
Note_On_60_Vel_38
Time_Shift_70
Note_On_65_Vel_0
Time_Shift_10
Note_On_65_Vel_34
Time_Shift_105
Note_On_69_Vel_0
Time_Shift_6
Note_On_69_Vel_40
Time_Shift_547
Note_On_48_Vel_0
Time_Shift_4
Note_On_48_Vel_12
Time_Shift_1302
Note_On_41_Vel_0
Time_Shift_4
Note_On_41_Vel_23
Time_Shift_234
Note_On_48_Vel_0
Time_Shift_11
Note_On_48_Vel_27
Time_Shift_66
Note_On_53_Vel_0
Note_On_57_Vel_0
Note_On_60_Vel_0
Note_On_65_Vel_0
Note_On_69_Vel_0
Time_Shift_166
Note_On_53_Vel_25
Time_Shift_233
Note_On_57_Vel_35
Time_Shift_265
Note_On_60_Vel_31
Time_Shift_362
Note_On_65_Vel_18
Time_Shift_696
Note_On_69_Vel_38
Time_Shift_2118
Note_On_41_Vel_0
Note_On_48_Vel_0
Note_On_53_Vel_0
Note_On_57_Vel_0
Note_On_60_Vel_0
Note_On_65_Vel_0
Note_On_69_Vel_0
Time_Shift_2244
Sustain_Off
