Ticks_Per_Beat_384
Tempo_500000
Time_Shift_7
Sustain_On
Time_Shift_2702
Note_On_75_Vel_50
Time_Shift_1208
Note_On_74_Vel_34
Time_Shift_365
Note_On_77_Vel_36
Time_Shift_256
Note_On_75_Vel_0
Time_Shift_7
Note_On_75_Vel_40
Time_Shift_231
Note_On_74_Vel_0
Time_Shift_6
Note_On_74_Vel_38
Time_Shift_240
Note_On_77_Vel_0
Time_Shift_5
Note_On_77_Vel_30
Time_Shift_149
Note_On_75_Vel_0
Time_Shift_11
Note_On_75_Vel_43
Time_Shift_119
Note_On_74_Vel_0
Time_Shift_11
Note_On_74_Vel_44
Time_Shift_151
Note_On_77_Vel_0
Time_Shift_8
Note_On_77_Vel_44
Time_Shift_115
Note_On_75_Vel_0
Time_Shift_5
Note_On_75_Vel_52
Time_Shift_125
Note_On_74_Vel_0
Time_Shift_7
Note_On_74_Vel_56
Time_Shift_139
Note_On_77_Vel_0
Time_Shift_11
Note_On_77_Vel_53
Time_Shift_135
Note_On_75_Vel_0
Time_Shift_5
Note_On_75_Vel_61
Time_Shift_126
Note_On_74_Vel_0
Time_Shift_9
Note_On_74_Vel_60
Time_Shift_144
Note_On_77_Vel_0
Time_Shift_9
Note_On_77_Vel_52
Time_Shift_129
Note_On_75_Vel_0
Time_Shift_12
Note_On_74_Vel_0
Note_On_75_Vel_60
Time_Shift_134
Sustain_Off
Time_Shift_52
Note_On_74_Vel_61
Time_Shift_70
Note_On_75_Vel_0
Time_Shift_17
Note_On_77_Vel_0
Time_Shift_117
Note_On_77_Vel_50
Time_Shift_179
Note_On_75_Vel_57
Time_Shift_124
Note_On_74_Vel_0
Time_Shift_10
Note_On_77_Vel_0
Time_Shift_49
Note_On_73_Vel_51
Time_Shift_57
Note_On_75_Vel_0
Time_Shift_170
Sustain_On
Time_Shift_2
Note_On_77_Vel_47
Time_Shift_233
Note_On_75_Vel_49
Time_Shift_141
Note_On_77_Vel_0
Time_Shift_123
Note_On_73_Vel_0
Time_Shift_31
Sustain_Off
Time_Shift_33
Note_On_72_Vel_51
Time_Shift_32
Note_On_60_Vel_25
Time_Shift_11
Note_On_63_Vel_32
Note_On_56_Vel_24
Time_Shift_224
Sustain_On
Time_Shift_263
Note_On_68_Vel_47
Time_Shift_28
Note_On_56_Vel_0
Note_On_60_Vel_0
Note_On_63_Vel_0
Time_Shift_6
Note_On_63_Vel_33
Time_Shift_6
Note_On_60_Vel_21
Note_On_56_Vel_27
Time_Shift_4
Note_On_75_Vel_0
Time_Shift_46
Sustain_Off
Time_Shift_84
Sustain_On
Time_Shift_8
Note_On_72_Vel_0
Time_Shift_6
Note_On_72_Vel_61
Time_Shift_171
Note_On_60_Vel_0
Sustain_Off
Time_Shift_6
Note_On_60_Vel_35
Time_Shift_3
Note_On_77_Vel_62
Time_Shift_6
Note_On_56_Vel_0
Time_Shift_3
Note_On_65_Vel_42
Time_Shift_1
Note_On_56_Vel_43
Time_Shift_20
Note_On_63_Vel_0
Time_Shift_11
Note_On_72_Vel_0
Time_Shift_57
Sustain_On
Time_Shift_58
Note_On_75_Vel_71
Time_Shift_157
Sustain_Off
Time_Shift_4
Note_On_73_Vel_73
Time_Shift_4
Note_On_65_Vel_0
Note_On_68_Vel_0
Time_Shift_4
Note_On_65_Vel_47
Time_Shift_6
Note_On_68_Vel_52
Time_Shift_2
Note_On_58_Vel_48
Time_Shift_46
Note_On_77_Vel_0
Time_Shift_1
Note_On_60_Vel_0
Note_On_65_Vel_0
Time_Shift_1
Note_On_75_Vel_0
Time_Shift_17
Note_On_56_Vel_0
Time_Shift_46
Sustain_On
Time_Shift_13
Note_On_70_Vel_69
Time_Shift_2
Note_On_68_Vel_0
Time_Shift_146
Note_On_73_Vel_0
Time_Shift_5
Note_On_73_Vel_77
Time_Shift_10
Note_On_58_Vel_0
Time_Shift_1
Sustain_Off
Time_Shift_8
Note_On_58_Vel_47
Time_Shift_2
Note_On_68_Vel_54
Time_Shift_1
Note_On_65_Vel_47
Time_Shift_81
Note_On_70_Vel_0
Time_Shift_15
Sustain_On
Time_Shift_284
Note_On_58_Vel_0
Time_Shift_3
Sustain_Off
Time_Shift_2
Note_On_75_Vel_67
Time_Shift_5
Note_On_58_Vel_37
Time_Shift_3
Note_On_65_Vel_0
Note_On_68_Vel_0
Time_Shift_2
Note_On_73_Vel_0
Time_Shift_6
Note_On_67_Vel_43
Time_Shift_14
Note_On_51_Vel_28
Time_Shift_126
Sustain_On
Time_Shift_371
Note_On_72_Vel_63
Time_Shift_16
Note_On_66_Vel_48
Time_Shift_2
Note_On_63_Vel_39
Time_Shift_7
Note_On_56_Vel_40
Time_Shift_21
Sustain_Off
Time_Shift_67
Note_On_67_Vel_0
Time_Shift_23
Note_On_58_Vel_0
Time_Shift_31
Note_On_51_Vel_0
Time_Shift_23
Sustain_On
Time_Shift_46
Note_On_75_Vel_0
Time_Shift_184
Note_On_56_Vel_0
Note_On_63_Vel_0
Note_On_66_Vel_0
Time_Shift_4
Note_On_63_Vel_43
Time_Shift_1
Note_On_68_Vel_68
Time_Shift_3
Note_On_66_Vel_62
Time_Shift_2
Note_On_56_Vel_50
Time_Shift_152
Note_On_72_Vel_0
Time_Shift_5
Note_On_72_Vel_82
Time_Shift_158
Sustain_Off
Time_Shift_13
Note_On_56_Vel_0
Time_Shift_1
Note_On_66_Vel_0
Note_On_63_Vel_0
Time_Shift_1
Note_On_68_Vel_0
Time_Shift_8
Note_On_56_Vel_38
Note_On_72_Vel_0
Time_Shift_3
Note_On_73_Vel_69
Time_Shift_7
Note_On_49_Vel_30
Time_Shift_9
Note_On_65_Vel_47
Time_Shift_63
Sustain_On
Time_Shift_89
Note_On_72_Vel_72
Time_Shift_160
Note_On_71_Vel_67
Time_Shift_5
Note_On_65_Vel_0
Time_Shift_4
Sustain_Off
Time_Shift_2
Note_On_65_Vel_40
Time_Shift_6
Note_On_49_Vel_0
Note_On_56_Vel_0
Time_Shift_1
Note_On_73_Vel_0
Note_On_72_Vel_0
Time_Shift_4
Note_On_55_Vel_43
Time_Shift_6
Note_On_62_Vel_41
Time_Shift_84
Sustain_On
Time_Shift_43
Note_On_67_Vel_64
Time_Shift_172
Note_On_71_Vel_0
Time_Shift_4
Sustain_Off
Time_Shift_5
Note_On_71_Vel_59
Time_Shift_14
Note_On_55_Vel_0
Note_On_62_Vel_0
Note_On_65_Vel_0
Time_Shift_8
Note_On_67_Vel_0
Time_Shift_3
Note_On_65_Vel_36
Note_On_55_Vel_40
Time_Shift_1
Note_On_62_Vel_34
Time_Shift_4
Note_On_67_Vel_41
Time_Shift_77
Sustain_On
Time_Shift_330
Note_On_55_Vel_0
Time_Shift_5
Note_On_48_Vel_28
Time_Shift_2
Note_On_72_Vel_49
Time_Shift_1
Note_On_67_Vel_0
Time_Shift_1
Note_On_55_Vel_24
Time_Shift_1
Note_On_63_Vel_38
Time_Shift_3
Note_On_60_Vel_27
Time_Shift_1
Note_On_67_Vel_27
Time_Shift_3
Sustain_Off
Time_Shift_7
Note_On_65_Vel_0
Note_On_62_Vel_0
Time_Shift_22
Note_On_71_Vel_0
Time_Shift_131
Sustain_On
Time_Shift_445
Note_On_60_Vel_0
Note_On_63_Vel_0
Time_Shift_4
Note_On_63_Vel_34
Time_Shift_3
Note_On_69_Vel_44
Time_Shift_2
Note_On_53_Vel_27
Time_Shift_2
Note_On_60_Vel_28
Time_Shift_39
Note_On_48_Vel_0
Time_Shift_5
Note_On_55_Vel_0
Time_Shift_6
Note_On_67_Vel_0
Time_Shift_2
Sustain_Off
Time_Shift_68
Sustain_On
Time_Shift_299
Note_On_60_Vel_0
Note_On_63_Vel_0
Time_Shift_4
Note_On_65_Vel_43
Time_Shift_4
Note_On_53_Vel_0
Time_Shift_2
Note_On_60_Vel_37
Time_Shift_1
Note_On_63_Vel_42
Time_Shift_1
Note_On_69_Vel_0
Note_On_53_Vel_34
Time_Shift_65
Note_On_72_Vel_0
Time_Shift_86
Note_On_69_Vel_59
Time_Shift_181
Sustain_Off
Time_Shift_2
Note_On_53_Vel_0
Note_On_65_Vel_0
Time_Shift_2
Note_On_69_Vel_0
Time_Shift_1
Note_On_70_Vel_58
Time_Shift_1
Note_On_61_Vel_44
Time_Shift_4
Note_On_53_Vel_30
Time_Shift_3
Note_On_46_Vel_34
Time_Shift_4
Note_On_63_Vel_0
Time_Shift_8
Note_On_60_Vel_0
Time_Shift_84
Sustain_On
Time_Shift_66
Note_On_68_Vel_63
Time_Shift_156
Note_On_70_Vel_0
Time_Shift_9
Note_On_53_Vel_0
Sustain_Off
Time_Shift_16
Note_On_68_Vel_0
Time_Shift_7
Note_On_61_Vel_0
Time_Shift_4
Note_On_67_Vel_63
Time_Shift_7
Note_On_61_Vel_43
Time_Shift_7
Note_On_58_Vel_38
Note_On_51_Vel_38
Time_Shift_35
Sustain_On
Time_Shift_143
Note_On_63_Vel_62
Time_Shift_306
Sustain_Off
Time_Shift_4
Note_On_68_Vel_59
Note_On_63_Vel_0
Note_On_58_Vel_0
Time_Shift_1
Note_On_61_Vel_0
Note_On_67_Vel_0
Time_Shift_3
Note_On_60_Vel_41
Time_Shift_4
Note_On_46_Vel_0
Note_On_51_Vel_0
Time_Shift_10
Note_On_44_Vel_34
Time_Shift_1
Note_On_51_Vel_29
Time_Shift_197
Sustain_On
Time_Shift_446
Note_On_72_Vel_62
Time_Shift_30
Note_On_60_Vel_0
Time_Shift_151
Note_On_73_Vel_76
Time_Shift_151
Note_On_39_Vel_52
Time_Shift_8
Note_On_72_Vel_0
Time_Shift_1
Note_On_68_Vel_0
Note_On_44_Vel_0
Time_Shift_7
Sustain_Off
Time_Shift_90
Note_On_77_Vel_74
Time_Shift_83
Sustain_On
Time_Shift_116
Note_On_75_Vel_76
Time_Shift_222
Note_On_73_Vel_0
Time_Shift_9
Note_On_73_Vel_69
Time_Shift_7
Note_On_77_Vel_0
Time_Shift_2
Note_On_75_Vel_0
Note_On_61_Vel_44
Time_Shift_2
Sustain_Off
Time_Shift_3
Note_On_51_Vel_0
Time_Shift_3
Note_On_55_Vel_37
Time_Shift_5
Note_On_39_Vel_0
Time_Shift_2
Note_On_51_Vel_31
Time_Shift_13
Sustain_On
Time_Shift_154
Note_On_75_Vel_64
Time_Shift_77
Note_On_73_Vel_0
Time_Shift_6
Note_On_73_Vel_62
Time_Shift_47
Note_On_75_Vel_0
Time_Shift_5
Note_On_75_Vel_67
Time_Shift_49
Note_On_73_Vel_0
Time_Shift_7
Note_On_73_Vel_68
Time_Shift_75
Sustain_Off
Time_Shift_3
Note_On_72_Vel_74
Time_Shift_7
Note_On_61_Vel_0
Time_Shift_8
Note_On_51_Vel_0
Note_On_55_Vel_0
Time_Shift_3
Note_On_61_Vel_36
Time_Shift_1
Note_On_55_Vel_33
Time_Shift_4
Note_On_51_Vel_34
Time_Shift_76
Sustain_On
Time_Shift_65
Note_On_70_Vel_74
Time_Shift_170
Sustain_Off
Time_Shift_1
Note_On_72_Vel_0
Time_Shift_1
Note_On_55_Vel_0
Time_Shift_2
Note_On_51_Vel_0
Note_On_75_Vel_0
Time_Shift_2
Note_On_61_Vel_0
Time_Shift_1
Note_On_69_Vel_70
Note_On_70_Vel_0
Time_Shift_1
Note_On_60_Vel_50
Time_Shift_3
Note_On_73_Vel_0
Time_Shift_1
Note_On_51_Vel_36
Time_Shift_2
Note_On_54_Vel_39
Time_Shift_82
Sustain_On
Time_Shift_439
Note_On_70_Vel_65
Time_Shift_24
Sustain_Off
Time_Shift_4
Note_On_61_Vel_36
Time_Shift_5
Note_On_55_Vel_30
Time_Shift_4
Note_On_51_Vel_0
Time_Shift_6
Note_On_51_Vel_26
Note_On_54_Vel_0
Time_Shift_2
Note_On_60_Vel_0
Time_Shift_2
Note_On_69_Vel_0
Time_Shift_174
Sustain_On
Time_Shift_438
Note_On_51_Vel_0
Note_On_55_Vel_0
Note_On_61_Vel_0
Time_Shift_4
Note_On_55_Vel_33
Note_On_61_Vel_30
Time_Shift_1
Note_On_51_Vel_32
Time_Shift_233
Note_On_71_Vel_53
Time_Shift_308
Note_On_71_Vel_0
Time_Shift_1
Note_On_61_Vel_0
Time_Shift_1
Note_On_70_Vel_0
Note_On_55_Vel_0
Time_Shift_1
Note_On_51_Vel_0
Time_Shift_5
Sustain_Off
Time_Shift_5
Note_On_72_Vel_51
Time_Shift_3
Note_On_44_Vel_32
Time_Shift_137
Sustain_On
Time_Shift_46
Note_On_44_Vel_0
Time_Shift_288
Sustain_Off
Time_Shift_17
Note_On_60_Vel_24
Time_Shift_7
Note_On_68_Vel_43
Time_Shift_4
Note_On_63_Vel_31
Time_Shift_1
Note_On_56_Vel_33
Time_Shift_5
Sustain_On
Time_Shift_146
Note_On_72_Vel_0
Time_Shift_10
Note_On_72_Vel_52
Time_Shift_133
Sustain_Off
Time_Shift_1
Note_On_72_Vel_0
Note_On_63_Vel_0
Time_Shift_1
Note_On_68_Vel_0
Time_Shift_1
Note_On_56_Vel_0
Time_Shift_1
Note_On_60_Vel_0
Time_Shift_15
Note_On_79_Vel_59
Time_Shift_50
Note_On_60_Vel_29
Time_Shift_3
Note_On_56_Vel_36
Time_Shift_3
Note_On_77_Vel_55
Time_Shift_1
Note_On_65_Vel_34
Time_Shift_35
Note_On_79_Vel_0
Time_Shift_9
Note_On_77_Vel_0
Time_Shift_1
Note_On_56_Vel_0
Time_Shift_119
Note_On_75_Vel_63
Time_Shift_17
Note_On_65_Vel_0
Time_Shift_5
Note_On_56_Vel_32
Time_Shift_2
Note_On_65_Vel_23
Time_Shift_35
Note_On_75_Vel_0
Time_Shift_13
Note_On_65_Vel_0
Time_Shift_29
Note_On_60_Vel_0
Time_Shift_46
Note_On_56_Vel_0
Time_Shift_24
Note_On_73_Vel_55
Time_Shift_1
Note_On_58_Vel_41
Note_On_68_Vel_49
Time_Shift_3
Note_On_65_Vel_35
Time_Shift_49
Note_On_73_Vel_0
Time_Shift_7
Note_On_68_Vel_0
Time_Shift_4
Note_On_65_Vel_0
Time_Shift_31
Note_On_58_Vel_0
Time_Shift_37
Note_On_70_Vel_59
Time_Shift_147
Note_On_73_Vel_63
Time_Shift_15
Note_On_68_Vel_41
Time_Shift_1
Note_On_58_Vel_39
Time_Shift_1
Note_On_65_Vel_31
Time_Shift_26
Note_On_70_Vel_0
Time_Shift_10
Note_On_73_Vel_0
Note_On_68_Vel_0
Time_Shift_28
Note_On_65_Vel_0
Time_Shift_39
Note_On_58_Vel_0
Time_Shift_12
Note_On_77_Vel_59
Time_Shift_3
Note_On_68_Vel_38
Time_Shift_92
Note_On_68_Vel_0
Time_Shift_41
Note_On_75_Vel_64
Time_Shift_10
Note_On_58_Vel_37
Time_Shift_3
Note_On_77_Vel_0
Time_Shift_4
Note_On_51_Vel_29
Time_Shift_1
Note_On_67_Vel_35
Time_Shift_38
Note_On_67_Vel_0
Note_On_75_Vel_0
Time_Shift_7
Note_On_51_Vel_0
Time_Shift_2
Note_On_58_Vel_0
Time_Shift_75
Note_On_70_Vel_59
Time_Shift_54
Note_On_70_Vel_0
Time_Shift_92
Note_On_72_Vel_61
Time_Shift_7
Note_On_63_Vel_38
Time_Shift_1
Note_On_66_Vel_50
Note_On_56_Vel_45
Time_Shift_25
Note_On_72_Vel_0
Time_Shift_10
Note_On_56_Vel_0
Time_Shift_14
Note_On_63_Vel_0
Note_On_66_Vel_0
Time_Shift_58
Note_On_68_Vel_69
Time_Shift_61
Note_On_68_Vel_0
Time_Shift_77
Note_On_72_Vel_71
Time_Shift_7
Note_On_56_Vel_50
Time_Shift_1
Note_On_66_Vel_56
Time_Shift_1
Note_On_63_Vel_44
Time_Shift_30
Note_On_72_Vel_0
Time_Shift_1
Note_On_66_Vel_0
Time_Shift_18
Note_On_63_Vel_0
Time_Shift_23
Note_On_56_Vel_0
Time_Shift_42
Note_On_75_Vel_73
Time_Shift_67
Note_On_75_Vel_0
Time_Shift_65
Note_On_73_Vel_68
Time_Shift_3
Note_On_56_Vel_33
Time_Shift_1
Note_On_49_Vel_34
Time_Shift_6
Note_On_65_Vel_49
Time_Shift_32
Note_On_56_Vel_0
Time_Shift_2
Note_On_73_Vel_0
Time_Shift_1
Note_On_49_Vel_0
Time_Shift_1
Note_On_65_Vel_0
Time_Shift_84
Note_On_72_Vel_65
Time_Shift_36
Note_On_72_Vel_0
Time_Shift_101
Note_On_71_Vel_67
Note_On_55_Vel_48
Time_Shift_5
Note_On_62_Vel_45
Time_Shift_1
Note_On_65_Vel_44
Time_Shift_35
Note_On_65_Vel_0
Time_Shift_3
Note_On_55_Vel_0
Time_Shift_1
Note_On_71_Vel_0
Time_Shift_8
Note_On_62_Vel_0
Time_Shift_69
Note_On_67_Vel_66
Time_Shift_55
Note_On_67_Vel_0
Time_Shift_80
Note_On_55_Vel_46
Time_Shift_1
Note_On_71_Vel_65
Time_Shift_3
Note_On_65_Vel_54
Note_On_62_Vel_48
Time_Shift_38
Note_On_62_Vel_0
Time_Shift_3
Note_On_65_Vel_0
Time_Shift_2
Note_On_71_Vel_0
Time_Shift_2
Note_On_55_Vel_0
Time_Shift_79
Note_On_74_Vel_70
Time_Shift_61
Note_On_74_Vel_0
Time_Shift_86
Note_On_72_Vel_64
Note_On_63_Vel_54
Time_Shift_5
Note_On_48_Vel_37
Note_On_55_Vel_38
Time_Shift_33
Note_On_72_Vel_0
Time_Shift_6
Note_On_63_Vel_0
Time_Shift_14
Note_On_48_Vel_0
Time_Shift_29
Note_On_55_Vel_0
Time_Shift_60
Note_On_67_Vel_62
Time_Shift_51
Note_On_67_Vel_0
Time_Shift_110
Note_On_69_Vel_60
Time_Shift_4
Note_On_63_Vel_49
Time_Shift_1
Note_On_60_Vel_41
Time_Shift_1
Note_On_53_Vel_32
Time_Shift_50
Note_On_63_Vel_0
Time_Shift_3
Note_On_69_Vel_0
Time_Shift_1
Note_On_60_Vel_0
Time_Shift_18
Note_On_53_Vel_0
Time_Shift_44
Note_On_65_Vel_54
Time_Shift_78
Note_On_65_Vel_0
Time_Shift_70
Note_On_69_Vel_60
Time_Shift_2
Note_On_53_Vel_43
Note_On_63_Vel_51
Time_Shift_1
Note_On_60_Vel_40
Time_Shift_46
Note_On_63_Vel_0
Time_Shift_1
Note_On_60_Vel_0
Time_Shift_7
Note_On_53_Vel_0
Time_Shift_8
Note_On_69_Vel_0
Time_Shift_61
Note_On_72_Vel_58
Time_Shift_49
Note_On_72_Vel_0
Time_Shift_120
Note_On_46_Vel_34
Time_Shift_1
Note_On_61_Vel_45
Note_On_70_Vel_50
Note_On_53_Vel_29
Time_Shift_107
Note_On_70_Vel_0
Time_Shift_46
Note_On_68_Vel_60
Time_Shift_73
Note_On_53_Vel_0
Time_Shift_3
Note_On_68_Vel_0
Time_Shift_20
Note_On_61_Vel_0
Time_Shift_98
Note_On_67_Vel_62
Time_Shift_6
Note_On_58_Vel_37
Time_Shift_1
Note_On_61_Vel_41
Time_Shift_4
Note_On_51_Vel_37
Time_Shift_68
Sustain_On
Time_Shift_94
Note_On_63_Vel_63
Time_Shift_98
Note_On_46_Vel_0
Time_Shift_148
Sustain_Off
Time_Shift_27
Note_On_68_Vel_64
Time_Shift_2
Note_On_51_Vel_0
Time_Shift_4
Note_On_60_Vel_44
Time_Shift_7
Note_On_51_Vel_38
Time_Shift_1
Note_On_67_Vel_0
Note_On_44_Vel_36
Time_Shift_2
Note_On_61_Vel_0
Time_Shift_2
Note_On_58_Vel_0
Time_Shift_1
Note_On_63_Vel_0
Time_Shift_167
Sustain_On
Time_Shift_372
Note_On_72_Vel_72
Time_Shift_177
Note_On_73_Vel_76
Time_Shift_204
Note_On_60_Vel_0
Time_Shift_6
Note_On_68_Vel_0
Time_Shift_5
Note_On_72_Vel_0
Time_Shift_1
Note_On_70_Vel_70
Time_Shift_11
Sustain_Off
Time_Shift_7
Note_On_44_Vel_0
Time_Shift_12
Note_On_39_Vel_50
Time_Shift_73
Note_On_51_Vel_0
Sustain_On
Time_Shift_263
Note_On_72_Vel_62
Time_Shift_36
Note_On_70_Vel_0
Time_Shift_10
Note_On_70_Vel_67
Time_Shift_69
Note_On_69_Vel_72
Time_Shift_22
Note_On_55_Vel_41
Time_Shift_2
Note_On_61_Vel_46
Time_Shift_2
Note_On_51_Vel_39
Time_Shift_103
Note_On_70_Vel_0
Time_Shift_8
Note_On_70_Vel_68
Time_Shift_145
Note_On_73_Vel_0
Time_Shift_8
Note_On_61_Vel_0
Time_Shift_2
Note_On_73_Vel_80
Time_Shift_9
Note_On_61_Vel_45
Time_Shift_4
Note_On_55_Vel_0
Note_On_51_Vel_0
Time_Shift_7
Note_On_51_Vel_39
Time_Shift_132
Note_On_77_Vel_75
Time_Shift_95
Note_On_69_Vel_0
Note_On_39_Vel_0
Note_On_72_Vel_0
Time_Shift_1
Note_On_70_Vel_0
Note_On_51_Vel_0
Time_Shift_3
Note_On_73_Vel_0
Time_Shift_1
Note_On_61_Vel_0
Time_Shift_9
Sustain_Off
Time_Shift_70
Note_On_75_Vel_73
Note_On_44_Vel_52
Time_Shift_66
Sustain_On
Time_Shift_39
Note_On_77_Vel_0
Time_Shift_57
Note_On_72_Vel_69
Time_Shift_141
Note_On_72_Vel_0
Time_Shift_49
Sustain_Off
Time_Shift_23
Note_On_68_Vel_63
Time_Shift_11
Note_On_56_Vel_45
Note_On_60_Vel_45
Time_Shift_87
Sustain_On
Time_Shift_16
Note_On_75_Vel_0
Time_Shift_344
Note_On_72_Vel_73
Time_Shift_1
Note_On_56_Vel_0
Time_Shift_4
Note_On_63_Vel_58
Time_Shift_2
Note_On_56_Vel_50
Time_Shift_13
Sustain_Off
Time_Shift_112
Note_On_60_Vel_0
Time_Shift_31
Note_On_68_Vel_0
Time_Shift_15
Sustain_On
Time_Shift_192
Note_On_44_Vel_0
Time_Shift_205
Note_On_71_Vel_61
Time_Shift_6
Note_On_55_Vel_39
Time_Shift_9
Note_On_65_Vel_34
Time_Shift_9
Note_On_62_Vel_39
Time_Shift_132
Note_On_65_Vel_0
Note_On_72_Vel_0
Time_Shift_4
Note_On_72_Vel_69
Time_Shift_7
Note_On_65_Vel_32
Time_Shift_1
Note_On_60_Vel_46
Time_Shift_101
Note_On_71_Vel_0
Note_On_63_Vel_0
Time_Shift_1
Note_On_72_Vel_0
Time_Shift_1
Note_On_62_Vel_0
Note_On_65_Vel_0
Time_Shift_2
Note_On_56_Vel_0
Time_Shift_8
Sustain_Off
Time_Shift_53
Note_On_74_Vel_79
Time_Shift_10
Note_On_59_Vel_62
Time_Shift_26
Note_On_60_Vel_0
Time_Shift_24
Sustain_On
Time_Shift_276
Note_On_59_Vel_0
Time_Shift_6
Note_On_59_Vel_39
Time_Shift_17
Note_On_55_Vel_0
Time_Shift_5
Note_On_65_Vel_49
Note_On_55_Vel_49
Time_Shift_38
Note_On_75_Vel_79
Time_Shift_16
Sustain_Off
Time_Shift_6
Note_On_74_Vel_0
Time_Shift_74
Sustain_On
Time_Shift_75
Note_On_74_Vel_81
Time_Shift_133
Note_On_75_Vel_0
Time_Shift_2
Note_On_65_Vel_0
Note_On_55_Vel_0
Time_Shift_17
Sustain_Off
Time_Shift_3
Note_On_59_Vel_0
Time_Shift_3
Note_On_72_Vel_78
Time_Shift_5
Note_On_48_Vel_62
Time_Shift_15
Sustain_On
Time_Shift_4
Note_On_74_Vel_0
Time_Shift_118
Note_On_75_Vel_80
Time_Shift_155
Note_On_67_Vel_75
Time_Shift_14
Sustain_Off
Time_Shift_7
Note_On_55_Vel_46
Time_Shift_1
Note_On_63_Vel_57
Time_Shift_1
Note_On_60_Vel_46
Note_On_72_Vel_0
Time_Shift_61
Sustain_On
Time_Shift_39
Note_On_72_Vel_50
Time_Shift_69
Note_On_75_Vel_0
Time_Shift_169
Note_On_48_Vel_0
Note_On_55_Vel_0
Note_On_63_Vel_0
Time_Shift_5
Note_On_63_Vel_47
Time_Shift_2
Note_On_60_Vel_0
Time_Shift_4
Note_On_55_Vel_46
Note_On_60_Vel_52
Time_Shift_34
Sustain_Off
Time_Shift_5
Note_On_77_Vel_77
Time_Shift_57
Sustain_On
Time_Shift_118
Note_On_75_Vel_82
Time_Shift_151
Note_On_55_Vel_0
Time_Shift_10
Note_On_71_Vel_80
Time_Shift_1
Note_On_55_Vel_48
Time_Shift_2
Note_On_62_Vel_54
Time_Shift_2
Note_On_65_Vel_50
Time_Shift_31
Note_On_72_Vel_0
Time_Shift_15
Sustain_Off
Time_Shift_4
Note_On_63_Vel_0
Note_On_60_Vel_0
Note_On_75_Vel_0
Time_Shift_1
Note_On_77_Vel_0
Time_Shift_26
Note_On_67_Vel_0
Time_Shift_38
Sustain_On
Time_Shift_16
Note_On_72_Vel_83
Time_Shift_5
Note_On_60_Vel_58
Time_Shift_33
Note_On_62_Vel_0
Time_Shift_16
Note_On_71_Vel_0
Time_Shift_61
Sustain_Off
Time_Shift_23
Note_On_65_Vel_0
Time_Shift_19
Note_On_74_Vel_84
Time_Shift_12
Note_On_59_Vel_65
Time_Shift_11
Note_On_72_Vel_0
Time_Shift_20
Sustain_On
Time_Shift_207
Note_On_60_Vel_0
Time_Shift_107
Note_On_59_Vel_0
Time_Shift_4
Note_On_59_Vel_59
Time_Shift_4
Note_On_55_Vel_0
Time_Shift_5
Note_On_55_Vel_54
Time_Shift_1
Note_On_65_Vel_54
Time_Shift_4
Note_On_75_Vel_82
Time_Shift_11
Sustain_Off
Time_Shift_7
Note_On_74_Vel_0
Time_Shift_110
Sustain_On
Time_Shift_35
Note_On_74_Vel_82
Time_Shift_146
Note_On_48_Vel_73
Time_Shift_1
Note_On_72_Vel_86
Time_Shift_3
Sustain_Off
Time_Shift_25
Note_On_75_Vel_0
Time_Shift_1
Note_On_65_Vel_0
Time_Shift_4
Note_On_74_Vel_0
Time_Shift_8
Note_On_59_Vel_0
Time_Shift_8
Note_On_55_Vel_0
Time_Shift_46
Sustain_On
Time_Shift_43
Note_On_74_Vel_89
Time_Shift_137
Sustain_Off
Time_Shift_9
Note_On_60_Vel_64
Note_On_75_Vel_89
Time_Shift_1
Note_On_55_Vel_61
Time_Shift_3
Note_On_63_Vel_71
Time_Shift_60
Sustain_On
Time_Shift_62
Note_On_72_Vel_0
Time_Shift_192
Note_On_63_Vel_0
Time_Shift_9
Note_On_77_Vel_83
Note_On_63_Vel_63
Time_Shift_4
Note_On_68_Vel_69
Time_Shift_5
Note_On_59_Vel_48
Time_Shift_22
Sustain_Off
Note_On_74_Vel_0
Time_Shift_1
Note_On_55_Vel_0
Note_On_75_Vel_0
Time_Shift_1
Note_On_60_Vel_0
Time_Shift_11
Note_On_48_Vel_0
Time_Shift_100
Sustain_On
Time_Shift_70
Note_On_75_Vel_83
Time_Shift_151
Note_On_74_Vel_83
Time_Shift_2
Note_On_68_Vel_0
Time_Shift_5
Note_On_58_Vel_61
Time_Shift_3
Note_On_68_Vel_64
Time_Shift_4
Note_On_65_Vel_66
Time_Shift_70
Sustain_Off
Time_Shift_18
Note_On_59_Vel_0
Time_Shift_2
Note_On_77_Vel_0
Time_Shift_13
Note_On_63_Vel_0
Time_Shift_8
Note_On_75_Vel_0
Time_Shift_11
Note_On_63_Vel_70
Note_On_75_Vel_82
Time_Shift_73
Note_On_74_Vel_0
Time_Shift_46
Note_On_65_Vel_0
Time_Shift_36
Note_On_77_Vel_82
Time_Shift_5
Note_On_62_Vel_69
Time_Shift_6
Sustain_On
Time_Shift_23
Note_On_63_Vel_0
Time_Shift_53
Note_On_68_Vel_0
Note_On_75_Vel_0
Time_Shift_23
Note_On_58_Vel_0
Time_Shift_200
Note_On_62_Vel_0
Time_Shift_4
Note_On_68_Vel_66
Note_On_62_Vel_57
Note_On_58_Vel_55
Time_Shift_45
Note_On_79_Vel_85
Time_Shift_17
Sustain_Off
Time_Shift_4
Note_On_77_Vel_0
Time_Shift_76
Sustain_On
Time_Shift_98
Note_On_77_Vel_82
Time_Shift_140
Note_On_62_Vel_0
Time_Shift_15
Note_On_58_Vel_0
Time_Shift_6
Note_On_75_Vel_83
Time_Shift_5
Note_On_58_Vel_54
Time_Shift_1
Note_On_51_Vel_63
Time_Shift_6
Sustain_Off
Time_Shift_16
Note_On_77_Vel_0
Note_On_68_Vel_0
Note_On_79_Vel_0
Time_Shift_43
Sustain_On
Time_Shift_8
Note_On_58_Vel_0
Time_Shift_84
Note_On_79_Vel_83
Time_Shift_200
Note_On_70_Vel_86
Time_Shift_2
Note_On_63_Vel_56
Time_Shift_1
Note_On_67_Vel_55
Note_On_58_Vel_51
Time_Shift_437
Note_On_86_Vel_89
Time_Shift_52
Note_On_58_Vel_0
Note_On_67_Vel_0
Time_Shift_7
Note_On_63_Vel_0
Time_Shift_2
Note_On_67_Vel_50
Time_Shift_1
Note_On_58_Vel_42
Time_Shift_1
Note_On_63_Vel_43
Time_Shift_239
Note_On_85_Vel_84
Time_Shift_234
Note_On_84_Vel_76
Time_Shift_205
Note_On_83_Vel_74
Time_Shift_52
Note_On_85_Vel_0
Note_On_67_Vel_0
Time_Shift_1
Note_On_51_Vel_0
Note_On_70_Vel_0
Time_Shift_1
Note_On_63_Vel_0
Note_On_79_Vel_0
Note_On_58_Vel_0
Note_On_84_Vel_0
Time_Shift_3
Note_On_75_Vel_0
Time_Shift_1
Sustain_Off
Time_Shift_51
Sustain_On
Time_Shift_70
Note_On_82_Vel_72
Time_Shift_11
Note_On_74_Vel_59
Time_Shift_16
Note_On_58_Vel_39
Time_Shift_6
Note_On_68_Vel_41
Time_Shift_8
Note_On_65_Vel_40
Time_Shift_130
Note_On_81_Vel_75
Time_Shift_189
Note_On_74_Vel_0
Time_Shift_8
Note_On_86_Vel_0
Note_On_80_Vel_67
Time_Shift_1
Note_On_74_Vel_61
Time_Shift_14
Note_On_58_Vel_0
Note_On_65_Vel_0
Note_On_68_Vel_0
Time_Shift_4
Note_On_58_Vel_43
Time_Shift_1
Note_On_68_Vel_47
Time_Shift_2
Note_On_65_Vel_39
Time_Shift_165
Note_On_79_Vel_65
Time_Shift_253
Note_On_73_Vel_53
Time_Shift_2
Note_On_78_Vel_65
Time_Shift_3
Note_On_39_Vel_43
Time_Shift_8
Note_On_83_Vel_0
Time_Shift_1
Sustain_Off
Time_Shift_5
Note_On_65_Vel_0
Time_Shift_3
Note_On_68_Vel_0
Note_On_79_Vel_0
Time_Shift_1
Note_On_58_Vel_0
Note_On_82_Vel_0
Time_Shift_1
Note_On_81_Vel_0
Note_On_80_Vel_0
Time_Shift_1
Note_On_74_Vel_0
Time_Shift_34
Sustain_On
Time_Shift_219
Note_On_77_Vel_57
Time_Shift_237
Note_On_76_Vel_57
Time_Shift_23
Note_On_67_Vel_40
Time_Shift_3
Note_On_61_Vel_32
Time_Shift_1
Note_On_58_Vel_30
Time_Shift_19
Note_On_73_Vel_0
Time_Shift_1
Note_On_78_Vel_0
Time_Shift_1
Sustain_Off
Time_Shift_26
Sustain_On
Time_Shift_172
Note_On_75_Vel_55
Time_Shift_82
Note_On_77_Vel_0
Time_Shift_202
Note_On_74_Vel_44
Time_Shift_13
Note_On_61_Vel_0
Note_On_67_Vel_0
Time_Shift_7
Note_On_58_Vel_0
Time_Shift_3
Note_On_67_Vel_39
Time_Shift_1
Note_On_61_Vel_27
Time_Shift_4
Note_On_58_Vel_26
Time_Shift_19
Note_On_51_Vel_22
Time_Shift_19
Note_On_39_Vel_0
Time_Shift_8
Note_On_76_Vel_0
Time_Shift_239
Note_On_73_Vel_50
Time_Shift_387
Note_On_72_Vel_43
Time_Shift_8
Note_On_60_Vel_33
Time_Shift_7
Note_On_63_Vel_28
Time_Shift_1
Note_On_56_Vel_29
Time_Shift_6
Note_On_51_Vel_0
Time_Shift_5
Sustain_Off
Time_Shift_38
Note_On_58_Vel_0
Note_On_75_Vel_0
Time_Shift_69
Note_On_74_Vel_0
Time_Shift_31
Note_On_61_Vel_0
Time_Shift_46
Sustain_On
Time_Shift_16
Note_On_73_Vel_0
Time_Shift_107
Note_On_67_Vel_0
Time_Shift_384
Note_On_63_Vel_0
Time_Shift_8
Note_On_63_Vel_30
Note_On_56_Vel_0
Note_On_60_Vel_0
Time_Shift_4
Note_On_60_Vel_26
Time_Shift_5
Note_On_56_Vel_25
Time_Shift_71
Note_On_68_Vel_40
Time_Shift_219
Note_On_72_Vel_0
Time_Shift_8
Note_On_72_Vel_61
Time_Shift_249
Note_On_77_Vel_55
Time_Shift_1
Sustain_Off
Time_Shift_3
Note_On_60_Vel_0
Note_On_68_Vel_0
Time_Shift_7
Note_On_60_Vel_25
Time_Shift_1
Note_On_56_Vel_0
Time_Shift_2
Note_On_68_Vel_43
Time_Shift_2
Note_On_65_Vel_25
Note_On_56_Vel_35
Time_Shift_1
Note_On_63_Vel_0
Time_Shift_57
Sustain_On
Time_Shift_120
Note_On_75_Vel_66
Time_Shift_182
Note_On_73_Vel_69
Time_Shift_5
Note_On_68_Vel_0
Time_Shift_11
Note_On_68_Vel_52
Time_Shift_4
Note_On_65_Vel_0
Time_Shift_3
Note_On_58_Vel_42
Time_Shift_2
Note_On_65_Vel_37
Time_Shift_26
Note_On_72_Vel_0
Sustain_Off
Time_Shift_5
Note_On_56_Vel_0
Note_On_77_Vel_0
Time_Shift_1
Note_On_60_Vel_0
Time_Shift_5
Note_On_75_Vel_0
Time_Shift_73
Sustain_On
Time_Shift_38
Note_On_70_Vel_69
Time_Shift_170
Note_On_73_Vel_0
Time_Shift_7
Note_On_73_Vel_71
Note_On_68_Vel_0
Time_Shift_8
Note_On_58_Vel_0
Note_On_65_Vel_0
Time_Shift_3
Note_On_68_Vel_53
Time_Shift_1
Note_On_58_Vel_40
Time_Shift_1
Sustain_Off
Note_On_65_Vel_41
Time_Shift_45
Note_On_70_Vel_0
Time_Shift_34
Sustain_On
Time_Shift_337
Note_On_75_Vel_57
Time_Shift_9
Note_On_58_Vel_0
Time_Shift_6
Note_On_58_Vel_31
Time_Shift_3
Note_On_67_Vel_36
Time_Shift_2
Note_On_51_Vel_30
Time_Shift_4
Sustain_Off
Time_Shift_16
Note_On_65_Vel_0
Time_Shift_7
Note_On_68_Vel_0
Time_Shift_108
Sustain_On
Time_Shift_450
Note_On_72_Vel_60
Time_Shift_4
Note_On_63_Vel_29
Time_Shift_3
Note_On_66_Vel_46
Note_On_56_Vel_36
Time_Shift_3
Sustain_Off
Time_Shift_93
Note_On_73_Vel_0
Time_Shift_8
Note_On_67_Vel_0
Time_Shift_30
Sustain_On
Time_Shift_31
Note_On_58_Vel_0
Time_Shift_261
Note_On_66_Vel_0
Time_Shift_8
Note_On_63_Vel_0
Time_Shift_4
Note_On_66_Vel_54
Time_Shift_2
Note_On_68_Vel_64
Time_Shift_2
Note_On_56_Vel_0
Note_On_63_Vel_50
Time_Shift_2
Sustain_Off
Time_Shift_3
Note_On_56_Vel_44
Time_Shift_56
Sustain_On
Time_Shift_15
Note_On_72_Vel_0
Time_Shift_69
Note_On_75_Vel_0
Time_Shift_32
Note_On_72_Vel_74
Time_Shift_184
Note_On_51_Vel_0
Note_On_56_Vel_0
Time_Shift_2
Sustain_Off
Note_On_68_Vel_0
Time_Shift_1
Note_On_72_Vel_0
Note_On_63_Vel_0
Time_Shift_7
Note_On_73_Vel_72
Note_On_56_Vel_41
Time_Shift_5
Note_On_65_Vel_51
Time_Shift_4
Note_On_49_Vel_33
Note_On_61_Vel_35
Time_Shift_4
Note_On_66_Vel_0
Time_Shift_53
Sustain_On
Time_Shift_103
Note_On_72_Vel_66
Time_Shift_180
Note_On_72_Vel_0
Note_On_56_Vel_0
Note_On_61_Vel_0
Time_Shift_1
Note_On_65_Vel_0
Time_Shift_1
Note_On_49_Vel_0
Note_On_73_Vel_0
Time_Shift_4
Sustain_Off
Time_Shift_4
Note_On_71_Vel_66
Time_Shift_2
Note_On_65_Vel_44
Time_Shift_17
Note_On_55_Vel_39
Time_Shift_6
Note_On_62_Vel_39
Time_Shift_66
Sustain_On
Time_Shift_85
Note_On_67_Vel_60
Time_Shift_176
Note_On_55_Vel_0
Note_On_71_Vel_0
Time_Shift_9
Sustain_Off
Time_Shift_1
Note_On_71_Vel_51
Time_Shift_2
Note_On_55_Vel_35
Time_Shift_4
Note_On_62_Vel_0
Note_On_65_Vel_0
Time_Shift_6
Note_On_65_Vel_37
Time_Shift_1
Note_On_67_Vel_0
Time_Shift_1
Note_On_62_Vel_35
Time_Shift_8
Note_On_67_Vel_34
Time_Shift_84
Sustain_On
Time_Shift_342
Note_On_72_Vel_52
Time_Shift_7
Note_On_71_Vel_0
Time_Shift_1
Note_On_65_Vel_0
Note_On_62_Vel_0
Time_Shift_7
Sustain_Off
Note_On_63_Vel_36
Time_Shift_4
Note_On_55_Vel_0
Time_Shift_4
Note_On_48_Vel_20
Time_Shift_6
Note_On_55_Vel_21
Time_Shift_136
Sustain_On
Time_Shift_353
Note_On_63_Vel_0
Time_Shift_5
Note_On_69_Vel_43
Time_Shift_1
Note_On_63_Vel_42
Time_Shift_9
Note_On_67_Vel_0
Time_Shift_3
Note_On_60_Vel_31
Time_Shift_12
Note_On_48_Vel_0
Note_On_53_Vel_26
Time_Shift_12
Sustain_Off
Time_Shift_88
Sustain_On
Time_Shift_154
Note_On_72_Vel_0
Time_Shift_146
Note_On_55_Vel_0
Time_Shift_8
Note_On_60_Vel_0
Time_Shift_7
Note_On_53_Vel_0
Note_On_63_Vel_0
Time_Shift_4
Note_On_60_Vel_36
Note_On_63_Vel_37
Time_Shift_1
Note_On_53_Vel_38
Note_On_69_Vel_0
Time_Shift_1
Note_On_65_Vel_47
Time_Shift_21
Sustain_Off
Time_Shift_58
Sustain_On
Time_Shift_81
Note_On_69_Vel_60
Time_Shift_168
Note_On_63_Vel_0
Note_On_65_Vel_0
Time_Shift_2
Note_On_69_Vel_0
Sustain_Off
Time_Shift_10
Note_On_60_Vel_0
Time_Shift_8
Note_On_53_Vel_0
Time_Shift_2
Note_On_61_Vel_48
Time_Shift_1
Note_On_70_Vel_60
Time_Shift_1
Note_On_46_Vel_33
Time_Shift_2
Note_On_53_Vel_32
Time_Shift_47
Sustain_On
Time_Shift_123
Note_On_68_Vel_63
Time_Shift_200
Note_On_61_Vel_0
Note_On_67_Vel_71
Time_Shift_1
Sustain_Off
Note_On_70_Vel_0
Time_Shift_5
Note_On_61_Vel_45
Time_Shift_1
Note_On_58_Vel_42
Time_Shift_2
Note_On_68_Vel_0
Time_Shift_3
Note_On_51_Vel_41
Time_Shift_11
Note_On_53_Vel_0
Time_Shift_77
Sustain_On
Time_Shift_117
Note_On_63_Vel_66
Time_Shift_317
Note_On_60_Vel_48
Time_Shift_2
Note_On_68_Vel_64
Time_Shift_1
Note_On_51_Vel_0
Time_Shift_8
Note_On_51_Vel_35
Time_Shift_4
Note_On_63_Vel_0
Time_Shift_1
Note_On_67_Vel_0
Note_On_58_Vel_0
Sustain_Off
Note_On_61_Vel_0
Time_Shift_1
Note_On_44_Vel_37
Time_Shift_2
Note_On_46_Vel_0
Time_Shift_176
Sustain_On
Time_Shift_493
Note_On_72_Vel_72
Time_Shift_45
Note_On_60_Vel_0
Time_Shift_97
Note_On_68_Vel_0
Time_Shift_53
Note_On_73_Vel_79
Time_Shift_16
Sustain_Off
Time_Shift_11
Sustain_On
Time_Shift_38
Note_On_44_Vel_0
Note_On_72_Vel_0
Time_Shift_15
Note_On_51_Vel_0
Time_Shift_139
Note_On_73_Vel_0
Sustain_Off
Time_Shift_4
Note_On_77_Vel_74
Note_On_39_Vel_54
Time_Shift_3
Note_On_73_Vel_59
Time_Shift_100
Sustain_On
Time_Shift_98
Note_On_75_Vel_76
Time_Shift_255
Note_On_73_Vel_0
Time_Shift_11
Note_On_73_Vel_69
Time_Shift_2
Note_On_51_Vel_38
Time_Shift_5
Note_On_61_Vel_45
Time_Shift_4
Note_On_55_Vel_37
Time_Shift_140
Note_On_75_Vel_0
Time_Shift_11
Note_On_75_Vel_65
Time_Shift_81
Note_On_73_Vel_0
Time_Shift_6
Note_On_73_Vel_70
Time_Shift_40
Note_On_75_Vel_0
Time_Shift_7
Note_On_75_Vel_62
Time_Shift_62
Note_On_73_Vel_0
Time_Shift_8
Note_On_73_Vel_73
Time_Shift_69
Note_On_61_Vel_0
Time_Shift_3
Sustain_Off
Time_Shift_1
Note_On_72_Vel_74
Time_Shift_4
Note_On_51_Vel_0
Note_On_55_Vel_0
Time_Shift_3
Note_On_61_Vel_41
Time_Shift_1
Note_On_55_Vel_30
Time_Shift_2
Note_On_51_Vel_38
Time_Shift_17
Sustain_On
Time_Shift_76
Note_On_72_Vel_0
Time_Shift_6
Note_On_72_Vel_41
Time_Shift_62
Note_On_70_Vel_78
Time_Shift_163
Note_On_77_Vel_0
Time_Shift_13
Note_On_69_Vel_73
Time_Shift_2
Note_On_39_Vel_0
Note_On_51_Vel_0
Time_Shift_2
Note_On_72_Vel_0
Note_On_60_Vel_51
Time_Shift_1
Note_On_75_Vel_0
Note_On_55_Vel_0
Note_On_70_Vel_0
Note_On_61_Vel_0
Note_On_73_Vel_0
Time_Shift_2
Sustain_Off
Time_Shift_4
Note_On_51_Vel_40
Time_Shift_2
Note_On_54_Vel_44
Time_Shift_127
Sustain_On
Time_Shift_357
Note_On_70_Vel_68
Time_Shift_4
Note_On_51_Vel_0
Time_Shift_9
Note_On_51_Vel_33
Time_Shift_7
Note_On_61_Vel_41
Time_Shift_1
Note_On_55_Vel_34
Time_Shift_5
Sustain_Off
Time_Shift_6
Note_On_54_Vel_0
Time_Shift_2
Note_On_69_Vel_0
Note_On_60_Vel_0
Time_Shift_178
Sustain_On
Time_Shift_438
Note_On_51_Vel_0
Note_On_55_Vel_0
Note_On_61_Vel_0
Time_Shift_6
Note_On_55_Vel_34
Time_Shift_3
Note_On_61_Vel_30
Time_Shift_2
Note_On_51_Vel_31
Time_Shift_19
Sustain_Off
Time_Shift_85
Sustain_On
Time_Shift_122
Note_On_71_Vel_53
Time_Shift_298
Note_On_71_Vel_0
Note_On_61_Vel_0
Time_Shift_1
Note_On_70_Vel_0
Time_Shift_1
Note_On_55_Vel_0
Time_Shift_1
Note_On_51_Vel_0
Time_Shift_5
Sustain_Off
Time_Shift_5
Note_On_72_Vel_50
Time_Shift_23
Note_On_44_Vel_29
Time_Shift_104
Sustain_On
Time_Shift_372
Note_On_68_Vel_54
Note_On_60_Vel_37
Time_Shift_1
Note_On_63_Vel_40
Time_Shift_3
Note_On_56_Vel_41
Time_Shift_162
Note_On_72_Vel_0
Time_Shift_5
Note_On_72_Vel_67
Time_Shift_196
Note_On_79_Vel_57
Time_Shift_7
Sustain_Off
Time_Shift_4
Note_On_63_Vel_0
Time_Shift_1
Note_On_44_Vel_0
Note_On_68_Vel_0
Time_Shift_25
Note_On_60_Vel_0
Time_Shift_8
Note_On_56_Vel_0
Time_Shift_3
Note_On_60_Vel_32
Time_Shift_1
Note_On_77_Vel_57
Time_Shift_3
Note_On_65_Vel_26
Note_On_56_Vel_40
Time_Shift_62
Note_On_79_Vel_0
Time_Shift_106
Note_On_75_Vel_66
Time_Shift_166
Note_On_73_Vel_66
Time_Shift_4
Note_On_65_Vel_0
Time_Shift_7
Note_On_58_Vel_44
Time_Shift_5
Note_On_65_Vel_40
Time_Shift_5
Note_On_68_Vel_45
Time_Shift_22
Note_On_72_Vel_0
Time_Shift_9
Note_On_60_Vel_0
Time_Shift_1
Note_On_75_Vel_0
Time_Shift_2
Note_On_68_Vel_0
Time_Shift_8
Note_On_73_Vel_0
Time_Shift_3
Note_On_56_Vel_0
Note_On_77_Vel_0
Time_Shift_12
Note_On_65_Vel_0
Time_Shift_16
Note_On_58_Vel_0
Time_Shift_53
Note_On_70_Vel_63
Time_Shift_70
Note_On_70_Vel_0
Time_Shift_82
Note_On_73_Vel_61
Time_Shift_9
Note_On_58_Vel_41
Note_On_68_Vel_45
Time_Shift_1
Note_On_65_Vel_37
Time_Shift_34
Note_On_68_Vel_0
Time_Shift_2
Note_On_65_Vel_0
Time_Shift_1
Note_On_73_Vel_0
Time_Shift_2
Note_On_58_Vel_0
Time_Shift_85
Note_On_77_Vel_60
Time_Shift_148
Note_On_75_Vel_56
Time_Shift_24
Note_On_67_Vel_34
Time_Shift_3
Note_On_51_Vel_23
Time_Shift_4
Note_On_58_Vel_32
Time_Shift_14
Note_On_77_Vel_0
Time_Shift_113
Note_On_70_Vel_56
Time_Shift_52
Note_On_70_Vel_0
Time_Shift_1
Note_On_67_Vel_0
Time_Shift_5
Note_On_58_Vel_0
Time_Shift_1
Note_On_51_Vel_0
Time_Shift_5
Note_On_75_Vel_0
Time_Shift_83
Note_On_72_Vel_58
Time_Shift_6
Note_On_63_Vel_36
Time_Shift_1
Note_On_66_Vel_45
Time_Shift_2
Note_On_56_Vel_43
Time_Shift_27
Note_On_72_Vel_0
Time_Shift_2
Note_On_66_Vel_0
Time_Shift_9
Note_On_56_Vel_0
Time_Shift_2
Note_On_63_Vel_0
Time_Shift_78
Note_On_68_Vel_60
Time_Shift_62
Note_On_68_Vel_0
Time_Shift_77
Note_On_72_Vel_64
Time_Shift_8
Note_On_56_Vel_47
Time_Shift_1
Note_On_66_Vel_48
Note_On_63_Vel_37
Time_Shift_30
Note_On_72_Vel_0
Time_Shift_6
Note_On_63_Vel_0
Time_Shift_1
Note_On_66_Vel_0
Note_On_56_Vel_0
Time_Shift_82
Note_On_75_Vel_70
Time_Shift_62
Note_On_75_Vel_0
Time_Shift_82
Note_On_73_Vel_66
Time_Shift_15
Note_On_65_Vel_42
Time_Shift_2
Note_On_49_Vel_27
Time_Shift_3
Note_On_56_Vel_32
Time_Shift_21
Note_On_73_Vel_0
Time_Shift_8
Note_On_65_Vel_0
Time_Shift_15
Note_On_49_Vel_0
Time_Shift_14
Note_On_56_Vel_0
Time_Shift_65
Note_On_72_Vel_67
Time_Shift_31
Note_On_72_Vel_0
Time_Shift_129
Note_On_71_Vel_57
Time_Shift_1
Note_On_55_Vel_44
Time_Shift_1
Note_On_65_Vel_42
Time_Shift_4
Note_On_62_Vel_41
Time_Shift_44
Note_On_65_Vel_0
Time_Shift_4
Note_On_55_Vel_0
Time_Shift_1
Note_On_62_Vel_0
Time_Shift_7
Note_On_71_Vel_0
Time_Shift_66
Note_On_67_Vel_64
Time_Shift_51
Note_On_67_Vel_0
Time_Shift_95
Note_On_71_Vel_69
Time_Shift_2
Note_On_55_Vel_48
Time_Shift_1
Note_On_62_Vel_46
Time_Shift_1
Note_On_65_Vel_50
Time_Shift_39
Note_On_62_Vel_0
Time_Shift_7
Note_On_65_Vel_0
Time_Shift_7
Note_On_55_Vel_0
Time_Shift_14
Note_On_71_Vel_0
Time_Shift_70
Note_On_74_Vel_64
Time_Shift_68
Note_On_74_Vel_0
Time_Shift_93
Note_On_72_Vel_61
Note_On_63_Vel_49
Time_Shift_7
Note_On_60_Vel_37
Time_Shift_2
Note_On_55_Vel_35
Time_Shift_4
Note_On_60_Vel_0
Time_Shift_3
Note_On_48_Vel_30
Time_Shift_40
Note_On_72_Vel_0
Time_Shift_4
Note_On_63_Vel_0
Time_Shift_19
Note_On_48_Vel_0
Time_Shift_76
Note_On_67_Vel_62
Time_Shift_43
Note_On_67_Vel_0
Time_Shift_2
Note_On_55_Vel_0
Time_Shift_115
Note_On_69_Vel_66
Time_Shift_3
Note_On_63_Vel_56
Time_Shift_3
Note_On_60_Vel_46
Time_Shift_3
Note_On_53_Vel_42
Time_Shift_51
Note_On_63_Vel_0
Time_Shift_4
Note_On_60_Vel_0
Time_Shift_4
Note_On_53_Vel_0
Time_Shift_2
Note_On_69_Vel_0
Time_Shift_57
Note_On_65_Vel_63
Time_Shift_75
Note_On_65_Vel_0
Time_Shift_76
Note_On_53_Vel_50
Note_On_69_Vel_70
Note_On_63_Vel_56
Time_Shift_2
Note_On_60_Vel_41
Time_Shift_34
Note_On_53_Vel_0
Time_Shift_1
Note_On_63_Vel_0
Time_Shift_1
Note_On_60_Vel_0
Time_Shift_23
Note_On_69_Vel_0
Time_Shift_73
Note_On_72_Vel_67
Time_Shift_51
Note_On_72_Vel_0
Time_Shift_129
Note_On_70_Vel_57
Time_Shift_7
Note_On_61_Vel_42
Time_Shift_1
Note_On_46_Vel_34
Time_Shift_1
Note_On_53_Vel_29
Time_Shift_67
Note_On_46_Vel_0
Time_Shift_2
Note_On_61_Vel_0
Time_Shift_8
Note_On_70_Vel_0
Time_Shift_18
Note_On_53_Vel_0
Time_Shift_74
Note_On_68_Vel_62
Time_Shift_86
Note_On_68_Vel_0
Time_Shift_128
Note_On_67_Vel_53
Time_Shift_2
Note_On_61_Vel_40
Time_Shift_4
Note_On_58_Vel_37
Time_Shift_5
Note_On_51_Vel_36
Time_Shift_70
Sustain_On
Time_Shift_97
Note_On_63_Vel_61
Time_Shift_290
Sustain_Off
Time_Shift_2
Note_On_60_Vel_43
Note_On_68_Vel_59
Time_Shift_4
Note_On_67_Vel_0
Time_Shift_3
Note_On_61_Vel_0
Time_Shift_3
Note_On_63_Vel_0
Note_On_58_Vel_0
Note_On_51_Vel_0
Time_Shift_7
Note_On_51_Vel_33
Time_Shift_14
Note_On_44_Vel_32
Time_Shift_118
Sustain_On
Time_Shift_424
Note_On_72_Vel_74
Time_Shift_183
Note_On_73_Vel_76
Time_Shift_181
Note_On_44_Vel_0
Time_Shift_2
Note_On_68_Vel_0
Time_Shift_1
Note_On_60_Vel_0
Time_Shift_1
Note_On_51_Vel_0
Time_Shift_5
Note_On_72_Vel_0
Time_Shift_13
Sustain_Off
Time_Shift_7
Note_On_39_Vel_52
Time_Shift_41
Note_On_70_Vel_69
Time_Shift_86
Sustain_On
Time_Shift_259
Note_On_72_Vel_55
Time_Shift_41
Note_On_70_Vel_0
Time_Shift_9
Note_On_70_Vel_72
Time_Shift_78
Note_On_61_Vel_46
Time_Shift_1
Note_On_55_Vel_45
Time_Shift_1
Note_On_51_Vel_42
Time_Shift_1
Note_On_69_Vel_75
Time_Shift_2
Note_On_61_Vel_0
Time_Shift_131
Note_On_70_Vel_0
Time_Shift_9
Note_On_70_Vel_79
Time_Shift_136
Note_On_73_Vel_0
Time_Shift_5
Sustain_Off
Time_Shift_7
Note_On_73_Vel_79
Time_Shift_2
Note_On_72_Vel_0
Time_Shift_5
Note_On_69_Vel_0
Time_Shift_1
Note_On_55_Vel_0
Time_Shift_2
Note_On_70_Vel_0
Time_Shift_1
Note_On_51_Vel_0
Time_Shift_5
Note_On_61_Vel_49
Time_Shift_2
Note_On_51_Vel_38
Time_Shift_107
Note_On_51_Vel_0
Time_Shift_17
Note_On_39_Vel_0
Time_Shift_16
Note_On_77_Vel_75
Time_Shift_2
Note_On_73_Vel_0
Time_Shift_174
Note_On_77_Vel_0
Time_Shift_11
Note_On_75_Vel_70
Time_Shift_2
Note_On_51_Vel_39
Note_On_44_Vel_47
Time_Shift_79
Sustain_On
Time_Shift_31
Note_On_61_Vel_0
Time_Shift_56
Note_On_72_Vel_62
Time_Shift_141
Sustain_Off
Time_Shift_58
Note_On_72_Vel_0
Time_Shift_3
Note_On_75_Vel_0
Time_Shift_6
Note_On_68_Vel_52
Time_Shift_7
Note_On_60_Vel_42
Time_Shift_2
Note_On_56_Vel_45
Time_Shift_57
Note_On_51_Vel_0
Time_Shift_92
Sustain_On
Time_Shift_192
Note_On_44_Vel_0
Time_Shift_85
Note_On_56_Vel_0
Time_Shift_4
Note_On_72_Vel_73
Time_Shift_5
Note_On_63_Vel_62
Time_Shift_2
Note_On_56_Vel_48
Time_Shift_26
Note_On_60_Vel_0
Time_Shift_2
Note_On_68_Vel_0
Time_Shift_7
Sustain_Off
Time_Shift_130
Sustain_On
Time_Shift_350
Note_On_71_Vel_62
Time_Shift_8
Note_On_55_Vel_47
Time_Shift_3
Note_On_65_Vel_44
Time_Shift_6
Note_On_62_Vel_46
Time_Shift_125
Note_On_72_Vel_0
Time_Shift_6
Note_On_72_Vel_81
Time_Shift_6
Note_On_60_Vel_52
Time_Shift_42
Note_On_63_Vel_0
Time_Shift_17
Note_On_71_Vel_0
Time_Shift_10
Note_On_62_Vel_0
Time_Shift_2
Note_On_65_Vel_0
Time_Shift_24
Note_On_56_Vel_0
Time_Shift_20
Sustain_Off
Time_Shift_36
Note_On_74_Vel_83
Time_Shift_7
Note_On_59_Vel_70
Time_Shift_10
Note_On_72_Vel_0
Time_Shift_7
Note_On_60_Vel_0
Time_Shift_66
Sustain_On
Time_Shift_246
Note_On_55_Vel_0
Note_On_59_Vel_0
Time_Shift_6
Note_On_59_Vel_56
Time_Shift_5
Note_On_55_Vel_54
Time_Shift_1
Note_On_65_Vel_49
Time_Shift_8
Note_On_74_Vel_0
Time_Shift_2
Note_On_75_Vel_78
Time_Shift_152
Note_On_74_Vel_78
Time_Shift_133
Sustain_Off
Time_Shift_4
Note_On_72_Vel_73
Time_Shift_2
Note_On_59_Vel_0
Note_On_75_Vel_0
Time_Shift_6
Note_On_74_Vel_0
Time_Shift_8
Note_On_48_Vel_64
Time_Shift_19
Note_On_55_Vel_0
Time_Shift_69
Sustain_On
Time_Shift_8
Note_On_65_Vel_0
Time_Shift_28
Note_On_75_Vel_74
Time_Shift_151
Note_On_67_Vel_76
Time_Shift_7
Note_On_60_Vel_45
Time_Shift_2
Note_On_55_Vel_46
Note_On_63_Vel_56
Time_Shift_57
Note_On_72_Vel_0
Time_Shift_54
Note_On_67_Vel_0
Time_Shift_8
Note_On_67_Vel_54
Time_Shift_192
Note_On_55_Vel_0
Note_On_60_Vel_0
Note_On_63_Vel_0
Time_Shift_4
Note_On_63_Vel_40
Time_Shift_4
Note_On_60_Vel_45
Time_Shift_3
Note_On_55_Vel_37
Time_Shift_50
Sustain_Off
Time_Shift_24
Note_On_75_Vel_0
Time_Shift_6
Note_On_77_Vel_70
Time_Shift_108
Sustain_On
Time_Shift_53
Note_On_75_Vel_80
Time_Shift_139
Note_On_55_Vel_0
Time_Shift_11
Note_On_55_Vel_50
Time_Shift_2
Note_On_71_Vel_76
Time_Shift_3
Note_On_65_Vel_44
Time_Shift_3
Note_On_62_Vel_49
Time_Shift_73
Sustain_Off
Time_Shift_39
Note_On_63_Vel_0
Sustain_On
Time_Shift_8
Note_On_60_Vel_0
Time_Shift_6
Note_On_72_Vel_77
Time_Shift_2
Note_On_60_Vel_48
Time_Shift_39
Note_On_77_Vel_0
Time_Shift_6
Note_On_48_Vel_0
Time_Shift_23
Note_On_75_Vel_0
Time_Shift_70
Note_On_62_Vel_0
Time_Shift_7
Note_On_67_Vel_0
Note_On_71_Vel_0
Time_Shift_4
Note_On_72_Vel_0
Time_Shift_6
Note_On_74_Vel_73
Time_Shift_18
Sustain_Off
Note_On_59_Vel_49
Time_Shift_11
Sustain_On
Time_Shift_238
Note_On_65_Vel_0
Time_Shift_77
Note_On_55_Vel_0
Note_On_59_Vel_0
Time_Shift_10
Note_On_55_Vel_45
Note_On_59_Vel_48
Time_Shift_2
Note_On_75_Vel_69
Note_On_65_Vel_45
Time_Shift_11
Note_On_60_Vel_0
Time_Shift_122
Note_On_74_Vel_0
Time_Shift_7
Note_On_74_Vel_81
Time_Shift_149
Note_On_72_Vel_80
Note_On_48_Vel_70
Time_Shift_6
Sustain_Off
Time_Shift_84
Sustain_On
Time_Shift_39
Note_On_74_Vel_0
Time_Shift_7
Note_On_74_Vel_83
Time_Shift_146
Note_On_55_Vel_0
Note_On_75_Vel_0
Time_Shift_6
Note_On_60_Vel_60
Note_On_55_Vel_56
Time_Shift_4
Note_On_75_Vel_85
Time_Shift_1
Note_On_63_Vel_65
Time_Shift_335
Note_On_59_Vel_0
Note_On_63_Vel_0
Time_Shift_7
Note_On_77_Vel_76
Note_On_63_Vel_58
Time_Shift_2
Note_On_68_Vel_69
Time_Shift_2
Note_On_59_Vel_61
Time_Shift_22
Sustain_Off
Time_Shift_2
Note_On_65_Vel_0
Time_Shift_2
Note_On_48_Vel_0
Note_On_74_Vel_0
Note_On_72_Vel_0
Time_Shift_1
Note_On_75_Vel_0
Note_On_60_Vel_0
Time_Shift_1
Note_On_55_Vel_0
Time_Shift_107
Sustain_On
Time_Shift_89
Note_On_75_Vel_79
Time_Shift_157
Note_On_68_Vel_0
Time_Shift_1
Note_On_74_Vel_81
Time_Shift_3
Note_On_68_Vel_63
Time_Shift_1
Note_On_58_Vel_59
Time_Shift_5
Note_On_65_Vel_59
Time_Shift_31
Note_On_77_Vel_0
Time_Shift_9
Note_On_63_Vel_0
Time_Shift_3
Note_On_59_Vel_0
Time_Shift_3
Note_On_75_Vel_0
Time_Shift_78
Note_On_63_Vel_67
Note_On_75_Vel_78
Time_Shift_40
Note_On_74_Vel_0
Time_Shift_119
Note_On_77_Vel_82
Time_Shift_4
Note_On_62_Vel_66
Time_Shift_79
Note_On_65_Vel_0
Time_Shift_238
Note_On_58_Vel_0
Note_On_62_Vel_0
Note_On_68_Vel_0
Time_Shift_5
Note_On_58_Vel_54
Time_Shift_1
Note_On_62_Vel_57
Time_Shift_4
Note_On_68_Vel_71
Time_Shift_1
Note_On_79_Vel_84
Time_Shift_58
Note_On_63_Vel_0
Time_Shift_85
Note_On_75_Vel_0
Time_Shift_7
Note_On_77_Vel_0
Time_Shift_11
Note_On_77_Vel_80
Time_Shift_160
Note_On_75_Vel_83
Time_Shift_6
Note_On_58_Vel_0
Time_Shift_4
Note_On_51_Vel_56
Time_Shift_7
Note_On_58_Vel_50
Time_Shift_8
Note_On_77_Vel_0
Note_On_79_Vel_0
Note_On_62_Vel_0
Time_Shift_1
Note_On_68_Vel_0
Time_Shift_11
Sustain_Off
Time_Shift_84
Sustain_On
Time_Shift_37
Note_On_79_Vel_82
Time_Shift_186
Note_On_58_Vel_0
Time_Shift_3
Note_On_70_Vel_82
Time_Shift_1
Note_On_58_Vel_50
Time_Shift_2
Note_On_67_Vel_59
Time_Shift_4
Note_On_63_Vel_55
Time_Shift_416
Note_On_86_Vel_89
Time_Shift_12
Note_On_58_Vel_0
Note_On_63_Vel_0
Note_On_67_Vel_0
Time_Shift_4
Note_On_67_Vel_55
Note_On_58_Vel_51
Time_Shift_5
Note_On_51_Vel_0
Time_Shift_1
Note_On_63_Vel_48
Time_Shift_55
Sustain_Off
Time_Shift_88
Sustain_On
Time_Shift_125
Note_On_85_Vel_83
Time_Shift_212
Note_On_84_Vel_77
Time_Shift_178
Note_On_58_Vel_0
Time_Shift_11
Note_On_83_Vel_73
Time_Shift_1
Sustain_Off
Time_Shift_11
Note_On_70_Vel_0
Time_Shift_15
Note_On_75_Vel_0
Note_On_79_Vel_0
Time_Shift_85
Note_On_63_Vel_0
Time_Shift_7
Sustain_On
Time_Shift_58
Note_On_82_Vel_76
Time_Shift_2
Note_On_84_Vel_0
Time_Shift_5
Note_On_74_Vel_62
Time_Shift_4
Note_On_67_Vel_0
Time_Shift_5
Note_On_58_Vel_45
Time_Shift_3
Note_On_85_Vel_0
Time_Shift_2
Note_On_68_Vel_47
Time_Shift_3
Note_On_65_Vel_45
Time_Shift_166
Note_On_81_Vel_72
Time_Shift_190
Note_On_74_Vel_0
Note_On_86_Vel_0
Time_Shift_7
Note_On_80_Vel_70
Time_Shift_1
Note_On_74_Vel_55
Time_Shift_15
Note_On_58_Vel_0
Note_On_65_Vel_0
Note_On_68_Vel_0
Time_Shift_5
Note_On_68_Vel_46
Time_Shift_4
Note_On_65_Vel_35
Time_Shift_2
Note_On_58_Vel_40
Time_Shift_162
Note_On_79_Vel_65
Time_Shift_245
Note_On_83_Vel_0
Time_Shift_1
Note_On_73_Vel_53
Note_On_78_Vel_67
Note_On_65_Vel_0
Time_Shift_1
Note_On_58_Vel_0
Note_On_68_Vel_0
Note_On_80_Vel_0
Note_On_81_Vel_0
Time_Shift_1
Note_On_74_Vel_0
Note_On_82_Vel_0
Note_On_79_Vel_0
Time_Shift_3
Note_On_39_Vel_41
Time_Shift_6
Sustain_Off
Time_Shift_115
Sustain_On
Time_Shift_135
Note_On_77_Vel_57
Time_Shift_227
Note_On_76_Vel_58
Time_Shift_13
Note_On_67_Vel_43
Time_Shift_21
Note_On_61_Vel_30
Note_On_58_Vel_34
Time_Shift_16
Note_On_51_Vel_22
Time_Shift_175
Note_On_75_Vel_60
Time_Shift_271
Note_On_74_Vel_50
Time_Shift_18
Note_On_58_Vel_0
Note_On_61_Vel_0
Note_On_67_Vel_0
Time_Shift_5
Note_On_58_Vel_29
Time_Shift_2
Note_On_61_Vel_30
Time_Shift_2
Note_On_67_Vel_40
Time_Shift_6
Note_On_51_Vel_0
Note_On_39_Vel_0
Time_Shift_3
Note_On_78_Vel_0
Note_On_77_Vel_0
Note_On_73_Vel_0
Note_On_75_Vel_0
Note_On_76_Vel_0
Time_Shift_2
Note_On_51_Vel_24
Time_Shift_6
Sustain_Off
Time_Shift_81
Sustain_On
Time_Shift_173
Note_On_73_Vel_47
Time_Shift_362
Note_On_72_Vel_45
Time_Shift_18
Note_On_60_Vel_29
Note_On_67_Vel_0
Time_Shift_7
Note_On_56_Vel_29
Time_Shift_2
Note_On_63_Vel_32
Time_Shift_1
Note_On_67_Vel_25
Time_Shift_6
Note_On_74_Vel_0
Time_Shift_2
Note_On_51_Vel_0
Time_Shift_2
Note_On_73_Vel_0
Time_Shift_3
Sustain_Off
Time_Shift_8
Note_On_58_Vel_0
Time_Shift_8
Note_On_61_Vel_0
Time_Shift_176
Sustain_On
Time_Shift_429
Note_On_68_Vel_50
Time_Shift_9
Note_On_63_Vel_0
Time_Shift_5
Note_On_63_Vel_33
Time_Shift_3
Note_On_56_Vel_0
Note_On_60_Vel_0
Time_Shift_5
Note_On_60_Vel_24
Time_Shift_4
Note_On_56_Vel_32
Time_Shift_198
Note_On_72_Vel_0
Time_Shift_5
Note_On_72_Vel_68
Time_Shift_226
Note_On_56_Vel_0
Note_On_60_Vel_0
Note_On_68_Vel_0
Time_Shift_2
Note_On_77_Vel_56
Time_Shift_3
Note_On_68_Vel_44
Time_Shift_5
Note_On_56_Vel_42
Time_Shift_1
Note_On_60_Vel_34
Time_Shift_1
Note_On_63_Vel_0
Note_On_65_Vel_31
Time_Shift_14
Sustain_Off
Time_Shift_12
Note_On_67_Vel_0
Time_Shift_46
Sustain_On
Time_Shift_91
Note_On_75_Vel_69
Time_Shift_158
Sustain_Off
Time_Shift_19
Note_On_73_Vel_69
Time_Shift_1
Note_On_65_Vel_0
Note_On_68_Vel_0
Time_Shift_4
Note_On_68_Vel_46
Note_On_65_Vel_43
Time_Shift_1
Note_On_58_Vel_48
Time_Shift_10
Note_On_77_Vel_0
Time_Shift_3
Note_On_72_Vel_0
Time_Shift_20
Note_On_60_Vel_0
Sustain_On
Time_Shift_17
Note_On_75_Vel_0
Time_Shift_83
Note_On_56_Vel_0
Time_Shift_17
Note_On_70_Vel_67
Time_Shift_143
Sustain_Off
Time_Shift_24
Note_On_73_Vel_0
Time_Shift_8
Note_On_65_Vel_0
Note_On_68_Vel_0
Time_Shift_3
Note_On_73_Vel_66
Time_Shift_5
Note_On_58_Vel_0
Time_Shift_1
Note_On_68_Vel_40
Time_Shift_2
Note_On_65_Vel_41
Time_Shift_4
Note_On_58_Vel_41
Time_Shift_10
Note_On_70_Vel_0
Time_Shift_52
Sustain_On
Time_Shift_351
Note_On_68_Vel_0
Note_On_65_Vel_0
Time_Shift_6
Sustain_Off
Time_Shift_5
Note_On_75_Vel_50
Time_Shift_7
Note_On_58_Vel_0
Time_Shift_7
Note_On_73_Vel_0
Time_Shift_2
Note_On_58_Vel_28
Time_Shift_1
Note_On_67_Vel_31
Time_Shift_11
Note_On_51_Vel_26
Time_Shift_78
Sustain_On
Time_Shift_464
Note_On_63_Vel_35
Time_Shift_5
Note_On_56_Vel_32
Time_Shift_10
Note_On_72_Vel_55
Time_Shift_1
Note_On_66_Vel_50
Time_Shift_20
Note_On_67_Vel_0
Time_Shift_7
Sustain_Off
Time_Shift_46
Note_On_58_Vel_0
Time_Shift_54
Sustain_On
Time_Shift_115
Note_On_51_Vel_0
Time_Shift_215
Note_On_66_Vel_0
Time_Shift_11
Note_On_66_Vel_53
Time_Shift_2
Note_On_68_Vel_57
Time_Shift_3
Note_On_63_Vel_0
Time_Shift_7
Note_On_56_Vel_0
Time_Shift_1
Note_On_63_Vel_43
Time_Shift_4
Note_On_56_Vel_37
Time_Shift_23
Sustain_Off
Time_Shift_18
Sustain_On
Time_Shift_77
Note_On_75_Vel_0
Time_Shift_8
Note_On_72_Vel_0
Time_Shift_41
Note_On_72_Vel_69
Time_Shift_178
Note_On_72_Vel_0
Time_Shift_1
Note_On_68_Vel_0
Note_On_73_Vel_68
Note_On_63_Vel_0
Note_On_65_Vel_51
Time_Shift_3
Note_On_56_Vel_0
Time_Shift_2
Sustain_Off
Time_Shift_7
Note_On_56_Vel_37
Time_Shift_3
Note_On_49_Vel_33
Time_Shift_3
Note_On_66_Vel_0
Time_Shift_38
Sustain_On
Time_Shift_111
Note_On_72_Vel_61
Time_Shift_174
Note_On_65_Vel_0
Time_Shift_3
Note_On_71_Vel_69
Time_Shift_1
Note_On_65_Vel_42
Time_Shift_14
Sustain_Off
Time_Shift_7
Note_On_56_Vel_0
Note_On_72_Vel_0
Note_On_73_Vel_0
Time_Shift_1
Note_On_49_Vel_0
Time_Shift_3
Note_On_62_Vel_38
Note_On_55_Vel_35
Time_Shift_47
Sustain_On
Time_Shift_88
Note_On_67_Vel_66
Time_Shift_181
Note_On_71_Vel_0
Time_Shift_5
Note_On_71_Vel_58
Time_Shift_3
Note_On_55_Vel_0
Note_On_62_Vel_0
Note_On_65_Vel_0
Time_Shift_6
Sustain_Off
Time_Shift_1
Note_On_62_Vel_37
Time_Shift_1
Note_On_67_Vel_0
Note_On_65_Vel_40
Time_Shift_1
Note_On_55_Vel_35
Time_Shift_6
Note_On_67_Vel_45
Time_Shift_77
Sustain_On
Time_Shift_324
Note_On_72_Vel_53
Time_Shift_2
Note_On_63_Vel_46
Time_Shift_4
Note_On_55_Vel_0
Time_Shift_4
Note_On_48_Vel_33
Time_Shift_4
Note_On_55_Vel_30
Time_Shift_5
Note_On_65_Vel_0
Time_Shift_1
Note_On_67_Vel_0
Time_Shift_3
Sustain_Off
Time_Shift_14
Note_On_62_Vel_0
Note_On_71_Vel_0
Time_Shift_84
Sustain_On
Time_Shift_331
Note_On_63_Vel_0
Time_Shift_10
Note_On_69_Vel_59
Time_Shift_1
Note_On_63_Vel_47
Time_Shift_16
Note_On_60_Vel_33
Time_Shift_7
Note_On_53_Vel_29
Time_Shift_9
Note_On_48_Vel_0
Time_Shift_26
Sustain_Off
Time_Shift_77
Note_On_55_Vel_0
Time_Shift_7
Sustain_On
Time_Shift_31
Note_On_72_Vel_0
Time_Shift_238
Note_On_63_Vel_0
Time_Shift_8
Note_On_53_Vel_0
Note_On_60_Vel_0
Time_Shift_3
Note_On_63_Vel_52
Time_Shift_3
Note_On_60_Vel_40
Time_Shift_1
Note_On_65_Vel_53
Time_Shift_4
Note_On_53_Vel_38
Time_Shift_17
Note_On_69_Vel_0
Time_Shift_6
Sustain_Off
Time_Shift_27
Sustain_On
Time_Shift_111
Note_On_69_Vel_63
Time_Shift_188
Note_On_65_Vel_0
Time_Shift_1
Note_On_53_Vel_0
Time_Shift_1
Note_On_69_Vel_0
Time_Shift_2
Note_On_61_Vel_47
Note_On_70_Vel_66
Time_Shift_1
Note_On_53_Vel_36
Note_On_46_Vel_39
Time_Shift_3
Note_On_60_Vel_0
Time_Shift_2
Sustain_Off
Time_Shift_6
Note_On_63_Vel_0
Time_Shift_69
Sustain_On
Time_Shift_107
Note_On_68_Vel_66
Time_Shift_193
Note_On_61_Vel_0
Time_Shift_2
Note_On_67_Vel_67
Time_Shift_7
Note_On_61_Vel_45
Time_Shift_10
Note_On_58_Vel_43
Time_Shift_1
Sustain_Off
Time_Shift_2
Note_On_68_Vel_0
Time_Shift_1
Note_On_53_Vel_0
Time_Shift_3
Note_On_70_Vel_0
Note_On_51_Vel_43
Time_Shift_35
Sustain_On
Time_Shift_152
Note_On_63_Vel_67
Time_Shift_311
Note_On_68_Vel_64
Time_Shift_2
Note_On_60_Vel_50
Time_Shift_4
Note_On_51_Vel_0
Time_Shift_4
Note_On_51_Vel_36
Time_Shift_6
Note_On_44_Vel_39
Time_Shift_18
Note_On_63_Vel_0
Note_On_58_Vel_0
Time_Shift_2
Note_On_67_Vel_0
Time_Shift_4
Sustain_Off
Time_Shift_4
Note_On_46_Vel_0
Note_On_61_Vel_0
Time_Shift_146
Sustain_On
Time_Shift_491
Note_On_60_Vel_0
Time_Shift_20
Note_On_72_Vel_65
Time_Shift_189
Note_On_73_Vel_74
Time_Shift_143
Note_On_68_Vel_0
Time_Shift_3
Note_On_72_Vel_0
Time_Shift_1
Note_On_44_Vel_0
Time_Shift_13
Note_On_51_Vel_0
Time_Shift_13
Sustain_Off
Time_Shift_53
Note_On_39_Vel_46
Time_Shift_2
Note_On_77_Vel_64
Time_Shift_93
Sustain_On
Time_Shift_127
Note_On_75_Vel_62
Time_Shift_296
Note_On_73_Vel_0
Time_Shift_11
Note_On_73_Vel_53
Time_Shift_6
Note_On_55_Vel_30
Time_Shift_10
Note_On_51_Vel_28
Time_Shift_3
Note_On_61_Vel_32
Time_Shift_131
Note_On_75_Vel_0
Time_Shift_10
Note_On_75_Vel_55
Time_Shift_90
Note_On_73_Vel_0
Time_Shift_6
Note_On_73_Vel_62
Time_Shift_40
Note_On_75_Vel_0
Time_Shift_7
Note_On_75_Vel_57
Time_Shift_54
Note_On_73_Vel_0
Time_Shift_10
Note_On_73_Vel_69
Time_Shift_60
Note_On_51_Vel_0
Note_On_55_Vel_0
Note_On_61_Vel_0
Time_Shift_7
Note_On_55_Vel_32
Note_On_72_Vel_71
Time_Shift_2
Note_On_51_Vel_36
Time_Shift_1
Note_On_61_Vel_39
Time_Shift_163
Note_On_70_Vel_72
Time_Shift_180
Note_On_77_Vel_0
Time_Shift_1
Note_On_69_Vel_70
Time_Shift_1
Sustain_Off
Time_Shift_1
Note_On_70_Vel_0
Time_Shift_1
Note_On_72_Vel_0
Time_Shift_2
Note_On_60_Vel_45
Note_On_75_Vel_0
Time_Shift_2
Note_On_51_Vel_0
Time_Shift_3
Note_On_51_Vel_39
Time_Shift_1
Note_On_54_Vel_39
Time_Shift_3
Note_On_55_Vel_0
Note_On_61_Vel_0
Time_Shift_8
Note_On_39_Vel_0
Note_On_73_Vel_0
Time_Shift_38
Sustain_On
Time_Shift_464
Note_On_70_Vel_62
Time_Shift_3
Sustain_Off
Time_Shift_9
Note_On_51_Vel_0
Time_Shift_5
Note_On_61_Vel_38
Time_Shift_3
Note_On_60_Vel_0
Time_Shift_4
Note_On_55_Vel_35
Note_On_51_Vel_32
Time_Shift_2
Note_On_54_Vel_0
Time_Shift_4
Note_On_69_Vel_0
Time_Shift_159
Sustain_On
Time_Shift_538
Note_On_51_Vel_0
Note_On_55_Vel_0
Note_On_61_Vel_0
Time_Shift_5
Note_On_61_Vel_28
Time_Shift_2
Note_On_55_Vel_26
Time_Shift_3
Note_On_51_Vel_25
Time_Shift_216
Note_On_71_Vel_50
Time_Shift_284
Note_On_61_Vel_0
Note_On_51_Vel_0
Note_On_70_Vel_0
Time_Shift_1
Note_On_55_Vel_0
Time_Shift_1
Note_On_71_Vel_0
Sustain_Off
Time_Shift_15
Note_On_44_Vel_28
Time_Shift_3
Note_On_72_Vel_45
Time_Shift_84
Sustain_On
Time_Shift_423
Note_On_68_Vel_41
Time_Shift_2
Note_On_63_Vel_33
Time_Shift_1
Note_On_60_Vel_25
Note_On_56_Vel_36
Time_Shift_158
Note_On_72_Vel_0
Time_Shift_11
Note_On_72_Vel_50
Time_Shift_150
Note_On_44_Vel_0
Time_Shift_4
Note_On_63_Vel_0
Time_Shift_1
Note_On_60_Vel_0
Note_On_68_Vel_0
Time_Shift_1
Sustain_Off
Note_On_56_Vel_0
Time_Shift_30
Note_On_79_Vel_56
Time_Shift_43
Note_On_56_Vel_38
Time_Shift_7
Note_On_60_Vel_25
Time_Shift_2
Note_On_68_Vel_39
Time_Shift_6
Note_On_65_Vel_26
Time_Shift_24
Note_On_77_Vel_50
Time_Shift_5
Sustain_On
Time_Shift_46
Note_On_72_Vel_0
Time_Shift_136
Note_On_75_Vel_58
Time_Shift_198
Note_On_73_Vel_58
Time_Shift_4
Note_On_68_Vel_0
Time_Shift_1
Note_On_58_Vel_39
Time_Shift_5
Note_On_68_Vel_45
Time_Shift_2
Note_On_65_Vel_0
Time_Shift_10
Note_On_65_Vel_31
Time_Shift_14
Sustain_Off
Time_Shift_2
Note_On_77_Vel_0
Time_Shift_4
Note_On_75_Vel_0
Time_Shift_1
Note_On_56_Vel_0
Time_Shift_3
Note_On_79_Vel_0
Note_On_60_Vel_0
Time_Shift_10
Note_On_73_Vel_0
Time_Shift_1
Note_On_68_Vel_0
Time_Shift_31
Note_On_65_Vel_0
Time_Shift_39
Note_On_58_Vel_0
Time_Shift_34
Note_On_70_Vel_57
Time_Shift_100
Note_On_70_Vel_0
Time_Shift_52
Note_On_73_Vel_56
Time_Shift_10
Note_On_68_Vel_46
Time_Shift_8
Note_On_65_Vel_34
Time_Shift_8
Note_On_58_Vel_32
Time_Shift_25
Note_On_68_Vel_0
Note_On_73_Vel_0
Time_Shift_55
Note_On_65_Vel_0
Time_Shift_31
Note_On_77_Vel_55
Time_Shift_61
Note_On_58_Vel_0
Time_Shift_38
Note_On_77_Vel_0
Time_Shift_43
Note_On_75_Vel_58
Time_Shift_6
Note_On_67_Vel_49
Time_Shift_7
Note_On_51_Vel_37
Time_Shift_1
Note_On_58_Vel_43
Time_Shift_39
Note_On_67_Vel_0
Time_Shift_1
Note_On_75_Vel_0
Time_Shift_58
Note_On_58_Vel_0
Time_Shift_14
Note_On_51_Vel_0
Time_Shift_16
Note_On_70_Vel_55
Time_Shift_52
Note_On_70_Vel_0
Time_Shift_89
Note_On_66_Vel_57
Note_On_72_Vel_62
Time_Shift_2
Note_On_63_Vel_47
Time_Shift_3
Note_On_56_Vel_47
Time_Shift_34
Note_On_72_Vel_0
Time_Shift_10
Note_On_66_Vel_0
Time_Shift_11
Note_On_63_Vel_0
Time_Shift_12
Note_On_56_Vel_0
Time_Shift_52
Note_On_68_Vel_69
Time_Shift_60
Note_On_68_Vel_0
Time_Shift_78
Note_On_72_Vel_69
Time_Shift_3
Note_On_56_Vel_54
Time_Shift_3
Note_On_63_Vel_50
Time_Shift_1
Note_On_66_Vel_59
Time_Shift_38
Note_On_66_Vel_0
Note_On_72_Vel_0
Time_Shift_1
Note_On_63_Vel_0
Time_Shift_1
Note_On_56_Vel_0
Time_Shift_84
Note_On_75_Vel_73
Time_Shift_69
Note_On_75_Vel_0
Time_Shift_67
Note_On_73_Vel_72
Time_Shift_8
Note_On_56_Vel_45
Time_Shift_2
Note_On_49_Vel_42
Time_Shift_4
Note_On_65_Vel_51
Time_Shift_37
Note_On_73_Vel_0
Time_Shift_2
Note_On_65_Vel_0
Time_Shift_2
Note_On_49_Vel_0
Time_Shift_7
Note_On_56_Vel_0
Time_Shift_70
Note_On_72_Vel_76
Time_Shift_39
Note_On_72_Vel_0
Time_Shift_115
Note_On_71_Vel_68
Note_On_55_Vel_49
Time_Shift_1
Note_On_65_Vel_55
Time_Shift_6
Note_On_62_Vel_53
Time_Shift_63
Note_On_62_Vel_0
Time_Shift_10
Note_On_65_Vel_0
Time_Shift_1
Note_On_55_Vel_0
Time_Shift_3
Note_On_71_Vel_0
Time_Shift_48
Note_On_67_Vel_68
Time_Shift_45
Note_On_67_Vel_0
Time_Shift_101
Note_On_71_Vel_66
Time_Shift_3
Note_On_65_Vel_49
Note_On_55_Vel_47
Time_Shift_3
Note_On_62_Vel_47
Time_Shift_34
Note_On_62_Vel_0
Time_Shift_3
Note_On_65_Vel_0
Time_Shift_1
Note_On_55_Vel_0
Note_On_71_Vel_0
Time_Shift_93
Note_On_74_Vel_64
Time_Shift_67
Note_On_74_Vel_0
Time_Shift_72
Note_On_72_Vel_68
Time_Shift_1
Note_On_63_Vel_58
Time_Shift_7
Note_On_55_Vel_43
Time_Shift_8
Note_On_48_Vel_37
Time_Shift_35
Note_On_72_Vel_0
Time_Shift_8
Note_On_63_Vel_0
Time_Shift_6
Note_On_55_Vel_0
Time_Shift_11
Note_On_48_Vel_0
Time_Shift_68
Note_On_67_Vel_64
Time_Shift_53
Note_On_67_Vel_0
Time_Shift_101
Note_On_63_Vel_64
Time_Shift_1
Note_On_69_Vel_64
Note_On_53_Vel_43
Note_On_60_Vel_46
Time_Shift_58
Note_On_69_Vel_0
Time_Shift_2
Note_On_63_Vel_0
Time_Shift_2
Note_On_60_Vel_0
Time_Shift_9
Note_On_53_Vel_0
Time_Shift_32
Sustain_On
Time_Shift_29
Note_On_65_Vel_62
Time_Shift_60
Note_On_65_Vel_0
Time_Shift_49
Sustain_Off
Time_Shift_47
Note_On_63_Vel_58
Time_Shift_1
Note_On_69_Vel_61
Time_Shift_3
Note_On_60_Vel_40
Note_On_53_Vel_43
Time_Shift_41
Note_On_60_Vel_0
Time_Shift_2
Note_On_63_Vel_0
Note_On_53_Vel_0
Time_Shift_1
Note_On_69_Vel_0
Time_Shift_95
Note_On_72_Vel_63
Time_Shift_36
Note_On_72_Vel_0
Time_Shift_125
Note_On_70_Vel_61
Time_Shift_2
Note_On_61_Vel_50
Time_Shift_12
Note_On_53_Vel_34
Time_Shift_1
Note_On_46_Vel_31
Time_Shift_46
Note_On_61_Vel_0
Time_Shift_16
Note_On_70_Vel_0
Time_Shift_1
Note_On_46_Vel_0
Note_On_53_Vel_0
Time_Shift_89
Note_On_68_Vel_70
Time_Shift_71
Note_On_68_Vel_0
Time_Shift_146
Note_On_61_Vel_55
Time_Shift_1
Note_On_58_Vel_46
Time_Shift_3
Note_On_67_Vel_71
Time_Shift_3
Note_On_51_Vel_47
Time_Shift_72
Sustain_On
Time_Shift_106
Note_On_63_Vel_75
Time_Shift_247
Note_On_51_Vel_0
Time_Shift_6
Note_On_68_Vel_76
Time_Shift_4
Note_On_60_Vel_55
Time_Shift_1
Note_On_51_Vel_48
Time_Shift_1
Note_On_44_Vel_50
Time_Shift_6
Sustain_Off
Time_Shift_9
Note_On_61_Vel_0
Time_Shift_1
Note_On_58_Vel_0
Note_On_67_Vel_0
Time_Shift_1
Note_On_63_Vel_0
Time_Shift_140
Sustain_On
Time_Shift_380
Note_On_72_Vel_78
Time_Shift_74
Note_On_60_Vel_0
Time_Shift_115
Note_On_73_Vel_79
Time_Shift_224
Note_On_70_Vel_72
Time_Shift_1
Note_On_39_Vel_55
Time_Shift_4
Sustain_Off
Time_Shift_5
Note_On_72_Vel_0
Note_On_68_Vel_0
Time_Shift_1
Note_On_44_Vel_0
Time_Shift_34
Note_On_51_Vel_0
Time_Shift_38
Sustain_On
Time_Shift_311
Note_On_72_Vel_57
Time_Shift_42
Note_On_70_Vel_0
Time_Shift_5
Note_On_70_Vel_70
Time_Shift_69
Note_On_61_Vel_46
Time_Shift_1
Note_On_55_Vel_44
Time_Shift_1
Note_On_51_Vel_40
Time_Shift_3
Note_On_69_Vel_74
Time_Shift_144
Note_On_70_Vel_0
Time_Shift_11
Note_On_70_Vel_79
Time_Shift_135
Note_On_51_Vel_0
Note_On_55_Vel_0
Note_On_73_Vel_0
Time_Shift_8
Note_On_61_Vel_0
Time_Shift_3
Note_On_51_Vel_43
Note_On_55_Vel_43
Note_On_73_Vel_79
Note_On_61_Vel_49
Time_Shift_156
Note_On_77_Vel_78
Time_Shift_133
Sustain_Off
Time_Shift_1
Note_On_73_Vel_0
Time_Shift_1
Note_On_72_Vel_0
Note_On_69_Vel_0
Time_Shift_1
Note_On_61_Vel_0
Note_On_70_Vel_0
Note_On_55_Vel_0
Time_Shift_1
Note_On_39_Vel_0
Time_Shift_2
Note_On_77_Vel_0
Time_Shift_24
Note_On_51_Vel_0
Time_Shift_6
Note_On_44_Vel_48
Time_Shift_6
Note_On_75_Vel_71
Time_Shift_73
Sustain_On
Time_Shift_78
Note_On_72_Vel_67
Time_Shift_148
Sustain_Off
Time_Shift_31
Note_On_68_Vel_56
Time_Shift_7
Note_On_72_Vel_0
Time_Shift_1
Note_On_75_Vel_0
Time_Shift_5
Note_On_60_Vel_42
Time_Shift_4
Note_On_56_Vel_40
Time_Shift_378
Note_On_60_Vel_0
Time_Shift_10
Note_On_60_Vel_42
Time_Shift_6
Note_On_51_Vel_41
Time_Shift_7
Sustain_On
Time_Shift_23
Note_On_68_Vel_0
Time_Shift_292
Note_On_44_Vel_0
Sustain_Off
Time_Shift_2
Note_On_51_Vel_0
Time_Shift_1
Note_On_60_Vel_0
Note_On_56_Vel_0
Time_Shift_8
Note_On_44_Vel_49
Time_Shift_74
Sustain_On
Time_Shift_248
Note_On_60_Vel_46
Time_Shift_2
Note_On_51_Vel_36
Time_Shift_7
Note_On_56_Vel_30
Time_Shift_373
Note_On_51_Vel_0
Time_Shift_2
Note_On_55_Vel_32
Time_Shift_1
Note_On_61_Vel_25
Time_Shift_1
Sustain_Off
Time_Shift_3
Note_On_44_Vel_0
Time_Shift_2
Note_On_56_Vel_0
Time_Shift_1
Note_On_60_Vel_0
Note_On_51_Vel_23
Time_Shift_80
Note_On_70_Vel_50
Time_Shift_25
Sustain_On
Time_Shift_150
Note_On_77_Vel_47
Time_Shift_169
Note_On_75_Vel_55
Time_Shift_17
Note_On_70_Vel_0
Time_Shift_2
Sustain_Off
Time_Shift_1
Note_On_44_Vel_32
Time_Shift_1
Note_On_51_Vel_0
Time_Shift_1
Note_On_61_Vel_0
Time_Shift_1
Note_On_55_Vel_0
Time_Shift_1
Note_On_77_Vel_0
Time_Shift_48
Sustain_On
Time_Shift_76
Note_On_72_Vel_50
Time_Shift_177
Note_On_68_Vel_42
Time_Shift_10
Note_On_51_Vel_24
Time_Shift_3
Note_On_60_Vel_13
Time_Shift_4
Note_On_56_Vel_30
Time_Shift_352
Note_On_60_Vel_0
Time_Shift_4
Note_On_60_Vel_34
Time_Shift_4
Note_On_56_Vel_0
Time_Shift_5
Note_On_56_Vel_17
Time_Shift_3
Note_On_51_Vel_0
Time_Shift_4
Note_On_51_Vel_19
Time_Shift_313
Note_On_75_Vel_0
Note_On_68_Vel_0
Note_On_56_Vel_0
Time_Shift_1
Note_On_72_Vel_0
Note_On_60_Vel_0
Note_On_51_Vel_0
Time_Shift_7
Sustain_Off
Time_Shift_5
Note_On_44_Vel_0
Time_Shift_4
Note_On_44_Vel_39
Time_Shift_11
Sustain_On
Time_Shift_322
Note_On_60_Vel_38
Time_Shift_4
Note_On_56_Vel_34
Time_Shift_2
Note_On_51_Vel_27
Time_Shift_425
Note_On_51_Vel_0
Time_Shift_2
Note_On_70_Vel_49
Time_Shift_6
Note_On_61_Vel_33
Time_Shift_1
Note_On_51_Vel_30
Time_Shift_2
Note_On_55_Vel_29
Time_Shift_21
Note_On_60_Vel_0
Time_Shift_4
Note_On_56_Vel_0
Time_Shift_197
Note_On_76_Vel_54
Time_Shift_221
Note_On_75_Vel_52
Time_Shift_30
Note_On_44_Vel_0
Time_Shift_10
Note_On_44_Vel_36
Time_Shift_10
Sustain_Off
Time_Shift_7
Note_On_70_Vel_0
Time_Shift_5
Note_On_61_Vel_0
Time_Shift_1
Note_On_55_Vel_0
Time_Shift_3
Note_On_76_Vel_0
Time_Shift_25
Sustain_On
Time_Shift_77
Note_On_51_Vel_0
Time_Shift_13
Note_On_72_Vel_55
Time_Shift_170
Note_On_68_Vel_50
Time_Shift_7
Note_On_60_Vel_36
Time_Shift_9
Note_On_56_Vel_36
Time_Shift_2
Note_On_51_Vel_30
Time_Shift_295
Note_On_55_Vel_30
Time_Shift_1
Note_On_61_Vel_35
Time_Shift_10
Note_On_51_Vel_0
Time_Shift_3
Sustain_Off
Time_Shift_1
Note_On_60_Vel_0
Note_On_72_Vel_0
Note_On_75_Vel_0
Time_Shift_7
Note_On_51_Vel_25
Time_Shift_10
Note_On_70_Vel_57
Time_Shift_17
Sustain_On
Time_Shift_128
Note_On_77_Vel_60
Time_Shift_149
Note_On_44_Vel_0
Time_Shift_7
Note_On_44_Vel_41
Note_On_75_Vel_58
Time_Shift_5
Sustain_Off
Time_Shift_8
Note_On_70_Vel_0
Note_On_51_Vel_0
Time_Shift_3
Note_On_56_Vel_0
Note_On_68_Vel_0
Time_Shift_3
Note_On_61_Vel_0
Note_On_55_Vel_0
Time_Shift_1
Note_On_77_Vel_0
Time_Shift_11
Sustain_On
Time_Shift_113
Note_On_72_Vel_58
Time_Shift_152
Note_On_72_Vel_0
Time_Shift_12
Note_On_60_Vel_37
Time_Shift_3
Note_On_68_Vel_46
Time_Shift_4
Note_On_56_Vel_34
Time_Shift_4
Note_On_51_Vel_25
Time_Shift_112
Note_On_75_Vel_0
Time_Shift_302
Note_On_61_Vel_35
Time_Shift_5
Note_On_51_Vel_0
Time_Shift_3
Note_On_55_Vel_28
Time_Shift_7
Note_On_51_Vel_26
Time_Shift_12
Sustain_Off
Time_Shift_6
Note_On_56_Vel_0
Time_Shift_5
Note_On_60_Vel_0
Time_Shift_1
Note_On_68_Vel_0
Time_Shift_20
Sustain_On
Note_On_70_Vel_48
Time_Shift_216
Note_On_76_Vel_48
Time_Shift_217
Note_On_75_Vel_50
Time_Shift_12
Note_On_51_Vel_0
Time_Shift_6
Note_On_60_Vel_31
Time_Shift_5
Note_On_51_Vel_24
Time_Shift_3
Note_On_56_Vel_30
Time_Shift_8
Note_On_55_Vel_0
Time_Shift_1
Note_On_70_Vel_0
Time_Shift_3
Note_On_61_Vel_0
Time_Shift_3
Sustain_Off
Time_Shift_9
Sustain_On
Time_Shift_150
Note_On_68_Vel_53
Time_Shift_142
Note_On_76_Vel_0
Time_Shift_35
Note_On_55_Vel_37
Time_Shift_2
Note_On_61_Vel_39
Time_Shift_2
Note_On_51_Vel_0
Time_Shift_1
Note_On_70_Vel_60
Time_Shift_6
Note_On_51_Vel_31
Time_Shift_158
Note_On_77_Vel_57
Time_Shift_150
Note_On_51_Vel_0
Note_On_56_Vel_0
Note_On_60_Vel_0
Note_On_75_Vel_0
Time_Shift_4
Note_On_75_Vel_67
Time_Shift_1
Note_On_60_Vel_41
Time_Shift_1
Note_On_51_Vel_32
Time_Shift_4
Note_On_56_Vel_43
Time_Shift_10
Sustain_Off
Time_Shift_6
Note_On_55_Vel_0
Time_Shift_1
Note_On_68_Vel_0
Time_Shift_1
Note_On_61_Vel_0
Time_Shift_33
Sustain_On
Time_Shift_88
Note_On_68_Vel_58
Time_Shift_158
Note_On_70_Vel_0
Time_Shift_7
Note_On_70_Vel_67
Time_Shift_5
Sustain_Off
Time_Shift_2
Note_On_61_Vel_40
Time_Shift_1
Note_On_51_Vel_0
Time_Shift_8
Note_On_60_Vel_0
Note_On_55_Vel_40
Time_Shift_3
Note_On_51_Vel_33
Time_Shift_12
Sustain_On
Time_Shift_129
Note_On_76_Vel_61
Time_Shift_171
Note_On_75_Vel_0
Time_Shift_4
Note_On_75_Vel_65
Time_Shift_3
Note_On_56_Vel_0
Time_Shift_2
Note_On_60_Vel_40
Time_Shift_1
Sustain_Off
Time_Shift_5
Note_On_51_Vel_0
Time_Shift_2
Note_On_56_Vel_39
Time_Shift_4
Note_On_51_Vel_22
Note_On_55_Vel_0
Time_Shift_1
Note_On_68_Vel_0
Note_On_77_Vel_0
Time_Shift_1
Note_On_70_Vel_0
Time_Shift_1
Note_On_61_Vel_0
Time_Shift_2
Note_On_76_Vel_0
Time_Shift_20
Sustain_On
Time_Shift_149
Note_On_68_Vel_55
Time_Shift_242
Note_On_51_Vel_0
Time_Shift_2
Note_On_70_Vel_57
Time_Shift_5
Note_On_61_Vel_34
Time_Shift_2
Note_On_55_Vel_31
Time_Shift_3
Note_On_51_Vel_33
Time_Shift_2
Note_On_60_Vel_0
Time_Shift_6
Note_On_75_Vel_0
Time_Shift_4
Note_On_68_Vel_0
Time_Shift_7
Note_On_44_Vel_0
Time_Shift_4
Sustain_Off
Time_Shift_4
Note_On_56_Vel_0
Time_Shift_61
Sustain_On
Time_Shift_180
Note_On_77_Vel_51
Time_Shift_445
Note_On_44_Vel_33
Time_Shift_17
Note_On_75_Vel_56
Time_Shift_71
Sustain_Off
Time_Shift_13
Note_On_51_Vel_0
Time_Shift_1
Note_On_70_Vel_0
Time_Shift_4
Note_On_77_Vel_0
Time_Shift_14
Note_On_61_Vel_0
Time_Shift_23
Note_On_55_Vel_0
Time_Shift_77
Sustain_On
Time_Shift_177
Note_On_44_Vel_0
Time_Shift_450
Note_On_60_Vel_33
Time_Shift_2
Note_On_51_Vel_26
Time_Shift_298
Note_On_74_Vel_45
Time_Shift_296
Note_On_77_Vel_40
Time_Shift_175
Note_On_75_Vel_0
Time_Shift_11
Note_On_75_Vel_44
Time_Shift_158
Note_On_74_Vel_0
Time_Shift_4
Note_On_74_Vel_49
Time_Shift_149
Note_On_77_Vel_0
Time_Shift_11
Note_On_77_Vel_48
Time_Shift_120
Note_On_75_Vel_0
Time_Shift_6
Note_On_75_Vel_52
Time_Shift_132
Note_On_74_Vel_0
Time_Shift_5
Note_On_74_Vel_54
Time_Shift_141
Note_On_77_Vel_0
Time_Shift_6
Note_On_77_Vel_51
Time_Shift_117
Note_On_75_Vel_0
Time_Shift_6
Note_On_75_Vel_55
Time_Shift_140
Note_On_74_Vel_0
Time_Shift_5
Note_On_74_Vel_62
Time_Shift_149
Note_On_77_Vel_0
Time_Shift_8
Note_On_77_Vel_51
Time_Shift_130
Note_On_75_Vel_0
Time_Shift_4
Note_On_75_Vel_55
Time_Shift_126
Note_On_74_Vel_0
Time_Shift_12
Note_On_74_Vel_52
Time_Shift_180
Note_On_77_Vel_0
Time_Shift_9
Note_On_77_Vel_42
Time_Shift_130
Note_On_75_Vel_0
Time_Shift_5
Note_On_75_Vel_49
Time_Shift_141
Note_On_74_Vel_0
Time_Shift_10
Note_On_74_Vel_53
Time_Shift_166
Note_On_77_Vel_0
Time_Shift_9
Note_On_77_Vel_37
Time_Shift_145
Note_On_75_Vel_0
Time_Shift_5
Note_On_75_Vel_48
Time_Shift_133
Note_On_74_Vel_0
Time_Shift_7
Note_On_74_Vel_48
Time_Shift_185
Note_On_77_Vel_0
Time_Shift_10
Note_On_77_Vel_42
Time_Shift_151
Note_On_75_Vel_0
Time_Shift_6
Note_On_75_Vel_52
Time_Shift_198
Note_On_73_Vel_54
Time_Shift_127
Note_On_51_Vel_0
Note_On_60_Vel_0
Time_Shift_84
Note_On_77_Vel_0
Time_Shift_5
Note_On_77_Vel_41
Time_Shift_156
Note_On_75_Vel_0
Time_Shift_5
Note_On_75_Vel_43
Time_Shift_190
Note_On_72_Vel_48
Time_Shift_212
Sustain_Off
Time_Shift_12
Note_On_74_Vel_0
Time_Shift_14
Note_On_75_Vel_0
Time_Shift_5
Note_On_77_Vel_0
Time_Shift_8
Note_On_73_Vel_0
Time_Shift_3
Note_On_77_Vel_38
Time_Shift_170
Note_On_72_Vel_0
Time_Shift_80
Note_On_75_Vel_42
Time_Shift_115
Note_On_77_Vel_0
Time_Shift_418
Note_On_80_Vel_46
Time_Shift_169
Note_On_75_Vel_0
Time_Shift_1426
Sustain_On
Time_Shift_261
Sustain_Off
Time_Shift_84
Sustain_On
Time_Shift_23
Sustain_Off
Time_Shift_400
Note_On_80_Vel_0
Sustain_On
Time_Shift_3256
Sustain_Off
