Ticks_Per_Beat_384
Tempo_500000
Time_Shift_1461
Note_On_67_Vel_53
Time_Shift_90
Sustain_On
Time_Shift_999
Note_On_72_Vel_56
Time_Shift_34
Note_On_36_Vel_36
Time_Shift_17
Sustain_Off
Time_Shift_71
Note_On_67_Vel_0
Time_Shift_16
Sustain_On
Time_Shift_577
Note_On_55_Vel_37
Time_Shift_178
Note_On_74_Vel_55
Time_Shift_177
Note_On_75_Vel_70
Time_Shift_38
Note_On_60_Vel_38
Time_Shift_4
Note_On_63_Vel_38
Time_Shift_346
Note_On_55_Vel_0
Time_Shift_6
Note_On_55_Vel_46
Time_Shift_153
Note_On_77_Vel_74
Time_Shift_176
Note_On_79_Vel_77
Time_Shift_16
Sustain_Off
Time_Shift_1
Note_On_48_Vel_42
Time_Shift_3
Note_On_72_Vel_0
Time_Shift_1
Note_On_63_Vel_0
Note_On_74_Vel_0
Time_Shift_1
Note_On_60_Vel_0
Note_On_75_Vel_0
Time_Shift_1
Note_On_55_Vel_0
Note_On_77_Vel_0
Time_Shift_26
Note_On_36_Vel_0
Time_Shift_24
Sustain_On
Time_Shift_306
Note_On_55_Vel_57
Time_Shift_331
Note_On_79_Vel_0
Time_Shift_5
Note_On_79_Vel_77
Time_Shift_20
Note_On_60_Vel_44
Time_Shift_3
Note_On_67_Vel_45
Time_Shift_3
Note_On_63_Vel_45
Time_Shift_6
Note_On_75_Vel_46
Time_Shift_355
Note_On_55_Vel_0
Time_Shift_9
Note_On_55_Vel_52
Time_Shift_367
Note_On_48_Vel_0
Time_Shift_4
Note_On_48_Vel_51
Time_Shift_46
Note_On_78_Vel_76
Time_Shift_29
Sustain_Off
Time_Shift_6
Note_On_60_Vel_0
Note_On_63_Vel_0
Time_Shift_1
Note_On_67_Vel_0
Note_On_55_Vel_0
Time_Shift_2
Note_On_75_Vel_0
Time_Shift_27
Note_On_79_Vel_0
Time_Shift_54
Sustain_On
Time_Shift_386
Note_On_55_Vel_47
Time_Shift_148
Note_On_79_Vel_72
Time_Shift_163
Note_On_59_Vel_38
Time_Shift_43
Note_On_65_Vel_36
Time_Shift_74
Note_On_79_Vel_0
Time_Shift_6
Note_On_79_Vel_69
Time_Shift_94
Note_On_48_Vel_0
Time_Shift_9
Note_On_82_Vel_69
Time_Shift_105
Note_On_80_Vel_66
Time_Shift_416
Note_On_55_Vel_0
Time_Shift_11
Note_On_55_Vel_30
Time_Shift_273
Note_On_79_Vel_0
Time_Shift_5
Note_On_79_Vel_49
Time_Shift_206
Note_On_72_Vel_40
Time_Shift_40
Note_On_48_Vel_36
Time_Shift_14
Note_On_65_Vel_0
Note_On_82_Vel_0
Note_On_80_Vel_0
Note_On_59_Vel_0
Time_Shift_2
Sustain_Off
Time_Shift_9
Note_On_78_Vel_0
Time_Shift_16
Note_On_55_Vel_0
Time_Shift_77
Sustain_On
Time_Shift_288
Note_On_55_Vel_37
Time_Shift_353
Note_On_63_Vel_36
Note_On_60_Vel_38
Time_Shift_472
Note_On_55_Vel_0
Time_Shift_5
Note_On_55_Vel_31
Time_Shift_627
Note_On_74_Vel_60
Time_Shift_13
Note_On_43_Vel_37
Time_Shift_39
Note_On_48_Vel_0
Time_Shift_20
Sustain_Off
Note_On_63_Vel_0
Time_Shift_3
Note_On_72_Vel_0
Time_Shift_7
Note_On_60_Vel_0
Note_On_79_Vel_0
Time_Shift_23
Note_On_55_Vel_0
Time_Shift_70
Sustain_On
Time_Shift_288
Note_On_55_Vel_38
Time_Shift_169
Note_On_67_Vel_65
Time_Shift_162
Note_On_59_Vel_45
Time_Shift_50
Note_On_65_Vel_40
Time_Shift_60
Note_On_67_Vel_0
Time_Shift_7
Note_On_67_Vel_64
Time_Shift_97
Note_On_70_Vel_66
Time_Shift_93
Note_On_68_Vel_69
Time_Shift_318
Note_On_55_Vel_0
Time_Shift_4
Note_On_55_Vel_51
Time_Shift_134
Note_On_55_Vel_0
Time_Shift_10
Note_On_55_Vel_32
Time_Shift_28
Note_On_67_Vel_0
Time_Shift_7
Note_On_67_Vel_62
Time_Shift_132
Note_On_67_Vel_0
Time_Shift_5
Note_On_67_Vel_62
Time_Shift_16
Sustain_Off
Time_Shift_4
Note_On_55_Vel_0
Time_Shift_1
Note_On_65_Vel_0
Note_On_59_Vel_0
Note_On_68_Vel_0
Note_On_70_Vel_0
Time_Shift_5
Note_On_43_Vel_0
Time_Shift_1
Note_On_48_Vel_36
Time_Shift_83
Sustain_On
Time_Shift_243
Note_On_55_Vel_51
Time_Shift_330
Sustain_Off
Time_Shift_15
Note_On_72_Vel_70
Time_Shift_30
Note_On_60_Vel_29
Time_Shift_1
Note_On_63_Vel_48
Time_Shift_41
Sustain_On
Time_Shift_331
Note_On_55_Vel_0
Time_Shift_10
Note_On_55_Vel_48
Time_Shift_496
Note_On_72_Vel_0
Time_Shift_6
Note_On_72_Vel_62
Time_Shift_28
Note_On_43_Vel_47
Time_Shift_59
Note_On_60_Vel_0
Time_Shift_7
Sustain_Off
Time_Shift_23
Note_On_48_Vel_0
Time_Shift_62
Sustain_On
Time_Shift_77
Note_On_74_Vel_0
Time_Shift_36
Note_On_74_Vel_60
Time_Shift_102
Note_On_55_Vel_0
Time_Shift_9
Note_On_55_Vel_44
Time_Shift_60
Note_On_72_Vel_0
Time_Shift_7
Note_On_72_Vel_61
Time_Shift_146
Note_On_71_Vel_61
Time_Shift_116
Note_On_72_Vel_0
Time_Shift_4
Note_On_72_Vel_67
Time_Shift_43
Note_On_60_Vel_52
Time_Shift_22
Note_On_63_Vel_0
Time_Shift_6
Note_On_63_Vel_42
Time_Shift_40
Note_On_74_Vel_0
Time_Shift_9
Note_On_74_Vel_74
Time_Shift_103
Note_On_75_Vel_75
Time_Shift_101
Note_On_76_Vel_68
Time_Shift_105
Note_On_77_Vel_73
Time_Shift_139
Note_On_78_Vel_70
Time_Shift_4
Note_On_55_Vel_0
Time_Shift_5
Note_On_55_Vel_43
Time_Shift_187
Note_On_72_Vel_0
Time_Shift_2
Note_On_80_Vel_68
Time_Shift_4
Note_On_72_Vel_39
Time_Shift_265
Note_On_79_Vel_57
Time_Shift_343
Note_On_74_Vel_0
Time_Shift_7
Note_On_74_Vel_58
Time_Shift_24
Note_On_43_Vel_0
Time_Shift_11
Note_On_43_Vel_37
Time_Shift_41
Sustain_Off
Time_Shift_6
Note_On_72_Vel_0
Note_On_75_Vel_0
Note_On_80_Vel_0
Note_On_71_Vel_0
Note_On_55_Vel_0
Note_On_78_Vel_0
Note_On_77_Vel_0
Note_On_63_Vel_0
Time_Shift_1
Note_On_60_Vel_0
Time_Shift_1
Note_On_79_Vel_0
Time_Shift_1
Note_On_67_Vel_0
Time_Shift_8
Note_On_76_Vel_0
Time_Shift_123
Sustain_On
Time_Shift_249
Note_On_55_Vel_33
Time_Shift_409
Note_On_62_Vel_39
Time_Shift_4
Note_On_59_Vel_34
Time_Shift_536
Note_On_55_Vel_0
Time_Shift_8
Note_On_55_Vel_33
Time_Shift_553
Note_On_43_Vel_0
Time_Shift_154
Note_On_72_Vel_41
Time_Shift_51
Note_On_48_Vel_26
Note_On_60_Vel_19
Time_Shift_122
Sustain_Off
Time_Shift_6
Note_On_74_Vel_0
Note_On_62_Vel_0
Note_On_55_Vel_0
Time_Shift_1
Note_On_59_Vel_0
Time_Shift_88
Sustain_On
Time_Shift_155
Note_On_55_Vel_37
Time_Shift_176
Note_On_74_Vel_63
Time_Shift_22
Note_On_60_Vel_0
Time_Shift_135
Note_On_75_Vel_74
Time_Shift_26
Note_On_63_Vel_41
Time_Shift_6
Note_On_60_Vel_41
Time_Shift_348
Note_On_55_Vel_0
Time_Shift_10
Note_On_55_Vel_47
Time_Shift_151
Note_On_77_Vel_75
Time_Shift_192
Note_On_48_Vel_0
Time_Shift_2
Note_On_79_Vel_81
Time_Shift_9
Note_On_48_Vel_48
Time_Shift_34
Note_On_72_Vel_0
Time_Shift_1
Note_On_55_Vel_0
Time_Shift_1
Note_On_74_Vel_0
Note_On_63_Vel_0
Note_On_60_Vel_0
Time_Shift_1
Note_On_75_Vel_0
Time_Shift_1
Note_On_77_Vel_0
Time_Shift_4
Sustain_Off
Time_Shift_78
Sustain_On
Time_Shift_201
Note_On_55_Vel_48
Time_Shift_359
Note_On_79_Vel_0
Time_Shift_11
Note_On_79_Vel_86
Time_Shift_2
Note_On_67_Vel_57
Time_Shift_1
Note_On_60_Vel_47
Note_On_63_Vel_48
Time_Shift_370
Note_On_55_Vel_0
Time_Shift_6
Note_On_55_Vel_61
Time_Shift_340
Note_On_48_Vel_0
Time_Shift_6
Note_On_48_Vel_54
Time_Shift_58
Sustain_Off
Time_Shift_10
Note_On_67_Vel_0
Note_On_55_Vel_0
Note_On_78_Vel_85
Time_Shift_1
Note_On_63_Vel_0
Time_Shift_1
Note_On_60_Vel_0
Time_Shift_2
Note_On_79_Vel_0
Time_Shift_68
Sustain_On
Time_Shift_327
Note_On_55_Vel_62
Time_Shift_174
Note_On_79_Vel_75
Time_Shift_225
Note_On_59_Vel_48
Time_Shift_68
Note_On_65_Vel_39
Time_Shift_74
Note_On_79_Vel_0
Time_Shift_5
Note_On_79_Vel_67
Time_Shift_104
Note_On_82_Vel_69
Time_Shift_100
Note_On_80_Vel_67
Time_Shift_466
Note_On_55_Vel_0
Time_Shift_7
Note_On_55_Vel_39
Time_Shift_278
Note_On_79_Vel_0
Time_Shift_3
Note_On_79_Vel_49
Time_Shift_112
Note_On_48_Vel_0
Time_Shift_105
Note_On_72_Vel_46
Time_Shift_19
Note_On_48_Vel_34
Time_Shift_2
Note_On_82_Vel_0
Note_On_79_Vel_0
Note_On_59_Vel_0
Time_Shift_1
Note_On_65_Vel_0
Note_On_80_Vel_0
Note_On_55_Vel_0
Time_Shift_1
Sustain_Off
Time_Shift_2
Note_On_78_Vel_0
Time_Shift_77
Sustain_On
Time_Shift_266
Note_On_55_Vel_28
Time_Shift_331
Note_On_63_Vel_39
Time_Shift_8
Note_On_60_Vel_32
Time_Shift_10
Note_On_55_Vel_0
Time_Shift_9
Note_On_55_Vel_20
Time_Shift_382
Note_On_55_Vel_0
Time_Shift_5
Note_On_55_Vel_35
Time_Shift_425
Note_On_43_Vel_41
Time_Shift_52
Note_On_74_Vel_61
Time_Shift_10
Note_On_72_Vel_0
Time_Shift_3
Note_On_63_Vel_0
Time_Shift_1
Note_On_60_Vel_0
Time_Shift_1
Note_On_55_Vel_0
Note_On_48_Vel_0
Time_Shift_7
Sustain_Off
Time_Shift_141
Sustain_On
Time_Shift_222
Note_On_55_Vel_37
Time_Shift_142
Note_On_67_Vel_61
Time_Shift_209
Note_On_59_Vel_41
Time_Shift_37
Note_On_65_Vel_38
Time_Shift_51
Note_On_67_Vel_0
Time_Shift_11
Note_On_67_Vel_63
Time_Shift_92
Note_On_70_Vel_54
Time_Shift_75
Note_On_68_Vel_66
Time_Shift_359
Note_On_55_Vel_0
Time_Shift_6
Note_On_55_Vel_49
Time_Shift_163
Note_On_67_Vel_0
Time_Shift_11
Note_On_67_Vel_69
Time_Shift_158
Note_On_67_Vel_0
Time_Shift_8
Note_On_67_Vel_64
Time_Shift_56
Note_On_48_Vel_51
Time_Shift_41
Note_On_59_Vel_0
Note_On_55_Vel_0
Note_On_68_Vel_0
Time_Shift_1
Note_On_65_Vel_0
Time_Shift_2
Note_On_70_Vel_0
Time_Shift_2
Sustain_Off
Time_Shift_59
Sustain_On
Time_Shift_205
Note_On_55_Vel_60
Time_Shift_336
Note_On_72_Vel_65
Time_Shift_32
Note_On_60_Vel_48
Time_Shift_5
Note_On_63_Vel_46
Time_Shift_175
Note_On_43_Vel_0
Time_Shift_184
Note_On_55_Vel_0
Time_Shift_10
Note_On_55_Vel_51
Time_Shift_385
Note_On_43_Vel_52
Time_Shift_58
Note_On_74_Vel_0
Time_Shift_9
Note_On_74_Vel_59
Time_Shift_254
Note_On_75_Vel_67
Time_Shift_14
Note_On_43_Vel_0
Time_Shift_5
Note_On_43_Vel_36
Time_Shift_26
Note_On_63_Vel_0
Time_Shift_1
Note_On_48_Vel_0
Time_Shift_2
Note_On_60_Vel_0
Time_Shift_5
Sustain_Off
Time_Shift_53
Sustain_On
Time_Shift_31
Note_On_55_Vel_0
Time_Shift_11
Note_On_55_Vel_44
Time_Shift_19
Note_On_74_Vel_0
Time_Shift_12
Note_On_74_Vel_68
Time_Shift_165
Note_On_72_Vel_0
Time_Shift_8
Note_On_72_Vel_64
Time_Shift_184
Note_On_74_Vel_0
Time_Shift_4
Note_On_74_Vel_65
Time_Shift_222
Note_On_59_Vel_40
Time_Shift_35
Note_On_75_Vel_0
Time_Shift_7
Note_On_65_Vel_27
Note_On_75_Vel_58
Time_Shift_51
Note_On_74_Vel_0
Time_Shift_1
Note_On_72_Vel_0
Time_Shift_2
Note_On_55_Vel_0
Time_Shift_5
Sustain_Off
Time_Shift_88
Note_On_43_Vel_0
Note_On_67_Vel_0
Time_Shift_46
Sustain_On
Time_Shift_480
Note_On_55_Vel_33
Time_Shift_392
Note_On_74_Vel_46
Time_Shift_235
Note_On_72_Vel_47
Time_Shift_34
Note_On_48_Vel_32
Note_On_60_Vel_24
Time_Shift_2
Note_On_67_Vel_28
Time_Shift_29
Sustain_Off
Time_Shift_7
Note_On_55_Vel_0
Time_Shift_1
Note_On_65_Vel_0
Time_Shift_1
Note_On_74_Vel_0
Time_Shift_1
Note_On_59_Vel_0
Time_Shift_77
Note_On_60_Vel_0
Time_Shift_62
Sustain_On
Time_Shift_8
Note_On_75_Vel_0
Time_Shift_333
Note_On_55_Vel_37
Time_Shift_478
Note_On_63_Vel_38
Time_Shift_37
Note_On_60_Vel_23
Time_Shift_549
Note_On_67_Vel_0
Time_Shift_5
Note_On_67_Vel_43
Time_Shift_3
Note_On_55_Vel_0
Time_Shift_9
Note_On_55_Vel_30
Time_Shift_762
Note_On_36_Vel_47
Time_Shift_39
Note_On_55_Vel_0
Note_On_63_Vel_0
Note_On_67_Vel_0
Note_On_48_Vel_0
Time_Shift_1
Note_On_60_Vel_0
Time_Shift_3
Note_On_72_Vel_0
Time_Shift_4
Sustain_Off
Time_Shift_2
Note_On_72_Vel_58
Time_Shift_48
Sustain_On
Time_Shift_207
Note_On_36_Vel_0
Time_Shift_364
Note_On_55_Vel_48
Time_Shift_171
Note_On_74_Vel_69
Time_Shift_174
Note_On_75_Vel_80
Time_Shift_42
Note_On_63_Vel_34
Time_Shift_3
Note_On_60_Vel_35
Time_Shift_321
Note_On_55_Vel_0
Time_Shift_11
Note_On_55_Vel_47
Time_Shift_168
Note_On_77_Vel_70
Time_Shift_165
Note_On_79_Vel_78
Time_Shift_44
Note_On_48_Vel_49
Time_Shift_24
Note_On_72_Vel_0
Note_On_55_Vel_0
Time_Shift_1
Note_On_74_Vel_0
Note_On_75_Vel_0
Note_On_60_Vel_0
Time_Shift_1
Note_On_63_Vel_0
Time_Shift_2
Note_On_77_Vel_0
Time_Shift_265
Note_On_55_Vel_52
Time_Shift_295
Note_On_79_Vel_0
Time_Shift_11
Note_On_79_Vel_79
Time_Shift_18
Note_On_63_Vel_49
Time_Shift_6
Note_On_60_Vel_40
Time_Shift_303
Note_On_55_Vel_0
Time_Shift_5
Note_On_55_Vel_46
Time_Shift_294
Note_On_48_Vel_0
Time_Shift_5
Note_On_48_Vel_44
Time_Shift_5
Note_On_78_Vel_79
Time_Shift_71
Note_On_63_Vel_0
Note_On_55_Vel_0
Note_On_60_Vel_0
Note_On_79_Vel_0
Time_Shift_8
Sustain_Off
Time_Shift_111
Sustain_On
Time_Shift_181
Note_On_55_Vel_50
Time_Shift_170
Note_On_79_Vel_73
Time_Shift_198
Note_On_59_Vel_39
Time_Shift_46
Note_On_65_Vel_36
Time_Shift_73
Note_On_78_Vel_0
Note_On_79_Vel_0
Time_Shift_8
Note_On_79_Vel_58
Time_Shift_111
Note_On_82_Vel_63
Time_Shift_119
Note_On_80_Vel_55
Time_Shift_353
Note_On_55_Vel_0
Time_Shift_9
Note_On_55_Vel_20
Time_Shift_237
Note_On_79_Vel_0
Time_Shift_11
Note_On_79_Vel_44
Time_Shift_207
Note_On_72_Vel_46
Time_Shift_20
Note_On_48_Vel_0
Time_Shift_5
Note_On_48_Vel_31
Time_Shift_12
Note_On_55_Vel_0
Time_Shift_1
Note_On_65_Vel_0
Note_On_82_Vel_0
Note_On_59_Vel_0
Note_On_79_Vel_0
Note_On_80_Vel_0
Time_Shift_2
Sustain_Off
Time_Shift_57
Sustain_On
Time_Shift_248
Note_On_55_Vel_34
Time_Shift_347
Note_On_63_Vel_37
Time_Shift_17
Note_On_60_Vel_32
Time_Shift_340
Note_On_55_Vel_0
Time_Shift_12
Note_On_55_Vel_29
Time_Shift_454
Note_On_43_Vel_36
Time_Shift_1
Note_On_74_Vel_57
Time_Shift_63
Note_On_72_Vel_0
Time_Shift_7
Sustain_Off
Time_Shift_6
Note_On_63_Vel_0
Note_On_60_Vel_0
Note_On_55_Vel_0
Time_Shift_1
Note_On_48_Vel_0
Time_Shift_101
Sustain_On
Time_Shift_267
Note_On_55_Vel_31
Time_Shift_176
Note_On_67_Vel_56
Time_Shift_170
Note_On_59_Vel_42
Time_Shift_52
Note_On_65_Vel_33
Time_Shift_73
Note_On_67_Vel_0
Time_Shift_4
Note_On_67_Vel_55
Time_Shift_87
Note_On_70_Vel_61
Time_Shift_85
Note_On_68_Vel_66
Time_Shift_292
Note_On_55_Vel_0
Time_Shift_10
Note_On_55_Vel_48
Time_Shift_144
Note_On_67_Vel_0
Time_Shift_10
Note_On_67_Vel_71
Time_Shift_136
Note_On_67_Vel_0
Time_Shift_9
Note_On_67_Vel_63
Time_Shift_44
Note_On_48_Vel_47
Time_Shift_1
Note_On_43_Vel_0
Time_Shift_22
Note_On_55_Vel_0
Time_Shift_1
Note_On_65_Vel_0
Note_On_59_Vel_0
Time_Shift_1
Note_On_68_Vel_0
Time_Shift_1
Note_On_70_Vel_0
Time_Shift_1
Note_On_74_Vel_0
Time_Shift_1
Sustain_Off
Time_Shift_72
Sustain_On
Time_Shift_219
Note_On_55_Vel_50
Time_Shift_299
Note_On_72_Vel_66
Time_Shift_38
Note_On_63_Vel_46
Time_Shift_2
Note_On_60_Vel_38
Time_Shift_341
Note_On_55_Vel_0
Time_Shift_5
Note_On_55_Vel_54
Time_Shift_327
Note_On_43_Vel_52
Time_Shift_75
Note_On_72_Vel_0
Time_Shift_5
Note_On_72_Vel_53
Time_Shift_81
Note_On_63_Vel_0
Time_Shift_2
Note_On_60_Vel_0
Time_Shift_1
Note_On_48_Vel_0
Time_Shift_2
Note_On_55_Vel_0
Time_Shift_5
Sustain_Off
Time_Shift_11
Note_On_67_Vel_0
Time_Shift_77
Sustain_On
Time_Shift_61
Note_On_74_Vel_58
Time_Shift_113
Note_On_54_Vel_47
Time_Shift_49
Note_On_72_Vel_0
Time_Shift_11
Note_On_72_Vel_57
Time_Shift_153
Note_On_71_Vel_60
Time_Shift_105
Note_On_72_Vel_0
Time_Shift_4
Note_On_72_Vel_54
Time_Shift_96
Note_On_74_Vel_0
Time_Shift_11
Note_On_74_Vel_63
Note_On_60_Vel_47
Time_Shift_2
Note_On_63_Vel_46
Time_Shift_101
Note_On_75_Vel_65
Time_Shift_98
Note_On_76_Vel_60
Time_Shift_113
Note_On_77_Vel_68
Time_Shift_176
Note_On_78_Vel_73
Time_Shift_59
Note_On_54_Vel_0
Time_Shift_6
Note_On_54_Vel_45
Time_Shift_148
Note_On_74_Vel_0
Time_Shift_6
Note_On_80_Vel_71
Time_Shift_5
Note_On_74_Vel_42
Time_Shift_268
Note_On_79_Vel_51
Time_Shift_251
Note_On_74_Vel_0
Time_Shift_4
Note_On_74_Vel_61
Time_Shift_19
Note_On_43_Vel_0
Time_Shift_4
Note_On_43_Vel_41
Time_Shift_43
Sustain_Off
Time_Shift_5
Note_On_78_Vel_0
Time_Shift_2
Note_On_75_Vel_0
Time_Shift_1
Note_On_63_Vel_0
Note_On_72_Vel_0
Note_On_77_Vel_0
Time_Shift_1
Note_On_54_Vel_0
Note_On_76_Vel_0
Note_On_79_Vel_0
Note_On_60_Vel_0
Time_Shift_1
Note_On_80_Vel_0
Time_Shift_20
Note_On_71_Vel_0
Time_Shift_69
Sustain_On
Time_Shift_192
Note_On_43_Vel_0
Time_Shift_57
Note_On_55_Vel_31
Time_Shift_366
Note_On_62_Vel_37
Time_Shift_3
Note_On_59_Vel_32
Time_Shift_449
Note_On_55_Vel_0
Time_Shift_5
Note_On_55_Vel_23
Time_Shift_593
Note_On_72_Vel_41
Time_Shift_28
Note_On_48_Vel_25
Time_Shift_122
Note_On_59_Vel_0
Note_On_55_Vel_0
Time_Shift_1
Note_On_62_Vel_0
Time_Shift_11
Sustain_Off
Time_Shift_8
Note_On_74_Vel_0
Time_Shift_108
Sustain_On
Time_Shift_208
Note_On_55_Vel_33
Time_Shift_150
Note_On_74_Vel_58
Time_Shift_157
Note_On_75_Vel_66
Time_Shift_22
Note_On_55_Vel_0
Time_Shift_7
Note_On_55_Vel_29
Time_Shift_13
Note_On_63_Vel_35
Time_Shift_19
Note_On_60_Vel_34
Time_Shift_284
Note_On_55_Vel_0
Time_Shift_11
Note_On_55_Vel_46
Time_Shift_125
Note_On_77_Vel_69
Time_Shift_160
Note_On_79_Vel_81
Time_Shift_19
Note_On_48_Vel_0
Time_Shift_4
Note_On_48_Vel_51
Time_Shift_50
Note_On_72_Vel_0
Time_Shift_1
Note_On_63_Vel_0
Note_On_74_Vel_0
Time_Shift_1
Note_On_60_Vel_0
Note_On_55_Vel_0
Note_On_75_Vel_0
Time_Shift_2
Note_On_77_Vel_0
Time_Shift_258
Note_On_55_Vel_53
Time_Shift_291
Note_On_79_Vel_0
Time_Shift_9
Note_On_79_Vel_78
Time_Shift_6
Note_On_55_Vel_0
Time_Shift_6
Note_On_60_Vel_44
Time_Shift_1
Note_On_63_Vel_50
Time_Shift_4
Note_On_55_Vel_40
Time_Shift_296
Note_On_55_Vel_0
Time_Shift_9
Note_On_55_Vel_58
Time_Shift_291
Note_On_48_Vel_0
Time_Shift_5
Note_On_48_Vel_51
Time_Shift_2
Note_On_78_Vel_82
Time_Shift_74
Note_On_55_Vel_0
Note_On_60_Vel_0
Note_On_79_Vel_0
Note_On_63_Vel_0
Time_Shift_2
Sustain_Off
Time_Shift_55
Sustain_On
Time_Shift_211
Note_On_58_Vel_67
Time_Shift_1
Note_On_55_Vel_55
Time_Shift_158
Note_On_79_Vel_82
Time_Shift_188
Note_On_60_Vel_67
Time_Shift_95
Note_On_79_Vel_0
Time_Shift_7
Note_On_79_Vel_75
Time_Shift_94
Note_On_82_Vel_85
Time_Shift_86
Note_On_80_Vel_89
Time_Shift_425
Note_On_64_Vel_62
Time_Shift_286
Note_On_79_Vel_0
Time_Shift_5
Note_On_79_Vel_91
Time_Shift_231
Note_On_41_Vel_67
Time_Shift_4
Note_On_84_Vel_94
Time_Shift_48
Note_On_78_Vel_0
Note_On_80_Vel_0
Time_Shift_1
Note_On_58_Vel_0
Note_On_79_Vel_0
Note_On_55_Vel_0
Note_On_64_Vel_0
Note_On_60_Vel_0
Note_On_82_Vel_0
Time_Shift_4
Sustain_Off
Time_Shift_14
Note_On_48_Vel_0
Time_Shift_54
Sustain_On
Time_Shift_320
Note_On_53_Vel_66
Time_Shift_370
Note_On_65_Vel_57
Time_Shift_1
Note_On_60_Vel_54
Time_Shift_4
Note_On_56_Vel_56
Time_Shift_365
Note_On_53_Vel_0
Time_Shift_11
Note_On_53_Vel_58
Time_Shift_473
Note_On_41_Vel_0
Time_Shift_11
Note_On_41_Vel_64
Time_Shift_30
Sustain_Off
Time_Shift_51
Sustain_On
Time_Shift_100
Note_On_65_Vel_0
Time_Shift_23
Note_On_56_Vel_0
Time_Shift_307
Note_On_82_Vel_81
Time_Shift_39
Note_On_53_Vel_0
Time_Shift_5
Note_On_53_Vel_48
Time_Shift_225
Note_On_60_Vel_0
Time_Shift_19
Note_On_80_Vel_81
Time_Shift_218
Note_On_56_Vel_50
Time_Shift_4
Note_On_62_Vel_48
Time_Shift_1
Note_On_79_Vel_82
Time_Shift_197
Note_On_77_Vel_82
Time_Shift_179
Note_On_75_Vel_82
Time_Shift_12
Note_On_53_Vel_0
Time_Shift_11
Note_On_53_Vel_52
Time_Shift_161
Note_On_74_Vel_78
Time_Shift_210
Note_On_43_Vel_52
Time_Shift_55
Note_On_75_Vel_0
Time_Shift_5
Note_On_75_Vel_79
Time_Shift_39
Note_On_53_Vel_0
Note_On_41_Vel_0
Note_On_82_Vel_0
Note_On_62_Vel_0
Time_Shift_1
Note_On_79_Vel_0
Note_On_56_Vel_0
Time_Shift_1
Note_On_77_Vel_0
Time_Shift_1
Note_On_74_Vel_0
Time_Shift_1
Note_On_80_Vel_0
Sustain_Off
Time_Shift_22
Note_On_84_Vel_0
Time_Shift_130
Sustain_On
Time_Shift_377
Note_On_55_Vel_44
Time_Shift_264
Note_On_74_Vel_59
Time_Shift_192
Note_On_72_Vel_58
Time_Shift_27
Note_On_60_Vel_47
Time_Shift_438
Note_On_60_Vel_0
Time_Shift_10
Note_On_60_Vel_36
Time_Shift_1
Note_On_63_Vel_39
Time_Shift_4
Note_On_55_Vel_0
Time_Shift_12
Note_On_55_Vel_18
Time_Shift_442
Note_On_43_Vel_0
Note_On_75_Vel_0
Time_Shift_188
Note_On_67_Vel_53
Time_Shift_38
Note_On_43_Vel_34
Time_Shift_8
Note_On_55_Vel_0
Time_Shift_1
Note_On_74_Vel_0
Note_On_72_Vel_0
Time_Shift_4
Sustain_Off
Time_Shift_75
Sustain_On
Time_Shift_369
Note_On_43_Vel_0
Time_Shift_11
Note_On_43_Vel_27
Note_On_68_Vel_53
Time_Shift_3
Note_On_55_Vel_30
Time_Shift_201
Note_On_67_Vel_0
Time_Shift_11
Note_On_67_Vel_51
Time_Shift_185
Note_On_66_Vel_54
Time_Shift_24
Note_On_65_Vel_33
Time_Shift_5
Note_On_59_Vel_35
Time_Shift_159
Note_On_67_Vel_0
Time_Shift_6
Note_On_67_Vel_51
Time_Shift_224
Note_On_55_Vel_0
Time_Shift_5
Note_On_75_Vel_45
Time_Shift_6
Note_On_55_Vel_27
Time_Shift_320
Note_On_74_Vel_38
Time_Shift_7
Note_On_55_Vel_0
Time_Shift_8
Note_On_55_Vel_19
Time_Shift_285
Note_On_72_Vel_44
Time_Shift_25
Note_On_36_Vel_26
Time_Shift_26
Note_On_60_Vel_0
Time_Shift_2
Note_On_65_Vel_0
Time_Shift_1
Note_On_67_Vel_0
Note_On_74_Vel_0
Note_On_55_Vel_0
Note_On_66_Vel_0
Time_Shift_1
Note_On_68_Vel_0
Note_On_59_Vel_0
Time_Shift_1
Note_On_43_Vel_0
Note_On_75_Vel_0
Time_Shift_1
Sustain_Off
Time_Shift_4
Note_On_63_Vel_0
Time_Shift_107
Sustain_On
Time_Shift_269
Note_On_36_Vel_0
Time_Shift_339
Note_On_48_Vel_38
Time_Shift_548
Note_On_55_Vel_51
Time_Shift_580
Note_On_84_Vel_83
Time_Shift_33
Note_On_63_Vel_46
Time_Shift_7
Note_On_75_Vel_46
Time_Shift_9
Note_On_60_Vel_33
Time_Shift_727
Note_On_48_Vel_0
Time_Shift_11
Note_On_48_Vel_50
Time_Shift_73
Note_On_85_Vel_83
Time_Shift_77
Note_On_75_Vel_0
Time_Shift_11
Sustain_Off
Time_Shift_66
Sustain_On
Time_Shift_291
Note_On_55_Vel_0
Time_Shift_5
Note_On_55_Vel_49
Time_Shift_164
Note_On_84_Vel_0
Time_Shift_7
Note_On_84_Vel_81
Time_Shift_199
Note_On_58_Vel_55
Time_Shift_6
Note_On_64_Vel_46
Time_Shift_58
Note_On_82_Vel_90
Time_Shift_312
Note_On_80_Vel_85
Time_Shift_171
Note_On_55_Vel_0
Time_Shift_10
Note_On_55_Vel_46
Time_Shift_173
Note_On_79_Vel_78
Time_Shift_163
Note_On_80_Vel_0
Time_Shift_7
Note_On_80_Vel_80
Time_Shift_35
Note_On_53_Vel_49
Time_Shift_39
Sustain_Off
Time_Shift_3
Note_On_63_Vel_0
Time_Shift_1
Note_On_82_Vel_0
Note_On_79_Vel_0
Note_On_58_Vel_0
Time_Shift_1
Note_On_48_Vel_0
Note_On_84_Vel_0
Note_On_64_Vel_0
Note_On_55_Vel_0
Time_Shift_6
Note_On_72_Vel_0
Time_Shift_15
Note_On_85_Vel_0
Time_Shift_54
Note_On_60_Vel_0
Time_Shift_15
Sustain_On
Time_Shift_198
Note_On_56_Vel_51
Time_Shift_158
Note_On_79_Vel_69
Time_Shift_176
Note_On_77_Vel_70
Time_Shift_4
Note_On_60_Vel_46
Time_Shift_10
Note_On_53_Vel_0
Time_Shift_7
Note_On_53_Vel_39
Time_Shift_284
Note_On_56_Vel_0
Time_Shift_10
Note_On_56_Vel_55
Time_Shift_322
Note_On_48_Vel_54
Time_Shift_172
Note_On_56_Vel_0
Time_Shift_1
Note_On_53_Vel_0
Time_Shift_1
Note_On_60_Vel_0
Time_Shift_7
Sustain_Off
Time_Shift_102
Sustain_On
Time_Shift_57
Note_On_75_Vel_62
Time_Shift_25
Note_On_56_Vel_56
Time_Shift_235
Note_On_73_Vel_69
Time_Shift_149
Note_On_61_Vel_49
Time_Shift_10
Note_On_80_Vel_0
Time_Shift_41
Note_On_65_Vel_35
Time_Shift_15
Note_On_72_Vel_64
Time_Shift_190
Note_On_73_Vel_0
Time_Shift_8
Note_On_73_Vel_66
Time_Shift_191
Note_On_56_Vel_0
Time_Shift_5
Note_On_68_Vel_57
Time_Shift_6
Note_On_56_Vel_47
Time_Shift_174
Note_On_70_Vel_58
Time_Shift_184
Note_On_79_Vel_0
Time_Shift_8
Note_On_72_Vel_0
Time_Shift_9
Note_On_72_Vel_62
Time_Shift_29
Note_On_48_Vel_0
Time_Shift_11
Note_On_48_Vel_43
Time_Shift_36
Sustain_Off
Time_Shift_3
Note_On_73_Vel_0
Note_On_61_Vel_0
Time_Shift_1
Note_On_56_Vel_0
Note_On_75_Vel_0
Time_Shift_2
Note_On_70_Vel_0
Time_Shift_1
Note_On_77_Vel_0
Time_Shift_15
Note_On_68_Vel_0
Time_Shift_16
Note_On_65_Vel_0
Time_Shift_69
Sustain_On
Time_Shift_234
Note_On_55_Vel_39
Time_Shift_333
Note_On_60_Vel_38
Time_Shift_8
Note_On_64_Vel_36
Time_Shift_377
Note_On_55_Vel_0
Time_Shift_11
Note_On_55_Vel_33
Time_Shift_461
Note_On_84_Vel_69
Time_Shift_27
Note_On_48_Vel_0
Note_On_72_Vel_0
Time_Shift_8
Note_On_72_Vel_36
Time_Shift_2
Note_On_48_Vel_42
Time_Shift_54
Sustain_Off
Time_Shift_28
Sustain_On
Time_Shift_16
Note_On_64_Vel_0
Time_Shift_7
Note_On_60_Vel_0
Time_Shift_239
Note_On_72_Vel_0
Time_Shift_41
Note_On_85_Vel_65
Time_Shift_128
Note_On_55_Vel_0
Time_Shift_3
Note_On_55_Vel_32
Time_Shift_135
Note_On_84_Vel_0
Time_Shift_11
Note_On_84_Vel_73
Time_Shift_231
Note_On_82_Vel_72
Time_Shift_31
Note_On_64_Vel_30
Time_Shift_265
Note_On_80_Vel_57
Time_Shift_153
Note_On_55_Vel_0
Time_Shift_5
Note_On_55_Vel_31
Time_Shift_335
Note_On_79_Vel_50
Time_Shift_144
Note_On_80_Vel_0
Time_Shift_4
Note_On_80_Vel_66
Time_Shift_39
Note_On_53_Vel_38
Time_Shift_114
Note_On_79_Vel_0
Note_On_48_Vel_0
Time_Shift_1
Note_On_82_Vel_0
Time_Shift_3
Note_On_64_Vel_0
Note_On_85_Vel_0
Note_On_55_Vel_0
Time_Shift_12
Sustain_Off
Time_Shift_11
Note_On_84_Vel_0
Time_Shift_108
Sustain_On
Time_Shift_190
Note_On_56_Vel_35
Time_Shift_177
Note_On_79_Vel_51
Time_Shift_197
Note_On_65_Vel_31
Note_On_77_Vel_53
Time_Shift_344
Note_On_60_Vel_38
Time_Shift_385
Note_On_48_Vel_49
Time_Shift_392
Note_On_75_Vel_55
Time_Shift_33
Sustain_Off
Time_Shift_25
Note_On_56_Vel_0
Sustain_On
Time_Shift_11
Note_On_56_Vel_43
Time_Shift_263
Note_On_73_Vel_52
Time_Shift_26
Note_On_53_Vel_0
Note_On_80_Vel_0
Time_Shift_199
Note_On_65_Vel_0
Time_Shift_6
Note_On_65_Vel_28
Time_Shift_5
Note_On_61_Vel_28
Time_Shift_31
Note_On_72_Vel_51
Time_Shift_189
Note_On_73_Vel_0
Time_Shift_4
Note_On_73_Vel_48
Time_Shift_188
Note_On_56_Vel_0
Time_Shift_6
Note_On_56_Vel_41
Time_Shift_13
Note_On_68_Vel_40
Time_Shift_176
Note_On_70_Vel_48
Time_Shift_158
Note_On_72_Vel_0
Time_Shift_8
Note_On_72_Vel_50
Time_Shift_15
Note_On_48_Vel_0
Time_Shift_4
Note_On_48_Vel_35
Time_Shift_16
Note_On_65_Vel_0
Note_On_61_Vel_0
Time_Shift_1
Note_On_73_Vel_0
Sustain_Off
Note_On_68_Vel_0
Note_On_70_Vel_0
Note_On_77_Vel_0
Time_Shift_1
Note_On_56_Vel_0
Note_On_75_Vel_0
Time_Shift_1
Note_On_79_Vel_0
Time_Shift_15
Note_On_60_Vel_0
Time_Shift_77
Sustain_On
Time_Shift_250
Note_On_55_Vel_33
Time_Shift_393
Note_On_60_Vel_28
Time_Shift_8
Note_On_64_Vel_28
Time_Shift_470
Note_On_55_Vel_0
Time_Shift_7
Note_On_55_Vel_29
Time_Shift_516
Note_On_48_Vel_0
Time_Shift_23
Note_On_55_Vel_0
Time_Shift_7
Note_On_55_Vel_24
Time_Shift_3
Note_On_52_Vel_35
Time_Shift_3
Note_On_71_Vel_52
Time_Shift_240
Sustain_Off
Time_Shift_85
Sustain_On
Time_Shift_60
Note_On_58_Vel_57
Time_Shift_1
Note_On_55_Vel_0
Time_Shift_161
Note_On_72_Vel_0
Time_Shift_10
Note_On_72_Vel_66
Time_Shift_174
Note_On_77_Vel_70
Time_Shift_1
Note_On_60_Vel_0
Time_Shift_38
Note_On_64_Vel_0
Note_On_60_Vel_48
Time_Shift_301
Note_On_67_Vel_63
Time_Shift_136
Note_On_79_Vel_80
Time_Shift_170
Note_On_80_Vel_87
Time_Shift_20
Note_On_68_Vel_59
Time_Shift_5
Note_On_56_Vel_52
Note_On_53_Vel_50
Time_Shift_74
Note_On_67_Vel_0
Time_Shift_4
Note_On_52_Vel_0
Note_On_72_Vel_0
Note_On_71_Vel_0
Note_On_60_Vel_0
Note_On_58_Vel_0
Note_On_79_Vel_0
Time_Shift_1
Note_On_77_Vel_0
Time_Shift_8
Sustain_Off
Time_Shift_87
Sustain_On
Time_Shift_142
Note_On_60_Vel_57
Time_Shift_290
Note_On_77_Vel_70
Time_Shift_34
Note_On_65_Vel_45
Time_Shift_295
Note_On_60_Vel_0
Time_Shift_6
Note_On_60_Vel_59
Time_Shift_245
Note_On_58_Vel_58
Note_On_55_Vel_55
Time_Shift_25
Note_On_68_Vel_0
Time_Shift_59
Note_On_76_Vel_72
Time_Shift_42
Note_On_53_Vel_0
Time_Shift_2
Note_On_65_Vel_0
Note_On_80_Vel_0
Note_On_60_Vel_0
Time_Shift_1
Note_On_77_Vel_0
Note_On_56_Vel_0
Time_Shift_2
Sustain_Off
Time_Shift_63
Sustain_On
Time_Shift_49
Note_On_77_Vel_74
Time_Shift_97
Note_On_76_Vel_0
Time_Shift_11
Note_On_76_Vel_67
Time_Shift_98
Note_On_75_Vel_81
Time_Shift_3
Note_On_60_Vel_61
Time_Shift_95
Note_On_76_Vel_0
Time_Shift_5
Note_On_76_Vel_72
Time_Shift_90
Note_On_79_Vel_74
Time_Shift_89
Note_On_82_Vel_93
Time_Shift_141
Note_On_85_Vel_92
Time_Shift_33
Note_On_64_Vel_49
Time_Shift_142
Note_On_77_Vel_0
Time_Shift_146
Note_On_76_Vel_0
Time_Shift_10
Note_On_76_Vel_38
Time_Shift_105
Note_On_60_Vel_0
Time_Shift_5
Note_On_60_Vel_60
Time_Shift_200
Note_On_84_Vel_94
Time_Shift_171
Note_On_84_Vel_0
Time_Shift_11
Note_On_84_Vel_92
Time_Shift_14
Note_On_56_Vel_66
Time_Shift_32
Note_On_79_Vel_0
Note_On_85_Vel_0
Note_On_64_Vel_0
Note_On_58_Vel_0
Time_Shift_1
Note_On_55_Vel_0
Note_On_82_Vel_0
Time_Shift_2
Sustain_Off
Time_Shift_2
Note_On_75_Vel_0
Time_Shift_15
Note_On_76_Vel_0
Time_Shift_77
Sustain_On
Time_Shift_269
Note_On_60_Vel_0
Time_Shift_4
Note_On_60_Vel_67
Time_Shift_501
Note_On_89_Vel_103
Time_Shift_20
Note_On_65_Vel_62
Time_Shift_32
Note_On_56_Vel_0
Time_Shift_15
Sustain_Off
Time_Shift_19
Note_On_84_Vel_0
Time_Shift_77
Sustain_On
Time_Shift_146
Note_On_60_Vel_0
Time_Shift_330
Note_On_60_Vel_52
Time_Shift_648
Note_On_46_Vel_56
Time_Shift_35
Note_On_89_Vel_0
Time_Shift_6
Note_On_89_Vel_95
Time_Shift_110
Sustain_Off
Time_Shift_84
Sustain_On
Time_Shift_419
Note_On_85_Vel_87
Time_Shift_3
Note_On_65_Vel_0
Time_Shift_4
Note_On_55_Vel_39
Time_Shift_366
Note_On_82_Vel_93
Time_Shift_15
Note_On_65_Vel_44
Time_Shift_3
Note_On_61_Vel_47
Time_Shift_326
Note_On_77_Vel_77
Time_Shift_24
Note_On_55_Vel_0
Time_Shift_5
Note_On_55_Vel_40
Time_Shift_427
Note_On_48_Vel_48
Time_Shift_46
Note_On_80_Vel_78
Time_Shift_92
Note_On_85_Vel_0
Time_Shift_2
Note_On_61_Vel_0
Note_On_65_Vel_0
Note_On_60_Vel_0
Note_On_77_Vel_0
Time_Shift_1
Note_On_46_Vel_0
Note_On_82_Vel_0
Note_On_89_Vel_0
Note_On_55_Vel_0
Time_Shift_1
Sustain_Off
Time_Shift_163
Sustain_On
Time_Shift_396
Note_On_56_Vel_43
Time_Shift_222
Note_On_79_Vel_58
Time_Shift_202
Note_On_77_Vel_60
Time_Shift_40
Note_On_65_Vel_33
Time_Shift_4
Note_On_60_Vel_35
Time_Shift_50
Sustain_Off
Time_Shift_84
Sustain_On
Time_Shift_31
Note_On_48_Vel_0
Time_Shift_192
Note_On_56_Vel_0
Time_Shift_11
Note_On_56_Vel_41
Time_Shift_354
Note_On_48_Vel_45
Time_Shift_184
Note_On_72_Vel_45
Time_Shift_136
Note_On_56_Vel_0
Time_Shift_1
Note_On_60_Vel_0
Time_Shift_3
Sustain_Off
Time_Shift_64
Note_On_73_Vel_48
Time_Shift_2
Note_On_58_Vel_44
Time_Shift_21
Sustain_On
Time_Shift_130
Note_On_72_Vel_0
Time_Shift_8
Note_On_72_Vel_48
Time_Shift_196
Note_On_71_Vel_51
Time_Shift_56
Note_On_64_Vel_36
Time_Shift_4
Note_On_60_Vel_29
Time_Shift_166
Note_On_72_Vel_0
Time_Shift_10
Note_On_72_Vel_43
Time_Shift_236
Note_On_80_Vel_0
Time_Shift_10
Note_On_80_Vel_46
Time_Shift_4
Sustain_Off
Time_Shift_32
Note_On_58_Vel_0
Time_Shift_4
Note_On_58_Vel_30
Time_Shift_65
Sustain_On
Time_Shift_277
Note_On_79_Vel_0
Time_Shift_10
Note_On_79_Vel_40
Time_Shift_282
Note_On_77_Vel_0
Time_Shift_5
Note_On_77_Vel_51
Time_Shift_36
Note_On_53_Vel_33
Time_Shift_87
Note_On_80_Vel_0
Time_Shift_1
Note_On_64_Vel_0
Time_Shift_1
Note_On_65_Vel_0
Time_Shift_1
Note_On_79_Vel_0
Time_Shift_4
Sustain_Off
Time_Shift_11
Note_On_48_Vel_0
Note_On_71_Vel_0
Time_Shift_46
Note_On_58_Vel_0
Time_Shift_30
Note_On_60_Vel_0
Time_Shift_16
Note_On_73_Vel_0
Time_Shift_23
Sustain_On
Time_Shift_172
Note_On_56_Vel_40
Time_Shift_28
Note_On_72_Vel_0
Time_Shift_396
Note_On_60_Vel_28
Time_Shift_2
Note_On_65_Vel_31
Time_Shift_538
Note_On_56_Vel_0
Time_Shift_6
Note_On_56_Vel_38
Time_Shift_484
Note_On_48_Vel_43
Time_Shift_86
Note_On_71_Vel_51
Time_Shift_32
Sustain_Off
Time_Shift_53
Sustain_On
Time_Shift_190
Note_On_72_Vel_56
Time_Shift_67
Note_On_58_Vel_52
Time_Shift_105
Note_On_73_Vel_61
Time_Shift_168
Note_On_60_Vel_0
Time_Shift_4
Note_On_74_Vel_64
Time_Shift_7
Note_On_60_Vel_50
Time_Shift_107
Note_On_75_Vel_72
Time_Shift_125
Note_On_76_Vel_70
Time_Shift_110
Note_On_77_Vel_0
Time_Shift_11
Note_On_77_Vel_80
Time_Shift_8
Note_On_64_Vel_53
Time_Shift_126
Note_On_78_Vel_86
Time_Shift_151
Note_On_79_Vel_86
Time_Shift_223
Note_On_80_Vel_94
Time_Shift_11
Note_On_53_Vel_0
Time_Shift_4
Note_On_53_Vel_49
Time_Shift_4
Note_On_56_Vel_0
Time_Shift_7
Note_On_56_Vel_53
Time_Shift_62
Note_On_73_Vel_0
Time_Shift_1
Note_On_72_Vel_0
Time_Shift_1
Note_On_58_Vel_0
Note_On_75_Vel_0
Time_Shift_1
Note_On_79_Vel_0
Time_Shift_1
Note_On_78_Vel_0
Note_On_65_Vel_0
Time_Shift_1
Note_On_48_Vel_0
Time_Shift_3
Note_On_64_Vel_0
Note_On_71_Vel_0
Note_On_76_Vel_0
Time_Shift_3
Sustain_Off
Time_Shift_4
Note_On_74_Vel_0
Time_Shift_8
Note_On_77_Vel_0
Time_Shift_8
Note_On_60_Vel_0
Time_Shift_138
Sustain_On
Time_Shift_134
Note_On_60_Vel_58
Time_Shift_444
Note_On_77_Vel_69
Time_Shift_17
Sustain_Off
Note_On_65_Vel_44
Time_Shift_58
Sustain_On
Time_Shift_245
Note_On_60_Vel_0
Time_Shift_12
Note_On_60_Vel_53
Time_Shift_277
Note_On_58_Vel_56
Time_Shift_13
Note_On_55_Vel_48
Time_Shift_124
Note_On_76_Vel_59
Time_Shift_67
Note_On_53_Vel_0
Time_Shift_4
Sustain_Off
Time_Shift_3
Note_On_77_Vel_0
Time_Shift_10
Note_On_77_Vel_65
Time_Shift_66
Sustain_On
Time_Shift_8
Note_On_76_Vel_0
Time_Shift_11
Note_On_76_Vel_66
Time_Shift_82
Note_On_75_Vel_76
Time_Shift_15
Note_On_60_Vel_0
Time_Shift_4
Note_On_60_Vel_61
Time_Shift_65
Note_On_76_Vel_0
Time_Shift_4
Note_On_76_Vel_72
Time_Shift_79
Note_On_79_Vel_79
Time_Shift_87
Note_On_82_Vel_93
Time_Shift_145
Note_On_64_Vel_64
Time_Shift_69
Note_On_85_Vel_90
Time_Shift_15
Note_On_56_Vel_0
Time_Shift_492
Note_On_60_Vel_0
Time_Shift_7
Note_On_60_Vel_69
Time_Shift_134
Note_On_84_Vel_98
Time_Shift_143
Note_On_84_Vel_0
Time_Shift_4
Note_On_56_Vel_78
Time_Shift_4
Note_On_84_Vel_91
Time_Shift_1
Sustain_Off
Time_Shift_7
Note_On_64_Vel_0
Time_Shift_1
Note_On_85_Vel_0
Note_On_58_Vel_0
Time_Shift_1
Note_On_82_Vel_0
Time_Shift_1
Note_On_79_Vel_0
Time_Shift_4
Note_On_65_Vel_0
Note_On_60_Vel_0
Time_Shift_1
Note_On_55_Vel_0
Time_Shift_6
Note_On_80_Vel_0
Time_Shift_8
Note_On_77_Vel_0
Time_Shift_8
Note_On_76_Vel_0
Time_Shift_61
Note_On_75_Vel_0
Time_Shift_31
Sustain_On
Time_Shift_238
Note_On_60_Vel_75
Time_Shift_341
Note_On_65_Vel_66
Time_Shift_127
Note_On_89_Vel_98
Time_Shift_257
Note_On_101_Vel_111
Time_Shift_489
Note_On_60_Vel_0
Time_Shift_8
Note_On_60_Vel_59
Time_Shift_468
Note_On_84_Vel_0
Time_Shift_25
Note_On_46_Vel_71
Time_Shift_45
Note_On_60_Vel_0
Time_Shift_1
Note_On_65_Vel_0
Time_Shift_3
Note_On_56_Vel_0
Time_Shift_6
Sustain_Off
Time_Shift_43
Sustain_On
Time_Shift_69
Note_On_101_Vel_0
Time_Shift_92
Note_On_46_Vel_0
Time_Shift_14
Note_On_97_Vel_78
Time_Shift_1
Note_On_89_Vel_0
Time_Shift_227
Note_On_94_Vel_91
Time_Shift_94
Note_On_55_Vel_63
Time_Shift_59
Note_On_91_Vel_77
Time_Shift_116
Note_On_89_Vel_79
Time_Shift_120
Note_On_85_Vel_73
Time_Shift_92
Note_On_82_Vel_75
Time_Shift_83
Note_On_61_Vel_55
Time_Shift_34
Note_On_65_Vel_41
Time_Shift_7
Note_On_79_Vel_64
Time_Shift_121
Note_On_77_Vel_62
Time_Shift_150
Note_On_73_Vel_57
Time_Shift_175
Note_On_70_Vel_54
Time_Shift_151
Note_On_65_Vel_0
Time_Shift_9
Note_On_65_Vel_62
Time_Shift_29
Note_On_55_Vel_0
Time_Shift_4
Note_On_55_Vel_37
Time_Shift_407
Note_On_67_Vel_70
Time_Shift_200
Note_On_48_Vel_49
Time_Shift_1
Note_On_68_Vel_68
Time_Shift_191
Note_On_65_Vel_0
Note_On_94_Vel_0
Note_On_55_Vel_0
Time_Shift_1
Note_On_82_Vel_0
Note_On_70_Vel_0
Note_On_97_Vel_0
Time_Shift_1
Note_On_85_Vel_0
Note_On_79_Vel_0
Note_On_61_Vel_0
Note_On_77_Vel_0
Time_Shift_1
Note_On_73_Vel_0
Note_On_67_Vel_0
Time_Shift_1
Note_On_89_Vel_0
Time_Shift_6
Sustain_Off
Time_Shift_1
Note_On_91_Vel_0
Time_Shift_138
Sustain_On
Time_Shift_263
Note_On_53_Vel_37
Time_Shift_257
Note_On_67_Vel_53
Time_Shift_232
Note_On_65_Vel_41
Time_Shift_13
Note_On_60_Vel_36
Time_Shift_2
Note_On_56_Vel_39
Time_Shift_424
Note_On_53_Vel_0
Time_Shift_11
Note_On_53_Vel_35
Time_Shift_373
Note_On_48_Vel_0
Time_Shift_4
Note_On_48_Vel_44
Time_Shift_111
Note_On_65_Vel_0
Time_Shift_11
Note_On_65_Vel_41
Time_Shift_149
Note_On_64_Vel_51
Time_Shift_86
Note_On_65_Vel_0
Time_Shift_5
Note_On_65_Vel_46
Time_Shift_95
Note_On_68_Vel_0
Time_Shift_9
Note_On_68_Vel_63
Time_Shift_17
Note_On_64_Vel_0
Time_Shift_1
Note_On_65_Vel_0
Note_On_60_Vel_0
Note_On_56_Vel_0
Time_Shift_1
Note_On_53_Vel_0
Sustain_Off
Time_Shift_4
Note_On_58_Vel_56
Time_Shift_14
Note_On_67_Vel_0
Time_Shift_61
Sustain_On
Time_Shift_5
Note_On_67_Vel_58
Time_Shift_115
Note_On_73_Vel_59
Time_Shift_113
Note_On_72_Vel_59
Time_Shift_94
Note_On_60_Vel_50
Time_Shift_69
Note_On_77_Vel_64
Time_Shift_150
Note_On_76_Vel_61
Time_Shift_170
Note_On_80_Vel_60
Time_Shift_187
Note_On_79_Vel_56
Time_Shift_214
Note_On_64_Vel_36
Time_Shift_142
Note_On_85_Vel_56
Time_Shift_443
Note_On_84_Vel_47
Time_Shift_556
Note_On_77_Vel_0
Time_Shift_6
Note_On_77_Vel_52
Time_Shift_32
Note_On_68_Vel_0
Time_Shift_5
Note_On_53_Vel_29
Time_Shift_1
Note_On_68_Vel_30
Time_Shift_1
Note_On_56_Vel_28
Time_Shift_40
Note_On_48_Vel_0
Note_On_67_Vel_0
Note_On_72_Vel_0
Time_Shift_250
Note_On_84_Vel_0
Note_On_76_Vel_0
Note_On_79_Vel_0
Note_On_58_Vel_0
Time_Shift_1
Note_On_85_Vel_0
Note_On_64_Vel_0
Note_On_73_Vel_0
Time_Shift_2
Note_On_60_Vel_0
Time_Shift_3
Note_On_80_Vel_0
Time_Shift_84
Sustain_Off
Time_Shift_166
Sustain_On
Time_Shift_11
Note_On_60_Vel_27
Time_Shift_453
Note_On_65_Vel_33
Time_Shift_581
Note_On_60_Vel_0
Time_Shift_9
Note_On_60_Vel_34
Time_Shift_690
Note_On_60_Vel_0
Time_Shift_4
Note_On_60_Vel_18
Time_Shift_11
Sustain_Off
Time_Shift_3
Note_On_51_Vel_35
Time_Shift_20
Note_On_68_Vel_0
Time_Shift_39
Note_On_53_Vel_0
Time_Shift_7
Note_On_56_Vel_0
Time_Shift_16
Sustain_On
Time_Shift_15
Note_On_65_Vel_0
Time_Shift_5
Note_On_75_Vel_43
Time_Shift_12
Note_On_60_Vel_0
Time_Shift_3
Note_On_77_Vel_0
Time_Shift_13
Sustain_Off
Time_Shift_5
Sustain_On
Time_Shift_217
Note_On_77_Vel_47
Time_Shift_137
Note_On_75_Vel_0
Time_Shift_8
Note_On_75_Vel_54
Time_Shift_14
Note_On_61_Vel_42
Time_Shift_138
Note_On_74_Vel_55
Time_Shift_93
Note_On_75_Vel_0
Time_Shift_7
Note_On_75_Vel_66
Time_Shift_119
Note_On_63_Vel_53
Time_Shift_97
Note_On_75_Vel_0
Time_Shift_6
Note_On_75_Vel_77
Time_Shift_124
Note_On_79_Vel_70
Time_Shift_100
Note_On_77_Vel_0
Time_Shift_4
Note_On_77_Vel_74
Time_Shift_445
Note_On_67_Vel_52
Time_Shift_204
Note_On_75_Vel_0
Time_Shift_11
Note_On_75_Vel_76
Time_Shift_181
Note_On_75_Vel_0
Time_Shift_6
Note_On_75_Vel_74
Time_Shift_9
Note_On_51_Vel_0
Time_Shift_5
Note_On_51_Vel_50
Time_Shift_19
Sustain_Off
Time_Shift_8
Note_On_74_Vel_0
Time_Shift_1
Note_On_67_Vel_0
Note_On_63_Vel_0
Note_On_79_Vel_0
Note_On_61_Vel_0
Time_Shift_1
Note_On_77_Vel_0
Time_Shift_89
Sustain_On
Time_Shift_209
Note_On_80_Vel_83
Time_Shift_16
Note_On_60_Vel_52
Time_Shift_417
Note_On_79_Vel_81
Time_Shift_41
Note_On_68_Vel_57
Time_Shift_4
Note_On_63_Vel_49
Time_Shift_342
Note_On_60_Vel_0
Time_Shift_8
Note_On_60_Vel_59
Time_Shift_132
Note_On_77_Vel_78
Time_Shift_145
Note_On_51_Vel_0
Time_Shift_10
Note_On_51_Vel_56
Time_Shift_20
Note_On_77_Vel_0
Time_Shift_9
Note_On_77_Vel_73
Time_Shift_23
Note_On_80_Vel_0
Time_Shift_1
Note_On_68_Vel_0
Note_On_63_Vel_0
Note_On_79_Vel_0
Time_Shift_1
Note_On_75_Vel_0
Note_On_60_Vel_0
Time_Shift_1
Sustain_Off
Time_Shift_111
Sustain_On
Time_Shift_77
Note_On_75_Vel_82
Time_Shift_67
Note_On_63_Vel_54
Time_Shift_135
Note_On_73_Vel_77
Time_Shift_125
Note_On_61_Vel_56
Time_Shift_58
Note_On_67_Vel_58
Time_Shift_68
Note_On_75_Vel_0
Time_Shift_11
Note_On_75_Vel_73
Time_Shift_43
Note_On_73_Vel_0
Time_Shift_8
Note_On_73_Vel_66
Time_Shift_53
Note_On_75_Vel_0
Time_Shift_11
Note_On_75_Vel_65
Time_Shift_58
Note_On_73_Vel_0
Time_Shift_8
Note_On_73_Vel_69
Time_Shift_179
Note_On_72_Vel_72
Time_Shift_205
Note_On_63_Vel_0
Time_Shift_11
Note_On_63_Vel_52
Time_Shift_247
Note_On_70_Vel_75
Time_Shift_157
Note_On_51_Vel_0
Time_Shift_4
Note_On_51_Vel_56
Time_Shift_23
Note_On_72_Vel_0
Time_Shift_1
Note_On_63_Vel_0
Note_On_73_Vel_0
Note_On_67_Vel_0
Time_Shift_1
Note_On_75_Vel_0
Time_Shift_3
Note_On_61_Vel_0
Time_Shift_9
Sustain_Off
Time_Shift_5
Note_On_77_Vel_0
Time_Shift_28
Note_On_77_Vel_75
Time_Shift_110
Sustain_On
Time_Shift_100
Note_On_70_Vel_0
Time_Shift_190
Note_On_60_Vel_51
Time_Shift_467
Note_On_75_Vel_59
Time_Shift_7
Note_On_68_Vel_43
Time_Shift_21
Note_On_63_Vel_40
Time_Shift_175
Note_On_77_Vel_0
Time_Shift_207
Note_On_60_Vel_0
Time_Shift_10
Note_On_60_Vel_43
Time_Shift_351
Note_On_51_Vel_0
Time_Shift_5
Note_On_51_Vel_40
Time_Shift_72
Note_On_75_Vel_0
Time_Shift_8
Note_On_75_Vel_54
Time_Shift_35
Note_On_68_Vel_0
Time_Shift_1
Note_On_63_Vel_0
Time_Shift_7
Sustain_Off
Time_Shift_11
Note_On_60_Vel_0
Time_Shift_100
Sustain_On
Time_Shift_56
Note_On_77_Vel_61
Time_Shift_79
Note_On_61_Vel_52
Time_Shift_41
Note_On_75_Vel_0
Time_Shift_11
Note_On_75_Vel_63
Time_Shift_134
Note_On_74_Vel_62
Time_Shift_109
Note_On_75_Vel_0
Time_Shift_6
Note_On_75_Vel_68
Time_Shift_13
Note_On_63_Vel_52
Time_Shift_111
Note_On_75_Vel_0
Time_Shift_11
Note_On_75_Vel_62
Time_Shift_110
Note_On_79_Vel_68
Time_Shift_102
Note_On_77_Vel_0
Time_Shift_9
Note_On_77_Vel_68
Time_Shift_180
Note_On_67_Vel_45
Time_Shift_318
Note_On_75_Vel_0
Time_Shift_6
Note_On_75_Vel_65
Time_Shift_147
Note_On_51_Vel_0
Time_Shift_8
Note_On_51_Vel_48
Time_Shift_115
Note_On_75_Vel_0
Time_Shift_5
Note_On_75_Vel_61
Time_Shift_97
Note_On_74_Vel_0
Time_Shift_2
Sustain_Off
Note_On_63_Vel_0
Note_On_67_Vel_0
Note_On_79_Vel_0
Time_Shift_1
Note_On_61_Vel_0
Note_On_77_Vel_0
Time_Shift_93
Note_On_84_Vel_67
Time_Shift_48
Sustain_On
Time_Shift_108
Note_On_79_Vel_68
Time_Shift_44
Note_On_60_Vel_45
Time_Shift_136
Note_On_82_Vel_70
Time_Shift_213
Note_On_80_Vel_56
Time_Shift_221
Note_On_75_Vel_0
Time_Shift_7
Note_On_75_Vel_55
Time_Shift_3
Note_On_68_Vel_40
Time_Shift_12
Note_On_63_Vel_32
Time_Shift_297
Note_On_72_Vel_48
Time_Shift_149
Note_On_60_Vel_0
Time_Shift_9
Note_On_60_Vel_35
Time_Shift_214
Note_On_68_Vel_0
Time_Shift_6
Note_On_68_Vel_52
Time_Shift_255
Note_On_51_Vel_0
Time_Shift_6
Note_On_51_Vel_45
Time_Shift_40
Note_On_67_Vel_47
Time_Shift_65
Note_On_72_Vel_0
Time_Shift_1
Note_On_63_Vel_0
Time_Shift_2
Note_On_60_Vel_0
Note_On_68_Vel_0
Time_Shift_1
Note_On_82_Vel_0
Note_On_84_Vel_0
Time_Shift_16
Note_On_80_Vel_0
Time_Shift_2
Sustain_Off
Time_Shift_5
Note_On_79_Vel_0
Time_Shift_8
Note_On_75_Vel_0
Time_Shift_100
Sustain_On
Time_Shift_34
Note_On_70_Vel_52
Time_Shift_136
Note_On_63_Vel_40
Time_Shift_13
Note_On_73_Vel_61
Time_Shift_175
Note_On_77_Vel_68
Time_Shift_167
Note_On_75_Vel_64
Time_Shift_62
Note_On_61_Vel_43
Time_Shift_43
Note_On_67_Vel_0
Time_Shift_11
Note_On_67_Vel_41
Time_Shift_58
Note_On_70_Vel_0
Time_Shift_6
Note_On_80_Vel_73
Time_Shift_4
Note_On_70_Vel_40
Time_Shift_213
Note_On_79_Vel_65
Time_Shift_289
Note_On_84_Vel_66
Time_Shift_49
Note_On_63_Vel_0
Time_Shift_7
Note_On_75_Vel_0
Time_Shift_3
Note_On_63_Vel_39
Time_Shift_3
Note_On_75_Vel_37
Time_Shift_647
Note_On_82_Vel_61
Time_Shift_192
Note_On_80_Vel_0
Time_Shift_4
Note_On_80_Vel_64
Time_Shift_37
Note_On_56_Vel_41
Time_Shift_10
Note_On_60_Vel_33
Time_Shift_46
Note_On_63_Vel_0
Note_On_51_Vel_0
Time_Shift_1
Note_On_61_Vel_0
Time_Shift_1
Note_On_79_Vel_0
Time_Shift_2
Note_On_84_Vel_0
Time_Shift_3
Sustain_Off
Time_Shift_3
Note_On_82_Vel_0
Time_Shift_1
Note_On_70_Vel_0
Note_On_73_Vel_0
Time_Shift_7
Note_On_67_Vel_0
Note_On_77_Vel_0
Time_Shift_138
Sustain_On
Time_Shift_169
Note_On_60_Vel_0
Time_Shift_57
Note_On_60_Vel_42
Time_Shift_400
Note_On_68_Vel_43
Time_Shift_523
Note_On_63_Vel_34
Time_Shift_810
Note_On_80_Vel_0
Time_Shift_10
Note_On_47_Vel_47
Time_Shift_1
Note_On_80_Vel_78
Time_Shift_72
Sustain_Off
Time_Shift_117
Sustain_On
Time_Shift_76
Note_On_56_Vel_0
Time_Shift_31
Note_On_75_Vel_0
Time_Shift_275
Note_On_55_Vel_47
Time_Shift_194
Note_On_79_Vel_80
Time_Shift_189
Note_On_62_Vel_57
Time_Shift_98
Note_On_77_Vel_75
Time_Shift_246
Note_On_75_Vel_89
Time_Shift_185
Note_On_65_Vel_55
Time_Shift_174
Note_On_74_Vel_77
Time_Shift_68
Note_On_60_Vel_0
Note_On_63_Vel_0
Note_On_68_Vel_0
Time_Shift_99
Note_On_75_Vel_0
Time_Shift_11
Note_On_75_Vel_81
Time_Shift_26
Note_On_48_Vel_53
Time_Shift_22
Note_On_47_Vel_0
Note_On_62_Vel_0
Note_On_80_Vel_0
Time_Shift_6
Sustain_Off
Time_Shift_104
Sustain_On
Time_Shift_192
Note_On_55_Vel_0
Time_Shift_4
Note_On_55_Vel_55
Time_Shift_196
Note_On_74_Vel_0
Time_Shift_6
Note_On_74_Vel_73
Time_Shift_170
Note_On_60_Vel_51
Time_Shift_2
Note_On_72_Vel_72
Time_Shift_319
Note_On_63_Vel_63
Time_Shift_323
Note_On_43_Vel_59
Time_Shift_432
Note_On_70_Vel_62
Time_Shift_13
Note_On_51_Vel_56
Time_Shift_222
Note_On_68_Vel_65
Time_Shift_11
Note_On_79_Vel_0
Time_Shift_177
Note_On_56_Vel_47
Time_Shift_22
Note_On_67_Vel_67
Time_Shift_16
Note_On_60_Vel_0
Time_Shift_4
Note_On_60_Vel_45
Time_Shift_149
Note_On_68_Vel_0
Time_Shift_9
Note_On_68_Vel_65
Time_Shift_191
Note_On_51_Vel_0
Note_On_63_Vel_0
Time_Shift_8
Note_On_63_Vel_58
Time_Shift_2
Note_On_51_Vel_44
Time_Shift_159
Note_On_65_Vel_0
Time_Shift_6
Note_On_65_Vel_51
Time_Shift_194
Note_On_67_Vel_0
Time_Shift_6
Note_On_67_Vel_59
Time_Shift_32
Note_On_43_Vel_0
Time_Shift_11
Note_On_43_Vel_50
Time_Shift_2
Note_On_55_Vel_0
Note_On_63_Vel_0
Note_On_65_Vel_0
Note_On_74_Vel_0
Note_On_72_Vel_0
Note_On_51_Vel_0
Note_On_60_Vel_0
Sustain_Off
Time_Shift_1
Note_On_68_Vel_0
Note_On_48_Vel_0
Note_On_56_Vel_0
Time_Shift_1
Note_On_77_Vel_0
Time_Shift_16
Note_On_70_Vel_0
Note_On_75_Vel_0
Time_Shift_184
Sustain_On
Time_Shift_93
Note_On_50_Vel_45
Time_Shift_365
Note_On_59_Vel_44
Time_Shift_13
Note_On_55_Vel_34
Time_Shift_405
Note_On_50_Vel_0
Time_Shift_6
Note_On_50_Vel_39
Time_Shift_454
Note_On_43_Vel_0
Time_Shift_9
Note_On_43_Vel_38
Time_Shift_33
Note_On_79_Vel_54
Time_Shift_364
Sustain_Off
Time_Shift_14
Note_On_80_Vel_62
Time_Shift_26
Note_On_43_Vel_0
Time_Shift_4
Note_On_43_Vel_21
Time_Shift_80
Sustain_On
Time_Shift_45
Note_On_53_Vel_35
Time_Shift_117
Note_On_79_Vel_0
Time_Shift_10
Note_On_79_Vel_59
Time_Shift_224
Note_On_77_Vel_51
Time_Shift_11
Note_On_67_Vel_0
Time_Shift_5
Note_On_67_Vel_28
Time_Shift_3
Note_On_55_Vel_0
Time_Shift_4
Note_On_55_Vel_26
Time_Shift_203
Note_On_75_Vel_49
Time_Shift_185
Note_On_59_Vel_0
Time_Shift_6
Note_On_59_Vel_37
Time_Shift_185
Note_On_74_Vel_49
Time_Shift_170
Note_On_75_Vel_0
Time_Shift_7
Note_On_75_Vel_59
Time_Shift_8
Note_On_43_Vel_0
Time_Shift_9
Note_On_43_Vel_46
Time_Shift_49
Note_On_55_Vel_0
Note_On_74_Vel_0
Note_On_80_Vel_0
Note_On_77_Vel_0
Time_Shift_2
Note_On_53_Vel_0
Time_Shift_1
Note_On_59_Vel_0
Time_Shift_3
Sustain_Off
Time_Shift_5
Note_On_50_Vel_0
Time_Shift_8
Note_On_79_Vel_0
Time_Shift_7
Note_On_67_Vel_0
Time_Shift_93
Sustain_On
Time_Shift_182
Note_On_51_Vel_37
Time_Shift_176
Note_On_74_Vel_50
Time_Shift_186
Note_On_72_Vel_50
Time_Shift_22
Note_On_55_Vel_31
Time_Shift_396
Note_On_60_Vel_39
Time_Shift_420
Note_On_43_Vel_0
Time_Shift_5
Note_On_43_Vel_48
Time_Shift_437
Note_On_70_Vel_47
Time_Shift_42
Note_On_51_Vel_0
Time_Shift_11
Note_On_51_Vel_43
Time_Shift_222
Note_On_68_Vel_51
Time_Shift_197
Note_On_60_Vel_0
Time_Shift_8
Note_On_60_Vel_41
Time_Shift_28
Note_On_67_Vel_47
Time_Shift_202
Note_On_68_Vel_0
Time_Shift_5
Note_On_68_Vel_45
Time_Shift_197
Note_On_63_Vel_39
Time_Shift_5
Note_On_51_Vel_0
Time_Shift_7
Note_On_51_Vel_29
Time_Shift_202
Note_On_65_Vel_41
Time_Shift_237
Note_On_67_Vel_0
Time_Shift_7
Note_On_67_Vel_45
Time_Shift_31
Note_On_43_Vel_0
Time_Shift_5
Note_On_43_Vel_40
Time_Shift_3
Note_On_74_Vel_0
Time_Shift_1
Note_On_65_Vel_0
Note_On_55_Vel_0
Note_On_72_Vel_0
Note_On_51_Vel_0
Time_Shift_1
Note_On_63_Vel_0
Note_On_68_Vel_0
Note_On_70_Vel_0
Time_Shift_3
Sustain_Off
Time_Shift_10
Note_On_60_Vel_0
Note_On_75_Vel_0
Time_Shift_115
Sustain_On
Time_Shift_245
Note_On_50_Vel_38
Time_Shift_433
Note_On_55_Vel_28
Time_Shift_1
Note_On_59_Vel_34
Time_Shift_343
Note_On_55_Vel_0
Time_Shift_4
Note_On_55_Vel_13
Time_Shift_219
Note_On_50_Vel_0
Time_Shift_4
Note_On_50_Vel_32
Time_Shift_543
Note_On_66_Vel_53
Time_Shift_26
Note_On_47_Vel_35
Time_Shift_103
Note_On_43_Vel_0
Time_Shift_1
Note_On_59_Vel_0
Time_Shift_291
Note_On_53_Vel_46
Time_Shift_153
Note_On_67_Vel_0
Time_Shift_11
Note_On_67_Vel_60
Time_Shift_175
Note_On_72_Vel_68
Time_Shift_29
Note_On_55_Vel_0
Time_Shift_4
Note_On_55_Vel_41
Time_Shift_313
Note_On_62_Vel_58
Time_Shift_117
Note_On_74_Vel_72
Time_Shift_150
Note_On_50_Vel_0
Time_Shift_28
Note_On_75_Vel_83
Time_Shift_32
Note_On_48_Vel_54
Time_Shift_22
Sustain_Off
Note_On_72_Vel_0
Note_On_47_Vel_0
Note_On_53_Vel_0
Time_Shift_2
Note_On_55_Vel_0
Note_On_67_Vel_0
Note_On_62_Vel_0
Time_Shift_2
Note_On_74_Vel_0
Time_Shift_13
Note_On_66_Vel_0
Time_Shift_62
Sustain_On
Time_Shift_200
Note_On_55_Vel_57
Time_Shift_352
Note_On_72_Vel_69
Time_Shift_31
Note_On_63_Vel_52
Time_Shift_15
Note_On_60_Vel_44
Time_Shift_277
Note_On_55_Vel_0
Time_Shift_7
Note_On_55_Vel_62
Time_Shift_231
Note_On_50_Vel_55
Time_Shift_89
Note_On_71_Vel_66
Time_Shift_25
Note_On_63_Vel_0
Note_On_48_Vel_0
Time_Shift_4
Sustain_Off
Note_On_75_Vel_0
Note_On_72_Vel_0
Note_On_60_Vel_0
Time_Shift_1
Note_On_55_Vel_0
Time_Shift_112
Sustain_On
Time_Shift_63
Note_On_72_Vel_67
Time_Shift_106
Note_On_71_Vel_0
Time_Shift_9
Note_On_71_Vel_68
Time_Shift_101
Note_On_70_Vel_72
Time_Shift_3
Note_On_55_Vel_56
Time_Shift_87
Note_On_71_Vel_0
Note_On_72_Vel_0
Time_Shift_5
Note_On_71_Vel_58
Time_Shift_2
Note_On_72_Vel_54
Time_Shift_102
Note_On_74_Vel_63
Time_Shift_92
Note_On_77_Vel_70
Time_Shift_146
Note_On_59_Vel_53
Time_Shift_41
Note_On_80_Vel_85
Note_On_65_Vel_41
Time_Shift_11
Note_On_65_Vel_0
Time_Shift_545
Note_On_55_Vel_0
Time_Shift_9
Note_On_55_Vel_55
Time_Shift_183
Note_On_79_Vel_86
Time_Shift_184
Note_On_79_Vel_0
Time_Shift_6
Note_On_79_Vel_80
Time_Shift_33
Note_On_51_Vel_54
Time_Shift_11
Note_On_72_Vel_0
Note_On_74_Vel_0
Note_On_59_Vel_0
Note_On_70_Vel_0
Time_Shift_1
Note_On_50_Vel_0
Note_On_71_Vel_0
Note_On_80_Vel_0
Note_On_55_Vel_0
Note_On_77_Vel_0
Time_Shift_3
Sustain_Off
Time_Shift_108
Sustain_On
Time_Shift_265
Note_On_55_Vel_62
Time_Shift_531
Note_On_84_Vel_90
Time_Shift_23
Note_On_60_Vel_44
Time_Shift_6
Note_On_63_Vel_49
Time_Shift_28
Sustain_Off
Time_Shift_68
Sustain_On
Time_Shift_77
Note_On_79_Vel_0
Time_Shift_400
Note_On_55_Vel_0
Time_Shift_3
Note_On_55_Vel_46
Time_Shift_469
Note_On_41_Vel_53
Time_Shift_78
Note_On_51_Vel_0
Time_Shift_2
Note_On_55_Vel_0
Note_On_60_Vel_0
Time_Shift_4
Sustain_Off
Time_Shift_12
Note_On_63_Vel_0
Time_Shift_69
Sustain_On
Time_Shift_271
Note_On_80_Vel_74
Time_Shift_39
Note_On_50_Vel_42
Time_Shift_442
Note_On_77_Vel_77
Time_Shift_37
Note_On_60_Vel_38
Time_Shift_3
Note_On_56_Vel_44
Time_Shift_350
Note_On_72_Vel_78
Time_Shift_25
Note_On_50_Vel_0
Time_Shift_9
Note_On_50_Vel_44
Time_Shift_339
Note_On_43_Vel_48
Time_Shift_57
Note_On_75_Vel_81
Time_Shift_66
Note_On_72_Vel_0
Note_On_56_Vel_0
Time_Shift_1
Note_On_41_Vel_0
Note_On_77_Vel_0
Note_On_50_Vel_0
Time_Shift_1
Note_On_80_Vel_0
Time_Shift_2
Note_On_60_Vel_0
Time_Shift_1
Note_On_84_Vel_0
Time_Shift_19
Sustain_Off
Time_Shift_135
Sustain_On
Time_Shift_334
Note_On_51_Vel_39
Time_Shift_299
Note_On_74_Vel_55
Time_Shift_205
Note_On_72_Vel_55
Time_Shift_33
Note_On_60_Vel_37
Time_Shift_7
Note_On_55_Vel_32
Time_Shift_9
Note_On_74_Vel_0
Time_Shift_8
Sustain_Off
Time_Shift_19
Note_On_75_Vel_0
Time_Shift_61
Sustain_On
Time_Shift_277
Note_On_51_Vel_0
Time_Shift_11
Note_On_51_Vel_40
Time_Shift_350
Note_On_43_Vel_0
Time_Shift_4
Note_On_43_Vel_44
Time_Shift_163
Note_On_67_Vel_46
Time_Shift_190
Note_On_60_Vel_0
Time_Shift_1
Note_On_72_Vel_0
Time_Shift_11
Note_On_43_Vel_0
Time_Shift_11
Note_On_43_Vel_29
Note_On_68_Vel_54
Time_Shift_16
Note_On_53_Vel_29
Time_Shift_11
Sustain_Off
Time_Shift_84
Sustain_On
Time_Shift_39
Note_On_67_Vel_0
Time_Shift_8
Note_On_67_Vel_50
Time_Shift_196
Note_On_66_Vel_54
Time_Shift_34
Note_On_43_Vel_0
Note_On_55_Vel_0
Time_Shift_5
Note_On_43_Vel_29
Time_Shift_2
Note_On_55_Vel_31
Time_Shift_6
Note_On_53_Vel_0
Time_Shift_15
Sustain_Off
Time_Shift_56
Sustain_On
Time_Shift_108
Note_On_67_Vel_0
Time_Shift_6
Note_On_67_Vel_45
Time_Shift_171
Note_On_51_Vel_0
Note_On_68_Vel_0
Time_Shift_98
Note_On_75_Vel_48
Time_Shift_40
Note_On_59_Vel_33
Time_Shift_18
Sustain_Off
Time_Shift_20
Sustain_On
Time_Shift_311
Note_On_74_Vel_46
Time_Shift_299
Note_On_72_Vel_46
Time_Shift_61
Note_On_48_Vel_19
Time_Shift_15
Note_On_74_Vel_0
Time_Shift_1
Note_On_59_Vel_0
Time_Shift_12
Note_On_66_Vel_0
Time_Shift_12
Sustain_Off
Time_Shift_11
Note_On_55_Vel_0
Note_On_75_Vel_0
Time_Shift_177
Note_On_67_Vel_0
Time_Shift_30
Sustain_On
Time_Shift_47
Note_On_43_Vel_0
Time_Shift_94
Note_On_51_Vel_32
Time_Shift_377
Note_On_55_Vel_29
Time_Shift_17
Note_On_60_Vel_31
Time_Shift_533
Note_On_51_Vel_0
Time_Shift_6
Note_On_51_Vel_35
Time_Shift_527
Note_On_43_Vel_32
Time_Shift_77
Note_On_67_Vel_44
Time_Shift_85
Note_On_51_Vel_0
Note_On_72_Vel_0
Time_Shift_1
Note_On_60_Vel_0
Time_Shift_2
Note_On_55_Vel_0
Time_Shift_3
Sustain_Off
Time_Shift_6
Note_On_48_Vel_0
Time_Shift_15
Sustain_On
Time_Shift_201
Note_On_68_Vel_48
Time_Shift_92
Note_On_53_Vel_27
Time_Shift_105
Note_On_69_Vel_52
Time_Shift_120
Note_On_70_Vel_49
Time_Shift_76
Note_On_55_Vel_41
Time_Shift_69
Note_On_71_Vel_58
Time_Shift_129
Note_On_72_Vel_62
Time_Shift_140
Note_On_73_Vel_71
Time_Shift_17
Note_On_59_Vel_39
Time_Shift_168
Note_On_74_Vel_74
Time_Shift_254
Note_On_48_Vel_36
Time_Shift_14
Note_On_75_Vel_79
Time_Shift_20
Note_On_67_Vel_0
Time_Shift_8
Note_On_67_Vel_37
Time_Shift_74
Note_On_68_Vel_0
Note_On_53_Vel_0
Note_On_55_Vel_0
Note_On_43_Vel_0
Note_On_69_Vel_0
Time_Shift_1
Note_On_70_Vel_0
Note_On_74_Vel_0
Note_On_71_Vel_0
Note_On_72_Vel_0
Time_Shift_2
Note_On_73_Vel_0
Time_Shift_1
Sustain_Off
Time_Shift_22
Note_On_59_Vel_0
Time_Shift_69
Sustain_On
Time_Shift_202
Note_On_55_Vel_52
Time_Shift_5
Note_On_67_Vel_0
Time_Shift_450
Note_On_72_Vel_59
Time_Shift_24
Note_On_60_Vel_48
Time_Shift_317
Note_On_55_Vel_0
Time_Shift_6
Note_On_55_Vel_52
Time_Shift_274
Note_On_53_Vel_50
Time_Shift_1
Note_On_50_Vel_51
Time_Shift_107
Note_On_71_Vel_60
Time_Shift_119
Note_On_72_Vel_0
Time_Shift_6
Note_On_72_Vel_66
Time_Shift_94
Note_On_71_Vel_0
Time_Shift_10
Note_On_71_Vel_66
Time_Shift_86
Note_On_70_Vel_69
Time_Shift_12
Note_On_55_Vel_0
Time_Shift_10
Note_On_55_Vel_50
Time_Shift_66
Note_On_71_Vel_0
Time_Shift_6
Note_On_71_Vel_65
Time_Shift_85
Note_On_74_Vel_62
Time_Shift_86
Note_On_77_Vel_72
Time_Shift_160
Note_On_80_Vel_88
Time_Shift_34
Note_On_62_Vel_56
Time_Shift_536
Note_On_55_Vel_0
Time_Shift_4
Note_On_55_Vel_61
Time_Shift_118
Note_On_79_Vel_89
Time_Shift_154
Note_On_79_Vel_0
Time_Shift_2
Sustain_Off
Time_Shift_5
Note_On_79_Vel_89
Time_Shift_1
Note_On_51_Vel_63
Time_Shift_10
Note_On_48_Vel_0
Note_On_62_Vel_0
Note_On_80_Vel_0
Note_On_72_Vel_0
Note_On_70_Vel_0
Time_Shift_1
Note_On_50_Vel_0
Note_On_77_Vel_0
Note_On_55_Vel_0
Note_On_74_Vel_0
Note_On_60_Vel_0
Note_On_75_Vel_0
Note_On_71_Vel_0
Time_Shift_1
Note_On_53_Vel_0
Time_Shift_88
Sustain_On
Time_Shift_262
Note_On_55_Vel_67
Time_Shift_350
Note_On_60_Vel_65
Time_Shift_110
Note_On_84_Vel_79
Time_Shift_13
Sustain_Off
Time_Shift_102
Sustain_On
Time_Shift_153
Note_On_96_Vel_98
Time_Shift_8
Note_On_79_Vel_0
Time_Shift_383
Note_On_63_Vel_62
Time_Shift_598
Note_On_41_Vel_69
Time_Shift_40
Note_On_55_Vel_0
Time_Shift_1
Note_On_60_Vel_0
Note_On_84_Vel_0
Time_Shift_2
Note_On_63_Vel_0
Time_Shift_5
Sustain_Off
Time_Shift_16
Note_On_51_Vel_0
Time_Shift_30
Sustain_On
Time_Shift_219
Note_On_92_Vel_89
Time_Shift_4
Note_On_96_Vel_0
Time_Shift_31
Note_On_41_Vel_0
Time_Shift_213
Note_On_89_Vel_82
Time_Shift_91
Note_On_53_Vel_68
Time_Shift_100
Note_On_86_Vel_74
Time_Shift_145
Note_On_84_Vel_65
Time_Shift_125
Note_On_80_Vel_65
Time_Shift_32
Note_On_62_Vel_61
Time_Shift_12
Note_On_56_Vel_53
Time_Shift_56
Note_On_77_Vel_63
Time_Shift_124
Note_On_74_Vel_52
Time_Shift_91
Note_On_72_Vel_62
Time_Shift_102
Note_On_68_Vel_61
Time_Shift_101
Note_On_65_Vel_49
Time_Shift_121
Note_On_53_Vel_0
Time_Shift_6
Note_On_53_Vel_47
Time_Shift_88
Note_On_60_Vel_63
Time_Shift_474
Note_On_62_Vel_0
Time_Shift_10
Note_On_62_Vel_75
Time_Shift_210
Note_On_63_Vel_74
Time_Shift_36
Note_On_43_Vel_50
Time_Shift_133
Note_On_72_Vel_0
Note_On_60_Vel_0
Time_Shift_2
Note_On_53_Vel_0
Time_Shift_1
Note_On_92_Vel_0
Time_Shift_1
Note_On_56_Vel_0
Note_On_62_Vel_0
Note_On_68_Vel_0
Time_Shift_7
Note_On_89_Vel_0
Time_Shift_3
Sustain_Off
Time_Shift_4
Note_On_80_Vel_0
Note_On_86_Vel_0
Time_Shift_8
Note_On_74_Vel_0
Note_On_77_Vel_0
Note_On_84_Vel_0
Time_Shift_8
Note_On_65_Vel_0
Time_Shift_528
Note_On_48_Vel_39
Time_Shift_192
Note_On_62_Vel_53
Time_Shift_245
Note_On_60_Vel_45
Time_Shift_20
Note_On_55_Vel_34
Time_Shift_8
Note_On_62_Vel_0
Note_On_51_Vel_31
Time_Shift_13
Note_On_63_Vel_0
Time_Shift_130
Sustain_On
Time_Shift_192
Note_On_48_Vel_0
Time_Shift_166
Note_On_48_Vel_32
Time_Shift_789
Note_On_31_Vel_46
Time_Shift_78
Note_On_48_Vel_0
Time_Shift_3
Note_On_51_Vel_0
Time_Shift_2
Note_On_60_Vel_0
Time_Shift_6
Sustain_Off
Time_Shift_131
Sustain_On
Time_Shift_52
Note_On_67_Vel_45
Time_Shift_117
Note_On_55_Vel_0
Time_Shift_107
Note_On_66_Vel_53
Time_Shift_208
Note_On_67_Vel_0
Time_Shift_11
Note_On_67_Vel_55
Time_Shift_5
Note_On_55_Vel_46
Time_Shift_124
Note_On_68_Vel_61
Time_Shift_144
Note_On_67_Vel_0
Time_Shift_10
Note_On_67_Vel_62
Time_Shift_169
Note_On_72_Vel_60
Time_Shift_187
Note_On_62_Vel_46
Time_Shift_16
Sustain_Off
Time_Shift_2
Note_On_31_Vel_0
Time_Shift_3
Note_On_68_Vel_0
Time_Shift_1
Note_On_66_Vel_0
Note_On_67_Vel_0
Note_On_43_Vel_0
Time_Shift_25
Note_On_71_Vel_54
Note_On_65_Vel_34
Time_Shift_40
Sustain_On
Time_Shift_201
Note_On_75_Vel_57
Time_Shift_346
Note_On_74_Vel_55
Time_Shift_323
Note_On_80_Vel_56
Time_Shift_94
Sustain_Off
Time_Shift_4
Note_On_55_Vel_0
Time_Shift_46
Note_On_67_Vel_25
Time_Shift_2
Note_On_55_Vel_28
Time_Shift_29
Sustain_On
Time_Shift_284
Note_On_75_Vel_0
Time_Shift_31
Note_On_65_Vel_0
Time_Shift_471
Note_On_79_Vel_43
Time_Shift_1206
Note_On_48_Vel_33
Time_Shift_97
Note_On_72_Vel_0
Time_Shift_4
Note_On_72_Vel_44
Time_Shift_150
Note_On_55_Vel_0
Note_On_62_Vel_0
Note_On_67_Vel_0
Note_On_71_Vel_0
Note_On_74_Vel_0
Note_On_80_Vel_0
Time_Shift_150
Note_On_55_Vel_36
Time_Shift_64
Sustain_Off
Time_Shift_648
Note_On_63_Vel_35
Time_Shift_2225
Sustain_On
Time_Shift_61
Note_On_79_Vel_0
Time_Shift_46
Sustain_Off
Time_Shift_18
Note_On_63_Vel_0
Time_Shift_2
Note_On_72_Vel_0
Time_Shift_5
Note_On_55_Vel_0
Time_Shift_1
Note_On_48_Vel_0
