Time_Shift_7
Sustain_On
Time_Shift_650
Note_On_81_Vel_48
Time_Shift_1
Note_On_69_Vel_55
Time_Shift_12
Note_On_60_Vel_39
Time_Shift_1
Note_On_64_Vel_46
Time_Shift_1
Note_On_76_Vel_35
Time_Shift_11
Note_On_76_Vel_0
Time_Shift_192
Note_On_81_Vel_0
Time_Shift_422
Note_On_60_Vel_0
Note_On_69_Vel_0
Time_Shift_6
Note_On_81_Vel_50
Note_On_69_Vel_57
Time_Shift_3
Note_On_60_Vel_45
Time_Shift_665
Note_On_68_Vel_55
Note_On_80_Vel_51
Time_Shift_3
Note_On_59_Vel_48
Time_Shift_7
Note_On_64_Vel_0
Time_Shift_4
Note_On_76_Vel_40
Time_Shift_3
Note_On_64_Vel_43
Time_Shift_4
Note_On_52_Vel_37
Time_Shift_58
Note_On_81_Vel_0
Time_Shift_3
Note_On_69_Vel_0
Time_Shift_1
Sustain_Off
Time_Shift_19
Note_On_80_Vel_0
Time_Shift_8
Note_On_60_Vel_0
Time_Shift_107
Sustain_On
Time_Shift_715
Note_On_76_Vel_0
Time_Shift_20
Note_On_66_Vel_51
Note_On_69_Vel_51
Time_Shift_3
Note_On_57_Vel_51
Time_Shift_7
Note_On_64_Vel_0
Time_Shift_8
Note_On_52_Vel_0
Time_Shift_1
Note_On_64_Vel_48
Time_Shift_4
Note_On_52_Vel_44
Time_Shift_6
Note_On_68_Vel_0
Time_Shift_1
Note_On_59_Vel_0
Time_Shift_24
Sustain_Off
Time_Shift_18
Sustain_On
Time_Shift_315
Note_On_52_Vel_0
Note_On_64_Vel_0
Time_Shift_1
Note_On_59_Vel_52
Time_Shift_1
Note_On_68_Vel_59
Time_Shift_4
Note_On_52_Vel_36
Time_Shift_3
Note_On_64_Vel_50
Time_Shift_2
Note_On_66_Vel_0
Note_On_57_Vel_0
Time_Shift_2
Sustain_Off
Time_Shift_56
Sustain_On
Time_Shift_215
Note_On_69_Vel_0
Time_Shift_297
Note_On_69_Vel_60
Time_Shift_10
Note_On_64_Vel_0
Time_Shift_3
Note_On_72_Vel_52
Time_Shift_1
Note_On_60_Vel_50
Time_Shift_4
Note_On_72_Vel_0
Time_Shift_1
Note_On_45_Vel_47
Note_On_64_Vel_46
Time_Shift_140
Note_On_72_Vel_60
Time_Shift_12
Note_On_52_Vel_0
Note_On_60_Vel_0
Note_On_64_Vel_0
Time_Shift_8
Note_On_68_Vel_0
Time_Shift_2
Note_On_52_Vel_47
Time_Shift_1
Note_On_60_Vel_37
Time_Shift_1
Note_On_64_Vel_48
Time_Shift_5
Note_On_68_Vel_53
Time_Shift_28
Sustain_Off
Time_Shift_4
Note_On_59_Vel_0
Time_Shift_1
Note_On_45_Vel_0
Note_On_60_Vel_0
Note_On_69_Vel_0
Time_Shift_142
Sustain_On
Time_Shift_1039
Note_On_71_Vel_54
Time_Shift_6
Note_On_64_Vel_0
Time_Shift_3
Note_On_40_Vel_36
Time_Shift_4
Note_On_52_Vel_0
Time_Shift_3
Note_On_64_Vel_37
Time_Shift_2
Note_On_52_Vel_34
Time_Shift_2
Note_On_62_Vel_35
Time_Shift_17
Sustain_Off
Time_Shift_4
Note_On_72_Vel_0
Time_Shift_80
Sustain_On
Time_Shift_61
Note_On_68_Vel_0
Time_Shift_308
Note_On_64_Vel_0
Time_Shift_3
Note_On_69_Vel_57
Time_Shift_3
Note_On_60_Vel_51
Time_Shift_4
Note_On_64_Vel_40
Time_Shift_8
Note_On_45_Vel_45
Time_Shift_131
Note_On_68_Vel_61
Time_Shift_66
Note_On_69_Vel_0
Time_Shift_5
Note_On_69_Vel_58
Time_Shift_21
Sustain_Off
Time_Shift_3
Note_On_45_Vel_0
Note_On_62_Vel_0
Note_On_71_Vel_0
Time_Shift_1
Note_On_60_Vel_0
Time_Shift_1
Note_On_64_Vel_0
Time_Shift_15
Note_On_52_Vel_0
Note_On_59_Vel_49
Time_Shift_11
Note_On_52_Vel_34
Time_Shift_73
Sustain_On
Time_Shift_538
Note_On_69_Vel_0
Time_Shift_1
Note_On_66_Vel_53
Time_Shift_6
Note_On_40_Vel_0
Time_Shift_4
Note_On_69_Vel_51
Time_Shift_4
Note_On_57_Vel_49
Note_On_52_Vel_0
Time_Shift_3
Note_On_40_Vel_37
Time_Shift_7
Note_On_52_Vel_33
Time_Shift_6
Note_On_64_Vel_39
Time_Shift_34
Note_On_59_Vel_0
Time_Shift_1
Sustain_Off
Time_Shift_11
Note_On_68_Vel_0
Time_Shift_84
Sustain_On
Time_Shift_522
Note_On_52_Vel_0
Note_On_64_Vel_0
Time_Shift_4
Note_On_59_Vel_53
Time_Shift_1
Note_On_52_Vel_44
Note_On_68_Vel_61
Time_Shift_5
Note_On_64_Vel_50
Time_Shift_44
Sustain_Off
Time_Shift_5
Note_On_66_Vel_0
Note_On_57_Vel_0
Time_Shift_10
Note_On_69_Vel_0
Time_Shift_93
Sustain_On
Time_Shift_368
Note_On_68_Vel_0
Time_Shift_6
Note_On_71_Vel_55
Time_Shift_3
Note_On_68_Vel_45
Time_Shift_7
Note_On_64_Vel_0
Time_Shift_5
Note_On_62_Vel_42
Time_Shift_5
Note_On_64_Vel_45
Time_Shift_175
Note_On_69_Vel_61
Note_On_81_Vel_53
Time_Shift_7
Note_On_81_Vel_0
Time_Shift_40
Sustain_Off
Time_Shift_2
Note_On_62_Vel_0
Note_On_60_Vel_40
Time_Shift_1
Note_On_59_Vel_0
Note_On_71_Vel_0
Time_Shift_3
Note_On_68_Vel_0
Time_Shift_76
Sustain_On
Time_Shift_181
Note_On_55_Vel_45
Time_Shift_42
Note_On_40_Vel_0
Time_Shift_22
Note_On_53_Vel_51
Time_Shift_44
Sustain_Off
Note_On_52_Vel_0
Time_Shift_25
Note_On_55_Vel_0
Time_Shift_47
Sustain_On
Time_Shift_231
Note_On_52_Vel_52
Time_Shift_26
Note_On_53_Vel_0
Time_Shift_1
Sustain_Off
Time_Shift_57
Sustain_On
Time_Shift_303
Note_On_45_Vel_52
Time_Shift_28
Sustain_Off
Time_Shift_7
Note_On_60_Vel_0
Time_Shift_8
Note_On_52_Vel_0
Time_Shift_46
Sustain_On
Time_Shift_323
Note_On_64_Vel_0
Time_Shift_7
Note_On_43_Vel_42
Time_Shift_3
Note_On_72_Vel_61
Time_Shift_9
Note_On_55_Vel_36
Time_Shift_2
Note_On_64_Vel_46
Time_Shift_12
Note_On_67_Vel_38
Time_Shift_1
Sustain_Off
Time_Shift_2
Note_On_45_Vel_0
Note_On_69_Vel_0
Time_Shift_102
Sustain_On
Time_Shift_641
Note_On_71_Vel_64
Time_Shift_12
Note_On_55_Vel_0
Note_On_67_Vel_0
Time_Shift_4
Note_On_62_Vel_47
Note_On_67_Vel_47
Time_Shift_3
Note_On_55_Vel_44
Time_Shift_84
Note_On_72_Vel_0
Time_Shift_3
Note_On_64_Vel_0
Time_Shift_1
Sustain_Off
Time_Shift_89
Sustain_On
Time_Shift_445
Note_On_43_Vel_0
Time_Shift_414
Note_On_81_Vel_59
Time_Shift_3
Note_On_69_Vel_67
Time_Shift_6
Note_On_81_Vel_0
Time_Shift_15
Note_On_55_Vel_0
Note_On_67_Vel_0
Time_Shift_3
Note_On_60_Vel_48
Time_Shift_6
Note_On_67_Vel_46
Time_Shift_2
Note_On_55_Vel_44
Time_Shift_22
Sustain_Off
Time_Shift_3
Note_On_71_Vel_0
Note_On_62_Vel_0
Time_Shift_64
Sustain_On
Time_Shift_277
Note_On_71_Vel_70
Time_Shift_7
Note_On_55_Vel_0
Note_On_67_Vel_0
Time_Shift_4
Note_On_62_Vel_52
Time_Shift_2
Note_On_67_Vel_54
Time_Shift_2
Note_On_55_Vel_50
Time_Shift_5
Note_On_69_Vel_0
Note_On_60_Vel_0
Time_Shift_6
Sustain_Off
Time_Shift_81
Sustain_On
Time_Shift_169
Note_On_62_Vel_0
Time_Shift_340
Note_On_72_Vel_70
Time_Shift_2
Note_On_48_Vel_54
Time_Shift_3
Note_On_67_Vel_0
Time_Shift_3
Note_On_60_Vel_53
Time_Shift_1
Note_On_64_Vel_58
Time_Shift_4
Note_On_60_Vel_0
Time_Shift_1
Note_On_67_Vel_56
Time_Shift_141
Note_On_76_Vel_77
Time_Shift_19
Note_On_55_Vel_0
Note_On_64_Vel_0
Note_On_67_Vel_0
Note_On_71_Vel_0
Time_Shift_7
Note_On_67_Vel_60
Time_Shift_2
Note_On_71_Vel_60
Note_On_55_Vel_50
Time_Shift_1
Note_On_64_Vel_48
Time_Shift_60
Sustain_Off
Time_Shift_1
Note_On_72_Vel_0
Time_Shift_3
Note_On_48_Vel_0
Time_Shift_103
Note_On_64_Vel_0
Time_Shift_46
Sustain_On
Time_Shift_1481
Note_On_74_Vel_70
Time_Shift_9
Note_On_67_Vel_0
Time_Shift_5
Note_On_67_Vel_48
Time_Shift_4
Note_On_65_Vel_49
Time_Shift_45
Note_On_76_Vel_0
Time_Shift_2
Sustain_Off
Time_Shift_121
Sustain_On
Time_Shift_401
Note_On_72_Vel_77
Time_Shift_4
Note_On_64_Vel_60
Time_Shift_2
Note_On_67_Vel_0
Time_Shift_7
Note_On_55_Vel_0
Time_Shift_1
Note_On_67_Vel_58
Note_On_48_Vel_47
Time_Shift_2
Note_On_60_Vel_50
Time_Shift_9
Note_On_55_Vel_40
Time_Shift_142
Note_On_71_Vel_0
Time_Shift_6
Note_On_71_Vel_64
Time_Shift_48
Note_On_72_Vel_0
Time_Shift_11
Note_On_72_Vel_68
Time_Shift_81
Note_On_71_Vel_0
Time_Shift_10
Note_On_71_Vel_80
Time_Shift_5
Note_On_67_Vel_0
Time_Shift_7
Note_On_67_Vel_43
Time_Shift_1
Note_On_55_Vel_0
Time_Shift_11
Note_On_55_Vel_41
Time_Shift_1
Note_On_62_Vel_51
Time_Shift_3
Note_On_65_Vel_0
Time_Shift_6
Sustain_Off
Time_Shift_6
Note_On_64_Vel_0
Time_Shift_1
Note_On_74_Vel_0
Note_On_60_Vel_0
Time_Shift_1
Note_On_48_Vel_0
Time_Shift_17
Note_On_72_Vel_0
Time_Shift_77
Sustain_On
Time_Shift_630
Note_On_81_Vel_66
Note_On_69_Vel_76
Time_Shift_7
Note_On_81_Vel_0
Time_Shift_8
Note_On_67_Vel_0
Time_Shift_8
Note_On_55_Vel_0
Time_Shift_2
Note_On_67_Vel_44
Time_Shift_1
Note_On_60_Vel_50
Note_On_43_Vel_41
Time_Shift_1
Note_On_55_Vel_35
Time_Shift_63
Sustain_Off
Time_Shift_13
Note_On_62_Vel_0
Time_Shift_12
Note_On_71_Vel_0
Time_Shift_92
Sustain_On
Time_Shift_599
Note_On_55_Vel_0
Time_Shift_5
Note_On_71_Vel_66
Note_On_55_Vel_44
Time_Shift_6
Note_On_62_Vel_46
Time_Shift_20
Note_On_67_Vel_0
Time_Shift_4
Note_On_67_Vel_44
Time_Shift_22
Note_On_69_Vel_0
Note_On_60_Vel_0
Time_Shift_1
Note_On_43_Vel_0
Time_Shift_1
Sustain_Off
Time_Shift_110
Sustain_On
Time_Shift_481
Note_On_74_Vel_61
Time_Shift_3
Note_On_67_Vel_0
Time_Shift_4
Note_On_67_Vel_51
Time_Shift_6
Note_On_65_Vel_53
Time_Shift_176
Note_On_72_Vel_64
Time_Shift_18
Note_On_64_Vel_55
Time_Shift_7
Note_On_48_Vel_46
Note_On_60_Vel_43
Time_Shift_39
Sustain_Off
Time_Shift_2
Note_On_62_Vel_0
Time_Shift_1
Note_On_65_Vel_0
Note_On_71_Vel_0
Note_On_55_Vel_0
Time_Shift_4
Note_On_74_Vel_0
Time_Shift_119
Sustain_On
Time_Shift_765
Note_On_71_Vel_53
Time_Shift_12
Note_On_65_Vel_39
Time_Shift_3
Note_On_62_Vel_42
Time_Shift_1
Note_On_50_Vel_44
Time_Shift_49
Note_On_60_Vel_0
Note_On_64_Vel_0
Note_On_67_Vel_0
Time_Shift_3
Sustain_Off
Time_Shift_1
Note_On_72_Vel_0
Time_Shift_4
Note_On_48_Vel_0
Time_Shift_122
Sustain_On
Time_Shift_376
Note_On_62_Vel_0
Time_Shift_162
Note_On_65_Vel_0
Time_Shift_4
Note_On_69_Vel_55
Time_Shift_10
Note_On_51_Vel_39
Time_Shift_5
Note_On_66_Vel_49
Time_Shift_7
Note_On_60_Vel_42
Time_Shift_135
Note_On_50_Vel_0
Time_Shift_54
Note_On_71_Vel_0
Time_Shift_15
Note_On_69_Vel_0
Time_Shift_7
Note_On_69_Vel_56
Time_Shift_16
Note_On_60_Vel_0
Time_Shift_1
Note_On_64_Vel_50
Time_Shift_9
Note_On_60_Vel_32
Time_Shift_2
Note_On_52_Vel_49
Time_Shift_46
Sustain_Off
Note_On_66_Vel_0
Time_Shift_1
Note_On_51_Vel_0
Time_Shift_110
Sustain_On
Time_Shift_580
Note_On_68_Vel_61
Time_Shift_12
Note_On_64_Vel_0
Time_Shift_6
Note_On_64_Vel_45
Time_Shift_3
Note_On_59_Vel_48
Time_Shift_38
Sustain_Off
Time_Shift_6
Note_On_60_Vel_0
Time_Shift_16
Note_On_69_Vel_0
Time_Shift_123
Sustain_On
Time_Shift_483
Note_On_52_Vel_0
Time_Shift_7
Note_On_52_Vel_55
Time_Shift_34
Sustain_Off
Time_Shift_3
Note_On_68_Vel_0
Time_Shift_49
Note_On_64_Vel_0
Time_Shift_23
Sustain_On
Time_Shift_215
Note_On_59_Vel_0
Time_Shift_34
Note_On_66_Vel_58
Time_Shift_16
Note_On_69_Vel_50
Time_Shift_2
Note_On_57_Vel_47
Time_Shift_1
Note_On_76_Vel_48
Time_Shift_1
Note_On_64_Vel_51
Time_Shift_26
Sustain_Off
Time_Shift_73
Sustain_On
Time_Shift_270
Note_On_68_Vel_64
Time_Shift_7
Note_On_64_Vel_0
Note_On_76_Vel_0
Time_Shift_2
Note_On_59_Vel_52
Time_Shift_9
Note_On_64_Vel_36
Time_Shift_8
Sustain_Off
Time_Shift_4
Note_On_66_Vel_0
Time_Shift_2
Note_On_57_Vel_0
Time_Shift_98
Sustain_On
Time_Shift_430
Note_On_69_Vel_0
Time_Shift_30
Note_On_59_Vel_0
Time_Shift_42
Note_On_69_Vel_58
Time_Shift_4
Note_On_64_Vel_0
Time_Shift_4
Note_On_45_Vel_45
Time_Shift_4
Note_On_60_Vel_49
Note_On_64_Vel_44
Time_Shift_185
Note_On_72_Vel_59
Time_Shift_15
Note_On_52_Vel_0
Note_On_60_Vel_0
Note_On_64_Vel_0
Note_On_68_Vel_0
Time_Shift_4
Note_On_68_Vel_53
Time_Shift_1
Note_On_60_Vel_35
Time_Shift_3
Note_On_52_Vel_48
Time_Shift_1
Note_On_64_Vel_46
Time_Shift_46
Note_On_60_Vel_0
Time_Shift_1
Note_On_45_Vel_0
Time_Shift_1
Note_On_69_Vel_0
Sustain_Off
Time_Shift_196
Sustain_On
Time_Shift_1083
Note_On_64_Vel_0
Time_Shift_89
Note_On_71_Vel_51
Time_Shift_3
Note_On_40_Vel_33
Note_On_68_Vel_0
Time_Shift_8
Note_On_52_Vel_0
Time_Shift_2
Note_On_68_Vel_35
Time_Shift_3
Note_On_52_Vel_31
Time_Shift_1
Note_On_62_Vel_40
Note_On_64_Vel_40
Time_Shift_30
Sustain_Off
Time_Shift_6
Note_On_72_Vel_0
Time_Shift_96
Sustain_On
Time_Shift_215
Note_On_68_Vel_0
Time_Shift_145
Note_On_69_Vel_58
Time_Shift_1
Note_On_64_Vel_0
Time_Shift_3
Note_On_60_Vel_51
Time_Shift_4
Note_On_45_Vel_44
Note_On_64_Vel_44
Note_On_33_Vel_39
Time_Shift_9
Note_On_33_Vel_0
Time_Shift_5
Sustain_Off
Time_Shift_10
Note_On_62_Vel_0
Sustain_On
Time_Shift_150
Note_On_68_Vel_52
Time_Shift_65
Note_On_69_Vel_0
Time_Shift_11
Note_On_69_Vel_53
Time_Shift_43
Note_On_68_Vel_0
Time_Shift_5
Note_On_68_Vel_62
Time_Shift_21
Note_On_59_Vel_53
Time_Shift_4
Note_On_52_Vel_0
Note_On_64_Vel_0
Time_Shift_7
Note_On_52_Vel_37
Note_On_64_Vel_34
Time_Shift_6
Sustain_Off
Note_On_45_Vel_0
Time_Shift_1
Note_On_69_Vel_0
Note_On_60_Vel_0
Time_Shift_9
Note_On_71_Vel_0
Time_Shift_108
Sustain_On
Time_Shift_596
Note_On_66_Vel_56
Time_Shift_3
Note_On_40_Vel_0
Time_Shift_3
Note_On_57_Vel_42
Time_Shift_5
Note_On_52_Vel_0
Time_Shift_2
Note_On_40_Vel_40
Time_Shift_8
Note_On_52_Vel_35
Time_Shift_13
Note_On_64_Vel_0
Time_Shift_6
Note_On_64_Vel_40
Time_Shift_24
Sustain_Off
Time_Shift_7
Note_On_59_Vel_0
Time_Shift_16
Note_On_68_Vel_0
Time_Shift_93
Sustain_On
Time_Shift_605
Note_On_68_Vel_55
Time_Shift_15
Note_On_59_Vel_50
Time_Shift_2
Note_On_52_Vel_0
Note_On_64_Vel_0
Time_Shift_4
Note_On_64_Vel_47
Note_On_52_Vel_40
Time_Shift_49
Note_On_57_Vel_0
Time_Shift_3
Sustain_Off
Time_Shift_3
Note_On_66_Vel_0
Time_Shift_102
Sustain_On
Time_Shift_442
Note_On_71_Vel_51
Time_Shift_5
Note_On_62_Vel_44
Time_Shift_14
Note_On_64_Vel_0
Time_Shift_6
Note_On_64_Vel_32
Time_Shift_185
Note_On_81_Vel_57
Time_Shift_1
Note_On_69_Vel_63
Time_Shift_7
Note_On_81_Vel_0
Time_Shift_21
Note_On_60_Vel_48
Time_Shift_14
Note_On_68_Vel_0
Time_Shift_1
Note_On_59_Vel_0
Note_On_62_Vel_0
Time_Shift_1
Sustain_Off
Note_On_71_Vel_0
Time_Shift_94
Sustain_On
Time_Shift_241
Note_On_67_Vel_38
Time_Shift_1
Note_On_55_Vel_43
Time_Shift_64
Note_On_53_Vel_48
Time_Shift_33
Sustain_Off
Time_Shift_7
Note_On_40_Vel_0
Time_Shift_15
Note_On_52_Vel_0
Time_Shift_31
Note_On_55_Vel_0
Time_Shift_38
Sustain_On
Time_Shift_235
Note_On_52_Vel_53
Time_Shift_38
Note_On_53_Vel_0
Time_Shift_11
Sustain_Off
Time_Shift_39
Sustain_On
Time_Shift_305
Note_On_45_Vel_49
Time_Shift_53
Sustain_Off
Time_Shift_64
Sustain_On
Time_Shift_123
Note_On_60_Vel_0
Time_Shift_131
Note_On_64_Vel_0
Note_On_67_Vel_0
Time_Shift_227
Note_On_43_Vel_38
Time_Shift_7
Note_On_72_Vel_55
Time_Shift_7
Note_On_55_Vel_33
Time_Shift_1
Note_On_64_Vel_44
Time_Shift_1
Note_On_67_Vel_40
Time_Shift_48
Note_On_52_Vel_0
Time_Shift_7
Note_On_45_Vel_0
Time_Shift_2
Sustain_Off
Time_Shift_14
Note_On_69_Vel_0
Time_Shift_93
Sustain_On
Time_Shift_690
Note_On_71_Vel_47
Time_Shift_16
Note_On_55_Vel_0
Time_Shift_6
Note_On_62_Vel_34
Time_Shift_2
Note_On_67_Vel_0
Time_Shift_2
Note_On_55_Vel_33
Time_Shift_2
Note_On_67_Vel_32
Time_Shift_62
Sustain_Off
Note_On_72_Vel_0
Note_On_64_Vel_0
Time_Shift_118
Sustain_On
Time_Shift_1055
Note_On_69_Vel_48
Time_Shift_5
Note_On_55_Vel_0
Note_On_67_Vel_0
Time_Shift_4
Note_On_55_Vel_34
Time_Shift_7
Note_On_60_Vel_35
Note_On_67_Vel_38
Time_Shift_47
Sustain_Off
Time_Shift_26
Sustain_On
Time_Shift_8
Note_On_62_Vel_0
Time_Shift_108
Note_On_43_Vel_0
Time_Shift_238
Note_On_71_Vel_0
Time_Shift_4
Note_On_71_Vel_54
Time_Shift_3
Note_On_55_Vel_0
Time_Shift_8
Note_On_67_Vel_0
Time_Shift_1
Note_On_55_Vel_39
Time_Shift_3
Note_On_67_Vel_40
Time_Shift_2
Note_On_62_Vel_41
Time_Shift_44
Sustain_Off
Time_Shift_5
Note_On_69_Vel_0
Note_On_60_Vel_0
Time_Shift_99
Sustain_On
Time_Shift_588
Note_On_72_Vel_62
Time_Shift_3
Note_On_67_Vel_0
Time_Shift_3
Note_On_64_Vel_54
Time_Shift_2
Note_On_67_Vel_52
Time_Shift_3
Note_On_62_Vel_0
Note_On_48_Vel_43
Time_Shift_3
Note_On_60_Vel_48
Time_Shift_203
Note_On_76_Vel_65
Time_Shift_24
Note_On_64_Vel_0
Note_On_67_Vel_0
Note_On_71_Vel_0
Time_Shift_5
Note_On_71_Vel_49
Time_Shift_3
Note_On_55_Vel_0
Time_Shift_3
Note_On_67_Vel_44
Note_On_64_Vel_37
Time_Shift_1
Note_On_55_Vel_37
Time_Shift_86
Sustain_Off
Note_On_72_Vel_0
Time_Shift_1
Note_On_48_Vel_0
Time_Shift_1
Note_On_60_Vel_0
Time_Shift_138
Sustain_On
Time_Shift_315
Note_On_64_Vel_0
Time_Shift_1233
Note_On_43_Vel_39
Note_On_74_Vel_64
Time_Shift_4
Note_On_55_Vel_0
Time_Shift_5
Note_On_55_Vel_41
Time_Shift_1
Note_On_65_Vel_50
Time_Shift_1
Note_On_67_Vel_0
Time_Shift_4
Note_On_67_Vel_47
Time_Shift_45
Note_On_76_Vel_0
Time_Shift_2
Sustain_Off
Time_Shift_87
Sustain_On
Time_Shift_162
Note_On_71_Vel_0
Time_Shift_255
Note_On_72_Vel_72
Time_Shift_4
Note_On_64_Vel_57
Time_Shift_18
Note_On_48_Vel_48
Note_On_60_Vel_47
Time_Shift_7
Note_On_60_Vel_0
Time_Shift_146
Note_On_71_Vel_61
Time_Shift_46
Note_On_72_Vel_0
Time_Shift_11
Note_On_72_Vel_52
Time_Shift_89
Note_On_67_Vel_0
Note_On_71_Vel_0
Time_Shift_4
Note_On_71_Vel_65
Time_Shift_3
Note_On_55_Vel_0
Time_Shift_3
Note_On_67_Vel_45
Time_Shift_2
Note_On_55_Vel_39
Time_Shift_1
Note_On_62_Vel_51
Time_Shift_11
Note_On_65_Vel_0
Sustain_Off
Time_Shift_1
Note_On_74_Vel_0
Time_Shift_1
Note_On_43_Vel_0
Note_On_64_Vel_0
Note_On_48_Vel_0
Time_Shift_20
Note_On_72_Vel_0
Time_Shift_77
Sustain_On
Time_Shift_632
Note_On_81_Vel_56
Time_Shift_1
Note_On_69_Vel_65
Time_Shift_4
Note_On_81_Vel_0
Time_Shift_8
Note_On_55_Vel_0
Note_On_67_Vel_0
Time_Shift_5
Note_On_60_Vel_46
Time_Shift_1
Note_On_43_Vel_37
Time_Shift_3
Note_On_67_Vel_46
Time_Shift_1
Note_On_55_Vel_36
Time_Shift_34
Sustain_Off
Time_Shift_4
Note_On_62_Vel_0
Time_Shift_21
Note_On_71_Vel_0
Time_Shift_77
Sustain_On
Time_Shift_670
Note_On_71_Vel_53
Time_Shift_13
Note_On_55_Vel_0
Note_On_67_Vel_0
Time_Shift_6
Note_On_67_Vel_42
Time_Shift_3
Note_On_55_Vel_46
Note_On_62_Vel_42
Time_Shift_30
Note_On_60_Vel_0
Time_Shift_3
Sustain_Off
Time_Shift_1
Note_On_69_Vel_0
Time_Shift_111
Sustain_On
Time_Shift_503
Note_On_74_Vel_64
Time_Shift_11
Note_On_67_Vel_0
Time_Shift_5
Note_On_65_Vel_45
Time_Shift_4
Note_On_67_Vel_45
Time_Shift_213
Note_On_72_Vel_62
Time_Shift_21
Note_On_64_Vel_55
Note_On_48_Vel_39
Time_Shift_1
Note_On_60_Vel_41
Time_Shift_34
Sustain_Off
Time_Shift_1
Note_On_71_Vel_0
Time_Shift_1
Note_On_55_Vel_0
Note_On_65_Vel_0
Note_On_62_Vel_0
Time_Shift_1
Note_On_43_Vel_0
Time_Shift_1
Note_On_74_Vel_0
Time_Shift_118
Sustain_On
Time_Shift_791
Note_On_60_Vel_0
Time_Shift_6
Note_On_60_Vel_56
Time_Shift_104
Sustain_Off
Time_Shift_74
Sustain_On
Time_Shift_591
Note_On_64_Vel_0
Note_On_72_Vel_0
Time_Shift_4
Note_On_72_Vel_52
Time_Shift_8
Note_On_64_Vel_38
Time_Shift_4
Note_On_67_Vel_0
Time_Shift_4
Note_On_67_Vel_41
Time_Shift_195
Note_On_60_Vel_0
Time_Shift_369
Note_On_72_Vel_0
Time_Shift_6
Note_On_59_Vel_62
Time_Shift_4
Note_On_72_Vel_62
Time_Shift_221
Note_On_48_Vel_0
Time_Shift_15
Note_On_72_Vel_0
Time_Shift_8
Note_On_57_Vel_58
Time_Shift_1
Note_On_72_Vel_57
Time_Shift_3
Note_On_69_Vel_59
Time_Shift_8
Note_On_65_Vel_49
Time_Shift_36
Sustain_Off
Time_Shift_2
Note_On_67_Vel_0
Time_Shift_5
Note_On_59_Vel_0
Time_Shift_21
Note_On_64_Vel_0
Time_Shift_77
Sustain_On
Time_Shift_102
Note_On_59_Vel_58
Time_Shift_144
Note_On_57_Vel_0
Time_Shift_6
Note_On_57_Vel_60
Time_Shift_159
Sustain_Off
Time_Shift_1
Note_On_69_Vel_0
Note_On_57_Vel_0
Note_On_59_Vel_0
Time_Shift_8
Note_On_55_Vel_56
Time_Shift_95
Sustain_On
Time_Shift_268
Note_On_53_Vel_64
Time_Shift_16
Sustain_Off
Time_Shift_84
Sustain_On
Time_Shift_33
Note_On_74_Vel_71
Time_Shift_136
Note_On_72_Vel_0
Time_Shift_5
Sustain_Off
Time_Shift_1
Note_On_53_Vel_0
Note_On_74_Vel_0
Note_On_55_Vel_0
Time_Shift_10
Note_On_65_Vel_0
Time_Shift_18
Note_On_76_Vel_70
Time_Shift_7
Note_On_52_Vel_60
Note_On_67_Vel_56
Time_Shift_44
Sustain_On
Time_Shift_614
Note_On_76_Vel_0
Time_Shift_2
Note_On_50_Vel_60
Time_Shift_1
Note_On_68_Vel_72
Time_Shift_1
Note_On_76_Vel_72
Time_Shift_3
Note_On_64_Vel_63
Time_Shift_201
Note_On_76_Vel_0
Time_Shift_6
Note_On_81_Vel_65
Time_Shift_1
Note_On_69_Vel_69
Time_Shift_4
Note_On_76_Vel_64
Time_Shift_3
Note_On_48_Vel_61
Time_Shift_45
Note_On_68_Vel_0
Time_Shift_2
Sustain_Off
Time_Shift_1
Note_On_52_Vel_0
Note_On_50_Vel_0
Note_On_67_Vel_0
Time_Shift_122
Sustain_On
Time_Shift_59
Note_On_50_Vel_71
Time_Shift_179
Note_On_48_Vel_0
Time_Shift_4
Note_On_48_Vel_65
Time_Shift_134
Note_On_50_Vel_0
Note_On_76_Vel_0
Time_Shift_1
Note_On_48_Vel_0
Time_Shift_2
Note_On_69_Vel_0
Time_Shift_2
Note_On_47_Vel_66
Time_Shift_5
Note_On_76_Vel_49
Time_Shift_4
Note_On_71_Vel_59
Time_Shift_1
Sustain_Off
Time_Shift_47
Sustain_On
Time_Shift_153
Note_On_81_Vel_0
Time_Shift_144
Note_On_45_Vel_65
Time_Shift_2
Note_On_76_Vel_0
Time_Shift_5
Note_On_72_Vel_65
Time_Shift_6
Note_On_76_Vel_49
Time_Shift_16
Sustain_Off
Time_Shift_3
Note_On_71_Vel_0
Note_On_47_Vel_0
Time_Shift_9
Note_On_64_Vel_0
Time_Shift_46
Sustain_On
Time_Shift_372
Note_On_43_Vel_54
Time_Shift_12
Note_On_76_Vel_0
Time_Shift_5
Note_On_76_Vel_53
Time_Shift_2
Note_On_72_Vel_0
Time_Shift_2
Note_On_64_Vel_52
Time_Shift_2
Note_On_72_Vel_53
Time_Shift_1
Note_On_71_Vel_51
Time_Shift_29
Note_On_45_Vel_0
Sustain_Off
Time_Shift_112
Sustain_On
Time_Shift_138
Note_On_72_Vel_0
Time_Shift_438
Note_On_76_Vel_0
Time_Shift_4
Note_On_81_Vel_57
Note_On_42_Vel_51
Note_On_76_Vel_62
Time_Shift_2
Note_On_69_Vel_60
Time_Shift_2
Note_On_71_Vel_0
Time_Shift_3
Note_On_30_Vel_49
Time_Shift_5
Note_On_30_Vel_0
Time_Shift_2
Note_On_71_Vel_50
Time_Shift_159
Note_On_71_Vel_0
Note_On_76_Vel_0
Time_Shift_2
Note_On_40_Vel_49
Time_Shift_6
Note_On_76_Vel_73
Time_Shift_3
Note_On_71_Vel_55
Time_Shift_16
Note_On_69_Vel_0
Note_On_43_Vel_0
Time_Shift_1
Note_On_67_Vel_53
Time_Shift_4
Note_On_42_Vel_0
Time_Shift_3
Sustain_Off
Time_Shift_3
Note_On_64_Vel_0
Time_Shift_23
Note_On_81_Vel_0
Time_Shift_85
Sustain_On
Time_Shift_693
Note_On_35_Vel_44
Time_Shift_2
Note_On_47_Vel_42
Note_On_75_Vel_70
Time_Shift_4
Note_On_71_Vel_0
Time_Shift_10
Note_On_71_Vel_51
Time_Shift_1
Note_On_66_Vel_49
Time_Shift_67
Note_On_67_Vel_0
Time_Shift_1
Note_On_40_Vel_0
Sustain_Off
Time_Shift_13
Note_On_76_Vel_0
Time_Shift_100
Sustain_On
Time_Shift_733
Note_On_76_Vel_59
Time_Shift_12
Note_On_71_Vel_0
Time_Shift_4
Note_On_28_Vel_37
Time_Shift_2
Note_On_40_Vel_29
Time_Shift_3
Note_On_71_Vel_49
Time_Shift_2
Note_On_68_Vel_51
Time_Shift_3
Note_On_64_Vel_46
Time_Shift_45
Sustain_Off
Time_Shift_2
Note_On_47_Vel_0
Time_Shift_7
Note_On_66_Vel_0
Time_Shift_1
Note_On_75_Vel_0
Time_Shift_3
Note_On_35_Vel_0
Time_Shift_89
Sustain_On
Time_Shift_584
Note_On_40_Vel_0
Time_Shift_11
Note_On_40_Vel_31
Time_Shift_85
Sustain_Off
Time_Shift_26
Sustain_On
Time_Shift_600
Note_On_28_Vel_0
Time_Shift_64
Note_On_52_Vel_43
Time_Shift_84
Sustain_Off
Time_Shift_74
Sustain_On
Time_Shift_274
Note_On_45_Vel_48
Time_Shift_56
Sustain_Off
Time_Shift_16
Sustain_On
Time_Shift_367
Note_On_60_Vel_60
Time_Shift_30
Note_On_69_Vel_57
Time_Shift_2
Note_On_81_Vel_47
Time_Shift_254
Note_On_40_Vel_0
Time_Shift_422
Note_On_69_Vel_0
Note_On_81_Vel_0
Time_Shift_11
Note_On_81_Vel_58
Note_On_69_Vel_63
Note_On_59_Vel_62
Time_Shift_219
Note_On_69_Vel_0
Note_On_81_Vel_0
Time_Shift_4
Note_On_57_Vel_66
Time_Shift_7
Note_On_69_Vel_63
Time_Shift_1
Note_On_81_Vel_60
Time_Shift_15
Note_On_77_Vel_49
Time_Shift_1
Note_On_62_Vel_47
Time_Shift_1
Note_On_65_Vel_52
Time_Shift_33
Note_On_68_Vel_0
Time_Shift_1
Note_On_52_Vel_0
Time_Shift_1
Note_On_45_Vel_0
Note_On_60_Vel_0
Time_Shift_1
Sustain_Off
Time_Shift_12
Note_On_64_Vel_0
Note_On_76_Vel_0
Time_Shift_8
Note_On_71_Vel_0
Time_Shift_84
Sustain_On
Time_Shift_70
Note_On_59_Vel_0
Time_Shift_10
Note_On_59_Vel_66
Time_Shift_1
Note_On_71_Vel_56
Time_Shift_142
Note_On_57_Vel_0
Time_Shift_8
Note_On_69_Vel_0
Time_Shift_4
Note_On_57_Vel_64
Time_Shift_1
Note_On_69_Vel_58
Time_Shift_158
Note_On_57_Vel_0
Time_Shift_2
Note_On_65_Vel_0
Time_Shift_1
Note_On_59_Vel_0
Sustain_Off
Time_Shift_2
Note_On_55_Vel_54
Time_Shift_1
Note_On_81_Vel_0
Note_On_67_Vel_47
Time_Shift_123
Sustain_On
Time_Shift_268
Note_On_62_Vel_0
Time_Shift_51
Note_On_53_Vel_62
Time_Shift_157
Note_On_71_Vel_0
Time_Shift_8
Note_On_71_Vel_67
Time_Shift_2
Note_On_83_Vel_56
Time_Shift_5
Note_On_83_Vel_0
Time_Shift_23
Note_On_77_Vel_0
Time_Shift_62
Note_On_67_Vel_0
Time_Shift_85
Note_On_84_Vel_63
Time_Shift_2
Note_On_72_Vel_71
Time_Shift_5
Note_On_69_Vel_0
Note_On_84_Vel_0
Time_Shift_4
Note_On_81_Vel_57
Note_On_55_Vel_0
Note_On_53_Vel_0
Time_Shift_2
Note_On_69_Vel_56
Time_Shift_1
Note_On_71_Vel_0
Time_Shift_6
Note_On_64_Vel_55
Note_On_52_Vel_56
Sustain_Off
Time_Shift_7
Note_On_60_Vel_56
Time_Shift_126
Sustain_On
Time_Shift_38
Note_On_81_Vel_0
Time_Shift_522
Note_On_72_Vel_0
Time_Shift_4
Note_On_50_Vel_67
Time_Shift_2
Note_On_84_Vel_63
Time_Shift_4
Note_On_72_Vel_66
Time_Shift_6
Note_On_84_Vel_0
Time_Shift_199
Note_On_72_Vel_0
Time_Shift_4
Note_On_48_Vel_66
Time_Shift_5
Note_On_84_Vel_68
Time_Shift_1
Note_On_72_Vel_72
Time_Shift_6
Note_On_84_Vel_0
Time_Shift_2
Note_On_81_Vel_63
Note_On_76_Vel_57
Time_Shift_17
Note_On_50_Vel_0
Note_On_60_Vel_0
Note_On_52_Vel_0
Time_Shift_8
Sustain_Off
Time_Shift_142
Note_On_81_Vel_0
Time_Shift_38
Sustain_On
Time_Shift_10
Note_On_50_Vel_70
Time_Shift_136
Note_On_48_Vel_0
Time_Shift_8
Note_On_48_Vel_63
Time_Shift_9
Note_On_50_Vel_0
Time_Shift_144
Sustain_Off
Time_Shift_3
Note_On_48_Vel_0
Time_Shift_1
Note_On_47_Vel_58
Time_Shift_119
Sustain_On
Time_Shift_285
Note_On_45_Vel_58
Time_Shift_47
Note_On_47_Vel_0
Time_Shift_4
Sustain_Off
Time_Shift_48
Sustain_On
Time_Shift_312
Note_On_43_Vel_51
Time_Shift_41
Note_On_45_Vel_0
Time_Shift_11
Sustain_Off
Time_Shift_97
Sustain_On
Time_Shift_23
Note_On_76_Vel_0
Time_Shift_476
Note_On_64_Vel_0
Time_Shift_108
Note_On_72_Vel_0
Time_Shift_4
Note_On_72_Vel_59
Time_Shift_2
Note_On_43_Vel_0
Time_Shift_1
Note_On_69_Vel_0
Time_Shift_4
Note_On_41_Vel_44
Sustain_Off
Time_Shift_2
Note_On_81_Vel_49
Time_Shift_1
Note_On_63_Vel_47
Time_Shift_5
Note_On_69_Vel_51
Time_Shift_4
Note_On_81_Vel_0
Time_Shift_3
Note_On_60_Vel_34
Time_Shift_12
Sustain_On
Time_Shift_169
Note_On_72_Vel_0
Time_Shift_10
Note_On_72_Vel_56
Time_Shift_15
Note_On_28_Vel_46
Time_Shift_2
Note_On_40_Vel_45
Time_Shift_4
Note_On_28_Vel_0
Note_On_69_Vel_0
Time_Shift_4
Note_On_69_Vel_48
Time_Shift_7
Note_On_64_Vel_53
Time_Shift_8
Note_On_76_Vel_52
Time_Shift_11
Sustain_Off
Time_Shift_2
Note_On_63_Vel_0
Time_Shift_29
Note_On_41_Vel_0
Time_Shift_77
Note_On_60_Vel_0
Time_Shift_8
Sustain_On
Time_Shift_806
Note_On_64_Vel_0
Time_Shift_5
Note_On_68_Vel_52
Time_Shift_3
Note_On_40_Vel_0
Time_Shift_2
Note_On_71_Vel_54
Note_On_62_Vel_46
Time_Shift_1
Note_On_64_Vel_46
Time_Shift_7
Note_On_40_Vel_32
Time_Shift_1
Note_On_28_Vel_38
Time_Shift_55
Sustain_Off
Time_Shift_18
Note_On_76_Vel_0
Time_Shift_16
Note_On_72_Vel_0
Time_Shift_38
Sustain_On
Time_Shift_77
Note_On_69_Vel_0
Time_Shift_759
Note_On_33_Vel_35
Time_Shift_6
Note_On_45_Vel_38
Time_Shift_2
Note_On_69_Vel_51
Time_Shift_20
Note_On_60_Vel_44
Note_On_72_Vel_39
Time_Shift_81
Note_On_28_Vel_0
Time_Shift_5
Note_On_71_Vel_0
Note_On_62_Vel_0
Time_Shift_3
Note_On_68_Vel_0
Time_Shift_1
Sustain_Off
Time_Shift_29
Note_On_40_Vel_0
Time_Shift_38
Sustain_On
Time_Shift_70
Note_On_64_Vel_0
Time_Shift_568
Note_On_45_Vel_0
Time_Shift_5
Note_On_45_Vel_40
Time_Shift_102
Sustain_Off
Time_Shift_85
Sustain_On
Time_Shift_683
Note_On_69_Vel_0
Time_Shift_5
Note_On_57_Vel_43
Note_On_69_Vel_41
Time_Shift_18
Note_On_33_Vel_0
Time_Shift_97
Sustain_Off
Time_Shift_57
Sustain_On
Time_Shift_561
Note_On_48_Vel_42
Time_Shift_468
Note_On_60_Vel_0
Time_Shift_10
Note_On_60_Vel_56
Time_Shift_6
Note_On_72_Vel_0
Time_Shift_4
Note_On_72_Vel_44
Time_Shift_7
Note_On_67_Vel_42
Time_Shift_9
Note_On_64_Vel_33
Time_Shift_94
Note_On_69_Vel_0
Time_Shift_1
Note_On_45_Vel_0
Time_Shift_4
Sustain_Off
Time_Shift_11
Note_On_57_Vel_0
Time_Shift_62
Sustain_On
Time_Shift_529
Note_On_59_Vel_61
Time_Shift_39
Note_On_72_Vel_0
Time_Shift_8
Note_On_72_Vel_54
Time_Shift_267
Note_On_57_Vel_57
Time_Shift_17
Note_On_72_Vel_0
Time_Shift_9
Note_On_69_Vel_51
Time_Shift_1
Note_On_72_Vel_49
Time_Shift_18
Note_On_65_Vel_44
Time_Shift_44
Note_On_67_Vel_0
Time_Shift_1
Note_On_60_Vel_0
Note_On_64_Vel_0
Time_Shift_1
Note_On_59_Vel_0
Sustain_Off
Time_Shift_10
Note_On_48_Vel_0
Time_Shift_62
Sustain_On
Time_Shift_127
Note_On_59_Vel_63
Time_Shift_172
Note_On_57_Vel_0
Note_On_69_Vel_0
Time_Shift_5
Note_On_57_Vel_61
Time_Shift_5
Note_On_69_Vel_57
Time_Shift_171
Note_On_55_Vel_63
Time_Shift_45
Note_On_57_Vel_0
Time_Shift_1
Note_On_59_Vel_0
Time_Shift_4
Sustain_Off
Time_Shift_92
Sustain_On
Time_Shift_326
Note_On_53_Vel_66
Time_Shift_155
Note_On_74_Vel_76
Time_Shift_199
Note_On_76_Vel_69
Time_Shift_3
Note_On_72_Vel_0
Time_Shift_3
Note_On_52_Vel_68
Time_Shift_1
Note_On_67_Vel_58
Time_Shift_4
Note_On_72_Vel_56
Time_Shift_12
Note_On_55_Vel_0
Time_Shift_1
Note_On_53_Vel_0
Time_Shift_1
Note_On_74_Vel_0
Time_Shift_1
Sustain_Off
Time_Shift_8
Note_On_65_Vel_0
Time_Shift_15
Note_On_69_Vel_0
Time_Shift_92
Sustain_On
Time_Shift_629
Note_On_50_Vel_69
Time_Shift_1
Note_On_76_Vel_0
Time_Shift_4
Note_On_68_Vel_76
Time_Shift_1
Note_On_76_Vel_74
Time_Shift_6
Note_On_64_Vel_64
Time_Shift_204
Note_On_76_Vel_0
Time_Shift_7
Note_On_76_Vel_69
Time_Shift_1
Note_On_64_Vel_0
Time_Shift_4
Note_On_69_Vel_70
Time_Shift_1
Note_On_64_Vel_63
Note_On_48_Vel_70
Time_Shift_61
Sustain_Off
Note_On_72_Vel_0
Note_On_50_Vel_0
Time_Shift_1
Note_On_68_Vel_0
Note_On_52_Vel_0
Time_Shift_117
Sustain_On
Time_Shift_80
Note_On_50_Vel_72
Time_Shift_174
Note_On_48_Vel_0
Time_Shift_8
Note_On_48_Vel_68
Time_Shift_167
Note_On_47_Vel_69
Time_Shift_5
Note_On_71_Vel_68
Time_Shift_37
Sustain_Off
Time_Shift_2
Note_On_48_Vel_0
Time_Shift_1
Note_On_50_Vel_0
Time_Shift_18
Note_On_69_Vel_0
Time_Shift_61
Sustain_On
Time_Shift_269
Note_On_67_Vel_0
Time_Shift_11
Note_On_45_Vel_65
Time_Shift_1
Note_On_72_Vel_72
Time_Shift_55
Sustain_Off
Time_Shift_1
Note_On_71_Vel_0
Time_Shift_9
Note_On_47_Vel_0
Time_Shift_31
Sustain_On
Time_Shift_161
Note_On_76_Vel_0
Time_Shift_240
Note_On_76_Vel_69
Time_Shift_4
Note_On_43_Vel_53
Time_Shift_2
Note_On_64_Vel_0
Time_Shift_4
Note_On_64_Vel_53
Note_On_71_Vel_56
Time_Shift_58
Sustain_Off
Time_Shift_3
Note_On_72_Vel_0
Time_Shift_2
Note_On_45_Vel_0
Time_Shift_94
Sustain_On
Time_Shift_591
Note_On_76_Vel_0
Time_Shift_11
Note_On_76_Vel_72
Time_Shift_1
Note_On_69_Vel_68
Time_Shift_4
Note_On_71_Vel_0
Time_Shift_3
Note_On_42_Vel_54
Time_Shift_1
Note_On_71_Vel_61
Time_Shift_2
Note_On_30_Vel_54
Time_Shift_1
Note_On_64_Vel_0
Time_Shift_8
Note_On_30_Vel_0
Time_Shift_177
Note_On_76_Vel_0
Time_Shift_7
Note_On_71_Vel_0
Note_On_76_Vel_70
Time_Shift_2
Note_On_40_Vel_49
Time_Shift_2
Note_On_71_Vel_58
Time_Shift_9
Note_On_67_Vel_59
Time_Shift_43
Note_On_69_Vel_0
Time_Shift_1
Note_On_43_Vel_0
Note_On_42_Vel_0
Time_Shift_6
Sustain_Off
Time_Shift_137
Sustain_On
Time_Shift_690
Note_On_75_Vel_65
Time_Shift_1
Note_On_71_Vel_0
Time_Shift_4
Note_On_63_Vel_47
Note_On_35_Vel_43
Time_Shift_3
Note_On_66_Vel_46
Time_Shift_1
Note_On_63_Vel_0
Time_Shift_3
Note_On_47_Vel_40
Note_On_71_Vel_49
Time_Shift_63
Sustain_Off
Time_Shift_1
Note_On_67_Vel_0
Time_Shift_1
Note_On_40_Vel_0
Time_Shift_16
Note_On_76_Vel_0
Time_Shift_92
Sustain_On
Time_Shift_882
Note_On_76_Vel_58
Time_Shift_11
Note_On_28_Vel_36
Time_Shift_2
Note_On_40_Vel_27
Time_Shift_16
Note_On_68_Vel_44
Time_Shift_7
Note_On_64_Vel_38
Time_Shift_58
Note_On_47_Vel_0
Time_Shift_15
Sustain_Off
Time_Shift_1
Note_On_75_Vel_0
Time_Shift_1
Note_On_66_Vel_0
Time_Shift_2
Note_On_35_Vel_0
Time_Shift_35
Note_On_71_Vel_0
Time_Shift_69
Sustain_On
Time_Shift_583
Note_On_28_Vel_0
Note_On_40_Vel_0
Time_Shift_7
Note_On_28_Vel_39
Time_Shift_4
Note_On_40_Vel_33
Time_Shift_87
Sustain_Off
Time_Shift_56
Note_On_28_Vel_0
Time_Shift_23
Sustain_On
Time_Shift_786
Note_On_52_Vel_44
Time_Shift_97
Sustain_Off
Time_Shift_85
Sustain_On
Time_Shift_441
Note_On_45_Vel_46
Time_Shift_93
Sustain_Off
Time_Shift_19
Sustain_On
Time_Shift_615
Note_On_60_Vel_51
Time_Shift_15
Note_On_69_Vel_55
Time_Shift_4
Note_On_81_Vel_43
Time_Shift_11
Note_On_76_Vel_0
Time_Shift_7
Note_On_64_Vel_0
Time_Shift_4
Note_On_76_Vel_39
Time_Shift_1
Note_On_64_Vel_40
Time_Shift_2
Note_On_72_Vel_39
Time_Shift_593
Note_On_40_Vel_0
Note_On_68_Vel_0
Time_Shift_215
Note_On_81_Vel_0
Time_Shift_7
Note_On_69_Vel_0
Time_Shift_2
Note_On_81_Vel_48
Time_Shift_3
Note_On_69_Vel_54
Time_Shift_1
Note_On_59_Vel_47
Time_Shift_330
Note_On_57_Vel_53
Time_Shift_2
Note_On_69_Vel_0
Note_On_81_Vel_0
Time_Shift_8
Note_On_81_Vel_53
Time_Shift_3
Note_On_69_Vel_58
Time_Shift_6
Note_On_77_Vel_43
Time_Shift_10
Note_On_65_Vel_41
Time_Shift_50
Note_On_76_Vel_0
Time_Shift_2
Note_On_60_Vel_0
Note_On_64_Vel_0
Note_On_59_Vel_0
Note_On_52_Vel_0
Time_Shift_1
Note_On_45_Vel_0
Time_Shift_1
Sustain_Off
Time_Shift_4
Note_On_72_Vel_0
Time_Shift_69
Sustain_On
Time_Shift_123
Note_On_81_Vel_0
Time_Shift_27
Note_On_59_Vel_51
Time_Shift_26
Note_On_77_Vel_0
Time_Shift_131
Note_On_57_Vel_0
Time_Shift_11
Note_On_57_Vel_55
Time_Shift_186
Note_On_55_Vel_48
Time_Shift_20
Note_On_57_Vel_0
Sustain_Off
Time_Shift_1
Note_On_59_Vel_0
Time_Shift_105
Sustain_On
Time_Shift_376
Note_On_53_Vel_51
Time_Shift_200
Note_On_83_Vel_48
Note_On_71_Vel_56
Time_Shift_7
Note_On_83_Vel_0
Time_Shift_203
Note_On_72_Vel_60
Time_Shift_20
Note_On_69_Vel_0
Time_Shift_8
Note_On_64_Vel_50
Time_Shift_2
Note_On_52_Vel_53
Time_Shift_1
Note_On_69_Vel_45
Time_Shift_2
Note_On_60_Vel_48
Time_Shift_45
Note_On_53_Vel_0
Note_On_71_Vel_0
Time_Shift_1
Sustain_Off
Time_Shift_18
Note_On_55_Vel_0
Note_On_65_Vel_0
Time_Shift_77
Sustain_On
Time_Shift_661
Note_On_50_Vel_60
Time_Shift_7
Note_On_72_Vel_0
Time_Shift_11
Note_On_72_Vel_58
Time_Shift_250
Note_On_72_Vel_0
Time_Shift_5
Note_On_72_Vel_59
Time_Shift_2
Note_On_60_Vel_0
Time_Shift_8
Note_On_60_Vel_52
Note_On_64_Vel_0
Note_On_69_Vel_0
Time_Shift_2
Note_On_48_Vel_56
Time_Shift_3
Note_On_64_Vel_52
Note_On_69_Vel_52
Time_Shift_36
Note_On_50_Vel_0
Time_Shift_1
Note_On_52_Vel_0
Time_Shift_2
Sustain_Off
Time_Shift_79
Sustain_On
Time_Shift_136
Note_On_50_Vel_61
Time_Shift_164
Note_On_48_Vel_0
Time_Shift_7
Note_On_48_Vel_58
Time_Shift_162
Note_On_60_Vel_0
Time_Shift_1
Note_On_47_Vel_57
Time_Shift_18
Note_On_50_Vel_0
Time_Shift_5
Note_On_48_Vel_0
Time_Shift_10
Sustain_Off
Time_Shift_88
Sustain_On
Time_Shift_297
Note_On_45_Vel_51
Time_Shift_67
Note_On_47_Vel_0
Time_Shift_16
Sustain_Off
Time_Shift_89
Sustain_On
Time_Shift_329
Note_On_43_Vel_41
Time_Shift_98
Note_On_45_Vel_0
Time_Shift_9
Sustain_Off
Time_Shift_101
Sustain_On
Time_Shift_669
Note_On_69_Vel_0
Note_On_72_Vel_0
Time_Shift_9
Note_On_63_Vel_49
Note_On_69_Vel_55
Note_On_72_Vel_59
Time_Shift_3
Note_On_41_Vel_44
Time_Shift_12
Note_On_43_Vel_0
Time_Shift_6
Note_On_64_Vel_0
Time_Shift_185
Note_On_72_Vel_0
Time_Shift_8
Note_On_72_Vel_57
Time_Shift_13
Note_On_40_Vel_39
Time_Shift_9
Note_On_69_Vel_0
Time_Shift_11
Note_On_69_Vel_47
Time_Shift_5
Note_On_64_Vel_56
Time_Shift_41
Note_On_41_Vel_0
Time_Shift_1
Note_On_63_Vel_0
Time_Shift_5
Sustain_Off
Time_Shift_106
Sustain_On
Time_Shift_776
Note_On_64_Vel_0
Time_Shift_6
Note_On_64_Vel_44
Time_Shift_3
Note_On_62_Vel_38
Time_Shift_3
Note_On_68_Vel_44
Note_On_28_Vel_33
Time_Shift_1
Note_On_71_Vel_51
Time_Shift_95
Sustain_Off
Time_Shift_84
Sustain_On
Time_Shift_799
Note_On_72_Vel_0
Time_Shift_21
Note_On_33_Vel_33
Time_Shift_2
Note_On_45_Vel_38
Time_Shift_7
Note_On_69_Vel_0
Time_Shift_6
Note_On_69_Vel_53
Time_Shift_102
Note_On_28_Vel_0
Time_Shift_2
Sustain_Off
Time_Shift_3
Note_On_40_Vel_0
Time_Shift_18
Note_On_68_Vel_0
Time_Shift_146
Sustain_On
Time_Shift_107
Note_On_64_Vel_0
Time_Shift_47
Note_On_62_Vel_0
Time_Shift_345
Note_On_45_Vel_0
Time_Shift_8
Note_On_45_Vel_38
Time_Shift_1001
Note_On_52_Vel_36
Time_Shift_3
Note_On_64_Vel_37
Time_Shift_5
Note_On_61_Vel_38
Time_Shift_1134
Note_On_71_Vel_0
Time_Shift_7
Note_On_83_Vel_43
Note_On_71_Vel_53
Time_Shift_8
Note_On_83_Vel_0
Time_Shift_18
Note_On_59_Vel_44
Time_Shift_132
Note_On_61_Vel_0
Note_On_64_Vel_0
Sustain_Off
Time_Shift_1
Note_On_45_Vel_0
Note_On_52_Vel_0
Note_On_69_Vel_0
Time_Shift_1
Note_On_33_Vel_0
Time_Shift_117
Sustain_On
Time_Shift_400
Note_On_68_Vel_52
Time_Shift_7
Note_On_64_Vel_41
Time_Shift_1
Note_On_62_Vel_32
Time_Shift_1
Note_On_76_Vel_36
Time_Shift_2
Note_On_52_Vel_37
Time_Shift_3
Note_On_76_Vel_0
Time_Shift_595
Note_On_74_Vel_59
Time_Shift_4
Note_On_62_Vel_0
Time_Shift_10
Note_On_62_Vel_45
Time_Shift_3
Note_On_52_Vel_0
Time_Shift_2
Note_On_68_Vel_0
Note_On_59_Vel_0
Time_Shift_4
Note_On_64_Vel_0
Time_Shift_546
Sustain_Off
Time_Shift_2
Note_On_73_Vel_61
Time_Shift_7
Note_On_61_Vel_51
Time_Shift_7
Note_On_71_Vel_0
Time_Shift_1
Note_On_74_Vel_0
Time_Shift_33
Note_On_62_Vel_0
Time_Shift_8
Sustain_On
Time_Shift_378
Note_On_45_Vel_47
Time_Shift_17
Note_On_68_Vel_59
Time_Shift_4
Note_On_61_Vel_0
Note_On_73_Vel_0
Time_Shift_4
Note_On_73_Vel_52
Time_Shift_4
Note_On_61_Vel_57
Time_Shift_2
Note_On_64_Vel_50
Time_Shift_130
Note_On_71_Vel_66
Time_Shift_3
Note_On_59_Vel_57
Time_Shift_52
Note_On_68_Vel_0
Time_Shift_1
Note_On_45_Vel_0
Note_On_61_Vel_0
Note_On_64_Vel_0
Note_On_73_Vel_0
Time_Shift_1
Sustain_Off
Time_Shift_72
Sustain_On
Time_Shift_477
Note_On_57_Vel_41
Time_Shift_3
Note_On_69_Vel_57
Time_Shift_19
Note_On_61_Vel_43
Time_Shift_3
Note_On_64_Vel_40
Time_Shift_7
Sustain_Off
Time_Shift_3
Note_On_59_Vel_0
Note_On_71_Vel_0
Time_Shift_71
Sustain_On
Time_Shift_542
Note_On_74_Vel_66
Time_Shift_23
Note_On_62_Vel_31
Time_Shift_75
Note_On_57_Vel_0
Note_On_69_Vel_0
Note_On_64_Vel_0
Note_On_61_Vel_0
Time_Shift_1
Sustain_Off
Time_Shift_89
Sustain_On
Time_Shift_408
Note_On_50_Vel_49
Time_Shift_49
Note_On_69_Vel_53
Note_On_81_Vel_48
Time_Shift_1
Note_On_57_Vel_42
Time_Shift_3
Note_On_81_Vel_0
Time_Shift_10
Note_On_66_Vel_42
Time_Shift_5
Note_On_62_Vel_0
Time_Shift_11
Note_On_62_Vel_30
Time_Shift_642
Note_On_66_Vel_0
Time_Shift_4
Note_On_78_Vel_72
Time_Shift_1
Note_On_66_Vel_54
Time_Shift_10
Note_On_69_Vel_0
Time_Shift_6
Note_On_69_Vel_35
Time_Shift_113
Note_On_62_Vel_0
Note_On_50_Vel_0
Time_Shift_1
Note_On_74_Vel_0
Sustain_Off
Time_Shift_88
Sustain_On
Time_Shift_514
Note_On_66_Vel_0
Note_On_78_Vel_0
Time_Shift_5
Note_On_78_Vel_66
Note_On_66_Vel_51
Time_Shift_477
Note_On_75_Vel_65
Time_Shift_17
Note_On_57_Vel_0
Time_Shift_7
Note_On_57_Vel_39
Time_Shift_1
Note_On_69_Vel_0
Time_Shift_4
Note_On_69_Vel_42
Time_Shift_8
Note_On_73_Vel_35
Time_Shift_8
Note_On_63_Vel_35
Time_Shift_103
Note_On_78_Vel_0
Time_Shift_11
Note_On_78_Vel_69
Time_Shift_4
Note_On_66_Vel_0
Time_Shift_6
Note_On_66_Vel_54
Time_Shift_21
Sustain_Off
Time_Shift_7
Note_On_75_Vel_0
Note_On_63_Vel_0
Time_Shift_89
Sustain_On
Time_Shift_115
Note_On_73_Vel_0
Time_Shift_39
Note_On_69_Vel_0
Time_Shift_284
Note_On_57_Vel_0
Time_Shift_75
Note_On_76_Vel_57
Time_Shift_21
Note_On_64_Vel_48
Time_Shift_8
Note_On_73_Vel_42
Time_Shift_3
Note_On_69_Vel_43
Time_Shift_25
Sustain_Off
Time_Shift_6
Note_On_66_Vel_0
Time_Shift_31
Note_On_78_Vel_0
Time_Shift_54
Sustain_On
Time_Shift_525
Note_On_78_Vel_63
Time_Shift_1
Note_On_66_Vel_54
Time_Shift_34
Sustain_Off
Note_On_69_Vel_0
Time_Shift_1
Note_On_76_Vel_0
Time_Shift_1
Note_On_64_Vel_0
Note_On_73_Vel_0
Time_Shift_75
Sustain_On
Time_Shift_357
Note_On_52_Vel_52
Time_Shift_26
Note_On_68_Vel_53
Time_Shift_4
Note_On_74_Vel_50
Time_Shift_1
Note_On_59_Vel_47
Time_Shift_11
Sustain_Off
Time_Shift_24
Sustain_On
Time_Shift_30
Note_On_66_Vel_0
Time_Shift_62
Note_On_78_Vel_0
Time_Shift_9
Note_On_78_Vel_70
Time_Shift_36
Note_On_66_Vel_56
Time_Shift_523
Note_On_74_Vel_0
Time_Shift_36
Note_On_76_Vel_69
Time_Shift_2
Note_On_68_Vel_0
Time_Shift_4
Note_On_68_Vel_50
Time_Shift_1
Note_On_74_Vel_49
Time_Shift_5
Note_On_64_Vel_60
Time_Shift_45
Note_On_66_Vel_0
Time_Shift_2
Sustain_Off
Note_On_78_Vel_0
Time_Shift_13
Note_On_52_Vel_0
Time_Shift_7
Note_On_59_Vel_0
Time_Shift_54
Sustain_On
Time_Shift_338
Note_On_64_Vel_0
Time_Shift_4
Note_On_64_Vel_49
Time_Shift_140
Note_On_81_Vel_73
Time_Shift_12
Sustain_Off
Note_On_68_Vel_0
Time_Shift_1
Note_On_74_Vel_0
Time_Shift_1
Note_On_76_Vel_0
Time_Shift_8
Note_On_69_Vel_60
Time_Shift_87
Sustain_On
Time_Shift_162
Note_On_64_Vel_0
Time_Shift_259
Note_On_75_Vel_70
Time_Shift_3
Note_On_57_Vel_58
Time_Shift_6
Note_On_69_Vel_0
Time_Shift_6
Note_On_69_Vel_61
Time_Shift_8
Note_On_73_Vel_48
Time_Shift_1
Note_On_63_Vel_45
Time_Shift_127
Note_On_78_Vel_72
Time_Shift_12
Note_On_66_Vel_64
Time_Shift_34
Sustain_Off
Time_Shift_1
Note_On_75_Vel_0
Time_Shift_1
Note_On_73_Vel_0
Note_On_57_Vel_0
Time_Shift_1
Note_On_81_Vel_0
Time_Shift_1
Note_On_63_Vel_0
Time_Shift_16
Note_On_69_Vel_0
Time_Shift_61
Sustain_On
Time_Shift_515
Note_On_66_Vel_0
Time_Shift_5
Note_On_76_Vel_63
Time_Shift_2
Note_On_78_Vel_0
Time_Shift_4
Note_On_81_Vel_53
Time_Shift_7
Note_On_69_Vel_54
Time_Shift_3
Note_On_64_Vel_52
Time_Shift_3
Sustain_Off
Time_Shift_2
Note_On_73_Vel_43
Time_Shift_89
Sustain_On
Time_Shift_553
Note_On_73_Vel_0
Time_Shift_6
Note_On_61_Vel_59
Time_Shift_3
Note_On_73_Vel_58
Time_Shift_33
Note_On_76_Vel_0
Sustain_Off
Time_Shift_1
Note_On_64_Vel_0
Time_Shift_3
Note_On_81_Vel_0
Time_Shift_85
Sustain_On
Time_Shift_46
Note_On_69_Vel_0
Time_Shift_308
Note_On_47_Vel_47
Time_Shift_17
Note_On_59_Vel_40
Time_Shift_5
Note_On_59_Vel_0
Time_Shift_2
Note_On_70_Vel_60
Time_Shift_4
Note_On_63_Vel_43
Time_Shift_2
Note_On_73_Vel_0
Time_Shift_11
Note_On_69_Vel_57
Time_Shift_157
Note_On_61_Vel_0
Time_Shift_3
Note_On_73_Vel_67
Time_Shift_4
Note_On_61_Vel_56
Time_Shift_29
Note_On_69_Vel_0
Note_On_63_Vel_0
Note_On_70_Vel_0
Time_Shift_1
Note_On_47_Vel_0
Sustain_Off
Time_Shift_94
Sustain_On
Time_Shift_649
Note_On_71_Vel_54
Time_Shift_16
Note_On_59_Vel_47
Note_On_69_Vel_40
Time_Shift_39
Sustain_Off
Time_Shift_7
Note_On_73_Vel_0
Time_Shift_11
Note_On_61_Vel_0
Time_Shift_92
Sustain_On
Time_Shift_514
Note_On_76_Vel_51
Time_Shift_24
Note_On_71_Vel_0
Time_Shift_4
Note_On_64_Vel_40
Time_Shift_3
Note_On_71_Vel_30
Time_Shift_33
Note_On_59_Vel_0
Time_Shift_1
Note_On_69_Vel_0
Sustain_Off
Time_Shift_66
Sustain_On
Time_Shift_400
Note_On_64_Vel_0
Time_Shift_8
Note_On_64_Vel_49
Time_Shift_10
Note_On_58_Vel_49
Note_On_52_Vel_44
Time_Shift_2
Note_On_70_Vel_53
Time_Shift_14
Note_On_68_Vel_37
Time_Shift_149
Note_On_73_Vel_59
Time_Shift_13
Sustain_Off
Time_Shift_7
Note_On_76_Vel_0
Note_On_68_Vel_0
Time_Shift_1
Note_On_58_Vel_0
Note_On_64_Vel_0
Note_On_52_Vel_0
Time_Shift_1
Note_On_70_Vel_0
Time_Shift_2
Note_On_61_Vel_48
Time_Shift_8
Note_On_71_Vel_0
Time_Shift_84
Sustain_On
Time_Shift_663
Note_On_71_Vel_53
Time_Shift_22
Note_On_76_Vel_34
Time_Shift_2
Sustain_Off
Time_Shift_1
Note_On_61_Vel_0
Note_On_64_Vel_30
Time_Shift_1
Note_On_68_Vel_36
Time_Shift_5
Note_On_73_Vel_0
Time_Shift_14
Note_On_59_Vel_27
Time_Shift_68
Sustain_On
Time_Shift_791
Note_On_59_Vel_0
Note_On_71_Vel_0
Time_Shift_4
Note_On_59_Vel_44
Time_Shift_1
Note_On_71_Vel_60
Time_Shift_3
Note_On_68_Vel_0
Time_Shift_1
Note_On_83_Vel_49
Time_Shift_6
Note_On_83_Vel_0
Time_Shift_66
Note_On_64_Vel_0
Time_Shift_3
Note_On_76_Vel_0
Time_Shift_4
Sustain_Off
Time_Shift_127
Sustain_On
Time_Shift_269
Note_On_59_Vel_0
Time_Shift_201
Note_On_66_Vel_38
Time_Shift_2
Note_On_62_Vel_35
Time_Shift_8
Note_On_47_Vel_30
Time_Shift_9
Note_On_59_Vel_29
Time_Shift_8
Note_On_54_Vel_37
Time_Shift_597
Note_On_74_Vel_63
Time_Shift_4
Note_On_62_Vel_0
Time_Shift_5
Note_On_62_Vel_47
Time_Shift_631
Note_On_73_Vel_64
Note_On_61_Vel_57
Time_Shift_186
Note_On_74_Vel_0
Time_Shift_54
Note_On_71_Vel_0
Time_Shift_138
Note_On_59_Vel_0
Time_Shift_107
Note_On_54_Vel_0
Time_Shift_2
Note_On_42_Vel_50
Time_Shift_4
Note_On_54_Vel_46
Time_Shift_2
Note_On_61_Vel_0
Time_Shift_4
Note_On_68_Vel_61
Time_Shift_4
Note_On_73_Vel_0
Time_Shift_3
Note_On_61_Vel_53
Time_Shift_4
Note_On_66_Vel_0
Time_Shift_2
Note_On_73_Vel_48
Time_Shift_3
Note_On_66_Vel_47
Time_Shift_148
Note_On_71_Vel_62
Time_Shift_14
Note_On_59_Vel_59
Time_Shift_48
Note_On_47_Vel_0
Note_On_62_Vel_0
Time_Shift_6
Sustain_Off
Note_On_54_Vel_0
Time_Shift_1
Note_On_61_Vel_0
Note_On_68_Vel_0
Note_On_42_Vel_0
Time_Shift_3
Note_On_73_Vel_0
Time_Shift_67
Sustain_On
Time_Shift_588
Note_On_69_Vel_60
Time_Shift_9
Note_On_57_Vel_47
Time_Shift_4
Note_On_61_Vel_45
Time_Shift_37
Note_On_66_Vel_0
Time_Shift_5
Sustain_Off
Time_Shift_6
Note_On_59_Vel_0
Note_On_71_Vel_0
Time_Shift_66
Sustain_On
Time_Shift_646
Note_On_74_Vel_64
Time_Shift_19
Note_On_62_Vel_41
Time_Shift_83
Note_On_69_Vel_0
Note_On_57_Vel_0
Time_Shift_1
Note_On_61_Vel_0
Sustain_Off
Time_Shift_88
Sustain_On
Time_Shift_483
Note_On_50_Vel_34
Time_Shift_11
Note_On_57_Vel_37
Time_Shift_8
Note_On_69_Vel_48
Time_Shift_1
Note_On_81_Vel_42
Time_Shift_11
Note_On_81_Vel_0
Time_Shift_5
Note_On_66_Vel_36
Time_Shift_685
Note_On_78_Vel_65
Time_Shift_9
Note_On_66_Vel_0
Time_Shift_4
Note_On_66_Vel_52
Time_Shift_695
Note_On_78_Vel_0
Time_Shift_8
Note_On_66_Vel_0
Time_Shift_1
Note_On_78_Vel_60
Time_Shift_7
Note_On_66_Vel_47
Time_Shift_514
Note_On_57_Vel_0
Time_Shift_2
Note_On_75_Vel_58
Time_Shift_6
Note_On_69_Vel_0
Time_Shift_2
Note_On_57_Vel_48
Time_Shift_6
Note_On_69_Vel_53
Time_Shift_5
Note_On_73_Vel_40
Time_Shift_2
Note_On_63_Vel_42
Time_Shift_130
Note_On_78_Vel_0
Time_Shift_6
Note_On_78_Vel_64
Time_Shift_10
Note_On_66_Vel_0
Time_Shift_10
Note_On_66_Vel_49
Time_Shift_5
Note_On_62_Vel_0
Time_Shift_2
Sustain_Off
Time_Shift_5
Note_On_73_Vel_0
Time_Shift_1
Note_On_75_Vel_0
Time_Shift_8
Note_On_74_Vel_0
Time_Shift_7
Note_On_50_Vel_0
Time_Shift_8
Note_On_57_Vel_0
Time_Shift_54
Sustain_On
Time_Shift_578
Note_On_76_Vel_58
Time_Shift_13
Note_On_69_Vel_0
Time_Shift_3
Note_On_73_Vel_45
Time_Shift_1
Note_On_64_Vel_48
Time_Shift_1
Note_On_69_Vel_45
Time_Shift_49
Note_On_63_Vel_0
Sustain_Off
Time_Shift_15
Note_On_66_Vel_0
Note_On_78_Vel_0
Time_Shift_85
Sustain_On
Time_Shift_497
Note_On_78_Vel_71
Time_Shift_13
Note_On_66_Vel_55
Time_Shift_57
Sustain_Off
Note_On_69_Vel_0
Time_Shift_3
Note_On_64_Vel_0
Note_On_76_Vel_0
Note_On_73_Vel_0
Time_Shift_67
Sustain_On
Time_Shift_404
Note_On_52_Vel_51
Time_Shift_4
Note_On_75_Vel_70
Time_Shift_19
Note_On_68_Vel_52
Time_Shift_6
Note_On_74_Vel_50
Time_Shift_135
Note_On_78_Vel_0
Time_Shift_7
Note_On_78_Vel_83
Time_Shift_32
Note_On_66_Vel_0
Time_Shift_4
Note_On_66_Vel_51
Time_Shift_52
Sustain_Off
Time_Shift_4
Note_On_74_Vel_0
Time_Shift_1
Note_On_68_Vel_0
Time_Shift_2
Note_On_75_Vel_0
Note_On_52_Vel_0
Time_Shift_75
Sustain_On
Time_Shift_511
Note_On_64_Vel_53
Time_Shift_2
Note_On_76_Vel_74
Time_Shift_8
Note_On_68_Vel_49
Time_Shift_16
Note_On_74_Vel_40
Time_Shift_18
Sustain_Off
Time_Shift_29
Note_On_66_Vel_0
Note_On_78_Vel_0
Time_Shift_38
Sustain_On
Time_Shift_419
Note_On_57_Vel_48
Time_Shift_1
Note_On_69_Vel_43
Time_Shift_102
Note_On_68_Vel_0
Time_Shift_77
Note_On_74_Vel_0
Time_Shift_12
Note_On_85_Vel_78
Time_Shift_9
Note_On_73_Vel_59
Time_Shift_67
Sustain_Off
Time_Shift_27
Sustain_On
Time_Shift_507
Note_On_75_Vel_74
Time_Shift_16
Note_On_69_Vel_0
Note_On_73_Vel_0
Time_Shift_7
Note_On_69_Vel_60
Time_Shift_3
Note_On_73_Vel_54
Time_Shift_3
Note_On_63_Vel_50
Time_Shift_143
Note_On_78_Vel_84
Time_Shift_13
Note_On_69_Vel_0
Time_Shift_7
Note_On_69_Vel_52
Time_Shift_3
Note_On_66_Vel_52
Time_Shift_62
Note_On_69_Vel_0
Sustain_Off
Note_On_76_Vel_0
Note_On_75_Vel_0
Time_Shift_1
Note_On_63_Vel_0
Time_Shift_2
Note_On_64_Vel_0
Note_On_57_Vel_0
Time_Shift_1
Note_On_85_Vel_0
Time_Shift_16
Note_On_73_Vel_0
Time_Shift_77
Sustain_On
Time_Shift_360
Note_On_78_Vel_0
Time_Shift_24
Note_On_66_Vel_0
Time_Shift_257
Note_On_76_Vel_59
Time_Shift_2
Note_On_69_Vel_48
Time_Shift_26
Note_On_73_Vel_48
Time_Shift_2
Note_On_64_Vel_41
Time_Shift_29
Sustain_Off
Time_Shift_106
Sustain_On
Time_Shift_531
Note_On_74_Vel_60
Time_Shift_10
Note_On_62_Vel_42
Time_Shift_39
Sustain_Off
Time_Shift_2
Note_On_69_Vel_0
Time_Shift_1
Note_On_76_Vel_0
Time_Shift_31
Note_On_73_Vel_0
Time_Shift_46
Sustain_On
Time_Shift_292
Note_On_62_Vel_0
Time_Shift_138
Note_On_64_Vel_0
Time_Shift_9
Note_On_73_Vel_49
Time_Shift_2
Note_On_61_Vel_46
Note_On_64_Vel_41
Time_Shift_6
Note_On_69_Vel_36
Time_Shift_129
Note_On_74_Vel_0
Time_Shift_10
Note_On_74_Vel_61
Time_Shift_30
Note_On_69_Vel_0
Note_On_62_Vel_48
Time_Shift_1
Note_On_61_Vel_0
Note_On_73_Vel_0
Time_Shift_6
Sustain_Off
Time_Shift_76
Sustain_On
Time_Shift_607
Note_On_73_Vel_56
Time_Shift_15
Note_On_64_Vel_0
Time_Shift_5
Note_On_61_Vel_44
Time_Shift_1
Note_On_69_Vel_42
Time_Shift_1
Note_On_64_Vel_34
Time_Shift_36
Sustain_Off
Time_Shift_6
Note_On_74_Vel_0
Time_Shift_13
Note_On_62_Vel_0
Time_Shift_61
Sustain_On
Time_Shift_617
Note_On_59_Vel_51
Note_On_71_Vel_53
Time_Shift_55
Note_On_69_Vel_0
Time_Shift_1
Note_On_64_Vel_0
Note_On_61_Vel_0
Time_Shift_1
Note_On_73_Vel_0
Time_Shift_21
Sustain_Off
Time_Shift_43
Sustain_On
Time_Shift_433
Note_On_81_Vel_48
Time_Shift_4
Note_On_69_Vel_53
Note_On_81_Vel_0
Time_Shift_11
Note_On_57_Vel_43
Time_Shift_2
Note_On_61_Vel_44
Time_Shift_172
Note_On_71_Vel_0
Time_Shift_7
Note_On_59_Vel_0
Time_Shift_1
Note_On_71_Vel_54
Time_Shift_6
Note_On_59_Vel_56
Time_Shift_28
Note_On_57_Vel_0
Note_On_69_Vel_0
Time_Shift_1
Note_On_61_Vel_0
Time_Shift_4
Sustain_Off
Time_Shift_91
Sustain_On
Time_Shift_671
Note_On_69_Vel_55
Time_Shift_23
Note_On_64_Vel_36
Time_Shift_1
Note_On_57_Vel_38
Time_Shift_4
Note_On_61_Vel_41
Time_Shift_47
Sustain_Off
Time_Shift_6
Note_On_59_Vel_0
Time_Shift_8
Note_On_71_Vel_0
Time_Shift_77
Sustain_On
Time_Shift_803
Note_On_68_Vel_52
Time_Shift_6
Note_On_56_Vel_33
Time_Shift_108
Note_On_69_Vel_0
Note_On_57_Vel_0
Time_Shift_1
Note_On_61_Vel_0
Sustain_Off
Time_Shift_111
Sustain_On
Time_Shift_54
Note_On_64_Vel_0
Time_Shift_374
Note_On_64_Vel_47
Time_Shift_11
Note_On_49_Vel_37
Time_Shift_3
Note_On_61_Vel_38
Time_Shift_610
Note_On_61_Vel_0
Time_Shift_10
Note_On_61_Vel_52
Time_Shift_1
Note_On_73_Vel_55
Time_Shift_700
Note_On_72_Vel_55
Time_Shift_3
Note_On_60_Vel_58
Time_Shift_23
Sustain_Off
Time_Shift_8
Note_On_56_Vel_0
Time_Shift_2
Note_On_49_Vel_0
Time_Shift_3
Note_On_73_Vel_0
Time_Shift_18
Note_On_68_Vel_0
Sustain_On
Time_Shift_8
Note_On_61_Vel_0
Time_Shift_400
Note_On_44_Vel_52
Time_Shift_3
Note_On_68_Vel_60
Time_Shift_1
Note_On_32_Vel_46
Time_Shift_11
Note_On_32_Vel_0
Note_On_60_Vel_0
Time_Shift_7
Note_On_64_Vel_0
Time_Shift_4
Note_On_60_Vel_41
Time_Shift_8
Note_On_66_Vel_42
Time_Shift_168
Note_On_71_Vel_52
Time_Shift_6
Note_On_59_Vel_56
Time_Shift_61
Note_On_69_Vel_65
Time_Shift_24
Note_On_57_Vel_42
Time_Shift_21
Note_On_72_Vel_0
Time_Shift_2
Note_On_66_Vel_0
Note_On_68_Vel_0
Time_Shift_1
Note_On_44_Vel_0
Time_Shift_1
Note_On_60_Vel_0
Note_On_59_Vel_0
Sustain_Off
Time_Shift_73
Note_On_71_Vel_0
Time_Shift_31
Sustain_On
Time_Shift_597
Note_On_68_Vel_54
Time_Shift_29
Note_On_66_Vel_34
Time_Shift_2
Note_On_56_Vel_34
Time_Shift_13
Note_On_60_Vel_30
Time_Shift_47
Sustain_Off
Time_Shift_7
Note_On_69_Vel_0
Time_Shift_4
Note_On_57_Vel_0
Time_Shift_99
Sustain_On
Time_Shift_592
Note_On_56_Vel_0
Note_On_68_Vel_0
Time_Shift_7
Note_On_68_Vel_60
Time_Shift_2
Note_On_56_Vel_30
Time_Shift_86
Sustain_Off
Note_On_60_Vel_0
Time_Shift_5
Note_On_66_Vel_0
Time_Shift_84
Sustain_On
Time_Shift_469
Note_On_68_Vel_0
Note_On_64_Vel_43
Time_Shift_4
Note_On_68_Vel_32
Time_Shift_27
Note_On_61_Vel_35
Time_Shift_3
Note_On_49_Vel_34
Time_Shift_687
Note_On_61_Vel_0
Time_Shift_8
Note_On_61_Vel_53
Time_Shift_6
Note_On_73_Vel_60
Time_Shift_735
Note_On_71_Vel_57
Time_Shift_2
Note_On_59_Vel_62
Time_Shift_37
Note_On_61_Vel_0
Note_On_73_Vel_0
Time_Shift_1
Note_On_49_Vel_0
Note_On_56_Vel_0
Note_On_64_Vel_0
Time_Shift_4
Sustain_Off
Time_Shift_68
Sustain_On
Time_Shift_445
Note_On_68_Vel_0
Time_Shift_1
Note_On_44_Vel_50
Time_Shift_2
Note_On_71_Vel_0
Time_Shift_5
Note_On_59_Vel_0
Time_Shift_2
Note_On_68_Vel_55
Time_Shift_4
Note_On_59_Vel_47
Time_Shift_5
Note_On_75_Vel_42
Note_On_63_Vel_46
Time_Shift_4
Note_On_75_Vel_0
Time_Shift_171
Note_On_57_Vel_49
Time_Shift_1
Note_On_81_Vel_59
Note_On_69_Vel_66
Time_Shift_90
Note_On_68_Vel_0
Sustain_Off
Time_Shift_1
Note_On_59_Vel_0
Time_Shift_3
Note_On_44_Vel_0
Time_Shift_95
Note_On_81_Vel_0
Time_Shift_8
Sustain_On
Time_Shift_222
Note_On_63_Vel_0
Time_Shift_374
Note_On_80_Vel_49
Time_Shift_2
Note_On_68_Vel_57
Time_Shift_8
Note_On_59_Vel_41
Note_On_80_Vel_0
Time_Shift_3
Note_On_56_Vel_36
Time_Shift_1
Note_On_75_Vel_40
Time_Shift_2
Note_On_63_Vel_33
Time_Shift_33
Note_On_57_Vel_0
Time_Shift_11
Note_On_69_Vel_0
Time_Shift_7
Sustain_Off
Time_Shift_105
Sustain_On
Time_Shift_639
Note_On_64_Vel_54
Time_Shift_4
Note_On_52_Vel_45
Time_Shift_76
Note_On_63_Vel_0
Note_On_68_Vel_0
Note_On_59_Vel_0
Time_Shift_5
Sustain_Off
Time_Shift_5
Note_On_56_Vel_0
Note_On_75_Vel_0
Time_Shift_108
Sustain_On
Time_Shift_476
Note_On_57_Vel_41
Time_Shift_11
Note_On_61_Vel_48
Time_Shift_6
Note_On_45_Vel_41
Time_Shift_682
Note_On_57_Vel_0
Time_Shift_3
Note_On_81_Vel_53
Note_On_69_Vel_61
Time_Shift_5
Note_On_81_Vel_0
Time_Shift_3
Note_On_57_Vel_44
Time_Shift_697
Note_On_80_Vel_54
Time_Shift_1
Note_On_68_Vel_63
Time_Shift_3
Note_On_56_Vel_44
Time_Shift_2
Note_On_80_Vel_0
Time_Shift_28
Sustain_Off
Note_On_69_Vel_0
Time_Shift_1
Note_On_61_Vel_0
Time_Shift_1
Note_On_52_Vel_0
Note_On_64_Vel_0
Time_Shift_1
Note_On_45_Vel_0
Time_Shift_15
Note_On_57_Vel_0
Time_Shift_46
Sustain_On
Time_Shift_420
Note_On_40_Vel_38
Time_Shift_11
Note_On_52_Vel_38
Time_Shift_7
Note_On_76_Vel_51
Time_Shift_3
Note_On_64_Vel_60
Time_Shift_8
Note_On_59_Vel_46
Time_Shift_167
Note_On_66_Vel_63
Time_Shift_2
Note_On_54_Vel_56
Time_Shift_4
Note_On_76_Vel_0
Time_Shift_75
Note_On_56_Vel_0
Sustain_Off
Time_Shift_1
Note_On_68_Vel_0
Time_Shift_1
Note_On_64_Vel_0
Time_Shift_2
Note_On_52_Vel_0
Time_Shift_2
Note_On_40_Vel_0
Time_Shift_73
Sustain_On
Time_Shift_353
Note_On_59_Vel_0
Time_Shift_258
Note_On_64_Vel_62
Time_Shift_6
Note_On_52_Vel_57
Time_Shift_7
Note_On_56_Vel_38
Time_Shift_3
Note_On_59_Vel_39
Time_Shift_74
Note_On_66_Vel_0
Time_Shift_11
Sustain_Off
Time_Shift_10
Note_On_54_Vel_0
Time_Shift_77
Sustain_On
Time_Shift_568
Note_On_56_Vel_0
Time_Shift_5
Note_On_68_Vel_60
Time_Shift_6
Note_On_56_Vel_47
Time_Shift_33
Sustain_Off
Time_Shift_1
Note_On_52_Vel_0
Time_Shift_2
Note_On_59_Vel_0
Time_Shift_2
Note_On_64_Vel_0
Time_Shift_74
Sustain_On
Time_Shift_450
Note_On_66_Vel_62
Time_Shift_13
Note_On_58_Vel_43
Time_Shift_1
Note_On_42_Vel_49
Note_On_54_Vel_42
Time_Shift_8
Note_On_64_Vel_48
Time_Shift_150
Note_On_68_Vel_0
Time_Shift_11
Note_On_68_Vel_68
Time_Shift_56
Sustain_Off
Time_Shift_5
Note_On_66_Vel_0
Note_On_64_Vel_0
Time_Shift_105
Sustain_On
Time_Shift_61
Note_On_54_Vel_0
Time_Shift_115
Note_On_56_Vel_0
Time_Shift_399
Note_On_66_Vel_52
Time_Shift_24
Note_On_58_Vel_0
Note_On_76_Vel_42
Time_Shift_7
Note_On_76_Vel_0
Time_Shift_2
Note_On_58_Vel_35
Time_Shift_2
Note_On_64_Vel_44
Time_Shift_3
Note_On_54_Vel_39
Time_Shift_36
Sustain_Off
Time_Shift_11
Note_On_68_Vel_0
Time_Shift_108
Sustain_On
Time_Shift_684
Note_On_68_Vel_45
Time_Shift_3
Note_On_56_Vel_30
Time_Shift_38
Sustain_Off
Time_Shift_2
Note_On_54_Vel_0
Note_On_58_Vel_0
Time_Shift_1
Note_On_64_Vel_0
Time_Shift_3
Note_On_66_Vel_0
Time_Shift_98
Sustain_On
Time_Shift_496
Note_On_66_Vel_49
Time_Shift_17
Note_On_63_Vel_25
Time_Shift_7
Note_On_35_Vel_25
Note_On_47_Vel_31
Time_Shift_4
Note_On_59_Vel_28
Time_Shift_3
Note_On_54_Vel_23
Time_Shift_3
Note_On_35_Vel_0
Sustain_Off
Time_Shift_61
Sustain_On
Time_Shift_16
Note_On_68_Vel_0
Time_Shift_7
Note_On_56_Vel_0
Time_Shift_97
Note_On_68_Vel_56
Time_Shift_6
Note_On_56_Vel_30
Time_Shift_73
Sustain_Off
Time_Shift_5
Note_On_66_Vel_0
Note_On_54_Vel_0
Time_Shift_88
Sustain_On
Time_Shift_603
Note_On_66_Vel_40
Time_Shift_12
Note_On_59_Vel_0
Time_Shift_7
Note_On_63_Vel_0
Time_Shift_1
Note_On_54_Vel_35
Time_Shift_2
Note_On_59_Vel_26
Time_Shift_5
Note_On_63_Vel_20
Time_Shift_26
Sustain_Off
Time_Shift_4
Note_On_56_Vel_0
Note_On_47_Vel_0
Time_Shift_1
Note_On_68_Vel_0
Time_Shift_54
Note_On_42_Vel_0
Time_Shift_38
Sustain_On
Time_Shift_587
Note_On_42_Vel_37
Time_Shift_22
Note_On_69_Vel_57
Time_Shift_8
Note_On_57_Vel_38
Time_Shift_13
Note_On_61_Vel_34
Time_Shift_53
Note_On_66_Vel_0
Time_Shift_2
Note_On_54_Vel_0
Time_Shift_9
Sustain_Off
Time_Shift_5
Note_On_59_Vel_0
Note_On_63_Vel_0
Time_Shift_107
Sustain_On
Time_Shift_341
Note_On_44_Vel_55
Time_Shift_143
Note_On_42_Vel_0
Time_Shift_11
Note_On_42_Vel_64
Time_Shift_54
Sustain_Off
Time_Shift_1
Note_On_44_Vel_0
Time_Shift_95
Sustain_On
Time_Shift_507
Note_On_57_Vel_0
Time_Shift_2
Note_On_66_Vel_65
Time_Shift_6
Note_On_45_Vel_64
Time_Shift_2
Note_On_57_Vel_53
Time_Shift_94
Sustain_Off
Time_Shift_12
Note_On_42_Vel_0
Time_Shift_122
Sustain_On
Time_Shift_139
Note_On_69_Vel_0
Time_Shift_184
Note_On_66_Vel_0
Time_Shift_5
Note_On_66_Vel_57
Time_Shift_4
Note_On_78_Vel_53
Time_Shift_6
Note_On_78_Vel_0
Time_Shift_100
Note_On_61_Vel_0
Time_Shift_4
Note_On_49_Vel_61
Time_Shift_3
Note_On_61_Vel_56
Time_Shift_2
Note_On_76_Vel_58
Time_Shift_1
Note_On_64_Vel_68
Time_Shift_2
Note_On_56_Vel_53
Time_Shift_4
Note_On_76_Vel_0
Time_Shift_54
Sustain_Off
Time_Shift_3
Note_On_45_Vel_0
Time_Shift_1
Note_On_66_Vel_0
Time_Shift_95
Sustain_On
Time_Shift_403
Note_On_51_Vel_65
Time_Shift_4
Note_On_63_Vel_60
Time_Shift_11
Note_On_75_Vel_49
Time_Shift_5
Note_On_75_Vel_0
Time_Shift_107
Note_On_49_Vel_0
Time_Shift_8
Note_On_64_Vel_0
Time_Shift_2
Note_On_49_Vel_64
Time_Shift_2
Note_On_64_Vel_77
Time_Shift_34
Sustain_Off
Time_Shift_10
Note_On_51_Vel_0
Time_Shift_1
Note_On_63_Vel_0
Time_Shift_28
Note_On_57_Vel_0
Time_Shift_84
Sustain_On
Time_Shift_699
Note_On_49_Vel_0
Note_On_61_Vel_0
Note_On_64_Vel_0
Time_Shift_5
Note_On_52_Vel_55
Time_Shift_2
Note_On_64_Vel_53
Time_Shift_1
Note_On_61_Vel_60
Time_Shift_3
Note_On_49_Vel_46
Time_Shift_57
Sustain_Off
Time_Shift_4
Note_On_49_Vel_0
Time_Shift_112
Sustain_On
Time_Shift_611
Note_On_42_Vel_50
Time_Shift_3
Note_On_81_Vel_61
Time_Shift_3
Note_On_69_Vel_71
Time_Shift_2
Note_On_57_Vel_52
Time_Shift_3
Note_On_61_Vel_0
Time_Shift_1
Note_On_73_Vel_54
Time_Shift_4
Note_On_61_Vel_54
Time_Shift_69
Sustain_Off
Time_Shift_4
Note_On_52_Vel_0
Time_Shift_2
Note_On_56_Vel_0
Time_Shift_5
Note_On_64_Vel_0
Time_Shift_84
Sustain_On
Time_Shift_85
Note_On_81_Vel_0
Time_Shift_119
Note_On_44_Vel_65
Time_Shift_65
Sustain_Off
Time_Shift_3
Note_On_42_Vel_0
Time_Shift_82
Sustain_On
Time_Shift_163
Note_On_42_Vel_66
Time_Shift_71
Note_On_44_Vel_0
Sustain_Off
Time_Shift_27
Sustain_On
Time_Shift_191
Note_On_44_Vel_76
Time_Shift_323
Note_On_57_Vel_0
Time_Shift_6
Note_On_68_Vel_77
Time_Shift_2
Note_On_80_Vel_70
Note_On_73_Vel_0
Time_Shift_2
Note_On_45_Vel_61
Note_On_57_Vel_54
Time_Shift_2
Note_On_73_Vel_58
Time_Shift_4
Note_On_80_Vel_0
Time_Shift_10
Sustain_Off
Time_Shift_3
Note_On_42_Vel_0
Note_On_44_Vel_0
Time_Shift_1
Note_On_69_Vel_0
Time_Shift_55
Note_On_61_Vel_0
Time_Shift_46
Sustain_On
Time_Shift_239
Note_On_47_Vel_66
Time_Shift_8
Note_On_66_Vel_74
Time_Shift_2
Note_On_78_Vel_65
Time_Shift_4
Note_On_68_Vel_0
Note_On_78_Vel_0
Time_Shift_6
Note_On_68_Vel_57
Time_Shift_21
Sustain_Off
Time_Shift_3
Note_On_45_Vel_0
Time_Shift_9
Note_On_73_Vel_0
Time_Shift_46
Sustain_On
Time_Shift_268
Note_On_66_Vel_0
Time_Shift_6
Note_On_66_Vel_62
Time_Shift_1
Note_On_78_Vel_54
Time_Shift_74
Note_On_49_Vel_54
Time_Shift_12
Note_On_78_Vel_0
Time_Shift_4
Note_On_56_Vel_45
Time_Shift_4
Note_On_73_Vel_54
Note_On_64_Vel_64
Time_Shift_2
Note_On_76_Vel_58
Time_Shift_5
Note_On_76_Vel_0
Time_Shift_15
Note_On_57_Vel_0
Time_Shift_4
Sustain_Off
Time_Shift_7
Note_On_66_Vel_0
Time_Shift_1
Note_On_47_Vel_0
Time_Shift_11
Note_On_68_Vel_0
Time_Shift_70
Sustain_On
Time_Shift_384
Note_On_73_Vel_0
Time_Shift_150
Note_On_63_Vel_60
Time_Shift_14
Note_On_51_Vel_51
Time_Shift_127
Note_On_64_Vel_0
Time_Shift_5
Note_On_64_Vel_68
Note_On_76_Vel_56
Time_Shift_3
Note_On_49_Vel_0
Time_Shift_7
Note_On_49_Vel_52
Time_Shift_38
Sustain_Off
Time_Shift_7
Note_On_63_Vel_0
Time_Shift_2
Note_On_51_Vel_0
Time_Shift_115
Sustain_On
Time_Shift_207
Note_On_76_Vel_0
Time_Shift_387
Note_On_61_Vel_56
Time_Shift_5
Note_On_52_Vel_48
Note_On_49_Vel_0
Time_Shift_10
Note_On_49_Vel_36
Time_Shift_46
Sustain_Off
Time_Shift_82
Sustain_On
Time_Shift_620
Note_On_66_Vel_70
Time_Shift_11
Note_On_59_Vel_62
Time_Shift_2
Note_On_47_Vel_52
Note_On_63_Vel_58
Time_Shift_89
Note_On_56_Vel_0
Time_Shift_4
Note_On_61_Vel_0
Time_Shift_1
Note_On_52_Vel_0
Time_Shift_2
Sustain_Off
Time_Shift_1
Note_On_49_Vel_0
Time_Shift_8
Note_On_64_Vel_0
Time_Shift_76
Sustain_On
Time_Shift_549
Note_On_80_Vel_74
Time_Shift_6
Note_On_68_Vel_80
Time_Shift_6
Note_On_80_Vel_0
Time_Shift_3
Note_On_76_Vel_57
Time_Shift_1
Note_On_64_Vel_66
Time_Shift_1
Note_On_52_Vel_61
Time_Shift_98
Sustain_Off
Time_Shift_1
Note_On_63_Vel_0
Time_Shift_1
Note_On_66_Vel_0
Note_On_59_Vel_0
Time_Shift_33
Note_On_47_Vel_0
Time_Shift_115
Sustain_On
Time_Shift_285
Note_On_76_Vel_0
Time_Shift_456
Note_On_81_Vel_73
Time_Shift_1
Note_On_69_Vel_80
Time_Shift_8
Note_On_54_Vel_55
Time_Shift_6
Note_On_63_Vel_60
Time_Shift_1
Note_On_75_Vel_54
Time_Shift_40
Note_On_68_Vel_0
Time_Shift_2
Note_On_64_Vel_0
Time_Shift_1
Note_On_52_Vel_0
Time_Shift_3
Sustain_Off
Time_Shift_73
Sustain_On
Time_Shift_8
Note_On_81_Vel_0
Time_Shift_263
Note_On_80_Vel_71
Time_Shift_1
Note_On_68_Vel_78
Time_Shift_4
Note_On_80_Vel_0
Time_Shift_5
Note_On_52_Vel_59
Time_Shift_1
Note_On_64_Vel_65
Time_Shift_5
Note_On_76_Vel_55
Time_Shift_55
Sustain_Off
Note_On_69_Vel_0
Note_On_54_Vel_0
Time_Shift_19
Note_On_63_Vel_0
Note_On_75_Vel_0
Time_Shift_54
Sustain_On
Time_Shift_222
Note_On_76_Vel_0
Time_Shift_199
Note_On_66_Vel_74
Time_Shift_8
Note_On_78_Vel_63
Time_Shift_1
Note_On_63_Vel_61
Time_Shift_1
Note_On_60_Vel_62
Time_Shift_1
Note_On_75_Vel_58
Time_Shift_2
Note_On_72_Vel_57
Time_Shift_3
Note_On_75_Vel_0
Note_On_78_Vel_0
Time_Shift_8
Note_On_72_Vel_0
Time_Shift_131
Note_On_68_Vel_0
Time_Shift_5
Note_On_80_Vel_72
Time_Shift_2
Note_On_68_Vel_75
Note_On_64_Vel_0
Time_Shift_5
Note_On_76_Vel_60
Note_On_59_Vel_64
Time_Shift_1
Note_On_64_Vel_67
Time_Shift_50
Sustain_Off
Time_Shift_3
Note_On_60_Vel_0
Time_Shift_1
Note_On_66_Vel_0
Time_Shift_1
Note_On_63_Vel_0
Time_Shift_1
Note_On_80_Vel_0
Note_On_52_Vel_0
Time_Shift_92
Sustain_On
Time_Shift_246
Note_On_76_Vel_0
Time_Shift_115
Note_On_64_Vel_0
Time_Shift_292
Note_On_81_Vel_55
Time_Shift_1
Note_On_69_Vel_64
Time_Shift_6
Note_On_81_Vel_0
Time_Shift_7
Note_On_63_Vel_39
Note_On_75_Vel_46
Note_On_54_Vel_49
Time_Shift_73
Note_On_59_Vel_0
Time_Shift_6
Sustain_Off
Time_Shift_14
Note_On_68_Vel_0
Time_Shift_85
Sustain_On
Time_Shift_693
Note_On_68_Vel_53
Time_Shift_1
Note_On_80_Vel_52
Time_Shift_5
Note_On_80_Vel_0
Time_Shift_1
Note_On_76_Vel_44
Time_Shift_2
Note_On_64_Vel_47
Time_Shift_12
Note_On_52_Vel_41
Time_Shift_48
Sustain_Off
Time_Shift_1
Note_On_54_Vel_0
Note_On_63_Vel_0
Note_On_69_Vel_0
Time_Shift_12
Note_On_75_Vel_0
Time_Shift_93
Sustain_On
Time_Shift_338
Note_On_76_Vel_0
Time_Shift_64
Note_On_66_Vel_53
Time_Shift_2
Note_On_63_Vel_43
Time_Shift_2
Note_On_78_Vel_50
Time_Shift_4
Note_On_75_Vel_43
Time_Shift_4
Note_On_78_Vel_0
Time_Shift_4
Note_On_60_Vel_44
Time_Shift_5
Note_On_72_Vel_42
Time_Shift_7
Note_On_72_Vel_0
Time_Shift_123
Note_On_68_Vel_0
Time_Shift_11
Note_On_68_Vel_58
Note_On_80_Vel_54
Time_Shift_12
Note_On_64_Vel_0
Note_On_80_Vel_0
Time_Shift_2
Note_On_76_Vel_42
Sustain_Off
Time_Shift_5
Note_On_64_Vel_43
Time_Shift_1
Note_On_66_Vel_0
Time_Shift_1
Note_On_60_Vel_0
Time_Shift_1
Note_On_63_Vel_0
Time_Shift_1
Note_On_52_Vel_0
Note_On_59_Vel_45
Time_Shift_104
Sustain_On
Time_Shift_31
Note_On_75_Vel_0
Time_Shift_115
Note_On_76_Vel_0
Time_Shift_472
Note_On_69_Vel_48
Time_Shift_15
Note_On_54_Vel_33
Note_On_63_Vel_35
Time_Shift_59
Note_On_59_Vel_0
Time_Shift_2
Note_On_64_Vel_0
Time_Shift_9
Sustain_Off
Time_Shift_11
Note_On_68_Vel_0
Time_Shift_85
Sustain_On
Time_Shift_99
Note_On_54_Vel_0
Time_Shift_564
Note_On_68_Vel_48
Time_Shift_2
Note_On_64_Vel_38
Time_Shift_20
Note_On_52_Vel_41
Time_Shift_63
Note_On_69_Vel_0
Time_Shift_1
Note_On_63_Vel_0
Time_Shift_6
Sustain_Off
Time_Shift_97
Sustain_On
Time_Shift_418
Note_On_63_Vel_36
Time_Shift_2
Note_On_66_Vel_35
Time_Shift_3
Note_On_60_Vel_26
Time_Shift_168
Note_On_68_Vel_0
Time_Shift_5
Note_On_68_Vel_53
Time_Shift_18
Note_On_64_Vel_0
Time_Shift_4
Note_On_64_Vel_39
Time_Shift_6
Note_On_59_Vel_46
Time_Shift_17
Note_On_66_Vel_0
Note_On_52_Vel_0
Note_On_60_Vel_0
Time_Shift_1
Note_On_63_Vel_0
Time_Shift_3
Sustain_Off
Time_Shift_115
Sustain_On
Time_Shift_722
Note_On_81_Vel_44
Time_Shift_2
Note_On_69_Vel_50
Time_Shift_6
Note_On_81_Vel_0
Time_Shift_11
Note_On_54_Vel_29
Time_Shift_4
Note_On_63_Vel_29
Time_Shift_69
Note_On_64_Vel_0
Time_Shift_13
Sustain_Off
Time_Shift_1
Note_On_59_Vel_0
Time_Shift_17
Note_On_68_Vel_0
Time_Shift_85
Sustain_On
Time_Shift_773
Note_On_52_Vel_35
Time_Shift_12
Note_On_71_Vel_52
Time_Shift_5
Note_On_83_Vel_43
Time_Shift_8
Note_On_83_Vel_0
Time_Shift_137
Sustain_Off
Time_Shift_2
Note_On_69_Vel_0
Time_Shift_2
Note_On_63_Vel_0
Time_Shift_5
Note_On_54_Vel_0
Time_Shift_92
Sustain_On
Time_Shift_427
Note_On_59_Vel_38
Time_Shift_6
Note_On_68_Vel_44
Time_Shift_7
Note_On_80_Vel_40
Time_Shift_6
Note_On_80_Vel_0
Time_Shift_4
Note_On_62_Vel_29
Note_On_64_Vel_30
Time_Shift_6
Note_On_76_Vel_29
Time_Shift_681
Note_On_62_Vel_0
Time_Shift_6
Note_On_74_Vel_56
Time_Shift_4
Note_On_62_Vel_37
Time_Shift_763
Note_On_61_Vel_44
Time_Shift_5
Note_On_73_Vel_52
Time_Shift_40
Sustain_Off
Time_Shift_1
Note_On_71_Vel_0
Note_On_68_Vel_0
Note_On_74_Vel_0
Time_Shift_3
Note_On_52_Vel_0
Time_Shift_7
Note_On_59_Vel_0
Time_Shift_8
Note_On_62_Vel_0
Time_Shift_31
Sustain_On
Time_Shift_8
Note_On_64_Vel_0
Time_Shift_434
Note_On_45_Vel_38
Time_Shift_4
Note_On_68_Vel_57
Time_Shift_22
Note_On_61_Vel_0
Time_Shift_3
Note_On_64_Vel_45
Time_Shift_1
Note_On_61_Vel_37
Time_Shift_172
Note_On_71_Vel_49
Time_Shift_1
Note_On_64_Vel_0
Time_Shift_4
Note_On_59_Vel_37
Time_Shift_2
Note_On_64_Vel_32
Time_Shift_105
Sustain_Off
Time_Shift_2
Note_On_45_Vel_0
Time_Shift_3
Note_On_61_Vel_0
Time_Shift_1
Note_On_73_Vel_0
Time_Shift_152
Sustain_On
Time_Shift_510
Note_On_57_Vel_38
Time_Shift_3
Note_On_61_Vel_43
Time_Shift_1
Note_On_64_Vel_0
Time_Shift_7
Note_On_69_Vel_48
Note_On_64_Vel_35
Time_Shift_4
Note_On_73_Vel_39
Time_Shift_43
Note_On_68_Vel_0
Time_Shift_9
Note_On_71_Vel_0
Time_Shift_4
Sustain_Off
Time_Shift_2
Note_On_59_Vel_0
Time_Shift_93
Sustain_On
Time_Shift_123
Note_On_76_Vel_0
Time_Shift_536
Note_On_62_Vel_43
Time_Shift_2
Note_On_74_Vel_62
Time_Shift_76
Note_On_73_Vel_0
Time_Shift_7
Note_On_69_Vel_0
Note_On_57_Vel_0
Time_Shift_1
Note_On_61_Vel_0
Time_Shift_1
Sustain_Off
Time_Shift_6
Note_On_64_Vel_0
Time_Shift_92
Sustain_On
Time_Shift_369
Note_On_62_Vel_0
Time_Shift_181
Note_On_50_Vel_29
Time_Shift_7
Note_On_38_Vel_28
Time_Shift_16
Note_On_66_Vel_41
Note_On_69_Vel_45
Time_Shift_3
Note_On_74_Vel_0
Time_Shift_3
Note_On_57_Vel_36
Time_Shift_5
Note_On_74_Vel_27
Time_Shift_735
Note_On_78_Vel_66
Time_Shift_18
Note_On_66_Vel_0
Time_Shift_8
Note_On_66_Vel_49
Time_Shift_104
Sustain_Off
Time_Shift_12
Note_On_69_Vel_0
Time_Shift_1
Note_On_74_Vel_0
Time_Shift_1
Note_On_57_Vel_0
Time_Shift_12
Note_On_38_Vel_0
Note_On_50_Vel_0
Time_Shift_46
Sustain_On
Time_Shift_384
Note_On_66_Vel_0
Time_Shift_154
Note_On_78_Vel_0
Time_Shift_6
Note_On_78_Vel_66
Time_Shift_3
Note_On_66_Vel_50
Time_Shift_562
Note_On_75_Vel_64
Time_Shift_24
Note_On_57_Vel_40
Time_Shift_6
Note_On_69_Vel_48
Time_Shift_5
Note_On_73_Vel_37
Time_Shift_1
Note_On_63_Vel_33
Time_Shift_138
Note_On_78_Vel_0
Time_Shift_10
Note_On_78_Vel_68
Time_Shift_28
Note_On_66_Vel_0
Note_On_69_Vel_0
Time_Shift_6
Note_On_66_Vel_52
Time_Shift_1
Note_On_69_Vel_43
Time_Shift_39
Note_On_57_Vel_0
Note_On_75_Vel_0
Time_Shift_1
Note_On_73_Vel_0
Time_Shift_1
Sustain_Off
Time_Shift_98
Sustain_On
Time_Shift_230
Note_On_69_Vel_0
Time_Shift_285
Note_On_63_Vel_0
Time_Shift_72
Note_On_76_Vel_56
Time_Shift_36
Note_On_73_Vel_43
Time_Shift_1
Note_On_64_Vel_41
Time_Shift_3
Note_On_69_Vel_39
Time_Shift_50
Sustain_Off
Time_Shift_14
Note_On_66_Vel_0
Time_Shift_54
Sustain_On
Time_Shift_8
Note_On_78_Vel_0
Time_Shift_569
Note_On_78_Vel_60
Time_Shift_14
Note_On_73_Vel_0
Time_Shift_5
Note_On_66_Vel_48
Time_Shift_5
Note_On_73_Vel_32
Time_Shift_33
Sustain_Off
Time_Shift_3
Note_On_69_Vel_0
Time_Shift_1
Note_On_76_Vel_0
Time_Shift_1
Note_On_64_Vel_0
Time_Shift_67
Sustain_On
Time_Shift_262
Note_On_73_Vel_0
Time_Shift_166
Note_On_75_Vel_62
Time_Shift_15
Note_On_52_Vel_48
Time_Shift_3
Note_On_68_Vel_52
Time_Shift_5
Note_On_74_Vel_49
Time_Shift_164
Note_On_78_Vel_0
Time_Shift_7
Note_On_78_Vel_70
Time_Shift_24
Note_On_68_Vel_0
Time_Shift_7
Note_On_66_Vel_0
Time_Shift_1
Note_On_68_Vel_40
Time_Shift_5
Note_On_66_Vel_46
Time_Shift_66
Note_On_74_Vel_0
Note_On_75_Vel_0
Time_Shift_5
Sustain_Off
Time_Shift_69
Sustain_On
Time_Shift_626
Note_On_64_Vel_50
Time_Shift_2
Note_On_76_Vel_57
Time_Shift_51
Sustain_Off
Time_Shift_5
Note_On_66_Vel_0
Time_Shift_7
Note_On_68_Vel_0
Time_Shift_54
Sustain_On
Time_Shift_254
Note_On_52_Vel_0
Time_Shift_99
Note_On_64_Vel_0
Time_Shift_12
Note_On_64_Vel_43
Time_Shift_35
Note_On_76_Vel_0
Time_Shift_10
Note_On_76_Vel_54
Time_Shift_47
Note_On_69_Vel_36
Time_Shift_1
Note_On_57_Vel_44
Time_Shift_134
Note_On_69_Vel_0
Time_Shift_4
Note_On_81_Vel_60
Time_Shift_4
Note_On_69_Vel_57
Time_Shift_376
Note_On_78_Vel_0
Time_Shift_247
Note_On_75_Vel_61
Time_Shift_14
Note_On_69_Vel_0
Time_Shift_9
Note_On_63_Vel_44
Time_Shift_1
Note_On_69_Vel_49
Time_Shift_1
Note_On_73_Vel_45
Time_Shift_145
Note_On_78_Vel_66
Time_Shift_1
Note_On_66_Vel_52
Time_Shift_24
Sustain_Off
Time_Shift_6
Note_On_75_Vel_0
Note_On_57_Vel_0
Time_Shift_1
Note_On_81_Vel_0
Time_Shift_11
Note_On_76_Vel_0
Time_Shift_8
Note_On_64_Vel_0
Time_Shift_61
Sustain_On
Time_Shift_185
Note_On_69_Vel_0
Time_Shift_7
Note_On_73_Vel_0
Time_Shift_482
Note_On_76_Vel_50
Time_Shift_22
Note_On_69_Vel_41
Time_Shift_7
Note_On_73_Vel_43
Time_Shift_1
Note_On_64_Vel_44
Time_Shift_55
Sustain_Off
Time_Shift_2
Note_On_78_Vel_0
Time_Shift_15
Note_On_66_Vel_0
Time_Shift_15
Note_On_63_Vel_0
Time_Shift_8
Sustain_On
Time_Shift_684
Note_On_73_Vel_0
Time_Shift_10
Note_On_73_Vel_59
Time_Shift_14
Note_On_61_Vel_50
Time_Shift_56
Sustain_Off
Note_On_69_Vel_0
Note_On_64_Vel_0
Time_Shift_1
Note_On_76_Vel_0
Time_Shift_88
Sustain_On
Time_Shift_410
Note_On_47_Vel_49
Time_Shift_1
Note_On_70_Vel_55
Time_Shift_2
Note_On_59_Vel_43
Time_Shift_9
Note_On_59_Vel_0
Time_Shift_6
Note_On_69_Vel_52
Time_Shift_1
Note_On_81_Vel_48
Time_Shift_4
Note_On_63_Vel_37
Time_Shift_4
Note_On_81_Vel_0
Time_Shift_169
Note_On_73_Vel_0
Time_Shift_8
Note_On_61_Vel_0
Note_On_69_Vel_0
Time_Shift_2
Note_On_73_Vel_64
Time_Shift_2
Note_On_69_Vel_42
Time_Shift_6
Note_On_61_Vel_50
Time_Shift_58
Sustain_Off
Time_Shift_8
Note_On_70_Vel_0
Time_Shift_1
Note_On_47_Vel_0
Note_On_63_Vel_0
Time_Shift_77
Sustain_On
Time_Shift_702
Note_On_71_Vel_51
Time_Shift_20
Note_On_69_Vel_0
Time_Shift_4
Note_On_69_Vel_44
Time_Shift_2
Note_On_59_Vel_46
Time_Shift_57
Sustain_Off
Time_Shift_13
Note_On_61_Vel_0
Time_Shift_8
Note_On_73_Vel_0
Time_Shift_69
Sustain_On
Time_Shift_693
Note_On_73_Vel_50
Time_Shift_3
Note_On_61_Vel_48
Time_Shift_73
Sustain_Off
Time_Shift_5
Note_On_59_Vel_0
Note_On_71_Vel_0
Time_Shift_25
Note_On_69_Vel_0
Time_Shift_69
Sustain_On
Time_Shift_477
Note_On_70_Vel_55
Time_Shift_17
Note_On_68_Vel_42
Time_Shift_1
Note_On_64_Vel_41
Time_Shift_1
Note_On_76_Vel_33
Time_Shift_1
Note_On_52_Vel_36
Time_Shift_2
Note_On_58_Vel_36
Time_Shift_8
Note_On_76_Vel_0
Time_Shift_107
Note_On_73_Vel_0
Time_Shift_93
Note_On_73_Vel_57
Time_Shift_7
Note_On_61_Vel_0
Time_Shift_5
Note_On_61_Vel_46
Time_Shift_102
Note_On_58_Vel_0
Note_On_68_Vel_0
Time_Shift_2
Sustain_Off
Note_On_64_Vel_0
Note_On_70_Vel_0
Time_Shift_1
Note_On_52_Vel_0
Time_Shift_105
Sustain_On
Time_Shift_630
Note_On_73_Vel_0
Time_Shift_3
Note_On_71_Vel_50
Time_Shift_23
Note_On_68_Vel_44
Time_Shift_1
Note_On_59_Vel_39
Time_Shift_1
Note_On_76_Vel_36
Time_Shift_2
Note_On_64_Vel_37
Time_Shift_31
Note_On_61_Vel_0
Time_Shift_21
Sustain_Off
Time_Shift_110
Sustain_On
Time_Shift_768
Note_On_59_Vel_0
Time_Shift_11
Note_On_59_Vel_47
Time_Shift_20
Note_On_71_Vel_0
Time_Shift_4
Note_On_83_Vel_42
Time_Shift_1
Note_On_71_Vel_51
Time_Shift_119
Note_On_68_Vel_0
Note_On_64_Vel_0
Time_Shift_3
Sustain_Off
Time_Shift_11
Note_On_76_Vel_0
Note_On_83_Vel_0
Time_Shift_108
Sustain_On
Time_Shift_353
Note_On_59_Vel_0
Time_Shift_105
Note_On_66_Vel_39
Time_Shift_18
Note_On_62_Vel_36
Time_Shift_11
Note_On_54_Vel_33
Note_On_59_Vel_30
Note_On_47_Vel_31
Time_Shift_665
Note_On_59_Vel_0
Note_On_62_Vel_0
Time_Shift_2
Note_On_74_Vel_61
Time_Shift_1
Note_On_62_Vel_52
Time_Shift_5
Note_On_59_Vel_34
Time_Shift_845
Note_On_73_Vel_60
Time_Shift_19
Note_On_61_Vel_44
Time_Shift_57
Sustain_Off
Time_Shift_1
Note_On_62_Vel_0
Time_Shift_2
Note_On_74_Vel_0
Time_Shift_20
Note_On_71_Vel_0
Time_Shift_8
Note_On_47_Vel_0
Time_Shift_30
Sustain_On
Time_Shift_450
Note_On_42_Vel_50
Time_Shift_3
Note_On_54_Vel_0
Time_Shift_8
Note_On_61_Vel_0
Time_Shift_1
Note_On_54_Vel_41
Time_Shift_2
Note_On_68_Vel_61
Time_Shift_3
Note_On_61_Vel_50
Time_Shift_2
Note_On_66_Vel_0
Time_Shift_7
Note_On_66_Vel_48
Time_Shift_70
Note_On_59_Vel_0
Time_Shift_138
Note_On_71_Vel_59
Time_Shift_1
Note_On_59_Vel_62
Time_Shift_122
Note_On_73_Vel_0
Time_Shift_4
Note_On_68_Vel_0
Sustain_Off
Time_Shift_1
Note_On_42_Vel_0
Time_Shift_2
Note_On_54_Vel_0
Time_Shift_23
Note_On_61_Vel_0
Time_Shift_69
Sustain_On
Time_Shift_246
Note_On_66_Vel_0
Time_Shift_370
Note_On_57_Vel_42
Time_Shift_2
Note_On_69_Vel_59
Time_Shift_7
Note_On_66_Vel_44
Time_Shift_13
Note_On_71_Vel_0
Time_Shift_2
Note_On_61_Vel_35
Time_Shift_48
Sustain_Off
Time_Shift_11
Note_On_59_Vel_0
Time_Shift_108
Sustain_On
Time_Shift_735
Note_On_74_Vel_66
Time_Shift_7
Note_On_62_Vel_44
Time_Shift_100
Sustain_Off
Note_On_69_Vel_0
Time_Shift_1
Note_On_57_Vel_0
Note_On_61_Vel_0
Time_Shift_2
Note_On_66_Vel_0
Time_Shift_76
Sustain_On
Time_Shift_592
Note_On_62_Vel_0
Time_Shift_7
Note_On_50_Vel_38
Time_Shift_4
Note_On_62_Vel_35
Time_Shift_2
Note_On_57_Vel_32
Note_On_69_Vel_49
Time_Shift_5
Note_On_66_Vel_42
Time_Shift_746
Note_On_78_Vel_71
Time_Shift_4
Note_On_66_Vel_0
Time_Shift_8
Note_On_66_Vel_50
Time_Shift_752
Note_On_78_Vel_0
Time_Shift_6
Note_On_78_Vel_75
Time_Shift_10
Note_On_66_Vel_0
Time_Shift_3
Note_On_66_Vel_48
Time_Shift_93
Sustain_Off
Time_Shift_11
Note_On_74_Vel_0
Time_Shift_4
Note_On_62_Vel_0
Time_Shift_1
Note_On_50_Vel_0
Time_Shift_26
Sustain_On
Time_Shift_447
Note_On_75_Vel_71
Time_Shift_14
Note_On_69_Vel_0
Time_Shift_7
Note_On_69_Vel_58
Note_On_57_Vel_0
Time_Shift_3
Note_On_73_Vel_56
Time_Shift_3
Note_On_57_Vel_46
Time_Shift_28
Note_On_63_Vel_33
Time_Shift_112
Note_On_78_Vel_0
Time_Shift_6
Note_On_78_Vel_75
Time_Shift_17
Note_On_66_Vel_0
Time_Shift_10
Note_On_66_Vel_53
Time_Shift_52
Note_On_69_Vel_0
Note_On_73_Vel_0
Note_On_63_Vel_0
Time_Shift_1
Note_On_57_Vel_0
Note_On_75_Vel_0
Time_Shift_1
Sustain_Off
Time_Shift_97
Sustain_On
Time_Shift_629
Note_On_76_Vel_66
Time_Shift_28
Note_On_69_Vel_49
Note_On_73_Vel_49
Time_Shift_3
Note_On_64_Vel_44
Time_Shift_64
Sustain_Off
Time_Shift_14
Note_On_66_Vel_0
Time_Shift_15
Note_On_78_Vel_0
Time_Shift_54
Sustain_On
Time_Shift_719
Note_On_78_Vel_75
Time_Shift_14
Note_On_66_Vel_50
Time_Shift_72
Note_On_69_Vel_0
Time_Shift_3
Note_On_64_Vel_0
Note_On_73_Vel_0
Note_On_76_Vel_0
Sustain_Off
Time_Shift_98
Sustain_On
Time_Shift_480
Note_On_75_Vel_70
Time_Shift_1
Note_On_52_Vel_56
Time_Shift_18
Note_On_68_Vel_56
Time_Shift_5
Note_On_74_Vel_55
Time_Shift_41
Note_On_66_Vel_0
Time_Shift_139
Note_On_78_Vel_0
Time_Shift_11
Note_On_78_Vel_82
Time_Shift_26
Note_On_66_Vel_50
Time_Shift_80
Sustain_Off
Time_Shift_3
Note_On_68_Vel_0
Note_On_74_Vel_0
Time_Shift_1
Note_On_75_Vel_0
Time_Shift_3
Note_On_52_Vel_0
Time_Shift_98
Sustain_On
Time_Shift_748
Note_On_76_Vel_61
Time_Shift_21
Note_On_64_Vel_40
Time_Shift_10
Note_On_68_Vel_44
Time_Shift_3
Note_On_74_Vel_33
Time_Shift_53
Sustain_Off
Time_Shift_6
Note_On_78_Vel_0
Note_On_66_Vel_0
Time_Shift_89
Sustain_On
Time_Shift_510
Note_On_57_Vel_45
Time_Shift_336
Note_On_85_Vel_69
Time_Shift_31
Note_On_73_Vel_43
Time_Shift_83
Note_On_74_Vel_0
Time_Shift_107
Note_On_68_Vel_0
Time_Shift_31
Note_On_76_Vel_0
Time_Shift_578
Note_On_75_Vel_58
Time_Shift_21
Note_On_73_Vel_0
Time_Shift_3
Note_On_69_Vel_44
Time_Shift_2
Note_On_63_Vel_36
Note_On_73_Vel_41
Time_Shift_13
Note_On_57_Vel_0
Time_Shift_4
Note_On_85_Vel_0
Time_Shift_2
Note_On_64_Vel_0
Time_Shift_178
Note_On_78_Vel_65
Time_Shift_2
Note_On_66_Vel_49
Time_Shift_3
Note_On_69_Vel_0
Time_Shift_10
Note_On_69_Vel_37
Time_Shift_374
Note_On_75_Vel_0
Time_Shift_459
Note_On_76_Vel_56
Time_Shift_25
Note_On_73_Vel_0
Time_Shift_8
Note_On_69_Vel_0
Time_Shift_3
Note_On_73_Vel_42
Time_Shift_1
Note_On_64_Vel_36
Time_Shift_1
Note_On_69_Vel_42
Time_Shift_279
Note_On_63_Vel_0
Time_Shift_538
Note_On_78_Vel_0
Time_Shift_42
Note_On_74_Vel_57
Time_Shift_5
Note_On_62_Vel_34
Time_Shift_506
Note_On_66_Vel_0
Time_Shift_161
Note_On_73_Vel_0
Time_Shift_9
Note_On_73_Vel_51
Time_Shift_22
Note_On_64_Vel_0
Time_Shift_6
Note_On_61_Vel_41
Note_On_64_Vel_37
Time_Shift_193
Note_On_74_Vel_0
Time_Shift_12
Note_On_74_Vel_57
Time_Shift_11
Note_On_62_Vel_0
Time_Shift_9
Note_On_62_Vel_41
Time_Shift_63
Sustain_Off
Time_Shift_36
Sustain_On
Time_Shift_576
Note_On_76_Vel_0
Time_Shift_199
Note_On_73_Vel_0
Time_Shift_5
Note_On_73_Vel_46
Time_Shift_3
Note_On_61_Vel_0
Time_Shift_4
Note_On_61_Vel_39
Time_Shift_11
Note_On_64_Vel_0
Note_On_69_Vel_0
Time_Shift_4
Note_On_69_Vel_36
Time_Shift_4
Note_On_64_Vel_32
Time_Shift_70
Sustain_Off
Time_Shift_2
Note_On_62_Vel_0
Time_Shift_28
Note_On_74_Vel_0
Time_Shift_54
Sustain_On
Time_Shift_746
Note_On_59_Vel_51
Time_Shift_2
Note_On_71_Vel_49
Time_Shift_112
Sustain_Off
Time_Shift_1
Note_On_73_Vel_0
Time_Shift_14
Note_On_61_Vel_0
Time_Shift_69
Sustain_On
Time_Shift_100
Note_On_69_Vel_0
Time_Shift_508
Note_On_81_Vel_48
Time_Shift_2
Note_On_69_Vel_56
Time_Shift_11
Note_On_76_Vel_41
Time_Shift_1
Note_On_64_Vel_0
Time_Shift_5
Note_On_64_Vel_43
Note_On_57_Vel_44
Time_Shift_7
Note_On_61_Vel_43
Time_Shift_273
Note_On_71_Vel_0
Time_Shift_9
Note_On_83_Vel_46
Time_Shift_2
Note_On_71_Vel_53
Time_Shift_4
Note_On_83_Vel_0
Time_Shift_8
Note_On_59_Vel_0
Time_Shift_5
Note_On_59_Vel_51
Time_Shift_48
Note_On_81_Vel_0
Time_Shift_39
Note_On_76_Vel_0
Time_Shift_4
Sustain_Off
Note_On_69_Vel_0
Note_On_64_Vel_0
Time_Shift_1
Note_On_57_Vel_0
Time_Shift_102
Sustain_On
Time_Shift_906
Note_On_57_Vel_29
Time_Shift_6
Note_On_81_Vel_30
Time_Shift_3
Note_On_76_Vel_26
Time_Shift_2
Note_On_69_Vel_33
Time_Shift_5
Note_On_76_Vel_0
Time_Shift_5
Note_On_64_Vel_19
Time_Shift_3
Note_On_61_Vel_0
Time_Shift_5
Note_On_61_Vel_24
Time_Shift_79
Sustain_Off
Time_Shift_23
Note_On_59_Vel_0
Time_Shift_8
Note_On_71_Vel_0
Time_Shift_92
Note_On_81_Vel_0
Time_Shift_8
Sustain_On
Time_Shift_1136
Note_On_68_Vel_47
Note_On_80_Vel_44
Time_Shift_8
Note_On_80_Vel_0
Time_Shift_8
Note_On_64_Vel_0
Time_Shift_7
Note_On_64_Vel_38
Time_Shift_1
Note_On_76_Vel_34
Time_Shift_1
Note_On_59_Vel_44
Time_Shift_3
Note_On_52_Vel_36
Time_Shift_67
Note_On_61_Vel_0
Sustain_Off
Time_Shift_1
Note_On_69_Vel_0
Time_Shift_1
Note_On_57_Vel_0
Time_Shift_42
Note_On_76_Vel_0
Time_Shift_53
Sustain_On
Time_Shift_569
Note_On_52_Vel_0
Time_Shift_10
Note_On_52_Vel_42
Time_Shift_696
Note_On_64_Vel_0
Time_Shift_3
Note_On_66_Vel_43
Time_Shift_3
Note_On_57_Vel_38
Time_Shift_1
Note_On_64_Vel_42
Time_Shift_5
Note_On_78_Vel_37
Note_On_76_Vel_39
Note_On_69_Vel_39
Time_Shift_11
Note_On_76_Vel_0
Note_On_78_Vel_0
Time_Shift_64
Sustain_Off
Time_Shift_5
Note_On_59_Vel_0
Time_Shift_69
Sustain_On
Time_Shift_208
Note_On_68_Vel_0
Time_Shift_321
Note_On_80_Vel_44
Time_Shift_1
Note_On_64_Vel_0
Time_Shift_2
Note_On_68_Vel_52
Time_Shift_3
Note_On_59_Vel_44
Time_Shift_3
Note_On_76_Vel_37
Note_On_80_Vel_0
Time_Shift_2
Note_On_64_Vel_39
Time_Shift_42
Note_On_66_Vel_0
Time_Shift_1
Sustain_Off
Time_Shift_78
Sustain_On
Time_Shift_238
Note_On_76_Vel_0
Time_Shift_246
Note_On_69_Vel_0
Time_Shift_5
Note_On_81_Vel_47
Time_Shift_1
Note_On_69_Vel_53
Time_Shift_9
Note_On_81_Vel_0
Time_Shift_8
Note_On_64_Vel_0
Note_On_72_Vel_46
Time_Shift_4
Note_On_76_Vel_36
Note_On_45_Vel_45
Time_Shift_2
Note_On_64_Vel_41
Time_Shift_1
Note_On_60_Vel_41
Time_Shift_1
Note_On_72_Vel_0
Time_Shift_173
Note_On_72_Vel_55
Time_Shift_11
Note_On_52_Vel_0
Note_On_64_Vel_0
Time_Shift_7
Note_On_64_Vel_45
Time_Shift_1
Note_On_68_Vel_0
Time_Shift_2
Note_On_52_Vel_49
Time_Shift_6
Note_On_68_Vel_47
Time_Shift_42
Sustain_Off
Time_Shift_2
Note_On_45_Vel_0
Note_On_59_Vel_0
Time_Shift_1
Note_On_60_Vel_0
Note_On_76_Vel_0
Note_On_69_Vel_0
Time_Shift_8
Note_On_57_Vel_0
Time_Shift_177
Sustain_On
Time_Shift_1217
Note_On_71_Vel_53
Time_Shift_1
Note_On_40_Vel_32
Time_Shift_10
Note_On_64_Vel_0
Time_Shift_1
Note_On_62_Vel_37
Time_Shift_7
Note_On_52_Vel_0
Time_Shift_2
Note_On_64_Vel_43
Time_Shift_6
Note_On_52_Vel_31
Time_Shift_18
Note_On_72_Vel_0
Time_Shift_2
Sustain_Off
Time_Shift_95
Sustain_On
Time_Shift_54
Note_On_68_Vel_0
Time_Shift_342
Note_On_81_Vel_49
Time_Shift_1
Note_On_69_Vel_57
Time_Shift_6
Note_On_60_Vel_51
Time_Shift_2
Note_On_72_Vel_49
Time_Shift_2
Note_On_81_Vel_0
Time_Shift_10
Note_On_71_Vel_0
Time_Shift_5
Sustain_Off
Time_Shift_3
Note_On_45_Vel_38
Time_Shift_5
Note_On_62_Vel_0
Time_Shift_46
Sustain_On
Time_Shift_120
Note_On_68_Vel_62
Note_On_80_Vel_54
Time_Shift_11
Note_On_80_Vel_0
Time_Shift_61
Note_On_69_Vel_0
Time_Shift_4
Note_On_81_Vel_51
Time_Shift_1
Note_On_69_Vel_57
Time_Shift_57
Note_On_52_Vel_0
Time_Shift_6
Note_On_80_Vel_59
Time_Shift_1
Note_On_40_Vel_0
Note_On_68_Vel_0
Time_Shift_3
Note_On_52_Vel_46
Time_Shift_5
Note_On_80_Vel_0
Note_On_81_Vel_0
Time_Shift_1
Note_On_40_Vel_38
Time_Shift_2
Note_On_68_Vel_58
Note_On_71_Vel_50
Time_Shift_1
Note_On_59_Vel_44
Time_Shift_34
Note_On_72_Vel_0
Time_Shift_5
Note_On_69_Vel_0
Note_On_45_Vel_0
Note_On_60_Vel_0
Sustain_Off
Time_Shift_18
Note_On_64_Vel_0
Time_Shift_100
Sustain_On
Time_Shift_639
Note_On_66_Vel_57
Time_Shift_3
Note_On_57_Vel_41
Time_Shift_11
Note_On_40_Vel_0
Note_On_52_Vel_0
Time_Shift_5
Note_On_64_Vel_49
Time_Shift_1
Note_On_52_Vel_37
Note_On_40_Vel_40
Time_Shift_1
Note_On_76_Vel_47
Time_Shift_8
Note_On_76_Vel_0
Time_Shift_74
Note_On_59_Vel_0
Time_Shift_1
Sustain_Off
Time_Shift_18
Note_On_68_Vel_0
Time_Shift_7
Note_On_71_Vel_0
Time_Shift_138
Sustain_On
Time_Shift_655
Note_On_68_Vel_57
Time_Shift_11
Note_On_59_Vel_49
Time_Shift_3
Note_On_40_Vel_0
Note_On_52_Vel_0
Note_On_64_Vel_0
Time_Shift_4
Note_On_40_Vel_40
Time_Shift_1
Note_On_52_Vel_43
Time_Shift_2
Note_On_64_Vel_47
Time_Shift_3
Note_On_76_Vel_40
Time_Shift_5
Note_On_76_Vel_0
Time_Shift_74
Sustain_Off
Note_On_57_Vel_0
Note_On_66_Vel_0
Time_Shift_110
Sustain_On
Time_Shift_446
Note_On_64_Vel_0
Time_Shift_71
Note_On_71_Vel_55
Time_Shift_5
Note_On_62_Vel_47
Time_Shift_8
Note_On_64_Vel_40
Time_Shift_5
Note_On_76_Vel_32
Time_Shift_49
Note_On_59_Vel_0
Time_Shift_131
Note_On_76_Vel_0
Time_Shift_45
Note_On_81_Vel_55
Time_Shift_3
Note_On_69_Vel_62
Time_Shift_5
Note_On_81_Vel_0
Time_Shift_8
Note_On_64_Vel_0
Time_Shift_3
Note_On_72_Vel_46
Time_Shift_1
Note_On_76_Vel_32
Time_Shift_1
Note_On_64_Vel_39
Time_Shift_3
Note_On_72_Vel_0
Time_Shift_3
Note_On_60_Vel_42
Time_Shift_40
Note_On_71_Vel_0
Time_Shift_1
Note_On_68_Vel_0
Time_Shift_1
Note_On_62_Vel_0
Time_Shift_2
Sustain_Off
Time_Shift_83
Sustain_On
Time_Shift_197
Note_On_55_Vel_41
Time_Shift_1
Note_On_67_Vel_35
Time_Shift_76
Note_On_53_Vel_53
Time_Shift_54
Sustain_Off
Time_Shift_7
Note_On_55_Vel_0
Time_Shift_11
Note_On_40_Vel_0
Note_On_52_Vel_0
Time_Shift_69
Sustain_On
Time_Shift_238
Note_On_64_Vel_0
Time_Shift_4
Note_On_64_Vel_47
Time_Shift_1
Note_On_52_Vel_56
Time_Shift_76
Note_On_53_Vel_0
Time_Shift_3
Sustain_Off
Time_Shift_85
Sustain_On
Time_Shift_268
Note_On_45_Vel_50
Time_Shift_70
Note_On_52_Vel_0
Time_Shift_8
Sustain_Off
Time_Shift_61
Sustain_On
Time_Shift_108
Note_On_60_Vel_0
Note_On_76_Vel_0
Time_Shift_319
Note_On_72_Vel_57
Time_Shift_9
Note_On_43_Vel_38
Time_Shift_9
Note_On_64_Vel_0
Note_On_67_Vel_0
Time_Shift_4
Note_On_55_Vel_30
Time_Shift_1
Note_On_64_Vel_41
Time_Shift_6
Note_On_67_Vel_35
Time_Shift_60
Note_On_69_Vel_0
Time_Shift_1
Note_On_45_Vel_0
Time_Shift_2
Sustain_Off
Time_Shift_95
Sustain_On
Time_Shift_755
Note_On_71_Vel_54
Time_Shift_6
Note_On_55_Vel_0
Time_Shift_7
Note_On_67_Vel_0
Time_Shift_3
Note_On_62_Vel_42
Time_Shift_1
Note_On_55_Vel_36
Time_Shift_6
Note_On_67_Vel_42
Time_Shift_85
Note_On_72_Vel_0
Note_On_64_Vel_0
Time_Shift_3
Sustain_Off
Time_Shift_102
Sustain_On
Time_Shift_1032
Note_On_69_Vel_59
Time_Shift_13
Note_On_55_Vel_0
Time_Shift_4
Note_On_60_Vel_47
Time_Shift_3
Note_On_67_Vel_0
Time_Shift_3
Note_On_55_Vel_39
Time_Shift_2
Note_On_67_Vel_38
Time_Shift_441
Note_On_71_Vel_0
Time_Shift_4
Note_On_71_Vel_65
Time_Shift_3
Note_On_55_Vel_0
Note_On_62_Vel_0
Note_On_67_Vel_0
Time_Shift_4
Note_On_62_Vel_52
Time_Shift_1
Note_On_55_Vel_45
Time_Shift_2
Note_On_67_Vel_55
Time_Shift_52
Note_On_69_Vel_0
Note_On_60_Vel_0
Time_Shift_2
Sustain_Off
Time_Shift_93
Sustain_On
Time_Shift_284
Note_On_43_Vel_0
Time_Shift_54
Note_On_62_Vel_0
Time_Shift_301
Note_On_72_Vel_70
Time_Shift_6
Note_On_67_Vel_0
Time_Shift_2
Note_On_64_Vel_57
Time_Shift_2
Note_On_48_Vel_51
Note_On_60_Vel_50
Note_On_67_Vel_58
Time_Shift_11
Note_On_60_Vel_0
Time_Shift_177
Note_On_76_Vel_78
Time_Shift_8
Note_On_71_Vel_0
Time_Shift_7
Note_On_55_Vel_0
Note_On_64_Vel_0
Note_On_67_Vel_0
Time_Shift_2
Note_On_71_Vel_66
Time_Shift_3
Note_On_67_Vel_55
Note_On_64_Vel_49
Time_Shift_5
Note_On_55_Vel_46
Time_Shift_101
Note_On_72_Vel_0
Time_Shift_1
Sustain_Off
Time_Shift_4
Note_On_48_Vel_0
Time_Shift_153
Sustain_On
Time_Shift_215
Note_On_64_Vel_0
Time_Shift_1286
Note_On_74_Vel_67
Time_Shift_2
Note_On_43_Vel_42
Time_Shift_10
Note_On_67_Vel_0
Time_Shift_6
Note_On_65_Vel_53
Note_On_67_Vel_50
Time_Shift_45
Sustain_Off
Time_Shift_2
Note_On_76_Vel_0
Time_Shift_24
Note_On_71_Vel_0
Time_Shift_108
Sustain_On
Time_Shift_215
Note_On_65_Vel_0
Time_Shift_348
Note_On_72_Vel_69
Time_Shift_3
Note_On_64_Vel_63
Time_Shift_10
Note_On_55_Vel_0
Time_Shift_4
Note_On_60_Vel_55
Time_Shift_1
Note_On_55_Vel_43
Note_On_48_Vel_52
Time_Shift_175
Note_On_71_Vel_64
Time_Shift_50
Note_On_72_Vel_0
Time_Shift_6
Note_On_72_Vel_62
Time_Shift_40
Note_On_55_Vel_0
Time_Shift_8
Note_On_55_Vel_43
Time_Shift_38
Note_On_71_Vel_0
Time_Shift_6
Sustain_Off
Time_Shift_1
Note_On_74_Vel_0
Time_Shift_1
Note_On_43_Vel_0
Time_Shift_1
Note_On_64_Vel_0
Note_On_71_Vel_61
Time_Shift_2
Note_On_72_Vel_0
Note_On_60_Vel_0
Time_Shift_3
Note_On_62_Vel_44
Time_Shift_109
Sustain_On
Time_Shift_637
Note_On_55_Vel_0
Time_Shift_2
Note_On_69_Vel_65
Time_Shift_7
Note_On_55_Vel_45
Time_Shift_1
Note_On_43_Vel_48
Time_Shift_6
Note_On_67_Vel_0
Time_Shift_3
Note_On_60_Vel_52
Time_Shift_3
Note_On_67_Vel_48
Time_Shift_48
Note_On_48_Vel_0
Time_Shift_8
Sustain_Off
Time_Shift_30
Note_On_62_Vel_0
Time_Shift_69
Sustain_On
Time_Shift_54
Note_On_71_Vel_0
Time_Shift_741
Note_On_71_Vel_63
Time_Shift_4
Note_On_55_Vel_0
Note_On_67_Vel_0
Time_Shift_4
Note_On_62_Vel_53
Time_Shift_5
Note_On_67_Vel_51
Note_On_55_Vel_51
Time_Shift_73
Note_On_69_Vel_0
Time_Shift_1
Note_On_43_Vel_0
Time_Shift_1
Note_On_60_Vel_0
Time_Shift_1
Sustain_Off
Time_Shift_114
Sustain_On
Time_Shift_644
Note_On_74_Vel_60
Time_Shift_2
Note_On_67_Vel_0
Time_Shift_8
Note_On_67_Vel_47
Note_On_65_Vel_48
Time_Shift_194
Note_On_72_Vel_63
Time_Shift_5
Note_On_67_Vel_0
Time_Shift_7
Note_On_67_Vel_52
Time_Shift_4
Note_On_64_Vel_52
Time_Shift_1
Note_On_48_Vel_50
Note_On_60_Vel_45
Time_Shift_56
Sustain_Off
Time_Shift_8
Note_On_62_Vel_0
Time_Shift_1
Note_On_71_Vel_0
Time_Shift_2
Note_On_74_Vel_0
Time_Shift_1
Note_On_65_Vel_0
Time_Shift_27
Note_On_55_Vel_0
Time_Shift_70
Sustain_On
Time_Shift_919
Note_On_50_Vel_44
Time_Shift_1
Note_On_71_Vel_48
Time_Shift_7
Note_On_65_Vel_37
Note_On_62_Vel_36
Time_Shift_74
Note_On_72_Vel_0
Note_On_64_Vel_0
Sustain_Off
Time_Shift_1
Note_On_48_Vel_0
Time_Shift_1
Note_On_60_Vel_0
Time_Shift_10
Note_On_67_Vel_0
Time_Shift_92
Sustain_On
Time_Shift_644
Note_On_69_Vel_55
Time_Shift_5
Note_On_65_Vel_0
Note_On_66_Vel_45
Time_Shift_1
Note_On_50_Vel_0
Time_Shift_6
Note_On_60_Vel_41
Note_On_71_Vel_0
Time_Shift_5
Note_On_62_Vel_0
Note_On_51_Vel_42
Time_Shift_223
Note_On_69_Vel_0
Time_Shift_11
Note_On_69_Vel_60
Time_Shift_12
Note_On_60_Vel_0
Time_Shift_5
Note_On_64_Vel_56
Note_On_52_Vel_52
Time_Shift_2
Note_On_60_Vel_33
Time_Shift_42
Note_On_66_Vel_0
Note_On_51_Vel_0
Time_Shift_3
Sustain_Off
Time_Shift_117
Sustain_On
Time_Shift_620
Note_On_68_Vel_56
Time_Shift_7
Note_On_59_Vel_46
Time_Shift_2
Note_On_64_Vel_0
Time_Shift_5
Note_On_64_Vel_39
Time_Shift_56
Sustain_Off
Time_Shift_9
Note_On_60_Vel_0
Time_Shift_7
Note_On_69_Vel_0
Time_Shift_69
Sustain_On
Time_Shift_576
Note_On_52_Vel_0
Time_Shift_6
Note_On_52_Vel_50
Time_Shift_53
Sustain_Off
Time_Shift_41
Sustain_On
Time_Shift_16
Note_On_64_Vel_0
Time_Shift_271
Note_On_66_Vel_61
Time_Shift_17
Note_On_57_Vel_43
Time_Shift_7
Note_On_64_Vel_50
Time_Shift_19
Note_On_59_Vel_0
Time_Shift_20
Sustain_Off
Time_Shift_27
Note_On_68_Vel_0
Time_Shift_38
Sustain_On
Time_Shift_319
Note_On_68_Vel_58
Time_Shift_1
Note_On_59_Vel_50
Time_Shift_2
Note_On_64_Vel_0
Time_Shift_12
Note_On_64_Vel_44
Time_Shift_7
Sustain_Off
Time_Shift_2
Note_On_66_Vel_0
Time_Shift_1
Note_On_57_Vel_0
Time_Shift_86
Sustain_On
Time_Shift_553
Note_On_68_Vel_0
Time_Shift_3
Note_On_59_Vel_0
Time_Shift_3
Sustain_Off
Time_Shift_13
Note_On_45_Vel_45
Note_On_69_Vel_55
Time_Shift_4
Note_On_64_Vel_0
Time_Shift_4
Note_On_60_Vel_45
Time_Shift_3
Note_On_64_Vel_45
Time_Shift_39
Sustain_On
Time_Shift_150
Note_On_72_Vel_58
Time_Shift_11
Note_On_52_Vel_0
Time_Shift_8
Note_On_64_Vel_0
Time_Shift_3
Note_On_52_Vel_48
Time_Shift_7
Note_On_64_Vel_46
Time_Shift_1
Note_On_68_Vel_53
Time_Shift_39
Sustain_Off
Time_Shift_1
Note_On_69_Vel_0
Note_On_60_Vel_0
Time_Shift_1
Note_On_45_Vel_0
Time_Shift_140
Sustain_On
Time_Shift_714
Note_On_64_Vel_0
Time_Shift_453
Note_On_52_Vel_0
Time_Shift_135
Note_On_71_Vel_52
Time_Shift_13
Note_On_40_Vel_33
Time_Shift_8
Note_On_64_Vel_39
Time_Shift_1
Note_On_52_Vel_33
Time_Shift_1
Note_On_62_Vel_35
Time_Shift_40
Note_On_72_Vel_0
Time_Shift_1
Note_On_68_Vel_0
Time_Shift_4
Sustain_Off
Time_Shift_105
Sustain_On
Time_Shift_425
Note_On_69_Vel_59
Time_Shift_12
Note_On_64_Vel_0
Time_Shift_3
Note_On_60_Vel_50
Time_Shift_2
Note_On_45_Vel_45
Time_Shift_5
Note_On_64_Vel_43
Time_Shift_2
Sustain_Off
Time_Shift_11
Note_On_62_Vel_0
Time_Shift_23
Sustain_On
Time_Shift_118
Note_On_68_Vel_60
Time_Shift_51
Note_On_69_Vel_0
Time_Shift_4
Note_On_69_Vel_55
Note_On_81_Vel_55
Time_Shift_12
Note_On_81_Vel_0
Time_Shift_69
Note_On_68_Vel_0
Note_On_71_Vel_0
Time_Shift_2
Note_On_80_Vel_63
Time_Shift_2
Sustain_Off
Note_On_68_Vel_64
Time_Shift_4
Note_On_52_Vel_0
Time_Shift_1
Note_On_71_Vel_56
Time_Shift_1
Note_On_45_Vel_0
Note_On_60_Vel_0
Time_Shift_1
Note_On_69_Vel_0
Time_Shift_1
Note_On_59_Vel_56
Time_Shift_3
Note_On_52_Vel_41
Time_Shift_54
Note_On_80_Vel_0
Time_Shift_61
Sustain_On
Time_Shift_246
Note_On_64_Vel_0
Time_Shift_419
Note_On_66_Vel_56
Time_Shift_2
Note_On_57_Vel_50
Time_Shift_2
Note_On_40_Vel_0
Time_Shift_6
Note_On_40_Vel_41
Time_Shift_1
Note_On_52_Vel_0
Time_Shift_9
Note_On_52_Vel_37
Time_Shift_1
Note_On_64_Vel_52
Time_Shift_42
Note_On_68_Vel_0
Time_Shift_1
Note_On_59_Vel_0
Time_Shift_6
Sustain_Off
Time_Shift_10
Note_On_71_Vel_0
Time_Shift_123
Sustain_On
Time_Shift_625
Note_On_68_Vel_60
Time_Shift_5
Note_On_59_Vel_53
Time_Shift_8
Note_On_64_Vel_0
Time_Shift_6
Note_On_64_Vel_51
Time_Shift_1
Note_On_52_Vel_0
Time_Shift_7
Note_On_52_Vel_50
Time_Shift_55
Note_On_57_Vel_0
Time_Shift_2
Sustain_Off
Time_Shift_3
Note_On_66_Vel_0
Time_Shift_110
Sustain_On
Time_Shift_507
Note_On_64_Vel_0
Note_On_68_Vel_0
Time_Shift_2
Note_On_62_Vel_57
Note_On_71_Vel_60
Time_Shift_4
Note_On_64_Vel_52
Time_Shift_3
Note_On_68_Vel_47
Time_Shift_200
Note_On_81_Vel_63
Time_Shift_1
Note_On_69_Vel_68
Time_Shift_5
Note_On_81_Vel_0
Time_Shift_16
Note_On_72_Vel_54
Time_Shift_2
Note_On_60_Vel_58
Time_Shift_6
Note_On_76_Vel_38
Time_Shift_7
Note_On_76_Vel_0
Time_Shift_11
Sustain_Off
Note_On_68_Vel_0
Note_On_62_Vel_0
Time_Shift_1
Note_On_59_Vel_0
Note_On_71_Vel_0
Time_Shift_72
Sustain_On
Time_Shift_212
Note_On_55_Vel_52
Time_Shift_73
Note_On_53_Vel_65
Time_Shift_34
Sustain_Off
Time_Shift_27
Note_On_40_Vel_0
Time_Shift_7
Note_On_52_Vel_0
Time_Shift_8
Note_On_55_Vel_0
Time_Shift_15
Sustain_On
Time_Shift_297
Note_On_52_Vel_62
Time_Shift_44
Note_On_53_Vel_0
Time_Shift_5
Sustain_Off
Time_Shift_62
Sustain_On
Time_Shift_380
Note_On_45_Vel_55
Time_Shift_549
Note_On_72_Vel_0
Time_Shift_3
Note_On_43_Vel_41
Time_Shift_5
Note_On_72_Vel_54
Time_Shift_7
Note_On_64_Vel_0
Time_Shift_5
Note_On_64_Vel_38
Time_Shift_2
Note_On_55_Vel_34
Time_Shift_1
Note_On_67_Vel_39
Time_Shift_46
Note_On_60_Vel_0
Time_Shift_4
Note_On_69_Vel_0
Note_On_52_Vel_0
Note_On_45_Vel_0
Time_Shift_1
Sustain_Off
Time_Shift_102
Sustain_On
Time_Shift_705
Note_On_71_Vel_53
Time_Shift_2
Note_On_67_Vel_0
Time_Shift_2
Note_On_62_Vel_46
Time_Shift_3
Note_On_67_Vel_41
Time_Shift_3
Note_On_55_Vel_0
Time_Shift_4
Note_On_55_Vel_41
Time_Shift_69
Note_On_72_Vel_0
Time_Shift_1
Note_On_64_Vel_0
Time_Shift_4
Sustain_Off
Time_Shift_121
Sustain_On
Time_Shift_945
Note_On_43_Vel_0
Time_Shift_8
Note_On_55_Vel_0
Note_On_67_Vel_0
Time_Shift_4
Note_On_69_Vel_60
Time_Shift_2
Note_On_60_Vel_50
Time_Shift_4
Note_On_55_Vel_43
Note_On_67_Vel_46
Time_Shift_13
Note_On_62_Vel_0
Time_Shift_391
Note_On_71_Vel_0
Time_Shift_8
Note_On_55_Vel_0
Time_Shift_3
Note_On_71_Vel_72
Time_Shift_2
Note_On_55_Vel_50
Time_Shift_3
Note_On_67_Vel_0
Time_Shift_4
Note_On_62_Vel_57
Time_Shift_6
Note_On_67_Vel_58
Time_Shift_24
Sustain_Off
Time_Shift_2
Note_On_69_Vel_0
Time_Shift_1
Note_On_60_Vel_0
Time_Shift_86
Sustain_On
Time_Shift_568
Note_On_67_Vel_0
Time_Shift_4
Note_On_72_Vel_72
Time_Shift_6
Note_On_64_Vel_58
Time_Shift_1
Note_On_67_Vel_55
Time_Shift_2
Note_On_60_Vel_52
Time_Shift_2
Note_On_62_Vel_0
Time_Shift_4
Note_On_48_Vel_49
Time_Shift_149
Note_On_76_Vel_80
Time_Shift_1
Note_On_67_Vel_0
Time_Shift_7
Note_On_67_Vel_62
Time_Shift_1
Note_On_64_Vel_0
Note_On_71_Vel_0
Time_Shift_6
Note_On_64_Vel_50
Time_Shift_1
Note_On_55_Vel_0
Time_Shift_1
Note_On_71_Vel_60
Time_Shift_4
Note_On_55_Vel_49
Time_Shift_81
Note_On_48_Vel_0
Note_On_64_Vel_0
Time_Shift_1
Note_On_72_Vel_0
Time_Shift_1
Sustain_Off
Note_On_60_Vel_0
Time_Shift_104
Sustain_On
Time_Shift_1539
Note_On_74_Vel_63
Time_Shift_8
Note_On_43_Vel_33
Time_Shift_12
Note_On_55_Vel_0
Note_On_71_Vel_0
Time_Shift_4
Note_On_55_Vel_33
Time_Shift_1
Note_On_65_Vel_47
Time_Shift_2
Note_On_71_Vel_32
Time_Shift_1
Note_On_67_Vel_0
Time_Shift_6
Note_On_67_Vel_35
Time_Shift_15
Sustain_Off
Time_Shift_6
Note_On_76_Vel_0
Time_Shift_81
Sustain_On
Time_Shift_470
Note_On_72_Vel_63
Time_Shift_12
Note_On_64_Vel_50
Time_Shift_4
Note_On_65_Vel_0
Note_On_60_Vel_43
Time_Shift_2
Note_On_48_Vel_44
Time_Shift_1
Note_On_43_Vel_0
Time_Shift_5
Note_On_74_Vel_0
Time_Shift_20
Note_On_71_Vel_0
Time_Shift_127
Note_On_71_Vel_56
Time_Shift_57
Note_On_72_Vel_0
Time_Shift_5
Note_On_72_Vel_44
Time_Shift_80
Note_On_60_Vel_0
Note_On_71_Vel_0
Time_Shift_4
Note_On_71_Vel_63
Time_Shift_4
Note_On_55_Vel_0
Time_Shift_8
Note_On_72_Vel_0
Sustain_Off
Note_On_64_Vel_0
Time_Shift_2
Note_On_48_Vel_0
Note_On_55_Vel_37
Time_Shift_1
Note_On_62_Vel_47
Time_Shift_96
Sustain_On
Time_Shift_780
Note_On_69_Vel_57
Time_Shift_19
Note_On_55_Vel_0
Time_Shift_2
Note_On_60_Vel_41
Time_Shift_1
Note_On_43_Vel_37
Time_Shift_2
Note_On_55_Vel_30
Time_Shift_37
Sustain_Off
Time_Shift_4
Note_On_62_Vel_0
Time_Shift_15
Note_On_71_Vel_0
Time_Shift_85
Sustain_On
Time_Shift_276
Note_On_67_Vel_0
Time_Shift_455
Note_On_71_Vel_47
Time_Shift_21
Note_On_55_Vel_0
Time_Shift_6
Note_On_67_Vel_38
Time_Shift_1
Note_On_62_Vel_34
Note_On_55_Vel_42
Time_Shift_38
Note_On_69_Vel_0
Sustain_Off
Time_Shift_4
Note_On_60_Vel_0
Time_Shift_97
Sustain_On
Time_Shift_131
Note_On_62_Vel_0
Time_Shift_429
Note_On_74_Vel_55
Time_Shift_10
Note_On_65_Vel_48
Time_Shift_6
Note_On_67_Vel_0
Time_Shift_11
Note_On_67_Vel_41
Time_Shift_210
Note_On_72_Vel_54
Time_Shift_10
Note_On_67_Vel_0
Time_Shift_8
Note_On_64_Vel_47
Time_Shift_3
Note_On_67_Vel_43
Time_Shift_10
Note_On_48_Vel_37
Time_Shift_51
Note_On_74_Vel_0
Time_Shift_1
Note_On_71_Vel_0
Sustain_Off
Note_On_55_Vel_0
Time_Shift_1
Note_On_65_Vel_0
Time_Shift_10
Note_On_43_Vel_0
Time_Shift_108
Sustain_On
Time_Shift_878
Note_On_60_Vel_51
Time_Shift_155
Sustain_Off
Time_Shift_96
Sustain_On
Time_Shift_61
Note_On_48_Vel_0
Time_Shift_469
Note_On_72_Vel_0
Time_Shift_7
Note_On_64_Vel_0
Time_Shift_3
Note_On_72_Vel_58
Time_Shift_3
Note_On_64_Vel_45
Time_Shift_17
Note_On_67_Vel_0
Time_Shift_9
Note_On_67_Vel_48
Time_Shift_652
Note_On_72_Vel_0
Time_Shift_5
Note_On_59_Vel_56
Time_Shift_6
Note_On_72_Vel_60
Time_Shift_332
Note_On_57_Vel_58
Time_Shift_18
Note_On_72_Vel_0
Time_Shift_4
Note_On_69_Vel_51
Time_Shift_2
Note_On_72_Vel_54
Time_Shift_6
Note_On_65_Vel_44
Time_Shift_51
Note_On_67_Vel_0
Note_On_60_Vel_0
Time_Shift_1
Note_On_64_Vel_0
Note_On_59_Vel_0
Time_Shift_2
Sustain_Off
Time_Shift_80
Sustain_On
Time_Shift_110
Note_On_59_Vel_62
Time_Shift_151
Note_On_57_Vel_0
Note_On_69_Vel_0
Time_Shift_6
Note_On_57_Vel_62
Time_Shift_4
Note_On_69_Vel_55
Time_Shift_170
Note_On_55_Vel_61
Time_Shift_8
Sustain_Off
Time_Shift_1
Note_On_57_Vel_0
Time_Shift_1
Note_On_59_Vel_0
Time_Shift_94
Sustain_On
Time_Shift_311
Note_On_53_Vel_65
Time_Shift_35
Note_On_72_Vel_0
Time_Shift_107
Note_On_74_Vel_76
Time_Shift_167
Note_On_76_Vel_74
Time_Shift_6
Note_On_52_Vel_65
Time_Shift_7
Note_On_67_Vel_58
Time_Shift_11
Note_On_55_Vel_0
Time_Shift_1
Note_On_53_Vel_0
Time_Shift_1
Note_On_74_Vel_0
Time_Shift_7
Note_On_69_Vel_0
Time_Shift_1
Sustain_Off
Time_Shift_14
Note_On_65_Vel_0
Time_Shift_131
Sustain_On
Time_Shift_568
Note_On_76_Vel_0
Time_Shift_2
Note_On_68_Vel_76
Note_On_50_Vel_68
Time_Shift_3
Note_On_76_Vel_71
Time_Shift_7
Note_On_64_Vel_67
Time_Shift_195
Note_On_76_Vel_0
Time_Shift_4
Note_On_76_Vel_71
Time_Shift_2
Note_On_69_Vel_69
Time_Shift_2
Note_On_64_Vel_0
Time_Shift_6
Note_On_48_Vel_63
Time_Shift_1
Note_On_64_Vel_67
Time_Shift_56
Sustain_Off
Time_Shift_9
Note_On_68_Vel_0
Time_Shift_1
Note_On_50_Vel_0
Note_On_52_Vel_0
Time_Shift_19
Note_On_67_Vel_0
Time_Shift_115
Sustain_On
Time_Shift_40
Note_On_50_Vel_70
Time_Shift_145
Note_On_48_Vel_0
Time_Shift_5
Note_On_48_Vel_65
Time_Shift_141
Note_On_50_Vel_0
Time_Shift_38
Note_On_76_Vel_0
Time_Shift_3
Note_On_47_Vel_62
Time_Shift_2
Note_On_71_Vel_60
Time_Shift_4
Note_On_76_Vel_49
Time_Shift_25
Sustain_Off
Time_Shift_23
Note_On_48_Vel_0
Time_Shift_97
Sustain_On
Time_Shift_261
Note_On_64_Vel_0
Time_Shift_3
Note_On_72_Vel_65
Time_Shift_1
Note_On_45_Vel_57
Time_Shift_6
Note_On_64_Vel_49
Time_Shift_48
Note_On_71_Vel_0
Time_Shift_1
Sustain_Off
Note_On_47_Vel_0
Time_Shift_64
Sustain_On
Time_Shift_376
Note_On_76_Vel_0
Time_Shift_10
Note_On_43_Vel_50
Time_Shift_1
Note_On_71_Vel_57
Note_On_76_Vel_60
Time_Shift_4
Note_On_64_Vel_0
Time_Shift_2
Note_On_55_Vel_40
Time_Shift_9
Note_On_64_Vel_51
Time_Shift_30
Sustain_Off
Time_Shift_2
Note_On_72_Vel_0
Note_On_45_Vel_0
Time_Shift_3
Note_On_69_Vel_0
Time_Shift_100
Sustain_On
Time_Shift_645
Note_On_76_Vel_0
Time_Shift_6
Note_On_76_Vel_63
Time_Shift_1
Note_On_69_Vel_62
Time_Shift_1
Note_On_71_Vel_0
Time_Shift_3
Note_On_42_Vel_48
Time_Shift_2
Note_On_54_Vel_40
Time_Shift_1
Note_On_71_Vel_50
Time_Shift_5
Note_On_43_Vel_0
Time_Shift_4
Note_On_54_Vel_0
Time_Shift_200
Note_On_71_Vel_0
Note_On_76_Vel_0
Time_Shift_10
Note_On_76_Vel_64
Note_On_40_Vel_45
Time_Shift_2
Note_On_71_Vel_49
Time_Shift_12
Note_On_67_Vel_49
Time_Shift_37
Note_On_55_Vel_0
Time_Shift_1
Note_On_64_Vel_0
Note_On_69_Vel_0
Time_Shift_1
Note_On_42_Vel_0
Time_Shift_1
Sustain_Off
Time_Shift_36
Sustain_On
Time_Shift_766
Note_On_75_Vel_60
Time_Shift_15
Note_On_35_Vel_37
Time_Shift_2
Note_On_47_Vel_36
Note_On_71_Vel_0
Time_Shift_6
Note_On_71_Vel_43
Time_Shift_1
Note_On_66_Vel_42
Time_Shift_59
Sustain_Off
Time_Shift_6
Note_On_40_Vel_0
Time_Shift_5
Note_On_67_Vel_0
Time_Shift_15
Note_On_76_Vel_0
Time_Shift_85
Sustain_On
Time_Shift_822
Note_On_76_Vel_53
Time_Shift_23
Note_On_71_Vel_0
Note_On_28_Vel_31
Time_Shift_3
Note_On_40_Vel_22
Time_Shift_6
Note_On_64_Vel_41
Note_On_68_Vel_43
Time_Shift_1
Note_On_71_Vel_35
Time_Shift_86
Sustain_Off
Time_Shift_1
Note_On_75_Vel_0
Time_Shift_1
Note_On_66_Vel_0
Time_Shift_2
Note_On_47_Vel_0
Time_Shift_3
Note_On_35_Vel_0
Time_Shift_66
Sustain_On
Time_Shift_675
Note_On_40_Vel_0
Time_Shift_6
Note_On_40_Vel_32
Time_Shift_817
Note_On_52_Vel_39
Time_Shift_79
Note_On_28_Vel_0
Time_Shift_1
Note_On_64_Vel_0
Time_Shift_1
Note_On_76_Vel_0
Note_On_68_Vel_0
Time_Shift_7
Sustain_Off
Time_Shift_65
Sustain_On
Time_Shift_200
Note_On_71_Vel_0
Time_Shift_138
Note_On_45_Vel_44
Time_Shift_579
Note_On_60_Vel_59
Time_Shift_53
Note_On_69_Vel_52
Time_Shift_17
Note_On_76_Vel_37
Note_On_72_Vel_46
Note_On_64_Vel_45
Time_Shift_733
Note_On_69_Vel_0
Time_Shift_4
Note_On_81_Vel_56
Note_On_59_Vel_58
Note_On_69_Vel_59
Time_Shift_2
Note_On_71_Vel_53
Time_Shift_240
Note_On_40_Vel_0
Time_Shift_38
Note_On_69_Vel_0
Note_On_81_Vel_0
Time_Shift_5
Note_On_57_Vel_64
Time_Shift_1
Note_On_81_Vel_57
Time_Shift_4
Note_On_69_Vel_60
Time_Shift_13
Note_On_77_Vel_48
Time_Shift_5
Note_On_65_Vel_48
Time_Shift_1
Note_On_62_Vel_40
Time_Shift_38
Note_On_72_Vel_0
Time_Shift_2
Note_On_64_Vel_0
Note_On_76_Vel_0
Note_On_52_Vel_0
Time_Shift_1
Note_On_60_Vel_0
Time_Shift_1
Note_On_59_Vel_0
Time_Shift_1
Note_On_45_Vel_0
Time_Shift_1
Sustain_Off
Time_Shift_35
Note_On_71_Vel_0
Time_Shift_15
Note_On_81_Vel_0
Time_Shift_31
Sustain_On
Time_Shift_138
Note_On_77_Vel_0
Time_Shift_16
Note_On_69_Vel_0
Time_Shift_4
Note_On_59_Vel_64
Time_Shift_3
Note_On_71_Vel_54
Note_On_69_Vel_46
Time_Shift_169
Note_On_57_Vel_0
Time_Shift_8
Note_On_69_Vel_0
Time_Shift_2
Note_On_57_Vel_66
Time_Shift_3
Note_On_69_Vel_60
Time_Shift_178
Note_On_55_Vel_61
Note_On_67_Vel_52
Time_Shift_21
Note_On_57_Vel_0
Time_Shift_1
Note_On_59_Vel_0
Time_Shift_4
Sustain_Off
Time_Shift_98
Sustain_On
Time_Shift_382
Note_On_53_Vel_62
Time_Shift_179
Note_On_71_Vel_0
Time_Shift_4
Note_On_83_Vel_50
Note_On_71_Vel_60
Time_Shift_11
Note_On_83_Vel_0
Time_Shift_192
Note_On_65_Vel_0
Time_Shift_4
Note_On_72_Vel_61
Time_Shift_4
Note_On_69_Vel_0
Time_Shift_3
Note_On_81_Vel_53
Time_Shift_7
Note_On_69_Vel_53
Time_Shift_1
Note_On_64_Vel_55
Time_Shift_1
Note_On_52_Vel_60
Time_Shift_11
Note_On_60_Vel_53
Time_Shift_22
Note_On_55_Vel_0
Note_On_53_Vel_0
Time_Shift_3
Note_On_71_Vel_0
Time_Shift_2
Sustain_Off
Time_Shift_11
Note_On_67_Vel_0
Time_Shift_8
Note_On_62_Vel_0
Time_Shift_92
Sustain_On
Time_Shift_8
Note_On_81_Vel_0
Time_Shift_566
Note_On_50_Vel_67
Time_Shift_2
Note_On_72_Vel_0
Time_Shift_4
Note_On_72_Vel_58
Time_Shift_4
Note_On_69_Vel_0
Time_Shift_11
Note_On_69_Vel_49
Time_Shift_242
Note_On_72_Vel_0
Time_Shift_6
Note_On_48_Vel_65
Time_Shift_2
Note_On_60_Vel_0
Time_Shift_4
Note_On_72_Vel_62
Time_Shift_3
Note_On_64_Vel_0
Time_Shift_1
Note_On_60_Vel_58
Time_Shift_4
Note_On_64_Vel_55
Time_Shift_18
Sustain_Off
Time_Shift_1
Note_On_52_Vel_0
Note_On_50_Vel_0
Time_Shift_76
Sustain_On
Time_Shift_143
Note_On_50_Vel_65
Time_Shift_165
Note_On_48_Vel_0
Time_Shift_8
Note_On_48_Vel_58
Time_Shift_10
Sustain_Off
Time_Shift_12
Sustain_On
Time_Shift_131
Note_On_47_Vel_60
Time_Shift_37
Sustain_Off
Time_Shift_11
Note_On_48_Vel_0
Time_Shift_13
Note_On_50_Vel_0
Time_Shift_69
Sustain_On
Time_Shift_254
Note_On_64_Vel_0
Time_Shift_2
Note_On_45_Vel_57
Time_Shift_5
Note_On_64_Vel_43
Time_Shift_430
Note_On_43_Vel_48
Time_Shift_4
Note_On_67_Vel_39
Time_Shift_1
Note_On_65_Vel_36
Time_Shift_11
Note_On_65_Vel_0
Time_Shift_41
Note_On_47_Vel_0
Time_Shift_1
Sustain_Off
Note_On_45_Vel_0
Time_Shift_4
Note_On_69_Vel_0
Time_Shift_92
Sustain_On
Time_Shift_615
Note_On_64_Vel_0
Note_On_72_Vel_0
Time_Shift_11
Note_On_72_Vel_61
Sustain_Off
Time_Shift_5
Note_On_53_Vel_42
Time_Shift_2
Note_On_41_Vel_43
Time_Shift_2
Note_On_43_Vel_0
Time_Shift_3
Note_On_53_Vel_0
Note_On_60_Vel_0
Time_Shift_5
Note_On_69_Vel_55
Time_Shift_2
Note_On_63_Vel_48
Note_On_67_Vel_0
Time_Shift_2
Note_On_60_Vel_39
Time_Shift_14
Sustain_On
Time_Shift_176
Note_On_72_Vel_0
Time_Shift_8
Note_On_72_Vel_60
Time_Shift_15
Note_On_69_Vel_0
Note_On_40_Vel_42
Time_Shift_5
Note_On_69_Vel_61
Time_Shift_22
Note_On_64_Vel_57
Time_Shift_1
Sustain_Off
Time_Shift_12
Note_On_63_Vel_0
Time_Shift_2
Note_On_41_Vel_0
Time_Shift_74
Sustain_On
Time_Shift_768
Note_On_60_Vel_0
Time_Shift_46
Note_On_71_Vel_56
Time_Shift_13
Note_On_68_Vel_49
Time_Shift_2
Note_On_64_Vel_0
Time_Shift_4
Note_On_62_Vel_40
Time_Shift_3
Note_On_64_Vel_42
Time_Shift_5
Note_On_28_Vel_34
Time_Shift_39
Sustain_Off
Time_Shift_2
Note_On_40_Vel_0
Time_Shift_16
Note_On_69_Vel_0
Note_On_72_Vel_0
Time_Shift_92
Sustain_On
Time_Shift_722
Note_On_28_Vel_0
Time_Shift_59
Note_On_33_Vel_34
Time_Shift_4
Note_On_45_Vel_39
Time_Shift_2
Note_On_69_Vel_53
Time_Shift_20
Note_On_64_Vel_0
Time_Shift_9
Note_On_64_Vel_34
Time_Shift_3
Note_On_60_Vel_35
Time_Shift_55
Note_On_62_Vel_0
Time_Shift_1
Note_On_68_Vel_0
Note_On_71_Vel_0
Time_Shift_3
Sustain_Off
Time_Shift_121
Sustain_On
Time_Shift_660
Note_On_45_Vel_0
Time_Shift_5
Note_On_45_Vel_39
Time_Shift_82
Sustain_Off
Time_Shift_51
Sustain_On
Time_Shift_745
Note_On_69_Vel_0
Time_Shift_7
Note_On_57_Vel_40
Time_Shift_2
Note_On_69_Vel_38
Time_Shift_80
Sustain_Off
Time_Shift_73
Sustain_On
Time_Shift_15
Note_On_33_Vel_0
Time_Shift_84
Note_On_64_Vel_0
Time_Shift_401
Note_On_48_Vel_41
Time_Shift_144
Note_On_57_Vel_0
Time_Shift_1
Note_On_45_Vel_0
Time_Shift_4
Sustain_Off
Time_Shift_34
Sustain_On
Time_Shift_46
Note_On_60_Vel_0
Time_Shift_290
Note_On_60_Vel_48
Time_Shift_5
Note_On_67_Vel_46
Time_Shift_15
Note_On_64_Vel_46
Time_Shift_174
Sustain_Off
Time_Shift_85
Sustain_On
Time_Shift_525
Note_On_59_Vel_61
Time_Shift_36
Note_On_72_Vel_58
Time_Shift_38
Note_On_69_Vel_0
Time_Shift_215
Note_On_48_Vel_0
Time_Shift_34
Note_On_57_Vel_60
Time_Shift_12
Note_On_72_Vel_0
Time_Shift_7
Note_On_72_Vel_53
Time_Shift_8
Note_On_69_Vel_51
Time_Shift_9
Note_On_65_Vel_44
Time_Shift_35
Note_On_67_Vel_0
Note_On_64_Vel_0
Time_Shift_1
Note_On_60_Vel_0
Time_Shift_1
Note_On_59_Vel_0
Time_Shift_4
Sustain_Off
Time_Shift_73
Sustain_On
Time_Shift_172
Note_On_59_Vel_64
Time_Shift_174
Note_On_57_Vel_0
Time_Shift_4
Note_On_57_Vel_64
Time_Shift_164
Note_On_55_Vel_65
Time_Shift_35
Note_On_57_Vel_0
Time_Shift_1
Note_On_59_Vel_0
Time_Shift_8
Sustain_Off
Time_Shift_79
Sustain_On
Time_Shift_338
Note_On_53_Vel_68
Time_Shift_178
Note_On_74_Vel_77
Time_Shift_179
Note_On_76_Vel_76
Time_Shift_8
Note_On_52_Vel_63
Time_Shift_1
Note_On_64_Vel_60
Time_Shift_3
Note_On_67_Vel_60
Time_Shift_23
Note_On_53_Vel_0
Note_On_55_Vel_0
Time_Shift_2
Sustain_Off
Note_On_74_Vel_0
Time_Shift_6
Note_On_72_Vel_0
Time_Shift_7
Note_On_65_Vel_0
Time_Shift_8
Note_On_69_Vel_0
Time_Shift_54
Sustain_On
Time_Shift_576
Note_On_64_Vel_0
Time_Shift_77
Note_On_76_Vel_0
Time_Shift_11
Note_On_76_Vel_74
Note_On_68_Vel_73
Note_On_50_Vel_66
Time_Shift_6
Note_On_64_Vel_66
Time_Shift_198
Note_On_76_Vel_0
Time_Shift_7
Note_On_76_Vel_74
Time_Shift_3
Note_On_69_Vel_73
Time_Shift_5
Note_On_64_Vel_0
Time_Shift_1
Note_On_60_Vel_59
Time_Shift_2
Note_On_48_Vel_66
Time_Shift_1
Note_On_64_Vel_60
Time_Shift_4
Note_On_60_Vel_0
Time_Shift_34
Sustain_Off
Time_Shift_8
Note_On_68_Vel_0
Note_On_50_Vel_0
Time_Shift_1
Note_On_52_Vel_0
Time_Shift_194
Note_On_50_Vel_71
Time_Shift_124
Note_On_48_Vel_0
Time_Shift_51
Note_On_48_Vel_70
Time_Shift_7
Note_On_50_Vel_0
Time_Shift_162
Note_On_71_Vel_57
Time_Shift_1
Note_On_47_Vel_60
Time_Shift_86
Note_On_48_Vel_0
Time_Shift_15
Sustain_On
Time_Shift_338
Note_On_64_Vel_0
Time_Shift_3
Note_On_45_Vel_60
Note_On_72_Vel_59
Time_Shift_7
Note_On_64_Vel_47
Time_Shift_13
Note_On_47_Vel_0
Time_Shift_22
Sustain_Off
Time_Shift_17
Sustain_On
Time_Shift_499
Note_On_76_Vel_0
Time_Shift_6
Note_On_76_Vel_55
Time_Shift_1
Note_On_64_Vel_0
Note_On_71_Vel_0
Time_Shift_10
Note_On_43_Vel_50
Time_Shift_1
Note_On_71_Vel_50
Note_On_64_Vel_51
Time_Shift_61
Note_On_72_Vel_0
Time_Shift_1
Note_On_45_Vel_0
Time_Shift_1
Sustain_Off
Time_Shift_11
Note_On_69_Vel_0
Time_Shift_100
Sustain_On
Time_Shift_651
Note_On_42_Vel_49
Time_Shift_2
Note_On_71_Vel_0
Note_On_76_Vel_0
Time_Shift_5
Note_On_81_Vel_53
Time_Shift_1
Note_On_69_Vel_62
Time_Shift_1
Note_On_71_Vel_53
Note_On_76_Vel_62
Time_Shift_39
Note_On_67_Vel_0
Time_Shift_175
Note_On_40_Vel_46
Time_Shift_9
Note_On_71_Vel_0
Note_On_76_Vel_0
Time_Shift_4
Note_On_76_Vel_67
Time_Shift_2
Note_On_71_Vel_47
Time_Shift_7
Note_On_67_Vel_52
Time_Shift_27
Sustain_Off
Time_Shift_6
Note_On_64_Vel_0
Time_Shift_1
Note_On_69_Vel_0
Time_Shift_3
Note_On_43_Vel_0
Note_On_42_Vel_0
Time_Shift_27
Note_On_81_Vel_0
Time_Shift_53
Sustain_On
Time_Shift_798
Note_On_75_Vel_61
Time_Shift_9
Note_On_71_Vel_0
Time_Shift_1
Note_On_63_Vel_43
Time_Shift_2
Note_On_35_Vel_42
Time_Shift_4
Note_On_71_Vel_38
Time_Shift_6
Note_On_66_Vel_44
Time_Shift_75
Note_On_67_Vel_0
Time_Shift_1
Note_On_40_Vel_0
Sustain_Off
Time_Shift_18
Note_On_76_Vel_0
Time_Shift_108
Sustain_On
Time_Shift_906
Note_On_76_Vel_57
Time_Shift_22
Note_On_40_Vel_25
Note_On_28_Vel_34
Time_Shift_6
Note_On_68_Vel_49
Time_Shift_7
Note_On_64_Vel_41
Time_Shift_77
Note_On_75_Vel_0
Note_On_66_Vel_0
Time_Shift_2
Note_On_63_Vel_0
Sustain_Off
Time_Shift_1
Note_On_35_Vel_0
Time_Shift_100
Sustain_On
Time_Shift_661
Note_On_40_Vel_0
Time_Shift_5
Note_On_40_Vel_32
Time_Shift_912
Note_On_52_Vel_43
Time_Shift_85
Note_On_64_Vel_0
Time_Shift_1
Note_On_76_Vel_0
Time_Shift_1
Note_On_68_Vel_0
Time_Shift_2
Note_On_28_Vel_0
Time_Shift_15
Note_On_71_Vel_0
Sustain_Off
Time_Shift_85
Sustain_On
Time_Shift_515
Note_On_45_Vel_38
Time_Shift_591
Note_On_40_Vel_0
Time_Shift_85
Note_On_60_Vel_50
Time_Shift_39
Note_On_69_Vel_51
Time_Shift_2
Note_On_81_Vel_39
Time_Shift_23
Note_On_64_Vel_42
Time_Shift_1
Note_On_76_Vel_38
Time_Shift_4
Note_On_72_Vel_39
Time_Shift_784
Note_On_59_Vel_54
Time_Shift_9
Note_On_71_Vel_47
Time_Shift_5
Note_On_69_Vel_0
Note_On_81_Vel_0
Time_Shift_4
Note_On_69_Vel_44
Time_Shift_2
Note_On_81_Vel_39
Time_Shift_347
Note_On_81_Vel_0
Time_Shift_7
Note_On_57_Vel_56
Time_Shift_1
Note_On_69_Vel_0
Time_Shift_4
Note_On_81_Vel_51
Time_Shift_1
Note_On_69_Vel_52
Time_Shift_15
Note_On_77_Vel_42
Time_Shift_2
Note_On_74_Vel_34
Time_Shift_4
Note_On_65_Vel_41
Note_On_62_Vel_37
Time_Shift_51
Sustain_Off
Time_Shift_3
Note_On_64_Vel_0
Note_On_45_Vel_0
Note_On_72_Vel_0
Note_On_59_Vel_0
Note_On_76_Vel_0
Time_Shift_1
Note_On_60_Vel_0
Time_Shift_19
Note_On_52_Vel_0
Note_On_71_Vel_0
Time_Shift_53
Sustain_On
Time_Shift_46
Note_On_81_Vel_0
Time_Shift_104
Note_On_59_Vel_54
Time_Shift_1
Note_On_71_Vel_44
Time_Shift_11
Note_On_71_Vel_0
Time_Shift_53
Note_On_77_Vel_0
Time_Shift_100
Note_On_57_Vel_0
Time_Shift_8
Note_On_69_Vel_0
Time_Shift_4
Note_On_57_Vel_55
Time_Shift_1
Note_On_69_Vel_52
Time_Shift_173
Note_On_55_Vel_51
Time_Shift_3
Note_On_57_Vel_0
Sustain_Off
Note_On_59_Vel_0
Time_Shift_3
Note_On_74_Vel_0
Time_Shift_131
Sustain_On
Time_Shift_390
Note_On_53_Vel_49
Time_Shift_205
Note_On_71_Vel_57
Note_On_83_Vel_47
Time_Shift_12
Note_On_83_Vel_0
Time_Shift_15
Note_On_55_Vel_0
Time_Shift_180
Note_On_72_Vel_58
Time_Shift_23
Note_On_52_Vel_50
Note_On_64_Vel_45
Time_Shift_6
Note_On_60_Vel_41
Time_Shift_3
Note_On_53_Vel_0
Time_Shift_5
Note_On_71_Vel_0
Time_Shift_6
Sustain_Off
Time_Shift_15
Note_On_65_Vel_0
Time_Shift_23
Note_On_62_Vel_0
Time_Shift_54
Note_On_69_Vel_0
Time_Shift_46
Sustain_On
Time_Shift_611
Note_On_50_Vel_54
Time_Shift_3
Note_On_72_Vel_0
Time_Shift_7
Note_On_72_Vel_50
Time_Shift_293
Note_On_72_Vel_0
Time_Shift_10
Note_On_72_Vel_54
Time_Shift_5
Note_On_60_Vel_0
Time_Shift_1
Note_On_48_Vel_54
Time_Shift_7
Note_On_64_Vel_0
Time_Shift_2
Note_On_60_Vel_47
Time_Shift_2
Note_On_64_Vel_44
Time_Shift_82
Sustain_Off
Time_Shift_6
Sustain_On
Time_Shift_108
Note_On_52_Vel_0
Time_Shift_30
Note_On_50_Vel_0
Time_Shift_10
Note_On_50_Vel_54
Time_Shift_167
Note_On_48_Vel_0
Time_Shift_10
Note_On_48_Vel_52
Time_Shift_180
Note_On_47_Vel_48
Time_Shift_535
Note_On_45_Vel_46
Time_Shift_74
Sustain_Off
Time_Shift_92
Sustain_On
Time_Shift_330
Note_On_47_Vel_0
Time_Shift_102
Note_On_43_Vel_31
Time_Shift_89
Sustain_Off
Time_Shift_2
Note_On_45_Vel_0
Time_Shift_7
Note_On_50_Vel_0
Time_Shift_84
Sustain_On
Time_Shift_899
Note_On_72_Vel_0
Time_Shift_3
Note_On_41_Vel_36
Time_Shift_1
Note_On_72_Vel_52
Note_On_63_Vel_44
Time_Shift_10
Note_On_69_Vel_44
Note_On_43_Vel_0
Time_Shift_262
Note_On_72_Vel_0
Time_Shift_11
Note_On_72_Vel_48
Time_Shift_12
Note_On_64_Vel_0
Time_Shift_8
Note_On_69_Vel_0
Note_On_40_Vel_32
Note_On_64_Vel_49
Time_Shift_4
Note_On_69_Vel_42
Time_Shift_58
Sustain_Off
Time_Shift_3
Note_On_41_Vel_0
Note_On_63_Vel_0
Time_Shift_50
Note_On_48_Vel_0
Time_Shift_46
Sustain_On
Time_Shift_200
Note_On_60_Vel_0
Time_Shift_814
Note_On_40_Vel_0
Time_Shift_3
Note_On_68_Vel_39
Time_Shift_1
Note_On_71_Vel_41
Note_On_28_Vel_28
Time_Shift_3
Note_On_40_Vel_20
Time_Shift_1
Note_On_64_Vel_0
Time_Shift_4
Note_On_62_Vel_24
Time_Shift_2
Note_On_64_Vel_28
Time_Shift_86
Sustain_Off
Time_Shift_7
Note_On_69_Vel_0
Time_Shift_16
Note_On_72_Vel_0
Time_Shift_77
Sustain_On
Time_Shift_1220
Note_On_45_Vel_31
Time_Shift_2
Note_On_33_Vel_29
Time_Shift_10
Note_On_69_Vel_47
Time_Shift_96
Note_On_28_Vel_0
Time_Shift_10
Note_On_68_Vel_0
Note_On_71_Vel_0
Time_Shift_6
Note_On_62_Vel_0
Time_Shift_1
Sustain_Off
Time_Shift_29
Note_On_40_Vel_0
Time_Shift_46
Sustain_On
Time_Shift_93
Note_On_64_Vel_0
Time_Shift_1070
Note_On_64_Vel_40
Time_Shift_12
Note_On_33_Vel_0
Note_On_45_Vel_0
Time_Shift_11
Note_On_45_Vel_33
Time_Shift_1
Note_On_33_Vel_32
Note_On_52_Vel_32
Note_On_60_Vel_37
Time_Shift_3237
Note_On_69_Vel_0
Time_Shift_999
Note_On_33_Vel_0
Note_On_45_Vel_0
Note_On_52_Vel_0
Note_On_60_Vel_0
Note_On_64_Vel_0
Time_Shift_2461
Sustain_Off
