Time_Shift_337
Note_On_67_Vel_74
Time_Shift_4
Note_On_55_Vel_67
Note_On_64_Vel_70
Time_Shift_3
Note_On_48_Vel_71
Time_Shift_4
Note_On_60_Vel_70
Time_Shift_30
Note_On_48_Vel_0
Time_Shift_1
Note_On_64_Vel_0
Note_On_55_Vel_0
Time_Shift_2
Note_On_60_Vel_0
Time_Shift_148
Sustain_On
Time_Shift_64
Sustain_Off
Time_Shift_9
Note_On_71_Vel_78
Time_Shift_40
Note_On_64_Vel_75
Time_Shift_5
Note_On_72_Vel_87
Time_Shift_2
Note_On_60_Vel_79
Note_On_55_Vel_70
Time_Shift_6
Note_On_48_Vel_73
Time_Shift_21
Note_On_71_Vel_0
Time_Shift_13
Note_On_55_Vel_0
Time_Shift_17
Note_On_67_Vel_0
Time_Shift_8
Sustain_On
Time_Shift_201
Note_On_72_Vel_0
Time_Shift_2
Sustain_Off
Time_Shift_4
Note_On_64_Vel_0
Time_Shift_9
Note_On_69_Vel_83
Time_Shift_5
Note_On_63_Vel_81
Time_Shift_1
Note_On_60_Vel_0
Time_Shift_5
Note_On_60_Vel_72
Time_Shift_3
Note_On_48_Vel_0
Time_Shift_2
Note_On_71_Vel_82
Time_Shift_5
Note_On_54_Vel_73
Time_Shift_2
Note_On_48_Vel_69
Time_Shift_20
Note_On_60_Vel_0
Time_Shift_6
Note_On_63_Vel_0
Time_Shift_3
Note_On_54_Vel_0
Time_Shift_24
Sustain_On
Time_Shift_61
Note_On_69_Vel_0
Time_Shift_23
Note_On_71_Vel_0
Time_Shift_10
Note_On_71_Vel_62
Time_Shift_105
Note_On_71_Vel_0
Time_Shift_6
Note_On_71_Vel_79
Time_Shift_2
Note_On_48_Vel_0
Note_On_69_Vel_80
Time_Shift_28
Sustain_Off
Time_Shift_15
Note_On_67_Vel_85
Note_On_60_Vel_80
Time_Shift_2
Note_On_64_Vel_77
Time_Shift_2
Note_On_55_Vel_71
Time_Shift_4
Note_On_48_Vel_81
Time_Shift_6
Note_On_69_Vel_0
Time_Shift_20
Note_On_71_Vel_0
Note_On_60_Vel_0
Time_Shift_1
Note_On_55_Vel_0
Time_Shift_15
Note_On_48_Vel_0
Time_Shift_22
Note_On_64_Vel_0
Note_On_67_Vel_0
Time_Shift_31
Sustain_On
Time_Shift_300
Note_On_36_Vel_93
Time_Shift_1
Sustain_Off
Time_Shift_1
Note_On_72_Vel_91
Time_Shift_1
Note_On_43_Vel_71
Time_Shift_8
Note_On_64_Vel_68
Time_Shift_234
Sustain_On
Time_Shift_177
Note_On_36_Vel_0
Time_Shift_4
Note_On_36_Vel_86
Time_Shift_6
Note_On_48_Vel_81
Time_Shift_1
Note_On_60_Vel_64
Time_Shift_288
Note_On_36_Vel_0
Note_On_43_Vel_0
Time_Shift_8
Note_On_48_Vel_0
Note_On_64_Vel_0
Time_Shift_3
Note_On_67_Vel_85
Time_Shift_1
Note_On_43_Vel_69
Note_On_36_Vel_89
Note_On_55_Vel_75
Note_On_48_Vel_87
Time_Shift_1
Note_On_64_Vel_76
Time_Shift_10
Note_On_55_Vel_0
Time_Shift_223
Note_On_71_Vel_79
Time_Shift_38
Note_On_60_Vel_0
Note_On_64_Vel_0
Note_On_72_Vel_0
Time_Shift_4
Note_On_72_Vel_96
Time_Shift_1
Note_On_64_Vel_82
Time_Shift_3
Note_On_36_Vel_0
Note_On_48_Vel_0
Time_Shift_3
Note_On_60_Vel_85
Time_Shift_2
Note_On_36_Vel_85
Time_Shift_2
Note_On_48_Vel_83
Time_Shift_119
Note_On_74_Vel_94
Time_Shift_135
Note_On_60_Vel_0
Note_On_64_Vel_0
Time_Shift_7
Note_On_76_Vel_98
Time_Shift_1
Note_On_48_Vel_0
Time_Shift_1
Note_On_64_Vel_89
Time_Shift_2
Note_On_60_Vel_83
Time_Shift_4
Note_On_48_Vel_82
Time_Shift_1
Note_On_55_Vel_69
Time_Shift_99
Note_On_72_Vel_0
Time_Shift_12
Note_On_72_Vel_100
Time_Shift_119
Note_On_76_Vel_0
Time_Shift_8
Note_On_55_Vel_0
Note_On_60_Vel_0
Note_On_64_Vel_0
Note_On_67_Vel_0
Time_Shift_3
Note_On_76_Vel_96
Time_Shift_2
Note_On_64_Vel_78
Time_Shift_1
Note_On_67_Vel_82
Time_Shift_1
Note_On_48_Vel_0
Time_Shift_3
Note_On_55_Vel_73
Time_Shift_1
Note_On_60_Vel_70
Time_Shift_7
Note_On_48_Vel_79
Time_Shift_105
Note_On_67_Vel_0
Time_Shift_4
Note_On_78_Vel_95
Time_Shift_5
Note_On_69_Vel_72
Note_On_67_Vel_82
Time_Shift_60
Note_On_48_Vel_0
Note_On_55_Vel_0
Time_Shift_6
Note_On_55_Vel_71
Time_Shift_4
Note_On_48_Vel_71
Time_Shift_20
Note_On_43_Vel_0
Time_Shift_20
Note_On_71_Vel_0
Time_Shift_2
Note_On_69_Vel_0
Time_Shift_1
Note_On_74_Vel_0
Time_Shift_4
Note_On_78_Vel_0
Sustain_Off
Time_Shift_4
Note_On_36_Vel_0
Note_On_60_Vel_0
Note_On_72_Vel_0
Note_On_76_Vel_0
Time_Shift_15
Note_On_79_Vel_99
Time_Shift_1
Note_On_67_Vel_0
Time_Shift_4
Note_On_67_Vel_84
Time_Shift_3
Note_On_64_Vel_0
Time_Shift_7
Note_On_64_Vel_75
Time_Shift_62
Sustain_On
Time_Shift_215
Note_On_55_Vel_0
Note_On_64_Vel_0
Note_On_67_Vel_0
Time_Shift_6
Note_On_64_Vel_79
Time_Shift_2
Note_On_48_Vel_0
Time_Shift_3
Note_On_55_Vel_75
Note_On_67_Vel_76
Time_Shift_2
Note_On_60_Vel_64
Note_On_48_Vel_69
Time_Shift_10
Note_On_60_Vel_0
Time_Shift_185
Note_On_48_Vel_0
Time_Shift_8
Note_On_48_Vel_74
Time_Shift_15
Note_On_64_Vel_0
Time_Shift_11
Note_On_64_Vel_55
Time_Shift_2
Note_On_52_Vel_43
Time_Shift_2
Note_On_55_Vel_0
Time_Shift_4
Note_On_60_Vel_45
Time_Shift_1
Note_On_55_Vel_47
Time_Shift_3
Note_On_52_Vel_0
Time_Shift_27
Sustain_Off
Time_Shift_4
Note_On_67_Vel_0
Note_On_79_Vel_0
Time_Shift_4
Note_On_67_Vel_74
Note_On_79_Vel_94
Time_Shift_19
Sustain_On
Time_Shift_177
Note_On_78_Vel_77
Time_Shift_22
Note_On_48_Vel_0
Time_Shift_4
Note_On_48_Vel_73
Time_Shift_27
Note_On_55_Vel_0
Time_Shift_3
Note_On_76_Vel_82
Time_Shift_5
Note_On_67_Vel_0
Time_Shift_1
Note_On_55_Vel_62
Time_Shift_3
Note_On_67_Vel_65
Time_Shift_3
Note_On_64_Vel_0
Time_Shift_5
Note_On_79_Vel_0
Time_Shift_3
Note_On_64_Vel_66
Time_Shift_2
Sustain_Off
Time_Shift_1
Note_On_78_Vel_0
Time_Shift_12
Note_On_60_Vel_0
Time_Shift_62
Sustain_On
Time_Shift_64
Note_On_78_Vel_90
Time_Shift_66
Note_On_48_Vel_0
Time_Shift_10
Note_On_48_Vel_75
Time_Shift_47
Sustain_Off
Time_Shift_1
Note_On_74_Vel_89
Time_Shift_12
Note_On_78_Vel_0
Note_On_64_Vel_0
Time_Shift_1
Note_On_76_Vel_0
Time_Shift_7
Note_On_66_Vel_75
Time_Shift_2
Note_On_57_Vel_76
Time_Shift_2
Note_On_62_Vel_80
Time_Shift_3
Note_On_55_Vel_0
Time_Shift_23
Note_On_67_Vel_0
Time_Shift_15
Sustain_On
Time_Shift_79
Note_On_78_Vel_90
Time_Shift_13
Note_On_48_Vel_0
Time_Shift_56
Note_On_48_Vel_77
Time_Shift_23
Note_On_55_Vel_57
Time_Shift_48
Note_On_74_Vel_0
Sustain_Off
Time_Shift_1
Note_On_66_Vel_0
Time_Shift_1
Note_On_78_Vel_0
Time_Shift_10
Note_On_62_Vel_0
Time_Shift_7
Note_On_57_Vel_0
Time_Shift_28
Note_On_79_Vel_96
Time_Shift_1
Note_On_64_Vel_75
Time_Shift_4
Note_On_67_Vel_78
Time_Shift_6
Sustain_On
Time_Shift_162
Note_On_81_Vel_74
Note_On_69_Vel_83
Time_Shift_183
Note_On_67_Vel_0
Time_Shift_6
Note_On_67_Vel_81
Note_On_50_Vel_75
Time_Shift_2
Note_On_79_Vel_0
Note_On_46_Vel_86
Note_On_48_Vel_0
Sustain_Off
Time_Shift_2
Note_On_69_Vel_0
Time_Shift_6
Note_On_64_Vel_0
Time_Shift_4
Note_On_64_Vel_62
Time_Shift_3
Note_On_55_Vel_0
Time_Shift_77
Note_On_64_Vel_0
Sustain_On
Time_Shift_82
Note_On_80_Vel_96
Time_Shift_64
Note_On_81_Vel_0
Time_Shift_159
Note_On_81_Vel_90
Time_Shift_5
Note_On_73_Vel_79
Time_Shift_13
Note_On_67_Vel_0
Time_Shift_4
Note_On_52_Vel_65
Note_On_45_Vel_69
Time_Shift_1
Note_On_80_Vel_0
Note_On_46_Vel_0
Time_Shift_1
Sustain_Off
Note_On_50_Vel_0
Time_Shift_4
Note_On_67_Vel_57
Time_Shift_97
Sustain_On
Time_Shift_120
Note_On_79_Vel_92
Time_Shift_217
Note_On_52_Vel_0
Time_Shift_3
Note_On_73_Vel_0
Time_Shift_1
Note_On_67_Vel_0
Note_On_81_Vel_0
Time_Shift_2
Sustain_Off
Time_Shift_3
Note_On_45_Vel_0
Note_On_79_Vel_0
Time_Shift_9
Note_On_79_Vel_74
Time_Shift_2
Note_On_38_Vel_68
Time_Shift_2
Note_On_74_Vel_48
Time_Shift_6
Note_On_69_Vel_48
Time_Shift_4
Note_On_69_Vel_0
Time_Shift_77
Sustain_On
Time_Shift_110
Note_On_78_Vel_83
Time_Shift_151
Note_On_74_Vel_0
Time_Shift_6
Note_On_74_Vel_75
Time_Shift_3
Note_On_62_Vel_69
Time_Shift_7
Sustain_Off
Note_On_72_Vel_73
Time_Shift_6
Note_On_50_Vel_54
Time_Shift_5
Note_On_57_Vel_56
Note_On_38_Vel_0
Time_Shift_1
Note_On_79_Vel_0
Time_Shift_2
Note_On_78_Vel_0
Time_Shift_93
Sustain_On
Time_Shift_76
Note_On_50_Vel_0
Time_Shift_116
Note_On_57_Vel_0
Time_Shift_87
Sustain_Off
Note_On_74_Vel_0
Time_Shift_5
Note_On_62_Vel_0
Time_Shift_8
Note_On_72_Vel_0
Time_Shift_10
Note_On_72_Vel_63
Time_Shift_1
Note_On_78_Vel_65
Time_Shift_11
Note_On_62_Vel_47
Time_Shift_11
Note_On_50_Vel_51
Time_Shift_2
Note_On_57_Vel_46
Time_Shift_64
Sustain_On
Time_Shift_232
Sustain_Off
Note_On_72_Vel_0
Note_On_57_Vel_0
Time_Shift_1
Note_On_78_Vel_0
Time_Shift_1
Note_On_50_Vel_0
Time_Shift_20
Note_On_62_Vel_0
Time_Shift_26
Note_On_79_Vel_70
Time_Shift_3
Note_On_43_Vel_49
Time_Shift_10
Note_On_71_Vel_43
Time_Shift_20
Note_On_67_Vel_21
Time_Shift_33
Sustain_On
Time_Shift_81
Note_On_74_Vel_62
Time_Shift_4
Note_On_72_Vel_64
Time_Shift_120
Sustain_Off
Time_Shift_4
Note_On_71_Vel_0
Time_Shift_1
Note_On_72_Vel_0
Time_Shift_1
Note_On_79_Vel_0
Time_Shift_12
Note_On_43_Vel_0
Note_On_74_Vel_0
Time_Shift_10
Note_On_74_Vel_60
Time_Shift_22
Note_On_71_Vel_59
Time_Shift_3
Note_On_55_Vel_40
Note_On_62_Vel_49
Time_Shift_80
Sustain_On
Time_Shift_8
Note_On_67_Vel_0
Time_Shift_15
Note_On_55_Vel_0
Time_Shift_269
Sustain_Off
Time_Shift_1
Note_On_71_Vel_0
Time_Shift_2
Note_On_74_Vel_0
Time_Shift_4
Note_On_62_Vel_0
Time_Shift_32
Note_On_79_Vel_63
Time_Shift_3
Note_On_62_Vel_48
Note_On_70_Vel_52
Time_Shift_1
Note_On_74_Vel_49
Time_Shift_5
Note_On_55_Vel_42
Time_Shift_67
Sustain_On
Time_Shift_78
Note_On_77_Vel_68
Time_Shift_124
Note_On_79_Vel_0
Note_On_62_Vel_0
Time_Shift_1
Note_On_55_Vel_0
Note_On_77_Vel_0
Time_Shift_1
Sustain_Off
Note_On_70_Vel_0
Time_Shift_11
Note_On_74_Vel_0
Time_Shift_108
Note_On_76_Vel_67
Time_Shift_2
Note_On_62_Vel_50
Time_Shift_8
Note_On_55_Vel_39
Time_Shift_1
Note_On_70_Vel_51
Time_Shift_40
Note_On_76_Vel_0
Time_Shift_25
Note_On_77_Vel_64
Time_Shift_65
Note_On_76_Vel_69
Time_Shift_1
Note_On_77_Vel_0
Time_Shift_72
Note_On_76_Vel_0
Time_Shift_4
Note_On_75_Vel_78
Note_On_62_Vel_0
Time_Shift_20
Note_On_70_Vel_0
Time_Shift_13
Note_On_69_Vel_59
Time_Shift_2
Note_On_55_Vel_0
Time_Shift_6
Note_On_67_Vel_42
Time_Shift_5
Note_On_57_Vel_60
Time_Shift_2
Note_On_61_Vel_52
Time_Shift_2
Note_On_67_Vel_0
Time_Shift_40
Note_On_69_Vel_0
Time_Shift_9
Note_On_57_Vel_0
Time_Shift_1
Note_On_61_Vel_0
Time_Shift_65
Note_On_75_Vel_0
Time_Shift_2
Note_On_76_Vel_68
Time_Shift_73
Note_On_76_Vel_0
Time_Shift_92
Note_On_79_Vel_72
Time_Shift_6
Note_On_67_Vel_56
Time_Shift_14
Note_On_57_Vel_56
Time_Shift_1
Note_On_61_Vel_56
Time_Shift_28
Note_On_67_Vel_0
Time_Shift_6
Note_On_57_Vel_0
Time_Shift_4
Note_On_61_Vel_0
Time_Shift_59
Note_On_79_Vel_0
Time_Shift_15
Note_On_77_Vel_77
Time_Shift_28
Note_On_77_Vel_0
Time_Shift_136
Note_On_76_Vel_70
Time_Shift_9
Note_On_65_Vel_55
Time_Shift_7
Note_On_50_Vel_57
Time_Shift_1
Note_On_62_Vel_45
Time_Shift_49
Sustain_On
Time_Shift_180
Note_On_69_Vel_66
Time_Shift_12
Sustain_Off
Time_Shift_4
Note_On_76_Vel_0
Note_On_50_Vel_0
Note_On_62_Vel_0
Note_On_65_Vel_0
Time_Shift_10
Note_On_69_Vel_0
Time_Shift_52
Note_On_74_Vel_72
Time_Shift_2
Note_On_62_Vel_51
Time_Shift_10
Note_On_57_Vel_56
Time_Shift_6
Note_On_65_Vel_46
Time_Shift_239
Note_On_65_Vel_0
Time_Shift_3
Note_On_57_Vel_0
Time_Shift_5
Note_On_62_Vel_0
Time_Shift_15
Note_On_74_Vel_0
Time_Shift_51
Note_On_44_Vel_71
Time_Shift_2
Note_On_62_Vel_59
Time_Shift_4
Note_On_65_Vel_54
Time_Shift_74
Sustain_On
Time_Shift_70
Note_On_72_Vel_71
Time_Shift_84
Note_On_62_Vel_0
Time_Shift_3
Note_On_44_Vel_0
Time_Shift_6
Sustain_Off
Time_Shift_1
Note_On_72_Vel_0
Time_Shift_5
Note_On_65_Vel_0
Time_Shift_65
Note_On_43_Vel_74
Time_Shift_22
Note_On_71_Vel_60
Time_Shift_3
Note_On_62_Vel_42
Time_Shift_6
Note_On_65_Vel_50
Note_On_43_Vel_0
Time_Shift_3
Note_On_62_Vel_0
Time_Shift_59
Note_On_72_Vel_76
Time_Shift_10
Note_On_65_Vel_0
Note_On_71_Vel_0
Time_Shift_59
Note_On_71_Vel_66
Time_Shift_13
Note_On_72_Vel_0
Time_Shift_62
Note_On_71_Vel_0
Note_On_70_Vel_77
Time_Shift_6
Note_On_65_Vel_67
Time_Shift_7
Note_On_62_Vel_63
Time_Shift_5
Note_On_55_Vel_59
Time_Shift_22
Note_On_65_Vel_0
Time_Shift_1
Note_On_62_Vel_0
Time_Shift_6
Note_On_70_Vel_0
Time_Shift_1
Note_On_55_Vel_0
Time_Shift_107
Note_On_71_Vel_61
Time_Shift_49
Note_On_71_Vel_0
Time_Shift_119
Note_On_62_Vel_62
Time_Shift_1
Note_On_72_Vel_73
Note_On_55_Vel_58
Time_Shift_2
Note_On_65_Vel_62
Time_Shift_5
Note_On_67_Vel_54
Time_Shift_23
Note_On_62_Vel_0
Time_Shift_1
Note_On_55_Vel_0
Note_On_65_Vel_0
Time_Shift_1
Note_On_72_Vel_0
Time_Shift_3
Note_On_67_Vel_0
Time_Shift_88
Note_On_74_Vel_73
Time_Shift_32
Note_On_74_Vel_0
Time_Shift_127
Note_On_67_Vel_70
Time_Shift_12
Note_On_48_Vel_64
Time_Shift_2
Note_On_64_Vel_57
Time_Shift_7
Note_On_60_Vel_46
Time_Shift_18
Note_On_67_Vel_0
Time_Shift_3
Note_On_64_Vel_0
Time_Shift_13
Note_On_48_Vel_0
Time_Shift_27
Note_On_60_Vel_0
Time_Shift_189
Note_On_71_Vel_61
Time_Shift_36
Note_On_64_Vel_65
Time_Shift_1
Note_On_72_Vel_82
Time_Shift_7
Note_On_55_Vel_47
Time_Shift_4
Note_On_60_Vel_51
Time_Shift_4
Note_On_71_Vel_0
Time_Shift_19
Note_On_64_Vel_0
Time_Shift_13
Note_On_55_Vel_0
Time_Shift_27
Note_On_60_Vel_0
Time_Shift_7
Sustain_On
Time_Shift_236
Note_On_72_Vel_0
Time_Shift_5
Sustain_Off
Time_Shift_7
Note_On_67_Vel_63
Time_Shift_9
Note_On_64_Vel_47
Time_Shift_5
Note_On_46_Vel_66
Time_Shift_9
Note_On_58_Vel_51
Time_Shift_6
Note_On_58_Vel_0
Time_Shift_38
Sustain_On
Time_Shift_75
Note_On_74_Vel_80
Time_Shift_112
Note_On_67_Vel_0
Note_On_74_Vel_0
Time_Shift_1
Note_On_46_Vel_0
Time_Shift_6
Sustain_Off
Time_Shift_6
Note_On_64_Vel_0
Time_Shift_33
Note_On_45_Vel_77
Time_Shift_17
Note_On_74_Vel_66
Time_Shift_1
Note_On_67_Vel_58
Note_On_76_Vel_77
Time_Shift_23
Note_On_45_Vel_0
Time_Shift_10
Sustain_On
Time_Shift_48
Note_On_77_Vel_83
Time_Shift_68
Note_On_76_Vel_0
Time_Shift_9
Note_On_76_Vel_79
Time_Shift_61
Note_On_75_Vel_89
Time_Shift_22
Note_On_67_Vel_0
Time_Shift_3
Note_On_64_Vel_69
Time_Shift_1
Note_On_73_Vel_74
Note_On_67_Vel_61
Note_On_74_Vel_0
Time_Shift_1
Note_On_77_Vel_0
Time_Shift_2
Sustain_Off
Time_Shift_1
Note_On_57_Vel_61
Time_Shift_23
Note_On_76_Vel_0
Time_Shift_11
Note_On_64_Vel_0
Time_Shift_12
Note_On_67_Vel_0
Time_Shift_53
Note_On_57_Vel_0
Time_Shift_17
Note_On_76_Vel_85
Time_Shift_33
Note_On_75_Vel_0
Time_Shift_19
Note_On_73_Vel_0
Time_Shift_93
Note_On_76_Vel_0
Time_Shift_22
Note_On_79_Vel_85
Time_Shift_6
Note_On_67_Vel_60
Note_On_64_Vel_65
Time_Shift_5
Note_On_73_Vel_73
Time_Shift_2
Note_On_57_Vel_65
Time_Shift_26
Sustain_On
Time_Shift_82
Note_On_77_Vel_91
Time_Shift_144
Note_On_73_Vel_0
Note_On_64_Vel_0
Time_Shift_1
Note_On_67_Vel_0
Note_On_57_Vel_0
Note_On_79_Vel_0
Note_On_77_Vel_0
Time_Shift_1
Sustain_Off
Time_Shift_20
Note_On_72_Vel_77
Time_Shift_1
Note_On_76_Vel_85
Time_Shift_1
Note_On_50_Vel_72
Time_Shift_4
Note_On_66_Vel_68
Time_Shift_61
Sustain_On
Time_Shift_203
Note_On_81_Vel_75
Note_On_69_Vel_79
Time_Shift_4
Note_On_81_Vel_0
Time_Shift_69
Note_On_66_Vel_0
Note_On_69_Vel_0
Time_Shift_5
Note_On_74_Vel_86
Time_Shift_3
Note_On_69_Vel_77
Time_Shift_2
Note_On_66_Vel_80
Time_Shift_1
Note_On_62_Vel_71
Time_Shift_3
Sustain_Off
Time_Shift_1
Note_On_50_Vel_0
Time_Shift_3
Note_On_72_Vel_0
Note_On_57_Vel_67
Note_On_76_Vel_0
Time_Shift_90
Sustain_On
Time_Shift_291
Note_On_57_Vel_0
Time_Shift_5
Sustain_Off
Note_On_44_Vel_75
Note_On_65_Vel_85
Time_Shift_1
Note_On_77_Vel_72
Time_Shift_3
Note_On_56_Vel_66
Time_Shift_7
Note_On_56_Vel_0
Note_On_62_Vel_0
Note_On_66_Vel_0
Note_On_77_Vel_0
Time_Shift_8
Note_On_69_Vel_0
Time_Shift_77
Sustain_On
Time_Shift_111
Note_On_72_Vel_93
Time_Shift_148
Note_On_65_Vel_0
Time_Shift_2
Note_On_44_Vel_0
Time_Shift_5
Sustain_Off
Time_Shift_18
Note_On_74_Vel_0
Time_Shift_24
Note_On_72_Vel_0
Time_Shift_2
Note_On_71_Vel_85
Note_On_31_Vel_74
Time_Shift_1
Note_On_43_Vel_80
Time_Shift_4
Note_On_31_Vel_0
Time_Shift_1
Note_On_65_Vel_69
Time_Shift_3
Note_On_62_Vel_59
Time_Shift_49
Sustain_On
Time_Shift_104
Note_On_81_Vel_90
Time_Shift_134
Note_On_43_Vel_0
Time_Shift_10
Sustain_Off
Time_Shift_2
Note_On_80_Vel_92
Time_Shift_4
Note_On_62_Vel_0
Note_On_65_Vel_0
Note_On_71_Vel_0
Time_Shift_1
Note_On_81_Vel_0
Time_Shift_4
Note_On_71_Vel_75
Note_On_65_Vel_67
Time_Shift_5
Note_On_62_Vel_73
Time_Shift_1
Note_On_55_Vel_52
Time_Shift_58
Sustain_On
Time_Shift_59
Note_On_79_Vel_97
Time_Shift_41
Note_On_65_Vel_0
Time_Shift_122
Sustain_Off
Time_Shift_1
Note_On_55_Vel_0
Note_On_62_Vel_0
Note_On_71_Vel_0
Time_Shift_1
Note_On_78_Vel_94
Time_Shift_3
Note_On_62_Vel_70
Note_On_79_Vel_0
Time_Shift_4
Note_On_65_Vel_68
Time_Shift_1
Note_On_55_Vel_63
Time_Shift_2
Note_On_71_Vel_75
Time_Shift_12
Note_On_80_Vel_0
Time_Shift_53
Note_On_78_Vel_0
Sustain_On
Time_Shift_59
Note_On_77_Vel_101
Time_Shift_209
Note_On_76_Vel_97
Time_Shift_3
Note_On_84_Vel_82
Time_Shift_1
Note_On_72_Vel_89
Time_Shift_1
Sustain_Off
Time_Shift_1
Note_On_60_Vel_81
Note_On_48_Vel_88
Time_Shift_3
Note_On_84_Vel_0
Time_Shift_1
Note_On_65_Vel_0
Time_Shift_1
Note_On_71_Vel_0
Note_On_62_Vel_0
Time_Shift_1
Note_On_77_Vel_0
Time_Shift_58
Sustain_On
Time_Shift_296
Note_On_74_Vel_87
Time_Shift_4
Note_On_67_Vel_76
Time_Shift_61
Note_On_60_Vel_0
Note_On_72_Vel_0
Time_Shift_4
Note_On_72_Vel_92
Time_Shift_9
Note_On_64_Vel_81
Time_Shift_3
Note_On_48_Vel_0
Note_On_55_Vel_0
Note_On_67_Vel_0
Time_Shift_4
Note_On_67_Vel_72
Time_Shift_1
Note_On_55_Vel_71
Time_Shift_1
Note_On_48_Vel_74
Time_Shift_1
Note_On_76_Vel_0
Time_Shift_2
Note_On_74_Vel_0
Time_Shift_3
Sustain_Off
Time_Shift_41
Sustain_On
Time_Shift_578
Note_On_55_Vel_0
Time_Shift_1
Note_On_48_Vel_0
Note_On_72_Vel_0
Time_Shift_2
Note_On_64_Vel_0
Time_Shift_3
Sustain_Off
Time_Shift_15
Note_On_67_Vel_0
Time_Shift_224
Note_On_38_Vel_96
Time_Shift_2
Note_On_50_Vel_83
Time_Shift_43
Sustain_On
Time_Shift_235
Note_On_72_Vel_96
Time_Shift_3
Note_On_50_Vel_0
Time_Shift_4
Note_On_66_Vel_84
Time_Shift_4
Note_On_38_Vel_0
Time_Shift_1
Note_On_62_Vel_75
Time_Shift_2
Note_On_50_Vel_84
Note_On_57_Vel_83
Time_Shift_1
Note_On_38_Vel_84
Time_Shift_30
Sustain_Off
Time_Shift_27
Sustain_On
Time_Shift_354
Note_On_72_Vel_0
Time_Shift_7
Note_On_50_Vel_0
Note_On_57_Vel_0
Time_Shift_4
Note_On_72_Vel_100
Time_Shift_4
Note_On_66_Vel_0
Time_Shift_2
Note_On_57_Vel_86
Time_Shift_2
Note_On_50_Vel_85
Note_On_66_Vel_84
Time_Shift_18
Sustain_Off
Time_Shift_78
Sustain_On
Time_Shift_253
Note_On_38_Vel_0
Note_On_50_Vel_0
Note_On_62_Vel_0
Note_On_66_Vel_0
Time_Shift_5
Note_On_71_Vel_86
Time_Shift_2
Note_On_66_Vel_77
Time_Shift_1
Note_On_38_Vel_72
Note_On_50_Vel_74
Time_Shift_1
Note_On_62_Vel_80
Time_Shift_11
Sustain_Off
Time_Shift_19
Note_On_57_Vel_0
Time_Shift_7
Note_On_72_Vel_0
Time_Shift_46
Note_On_38_Vel_0
Sustain_On
Time_Shift_61
Note_On_60_Vel_79
Time_Shift_2
Note_On_69_Vel_88
Time_Shift_179
Sustain_Off
Time_Shift_2
Note_On_60_Vel_0
Note_On_69_Vel_0
Time_Shift_10
Note_On_62_Vel_0
Note_On_66_Vel_0
Note_On_71_Vel_0
Time_Shift_4
Note_On_43_Vel_74
Time_Shift_2
Note_On_31_Vel_72
Time_Shift_1
Note_On_71_Vel_90
Time_Shift_3
Note_On_67_Vel_84
Note_On_62_Vel_81
Time_Shift_5
Note_On_31_Vel_0
Time_Shift_46
Note_On_50_Vel_0
Sustain_On
Time_Shift_223
Note_On_67_Vel_0
Note_On_71_Vel_0
Time_Shift_4
Note_On_71_Vel_75
Note_On_67_Vel_67
Note_On_79_Vel_83
Time_Shift_90
Sustain_Off
Time_Shift_6
Note_On_74_Vel_100
Note_On_71_Vel_0
Time_Shift_1
Note_On_83_Vel_100
Time_Shift_3
Note_On_78_Vel_78
Time_Shift_1
Note_On_71_Vel_84
Time_Shift_1
Note_On_50_Vel_68
Time_Shift_4
Note_On_59_Vel_77
Time_Shift_1
Note_On_67_Vel_0
Time_Shift_1
Note_On_79_Vel_0
Note_On_62_Vel_0
Time_Shift_3
Note_On_43_Vel_0
Time_Shift_69
Sustain_On
Time_Shift_304
Note_On_84_Vel_99
Time_Shift_2
Note_On_76_Vel_86
Time_Shift_2
Note_On_50_Vel_0
Note_On_72_Vel_88
Time_Shift_5
Sustain_Off
Time_Shift_2
Note_On_50_Vel_65
Time_Shift_12
Note_On_74_Vel_0
Time_Shift_50
Note_On_71_Vel_0
Time_Shift_15
Sustain_On
Time_Shift_215
Note_On_78_Vel_0
Time_Shift_5
Sustain_Off
Time_Shift_1
Note_On_84_Vel_0
Time_Shift_3
Note_On_72_Vel_0
Note_On_76_Vel_0
Time_Shift_6
Note_On_59_Vel_0
Time_Shift_8
Note_On_83_Vel_0
Time_Shift_4
Note_On_83_Vel_87
Time_Shift_1
Note_On_38_Vel_77
Time_Shift_4
Note_On_74_Vel_80
Time_Shift_3
Note_On_71_Vel_75
Time_Shift_19
Sustain_On
Time_Shift_124
Note_On_81_Vel_90
Time_Shift_2
Note_On_72_Vel_83
Time_Shift_1
Note_On_69_Vel_74
Time_Shift_119
Note_On_50_Vel_0
Time_Shift_15
Note_On_69_Vel_0
Note_On_81_Vel_0
Time_Shift_1
Note_On_74_Vel_0
Time_Shift_1
Note_On_38_Vel_0
Note_On_71_Vel_0
Note_On_83_Vel_0
Time_Shift_2
Sustain_Off
Time_Shift_2
Note_On_81_Vel_79
Time_Shift_2
Note_On_72_Vel_0
Time_Shift_3
Note_On_69_Vel_80
Time_Shift_5
Note_On_72_Vel_80
Time_Shift_3
Note_On_78_Vel_81
Time_Shift_1
Note_On_60_Vel_74
Time_Shift_7
Note_On_66_Vel_75
Note_On_57_Vel_77
Time_Shift_1
Note_On_50_Vel_77
Time_Shift_45
Note_On_57_Vel_0
Note_On_60_Vel_0
Time_Shift_1
Note_On_69_Vel_0
Note_On_66_Vel_0
Time_Shift_5
Note_On_50_Vel_0
Time_Shift_29
Sustain_On
Time_Shift_226
Note_On_83_Vel_90
Time_Shift_2
Note_On_74_Vel_85
Time_Shift_5
Note_On_57_Vel_76
Time_Shift_1
Note_On_60_Vel_74
Note_On_71_Vel_80
Note_On_50_Vel_75
Time_Shift_272
Note_On_81_Vel_0
Time_Shift_25
Note_On_57_Vel_0
Note_On_74_Vel_0
Note_On_71_Vel_0
Time_Shift_1
Note_On_83_Vel_0
Note_On_78_Vel_0
Note_On_60_Vel_0
Time_Shift_5
Note_On_72_Vel_0
Time_Shift_1
Sustain_Off
Time_Shift_2
Note_On_43_Vel_88
Time_Shift_2
Note_On_72_Vel_95
Note_On_81_Vel_95
Time_Shift_2
Note_On_69_Vel_90
Time_Shift_1
Note_On_55_Vel_80
Time_Shift_15
Note_On_50_Vel_0
Time_Shift_46
Sustain_On
Time_Shift_154
Note_On_69_Vel_0
Time_Shift_1
Note_On_81_Vel_0
Time_Shift_2
Note_On_72_Vel_0
Time_Shift_2
Sustain_Off
Time_Shift_8
Note_On_71_Vel_76
Time_Shift_1
Note_On_79_Vel_88
Time_Shift_2
Note_On_67_Vel_79
Time_Shift_15
Note_On_55_Vel_0
Time_Shift_7
Note_On_43_Vel_0
Time_Shift_4
Note_On_38_Vel_66
Time_Shift_2
Note_On_50_Vel_65
Time_Shift_2
Note_On_38_Vel_0
Time_Shift_3
Note_On_43_Vel_81
Time_Shift_2
Note_On_67_Vel_0
Time_Shift_10
Sustain_On
Time_Shift_54
Note_On_50_Vel_0
Time_Shift_12
Note_On_50_Vel_78
Time_Shift_46
Note_On_67_Vel_90
Time_Shift_1
Note_On_62_Vel_93
Time_Shift_1
Note_On_74_Vel_90
Time_Shift_1
Note_On_71_Vel_0
Time_Shift_5
Note_On_71_Vel_84
Time_Shift_5
Note_On_59_Vel_93
Time_Shift_587
Note_On_76_Vel_96
Time_Shift_2
Note_On_64_Vel_86
Time_Shift_208
Note_On_62_Vel_0
Note_On_74_Vel_0
Time_Shift_4
Note_On_74_Vel_92
Time_Shift_2
Note_On_62_Vel_92
Time_Shift_1
Note_On_38_Vel_102
Time_Shift_3
Note_On_72_Vel_96
Note_On_26_Vel_95
Time_Shift_2
Sustain_Off
Time_Shift_1
Note_On_69_Vel_82
Time_Shift_1
Note_On_71_Vel_0
Note_On_67_Vel_0
Time_Shift_1
Note_On_50_Vel_0
Note_On_76_Vel_0
Note_On_59_Vel_0
Note_On_64_Vel_0
Note_On_26_Vel_0
Time_Shift_1
Note_On_79_Vel_0
Time_Shift_15
Note_On_43_Vel_0
Time_Shift_84
Sustain_On
Time_Shift_177
Note_On_69_Vel_0
Note_On_72_Vel_0
Time_Shift_4
Note_On_69_Vel_74
Time_Shift_1
Note_On_72_Vel_81
Time_Shift_79
Note_On_62_Vel_0
Note_On_69_Vel_0
Note_On_72_Vel_0
Time_Shift_4
Note_On_72_Vel_88
Time_Shift_2
Note_On_62_Vel_86
Time_Shift_4
Note_On_69_Vel_82
Time_Shift_1
Note_On_60_Vel_86
Time_Shift_4
Note_On_54_Vel_73
Time_Shift_2
Sustain_Off
Time_Shift_5
Note_On_50_Vel_74
Time_Shift_40
Note_On_38_Vel_0
Time_Shift_23
Note_On_74_Vel_0
Time_Shift_53
Sustain_On
Time_Shift_162
Note_On_72_Vel_0
Time_Shift_5
Note_On_72_Vel_56
Time_Shift_18
Note_On_54_Vel_0
Time_Shift_69
Note_On_69_Vel_0
Time_Shift_6
Note_On_69_Vel_78
Time_Shift_2
Note_On_62_Vel_0
Note_On_72_Vel_0
Time_Shift_1
Note_On_74_Vel_80
Time_Shift_4
Note_On_72_Vel_81
Time_Shift_2
Note_On_60_Vel_0
Time_Shift_1
Note_On_62_Vel_71
Time_Shift_4
Note_On_60_Vel_69
Time_Shift_3
Note_On_50_Vel_0
Time_Shift_1
Note_On_54_Vel_68
Time_Shift_3
Note_On_50_Vel_72
Time_Shift_57
Note_On_72_Vel_0
Time_Shift_11
Note_On_72_Vel_59
Time_Shift_192
Note_On_60_Vel_0
Note_On_69_Vel_0
Note_On_72_Vel_0
Sustain_Off
Note_On_54_Vel_0
Note_On_62_Vel_0
Time_Shift_28
Note_On_50_Vel_0
Note_On_74_Vel_0
Time_Shift_5
Note_On_71_Vel_83
Note_On_43_Vel_83
Time_Shift_1
Note_On_74_Vel_86
Time_Shift_1
Note_On_50_Vel_74
Note_On_62_Vel_84
Time_Shift_31
Sustain_On
Time_Shift_177
Note_On_71_Vel_0
Time_Shift_10
Note_On_71_Vel_73
Time_Shift_1
Note_On_79_Vel_80
Note_On_67_Vel_69
Time_Shift_81
Note_On_74_Vel_0
Time_Shift_8
Note_On_62_Vel_0
Note_On_71_Vel_0
Note_On_79_Vel_0
Time_Shift_3
Note_On_83_Vel_97
Note_On_74_Vel_92
Time_Shift_2
Note_On_79_Vel_73
Note_On_62_Vel_75
Time_Shift_2
Note_On_50_Vel_0
Time_Shift_3
Note_On_71_Vel_80
Time_Shift_1
Note_On_59_Vel_82
Time_Shift_1
Note_On_50_Vel_74
Note_On_55_Vel_72
Time_Shift_2
Sustain_Off
Time_Shift_5
Note_On_67_Vel_0
Time_Shift_34
Note_On_43_Vel_0
Note_On_62_Vel_0
Time_Shift_5
Note_On_59_Vel_0
Time_Shift_9
Note_On_50_Vel_0
Time_Shift_32
Note_On_55_Vel_0
Time_Shift_16
Note_On_79_Vel_0
Time_Shift_138
Sustain_On
Time_Shift_52
Note_On_84_Vel_98
Time_Shift_6
Note_On_76_Vel_84
Note_On_72_Vel_89
Time_Shift_11
Note_On_50_Vel_76
Time_Shift_3
Note_On_59_Vel_74
Time_Shift_1
Note_On_55_Vel_65
Time_Shift_81
Note_On_74_Vel_0
Time_Shift_15
Note_On_71_Vel_0
Time_Shift_177
Note_On_83_Vel_0
Time_Shift_9
Note_On_84_Vel_0
Time_Shift_1
Note_On_83_Vel_86
Note_On_50_Vel_0
Time_Shift_1
Note_On_59_Vel_0
Note_On_72_Vel_0
Note_On_76_Vel_0
Sustain_Off
Note_On_74_Vel_73
Time_Shift_1
Note_On_55_Vel_0
Time_Shift_3
Note_On_71_Vel_75
Time_Shift_3
Note_On_38_Vel_88
Time_Shift_74
Sustain_On
Time_Shift_135
Note_On_81_Vel_85
Time_Shift_3
Note_On_72_Vel_80
Time_Shift_1
Note_On_69_Vel_73
Time_Shift_91
Note_On_69_Vel_0
Note_On_81_Vel_0
Time_Shift_6
Note_On_81_Vel_81
Time_Shift_2
Note_On_72_Vel_0
Time_Shift_4
Note_On_69_Vel_86
Note_On_78_Vel_96
Time_Shift_2
Note_On_72_Vel_81
Time_Shift_2
Sustain_Off
Time_Shift_5
Note_On_60_Vel_73
Time_Shift_1
Note_On_66_Vel_79
Time_Shift_4
Note_On_50_Vel_78
Note_On_57_Vel_70
Time_Shift_1
Note_On_83_Vel_0
Time_Shift_1
Note_On_71_Vel_0
Time_Shift_3
Note_On_38_Vel_0
Time_Shift_1
Note_On_74_Vel_0
Time_Shift_99
Sustain_On
Time_Shift_219
Note_On_83_Vel_97
Time_Shift_4
Note_On_50_Vel_0
Note_On_57_Vel_0
Note_On_60_Vel_0
Time_Shift_2
Note_On_74_Vel_89
Time_Shift_1
Sustain_Off
Time_Shift_1
Note_On_71_Vel_83
Note_On_57_Vel_73
Note_On_60_Vel_71
Time_Shift_3
Note_On_62_Vel_73
Note_On_69_Vel_0
Time_Shift_1
Note_On_50_Vel_75
Time_Shift_45
Note_On_72_Vel_0
Sustain_On
Time_Shift_85
Note_On_81_Vel_0
Time_Shift_188
Note_On_81_Vel_90
Time_Shift_4
Note_On_50_Vel_0
Time_Shift_3
Note_On_43_Vel_58
Note_On_72_Vel_77
Note_On_69_Vel_72
Time_Shift_4
Note_On_50_Vel_59
Time_Shift_10
Note_On_83_Vel_0
Time_Shift_1
Note_On_71_Vel_0
Time_Shift_1
Note_On_74_Vel_0
Time_Shift_1
Sustain_Off
Time_Shift_10
Note_On_60_Vel_0
Note_On_62_Vel_0
Note_On_66_Vel_0
Time_Shift_8
Note_On_57_Vel_0
Time_Shift_8
Note_On_78_Vel_0
Time_Shift_6
Note_On_69_Vel_0
Time_Shift_32
Note_On_81_Vel_0
Time_Shift_16
Sustain_On
Time_Shift_7
Note_On_72_Vel_0
Time_Shift_74
Note_On_79_Vel_89
Time_Shift_7
Note_On_71_Vel_72
Note_On_67_Vel_73
Time_Shift_165
Note_On_67_Vel_0
Note_On_71_Vel_0
Note_On_79_Vel_0
Time_Shift_6
Note_On_43_Vel_0
Time_Shift_1
Note_On_79_Vel_84
Time_Shift_4
Note_On_67_Vel_69
Note_On_71_Vel_67
Time_Shift_1
Sustain_Off
Time_Shift_11
Note_On_50_Vel_0
Time_Shift_4
Note_On_50_Vel_55
Time_Shift_4
Note_On_59_Vel_62
Time_Shift_69
Sustain_On
Time_Shift_322
Note_On_50_Vel_0
Sustain_Off
Note_On_71_Vel_0
Time_Shift_1
Note_On_59_Vel_0
Time_Shift_1
Note_On_79_Vel_0
Time_Shift_20
Note_On_78_Vel_79
Time_Shift_9
Note_On_67_Vel_0
Time_Shift_7
Note_On_67_Vel_54
Time_Shift_5
Note_On_49_Vel_51
Time_Shift_1
Note_On_58_Vel_42
Time_Shift_72
Sustain_On
Time_Shift_78
Note_On_76_Vel_73
Time_Shift_162
Note_On_78_Vel_0
Time_Shift_1
Note_On_49_Vel_0
Note_On_76_Vel_0
Note_On_67_Vel_0
Note_On_58_Vel_0
Time_Shift_5
Sustain_Off
Time_Shift_25
Note_On_74_Vel_68
Time_Shift_6
Note_On_72_Vel_76
Time_Shift_8
Note_On_57_Vel_49
Time_Shift_1
Note_On_62_Vel_46
Time_Shift_2
Note_On_50_Vel_47
Time_Shift_2
Note_On_66_Vel_48
Time_Shift_1
Note_On_62_Vel_0
Time_Shift_24
Sustain_On
Time_Shift_99
Note_On_74_Vel_0
Time_Shift_8
Note_On_74_Vel_70
Time_Shift_2
Note_On_71_Vel_69
Time_Shift_116
Note_On_72_Vel_0
Time_Shift_1
Note_On_71_Vel_0
Note_On_66_Vel_0
Note_On_57_Vel_0
Time_Shift_4
Sustain_Off
Time_Shift_15
Note_On_74_Vel_0
Time_Shift_5
Note_On_74_Vel_72
Time_Shift_2
Note_On_69_Vel_72
Time_Shift_5
Note_On_60_Vel_56
Time_Shift_4
Note_On_50_Vel_0
Time_Shift_6
Note_On_50_Vel_54
Time_Shift_1
Note_On_54_Vel_51
Time_Shift_46
Sustain_On
Time_Shift_93
Note_On_60_Vel_0
Time_Shift_184
Note_On_74_Vel_0
Time_Shift_8
Note_On_74_Vel_63
Time_Shift_7
Note_On_60_Vel_73
Note_On_50_Vel_0
Note_On_54_Vel_0
Note_On_69_Vel_0
Time_Shift_3
Note_On_71_Vel_62
Time_Shift_1
Note_On_69_Vel_52
Note_On_50_Vel_58
Time_Shift_7
Note_On_54_Vel_52
Time_Shift_8
Sustain_Off
Time_Shift_13
Note_On_60_Vel_0
Time_Shift_2
Note_On_69_Vel_0
Time_Shift_1
Note_On_50_Vel_0
Note_On_54_Vel_0
Time_Shift_19
Note_On_74_Vel_0
Time_Shift_23
Note_On_71_Vel_0
Time_Shift_64
Note_On_74_Vel_68
Time_Shift_2
Note_On_69_Vel_63
Time_Shift_42
Note_On_69_Vel_0
Time_Shift_1
Note_On_74_Vel_0
Time_Shift_111
Note_On_67_Vel_70
Time_Shift_1
Note_On_74_Vel_72
Time_Shift_6
Note_On_43_Vel_55
Time_Shift_1
Note_On_50_Vel_49
Time_Shift_3
Note_On_71_Vel_56
Time_Shift_15
Sustain_On
Time_Shift_176
Note_On_71_Vel_0
Time_Shift_4
Note_On_71_Vel_49
Time_Shift_5
Note_On_79_Vel_61
Time_Shift_73
Sustain_Off
Time_Shift_3
Note_On_50_Vel_0
Note_On_74_Vel_0
Time_Shift_8
Note_On_67_Vel_0
Note_On_74_Vel_83
Time_Shift_2
Note_On_83_Vel_83
Note_On_43_Vel_0
Time_Shift_1
Note_On_50_Vel_67
Note_On_71_Vel_0
Note_On_59_Vel_68
Time_Shift_2
Note_On_55_Vel_59
Time_Shift_32
Note_On_59_Vel_0
Time_Shift_1
Note_On_55_Vel_0
Time_Shift_3
Note_On_50_Vel_0
Time_Shift_307
Note_On_50_Vel_61
Time_Shift_4
Note_On_59_Vel_60
Time_Shift_16
Note_On_74_Vel_0
Note_On_79_Vel_0
Time_Shift_6
Note_On_50_Vel_0
Time_Shift_25
Note_On_59_Vel_0
Time_Shift_8
Sustain_On
Time_Shift_42
Note_On_84_Vel_76
Time_Shift_2
Note_On_76_Vel_66
Time_Shift_151
Note_On_84_Vel_0
Time_Shift_1
Note_On_76_Vel_0
Time_Shift_3
Note_On_83_Vel_0
Time_Shift_2
Sustain_Off
Time_Shift_8
Note_On_83_Vel_82
Time_Shift_4
Note_On_74_Vel_67
Time_Shift_7
Note_On_38_Vel_66
Time_Shift_6
Note_On_50_Vel_49
Time_Shift_35
Sustain_On
Time_Shift_166
Note_On_72_Vel_78
Time_Shift_1
Note_On_81_Vel_79
Time_Shift_68
Note_On_78_Vel_94
Time_Shift_3
Note_On_72_Vel_0
Time_Shift_8
Note_On_50_Vel_0
Note_On_74_Vel_0
Time_Shift_1
Note_On_72_Vel_69
Time_Shift_1
Sustain_Off
Time_Shift_1
Note_On_62_Vel_69
Time_Shift_1
Note_On_50_Vel_70
Time_Shift_1
Note_On_83_Vel_0
Time_Shift_1
Note_On_74_Vel_66
Time_Shift_1
Note_On_69_Vel_63
Time_Shift_3
Note_On_81_Vel_0
Time_Shift_2
Note_On_38_Vel_0
Time_Shift_21
Note_On_62_Vel_0
Time_Shift_1
Note_On_50_Vel_0
Time_Shift_4
Note_On_74_Vel_0
Time_Shift_38
Note_On_72_Vel_0
Time_Shift_208
Note_On_69_Vel_0
Time_Shift_50
Note_On_62_Vel_57
Time_Shift_4
Note_On_50_Vel_66
Time_Shift_15
Sustain_On
Time_Shift_97
Note_On_83_Vel_87
Time_Shift_6
Note_On_74_Vel_67
Time_Shift_145
Note_On_62_Vel_0
Time_Shift_1
Note_On_83_Vel_0
Note_On_78_Vel_0
Note_On_50_Vel_0
Time_Shift_1
Note_On_74_Vel_0
Time_Shift_7
Sustain_Off
Time_Shift_24
Note_On_81_Vel_82
Time_Shift_5
Note_On_43_Vel_54
Time_Shift_1
Note_On_72_Vel_75
Time_Shift_43
Sustain_On
Time_Shift_182
Note_On_79_Vel_87
Time_Shift_11
Note_On_71_Vel_67
Time_Shift_37
Note_On_43_Vel_0
Time_Shift_20
Note_On_81_Vel_0
Note_On_72_Vel_0
Time_Shift_1
Sustain_Off
Time_Shift_1
Note_On_79_Vel_0
Time_Shift_9
Note_On_71_Vel_0
Time_Shift_4
Note_On_74_Vel_83
Time_Shift_2
Note_On_71_Vel_75
Time_Shift_1
Note_On_62_Vel_67
Time_Shift_11
Note_On_55_Vel_58
Time_Shift_97
Sustain_On
Time_Shift_16
Note_On_55_Vel_0
Time_Shift_46
Note_On_71_Vel_0
Time_Shift_7
Note_On_62_Vel_0
Time_Shift_202
Note_On_62_Vel_58
Time_Shift_9
Note_On_55_Vel_55
Time_Shift_4
Note_On_71_Vel_64
Time_Shift_129
Note_On_76_Vel_73
Time_Shift_105
Note_On_55_Vel_0
Note_On_71_Vel_0
Time_Shift_1
Note_On_74_Vel_0
Time_Shift_1
Note_On_76_Vel_0
Time_Shift_6
Sustain_Off
Time_Shift_12
Note_On_62_Vel_0
Time_Shift_35
Note_On_38_Vel_66
Note_On_74_Vel_78
Time_Shift_7
Note_On_72_Vel_80
Time_Shift_19
Sustain_On
Time_Shift_192
Note_On_72_Vel_0
Note_On_74_Vel_0
Time_Shift_10
Note_On_72_Vel_85
Time_Shift_1
Note_On_74_Vel_74
Time_Shift_66
Note_On_74_Vel_0
Time_Shift_5
Note_On_74_Vel_82
Time_Shift_4
Note_On_62_Vel_76
Time_Shift_3
Note_On_66_Vel_84
Time_Shift_15
Sustain_Off
Note_On_50_Vel_61
Time_Shift_5
Note_On_57_Vel_68
Time_Shift_4
Note_On_72_Vel_0
Time_Shift_9
Note_On_62_Vel_0
Time_Shift_1
Note_On_38_Vel_0
Time_Shift_20
Note_On_57_Vel_0
Time_Shift_3
Note_On_66_Vel_0
Time_Shift_8
Note_On_50_Vel_0
Note_On_74_Vel_0
Time_Shift_336
Note_On_62_Vel_65
Time_Shift_7
Note_On_74_Vel_75
Time_Shift_6
Note_On_57_Vel_59
Time_Shift_4
Sustain_On
Time_Shift_3
Note_On_50_Vel_55
Note_On_72_Vel_76
Time_Shift_271
Note_On_62_Vel_0
Sustain_Off
Note_On_72_Vel_0
Note_On_50_Vel_0
Time_Shift_1
Note_On_57_Vel_0
Time_Shift_32
Note_On_74_Vel_0
Time_Shift_8
Note_On_43_Vel_64
Time_Shift_3
Note_On_74_Vel_79
Time_Shift_5
Note_On_71_Vel_69
Time_Shift_23
Sustain_On
Time_Shift_200
Note_On_71_Vel_0
Time_Shift_11
Note_On_71_Vel_66
Note_On_79_Vel_72
Time_Shift_5
Note_On_62_Vel_38
Time_Shift_44
Sustain_Off
Time_Shift_1
Note_On_43_Vel_0
Time_Shift_4
Note_On_71_Vel_0
Time_Shift_4
Note_On_62_Vel_0
Note_On_74_Vel_0
Time_Shift_5
Note_On_62_Vel_60
Note_On_74_Vel_71
Time_Shift_5
Note_On_55_Vel_58
Note_On_83_Vel_84
Time_Shift_40
Note_On_62_Vel_0
Time_Shift_3
Note_On_55_Vel_0
Time_Shift_31
Sustain_On
Time_Shift_246
Note_On_62_Vel_65
Time_Shift_3
Note_On_55_Vel_65
Time_Shift_92
Note_On_84_Vel_88
Time_Shift_20
Note_On_76_Vel_62
Time_Shift_144
Note_On_62_Vel_0
Note_On_84_Vel_0
Time_Shift_1
Note_On_76_Vel_0
Time_Shift_1
Note_On_79_Vel_0
Time_Shift_5
Sustain_Off
Time_Shift_3
Note_On_74_Vel_0
Time_Shift_7
Note_On_55_Vel_0
Note_On_83_Vel_0
Time_Shift_5
Note_On_38_Vel_82
Time_Shift_2
Note_On_83_Vel_90
Time_Shift_5
Note_On_74_Vel_78
Time_Shift_31
Note_On_38_Vel_0
Time_Shift_1
Note_On_83_Vel_0
Time_Shift_26
Sustain_On
Time_Shift_130
Note_On_74_Vel_0
Time_Shift_74
Note_On_82_Vel_86
Time_Shift_13
Note_On_73_Vel_75
Time_Shift_78
Note_On_81_Vel_87
Time_Shift_9
Note_On_72_Vel_79
Time_Shift_2
Note_On_62_Vel_67
Time_Shift_20
Note_On_78_Vel_55
Time_Shift_2
Sustain_Off
Time_Shift_1
Note_On_50_Vel_64
Time_Shift_12
Note_On_82_Vel_0
Time_Shift_1
Note_On_73_Vel_0
Time_Shift_80
Sustain_On
Time_Shift_246
Note_On_83_Vel_95
Time_Shift_7
Note_On_50_Vel_0
Note_On_62_Vel_0
Time_Shift_5
Note_On_74_Vel_79
Time_Shift_4
Note_On_50_Vel_68
Time_Shift_2
Note_On_62_Vel_68
Time_Shift_297
Note_On_81_Vel_0
Time_Shift_11
Note_On_81_Vel_86
Time_Shift_4
Note_On_62_Vel_0
Time_Shift_6
Note_On_62_Vel_63
Time_Shift_2
Note_On_72_Vel_0
Time_Shift_4
Note_On_72_Vel_74
Time_Shift_5
Note_On_50_Vel_0
Time_Shift_3
Note_On_74_Vel_0
Note_On_78_Vel_0
Note_On_83_Vel_0
Time_Shift_7
Sustain_Off
Time_Shift_25
Note_On_55_Vel_34
Time_Shift_40
Sustain_On
Time_Shift_111
Note_On_80_Vel_94
Time_Shift_4
Note_On_72_Vel_0
Time_Shift_4
Note_On_72_Vel_81
Time_Shift_200
Sustain_Off
Time_Shift_4
Note_On_62_Vel_0
Time_Shift_3
Note_On_80_Vel_0
Time_Shift_1
Note_On_72_Vel_0
Time_Shift_1
Note_On_79_Vel_85
Time_Shift_1
Note_On_62_Vel_58
Time_Shift_9
Note_On_81_Vel_0
Time_Shift_2
Note_On_71_Vel_68
Time_Shift_82
Sustain_On
Time_Shift_264
Note_On_78_Vel_71
Time_Shift_5
Note_On_71_Vel_0
Time_Shift_9
Note_On_71_Vel_55
Time_Shift_5
Note_On_74_Vel_32
Time_Shift_46
Sustain_Off
Time_Shift_1
Note_On_79_Vel_0
Time_Shift_16
Note_On_55_Vel_0
Time_Shift_85
Sustain_On
Time_Shift_217
Note_On_77_Vel_68
Time_Shift_13
Note_On_71_Vel_0
Time_Shift_8
Note_On_74_Vel_0
Time_Shift_1
Note_On_71_Vel_51
Time_Shift_370
Note_On_71_Vel_0
Note_On_78_Vel_0
Time_Shift_1
Note_On_77_Vel_0
Time_Shift_3
Sustain_Off
Time_Shift_32
Note_On_62_Vel_0
Time_Shift_5
Note_On_62_Vel_35
Time_Shift_5
Note_On_76_Vel_58
Time_Shift_1
Note_On_70_Vel_57
Time_Shift_3
Note_On_55_Vel_36
Time_Shift_46
Note_On_76_Vel_0
Time_Shift_5
Note_On_70_Vel_0
Time_Shift_27
Note_On_77_Vel_61
Time_Shift_51
Note_On_77_Vel_0
Time_Shift_13
Note_On_76_Vel_68
Time_Shift_59
Note_On_76_Vel_0
Time_Shift_14
Note_On_75_Vel_77
Time_Shift_20
Note_On_69_Vel_63
Time_Shift_4
Note_On_62_Vel_0
Time_Shift_12
Note_On_57_Vel_55
Time_Shift_7
Note_On_61_Vel_50
Time_Shift_27
Note_On_55_Vel_0
Time_Shift_10
Note_On_57_Vel_0
Time_Shift_2
Note_On_61_Vel_0
Time_Shift_27
Note_On_69_Vel_0
Time_Shift_51
Note_On_76_Vel_76
Time_Shift_18
Note_On_75_Vel_0
Time_Shift_150
Note_On_79_Vel_68
Time_Shift_4
Note_On_61_Vel_50
Time_Shift_1
Note_On_57_Vel_48
Time_Shift_2
Note_On_67_Vel_49
Time_Shift_88
Sustain_On
Time_Shift_38
Note_On_77_Vel_74
Time_Shift_101
Note_On_67_Vel_0
Time_Shift_4
Note_On_79_Vel_0
Time_Shift_2
Note_On_77_Vel_0
Sustain_Off
Time_Shift_1
Note_On_76_Vel_0
Time_Shift_8
Note_On_57_Vel_0
Note_On_61_Vel_0
Time_Shift_43
Note_On_50_Vel_58
Time_Shift_2
Note_On_76_Vel_71
Time_Shift_4
Note_On_65_Vel_53
Time_Shift_1
Note_On_62_Vel_51
Time_Shift_42
Sustain_On
Time_Shift_194
Note_On_69_Vel_67
Time_Shift_17
Note_On_76_Vel_0
Time_Shift_1
Note_On_50_Vel_0
Sustain_Off
Note_On_62_Vel_0
Time_Shift_3
Note_On_65_Vel_0
Time_Shift_40
Note_On_74_Vel_70
Note_On_62_Vel_56
Time_Shift_7
Note_On_65_Vel_53
Time_Shift_2
Note_On_57_Vel_52
Time_Shift_31
Note_On_62_Vel_0
Time_Shift_5
Note_On_65_Vel_0
Time_Shift_3
Note_On_57_Vel_0
Time_Shift_4
Note_On_69_Vel_0
Time_Shift_265
Note_On_44_Vel_71
Time_Shift_5
Note_On_56_Vel_52
Time_Shift_11
Note_On_62_Vel_57
Time_Shift_1
Note_On_65_Vel_46
Time_Shift_26
Sustain_On
Time_Shift_112
Note_On_72_Vel_65
Time_Shift_109
Note_On_44_Vel_0
Time_Shift_1
Note_On_72_Vel_0
Note_On_74_Vel_0
Note_On_65_Vel_0
Time_Shift_2
Note_On_62_Vel_0
Time_Shift_3
Sustain_Off
Time_Shift_11
Note_On_56_Vel_0
Time_Shift_29
Note_On_43_Vel_75
Time_Shift_28
Note_On_65_Vel_52
Note_On_43_Vel_0
Time_Shift_1
Note_On_71_Vel_59
Note_On_62_Vel_45
Time_Shift_42
Sustain_On
Time_Shift_13
Note_On_72_Vel_73
Time_Shift_56
Note_On_71_Vel_0
Time_Shift_9
Note_On_71_Vel_69
Time_Shift_79
Note_On_70_Vel_72
Time_Shift_12
Note_On_62_Vel_0
Note_On_65_Vel_0
Time_Shift_5
Sustain_Off
Note_On_65_Vel_65
Time_Shift_2
Note_On_71_Vel_0
Time_Shift_1
Note_On_72_Vel_0
Time_Shift_2
Note_On_62_Vel_64
Time_Shift_4
Note_On_55_Vel_57
Time_Shift_11
Note_On_67_Vel_51
Time_Shift_16
Note_On_70_Vel_0
Time_Shift_1
Note_On_62_Vel_0
Time_Shift_1
Note_On_65_Vel_0
Time_Shift_4
Note_On_67_Vel_0
Time_Shift_3
Note_On_55_Vel_0
Time_Shift_101
Note_On_71_Vel_60
Time_Shift_90
Note_On_71_Vel_0
Time_Shift_73
Note_On_72_Vel_68
Time_Shift_8
Note_On_62_Vel_61
Time_Shift_6
Note_On_65_Vel_48
Time_Shift_4
Note_On_71_Vel_51
Time_Shift_2
Note_On_55_Vel_46
Time_Shift_19
Note_On_62_Vel_0
Time_Shift_7
Note_On_65_Vel_0
Time_Shift_6
Note_On_55_Vel_0
Time_Shift_30
Note_On_72_Vel_0
Time_Shift_59
Note_On_74_Vel_67
Time_Shift_67
Note_On_71_Vel_0
Time_Shift_3
Note_On_74_Vel_0
Time_Shift_80
Note_On_67_Vel_66
Time_Shift_5
Note_On_64_Vel_60
Time_Shift_5
Note_On_48_Vel_63
Time_Shift_3
Note_On_60_Vel_45
Time_Shift_34
Sustain_On
Time_Shift_213
Note_On_71_Vel_75
Time_Shift_36
Note_On_48_Vel_0
Time_Shift_1
Sustain_Off
Time_Shift_10
Note_On_71_Vel_0
Time_Shift_1
Note_On_60_Vel_0
Note_On_64_Vel_0
Time_Shift_5
Note_On_64_Vel_68
Time_Shift_1
Note_On_55_Vel_54
Note_On_60_Vel_61
Time_Shift_2
Note_On_67_Vel_0
Time_Shift_4
Note_On_72_Vel_76
Time_Shift_1
Note_On_67_Vel_56
Time_Shift_25
Note_On_60_Vel_0
Time_Shift_3
Note_On_64_Vel_0
Time_Shift_29
Note_On_55_Vel_0
Time_Shift_15
Sustain_On
Time_Shift_207
Note_On_67_Vel_0
Time_Shift_5
Sustain_Off
Time_Shift_4
Note_On_67_Vel_65
Time_Shift_11
Note_On_46_Vel_68
Time_Shift_6
Note_On_72_Vel_0
Time_Shift_43
Sustain_On
Time_Shift_5
Note_On_46_Vel_0
Time_Shift_75
Note_On_74_Vel_76
Time_Shift_135
Sustain_Off
Time_Shift_17
Note_On_45_Vel_73
Time_Shift_14
Note_On_67_Vel_0
Note_On_74_Vel_0
Time_Shift_6
Note_On_74_Vel_70
Time_Shift_3
Note_On_76_Vel_74
Time_Shift_1
Note_On_67_Vel_60
Time_Shift_29
Sustain_On
Time_Shift_38
Note_On_45_Vel_0
Time_Shift_20
Note_On_77_Vel_73
Time_Shift_115
Note_On_75_Vel_93
Time_Shift_26
Note_On_67_Vel_0
Time_Shift_8
Note_On_64_Vel_65
Note_On_45_Vel_64
Time_Shift_2
Note_On_73_Vel_73
Time_Shift_2
Note_On_67_Vel_57
Note_On_57_Vel_63
Time_Shift_3
Note_On_74_Vel_0
Sustain_Off
Time_Shift_5
Note_On_76_Vel_0
Time_Shift_1
Note_On_77_Vel_0
Time_Shift_21
Note_On_64_Vel_0
Time_Shift_20
Note_On_45_Vel_0
Time_Shift_15
Note_On_57_Vel_0
Time_Shift_8
Note_On_67_Vel_0
Time_Shift_36
Note_On_76_Vel_89
Time_Shift_10
Sustain_On
Time_Shift_100
Sustain_Off
Time_Shift_23
Note_On_75_Vel_0
Time_Shift_11
Note_On_79_Vel_86
Time_Shift_4
Note_On_73_Vel_0
Time_Shift_4
Note_On_73_Vel_78
Note_On_67_Vel_70
Time_Shift_1
Note_On_64_Vel_67
Time_Shift_4
Note_On_57_Vel_68
Time_Shift_45
Sustain_On
Time_Shift_59
Note_On_77_Vel_90
Time_Shift_64
Note_On_73_Vel_0
Time_Shift_5
Note_On_73_Vel_61
Time_Shift_68
Note_On_73_Vel_0
Note_On_64_Vel_0
Note_On_57_Vel_0
Note_On_67_Vel_0
Note_On_77_Vel_0
Time_Shift_1
Note_On_79_Vel_0
Time_Shift_1
Sustain_Off
Time_Shift_17
Note_On_76_Vel_0
Time_Shift_4
Note_On_76_Vel_80
Time_Shift_2
Note_On_66_Vel_75
Time_Shift_3
Note_On_50_Vel_80
Note_On_72_Vel_73
Time_Shift_68
Sustain_On
Time_Shift_7
Note_On_50_Vel_0
Time_Shift_145
Note_On_69_Vel_78
Note_On_81_Vel_74
Time_Shift_61
Sustain_Off
Time_Shift_9
Note_On_72_Vel_0
Note_On_66_Vel_0
Note_On_69_Vel_0
Time_Shift_3
Note_On_76_Vel_0
Time_Shift_1
Note_On_74_Vel_95
Time_Shift_1
Note_On_62_Vel_76
Time_Shift_1
Note_On_69_Vel_82
Time_Shift_2
Note_On_66_Vel_84
Time_Shift_1
Note_On_78_Vel_84
Time_Shift_1
Note_On_57_Vel_73
Time_Shift_59
Sustain_On
Time_Shift_8
Note_On_81_Vel_0
Time_Shift_181
Note_On_57_Vel_0
Sustain_Off
Note_On_78_Vel_0
Note_On_66_Vel_0
Time_Shift_2
Note_On_62_Vel_0
Time_Shift_1
Note_On_69_Vel_0
Time_Shift_7
Note_On_57_Vel_76
Time_Shift_3
Note_On_69_Vel_66
Time_Shift_2
Note_On_65_Vel_83
Time_Shift_4
Note_On_44_Vel_92
Note_On_57_Vel_0
Time_Shift_49
Note_On_44_Vel_0
Time_Shift_28
Sustain_On
Time_Shift_52
Note_On_72_Vel_92
Time_Shift_117
Note_On_65_Vel_0
Time_Shift_14
Sustain_Off
Time_Shift_3
Note_On_72_Vel_0
Time_Shift_6
Note_On_74_Vel_0
Time_Shift_7
Note_On_69_Vel_0
Time_Shift_20
Note_On_43_Vel_96
Time_Shift_2
Note_On_71_Vel_89
Time_Shift_2
Note_On_31_Vel_82
Time_Shift_2
Note_On_65_Vel_80
Time_Shift_1
Note_On_62_Vel_74
Time_Shift_4
Note_On_31_Vel_0
Time_Shift_38
Sustain_On
Time_Shift_31
Note_On_43_Vel_0
Time_Shift_109
Note_On_81_Vel_91
Time_Shift_129
Note_On_65_Vel_0
Time_Shift_4
Note_On_80_Vel_98
Time_Shift_4
Note_On_62_Vel_0
Note_On_71_Vel_0
Time_Shift_2
Sustain_Off
Time_Shift_2
Note_On_65_Vel_76
Note_On_62_Vel_75
Time_Shift_1
Note_On_71_Vel_80
Time_Shift_1
Note_On_77_Vel_74
Time_Shift_3
Note_On_55_Vel_60
Time_Shift_3
Note_On_81_Vel_0
Time_Shift_72
Note_On_65_Vel_0
Time_Shift_8
Note_On_77_Vel_0
Time_Shift_8
Sustain_On
Time_Shift_16
Note_On_79_Vel_100
Time_Shift_153
Note_On_62_Vel_0
Note_On_80_Vel_0
Time_Shift_6
Note_On_65_Vel_82
Time_Shift_1
Note_On_55_Vel_0
Time_Shift_2
Note_On_62_Vel_81
Time_Shift_3
Note_On_78_Vel_95
Time_Shift_1
Note_On_55_Vel_59
Sustain_Off
Time_Shift_2
Note_On_71_Vel_0
Time_Shift_4
Note_On_71_Vel_85
Time_Shift_65
Note_On_65_Vel_0
Time_Shift_16
Sustain_On
Time_Shift_55
Note_On_77_Vel_104
Time_Shift_207
Note_On_78_Vel_0
Time_Shift_1
Note_On_77_Vel_0
Time_Shift_1
Note_On_71_Vel_0
Time_Shift_1
Note_On_24_Vel_91
Note_On_36_Vel_101
Time_Shift_1
Sustain_Off
Time_Shift_1
Note_On_76_Vel_96
Time_Shift_1
Note_On_55_Vel_0
Note_On_62_Vel_0
Time_Shift_1
Note_On_72_Vel_101
Time_Shift_7
Note_On_24_Vel_0
Note_On_79_Vel_0
Time_Shift_92
Sustain_On
Time_Shift_192
Note_On_36_Vel_0
Time_Shift_73
Note_On_74_Vel_85
Time_Shift_1
Note_On_67_Vel_75
Time_Shift_57
Note_On_72_Vel_0
Time_Shift_9
Note_On_72_Vel_94
Time_Shift_10
Note_On_64_Vel_79
Time_Shift_11
Note_On_67_Vel_0
Time_Shift_9
Note_On_67_Vel_72
Note_On_60_Vel_71
Time_Shift_5
Note_On_36_Vel_70
Time_Shift_4
Note_On_48_Vel_74
Time_Shift_12
Sustain_Off
Time_Shift_1
Note_On_74_Vel_0
Time_Shift_1
Note_On_76_Vel_0
Time_Shift_38
Note_On_36_Vel_0
Time_Shift_153
Sustain_On
Time_Shift_887
Note_On_60_Vel_0
Time_Shift_1
Sustain_Off
Time_Shift_1
Note_On_64_Vel_0
Time_Shift_17
Note_On_48_Vel_0
Note_On_67_Vel_0
Note_On_72_Vel_0
Time_Shift_327
Note_On_72_Vel_80
Time_Shift_12
Note_On_55_Vel_57
Note_On_64_Vel_64
Time_Shift_2
Note_On_48_Vel_58
Time_Shift_1
Note_On_58_Vel_60
Time_Shift_35
Sustain_On
Time_Shift_87
Note_On_74_Vel_85
Time_Shift_124
Sustain_Off
Time_Shift_5
Note_On_72_Vel_0
Time_Shift_2
Note_On_74_Vel_0
Time_Shift_12
Note_On_55_Vel_0
Note_On_64_Vel_0
Time_Shift_6
Note_On_76_Vel_92
Time_Shift_2
Note_On_48_Vel_0
Note_On_58_Vel_0
Time_Shift_1
Note_On_64_Vel_78
Time_Shift_1
Note_On_70_Vel_73
Time_Shift_1
Note_On_55_Vel_63
Time_Shift_3
Note_On_58_Vel_69
Time_Shift_3
Note_On_48_Vel_71
Time_Shift_33
Note_On_58_Vel_0
Time_Shift_27
Sustain_On
Time_Shift_54
Note_On_64_Vel_0
Time_Shift_38
Note_On_55_Vel_0
Time_Shift_23
Note_On_48_Vel_0
Time_Shift_11
Note_On_48_Vel_65
Time_Shift_14
Note_On_55_Vel_57
Time_Shift_59
Note_On_58_Vel_79
Time_Shift_28
Note_On_64_Vel_75
Time_Shift_1
Note_On_77_Vel_86
Time_Shift_11
Note_On_55_Vel_0
Sustain_Off
Time_Shift_2
Note_On_48_Vel_0
Time_Shift_2
Note_On_70_Vel_0
Time_Shift_2
Note_On_58_Vel_0
Time_Shift_16
Note_On_76_Vel_0
Time_Shift_3
Note_On_77_Vel_0
Time_Shift_5
Note_On_64_Vel_0
Time_Shift_64
Note_On_79_Vel_87
Time_Shift_45
Note_On_79_Vel_0
Time_Shift_92
Note_On_81_Vel_93
Time_Shift_4
Note_On_65_Vel_71
Time_Shift_14
Note_On_57_Vel_68
Time_Shift_2
Note_On_53_Vel_60
Time_Shift_19
Note_On_65_Vel_0
Time_Shift_3
Note_On_81_Vel_0
Time_Shift_26
Note_On_57_Vel_0
Time_Shift_15
Note_On_53_Vel_0
Time_Shift_33
Note_On_82_Vel_91
Time_Shift_32
Note_On_82_Vel_0
Time_Shift_138
Note_On_86_Vel_87
Time_Shift_8
Note_On_41_Vel_56
Time_Shift_19
Sustain_On
Time_Shift_277
Note_On_41_Vel_0
Time_Shift_4
Note_On_41_Vel_72
Time_Shift_7
Note_On_70_Vel_58
Time_Shift_3
Sustain_Off
Time_Shift_1
Note_On_70_Vel_0
Time_Shift_21
Note_On_86_Vel_0
Time_Shift_41
Note_On_41_Vel_0
Time_Shift_39
Note_On_84_Vel_83
Time_Shift_28
Note_On_84_Vel_0
Time_Shift_161
Note_On_64_Vel_72
Time_Shift_6
Note_On_58_Vel_70
Time_Shift_14
Note_On_53_Vel_65
Time_Shift_22
Note_On_83_Vel_83
Time_Shift_3
Note_On_64_Vel_0
Time_Shift_11
Sustain_On
Time_Shift_46
Note_On_58_Vel_0
Time_Shift_19
Note_On_84_Vel_78
Time_Shift_69
Note_On_86_Vel_82
Time_Shift_50
Note_On_84_Vel_0
Time_Shift_10
Note_On_84_Vel_91
Time_Shift_25
Note_On_41_Vel_67
Time_Shift_14
Note_On_83_Vel_0
Time_Shift_1
Note_On_86_Vel_0
Time_Shift_3
Sustain_Off
Time_Shift_1
Note_On_84_Vel_0
Time_Shift_8
Note_On_53_Vel_0
Time_Shift_5
Note_On_41_Vel_0
Time_Shift_306
Note_On_41_Vel_62
Time_Shift_2
Note_On_79_Vel_86
Time_Shift_59
Note_On_79_Vel_0
Time_Shift_4
Note_On_41_Vel_0
Time_Shift_67
Note_On_82_Vel_90
Time_Shift_63
Note_On_82_Vel_0
Time_Shift_99
Note_On_65_Vel_80
Time_Shift_5
Note_On_81_Vel_92
Note_On_57_Vel_75
Time_Shift_12
Note_On_53_Vel_68
Time_Shift_24
Note_On_65_Vel_0
Time_Shift_4
Note_On_57_Vel_0
Time_Shift_7
Note_On_53_Vel_0
Time_Shift_1
Note_On_81_Vel_0
Time_Shift_61
Note_On_82_Vel_92
Time_Shift_49
Note_On_82_Vel_0
Time_Shift_120
Note_On_86_Vel_89
Note_On_41_Vel_65
Time_Shift_1
Note_On_29_Vel_58
Time_Shift_9
Note_On_29_Vel_0
Time_Shift_27
Note_On_41_Vel_0
Time_Shift_319
Sustain_On
Time_Shift_31
Note_On_41_Vel_65
Time_Shift_139
Note_On_84_Vel_77
Time_Shift_70
Note_On_41_Vel_0
Time_Shift_2
Note_On_84_Vel_0
Time_Shift_15
Sustain_Off
Time_Shift_27
Note_On_86_Vel_0
Time_Shift_50
Note_On_64_Vel_58
Note_On_58_Vel_69
Time_Shift_23
Note_On_83_Vel_72
Time_Shift_22
Note_On_64_Vel_0
Time_Shift_12
Sustain_On
Time_Shift_43
Note_On_84_Vel_77
Time_Shift_82
Note_On_86_Vel_76
Time_Shift_52
Note_On_84_Vel_0
Time_Shift_4
Note_On_84_Vel_87
Time_Shift_24
Note_On_41_Vel_71
Time_Shift_41
Note_On_58_Vel_0
Time_Shift_6
Note_On_86_Vel_0
Time_Shift_1
Note_On_84_Vel_0
Time_Shift_1
Note_On_83_Vel_0
Time_Shift_4
Note_On_41_Vel_0
Time_Shift_5
Sustain_Off
Time_Shift_221
Sustain_On
Time_Shift_51
Note_On_79_Vel_79
Time_Shift_7
Note_On_41_Vel_49
Time_Shift_106
Note_On_82_Vel_95
Time_Shift_77
Note_On_41_Vel_0
Time_Shift_1
Note_On_79_Vel_0
Time_Shift_2
Note_On_82_Vel_0
Time_Shift_19
Sustain_Off
Time_Shift_53
Note_On_65_Vel_78
Time_Shift_1
Note_On_81_Vel_92
Time_Shift_10
Note_On_57_Vel_74
Time_Shift_17
Note_On_53_Vel_65
Time_Shift_9
Sustain_On
Time_Shift_81
Note_On_82_Vel_95
Time_Shift_27
Note_On_65_Vel_0
Time_Shift_119
Sustain_Off
Note_On_53_Vel_0
Time_Shift_1
Note_On_81_Vel_0
Note_On_57_Vel_0
Note_On_82_Vel_0
Time_Shift_15
Note_On_86_Vel_92
Time_Shift_6
Note_On_41_Vel_60
Time_Shift_48
Note_On_41_Vel_0
Time_Shift_26
Sustain_On
Time_Shift_178
Sustain_Off
Time_Shift_60
Sustain_On
Time_Shift_3
Note_On_41_Vel_74
Time_Shift_134
Note_On_84_Vel_81
Time_Shift_59
Note_On_41_Vel_0
Time_Shift_1
Note_On_86_Vel_0
Time_Shift_7
Note_On_84_Vel_0
Time_Shift_18
Sustain_Off
Time_Shift_74
Note_On_64_Vel_77
Time_Shift_10
Note_On_58_Vel_69
Time_Shift_39
Note_On_64_Vel_0
Note_On_53_Vel_38
Time_Shift_5
Note_On_83_Vel_79
Time_Shift_42
Sustain_On
Time_Shift_17
Note_On_84_Vel_74
Time_Shift_67
Note_On_86_Vel_80
Time_Shift_46
Note_On_84_Vel_0
Time_Shift_11
Note_On_84_Vel_87
Time_Shift_41
Note_On_41_Vel_62
Time_Shift_281
Note_On_53_Vel_0
Time_Shift_1
Sustain_Off
Time_Shift_1
Note_On_58_Vel_0
Time_Shift_1
Note_On_86_Vel_0
Note_On_83_Vel_0
Time_Shift_2
Note_On_41_Vel_0
Time_Shift_6
Note_On_41_Vel_53
Time_Shift_17
Note_On_84_Vel_0
Time_Shift_6
Note_On_79_Vel_81
Time_Shift_3
Note_On_53_Vel_45
Time_Shift_60
Sustain_On
Time_Shift_38
Note_On_81_Vel_84
Time_Shift_24
Note_On_53_Vel_0
Time_Shift_57
Note_On_41_Vel_0
Time_Shift_1
Note_On_79_Vel_0
Time_Shift_2
Note_On_81_Vel_0
Time_Shift_10
Sustain_Off
Time_Shift_69
Note_On_65_Vel_64
Time_Shift_19
Note_On_57_Vel_54
Time_Shift_8
Note_On_53_Vel_44
Note_On_77_Vel_77
Time_Shift_11
Note_On_65_Vel_0
Time_Shift_38
Note_On_77_Vel_0
Time_Shift_30
Note_On_79_Vel_70
Time_Shift_24
Note_On_53_Vel_0
Time_Shift_5
Note_On_79_Vel_0
Time_Shift_32
Note_On_81_Vel_74
Time_Shift_16
Note_On_57_Vel_0
Time_Shift_49
Note_On_79_Vel_79
Time_Shift_28
Note_On_81_Vel_0
Time_Shift_2
Note_On_79_Vel_0
Time_Shift_5
Note_On_81_Vel_71
Time_Shift_39
Note_On_65_Vel_57
Time_Shift_12
Note_On_79_Vel_88
Time_Shift_11
Note_On_81_Vel_0
Time_Shift_1
Note_On_55_Vel_45
Time_Shift_4
Note_On_59_Vel_59
Time_Shift_11
Sustain_On
Time_Shift_303
Note_On_43_Vel_67
Time_Shift_3
Note_On_31_Vel_62
Time_Shift_19
Note_On_77_Vel_71
Time_Shift_13
Note_On_65_Vel_0
Time_Shift_2
Sustain_Off
Time_Shift_3
Note_On_55_Vel_0
Note_On_59_Vel_0
Time_Shift_1
Note_On_43_Vel_0
Note_On_79_Vel_0
Time_Shift_9
Note_On_31_Vel_0
Time_Shift_3
Note_On_77_Vel_0
Time_Shift_77
Note_On_74_Vel_73
Time_Shift_57
Note_On_74_Vel_0
Time_Shift_120
Note_On_36_Vel_60
Note_On_72_Vel_80
Time_Shift_27
Sustain_On
Time_Shift_242
Note_On_48_Vel_78
Time_Shift_6
Note_On_86_Vel_79
Time_Shift_15
Note_On_55_Vel_70
Time_Shift_26
Note_On_72_Vel_0
Time_Shift_7
Note_On_48_Vel_0
Time_Shift_2
Sustain_Off
Time_Shift_9
Note_On_36_Vel_0
Time_Shift_5
Note_On_88_Vel_101
Time_Shift_6
Note_On_86_Vel_0
Time_Shift_9
Note_On_58_Vel_74
Time_Shift_1
Note_On_64_Vel_84
Time_Shift_12
Note_On_76_Vel_53
Time_Shift_17
Note_On_64_Vel_0
Time_Shift_19
Note_On_55_Vel_0
Sustain_On
Time_Shift_190
Note_On_48_Vel_76
Time_Shift_35
Note_On_55_Vel_65
Time_Shift_40
Note_On_89_Vel_96
Time_Shift_4
Note_On_58_Vel_0
Time_Shift_1
Note_On_64_Vel_80
Time_Shift_4
Note_On_58_Vel_72
Time_Shift_1
Note_On_77_Vel_62
Time_Shift_10
Note_On_76_Vel_0
Time_Shift_9
Note_On_48_Vel_0
Time_Shift_3
Note_On_64_Vel_0
Note_On_55_Vel_0
Time_Shift_2
Sustain_Off
Time_Shift_1
Note_On_77_Vel_0
Time_Shift_3
Note_On_89_Vel_0
Time_Shift_12
Note_On_88_Vel_0
Time_Shift_8
Note_On_58_Vel_0
Time_Shift_58
Note_On_91_Vel_93
Time_Shift_143
Note_On_93_Vel_103
Time_Shift_11
Note_On_65_Vel_76
Time_Shift_3
Note_On_57_Vel_69
Time_Shift_8
Note_On_91_Vel_0
Note_On_53_Vel_71
Time_Shift_32
Note_On_57_Vel_0
Time_Shift_4
Note_On_53_Vel_0
Time_Shift_25
Note_On_65_Vel_0
Time_Shift_32
Note_On_94_Vel_98
Time_Shift_14
Note_On_93_Vel_0
Time_Shift_143
Note_On_98_Vel_93
Time_Shift_3
Note_On_94_Vel_0
Time_Shift_3
Note_On_53_Vel_57
Time_Shift_1
Note_On_86_Vel_74
Time_Shift_1
Note_On_41_Vel_64
Time_Shift_1
Note_On_84_Vel_82
Time_Shift_48
Sustain_On
Time_Shift_284
Note_On_41_Vel_0
Time_Shift_8
Note_On_53_Vel_0
Note_On_84_Vel_0
Time_Shift_2
Note_On_41_Vel_58
Time_Shift_2
Note_On_84_Vel_78
Time_Shift_2
Note_On_53_Vel_47
Time_Shift_119
Note_On_96_Vel_89
Time_Shift_67
Note_On_86_Vel_0
Time_Shift_57
Note_On_41_Vel_0
Note_On_96_Vel_0
Note_On_84_Vel_0
Time_Shift_1
Note_On_53_Vel_0
Time_Shift_3
Note_On_98_Vel_0
Time_Shift_4
Sustain_Off
Time_Shift_29
Note_On_64_Vel_68
Time_Shift_10
Note_On_58_Vel_55
Time_Shift_10
Note_On_53_Vel_55
Time_Shift_1
Note_On_95_Vel_87
Time_Shift_8
Sustain_On
Time_Shift_65
Note_On_96_Vel_86
Time_Shift_59
Note_On_98_Vel_94
Time_Shift_98
Note_On_53_Vel_0
Note_On_96_Vel_0
Time_Shift_4
Note_On_84_Vel_105
Note_On_41_Vel_73
Time_Shift_1
Note_On_53_Vel_68
Time_Shift_1
Note_On_96_Vel_100
Time_Shift_3
Note_On_58_Vel_0
Time_Shift_4
Note_On_95_Vel_0
Time_Shift_7
Note_On_64_Vel_0
Time_Shift_7
Sustain_Off
Time_Shift_11
Note_On_41_Vel_0
Time_Shift_8
Note_On_53_Vel_0
Time_Shift_1
Note_On_84_Vel_0
Time_Shift_7
Note_On_98_Vel_0
Time_Shift_23
Note_On_96_Vel_0
Time_Shift_283
Note_On_41_Vel_62
Note_On_91_Vel_92
Time_Shift_2
Note_On_48_Vel_57
Time_Shift_2
Note_On_53_Vel_57
Time_Shift_2
Note_On_84_Vel_82
Time_Shift_3
Note_On_53_Vel_0
Time_Shift_20
Note_On_84_Vel_0
Time_Shift_6
Note_On_48_Vel_0
Time_Shift_6
Note_On_41_Vel_0
Time_Shift_29
Note_On_91_Vel_0
Time_Shift_58
Note_On_94_Vel_91
Time_Shift_146
Note_On_65_Vel_71
Time_Shift_1
Note_On_93_Vel_98
Note_On_57_Vel_72
Time_Shift_8
Note_On_53_Vel_62
Time_Shift_22
Note_On_65_Vel_0
Time_Shift_3
Note_On_57_Vel_0
Time_Shift_31
Note_On_94_Vel_0
Time_Shift_8
Note_On_53_Vel_0
Time_Shift_8
Note_On_93_Vel_0
Time_Shift_36
Note_On_94_Vel_87
Time_Shift_146
Note_On_98_Vel_83
Time_Shift_7
Note_On_86_Vel_71
Time_Shift_3
Note_On_41_Vel_58
Time_Shift_3
Note_On_53_Vel_53
Note_On_84_Vel_77
Time_Shift_27
Note_On_94_Vel_0
Sustain_On
Time_Shift_311
Sustain_Off
Time_Shift_12
Note_On_41_Vel_0
Time_Shift_8
Note_On_53_Vel_0
Note_On_84_Vel_0
Time_Shift_3
Note_On_41_Vel_52
Time_Shift_1
Note_On_84_Vel_70
Time_Shift_4
Note_On_53_Vel_43
Time_Shift_45
Sustain_On
Time_Shift_68
Note_On_96_Vel_86
Time_Shift_78
Note_On_86_Vel_0
Time_Shift_24
Note_On_41_Vel_0
Time_Shift_1
Note_On_84_Vel_0
Time_Shift_1
Note_On_96_Vel_0
Time_Shift_5
Note_On_98_Vel_0
Time_Shift_3
Sustain_Off
Time_Shift_5
Note_On_53_Vel_0
Time_Shift_55
Note_On_64_Vel_69
Time_Shift_3
Note_On_95_Vel_89
Time_Shift_7
Note_On_58_Vel_64
Time_Shift_3
Note_On_83_Vel_66
Time_Shift_11
Note_On_53_Vel_55
Time_Shift_5
Sustain_On
Time_Shift_49
Note_On_96_Vel_79
Time_Shift_57
Note_On_98_Vel_89
Time_Shift_102
Note_On_53_Vel_0
Time_Shift_4
Note_On_58_Vel_0
Time_Shift_2
Note_On_41_Vel_66
Note_On_98_Vel_0
Time_Shift_1
Sustain_Off
Note_On_96_Vel_0
Note_On_53_Vel_63
Note_On_95_Vel_0
Time_Shift_3
Note_On_84_Vel_89
Time_Shift_1
Note_On_83_Vel_0
Time_Shift_3
Note_On_96_Vel_86
Time_Shift_1
Note_On_64_Vel_0
Time_Shift_38
Note_On_41_Vel_0
Note_On_53_Vel_0
Note_On_84_Vel_0
Time_Shift_16
Note_On_96_Vel_0
Time_Shift_309
Note_On_84_Vel_74
Note_On_91_Vel_74
Time_Shift_1
Note_On_41_Vel_57
Time_Shift_30
Note_On_84_Vel_0
Time_Shift_6
Note_On_41_Vel_0
Time_Shift_61
Note_On_91_Vel_0
Time_Shift_26
Note_On_94_Vel_78
Time_Shift_104
Note_On_94_Vel_0
Time_Shift_43
Note_On_65_Vel_69
Note_On_93_Vel_88
Time_Shift_7
Note_On_53_Vel_64
Note_On_57_Vel_63
Time_Shift_26
Note_On_65_Vel_0
Time_Shift_9
Note_On_57_Vel_0
Time_Shift_3
Note_On_53_Vel_0
Time_Shift_35
Note_On_93_Vel_0
Time_Shift_26
Note_On_94_Vel_85
Time_Shift_135
Note_On_94_Vel_0
Time_Shift_3
Note_On_98_Vel_95
Time_Shift_14
Note_On_86_Vel_78
Time_Shift_1
Note_On_41_Vel_68
Time_Shift_8
Note_On_84_Vel_80
Time_Shift_3
Note_On_48_Vel_49
Time_Shift_17
Sustain_On
Time_Shift_292
Note_On_41_Vel_0
Time_Shift_8
Note_On_84_Vel_0
Note_On_41_Vel_63
Time_Shift_4
Note_On_84_Vel_83
Time_Shift_2
Note_On_53_Vel_53
Time_Shift_17
Note_On_48_Vel_0
Time_Shift_95
Note_On_96_Vel_90
Time_Shift_106
Note_On_98_Vel_0
Time_Shift_1
Note_On_41_Vel_0
Note_On_84_Vel_0
Note_On_86_Vel_0
Time_Shift_5
Note_On_53_Vel_0
Time_Shift_3
Sustain_Off
Time_Shift_13
Note_On_96_Vel_0
Time_Shift_42
Note_On_64_Vel_74
Time_Shift_15
Note_On_58_Vel_63
Time_Shift_10
Note_On_95_Vel_99
Note_On_53_Vel_62
Time_Shift_2
Sustain_On
Time_Shift_89
Note_On_96_Vel_84
Time_Shift_60
Note_On_98_Vel_90
Time_Shift_66
Note_On_96_Vel_0
Time_Shift_4
Note_On_96_Vel_89
Time_Shift_4
Note_On_53_Vel_0
Time_Shift_4
Note_On_41_Vel_83
Time_Shift_3
Note_On_53_Vel_75
Time_Shift_27
Note_On_64_Vel_0
Time_Shift_4
Note_On_53_Vel_0
Time_Shift_2
Note_On_58_Vel_0
Note_On_95_Vel_0
Time_Shift_2
Note_On_96_Vel_0
Note_On_98_Vel_0
Time_Shift_1
Note_On_41_Vel_0
Time_Shift_6
Sustain_Off
Time_Shift_275
Note_On_91_Vel_106
Time_Shift_1
Note_On_64_Vel_96
Time_Shift_4
Note_On_58_Vel_88
Time_Shift_12
Note_On_84_Vel_91
Time_Shift_2
Note_On_53_Vel_72
Time_Shift_2
Sustain_On
Time_Shift_110
Note_On_93_Vel_107
Time_Shift_95
Sustain_Off
Time_Shift_30
Note_On_91_Vel_0
Time_Shift_1
Note_On_93_Vel_0
Time_Shift_10
Note_On_53_Vel_0
Note_On_64_Vel_0
Note_On_89_Vel_109
Time_Shift_3
Note_On_65_Vel_99
Note_On_84_Vel_0
Time_Shift_2
Note_On_57_Vel_87
Time_Shift_1
Note_On_53_Vel_82
Time_Shift_38
Note_On_65_Vel_0
Time_Shift_1
Note_On_89_Vel_0
Time_Shift_1
Note_On_58_Vel_0
Time_Shift_1
Note_On_57_Vel_0
Time_Shift_2
Note_On_53_Vel_0
Time_Shift_187
Note_On_41_Vel_73
Time_Shift_51
Note_On_48_Vel_85
Time_Shift_36
Sustain_On
Time_Shift_8
Note_On_93_Vel_102
Time_Shift_1
Note_On_101_Vel_110
Time_Shift_3
Note_On_53_Vel_63
Time_Shift_4
Note_On_89_Vel_99
Time_Shift_8
Note_On_99_Vel_64
Time_Shift_3
Note_On_57_Vel_87
Time_Shift_249
Note_On_99_Vel_0
Time_Shift_27
Note_On_41_Vel_0
Note_On_101_Vel_0
Time_Shift_1
Note_On_93_Vel_0
Time_Shift_1
Note_On_48_Vel_0
Note_On_89_Vel_0
Time_Shift_5
Note_On_57_Vel_0
Sustain_Off
Time_Shift_4
Note_On_53_Vel_0
Time_Shift_338
Sustain_On
Time_Shift_258
Note_On_79_Vel_77
Time_Shift_7
Note_On_67_Vel_80
Time_Shift_1
Note_On_55_Vel_73
Note_On_60_Vel_75
Time_Shift_1
Note_On_76_Vel_67
Note_On_64_Vel_71
Time_Shift_2
Note_On_79_Vel_0
Time_Shift_1
Note_On_48_Vel_73
Time_Shift_168
Note_On_76_Vel_0
Time_Shift_134
Note_On_83_Vel_68
Note_On_71_Vel_79
Time_Shift_4
Note_On_83_Vel_0
Time_Shift_46
Note_On_64_Vel_0
Time_Shift_1
Note_On_72_Vel_99
Time_Shift_7
Note_On_48_Vel_0
Note_On_55_Vel_0
Note_On_60_Vel_0
Time_Shift_1
Note_On_64_Vel_80
Time_Shift_3
Note_On_55_Vel_72
Time_Shift_1
Note_On_60_Vel_81
Time_Shift_3
Sustain_Off
Time_Shift_2
Note_On_48_Vel_78
Time_Shift_23
Note_On_67_Vel_0
Time_Shift_2
Note_On_71_Vel_0
Time_Shift_57
Sustain_On
Time_Shift_238
Note_On_69_Vel_81
Time_Shift_1
Note_On_81_Vel_77
Time_Shift_10
Note_On_63_Vel_71
Time_Shift_5
Note_On_60_Vel_0
Time_Shift_7
Note_On_48_Vel_0
Time_Shift_2
Note_On_60_Vel_61
Time_Shift_1
Note_On_54_Vel_66
Time_Shift_1
Sustain_Off
Note_On_72_Vel_0
Time_Shift_1
Note_On_71_Vel_81
Time_Shift_1
Note_On_48_Vel_62
Time_Shift_10
Note_On_55_Vel_0
Note_On_64_Vel_0
Time_Shift_17
Note_On_63_Vel_0
Time_Shift_44
Sustain_On
Time_Shift_62
Note_On_71_Vel_0
Time_Shift_9
Note_On_71_Vel_65
Time_Shift_3
Note_On_83_Vel_68
Time_Shift_18
Note_On_69_Vel_0
Note_On_81_Vel_0
Time_Shift_6
Note_On_81_Vel_63
Time_Shift_4
Note_On_69_Vel_72
Time_Shift_90
Note_On_71_Vel_0
Note_On_83_Vel_0
Time_Shift_11
Note_On_71_Vel_72
Time_Shift_1
Note_On_83_Vel_76
Time_Shift_4
Note_On_81_Vel_0
Time_Shift_4
Note_On_81_Vel_75
Time_Shift_3
Note_On_69_Vel_0
Time_Shift_11
Note_On_69_Vel_79
Time_Shift_45
Note_On_79_Vel_82
Time_Shift_3
Note_On_67_Vel_89
Time_Shift_7
Sustain_Off
Time_Shift_3
Note_On_48_Vel_0
Note_On_60_Vel_0
Time_Shift_10
Note_On_64_Vel_72
Time_Shift_1
Note_On_48_Vel_78
Note_On_60_Vel_75
Time_Shift_1
Note_On_55_Vel_60
Time_Shift_4
Note_On_81_Vel_0
Time_Shift_3
Note_On_69_Vel_0
Time_Shift_1
Note_On_83_Vel_0
Time_Shift_11
Note_On_54_Vel_0
Time_Shift_8
Note_On_71_Vel_0
Time_Shift_1
Note_On_60_Vel_0
Time_Shift_4
Note_On_64_Vel_0
Time_Shift_2
Note_On_79_Vel_0
Time_Shift_7
Note_On_48_Vel_0
Time_Shift_24
Note_On_55_Vel_0
Time_Shift_54
Sustain_On
Time_Shift_272
Sustain_Off
Time_Shift_7
Note_On_72_Vel_92
Time_Shift_4
Note_On_64_Vel_78
Time_Shift_3
Note_On_43_Vel_64
Time_Shift_3
Note_On_48_Vel_64
Time_Shift_1
Note_On_36_Vel_66
Time_Shift_36
Note_On_43_Vel_0
Time_Shift_27
Note_On_67_Vel_0
Time_Shift_16
Note_On_48_Vel_0
Time_Shift_23
Sustain_On
Time_Shift_230
Note_On_36_Vel_0
Time_Shift_9
Note_On_43_Vel_68
Time_Shift_1
Note_On_36_Vel_77
Time_Shift_282
Note_On_43_Vel_0
Time_Shift_7
Note_On_36_Vel_0
Note_On_64_Vel_0
Time_Shift_1
Note_On_79_Vel_79
Time_Shift_2
Note_On_43_Vel_67
Time_Shift_1
Note_On_36_Vel_75
Note_On_64_Vel_78
Time_Shift_1
Note_On_67_Vel_82
Note_On_48_Vel_78
Time_Shift_242
Note_On_71_Vel_80
Time_Shift_30
Note_On_72_Vel_0
Time_Shift_8
Note_On_36_Vel_0
Note_On_48_Vel_0
Note_On_64_Vel_0
Time_Shift_3
Note_On_72_Vel_94
Time_Shift_5
Note_On_64_Vel_71
Sustain_Off
Time_Shift_3
Note_On_48_Vel_73
Note_On_36_Vel_70
Time_Shift_12
Note_On_67_Vel_0
Time_Shift_30
Note_On_43_Vel_0
Time_Shift_23
Sustain_On
Time_Shift_63
Note_On_74_Vel_98
Time_Shift_60
Note_On_79_Vel_0
Time_Shift_77
Note_On_48_Vel_0
Note_On_64_Vel_0
Time_Shift_4
Note_On_76_Vel_92
Note_On_60_Vel_81
Time_Shift_4
Note_On_48_Vel_74
Time_Shift_1
Note_On_64_Vel_77
Time_Shift_3
Sustain_Off
Time_Shift_34
Sustain_On
Time_Shift_8
Note_On_71_Vel_0
Time_Shift_61
Note_On_72_Vel_0
Time_Shift_10
Note_On_72_Vel_97
Time_Shift_136
Note_On_64_Vel_0
Note_On_76_Vel_0
Time_Shift_7
Note_On_70_Vel_75
Time_Shift_1
Note_On_60_Vel_0
Time_Shift_3
Note_On_64_Vel_78
Note_On_76_Vel_87
Time_Shift_3
Note_On_60_Vel_70
Time_Shift_1
Note_On_55_Vel_68
Time_Shift_1
Note_On_48_Vel_0
Note_On_70_Vel_0
Time_Shift_4
Note_On_48_Vel_71
Time_Shift_117
Note_On_78_Vel_93
Time_Shift_1
Note_On_81_Vel_78
Time_Shift_4
Note_On_69_Vel_73
Time_Shift_50
Note_On_36_Vel_0
Note_On_48_Vel_0
Time_Shift_9
Note_On_48_Vel_73
Time_Shift_2
Note_On_36_Vel_73
Time_Shift_39
Sustain_Off
Time_Shift_1
Note_On_72_Vel_0
Note_On_74_Vel_0
Note_On_64_Vel_0
Note_On_55_Vel_0
Note_On_69_Vel_0
Note_On_76_Vel_0
Time_Shift_1
Note_On_48_Vel_0
Note_On_36_Vel_0
Note_On_81_Vel_0
Time_Shift_3
Note_On_78_Vel_0
Time_Shift_7
Note_On_60_Vel_0
Time_Shift_27
Note_On_79_Vel_98
Time_Shift_7
Note_On_67_Vel_76
Time_Shift_2
Note_On_64_Vel_76
Time_Shift_40
Sustain_On
Time_Shift_246
Note_On_64_Vel_0
Note_On_67_Vel_0
Time_Shift_1
Note_On_48_Vel_62
Time_Shift_4
Note_On_67_Vel_63
Note_On_55_Vel_47
Time_Shift_1
Note_On_64_Vel_57
Time_Shift_5
Note_On_60_Vel_49
Time_Shift_5
Note_On_60_Vel_0
Time_Shift_184
Note_On_48_Vel_0
Time_Shift_11
Note_On_48_Vel_70
Time_Shift_20
Note_On_55_Vel_0
Time_Shift_6
Note_On_55_Vel_49
Time_Shift_15
Note_On_60_Vel_46
Time_Shift_48
Note_On_64_Vel_0
Note_On_67_Vel_0
Note_On_79_Vel_0
Time_Shift_4
Note_On_79_Vel_85
Time_Shift_6
Note_On_64_Vel_64
Time_Shift_1
Note_On_67_Vel_68
Time_Shift_217
Note_On_78_Vel_72
Time_Shift_25
Note_On_48_Vel_0
Time_Shift_5
Note_On_48_Vel_64
Time_Shift_26
Note_On_55_Vel_0
Time_Shift_6
Note_On_55_Vel_50
Time_Shift_4
Note_On_76_Vel_86
Time_Shift_16
Note_On_67_Vel_0
Time_Shift_2
Note_On_79_Vel_0
Time_Shift_1
Note_On_78_Vel_0
Time_Shift_5
Sustain_Off
Time_Shift_12
Note_On_60_Vel_0
Time_Shift_15
Note_On_64_Vel_0
Time_Shift_5
Note_On_64_Vel_71
Time_Shift_11
Note_On_48_Vel_0
Time_Shift_23
Sustain_On
Time_Shift_94
Note_On_78_Vel_91
Time_Shift_104
Note_On_48_Vel_66
Time_Shift_58
Sustain_Off
Time_Shift_1
Note_On_64_Vel_0
Time_Shift_5
Note_On_76_Vel_0
Time_Shift_7
Note_On_55_Vel_0
Note_On_74_Vel_85
Time_Shift_3
Note_On_57_Vel_71
Time_Shift_9
Note_On_66_Vel_71
Time_Shift_1
Note_On_62_Vel_68
Time_Shift_17
Sustain_On
Time_Shift_115
Note_On_78_Vel_0
Time_Shift_12
Note_On_78_Vel_86
Time_Shift_42
Note_On_48_Vel_0
Time_Shift_11
Note_On_48_Vel_70
Time_Shift_45
Note_On_55_Vel_64
Time_Shift_32
Note_On_74_Vel_0
Note_On_62_Vel_0
Note_On_66_Vel_0
Time_Shift_1
Note_On_78_Vel_0
Note_On_48_Vel_0
Note_On_57_Vel_0
Time_Shift_2
Sustain_Off
Time_Shift_25
Note_On_79_Vel_92
Time_Shift_3
Note_On_67_Vel_73
Time_Shift_1
Note_On_64_Vel_65
Time_Shift_11
Sustain_On
Time_Shift_133
Note_On_81_Vel_76
Note_On_69_Vel_83
Time_Shift_189
Note_On_67_Vel_0
Time_Shift_4
Note_On_46_Vel_85
Time_Shift_1
Note_On_67_Vel_75
Time_Shift_1
Note_On_50_Vel_70
Time_Shift_5
Sustain_Off
Time_Shift_6
Note_On_55_Vel_0
Time_Shift_1
Note_On_64_Vel_0
Time_Shift_1
Note_On_79_Vel_0
Note_On_69_Vel_0
Time_Shift_43
Sustain_On
Time_Shift_103
Note_On_80_Vel_95
Time_Shift_181
Note_On_81_Vel_0
Time_Shift_54
Note_On_67_Vel_0
Time_Shift_1
Note_On_81_Vel_88
Time_Shift_4
Note_On_73_Vel_76
Time_Shift_6
Note_On_67_Vel_58
Time_Shift_4
Note_On_69_Vel_53
Time_Shift_5
Note_On_52_Vel_60
Time_Shift_1
Note_On_45_Vel_61
Time_Shift_3
Sustain_Off
Note_On_46_Vel_0
Time_Shift_1
Note_On_80_Vel_0
Time_Shift_1
Note_On_50_Vel_0
Time_Shift_89
Sustain_On
Time_Shift_138
Note_On_79_Vel_88
Time_Shift_235
Note_On_81_Vel_0
Note_On_67_Vel_0
Note_On_73_Vel_0
Time_Shift_1
Note_On_45_Vel_0
Time_Shift_6
Sustain_Off
Time_Shift_4
Note_On_69_Vel_0
Time_Shift_8
Note_On_52_Vel_0
Time_Shift_7
Note_On_79_Vel_0
Time_Shift_5
Note_On_79_Vel_75
Time_Shift_3
Note_On_50_Vel_54
Time_Shift_3
Note_On_38_Vel_57
Time_Shift_51
Sustain_On
Time_Shift_174
Note_On_78_Vel_81
Time_Shift_145
Note_On_74_Vel_78
Time_Shift_12
Note_On_62_Vel_49
Time_Shift_2
Note_On_38_Vel_0
Note_On_79_Vel_0
Note_On_72_Vel_70
Time_Shift_2
Sustain_Off
Time_Shift_1
Note_On_57_Vel_50
Time_Shift_2
Note_On_50_Vel_0
Time_Shift_4
Note_On_50_Vel_52
Time_Shift_80
Sustain_On
Time_Shift_261
Note_On_62_Vel_0
Note_On_72_Vel_0
Time_Shift_2
Sustain_Off
Time_Shift_5
Note_On_72_Vel_72
Time_Shift_1
Note_On_78_Vel_0
Time_Shift_3
Note_On_62_Vel_51
Time_Shift_1
Note_On_78_Vel_68
Time_Shift_4
Note_On_50_Vel_0
Note_On_57_Vel_0
Time_Shift_5
Note_On_50_Vel_46
Time_Shift_3
Note_On_57_Vel_42
Time_Shift_68
Sustain_On
Time_Shift_332
Note_On_72_Vel_0
Time_Shift_1
Note_On_78_Vel_0
Note_On_57_Vel_0
Time_Shift_1
Note_On_50_Vel_0
Time_Shift_1
Sustain_Off
Time_Shift_25
Note_On_79_Vel_71
Time_Shift_1
Note_On_62_Vel_0
Time_Shift_3
Note_On_43_Vel_45
Time_Shift_11
Note_On_55_Vel_35
Time_Shift_4
Note_On_71_Vel_38
Time_Shift_13
Note_On_74_Vel_0
Time_Shift_8
Sustain_On
Time_Shift_119
Note_On_74_Vel_63
Time_Shift_25
Note_On_72_Vel_45
Time_Shift_40
Note_On_43_Vel_0
Time_Shift_105
Note_On_72_Vel_0
Sustain_Off
Time_Shift_1
Note_On_79_Vel_0
Time_Shift_9
Note_On_71_Vel_0
Note_On_74_Vel_0
Time_Shift_6
Note_On_74_Vel_56
Time_Shift_1
Note_On_71_Vel_55
Time_Shift_1
Note_On_55_Vel_0
Time_Shift_3
Note_On_62_Vel_45
Time_Shift_3
Note_On_55_Vel_38
Time_Shift_52
Note_On_55_Vel_0
Time_Shift_42
Sustain_On
Time_Shift_31
Note_On_62_Vel_0
Time_Shift_266
Note_On_71_Vel_0
Note_On_74_Vel_0
Time_Shift_22
Sustain_Off
Time_Shift_7
Note_On_79_Vel_65
Time_Shift_6
Note_On_70_Vel_59
Time_Shift_15
Note_On_62_Vel_40
Time_Shift_2
Note_On_55_Vel_46
Time_Shift_38
Note_On_62_Vel_0
Time_Shift_3
Note_On_55_Vel_0
Time_Shift_40
Sustain_On
Time_Shift_67
Note_On_77_Vel_70
Time_Shift_223
Note_On_79_Vel_0
Time_Shift_3
Note_On_70_Vel_0
Time_Shift_1
Note_On_77_Vel_0
Time_Shift_1
Sustain_Off
Time_Shift_39
Note_On_62_Vel_43
Time_Shift_3
Note_On_76_Vel_62
Time_Shift_5
Note_On_55_Vel_41
Time_Shift_1
Note_On_70_Vel_55
Time_Shift_43
Note_On_76_Vel_0
Note_On_55_Vel_0
Time_Shift_2
Note_On_62_Vel_0
Note_On_70_Vel_0
Time_Shift_11
Sustain_On
Time_Shift_15
Note_On_77_Vel_73
Time_Shift_64
Note_On_77_Vel_0
Time_Shift_6
Sustain_Off
Time_Shift_2
Note_On_76_Vel_74
Time_Shift_68
Note_On_76_Vel_0
Time_Shift_7
Note_On_75_Vel_88
Time_Shift_27
Note_On_57_Vel_66
Time_Shift_1
Note_On_69_Vel_65
Time_Shift_7
Note_On_61_Vel_52
Time_Shift_37
Note_On_57_Vel_0
Time_Shift_1
Note_On_61_Vel_0
Time_Shift_34
Note_On_69_Vel_0
Time_Shift_31
Sustain_On
Time_Shift_47
Note_On_76_Vel_71
Time_Shift_132
Sustain_Off
Time_Shift_1
Note_On_75_Vel_0
Time_Shift_3
Note_On_76_Vel_0
Time_Shift_62
Note_On_79_Vel_65
Time_Shift_8
Note_On_57_Vel_54
Time_Shift_3
Note_On_67_Vel_54
Time_Shift_3
Note_On_61_Vel_51
Time_Shift_29
Note_On_67_Vel_0
Time_Shift_42
Sustain_On
Time_Shift_62
Note_On_77_Vel_75
Time_Shift_142
Sustain_Off
Time_Shift_5
Note_On_61_Vel_0
Time_Shift_1
Note_On_57_Vel_0
Note_On_79_Vel_0
Time_Shift_2
Note_On_77_Vel_0
Time_Shift_39
Note_On_76_Vel_65
Time_Shift_5
Note_On_50_Vel_57
Time_Shift_1
Note_On_65_Vel_45
Time_Shift_73
Sustain_On
Time_Shift_123
Note_On_65_Vel_0
Time_Shift_97
Note_On_69_Vel_60
Time_Shift_41
Note_On_50_Vel_0
Time_Shift_4
Sustain_Off
Time_Shift_2
Note_On_76_Vel_0
Time_Shift_1
Note_On_69_Vel_0
Time_Shift_28
Note_On_74_Vel_78
Time_Shift_23
Note_On_62_Vel_44
Note_On_57_Vel_49
Time_Shift_2
Note_On_65_Vel_50
Time_Shift_4
Note_On_69_Vel_52
Time_Shift_52
Sustain_On
Time_Shift_273
Note_On_65_Vel_0
Note_On_57_Vel_0
Note_On_62_Vel_0
Sustain_Off
Time_Shift_2
Note_On_74_Vel_0
Time_Shift_9
Note_On_69_Vel_0
Time_Shift_44
Note_On_62_Vel_49
Time_Shift_6
Note_On_65_Vel_45
Time_Shift_1
Note_On_44_Vel_47
Time_Shift_56
Sustain_On
Time_Shift_94
Note_On_72_Vel_72
Time_Shift_98
Note_On_44_Vel_0
Time_Shift_11
Note_On_62_Vel_0
Time_Shift_1
Note_On_65_Vel_0
Note_On_72_Vel_0
Sustain_Off
Time_Shift_55
Note_On_43_Vel_59
Time_Shift_48
Note_On_43_Vel_0
Time_Shift_20
Note_On_71_Vel_65
Time_Shift_7
Note_On_65_Vel_52
Time_Shift_30
Note_On_65_Vel_0
Time_Shift_1
Note_On_71_Vel_0
Time_Shift_24
Note_On_72_Vel_74
Time_Shift_66
Note_On_71_Vel_70
Time_Shift_19
Note_On_72_Vel_0
Time_Shift_46
Note_On_71_Vel_0
Time_Shift_1
Note_On_70_Vel_79
Time_Shift_28
Note_On_62_Vel_59
Time_Shift_3
Note_On_67_Vel_45
Time_Shift_3
Note_On_55_Vel_44
Time_Shift_26
Note_On_62_Vel_0
Time_Shift_11
Note_On_55_Vel_0
Time_Shift_23
Note_On_67_Vel_0
Time_Shift_7
Sustain_On
Time_Shift_50
Note_On_71_Vel_81
Time_Shift_16
Note_On_70_Vel_0
Time_Shift_137
Note_On_71_Vel_0
Time_Shift_1
Sustain_Off
Time_Shift_6
Note_On_65_Vel_68
Time_Shift_1
Note_On_72_Vel_92
Time_Shift_1
Note_On_62_Vel_63
Time_Shift_9
Note_On_55_Vel_44
Time_Shift_18
Note_On_65_Vel_0
Time_Shift_7
Note_On_62_Vel_0
Time_Shift_13
Note_On_55_Vel_0
Time_Shift_57
Note_On_72_Vel_0
Time_Shift_24
Note_On_74_Vel_80
Time_Shift_110
Note_On_74_Vel_0
Time_Shift_51
Note_On_67_Vel_70
Time_Shift_12
Note_On_64_Vel_62
Time_Shift_6
Note_On_48_Vel_57
Time_Shift_42
Sustain_On
Time_Shift_203
Note_On_71_Vel_80
Time_Shift_31
Note_On_64_Vel_0
Note_On_67_Vel_0
Time_Shift_2
Note_On_48_Vel_0
Time_Shift_6
Sustain_Off
Time_Shift_28
Note_On_72_Vel_91
Time_Shift_4
Note_On_60_Vel_51
Time_Shift_5
Note_On_55_Vel_42
Time_Shift_1
Note_On_64_Vel_62
Time_Shift_16
Note_On_71_Vel_0
Time_Shift_18
Note_On_64_Vel_0
Time_Shift_5
Note_On_60_Vel_0
Time_Shift_11
Note_On_55_Vel_0
Time_Shift_69
Sustain_On
Time_Shift_219
Note_On_72_Vel_0
Time_Shift_12
Sustain_Off
Time_Shift_5
Note_On_67_Vel_70
Time_Shift_11
Note_On_46_Vel_57
Time_Shift_68
Sustain_On
Time_Shift_76
Note_On_74_Vel_83
Time_Shift_148
Note_On_74_Vel_0
Note_On_67_Vel_0
Time_Shift_1
Note_On_46_Vel_0
Time_Shift_5
Sustain_Off
Time_Shift_27
Note_On_45_Vel_68
Time_Shift_23
Note_On_76_Vel_80
Time_Shift_5
Note_On_74_Vel_69
Time_Shift_8
Note_On_45_Vel_0
Time_Shift_22
Sustain_On
Time_Shift_49
Note_On_77_Vel_82
Time_Shift_66
Note_On_76_Vel_0
Time_Shift_6
Note_On_76_Vel_70
Time_Shift_46
Note_On_75_Vel_92
Time_Shift_28
Sustain_Off
Time_Shift_2
Note_On_73_Vel_78
Time_Shift_7
Note_On_67_Vel_62
Time_Shift_3
Note_On_64_Vel_65
Time_Shift_7
Note_On_57_Vel_63
Time_Shift_30
Note_On_77_Vel_0
Note_On_76_Vel_0
Time_Shift_2
Note_On_74_Vel_0
Time_Shift_2
Note_On_67_Vel_0
Time_Shift_2
Note_On_64_Vel_0
Time_Shift_1
Note_On_57_Vel_0
Time_Shift_1
Note_On_75_Vel_0
Time_Shift_71
Note_On_73_Vel_0
Time_Shift_14
Note_On_76_Vel_79
Time_Shift_58
Note_On_76_Vel_0
Time_Shift_108
Note_On_79_Vel_83
Time_Shift_8
Note_On_64_Vel_55
Time_Shift_5
Note_On_57_Vel_57
Time_Shift_2
Note_On_73_Vel_64
Time_Shift_1
Note_On_67_Vel_43
Time_Shift_32
Note_On_73_Vel_0
Time_Shift_5
Note_On_64_Vel_0
Note_On_67_Vel_0
Note_On_79_Vel_0
Time_Shift_1
Note_On_57_Vel_0
Time_Shift_68
Note_On_77_Vel_87
Time_Shift_40
Note_On_77_Vel_0
Time_Shift_133
Note_On_76_Vel_70
Time_Shift_1
Note_On_72_Vel_65
Time_Shift_2
Note_On_66_Vel_64
Time_Shift_5
Note_On_50_Vel_61
Time_Shift_54
Sustain_On
Time_Shift_212
Note_On_69_Vel_66
Time_Shift_57
Note_On_66_Vel_0
Time_Shift_8
Note_On_69_Vel_0
Time_Shift_3
Note_On_66_Vel_86
Note_On_78_Vel_78
Note_On_74_Vel_85
Time_Shift_3
Note_On_62_Vel_61
Note_On_69_Vel_72
Time_Shift_3
Note_On_57_Vel_65
Time_Shift_3
Sustain_Off
Time_Shift_6
Note_On_50_Vel_0
Time_Shift_2
Note_On_76_Vel_0
Note_On_72_Vel_0
Time_Shift_26
Note_On_78_Vel_0
Time_Shift_6
Note_On_57_Vel_0
Time_Shift_9
Note_On_69_Vel_0
Time_Shift_46
Note_On_62_Vel_0
Time_Shift_8
Sustain_On
Time_Shift_274
Sustain_Off
Time_Shift_8
Note_On_65_Vel_78
Time_Shift_2
Note_On_66_Vel_0
Time_Shift_4
Note_On_44_Vel_56
Time_Shift_73
Sustain_On
Time_Shift_86
Note_On_72_Vel_87
Time_Shift_110
Note_On_65_Vel_0
Time_Shift_4
Note_On_44_Vel_0
Time_Shift_2
Note_On_74_Vel_0
Time_Shift_8
Sustain_Off
Time_Shift_10
Note_On_72_Vel_0
Time_Shift_31
Note_On_71_Vel_79
Note_On_43_Vel_69
Time_Shift_2
Note_On_65_Vel_70
Time_Shift_1
Note_On_31_Vel_68
Time_Shift_7
Note_On_31_Vel_0
Time_Shift_22
Note_On_43_Vel_0
Time_Shift_1
Sustain_On
Time_Shift_117
Note_On_81_Vel_83
Time_Shift_125
Note_On_81_Vel_0
Sustain_Off
Time_Shift_4
Note_On_65_Vel_0
Time_Shift_7
Note_On_71_Vel_0
Time_Shift_9
Note_On_80_Vel_88
Time_Shift_3
Note_On_71_Vel_74
Time_Shift_8
Note_On_65_Vel_61
Note_On_55_Vel_44
Time_Shift_1
Note_On_62_Vel_60
Time_Shift_56
Sustain_On
Time_Shift_54
Note_On_65_Vel_0
Time_Shift_12
Note_On_91_Vel_80
Note_On_79_Vel_87
Time_Shift_11
Note_On_91_Vel_0
Time_Shift_138
Note_On_62_Vel_0
Time_Shift_2
Sustain_Off
Time_Shift_1
Note_On_80_Vel_0
Time_Shift_5
Note_On_55_Vel_0
Note_On_71_Vel_0
Time_Shift_3
Note_On_78_Vel_91
Note_On_62_Vel_66
Time_Shift_1
Note_On_65_Vel_59
Time_Shift_5
Note_On_55_Vel_58
Time_Shift_2
Note_On_71_Vel_72
Time_Shift_33
Note_On_55_Vel_0
Time_Shift_10
Note_On_65_Vel_0
Time_Shift_23
Note_On_78_Vel_0
Time_Shift_15
Sustain_On
Time_Shift_42
Note_On_89_Vel_88
Note_On_77_Vel_93
Time_Shift_4
Note_On_89_Vel_0
Time_Shift_77
Note_On_62_Vel_0
Time_Shift_69
Note_On_79_Vel_0
Time_Shift_28
Sustain_Off
Time_Shift_3
Note_On_71_Vel_0
Time_Shift_8
Note_On_77_Vel_0
Time_Shift_6
Note_On_48_Vel_79
Note_On_72_Vel_86
Time_Shift_1
Note_On_88_Vel_84
Note_On_76_Vel_92
Time_Shift_2
Note_On_84_Vel_80
Time_Shift_2
Note_On_77_Vel_79
Time_Shift_4
Note_On_88_Vel_0
Time_Shift_46
Note_On_84_Vel_0
Time_Shift_15
Sustain_On
Time_Shift_23
Note_On_48_Vel_0
Time_Shift_85
Note_On_77_Vel_0
Time_Shift_38
Note_On_76_Vel_0
Time_Shift_23
Note_On_72_Vel_0
Time_Shift_128
Note_On_79_Vel_67
Time_Shift_1
Note_On_74_Vel_77
Time_Shift_1
Note_On_67_Vel_75
Time_Shift_45
Sustain_Off
Time_Shift_14
Note_On_72_Vel_87
Time_Shift_12
Note_On_64_Vel_77
Time_Shift_5
Note_On_55_Vel_63
Note_On_67_Vel_0
Time_Shift_8
Note_On_48_Vel_64
Time_Shift_1
Note_On_74_Vel_0
Note_On_79_Vel_0
Time_Shift_77
Sustain_On
Time_Shift_489
Note_On_55_Vel_0
Note_On_64_Vel_0
Note_On_72_Vel_0
Time_Shift_3
Note_On_48_Vel_0
Time_Shift_2
Sustain_Off
Time_Shift_145
Note_On_38_Vel_89
Time_Shift_45
Sustain_On
Time_Shift_236
Note_On_72_Vel_99
Time_Shift_2
Note_On_38_Vel_0
Time_Shift_3
Note_On_57_Vel_93
Time_Shift_2
Note_On_66_Vel_86
Time_Shift_5
Note_On_50_Vel_85
Time_Shift_1
Note_On_38_Vel_90
Time_Shift_457
Note_On_72_Vel_0
Time_Shift_5
Note_On_72_Vel_97
Time_Shift_3
Note_On_50_Vel_0
Note_On_57_Vel_0
Note_On_66_Vel_0
Time_Shift_7
Sustain_Off
Time_Shift_1
Note_On_38_Vel_0
Note_On_62_Vel_74
Time_Shift_1
Note_On_57_Vel_80
Time_Shift_2
Note_On_50_Vel_82
Note_On_66_Vel_79
Time_Shift_1
Note_On_38_Vel_80
Time_Shift_49
Sustain_On
Time_Shift_39
Note_On_62_Vel_0
Time_Shift_77
Note_On_38_Vel_0
Time_Shift_169
Note_On_50_Vel_0
Note_On_66_Vel_0
Time_Shift_1
Note_On_62_Vel_80
Time_Shift_1
Note_On_71_Vel_88
Time_Shift_2
Note_On_50_Vel_75
Note_On_66_Vel_77
Time_Shift_1
Note_On_38_Vel_70
Time_Shift_133
Note_On_72_Vel_0
Time_Shift_7
Note_On_69_Vel_89
Time_Shift_2
Note_On_72_Vel_79
Time_Shift_2
Note_On_60_Vel_77
Time_Shift_12
Note_On_66_Vel_0
Time_Shift_4
Note_On_66_Vel_57
Time_Shift_147
Sustain_Off
Note_On_72_Vel_0
Note_On_62_Vel_0
Time_Shift_1
Note_On_60_Vel_0
Note_On_69_Vel_0
Note_On_57_Vel_0
Note_On_66_Vel_0
Time_Shift_17
Note_On_38_Vel_0
Note_On_71_Vel_0
Time_Shift_5
Note_On_71_Vel_89
Time_Shift_5
Note_On_67_Vel_86
Time_Shift_2
Note_On_59_Vel_93
Time_Shift_4
Note_On_55_Vel_79
Time_Shift_38
Sustain_On
Time_Shift_207
Note_On_50_Vel_0
Note_On_55_Vel_0
Note_On_71_Vel_0
Time_Shift_5
Note_On_43_Vel_67
Time_Shift_3
Note_On_67_Vel_0
Time_Shift_2
Note_On_79_Vel_88
Note_On_71_Vel_79
Time_Shift_1
Note_On_50_Vel_64
Note_On_55_Vel_65
Time_Shift_1
Note_On_67_Vel_73
Time_Shift_80
Note_On_59_Vel_0
Time_Shift_8
Note_On_50_Vel_0
Time_Shift_1
Sustain_Off
Time_Shift_2
Note_On_59_Vel_82
Note_On_74_Vel_89
Time_Shift_1
Note_On_83_Vel_92
Time_Shift_5
Note_On_50_Vel_52
Note_On_43_Vel_0
Time_Shift_2
Note_On_55_Vel_0
Note_On_81_Vel_75
Note_On_67_Vel_0
Time_Shift_1
Note_On_79_Vel_0
Time_Shift_88
Sustain_On
Time_Shift_30
Note_On_71_Vel_0
Time_Shift_259
Note_On_84_Vel_97
Time_Shift_4
Note_On_76_Vel_85
Time_Shift_1
Note_On_72_Vel_91
Time_Shift_5
Note_On_59_Vel_0
Time_Shift_8
Note_On_50_Vel_0
Time_Shift_3
Note_On_59_Vel_66
Time_Shift_5
Note_On_55_Vel_53
Time_Shift_3
Note_On_50_Vel_61
Time_Shift_4
Sustain_Off
Time_Shift_85
Sustain_On
Time_Shift_203
Note_On_84_Vel_0
Note_On_74_Vel_0
Note_On_59_Vel_0
Note_On_72_Vel_0
Note_On_50_Vel_0
Note_On_76_Vel_0
Sustain_Off
Note_On_83_Vel_0
Time_Shift_4
Note_On_81_Vel_0
Time_Shift_8
Note_On_55_Vel_0
Time_Shift_29
Note_On_38_Vel_73
Note_On_83_Vel_88
Time_Shift_1
Note_On_74_Vel_85
Time_Shift_5
Note_On_71_Vel_80
Time_Shift_18
Sustain_On
Time_Shift_153
Note_On_72_Vel_95
Time_Shift_2
Note_On_81_Vel_95
Time_Shift_2
Note_On_69_Vel_82
Time_Shift_135
Note_On_69_Vel_0
Note_On_81_Vel_0
Time_Shift_5
Note_On_81_Vel_84
Time_Shift_3
Note_On_69_Vel_87
Time_Shift_4
Note_On_78_Vel_88
Time_Shift_10
Note_On_66_Vel_81
Time_Shift_11
Note_On_60_Vel_70
Time_Shift_3
Sustain_Off
Time_Shift_2
Note_On_83_Vel_0
Time_Shift_2
Note_On_74_Vel_0
Time_Shift_1
Note_On_71_Vel_0
Time_Shift_2
Note_On_57_Vel_64
Time_Shift_1
Note_On_50_Vel_72
Time_Shift_10
Note_On_38_Vel_0
Time_Shift_77
Sustain_On
Time_Shift_230
Note_On_78_Vel_0
Time_Shift_6
Note_On_74_Vel_88
Note_On_83_Vel_89
Time_Shift_2
Note_On_50_Vel_0
Note_On_57_Vel_0
Time_Shift_2
Note_On_78_Vel_75
Time_Shift_3
Note_On_71_Vel_83
Time_Shift_4
Note_On_62_Vel_59
Time_Shift_1
Note_On_57_Vel_61
Time_Shift_1
Note_On_50_Vel_63
Time_Shift_4
Note_On_62_Vel_0
Time_Shift_1
Note_On_60_Vel_0
Time_Shift_286
Note_On_43_Vel_56
Time_Shift_5
Note_On_69_Vel_0
Note_On_72_Vel_0
Note_On_81_Vel_0
Time_Shift_5
Note_On_72_Vel_84
Time_Shift_1
Note_On_81_Vel_89
Time_Shift_3
Note_On_69_Vel_77
Time_Shift_2
Sustain_Off
Time_Shift_7
Note_On_83_Vel_0
Note_On_74_Vel_0
Time_Shift_1
Note_On_66_Vel_0
Note_On_71_Vel_0
Note_On_78_Vel_0
Time_Shift_12
Note_On_50_Vel_0
Time_Shift_7
Note_On_57_Vel_0
Time_Shift_31
Sustain_On
Time_Shift_133
Note_On_79_Vel_94
Time_Shift_2
Note_On_71_Vel_83
Note_On_67_Vel_74
Time_Shift_126
Note_On_43_Vel_0
Time_Shift_6
Note_On_43_Vel_78
Time_Shift_29
Note_On_50_Vel_76
Time_Shift_4
Note_On_67_Vel_0
Time_Shift_3
Note_On_74_Vel_102
Time_Shift_2
Note_On_62_Vel_100
Time_Shift_6
Note_On_67_Vel_84
Time_Shift_14
Sustain_Off
Time_Shift_5
Note_On_79_Vel_0
Note_On_71_Vel_0
Time_Shift_8
Note_On_69_Vel_0
Note_On_72_Vel_0
Note_On_81_Vel_0
Note_On_71_Vel_68
Time_Shift_14
Note_On_59_Vel_85
Time_Shift_78
Sustain_On
Time_Shift_452
Note_On_76_Vel_94
Time_Shift_3
Note_On_64_Vel_87
Time_Shift_14
Note_On_43_Vel_0
Time_Shift_199
Note_On_62_Vel_0
Time_Shift_8
Note_On_74_Vel_0
Time_Shift_3
Note_On_72_Vel_91
Time_Shift_1
Note_On_62_Vel_95
Time_Shift_1
Sustain_Off
Note_On_74_Vel_87
Time_Shift_1
Note_On_71_Vel_0
Note_On_59_Vel_0
Time_Shift_2
Note_On_50_Vel_0
Time_Shift_1
Note_On_64_Vel_0
Note_On_76_Vel_0
Time_Shift_4
Note_On_50_Vel_80
Time_Shift_1
Note_On_38_Vel_82
Time_Shift_1
Note_On_67_Vel_0
Time_Shift_70
Sustain_On
Time_Shift_23
Note_On_38_Vel_0
Time_Shift_130
Note_On_74_Vel_0
Time_Shift_62
Note_On_72_Vel_0
Time_Shift_3
Note_On_69_Vel_79
Time_Shift_3
Note_On_72_Vel_69
Time_Shift_5
Note_On_60_Vel_49
Time_Shift_4
Note_On_60_Vel_0
Time_Shift_77
Note_On_62_Vel_0
Note_On_72_Vel_0
Time_Shift_6
Note_On_74_Vel_80
Time_Shift_1
Note_On_62_Vel_86
Note_On_69_Vel_0
Time_Shift_2
Note_On_60_Vel_75
Time_Shift_1
Note_On_72_Vel_86
Time_Shift_1
Sustain_Off
Time_Shift_5
Note_On_69_Vel_74
Time_Shift_107
Sustain_On
Time_Shift_307
Note_On_69_Vel_0
Time_Shift_4
Note_On_81_Vel_80
Time_Shift_2
Sustain_Off
Time_Shift_2
Note_On_60_Vel_0
Note_On_74_Vel_0
Time_Shift_3
Note_On_69_Vel_82
Time_Shift_1
Note_On_72_Vel_0
Time_Shift_3
Note_On_50_Vel_0
Time_Shift_2
Note_On_74_Vel_82
Time_Shift_2
Note_On_60_Vel_75
Note_On_54_Vel_64
Time_Shift_7
Note_On_50_Vel_67
Time_Shift_5
Sustain_On
Time_Shift_266
Note_On_54_Vel_0
Time_Shift_6
Sustain_Off
Time_Shift_4
Note_On_60_Vel_0
Note_On_81_Vel_0
Time_Shift_8
Note_On_50_Vel_0
Note_On_62_Vel_0
Note_On_69_Vel_0
Note_On_74_Vel_0
Time_Shift_4
Note_On_62_Vel_83
Time_Shift_1
Note_On_74_Vel_80
Time_Shift_1
Note_On_71_Vel_79
Time_Shift_2
Note_On_43_Vel_78
Time_Shift_1
Note_On_50_Vel_66
Time_Shift_4
Note_On_69_Vel_67
Time_Shift_1
Note_On_55_Vel_71
Time_Shift_40
Sustain_On
Time_Shift_184
Note_On_71_Vel_0
Time_Shift_10
Note_On_71_Vel_83
Time_Shift_1
Note_On_79_Vel_82
Time_Shift_1
Note_On_67_Vel_72
Time_Shift_80
Note_On_74_Vel_0
Time_Shift_5
Note_On_74_Vel_92
Time_Shift_1
Note_On_83_Vel_98
Time_Shift_2
Note_On_55_Vel_0
Note_On_69_Vel_0
Time_Shift_11
Note_On_55_Vel_70
Time_Shift_4
Note_On_50_Vel_0
Time_Shift_4
Note_On_59_Vel_75
Time_Shift_1
Note_On_71_Vel_0
Note_On_67_Vel_0
Time_Shift_1
Note_On_62_Vel_0
Note_On_79_Vel_0
Time_Shift_5
Note_On_50_Vel_69
Sustain_Off
Time_Shift_27
Note_On_43_Vel_0
Time_Shift_77
Sustain_On
Time_Shift_261
Note_On_74_Vel_0
Time_Shift_2
Note_On_86_Vel_88
Note_On_78_Vel_84
Time_Shift_8
Note_On_74_Vel_72
Time_Shift_6
Note_On_55_Vel_0
Note_On_59_Vel_0
Time_Shift_4
Note_On_55_Vel_46
Time_Shift_2
Note_On_59_Vel_66
Time_Shift_1
Note_On_50_Vel_0
Time_Shift_4
Note_On_50_Vel_58
Time_Shift_177
Note_On_76_Vel_84
Time_Shift_1
Note_On_84_Vel_95
Time_Shift_4
Note_On_72_Vel_86
Time_Shift_149
Sustain_Off
Time_Shift_3
Note_On_50_Vel_0
Note_On_74_Vel_0
Note_On_83_Vel_0
Time_Shift_3
Note_On_59_Vel_0
Note_On_84_Vel_0
Time_Shift_1
Note_On_86_Vel_0
Note_On_72_Vel_0
Note_On_78_Vel_0
Note_On_74_Vel_93
Time_Shift_1
Note_On_83_Vel_94
Time_Shift_1
Note_On_76_Vel_0
Time_Shift_1
Note_On_38_Vel_82
Time_Shift_1
Note_On_55_Vel_0
Time_Shift_1
Note_On_50_Vel_69
Time_Shift_2
Note_On_71_Vel_84
Time_Shift_58
Sustain_On
Time_Shift_174
Note_On_81_Vel_91
Time_Shift_3
Note_On_72_Vel_90
Time_Shift_3
Note_On_69_Vel_79
Time_Shift_5
Note_On_50_Vel_0
Time_Shift_5
Note_On_50_Vel_47
Time_Shift_72
Note_On_69_Vel_0
Note_On_81_Vel_0
Time_Shift_6
Note_On_81_Vel_91
Time_Shift_2
Note_On_69_Vel_94
Time_Shift_5
Note_On_66_Vel_85
Time_Shift_1
Note_On_78_Vel_91
Time_Shift_6
Note_On_83_Vel_0
Time_Shift_2
Note_On_74_Vel_0
Time_Shift_1
Note_On_50_Vel_0
Note_On_71_Vel_0
Time_Shift_1
Sustain_Off
Time_Shift_1
Note_On_60_Vel_66
Time_Shift_5
Note_On_38_Vel_0
Time_Shift_1
Note_On_50_Vel_71
Time_Shift_4
Note_On_57_Vel_63
Time_Shift_72
Sustain_On
Time_Shift_215
Note_On_72_Vel_0
Time_Shift_39
Note_On_57_Vel_0
Time_Shift_1
Note_On_83_Vel_99
Time_Shift_1
Note_On_74_Vel_94
Time_Shift_5
Note_On_50_Vel_0
Time_Shift_3
Note_On_71_Vel_91
Time_Shift_1
Note_On_57_Vel_67
Time_Shift_4
Note_On_60_Vel_0
Time_Shift_2
Note_On_78_Vel_0
Time_Shift_2
Note_On_50_Vel_69
Note_On_62_Vel_66
Note_On_66_Vel_0
Note_On_69_Vel_0
Time_Shift_3
Note_On_60_Vel_59
Time_Shift_1
Sustain_Off
Time_Shift_23
Note_On_81_Vel_0
Time_Shift_61
Sustain_On
Time_Shift_237
Sustain_Off
Time_Shift_1
Note_On_50_Vel_0
Time_Shift_2
Note_On_71_Vel_0
Note_On_83_Vel_0
Time_Shift_1
Note_On_60_Vel_0
Note_On_74_Vel_0
Time_Shift_5
Note_On_57_Vel_0
Note_On_62_Vel_0
Time_Shift_2
Note_On_50_Vel_49
Time_Shift_2
Note_On_43_Vel_48
Time_Shift_7
Note_On_81_Vel_89
Time_Shift_7
Note_On_69_Vel_70
Time_Shift_1
Note_On_72_Vel_75
Time_Shift_12
Note_On_50_Vel_0
Time_Shift_38
Sustain_On
Time_Shift_169
Note_On_79_Vel_85
Time_Shift_2
Note_On_71_Vel_79
Time_Shift_9
Note_On_50_Vel_47
Time_Shift_1
Note_On_67_Vel_66
Time_Shift_7
Note_On_62_Vel_35
Time_Shift_4
Note_On_62_Vel_0
Time_Shift_115
Note_On_69_Vel_0
Time_Shift_8
Note_On_72_Vel_0
Time_Shift_4
Note_On_81_Vel_0
Time_Shift_3
Note_On_71_Vel_0
Note_On_79_Vel_0
Time_Shift_6
Note_On_71_Vel_67
Time_Shift_2
Note_On_67_Vel_0
Time_Shift_1
Sustain_Off
Time_Shift_3
Note_On_79_Vel_71
Note_On_74_Vel_46
Note_On_67_Vel_60
Time_Shift_4
Note_On_43_Vel_0
Note_On_50_Vel_0
Time_Shift_5
Note_On_50_Vel_51
Time_Shift_3
Note_On_74_Vel_0
Time_Shift_3
Note_On_59_Vel_53
Time_Shift_66
Sustain_On
Time_Shift_380
Note_On_50_Vel_0
Note_On_71_Vel_0
Note_On_59_Vel_0
Time_Shift_1
Note_On_79_Vel_0
Sustain_Off
Time_Shift_16
Note_On_78_Vel_75
Time_Shift_10
Note_On_67_Vel_0
Note_On_58_Vel_38
Time_Shift_2
Note_On_49_Vel_43
Time_Shift_2
Note_On_67_Vel_52
Note_On_70_Vel_42
Time_Shift_65
Sustain_On
Time_Shift_137
Note_On_76_Vel_67
Time_Shift_231
Note_On_70_Vel_0
Time_Shift_3
Note_On_49_Vel_0
Time_Shift_1
Note_On_58_Vel_0
Note_On_76_Vel_0
Note_On_78_Vel_0
Note_On_67_Vel_0
Time_Shift_4
Sustain_Off
Time_Shift_19
Note_On_74_Vel_64
Time_Shift_5
Note_On_57_Vel_53
Time_Shift_1
Note_On_50_Vel_46
Time_Shift_6
Note_On_72_Vel_68
Time_Shift_5
Note_On_66_Vel_55
Time_Shift_41
Sustain_On
Time_Shift_127
Note_On_71_Vel_68
Time_Shift_3
Note_On_74_Vel_0
Time_Shift_6
Note_On_74_Vel_64
Time_Shift_121
Note_On_72_Vel_0
Time_Shift_1
Note_On_71_Vel_0
Time_Shift_1
Note_On_66_Vel_0
Note_On_57_Vel_0
Time_Shift_1
Sustain_Off
Time_Shift_16
Note_On_74_Vel_0
Time_Shift_8
Note_On_50_Vel_0
Time_Shift_2
Note_On_74_Vel_69
Time_Shift_2
Note_On_69_Vel_68
Time_Shift_6
Note_On_50_Vel_54
Time_Shift_5
Note_On_54_Vel_44
Time_Shift_39
Sustain_On
Time_Shift_315
Note_On_74_Vel_0
Time_Shift_7
Note_On_50_Vel_0
Time_Shift_3
Note_On_71_Vel_67
Note_On_74_Vel_57
Time_Shift_2
Note_On_60_Vel_56
Time_Shift_1
Note_On_50_Vel_52
Time_Shift_3
Sustain_Off
Time_Shift_7
Note_On_69_Vel_0
Time_Shift_2
Note_On_54_Vel_0
Time_Shift_23
Note_On_60_Vel_0
Time_Shift_1
Note_On_71_Vel_0
Time_Shift_12
Note_On_74_Vel_0
Time_Shift_8
Note_On_50_Vel_0
Time_Shift_89
Note_On_69_Vel_64
Time_Shift_1
Note_On_74_Vel_52
Time_Shift_31
Note_On_69_Vel_0
Time_Shift_2
Note_On_74_Vel_0
Time_Shift_121
Note_On_74_Vel_78
Time_Shift_2
Note_On_79_Vel_71
Time_Shift_2
Note_On_67_Vel_73
Time_Shift_1
Note_On_43_Vel_62
Time_Shift_3
Note_On_71_Vel_60
Time_Shift_17
Sustain_On
Time_Shift_192
Note_On_71_Vel_0
Time_Shift_6
Note_On_71_Vel_51
Time_Shift_1
Note_On_79_Vel_0
Time_Shift_6
Note_On_79_Vel_60
Time_Shift_60
Sustain_Off
Time_Shift_7
Note_On_71_Vel_0
Time_Shift_1
Note_On_67_Vel_0
Time_Shift_1
Note_On_43_Vel_0
Time_Shift_2
Note_On_74_Vel_0
Note_On_79_Vel_0
Time_Shift_3
Note_On_59_Vel_71
Time_Shift_3
Note_On_50_Vel_62
Time_Shift_2
Note_On_83_Vel_77
Note_On_79_Vel_58
Time_Shift_2
Note_On_74_Vel_65
Time_Shift_26
Note_On_59_Vel_0
Time_Shift_5
Note_On_50_Vel_0
Time_Shift_354
Note_On_50_Vel_64
Time_Shift_3
Note_On_62_Vel_53
Time_Shift_1
Note_On_59_Vel_59
Time_Shift_4
Note_On_55_Vel_50
Time_Shift_30
Note_On_50_Vel_0
Time_Shift_1
Note_On_74_Vel_0
Note_On_59_Vel_0
Time_Shift_7
Note_On_55_Vel_0
Time_Shift_12
Note_On_62_Vel_0
Time_Shift_44
Note_On_84_Vel_67
Time_Shift_5
Note_On_76_Vel_56
Time_Shift_42
Note_On_83_Vel_0
Time_Shift_4
Note_On_84_Vel_0
Time_Shift_8
Note_On_76_Vel_0
Time_Shift_20
Note_On_79_Vel_0
Time_Shift_104
Note_On_38_Vel_72
Time_Shift_3
Note_On_83_Vel_78
Time_Shift_1
Note_On_74_Vel_70
Time_Shift_3
Note_On_78_Vel_59
Time_Shift_4
Note_On_78_Vel_0
Time_Shift_24
Note_On_38_Vel_0
Time_Shift_15
Sustain_On
Time_Shift_181
Note_On_72_Vel_72
Time_Shift_2
Note_On_81_Vel_71
Time_Shift_47
Note_On_83_Vel_0
Time_Shift_12
Note_On_81_Vel_0
Time_Shift_11
Note_On_72_Vel_0
Note_On_74_Vel_0
Time_Shift_1
Note_On_78_Vel_91
Time_Shift_3
Note_On_62_Vel_71
Time_Shift_1
Sustain_Off
Time_Shift_4
Note_On_50_Vel_74
Time_Shift_1
Note_On_74_Vel_68
Time_Shift_1
Note_On_72_Vel_67
Time_Shift_7
Note_On_69_Vel_70
Time_Shift_32
Note_On_62_Vel_0
Time_Shift_13
Note_On_50_Vel_0
Time_Shift_290
Note_On_74_Vel_0
Time_Shift_4
Note_On_50_Vel_72
Time_Shift_4
Note_On_69_Vel_0
Time_Shift_25
Note_On_50_Vel_0
Time_Shift_37
Note_On_72_Vel_0
Time_Shift_49
Note_On_78_Vel_0
Time_Shift_15
Note_On_74_Vel_70
Note_On_83_Vel_81
Time_Shift_54
Note_On_74_Vel_0
Time_Shift_14
Note_On_83_Vel_0
Time_Shift_105
Note_On_43_Vel_67
Time_Shift_1
Note_On_72_Vel_78
Time_Shift_3
Note_On_81_Vel_78
Time_Shift_27
Sustain_On
Time_Shift_229
Note_On_62_Vel_49
Time_Shift_2
Note_On_79_Vel_84
Time_Shift_3
Note_On_71_Vel_80
Time_Shift_74
Sustain_Off
Time_Shift_1
Note_On_72_Vel_0
Time_Shift_1
Note_On_81_Vel_0
Time_Shift_1
Note_On_79_Vel_0
Time_Shift_1
Note_On_74_Vel_83
Time_Shift_3
Note_On_43_Vel_0
Note_On_62_Vel_0
Note_On_71_Vel_0
Time_Shift_5
Note_On_71_Vel_75
Time_Shift_1
Note_On_62_Vel_71
Time_Shift_13
Note_On_55_Vel_56
Time_Shift_29
Note_On_62_Vel_0
Time_Shift_9
Note_On_55_Vel_0
Time_Shift_35
Sustain_On
Time_Shift_338
Note_On_71_Vel_0
Time_Shift_5
Note_On_71_Vel_76
Time_Shift_1
Note_On_62_Vel_61
Time_Shift_5
Note_On_55_Vel_61
Time_Shift_1
Note_On_67_Vel_61
Time_Shift_158
Note_On_76_Vel_77
Time_Shift_120
Note_On_55_Vel_0
Time_Shift_1
Note_On_67_Vel_0
Note_On_62_Vel_0
Time_Shift_1
Note_On_71_Vel_0
Time_Shift_3
Note_On_76_Vel_0
Time_Shift_3
Sustain_Off
Time_Shift_2
Note_On_74_Vel_0
Time_Shift_39
Note_On_74_Vel_85
Time_Shift_2
Note_On_38_Vel_71
Time_Shift_1
Note_On_72_Vel_89
Time_Shift_7
Note_On_69_Vel_71
Time_Shift_20
Sustain_On
Time_Shift_200
Note_On_72_Vel_0
Note_On_74_Vel_0
Time_Shift_9
Note_On_74_Vel_83
Time_Shift_1
Note_On_72_Vel_87
Time_Shift_59
Note_On_74_Vel_0
Time_Shift_11
Note_On_74_Vel_96
Time_Shift_2
Note_On_66_Vel_86
Time_Shift_2
Note_On_62_Vel_79
Time_Shift_10
Sustain_Off
Time_Shift_3
Note_On_50_Vel_69
Time_Shift_2
Note_On_57_Vel_70
Time_Shift_5
Note_On_72_Vel_0
Note_On_69_Vel_0
Time_Shift_19
Note_On_38_Vel_0
Time_Shift_30
Note_On_62_Vel_0
Time_Shift_23
Sustain_On
Time_Shift_185
Note_On_57_Vel_0
Time_Shift_53
Note_On_74_Vel_0
Time_Shift_11
Note_On_74_Vel_95
Time_Shift_1
Note_On_62_Vel_76
Time_Shift_4
Note_On_50_Vel_0
Time_Shift_4
Note_On_72_Vel_90
Time_Shift_1
Note_On_57_Vel_72
Note_On_50_Vel_68
Time_Shift_256
Note_On_66_Vel_0
Time_Shift_1
Note_On_72_Vel_0
Note_On_74_Vel_0
Time_Shift_1
Note_On_57_Vel_0
Time_Shift_1
Note_On_62_Vel_0
Note_On_50_Vel_0
Time_Shift_1
Sustain_Off
Time_Shift_46
Note_On_43_Vel_72
Time_Shift_2
Note_On_74_Vel_81
Time_Shift_4
Note_On_71_Vel_77
Time_Shift_21
Sustain_On
Time_Shift_215
Note_On_71_Vel_0
Time_Shift_6
Note_On_79_Vel_88
Note_On_71_Vel_83
Time_Shift_59
Sustain_Off
Time_Shift_11
Note_On_71_Vel_0
Note_On_74_Vel_0
Time_Shift_4
Note_On_83_Vel_91
Time_Shift_5
Note_On_74_Vel_69
Time_Shift_2
Note_On_71_Vel_64
Time_Shift_1
Note_On_62_Vel_65
Time_Shift_24
Note_On_79_Vel_0
Time_Shift_87
Sustain_On
Time_Shift_16
Note_On_43_Vel_0
Time_Shift_30
Note_On_71_Vel_0
Time_Shift_169
Note_On_62_Vel_0
Time_Shift_12
Note_On_62_Vel_61
Time_Shift_1
Note_On_86_Vel_95
Time_Shift_3
Note_On_74_Vel_0
Time_Shift_9
Note_On_74_Vel_64
Time_Shift_9
Note_On_78_Vel_81
Time_Shift_182
Note_On_84_Vel_94
Time_Shift_6
Note_On_76_Vel_74
Time_Shift_110
Note_On_77_Vel_55
Time_Shift_6
Note_On_77_Vel_0
Time_Shift_77
Note_On_74_Vel_0
Note_On_78_Vel_0
Note_On_83_Vel_0
Time_Shift_1
Note_On_84_Vel_0
Time_Shift_1
Note_On_86_Vel_0
Note_On_62_Vel_0
Note_On_76_Vel_0
Time_Shift_2
Sustain_Off
Note_On_83_Vel_91
Time_Shift_1
Note_On_38_Vel_71
Time_Shift_1
Note_On_74_Vel_78
Time_Shift_3
Note_On_78_Vel_64
Time_Shift_48
Note_On_38_Vel_0
Time_Shift_35
Sustain_On
Time_Shift_77
Note_On_83_Vel_0
Time_Shift_23
Note_On_78_Vel_0
Time_Shift_39
Note_On_74_Vel_0
Time_Shift_5
Note_On_74_Vel_42
Time_Shift_116
Note_On_82_Vel_78
Time_Shift_4
Note_On_73_Vel_71
Time_Shift_62
Note_On_81_Vel_85
Time_Shift_15
Note_On_62_Vel_58
Time_Shift_12
Note_On_72_Vel_67
Time_Shift_2
Note_On_50_Vel_61
Time_Shift_1
Note_On_78_Vel_59
Note_On_74_Vel_0
Time_Shift_2
Note_On_73_Vel_0
Time_Shift_5
Sustain_Off
Time_Shift_98
Sustain_On
Time_Shift_31
Note_On_82_Vel_0
Time_Shift_357
Note_On_83_Vel_80
Time_Shift_11
Note_On_50_Vel_0
Time_Shift_8
Note_On_62_Vel_0
Time_Shift_2
Note_On_50_Vel_53
Time_Shift_4
Note_On_74_Vel_35
Time_Shift_4
Note_On_62_Vel_45
Time_Shift_343
Note_On_81_Vel_0
Time_Shift_4
Note_On_81_Vel_76
Time_Shift_4
Note_On_72_Vel_0
Time_Shift_10
Note_On_72_Vel_64
Time_Shift_21
Note_On_50_Vel_0
Time_Shift_1
Note_On_78_Vel_0
Sustain_Off
Note_On_62_Vel_0
Time_Shift_1
Note_On_83_Vel_0
Time_Shift_3
Note_On_55_Vel_37
Time_Shift_10
Note_On_74_Vel_0
Time_Shift_69
Sustain_On
Time_Shift_195
Note_On_80_Vel_83
Time_Shift_13
Note_On_72_Vel_0
Time_Shift_4
Note_On_72_Vel_63
Time_Shift_287
Note_On_79_Vel_74
Time_Shift_5
Note_On_62_Vel_37
Time_Shift_7
Note_On_71_Vel_52
Time_Shift_24
Note_On_72_Vel_0
Note_On_80_Vel_0
Time_Shift_6
Sustain_Off
Time_Shift_12
Note_On_81_Vel_0
Time_Shift_92
Sustain_On
Time_Shift_344
Note_On_78_Vel_53
Time_Shift_25
Note_On_71_Vel_0
Time_Shift_9
Note_On_71_Vel_36
Time_Shift_45
Sustain_Off
Time_Shift_84
Sustain_On
Time_Shift_219
Note_On_77_Vel_65
Time_Shift_19
Note_On_71_Vel_0
Time_Shift_5
Note_On_71_Vel_47
Time_Shift_218
Note_On_55_Vel_0
Time_Shift_8
Note_On_77_Vel_0
Time_Shift_2
Note_On_55_Vel_38
Time_Shift_4
Note_On_71_Vel_0
Time_Shift_2
Note_On_77_Vel_47
Time_Shift_1
Note_On_78_Vel_0
Time_Shift_3
Sustain_Off
Time_Shift_3
Note_On_79_Vel_0
Time_Shift_8
Note_On_62_Vel_0
Time_Shift_11
Note_On_62_Vel_35
Time_Shift_29
Note_On_70_Vel_44
Time_Shift_1
Note_On_76_Vel_48
Time_Shift_43
Note_On_77_Vel_0
Time_Shift_6
Note_On_77_Vel_70
Time_Shift_63
Note_On_76_Vel_0
Time_Shift_9
Note_On_76_Vel_58
Time_Shift_10
Note_On_77_Vel_0
Time_Shift_1
Note_On_70_Vel_0
Time_Shift_59
Note_On_75_Vel_73
Time_Shift_6
Note_On_62_Vel_0
Time_Shift_15
Note_On_55_Vel_0
Time_Shift_11
Note_On_69_Vel_61
Time_Shift_7
Note_On_61_Vel_54
Time_Shift_5
Note_On_57_Vel_54
Time_Shift_39
Note_On_76_Vel_0
Time_Shift_15
Note_On_69_Vel_0
Time_Shift_61
Sustain_On
Time_Shift_18
Note_On_76_Vel_70
Time_Shift_6
Note_On_69_Vel_45
Time_Shift_119
Sustain_Off
Time_Shift_10
Note_On_75_Vel_0
Time_Shift_3
Note_On_69_Vel_0
Note_On_76_Vel_0
Time_Shift_6
Note_On_57_Vel_0
Note_On_61_Vel_0
Time_Shift_7
Note_On_45_Vel_59
Time_Shift_27
Note_On_79_Vel_71
Time_Shift_7
Note_On_45_Vel_0
Note_On_67_Vel_45
Time_Shift_43
Sustain_On
Time_Shift_21
Note_On_61_Vel_48
Time_Shift_64
Note_On_77_Vel_80
Time_Shift_150
Note_On_79_Vel_0
Note_On_61_Vel_0
Sustain_Off
Time_Shift_1
Note_On_77_Vel_0
Time_Shift_18
Note_On_67_Vel_0
Time_Shift_13
Note_On_76_Vel_67
Time_Shift_2
Note_On_65_Vel_61
Time_Shift_4
Note_On_50_Vel_63
Note_On_61_Vel_61
Time_Shift_1
Note_On_69_Vel_53
Time_Shift_30
Note_On_65_Vel_0
Time_Shift_1
Note_On_69_Vel_0
Time_Shift_1
Note_On_61_Vel_0
Time_Shift_40
Sustain_On
Time_Shift_176
Note_On_69_Vel_59
Time_Shift_16
Note_On_50_Vel_0
Time_Shift_6
Sustain_Off
Time_Shift_4
Note_On_76_Vel_0
Time_Shift_36
Note_On_69_Vel_0
Time_Shift_3
Note_On_62_Vel_57
Note_On_65_Vel_61
Time_Shift_1
Note_On_74_Vel_70
Time_Shift_7
Note_On_69_Vel_58
Time_Shift_2
Note_On_57_Vel_61
Time_Shift_22
Note_On_62_Vel_0
Time_Shift_1
Note_On_65_Vel_0
Time_Shift_8
Note_On_57_Vel_0
Time_Shift_25
Note_On_69_Vel_0
Time_Shift_31
Sustain_On
Time_Shift_199
Sustain_Off
Time_Shift_8
Note_On_74_Vel_0
Time_Shift_31
Note_On_44_Vel_65
Time_Shift_3
Note_On_62_Vel_56
Time_Shift_1
Note_On_65_Vel_56
Time_Shift_38
Note_On_62_Vel_0
Time_Shift_27
Note_On_44_Vel_0
Time_Shift_8
Note_On_65_Vel_0
Time_Shift_7
Sustain_On
Time_Shift_56
Note_On_72_Vel_69
Time_Shift_105
Note_On_72_Vel_0
Time_Shift_4
Sustain_Off
Time_Shift_70
Note_On_43_Vel_67
Time_Shift_24
Note_On_71_Vel_70
Note_On_43_Vel_0
Time_Shift_14
Note_On_62_Vel_32
Time_Shift_8
Note_On_65_Vel_42
Time_Shift_42
Note_On_71_Vel_0
Time_Shift_8
Note_On_62_Vel_0
Note_On_65_Vel_0
Time_Shift_6
Note_On_72_Vel_67
Time_Shift_60
Note_On_71_Vel_58
Time_Shift_5
Note_On_72_Vel_0
Time_Shift_66
Note_On_70_Vel_72
Time_Shift_6
Note_On_65_Vel_58
Time_Shift_14
Note_On_62_Vel_58
Time_Shift_4
Note_On_71_Vel_0
Time_Shift_4
Note_On_55_Vel_53
Time_Shift_7
Note_On_71_Vel_52
Time_Shift_9
Note_On_65_Vel_0
Time_Shift_6
Note_On_62_Vel_0
Time_Shift_1
Note_On_70_Vel_0
Time_Shift_2
Note_On_55_Vel_0
Time_Shift_55
Note_On_71_Vel_0
Time_Shift_56
Note_On_71_Vel_66
Time_Shift_26
Note_On_71_Vel_0
Time_Shift_150
Note_On_72_Vel_73
Time_Shift_11
Note_On_65_Vel_52
Note_On_62_Vel_63
Time_Shift_9
Note_On_55_Vel_51
Time_Shift_17
Sustain_On
Time_Shift_97
Note_On_74_Vel_67
Time_Shift_57
Note_On_72_Vel_0
Time_Shift_10
Note_On_72_Vel_47
Time_Shift_33
Note_On_72_Vel_0
Note_On_55_Vel_0
Note_On_74_Vel_0
Note_On_65_Vel_0
Time_Shift_2
Note_On_62_Vel_0
Time_Shift_4
Sustain_Off
Time_Shift_45
Note_On_67_Vel_66
Time_Shift_11
Note_On_64_Vel_63
Time_Shift_5
Note_On_48_Vel_65
Time_Shift_1
Note_On_60_Vel_47
Time_Shift_20
Note_On_67_Vel_0
Time_Shift_9
Note_On_64_Vel_0
Time_Shift_4
Note_On_48_Vel_0
Time_Shift_40
Note_On_60_Vel_0
Time_Shift_178
Note_On_71_Vel_68
Time_Shift_55
Note_On_71_Vel_0
Time_Shift_6
Note_On_64_Vel_64
Time_Shift_2
Note_On_60_Vel_54
Time_Shift_1
Note_On_72_Vel_74
Note_On_55_Vel_48
Time_Shift_31
Note_On_64_Vel_0
Time_Shift_3
Note_On_60_Vel_0
Time_Shift_9
Note_On_55_Vel_0
Time_Shift_30
Sustain_On
Time_Shift_207
Sustain_Off
Time_Shift_20
Note_On_67_Vel_58
Time_Shift_15
Note_On_46_Vel_65
Time_Shift_1
Note_On_64_Vel_42
Time_Shift_49
Sustain_On
Time_Shift_68
Note_On_74_Vel_79
Time_Shift_114
Note_On_74_Vel_0
Time_Shift_1
Note_On_67_Vel_0
Time_Shift_2
Note_On_72_Vel_0
Time_Shift_2
Note_On_46_Vel_0
Time_Shift_5
Note_On_64_Vel_0
Time_Shift_2
Sustain_Off
Time_Shift_29
Note_On_45_Vel_80
Time_Shift_27
Note_On_74_Vel_78
Time_Shift_6
Note_On_67_Vel_64
Time_Shift_1
Note_On_76_Vel_74
Time_Shift_19
Sustain_On
Time_Shift_31
Note_On_45_Vel_0
Time_Shift_34
Note_On_77_Vel_79
Time_Shift_66
Note_On_76_Vel_0
Time_Shift_8
Note_On_76_Vel_77
Time_Shift_18
Note_On_74_Vel_0
Time_Shift_31
Note_On_75_Vel_95
Time_Shift_20
Note_On_67_Vel_0
Time_Shift_6
Note_On_64_Vel_71
Time_Shift_5
Note_On_67_Vel_61
Note_On_57_Vel_65
Time_Shift_1
Note_On_73_Vel_71
Time_Shift_3
Note_On_77_Vel_0
Note_On_69_Vel_63
Time_Shift_7
Sustain_Off
Time_Shift_16
Note_On_76_Vel_0
Time_Shift_5
Note_On_64_Vel_0
Time_Shift_7
Note_On_57_Vel_0
Time_Shift_7
Note_On_69_Vel_0
Time_Shift_12
Note_On_67_Vel_0
Time_Shift_2
Note_On_75_Vel_0
Time_Shift_36
Note_On_73_Vel_0
Time_Shift_21
Note_On_76_Vel_88
Time_Shift_157
Note_On_79_Vel_87
Time_Shift_8
Note_On_64_Vel_69
Time_Shift_2
Note_On_73_Vel_79
Note_On_57_Vel_70
Time_Shift_6
Note_On_69_Vel_61
Time_Shift_29
Note_On_76_Vel_0
Time_Shift_2
Note_On_79_Vel_0
Time_Shift_1
Note_On_73_Vel_0
Time_Shift_2
Note_On_64_Vel_0
Time_Shift_6
Note_On_57_Vel_0
Time_Shift_20
Note_On_69_Vel_0
Time_Shift_51
Note_On_77_Vel_85
Time_Shift_43
Note_On_77_Vel_0
Time_Shift_118
Note_On_72_Vel_88
Time_Shift_1
Note_On_76_Vel_89
Time_Shift_4
Note_On_50_Vel_80
Time_Shift_2
Note_On_66_Vel_77
Time_Shift_34
Sustain_On
Time_Shift_216
Note_On_69_Vel_74
Time_Shift_60
Note_On_66_Vel_0
Note_On_69_Vel_0
Time_Shift_6
Note_On_74_Vel_96
Time_Shift_1
Note_On_62_Vel_88
Time_Shift_3
Note_On_66_Vel_88
Time_Shift_2
Note_On_69_Vel_81
Time_Shift_7
Note_On_57_Vel_77
Time_Shift_15
Sustain_Off
Time_Shift_4
Note_On_76_Vel_0
Time_Shift_9
Note_On_50_Vel_0
Note_On_72_Vel_0
Time_Shift_122
Sustain_On
Time_Shift_31
Note_On_57_Vel_0
Time_Shift_154
Note_On_65_Vel_90
Time_Shift_2
Note_On_44_Vel_98
Time_Shift_21
Sustain_Off
Time_Shift_7
Note_On_66_Vel_0
Note_On_69_Vel_0
Time_Shift_16
Note_On_62_Vel_0
Time_Shift_84
Sustain_On
Time_Shift_34
Note_On_72_Vel_94
Time_Shift_97
Note_On_74_Vel_0
Time_Shift_60
Sustain_Off
Time_Shift_2
Note_On_65_Vel_0
Time_Shift_3
Note_On_72_Vel_0
Time_Shift_5
Note_On_44_Vel_0
Time_Shift_33
Note_On_71_Vel_90
Time_Shift_3
Note_On_43_Vel_95
Time_Shift_1
Note_On_65_Vel_85
Time_Shift_46
Sustain_On
Time_Shift_105
Note_On_81_Vel_93
Time_Shift_157
Note_On_43_Vel_0
Note_On_71_Vel_0
Time_Shift_2
Sustain_Off
Time_Shift_1
Note_On_79_Vel_100
Note_On_62_Vel_89
Time_Shift_2
Note_On_71_Vel_88
Note_On_55_Vel_75
Time_Shift_1
Note_On_65_Vel_0
Time_Shift_4
Note_On_81_Vel_0
Time_Shift_40
Note_On_62_Vel_0
Time_Shift_7
Note_On_79_Vel_0
Time_Shift_12
Note_On_71_Vel_0
Time_Shift_7
Note_On_55_Vel_0
Time_Shift_61
Note_On_77_Vel_97
Time_Shift_57
Note_On_77_Vel_0
Time_Shift_94
Note_On_74_Vel_100
Time_Shift_2
Note_On_65_Vel_94
Time_Shift_1
Note_On_59_Vel_95
Time_Shift_1
Note_On_55_Vel_86
Time_Shift_1
Note_On_67_Vel_82
Time_Shift_39
Note_On_65_Vel_0
Time_Shift_4
Note_On_67_Vel_0
Time_Shift_3
Note_On_59_Vel_0
Note_On_74_Vel_0
Time_Shift_4
Note_On_55_Vel_0
Time_Shift_68
Note_On_76_Vel_95
Time_Shift_157
Note_On_76_Vel_0
Time_Shift_16
Note_On_72_Vel_108
Time_Shift_4
Note_On_64_Vel_92
Time_Shift_1
Note_On_60_Vel_102
Time_Shift_3
Note_On_48_Vel_75
Time_Shift_7
Note_On_48_Vel_0
Time_Shift_15
Sustain_On
Time_Shift_10
Note_On_64_Vel_0
Time_Shift_3
Note_On_60_Vel_0
Time_Shift_2
Sustain_Off
Time_Shift_1
Note_On_72_Vel_0
Time_Shift_261
Note_On_36_Vel_73
Time_Shift_61
Note_On_36_Vel_0
Time_Shift_6
Note_On_43_Vel_90
Time_Shift_2
Sustain_On
Time_Shift_3
Note_On_36_Vel_78
Time_Shift_8
Note_On_84_Vel_102
Note_On_72_Vel_107
Time_Shift_3
Note_On_76_Vel_97
Time_Shift_3
Note_On_79_Vel_100
Time_Shift_22
Note_On_52_Vel_79
Time_Shift_7
Note_On_81_Vel_56
Time_Shift_368
Note_On_36_Vel_0
Time_Shift_37
Note_On_76_Vel_0
Note_On_43_Vel_0
Time_Shift_1
Note_On_79_Vel_0
Note_On_84_Vel_0
Time_Shift_2
Note_On_72_Vel_0
Time_Shift_2
Note_On_52_Vel_0
Time_Shift_3
Sustain_Off
Time_Shift_9
Note_On_81_Vel_0
