Ticks_Per_Beat_384
Tempo_500000
Time_Shift_291
Sustain_On
Time_Shift_135
Note_On_58_Vel_71
Time_Shift_912
Note_On_67_Vel_80
Time_Shift_6
Note_On_58_Vel_0
Time_Shift_10
Note_On_58_Vel_65
Time_Shift_1
Note_On_63_Vel_69
Time_Shift_2
Note_On_55_Vel_63
Time_Shift_3
Note_On_39_Vel_53
Note_On_51_Vel_55
Time_Shift_86
Sustain_Off
Time_Shift_258
Sustain_On
Time_Shift_1495
Note_On_65_Vel_77
Time_Shift_14
Note_On_34_Vel_55
Time_Shift_1
Note_On_62_Vel_67
Time_Shift_1
Note_On_56_Vel_65
Time_Shift_2
Note_On_46_Vel_56
Time_Shift_60
Sustain_Off
Time_Shift_6
Note_On_39_Vel_0
Note_On_51_Vel_0
Time_Shift_1
Note_On_55_Vel_0
Note_On_63_Vel_0
Note_On_67_Vel_0
Time_Shift_26
Note_On_58_Vel_0
Time_Shift_107
Sustain_On
Time_Shift_311
Note_On_68_Vel_85
Time_Shift_420
Note_On_67_Vel_83
Time_Shift_6
Note_On_62_Vel_0
Time_Shift_5
Note_On_55_Vel_66
Time_Shift_6
Note_On_62_Vel_65
Time_Shift_1
Note_On_35_Vel_59
Time_Shift_1
Note_On_47_Vel_62
Time_Shift_49
Sustain_Off
Time_Shift_5
Note_On_46_Vel_0
Time_Shift_2
Note_On_34_Vel_0
Note_On_68_Vel_0
Time_Shift_2
Note_On_56_Vel_0
Time_Shift_1
Note_On_65_Vel_0
Time_Shift_159
Sustain_On
Time_Shift_149
Note_On_65_Vel_84
Time_Shift_470
Note_On_63_Vel_72
Time_Shift_3
Note_On_55_Vel_0
Time_Shift_3
Note_On_36_Vel_47
Note_On_60_Vel_54
Time_Shift_1
Note_On_55_Vel_51
Time_Shift_1
Note_On_48_Vel_53
Time_Shift_38
Note_On_47_Vel_0
Note_On_35_Vel_0
Note_On_65_Vel_0
Note_On_67_Vel_0
Time_Shift_3
Sustain_Off
Time_Shift_23
Note_On_62_Vel_0
Time_Shift_315
Sustain_On
Time_Shift_1493
Note_On_62_Vel_67
Time_Shift_3
Note_On_31_Vel_43
Time_Shift_1
Note_On_53_Vel_51
Time_Shift_2
Note_On_43_Vel_46
Note_On_59_Vel_56
Time_Shift_75
Sustain_Off
Time_Shift_2
Note_On_60_Vel_0
Note_On_63_Vel_0
Time_Shift_1
Note_On_36_Vel_0
Time_Shift_5
Note_On_48_Vel_0
Time_Shift_23
Note_On_55_Vel_0
Time_Shift_307
Sustain_On
Time_Shift_1409
Note_On_60_Vel_74
Time_Shift_4
Note_On_53_Vel_0
Time_Shift_2
Note_On_51_Vel_63
Time_Shift_1
Note_On_56_Vel_58
Time_Shift_1
Note_On_32_Vel_54
Time_Shift_3
Note_On_44_Vel_61
Time_Shift_39
Note_On_59_Vel_0
Time_Shift_18
Sustain_Off
Time_Shift_28
Note_On_43_Vel_0
Time_Shift_70
Note_On_31_Vel_0
Time_Shift_99
Note_On_62_Vel_0
Time_Shift_8
Sustain_On
Time_Shift_630
Note_On_56_Vel_0
Time_Shift_3
Note_On_68_Vel_87
Time_Shift_5
Note_On_60_Vel_0
Time_Shift_1
Note_On_56_Vel_73
Note_On_41_Vel_64
Note_On_29_Vel_64
Time_Shift_1
Note_On_65_Vel_76
Time_Shift_2
Note_On_60_Vel_65
Time_Shift_76
Note_On_32_Vel_0
Note_On_51_Vel_0
Time_Shift_1
Note_On_44_Vel_0
Time_Shift_7
Sustain_Off
Time_Shift_226
Sustain_On
Time_Shift_604
Note_On_67_Vel_85
Time_Shift_8
Note_On_46_Vel_67
Note_On_58_Vel_70
Time_Shift_1
Note_On_55_Vel_74
Note_On_63_Vel_78
Time_Shift_5
Note_On_34_Vel_62
Time_Shift_69
Sustain_Off
Time_Shift_1
Note_On_29_Vel_0
Time_Shift_2
Note_On_41_Vel_0
Note_On_68_Vel_0
Time_Shift_1
Note_On_56_Vel_0
Time_Shift_1
Note_On_65_Vel_0
Time_Shift_7
Note_On_60_Vel_0
Time_Shift_223
Sustain_On
Time_Shift_630
Note_On_34_Vel_0
Note_On_46_Vel_0
Time_Shift_4
Note_On_46_Vel_68
Time_Shift_4
Note_On_34_Vel_64
Time_Shift_20
Note_On_53_Vel_73
Time_Shift_56
Note_On_58_Vel_0
Time_Shift_6
Sustain_Off
Time_Shift_4
Note_On_58_Vel_76
Time_Shift_9
Note_On_55_Vel_0
Note_On_67_Vel_0
Time_Shift_2
Note_On_63_Vel_0
Time_Shift_36
Note_On_62_Vel_77
Time_Shift_5
Note_On_53_Vel_0
Time_Shift_53
Sustain_On
Time_Shift_41
Note_On_68_Vel_89
Time_Shift_783
Note_On_65_Vel_76
Time_Shift_6
Note_On_58_Vel_0
Time_Shift_4
Note_On_56_Vel_62
Time_Shift_1
Note_On_58_Vel_46
Time_Shift_1
Note_On_53_Vel_43
Time_Shift_293
Note_On_58_Vel_0
Note_On_65_Vel_0
Time_Shift_8
Note_On_56_Vel_0
Note_On_62_Vel_0
Time_Shift_2
Note_On_65_Vel_68
Time_Shift_2
Note_On_58_Vel_65
Time_Shift_1
Note_On_62_Vel_68
Time_Shift_4
Note_On_56_Vel_68
Time_Shift_3
Note_On_39_Vel_54
Note_On_51_Vel_57
Time_Shift_52
Sustain_Off
Time_Shift_25
Note_On_68_Vel_0
Time_Shift_26
Note_On_34_Vel_0
Time_Shift_23
Note_On_46_Vel_0
Time_Shift_177
Sustain_On
Time_Shift_300
Note_On_53_Vel_0
Time_Shift_422
Note_On_51_Vel_0
Time_Shift_4
Note_On_34_Vel_48
Time_Shift_3
Note_On_46_Vel_50
Time_Shift_12
Sustain_Off
Time_Shift_73
Sustain_On
Time_Shift_1042
Note_On_63_Vel_52
Time_Shift_3
Note_On_39_Vel_0
Time_Shift_1
Note_On_55_Vel_40
Time_Shift_2
Note_On_27_Vel_34
Time_Shift_2
Note_On_39_Vel_29
Time_Shift_107
Sustain_Off
Time_Shift_5
Note_On_46_Vel_0
Note_On_34_Vel_0
Time_Shift_13
Note_On_56_Vel_0
Note_On_62_Vel_0
Time_Shift_8
Note_On_65_Vel_0
Time_Shift_322
Sustain_On
Time_Shift_768
Note_On_63_Vel_0
Time_Shift_1
Note_On_55_Vel_0
Note_On_27_Vel_0
Time_Shift_2
Sustain_Off
Note_On_39_Vel_0
Time_Shift_13
Note_On_58_Vel_0
Time_Shift_10
Note_On_58_Vel_53
Time_Shift_274
Sustain_On
Time_Shift_742
Note_On_67_Vel_59
Time_Shift_3
Note_On_58_Vel_0
Time_Shift_6
Note_On_63_Vel_60
Time_Shift_2
Note_On_39_Vel_41
Time_Shift_1
Note_On_55_Vel_53
Time_Shift_2
Note_On_51_Vel_46
Note_On_58_Vel_49
Time_Shift_91
Sustain_Off
Time_Shift_266
Sustain_On
Time_Shift_1519
Note_On_65_Vel_68
Time_Shift_16
Note_On_34_Vel_40
Time_Shift_5
Note_On_62_Vel_56
Note_On_56_Vel_52
Note_On_46_Vel_41
Time_Shift_69
Note_On_55_Vel_0
Note_On_51_Vel_0
Note_On_63_Vel_0
Note_On_39_Vel_0
Time_Shift_1
Note_On_67_Vel_0
Sustain_Off
Time_Shift_1
Note_On_58_Vel_0
Time_Shift_286
Sustain_On
Time_Shift_146
Note_On_68_Vel_72
Time_Shift_419
Note_On_67_Vel_64
Time_Shift_19
Note_On_62_Vel_0
Note_On_55_Vel_56
Time_Shift_4
Note_On_62_Vel_52
Time_Shift_2
Note_On_47_Vel_50
Note_On_35_Vel_49
Time_Shift_38
Note_On_34_Vel_0
Time_Shift_2
Note_On_56_Vel_0
Note_On_46_Vel_0
Note_On_65_Vel_0
Time_Shift_1
Note_On_68_Vel_0
Time_Shift_5
Sustain_Off
Time_Shift_163
Sustain_On
Time_Shift_179
Note_On_65_Vel_68
Time_Shift_457
Note_On_63_Vel_69
Time_Shift_9
Note_On_55_Vel_0
Time_Shift_2
Note_On_60_Vel_52
Time_Shift_1
Note_On_36_Vel_44
Time_Shift_2
Note_On_48_Vel_48
Time_Shift_2
Note_On_55_Vel_51
Time_Shift_65
Sustain_Off
Time_Shift_1
Note_On_35_Vel_0
Note_On_65_Vel_0
Note_On_67_Vel_0
Note_On_47_Vel_0
Time_Shift_19
Note_On_62_Vel_0
Time_Shift_300
Sustain_On
Time_Shift_1682
Note_On_60_Vel_0
Time_Shift_5
Note_On_62_Vel_60
Note_On_60_Vel_50
Time_Shift_3
Note_On_55_Vel_0
Time_Shift_7
Note_On_55_Vel_42
Note_On_43_Vel_49
Note_On_31_Vel_43
Time_Shift_90
Note_On_63_Vel_0
Time_Shift_6
Note_On_36_Vel_0
Time_Shift_4
Note_On_48_Vel_0
Time_Shift_10
Sustain_Off
Time_Shift_305
Sustain_On
Time_Shift_628
Note_On_59_Vel_51
Time_Shift_19
Sustain_Off
Time_Shift_106
Sustain_On
Time_Shift_363
Note_On_53_Vel_47
Time_Shift_551
Note_On_60_Vel_0
Time_Shift_8
Note_On_60_Vel_57
Time_Shift_21
Note_On_56_Vel_40
Time_Shift_4
Note_On_51_Vel_45
Time_Shift_1
Note_On_32_Vel_43
Time_Shift_5
Note_On_44_Vel_48
Time_Shift_57
Sustain_Off
Time_Shift_6
Note_On_31_Vel_0
Time_Shift_1
Note_On_59_Vel_0
Note_On_62_Vel_0
Time_Shift_1
Note_On_43_Vel_0
Time_Shift_1
Note_On_53_Vel_0
Time_Shift_10
Note_On_55_Vel_0
Time_Shift_153
Sustain_On
Time_Shift_689
Note_On_68_Vel_78
Time_Shift_9
Note_On_65_Vel_68
Time_Shift_1
Note_On_56_Vel_0
Note_On_60_Vel_0
Time_Shift_3
Note_On_41_Vel_54
Time_Shift_4
Note_On_60_Vel_57
Time_Shift_2
Note_On_29_Vel_55
Time_Shift_2
Note_On_56_Vel_58
Time_Shift_12
Note_On_44_Vel_0
Time_Shift_82
Sustain_Off
Time_Shift_3
Note_On_51_Vel_0
Time_Shift_38
Note_On_32_Vel_0
Time_Shift_169
Sustain_On
Time_Shift_671
Note_On_67_Vel_80
Time_Shift_8
Note_On_46_Vel_62
Time_Shift_1
Note_On_58_Vel_64
Note_On_63_Vel_75
Note_On_55_Vel_71
Time_Shift_2
Note_On_34_Vel_60
Time_Shift_51
Sustain_Off
Time_Shift_41
Note_On_65_Vel_0
Time_Shift_2
Note_On_68_Vel_0
Note_On_56_Vel_0
Note_On_41_Vel_0
Time_Shift_1
Note_On_29_Vel_0
Time_Shift_6
Note_On_60_Vel_0
Time_Shift_123
Sustain_On
Time_Shift_653
Note_On_46_Vel_0
Time_Shift_8
Note_On_34_Vel_0
Time_Shift_1
Note_On_46_Vel_63
Time_Shift_7
Note_On_34_Vel_66
Time_Shift_35
Note_On_53_Vel_72
Time_Shift_57
Note_On_58_Vel_0
Time_Shift_4
Note_On_58_Vel_72
Time_Shift_46
Note_On_62_Vel_71
Time_Shift_65
Note_On_55_Vel_0
Time_Shift_14
Note_On_68_Vel_92
Time_Shift_17
Note_On_53_Vel_0
Note_On_63_Vel_0
Time_Shift_53
Note_On_67_Vel_0
Time_Shift_658
Note_On_65_Vel_83
Time_Shift_15
Note_On_56_Vel_73
Time_Shift_333
Note_On_65_Vel_0
Time_Shift_8
Note_On_62_Vel_0
Time_Shift_1
Note_On_65_Vel_86
Time_Shift_7
Note_On_56_Vel_0
Note_On_58_Vel_0
Time_Shift_3
Note_On_62_Vel_75
Time_Shift_2
Note_On_58_Vel_68
Time_Shift_3
Note_On_51_Vel_68
Time_Shift_2
Note_On_39_Vel_66
Time_Shift_1
Note_On_56_Vel_74
Time_Shift_48
Sustain_Off
Time_Shift_22
Note_On_68_Vel_0
Time_Shift_26
Note_On_34_Vel_0
Time_Shift_8
Note_On_46_Vel_0
Time_Shift_192
Sustain_On
Time_Shift_708
Sustain_Off
Time_Shift_10
Note_On_51_Vel_0
Note_On_46_Vel_56
Note_On_34_Vel_56
Time_Shift_204
Sustain_On
Time_Shift_911
Note_On_55_Vel_49
Time_Shift_4
Note_On_63_Vel_56
Time_Shift_6
Note_On_39_Vel_0
Time_Shift_3
Note_On_27_Vel_38
Time_Shift_1
Note_On_39_Vel_33
Time_Shift_74
Sustain_Off
Note_On_34_Vel_0
Time_Shift_1
Note_On_46_Vel_0
Time_Shift_13
Note_On_56_Vel_0
Note_On_62_Vel_0
Time_Shift_16
Note_On_65_Vel_0
Time_Shift_261
Sustain_On
Time_Shift_644
Sustain_Off
Time_Shift_2
Note_On_63_Vel_0
Time_Shift_2
Note_On_55_Vel_0
Time_Shift_1
Note_On_39_Vel_0
Time_Shift_4
Note_On_58_Vel_0
Time_Shift_15
Note_On_27_Vel_0
Time_Shift_44
Note_On_58_Vel_52
Time_Shift_7
Note_On_46_Vel_43
Time_Shift_87
Sustain_On
Time_Shift_914
Note_On_46_Vel_0
Note_On_58_Vel_0
Time_Shift_4
Note_On_65_Vel_63
Time_Shift_3
Note_On_58_Vel_45
Time_Shift_1
Note_On_46_Vel_46
Time_Shift_5
Note_On_62_Vel_54
Time_Shift_2
Note_On_53_Vel_45
Note_On_34_Vel_39
Time_Shift_69
Sustain_Off
Time_Shift_385
Sustain_On
Time_Shift_1036
Note_On_53_Vel_0
Note_On_65_Vel_0
Time_Shift_7
Note_On_68_Vel_72
Time_Shift_1
Note_On_65_Vel_63
Time_Shift_3
Note_On_53_Vel_41
Time_Shift_1
Note_On_56_Vel_56
Time_Shift_528
Note_On_67_Vel_78
Time_Shift_8
Note_On_63_Vel_67
Time_Shift_5
Note_On_55_Vel_60
Note_On_34_Vel_0
Note_On_46_Vel_0
Time_Shift_6
Note_On_46_Vel_50
Time_Shift_2
Note_On_34_Vel_51
Time_Shift_35
Sustain_Off
Time_Shift_16
Note_On_56_Vel_0
Note_On_68_Vel_0
Time_Shift_1
Note_On_62_Vel_0
Note_On_53_Vel_0
Time_Shift_33
Note_On_65_Vel_0
Time_Shift_176
Sustain_On
Time_Shift_419
Note_On_66_Vel_72
Time_Shift_2
Note_On_54_Vel_72
Time_Shift_2
Note_On_34_Vel_0
Note_On_46_Vel_0
Time_Shift_4
Note_On_62_Vel_62
Time_Shift_2
Sustain_Off
Time_Shift_4
Note_On_46_Vel_45
Time_Shift_1
Note_On_34_Vel_49
Time_Shift_19
Sustain_On
Time_Shift_139
Note_On_58_Vel_0
Time_Shift_92
Note_On_67_Vel_0
Time_Shift_7
Note_On_67_Vel_87
Note_On_34_Vel_0
Note_On_46_Vel_0
Note_On_55_Vel_0
Note_On_63_Vel_0
Time_Shift_5
Note_On_55_Vel_76
Note_On_63_Vel_79
Time_Shift_1
Note_On_46_Vel_66
Time_Shift_3
Note_On_58_Vel_66
Time_Shift_1
Note_On_34_Vel_64
Time_Shift_6
Note_On_58_Vel_0
Time_Shift_21
Sustain_Off
Time_Shift_12
Note_On_54_Vel_0
Time_Shift_2
Note_On_62_Vel_0
Time_Shift_1
Note_On_66_Vel_0
Time_Shift_286
Sustain_On
Time_Shift_449
Note_On_70_Vel_86
Time_Shift_4
Note_On_67_Vel_0
Time_Shift_2
Note_On_58_Vel_66
Time_Shift_3
Note_On_67_Vel_72
Time_Shift_364
Note_On_70_Vel_0
Time_Shift_8
Note_On_46_Vel_0
Note_On_58_Vel_0
Note_On_63_Vel_0
Time_Shift_3
Note_On_70_Vel_91
Time_Shift_2
Note_On_58_Vel_72
Time_Shift_2
Note_On_55_Vel_0
Time_Shift_3
Note_On_46_Vel_61
Time_Shift_1
Note_On_63_Vel_75
Time_Shift_1
Note_On_55_Vel_61
Time_Shift_57
Note_On_34_Vel_0
Time_Shift_11
Sustain_Off
Time_Shift_7
Note_On_67_Vel_0
Time_Shift_243
Sustain_On
Time_Shift_796
Note_On_69_Vel_67
Time_Shift_8
Note_On_54_Vel_52
Time_Shift_1
Note_On_60_Vel_44
Time_Shift_11
Note_On_48_Vel_39
Time_Shift_28
Sustain_Off
Time_Shift_16
Note_On_58_Vel_0
Time_Shift_8
Note_On_55_Vel_0
Time_Shift_7
Note_On_70_Vel_0
Time_Shift_254
Sustain_On
Time_Shift_724
Note_On_68_Vel_53
Time_Shift_2
Note_On_58_Vel_40
Time_Shift_4
Note_On_46_Vel_0
Time_Shift_7
Note_On_46_Vel_42
Time_Shift_1
Note_On_53_Vel_36
Time_Shift_3
Note_On_62_Vel_45
Time_Shift_42
Note_On_48_Vel_0
Time_Shift_12
Sustain_Off
Time_Shift_1
Note_On_54_Vel_0
Time_Shift_1
Note_On_60_Vel_0
Time_Shift_2
Note_On_69_Vel_0
Time_Shift_15
Note_On_63_Vel_0
Time_Shift_253
Sustain_On
Time_Shift_692
Note_On_46_Vel_0
Time_Shift_4
Note_On_34_Vel_48
Time_Shift_1
Note_On_46_Vel_42
Time_Shift_105
Sustain_Off
Time_Shift_5
Sustain_On
Time_Shift_1009
Note_On_67_Vel_84
Time_Shift_5
Note_On_58_Vel_0
Time_Shift_3
Note_On_63_Vel_71
Note_On_39_Vel_60
Time_Shift_1
Note_On_58_Vel_66
Note_On_55_Vel_66
Time_Shift_1
Note_On_51_Vel_61
Time_Shift_11
Note_On_34_Vel_0
Time_Shift_30
Note_On_53_Vel_0
Time_Shift_5
Sustain_Off
Time_Shift_187
Note_On_62_Vel_0
Time_Shift_15
Sustain_On
Time_Shift_100
Note_On_68_Vel_0
Time_Shift_599
Note_On_67_Vel_0
Time_Shift_8
Note_On_39_Vel_0
Note_On_51_Vel_0
Note_On_55_Vel_0
Note_On_58_Vel_0
Note_On_63_Vel_0
Time_Shift_2
Note_On_67_Vel_85
Time_Shift_3
Note_On_58_Vel_75
Note_On_63_Vel_79
Time_Shift_1
Note_On_51_Vel_72
Time_Shift_2
Note_On_39_Vel_67
Time_Shift_3
Note_On_55_Vel_74
Time_Shift_62
Sustain_Off
Time_Shift_26
Note_On_46_Vel_0
Time_Shift_31
Sustain_On
Time_Shift_592
Note_On_58_Vel_0
Note_On_67_Vel_0
Time_Shift_7
Note_On_51_Vel_0
Note_On_55_Vel_0
Note_On_63_Vel_0
Time_Shift_1
Note_On_67_Vel_84
Time_Shift_2
Note_On_49_Vel_74
Time_Shift_1
Note_On_58_Vel_76
Time_Shift_2
Note_On_55_Vel_79
Time_Shift_2
Note_On_63_Vel_77
Time_Shift_1
Note_On_37_Vel_74
Time_Shift_1
Note_On_51_Vel_71
Time_Shift_17
Sustain_Off
Time_Shift_50
Sustain_On
Time_Shift_192
Note_On_63_Vel_0
Time_Shift_3
Note_On_68_Vel_100
Time_Shift_2
Note_On_36_Vel_83
Note_On_48_Vel_85
Note_On_60_Vel_82
Time_Shift_1
Note_On_63_Vel_88
Note_On_56_Vel_91
Time_Shift_28
Sustain_Off
Time_Shift_35
Note_On_55_Vel_0
Note_On_51_Vel_0
Time_Shift_3
Note_On_49_Vel_0
Time_Shift_1
Note_On_67_Vel_0
Note_On_37_Vel_0
Note_On_58_Vel_0
Time_Shift_65
Sustain_On
Time_Shift_146
Note_On_60_Vel_0
Time_Shift_292
Note_On_39_Vel_0
Time_Shift_115
Note_On_63_Vel_0
Time_Shift_4
Note_On_67_Vel_88
Time_Shift_2
Note_On_55_Vel_88
Time_Shift_4
Note_On_63_Vel_88
Note_On_47_Vel_79
Time_Shift_3
Note_On_35_Vel_75
Time_Shift_248
Note_On_68_Vel_0
Time_Shift_8
Note_On_36_Vel_0
Note_On_48_Vel_0
Note_On_56_Vel_0
Note_On_63_Vel_0
Time_Shift_2
Note_On_68_Vel_104
Time_Shift_2
Note_On_56_Vel_96
Note_On_48_Vel_82
Time_Shift_1
Note_On_63_Vel_92
Note_On_36_Vel_82
Time_Shift_29
Sustain_Off
Time_Shift_16
Note_On_67_Vel_0
Note_On_55_Vel_0
Note_On_47_Vel_0
Time_Shift_1
Note_On_35_Vel_0
Time_Shift_72
Sustain_On
Time_Shift_607
Note_On_63_Vel_0
Note_On_68_Vel_0
Time_Shift_3
Note_On_72_Vel_96
Time_Shift_2
Note_On_60_Vel_87
Time_Shift_2
Note_On_63_Vel_89
Time_Shift_3
Note_On_68_Vel_88
Time_Shift_1
Note_On_44_Vel_86
Time_Shift_1
Note_On_32_Vel_80
Time_Shift_410
Note_On_60_Vel_0
Note_On_63_Vel_0
Note_On_68_Vel_0
Note_On_72_Vel_0
Time_Shift_4
Note_On_60_Vel_94
Time_Shift_1
Note_On_72_Vel_99
Time_Shift_3
Note_On_63_Vel_94
Time_Shift_1
Note_On_68_Vel_93
Time_Shift_1
Note_On_51_Vel_94
Time_Shift_2
Note_On_39_Vel_86
Time_Shift_47
Sustain_Off
Time_Shift_6
Note_On_32_Vel_0
Note_On_44_Vel_0
Time_Shift_19
Note_On_36_Vel_0
Note_On_48_Vel_0
Note_On_56_Vel_0
Time_Shift_70
Sustain_On
Time_Shift_798
Note_On_39_Vel_0
Time_Shift_6
Note_On_27_Vel_84
Note_On_39_Vel_79
Time_Shift_1070
Note_On_51_Vel_0
Note_On_63_Vel_0
Time_Shift_4
Note_On_70_Vel_93
Time_Shift_2
Note_On_67_Vel_84
Time_Shift_1
Note_On_39_Vel_0
Time_Shift_3
Note_On_58_Vel_86
Time_Shift_1
Note_On_51_Vel_90
Note_On_63_Vel_90
Time_Shift_1
Note_On_39_Vel_81
Time_Shift_402
Note_On_60_Vel_0
Time_Shift_1782
Note_On_63_Vel_0
Note_On_67_Vel_0
Time_Shift_8
Note_On_39_Vel_0
Note_On_67_Vel_90
Note_On_63_Vel_97
Time_Shift_1
Note_On_75_Vel_105
Time_Shift_4
Note_On_39_Vel_79
Time_Shift_27
Sustain_Off
Time_Shift_29
Note_On_68_Vel_0
Note_On_72_Vel_0
Time_Shift_22
Note_On_58_Vel_0
Note_On_51_Vel_0
Time_Shift_2
Note_On_70_Vel_0
Time_Shift_168
Note_On_27_Vel_0
Time_Shift_8
Sustain_On
Time_Shift_54
Note_On_51_Vel_66
Time_Shift_130
Note_On_39_Vel_0
Time_Shift_8
Note_On_51_Vel_0
Time_Shift_3
Note_On_39_Vel_60
Time_Shift_7
Note_On_51_Vel_67
Time_Shift_113
Note_On_51_Vel_0
Time_Shift_10
Note_On_51_Vel_58
Time_Shift_82
Note_On_39_Vel_0
Time_Shift_10
Note_On_39_Vel_67
Time_Shift_74
Note_On_51_Vel_0
Time_Shift_12
Note_On_51_Vel_68
Time_Shift_65
Note_On_39_Vel_0
Time_Shift_7
Note_On_39_Vel_60
Time_Shift_55
Note_On_51_Vel_0
Time_Shift_4
Note_On_51_Vel_61
Time_Shift_72
Note_On_39_Vel_0
Time_Shift_5
Note_On_39_Vel_61
Time_Shift_41
Note_On_51_Vel_0
Time_Shift_10
Note_On_51_Vel_78
Time_Shift_75
Note_On_39_Vel_0
Time_Shift_5
Note_On_39_Vel_70
Time_Shift_56
Note_On_51_Vel_0
Time_Shift_10
Note_On_51_Vel_80
Time_Shift_59
Note_On_39_Vel_0
Time_Shift_11
Note_On_39_Vel_72
Time_Shift_51
Note_On_51_Vel_0
Time_Shift_5
Note_On_51_Vel_74
Time_Shift_72
Note_On_39_Vel_0
Time_Shift_11
Note_On_39_Vel_69
Time_Shift_50
Note_On_51_Vel_0
Time_Shift_6
Note_On_51_Vel_84
Time_Shift_63
Note_On_39_Vel_0
Time_Shift_11
Note_On_39_Vel_66
Time_Shift_58
Note_On_51_Vel_0
Time_Shift_10
Note_On_51_Vel_71
Time_Shift_67
Note_On_39_Vel_0
Time_Shift_8
Note_On_39_Vel_70
Time_Shift_69
Note_On_51_Vel_0
Time_Shift_5
Note_On_51_Vel_62
Time_Shift_60
Note_On_74_Vel_98
Time_Shift_1
Note_On_62_Vel_91
Time_Shift_1
Note_On_70_Vel_89
Time_Shift_10
Note_On_39_Vel_0
Time_Shift_5
Note_On_39_Vel_63
Time_Shift_79
Note_On_39_Vel_0
Time_Shift_5
Note_On_39_Vel_64
Time_Shift_118
Note_On_39_Vel_0
Time_Shift_7
Note_On_39_Vel_63
Time_Shift_62
Note_On_51_Vel_0
Time_Shift_10
Note_On_51_Vel_64
Time_Shift_67
Note_On_39_Vel_0
Time_Shift_4
Note_On_39_Vel_56
Time_Shift_11
Note_On_51_Vel_0
Time_Shift_5
Note_On_51_Vel_56
Time_Shift_72
Note_On_51_Vel_0
Time_Shift_7
Note_On_51_Vel_62
Time_Shift_78
Note_On_39_Vel_0
Time_Shift_5
Note_On_39_Vel_60
Time_Shift_41
Note_On_51_Vel_0
Time_Shift_6
Note_On_51_Vel_66
Time_Shift_71
Note_On_39_Vel_0
Time_Shift_5
Note_On_39_Vel_52
Time_Shift_64
Note_On_63_Vel_0
Time_Shift_7
Note_On_51_Vel_0
Time_Shift_3
Note_On_63_Vel_65
Time_Shift_2
Note_On_51_Vel_64
Time_Shift_72
Note_On_39_Vel_0
Time_Shift_4
Note_On_39_Vel_65
Time_Shift_65
Note_On_51_Vel_0
Time_Shift_9
Note_On_51_Vel_67
Time_Shift_53
Note_On_39_Vel_0
Time_Shift_2
Note_On_72_Vel_92
Time_Shift_2
Note_On_60_Vel_76
Time_Shift_1
Note_On_68_Vel_85
Time_Shift_4
Note_On_39_Vel_67
Time_Shift_60
Sustain_Off
Time_Shift_31
Note_On_51_Vel_0
Time_Shift_5
Note_On_51_Vel_58
Time_Shift_48
Sustain_On
Time_Shift_46
Note_On_39_Vel_0
Time_Shift_9
Note_On_39_Vel_56
Time_Shift_61
Note_On_51_Vel_0
Time_Shift_4
Note_On_51_Vel_64
Time_Shift_72
Note_On_39_Vel_0
Time_Shift_8
Note_On_39_Vel_61
Time_Shift_77
Note_On_51_Vel_0
Time_Shift_8
Note_On_51_Vel_63
Time_Shift_53
Note_On_39_Vel_0
Time_Shift_6
Note_On_39_Vel_64
Time_Shift_56
Note_On_51_Vel_0
Time_Shift_5
Note_On_51_Vel_64
Time_Shift_72
Note_On_39_Vel_0
Time_Shift_11
Note_On_39_Vel_51
Time_Shift_42
Note_On_51_Vel_0
Time_Shift_11
Note_On_51_Vel_67
Time_Shift_66
Note_On_39_Vel_0
Time_Shift_8
Note_On_39_Vel_57
Time_Shift_192
Note_On_67_Vel_0
Note_On_70_Vel_0
Time_Shift_5
Note_On_70_Vel_85
Time_Shift_2
Note_On_51_Vel_0
Note_On_62_Vel_0
Time_Shift_2
Note_On_58_Vel_76
Time_Shift_2
Note_On_67_Vel_76
Time_Shift_4
Note_On_39_Vel_0
Note_On_75_Vel_0
Time_Shift_4
Note_On_51_Vel_74
Time_Shift_2
Note_On_39_Vel_68
Time_Shift_40
Note_On_74_Vel_0
Time_Shift_5
Note_On_68_Vel_0
Note_On_60_Vel_0
Time_Shift_3
Note_On_72_Vel_0
Time_Shift_19
Sustain_Off
Time_Shift_4
Note_On_63_Vel_0
Time_Shift_238
Sustain_On
Time_Shift_659
Note_On_61_Vel_60
Time_Shift_1
Note_On_58_Vel_0
Time_Shift_12
Note_On_58_Vel_47
Time_Shift_1
Note_On_40_Vel_52
Time_Shift_1
Note_On_52_Vel_51
Time_Shift_10
Note_On_55_Vel_34
Time_Shift_37
Sustain_Off
Time_Shift_1
Note_On_51_Vel_0
Time_Shift_23
Note_On_39_Vel_0
Time_Shift_177
Sustain_On
Time_Shift_23
Note_On_55_Vel_0
Time_Shift_718
Note_On_68_Vel_77
Time_Shift_4
Note_On_58_Vel_0
Time_Shift_7
Note_On_53_Vel_55
Time_Shift_1
Note_On_58_Vel_56
Time_Shift_1
Note_On_41_Vel_59
Time_Shift_2
Note_On_62_Vel_67
Time_Shift_54
Sustain_Off
Time_Shift_1
Note_On_40_Vel_0
Time_Shift_1
Note_On_61_Vel_0
Note_On_52_Vel_0
Time_Shift_9
Note_On_70_Vel_0
Time_Shift_8
Note_On_67_Vel_0
Time_Shift_207
Sustain_On
Time_Shift_738
Note_On_58_Vel_0
Time_Shift_4
Note_On_67_Vel_63
Time_Shift_3
Note_On_55_Vel_52
Time_Shift_3
Note_On_43_Vel_54
Note_On_58_Vel_56
Time_Shift_2
Note_On_63_Vel_62
Time_Shift_3
Note_On_55_Vel_0
Time_Shift_44
Sustain_Off
Time_Shift_6
Note_On_62_Vel_0
Note_On_53_Vel_0
Time_Shift_1
Note_On_41_Vel_0
Note_On_68_Vel_0
Time_Shift_202
Sustain_On
Time_Shift_853
Note_On_67_Vel_0
Time_Shift_10
Note_On_67_Vel_68
Time_Shift_13
Note_On_60_Vel_52
Time_Shift_2
Note_On_44_Vel_52
Time_Shift_6
Note_On_56_Vel_49
Time_Shift_7
Note_On_56_Vel_0
Time_Shift_36
Note_On_63_Vel_0
Time_Shift_2
Note_On_43_Vel_0
Time_Shift_11
Sustain_Off
Time_Shift_5
Note_On_58_Vel_0
Time_Shift_207
Sustain_On
Time_Shift_345
Note_On_65_Vel_73
Time_Shift_462
Note_On_44_Vel_0
Note_On_60_Vel_0
Note_On_65_Vel_0
Time_Shift_3
Note_On_72_Vel_81
Time_Shift_2
Note_On_32_Vel_50
Note_On_44_Vel_52
Time_Shift_1
Note_On_65_Vel_65
Note_On_60_Vel_65
Time_Shift_52
Sustain_Off
Time_Shift_11
Note_On_67_Vel_0
Time_Shift_223
Sustain_On
Time_Shift_196
Note_On_70_Vel_74
Time_Shift_372
Note_On_70_Vel_0
Time_Shift_11
Note_On_70_Vel_71
Time_Shift_161
Note_On_68_Vel_76
Time_Shift_10
Note_On_34_Vel_46
Time_Shift_2
Note_On_56_Vel_48
Time_Shift_2
Note_On_46_Vel_48
Time_Shift_1
Note_On_62_Vel_54
Time_Shift_31
Note_On_32_Vel_0
Note_On_72_Vel_0
Time_Shift_8
Sustain_Off
Time_Shift_4
Note_On_44_Vel_0
Time_Shift_8
Note_On_60_Vel_0
Note_On_70_Vel_0
Time_Shift_200
Sustain_On
Time_Shift_184
Note_On_65_Vel_0
Time_Shift_297
Note_On_67_Vel_72
Time_Shift_271
Note_On_68_Vel_0
Time_Shift_7
Note_On_68_Vel_78
Time_Shift_1
Note_On_56_Vel_0
Note_On_62_Vel_0
Time_Shift_7
Note_On_56_Vel_62
Time_Shift_1
Note_On_34_Vel_0
Note_On_46_Vel_0
Time_Shift_1
Note_On_62_Vel_67
Time_Shift_4
Note_On_46_Vel_51
Time_Shift_2
Note_On_34_Vel_49
Time_Shift_4
Note_On_53_Vel_53
Time_Shift_70
Note_On_67_Vel_0
Time_Shift_2
Sustain_Off
Time_Shift_247
Sustain_On
Time_Shift_438
Note_On_56_Vel_0
Time_Shift_4
Note_On_65_Vel_67
Time_Shift_7
Note_On_56_Vel_55
Time_Shift_4
Note_On_53_Vel_0
Time_Shift_6
Note_On_53_Vel_34
Time_Shift_355
Note_On_65_Vel_0
Time_Shift_6
Note_On_65_Vel_67
Note_On_58_Vel_52
Time_Shift_9
Note_On_56_Vel_0
Note_On_62_Vel_0
Time_Shift_3
Note_On_39_Vel_50
Time_Shift_4
Note_On_62_Vel_58
Note_On_51_Vel_50
Time_Shift_2
Note_On_56_Vel_54
Time_Shift_32
Sustain_Off
Time_Shift_10
Note_On_53_Vel_0
Time_Shift_3
Note_On_34_Vel_0
Time_Shift_8
Note_On_68_Vel_0
Time_Shift_253
Sustain_On
Time_Shift_162
Note_On_46_Vel_0
Time_Shift_99
Note_On_58_Vel_0
Time_Shift_573
Note_On_34_Vel_47
Time_Shift_1
Note_On_58_Vel_40
Note_On_46_Vel_48
Time_Shift_34
Sustain_Off
Time_Shift_191
Sustain_On
Time_Shift_1004
Note_On_63_Vel_50
Time_Shift_3
Note_On_55_Vel_44
Time_Shift_7
Note_On_39_Vel_0
Time_Shift_11
Note_On_39_Vel_29
Time_Shift_1
Note_On_27_Vel_32
Time_Shift_73
Note_On_46_Vel_0
Time_Shift_1
Sustain_Off
Time_Shift_1
Note_On_34_Vel_0
Time_Shift_13
Note_On_56_Vel_0
Note_On_62_Vel_0
Time_Shift_15
Note_On_65_Vel_0
Time_Shift_215
Sustain_On
Time_Shift_776
Note_On_58_Vel_0
Time_Shift_4
Note_On_63_Vel_0
Note_On_55_Vel_0
Sustain_Off
Note_On_51_Vel_0
Note_On_27_Vel_0
Time_Shift_2
Note_On_39_Vel_0
Time_Shift_228
Note_On_58_Vel_46
Time_Shift_4
Note_On_46_Vel_42
Time_Shift_238
Sustain_On
Time_Shift_843
Note_On_53_Vel_56
Time_Shift_17
Note_On_46_Vel_0
Time_Shift_4
Note_On_34_Vel_39
Note_On_46_Vel_41
Time_Shift_1
Note_On_65_Vel_40
Time_Shift_3
Note_On_58_Vel_0
Time_Shift_3
Note_On_62_Vel_52
Time_Shift_1
Note_On_58_Vel_39
Time_Shift_82
Sustain_Off
Time_Shift_390
Sustain_On
Time_Shift_1029
Note_On_53_Vel_0
Time_Shift_2
Note_On_56_Vel_53
Time_Shift_6
Note_On_65_Vel_0
Time_Shift_3
Note_On_53_Vel_32
Time_Shift_8
Note_On_65_Vel_57
Time_Shift_553
Note_On_55_Vel_67
Time_Shift_4
Note_On_34_Vel_0
Time_Shift_4
Note_On_67_Vel_62
Time_Shift_4
Note_On_46_Vel_0
Time_Shift_3
Note_On_63_Vel_65
Time_Shift_1
Note_On_34_Vel_46
Note_On_46_Vel_49
Time_Shift_50
Note_On_56_Vel_0
Note_On_53_Vel_0
Time_Shift_1
Note_On_62_Vel_0
Time_Shift_2
Note_On_65_Vel_0
Time_Shift_4
Sustain_Off
Time_Shift_139
Sustain_On
Time_Shift_107
Note_On_58_Vel_0
Time_Shift_411
Note_On_54_Vel_81
Time_Shift_3
Note_On_66_Vel_69
Time_Shift_277
Note_On_55_Vel_0
Note_On_67_Vel_0
Time_Shift_4
Note_On_55_Vel_72
Time_Shift_4
Note_On_34_Vel_0
Note_On_46_Vel_0
Note_On_63_Vel_0
Note_On_67_Vel_74
Time_Shift_4
Note_On_46_Vel_64
Time_Shift_2
Note_On_63_Vel_70
Time_Shift_5
Note_On_34_Vel_60
Time_Shift_52
Sustain_Off
Time_Shift_9
Note_On_54_Vel_0
Time_Shift_20
Note_On_66_Vel_0
Time_Shift_161
Sustain_On
Time_Shift_530
Note_On_55_Vel_0
Note_On_67_Vel_0
Time_Shift_2
Note_On_58_Vel_80
Time_Shift_3
Note_On_70_Vel_74
Time_Shift_2
Note_On_55_Vel_58
Time_Shift_3
Note_On_67_Vel_63
Time_Shift_382
Note_On_55_Vel_0
Note_On_58_Vel_0
Note_On_63_Vel_0
Note_On_70_Vel_0
Time_Shift_6
Note_On_70_Vel_77
Time_Shift_2
Note_On_46_Vel_0
Time_Shift_1
Note_On_58_Vel_65
Time_Shift_2
Note_On_63_Vel_75
Note_On_55_Vel_61
Time_Shift_1
Note_On_46_Vel_53
Time_Shift_71
Sustain_Off
Time_Shift_117
Note_On_34_Vel_0
Time_Shift_84
Sustain_On
Time_Shift_809
Note_On_60_Vel_61
Time_Shift_6
Note_On_54_Vel_54
Time_Shift_22
Note_On_46_Vel_0
Note_On_67_Vel_0
Time_Shift_5
Note_On_69_Vel_52
Time_Shift_1
Note_On_46_Vel_31
Time_Shift_68
Sustain_Off
Time_Shift_13
Note_On_58_Vel_0
Time_Shift_1
Note_On_55_Vel_0
Time_Shift_12
Note_On_70_Vel_0
Time_Shift_184
Sustain_On
Time_Shift_813
Note_On_58_Vel_48
Time_Shift_6
Note_On_62_Vel_52
Time_Shift_3
Note_On_46_Vel_0
Time_Shift_2
Note_On_53_Vel_38
Time_Shift_1
Note_On_68_Vel_52
Time_Shift_1
Note_On_46_Vel_45
Time_Shift_61
Note_On_54_Vel_0
Time_Shift_1
Note_On_60_Vel_0
Note_On_69_Vel_0
Time_Shift_6
Sustain_Off
Time_Shift_20
Note_On_63_Vel_0
Time_Shift_254
Sustain_On
Time_Shift_714
Note_On_46_Vel_0
Time_Shift_7
Note_On_34_Vel_38
Time_Shift_2
Note_On_46_Vel_33
Time_Shift_1204
Note_On_58_Vel_0
Time_Shift_3
Note_On_67_Vel_77
Time_Shift_4
Note_On_63_Vel_68
Time_Shift_2
Note_On_39_Vel_50
Time_Shift_3
Note_On_51_Vel_54
Note_On_58_Vel_61
Time_Shift_3
Note_On_55_Vel_64
Time_Shift_68
Sustain_Off
Time_Shift_6
Note_On_34_Vel_0
Time_Shift_11
Note_On_53_Vel_0
Time_Shift_16
Note_On_62_Vel_0
Time_Shift_30
Note_On_68_Vel_0
Time_Shift_69
Sustain_On
Time_Shift_607
Note_On_46_Vel_0
Time_Shift_154
Note_On_51_Vel_0
Note_On_55_Vel_0
Note_On_58_Vel_0
Note_On_63_Vel_0
Note_On_67_Vel_0
Time_Shift_4
Note_On_67_Vel_81
Time_Shift_1
Note_On_58_Vel_74
Time_Shift_2
Note_On_63_Vel_78
Note_On_39_Vel_0
Time_Shift_1
Note_On_51_Vel_72
Time_Shift_3
Note_On_55_Vel_75
Time_Shift_1
Note_On_39_Vel_66
Time_Shift_65
Sustain_Off
Time_Shift_84
Sustain_On
Time_Shift_568
Note_On_55_Vel_0
Note_On_58_Vel_0
Note_On_67_Vel_0
Time_Shift_7
Note_On_67_Vel_80
Time_Shift_1
Note_On_63_Vel_0
Time_Shift_1
Note_On_49_Vel_80
Time_Shift_1
Note_On_55_Vel_86
Note_On_58_Vel_78
Time_Shift_2
Note_On_63_Vel_75
Time_Shift_1
Note_On_37_Vel_74
Time_Shift_256
Note_On_63_Vel_0
Time_Shift_4
Note_On_56_Vel_96
Note_On_68_Vel_100
Time_Shift_2
Note_On_63_Vel_86
Note_On_48_Vel_84
Time_Shift_1
Note_On_60_Vel_84
Time_Shift_1
Note_On_36_Vel_82
Time_Shift_41
Sustain_Off
Time_Shift_16
Note_On_58_Vel_0
Note_On_49_Vel_0
Note_On_55_Vel_0
Time_Shift_1
Note_On_37_Vel_0
Note_On_67_Vel_0
Note_On_39_Vel_0
Time_Shift_95
Sustain_On
Time_Shift_408
Note_On_51_Vel_0
Time_Shift_115
Note_On_63_Vel_0
Time_Shift_3
Note_On_67_Vel_86
Time_Shift_1
Note_On_47_Vel_84
Time_Shift_1
Note_On_55_Vel_84
Note_On_63_Vel_85
Time_Shift_4
Note_On_35_Vel_77
Time_Shift_206
Note_On_60_Vel_0
Time_Shift_46
Note_On_36_Vel_0
Note_On_48_Vel_0
Note_On_56_Vel_0
Note_On_63_Vel_0
Note_On_68_Vel_0
Time_Shift_4
Note_On_68_Vel_101
Note_On_56_Vel_92
Note_On_63_Vel_91
Time_Shift_1
Note_On_60_Vel_85
Time_Shift_2
Note_On_48_Vel_87
Time_Shift_2
Note_On_36_Vel_79
Time_Shift_13
Sustain_Off
Time_Shift_44
Note_On_67_Vel_0
Time_Shift_2
Note_On_35_Vel_0
Time_Shift_2
Note_On_47_Vel_0
Time_Shift_14
Note_On_55_Vel_0
Time_Shift_85
Sustain_On
Time_Shift_583
Note_On_60_Vel_0
Note_On_63_Vel_0
Note_On_68_Vel_0
Time_Shift_3
Note_On_72_Vel_100
Time_Shift_3
Note_On_60_Vel_89
Note_On_63_Vel_92
Time_Shift_1
Note_On_68_Vel_89
Time_Shift_3
Note_On_44_Vel_92
Time_Shift_2
Note_On_32_Vel_88
Time_Shift_396
Note_On_60_Vel_0
Note_On_72_Vel_0
Time_Shift_7
Note_On_63_Vel_0
Note_On_68_Vel_0
Time_Shift_2
Note_On_72_Vel_104
Time_Shift_2
Note_On_60_Vel_98
Note_On_68_Vel_99
Note_On_63_Vel_98
Time_Shift_3
Note_On_51_Vel_96
Time_Shift_1
Note_On_44_Vel_0
Time_Shift_2
Note_On_39_Vel_91
Time_Shift_3
Note_On_44_Vel_84
Time_Shift_33
Note_On_48_Vel_0
Time_Shift_7
Sustain_Off
Time_Shift_1
Note_On_36_Vel_0
Time_Shift_1
Note_On_32_Vel_0
Time_Shift_1
Note_On_44_Vel_0
Time_Shift_21
Note_On_56_Vel_0
Time_Shift_146
Sustain_On
Time_Shift_745
Note_On_39_Vel_0
Time_Shift_11
Note_On_39_Vel_90
Note_On_27_Vel_93
Time_Shift_1064
Note_On_39_Vel_0
Note_On_51_Vel_0
Note_On_63_Vel_0
Time_Shift_3
Note_On_70_Vel_97
Time_Shift_1
Note_On_67_Vel_92
Note_On_51_Vel_93
Note_On_58_Vel_90
Time_Shift_2
Note_On_39_Vel_87
Time_Shift_1
Note_On_63_Vel_92
Time_Shift_20
Sustain_Off
Time_Shift_19
Note_On_60_Vel_0
Time_Shift_161
Sustain_On
Time_Shift_47
Note_On_68_Vel_0
Note_On_72_Vel_0
Time_Shift_1966
Note_On_39_Vel_0
Note_On_63_Vel_0
Note_On_67_Vel_0
Time_Shift_7
Note_On_51_Vel_0
Time_Shift_2
Note_On_63_Vel_102
Time_Shift_1
Note_On_67_Vel_95
Note_On_75_Vel_106
Time_Shift_1
Note_On_39_Vel_86
Time_Shift_1
Note_On_51_Vel_85
Time_Shift_54
Sustain_Off
Time_Shift_6
Note_On_70_Vel_0
Note_On_58_Vel_0
Time_Shift_35
Note_On_27_Vel_0
Time_Shift_62
Sustain_On
Time_Shift_138
Note_On_51_Vel_0
Time_Shift_7
Note_On_39_Vel_0
Time_Shift_3
Note_On_51_Vel_67
Time_Shift_2
Note_On_39_Vel_57
Time_Shift_141
Note_On_39_Vel_0
Time_Shift_10
Note_On_39_Vel_73
Time_Shift_106
Note_On_39_Vel_0
Note_On_51_Vel_0
Time_Shift_5
Note_On_51_Vel_69
Note_On_39_Vel_53
Time_Shift_64
Note_On_39_Vel_0
Time_Shift_8
Note_On_39_Vel_62
Time_Shift_45
Note_On_51_Vel_0
Time_Shift_6
Note_On_51_Vel_72
Time_Shift_56
Note_On_39_Vel_0
Time_Shift_5
Note_On_39_Vel_68
Time_Shift_49
Note_On_39_Vel_0
Note_On_51_Vel_0
Time_Shift_8
Note_On_51_Vel_86
Time_Shift_3
Note_On_39_Vel_67
Time_Shift_50
Note_On_39_Vel_0
Time_Shift_12
Note_On_39_Vel_78
Time_Shift_42
Note_On_51_Vel_0
Time_Shift_6
Note_On_51_Vel_88
Time_Shift_2
Note_On_39_Vel_0
Time_Shift_7
Note_On_39_Vel_67
Time_Shift_54
Note_On_39_Vel_0
Time_Shift_7
Note_On_39_Vel_69
Time_Shift_54
Note_On_51_Vel_0
Time_Shift_7
Note_On_51_Vel_75
Time_Shift_40
Note_On_39_Vel_0
Time_Shift_5
Note_On_39_Vel_69
Time_Shift_64
Note_On_39_Vel_0
Note_On_51_Vel_0
Time_Shift_4
Note_On_51_Vel_78
Time_Shift_5
Note_On_39_Vel_61
Time_Shift_52
Note_On_39_Vel_0
Time_Shift_10
Note_On_39_Vel_72
Time_Shift_67
Note_On_39_Vel_0
Note_On_51_Vel_0
Time_Shift_4
Note_On_39_Vel_69
Time_Shift_2
Note_On_51_Vel_76
Time_Shift_55
Note_On_39_Vel_0
Note_On_51_Vel_0
Time_Shift_5
Note_On_39_Vel_65
Note_On_51_Vel_73
Time_Shift_57
Note_On_39_Vel_0
Note_On_51_Vel_0
Time_Shift_7
Note_On_63_Vel_0
Time_Shift_4
Note_On_39_Vel_61
Note_On_51_Vel_76
Time_Shift_2
Note_On_63_Vel_75
Time_Shift_48
Note_On_39_Vel_0
Note_On_63_Vel_0
Time_Shift_8
Note_On_63_Vel_72
Time_Shift_1
Note_On_39_Vel_69
Time_Shift_53
Note_On_51_Vel_0
Note_On_63_Vel_0
Time_Shift_5
Note_On_51_Vel_72
Time_Shift_5
Note_On_63_Vel_77
Time_Shift_59
Note_On_39_Vel_0
Time_Shift_11
Note_On_39_Vel_62
Time_Shift_53
Note_On_74_Vel_101
Time_Shift_1
Note_On_70_Vel_91
Note_On_62_Vel_97
Time_Shift_12
Note_On_39_Vel_0
Time_Shift_11
Note_On_39_Vel_63
Time_Shift_111
Note_On_39_Vel_0
Time_Shift_7
Note_On_39_Vel_71
Time_Shift_40
Note_On_51_Vel_0
Time_Shift_41
Note_On_51_Vel_62
Time_Shift_43
Note_On_39_Vel_0
Time_Shift_9
Note_On_39_Vel_68
Time_Shift_52
Note_On_39_Vel_0
Note_On_51_Vel_0
Time_Shift_6
Note_On_39_Vel_63
Time_Shift_3
Note_On_51_Vel_71
Time_Shift_61
Note_On_39_Vel_0
Time_Shift_5
Note_On_39_Vel_70
Time_Shift_48
Note_On_51_Vel_0
Time_Shift_10
Note_On_51_Vel_77
Time_Shift_67
Note_On_39_Vel_0
Time_Shift_6
Note_On_39_Vel_67
Time_Shift_9
Note_On_75_Vel_0
Time_Shift_39
Note_On_51_Vel_0
Time_Shift_6
Note_On_51_Vel_77
Time_Shift_71
Note_On_39_Vel_0
Time_Shift_9
Note_On_39_Vel_66
Time_Shift_60
Note_On_51_Vel_0
Note_On_63_Vel_0
Time_Shift_6
Note_On_51_Vel_80
Time_Shift_1
Note_On_63_Vel_75
Time_Shift_77
Note_On_39_Vel_0
Time_Shift_5
Note_On_39_Vel_62
Time_Shift_64
Note_On_51_Vel_0
Time_Shift_4
Note_On_72_Vel_94
Note_On_60_Vel_84
Time_Shift_2
Note_On_68_Vel_87
Time_Shift_2
Note_On_63_Vel_0
Time_Shift_3
Note_On_51_Vel_84
Time_Shift_1
Note_On_63_Vel_80
Time_Shift_88
Note_On_39_Vel_0
Time_Shift_4
Note_On_39_Vel_72
Time_Shift_65
Note_On_51_Vel_0
Time_Shift_5
Note_On_51_Vel_78
Time_Shift_72
Note_On_39_Vel_0
Time_Shift_4
Note_On_39_Vel_66
Time_Shift_58
Note_On_51_Vel_0
Time_Shift_6
Note_On_51_Vel_74
Time_Shift_63
Note_On_39_Vel_0
Time_Shift_7
Note_On_51_Vel_0
Time_Shift_2
Note_On_39_Vel_70
Time_Shift_3
Note_On_51_Vel_76
Time_Shift_65
Note_On_51_Vel_0
Time_Shift_4
Note_On_51_Vel_74
Time_Shift_57
Note_On_39_Vel_0
Time_Shift_9
Note_On_39_Vel_72
Time_Shift_52
Note_On_51_Vel_0
Time_Shift_9
Note_On_51_Vel_78
Time_Shift_68
Note_On_39_Vel_0
Time_Shift_5
Note_On_39_Vel_72
Time_Shift_64
Note_On_51_Vel_0
Time_Shift_11
Note_On_51_Vel_76
Time_Shift_151
Note_On_70_Vel_0
Time_Shift_7
Note_On_51_Vel_0
Note_On_63_Vel_0
Note_On_67_Vel_0
Time_Shift_2
Note_On_70_Vel_97
Time_Shift_2
Note_On_58_Vel_91
Time_Shift_2
Note_On_67_Vel_91
Time_Shift_1
Note_On_63_Vel_88
Time_Shift_1
Note_On_39_Vel_0
Note_On_51_Vel_92
Time_Shift_4
Note_On_39_Vel_84
Time_Shift_50
Note_On_74_Vel_0
Time_Shift_30
Note_On_60_Vel_0
Time_Shift_23
Note_On_62_Vel_0
Time_Shift_8
Note_On_68_Vel_0
Note_On_72_Vel_0
Time_Shift_10
Sustain_Off
Time_Shift_190
Sustain_On
Time_Shift_692
Note_On_61_Vel_86
Time_Shift_4
Note_On_52_Vel_75
Time_Shift_5
Note_On_40_Vel_71
Time_Shift_84
Note_On_63_Vel_0
Time_Shift_1
Note_On_51_Vel_0
Time_Shift_1
Note_On_70_Vel_0
Time_Shift_3
Sustain_Off
Time_Shift_16
Note_On_39_Vel_0
Time_Shift_123
Sustain_On
Time_Shift_822
Note_On_58_Vel_0
Time_Shift_5
Note_On_68_Vel_79
Time_Shift_3
Note_On_52_Vel_0
Time_Shift_3
Note_On_58_Vel_60
Time_Shift_6
Note_On_62_Vel_66
Time_Shift_8
Note_On_53_Vel_55
Time_Shift_2
Note_On_41_Vel_56
Time_Shift_90
Sustain_Off
Time_Shift_18
Note_On_61_Vel_0
Time_Shift_3
Note_On_40_Vel_0
Time_Shift_8
Note_On_67_Vel_0
Time_Shift_176
Sustain_On
Time_Shift_758
Note_On_67_Vel_70
Time_Shift_3
Note_On_58_Vel_0
Time_Shift_10
Note_On_58_Vel_60
Time_Shift_1
Note_On_43_Vel_55
Note_On_63_Vel_68
Time_Shift_88
Sustain_Off
Time_Shift_11
Note_On_62_Vel_0
Time_Shift_1
Note_On_53_Vel_0
Time_Shift_1
Note_On_68_Vel_0
Note_On_41_Vel_0
Time_Shift_210
Sustain_On
Time_Shift_899
Note_On_67_Vel_0
Time_Shift_4
Note_On_67_Vel_66
Time_Shift_6
Note_On_60_Vel_56
Time_Shift_6
Note_On_44_Vel_52
Time_Shift_6
Note_On_56_Vel_49
Time_Shift_9
Note_On_56_Vel_0
Time_Shift_28
Note_On_63_Vel_0
Note_On_43_Vel_0
Time_Shift_7
Sustain_Off
Time_Shift_11
Note_On_58_Vel_0
Time_Shift_184
Sustain_On
Time_Shift_328
Note_On_65_Vel_77
Time_Shift_501
Note_On_60_Vel_0
Note_On_65_Vel_0
Time_Shift_5
Note_On_72_Vel_84
Time_Shift_6
Note_On_65_Vel_60
Time_Shift_1
Note_On_60_Vel_63
Time_Shift_4
Note_On_44_Vel_0
Time_Shift_10
Note_On_32_Vel_52
Note_On_44_Vel_53
Time_Shift_62
Sustain_Off
Time_Shift_12
Note_On_67_Vel_0
Time_Shift_192
Sustain_On
Time_Shift_233
Note_On_70_Vel_76
Time_Shift_428
Note_On_70_Vel_0
Time_Shift_5
Note_On_70_Vel_68
Time_Shift_175
Note_On_56_Vel_62
Time_Shift_8
Note_On_68_Vel_77
Time_Shift_13
Note_On_34_Vel_44
Time_Shift_2
Note_On_62_Vel_62
Time_Shift_2
Note_On_46_Vel_42
Time_Shift_75
Sustain_Off
Time_Shift_1
Note_On_70_Vel_0
Note_On_72_Vel_0
Note_On_32_Vel_0
Time_Shift_18
Note_On_44_Vel_0
Note_On_60_Vel_0
Time_Shift_246
Sustain_On
Time_Shift_23
Note_On_65_Vel_0
Time_Shift_451
Note_On_67_Vel_70
Time_Shift_317
Note_On_68_Vel_0
Time_Shift_6
Note_On_68_Vel_77
Time_Shift_9
Note_On_62_Vel_0
Time_Shift_8
Note_On_46_Vel_0
Note_On_56_Vel_0
Time_Shift_3
Note_On_62_Vel_63
Note_On_53_Vel_49
Time_Shift_1
Note_On_56_Vel_54
Time_Shift_6
Note_On_46_Vel_49
Time_Shift_48
Sustain_Off
Time_Shift_11
Note_On_67_Vel_0
Time_Shift_208
Sustain_On
Time_Shift_710
Note_On_65_Vel_62
Time_Shift_4
Note_On_53_Vel_0
Note_On_56_Vel_0
Time_Shift_7
Note_On_53_Vel_31
Note_On_56_Vel_50
Time_Shift_500
Note_On_65_Vel_0
Time_Shift_10
Note_On_65_Vel_64
Time_Shift_5
Note_On_62_Vel_0
Note_On_39_Vel_47
Time_Shift_4
Note_On_62_Vel_55
Time_Shift_4
Note_On_34_Vel_0
Note_On_56_Vel_0
Time_Shift_1
Note_On_51_Vel_49
Time_Shift_9
Note_On_56_Vel_49
Time_Shift_47
Sustain_Off
Time_Shift_10
Note_On_53_Vel_0
Time_Shift_10
Note_On_68_Vel_0
Time_Shift_238
Note_On_46_Vel_0
Time_Shift_7
Sustain_On
Time_Shift_924
Note_On_46_Vel_48
Note_On_34_Vel_45
Time_Shift_64
Note_On_51_Vel_0
Time_Shift_3
Sustain_Off
Time_Shift_246
Sustain_On
Time_Shift_1252
Note_On_39_Vel_0
Time_Shift_3
Note_On_63_Vel_53
Time_Shift_1
Note_On_55_Vel_43
Time_Shift_6
Note_On_27_Vel_36
Time_Shift_1
Note_On_39_Vel_31
Time_Shift_132
Sustain_Off
Time_Shift_13
Note_On_46_Vel_0
Time_Shift_1
Note_On_34_Vel_0
Time_Shift_12
Note_On_56_Vel_0
Time_Shift_7
Note_On_62_Vel_0
Time_Shift_8
Note_On_65_Vel_0
Time_Shift_292
Sustain_On
Time_Shift_1115
Sustain_Off
Time_Shift_68
Note_On_39_Vel_0
Time_Shift_15
Note_On_63_Vel_0
Time_Shift_8
Note_On_27_Vel_0
Note_On_55_Vel_0
