Time_Shift_7
Sustain_On
Time_Shift_3480
Note_On_58_Vel_36
Time_Shift_22
Sustain_Off
Time_Shift_85
Sustain_On
Time_Shift_441
Note_On_67_Vel_48
Time_Shift_62
Note_On_58_Vel_0
Time_Shift_10
Sustain_Off
Time_Shift_63
Sustain_On
Time_Shift_438
Note_On_39_Vel_27
Time_Shift_20
Note_On_58_Vel_32
Time_Shift_3
Sustain_Off
Time_Shift_4
Note_On_66_Vel_49
Time_Shift_195
Note_On_67_Vel_0
Time_Shift_4
Note_On_67_Vel_54
Time_Shift_27
Sustain_On
Time_Shift_123
Sustain_Off
Time_Shift_31
Note_On_58_Vel_0
Time_Shift_4
Note_On_58_Vel_38
Time_Shift_3
Note_On_39_Vel_0
Time_Shift_5
Note_On_39_Vel_38
Time_Shift_20
Note_On_72_Vel_61
Time_Shift_60
Note_On_66_Vel_0
Time_Shift_1
Note_On_58_Vel_0
Note_On_67_Vel_0
Time_Shift_130
Note_On_72_Vel_0
Note_On_70_Vel_62
Time_Shift_153
Sustain_On
Time_Shift_54
Note_On_70_Vel_0
Time_Shift_11
Note_On_70_Vel_53
Time_Shift_424
Note_On_46_Vel_27
Time_Shift_141
Note_On_39_Vel_0
Time_Shift_338
Note_On_46_Vel_0
Time_Shift_11
Note_On_46_Vel_30
Time_Shift_9
Note_On_41_Vel_26
Note_On_68_Vel_37
Time_Shift_4
Note_On_58_Vel_32
Time_Shift_2
Note_On_62_Vel_24
Time_Shift_2
Note_On_53_Vel_28
Time_Shift_6
Note_On_50_Vel_28
Time_Shift_61
Sustain_Off
Time_Shift_7
Note_On_70_Vel_0
Time_Shift_463
Note_On_67_Vel_46
Time_Shift_11
Note_On_50_Vel_0
Time_Shift_66
Note_On_53_Vel_0
Time_Shift_1
Note_On_62_Vel_0
Time_Shift_1
Note_On_58_Vel_0
Note_On_68_Vel_0
Time_Shift_1
Note_On_41_Vel_0
Time_Shift_7
Note_On_46_Vel_0
Time_Shift_69
Sustain_On
Time_Shift_349
Note_On_66_Vel_49
Time_Shift_3
Note_On_51_Vel_34
Time_Shift_10
Note_On_39_Vel_31
Time_Shift_12
Note_On_58_Vel_31
Time_Shift_2
Note_On_63_Vel_31
Time_Shift_2
Sustain_Off
Time_Shift_152
Note_On_67_Vel_0
Sustain_On
Time_Shift_9
Note_On_67_Vel_63
Time_Shift_145
Sustain_Off
Time_Shift_26
Note_On_70_Vel_57
Time_Shift_53
Note_On_68_Vel_63
Time_Shift_13
Note_On_39_Vel_0
Note_On_51_Vel_0
Note_On_58_Vel_0
Time_Shift_4
Note_On_58_Vel_39
Time_Shift_7
Note_On_39_Vel_34
Note_On_51_Vel_26
Time_Shift_18
Note_On_70_Vel_0
Time_Shift_5
Note_On_67_Vel_0
Time_Shift_1
Note_On_66_Vel_0
Time_Shift_173
Sustain_On
Time_Shift_154
Note_On_67_Vel_58
Time_Shift_122
Note_On_67_Vel_0
Time_Shift_11
Note_On_67_Vel_58
Time_Shift_20
Sustain_Off
Time_Shift_7
Note_On_68_Vel_0
Time_Shift_8
Note_On_58_Vel_0
Note_On_63_Vel_0
Time_Shift_15
Note_On_51_Vel_0
Time_Shift_16
Note_On_39_Vel_0
Time_Shift_184
Sustain_On
Time_Shift_169
Note_On_55_Vel_27
Time_Shift_9
Note_On_59_Vel_34
Time_Shift_6
Note_On_50_Vel_28
Time_Shift_561
Note_On_43_Vel_32
Note_On_55_Vel_0
Time_Shift_4
Note_On_65_Vel_32
Time_Shift_7
Note_On_55_Vel_33
Time_Shift_54
Sustain_Off
Time_Shift_10
Note_On_59_Vel_0
Time_Shift_4
Note_On_50_Vel_0
Time_Shift_136
Note_On_67_Vel_0
Time_Shift_131
Sustain_On
Time_Shift_173
Note_On_63_Vel_36
Time_Shift_8
Sustain_Off
Time_Shift_34
Note_On_55_Vel_0
Time_Shift_2
Note_On_43_Vel_0
Time_Shift_2
Note_On_65_Vel_0
Time_Shift_88
Sustain_On
Time_Shift_362
Note_On_48_Vel_28
Time_Shift_11
Note_On_51_Vel_27
Time_Shift_8
Note_On_55_Vel_26
Time_Shift_7
Note_On_65_Vel_44
Time_Shift_11
Sustain_Off
Time_Shift_123
Sustain_On
Time_Shift_62
Note_On_63_Vel_0
Time_Shift_4
Note_On_63_Vel_48
Time_Shift_80
Note_On_63_Vel_0
Time_Shift_11
Note_On_63_Vel_31
Time_Shift_119
Note_On_45_Vel_38
Time_Shift_4
Note_On_60_Vel_57
Time_Shift_1
Note_On_54_Vel_40
Time_Shift_20
Note_On_55_Vel_0
Note_On_48_Vel_0
Time_Shift_1
Sustain_Off
Time_Shift_1
Note_On_65_Vel_0
Note_On_63_Vel_0
Time_Shift_143
Sustain_On
Time_Shift_35
Note_On_63_Vel_55
Time_Shift_80
Note_On_51_Vel_0
Time_Shift_144
Note_On_46_Vel_49
Time_Shift_3
Note_On_58_Vel_55
Time_Shift_19
Sustain_Off
Time_Shift_7
Note_On_54_Vel_0
Note_On_60_Vel_0
Note_On_63_Vel_0
Time_Shift_2
Note_On_45_Vel_0
Time_Shift_101
Sustain_On
Time_Shift_74
Note_On_63_Vel_59
Time_Shift_170
Sustain_Off
Time_Shift_2
Note_On_58_Vel_0
Time_Shift_4
Note_On_58_Vel_52
Time_Shift_4
Note_On_46_Vel_0
Time_Shift_4
Note_On_46_Vel_42
Time_Shift_7
Note_On_67_Vel_63
Time_Shift_2
Note_On_55_Vel_42
Time_Shift_79
Sustain_On
Time_Shift_112
Note_On_70_Vel_70
Time_Shift_211
Note_On_75_Vel_67
Time_Shift_49
Sustain_Off
Time_Shift_4
Note_On_63_Vel_0
Time_Shift_4
Note_On_67_Vel_0
Note_On_70_Vel_0
Time_Shift_1
Note_On_46_Vel_0
Note_On_55_Vel_0
Time_Shift_1
Note_On_58_Vel_0
Time_Shift_109
Sustain_On
Time_Shift_33
Note_On_72_Vel_63
Time_Shift_213
Sustain_Off
Time_Shift_4
Note_On_34_Vel_40
Time_Shift_7
Note_On_70_Vel_59
Time_Shift_20
Note_On_72_Vel_0
Note_On_75_Vel_0
Time_Shift_123
Sustain_On
Time_Shift_64
Note_On_69_Vel_57
Time_Shift_218
Sustain_Off
Time_Shift_4
Note_On_34_Vel_0
Time_Shift_2
Note_On_70_Vel_0
Time_Shift_3
Note_On_56_Vel_49
Time_Shift_3
Note_On_68_Vel_58
Time_Shift_6
Note_On_53_Vel_35
Time_Shift_4
Note_On_50_Vel_39
Time_Shift_26
Note_On_69_Vel_0
Time_Shift_161
Sustain_On
Time_Shift_37
Note_On_58_Vel_52
Time_Shift_232
Note_On_53_Vel_0
Note_On_56_Vel_0
Time_Shift_9
Note_On_65_Vel_51
Time_Shift_1
Note_On_53_Vel_40
Time_Shift_1
Note_On_56_Vel_38
Time_Shift_7
Sustain_Off
Time_Shift_34
Note_On_50_Vel_0
Time_Shift_13
Note_On_58_Vel_0
Time_Shift_50
Note_On_68_Vel_0
Time_Shift_54
Sustain_On
Time_Shift_52
Note_On_72_Vel_59
Time_Shift_236
Note_On_46_Vel_40
Time_Shift_9
Note_On_70_Vel_60
Time_Shift_7
Note_On_56_Vel_0
Note_On_65_Vel_0
Time_Shift_1
Sustain_Off
Note_On_72_Vel_0
Time_Shift_18
Note_On_53_Vel_0
Time_Shift_130
Sustain_On
Time_Shift_83
Note_On_69_Vel_54
Time_Shift_298
Note_On_68_Vel_50
Time_Shift_10
Note_On_56_Vel_35
Time_Shift_13
Sustain_Off
Time_Shift_6
Note_On_41_Vel_26
Time_Shift_1
Note_On_46_Vel_0
Note_On_69_Vel_0
Time_Shift_2
Note_On_70_Vel_0
Time_Shift_6
Note_On_62_Vel_26
Time_Shift_257
Sustain_On
Time_Shift_103
Note_On_58_Vel_41
Time_Shift_262
Note_On_63_Vel_54
Time_Shift_211
Note_On_65_Vel_54
Time_Shift_280
Note_On_39_Vel_28
Time_Shift_5
Sustain_Off
Time_Shift_17
Note_On_67_Vel_52
Time_Shift_10
Note_On_56_Vel_0
Note_On_65_Vel_0
Time_Shift_1
Note_On_58_Vel_0
Time_Shift_2
Note_On_63_Vel_0
Time_Shift_8
Note_On_62_Vel_0
Time_Shift_7
Note_On_68_Vel_0
Time_Shift_8
Note_On_41_Vel_0
Time_Shift_146
Sustain_On
Time_Shift_408
Note_On_66_Vel_47
Time_Shift_1
Note_On_51_Vel_30
Note_On_58_Vel_40
Time_Shift_2
Note_On_55_Vel_30
Time_Shift_4
Note_On_63_Vel_35
Time_Shift_48
Note_On_67_Vel_0
Time_Shift_5
Sustain_Off
Time_Shift_92
Sustain_On
Time_Shift_43
Note_On_67_Vel_60
Time_Shift_219
Note_On_55_Vel_0
Time_Shift_32
Note_On_72_Vel_61
Time_Shift_6
Note_On_58_Vel_0
Note_On_63_Vel_0
Time_Shift_4
Note_On_58_Vel_35
Time_Shift_2
Note_On_63_Vel_34
Time_Shift_5
Note_On_55_Vel_27
Time_Shift_24
Sustain_Off
Time_Shift_9
Note_On_66_Vel_0
Time_Shift_1
Note_On_51_Vel_0
Time_Shift_2
Note_On_67_Vel_0
Time_Shift_214
Sustain_On
Time_Shift_188
Note_On_70_Vel_53
Time_Shift_96
Note_On_55_Vel_0
Time_Shift_16
Note_On_70_Vel_0
Time_Shift_8
Note_On_70_Vel_52
Time_Shift_79
Note_On_72_Vel_0
Time_Shift_6
Note_On_63_Vel_0
Time_Shift_14
Note_On_58_Vel_0
Time_Shift_23
Sustain_Off
Time_Shift_62
Note_On_39_Vel_0
Time_Shift_250
Note_On_58_Vel_34
Time_Shift_4
Note_On_62_Vel_27
Time_Shift_1
Note_On_65_Vel_24
Time_Shift_2
Note_On_41_Vel_25
Time_Shift_1
Note_On_53_Vel_32
Time_Shift_202
Note_On_70_Vel_0
Time_Shift_319
Note_On_46_Vel_32
Time_Shift_4
Note_On_65_Vel_0
Time_Shift_4
Note_On_65_Vel_24
Time_Shift_4
Note_On_34_Vel_29
Time_Shift_14
Note_On_68_Vel_42
Time_Shift_1
Note_On_58_Vel_0
Time_Shift_6
Note_On_58_Vel_22
Time_Shift_50
Note_On_53_Vel_0
Time_Shift_1
Note_On_62_Vel_0
Time_Shift_12
Note_On_34_Vel_0
Note_On_41_Vel_0
Time_Shift_77
Sustain_On
Time_Shift_396
Note_On_46_Vel_0
Time_Shift_4
Note_On_68_Vel_0
Time_Shift_2
Sustain_Off
Time_Shift_1
Note_On_67_Vel_37
Time_Shift_4
Note_On_58_Vel_0
Time_Shift_15
Note_On_65_Vel_0
Time_Shift_238
Sustain_On
Time_Shift_232
Note_On_66_Vel_46
Note_On_39_Vel_32
Time_Shift_4
Sustain_Off
Note_On_58_Vel_34
Time_Shift_22
Note_On_51_Vel_32
Time_Shift_6
Note_On_63_Vel_29
Time_Shift_120
Sustain_On
Time_Shift_31
Note_On_67_Vel_0
Time_Shift_11
Note_On_67_Vel_52
Time_Shift_195
Note_On_70_Vel_47
Time_Shift_25
Note_On_58_Vel_0
Time_Shift_7
Note_On_58_Vel_37
Note_On_39_Vel_0
Time_Shift_2
Note_On_27_Vel_35
Time_Shift_4
Note_On_39_Vel_31
Time_Shift_2
Note_On_27_Vel_0
Time_Shift_4
Note_On_68_Vel_55
Time_Shift_9
Note_On_51_Vel_0
Time_Shift_1
Note_On_67_Vel_0
Time_Shift_3
Note_On_66_Vel_0
Time_Shift_1
Sustain_Off
Time_Shift_51
Note_On_70_Vel_0
Time_Shift_184
Sustain_On
Time_Shift_90
Note_On_67_Vel_47
Time_Shift_113
Sustain_Off
Time_Shift_5
Note_On_67_Vel_0
Time_Shift_8
Note_On_67_Vel_52
Time_Shift_15
Sustain_On
Time_Shift_30
Note_On_58_Vel_0
Time_Shift_6
Note_On_68_Vel_0
Time_Shift_9
Note_On_39_Vel_0
Time_Shift_331
Note_On_63_Vel_0
Time_Shift_21
Note_On_58_Vel_38
Time_Shift_4
Note_On_39_Vel_27
Time_Shift_2
Note_On_61_Vel_32
Time_Shift_472
Note_On_61_Vel_0
Time_Shift_4
Note_On_65_Vel_47
Time_Shift_7
Note_On_61_Vel_32
Time_Shift_5
Note_On_55_Vel_27
Time_Shift_7
Note_On_39_Vel_0
Time_Shift_9
Note_On_39_Vel_27
Time_Shift_11
Sustain_Off
Time_Shift_32
Note_On_67_Vel_0
Time_Shift_11
Note_On_58_Vel_0
Time_Shift_191
Sustain_On
Time_Shift_148
Note_On_63_Vel_51
Time_Shift_172
Sustain_Off
Time_Shift_2
Note_On_63_Vel_0
Time_Shift_7
Note_On_63_Vel_48
Time_Shift_11
Note_On_65_Vel_0
Time_Shift_1
Note_On_55_Vel_0
Time_Shift_19
Note_On_44_Vel_34
Time_Shift_3
Note_On_56_Vel_26
Time_Shift_36
Note_On_61_Vel_0
Time_Shift_38
Note_On_39_Vel_0
Time_Shift_100
Sustain_On
Time_Shift_361
Note_On_56_Vel_0
Time_Shift_3
Note_On_51_Vel_33
Time_Shift_1
Note_On_60_Vel_34
Note_On_56_Vel_30
Time_Shift_1
Note_On_65_Vel_44
Time_Shift_195
Note_On_63_Vel_0
Time_Shift_8
Note_On_63_Vel_53
Time_Shift_215
Note_On_51_Vel_0
Note_On_56_Vel_0
Time_Shift_3
Note_On_59_Vel_57
Time_Shift_4
Note_On_56_Vel_48
Time_Shift_1
Note_On_51_Vel_42
Time_Shift_1
Note_On_53_Vel_35
Time_Shift_18
Sustain_Off
Time_Shift_6
Note_On_65_Vel_0
Time_Shift_1
Note_On_63_Vel_0
Note_On_60_Vel_0
Time_Shift_5
Note_On_53_Vel_0
Time_Shift_53
Sustain_On
Time_Shift_126
Note_On_63_Vel_55
Time_Shift_254
Note_On_63_Vel_0
Time_Shift_1
Note_On_59_Vel_0
Time_Shift_7
Sustain_Off
Note_On_46_Vel_44
Time_Shift_1
Note_On_58_Vel_52
Time_Shift_3
Note_On_56_Vel_0
Time_Shift_7
Note_On_51_Vel_0
Time_Shift_54
Note_On_44_Vel_0
Time_Shift_23
Sustain_On
Time_Shift_141
Note_On_63_Vel_59
Time_Shift_197
Note_On_58_Vel_0
Time_Shift_11
Note_On_58_Vel_50
Time_Shift_8
Sustain_Off
Time_Shift_1
Note_On_67_Vel_59
Time_Shift_5
Note_On_55_Vel_44
Time_Shift_90
Sustain_On
Time_Shift_103
Note_On_70_Vel_67
Time_Shift_253
Note_On_79_Vel_67
Time_Shift_255
Note_On_72_Vel_61
Note_On_69_Vel_50
Time_Shift_318
Note_On_63_Vel_0
Time_Shift_10
Note_On_68_Vel_54
Time_Shift_10
Note_On_34_Vel_38
Note_On_77_Vel_55
Time_Shift_8
Sustain_Off
Time_Shift_14
Note_On_70_Vel_0
Note_On_72_Vel_0
Time_Shift_1
Note_On_79_Vel_0
Note_On_67_Vel_0
Note_On_46_Vel_0
Time_Shift_1
Note_On_69_Vel_0
Note_On_55_Vel_0
Time_Shift_10
Note_On_58_Vel_0
Time_Shift_92
Sustain_On
Time_Shift_191
Note_On_67_Vel_49
Note_On_71_Vel_57
Time_Shift_274
Note_On_67_Vel_0
Note_On_71_Vel_0
Time_Shift_1
Note_On_77_Vel_0
Time_Shift_1
Sustain_Off
Note_On_34_Vel_0
Time_Shift_9
Note_On_68_Vel_0
Time_Shift_4
Note_On_72_Vel_49
Time_Shift_4
Note_On_46_Vel_36
Time_Shift_1
Note_On_68_Vel_47
Time_Shift_7
Note_On_62_Vel_32
Time_Shift_4
Note_On_58_Vel_37
Time_Shift_34
Sustain_On
Time_Shift_179
Note_On_52_Vel_39
Time_Shift_1
Note_On_67_Vel_48
Time_Shift_2
Note_On_64_Vel_47
Time_Shift_3
Note_On_52_Vel_0
Time_Shift_7
Note_On_68_Vel_0
Time_Shift_212
Sustain_Off
Time_Shift_11
Note_On_72_Vel_0
Note_On_62_Vel_0
Note_On_67_Vel_0
Time_Shift_1
Note_On_58_Vel_0
Note_On_64_Vel_0
Time_Shift_22
Note_On_46_Vel_0
Time_Shift_10
Note_On_68_Vel_48
Time_Shift_1
Note_On_46_Vel_40
Time_Shift_7
Note_On_65_Vel_45
Time_Shift_105
Sustain_On
Time_Shift_192
Note_On_46_Vel_0
Time_Shift_9
Note_On_46_Vel_32
Time_Shift_1
Note_On_62_Vel_48
Time_Shift_1
Note_On_56_Vel_44
Time_Shift_150
Note_On_68_Vel_0
Time_Shift_212
Note_On_55_Vel_31
Time_Shift_1
Note_On_39_Vel_30
Time_Shift_3
Note_On_63_Vel_36
Time_Shift_5
Sustain_Off
Time_Shift_8
Note_On_56_Vel_0
Time_Shift_3
Note_On_46_Vel_0
Time_Shift_1
Note_On_62_Vel_0
Time_Shift_1
Note_On_65_Vel_0
Time_Shift_288
Sustain_On
Time_Shift_384
Note_On_39_Vel_0
Time_Shift_4
Note_On_39_Vel_30
Time_Shift_3
Note_On_58_Vel_31
Time_Shift_777
Note_On_58_Vel_0
Time_Shift_7
Note_On_39_Vel_0
Time_Shift_4
Note_On_58_Vel_32
Time_Shift_2
Note_On_39_Vel_24
Time_Shift_43
Sustain_Off
Time_Shift_67
Note_On_55_Vel_0
Time_Shift_23
Note_On_39_Vel_0
Time_Shift_76
Note_On_63_Vel_0
Time_Shift_123
Sustain_On
Time_Shift_365
Note_On_67_Vel_41
Time_Shift_118
Note_On_58_Vel_0
Time_Shift_484
Note_On_58_Vel_27
Time_Shift_21
Note_On_39_Vel_28
Time_Shift_13
Note_On_66_Vel_39
Time_Shift_48
Note_On_67_Vel_0
Time_Shift_11
Sustain_Off
Time_Shift_100
Sustain_On
Time_Shift_44
Note_On_67_Vel_52
Time_Shift_217
Note_On_39_Vel_0
Time_Shift_9
Note_On_39_Vel_35
Time_Shift_15
Note_On_70_Vel_50
Time_Shift_1
Note_On_72_Vel_56
Time_Shift_24
Note_On_58_Vel_0
Time_Shift_3
Note_On_66_Vel_0
Time_Shift_2
Note_On_67_Vel_0
Time_Shift_15
Sustain_Off
Time_Shift_85
Sustain_On
Time_Shift_46
Note_On_70_Vel_0
Time_Shift_11
Note_On_70_Vel_64
Time_Shift_204
Note_On_70_Vel_0
Time_Shift_5
Note_On_70_Vel_53
Time_Shift_64
Note_On_72_Vel_0
Time_Shift_10
Note_On_39_Vel_0
Time_Shift_13
Sustain_Off
Time_Shift_154
Sustain_On
Time_Shift_186
Note_On_46_Vel_28
Time_Shift_511
Note_On_68_Vel_52
Time_Shift_31
Note_On_58_Vel_32
Time_Shift_4
Note_On_62_Vel_24
Time_Shift_9
Note_On_50_Vel_29
Time_Shift_1
Note_On_38_Vel_25
Time_Shift_6
Note_On_53_Vel_27
Time_Shift_4
Note_On_38_Vel_0
Time_Shift_66
Sustain_Off
Time_Shift_1
Note_On_46_Vel_0
Time_Shift_1
Note_On_70_Vel_0
Time_Shift_247
Note_On_50_Vel_0
Time_Shift_128
Note_On_67_Vel_48
Time_Shift_58
Note_On_68_Vel_0
Time_Shift_1
Note_On_62_Vel_0
Note_On_53_Vel_0
Time_Shift_6
Note_On_58_Vel_0
Time_Shift_114
Sustain_On
Time_Shift_319
Note_On_63_Vel_39
Time_Shift_2
Note_On_51_Vel_35
Time_Shift_8
Note_On_39_Vel_32
Time_Shift_2
Note_On_63_Vel_0
Note_On_66_Vel_47
Time_Shift_5
Note_On_58_Vel_37
Time_Shift_29
Note_On_67_Vel_0
Time_Shift_35
Sustain_Off
Time_Shift_100
Sustain_On
Time_Shift_33
Note_On_67_Vel_59
Time_Shift_156
Note_On_70_Vel_55
Time_Shift_51
Note_On_66_Vel_0
Time_Shift_3
Note_On_70_Vel_0
Note_On_67_Vel_0
Time_Shift_3
Sustain_Off
Time_Shift_4
Note_On_68_Vel_51
Time_Shift_11
Note_On_39_Vel_0
Note_On_58_Vel_0
Time_Shift_8
Note_On_39_Vel_30
Time_Shift_1
Note_On_27_Vel_31
Time_Shift_1
Note_On_58_Vel_32
Time_Shift_5
Note_On_27_Vel_0
Time_Shift_277
Note_On_68_Vel_0
Time_Shift_7
Sustain_On
Time_Shift_62
Sustain_Off
Time_Shift_13
Note_On_67_Vel_49
Time_Shift_133
Note_On_67_Vel_0
Time_Shift_7
Sustain_On
Time_Shift_2
Note_On_67_Vel_49
Time_Shift_40
Sustain_Off
Time_Shift_4
Sustain_On
Time_Shift_31
Note_On_51_Vel_0
Time_Shift_4
Note_On_58_Vel_0
Time_Shift_27
Note_On_39_Vel_0
Time_Shift_299
Sustain_Off
Time_Shift_7
Note_On_39_Vel_28
Time_Shift_3
Note_On_55_Vel_27
Time_Shift_2
Note_On_59_Vel_34
Time_Shift_1
Note_On_50_Vel_30
Time_Shift_3
Note_On_39_Vel_0
Time_Shift_107
Sustain_On
Time_Shift_231
Note_On_67_Vel_0
Time_Shift_122
Note_On_65_Vel_30
Time_Shift_22
Note_On_43_Vel_29
Time_Shift_1
Note_On_55_Vel_0
Time_Shift_1
Note_On_51_Vel_20
Time_Shift_4
Note_On_31_Vel_27
Note_On_55_Vel_19
Time_Shift_3
Note_On_51_Vel_0
Time_Shift_8
Note_On_31_Vel_0
Time_Shift_46
Sustain_Off
Time_Shift_11
Note_On_59_Vel_0
Time_Shift_1
Note_On_50_Vel_0
Time_Shift_180
Sustain_On
Time_Shift_138
Sustain_Off
Time_Shift_36
Note_On_63_Vel_38
Time_Shift_41
Note_On_55_Vel_0
Time_Shift_1
Note_On_65_Vel_0
Time_Shift_14
Note_On_43_Vel_0
Time_Shift_16
Sustain_On
Time_Shift_410
Sustain_Off
Time_Shift_5
Note_On_63_Vel_0
Time_Shift_1
Note_On_48_Vel_29
Time_Shift_2
Note_On_55_Vel_24
Time_Shift_9
Note_On_65_Vel_30
Time_Shift_49
Sustain_On
Time_Shift_172
Note_On_63_Vel_48
Time_Shift_214
Note_On_45_Vel_45
Note_On_60_Vel_53
Time_Shift_1
Note_On_54_Vel_42
Note_On_33_Vel_43
Time_Shift_5
Note_On_33_Vel_0
Time_Shift_11
Note_On_55_Vel_0
Time_Shift_1
Note_On_65_Vel_0
Time_Shift_2
Note_On_48_Vel_0
Time_Shift_4
Note_On_63_Vel_0
Time_Shift_16
Sustain_Off
Time_Shift_104
Sustain_On
Time_Shift_68
Note_On_63_Vel_51
Time_Shift_202
Note_On_54_Vel_0
Time_Shift_2
Note_On_60_Vel_0
Note_On_45_Vel_0
Time_Shift_1
Sustain_Off
Time_Shift_1
Note_On_63_Vel_0
Time_Shift_22
Note_On_46_Vel_46
Time_Shift_3
Note_On_58_Vel_49
Time_Shift_131
Sustain_On
Time_Shift_84
Note_On_63_Vel_55
Time_Shift_215
Note_On_46_Vel_0
Note_On_58_Vel_0
Note_On_63_Vel_0
Time_Shift_4
Note_On_67_Vel_61
Note_On_46_Vel_39
Time_Shift_2
Note_On_58_Vel_47
Time_Shift_2
Note_On_63_Vel_44
Time_Shift_1
Note_On_55_Vel_38
Time_Shift_14
Sustain_Off
Time_Shift_116
Sustain_On
Time_Shift_65
Note_On_70_Vel_67
Time_Shift_224
Note_On_75_Vel_67
Time_Shift_207
Note_On_72_Vel_64
Time_Shift_230
Sustain_Off
Time_Shift_1
Note_On_46_Vel_0
Note_On_67_Vel_0
Note_On_34_Vel_35
Time_Shift_1
Note_On_63_Vel_0
Note_On_58_Vel_0
Time_Shift_1
Note_On_75_Vel_0
Note_On_72_Vel_0
Note_On_70_Vel_0
Time_Shift_3
Note_On_55_Vel_0
Time_Shift_2
Note_On_70_Vel_57
Time_Shift_210
Sustain_On
Time_Shift_13
Note_On_69_Vel_55
Time_Shift_230
Note_On_68_Vel_53
Time_Shift_6
Note_On_56_Vel_39
Time_Shift_21
Note_On_50_Vel_33
Time_Shift_1
Note_On_53_Vel_27
Time_Shift_12
Note_On_34_Vel_0
Time_Shift_6
Sustain_Off
Time_Shift_11
Note_On_69_Vel_0
Time_Shift_46
Note_On_70_Vel_0
Time_Shift_77
Sustain_On
Time_Shift_57
Note_On_58_Vel_51
Time_Shift_227
Note_On_56_Vel_0
Time_Shift_7
Note_On_53_Vel_0
Time_Shift_4
Note_On_56_Vel_34
Time_Shift_1
Note_On_53_Vel_38
Note_On_65_Vel_49
Time_Shift_7
Note_On_62_Vel_34
Time_Shift_127
Note_On_58_Vel_0
Time_Shift_7
Note_On_68_Vel_0
Time_Shift_91
Note_On_72_Vel_58
Time_Shift_254
Sustain_Off
Time_Shift_3
Note_On_56_Vel_0
Time_Shift_1
Note_On_53_Vel_0
Note_On_70_Vel_56
Time_Shift_1
Note_On_65_Vel_0
Note_On_46_Vel_38
Note_On_72_Vel_0
Time_Shift_80
Sustain_On
Time_Shift_167
Note_On_69_Vel_50
Time_Shift_290
Note_On_56_Vel_34
Time_Shift_8
Note_On_68_Vel_48
Time_Shift_3
Note_On_53_Vel_27
Time_Shift_4
Note_On_41_Vel_28
Time_Shift_5
Note_On_62_Vel_0
Time_Shift_5
Note_On_62_Vel_27
Time_Shift_14
Sustain_Off
Time_Shift_4
Note_On_69_Vel_0
Time_Shift_2
Note_On_46_Vel_0
Time_Shift_1
Note_On_70_Vel_0
Time_Shift_219
Sustain_On
Time_Shift_107
Note_On_58_Vel_49
Time_Shift_244
Note_On_63_Vel_58
Time_Shift_18
Note_On_50_Vel_0
Time_Shift_197
Note_On_65_Vel_57
Time_Shift_253
Note_On_39_Vel_39
Time_Shift_1
Note_On_67_Vel_60
Time_Shift_13
Sustain_Off
Time_Shift_2
Note_On_63_Vel_0
Time_Shift_2
Note_On_65_Vel_0
Time_Shift_1
Note_On_56_Vel_0
Note_On_53_Vel_0
Time_Shift_2
Note_On_58_Vel_0
Time_Shift_5
Note_On_68_Vel_0
Time_Shift_8
Note_On_62_Vel_0
Time_Shift_23
Note_On_41_Vel_0
Time_Shift_207
Sustain_On
Time_Shift_296
Note_On_66_Vel_48
Time_Shift_22
Note_On_63_Vel_39
Time_Shift_3
Note_On_58_Vel_38
Time_Shift_10
Note_On_55_Vel_32
Time_Shift_11
Note_On_51_Vel_26
Time_Shift_96
Note_On_67_Vel_0
Time_Shift_81
Note_On_67_Vel_65
Time_Shift_249
Note_On_51_Vel_0
Note_On_58_Vel_0
Note_On_63_Vel_0
Time_Shift_4
Note_On_72_Vel_67
Time_Shift_4
Note_On_63_Vel_40
Time_Shift_2
Note_On_51_Vel_33
Time_Shift_1
Note_On_58_Vel_40
Time_Shift_5
Note_On_55_Vel_0
Time_Shift_4
Note_On_55_Vel_29
Time_Shift_23
Note_On_66_Vel_0
Note_On_67_Vel_0
Time_Shift_4
Sustain_Off
Time_Shift_7
Note_On_39_Vel_0
Time_Shift_23
Note_On_55_Vel_0
Time_Shift_284
Note_On_51_Vel_0
Time_Shift_28
Note_On_70_Vel_68
Time_Shift_95
Note_On_70_Vel_0
Time_Shift_7
Note_On_70_Vel_62
Time_Shift_4
Note_On_72_Vel_0
Time_Shift_51
Note_On_58_Vel_0
Time_Shift_46
Note_On_63_Vel_0
Time_Shift_38
Sustain_On
Time_Shift_281
Note_On_50_Vel_28
Time_Shift_7
Note_On_53_Vel_29
Time_Shift_1
Note_On_65_Vel_22
Time_Shift_2
Note_On_58_Vel_33
Time_Shift_62
Sustain_Off
Time_Shift_100
Sustain_On
Time_Shift_292
Note_On_65_Vel_0
Time_Shift_2
Note_On_68_Vel_53
Time_Shift_3
Note_On_65_Vel_31
Time_Shift_2
Note_On_46_Vel_39
Time_Shift_8
Note_On_50_Vel_0
Time_Shift_3
Sustain_Off
Time_Shift_5
Note_On_58_Vel_0
Time_Shift_6
Note_On_58_Vel_22
Time_Shift_32
Note_On_70_Vel_0
Time_Shift_20
Note_On_53_Vel_0
Time_Shift_142
Sustain_On
Time_Shift_234
Note_On_67_Vel_46
Time_Shift_11
Sustain_Off
Time_Shift_16
Note_On_58_Vel_0
Time_Shift_7
Note_On_68_Vel_0
Time_Shift_6
Note_On_46_Vel_0
Time_Shift_41
Note_On_65_Vel_0
Time_Shift_69
Sustain_On
Time_Shift_304
Sustain_Off
Time_Shift_8
Note_On_66_Vel_47
Time_Shift_7
Note_On_39_Vel_33
Time_Shift_2
Note_On_51_Vel_34
Time_Shift_3
Note_On_58_Vel_36
Time_Shift_3
Note_On_63_Vel_37
Time_Shift_80
Note_On_67_Vel_0
Time_Shift_141
Note_On_67_Vel_54
Time_Shift_168
Note_On_67_Vel_0
Time_Shift_2
Note_On_66_Vel_0
Time_Shift_4
Note_On_70_Vel_56
Time_Shift_61
Note_On_39_Vel_0
Note_On_58_Vel_0
Time_Shift_5
Note_On_70_Vel_0
Note_On_68_Vel_59
Time_Shift_3
Note_On_51_Vel_0
Note_On_63_Vel_0
Note_On_58_Vel_38
Time_Shift_2
Note_On_39_Vel_33
Time_Shift_5
Note_On_51_Vel_33
Time_Shift_3
Note_On_63_Vel_35
Time_Shift_197
Sustain_On
Time_Shift_144
Note_On_67_Vel_48
Time_Shift_125
Note_On_67_Vel_0
Time_Shift_2
Sustain_Off
Time_Shift_6
Note_On_67_Vel_48
Time_Shift_13
Note_On_68_Vel_0
Time_Shift_5
Note_On_58_Vel_0
Time_Shift_1
Note_On_51_Vel_0
Time_Shift_4
Note_On_63_Vel_0
Time_Shift_38
Note_On_39_Vel_0
Time_Shift_23
Sustain_On
Time_Shift_364
Note_On_51_Vel_27
Time_Shift_1
Note_On_39_Vel_27
Note_On_61_Vel_35
Time_Shift_1
Note_On_58_Vel_37
Time_Shift_517
Note_On_51_Vel_0
Time_Shift_8
Note_On_61_Vel_0
Time_Shift_3
Note_On_51_Vel_33
Time_Shift_3
Note_On_55_Vel_31
Note_On_65_Vel_44
Note_On_61_Vel_36
Time_Shift_13
Sustain_Off
Time_Shift_42
Note_On_67_Vel_0
Time_Shift_4
Note_On_58_Vel_0
Time_Shift_1
Note_On_39_Vel_0
Time_Shift_249
Sustain_On
Time_Shift_146
Note_On_61_Vel_0
Time_Shift_8
Note_On_61_Vel_32
Note_On_63_Vel_50
Time_Shift_207
Note_On_63_Vel_0
Time_Shift_4
Note_On_63_Vel_43
Time_Shift_1
Note_On_65_Vel_0
Sustain_Off
Time_Shift_1
Note_On_61_Vel_0
Time_Shift_9
Note_On_51_Vel_0
Time_Shift_6
Note_On_44_Vel_34
Time_Shift_7
Note_On_32_Vel_27
Time_Shift_3
Note_On_55_Vel_0
Time_Shift_7
Note_On_32_Vel_0
Time_Shift_69
Sustain_On
Time_Shift_474
Note_On_65_Vel_44
Time_Shift_5
Note_On_60_Vel_32
Time_Shift_1
Note_On_56_Vel_33
Note_On_51_Vel_31
Time_Shift_36
Note_On_63_Vel_0
Time_Shift_7
Sustain_Off
Time_Shift_53
Sustain_On
Time_Shift_120
Note_On_63_Vel_54
Time_Shift_226
Note_On_56_Vel_0
Time_Shift_8
Note_On_51_Vel_0
Note_On_56_Vel_42
Time_Shift_1
Note_On_59_Vel_57
Time_Shift_2
Note_On_51_Vel_38
Time_Shift_11
Sustain_Off
Time_Shift_4
Note_On_60_Vel_0
Time_Shift_1
Note_On_63_Vel_0
Time_Shift_1
Note_On_65_Vel_0
Time_Shift_64
Sustain_On
Time_Shift_131
Note_On_63_Vel_49
Time_Shift_241
Note_On_58_Vel_54
Time_Shift_15
Sustain_Off
Time_Shift_4
Note_On_46_Vel_37
Time_Shift_12
Note_On_59_Vel_0
Time_Shift_1
Note_On_63_Vel_0
Time_Shift_6
Note_On_44_Vel_0
Time_Shift_12
Note_On_56_Vel_0
Time_Shift_16
Note_On_51_Vel_0
Time_Shift_46
Sustain_On
Time_Shift_113
Note_On_63_Vel_57
Time_Shift_248
Note_On_58_Vel_0
Note_On_63_Vel_0
Time_Shift_3
Note_On_67_Vel_60
Time_Shift_7
Note_On_58_Vel_50
Time_Shift_1
Note_On_63_Vel_42
Time_Shift_4
Note_On_55_Vel_31
Time_Shift_196
Note_On_70_Vel_62
Time_Shift_240
Note_On_79_Vel_67
Time_Shift_15
Note_On_73_Vel_32
Time_Shift_10
Note_On_73_Vel_0
Time_Shift_177
Note_On_72_Vel_65
Time_Shift_2
Note_On_69_Vel_58
Time_Shift_270
Note_On_58_Vel_0
Note_On_67_Vel_0
Time_Shift_1
Note_On_55_Vel_0
Note_On_69_Vel_0
Note_On_79_Vel_0
Note_On_46_Vel_0
Note_On_70_Vel_0
Time_Shift_1
Note_On_72_Vel_0
Sustain_Off
Time_Shift_4
Note_On_34_Vel_43
Time_Shift_6
Note_On_63_Vel_0
Time_Shift_4
Note_On_68_Vel_51
Time_Shift_1
Note_On_77_Vel_60
Time_Shift_95
Sustain_On
Time_Shift_167
Note_On_71_Vel_61
Time_Shift_4
Note_On_67_Vel_51
Time_Shift_44
Note_On_68_Vel_0
Time_Shift_190
Note_On_67_Vel_0
Time_Shift_1
Sustain_Off
Note_On_77_Vel_0
Time_Shift_1
Note_On_34_Vel_0
Note_On_71_Vel_0
Time_Shift_27
Note_On_72_Vel_61
Time_Shift_4
Note_On_68_Vel_53
Time_Shift_1
Note_On_62_Vel_39
Time_Shift_5
Note_On_46_Vel_35
Time_Shift_2
Note_On_53_Vel_35
Time_Shift_53
Sustain_On
Time_Shift_156
Note_On_67_Vel_56
Time_Shift_2
Note_On_64_Vel_53
Time_Shift_11
Note_On_68_Vel_0
Time_Shift_227
Sustain_Off
Time_Shift_3
Note_On_64_Vel_0
Time_Shift_1
Note_On_67_Vel_0
Time_Shift_2
Note_On_72_Vel_0
Note_On_53_Vel_0
Time_Shift_5
Note_On_62_Vel_0
Time_Shift_23
Note_On_46_Vel_0
Time_Shift_1
Note_On_68_Vel_52
Time_Shift_3
Note_On_46_Vel_41
Time_Shift_1
Note_On_65_Vel_51
Time_Shift_13
Note_On_58_Vel_32
Time_Shift_82
Sustain_On
Time_Shift_23
Note_On_58_Vel_0
Time_Shift_130
Note_On_46_Vel_0
Time_Shift_11
Note_On_62_Vel_54
Time_Shift_1
Note_On_46_Vel_36
Note_On_56_Vel_47
Time_Shift_326
Note_On_68_Vel_0
Time_Shift_1
Note_On_39_Vel_32
Time_Shift_1
Sustain_Off
Time_Shift_1
Note_On_55_Vel_32
Time_Shift_2
Note_On_63_Vel_49
Note_On_56_Vel_0
Note_On_46_Vel_0
Note_On_65_Vel_0
Time_Shift_1
Note_On_62_Vel_0
Time_Shift_148
Sustain_On
Time_Shift_509
Note_On_58_Vel_35
Time_Shift_8
Note_On_51_Vel_26
Time_Shift_709
Note_On_51_Vel_0
Time_Shift_1
Sustain_Off
Note_On_63_Vel_0
Time_Shift_2
Note_On_39_Vel_0
Note_On_58_Vel_0
Time_Shift_1
Note_On_55_Vel_0
Time_Shift_41
Note_On_65_Vel_33
Time_Shift_234
Sustain_On
Time_Shift_43
Note_On_63_Vel_53
Time_Shift_303
Note_On_62_Vel_51
Time_Shift_15
Sustain_Off
Time_Shift_27
Note_On_63_Vel_0
Time_Shift_4
Note_On_65_Vel_0
Time_Shift_207
Sustain_On
Time_Shift_299
Note_On_71_Vel_42
Time_Shift_10
Note_On_67_Vel_39
Time_Shift_3
Note_On_65_Vel_26
Time_Shift_192
Note_On_55_Vel_49
Time_Shift_218
Note_On_65_Vel_0
Note_On_67_Vel_0
Time_Shift_5
Note_On_67_Vel_54
Time_Shift_2
Note_On_60_Vel_58
Time_Shift_4
Note_On_65_Vel_56
Time_Shift_166
Note_On_62_Vel_0
Time_Shift_8
Note_On_62_Vel_58
Time_Shift_232
Note_On_63_Vel_57
Time_Shift_56
Sustain_Off
Time_Shift_2
Note_On_60_Vel_0
Note_On_55_Vel_0
Note_On_67_Vel_0
Time_Shift_9
Note_On_71_Vel_0
Time_Shift_8
Note_On_62_Vel_0
Note_On_65_Vel_0
Time_Shift_215
Sustain_On
Time_Shift_180
Note_On_66_Vel_34
Time_Shift_1
Note_On_72_Vel_44
Time_Shift_13
Note_On_69_Vel_39
Time_Shift_197
Note_On_63_Vel_0
Time_Shift_9
Note_On_63_Vel_54
Time_Shift_229
Note_On_69_Vel_0
Time_Shift_5
Note_On_62_Vel_52
Time_Shift_4
Note_On_69_Vel_35
Time_Shift_19
Sustain_Off
Time_Shift_53
Note_On_63_Vel_0
Time_Shift_1
Note_On_66_Vel_0
Note_On_69_Vel_0
Time_Shift_4
Note_On_72_Vel_0
Time_Shift_53
Sustain_On
Time_Shift_109
Note_On_60_Vel_43
Time_Shift_34
Note_On_75_Vel_60
Time_Shift_200
Note_On_46_Vel_43
Time_Shift_74
Sustain_Off
Time_Shift_5
Note_On_62_Vel_0
Time_Shift_7
Note_On_60_Vel_0
Time_Shift_73
Note_On_60_Vel_60
Time_Shift_58
Sustain_On
Time_Shift_221
Note_On_58_Vel_62
Time_Shift_48
Note_On_75_Vel_0
Time_Shift_196
Note_On_57_Vel_56
Time_Shift_15
Note_On_62_Vel_46
Time_Shift_1
Note_On_68_Vel_50
Time_Shift_3
Note_On_60_Vel_0
Time_Shift_4
Note_On_60_Vel_36
Time_Shift_23
Note_On_58_Vel_0
Time_Shift_2
Note_On_46_Vel_0
Time_Shift_48
Sustain_Off
Time_Shift_84
Sustain_On
Time_Shift_24
Note_On_58_Vel_60
Time_Shift_38
Note_On_60_Vel_0
Time_Shift_181
Sustain_Off
Time_Shift_8
Note_On_57_Vel_0
Note_On_58_Vel_0
Time_Shift_1
Note_On_60_Vel_52
Time_Shift_25
Note_On_68_Vel_0
Time_Shift_8
Note_On_62_Vel_0
Note_On_68_Vel_42
Time_Shift_4
Note_On_62_Vel_34
Time_Shift_95
Sustain_On
Time_Shift_141
Note_On_58_Vel_52
Time_Shift_104
Note_On_51_Vel_44
Time_Shift_86
Note_On_60_Vel_0
Time_Shift_3
Sustain_Off
Time_Shift_8
Note_On_60_Vel_53
Note_On_58_Vel_0
Time_Shift_35
Note_On_62_Vel_0
Time_Shift_130
Sustain_On
Time_Shift_16
Note_On_51_Vel_0
Time_Shift_54
Note_On_58_Vel_52
Time_Shift_253
Note_On_68_Vel_0
Time_Shift_12
Note_On_70_Vel_52
Time_Shift_13
Note_On_57_Vel_52
Note_On_67_Vel_46
Time_Shift_2
Note_On_63_Vel_40
Time_Shift_4
Note_On_58_Vel_0
Time_Shift_8
Sustain_Off
Time_Shift_76
Note_On_60_Vel_0
Time_Shift_138
Sustain_On
Time_Shift_112
Note_On_58_Vel_51
Time_Shift_167
Note_On_62_Vel_53
Time_Shift_59
Note_On_60_Vel_59
Time_Shift_8
Note_On_67_Vel_0
Time_Shift_8
Note_On_70_Vel_0
Time_Shift_3
Note_On_67_Vel_49
Time_Shift_6
Note_On_70_Vel_53
Time_Shift_9
Note_On_58_Vel_0
Time_Shift_1
Note_On_57_Vel_0
Time_Shift_2
Note_On_62_Vel_0
Time_Shift_5
Sustain_Off
Time_Shift_166
Sustain_On
Time_Shift_211
Note_On_58_Vel_54
Time_Shift_162
Note_On_59_Vel_56
Time_Shift_40
Note_On_60_Vel_0
Note_On_67_Vel_0
Time_Shift_1
Note_On_58_Vel_0
Sustain_Off
Time_Shift_8
Note_On_63_Vel_0
Time_Shift_23
Note_On_70_Vel_0
Time_Shift_138
Sustain_On
Time_Shift_334
Note_On_74_Vel_40
Time_Shift_1
Note_On_67_Vel_38
Time_Shift_4
Note_On_65_Vel_31
Time_Shift_207
Note_On_67_Vel_0
Time_Shift_10
Note_On_67_Vel_33
Time_Shift_2
Note_On_43_Vel_47
Time_Shift_5
Note_On_71_Vel_36
Time_Shift_6
Note_On_71_Vel_0
Time_Shift_195
Note_On_60_Vel_59
Time_Shift_4
Note_On_67_Vel_0
Time_Shift_7
Note_On_67_Vel_49
Time_Shift_1
Note_On_65_Vel_0
Time_Shift_8
Note_On_65_Vel_51
Time_Shift_176
Note_On_62_Vel_60
Time_Shift_227
Note_On_63_Vel_57
Time_Shift_60
Note_On_60_Vel_0
Note_On_74_Vel_0
Note_On_43_Vel_0
Note_On_67_Vel_0
Note_On_59_Vel_0
Note_On_62_Vel_0
Time_Shift_7
Sustain_Off
Time_Shift_6
Note_On_65_Vel_0
Time_Shift_161
Sustain_On
Time_Shift_232
Note_On_66_Vel_39
Time_Shift_1
Note_On_72_Vel_49
Time_Shift_3
Note_On_69_Vel_44
Time_Shift_187
Note_On_63_Vel_0
Time_Shift_10
Note_On_63_Vel_54
Time_Shift_274
Note_On_66_Vel_0
Note_On_69_Vel_0
Time_Shift_3
Note_On_62_Vel_57
Time_Shift_1
Note_On_69_Vel_53
Note_On_74_Vel_55
Time_Shift_7
Note_On_66_Vel_54
Time_Shift_55
Note_On_72_Vel_0
Time_Shift_8
Sustain_Off
Time_Shift_10
Note_On_63_Vel_0
Time_Shift_69
Sustain_On
Time_Shift_161
Note_On_60_Vel_54
Time_Shift_93
Note_On_69_Vel_0
Time_Shift_4
Note_On_75_Vel_67
Time_Shift_2
Note_On_69_Vel_48
Time_Shift_142
Note_On_46_Vel_51
Time_Shift_97
Note_On_75_Vel_0
Time_Shift_5
Note_On_75_Vel_60
Time_Shift_203
Note_On_60_Vel_0
Time_Shift_8
Note_On_74_Vel_0
Time_Shift_3
Sustain_Off
Note_On_60_Vel_50
Note_On_68_Vel_49
Time_Shift_1
Note_On_74_Vel_56
Time_Shift_2
Note_On_79_Vel_62
Time_Shift_45
Note_On_75_Vel_0
Time_Shift_2
Note_On_62_Vel_0
Time_Shift_2
Note_On_46_Vel_0
Time_Shift_6
Note_On_66_Vel_0
Time_Shift_8
Note_On_69_Vel_0
Time_Shift_169
Sustain_On
Time_Shift_134
Note_On_58_Vel_53
Time_Shift_245
Note_On_57_Vel_60
Time_Shift_204
Note_On_58_Vel_0
Time_Shift_5
Note_On_58_Vel_60
Time_Shift_256
Note_On_68_Vel_0
Note_On_74_Vel_0
Time_Shift_6
Note_On_74_Vel_50
Note_On_72_Vel_53
Note_On_67_Vel_48
Time_Shift_5
Note_On_70_Vel_52
Note_On_68_Vel_50
Time_Shift_11
Sustain_Off
Time_Shift_13
Note_On_79_Vel_0
Time_Shift_1
Note_On_58_Vel_0
Note_On_57_Vel_0
Time_Shift_18
Note_On_60_Vel_0
Time_Shift_23
Note_On_70_Vel_0
Time_Shift_115
Sustain_On
Time_Shift_80
Note_On_65_Vel_45
Time_Shift_366
Note_On_67_Vel_0
Time_Shift_5
Note_On_75_Vel_50
Time_Shift_6
Note_On_67_Vel_36
Time_Shift_7
Note_On_63_Vel_39
Time_Shift_8
Sustain_Off
Time_Shift_5
Note_On_72_Vel_0
Time_Shift_3
Note_On_65_Vel_0
Time_Shift_4
Note_On_68_Vel_0
Time_Shift_16
Note_On_74_Vel_0
Time_Shift_146
Sustain_On
Time_Shift_538
Sustain_Off
Time_Shift_1
Note_On_63_Vel_0
Time_Shift_1
Note_On_75_Vel_0
Time_Shift_20
Note_On_67_Vel_0
Time_Shift_54
Sustain_On
Time_Shift_34
Note_On_51_Vel_33
Time_Shift_245
Note_On_58_Vel_53
Time_Shift_307
Note_On_65_Vel_36
Time_Shift_5
Note_On_51_Vel_0
Time_Shift_6
Note_On_70_Vel_48
Time_Shift_5
Note_On_67_Vel_38
Time_Shift_290
Note_On_63_Vel_48
Time_Shift_245
Note_On_58_Vel_0
Time_Shift_144
Note_On_62_Vel_45
Time_Shift_43
Sustain_Off
Time_Shift_12
Note_On_67_Vel_0
Note_On_63_Vel_0
Time_Shift_1
Note_On_65_Vel_0
Time_Shift_1
Note_On_70_Vel_0
Time_Shift_229
Sustain_On
Time_Shift_326
Note_On_71_Vel_36
Time_Shift_23
Note_On_65_Vel_25
Time_Shift_4
Note_On_67_Vel_33
Time_Shift_196
Note_On_55_Vel_32
Time_Shift_234
Note_On_65_Vel_0
Note_On_67_Vel_0
Time_Shift_3
Note_On_60_Vel_52
Time_Shift_1
Note_On_67_Vel_40
Time_Shift_3
Note_On_65_Vel_45
Time_Shift_193
Note_On_62_Vel_0
Time_Shift_5
Note_On_62_Vel_59
Time_Shift_236
Note_On_63_Vel_66
Time_Shift_60
Sustain_Off
Time_Shift_11
Note_On_62_Vel_0
Note_On_67_Vel_0
Note_On_60_Vel_0
Note_On_71_Vel_0
Time_Shift_1
Note_On_65_Vel_0
Time_Shift_1
Note_On_55_Vel_0
Time_Shift_200
Sustain_On
Time_Shift_171
Note_On_72_Vel_64
Time_Shift_1
Note_On_69_Vel_61
Time_Shift_1
Note_On_66_Vel_59
Time_Shift_119
Sustain_Off
Time_Shift_69
Note_On_63_Vel_0
Time_Shift_10
Note_On_63_Vel_58
Time_Shift_29
Sustain_On
Time_Shift_227
Note_On_63_Vel_0
Time_Shift_1
Note_On_66_Vel_0
Time_Shift_2
Note_On_69_Vel_0
Time_Shift_4
Note_On_62_Vel_55
Note_On_72_Vel_0
Time_Shift_2
Note_On_69_Vel_49
Time_Shift_4
Sustain_Off
Time_Shift_136
Sustain_On
Time_Shift_124
Note_On_75_Vel_64
Time_Shift_1
Note_On_60_Vel_40
Time_Shift_234
Note_On_46_Vel_44
Time_Shift_125
Note_On_69_Vel_0
Time_Shift_8
Sustain_Off
Time_Shift_4
Note_On_60_Vel_0
Time_Shift_2
Note_On_62_Vel_0
Time_Shift_4
Note_On_75_Vel_0
Time_Shift_49
Note_On_60_Vel_52
Time_Shift_282
Note_On_58_Vel_53
Time_Shift_245
Note_On_57_Vel_56
Time_Shift_6
Note_On_62_Vel_50
Time_Shift_3
Note_On_68_Vel_52
Time_Shift_2
Note_On_69_Vel_52
Time_Shift_28
Note_On_58_Vel_0
Note_On_60_Vel_0
Time_Shift_2
Note_On_46_Vel_0
Time_Shift_94
Note_On_69_Vel_0
Time_Shift_60
Note_On_58_Vel_58
Time_Shift_86
Sustain_On
Time_Shift_124
Sustain_Off
Time_Shift_45
Note_On_60_Vel_49
Note_On_68_Vel_0
Time_Shift_7
Note_On_68_Vel_43
Time_Shift_24
Note_On_57_Vel_0
Time_Shift_14
Note_On_58_Vel_0
Time_Shift_124
Sustain_On
Time_Shift_159
Note_On_58_Vel_50
Time_Shift_130
Note_On_51_Vel_40
Time_Shift_69
Sustain_Off
Time_Shift_9
Note_On_60_Vel_0
Note_On_58_Vel_0
Time_Shift_1
Note_On_62_Vel_0
Time_Shift_50
Note_On_60_Vel_52
Time_Shift_104
Note_On_51_Vel_0
Time_Shift_108
Note_On_68_Vel_0
Time_Shift_23
Note_On_58_Vel_57
Time_Shift_221
Note_On_57_Vel_51
Time_Shift_21
Note_On_51_Vel_37
Time_Shift_9
Note_On_67_Vel_40
Time_Shift_2
Note_On_60_Vel_0
Time_Shift_1
Note_On_58_Vel_0
Time_Shift_4
Note_On_63_Vel_38
Note_On_60_Vel_27
Time_Shift_88
Note_On_57_Vel_0
Time_Shift_99
Sustain_On
Time_Shift_54
Note_On_58_Vel_53
Time_Shift_90
Note_On_62_Vel_46
Time_Shift_54
Sustain_Off
Time_Shift_11
Note_On_67_Vel_0
Time_Shift_2
Note_On_63_Vel_0
Note_On_58_Vel_0
Note_On_62_Vel_0
Time_Shift_4
Note_On_60_Vel_0
Time_Shift_16
Note_On_51_Vel_0
Time_Shift_22
Note_On_60_Vel_38
Time_Shift_27
Note_On_70_Vel_54
Time_Shift_14
Note_On_67_Vel_36
Time_Shift_7
Note_On_63_Vel_34
Time_Shift_153
Sustain_On
Time_Shift_89
Note_On_58_Vel_41
Time_Shift_308
Note_On_59_Vel_39
Time_Shift_55
Sustain_Off
Time_Shift_9
Note_On_63_Vel_0
Note_On_58_Vel_0
Time_Shift_1
Note_On_60_Vel_0
Note_On_67_Vel_0
Time_Shift_2
Note_On_70_Vel_0
Time_Shift_96
Note_On_59_Vel_0
Time_Shift_77
Sustain_On
Time_Shift_313
Note_On_74_Vel_38
Time_Shift_1
Note_On_31_Vel_22
Time_Shift_1
Note_On_67_Vel_36
Time_Shift_4
Note_On_65_Vel_26
Time_Shift_4
Note_On_31_Vel_0
Time_Shift_345
Note_On_67_Vel_0
Time_Shift_9
Note_On_67_Vel_26
Time_Shift_1
Note_On_43_Vel_33
Time_Shift_235
Note_On_60_Vel_54
Time_Shift_16
Note_On_65_Vel_0
Note_On_67_Vel_0
Time_Shift_6
Note_On_67_Vel_43
Time_Shift_5
Note_On_65_Vel_40
Time_Shift_186
Note_On_62_Vel_58
Time_Shift_239
Note_On_63_Vel_59
Time_Shift_19
Sustain_Off
Time_Shift_9
Note_On_62_Vel_0
Note_On_65_Vel_0
Time_Shift_2
Note_On_67_Vel_0
Note_On_43_Vel_0
Time_Shift_1
Note_On_60_Vel_0
Time_Shift_48
Note_On_74_Vel_0
Time_Shift_92
Sustain_On
Time_Shift_302
Note_On_72_Vel_54
Note_On_66_Vel_39
Time_Shift_4
Note_On_69_Vel_46
Time_Shift_186
Note_On_63_Vel_0
Time_Shift_9
Note_On_63_Vel_57
Time_Shift_301
Note_On_74_Vel_56
Time_Shift_4
Note_On_66_Vel_0
Note_On_69_Vel_0
Time_Shift_1
Note_On_62_Vel_48
Time_Shift_4
Note_On_69_Vel_44
Time_Shift_6
Note_On_66_Vel_43
Time_Shift_47
Note_On_72_Vel_0
Note_On_63_Vel_0
Time_Shift_5
Sustain_Off
Time_Shift_68
Sustain_On
Time_Shift_189
Note_On_60_Vel_51
Time_Shift_127
Note_On_75_Vel_63
Time_Shift_163
Note_On_46_Vel_39
Time_Shift_36
Note_On_75_Vel_0
Time_Shift_4
Note_On_75_Vel_59
Note_On_65_Vel_32
Time_Shift_9
Note_On_70_Vel_38
Time_Shift_263
Note_On_70_Vel_0
Time_Shift_8
Note_On_74_Vel_0
Time_Shift_2
Note_On_70_Vel_49
Time_Shift_7
Note_On_79_Vel_59
Time_Shift_1
Note_On_74_Vel_51
Time_Shift_1
Note_On_68_Vel_46
Time_Shift_59
Note_On_62_Vel_0
Time_Shift_2
Note_On_60_Vel_0
Note_On_46_Vel_0
Note_On_75_Vel_0
Time_Shift_4
Sustain_Off
Note_On_66_Vel_0
Note_On_69_Vel_0
Time_Shift_47
Note_On_65_Vel_0
Time_Shift_122
Sustain_On
Time_Shift_127
Note_On_58_Vel_41
Time_Shift_256
Note_On_57_Vel_55
Time_Shift_224
Note_On_58_Vel_0
Time_Shift_9
Note_On_58_Vel_58
Time_Shift_291
Note_On_74_Vel_0
Time_Shift_7
Note_On_68_Vel_0
Time_Shift_2
Note_On_74_Vel_52
Time_Shift_2
Note_On_68_Vel_49
Time_Shift_17
Sustain_Off
Time_Shift_10
Note_On_57_Vel_0
Note_On_58_Vel_0
Time_Shift_2
Note_On_79_Vel_0
Time_Shift_29
Note_On_70_Vel_0
Time_Shift_161
Sustain_On
Time_Shift_65
Note_On_65_Vel_46
Time_Shift_431
Note_On_65_Vel_0
Sustain_Off
Time_Shift_1
Note_On_67_Vel_34
Time_Shift_1
Note_On_75_Vel_48
Note_On_68_Vel_0
Time_Shift_5
Note_On_63_Vel_36
Time_Shift_19
Note_On_74_Vel_0
Time_Shift_699
Sustain_On
Time_Shift_58
Note_On_39_Vel_18
Time_Shift_728
Note_On_75_Vel_0
Time_Shift_1
Note_On_39_Vel_0
Note_On_63_Vel_0
Time_Shift_1
Note_On_67_Vel_0
Time_Shift_21
Sustain_Off
Time_Shift_49
Note_On_58_Vel_37
Time_Shift_544
Note_On_67_Vel_42
Time_Shift_71
Note_On_58_Vel_0
Time_Shift_294
Sustain_On
Time_Shift_264
Note_On_58_Vel_32
Time_Shift_2
Note_On_51_Vel_25
Time_Shift_8
Note_On_66_Vel_38
Time_Shift_194
Note_On_67_Vel_0
Time_Shift_4
Note_On_67_Vel_55
Time_Shift_188
Note_On_58_Vel_0
Time_Shift_11
Note_On_39_Vel_40
Note_On_58_Vel_40
Time_Shift_4
Note_On_51_Vel_0
Time_Shift_5
Note_On_51_Vel_34
Time_Shift_6
Note_On_72_Vel_62
Time_Shift_186
Note_On_70_Vel_65
Time_Shift_210
Note_On_70_Vel_0
Time_Shift_12
Note_On_70_Vel_63
Time_Shift_83
Sustain_Off
Time_Shift_1
Note_On_67_Vel_0
Note_On_51_Vel_0
Note_On_72_Vel_0
Note_On_66_Vel_0
Time_Shift_1
Note_On_39_Vel_0
Time_Shift_11
Note_On_58_Vel_0
Time_Shift_154
Sustain_On
Time_Shift_142
Note_On_46_Vel_36
Time_Shift_395
Note_On_70_Vel_0
Time_Shift_77
Note_On_68_Vel_39
Time_Shift_8
Note_On_46_Vel_0
Time_Shift_4
Note_On_46_Vel_30
Time_Shift_3
Note_On_58_Vel_34
Time_Shift_12
Note_On_53_Vel_30
Time_Shift_1
Note_On_62_Vel_28
Time_Shift_62
Sustain_Off
Time_Shift_117
Sustain_On
Time_Shift_228
Note_On_67_Vel_54
Time_Shift_26
Sustain_Off
Time_Shift_51
Note_On_53_Vel_0
Time_Shift_1
Note_On_62_Vel_0
Time_Shift_2
Note_On_68_Vel_0
Time_Shift_1
Note_On_58_Vel_0
Time_Shift_6
Note_On_46_Vel_0
Time_Shift_92
Sustain_On
Time_Shift_54
Sustain_Off
Time_Shift_85
Sustain_On
Time_Shift_86
Note_On_39_Vel_39
Time_Shift_1
Note_On_51_Vel_41
Time_Shift_1
Note_On_66_Vel_58
Time_Shift_1
Note_On_58_Vel_39
Time_Shift_72
Sustain_Off
Time_Shift_84
Sustain_On
Time_Shift_23
Note_On_67_Vel_0
Time_Shift_6
Note_On_67_Vel_66
Time_Shift_180
Note_On_70_Vel_59
Time_Shift_37
Note_On_51_Vel_0
Time_Shift_5
Note_On_68_Vel_64
Time_Shift_2
Note_On_51_Vel_37
Time_Shift_1
Note_On_39_Vel_0
Time_Shift_4
Note_On_39_Vel_40
Time_Shift_2
Sustain_Off
Time_Shift_1
Note_On_66_Vel_0
Time_Shift_1
Note_On_67_Vel_0
Time_Shift_2
Note_On_58_Vel_0
Time_Shift_3
Note_On_70_Vel_0
Time_Shift_140
Sustain_On
Time_Shift_175
Note_On_67_Vel_63
Time_Shift_110
Note_On_67_Vel_0
Time_Shift_7
Sustain_Off
Time_Shift_3
Note_On_67_Vel_60
Time_Shift_61
Note_On_68_Vel_0
Time_Shift_5
Note_On_51_Vel_0
Time_Shift_16
Note_On_39_Vel_0
Time_Shift_176
Sustain_On
Time_Shift_134
Note_On_55_Vel_27
Time_Shift_11
Note_On_50_Vel_31
Time_Shift_5
Note_On_59_Vel_38
Time_Shift_446
Note_On_65_Vel_45
Time_Shift_3
Note_On_55_Vel_0
Time_Shift_1
Note_On_43_Vel_37
Time_Shift_6
Sustain_Off
Time_Shift_2
Note_On_55_Vel_32
Time_Shift_73
Note_On_59_Vel_0
Time_Shift_18
Note_On_50_Vel_0
Time_Shift_77
Note_On_67_Vel_0
Time_Shift_290
Note_On_63_Vel_55
Time_Shift_44
Note_On_65_Vel_0
Time_Shift_4
Note_On_55_Vel_0
Time_Shift_5
Note_On_43_Vel_0
Time_Shift_233
Sustain_On
Time_Shift_158
Note_On_48_Vel_33
Time_Shift_3
Sustain_Off
Time_Shift_3
Note_On_55_Vel_34
Time_Shift_14
Note_On_65_Vel_48
Time_Shift_183
Note_On_63_Vel_0
Time_Shift_6
Note_On_63_Vel_58
Time_Shift_207
Note_On_45_Vel_39
Time_Shift_5
Note_On_54_Vel_41
Time_Shift_1
Note_On_60_Vel_57
Time_Shift_20
Note_On_48_Vel_0
Time_Shift_1
Note_On_55_Vel_0
Time_Shift_1
Note_On_65_Vel_0
Note_On_63_Vel_0
Time_Shift_174
Sustain_On
Time_Shift_2
Note_On_63_Vel_56
Time_Shift_159
Sustain_Off
Time_Shift_66
Note_On_45_Vel_0
Note_On_60_Vel_0
Note_On_46_Vel_47
Time_Shift_14
Note_On_58_Vel_54
Time_Shift_1
Note_On_63_Vel_0
Time_Shift_4
Note_On_54_Vel_0
Time_Shift_138
Sustain_On
Time_Shift_56
Note_On_63_Vel_58
Time_Shift_178
Sustain_Off
Time_Shift_19
Note_On_58_Vel_0
Time_Shift_6
Note_On_67_Vel_63
Time_Shift_3
Note_On_58_Vel_50
Time_Shift_1
Note_On_55_Vel_45
Time_Shift_175
Sustain_On
Time_Shift_19
Note_On_70_Vel_65
Time_Shift_213
Note_On_75_Vel_68
Time_Shift_206
Note_On_72_Vel_64
Time_Shift_187
Sustain_Off
Time_Shift_3
Note_On_75_Vel_0
Note_On_67_Vel_0
Time_Shift_3
Note_On_72_Vel_0
Time_Shift_10
Note_On_34_Vel_41
Time_Shift_4
Note_On_58_Vel_0
Time_Shift_7
Note_On_46_Vel_0
Note_On_55_Vel_0
Time_Shift_8
Note_On_63_Vel_0
Note_On_70_Vel_0
Time_Shift_5
Note_On_70_Vel_54
Time_Shift_149
Sustain_On
Time_Shift_65
Note_On_69_Vel_54
Time_Shift_244
Note_On_68_Vel_56
Time_Shift_1
Note_On_56_Vel_46
Time_Shift_1
Note_On_62_Vel_36
Time_Shift_1
Note_On_53_Vel_37
Time_Shift_2
Sustain_Off
Time_Shift_54
Note_On_69_Vel_0
Time_Shift_23
Note_On_34_Vel_0
Time_Shift_123
Sustain_On
Time_Shift_11
Note_On_58_Vel_54
Time_Shift_214
Note_On_65_Vel_58
Time_Shift_208
Note_On_72_Vel_62
Time_Shift_151
Note_On_70_Vel_0
Time_Shift_88
Sustain_Off
Time_Shift_2
Note_On_46_Vel_45
Time_Shift_1
Note_On_70_Vel_60
Time_Shift_4
Note_On_56_Vel_0
Note_On_53_Vel_0
Note_On_65_Vel_0
Time_Shift_1
Note_On_72_Vel_0
Time_Shift_1
Note_On_58_Vel_0
Time_Shift_3
Note_On_68_Vel_0
Time_Shift_15
Note_On_62_Vel_0
Time_Shift_177
Sustain_On
Time_Shift_32
Note_On_69_Vel_56
Time_Shift_309
Note_On_68_Vel_51
Time_Shift_5
Note_On_56_Vel_39
Time_Shift_14
Note_On_41_Vel_28
Time_Shift_3
Note_On_69_Vel_0
Note_On_46_Vel_0
Time_Shift_1
Sustain_Off
Time_Shift_1
Note_On_53_Vel_25
Time_Shift_1
Note_On_50_Vel_31
Time_Shift_25
Note_On_70_Vel_0
Time_Shift_223
Sustain_On
Time_Shift_125
Note_On_58_Vel_41
Time_Shift_246
Note_On_63_Vel_62
Time_Shift_206
Note_On_65_Vel_63
Time_Shift_243
Note_On_56_Vel_0
Time_Shift_4
Sustain_Off
Time_Shift_1
Note_On_53_Vel_0
Note_On_63_Vel_0
Note_On_58_Vel_0
Note_On_65_Vel_0
Time_Shift_1
Note_On_50_Vel_0
Time_Shift_1
Note_On_39_Vel_43
Time_Shift_10
Note_On_67_Vel_62
Note_On_68_Vel_0
Time_Shift_8
Note_On_41_Vel_0
Time_Shift_184
Sustain_On
Time_Shift_318
Note_On_66_Vel_59
Time_Shift_7
Note_On_55_Vel_35
Time_Shift_1
Note_On_51_Vel_31
Time_Shift_8
Note_On_58_Vel_39
Time_Shift_2
Note_On_63_Vel_38
Time_Shift_1
Sustain_Off
Time_Shift_17
Note_On_67_Vel_0
Time_Shift_1
Note_On_39_Vel_0
Time_Shift_144
Sustain_On
Time_Shift_48
Note_On_67_Vel_68
Time_Shift_260
Note_On_51_Vel_0
Note_On_58_Vel_0
Time_Shift_7
Note_On_63_Vel_0
Note_On_72_Vel_70
Time_Shift_3
Note_On_58_Vel_45
Time_Shift_1
Note_On_51_Vel_32
Note_On_63_Vel_38
Time_Shift_18
Sustain_Off
Time_Shift_11
Note_On_67_Vel_0
Time_Shift_1
Note_On_66_Vel_0
Time_Shift_197
Sustain_On
Time_Shift_196
Note_On_70_Vel_70
Time_Shift_165
Note_On_70_Vel_0
Time_Shift_10
Note_On_70_Vel_65
Time_Shift_22
Sustain_Off
Time_Shift_2
Note_On_72_Vel_0
Time_Shift_27
Note_On_63_Vel_0
Time_Shift_8
Note_On_58_Vel_0
Time_Shift_7
Note_On_55_Vel_0
Time_Shift_23
Note_On_51_Vel_0
Time_Shift_77
Sustain_On
Time_Shift_250
Note_On_62_Vel_31
Time_Shift_2
Note_On_65_Vel_26
Time_Shift_12
Note_On_53_Vel_33
Time_Shift_3
Note_On_41_Vel_24
Time_Shift_4
Note_On_58_Vel_36
Time_Shift_259
Sustain_Off
Time_Shift_177
Note_On_65_Vel_0
Time_Shift_4
Note_On_68_Vel_56
Time_Shift_7
Note_On_65_Vel_33
Time_Shift_7
Note_On_46_Vel_38
Time_Shift_4
Note_On_34_Vel_34
Time_Shift_1
Note_On_58_Vel_0
Time_Shift_4
Note_On_58_Vel_26
Time_Shift_4
Note_On_34_Vel_0
Time_Shift_27
Note_On_70_Vel_0
Note_On_62_Vel_0
Time_Shift_5
Note_On_53_Vel_0
Time_Shift_175
Sustain_On
Time_Shift_46
Note_On_58_Vel_0
Time_Shift_197
Note_On_67_Vel_61
Time_Shift_3
Note_On_41_Vel_0
Time_Shift_25
Sustain_Off
Time_Shift_21
Note_On_46_Vel_0
Time_Shift_2
Note_On_68_Vel_0
Time_Shift_13
Note_On_65_Vel_0
Time_Shift_408
Note_On_39_Vel_36
Time_Shift_4
Note_On_66_Vel_54
Time_Shift_3
Note_On_58_Vel_39
Time_Shift_8
Note_On_63_Vel_41
Time_Shift_38
Note_On_67_Vel_0
Time_Shift_115
Sustain_On
Time_Shift_62
Note_On_67_Vel_64
Time_Shift_157
Note_On_70_Vel_66
Time_Shift_51
Note_On_67_Vel_0
Note_On_66_Vel_0
Time_Shift_2
Sustain_Off
Note_On_58_Vel_0
Time_Shift_2
Note_On_70_Vel_0
Time_Shift_18
Note_On_39_Vel_0
Time_Shift_8
Note_On_63_Vel_0
Time_Shift_3
Note_On_39_Vel_37
Note_On_68_Vel_66
Time_Shift_5
Note_On_63_Vel_42
Time_Shift_184
Sustain_On
Time_Shift_242
Note_On_67_Vel_54
Time_Shift_126
Note_On_67_Vel_0
Time_Shift_8
Note_On_67_Vel_57
Time_Shift_26
Sustain_Off
Time_Shift_35
Note_On_63_Vel_0
Time_Shift_5
Note_On_68_Vel_0
Time_Shift_18
Note_On_39_Vel_0
Time_Shift_77
Sustain_On
Time_Shift_270
Note_On_58_Vel_39
Time_Shift_3
Note_On_61_Vel_36
Time_Shift_2
Note_On_39_Vel_29
Time_Shift_524
Note_On_39_Vel_0
Note_On_61_Vel_0
Time_Shift_2
Note_On_31_Vel_35
Time_Shift_1
Note_On_65_Vel_49
Time_Shift_5
Note_On_31_Vel_0
Time_Shift_1
Note_On_39_Vel_30
Time_Shift_2
Note_On_61_Vel_32
Time_Shift_3
Note_On_55_Vel_27
Time_Shift_26
Sustain_Off
Time_Shift_34
Note_On_67_Vel_0
Time_Shift_1
Note_On_58_Vel_0
Time_Shift_94
Sustain_On
Time_Shift_262
Note_On_63_Vel_56
Time_Shift_214
Note_On_63_Vel_0
Time_Shift_4
Note_On_63_Vel_42
Time_Shift_4
Note_On_44_Vel_34
Time_Shift_1
Sustain_Off
Time_Shift_1
Note_On_32_Vel_29
Time_Shift_5
Note_On_32_Vel_0
Time_Shift_4
Note_On_65_Vel_0
Time_Shift_1
Note_On_55_Vel_0
Time_Shift_18
Note_On_61_Vel_0
Time_Shift_54
Note_On_39_Vel_0
Time_Shift_31
Sustain_On
Time_Shift_415
Note_On_65_Vel_48
Time_Shift_8
Note_On_60_Vel_33
Time_Shift_1
Note_On_32_Vel_30
Time_Shift_206
Note_On_63_Vel_0
Time_Shift_5
Note_On_63_Vel_53
Time_Shift_217
Note_On_44_Vel_0
Time_Shift_6
Note_On_56_Vel_43
Time_Shift_1
Note_On_51_Vel_41
Time_Shift_1
Note_On_59_Vel_54
Time_Shift_2
Note_On_44_Vel_38
Time_Shift_22
Note_On_32_Vel_0
Time_Shift_1
Note_On_60_Vel_0
Note_On_65_Vel_0
Time_Shift_1
Note_On_63_Vel_0
Time_Shift_1
Sustain_Off
Time_Shift_73
Sustain_On
Time_Shift_112
Note_On_63_Vel_54
Time_Shift_230
Note_On_59_Vel_0
Time_Shift_1
Note_On_63_Vel_0
Time_Shift_10
Note_On_56_Vel_0
Time_Shift_4
Note_On_46_Vel_44
Time_Shift_1
Note_On_58_Vel_52
Time_Shift_3
Note_On_51_Vel_0
Time_Shift_3
Sustain_Off
Time_Shift_12
Note_On_44_Vel_0
Time_Shift_39
Sustain_On
Time_Shift_174
Note_On_63_Vel_57
Time_Shift_185
Sustain_Off
Time_Shift_42
Note_On_67_Vel_62
Time_Shift_13
Note_On_58_Vel_0
Time_Shift_8
Sustain_On
Time_Shift_3
Note_On_55_Vel_33
Note_On_58_Vel_40
Time_Shift_181
Note_On_70_Vel_63
Time_Shift_266
Note_On_79_Vel_68
Time_Shift_271
Note_On_69_Vel_55
Time_Shift_4
Note_On_72_Vel_64
Time_Shift_318
Note_On_46_Vel_0
Time_Shift_2
Note_On_70_Vel_0
Time_Shift_1
Note_On_67_Vel_0
Note_On_34_Vel_41
Time_Shift_2
Note_On_79_Vel_0
Note_On_55_Vel_0
Sustain_Off
Time_Shift_1
Note_On_72_Vel_0
Note_On_69_Vel_0
Time_Shift_3
Note_On_58_Vel_0
Time_Shift_4
Note_On_77_Vel_59
Note_On_68_Vel_50
Time_Shift_4
Note_On_63_Vel_0
Time_Shift_115
Sustain_On
Time_Shift_92
Note_On_34_Vel_0
Time_Shift_16
Note_On_68_Vel_0
Time_Shift_15
Sustain_Off
Time_Shift_46
Note_On_77_Vel_0
Time_Shift_5
Note_On_71_Vel_59
Time_Shift_2
Note_On_67_Vel_51
Time_Shift_39
Sustain_On
Time_Shift_213
Sustain_Off
Time_Shift_30
Note_On_71_Vel_0
Time_Shift_1
Note_On_67_Vel_0
Time_Shift_21
Note_On_58_Vel_39
Time_Shift_5
Note_On_62_Vel_35
Time_Shift_8
Note_On_68_Vel_42
Time_Shift_2
Note_On_53_Vel_33
Time_Shift_262
Note_On_64_Vel_55
Time_Shift_1
Note_On_67_Vel_51
Time_Shift_6
Note_On_68_Vel_0
Note_On_53_Vel_0
Note_On_62_Vel_0
Time_Shift_1
Note_On_58_Vel_0
Time_Shift_164
Sustain_On
Time_Shift_39
Sustain_Off
Time_Shift_118
Note_On_64_Vel_0
Time_Shift_1
Note_On_67_Vel_0
Time_Shift_2
Note_On_68_Vel_42
Time_Shift_6
Note_On_46_Vel_37
Time_Shift_3
Note_On_65_Vel_48
Time_Shift_339
Note_On_62_Vel_52
Time_Shift_11
Note_On_56_Vel_45
Time_Shift_18
Note_On_46_Vel_0
Time_Shift_4
Note_On_65_Vel_0
Time_Shift_5
Note_On_68_Vel_0
Time_Shift_199
Sustain_On
Time_Shift_209
Note_On_63_Vel_42
Time_Shift_1
Note_On_27_Vel_32
Time_Shift_2
Note_On_58_Vel_24
Note_On_39_Vel_28
Time_Shift_3
Note_On_27_Vel_0
Sustain_Off
Time_Shift_11
Note_On_62_Vel_0
Time_Shift_1
Note_On_56_Vel_0
Time_Shift_150
Sustain_On
Time_Shift_668
Note_On_39_Vel_0
Note_On_58_Vel_0
Time_Shift_6
Note_On_39_Vel_27
Note_On_58_Vel_32
Time_Shift_5
Note_On_51_Vel_29
Time_Shift_1383
Sustain_Off
Time_Shift_2377
Note_On_63_Vel_0
Time_Shift_845
Note_On_39_Vel_0
Note_On_58_Vel_0
Time_Shift_7
Note_On_51_Vel_0
