Time_Shift_115
Sustain_On
Time_Shift_14
Note_On_73_Vel_47
Time_Shift_255
Note_On_73_Vel_0
Time_Shift_11
Note_On_73_Vel_61
Note_On_43_Vel_57
Time_Shift_136
Note_On_72_Vel_67
Time_Shift_98
Note_On_73_Vel_0
Time_Shift_1
Note_On_75_Vel_62
Time_Shift_8
Note_On_73_Vel_60
Time_Shift_2
Note_On_51_Vel_64
Note_On_61_Vel_58
Time_Shift_8
Note_On_58_Vel_63
Time_Shift_12
Note_On_43_Vel_0
Time_Shift_33
Sustain_Off
Note_On_51_Vel_0
Note_On_75_Vel_0
Note_On_72_Vel_0
Note_On_58_Vel_0
Time_Shift_1
Note_On_61_Vel_0
Time_Shift_12
Note_On_73_Vel_0
Time_Shift_5
Note_On_73_Vel_59
Time_Shift_62
Note_On_73_Vel_0
Time_Shift_28
Note_On_84_Vel_83
Time_Shift_1
Note_On_51_Vel_63
Note_On_58_Vel_61
Time_Shift_1
Note_On_61_Vel_54
Time_Shift_37
Note_On_58_Vel_0
Time_Shift_1
Note_On_51_Vel_0
Time_Shift_11
Note_On_61_Vel_0
Time_Shift_31
Note_On_82_Vel_80
Time_Shift_4
Note_On_84_Vel_0
Time_Shift_60
Note_On_43_Vel_71
Time_Shift_3
Note_On_73_Vel_78
Time_Shift_25
Sustain_On
Time_Shift_57
Note_On_72_Vel_76
Time_Shift_64
Note_On_75_Vel_76
Time_Shift_14
Note_On_61_Vel_64
Time_Shift_3
Note_On_58_Vel_67
Time_Shift_2
Note_On_51_Vel_67
Time_Shift_19
Sustain_Off
Time_Shift_5
Note_On_82_Vel_0
Time_Shift_2
Note_On_75_Vel_0
Time_Shift_1
Note_On_72_Vel_0
Time_Shift_2
Note_On_43_Vel_0
Time_Shift_5
Note_On_58_Vel_0
Time_Shift_5
Note_On_51_Vel_0
Time_Shift_13
Note_On_73_Vel_0
Time_Shift_4
Note_On_73_Vel_78
Time_Shift_42
Note_On_61_Vel_0
Time_Shift_17
Note_On_73_Vel_0
Time_Shift_32
Note_On_84_Vel_78
Note_On_51_Vel_65
Time_Shift_1
Note_On_58_Vel_63
Time_Shift_29
Note_On_58_Vel_0
Time_Shift_1
Note_On_51_Vel_0
Time_Shift_45
Note_On_84_Vel_0
Time_Shift_1
Note_On_82_Vel_82
Time_Shift_62
Note_On_82_Vel_0
Time_Shift_1
Note_On_44_Vel_67
Time_Shift_22
Note_On_72_Vel_76
Time_Shift_27
Sustain_On
Time_Shift_59
Note_On_71_Vel_72
Time_Shift_52
Note_On_51_Vel_64
Time_Shift_14
Note_On_56_Vel_63
Time_Shift_5
Note_On_60_Vel_55
Time_Shift_4
Note_On_73_Vel_71
Time_Shift_19
Sustain_Off
Time_Shift_3
Note_On_72_Vel_0
Note_On_71_Vel_0
Time_Shift_3
Note_On_51_Vel_0
Time_Shift_2
Note_On_56_Vel_0
Time_Shift_1
Note_On_60_Vel_0
Time_Shift_3
Note_On_73_Vel_0
Time_Shift_4
Note_On_44_Vel_0
Time_Shift_33
Note_On_72_Vel_72
Time_Shift_55
Note_On_72_Vel_0
Time_Shift_6
Note_On_60_Vel_61
Time_Shift_10
Note_On_56_Vel_60
Note_On_51_Vel_58
Time_Shift_14
Note_On_82_Vel_78
Time_Shift_17
Note_On_60_Vel_0
Time_Shift_6
Note_On_56_Vel_0
Time_Shift_3
Note_On_51_Vel_0
Time_Shift_50
Note_On_80_Vel_81
Time_Shift_5
Note_On_82_Vel_0
Time_Shift_50
Note_On_80_Vel_0
Time_Shift_9
Note_On_44_Vel_68
Time_Shift_5
Note_On_72_Vel_77
Time_Shift_52
Sustain_On
Time_Shift_27
Note_On_71_Vel_79
Time_Shift_75
Note_On_73_Vel_80
Time_Shift_6
Note_On_56_Vel_61
Time_Shift_1
Note_On_60_Vel_59
Time_Shift_2
Note_On_51_Vel_66
Time_Shift_37
Note_On_71_Vel_0
Time_Shift_1
Sustain_Off
Time_Shift_1
Note_On_73_Vel_0
Note_On_51_Vel_0
Time_Shift_3
Note_On_56_Vel_0
Time_Shift_8
Note_On_44_Vel_0
Note_On_60_Vel_0
Time_Shift_8
Note_On_72_Vel_0
Time_Shift_4
Note_On_72_Vel_68
Time_Shift_69
Note_On_72_Vel_0
Time_Shift_9
Note_On_60_Vel_60
Time_Shift_2
Note_On_51_Vel_63
Time_Shift_2
Note_On_56_Vel_65
Time_Shift_2
Note_On_82_Vel_76
Time_Shift_32
Note_On_60_Vel_0
Time_Shift_4
Note_On_56_Vel_0
Time_Shift_3
Note_On_51_Vel_0
Time_Shift_30
Note_On_80_Vel_78
Time_Shift_23
Note_On_82_Vel_0
Time_Shift_57
Note_On_82_Vel_82
Time_Shift_1
Note_On_39_Vel_78
Time_Shift_3
Note_On_80_Vel_0
Note_On_70_Vel_86
Time_Shift_43
Sustain_On
Time_Shift_34
Note_On_81_Vel_72
Time_Shift_2
Note_On_69_Vel_78
Time_Shift_70
Note_On_72_Vel_83
Time_Shift_21
Note_On_51_Vel_66
Time_Shift_4
Note_On_58_Vel_76
Note_On_61_Vel_71
Time_Shift_3
Note_On_69_Vel_0
Sustain_Off
Time_Shift_5
Note_On_55_Vel_76
Time_Shift_15
Note_On_39_Vel_0
Time_Shift_7
Note_On_81_Vel_0
Time_Shift_3
Note_On_72_Vel_0
Time_Shift_13
Note_On_70_Vel_0
Time_Shift_5
Note_On_61_Vel_0
Time_Shift_4
Note_On_70_Vel_82
Note_On_58_Vel_0
Time_Shift_4
Note_On_55_Vel_0
Time_Shift_10
Note_On_51_Vel_0
Time_Shift_15
Note_On_82_Vel_0
Time_Shift_31
Note_On_70_Vel_0
Time_Shift_8
Note_On_61_Vel_75
Note_On_55_Vel_71
Time_Shift_3
Note_On_58_Vel_73
Time_Shift_8
Note_On_73_Vel_83
Note_On_51_Vel_58
Time_Shift_32
Note_On_61_Vel_0
Time_Shift_4
Note_On_58_Vel_0
Time_Shift_1
Note_On_55_Vel_0
Time_Shift_13
Note_On_51_Vel_0
Time_Shift_12
Note_On_73_Vel_0
Time_Shift_12
Note_On_84_Vel_71
Time_Shift_1
Note_On_72_Vel_80
Time_Shift_71
Note_On_39_Vel_74
Time_Shift_1
Note_On_75_Vel_86
Note_On_72_Vel_0
Time_Shift_3
Note_On_84_Vel_0
Time_Shift_53
Sustain_On
Time_Shift_20
Note_On_73_Vel_86
Time_Shift_77
Note_On_79_Vel_88
Time_Shift_5
Note_On_58_Vel_73
Time_Shift_1
Note_On_51_Vel_71
Note_On_61_Vel_67
Time_Shift_32
Sustain_Off
Time_Shift_5
Note_On_73_Vel_0
Time_Shift_2
Note_On_51_Vel_0
Time_Shift_1
Note_On_58_Vel_0
Time_Shift_3
Note_On_75_Vel_0
Time_Shift_8
Note_On_39_Vel_0
Time_Shift_8
Note_On_61_Vel_0
Time_Shift_11
Note_On_77_Vel_86
Time_Shift_19
Note_On_79_Vel_0
Time_Shift_50
Note_On_73_Vel_85
Time_Shift_4
Note_On_58_Vel_71
Time_Shift_2
Note_On_61_Vel_71
Time_Shift_1
Note_On_51_Vel_73
Time_Shift_28
Note_On_77_Vel_0
Time_Shift_11
Note_On_61_Vel_0
Note_On_58_Vel_0
Time_Shift_1
Note_On_73_Vel_0
Time_Shift_3
Note_On_51_Vel_0
Time_Shift_27
Note_On_67_Vel_76
Time_Shift_41
Note_On_67_Vel_0
Time_Shift_30
Note_On_44_Vel_64
Time_Shift_1
Note_On_68_Vel_78
Time_Shift_55
Sustain_On
Time_Shift_29
Note_On_69_Vel_79
Time_Shift_69
Note_On_70_Vel_78
Time_Shift_2
Note_On_44_Vel_0
Time_Shift_3
Note_On_51_Vel_62
Time_Shift_1
Note_On_48_Vel_53
Time_Shift_1
Note_On_44_Vel_58
Time_Shift_15
Note_On_69_Vel_0
Time_Shift_6
Note_On_68_Vel_0
Time_Shift_2
Sustain_Off
Time_Shift_8
Note_On_51_Vel_0
Time_Shift_4
Note_On_70_Vel_0
Time_Shift_14
Note_On_44_Vel_0
Time_Shift_7
Note_On_48_Vel_0
Time_Shift_10
Note_On_71_Vel_73
Time_Shift_77
Note_On_71_Vel_0
Time_Shift_15
Note_On_60_Vel_56
Note_On_51_Vel_58
Note_On_72_Vel_74
Time_Shift_1
Note_On_56_Vel_62
Time_Shift_33
Note_On_60_Vel_0
Time_Shift_1
Note_On_56_Vel_0
Time_Shift_4
Note_On_51_Vel_0
Time_Shift_32
Note_On_68_Vel_72
Note_On_72_Vel_0
Time_Shift_84
Note_On_68_Vel_0
Time_Shift_6
Note_On_63_Vel_72
Time_Shift_1
Note_On_44_Vel_66
Time_Shift_36
Sustain_On
Time_Shift_142
Note_On_60_Vel_64
Time_Shift_2
Note_On_51_Vel_58
Time_Shift_1
Note_On_56_Vel_59
Time_Shift_21
Note_On_63_Vel_0
Time_Shift_1
Sustain_Off
Time_Shift_7
Note_On_60_Vel_0
Time_Shift_10
Note_On_44_Vel_0
Time_Shift_4
Note_On_51_Vel_0
Time_Shift_4
Note_On_56_Vel_0
Time_Shift_103
Note_On_60_Vel_68
Note_On_72_Vel_76
Time_Shift_1
Note_On_56_Vel_62
Time_Shift_1
Note_On_51_Vel_62
Time_Shift_26
Note_On_60_Vel_0
Time_Shift_4
Note_On_51_Vel_0
Time_Shift_1
Note_On_72_Vel_0
Time_Shift_17
Note_On_56_Vel_0
Time_Shift_118
Note_On_43_Vel_65
Time_Shift_2
Note_On_73_Vel_70
Time_Shift_49
Sustain_On
Time_Shift_23
Note_On_43_Vel_0
Time_Shift_29
Note_On_72_Vel_65
Time_Shift_60
Note_On_75_Vel_73
Time_Shift_3
Note_On_51_Vel_64
Time_Shift_8
Note_On_61_Vel_59
Time_Shift_5
Note_On_58_Vel_64
Time_Shift_57
Note_On_73_Vel_0
Time_Shift_3
Sustain_Off
Time_Shift_1
Note_On_58_Vel_0
Time_Shift_2
Note_On_51_Vel_0
Note_On_75_Vel_0
Time_Shift_1
Note_On_72_Vel_0
Note_On_73_Vel_74
Time_Shift_23
Note_On_61_Vel_0
Time_Shift_23
Note_On_73_Vel_0
Time_Shift_27
Note_On_58_Vel_66
Time_Shift_6
Note_On_51_Vel_67
Time_Shift_4
Note_On_84_Vel_78
Time_Shift_27
Note_On_58_Vel_0
Time_Shift_1
Note_On_51_Vel_0
Time_Shift_55
Note_On_82_Vel_82
Time_Shift_32
Note_On_84_Vel_0
Time_Shift_21
Note_On_43_Vel_71
Time_Shift_4
Note_On_73_Vel_83
Time_Shift_46
Note_On_43_Vel_0
Sustain_On
Time_Shift_32
Note_On_72_Vel_79
Time_Shift_66
Note_On_51_Vel_73
Time_Shift_3
Note_On_58_Vel_72
Time_Shift_2
Note_On_61_Vel_69
Time_Shift_1
Note_On_75_Vel_74
Time_Shift_65
Note_On_73_Vel_0
Time_Shift_4
Sustain_Off
Time_Shift_4
Note_On_58_Vel_0
Note_On_75_Vel_0
Time_Shift_1
Note_On_61_Vel_0
Note_On_51_Vel_0
Note_On_72_Vel_0
Note_On_82_Vel_0
Time_Shift_1
Note_On_73_Vel_77
Time_Shift_60
Note_On_73_Vel_0
Time_Shift_19
Note_On_51_Vel_70
Note_On_58_Vel_64
Note_On_84_Vel_84
Time_Shift_34
Note_On_58_Vel_0
Note_On_51_Vel_0
Time_Shift_39
Note_On_82_Vel_80
Time_Shift_11
Note_On_84_Vel_0
Time_Shift_62
Note_On_44_Vel_79
Time_Shift_2
Note_On_72_Vel_78
Time_Shift_24
Sustain_On
Time_Shift_65
Note_On_83_Vel_62
Time_Shift_1
Note_On_71_Vel_79
Time_Shift_64
Note_On_51_Vel_80
Time_Shift_1
Note_On_44_Vel_0
Time_Shift_5
Note_On_73_Vel_82
Note_On_44_Vel_74
Time_Shift_6
Note_On_60_Vel_66
Time_Shift_12
Note_On_82_Vel_0
Time_Shift_38
Note_On_72_Vel_0
Time_Shift_11
Note_On_72_Vel_77
Time_Shift_9
Sustain_Off
Time_Shift_7
Note_On_73_Vel_0
Note_On_60_Vel_0
Note_On_44_Vel_0
Note_On_51_Vel_0
Note_On_71_Vel_0
Note_On_83_Vel_0
Time_Shift_56
Note_On_52_Vel_84
Time_Shift_6
Note_On_56_Vel_78
Time_Shift_2
Note_On_60_Vel_73
Time_Shift_5
Note_On_82_Vel_84
Time_Shift_12
Note_On_72_Vel_0
Time_Shift_17
Note_On_60_Vel_0
Time_Shift_40
Note_On_52_Vel_0
Time_Shift_4
Note_On_56_Vel_0
Time_Shift_10
Note_On_80_Vel_84
Time_Shift_23
Note_On_82_Vel_0
Time_Shift_34
Note_On_80_Vel_0
Time_Shift_6
Note_On_44_Vel_74
Time_Shift_8
Note_On_72_Vel_78
Time_Shift_34
Sustain_On
Time_Shift_44
Note_On_71_Vel_82
Time_Shift_1
Note_On_83_Vel_68
Time_Shift_74
Note_On_56_Vel_68
Note_On_60_Vel_68
Time_Shift_3
Note_On_73_Vel_85
Time_Shift_2
Note_On_53_Vel_65
Time_Shift_68
Note_On_72_Vel_0
Time_Shift_4
Note_On_53_Vel_0
Sustain_Off
Note_On_56_Vel_0
Note_On_71_Vel_0
Note_On_60_Vel_0
Note_On_73_Vel_0
Time_Shift_1
Note_On_83_Vel_0
Time_Shift_4
Note_On_72_Vel_82
Time_Shift_7
Note_On_44_Vel_0
Time_Shift_63
Note_On_60_Vel_67
Time_Shift_2
Note_On_72_Vel_0
Note_On_56_Vel_67
Time_Shift_6
Note_On_53_Vel_65
Time_Shift_1
Note_On_82_Vel_81
Time_Shift_56
Note_On_53_Vel_0
Time_Shift_15
Note_On_60_Vel_0
Time_Shift_3
Note_On_80_Vel_82
Time_Shift_1
Note_On_56_Vel_0
Time_Shift_50
Note_On_82_Vel_0
Time_Shift_29
Note_On_46_Vel_70
Time_Shift_1
Note_On_74_Vel_81
Time_Shift_26
Sustain_On
Time_Shift_52
Note_On_75_Vel_86
Time_Shift_74
Note_On_58_Vel_72
Time_Shift_3
Note_On_62_Vel_64
Time_Shift_2
Note_On_56_Vel_67
Time_Shift_4
Note_On_77_Vel_86
Time_Shift_63
Note_On_79_Vel_78
Time_Shift_68
Sustain_Off
Time_Shift_3
Note_On_56_Vel_0
Note_On_58_Vel_0
Note_On_62_Vel_0
Note_On_80_Vel_0
Note_On_74_Vel_0
Time_Shift_2
Note_On_46_Vel_0
Note_On_79_Vel_0
Time_Shift_1
Note_On_75_Vel_0
Note_On_77_Vel_0
Time_Shift_1
Note_On_92_Vel_88
Note_On_80_Vel_91
Note_On_62_Vel_69
Time_Shift_6
Note_On_58_Vel_70
Time_Shift_1
Note_On_56_Vel_74
Time_Shift_35
Note_On_62_Vel_0
Time_Shift_8
Note_On_58_Vel_0
Time_Shift_7
Note_On_92_Vel_0
Time_Shift_8
Note_On_56_Vel_0
Time_Shift_12
Note_On_80_Vel_0
Time_Shift_7
Note_On_93_Vel_84
Note_On_81_Vel_92
Time_Shift_19
Note_On_93_Vel_0
Time_Shift_61
Note_On_82_Vel_92
Time_Shift_6
Note_On_46_Vel_67
Time_Shift_49
Sustain_On
Time_Shift_30
Note_On_83_Vel_92
Time_Shift_100
Note_On_62_Vel_61
Time_Shift_4
Note_On_86_Vel_92
Time_Shift_1
Note_On_56_Vel_69
Time_Shift_1
Note_On_58_Vel_71
Time_Shift_68
Note_On_84_Vel_87
Time_Shift_34
Note_On_81_Vel_0
Time_Shift_46
Note_On_82_Vel_0
Time_Shift_7
Note_On_56_Vel_0
Note_On_58_Vel_0
Note_On_62_Vel_0
Time_Shift_4
Note_On_82_Vel_85
Time_Shift_6
Note_On_70_Vel_71
Time_Shift_1
Note_On_56_Vel_69
Note_On_62_Vel_59
Time_Shift_1
Note_On_58_Vel_65
Time_Shift_4
Note_On_70_Vel_0
Time_Shift_57
Note_On_80_Vel_81
Time_Shift_7
Sustain_Off
Time_Shift_1
Note_On_86_Vel_0
Note_On_46_Vel_0
Note_On_83_Vel_0
Note_On_84_Vel_0
Note_On_62_Vel_0
Note_On_82_Vel_0
Time_Shift_3
Note_On_56_Vel_0
Time_Shift_9
Note_On_58_Vel_0
Time_Shift_19
Note_On_80_Vel_0
Time_Shift_43
Note_On_51_Vel_71
Time_Shift_8
Note_On_80_Vel_94
Time_Shift_37
Sustain_On
Time_Shift_36
Note_On_79_Vel_90
Time_Shift_77
Note_On_55_Vel_68
Time_Shift_2
Note_On_51_Vel_0
Note_On_79_Vel_0
Time_Shift_4
Note_On_63_Vel_67
Time_Shift_1
Note_On_58_Vel_66
Time_Shift_1
Note_On_51_Vel_61
Time_Shift_5
Note_On_79_Vel_86
Time_Shift_74
Note_On_78_Vel_93
Time_Shift_69
Note_On_51_Vel_0
Note_On_58_Vel_0
Note_On_63_Vel_0
Time_Shift_7
Note_On_58_Vel_66
Time_Shift_1
Note_On_55_Vel_0
Time_Shift_2
Note_On_63_Vel_65
Time_Shift_1
Note_On_51_Vel_56
Time_Shift_1
Note_On_55_Vel_57
Time_Shift_63
Sustain_Off
Time_Shift_2
Note_On_79_Vel_0
Time_Shift_1
Note_On_58_Vel_0
Note_On_55_Vel_0
Note_On_63_Vel_0
Note_On_51_Vel_0
Note_On_80_Vel_0
Time_Shift_5
Note_On_77_Vel_91
Time_Shift_17
Note_On_78_Vel_0
Time_Shift_20
Note_On_77_Vel_0
Time_Shift_40
Note_On_51_Vel_64
Time_Shift_5
Note_On_77_Vel_73
Time_Shift_50
Sustain_On
Time_Shift_41
Note_On_76_Vel_82
Time_Shift_67
Note_On_51_Vel_0
Time_Shift_2
Note_On_55_Vel_60
Time_Shift_4
Note_On_63_Vel_57
Time_Shift_3
Note_On_51_Vel_51
Time_Shift_3
Note_On_58_Vel_58
Time_Shift_3
Note_On_76_Vel_0
Time_Shift_6
Note_On_76_Vel_68
Time_Shift_73
Note_On_75_Vel_84
Time_Shift_51
Note_On_51_Vel_0
Note_On_58_Vel_0
Note_On_63_Vel_0
Time_Shift_5
Note_On_63_Vel_64
Time_Shift_3
Note_On_55_Vel_0
Note_On_75_Vel_0
Time_Shift_3
Note_On_58_Vel_65
Time_Shift_1
Note_On_51_Vel_55
Time_Shift_1
Note_On_55_Vel_57
Time_Shift_6
Note_On_75_Vel_76
Time_Shift_22
Sustain_Off
Time_Shift_11
Note_On_63_Vel_0
Note_On_76_Vel_0
Note_On_58_Vel_0
Note_On_55_Vel_0
Time_Shift_2
Note_On_77_Vel_0
Time_Shift_3
Note_On_51_Vel_0
Time_Shift_1
Note_On_75_Vel_0
Time_Shift_46
Note_On_74_Vel_73
Time_Shift_38
Note_On_74_Vel_0
Time_Shift_29
Note_On_43_Vel_65
Time_Shift_16
Note_On_73_Vel_75
Time_Shift_28
Sustain_On
Time_Shift_60
Note_On_72_Vel_69
Time_Shift_67
Note_On_75_Vel_72
Time_Shift_2
Note_On_51_Vel_53
Note_On_58_Vel_59
Time_Shift_10
Note_On_73_Vel_0
Time_Shift_1
Sustain_Off
Time_Shift_3
Note_On_72_Vel_0
Time_Shift_3
Note_On_43_Vel_0
Time_Shift_13
Note_On_58_Vel_0
Time_Shift_6
Note_On_51_Vel_0
Time_Shift_12
Note_On_75_Vel_0
Time_Shift_36
Note_On_73_Vel_80
Time_Shift_47
Note_On_73_Vel_0
Time_Shift_13
Note_On_58_Vel_62
Time_Shift_3
Note_On_51_Vel_61
Time_Shift_22
Note_On_84_Vel_83
Time_Shift_12
Note_On_58_Vel_0
Time_Shift_1
Note_On_51_Vel_0
Time_Shift_65
Note_On_82_Vel_81
Time_Shift_51
Note_On_43_Vel_68
Time_Shift_9
Note_On_73_Vel_79
Time_Shift_25
Sustain_On
Time_Shift_51
Note_On_72_Vel_78
Time_Shift_72
Note_On_75_Vel_75
Time_Shift_3
Note_On_58_Vel_68
Time_Shift_1
Note_On_51_Vel_67
Time_Shift_55
Sustain_Off
Time_Shift_10
Note_On_73_Vel_0
Time_Shift_2
Note_On_58_Vel_0
Note_On_75_Vel_0
Time_Shift_1
Note_On_82_Vel_0
Note_On_43_Vel_0
Time_Shift_1
Note_On_72_Vel_0
Note_On_51_Vel_0
Note_On_73_Vel_79
Time_Shift_4
Note_On_84_Vel_0
Time_Shift_46
Note_On_73_Vel_0
Time_Shift_26
Note_On_84_Vel_83
Time_Shift_5
Note_On_51_Vel_63
Time_Shift_3
Note_On_58_Vel_58
Time_Shift_33
Note_On_51_Vel_0
Time_Shift_6
Note_On_58_Vel_0
Time_Shift_30
Note_On_84_Vel_0
Time_Shift_1
Note_On_82_Vel_79
Time_Shift_55
Note_On_82_Vel_0
Time_Shift_15
Note_On_72_Vel_76
Time_Shift_1
Note_On_44_Vel_71
Time_Shift_32
Sustain_On
Time_Shift_43
Note_On_71_Vel_78
Time_Shift_76
Note_On_73_Vel_78
Time_Shift_11
Note_On_56_Vel_63
Time_Shift_1
Note_On_44_Vel_0
Time_Shift_4
Note_On_44_Vel_62
Note_On_51_Vel_62
Time_Shift_22
Sustain_Off
Note_On_71_Vel_0
Time_Shift_8
Note_On_56_Vel_0
Note_On_73_Vel_0
Time_Shift_2
Note_On_51_Vel_0
Time_Shift_18
Note_On_44_Vel_0
Note_On_72_Vel_0
Time_Shift_9
Note_On_72_Vel_70
Time_Shift_64
Note_On_72_Vel_0
Time_Shift_22
Note_On_82_Vel_77
Time_Shift_1
Note_On_51_Vel_62
Note_On_60_Vel_57
Time_Shift_2
Note_On_56_Vel_65
Time_Shift_32
Note_On_60_Vel_0
Time_Shift_1
Note_On_56_Vel_0
Time_Shift_4
Note_On_51_Vel_0
Time_Shift_32
Note_On_80_Vel_79
Time_Shift_19
Note_On_82_Vel_0
Time_Shift_57
Note_On_72_Vel_76
Time_Shift_6
Note_On_44_Vel_68
Time_Shift_12
Sustain_On
Time_Shift_52
Note_On_71_Vel_82
Time_Shift_1
Note_On_83_Vel_67
Time_Shift_8
Note_On_83_Vel_0
Time_Shift_69
Note_On_73_Vel_81
Time_Shift_16
Note_On_44_Vel_0
Time_Shift_4
Note_On_44_Vel_62
Note_On_51_Vel_58
Time_Shift_2
Note_On_56_Vel_54
Time_Shift_40
Note_On_72_Vel_0
Time_Shift_3
Sustain_Off
Time_Shift_1
Note_On_72_Vel_78
Note_On_44_Vel_0
Time_Shift_1
Note_On_71_Vel_0
Time_Shift_1
Note_On_73_Vel_0
Time_Shift_3
Note_On_51_Vel_0
Time_Shift_3
Note_On_56_Vel_0
Time_Shift_3
Note_On_80_Vel_0
Time_Shift_80
Note_On_72_Vel_0
Time_Shift_1
Note_On_82_Vel_82
Time_Shift_2
Note_On_60_Vel_59
Time_Shift_3
Note_On_56_Vel_67
Time_Shift_2
Note_On_51_Vel_64
Time_Shift_30
Note_On_60_Vel_0
Time_Shift_2
Note_On_56_Vel_0
Time_Shift_7
Note_On_51_Vel_0
Time_Shift_25
Note_On_80_Vel_78
Time_Shift_79
Note_On_82_Vel_0
Time_Shift_4
Note_On_39_Vel_78
Time_Shift_2
Note_On_82_Vel_81
Time_Shift_4
Note_On_70_Vel_85
Time_Shift_13
Sustain_On
Time_Shift_64
Note_On_81_Vel_75
Time_Shift_2
Note_On_69_Vel_87
Time_Shift_64
Note_On_39_Vel_0
Time_Shift_5
Note_On_39_Vel_66
Note_On_58_Vel_74
Time_Shift_4
Note_On_72_Vel_81
Note_On_84_Vel_78
Time_Shift_1
Sustain_Off
Time_Shift_3
Note_On_69_Vel_0
Time_Shift_1
Note_On_81_Vel_0
Time_Shift_1
Note_On_82_Vel_0
Time_Shift_3
Note_On_70_Vel_0
Time_Shift_21
Note_On_80_Vel_0
Time_Shift_3
Note_On_72_Vel_0
Time_Shift_1
Note_On_58_Vel_0
Time_Shift_19
Note_On_39_Vel_0
Note_On_84_Vel_0
Time_Shift_25
Note_On_70_Vel_81
Time_Shift_47
Note_On_70_Vel_0
Time_Shift_26
Note_On_58_Vel_76
Time_Shift_1
Note_On_51_Vel_75
Time_Shift_4
Note_On_73_Vel_86
Time_Shift_1
Note_On_85_Vel_80
Time_Shift_28
Note_On_58_Vel_0
Time_Shift_1
Note_On_51_Vel_0
Time_Shift_33
Note_On_73_Vel_0
Time_Shift_10
Note_On_85_Vel_0
Time_Shift_3
Note_On_84_Vel_75
Note_On_72_Vel_84
Time_Shift_52
Note_On_39_Vel_76
Time_Shift_10
Note_On_75_Vel_86
Time_Shift_4
Note_On_84_Vel_0
Sustain_On
Time_Shift_75
Note_On_73_Vel_86
Time_Shift_70
Note_On_51_Vel_75
Time_Shift_2
Note_On_61_Vel_69
Time_Shift_3
Note_On_58_Vel_75
Note_On_79_Vel_87
Time_Shift_4
Note_On_61_Vel_0
Time_Shift_45
Note_On_39_Vel_0
Time_Shift_1
Note_On_75_Vel_0
Time_Shift_1
Note_On_51_Vel_0
Note_On_72_Vel_0
Note_On_73_Vel_0
Time_Shift_1
Sustain_Off
Time_Shift_1
Note_On_58_Vel_0
Time_Shift_1
Note_On_79_Vel_0
Time_Shift_18
Note_On_77_Vel_86
Time_Shift_74
Note_On_73_Vel_82
Time_Shift_3
Note_On_61_Vel_68
Time_Shift_2
Note_On_51_Vel_68
Note_On_58_Vel_70
Time_Shift_23
Note_On_77_Vel_0
Time_Shift_9
Note_On_58_Vel_0
Time_Shift_8
Note_On_73_Vel_0
Time_Shift_20
Note_On_51_Vel_0
Note_On_61_Vel_0
Time_Shift_4
Note_On_79_Vel_70
Time_Shift_1
Note_On_67_Vel_79
Time_Shift_26
Note_On_79_Vel_0
Time_Shift_14
Note_On_67_Vel_0
Time_Shift_35
Note_On_44_Vel_68
Time_Shift_5
Note_On_68_Vel_76
Time_Shift_27
Note_On_44_Vel_0
Time_Shift_19
Sustain_On
Time_Shift_44
Note_On_69_Vel_78
Time_Shift_64
Note_On_60_Vel_63
Note_On_44_Vel_64
Time_Shift_3
Note_On_56_Vel_64
Note_On_51_Vel_63
Time_Shift_8
Note_On_70_Vel_72
Time_Shift_34
Note_On_69_Vel_0
Time_Shift_4
Note_On_60_Vel_0
Sustain_Off
Note_On_44_Vel_0
Note_On_68_Vel_0
Note_On_51_Vel_0
Time_Shift_12
Note_On_70_Vel_0
Time_Shift_8
Note_On_56_Vel_0
Time_Shift_2
Note_On_71_Vel_73
Time_Shift_79
Note_On_60_Vel_54
Note_On_56_Vel_65
Time_Shift_4
Note_On_51_Vel_61
Time_Shift_2
Note_On_71_Vel_0
Time_Shift_1
Note_On_72_Vel_75
Time_Shift_29
Note_On_60_Vel_0
Time_Shift_7
Note_On_56_Vel_0
Time_Shift_2
Note_On_51_Vel_0
Time_Shift_30
Note_On_68_Vel_70
Time_Shift_24
Note_On_72_Vel_0
Time_Shift_63
Note_On_75_Vel_69
Time_Shift_1
Note_On_44_Vel_70
Note_On_63_Vel_75
Time_Shift_6
Note_On_68_Vel_0
Time_Shift_18
Sustain_On
Time_Shift_144
Note_On_60_Vel_62
Note_On_56_Vel_55
Time_Shift_4
Note_On_51_Vel_59
Time_Shift_41
Note_On_63_Vel_0
Note_On_75_Vel_0
Note_On_56_Vel_0
Time_Shift_1
Note_On_60_Vel_0
Time_Shift_1
Sustain_Off
Note_On_51_Vel_0
Time_Shift_9
Note_On_44_Vel_0
Time_Shift_96
Note_On_72_Vel_74
Note_On_60_Vel_59
Time_Shift_1
Note_On_56_Vel_59
Time_Shift_2
Note_On_51_Vel_62
Time_Shift_27
Note_On_60_Vel_0
Time_Shift_1
Note_On_72_Vel_0
Note_On_56_Vel_0
Time_Shift_2
Note_On_51_Vel_0
Time_Shift_128
Note_On_43_Vel_65
Time_Shift_2
Note_On_73_Vel_69
Time_Shift_31
Note_On_43_Vel_0
Time_Shift_17
Sustain_On
Time_Shift_50
Note_On_72_Vel_68
Time_Shift_56
Note_On_75_Vel_74
Time_Shift_6
Note_On_51_Vel_60
Time_Shift_11
Note_On_61_Vel_53
Time_Shift_5
Note_On_58_Vel_60
Time_Shift_57
Note_On_73_Vel_0
Time_Shift_3
Note_On_73_Vel_77
Time_Shift_30
Sustain_Off
Time_Shift_15
Note_On_72_Vel_0
Time_Shift_1
Note_On_75_Vel_0
Time_Shift_1
Note_On_73_Vel_0
Time_Shift_1
Note_On_61_Vel_0
Time_Shift_18
Note_On_58_Vel_0
Time_Shift_7
Note_On_51_Vel_0
Time_Shift_4
Note_On_58_Vel_69
Time_Shift_1
Note_On_84_Vel_86
Time_Shift_1
Note_On_51_Vel_64
Time_Shift_35
Note_On_58_Vel_0
Time_Shift_1
Note_On_51_Vel_0
Time_Shift_46
Note_On_82_Vel_82
Time_Shift_31
Note_On_84_Vel_0
Time_Shift_32
Note_On_43_Vel_71
Time_Shift_4
Note_On_73_Vel_84
Time_Shift_19
Note_On_82_Vel_0
Time_Shift_26
Sustain_On
Time_Shift_29
Note_On_72_Vel_78
Time_Shift_70
Note_On_75_Vel_80
Time_Shift_9
Note_On_61_Vel_68
Time_Shift_2
Note_On_51_Vel_72
Time_Shift_3
Note_On_58_Vel_69
Time_Shift_56
Note_On_73_Vel_0
Time_Shift_5
Note_On_73_Vel_78
Time_Shift_64
Note_On_43_Vel_0
Time_Shift_6
Sustain_Off
Time_Shift_2
Note_On_51_Vel_0
Note_On_58_Vel_0
Time_Shift_6
Note_On_72_Vel_0
Time_Shift_2
Note_On_61_Vel_0
Time_Shift_1
Note_On_75_Vel_0
Time_Shift_1
Note_On_73_Vel_0
Note_On_51_Vel_66
Time_Shift_1
Note_On_58_Vel_69
Note_On_84_Vel_84
Time_Shift_43
Note_On_58_Vel_0
Time_Shift_15
Note_On_51_Vel_0
Time_Shift_12
Note_On_82_Vel_79
Time_Shift_15
Note_On_84_Vel_0
Time_Shift_47
Note_On_82_Vel_0
Time_Shift_13
Note_On_72_Vel_79
Time_Shift_2
Note_On_44_Vel_78
Time_Shift_41
Sustain_On
Time_Shift_33
Note_On_71_Vel_82
Time_Shift_74
Note_On_73_Vel_81
Time_Shift_25
Note_On_56_Vel_58
Time_Shift_1
Note_On_60_Vel_62
Time_Shift_3
Note_On_51_Vel_61
Time_Shift_41
Note_On_72_Vel_0
Time_Shift_8
Note_On_72_Vel_78
Time_Shift_69
Sustain_Off
Time_Shift_11
Note_On_82_Vel_80
Time_Shift_3
Note_On_73_Vel_0
Note_On_71_Vel_0
Time_Shift_1
Note_On_51_Vel_0
Note_On_60_Vel_0
Time_Shift_8
Note_On_56_Vel_0
Time_Shift_3
Note_On_51_Vel_70
Note_On_60_Vel_63
Time_Shift_3
Note_On_56_Vel_66
Time_Shift_2
Note_On_44_Vel_0
Note_On_72_Vel_0
Time_Shift_43
Note_On_51_Vel_0
Time_Shift_3
Note_On_60_Vel_0
Time_Shift_18
Note_On_80_Vel_82
Time_Shift_12
Note_On_56_Vel_0
Time_Shift_29
Note_On_82_Vel_0
Time_Shift_37
Note_On_72_Vel_76
Time_Shift_1
Note_On_44_Vel_75
Time_Shift_33
Sustain_On
Time_Shift_43
Note_On_71_Vel_82
Time_Shift_75
Note_On_73_Vel_88
Time_Shift_5
Note_On_44_Vel_0
Time_Shift_4
Note_On_51_Vel_70
Time_Shift_2
Note_On_44_Vel_69
Note_On_60_Vel_64
Time_Shift_6
Note_On_56_Vel_59
Time_Shift_57
Note_On_72_Vel_0
Time_Shift_7
Note_On_72_Vel_80
Time_Shift_12
Sustain_Off
Time_Shift_3
Note_On_44_Vel_0
Time_Shift_1
Note_On_51_Vel_0
Note_On_60_Vel_0
Note_On_71_Vel_0
Note_On_73_Vel_0
Time_Shift_2
Note_On_56_Vel_0
Time_Shift_6
Note_On_80_Vel_0
Time_Shift_58
Note_On_60_Vel_69
Time_Shift_1
Note_On_51_Vel_71
Time_Shift_2
Note_On_56_Vel_70
Time_Shift_2
Note_On_82_Vel_83
Time_Shift_21
Note_On_72_Vel_0
Time_Shift_17
Note_On_60_Vel_0
Time_Shift_1
Note_On_56_Vel_0
Time_Shift_9
Note_On_51_Vel_0
Time_Shift_25
Note_On_80_Vel_81
Time_Shift_13
Note_On_82_Vel_0
Time_Shift_63
Note_On_70_Vel_84
Time_Shift_1
Note_On_49_Vel_76
Time_Shift_17
Sustain_On
Time_Shift_53
Note_On_73_Vel_86
Time_Shift_65
Note_On_72_Vel_74
Time_Shift_13
Note_On_70_Vel_0
Time_Shift_4
Note_On_53_Vel_70
Note_On_58_Vel_78
Time_Shift_1
Note_On_61_Vel_68
Time_Shift_1
Note_On_70_Vel_76
Time_Shift_68
Note_On_75_Vel_85
Time_Shift_52
Sustain_Off
Time_Shift_4
Note_On_72_Vel_0
Note_On_80_Vel_0
Time_Shift_2
Note_On_49_Vel_0
Note_On_70_Vel_0
Time_Shift_1
Note_On_61_Vel_0
Time_Shift_2
Note_On_75_Vel_0
Time_Shift_3
Note_On_73_Vel_0
Time_Shift_5
Note_On_73_Vel_88
Time_Shift_3
Note_On_53_Vel_0
Note_On_58_Vel_0
Time_Shift_4
Note_On_58_Vel_79
Time_Shift_6
Note_On_53_Vel_72
Time_Shift_40
Note_On_58_Vel_0
Time_Shift_7
Note_On_53_Vel_0
Time_Shift_9
Note_On_73_Vel_0
Time_Shift_12
Note_On_77_Vel_90
Time_Shift_72
Note_On_77_Vel_0
Note_On_76_Vel_92
Note_On_49_Vel_80
Time_Shift_50
Sustain_On
Time_Shift_28
Note_On_79_Vel_95
Time_Shift_82
Note_On_77_Vel_88
Time_Shift_6
Note_On_58_Vel_83
Time_Shift_2
Note_On_61_Vel_81
Note_On_70_Vel_83
Note_On_53_Vel_74
Time_Shift_4
Note_On_70_Vel_0
Time_Shift_66
Note_On_82_Vel_89
Time_Shift_61
Note_On_81_Vel_91
Time_Shift_4
Note_On_53_Vel_0
Note_On_58_Vel_0
Time_Shift_6
Note_On_58_Vel_76
Time_Shift_2
Note_On_61_Vel_0
Time_Shift_1
Note_On_53_Vel_75
Time_Shift_3
Note_On_61_Vel_72
Time_Shift_58
Note_On_53_Vel_0
Time_Shift_1
Note_On_61_Vel_0
Time_Shift_1
Note_On_58_Vel_0
Note_On_79_Vel_0
Note_On_77_Vel_0
Time_Shift_1
Note_On_82_Vel_0
Note_On_81_Vel_0
Time_Shift_1
Sustain_Off
Time_Shift_5
Note_On_84_Vel_84
Time_Shift_5
Note_On_49_Vel_0
Note_On_76_Vel_0
Time_Shift_60
Note_On_84_Vel_0
Time_Shift_21
Note_On_39_Vel_84
Time_Shift_6
Note_On_51_Vel_88
Time_Shift_3
Note_On_82_Vel_80
Time_Shift_4
Note_On_70_Vel_88
Time_Shift_29
Sustain_On
Time_Shift_45
Note_On_73_Vel_86
Time_Shift_71
Note_On_51_Vel_0
Note_On_70_Vel_0
Time_Shift_5
Note_On_61_Vel_72
Note_On_70_Vel_79
Time_Shift_4
Note_On_51_Vel_66
Note_On_58_Vel_76
Time_Shift_4
Note_On_72_Vel_82
Time_Shift_4
Note_On_84_Vel_76
Time_Shift_68
Note_On_75_Vel_85
Time_Shift_53
Note_On_73_Vel_0
Time_Shift_7
Note_On_51_Vel_0
Note_On_58_Vel_0
Note_On_61_Vel_0
Time_Shift_1
Note_On_85_Vel_84
Note_On_73_Vel_90
Time_Shift_4
Note_On_61_Vel_81
Time_Shift_1
Note_On_58_Vel_76
Note_On_51_Vel_74
Time_Shift_56
Sustain_Off
Time_Shift_2
Note_On_58_Vel_0
Time_Shift_1
Note_On_72_Vel_0
Time_Shift_1
Note_On_84_Vel_0
Note_On_75_Vel_0
Note_On_70_Vel_0
Time_Shift_1
Note_On_51_Vel_0
Note_On_61_Vel_0
Time_Shift_1
Note_On_82_Vel_0
Time_Shift_6
Note_On_73_Vel_0
Time_Shift_6
Note_On_91_Vel_86
Note_On_79_Vel_92
Time_Shift_5
Note_On_39_Vel_0
Note_On_91_Vel_0
Time_Shift_15
Note_On_85_Vel_0
Time_Shift_81
Note_On_80_Vel_95
Note_On_92_Vel_88
Time_Shift_1
Note_On_44_Vel_79
Time_Shift_1
Note_On_79_Vel_0
Time_Shift_33
Note_On_92_Vel_0
Time_Shift_15
Sustain_On
Time_Shift_207
Note_On_44_Vel_0
Time_Shift_6
Note_On_60_Vel_78
Note_On_72_Vel_86
Time_Shift_1
Note_On_44_Vel_76
Time_Shift_3
Note_On_51_Vel_77
Note_On_56_Vel_76
Time_Shift_242
Note_On_73_Vel_80
Time_Shift_33
Sustain_Off
Time_Shift_1
Note_On_51_Vel_0
Note_On_80_Vel_0
Time_Shift_1
Note_On_56_Vel_0
Note_On_72_Vel_0
Note_On_60_Vel_0
Time_Shift_1
Note_On_44_Vel_0
Time_Shift_5
Note_On_73_Vel_0
Time_Shift_165
Note_On_73_Vel_66
Time_Shift_17
Note_On_43_Vel_63
Time_Shift_40
Sustain_On
Time_Shift_26
Note_On_72_Vel_72
Time_Shift_93
Note_On_75_Vel_70
Time_Shift_28
Note_On_51_Vel_62
Time_Shift_18
Note_On_61_Vel_53
Time_Shift_6
Note_On_58_Vel_59
Time_Shift_13
Note_On_73_Vel_0
Time_Shift_6
Note_On_73_Vel_70
Time_Shift_1
Sustain_Off
Time_Shift_4
Note_On_43_Vel_0
Time_Shift_1
Note_On_72_Vel_0
Time_Shift_1
Note_On_51_Vel_0
Note_On_75_Vel_0
Time_Shift_1
Note_On_58_Vel_0
Time_Shift_4
Note_On_61_Vel_0
Time_Shift_28
Note_On_73_Vel_0
Time_Shift_56
Note_On_84_Vel_82
Time_Shift_2
Note_On_58_Vel_68
Time_Shift_5
Note_On_61_Vel_60
Time_Shift_2
Note_On_51_Vel_62
Time_Shift_32
Note_On_61_Vel_0
Time_Shift_5
Note_On_58_Vel_0
Time_Shift_2
Note_On_51_Vel_0
Time_Shift_33
Note_On_82_Vel_76
Time_Shift_20
Note_On_84_Vel_0
Time_Shift_44
Note_On_73_Vel_79
Time_Shift_9
Note_On_43_Vel_69
Time_Shift_13
Sustain_On
Time_Shift_50
Note_On_72_Vel_78
Time_Shift_78
Note_On_75_Vel_76
Time_Shift_20
Note_On_61_Vel_64
Time_Shift_1
Note_On_58_Vel_68
Time_Shift_1
Note_On_51_Vel_63
Time_Shift_4
Note_On_61_Vel_0
Time_Shift_38
Note_On_73_Vel_0
Time_Shift_9
Note_On_73_Vel_80
Time_Shift_30
Sustain_Off
Note_On_58_Vel_0
Time_Shift_1
Note_On_72_Vel_0
Note_On_73_Vel_0
Time_Shift_1
Note_On_51_Vel_0
Note_On_82_Vel_0
Note_On_75_Vel_0
Time_Shift_1
Note_On_43_Vel_0
Time_Shift_55
Note_On_84_Vel_84
Time_Shift_6
Note_On_58_Vel_64
Time_Shift_1
Note_On_51_Vel_64
Time_Shift_38
Note_On_58_Vel_0
Time_Shift_2
Note_On_51_Vel_0
Time_Shift_22
Note_On_82_Vel_81
Time_Shift_15
Note_On_84_Vel_0
Time_Shift_53
Note_On_82_Vel_0
Time_Shift_6
Note_On_44_Vel_71
Time_Shift_1
Note_On_72_Vel_76
Time_Shift_28
Sustain_On
Time_Shift_60
Note_On_71_Vel_77
Time_Shift_63
Note_On_44_Vel_0
Time_Shift_7
Note_On_44_Vel_66
Time_Shift_3
Note_On_73_Vel_77
Time_Shift_2
Note_On_60_Vel_60
Time_Shift_5
Note_On_51_Vel_63
Time_Shift_59
Note_On_72_Vel_0
Time_Shift_12
Note_On_72_Vel_75
Time_Shift_8
Sustain_Off
Time_Shift_5
Note_On_60_Vel_0
Time_Shift_1
Note_On_71_Vel_0
Note_On_44_Vel_0
Note_On_51_Vel_0
Time_Shift_1
Note_On_73_Vel_0
Time_Shift_47
Note_On_60_Vel_66
Time_Shift_6
Note_On_51_Vel_60
Time_Shift_1
Note_On_56_Vel_57
Time_Shift_19
Note_On_82_Vel_77
Time_Shift_8
Note_On_72_Vel_0
Time_Shift_4
Note_On_60_Vel_0
Time_Shift_7
Note_On_56_Vel_0
Time_Shift_3
Note_On_51_Vel_0
Time_Shift_52
Note_On_80_Vel_79
Time_Shift_29
Note_On_82_Vel_0
Time_Shift_40
Note_On_84_Vel_67
Time_Shift_1
Note_On_44_Vel_63
Time_Shift_5
Note_On_72_Vel_73
Time_Shift_5
Note_On_84_Vel_0
Time_Shift_8
Sustain_On
Time_Shift_61
Note_On_71_Vel_79
Time_Shift_75
Note_On_73_Vel_81
Time_Shift_5
Note_On_60_Vel_60
Time_Shift_1
Note_On_51_Vel_64
Note_On_56_Vel_61
Time_Shift_65
Note_On_72_Vel_0
Time_Shift_11
Note_On_72_Vel_78
Time_Shift_39
Sustain_Off
Time_Shift_1
Note_On_44_Vel_0
Time_Shift_1
Note_On_73_Vel_0
Time_Shift_1
Note_On_71_Vel_0
Time_Shift_5
Note_On_72_Vel_0
Time_Shift_3
Note_On_80_Vel_0
Time_Shift_8
Note_On_60_Vel_0
Time_Shift_8
Note_On_51_Vel_0
Note_On_56_Vel_0
Time_Shift_3
Note_On_60_Vel_59
Time_Shift_7
Note_On_56_Vel_58
Time_Shift_1
Note_On_51_Vel_67
Time_Shift_5
Note_On_82_Vel_81
Time_Shift_22
Note_On_60_Vel_0
Time_Shift_6
Note_On_56_Vel_0
Time_Shift_5
Note_On_51_Vel_0
Time_Shift_31
Note_On_80_Vel_74
Time_Shift_77
Note_On_39_Vel_82
Time_Shift_15
Note_On_70_Vel_82
Time_Shift_12
Sustain_On
Time_Shift_71
Note_On_81_Vel_72
Time_Shift_2
Note_On_69_Vel_81
Time_Shift_63
Note_On_72_Vel_79
Time_Shift_2
Note_On_61_Vel_75
Time_Shift_3
Note_On_51_Vel_68
Time_Shift_1
Note_On_58_Vel_78
Note_On_84_Vel_76
Time_Shift_1
Note_On_55_Vel_74
Time_Shift_64
Note_On_70_Vel_0
Time_Shift_5
Note_On_70_Vel_81
Time_Shift_2
Note_On_69_Vel_0
Time_Shift_1
Note_On_39_Vel_0
Time_Shift_1
Note_On_80_Vel_0
Time_Shift_1
Note_On_81_Vel_0
Note_On_82_Vel_0
Time_Shift_1
Sustain_Off
Note_On_72_Vel_0
Note_On_58_Vel_0
Note_On_61_Vel_0
Time_Shift_1
Note_On_55_Vel_0
Time_Shift_11
Note_On_84_Vel_0
Time_Shift_8
Note_On_51_Vel_0
Time_Shift_31
Note_On_70_Vel_0
Time_Shift_11
Note_On_55_Vel_76
Time_Shift_8
Note_On_58_Vel_74
Time_Shift_1
Note_On_51_Vel_66
Time_Shift_4
Note_On_73_Vel_83
Time_Shift_33
Note_On_51_Vel_0
Note_On_58_Vel_0
Note_On_55_Vel_0
Time_Shift_31
Note_On_73_Vel_0
Time_Shift_12
Note_On_72_Vel_81
Time_Shift_71
Note_On_39_Vel_81
Time_Shift_5
Note_On_75_Vel_86
Time_Shift_10
Note_On_72_Vel_0
Time_Shift_37
Sustain_On
Time_Shift_23
Note_On_39_Vel_0
Time_Shift_6
Note_On_73_Vel_83
Time_Shift_80
Note_On_58_Vel_77
Time_Shift_1
Note_On_61_Vel_73
Time_Shift_1
Note_On_51_Vel_74
Time_Shift_1
Note_On_79_Vel_82
Time_Shift_66
Note_On_77_Vel_74
Time_Shift_19
Sustain_Off
Time_Shift_7
Note_On_73_Vel_0
Note_On_75_Vel_0
Note_On_79_Vel_0
Note_On_58_Vel_0
Note_On_51_Vel_0
Time_Shift_1
Note_On_61_Vel_0
Time_Shift_54
Note_On_73_Vel_78
Time_Shift_4
Note_On_51_Vel_66
Time_Shift_2
Note_On_58_Vel_67
Time_Shift_29
Note_On_73_Vel_0
Time_Shift_8
Note_On_58_Vel_0
Time_Shift_16
Note_On_51_Vel_0
Time_Shift_4
Note_On_77_Vel_0
Time_Shift_7
Note_On_67_Vel_73
Time_Shift_34
Note_On_67_Vel_0
Time_Shift_48
Note_On_44_Vel_62
Note_On_68_Vel_73
Time_Shift_31
Note_On_44_Vel_0
Time_Shift_34
Sustain_On
Time_Shift_19
Note_On_69_Vel_73
Time_Shift_65
Note_On_70_Vel_75
Time_Shift_13
Note_On_60_Vel_59
Time_Shift_3
Note_On_56_Vel_58
Time_Shift_2
Note_On_44_Vel_60
Time_Shift_2
Note_On_51_Vel_57
Time_Shift_58
Note_On_71_Vel_70
Time_Shift_24
Sustain_Off
Time_Shift_2
Note_On_69_Vel_0
Note_On_70_Vel_0
Time_Shift_1
Note_On_60_Vel_0
Note_On_68_Vel_0
Time_Shift_1
Note_On_44_Vel_0
Time_Shift_2
Note_On_51_Vel_0
Time_Shift_3
Note_On_56_Vel_0
Time_Shift_31
Note_On_71_Vel_0
Time_Shift_25
Note_On_72_Vel_73
Time_Shift_2
Note_On_60_Vel_61
Time_Shift_6
Note_On_56_Vel_57
Note_On_51_Vel_59
Time_Shift_32
Note_On_60_Vel_0
Time_Shift_5
Note_On_56_Vel_0
Time_Shift_1
Note_On_51_Vel_0
Time_Shift_29
Note_On_72_Vel_0
Note_On_68_Vel_66
Time_Shift_83
Note_On_68_Vel_0
Time_Shift_9
Note_On_44_Vel_66
Time_Shift_2
Note_On_63_Vel_63
Time_Shift_33
Sustain_On
Time_Shift_130
Note_On_44_Vel_0
Time_Shift_5
Note_On_60_Vel_58
Time_Shift_2
Note_On_44_Vel_60
Time_Shift_4
Note_On_51_Vel_54
Note_On_56_Vel_55
Time_Shift_76
Sustain_Off
Note_On_56_Vel_0
Note_On_63_Vel_0
Time_Shift_1
Note_On_60_Vel_0
Note_On_44_Vel_0
Time_Shift_1
Note_On_51_Vel_0
Time_Shift_68
Note_On_60_Vel_59
Time_Shift_1
Note_On_56_Vel_55
Time_Shift_1
Note_On_51_Vel_57
Time_Shift_3
Note_On_72_Vel_71
Time_Shift_25
Note_On_60_Vel_0
Time_Shift_5
Note_On_72_Vel_0
Time_Shift_1
Note_On_56_Vel_0
Note_On_51_Vel_0
Time_Shift_127
Note_On_43_Vel_67
Time_Shift_3
Note_On_73_Vel_68
Time_Shift_31
Sustain_On
Time_Shift_58
Note_On_72_Vel_66
Time_Shift_72
Note_On_51_Vel_65
Time_Shift_3
Note_On_58_Vel_66
Note_On_75_Vel_71
Time_Shift_1
Note_On_61_Vel_60
Time_Shift_12
Note_On_43_Vel_0
Time_Shift_61
Note_On_73_Vel_0
Time_Shift_4
Note_On_73_Vel_69
Time_Shift_39
Sustain_Off
Time_Shift_3
Note_On_72_Vel_0
Time_Shift_2
Note_On_73_Vel_0
Time_Shift_1
Note_On_75_Vel_0
Time_Shift_6
Note_On_61_Vel_0
Time_Shift_14
Note_On_51_Vel_0
Note_On_58_Vel_0
Time_Shift_5
Note_On_58_Vel_65
Time_Shift_1
Note_On_51_Vel_63
Time_Shift_5
Note_On_84_Vel_88
Time_Shift_29
Note_On_58_Vel_0
Time_Shift_1
Note_On_51_Vel_0
Time_Shift_50
Note_On_82_Vel_81
Time_Shift_31
Note_On_84_Vel_0
Time_Shift_33
Note_On_43_Vel_74
Time_Shift_4
Note_On_73_Vel_82
Time_Shift_33
Sustain_On
Time_Shift_41
Note_On_72_Vel_82
Time_Shift_74
Note_On_51_Vel_75
Time_Shift_4
Note_On_61_Vel_71
Note_On_58_Vel_74
Time_Shift_2
Note_On_75_Vel_75
Time_Shift_71
Note_On_73_Vel_0
Time_Shift_7
Note_On_73_Vel_75
Time_Shift_58
Sustain_Off
Time_Shift_3
Note_On_72_Vel_0
Note_On_73_Vel_0
Time_Shift_1
Note_On_51_Vel_0
Note_On_58_Vel_0
Time_Shift_1
Note_On_75_Vel_0
Time_Shift_2
Note_On_82_Vel_0
Time_Shift_2
Note_On_61_Vel_0
Note_On_58_Vel_72
Time_Shift_3
Note_On_43_Vel_0
Time_Shift_3
Note_On_51_Vel_71
Time_Shift_5
Note_On_84_Vel_84
Time_Shift_30
Note_On_58_Vel_0
Time_Shift_16
Note_On_51_Vel_0
Time_Shift_32
Note_On_82_Vel_79
Time_Shift_20
Note_On_84_Vel_0
Time_Shift_46
Note_On_82_Vel_0
Time_Shift_6
Note_On_44_Vel_74
Time_Shift_5
Note_On_72_Vel_74
Time_Shift_21
Sustain_On
Time_Shift_68
Note_On_83_Vel_64
Time_Shift_2
Note_On_71_Vel_75
Time_Shift_57
Note_On_51_Vel_80
Time_Shift_4
Note_On_44_Vel_0
Time_Shift_3
Note_On_73_Vel_80
Time_Shift_7
Note_On_44_Vel_69
Time_Shift_5
Note_On_60_Vel_58
Time_Shift_3
Note_On_56_Vel_59
Time_Shift_51
Note_On_72_Vel_0
Time_Shift_11
Note_On_72_Vel_80
Time_Shift_73
Note_On_56_Vel_0
Note_On_60_Vel_0
Time_Shift_2
Note_On_52_Vel_83
Time_Shift_2
Note_On_56_Vel_75
Time_Shift_2
Note_On_60_Vel_72
Time_Shift_4
Note_On_82_Vel_84
Time_Shift_25
Sustain_Off
Time_Shift_5
Note_On_73_Vel_0
Time_Shift_1
Note_On_44_Vel_0
Note_On_51_Vel_0
Time_Shift_1
Note_On_71_Vel_0
Note_On_60_Vel_0
Time_Shift_1
Note_On_56_Vel_0
Time_Shift_11
Note_On_72_Vel_0
Time_Shift_8
Note_On_83_Vel_0
Time_Shift_26
Note_On_92_Vel_76
Time_Shift_1
Note_On_80_Vel_84
Time_Shift_4
Note_On_92_Vel_0
Time_Shift_7
Note_On_52_Vel_0
Time_Shift_33
Note_On_82_Vel_0
Time_Shift_34
Note_On_80_Vel_0
Time_Shift_6
Note_On_72_Vel_74
Time_Shift_1
Note_On_44_Vel_74
Time_Shift_49
Sustain_On
Time_Shift_31
Note_On_71_Vel_77
Time_Shift_64
Note_On_60_Vel_70
Note_On_56_Vel_67
Time_Shift_2
Note_On_53_Vel_70
Time_Shift_14
Note_On_73_Vel_82
Time_Shift_66
Note_On_72_Vel_0
Time_Shift_11
Note_On_72_Vel_72
Time_Shift_58
Note_On_56_Vel_0
Note_On_60_Vel_0
Time_Shift_6
Note_On_60_Vel_75
Note_On_79_Vel_76
Time_Shift_2
Note_On_53_Vel_0
Time_Shift_3
Note_On_56_Vel_73
Note_On_65_Vel_72
Time_Shift_1
Note_On_53_Vel_71
Time_Shift_10
Note_On_82_Vel_78
Time_Shift_7
Sustain_Off
Note_On_73_Vel_0
Time_Shift_2
Note_On_71_Vel_0
Time_Shift_2
Note_On_72_Vel_0
Time_Shift_4
Note_On_60_Vel_0
Time_Shift_1
Note_On_44_Vel_0
Time_Shift_3
Note_On_65_Vel_0
Time_Shift_5
Note_On_79_Vel_0
Time_Shift_23
Note_On_56_Vel_0
Time_Shift_8
Note_On_53_Vel_0
Time_Shift_20
Note_On_80_Vel_86
Time_Shift_13
Note_On_82_Vel_0
Time_Shift_73
Note_On_46_Vel_76
Time_Shift_2
Note_On_74_Vel_86
Time_Shift_30
Sustain_On
Time_Shift_55
Note_On_75_Vel_84
Time_Shift_74
Note_On_58_Vel_74
Time_Shift_3
Note_On_62_Vel_67
Time_Shift_2
Note_On_56_Vel_70
Time_Shift_7
Note_On_77_Vel_82
Time_Shift_55
Note_On_68_Vel_31
Time_Shift_73
Note_On_56_Vel_0
Note_On_62_Vel_0
Time_Shift_5
Note_On_62_Vel_64
Time_Shift_2
Note_On_58_Vel_0
Note_On_80_Vel_0
Time_Shift_4
Note_On_56_Vel_69
Time_Shift_2
Note_On_58_Vel_69
Time_Shift_5
Note_On_53_Vel_59
Note_On_80_Vel_92
Time_Shift_81
Note_On_81_Vel_93
Time_Shift_62
Note_On_68_Vel_0
Time_Shift_1
Sustain_Off
Note_On_53_Vel_0
Time_Shift_1
Note_On_77_Vel_0
Note_On_58_Vel_0
Note_On_62_Vel_0
Note_On_74_Vel_0
Time_Shift_1
Note_On_80_Vel_0
Note_On_75_Vel_0
Time_Shift_2
Note_On_81_Vel_0
Time_Shift_3
Note_On_56_Vel_0
Time_Shift_6
Note_On_82_Vel_92
Time_Shift_1
Note_On_46_Vel_0
Time_Shift_9
Note_On_46_Vel_73
Time_Shift_41
Note_On_46_Vel_0
Time_Shift_30
Note_On_83_Vel_91
Time_Shift_13
Sustain_On
Time_Shift_53
Note_On_82_Vel_0
Time_Shift_40
Note_On_62_Vel_60
Time_Shift_3
Note_On_86_Vel_95
Time_Shift_2
Note_On_58_Vel_72
Time_Shift_3
Note_On_56_Vel_68
Time_Shift_69
Note_On_84_Vel_87
Time_Shift_88
Note_On_82_Vel_83
Time_Shift_18
Note_On_56_Vel_0
Note_On_58_Vel_0
Note_On_62_Vel_0
Time_Shift_4
Note_On_62_Vel_59
Time_Shift_1
Note_On_58_Vel_61
Time_Shift_4
Note_On_56_Vel_56
Time_Shift_41
Note_On_80_Vel_88
Time_Shift_74
Sustain_Off
Time_Shift_1
Note_On_86_Vel_0
Note_On_83_Vel_0
Note_On_56_Vel_0
Time_Shift_1
Note_On_62_Vel_0
Note_On_84_Vel_0
Note_On_58_Vel_0
Note_On_82_Vel_0
Time_Shift_28
Note_On_80_Vel_0
Time_Shift_4
Note_On_80_Vel_92
Note_On_51_Vel_64
Time_Shift_63
Note_On_79_Vel_87
Time_Shift_2
Note_On_51_Vel_0
Sustain_On
Time_Shift_92
Note_On_79_Vel_0
Time_Shift_3
Note_On_55_Vel_67
Time_Shift_1
Note_On_79_Vel_87
Time_Shift_1
Note_On_58_Vel_63
Note_On_63_Vel_58
Time_Shift_6
Note_On_51_Vel_57
Time_Shift_66
Note_On_78_Vel_91
Time_Shift_61
Note_On_78_Vel_0
Time_Shift_8
Note_On_58_Vel_0
Note_On_63_Vel_0
Note_On_78_Vel_80
Time_Shift_4
Note_On_63_Vel_69
Time_Shift_3
Note_On_55_Vel_0
Time_Shift_2
Note_On_51_Vel_0
Note_On_58_Vel_65
Time_Shift_8
Note_On_55_Vel_64
Time_Shift_67
Note_On_77_Vel_90
Time_Shift_51
Note_On_78_Vel_0
Note_On_80_Vel_0
Note_On_79_Vel_0
Note_On_63_Vel_0
Note_On_55_Vel_0
Sustain_Off
Time_Shift_4
Note_On_77_Vel_0
Time_Shift_14
Note_On_58_Vel_0
Time_Shift_33
Note_On_77_Vel_82
Note_On_51_Vel_63
Time_Shift_33
Note_On_51_Vel_0
Time_Shift_11
Sustain_On
Time_Shift_24
Note_On_76_Vel_79
Time_Shift_76
Note_On_76_Vel_0
Time_Shift_7
Note_On_76_Vel_89
Time_Shift_11
Note_On_63_Vel_65
Time_Shift_1
Note_On_55_Vel_66
Time_Shift_1
Note_On_58_Vel_63
Time_Shift_6
Note_On_51_Vel_56
Time_Shift_61
Note_On_75_Vel_77
Time_Shift_74
Note_On_58_Vel_0
Note_On_75_Vel_0
Time_Shift_4
Note_On_75_Vel_80
Time_Shift_4
Note_On_55_Vel_0
Note_On_76_Vel_0
Time_Shift_3
Note_On_77_Vel_0
Sustain_Off
Time_Shift_1
Note_On_58_Vel_71
Time_Shift_4
Note_On_51_Vel_0
Time_Shift_3
Note_On_55_Vel_56
Time_Shift_2
Note_On_51_Vel_43
Time_Shift_33
Note_On_63_Vel_0
Time_Shift_4
Note_On_58_Vel_0
Time_Shift_2
Note_On_51_Vel_0
Time_Shift_9
Note_On_75_Vel_0
Time_Shift_8
Note_On_55_Vel_0
Time_Shift_3
Note_On_74_Vel_73
Time_Shift_46
Note_On_74_Vel_0
Time_Shift_37
Note_On_73_Vel_77
Time_Shift_1
Note_On_43_Vel_72
Time_Shift_32
Note_On_43_Vel_0
Time_Shift_12
Sustain_On
Time_Shift_52
Note_On_72_Vel_68
Time_Shift_62
Note_On_75_Vel_76
Time_Shift_11
Note_On_51_Vel_61
Note_On_61_Vel_61
Time_Shift_1
Note_On_58_Vel_66
Time_Shift_51
Sustain_Off
Time_Shift_2
Note_On_75_Vel_0
Time_Shift_1
Note_On_58_Vel_0
Note_On_72_Vel_0
Note_On_51_Vel_0
Time_Shift_12
Note_On_73_Vel_0
Time_Shift_5
Note_On_73_Vel_69
Time_Shift_2
Note_On_61_Vel_0
Time_Shift_47
Note_On_73_Vel_0
Time_Shift_27
Note_On_84_Vel_84
Time_Shift_9
Note_On_51_Vel_62
Time_Shift_3
Note_On_58_Vel_58
Time_Shift_36
Note_On_58_Vel_0
Time_Shift_5
Note_On_51_Vel_0
Time_Shift_23
Note_On_84_Vel_0
Time_Shift_7
Note_On_82_Vel_78
Time_Shift_65
Note_On_73_Vel_78
Time_Shift_14
Note_On_43_Vel_71
Time_Shift_10
Sustain_On
Time_Shift_45
Note_On_72_Vel_78
Time_Shift_79
Note_On_75_Vel_71
Time_Shift_19
Note_On_61_Vel_66
Time_Shift_4
Note_On_58_Vel_68
Time_Shift_2
Note_On_51_Vel_64
Time_Shift_35
Note_On_73_Vel_0
Time_Shift_11
Note_On_73_Vel_74
Time_Shift_49
Sustain_Off
Time_Shift_4
Note_On_58_Vel_0
Time_Shift_1
Note_On_51_Vel_0
Note_On_72_Vel_0
Note_On_73_Vel_0
Note_On_75_Vel_0
Time_Shift_1
Note_On_61_Vel_0
Note_On_43_Vel_0
Time_Shift_1
Note_On_82_Vel_0
Time_Shift_35
Note_On_84_Vel_84
Time_Shift_8
Note_On_51_Vel_63
Note_On_58_Vel_63
Time_Shift_43
Note_On_58_Vel_0
Time_Shift_4
Note_On_51_Vel_0
Time_Shift_16
Note_On_82_Vel_81
Time_Shift_9
Note_On_84_Vel_0
Time_Shift_70
Note_On_72_Vel_75
Note_On_44_Vel_71
Time_Shift_10
Sustain_On
Time_Shift_71
Note_On_71_Vel_77
Time_Shift_69
Note_On_73_Vel_80
Time_Shift_21
Note_On_44_Vel_0
Time_Shift_4
Note_On_51_Vel_58
Note_On_44_Vel_62
Time_Shift_1
Note_On_60_Vel_58
Time_Shift_37
Sustain_Off
Time_Shift_8
Note_On_82_Vel_0
Note_On_71_Vel_0
Time_Shift_1
Note_On_60_Vel_0
Note_On_44_Vel_0
Note_On_73_Vel_0
Time_Shift_1
Note_On_51_Vel_0
Time_Shift_9
Note_On_72_Vel_0
Time_Shift_5
Note_On_72_Vel_73
Time_Shift_78
Note_On_72_Vel_0
Time_Shift_2
Note_On_60_Vel_57
Time_Shift_2
Note_On_51_Vel_60
Note_On_56_Vel_61
Time_Shift_1
Note_On_82_Vel_78
Time_Shift_37
Note_On_60_Vel_0
Time_Shift_1
Note_On_56_Vel_0
Time_Shift_9
Note_On_51_Vel_0
Time_Shift_29
Note_On_80_Vel_82
Time_Shift_71
Note_On_44_Vel_72
Time_Shift_1
Note_On_84_Vel_70
Time_Shift_2
Sustain_On
Time_Shift_3
Note_On_72_Vel_75
Time_Shift_81
Note_On_71_Vel_81
Time_Shift_74
Note_On_73_Vel_80
Time_Shift_4
Note_On_44_Vel_0
Time_Shift_3
Note_On_60_Vel_59
Time_Shift_1
Note_On_44_Vel_64
Time_Shift_6
Note_On_51_Vel_59
Time_Shift_65
Note_On_44_Vel_0
Time_Shift_1
Note_On_71_Vel_0
Note_On_72_Vel_0
Note_On_84_Vel_0
Time_Shift_1
Note_On_80_Vel_0
Note_On_73_Vel_0
Time_Shift_1
Note_On_51_Vel_0
Time_Shift_1
Note_On_60_Vel_0
Time_Shift_1
Sustain_Off
Time_Shift_1
Note_On_84_Vel_61
Time_Shift_2
Note_On_72_Vel_67
Time_Shift_1
Note_On_82_Vel_0
Time_Shift_39
Note_On_84_Vel_0
Time_Shift_33
Note_On_56_Vel_68
Note_On_51_Vel_60
Time_Shift_2
Note_On_60_Vel_50
Time_Shift_1
Note_On_72_Vel_0
Time_Shift_6
Note_On_82_Vel_80
Time_Shift_24
Note_On_56_Vel_0
Time_Shift_7
Note_On_51_Vel_0
Time_Shift_11
Note_On_60_Vel_0
Time_Shift_21
Note_On_80_Vel_75
Time_Shift_40
Sustain_On
Time_Shift_28
Note_On_39_Vel_80
Time_Shift_52
Note_On_70_Vel_74
Time_Shift_54
Note_On_81_Vel_76
Time_Shift_1
Note_On_69_Vel_83
Time_Shift_68
Note_On_51_Vel_69
Note_On_58_Vel_70
Time_Shift_1
Note_On_72_Vel_81
Time_Shift_1
Note_On_84_Vel_79
Time_Shift_1
Note_On_61_Vel_67
Time_Shift_9
Note_On_61_Vel_0
Time_Shift_27
Note_On_81_Vel_0
Time_Shift_1
Note_On_82_Vel_0
Note_On_70_Vel_0
Note_On_80_Vel_0
Note_On_69_Vel_0
Time_Shift_7
Note_On_39_Vel_0
Note_On_72_Vel_0
Time_Shift_1
Note_On_58_Vel_0
Sustain_Off
Time_Shift_3
Note_On_84_Vel_0
Note_On_51_Vel_0
Time_Shift_32
Note_On_70_Vel_81
Time_Shift_49
Note_On_70_Vel_0
Time_Shift_13
Note_On_58_Vel_73
Note_On_51_Vel_74
Time_Shift_18
Note_On_85_Vel_76
Note_On_73_Vel_84
Time_Shift_22
Note_On_51_Vel_0
Time_Shift_2
Note_On_58_Vel_0
Time_Shift_46
Note_On_73_Vel_0
Time_Shift_5
Note_On_85_Vel_0
Time_Shift_3
Note_On_72_Vel_83
Time_Shift_2
Note_On_84_Vel_71
Time_Shift_44
Note_On_39_Vel_73
Time_Shift_22
Note_On_75_Vel_85
Time_Shift_11
Note_On_84_Vel_0
Time_Shift_7
Sustain_On
Time_Shift_63
Note_On_73_Vel_83
Time_Shift_71
Note_On_51_Vel_74
Time_Shift_1
Note_On_58_Vel_76
Time_Shift_3
Note_On_79_Vel_90
Note_On_61_Vel_70
Time_Shift_71
Note_On_77_Vel_89
Time_Shift_27
Sustain_Off
Time_Shift_6
Note_On_75_Vel_0
Note_On_73_Vel_0
Note_On_51_Vel_0
Note_On_58_Vel_0
Time_Shift_1
Note_On_79_Vel_0
Note_On_72_Vel_0
Time_Shift_3
Note_On_61_Vel_0
Time_Shift_8
Note_On_39_Vel_0
Time_Shift_28
Note_On_73_Vel_81
Time_Shift_6
Note_On_51_Vel_69
Note_On_58_Vel_68
Time_Shift_27
Note_On_77_Vel_0
Time_Shift_6
Note_On_58_Vel_0
Time_Shift_6
Note_On_73_Vel_0
Time_Shift_1
Note_On_51_Vel_0
Time_Shift_22
Note_On_67_Vel_78
Time_Shift_43
Note_On_67_Vel_0
Time_Shift_28
Note_On_44_Vel_72
Time_Shift_7
Note_On_68_Vel_76
Time_Shift_33
Sustain_On
Time_Shift_51
Note_On_69_Vel_75
Time_Shift_67
Note_On_70_Vel_80
Time_Shift_5
Note_On_44_Vel_0
Time_Shift_4
Note_On_60_Vel_58
Time_Shift_1
Note_On_44_Vel_68
Time_Shift_6
Note_On_56_Vel_63
Time_Shift_1
Note_On_51_Vel_61
Time_Shift_55
Note_On_69_Vel_0
Note_On_70_Vel_0
Note_On_60_Vel_0
Time_Shift_1
Note_On_44_Vel_0
Time_Shift_1
Note_On_51_Vel_0
Time_Shift_1
Note_On_68_Vel_0
Sustain_Off
Time_Shift_1
Note_On_71_Vel_72
Time_Shift_21
Note_On_56_Vel_0
Time_Shift_61
Note_On_71_Vel_0
Time_Shift_5
Note_On_60_Vel_64
Time_Shift_1
Note_On_72_Vel_76
Time_Shift_4
Note_On_56_Vel_64
Time_Shift_1
Note_On_51_Vel_61
Time_Shift_37
Note_On_56_Vel_0
Time_Shift_3
Note_On_60_Vel_0
Time_Shift_7
Note_On_51_Vel_0
Time_Shift_22
Note_On_68_Vel_69
Time_Shift_6
Note_On_72_Vel_0
Time_Shift_87
Note_On_44_Vel_63
Time_Shift_1
Note_On_75_Vel_57
Time_Shift_2
Note_On_63_Vel_69
Time_Shift_9
Note_On_75_Vel_0
Time_Shift_15
Sustain_On
Time_Shift_143
Note_On_60_Vel_63
Time_Shift_2
Note_On_56_Vel_57
Time_Shift_4
Note_On_51_Vel_57
Time_Shift_55
Note_On_63_Vel_0
Time_Shift_1
Note_On_56_Vel_0
Note_On_60_Vel_0
Note_On_68_Vel_0
Time_Shift_1
Note_On_44_Vel_0
Time_Shift_1
Note_On_51_Vel_0
Time_Shift_1
Sustain_Off
Time_Shift_88
Note_On_60_Vel_64
Time_Shift_1
Note_On_56_Vel_60
Note_On_72_Vel_71
Time_Shift_1
Note_On_51_Vel_61
Time_Shift_26
Note_On_60_Vel_0
Time_Shift_6
Note_On_72_Vel_0
Note_On_51_Vel_0
Time_Shift_16
Note_On_56_Vel_0
Time_Shift_117
Note_On_73_Vel_68
Time_Shift_4
Note_On_43_Vel_66
Time_Shift_33
Sustain_On
Time_Shift_62
Note_On_72_Vel_67
Time_Shift_63
Note_On_75_Vel_73
Time_Shift_16
Note_On_61_Vel_59
Time_Shift_1
Note_On_58_Vel_64
Time_Shift_1
Note_On_51_Vel_61
Time_Shift_2
Note_On_61_Vel_0
Time_Shift_8
Note_On_43_Vel_0
Time_Shift_46
Note_On_73_Vel_0
Time_Shift_6
Note_On_73_Vel_74
Time_Shift_68
Sustain_Off
Time_Shift_6
Note_On_72_Vel_0
Note_On_73_Vel_0
Note_On_75_Vel_0
Time_Shift_5
Note_On_51_Vel_0
Note_On_58_Vel_0
Time_Shift_4
Note_On_58_Vel_67
Note_On_51_Vel_65
Time_Shift_1
Note_On_84_Vel_86
Note_On_61_Vel_58
Time_Shift_25
Note_On_61_Vel_0
Time_Shift_23
Note_On_58_Vel_0
Time_Shift_8
Note_On_51_Vel_0
Time_Shift_24
Note_On_82_Vel_80
Time_Shift_27
Note_On_84_Vel_0
Time_Shift_37
Note_On_43_Vel_74
Time_Shift_1
Note_On_73_Vel_78
Time_Shift_34
Sustain_On
Time_Shift_2
Note_On_43_Vel_0
Time_Shift_40
Note_On_72_Vel_78
Time_Shift_71
Note_On_75_Vel_75
Time_Shift_6
Note_On_61_Vel_67
Time_Shift_1
Note_On_58_Vel_70
Time_Shift_4
Note_On_51_Vel_66
Time_Shift_53
Note_On_73_Vel_0
Time_Shift_6
Note_On_73_Vel_78
Time_Shift_22
Sustain_Off
Time_Shift_5
Note_On_58_Vel_0
Note_On_75_Vel_0
Time_Shift_1
Note_On_51_Vel_0
Note_On_72_Vel_0
Note_On_73_Vel_0
Time_Shift_1
Note_On_82_Vel_0
Time_Shift_3
Note_On_61_Vel_0
Time_Shift_57
Note_On_84_Vel_92
Note_On_58_Vel_70
Time_Shift_1
Note_On_51_Vel_69
Time_Shift_45
Note_On_58_Vel_0
Time_Shift_9
Note_On_51_Vel_0
Time_Shift_14
Note_On_82_Vel_85
Time_Shift_39
Note_On_84_Vel_0
Time_Shift_46
Note_On_44_Vel_72
Note_On_72_Vel_78
Time_Shift_12
Sustain_On
Time_Shift_70
Note_On_71_Vel_78
Time_Shift_80
Note_On_73_Vel_80
Time_Shift_1
Note_On_51_Vel_67
Time_Shift_4
Note_On_60_Vel_64
Time_Shift_60
Note_On_72_Vel_0
Time_Shift_10
Note_On_72_Vel_79
Time_Shift_40
Sustain_Off
Time_Shift_8
Note_On_71_Vel_0
Note_On_73_Vel_0
Note_On_44_Vel_0
Time_Shift_1
Note_On_72_Vel_0
Time_Shift_18
Note_On_51_Vel_0
Note_On_60_Vel_0
Time_Shift_5
Note_On_60_Vel_60
Time_Shift_1
Note_On_56_Vel_60
Time_Shift_1
Note_On_82_Vel_0
Time_Shift_2
Note_On_51_Vel_65
Time_Shift_5
Note_On_82_Vel_83
Time_Shift_47
Note_On_60_Vel_0
Time_Shift_26
Note_On_51_Vel_0
Time_Shift_2
Note_On_80_Vel_81
Time_Shift_26
Note_On_56_Vel_0
Time_Shift_6
Note_On_82_Vel_0
Time_Shift_40
Note_On_44_Vel_75
Time_Shift_6
Note_On_72_Vel_77
Time_Shift_17
Sustain_On
Time_Shift_64
Note_On_71_Vel_81
Time_Shift_66
Note_On_44_Vel_0
Time_Shift_7
Note_On_44_Vel_68
Time_Shift_2
Note_On_60_Vel_65
Time_Shift_1
Note_On_73_Vel_81
Time_Shift_2
Note_On_51_Vel_72
Time_Shift_65
Note_On_72_Vel_0
Time_Shift_11
Note_On_72_Vel_69
Time_Shift_52
Sustain_Off
Time_Shift_6
Note_On_72_Vel_0
Note_On_44_Vel_0
Note_On_73_Vel_0
Time_Shift_1
Note_On_71_Vel_0
Time_Shift_15
Note_On_51_Vel_0
Note_On_60_Vel_0
Note_On_80_Vel_0
Time_Shift_6
Note_On_60_Vel_65
Time_Shift_1
Note_On_51_Vel_69
Time_Shift_2
Note_On_56_Vel_63
Time_Shift_4
Note_On_82_Vel_80
Time_Shift_32
Note_On_60_Vel_0
Time_Shift_42
Note_On_51_Vel_0
Time_Shift_2
Note_On_80_Vel_80
Time_Shift_26
Note_On_56_Vel_0
Time_Shift_2
Note_On_82_Vel_0
Time_Shift_56
Note_On_70_Vel_78
Note_On_49_Vel_63
Time_Shift_11
Sustain_On
Time_Shift_62
Note_On_73_Vel_84
Time_Shift_78
Note_On_72_Vel_82
Time_Shift_2
Note_On_53_Vel_65
Time_Shift_2
Note_On_61_Vel_70
Note_On_58_Vel_71
Time_Shift_73
Note_On_75_Vel_82
Time_Shift_60
Note_On_58_Vel_0
Note_On_73_Vel_0
Time_Shift_7
Note_On_53_Vel_0
Time_Shift_3
Note_On_58_Vel_76
Note_On_73_Vel_87
Time_Shift_5
Note_On_53_Vel_64
Time_Shift_3
Note_On_61_Vel_0
Time_Shift_69
Note_On_77_Vel_92
Time_Shift_21
Sustain_Off
Time_Shift_2
Note_On_80_Vel_0
Time_Shift_1
Note_On_72_Vel_0
Note_On_49_Vel_0
Note_On_53_Vel_0
Note_On_58_Vel_0
Note_On_75_Vel_0
Note_On_70_Vel_0
Time_Shift_11
Note_On_73_Vel_0
Time_Shift_36
Note_On_49_Vel_71
Time_Shift_4
Note_On_76_Vel_85
Time_Shift_5
Note_On_77_Vel_0
Time_Shift_48
Note_On_49_Vel_0
Time_Shift_15
Sustain_On
Time_Shift_11
Note_On_79_Vel_87
Time_Shift_81
Note_On_77_Vel_85
Time_Shift_3
Note_On_58_Vel_79
Time_Shift_2
Note_On_53_Vel_70
Time_Shift_1
Note_On_61_Vel_73
Time_Shift_67
Note_On_82_Vel_87
Time_Shift_72
Note_On_81_Vel_89
Time_Shift_1
Note_On_53_Vel_0
Note_On_58_Vel_0
Note_On_61_Vel_0
Time_Shift_5
Note_On_58_Vel_71
Note_On_53_Vel_71
Time_Shift_1
Note_On_61_Vel_73
Time_Shift_76
Note_On_84_Vel_87
Time_Shift_13
Note_On_81_Vel_0
Time_Shift_1
Note_On_58_Vel_0
Note_On_61_Vel_0
Note_On_53_Vel_0
Note_On_79_Vel_0
Note_On_77_Vel_0
Note_On_82_Vel_0
Sustain_Off
Time_Shift_12
Note_On_76_Vel_0
Time_Shift_26
Note_On_84_Vel_0
Time_Shift_29
Note_On_39_Vel_84
Time_Shift_4
Note_On_51_Vel_86
Time_Shift_3
Note_On_70_Vel_84
Time_Shift_30
Sustain_On
Time_Shift_52
Note_On_73_Vel_89
Time_Shift_71
Note_On_51_Vel_0
Time_Shift_4
Note_On_51_Vel_67
Time_Shift_1
Note_On_61_Vel_70
Time_Shift_5
Note_On_58_Vel_77
Time_Shift_6
Note_On_72_Vel_80
Time_Shift_1
Note_On_84_Vel_73
Time_Shift_6
Note_On_84_Vel_0
Time_Shift_75
Note_On_75_Vel_82
Time_Shift_63
Note_On_58_Vel_0
Note_On_61_Vel_0
Note_On_73_Vel_0
Time_Shift_4
Note_On_52_Vel_60
Note_On_73_Vel_84
Time_Shift_5
Note_On_51_Vel_0
Note_On_58_Vel_72
Time_Shift_1
Note_On_61_Vel_73
Time_Shift_1
Note_On_49_Vel_61
Time_Shift_4
Note_On_49_Vel_0
Note_On_52_Vel_0
Time_Shift_66
Note_On_79_Vel_86
Time_Shift_24
Sustain_Off
Note_On_73_Vel_0
Time_Shift_1
Note_On_58_Vel_0
Note_On_70_Vel_0
Note_On_72_Vel_0
Time_Shift_1
Note_On_75_Vel_0
Time_Shift_16
Note_On_39_Vel_0
Note_On_61_Vel_0
Time_Shift_74
Note_On_80_Vel_92
Time_Shift_2
Note_On_44_Vel_71
Time_Shift_8
Note_On_79_Vel_0
Time_Shift_46
Sustain_On
Time_Shift_233
Note_On_72_Vel_85
Note_On_60_Vel_78
Note_On_51_Vel_76
Time_Shift_1
Note_On_56_Vel_76
Time_Shift_274
Note_On_84_Vel_92
Time_Shift_30
Note_On_51_Vel_0
Time_Shift_1
Note_On_80_Vel_0
Sustain_Off
Note_On_72_Vel_0
Time_Shift_1
Note_On_56_Vel_0
Time_Shift_1
Note_On_60_Vel_0
Time_Shift_5
Note_On_44_Vel_0
Time_Shift_130
Note_On_84_Vel_0
Time_Shift_61
Note_On_48_Vel_71
Time_Shift_1
Note_On_60_Vel_61
Time_Shift_2
Note_On_82_Vel_82
Time_Shift_5
Note_On_60_Vel_0
Time_Shift_8
Sustain_On
Time_Shift_86
Note_On_84_Vel_76
Time_Shift_83
Note_On_82_Vel_0
Time_Shift_7
Note_On_82_Vel_74
Time_Shift_65
Note_On_80_Vel_81
Time_Shift_75
Note_On_55_Vel_61
Time_Shift_1
Note_On_64_Vel_63
Time_Shift_1
Note_On_58_Vel_70
Note_On_79_Vel_88
Time_Shift_1
Note_On_60_Vel_59
Time_Shift_5
Note_On_84_Vel_0
Time_Shift_2
Note_On_82_Vel_0
Time_Shift_1
Sustain_Off
Time_Shift_1
Note_On_80_Vel_0
Time_Shift_2
Note_On_48_Vel_0
Time_Shift_26
Note_On_64_Vel_0
Time_Shift_2
Note_On_55_Vel_0
Time_Shift_1
Note_On_58_Vel_0
Time_Shift_7
Note_On_60_Vel_0
Time_Shift_29
Note_On_84_Vel_86
Time_Shift_2
Note_On_79_Vel_0
Time_Shift_79
Note_On_80_Vel_85
Time_Shift_15
Sustain_On
Time_Shift_6
Note_On_65_Vel_76
Time_Shift_4
Note_On_56_Vel_70
Time_Shift_1
Note_On_60_Vel_71
Note_On_53_Vel_71
Time_Shift_63
Note_On_82_Vel_82
Time_Shift_80
Note_On_80_Vel_0
Time_Shift_6
Note_On_80_Vel_84
Time_Shift_64
Note_On_79_Vel_87
Time_Shift_56
Note_On_53_Vel_0
Time_Shift_1
Note_On_82_Vel_0
Note_On_56_Vel_0
Time_Shift_1
Note_On_65_Vel_0
Note_On_84_Vel_0
Time_Shift_2
Note_On_80_Vel_0
Sustain_Off
Time_Shift_3
Note_On_79_Vel_0
Time_Shift_19
Note_On_77_Vel_89
Time_Shift_2
Note_On_60_Vel_0
Time_Shift_3
Note_On_53_Vel_68
Time_Shift_1
Note_On_65_Vel_69
Note_On_60_Vel_63
Time_Shift_2
Note_On_56_Vel_59
Time_Shift_9
Note_On_56_Vel_0
Time_Shift_19
Note_On_53_Vel_0
Time_Shift_12
Note_On_65_Vel_0
Time_Shift_7
Note_On_60_Vel_0
Time_Shift_30
Note_On_77_Vel_0
Note_On_84_Vel_88
Time_Shift_82
Note_On_64_Vel_84
Time_Shift_1
Note_On_79_Vel_82
Time_Shift_3
Note_On_58_Vel_78
Time_Shift_1
Note_On_60_Vel_74
Note_On_53_Vel_68
Time_Shift_22
Sustain_On
Time_Shift_57
Note_On_72_Vel_76
Time_Shift_85
Note_On_73_Vel_81
Time_Shift_73
Note_On_72_Vel_0
Time_Shift_9
Note_On_72_Vel_88
Time_Shift_25
Note_On_60_Vel_0
Note_On_53_Vel_0
Note_On_84_Vel_0
Note_On_79_Vel_0
Note_On_58_Vel_0
Time_Shift_1
Note_On_64_Vel_0
Sustain_Off
Note_On_73_Vel_0
Time_Shift_51
Note_On_64_Vel_72
Time_Shift_3
Note_On_80_Vel_83
Time_Shift_2
Note_On_58_Vel_70
Time_Shift_4
Note_On_53_Vel_65
Time_Shift_3
Note_On_60_Vel_60
Time_Shift_38
Note_On_64_Vel_0
Time_Shift_2
Note_On_72_Vel_0
Time_Shift_3
Note_On_53_Vel_0
Time_Shift_2
Note_On_58_Vel_0
Time_Shift_32
Note_On_80_Vel_0
Time_Shift_1
Note_On_60_Vel_0
Time_Shift_3
Note_On_79_Vel_83
Time_Shift_70
Note_On_77_Vel_88
Time_Shift_4
Note_On_79_Vel_0
Time_Shift_4
Note_On_60_Vel_65
Time_Shift_4
Note_On_65_Vel_69
Time_Shift_1
Note_On_53_Vel_67
Time_Shift_1
Note_On_56_Vel_71
Time_Shift_21
Sustain_On
Time_Shift_48
Note_On_72_Vel_77
Time_Shift_78
Note_On_73_Vel_86
Time_Shift_74
Note_On_72_Vel_0
Time_Shift_6
Note_On_56_Vel_0
Note_On_53_Vel_0
Time_Shift_1
Note_On_73_Vel_0
Note_On_60_Vel_0
Time_Shift_1
Note_On_65_Vel_0
Time_Shift_1
Note_On_77_Vel_0
Time_Shift_2
Sustain_Off
Note_On_72_Vel_75
Time_Shift_68
Note_On_80_Vel_85
Time_Shift_2
Note_On_65_Vel_71
Time_Shift_2
Note_On_56_Vel_66
Time_Shift_1
Note_On_60_Vel_71
Time_Shift_2
Note_On_53_Vel_71
Time_Shift_21
Note_On_72_Vel_0
Time_Shift_4
Note_On_56_Vel_0
Time_Shift_1
Note_On_53_Vel_0
Time_Shift_18
Note_On_60_Vel_0
Note_On_65_Vel_0
Time_Shift_23
Note_On_80_Vel_0
Time_Shift_11
Note_On_84_Vel_83
Time_Shift_77
Note_On_64_Vel_77
Time_Shift_6
Note_On_60_Vel_73
Time_Shift_2
Note_On_58_Vel_78
Note_On_82_Vel_89
Time_Shift_4
Note_On_53_Vel_66
Time_Shift_8
Sustain_On
Time_Shift_69
Note_On_84_Vel_0
Time_Shift_7
Note_On_84_Vel_91
Time_Shift_77
Note_On_82_Vel_0
Time_Shift_11
Note_On_82_Vel_86
Time_Shift_61
Note_On_80_Vel_87
Time_Shift_74
Note_On_84_Vel_0
Time_Shift_3
Note_On_64_Vel_0
Time_Shift_1
Note_On_80_Vel_0
Time_Shift_3
Sustain_Off
Time_Shift_1
Note_On_53_Vel_0
Note_On_58_Vel_0
Note_On_60_Vel_0
Time_Shift_2
Note_On_79_Vel_86
Time_Shift_3
Note_On_58_Vel_67
Note_On_53_Vel_64
Time_Shift_3
Note_On_82_Vel_0
Time_Shift_3
Note_On_60_Vel_63
Time_Shift_43
Note_On_58_Vel_0
Time_Shift_7
Note_On_53_Vel_0
Time_Shift_8
Note_On_60_Vel_0
Time_Shift_6
Note_On_84_Vel_83
Time_Shift_6
Note_On_79_Vel_0
Time_Shift_78
Note_On_80_Vel_89
Time_Shift_5
Note_On_84_Vel_0
Time_Shift_9
Note_On_65_Vel_71
Note_On_56_Vel_71
Time_Shift_1
Note_On_60_Vel_74
Time_Shift_1
Note_On_53_Vel_69
Time_Shift_25
Sustain_On
Time_Shift_55
Note_On_82_Vel_81
Time_Shift_75
Note_On_80_Vel_0
Time_Shift_4
Note_On_80_Vel_84
Time_Shift_59
Note_On_79_Vel_92
Time_Shift_75
Note_On_65_Vel_0
Time_Shift_8
Note_On_53_Vel_0
Note_On_56_Vel_0
Note_On_60_Vel_0
Time_Shift_3
Note_On_65_Vel_67
Time_Shift_1
Note_On_60_Vel_67
Note_On_77_Vel_90
Time_Shift_1
Sustain_Off
Note_On_56_Vel_60
Time_Shift_1
Note_On_53_Vel_66
Time_Shift_4
Note_On_80_Vel_0
Note_On_82_Vel_0
Time_Shift_1
Note_On_79_Vel_0
Time_Shift_27
Note_On_56_Vel_0
Time_Shift_8
Note_On_65_Vel_0
Time_Shift_8
Note_On_60_Vel_0
Time_Shift_7
Note_On_53_Vel_0
Time_Shift_35
Note_On_84_Vel_85
Time_Shift_2
Note_On_77_Vel_0
Time_Shift_68
Note_On_64_Vel_79
Time_Shift_7
Note_On_60_Vel_71
Note_On_58_Vel_75
Time_Shift_6
Note_On_53_Vel_65
Time_Shift_3
Note_On_79_Vel_79
Time_Shift_10
Sustain_On
Time_Shift_65
Note_On_72_Vel_77
Time_Shift_85
Note_On_73_Vel_82
Time_Shift_73
Note_On_72_Vel_0
Time_Shift_7
Note_On_72_Vel_79
Time_Shift_56
Sustain_Off
Note_On_73_Vel_0
Time_Shift_1
Note_On_79_Vel_0
Time_Shift_1
Note_On_84_Vel_0
Time_Shift_19
Note_On_64_Vel_0
Time_Shift_4
Note_On_64_Vel_69
Time_Shift_4
Note_On_53_Vel_0
Note_On_58_Vel_0
Note_On_60_Vel_0
Time_Shift_4
Note_On_80_Vel_85
Time_Shift_1
Note_On_58_Vel_63
Time_Shift_1
Note_On_53_Vel_59
Note_On_60_Vel_57
Time_Shift_29
Note_On_60_Vel_0
Note_On_64_Vel_0
Time_Shift_1
Note_On_53_Vel_0
Time_Shift_1
Note_On_58_Vel_0
Time_Shift_60
Note_On_79_Vel_79
Time_Shift_10
Note_On_72_Vel_0
Time_Shift_4
Note_On_80_Vel_0
Time_Shift_75
Note_On_53_Vel_65
Time_Shift_2
Note_On_77_Vel_82
Time_Shift_1
Note_On_65_Vel_62
Time_Shift_1
Note_On_60_Vel_65
Time_Shift_4
Note_On_56_Vel_67
Time_Shift_21
Sustain_On
Time_Shift_2
Note_On_65_Vel_0
Time_Shift_85
Note_On_72_Vel_75
Time_Shift_82
Note_On_77_Vel_0
Time_Shift_7
Note_On_77_Vel_76
Time_Shift_100
Note_On_80_Vel_76
Time_Shift_142
Note_On_84_Vel_72
Time_Shift_10
Note_On_72_Vel_0
Sustain_Off
Time_Shift_1
Note_On_80_Vel_0
Time_Shift_2
Note_On_77_Vel_0
Time_Shift_7
Note_On_53_Vel_0
Note_On_56_Vel_0
Note_On_60_Vel_0
Note_On_79_Vel_0
Time_Shift_218
Note_On_48_Vel_71
Time_Shift_12
Sustain_On
Time_Shift_2
Note_On_82_Vel_71
Time_Shift_113
Note_On_84_Vel_0
Time_Shift_7
Note_On_84_Vel_70
Time_Shift_78
Note_On_82_Vel_0
Time_Shift_1
Note_On_58_Vel_64
Time_Shift_2
Note_On_64_Vel_57
Time_Shift_8
Note_On_82_Vel_68
Time_Shift_3
Sustain_Off
Time_Shift_1
Note_On_48_Vel_0
Note_On_84_Vel_0
Time_Shift_23
Note_On_58_Vel_0
Time_Shift_2
Note_On_64_Vel_0
Time_Shift_40
Note_On_80_Vel_77
Time_Shift_4
Note_On_82_Vel_0
Time_Shift_48
Note_On_80_Vel_0
Time_Shift_26
Note_On_64_Vel_62
Time_Shift_4
Note_On_79_Vel_80
Time_Shift_1
Note_On_58_Vel_59
Note_On_60_Vel_52
Time_Shift_21
Note_On_64_Vel_0
Time_Shift_16
Note_On_58_Vel_0
Time_Shift_7
Note_On_60_Vel_0
Time_Shift_27
Note_On_84_Vel_70
Note_On_79_Vel_0
Time_Shift_61
Note_On_84_Vel_0
Time_Shift_24
Note_On_53_Vel_65
Time_Shift_1
Note_On_80_Vel_80
Time_Shift_48
Sustain_On
Time_Shift_33
Note_On_82_Vel_84
Time_Shift_21
Note_On_53_Vel_0
Time_Shift_46
Note_On_80_Vel_0
Time_Shift_4
Sustain_Off
Time_Shift_3
Note_On_80_Vel_78
Time_Shift_4
Note_On_82_Vel_0
Time_Shift_9
Note_On_56_Vel_53
Time_Shift_1
Note_On_60_Vel_45
Time_Shift_28
Note_On_60_Vel_0
Time_Shift_16
Note_On_80_Vel_0
Time_Shift_4
Note_On_56_Vel_0
Time_Shift_11
Note_On_79_Vel_85
Time_Shift_86
Note_On_77_Vel_82
Time_Shift_3
Note_On_79_Vel_0
Time_Shift_8
Note_On_65_Vel_53
Time_Shift_1
Note_On_60_Vel_57
Time_Shift_3
Note_On_56_Vel_59
Time_Shift_20
Note_On_65_Vel_0
Time_Shift_7
Note_On_77_Vel_0
Note_On_60_Vel_0
Time_Shift_4
Note_On_56_Vel_0
Time_Shift_27
Note_On_84_Vel_85
Time_Shift_80
Note_On_84_Vel_0
Time_Shift_10
Note_On_79_Vel_77
Time_Shift_6
Note_On_48_Vel_71
Time_Shift_49
Sustain_On
Time_Shift_25
Note_On_72_Vel_78
Time_Shift_66
Sustain_Off
Time_Shift_1
Note_On_72_Vel_0
Time_Shift_1
Note_On_79_Vel_0
Time_Shift_1
Note_On_48_Vel_0
Time_Shift_18
Note_On_73_Vel_75
Time_Shift_4
Note_On_60_Vel_53
Time_Shift_1
Note_On_64_Vel_60
Time_Shift_1
Note_On_58_Vel_58
Time_Shift_21
Note_On_73_Vel_0
Time_Shift_3
Note_On_64_Vel_0
Time_Shift_3
Note_On_60_Vel_0
Time_Shift_5
Note_On_58_Vel_0
Time_Shift_37
Note_On_72_Vel_84
Time_Shift_81
Note_On_64_Vel_63
Time_Shift_5
Note_On_58_Vel_65
Note_On_80_Vel_80
Time_Shift_3
Note_On_60_Vel_53
Time_Shift_19
Note_On_72_Vel_0
Time_Shift_8
Note_On_64_Vel_0
Time_Shift_7
Note_On_58_Vel_0
Time_Shift_1
Note_On_60_Vel_0
Time_Shift_47
Note_On_79_Vel_81
Time_Shift_13
Note_On_80_Vel_0
Time_Shift_57
Note_On_77_Vel_83
Time_Shift_6
Note_On_53_Vel_66
Time_Shift_3
Note_On_79_Vel_0
Time_Shift_47
Sustain_On
Time_Shift_25
Note_On_72_Vel_80
Time_Shift_80
Note_On_73_Vel_86
Time_Shift_14
Sustain_Off
Note_On_65_Vel_56
Time_Shift_1
Note_On_60_Vel_57
Time_Shift_1
Note_On_56_Vel_56
Time_Shift_2
Note_On_77_Vel_0
Time_Shift_1
Note_On_72_Vel_0
Time_Shift_19
Note_On_65_Vel_0
Time_Shift_2
Note_On_60_Vel_0
Time_Shift_1
Note_On_56_Vel_0
Note_On_53_Vel_0
Time_Shift_5
Note_On_73_Vel_0
Time_Shift_42
Note_On_72_Vel_80
Time_Shift_64
Note_On_72_Vel_0
Time_Shift_2
Note_On_65_Vel_69
Note_On_80_Vel_88
Note_On_60_Vel_68
Time_Shift_2
Note_On_56_Vel_71
Time_Shift_21
Note_On_65_Vel_0
Time_Shift_6
Note_On_60_Vel_0
Time_Shift_8
Note_On_56_Vel_0
Time_Shift_39
Note_On_80_Vel_0
Time_Shift_5
Note_On_84_Vel_89
Time_Shift_80
Note_On_48_Vel_79
Time_Shift_7
Note_On_82_Vel_86
Time_Shift_3
Sustain_On
Time_Shift_69
Note_On_84_Vel_0
Time_Shift_12
Note_On_84_Vel_94
Time_Shift_41
Sustain_Off
Time_Shift_4
Note_On_48_Vel_0
Time_Shift_1
Note_On_84_Vel_0
Time_Shift_27
Note_On_82_Vel_0
Time_Shift_10
Note_On_58_Vel_69
Time_Shift_1
Note_On_64_Vel_64
Note_On_82_Vel_77
Note_On_60_Vel_58
Time_Shift_28
Note_On_64_Vel_0
Time_Shift_1
Note_On_60_Vel_0
Note_On_58_Vel_0
Time_Shift_40
Note_On_80_Vel_82
Time_Shift_8
Note_On_82_Vel_0
Time_Shift_69
Note_On_80_Vel_0
Time_Shift_8
Note_On_64_Vel_64
Note_On_79_Vel_82
Time_Shift_7
Note_On_60_Vel_52
Note_On_58_Vel_57
Time_Shift_26
Note_On_64_Vel_0
Time_Shift_11
Note_On_60_Vel_0
Time_Shift_26
Note_On_58_Vel_0
Time_Shift_4
Note_On_79_Vel_0
Time_Shift_1
Note_On_84_Vel_77
Time_Shift_58
Note_On_84_Vel_0
Time_Shift_25
Note_On_80_Vel_84
Time_Shift_3
Note_On_53_Vel_67
Time_Shift_1
Note_On_65_Vel_60
Time_Shift_35
Note_On_53_Vel_0
Time_Shift_6
Note_On_65_Vel_0
Time_Shift_8
Sustain_On
Time_Shift_30
Note_On_82_Vel_83
Time_Shift_78
Note_On_80_Vel_0
Time_Shift_4
Note_On_80_Vel_82
Time_Shift_5
Note_On_56_Vel_60
Time_Shift_2
Note_On_65_Vel_52
Time_Shift_5
Sustain_Off
Time_Shift_3
Note_On_60_Vel_53
Time_Shift_9
Note_On_82_Vel_0
Time_Shift_18
Note_On_60_Vel_0
Time_Shift_1
Note_On_56_Vel_0
Time_Shift_20
Note_On_79_Vel_85
Time_Shift_9
Note_On_80_Vel_0
Time_Shift_8
Note_On_65_Vel_0
Time_Shift_71
Note_On_77_Vel_87
Time_Shift_8
Note_On_79_Vel_0
Time_Shift_7
Note_On_65_Vel_58
Time_Shift_2
Note_On_60_Vel_60
Time_Shift_3
Note_On_56_Vel_61
Time_Shift_17
Note_On_65_Vel_0
Time_Shift_9
Note_On_60_Vel_0
Time_Shift_9
Note_On_56_Vel_0
Time_Shift_19
Note_On_77_Vel_0
Time_Shift_3
Note_On_84_Vel_87
Time_Shift_87
Note_On_79_Vel_81
Time_Shift_6
Note_On_84_Vel_0
Time_Shift_1
Note_On_48_Vel_74
Time_Shift_50
Sustain_On
Time_Shift_27
Note_On_72_Vel_79
Time_Shift_93
Note_On_73_Vel_76
Time_Shift_1
Sustain_Off
Time_Shift_1
Note_On_58_Vel_67
Time_Shift_2
Note_On_64_Vel_65
Time_Shift_1
Note_On_55_Vel_55
Time_Shift_1
Note_On_60_Vel_58
Note_On_72_Vel_0
Note_On_79_Vel_0
Time_Shift_5
Note_On_48_Vel_0
Time_Shift_19
Note_On_64_Vel_0
Time_Shift_3
Note_On_60_Vel_0
Time_Shift_4
Note_On_58_Vel_0
Time_Shift_9
Note_On_73_Vel_0
Time_Shift_3
Note_On_55_Vel_0
Time_Shift_32
Note_On_72_Vel_80
Time_Shift_78
Note_On_64_Vel_54
Time_Shift_2
Note_On_58_Vel_59
Time_Shift_3
Note_On_60_Vel_47
Time_Shift_5
Note_On_80_Vel_78
Time_Shift_42
Note_On_64_Vel_0
Time_Shift_3
Note_On_58_Vel_0
Time_Shift_37
Note_On_72_Vel_0
Time_Shift_4
Note_On_79_Vel_79
Time_Shift_5
Note_On_80_Vel_0
Time_Shift_19
Note_On_60_Vel_0
Time_Shift_82
Note_On_53_Vel_64
Note_On_79_Vel_0
Time_Shift_1
Note_On_77_Vel_84
Time_Shift_71
Sustain_On
Time_Shift_15
Note_On_53_Vel_0
Time_Shift_28
Note_On_79_Vel_83
Time_Shift_103
Note_On_77_Vel_0
Time_Shift_11
Note_On_77_Vel_83
Time_Shift_3
Note_On_56_Vel_68
Time_Shift_3
Note_On_53_Vel_58
Time_Shift_1
Note_On_65_Vel_58
Time_Shift_82
Note_On_76_Vel_75
Time_Shift_52
Sustain_Off
Time_Shift_4
Note_On_53_Vel_0
Note_On_65_Vel_0
Note_On_79_Vel_0
Time_Shift_1
Note_On_56_Vel_0
Note_On_76_Vel_0
Note_On_77_Vel_0
Time_Shift_30
Note_On_75_Vel_73
Time_Shift_79
Note_On_75_Vel_0
Time_Shift_22
Note_On_74_Vel_69
Time_Shift_56
Note_On_74_Vel_0
Time_Shift_38
Note_On_43_Vel_68
Time_Shift_9
Note_On_73_Vel_67
Time_Shift_31
Sustain_On
Time_Shift_83
Note_On_72_Vel_64
Time_Shift_40
Note_On_43_Vel_0
Time_Shift_13
Sustain_Off
Time_Shift_14
Note_On_51_Vel_58
Time_Shift_1
Note_On_58_Vel_61
Time_Shift_2
Note_On_72_Vel_0
Note_On_75_Vel_72
Time_Shift_9
Note_On_73_Vel_0
Time_Shift_19
Note_On_75_Vel_0
Note_On_58_Vel_0
Time_Shift_3
Note_On_51_Vel_0
Time_Shift_57
Note_On_73_Vel_69
Time_Shift_40
Note_On_73_Vel_0
Time_Shift_15
Note_On_58_Vel_63
Time_Shift_6
Note_On_51_Vel_63
Time_Shift_17
Note_On_84_Vel_81
Time_Shift_16
Note_On_58_Vel_0
Note_On_51_Vel_0
Time_Shift_58
Note_On_84_Vel_0
Time_Shift_7
Note_On_82_Vel_84
Time_Shift_57
Note_On_43_Vel_72
Time_Shift_8
Note_On_73_Vel_79
Time_Shift_27
Sustain_On
Time_Shift_54
Note_On_72_Vel_78
Time_Shift_73
Note_On_75_Vel_75
Time_Shift_5
Note_On_61_Vel_63
Note_On_51_Vel_64
Time_Shift_1
Note_On_58_Vel_62
Time_Shift_13
Note_On_43_Vel_0
Time_Shift_26
Sustain_Off
Time_Shift_4
Note_On_75_Vel_0
Time_Shift_2
Note_On_72_Vel_0
Note_On_58_Vel_0
Note_On_51_Vel_0
Time_Shift_2
Note_On_61_Vel_0
Time_Shift_12
Note_On_73_Vel_0
Note_On_82_Vel_0
Time_Shift_7
Note_On_73_Vel_73
Time_Shift_63
Note_On_73_Vel_0
Time_Shift_20
Note_On_84_Vel_82
Time_Shift_3
Note_On_51_Vel_66
Time_Shift_2
Note_On_58_Vel_60
Time_Shift_40
Note_On_58_Vel_0
Time_Shift_5
Note_On_51_Vel_0
Time_Shift_31
Note_On_84_Vel_0
Note_On_82_Vel_78
Time_Shift_62
Note_On_82_Vel_0
Time_Shift_9
Note_On_72_Vel_76
Time_Shift_4
Note_On_44_Vel_67
Time_Shift_46
Sustain_On
Time_Shift_29
Note_On_71_Vel_80
Time_Shift_77
Note_On_73_Vel_79
Time_Shift_9
Note_On_44_Vel_0
Time_Shift_10
Note_On_44_Vel_62
Time_Shift_2
Note_On_51_Vel_62
Time_Shift_23
Sustain_Off
Time_Shift_2
Note_On_71_Vel_0
Time_Shift_4
Note_On_44_Vel_0
Time_Shift_2
Note_On_73_Vel_0
Time_Shift_9
Note_On_51_Vel_0
Time_Shift_2
Note_On_72_Vel_0
Time_Shift_9
Note_On_72_Vel_69
Time_Shift_77
Note_On_72_Vel_0
Time_Shift_17
Note_On_60_Vel_58
Time_Shift_1
Note_On_51_Vel_62
Time_Shift_3
Note_On_56_Vel_60
Time_Shift_1
Note_On_82_Vel_80
Time_Shift_35
Note_On_60_Vel_0
Time_Shift_6
Note_On_56_Vel_0
Time_Shift_3
Note_On_51_Vel_0
Time_Shift_29
Note_On_80_Vel_82
Time_Shift_20
Note_On_82_Vel_0
Time_Shift_55
Note_On_80_Vel_0
Time_Shift_7
Note_On_44_Vel_65
Time_Shift_1
Note_On_72_Vel_78
Time_Shift_35
Sustain_On
Time_Shift_55
Note_On_71_Vel_63
Time_Shift_16
Note_On_69_Vel_57
Time_Shift_52
Note_On_73_Vel_81
Time_Shift_6
Note_On_51_Vel_65
Time_Shift_9
Note_On_56_Vel_62
Time_Shift_37
Note_On_69_Vel_0
Time_Shift_2
Sustain_Off
Note_On_72_Vel_0
Time_Shift_1
Note_On_71_Vel_0
Time_Shift_1
Note_On_56_Vel_0
Time_Shift_1
Note_On_73_Vel_0
Time_Shift_1
Note_On_51_Vel_0
Time_Shift_6
Note_On_72_Vel_73
Time_Shift_5
Note_On_44_Vel_0
Time_Shift_72
Note_On_72_Vel_0
Time_Shift_10
Note_On_51_Vel_66
Note_On_56_Vel_65
Time_Shift_6
Note_On_82_Vel_80
Time_Shift_29
Note_On_56_Vel_0
Time_Shift_3
Note_On_51_Vel_0
Time_Shift_35
Note_On_80_Vel_80
Time_Shift_75
Note_On_39_Vel_75
Time_Shift_24
Sustain_On
Time_Shift_5
Note_On_70_Vel_77
Time_Shift_64
Note_On_81_Vel_75
Time_Shift_1
Note_On_69_Vel_83
Time_Shift_68
Note_On_39_Vel_0
Time_Shift_4
Note_On_39_Vel_64
Time_Shift_1
Note_On_58_Vel_66
Time_Shift_1
Note_On_51_Vel_63
Note_On_72_Vel_80
Time_Shift_1
Note_On_84_Vel_76
Sustain_Off
Time_Shift_2
Note_On_69_Vel_0
Time_Shift_1
Note_On_81_Vel_0
Time_Shift_2
Note_On_70_Vel_0
Time_Shift_3
Note_On_82_Vel_0
Note_On_80_Vel_0
Time_Shift_31
Note_On_51_Vel_0
Time_Shift_4
Note_On_58_Vel_0
Time_Shift_2
Note_On_84_Vel_0
Time_Shift_6
Note_On_72_Vel_0
Time_Shift_3
Note_On_39_Vel_0
Time_Shift_20
Note_On_70_Vel_84
Time_Shift_65
Note_On_70_Vel_0
Time_Shift_9
Note_On_51_Vel_69
Time_Shift_1
Note_On_58_Vel_70
Time_Shift_1
Note_On_61_Vel_63
Time_Shift_7
Note_On_73_Vel_84
Time_Shift_29
Note_On_58_Vel_0
Time_Shift_3
Note_On_51_Vel_0
Time_Shift_32
Note_On_73_Vel_0
Time_Shift_2
Note_On_61_Vel_0
Time_Shift_10
Note_On_84_Vel_73
Time_Shift_1
Note_On_72_Vel_82
Time_Shift_63
Note_On_39_Vel_80
Time_Shift_6
Note_On_75_Vel_88
Time_Shift_8
Note_On_72_Vel_0
Time_Shift_2
Note_On_84_Vel_0
Time_Shift_24
Note_On_39_Vel_0
Time_Shift_40
Sustain_On
Time_Shift_9
Note_On_73_Vel_84
Time_Shift_78
Note_On_51_Vel_72
Time_Shift_2
Note_On_79_Vel_84
Note_On_58_Vel_74
Note_On_61_Vel_66
Time_Shift_44
Sustain_Off
Time_Shift_5
Note_On_75_Vel_0
Note_On_51_Vel_0
Time_Shift_3
Note_On_73_Vel_0
Time_Shift_1
Note_On_58_Vel_0
Note_On_79_Vel_0
Time_Shift_12
Note_On_77_Vel_86
Time_Shift_7
Note_On_61_Vel_0
Time_Shift_70
Note_On_73_Vel_82
Time_Shift_10
Note_On_58_Vel_73
Time_Shift_4
Note_On_51_Vel_71
Time_Shift_7
Note_On_77_Vel_0
Time_Shift_28
Note_On_73_Vel_0
Time_Shift_2
Note_On_58_Vel_0
Time_Shift_3
Note_On_51_Vel_0
Time_Shift_12
Note_On_67_Vel_79
Time_Shift_46
Note_On_67_Vel_0
Time_Shift_40
Note_On_44_Vel_70
Time_Shift_2
Note_On_68_Vel_77
Time_Shift_29
Sustain_On
Time_Shift_52
Note_On_81_Vel_75
Note_On_69_Vel_81
Time_Shift_10
Note_On_81_Vel_0
Time_Shift_58
Note_On_70_Vel_83
Time_Shift_11
Note_On_44_Vel_0
Time_Shift_5
Note_On_60_Vel_64
Time_Shift_4
Note_On_44_Vel_63
Time_Shift_2
Note_On_51_Vel_62
Note_On_56_Vel_59
Time_Shift_8
Note_On_69_Vel_0
Time_Shift_7
Note_On_68_Vel_0
Time_Shift_4
Sustain_Off
Time_Shift_18
Note_On_60_Vel_0
Time_Shift_6
Note_On_44_Vel_0
Time_Shift_4
Note_On_51_Vel_0
Note_On_70_Vel_0
Time_Shift_3
Note_On_56_Vel_0
Time_Shift_10
Note_On_71_Vel_73
Time_Shift_72
Note_On_71_Vel_0
Time_Shift_9
Note_On_72_Vel_79
Time_Shift_4
Note_On_60_Vel_59
Time_Shift_1
Note_On_56_Vel_65
Time_Shift_1
Note_On_51_Vel_66
Time_Shift_37
Note_On_60_Vel_0
Time_Shift_1
Note_On_56_Vel_0
Time_Shift_3
Note_On_51_Vel_0
Time_Shift_28
Note_On_72_Vel_0
Time_Shift_6
Note_On_68_Vel_71
Time_Shift_79
Note_On_68_Vel_0
Time_Shift_7
Note_On_44_Vel_68
Time_Shift_1
Note_On_63_Vel_72
Time_Shift_26
Sustain_On
Time_Shift_146
Note_On_44_Vel_0
Time_Shift_8
Note_On_60_Vel_53
Time_Shift_1
Note_On_44_Vel_59
Time_Shift_1
Note_On_56_Vel_57
Time_Shift_1
Note_On_51_Vel_53
Time_Shift_31
Note_On_63_Vel_0
Sustain_Off
Note_On_44_Vel_0
Time_Shift_2
Note_On_60_Vel_0
Note_On_56_Vel_0
Time_Shift_2
Note_On_51_Vel_0
Time_Shift_114
Note_On_60_Vel_57
Note_On_56_Vel_58
Note_On_72_Vel_72
Time_Shift_2
Note_On_51_Vel_60
Time_Shift_8
Note_On_68_Vel_57
Time_Shift_18
Note_On_60_Vel_0
Time_Shift_4
Note_On_56_Vel_0
Time_Shift_1
Note_On_51_Vel_0
Time_Shift_13
Note_On_72_Vel_0
Time_Shift_24
Note_On_68_Vel_0
Time_Shift_100
Note_On_43_Vel_63
Time_Shift_5
Note_On_73_Vel_64
Time_Shift_56
Sustain_On
Time_Shift_29
Note_On_72_Vel_71
Time_Shift_75
Note_On_51_Vel_65
Time_Shift_6
Note_On_75_Vel_72
Time_Shift_1
Note_On_61_Vel_58
Time_Shift_3
Note_On_58_Vel_64
Time_Shift_63
Note_On_73_Vel_0
Time_Shift_9
Note_On_73_Vel_76
Time_Shift_12
Note_On_58_Vel_0
Time_Shift_2
Sustain_Off
Time_Shift_1
Note_On_51_Vel_0
Time_Shift_2
Note_On_72_Vel_0
Note_On_75_Vel_0
Time_Shift_5
Note_On_43_Vel_0
Time_Shift_23
Note_On_61_Vel_0
Note_On_73_Vel_0
Time_Shift_36
Note_On_51_Vel_68
Time_Shift_3
Note_On_58_Vel_63
Time_Shift_1
Note_On_84_Vel_79
Time_Shift_32
Note_On_58_Vel_0
Note_On_51_Vel_0
Time_Shift_38
Note_On_82_Vel_84
Time_Shift_35
Note_On_84_Vel_0
Time_Shift_35
Note_On_73_Vel_79
Note_On_43_Vel_75
Time_Shift_20
Note_On_82_Vel_0
Time_Shift_38
Sustain_On
Time_Shift_7
Note_On_43_Vel_0
Time_Shift_4
Note_On_72_Vel_80
Time_Shift_80
Note_On_75_Vel_79
Time_Shift_6
Note_On_51_Vel_70
Time_Shift_7
Note_On_61_Vel_67
Time_Shift_7
Note_On_58_Vel_69
Time_Shift_50
Note_On_73_Vel_0
Time_Shift_5
Note_On_73_Vel_82
Time_Shift_53
Note_On_72_Vel_0
Time_Shift_1
Sustain_Off
Note_On_73_Vel_0
Time_Shift_1
Note_On_61_Vel_0
Note_On_75_Vel_0
Time_Shift_9
Note_On_58_Vel_0
Time_Shift_11
Note_On_58_Vel_75
Time_Shift_4
Note_On_51_Vel_0
Time_Shift_4
Note_On_51_Vel_71
Time_Shift_1
Note_On_84_Vel_88
Time_Shift_31
Note_On_58_Vel_0
Time_Shift_1
Note_On_51_Vel_0
Time_Shift_40
Note_On_82_Vel_82
Time_Shift_22
Note_On_84_Vel_0
Time_Shift_47
Note_On_82_Vel_0
Time_Shift_5
Note_On_44_Vel_81
Time_Shift_4
Note_On_72_Vel_81
Time_Shift_37
Sustain_On
Time_Shift_50
Note_On_71_Vel_79
Time_Shift_71
Note_On_51_Vel_75
Time_Shift_1
Note_On_60_Vel_64
Time_Shift_2
Note_On_73_Vel_82
Time_Shift_50
Note_On_71_Vel_0
Time_Shift_2
Note_On_60_Vel_0
Time_Shift_1
Note_On_51_Vel_0
Time_Shift_1
Note_On_73_Vel_0
Time_Shift_2
Sustain_Off
Time_Shift_12
Note_On_44_Vel_0
Note_On_72_Vel_0
Time_Shift_10
Note_On_72_Vel_82
Time_Shift_1
Note_On_84_Vel_76
Time_Shift_55
Note_On_60_Vel_69
Time_Shift_6
Note_On_56_Vel_69
Note_On_51_Vel_73
Time_Shift_17
Note_On_82_Vel_85
Time_Shift_9
Note_On_72_Vel_0
Time_Shift_1
Note_On_84_Vel_0
Time_Shift_6
Note_On_60_Vel_0
Time_Shift_4
Note_On_56_Vel_0
Time_Shift_2
Note_On_51_Vel_0
Time_Shift_57
Note_On_80_Vel_83
Time_Shift_39
Note_On_82_Vel_0
Time_Shift_23
Note_On_44_Vel_79
Time_Shift_6
Note_On_72_Vel_79
Time_Shift_18
Sustain_On
Time_Shift_70
Note_On_71_Vel_81
Time_Shift_65
Note_On_51_Vel_75
Time_Shift_6
Note_On_73_Vel_83
Time_Shift_1
Note_On_60_Vel_64
Note_On_56_Vel_62
Time_Shift_58
Note_On_72_Vel_0
Time_Shift_6
Note_On_72_Vel_63
Time_Shift_36
Note_On_71_Vel_0
Note_On_72_Vel_0
Note_On_51_Vel_0
Time_Shift_1
Note_On_73_Vel_0
Note_On_56_Vel_0
Note_On_60_Vel_0
Time_Shift_3
Note_On_80_Vel_0
Time_Shift_1
Sustain_Off
Time_Shift_14
Note_On_44_Vel_0
Time_Shift_33
Note_On_56_Vel_69
Time_Shift_1
Note_On_60_Vel_69
Time_Shift_2
Note_On_51_Vel_73
Time_Shift_11
Note_On_82_Vel_82
Time_Shift_27
Note_On_60_Vel_0
Time_Shift_14
Note_On_51_Vel_0
Time_Shift_26
Note_On_80_Vel_81
Time_Shift_9
Note_On_56_Vel_0
Time_Shift_17
Note_On_82_Vel_0
Time_Shift_57
Note_On_70_Vel_80
Time_Shift_5
Note_On_49_Vel_71
Time_Shift_44
Sustain_On
Time_Shift_21
Note_On_73_Vel_84
Time_Shift_77
Note_On_72_Vel_83
Time_Shift_10
Note_On_53_Vel_71
Time_Shift_1
Note_On_58_Vel_78
Note_On_61_Vel_73
Time_Shift_69
Note_On_75_Vel_85
Time_Shift_52
Note_On_73_Vel_0
Time_Shift_10
Note_On_73_Vel_91
Time_Shift_29
Note_On_53_Vel_0
Note_On_58_Vel_0
Time_Shift_4
Note_On_58_Vel_76
Time_Shift_4
Note_On_53_Vel_64
Time_Shift_49
Note_On_77_Vel_88
Time_Shift_4
Note_On_80_Vel_0
Time_Shift_4
Sustain_Off
Time_Shift_2
Note_On_58_Vel_0
Note_On_73_Vel_0
Time_Shift_1
Note_On_75_Vel_0
Note_On_61_Vel_0
Note_On_49_Vel_0
Time_Shift_1
Note_On_72_Vel_0
Time_Shift_1
Note_On_53_Vel_0
Time_Shift_6
Note_On_70_Vel_0
Time_Shift_35
Note_On_77_Vel_0
Time_Shift_28
Note_On_76_Vel_83
Time_Shift_1
Note_On_49_Vel_78
Time_Shift_40
Note_On_76_Vel_0
Time_Shift_12
Sustain_On
Time_Shift_7
Note_On_49_Vel_0
Time_Shift_14
Note_On_79_Vel_91
Time_Shift_88
Note_On_77_Vel_91
Time_Shift_7
Note_On_49_Vel_69
Time_Shift_4
Note_On_58_Vel_76
Note_On_61_Vel_72
Note_On_70_Vel_77
Time_Shift_4
Note_On_53_Vel_70
Time_Shift_6
Note_On_70_Vel_0
Time_Shift_58
Note_On_82_Vel_88
Time_Shift_69
Note_On_81_Vel_84
Time_Shift_4
Note_On_53_Vel_0
Note_On_58_Vel_0
Time_Shift_5
Note_On_58_Vel_77
Time_Shift_2
Note_On_49_Vel_0
Time_Shift_3
Note_On_53_Vel_72
Time_Shift_3
Note_On_49_Vel_61
Time_Shift_56
Note_On_84_Vel_89
Time_Shift_53
Note_On_77_Vel_0
Time_Shift_1
Note_On_81_Vel_0
Time_Shift_1
Note_On_58_Vel_0
Note_On_79_Vel_0
Note_On_82_Vel_0
Time_Shift_1
Sustain_Off
Note_On_49_Vel_0
Time_Shift_5
Note_On_61_Vel_0
Time_Shift_3
Note_On_84_Vel_0
Time_Shift_5
Note_On_53_Vel_0
Time_Shift_30
Note_On_51_Vel_85
Note_On_39_Vel_82
Time_Shift_4
Note_On_82_Vel_84
Note_On_70_Vel_89
Time_Shift_32
Note_On_51_Vel_0
Note_On_39_Vel_0
Time_Shift_26
Sustain_On
Time_Shift_20
Note_On_73_Vel_89
Time_Shift_84
Note_On_51_Vel_71
Time_Shift_1
Note_On_39_Vel_69
Time_Shift_5
Note_On_58_Vel_73
Time_Shift_1
Note_On_72_Vel_81
Time_Shift_77
Note_On_75_Vel_84
Time_Shift_1
Note_On_87_Vel_76
Time_Shift_11
Note_On_87_Vel_0
Time_Shift_54
Note_On_39_Vel_0
Note_On_51_Vel_0
Note_On_58_Vel_0
Note_On_73_Vel_0
Time_Shift_5
Note_On_51_Vel_70
Note_On_73_Vel_85
Time_Shift_1
Note_On_85_Vel_79
Note_On_58_Vel_78
Time_Shift_3
Note_On_39_Vel_70
Time_Shift_68
Note_On_79_Vel_90
Time_Shift_61
Sustain_Off
Time_Shift_4
Note_On_72_Vel_0
Time_Shift_1
Note_On_75_Vel_0
Note_On_73_Vel_0
Note_On_79_Vel_0
Note_On_70_Vel_0
Note_On_82_Vel_0
Note_On_58_Vel_0
Note_On_51_Vel_0
Time_Shift_1
Note_On_39_Vel_0
Time_Shift_25
Note_On_85_Vel_0
Time_Shift_25
Note_On_80_Vel_94
Time_Shift_2
Note_On_44_Vel_77
Time_Shift_2
Note_On_56_Vel_69
Time_Shift_55
Note_On_56_Vel_0
Time_Shift_8
Sustain_On
Time_Shift_192
Note_On_44_Vel_0
Time_Shift_6
Note_On_72_Vel_90
Time_Shift_2
Note_On_60_Vel_82
Time_Shift_1
Note_On_51_Vel_81
Time_Shift_2
Note_On_56_Vel_80
Note_On_44_Vel_79
Time_Shift_6
Note_On_68_Vel_77
Time_Shift_6
Note_On_68_Vel_0
Time_Shift_261
Note_On_80_Vel_0
Time_Shift_5
Note_On_80_Vel_80
Note_On_68_Vel_93
Time_Shift_35
Sustain_Off
Note_On_56_Vel_0
Time_Shift_1
Note_On_44_Vel_0
Time_Shift_1
Note_On_51_Vel_0
Note_On_72_Vel_0
Note_On_60_Vel_0
Time_Shift_27
Note_On_80_Vel_0
Time_Shift_28
Note_On_68_Vel_0
Time_Shift_129
Note_On_80_Vel_83
Note_On_56_Vel_78
Time_Shift_1
Note_On_68_Vel_91
Time_Shift_42
Sustain_On
Time_Shift_146
Note_On_68_Vel_0
Note_On_80_Vel_0
Time_Shift_7
Note_On_56_Vel_0
Time_Shift_1
Note_On_80_Vel_84
Time_Shift_2
Note_On_66_Vel_77
Note_On_68_Vel_87
Time_Shift_1
Note_On_63_Vel_73
Note_On_60_Vel_70
Time_Shift_1
Note_On_51_Vel_61
Note_On_56_Vel_62
Time_Shift_72
Note_On_68_Vel_0
Time_Shift_7
Note_On_68_Vel_86
Time_Shift_47
Note_On_63_Vel_0
Time_Shift_7
Note_On_51_Vel_0
Note_On_56_Vel_0
Note_On_60_Vel_0
Note_On_66_Vel_0
Note_On_68_Vel_0
Time_Shift_3
Note_On_63_Vel_82
Time_Shift_2
Note_On_66_Vel_75
Time_Shift_1
Note_On_51_Vel_73
Time_Shift_2
Note_On_60_Vel_73
Time_Shift_1
Note_On_56_Vel_74
Time_Shift_3
Note_On_68_Vel_85
Time_Shift_48
Sustain_Off
Note_On_56_Vel_0
Time_Shift_3
Note_On_51_Vel_0
Time_Shift_3
Note_On_63_Vel_0
Note_On_80_Vel_0
Time_Shift_4
Note_On_60_Vel_0
Note_On_68_Vel_0
Time_Shift_1
Note_On_66_Vel_0
Time_Shift_135
Note_On_80_Vel_81
Note_On_49_Vel_79
Time_Shift_1
Note_On_68_Vel_87
Time_Shift_2
Note_On_61_Vel_71
Time_Shift_7
Note_On_61_Vel_0
Time_Shift_30
Sustain_On
Time_Shift_141
Note_On_73_Vel_85
Time_Shift_5
Note_On_68_Vel_0
Time_Shift_4
Note_On_61_Vel_65
Time_Shift_3
Note_On_68_Vel_54
Time_Shift_1
Note_On_65_Vel_58
Time_Shift_8
Note_On_80_Vel_0
Time_Shift_42
Note_On_77_Vel_87
Time_Shift_7
Note_On_65_Vel_0
Time_Shift_1
Note_On_61_Vel_0
Note_On_68_Vel_0
Time_Shift_1
Note_On_73_Vel_0
Sustain_Off
Time_Shift_10
Note_On_49_Vel_0
Time_Shift_57
Note_On_80_Vel_91
Time_Shift_1
Note_On_65_Vel_69
Time_Shift_6
Note_On_61_Vel_75
Time_Shift_1
Note_On_56_Vel_53
Time_Shift_21
Note_On_65_Vel_0
Time_Shift_2
Note_On_77_Vel_0
Time_Shift_7
Note_On_61_Vel_0
Time_Shift_28
Note_On_56_Vel_0
Time_Shift_15
Note_On_80_Vel_0
Time_Shift_105
Note_On_56_Vel_81
Time_Shift_2
Note_On_75_Vel_94
Time_Shift_3
Note_On_87_Vel_83
Time_Shift_1
Note_On_68_Vel_76
Time_Shift_20
Sustain_On
Time_Shift_5
Note_On_56_Vel_0
Time_Shift_4
Note_On_68_Vel_0
Time_Shift_3
Note_On_87_Vel_0
Time_Shift_126
Note_On_75_Vel_0
Time_Shift_1
Note_On_80_Vel_85
Time_Shift_20
Note_On_56_Vel_63
Time_Shift_4
Note_On_66_Vel_68
Time_Shift_1
Note_On_60_Vel_71
Time_Shift_43
Note_On_66_Vel_0
Sustain_Off
Time_Shift_1
Note_On_56_Vel_0
Time_Shift_3
Note_On_60_Vel_0
Note_On_75_Vel_86
Note_On_80_Vel_0
Time_Shift_75
Note_On_68_Vel_81
Time_Shift_25
Note_On_56_Vel_79
Time_Shift_4
Note_On_75_Vel_0
Time_Shift_28
Note_On_56_Vel_0
Time_Shift_11
Note_On_68_Vel_0
Time_Shift_125
Note_On_49_Vel_74
Time_Shift_5
Note_On_73_Vel_91
Time_Shift_7
Sustain_On
Time_Shift_168
Note_On_61_Vel_70
Time_Shift_2
Note_On_68_Vel_78
Time_Shift_1
Note_On_65_Vel_65
Time_Shift_58
Sustain_Off
Note_On_65_Vel_0
Time_Shift_2
Note_On_73_Vel_0
Note_On_61_Vel_0
Time_Shift_1
Note_On_49_Vel_0
Time_Shift_2
Note_On_68_Vel_0
Time_Shift_1
Note_On_73_Vel_86
Time_Shift_82
Note_On_77_Vel_91
Time_Shift_3
Note_On_56_Vel_77
Time_Shift_23
Note_On_73_Vel_0
Time_Shift_15
Note_On_77_Vel_0
Time_Shift_1
Note_On_56_Vel_0
Time_Shift_143
Note_On_56_Vel_75
Time_Shift_7
Note_On_68_Vel_80
Time_Shift_14
Sustain_On
Time_Shift_69
Note_On_68_Vel_0
Time_Shift_10
Note_On_68_Vel_85
Time_Shift_64
Note_On_66_Vel_76
Time_Shift_2
Note_On_56_Vel_0
Note_On_68_Vel_0
Time_Shift_5
Note_On_63_Vel_68
Time_Shift_5
Note_On_54_Vel_63
Note_On_60_Vel_62
Time_Shift_1
Note_On_68_Vel_80
Time_Shift_1
Note_On_56_Vel_62
Time_Shift_15
Sustain_Off
Time_Shift_8
Note_On_66_Vel_0
Time_Shift_3
Note_On_56_Vel_0
Time_Shift_3
Note_On_54_Vel_0
Time_Shift_1
Note_On_63_Vel_0
Time_Shift_1
Note_On_60_Vel_0
Time_Shift_34
Note_On_68_Vel_0
Time_Shift_10
Note_On_68_Vel_64
Time_Shift_75
Note_On_68_Vel_0
Time_Shift_10
Note_On_54_Vel_69
Note_On_68_Vel_90
Note_On_66_Vel_71
Note_On_63_Vel_65
Time_Shift_1
Note_On_56_Vel_71
Note_On_60_Vel_69
Time_Shift_29
Note_On_54_Vel_0
Time_Shift_2
Note_On_60_Vel_0
Time_Shift_1
Note_On_63_Vel_0
Note_On_56_Vel_0
Time_Shift_34
Note_On_68_Vel_0
Time_Shift_23
Note_On_66_Vel_0
Time_Shift_87
Note_On_49_Vel_72
Time_Shift_20
Note_On_73_Vel_91
Time_Shift_8
Sustain_On
Time_Shift_72
Note_On_68_Vel_79
Time_Shift_66
Note_On_73_Vel_0
Time_Shift_9
Note_On_73_Vel_83
Time_Shift_9
Note_On_65_Vel_62
Time_Shift_1
Note_On_61_Vel_67
Time_Shift_16
Sustain_Off
Time_Shift_6
Note_On_49_Vel_0
Time_Shift_1
Note_On_68_Vel_0
Time_Shift_1
Note_On_61_Vel_0
Note_On_73_Vel_0
Time_Shift_3
Note_On_65_Vel_0
Time_Shift_27
Note_On_77_Vel_87
Time_Shift_98
Note_On_80_Vel_88
Time_Shift_2
Note_On_77_Vel_0
Time_Shift_13
Note_On_56_Vel_83
Time_Shift_1
Note_On_68_Vel_75
Time_Shift_1
Note_On_75_Vel_57
Time_Shift_42
Note_On_56_Vel_0
Note_On_68_Vel_0
Note_On_75_Vel_0
Time_Shift_100
Note_On_80_Vel_0
Time_Shift_34
Note_On_44_Vel_79
Time_Shift_6
Note_On_75_Vel_86
Time_Shift_29
Sustain_On
Time_Shift_150
Note_On_80_Vel_82
Time_Shift_3
Note_On_60_Vel_74
Time_Shift_4
Note_On_66_Vel_72
Time_Shift_33
Note_On_44_Vel_0
Time_Shift_6
Note_On_66_Vel_0
Note_On_60_Vel_0
Time_Shift_1
Sustain_Off
Time_Shift_11
Note_On_75_Vel_0
Time_Shift_10
Note_On_75_Vel_83
Time_Shift_36
Note_On_80_Vel_0
Time_Shift_30
Note_On_75_Vel_0
Time_Shift_15
Note_On_68_Vel_83
Time_Shift_2
Note_On_56_Vel_80
Time_Shift_45
Note_On_56_Vel_0
Time_Shift_100
Note_On_68_Vel_0
Time_Shift_52
Note_On_49_Vel_71
Time_Shift_5
Note_On_73_Vel_87
Time_Shift_27
Sustain_On
Time_Shift_162
Note_On_73_Vel_0
Time_Shift_11
Note_On_73_Vel_61
Note_On_68_Vel_51
Time_Shift_1
Note_On_65_Vel_60
Time_Shift_1
Note_On_61_Vel_65
Time_Shift_91
Sustain_Off
Time_Shift_2
Note_On_61_Vel_0
Time_Shift_1
Note_On_68_Vel_0
Note_On_65_Vel_0
Time_Shift_8
Note_On_49_Vel_0
Time_Shift_7
Note_On_73_Vel_0
Time_Shift_71
Note_On_65_Vel_56
Time_Shift_33
Note_On_65_Vel_0
Time_Shift_48
Note_On_66_Vel_67
Time_Shift_57
Note_On_66_Vel_0
Time_Shift_41
Note_On_68_Vel_76
Note_On_56_Vel_73
Time_Shift_12
Sustain_On
Time_Shift_38
Note_On_56_Vel_0
Time_Shift_131
Note_On_68_Vel_0
Time_Shift_3
Note_On_56_Vel_63
Note_On_66_Vel_66
Time_Shift_1
Note_On_68_Vel_80
Note_On_60_Vel_64
Time_Shift_1
Note_On_63_Vel_66
Time_Shift_18
Sustain_Off
Time_Shift_11
Note_On_66_Vel_0
Note_On_63_Vel_0
Note_On_56_Vel_0
Time_Shift_1
Note_On_60_Vel_0
Time_Shift_41
Note_On_68_Vel_0
Time_Shift_10
Note_On_68_Vel_74
Time_Shift_59
Note_On_68_Vel_0
Time_Shift_2
Note_On_66_Vel_74
Time_Shift_2
Note_On_63_Vel_62
Time_Shift_3
Note_On_68_Vel_87
Time_Shift_5
Note_On_56_Vel_70
Time_Shift_5
Note_On_60_Vel_58
Time_Shift_18
Note_On_63_Vel_0
Time_Shift_1
Note_On_68_Vel_0
Time_Shift_1
Note_On_60_Vel_0
Time_Shift_1
Note_On_56_Vel_0
Time_Shift_32
Note_On_66_Vel_0
Time_Shift_118
Note_On_68_Vel_80
Note_On_49_Vel_73
Time_Shift_4
Note_On_61_Vel_65
Time_Shift_23
Sustain_On
Time_Shift_158
Note_On_68_Vel_0
Note_On_49_Vel_0
Time_Shift_2
Sustain_Off
Time_Shift_2
Note_On_61_Vel_0
Time_Shift_5
Note_On_73_Vel_81
Time_Shift_4
Note_On_61_Vel_64
Time_Shift_1
Note_On_65_Vel_56
Time_Shift_20
Note_On_61_Vel_0
Note_On_65_Vel_0
Time_Shift_24
Note_On_73_Vel_0
Time_Shift_14
Note_On_77_Vel_87
Time_Shift_81
Note_On_77_Vel_0
Time_Shift_8
Note_On_56_Vel_79
Note_On_80_Vel_87
Time_Shift_24
Note_On_56_Vel_0
Time_Shift_7
Note_On_80_Vel_0
Time_Shift_140
Note_On_44_Vel_74
Time_Shift_5
Note_On_75_Vel_86
Time_Shift_2
Note_On_87_Vel_75
Time_Shift_26
Sustain_On
Time_Shift_150
Sustain_Off
Note_On_75_Vel_0
Note_On_87_Vel_0
Time_Shift_2
Note_On_66_Vel_72
Time_Shift_2
Note_On_44_Vel_0
Time_Shift_3
Note_On_60_Vel_70
Time_Shift_1
Note_On_80_Vel_82
Time_Shift_29
Note_On_60_Vel_0
Time_Shift_12
Note_On_66_Vel_0
Time_Shift_29
Note_On_75_Vel_80
Time_Shift_17
Note_On_80_Vel_0
Time_Shift_32
Note_On_75_Vel_0
Time_Shift_26
Note_On_56_Vel_82
Time_Shift_3
Note_On_68_Vel_80
Time_Shift_28
Note_On_56_Vel_0
Time_Shift_19
Note_On_68_Vel_0
Time_Shift_124
Note_On_49_Vel_71
Time_Shift_11
Note_On_73_Vel_89
Time_Shift_11
Sustain_On
Time_Shift_167
Note_On_65_Vel_60
Time_Shift_5
Note_On_61_Vel_64
Note_On_68_Vel_76
Time_Shift_2
Note_On_73_Vel_0
Time_Shift_5
Sustain_Off
Time_Shift_13
Note_On_49_Vel_0
Time_Shift_4
Note_On_61_Vel_0
Time_Shift_1
Note_On_65_Vel_0
Time_Shift_30
Note_On_68_Vel_0
Time_Shift_18
Note_On_73_Vel_90
Time_Shift_80
Note_On_77_Vel_88
Note_On_56_Vel_77
Time_Shift_10
Note_On_73_Vel_0
Time_Shift_26
Note_On_77_Vel_0
Time_Shift_1
Note_On_56_Vel_0
Time_Shift_137
Sustain_On
Time_Shift_3
Note_On_56_Vel_77
Time_Shift_3
Note_On_68_Vel_86
Time_Shift_86
Note_On_68_Vel_0
Time_Shift_10
Note_On_68_Vel_86
Time_Shift_40
Note_On_56_Vel_0
Time_Shift_5
Sustain_Off
Time_Shift_22
Note_On_68_Vel_0
Time_Shift_3
Note_On_60_Vel_79
Note_On_54_Vel_66
Time_Shift_2
Note_On_68_Vel_80
Note_On_66_Vel_70
Time_Shift_28
Note_On_54_Vel_0
Note_On_60_Vel_0
Time_Shift_21
Note_On_66_Vel_0
Note_On_68_Vel_0
Time_Shift_39
Note_On_68_Vel_81
Time_Shift_68
Note_On_68_Vel_0
Time_Shift_1
Note_On_54_Vel_66
Time_Shift_4
Note_On_60_Vel_74
Time_Shift_2
Note_On_68_Vel_86
Time_Shift_1
Note_On_56_Vel_75
Time_Shift_27
Note_On_54_Vel_0
Time_Shift_1
Note_On_60_Vel_0
Time_Shift_2
Note_On_56_Vel_0
Time_Shift_47
Note_On_68_Vel_0
Time_Shift_102
Note_On_49_Vel_72
Time_Shift_16
Note_On_73_Vel_83
Time_Shift_12
Sustain_On
Time_Shift_67
Note_On_68_Vel_74
Time_Shift_72
Note_On_73_Vel_0
Time_Shift_10
Note_On_73_Vel_84
Time_Shift_1
Note_On_61_Vel_62
Time_Shift_7
Note_On_65_Vel_60
Time_Shift_8
Sustain_Off
Time_Shift_1
Note_On_49_Vel_0
Note_On_68_Vel_0
Time_Shift_11
Note_On_61_Vel_0
Time_Shift_4
Note_On_65_Vel_0
Time_Shift_27
Note_On_73_Vel_0
Time_Shift_7
Note_On_77_Vel_86
Time_Shift_88
Note_On_77_Vel_0
Time_Shift_8
Note_On_80_Vel_92
Time_Shift_2
Note_On_56_Vel_81
Time_Shift_30
Note_On_56_Vel_0
Time_Shift_162
Note_On_44_Vel_64
Time_Shift_6
Note_On_75_Vel_83
Time_Shift_27
Sustain_On
Time_Shift_161
Note_On_80_Vel_0
Time_Shift_5
Note_On_80_Vel_82
Time_Shift_6
Note_On_66_Vel_71
Time_Shift_6
Note_On_60_Vel_64
Time_Shift_18
Sustain_Off
Time_Shift_6
Note_On_66_Vel_0
Time_Shift_4
Note_On_60_Vel_0
Time_Shift_1
Note_On_44_Vel_0
Time_Shift_31
Note_On_75_Vel_0
Time_Shift_5
Note_On_75_Vel_71
Time_Shift_3
Note_On_80_Vel_0
Time_Shift_81
Note_On_75_Vel_0
Time_Shift_1
Note_On_56_Vel_74
Time_Shift_5
Note_On_68_Vel_77
Time_Shift_24
Note_On_56_Vel_0
Time_Shift_204
Note_On_68_Vel_0
Time_Shift_32
Note_On_65_Vel_62
Time_Shift_2
Note_On_73_Vel_75
Time_Shift_3
Note_On_61_Vel_54
Time_Shift_20
Note_On_65_Vel_0
Time_Shift_12
Sustain_On
Time_Shift_30
Note_On_61_Vel_0
Time_Shift_289
Note_On_49_Vel_53
Time_Shift_349
Note_On_73_Vel_0
Time_Shift_6
Note_On_73_Vel_73
Time_Shift_312
Sustain_Off
Note_On_49_Vel_0
Time_Shift_28
Note_On_73_Vel_0
Time_Shift_4
Note_On_73_Vel_60
Time_Shift_6
Note_On_43_Vel_54
Time_Shift_51
Sustain_On
Time_Shift_15
Note_On_43_Vel_0
Time_Shift_43
Note_On_72_Vel_65
Time_Shift_92
Sustain_Off
Time_Shift_6
Note_On_73_Vel_0
Time_Shift_1
Note_On_72_Vel_0
Time_Shift_1
Note_On_75_Vel_61
Time_Shift_2
Note_On_63_Vel_60
Time_Shift_3
Note_On_51_Vel_59
Time_Shift_2
Note_On_70_Vel_56
Time_Shift_4
Note_On_70_Vel_0
Time_Shift_5
Note_On_58_Vel_53
Time_Shift_23
Note_On_63_Vel_0
Time_Shift_6
Note_On_51_Vel_0
Time_Shift_1
Note_On_58_Vel_0
Time_Shift_30
Note_On_73_Vel_75
Time_Shift_27
Note_On_75_Vel_0
Time_Shift_4
Note_On_73_Vel_0
Time_Shift_54
Note_On_58_Vel_63
Time_Shift_3
Note_On_51_Vel_59
Time_Shift_3
Note_On_61_Vel_58
Time_Shift_2
Note_On_84_Vel_77
Time_Shift_23
Note_On_58_Vel_0
Time_Shift_1
Note_On_51_Vel_0
Time_Shift_18
Note_On_61_Vel_0
Time_Shift_20
Note_On_84_Vel_0
Time_Shift_13
Note_On_82_Vel_80
Time_Shift_70
Note_On_73_Vel_80
Time_Shift_13
Note_On_43_Vel_50
Time_Shift_3
Note_On_82_Vel_0
Time_Shift_34
Sustain_On
Time_Shift_30
Note_On_72_Vel_78
Time_Shift_32
Note_On_43_Vel_0
Time_Shift_48
Note_On_51_Vel_69
Time_Shift_2
Note_On_61_Vel_65
Note_On_75_Vel_68
Time_Shift_3
Note_On_58_Vel_66
Time_Shift_41
Note_On_58_Vel_0
Note_On_72_Vel_0
Time_Shift_1
Note_On_75_Vel_0
Sustain_Off
Time_Shift_1
Note_On_61_Vel_0
Note_On_51_Vel_0
Time_Shift_19
Note_On_73_Vel_0
Time_Shift_6
Note_On_73_Vel_77
Time_Shift_46
Note_On_73_Vel_0
Time_Shift_33
Note_On_84_Vel_78
Time_Shift_4
Note_On_51_Vel_65
Time_Shift_6
Note_On_58_Vel_60
Time_Shift_35
Note_On_58_Vel_0
Time_Shift_1
Note_On_51_Vel_0
Time_Shift_20
Note_On_84_Vel_0
Time_Shift_5
Note_On_82_Vel_79
Time_Shift_63
Note_On_82_Vel_0
Time_Shift_23
Note_On_72_Vel_75
Time_Shift_1
Note_On_44_Vel_61
Time_Shift_34
Note_On_44_Vel_0
Time_Shift_38
Sustain_On
Time_Shift_15
Note_On_71_Vel_72
Time_Shift_69
Note_On_73_Vel_78
Time_Shift_10
Note_On_51_Vel_63
Time_Shift_9
Note_On_56_Vel_57
Note_On_60_Vel_52
Time_Shift_43
Note_On_71_Vel_0
Time_Shift_1
Sustain_Off
Time_Shift_2
Note_On_51_Vel_0
Note_On_60_Vel_0
Note_On_56_Vel_0
Time_Shift_1
Note_On_73_Vel_0
Time_Shift_11
Note_On_72_Vel_0
Time_Shift_4
Note_On_72_Vel_70
Time_Shift_67
Note_On_72_Vel_0
Time_Shift_9
Note_On_60_Vel_65
Time_Shift_1
Note_On_51_Vel_66
Time_Shift_4
Note_On_56_Vel_65
Time_Shift_2
Note_On_82_Vel_79
Time_Shift_25
Note_On_60_Vel_0
Time_Shift_3
Note_On_56_Vel_0
Time_Shift_8
Note_On_51_Vel_0
Time_Shift_44
Note_On_80_Vel_78
Time_Shift_9
Note_On_82_Vel_0
Time_Shift_47
Note_On_80_Vel_0
Time_Shift_12
Note_On_44_Vel_69
Time_Shift_6
Note_On_72_Vel_78
Time_Shift_43
Sustain_On
Time_Shift_35
Note_On_71_Vel_80
Time_Shift_73
Note_On_44_Vel_0
Time_Shift_2
Note_On_73_Vel_86
Time_Shift_7
Note_On_44_Vel_61
Time_Shift_9
Note_On_51_Vel_58
Time_Shift_34
Sustain_Off
Time_Shift_5
Note_On_71_Vel_0
Time_Shift_1
Note_On_44_Vel_0
Time_Shift_1
Note_On_51_Vel_0
Time_Shift_6
Note_On_73_Vel_0
Time_Shift_4
Note_On_72_Vel_0
Time_Shift_7
Note_On_72_Vel_78
Time_Shift_1
Note_On_84_Vel_73
Time_Shift_72
Note_On_72_Vel_0
Time_Shift_6
Note_On_84_Vel_0
Time_Shift_2
Note_On_56_Vel_66
Note_On_51_Vel_65
Time_Shift_3
Note_On_82_Vel_79
Time_Shift_38
Note_On_56_Vel_0
Time_Shift_5
Note_On_51_Vel_0
Time_Shift_28
Note_On_80_Vel_82
Time_Shift_34
Note_On_82_Vel_0
Time_Shift_38
Note_On_80_Vel_0
Time_Shift_1
Note_On_39_Vel_83
Time_Shift_29
Note_On_70_Vel_85
Time_Shift_28
Sustain_On
Time_Shift_35
Note_On_81_Vel_77
Time_Shift_3
Note_On_69_Vel_85
Time_Shift_66
Note_On_61_Vel_77
Time_Shift_6
Note_On_58_Vel_76
Time_Shift_1
Note_On_51_Vel_65
Note_On_55_Vel_71
Time_Shift_8
Note_On_72_Vel_77
Note_On_70_Vel_0
Note_On_69_Vel_0
Time_Shift_1
Sustain_Off
Time_Shift_18
Note_On_81_Vel_0
Time_Shift_8
Note_On_39_Vel_0
Time_Shift_20
Note_On_61_Vel_0
Time_Shift_1
Note_On_72_Vel_0
Time_Shift_2
Note_On_58_Vel_0
Time_Shift_11
Note_On_55_Vel_0
Time_Shift_8
Note_On_70_Vel_81
Time_Shift_11
Note_On_51_Vel_0
Time_Shift_28
Note_On_70_Vel_0
Time_Shift_36
Note_On_55_Vel_70
Time_Shift_10
Note_On_58_Vel_69
Time_Shift_4
Note_On_73_Vel_83
Time_Shift_6
Note_On_51_Vel_38
Time_Shift_25
Note_On_55_Vel_0
Time_Shift_2
Note_On_58_Vel_0
Time_Shift_12
Note_On_51_Vel_0
Time_Shift_17
Note_On_73_Vel_0
Time_Shift_13
Note_On_72_Vel_82
Time_Shift_57
Note_On_39_Vel_72
Time_Shift_17
Note_On_72_Vel_0
Time_Shift_1
Note_On_75_Vel_81
Time_Shift_19
Note_On_39_Vel_0
Time_Shift_53
Sustain_On
Note_On_73_Vel_88
Time_Shift_76
Note_On_51_Vel_74
Time_Shift_3
Note_On_61_Vel_63
Time_Shift_3
Note_On_58_Vel_70
Time_Shift_6
Note_On_79_Vel_89
Time_Shift_30
Note_On_73_Vel_0
Time_Shift_1
Note_On_51_Vel_0
Time_Shift_1
Note_On_58_Vel_0
Time_Shift_2
Note_On_61_Vel_0
Time_Shift_1
Note_On_75_Vel_0
Time_Shift_3
Sustain_Off
Time_Shift_30
Note_On_77_Vel_89
Time_Shift_20
Note_On_79_Vel_0
Time_Shift_63
Note_On_73_Vel_82
Note_On_61_Vel_66
Time_Shift_1
Note_On_51_Vel_72
Note_On_58_Vel_70
Time_Shift_11
Note_On_77_Vel_0
Time_Shift_19
Note_On_58_Vel_0
Time_Shift_16
Note_On_73_Vel_0
Time_Shift_13
Note_On_51_Vel_0
Time_Shift_4
Note_On_67_Vel_80
Time_Shift_12
Note_On_61_Vel_0
Time_Shift_26
Note_On_67_Vel_0
Time_Shift_39
Note_On_44_Vel_66
Time_Shift_5
Note_On_68_Vel_78
Time_Shift_32
Note_On_44_Vel_0
Time_Shift_28
Sustain_On
Time_Shift_20
Note_On_81_Vel_73
Time_Shift_2
Note_On_69_Vel_79
Time_Shift_9
Note_On_81_Vel_0
Time_Shift_60
Note_On_70_Vel_79
Time_Shift_9
Note_On_60_Vel_63
Time_Shift_10
Note_On_56_Vel_57
Time_Shift_1
Note_On_51_Vel_60
Time_Shift_1
Note_On_44_Vel_61
Time_Shift_36
Sustain_Off
Note_On_69_Vel_0
Time_Shift_2
Note_On_70_Vel_0
Note_On_44_Vel_0
Time_Shift_1
Note_On_60_Vel_0
Time_Shift_1
Note_On_51_Vel_0
Time_Shift_2
Note_On_68_Vel_0
Time_Shift_3
Note_On_56_Vel_0
Time_Shift_8
Note_On_71_Vel_76
Time_Shift_72
Note_On_71_Vel_0
Time_Shift_17
Note_On_72_Vel_78
Time_Shift_1
Note_On_56_Vel_68
Time_Shift_1
Note_On_51_Vel_64
Time_Shift_1
Note_On_60_Vel_63
Time_Shift_31
Note_On_60_Vel_0
Time_Shift_2
Note_On_56_Vel_0
Time_Shift_5
Note_On_51_Vel_0
Time_Shift_39
Note_On_72_Vel_0
Note_On_68_Vel_69
Time_Shift_77
Note_On_68_Vel_0
Time_Shift_11
Note_On_44_Vel_66
Time_Shift_1
Note_On_63_Vel_69
Time_Shift_38
Sustain_On
Time_Shift_135
Note_On_51_Vel_59
Time_Shift_5
Note_On_60_Vel_56
Time_Shift_1
Note_On_56_Vel_51
Time_Shift_32
Note_On_63_Vel_0
Time_Shift_1
Sustain_Off
Note_On_60_Vel_0
Time_Shift_1
Note_On_51_Vel_0
Time_Shift_4
Note_On_56_Vel_0
Time_Shift_5
Note_On_44_Vel_0
Time_Shift_97
Note_On_56_Vel_65
Note_On_60_Vel_58
Note_On_72_Vel_73
Time_Shift_7
Note_On_68_Vel_62
Note_On_51_Vel_62
Time_Shift_21
Note_On_60_Vel_0
Time_Shift_2
Note_On_56_Vel_0
Time_Shift_3
Note_On_72_Vel_0
Note_On_51_Vel_0
Time_Shift_3
Note_On_68_Vel_0
Time_Shift_140
Note_On_43_Vel_61
Time_Shift_1
Note_On_73_Vel_65
Time_Shift_30
Note_On_43_Vel_0
Time_Shift_19
Sustain_On
Time_Shift_55
Note_On_72_Vel_67
Time_Shift_71
Note_On_75_Vel_77
Time_Shift_2
Note_On_51_Vel_60
Time_Shift_5
Note_On_61_Vel_56
Time_Shift_5
Note_On_61_Vel_0
Time_Shift_12
Note_On_58_Vel_53
Time_Shift_50
Note_On_73_Vel_0
Time_Shift_4
Note_On_73_Vel_76
Time_Shift_19
Note_On_58_Vel_0
Time_Shift_2
Sustain_Off
Time_Shift_1
Note_On_51_Vel_0
Note_On_72_Vel_0
Time_Shift_1
Note_On_75_Vel_0
Time_Shift_26
Note_On_73_Vel_0
Time_Shift_26
Note_On_84_Vel_88
Note_On_58_Vel_69
Time_Shift_2
Note_On_51_Vel_63
Time_Shift_44
Note_On_51_Vel_0
Time_Shift_1
Note_On_58_Vel_0
Time_Shift_31
Note_On_84_Vel_0
Time_Shift_3
Note_On_82_Vel_82
Time_Shift_58
Note_On_73_Vel_79
Time_Shift_1
Note_On_43_Vel_72
Time_Shift_16
Note_On_82_Vel_0
Time_Shift_18
Note_On_43_Vel_0
Time_Shift_31
Sustain_On
Time_Shift_13
Note_On_72_Vel_79
Time_Shift_76
Note_On_75_Vel_79
Time_Shift_7
Note_On_51_Vel_70
Time_Shift_1
Note_On_61_Vel_66
Time_Shift_2
Note_On_58_Vel_68
Time_Shift_54
Note_On_73_Vel_0
Time_Shift_12
Note_On_73_Vel_77
Time_Shift_19
Note_On_72_Vel_0
Time_Shift_2
Note_On_51_Vel_0
Note_On_75_Vel_0
Note_On_58_Vel_0
Time_Shift_5
Note_On_61_Vel_0
Time_Shift_2
Sustain_Off
Time_Shift_22
Note_On_73_Vel_0
Time_Shift_28
Note_On_51_Vel_68
Time_Shift_2
Note_On_58_Vel_62
Time_Shift_4
Note_On_84_Vel_83
Time_Shift_38
Note_On_51_Vel_0
Time_Shift_28
Note_On_58_Vel_0
Time_Shift_4
Note_On_84_Vel_0
Time_Shift_6
Note_On_82_Vel_81
Time_Shift_62
Note_On_82_Vel_0
Time_Shift_7
Note_On_44_Vel_77
Time_Shift_4
Note_On_72_Vel_76
Time_Shift_55
Sustain_On
Time_Shift_31
Note_On_71_Vel_77
Time_Shift_72
Note_On_51_Vel_76
Note_On_73_Vel_77
Time_Shift_8
Note_On_56_Vel_63
Time_Shift_1
Note_On_60_Vel_59
Time_Shift_57
Note_On_72_Vel_0
Time_Shift_6
Note_On_72_Vel_81
Time_Shift_8
Sustain_Off
Time_Shift_2
Note_On_60_Vel_0
Time_Shift_1
Note_On_51_Vel_0
Time_Shift_1
Note_On_73_Vel_0
Note_On_56_Vel_0
Note_On_71_Vel_0
Time_Shift_13
Note_On_44_Vel_0
Time_Shift_55
Note_On_52_Vel_82
Time_Shift_2
Note_On_60_Vel_73
Time_Shift_2
Note_On_56_Vel_74
Time_Shift_6
Note_On_82_Vel_85
Time_Shift_27
Note_On_72_Vel_0
Time_Shift_6
Note_On_60_Vel_0
Time_Shift_11
Note_On_52_Vel_0
Time_Shift_35
Note_On_80_Vel_87
Time_Shift_5
Note_On_56_Vel_0
Time_Shift_10
Note_On_82_Vel_0
Time_Shift_59
Note_On_44_Vel_75
Time_Shift_16
Note_On_72_Vel_81
Time_Shift_11
Sustain_On
Time_Shift_63
Note_On_71_Vel_84
Time_Shift_69
Note_On_53_Vel_67
Time_Shift_8
Note_On_56_Vel_66
Time_Shift_2
Note_On_60_Vel_67
Note_On_73_Vel_81
Time_Shift_58
Note_On_72_Vel_0
Time_Shift_7
Note_On_72_Vel_68
Time_Shift_35
Sustain_Off
Time_Shift_7
Note_On_44_Vel_0
Note_On_53_Vel_0
Time_Shift_1
Note_On_56_Vel_0
Note_On_72_Vel_0
Note_On_71_Vel_0
Time_Shift_6
Note_On_73_Vel_0
Time_Shift_13
Note_On_80_Vel_0
Time_Shift_13
Note_On_79_Vel_68
Time_Shift_3
Note_On_60_Vel_0
Time_Shift_4
Note_On_60_Vel_66
Time_Shift_3
Note_On_79_Vel_0
Time_Shift_2
Note_On_53_Vel_64
Time_Shift_2
Note_On_56_Vel_64
Time_Shift_15
Note_On_82_Vel_82
Time_Shift_9
Note_On_60_Vel_0
Time_Shift_12
Note_On_53_Vel_0
Time_Shift_40
Note_On_56_Vel_0
Time_Shift_13
Note_On_80_Vel_80
Time_Shift_17
Note_On_82_Vel_0
Time_Shift_61
Note_On_46_Vel_72
Time_Shift_3
Note_On_80_Vel_0
Time_Shift_4
Note_On_74_Vel_84
Time_Shift_22
Sustain_On
Time_Shift_31
Note_On_46_Vel_0
Time_Shift_40
Note_On_75_Vel_81
Time_Shift_57
Note_On_56_Vel_68
Note_On_58_Vel_69
Time_Shift_4
Note_On_62_Vel_62
Time_Shift_11
Note_On_77_Vel_90
Time_Shift_82
Note_On_79_Vel_85
Time_Shift_2
Note_On_56_Vel_0
Note_On_58_Vel_0
Note_On_75_Vel_0
Note_On_74_Vel_0
Time_Shift_2
Sustain_Off
Time_Shift_1
Note_On_77_Vel_0
Time_Shift_23
Note_On_62_Vel_0
Time_Shift_10
Note_On_62_Vel_51
Time_Shift_17
Note_On_56_Vel_65
Note_On_58_Vel_68
Time_Shift_4
Note_On_79_Vel_0
Time_Shift_17
Note_On_80_Vel_92
Time_Shift_2
Note_On_62_Vel_0
Time_Shift_19
Note_On_58_Vel_0
Time_Shift_3
Note_On_56_Vel_0
Time_Shift_39
Note_On_80_Vel_0
Time_Shift_10
Note_On_81_Vel_91
Time_Shift_50
Note_On_81_Vel_0
Time_Shift_27
Note_On_46_Vel_74
Note_On_82_Vel_94
Time_Shift_40
Sustain_On
Time_Shift_40
Note_On_83_Vel_93
Time_Shift_102
Note_On_86_Vel_94
Note_On_62_Vel_60
Note_On_56_Vel_70
Time_Shift_7
Note_On_58_Vel_67
Time_Shift_69
Note_On_84_Vel_85
Time_Shift_74
Note_On_82_Vel_0
Time_Shift_10
Note_On_82_Vel_83
Time_Shift_6
Note_On_58_Vel_0
Note_On_62_Vel_0
Time_Shift_5
Note_On_58_Vel_64
Time_Shift_2
Note_On_62_Vel_57
Note_On_56_Vel_0
Time_Shift_4
Note_On_56_Vel_54
Time_Shift_49
Note_On_80_Vel_85
Time_Shift_74
Sustain_Off
Time_Shift_2
Note_On_86_Vel_0
Note_On_83_Vel_0
Note_On_84_Vel_0
Note_On_46_Vel_0
Note_On_62_Vel_0
Time_Shift_1
Note_On_56_Vel_0
Time_Shift_1
Note_On_58_Vel_0
Time_Shift_15
Note_On_82_Vel_0
Time_Shift_8
Note_On_80_Vel_0
Time_Shift_10
Note_On_51_Vel_63
Time_Shift_1
Note_On_80_Vel_84
Time_Shift_66
Note_On_79_Vel_86
Time_Shift_7
Note_On_51_Vel_0
Sustain_On
Time_Shift_88
Note_On_55_Vel_63
Note_On_63_Vel_61
Time_Shift_5
Note_On_79_Vel_0
Note_On_58_Vel_61
Time_Shift_4
Note_On_79_Vel_88
Time_Shift_71
Note_On_78_Vel_92
Time_Shift_70
Note_On_55_Vel_0
Note_On_58_Vel_0
Note_On_63_Vel_0
Note_On_78_Vel_0
Time_Shift_7
Note_On_63_Vel_65
Time_Shift_3
Note_On_55_Vel_70
Time_Shift_1
Note_On_78_Vel_74
Time_Shift_1
Note_On_58_Vel_65
Time_Shift_69
Note_On_77_Vel_94
Time_Shift_26
Note_On_80_Vel_0
Note_On_78_Vel_0
Note_On_79_Vel_0
Note_On_63_Vel_0
Time_Shift_4
Sustain_Off
Time_Shift_10
Note_On_77_Vel_0
Time_Shift_2
Note_On_55_Vel_0
Note_On_58_Vel_0
Time_Shift_58
Note_On_77_Vel_84
Time_Shift_5
Note_On_51_Vel_62
Time_Shift_2
Note_On_60_Vel_48
Time_Shift_4
Note_On_60_Vel_0
Time_Shift_16
Sustain_On
Time_Shift_51
Note_On_76_Vel_79
Time_Shift_79
Note_On_76_Vel_0
Time_Shift_10
Note_On_76_Vel_77
Time_Shift_8
Note_On_55_Vel_69
Time_Shift_5
Note_On_51_Vel_0
Time_Shift_7
Note_On_63_Vel_61
Time_Shift_1
Note_On_58_Vel_63
Time_Shift_3
Note_On_51_Vel_54
Time_Shift_61
Note_On_75_Vel_79
Time_Shift_24
Sustain_Off
Time_Shift_2
Note_On_63_Vel_0
Time_Shift_3
Note_On_58_Vel_0
Note_On_76_Vel_0
Time_Shift_2
Note_On_55_Vel_0
Note_On_51_Vel_0
Time_Shift_1
Note_On_77_Vel_0
Time_Shift_2
Note_On_75_Vel_0
Time_Shift_38
Note_On_63_Vel_63
Time_Shift_6
Note_On_75_Vel_83
Note_On_58_Vel_61
Time_Shift_7
Note_On_51_Vel_53
Note_On_55_Vel_55
Time_Shift_25
Note_On_63_Vel_0
Time_Shift_7
Note_On_51_Vel_0
Time_Shift_2
Note_On_75_Vel_0
Time_Shift_4
Note_On_58_Vel_0
Time_Shift_2
Note_On_55_Vel_0
Time_Shift_31
Note_On_74_Vel_74
Time_Shift_34
Note_On_74_Vel_0
Time_Shift_57
Note_On_73_Vel_77
Time_Shift_1
Note_On_43_Vel_50
Time_Shift_26
Sustain_On
Time_Shift_58
Note_On_72_Vel_73
Time_Shift_66
Note_On_75_Vel_82
Time_Shift_2
Note_On_61_Vel_66
Time_Shift_8
Note_On_52_Vel_49
Time_Shift_62
Sustain_Off
Time_Shift_4
Note_On_73_Vel_0
Time_Shift_2
Note_On_43_Vel_0
Note_On_52_Vel_0
Note_On_61_Vel_0
Note_On_72_Vel_0
Note_On_75_Vel_0
Time_Shift_7
Note_On_73_Vel_81
Time_Shift_44
Note_On_73_Vel_0
Time_Shift_21
Note_On_51_Vel_66
Time_Shift_3
Note_On_61_Vel_59
Time_Shift_3
Note_On_84_Vel_86
Time_Shift_32
Note_On_61_Vel_0
Time_Shift_4
Note_On_51_Vel_0
Time_Shift_33
Note_On_84_Vel_0
Time_Shift_12
Note_On_82_Vel_77
Time_Shift_61
Note_On_73_Vel_79
Time_Shift_12
Note_On_82_Vel_0
Time_Shift_7
Note_On_43_Vel_71
Time_Shift_27
Sustain_On
Time_Shift_31
Note_On_72_Vel_80
Time_Shift_84
Note_On_75_Vel_72
Time_Shift_19
Note_On_61_Vel_59
Time_Shift_6
Note_On_51_Vel_61
Time_Shift_6
Note_On_58_Vel_63
Time_Shift_24
Sustain_Off
Time_Shift_2
Note_On_75_Vel_0
Time_Shift_1
Note_On_72_Vel_0
Time_Shift_4
Note_On_73_Vel_0
Time_Shift_3
Note_On_58_Vel_0
Note_On_51_Vel_0
Time_Shift_1
Note_On_61_Vel_0
Time_Shift_1
Note_On_73_Vel_80
Time_Shift_10
Note_On_43_Vel_0
Time_Shift_24
Note_On_73_Vel_0
Time_Shift_53
Note_On_84_Vel_85
Time_Shift_20
Note_On_51_Vel_63
Time_Shift_2
Note_On_58_Vel_59
Time_Shift_36
Note_On_58_Vel_0
Time_Shift_3
Note_On_51_Vel_0
Time_Shift_20
Note_On_82_Vel_81
Time_Shift_3
Note_On_84_Vel_0
Time_Shift_59
Note_On_82_Vel_0
Time_Shift_16
Note_On_72_Vel_75
Time_Shift_7
Note_On_44_Vel_66
Time_Shift_26
Sustain_On
Time_Shift_48
Note_On_71_Vel_79
Time_Shift_77
Note_On_73_Vel_80
Time_Shift_14
Note_On_44_Vel_0
Time_Shift_9
Note_On_60_Vel_55
Time_Shift_1
Note_On_44_Vel_62
Note_On_56_Vel_58
Time_Shift_1
Note_On_51_Vel_59
Time_Shift_31
Sustain_Off
Time_Shift_1
Note_On_71_Vel_0
Time_Shift_7
Note_On_73_Vel_0
Time_Shift_2
Note_On_44_Vel_0
Note_On_60_Vel_0
Time_Shift_2
Note_On_51_Vel_0
Time_Shift_2
Note_On_56_Vel_0
Time_Shift_5
Note_On_72_Vel_0
Time_Shift_8
Note_On_72_Vel_73
Time_Shift_68
Note_On_72_Vel_0
Time_Shift_11
Note_On_60_Vel_60
Time_Shift_2
Note_On_51_Vel_62
Note_On_56_Vel_62
Time_Shift_5
Note_On_82_Vel_80
Time_Shift_31
Note_On_60_Vel_0
Time_Shift_2
Note_On_56_Vel_0
Time_Shift_42
Note_On_51_Vel_0
Time_Shift_10
Note_On_80_Vel_77
Time_Shift_10
Note_On_82_Vel_0
Time_Shift_60
Note_On_80_Vel_0
Time_Shift_1
Note_On_44_Vel_69
Time_Shift_6
Note_On_72_Vel_75
Time_Shift_5
Sustain_On
Time_Shift_75
Note_On_71_Vel_81
Time_Shift_80
Note_On_73_Vel_78
Time_Shift_4
Note_On_51_Vel_66
Time_Shift_6
Note_On_56_Vel_63
Time_Shift_47
Sustain_Off
Time_Shift_2
Note_On_71_Vel_0
Time_Shift_1
Note_On_72_Vel_0
Time_Shift_1
Note_On_73_Vel_0
Time_Shift_1
Note_On_56_Vel_0
Time_Shift_1
Note_On_51_Vel_0
Time_Shift_8
Note_On_72_Vel_73
Time_Shift_12
Note_On_44_Vel_0
Time_Shift_58
Note_On_72_Vel_0
Time_Shift_10
Note_On_60_Vel_62
Time_Shift_6
Note_On_51_Vel_65
Note_On_56_Vel_65
Time_Shift_5
Note_On_82_Vel_79
Time_Shift_29
Note_On_60_Vel_0
Time_Shift_2
Note_On_56_Vel_0
Time_Shift_6
Note_On_51_Vel_0
Time_Shift_33
Note_On_80_Vel_79
Time_Shift_80
Note_On_39_Vel_76
Time_Shift_14
Note_On_70_Vel_83
Time_Shift_3
Sustain_On
Time_Shift_74
Note_On_81_Vel_74
Time_Shift_1
Note_On_69_Vel_84
Time_Shift_61
Note_On_72_Vel_81
Time_Shift_7
Note_On_51_Vel_71
Time_Shift_3
Note_On_61_Vel_70
Time_Shift_1
Note_On_58_Vel_73
Time_Shift_12
Note_On_81_Vel_0
Note_On_69_Vel_0
Time_Shift_3
Sustain_Off
Note_On_80_Vel_0
Time_Shift_1
Note_On_70_Vel_0
Time_Shift_6
Note_On_82_Vel_0
Time_Shift_1
Note_On_39_Vel_0
Time_Shift_9
Note_On_72_Vel_0
Time_Shift_3
Note_On_61_Vel_0
Time_Shift_1
Note_On_58_Vel_0
Time_Shift_4
Note_On_51_Vel_0
Time_Shift_32
Note_On_70_Vel_83
Time_Shift_46
Note_On_70_Vel_0
Time_Shift_38
Note_On_51_Vel_75
Time_Shift_2
Note_On_58_Vel_73
Time_Shift_3
Note_On_73_Vel_82
Time_Shift_28
Note_On_58_Vel_0
Time_Shift_4
Note_On_51_Vel_0
Time_Shift_27
Note_On_73_Vel_0
Time_Shift_15
Note_On_72_Vel_77
Time_Shift_67
Note_On_39_Vel_81
Time_Shift_3
Note_On_75_Vel_87
Time_Shift_12
Note_On_72_Vel_0
Time_Shift_27
Sustain_On
Time_Shift_45
Note_On_73_Vel_84
Time_Shift_75
Note_On_51_Vel_75
Time_Shift_2
Note_On_61_Vel_66
Note_On_58_Vel_73
Time_Shift_5
Note_On_79_Vel_83
Time_Shift_41
Sustain_Off
Note_On_51_Vel_0
Time_Shift_2
Note_On_58_Vel_0
Time_Shift_1
Note_On_75_Vel_0
Time_Shift_1
Note_On_73_Vel_0
Note_On_79_Vel_0
Time_Shift_2
Note_On_61_Vel_0
Time_Shift_3
Note_On_39_Vel_0
Time_Shift_23
Note_On_77_Vel_85
Time_Shift_81
Note_On_77_Vel_0
Time_Shift_7
Note_On_51_Vel_69
Time_Shift_1
Note_On_58_Vel_67
Time_Shift_1
Note_On_73_Vel_76
Time_Shift_30
Note_On_51_Vel_0
Time_Shift_1
Note_On_58_Vel_0
Time_Shift_5
Note_On_73_Vel_0
Time_Shift_34
Note_On_67_Vel_78
Time_Shift_51
Note_On_67_Vel_0
Time_Shift_16
Note_On_44_Vel_67
Time_Shift_23
Note_On_68_Vel_76
Time_Shift_27
Sustain_On
Time_Shift_48
Note_On_69_Vel_80
Time_Shift_70
Note_On_70_Vel_80
Time_Shift_4
Note_On_44_Vel_0
Time_Shift_3
Note_On_60_Vel_60
Time_Shift_3
Note_On_44_Vel_64
Time_Shift_1
Note_On_56_Vel_63
Time_Shift_2
Note_On_51_Vel_64
Time_Shift_26
Note_On_69_Vel_0
Time_Shift_3
Sustain_Off
Time_Shift_5
Note_On_68_Vel_0
Time_Shift_2
Note_On_70_Vel_0
Note_On_44_Vel_0
Time_Shift_2
Note_On_60_Vel_0
Time_Shift_3
Note_On_51_Vel_0
Time_Shift_8
Note_On_56_Vel_0
Time_Shift_11
Note_On_71_Vel_76
Time_Shift_87
Note_On_71_Vel_0
Time_Shift_2
Note_On_72_Vel_78
Time_Shift_4
Note_On_60_Vel_60
Time_Shift_1
Note_On_51_Vel_65
Note_On_56_Vel_65
Time_Shift_31
Note_On_60_Vel_0
Time_Shift_2
Note_On_56_Vel_0
Time_Shift_1
Note_On_51_Vel_0
Time_Shift_39
Note_On_68_Vel_73
Time_Shift_1
Note_On_72_Vel_0
Time_Shift_85
Note_On_68_Vel_0
Time_Shift_8
Note_On_63_Vel_71
Time_Shift_2
Note_On_44_Vel_71
Time_Shift_22
Sustain_On
Time_Shift_146
Note_On_44_Vel_0
Time_Shift_5
Note_On_44_Vel_61
Time_Shift_1
Note_On_60_Vel_63
Time_Shift_5
Note_On_56_Vel_56
Note_On_51_Vel_54
Time_Shift_43
Note_On_60_Vel_0
Note_On_44_Vel_0
Time_Shift_1
Note_On_63_Vel_0
Note_On_51_Vel_0
Time_Shift_1
Sustain_Off
Time_Shift_1
Note_On_56_Vel_0
Time_Shift_117
Note_On_72_Vel_70
Time_Shift_1
Note_On_56_Vel_52
Time_Shift_1
Note_On_60_Vel_49
Time_Shift_2
Note_On_51_Vel_50
Time_Shift_27
Note_On_56_Vel_0
Note_On_72_Vel_0
Time_Shift_4
Note_On_51_Vel_0
Time_Shift_13
Note_On_60_Vel_0
Time_Shift_121
Note_On_43_Vel_63
Time_Shift_3
Note_On_73_Vel_66
Time_Shift_28
Note_On_43_Vel_0
Time_Shift_25
Sustain_On
Time_Shift_42
Note_On_72_Vel_68
Time_Shift_70
Note_On_75_Vel_74
Time_Shift_1
Note_On_51_Vel_63
Time_Shift_3
Note_On_61_Vel_64
Time_Shift_10
Note_On_55_Vel_44
Time_Shift_5
Note_On_55_Vel_0
Time_Shift_46
Note_On_73_Vel_0
Time_Shift_8
Note_On_73_Vel_75
Time_Shift_64
Note_On_72_Vel_0
Note_On_61_Vel_0
Note_On_73_Vel_0
Time_Shift_1
Note_On_75_Vel_0
Time_Shift_1
Sustain_Off
Time_Shift_10
Note_On_51_Vel_0
Time_Shift_5
Note_On_84_Vel_87
Time_Shift_1
Note_On_51_Vel_64
Time_Shift_5
Note_On_58_Vel_68
Time_Shift_33
Note_On_51_Vel_0
Time_Shift_5
Note_On_58_Vel_0
Time_Shift_39
Note_On_82_Vel_80
Time_Shift_33
Note_On_84_Vel_0
Time_Shift_44
Note_On_73_Vel_73
Note_On_43_Vel_72
Time_Shift_15
Note_On_82_Vel_0
Time_Shift_21
Note_On_43_Vel_0
Time_Shift_30
Sustain_On
Time_Shift_4
Note_On_72_Vel_76
Time_Shift_77
Note_On_75_Vel_78
Time_Shift_6
Note_On_51_Vel_71
Time_Shift_6
Note_On_61_Vel_65
Time_Shift_4
Note_On_58_Vel_67
Time_Shift_48
Note_On_73_Vel_0
Time_Shift_10
Note_On_73_Vel_79
Time_Shift_32
Sustain_Off
Time_Shift_1
Note_On_72_Vel_0
Note_On_58_Vel_0
Time_Shift_1
Note_On_51_Vel_0
Note_On_75_Vel_0
Time_Shift_3
Note_On_61_Vel_0
Time_Shift_2
Note_On_73_Vel_0
Time_Shift_46
Note_On_84_Vel_91
Time_Shift_9
Note_On_51_Vel_71
Note_On_58_Vel_65
Time_Shift_39
Note_On_58_Vel_0
Time_Shift_6
Note_On_51_Vel_0
Time_Shift_23
Note_On_82_Vel_81
Time_Shift_25
Note_On_84_Vel_0
Time_Shift_52
Note_On_82_Vel_0
Time_Shift_3
Note_On_72_Vel_78
Time_Shift_4
Note_On_44_Vel_74
Time_Shift_44
Sustain_On
Time_Shift_35
Note_On_71_Vel_79
Time_Shift_83
Note_On_73_Vel_78
Time_Shift_14
Note_On_51_Vel_69
Time_Shift_1
Note_On_60_Vel_62
Time_Shift_1
Note_On_56_Vel_62
Time_Shift_50
Note_On_72_Vel_0
Time_Shift_8
Note_On_72_Vel_74
Time_Shift_28
Note_On_71_Vel_0
Sustain_Off
Note_On_73_Vel_0
Note_On_72_Vel_0
Time_Shift_1
Note_On_60_Vel_0
Note_On_56_Vel_0
Time_Shift_2
Note_On_51_Vel_0
Time_Shift_15
Note_On_44_Vel_0
Time_Shift_42
Note_On_60_Vel_61
Time_Shift_1
Note_On_51_Vel_65
Time_Shift_1
Note_On_82_Vel_84
Time_Shift_1
Note_On_56_Vel_66
Time_Shift_38
Note_On_60_Vel_0
Time_Shift_16
Note_On_56_Vel_0
Time_Shift_10
Note_On_51_Vel_0
Time_Shift_16
Note_On_80_Vel_81
Time_Shift_21
Note_On_82_Vel_0
Time_Shift_51
Note_On_80_Vel_0
Time_Shift_5
Note_On_44_Vel_76
Note_On_72_Vel_79
Time_Shift_36
Sustain_On
Time_Shift_43
Note_On_71_Vel_81
Time_Shift_1
Note_On_83_Vel_70
Time_Shift_81
Note_On_73_Vel_84
Time_Shift_6
Note_On_60_Vel_68
Time_Shift_1
Note_On_56_Vel_67
Time_Shift_1
Note_On_51_Vel_73
Time_Shift_59
Note_On_72_Vel_0
Time_Shift_2
Note_On_84_Vel_69
Time_Shift_2
Note_On_72_Vel_82
Time_Shift_20
Sustain_Off
Time_Shift_12
Note_On_73_Vel_0
Time_Shift_1
Note_On_71_Vel_0
Note_On_83_Vel_0
Note_On_56_Vel_0
Time_Shift_3
Note_On_72_Vel_0
Time_Shift_1
Note_On_60_Vel_0
Note_On_84_Vel_0
Time_Shift_1
Note_On_51_Vel_0
Time_Shift_12
Note_On_44_Vel_0
Time_Shift_43
Note_On_51_Vel_67
Note_On_56_Vel_69
Time_Shift_1
Note_On_60_Vel_62
Time_Shift_1
Note_On_82_Vel_81
Time_Shift_42
Note_On_60_Vel_0
Time_Shift_16
Note_On_56_Vel_0
Time_Shift_15
Note_On_51_Vel_0
Time_Shift_3
Note_On_80_Vel_81
Time_Shift_20
Note_On_82_Vel_0
Time_Shift_70
Note_On_70_Vel_84
Time_Shift_1
Note_On_49_Vel_69
Time_Shift_34
Sustain_On
Time_Shift_42
Note_On_73_Vel_82
Time_Shift_76
Note_On_72_Vel_81
Time_Shift_6
Note_On_61_Vel_71
Time_Shift_2
Note_On_53_Vel_67
Note_On_58_Vel_73
Time_Shift_70
Note_On_75_Vel_82
Time_Shift_57
Note_On_73_Vel_0
Time_Shift_10
Note_On_73_Vel_90
Time_Shift_13
Note_On_80_Vel_0
Time_Shift_1
Note_On_72_Vel_0
Time_Shift_1
Note_On_70_Vel_0
Sustain_Off
Time_Shift_3
Note_On_61_Vel_0
Note_On_49_Vel_0
Time_Shift_3
Note_On_53_Vel_0
Note_On_58_Vel_0
Time_Shift_4
Note_On_75_Vel_0
Time_Shift_2
Note_On_58_Vel_66
Time_Shift_4
Note_On_53_Vel_67
Time_Shift_2
Note_On_73_Vel_0
Time_Shift_49
Note_On_58_Vel_0
Time_Shift_1
Note_On_77_Vel_88
Time_Shift_1
Note_On_53_Vel_0
Time_Shift_51
Note_On_77_Vel_0
Time_Shift_29
Note_On_76_Vel_89
Time_Shift_1
Note_On_49_Vel_75
Time_Shift_48
Sustain_On
Time_Shift_24
Note_On_79_Vel_93
Time_Shift_91
Note_On_77_Vel_85
Time_Shift_4
Note_On_58_Vel_76
Time_Shift_1
Note_On_70_Vel_74
Time_Shift_1
Note_On_53_Vel_67
Time_Shift_1
Note_On_61_Vel_68
Time_Shift_75
Note_On_82_Vel_85
Time_Shift_72
Note_On_53_Vel_0
Note_On_58_Vel_0
Note_On_61_Vel_0
Time_Shift_2
Note_On_93_Vel_84
Time_Shift_1
Note_On_81_Vel_84
Time_Shift_1
Note_On_58_Vel_83
Note_On_61_Vel_77
Time_Shift_1
Note_On_53_Vel_78
Time_Shift_2
Note_On_93_Vel_0
Time_Shift_5
Note_On_49_Vel_0
Time_Shift_69
Note_On_84_Vel_85
Time_Shift_16
Sustain_Off
Note_On_61_Vel_0
Note_On_76_Vel_0
Time_Shift_1
Note_On_58_Vel_0
Time_Shift_1
Note_On_82_Vel_0
Note_On_77_Vel_0
Time_Shift_2
Note_On_79_Vel_0
Time_Shift_6
Note_On_53_Vel_0
Note_On_70_Vel_0
Time_Shift_16
Note_On_81_Vel_0
Time_Shift_11
Note_On_84_Vel_0
Time_Shift_30
Note_On_39_Vel_84
Time_Shift_1
Note_On_51_Vel_87
Note_On_82_Vel_85
Time_Shift_2
Note_On_70_Vel_87
Time_Shift_63
Sustain_On
Time_Shift_20
Note_On_73_Vel_88
Time_Shift_65
Note_On_51_Vel_0
Time_Shift_9
Note_On_51_Vel_64
Time_Shift_2
Note_On_58_Vel_77
Time_Shift_1
Note_On_61_Vel_68
Time_Shift_5
Note_On_72_Vel_81
Time_Shift_79
Note_On_75_Vel_84
Time_Shift_65
Note_On_51_Vel_0
Note_On_58_Vel_0
Note_On_73_Vel_0
Time_Shift_6
Note_On_73_Vel_90
Time_Shift_2
Note_On_58_Vel_73
Time_Shift_1
Note_On_61_Vel_0
Time_Shift_1
Note_On_51_Vel_71
Time_Shift_69
Note_On_91_Vel_85
Note_On_79_Vel_88
Time_Shift_5
Note_On_91_Vel_0
Time_Shift_49
Sustain_Off
Time_Shift_1
Note_On_73_Vel_0
Note_On_58_Vel_0
Note_On_82_Vel_0
Note_On_75_Vel_0
Note_On_51_Vel_0
Note_On_72_Vel_0
Note_On_70_Vel_0
Time_Shift_1
Note_On_79_Vel_0
Time_Shift_11
Note_On_39_Vel_0
Time_Shift_35
Note_On_80_Vel_95
Time_Shift_1
Note_On_92_Vel_86
Time_Shift_2
Note_On_44_Vel_77
Time_Shift_8
Note_On_92_Vel_0
Time_Shift_46
Note_On_44_Vel_0
Time_Shift_15
Sustain_On
Time_Shift_8
Note_On_80_Vel_0
Time_Shift_187
Note_On_60_Vel_83
Note_On_56_Vel_80
Note_On_51_Vel_81
Note_On_72_Vel_90
Time_Shift_1
Note_On_44_Vel_80
Time_Shift_4
Note_On_68_Vel_84
Time_Shift_31
Sustain_Off
Time_Shift_84
Sustain_On
Time_Shift_289
Note_On_84_Vel_88
Time_Shift_23
Sustain_Off
Time_Shift_7
Note_On_51_Vel_0
Time_Shift_1
Note_On_56_Vel_0
Time_Shift_3
Note_On_68_Vel_0
Time_Shift_7
Note_On_44_Vel_0
Note_On_60_Vel_0
Time_Shift_23
Note_On_72_Vel_0
Time_Shift_28
Note_On_84_Vel_0
Time_Shift_165
Note_On_48_Vel_75
Time_Shift_4
Note_On_82_Vel_78
Time_Shift_18
Sustain_On
Time_Shift_97
Note_On_84_Vel_69
Time_Shift_88
Note_On_82_Vel_0
Time_Shift_6
Note_On_82_Vel_73
Time_Shift_68
Note_On_80_Vel_74
Time_Shift_94
Note_On_64_Vel_64
Time_Shift_3
Note_On_79_Vel_79
Note_On_48_Vel_0
Time_Shift_1
Note_On_55_Vel_59
Note_On_58_Vel_59
Note_On_84_Vel_0
Note_On_82_Vel_0
Time_Shift_3
Sustain_Off
Time_Shift_3
Note_On_80_Vel_0
Time_Shift_31
Note_On_64_Vel_0
Time_Shift_2
Note_On_55_Vel_0
Time_Shift_3
Note_On_58_Vel_0
Time_Shift_36
Note_On_79_Vel_0
Time_Shift_10
Note_On_84_Vel_66
Time_Shift_72
Note_On_84_Vel_0
Time_Shift_17
Note_On_80_Vel_79
Time_Shift_8
Note_On_56_Vel_61
Note_On_60_Vel_49
Note_On_65_Vel_51
Time_Shift_2
Note_On_53_Vel_56
Time_Shift_25
Sustain_On
Time_Shift_57
Note_On_82_Vel_79
Time_Shift_73
Note_On_80_Vel_0
Time_Shift_5
Note_On_80_Vel_81
Time_Shift_68
Note_On_79_Vel_89
Time_Shift_41
Note_On_53_Vel_0
Time_Shift_2
Note_On_60_Vel_0
Time_Shift_1
Note_On_82_Vel_0
Time_Shift_1
Note_On_56_Vel_0
Time_Shift_3
Note_On_65_Vel_0
Time_Shift_3
Note_On_80_Vel_0
Time_Shift_2
Sustain_Off
Time_Shift_1
Note_On_79_Vel_0
Time_Shift_25
Note_On_77_Vel_91
Time_Shift_14
Note_On_56_Vel_65
Time_Shift_1
Note_On_60_Vel_69
Time_Shift_5
Note_On_53_Vel_67
Time_Shift_30
Note_On_53_Vel_0
Time_Shift_13
Note_On_60_Vel_0
Time_Shift_8
Note_On_56_Vel_0
Time_Shift_12
Note_On_84_Vel_90
Time_Shift_10
Note_On_77_Vel_0
Time_Shift_55
Sustain_On
Time_Shift_16
Note_On_79_Vel_85
Time_Shift_2
Note_On_64_Vel_80
Time_Shift_1
Note_On_53_Vel_69
Time_Shift_4
Note_On_58_Vel_79
Note_On_60_Vel_69
Time_Shift_80
Note_On_72_Vel_81
Time_Shift_91
Note_On_73_Vel_81
Time_Shift_75
Note_On_72_Vel_0
Time_Shift_4
Note_On_84_Vel_0
Note_On_64_Vel_0
Time_Shift_1
Note_On_60_Vel_0
Note_On_58_Vel_0
Note_On_79_Vel_0
Note_On_72_Vel_88
Note_On_53_Vel_0
Time_Shift_1
Note_On_73_Vel_0
Time_Shift_4
Sustain_Off
Time_Shift_85
Note_On_80_Vel_83
Time_Shift_8
Note_On_58_Vel_68
Time_Shift_2
Note_On_60_Vel_60
Time_Shift_1
Note_On_53_Vel_59
Time_Shift_31
Note_On_60_Vel_0
Note_On_53_Vel_0
Time_Shift_7
Note_On_58_Vel_0
Time_Shift_32
Note_On_72_Vel_0
Time_Shift_13
Note_On_79_Vel_77
Time_Shift_21
Note_On_80_Vel_0
Time_Shift_53
Note_On_77_Vel_82
Time_Shift_1
Note_On_53_Vel_56
Time_Shift_2
Note_On_60_Vel_52
Time_Shift_2
Note_On_79_Vel_0
Time_Shift_5
Note_On_56_Vel_60
Time_Shift_11
Sustain_On
Time_Shift_63
Note_On_72_Vel_76
Time_Shift_79
Note_On_73_Vel_87
Time_Shift_78
Note_On_56_Vel_0
Note_On_60_Vel_0
Time_Shift_1
Note_On_53_Vel_0
Time_Shift_2
Note_On_72_Vel_0
Time_Shift_2
Note_On_73_Vel_0
Time_Shift_1
Note_On_77_Vel_0
Time_Shift_3
Sustain_Off
Time_Shift_4
Note_On_72_Vel_76
Time_Shift_66
Note_On_80_Vel_91
Time_Shift_4
Note_On_65_Vel_73
Time_Shift_1
Note_On_60_Vel_72
Note_On_53_Vel_74
Time_Shift_1
Note_On_56_Vel_62
Time_Shift_1
Note_On_72_Vel_0
Time_Shift_25
Note_On_65_Vel_0
Time_Shift_4
Note_On_60_Vel_0
Time_Shift_3
Note_On_56_Vel_0
Note_On_53_Vel_0
Time_Shift_50
Note_On_84_Vel_91
Time_Shift_11
Note_On_80_Vel_0
Time_Shift_80
Note_On_82_Vel_88
Note_On_53_Vel_65
Time_Shift_1
Note_On_60_Vel_65
Note_On_58_Vel_73
Time_Shift_19
Sustain_On
Time_Shift_61
Note_On_84_Vel_0
Time_Shift_10
Note_On_84_Vel_87
Time_Shift_75
Note_On_82_Vel_0
Time_Shift_6
Note_On_82_Vel_84
Time_Shift_74
Note_On_80_Vel_84
Time_Shift_24
Sustain_Off
Time_Shift_1
Note_On_58_Vel_0
Note_On_53_Vel_0
Time_Shift_1
Note_On_60_Vel_0
Time_Shift_4
Note_On_82_Vel_0
Time_Shift_13
Note_On_84_Vel_0
Time_Shift_47
Note_On_79_Vel_85
Time_Shift_3
Note_On_80_Vel_0
Time_Shift_9
Note_On_58_Vel_64
Time_Shift_6
Note_On_53_Vel_51
Time_Shift_1
Note_On_60_Vel_47
Time_Shift_44
Note_On_53_Vel_0
Time_Shift_2
Note_On_58_Vel_0
Time_Shift_4
Note_On_60_Vel_0
Time_Shift_8
Note_On_84_Vel_79
Time_Shift_1
Note_On_79_Vel_0
Time_Shift_78
Note_On_84_Vel_0
Time_Shift_9
Note_On_80_Vel_80
Time_Shift_29
Note_On_65_Vel_52
Time_Shift_3
Note_On_53_Vel_54
Time_Shift_4
Note_On_56_Vel_60
Time_Shift_1
Note_On_60_Vel_46
Time_Shift_4
Sustain_On
Time_Shift_52
Note_On_82_Vel_81
Time_Shift_79
Note_On_80_Vel_0
Time_Shift_6
Note_On_80_Vel_79
Time_Shift_67
Note_On_79_Vel_82
Time_Shift_39
Note_On_53_Vel_0
Time_Shift_1
Note_On_60_Vel_0
Time_Shift_1
Sustain_Off
Time_Shift_2
Note_On_82_Vel_0
Note_On_56_Vel_0
Time_Shift_1
Note_On_80_Vel_0
Time_Shift_6
Note_On_65_Vel_0
Time_Shift_38
Note_On_79_Vel_0
Time_Shift_3
Note_On_65_Vel_51
Time_Shift_2
Note_On_77_Vel_79
Time_Shift_1
Note_On_56_Vel_55
Time_Shift_2
Note_On_53_Vel_55
Time_Shift_2
Note_On_60_Vel_52
Time_Shift_25
Note_On_60_Vel_0
Time_Shift_7
Note_On_56_Vel_0
Time_Shift_5
Note_On_53_Vel_0
Time_Shift_7
Note_On_65_Vel_0
Time_Shift_36
Note_On_77_Vel_0
Time_Shift_11
Note_On_84_Vel_83
Time_Shift_80
Note_On_64_Vel_65
Time_Shift_7
Note_On_53_Vel_56
Time_Shift_1
Note_On_79_Vel_81
Time_Shift_3
Sustain_On
Time_Shift_2
Note_On_60_Vel_51
Time_Shift_2
Note_On_58_Vel_63
Time_Shift_89
Note_On_72_Vel_78
Time_Shift_81
Note_On_73_Vel_80
Time_Shift_87
Note_On_72_Vel_0
Time_Shift_5
Note_On_72_Vel_79
Time_Shift_8
Note_On_84_Vel_0
Note_On_58_Vel_0
Note_On_53_Vel_0
Time_Shift_1
Note_On_64_Vel_0
Note_On_60_Vel_0
Time_Shift_1
Note_On_79_Vel_0
Time_Shift_1
Sustain_Off
Time_Shift_4
Note_On_73_Vel_0
Time_Shift_57
Note_On_64_Vel_60
Time_Shift_5
Note_On_53_Vel_55
Time_Shift_6
Note_On_58_Vel_54
Note_On_60_Vel_45
Time_Shift_7
Note_On_80_Vel_80
Time_Shift_24
Note_On_53_Vel_0
Note_On_64_Vel_0
Time_Shift_7
Note_On_58_Vel_0
Time_Shift_3
Note_On_60_Vel_0
Time_Shift_9
Note_On_72_Vel_0
Time_Shift_49
Note_On_79_Vel_75
Time_Shift_2
Note_On_80_Vel_0
Time_Shift_81
Note_On_77_Vel_79
Time_Shift_8
Note_On_53_Vel_55
Time_Shift_2
Note_On_79_Vel_0
Time_Shift_16
Note_On_65_Vel_41
Time_Shift_7
Note_On_56_Vel_59
Time_Shift_1
Note_On_60_Vel_37
Time_Shift_24
Note_On_53_Vel_0
Time_Shift_33
Sustain_On
Time_Shift_8
Note_On_60_Vel_0
Time_Shift_27
Note_On_72_Vel_73
Time_Shift_80
Note_On_77_Vel_0
Time_Shift_11
Note_On_77_Vel_79
Time_Shift_20
Note_On_65_Vel_0
Time_Shift_89
Note_On_80_Vel_63
Time_Shift_177
Note_On_84_Vel_73
Time_Shift_143
Note_On_56_Vel_0
Time_Shift_2
Sustain_Off
Time_Shift_7
Note_On_80_Vel_0
Note_On_72_Vel_0
Time_Shift_43
Note_On_77_Vel_0
Time_Shift_79
Note_On_48_Vel_62
Time_Shift_8
Note_On_82_Vel_69
Time_Shift_20
Sustain_On
Time_Shift_131
Note_On_84_Vel_0
Time_Shift_5
Note_On_84_Vel_74
Time_Shift_118
Note_On_48_Vel_0
Note_On_82_Vel_0
Time_Shift_6
Note_On_82_Vel_73
Time_Shift_6
Note_On_64_Vel_57
Time_Shift_1
Note_On_60_Vel_50
Time_Shift_1
Note_On_79_Vel_60
Note_On_84_Vel_0
Time_Shift_2
Note_On_58_Vel_57
Time_Shift_1
Sustain_Off
Time_Shift_22
Note_On_64_Vel_0
Time_Shift_1
Note_On_60_Vel_0
Time_Shift_2
Note_On_79_Vel_0
Time_Shift_7
Note_On_58_Vel_0
Time_Shift_5
Note_On_82_Vel_0
Time_Shift_28
Note_On_80_Vel_76
Time_Shift_30
Note_On_80_Vel_0
Time_Shift_64
Note_On_79_Vel_79
Time_Shift_4
Note_On_58_Vel_62
Time_Shift_1
Note_On_64_Vel_61
Time_Shift_2
Note_On_60_Vel_52
Time_Shift_26
Note_On_64_Vel_0
Time_Shift_6
Note_On_60_Vel_0
Time_Shift_7
Note_On_58_Vel_0
Time_Shift_14
Note_On_79_Vel_0
Time_Shift_21
Note_On_84_Vel_74
Time_Shift_31
Note_On_84_Vel_0
Time_Shift_60
Note_On_65_Vel_64
Time_Shift_1
Note_On_53_Vel_70
Time_Shift_2
Note_On_80_Vel_80
Time_Shift_48
Sustain_On
Time_Shift_37
Note_On_82_Vel_82
Time_Shift_78
Note_On_80_Vel_0
Time_Shift_11
Note_On_80_Vel_78
Time_Shift_5
Note_On_65_Vel_0
Time_Shift_8
Note_On_60_Vel_61
Time_Shift_1
Note_On_56_Vel_59
Time_Shift_1
Note_On_65_Vel_58
Time_Shift_5
Sustain_Off
Time_Shift_1
Note_On_82_Vel_0
Time_Shift_9
Note_On_53_Vel_0
Time_Shift_29
Note_On_56_Vel_0
Note_On_60_Vel_0
Note_On_65_Vel_0
Note_On_80_Vel_0
Time_Shift_10
Note_On_79_Vel_86
Time_Shift_54
Note_On_79_Vel_0
Time_Shift_40
Note_On_77_Vel_85
Time_Shift_10
Note_On_65_Vel_58
Time_Shift_5
Note_On_60_Vel_59
Note_On_56_Vel_61
Time_Shift_21
Note_On_65_Vel_0
Time_Shift_4
Note_On_60_Vel_0
Time_Shift_8
Note_On_56_Vel_0
Time_Shift_2
Note_On_77_Vel_0
Time_Shift_28
Note_On_84_Vel_84
Time_Shift_90
Note_On_79_Vel_85
Note_On_84_Vel_0
Note_On_48_Vel_71
Time_Shift_58
Sustain_On
Time_Shift_29
Note_On_72_Vel_78
Time_Shift_82
Note_On_73_Vel_83
Time_Shift_2
Note_On_72_Vel_0
Time_Shift_3
Note_On_79_Vel_0
Time_Shift_1
Note_On_48_Vel_0
Sustain_Off
Time_Shift_6
Note_On_58_Vel_62
Time_Shift_3
Note_On_64_Vel_57
Time_Shift_15
Note_On_73_Vel_0
Time_Shift_12
Note_On_58_Vel_0
Time_Shift_16
Note_On_64_Vel_0
Time_Shift_27
Note_On_72_Vel_83
Time_Shift_76
Note_On_64_Vel_62
Time_Shift_5
Note_On_58_Vel_66
Time_Shift_1
Note_On_60_Vel_56
Time_Shift_8
Note_On_80_Vel_82
Time_Shift_29
Note_On_64_Vel_0
Time_Shift_3
Note_On_60_Vel_0
Time_Shift_2
Note_On_58_Vel_0
Time_Shift_22
Note_On_72_Vel_0
Time_Shift_20
Note_On_80_Vel_0
Time_Shift_10
Note_On_79_Vel_81
Time_Shift_70
Note_On_77_Vel_81
Time_Shift_3
Note_On_53_Vel_63
Time_Shift_11
Note_On_79_Vel_0
Time_Shift_51
Note_On_53_Vel_0
Time_Shift_7
Sustain_On
Time_Shift_14
Note_On_72_Vel_76
Time_Shift_84
Note_On_73_Vel_84
Time_Shift_15
Note_On_65_Vel_51
Time_Shift_3
Note_On_56_Vel_58
Time_Shift_3
Note_On_60_Vel_59
Time_Shift_3
Note_On_77_Vel_0
Time_Shift_6
Note_On_72_Vel_0
Time_Shift_5
Sustain_Off
Time_Shift_6
Note_On_73_Vel_0
Time_Shift_3
Note_On_60_Vel_0
Time_Shift_20
Note_On_56_Vel_0
Note_On_65_Vel_0
Time_Shift_32
Note_On_72_Vel_75
Time_Shift_70
Note_On_65_Vel_59
Time_Shift_3
Note_On_56_Vel_60
Note_On_60_Vel_52
Time_Shift_2
Note_On_80_Vel_82
Time_Shift_8
Note_On_72_Vel_0
Time_Shift_14
Note_On_65_Vel_0
Time_Shift_5
Note_On_60_Vel_0
Time_Shift_1
Note_On_56_Vel_0
Time_Shift_30
Note_On_80_Vel_0
Time_Shift_35
Note_On_84_Vel_81
Time_Shift_79
Note_On_48_Vel_76
Time_Shift_9
Note_On_82_Vel_86
Time_Shift_19
Sustain_On
Time_Shift_69
Note_On_84_Vel_0
Time_Shift_4
Note_On_84_Vel_86
Time_Shift_63
Sustain_Off
Time_Shift_3
Note_On_48_Vel_0
Time_Shift_3
Note_On_84_Vel_0
Time_Shift_4
Note_On_82_Vel_0
Time_Shift_5
Note_On_64_Vel_72
Time_Shift_3
Note_On_82_Vel_87
Time_Shift_1
Note_On_60_Vel_66
Time_Shift_1
Note_On_58_Vel_74
Time_Shift_25
Note_On_64_Vel_0
Time_Shift_6
Note_On_58_Vel_0
Time_Shift_1
Note_On_60_Vel_0
Time_Shift_27
Note_On_82_Vel_0
Time_Shift_11
Note_On_80_Vel_90
Time_Shift_43
Note_On_80_Vel_0
Time_Shift_47
Note_On_79_Vel_89
Note_On_64_Vel_74
Time_Shift_9
Note_On_60_Vel_63
Time_Shift_1
Note_On_58_Vel_65
Time_Shift_16
Note_On_64_Vel_0
Time_Shift_34
Note_On_58_Vel_0
Note_On_60_Vel_0
Time_Shift_14
Note_On_84_Vel_84
Time_Shift_6
Note_On_79_Vel_0
Time_Shift_63
Note_On_84_Vel_0
Time_Shift_27
Note_On_53_Vel_69
Note_On_80_Vel_81
Time_Shift_59
Note_On_53_Vel_0
Time_Shift_8
Sustain_On
Time_Shift_27
Note_On_82_Vel_82
Time_Shift_73
Note_On_80_Vel_0
Time_Shift_4
Note_On_80_Vel_79
Time_Shift_7
Note_On_56_Vel_60
Note_On_60_Vel_57
Time_Shift_1
Note_On_65_Vel_51
Time_Shift_30
Note_On_82_Vel_0
Time_Shift_3
Sustain_Off
Time_Shift_2
Note_On_56_Vel_0
Note_On_60_Vel_0
Time_Shift_2
Note_On_80_Vel_0
Time_Shift_12
Note_On_65_Vel_0
Time_Shift_16
Note_On_79_Vel_84
Time_Shift_88
Note_On_79_Vel_0
Time_Shift_7
Note_On_77_Vel_82
Time_Shift_6
Note_On_65_Vel_58
Time_Shift_10
Note_On_56_Vel_58
Time_Shift_1
Note_On_60_Vel_53
Time_Shift_22
Note_On_65_Vel_0
Time_Shift_15
Note_On_56_Vel_0
Time_Shift_12
Note_On_60_Vel_0
Time_Shift_5
Note_On_77_Vel_0
Time_Shift_17
Note_On_84_Vel_77
Time_Shift_90
Note_On_84_Vel_0
Time_Shift_3
Note_On_79_Vel_78
Time_Shift_9
Note_On_48_Vel_69
Time_Shift_45
Sustain_On
Time_Shift_45
Note_On_72_Vel_74
Time_Shift_97
Note_On_73_Vel_79
Time_Shift_1
Note_On_64_Vel_66
Time_Shift_4
Note_On_58_Vel_65
Time_Shift_1
Note_On_60_Vel_56
Time_Shift_14
Note_On_48_Vel_0
Time_Shift_3
Sustain_Off
Time_Shift_1
Note_On_72_Vel_0
Note_On_79_Vel_0
Time_Shift_9
Note_On_60_Vel_0
Time_Shift_2
Note_On_64_Vel_0
Time_Shift_3
Note_On_73_Vel_0
Note_On_58_Vel_0
Time_Shift_48
Note_On_72_Vel_81
Time_Shift_99
Note_On_64_Vel_53
Time_Shift_2
Note_On_58_Vel_58
Time_Shift_4
Note_On_80_Vel_79
Time_Shift_1
Note_On_60_Vel_46
Time_Shift_33
Note_On_64_Vel_0
Time_Shift_1
Note_On_72_Vel_0
Time_Shift_2
Note_On_58_Vel_0
Note_On_60_Vel_0
Time_Shift_46
Note_On_80_Vel_0
Time_Shift_10
Note_On_79_Vel_78
Time_Shift_108
Note_On_79_Vel_0
Time_Shift_3
Note_On_53_Vel_57
Time_Shift_11
Note_On_77_Vel_67
Time_Shift_89
Sustain_On
Time_Shift_50
Note_On_79_Vel_73
Time_Shift_104
Note_On_77_Vel_0
Time_Shift_4
Note_On_77_Vel_70
Time_Shift_11
Note_On_53_Vel_0
Time_Shift_5
Note_On_53_Vel_51
Time_Shift_2
Note_On_56_Vel_59
Time_Shift_2
Note_On_65_Vel_47
Time_Shift_91
Note_On_76_Vel_76
Time_Shift_88
Note_On_75_Vel_71
Time_Shift_102
Note_On_74_Vel_74
Time_Shift_44
Sustain_Off
Time_Shift_1
Note_On_56_Vel_0
Note_On_53_Vel_0
Time_Shift_1
Note_On_65_Vel_0
Note_On_76_Vel_0
Note_On_77_Vel_0
Note_On_79_Vel_0
Time_Shift_1
Note_On_75_Vel_0
Time_Shift_6
Note_On_74_Vel_0
Time_Shift_36
Note_On_43_Vel_72
Time_Shift_4
Note_On_73_Vel_68
Time_Shift_24
Note_On_43_Vel_0
Time_Shift_38
Sustain_On
Time_Shift_41
Note_On_72_Vel_71
Time_Shift_87
Note_On_75_Vel_74
Time_Shift_3
Note_On_51_Vel_61
Time_Shift_3
Note_On_58_Vel_64
Time_Shift_10
Sustain_Off
Time_Shift_15
Note_On_75_Vel_0
Note_On_73_Vel_0
Note_On_72_Vel_0
Time_Shift_5
Note_On_58_Vel_0
Time_Shift_2
Note_On_51_Vel_0
Time_Shift_46
Note_On_73_Vel_72
Time_Shift_37
Note_On_73_Vel_0
Time_Shift_31
Note_On_58_Vel_63
Time_Shift_5
Note_On_51_Vel_60
Time_Shift_3
Note_On_84_Vel_81
Time_Shift_31
Note_On_58_Vel_0
Note_On_51_Vel_0
Time_Shift_52
Note_On_84_Vel_0
Time_Shift_5
Note_On_82_Vel_79
Time_Shift_64
Note_On_43_Vel_73
Time_Shift_2
Note_On_73_Vel_79
Time_Shift_35
Sustain_On
Time_Shift_39
Note_On_72_Vel_76
Time_Shift_88
Note_On_75_Vel_73
Time_Shift_6
Note_On_58_Vel_71
Time_Shift_2
Note_On_61_Vel_62
Time_Shift_4
Note_On_51_Vel_64
Time_Shift_51
Sustain_Off
Time_Shift_2
Note_On_75_Vel_0
Note_On_73_Vel_0
Time_Shift_1
Note_On_58_Vel_0
Time_Shift_1
Note_On_82_Vel_0
Note_On_51_Vel_0
Note_On_72_Vel_0
Time_Shift_1
Note_On_43_Vel_0
Time_Shift_3
Note_On_61_Vel_0
Time_Shift_2
Note_On_73_Vel_72
Time_Shift_53
Note_On_73_Vel_0
Time_Shift_34
Note_On_84_Vel_82
Time_Shift_5
Note_On_51_Vel_66
Time_Shift_3
Note_On_61_Vel_56
Note_On_58_Vel_55
Time_Shift_4
Note_On_61_Vel_0
Time_Shift_34
Note_On_51_Vel_0
Time_Shift_8
Note_On_58_Vel_0
Time_Shift_24
Note_On_84_Vel_0
Time_Shift_2
Note_On_82_Vel_82
Time_Shift_64
Note_On_82_Vel_0
Time_Shift_19
Note_On_72_Vel_76
Time_Shift_1
Note_On_44_Vel_70
Time_Shift_40
Sustain_On
Time_Shift_51
Note_On_71_Vel_77
Time_Shift_83
Note_On_73_Vel_73
Time_Shift_2
Note_On_60_Vel_66
Time_Shift_5
Note_On_51_Vel_66
Time_Shift_1
Note_On_56_Vel_63
Time_Shift_50
Note_On_72_Vel_0
Time_Shift_4
Sustain_Off
Time_Shift_1
Note_On_71_Vel_0
Time_Shift_1
Note_On_73_Vel_0
Note_On_51_Vel_0
Note_On_60_Vel_0
Note_On_56_Vel_0
Time_Shift_5
Note_On_72_Vel_81
Time_Shift_12
Note_On_44_Vel_0
Time_Shift_50
Note_On_72_Vel_0
Time_Shift_23
Note_On_60_Vel_59
Time_Shift_1
Note_On_51_Vel_66
Time_Shift_2
Note_On_56_Vel_66
Time_Shift_5
Note_On_82_Vel_80
Time_Shift_31
Note_On_60_Vel_0
Time_Shift_7
Note_On_56_Vel_0
Time_Shift_16
Note_On_51_Vel_0
Time_Shift_23
Note_On_80_Vel_82
Time_Shift_15
Note_On_82_Vel_0
Time_Shift_47
Note_On_80_Vel_0
Time_Shift_14
Note_On_44_Vel_76
Time_Shift_1
Note_On_72_Vel_79
Time_Shift_57
Sustain_On
Time_Shift_28
Note_On_71_Vel_80
Note_On_83_Vel_69
Time_Shift_84
Note_On_73_Vel_80
Time_Shift_5
Note_On_51_Vel_67
Time_Shift_1
Note_On_60_Vel_61
Time_Shift_66
Note_On_72_Vel_0
Time_Shift_9
Note_On_72_Vel_80
Time_Shift_6
Sustain_Off
Time_Shift_2
Note_On_60_Vel_0
Time_Shift_1
Note_On_71_Vel_0
Note_On_51_Vel_0
Time_Shift_1
Note_On_73_Vel_0
Note_On_83_Vel_0
Time_Shift_12
Note_On_44_Vel_0
Time_Shift_60
Note_On_60_Vel_62
Time_Shift_3
Note_On_51_Vel_66
Time_Shift_2
Note_On_56_Vel_65
Time_Shift_5
Note_On_82_Vel_77
Time_Shift_7
Note_On_72_Vel_0
Time_Shift_8
Note_On_60_Vel_0
Time_Shift_6
Note_On_56_Vel_0
Time_Shift_10
Note_On_51_Vel_0
Time_Shift_51
Note_On_92_Vel_64
Time_Shift_1
Note_On_80_Vel_74
Time_Shift_8
Note_On_92_Vel_0
Time_Shift_27
Note_On_82_Vel_0
Time_Shift_31
Note_On_39_Vel_83
Time_Shift_2
Note_On_82_Vel_82
Time_Shift_3
Note_On_70_Vel_85
Time_Shift_30
Sustain_On
Time_Shift_45
Note_On_81_Vel_72
Time_Shift_3
Note_On_69_Vel_81
Time_Shift_75
Note_On_72_Vel_78
Time_Shift_2
Note_On_84_Vel_72
Time_Shift_16
Note_On_58_Vel_69
Time_Shift_1
Note_On_51_Vel_62
Time_Shift_48
Note_On_81_Vel_0
Note_On_69_Vel_0
Time_Shift_1
Note_On_39_Vel_0
Time_Shift_1
Note_On_70_Vel_0
Note_On_82_Vel_0
Time_Shift_1
Note_On_72_Vel_0
Time_Shift_1
Note_On_84_Vel_0
Sustain_Off
Note_On_58_Vel_0
Time_Shift_2
Note_On_51_Vel_0
Time_Shift_3
Note_On_80_Vel_0
Note_On_70_Vel_81
Time_Shift_1
Note_On_82_Vel_75
Time_Shift_56
Note_On_70_Vel_0
Time_Shift_5
Note_On_82_Vel_0
Time_Shift_31
Note_On_73_Vel_79
Time_Shift_2
Note_On_61_Vel_68
Time_Shift_1
Note_On_51_Vel_71
Time_Shift_1
Note_On_58_Vel_68
Time_Shift_31
Note_On_61_Vel_0
Time_Shift_6
Note_On_58_Vel_0
Time_Shift_2
Note_On_51_Vel_0
Time_Shift_4
Note_On_73_Vel_0
Time_Shift_34
Note_On_84_Vel_67
Time_Shift_1
Note_On_72_Vel_77
Time_Shift_75
Note_On_84_Vel_0
Note_On_39_Vel_82
Note_On_72_Vel_0
Time_Shift_1
Note_On_75_Vel_81
Time_Shift_86
Note_On_73_Vel_78
Time_Shift_9
Sustain_On
Time_Shift_73
Note_On_61_Vel_69
Time_Shift_1
Note_On_51_Vel_72
Time_Shift_1
Note_On_91_Vel_75
Time_Shift_2
Note_On_61_Vel_0
Time_Shift_2
Note_On_79_Vel_83
Note_On_58_Vel_72
Time_Shift_5
Note_On_91_Vel_0
Time_Shift_59
Note_On_77_Vel_86
Time_Shift_22
Sustain_Off
Time_Shift_1
Note_On_79_Vel_0
Note_On_75_Vel_0
Time_Shift_1
Note_On_58_Vel_0
Time_Shift_1
Note_On_73_Vel_0
Note_On_51_Vel_0
Time_Shift_8
Note_On_39_Vel_0
Time_Shift_52
Note_On_85_Vel_72
Time_Shift_4
Note_On_73_Vel_76
Time_Shift_1
Note_On_61_Vel_68
Time_Shift_1
Note_On_58_Vel_71
Note_On_51_Vel_69
Time_Shift_22
Note_On_77_Vel_0
Time_Shift_6
Note_On_61_Vel_0
Time_Shift_3
Note_On_58_Vel_0
Time_Shift_2
Note_On_51_Vel_0
Time_Shift_2
Note_On_85_Vel_0
Time_Shift_4
Note_On_73_Vel_0
Time_Shift_41
Note_On_67_Vel_63
Time_Shift_33
Note_On_67_Vel_0
Time_Shift_43
Note_On_44_Vel_65
Time_Shift_3
Note_On_68_Vel_71
Time_Shift_49
Note_On_68_Vel_0
Time_Shift_11
Note_On_44_Vel_0
Time_Shift_11
Note_On_81_Vel_71
Note_On_69_Vel_78
Time_Shift_4
Note_On_81_Vel_0
Time_Shift_8
Sustain_On
Time_Shift_68
Note_On_70_Vel_69
Time_Shift_22
Note_On_60_Vel_59
Time_Shift_2
Note_On_51_Vel_58
Time_Shift_2
Note_On_56_Vel_61
Time_Shift_45
Note_On_60_Vel_0
Time_Shift_2
Note_On_71_Vel_72
Note_On_70_Vel_0
Time_Shift_1
Note_On_69_Vel_0
Time_Shift_2
Sustain_Off
Time_Shift_1
Note_On_51_Vel_0
Time_Shift_1
Note_On_56_Vel_0
Time_Shift_78
Note_On_71_Vel_0
Time_Shift_14
Note_On_72_Vel_70
Time_Shift_4
Note_On_60_Vel_52
Time_Shift_3
Note_On_51_Vel_57
Time_Shift_1
Note_On_56_Vel_57
Time_Shift_45
Note_On_56_Vel_0
Time_Shift_1
Note_On_51_Vel_0
Time_Shift_27
Note_On_68_Vel_65
Time_Shift_8
Note_On_72_Vel_0
Time_Shift_19
Note_On_60_Vel_0
Time_Shift_71
Note_On_68_Vel_0
Note_On_63_Vel_68
Time_Shift_3
Note_On_44_Vel_64
Time_Shift_30
Note_On_44_Vel_0
Time_Shift_26
Sustain_On
Time_Shift_126
Note_On_72_Vel_59
Note_On_60_Vel_66
Time_Shift_3
Note_On_51_Vel_59
Time_Shift_4
Note_On_56_Vel_55
Time_Shift_54
Note_On_60_Vel_0
Note_On_56_Vel_0
Time_Shift_1
Note_On_51_Vel_0
Note_On_72_Vel_0
Time_Shift_2
Sustain_Off
Time_Shift_2
Note_On_63_Vel_0
Time_Shift_88
Note_On_72_Vel_79
Note_On_60_Vel_61
Note_On_56_Vel_62
Time_Shift_1
Note_On_51_Vel_63
Time_Shift_25
Note_On_60_Vel_0
Time_Shift_3
Note_On_56_Vel_0
Time_Shift_2
Note_On_72_Vel_0
Note_On_51_Vel_0
Time_Shift_144
Note_On_43_Vel_73
Time_Shift_1
Note_On_73_Vel_69
Time_Shift_32
Note_On_43_Vel_0
Time_Shift_27
Sustain_On
Time_Shift_35
Note_On_72_Vel_68
Time_Shift_81
Note_On_75_Vel_70
Time_Shift_6
Note_On_58_Vel_63
Time_Shift_3
Note_On_51_Vel_61
Time_Shift_51
Note_On_73_Vel_0
Time_Shift_9
Note_On_73_Vel_79
Time_Shift_32
Sustain_Off
Time_Shift_2
Note_On_58_Vel_0
Note_On_72_Vel_0
Time_Shift_1
Note_On_51_Vel_0
Note_On_75_Vel_0
Time_Shift_1
Note_On_73_Vel_0
Time_Shift_51
Note_On_84_Vel_86
Note_On_58_Vel_62
Time_Shift_1
Note_On_51_Vel_66
Time_Shift_40
Note_On_58_Vel_0
Time_Shift_3
Note_On_51_Vel_0
Time_Shift_35
Note_On_82_Vel_83
Time_Shift_36
Note_On_84_Vel_0
Time_Shift_33
Note_On_43_Vel_81
Time_Shift_6
Note_On_73_Vel_75
Time_Shift_34
Sustain_On
Time_Shift_42
Note_On_72_Vel_75
Time_Shift_71
Note_On_75_Vel_81
Time_Shift_10
Note_On_61_Vel_72
Time_Shift_2
Note_On_58_Vel_73
Time_Shift_1
Note_On_51_Vel_71
Time_Shift_59
Note_On_73_Vel_0
Time_Shift_10
Note_On_73_Vel_78
Time_Shift_67
Sustain_Off
Time_Shift_5
Note_On_58_Vel_0
Note_On_72_Vel_0
Time_Shift_2
Note_On_75_Vel_0
Note_On_43_Vel_0
Time_Shift_1
Note_On_61_Vel_0
Time_Shift_7
Note_On_51_Vel_0
Time_Shift_8
Note_On_73_Vel_0
Note_On_82_Vel_0
Time_Shift_2
Note_On_51_Vel_72
Time_Shift_3
Note_On_84_Vel_90
Time_Shift_37
Note_On_51_Vel_0
Time_Shift_41
Note_On_82_Vel_82
Time_Shift_35
Note_On_84_Vel_0
Time_Shift_48
Note_On_72_Vel_80
Time_Shift_1
Note_On_44_Vel_78
Time_Shift_48
Sustain_On
Time_Shift_23
Note_On_44_Vel_0
Time_Shift_20
Note_On_71_Vel_80
Time_Shift_78
Note_On_73_Vel_82
Time_Shift_1
Note_On_44_Vel_70
Time_Shift_1
Note_On_51_Vel_71
Note_On_82_Vel_0
Note_On_60_Vel_69
Time_Shift_76
Note_On_72_Vel_0
Time_Shift_4
Note_On_72_Vel_79
Time_Shift_33
Sustain_Off
Time_Shift_4
Note_On_44_Vel_0
Time_Shift_1
Note_On_73_Vel_0
Time_Shift_1
Note_On_60_Vel_0
Note_On_72_Vel_0
Note_On_71_Vel_0
Time_Shift_34
Note_On_51_Vel_0
Time_Shift_9
Note_On_51_Vel_73
Note_On_60_Vel_68
Time_Shift_2
Note_On_56_Vel_67
Time_Shift_1
Note_On_82_Vel_87
Time_Shift_38
Note_On_60_Vel_0
Time_Shift_1
Note_On_56_Vel_0
Time_Shift_1
Note_On_51_Vel_0
Time_Shift_39
Note_On_80_Vel_84
Time_Shift_70
Note_On_82_Vel_0
Time_Shift_12
Note_On_44_Vel_78
Note_On_72_Vel_78
Time_Shift_35
Sustain_On
Time_Shift_46
Note_On_71_Vel_81
Time_Shift_80
Note_On_73_Vel_85
Time_Shift_9
Note_On_51_Vel_70
Time_Shift_3
Note_On_44_Vel_0
Time_Shift_6
Note_On_44_Vel_68
Time_Shift_48
Note_On_72_Vel_0
Time_Shift_11
Note_On_72_Vel_79
Time_Shift_78
Note_On_73_Vel_0
Sustain_Off
Time_Shift_3
Note_On_44_Vel_0
Time_Shift_2
Note_On_71_Vel_0
Time_Shift_5
Note_On_51_Vel_0
Note_On_80_Vel_0
Time_Shift_4
Note_On_51_Vel_73
Time_Shift_1
Note_On_60_Vel_60
Time_Shift_1
Note_On_56_Vel_70
Time_Shift_2
Note_On_72_Vel_0
Time_Shift_1
Note_On_82_Vel_85
Time_Shift_53
Note_On_60_Vel_0
Time_Shift_22
Note_On_80_Vel_83
Time_Shift_16
Note_On_82_Vel_0
Time_Shift_2
Note_On_51_Vel_0
Time_Shift_6
Note_On_56_Vel_0
Time_Shift_73
Note_On_70_Vel_82
Note_On_49_Vel_72
Time_Shift_42
Sustain_On
Time_Shift_39
Note_On_73_Vel_86
Time_Shift_76
Note_On_72_Vel_82
Note_On_49_Vel_0
Time_Shift_5
Note_On_58_Vel_78
Time_Shift_2
Note_On_49_Vel_64
Time_Shift_1
Note_On_53_Vel_68
Time_Shift_78
Note_On_75_Vel_82
Time_Shift_60
Note_On_73_Vel_0
Time_Shift_7
Note_On_73_Vel_88
Time_Shift_1
Note_On_49_Vel_0
Note_On_58_Vel_0
Time_Shift_5
Note_On_58_Vel_74
Time_Shift_3
Note_On_53_Vel_0
Time_Shift_3
Note_On_49_Vel_66
Time_Shift_1
Note_On_53_Vel_66
Time_Shift_70
Note_On_77_Vel_85
Time_Shift_29
Sustain_Off
Time_Shift_3
Note_On_53_Vel_0
Note_On_73_Vel_0
Time_Shift_1
Note_On_72_Vel_0
Note_On_49_Vel_0
Note_On_58_Vel_0
Time_Shift_1
Note_On_70_Vel_0
Note_On_75_Vel_0
Time_Shift_7
Note_On_80_Vel_0
Time_Shift_4
Note_On_77_Vel_0
Time_Shift_39
Note_On_49_Vel_71
Time_Shift_1
Note_On_76_Vel_85
Time_Shift_48
Sustain_On
Time_Shift_32
Note_On_79_Vel_94
Time_Shift_83
Note_On_49_Vel_0
Time_Shift_3
Note_On_77_Vel_92
Time_Shift_6
Note_On_49_Vel_73
Time_Shift_1
Note_On_58_Vel_80
Time_Shift_2
Note_On_61_Vel_77
Time_Shift_2
Note_On_53_Vel_73
Time_Shift_75
Note_On_82_Vel_85
Time_Shift_63
Note_On_81_Vel_87
Time_Shift_2
Note_On_58_Vel_0
Time_Shift_7
Note_On_53_Vel_0
Note_On_61_Vel_0
Time_Shift_2
Note_On_58_Vel_78
Time_Shift_3
Note_On_53_Vel_69
Time_Shift_1
Note_On_61_Vel_69
Time_Shift_66
Note_On_84_Vel_90
Time_Shift_39
Note_On_61_Vel_0
Sustain_Off
Time_Shift_1
Note_On_53_Vel_0
Note_On_77_Vel_0
Note_On_79_Vel_0
Note_On_82_Vel_0
Note_On_49_Vel_0
Time_Shift_19
Note_On_58_Vel_0
Note_On_76_Vel_0
Note_On_81_Vel_0
Time_Shift_5
Note_On_84_Vel_0
Time_Shift_37
Note_On_82_Vel_82
Note_On_51_Vel_88
Time_Shift_1
Note_On_70_Vel_87
Note_On_39_Vel_83
Time_Shift_41
Sustain_On
Time_Shift_38
Note_On_73_Vel_89
Time_Shift_93
Note_On_51_Vel_0
Time_Shift_3
Note_On_72_Vel_82
Time_Shift_2
Note_On_51_Vel_75
Note_On_58_Vel_82
Time_Shift_1
Note_On_61_Vel_76
Time_Shift_75
Note_On_75_Vel_86
Time_Shift_79
Note_On_70_Vel_0
Time_Shift_1
Sustain_Off
Note_On_72_Vel_0
Note_On_73_Vel_0
Time_Shift_1
Note_On_39_Vel_0
Time_Shift_1
Note_On_61_Vel_0
Note_On_82_Vel_0
Time_Shift_1
Note_On_75_Vel_0
Time_Shift_6
Note_On_73_Vel_86
Time_Shift_7
Note_On_51_Vel_0
Note_On_58_Vel_0
Time_Shift_5
Note_On_58_Vel_76
Time_Shift_2
Note_On_51_Vel_74
Time_Shift_47
Note_On_51_Vel_0
Note_On_73_Vel_0
Time_Shift_6
Note_On_79_Vel_94
Time_Shift_1
Note_On_58_Vel_0
Time_Shift_157
Note_On_80_Vel_95
Note_On_44_Vel_81
Time_Shift_50
Sustain_On
Time_Shift_269
Note_On_44_Vel_0
Time_Shift_4
Note_On_72_Vel_94
Note_On_60_Vel_85
Time_Shift_1
Note_On_51_Vel_85
Time_Shift_1
Note_On_56_Vel_85
Time_Shift_3
Note_On_44_Vel_80
Time_Shift_53
Sustain_Off
Time_Shift_92
Sustain_On
Time_Shift_738
Sustain_Off
Note_On_56_Vel_0
Time_Shift_1
Note_On_60_Vel_0
Time_Shift_1
Note_On_44_Vel_0
Note_On_51_Vel_0
Time_Shift_1
Note_On_72_Vel_0
Time_Shift_4
Note_On_79_Vel_0
Note_On_80_Vel_0
