Time_Shift_357
Note_On_81_Vel_105
Time_Shift_1
Note_On_69_Vel_100
Time_Shift_4
Note_On_45_Vel_103
Note_On_57_Vel_96
Time_Shift_29
Sustain_On
Time_Shift_386
Note_On_76_Vel_102
Time_Shift_6
Note_On_57_Vel_0
Note_On_67_Vel_86
Time_Shift_6
Note_On_61_Vel_86
Time_Shift_4
Note_On_57_Vel_81
Time_Shift_282
Note_On_57_Vel_0
Note_On_61_Vel_0
Note_On_67_Vel_0
Note_On_69_Vel_0
Time_Shift_1
Note_On_73_Vel_83
Time_Shift_1
Note_On_78_Vel_89
Time_Shift_2
Note_On_67_Vel_73
Time_Shift_2
Note_On_61_Vel_79
Time_Shift_2
Note_On_69_Vel_73
Note_On_57_Vel_76
Time_Shift_99
Note_On_76_Vel_0
Time_Shift_7
Note_On_76_Vel_99
Time_Shift_131
Note_On_57_Vel_0
Note_On_69_Vel_0
Time_Shift_4
Note_On_75_Vel_103
Time_Shift_7
Note_On_66_Vel_84
Note_On_69_Vel_81
Note_On_57_Vel_82
Time_Shift_1
Note_On_60_Vel_86
Time_Shift_3
Note_On_73_Vel_0
Note_On_81_Vel_0
Note_On_78_Vel_0
Time_Shift_2
Sustain_Off
Note_On_76_Vel_0
Time_Shift_1
Note_On_61_Vel_0
Time_Shift_1
Note_On_67_Vel_0
Time_Shift_20
Note_On_45_Vel_0
Time_Shift_54
Sustain_On
Time_Shift_46
Note_On_69_Vel_0
Time_Shift_142
Note_On_69_Vel_77
Time_Shift_46
Sustain_Off
Time_Shift_4
Note_On_75_Vel_0
Time_Shift_5
Note_On_75_Vel_94
Time_Shift_2
Note_On_57_Vel_0
Note_On_60_Vel_0
Note_On_66_Vel_0
Time_Shift_5
Note_On_57_Vel_71
Note_On_66_Vel_74
Time_Shift_4
Note_On_60_Vel_71
Time_Shift_30
Note_On_69_Vel_0
Time_Shift_23
Sustain_On
Time_Shift_189
Note_On_66_Vel_0
Time_Shift_1
Note_On_75_Vel_0
Time_Shift_5
Sustain_Off
Time_Shift_5
Note_On_60_Vel_0
Time_Shift_4
Note_On_76_Vel_91
Time_Shift_3
Note_On_57_Vel_0
Time_Shift_4
Note_On_67_Vel_81
Time_Shift_1
Note_On_57_Vel_79
Time_Shift_1
Note_On_61_Vel_87
Time_Shift_17
Sustain_On
Time_Shift_269
Note_On_61_Vel_0
Note_On_45_Vel_99
Note_On_81_Vel_99
Time_Shift_1
Sustain_Off
Time_Shift_1
Note_On_57_Vel_0
Time_Shift_1
Note_On_76_Vel_0
Time_Shift_5
Note_On_67_Vel_0
Time_Shift_31
Note_On_45_Vel_0
Time_Shift_38
Sustain_On
Time_Shift_242
Note_On_83_Vel_90
Time_Shift_120
Note_On_79_Vel_78
Time_Shift_30
Note_On_81_Vel_0
Time_Shift_5
Note_On_81_Vel_92
Time_Shift_25
Note_On_79_Vel_0
Time_Shift_3
Note_On_67_Vel_82
Time_Shift_1
Note_On_57_Vel_79
Time_Shift_1
Note_On_61_Vel_76
Time_Shift_5
Note_On_79_Vel_96
Time_Shift_23
Sustain_Off
Time_Shift_3
Note_On_83_Vel_0
Time_Shift_102
Sustain_On
Time_Shift_183
Note_On_78_Vel_92
Time_Shift_2
Note_On_57_Vel_0
Note_On_61_Vel_0
Note_On_67_Vel_0
Time_Shift_8
Note_On_61_Vel_77
Time_Shift_1
Note_On_67_Vel_78
Time_Shift_1
Note_On_57_Vel_69
Time_Shift_103
Note_On_76_Vel_99
Time_Shift_127
Note_On_61_Vel_0
Time_Shift_1
Note_On_67_Vel_0
Note_On_78_Vel_0
Time_Shift_1
Note_On_76_Vel_0
Time_Shift_4
Note_On_81_Vel_0
Time_Shift_1
Sustain_Off
Time_Shift_6
Note_On_57_Vel_0
Time_Shift_5
Note_On_75_Vel_97
Time_Shift_3
Note_On_79_Vel_0
Time_Shift_3
Note_On_69_Vel_77
Note_On_57_Vel_77
Time_Shift_1
Note_On_66_Vel_77
Time_Shift_6
Note_On_60_Vel_76
Time_Shift_59
Sustain_On
Time_Shift_253
Note_On_69_Vel_0
Time_Shift_11
Note_On_81_Vel_74
Note_On_69_Vel_75
Time_Shift_41
Sustain_Off
Time_Shift_2
Note_On_75_Vel_0
Time_Shift_8
Note_On_57_Vel_0
Note_On_60_Vel_0
Note_On_66_Vel_0
Note_On_69_Vel_0
Time_Shift_3
Note_On_75_Vel_85
Time_Shift_4
Note_On_69_Vel_71
Time_Shift_2
Note_On_66_Vel_66
Time_Shift_1
Note_On_57_Vel_60
Time_Shift_1
Note_On_60_Vel_59
Time_Shift_66
Sustain_On
Time_Shift_138
Note_On_81_Vel_0
Time_Shift_88
Sustain_Off
Time_Shift_4
Note_On_57_Vel_0
Time_Shift_4
Note_On_57_Vel_66
Time_Shift_2
Note_On_76_Vel_89
Time_Shift_4
Note_On_67_Vel_70
Time_Shift_5
Note_On_66_Vel_0
Time_Shift_4
Note_On_61_Vel_63
Time_Shift_4
Note_On_60_Vel_0
Note_On_75_Vel_0
Time_Shift_8
Note_On_69_Vel_0
Time_Shift_31
Sustain_On
Time_Shift_238
Note_On_79_Vel_82
Time_Shift_1
Sustain_Off
Time_Shift_1
Note_On_57_Vel_0
Time_Shift_1
Note_On_67_Vel_0
Note_On_61_Vel_0
Time_Shift_3
Note_On_76_Vel_0
Time_Shift_6
Note_On_66_Vel_62
Time_Shift_7
Note_On_64_Vel_64
Time_Shift_1
Note_On_58_Vel_60
Time_Shift_64
Sustain_On
Time_Shift_201
Note_On_78_Vel_77
Time_Shift_96
Note_On_73_Vel_79
Time_Shift_52
Note_On_74_Vel_75
Time_Shift_24
Sustain_Off
Time_Shift_8
Note_On_78_Vel_0
Time_Shift_2
Note_On_74_Vel_0
Time_Shift_1
Note_On_58_Vel_0
Note_On_64_Vel_0
Note_On_66_Vel_0
Note_On_73_Vel_0
Time_Shift_7
Note_On_66_Vel_61
Note_On_58_Vel_56
Time_Shift_1
Note_On_79_Vel_0
Time_Shift_1
Note_On_64_Vel_63
Time_Shift_2
Note_On_73_Vel_80
Time_Shift_51
Sustain_On
Time_Shift_230
Note_On_64_Vel_0
Time_Shift_6
Note_On_72_Vel_86
Time_Shift_2
Note_On_58_Vel_0
Note_On_66_Vel_0
Time_Shift_2
Note_On_64_Vel_61
Time_Shift_2
Note_On_66_Vel_67
Time_Shift_2
Sustain_Off
Time_Shift_3
Note_On_58_Vel_63
Time_Shift_14
Sustain_On
Time_Shift_92
Note_On_73_Vel_0
Time_Shift_8
Note_On_73_Vel_90
Time_Shift_128
Sustain_Off
Time_Shift_3
Note_On_72_Vel_0
Time_Shift_1
Note_On_73_Vel_0
Time_Shift_6
Note_On_76_Vel_90
Note_On_66_Vel_0
Time_Shift_7
Note_On_58_Vel_0
Time_Shift_1
Note_On_66_Vel_67
Time_Shift_9
Note_On_62_Vel_59
Time_Shift_4
Note_On_59_Vel_71
Time_Shift_2
Note_On_64_Vel_0
Time_Shift_46
Sustain_On
Time_Shift_189
Note_On_74_Vel_94
Time_Shift_34
Note_On_66_Vel_0
Time_Shift_7
Note_On_59_Vel_0
Note_On_62_Vel_0
Time_Shift_4
Note_On_66_Vel_68
Time_Shift_3
Note_On_71_Vel_82
Time_Shift_1
Note_On_62_Vel_62
Time_Shift_1
Note_On_59_Vel_59
Time_Shift_260
Note_On_71_Vel_0
Note_On_62_Vel_0
Time_Shift_1
Note_On_59_Vel_0
Note_On_74_Vel_0
Time_Shift_1
Note_On_66_Vel_0
Note_On_76_Vel_0
Time_Shift_2
Sustain_Off
Time_Shift_31
Note_On_73_Vel_94
Time_Shift_9
Note_On_65_Vel_70
Time_Shift_1
Note_On_62_Vel_65
Time_Shift_4
Note_On_71_Vel_73
Time_Shift_4
Note_On_56_Vel_62
Time_Shift_24
Sustain_On
Time_Shift_107
Note_On_71_Vel_0
Time_Shift_6
Note_On_71_Vel_89
Time_Shift_163
Note_On_71_Vel_0
Time_Shift_6
Note_On_71_Vel_72
Time_Shift_27
Note_On_73_Vel_0
Time_Shift_1
Note_On_62_Vel_0
Note_On_65_Vel_0
Note_On_56_Vel_0
Time_Shift_2
Note_On_71_Vel_0
Sustain_Off
Time_Shift_7
Note_On_69_Vel_86
Time_Shift_3
Note_On_45_Vel_75
Time_Shift_36
Note_On_45_Vel_0
Time_Shift_34
Sustain_On
Time_Shift_257
Note_On_68_Vel_74
Note_On_80_Vel_74
Time_Shift_16
Sustain_Off
Time_Shift_23
Note_On_68_Vel_0
Time_Shift_3
Note_On_69_Vel_0
Time_Shift_10
Note_On_81_Vel_76
Time_Shift_1
Note_On_69_Vel_83
Time_Shift_9
Note_On_67_Vel_67
Time_Shift_8
Note_On_57_Vel_57
Time_Shift_1
Note_On_61_Vel_64
Time_Shift_17
Sustain_On
Time_Shift_152
Note_On_83_Vel_92
Time_Shift_155
Note_On_81_Vel_0
Time_Shift_3
Sustain_Off
Time_Shift_2
Note_On_81_Vel_92
Time_Shift_3
Note_On_57_Vel_0
Note_On_61_Vel_0
Note_On_67_Vel_0
Note_On_69_Vel_0
Time_Shift_5
Note_On_67_Vel_71
Note_On_61_Vel_72
Note_On_57_Vel_72
Time_Shift_1
Note_On_69_Vel_73
Time_Shift_2
Note_On_80_Vel_0
Time_Shift_2
Note_On_83_Vel_0
Time_Shift_51
Sustain_On
Time_Shift_288
Note_On_76_Vel_92
Time_Shift_28
Sustain_Off
Time_Shift_2
Note_On_61_Vel_0
Time_Shift_1
Note_On_67_Vel_0
Note_On_81_Vel_0
Note_On_57_Vel_0
Time_Shift_18
Note_On_79_Vel_93
Time_Shift_9
Note_On_50_Vel_82
Time_Shift_8
Note_On_69_Vel_0
Time_Shift_30
Note_On_76_Vel_0
Time_Shift_8
Sustain_On
Time_Shift_23
Note_On_50_Vel_0
Time_Shift_255
Note_On_78_Vel_85
Time_Shift_54
Note_On_74_Vel_88
Time_Shift_8
Sustain_Off
Time_Shift_10
Note_On_66_Vel_67
Time_Shift_1
Note_On_69_Vel_58
Time_Shift_5
Note_On_62_Vel_59
Time_Shift_1
Note_On_57_Vel_57
Time_Shift_4
Note_On_79_Vel_0
Time_Shift_85
Sustain_On
Time_Shift_345
Note_On_78_Vel_0
Time_Shift_10
Note_On_78_Vel_101
Time_Shift_159
Note_On_79_Vel_106
Time_Shift_169
Note_On_81_Vel_102
Time_Shift_3
Note_On_45_Vel_104
Time_Shift_3
Note_On_62_Vel_0
Time_Shift_2
Note_On_74_Vel_0
Time_Shift_1
Note_On_79_Vel_0
Time_Shift_1
Note_On_78_Vel_0
Time_Shift_2
Note_On_57_Vel_0
Note_On_66_Vel_0
Time_Shift_1
Sustain_Off
Time_Shift_18
Note_On_69_Vel_0
Time_Shift_16
Note_On_45_Vel_0
Time_Shift_53
Sustain_On
Time_Shift_325
Note_On_79_Vel_91
Time_Shift_2
Note_On_76_Vel_100
Time_Shift_5
Note_On_67_Vel_93
Time_Shift_11
Note_On_57_Vel_79
Time_Shift_1
Note_On_61_Vel_79
Time_Shift_34
Sustain_Off
Time_Shift_75
Sustain_On
Time_Shift_266
Note_On_78_Vel_86
Time_Shift_11
Note_On_67_Vel_0
Time_Shift_4
Note_On_67_Vel_78
Time_Shift_3
Note_On_57_Vel_0
Note_On_61_Vel_0
Time_Shift_5
Note_On_61_Vel_74
Time_Shift_6
Note_On_57_Vel_70
Time_Shift_112
Note_On_76_Vel_0
Time_Shift_10
Note_On_76_Vel_90
Time_Shift_148
Sustain_Off
Time_Shift_1
Note_On_75_Vel_98
Time_Shift_5
Note_On_78_Vel_0
Time_Shift_1
Note_On_61_Vel_0
Note_On_79_Vel_0
Note_On_76_Vel_0
Time_Shift_1
Note_On_67_Vel_0
Time_Shift_2
Note_On_66_Vel_89
Time_Shift_1
Note_On_57_Vel_0
Note_On_81_Vel_0
Time_Shift_4
Note_On_57_Vel_85
Time_Shift_1
Note_On_60_Vel_82
Time_Shift_80
Sustain_On
Time_Shift_240
Note_On_69_Vel_73
Time_Shift_44
Note_On_66_Vel_0
Note_On_75_Vel_0
Time_Shift_3
Sustain_Off
Time_Shift_1
Note_On_75_Vel_96
Time_Shift_3
Note_On_57_Vel_0
Note_On_60_Vel_0
Time_Shift_2
Note_On_66_Vel_85
Time_Shift_8
Note_On_57_Vel_83
Time_Shift_1
Note_On_60_Vel_86
Time_Shift_82
Sustain_On
Time_Shift_208
Note_On_76_Vel_93
Time_Shift_4
Sustain_Off
Time_Shift_3
Note_On_57_Vel_0
Time_Shift_1
Note_On_67_Vel_85
Time_Shift_2
Note_On_57_Vel_74
Time_Shift_1
Note_On_61_Vel_87
Time_Shift_11
Note_On_66_Vel_0
Note_On_69_Vel_0
Time_Shift_8
Note_On_60_Vel_0
Note_On_75_Vel_0
Time_Shift_69
Sustain_On
Time_Shift_180
Note_On_81_Vel_99
Time_Shift_1
Note_On_45_Vel_96
Time_Shift_2
Sustain_Off
Time_Shift_4
Note_On_61_Vel_0
Time_Shift_1
Note_On_67_Vel_0
Time_Shift_2
Note_On_57_Vel_0
Time_Shift_5
Note_On_76_Vel_0
Time_Shift_31
Note_On_45_Vel_0
Time_Shift_43
Sustain_On
Time_Shift_172
Note_On_83_Vel_100
Time_Shift_162
Note_On_79_Vel_86
Time_Shift_19
Note_On_81_Vel_0
Time_Shift_10
Note_On_81_Vel_94
Time_Shift_10
Note_On_69_Vel_67
Time_Shift_6
Note_On_67_Vel_74
Time_Shift_2
Note_On_57_Vel_70
Time_Shift_5
Note_On_61_Vel_72
Time_Shift_10
Sustain_Off
Time_Shift_6
Note_On_83_Vel_0
Time_Shift_5
Note_On_79_Vel_0
Time_Shift_10
Note_On_79_Vel_99
Time_Shift_82
Sustain_On
Time_Shift_222
Note_On_61_Vel_0
Time_Shift_7
Note_On_78_Vel_98
Time_Shift_1
Note_On_57_Vel_0
Note_On_67_Vel_0
Time_Shift_3
Note_On_61_Vel_78
Time_Shift_3
Note_On_57_Vel_69
Time_Shift_2
Note_On_67_Vel_70
Time_Shift_112
Note_On_76_Vel_101
Time_Shift_147
Note_On_75_Vel_99
Time_Shift_2
Note_On_57_Vel_0
Note_On_69_Vel_0
Time_Shift_4
Sustain_Off
Time_Shift_4
Note_On_66_Vel_76
Time_Shift_2
Note_On_78_Vel_0
Note_On_69_Vel_76
Note_On_57_Vel_74
Note_On_79_Vel_0
Time_Shift_1
Note_On_76_Vel_0
Time_Shift_1
Note_On_60_Vel_78
Time_Shift_11
Note_On_81_Vel_0
Time_Shift_8
Note_On_61_Vel_0
Note_On_67_Vel_0
Time_Shift_76
Sustain_On
Time_Shift_216
Note_On_69_Vel_0
Time_Shift_5
Note_On_81_Vel_77
Time_Shift_1
Note_On_69_Vel_78
Time_Shift_46
Sustain_Off
Time_Shift_1
Note_On_75_Vel_0
Time_Shift_5
Note_On_75_Vel_85
Time_Shift_3
Note_On_57_Vel_0
Note_On_60_Vel_0
Note_On_66_Vel_0
Note_On_69_Vel_0
Time_Shift_4
Note_On_66_Vel_67
Note_On_69_Vel_71
Time_Shift_2
Note_On_60_Vel_57
Time_Shift_2
Note_On_57_Vel_63
Time_Shift_23
Note_On_81_Vel_0
Time_Shift_38
Sustain_On
Time_Shift_236
Note_On_75_Vel_0
Sustain_Off
Time_Shift_7
Note_On_76_Vel_90
Time_Shift_7
Note_On_67_Vel_70
Time_Shift_4
Note_On_57_Vel_0
Note_On_66_Vel_0
Time_Shift_5
Note_On_57_Vel_63
Time_Shift_1
Note_On_61_Vel_68
Time_Shift_1
Note_On_60_Vel_0
Time_Shift_16
Note_On_69_Vel_0
Time_Shift_23
Sustain_On
Time_Shift_211
Note_On_79_Vel_86
Time_Shift_5
Note_On_67_Vel_0
Time_Shift_1
Note_On_57_Vel_0
Time_Shift_1
Note_On_76_Vel_0
Time_Shift_3
Sustain_Off
Time_Shift_3
Note_On_61_Vel_0
Time_Shift_2
Note_On_58_Vel_66
Note_On_66_Vel_65
Time_Shift_5
Note_On_64_Vel_68
Time_Shift_76
Sustain_On
Time_Shift_196
Note_On_78_Vel_79
Time_Shift_106
Note_On_73_Vel_81
Time_Shift_13
Note_On_58_Vel_0
Time_Shift_5
Note_On_58_Vel_47
Time_Shift_23
Note_On_74_Vel_79
Time_Shift_31
Sustain_Off
Time_Shift_2
Note_On_66_Vel_0
Time_Shift_8
Note_On_58_Vel_0
Note_On_64_Vel_0
Note_On_73_Vel_0
Time_Shift_4
Note_On_66_Vel_69
Time_Shift_1
Note_On_64_Vel_60
Time_Shift_1
Note_On_73_Vel_94
Note_On_79_Vel_0
Time_Shift_4
Note_On_78_Vel_0
Note_On_58_Vel_59
Time_Shift_6
Note_On_74_Vel_0
Time_Shift_61
Sustain_On
Time_Shift_199
Note_On_64_Vel_0
Time_Shift_8
Note_On_58_Vel_0
Note_On_66_Vel_0
Time_Shift_2
Note_On_64_Vel_61
Time_Shift_2
Note_On_72_Vel_87
Time_Shift_1
Note_On_66_Vel_68
Time_Shift_2
Note_On_58_Vel_57
Time_Shift_30
Sustain_Off
Time_Shift_17
Sustain_On
Time_Shift_61
Note_On_73_Vel_0
Time_Shift_9
Note_On_73_Vel_93
Time_Shift_152
Note_On_66_Vel_0
Time_Shift_2
Sustain_Off
Time_Shift_1
Note_On_76_Vel_90
Time_Shift_2
Note_On_66_Vel_67
Time_Shift_3
Note_On_58_Vel_0
Time_Shift_2
Note_On_62_Vel_66
Time_Shift_1
Note_On_59_Vel_75
Note_On_72_Vel_0
Time_Shift_2
Note_On_73_Vel_0
Time_Shift_26
Note_On_64_Vel_0
Time_Shift_38
Sustain_On
Time_Shift_196
Note_On_74_Vel_96
Time_Shift_23
Sustain_Off
Time_Shift_19
Note_On_59_Vel_0
Note_On_62_Vel_0
Note_On_66_Vel_0
Time_Shift_4
Note_On_66_Vel_70
Time_Shift_2
Note_On_62_Vel_66
Note_On_59_Vel_69
Time_Shift_4
Note_On_71_Vel_84
Time_Shift_36
Sustain_On
Time_Shift_39
Note_On_76_Vel_0
Time_Shift_180
Note_On_74_Vel_0
Note_On_59_Vel_0
Note_On_71_Vel_0
Time_Shift_1
Note_On_66_Vel_0
Time_Shift_3
Note_On_62_Vel_0
Time_Shift_1
Sustain_Off
Time_Shift_9
Note_On_65_Vel_69
Time_Shift_1
Note_On_62_Vel_61
Time_Shift_16
Note_On_56_Vel_62
Time_Shift_3
Note_On_73_Vel_84
Time_Shift_32
Sustain_On
Time_Shift_101
Note_On_71_Vel_76
Time_Shift_128
Note_On_73_Vel_0
Time_Shift_3
Sustain_Off
Time_Shift_1
Note_On_62_Vel_0
Time_Shift_1
Note_On_56_Vel_0
Note_On_65_Vel_0
Time_Shift_11
Note_On_71_Vel_0
Time_Shift_4
Note_On_71_Vel_79
Time_Shift_13
Note_On_45_Vel_75
Time_Shift_3
Note_On_69_Vel_80
Time_Shift_26
Note_On_45_Vel_0
Time_Shift_23
Sustain_On
Time_Shift_300
Note_On_71_Vel_0
Time_Shift_7
Note_On_68_Vel_66
Time_Shift_4
Note_On_80_Vel_68
Time_Shift_2
Sustain_Off
Time_Shift_2
Note_On_80_Vel_0
Time_Shift_16
Note_On_69_Vel_0
Time_Shift_4
Note_On_69_Vel_73
Time_Shift_1
Note_On_81_Vel_73
Time_Shift_31
Note_On_57_Vel_62
Time_Shift_4
Note_On_67_Vel_58
Time_Shift_5
Note_On_61_Vel_62
Time_Shift_1
Note_On_68_Vel_0
Time_Shift_15
Sustain_On
Time_Shift_114
Note_On_83_Vel_86
Time_Shift_152
Sustain_Off
Time_Shift_1
Note_On_83_Vel_0
Time_Shift_10
Note_On_81_Vel_0
Time_Shift_7
Note_On_57_Vel_0
Note_On_61_Vel_0
Note_On_67_Vel_0
Note_On_69_Vel_0
Time_Shift_3
Note_On_81_Vel_92
Time_Shift_1
Note_On_67_Vel_65
Time_Shift_2
Note_On_57_Vel_59
Time_Shift_1
Note_On_69_Vel_63
Time_Shift_4
Note_On_61_Vel_57
Time_Shift_28
Sustain_On
Time_Shift_274
Note_On_76_Vel_80
Time_Shift_24
Note_On_61_Vel_0
Time_Shift_2
Note_On_69_Vel_0
Note_On_81_Vel_0
Time_Shift_1
Note_On_57_Vel_0
Time_Shift_1
Note_On_67_Vel_0
Time_Shift_2
Sustain_Off
Time_Shift_9
Note_On_76_Vel_0
Time_Shift_15
Note_On_79_Vel_84
Time_Shift_12
Note_On_50_Vel_64
Time_Shift_36
Sustain_On
Time_Shift_348
Note_On_78_Vel_72
Time_Shift_52
Sustain_Off
Time_Shift_7
Note_On_50_Vel_0
Time_Shift_1
Note_On_74_Vel_78
Time_Shift_3
Note_On_78_Vel_0
Time_Shift_4
Note_On_79_Vel_0
Time_Shift_12
Note_On_66_Vel_52
Time_Shift_2
Note_On_62_Vel_46
Time_Shift_5
Note_On_69_Vel_47
Note_On_57_Vel_50
Time_Shift_65
Sustain_On
Time_Shift_697
Note_On_73_Vel_93
Time_Shift_87
Note_On_74_Vel_0
Time_Shift_106
Note_On_74_Vel_105
Time_Shift_132
Note_On_62_Vel_0
Note_On_69_Vel_0
Time_Shift_30
Note_On_73_Vel_0
Sustain_Off
Time_Shift_6
Note_On_76_Vel_99
Time_Shift_2
Note_On_73_Vel_98
Note_On_57_Vel_0
Note_On_66_Vel_0
Time_Shift_2
Note_On_64_Vel_96
Time_Shift_2
Note_On_69_Vel_78
Time_Shift_3
Note_On_57_Vel_87
Time_Shift_8
Note_On_74_Vel_0
Time_Shift_62
Sustain_On
Time_Shift_261
Note_On_57_Vel_0
Note_On_69_Vel_0
Time_Shift_4
Note_On_75_Vel_94
Time_Shift_7
Note_On_72_Vel_85
Note_On_57_Vel_75
Note_On_69_Vel_76
Time_Shift_50
Note_On_76_Vel_0
Time_Shift_6
Note_On_76_Vel_104
Time_Shift_2
Note_On_69_Vel_0
Note_On_73_Vel_0
Time_Shift_5
Note_On_73_Vel_96
Time_Shift_3
Note_On_64_Vel_0
Time_Shift_2
Note_On_69_Vel_85
Time_Shift_2
Note_On_64_Vel_95
Time_Shift_3
Note_On_57_Vel_0
Time_Shift_4
Note_On_57_Vel_86
Time_Shift_19
Note_On_72_Vel_0
Time_Shift_3
Sustain_Off
Note_On_75_Vel_0
Time_Shift_189
Sustain_On
Time_Shift_549
Note_On_71_Vel_95
Time_Shift_1
Note_On_68_Vel_93
Note_On_40_Vel_96
Time_Shift_11
Note_On_57_Vel_0
Time_Shift_14
Sustain_Off
Time_Shift_32
Note_On_73_Vel_0
Time_Shift_23
Note_On_64_Vel_0
Time_Shift_54
Sustain_On
Time_Shift_46
Note_On_69_Vel_0
Time_Shift_37
Note_On_73_Vel_96
Time_Shift_1
Note_On_40_Vel_0
Time_Shift_4
Note_On_52_Vel_64
Time_Shift_1
Note_On_40_Vel_73
Time_Shift_3
Note_On_52_Vel_0
Time_Shift_3
Note_On_69_Vel_75
Time_Shift_59
Note_On_76_Vel_0
Time_Shift_80
Note_On_74_Vel_84
Time_Shift_61
Note_On_76_Vel_84
Time_Shift_5
Note_On_71_Vel_0
Time_Shift_3
Note_On_64_Vel_74
Note_On_62_Vel_86
Time_Shift_2
Note_On_59_Vel_86
Time_Shift_1
Note_On_71_Vel_76
Time_Shift_3
Note_On_52_Vel_77
Time_Shift_3
Sustain_Off
Time_Shift_14
Note_On_73_Vel_0
Note_On_69_Vel_0
Note_On_74_Vel_0
Time_Shift_1
Note_On_68_Vel_0
Time_Shift_7
Note_On_40_Vel_0
Time_Shift_18
Note_On_59_Vel_0
Time_Shift_9
Note_On_64_Vel_0
Time_Shift_15
Note_On_52_Vel_0
Note_On_71_Vel_0
Time_Shift_46
Sustain_On
Time_Shift_31
Note_On_62_Vel_0
Time_Shift_46
Note_On_76_Vel_0
Time_Shift_110
Note_On_73_Vel_91
Time_Shift_2
Note_On_62_Vel_79
Time_Shift_11
Note_On_69_Vel_76
Time_Shift_3
Note_On_59_Vel_74
Time_Shift_2
Note_On_52_Vel_64
Time_Shift_113
Note_On_71_Vel_91
Time_Shift_15
Note_On_68_Vel_81
Time_Shift_133
Note_On_73_Vel_0
Note_On_68_Vel_0
Note_On_62_Vel_0
Time_Shift_1
Note_On_59_Vel_0
Note_On_71_Vel_0
Time_Shift_2
Note_On_69_Vel_0
Time_Shift_1
Sustain_Off
Time_Shift_1
Note_On_52_Vel_0
Time_Shift_2
Note_On_45_Vel_96
Time_Shift_3
Note_On_69_Vel_90
Time_Shift_1
Note_On_57_Vel_82
Time_Shift_36
Note_On_45_Vel_0
Time_Shift_56
Sustain_On
Time_Shift_100
Note_On_57_Vel_0
Time_Shift_31
Note_On_73_Vel_89
Time_Shift_68
Note_On_69_Vel_0
Time_Shift_2
Note_On_76_Vel_100
Time_Shift_4
Note_On_69_Vel_84
Time_Shift_1
Note_On_64_Vel_91
Time_Shift_6
Note_On_57_Vel_75
Time_Shift_2
Note_On_61_Vel_78
Time_Shift_6
Sustain_Off
Time_Shift_102
Sustain_On
Time_Shift_236
Note_On_80_Vel_100
Time_Shift_5
Note_On_71_Vel_81
Time_Shift_11
Note_On_77_Vel_69
Note_On_65_Vel_73
Time_Shift_11
Note_On_62_Vel_70
Time_Shift_4
Sustain_Off
Time_Shift_2
Note_On_73_Vel_0
Time_Shift_2
Note_On_61_Vel_0
Time_Shift_3
Note_On_64_Vel_0
Note_On_76_Vel_0
Time_Shift_18
Note_On_69_Vel_0
Time_Shift_62
Note_On_77_Vel_0
Time_Shift_7
Sustain_On
Time_Shift_277
Note_On_57_Vel_0
Time_Shift_3
Note_On_81_Vel_96
Time_Shift_2
Note_On_57_Vel_75
Time_Shift_1
Note_On_73_Vel_91
Note_On_64_Vel_83
Time_Shift_2
Note_On_69_Vel_77
Time_Shift_2
Note_On_61_Vel_82
Time_Shift_4
Sustain_Off
Time_Shift_28
Note_On_62_Vel_0
Time_Shift_1
Note_On_71_Vel_0
Time_Shift_1
Note_On_80_Vel_0
Time_Shift_2
Note_On_65_Vel_0
Time_Shift_61
Sustain_On
Time_Shift_269
Note_On_57_Vel_0
Note_On_64_Vel_0
Time_Shift_4
Note_On_80_Vel_91
Note_On_57_Vel_73
Time_Shift_1
Note_On_64_Vel_74
Time_Shift_1
Note_On_71_Vel_81
Time_Shift_63
Note_On_81_Vel_0
Time_Shift_8
Note_On_73_Vel_0
Time_Shift_3
Note_On_81_Vel_101
Time_Shift_5
Note_On_57_Vel_0
Note_On_64_Vel_0
Note_On_69_Vel_0
Time_Shift_2
Note_On_73_Vel_94
Time_Shift_1
Note_On_64_Vel_77
Note_On_69_Vel_76
Time_Shift_6
Note_On_57_Vel_82
Time_Shift_16
Sustain_Off
Time_Shift_16
Note_On_71_Vel_0
Note_On_61_Vel_0
Time_Shift_166
Sustain_On
Time_Shift_130
Note_On_80_Vel_0
Time_Shift_478
Sustain_Off
Time_Shift_2
Note_On_47_Vel_92
Time_Shift_1
Note_On_78_Vel_96
Time_Shift_6
Note_On_75_Vel_87
Time_Shift_5
Note_On_64_Vel_0
Time_Shift_8
Note_On_69_Vel_0
Note_On_73_Vel_0
Time_Shift_92
Sustain_On
Time_Shift_46
Note_On_81_Vel_0
Time_Shift_32
Note_On_80_Vel_100
Time_Shift_8
Note_On_76_Vel_83
Time_Shift_158
Note_On_81_Vel_88
Time_Shift_9
Note_On_78_Vel_0
Time_Shift_11
Note_On_78_Vel_66
Time_Shift_30
Note_On_83_Vel_80
Time_Shift_25
Note_On_63_Vel_80
Time_Shift_3
Note_On_57_Vel_0
Note_On_78_Vel_0
Time_Shift_5
Note_On_59_Vel_86
Note_On_80_Vel_0
Time_Shift_1
Note_On_54_Vel_77
Note_On_69_Vel_69
Time_Shift_1
Note_On_76_Vel_0
Time_Shift_4
Note_On_57_Vel_77
Note_On_71_Vel_66
Time_Shift_1
Note_On_78_Vel_83
Sustain_Off
Time_Shift_19
Note_On_47_Vel_0
Time_Shift_62
Sustain_On
Time_Shift_222
Note_On_63_Vel_0
Time_Shift_8
Note_On_54_Vel_0
Note_On_57_Vel_0
Note_On_59_Vel_0
Time_Shift_2
Note_On_92_Vel_93
Time_Shift_1
Note_On_80_Vel_99
Time_Shift_1
Note_On_63_Vel_84
Note_On_57_Vel_72
Note_On_59_Vel_72
Time_Shift_4
Note_On_92_Vel_0
Time_Shift_1
Note_On_76_Vel_87
Note_On_88_Vel_82
Time_Shift_2
Note_On_54_Vel_70
Time_Shift_119
Note_On_78_Vel_0
Time_Shift_5
Note_On_90_Vel_86
Time_Shift_3
Note_On_75_Vel_0
Time_Shift_3
Note_On_78_Vel_97
Time_Shift_5
Note_On_90_Vel_0
Time_Shift_1
Note_On_87_Vel_78
Time_Shift_2
Note_On_75_Vel_86
Time_Shift_133
Sustain_Off
Time_Shift_1
Note_On_83_Vel_0
Note_On_59_Vel_0
Time_Shift_1
Note_On_78_Vel_0
Note_On_63_Vel_0
Time_Shift_1
Note_On_75_Vel_0
Note_On_57_Vel_0
Time_Shift_7
Note_On_76_Vel_0
Note_On_81_Vel_0
Note_On_87_Vel_0
Note_On_88_Vel_0
Time_Shift_4
Note_On_76_Vel_101
Time_Shift_2
Note_On_88_Vel_94
Note_On_40_Vel_96
Time_Shift_1
Note_On_54_Vel_0
Note_On_69_Vel_0
Note_On_71_Vel_0
Time_Shift_45
Note_On_40_Vel_0
Time_Shift_32
Sustain_On
Time_Shift_169
Note_On_80_Vel_0
Time_Shift_6
Note_On_80_Vel_83
Time_Shift_51
Note_On_83_Vel_102
Time_Shift_15
Note_On_59_Vel_92
Time_Shift_2
Note_On_52_Vel_70
Note_On_56_Vel_80
Time_Shift_19
Sustain_Off
Time_Shift_13
Note_On_76_Vel_0
Time_Shift_40
Note_On_88_Vel_0
Time_Shift_31
Sustain_On
Time_Shift_210
Note_On_87_Vel_101
Time_Shift_5
Note_On_52_Vel_0
Time_Shift_11
Note_On_52_Vel_72
Time_Shift_1
Note_On_78_Vel_80
Time_Shift_4
Note_On_60_Vel_85
Time_Shift_2
Note_On_57_Vel_81
Time_Shift_15
Sustain_Off
Time_Shift_23
Note_On_59_Vel_0
Time_Shift_1
Note_On_56_Vel_0
Time_Shift_1
Note_On_83_Vel_0
Time_Shift_34
Note_On_80_Vel_0
Time_Shift_15
Sustain_On
Time_Shift_280
Note_On_88_Vel_102
Time_Shift_4
Note_On_59_Vel_94
Time_Shift_1
Note_On_52_Vel_0
Time_Shift_2
Note_On_80_Vel_86
Time_Shift_2
Note_On_76_Vel_76
Note_On_52_Vel_79
Time_Shift_5
Note_On_56_Vel_82
Time_Shift_38
Note_On_57_Vel_0
Time_Shift_1
Note_On_60_Vel_0
Time_Shift_1
Sustain_Off
Time_Shift_1
Note_On_78_Vel_0
Time_Shift_1
Note_On_87_Vel_0
Time_Shift_79
Sustain_On
Time_Shift_246
Note_On_52_Vel_0
Note_On_59_Vel_0
Time_Shift_5
Note_On_64_Vel_79
Time_Shift_3
Note_On_56_Vel_0
Note_On_87_Vel_92
Time_Shift_3
Note_On_52_Vel_76
Note_On_78_Vel_82
Note_On_59_Vel_84
Time_Shift_3
Note_On_56_Vel_68
Time_Shift_63
Note_On_88_Vel_0
Time_Shift_7
Note_On_52_Vel_0
Note_On_64_Vel_0
Note_On_80_Vel_0
Note_On_88_Vel_103
Time_Shift_5
Note_On_80_Vel_91
Time_Shift_3
Note_On_59_Vel_0
Time_Shift_1
Note_On_64_Vel_87
Time_Shift_2
Note_On_52_Vel_82
Time_Shift_7
Note_On_59_Vel_85
Time_Shift_16
Sustain_Off
Time_Shift_11
Note_On_78_Vel_0
Time_Shift_63
Note_On_76_Vel_0
Time_Shift_92
Note_On_87_Vel_0
Time_Shift_15
Sustain_On
Time_Shift_23
Note_On_56_Vel_0
Time_Shift_567
Note_On_76_Vel_97
Time_Shift_2
Note_On_64_Vel_0
Time_Shift_1
Note_On_73_Vel_98
Time_Shift_3
Note_On_69_Vel_85
Note_On_64_Vel_93
Time_Shift_1
Note_On_57_Vel_94
Time_Shift_3
Sustain_Off
Time_Shift_22
Note_On_59_Vel_0
Time_Shift_8
Note_On_52_Vel_0
Note_On_88_Vel_0
Time_Shift_8
Note_On_80_Vel_0
Time_Shift_54
Sustain_On
Time_Shift_23
Note_On_64_Vel_0
Time_Shift_161
Note_On_57_Vel_0
Time_Shift_4
Note_On_75_Vel_83
Time_Shift_3
Note_On_64_Vel_80
Time_Shift_1
Note_On_72_Vel_80
Time_Shift_3
Note_On_57_Vel_70
Time_Shift_58
Note_On_73_Vel_0
Note_On_76_Vel_0
Time_Shift_4
Note_On_76_Vel_97
Time_Shift_1
Note_On_73_Vel_94
Time_Shift_3
Note_On_64_Vel_0
Time_Shift_9
Note_On_64_Vel_78
Time_Shift_22
Sustain_Off
Time_Shift_61
Note_On_75_Vel_0
Time_Shift_23
Note_On_72_Vel_0
Time_Shift_23
Sustain_On
Time_Shift_253
Note_On_76_Vel_0
Time_Shift_5
Note_On_76_Vel_107
Time_Shift_1
Note_On_88_Vel_90
Time_Shift_10
Note_On_88_Vel_0
Time_Shift_376
Note_On_64_Vel_0
Note_On_69_Vel_0
Time_Shift_3
Note_On_88_Vel_100
Time_Shift_3
Note_On_64_Vel_89
Time_Shift_1
Note_On_83_Vel_78
Note_On_80_Vel_84
Time_Shift_1
Note_On_76_Vel_0
Time_Shift_1
Note_On_59_Vel_88
Note_On_52_Vel_85
Time_Shift_3
Note_On_76_Vel_69
Time_Shift_31
Sustain_Off
Time_Shift_21
Note_On_73_Vel_0
Time_Shift_1
Note_On_57_Vel_0
Time_Shift_66
Sustain_On
Time_Shift_230
Note_On_64_Vel_0
Time_Shift_23
Note_On_76_Vel_0
Time_Shift_23
Note_On_83_Vel_0
Time_Shift_6
Note_On_87_Vel_92
Time_Shift_2
Note_On_52_Vel_0
Note_On_59_Vel_0
Time_Shift_2
Note_On_78_Vel_86
Time_Shift_1
Note_On_83_Vel_76
Time_Shift_1
Note_On_64_Vel_82
Time_Shift_4
Note_On_59_Vel_88
Note_On_52_Vel_83
Time_Shift_61
Note_On_88_Vel_0
Time_Shift_8
Note_On_80_Vel_0
Note_On_88_Vel_103
Time_Shift_5
Note_On_80_Vel_94
Time_Shift_2
Note_On_52_Vel_0
Note_On_59_Vel_0
Note_On_64_Vel_0
Time_Shift_5
Note_On_64_Vel_92
Note_On_59_Vel_95
Time_Shift_5
Note_On_52_Vel_92
Time_Shift_47
Sustain_Off
Time_Shift_5
Note_On_78_Vel_0
Time_Shift_153
Note_On_87_Vel_0
Time_Shift_31
Sustain_On
Time_Shift_545
Note_On_83_Vel_0
Time_Shift_37
Sustain_Off
Time_Shift_17
Note_On_59_Vel_0
Note_On_64_Vel_0
Time_Shift_5
Note_On_73_Vel_98
Time_Shift_2
Note_On_76_Vel_96
Time_Shift_4
Note_On_64_Vel_94
Note_On_69_Vel_82
Time_Shift_3
Note_On_57_Vel_91
Time_Shift_1
Note_On_52_Vel_0
Note_On_80_Vel_0
Time_Shift_8
Note_On_88_Vel_0
Time_Shift_46
Sustain_On
Time_Shift_254
Note_On_57_Vel_0
Time_Shift_7
Note_On_64_Vel_0
Note_On_69_Vel_0
Time_Shift_2
Note_On_57_Vel_78
Time_Shift_1
Note_On_72_Vel_87
Time_Shift_1
Note_On_75_Vel_80
Time_Shift_1
Note_On_69_Vel_77
Note_On_64_Vel_70
Time_Shift_57
Note_On_73_Vel_0
Note_On_76_Vel_0
Time_Shift_5
Note_On_76_Vel_97
Note_On_73_Vel_97
Time_Shift_2
Note_On_81_Vel_82
Note_On_69_Vel_0
Time_Shift_8
Note_On_64_Vel_0
Time_Shift_2
Note_On_69_Vel_82
Time_Shift_3
Note_On_64_Vel_82
Time_Shift_3
Note_On_57_Vel_0
Time_Shift_6
Note_On_57_Vel_88
Time_Shift_7
Note_On_72_Vel_0
Time_Shift_3
Note_On_75_Vel_0
Time_Shift_2
Sustain_Off
Time_Shift_158
Sustain_On
Time_Shift_16
Note_On_81_Vel_0
Time_Shift_276
Note_On_73_Vel_0
Note_On_76_Vel_0
Time_Shift_5
Note_On_76_Vel_105
Note_On_88_Vel_93
Time_Shift_3
Note_On_73_Vel_89
Time_Shift_8
Note_On_88_Vel_0
Time_Shift_399
Note_On_57_Vel_0
Note_On_69_Vel_0
Time_Shift_1
Note_On_73_Vel_0
Time_Shift_2
Note_On_76_Vel_0
Sustain_Off
Time_Shift_4
Note_On_57_Vel_95
Time_Shift_3
Note_On_81_Vel_103
Time_Shift_1
Note_On_45_Vel_103
Note_On_69_Vel_97
Time_Shift_4
Note_On_64_Vel_0
Time_Shift_48
Note_On_45_Vel_0
Time_Shift_29
Sustain_On
Time_Shift_8
Note_On_57_Vel_0
Time_Shift_399
Note_On_76_Vel_96
Note_On_69_Vel_0
Time_Shift_6
Note_On_67_Vel_76
Time_Shift_5
Note_On_69_Vel_69
Time_Shift_2
Note_On_61_Vel_70
Note_On_57_Vel_67
Time_Shift_27
Sustain_Off
Time_Shift_129
Note_On_81_Vel_0
Sustain_On
Time_Shift_108
Note_On_69_Vel_0
Time_Shift_130
Note_On_61_Vel_0
Time_Shift_5
Note_On_78_Vel_85
Time_Shift_3
Note_On_67_Vel_0
Time_Shift_2
Note_On_61_Vel_63
Time_Shift_6
Note_On_67_Vel_59
Time_Shift_1
Note_On_69_Vel_57
Time_Shift_6
Note_On_57_Vel_0
Time_Shift_6
Note_On_57_Vel_56
Time_Shift_117
Note_On_76_Vel_0
Time_Shift_8
Note_On_76_Vel_91
Time_Shift_113
Note_On_69_Vel_0
Time_Shift_3
Note_On_76_Vel_0
Note_On_78_Vel_0
Time_Shift_1
Sustain_Off
Time_Shift_21
Note_On_61_Vel_0
Note_On_67_Vel_0
Time_Shift_8
Note_On_57_Vel_0
Time_Shift_1
Note_On_75_Vel_86
Time_Shift_8
Note_On_57_Vel_68
Time_Shift_2
Note_On_66_Vel_67
Time_Shift_4
Note_On_60_Vel_66
Time_Shift_46
Sustain_On
Time_Shift_219
Note_On_81_Vel_66
Time_Shift_1
Note_On_69_Vel_70
Time_Shift_3
Note_On_81_Vel_0
Time_Shift_12
Sustain_Off
Time_Shift_26
Note_On_57_Vel_0
Note_On_60_Vel_0
Note_On_66_Vel_0
Note_On_75_Vel_0
Time_Shift_4
Note_On_75_Vel_90
Time_Shift_1
Note_On_66_Vel_64
Time_Shift_1
Note_On_57_Vel_65
Time_Shift_5
Note_On_60_Vel_55
Time_Shift_35
Sustain_On
Time_Shift_223
Note_On_69_Vel_0
Time_Shift_2
Note_On_76_Vel_94
Time_Shift_3
Note_On_67_Vel_80
Time_Shift_3
Note_On_57_Vel_0
Time_Shift_3
Sustain_Off
Note_On_61_Vel_78
Note_On_69_Vel_71
Time_Shift_5
Note_On_57_Vel_70
Time_Shift_11
Note_On_75_Vel_0
Time_Shift_12
Note_On_66_Vel_0
Time_Shift_7
Note_On_60_Vel_0
Time_Shift_39
Sustain_On
Time_Shift_23
Note_On_69_Vel_0
Time_Shift_171
Note_On_45_Vel_97
Time_Shift_1
Note_On_81_Vel_99
Time_Shift_8
Sustain_Off
Time_Shift_1
Note_On_61_Vel_0
Time_Shift_5
Note_On_67_Vel_0
Time_Shift_6
Note_On_76_Vel_0
Time_Shift_17
Note_On_45_Vel_0
Time_Shift_6
Note_On_57_Vel_0
Time_Shift_46
Sustain_On
Time_Shift_177
Note_On_83_Vel_92
Time_Shift_112
Note_On_79_Vel_81
Time_Shift_41
Note_On_81_Vel_0
Time_Shift_11
Note_On_81_Vel_96
Time_Shift_17
Note_On_67_Vel_78
Time_Shift_2
Note_On_57_Vel_68
Time_Shift_1
Note_On_79_Vel_0
Time_Shift_2
Note_On_69_Vel_67
Time_Shift_1
Note_On_61_Vel_66
Sustain_Off
Time_Shift_7
Note_On_79_Vel_92
Time_Shift_1
Note_On_83_Vel_0
Time_Shift_96
Sustain_On
Time_Shift_261
Note_On_61_Vel_0
Note_On_67_Vel_0
Time_Shift_8
Note_On_57_Vel_0
Time_Shift_1
Note_On_67_Vel_65
Time_Shift_1
Note_On_78_Vel_87
Time_Shift_2
Note_On_61_Vel_69
Time_Shift_3
Note_On_57_Vel_62
Time_Shift_113
Note_On_76_Vel_96
Time_Shift_99
Note_On_69_Vel_0
Time_Shift_1
Note_On_78_Vel_0
Note_On_61_Vel_0
Note_On_67_Vel_0
Time_Shift_1
Note_On_79_Vel_0
Time_Shift_8
Sustain_Off
Time_Shift_17
Note_On_81_Vel_0
Time_Shift_7
Note_On_57_Vel_0
Time_Shift_12
Note_On_75_Vel_95
Note_On_57_Vel_69
Time_Shift_2
Note_On_66_Vel_74
Time_Shift_6
Note_On_60_Vel_72
Time_Shift_27
Sustain_On
Time_Shift_38
Note_On_76_Vel_0
Time_Shift_177
Note_On_57_Vel_0
Note_On_66_Vel_0
Time_Shift_4
Note_On_57_Vel_52
Time_Shift_1
Note_On_69_Vel_73
Note_On_81_Vel_71
Time_Shift_3
Note_On_66_Vel_52
Time_Shift_7
Note_On_81_Vel_0
Time_Shift_21
Sustain_Off
Time_Shift_10
Note_On_75_Vel_0
Time_Shift_7
Note_On_57_Vel_0
Note_On_60_Vel_0
Note_On_66_Vel_0
Time_Shift_4
Note_On_75_Vel_90
Time_Shift_1
Note_On_60_Vel_61
Note_On_66_Vel_70
Time_Shift_2
Note_On_57_Vel_67
Time_Shift_34
Note_On_69_Vel_0
Time_Shift_28
Sustain_On
Time_Shift_213
Sustain_Off
Time_Shift_3
Note_On_57_Vel_0
Time_Shift_3
Note_On_76_Vel_92
Time_Shift_4
Note_On_61_Vel_72
Note_On_67_Vel_71
Time_Shift_3
Note_On_57_Vel_65
Time_Shift_17
Note_On_75_Vel_0
Time_Shift_11
Note_On_60_Vel_0
Time_Shift_15
Note_On_66_Vel_0
Time_Shift_23
Sustain_On
Time_Shift_195
Note_On_79_Vel_94
Time_Shift_9
Note_On_66_Vel_67
Time_Shift_1
Sustain_Off
Note_On_67_Vel_0
Note_On_64_Vel_72
Note_On_58_Vel_68
Time_Shift_4
Note_On_76_Vel_0
Time_Shift_1
Note_On_61_Vel_0
Time_Shift_13
Note_On_57_Vel_0
Time_Shift_20
Note_On_66_Vel_0
Time_Shift_57
Sustain_On
Time_Shift_181
Note_On_78_Vel_78
Time_Shift_80
Note_On_64_Vel_0
Time_Shift_11
Note_On_73_Vel_74
Note_On_64_Vel_40
Time_Shift_40
Note_On_74_Vel_81
Time_Shift_8
Note_On_78_Vel_0
Time_Shift_4
Note_On_58_Vel_0
Time_Shift_5
Sustain_Off
Time_Shift_1
Note_On_79_Vel_0
Time_Shift_23
Note_On_64_Vel_0
Note_On_73_Vel_0
Time_Shift_5
Note_On_66_Vel_65
Note_On_64_Vel_65
Note_On_73_Vel_92
Time_Shift_3
Note_On_74_Vel_0
Time_Shift_11
Note_On_58_Vel_59
Time_Shift_50
Sustain_On
Time_Shift_246
Note_On_64_Vel_0
Note_On_66_Vel_0
Time_Shift_5
Note_On_72_Vel_89
Time_Shift_5
Note_On_64_Vel_61
Time_Shift_1
Note_On_66_Vel_65
Time_Shift_2
Sustain_Off
Time_Shift_2
Note_On_58_Vel_0
Time_Shift_6
Note_On_58_Vel_57
Time_Shift_33
Sustain_On
Time_Shift_69
Note_On_73_Vel_0
Time_Shift_9
Note_On_73_Vel_91
Time_Shift_140
Sustain_Off
Time_Shift_4
Note_On_66_Vel_0
Time_Shift_2
Note_On_76_Vel_91
Time_Shift_2
Note_On_64_Vel_0
Note_On_72_Vel_0
Time_Shift_4
Note_On_73_Vel_0
Time_Shift_2
Note_On_66_Vel_60
Time_Shift_3
Note_On_62_Vel_58
Time_Shift_3
Note_On_58_Vel_0
Time_Shift_2
Note_On_59_Vel_61
Time_Shift_75
Sustain_On
Time_Shift_160
Note_On_74_Vel_93
Time_Shift_24
Sustain_Off
Time_Shift_23
Note_On_62_Vel_0
Note_On_66_Vel_0
Time_Shift_5
Note_On_66_Vel_74
Time_Shift_3
Note_On_59_Vel_0
Note_On_76_Vel_0
Time_Shift_2
Note_On_71_Vel_88
Note_On_62_Vel_55
Time_Shift_7
Note_On_59_Vel_63
Time_Shift_21
Sustain_On
Time_Shift_212
Note_On_71_Vel_0
Time_Shift_4
Note_On_66_Vel_0
Time_Shift_1
Note_On_59_Vel_0
Time_Shift_1
Sustain_Off
Time_Shift_35
Note_On_65_Vel_65
Time_Shift_1
Note_On_62_Vel_0
Time_Shift_5
Note_On_62_Vel_59
Time_Shift_5
Note_On_73_Vel_84
Time_Shift_3
Note_On_56_Vel_58
Time_Shift_33
Sustain_On
Time_Shift_113
Note_On_71_Vel_83
Time_Shift_167
Sustain_Off
Note_On_73_Vel_0
Time_Shift_3
Note_On_62_Vel_0
Time_Shift_1
Note_On_65_Vel_0
Note_On_71_Vel_0
Time_Shift_1
Note_On_56_Vel_0
Time_Shift_4
Note_On_71_Vel_76
Time_Shift_3
Note_On_74_Vel_0
Time_Shift_18
Note_On_69_Vel_80
Time_Shift_10
Note_On_45_Vel_76
Time_Shift_49
Note_On_45_Vel_0
Time_Shift_7
Sustain_On
Time_Shift_304
Note_On_68_Vel_71
Note_On_80_Vel_69
Time_Shift_31
Sustain_Off
Time_Shift_3
Note_On_71_Vel_0
Time_Shift_2
Note_On_68_Vel_0
Time_Shift_6
Note_On_69_Vel_0
Time_Shift_3
Note_On_81_Vel_77
Time_Shift_1
Note_On_69_Vel_80
Time_Shift_26
Note_On_67_Vel_59
Time_Shift_2
Note_On_57_Vel_57
Time_Shift_3
Note_On_61_Vel_59
Time_Shift_11
Note_On_80_Vel_0
Time_Shift_23
Sustain_On
Time_Shift_145
Note_On_83_Vel_94
Time_Shift_181
Sustain_Off
Time_Shift_4
Note_On_67_Vel_0
Note_On_81_Vel_0
Time_Shift_8
Note_On_57_Vel_0
Note_On_69_Vel_0
Time_Shift_1
Note_On_81_Vel_92
Time_Shift_2
Note_On_67_Vel_67
Time_Shift_5
Note_On_61_Vel_0
Time_Shift_2
Note_On_57_Vel_57
Time_Shift_1
Note_On_69_Vel_63
Time_Shift_5
Note_On_61_Vel_58
Time_Shift_16
Note_On_83_Vel_0
Time_Shift_68
Sustain_On
Time_Shift_238
Note_On_69_Vel_0
Time_Shift_3
Note_On_76_Vel_79
Time_Shift_8
Note_On_69_Vel_51
Time_Shift_33
Note_On_76_Vel_0
Time_Shift_2
Note_On_67_Vel_0
Time_Shift_2
Sustain_Off
Time_Shift_6
Note_On_61_Vel_0
Time_Shift_7
Note_On_57_Vel_0
Time_Shift_13
Note_On_79_Vel_83
Time_Shift_22
Note_On_50_Vel_59
Time_Shift_19
Note_On_69_Vel_0
Time_Shift_8
Sustain_On
Time_Shift_30
Note_On_81_Vel_0
Time_Shift_356
Note_On_78_Vel_69
Time_Shift_78
Note_On_74_Vel_65
Time_Shift_10
Sustain_Off
Time_Shift_10
Note_On_50_Vel_0
Time_Shift_3
Note_On_78_Vel_0
Time_Shift_2
Note_On_66_Vel_38
Time_Shift_2
Note_On_79_Vel_0
Time_Shift_9
Note_On_57_Vel_36
Time_Shift_3
Note_On_62_Vel_31
Time_Shift_165
Sustain_On
Time_Shift_660
Note_On_74_Vel_0
Time_Shift_4
Sustain_Off
Time_Shift_7
Note_On_74_Vel_52
Time_Shift_1
Note_On_62_Vel_0
Note_On_57_Vel_0
Time_Shift_1
Note_On_66_Vel_0
Time_Shift_7
Note_On_71_Vel_41
Time_Shift_119
Sustain_On
Time_Shift_491
Note_On_74_Vel_0
Time_Shift_5
Note_On_74_Vel_45
Time_Shift_3
Note_On_71_Vel_0
Time_Shift_4
Note_On_71_Vel_45
Time_Shift_7
Note_On_43_Vel_40
Time_Shift_2
Note_On_50_Vel_25
Time_Shift_3
Note_On_67_Vel_27
Time_Shift_14
Sustain_Off
Time_Shift_216
Sustain_On
Time_Shift_168
Note_On_72_Vel_59
Time_Shift_2
Note_On_76_Vel_45
Time_Shift_91
Note_On_50_Vel_0
Time_Shift_7
Note_On_67_Vel_0
Note_On_71_Vel_0
Time_Shift_3
Note_On_50_Vel_51
Time_Shift_2
Note_On_71_Vel_60
Time_Shift_2
Note_On_67_Vel_56
Time_Shift_22
Note_On_59_Vel_42
Time_Shift_409
Note_On_72_Vel_0
Time_Shift_4
Note_On_72_Vel_60
Time_Shift_4
Note_On_50_Vel_0
Note_On_59_Vel_0
Time_Shift_6
Note_On_69_Vel_51
Time_Shift_5
Note_On_50_Vel_48
Note_On_59_Vel_47
Time_Shift_350
Note_On_43_Vel_0
Note_On_76_Vel_0
Time_Shift_7
Note_On_72_Vel_0
Time_Shift_1
Note_On_76_Vel_55
Time_Shift_3
Note_On_43_Vel_48
Time_Shift_4
Note_On_50_Vel_0
Time_Shift_3
Note_On_72_Vel_54
Time_Shift_1
Note_On_50_Vel_37
Time_Shift_273
Note_On_67_Vel_0
Note_On_71_Vel_0
Note_On_74_Vel_0
Time_Shift_4
Note_On_74_Vel_69
Time_Shift_1
Note_On_71_Vel_70
Time_Shift_5
Note_On_67_Vel_48
Time_Shift_97
Note_On_71_Vel_0
Time_Shift_11
Note_On_71_Vel_67
Time_Shift_27
Note_On_50_Vel_0
Note_On_67_Vel_0
Time_Shift_4
Note_On_50_Vel_48
Time_Shift_4
Note_On_59_Vel_0
Time_Shift_3
Note_On_67_Vel_41
Time_Shift_6
Note_On_59_Vel_41
Time_Shift_329
Note_On_50_Vel_0
Note_On_59_Vel_0
Time_Shift_10
Note_On_50_Vel_52
Time_Shift_1
Note_On_59_Vel_56
Time_Shift_127
Note_On_74_Vel_0
Time_Shift_8
Note_On_71_Vel_0
Time_Shift_1
Note_On_74_Vel_71
Time_Shift_3
Note_On_71_Vel_61
Time_Shift_180
Note_On_71_Vel_0
Time_Shift_8
Note_On_74_Vel_0
Time_Shift_3
Note_On_71_Vel_57
Time_Shift_2
Note_On_74_Vel_59
Time_Shift_33
Note_On_72_Vel_0
Note_On_76_Vel_0
Time_Shift_4
Note_On_76_Vel_59
Time_Shift_8
Note_On_72_Vel_63
Time_Shift_12
Note_On_67_Vel_0
Time_Shift_1
Note_On_71_Vel_0
Note_On_50_Vel_0
Time_Shift_2
Note_On_59_Vel_0
Time_Shift_1
Sustain_Off
Time_Shift_18
Note_On_69_Vel_0
Time_Shift_8
Note_On_43_Vel_0
Time_Shift_8
Note_On_74_Vel_0
Time_Shift_8
Note_On_74_Vel_78
Time_Shift_7
Note_On_76_Vel_0
Time_Shift_8
Note_On_72_Vel_0
Time_Shift_7
Note_On_71_Vel_68
Time_Shift_4
Note_On_43_Vel_44
Time_Shift_43
Sustain_On
Time_Shift_278
Note_On_73_Vel_75
Time_Shift_8
Note_On_70_Vel_56
Time_Shift_41
Sustain_Off
Time_Shift_3
Note_On_74_Vel_0
Time_Shift_4
Note_On_74_Vel_75
Time_Shift_4
Note_On_71_Vel_0
Time_Shift_11
Note_On_71_Vel_70
Time_Shift_4
Sustain_On
Time_Shift_4
Note_On_50_Vel_53
Time_Shift_4
Note_On_59_Vel_61
Time_Shift_118
Note_On_76_Vel_74
Time_Shift_1
Note_On_72_Vel_77
Time_Shift_134
Note_On_71_Vel_0
Time_Shift_10
Note_On_71_Vel_73
Time_Shift_5
Note_On_50_Vel_0
Time_Shift_8
Note_On_59_Vel_0
Time_Shift_3
Note_On_50_Vel_58
Time_Shift_1
Note_On_67_Vel_63
Time_Shift_1
Note_On_59_Vel_66
Time_Shift_110
Note_On_72_Vel_0
Time_Shift_9
Note_On_72_Vel_81
Time_Shift_3
Note_On_69_Vel_70
Time_Shift_129
Sustain_Off
Time_Shift_1
Note_On_73_Vel_0
Time_Shift_1
Note_On_69_Vel_0
Note_On_67_Vel_0
Note_On_74_Vel_0
Time_Shift_1
Note_On_59_Vel_0
Note_On_50_Vel_0
Time_Shift_2
Note_On_76_Vel_0
Time_Shift_7
Note_On_76_Vel_74
Time_Shift_9
Note_On_43_Vel_0
Note_On_70_Vel_0
Note_On_72_Vel_0
Time_Shift_5
Note_On_43_Vel_51
Note_On_72_Vel_63
Time_Shift_2
Note_On_71_Vel_0
Time_Shift_39
Sustain_On
Time_Shift_83
Note_On_74_Vel_76
Time_Shift_4
Note_On_71_Vel_75
Time_Shift_178
Note_On_79_Vel_79
Time_Shift_19
Note_On_71_Vel_0
Note_On_50_Vel_51
Time_Shift_5
Note_On_59_Vel_51
Note_On_71_Vel_59
Time_Shift_24
Note_On_43_Vel_0
Time_Shift_4
Note_On_72_Vel_0
Time_Shift_2
Note_On_76_Vel_0
Time_Shift_1
Sustain_Off
Time_Shift_117
Sustain_On
Time_Shift_469
Note_On_79_Vel_0
Time_Shift_5
Note_On_79_Vel_71
Time_Shift_10
Note_On_71_Vel_0
Time_Shift_4
Note_On_71_Vel_53
Time_Shift_188
Note_On_74_Vel_0
Time_Shift_5
Note_On_71_Vel_0
Time_Shift_1
Note_On_50_Vel_0
Time_Shift_1
Sustain_Off
Time_Shift_3
Note_On_59_Vel_0
Time_Shift_6
Note_On_79_Vel_0
Time_Shift_10
Note_On_79_Vel_73
Time_Shift_3
Note_On_47_Vel_58
Time_Shift_6
Note_On_69_Vel_64
Time_Shift_42
Sustain_On
Time_Shift_31
Note_On_47_Vel_0
Time_Shift_80
Note_On_78_Vel_69
Time_Shift_166
Note_On_71_Vel_77
Time_Shift_1
Note_On_83_Vel_67
Time_Shift_6
Note_On_69_Vel_0
Time_Shift_7
Note_On_63_Vel_51
Time_Shift_1
Note_On_69_Vel_57
Time_Shift_9
Note_On_59_Vel_49
Time_Shift_4
Note_On_78_Vel_0
Note_On_79_Vel_0
Time_Shift_4
Sustain_Off
Time_Shift_90
Sustain_On
Time_Shift_345
Note_On_78_Vel_70
Time_Shift_9
Note_On_63_Vel_0
Note_On_69_Vel_0
Time_Shift_5
Note_On_63_Vel_57
Time_Shift_2
Note_On_59_Vel_0
Time_Shift_4
Note_On_69_Vel_56
Time_Shift_1
Note_On_71_Vel_0
Time_Shift_5
Note_On_59_Vel_53
Time_Shift_295
Sustain_Off
Time_Shift_1
Note_On_69_Vel_0
Time_Shift_1
Note_On_63_Vel_0
Time_Shift_2
Note_On_59_Vel_0
Time_Shift_2
Note_On_83_Vel_0
Time_Shift_4
Note_On_78_Vel_0
Time_Shift_12
Note_On_78_Vel_74
Time_Shift_7
Note_On_52_Vel_43
Time_Shift_8
Note_On_67_Vel_35
Time_Shift_58
Sustain_On
Time_Shift_80
Note_On_76_Vel_78
Time_Shift_153
Note_On_71_Vel_77
Time_Shift_6
Note_On_64_Vel_61
Time_Shift_6
Note_On_67_Vel_0
Time_Shift_8
Note_On_67_Vel_57
Time_Shift_12
Note_On_76_Vel_0
Time_Shift_3
Note_On_78_Vel_0
Time_Shift_1
Note_On_52_Vel_0
Time_Shift_6
Sustain_Off
Time_Shift_7
Note_On_59_Vel_32
Time_Shift_56
Sustain_On
Time_Shift_243
Note_On_76_Vel_84
Time_Shift_10
Note_On_59_Vel_0
Note_On_64_Vel_0
Note_On_67_Vel_0
Time_Shift_5
Note_On_67_Vel_60
Time_Shift_1
Note_On_64_Vel_57
Time_Shift_6
Note_On_59_Vel_61
Time_Shift_46
Sustain_Off
Time_Shift_42
Sustain_On
Time_Shift_111
Note_On_66_Vel_74
Time_Shift_116
Note_On_45_Vel_53
Time_Shift_24
Note_On_67_Vel_0
Time_Shift_1
Note_On_59_Vel_0
Note_On_64_Vel_0
Time_Shift_2
Note_On_66_Vel_0
Time_Shift_3
Sustain_Off
Time_Shift_12
Note_On_71_Vel_0
Time_Shift_30
Note_On_76_Vel_0
Time_Shift_5
Note_On_76_Vel_74
Time_Shift_6
Note_On_72_Vel_69
Time_Shift_12
Sustain_On
Time_Shift_325
Note_On_50_Vel_56
Time_Shift_3
Note_On_60_Vel_56
Time_Shift_30
Note_On_54_Vel_36
Time_Shift_65
Note_On_45_Vel_0
Time_Shift_28
Note_On_74_Vel_72
Time_Shift_8
Note_On_71_Vel_64
Time_Shift_160
Sustain_Off
Note_On_60_Vel_0
Note_On_54_Vel_0
Note_On_74_Vel_0
Time_Shift_1
Note_On_71_Vel_0
Time_Shift_1
Note_On_76_Vel_0
Time_Shift_25
Note_On_72_Vel_0
Time_Shift_10
Note_On_72_Vel_73
Time_Shift_4
Note_On_69_Vel_64
Time_Shift_16
Sustain_On
Time_Shift_331
Note_On_69_Vel_0
Time_Shift_4
Note_On_69_Vel_67
Time_Shift_3
Note_On_60_Vel_73
Time_Shift_50
Note_On_60_Vel_0
Time_Shift_1
Note_On_72_Vel_0
Note_On_69_Vel_0
Time_Shift_7
Note_On_50_Vel_0
Time_Shift_2
Sustain_Off
Time_Shift_45
Note_On_31_Vel_54
Time_Shift_1
Note_On_43_Vel_55
Time_Shift_9
Note_On_31_Vel_0
Time_Shift_3
Note_On_72_Vel_75
Time_Shift_1
Note_On_64_Vel_66
Time_Shift_66
Note_On_43_Vel_0
Sustain_On
Time_Shift_339
Note_On_71_Vel_65
Time_Shift_2
Note_On_62_Vel_50
Time_Shift_7
Note_On_59_Vel_65
Time_Shift_101
Note_On_62_Vel_0
Time_Shift_1
Note_On_72_Vel_0
Time_Shift_4
Note_On_71_Vel_0
Time_Shift_4
Sustain_Off
Time_Shift_2
Note_On_64_Vel_0
Time_Shift_6
Note_On_67_Vel_58
Time_Shift_25
Note_On_59_Vel_0
Time_Shift_5
Note_On_59_Vel_45
Time_Shift_13
Note_On_50_Vel_32
Time_Shift_128
Sustain_On
Time_Shift_536
Note_On_74_Vel_56
Time_Shift_2
Note_On_71_Vel_56
Time_Shift_50
Note_On_50_Vel_0
Time_Shift_1
Note_On_59_Vel_0
Time_Shift_3
Sustain_Off
Time_Shift_107
Sustain_On
Time_Shift_284
Note_On_74_Vel_0
Time_Shift_8
Note_On_71_Vel_0
Time_Shift_1
Note_On_43_Vel_50
Time_Shift_2
Note_On_74_Vel_48
Time_Shift_1
Note_On_71_Vel_52
Time_Shift_399
Note_On_72_Vel_63
Time_Shift_5
Note_On_76_Vel_48
Time_Shift_72
Note_On_59_Vel_50
Time_Shift_1
Note_On_50_Vel_50
Time_Shift_10
Note_On_67_Vel_0
Note_On_71_Vel_0
Time_Shift_11
Note_On_71_Vel_60
Time_Shift_1
Note_On_67_Vel_51
Time_Shift_403
Note_On_72_Vel_0
Time_Shift_6
Note_On_69_Vel_51
Note_On_72_Vel_60
Time_Shift_9
Note_On_50_Vel_0
Time_Shift_7
Note_On_50_Vel_50
Time_Shift_1
Note_On_59_Vel_0
Time_Shift_10
Note_On_59_Vel_39
Time_Shift_272
Sustain_Off
Time_Shift_1
Note_On_59_Vel_0
Note_On_69_Vel_0
Time_Shift_2
Note_On_71_Vel_0
Note_On_67_Vel_0
Time_Shift_1
Note_On_50_Vel_0
Time_Shift_21
Note_On_43_Vel_0
Note_On_76_Vel_0
Time_Shift_8
Note_On_72_Vel_0
Note_On_74_Vel_0
Time_Shift_1
Note_On_76_Vel_60
Time_Shift_2
Note_On_43_Vel_45
Time_Shift_3
Note_On_72_Vel_59
Time_Shift_32
Sustain_On
Time_Shift_264
Note_On_71_Vel_68
Note_On_74_Vel_64
Time_Shift_80
Note_On_72_Vel_0
Time_Shift_2
Note_On_76_Vel_0
Time_Shift_2
Note_On_74_Vel_0
Time_Shift_3
Sustain_Off
Time_Shift_10
Note_On_71_Vel_0
Time_Shift_5
Note_On_50_Vel_45
Time_Shift_4
Note_On_71_Vel_75
Time_Shift_2
Note_On_59_Vel_50
Time_Shift_8
Note_On_67_Vel_60
Time_Shift_12
Note_On_43_Vel_0
Time_Shift_8
Sustain_On
Time_Shift_330
Note_On_50_Vel_0
Note_On_59_Vel_0
Time_Shift_5
Note_On_59_Vel_52
Time_Shift_4
Note_On_50_Vel_47
Time_Shift_165
Note_On_86_Vel_68
Note_On_83_Vel_60
Time_Shift_202
Note_On_83_Vel_0
Note_On_86_Vel_0
Time_Shift_10
Note_On_83_Vel_67
Time_Shift_1
Note_On_86_Vel_66
Time_Shift_49
Note_On_88_Vel_61
Note_On_84_Vel_62
Time_Shift_22
Note_On_71_Vel_0
Time_Shift_1
Note_On_83_Vel_0
Time_Shift_1
Note_On_50_Vel_0
Note_On_67_Vel_0
Time_Shift_1
Sustain_Off
Time_Shift_1
Note_On_59_Vel_0
Time_Shift_11
Note_On_84_Vel_0
Time_Shift_11
Note_On_86_Vel_0
Time_Shift_10
Note_On_86_Vel_88
Time_Shift_16
Note_On_43_Vel_39
Time_Shift_1
Note_On_83_Vel_60
Time_Shift_26
Sustain_On
Time_Shift_281
Note_On_85_Vel_73
Time_Shift_10
Note_On_82_Vel_62
Time_Shift_40
Note_On_86_Vel_0
Time_Shift_5
Note_On_86_Vel_84
Time_Shift_2
Note_On_83_Vel_0
Time_Shift_8
Note_On_83_Vel_74
Time_Shift_26
Note_On_50_Vel_54
Time_Shift_2
Note_On_59_Vel_58
Time_Shift_103
Note_On_88_Vel_0
Time_Shift_10
Note_On_88_Vel_70
Time_Shift_1
Note_On_84_Vel_75
Time_Shift_150
Note_On_83_Vel_0
Time_Shift_7
Note_On_83_Vel_78
Time_Shift_1
Note_On_79_Vel_71
Time_Shift_15
Note_On_50_Vel_0
Note_On_59_Vel_0
Time_Shift_5
Note_On_50_Vel_51
Note_On_59_Vel_48
Time_Shift_118
Note_On_84_Vel_0
Time_Shift_4
Note_On_84_Vel_84
Time_Shift_5
Note_On_81_Vel_79
Time_Shift_149
Note_On_85_Vel_0
Time_Shift_1
Note_On_59_Vel_0
Note_On_81_Vel_0
Note_On_50_Vel_0
Time_Shift_1
Note_On_79_Vel_0
Note_On_82_Vel_0
Time_Shift_1
Note_On_43_Vel_0
Note_On_88_Vel_0
Time_Shift_4
Sustain_Off
Note_On_88_Vel_80
Time_Shift_4
Note_On_84_Vel_0
Note_On_43_Vel_48
Time_Shift_10
Note_On_84_Vel_71
Time_Shift_5
Note_On_83_Vel_0
Note_On_86_Vel_0
Time_Shift_62
Sustain_On
Time_Shift_104
Note_On_86_Vel_92
Time_Shift_5
Note_On_83_Vel_80
Time_Shift_266
Note_On_95_Vel_91
Time_Shift_9
Note_On_86_Vel_0
Time_Shift_4
Note_On_86_Vel_73
Time_Shift_12
Note_On_50_Vel_52
Time_Shift_1
Note_On_59_Vel_53
Time_Shift_1
Sustain_Off
Time_Shift_81
Note_On_84_Vel_0
Note_On_88_Vel_0
Time_Shift_31
Sustain_On
Time_Shift_553
Note_On_95_Vel_0
Time_Shift_11
Note_On_95_Vel_92
Time_Shift_126
Note_On_44_Vel_82
Time_Shift_31
Note_On_43_Vel_0
Time_Shift_3
Note_On_86_Vel_0
Note_On_59_Vel_0
Sustain_Off
Note_On_50_Vel_0
Time_Shift_6
Note_On_83_Vel_0
Time_Shift_84
Sustain_On
Time_Shift_39
Note_On_52_Vel_64
Time_Shift_66
Note_On_59_Vel_71
Time_Shift_52
Note_On_88_Vel_78
Time_Shift_66
Note_On_95_Vel_0
Time_Shift_4
Note_On_95_Vel_83
Time_Shift_132
Note_On_100_Vel_103
Time_Shift_596
Note_On_99_Vel_88
Time_Shift_266
Note_On_98_Vel_88
Time_Shift_88
Note_On_97_Vel_89
Time_Shift_207
Note_On_96_Vel_93
Time_Shift_66
Note_On_95_Vel_0
Time_Shift_8
Note_On_95_Vel_98
Time_Shift_201
Note_On_94_Vel_88
Time_Shift_72
Note_On_93_Vel_94
Time_Shift_205
Note_On_92_Vel_92
Time_Shift_81
Note_On_91_Vel_90
Time_Shift_214
Note_On_90_Vel_87
Time_Shift_2
Note_On_82_Vel_79
Time_Shift_54
Note_On_95_Vel_0
Time_Shift_2
Note_On_91_Vel_0
Note_On_93_Vel_0
Time_Shift_1
Note_On_97_Vel_0
Time_Shift_1
Note_On_92_Vel_0
Note_On_59_Vel_0
Note_On_94_Vel_0
Note_On_99_Vel_0
Note_On_98_Vel_0
Note_On_100_Vel_0
Time_Shift_2
Sustain_Off
Note_On_88_Vel_0
Time_Shift_1
Note_On_90_Vel_0
Note_On_82_Vel_0
Time_Shift_1
Note_On_52_Vel_0
Time_Shift_8
Note_On_44_Vel_0
Note_On_96_Vel_0
Time_Shift_21
Note_On_89_Vel_85
Time_Shift_4
Note_On_81_Vel_76
Time_Shift_59
Sustain_On
Time_Shift_156
Note_On_88_Vel_79
Time_Shift_2
Note_On_80_Vel_71
Time_Shift_52
Note_On_80_Vel_0
Time_Shift_5
Note_On_81_Vel_0
Time_Shift_5
Sustain_Off
Time_Shift_3
Note_On_89_Vel_0
Time_Shift_15
Sustain_On
Time_Shift_10
Note_On_87_Vel_89
Time_Shift_1
Note_On_79_Vel_73
Time_Shift_5
Note_On_88_Vel_0
Time_Shift_204
Note_On_86_Vel_77
Time_Shift_6
Note_On_78_Vel_72
Time_Shift_48
Note_On_79_Vel_0
Time_Shift_6
Note_On_87_Vel_0
Time_Shift_14
Sustain_Off
Note_On_78_Vel_0
Time_Shift_18
Note_On_85_Vel_88
Time_Shift_3
Note_On_77_Vel_73
Time_Shift_16
Sustain_On
Time_Shift_15
Note_On_86_Vel_0
Time_Shift_198
Note_On_84_Vel_82
Time_Shift_6
Note_On_79_Vel_78
Time_Shift_9
Note_On_76_Vel_63
Time_Shift_36
Sustain_Off
Time_Shift_9
Note_On_77_Vel_0
Note_On_85_Vel_0
Time_Shift_3
Note_On_79_Vel_0
Time_Shift_1
Note_On_76_Vel_0
Time_Shift_1
Note_On_84_Vel_0
Time_Shift_41
Note_On_83_Vel_79
Time_Shift_16
Note_On_75_Vel_68
Time_Shift_3
Note_On_78_Vel_74
Time_Shift_15
Sustain_On
Time_Shift_226
Note_On_82_Vel_82
Time_Shift_6
Note_On_74_Vel_72
Note_On_77_Vel_70
Time_Shift_69
Sustain_Off
Time_Shift_1
Note_On_78_Vel_0
Note_On_75_Vel_0
Time_Shift_1
Note_On_74_Vel_0
Note_On_77_Vel_0
Note_On_83_Vel_0
Time_Shift_2
Note_On_82_Vel_0
Time_Shift_23
Note_On_81_Vel_82
Time_Shift_20
Note_On_73_Vel_76
Time_Shift_4
Note_On_76_Vel_58
Time_Shift_17
Sustain_On
Time_Shift_233
Note_On_80_Vel_75
Time_Shift_7
Note_On_75_Vel_59
Time_Shift_11
Note_On_72_Vel_67
Time_Shift_73
Sustain_Off
Time_Shift_1
Note_On_80_Vel_0
Time_Shift_1
Note_On_76_Vel_0
Note_On_73_Vel_0
Note_On_81_Vel_0
Time_Shift_2
Note_On_75_Vel_0
Note_On_72_Vel_0
Time_Shift_9
Note_On_79_Vel_73
Time_Shift_13
Note_On_74_Vel_60
Time_Shift_5
Note_On_71_Vel_64
Time_Shift_75
Note_On_71_Vel_0
Time_Shift_303
Note_On_70_Vel_57
Note_On_73_Vel_60
Time_Shift_1
Note_On_78_Vel_64
Time_Shift_69
Note_On_70_Vel_0
Time_Shift_3
Note_On_74_Vel_0
Note_On_73_Vel_0
Time_Shift_3
Note_On_78_Vel_0
Time_Shift_12
Note_On_79_Vel_0
Time_Shift_35
Note_On_77_Vel_66
Time_Shift_22
Note_On_69_Vel_46
Time_Shift_4
Note_On_72_Vel_52
Time_Shift_35
Note_On_69_Vel_0
Time_Shift_2
Note_On_72_Vel_0
Time_Shift_279
Note_On_77_Vel_0
Time_Shift_194
Note_On_76_Vel_58
Note_On_71_Vel_54
Time_Shift_6
Note_On_68_Vel_49
Time_Shift_68
Sustain_On
Time_Shift_335
Note_On_68_Vel_0
Time_Shift_1
Note_On_76_Vel_0
Time_Shift_1
Note_On_71_Vel_0
Time_Shift_3
Sustain_Off
Time_Shift_25
Note_On_78_Vel_68
Time_Shift_3
Note_On_69_Vel_51
Time_Shift_4
Note_On_67_Vel_50
Note_On_61_Vel_55
Note_On_57_Vel_59
Time_Shift_39
Note_On_78_Vel_0
Time_Shift_1
Note_On_67_Vel_0
Time_Shift_12
Note_On_61_Vel_0
Time_Shift_3
Note_On_57_Vel_0
Time_Shift_50
Note_On_69_Vel_0
Time_Shift_22
Note_On_76_Vel_69
Time_Shift_50
Note_On_76_Vel_0
Time_Shift_116
Note_On_75_Vel_74
Time_Shift_8
Note_On_66_Vel_63
Note_On_57_Vel_62
Time_Shift_4
Note_On_69_Vel_51
Time_Shift_3
Note_On_60_Vel_43
Time_Shift_11
Note_On_75_Vel_0
Time_Shift_28
Note_On_57_Vel_0
Time_Shift_3
Note_On_66_Vel_0
Time_Shift_8
Note_On_69_Vel_0
Time_Shift_3
Note_On_60_Vel_0
Time_Shift_210
Note_On_81_Vel_63
Time_Shift_1
Note_On_69_Vel_65
Time_Shift_9
Note_On_81_Vel_0
Time_Shift_55
Note_On_75_Vel_79
Time_Shift_11
Note_On_66_Vel_55
Time_Shift_5
Note_On_57_Vel_52
Time_Shift_9
Note_On_60_Vel_47
Time_Shift_43
Sustain_On
Time_Shift_23
Note_On_69_Vel_0
Time_Shift_183
Sustain_Off
Time_Shift_2
Note_On_60_Vel_0
Time_Shift_2
Note_On_66_Vel_0
Time_Shift_1
Note_On_75_Vel_0
Time_Shift_18
Note_On_76_Vel_79
Time_Shift_6
Note_On_67_Vel_61
Time_Shift_10
Note_On_57_Vel_0
Time_Shift_5
Note_On_61_Vel_64
Time_Shift_1
Note_On_57_Vel_56
Time_Shift_25
Sustain_On
Time_Shift_218
Note_On_61_Vel_0
Time_Shift_2
Sustain_Off
Note_On_57_Vel_0
Time_Shift_4
Note_On_76_Vel_0
Time_Shift_6
Note_On_67_Vel_0
Time_Shift_16
Note_On_45_Vel_74
Time_Shift_3
Note_On_81_Vel_79
Time_Shift_25
Note_On_45_Vel_0
Time_Shift_7
Note_On_81_Vel_0
Time_Shift_217
Note_On_83_Vel_69
Time_Shift_99
Note_On_79_Vel_76
Time_Shift_38
Note_On_79_Vel_0
Time_Shift_10
Note_On_83_Vel_0
Time_Shift_1
Note_On_81_Vel_80
Time_Shift_26
Note_On_67_Vel_67
Time_Shift_11
Note_On_57_Vel_56
Time_Shift_2
Note_On_61_Vel_56
Time_Shift_5
Note_On_79_Vel_85
Time_Shift_13
Note_On_81_Vel_0
Time_Shift_15
Note_On_57_Vel_0
Time_Shift_2
Note_On_61_Vel_0
Time_Shift_17
Note_On_67_Vel_0
Time_Shift_218
Note_On_79_Vel_0
Time_Shift_27
Note_On_78_Vel_80
Time_Shift_9
Note_On_67_Vel_64
Time_Shift_4
Note_On_61_Vel_61
Time_Shift_4
Note_On_57_Vel_64
Time_Shift_46
Sustain_On
Time_Shift_48
Note_On_76_Vel_76
Time_Shift_59
Note_On_76_Vel_0
Note_On_78_Vel_0
Time_Shift_1
Note_On_57_Vel_0
Time_Shift_3
Note_On_61_Vel_0
Time_Shift_5
Sustain_Off
Time_Shift_6
Note_On_67_Vel_0
Time_Shift_77
Note_On_75_Vel_84
Time_Shift_5
Note_On_57_Vel_66
Time_Shift_2
Note_On_66_Vel_66
Time_Shift_3
Note_On_60_Vel_69
Time_Shift_5
Note_On_69_Vel_60
Time_Shift_20
Note_On_66_Vel_0
Time_Shift_3
Note_On_60_Vel_0
Time_Shift_2
Note_On_57_Vel_0
Time_Shift_45
Note_On_69_Vel_0
Note_On_75_Vel_0
Time_Shift_181
Note_On_69_Vel_64
Time_Shift_38
Note_On_75_Vel_85
Time_Shift_7
Note_On_66_Vel_66
Time_Shift_1
Note_On_60_Vel_66
Time_Shift_1
Note_On_57_Vel_65
Time_Shift_24
Note_On_69_Vel_0
Time_Shift_7
Note_On_60_Vel_0
Time_Shift_48
Sustain_On
Time_Shift_168
Sustain_Off
Time_Shift_2
Note_On_66_Vel_0
Time_Shift_3
Note_On_75_Vel_0
Time_Shift_4
Note_On_57_Vel_0
Time_Shift_49
Note_On_76_Vel_85
Time_Shift_3
Note_On_61_Vel_64
Time_Shift_2
Note_On_67_Vel_63
Time_Shift_2
Note_On_57_Vel_58
Time_Shift_36
Sustain_On
Time_Shift_201
Sustain_Off
Time_Shift_1
Note_On_67_Vel_0
Note_On_61_Vel_0
Time_Shift_6
Note_On_57_Vel_0
Time_Shift_19
Note_On_79_Vel_85
Time_Shift_6
Note_On_76_Vel_0
Time_Shift_3
Note_On_66_Vel_60
Time_Shift_2
Note_On_64_Vel_60
Time_Shift_2
Note_On_58_Vel_61
Time_Shift_18
Note_On_79_Vel_0
Time_Shift_7
Note_On_66_Vel_0
Time_Shift_7
Note_On_58_Vel_0
Time_Shift_1
Note_On_64_Vel_0
Time_Shift_198
Note_On_78_Vel_76
Time_Shift_42
Note_On_78_Vel_0
Time_Shift_75
Note_On_73_Vel_66
Time_Shift_36
Note_On_74_Vel_74
Time_Shift_9
Note_On_66_Vel_63
Time_Shift_24
Note_On_64_Vel_57
Time_Shift_3
Note_On_73_Vel_0
Time_Shift_2
Note_On_58_Vel_48
Time_Shift_7
Note_On_73_Vel_84
Time_Shift_7
Note_On_74_Vel_0
Time_Shift_10
Note_On_66_Vel_0
Time_Shift_7
Note_On_64_Vel_0
Time_Shift_8
Note_On_58_Vel_0
Time_Shift_313
Note_On_72_Vel_79
Note_On_64_Vel_62
Time_Shift_3
Note_On_66_Vel_64
Time_Shift_17
Note_On_58_Vel_54
Time_Shift_20
Note_On_66_Vel_0
Time_Shift_2
Note_On_64_Vel_0
Time_Shift_20
Note_On_72_Vel_0
Time_Shift_7
Note_On_73_Vel_0
Time_Shift_38
Note_On_58_Vel_0
Time_Shift_22
Note_On_73_Vel_87
Time_Shift_162
Note_On_73_Vel_0
Time_Shift_5
Note_On_76_Vel_89
Time_Shift_3
Note_On_66_Vel_61
Time_Shift_4
Note_On_62_Vel_52
Note_On_59_Vel_58
Time_Shift_50
Sustain_On
Time_Shift_242
Note_On_74_Vel_88
Time_Shift_15
Sustain_Off
Note_On_59_Vel_0
Note_On_76_Vel_0
Time_Shift_38
Note_On_74_Vel_0
Time_Shift_4
Note_On_62_Vel_0
Note_On_66_Vel_0
Time_Shift_8
Note_On_71_Vel_87
Time_Shift_1
Note_On_62_Vel_55
Note_On_66_Vel_62
Time_Shift_3
Note_On_59_Vel_54
Time_Shift_96
Sustain_On
Time_Shift_286
Sustain_Off
Time_Shift_1
Note_On_71_Vel_0
Note_On_59_Vel_0
Note_On_66_Vel_0
Time_Shift_16
Note_On_65_Vel_42
Time_Shift_4
Note_On_62_Vel_0
Time_Shift_5
Note_On_73_Vel_82
Time_Shift_4
Note_On_62_Vel_47
Time_Shift_4
Note_On_56_Vel_47
Time_Shift_41
Sustain_On
Time_Shift_163
Note_On_71_Vel_90
Time_Shift_163
Note_On_73_Vel_0
Note_On_62_Vel_0
Note_On_56_Vel_0
Time_Shift_1
Note_On_71_Vel_0
Time_Shift_6
Sustain_Off
Time_Shift_5
Note_On_65_Vel_0
Time_Shift_24
Note_On_81_Vel_73
Time_Shift_2
Note_On_69_Vel_81
Time_Shift_2
Note_On_45_Vel_70
Time_Shift_25
Note_On_81_Vel_0
Time_Shift_5
Note_On_69_Vel_0
Note_On_45_Vel_0
Time_Shift_324
Note_On_80_Vel_70
Note_On_68_Vel_72
Time_Shift_45
Note_On_68_Vel_0
Time_Shift_23
Note_On_81_Vel_76
Time_Shift_1
Note_On_69_Vel_80
Time_Shift_9
Note_On_80_Vel_0
Time_Shift_25
Note_On_67_Vel_58
Time_Shift_3
Note_On_57_Vel_51
Time_Shift_1
Note_On_61_Vel_61
Time_Shift_18
Sustain_On
Time_Shift_146
Note_On_83_Vel_88
Time_Shift_176
Note_On_81_Vel_0
Time_Shift_4
Note_On_81_Vel_88
Time_Shift_4
Note_On_67_Vel_0
Time_Shift_7
Note_On_57_Vel_0
Note_On_61_Vel_0
Note_On_69_Vel_0
Time_Shift_2
Note_On_67_Vel_56
Time_Shift_6
Note_On_57_Vel_51
Time_Shift_1
Note_On_69_Vel_54
Time_Shift_1
Note_On_61_Vel_50
Time_Shift_7
Sustain_Off
Time_Shift_30
Sustain_On
Time_Shift_127
Note_On_76_Vel_94
Time_Shift_172
Note_On_83_Vel_0
Time_Shift_33
Note_On_69_Vel_0
Time_Shift_1
Note_On_61_Vel_0
Note_On_57_Vel_0
Note_On_81_Vel_0
Time_Shift_1
Note_On_76_Vel_0
Time_Shift_4
Sustain_Off
Time_Shift_15
Note_On_67_Vel_0
Time_Shift_65
Note_On_50_Vel_75
Time_Shift_1
Note_On_79_Vel_86
Time_Shift_49
Sustain_On
Time_Shift_292
Note_On_50_Vel_0
Time_Shift_307
Note_On_78_Vel_65
Time_Shift_98
Note_On_74_Vel_70
Time_Shift_20
Note_On_62_Vel_47
Time_Shift_1
Note_On_66_Vel_46
Time_Shift_14
Sustain_Off
Time_Shift_5
Note_On_79_Vel_0
Time_Shift_185
Sustain_On
Time_Shift_153
Note_On_78_Vel_0
Time_Shift_803
Note_On_74_Vel_0
Note_On_62_Vel_0
Time_Shift_1
Note_On_66_Vel_0
Time_Shift_12
Sustain_Off
