Time_Shift_7
Sustain_On
Time_Shift_1704
Note_On_70_Vel_79
Time_Shift_883
Note_On_39_Vel_37
Time_Shift_152
Note_On_79_Vel_91
Time_Shift_69
Note_On_70_Vel_0
Time_Shift_7
Sustain_Off
Time_Shift_50
Sustain_On
Time_Shift_200
Note_On_39_Vel_0
Time_Shift_547
Note_On_63_Vel_47
Time_Shift_45
Note_On_55_Vel_34
Time_Shift_575
Note_On_63_Vel_0
Time_Shift_3
Note_On_67_Vel_52
Time_Shift_8
Note_On_63_Vel_43
Time_Shift_3
Note_On_58_Vel_34
Time_Shift_318
Note_On_67_Vel_0
Note_On_55_Vel_0
Note_On_58_Vel_0
Time_Shift_1
Note_On_51_Vel_57
Time_Shift_1
Sustain_Off
Time_Shift_42
Note_On_63_Vel_0
Time_Shift_8
Sustain_On
Time_Shift_153
Note_On_51_Vel_0
Time_Shift_196
Note_On_56_Vel_51
Time_Shift_1
Note_On_62_Vel_46
Time_Shift_88
Note_On_77_Vel_94
Time_Shift_344
Note_On_68_Vel_54
Time_Shift_21
Note_On_59_Vel_46
Time_Shift_65
Note_On_79_Vel_0
Time_Shift_6
Note_On_79_Vel_97
Time_Shift_316
Note_On_77_Vel_0
Time_Shift_9
Note_On_77_Vel_93
Time_Shift_28
Note_On_59_Vel_0
Note_On_68_Vel_0
Note_On_79_Vel_0
Time_Shift_1
Note_On_56_Vel_0
Note_On_62_Vel_0
Time_Shift_3
Sustain_Off
Time_Shift_38
Note_On_39_Vel_45
Time_Shift_36
Sustain_On
Time_Shift_77
Note_On_39_Vel_0
Time_Shift_204
Note_On_63_Vel_62
Time_Shift_30
Note_On_55_Vel_45
Time_Shift_4
Note_On_58_Vel_32
Time_Shift_292
Note_On_63_Vel_0
Time_Shift_4
Note_On_67_Vel_69
Time_Shift_1
Note_On_63_Vel_51
Time_Shift_11
Note_On_58_Vel_0
Time_Shift_4
Note_On_58_Vel_50
Time_Shift_315
Note_On_75_Vel_81
Time_Shift_41
Note_On_63_Vel_0
Note_On_67_Vel_0
Time_Shift_1
Note_On_58_Vel_0
Note_On_55_Vel_0
Time_Shift_1
Sustain_Off
Time_Shift_14
Note_On_77_Vel_0
Time_Shift_20
Note_On_38_Vel_47
Time_Shift_57
Sustain_On
Time_Shift_45
Note_On_38_Vel_0
Time_Shift_256
Note_On_63_Vel_52
Time_Shift_2
Note_On_55_Vel_40
Time_Shift_411
Note_On_63_Vel_0
Time_Shift_9
Note_On_63_Vel_45
Time_Shift_2
Note_On_67_Vel_48
Note_On_58_Vel_32
Time_Shift_155
Note_On_70_Vel_69
Time_Shift_551
Sustain_Off
Time_Shift_5
Note_On_55_Vel_0
Time_Shift_4
Note_On_36_Vel_36
Time_Shift_2
Note_On_55_Vel_31
Time_Shift_75
Note_On_67_Vel_0
Time_Shift_1
Note_On_55_Vel_0
Note_On_63_Vel_0
Note_On_58_Vel_0
Time_Shift_2
Note_On_75_Vel_0
Time_Shift_3
Note_On_70_Vel_0
Time_Shift_5
Note_On_79_Vel_68
Time_Shift_61
Sustain_On
Time_Shift_139
Note_On_36_Vel_0
Time_Shift_357
Note_On_55_Vel_37
Time_Shift_1
Note_On_64_Vel_49
Time_Shift_279
Note_On_64_Vel_0
Time_Shift_4
Note_On_67_Vel_58
Time_Shift_1
Note_On_64_Vel_40
Time_Shift_16
Note_On_58_Vel_41
Time_Shift_54
Note_On_72_Vel_82
Time_Shift_90
Note_On_73_Vel_78
Time_Shift_66
Note_On_72_Vel_0
Time_Shift_5
Note_On_72_Vel_91
Time_Shift_78
Note_On_71_Vel_86
Time_Shift_78
Note_On_72_Vel_0
Time_Shift_10
Note_On_72_Vel_94
Time_Shift_155
Note_On_67_Vel_0
Note_On_72_Vel_0
Time_Shift_1
Note_On_64_Vel_0
Time_Shift_4
Note_On_71_Vel_0
Time_Shift_6
Note_On_58_Vel_0
Note_On_73_Vel_0
Time_Shift_12
Note_On_48_Vel_40
Time_Shift_4
Note_On_55_Vel_0
Time_Shift_7
Note_On_79_Vel_0
Time_Shift_6
Sustain_Off
Time_Shift_47
Note_On_84_Vel_87
Time_Shift_78
Sustain_On
Time_Shift_279
Note_On_64_Vel_60
Time_Shift_24
Note_On_55_Vel_39
Time_Shift_2
Note_On_58_Vel_24
Time_Shift_10
Note_On_58_Vel_0
Time_Shift_253
Note_On_64_Vel_0
Time_Shift_8
Note_On_55_Vel_0
Time_Shift_2
Note_On_64_Vel_41
Time_Shift_9
Note_On_55_Vel_32
Time_Shift_9
Note_On_60_Vel_37
Time_Shift_1
Note_On_58_Vel_39
Time_Shift_29
Note_On_79_Vel_85
Time_Shift_377
Note_On_82_Vel_87
Time_Shift_51
Note_On_48_Vel_0
Note_On_60_Vel_0
Time_Shift_1
Note_On_79_Vel_0
Note_On_84_Vel_0
Note_On_64_Vel_0
Note_On_55_Vel_0
Time_Shift_1
Sustain_Off
Time_Shift_11
Note_On_41_Vel_41
Time_Shift_1
Note_On_58_Vel_0
Time_Shift_99
Sustain_On
Time_Shift_33
Note_On_41_Vel_0
Time_Shift_256
Note_On_61_Vel_61
Time_Shift_46
Note_On_53_Vel_46
Time_Shift_454
Note_On_64_Vel_54
Time_Shift_18
Note_On_61_Vel_0
Time_Shift_3
Note_On_58_Vel_32
Time_Shift_4
Note_On_61_Vel_31
Time_Shift_318
Note_On_80_Vel_70
Time_Shift_10
Note_On_53_Vel_0
Note_On_58_Vel_0
Note_On_64_Vel_0
Time_Shift_1
Note_On_61_Vel_0
Time_Shift_7
Sustain_Off
Time_Shift_36
Note_On_41_Vel_44
Time_Shift_66
Sustain_On
Time_Shift_305
Note_On_60_Vel_40
Time_Shift_2
Note_On_53_Vel_47
Time_Shift_369
Note_On_53_Vel_0
Note_On_60_Vel_0
Time_Shift_5
Note_On_60_Vel_37
Time_Shift_2
Note_On_53_Vel_32
Time_Shift_4
Note_On_56_Vel_39
Time_Shift_78
Note_On_79_Vel_89
Time_Shift_118
Note_On_79_Vel_0
Time_Shift_6
Note_On_79_Vel_66
Time_Shift_41
Note_On_82_Vel_0
Time_Shift_243
Note_On_53_Vel_0
Note_On_56_Vel_0
Note_On_60_Vel_0
Note_On_79_Vel_0
Time_Shift_1
Note_On_41_Vel_0
Note_On_80_Vel_0
Time_Shift_5
Sustain_Off
Time_Shift_1
Note_On_77_Vel_91
Time_Shift_80
Note_On_46_Vel_44
Time_Shift_23
Sustain_On
Time_Shift_115
Note_On_46_Vel_0
Time_Shift_220
Note_On_62_Vel_37
Time_Shift_9
Note_On_53_Vel_37
Time_Shift_334
Note_On_68_Vel_60
Time_Shift_13
Note_On_62_Vel_0
Time_Shift_4
Note_On_58_Vel_53
Time_Shift_1
Note_On_62_Vel_28
Time_Shift_282
Note_On_79_Vel_91
Time_Shift_44
Note_On_58_Vel_0
Note_On_68_Vel_0
Time_Shift_1
Note_On_62_Vel_0
Note_On_77_Vel_0
Time_Shift_1
Note_On_53_Vel_0
Time_Shift_6
Sustain_Off
Time_Shift_16
Note_On_47_Vel_57
Time_Shift_75
Sustain_On
Time_Shift_235
Note_On_65_Vel_53
Time_Shift_3
Note_On_55_Vel_60
Time_Shift_200
Note_On_67_Vel_33
Time_Shift_8
Note_On_67_Vel_0
Time_Shift_92
Note_On_55_Vel_0
Time_Shift_7
Note_On_65_Vel_0
Time_Shift_2
Note_On_55_Vel_55
Time_Shift_1
Note_On_62_Vel_61
Time_Shift_9
Note_On_65_Vel_57
Time_Shift_15
Note_On_74_Vel_98
Time_Shift_363
Note_On_75_Vel_100
Time_Shift_4
Note_On_67_Vel_60
Time_Shift_17
Note_On_55_Vel_0
Note_On_62_Vel_0
Note_On_47_Vel_0
Note_On_74_Vel_0
Time_Shift_1
Note_On_65_Vel_0
Sustain_Off
Time_Shift_3
Note_On_67_Vel_0
Time_Shift_10
Note_On_67_Vel_42
Time_Shift_21
Note_On_67_Vel_0
Note_On_79_Vel_0
Time_Shift_6
Note_On_67_Vel_42
Time_Shift_2
Note_On_60_Vel_48
Time_Shift_1
Note_On_48_Vel_46
Time_Shift_60
Sustain_On
Time_Shift_84
Note_On_60_Vel_0
Time_Shift_16
Note_On_48_Vel_0
Note_On_67_Vel_0
Time_Shift_138
Note_On_75_Vel_0
Time_Shift_7
Note_On_63_Vel_65
Time_Shift_1
Note_On_75_Vel_61
Time_Shift_34
Note_On_55_Vel_47
Time_Shift_325
Note_On_67_Vel_72
Time_Shift_25
Note_On_63_Vel_0
Time_Shift_10
Note_On_63_Vel_32
Time_Shift_1
Note_On_60_Vel_41
Time_Shift_365
Note_On_55_Vel_0
Time_Shift_4
Note_On_72_Vel_77
Note_On_55_Vel_38
Time_Shift_60
Note_On_67_Vel_0
Time_Shift_1
Note_On_60_Vel_0
Note_On_55_Vel_0
Sustain_Off
Note_On_63_Vel_0
Note_On_75_Vel_0
Time_Shift_18
Note_On_45_Vel_51
Time_Shift_94
Sustain_On
Time_Shift_33
Note_On_45_Vel_0
Time_Shift_272
Note_On_63_Vel_48
Time_Shift_6
Note_On_54_Vel_40
Time_Shift_414
Note_On_66_Vel_50
Time_Shift_12
Note_On_63_Vel_0
Time_Shift_4
Note_On_63_Vel_42
Time_Shift_47
Note_On_60_Vel_14
Time_Shift_3
Note_On_63_Vel_0
Time_Shift_11
Note_On_63_Vel_33
Time_Shift_454
Note_On_46_Vel_34
Time_Shift_14
Sustain_Off
Time_Shift_11
Note_On_66_Vel_0
Note_On_63_Vel_0
Note_On_72_Vel_0
Note_On_60_Vel_0
Note_On_54_Vel_0
Time_Shift_9
Note_On_70_Vel_67
Time_Shift_123
Sustain_On
Time_Shift_123
Note_On_46_Vel_0
Time_Shift_309
Note_On_63_Vel_37
Time_Shift_18
Note_On_53_Vel_19
Time_Shift_59
Note_On_86_Vel_78
Time_Shift_16
Note_On_58_Vel_36
Time_Shift_227
Note_On_58_Vel_0
Time_Shift_12
Note_On_58_Vel_43
Time_Shift_50
Note_On_63_Vel_0
Time_Shift_10
Note_On_63_Vel_48
Time_Shift_86
Note_On_68_Vel_55
Time_Shift_3
Note_On_84_Vel_85
Time_Shift_170
Note_On_63_Vel_0
Time_Shift_6
Note_On_63_Vel_27
Time_Shift_255
Note_On_82_Vel_80
Time_Shift_53
Note_On_53_Vel_0
Time_Shift_1
Note_On_86_Vel_0
Time_Shift_1
Note_On_68_Vel_0
Note_On_84_Vel_0
Time_Shift_1
Note_On_70_Vel_0
Note_On_63_Vel_0
Time_Shift_5
Note_On_58_Vel_0
Time_Shift_1
Sustain_Off
Time_Shift_3
Note_On_34_Vel_41
Time_Shift_73
Sustain_On
Time_Shift_199
Note_On_80_Vel_81
Time_Shift_187
Note_On_62_Vel_40
Time_Shift_25
Note_On_79_Vel_88
Time_Shift_157
Note_On_80_Vel_0
Time_Shift_11
Note_On_80_Vel_94
Time_Shift_86
Note_On_58_Vel_49
Time_Shift_57
Note_On_62_Vel_0
Time_Shift_9
Note_On_62_Vel_45
Time_Shift_14
Note_On_34_Vel_0
Time_Shift_29
Note_On_68_Vel_63
Time_Shift_26
Note_On_72_Vel_90
Time_Shift_2
Note_On_62_Vel_0
Note_On_80_Vel_0
Note_On_79_Vel_0
Time_Shift_1
Note_On_82_Vel_0
Time_Shift_3
Sustain_Off
Time_Shift_16
Sustain_On
Time_Shift_190
Note_On_74_Vel_97
Time_Shift_248
Note_On_68_Vel_0
Time_Shift_42
Note_On_39_Vel_52
Time_Shift_11
Note_On_74_Vel_0
Note_On_72_Vel_0
Time_Shift_6
Sustain_Off
Time_Shift_2
Note_On_58_Vel_0
Time_Shift_27
Note_On_75_Vel_87
Time_Shift_88
Sustain_On
Time_Shift_356
Note_On_63_Vel_53
Time_Shift_9
Note_On_55_Vel_50
Time_Shift_4
Note_On_58_Vel_34
Time_Shift_176
Note_On_39_Vel_0
Time_Shift_196
Note_On_67_Vel_68
Time_Shift_12
Note_On_63_Vel_0
Time_Shift_7
Note_On_58_Vel_0
Time_Shift_3
Note_On_63_Vel_52
Time_Shift_7
Note_On_58_Vel_38
Time_Shift_313
Note_On_58_Vel_0
Note_On_67_Vel_0
Time_Shift_5
Note_On_51_Vel_65
Time_Shift_6
Note_On_58_Vel_42
Time_Shift_1
Note_On_67_Vel_45
Time_Shift_14
Sustain_Off
Time_Shift_1
Note_On_55_Vel_0
Time_Shift_73
Sustain_On
Time_Shift_169
Note_On_51_Vel_0
Time_Shift_184
Note_On_63_Vel_0
Note_On_67_Vel_0
Time_Shift_5
Note_On_63_Vel_48
Time_Shift_6
Note_On_67_Vel_36
Time_Shift_45
Note_On_55_Vel_29
Time_Shift_2
Note_On_51_Vel_31
Time_Shift_464
Note_On_63_Vel_0
Note_On_67_Vel_0
Time_Shift_8
Note_On_58_Vel_0
Time_Shift_2
Note_On_63_Vel_38
Time_Shift_1
Note_On_67_Vel_46
Time_Shift_2
Note_On_58_Vel_24
Time_Shift_118
Note_On_51_Vel_0
Note_On_55_Vel_0
Time_Shift_6
Note_On_55_Vel_31
Time_Shift_1
Note_On_70_Vel_70
Time_Shift_3
Note_On_51_Vel_29
Time_Shift_5
Note_On_63_Vel_0
Time_Shift_8
Note_On_58_Vel_0
Time_Shift_3
Note_On_63_Vel_27
Time_Shift_3
Note_On_58_Vel_22
Time_Shift_25
Note_On_67_Vel_0
Time_Shift_11
Note_On_67_Vel_24
Time_Shift_595
Note_On_51_Vel_0
Time_Shift_11
Note_On_51_Vel_31
Time_Shift_145
Note_On_79_Vel_75
Time_Shift_6
Sustain_Off
Time_Shift_21
Note_On_55_Vel_0
Time_Shift_4
Note_On_58_Vel_0
Time_Shift_3
Note_On_63_Vel_0
Time_Shift_1
Note_On_70_Vel_0
Time_Shift_1
Note_On_67_Vel_0
Time_Shift_23
Note_On_75_Vel_0
Time_Shift_70
Sustain_On
Time_Shift_261
Note_On_51_Vel_0
Time_Shift_334
Note_On_63_Vel_34
Time_Shift_2
Note_On_67_Vel_31
Time_Shift_9
Note_On_67_Vel_0
Time_Shift_5
Note_On_55_Vel_25
Time_Shift_7
Note_On_51_Vel_23
Time_Shift_434
Note_On_63_Vel_0
Time_Shift_2
Note_On_67_Vel_44
Time_Shift_2
Note_On_58_Vel_37
Time_Shift_1
Note_On_63_Vel_40
Time_Shift_302
Note_On_51_Vel_0
Time_Shift_6
Note_On_51_Vel_39
Time_Shift_10
Note_On_63_Vel_0
Time_Shift_2
Note_On_55_Vel_0
Note_On_58_Vel_0
Note_On_67_Vel_0
Time_Shift_3
Note_On_79_Vel_0
Time_Shift_5
Sustain_Off
Time_Shift_18
Note_On_77_Vel_72
Time_Shift_48
Sustain_On
Time_Shift_150
Note_On_79_Vel_74
Time_Shift_65
Note_On_77_Vel_0
Time_Shift_5
Note_On_77_Vel_70
Time_Shift_49
Note_On_79_Vel_0
Time_Shift_6
Note_On_79_Vel_81
Time_Shift_55
Note_On_77_Vel_0
Time_Shift_3
Note_On_56_Vel_46
Time_Shift_2
Note_On_77_Vel_74
Time_Shift_6
Note_On_62_Vel_42
Time_Shift_7
Note_On_79_Vel_0
Time_Shift_36
Note_On_51_Vel_0
Time_Shift_8
Sustain_Off
Time_Shift_61
Sustain_On
Time_Shift_154
Note_On_76_Vel_73
Time_Shift_138
Note_On_62_Vel_0
Time_Shift_2
Note_On_68_Vel_49
Time_Shift_3
Note_On_59_Vel_47
Note_On_62_Vel_37
Time_Shift_41
Note_On_77_Vel_0
Time_Shift_12
Note_On_77_Vel_84
Time_Shift_151
Note_On_79_Vel_87
Time_Shift_175
Note_On_77_Vel_0
Time_Shift_7
Note_On_77_Vel_78
Time_Shift_11
Note_On_59_Vel_0
Note_On_68_Vel_0
Time_Shift_1
Note_On_62_Vel_0
Note_On_56_Vel_0
Time_Shift_1
Note_On_79_Vel_0
Time_Shift_11
Sustain_Off
Time_Shift_15
Note_On_76_Vel_0
Time_Shift_27
Note_On_51_Vel_59
Time_Shift_73
Sustain_On
Time_Shift_419
Note_On_63_Vel_41
Time_Shift_21
Note_On_58_Vel_25
Time_Shift_1
Note_On_55_Vel_36
Time_Shift_78
Note_On_75_Vel_71
Time_Shift_337
Note_On_67_Vel_49
Time_Shift_4
Note_On_58_Vel_0
Time_Shift_8
Note_On_63_Vel_0
Time_Shift_3
Note_On_58_Vel_41
Time_Shift_2
Note_On_63_Vel_33
Time_Shift_364
Note_On_50_Vel_61
Time_Shift_3
Sustain_Off
Time_Shift_9
Note_On_63_Vel_0
Note_On_58_Vel_0
Time_Shift_1
Note_On_51_Vel_0
Time_Shift_1
Note_On_55_Vel_0
Time_Shift_1
Note_On_67_Vel_0
Time_Shift_2
Note_On_75_Vel_0
Time_Shift_13
Note_On_77_Vel_0
Time_Shift_100
Sustain_On
Time_Shift_144
Note_On_77_Vel_71
Time_Shift_178
Note_On_75_Vel_72
Time_Shift_54
Note_On_77_Vel_0
Time_Shift_7
Note_On_77_Vel_81
Time_Shift_55
Note_On_75_Vel_0
Time_Shift_3
Sustain_Off
Time_Shift_2
Note_On_50_Vel_0
Time_Shift_1
Note_On_75_Vel_81
Time_Shift_2
Note_On_77_Vel_0
Time_Shift_4
Note_On_55_Vel_42
Time_Shift_1
Note_On_63_Vel_51
Time_Shift_56
Sustain_On
Time_Shift_150
Note_On_74_Vel_88
Time_Shift_172
Note_On_63_Vel_0
Time_Shift_8
Note_On_55_Vel_0
Time_Shift_2
Note_On_63_Vel_53
Time_Shift_2
Note_On_67_Vel_57
Time_Shift_1
Note_On_55_Vel_46
Time_Shift_3
Note_On_75_Vel_0
Time_Shift_4
Note_On_75_Vel_95
Time_Shift_6
Note_On_58_Vel_56
Time_Shift_143
Note_On_55_Vel_0
Time_Shift_5
Note_On_77_Vel_95
Time_Shift_2
Note_On_55_Vel_41
Time_Shift_196
Note_On_74_Vel_0
Sustain_Off
Note_On_55_Vel_0
Time_Shift_1
Note_On_58_Vel_0
Note_On_63_Vel_0
Note_On_67_Vel_0
Note_On_75_Vel_0
Note_On_77_Vel_0
Time_Shift_11
Note_On_48_Vel_47
Time_Shift_8
Note_On_79_Vel_84
Time_Shift_62
Sustain_On
Time_Shift_123
Note_On_71_Vel_85
Time_Shift_177
Note_On_64_Vel_63
Time_Shift_2
Note_On_55_Vel_51
Time_Shift_1
Note_On_72_Vel_85
Time_Shift_39
Note_On_71_Vel_0
Time_Shift_9
Sustain_Off
Time_Shift_10
Note_On_48_Vel_0
Time_Shift_53
Sustain_On
Time_Shift_42
Note_On_73_Vel_85
Time_Shift_31
Note_On_72_Vel_0
Time_Shift_27
Note_On_64_Vel_0
Time_Shift_16
Note_On_55_Vel_0
Time_Shift_90
Sustain_Off
Time_Shift_12
Note_On_72_Vel_85
Time_Shift_1
Note_On_55_Vel_40
Time_Shift_4
Note_On_67_Vel_59
Time_Shift_8
Note_On_67_Vel_0
Time_Shift_7
Sustain_On
Time_Shift_7
Note_On_58_Vel_35
Time_Shift_131
Note_On_77_Vel_77
Time_Shift_31
Note_On_73_Vel_0
Time_Shift_54
Note_On_79_Vel_0
Time_Shift_105
Note_On_48_Vel_42
Time_Shift_13
Sustain_Off
Time_Shift_3
Note_On_58_Vel_0
Time_Shift_3
Note_On_72_Vel_0
Time_Shift_2
Note_On_77_Vel_0
Time_Shift_1
Note_On_55_Vel_0
Time_Shift_17
Note_On_76_Vel_70
Time_Shift_79
Sustain_On
Time_Shift_179
Note_On_80_Vel_80
Time_Shift_172
Note_On_64_Vel_44
Time_Shift_1
Note_On_55_Vel_44
Time_Shift_39
Note_On_79_Vel_75
Time_Shift_4
Sustain_Off
Time_Shift_12
Note_On_80_Vel_0
Time_Shift_31
Note_On_48_Vel_0
Time_Shift_30
Sustain_On
Time_Shift_88
Note_On_85_Vel_76
Time_Shift_66
Note_On_76_Vel_0
Time_Shift_114
Note_On_55_Vel_0
Time_Shift_10
Sustain_Off
Time_Shift_6
Note_On_64_Vel_0
Time_Shift_8
Note_On_60_Vel_40
Time_Shift_4
Note_On_64_Vel_30
Time_Shift_24
Note_On_84_Vel_72
Time_Shift_49
Sustain_On
Time_Shift_8
Note_On_79_Vel_0
Time_Shift_211
Note_On_79_Vel_76
Time_Shift_19
Note_On_85_Vel_0
Time_Shift_286
Note_On_41_Vel_35
Time_Shift_93
Note_On_82_Vel_76
Time_Shift_41
Note_On_79_Vel_0
Time_Shift_1
Note_On_60_Vel_0
Time_Shift_1
Note_On_84_Vel_0
Note_On_64_Vel_0
Time_Shift_4
Sustain_Off
Time_Shift_96
Sustain_On
Time_Shift_393
Note_On_61_Vel_46
Time_Shift_29
Note_On_53_Vel_38
Time_Shift_368
Note_On_64_Vel_61
Time_Shift_40
Note_On_61_Vel_0
Time_Shift_11
Note_On_61_Vel_29
Time_Shift_2
Note_On_58_Vel_29
Time_Shift_294
Note_On_80_Vel_77
Time_Shift_36
Sustain_Off
Time_Shift_2
Note_On_41_Vel_0
Time_Shift_3
Note_On_53_Vel_0
Note_On_58_Vel_0
Time_Shift_1
Note_On_64_Vel_0
Time_Shift_1
Note_On_41_Vel_38
Time_Shift_11
Note_On_61_Vel_0
Time_Shift_76
Sustain_On
Time_Shift_239
Note_On_60_Vel_49
Time_Shift_27
Note_On_53_Vel_42
Time_Shift_319
Note_On_65_Vel_51
Time_Shift_30
Note_On_60_Vel_0
Time_Shift_9
Note_On_56_Vel_47
Time_Shift_1
Note_On_60_Vel_36
Time_Shift_65
Note_On_79_Vel_86
Time_Shift_396
Note_On_77_Vel_86
Time_Shift_46
Note_On_53_Vel_0
Note_On_65_Vel_0
Note_On_79_Vel_0
Note_On_60_Vel_0
Note_On_56_Vel_0
Note_On_41_Vel_0
Time_Shift_1
Note_On_80_Vel_0
Time_Shift_1
Sustain_Off
Time_Shift_11
Note_On_82_Vel_0
Time_Shift_14
Note_On_46_Vel_60
Time_Shift_63
Sustain_On
Time_Shift_61
Note_On_46_Vel_0
Time_Shift_124
Note_On_79_Vel_64
Time_Shift_76
Note_On_77_Vel_0
Time_Shift_11
Note_On_77_Vel_62
Time_Shift_35
Note_On_79_Vel_0
Time_Shift_4
Note_On_79_Vel_70
Time_Shift_50
Note_On_77_Vel_0
Time_Shift_4
Note_On_77_Vel_79
Time_Shift_23
Note_On_62_Vel_52
Time_Shift_12
Note_On_53_Vel_55
Time_Shift_7
Note_On_79_Vel_0
Time_Shift_10
Note_On_79_Vel_79
Time_Shift_51
Note_On_77_Vel_0
Time_Shift_6
Note_On_77_Vel_78
Time_Shift_32
Note_On_79_Vel_0
Time_Shift_8
Note_On_79_Vel_82
Time_Shift_46
Note_On_77_Vel_0
Time_Shift_11
Note_On_77_Vel_88
Time_Shift_35
Note_On_79_Vel_0
Time_Shift_11
Note_On_79_Vel_81
Time_Shift_58
Note_On_77_Vel_0
Time_Shift_6
Note_On_77_Vel_85
Time_Shift_17
Note_On_79_Vel_0
Time_Shift_6
Note_On_68_Vel_65
Time_Shift_4
Note_On_79_Vel_95
Time_Shift_52
Note_On_77_Vel_0
Time_Shift_9
Note_On_77_Vel_90
Time_Shift_45
Note_On_79_Vel_0
Time_Shift_5
Note_On_79_Vel_83
Time_Shift_56
Note_On_77_Vel_0
Time_Shift_6
Note_On_77_Vel_93
Time_Shift_98
Note_On_76_Vel_92
Time_Shift_103
Note_On_77_Vel_0
Time_Shift_4
Note_On_77_Vel_93
Time_Shift_137
Note_On_47_Vel_45
Time_Shift_32
Sustain_Off
Time_Shift_1
Note_On_62_Vel_0
Time_Shift_1
Note_On_76_Vel_0
Time_Shift_4
Note_On_77_Vel_0
Time_Shift_52
Note_On_68_Vel_0
Note_On_79_Vel_0
Time_Shift_6
Note_On_79_Vel_90
Time_Shift_48
Sustain_On
Time_Shift_380
Note_On_55_Vel_43
Time_Shift_1
Note_On_65_Vel_30
Time_Shift_49
Note_On_79_Vel_0
Time_Shift_4
Note_On_79_Vel_87
Time_Shift_295
Note_On_65_Vel_0
Time_Shift_11
Note_On_65_Vel_38
Time_Shift_9
Note_On_62_Vel_41
Time_Shift_38
Note_On_74_Vel_89
Note_On_67_Vel_47
Time_Shift_357
Note_On_47_Vel_0
Note_On_55_Vel_0
Time_Shift_3
Note_On_75_Vel_93
Time_Shift_7
Note_On_55_Vel_44
Time_Shift_21
Note_On_53_Vel_0
Time_Shift_1
Note_On_65_Vel_0
Note_On_67_Vel_0
Note_On_62_Vel_0
Note_On_74_Vel_0
Time_Shift_1
Sustain_Off
Time_Shift_40
Note_On_60_Vel_35
Note_On_48_Vel_38
Time_Shift_19
Note_On_79_Vel_0
Time_Shift_39
Sustain_On
Time_Shift_23
Note_On_55_Vel_0
Time_Shift_30
Note_On_60_Vel_0
Time_Shift_31
Note_On_48_Vel_0
Time_Shift_141
Note_On_63_Vel_60
Time_Shift_41
Note_On_55_Vel_46
Time_Shift_318
Note_On_67_Vel_75
Time_Shift_30
Note_On_60_Vel_50
Time_Shift_344
Note_On_72_Vel_87
Time_Shift_45
Sustain_Off
Time_Shift_5
Note_On_60_Vel_0
Time_Shift_1
Note_On_63_Vel_0
Note_On_55_Vel_0
Time_Shift_1
Note_On_75_Vel_0
Time_Shift_9
Note_On_45_Vel_50
Time_Shift_2
Note_On_67_Vel_0
Time_Shift_84
Sustain_On
Time_Shift_37
Note_On_45_Vel_0
Time_Shift_197
Note_On_63_Vel_63
Time_Shift_10
Note_On_54_Vel_52
Time_Shift_372
Note_On_66_Vel_74
Time_Shift_30
Note_On_63_Vel_0
Time_Shift_3
Note_On_63_Vel_34
Time_Shift_407
Note_On_46_Vel_35
Time_Shift_40
Note_On_72_Vel_0
Note_On_66_Vel_0
Sustain_Off
Note_On_63_Vel_0
Time_Shift_1
Note_On_54_Vel_0
Time_Shift_4
Note_On_70_Vel_89
Time_Shift_113
Sustain_On
Time_Shift_200
Note_On_46_Vel_0
Time_Shift_272
Note_On_63_Vel_37
Time_Shift_31
Note_On_58_Vel_15
Time_Shift_13
Note_On_53_Vel_30
Time_Shift_67
Note_On_86_Vel_86
Time_Shift_262
Note_On_58_Vel_0
Time_Shift_5
Note_On_58_Vel_40
Time_Shift_64
Note_On_63_Vel_0
Time_Shift_5
Note_On_63_Vel_41
Time_Shift_76
Note_On_68_Vel_52
Time_Shift_9
Note_On_84_Vel_92
Time_Shift_286
Note_On_63_Vel_0
Time_Shift_7
Note_On_63_Vel_20
Time_Shift_149
Note_On_82_Vel_84
Time_Shift_55
Note_On_86_Vel_0
Time_Shift_1
Note_On_84_Vel_0
Note_On_53_Vel_0
Note_On_63_Vel_0
Note_On_70_Vel_0
Time_Shift_8
Sustain_Off
Time_Shift_3
Note_On_58_Vel_0
Time_Shift_3
Note_On_34_Vel_45
Time_Shift_12
Note_On_68_Vel_0
Time_Shift_31
Sustain_On
Time_Shift_265
Note_On_80_Vel_91
Time_Shift_200
Note_On_53_Vel_46
Note_On_62_Vel_42
Time_Shift_40
Note_On_79_Vel_87
Time_Shift_163
Note_On_80_Vel_0
Time_Shift_6
Note_On_80_Vel_94
Time_Shift_148
Note_On_62_Vel_0
Time_Shift_6
Note_On_62_Vel_50
Time_Shift_43
Note_On_68_Vel_60
Time_Shift_10
Note_On_34_Vel_0
Note_On_80_Vel_0
Time_Shift_3
Sustain_Off
Time_Shift_1
Note_On_79_Vel_0
Note_On_82_Vel_0
Time_Shift_11
Note_On_72_Vel_87
Time_Shift_10
Sustain_On
Time_Shift_213
Note_On_74_Vel_91
Time_Shift_302
Note_On_75_Vel_90
Time_Shift_33
Sustain_Off
Time_Shift_7
Note_On_74_Vel_0
Note_On_72_Vel_0
Time_Shift_6
Note_On_68_Vel_0
Time_Shift_7
Note_On_62_Vel_0
Time_Shift_8
Note_On_53_Vel_0
Time_Shift_19
Note_On_39_Vel_52
Time_Shift_50
Sustain_On
Time_Shift_146
Note_On_39_Vel_0
Time_Shift_219
Note_On_63_Vel_53
Time_Shift_26
Note_On_55_Vel_42
Time_Shift_3
Note_On_58_Vel_30
Time_Shift_364
Note_On_67_Vel_64
Time_Shift_26
Note_On_58_Vel_0
Note_On_63_Vel_0
Time_Shift_8
Note_On_63_Vel_42
Time_Shift_3
Note_On_58_Vel_26
Time_Shift_297
Sustain_Off
Time_Shift_3
Note_On_58_Vel_0
Note_On_67_Vel_0
Note_On_63_Vel_0
Time_Shift_2
Note_On_55_Vel_0
Time_Shift_1
Note_On_51_Vel_64
Time_Shift_62
Sustain_On
Time_Shift_441
Note_On_63_Vel_55
Time_Shift_14
Note_On_55_Vel_51
Time_Shift_102
Note_On_74_Vel_87
Time_Shift_487
Note_On_63_Vel_0
Time_Shift_6
Note_On_67_Vel_46
Time_Shift_4
Note_On_58_Vel_40
Note_On_63_Vel_38
Time_Shift_121
Note_On_75_Vel_0
Time_Shift_5
Note_On_75_Vel_96
Time_Shift_395
Note_On_46_Vel_42
Time_Shift_10
Note_On_51_Vel_0
Note_On_55_Vel_0
Time_Shift_1
Note_On_63_Vel_0
Note_On_74_Vel_0
Note_On_67_Vel_0
Note_On_58_Vel_0
Time_Shift_2
Note_On_75_Vel_0
Time_Shift_21
Sustain_Off
Time_Shift_1
Note_On_77_Vel_94
Time_Shift_95
Sustain_On
Time_Shift_169
Note_On_46_Vel_0
Time_Shift_241
Note_On_62_Vel_50
Time_Shift_18
Note_On_53_Vel_41
Time_Shift_325
Note_On_62_Vel_0
Time_Shift_6
Note_On_65_Vel_53
Time_Shift_2
Note_On_62_Vel_54
Time_Shift_28
Note_On_58_Vel_41
Time_Shift_297
Note_On_79_Vel_84
Time_Shift_32
Sustain_Off
Time_Shift_11
Note_On_58_Vel_0
Time_Shift_2
Note_On_62_Vel_0
Time_Shift_1
Note_On_65_Vel_0
Time_Shift_1
Note_On_53_Vel_0
Note_On_77_Vel_0
Time_Shift_14
Note_On_46_Vel_50
Time_Shift_51
Sustain_On
Time_Shift_332
Note_On_62_Vel_48
Time_Shift_7
Note_On_58_Vel_29
Time_Shift_21
Note_On_53_Vel_36
Time_Shift_324
Note_On_46_Vel_0
Time_Shift_122
Note_On_62_Vel_0
Time_Shift_6
Note_On_65_Vel_36
Time_Shift_2
Note_On_58_Vel_0
Time_Shift_4
Note_On_62_Vel_41
Time_Shift_6
Note_On_58_Vel_37
Time_Shift_95
Sustain_Off
Note_On_79_Vel_0
Time_Shift_49
Sustain_On
Time_Shift_7
Note_On_77_Vel_70
Time_Shift_630
Note_On_45_Vel_40
Time_Shift_68
Sustain_Off
Time_Shift_1
Note_On_77_Vel_0
Time_Shift_12
Note_On_77_Vel_62
Time_Shift_19
Note_On_53_Vel_0
Time_Shift_15
Note_On_58_Vel_0
Note_On_62_Vel_0
Time_Shift_16
Note_On_65_Vel_0
Time_Shift_84
Sustain_On
Time_Shift_338
Note_On_45_Vel_0
Time_Shift_81
Note_On_53_Vel_37
Time_Shift_6
Note_On_60_Vel_30
Time_Shift_8
Note_On_65_Vel_27
Time_Shift_389
Note_On_65_Vel_0
Time_Shift_10
Note_On_65_Vel_43
Time_Shift_13
Note_On_60_Vel_0
Time_Shift_4
Note_On_60_Vel_34
Time_Shift_327
Note_On_72_Vel_68
Time_Shift_51
Note_On_45_Vel_46
Time_Shift_13
Sustain_Off
Time_Shift_2
Note_On_60_Vel_0
Time_Shift_1
Note_On_65_Vel_0
Time_Shift_17
Note_On_53_Vel_0
Time_Shift_15
Note_On_77_Vel_0
Time_Shift_61
Sustain_On
Time_Shift_256
Note_On_60_Vel_35
Time_Shift_4
Note_On_53_Vel_40
Time_Shift_2
Note_On_65_Vel_32
Time_Shift_376
Note_On_65_Vel_0
Time_Shift_6
Note_On_65_Vel_42
Time_Shift_2
Note_On_60_Vel_0
Time_Shift_4
Note_On_60_Vel_46
Time_Shift_423
Note_On_75_Vel_88
Time_Shift_30
Note_On_72_Vel_0
Note_On_60_Vel_0
Note_On_65_Vel_0
Sustain_Off
Time_Shift_3
Note_On_45_Vel_0
Time_Shift_16
Note_On_53_Vel_0
Time_Shift_54
Note_On_44_Vel_57
Time_Shift_46
Sustain_On
Time_Shift_184
Note_On_44_Vel_0
Time_Shift_258
Note_On_60_Vel_51
Time_Shift_16
Note_On_51_Vel_38
Time_Shift_33
Note_On_75_Vel_0
Time_Shift_10
Note_On_75_Vel_92
Time_Shift_301
Note_On_63_Vel_54
Time_Shift_32
Note_On_56_Vel_54
Time_Shift_10
Note_On_75_Vel_0
Time_Shift_10
Note_On_75_Vel_99
Time_Shift_351
Note_On_75_Vel_0
Time_Shift_5
Note_On_75_Vel_86
Time_Shift_39
Note_On_51_Vel_0
Note_On_56_Vel_0
Time_Shift_1
Note_On_60_Vel_0
Note_On_63_Vel_0
Time_Shift_6
Sustain_Off
Time_Shift_12
Note_On_32_Vel_62
Time_Shift_129
Sustain_On
Time_Shift_154
Note_On_32_Vel_0
Time_Shift_245
Note_On_59_Vel_49
Time_Shift_3
Note_On_51_Vel_42
Time_Shift_142
Note_On_74_Vel_74
Time_Shift_163
Note_On_75_Vel_0
Time_Shift_10
Note_On_75_Vel_77
Time_Shift_174
Note_On_74_Vel_0
Time_Shift_67
Note_On_75_Vel_0
Time_Shift_5
Sustain_Off
Time_Shift_3
Note_On_77_Vel_71
Time_Shift_10
Note_On_51_Vel_0
Note_On_59_Vel_0
Time_Shift_6
Note_On_59_Vel_41
Time_Shift_1
Note_On_51_Vel_33
Time_Shift_3
Note_On_56_Vel_38
Time_Shift_113
Sustain_On
Time_Shift_361
Note_On_56_Vel_0
Time_Shift_4
Note_On_75_Vel_71
Time_Shift_2
Note_On_56_Vel_27
Time_Shift_232
Note_On_75_Vel_0
Time_Shift_8
Note_On_75_Vel_61
Time_Shift_10
Note_On_67_Vel_38
Time_Shift_3
Note_On_39_Vel_45
Time_Shift_7
Sustain_Off
Note_On_51_Vel_0
Note_On_77_Vel_0
Time_Shift_2
Note_On_56_Vel_0
Note_On_59_Vel_0
Time_Shift_131
Sustain_On
Time_Shift_377
Note_On_63_Vel_47
Time_Shift_10
Note_On_55_Vel_36
Time_Shift_404
Note_On_67_Vel_0
Time_Shift_4
Note_On_67_Vel_54
Time_Shift_11
Note_On_63_Vel_0
Time_Shift_4
Note_On_63_Vel_38
Time_Shift_17
Note_On_58_Vel_26
Time_Shift_296
Note_On_51_Vel_46
Time_Shift_40
Note_On_70_Vel_73
Time_Shift_311
Note_On_55_Vel_0
Note_On_63_Vel_0
Time_Shift_10
Note_On_63_Vel_79
Time_Shift_1
Note_On_55_Vel_48
Time_Shift_51
Note_On_55_Vel_0
Time_Shift_11
Note_On_55_Vel_38
Time_Shift_350
Note_On_67_Vel_0
Time_Shift_11
Note_On_67_Vel_87
Time_Shift_20
Note_On_58_Vel_0
Note_On_63_Vel_0
Time_Shift_4
Note_On_63_Vel_60
Time_Shift_6
Note_On_58_Vel_48
Time_Shift_361
Note_On_40_Vel_52
Time_Shift_139
Note_On_39_Vel_0
Note_On_63_Vel_0
Note_On_51_Vel_0
Note_On_70_Vel_0
Note_On_55_Vel_0
Note_On_58_Vel_0
Time_Shift_1
Sustain_Off
Time_Shift_19
Note_On_75_Vel_0
Time_Shift_7
Note_On_67_Vel_0
Time_Shift_2
Note_On_82_Vel_104
Time_Shift_67
Sustain_On
Time_Shift_387
Note_On_61_Vel_64
Time_Shift_29
Note_On_52_Vel_54
Time_Shift_360
Note_On_67_Vel_66
Note_On_61_Vel_0
Time_Shift_7
Note_On_61_Vel_48
Note_On_58_Vel_61
Time_Shift_300
Note_On_40_Vel_0
Time_Shift_8
Note_On_40_Vel_64
Time_Shift_40
Sustain_Off
Time_Shift_2
Note_On_58_Vel_0
Note_On_61_Vel_0
Note_On_67_Vel_0
Note_On_52_Vel_0
Time_Shift_8
Note_On_81_Vel_102
Time_Shift_50
Note_On_82_Vel_0
Time_Shift_23
Sustain_On
Time_Shift_100
Note_On_40_Vel_0
Time_Shift_144
Note_On_60_Vel_67
Time_Shift_16
Note_On_52_Vel_59
Time_Shift_263
Note_On_58_Vel_64
Note_On_67_Vel_69
Time_Shift_14
Note_On_60_Vel_0
Time_Shift_7
Note_On_60_Vel_60
Time_Shift_3
Note_On_79_Vel_105
Time_Shift_335
Note_On_77_Vel_99
Time_Shift_28
Note_On_52_Vel_0
Time_Shift_1
Sustain_Off
Note_On_81_Vel_0
Time_Shift_1
Note_On_60_Vel_0
Time_Shift_1
Note_On_58_Vel_0
Time_Shift_1
Note_On_79_Vel_0
Time_Shift_1
Note_On_67_Vel_0
Time_Shift_8
Note_On_69_Vel_77
Time_Shift_12
Note_On_41_Vel_70
Time_Shift_86
Sustain_On
Time_Shift_35
Note_On_41_Vel_0
Time_Shift_211
Note_On_69_Vel_0
Time_Shift_2
Note_On_63_Vel_71
Time_Shift_2
Note_On_69_Vel_55
Time_Shift_2
Note_On_53_Vel_50
Time_Shift_340
Note_On_69_Vel_0
Time_Shift_7
Note_On_69_Vel_76
Time_Shift_23
Note_On_53_Vel_0
Note_On_63_Vel_0
Time_Shift_5
Note_On_53_Vel_35
Time_Shift_3
Note_On_63_Vel_53
Time_Shift_2
Note_On_60_Vel_52
Time_Shift_393
Note_On_74_Vel_82
Time_Shift_46
Sustain_Off
Time_Shift_4
Note_On_63_Vel_0
Time_Shift_1
Note_On_77_Vel_0
Note_On_60_Vel_0
Time_Shift_2
Note_On_43_Vel_53
Note_On_70_Vel_67
Time_Shift_5
Note_On_55_Vel_46
Time_Shift_8
Note_On_53_Vel_0
Note_On_69_Vel_0
Time_Shift_107
Sustain_On
Time_Shift_46
Note_On_55_Vel_0
Time_Shift_264
Note_On_62_Vel_50
Time_Shift_1
Note_On_55_Vel_47
Time_Shift_419
Note_On_62_Vel_0
Time_Shift_8
Note_On_62_Vel_58
Note_On_70_Vel_0
Time_Shift_10
Note_On_70_Vel_56
Time_Shift_12
Note_On_58_Vel_44
Time_Shift_505
Note_On_36_Vel_44
Time_Shift_4
Note_On_67_Vel_43
Time_Shift_92
Note_On_58_Vel_0
Time_Shift_2
Note_On_43_Vel_0
Note_On_62_Vel_0
Note_On_55_Vel_0
Time_Shift_2
Note_On_74_Vel_0
Time_Shift_1
Note_On_70_Vel_0
Time_Shift_4
Sustain_Off
Time_Shift_11
Note_On_75_Vel_91
Time_Shift_55
Note_On_67_Vel_0
Time_Shift_5
Note_On_67_Vel_48
Time_Shift_18
Sustain_On
Time_Shift_108
Note_On_36_Vel_0
Time_Shift_69
Note_On_67_Vel_0
Time_Shift_6
Note_On_67_Vel_26
Time_Shift_5
Note_On_55_Vel_27
Time_Shift_4
Note_On_55_Vel_0
Time_Shift_256
Note_On_63_Vel_55
Time_Shift_2
Note_On_55_Vel_56
Time_Shift_349
Note_On_67_Vel_0
Time_Shift_10
Note_On_67_Vel_82
Time_Shift_369
Note_On_74_Vel_88
Time_Shift_42
Sustain_Off
Time_Shift_4
Note_On_75_Vel_0
Note_On_55_Vel_0
Note_On_63_Vel_0
Note_On_67_Vel_0
Time_Shift_14
Note_On_41_Vel_48
Time_Shift_2
Note_On_69_Vel_45
Time_Shift_1
Note_On_65_Vel_34
Time_Shift_4
Note_On_65_Vel_0
Time_Shift_46
Sustain_On
Time_Shift_40
Note_On_41_Vel_0
Time_Shift_260
Note_On_72_Vel_92
Time_Shift_22
Note_On_69_Vel_0
Time_Shift_5
Note_On_69_Vel_66
Time_Shift_3
Note_On_53_Vel_57
Time_Shift_5
Note_On_63_Vel_48
Time_Shift_287
Note_On_74_Vel_0
Time_Shift_9
Note_On_74_Vel_97
Time_Shift_22
Note_On_69_Vel_0
Time_Shift_11
Note_On_69_Vel_74
Note_On_65_Vel_59
Time_Shift_4
Note_On_53_Vel_0
Time_Shift_11
Note_On_60_Vel_48
Note_On_53_Vel_54
Time_Shift_299
Note_On_70_Vel_93
Time_Shift_20
Note_On_65_Vel_0
Time_Shift_11
Note_On_65_Vel_65
Time_Shift_2
Note_On_62_Vel_34
Time_Shift_5
Sustain_Off
Note_On_69_Vel_0
Time_Shift_1
Note_On_74_Vel_0
Note_On_72_Vel_0
Time_Shift_1
Note_On_53_Vel_0
Note_On_60_Vel_0
Time_Shift_7
Note_On_58_Vel_50
Time_Shift_4
Note_On_63_Vel_0
Time_Shift_84
Sustain_On
Time_Shift_162
Note_On_65_Vel_0
Time_Shift_78
Note_On_71_Vel_96
Time_Shift_17
Note_On_66_Vel_81
Time_Shift_7
Note_On_63_Vel_59
Time_Shift_6
Note_On_58_Vel_0
Note_On_70_Vel_0
Time_Shift_2
Note_On_57_Vel_56
Time_Shift_9
Sustain_Off
Time_Shift_3
Note_On_62_Vel_0
Time_Shift_62
Sustain_On
Time_Shift_253
Note_On_71_Vel_0
Time_Shift_6
Note_On_71_Vel_92
Time_Shift_24
Note_On_64_Vel_72
Time_Shift_5
Note_On_56_Vel_58
Time_Shift_32
Sustain_Off
Time_Shift_1
Note_On_63_Vel_0
Note_On_57_Vel_0
Time_Shift_1
Note_On_66_Vel_0
Time_Shift_100
Sustain_On
Time_Shift_259
Note_On_55_Vel_67
Time_Shift_31
Note_On_72_Vel_94
Time_Shift_8
Sustain_Off
Time_Shift_2
Note_On_56_Vel_0
Time_Shift_23
Note_On_64_Vel_0
Note_On_71_Vel_0
Time_Shift_4
Note_On_70_Vel_58
Time_Shift_1
Note_On_64_Vel_57
Time_Shift_64
Sustain_On
Time_Shift_330
Note_On_72_Vel_0
Time_Shift_7
Note_On_72_Vel_95
Time_Shift_34
Note_On_69_Vel_73
Time_Shift_25
Note_On_63_Vel_47
Time_Shift_1
Note_On_53_Vel_54
Time_Shift_1
Sustain_Off
Time_Shift_4
Note_On_60_Vel_45
Time_Shift_4
Note_On_70_Vel_0
Note_On_55_Vel_0
Time_Shift_9
Note_On_64_Vel_0
Time_Shift_100
Sustain_On
Time_Shift_478
Note_On_65_Vel_39
Time_Shift_1
Note_On_58_Vel_43
Time_Shift_51
Note_On_74_Vel_86
Time_Shift_27
Note_On_68_Vel_68
Time_Shift_15
Sustain_Off
Time_Shift_27
Note_On_60_Vel_0
Time_Shift_15
Note_On_69_Vel_0
Time_Shift_8
Note_On_63_Vel_0
Time_Shift_7
Note_On_72_Vel_0
Time_Shift_4
Note_On_53_Vel_0
Time_Shift_58
Sustain_On
Time_Shift_100
Note_On_65_Vel_0
Time_Shift_124
Note_On_67_Vel_88
Time_Shift_121
Note_On_67_Vel_0
Time_Shift_5
Note_On_67_Vel_82
Time_Shift_11
Sustain_Off
Time_Shift_30
Note_On_58_Vel_0
Note_On_68_Vel_0
Time_Shift_9
Note_On_58_Vel_26
Time_Shift_68
Sustain_On
Time_Shift_296
Note_On_70_Vel_83
Time_Shift_220
Note_On_75_Vel_94
Time_Shift_412
Note_On_39_Vel_37
Time_Shift_83
Note_On_79_Vel_82
Time_Shift_18
Note_On_74_Vel_0
Time_Shift_10
Note_On_70_Vel_0
Time_Shift_1
Note_On_58_Vel_0
Time_Shift_1
Note_On_75_Vel_0
Time_Shift_1
Sustain_Off
Time_Shift_18
Note_On_67_Vel_0
Time_Shift_77
Sustain_On
Time_Shift_676
Note_On_63_Vel_41
Time_Shift_10
Note_On_55_Vel_34
Time_Shift_497
Note_On_63_Vel_0
Time_Shift_8
Note_On_63_Vel_33
Time_Shift_3
Note_On_58_Vel_31
Time_Shift_3
Note_On_67_Vel_38
Time_Shift_101
Note_On_55_Vel_0
Time_Shift_5
Note_On_69_Vel_65
Note_On_55_Vel_34
Time_Shift_18
Note_On_58_Vel_0
Time_Shift_4
Note_On_58_Vel_32
Time_Shift_157
Note_On_55_Vel_0
Time_Shift_8
Note_On_55_Vel_41
Note_On_70_Vel_75
Time_Shift_236
Note_On_55_Vel_0
Time_Shift_1
Sustain_Off
Note_On_71_Vel_63
Note_On_58_Vel_0
Time_Shift_2
Note_On_69_Vel_0
Note_On_63_Vel_0
Note_On_67_Vel_0
Time_Shift_3
Note_On_70_Vel_0
Time_Shift_19
Note_On_39_Vel_0
Time_Shift_33
Note_On_51_Vel_45
Time_Shift_28
Sustain_On
Time_Shift_211
Note_On_70_Vel_70
Time_Shift_150
Note_On_79_Vel_0
Time_Shift_23
Note_On_62_Vel_49
Time_Shift_10
Note_On_56_Vel_42
Time_Shift_2
Note_On_73_Vel_72
Time_Shift_146
Note_On_74_Vel_87
Time_Shift_155
Sustain_Off
Time_Shift_1
Note_On_51_Vel_0
Time_Shift_2
Note_On_71_Vel_0
Time_Shift_1
Note_On_56_Vel_0
Note_On_73_Vel_0
Note_On_70_Vel_0
Time_Shift_1
Note_On_74_Vel_0
Time_Shift_25
Note_On_79_Vel_87
Time_Shift_18
Note_On_62_Vel_0
Time_Shift_6
Note_On_62_Vel_43
Time_Shift_2
Note_On_68_Vel_48
Time_Shift_8
Sustain_On
Time_Shift_9
Note_On_58_Vel_51
Time_Shift_275
Note_On_77_Vel_88
Time_Shift_143
Note_On_58_Vel_0
Note_On_62_Vel_0
Note_On_68_Vel_0
Time_Shift_3
Note_On_77_Vel_0
Note_On_79_Vel_0
Time_Shift_4
Note_On_77_Vel_71
Sustain_Off
Time_Shift_54
Note_On_51_Vel_58
Time_Shift_65
Sustain_On
Time_Shift_441
Note_On_63_Vel_50
Time_Shift_29
Note_On_70_Vel_36
Time_Shift_2
Note_On_55_Vel_41
Time_Shift_355
Note_On_67_Vel_43
Time_Shift_2
Note_On_63_Vel_0
Time_Shift_4
Note_On_63_Vel_39
Time_Shift_23
Note_On_58_Vel_25
Time_Shift_40
Note_On_75_Vel_76
Time_Shift_286
Note_On_50_Vel_75
Time_Shift_41
Note_On_63_Vel_0
Note_On_51_Vel_0
Time_Shift_1
Note_On_67_Vel_0
Note_On_70_Vel_0
Note_On_58_Vel_0
Time_Shift_1
Note_On_77_Vel_0
Time_Shift_1
Note_On_75_Vel_0
Time_Shift_1
Sustain_Off
Time_Shift_9
Note_On_55_Vel_0
Time_Shift_69
Sustain_On
Time_Shift_109
Note_On_77_Vel_70
Time_Shift_158
Note_On_75_Vel_65
Time_Shift_56
Note_On_77_Vel_0
Time_Shift_4
Note_On_77_Vel_73
Time_Shift_50
Note_On_75_Vel_0
Time_Shift_10
Note_On_75_Vel_80
Time_Shift_48
Note_On_55_Vel_43
Time_Shift_4
Note_On_63_Vel_45
Note_On_58_Vel_33
Time_Shift_8
Note_On_50_Vel_0
Time_Shift_2
Note_On_77_Vel_0
Time_Shift_3
Sustain_Off
Time_Shift_101
Sustain_On
Time_Shift_54
Note_On_55_Vel_0
Note_On_58_Vel_0
Time_Shift_106
Note_On_74_Vel_73
Time_Shift_191
Note_On_67_Vel_43
Time_Shift_2
Note_On_63_Vel_0
Time_Shift_5
Note_On_55_Vel_38
Time_Shift_6
Note_On_63_Vel_37
Time_Shift_1
Note_On_58_Vel_34
Time_Shift_27
Note_On_75_Vel_0
Time_Shift_11
Note_On_75_Vel_79
Time_Shift_168
Note_On_77_Vel_82
Time_Shift_220
Note_On_48_Vel_41
Time_Shift_17
Note_On_74_Vel_0
Note_On_55_Vel_0
Note_On_63_Vel_0
Note_On_58_Vel_0
Time_Shift_1
Note_On_67_Vel_0
Time_Shift_1
Note_On_75_Vel_0
Sustain_Off
Note_On_77_Vel_0
Time_Shift_25
Note_On_79_Vel_75
Time_Shift_64
Sustain_On
Time_Shift_166
Note_On_71_Vel_75
Note_On_55_Vel_34
Time_Shift_10
Note_On_55_Vel_0
Time_Shift_166
Note_On_64_Vel_51
Note_On_55_Vel_43
Time_Shift_39
Note_On_72_Vel_85
Time_Shift_37
Note_On_71_Vel_0
Time_Shift_1
Sustain_Off
Time_Shift_19
Sustain_On
Time_Shift_98
Note_On_73_Vel_83
Time_Shift_155
Note_On_72_Vel_0
Time_Shift_8
Note_On_64_Vel_0
Note_On_72_Vel_84
Time_Shift_10
Note_On_64_Vel_52
Time_Shift_3
Note_On_58_Vel_44
Time_Shift_130
Note_On_77_Vel_88
Time_Shift_164
Note_On_79_Vel_0
Time_Shift_3
Note_On_73_Vel_0
Time_Shift_1
Note_On_72_Vel_0
Sustain_Off
Time_Shift_1
Note_On_64_Vel_0
Time_Shift_1
Note_On_55_Vel_0
Time_Shift_4
Note_On_77_Vel_0
Time_Shift_13
Note_On_58_Vel_0
Time_Shift_3
Note_On_76_Vel_84
Time_Shift_58
Note_On_48_Vel_0
Time_Shift_8
Sustain_On
Time_Shift_113
Note_On_80_Vel_91
Time_Shift_18
Note_On_76_Vel_0
Time_Shift_118
Note_On_64_Vel_42
Time_Shift_6
Note_On_58_Vel_30
Note_On_55_Vel_38
Time_Shift_6
Note_On_58_Vel_0
Time_Shift_38
Note_On_79_Vel_86
Time_Shift_21
Sustain_Off
Time_Shift_3
Note_On_80_Vel_0
Time_Shift_23
Sustain_On
Time_Shift_110
Note_On_85_Vel_86
Time_Shift_220
Note_On_79_Vel_0
Time_Shift_8
Note_On_55_Vel_0
Time_Shift_5
Note_On_60_Vel_41
Time_Shift_38
Note_On_84_Vel_83
Time_Shift_280
Note_On_79_Vel_82
Time_Shift_68
Note_On_64_Vel_0
Time_Shift_217
Note_On_41_Vel_44
Time_Shift_62
Note_On_82_Vel_90
Time_Shift_5
Note_On_85_Vel_0
Time_Shift_28
Note_On_60_Vel_0
Time_Shift_2
Note_On_84_Vel_0
Note_On_79_Vel_0
Time_Shift_3
Sustain_Off
Time_Shift_106
Sustain_On
Time_Shift_302
Note_On_61_Vel_49
Time_Shift_17
Note_On_53_Vel_39
Time_Shift_358
Note_On_64_Vel_60
Time_Shift_357
Note_On_80_Vel_76
Time_Shift_41
Note_On_41_Vel_0
Time_Shift_6
Sustain_Off
Note_On_41_Vel_44
Time_Shift_6
Note_On_53_Vel_0
Note_On_61_Vel_0
Time_Shift_1
Note_On_64_Vel_0
Time_Shift_79
Sustain_On
Time_Shift_234
Note_On_64_Vel_34
Time_Shift_12
Note_On_64_Vel_0
Time_Shift_20
Note_On_60_Vel_42
Time_Shift_21
Note_On_53_Vel_36
Time_Shift_409
Note_On_65_Vel_33
Time_Shift_11
Note_On_60_Vel_0
Time_Shift_4
Note_On_60_Vel_28
Time_Shift_7
Note_On_56_Vel_36
Time_Shift_94
Note_On_79_Vel_72
Time_Shift_480
Note_On_77_Vel_62
Time_Shift_67
Note_On_41_Vel_0
Time_Shift_5
Note_On_56_Vel_0
Note_On_60_Vel_0
Note_On_79_Vel_0
Note_On_53_Vel_0
Note_On_65_Vel_0
Time_Shift_1
Note_On_80_Vel_0
Time_Shift_3
Sustain_Off
Time_Shift_5
Note_On_46_Vel_42
Time_Shift_2
Note_On_82_Vel_0
Time_Shift_62
Note_On_46_Vel_0
Time_Shift_14
Sustain_On
Time_Shift_158
Note_On_79_Vel_65
Time_Shift_96
Note_On_77_Vel_0
Time_Shift_4
Note_On_77_Vel_61
Time_Shift_42
Note_On_79_Vel_0
Time_Shift_11
Note_On_79_Vel_65
Time_Shift_43
Note_On_77_Vel_0
Time_Shift_9
Note_On_77_Vel_67
Time_Shift_45
Note_On_79_Vel_0
Time_Shift_8
Note_On_79_Vel_79
Time_Shift_53
Note_On_77_Vel_0
Time_Shift_5
Note_On_62_Vel_47
Time_Shift_3
Note_On_77_Vel_71
Time_Shift_46
Note_On_79_Vel_0
Time_Shift_5
Note_On_79_Vel_77
Time_Shift_56
Note_On_77_Vel_0
Time_Shift_10
Note_On_77_Vel_75
Time_Shift_44
Note_On_79_Vel_0
Time_Shift_4
Note_On_79_Vel_77
Time_Shift_50
Note_On_77_Vel_0
Time_Shift_4
Note_On_77_Vel_78
Time_Shift_42
Note_On_79_Vel_0
Time_Shift_9
Note_On_79_Vel_79
Time_Shift_45
Note_On_77_Vel_0
Time_Shift_7
Note_On_62_Vel_0
Time_Shift_2
Note_On_77_Vel_78
Time_Shift_2
Note_On_68_Vel_56
Time_Shift_1
Note_On_62_Vel_44
Time_Shift_34
Note_On_79_Vel_0
Time_Shift_5
Note_On_79_Vel_81
Time_Shift_56
Note_On_77_Vel_0
Time_Shift_4
Note_On_77_Vel_72
Time_Shift_27
Note_On_79_Vel_0
Time_Shift_5
Note_On_79_Vel_81
Time_Shift_56
Note_On_77_Vel_0
Time_Shift_11
Note_On_77_Vel_87
Time_Shift_95
Note_On_76_Vel_87
Time_Shift_109
Note_On_77_Vel_0
Time_Shift_9
Note_On_77_Vel_90
Time_Shift_163
Note_On_47_Vel_43
Time_Shift_34
Note_On_62_Vel_0
Time_Shift_1
Note_On_76_Vel_0
Time_Shift_1
Note_On_77_Vel_0
Time_Shift_3
Sustain_Off
Time_Shift_20
Note_On_79_Vel_0
Time_Shift_11
Note_On_79_Vel_85
Time_Shift_65
Sustain_On
Time_Shift_31
Note_On_68_Vel_0
Time_Shift_385
Note_On_55_Vel_42
Time_Shift_32
Note_On_65_Vel_24
Time_Shift_44
Note_On_79_Vel_0
Time_Shift_11
Note_On_79_Vel_81
Time_Shift_335
Note_On_55_Vel_0
Note_On_65_Vel_0
Time_Shift_3
Note_On_62_Vel_50
Time_Shift_7
Note_On_65_Vel_45
Time_Shift_1
Note_On_55_Vel_40
Time_Shift_5
Note_On_67_Vel_55
Time_Shift_3
Note_On_74_Vel_83
Time_Shift_362
Note_On_75_Vel_91
Time_Shift_8
Note_On_55_Vel_0
Time_Shift_1
Note_On_65_Vel_0
Note_On_62_Vel_0
Time_Shift_1
Note_On_67_Vel_0
Note_On_47_Vel_0
Time_Shift_1
Sustain_Off
Note_On_79_Vel_0
Time_Shift_1
Note_On_74_Vel_0
Time_Shift_39
Note_On_48_Vel_50
Time_Shift_59
Sustain_On
Time_Shift_272
Note_On_63_Vel_51
Time_Shift_32
Note_On_55_Vel_39
Time_Shift_324
Note_On_67_Vel_59
Time_Shift_28
Note_On_60_Vel_45
Time_Shift_353
Note_On_72_Vel_73
Time_Shift_14
Sustain_Off
Time_Shift_3
Note_On_60_Vel_0
Time_Shift_1
Note_On_63_Vel_0
Note_On_48_Vel_0
Note_On_55_Vel_0
Time_Shift_2
Note_On_75_Vel_0
Time_Shift_16
Note_On_67_Vel_0
Time_Shift_4
Note_On_45_Vel_51
Time_Shift_88
Sustain_On
Time_Shift_77
Note_On_45_Vel_0
Time_Shift_230
Note_On_63_Vel_52
Time_Shift_3
Note_On_54_Vel_47
Time_Shift_401
Note_On_66_Vel_46
Time_Shift_14
Note_On_54_Vel_0
Time_Shift_4
Note_On_63_Vel_0
Time_Shift_10
Note_On_63_Vel_31
Time_Shift_2
Note_On_60_Vel_36
Time_Shift_350
Note_On_60_Vel_0
Note_On_72_Vel_0
Time_Shift_1
Note_On_66_Vel_0
Note_On_63_Vel_0
Time_Shift_1
Sustain_Off
Time_Shift_15
Note_On_46_Vel_37
Time_Shift_49
Note_On_70_Vel_80
Time_Shift_48
Sustain_On
Time_Shift_390
Note_On_86_Vel_82
Time_Shift_36
Note_On_63_Vel_29
Time_Shift_11
Note_On_53_Vel_35
Time_Shift_11
Sustain_Off
Time_Shift_13
Note_On_70_Vel_0
Note_On_46_Vel_0
Time_Shift_100
Note_On_63_Vel_0
Time_Shift_23
Sustain_On
Time_Shift_297
Note_On_58_Vel_46
Time_Shift_84
Note_On_63_Vel_45
Time_Shift_84
Note_On_68_Vel_42
Time_Shift_52
Note_On_85_Vel_72
Time_Shift_303
Note_On_84_Vel_68
Time_Shift_30
Note_On_58_Vel_0
Time_Shift_2
Note_On_63_Vel_0
Time_Shift_7
Note_On_34_Vel_45
Sustain_Off
Time_Shift_24
Sustain_On
Time_Shift_129
Note_On_83_Vel_73
Time_Shift_95
Note_On_82_Vel_77
Time_Shift_86
Note_On_81_Vel_79
Time_Shift_87
Note_On_80_Vel_83
Time_Shift_10
Note_On_53_Vel_0
Time_Shift_6
Note_On_62_Vel_48
Time_Shift_5
Note_On_53_Vel_45
Time_Shift_63
Note_On_77_Vel_73
Time_Shift_83
Note_On_74_Vel_80
Time_Shift_99
Note_On_71_Vel_76
Time_Shift_87
Note_On_70_Vel_71
Time_Shift_111
Note_On_74_Vel_0
Time_Shift_5
Note_On_74_Vel_80
Time_Shift_20
Note_On_58_Vel_44
Time_Shift_36
Note_On_85_Vel_0
Time_Shift_1
Note_On_34_Vel_0
Time_Shift_2
Note_On_80_Vel_0
Time_Shift_1
Note_On_81_Vel_0
Note_On_71_Vel_0
Note_On_83_Vel_0
Note_On_70_Vel_0
Note_On_82_Vel_0
Note_On_77_Vel_0
Time_Shift_4
Note_On_68_Vel_0
Time_Shift_3
Sustain_Off
Time_Shift_4
Note_On_84_Vel_0
Time_Shift_8
Note_On_53_Vel_0
Note_On_86_Vel_0
Time_Shift_46
Note_On_62_Vel_0
Time_Shift_11
Note_On_62_Vel_39
Time_Shift_118
Note_On_68_Vel_50
Time_Shift_37
Note_On_79_Vel_73
Time_Shift_64
Note_On_74_Vel_0
Sustain_On
Time_Shift_276
Note_On_77_Vel_70
Time_Shift_39
Note_On_62_Vel_0
Note_On_68_Vel_0
Time_Shift_8
Note_On_62_Vel_22
Time_Shift_4
Note_On_68_Vel_25
Time_Shift_170
Note_On_75_Vel_79
Time_Shift_118
Note_On_75_Vel_0
Time_Shift_9
Note_On_75_Vel_47
Time_Shift_202
Note_On_39_Vel_36
Time_Shift_58
Note_On_75_Vel_0
Time_Shift_10
Note_On_75_Vel_71
Time_Shift_1
Note_On_67_Vel_30
Time_Shift_34
Note_On_68_Vel_0
Note_On_79_Vel_0
Time_Shift_2
Note_On_62_Vel_0
Time_Shift_1
Note_On_77_Vel_0
Time_Shift_1
Sustain_Off
Time_Shift_4
Note_On_58_Vel_0
Time_Shift_93
Sustain_On
Time_Shift_46
Note_On_39_Vel_0
Time_Shift_393
Note_On_63_Vel_38
Time_Shift_18
Note_On_58_Vel_24
Time_Shift_11
Note_On_55_Vel_36
Time_Shift_392
Note_On_67_Vel_0
Time_Shift_7
Note_On_58_Vel_0
Note_On_63_Vel_0
Time_Shift_2
Note_On_67_Vel_47
Time_Shift_3
Note_On_58_Vel_39
Time_Shift_4
Note_On_63_Vel_41
Time_Shift_312
Note_On_51_Vel_60
Time_Shift_23
Sustain_Off
Time_Shift_63
Sustain_On
Time_Shift_354
Note_On_55_Vel_0
Note_On_63_Vel_0
Time_Shift_5
Note_On_63_Vel_43
Time_Shift_2
Note_On_55_Vel_50
Time_Shift_103
Note_On_74_Vel_82
Time_Shift_412
Note_On_63_Vel_0
Note_On_67_Vel_0
Time_Shift_5
Note_On_67_Vel_44
Time_Shift_3
Note_On_58_Vel_0
Time_Shift_3
Note_On_63_Vel_36
Time_Shift_3
Note_On_58_Vel_36
Time_Shift_101
Note_On_75_Vel_0
Time_Shift_9
Note_On_75_Vel_99
Time_Shift_346
Note_On_77_Vel_92
Time_Shift_45
Note_On_75_Vel_0
Time_Shift_4
Note_On_75_Vel_46
Time_Shift_6
Note_On_74_Vel_0
Note_On_58_Vel_0
Time_Shift_1
Note_On_63_Vel_0
Note_On_67_Vel_0
Note_On_55_Vel_0
Time_Shift_1
Note_On_51_Vel_0
Time_Shift_5
Sustain_Off
Time_Shift_17
Note_On_46_Vel_44
Time_Shift_50
Sustain_On
Time_Shift_83
Note_On_46_Vel_0
Time_Shift_214
Note_On_62_Vel_58
Time_Shift_23
Note_On_53_Vel_47
Time_Shift_314
Note_On_65_Vel_66
Time_Shift_11
Note_On_62_Vel_0
Time_Shift_5
Note_On_62_Vel_44
Time_Shift_7
Note_On_58_Vel_45
Time_Shift_286
Note_On_79_Vel_84
Time_Shift_48
Note_On_58_Vel_0
Time_Shift_7
Note_On_58_Vel_44
Time_Shift_5
Note_On_46_Vel_46
Time_Shift_3
Note_On_62_Vel_0
Note_On_65_Vel_0
Time_Shift_3
Note_On_53_Vel_0
Sustain_Off
Time_Shift_1
Note_On_77_Vel_0
Time_Shift_4
Note_On_75_Vel_0
Time_Shift_23
Note_On_58_Vel_0
Time_Shift_54
Sustain_On
Time_Shift_271
Note_On_62_Vel_55
Time_Shift_25
Note_On_58_Vel_30
Time_Shift_7
Note_On_53_Vel_41
Time_Shift_366
Note_On_65_Vel_44
Time_Shift_14
Note_On_62_Vel_0
Time_Shift_11
Note_On_62_Vel_30
Time_Shift_20
Note_On_58_Vel_0
Time_Shift_5
Note_On_58_Vel_34
Time_Shift_76
Note_On_77_Vel_85
Time_Shift_493
Note_On_45_Vel_48
Time_Shift_102
Note_On_77_Vel_0
Time_Shift_10
Note_On_77_Vel_81
Time_Shift_47
Sustain_Off
Time_Shift_7
Note_On_58_Vel_0
Time_Shift_1
Note_On_62_Vel_0
Note_On_79_Vel_0
Time_Shift_1
Note_On_53_Vel_0
Time_Shift_1
Note_On_46_Vel_0
Time_Shift_109
Sustain_On
Time_Shift_169
Note_On_65_Vel_0
Time_Shift_22
Note_On_64_Vel_19
Time_Shift_9
Note_On_64_Vel_0
Time_Shift_326
Note_On_60_Vel_37
Time_Shift_14
Note_On_53_Vel_37
Time_Shift_1
Note_On_57_Vel_25
Time_Shift_409
Note_On_65_Vel_41
Time_Shift_10
Note_On_60_Vel_0
Time_Shift_5
Note_On_60_Vel_34
Time_Shift_330
Note_On_72_Vel_68
Time_Shift_42
Note_On_45_Vel_0
Note_On_65_Vel_0
Time_Shift_9
Note_On_65_Vel_33
Note_On_45_Vel_45
Time_Shift_8
Note_On_60_Vel_0
Time_Shift_1
Note_On_53_Vel_0
Note_On_57_Vel_0
Time_Shift_7
Sustain_Off
Time_Shift_59
Sustain_On
Time_Shift_273
Note_On_60_Vel_37
Time_Shift_18
Note_On_53_Vel_40
Time_Shift_347
Note_On_65_Vel_0
Time_Shift_7
Note_On_65_Vel_37
Note_On_60_Vel_0
Time_Shift_4
Note_On_60_Vel_37
Time_Shift_449
Note_On_77_Vel_0
Time_Shift_5
Note_On_75_Vel_82
Time_Shift_25
Note_On_72_Vel_0
Time_Shift_3
Note_On_53_Vel_0
Note_On_65_Vel_0
Time_Shift_6
Note_On_45_Vel_0
Time_Shift_4
Sustain_Off
Time_Shift_3
Note_On_60_Vel_0
Time_Shift_28
Note_On_44_Vel_59
Time_Shift_2
Note_On_56_Vel_50
Time_Shift_78
Sustain_On
Time_Shift_146
Note_On_44_Vel_0
Time_Shift_261
Note_On_75_Vel_0
Time_Shift_9
Note_On_75_Vel_92
Time_Shift_179
Note_On_60_Vel_44
Time_Shift_15
Note_On_51_Vel_36
Time_Shift_120
Note_On_75_Vel_0
Time_Shift_6
Note_On_75_Vel_90
Time_Shift_193
Note_On_60_Vel_0
Time_Shift_6
Note_On_63_Vel_46
Time_Shift_5
Note_On_60_Vel_36
Time_Shift_35
Note_On_56_Vel_0
Time_Shift_4
Note_On_56_Vel_40
Time_Shift_50
Note_On_75_Vel_0
Time_Shift_5
Note_On_75_Vel_90
Time_Shift_264
Note_On_75_Vel_0
Time_Shift_5
Note_On_75_Vel_83
Time_Shift_47
Note_On_32_Vel_55
Time_Shift_11
Note_On_68_Vel_44
Time_Shift_2
Sustain_Off
Time_Shift_5
Note_On_51_Vel_0
Note_On_60_Vel_0
Time_Shift_2
Note_On_63_Vel_0
Note_On_56_Vel_0
Time_Shift_97
Sustain_On
Time_Shift_115
Note_On_32_Vel_0
Time_Shift_123
Note_On_68_Vel_0
Time_Shift_129
Note_On_59_Vel_45
Time_Shift_4
Note_On_51_Vel_35
Time_Shift_95
Note_On_74_Vel_74
Time_Shift_164
Note_On_75_Vel_0
Time_Shift_5
Note_On_75_Vel_85
Time_Shift_211
Note_On_77_Vel_75
Time_Shift_3
Sustain_Off
Time_Shift_22
Note_On_74_Vel_0
Time_Shift_1
Note_On_75_Vel_0
Note_On_51_Vel_0
Time_Shift_3
Note_On_59_Vel_0
Time_Shift_2
Note_On_63_Vel_37
Time_Shift_5
Note_On_59_Vel_40
Time_Shift_13
Note_On_56_Vel_41
Time_Shift_88
Sustain_On
Time_Shift_280
Note_On_75_Vel_80
Time_Shift_250
Note_On_75_Vel_0
Time_Shift_5
Note_On_75_Vel_66
Time_Shift_12
Note_On_77_Vel_0
Note_On_63_Vel_0
Note_On_56_Vel_0
Time_Shift_1
Note_On_59_Vel_0
Time_Shift_3
Sustain_Off
Time_Shift_2
Note_On_67_Vel_38
Time_Shift_4
Note_On_39_Vel_40
Time_Shift_134
Sustain_On
Time_Shift_108
Note_On_39_Vel_0
Time_Shift_272
Note_On_63_Vel_49
Time_Shift_24
Note_On_55_Vel_30
Time_Shift_2
Note_On_58_Vel_23
Time_Shift_362
Note_On_67_Vel_0
Time_Shift_8
Note_On_63_Vel_0
Time_Shift_1
Note_On_67_Vel_55
Time_Shift_3
Note_On_63_Vel_41
Time_Shift_3
Note_On_58_Vel_0
Time_Shift_12
Note_On_58_Vel_33
Time_Shift_316
Note_On_70_Vel_70
Time_Shift_26
Note_On_58_Vel_0
Time_Shift_9
Note_On_58_Vel_32
Time_Shift_5
Note_On_51_Vel_44
Time_Shift_316
Note_On_63_Vel_0
Time_Shift_9
Note_On_63_Vel_66
Time_Shift_37
Note_On_55_Vel_0
Time_Shift_11
Note_On_55_Vel_48
Time_Shift_319
Note_On_67_Vel_0
Time_Shift_5
Note_On_67_Vel_85
Time_Shift_34
Note_On_58_Vel_0
Time_Shift_10
Note_On_58_Vel_43
Time_Shift_391
Note_On_40_Vel_53
Time_Shift_85
Note_On_51_Vel_0
Time_Shift_1
Note_On_67_Vel_0
Note_On_70_Vel_0
Note_On_55_Vel_0
Note_On_58_Vel_0
Time_Shift_4
Note_On_75_Vel_0
Time_Shift_1
Sustain_Off
Time_Shift_15
Note_On_63_Vel_0
Time_Shift_3
Note_On_82_Vel_103
Time_Shift_89
Sustain_On
Time_Shift_123
Note_On_40_Vel_0
Time_Shift_317
Note_On_61_Vel_62
Time_Shift_17
Note_On_52_Vel_57
Time_Shift_514
Note_On_67_Vel_66
Time_Shift_32
Note_On_58_Vel_44
Time_Shift_3
Note_On_61_Vel_0
Time_Shift_6
Note_On_61_Vel_30
Time_Shift_351
Note_On_40_Vel_46
Time_Shift_50
Note_On_61_Vel_0
Note_On_67_Vel_0
Note_On_58_Vel_0
Time_Shift_1
Note_On_52_Vel_0
Time_Shift_1
Note_On_82_Vel_0
Time_Shift_3
Sustain_Off
Time_Shift_7
Note_On_81_Vel_98
Time_Shift_49
Sustain_On
Time_Shift_304
Note_On_60_Vel_57
Time_Shift_8
Note_On_52_Vel_60
Time_Shift_280
Note_On_60_Vel_0
Time_Shift_9
Note_On_58_Vel_56
Time_Shift_2
Note_On_60_Vel_52
Time_Shift_1
Note_On_67_Vel_54
Time_Shift_38
Note_On_79_Vel_103
Time_Shift_357
Note_On_40_Vel_0
Time_Shift_4
Note_On_77_Vel_98
Time_Shift_14
Note_On_52_Vel_0
Time_Shift_1
Note_On_67_Vel_0
Note_On_58_Vel_0
Note_On_79_Vel_0
Time_Shift_12
Sustain_Off
Time_Shift_7
Note_On_60_Vel_0
Time_Shift_8
Note_On_81_Vel_0
Time_Shift_4
Note_On_41_Vel_64
Note_On_69_Vel_73
Time_Shift_80
Sustain_On
Time_Shift_292
Note_On_41_Vel_0
Note_On_69_Vel_0
Time_Shift_5
Note_On_63_Vel_57
Time_Shift_2
Note_On_69_Vel_43
Note_On_53_Vel_46
Time_Shift_4
Note_On_41_Vel_47
Time_Shift_327
Note_On_69_Vel_0
Time_Shift_7
Note_On_69_Vel_66
Time_Shift_8
Note_On_53_Vel_0
Note_On_63_Vel_0
Time_Shift_10
Note_On_53_Vel_36
Note_On_63_Vel_55
Time_Shift_6
Note_On_60_Vel_28
Time_Shift_312
Note_On_74_Vel_97
Time_Shift_35
Note_On_41_Vel_0
Time_Shift_2
Note_On_63_Vel_0
Note_On_60_Vel_0
Note_On_53_Vel_0
Note_On_69_Vel_0
Time_Shift_1
Note_On_77_Vel_0
Time_Shift_6
Note_On_70_Vel_77
Time_Shift_1
Sustain_Off
Time_Shift_9
Note_On_43_Vel_59
Time_Shift_3
Note_On_62_Vel_48
Time_Shift_2
Note_On_55_Vel_53
Time_Shift_66
Sustain_On
Time_Shift_70
Note_On_55_Vel_0
Time_Shift_122
Note_On_62_Vel_0
Time_Shift_74
Note_On_62_Vel_65
Time_Shift_8
Note_On_55_Vel_52
Time_Shift_364
Note_On_62_Vel_0
Note_On_70_Vel_0
Time_Shift_5
Note_On_70_Vel_67
Time_Shift_6
Note_On_62_Vel_54
Time_Shift_1
Note_On_67_Vel_40
Time_Shift_11
Note_On_67_Vel_0
Time_Shift_15
Note_On_58_Vel_50
Time_Shift_415
Note_On_43_Vel_0
Time_Shift_22
Note_On_36_Vel_44
Time_Shift_80
Note_On_75_Vel_100
Time_Shift_36
Sustain_Off
Time_Shift_1
Note_On_74_Vel_0
Note_On_58_Vel_0
Time_Shift_1
Note_On_62_Vel_0
Note_On_70_Vel_0
Time_Shift_18
Note_On_67_Vel_59
Time_Shift_3
Note_On_55_Vel_0
Time_Shift_62
Note_On_75_Vel_0
Time_Shift_7
Note_On_75_Vel_67
Time_Shift_23
Sustain_On
Time_Shift_116
Note_On_36_Vel_0
Time_Shift_383
Note_On_63_Vel_42
Time_Shift_18
Note_On_55_Vel_39
Time_Shift_443
Note_On_67_Vel_0
Time_Shift_5
Note_On_67_Vel_53
Time_Shift_26
Note_On_63_Vel_0
Time_Shift_5
Note_On_63_Vel_32
Time_Shift_6
Note_On_60_Vel_29
Time_Shift_477
Note_On_41_Vel_37
Time_Shift_55
Note_On_74_Vel_70
Time_Shift_8
Note_On_65_Vel_25
Time_Shift_7
Sustain_Off
Time_Shift_15
Note_On_67_Vel_0
Note_On_63_Vel_0
Time_Shift_1
Note_On_60_Vel_0
Note_On_55_Vel_0
Time_Shift_2
Note_On_75_Vel_0
Time_Shift_6
Note_On_69_Vel_46
Time_Shift_48
Sustain_On
Time_Shift_177
Note_On_41_Vel_0
Time_Shift_251
Note_On_53_Vel_39
Time_Shift_15
Note_On_63_Vel_37
Time_Shift_45
Note_On_72_Vel_84
Time_Shift_42
Note_On_65_Vel_0
Note_On_69_Vel_0
Time_Shift_5
Note_On_69_Vel_48
Time_Shift_6
Note_On_65_Vel_28
Time_Shift_311
Note_On_74_Vel_0
Time_Shift_8
Note_On_74_Vel_87
Time_Shift_15
Note_On_63_Vel_0
Note_On_65_Vel_0
Time_Shift_7
Note_On_63_Vel_40
Time_Shift_3
Note_On_65_Vel_52
Time_Shift_17
Note_On_53_Vel_0
Time_Shift_4
Note_On_69_Vel_0
Time_Shift_5
Note_On_69_Vel_47
Time_Shift_308
Note_On_70_Vel_89
Time_Shift_33
Note_On_65_Vel_0
Time_Shift_9
Note_On_65_Vel_63
Time_Shift_2
Note_On_62_Vel_28
Time_Shift_8
Note_On_58_Vel_47
Time_Shift_3
Sustain_Off
Time_Shift_11
Note_On_72_Vel_0
Time_Shift_1
Note_On_69_Vel_0
Note_On_74_Vel_0
Time_Shift_12
Note_On_63_Vel_0
Time_Shift_61
Sustain_On
Time_Shift_230
Note_On_71_Vel_92
Time_Shift_33
Note_On_66_Vel_68
Time_Shift_2
Note_On_63_Vel_47
Note_On_57_Vel_51
Time_Shift_16
Note_On_58_Vel_0
Note_On_70_Vel_0
Time_Shift_3
Note_On_65_Vel_0
Time_Shift_5
Sustain_Off
Time_Shift_11
Note_On_62_Vel_0
Time_Shift_61
Sustain_On
Time_Shift_323
Note_On_71_Vel_0
Time_Shift_6
Note_On_71_Vel_72
Time_Shift_48
Note_On_64_Vel_57
Time_Shift_1
Sustain_Off
Note_On_56_Vel_47
Time_Shift_23
Note_On_63_Vel_0
Time_Shift_1
Note_On_57_Vel_0
Note_On_66_Vel_0
Time_Shift_105
Sustain_On
Time_Shift_355
Note_On_55_Vel_43
Time_Shift_30
Sustain_Off
Time_Shift_3
Note_On_56_Vel_0
Time_Shift_12
Note_On_71_Vel_0
Time_Shift_4
Note_On_72_Vel_72
Time_Shift_7
Note_On_70_Vel_63
Time_Shift_4
Note_On_64_Vel_0
Time_Shift_5
Note_On_64_Vel_41
Time_Shift_64
Sustain_On
Time_Shift_346
Note_On_72_Vel_0
Time_Shift_10
Note_On_72_Vel_70
Time_Shift_38
Note_On_69_Vel_53
Time_Shift_15
Sustain_Off
Time_Shift_2
Note_On_65_Vel_37
Time_Shift_1
Note_On_53_Vel_38
Note_On_63_Vel_40
Time_Shift_2
Note_On_64_Vel_0
Time_Shift_5
Note_On_55_Vel_0
Note_On_70_Vel_0
Time_Shift_2
Note_On_60_Vel_28
Time_Shift_86
Sustain_On
Time_Shift_607
Note_On_65_Vel_0
Time_Shift_5
Note_On_65_Vel_31
Time_Shift_1
Note_On_58_Vel_30
Time_Shift_72
Note_On_74_Vel_60
Time_Shift_18
Note_On_68_Vel_58
Time_Shift_22
Sustain_Off
Time_Shift_1
Note_On_69_Vel_0
Time_Shift_1
Note_On_63_Vel_0
Note_On_53_Vel_0
Time_Shift_1
Note_On_60_Vel_0
Time_Shift_17
Note_On_72_Vel_0
Time_Shift_153
Sustain_On
Time_Shift_346
Note_On_67_Vel_66
Time_Shift_108
Note_On_67_Vel_0
Time_Shift_8
Note_On_67_Vel_77
Time_Shift_42
Sustain_Off
Time_Shift_2
Note_On_68_Vel_0
Note_On_74_Vel_0
Time_Shift_1
Note_On_65_Vel_0
Time_Shift_69
Sustain_On
Time_Shift_394
Note_On_70_Vel_65
Time_Shift_205
Note_On_67_Vel_0
Time_Shift_4
Note_On_75_Vel_87
Time_Shift_1
Note_On_67_Vel_47
Time_Shift_327
Note_On_39_Vel_39
Time_Shift_60
Sustain_Off
Time_Shift_21
Note_On_79_Vel_75
Time_Shift_29
Note_On_75_Vel_0
Time_Shift_1
Note_On_67_Vel_0
Time_Shift_3
Note_On_70_Vel_0
Time_Shift_1
Note_On_58_Vel_0
Time_Shift_83
Sustain_On
Time_Shift_572
Note_On_63_Vel_43
Time_Shift_24
Note_On_55_Vel_27
Time_Shift_2
Note_On_58_Vel_21
Time_Shift_216
Note_On_63_Vel_0
Time_Shift_8
Note_On_63_Vel_28
Time_Shift_261
Note_On_58_Vel_0
Note_On_63_Vel_0
Time_Shift_4
Note_On_67_Vel_38
Time_Shift_3
Note_On_58_Vel_27
Time_Shift_4
Note_On_63_Vel_33
Time_Shift_87
Note_On_69_Vel_60
Time_Shift_186
Note_On_55_Vel_0
Time_Shift_5
Note_On_55_Vel_29
Time_Shift_2
Note_On_70_Vel_65
Time_Shift_220
Note_On_71_Vel_59
Time_Shift_33
Note_On_55_Vel_0
Time_Shift_2
Note_On_69_Vel_0
Note_On_63_Vel_0
Note_On_58_Vel_0
Time_Shift_1
Note_On_67_Vel_0
Time_Shift_1
Note_On_70_Vel_0
Time_Shift_1
Sustain_Off
Time_Shift_12
Note_On_39_Vel_0
Time_Shift_19
Note_On_51_Vel_46
Time_Shift_50
Sustain_On
Time_Shift_92
Note_On_79_Vel_0
Time_Shift_80
Note_On_70_Vel_69
Time_Shift_165
Note_On_73_Vel_77
Time_Shift_8
Note_On_62_Vel_44
Time_Shift_19
Note_On_56_Vel_37
Time_Shift_117
Note_On_74_Vel_85
Time_Shift_190
Sustain_Off
Time_Shift_7
Note_On_71_Vel_0
Time_Shift_1
Note_On_51_Vel_0
Time_Shift_1
Note_On_73_Vel_0
Note_On_70_Vel_0
Note_On_56_Vel_0
Time_Shift_1
Note_On_62_Vel_0
Time_Shift_1
Note_On_74_Vel_0
Time_Shift_5
Note_On_79_Vel_80
Time_Shift_44
Note_On_62_Vel_30
Time_Shift_1
Note_On_58_Vel_42
Time_Shift_36
Sustain_On
Time_Shift_242
Note_On_77_Vel_76
Time_Shift_173
Note_On_77_Vel_0
Time_Shift_4
Note_On_77_Vel_68
Time_Shift_23
Sustain_Off
Time_Shift_1
Note_On_58_Vel_0
Time_Shift_1
Note_On_62_Vel_0
Time_Shift_3
Note_On_79_Vel_0
Time_Shift_21
Note_On_70_Vel_39
Time_Shift_3
Note_On_51_Vel_45
Time_Shift_74
Sustain_On
Time_Shift_123
Note_On_51_Vel_0
Time_Shift_213
Note_On_63_Vel_42
Time_Shift_38
Note_On_55_Vel_43
Time_Shift_318
Note_On_63_Vel_0
Note_On_67_Vel_49
Time_Shift_8
Note_On_63_Vel_40
Time_Shift_7
Note_On_58_Vel_36
Time_Shift_56
Note_On_75_Vel_68
Time_Shift_288
Note_On_63_Vel_0
Time_Shift_1
Note_On_58_Vel_0
Time_Shift_2
Note_On_67_Vel_0
Note_On_55_Vel_0
Time_Shift_4
Sustain_Off
Time_Shift_2
Note_On_70_Vel_0
Time_Shift_9
Note_On_50_Vel_55
Time_Shift_7
Note_On_77_Vel_0
Time_Shift_61
Sustain_On
Time_Shift_93
Note_On_77_Vel_67
Time_Shift_91
Note_On_75_Vel_0
Time_Shift_9
Note_On_75_Vel_57
Time_Shift_45
Note_On_77_Vel_0
Time_Shift_7
Note_On_77_Vel_64
Time_Shift_39
Note_On_75_Vel_0
Time_Shift_5
Note_On_75_Vel_76
Time_Shift_51
Note_On_50_Vel_0
Time_Shift_1
Note_On_77_Vel_0
Time_Shift_7
Note_On_63_Vel_41
Time_Shift_1
Note_On_55_Vel_31
Time_Shift_8
Sustain_Off
Time_Shift_73
Sustain_On
Time_Shift_71
Note_On_74_Vel_81
Time_Shift_37
Note_On_75_Vel_0
Time_Shift_127
Note_On_74_Vel_0
Time_Shift_5
Sustain_Off
Time_Shift_1
Note_On_75_Vel_85
Time_Shift_20
Note_On_55_Vel_0
Time_Shift_5
Note_On_67_Vel_40
Note_On_58_Vel_46
Note_On_55_Vel_38
Time_Shift_26
Sustain_On
Time_Shift_99
Note_On_77_Vel_85
Time_Shift_243
Note_On_48_Vel_47
Time_Shift_23
Note_On_63_Vel_0
Note_On_58_Vel_0
Time_Shift_1
Note_On_67_Vel_0
Time_Shift_1
Note_On_55_Vel_0
Time_Shift_3
Note_On_77_Vel_0
Time_Shift_1
Note_On_75_Vel_0
Time_Shift_1
Sustain_Off
Time_Shift_1
Note_On_79_Vel_72
Time_Shift_88
Sustain_On
Time_Shift_148
Note_On_55_Vel_37
Time_Shift_1
Note_On_71_Vel_74
Time_Shift_189
Note_On_55_Vel_0
Time_Shift_4
Note_On_72_Vel_78
Time_Shift_4
Note_On_55_Vel_44
Time_Shift_3
Note_On_64_Vel_47
Time_Shift_3
Note_On_67_Vel_51
Time_Shift_3
Note_On_71_Vel_0
Time_Shift_12
Sustain_Off
Time_Shift_78
Sustain_On
Time_Shift_23
Note_On_79_Vel_0
Time_Shift_29
Note_On_73_Vel_79
Time_Shift_163
Note_On_72_Vel_0
Time_Shift_5
Note_On_72_Vel_82
Time_Shift_11
Note_On_67_Vel_0
Time_Shift_8
Note_On_67_Vel_51
Time_Shift_27
Note_On_58_Vel_23
Time_Shift_113
Note_On_77_Vel_85
Time_Shift_36
Note_On_73_Vel_0
Time_Shift_92
Note_On_64_Vel_0
Time_Shift_65
Note_On_76_Vel_78
Time_Shift_19
Note_On_60_Vel_36
Time_Shift_4
Note_On_58_Vel_0
Time_Shift_3
Note_On_67_Vel_0
Time_Shift_1
Sustain_Off
Time_Shift_1
Note_On_55_Vel_0
Note_On_72_Vel_0
Time_Shift_2
Note_On_77_Vel_0
Time_Shift_59
Sustain_On
Time_Shift_100
Note_On_80_Vel_84
Time_Shift_220
Note_On_64_Vel_40
Note_On_79_Vel_72
Note_On_55_Vel_38
Time_Shift_10
Note_On_48_Vel_0
Time_Shift_2
Note_On_76_Vel_0
Note_On_80_Vel_0
Time_Shift_2
Sustain_Off
Time_Shift_57
Note_On_60_Vel_0
Time_Shift_31
Sustain_On
Time_Shift_204
Note_On_85_Vel_62
Time_Shift_19
Note_On_55_Vel_0
Time_Shift_4
Note_On_55_Vel_17
Time_Shift_241
Note_On_64_Vel_0
Time_Shift_8
Note_On_60_Vel_30
Time_Shift_2
Note_On_64_Vel_40
Time_Shift_6
Note_On_58_Vel_27
Time_Shift_13
Note_On_55_Vel_0
Time_Shift_6
Note_On_85_Vel_0
Time_Shift_11
Sustain_Off
Time_Shift_5
Note_On_84_Vel_63
Time_Shift_34
Note_On_58_Vel_0
Time_Shift_15
Sustain_On
Time_Shift_108
Note_On_79_Vel_0
Time_Shift_237
Note_On_79_Vel_66
Time_Shift_2
Note_On_55_Vel_23
Time_Shift_2
Note_On_58_Vel_26
Time_Shift_43
Note_On_64_Vel_0
Time_Shift_8
Note_On_64_Vel_18
Time_Shift_272
Note_On_41_Vel_34
Time_Shift_99
Note_On_82_Vel_74
Note_On_84_Vel_0
Note_On_64_Vel_0
Time_Shift_1
Note_On_79_Vel_0
Time_Shift_2
Sustain_Off
Time_Shift_10
Note_On_55_Vel_0
Time_Shift_7
Note_On_58_Vel_0
Note_On_60_Vel_0
Time_Shift_85
Sustain_On
Time_Shift_434
Note_On_61_Vel_41
Time_Shift_16
Note_On_53_Vel_34
Time_Shift_2
Note_On_65_Vel_28
Time_Shift_417
Note_On_64_Vel_56
Time_Shift_29
Note_On_61_Vel_0
Time_Shift_5
Note_On_58_Vel_36
Time_Shift_1
Note_On_61_Vel_34
Time_Shift_313
Note_On_80_Vel_74
Time_Shift_31
Note_On_64_Vel_0
Note_On_53_Vel_0
Note_On_58_Vel_0
Time_Shift_1
Note_On_61_Vel_0
Time_Shift_1
Sustain_Off
Time_Shift_2
Note_On_82_Vel_0
Time_Shift_7
Note_On_41_Vel_0
Time_Shift_11
Note_On_41_Vel_42
Time_Shift_82
Sustain_On
Time_Shift_192
Note_On_65_Vel_0
Time_Shift_53
Note_On_41_Vel_0
Time_Shift_2
Note_On_60_Vel_48
Time_Shift_4
Note_On_41_Vel_24
Time_Shift_392
Note_On_65_Vel_39
Time_Shift_17
Note_On_60_Vel_0
Time_Shift_9
Note_On_60_Vel_26
Time_Shift_2
Note_On_56_Vel_43
Time_Shift_62
Note_On_79_Vel_84
Time_Shift_411
Note_On_77_Vel_72
Time_Shift_78
Note_On_79_Vel_0
Time_Shift_2
Note_On_65_Vel_0
Note_On_60_Vel_0
Note_On_56_Vel_0
Note_On_80_Vel_0
Note_On_41_Vel_0
Time_Shift_6
Sustain_Off
Time_Shift_3
Note_On_46_Vel_52
Time_Shift_80
Sustain_On
Time_Shift_172
Note_On_79_Vel_57
Time_Shift_12
Note_On_46_Vel_0
Time_Shift_54
Note_On_77_Vel_0
Time_Shift_6
Note_On_77_Vel_66
Time_Shift_55
Note_On_79_Vel_0
Time_Shift_11
Note_On_79_Vel_67
Time_Shift_35
Note_On_77_Vel_0
Time_Shift_11
Note_On_77_Vel_68
Time_Shift_43
Note_On_79_Vel_0
Time_Shift_11
Note_On_79_Vel_74
Time_Shift_43
Note_On_77_Vel_0
Time_Shift_11
Note_On_77_Vel_81
Time_Shift_15
Note_On_62_Vel_46
Time_Shift_9
Note_On_53_Vel_39
Time_Shift_19
Note_On_79_Vel_0
Time_Shift_6
Note_On_79_Vel_76
Time_Shift_55
Note_On_77_Vel_0
Time_Shift_4
Note_On_77_Vel_74
Time_Shift_42
Note_On_79_Vel_0
Time_Shift_6
Note_On_79_Vel_77
Time_Shift_40
Note_On_77_Vel_0
Time_Shift_7
Note_On_77_Vel_76
Time_Shift_47
Note_On_79_Vel_0
Time_Shift_5
Note_On_79_Vel_81
Time_Shift_49
Note_On_77_Vel_0
Time_Shift_4
Note_On_77_Vel_80
Time_Shift_42
Note_On_79_Vel_0
Time_Shift_7
Note_On_79_Vel_86
Time_Shift_21
Note_On_68_Vel_52
Time_Shift_26
Note_On_77_Vel_0
Time_Shift_10
Note_On_77_Vel_79
Time_Shift_36
Note_On_79_Vel_0
Time_Shift_6
Note_On_79_Vel_83
Time_Shift_63
Note_On_77_Vel_0
Time_Shift_7
Note_On_77_Vel_81
Time_Shift_47
Note_On_79_Vel_0
Time_Shift_8
Note_On_79_Vel_57
Time_Shift_62
Note_On_76_Vel_75
Time_Shift_114
Note_On_77_Vel_0
Time_Shift_10
Note_On_77_Vel_89
Time_Shift_207
Note_On_47_Vel_38
Time_Shift_46
Note_On_53_Vel_0
Sustain_Off
Time_Shift_1
Note_On_76_Vel_0
Note_On_62_Vel_0
Note_On_77_Vel_0
Time_Shift_12
Note_On_68_Vel_0
Note_On_79_Vel_0
Time_Shift_6
Note_On_79_Vel_85
Time_Shift_71
Sustain_On
Time_Shift_429
Note_On_55_Vel_40
Note_On_65_Vel_36
Time_Shift_47
Note_On_79_Vel_0
Time_Shift_11
Note_On_79_Vel_74
Time_Shift_343
Note_On_55_Vel_0
Time_Shift_4
Note_On_62_Vel_43
Time_Shift_3
Note_On_65_Vel_0
Time_Shift_3
Note_On_55_Vel_34
Time_Shift_2
Note_On_67_Vel_43
Time_Shift_1
Note_On_65_Vel_29
Time_Shift_26
Note_On_74_Vel_74
Time_Shift_37
Note_On_67_Vel_0
Time_Shift_10
Note_On_67_Vel_30
Time_Shift_331
Note_On_75_Vel_72
Time_Shift_9
Sustain_Off
Time_Shift_7
Note_On_55_Vel_0
Time_Shift_1
Note_On_79_Vel_0
Note_On_65_Vel_0
Time_Shift_1
Note_On_62_Vel_0
Time_Shift_1
Note_On_67_Vel_0
Time_Shift_1
Note_On_47_Vel_0
Time_Shift_2
Note_On_74_Vel_0
Time_Shift_20
Note_On_48_Vel_42
Time_Shift_71
Sustain_On
Time_Shift_316
Note_On_63_Vel_44
Time_Shift_17
Note_On_55_Vel_25
Time_Shift_330
Note_On_67_Vel_62
Time_Shift_29
Note_On_60_Vel_39
Time_Shift_334
Note_On_72_Vel_71
Time_Shift_13
Sustain_Off
Time_Shift_1
Note_On_60_Vel_0
Note_On_63_Vel_0
Time_Shift_1
Note_On_48_Vel_0
Note_On_67_Vel_0
Note_On_75_Vel_0
Note_On_55_Vel_0
Time_Shift_26
Note_On_45_Vel_49
Time_Shift_85
Sustain_On
Time_Shift_297
Note_On_63_Vel_45
Time_Shift_5
Note_On_54_Vel_44
Time_Shift_385
Note_On_66_Vel_55
Time_Shift_11
Note_On_63_Vel_0
Time_Shift_12
Note_On_63_Vel_41
Time_Shift_11
Note_On_60_Vel_40
Time_Shift_465
Note_On_46_Vel_46
Time_Shift_33
Note_On_72_Vel_0
Note_On_54_Vel_0
Time_Shift_1
Note_On_63_Vel_0
Note_On_60_Vel_0
Note_On_66_Vel_0
Time_Shift_1
Note_On_45_Vel_0
Time_Shift_3
Sustain_Off
Time_Shift_38
Note_On_70_Vel_68
Time_Shift_74
Sustain_On
Time_Shift_286
Note_On_86_Vel_81
Time_Shift_446
Note_On_63_Vel_33
Time_Shift_6
Note_On_65_Vel_27
Time_Shift_1
Note_On_53_Vel_35
Time_Shift_5
Note_On_58_Vel_23
Time_Shift_272
Note_On_85_Vel_68
Time_Shift_190
Note_On_63_Vel_0
Time_Shift_4
Note_On_63_Vel_41
Time_Shift_85
Note_On_68_Vel_43
Time_Shift_11
Note_On_84_Vel_70
Time_Shift_2
Note_On_58_Vel_0
Time_Shift_182
Note_On_83_Vel_80
Time_Shift_239
Note_On_34_Vel_35
Time_Shift_1
Note_On_82_Vel_70
Time_Shift_5
Note_On_85_Vel_0
Time_Shift_1
Note_On_65_Vel_0
Note_On_84_Vel_0
Note_On_63_Vel_0
Note_On_86_Vel_0
Time_Shift_1
Note_On_53_Vel_0
Note_On_68_Vel_0
Note_On_83_Vel_0
Time_Shift_1
Note_On_70_Vel_0
Time_Shift_7
Sustain_Off
Time_Shift_6
Note_On_46_Vel_0
Time_Shift_77
Sustain_On
Time_Shift_188
Note_On_81_Vel_74
Time_Shift_154
Note_On_80_Vel_75
Time_Shift_186
Note_On_53_Vel_40
Time_Shift_6
Note_On_62_Vel_26
Time_Shift_52
Note_On_69_Vel_69
Time_Shift_147
Note_On_70_Vel_75
Time_Shift_90
Note_On_71_Vel_77
Time_Shift_88
Note_On_72_Vel_86
Time_Shift_61
Sustain_Off
Time_Shift_7
Note_On_80_Vel_0
Time_Shift_1
Note_On_69_Vel_0
Note_On_34_Vel_0
Note_On_53_Vel_0
Time_Shift_1
Note_On_71_Vel_0
Note_On_62_Vel_0
Note_On_81_Vel_0
Time_Shift_1
Note_On_82_Vel_0
Time_Shift_1
Note_On_70_Vel_0
Time_Shift_3
Note_On_72_Vel_0
Time_Shift_14
Note_On_73_Vel_76
Time_Shift_47
Note_On_73_Vel_0
Time_Shift_67
Note_On_74_Vel_74
Time_Shift_142
Note_On_68_Vel_56
Time_Shift_93
Note_On_74_Vel_0
Time_Shift_33
Note_On_79_Vel_68
Time_Shift_85
Sustain_On
Time_Shift_227
Note_On_77_Vel_69
Time_Shift_219
Note_On_75_Vel_75
Time_Shift_3
Note_On_67_Vel_35
Time_Shift_312
Note_On_39_Vel_40
Time_Shift_91
Note_On_75_Vel_0
Time_Shift_10
Note_On_75_Vel_65
Time_Shift_12
Sustain_Off
Time_Shift_1
Note_On_67_Vel_0
Time_Shift_11
Note_On_67_Vel_27
Time_Shift_8
Note_On_68_Vel_0
Time_Shift_1
Note_On_77_Vel_0
Time_Shift_1
Note_On_79_Vel_0
Time_Shift_102
Sustain_On
Time_Shift_115
Note_On_67_Vel_0
Time_Shift_357
Note_On_63_Vel_38
Time_Shift_28
Note_On_55_Vel_30
Time_Shift_184
Note_On_39_Vel_0
Time_Shift_222
Note_On_63_Vel_0
Time_Shift_5
Note_On_67_Vel_53
Time_Shift_1
Note_On_63_Vel_41
Time_Shift_22
Note_On_58_Vel_18
Time_Shift_321
Note_On_51_Vel_51
Time_Shift_350
Note_On_63_Vel_0
Time_Shift_5
Note_On_63_Vel_60
Time_Shift_34
Note_On_55_Vel_0
Time_Shift_5
Note_On_55_Vel_43
Time_Shift_363
Note_On_67_Vel_0
Time_Shift_6
Note_On_67_Vel_62
Time_Shift_10
Note_On_63_Vel_0
Time_Shift_4
Note_On_63_Vel_47
Time_Shift_3
Note_On_58_Vel_0
Time_Shift_9
Note_On_58_Vel_39
Time_Shift_464
Note_On_39_Vel_43
Time_Shift_126
Note_On_75_Vel_0
Time_Shift_5
Note_On_75_Vel_93
Time_Shift_15
Sustain_Off
Time_Shift_18
Note_On_63_Vel_0
Note_On_67_Vel_0
Time_Shift_5
Note_On_55_Vel_0
Note_On_51_Vel_0
Time_Shift_4
Note_On_58_Vel_0
Time_Shift_76
Sustain_On
Time_Shift_92
Note_On_39_Vel_0
Time_Shift_416
Note_On_63_Vel_61
Time_Shift_29
Note_On_56_Vel_30
Time_Shift_10
Note_On_59_Vel_39
Time_Shift_357
Note_On_68_Vel_67
Time_Shift_2
Note_On_63_Vel_0
Time_Shift_12
Note_On_63_Vel_44
Time_Shift_27
Note_On_59_Vel_0
Time_Shift_5
Note_On_59_Vel_45
Time_Shift_313
Note_On_77_Vel_90
Time_Shift_61
Note_On_68_Vel_0
Note_On_59_Vel_0
Time_Shift_1
Note_On_63_Vel_0
Time_Shift_8
Sustain_Off
Time_Shift_9
Note_On_51_Vel_49
Time_Shift_2
Note_On_56_Vel_0
Note_On_75_Vel_0
Time_Shift_92
Sustain_On
Time_Shift_108
Note_On_51_Vel_0
Time_Shift_328
Note_On_63_Vel_41
Time_Shift_4
Note_On_56_Vel_42
Time_Shift_16
Note_On_59_Vel_39
Time_Shift_65
Note_On_75_Vel_88
Time_Shift_232
Note_On_63_Vel_0
Time_Shift_11
Note_On_63_Vel_34
Time_Shift_50
Note_On_56_Vel_0
Time_Shift_8
Note_On_59_Vel_0
Time_Shift_1
Note_On_56_Vel_40
Time_Shift_10
Note_On_59_Vel_24
Time_Shift_58
Note_On_77_Vel_0
Time_Shift_5
Note_On_77_Vel_91
Time_Shift_380
Note_On_79_Vel_83
Time_Shift_48
Note_On_59_Vel_0
Time_Shift_1
Note_On_77_Vel_0
Note_On_56_Vel_0
Time_Shift_1
Note_On_75_Vel_0
Time_Shift_7
Sustain_Off
Time_Shift_2
Note_On_39_Vel_48
Time_Shift_9
Note_On_63_Vel_0
Time_Shift_123
Sustain_On
Time_Shift_62
Note_On_39_Vel_0
Time_Shift_250
Note_On_63_Vel_40
Time_Shift_1
Note_On_58_Vel_29
Time_Shift_2
Note_On_55_Vel_39
Time_Shift_384
Note_On_58_Vel_0
Note_On_63_Vel_0
Time_Shift_6
Note_On_63_Vel_38
Note_On_67_Vel_45
Time_Shift_5
Note_On_58_Vel_28
Time_Shift_358
Note_On_51_Vel_45
Time_Shift_368
Note_On_63_Vel_0
Time_Shift_11
Note_On_63_Vel_38
Time_Shift_20
Note_On_55_Vel_0
Note_On_58_Vel_0
Time_Shift_5
Note_On_58_Vel_18
Note_On_55_Vel_26
Time_Shift_479
Note_On_67_Vel_0
Time_Shift_6
Note_On_67_Vel_41
Time_Shift_2
Note_On_63_Vel_0
Time_Shift_7
Note_On_58_Vel_0
Time_Shift_2
Note_On_63_Vel_35
Time_Shift_9
Note_On_58_Vel_20
Time_Shift_647
Note_On_39_Vel_30
Time_Shift_80
Note_On_79_Vel_0
Time_Shift_22
Note_On_75_Vel_65
Time_Shift_36
Sustain_Off
Time_Shift_5
Note_On_58_Vel_0
Note_On_63_Vel_0
Note_On_55_Vel_0
Note_On_51_Vel_0
Time_Shift_1
Note_On_67_Vel_0
Time_Shift_89
Sustain_On
Time_Shift_77
Note_On_39_Vel_0
Time_Shift_548
Note_On_63_Vel_49
Time_Shift_27
Note_On_56_Vel_38
Time_Shift_4
Note_On_59_Vel_42
Time_Shift_586
Note_On_68_Vel_57
Time_Shift_18
Note_On_63_Vel_0
Time_Shift_7
Note_On_59_Vel_0
Time_Shift_2
Note_On_63_Vel_36
Time_Shift_9
Note_On_59_Vel_27
Time_Shift_346
Note_On_51_Vel_44
Time_Shift_233
Note_On_77_Vel_73
Time_Shift_324
Note_On_56_Vel_0
Note_On_63_Vel_0
Time_Shift_6
Note_On_63_Vel_35
Time_Shift_2
Note_On_59_Vel_0
Note_On_56_Vel_42
Time_Shift_9
Note_On_59_Vel_34
Time_Shift_68
Note_On_75_Vel_0
Time_Shift_11
Note_On_75_Vel_79
Time_Shift_242
Note_On_77_Vel_0
Time_Shift_5
Note_On_77_Vel_72
Time_Shift_179
Note_On_63_Vel_0
Time_Shift_8
Note_On_56_Vel_0
Note_On_68_Vel_0
Time_Shift_3
Note_On_63_Vel_45
Time_Shift_4
Note_On_56_Vel_42
Time_Shift_1
Note_On_75_Vel_0
Time_Shift_3
Note_On_68_Vel_49
Time_Shift_1
Note_On_75_Vel_77
Time_Shift_19
Note_On_59_Vel_0
Time_Shift_4
Note_On_59_Vel_38
Time_Shift_1
Note_On_66_Vel_29
Time_Shift_10
Note_On_66_Vel_0
Time_Shift_123
Note_On_77_Vel_0
Time_Shift_10
Note_On_77_Vel_80
Time_Shift_271
Note_On_79_Vel_80
Time_Shift_44
Note_On_68_Vel_0
Time_Shift_1
Note_On_59_Vel_0
Note_On_75_Vel_0
Note_On_56_Vel_0
Time_Shift_5
Sustain_Off
Time_Shift_11
Note_On_39_Vel_46
Time_Shift_4
Note_On_51_Vel_0
Note_On_63_Vel_0
Note_On_77_Vel_0
Time_Shift_69
Sustain_On
Time_Shift_11
Note_On_39_Vel_0
Time_Shift_305
Note_On_63_Vel_48
Time_Shift_11
Note_On_55_Vel_46
Time_Shift_7
Note_On_58_Vel_33
Time_Shift_125
Note_On_75_Vel_87
Time_Shift_117
Note_On_75_Vel_0
Time_Shift_11
Note_On_75_Vel_53
Time_Shift_235
Note_On_58_Vel_0
Note_On_63_Vel_0
Time_Shift_7
Note_On_55_Vel_0
Time_Shift_1
Note_On_63_Vel_41
Time_Shift_1
Note_On_58_Vel_39
Time_Shift_3
Note_On_67_Vel_41
Note_On_55_Vel_32
Time_Shift_80
Note_On_75_Vel_0
Time_Shift_4
Note_On_75_Vel_75
Time_Shift_195
Note_On_77_Vel_63
Time_Shift_85
Note_On_75_Vel_0
Time_Shift_6
Note_On_75_Vel_80
Time_Shift_109
Note_On_55_Vel_0
Time_Shift_7
Note_On_74_Vel_63
Time_Shift_3
Note_On_55_Vel_32
Time_Shift_105
Note_On_75_Vel_0
Time_Shift_8
Note_On_55_Vel_0
Time_Shift_3
Note_On_75_Vel_78
Time_Shift_6
Note_On_55_Vel_35
Time_Shift_239
Note_On_51_Vel_39
Time_Shift_70
Note_On_63_Vel_0
Note_On_58_Vel_0
Note_On_67_Vel_0
Time_Shift_1
Note_On_74_Vel_0
Note_On_55_Vel_0
Note_On_77_Vel_0
Time_Shift_3
Sustain_Off
Time_Shift_1
Note_On_75_Vel_0
Time_Shift_4
Note_On_87_Vel_67
Time_Shift_4
Note_On_75_Vel_48
Time_Shift_84
Sustain_On
Time_Shift_245
Note_On_51_Vel_0
Time_Shift_207
Note_On_55_Vel_38
Time_Shift_4
Note_On_51_Vel_34
Time_Shift_5
Note_On_63_Vel_33
Time_Shift_41
Note_On_86_Vel_77
Time_Shift_12
Note_On_79_Vel_0
Time_Shift_338
Note_On_63_Vel_0
Time_Shift_11
Note_On_63_Vel_33
Time_Shift_1
Note_On_67_Vel_48
Time_Shift_16
Note_On_84_Vel_85
Time_Shift_5
Note_On_58_Vel_40
Time_Shift_339
Note_On_82_Vel_85
Time_Shift_31
Note_On_86_Vel_0
Note_On_63_Vel_0
Note_On_55_Vel_0
Time_Shift_1
Note_On_58_Vel_0
Time_Shift_1
Note_On_67_Vel_0
Note_On_84_Vel_0
Time_Shift_2
Note_On_51_Vel_0
Time_Shift_3
Note_On_70_Vel_42
Time_Shift_1
Note_On_51_Vel_45
Time_Shift_1
Sustain_Off
Time_Shift_49
Note_On_87_Vel_0
Time_Shift_38
Sustain_On
Time_Shift_185
Note_On_70_Vel_0
Time_Shift_100
Note_On_62_Vel_61
Time_Shift_9
Note_On_70_Vel_42
Time_Shift_325
Note_On_68_Vel_46
Time_Shift_5
Note_On_58_Vel_38
Time_Shift_32
Note_On_81_Vel_89
Time_Shift_316
Note_On_80_Vel_93
Time_Shift_4
Note_On_51_Vel_0
Time_Shift_6
Note_On_51_Vel_44
Time_Shift_13
Note_On_68_Vel_0
Time_Shift_1
Note_On_58_Vel_0
Note_On_62_Vel_0
Time_Shift_1
Note_On_81_Vel_0
Time_Shift_2
Note_On_82_Vel_0
Time_Shift_3
Sustain_Off
Time_Shift_4
Note_On_75_Vel_0
Time_Shift_16
Note_On_70_Vel_0
Time_Shift_61
Sustain_On
Time_Shift_206
Note_On_62_Vel_51
Time_Shift_45
Note_On_72_Vel_88
Time_Shift_289
Note_On_74_Vel_92
Time_Shift_27
Note_On_68_Vel_57
Time_Shift_24
Note_On_58_Vel_46
Time_Shift_324
Note_On_62_Vel_0
Time_Shift_1
Note_On_58_Vel_0
Note_On_68_Vel_0
Time_Shift_2
Note_On_75_Vel_82
Note_On_72_Vel_0
Note_On_74_Vel_0
Time_Shift_2
Sustain_Off
Time_Shift_2
Note_On_80_Vel_0
Time_Shift_8
Note_On_51_Vel_0
Time_Shift_35
Note_On_51_Vel_48
Time_Shift_57
Sustain_On
Time_Shift_304
Note_On_63_Vel_38
Time_Shift_6
Note_On_55_Vel_40
Time_Shift_53
Note_On_77_Vel_69
Time_Shift_174
Note_On_75_Vel_0
Time_Shift_12
Note_On_75_Vel_71
Time_Shift_19
Note_On_55_Vel_0
Time_Shift_6
Note_On_55_Vel_26
Time_Shift_25
Note_On_77_Vel_0
Time_Shift_10
Note_On_77_Vel_72
Time_Shift_67
Note_On_75_Vel_0
Time_Shift_11
Note_On_75_Vel_69
Time_Shift_116
Note_On_77_Vel_0
Time_Shift_1
Sustain_Off
Note_On_75_Vel_0
Time_Shift_29
Note_On_74_Vel_70
Time_Shift_19
Note_On_55_Vel_0
Time_Shift_10
Note_On_55_Vel_34
Time_Shift_1
Note_On_67_Vel_41
Time_Shift_5
Note_On_58_Vel_36
Time_Shift_30
Sustain_On
Time_Shift_346
Note_On_55_Vel_0
Time_Shift_2
Note_On_75_Vel_67
Time_Shift_2
Note_On_55_Vel_29
Time_Shift_180
Note_On_75_Vel_0
Time_Shift_10
Note_On_75_Vel_65
Time_Shift_13
Note_On_55_Vel_0
Time_Shift_8
Note_On_63_Vel_0
Time_Shift_2
Note_On_55_Vel_22
Time_Shift_9
Note_On_63_Vel_16
Time_Shift_311
Note_On_45_Vel_36
Time_Shift_104
Note_On_58_Vel_0
Note_On_67_Vel_0
Note_On_55_Vel_0
Time_Shift_1
Note_On_63_Vel_0
Time_Shift_1
Note_On_75_Vel_0
Time_Shift_4
Sustain_Off
Time_Shift_6
Note_On_51_Vel_0
Note_On_74_Vel_0
Time_Shift_5
Note_On_91_Vel_63
Time_Shift_87
Sustain_On
Time_Shift_146
Note_On_45_Vel_0
Time_Shift_388
Note_On_63_Vel_34
Time_Shift_17
Note_On_53_Vel_35
Time_Shift_63
Sustain_Off
Time_Shift_1
Note_On_89_Vel_62
Time_Shift_53
Sustain_On
Time_Shift_297
Note_On_87_Vel_71
Time_Shift_202
Note_On_63_Vel_0
Time_Shift_8
Note_On_53_Vel_0
Time_Shift_3
Note_On_63_Vel_38
Time_Shift_3
Note_On_53_Vel_37
Time_Shift_5
Note_On_60_Vel_35
Time_Shift_10
Note_On_86_Vel_74
Time_Shift_189
Note_On_84_Vel_82
Note_On_65_Vel_28
Time_Shift_2
Note_On_57_Vel_28
Time_Shift_246
Note_On_46_Vel_32
Time_Shift_38
Note_On_83_Vel_78
Time_Shift_39
Sustain_Off
Note_On_86_Vel_0
Note_On_63_Vel_0
Note_On_53_Vel_0
Note_On_57_Vel_0
Time_Shift_1
Note_On_87_Vel_0
Note_On_60_Vel_0
Time_Shift_1
Note_On_65_Vel_0
Note_On_91_Vel_0
Time_Shift_1
Note_On_84_Vel_0
Time_Shift_1
Note_On_89_Vel_0
Time_Shift_106
Sustain_On
Time_Shift_377
Note_On_53_Vel_36
Time_Shift_2
Note_On_63_Vel_36
Time_Shift_77
Note_On_82_Vel_77
Time_Shift_12
Note_On_46_Vel_0
Time_Shift_300
Note_On_63_Vel_0
Time_Shift_11
Note_On_63_Vel_40
Time_Shift_2
Note_On_68_Vel_35
Time_Shift_1
Note_On_58_Vel_38
Time_Shift_9
Note_On_68_Vel_0
Time_Shift_39
Note_On_81_Vel_82
Time_Shift_350
Sustain_Off
Time_Shift_3
Note_On_81_Vel_0
Time_Shift_5
Note_On_81_Vel_80
Time_Shift_34
Note_On_63_Vel_0
Time_Shift_3
Note_On_83_Vel_0
Time_Shift_1
Note_On_34_Vel_35
Time_Shift_1
Note_On_46_Vel_36
Time_Shift_33
Note_On_58_Vel_0
Sustain_On
Time_Shift_202
Note_On_80_Vel_85
Time_Shift_212
Note_On_80_Vel_0
Time_Shift_10
Note_On_80_Vel_84
Time_Shift_6
Note_On_53_Vel_0
Time_Shift_11
Note_On_53_Vel_41
Time_Shift_5
Note_On_65_Vel_36
Note_On_58_Vel_34
Time_Shift_2
Note_On_62_Vel_35
Time_Shift_193
Note_On_79_Vel_86
Time_Shift_88
Note_On_82_Vel_0
Time_Shift_192
Note_On_62_Vel_0
Time_Shift_8
Note_On_58_Vel_0
Time_Shift_2
Note_On_62_Vel_35
Time_Shift_3
Note_On_58_Vel_21
Time_Shift_202
Note_On_46_Vel_0
Note_On_79_Vel_0
Time_Shift_4
Note_On_79_Vel_62
Time_Shift_13
Sustain_Off
Time_Shift_6
Note_On_34_Vel_0
Note_On_62_Vel_0
Time_Shift_7
Note_On_62_Vel_26
Time_Shift_2
Note_On_68_Vel_44
Time_Shift_5
Note_On_53_Vel_0
Time_Shift_6
Note_On_80_Vel_0
Time_Shift_34
Note_On_81_Vel_0
Time_Shift_15
Note_On_65_Vel_0
Time_Shift_23
Sustain_On
Time_Shift_758
Note_On_77_Vel_64
Time_Shift_388
Note_On_39_Vel_34
Time_Shift_61
Sustain_Off
Time_Shift_27
Note_On_75_Vel_64
Time_Shift_5
Note_On_67_Vel_31
Time_Shift_32
Note_On_68_Vel_0
Note_On_58_Vel_0
Note_On_79_Vel_0
Time_Shift_1
Note_On_77_Vel_0
Time_Shift_11
Note_On_62_Vel_0
Time_Shift_115
Sustain_On
Time_Shift_485
Note_On_63_Vel_46
Time_Shift_33
Note_On_55_Vel_38
Time_Shift_511
Note_On_67_Vel_0
Time_Shift_10
Note_On_67_Vel_53
Time_Shift_29
Note_On_63_Vel_0
Time_Shift_7
Note_On_55_Vel_0
Time_Shift_2
Note_On_63_Vel_28
Time_Shift_8
Note_On_55_Vel_21
Time_Shift_313
Note_On_51_Vel_59
Time_Shift_361
Note_On_63_Vel_0
Time_Shift_4
Note_On_63_Vel_51
Time_Shift_27
Note_On_55_Vel_0
Time_Shift_10
Note_On_55_Vel_37
Time_Shift_358
Note_On_67_Vel_0
Time_Shift_4
Note_On_67_Vel_69
Time_Shift_19
Note_On_63_Vel_0
Time_Shift_12
Note_On_63_Vel_50
Note_On_58_Vel_45
Time_Shift_534
Note_On_39_Vel_0
Note_On_75_Vel_0
Time_Shift_23
Note_On_75_Vel_89
Time_Shift_66
Note_On_32_Vel_66
Time_Shift_16
Sustain_Off
Time_Shift_46
Note_On_67_Vel_0
Time_Shift_2
Note_On_51_Vel_0
Time_Shift_15
Note_On_55_Vel_0
Note_On_58_Vel_0
Time_Shift_31
Sustain_On
Time_Shift_115
Note_On_32_Vel_0
Time_Shift_8
Note_On_63_Vel_0
Time_Shift_502
Note_On_59_Vel_69
Time_Shift_19
Note_On_51_Vel_53
Time_Shift_8
Note_On_56_Vel_34
Time_Shift_518
Note_On_63_Vel_85
Time_Shift_36
Note_On_56_Vel_0
Note_On_59_Vel_0
Time_Shift_6
Note_On_59_Vel_51
Time_Shift_2
Note_On_56_Vel_45
Time_Shift_319
Note_On_68_Vel_88
Time_Shift_26
Note_On_63_Vel_0
Time_Shift_10
Note_On_63_Vel_59
Time_Shift_59
Note_On_59_Vel_0
Time_Shift_10
Note_On_59_Vel_41
Time_Shift_152
Note_On_77_Vel_93
Time_Shift_284
Note_On_63_Vel_0
Time_Shift_11
Note_On_63_Vel_62
Time_Shift_12
Note_On_56_Vel_0
Time_Shift_8
Note_On_59_Vel_0
Time_Shift_3
Note_On_56_Vel_52
Time_Shift_2
Note_On_59_Vel_51
Time_Shift_56
Note_On_75_Vel_0
Time_Shift_4
Note_On_75_Vel_92
Time_Shift_242
Note_On_77_Vel_0
Time_Shift_6
Note_On_77_Vel_91
Time_Shift_147
Note_On_75_Vel_0
Time_Shift_6
Note_On_75_Vel_98
Time_Shift_86
Note_On_56_Vel_0
Note_On_59_Vel_0
Time_Shift_5
Note_On_56_Vel_68
Time_Shift_5
Note_On_59_Vel_60
Time_Shift_14
Note_On_51_Vel_0
Time_Shift_4
Note_On_51_Vel_59
Time_Shift_49
Note_On_77_Vel_0
Time_Shift_8
Note_On_77_Vel_90
Time_Shift_138
Note_On_75_Vel_0
Time_Shift_7
Note_On_75_Vel_101
Time_Shift_124
Note_On_77_Vel_0
Time_Shift_8
Note_On_77_Vel_103
Time_Shift_366
Note_On_79_Vel_90
Time_Shift_32
Note_On_39_Vel_53
Time_Shift_2
Note_On_67_Vel_50
Time_Shift_6
Note_On_67_Vel_0
Time_Shift_39
Note_On_68_Vel_0
Time_Shift_1
Sustain_Off
Note_On_59_Vel_0
Time_Shift_1
Note_On_77_Vel_0
Note_On_56_Vel_0
Note_On_63_Vel_0
Time_Shift_1
Note_On_75_Vel_0
Note_On_51_Vel_0
Time_Shift_97
Sustain_On
Time_Shift_84
Note_On_39_Vel_0
Time_Shift_329
Note_On_63_Vel_60
Time_Shift_19
Note_On_55_Vel_51
Time_Shift_464
Note_On_67_Vel_79
Time_Shift_24
Note_On_58_Vel_56
Time_Shift_341
Note_On_51_Vel_69
Time_Shift_321
Note_On_63_Vel_0
Time_Shift_11
Note_On_63_Vel_71
Time_Shift_4
Note_On_55_Vel_0
Time_Shift_6
Note_On_55_Vel_65
Time_Shift_309
Note_On_67_Vel_0
Time_Shift_8
Note_On_58_Vel_0
Time_Shift_1
Note_On_67_Vel_78
Time_Shift_3
Note_On_58_Vel_71
Time_Shift_349
Note_On_32_Vel_76
Time_Shift_10
Sustain_Off
Time_Shift_1
Note_On_51_Vel_0
Time_Shift_1
Note_On_55_Vel_0
Note_On_63_Vel_0
Time_Shift_1
Note_On_58_Vel_0
Note_On_67_Vel_0
Time_Shift_64
Note_On_75_Vel_104
Time_Shift_23
Sustain_On
Time_Shift_84
Note_On_32_Vel_0
Time_Shift_293
Note_On_59_Vel_67
Time_Shift_6
Note_On_56_Vel_63
Note_On_51_Vel_67
Time_Shift_77
Note_On_68_Vel_98
Time_Shift_177
Note_On_70_Vel_82
Time_Shift_54
Note_On_68_Vel_0
Time_Shift_11
Note_On_68_Vel_84
Time_Shift_35
Note_On_70_Vel_0
Time_Shift_5
Note_On_70_Vel_85
Time_Shift_34
Note_On_56_Vel_0
Note_On_68_Vel_0
Time_Shift_5
Note_On_63_Vel_77
Time_Shift_2
Note_On_59_Vel_0
Time_Shift_2
Note_On_56_Vel_70
Time_Shift_2
Note_On_68_Vel_89
Time_Shift_2
Note_On_59_Vel_63
Time_Shift_157
Note_On_67_Vel_90
Time_Shift_137
Note_On_56_Vel_0
Note_On_59_Vel_0
Note_On_68_Vel_0
Time_Shift_4
Note_On_68_Vel_96
Time_Shift_1
Note_On_56_Vel_70
Time_Shift_2
Note_On_51_Vel_0
Time_Shift_4
Note_On_59_Vel_78
Note_On_51_Vel_60
Time_Shift_92
Note_On_71_Vel_95
Time_Shift_96
Note_On_63_Vel_0
Note_On_75_Vel_0
Time_Shift_8
Note_On_63_Vel_87
Time_Shift_2
Note_On_75_Vel_95
Time_Shift_83
Note_On_80_Vel_103
Time_Shift_169
Note_On_79_Vel_0
Time_Shift_7
Note_On_56_Vel_0
Note_On_59_Vel_0
Time_Shift_8
Note_On_56_Vel_72
Note_On_51_Vel_0
Time_Shift_3
Note_On_59_Vel_73
Time_Shift_2
Note_On_51_Vel_79
Time_Shift_37
Note_On_87_Vel_107
Time_Shift_2
Note_On_99_Vel_97
Time_Shift_10
Note_On_99_Vel_0
Time_Shift_281
Note_On_89_Vel_93
Time_Shift_5
Note_On_88_Vel_83
Time_Shift_56
Note_On_67_Vel_0
Note_On_70_Vel_0
Note_On_71_Vel_0
Note_On_80_Vel_0
Note_On_56_Vel_0
Time_Shift_1
Note_On_75_Vel_0
Time_Shift_1
Note_On_63_Vel_0
Time_Shift_2
Note_On_87_Vel_0
Sustain_Off
Time_Shift_7
Note_On_68_Vel_0
Time_Shift_1
Note_On_91_Vel_102
Time_Shift_7
Note_On_51_Vel_0
Note_On_59_Vel_0
Note_On_89_Vel_0
Time_Shift_2
Note_On_39_Vel_89
Time_Shift_2
Note_On_51_Vel_81
Time_Shift_3
Note_On_88_Vel_0
Time_Shift_31
Note_On_51_Vel_0
Time_Shift_31
Note_On_39_Vel_0
Time_Shift_15
Sustain_On
Time_Shift_328
Note_On_63_Vel_81
Time_Shift_13
Note_On_55_Vel_73
Time_Shift_42
Note_On_87_Vel_107
Time_Shift_273
Note_On_67_Vel_100
Time_Shift_10
Note_On_58_Vel_83
Time_Shift_164
Note_On_87_Vel_0
Time_Shift_3
Note_On_99_Vel_113
Note_On_87_Vel_110
Time_Shift_525
Note_On_45_Vel_88
Note_On_57_Vel_84
Time_Shift_35
Note_On_63_Vel_0
Note_On_67_Vel_0
Time_Shift_1
Note_On_55_Vel_0
Time_Shift_5
Sustain_Off
Time_Shift_7
Note_On_58_Vel_0
Note_On_91_Vel_0
Time_Shift_69
Sustain_On
Time_Shift_153
Note_On_45_Vel_0
Time_Shift_211
Note_On_63_Vel_81
Time_Shift_27
Note_On_53_Vel_70
Time_Shift_3
Note_On_60_Vel_61
Time_Shift_31
Note_On_86_Vel_106
Time_Shift_1
Note_On_98_Vel_111
Time_Shift_389
Note_On_65_Vel_89
Time_Shift_6
Note_On_60_Vel_0
Time_Shift_5
Note_On_60_Vel_73
Time_Shift_40
Note_On_96_Vel_109
Time_Shift_2
Note_On_84_Vel_104
Time_Shift_284
Note_On_46_Vel_79
Time_Shift_34
Note_On_86_Vel_0
Time_Shift_2
Note_On_65_Vel_0
Time_Shift_1
Note_On_53_Vel_0
Note_On_60_Vel_0
Time_Shift_1
Note_On_63_Vel_0
Time_Shift_1
Note_On_98_Vel_0
Time_Shift_2
Note_On_84_Vel_0
Time_Shift_2
Note_On_96_Vel_0
Time_Shift_2
Sustain_Off
Time_Shift_1
Note_On_87_Vel_0
Note_On_99_Vel_0
Time_Shift_7
Note_On_57_Vel_0
Time_Shift_2
Note_On_83_Vel_102
Time_Shift_1
Note_On_95_Vel_107
Time_Shift_43
Sustain_On
Time_Shift_31
Note_On_46_Vel_0
Time_Shift_218
Note_On_53_Vel_65
Time_Shift_6
Note_On_58_Vel_57
Time_Shift_1
Note_On_63_Vel_60
Time_Shift_35
Note_On_94_Vel_101
Time_Shift_4
Note_On_82_Vel_94
Time_Shift_228
Note_On_58_Vel_0
Note_On_63_Vel_0
Time_Shift_5
Note_On_51_Vel_66
Time_Shift_2
Note_On_63_Vel_62
Time_Shift_1
Note_On_58_Vel_77
Time_Shift_11
Note_On_81_Vel_99
Time_Shift_2
Note_On_93_Vel_104
Time_Shift_191
Note_On_53_Vel_0
Note_On_94_Vel_0
Time_Shift_2
Note_On_63_Vel_0
Time_Shift_1
Note_On_81_Vel_0
Note_On_82_Vel_0
Time_Shift_5
Sustain_Off
Time_Shift_10
Note_On_58_Vel_0
Note_On_83_Vel_0
Time_Shift_4
Note_On_47_Vel_85
Time_Shift_4
Note_On_95_Vel_0
Time_Shift_15
Note_On_51_Vel_0
Time_Shift_27
Note_On_92_Vel_99
Time_Shift_4
Sustain_On
Time_Shift_34
Note_On_80_Vel_64
Time_Shift_7
Note_On_79_Vel_48
Time_Shift_5
Note_On_79_Vel_0
Time_Shift_184
Note_On_91_Vel_100
Time_Shift_7
Note_On_65_Vel_82
Time_Shift_3
Note_On_55_Vel_82
Note_On_67_Vel_76
Time_Shift_175
Note_On_93_Vel_0
Time_Shift_5
Note_On_86_Vel_102
Time_Shift_7
Note_On_74_Vel_98
Time_Shift_3
Note_On_67_Vel_0
Time_Shift_8
Note_On_55_Vel_0
Time_Shift_3
Note_On_67_Vel_80
Time_Shift_1
Note_On_62_Vel_74
Time_Shift_5
Note_On_55_Vel_72
Time_Shift_240
Note_On_48_Vel_81
Time_Shift_25
Note_On_87_Vel_109
Time_Shift_2
Note_On_65_Vel_0
Note_On_67_Vel_0
Note_On_62_Vel_0
Time_Shift_2
Note_On_91_Vel_0
Note_On_55_Vel_0
Note_On_74_Vel_0
Time_Shift_1
Note_On_86_Vel_0
Time_Shift_2
Note_On_75_Vel_110
Time_Shift_1
Sustain_Off
Time_Shift_2
Note_On_47_Vel_0
Time_Shift_7
Note_On_80_Vel_0
Time_Shift_16
Note_On_92_Vel_0
Time_Shift_31
Sustain_On
Time_Shift_69
Note_On_48_Vel_0
Time_Shift_190
Note_On_63_Vel_72
Time_Shift_19
Note_On_55_Vel_71
Time_Shift_83
Note_On_87_Vel_0
Time_Shift_6
Note_On_99_Vel_110
Time_Shift_3
Note_On_87_Vel_100
Time_Shift_267
Note_On_67_Vel_87
Time_Shift_11
Note_On_60_Vel_67
Time_Shift_1
Note_On_56_Vel_55
Time_Shift_355
Note_On_45_Vel_87
Time_Shift_1
Note_On_57_Vel_78
Time_Shift_21
Note_On_63_Vel_0
Note_On_67_Vel_0
Time_Shift_1
Note_On_55_Vel_0
Note_On_60_Vel_0
Time_Shift_1
Sustain_Off
Note_On_99_Vel_0
Time_Shift_1
Note_On_56_Vel_0
Time_Shift_1
Note_On_75_Vel_0
Time_Shift_83
Sustain_On
Time_Shift_36
Note_On_45_Vel_0
Time_Shift_353
Note_On_63_Vel_80
Time_Shift_31
Note_On_65_Vel_69
Time_Shift_2
Note_On_60_Vel_53
Time_Shift_1
Note_On_53_Vel_73
Time_Shift_36
Note_On_89_Vel_106
Time_Shift_7
Note_On_77_Vel_87
Time_Shift_394
Note_On_65_Vel_0
Time_Shift_5
Note_On_65_Vel_73
Time_Shift_3
Note_On_60_Vel_0
Time_Shift_5
Note_On_60_Vel_61
Time_Shift_37
Note_On_96_Vel_109
Time_Shift_1
Note_On_84_Vel_94
Time_Shift_580
Note_On_95_Vel_105
Time_Shift_2
Note_On_83_Vel_98
Time_Shift_47
Note_On_34_Vel_53
Time_Shift_22
Note_On_60_Vel_0
Note_On_53_Vel_0
Time_Shift_1
Note_On_65_Vel_0
Note_On_63_Vel_0
Note_On_57_Vel_0
Note_On_84_Vel_0
Sustain_Off
Time_Shift_1
Note_On_77_Vel_0
Time_Shift_1
Note_On_89_Vel_0
Time_Shift_4
Note_On_96_Vel_0
Time_Shift_6
Note_On_87_Vel_0
Time_Shift_99
Sustain_On
Time_Shift_70
Note_On_34_Vel_0
Time_Shift_210
Note_On_46_Vel_68
Time_Shift_286
Note_On_53_Vel_66
Time_Shift_236
Note_On_56_Vel_72
Time_Shift_278
Note_On_62_Vel_82
Time_Shift_340
Note_On_58_Vel_77
Time_Shift_326
Note_On_65_Vel_76
Time_Shift_486
Note_On_68_Vel_84
Time_Shift_835
Note_On_74_Vel_57
Time_Shift_55
Note_On_82_Vel_87
Time_Shift_2
Note_On_94_Vel_85
Time_Shift_786
Note_On_46_Vel_0
Note_On_53_Vel_0
Note_On_56_Vel_0
Note_On_58_Vel_0
Note_On_62_Vel_0
Note_On_65_Vel_0
Note_On_83_Vel_0
Note_On_95_Vel_0
Time_Shift_388
Note_On_95_Vel_65
Time_Shift_264
Note_On_94_Vel_0
Time_Shift_4
Note_On_94_Vel_58
Time_Shift_183
Note_On_96_Vel_62
Time_Shift_141
Note_On_93_Vel_57
Time_Shift_41
Note_On_68_Vel_0
Time_Shift_9
Note_On_68_Vel_25
Time_Shift_68
Note_On_95_Vel_0
Time_Shift_5
Note_On_95_Vel_64
Time_Shift_95
Note_On_94_Vel_0
Time_Shift_6
Note_On_94_Vel_67
Time_Shift_86
Note_On_96_Vel_0
Time_Shift_5
Note_On_96_Vel_66
Time_Shift_56
Note_On_93_Vel_0
Time_Shift_12
Note_On_93_Vel_68
Time_Shift_80
Note_On_95_Vel_0
Time_Shift_4
Note_On_95_Vel_76
Time_Shift_65
Note_On_94_Vel_0
Time_Shift_6
Note_On_94_Vel_80
Time_Shift_56
Note_On_96_Vel_0
Time_Shift_11
Note_On_96_Vel_78
Time_Shift_50
Note_On_93_Vel_0
Time_Shift_11
Note_On_93_Vel_79
Time_Shift_51
Note_On_95_Vel_0
Time_Shift_4
Note_On_95_Vel_82
Time_Shift_57
Note_On_94_Vel_0
Time_Shift_4
Note_On_94_Vel_91
Time_Shift_50
Note_On_96_Vel_0
Time_Shift_7
Note_On_96_Vel_84
Time_Shift_54
Note_On_93_Vel_0
Time_Shift_4
Note_On_93_Vel_83
Time_Shift_43
Note_On_95_Vel_0
Time_Shift_5
Note_On_95_Vel_86
Time_Shift_48
Note_On_94_Vel_0
Time_Shift_4
Note_On_94_Vel_90
Time_Shift_50
Note_On_96_Vel_0
Time_Shift_6
Note_On_96_Vel_93
Time_Shift_48
Note_On_93_Vel_0
Time_Shift_5
Note_On_93_Vel_91
Time_Shift_49
Note_On_95_Vel_0
Time_Shift_8
Note_On_95_Vel_95
Time_Shift_61
Note_On_94_Vel_0
Time_Shift_7
Note_On_94_Vel_97
Time_Shift_46
Note_On_96_Vel_0
Time_Shift_8
Note_On_96_Vel_88
Time_Shift_54
Note_On_93_Vel_0
Time_Shift_8
Note_On_93_Vel_93
Time_Shift_53
Note_On_95_Vel_0
Time_Shift_5
Note_On_95_Vel_93
Time_Shift_72
Note_On_94_Vel_0
Time_Shift_5
Note_On_94_Vel_90
Time_Shift_49
Note_On_96_Vel_0
Time_Shift_10
Note_On_96_Vel_86
Time_Shift_67
Note_On_93_Vel_0
Time_Shift_10
Note_On_93_Vel_87
Time_Shift_59
Note_On_95_Vel_0
Time_Shift_11
Note_On_95_Vel_81
Time_Shift_66
Note_On_94_Vel_0
Time_Shift_10
Note_On_94_Vel_78
Time_Shift_66
Note_On_96_Vel_0
Time_Shift_9
Note_On_96_Vel_82
Time_Shift_84
Note_On_93_Vel_0
Time_Shift_5
Note_On_93_Vel_70
Time_Shift_79
Note_On_95_Vel_0
Time_Shift_4
Note_On_95_Vel_79
Time_Shift_88
Note_On_94_Vel_0
Time_Shift_6
Note_On_94_Vel_79
Time_Shift_94
Note_On_96_Vel_0
Time_Shift_11
Note_On_96_Vel_74
Time_Shift_81
Note_On_93_Vel_0
Time_Shift_4
Note_On_93_Vel_75
Time_Shift_111
Note_On_95_Vel_0
Time_Shift_9
Note_On_95_Vel_74
Time_Shift_137
Note_On_94_Vel_0
Time_Shift_5
Note_On_94_Vel_69
Time_Shift_149
Note_On_96_Vel_0
Time_Shift_4
Note_On_96_Vel_66
Time_Shift_73
Note_On_74_Vel_0
Time_Shift_53
Note_On_82_Vel_0
Time_Shift_24
Note_On_68_Vel_0
Time_Shift_23
Note_On_93_Vel_0
Time_Shift_10
Note_On_93_Vel_57
Time_Shift_243
Note_On_95_Vel_0
Time_Shift_10
Note_On_95_Vel_59
Time_Shift_55
Sustain_Off
Note_On_93_Vel_0
Time_Shift_19
Sustain_On
Time_Shift_354
Note_On_94_Vel_0
Time_Shift_5
Note_On_94_Vel_47
Time_Shift_313
Note_On_98_Vel_53
Time_Shift_235
Note_On_96_Vel_0
Time_Shift_9
Note_On_96_Vel_69
Time_Shift_190
Note_On_94_Vel_0
Time_Shift_6
Note_On_94_Vel_70
Time_Shift_174
Note_On_93_Vel_76
Time_Shift_175
Note_On_92_Vel_75
Time_Shift_171
Note_On_91_Vel_75
Time_Shift_208
Note_On_89_Vel_74
Time_Shift_215
Note_On_86_Vel_75
Time_Shift_240
Note_On_87_Vel_71
Time_Shift_9
Note_On_98_Vel_0
Time_Shift_13
Note_On_89_Vel_0
Time_Shift_5
Note_On_86_Vel_0
Time_Shift_13
Note_On_93_Vel_0
Note_On_95_Vel_0
Time_Shift_14
Sustain_Off
Time_Shift_2
Note_On_96_Vel_0
Time_Shift_23
Note_On_91_Vel_0
Time_Shift_76
Sustain_On
Time_Shift_8
Note_On_92_Vel_0
Note_On_94_Vel_0
Time_Shift_90
Note_On_84_Vel_65
Time_Shift_297
Note_On_82_Vel_75
Time_Shift_43
Sustain_Off
Time_Shift_14
Note_On_84_Vel_0
Time_Shift_17
Note_On_87_Vel_0
Time_Shift_146
Sustain_On
Time_Shift_321
Note_On_80_Vel_73
Time_Shift_427
Note_On_72_Vel_64
Time_Shift_56
Sustain_Off
Time_Shift_6
Note_On_80_Vel_0
Time_Shift_2
Note_On_82_Vel_0
Time_Shift_125
Sustain_On
Time_Shift_584
Note_On_74_Vel_52
Time_Shift_35
Sustain_Off
Time_Shift_8
Note_On_72_Vel_0
Time_Shift_141
Sustain_On
Time_Shift_23
Sustain_Off
Time_Shift_92
Sustain_On
Time_Shift_23
Sustain_Off
Time_Shift_84
Sustain_On
Time_Shift_874
Note_On_39_Vel_35
Time_Shift_7
Sustain_Off
Time_Shift_23
Note_On_75_Vel_67
Time_Shift_48
Note_On_67_Vel_42
Time_Shift_1
Sustain_On
Time_Shift_7
Note_On_74_Vel_0
Time_Shift_600
Note_On_39_Vel_0
Time_Shift_15
Note_On_58_Vel_34
Time_Shift_51
Note_On_55_Vel_29
Time_Shift_7
Note_On_70_Vel_69
Time_Shift_3
Note_On_55_Vel_0
Time_Shift_46
Note_On_67_Vel_0
Time_Shift_6
Note_On_67_Vel_26
Time_Shift_285
Note_On_46_Vel_39
Time_Shift_39
Note_On_79_Vel_85
Time_Shift_339
Note_On_75_Vel_0
Time_Shift_9
Note_On_75_Vel_91
Time_Shift_44
Note_On_67_Vel_0
Time_Shift_4
Note_On_51_Vel_36
Time_Shift_2
Note_On_67_Vel_52
Time_Shift_6
Sustain_Off
Time_Shift_42
Sustain_On
Time_Shift_238
Note_On_70_Vel_0
Time_Shift_5
Note_On_55_Vel_44
Time_Shift_5
Note_On_70_Vel_83
Time_Shift_21
Note_On_58_Vel_0
Time_Shift_6
Note_On_58_Vel_41
Time_Shift_286
Note_On_79_Vel_0
Time_Shift_6
Note_On_79_Vel_85
Time_Shift_9
Note_On_58_Vel_0
Time_Shift_8
Note_On_46_Vel_0
Note_On_67_Vel_0
Time_Shift_2
Note_On_58_Vel_51
Time_Shift_3
Note_On_46_Vel_47
Time_Shift_4
Note_On_67_Vel_33
Time_Shift_359
Note_On_75_Vel_0
Time_Shift_5
Note_On_75_Vel_76
Time_Shift_18
Note_On_67_Vel_0
Time_Shift_11
Note_On_67_Vel_62
Time_Shift_3
Note_On_51_Vel_0
Time_Shift_1
Note_On_79_Vel_0
Time_Shift_2
Note_On_70_Vel_0
Time_Shift_1
Note_On_46_Vel_0
Time_Shift_7
Sustain_Off
Time_Shift_6
Note_On_58_Vel_0
Time_Shift_11
Note_On_39_Vel_60
Time_Shift_74
Note_On_55_Vel_0
Time_Shift_53
Sustain_On
Time_Shift_361
Note_On_67_Vel_0
Time_Shift_4
Note_On_70_Vel_69
Time_Shift_1
Note_On_58_Vel_51
Time_Shift_6
Note_On_67_Vel_49
Time_Shift_330
Note_On_79_Vel_76
Time_Shift_20
Note_On_67_Vel_0
Time_Shift_1
Note_On_46_Vel_42
Time_Shift_6
Note_On_67_Vel_29
Time_Shift_331
Note_On_51_Vel_46
Time_Shift_23
Note_On_75_Vel_0
Time_Shift_6
Note_On_75_Vel_68
Time_Shift_25
Note_On_67_Vel_0
Time_Shift_7
Note_On_39_Vel_0
Time_Shift_1
Note_On_58_Vel_0
Time_Shift_2
Note_On_70_Vel_0
Time_Shift_1
Note_On_79_Vel_0
Note_On_67_Vel_47
Time_Shift_8
Sustain_Off
Time_Shift_81
Sustain_On
Time_Shift_244
Note_On_55_Vel_30
Time_Shift_7
Note_On_70_Vel_66
Time_Shift_21
Note_On_58_Vel_36
Time_Shift_360
Note_On_79_Vel_71
Time_Shift_21
Note_On_46_Vel_0
Time_Shift_7
Note_On_67_Vel_0
Time_Shift_3
Note_On_46_Vel_39
Time_Shift_2
Note_On_67_Vel_21
Time_Shift_3
Note_On_70_Vel_0
Time_Shift_6
Note_On_70_Vel_34
Time_Shift_432
Note_On_51_Vel_0
Time_Shift_5
Note_On_51_Vel_38
Time_Shift_68
Sustain_Off
Time_Shift_4
Note_On_75_Vel_0
Time_Shift_5
Note_On_75_Vel_84
Time_Shift_41
Note_On_67_Vel_0
Time_Shift_10
Note_On_67_Vel_42
Time_Shift_66
Note_On_75_Vel_0
Time_Shift_11
Note_On_75_Vel_52
Time_Shift_20
Sustain_On
Time_Shift_16
Sustain_Off
Time_Shift_84
Sustain_On
Time_Shift_1285
Note_On_87_Vel_72
Time_Shift_28
Note_On_75_Vel_0
Note_On_79_Vel_0
Time_Shift_7
Note_On_79_Vel_62
Time_Shift_1
Note_On_70_Vel_0
Time_Shift_2
Note_On_75_Vel_40
Time_Shift_3
Note_On_70_Vel_48
Time_Shift_1
Note_On_63_Vel_38
Time_Shift_2
Note_On_67_Vel_0
Time_Shift_5
Note_On_67_Vel_28
Time_Shift_2084
Note_On_55_Vel_0
Time_Shift_23
Note_On_58_Vel_0
Time_Shift_315
Note_On_46_Vel_0
Note_On_51_Vel_0
Note_On_63_Vel_0
Note_On_67_Vel_0
Note_On_70_Vel_0
Note_On_75_Vel_0
Note_On_79_Vel_0
Note_On_87_Vel_0
Time_Shift_101
Note_On_63_Vel_50
Time_Shift_1
Note_On_55_Vel_43
Time_Shift_17
Note_On_39_Vel_28
Time_Shift_11
Note_On_46_Vel_26
Time_Shift_246
Sustain_Off
Time_Shift_84
Sustain_On
Time_Shift_246
Sustain_Off
Time_Shift_161
Sustain_On
Time_Shift_192
Sustain_Off
Time_Shift_292
Sustain_On
Time_Shift_100
Sustain_Off
Time_Shift_146
Sustain_On
Time_Shift_1413
Sustain_Off
Time_Shift_1209
Note_On_63_Vel_0
Note_On_55_Vel_0
Time_Shift_1
Note_On_39_Vel_0
Time_Shift_19
Note_On_46_Vel_0
