Ticks_Per_Beat_384
Tempo_500000
Time_Shift_259
Note_On_62_Vel_81
Time_Shift_12
Note_On_55_Vel_61
Note_On_59_Vel_64
Time_Shift_39
Note_On_59_Vel_0
Note_On_55_Vel_0
Time_Shift_85
Note_On_62_Vel_0
Time_Shift_7
Note_On_67_Vel_80
Time_Shift_154
Note_On_71_Vel_96
Note_On_67_Vel_0
Time_Shift_16
Note_On_55_Vel_59
Note_On_43_Vel_56
Note_On_59_Vel_63
Time_Shift_1
Note_On_62_Vel_65
Time_Shift_35
Note_On_55_Vel_0
Time_Shift_3
Note_On_62_Vel_0
Time_Shift_18
Note_On_59_Vel_0
Time_Shift_8
Note_On_43_Vel_0
Time_Shift_84
Note_On_71_Vel_0
Time_Shift_9
Note_On_69_Vel_81
Time_Shift_59
Note_On_71_Vel_84
Time_Shift_6
Note_On_69_Vel_0
Time_Shift_60
Note_On_71_Vel_0
Time_Shift_8
Note_On_72_Vel_97
Time_Shift_14
Note_On_43_Vel_56
Time_Shift_4
Note_On_60_Vel_63
Time_Shift_2
Note_On_62_Vel_59
Time_Shift_1
Note_On_55_Vel_58
Time_Shift_28
Note_On_60_Vel_0
Time_Shift_6
Note_On_55_Vel_0
Time_Shift_2
Note_On_62_Vel_0
Time_Shift_9
Note_On_43_Vel_0
Time_Shift_84
Note_On_72_Vel_0
Time_Shift_8
Note_On_76_Vel_98
Time_Shift_3
Note_On_72_Vel_75
Time_Shift_51
Note_On_72_Vel_0
Time_Shift_15
Note_On_76_Vel_0
Time_Shift_111
Note_On_74_Vel_98
Time_Shift_3
Note_On_60_Vel_71
Time_Shift_1
Note_On_55_Vel_71
Time_Shift_3
Note_On_62_Vel_76
Time_Shift_1
Note_On_72_Vel_79
Time_Shift_35
Sustain_On
Time_Shift_296
Sustain_Off
Note_On_74_Vel_0
Time_Shift_11
Note_On_60_Vel_0
Note_On_62_Vel_0
Time_Shift_4
Note_On_69_Vel_86
Time_Shift_1
Note_On_60_Vel_65
Time_Shift_1
Note_On_62_Vel_65
Time_Shift_2
Note_On_43_Vel_54
Note_On_55_Vel_0
Time_Shift_4
Note_On_55_Vel_52
Time_Shift_3
Note_On_72_Vel_0
Time_Shift_13
Note_On_60_Vel_0
Time_Shift_4
Note_On_69_Vel_0
Time_Shift_18
Note_On_43_Vel_0
Time_Shift_4
Note_On_62_Vel_0
Time_Shift_134
Note_On_69_Vel_79
Time_Shift_53
Note_On_69_Vel_0
Time_Shift_4
Note_On_71_Vel_87
Time_Shift_59
Note_On_60_Vel_64
Time_Shift_1
Note_On_69_Vel_91
Time_Shift_1
Note_On_62_Vel_70
Time_Shift_1
Note_On_55_Vel_0
Time_Shift_5
Note_On_71_Vel_0
Note_On_55_Vel_54
Time_Shift_23
Note_On_62_Vel_0
Time_Shift_1
Note_On_60_Vel_0
Time_Shift_25
Note_On_55_Vel_0
Time_Shift_100
Note_On_71_Vel_89
Time_Shift_2
Note_On_69_Vel_0
Time_Shift_161
Note_On_64_Vel_79
Time_Shift_1
Note_On_60_Vel_73
Note_On_55_Vel_63
Time_Shift_2
Note_On_62_Vel_71
Note_On_43_Vel_56
Time_Shift_23
Note_On_60_Vel_0
Time_Shift_26
Note_On_62_Vel_0
Time_Shift_15
Note_On_55_Vel_0
Time_Shift_75
Note_On_66_Vel_79
Time_Shift_2
Note_On_43_Vel_0
Time_Shift_8
Note_On_71_Vel_0
Time_Shift_2
Note_On_64_Vel_0
Time_Shift_149
Note_On_66_Vel_0
Time_Shift_1
Note_On_67_Vel_82
Time_Shift_10
Note_On_60_Vel_61
Time_Shift_1
Note_On_55_Vel_57
Note_On_62_Vel_58
Time_Shift_18
Note_On_67_Vel_0
Time_Shift_8
Note_On_55_Vel_0
Note_On_62_Vel_0
Time_Shift_18
Note_On_60_Vel_0
Time_Shift_112
Note_On_67_Vel_86
Time_Shift_31
Note_On_67_Vel_0
Time_Shift_198
Note_On_62_Vel_92
Time_Shift_9
Note_On_59_Vel_69
Time_Shift_6
Note_On_55_Vel_66
Time_Shift_185
Note_On_67_Vel_86
Time_Shift_40
Note_On_55_Vel_0
Time_Shift_4
Note_On_59_Vel_0
Time_Shift_14
Note_On_62_Vel_0
Time_Shift_94
Note_On_71_Vel_100
Time_Shift_15
Note_On_55_Vel_59
Note_On_59_Vel_62
Time_Shift_1
Note_On_62_Vel_66
Time_Shift_10
Note_On_67_Vel_0
Time_Shift_22
Note_On_62_Vel_0
Time_Shift_4
Note_On_55_Vel_0
Time_Shift_23
Note_On_59_Vel_0
Time_Shift_76
Note_On_71_Vel_0
Time_Shift_9
Note_On_69_Vel_89
Time_Shift_77
Note_On_71_Vel_84
Time_Shift_44
Note_On_69_Vel_0
Time_Shift_7
Note_On_71_Vel_0
Time_Shift_13
Note_On_72_Vel_98
Time_Shift_8
Note_On_55_Vel_70
Time_Shift_1
Note_On_62_Vel_73
Time_Shift_2
Note_On_60_Vel_67
Time_Shift_55
Note_On_62_Vel_0
Time_Shift_15
Note_On_55_Vel_0
Time_Shift_31
Note_On_60_Vel_0
Time_Shift_29
Note_On_72_Vel_0
Time_Shift_1
Note_On_76_Vel_101
Time_Shift_54
Note_On_76_Vel_0
Time_Shift_112
Note_On_74_Vel_100
Note_On_55_Vel_77
Time_Shift_2
Note_On_72_Vel_84
Time_Shift_3
Note_On_60_Vel_78
Time_Shift_1
Note_On_62_Vel_82
Time_Shift_191
Note_On_62_Vel_0
Time_Shift_16
Note_On_55_Vel_0
Time_Shift_14
Note_On_74_Vel_0
Time_Shift_15
Note_On_72_Vel_0
Time_Shift_69
Note_On_60_Vel_0
Time_Shift_4
Note_On_69_Vel_93
Time_Shift_7
Note_On_60_Vel_66
Time_Shift_6
Note_On_62_Vel_69
Time_Shift_3
Note_On_55_Vel_59
Time_Shift_4
Note_On_43_Vel_58
Time_Shift_8
Note_On_69_Vel_0
Time_Shift_21
Note_On_60_Vel_0
Time_Shift_16
Note_On_62_Vel_0
Time_Shift_97
Note_On_69_Vel_81
Time_Shift_26
Note_On_55_Vel_0
Time_Shift_7
Note_On_43_Vel_0
Time_Shift_15
Note_On_69_Vel_0
Time_Shift_14
Note_On_71_Vel_91
Time_Shift_60
Note_On_69_Vel_95
Time_Shift_3
Note_On_60_Vel_63
Time_Shift_2
Note_On_71_Vel_0
Time_Shift_2
Note_On_62_Vel_65
Time_Shift_2
Note_On_55_Vel_56
Time_Shift_23
Note_On_62_Vel_0
Time_Shift_10
Note_On_55_Vel_0
Time_Shift_15
Note_On_60_Vel_0
Time_Shift_92
Note_On_71_Vel_94
Time_Shift_13
Note_On_69_Vel_0
Time_Shift_152
Note_On_64_Vel_88
Time_Shift_1
Note_On_43_Vel_61
Note_On_55_Vel_68
Time_Shift_2
Note_On_60_Vel_72
Time_Shift_1
Note_On_62_Vel_75
Time_Shift_27
Note_On_60_Vel_0
Time_Shift_1
Note_On_55_Vel_0
Time_Shift_1
Note_On_62_Vel_0
Time_Shift_33
Note_On_43_Vel_0
Time_Shift_74
Note_On_66_Vel_90
Time_Shift_10
Note_On_71_Vel_0
Time_Shift_5
Note_On_64_Vel_0
Time_Shift_183
Note_On_67_Vel_84
Time_Shift_6
Note_On_59_Vel_65
Note_On_55_Vel_58
Time_Shift_2
Note_On_62_Vel_62
Time_Shift_5
Note_On_66_Vel_0
Time_Shift_153
Note_On_62_Vel_0
Time_Shift_1
Note_On_67_Vel_0
Time_Shift_1
Note_On_59_Vel_0
Time_Shift_1
Note_On_55_Vel_0
Time_Shift_231
Note_On_62_Vel_93
Time_Shift_2
Note_On_59_Vel_84
Time_Shift_2
Note_On_55_Vel_77
Time_Shift_3
Note_On_43_Vel_68
Time_Shift_47
Note_On_55_Vel_0
Time_Shift_73
Note_On_43_Vel_0
Time_Shift_7
Note_On_59_Vel_0
Time_Shift_34
Note_On_67_Vel_87
Time_Shift_9
Note_On_62_Vel_0
Time_Shift_109
Note_On_67_Vel_0
Time_Shift_29
Note_On_71_Vel_100
Time_Shift_8
Note_On_55_Vel_70
Time_Shift_5
Note_On_59_Vel_72
Time_Shift_1
Note_On_62_Vel_78
Time_Shift_39
Note_On_62_Vel_0
Time_Shift_97
Note_On_59_Vel_0
Time_Shift_13
Note_On_71_Vel_0
Time_Shift_1
Note_On_69_Vel_85
Time_Shift_39
Note_On_55_Vel_0
Time_Shift_26
Note_On_71_Vel_76
Time_Shift_54
Note_On_72_Vel_97
Time_Shift_1
Note_On_71_Vel_0
Time_Shift_4
Note_On_69_Vel_0
Time_Shift_6
Note_On_55_Vel_69
Time_Shift_3
Note_On_62_Vel_75
Note_On_60_Vel_69
Time_Shift_2
Note_On_43_Vel_64
Time_Shift_32
Note_On_62_Vel_0
Time_Shift_5
Note_On_55_Vel_0
Time_Shift_29
Note_On_60_Vel_0
Time_Shift_7
Note_On_43_Vel_0
Time_Shift_51
Note_On_72_Vel_0
Time_Shift_2
Note_On_76_Vel_98
Time_Shift_44
Note_On_76_Vel_0
Time_Shift_126
Note_On_74_Vel_97
Time_Shift_3
Note_On_55_Vel_75
Time_Shift_1
Note_On_43_Vel_70
Time_Shift_1
Note_On_60_Vel_72
Time_Shift_1
Note_On_62_Vel_79
Time_Shift_48
Sustain_On
Time_Shift_120
Note_On_55_Vel_0
Time_Shift_5
Note_On_62_Vel_0
Time_Shift_3
Note_On_74_Vel_0
Time_Shift_2
Note_On_43_Vel_0
Time_Shift_8
Sustain_Off
Time_Shift_8
Note_On_60_Vel_0
Time_Shift_125
Note_On_69_Vel_88
Time_Shift_2
Note_On_60_Vel_67
Time_Shift_1
Note_On_62_Vel_73
Time_Shift_7
Note_On_55_Vel_59
Time_Shift_18
Note_On_69_Vel_0
Time_Shift_1
Note_On_60_Vel_0
Time_Shift_22
Note_On_62_Vel_0
Time_Shift_23
Note_On_55_Vel_0
Time_Shift_82
Note_On_69_Vel_79
Time_Shift_52
Note_On_69_Vel_0
Time_Shift_11
Note_On_71_Vel_85
Time_Shift_62
Note_On_71_Vel_0
Time_Shift_4
Note_On_69_Vel_91
Time_Shift_15
Note_On_60_Vel_65
Note_On_55_Vel_66
Time_Shift_1
Note_On_62_Vel_72
Time_Shift_27
Note_On_60_Vel_0
Time_Shift_4
Note_On_62_Vel_0
Time_Shift_2
Note_On_55_Vel_0
Time_Shift_105
Note_On_71_Vel_96
Time_Shift_14
Note_On_69_Vel_0
Time_Shift_121
Note_On_71_Vel_0
Time_Shift_23
Note_On_64_Vel_86
Time_Shift_3
Note_On_62_Vel_79
Note_On_60_Vel_73
Time_Shift_2
Note_On_55_Vel_69
Time_Shift_6
Note_On_43_Vel_61
Time_Shift_4
Note_On_43_Vel_0
Time_Shift_18
Note_On_60_Vel_0
Time_Shift_3
Note_On_55_Vel_0
Time_Shift_3
Note_On_62_Vel_0
Time_Shift_85
Note_On_64_Vel_0
Time_Shift_10
Note_On_66_Vel_88
Time_Shift_156
Note_On_66_Vel_0
Time_Shift_5
Note_On_67_Vel_86
Time_Shift_14
Note_On_60_Vel_59
Time_Shift_1
Note_On_62_Vel_60
Time_Shift_1
Note_On_55_Vel_57
Time_Shift_23
Note_On_60_Vel_0
Time_Shift_2
Note_On_62_Vel_0
Time_Shift_9
Note_On_67_Vel_0
Time_Shift_16
Note_On_55_Vel_0
Time_Shift_105
Note_On_67_Vel_82
Time_Shift_30
Note_On_67_Vel_0
Time_Shift_185
Note_On_62_Vel_68
Time_Shift_5
Note_On_59_Vel_54
Time_Shift_4
Note_On_55_Vel_52
Time_Shift_52
Note_On_59_Vel_0
Time_Shift_7
Note_On_55_Vel_0
Time_Shift_84
Note_On_62_Vel_0
Time_Shift_13
Note_On_67_Vel_70
Time_Shift_139
Note_On_67_Vel_0
Time_Shift_11
Note_On_55_Vel_54
Note_On_59_Vel_53
Time_Shift_2
Note_On_71_Vel_77
Note_On_50_Vel_44
Time_Shift_3
Note_On_62_Vel_51
Time_Shift_37
Note_On_59_Vel_0
Time_Shift_6
Note_On_55_Vel_0
Time_Shift_3
Note_On_62_Vel_0
Time_Shift_1
Note_On_50_Vel_0
Time_Shift_92
Note_On_71_Vel_0
Time_Shift_16
Note_On_69_Vel_74
Time_Shift_74
Note_On_71_Vel_70
Time_Shift_3
Note_On_69_Vel_0
Time_Shift_41
Note_On_71_Vel_0
Time_Shift_8
Note_On_72_Vel_77
Time_Shift_3
Note_On_55_Vel_59
Time_Shift_1
Note_On_62_Vel_60
Note_On_60_Vel_54
Time_Shift_6
Note_On_43_Vel_52
Time_Shift_5
Note_On_43_Vel_0
Time_Shift_24
Note_On_62_Vel_0
Time_Shift_3
Note_On_60_Vel_0
Time_Shift_4
Note_On_55_Vel_0
Time_Shift_127
Note_On_76_Vel_80
Time_Shift_5
Note_On_72_Vel_0
Time_Shift_172
Note_On_74_Vel_81
Note_On_55_Vel_48
Note_On_48_Vel_45
Time_Shift_1
Note_On_60_Vel_50
Time_Shift_6
Note_On_62_Vel_61
Time_Shift_35
Note_On_76_Vel_0
Time_Shift_158
Note_On_62_Vel_0
Time_Shift_14
Note_On_74_Vel_0
Note_On_55_Vel_0
Time_Shift_31
Note_On_60_Vel_0
Time_Shift_27
Note_On_48_Vel_0
Time_Shift_59
Note_On_69_Vel_77
Time_Shift_6
Note_On_60_Vel_61
Time_Shift_6
Note_On_62_Vel_63
Time_Shift_2
Note_On_55_Vel_57
Time_Shift_1
Note_On_43_Vel_50
Time_Shift_16
Note_On_69_Vel_0
Time_Shift_11
Note_On_62_Vel_0
Time_Shift_2
Note_On_60_Vel_0
Time_Shift_12
Note_On_55_Vel_0
Time_Shift_39
Note_On_43_Vel_0
Time_Shift_72
Note_On_69_Vel_71
Time_Shift_30
Note_On_69_Vel_0
Time_Shift_19
Note_On_71_Vel_79
Time_Shift_66
Note_On_71_Vel_0
Time_Shift_2
Note_On_69_Vel_79
Time_Shift_6
Note_On_60_Vel_60
Time_Shift_12
Note_On_62_Vel_55
Time_Shift_4
Note_On_43_Vel_46
Note_On_55_Vel_49
Time_Shift_27
Note_On_60_Vel_0
Time_Shift_16
Note_On_55_Vel_0
Time_Shift_30
Note_On_43_Vel_0
Time_Shift_23
Note_On_62_Vel_0
Time_Shift_36
Note_On_69_Vel_0
Time_Shift_23
Note_On_71_Vel_79
Time_Shift_124
Note_On_71_Vel_0
Time_Shift_26
Note_On_60_Vel_62
Time_Shift_2
Note_On_55_Vel_58
Note_On_64_Vel_74
Time_Shift_2
Note_On_50_Vel_48
Note_On_52_Vel_48
Time_Shift_29
Note_On_60_Vel_0
Time_Shift_5
Note_On_55_Vel_0
Time_Shift_1
Note_On_50_Vel_0
Time_Shift_9
Note_On_52_Vel_0
Time_Shift_92
Note_On_64_Vel_0
Time_Shift_15
Note_On_66_Vel_70
Time_Shift_210
Note_On_67_Vel_71
Time_Shift_5
Note_On_66_Vel_0
Time_Shift_8
Note_On_59_Vel_52
Time_Shift_1
Note_On_55_Vel_46
Time_Shift_2
Note_On_62_Vel_55
Time_Shift_207
Note_On_62_Vel_0
Time_Shift_2
Note_On_67_Vel_0
Time_Shift_1
Note_On_59_Vel_0
Time_Shift_2
Note_On_55_Vel_0
Time_Shift_216
Note_On_74_Vel_103
Time_Shift_10
Note_On_55_Vel_71
Time_Shift_1
Note_On_59_Vel_73
Time_Shift_1
Note_On_62_Vel_76
Time_Shift_2
Note_On_71_Vel_78
Time_Shift_44
Note_On_62_Vel_0
Note_On_59_Vel_0
Time_Shift_3
Note_On_55_Vel_0
Time_Shift_27
Note_On_71_Vel_0
Time_Shift_171
Note_On_71_Vel_84
Time_Shift_21
Note_On_74_Vel_0
Time_Shift_41
Note_On_71_Vel_0
Time_Shift_8
Note_On_72_Vel_99
Time_Shift_1
Note_On_55_Vel_68
Time_Shift_6
Note_On_62_Vel_73
Time_Shift_1
Note_On_60_Vel_70
Time_Shift_25
Note_On_55_Vel_0
Time_Shift_2
Note_On_60_Vel_0
Time_Shift_3
Note_On_62_Vel_0
Time_Shift_208
Note_On_69_Vel_78
Time_Shift_74
Note_On_67_Vel_89
Time_Shift_4
Note_On_69_Vel_0
Time_Shift_7
Note_On_72_Vel_0
Time_Shift_1
Note_On_55_Vel_69
Note_On_71_Vel_70
Time_Shift_1
Note_On_62_Vel_73
Time_Shift_4
Note_On_59_Vel_66
Time_Shift_35
Note_On_59_Vel_0
Time_Shift_4
Note_On_55_Vel_0
Time_Shift_4
Note_On_62_Vel_0
Time_Shift_260
Note_On_55_Vel_75
Time_Shift_4
Note_On_62_Vel_70
Time_Shift_4
Note_On_59_Vel_65
Time_Shift_31
Note_On_67_Vel_0
Time_Shift_3
Note_On_62_Vel_0
Time_Shift_1
Note_On_59_Vel_0
Time_Shift_3
Note_On_71_Vel_0
Time_Shift_99
Note_On_71_Vel_90
Time_Shift_31
Note_On_71_Vel_0
Time_Shift_26
Note_On_55_Vel_0
Time_Shift_119
Note_On_57_Vel_82
Note_On_69_Vel_94
Time_Shift_1
Note_On_50_Vel_74
Time_Shift_30
Note_On_57_Vel_0
Note_On_50_Vel_0
Time_Shift_188
Note_On_69_Vel_0
Time_Shift_11
Note_On_66_Vel_72
Time_Shift_47
Note_On_66_Vel_0
Time_Shift_15
Note_On_57_Vel_75
Time_Shift_4
Note_On_50_Vel_71
Time_Shift_6
Note_On_67_Vel_90
Time_Shift_1
Note_On_55_Vel_63
Time_Shift_32
Note_On_57_Vel_0
Time_Shift_7
Note_On_50_Vel_0
Time_Shift_5
Note_On_55_Vel_0
Time_Shift_181
Note_On_64_Vel_74
Time_Shift_2
Note_On_67_Vel_0
Time_Shift_64
Note_On_64_Vel_0
Time_Shift_5
Note_On_50_Vel_63
Note_On_62_Vel_89
Time_Shift_4
Note_On_57_Vel_69
Time_Shift_10
Note_On_54_Vel_65
Time_Shift_18
Note_On_62_Vel_0
Time_Shift_4
Note_On_57_Vel_0
Time_Shift_3
Note_On_54_Vel_0
Time_Shift_2
Note_On_50_Vel_0
Time_Shift_123
Note_On_62_Vel_87
Time_Shift_68
Note_On_62_Vel_0
Time_Shift_5
Note_On_64_Vel_85
Time_Shift_62
Note_On_50_Vel_71
Note_On_57_Vel_72
Note_On_62_Vel_80
Time_Shift_6
Note_On_64_Vel_0
Time_Shift_22
Note_On_57_Vel_0
Time_Shift_5
Note_On_50_Vel_0
Time_Shift_1
Note_On_62_Vel_0
Time_Shift_119
Note_On_62_Vel_72
Time_Shift_38
Note_On_62_Vel_0
Time_Shift_134
Note_On_74_Vel_90
Time_Shift_22
Note_On_59_Vel_70
Note_On_62_Vel_69
Note_On_55_Vel_69
Time_Shift_1
Note_On_71_Vel_67
Time_Shift_36
Note_On_62_Vel_0
Note_On_59_Vel_0
Time_Shift_66
Note_On_71_Vel_0
Time_Shift_15
Note_On_55_Vel_0
Time_Shift_18
Note_On_74_Vel_0
Time_Shift_10
Note_On_71_Vel_93
Time_Shift_133
Note_On_71_Vel_0
Time_Shift_39
Note_On_60_Vel_76
Note_On_72_Vel_85
Time_Shift_3
Note_On_55_Vel_67
Note_On_62_Vel_70
Time_Shift_8
Note_On_48_Vel_56
Time_Shift_16
Note_On_60_Vel_0
Time_Shift_4
Note_On_62_Vel_0
Time_Shift_4
Note_On_55_Vel_0
Time_Shift_7
Note_On_72_Vel_0
Time_Shift_23
Note_On_74_Vel_88
Time_Shift_27
Note_On_48_Vel_0
Time_Shift_44
Note_On_72_Vel_87
Time_Shift_22
Note_On_74_Vel_0
Time_Shift_41
Note_On_69_Vel_93
Time_Shift_11
Note_On_72_Vel_0
Time_Shift_94
Note_On_67_Vel_90
Time_Shift_7
Note_On_71_Vel_69
Note_On_55_Vel_63
Time_Shift_1
Note_On_62_Vel_66
Time_Shift_4
Note_On_59_Vel_58
Time_Shift_9
Note_On_69_Vel_0
Time_Shift_25
Note_On_62_Vel_0
Time_Shift_2
Note_On_59_Vel_0
Time_Shift_7
Note_On_55_Vel_0
Time_Shift_25
Note_On_71_Vel_0
Time_Shift_250
Note_On_50_Vel_53
Time_Shift_1
Note_On_55_Vel_70
Time_Shift_3
Note_On_71_Vel_67
Time_Shift_2
Note_On_62_Vel_66
Note_On_59_Vel_67
Time_Shift_5
Note_On_67_Vel_0
Note_On_50_Vel_0
Time_Shift_31
Note_On_62_Vel_0
Time_Shift_3
Note_On_59_Vel_0
Time_Shift_7
Note_On_55_Vel_0
Time_Shift_97
Note_On_71_Vel_0
Time_Shift_7
Note_On_71_Vel_76
Time_Shift_35
Note_On_71_Vel_0
Time_Shift_143
Note_On_69_Vel_83
Time_Shift_3
Note_On_50_Vel_76
Time_Shift_1
Note_On_62_Vel_74
Note_On_57_Vel_75
Time_Shift_34
Note_On_69_Vel_0
Time_Shift_22
Note_On_71_Vel_80
Time_Shift_9
Note_On_57_Vel_0
Note_On_62_Vel_0
Time_Shift_7
Note_On_50_Vel_0
Time_Shift_56
Note_On_69_Vel_81
Time_Shift_7
Note_On_71_Vel_0
Time_Shift_32
Note_On_69_Vel_0
Time_Shift_19
Note_On_66_Vel_87
Time_Shift_83
Note_On_66_Vel_0
Time_Shift_14
Note_On_61_Vel_77
Note_On_67_Vel_87
Time_Shift_1
Note_On_57_Vel_67
Time_Shift_1
Note_On_55_Vel_74
Time_Shift_26
Note_On_67_Vel_0
Time_Shift_1
Note_On_61_Vel_0
Time_Shift_37
Note_On_55_Vel_0
Time_Shift_101
Note_On_64_Vel_91
Time_Shift_33
Note_On_64_Vel_0
Time_Shift_12
Note_On_57_Vel_0
Time_Shift_151
Note_On_62_Vel_79
Note_On_57_Vel_71
Time_Shift_3
Note_On_54_Vel_74
Time_Shift_187
Note_On_57_Vel_0
Time_Shift_1
Note_On_54_Vel_0
Time_Shift_234
Note_On_60_Vel_68
Time_Shift_1
Note_On_54_Vel_68
Time_Shift_6
Note_On_50_Vel_59
Time_Shift_100
Sustain_On
Time_Shift_23
Sustain_Off
Time_Shift_85
Sustain_On
Time_Shift_90
Sustain_Off
Time_Shift_1
Note_On_60_Vel_0
Time_Shift_3
Note_On_62_Vel_0
Time_Shift_2
Note_On_54_Vel_0
Time_Shift_1
Note_On_50_Vel_0
Time_Shift_145
Note_On_74_Vel_69
Time_Shift_8
Note_On_59_Vel_49
Time_Shift_1
Note_On_55_Vel_52
Time_Shift_2
Note_On_62_Vel_54
Time_Shift_50
Note_On_62_Vel_0
Time_Shift_6
Note_On_59_Vel_0
Time_Shift_3
Note_On_55_Vel_0
Time_Shift_174
Note_On_74_Vel_0
Time_Shift_14
Note_On_71_Vel_72
Time_Shift_52
Note_On_71_Vel_0
Time_Shift_12
Note_On_72_Vel_77
Time_Shift_9
Note_On_52_Vel_45
Time_Shift_5
Note_On_55_Vel_54
Note_On_60_Vel_53
Time_Shift_2
Note_On_62_Vel_53
Time_Shift_32
Note_On_62_Vel_0
Time_Shift_9
Note_On_55_Vel_0
Time_Shift_2
Note_On_60_Vel_0
Time_Shift_2
Note_On_52_Vel_0
Time_Shift_177
Note_On_72_Vel_0
Time_Shift_12
Note_On_69_Vel_70
Time_Shift_48
Note_On_69_Vel_0
Time_Shift_29
Note_On_67_Vel_81
Time_Shift_6
Note_On_55_Vel_67
Time_Shift_6
Note_On_59_Vel_62
Note_On_62_Vel_65
Time_Shift_30
Note_On_55_Vel_0
Time_Shift_3
Note_On_59_Vel_0
Time_Shift_4
Note_On_62_Vel_0
Time_Shift_286
Note_On_55_Vel_61
Note_On_59_Vel_65
Time_Shift_5
Note_On_62_Vel_59
Time_Shift_31
Note_On_67_Vel_0
Time_Shift_8
Note_On_59_Vel_0
Note_On_62_Vel_0
Time_Shift_3
Note_On_55_Vel_0
Time_Shift_107
Note_On_71_Vel_79
Time_Shift_35
Note_On_71_Vel_0
Time_Shift_131
Note_On_50_Vel_64
Time_Shift_1
Note_On_57_Vel_70
Time_Shift_8
Note_On_69_Vel_84
Time_Shift_23
Note_On_57_Vel_0
Time_Shift_4
Note_On_50_Vel_0
Time_Shift_205
Note_On_69_Vel_0
Time_Shift_12
Note_On_66_Vel_77
Time_Shift_47
Note_On_66_Vel_0
Time_Shift_5
Note_On_57_Vel_68
Time_Shift_1
Note_On_50_Vel_59
Time_Shift_9
Note_On_55_Vel_65
Time_Shift_3
Note_On_67_Vel_81
Time_Shift_21
Note_On_57_Vel_0
Time_Shift_6
Note_On_50_Vel_0
Time_Shift_9
Note_On_55_Vel_0
Time_Shift_200
Note_On_64_Vel_71
Time_Shift_35
Note_On_67_Vel_0
Time_Shift_15
Note_On_64_Vel_0
Time_Shift_9
Note_On_54_Vel_75
Time_Shift_2
Note_On_57_Vel_70
Time_Shift_2
Note_On_62_Vel_76
Time_Shift_34
Note_On_57_Vel_0
Time_Shift_3
Note_On_54_Vel_0
Time_Shift_6
Note_On_62_Vel_0
Time_Shift_145
Note_On_62_Vel_65
Time_Shift_46
Note_On_62_Vel_0
Time_Shift_18
Note_On_64_Vel_73
Time_Shift_45
Note_On_64_Vel_0
Time_Shift_8
Note_On_62_Vel_80
Time_Shift_1
Note_On_57_Vel_75
Time_Shift_1
Note_On_50_Vel_74
Time_Shift_30
Note_On_57_Vel_0
Note_On_62_Vel_0
Time_Shift_6
Note_On_50_Vel_0
Time_Shift_109
Note_On_62_Vel_75
Time_Shift_35
Note_On_62_Vel_0
Time_Shift_158
Note_On_74_Vel_80
Time_Shift_6
Note_On_62_Vel_57
Note_On_59_Vel_63
Time_Shift_1
Note_On_55_Vel_60
Time_Shift_39
Note_On_62_Vel_0
Time_Shift_7
Note_On_59_Vel_0
Time_Shift_7
Note_On_55_Vel_0
Time_Shift_125
Note_On_71_Vel_80
Time_Shift_12
Note_On_74_Vel_0
Time_Shift_144
Note_On_71_Vel_0
Time_Shift_12
Note_On_55_Vel_58
Time_Shift_2
Note_On_60_Vel_58
Time_Shift_3
Note_On_62_Vel_53
Time_Shift_2
Note_On_72_Vel_80
Time_Shift_37
Note_On_60_Vel_0
Time_Shift_7
Note_On_55_Vel_0
Time_Shift_12
Note_On_72_Vel_0
Time_Shift_4
Note_On_74_Vel_85
Time_Shift_75
Note_On_74_Vel_0
Time_Shift_10
Note_On_72_Vel_81
Time_Shift_4
Note_On_62_Vel_0
Time_Shift_59
Note_On_69_Vel_79
Time_Shift_2
Note_On_72_Vel_0
Time_Shift_75
Note_On_69_Vel_0
Time_Shift_14
Note_On_67_Vel_86
Time_Shift_2
Note_On_59_Vel_53
Note_On_62_Vel_62
Time_Shift_1
Note_On_55_Vel_60
Time_Shift_45
Note_On_62_Vel_0
Time_Shift_4
Note_On_55_Vel_0
Time_Shift_1
Note_On_59_Vel_0
Time_Shift_263
Note_On_62_Vel_72
Note_On_55_Vel_64
Time_Shift_6
Note_On_59_Vel_66
Time_Shift_29
Note_On_62_Vel_0
Time_Shift_7
Note_On_67_Vel_0
Time_Shift_2
Note_On_59_Vel_0
Time_Shift_98
Note_On_71_Vel_77
Time_Shift_7
Note_On_55_Vel_0
Time_Shift_27
Note_On_71_Vel_0
Time_Shift_141
Note_On_50_Vel_74
Time_Shift_4
Note_On_62_Vel_72
Note_On_69_Vel_79
Note_On_57_Vel_72
Time_Shift_33
Note_On_69_Vel_0
Time_Shift_23
Note_On_71_Vel_80
Time_Shift_10
Note_On_57_Vel_0
Note_On_62_Vel_0
Time_Shift_51
Note_On_69_Vel_76
Time_Shift_7
Note_On_71_Vel_0
Time_Shift_44
Note_On_69_Vel_0
Time_Shift_11
Note_On_66_Vel_81
Time_Shift_48
Note_On_50_Vel_0
Time_Shift_23
Note_On_66_Vel_0
Time_Shift_27
Note_On_52_Vel_56
Note_On_61_Vel_72
Note_On_67_Vel_81
Time_Shift_1
Note_On_55_Vel_70
Time_Shift_6
Note_On_57_Vel_60
Time_Shift_24
Note_On_61_Vel_0
Time_Shift_2
Note_On_67_Vel_0
Time_Shift_32
Note_On_52_Vel_0
Time_Shift_16
Note_On_55_Vel_0
Time_Shift_76
Note_On_64_Vel_85
Time_Shift_34
Note_On_64_Vel_0
Time_Shift_13
Note_On_57_Vel_0
Time_Shift_148
Note_On_57_Vel_71
Time_Shift_2
Note_On_54_Vel_72
Note_On_62_Vel_78
Time_Shift_38
Note_On_57_Vel_0
Time_Shift_17
Note_On_54_Vel_0
Time_Shift_358
Note_On_54_Vel_57
Time_Shift_1
Note_On_60_Vel_57
Time_Shift_5
Note_On_50_Vel_38
Time_Shift_35
Note_On_62_Vel_0
Time_Shift_33
Sustain_On
Time_Shift_211
Note_On_50_Vel_0
Time_Shift_2
Note_On_60_Vel_0
Time_Shift_3
Sustain_Off
Time_Shift_2
Note_On_54_Vel_0
Time_Shift_126
Note_On_62_Vel_80
Time_Shift_5
Note_On_59_Vel_61
Time_Shift_1
Note_On_55_Vel_60
Time_Shift_45
Note_On_59_Vel_0
Time_Shift_1
Note_On_55_Vel_0
Time_Shift_90
Note_On_62_Vel_0
Time_Shift_8
Note_On_67_Vel_88
Time_Shift_153
Note_On_71_Vel_95
Time_Shift_11
Note_On_55_Vel_57
Time_Shift_2
Note_On_62_Vel_68
Time_Shift_2
Note_On_59_Vel_59
Time_Shift_26
Note_On_67_Vel_0
Note_On_71_Vel_0
Time_Shift_8
Note_On_62_Vel_0
Time_Shift_13
Note_On_55_Vel_0
Time_Shift_36
Note_On_59_Vel_0
Time_Shift_74
Note_On_69_Vel_76
Time_Shift_56
Note_On_71_Vel_81
Time_Shift_6
Note_On_69_Vel_0
Time_Shift_43
Note_On_72_Vel_92
Time_Shift_2
Note_On_71_Vel_0
Time_Shift_22
Note_On_55_Vel_65
Note_On_60_Vel_62
Time_Shift_1
Note_On_62_Vel_62
Time_Shift_8
Note_On_43_Vel_59
Time_Shift_34
Note_On_60_Vel_0
Time_Shift_2
Note_On_62_Vel_0
Time_Shift_14
Note_On_55_Vel_0
Time_Shift_18
Note_On_43_Vel_0
Time_Shift_54
Note_On_76_Vel_95
Time_Shift_19
Note_On_72_Vel_0
Time_Shift_62
Note_On_76_Vel_0
Time_Shift_117
Note_On_74_Vel_97
Time_Shift_1
Note_On_55_Vel_61
Time_Shift_5
Note_On_60_Vel_60
Time_Shift_3
Note_On_62_Vel_68
Time_Shift_54
Note_On_76_Vel_51
Time_Shift_19
Note_On_76_Vel_0
Time_Shift_123
Note_On_74_Vel_0
Time_Shift_3
Note_On_62_Vel_0
Time_Shift_97
Note_On_60_Vel_0
Time_Shift_20
Note_On_69_Vel_81
Time_Shift_11
Note_On_55_Vel_0
Time_Shift_4
Note_On_62_Vel_60
Note_On_55_Vel_53
Note_On_60_Vel_50
Time_Shift_18
Note_On_69_Vel_0
Time_Shift_17
Note_On_62_Vel_0
Time_Shift_22
Note_On_60_Vel_0
Time_Shift_46
Note_On_55_Vel_0
Time_Shift_55
Note_On_69_Vel_80
Time_Shift_42
Note_On_69_Vel_0
Time_Shift_15
Note_On_71_Vel_86
Time_Shift_54
Note_On_71_Vel_0
Note_On_69_Vel_81
Time_Shift_17
Note_On_60_Vel_52
Time_Shift_1
Note_On_62_Vel_56
Time_Shift_4
Note_On_55_Vel_52
Time_Shift_29
Note_On_62_Vel_0
Time_Shift_1
Note_On_60_Vel_0
Note_On_55_Vel_0
Time_Shift_110
Note_On_69_Vel_0
Time_Shift_15
Note_On_71_Vel_91
Time_Shift_126
Note_On_71_Vel_0
Time_Shift_25
Note_On_60_Vel_70
Time_Shift_1
Note_On_62_Vel_74
Note_On_64_Vel_83
Time_Shift_2
Note_On_43_Vel_57
Note_On_55_Vel_65
Time_Shift_29
Note_On_60_Vel_0
Time_Shift_1
Note_On_62_Vel_0
Time_Shift_2
Note_On_43_Vel_0
Time_Shift_1
Note_On_55_Vel_0
Time_Shift_117
Note_On_66_Vel_81
Time_Shift_2
Note_On_64_Vel_0
Time_Shift_162
Note_On_66_Vel_0
Time_Shift_1
Note_On_67_Vel_81
Time_Shift_3
Note_On_52_Vel_49
Time_Shift_2
Note_On_55_Vel_59
Time_Shift_1
Note_On_60_Vel_55
Time_Shift_1
Note_On_62_Vel_60
Time_Shift_24
Note_On_67_Vel_0
Time_Shift_1
Note_On_60_Vel_0
Time_Shift_5
Note_On_62_Vel_0
Time_Shift_1
Note_On_55_Vel_0
Time_Shift_34
Note_On_52_Vel_0
Time_Shift_90
Note_On_67_Vel_70
Time_Shift_32
Note_On_67_Vel_0
Time_Shift_180
Note_On_62_Vel_82
Time_Shift_2
Note_On_59_Vel_59
Time_Shift_3
Note_On_55_Vel_54
Time_Shift_42
Note_On_59_Vel_0
Time_Shift_4
Note_On_55_Vel_0
Time_Shift_113
Note_On_62_Vel_0
Time_Shift_6
Note_On_67_Vel_89
Time_Shift_160
Note_On_71_Vel_94
Time_Shift_4
Note_On_59_Vel_66
Time_Shift_2
Note_On_55_Vel_61
Time_Shift_1
Note_On_62_Vel_71
Time_Shift_2
Note_On_67_Vel_0
Time_Shift_34
Note_On_62_Vel_0
Time_Shift_5
Note_On_55_Vel_0
Time_Shift_7
Note_On_59_Vel_0
Time_Shift_81
Note_On_71_Vel_0
Time_Shift_33
Note_On_69_Vel_80
Time_Shift_60
Note_On_71_Vel_77
Time_Shift_45
Note_On_69_Vel_0
Time_Shift_11
Note_On_71_Vel_0
Time_Shift_6
Note_On_72_Vel_101
Time_Shift_16
Note_On_62_Vel_72
Note_On_55_Vel_69
Note_On_67_Vel_70
Note_On_43_Vel_65
Time_Shift_1
Note_On_60_Vel_69
Time_Shift_25
Note_On_62_Vel_0
Time_Shift_5
Note_On_55_Vel_0
Time_Shift_36
Note_On_67_Vel_0
Time_Shift_7
Note_On_43_Vel_0
Time_Shift_78
Note_On_76_Vel_99
Time_Shift_17
Note_On_72_Vel_0
Time_Shift_5
Note_On_60_Vel_0
Time_Shift_54
Note_On_76_Vel_0
Time_Shift_79
Note_On_74_Vel_99
Time_Shift_5
Note_On_60_Vel_78
Time_Shift_4
Note_On_55_Vel_76
Time_Shift_1
Note_On_72_Vel_78
Note_On_62_Vel_80
Time_Shift_10
Note_On_43_Vel_69
Time_Shift_139
Note_On_43_Vel_0
Time_Shift_15
Note_On_72_Vel_0
Time_Shift_26
Note_On_62_Vel_0
Note_On_55_Vel_0
Time_Shift_13
Note_On_74_Vel_0
Time_Shift_7
Note_On_60_Vel_0
Time_Shift_105
Note_On_69_Vel_94
Time_Shift_6
Note_On_62_Vel_81
Note_On_55_Vel_75
Time_Shift_1
Note_On_60_Vel_75
Time_Shift_2
Note_On_48_Vel_69
Time_Shift_23
Note_On_69_Vel_0
Time_Shift_7
Note_On_62_Vel_0
Time_Shift_18
Note_On_60_Vel_0
Time_Shift_15
Note_On_48_Vel_0
Time_Shift_97
Note_On_69_Vel_87
Time_Shift_26
Note_On_55_Vel_0
Time_Shift_29
Note_On_71_Vel_88
Time_Shift_5
Note_On_69_Vel_0
Time_Shift_69
Note_On_69_Vel_99
Time_Shift_7
Note_On_62_Vel_76
Note_On_43_Vel_65
Time_Shift_1
Note_On_55_Vel_68
Note_On_60_Vel_65
Time_Shift_1
Note_On_71_Vel_0
Time_Shift_37
Note_On_60_Vel_0
Time_Shift_1
Note_On_62_Vel_0
Time_Shift_1
Note_On_55_Vel_0
Time_Shift_33
Note_On_43_Vel_0
Time_Shift_98
Note_On_71_Vel_98
Time_Shift_12
Note_On_69_Vel_0
Time_Shift_161
Note_On_72_Vel_82
Note_On_60_Vel_77
Time_Shift_3
Note_On_55_Vel_67
Note_On_62_Vel_81
Note_On_64_Vel_91
Time_Shift_5
Note_On_43_Vel_65
Time_Shift_31
Note_On_71_Vel_0
Time_Shift_1
Note_On_60_Vel_0
Time_Shift_1
Note_On_62_Vel_0
Time_Shift_88
Note_On_43_Vel_0
Time_Shift_30
Note_On_72_Vel_0
Time_Shift_18
Note_On_66_Vel_93
Time_Shift_19
Note_On_64_Vel_0
Time_Shift_2
Note_On_55_Vel_0
Time_Shift_201
Note_On_67_Vel_94
Time_Shift_9
Note_On_59_Vel_74
Time_Shift_1
Note_On_62_Vel_74
Note_On_55_Vel_73
Time_Shift_52
Note_On_66_Vel_0
Time_Shift_290
Sustain_On
Time_Shift_149
Note_On_59_Vel_0
Time_Shift_1
Note_On_55_Vel_0
Time_Shift_1
Note_On_62_Vel_0
Time_Shift_1
Sustain_Off
Time_Shift_1407
Note_On_67_Vel_0
