Ticks_Per_Beat_384
Tempo_500000
Time_Shift_7
Sustain_On
Time_Shift_864
Note_On_63_Vel_59
Time_Shift_2
Note_On_60_Vel_38
Time_Shift_32
Note_On_65_Vel_47
Time_Shift_4
Note_On_56_Vel_41
Time_Shift_1
Note_On_63_Vel_0
Time_Shift_3
Note_On_56_Vel_0
Sustain_Off
Time_Shift_13
Note_On_44_Vel_38
Time_Shift_3
Note_On_60_Vel_0
Time_Shift_42
Note_On_63_Vel_57
Time_Shift_42
Sustain_On
Time_Shift_16
Note_On_65_Vel_0
Time_Shift_100
Note_On_62_Vel_58
Time_Shift_2
Note_On_60_Vel_49
Time_Shift_97
Note_On_63_Vel_0
Time_Shift_8
Note_On_63_Vel_67
Time_Shift_8
Note_On_60_Vel_0
Time_Shift_9
Note_On_60_Vel_43
Time_Shift_1
Note_On_51_Vel_47
Time_Shift_90
Note_On_72_Vel_68
Time_Shift_4
Note_On_50_Vel_50
Time_Shift_14
Sustain_Off
Time_Shift_28
Note_On_62_Vel_0
Time_Shift_7
Note_On_51_Vel_0
Time_Shift_2
Note_On_63_Vel_0
Time_Shift_16
Note_On_50_Vel_0
Time_Shift_21
Note_On_44_Vel_0
Time_Shift_7
Note_On_60_Vel_0
Time_Shift_10
Note_On_70_Vel_66
Time_Shift_1
Note_On_60_Vel_46
Time_Shift_88
Note_On_68_Vel_63
Time_Shift_25
Note_On_70_Vel_0
Time_Shift_9
Note_On_60_Vel_0
Time_Shift_6
Note_On_72_Vel_0
Time_Shift_56
Note_On_68_Vel_0
Time_Shift_2
Note_On_46_Vel_40
Time_Shift_5
Note_On_67_Vel_60
Time_Shift_106
Note_On_77_Vel_56
Time_Shift_6
Note_On_61_Vel_40
Time_Shift_24
Note_On_46_Vel_0
Time_Shift_46
Note_On_67_Vel_0
Time_Shift_21
Note_On_77_Vel_0
Time_Shift_1
Note_On_51_Vel_43
Time_Shift_9
Note_On_75_Vel_51
Time_Shift_38
Note_On_61_Vel_0
Time_Shift_20
Note_On_51_Vel_0
Time_Shift_34
Note_On_75_Vel_0
Time_Shift_25
Note_On_50_Vel_35
Time_Shift_7
Note_On_72_Vel_38
Time_Shift_2
Note_On_75_Vel_50
Time_Shift_43
Sustain_On
Time_Shift_94
Note_On_73_Vel_36
Time_Shift_3
Note_On_61_Vel_34
Time_Shift_122
Note_On_51_Vel_39
Time_Shift_70
Note_On_63_Vel_58
Time_Shift_20
Note_On_65_Vel_46
Time_Shift_26
Note_On_44_Vel_48
Time_Shift_22
Sustain_Off
Time_Shift_8
Note_On_51_Vel_0
Note_On_61_Vel_0
Time_Shift_1
Note_On_50_Vel_0
Time_Shift_3
Note_On_63_Vel_0
Note_On_75_Vel_0
Time_Shift_6
Note_On_63_Vel_71
Time_Shift_1
Note_On_75_Vel_58
Time_Shift_51
Note_On_65_Vel_0
Time_Shift_11
Note_On_72_Vel_0
Time_Shift_7
Note_On_73_Vel_0
Time_Shift_40
Note_On_63_Vel_0
Time_Shift_3
Note_On_51_Vel_48
Time_Shift_2
Note_On_60_Vel_58
Time_Shift_9
Note_On_75_Vel_0
Time_Shift_8
Note_On_44_Vel_0
Time_Shift_23
Note_On_51_Vel_0
Time_Shift_49
Note_On_51_Vel_57
Time_Shift_6
Note_On_75_Vel_60
Note_On_63_Vel_76
Time_Shift_24
Note_On_60_Vel_0
Time_Shift_58
Note_On_63_Vel_0
Time_Shift_8
Note_On_72_Vel_71
Time_Shift_2
Note_On_51_Vel_0
Note_On_50_Vel_57
Time_Shift_88
Note_On_70_Vel_73
Time_Shift_6
Note_On_60_Vel_54
Time_Shift_5
Note_On_50_Vel_0
Time_Shift_7
Note_On_75_Vel_0
Time_Shift_3
Note_On_72_Vel_0
Time_Shift_71
Note_On_68_Vel_70
Time_Shift_24
Note_On_60_Vel_0
Time_Shift_4
Note_On_70_Vel_0
Time_Shift_48
Note_On_46_Vel_57
Time_Shift_18
Note_On_68_Vel_0
Time_Shift_1
Note_On_67_Vel_69
Time_Shift_94
Note_On_77_Vel_70
Time_Shift_6
Note_On_46_Vel_0
Time_Shift_6
Note_On_55_Vel_36
Time_Shift_3
Note_On_61_Vel_52
Time_Shift_45
Note_On_67_Vel_0
Time_Shift_31
Sustain_On
Time_Shift_6
Note_On_75_Vel_60
Note_On_51_Vel_43
Time_Shift_86
Note_On_75_Vel_0
Time_Shift_9
Note_On_75_Vel_71
Time_Shift_106
Note_On_55_Vel_0
Time_Shift_8
Note_On_61_Vel_0
Time_Shift_5
Note_On_61_Vel_50
Time_Shift_72
Note_On_51_Vel_0
Time_Shift_7
Note_On_51_Vel_50
Note_On_75_Vel_0
Time_Shift_8
Note_On_75_Vel_69
Time_Shift_52
Sustain_Off
Time_Shift_25
Note_On_75_Vel_0
Time_Shift_4
Note_On_48_Vel_59
Time_Shift_6
Note_On_75_Vel_77
Time_Shift_18
Note_On_61_Vel_0
Note_On_51_Vel_0
Time_Shift_18
Note_On_77_Vel_0
Time_Shift_69
Sustain_On
Time_Shift_4
Note_On_63_Vel_59
Time_Shift_16
Note_On_61_Vel_50
Time_Shift_11
Note_On_61_Vel_0
Time_Shift_90
Note_On_56_Vel_69
Time_Shift_2
Note_On_75_Vel_0
Time_Shift_4
Note_On_75_Vel_79
Time_Shift_96
Note_On_48_Vel_0
Time_Shift_11
Note_On_48_Vel_63
Time_Shift_17
Note_On_84_Vel_77
Time_Shift_3
Sustain_Off
Time_Shift_9
Note_On_56_Vel_0
Note_On_75_Vel_0
Time_Shift_1
Note_On_63_Vel_0
Time_Shift_74
Sustain_On
Time_Shift_35
Note_On_64_Vel_66
Time_Shift_3
Note_On_61_Vel_49
Time_Shift_5
Note_On_79_Vel_80
Time_Shift_115
Note_On_56_Vel_62
Time_Shift_63
Note_On_79_Vel_0
Note_On_84_Vel_0
Note_On_64_Vel_0
Time_Shift_5
Sustain_Off
Time_Shift_12
Note_On_48_Vel_0
Time_Shift_11
Note_On_49_Vel_65
Time_Shift_18
Note_On_80_Vel_77
Time_Shift_9
Note_On_56_Vel_0
Time_Shift_23
Note_On_61_Vel_0
Time_Shift_8
Sustain_On
Time_Shift_55
Note_On_65_Vel_56
Time_Shift_2
Note_On_64_Vel_54
Time_Shift_1
Note_On_61_Vel_52
Time_Shift_5
Note_On_76_Vel_74
Time_Shift_81
Note_On_58_Vel_59
Time_Shift_16
Note_On_67_Vel_34
Time_Shift_9
Note_On_67_Vel_0
Time_Shift_32
Note_On_76_Vel_0
Time_Shift_1
Note_On_49_Vel_0
Time_Shift_1
Sustain_Off
Time_Shift_4
Note_On_64_Vel_0
Time_Shift_31
Note_On_61_Vel_0
Note_On_65_Vel_0
Note_On_80_Vel_0
Time_Shift_20
Note_On_77_Vel_76
Note_On_60_Vel_45
Time_Shift_1
Note_On_56_Vel_67
Time_Shift_10
Note_On_58_Vel_0
Time_Shift_23
Sustain_On
Time_Shift_68
Note_On_72_Vel_74
Time_Shift_14
Note_On_64_Vel_52
Time_Shift_1
Note_On_65_Vel_53
Time_Shift_87
Note_On_58_Vel_58
Time_Shift_49
Sustain_Off
Time_Shift_1
Note_On_72_Vel_0
Time_Shift_2
Note_On_56_Vel_0
Note_On_65_Vel_0
Time_Shift_3
Note_On_77_Vel_0
Time_Shift_5
Note_On_60_Vel_0
Time_Shift_41
Note_On_49_Vel_55
Time_Shift_2
Note_On_73_Vel_67
Time_Shift_19
Note_On_64_Vel_0
Sustain_On
Time_Shift_23
Note_On_58_Vel_0
Time_Shift_66
Note_On_65_Vel_52
Time_Shift_22
Note_On_61_Vel_48
Time_Shift_79
Note_On_67_Vel_67
Time_Shift_1
Note_On_58_Vel_60
Time_Shift_108
Note_On_58_Vel_0
Time_Shift_11
Note_On_58_Vel_49
Time_Shift_3
Note_On_68_Vel_61
Note_On_53_Vel_43
Time_Shift_16
Sustain_Off
Note_On_61_Vel_0
Time_Shift_2
Note_On_49_Vel_0
Note_On_65_Vel_0
Time_Shift_1
Note_On_73_Vel_0
Note_On_67_Vel_0
Time_Shift_21
Note_On_58_Vel_0
Time_Shift_85
Note_On_68_Vel_0
Time_Shift_3
Note_On_72_Vel_64
Time_Shift_11
Note_On_61_Vel_44
Time_Shift_55
Sustain_On
Time_Shift_43
Note_On_70_Vel_62
Time_Shift_6
Note_On_55_Vel_40
Time_Shift_4
Note_On_55_Vel_0
Time_Shift_62
Sustain_Off
Time_Shift_1
Note_On_72_Vel_0
Time_Shift_3
Note_On_61_Vel_0
Time_Shift_3
Note_On_53_Vel_0
Time_Shift_57
Note_On_67_Vel_46
Time_Shift_36
Sustain_On
Time_Shift_95
Note_On_65_Vel_48
Time_Shift_12
Note_On_67_Vel_0
Time_Shift_6
Note_On_61_Vel_33
Time_Shift_113
Note_On_68_Vel_58
Time_Shift_13
Note_On_58_Vel_39
Time_Shift_109
Sustain_Off
Time_Shift_16
Note_On_65_Vel_0
Note_On_61_Vel_0
Time_Shift_1
Note_On_67_Vel_53
Time_Shift_2
Note_On_68_Vel_0
Time_Shift_7
Note_On_58_Vel_0
Time_Shift_2
Note_On_70_Vel_0
Time_Shift_32
Note_On_55_Vel_40
Time_Shift_45
Sustain_On
Time_Shift_79
Note_On_62_Vel_42
Time_Shift_2
Note_On_61_Vel_39
Time_Shift_140
Note_On_58_Vel_39
Time_Shift_3
Note_On_65_Vel_45
Time_Shift_5
Note_On_68_Vel_34
Time_Shift_9
Note_On_68_Vel_0
Time_Shift_66
Note_On_63_Vel_56
Time_Shift_41
Note_On_65_Vel_0
Time_Shift_5
Note_On_65_Vel_47
Time_Shift_14
Sustain_Off
Time_Shift_7
Note_On_61_Vel_0
Note_On_55_Vel_0
Time_Shift_1
Note_On_58_Vel_0
Time_Shift_15
Note_On_44_Vel_51
Time_Shift_4
Note_On_67_Vel_0
Time_Shift_6
Note_On_63_Vel_0
Time_Shift_48
Note_On_65_Vel_0
Time_Shift_31
Sustain_On
Time_Shift_77
Note_On_62_Vel_0
Time_Shift_9
Note_On_62_Vel_58
Time_Shift_2
Note_On_60_Vel_49
Time_Shift_102
Note_On_63_Vel_66
Time_Shift_10
Note_On_60_Vel_0
Time_Shift_9
Note_On_60_Vel_46
Note_On_51_Vel_51
Time_Shift_62
Sustain_Off
Time_Shift_1
Note_On_60_Vel_0
Note_On_62_Vel_0
Time_Shift_3
Note_On_44_Vel_0
Time_Shift_4
Note_On_63_Vel_0
Time_Shift_1
Note_On_51_Vel_0
Time_Shift_19
Note_On_72_Vel_61
Time_Shift_14
Note_On_50_Vel_47
Time_Shift_40
Sustain_On
Time_Shift_51
Note_On_70_Vel_64
Time_Shift_14
Note_On_60_Vel_46
Time_Shift_82
Note_On_68_Vel_66
Time_Shift_1
Note_On_67_Vel_55
Time_Shift_6
Note_On_50_Vel_0
Note_On_67_Vel_0
Time_Shift_12
Note_On_51_Vel_34
Time_Shift_32
Note_On_70_Vel_0
Time_Shift_39
Note_On_46_Vel_47
Time_Shift_6
Note_On_67_Vel_58
Time_Shift_18
Note_On_51_Vel_0
Note_On_60_Vel_0
Time_Shift_17
Sustain_Off
Time_Shift_6
Note_On_68_Vel_0
Time_Shift_16
Note_On_72_Vel_0
Time_Shift_54
Note_On_77_Vel_66
Time_Shift_14
Note_On_61_Vel_45
Time_Shift_5
Note_On_56_Vel_26
Time_Shift_18
Note_On_67_Vel_0
Time_Shift_18
Note_On_46_Vel_0
Time_Shift_49
Note_On_51_Vel_43
Time_Shift_1
Note_On_75_Vel_55
Time_Shift_17
Note_On_77_Vel_0
Time_Shift_16
Note_On_56_Vel_0
Time_Shift_38
Note_On_61_Vel_0
Time_Shift_25
Note_On_51_Vel_0
Time_Shift_6
Note_On_75_Vel_0
Time_Shift_27
Note_On_75_Vel_59
Time_Shift_6
Note_On_50_Vel_37
Time_Shift_44
Sustain_On
Time_Shift_94
Note_On_73_Vel_41
Time_Shift_2
Note_On_72_Vel_36
Time_Shift_1
Note_On_61_Vel_38
Time_Shift_2
Note_On_73_Vel_0
Time_Shift_110
Note_On_51_Vel_45
Time_Shift_46
Note_On_63_Vel_71
Time_Shift_28
Note_On_65_Vel_48
Time_Shift_48
Note_On_44_Vel_51
Time_Shift_2
Sustain_Off
Time_Shift_5
Note_On_44_Vel_0
Note_On_63_Vel_0
Note_On_75_Vel_0
Time_Shift_5
Note_On_63_Vel_64
Time_Shift_1
Note_On_75_Vel_68
Time_Shift_6
Note_On_51_Vel_0
Time_Shift_3
Note_On_61_Vel_0
Time_Shift_1
Note_On_50_Vel_0
Time_Shift_43
Note_On_65_Vel_0
Time_Shift_61
Note_On_74_Vel_57
Time_Shift_1
Note_On_63_Vel_0
Time_Shift_1
Note_On_72_Vel_0
Time_Shift_12
Note_On_72_Vel_53
Time_Shift_1
Note_On_60_Vel_62
Time_Shift_87
Note_On_63_Vel_75
Time_Shift_6
Note_On_51_Vel_59
Time_Shift_36
Note_On_60_Vel_0
Time_Shift_48
Note_On_51_Vel_0
Time_Shift_2
Note_On_72_Vel_0
Time_Shift_6
Note_On_63_Vel_0
Time_Shift_3
Note_On_72_Vel_73
Time_Shift_12
Note_On_50_Vel_60
Time_Shift_2
Note_On_75_Vel_0
Time_Shift_81
Note_On_70_Vel_79
Time_Shift_12
Note_On_74_Vel_0
Time_Shift_11
Note_On_60_Vel_55
Time_Shift_19
Note_On_50_Vel_0
Time_Shift_53
Note_On_68_Vel_74
Time_Shift_3
Note_On_67_Vel_63
Time_Shift_4
Note_On_51_Vel_56
Time_Shift_2
Note_On_67_Vel_0
Time_Shift_11
Note_On_70_Vel_0
Time_Shift_3
Note_On_60_Vel_0
Time_Shift_63
Note_On_51_Vel_0
Time_Shift_13
Note_On_67_Vel_70
Time_Shift_1
Note_On_46_Vel_59
Time_Shift_16
Note_On_68_Vel_0
Time_Shift_16
Note_On_72_Vel_0
Time_Shift_80
Note_On_77_Vel_71
Time_Shift_12
Note_On_55_Vel_42
Time_Shift_3
Note_On_61_Vel_53
Note_On_46_Vel_0
Time_Shift_46
Note_On_67_Vel_0
Time_Shift_32
Note_On_51_Vel_48
Time_Shift_8
Note_On_75_Vel_52
Time_Shift_7
Note_On_77_Vel_0
Time_Shift_50
Note_On_61_Vel_0
Time_Shift_7
Note_On_55_Vel_0
Time_Shift_31
Sustain_On
Time_Shift_8
Note_On_75_Vel_0
Time_Shift_3
Note_On_50_Vel_53
Time_Shift_7
Note_On_75_Vel_72
Time_Shift_148
Note_On_73_Vel_53
Time_Shift_9
Note_On_61_Vel_54
Time_Shift_32
Note_On_51_Vel_0
Time_Shift_10
Note_On_51_Vel_51
Time_Shift_44
Note_On_75_Vel_0
Time_Shift_11
Note_On_75_Vel_68
Time_Shift_25
Note_On_77_Vel_69
Time_Shift_41
Note_On_75_Vel_0
Time_Shift_2
Note_On_47_Vel_66
Time_Shift_9
Note_On_75_Vel_69
Time_Shift_15
Note_On_61_Vel_0
Note_On_51_Vel_0
Time_Shift_2
Note_On_50_Vel_0
Sustain_Off
Time_Shift_3
Note_On_73_Vel_0
Time_Shift_15
Note_On_77_Vel_0
Time_Shift_72
Note_On_47_Vel_0
Time_Shift_56
Note_On_74_Vel_79
Note_On_63_Vel_65
Time_Shift_103
Note_On_75_Vel_0
Time_Shift_8
Note_On_57_Vel_68
Time_Shift_2
Note_On_75_Vel_80
Time_Shift_17
Note_On_74_Vel_0
Time_Shift_57
Note_On_63_Vel_0
Time_Shift_23
Note_On_73_Vel_73
Time_Shift_8
Note_On_73_Vel_0
Time_Shift_2
Note_On_54_Vel_68
Time_Shift_3
Note_On_76_Vel_79
Time_Shift_18
Note_On_57_Vel_0
Time_Shift_30
Note_On_75_Vel_0
Time_Shift_47
Sustain_On
Time_Shift_3
Note_On_63_Vel_65
Time_Shift_9
Note_On_77_Vel_88
Time_Shift_11
Note_On_77_Vel_0
Time_Shift_2
Note_On_75_Vel_65
Time_Shift_56
Note_On_57_Vel_57
Time_Shift_39
Note_On_78_Vel_81
Time_Shift_22
Sustain_Off
Time_Shift_8
Note_On_76_Vel_0
Note_On_54_Vel_0
Note_On_63_Vel_0
Time_Shift_1
Note_On_57_Vel_0
Time_Shift_25
Note_On_75_Vel_0
Time_Shift_54
Note_On_79_Vel_81
Time_Shift_6
Note_On_46_Vel_60
Time_Shift_2
Sustain_On
Time_Shift_61
Note_On_78_Vel_0
Time_Shift_79
Note_On_91_Vel_82
Time_Shift_1
Note_On_63_Vel_72
Time_Shift_107
Note_On_86_Vel_83
Time_Shift_9
Note_On_58_Vel_59
Time_Shift_106
Note_On_55_Vel_67
Time_Shift_2
Note_On_87_Vel_73
Time_Shift_88
Note_On_63_Vel_0
Time_Shift_7
Note_On_55_Vel_0
Note_On_58_Vel_0
Time_Shift_3
Note_On_63_Vel_73
Time_Shift_1
Note_On_82_Vel_75
Note_On_58_Vel_55
Time_Shift_6
Note_On_55_Vel_58
Time_Shift_67
Note_On_58_Vel_0
Time_Shift_8
Note_On_55_Vel_0
Time_Shift_2
Note_On_58_Vel_64
Time_Shift_2
Note_On_55_Vel_53
Time_Shift_22
Note_On_84_Vel_81
Time_Shift_104
Note_On_55_Vel_0
Note_On_58_Vel_0
Note_On_79_Vel_0
Time_Shift_2
Note_On_63_Vel_0
Time_Shift_1
Note_On_46_Vel_0
Note_On_86_Vel_0
Time_Shift_1
Note_On_91_Vel_0
Note_On_87_Vel_0
Time_Shift_1
Note_On_84_Vel_0
Note_On_58_Vel_62
Time_Shift_2
Sustain_Off
Note_On_79_Vel_76
Time_Shift_1
Note_On_55_Vel_48
Time_Shift_16
Note_On_82_Vel_0
Time_Shift_23
Note_On_58_Vel_0
Time_Shift_53
Sustain_On
Time_Shift_23
Note_On_55_Vel_0
Time_Shift_9
Note_On_55_Vel_42
Note_On_62_Vel_53
Time_Shift_2
Note_On_82_Vel_80
Time_Shift_120
Note_On_80_Vel_77
Time_Shift_4
Note_On_58_Vel_54
Time_Shift_1
Note_On_70_Vel_52
Time_Shift_10
Note_On_70_Vel_0
Time_Shift_117
Note_On_77_Vel_72
Time_Shift_18
Note_On_56_Vel_46
Time_Shift_119
Note_On_62_Vel_0
Time_Shift_3
Note_On_72_Vel_70
Time_Shift_1
Note_On_62_Vel_42
Time_Shift_134
Note_On_58_Vel_0
Note_On_62_Vel_0
Time_Shift_7
Note_On_74_Vel_77
Time_Shift_2
Note_On_58_Vel_47
Time_Shift_2
Note_On_62_Vel_36
Time_Shift_102
Sustain_Off
Time_Shift_5
Note_On_79_Vel_0
Time_Shift_1
Note_On_72_Vel_0
Note_On_82_Vel_0
Note_On_55_Vel_0
Note_On_56_Vel_0
Time_Shift_1
Note_On_74_Vel_0
Note_On_62_Vel_0
Note_On_77_Vel_0
Time_Shift_18
Note_On_80_Vel_0
Time_Shift_16
Note_On_58_Vel_0
Time_Shift_5
Note_On_51_Vel_37
Time_Shift_10
Note_On_75_Vel_59
Time_Shift_205
Note_On_70_Vel_60
Time_Shift_2
Note_On_55_Vel_40
Time_Shift_5
Note_On_67_Vel_40
Time_Shift_4
Note_On_58_Vel_32
Time_Shift_7
Note_On_67_Vel_0
Time_Shift_92
Sustain_On
Time_Shift_55
Note_On_71_Vel_60
Time_Shift_2
Note_On_63_Vel_39
Time_Shift_135
Note_On_55_Vel_0
Note_On_58_Vel_0
Time_Shift_3
Note_On_72_Vel_65
Time_Shift_1
Note_On_55_Vel_34
Note_On_58_Vel_43
Time_Shift_148
Note_On_73_Vel_63
Time_Shift_2
Note_On_67_Vel_48
Time_Shift_130
Note_On_63_Vel_0
Time_Shift_5
Note_On_63_Vel_46
Time_Shift_2
Note_On_74_Vel_63
Time_Shift_108
Note_On_75_Vel_0
Time_Shift_17
Sustain_Off
Time_Shift_6
Note_On_72_Vel_0
Time_Shift_2
Note_On_73_Vel_0
Time_Shift_3
Note_On_70_Vel_0
Time_Shift_1
Note_On_55_Vel_0
Time_Shift_3
Note_On_58_Vel_0
Note_On_51_Vel_0
Note_On_63_Vel_0
Time_Shift_3
Note_On_72_Vel_49
Time_Shift_3
Note_On_75_Vel_53
Time_Shift_1
Note_On_71_Vel_0
Time_Shift_2
Note_On_60_Vel_46
Time_Shift_28
Note_On_74_Vel_0
Time_Shift_152
Note_On_66_Vel_38
Time_Shift_3
Note_On_76_Vel_56
Time_Shift_30
Note_On_67_Vel_0
Time_Shift_92
Note_On_76_Vel_0
Time_Shift_8
Note_On_77_Vel_62
Time_Shift_2
Note_On_76_Vel_60
Note_On_63_Vel_39
Time_Shift_35
Note_On_76_Vel_0
Time_Shift_1
Note_On_72_Vel_0
Time_Shift_8
Note_On_66_Vel_0
Note_On_75_Vel_0
Time_Shift_74
Note_On_60_Vel_0
Time_Shift_36
Note_On_78_Vel_65
Time_Shift_1
Note_On_58_Vel_32
Time_Shift_24
Note_On_77_Vel_0
Time_Shift_26
Sustain_On
Time_Shift_78
Note_On_66_Vel_38
Time_Shift_91
Note_On_63_Vel_0
Time_Shift_5
Note_On_63_Vel_51
Time_Shift_122
Note_On_76_Vel_48
Time_Shift_3
Note_On_57_Vel_50
Time_Shift_8
Note_On_76_Vel_0
Time_Shift_42
Sustain_Off
Time_Shift_2
Note_On_63_Vel_0
Time_Shift_2
Note_On_58_Vel_0
Time_Shift_54
Sustain_On
Time_Shift_14
Note_On_65_Vel_45
Time_Shift_1
Note_On_66_Vel_0
Time_Shift_3
Note_On_76_Vel_69
Time_Shift_20
Note_On_78_Vel_0
Time_Shift_101
Note_On_63_Vel_52
Time_Shift_3
Note_On_77_Vel_75
Time_Shift_93
Note_On_57_Vel_0
Time_Shift_13
Sustain_Off
Time_Shift_44
Note_On_76_Vel_0
Time_Shift_6
Note_On_58_Vel_41
Time_Shift_7
Note_On_84_Vel_66
Time_Shift_2
Note_On_58_Vel_0
Time_Shift_16
Note_On_63_Vel_0
Time_Shift_22
Note_On_65_Vel_0
Time_Shift_47
Sustain_On
Time_Shift_42
Note_On_66_Vel_48
Time_Shift_5
Note_On_58_Vel_35
Time_Shift_100
Note_On_63_Vel_51
Time_Shift_21
Note_On_58_Vel_0
Time_Shift_85
Note_On_57_Vel_51
Time_Shift_119
Note_On_65_Vel_48
Time_Shift_16
Note_On_75_Vel_66
Time_Shift_88
Note_On_63_Vel_0
Time_Shift_6
Note_On_63_Vel_59
Time_Shift_68
Note_On_80_Vel_66
Time_Shift_33
Note_On_66_Vel_0
Time_Shift_3
Note_On_63_Vel_0
Note_On_57_Vel_0
Note_On_75_Vel_0
Time_Shift_1
Note_On_78_Vel_73
Time_Shift_1
Note_On_65_Vel_0
Time_Shift_3
Note_On_77_Vel_0
Time_Shift_5
Note_On_53_Vel_41
Note_On_77_Vel_62
Sustain_Off
Time_Shift_33
Note_On_84_Vel_0
Sustain_On
Time_Shift_69
Note_On_78_Vel_0
Time_Shift_8
Note_On_77_Vel_0
Time_Shift_11
Note_On_77_Vel_75
Time_Shift_1
Note_On_65_Vel_42
Time_Shift_96
Note_On_60_Vel_55
Time_Shift_10
Note_On_75_Vel_73
Time_Shift_102
Note_On_60_Vel_0
Time_Shift_3
Note_On_77_Vel_0
Time_Shift_6
Note_On_77_Vel_63
Time_Shift_24
Note_On_58_Vel_41
Time_Shift_1
Note_On_80_Vel_0
Time_Shift_46
Note_On_75_Vel_0
Time_Shift_63
Note_On_72_Vel_64
Time_Shift_117
Note_On_75_Vel_59
Time_Shift_1
Note_On_61_Vel_35
Time_Shift_35
Note_On_72_Vel_0
Note_On_53_Vel_0
Time_Shift_14
Note_On_65_Vel_0
Time_Shift_8
Note_On_77_Vel_0
Time_Shift_23
Note_On_58_Vel_0
Time_Shift_41
Sustain_Off
Time_Shift_13
Note_On_73_Vel_58
Time_Shift_4
Note_On_56_Vel_38
Time_Shift_49
Note_On_61_Vel_0
Time_Shift_8
Note_On_75_Vel_0
Time_Shift_15
Sustain_On
Time_Shift_65
Note_On_64_Vel_41
Time_Shift_1
Note_On_61_Vel_25
Time_Shift_103
Note_On_73_Vel_0
Time_Shift_2
Note_On_58_Vel_34
Time_Shift_4
Note_On_73_Vel_27
Time_Shift_148
Note_On_55_Vel_39
Time_Shift_161
Note_On_63_Vel_41
Time_Shift_3
Note_On_72_Vel_60
Time_Shift_89
Note_On_56_Vel_0
Time_Shift_16
Note_On_73_Vel_0
Time_Shift_8
Note_On_73_Vel_68
Time_Shift_22
Note_On_64_Vel_0
Time_Shift_24
Note_On_58_Vel_0
Time_Shift_7
Note_On_61_Vel_0
Time_Shift_12
Note_On_72_Vel_0
Time_Shift_35
Sustain_Off
Time_Shift_1
Note_On_63_Vel_0
Time_Shift_11
Note_On_55_Vel_0
Time_Shift_19
Note_On_76_Vel_64
Time_Shift_3
Note_On_56_Vel_41
Time_Shift_50
Note_On_73_Vel_0
Time_Shift_38
Sustain_On
Time_Shift_26
Note_On_64_Vel_45
Time_Shift_78
Note_On_59_Vel_46
Time_Shift_2
Note_On_71_Vel_42
Time_Shift_71
Note_On_56_Vel_0
Time_Shift_38
Note_On_71_Vel_0
Time_Shift_2
Note_On_55_Vel_50
Time_Shift_14
Note_On_59_Vel_0
Time_Shift_101
Note_On_74_Vel_64
Time_Shift_10
Note_On_63_Vel_49
Time_Shift_123
Note_On_75_Vel_64
Time_Shift_1
Note_On_58_Vel_43
Time_Shift_10
Note_On_64_Vel_0
Time_Shift_31
Note_On_74_Vel_0
Time_Shift_3
Note_On_76_Vel_0
Time_Shift_1
Note_On_55_Vel_0
Time_Shift_15
Sustain_Off
Time_Shift_62
Note_On_63_Vel_0
Time_Shift_3
Note_On_58_Vel_0
Time_Shift_17
Note_On_53_Vel_34
Time_Shift_31
Note_On_70_Vel_37
Time_Shift_6
Note_On_70_Vel_0
Time_Shift_31
Note_On_75_Vel_0
Time_Shift_8
Sustain_On
Time_Shift_95
Note_On_62_Vel_37
Time_Shift_123
Note_On_56_Vel_48
Time_Shift_1
Note_On_68_Vel_41
Time_Shift_108
Note_On_62_Vel_0
Time_Shift_3
Note_On_53_Vel_0
Time_Shift_11
Sustain_Off
Time_Shift_1
Note_On_56_Vel_0
Time_Shift_11
Note_On_52_Vel_47
Time_Shift_69
Sustain_On
Time_Shift_23
Note_On_68_Vel_0
Time_Shift_70
Note_On_73_Vel_64
Time_Shift_3
Note_On_61_Vel_45
Time_Shift_110
Note_On_75_Vel_61
Time_Shift_4
Note_On_56_Vel_50
Time_Shift_67
Sustain_Off
Time_Shift_3
Note_On_61_Vel_0
Time_Shift_1
Note_On_73_Vel_0
Note_On_52_Vel_0
Time_Shift_13
Note_On_56_Vel_0
Time_Shift_2
Note_On_75_Vel_0
Time_Shift_28
Note_On_77_Vel_57
Time_Shift_3
Note_On_51_Vel_46
Time_Shift_57
Sustain_On
Time_Shift_59
Note_On_75_Vel_62
Time_Shift_25
Note_On_63_Vel_30
Time_Shift_4
Note_On_61_Vel_34
Time_Shift_85
Note_On_73_Vel_68
Time_Shift_46
Note_On_75_Vel_0
Time_Shift_6
Note_On_51_Vel_0
Time_Shift_10
Sustain_Off
Time_Shift_11
Note_On_63_Vel_0
Time_Shift_15
Note_On_77_Vel_0
Time_Shift_33
Note_On_44_Vel_55
Time_Shift_2
Note_On_73_Vel_0
Time_Shift_1
Note_On_75_Vel_55
Time_Shift_18
Note_On_61_Vel_0
Time_Shift_77
Sustain_On
Time_Shift_62
Note_On_70_Vel_62
Time_Shift_10
Note_On_60_Vel_47
Time_Shift_103
Note_On_56_Vel_51
Time_Shift_5
Note_On_72_Vel_53
Time_Shift_2
Note_On_68_Vel_51
Time_Shift_120
Note_On_75_Vel_0
Note_On_70_Vel_0
Time_Shift_2
Note_On_44_Vel_0
Note_On_56_Vel_0
Time_Shift_2
Note_On_60_Vel_0
Time_Shift_5
Sustain_Off
Time_Shift_16
Note_On_52_Vel_47
Note_On_51_Vel_45
Time_Shift_3
Note_On_68_Vel_0
Note_On_72_Vel_0
Time_Shift_8
Note_On_51_Vel_0
Time_Shift_2
Note_On_72_Vel_54
Time_Shift_105
Sustain_On
Time_Shift_18
Note_On_60_Vel_39
Time_Shift_105
Note_On_72_Vel_0
Time_Shift_4
Note_On_75_Vel_49
Time_Shift_2
Note_On_72_Vel_42
Time_Shift_8
Note_On_56_Vel_48
Time_Shift_124
Note_On_72_Vel_0
Time_Shift_11
Note_On_72_Vel_51
Note_On_53_Vel_47
Time_Shift_9
Note_On_68_Vel_37
Time_Shift_8
Note_On_52_Vel_0
Note_On_60_Vel_0
Time_Shift_1
Sustain_Off
Note_On_56_Vel_0
Time_Shift_102
Sustain_On
Time_Shift_30
Note_On_75_Vel_0
Time_Shift_10
Note_On_60_Vel_42
Time_Shift_19
Note_On_67_Vel_56
Time_Shift_33
Note_On_68_Vel_0
Time_Shift_57
Note_On_56_Vel_57
Time_Shift_23
Note_On_68_Vel_64
Time_Shift_68
Note_On_67_Vel_0
Time_Shift_1
Note_On_60_Vel_0
Time_Shift_1
Note_On_53_Vel_0
Time_Shift_1
Note_On_56_Vel_0
Time_Shift_11
Sustain_Off
Time_Shift_30
Note_On_72_Vel_0
Time_Shift_6
Note_On_72_Vel_66
Time_Shift_17
Note_On_46_Vel_46
Time_Shift_15
Sustain_On
Time_Shift_16
Note_On_68_Vel_0
Time_Shift_79
Note_On_70_Vel_70
Time_Shift_9
Note_On_58_Vel_41
Time_Shift_6
Note_On_62_Vel_42
Time_Shift_91
Note_On_68_Vel_69
Time_Shift_2
Note_On_56_Vel_54
Time_Shift_46
Note_On_46_Vel_0
Time_Shift_1
Note_On_72_Vel_0
Time_Shift_4
Note_On_58_Vel_0
Time_Shift_4
Note_On_70_Vel_0
Time_Shift_3
Sustain_Off
Time_Shift_3
Note_On_56_Vel_0
Time_Shift_50
Note_On_39_Vel_41
Time_Shift_1
Note_On_62_Vel_0
Time_Shift_2
Note_On_67_Vel_65
Time_Shift_14
Note_On_68_Vel_0
Time_Shift_23
Note_On_39_Vel_0
Time_Shift_35
Note_On_67_Vel_0
Time_Shift_11
Sustain_On
Time_Shift_9
Sustain_Off
Time_Shift_6
Sustain_On
Time_Shift_6
Note_On_51_Vel_51
Time_Shift_5
Note_On_63_Vel_52
Note_On_70_Vel_71
Time_Shift_101
Note_On_72_Vel_70
Time_Shift_7
Note_On_58_Vel_55
Time_Shift_22
Sustain_Off
Time_Shift_11
Note_On_51_Vel_0
Note_On_63_Vel_0
Time_Shift_48
Sustain_On
Time_Shift_15
Note_On_73_Vel_70
Time_Shift_23
Note_On_55_Vel_41
Time_Shift_28
Note_On_72_Vel_0
Time_Shift_14
Sustain_Off
Time_Shift_20
Sustain_On
Time_Shift_19
Note_On_63_Vel_42
Time_Shift_4
Note_On_77_Vel_62
Time_Shift_7
Note_On_70_Vel_0
Time_Shift_54
Note_On_58_Vel_0
Time_Shift_9
Note_On_58_Vel_45
Time_Shift_29
Note_On_72_Vel_51
Time_Shift_1
Note_On_75_Vel_57
Time_Shift_45
Sustain_Off
Time_Shift_1
Note_On_77_Vel_0
Time_Shift_6
Note_On_55_Vel_0
Note_On_58_Vel_0
Time_Shift_17
Note_On_73_Vel_0
Time_Shift_15
Note_On_72_Vel_0
Time_Shift_8
Note_On_63_Vel_0
Time_Shift_3
Note_On_56_Vel_52
Time_Shift_20
Sustain_On
Time_Shift_3
Note_On_72_Vel_56
Time_Shift_114
Note_On_63_Vel_39
Time_Shift_2
Note_On_67_Vel_45
Time_Shift_4
Note_On_55_Vel_37
Time_Shift_7
Note_On_67_Vel_0
Time_Shift_73
Note_On_60_Vel_53
Time_Shift_1
Note_On_68_Vel_65
Time_Shift_95
Note_On_72_Vel_0
Time_Shift_10
Note_On_72_Vel_69
Time_Shift_7
Sustain_Off
Time_Shift_4
Note_On_63_Vel_0
Time_Shift_1
Note_On_53_Vel_30
Time_Shift_1
Note_On_75_Vel_0
Time_Shift_2
Note_On_68_Vel_0
Time_Shift_1
Note_On_60_Vel_0
Time_Shift_20
Note_On_56_Vel_0
Time_Shift_59
Note_On_70_Vel_70
Time_Shift_20
Note_On_72_Vel_0
Time_Shift_6
Note_On_53_Vel_0
Time_Shift_2
Note_On_62_Vel_43
Time_Shift_71
Note_On_56_Vel_56
Note_On_68_Vel_66
Time_Shift_52
Note_On_70_Vel_0
Time_Shift_1
Note_On_62_Vel_0
Time_Shift_29
Note_On_55_Vel_0
Time_Shift_14
Note_On_68_Vel_0
Time_Shift_1
Note_On_67_Vel_66
Time_Shift_1
Note_On_51_Vel_56
Time_Shift_1
Note_On_56_Vel_0
Time_Shift_58
Note_On_67_Vel_0
Time_Shift_19
Note_On_70_Vel_72
Time_Shift_24
Note_On_63_Vel_48
Time_Shift_83
Note_On_72_Vel_75
Time_Shift_9
Note_On_58_Vel_54
Time_Shift_87
Note_On_51_Vel_0
Time_Shift_4
Note_On_73_Vel_75
Time_Shift_16
Note_On_55_Vel_50
Time_Shift_12
Note_On_63_Vel_0
Time_Shift_6
Note_On_72_Vel_0
Time_Shift_61
Note_On_63_Vel_48
Time_Shift_2
Note_On_70_Vel_0
Time_Shift_4
Note_On_77_Vel_67
Time_Shift_72
Note_On_55_Vel_0
Time_Shift_7
Note_On_55_Vel_48
Time_Shift_7
Note_On_75_Vel_70
Time_Shift_48
Note_On_77_Vel_0
Time_Shift_15
Note_On_58_Vel_0
Time_Shift_31
Note_On_55_Vel_0
Time_Shift_3
Note_On_56_Vel_57
Note_On_72_Vel_71
Time_Shift_5
Sustain_On
Time_Shift_92
Note_On_63_Vel_0
Time_Shift_5
Note_On_63_Vel_53
Time_Shift_4
Note_On_71_Vel_69
Time_Shift_14
Note_On_73_Vel_0
Time_Shift_61
Note_On_72_Vel_0
Time_Shift_11
Note_On_72_Vel_78
Time_Shift_1
Note_On_60_Vel_62
Time_Shift_31
Note_On_71_Vel_0
Time_Shift_2
Note_On_63_Vel_0
Note_On_56_Vel_0
Time_Shift_11
Sustain_Off
Time_Shift_71
Note_On_76_Vel_78
Time_Shift_9
Note_On_56_Vel_51
Time_Shift_14
Note_On_60_Vel_0
Time_Shift_12
Note_On_72_Vel_0
Time_Shift_7
Note_On_75_Vel_0
Time_Shift_69
Sustain_On
Time_Shift_3
Note_On_70_Vel_66
Note_On_64_Vel_52
Time_Shift_102
Note_On_71_Vel_62
Time_Shift_3
Note_On_59_Vel_50
Time_Shift_46
Note_On_64_Vel_0
Time_Shift_10
Sustain_Off
Time_Shift_1
Note_On_56_Vel_0
Note_On_70_Vel_0
Time_Shift_23
Note_On_75_Vel_67
Time_Shift_25
Note_On_55_Vel_44
Time_Shift_10
Note_On_59_Vel_0
Time_Shift_23
Note_On_71_Vel_0
Time_Shift_46
Sustain_On
Time_Shift_13
Note_On_69_Vel_51
Time_Shift_14
Note_On_63_Vel_37
Time_Shift_59
Note_On_70_Vel_65
Time_Shift_82
Note_On_73_Vel_61
Time_Shift_9
Note_On_73_Vel_0
Time_Shift_4
Note_On_69_Vel_0
Time_Shift_1
Note_On_74_Vel_69
Time_Shift_4
Note_On_70_Vel_0
Time_Shift_1
Note_On_55_Vel_0
Time_Shift_2
Note_On_54_Vel_40
Time_Shift_2
Sustain_Off
Time_Shift_9
Note_On_63_Vel_0
Time_Shift_23
Note_On_76_Vel_0
Time_Shift_8
Note_On_75_Vel_0
Time_Shift_7
Note_On_54_Vel_0
Time_Shift_32
Note_On_68_Vel_51
Time_Shift_13
Note_On_62_Vel_37
Time_Shift_1
Sustain_On
Time_Shift_70
Note_On_68_Vel_0
Note_On_69_Vel_57
Time_Shift_4
Note_On_68_Vel_49
Time_Shift_2
Note_On_56_Vel_43
Time_Shift_96
Note_On_73_Vel_74
Time_Shift_13
Note_On_56_Vel_0
Time_Shift_4
Note_On_62_Vel_0
Time_Shift_1
Note_On_68_Vel_0
Time_Shift_1
Sustain_Off
Time_Shift_4
Note_On_53_Vel_35
Time_Shift_13
Note_On_69_Vel_0
Time_Shift_82
Note_On_67_Vel_48
Time_Shift_3
Note_On_61_Vel_41
Time_Shift_7
Note_On_74_Vel_0
Sustain_On
Time_Shift_61
Note_On_53_Vel_0
Time_Shift_3
Note_On_56_Vel_56
Time_Shift_2
Note_On_53_Vel_34
Time_Shift_1
Note_On_68_Vel_54
Time_Shift_122
Note_On_74_Vel_64
Time_Shift_19
Note_On_54_Vel_39
Sustain_Off
Time_Shift_2
Note_On_67_Vel_0
Note_On_73_Vel_0
Time_Shift_1
Note_On_61_Vel_0
Note_On_56_Vel_0
Time_Shift_1
Note_On_53_Vel_0
Time_Shift_3
Note_On_54_Vel_0
Note_On_68_Vel_0
Time_Shift_9
Note_On_68_Vel_39
Time_Shift_91
Note_On_68_Vel_0
Time_Shift_7
Note_On_62_Vel_36
Note_On_68_Vel_47
Time_Shift_1
Note_On_59_Vel_35
Time_Shift_23
Sustain_On
Time_Shift_46
Note_On_68_Vel_0
Time_Shift_9
Note_On_68_Vel_53
Time_Shift_1
Note_On_69_Vel_58
Time_Shift_9
Note_On_57_Vel_42
Time_Shift_6
Note_On_56_Vel_41
Time_Shift_84
Note_On_73_Vel_69
Time_Shift_17
Sustain_Off
Time_Shift_4
Note_On_53_Vel_25
Note_On_56_Vel_0
Time_Shift_4
Note_On_68_Vel_0
Time_Shift_1
Note_On_62_Vel_0
Time_Shift_1
Note_On_69_Vel_0
Note_On_57_Vel_0
Time_Shift_2
Note_On_59_Vel_0
Time_Shift_84
Sustain_On
Time_Shift_11
Note_On_67_Vel_50
Time_Shift_8
Note_On_61_Vel_40
Time_Shift_69
Note_On_56_Vel_50
Time_Shift_85
Note_On_72_Vel_58
Time_Shift_5
Note_On_71_Vel_56
Time_Shift_7
Sustain_Off
Time_Shift_3
Note_On_67_Vel_0
Time_Shift_2
Note_On_61_Vel_0
Note_On_56_Vel_0
Time_Shift_1
Note_On_53_Vel_0
Time_Shift_1
Note_On_74_Vel_0
Time_Shift_7
Note_On_52_Vel_42
Time_Shift_16
Note_On_73_Vel_0
Time_Shift_43
Note_On_66_Vel_42
Time_Shift_4
Note_On_60_Vel_34
Time_Shift_22
Sustain_On
Time_Shift_54
Note_On_71_Vel_0
Time_Shift_19
Note_On_55_Vel_41
Time_Shift_4
Note_On_67_Vel_39
Note_On_52_Vel_0
Time_Shift_83
Note_On_71_Vel_57
Time_Shift_5
Note_On_51_Vel_46
Time_Shift_1
Sustain_Off
Time_Shift_7
Note_On_66_Vel_0
Time_Shift_1
Note_On_60_Vel_0
Time_Shift_2
Note_On_55_Vel_0
Time_Shift_16
Note_On_67_Vel_0
Note_On_72_Vel_0
Time_Shift_85
Sustain_On
Time_Shift_3
Note_On_53_Vel_33
Time_Shift_9
Note_On_65_Vel_33
Time_Shift_75
Note_On_54_Vel_39
Time_Shift_68
Sustain_Off
Time_Shift_4
Note_On_53_Vel_0
Time_Shift_3
Note_On_65_Vel_0
Time_Shift_1
Note_On_51_Vel_0
Time_Shift_1
Note_On_54_Vel_0
Time_Shift_24
Note_On_72_Vel_57
Time_Shift_4
Note_On_71_Vel_0
Time_Shift_17
Note_On_52_Vel_40
Time_Shift_116
Note_On_66_Vel_36
Time_Shift_1
Note_On_60_Vel_33
Time_Shift_12
Sustain_On
Time_Shift_88
Note_On_67_Vel_37
Time_Shift_2
Note_On_55_Vel_39
Time_Shift_107
Note_On_71_Vel_52
Time_Shift_2
Note_On_51_Vel_39
Time_Shift_29
Note_On_66_Vel_0
Time_Shift_1
Note_On_52_Vel_0
Time_Shift_1
Sustain_Off
Time_Shift_2
Note_On_60_Vel_0
Time_Shift_3
Note_On_55_Vel_0
Time_Shift_26
Note_On_72_Vel_0
Time_Shift_8
Note_On_67_Vel_0
Time_Shift_46
Note_On_53_Vel_32
Time_Shift_4
Note_On_65_Vel_33
Time_Shift_2
Note_On_59_Vel_34
Time_Shift_24
Sustain_On
Time_Shift_65
Note_On_54_Vel_38
Time_Shift_119
Note_On_50_Vel_37
Time_Shift_2
Note_On_70_Vel_56
Time_Shift_14
Sustain_Off
Time_Shift_13
Note_On_59_Vel_0
Note_On_51_Vel_0
Time_Shift_3
Note_On_54_Vel_0
Time_Shift_1
Note_On_71_Vel_0
Note_On_53_Vel_0
Time_Shift_14
Note_On_65_Vel_0
Time_Shift_69
Sustain_On
Time_Shift_12
Note_On_64_Vel_45
Time_Shift_15
Note_On_58_Vel_38
Time_Shift_101
Note_On_65_Vel_43
Time_Shift_4
Note_On_53_Vel_30
Time_Shift_65
Sustain_Off
Time_Shift_41
Note_On_65_Vel_0
Time_Shift_5
Note_On_65_Vel_39
Time_Shift_6
Note_On_70_Vel_0
Note_On_58_Vel_0
Time_Shift_1
Note_On_53_Vel_0
Time_Shift_11
Note_On_50_Vel_0
Time_Shift_12
Note_On_49_Vel_36
Time_Shift_19
Note_On_64_Vel_0
Time_Shift_69
Sustain_On
Time_Shift_46
Note_On_67_Vel_53
Time_Shift_9
Note_On_58_Vel_37
Time_Shift_122
Note_On_58_Vel_0
Time_Shift_10
Note_On_58_Vel_40
Time_Shift_1
Note_On_53_Vel_35
Note_On_68_Vel_55
Time_Shift_111
Sustain_Off
Time_Shift_8
Note_On_65_Vel_0
Time_Shift_21
Note_On_70_Vel_59
Time_Shift_2
Note_On_68_Vel_0
Time_Shift_7
Note_On_46_Vel_40
Time_Shift_4
Note_On_68_Vel_44
Time_Shift_30
Note_On_49_Vel_0
Time_Shift_8
Note_On_67_Vel_0
Time_Shift_43
Sustain_On
Time_Shift_39
Note_On_68_Vel_0
Time_Shift_16
Note_On_72_Vel_59
Time_Shift_7
Note_On_53_Vel_0
Time_Shift_26
Note_On_61_Vel_34
Time_Shift_116
Note_On_73_Vel_59
Time_Shift_23
Note_On_53_Vel_21
Time_Shift_134
Note_On_72_Vel_0
Time_Shift_6
Note_On_72_Vel_54
Time_Shift_11
Note_On_51_Vel_38
Time_Shift_6
Note_On_70_Vel_0
Time_Shift_4
Sustain_Off
Note_On_46_Vel_0
Time_Shift_1
Note_On_53_Vel_0
Note_On_58_Vel_0
Note_On_61_Vel_0
Time_Shift_1
Note_On_73_Vel_0
Time_Shift_140
Sustain_On
Time_Shift_49
Note_On_60_Vel_29
Time_Shift_136
Note_On_72_Vel_0
Time_Shift_8
Note_On_72_Vel_34
Time_Shift_8
Note_On_56_Vel_41
Time_Shift_183
Note_On_51_Vel_0
Time_Shift_1
Note_On_70_Vel_50
Time_Shift_3
Sustain_Off
Time_Shift_8
Note_On_51_Vel_30
Time_Shift_11
Note_On_56_Vel_0
Time_Shift_2
Note_On_60_Vel_0
Time_Shift_29
Note_On_72_Vel_0
Time_Shift_85
Sustain_On
Time_Shift_111
Note_On_61_Vel_26
Time_Shift_205
Note_On_55_Vel_30
Time_Shift_129
Note_On_51_Vel_0
Time_Shift_5
Sustain_Off
Note_On_61_Vel_0
Time_Shift_6
Note_On_51_Vel_36
Time_Shift_23
Note_On_63_Vel_55
Time_Shift_31
Note_On_65_Vel_41
Time_Shift_50
Note_On_70_Vel_0
Time_Shift_5
Note_On_51_Vel_0
Time_Shift_16
Note_On_44_Vel_45
Time_Shift_2
Note_On_63_Vel_0
Time_Shift_8
Note_On_63_Vel_41
Time_Shift_8
Note_On_55_Vel_0
Time_Shift_7
Sustain_On
Time_Shift_31
Note_On_65_Vel_0
Time_Shift_110
Note_On_62_Vel_49
Time_Shift_10
Note_On_60_Vel_46
Time_Shift_87
Note_On_63_Vel_0
Time_Shift_7
Note_On_63_Vel_64
Time_Shift_29
Note_On_51_Vel_47
Time_Shift_76
Note_On_62_Vel_0
Note_On_60_Vel_0
Time_Shift_1
Note_On_72_Vel_64
Note_On_44_Vel_0
Note_On_51_Vel_0
Time_Shift_15
Sustain_Off
Time_Shift_19
Note_On_50_Vel_43
Time_Shift_15
Sustain_On
Time_Shift_55
Note_On_70_Vel_65
Time_Shift_14
Note_On_50_Vel_0
Time_Shift_19
Note_On_60_Vel_33
Time_Shift_19
Sustain_Off
Time_Shift_23
Note_On_63_Vel_0
Time_Shift_21
Note_On_68_Vel_61
Time_Shift_7
Note_On_70_Vel_0
Time_Shift_49
Note_On_60_Vel_0
Time_Shift_21
Note_On_68_Vel_0
Time_Shift_2
Note_On_72_Vel_0
Time_Shift_10
Note_On_46_Vel_45
Time_Shift_14
Note_On_67_Vel_58
Time_Shift_121
Note_On_77_Vel_61
Time_Shift_13
Note_On_55_Vel_29
Note_On_61_Vel_42
Time_Shift_23
Note_On_46_Vel_0
Time_Shift_31
Note_On_67_Vel_0
Time_Shift_30
Note_On_61_Vel_0
Time_Shift_12
Note_On_76_Vel_59
Time_Shift_16
Note_On_51_Vel_40
Time_Shift_4
Note_On_77_Vel_0
Time_Shift_83
Note_On_76_Vel_0
Time_Shift_24
Note_On_75_Vel_55
Time_Shift_3
Note_On_55_Vel_0
Time_Shift_29
Note_On_50_Vel_35
Time_Shift_86
Sustain_On
Time_Shift_8
Note_On_51_Vel_0
Time_Shift_57
Note_On_61_Vel_35
Time_Shift_27
Sustain_Off
Time_Shift_77
Note_On_51_Vel_42
Time_Shift_23
Sustain_On
Time_Shift_25
Note_On_63_Vel_61
Time_Shift_20
Note_On_65_Vel_48
Time_Shift_70
Note_On_63_Vel_0
Time_Shift_4
Note_On_44_Vel_50
Time_Shift_1
Note_On_63_Vel_60
Time_Shift_26
Note_On_50_Vel_0
Time_Shift_4
Note_On_51_Vel_0
Note_On_61_Vel_0
Time_Shift_15
Note_On_65_Vel_0
Time_Shift_12
Sustain_Off
Time_Shift_38
Note_On_75_Vel_0
Time_Shift_16
Note_On_74_Vel_56
Time_Shift_5
Note_On_62_Vel_59
Time_Shift_25
Sustain_On
Time_Shift_3
Note_On_60_Vel_58
Time_Shift_20
Note_On_63_Vel_0
Time_Shift_50
Note_On_63_Vel_72
Time_Shift_26
Note_On_51_Vel_53
Time_Shift_13
Note_On_44_Vel_0
Time_Shift_9
Note_On_60_Vel_0
Time_Shift_7
Note_On_62_Vel_0
Time_Shift_18
Sustain_Off
Time_Shift_5
Note_On_51_Vel_0
Time_Shift_22
Note_On_72_Vel_68
Time_Shift_4
Note_On_63_Vel_0
Time_Shift_26
Note_On_50_Vel_58
Time_Shift_43
Note_On_74_Vel_0
Time_Shift_29
Note_On_70_Vel_76
Time_Shift_37
Note_On_60_Vel_47
Time_Shift_62
Note_On_68_Vel_71
Time_Shift_6
Note_On_50_Vel_0
Time_Shift_14
Note_On_70_Vel_0
Time_Shift_86
Note_On_69_Vel_75
Time_Shift_1
Note_On_48_Vel_54
Time_Shift_11
Note_On_67_Vel_56
Time_Shift_8
Note_On_67_Vel_0
Time_Shift_7
Note_On_60_Vel_0
Time_Shift_8
Note_On_68_Vel_0
Time_Shift_31
Note_On_72_Vel_0
Time_Shift_61
Sustain_On
Time_Shift_4
Note_On_78_Vel_75
Time_Shift_31
Note_On_63_Vel_51
Time_Shift_105
Note_On_76_Vel_74
Time_Shift_6
Note_On_57_Vel_47
Time_Shift_3
Note_On_60_Vel_40
Time_Shift_95
Note_On_48_Vel_0
Time_Shift_1
Note_On_57_Vel_0
Time_Shift_14
Note_On_72_Vel_50
Sustain_Off
Time_Shift_7
Note_On_53_Vel_47
Time_Shift_3
Note_On_72_Vel_0
Time_Shift_8
Note_On_63_Vel_0
Time_Shift_8
Note_On_77_Vel_74
Time_Shift_3
Note_On_68_Vel_48
Time_Shift_3
Note_On_76_Vel_0
Time_Shift_1
Note_On_68_Vel_0
Time_Shift_8
Note_On_69_Vel_0
Time_Shift_15
Note_On_78_Vel_0
Time_Shift_38
Sustain_On
Time_Shift_50
Note_On_63_Vel_51
Time_Shift_93
Note_On_70_Vel_71
Time_Shift_2
Note_On_56_Vel_58
Time_Shift_10
Note_On_58_Vel_51
Time_Shift_7
Note_On_58_Vel_0
Time_Shift_12
Note_On_72_Vel_64
Time_Shift_50
Note_On_63_Vel_0
Time_Shift_2
Sustain_Off
Time_Shift_1
Note_On_53_Vel_0
Time_Shift_4
Note_On_60_Vel_0
Note_On_70_Vel_0
Time_Shift_10
Note_On_70_Vel_73
Time_Shift_5
Note_On_50_Vel_55
Note_On_56_Vel_0
Time_Shift_8
Note_On_77_Vel_0
Time_Shift_69
Note_On_72_Vel_0
Time_Shift_23
Sustain_On
Time_Shift_6
Note_On_69_Vel_79
Time_Shift_28
Note_On_53_Vel_39
Time_Shift_1
Note_On_65_Vel_34
Time_Shift_72
Note_On_70_Vel_0
Time_Shift_5
Note_On_70_Vel_89
Time_Shift_16
Note_On_57_Vel_47
Time_Shift_40
Sustain_Off
Time_Shift_9
Note_On_50_Vel_0
Time_Shift_9
Note_On_65_Vel_0
Time_Shift_14
Note_On_53_Vel_0
Time_Shift_25
Note_On_80_Vel_75
Time_Shift_11
Note_On_51_Vel_56
Time_Shift_25
Note_On_57_Vel_0
Time_Shift_100
Sustain_On
Time_Shift_9
Note_On_58_Vel_41
Time_Shift_2
Note_On_67_Vel_58
Time_Shift_74
Note_On_79_Vel_67
Time_Shift_15
Note_On_58_Vel_0
Time_Shift_7
Note_On_58_Vel_60
Time_Shift_2
Note_On_55_Vel_48
Time_Shift_6
Note_On_55_Vel_0
Time_Shift_35
Note_On_72_Vel_68
Time_Shift_48
Note_On_73_Vel_74
Time_Shift_34
Note_On_52_Vel_69
Time_Shift_46
Note_On_51_Vel_0
Time_Shift_1
Note_On_58_Vel_0
Note_On_67_Vel_0
Time_Shift_1
Note_On_72_Vel_0
Time_Shift_8
Note_On_73_Vel_0
Time_Shift_4
Note_On_69_Vel_0
Note_On_70_Vel_0
Time_Shift_3
Sustain_Off
Time_Shift_55
Note_On_58_Vel_54
Time_Shift_1
Note_On_71_Vel_77
Time_Shift_3
Note_On_55_Vel_60
Time_Shift_1
Note_On_67_Vel_66
Time_Shift_37
Sustain_On
Time_Shift_60
Note_On_72_Vel_81
Time_Shift_1
Note_On_60_Vel_70
Time_Shift_60
Note_On_71_Vel_0
Time_Shift_1
Note_On_52_Vel_0
Time_Shift_4
Note_On_55_Vel_0
Time_Shift_6
Sustain_Off
Time_Shift_21
Note_On_67_Vel_0
Time_Shift_12
Note_On_82_Vel_81
Time_Shift_4
Note_On_58_Vel_0
Note_On_79_Vel_0
Time_Shift_7
Note_On_80_Vel_0
Time_Shift_2
Note_On_53_Vel_54
Time_Shift_6
Sustain_On
Time_Shift_72
Sustain_Off
Time_Shift_5
Sustain_On
Time_Shift_33
Note_On_79_Vel_77
Time_Shift_3
Note_On_56_Vel_55
Time_Shift_4
Note_On_68_Vel_63
Time_Shift_90
Note_On_60_Vel_0
Time_Shift_6
Note_On_60_Vel_61
Time_Shift_6
Note_On_80_Vel_78
Time_Shift_96
Note_On_60_Vel_0
Time_Shift_4
Sustain_Off
Time_Shift_4
Note_On_60_Vel_66
Time_Shift_12
Note_On_67_Vel_69
Time_Shift_3
Note_On_53_Vel_0
Note_On_68_Vel_0
Time_Shift_3
Note_On_55_Vel_69
Time_Shift_2
Note_On_74_Vel_79
Time_Shift_2
Note_On_56_Vel_0
Note_On_82_Vel_0
Time_Shift_16
Note_On_60_Vel_0
Time_Shift_8
Note_On_72_Vel_0
Time_Shift_23
Note_On_80_Vel_0
Time_Shift_30
Sustain_On
Time_Shift_23
Note_On_67_Vel_0
Time_Shift_55
Note_On_75_Vel_74
Time_Shift_27
Note_On_73_Vel_62
Time_Shift_49
Note_On_74_Vel_0
Time_Shift_38
Note_On_67_Vel_65
Time_Shift_5
Note_On_77_Vel_80
Time_Shift_103
Note_On_79_Vel_0
Time_Shift_5
Note_On_63_Vel_66
Time_Shift_4
Note_On_79_Vel_80
Time_Shift_91
Note_On_73_Vel_0
Time_Shift_11
Note_On_73_Vel_73
Note_On_80_Vel_80
Time_Shift_3
Note_On_58_Vel_55
Time_Shift_9
Note_On_58_Vel_0
Time_Shift_69
Note_On_67_Vel_0
Time_Shift_9
Note_On_67_Vel_67
Time_Shift_9
Note_On_81_Vel_74
Time_Shift_93
Note_On_73_Vel_0
Time_Shift_1
Note_On_58_Vel_69
Note_On_77_Vel_0
Note_On_75_Vel_0
Note_On_79_Vel_0
Time_Shift_1
Note_On_63_Vel_0
Time_Shift_1
Sustain_Off
Time_Shift_3
Note_On_70_Vel_59
Note_On_82_Vel_81
Time_Shift_1
Note_On_81_Vel_0
Time_Shift_12
Note_On_67_Vel_0
Time_Shift_8
Note_On_80_Vel_0
Time_Shift_15
Note_On_55_Vel_0
Time_Shift_54
Sustain_On
Time_Shift_21
Note_On_84_Vel_76
Note_On_73_Vel_70
Time_Shift_98
Note_On_85_Vel_83
Time_Shift_1
Note_On_67_Vel_65
Time_Shift_75
Sustain_Off
Time_Shift_7
Note_On_73_Vel_0
Time_Shift_2
Note_On_84_Vel_0
Time_Shift_1
Note_On_58_Vel_0
Time_Shift_17
Note_On_86_Vel_85
Time_Shift_9
Note_On_70_Vel_0
Time_Shift_7
Note_On_63_Vel_60
Time_Shift_31
Note_On_82_Vel_0
Time_Shift_31
Sustain_On
Time_Shift_35
Note_On_89_Vel_89
Time_Shift_10
Note_On_73_Vel_68
Time_Shift_97
Note_On_87_Vel_87
Time_Shift_57
Note_On_67_Vel_0
Time_Shift_69
Note_On_87_Vel_0
Time_Shift_8
Note_On_87_Vel_86
Time_Shift_2
Note_On_56_Vel_55
Time_Shift_4
Note_On_73_Vel_0
Time_Shift_7
Sustain_Off
Time_Shift_10
Note_On_85_Vel_0
Note_On_86_Vel_0
Time_Shift_54
Note_On_89_Vel_0
Time_Shift_61
Sustain_On
Time_Shift_90
Note_On_96_Vel_98
Time_Shift_188
Note_On_68_Vel_70
Time_Shift_5
Note_On_85_Vel_83
Time_Shift_117
Note_On_63_Vel_0
Time_Shift_8
Note_On_63_Vel_64
Time_Shift_27
Note_On_94_Vel_91
Time_Shift_115
Note_On_72_Vel_66
Time_Shift_8
Note_On_58_Vel_47
Time_Shift_1
Note_On_84_Vel_79
Time_Shift_10
Note_On_58_Vel_0
Time_Shift_61
Note_On_68_Vel_0
Time_Shift_11
Note_On_68_Vel_61
Time_Shift_29
Note_On_92_Vel_94
Time_Shift_72
Note_On_72_Vel_0
Sustain_Off
Note_On_85_Vel_0
Note_On_63_Vel_0
Time_Shift_1
Note_On_56_Vel_0
Time_Shift_33
Sustain_On
Time_Shift_16
Note_On_48_Vel_61
Time_Shift_2
Note_On_82_Vel_85
Time_Shift_5
Note_On_87_Vel_0
Time_Shift_99
Note_On_91_Vel_88
Time_Shift_11
Note_On_64_Vel_65
Time_Shift_89
Note_On_80_Vel_79
Time_Shift_18
Note_On_60_Vel_58
Time_Shift_85
Note_On_89_Vel_90
Time_Shift_2
Note_On_58_Vel_63
Time_Shift_11
Note_On_84_Vel_0
Time_Shift_77
Note_On_64_Vel_0
Time_Shift_5
Note_On_79_Vel_74
Time_Shift_6
Note_On_64_Vel_57
Time_Shift_86
Note_On_88_Vel_91
Time_Shift_10
Note_On_58_Vel_0
Time_Shift_4
Note_On_58_Vel_59
Time_Shift_92
Note_On_84_Vel_76
Time_Shift_22
Note_On_52_Vel_46
Time_Shift_7
Note_On_53_Vel_47
Time_Shift_73
Note_On_82_Vel_0
Time_Shift_2
Note_On_89_Vel_0
Time_Shift_1
Note_On_91_Vel_0
Note_On_58_Vel_0
Note_On_60_Vel_0
Time_Shift_1
Note_On_48_Vel_0
Time_Shift_1
Sustain_Off
Time_Shift_1
Note_On_79_Vel_0
Time_Shift_4
Note_On_96_Vel_0
Time_Shift_15
Note_On_68_Vel_0
Note_On_80_Vel_0
Note_On_94_Vel_0
Time_Shift_8
Note_On_64_Vel_0
Note_On_92_Vel_0
Time_Shift_4
Note_On_92_Vel_91
Time_Shift_3
Note_On_52_Vel_0
Time_Shift_16
Note_On_88_Vel_0
Time_Shift_9
Note_On_65_Vel_55
Time_Shift_21
Sustain_On
Time_Shift_118
Note_On_60_Vel_57
Time_Shift_3
Note_On_82_Vel_67
Time_Shift_114
Note_On_91_Vel_84
Time_Shift_35
Note_On_56_Vel_54
Time_Shift_89
Note_On_80_Vel_73
Time_Shift_2
Note_On_65_Vel_0
Time_Shift_4
Note_On_65_Vel_49
Time_Shift_1
Note_On_53_Vel_0
Time_Shift_65
Note_On_60_Vel_0
Time_Shift_4
Note_On_60_Vel_58
Time_Shift_24
Note_On_56_Vel_0
Time_Shift_5
Note_On_89_Vel_91
Time_Shift_101
Note_On_45_Vel_57
Time_Shift_7
Note_On_78_Vel_70
Time_Shift_8
Note_On_82_Vel_0
Time_Shift_3
Sustain_Off
Time_Shift_3
Note_On_89_Vel_0
Time_Shift_1
Note_On_92_Vel_0
Time_Shift_2
Note_On_65_Vel_0
Time_Shift_3
Note_On_91_Vel_0
Time_Shift_8
Note_On_84_Vel_0
Time_Shift_7
Note_On_60_Vel_0
Note_On_80_Vel_0
Time_Shift_39
Note_On_78_Vel_0
Time_Shift_30
Sustain_On
Time_Shift_2
Note_On_87_Vel_87
Time_Shift_4
Note_On_57_Vel_47
Time_Shift_10
Note_On_57_Vel_0
Time_Shift_40
Note_On_60_Vel_43
Time_Shift_40
Note_On_77_Vel_72
Time_Shift_27
Note_On_54_Vel_58
Time_Shift_74
Note_On_85_Vel_83
Time_Shift_67
Note_On_51_Vel_47
Time_Shift_65
Note_On_75_Vel_60
Time_Shift_25
Note_On_60_Vel_0
Time_Shift_5
Note_On_60_Vel_48
Time_Shift_67
Note_On_84_Vel_77
Time_Shift_4
Note_On_54_Vel_0
Time_Shift_5
Note_On_54_Vel_52
Time_Shift_134
Note_On_45_Vel_0
Time_Shift_7
Sustain_Off
Note_On_87_Vel_0
Time_Shift_2
Note_On_45_Vel_61
Time_Shift_1
Note_On_84_Vel_0
Time_Shift_1
Note_On_60_Vel_0
Note_On_77_Vel_0
Note_On_51_Vel_0
Note_On_85_Vel_0
Note_On_54_Vel_0
Note_On_75_Vel_0
Time_Shift_1
Note_On_87_Vel_87
Time_Shift_80
Sustain_On
Time_Shift_105
Note_On_85_Vel_80
Time_Shift_5
Note_On_61_Vel_57
Time_Shift_103
Note_On_89_Vel_85
Time_Shift_1
Note_On_53_Vel_58
Time_Shift_12
Note_On_52_Vel_50
Time_Shift_4
Note_On_52_Vel_0
Time_Shift_90
Note_On_48_Vel_53
Time_Shift_2
Note_On_85_Vel_0
Time_Shift_8
Note_On_85_Vel_86
Time_Shift_109
Note_On_84_Vel_72
Time_Shift_4
Note_On_63_Vel_60
Time_Shift_87
Note_On_87_Vel_0
Time_Shift_6
Note_On_87_Vel_86
Time_Shift_4
Note_On_57_Vel_61
Time_Shift_73
Sustain_Off
Time_Shift_3
Note_On_61_Vel_0
Time_Shift_1
Note_On_85_Vel_0
Note_On_48_Vel_0
Note_On_87_Vel_0
Time_Shift_1
Note_On_53_Vel_0
Note_On_63_Vel_0
Time_Shift_1
Note_On_57_Vel_0
Time_Shift_3
Note_On_45_Vel_0
Time_Shift_8
Note_On_84_Vel_0
Time_Shift_7
Note_On_89_Vel_0
Time_Shift_2
Note_On_49_Vel_63
Note_On_84_Vel_77
Time_Shift_60
Sustain_On
Time_Shift_24
Note_On_82_Vel_82
Time_Shift_14
Note_On_49_Vel_0
Time_Shift_4
Note_On_65_Vel_50
Time_Shift_75
Note_On_58_Vel_64
Time_Shift_2
Note_On_85_Vel_83
Time_Shift_1
Note_On_61_Vel_40
Time_Shift_87
Note_On_82_Vel_0
Time_Shift_4
Note_On_56_Vel_66
Note_On_82_Vel_79
Time_Shift_92
Note_On_80_Vel_71
Time_Shift_4
Note_On_80_Vel_0
Time_Shift_1
Note_On_52_Vel_52
Time_Shift_7
Note_On_52_Vel_0
Time_Shift_61
Note_On_84_Vel_0
Time_Shift_5
Note_On_84_Vel_75
Time_Shift_41
Note_On_82_Vel_0
Time_Shift_1
Note_On_85_Vel_0
Time_Shift_1
Note_On_58_Vel_0
Time_Shift_1
Note_On_65_Vel_0
Time_Shift_1
Sustain_Off
Time_Shift_4
Note_On_61_Vel_0
Time_Shift_7
Note_On_56_Vel_0
Time_Shift_34
Note_On_49_Vel_58
Note_On_80_Vel_74
Time_Shift_13
Sustain_On
Time_Shift_71
Note_On_79_Vel_74
Time_Shift_16
Note_On_65_Vel_47
Time_Shift_3
Note_On_56_Vel_33
Time_Shift_71
Note_On_56_Vel_0
Time_Shift_2
Note_On_82_Vel_80
Time_Shift_9
Note_On_56_Vel_50
Time_Shift_81
Note_On_56_Vel_0
Time_Shift_2
Note_On_75_Vel_59
Time_Shift_2
Note_On_56_Vel_57
Time_Shift_4
Note_On_75_Vel_0
Time_Shift_73
Note_On_77_Vel_72
Time_Shift_3
Note_On_65_Vel_0
Time_Shift_8
Note_On_65_Vel_49
Time_Shift_2
Note_On_53_Vel_47
Time_Shift_75
Note_On_80_Vel_0
Time_Shift_4
Note_On_58_Vel_52
Note_On_80_Vel_72
Time_Shift_16
Note_On_77_Vel_0
Note_On_56_Vel_0
Time_Shift_1
Note_On_82_Vel_0
Time_Shift_1
Note_On_49_Vel_0
Time_Shift_4
Note_On_65_Vel_0
Time_Shift_12
Note_On_58_Vel_0
Time_Shift_8
Note_On_53_Vel_0
Note_On_79_Vel_0
Note_On_84_Vel_0
Time_Shift_34
Note_On_49_Vel_58
Note_On_77_Vel_69
Time_Shift_93
Note_On_51_Vel_49
Time_Shift_1
Note_On_65_Vel_51
Time_Shift_3
Note_On_75_Vel_70
Time_Shift_7
Note_On_51_Vel_0
Time_Shift_164
Note_On_56_Vel_58
Time_Shift_98
Note_On_73_Vel_73
Time_Shift_6
Note_On_61_Vel_38
Time_Shift_78
Note_On_56_Vel_0
Note_On_77_Vel_0
Time_Shift_9
Note_On_77_Vel_68
Time_Shift_2
Note_On_56_Vel_46
Time_Shift_92
Sustain_Off
Note_On_49_Vel_0
Time_Shift_12
Note_On_73_Vel_0
Time_Shift_5
Note_On_73_Vel_70
Time_Shift_29
Note_On_51_Vel_39
Time_Shift_58
Note_On_75_Vel_0
Time_Shift_24
Note_On_77_Vel_0
Time_Shift_15
Note_On_56_Vel_0
Note_On_65_Vel_0
Note_On_80_Vel_0
Time_Shift_17
Note_On_72_Vel_69
Time_Shift_21
Note_On_51_Vel_0
Time_Shift_10
Note_On_63_Vel_47
Time_Shift_1
Note_On_51_Vel_47
Time_Shift_43
Note_On_73_Vel_0
Sustain_On
Time_Shift_63
Note_On_75_Vel_64
Time_Shift_2
Note_On_56_Vel_52
Time_Shift_92
Sustain_Off
Time_Shift_19
Note_On_61_Vel_0
Time_Shift_10
Note_On_38_Vel_40
Time_Shift_5
Note_On_50_Vel_41
Time_Shift_1
Note_On_38_Vel_0
Note_On_72_Vel_0
Time_Shift_7
Sustain_On
Time_Shift_2
Note_On_72_Vel_67
Time_Shift_136
Note_On_44_Vel_36
Time_Shift_11
Note_On_71_Vel_66
Time_Shift_120
Note_On_63_Vel_0
Time_Shift_8
Note_On_56_Vel_0
Time_Shift_11
Note_On_56_Vel_46
Time_Shift_14
Note_On_76_Vel_59
Time_Shift_134
Note_On_73_Vel_68
Time_Shift_2
Note_On_51_Vel_0
Time_Shift_11
Note_On_51_Vel_46
Time_Shift_9
Note_On_71_Vel_0
Time_Shift_3
Note_On_56_Vel_0
Time_Shift_3
Note_On_72_Vel_0
Note_On_76_Vel_0
Time_Shift_13
Note_On_75_Vel_0
Time_Shift_15
Note_On_50_Vel_0
Time_Shift_31
Note_On_44_Vel_0
Time_Shift_33
Note_On_72_Vel_67
Time_Shift_20
Note_On_51_Vel_0
Time_Shift_4
Note_On_63_Vel_45
Time_Shift_6
Note_On_51_Vel_45
Time_Shift_37
Note_On_73_Vel_0
Time_Shift_64
Note_On_75_Vel_58
Time_Shift_2
Note_On_56_Vel_48
Time_Shift_118
Note_On_72_Vel_0
Time_Shift_11
Note_On_72_Vel_68
Time_Shift_2
Note_On_50_Vel_44
Time_Shift_13
Note_On_51_Vel_0
Time_Shift_1
Note_On_56_Vel_0
Time_Shift_3
Note_On_63_Vel_0
Time_Shift_66
Sustain_Off
Time_Shift_27
Note_On_52_Vel_45
Time_Shift_3
Note_On_71_Vel_65
Time_Shift_89
Note_On_75_Vel_0
Time_Shift_23
Sustain_On
Time_Shift_3
Note_On_76_Vel_63
Time_Shift_1
Note_On_56_Vel_51
Time_Shift_11
Note_On_50_Vel_0
Time_Shift_12
Note_On_71_Vel_0
Time_Shift_84
Note_On_51_Vel_49
Time_Shift_1
Note_On_73_Vel_68
Time_Shift_42
Note_On_72_Vel_0
Time_Shift_7
Note_On_52_Vel_0
Time_Shift_39
Note_On_51_Vel_0
Time_Shift_4
Note_On_72_Vel_64
Time_Shift_1
Note_On_51_Vel_44
Time_Shift_1
Note_On_63_Vel_49
Time_Shift_78
Note_On_56_Vel_0
Sustain_Off
Time_Shift_5
Note_On_72_Vel_0
Time_Shift_6
Note_On_56_Vel_46
Note_On_75_Vel_55
Time_Shift_35
Note_On_63_Vel_0
Time_Shift_16
Note_On_73_Vel_0
Time_Shift_39
Note_On_50_Vel_50
Time_Shift_6
Note_On_72_Vel_63
Time_Shift_24
Note_On_51_Vel_0
Time_Shift_63
Note_On_49_Vel_41
Time_Shift_2
Note_On_71_Vel_60
Time_Shift_4
Note_On_49_Vel_0
Time_Shift_84
Note_On_75_Vel_0
Time_Shift_8
Note_On_56_Vel_0
Time_Shift_1
Note_On_75_Vel_60
Time_Shift_3
Note_On_56_Vel_54
Time_Shift_42
Sustain_On
Time_Shift_42
Note_On_50_Vel_0
Time_Shift_1
Note_On_71_Vel_0
Time_Shift_8
Note_On_56_Vel_0
Time_Shift_3
Note_On_76_Vel_0
Time_Shift_1
Note_On_73_Vel_59
Time_Shift_1
Note_On_75_Vel_0
Time_Shift_1
Note_On_51_Vel_50
Time_Shift_12
Note_On_72_Vel_0
Time_Shift_15
Note_On_73_Vel_0
Time_Shift_35
Sustain_Off
Time_Shift_10
Note_On_72_Vel_62
Time_Shift_19
Note_On_63_Vel_46
Time_Shift_59
Sustain_On
Time_Shift_8
Note_On_56_Vel_46
Time_Shift_4
Note_On_51_Vel_0
Time_Shift_65
Note_On_72_Vel_0
Time_Shift_4
Note_On_72_Vel_54
Time_Shift_3
Note_On_50_Vel_45
Time_Shift_32
Note_On_63_Vel_0
Time_Shift_49
Note_On_71_Vel_57
Time_Shift_12
Sustain_Off
Time_Shift_61
Note_On_56_Vel_0
Time_Shift_5
Note_On_75_Vel_55
Time_Shift_1
Note_On_56_Vel_48
Time_Shift_3
Note_On_50_Vel_0
Time_Shift_1
Note_On_71_Vel_0
Time_Shift_81
Note_On_51_Vel_46
Time_Shift_2
Note_On_72_Vel_0
Time_Shift_5
Note_On_73_Vel_48
Time_Shift_4
Note_On_72_Vel_49
Time_Shift_75
Note_On_72_Vel_0
Time_Shift_4
Note_On_72_Vel_48
Time_Shift_4
Note_On_51_Vel_0
Time_Shift_2
Note_On_63_Vel_33
Time_Shift_2
Note_On_51_Vel_39
Time_Shift_34
Sustain_On
Time_Shift_8
Note_On_73_Vel_0
Time_Shift_31
Note_On_75_Vel_0
Time_Shift_3
Note_On_75_Vel_51
Time_Shift_20
Note_On_56_Vel_0
Time_Shift_4
Note_On_56_Vel_43
Time_Shift_49
Note_On_72_Vel_0
Time_Shift_30
Note_On_50_Vel_42
Time_Shift_14
Note_On_72_Vel_47
Time_Shift_41
Note_On_51_Vel_0
Time_Shift_43
Note_On_52_Vel_32
Time_Shift_21
Note_On_71_Vel_47
Time_Shift_20
Note_On_63_Vel_0
Time_Shift_46
Note_On_56_Vel_0
Note_On_75_Vel_0
Time_Shift_11
Note_On_56_Vel_45
Time_Shift_1
Note_On_75_Vel_52
Time_Shift_50
Note_On_50_Vel_0
Time_Shift_38
Note_On_52_Vel_0
Time_Shift_23
Note_On_72_Vel_0
Time_Shift_5
Note_On_51_Vel_36
Time_Shift_1
Note_On_72_Vel_42
Time_Shift_94
Note_On_72_Vel_0
Time_Shift_4
Note_On_72_Vel_47
Time_Shift_19
Note_On_51_Vel_0
Time_Shift_4
Note_On_63_Vel_31
Time_Shift_3
Note_On_51_Vel_34
Time_Shift_32
Note_On_71_Vel_0
Time_Shift_15
Note_On_75_Vel_0
Time_Shift_11
Note_On_75_Vel_45
Time_Shift_12
Note_On_56_Vel_0
Time_Shift_10
Note_On_56_Vel_38
Time_Shift_90
Note_On_72_Vel_0
Time_Shift_6
Note_On_72_Vel_48
Time_Shift_15
Note_On_50_Vel_36
Time_Shift_92
Note_On_71_Vel_41
Time_Shift_16
Note_On_64_Vel_25
Time_Shift_9
Note_On_64_Vel_0
Time_Shift_66
Note_On_76_Vel_42
Time_Shift_34
Note_On_56_Vel_0
Time_Shift_7
Note_On_56_Vel_38
Time_Shift_108
Note_On_72_Vel_0
Time_Shift_5
Note_On_72_Vel_36
Time_Shift_18
Note_On_51_Vel_0
Time_Shift_10
Note_On_51_Vel_32
Time_Shift_82
Note_On_72_Vel_0
Time_Shift_10
Note_On_72_Vel_36
Time_Shift_8
Note_On_68_Vel_25
Time_Shift_13
Note_On_63_Vel_0
Time_Shift_7
Note_On_63_Vel_24
Time_Shift_1
Note_On_51_Vel_0
Time_Shift_4
Note_On_51_Vel_29
Time_Shift_72
Note_On_75_Vel_0
Time_Shift_11
Note_On_75_Vel_39
Time_Shift_5
Note_On_56_Vel_0
Time_Shift_6
Note_On_56_Vel_35
Time_Shift_21
Note_On_71_Vel_0
Time_Shift_3
Note_On_76_Vel_0
Time_Shift_1
Note_On_50_Vel_0
Time_Shift_61
Note_On_68_Vel_0
Time_Shift_26
Note_On_50_Vel_30
Time_Shift_112
Sustain_Off
Time_Shift_34
Note_On_71_Vel_38
Time_Shift_20
Note_On_56_Vel_0
Time_Shift_6
Note_On_64_Vel_27
Time_Shift_5
Note_On_56_Vel_18
Time_Shift_122
Note_On_50_Vel_0
Time_Shift_4
Note_On_76_Vel_38
Time_Shift_1
Note_On_51_Vel_0
Time_Shift_8
Note_On_56_Vel_0
Note_On_63_Vel_0
Time_Shift_7
Note_On_56_Vel_27
Time_Shift_1
Note_On_72_Vel_0
Time_Shift_249
Note_On_65_Vel_26
Time_Shift_2
Note_On_55_Vel_16
Note_On_59_Vel_16
Time_Shift_6
Note_On_76_Vel_0
Note_On_71_Vel_0
Note_On_56_Vel_0
Time_Shift_4
Note_On_55_Vel_0
Time_Shift_15
Note_On_64_Vel_0
Note_On_75_Vel_0
Time_Shift_138
Sustain_On
Time_Shift_530
Note_On_65_Vel_0
Time_Shift_23
Note_On_59_Vel_0
Time_Shift_27
Sustain_Off
Time_Shift_17
Note_On_67_Vel_46
Time_Shift_14
Note_On_61_Vel_36
Time_Shift_18
Note_On_51_Vel_26
Time_Shift_155
Sustain_On
Time_Shift_371
Note_On_68_Vel_49
Time_Shift_3
Note_On_60_Vel_37
Time_Shift_6
Note_On_44_Vel_32
Time_Shift_8
Note_On_51_Vel_0
Time_Shift_1
Sustain_Off
Note_On_61_Vel_0
Time_Shift_2
Note_On_67_Vel_0
Time_Shift_108
Sustain_On
Time_Shift_61
Note_On_60_Vel_0
Time_Shift_51
Note_On_60_Vel_43
Time_Shift_146
Note_On_51_Vel_47
Time_Shift_3
Note_On_60_Vel_0
Time_Shift_8
Note_On_68_Vel_0
Time_Shift_3
Note_On_60_Vel_27
Time_Shift_5
Note_On_63_Vel_34
Note_On_68_Vel_25
Time_Shift_7
Note_On_63_Vel_0
Time_Shift_108
Note_On_68_Vel_0
Time_Shift_4
Note_On_50_Vel_47
Note_On_72_Vel_63
Time_Shift_3
Note_On_68_Vel_46
Time_Shift_50
Note_On_60_Vel_0
Note_On_44_Vel_0
Note_On_51_Vel_0
Sustain_Off
Time_Shift_96
Note_On_72_Vel_0
Time_Shift_3
Note_On_73_Vel_64
Time_Shift_3
Note_On_72_Vel_56
Time_Shift_2
Note_On_68_Vel_0
Sustain_On
Time_Shift_3
Note_On_61_Vel_44
Time_Shift_3
Note_On_68_Vel_32
Time_Shift_99
Note_On_70_Vel_65
Time_Shift_2
Note_On_51_Vel_40
Time_Shift_120
Sustain_Off
Time_Shift_4
Note_On_61_Vel_0
Time_Shift_2
Note_On_50_Vel_0
Time_Shift_1
Note_On_44_Vel_44
Time_Shift_3
Note_On_70_Vel_0
Time_Shift_1
Note_On_68_Vel_0
Note_On_72_Vel_0
Time_Shift_5
Note_On_72_Vel_42
Note_On_68_Vel_53
Time_Shift_87
Note_On_73_Vel_0
Time_Shift_23
Sustain_On
Time_Shift_27
Note_On_63_Vel_52
Time_Shift_7
Note_On_60_Vel_47
Time_Shift_97
Note_On_68_Vel_0
Time_Shift_5
Note_On_68_Vel_58
Time_Shift_2
Note_On_51_Vel_0
Time_Shift_11
Note_On_51_Vel_46
Time_Shift_82
Note_On_72_Vel_0
Time_Shift_6
Note_On_72_Vel_69
Time_Shift_24
Note_On_68_Vel_0
Time_Shift_3
Note_On_56_Vel_43
Time_Shift_1
Note_On_68_Vel_49
Time_Shift_14
Note_On_50_Vel_43
Time_Shift_30
Note_On_60_Vel_0
Sustain_Off
Time_Shift_1
Note_On_63_Vel_0
Time_Shift_3
Note_On_51_Vel_0
Time_Shift_33
Note_On_72_Vel_0
Time_Shift_5
Note_On_73_Vel_66
Time_Shift_2
Note_On_72_Vel_59
Time_Shift_8
Note_On_44_Vel_0
Note_On_50_Vel_0
Time_Shift_31
Sustain_On
Time_Shift_23
Note_On_68_Vel_0
Time_Shift_26
Note_On_70_Vel_76
Time_Shift_3
Note_On_51_Vel_47
Time_Shift_117
Note_On_56_Vel_0
Time_Shift_5
Sustain_Off
Time_Shift_2
Note_On_56_Vel_55
Time_Shift_2
Note_On_68_Vel_63
Time_Shift_16
Note_On_51_Vel_0
Time_Shift_9
Note_On_70_Vel_0
Time_Shift_47
Note_On_68_Vel_0
Time_Shift_3
Note_On_56_Vel_0
Time_Shift_39
Sustain_On
Time_Shift_2
Note_On_63_Vel_54
Time_Shift_1
Note_On_60_Vel_54
Time_Shift_35
Note_On_73_Vel_0
Time_Shift_31
Note_On_72_Vel_0
Time_Shift_5
Note_On_68_Vel_62
Time_Shift_18
Note_On_51_Vel_52
Time_Shift_73
Note_On_72_Vel_73
Time_Shift_30
Note_On_51_Vel_0
Note_On_60_Vel_0
Note_On_50_Vel_60
Sustain_Off
Time_Shift_1
Note_On_63_Vel_0
Time_Shift_6
Note_On_68_Vel_0
Time_Shift_66
Note_On_72_Vel_0
Sustain_On
Time_Shift_8
Note_On_50_Vel_0
Time_Shift_1
Note_On_73_Vel_73
Time_Shift_3
Note_On_72_Vel_65
Time_Shift_75
Note_On_70_Vel_74
Time_Shift_1
Note_On_51_Vel_55
Time_Shift_77
Sustain_Off
Time_Shift_27
Note_On_72_Vel_0
Time_Shift_10
Note_On_72_Vel_60
Time_Shift_1
Note_On_44_Vel_52
Note_On_68_Vel_69
Time_Shift_24
Note_On_70_Vel_0
Time_Shift_42
Sustain_On
Time_Shift_36
Note_On_63_Vel_66
Time_Shift_7
Note_On_60_Vel_58
Time_Shift_11
Note_On_73_Vel_0
Time_Shift_54
Note_On_68_Vel_0
Time_Shift_9
Note_On_68_Vel_69
Time_Shift_58
Note_On_60_Vel_0
Time_Shift_6
Note_On_51_Vel_0
Time_Shift_4
Sustain_Off
Time_Shift_7
Note_On_72_Vel_0
Time_Shift_6
Note_On_72_Vel_74
Time_Shift_21
Note_On_67_Vel_58
Note_On_55_Vel_53
Time_Shift_4
Sustain_On
Time_Shift_2
Note_On_50_Vel_55
Time_Shift_71
Note_On_73_Vel_68
Time_Shift_4
Note_On_72_Vel_0
Time_Shift_10
Note_On_72_Vel_57
Time_Shift_40
Note_On_70_Vel_76
Time_Shift_57
Note_On_44_Vel_0
Time_Shift_5
Note_On_72_Vel_0
Time_Shift_2
Note_On_67_Vel_0
Time_Shift_1
Note_On_44_Vel_67
Sustain_Off
Time_Shift_2
Note_On_73_Vel_0
Time_Shift_2
Note_On_50_Vel_0
Time_Shift_3
Note_On_70_Vel_0
Time_Shift_1
Note_On_63_Vel_0
Note_On_68_Vel_0
Time_Shift_15
Note_On_55_Vel_0
Time_Shift_17
Note_On_68_Vel_76
Time_Shift_52
Sustain_On
Time_Shift_47
Note_On_60_Vel_72
Time_Shift_3
Note_On_80_Vel_82
Time_Shift_148
Note_On_77_Vel_74
Time_Shift_113
Note_On_75_Vel_73
Time_Shift_91
Note_On_72_Vel_65
Time_Shift_1
Note_On_73_Vel_75
Time_Shift_81
Note_On_72_Vel_0
Time_Shift_6
Note_On_72_Vel_73
Time_Shift_100
Note_On_70_Vel_78
Time_Shift_94
Note_On_68_Vel_0
Time_Shift_10
Note_On_68_Vel_74
Time_Shift_103
Note_On_65_Vel_70
Time_Shift_94
Note_On_75_Vel_0
Time_Shift_9
Note_On_75_Vel_62
Time_Shift_1
Note_On_63_Vel_76
Time_Shift_98
Note_On_73_Vel_0
Time_Shift_4
Note_On_73_Vel_57
Time_Shift_3
Note_On_61_Vel_67
Time_Shift_85
Note_On_72_Vel_0
Time_Shift_7
Note_On_60_Vel_0
Time_Shift_4
Note_On_72_Vel_58
Time_Shift_4
Note_On_60_Vel_71
Time_Shift_88
Note_On_58_Vel_77
Time_Shift_1
Note_On_63_Vel_0
Time_Shift_1
Note_On_77_Vel_0
Note_On_61_Vel_0
Note_On_60_Vel_0
Note_On_68_Vel_0
Note_On_72_Vel_0
Note_On_65_Vel_0
Note_On_75_Vel_0
Time_Shift_1
Note_On_70_Vel_0
Note_On_73_Vel_0
Time_Shift_9
Note_On_80_Vel_0
Time_Shift_54
Note_On_44_Vel_0
Time_Shift_4
Sustain_Off
Time_Shift_39
Note_On_75_Vel_64
Time_Shift_1
Note_On_56_Vel_77
Time_Shift_9
Note_On_75_Vel_0
Time_Shift_19
Note_On_58_Vel_0
Time_Shift_69
Note_On_53_Vel_67
Time_Shift_7
Note_On_56_Vel_0
Time_Shift_87
Note_On_51_Vel_76
Time_Shift_23
Note_On_53_Vel_0
Time_Shift_83
Note_On_49_Vel_80
Time_Shift_46
Note_On_51_Vel_0
Time_Shift_63
Note_On_48_Vel_76
Time_Shift_33
Note_On_49_Vel_0
Time_Shift_72
Note_On_46_Vel_88
Time_Shift_39
Note_On_48_Vel_0
Time_Shift_128
Note_On_44_Vel_85
Time_Shift_34
Note_On_46_Vel_0
Time_Shift_219
Sustain_On
Time_Shift_272
Note_On_43_Vel_83
Time_Shift_1
Note_On_55_Vel_75
Time_Shift_30
Sustain_Off
Time_Shift_27
Note_On_44_Vel_0
Time_Shift_100
Note_On_43_Vel_0
Time_Shift_85
Sustain_On
Time_Shift_7
Note_On_55_Vel_0
Time_Shift_548
Note_On_72_Vel_72
Time_Shift_1
Note_On_60_Vel_87
Time_Shift_4
Note_On_72_Vel_0
Time_Shift_28
Sustain_Off
Time_Shift_157
Sustain_On
Time_Shift_339
Note_On_41_Vel_44
Time_Shift_339
Note_On_65_Vel_75
Time_Shift_2
Note_On_48_Vel_45
Time_Shift_44
Note_On_41_Vel_0
Time_Shift_10
Sustain_Off
Time_Shift_49
Sustain_On
Time_Shift_228
Note_On_41_Vel_47
Time_Shift_279
Note_On_67_Vel_75
Time_Shift_18
Note_On_52_Vel_46
Time_Shift_1
Note_On_36_Vel_44
Time_Shift_30
Sustain_Off
Time_Shift_28
Note_On_65_Vel_0
Time_Shift_5
Note_On_41_Vel_0
Time_Shift_48
Sustain_On
Time_Shift_23
Note_On_48_Vel_0
Time_Shift_85
Note_On_36_Vel_0
Time_Shift_105
Note_On_36_Vel_41
Time_Shift_240
Note_On_52_Vel_0
Time_Shift_16
Note_On_60_Vel_0
Time_Shift_5
Note_On_68_Vel_79
Time_Shift_7
Note_On_41_Vel_39
Time_Shift_20
Note_On_48_Vel_38
Time_Shift_1
Note_On_56_Vel_49
Time_Shift_1
Sustain_Off
Time_Shift_4
Note_On_67_Vel_0
Time_Shift_62
Note_On_41_Vel_0
Time_Shift_30
Sustain_On
Time_Shift_116
Note_On_48_Vel_0
Time_Shift_87
Note_On_41_Vel_40
Time_Shift_289
Note_On_36_Vel_0
Time_Shift_2
Note_On_70_Vel_84
Time_Shift_2
Note_On_41_Vel_0
Time_Shift_1
Note_On_56_Vel_0
Time_Shift_7
Sustain_Off
Time_Shift_126
Note_On_68_Vel_0
Time_Shift_31
Sustain_On
Time_Shift_211
Note_On_39_Vel_48
Time_Shift_341
Note_On_67_Vel_61
Time_Shift_8
Note_On_67_Vel_0
Time_Shift_16
Note_On_39_Vel_0
Time_Shift_3
Note_On_55_Vel_42
Time_Shift_1
Note_On_61_Vel_38
Note_On_49_Vel_41
Time_Shift_7
Note_On_39_Vel_39
Time_Shift_1
Note_On_51_Vel_39
Time_Shift_380
Note_On_39_Vel_0
Time_Shift_5
Note_On_39_Vel_50
Time_Shift_33
Note_On_49_Vel_0
Time_Shift_192
Note_On_70_Vel_0
Time_Shift_7
Note_On_70_Vel_82
Time_Shift_104
Note_On_39_Vel_0
Note_On_55_Vel_0
Time_Shift_1
Note_On_61_Vel_0
Time_Shift_10
Sustain_Off
Time_Shift_8
Note_On_51_Vel_0
Time_Shift_63
Note_On_72_Vel_75
Time_Shift_10
Note_On_60_Vel_44
Time_Shift_8
Note_On_56_Vel_45
Time_Shift_1
Note_On_51_Vel_36
Time_Shift_6
Note_On_70_Vel_0
Time_Shift_43
Sustain_On
Time_Shift_298
Note_On_44_Vel_44
Time_Shift_4
Note_On_32_Vel_36
Time_Shift_67
Note_On_32_Vel_0
Time_Shift_461
Note_On_71_Vel_58
Time_Shift_16
Sustain_Off
Time_Shift_3
Note_On_44_Vel_0
Note_On_56_Vel_0
Time_Shift_1
Note_On_51_Vel_0
Time_Shift_8
Note_On_43_Vel_25
Time_Shift_1
Note_On_53_Vel_20
Time_Shift_2
Note_On_55_Vel_25
Time_Shift_1
Note_On_59_Vel_24
Time_Shift_1
Note_On_62_Vel_24
Time_Shift_5
Note_On_60_Vel_0
Time_Shift_15
Note_On_72_Vel_0
Time_Shift_138
Sustain_On
Time_Shift_369
Note_On_43_Vel_0
Sustain_Off
Time_Shift_5
Note_On_43_Vel_32
Time_Shift_34
Note_On_53_Vel_0
Time_Shift_46
Sustain_On
Time_Shift_317
Note_On_72_Vel_60
Time_Shift_30
Sustain_Off
Time_Shift_4
Note_On_43_Vel_0
Time_Shift_2
Note_On_59_Vel_0
Note_On_62_Vel_0
Note_On_55_Vel_0
Time_Shift_2
Note_On_71_Vel_0
Time_Shift_82
Sustain_On
Time_Shift_224
Note_On_48_Vel_27
Time_Shift_137
Note_On_72_Vel_0
Time_Shift_241
Note_On_74_Vel_52
Time_Shift_11
Sustain_Off
Time_Shift_3
Note_On_65_Vel_25
Time_Shift_24
Note_On_47_Vel_21
Note_On_59_Vel_25
Time_Shift_2
Note_On_55_Vel_22
Time_Shift_11
Note_On_48_Vel_0
Time_Shift_23
Sustain_On
Time_Shift_388
Note_On_43_Vel_31
Time_Shift_111
Note_On_47_Vel_0
Time_Shift_80
Note_On_75_Vel_46
Time_Shift_170
Sustain_Off
Time_Shift_18
Note_On_65_Vel_0
Time_Shift_1
Note_On_74_Vel_0
Time_Shift_1
Note_On_72_Vel_55
Time_Shift_1
Note_On_59_Vel_0
Time_Shift_6
Note_On_43_Vel_0
Time_Shift_8
Note_On_55_Vel_0
Time_Shift_6
Note_On_63_Vel_31
Time_Shift_3
Note_On_55_Vel_18
Time_Shift_14
Sustain_On
Time_Shift_138
Note_On_75_Vel_0
Time_Shift_182
Note_On_48_Vel_33
Time_Shift_444
Note_On_73_Vel_61
Time_Shift_9
Note_On_29_Vel_35
Time_Shift_2
Note_On_63_Vel_0
Time_Shift_5
Note_On_63_Vel_38
Time_Shift_3
Note_On_29_Vel_0
Time_Shift_1
Sustain_Off
Time_Shift_4
Note_On_57_Vel_29
Time_Shift_15
Note_On_72_Vel_0
Note_On_55_Vel_0
Time_Shift_2
Note_On_48_Vel_0
Time_Shift_39
Sustain_On
Time_Shift_464
Note_On_41_Vel_30
Time_Shift_453
Note_On_70_Vel_64
Time_Shift_68
Note_On_57_Vel_0
Time_Shift_2
Sustain_Off
Note_On_41_Vel_0
Time_Shift_19
Note_On_63_Vel_0
Time_Shift_39
Note_On_73_Vel_0
Time_Shift_130
Sustain_On
Time_Shift_65
Note_On_46_Vel_37
Time_Shift_361
Note_On_72_Vel_61
Time_Shift_6
Note_On_46_Vel_0
Time_Shift_1
Sustain_Off
Time_Shift_1
Note_On_70_Vel_0
Time_Shift_5
Note_On_57_Vel_37
Time_Shift_4
Note_On_63_Vel_39
Note_On_53_Vel_26
Time_Shift_57
Sustain_On
Time_Shift_285
Note_On_41_Vel_37
Time_Shift_55
Note_On_73_Vel_70
Time_Shift_262
Sustain_Off
Time_Shift_1
Note_On_57_Vel_0
Time_Shift_2
Note_On_63_Vel_0
Time_Shift_1
Note_On_73_Vel_0
Time_Shift_1
Note_On_41_Vel_0
Time_Shift_7
Note_On_72_Vel_0
Time_Shift_26
Note_On_70_Vel_70
Time_Shift_21
Note_On_58_Vel_32
Time_Shift_145
Sustain_On
Time_Shift_191
Note_On_46_Vel_34
Time_Shift_430
Note_On_68_Vel_52
Note_On_60_Vel_28
Time_Shift_5
Sustain_Off
Time_Shift_3
Note_On_52_Vel_28
Time_Shift_4
Note_On_46_Vel_0
Time_Shift_1
Note_On_70_Vel_0
Time_Shift_19
Note_On_53_Vel_0
Time_Shift_176
Sustain_On
Time_Shift_396
Note_On_48_Vel_26
Time_Shift_439
Note_On_67_Vel_45
Time_Shift_317
Note_On_60_Vel_0
Time_Shift_9
Note_On_60_Vel_57
Time_Shift_40
Sustain_Off
Time_Shift_3
Note_On_52_Vel_0
Time_Shift_1
Note_On_68_Vel_0
Time_Shift_1
Note_On_48_Vel_0
Time_Shift_8
Note_On_58_Vel_0
Time_Shift_138
Sustain_On
Time_Shift_208
Note_On_67_Vel_0
Time_Shift_11
Note_On_41_Vel_43
Time_Shift_344
Note_On_65_Vel_63
Time_Shift_12
Note_On_60_Vel_0
Time_Shift_4
Note_On_56_Vel_45
Time_Shift_5
Note_On_56_Vel_0
Time_Shift_3
Note_On_48_Vel_35
Note_On_44_Vel_35
Time_Shift_5
Note_On_44_Vel_0
Time_Shift_276
Note_On_41_Vel_0
Time_Shift_8
Note_On_41_Vel_45
Time_Shift_303
Note_On_67_Vel_65
Time_Shift_4
Note_On_48_Vel_0
Time_Shift_3
Sustain_Off
Time_Shift_6
Note_On_48_Vel_38
Time_Shift_2
Note_On_52_Vel_41
Time_Shift_1
Note_On_58_Vel_42
Time_Shift_1
Note_On_55_Vel_32
Time_Shift_14
Note_On_41_Vel_0
Time_Shift_119
Note_On_55_Vel_0
Time_Shift_54
Note_On_65_Vel_0
Time_Shift_53
Sustain_On
Time_Shift_90
Note_On_36_Vel_48
Time_Shift_283
Note_On_68_Vel_77
Time_Shift_11
Note_On_52_Vel_0
Time_Shift_3
Note_On_58_Vel_0
Time_Shift_1
Sustain_Off
Time_Shift_2
Note_On_41_Vel_41
Note_On_53_Vel_42
Time_Shift_2
Note_On_48_Vel_0
Time_Shift_4
Note_On_48_Vel_39
Time_Shift_1
Note_On_56_Vel_51
Time_Shift_72
Note_On_67_Vel_0
Time_Shift_23
Note_On_53_Vel_0
Time_Shift_8
Note_On_41_Vel_0
Time_Shift_130
Sustain_On
Time_Shift_80
Note_On_41_Vel_56
Time_Shift_371
Note_On_70_Vel_82
Time_Shift_2
Note_On_36_Vel_0
Time_Shift_2
Note_On_41_Vel_0
Time_Shift_1
Sustain_Off
Time_Shift_1
Note_On_48_Vel_0
Note_On_56_Vel_0
Time_Shift_277
Note_On_39_Vel_54
Time_Shift_42
Sustain_On
Time_Shift_246
Note_On_68_Vel_0
Time_Shift_13
Note_On_51_Vel_46
Time_Shift_28
Note_On_55_Vel_50
Time_Shift_81
Note_On_70_Vel_0
Time_Shift_7
Note_On_70_Vel_78
Time_Shift_5
Note_On_61_Vel_63
Time_Shift_234
Note_On_70_Vel_0
Time_Shift_4
Note_On_70_Vel_80
Time_Shift_119
Note_On_70_Vel_0
Time_Shift_9
Note_On_70_Vel_81
Time_Shift_133
Note_On_72_Vel_77
Time_Shift_19
Note_On_39_Vel_0
Time_Shift_11
Note_On_39_Vel_46
Time_Shift_81
Note_On_70_Vel_0
Time_Shift_9
Note_On_70_Vel_84
Time_Shift_118
Note_On_68_Vel_76
Time_Shift_96
Note_On_70_Vel_0
Time_Shift_10
Note_On_70_Vel_78
Time_Shift_82
Sustain_Off
Time_Shift_4
Note_On_55_Vel_0
Time_Shift_2
Note_On_61_Vel_0
Time_Shift_40
Note_On_72_Vel_0
Time_Shift_12
Note_On_72_Vel_73
Time_Shift_8
Note_On_70_Vel_0
Time_Shift_3
Note_On_51_Vel_0
Time_Shift_3
Note_On_60_Vel_45
Time_Shift_3
Note_On_51_Vel_38
Note_On_56_Vel_47
Time_Shift_10
Note_On_68_Vel_0
Time_Shift_123
Sustain_On
Time_Shift_265
Note_On_44_Vel_43
Time_Shift_4
Note_On_39_Vel_0
Time_Shift_414
Note_On_74_Vel_61
Time_Shift_31
Sustain_Off
Note_On_72_Vel_0
Time_Shift_1
Note_On_44_Vel_0
Time_Shift_1
Note_On_60_Vel_0
Note_On_51_Vel_0
Note_On_56_Vel_0
Time_Shift_436
Sustain_On
Time_Shift_10
Note_On_44_Vel_35
Time_Shift_585
Note_On_76_Vel_48
Sustain_Off
Time_Shift_12
Note_On_62_Vel_26
Time_Shift_4
Note_On_59_Vel_28
Time_Shift_6
Note_On_52_Vel_23
Time_Shift_28
Note_On_44_Vel_0
Time_Shift_100
Note_On_74_Vel_0
Time_Shift_23
Sustain_On
Time_Shift_53
Note_On_62_Vel_0
Time_Shift_123
Note_On_59_Vel_0
Time_Shift_165
Note_On_44_Vel_31
Time_Shift_413
Note_On_74_Vel_43
Note_On_72_Vel_36
Time_Shift_6
Note_On_52_Vel_0
Time_Shift_2
Note_On_60_Vel_27
Note_On_57_Vel_25
Time_Shift_2
Note_On_69_Vel_28
Note_On_76_Vel_0
Note_On_44_Vel_0
Time_Shift_1
Sustain_Off
Time_Shift_4
Note_On_52_Vel_25
Time_Shift_175
Sustain_On
Time_Shift_259
Note_On_45_Vel_33
Time_Shift_287
Note_On_72_Vel_0
Time_Shift_9
Note_On_72_Vel_53
Time_Shift_187
Sustain_Off
Time_Shift_39
Note_On_60_Vel_0
Time_Shift_3
Note_On_72_Vel_0
Note_On_74_Vel_0
Time_Shift_4
Note_On_74_Vel_41
Note_On_72_Vel_35
Time_Shift_3
Note_On_52_Vel_0
Time_Shift_8
Note_On_45_Vel_0
Time_Shift_2
Note_On_52_Vel_23
Time_Shift_90
Sustain_On
Time_Shift_372
Note_On_41_Vel_25
Time_Shift_492
Sustain_Off
Time_Shift_15
Note_On_67_Vel_43
Time_Shift_19
Note_On_59_Vel_23
Time_Shift_1
Note_On_57_Vel_0
Note_On_72_Vel_0
Time_Shift_1
Note_On_55_Vel_30
Time_Shift_14
Note_On_69_Vel_0
Time_Shift_39
Note_On_74_Vel_0
Time_Shift_38
Note_On_52_Vel_0
Sustain_On
Time_Shift_23
Note_On_59_Vel_0
Time_Shift_31
Note_On_67_Vel_0
Time_Shift_11
Note_On_67_Vel_47
Time_Shift_111
Note_On_69_Vel_49
Time_Shift_93
Note_On_67_Vel_0
Time_Shift_5
Note_On_67_Vel_46
Time_Shift_131
Note_On_66_Vel_44
Time_Shift_110
Note_On_67_Vel_0
Time_Shift_7
Note_On_67_Vel_48
Time_Shift_208
Note_On_55_Vel_0
Sustain_Off
Time_Shift_4
Note_On_43_Vel_33
Time_Shift_3
Note_On_55_Vel_28
Time_Shift_8
Note_On_41_Vel_0
Time_Shift_2
Note_On_69_Vel_0
Note_On_67_Vel_0
Time_Shift_1
Note_On_66_Vel_0
Time_Shift_151
Sustain_On
Time_Shift_83
Note_On_81_Vel_40
Time_Shift_158
Note_On_79_Vel_44
Time_Shift_130
Note_On_77_Vel_43
Time_Shift_130
Note_On_74_Vel_49
Time_Shift_118
Note_On_76_Vel_45
Time_Shift_138
Note_On_69_Vel_44
Time_Shift_124
Note_On_71_Vel_56
Time_Shift_143
Sustain_Off
Time_Shift_6
Note_On_74_Vel_0
Time_Shift_1
Note_On_79_Vel_0
Note_On_77_Vel_0
Time_Shift_28
Note_On_81_Vel_0
Time_Shift_1
Note_On_72_Vel_50
Time_Shift_15
Note_On_64_Vel_37
Time_Shift_7
Note_On_55_Vel_0
Time_Shift_10
Note_On_60_Vel_31
Time_Shift_2
Note_On_55_Vel_22
Time_Shift_11
Note_On_43_Vel_0
Note_On_71_Vel_0
Time_Shift_16
Note_On_76_Vel_0
Time_Shift_7
Note_On_69_Vel_0
Time_Shift_47
Sustain_On
Time_Shift_362
Note_On_48_Vel_30
Time_Shift_329
Note_On_60_Vel_0
Time_Shift_11
Note_On_60_Vel_41
Time_Shift_21
Note_On_65_Vel_35
Time_Shift_14
Note_On_56_Vel_39
Time_Shift_13
Sustain_Off
Time_Shift_10
Note_On_55_Vel_0
Note_On_64_Vel_0
Note_On_72_Vel_0
Time_Shift_23
Sustain_On
Time_Shift_346
Note_On_48_Vel_0
Time_Shift_5
Note_On_48_Vel_31
Time_Shift_355
Note_On_60_Vel_0
Time_Shift_3
Note_On_62_Vel_44
Time_Shift_2
Note_On_60_Vel_45
Time_Shift_25
Sustain_Off
Time_Shift_5
Note_On_56_Vel_0
Note_On_65_Vel_0
Time_Shift_119
Sustain_On
Time_Shift_238
Note_On_48_Vel_0
Time_Shift_5
Note_On_48_Vel_35
Time_Shift_420
Note_On_65_Vel_33
Time_Shift_13
Note_On_60_Vel_0
Time_Shift_5
Note_On_60_Vel_29
Time_Shift_2
Sustain_Off
Time_Shift_1
Note_On_56_Vel_32
Time_Shift_23
Note_On_62_Vel_0
Time_Shift_15
Sustain_On
Time_Shift_468
Note_On_48_Vel_0
Time_Shift_12
Note_On_48_Vel_29
Time_Shift_402
Note_On_72_Vel_57
Time_Shift_324
Note_On_72_Vel_0
Time_Shift_6
Note_On_72_Vel_56
Time_Shift_34
Sustain_Off
Time_Shift_23
Note_On_56_Vel_0
Time_Shift_29
Sustain_On
Time_Shift_15
Note_On_60_Vel_0
Time_Shift_54
Note_On_65_Vel_0
Time_Shift_115
Note_On_72_Vel_0
Time_Shift_203
Note_On_72_Vel_72
Time_Shift_42
Sustain_Off
Time_Shift_5
Note_On_60_Vel_35
Time_Shift_19
Sustain_On
Time_Shift_289
Note_On_64_Vel_39
Time_Shift_3
Note_On_60_Vel_0
Time_Shift_4
Note_On_55_Vel_41
Note_On_58_Vel_40
Time_Shift_1
Note_On_60_Vel_31
Time_Shift_19
Sustain_Off
Time_Shift_83
Sustain_On
Time_Shift_123
Note_On_60_Vel_0
Time_Shift_85
Note_On_55_Vel_0
Time_Shift_2
Note_On_79_Vel_78
Time_Shift_9
Note_On_55_Vel_36
Time_Shift_1
Note_On_60_Vel_45
Time_Shift_264
Note_On_64_Vel_0
Note_On_72_Vel_0
Time_Shift_12
Sustain_Off
Time_Shift_28
Note_On_80_Vel_66
Time_Shift_14
Note_On_60_Vel_0
Time_Shift_3
Note_On_68_Vel_36
Time_Shift_1
Note_On_56_Vel_33
Time_Shift_2
Note_On_60_Vel_27
Note_On_53_Vel_26
Time_Shift_25
Note_On_58_Vel_0
Time_Shift_3
Note_On_79_Vel_0
Note_On_55_Vel_0
Time_Shift_1
Note_On_60_Vel_0
Time_Shift_11
Note_On_48_Vel_0
Time_Shift_77
Sustain_On
Time_Shift_107
Note_On_68_Vel_0
Time_Shift_105
Note_On_60_Vel_37
Time_Shift_250
Sustain_Off
Time_Shift_29
Note_On_53_Vel_0
Note_On_56_Vel_0
Time_Shift_5
Note_On_65_Vel_29
Time_Shift_1
Note_On_53_Vel_24
Time_Shift_3
Note_On_56_Vel_30
Time_Shift_68
Sustain_On
Time_Shift_438
Note_On_60_Vel_0
Time_Shift_5
Note_On_60_Vel_34
Time_Shift_45
Note_On_72_Vel_52
Time_Shift_289
Note_On_73_Vel_52
Time_Shift_37
Note_On_80_Vel_0
Time_Shift_27
Note_On_75_Vel_47
Time_Shift_58
Note_On_72_Vel_0
Time_Shift_3
Sustain_Off
Time_Shift_3
Note_On_72_Vel_37
Time_Shift_3
Note_On_56_Vel_0
Time_Shift_1
Note_On_60_Vel_0
Time_Shift_1
Note_On_73_Vel_0
Time_Shift_16
Note_On_58_Vel_21
Time_Shift_3
Note_On_65_Vel_0
Time_Shift_154
Note_On_75_Vel_0
Time_Shift_69
Sustain_On
Time_Shift_100
Note_On_72_Vel_0
Time_Shift_11
Note_On_72_Vel_52
Time_Shift_92
Note_On_60_Vel_32
Time_Shift_197
Note_On_74_Vel_53
Time_Shift_161
Note_On_58_Vel_0
Time_Shift_9
Note_On_58_Vel_29
Time_Shift_7
Note_On_55_Vel_25
Time_Shift_12
Note_On_72_Vel_0
Time_Shift_2
Note_On_60_Vel_0
Time_Shift_5
Note_On_64_Vel_38
Time_Shift_8
Note_On_76_Vel_57
Time_Shift_3
Note_On_64_Vel_0
Time_Shift_4
Sustain_Off
Time_Shift_103
Sustain_On
Time_Shift_86
Note_On_77_Vel_60
Time_Shift_60
Note_On_74_Vel_0
Time_Shift_21
Note_On_60_Vel_34
Time_Shift_109
Note_On_79_Vel_58
Time_Shift_158
Sustain_Off
Time_Shift_33
Note_On_80_Vel_53
Time_Shift_10
Note_On_53_Vel_0
Note_On_80_Vel_0
Time_Shift_2
Note_On_68_Vel_33
Time_Shift_5
Note_On_68_Vel_0
Time_Shift_1
Note_On_56_Vel_35
Note_On_53_Vel_19
Time_Shift_11
Note_On_77_Vel_0
Time_Shift_1
Note_On_58_Vel_0
Time_Shift_3
Note_On_55_Vel_0
Note_On_76_Vel_0
Time_Shift_3
Note_On_60_Vel_0
Time_Shift_43
Note_On_79_Vel_0
Time_Shift_115
Sustain_On
Time_Shift_120
Note_On_60_Vel_37
Time_Shift_256
Note_On_56_Vel_0
Time_Shift_6
Note_On_65_Vel_28
Time_Shift_5
Note_On_56_Vel_33
Time_Shift_319
Note_On_60_Vel_0
Time_Shift_5
Note_On_60_Vel_38
Time_Shift_378
Sustain_Off
Time_Shift_6
Note_On_79_Vel_68
Time_Shift_4
Note_On_56_Vel_0
Note_On_60_Vel_0
Time_Shift_1
Note_On_53_Vel_0
Time_Shift_5
Note_On_36_Vel_34
Time_Shift_9
Note_On_36_Vel_0
Time_Shift_69
Note_On_65_Vel_0
Time_Shift_23
Sustain_On
Time_Shift_387
Note_On_77_Vel_70
Note_On_56_Vel_37
Time_Shift_4
Note_On_56_Vel_0
Time_Shift_1
Note_On_58_Vel_37
Time_Shift_2
Note_On_70_Vel_43
Time_Shift_205
Note_On_79_Vel_0
Time_Shift_103
Note_On_68_Vel_72
Time_Shift_8
Note_On_56_Vel_44
Time_Shift_22
Sustain_Off
Time_Shift_97
Sustain_On
Time_Shift_154
Note_On_56_Vel_0
Note_On_70_Vel_0
Time_Shift_4
Note_On_70_Vel_76
Note_On_56_Vel_45
Time_Shift_259
Note_On_56_Vel_0
Time_Shift_9
Note_On_70_Vel_0
Time_Shift_7
Sustain_Off
Time_Shift_7
Note_On_72_Vel_71
Time_Shift_6
Note_On_68_Vel_0
Time_Shift_4
Note_On_39_Vel_42
Time_Shift_3
Note_On_58_Vel_0
Time_Shift_77
Sustain_On
Time_Shift_100
Note_On_77_Vel_0
Time_Shift_173
Note_On_51_Vel_46
Time_Shift_272
Note_On_72_Vel_0
Time_Shift_12
Note_On_72_Vel_58
Time_Shift_8
Note_On_68_Vel_46
Time_Shift_7
Note_On_60_Vel_40
Time_Shift_357
Note_On_51_Vel_0
Time_Shift_5
Note_On_51_Vel_38
Time_Shift_221
Note_On_67_Vel_41
Time_Shift_74
Note_On_72_Vel_0
Time_Shift_6
Note_On_72_Vel_49
Time_Shift_105
Sustain_Off
Note_On_39_Vel_0
Time_Shift_1
Note_On_60_Vel_0
Time_Shift_18
Note_On_68_Vel_0
Time_Shift_21
Note_On_75_Vel_50
Time_Shift_4
Note_On_39_Vel_34
Time_Shift_75
Sustain_On
Time_Shift_92
Note_On_67_Vel_0
Time_Shift_238
Note_On_51_Vel_0
Time_Shift_6
Note_On_51_Vel_36
Time_Shift_366
Note_On_73_Vel_52
Time_Shift_8
Note_On_55_Vel_27
Time_Shift_2
Note_On_67_Vel_35
Time_Shift_2
Note_On_55_Vel_0
Time_Shift_5
Sustain_Off
Time_Shift_2
Note_On_61_Vel_30
Time_Shift_19
Note_On_75_Vel_0
Time_Shift_13
Sustain_On
Time_Shift_23
Note_On_72_Vel_0
Time_Shift_227
Note_On_44_Vel_15
Time_Shift_11
Note_On_44_Vel_0
Time_Shift_23
Note_On_39_Vel_0
Time_Shift_146
Note_On_51_Vel_0
Time_Shift_11
Note_On_51_Vel_29
Time_Shift_323
Note_On_72_Vel_48
Time_Shift_30
Note_On_56_Vel_21
Time_Shift_5
Note_On_56_Vel_0
Time_Shift_2
Note_On_68_Vel_32
Time_Shift_159
Note_On_72_Vel_0
Time_Shift_11
Note_On_72_Vel_50
Time_Shift_1
Sustain_Off
Time_Shift_3
Note_On_51_Vel_0
Time_Shift_4
Note_On_61_Vel_0
Time_Shift_4
Note_On_67_Vel_0
Time_Shift_16
Note_On_60_Vel_50
Time_Shift_7
Note_On_73_Vel_0
Sustain_On
Time_Shift_31
Note_On_68_Vel_0
Time_Shift_5
Note_On_32_Vel_24
Time_Shift_71
Note_On_60_Vel_0
Time_Shift_10
Note_On_60_Vel_45
Time_Shift_138
Note_On_63_Vel_50
Time_Shift_124
Note_On_68_Vel_51
Time_Shift_136
Note_On_72_Vel_0
Time_Shift_5
Note_On_72_Vel_57
Time_Shift_4
Note_On_51_Vel_34
Time_Shift_412
Note_On_56_Vel_35
Time_Shift_1
Note_On_48_Vel_30
Time_Shift_599
Note_On_48_Vel_0
Time_Shift_11
Note_On_48_Vel_28
Time_Shift_158
Note_On_72_Vel_0
Time_Shift_6
Note_On_72_Vel_73
Time_Shift_224
Note_On_32_Vel_0
Time_Shift_12
Note_On_48_Vel_0
Time_Shift_1
Note_On_60_Vel_0
Note_On_68_Vel_0
Time_Shift_1
Note_On_56_Vel_0
Note_On_72_Vel_0
Time_Shift_6
Note_On_36_Vel_31
Time_Shift_3
Note_On_63_Vel_0
Time_Shift_8
Note_On_51_Vel_0
Time_Shift_3
Sustain_Off
Time_Shift_20
Sustain_On
Time_Shift_281
Note_On_72_Vel_85
Time_Shift_54
Note_On_60_Vel_42
Time_Shift_264
Note_On_72_Vel_0
Time_Shift_4
Note_On_72_Vel_46
Time_Shift_3
Note_On_58_Vel_41
Time_Shift_17
Note_On_55_Vel_43
Time_Shift_283
Note_On_55_Vel_0
Note_On_60_Vel_0
Time_Shift_3
Note_On_79_Vel_78
Time_Shift_2
Note_On_55_Vel_36
Time_Shift_1
Note_On_60_Vel_42
Time_Shift_315
Sustain_Off
Time_Shift_13
Note_On_80_Vel_68
Time_Shift_4
Note_On_36_Vel_0
Time_Shift_8
Note_On_60_Vel_0
Time_Shift_3
Note_On_58_Vel_0
Note_On_55_Vel_0
Time_Shift_2
Note_On_53_Vel_24
Note_On_68_Vel_33
Time_Shift_1
Note_On_56_Vel_37
Time_Shift_1
Note_On_79_Vel_0
Time_Shift_1
Note_On_60_Vel_22
Time_Shift_30
Note_On_72_Vel_0
Time_Shift_31
Note_On_60_Vel_0
Sustain_On
Time_Shift_243
Note_On_72_Vel_35
Time_Shift_2
Note_On_60_Vel_40
Time_Shift_247
Note_On_53_Vel_0
Note_On_56_Vel_0
Time_Shift_6
Note_On_53_Vel_26
Time_Shift_4
Note_On_56_Vel_35
Time_Shift_320
Note_On_60_Vel_0
Time_Shift_10
Note_On_60_Vel_46
Time_Shift_120
Note_On_53_Vel_0
Note_On_60_Vel_0
Time_Shift_2
Note_On_56_Vel_0
Time_Shift_6
Note_On_72_Vel_0
Time_Shift_1
Note_On_53_Vel_34
Time_Shift_2
Note_On_60_Vel_47
Time_Shift_8
Note_On_72_Vel_68
Time_Shift_132
Note_On_73_Vel_70
Time_Shift_54
Note_On_75_Vel_69
Time_Shift_13
Note_On_72_Vel_0
Time_Shift_2
Sustain_Off
Time_Shift_1
Note_On_60_Vel_0
Time_Shift_10
Note_On_68_Vel_0
Note_On_73_Vel_0
Time_Shift_36
Note_On_73_Vel_73
Time_Shift_41
Note_On_75_Vel_0
Time_Shift_30
Sustain_On
Time_Shift_113
Note_On_72_Vel_77
Time_Shift_151
Note_On_84_Vel_75
Time_Shift_12
Note_On_60_Vel_51
Time_Shift_152
Note_On_83_Vel_75
Time_Shift_120
Note_On_82_Vel_77
Time_Shift_7
Note_On_72_Vel_0
Time_Shift_15
Sustain_Off
Time_Shift_29
Note_On_73_Vel_0
Sustain_On
Time_Shift_24
Note_On_64_Vel_45
Time_Shift_2
Note_On_52_Vel_38
Time_Shift_5
Note_On_80_Vel_0
Time_Shift_1
Note_On_55_Vel_33
Time_Shift_20
Note_On_79_Vel_66
Time_Shift_40
Note_On_83_Vel_0
Time_Shift_16
Note_On_84_Vel_0
Time_Shift_49
Note_On_76_Vel_66
Time_Shift_43
Note_On_53_Vel_0
Time_Shift_44
Note_On_73_Vel_71
Time_Shift_20
Note_On_76_Vel_0
Time_Shift_51
Note_On_60_Vel_0
Note_On_79_Vel_0
Time_Shift_16
Sustain_Off
Time_Shift_3
Note_On_73_Vel_0
Note_On_72_Vel_77
Time_Shift_56
Note_On_60_Vel_54
Time_Shift_17
Note_On_82_Vel_0
Time_Shift_19
Note_On_74_Vel_77
Time_Shift_21
Note_On_72_Vel_0
Time_Shift_72
Note_On_76_Vel_77
Time_Shift_6
Note_On_74_Vel_0
Time_Shift_67
Note_On_64_Vel_0
Time_Shift_7
Note_On_55_Vel_0
Time_Shift_1
Note_On_72_Vel_58
Time_Shift_6
Note_On_76_Vel_0
Time_Shift_16
Note_On_52_Vel_0
Time_Shift_66
Note_On_79_Vel_83
Time_Shift_98
Note_On_79_Vel_0
Time_Shift_5
Note_On_72_Vel_0
Time_Shift_3
Note_On_65_Vel_44
Time_Shift_5
Note_On_65_Vel_0
Time_Shift_3
Note_On_80_Vel_75
Time_Shift_23
Note_On_60_Vel_0
Time_Shift_74
Sustain_On
Time_Shift_327
Note_On_72_Vel_43
Time_Shift_5
Note_On_60_Vel_53
Time_Shift_152
Note_On_79_Vel_50
Time_Shift_52
Note_On_81_Vel_69
Time_Shift_112
Sustain_Off
Time_Shift_5
Note_On_81_Vel_0
Time_Shift_5
Note_On_81_Vel_74
Time_Shift_2
Note_On_79_Vel_0
Time_Shift_16
Note_On_60_Vel_0
Time_Shift_2
Note_On_50_Vel_41
Time_Shift_2
Note_On_60_Vel_37
Time_Shift_3
Note_On_50_Vel_0
Note_On_80_Vel_0
Time_Shift_4
Note_On_57_Vel_43
Time_Shift_4
Note_On_72_Vel_0
Time_Shift_11
Note_On_51_Vel_41
Time_Shift_5
Note_On_81_Vel_0
Time_Shift_15
Sustain_On
Time_Shift_66
Note_On_81_Vel_58
Time_Shift_64
Note_On_81_Vel_0
Time_Shift_10
Note_On_81_Vel_54
Time_Shift_36
Note_On_81_Vel_0
Time_Shift_5
Note_On_81_Vel_58
Time_Shift_65
Note_On_81_Vel_0
Time_Shift_5
Note_On_81_Vel_53
Time_Shift_33
Note_On_60_Vel_0
Time_Shift_8
Note_On_81_Vel_0
Time_Shift_3
Note_On_60_Vel_56
Time_Shift_6
Note_On_69_Vel_43
Note_On_81_Vel_61
Time_Shift_6
Note_On_69_Vel_0
Time_Shift_50
Note_On_82_Vel_69
Time_Shift_11
Note_On_82_Vel_0
Time_Shift_39
Note_On_81_Vel_0
Time_Shift_8
Note_On_81_Vel_67
Time_Shift_63
Note_On_82_Vel_64
Time_Shift_87
Note_On_80_Vel_67
Time_Shift_72
Note_On_81_Vel_0
Time_Shift_6
Note_On_81_Vel_68
Time_Shift_1
Note_On_80_Vel_0
Note_On_60_Vel_0
Note_On_51_Vel_0
Note_On_57_Vel_0
Time_Shift_3
Sustain_Off
Time_Shift_21
Note_On_82_Vel_0
Time_Shift_7
Note_On_82_Vel_82
Time_Shift_10
Note_On_65_Vel_59
Time_Shift_8
Note_On_50_Vel_52
Time_Shift_6
Sustain_On
Time_Shift_7
Note_On_81_Vel_0
Time_Shift_23
Note_On_82_Vel_0
Time_Shift_27
Note_On_84_Vel_56
Time_Shift_60
Note_On_82_Vel_63
Time_Shift_5
Note_On_77_Vel_47
Time_Shift_31
Note_On_84_Vel_0
Time_Shift_11
Note_On_84_Vel_58
Time_Shift_43
Note_On_82_Vel_0
Time_Shift_8
Note_On_82_Vel_66
Time_Shift_92
Note_On_82_Vel_0
Time_Shift_5
Note_On_82_Vel_65
Time_Shift_9
Note_On_58_Vel_51
Time_Shift_40
Note_On_84_Vel_0
Time_Shift_5
Note_On_84_Vel_65
Time_Shift_41
Note_On_82_Vel_0
Time_Shift_5
Note_On_82_Vel_69
Time_Shift_48
Note_On_84_Vel_0
Time_Shift_9
Note_On_84_Vel_58
Time_Shift_53
Note_On_82_Vel_0
Time_Shift_10
Note_On_82_Vel_63
Time_Shift_47
Note_On_81_Vel_65
Time_Shift_16
Note_On_49_Vel_47
Time_Shift_19
Note_On_82_Vel_0
Time_Shift_12
Note_On_82_Vel_70
Time_Shift_18
Note_On_58_Vel_0
Time_Shift_1
Note_On_50_Vel_0
Note_On_65_Vel_0
Note_On_49_Vel_0
Note_On_81_Vel_0
Time_Shift_5
Sustain_Off
Time_Shift_18
Note_On_84_Vel_0
Time_Shift_8
Note_On_82_Vel_0
Note_On_56_Vel_66
Time_Shift_7
Note_On_77_Vel_0
Time_Shift_4
Note_On_83_Vel_89
Time_Shift_15
Note_On_65_Vel_68
Time_Shift_4
Sustain_On
Time_Shift_57
Note_On_84_Vel_71
Time_Shift_58
Note_On_83_Vel_0
Time_Shift_6
Note_On_83_Vel_71
Time_Shift_64
Note_On_84_Vel_0
Time_Shift_11
Note_On_84_Vel_62
Time_Shift_50
Note_On_83_Vel_0
Time_Shift_4
Note_On_83_Vel_65
Time_Shift_50
Note_On_84_Vel_0
Time_Shift_8
Note_On_84_Vel_60
Time_Shift_44
Note_On_59_Vel_71
Time_Shift_9
Note_On_83_Vel_0
Time_Shift_6
Note_On_83_Vel_68
Time_Shift_48
Note_On_84_Vel_0
Time_Shift_10
Note_On_84_Vel_69
Time_Shift_59
Note_On_83_Vel_0
Time_Shift_5
Note_On_83_Vel_70
Time_Shift_67
Note_On_48_Vel_67
Time_Shift_7
Note_On_82_Vel_79
Time_Shift_1
Note_On_94_Vel_70
Time_Shift_5
Note_On_94_Vel_0
Time_Shift_8
Note_On_84_Vel_0
Time_Shift_1
Note_On_59_Vel_0
Note_On_65_Vel_0
Note_On_56_Vel_0
Time_Shift_3
Sustain_Off
Time_Shift_49
Note_On_83_Vel_0
Time_Shift_7
Note_On_83_Vel_84
Time_Shift_9
Note_On_56_Vel_68
Time_Shift_7
Sustain_On
Time_Shift_8
Note_On_82_Vel_0
Time_Shift_30
Sustain_Off
Time_Shift_51
Note_On_84_Vel_96
Time_Shift_2
Note_On_65_Vel_70
Time_Shift_14
Note_On_55_Vel_49
Time_Shift_10
Note_On_55_Vel_0
Time_Shift_8
Sustain_On
Time_Shift_290
Note_On_60_Vel_86
Time_Shift_274
Note_On_85_Vel_90
Time_Shift_6
Note_On_68_Vel_74
Time_Shift_75
Note_On_48_Vel_0
Time_Shift_215
Note_On_83_Vel_0
Time_Shift_31
Note_On_65_Vel_0
Time_Shift_4
Note_On_65_Vel_57
Time_Shift_256
Note_On_56_Vel_0
Sustain_Off
Note_On_65_Vel_0
Time_Shift_1
Note_On_60_Vel_0
Note_On_68_Vel_0
Time_Shift_2
Note_On_85_Vel_0
Time_Shift_13
Note_On_73_Vel_89
Time_Shift_8
Note_On_73_Vel_0
Time_Shift_2
Note_On_72_Vel_72
Time_Shift_18
Note_On_36_Vel_50
Time_Shift_26
Sustain_On
Time_Shift_184
Note_On_84_Vel_0
Time_Shift_105
Note_On_60_Vel_51
Time_Shift_3
Note_On_72_Vel_0
Time_Shift_318
Note_On_72_Vel_78
Time_Shift_15
Note_On_58_Vel_45
Time_Shift_1
Note_On_55_Vel_40
Time_Shift_13
Sustain_Off
Time_Shift_45
Note_On_60_Vel_0
Time_Shift_15
Sustain_On
Time_Shift_228
Note_On_60_Vel_46
Time_Shift_292
Note_On_77_Vel_69
Note_On_53_Vel_31
Time_Shift_16
Note_On_41_Vel_33
Time_Shift_10
Note_On_55_Vel_0
Note_On_56_Vel_34
Time_Shift_1
Note_On_36_Vel_0
Note_On_60_Vel_0
Time_Shift_3
Sustain_Off
Time_Shift_11
Note_On_58_Vel_0
Note_On_72_Vel_0
Time_Shift_84
Sustain_On
Time_Shift_224
Note_On_60_Vel_39
Time_Shift_45
Note_On_41_Vel_0
Time_Shift_230
Note_On_56_Vel_0
Time_Shift_8
Note_On_53_Vel_0
Time_Shift_2
Note_On_56_Vel_27
Time_Shift_2
Note_On_65_Vel_29
Note_On_53_Vel_24
Time_Shift_518
Sustain_Off
Time_Shift_2
Note_On_56_Vel_0
Time_Shift_1
Note_On_53_Vel_0
Time_Shift_1
Note_On_77_Vel_0
Time_Shift_9
Note_On_72_Vel_48
Time_Shift_10
Note_On_60_Vel_0
Time_Shift_10
Note_On_60_Vel_38
Time_Shift_52
Sustain_On
Time_Shift_61
Note_On_65_Vel_0
Time_Shift_226
Note_On_73_Vel_55
Time_Shift_43
Note_On_60_Vel_0
Time_Shift_10
Note_On_60_Vel_27
Time_Shift_7
Note_On_75_Vel_49
Time_Shift_33
Sustain_Off
Time_Shift_19
Note_On_72_Vel_0
Time_Shift_5
Note_On_72_Vel_39
Time_Shift_21
Note_On_60_Vel_0
Note_On_73_Vel_0
Time_Shift_2
Note_On_58_Vel_29
Note_On_75_Vel_0
Time_Shift_3
Note_On_53_Vel_24
Time_Shift_84
Sustain_On
Time_Shift_185
Note_On_72_Vel_0
Time_Shift_95
Note_On_72_Vel_55
Time_Shift_24
Note_On_60_Vel_34
Time_Shift_3
Note_On_58_Vel_0
Time_Shift_12
Note_On_58_Vel_24
Time_Shift_303
Note_On_77_Vel_51
Time_Shift_2
Note_On_76_Vel_50
Time_Shift_10
Sustain_Off
Time_Shift_4
Note_On_58_Vel_0
Note_On_60_Vel_0
Time_Shift_6
Note_On_52_Vel_26
Time_Shift_1
Note_On_58_Vel_24
Time_Shift_2
Note_On_60_Vel_23
Time_Shift_10
Note_On_53_Vel_0
Time_Shift_3
Note_On_72_Vel_0
Time_Shift_77
Sustain_On
Time_Shift_308
Note_On_60_Vel_0
Time_Shift_7
Note_On_79_Vel_50
Note_On_58_Vel_0
Time_Shift_3
Note_On_60_Vel_37
Time_Shift_4
Note_On_58_Vel_30
Time_Shift_359
Sustain_Off
Time_Shift_6
Note_On_80_Vel_49
Time_Shift_10
Note_On_68_Vel_31
Time_Shift_10
Note_On_60_Vel_0
Time_Shift_8
Note_On_53_Vel_22
Time_Shift_2
Note_On_56_Vel_29
Note_On_60_Vel_22
Time_Shift_9
Note_On_58_Vel_0
Time_Shift_4
Note_On_52_Vel_0
Note_On_76_Vel_0
Time_Shift_31
Note_On_77_Vel_0
Time_Shift_7
Note_On_79_Vel_0
Time_Shift_24
Note_On_60_Vel_0
Time_Shift_61
Sustain_On
Time_Shift_192
Note_On_60_Vel_30
Time_Shift_284
Note_On_53_Vel_0
Note_On_56_Vel_0
Time_Shift_11
Note_On_56_Vel_26
Note_On_53_Vel_20
Time_Shift_458
Note_On_60_Vel_0
Time_Shift_6
Note_On_60_Vel_30
Time_Shift_70
Note_On_68_Vel_0
Time_Shift_94
Note_On_72_Vel_49
Time_Shift_29
Note_On_60_Vel_0
Time_Shift_4
Note_On_60_Vel_16
Time_Shift_227
Note_On_72_Vel_0
Time_Shift_3
Note_On_73_Vel_51
Time_Shift_4
Note_On_73_Vel_0
Time_Shift_1
Note_On_72_Vel_47
Time_Shift_11
Sustain_Off
Time_Shift_11
Note_On_60_Vel_0
Time_Shift_5
Note_On_52_Vel_22
Time_Shift_2
Note_On_55_Vel_20
Note_On_60_Vel_21
Time_Shift_4
Note_On_58_Vel_30
Time_Shift_3
Note_On_53_Vel_0
Time_Shift_1
Note_On_56_Vel_0
Time_Shift_16
Note_On_80_Vel_0
Time_Shift_108
Note_On_52_Vel_0
Sustain_On
Time_Shift_53
Note_On_60_Vel_0
Time_Shift_85
Note_On_72_Vel_0
Time_Shift_8
Note_On_72_Vel_51
Time_Shift_176
Note_On_74_Vel_49
Time_Shift_59
Sustain_Off
Time_Shift_72
Note_On_72_Vel_0
Time_Shift_8
Note_On_72_Vel_47
Time_Shift_14
Note_On_60_Vel_33
Time_Shift_1
Sustain_On
Time_Shift_106
Note_On_75_Vel_45
Time_Shift_93
Note_On_72_Vel_0
Time_Shift_7
Note_On_72_Vel_55
Time_Shift_40
Sustain_Off
Time_Shift_61
Note_On_55_Vel_0
Time_Shift_1
Note_On_72_Vel_0
Time_Shift_7
Note_On_60_Vel_0
Time_Shift_2
Note_On_76_Vel_54
Time_Shift_7
Note_On_52_Vel_30
Time_Shift_1
Note_On_60_Vel_26
Time_Shift_13
Sustain_On
Time_Shift_7
Note_On_75_Vel_0
Time_Shift_23
Note_On_74_Vel_0
Time_Shift_59
Note_On_76_Vel_0
Time_Shift_1
Note_On_72_Vel_58
Time_Shift_102
Note_On_72_Vel_0
Time_Shift_53
Sustain_Off
Time_Shift_8
Note_On_58_Vel_0
Time_Shift_39
Note_On_60_Vel_0
Time_Shift_4
Note_On_60_Vel_40
Time_Shift_11
Note_On_72_Vel_41
Time_Shift_54
Note_On_52_Vel_0
Time_Shift_59
Note_On_79_Vel_50
Time_Shift_125
Note_On_72_Vel_0
Time_Shift_5
Note_On_72_Vel_43
Time_Shift_111
Note_On_56_Vel_37
Time_Shift_8
Note_On_53_Vel_24
Time_Shift_46
Note_On_60_Vel_0
Time_Shift_1
Note_On_72_Vel_0
Time_Shift_2
Note_On_79_Vel_0
Time_Shift_73
Sustain_On
Time_Shift_212
Note_On_72_Vel_28
Time_Shift_2
Note_On_60_Vel_31
Time_Shift_277
Note_On_53_Vel_0
Note_On_56_Vel_0
Note_On_72_Vel_0
Time_Shift_3
Note_On_65_Vel_27
Time_Shift_1
Note_On_68_Vel_30
Note_On_56_Vel_31
Time_Shift_3
Note_On_72_Vel_22
Time_Shift_1
Note_On_68_Vel_0
Time_Shift_3
Note_On_53_Vel_22
Time_Shift_327
Note_On_60_Vel_0
Time_Shift_7
Note_On_60_Vel_36
Time_Shift_217
Note_On_79_Vel_65
Time_Shift_137
Sustain_Off
Time_Shift_5
Note_On_56_Vel_0
Time_Shift_1
Note_On_60_Vel_0
Time_Shift_2
Note_On_53_Vel_0
Note_On_79_Vel_0
Time_Shift_11
Note_On_79_Vel_62
Time_Shift_4
Note_On_72_Vel_0
Time_Shift_16
Note_On_65_Vel_0
Time_Shift_76
Sustain_On
Time_Shift_66
Note_On_80_Vel_66
Time_Shift_96
Note_On_79_Vel_0
Time_Shift_11
Note_On_79_Vel_64
Time_Shift_142
Note_On_79_Vel_0
Time_Shift_5
Note_On_56_Vel_44
Time_Shift_1
Note_On_60_Vel_31
Time_Shift_3
Note_On_58_Vel_42
Time_Shift_1
Note_On_70_Vel_47
Time_Shift_2
Note_On_79_Vel_61
Time_Shift_4
Note_On_70_Vel_0
Time_Shift_92
Note_On_82_Vel_63
Time_Shift_54
Note_On_80_Vel_0
Time_Shift_11
Note_On_80_Vel_71
Time_Shift_85
Note_On_76_Vel_65
Time_Shift_3
Note_On_60_Vel_0
Time_Shift_8
Note_On_56_Vel_0
Time_Shift_2
Note_On_60_Vel_25
Time_Shift_2
Note_On_56_Vel_40
Time_Shift_57
Note_On_79_Vel_0
Time_Shift_2
Note_On_70_Vel_53
Time_Shift_3
Note_On_79_Vel_62
Time_Shift_87
Note_On_77_Vel_69
Time_Shift_81
Note_On_72_Vel_71
Time_Shift_82
Note_On_75_Vel_61
Time_Shift_85
Note_On_73_Vel_71
Time_Shift_81
Note_On_65_Vel_64
Time_Shift_85
Note_On_67_Vel_72
Time_Shift_46
Sustain_Off
Time_Shift_3
Note_On_75_Vel_0
Note_On_73_Vel_0
Time_Shift_2
Note_On_56_Vel_0
Note_On_79_Vel_0
Note_On_76_Vel_0
Note_On_72_Vel_0
Note_On_80_Vel_0
Note_On_77_Vel_0
Time_Shift_1
Note_On_58_Vel_0
Note_On_82_Vel_0
Time_Shift_11
Note_On_70_Vel_0
Time_Shift_7
Note_On_60_Vel_0
Note_On_65_Vel_0
Time_Shift_24
Note_On_67_Vel_0
Time_Shift_12
Note_On_72_Vel_72
Time_Shift_6
Note_On_68_Vel_68
Time_Shift_2
Note_On_39_Vel_47
Time_Shift_49
Sustain_On
Time_Shift_276
Note_On_72_Vel_0
Time_Shift_3
Note_On_51_Vel_65
Time_Shift_3
Note_On_72_Vel_54
Time_Shift_8
Note_On_75_Vel_47
Time_Shift_9
Note_On_75_Vel_0
Time_Shift_285
Note_On_84_Vel_79
Time_Shift_15
Note_On_68_Vel_0
Note_On_72_Vel_0
Note_On_75_Vel_64
Time_Shift_6
Note_On_72_Vel_55
Time_Shift_4
Note_On_68_Vel_53
Time_Shift_2
Note_On_60_Vel_43
Time_Shift_303
Note_On_51_Vel_0
Time_Shift_5
Note_On_51_Vel_49
Time_Shift_402
Note_On_39_Vel_0
Time_Shift_5
Note_On_39_Vel_58
Time_Shift_3
Sustain_Off
Time_Shift_15
Note_On_68_Vel_0
Time_Shift_11
Note_On_68_Vel_51
Time_Shift_2
Note_On_74_Vel_58
Time_Shift_11
Note_On_84_Vel_0
Time_Shift_3
Note_On_75_Vel_0
Note_On_60_Vel_0
Time_Shift_1
Note_On_51_Vel_0
Note_On_72_Vel_0
Time_Shift_41
Sustain_On
Time_Shift_7
Note_On_68_Vel_0
Time_Shift_278
Note_On_82_Vel_77
Time_Shift_11
Note_On_58_Vel_47
Time_Shift_1
Note_On_73_Vel_64
Time_Shift_138
Note_On_51_Vel_50
Time_Shift_60
Note_On_79_Vel_73
Time_Shift_7
Note_On_70_Vel_70
Time_Shift_142
Note_On_61_Vel_41
Time_Shift_16
Note_On_74_Vel_0
Time_Shift_42
Sustain_Off
Time_Shift_4
Note_On_58_Vel_0
Note_On_73_Vel_0
Time_Shift_3
Note_On_70_Vel_0
Time_Shift_1
Note_On_79_Vel_0
Time_Shift_1
Note_On_58_Vel_42
Time_Shift_3
Note_On_75_Vel_57
Note_On_67_Vel_54
Time_Shift_1
Note_On_73_Vel_58
Time_Shift_7
Note_On_82_Vel_0
Time_Shift_69
Note_On_58_Vel_0
Time_Shift_15
Sustain_On
Time_Shift_184
Note_On_75_Vel_0
Time_Shift_8
Note_On_67_Vel_0
Time_Shift_4
Note_On_75_Vel_61
Time_Shift_7
Note_On_67_Vel_46
Time_Shift_89
Note_On_51_Vel_0
Time_Shift_11
Note_On_51_Vel_38
Time_Shift_342
Note_On_73_Vel_0
Time_Shift_5
Note_On_73_Vel_59
Time_Shift_29
Note_On_70_Vel_48
Time_Shift_154
Note_On_60_Vel_63
Time_Shift_31
Note_On_75_Vel_0
Note_On_70_Vel_0
Note_On_67_Vel_0
Time_Shift_1
Note_On_61_Vel_0
Note_On_73_Vel_0
Note_On_51_Vel_0
Sustain_Off
Time_Shift_3
Note_On_39_Vel_0
Time_Shift_61
Note_On_60_Vel_0
Time_Shift_28
Note_On_60_Vel_47
Time_Shift_19
Sustain_On
Time_Shift_101
Note_On_63_Vel_48
Time_Shift_121
Note_On_68_Vel_52
Time_Shift_126
Note_On_72_Vel_59
Time_Shift_103
Note_On_51_Vel_42
Time_Shift_270
Note_On_60_Vel_0
Time_Shift_5
Note_On_60_Vel_45
Time_Shift_14
Note_On_48_Vel_36
Time_Shift_1
Note_On_56_Vel_39
Time_Shift_480
Note_On_51_Vel_0
Time_Shift_11
Note_On_51_Vel_40
Time_Shift_219
Note_On_72_Vel_0
Time_Shift_7
Note_On_72_Vel_59
Time_Shift_202
Note_On_73_Vel_58
Time_Shift_50
Note_On_60_Vel_0
Note_On_48_Vel_0
Sustain_Off
Time_Shift_1
Note_On_75_Vel_60
Time_Shift_1
Note_On_51_Vel_0
Note_On_56_Vel_0
Time_Shift_1
Note_On_68_Vel_0
Note_On_72_Vel_0
Time_Shift_11
Note_On_73_Vel_0
Time_Shift_18
Note_On_36_Vel_37
Time_Shift_1
Note_On_63_Vel_0
Time_Shift_46
Sustain_On
Time_Shift_31
Note_On_75_Vel_0
Time_Shift_27
Note_On_73_Vel_64
Time_Shift_50
Note_On_75_Vel_61
Time_Shift_30
Note_On_73_Vel_0
Time_Shift_6
Note_On_73_Vel_77
Time_Shift_63
Note_On_75_Vel_0
Time_Shift_12
Note_On_75_Vel_56
Time_Shift_42
Note_On_73_Vel_0
Time_Shift_4
Note_On_73_Vel_67
Time_Shift_100
Note_On_72_Vel_74
Time_Shift_94
Note_On_60_Vel_44
Time_Shift_118
Note_On_74_Vel_82
Time_Shift_124
Note_On_73_Vel_0
Time_Shift_1
Note_On_72_Vel_0
Note_On_75_Vel_0
Time_Shift_6
Sustain_Off
Time_Shift_6
Note_On_36_Vel_0
Time_Shift_25
Note_On_64_Vel_43
Time_Shift_6
Note_On_60_Vel_0
Time_Shift_4
Note_On_60_Vel_40
Time_Shift_1
Note_On_76_Vel_75
Note_On_55_Vel_33
Time_Shift_56
Sustain_On
Time_Shift_269
Note_On_60_Vel_0
Time_Shift_5
Note_On_60_Vel_42
Time_Shift_60
Note_On_79_Vel_75
Time_Shift_150
Note_On_64_Vel_0
Time_Shift_6
Note_On_76_Vel_0
Time_Shift_2
Note_On_55_Vel_0
Time_Shift_3
Note_On_79_Vel_0
Time_Shift_2
Sustain_Off
Time_Shift_10
Note_On_74_Vel_0
Time_Shift_25
Note_On_80_Vel_66
Time_Shift_10
Note_On_72_Vel_39
Time_Shift_1
Note_On_53_Vel_21
Time_Shift_6
Note_On_56_Vel_35
Time_Shift_4
Note_On_60_Vel_0
Time_Shift_5
Note_On_68_Vel_26
Time_Shift_6
Note_On_60_Vel_21
Time_Shift_20
Sustain_On
Time_Shift_108
Note_On_60_Vel_0
Time_Shift_168
Note_On_60_Vel_47
Time_Shift_263
Sustain_Off
Time_Shift_14
Note_On_53_Vel_0
Note_On_56_Vel_0
Sustain_On
Time_Shift_9
Note_On_56_Vel_38
Time_Shift_1
Note_On_65_Vel_34
Time_Shift_1
Note_On_53_Vel_27
Time_Shift_404
Note_On_60_Vel_0
Time_Shift_9
Note_On_60_Vel_47
Time_Shift_129
Note_On_72_Vel_0
Time_Shift_11
Note_On_72_Vel_74
Time_Shift_112
Note_On_68_Vel_0
Time_Shift_72
Sustain_Off
Time_Shift_10
Note_On_56_Vel_0
Note_On_60_Vel_0
Time_Shift_9
Note_On_84_Vel_76
Time_Shift_1
Note_On_58_Vel_50
Time_Shift_9
Note_On_55_Vel_39
Time_Shift_6
Sustain_On
Time_Shift_54
Note_On_65_Vel_0
Time_Shift_15
Note_On_80_Vel_0
Time_Shift_47
Note_On_72_Vel_0
Time_Shift_3
Note_On_72_Vel_71
Time_Shift_115
Note_On_73_Vel_78
Time_Shift_122
Note_On_74_Vel_83
Time_Shift_17
Note_On_60_Vel_61
Time_Shift_104
Note_On_86_Vel_85
Time_Shift_113
Note_On_87_Vel_83
Time_Shift_3
Note_On_75_Vel_79
Time_Shift_101
Note_On_88_Vel_83
Time_Shift_94
Note_On_76_Vel_69
Time_Shift_102
Note_On_77_Vel_84
Time_Shift_9
Note_On_77_Vel_0
Time_Shift_90
Note_On_78_Vel_82
Time_Shift_2
Note_On_72_Vel_0
Time_Shift_8
Note_On_60_Vel_0
Note_On_78_Vel_0
Note_On_72_Vel_65
Time_Shift_4
Note_On_60_Vel_69
Time_Shift_1
Note_On_70_Vel_59
Time_Shift_10
Note_On_70_Vel_0
Time_Shift_85
Note_On_79_Vel_76
Time_Shift_107
Note_On_91_Vel_88
Time_Shift_131
Note_On_53_Vel_0
Time_Shift_5
Note_On_92_Vel_87
Time_Shift_1
Note_On_80_Vel_80
Time_Shift_2
Note_On_65_Vel_61
Time_Shift_1
Note_On_58_Vel_0
Note_On_55_Vel_0
Time_Shift_1
Note_On_60_Vel_0
Note_On_72_Vel_0
Note_On_76_Vel_0
Time_Shift_1
Note_On_53_Vel_51
Sustain_Off
Time_Shift_1
Note_On_79_Vel_0
Note_On_88_Vel_0
Time_Shift_2
Note_On_91_Vel_0
Note_On_56_Vel_62
Time_Shift_9
Note_On_73_Vel_0
Note_On_74_Vel_0
Time_Shift_7
Note_On_84_Vel_0
Time_Shift_8
Note_On_75_Vel_0
Time_Shift_23
Note_On_87_Vel_0
Time_Shift_23
Note_On_86_Vel_0
Time_Shift_69
Sustain_On
Time_Shift_312
Note_On_60_Vel_70
Time_Shift_1
Note_On_72_Vel_56
Time_Shift_201
Note_On_79_Vel_73
Time_Shift_81
Note_On_81_Vel_71
Time_Shift_72
Note_On_53_Vel_0
Time_Shift_1
Note_On_79_Vel_0
Time_Shift_8
Note_On_81_Vel_0
Note_On_92_Vel_0
Time_Shift_4
Sustain_Off
Time_Shift_5
Note_On_81_Vel_84
Time_Shift_6
Note_On_65_Vel_0
Time_Shift_3
Note_On_66_Vel_78
Time_Shift_1
Note_On_57_Vel_68
Time_Shift_1
Note_On_50_Vel_61
Time_Shift_12
Note_On_51_Vel_67
Time_Shift_7
Note_On_80_Vel_0
Time_Shift_15
Note_On_56_Vel_0
Time_Shift_15
Note_On_50_Vel_0
Time_Shift_16
Note_On_60_Vel_0
Time_Shift_7
Sustain_On
Time_Shift_54
Note_On_72_Vel_0
Time_Shift_1
Note_On_82_Vel_75
Time_Shift_122
Note_On_81_Vel_0
Time_Shift_5
Note_On_81_Vel_64
Time_Shift_87
Note_On_81_Vel_0
Time_Shift_7
Note_On_81_Vel_74
Time_Shift_36
Note_On_60_Vel_63
Time_Shift_34
Note_On_81_Vel_0
Time_Shift_4
Note_On_81_Vel_65
Time_Shift_42
Note_On_82_Vel_0
Time_Shift_10
Note_On_82_Vel_66
Time_Shift_59
Note_On_81_Vel_0
Time_Shift_4
Note_On_81_Vel_63
Time_Shift_60
Note_On_80_Vel_75
Time_Shift_59
Note_On_81_Vel_0
Time_Shift_11
Note_On_81_Vel_65
Time_Shift_43
Note_On_82_Vel_0
Time_Shift_8
Note_On_72_Vel_62
Time_Shift_3
Note_On_82_Vel_85
Time_Shift_2
Note_On_68_Vel_60
Note_On_70_Vel_64
Time_Shift_5
Note_On_65_Vel_66
Time_Shift_1
Note_On_57_Vel_0
Note_On_51_Vel_0
Time_Shift_1
Note_On_60_Vel_0
Note_On_81_Vel_0
Time_Shift_3
Note_On_68_Vel_0
Time_Shift_4
Sustain_Off
Time_Shift_3
Note_On_66_Vel_0
Time_Shift_16
Note_On_80_Vel_0
Time_Shift_46
Note_On_72_Vel_0
Time_Shift_15
Sustain_On
Time_Shift_39
Note_On_82_Vel_0
Time_Shift_11
Note_On_82_Vel_65
Time_Shift_61
Note_On_84_Vel_65
Time_Shift_43
Note_On_82_Vel_0
Time_Shift_10
Note_On_82_Vel_67
Time_Shift_82
Note_On_82_Vel_0
Time_Shift_9
Note_On_82_Vel_59
Time_Shift_3
Note_On_81_Vel_57
Time_Shift_11
Note_On_70_Vel_0
Time_Shift_23
Note_On_84_Vel_0
Time_Shift_8
Note_On_58_Vel_74
Time_Shift_1
Note_On_84_Vel_62
Time_Shift_45
Note_On_81_Vel_0
Time_Shift_15
Note_On_82_Vel_0
Time_Shift_5
Note_On_82_Vel_66
Time_Shift_100
Note_On_81_Vel_71
Time_Shift_6
Note_On_48_Vel_61
Time_Shift_3
Note_On_49_Vel_61
Time_Shift_1
Note_On_48_Vel_0
Time_Shift_39
Note_On_82_Vel_0
Time_Shift_9
Note_On_82_Vel_67
Time_Shift_55
Note_On_56_Vel_71
Time_Shift_6
Note_On_58_Vel_0
Note_On_82_Vel_0
Time_Shift_1
Note_On_49_Vel_0
Time_Shift_1
Note_On_81_Vel_0
Time_Shift_3
Note_On_83_Vel_83
Time_Shift_1
Sustain_Off
Time_Shift_1
Note_On_65_Vel_0
Time_Shift_4
Note_On_65_Vel_73
Time_Shift_26
Note_On_84_Vel_0
Time_Shift_4
Note_On_84_Vel_71
Time_Shift_35
Note_On_83_Vel_0
Time_Shift_15
Sustain_On
Time_Shift_27
Note_On_83_Vel_71
Time_Shift_50
Note_On_84_Vel_0
Time_Shift_6
Note_On_84_Vel_71
Time_Shift_63
Note_On_83_Vel_0
Time_Shift_8
Note_On_83_Vel_60
Time_Shift_46
Note_On_84_Vel_0
Time_Shift_10
Note_On_84_Vel_70
Time_Shift_59
Note_On_83_Vel_0
Time_Shift_8
Note_On_56_Vel_0
Time_Shift_2
Note_On_71_Vel_73
Time_Shift_1
Note_On_83_Vel_70
Note_On_59_Vel_75
Time_Shift_1
Note_On_56_Vel_63
Time_Shift_3
Note_On_71_Vel_0
Time_Shift_74
Note_On_82_Vel_77
Time_Shift_72
Note_On_83_Vel_0
Time_Shift_9
Note_On_83_Vel_87
Time_Shift_65
Note_On_48_Vel_64
Time_Shift_57
Note_On_84_Vel_0
Time_Shift_11
Note_On_84_Vel_83
Time_Shift_7
Note_On_82_Vel_0
Note_On_83_Vel_0
Note_On_65_Vel_0
Time_Shift_1
Note_On_59_Vel_0
Time_Shift_3
Sustain_Off
Time_Shift_16
Note_On_56_Vel_0
Time_Shift_6
Note_On_56_Vel_69
Time_Shift_63
Sustain_On
Time_Shift_53
Note_On_96_Vel_97
Time_Shift_13
Note_On_65_Vel_72
Time_Shift_326
Note_On_60_Vel_87
Time_Shift_342
Note_On_97_Vel_102
Time_Shift_1
Note_On_85_Vel_91
Time_Shift_402
Note_On_65_Vel_0
Time_Shift_5
Note_On_65_Vel_63
Time_Shift_294
Note_On_48_Vel_0
Time_Shift_12
Note_On_48_Vel_57
Time_Shift_19
Note_On_84_Vel_0
Time_Shift_119
Note_On_84_Vel_92
Note_On_36_Vel_61
Time_Shift_2
Note_On_64_Vel_84
Time_Shift_1
Note_On_67_Vel_73
Time_Shift_1
Note_On_36_Vel_0
Time_Shift_1
Note_On_58_Vel_75
Note_On_76_Vel_78
Time_Shift_7
Note_On_76_Vel_0
Time_Shift_14
Note_On_65_Vel_0
Time_Shift_1
Note_On_56_Vel_0
Time_Shift_1
Note_On_60_Vel_0
Time_Shift_4
Sustain_Off
Time_Shift_64
Note_On_97_Vel_0
Time_Shift_31
Note_On_67_Vel_0
Time_Shift_31
Sustain_On
Time_Shift_115
Note_On_85_Vel_0
Time_Shift_23
Note_On_96_Vel_0
Time_Shift_8
Note_On_96_Vel_97
Time_Shift_2
Note_On_55_Vel_53
Time_Shift_1
Note_On_60_Vel_49
Time_Shift_181
Note_On_55_Vel_0
Time_Shift_5
Note_On_55_Vel_43
Time_Shift_86
Note_On_95_Vel_92
Time_Shift_164
Note_On_94_Vel_89
Time_Shift_127
Note_On_91_Vel_85
Time_Shift_111
Note_On_88_Vel_84
Time_Shift_98
Note_On_84_Vel_0
Time_Shift_5
Note_On_84_Vel_80
Time_Shift_108
Note_On_83_Vel_77
Time_Shift_90
Note_On_82_Vel_77
Time_Shift_95
Note_On_79_Vel_72
Time_Shift_75
Note_On_76_Vel_66
Time_Shift_77
Note_On_72_Vel_78
Time_Shift_78
Note_On_70_Vel_62
Note_On_71_Vel_73
Time_Shift_10
Note_On_70_Vel_0
Time_Shift_46
Note_On_58_Vel_0
Time_Shift_7
Note_On_70_Vel_73
Time_Shift_3
Note_On_58_Vel_55
Time_Shift_63
Note_On_67_Vel_73
Time_Shift_73
Note_On_64_Vel_0
Time_Shift_5
Note_On_64_Vel_73
Time_Shift_73
Note_On_73_Vel_73
Time_Shift_2
Note_On_61_Vel_79
Time_Shift_50
Note_On_55_Vel_0
Time_Shift_6
Note_On_52_Vel_64
Note_On_61_Vel_0
Note_On_70_Vel_0
Time_Shift_2
Note_On_60_Vel_0
Note_On_72_Vel_0
Note_On_64_Vel_0
Time_Shift_1
Note_On_58_Vel_0
Note_On_67_Vel_0
Note_On_55_Vel_73
Time_Shift_2
Note_On_76_Vel_0
Note_On_91_Vel_0
Time_Shift_1
Note_On_94_Vel_0
Note_On_96_Vel_0
Note_On_84_Vel_0
Time_Shift_2
Note_On_72_Vel_74
Time_Shift_2
Note_On_82_Vel_0
Time_Shift_3
Note_On_60_Vel_90
Time_Shift_4
Note_On_79_Vel_0
Time_Shift_8
Note_On_48_Vel_0
Note_On_71_Vel_0
Note_On_73_Vel_0
Note_On_83_Vel_0
Note_On_88_Vel_0
Note_On_95_Vel_0
Time_Shift_54
Note_On_52_Vel_0
Time_Shift_18
Note_On_55_Vel_0
Time_Shift_5
Sustain_Off
Time_Shift_69
Sustain_On
Time_Shift_26
Note_On_73_Vel_61
Time_Shift_1
Note_On_61_Vel_66
Time_Shift_50
Note_On_60_Vel_0
Time_Shift_10
Note_On_60_Vel_62
Time_Shift_51
Note_On_61_Vel_0
Time_Shift_10
Note_On_61_Vel_61
Time_Shift_36
Note_On_72_Vel_0
Time_Shift_11
Note_On_72_Vel_56
Time_Shift_51
Note_On_61_Vel_0
Note_On_73_Vel_0
Time_Shift_5
Note_On_73_Vel_71
Time_Shift_1
Note_On_61_Vel_74
Time_Shift_32
Note_On_60_Vel_0
Time_Shift_8
Note_On_60_Vel_69
Time_Shift_64
Note_On_80_Vel_60
Time_Shift_5
Note_On_80_Vel_0
Time_Shift_46
Note_On_60_Vel_0
Time_Shift_7
Note_On_60_Vel_67
Time_Shift_47
Note_On_61_Vel_0
Note_On_73_Vel_0
Time_Shift_7
Note_On_73_Vel_69
Time_Shift_1
Note_On_61_Vel_71
Time_Shift_53
Note_On_60_Vel_0
Time_Shift_6
Note_On_60_Vel_63
Time_Shift_63
Note_On_61_Vel_0
Time_Shift_6
Note_On_61_Vel_63
Time_Shift_40
Note_On_60_Vel_0
Time_Shift_8
Note_On_72_Vel_0
Time_Shift_3
Note_On_60_Vel_57
Time_Shift_3
Note_On_72_Vel_53
Time_Shift_63
Note_On_61_Vel_0
Note_On_73_Vel_0
Time_Shift_7
Note_On_61_Vel_63
Note_On_73_Vel_65
Time_Shift_145
Note_On_59_Vel_68
Time_Shift_1
Note_On_71_Vel_62
Time_Shift_9
Note_On_71_Vel_0
Time_Shift_61
Note_On_60_Vel_0
Time_Shift_5
Note_On_60_Vel_85
Time_Shift_76
Note_On_60_Vel_0
Time_Shift_1
Note_On_59_Vel_0
Time_Shift_6
Sustain_Off
Time_Shift_19
Note_On_61_Vel_0
Note_On_72_Vel_0
Note_On_73_Vel_0
Time_Shift_5
Note_On_73_Vel_74
Time_Shift_1
Note_On_61_Vel_82
Time_Shift_79
Sustain_On
Time_Shift_38
Note_On_61_Vel_0
Time_Shift_26
Note_On_63_Vel_63
Time_Shift_68
Note_On_61_Vel_61
Time_Shift_45
Note_On_63_Vel_0
Time_Shift_7
Note_On_63_Vel_69
Time_Shift_46
Note_On_61_Vel_0
Time_Shift_6
Note_On_61_Vel_59
Time_Shift_40
Note_On_63_Vel_0
Time_Shift_9
Note_On_63_Vel_60
Time_Shift_45
Note_On_61_Vel_0
Time_Shift_8
Note_On_61_Vel_62
Time_Shift_54
Note_On_63_Vel_0
Time_Shift_9
Note_On_63_Vel_71
Time_Shift_29
Note_On_61_Vel_0
Time_Shift_5
Note_On_61_Vel_55
Time_Shift_72
Note_On_63_Vel_0
Time_Shift_4
Note_On_63_Vel_62
Time_Shift_57
Note_On_61_Vel_0
Time_Shift_4
Note_On_61_Vel_53
Time_Shift_52
Note_On_60_Vel_60
Time_Shift_29
Note_On_61_Vel_0
Note_On_73_Vel_0
Time_Shift_5
Note_On_73_Vel_71
Time_Shift_1
Note_On_61_Vel_76
Time_Shift_71
Note_On_60_Vel_0
Time_Shift_10
Note_On_62_Vel_80
Time_Shift_1
Note_On_60_Vel_67
Time_Shift_1
Note_On_72_Vel_59
Time_Shift_13
Sustain_Off
Time_Shift_4
Note_On_73_Vel_0
Time_Shift_1
Note_On_61_Vel_0
Time_Shift_1
Note_On_63_Vel_0
Time_Shift_22
Note_On_60_Vel_0
Time_Shift_46
Note_On_72_Vel_0
Time_Shift_4
Note_On_62_Vel_0
Time_Shift_2
Note_On_72_Vel_57
Time_Shift_1
Note_On_63_Vel_75
Time_Shift_9
Sustain_On
Time_Shift_60
Note_On_62_Vel_64
Time_Shift_47
Note_On_63_Vel_0
Time_Shift_11
Note_On_63_Vel_60
Time_Shift_28
Note_On_72_Vel_0
Time_Shift_10
Note_On_72_Vel_37
Time_Shift_66
Note_On_63_Vel_0
Time_Shift_12
Note_On_63_Vel_67
Time_Shift_42
Note_On_62_Vel_0
Note_On_72_Vel_0
Time_Shift_8
Note_On_62_Vel_62
Note_On_74_Vel_61
Time_Shift_2
Note_On_72_Vel_51
Time_Shift_52
Note_On_63_Vel_0
Time_Shift_10
Note_On_63_Vel_61
Time_Shift_43
Note_On_62_Vel_0
Note_On_72_Vel_0
Note_On_74_Vel_0
Time_Shift_8
Note_On_62_Vel_62
Time_Shift_3
Note_On_74_Vel_61
Time_Shift_1
Note_On_72_Vel_51
Time_Shift_65
Note_On_63_Vel_0
Time_Shift_5
Note_On_63_Vel_62
Time_Shift_57
Note_On_62_Vel_0
Time_Shift_8
Note_On_62_Vel_54
Time_Shift_53
Note_On_63_Vel_0
Time_Shift_8
Note_On_63_Vel_60
Time_Shift_61
Note_On_62_Vel_0
Time_Shift_5
Note_On_62_Vel_58
Time_Shift_112
Note_On_61_Vel_59
Time_Shift_175
Note_On_62_Vel_0
Time_Shift_8
Note_On_61_Vel_0
Time_Shift_3
Note_On_62_Vel_60
Time_Shift_1
Note_On_61_Vel_49
Time_Shift_29
Sustain_Off
Time_Shift_5
Note_On_63_Vel_0
Time_Shift_31
Sustain_On
Time_Shift_92
Note_On_61_Vel_0
Time_Shift_5
Note_On_63_Vel_65
Time_Shift_1
Note_On_61_Vel_45
Time_Shift_25
Note_On_74_Vel_0
Time_Shift_12
Sustain_Off
Time_Shift_6
Note_On_61_Vel_0
Time_Shift_1
Note_On_56_Vel_41
Note_On_44_Vel_42
Time_Shift_1
Note_On_62_Vel_0
Time_Shift_3
Note_On_56_Vel_0
Time_Shift_3
Note_On_53_Vel_33
Time_Shift_4
Note_On_53_Vel_0
Time_Shift_47
Note_On_63_Vel_0
Note_On_72_Vel_0
Time_Shift_11
Note_On_63_Vel_55
Time_Shift_58
Sustain_On
Time_Shift_176
Note_On_44_Vel_0
Time_Shift_4
Note_On_44_Vel_38
Time_Shift_1
Note_On_62_Vel_49
Time_Shift_6
Note_On_60_Vel_45
Time_Shift_120
Note_On_63_Vel_0
Time_Shift_10
Note_On_63_Vel_53
Time_Shift_9
Note_On_51_Vel_45
Time_Shift_117
Note_On_50_Vel_47
Time_Shift_5
Note_On_72_Vel_56
Time_Shift_16
Sustain_Off
Time_Shift_104
Note_On_60_Vel_0
Time_Shift_6
Note_On_60_Vel_41
Time_Shift_3
Note_On_70_Vel_63
Time_Shift_1
Note_On_56_Vel_41
Time_Shift_36
Note_On_44_Vel_0
Note_On_62_Vel_0
Time_Shift_38
Note_On_50_Vel_0
Note_On_56_Vel_0
Time_Shift_24
Note_On_51_Vel_0
Note_On_63_Vel_0
Time_Shift_4
Note_On_51_Vel_32
Time_Shift_1
Note_On_68_Vel_61
Note_On_70_Vel_0
Time_Shift_18
Note_On_60_Vel_0
Note_On_72_Vel_0
Time_Shift_61
Note_On_51_Vel_0
Time_Shift_4
Note_On_46_Vel_43
Time_Shift_5
Note_On_51_Vel_34
Time_Shift_14
Note_On_68_Vel_0
Time_Shift_4
Note_On_67_Vel_57
Time_Shift_107
Note_On_49_Vel_39
Time_Shift_4
Note_On_49_Vel_0
Time_Shift_2
Note_On_77_Vel_50
Time_Shift_1
Note_On_61_Vel_39
Time_Shift_2
Note_On_68_Vel_42
Time_Shift_29
Note_On_67_Vel_0
Time_Shift_4
Note_On_46_Vel_0
Time_Shift_31
Note_On_68_Vel_0
Time_Shift_33
Note_On_39_Vel_37
Time_Shift_5
Note_On_75_Vel_52
Time_Shift_1
Note_On_39_Vel_0
Time_Shift_16
Note_On_77_Vel_0
Time_Shift_53
Note_On_61_Vel_0
Time_Shift_19
Note_On_51_Vel_0
Time_Shift_27
Note_On_75_Vel_0
Time_Shift_7
Note_On_75_Vel_53
Time_Shift_2
Note_On_72_Vel_40
Time_Shift_1
Note_On_68_Vel_39
Time_Shift_9
Note_On_50_Vel_33
Time_Shift_96
Sustain_On
Time_Shift_54
Note_On_68_Vel_0
Time_Shift_5
Note_On_73_Vel_37
Note_On_44_Vel_22
Time_Shift_6
Note_On_68_Vel_25
Time_Shift_1
Note_On_61_Vel_35
Time_Shift_3
Note_On_44_Vel_0
Time_Shift_114
Note_On_51_Vel_42
Time_Shift_45
Note_On_63_Vel_42
Time_Shift_15
Note_On_65_Vel_41
Time_Shift_54
Note_On_44_Vel_48
Time_Shift_3
Note_On_63_Vel_0
Time_Shift_4
Note_On_63_Vel_54
Time_Shift_10
Note_On_50_Vel_0
Time_Shift_1
Note_On_51_Vel_0
Note_On_61_Vel_0
Time_Shift_2
Sustain_Off
Time_Shift_1
Note_On_75_Vel_0
Time_Shift_5
Note_On_72_Vel_0
Time_Shift_15
Note_On_73_Vel_0
Time_Shift_28
Note_On_65_Vel_0
Time_Shift_18
Sustain_On
Time_Shift_16
Note_On_68_Vel_0
Time_Shift_26
Note_On_74_Vel_50
Note_On_62_Vel_59
Time_Shift_7
Note_On_72_Vel_49
Time_Shift_8
Note_On_60_Vel_52
Time_Shift_74
Note_On_63_Vel_0
Time_Shift_6
Note_On_63_Vel_63
Time_Shift_8
Note_On_51_Vel_44
Time_Shift_10
Note_On_50_Vel_41
Time_Shift_6
Note_On_50_Vel_0
Time_Shift_28
Sustain_Off
Time_Shift_1
Note_On_60_Vel_0
Time_Shift_13
Note_On_63_Vel_0
Time_Shift_1
Note_On_44_Vel_0
Time_Shift_4
Note_On_62_Vel_0
Time_Shift_7
Note_On_51_Vel_0
Time_Shift_8
Note_On_72_Vel_0
Time_Shift_10
Note_On_72_Vel_61
Time_Shift_8
Note_On_50_Vel_46
Time_Shift_5
Note_On_74_Vel_0
Time_Shift_74
Note_On_70_Vel_67
Time_Shift_6
Note_On_60_Vel_42
Time_Shift_20
Note_On_59_Vel_33
Time_Shift_7
Note_On_50_Vel_0
Note_On_59_Vel_0
Time_Shift_56
Note_On_55_Vel_44
Time_Shift_2
Note_On_68_Vel_66
Time_Shift_4
Note_On_55_Vel_0
Time_Shift_31
Note_On_60_Vel_0
Time_Shift_46
Note_On_46_Vel_47
Time_Shift_10
Note_On_67_Vel_62
Time_Shift_13
Note_On_70_Vel_0
Time_Shift_15
Note_On_68_Vel_0
Time_Shift_23
Note_On_72_Vel_0
Time_Shift_51
Note_On_77_Vel_58
Time_Shift_3
Note_On_60_Vel_43
Time_Shift_2
Note_On_61_Vel_47
Time_Shift_6
Note_On_60_Vel_0
Time_Shift_18
Note_On_46_Vel_0
Time_Shift_20
Note_On_67_Vel_0
Time_Shift_47
Note_On_51_Vel_47
Time_Shift_2
Note_On_75_Vel_57
Note_On_77_Vel_0
Time_Shift_43
Note_On_61_Vel_0
Time_Shift_35
Note_On_51_Vel_0
Time_Shift_19
Note_On_75_Vel_0
Time_Shift_11
Note_On_75_Vel_63
Time_Shift_15
Note_On_48_Vel_33
Time_Shift_66
Sustain_On
Time_Shift_65
Note_On_73_Vel_48
Time_Shift_1
Note_On_61_Vel_48
Time_Shift_3
Note_On_73_Vel_0
Time_Shift_54
Note_On_75_Vel_0
Time_Shift_11
Note_On_75_Vel_59
Time_Shift_4
Note_On_51_Vel_44
Time_Shift_23
Note_On_77_Vel_67
Time_Shift_11
Note_On_61_Vel_0
Time_Shift_1
Sustain_Off
Time_Shift_11
Note_On_48_Vel_0
Time_Shift_46
Note_On_75_Vel_0
Time_Shift_4
Note_On_75_Vel_68
Time_Shift_6
Note_On_48_Vel_50
Time_Shift_21
Note_On_51_Vel_0
Time_Shift_8
Note_On_77_Vel_0
Time_Shift_38
Sustain_On
Time_Shift_56
Note_On_74_Vel_81
Time_Shift_4
Note_On_63_Vel_49
Time_Shift_4
Note_On_51_Vel_45
Time_Shift_90
Note_On_75_Vel_0
Time_Shift_8
Note_On_75_Vel_78
Time_Shift_4
Note_On_56_Vel_57
Time_Shift_48
Note_On_74_Vel_0
Time_Shift_3
Note_On_48_Vel_0
Time_Shift_16
Sustain_Off
Time_Shift_1
Note_On_56_Vel_0
Time_Shift_4
Note_On_63_Vel_0
Time_Shift_16
Note_On_51_Vel_0
Time_Shift_27
Note_On_84_Vel_71
Time_Shift_2
Note_On_48_Vel_49
Time_Shift_4
Note_On_72_Vel_46
Time_Shift_5
Note_On_72_Vel_0
Time_Shift_23
Sustain_On
Time_Shift_8
Note_On_75_Vel_0
Time_Shift_76
Note_On_64_Vel_49
Time_Shift_5
Note_On_79_Vel_70
Note_On_60_Vel_37
Time_Shift_113
Note_On_56_Vel_45
Time_Shift_1
Note_On_68_Vel_43
Time_Shift_20
Note_On_64_Vel_0
Time_Shift_15
Note_On_48_Vel_0
Time_Shift_11
Sustain_Off
Time_Shift_5
Note_On_84_Vel_0
Time_Shift_7
Note_On_60_Vel_0
Time_Shift_8
Sustain_On
Time_Shift_21
Note_On_49_Vel_53
Time_Shift_4
Note_On_80_Vel_69
Time_Shift_13
Note_On_56_Vel_0
Time_Shift_95
Note_On_64_Vel_46
Time_Shift_1
Note_On_76_Vel_57
Time_Shift_81
Note_On_79_Vel_0
Time_Shift_4
Note_On_79_Vel_61
Time_Shift_5
Note_On_58_Vel_50
Time_Shift_9
Note_On_49_Vel_0
Time_Shift_1
Note_On_76_Vel_0
Note_On_64_Vel_0
Time_Shift_4
Note_On_68_Vel_0
Time_Shift_1
Sustain_Off
Time_Shift_14
Note_On_80_Vel_0
Time_Shift_46
Note_On_58_Vel_0
Time_Shift_20
Note_On_77_Vel_65
Time_Shift_8
Note_On_56_Vel_51
Time_Shift_3
Sustain_On
Time_Shift_54
Note_On_79_Vel_0
Time_Shift_27
Note_On_72_Vel_71
Time_Shift_12
Note_On_65_Vel_34
Time_Shift_31
Note_On_60_Vel_22
Time_Shift_40
Note_On_58_Vel_43
Sustain_Off
Time_Shift_1
Note_On_75_Vel_65
Note_On_56_Vel_0
Time_Shift_2
Note_On_65_Vel_0
Note_On_77_Vel_0
Time_Shift_2
Note_On_72_Vel_0
Time_Shift_23
Note_On_60_Vel_0
Time_Shift_62
Sustain_On
Time_Shift_6
Note_On_72_Vel_60
Time_Shift_1
Note_On_73_Vel_69
Time_Shift_4
Note_On_49_Vel_54
Time_Shift_27
Note_On_72_Vel_0
Time_Shift_38
Note_On_58_Vel_0
Time_Shift_30
Note_On_65_Vel_56
Time_Shift_12
Note_On_61_Vel_44
Time_Shift_4
Note_On_61_Vel_0
Time_Shift_57
Sustain_Off
Time_Shift_11
Note_On_73_Vel_0
Time_Shift_5
Note_On_49_Vel_0
Time_Shift_1
Note_On_67_Vel_71
Time_Shift_2
Note_On_65_Vel_0
Time_Shift_1
Note_On_75_Vel_0
Time_Shift_10
Note_On_58_Vel_53
Time_Shift_51
Note_On_67_Vel_0
Time_Shift_42
Note_On_68_Vel_64
Note_On_53_Vel_41
Time_Shift_103
Note_On_72_Vel_68
Time_Shift_8
Note_On_61_Vel_43
Time_Shift_90
Note_On_70_Vel_71
Time_Shift_27
Note_On_68_Vel_0
Time_Shift_10
Note_On_72_Vel_0
Time_Shift_59
Note_On_61_Vel_0
Time_Shift_7
Note_On_53_Vel_0
Time_Shift_12
Note_On_51_Vel_38
Time_Shift_7
Note_On_68_Vel_60
Time_Shift_27
Note_On_58_Vel_0
Time_Shift_77
Note_On_70_Vel_0
Time_Shift_12
Note_On_65_Vel_44
Time_Shift_19
Note_On_68_Vel_0
Time_Shift_2
Note_On_61_Vel_29
Time_Shift_86
Note_On_68_Vel_54
Time_Shift_3
Note_On_58_Vel_38
Time_Shift_23
Note_On_65_Vel_0
Time_Shift_55
Note_On_61_Vel_0
Time_Shift_38
Note_On_67_Vel_50
Time_Shift_20
Note_On_55_Vel_39
Time_Shift_145
Note_On_61_Vel_40
Time_Shift_9
Note_On_51_Vel_0
Time_Shift_3
Sustain_On
Time_Shift_1
Note_On_55_Vel_0
Time_Shift_91
Note_On_68_Vel_0
Time_Shift_31
Note_On_58_Vel_0
Note_On_65_Vel_50
Time_Shift_4
Note_On_58_Vel_36
Time_Shift_99
Note_On_63_Vel_54
Time_Shift_56
Note_On_44_Vel_48
Time_Shift_25
Note_On_67_Vel_0
Time_Shift_14
Note_On_61_Vel_0
Time_Shift_1
Note_On_63_Vel_0
Time_Shift_4
Sustain_Off
Note_On_65_Vel_0
Time_Shift_4
Note_On_58_Vel_0
Time_Shift_2
Note_On_63_Vel_57
Time_Shift_52
Sustain_On
Time_Shift_94
Note_On_60_Vel_52
Time_Shift_2
Note_On_62_Vel_61
Time_Shift_81
Note_On_63_Vel_0
Time_Shift_6
Note_On_63_Vel_61
Time_Shift_13
Note_On_51_Vel_48
Time_Shift_77
Note_On_60_Vel_0
Time_Shift_1
Note_On_62_Vel_0
Time_Shift_4
Note_On_63_Vel_0
Time_Shift_1
Sustain_Off
Time_Shift_1
Note_On_51_Vel_0
Time_Shift_4
Note_On_44_Vel_0
Time_Shift_10
Note_On_72_Vel_67
Time_Shift_9
Note_On_50_Vel_50
Time_Shift_87
Note_On_70_Vel_71
Time_Shift_9
Note_On_50_Vel_0
Time_Shift_3
Note_On_60_Vel_40
Time_Shift_15
Note_On_59_Vel_31
Time_Shift_5
Note_On_59_Vel_0
Time_Shift_65
Note_On_51_Vel_43
Note_On_68_Vel_64
Time_Shift_31
Note_On_70_Vel_0
Time_Shift_27
Note_On_60_Vel_0
Time_Shift_16
Note_On_51_Vel_0
Time_Shift_3
Note_On_46_Vel_47
Time_Shift_10
Note_On_67_Vel_65
Time_Shift_25
Note_On_68_Vel_0
Time_Shift_23
Note_On_72_Vel_0
Time_Shift_57
Note_On_49_Vel_44
Time_Shift_4
Note_On_77_Vel_56
Time_Shift_6
Note_On_61_Vel_44
Time_Shift_2
Note_On_46_Vel_0
Time_Shift_26
Note_On_67_Vel_0
Time_Shift_70
Note_On_76_Vel_59
Time_Shift_1
Note_On_51_Vel_37
Time_Shift_15
Note_On_77_Vel_0
Time_Shift_34
Note_On_49_Vel_0
Time_Shift_15
Note_On_51_Vel_0
Time_Shift_46
Note_On_61_Vel_0
Time_Shift_2
Note_On_76_Vel_0
Time_Shift_18
Note_On_50_Vel_42
Time_Shift_1
Note_On_75_Vel_54
Time_Shift_33
Sustain_On
Time_Shift_135
Note_On_61_Vel_38
Time_Shift_80
Note_On_51_Vel_47
Time_Shift_37
Note_On_63_Vel_64
Time_Shift_29
Note_On_65_Vel_49
Time_Shift_49
Sustain_Off
Time_Shift_5
Note_On_44_Vel_53
Time_Shift_3
Note_On_63_Vel_0
Note_On_50_Vel_0
Time_Shift_2
Note_On_51_Vel_0
Note_On_61_Vel_0
Time_Shift_1
Note_On_75_Vel_0
Time_Shift_5
Note_On_63_Vel_54
Time_Shift_54
Note_On_65_Vel_0
Time_Shift_57
Note_On_74_Vel_55
Time_Shift_5
Note_On_72_Vel_55
Time_Shift_7
Sustain_On
Note_On_60_Vel_58
Time_Shift_69
Note_On_63_Vel_0
Time_Shift_5
Note_On_63_Vel_67
Time_Shift_23
Note_On_51_Vel_55
Time_Shift_29
Note_On_60_Vel_0
Time_Shift_4
Note_On_44_Vel_0
Time_Shift_31
Note_On_72_Vel_0
Time_Shift_4
Note_On_72_Vel_64
Time_Shift_14
Note_On_51_Vel_0
Time_Shift_8
Note_On_50_Vel_55
Time_Shift_12
Note_On_74_Vel_0
Time_Shift_34
Sustain_Off
Time_Shift_18
Note_On_70_Vel_72
Time_Shift_25
Note_On_60_Vel_43
Time_Shift_23
Note_On_63_Vel_0
Time_Shift_37
Note_On_52_Vel_50
Time_Shift_2
Note_On_68_Vel_67
Time_Shift_7
Note_On_52_Vel_0
Time_Shift_69
Note_On_50_Vel_0
Time_Shift_14
Note_On_46_Vel_55
Time_Shift_4
Note_On_67_Vel_66
Time_Shift_31
Note_On_70_Vel_0
Time_Shift_36
Note_On_60_Vel_0
Note_On_68_Vel_0
Time_Shift_23
Note_On_67_Vel_0
Time_Shift_10
Note_On_67_Vel_55
Time_Shift_2
Note_On_77_Vel_71
Time_Shift_7
Note_On_61_Vel_55
Time_Shift_3
Note_On_55_Vel_39
Time_Shift_1
Note_On_61_Vel_0
Time_Shift_8
Note_On_55_Vel_0
Time_Shift_13
Note_On_46_Vel_0
Time_Shift_2
Note_On_67_Vel_0
Time_Shift_15
Note_On_72_Vel_0
Time_Shift_42
Note_On_76_Vel_75
Time_Shift_27
Note_On_77_Vel_0
Time_Shift_31
Sustain_On
Time_Shift_40
Note_On_69_Vel_58
Time_Shift_141
Note_On_61_Vel_53
Time_Shift_47
Note_On_51_Vel_58
Time_Shift_12
Note_On_55_Vel_45
Time_Shift_6
Note_On_55_Vel_0
Time_Shift_29
Note_On_75_Vel_61
Time_Shift_7
Note_On_77_Vel_70
Time_Shift_18
Sustain_Off
Time_Shift_19
Note_On_47_Vel_64
Time_Shift_8
Note_On_61_Vel_0
Time_Shift_11
Note_On_75_Vel_0
Sustain_On
Time_Shift_7
Note_On_75_Vel_71
Time_Shift_62
Sustain_Off
Time_Shift_46
Note_On_69_Vel_0
Time_Shift_16
Note_On_51_Vel_0
Time_Shift_8
Note_On_74_Vel_82
Time_Shift_1
Note_On_51_Vel_53
Time_Shift_3
Note_On_62_Vel_53
Time_Shift_11
Note_On_62_Vel_0
Note_On_77_Vel_0
Time_Shift_46
Note_On_76_Vel_0
Time_Shift_23
Note_On_75_Vel_0
Time_Shift_5
Note_On_57_Vel_55
Time_Shift_6
Note_On_69_Vel_58
Note_On_75_Vel_76
Time_Shift_35
Sustain_On
Time_Shift_54
Note_On_76_Vel_80
Time_Shift_3
Note_On_42_Vel_53
Time_Shift_2
Note_On_54_Vel_54
Time_Shift_2
Note_On_42_Vel_0
Time_Shift_6
Sustain_Off
Time_Shift_3
Note_On_57_Vel_0
Time_Shift_1
Note_On_47_Vel_0
Note_On_51_Vel_0
Time_Shift_1
Note_On_74_Vel_0
Time_Shift_1
Note_On_75_Vel_0
Time_Shift_11
Note_On_69_Vel_0
Time_Shift_59
Note_On_77_Vel_82
Time_Shift_4
Note_On_63_Vel_55
Time_Shift_4
Note_On_51_Vel_53
Time_Shift_3
Sustain_On
Time_Shift_82
Note_On_56_Vel_54
Time_Shift_1
Note_On_78_Vel_81
Time_Shift_74
Sustain_Off
Time_Shift_4
Note_On_56_Vel_0
Time_Shift_1
Note_On_54_Vel_0
Time_Shift_7
Note_On_76_Vel_0
Time_Shift_3
Note_On_78_Vel_0
Time_Shift_4
Note_On_51_Vel_0
Note_On_63_Vel_0
Time_Shift_10
Note_On_79_Vel_75
Time_Shift_6
Note_On_77_Vel_0
Time_Shift_13
Note_On_46_Vel_57
Time_Shift_56
Sustain_On
Time_Shift_57
Note_On_91_Vel_81
Time_Shift_23
Note_On_63_Vel_62
Time_Shift_81
Note_On_86_Vel_83
Time_Shift_10
Note_On_58_Vel_55
Time_Shift_1
Note_On_55_Vel_52
Time_Shift_104
Note_On_55_Vel_0
Time_Shift_2
Note_On_87_Vel_74
Time_Shift_2
Note_On_55_Vel_63
Time_Shift_88
Note_On_63_Vel_0
Time_Shift_5
Note_On_63_Vel_67
Time_Shift_6
Note_On_83_Vel_77
Time_Shift_5
Note_On_83_Vel_0
Time_Shift_61
Note_On_58_Vel_0
Time_Shift_11
Note_On_58_Vel_62
Time_Shift_14
Note_On_84_Vel_77
Time_Shift_90
Note_On_79_Vel_0
Time_Shift_5
Note_On_79_Vel_68
Time_Shift_3
Note_On_46_Vel_0
Time_Shift_8
Note_On_46_Vel_59
Time_Shift_8
Note_On_63_Vel_0
Time_Shift_1
Note_On_86_Vel_0
Note_On_84_Vel_0
Note_On_55_Vel_0
Time_Shift_1
Note_On_91_Vel_0
Note_On_87_Vel_0
Time_Shift_4
Sustain_Off
Time_Shift_32
Note_On_58_Vel_0
Time_Shift_51
Note_On_82_Vel_79
Time_Shift_10
Sustain_On
Time_Shift_1
Note_On_62_Vel_55
Time_Shift_5
Note_On_55_Vel_41
Time_Shift_91
Note_On_58_Vel_55
Note_On_80_Vel_75
Time_Shift_110
Note_On_77_Vel_76
Time_Shift_2
Note_On_56_Vel_59
Time_Shift_22
Note_On_55_Vel_0
Time_Shift_84
Note_On_62_Vel_0
Time_Shift_3
Note_On_72_Vel_72
Time_Shift_2
Note_On_62_Vel_50
Time_Shift_103
Note_On_58_Vel_0
Time_Shift_4
Note_On_74_Vel_79
Time_Shift_7
Note_On_58_Vel_56
Time_Shift_100
Note_On_82_Vel_0
Time_Shift_2
Sustain_Off
Time_Shift_1
Note_On_72_Vel_0
Time_Shift_1
Note_On_79_Vel_0
Note_On_80_Vel_0
Note_On_62_Vel_0
Note_On_77_Vel_0
Time_Shift_1
Note_On_74_Vel_0
Note_On_58_Vel_0
Time_Shift_1
Note_On_56_Vel_0
Time_Shift_5
Note_On_46_Vel_0
Time_Shift_27
Note_On_75_Vel_65
Time_Shift_8
Note_On_63_Vel_49
Time_Shift_58
Sustain_On
Time_Shift_72
Note_On_70_Vel_70
Time_Shift_3
Note_On_55_Vel_51
Time_Shift_22
Note_On_67_Vel_49
Time_Shift_102
Note_On_63_Vel_0
Time_Shift_5
Note_On_71_Vel_74
Time_Shift_3
Note_On_63_Vel_58
Time_Shift_96
Sustain_Off
Time_Shift_4
Note_On_70_Vel_0
Note_On_55_Vel_0
Time_Shift_4
Note_On_58_Vel_62
Time_Shift_1
Note_On_55_Vel_53
Time_Shift_5
Note_On_72_Vel_74
Time_Shift_28
Note_On_67_Vel_0
Note_On_71_Vel_0
Time_Shift_39
Sustain_On
Time_Shift_64
Note_On_67_Vel_55
Time_Shift_89
Note_On_63_Vel_0
Time_Shift_5
Note_On_63_Vel_61
Time_Shift_4
Note_On_74_Vel_78
Time_Shift_76
Note_On_75_Vel_0
Time_Shift_4
Note_On_67_Vel_0
Time_Shift_1
Note_On_72_Vel_0
Time_Shift_6
Sustain_Off
Time_Shift_41
Note_On_75_Vel_73
Time_Shift_3
Note_On_60_Vel_59
Time_Shift_22
Note_On_55_Vel_0
Time_Shift_23
Sustain_On
Time_Shift_7
Note_On_58_Vel_0
Time_Shift_8
Note_On_74_Vel_0
Time_Shift_76
Note_On_76_Vel_66
Time_Shift_3
Note_On_54_Vel_47
Time_Shift_2
Note_On_66_Vel_48
Time_Shift_26
Note_On_63_Vel_0
Time_Shift_93
Note_On_63_Vel_50
Time_Shift_42
Note_On_75_Vel_0
Time_Shift_1
Note_On_66_Vel_0
Time_Shift_3
Note_On_76_Vel_0
Time_Shift_1
Note_On_60_Vel_0
Time_Shift_9
Sustain_Off
Time_Shift_5
Note_On_54_Vel_0
Time_Shift_60
Note_On_44_Vel_45
Time_Shift_7
Note_On_58_Vel_45
Time_Shift_2
Note_On_44_Vel_0
Time_Shift_12
Note_On_63_Vel_0
Time_Shift_50
Sustain_On
Time_Shift_65
Note_On_66_Vel_42
Time_Shift_98
Note_On_63_Vel_45
Time_Shift_2
Note_On_75_Vel_44
Time_Shift_4
Note_On_75_Vel_0
Time_Shift_101
Sustain_Off
Time_Shift_3
Note_On_57_Vel_45
Time_Shift_5
Note_On_58_Vel_0
Time_Shift_44
Sustain_On
Time_Shift_21
Note_On_63_Vel_0
Time_Shift_60
Note_On_65_Vel_38
Time_Shift_15
Note_On_76_Vel_60
Time_Shift_4
Note_On_66_Vel_0
Time_Shift_120
Note_On_75_Vel_54
Time_Shift_2
Note_On_63_Vel_49
Time_Shift_97
Note_On_57_Vel_0
Time_Shift_4
Note_On_76_Vel_0
Time_Shift_46
Sustain_Off
Time_Shift_28
Note_On_84_Vel_50
Note_On_58_Vel_36
Time_Shift_27
Note_On_63_Vel_0
Time_Shift_45
Note_On_65_Vel_0
Note_On_75_Vel_0
Sustain_On
Time_Shift_96
Note_On_66_Vel_35
Time_Shift_123
Note_On_63_Vel_33
Time_Shift_1
Note_On_75_Vel_34
Time_Shift_95
Note_On_58_Vel_0
Time_Shift_28
Note_On_57_Vel_36
Time_Shift_102
Note_On_75_Vel_0
Time_Shift_4
Note_On_65_Vel_38
Note_On_75_Vel_47
Time_Shift_96
Note_On_63_Vel_0
Time_Shift_7
Note_On_77_Vel_54
Time_Shift_2
Note_On_63_Vel_45
Time_Shift_95
Sustain_Off
Time_Shift_1
Note_On_63_Vel_0
Note_On_57_Vel_0
Time_Shift_2
Note_On_75_Vel_0
Time_Shift_1
Note_On_65_Vel_0
Time_Shift_4
Note_On_77_Vel_0
Time_Shift_3
Note_On_66_Vel_0
Time_Shift_18
Note_On_59_Vel_35
Time_Shift_97
Sustain_On
Time_Shift_5
Note_On_77_Vel_55
Time_Shift_3
Note_On_84_Vel_0
Time_Shift_104
Note_On_60_Vel_44
Time_Shift_2
Note_On_75_Vel_56
Time_Shift_94
Note_On_77_Vel_0
Time_Shift_10
Note_On_77_Vel_57
Time_Shift_5
Note_On_60_Vel_0
Time_Shift_3
Note_On_75_Vel_0
Time_Shift_5
Note_On_59_Vel_0
Sustain_Off
Time_Shift_61
Sustain_On
Time_Shift_42
Note_On_72_Vel_59
Time_Shift_16
Note_On_65_Vel_33
Time_Shift_100
Note_On_75_Vel_49
Time_Shift_10
Note_On_61_Vel_36
Time_Shift_113
Note_On_72_Vel_0
Time_Shift_7
Note_On_73_Vel_58
Time_Shift_1
Note_On_65_Vel_0
Time_Shift_1
Note_On_61_Vel_0
Sustain_Off
Time_Shift_4
Note_On_56_Vel_38
Time_Shift_1
Note_On_75_Vel_0
Time_Shift_20
Note_On_77_Vel_0
Time_Shift_77
Sustain_On
Time_Shift_41
Note_On_64_Vel_36
Time_Shift_105
Note_On_73_Vel_0
Time_Shift_2
Note_On_58_Vel_34
Time_Shift_2
Note_On_73_Vel_25
Time_Shift_166
Note_On_55_Vel_38
Time_Shift_14
Note_On_56_Vel_0
Time_Shift_23
Note_On_64_Vel_0
Time_Shift_77
Sustain_Off
Time_Shift_74
Note_On_72_Vel_52
Time_Shift_1
Note_On_63_Vel_33
Time_Shift_9
Sustain_On
Time_Shift_123
Note_On_58_Vel_0
Note_On_73_Vel_0
Time_Shift_6
Note_On_73_Vel_59
Time_Shift_5
Note_On_58_Vel_37
Time_Shift_122
Note_On_72_Vel_0
Time_Shift_8
Note_On_63_Vel_0
Time_Shift_8
Sustain_Off
Time_Shift_1
Note_On_55_Vel_0
Time_Shift_1
Note_On_58_Vel_0
Time_Shift_15
Note_On_76_Vel_51
Time_Shift_11
Note_On_73_Vel_0
Time_Shift_4
Note_On_56_Vel_36
Time_Shift_88
Sustain_On
Time_Shift_33
Note_On_64_Vel_38
Time_Shift_103
Note_On_59_Vel_37
Time_Shift_5
Note_On_71_Vel_32
Time_Shift_108
Note_On_74_Vel_45
Time_Shift_3
Note_On_55_Vel_43
Time_Shift_128
Note_On_63_Vel_43
Time_Shift_124
Note_On_75_Vel_59
Time_Shift_11
Note_On_64_Vel_0
Time_Shift_18
Note_On_58_Vel_37
Time_Shift_43
Note_On_56_Vel_0
Time_Shift_46
Note_On_71_Vel_0
Time_Shift_12
Note_On_63_Vel_0
Time_Shift_4
Note_On_59_Vel_0
Note_On_74_Vel_0
Time_Shift_53
Note_On_55_Vel_0
Note_On_76_Vel_0
Time_Shift_17
Note_On_82_Vel_59
Time_Shift_1
Note_On_53_Vel_30
Time_Shift_4
Sustain_Off
Time_Shift_12
Note_On_70_Vel_31
Time_Shift_12
Note_On_75_Vel_0
Time_Shift_16
Note_On_58_Vel_0
Time_Shift_115
Sustain_On
Time_Shift_6
Note_On_62_Vel_36
Time_Shift_122
Note_On_68_Vel_34
Time_Shift_3
Note_On_56_Vel_41
Time_Shift_92
Note_On_68_Vel_0
Time_Shift_36
Note_On_52_Vel_40
Time_Shift_144
Note_On_73_Vel_65
Time_Shift_16
Note_On_61_Vel_39
Time_Shift_103
Note_On_56_Vel_0
Time_Shift_4
Note_On_75_Vel_58
Time_Shift_5
Note_On_56_Vel_48
Time_Shift_89
Note_On_61_Vel_0
Time_Shift_2
Note_On_62_Vel_0
Sustain_Off
Time_Shift_1
Note_On_52_Vel_0
Time_Shift_1
Note_On_53_Vel_0
Note_On_56_Vel_0
Time_Shift_1
Note_On_73_Vel_0
Time_Shift_1
Note_On_75_Vel_0
Time_Shift_4
Note_On_82_Vel_0
Time_Shift_7
Note_On_70_Vel_0
Time_Shift_11
Note_On_77_Vel_55
Time_Shift_20
Note_On_51_Vel_44
Time_Shift_69
Sustain_On
Time_Shift_62
Note_On_75_Vel_54
Time_Shift_2
Note_On_61_Vel_38
Time_Shift_110
Note_On_73_Vel_68
Time_Shift_1
Note_On_55_Vel_34
Time_Shift_101
Sustain_Off
Time_Shift_18
Note_On_51_Vel_0
Time_Shift_3
Note_On_73_Vel_0
Time_Shift_4
Note_On_61_Vel_0
Time_Shift_6
Note_On_75_Vel_0
Note_On_77_Vel_0
Time_Shift_6
Note_On_75_Vel_52
Time_Shift_2
Note_On_55_Vel_0
Time_Shift_2
Note_On_72_Vel_48
Note_On_44_Vel_44
Time_Shift_75
Sustain_On
Time_Shift_95
Note_On_70_Vel_57
Time_Shift_25
Note_On_60_Vel_37
Time_Shift_33
Note_On_72_Vel_0
Time_Shift_65
Note_On_56_Vel_43
Time_Shift_4
Note_On_72_Vel_50
Time_Shift_112
Sustain_Off
Time_Shift_27
Note_On_44_Vel_0
Note_On_72_Vel_0
Time_Shift_2
Note_On_70_Vel_0
Time_Shift_4
Note_On_60_Vel_0
Time_Shift_3
Note_On_44_Vel_39
Time_Shift_2
Note_On_72_Vel_54
Time_Shift_20
Note_On_56_Vel_0
Note_On_75_Vel_0
Time_Shift_115
Sustain_On
Time_Shift_3
Note_On_60_Vel_35
Time_Shift_97
Note_On_72_Vel_0
Time_Shift_9
Note_On_72_Vel_38
Note_On_56_Vel_47
Note_On_68_Vel_41
Time_Shift_144
Note_On_68_Vel_0
Note_On_72_Vel_0
Time_Shift_4
Note_On_72_Vel_49
Time_Shift_1
Note_On_53_Vel_51
Time_Shift_1
Sustain_Off
Note_On_68_Vel_36
Time_Shift_6
Note_On_60_Vel_0
Time_Shift_3
Note_On_56_Vel_0
Time_Shift_16
Note_On_44_Vel_0
Time_Shift_92
Sustain_On
Time_Shift_55
Note_On_60_Vel_37
Time_Shift_11
Note_On_56_Vel_38
Time_Shift_5
Note_On_67_Vel_46
Time_Shift_106
Note_On_53_Vel_0
Note_On_56_Vel_0
Note_On_68_Vel_0
Time_Shift_5
Note_On_68_Vel_53
Time_Shift_2
Note_On_60_Vel_0
Time_Shift_3
Note_On_53_Vel_36
Time_Shift_1
Note_On_56_Vel_58
Time_Shift_6
Note_On_60_Vel_28
Time_Shift_72
Sustain_Off
Time_Shift_6
Note_On_56_Vel_0
Note_On_60_Vel_0
Time_Shift_1
Note_On_67_Vel_0
Note_On_53_Vel_0
Time_Shift_29
Note_On_46_Vel_61
Time_Shift_5
Note_On_72_Vel_0
Time_Shift_5
Note_On_72_Vel_58
Time_Shift_49
Note_On_68_Vel_0
Time_Shift_23
Sustain_On
Time_Shift_64
Note_On_70_Vel_61
Time_Shift_11
Note_On_62_Vel_44
Time_Shift_99
Note_On_68_Vel_59
Time_Shift_3
Note_On_56_Vel_54
Time_Shift_51
Note_On_62_Vel_0
Time_Shift_6
Note_On_46_Vel_0
Time_Shift_1
Sustain_Off
Time_Shift_13
Note_On_56_Vel_0
Time_Shift_17
Note_On_51_Vel_59
Time_Shift_12
Note_On_68_Vel_0
Time_Shift_1
Note_On_67_Vel_59
Time_Shift_22
Note_On_70_Vel_0
Time_Shift_69
Sustain_On
Time_Shift_14
Note_On_70_Vel_61
Time_Shift_1
Note_On_63_Vel_46
Time_Shift_100
Note_On_72_Vel_0
Time_Shift_4
Note_On_58_Vel_48
Time_Shift_1
Note_On_72_Vel_67
Time_Shift_76
Sustain_Off
Time_Shift_3
Note_On_67_Vel_0
Time_Shift_4
Note_On_51_Vel_0
Time_Shift_22
Note_On_73_Vel_71
Time_Shift_1
Note_On_55_Vel_53
Time_Shift_4
Note_On_63_Vel_0
Time_Shift_15
Note_On_67_Vel_38
Time_Shift_54
Sustain_On
Time_Shift_22
Note_On_63_Vel_46
Time_Shift_8
Note_On_77_Vel_61
Time_Shift_62
Note_On_58_Vel_0
Time_Shift_12
Note_On_58_Vel_52
Time_Shift_29
Note_On_75_Vel_57
Time_Shift_67
Note_On_72_Vel_0
Sustain_Off
Time_Shift_2
Note_On_73_Vel_0
Time_Shift_1
Note_On_77_Vel_0
Time_Shift_3
Note_On_58_Vel_0
Time_Shift_9
Note_On_55_Vel_0
Note_On_67_Vel_0
Time_Shift_8
Note_On_70_Vel_0
Time_Shift_15
Note_On_63_Vel_0
Time_Shift_3
Note_On_72_Vel_67
Time_Shift_2
Note_On_56_Vel_57
Time_Shift_80
Sustain_On
Time_Shift_30
Note_On_67_Vel_56
Time_Shift_5
Note_On_63_Vel_45
Time_Shift_91
Note_On_68_Vel_67
Time_Shift_1
Note_On_60_Vel_53
Time_Shift_75
Sustain_Off
Time_Shift_2
Note_On_60_Vel_0
Time_Shift_3
Note_On_75_Vel_0
Time_Shift_4
Note_On_68_Vel_0
Time_Shift_4
Note_On_56_Vel_0
Note_On_72_Vel_0
Time_Shift_6
Note_On_72_Vel_68
Time_Shift_8
Note_On_53_Vel_51
Time_Shift_1
Note_On_63_Vel_0
Note_On_67_Vel_0
Time_Shift_100
Note_On_70_Vel_67
Time_Shift_3
Note_On_62_Vel_50
Time_Shift_5
Sustain_On
Time_Shift_80
Note_On_56_Vel_63
Time_Shift_6
Note_On_68_Vel_64
Time_Shift_59
Note_On_62_Vel_0
Time_Shift_4
Note_On_70_Vel_0
Time_Shift_9
Note_On_68_Vel_0
Time_Shift_1
Note_On_53_Vel_0
Time_Shift_4
Note_On_56_Vel_0
Time_Shift_10
Sustain_Off
Time_Shift_7
Note_On_48_Vel_57
Time_Shift_1
Note_On_51_Vel_62
Time_Shift_6
Note_On_67_Vel_65
Time_Shift_5
Note_On_48_Vel_0
Time_Shift_73
Note_On_70_Vel_67
Time_Shift_16
Note_On_63_Vel_51
Time_Shift_3
Sustain_On
Time_Shift_77
Note_On_72_Vel_0
Time_Shift_10
Note_On_72_Vel_74
Time_Shift_10
Note_On_58_Vel_57
Time_Shift_33
Note_On_67_Vel_0
Time_Shift_4
Note_On_70_Vel_0
Time_Shift_23
Note_On_51_Vel_0
Time_Shift_30
Note_On_73_Vel_74
Time_Shift_3
Note_On_55_Vel_57
Time_Shift_17
Note_On_63_Vel_0
Time_Shift_61
Note_On_63_Vel_55
Time_Shift_19
Note_On_77_Vel_68
Time_Shift_57
Sustain_Off
Time_Shift_23
Note_On_73_Vel_0
Time_Shift_2
Note_On_63_Vel_0
Time_Shift_4
Note_On_75_Vel_64
Note_On_63_Vel_38
Time_Shift_10
Note_On_58_Vel_0
Time_Shift_2
Note_On_55_Vel_0
Time_Shift_27
Note_On_77_Vel_0
Time_Shift_3
Note_On_72_Vel_0
Time_Shift_42
Note_On_56_Vel_64
Time_Shift_2
Note_On_71_Vel_61
Time_Shift_2
Note_On_72_Vel_69
Time_Shift_7
Note_On_71_Vel_0
Time_Shift_46
Sustain_On
Time_Shift_39
Note_On_63_Vel_0
Time_Shift_4
Note_On_63_Vel_50
Time_Shift_7
Note_On_71_Vel_60
Time_Shift_72
Note_On_60_Vel_59
Time_Shift_1
Note_On_56_Vel_0
Note_On_72_Vel_0
Time_Shift_6
Note_On_56_Vel_52
Time_Shift_4
Note_On_72_Vel_75
Time_Shift_69
Note_On_71_Vel_0
Time_Shift_2
Note_On_63_Vel_0
Time_Shift_8
Sustain_Off
Time_Shift_11
Note_On_56_Vel_0
Note_On_75_Vel_0
Time_Shift_5
Note_On_75_Vel_69
Time_Shift_5
Note_On_56_Vel_62
Time_Shift_6
Sustain_On
Time_Shift_15
Sustain_Off
Time_Shift_8
Note_On_60_Vel_0
Time_Shift_23
Note_On_72_Vel_0
Time_Shift_76
Sustain_On
Time_Shift_3
Note_On_70_Vel_58
Time_Shift_78
Note_On_59_Vel_55
Time_Shift_5
Note_On_71_Vel_65
Time_Shift_83
Note_On_75_Vel_0
Time_Shift_5
Note_On_75_Vel_74
Time_Shift_17
Note_On_55_Vel_56
Time_Shift_4
Note_On_71_Vel_0
Note_On_56_Vel_0
Time_Shift_1
Sustain_Off
Time_Shift_1
Note_On_70_Vel_0
Time_Shift_2
Note_On_59_Vel_0
Time_Shift_86
Note_On_69_Vel_62
Time_Shift_7
Sustain_On
Time_Shift_18
Note_On_63_Vel_53
Time_Shift_5
Note_On_55_Vel_0
Time_Shift_28
Note_On_58_Vel_52
Time_Shift_13
Note_On_70_Vel_69
Time_Shift_76
Note_On_54_Vel_48
Time_Shift_3
Note_On_73_Vel_70
Time_Shift_1
Note_On_74_Vel_77
Time_Shift_12
Note_On_69_Vel_0
Time_Shift_2
Note_On_58_Vel_0
Note_On_63_Vel_0
Time_Shift_5
Sustain_Off
Time_Shift_22
Note_On_75_Vel_0
Time_Shift_30
Note_On_70_Vel_0
Time_Shift_18
Note_On_68_Vel_58
Time_Shift_13
Sustain_On
Time_Shift_13
Note_On_61_Vel_45
Time_Shift_25
Note_On_74_Vel_0
Time_Shift_30
Note_On_56_Vel_49
Time_Shift_53
Note_On_61_Vel_0
Time_Shift_3
Note_On_68_Vel_0
Time_Shift_2
Note_On_54_Vel_0
Time_Shift_12
Note_On_56_Vel_0
Time_Shift_8
Note_On_73_Vel_0
Time_Shift_11
Note_On_73_Vel_76
Time_Shift_7
Sustain_Off
Time_Shift_9
Note_On_53_Vel_39
Time_Shift_65
Sustain_On
Time_Shift_22
Note_On_67_Vel_58
Time_Shift_34
Note_On_61_Vel_41
Time_Shift_42
Note_On_68_Vel_65
Time_Shift_7
Note_On_56_Vel_56
Time_Shift_95
Note_On_73_Vel_0
Time_Shift_6
Note_On_73_Vel_65
Time_Shift_6
Note_On_74_Vel_70
Time_Shift_8
Note_On_67_Vel_0
Time_Shift_3
Note_On_74_Vel_0
Time_Shift_3
Sustain_Off
Time_Shift_4
Note_On_68_Vel_0
Time_Shift_7
Note_On_68_Vel_53
Time_Shift_2
Note_On_61_Vel_0
Time_Shift_3
Note_On_53_Vel_0
Time_Shift_8
Note_On_54_Vel_39
Time_Shift_57
Note_On_73_Vel_0
Time_Shift_8
Note_On_68_Vel_0
Time_Shift_10
Note_On_68_Vel_51
Time_Shift_13
Sustain_On
Time_Shift_16
Note_On_62_Vel_38
Time_Shift_8
Note_On_61_Vel_30
Time_Shift_56
Note_On_57_Vel_50
Time_Shift_6
Note_On_69_Vel_60
Time_Shift_90
Note_On_73_Vel_70
Time_Shift_5
Note_On_53_Vel_42
Time_Shift_3
Note_On_54_Vel_0
Time_Shift_16
Note_On_56_Vel_0
Sustain_Off
Time_Shift_2
Note_On_62_Vel_0
Note_On_68_Vel_0
Time_Shift_1
Note_On_69_Vel_0
Time_Shift_1
Note_On_57_Vel_0
Time_Shift_42
Note_On_61_Vel_0
Time_Shift_43
Note_On_67_Vel_50
Time_Shift_3
Sustain_On
Time_Shift_14
Note_On_61_Vel_42
Time_Shift_68
Note_On_56_Vel_48
Time_Shift_5
Note_On_68_Vel_60
Time_Shift_92
Sustain_Off
Note_On_72_Vel_66
Time_Shift_5
Note_On_53_Vel_0
Time_Shift_1
Note_On_61_Vel_0
Time_Shift_2
Note_On_56_Vel_0
Note_On_68_Vel_0
Note_On_73_Vel_0
Time_Shift_3
Note_On_52_Vel_42
Time_Shift_10
Note_On_67_Vel_0
Time_Shift_74
Note_On_66_Vel_49
Time_Shift_1
Note_On_60_Vel_43
Time_Shift_32
Sustain_On
Time_Shift_57
Note_On_67_Vel_51
Note_On_55_Vel_47
Time_Shift_77
Sustain_Off
Time_Shift_6
Note_On_52_Vel_0
Time_Shift_1
Note_On_66_Vel_0
Time_Shift_2
Note_On_60_Vel_0
Time_Shift_4
Note_On_55_Vel_0
Time_Shift_4
Note_On_51_Vel_45
Time_Shift_2
Note_On_71_Vel_63
Time_Shift_24
Note_On_72_Vel_0
Time_Shift_7
Note_On_67_Vel_0
Time_Shift_46
Sustain_On
Time_Shift_40
Note_On_65_Vel_42
Time_Shift_2
Note_On_59_Vel_33
Time_Shift_78
Note_On_54_Vel_40
Time_Shift_60
Sustain_Off
Time_Shift_12
Note_On_65_Vel_0
Time_Shift_2
Note_On_51_Vel_0
Time_Shift_2
Note_On_59_Vel_0
Time_Shift_2
Note_On_54_Vel_0
Time_Shift_24
Note_On_72_Vel_61
Time_Shift_9
Note_On_71_Vel_0
Time_Shift_5
Note_On_52_Vel_38
Time_Shift_87
Sustain_On
Time_Shift_16
Note_On_66_Vel_42
Time_Shift_15
Note_On_60_Vel_35
Time_Shift_80
Note_On_55_Vel_42
Time_Shift_3
Note_On_67_Vel_37
Time_Shift_9
Note_On_67_Vel_0
Time_Shift_95
Note_On_71_Vel_52
Time_Shift_1
Note_On_51_Vel_41
Time_Shift_22
Sustain_Off
Time_Shift_1
Note_On_52_Vel_0
Time_Shift_1
Note_On_60_Vel_0
Time_Shift_7
Note_On_55_Vel_0
Time_Shift_57
Note_On_72_Vel_0
Time_Shift_23
Sustain_On
Time_Shift_19
Note_On_65_Vel_34
Time_Shift_3
Note_On_59_Vel_30
Time_Shift_84
Note_On_73_Vel_41
Time_Shift_7
Note_On_54_Vel_35
Time_Shift_2
Note_On_73_Vel_0
Time_Shift_127
Note_On_70_Vel_55
Sustain_Off
Time_Shift_7
Note_On_50_Vel_32
Time_Shift_19
Note_On_51_Vel_0
Note_On_59_Vel_0
Note_On_65_Vel_0
Time_Shift_1
Note_On_66_Vel_0
Time_Shift_3
Note_On_54_Vel_0
Time_Shift_12
Note_On_71_Vel_0
Time_Shift_85
Sustain_On
Time_Shift_6
Note_On_64_Vel_40
Time_Shift_14
Note_On_58_Vel_31
Time_Shift_91
Note_On_65_Vel_39
Time_Shift_8
Note_On_53_Vel_29
Time_Shift_114
Sustain_Off
Time_Shift_5
Note_On_65_Vel_0
Time_Shift_9
Note_On_65_Vel_41
Time_Shift_31
Note_On_70_Vel_0
Note_On_50_Vel_0
Time_Shift_2
Note_On_58_Vel_0
Time_Shift_1
Note_On_53_Vel_0
Time_Shift_14
Note_On_49_Vel_29
Time_Shift_12
Note_On_64_Vel_0
Time_Shift_38
Sustain_On
Time_Shift_37
Note_On_67_Vel_52
Time_Shift_13
Note_On_58_Vel_39
Time_Shift_114
Note_On_68_Vel_53
Time_Shift_2
Note_On_53_Vel_30
Time_Shift_115
Sustain_Off
Time_Shift_37
Note_On_46_Vel_44
Time_Shift_1
Note_On_70_Vel_54
Time_Shift_12
Note_On_68_Vel_0
Time_Shift_11
Note_On_68_Vel_34
Time_Shift_19
Note_On_49_Vel_0
Time_Shift_3
Note_On_67_Vel_0
Time_Shift_1
Note_On_65_Vel_0
Time_Shift_7
Note_On_53_Vel_0
Time_Shift_8
Note_On_68_Vel_0
Time_Shift_66
Sustain_On
Time_Shift_10
Note_On_72_Vel_49
Time_Shift_39
Note_On_61_Vel_30
Time_Shift_105
Note_On_72_Vel_0
Time_Shift_7
Note_On_73_Vel_52
Time_Shift_2
Note_On_72_Vel_45
Time_Shift_1
Note_On_68_Vel_28
Time_Shift_135
Note_On_72_Vel_0
Time_Shift_8
Note_On_68_Vel_0
Note_On_70_Vel_0
Time_Shift_4
Sustain_Off
Note_On_72_Vel_49
Time_Shift_1
Note_On_51_Vel_37
Time_Shift_4
Note_On_68_Vel_33
Time_Shift_12
Note_On_46_Vel_0
Time_Shift_5
Note_On_58_Vel_0
Time_Shift_1
Note_On_73_Vel_0
Note_On_61_Vel_0
Time_Shift_150
Sustain_On
Time_Shift_15
Note_On_60_Vel_26
Time_Shift_39
Note_On_72_Vel_0
Time_Shift_92
Note_On_72_Vel_32
Time_Shift_5
Note_On_56_Vel_39
Time_Shift_168
Note_On_70_Vel_47
Time_Shift_19
Note_On_72_Vel_0
Time_Shift_4
Note_On_72_Vel_36
Time_Shift_1
Sustain_Off
Time_Shift_2
Note_On_51_Vel_0
Time_Shift_4
Note_On_56_Vel_0
Note_On_60_Vel_0
Time_Shift_3
Note_On_51_Vel_30
Time_Shift_24
Note_On_68_Vel_0
Time_Shift_100
Sustain_On
Time_Shift_51
Note_On_61_Vel_24
Time_Shift_4
Note_On_60_Vel_25
Time_Shift_6
Note_On_60_Vel_0
Time_Shift_208
Note_On_72_Vel_0
Time_Shift_7
Note_On_72_Vel_27
Time_Shift_1
Note_On_55_Vel_31
Time_Shift_131
Note_On_63_Vel_46
Time_Shift_1
Note_On_60_Vel_28
Time_Shift_27
Note_On_65_Vel_38
Time_Shift_59
Note_On_61_Vel_0
Sustain_Off
Time_Shift_3
Note_On_55_Vel_0
Time_Shift_1
Note_On_60_Vel_0
Note_On_63_Vel_0
Note_On_51_Vel_0
Time_Shift_8
Note_On_72_Vel_0
Time_Shift_1
Note_On_63_Vel_49
Time_Shift_4
Note_On_68_Vel_38
Time_Shift_1
Note_On_72_Vel_37
Time_Shift_2
Note_On_44_Vel_45
Time_Shift_7
Note_On_70_Vel_0
Time_Shift_31
Note_On_65_Vel_0
Time_Shift_38
Sustain_On
Time_Shift_90
Note_On_62_Vel_47
Time_Shift_5
Note_On_60_Vel_43
Time_Shift_90
Note_On_63_Vel_0
Time_Shift_8
Note_On_63_Vel_55
Time_Shift_27
Note_On_51_Vel_45
Time_Shift_45
Sustain_Off
Time_Shift_9
Note_On_60_Vel_0
Time_Shift_3
Note_On_72_Vel_0
Time_Shift_2
Note_On_44_Vel_0
Time_Shift_3
Note_On_62_Vel_0
Time_Shift_2
Note_On_68_Vel_0
Time_Shift_4
Note_On_63_Vel_0
Note_On_51_Vel_0
Note_On_72_Vel_61
Time_Shift_38
Note_On_50_Vel_44
Time_Shift_70
Note_On_70_Vel_64
Time_Shift_19
Note_On_50_Vel_0
Time_Shift_4
Note_On_60_Vel_37
Time_Shift_77
Note_On_68_Vel_58
Time_Shift_6
Note_On_70_Vel_0
Time_Shift_19
Note_On_60_Vel_0
Time_Shift_17
Note_On_72_Vel_0
Time_Shift_43
Note_On_68_Vel_0
Time_Shift_6
Note_On_46_Vel_43
Time_Shift_16
Note_On_67_Vel_58
Time_Shift_107
Note_On_68_Vel_41
Time_Shift_2
Note_On_77_Vel_50
Time_Shift_20
Note_On_61_Vel_28
Time_Shift_6
Note_On_60_Vel_29
Time_Shift_18
Note_On_46_Vel_0
Time_Shift_20
Note_On_67_Vel_0
Time_Shift_23
Note_On_60_Vel_0
Time_Shift_14
Note_On_76_Vel_56
Time_Shift_16
Note_On_77_Vel_0
Time_Shift_7
Note_On_51_Vel_40
Time_Shift_55
Note_On_76_Vel_0
Time_Shift_39
Note_On_61_Vel_0
Time_Shift_14
Note_On_75_Vel_50
Time_Shift_1
Note_On_72_Vel_41
Time_Shift_8
Note_On_72_Vel_0
Time_Shift_21
Note_On_50_Vel_41
Time_Shift_48
Sustain_On
Time_Shift_15
Note_On_68_Vel_0
Time_Shift_87
Note_On_61_Vel_34
Time_Shift_59
Note_On_51_Vel_0
Time_Shift_43
Note_On_51_Vel_45
Time_Shift_38
Note_On_63_Vel_58
Time_Shift_15
Note_On_65_Vel_37
Time_Shift_52
Sustain_Off
Time_Shift_8
Note_On_75_Vel_0
Time_Shift_1
Note_On_61_Vel_0
Note_On_50_Vel_0
Note_On_51_Vel_0
Time_Shift_1
Note_On_65_Vel_0
Time_Shift_3
Note_On_63_Vel_0
Time_Shift_5
Note_On_63_Vel_62
Time_Shift_1
Note_On_44_Vel_49
Time_Shift_79
Sustain_On
Time_Shift_41
Note_On_62_Vel_59
Time_Shift_9
Note_On_72_Vel_51
Time_Shift_21
Note_On_60_Vel_57
Time_Shift_67
Note_On_63_Vel_0
Time_Shift_5
Note_On_63_Vel_73
Time_Shift_11
Note_On_51_Vel_57
Time_Shift_60
Note_On_44_Vel_0
Time_Shift_3
Sustain_Off
Note_On_60_Vel_0
Note_On_62_Vel_0
Time_Shift_2
Note_On_63_Vel_0
Time_Shift_4
Note_On_51_Vel_0
Time_Shift_15
Note_On_72_Vel_0
Time_Shift_5
Note_On_72_Vel_71
Time_Shift_36
Note_On_50_Vel_50
Time_Shift_65
Note_On_70_Vel_75
Time_Shift_6
Note_On_60_Vel_42
Time_Shift_7
Note_On_72_Vel_0
Time_Shift_4
Sustain_On
Time_Shift_79
Note_On_50_Vel_0
Time_Shift_2
Note_On_68_Vel_70
Time_Shift_1
Note_On_56_Vel_52
Time_Shift_26
Note_On_70_Vel_0
Time_Shift_15
Sustain_Off
Time_Shift_57
Note_On_69_Vel_76
Time_Shift_24
Note_On_48_Vel_44
Time_Shift_11
Note_On_68_Vel_0
Time_Shift_7
Note_On_56_Vel_0
Time_Shift_62
Sustain_On
Time_Shift_8
Note_On_60_Vel_0
Time_Shift_28
Note_On_78_Vel_71
Time_Shift_47
Note_On_51_Vel_36
Time_Shift_5
Note_On_63_Vel_50
Time_Shift_87
Note_On_76_Vel_73
Time_Shift_24
Note_On_57_Vel_42
Time_Shift_8
Note_On_68_Vel_33
Time_Shift_8
Note_On_68_Vel_0
Time_Shift_84
Note_On_63_Vel_0
Time_Shift_4
Note_On_48_Vel_0
Time_Shift_1
Note_On_57_Vel_0
Time_Shift_7
Sustain_Off
Time_Shift_4
Note_On_51_Vel_0
Time_Shift_14
Note_On_77_Vel_71
Time_Shift_2
Note_On_72_Vel_43
Time_Shift_11
Note_On_41_Vel_30
Time_Shift_4
Note_On_53_Vel_30
Time_Shift_7
Note_On_41_Vel_0
Note_On_69_Vel_0
Time_Shift_31
Note_On_78_Vel_0
Time_Shift_46
Note_On_76_Vel_0
Time_Shift_31
Sustain_On
Time_Shift_21
Note_On_63_Vel_57
Time_Shift_76
Note_On_70_Vel_66
Time_Shift_2
Note_On_57_Vel_55
Time_Shift_24
Note_On_72_Vel_0
Time_Shift_11
Note_On_72_Vel_65
Time_Shift_50
Note_On_70_Vel_0
Time_Shift_4
Note_On_70_Vel_73
Time_Shift_1
Note_On_50_Vel_57
Time_Shift_9
Note_On_57_Vel_0
Sustain_Off
Time_Shift_3
Note_On_63_Vel_0
Time_Shift_1
Note_On_53_Vel_0
Time_Shift_5
Note_On_77_Vel_0
Time_Shift_21
Note_On_72_Vel_0
Time_Shift_96
Note_On_65_Vel_57
Note_On_69_Vel_81
Time_Shift_14
Sustain_On
Time_Shift_84
Note_On_70_Vel_0
Time_Shift_3
Note_On_58_Vel_66
Time_Shift_3
Note_On_70_Vel_86
Time_Shift_57
Sustain_Off
Time_Shift_2
Note_On_69_Vel_0
Time_Shift_35
Note_On_50_Vel_0
Time_Shift_15
Note_On_65_Vel_0
Time_Shift_8
Note_On_80_Vel_76
Time_Shift_1
Note_On_39_Vel_50
Time_Shift_2
Note_On_51_Vel_65
Time_Shift_1
Note_On_70_Vel_0
Time_Shift_4
Note_On_39_Vel_0
Time_Shift_7
Note_On_58_Vel_0
Time_Shift_92
Sustain_On
Time_Shift_12
Note_On_78_Vel_69
Time_Shift_23
Note_On_67_Vel_59
Time_Shift_90
Note_On_79_Vel_69
Time_Shift_3
Note_On_58_Vel_62
Time_Shift_6
Note_On_70_Vel_63
Time_Shift_62
Note_On_72_Vel_70
Time_Shift_49
Note_On_73_Vel_75
Time_Shift_6
Note_On_52_Vel_66
Time_Shift_9
Note_On_67_Vel_0
Sustain_Off
Time_Shift_2
Note_On_79_Vel_0
Time_Shift_1
Note_On_78_Vel_0
Time_Shift_2
Note_On_51_Vel_0
Time_Shift_1
Note_On_58_Vel_0
Time_Shift_19
Note_On_72_Vel_0
Time_Shift_7
Note_On_70_Vel_0
Time_Shift_2
Note_On_72_Vel_69
Time_Shift_28
Note_On_73_Vel_0
Time_Shift_16
Note_On_80_Vel_0
Time_Shift_54
Sustain_On
Time_Shift_2
Note_On_58_Vel_57
Time_Shift_1
Note_On_71_Vel_78
Time_Shift_1
Note_On_55_Vel_60
Time_Shift_1
Note_On_67_Vel_65
Time_Shift_95
Note_On_72_Vel_0
Time_Shift_4
Note_On_60_Vel_65
Note_On_72_Vel_77
Time_Shift_72
Note_On_67_Vel_0
Time_Shift_1
Sustain_Off
Time_Shift_1
Note_On_71_Vel_0
Time_Shift_2
Note_On_52_Vel_0
Time_Shift_6
Note_On_72_Vel_0
Time_Shift_2
Note_On_60_Vel_0
Time_Shift_4
Note_On_58_Vel_0
Time_Shift_8
Note_On_55_Vel_0
Time_Shift_19
Note_On_82_Vel_78
Time_Shift_10
Note_On_53_Vel_59
Time_Shift_25
Sustain_On
Time_Shift_95
Note_On_79_Vel_75
Time_Shift_14
Note_On_68_Vel_62
Time_Shift_2
Note_On_67_Vel_48
Time_Shift_93
Note_On_80_Vel_80
Time_Shift_11
Note_On_60_Vel_63
Time_Shift_88
Note_On_79_Vel_0
Note_On_53_Vel_0
Note_On_68_Vel_0
Time_Shift_1
Note_On_80_Vel_0
Note_On_60_Vel_0
Time_Shift_7
Sustain_Off
Time_Shift_3
Note_On_67_Vel_0
Time_Shift_8
Note_On_82_Vel_0
Time_Shift_10
Note_On_74_Vel_81
Time_Shift_3
Note_On_67_Vel_64
Time_Shift_95
Sustain_On
Time_Shift_46
Note_On_67_Vel_0
Time_Shift_14
Note_On_75_Vel_72
Time_Shift_8
Note_On_73_Vel_66
Time_Shift_3
Note_On_58_Vel_49
Time_Shift_5
Note_On_58_Vel_0
Time_Shift_96
Note_On_67_Vel_61
Time_Shift_1
Note_On_77_Vel_80
Time_Shift_114
Note_On_79_Vel_77
Time_Shift_1
Note_On_63_Vel_72
Time_Shift_96
Note_On_73_Vel_0
Time_Shift_4
Note_On_80_Vel_79
Time_Shift_1
Note_On_73_Vel_71
Time_Shift_2
Note_On_58_Vel_54
Time_Shift_69
Note_On_67_Vel_0
Time_Shift_11
Note_On_67_Vel_65
Time_Shift_13
Note_On_81_Vel_67
Time_Shift_84
Note_On_58_Vel_0
Time_Shift_9
Note_On_58_Vel_71
Time_Shift_5
Note_On_82_Vel_82
Time_Shift_1
Note_On_70_Vel_65
Time_Shift_100
Note_On_58_Vel_0
Note_On_73_Vel_0
Time_Shift_4
Note_On_73_Vel_70
Time_Shift_1
Note_On_58_Vel_57
Time_Shift_6
Note_On_84_Vel_81
Time_Shift_81
Note_On_67_Vel_0
Time_Shift_6
Note_On_67_Vel_69
Time_Shift_2
Note_On_58_Vel_0
Time_Shift_5
Note_On_85_Vel_81
Time_Shift_6
Note_On_58_Vel_56
Time_Shift_58
Note_On_74_Vel_0
Time_Shift_46
Note_On_63_Vel_0
Time_Shift_4
Note_On_63_Vel_70
Time_Shift_1
Note_On_86_Vel_85
Time_Shift_34
Note_On_70_Vel_0
Time_Shift_3
Note_On_73_Vel_0
Time_Shift_1
Note_On_85_Vel_0
Note_On_79_Vel_0
Note_On_84_Vel_0
Note_On_77_Vel_0
Note_On_82_Vel_0
Note_On_58_Vel_0
Note_On_81_Vel_0
Time_Shift_3
Sustain_Off
Time_Shift_2
Note_On_67_Vel_0
Time_Shift_6
Note_On_80_Vel_0
Time_Shift_5
Note_On_55_Vel_41
Time_Shift_3
Note_On_75_Vel_0
Time_Shift_15
Sustain_On
Time_Shift_23
Note_On_55_Vel_0
Time_Shift_36
Note_On_89_Vel_86
Time_Shift_2
Note_On_73_Vel_74
Time_Shift_98
Note_On_67_Vel_67
Time_Shift_9
Note_On_87_Vel_90
Time_Shift_91
Sustain_Off
Time_Shift_10
Note_On_63_Vel_0
Time_Shift_7
Note_On_63_Vel_57
Time_Shift_1
Note_On_61_Vel_52
Time_Shift_7
Note_On_61_Vel_0
Note_On_87_Vel_0
Time_Shift_10
Note_On_87_Vel_91
Time_Shift_7
Note_On_56_Vel_57
Time_Shift_60
Sustain_On
Time_Shift_8
Note_On_86_Vel_0
Time_Shift_163
Note_On_72_Vel_73
Time_Shift_3
Note_On_96_Vel_96
Time_Shift_33
Note_On_73_Vel_0
Time_Shift_108
Note_On_67_Vel_0
Time_Shift_5
Note_On_68_Vel_64
Time_Shift_3
Note_On_67_Vel_55
Time_Shift_34
Note_On_85_Vel_83
Time_Shift_3
Note_On_84_Vel_73
Time_Shift_139
Note_On_89_Vel_0
Time_Shift_13
Note_On_94_Vel_94
Time_Shift_3
Note_On_63_Vel_0
Time_Shift_6
Note_On_63_Vel_67
Time_Shift_124
Note_On_84_Vel_0
Time_Shift_5
Note_On_84_Vel_69
Time_Shift_18
Note_On_72_Vel_0
Time_Shift_9
Note_On_72_Vel_59
Time_Shift_53
Note_On_67_Vel_0
Time_Shift_4
Note_On_67_Vel_55
Time_Shift_3
Note_On_68_Vel_0
Time_Shift_5
Note_On_68_Vel_60
Time_Shift_23
Note_On_92_Vel_95
Time_Shift_130
Note_On_82_Vel_82
Time_Shift_29
Note_On_48_Vel_60
Time_Shift_1
Note_On_72_Vel_0
Time_Shift_1
Note_On_68_Vel_0
Note_On_63_Vel_0
Time_Shift_1
Note_On_92_Vel_0
Note_On_85_Vel_0
Note_On_84_Vel_0
Time_Shift_1
Note_On_96_Vel_0
Time_Shift_3
Sustain_Off
Time_Shift_14
Note_On_56_Vel_0
Note_On_67_Vel_0
Note_On_87_Vel_0
Time_Shift_7
Sustain_On
Time_Shift_49
Note_On_91_Vel_90
Time_Shift_49
Note_On_64_Vel_63
Time_Shift_65
Note_On_80_Vel_78
Time_Shift_33
Note_On_60_Vel_65
Time_Shift_62
Note_On_89_Vel_90
Time_Shift_29
Note_On_58_Vel_58
Time_Shift_84
Note_On_79_Vel_65
Time_Shift_5
Note_On_76_Vel_52
Time_Shift_8
Note_On_76_Vel_0
Time_Shift_62
Note_On_60_Vel_0
Time_Shift_8
Note_On_88_Vel_93
Time_Shift_1
Note_On_60_Vel_66
Time_Shift_105
Note_On_84_Vel_68
Time_Shift_1
Note_On_94_Vel_0
Time_Shift_17
Note_On_53_Vel_45
Time_Shift_77
Note_On_58_Vel_0
Note_On_91_Vel_0
Time_Shift_1
Note_On_79_Vel_0
Note_On_60_Vel_0
Time_Shift_1
Note_On_48_Vel_0
Note_On_88_Vel_0
Sustain_Off
Time_Shift_11
Note_On_82_Vel_0
Time_Shift_8
Note_On_64_Vel_0
Time_Shift_7
Note_On_92_Vel_90
Time_Shift_9
Note_On_89_Vel_0
Time_Shift_15
Sustain_On
Time_Shift_21
Note_On_65_Vel_53
Time_Shift_63
Note_On_80_Vel_0
Time_Shift_45
Note_On_82_Vel_64
Time_Shift_30
Note_On_60_Vel_51
Time_Shift_83
Note_On_91_Vel_90
Time_Shift_47
Note_On_48_Vel_39
Time_Shift_9
Note_On_56_Vel_59
Time_Shift_1
Note_On_48_Vel_0
Time_Shift_65
Note_On_80_Vel_71
Time_Shift_23
Note_On_53_Vel_0
Time_Shift_74
Note_On_60_Vel_0
Time_Shift_6
Note_On_60_Vel_66
Time_Shift_4
Note_On_89_Vel_90
Time_Shift_109
Note_On_78_Vel_75
Time_Shift_16
Note_On_45_Vel_56
Time_Shift_44
Note_On_82_Vel_0
Time_Shift_4
Note_On_91_Vel_0
Time_Shift_3
Note_On_56_Vel_0
Time_Shift_2
Note_On_60_Vel_0
Time_Shift_11
Note_On_65_Vel_0
Note_On_84_Vel_0
Note_On_92_Vel_0
Time_Shift_3
Sustain_Off
Time_Shift_5
Note_On_89_Vel_0
Time_Shift_8
Note_On_80_Vel_0
Time_Shift_20
Note_On_87_Vel_91
Time_Shift_3
Note_On_78_Vel_0
Sustain_On
Time_Shift_56
Note_On_60_Vel_53
Time_Shift_44
Note_On_77_Vel_67
Time_Shift_7
Note_On_77_Vel_0
Time_Shift_1
Note_On_76_Vel_56
Time_Shift_24
Note_On_54_Vel_51
Time_Shift_83
Note_On_85_Vel_85
Time_Shift_31
Note_On_51_Vel_62
Time_Shift_107
Note_On_60_Vel_0
Time_Shift_5
Note_On_60_Vel_56
Time_Shift_5
Note_On_75_Vel_66
Time_Shift_90
Note_On_54_Vel_0
Time_Shift_9
Note_On_84_Vel_83
Time_Shift_2
Note_On_54_Vel_64
Time_Shift_133
Note_On_46_Vel_50
Time_Shift_29
Sustain_Off
Time_Shift_4
Note_On_87_Vel_0
Time_Shift_4
Note_On_87_Vel_92
Time_Shift_6
Note_On_51_Vel_0
Note_On_54_Vel_0
Note_On_84_Vel_0
Time_Shift_1
Note_On_60_Vel_0
Note_On_45_Vel_0
Time_Shift_1
Note_On_85_Vel_0
Time_Shift_11
Note_On_75_Vel_0
Note_On_76_Vel_0
Time_Shift_38
Sustain_On
Time_Shift_172
Note_On_85_Vel_84
Time_Shift_1
Note_On_73_Vel_62
Time_Shift_7
Note_On_61_Vel_62
Time_Shift_132
Note_On_72_Vel_60
Time_Shift_1
Note_On_89_Vel_93
Time_Shift_5
Note_On_53_Vel_47
Time_Shift_127
Note_On_85_Vel_0
Time_Shift_7
Note_On_85_Vel_87
Time_Shift_1
Note_On_48_Vel_54
Time_Shift_35
Note_On_61_Vel_0
Note_On_87_Vel_0
Time_Shift_1
Note_On_46_Vel_0
Time_Shift_2
Sustain_Off
Time_Shift_8
Sustain_On
Time_Shift_16
Note_On_53_Vel_0
Note_On_73_Vel_0
Note_On_89_Vel_0
Time_Shift_30
Note_On_72_Vel_0
Time_Shift_39
Note_On_84_Vel_78
Time_Shift_19
Note_On_75_Vel_55
Time_Shift_12
Note_On_63_Vel_57
Time_Shift_76
Note_On_48_Vel_0
Time_Shift_16
Note_On_87_Vel_89
Time_Shift_19
Note_On_57_Vel_60
Time_Shift_88
Note_On_84_Vel_0
Time_Shift_5
Note_On_84_Vel_75
Time_Shift_13
Note_On_49_Vel_61
Time_Shift_13
Note_On_57_Vel_0
Time_Shift_1
Note_On_87_Vel_0
Note_On_63_Vel_0
Time_Shift_1
Note_On_75_Vel_0
Time_Shift_6
Sustain_Off
Time_Shift_46
Sustain_On
Time_Shift_30
Note_On_85_Vel_0
Time_Shift_3
Note_On_82_Vel_82
Time_Shift_23
Note_On_56_Vel_35
Time_Shift_2
Note_On_65_Vel_51
Time_Shift_3
Note_On_56_Vel_0
Time_Shift_79
Note_On_85_Vel_82
Time_Shift_2
Note_On_58_Vel_59
Time_Shift_96
Note_On_82_Vel_0
Time_Shift_4
Note_On_82_Vel_78
Time_Shift_1
Note_On_56_Vel_62
Time_Shift_84
Note_On_58_Vel_0
Time_Shift_3
Note_On_80_Vel_72
Time_Shift_7
Note_On_65_Vel_0
Time_Shift_9
Note_On_65_Vel_46
Time_Shift_76
Note_On_56_Vel_0
Note_On_84_Vel_0
Time_Shift_4
Note_On_84_Vel_74
Time_Shift_1
Note_On_44_Vel_50
Time_Shift_1
Note_On_77_Vel_66
Time_Shift_3
Note_On_56_Vel_52
Time_Shift_6
Note_On_44_Vel_0
Time_Shift_4
Note_On_85_Vel_0
Time_Shift_5
Note_On_82_Vel_0
Time_Shift_6
Note_On_49_Vel_0
Time_Shift_4
Note_On_65_Vel_0
Time_Shift_7
Note_On_56_Vel_0
Time_Shift_9
Sustain_Off
Time_Shift_19
Note_On_77_Vel_0
Time_Shift_23
Note_On_80_Vel_0
Time_Shift_5
Note_On_80_Vel_71
Note_On_49_Vel_54
Time_Shift_18
Sustain_On
Time_Shift_85
Note_On_65_Vel_52
Time_Shift_87
Note_On_58_Vel_52
Time_Shift_1
Note_On_82_Vel_75
Time_Shift_78
Note_On_56_Vel_57
Time_Shift_88
Note_On_77_Vel_71
Time_Shift_7
Note_On_65_Vel_0
Time_Shift_8
Note_On_65_Vel_46
Time_Shift_76
Note_On_80_Vel_0
Time_Shift_6
Note_On_80_Vel_72
Time_Shift_2
Note_On_56_Vel_0
Time_Shift_4
Note_On_56_Vel_50
Time_Shift_57
Sustain_Off
Time_Shift_2
Note_On_82_Vel_0
Note_On_56_Vel_0
Time_Shift_2
Note_On_65_Vel_0
Time_Shift_4
Note_On_84_Vel_0
Time_Shift_8
Note_On_49_Vel_0
Note_On_58_Vel_0
Time_Shift_10
Note_On_49_Vel_52
Time_Shift_5
Sustain_On
Time_Shift_82
Note_On_75_Vel_57
Time_Shift_24
Note_On_56_Vel_40
Time_Shift_71
Note_On_56_Vel_0
Time_Shift_8
Note_On_56_Vel_46
Time_Shift_84
Note_On_56_Vel_0
Note_On_75_Vel_0
Time_Shift_4
Note_On_75_Vel_58
Time_Shift_2
Sustain_Off
Time_Shift_4
Note_On_56_Vel_54
Time_Shift_5
Note_On_77_Vel_0
Sustain_On
Time_Shift_81
Note_On_73_Vel_71
Time_Shift_24
Note_On_65_Vel_38
Time_Shift_77
Note_On_77_Vel_65
Time_Shift_6
Sustain_Off
Time_Shift_3
Note_On_73_Vel_0
Time_Shift_1
Note_On_44_Vel_40
Time_Shift_16
Note_On_75_Vel_0
Time_Shift_15
Note_On_56_Vel_0
Sustain_On
Time_Shift_65
Note_On_73_Vel_70
Time_Shift_12
Note_On_44_Vel_0
Time_Shift_4
Note_On_51_Vel_41
Time_Shift_65
Sustain_Off
Time_Shift_23
Sustain_On
Time_Shift_8
Note_On_51_Vel_0
Time_Shift_4
Note_On_72_Vel_67
Time_Shift_7
Note_On_51_Vel_47
Time_Shift_2
Note_On_63_Vel_49
Time_Shift_2
Note_On_65_Vel_0
Time_Shift_23
Note_On_80_Vel_0
Time_Shift_70
Note_On_56_Vel_51
Time_Shift_20
Sustain_Off
Time_Shift_2
Note_On_49_Vel_0
Time_Shift_12
Note_On_72_Vel_0
Note_On_51_Vel_0
Time_Shift_3
Note_On_63_Vel_0
Note_On_77_Vel_0
Time_Shift_8
Note_On_73_Vel_0
Time_Shift_8
Sustain_On
Time_Shift_52
Note_On_50_Vel_43
Time_Shift_4
Note_On_72_Vel_70
Time_Shift_41
Sustain_Off
Time_Shift_3
Note_On_56_Vel_0
Time_Shift_46
Sustain_On
Time_Shift_45
Note_On_71_Vel_67
Time_Shift_9
Note_On_52_Vel_40
Time_Shift_7
Note_On_52_Vel_0
Time_Shift_12
Sustain_Off
Time_Shift_11
Sustain_On
Time_Shift_93
Note_On_76_Vel_66
Time_Shift_7
Note_On_76_Vel_0
Time_Shift_4
Note_On_56_Vel_47
Time_Shift_49
Note_On_71_Vel_0
Note_On_50_Vel_0
Time_Shift_22
Note_On_56_Vel_0
Time_Shift_41
Note_On_73_Vel_68
Time_Shift_3
Note_On_51_Vel_46
Time_Shift_32
Sustain_Off
Time_Shift_56
Note_On_51_Vel_0
Note_On_72_Vel_0
Time_Shift_6
Note_On_72_Vel_70
Time_Shift_4
Note_On_63_Vel_46
Time_Shift_1
Note_On_51_Vel_42
Time_Shift_28
Sustain_On
Time_Shift_41
Sustain_Off
Time_Shift_5
Sustain_On
Time_Shift_18
Note_On_73_Vel_0
Note_On_56_Vel_49
Time_Shift_3
Note_On_75_Vel_56
Time_Shift_1
Note_On_68_Vel_44
Time_Shift_9
Note_On_68_Vel_0
Time_Shift_69
Note_On_72_Vel_0
Time_Shift_3
Note_On_50_Vel_44
Time_Shift_2
Note_On_72_Vel_62
Time_Shift_8
Sustain_Off
Time_Shift_10
Note_On_51_Vel_0
Time_Shift_23
Note_On_63_Vel_0
Time_Shift_8
Note_On_56_Vel_0
Time_Shift_15
Note_On_75_Vel_0
Time_Shift_22
Note_On_52_Vel_44
Time_Shift_5
Note_On_71_Vel_61
Time_Shift_57
Sustain_On
Time_Shift_16
Note_On_50_Vel_0
Time_Shift_12
Note_On_56_Vel_48
Time_Shift_1
Note_On_76_Vel_58
Time_Shift_17
Note_On_72_Vel_0
Time_Shift_17
Note_On_71_Vel_0
Time_Shift_30
Note_On_52_Vel_0
Time_Shift_26
Note_On_51_Vel_44
Time_Shift_4
Note_On_73_Vel_56
Time_Shift_62
Note_On_51_Vel_0
Time_Shift_9
Note_On_51_Vel_44
Time_Shift_2
Note_On_72_Vel_60
Time_Shift_1
Note_On_63_Vel_45
Time_Shift_57
Note_On_56_Vel_0
Time_Shift_4
Note_On_56_Vel_49
Time_Shift_8
Note_On_51_Vel_0
Time_Shift_26
Note_On_73_Vel_0
Time_Shift_31
Note_On_76_Vel_0
Time_Shift_1
Note_On_56_Vel_0
Time_Shift_19
Note_On_71_Vel_57
Time_Shift_8
Note_On_50_Vel_45
Time_Shift_41
Note_On_63_Vel_0
Sustain_Off
Time_Shift_23
Note_On_72_Vel_0
Time_Shift_15
Note_On_71_Vel_0
Time_Shift_1
Note_On_52_Vel_41
Time_Shift_7
Note_On_71_Vel_54
Time_Shift_70
Note_On_56_Vel_50
Time_Shift_5
Note_On_76_Vel_53
Time_Shift_17
Note_On_50_Vel_0
Time_Shift_31
Note_On_52_Vel_0
Time_Shift_15
Note_On_71_Vel_0
Time_Shift_6
Note_On_56_Vel_0
Time_Shift_2
Note_On_76_Vel_0
Time_Shift_8
Note_On_73_Vel_56
Time_Shift_1
Note_On_51_Vel_49
Time_Shift_61
Note_On_73_Vel_0
Time_Shift_3
Note_On_63_Vel_49
Time_Shift_5
Note_On_72_Vel_57
Time_Shift_66
Note_On_56_Vel_47
Time_Shift_4
Note_On_68_Vel_47
Time_Shift_26
Note_On_72_Vel_0
Time_Shift_3
Note_On_51_Vel_0
Time_Shift_9
Note_On_63_Vel_0
Time_Shift_1
Note_On_56_Vel_0
Time_Shift_5
Sustain_On
Time_Shift_8
Sustain_Off
Time_Shift_15
Note_On_68_Vel_0
Time_Shift_1
Note_On_50_Vel_54
Time_Shift_5
Note_On_72_Vel_54
Time_Shift_83
Note_On_52_Vel_42
Time_Shift_2
Note_On_71_Vel_58
Note_On_49_Vel_36
Time_Shift_9
Note_On_49_Vel_0
Time_Shift_44
Note_On_50_Vel_0
Time_Shift_2
Note_On_52_Vel_0
Time_Shift_9
Note_On_71_Vel_0
Time_Shift_10
Note_On_56_Vel_47
Time_Shift_1
Note_On_76_Vel_52
Time_Shift_11
Note_On_72_Vel_0
Time_Shift_81
Note_On_72_Vel_51
Note_On_51_Vel_48
Time_Shift_4
Note_On_56_Vel_0
Time_Shift_3
Note_On_76_Vel_0
Time_Shift_81
Note_On_72_Vel_0
Time_Shift_4
Note_On_72_Vel_54
Time_Shift_19
Note_On_51_Vel_0
Time_Shift_10
Note_On_51_Vel_41
Time_Shift_4
Note_On_63_Vel_41
Time_Shift_39
Sustain_On
Time_Shift_34
Note_On_75_Vel_54
Time_Shift_17
Note_On_56_Vel_45
Time_Shift_5
Note_On_51_Vel_0
Time_Shift_3
Note_On_72_Vel_0
Time_Shift_14
Note_On_63_Vel_0
Time_Shift_76
Note_On_50_Vel_43
Time_Shift_4
Note_On_72_Vel_51
Time_Shift_113
Note_On_71_Vel_47
Time_Shift_5
Note_On_51_Vel_27
Time_Shift_76
Note_On_76_Vel_51
Time_Shift_7
Note_On_56_Vel_0
Time_Shift_9
Note_On_56_Vel_40
Time_Shift_22
Note_On_50_Vel_0
Time_Shift_4
Note_On_71_Vel_0
Time_Shift_65
Note_On_51_Vel_0
Note_On_72_Vel_0
Time_Shift_6
Note_On_72_Vel_45
Time_Shift_1
Note_On_73_Vel_44
Time_Shift_2
Note_On_51_Vel_40
Time_Shift_6
Note_On_73_Vel_0
Time_Shift_84
Note_On_72_Vel_0
Time_Shift_4
Note_On_72_Vel_46
Time_Shift_19
Note_On_51_Vel_0
Time_Shift_7
Note_On_51_Vel_33
Time_Shift_3
Note_On_63_Vel_30
Time_Shift_52
Note_On_75_Vel_0
Time_Shift_8
Note_On_56_Vel_0
Time_Shift_2
Note_On_75_Vel_47
Time_Shift_9
Note_On_56_Vel_43
Time_Shift_6
Note_On_72_Vel_0
Time_Shift_1
Note_On_51_Vel_0
Time_Shift_5
Sustain_Off
Time_Shift_69
Note_On_63_Vel_0
Time_Shift_8
Note_On_50_Vel_40
Time_Shift_4
Note_On_72_Vel_47
Time_Shift_3
Sustain_On
Time_Shift_115
Note_On_52_Vel_28
Note_On_71_Vel_41
Time_Shift_85
Note_On_75_Vel_0
Time_Shift_7
Note_On_56_Vel_0
Time_Shift_3
Note_On_75_Vel_46
Time_Shift_1
Note_On_56_Vel_42
Time_Shift_125
Note_On_51_Vel_33
Time_Shift_133
Note_On_51_Vel_0
Note_On_72_Vel_0
Time_Shift_11
Note_On_72_Vel_37
Note_On_51_Vel_27
Time_Shift_119
Note_On_56_Vel_0
Note_On_75_Vel_0
Time_Shift_5
Note_On_50_Vel_0
Time_Shift_3
Note_On_56_Vel_34
Note_On_76_Vel_0
Time_Shift_2
Note_On_75_Vel_40
Time_Shift_6
Note_On_71_Vel_0
Time_Shift_7
Note_On_52_Vel_0
Time_Shift_128
Note_On_50_Vel_24
Time_Shift_2
Note_On_38_Vel_26
Time_Shift_1
Note_On_72_Vel_0
Time_Shift_5
Note_On_72_Vel_41
Time_Shift_2
Note_On_38_Vel_0
Time_Shift_54
Note_On_51_Vel_0
Note_On_56_Vel_0
Time_Shift_99
Note_On_71_Vel_39
Time_Shift_27
Note_On_64_Vel_23
Time_Shift_5
Note_On_64_Vel_0
Time_Shift_140
Note_On_76_Vel_42
Time_Shift_16
Note_On_56_Vel_26
Time_Shift_238
Sustain_Off
Time_Shift_38
Note_On_65_Vel_27
Time_Shift_13
Note_On_56_Vel_0
Time_Shift_3
Note_On_76_Vel_0
Time_Shift_2
Note_On_71_Vel_0
Time_Shift_2
Note_On_50_Vel_0
Time_Shift_1
Note_On_72_Vel_0
Note_On_56_Vel_17
Time_Shift_1
Note_On_44_Vel_21
Time_Shift_7
Note_On_75_Vel_0
Time_Shift_122
Sustain_On
Time_Shift_70
Note_On_44_Vel_0
Time_Shift_437
Note_On_65_Vel_0
Time_Shift_85
Note_On_56_Vel_0
Time_Shift_152
Sustain_Off
Time_Shift_13
Note_On_67_Vel_37
Time_Shift_30
Note_On_61_Vel_27
Time_Shift_8
Note_On_51_Vel_28
Time_Shift_4
Note_On_39_Vel_25
Time_Shift_62
Sustain_On
Time_Shift_460
Note_On_67_Vel_0
Time_Shift_15
Note_On_68_Vel_45
Time_Shift_4
Note_On_48_Vel_27
Time_Shift_4
Note_On_48_Vel_0
Time_Shift_2
Note_On_44_Vel_30
Time_Shift_10
Sustain_Off
Time_Shift_1
Note_On_60_Vel_22
Time_Shift_4
Note_On_51_Vel_0
Time_Shift_1
Note_On_61_Vel_0
Time_Shift_1
Note_On_39_Vel_0
Time_Shift_112
Sustain_On
Time_Shift_69
Note_On_60_Vel_0
Time_Shift_62
Note_On_44_Vel_0
Time_Shift_4
Note_On_60_Vel_32
Time_Shift_3
Sustain_Off
Time_Shift_3
Note_On_44_Vel_22
Time_Shift_82
Sustain_On
Time_Shift_80
Note_On_51_Vel_40
Time_Shift_158
Note_On_68_Vel_0
Time_Shift_4
Sustain_Off
Note_On_72_Vel_65
Time_Shift_6
Note_On_68_Vel_47
Time_Shift_2
Note_On_38_Vel_33
Note_On_50_Vel_37
Time_Shift_11
Note_On_38_Vel_0
Time_Shift_61
Sustain_On
Time_Shift_70
Note_On_73_Vel_68
Time_Shift_26
Note_On_61_Vel_38
Time_Shift_79
Note_On_70_Vel_68
Time_Shift_104
Note_On_60_Vel_0
Time_Shift_1
Sustain_Off
Time_Shift_1
Note_On_61_Vel_0
Time_Shift_5
Note_On_50_Vel_0
Time_Shift_6
Note_On_44_Vel_0
Time_Shift_8
Note_On_51_Vel_0
Time_Shift_15
Note_On_68_Vel_0
Note_On_72_Vel_0
Time_Shift_6
Note_On_68_Vel_48
Time_Shift_1
Note_On_56_Vel_44
Time_Shift_1
Note_On_32_Vel_32
Time_Shift_4
Note_On_44_Vel_32
Time_Shift_4
Note_On_32_Vel_0
Note_On_70_Vel_0
Time_Shift_7
Note_On_73_Vel_0
Time_Shift_39
Note_On_56_Vel_0
Time_Shift_75
Note_On_63_Vel_48
Time_Shift_1
Sustain_On
Time_Shift_17
Note_On_60_Vel_40
Time_Shift_76
Note_On_68_Vel_0
Time_Shift_6
Note_On_68_Vel_50
Time_Shift_14
Note_On_51_Vel_41
Time_Shift_89
Note_On_72_Vel_66
Time_Shift_18
Note_On_51_Vel_0
Time_Shift_3
Note_On_63_Vel_0
Note_On_68_Vel_0
Time_Shift_6
Note_On_68_Vel_48
Time_Shift_2
Note_On_38_Vel_39
Time_Shift_2
Sustain_Off
Time_Shift_3
Note_On_50_Vel_41
Time_Shift_2
Note_On_38_Vel_0
Time_Shift_108
Sustain_On
Time_Shift_31
Note_On_44_Vel_0
Time_Shift_20
Note_On_70_Vel_66
Time_Shift_5
Note_On_51_Vel_46
Time_Shift_113
Note_On_68_Vel_0
Time_Shift_5
Note_On_68_Vel_52
Time_Shift_2
Note_On_56_Vel_45
Time_Shift_2
Sustain_Off
Time_Shift_4
Note_On_63_Vel_39
Time_Shift_4
Note_On_44_Vel_38
Time_Shift_2
Note_On_51_Vel_0
Time_Shift_1
Note_On_50_Vel_0
Time_Shift_3
Note_On_60_Vel_0
Time_Shift_23
Note_On_70_Vel_0
Time_Shift_8
Note_On_72_Vel_0
Time_Shift_7
Note_On_63_Vel_0
Time_Shift_59
Note_On_63_Vel_53
Time_Shift_11
Sustain_On
Time_Shift_25
Note_On_60_Vel_42
Time_Shift_51
Note_On_68_Vel_0
Time_Shift_5
Note_On_68_Vel_56
Time_Shift_25
Note_On_39_Vel_39
Time_Shift_3
Note_On_51_Vel_47
Time_Shift_66
Note_On_72_Vel_68
Time_Shift_15
Sustain_Off
Time_Shift_8
Note_On_51_Vel_0
Time_Shift_7
Note_On_67_Vel_48
Time_Shift_6
Note_On_38_Vel_44
Note_On_50_Vel_50
Time_Shift_4
Note_On_67_Vel_0
Time_Shift_7
Note_On_39_Vel_0
Time_Shift_8
Note_On_56_Vel_0
Time_Shift_15
Sustain_On
Time_Shift_46
Note_On_44_Vel_0
Time_Shift_46
Note_On_68_Vel_0
Time_Shift_15
Note_On_70_Vel_63
Time_Shift_5
Note_On_51_Vel_50
Time_Shift_92
Sustain_Off
Time_Shift_9
Note_On_68_Vel_60
Time_Shift_10
Note_On_63_Vel_0
Time_Shift_1
Note_On_72_Vel_0
Time_Shift_4
Note_On_51_Vel_0
Time_Shift_1
Note_On_50_Vel_0
Time_Shift_2
Note_On_38_Vel_0
Time_Shift_5
Note_On_32_Vel_42
Time_Shift_2
Note_On_60_Vel_0
Time_Shift_1
Note_On_44_Vel_47
Time_Shift_7
Note_On_32_Vel_0
Time_Shift_15
Note_On_70_Vel_0
Time_Shift_39
Sustain_On
Time_Shift_16
Note_On_63_Vel_57
Time_Shift_7
Note_On_68_Vel_0
Time_Shift_25
Note_On_60_Vel_44
Time_Shift_47
Note_On_68_Vel_58
Time_Shift_70
Sustain_Off
Note_On_63_Vel_0
Time_Shift_6
Note_On_72_Vel_72
Time_Shift_44
Sustain_On
Time_Shift_2
Note_On_38_Vel_48
Time_Shift_49
Note_On_73_Vel_69
Time_Shift_76
Note_On_70_Vel_69
Time_Shift_33
Sustain_Off
Time_Shift_9
Note_On_68_Vel_0
Note_On_72_Vel_0
Time_Shift_6
Note_On_73_Vel_0
Time_Shift_9
Note_On_38_Vel_0
Note_On_60_Vel_0
Time_Shift_16
Note_On_44_Vel_0
Time_Shift_5
Note_On_44_Vel_47
Time_Shift_5
Note_On_32_Vel_45
Time_Shift_5
Note_On_32_Vel_0
Time_Shift_6
Note_On_68_Vel_55
Time_Shift_78
Sustain_On
Time_Shift_16
Note_On_70_Vel_0
Time_Shift_3
Note_On_80_Vel_70
Time_Shift_4
Note_On_80_Vel_0
Time_Shift_318
Note_On_67_Vel_56
Time_Shift_12
Sustain_Off
Time_Shift_1
Note_On_44_Vel_0
Time_Shift_10
Note_On_60_Vel_38
Time_Shift_2
Note_On_36_Vel_34
Time_Shift_3
Note_On_68_Vel_0
Time_Shift_108
Sustain_On
Time_Shift_168
Sustain_Off
Note_On_60_Vel_0
Time_Shift_2
Note_On_68_Vel_65
Time_Shift_9
Note_On_60_Vel_48
Time_Shift_5
Note_On_41_Vel_39
Time_Shift_5
Note_On_29_Vel_39
Time_Shift_10
Note_On_29_Vel_0
Note_On_67_Vel_0
Time_Shift_31
Note_On_36_Vel_0
Time_Shift_8
Sustain_On
Time_Shift_219
Note_On_70_Vel_63
Time_Shift_5
Sustain_Off
Time_Shift_8
Note_On_68_Vel_0
Note_On_41_Vel_0
Time_Shift_6
Note_On_60_Vel_0
Time_Shift_1
Note_On_27_Vel_42
Time_Shift_6
Note_On_27_Vel_0
Time_Shift_1
Note_On_67_Vel_41
Time_Shift_3
Note_On_60_Vel_35
Time_Shift_1
Note_On_39_Vel_38
Time_Shift_5
Note_On_61_Vel_33
Time_Shift_36
Note_On_60_Vel_0
Time_Shift_23
Sustain_On
Time_Shift_192
Note_On_72_Vel_59
Time_Shift_4
Sustain_Off
Time_Shift_9
Note_On_68_Vel_43
Time_Shift_3
Note_On_67_Vel_0
Time_Shift_1
Note_On_32_Vel_37
Time_Shift_2
Note_On_56_Vel_35
Time_Shift_1
Note_On_60_Vel_37
Time_Shift_4
Note_On_56_Vel_0
Note_On_39_Vel_0
Time_Shift_1
Note_On_61_Vel_0
Time_Shift_2
Note_On_70_Vel_0
Time_Shift_81
Sustain_On
Time_Shift_150
Sustain_Off
Time_Shift_25
Note_On_32_Vel_0
Time_Shift_6
Note_On_67_Vel_51
Time_Shift_11
Note_On_60_Vel_0
Time_Shift_2
Note_On_36_Vel_43
Time_Shift_2
Note_On_60_Vel_31
Time_Shift_42
Note_On_72_Vel_0
Time_Shift_15
Note_On_68_Vel_0
Sustain_On
Time_Shift_192
Note_On_67_Vel_0
Time_Shift_12
Sustain_Off
Time_Shift_11
Note_On_60_Vel_0
Time_Shift_4
Note_On_68_Vel_56
Note_On_65_Vel_44
Time_Shift_3
Note_On_36_Vel_0
Time_Shift_2
Note_On_41_Vel_38
Time_Shift_3
Note_On_60_Vel_38
Time_Shift_1
Note_On_29_Vel_36
Time_Shift_95
Sustain_On
Time_Shift_203
Sustain_Off
Time_Shift_8
Note_On_70_Vel_58
Time_Shift_13
Note_On_67_Vel_50
Time_Shift_9
Note_On_63_Vel_32
Time_Shift_4
Note_On_61_Vel_35
Time_Shift_1
Note_On_63_Vel_0
Time_Shift_3
Note_On_27_Vel_42
Time_Shift_5
Note_On_27_Vel_0
Note_On_29_Vel_0
Note_On_39_Vel_36
Time_Shift_8
Note_On_41_Vel_0
Time_Shift_2
Note_On_60_Vel_0
Time_Shift_13
Note_On_68_Vel_0
Time_Shift_7
Note_On_65_Vel_0
Time_Shift_54
Note_On_67_Vel_0
Time_Shift_39
Sustain_On
Time_Shift_211
Note_On_63_Vel_28
Note_On_68_Vel_45
Time_Shift_1
Note_On_32_Vel_34
Time_Shift_2
Note_On_60_Vel_35
Time_Shift_5
Note_On_70_Vel_0
Time_Shift_11
Note_On_61_Vel_0
Time_Shift_2
Sustain_Off
Time_Shift_83
Sustain_On
Time_Shift_384
Note_On_32_Vel_0
Note_On_63_Vel_0
Note_On_68_Vel_0
Time_Shift_2
Note_On_44_Vel_32
Time_Shift_1
Note_On_72_Vel_46
Time_Shift_1
Note_On_32_Vel_29
Time_Shift_1
Note_On_63_Vel_21
Time_Shift_2
Note_On_60_Vel_0
Time_Shift_2
Sustain_Off
Note_On_68_Vel_38
Time_Shift_3
Note_On_60_Vel_23
Time_Shift_18
Note_On_32_Vel_0
Time_Shift_8
Note_On_39_Vel_0
Time_Shift_100
Sustain_On
Time_Shift_65
Sustain_Off
Time_Shift_5
Note_On_73_Vel_45
Time_Shift_7
Note_On_73_Vel_0
Time_Shift_15
Sustain_On
Time_Shift_28
Note_On_61_Vel_27
Time_Shift_118
Note_On_70_Vel_43
Time_Shift_2
Note_On_51_Vel_36
Time_Shift_6
Note_On_70_Vel_0
Time_Shift_99
Note_On_44_Vel_0
Time_Shift_5
Note_On_44_Vel_35
Time_Shift_7
Note_On_32_Vel_33
Time_Shift_4
Note_On_72_Vel_0
Time_Shift_9
Note_On_72_Vel_37
Time_Shift_3
Sustain_Off
Time_Shift_11
Note_On_68_Vel_0
Time_Shift_9
Note_On_68_Vel_33
Time_Shift_6
Note_On_32_Vel_0
Time_Shift_62
Sustain_On
Time_Shift_69
Note_On_60_Vel_0
Note_On_63_Vel_0
Time_Shift_7
Note_On_63_Vel_39
Time_Shift_2
Note_On_60_Vel_34
Time_Shift_106
Note_On_68_Vel_0
Time_Shift_5
Note_On_68_Vel_40
Time_Shift_3
Note_On_51_Vel_0
Time_Shift_9
Note_On_51_Vel_32
Time_Shift_6
Note_On_60_Vel_0
Time_Shift_4
Note_On_60_Vel_18
Time_Shift_80
Note_On_61_Vel_0
Note_On_72_Vel_0
Time_Shift_6
Note_On_72_Vel_54
Time_Shift_10
Note_On_68_Vel_0
Time_Shift_2
Note_On_32_Vel_37
Time_Shift_3
Note_On_68_Vel_41
Time_Shift_16
Sustain_Off
Time_Shift_4
Note_On_60_Vel_0
Time_Shift_1
Note_On_51_Vel_0
Time_Shift_1
Note_On_44_Vel_0
Time_Shift_1
Note_On_63_Vel_0
Time_Shift_10
Note_On_32_Vel_0
Time_Shift_62
Sustain_On
Time_Shift_4
Note_On_73_Vel_54
Time_Shift_5
Note_On_61_Vel_34
Time_Shift_84
Note_On_70_Vel_53
Time_Shift_3
Note_On_51_Vel_38
Time_Shift_103
Note_On_68_Vel_0
Time_Shift_11
Note_On_68_Vel_49
Time_Shift_9
Sustain_Off
Note_On_73_Vel_0
Note_On_51_Vel_0
Time_Shift_1
Note_On_72_Vel_0
Time_Shift_1
Note_On_61_Vel_0
Time_Shift_6
Note_On_70_Vel_0
Time_Shift_89
Note_On_63_Vel_46
Time_Shift_6
Sustain_On
Time_Shift_21
Note_On_60_Vel_34
Time_Shift_56
Note_On_68_Vel_0
Time_Shift_4
Note_On_68_Vel_53
Time_Shift_31
Note_On_51_Vel_42
Time_Shift_59
Note_On_72_Vel_60
Time_Shift_21
Note_On_68_Vel_0
Time_Shift_4
Note_On_68_Vel_43
Time_Shift_13
Note_On_60_Vel_0
Time_Shift_2
Sustain_Off
Time_Shift_1
Note_On_51_Vel_0
Time_Shift_1
Note_On_63_Vel_0
Time_Shift_8
Note_On_50_Vel_41
Time_Shift_25
Note_On_68_Vel_0
Time_Shift_33
Note_On_73_Vel_57
Time_Shift_21
Sustain_On
Time_Shift_53
Note_On_70_Vel_53
Time_Shift_6
Note_On_51_Vel_45
Time_Shift_78
Sustain_Off
Time_Shift_5
Note_On_72_Vel_0
Time_Shift_1
Note_On_73_Vel_0
Time_Shift_9
Note_On_50_Vel_0
Time_Shift_1
Note_On_70_Vel_0
Time_Shift_5
Note_On_51_Vel_0
Time_Shift_7
Note_On_68_Vel_43
Time_Shift_6
Note_On_56_Vel_41
Time_Shift_59
Sustain_On
Time_Shift_37
Note_On_63_Vel_46
Time_Shift_44
Note_On_60_Vel_39
Time_Shift_42
Note_On_68_Vel_0
Time_Shift_11
Note_On_68_Vel_46
Time_Shift_26
Note_On_51_Vel_43
Time_Shift_67
Note_On_72_Vel_57
Time_Shift_27
Note_On_68_Vel_0
Time_Shift_5
Note_On_60_Vel_0
Time_Shift_1
Note_On_63_Vel_0
Time_Shift_3
Note_On_68_Vel_45
Time_Shift_1
Note_On_50_Vel_44
Time_Shift_4
Sustain_Off
Time_Shift_1
Note_On_56_Vel_0
Time_Shift_84
Note_On_68_Vel_0
Time_Shift_19
Note_On_73_Vel_50
Time_Shift_27
Sustain_On
Time_Shift_59
Note_On_70_Vel_57
Time_Shift_87
Sustain_Off
Time_Shift_39
Note_On_50_Vel_0
Note_On_51_Vel_0
Time_Shift_6
Note_On_32_Vel_36
Time_Shift_2
Note_On_44_Vel_39
Time_Shift_3
Note_On_72_Vel_0
Time_Shift_1
Note_On_73_Vel_0
Time_Shift_3
Note_On_32_Vel_0
Note_On_70_Vel_0
Time_Shift_3
Note_On_68_Vel_46
Time_Shift_105
Sustain_On
Time_Shift_3
Note_On_39_Vel_29
Time_Shift_9
Note_On_75_Vel_39
Time_Shift_153
Note_On_84_Vel_44
Time_Shift_10
Note_On_60_Vel_39
Time_Shift_547
Note_On_60_Vel_0
Time_Shift_4
Note_On_67_Vel_38
Time_Shift_6
Note_On_60_Vel_35
Note_On_64_Vel_41
Time_Shift_5
Note_On_64_Vel_0
Time_Shift_1
Note_On_48_Vel_32
Note_On_63_Vel_32
Time_Shift_1
Note_On_36_Vel_27
Time_Shift_6
Note_On_36_Vel_0
Time_Shift_14
Sustain_Off
Time_Shift_1
Note_On_68_Vel_0
Note_On_75_Vel_0
Time_Shift_1
Note_On_44_Vel_0
Time_Shift_7
Note_On_84_Vel_0
Time_Shift_23
Note_On_39_Vel_0
Time_Shift_69
Sustain_On
Time_Shift_31
Note_On_63_Vel_0
Time_Shift_15
Note_On_67_Vel_0
Time_Shift_177
Note_On_60_Vel_0
Time_Shift_4
Note_On_68_Vel_51
Time_Shift_1
Note_On_65_Vel_37
Time_Shift_5
Note_On_41_Vel_31
Time_Shift_1
Note_On_60_Vel_36
Time_Shift_2
Note_On_48_Vel_0
Time_Shift_4
Sustain_Off
Time_Shift_67
Sustain_On
Time_Shift_216
Sustain_Off
Time_Shift_2
Note_On_70_Vel_55
Time_Shift_9
Note_On_41_Vel_0
Note_On_68_Vel_0
Time_Shift_1
Note_On_67_Vel_42
Time_Shift_20
Note_On_61_Vel_28
Time_Shift_2
Note_On_39_Vel_33
Time_Shift_3
Note_On_61_Vel_0
Time_Shift_8
Note_On_65_Vel_0
Time_Shift_39
Note_On_60_Vel_0
Time_Shift_15
Sustain_On
Time_Shift_177
Note_On_67_Vel_0
Time_Shift_27
Sustain_Off
Time_Shift_6
Note_On_70_Vel_0
Time_Shift_7
Note_On_72_Vel_45
Time_Shift_8
Note_On_68_Vel_44
Time_Shift_17
Note_On_60_Vel_27
Time_Shift_4
Sustain_On
Time_Shift_5
Note_On_36_Vel_23
Time_Shift_263
Note_On_39_Vel_0
Time_Shift_6
Sustain_Off
Time_Shift_6
Note_On_72_Vel_0
Time_Shift_1
Note_On_67_Vel_46
Time_Shift_1
Note_On_68_Vel_0
Time_Shift_2
Note_On_36_Vel_0
Note_On_60_Vel_0
Time_Shift_3
Note_On_48_Vel_35
Time_Shift_1
Note_On_64_Vel_41
Time_Shift_3
Note_On_64_Vel_0
Time_Shift_2
Note_On_60_Vel_32
Time_Shift_2
Note_On_36_Vel_35
Time_Shift_12
Sustain_On
Time_Shift_274
Sustain_Off
Note_On_68_Vel_48
Time_Shift_2
Note_On_48_Vel_0
Time_Shift_5
Note_On_65_Vel_33
Time_Shift_3
Note_On_60_Vel_0
Time_Shift_6
Note_On_60_Vel_38
Time_Shift_2
Note_On_65_Vel_0
Note_On_67_Vel_0
Time_Shift_2
Note_On_41_Vel_30
Time_Shift_3
Note_On_40_Vel_29
Time_Shift_2
Note_On_41_Vel_0
Time_Shift_23
Note_On_36_Vel_0
Time_Shift_39
Sustain_On
Time_Shift_211
Sustain_Off
Time_Shift_3
Note_On_70_Vel_51
Time_Shift_12
Note_On_67_Vel_41
Time_Shift_1
Note_On_39_Vel_33
Time_Shift_6
Note_On_60_Vel_0
Time_Shift_2
Note_On_61_Vel_28
Time_Shift_34
Note_On_40_Vel_0
Time_Shift_15
Note_On_68_Vel_0
Time_Shift_46
Sustain_On
Time_Shift_123
Sustain_Off
Time_Shift_84
Sustain_On
Time_Shift_18
Note_On_68_Vel_32
Time_Shift_1
Note_On_32_Vel_28
Time_Shift_1
Note_On_60_Vel_33
Time_Shift_7
Sustain_Off
Time_Shift_12
Note_On_61_Vel_0
Time_Shift_7
Note_On_70_Vel_0
Time_Shift_85
Note_On_67_Vel_0
Time_Shift_77
Sustain_On
Time_Shift_438
Note_On_39_Vel_0
Time_Shift_15
Note_On_68_Vel_0
Time_Shift_46
Note_On_60_Vel_0
Sustain_Off
Time_Shift_15
Note_On_32_Vel_0
Time_Shift_604
Note_On_67_Vel_32
Time_Shift_5
Note_On_64_Vel_31
Time_Shift_8
Note_On_36_Vel_22
Time_Shift_7
Note_On_60_Vel_25
Time_Shift_44
Sustain_On
Time_Shift_216
Sustain_Off
Time_Shift_38
Note_On_67_Vel_0
Time_Shift_9
Note_On_65_Vel_27
Time_Shift_2
Note_On_67_Vel_37
Note_On_68_Vel_42
Time_Shift_4
Note_On_60_Vel_0
Note_On_65_Vel_0
Time_Shift_4
Note_On_41_Vel_25
Time_Shift_4
Note_On_60_Vel_25
Time_Shift_3
Note_On_40_Vel_21
Time_Shift_5
Note_On_36_Vel_0
Time_Shift_15
Note_On_64_Vel_0
Time_Shift_77
Sustain_On
Time_Shift_239
Sustain_Off
Time_Shift_2
Note_On_70_Vel_42
Time_Shift_5
Note_On_40_Vel_0
Time_Shift_7
Note_On_67_Vel_0
Time_Shift_7
Note_On_67_Vel_33
Time_Shift_16
Note_On_41_Vel_0
Time_Shift_2
Note_On_61_Vel_23
Note_On_39_Vel_22
Time_Shift_6
Note_On_68_Vel_0
Time_Shift_23
Note_On_60_Vel_0
Time_Shift_123
Sustain_On
Time_Shift_220
Note_On_72_Vel_37
Time_Shift_5
Sustain_Off
Time_Shift_6
Note_On_68_Vel_29
Time_Shift_7
Note_On_70_Vel_0
Note_On_32_Vel_19
Time_Shift_3
Note_On_61_Vel_0
Note_On_67_Vel_0
Time_Shift_6
Note_On_44_Vel_20
Time_Shift_1
Note_On_60_Vel_20
Time_Shift_236
Sustain_On
Time_Shift_153
Note_On_72_Vel_0
Time_Shift_238
Note_On_39_Vel_0
Time_Shift_16
Sustain_Off
Time_Shift_123
Note_On_32_Vel_0
Time_Shift_46
Note_On_44_Vel_0
Time_Shift_7
Note_On_60_Vel_0
Time_Shift_23
Note_On_68_Vel_0
Time_Shift_354
Sustain_On
Time_Shift_448
Sustain_Off
Time_Shift_5
Note_On_68_Vel_41
Time_Shift_21
Note_On_60_Vel_18
Time_Shift_2
Note_On_41_Vel_19
Time_Shift_3
Note_On_65_Vel_20
Time_Shift_20
Sustain_On
Time_Shift_415
Note_On_70_Vel_44
Time_Shift_2
Sustain_Off
Time_Shift_3
Note_On_68_Vel_0
Time_Shift_4
Note_On_60_Vel_0
Time_Shift_11
Note_On_27_Vel_31
Time_Shift_4
Note_On_67_Vel_29
Time_Shift_2
Note_On_39_Vel_26
Time_Shift_4
Note_On_27_Vel_0
Time_Shift_77
Note_On_41_Vel_0
Time_Shift_8
Note_On_65_Vel_0
Time_Shift_54
Sustain_On
Time_Shift_411
Note_On_44_Vel_24
Time_Shift_5
Note_On_32_Vel_21
Time_Shift_4
Note_On_72_Vel_35
Time_Shift_3
Sustain_Off
Time_Shift_3
Note_On_60_Vel_22
Time_Shift_10
Note_On_68_Vel_29
Time_Shift_3
Note_On_63_Vel_11
Time_Shift_24
Note_On_70_Vel_0
Time_Shift_1
Note_On_67_Vel_0
Time_Shift_227
Note_On_60_Vel_0
Time_Shift_7
Note_On_72_Vel_0
Sustain_On
Time_Shift_1149
Note_On_72_Vel_30
Time_Shift_19
Note_On_68_Vel_0
Time_Shift_4
Note_On_68_Vel_25
Time_Shift_4
Note_On_63_Vel_0
Time_Shift_7
Note_On_60_Vel_14
Time_Shift_2
Note_On_63_Vel_12
Time_Shift_21
Note_On_44_Vel_0
Time_Shift_937
Note_On_72_Vel_0
Time_Shift_6
Note_On_72_Vel_32
Time_Shift_17
Note_On_32_Vel_0
Time_Shift_8
Note_On_39_Vel_0
Note_On_60_Vel_0
Note_On_63_Vel_0
Note_On_68_Vel_0
Time_Shift_4
Note_On_32_Vel_25
Note_On_68_Vel_26
Time_Shift_1
Note_On_60_Vel_21
Note_On_44_Vel_26
Time_Shift_1
Note_On_63_Vel_19
Time_Shift_4
Note_On_39_Vel_20
Time_Shift_720
Note_On_39_Vel_0
Time_Shift_898
Note_On_60_Vel_0
Time_Shift_7
Note_On_60_Vel_21
Time_Shift_1
Note_On_68_Vel_0
Time_Shift_10
Note_On_68_Vel_26
Time_Shift_13
Note_On_32_Vel_0
Note_On_56_Vel_23
Time_Shift_5
Note_On_32_Vel_22
Time_Shift_2906
Note_On_32_Vel_0
Note_On_44_Vel_0
Note_On_56_Vel_0
Note_On_60_Vel_0
Note_On_63_Vel_0
Note_On_68_Vel_0
Note_On_72_Vel_0
Time_Shift_514
Sustain_Off
