Ticks_Per_Beat_384
Tempo_500000
Time_Shift_1473
Note_On_69_Vel_46
Time_Shift_9
Sustain_On
Time_Shift_130
Sustain_Off
Time_Shift_492
Sustain_On
Time_Shift_671
Sustain_Off
Time_Shift_66
Sustain_On
Time_Shift_277
Note_On_69_Vel_0
Time_Shift_75
Sustain_Off
Time_Shift_4
Note_On_72_Vel_54
Time_Shift_408
Note_On_67_Vel_24
Time_Shift_2
Note_On_68_Vel_28
Time_Shift_171
Note_On_72_Vel_0
Time_Shift_8
Note_On_68_Vel_0
Time_Shift_106
Note_On_69_Vel_51
Time_Shift_70
Sustain_On
Time_Shift_85
Sustain_Off
Time_Shift_108
Note_On_71_Vel_69
Time_Shift_84
Note_On_67_Vel_0
Time_Shift_169
Note_On_69_Vel_0
Time_Shift_11
Note_On_69_Vel_66
Time_Shift_212
Note_On_71_Vel_0
Time_Shift_74
Note_On_64_Vel_54
Time_Shift_87
Note_On_69_Vel_0
Time_Shift_138
Note_On_64_Vel_0
Time_Shift_190
Note_On_65_Vel_46
Time_Shift_355
Sustain_On
Time_Shift_1317
Note_On_67_Vel_41
Time_Shift_5
Sustain_Off
Time_Shift_230
Sustain_On
Time_Shift_845
Note_On_65_Vel_0
Time_Shift_490
Note_On_40_Vel_35
Time_Shift_3
Note_On_52_Vel_43
Time_Shift_3
Note_On_55_Vel_40
Time_Shift_80
Note_On_67_Vel_0
Time_Shift_5
Sustain_Off
Time_Shift_233
Sustain_On
Time_Shift_120
Note_On_59_Vel_39
Time_Shift_49
Note_On_59_Vel_0
Time_Shift_236
Note_On_64_Vel_47
Time_Shift_132
Note_On_64_Vel_0
Time_Shift_125
Note_On_68_Vel_55
Time_Shift_75
Note_On_55_Vel_0
Time_Shift_177
Note_On_68_Vel_0
Time_Shift_54
Note_On_63_Vel_38
Time_Shift_38
Sustain_Off
Time_Shift_76
Note_On_63_Vel_0
Time_Shift_24
Sustain_On
Time_Shift_92
Note_On_52_Vel_0
Time_Shift_39
Note_On_59_Vel_33
Time_Shift_53
Note_On_59_Vel_0
Time_Shift_217
Sustain_Off
Time_Shift_1
Note_On_55_Vel_34
Time_Shift_271
Note_On_59_Vel_37
Time_Shift_102
Note_On_59_Vel_0
Time_Shift_16
Note_On_55_Vel_0
Time_Shift_189
Note_On_63_Vel_33
Time_Shift_3
Note_On_64_Vel_37
Time_Shift_7
Note_On_63_Vel_0
Note_On_64_Vel_0
Time_Shift_8
Sustain_On
Time_Shift_161
Note_On_40_Vel_0
Time_Shift_60
Sustain_Off
Time_Shift_5
Note_On_52_Vel_27
Time_Shift_81
Sustain_On
Time_Shift_85
Sustain_Off
Time_Shift_61
Note_On_52_Vel_0
Time_Shift_68
Note_On_64_Vel_49
Time_Shift_262
Note_On_64_Vel_0
Time_Shift_20
Note_On_59_Vel_42
Time_Shift_134
Sustain_On
Time_Shift_107
Note_On_59_Vel_0
Time_Shift_149
Sustain_Off
Time_Shift_65
Note_On_52_Vel_35
Time_Shift_1
Note_On_55_Vel_34
Time_Shift_8
Note_On_55_Vel_0
Time_Shift_123
Note_On_52_Vel_0
Time_Shift_69
Sustain_On
Time_Shift_151
Note_On_59_Vel_39
Time_Shift_172
Sustain_Off
Time_Shift_30
Note_On_59_Vel_0
Time_Shift_33
Note_On_64_Vel_53
Time_Shift_167
Sustain_On
Time_Shift_23
Sustain_Off
Time_Shift_54
Note_On_67_Vel_45
Time_Shift_2
Note_On_52_Vel_32
Time_Shift_6
Note_On_52_Vel_0
Time_Shift_46
Sustain_On
Time_Shift_146
Note_On_64_Vel_0
Time_Shift_52
Note_On_52_Vel_35
Time_Shift_8
Note_On_64_Vel_51
Time_Shift_39
Sustain_Off
Time_Shift_85
Sustain_On
Time_Shift_149
Note_On_59_Vel_48
Time_Shift_309
Sustain_Off
Time_Shift_30
Note_On_23_Vel_51
Time_Shift_1
Note_On_35_Vel_45
Time_Shift_2
Note_On_52_Vel_0
Time_Shift_8
Note_On_23_Vel_0
Time_Shift_38
Note_On_35_Vel_0
Time_Shift_24
Note_On_59_Vel_0
Time_Shift_30
Note_On_64_Vel_0
Time_Shift_77
Sustain_On
Time_Shift_111
Note_On_59_Vel_51
Time_Shift_27
Sustain_Off
Time_Shift_81
Note_On_69_Vel_61
Time_Shift_4
Sustain_On
Time_Shift_23
Note_On_59_Vel_0
Time_Shift_117
Note_On_35_Vel_36
Time_Shift_3
Note_On_63_Vel_47
Time_Shift_3
Note_On_35_Vel_0
Time_Shift_15
Note_On_67_Vel_0
Time_Shift_177
Sustain_Off
Time_Shift_27
Note_On_33_Vel_52
Time_Shift_6
Note_On_65_Vel_57
Time_Shift_5
Note_On_33_Vel_0
Time_Shift_115
Note_On_63_Vel_0
Time_Shift_23
Sustain_On
Time_Shift_107
Note_On_62_Vel_47
Note_On_63_Vel_54
Time_Shift_9
Note_On_62_Vel_0
Time_Shift_107
Sustain_Off
Time_Shift_15
Note_On_65_Vel_0
Time_Shift_12
Note_On_65_Vel_56
Time_Shift_58
Sustain_On
Time_Shift_88
Note_On_47_Vel_41
Time_Shift_5
Note_On_59_Vel_50
Time_Shift_6
Note_On_47_Vel_0
Time_Shift_292
Note_On_59_Vel_0
Time_Shift_8
Note_On_63_Vel_0
Time_Shift_49
Note_On_56_Vel_44
Time_Shift_20
Sustain_Off
Time_Shift_23
Note_On_69_Vel_0
Time_Shift_27
Note_On_47_Vel_38
Time_Shift_203
Note_On_65_Vel_0
Time_Shift_10
Note_On_59_Vel_40
Time_Shift_21
Sustain_On
Time_Shift_232
Note_On_63_Vel_41
Time_Shift_262
Note_On_65_Vel_45
Time_Shift_1
Note_On_53_Vel_31
Time_Shift_196
Note_On_63_Vel_0
Time_Shift_23
Note_On_59_Vel_0
Time_Shift_62
Note_On_63_Vel_43
Time_Shift_8
Sustain_Off
Time_Shift_84
Sustain_On
Time_Shift_181
Note_On_59_Vel_34
Time_Shift_234
Note_On_65_Vel_0
Time_Shift_67
Note_On_55_Vel_39
Time_Shift_13
Note_On_52_Vel_35
Time_Shift_10
Note_On_51_Vel_32
Time_Shift_4
Sustain_Off
Time_Shift_21
Note_On_63_Vel_0
Time_Shift_4
Note_On_47_Vel_0
Time_Shift_19
Note_On_53_Vel_0
Time_Shift_23
Note_On_52_Vel_0
Note_On_56_Vel_0
Note_On_59_Vel_0
Time_Shift_108
Note_On_55_Vel_0
Time_Shift_30
Sustain_On
Time_Shift_72
Note_On_59_Vel_40
Time_Shift_66
Note_On_59_Vel_0
Time_Shift_184
Note_On_63_Vel_46
Time_Shift_259
Note_On_68_Vel_60
Time_Shift_49
Note_On_63_Vel_0
Time_Shift_223
Sustain_Off
Time_Shift_16
Note_On_64_Vel_52
Time_Shift_130
Sustain_On
Time_Shift_123
Note_On_68_Vel_0
Time_Shift_23
Note_On_64_Vel_0
Time_Shift_10
Note_On_59_Vel_44
Time_Shift_97
Note_On_59_Vel_0
Time_Shift_290
Sustain_Off
Time_Shift_45
Note_On_56_Vel_42
Time_Shift_13
Note_On_52_Vel_39
Time_Shift_36
Sustain_On
Time_Shift_205
Note_On_59_Vel_47
Time_Shift_118
Note_On_59_Vel_0
Time_Shift_69
Note_On_52_Vel_0
Time_Shift_3
Sustain_Off
Time_Shift_51
Note_On_56_Vel_0
Time_Shift_7
Sustain_On
Time_Shift_21
Note_On_64_Vel_43
Time_Shift_1
Note_On_63_Vel_39
Time_Shift_9
Note_On_63_Vel_0
Note_On_64_Vel_0
Time_Shift_230
Sustain_Off
Time_Shift_4
Note_On_63_Vel_55
Time_Shift_3
Note_On_68_Vel_65
Time_Shift_78
Sustain_On
Time_Shift_215
Note_On_63_Vel_0
Time_Shift_7
Note_On_63_Vel_51
Time_Shift_2
Note_On_64_Vel_53
Time_Shift_6
Note_On_64_Vel_0
Time_Shift_237
Note_On_47_Vel_35
Time_Shift_3
Note_On_59_Vel_48
Time_Shift_6
Note_On_59_Vel_0
Time_Shift_100
Note_On_65_Vel_51
Time_Shift_77
Note_On_47_Vel_0
Time_Shift_61
Note_On_51_Vel_0
Time_Shift_38
Note_On_63_Vel_0
Time_Shift_40
Sustain_Off
Time_Shift_26
Note_On_36_Vel_54
Time_Shift_11
Note_On_36_Vel_0
Time_Shift_16
Note_On_55_Vel_44
Time_Shift_7
Note_On_55_Vel_0
Time_Shift_100
Note_On_68_Vel_0
Time_Shift_69
Sustain_On
Time_Shift_81
Note_On_60_Vel_47
Time_Shift_273
Note_On_65_Vel_0
Time_Shift_21
Note_On_64_Vel_57
Time_Shift_140
Note_On_60_Vel_0
Time_Shift_36
Note_On_67_Vel_66
Time_Shift_25
Note_On_64_Vel_0
Time_Shift_31
Note_On_67_Vel_0
Time_Shift_27
Note_On_67_Vel_72
Time_Shift_80
Sustain_Off
Time_Shift_29
Note_On_72_Vel_67
Time_Shift_297
Note_On_64_Vel_48
Time_Shift_20
Sustain_On
Time_Shift_299
Note_On_60_Vel_44
Time_Shift_3
Note_On_61_Vel_42
Time_Shift_274
Note_On_60_Vel_0
Time_Shift_123
Note_On_72_Vel_0
Time_Shift_54
Sustain_Off
Time_Shift_19
Note_On_60_Vel_50
Time_Shift_111
Sustain_On
Time_Shift_31
Note_On_60_Vel_0
Time_Shift_169
Note_On_61_Vel_0
Time_Shift_43
Note_On_56_Vel_48
Time_Shift_298
Note_On_65_Vel_49
Time_Shift_5
Note_On_65_Vel_0
Time_Shift_526
Note_On_66_Vel_66
Time_Shift_253
Sustain_Off
Time_Shift_19
Sustain_On
Time_Shift_284
Note_On_67_Vel_0
Time_Shift_27
Note_On_29_Vel_45
Time_Shift_4
Note_On_29_Vel_0
Time_Shift_10
Note_On_41_Vel_42
Time_Shift_6
Note_On_41_Vel_0
Time_Shift_3
Sustain_Off
Time_Shift_2
Note_On_53_Vel_40
Time_Shift_10
Note_On_53_Vel_0
Time_Shift_61
Note_On_56_Vel_0
Time_Shift_62
Note_On_64_Vel_0
Time_Shift_84
Note_On_66_Vel_0
Time_Shift_23
Note_On_60_Vel_51
Time_Shift_23
Sustain_On
Time_Shift_230
Note_On_65_Vel_46
Time_Shift_8
Note_On_65_Vel_0
Time_Shift_235
Sustain_Off
Time_Shift_42
Sustain_On
Time_Shift_84
Sustain_Off
Time_Shift_169
Note_On_60_Vel_0
Time_Shift_9
Note_On_65_Vel_44
Time_Shift_53
Sustain_On
Time_Shift_224
Note_On_60_Vel_43
Time_Shift_2
Note_On_53_Vel_29
Time_Shift_3
Note_On_61_Vel_41
Time_Shift_9
Note_On_53_Vel_0
Note_On_61_Vel_0
Time_Shift_349
Sustain_Off
Time_Shift_60
Note_On_29_Vel_39
Time_Shift_6
Note_On_29_Vel_0
Time_Shift_3
Note_On_57_Vel_42
Time_Shift_127
Note_On_60_Vel_0
Time_Shift_146
Note_On_65_Vel_0
Time_Shift_26
Note_On_60_Vel_49
Time_Shift_247
Note_On_66_Vel_53
Time_Shift_134
Sustain_On
Time_Shift_307
Sustain_Off
Time_Shift_86
Note_On_65_Vel_53
Time_Shift_114
Sustain_On
Time_Shift_123
Sustain_Off
Time_Shift_123
Note_On_66_Vel_0
Time_Shift_206
Note_On_47_Vel_48
Time_Shift_5
Note_On_53_Vel_41
Note_On_59_Vel_52
Time_Shift_11
Note_On_60_Vel_0
Time_Shift_62
Note_On_59_Vel_0
Time_Shift_146
Note_On_57_Vel_0
Time_Shift_106
Note_On_60_Vel_50
Time_Shift_9
Note_On_60_Vel_0
Time_Shift_77
Sustain_On
Time_Shift_216
Note_On_55_Vel_53
Time_Shift_7
Note_On_55_Vel_0
Time_Shift_234
Sustain_Off
Time_Shift_47
Note_On_33_Vel_61
Time_Shift_10
Note_On_33_Vel_0
Time_Shift_54
Sustain_On
Time_Shift_233
Note_On_64_Vel_55
Time_Shift_266
Note_On_60_Vel_52
Time_Shift_269
Note_On_60_Vel_0
Time_Shift_31
Note_On_64_Vel_0
Time_Shift_13
Sustain_Off
Time_Shift_321
Note_On_60_Vel_54
Time_Shift_27
Sustain_On
Time_Shift_238
Sustain_Off
Time_Shift_9
Note_On_64_Vel_55
Time_Shift_45
Note_On_65_Vel_0
Time_Shift_30
Sustain_On
Time_Shift_211
Note_On_67_Vel_64
Time_Shift_2
Note_On_68_Vel_66
Time_Shift_2
Note_On_67_Vel_0
Time_Shift_269
Note_On_64_Vel_0
Time_Shift_9
Note_On_64_Vel_51
Note_On_65_Vel_53
Time_Shift_7
Note_On_65_Vel_0
Time_Shift_111
Note_On_70_Vel_75
Time_Shift_4
Note_On_70_Vel_0
Time_Shift_130
Note_On_60_Vel_0
Time_Shift_6
Note_On_60_Vel_57
Time_Shift_6
Note_On_46_Vel_48
Time_Shift_4
Sustain_Off
Time_Shift_7
Note_On_46_Vel_0
Time_Shift_77
Sustain_On
Time_Shift_46
Note_On_64_Vel_0
Time_Shift_5
Note_On_64_Vel_62
Time_Shift_106
Note_On_53_Vel_0
Time_Shift_9
Sustain_Off
Time_Shift_49
Note_On_29_Vel_54
Time_Shift_8
Note_On_29_Vel_0
Time_Shift_54
Note_On_47_Vel_0
Time_Shift_23
Sustain_On
Time_Shift_649
Sustain_Off
Time_Shift_57
Note_On_68_Vel_0
Time_Shift_8
Note_On_60_Vel_0
Time_Shift_20
Note_On_66_Vel_69
Time_Shift_110
Sustain_On
Time_Shift_62
Note_On_64_Vel_0
Time_Shift_130
Sustain_Off
Time_Shift_146
Sustain_On
Time_Shift_497
Sustain_Off
Time_Shift_92
Note_On_35_Vel_44
Time_Shift_7
Note_On_47_Vel_41
Time_Shift_3
Note_On_35_Vel_0
Time_Shift_8
Note_On_47_Vel_0
Time_Shift_77
Sustain_On
Time_Shift_182
Note_On_59_Vel_49
Time_Shift_258
Note_On_63_Vel_53
Time_Shift_366
Sustain_Off
Time_Shift_85
Sustain_On
Time_Shift_138
Note_On_63_Vel_0
Time_Shift_10
Note_On_63_Vel_49
Time_Shift_290
Note_On_59_Vel_0
Time_Shift_11
Note_On_59_Vel_39
Time_Shift_4
Note_On_47_Vel_35
Time_Shift_8
Note_On_47_Vel_0
Time_Shift_318
Sustain_Off
Time_Shift_8
Note_On_35_Vel_42
Time_Shift_1
Note_On_47_Vel_49
Time_Shift_11
Note_On_35_Vel_0
Sustain_On
Time_Shift_284
Note_On_59_Vel_0
Time_Shift_6
Note_On_59_Vel_53
Time_Shift_235
Note_On_35_Vel_46
Time_Shift_4
Note_On_35_Vel_0
Time_Shift_1
Note_On_51_Vel_47
Time_Shift_7
Note_On_63_Vel_0
Time_Shift_9
Note_On_63_Vel_52
Time_Shift_490
Note_On_47_Vel_0
Time_Shift_8
Note_On_63_Vel_0
Time_Shift_3
Note_On_47_Vel_45
Time_Shift_1
Note_On_35_Vel_41
Time_Shift_2
Note_On_63_Vel_60
Time_Shift_9
Note_On_35_Vel_0
Time_Shift_261
Note_On_27_Vel_54
Time_Shift_8
Note_On_27_Vel_0
Time_Shift_208
Note_On_66_Vel_0
Time_Shift_47
Sustain_Off
Time_Shift_60
Note_On_51_Vel_0
Sustain_On
Time_Shift_1
Note_On_39_Vel_49
Time_Shift_1
Note_On_55_Vel_45
Time_Shift_1
Note_On_35_Vel_46
Time_Shift_2
Note_On_51_Vel_54
Time_Shift_33
Note_On_59_Vel_0
Time_Shift_252
Note_On_59_Vel_48
Time_Shift_541
Sustain_Off
Time_Shift_19
Note_On_68_Vel_66
Time_Shift_10
Note_On_68_Vel_0
Sustain_On
Time_Shift_254
Note_On_63_Vel_0
Time_Shift_5
Note_On_63_Vel_54
Time_Shift_263
Note_On_59_Vel_0
Time_Shift_12
Note_On_59_Vel_48
Time_Shift_237
Sustain_Off
Time_Shift_31
Note_On_48_Vel_43
Note_On_36_Vel_44
Time_Shift_5
Note_On_36_Vel_0
Time_Shift_76
Sustain_On
Time_Shift_182
Note_On_60_Vel_53
Time_Shift_815
Note_On_64_Vel_67
Time_Shift_9
Note_On_64_Vel_0
Time_Shift_661
Note_On_60_Vel_0
Time_Shift_3
Sustain_Off
Time_Shift_5
Note_On_51_Vel_0
Time_Shift_2
Note_On_39_Vel_0
Time_Shift_2
Note_On_51_Vel_65
Time_Shift_3
Note_On_57_Vel_64
Note_On_48_Vel_0
Time_Shift_8
Note_On_35_Vel_0
Time_Shift_31
Note_On_63_Vel_0
Time_Shift_53
Note_On_59_Vel_0
Time_Shift_8
Sustain_On
Time_Shift_153
Note_On_60_Vel_70
Time_Shift_8
Note_On_47_Vel_0
Time_Shift_47
Note_On_51_Vel_0
Note_On_55_Vel_0
Note_On_57_Vel_0
Time_Shift_209
Note_On_63_Vel_59
Time_Shift_275
Sustain_Off
Time_Shift_61
Sustain_On
Time_Shift_130
Note_On_63_Vel_0
Time_Shift_9
Note_On_63_Vel_62
Time_Shift_183
Note_On_60_Vel_0
Time_Shift_82
Note_On_60_Vel_58
Time_Shift_262
Sustain_Off
Time_Shift_17
Sustain_On
Time_Shift_793
Sustain_Off
Time_Shift_44
Sustain_On
Time_Shift_131
Note_On_60_Vel_0
Time_Shift_100
Note_On_63_Vel_0
Time_Shift_9
Note_On_63_Vel_71
Time_Shift_545
Sustain_Off
Time_Shift_25
Note_On_51_Vel_66
Time_Shift_1
Note_On_57_Vel_63
Time_Shift_19
Note_On_63_Vel_0
Time_Shift_54
Sustain_On
Time_Shift_193
Note_On_60_Vel_72
Time_Shift_246
Note_On_63_Vel_65
Time_Shift_236
Note_On_60_Vel_0
Time_Shift_35
Note_On_65_Vel_66
Time_Shift_27
Sustain_Off
Time_Shift_100
Sustain_On
Time_Shift_54
Note_On_63_Vel_0
Time_Shift_80
Note_On_63_Vel_67
Time_Shift_250
Note_On_60_Vel_70
Time_Shift_222
Note_On_51_Vel_0
Time_Shift_47
Note_On_65_Vel_0
Time_Shift_15
Note_On_48_Vel_69
Time_Shift_1
Note_On_36_Vel_67
Time_Shift_45
Note_On_48_Vel_0
Note_On_63_Vel_0
Time_Shift_23
Note_On_36_Vel_0
Time_Shift_2
Sustain_Off
Time_Shift_52
Note_On_60_Vel_0
Time_Shift_192
Note_On_67_Vel_75
Time_Shift_2
Note_On_63_Vel_62
Time_Shift_105
Note_On_63_Vel_0
Sustain_On
Time_Shift_157
Note_On_55_Vel_64
Time_Shift_5
Note_On_55_Vel_0
Time_Shift_279
Sustain_Off
Time_Shift_7
Note_On_35_Vel_71
Time_Shift_2
Note_On_51_Vel_73
Time_Shift_3
Note_On_35_Vel_0
Time_Shift_54
Note_On_57_Vel_0
Time_Shift_77
Sustain_On
Time_Shift_207
Note_On_67_Vel_0
Time_Shift_27
Note_On_63_Vel_61
Time_Shift_104
Note_On_51_Vel_0
Time_Shift_207
Note_On_63_Vel_0
Time_Shift_30
Note_On_59_Vel_54
Time_Shift_109
Note_On_59_Vel_0
Time_Shift_552
Note_On_28_Vel_54
Time_Shift_1
Sustain_Off
Time_Shift_7
Note_On_28_Vel_0
Time_Shift_8
Note_On_56_Vel_46
Time_Shift_10
Note_On_52_Vel_47
Time_Shift_5
Note_On_52_Vel_0
Time_Shift_338
Sustain_On
Time_Shift_119
Note_On_59_Vel_49
Time_Shift_127
Note_On_59_Vel_0
Time_Shift_118
Sustain_Off
Time_Shift_51
Sustain_On
Time_Shift_10
Note_On_52_Vel_53
Time_Shift_97
Note_On_56_Vel_0
Time_Shift_85
Note_On_52_Vel_0
Time_Shift_105
Note_On_68_Vel_50
Time_Shift_267
Note_On_63_Vel_58
Note_On_64_Vel_58
Time_Shift_4
Note_On_63_Vel_0
Note_On_64_Vel_0
Time_Shift_241
Note_On_59_Vel_54
Time_Shift_212
Note_On_59_Vel_0
Time_Shift_8
Note_On_68_Vel_0
Time_Shift_34
Sustain_Off
Time_Shift_293
Note_On_59_Vel_51
Time_Shift_95
Sustain_On
Time_Shift_93
Note_On_59_Vel_0
Time_Shift_97
Note_On_35_Vel_48
Time_Shift_5
Note_On_63_Vel_59
Time_Shift_5
Note_On_35_Vel_0
Note_On_63_Vel_0
Time_Shift_280
Sustain_Off
Time_Shift_16
Note_On_68_Vel_58
Time_Shift_57
Sustain_On
Time_Shift_360
Note_On_74_Vel_71
Time_Shift_60
Note_On_63_Vel_60
Time_Shift_49
Note_On_68_Vel_0
Time_Shift_7
Sustain_Off
Time_Shift_18
Note_On_75_Vel_82
Time_Shift_6
Note_On_75_Vel_0
Time_Shift_69
Note_On_63_Vel_0
Time_Shift_107
Note_On_74_Vel_0
Time_Shift_92
Sustain_On
Time_Shift_306
Note_On_28_Vel_74
Time_Shift_9
Note_On_28_Vel_0
Time_Shift_257
Note_On_68_Vel_79
Time_Shift_178
Sustain_Off
Time_Shift_64
Note_On_29_Vel_72
Time_Shift_8
Note_On_29_Vel_0
Time_Shift_23
Sustain_On
Time_Shift_277
Sustain_Off
Time_Shift_84
Sustain_On
Time_Shift_330
Note_On_68_Vel_0
Time_Shift_48
Sustain_Off
Time_Shift_71
Note_On_40_Vel_73
Time_Shift_27
Sustain_On
Time_Shift_562
Note_On_68_Vel_82
Time_Shift_191
Note_On_68_Vel_0
Time_Shift_15
Note_On_40_Vel_0
Time_Shift_2
Sustain_Off
Time_Shift_90
Sustain_On
Time_Shift_302
Note_On_29_Vel_72
Time_Shift_6
Note_On_29_Vel_0
Time_Shift_694
Sustain_Off
Time_Shift_70
Note_On_36_Vel_68
Time_Shift_11
Note_On_36_Vel_0
Time_Shift_31
Sustain_On
Time_Shift_1107
Sustain_Off
Time_Shift_91
Sustain_On
Time_Shift_513
Note_On_29_Vel_63
Time_Shift_9
Note_On_29_Vel_0
Time_Shift_249
Sustain_Off
Time_Shift_112
Sustain_On
Time_Shift_1783
Sustain_Off
Time_Shift_99
Sustain_On
Time_Shift_396
Note_On_59_Vel_53
Time_Shift_285
Note_On_63_Vel_66
Time_Shift_10
Note_On_63_Vel_0
Time_Shift_598
Note_On_63_Vel_61
Time_Shift_40
Note_On_59_Vel_0
Time_Shift_264
Note_On_35_Vel_51
Time_Shift_4
Note_On_35_Vel_0
Time_Shift_327
Note_On_34_Vel_59
Time_Shift_4
Note_On_63_Vel_0
Time_Shift_305
Note_On_59_Vel_57
Time_Shift_71
Note_On_59_Vel_0
Time_Shift_61
Note_On_65_Vel_53
Time_Shift_31
Note_On_34_Vel_0
Time_Shift_123
Note_On_65_Vel_0
Time_Shift_9
Note_On_65_Vel_60
Note_On_35_Vel_49
Time_Shift_6
Note_On_35_Vel_0
Time_Shift_131
Note_On_65_Vel_0
Time_Shift_6
Note_On_65_Vel_56
Time_Shift_170
Sustain_Off
Time_Shift_85
Sustain_On
Time_Shift_242
Note_On_58_Vel_47
Time_Shift_1
Note_On_63_Vel_55
Time_Shift_1
Note_On_34_Vel_38
Time_Shift_359
Note_On_35_Vel_43
Time_Shift_173
Note_On_65_Vel_0
Time_Shift_10
Note_On_65_Vel_55
Time_Shift_210
Note_On_28_Vel_51
Time_Shift_10
Note_On_28_Vel_0
Time_Shift_34
Sustain_Off
Time_Shift_81
Sustain_On
Time_Shift_196
Note_On_56_Vel_44
Time_Shift_142
Note_On_58_Vel_0
Time_Shift_133
Note_On_47_Vel_39
Time_Shift_5
Note_On_47_Vel_0
Time_Shift_576
Note_On_56_Vel_0
Time_Shift_6
Note_On_47_Vel_40
Time_Shift_5
Note_On_56_Vel_42
Time_Shift_5
Note_On_47_Vel_0
Time_Shift_54
Note_On_34_Vel_0
Note_On_35_Vel_0
Time_Shift_279
Note_On_55_Vel_43
Time_Shift_1
Note_On_52_Vel_39
Time_Shift_11
Note_On_52_Vel_0
Time_Shift_169
Note_On_63_Vel_0
Time_Shift_10
Note_On_63_Vel_51
Time_Shift_87
Note_On_66_Vel_47
Time_Shift_11
Note_On_66_Vel_0
Time_Shift_53
Note_On_72_Vel_63
Time_Shift_8
Note_On_72_Vel_0
Time_Shift_64
Sustain_Off
Time_Shift_5
Note_On_48_Vel_48
Time_Shift_2
Note_On_45_Vel_59
Time_Shift_3
Note_On_72_Vel_55
Time_Shift_3
Note_On_45_Vel_0
Time_Shift_184
Sustain_On
Time_Shift_108
Note_On_48_Vel_0
Time_Shift_7
Note_On_48_Vel_55
Time_Shift_262
Note_On_54_Vel_55
Time_Shift_7
Note_On_54_Vel_0
Time_Shift_268
Note_On_57_Vel_47
Time_Shift_9
Note_On_57_Vel_0
Time_Shift_491
Note_On_48_Vel_0
Time_Shift_9
Note_On_48_Vel_52
Time_Shift_130
Note_On_63_Vel_0
Time_Shift_5
Note_On_63_Vel_54
Time_Shift_56
Note_On_54_Vel_39
Time_Shift_23
Note_On_55_Vel_0
Time_Shift_85
Note_On_72_Vel_0
Time_Shift_11
Note_On_72_Vel_58
Time_Shift_17
Sustain_Off
Time_Shift_10
Note_On_48_Vel_0
Note_On_56_Vel_0
Time_Shift_3
Note_On_78_Vel_46
Time_Shift_4
Note_On_48_Vel_43
Time_Shift_1
Note_On_78_Vel_0
Time_Shift_1
Note_On_45_Vel_53
Time_Shift_1
Note_On_57_Vel_46
Time_Shift_5
Note_On_57_Vel_0
Time_Shift_39
Note_On_48_Vel_0
Time_Shift_7
Note_On_54_Vel_0
Time_Shift_192
Sustain_On
Time_Shift_23
Note_On_45_Vel_0
Time_Shift_6
Note_On_48_Vel_54
Time_Shift_5
Note_On_45_Vel_46
Time_Shift_256
Note_On_53_Vel_47
Time_Shift_217
Note_On_65_Vel_0
Time_Shift_63
Note_On_57_Vel_43
Time_Shift_252
Note_On_53_Vel_0
Time_Shift_6
Note_On_53_Vel_43
Time_Shift_286
Note_On_48_Vel_0
Time_Shift_10
Note_On_48_Vel_50
Time_Shift_75
Note_On_63_Vel_0
Time_Shift_100
Note_On_66_Vel_53
Time_Shift_103
Note_On_71_Vel_59
Time_Shift_4
Note_On_71_Vel_0
Time_Shift_60
Note_On_53_Vel_0
Time_Shift_6
Sustain_Off
Time_Shift_18
Note_On_45_Vel_0
Time_Shift_25
Note_On_76_Vel_61
Time_Shift_2
Note_On_47_Vel_45
Time_Shift_12
Note_On_47_Vel_0
Time_Shift_138
Note_On_57_Vel_0
Time_Shift_54
Sustain_On
Time_Shift_7
Note_On_72_Vel_0
Time_Shift_576
Note_On_66_Vel_0
Time_Shift_174
Note_On_74_Vel_52
Note_On_75_Vel_55
Time_Shift_31
Note_On_35_Vel_31
Time_Shift_4
Note_On_63_Vel_37
Time_Shift_6
Note_On_35_Vel_0
Time_Shift_319
Note_On_65_Vel_47
Time_Shift_27
Note_On_76_Vel_0
Time_Shift_15
Sustain_Off
Time_Shift_85
Sustain_On
Time_Shift_223
Note_On_74_Vel_0
Time_Shift_33
Sustain_Off
Time_Shift_25
Note_On_74_Vel_53
Time_Shift_5
Note_On_69_Vel_54
Time_Shift_159
Sustain_On
Time_Shift_622
Note_On_63_Vel_0
Time_Shift_31
Note_On_75_Vel_0
Time_Shift_5
Sustain_Off
Time_Shift_6
Note_On_55_Vel_35
Time_Shift_7
Note_On_52_Vel_36
Time_Shift_5
Note_On_52_Vel_0
Note_On_74_Vel_0
Time_Shift_261
Note_On_65_Vel_0
Time_Shift_14
Note_On_59_Vel_43
Time_Shift_2
Note_On_56_Vel_36
Note_On_69_Vel_0
Time_Shift_7
Note_On_59_Vel_0
Time_Shift_85
Note_On_55_Vel_0
Time_Shift_46
Sustain_On
Time_Shift_69
Note_On_48_Vel_0
Time_Shift_85
Note_On_63_Vel_42
Time_Shift_2
Note_On_64_Vel_46
Time_Shift_5
Note_On_64_Vel_0
Time_Shift_3
Note_On_52_Vel_30
Time_Shift_5
Note_On_52_Vel_0
Time_Shift_10
Note_On_55_Vel_23
Time_Shift_28
Note_On_56_Vel_0
Time_Shift_23
Note_On_63_Vel_0
Time_Shift_187
Note_On_68_Vel_58
Time_Shift_269
Note_On_64_Vel_49
Time_Shift_5
Note_On_52_Vel_33
Time_Shift_259
Note_On_59_Vel_45
Time_Shift_2
Note_On_52_Vel_0
Time_Shift_31
Note_On_55_Vel_0
Time_Shift_23
Note_On_59_Vel_0
Time_Shift_46
Note_On_68_Vel_0
Time_Shift_131
Note_On_64_Vel_0
Time_Shift_46
Note_On_52_Vel_34
Time_Shift_1
Note_On_56_Vel_40
Time_Shift_99
Note_On_56_Vel_0
Time_Shift_189
Note_On_59_Vel_36
Time_Shift_10
Note_On_59_Vel_0
Time_Shift_92
Note_On_52_Vel_0
Time_Shift_161
Note_On_68_Vel_32
Time_Shift_4
Note_On_63_Vel_32
Time_Shift_4
Note_On_63_Vel_0
Note_On_68_Vel_0
Time_Shift_238
Note_On_68_Vel_48
Time_Shift_3
Note_On_52_Vel_27
Time_Shift_274
Sustain_Off
Time_Shift_27
Note_On_64_Vel_48
Time_Shift_57
Sustain_On
Time_Shift_237
Note_On_59_Vel_39
Time_Shift_432
Note_On_52_Vel_0
Time_Shift_46
Note_On_59_Vel_0
Time_Shift_13
Sustain_Off
Time_Shift_10
Note_On_64_Vel_0
Time_Shift_10
Note_On_56_Vel_44
Time_Shift_17
Note_On_52_Vel_39
Time_Shift_96
Sustain_On
Time_Shift_130
Note_On_68_Vel_0
Time_Shift_128
Note_On_59_Vel_48
Time_Shift_149
Note_On_59_Vel_0
Time_Shift_30
Note_On_52_Vel_0
Time_Shift_36
Note_On_64_Vel_58
Time_Shift_245
Note_On_52_Vel_34
Time_Shift_19
Note_On_64_Vel_0
Time_Shift_246
Note_On_64_Vel_47
Time_Shift_146
Note_On_56_Vel_0
Time_Shift_91
Note_On_59_Vel_46
Time_Shift_239
Note_On_59_Vel_0
Time_Shift_11
Sustain_Off
Time_Shift_12
Note_On_52_Vel_0
Time_Shift_61
Note_On_64_Vel_0
Time_Shift_8
Note_On_35_Vel_44
Time_Shift_8
Note_On_35_Vel_0
Note_On_47_Vel_39
Time_Shift_7
Note_On_47_Vel_0
Sustain_On
Time_Shift_234
Note_On_59_Vel_54
Time_Shift_267
Note_On_63_Vel_54
Time_Shift_232
Note_On_65_Vel_57
Note_On_53_Vel_50
Time_Shift_5
Note_On_53_Vel_0
Time_Shift_61
Note_On_59_Vel_0
Time_Shift_161
Note_On_63_Vel_0
Time_Shift_10
Note_On_63_Vel_43
Time_Shift_136
Note_On_65_Vel_0
Time_Shift_11
Note_On_65_Vel_49
Time_Shift_108
Note_On_47_Vel_42
Time_Shift_2
Note_On_59_Vel_51
Time_Shift_340
Note_On_47_Vel_0
Time_Shift_32
Sustain_Off
Time_Shift_3
Note_On_53_Vel_38
Time_Shift_3
Note_On_59_Vel_0
Time_Shift_6
Note_On_47_Vel_36
Time_Shift_2
Note_On_53_Vel_0
Time_Shift_31
Note_On_63_Vel_0
Time_Shift_176
Sustain_On
Time_Shift_8
Note_On_47_Vel_0
Time_Shift_9
Note_On_59_Vel_43
Note_On_47_Vel_33
Time_Shift_6
Note_On_65_Vel_0
Time_Shift_226
Note_On_63_Vel_48
Time_Shift_2
Note_On_53_Vel_33
Time_Shift_3
Note_On_59_Vel_0
Time_Shift_8
Note_On_53_Vel_0
Time_Shift_235
Note_On_65_Vel_50
Time_Shift_2
Note_On_53_Vel_34
Time_Shift_8
Note_On_53_Vel_0
Time_Shift_254
Note_On_47_Vel_0
Note_On_63_Vel_0
Time_Shift_5
Note_On_63_Vel_51
Note_On_47_Vel_34
Time_Shift_2
Note_On_53_Vel_33
Time_Shift_8
Note_On_53_Vel_0
Time_Shift_231
Note_On_47_Vel_0
Time_Shift_11
Note_On_47_Vel_35
Time_Shift_2
Note_On_59_Vel_46
Time_Shift_40
Note_On_65_Vel_0
Time_Shift_265
Sustain_Off
Time_Shift_2
Note_On_55_Vel_38
Time_Shift_4
Note_On_52_Vel_35
Time_Shift_6
Note_On_47_Vel_0
Time_Shift_7
Note_On_59_Vel_0
Time_Shift_31
Note_On_55_Vel_0
Time_Shift_208
Note_On_63_Vel_0
Time_Shift_7
Sustain_On
Time_Shift_21
Note_On_59_Vel_33
Time_Shift_94
Note_On_59_Vel_0
Time_Shift_161
Note_On_63_Vel_41
Time_Shift_2
Note_On_64_Vel_45
Time_Shift_6
Note_On_64_Vel_0
Time_Shift_8
Note_On_52_Vel_0
Time_Shift_154
Note_On_63_Vel_0
Time_Shift_384
Sustain_Off
Note_On_64_Vel_51
Time_Shift_69
Note_On_64_Vel_0
Time_Shift_46
Sustain_On
Time_Shift_136
Note_On_47_Vel_31
Time_Shift_1
Note_On_59_Vel_43
Time_Shift_109
Note_On_59_Vel_0
Time_Shift_238
Note_On_47_Vel_0
Time_Shift_35
Sustain_Off
Time_Shift_38
Note_On_52_Vel_43
Time_Shift_4
Note_On_56_Vel_45
Time_Shift_92
Sustain_On
Time_Shift_180
Sustain_Off
Time_Shift_8
Note_On_47_Vel_34
Time_Shift_88
Sustain_On
Time_Shift_138
Note_On_52_Vel_0
Time_Shift_34
Note_On_64_Vel_49
Time_Shift_59
Note_On_64_Vel_0
Time_Shift_15
Note_On_56_Vel_0
Time_Shift_167
Note_On_63_Vel_47
Time_Shift_8
Note_On_68_Vel_47
Time_Shift_2
Note_On_63_Vel_0
Time_Shift_273
Note_On_64_Vel_56
Time_Shift_237
Note_On_59_Vel_50
Time_Shift_4
Note_On_59_Vel_0
Time_Shift_238
Note_On_64_Vel_0
Time_Shift_11
Sustain_Off
Time_Shift_35
Note_On_47_Vel_0
Time_Shift_54
Note_On_36_Vel_51
Time_Shift_8
Note_On_36_Vel_0
Time_Shift_130
Sustain_On
Time_Shift_46
Note_On_68_Vel_0
Time_Shift_109
Note_On_60_Vel_52
Time_Shift_7
Note_On_60_Vel_0
Time_Shift_315
Note_On_64_Vel_49
Time_Shift_190
Note_On_67_Vel_65
Time_Shift_109
Note_On_64_Vel_0
Time_Shift_8
Note_On_67_Vel_0
Time_Shift_19
Sustain_Off
Time_Shift_188
Sustain_On
Time_Shift_92
Sustain_Off
Time_Shift_39
Note_On_64_Vel_51
Time_Shift_46
Sustain_On
Time_Shift_252
Note_On_60_Vel_50
Time_Shift_1
Sustain_Off
Note_On_52_Vel_48
Time_Shift_100
Sustain_On
Time_Shift_197
Sustain_Off
Time_Shift_106
Note_On_29_Vel_47
Time_Shift_4
Note_On_29_Vel_0
Time_Shift_8
Note_On_60_Vel_0
Note_On_72_Vel_55
Time_Shift_38
Sustain_On
Time_Shift_326
Note_On_61_Vel_52
Time_Shift_1
Note_On_56_Vel_46
Time_Shift_307
Note_On_65_Vel_47
Time_Shift_4
Note_On_65_Vel_0
Time_Shift_99
Note_On_70_Vel_72
Time_Shift_211
Note_On_69_Vel_43
Time_Shift_4
Note_On_69_Vel_0
Time_Shift_24
Note_On_70_Vel_0
Time_Shift_4
Note_On_70_Vel_65
Time_Shift_214
Note_On_65_Vel_53
Time_Shift_576
Note_On_57_Vel_44
Time_Shift_4
Note_On_57_Vel_0
Time_Shift_21
Sustain_Off
Time_Shift_110
Note_On_65_Vel_0
Note_On_72_Vel_0
Time_Shift_115
Note_On_61_Vel_0
Time_Shift_15
Note_On_56_Vel_0
Time_Shift_5
Note_On_29_Vel_40
Time_Shift_7
Note_On_60_Vel_46
Time_Shift_4
Note_On_29_Vel_0
Time_Shift_69
Sustain_On
Time_Shift_92
Note_On_64_Vel_0
Time_Shift_23
Sustain_Off
Time_Shift_23
Note_On_60_Vel_0
Time_Shift_62
Sustain_On
Time_Shift_6
Note_On_65_Vel_40
Time_Shift_40
Note_On_70_Vel_0
Time_Shift_46
Note_On_65_Vel_0
Time_Shift_100
Note_On_52_Vel_0
Time_Shift_95
Note_On_69_Vel_51
Time_Shift_89
Sustain_Off
Time_Shift_84
Sustain_On
Time_Shift_98
Note_On_65_Vel_40
Time_Shift_307
Note_On_60_Vel_39
Time_Shift_5
Note_On_61_Vel_38
Time_Shift_5
Note_On_60_Vel_0
Note_On_61_Vel_0
Time_Shift_427
Sustain_Off
Time_Shift_14
Note_On_57_Vel_43
Time_Shift_120
Sustain_On
Time_Shift_212
Note_On_60_Vel_50
Time_Shift_72
Note_On_60_Vel_0
Time_Shift_184
Note_On_65_Vel_0
Time_Shift_6
Note_On_65_Vel_49
Time_Shift_539
Note_On_65_Vel_0
Time_Shift_1
Note_On_66_Vel_49
Time_Shift_4
Note_On_65_Vel_41
Time_Shift_3
Note_On_66_Vel_0
Time_Shift_274
Sustain_Off
Time_Shift_8
Note_On_60_Vel_47
Time_Shift_6
Note_On_61_Vel_46
Time_Shift_4
Note_On_60_Vel_0
Time_Shift_8
Note_On_61_Vel_0
Sustain_On
Time_Shift_264
Sustain_Off
Time_Shift_2
Note_On_47_Vel_45
Time_Shift_6
Note_On_59_Vel_48
Time_Shift_127
Sustain_On
Time_Shift_177
Note_On_69_Vel_0
Time_Shift_11
Note_On_60_Vel_50
Time_Shift_12
Note_On_60_Vel_0
Time_Shift_84
Note_On_57_Vel_0
Time_Shift_35
Note_On_70_Vel_64
Time_Shift_188
Note_On_65_Vel_0
Time_Shift_11
Note_On_65_Vel_62
Time_Shift_1
Note_On_68_Vel_71
Time_Shift_88
Note_On_70_Vel_0
Time_Shift_15
Note_On_59_Vel_0
Time_Shift_178
Sustain_Off
Time_Shift_76
Sustain_On
Time_Shift_227
Note_On_64_Vel_58
Time_Shift_110
Note_On_68_Vel_0
Time_Shift_9
Note_On_70_Vel_78
Time_Shift_7
Note_On_70_Vel_0
Time_Shift_144
Sustain_Off
Time_Shift_1
Note_On_61_Vel_71
Time_Shift_70
Sustain_On
Time_Shift_57
Note_On_68_Vel_76
Time_Shift_231
Sustain_Off
Time_Shift_4
Note_On_64_Vel_0
Time_Shift_13
Note_On_29_Vel_58
Time_Shift_10
Note_On_29_Vel_0
Note_On_61_Vel_0
Time_Shift_17
Note_On_59_Vel_59
Time_Shift_113
Sustain_On
Time_Shift_173
Note_On_41_Vel_46
Time_Shift_4
Note_On_60_Vel_54
Time_Shift_3
Note_On_53_Vel_46
Time_Shift_5
Note_On_47_Vel_0
Time_Shift_61
Note_On_59_Vel_0
Time_Shift_204
Note_On_64_Vel_58
Time_Shift_57
Note_On_65_Vel_0
Time_Shift_200
Note_On_68_Vel_0
Time_Shift_11
Note_On_68_Vel_68
Time_Shift_273
Note_On_64_Vel_0
Time_Shift_11
Note_On_64_Vel_52
Time_Shift_299
Note_On_33_Vel_49
Time_Shift_5
Note_On_33_Vel_0
Time_Shift_138
Note_On_64_Vel_0
Time_Shift_12
Note_On_64_Vel_60
Time_Shift_122
Note_On_53_Vel_0
Time_Shift_1
Sustain_Off
Time_Shift_51
Note_On_65_Vel_60
Time_Shift_83
Sustain_On
Time_Shift_200
Note_On_68_Vel_0
Time_Shift_10
Note_On_57_Vel_48
Time_Shift_245
Note_On_61_Vel_53
Time_Shift_6
Note_On_61_Vel_0
Time_Shift_153
Note_On_41_Vel_0
Time_Shift_11
Note_On_57_Vel_0
Time_Shift_13
Sustain_Off
Time_Shift_11
Note_On_53_Vel_25
Time_Shift_11
Note_On_65_Vel_0
Time_Shift_16
Note_On_64_Vel_0
Sustain_On
Time_Shift_15
Note_On_60_Vel_0
Time_Shift_31
Note_On_53_Vel_0
Time_Shift_8
Sustain_Off
Time_Shift_9
Note_On_26_Vel_60
Note_On_65_Vel_65
Time_Shift_6
Note_On_26_Vel_0
Time_Shift_92
Sustain_On
Time_Shift_214
Note_On_53_Vel_33
Time_Shift_1
Note_On_61_Vel_55
Time_Shift_3
Note_On_56_Vel_53
Time_Shift_5
Note_On_53_Vel_0
Time_Shift_345
Note_On_68_Vel_66
Time_Shift_8
Note_On_68_Vel_0
Time_Shift_266
Note_On_49_Vel_31
Sustain_Off
Time_Shift_95
Note_On_49_Vel_0
Time_Shift_9
Note_On_35_Vel_50
Time_Shift_14
Sustain_On
Time_Shift_4
Note_On_47_Vel_41
Time_Shift_109
Sustain_Off
Time_Shift_18
Note_On_35_Vel_0
Time_Shift_30
Sustain_On
Time_Shift_118
Note_On_59_Vel_55
Time_Shift_5
Note_On_61_Vel_0
Time_Shift_255
Note_On_63_Vel_58
Time_Shift_3
Note_On_35_Vel_43
Time_Shift_3
Note_On_56_Vel_0
Note_On_63_Vel_0
Time_Shift_2
Note_On_53_Vel_45
Time_Shift_275
Note_On_35_Vel_0
Time_Shift_7
Note_On_65_Vel_0
Time_Shift_4
Note_On_35_Vel_42
Time_Shift_6
Note_On_65_Vel_59
Time_Shift_310
Note_On_63_Vel_47
Time_Shift_280
Note_On_35_Vel_0
Time_Shift_5
Note_On_35_Vel_39
Time_Shift_2
Note_On_53_Vel_0
Note_On_59_Vel_0
Time_Shift_4
Note_On_53_Vel_33
Time_Shift_1
Note_On_59_Vel_39
Time_Shift_295
Note_On_35_Vel_0
Note_On_53_Vel_0
Note_On_65_Vel_0
Time_Shift_9
Note_On_35_Vel_41
Time_Shift_3
Note_On_47_Vel_0
Time_Shift_5
Sustain_Off
Time_Shift_44
Note_On_35_Vel_0
Time_Shift_8
Note_On_59_Vel_0
Time_Shift_31
Note_On_63_Vel_0
Time_Shift_15
Sustain_On
Time_Shift_5
Note_On_47_Vel_37
Time_Shift_10
Note_On_47_Vel_0
Time_Shift_282
Note_On_59_Vel_55
Time_Shift_6
Note_On_53_Vel_36
Time_Shift_4
Note_On_53_Vel_0
Time_Shift_238
Sustain_Off
Time_Shift_13
Note_On_63_Vel_53
Time_Shift_56
Note_On_59_Vel_0
Time_Shift_16
Sustain_On
Time_Shift_197
Note_On_65_Vel_55
Time_Shift_6
Note_On_53_Vel_42
Time_Shift_4
Note_On_53_Vel_0
Time_Shift_253
Sustain_Off
Time_Shift_6
Note_On_35_Vel_48
Time_Shift_2
Note_On_63_Vel_0
Time_Shift_8
Note_On_35_Vel_0
Time_Shift_3
Note_On_63_Vel_59
Time_Shift_66
Sustain_On
Time_Shift_204
Note_On_67_Vel_59
Time_Shift_295
Note_On_65_Vel_0
Time_Shift_15
Sustain_Off
Time_Shift_15
Note_On_27_Vel_59
Time_Shift_7
Note_On_51_Vel_60
Time_Shift_2
Note_On_27_Vel_0
Time_Shift_61
Note_On_63_Vel_0
Time_Shift_15
Sustain_On
Time_Shift_201
Note_On_59_Vel_50
Time_Shift_7
Note_On_59_Vel_0
Time_Shift_275
Note_On_63_Vel_53
Time_Shift_264
Sustain_Off
Time_Shift_20
Note_On_68_Vel_67
Time_Shift_9
Note_On_68_Vel_0
Time_Shift_8
Note_On_51_Vel_0
Time_Shift_46
Sustain_On
Time_Shift_199
Note_On_63_Vel_0
Time_Shift_5
Note_On_63_Vel_54
Time_Shift_134
Note_On_67_Vel_0
Time_Shift_127
Note_On_47_Vel_33
Time_Shift_3
Note_On_59_Vel_45
Time_Shift_228
Sustain_Off
Time_Shift_48
Note_On_36_Vel_44
Time_Shift_5
Note_On_55_Vel_40
Time_Shift_57
Sustain_On
Time_Shift_201
Note_On_60_Vel_55
Time_Shift_7
Note_On_60_Vel_0
Time_Shift_252
Note_On_64_Vel_59
Time_Shift_9
Note_On_64_Vel_0
Time_Shift_586
Note_On_64_Vel_61
Time_Shift_285
Sustain_Off
Time_Shift_13
Note_On_52_Vel_48
Time_Shift_2
Note_On_60_Vel_71
Time_Shift_66
Sustain_On
Time_Shift_8
Note_On_59_Vel_0
Time_Shift_161
Note_On_36_Vel_0
Time_Shift_46
Note_On_63_Vel_0
Time_Shift_16
Sustain_Off
Time_Shift_7
Note_On_55_Vel_0
Note_On_60_Vel_0
Time_Shift_15
Note_On_52_Vel_0
Time_Shift_8
Note_On_47_Vel_0
Note_On_64_Vel_0
Time_Shift_26
Note_On_45_Vel_54
Time_Shift_1
Note_On_51_Vel_60
Time_Shift_4
Note_On_45_Vel_0
Time_Shift_3
Note_On_57_Vel_60
Time_Shift_5
Note_On_57_Vel_0
Time_Shift_53
Sustain_On
Time_Shift_201
Note_On_60_Vel_60
Time_Shift_47
Sustain_Off
Time_Shift_52
Sustain_On
Time_Shift_173
Note_On_63_Vel_60
Time_Shift_88
Note_On_51_Vel_0
Time_Shift_31
Note_On_60_Vel_0
Time_Shift_76
Note_On_63_Vel_0
Time_Shift_14
Sustain_Off
Time_Shift_45
Note_On_36_Vel_59
Time_Shift_11
Note_On_36_Vel_0
Time_Shift_61
Sustain_On
Time_Shift_212
Note_On_65_Vel_56
Time_Shift_11
Note_On_65_Vel_0
Time_Shift_240
Note_On_63_Vel_59
Time_Shift_189
Sustain_Off
Time_Shift_82
Note_On_48_Vel_66
Time_Shift_3
Sustain_On
Time_Shift_303
Sustain_Off
Time_Shift_8
Note_On_67_Vel_75
Time_Shift_4
Note_On_67_Vel_0
Time_Shift_8
Note_On_48_Vel_0
Time_Shift_46
Note_On_63_Vel_0
Sustain_On
Time_Shift_443
Sustain_Off
Time_Shift_33
Sustain_On
Time_Shift_250
Note_On_63_Vel_72
Time_Shift_238
Sustain_Off
Time_Shift_27
Sustain_On
Time_Shift_261
Note_On_63_Vel_0
Time_Shift_19
Sustain_Off
Time_Shift_29
Note_On_51_Vel_65
Time_Shift_1
Note_On_57_Vel_64
Time_Shift_51
Sustain_On
Time_Shift_30
Note_On_51_Vel_0
Time_Shift_181
Note_On_60_Vel_71
Note_On_51_Vel_65
Time_Shift_1
Sustain_Off
Time_Shift_79
Sustain_On
Time_Shift_166
Note_On_63_Vel_63
Time_Shift_257
Sustain_Off
Time_Shift_16
Note_On_65_Vel_64
Time_Shift_153
Note_On_63_Vel_0
Time_Shift_15
Sustain_On
Time_Shift_92
Note_On_63_Vel_67
Time_Shift_246
Note_On_60_Vel_0
Time_Shift_5
Note_On_60_Vel_70
Time_Shift_118
Note_On_65_Vel_0
Time_Shift_134
Sustain_Off
Time_Shift_21
Note_On_36_Vel_70
Time_Shift_6
Note_On_36_Vel_0
Time_Shift_300
Note_On_51_Vel_0
Time_Shift_7
Note_On_51_Vel_56
Note_On_63_Vel_0
Time_Shift_3
Note_On_55_Vel_52
Time_Shift_1
Note_On_67_Vel_74
Time_Shift_1
Note_On_63_Vel_61
Time_Shift_3
Note_On_55_Vel_0
Time_Shift_77
Note_On_60_Vel_0
Time_Shift_69
Sustain_On
Time_Shift_108
Note_On_51_Vel_0
Time_Shift_9
Note_On_55_Vel_64
Note_On_51_Vel_56
Time_Shift_213
Note_On_67_Vel_0
Time_Shift_39
Note_On_55_Vel_0
Time_Shift_28
Sustain_Off
Time_Shift_2
Note_On_51_Vel_0
Time_Shift_5
Note_On_35_Vel_70
Time_Shift_1
Note_On_47_Vel_69
Time_Shift_3
Note_On_51_Vel_74
Time_Shift_7
Note_On_35_Vel_0
Note_On_47_Vel_0
Note_On_57_Vel_0
Time_Shift_69
Note_On_63_Vel_0
Time_Shift_38
Sustain_On
Time_Shift_243
Note_On_68_Vel_67
Time_Shift_14
Note_On_63_Vel_61
Time_Shift_43
Sustain_Off
Time_Shift_199
Sustain_On
Time_Shift_96
Note_On_59_Vel_54
Time_Shift_4
Note_On_59_Vel_0
Time_Shift_223
Note_On_68_Vel_0
Time_Shift_434
Sustain_Off
Time_Shift_7
Note_On_71_Vel_62
Time_Shift_3
Note_On_68_Vel_51
Time_Shift_1
Note_On_71_Vel_0
Time_Shift_8
Note_On_51_Vel_0
Time_Shift_2
Note_On_56_Vel_45
Time_Shift_9
Note_On_51_Vel_46
Time_Shift_74
Note_On_63_Vel_0
Time_Shift_169
Note_On_68_Vel_0
Time_Shift_138
Sustain_On
Time_Shift_76
Note_On_59_Vel_48
Time_Shift_8
Note_On_59_Vel_0
Time_Shift_116
Note_On_51_Vel_0
Note_On_56_Vel_0
Time_Shift_115
Sustain_Off
Time_Shift_38
Sustain_On
Time_Shift_30
Note_On_52_Vel_54
Time_Shift_274
Note_On_72_Vel_71
Time_Shift_16
Note_On_68_Vel_49
Time_Shift_179
Note_On_52_Vel_0
Time_Shift_86
Note_On_64_Vel_60
Time_Shift_241
Note_On_59_Vel_54
Time_Shift_30
Note_On_52_Vel_37
Time_Shift_196
Note_On_59_Vel_0
Time_Shift_36
Sustain_Off
Time_Shift_3
Note_On_64_Vel_0
Time_Shift_21
Note_On_57_Vel_65
Time_Shift_55
Note_On_72_Vel_0
Time_Shift_210
Note_On_59_Vel_55
Time_Shift_198
Note_On_59_Vel_0
Time_Shift_38
Sustain_On
Time_Shift_45
Note_On_35_Vel_49
Time_Shift_6
Note_On_51_Vel_52
Time_Shift_3
Note_On_35_Vel_0
Time_Shift_7
Note_On_57_Vel_0
Time_Shift_131
Note_On_68_Vel_0
Time_Shift_642
Note_On_63_Vel_70
Time_Shift_80
Note_On_52_Vel_0
Time_Shift_23
Note_On_63_Vel_0
Time_Shift_67
Sustain_Off
Time_Shift_2
Note_On_51_Vel_0
Time_Shift_207
Sustain_On
Time_Shift_288
Note_On_28_Vel_76
Time_Shift_4
Note_On_28_Vel_0
Time_Shift_409
Sustain_Off
Time_Shift_65
Note_On_46_Vel_81
Note_On_34_Vel_77
Time_Shift_10
Note_On_34_Vel_0
Time_Shift_31
Sustain_On
Time_Shift_215
Note_On_46_Vel_0
Time_Shift_49
Sustain_Off
Time_Shift_81
Sustain_On
Time_Shift_353
Note_On_48_Vel_52
Time_Shift_2
Sustain_Off
Time_Shift_6
Note_On_48_Vel_0
Time_Shift_116
Sustain_On
Time_Shift_272
Sustain_Off
Time_Shift_81
Sustain_On
Time_Shift_205
Note_On_68_Vel_85
Time_Shift_10
Note_On_68_Vel_0
Time_Shift_181
Sustain_Off
Time_Shift_126
Sustain_On
Time_Shift_550
Sustain_Off
Time_Shift_18
Sustain_On
Time_Shift_442
Sustain_Off
Time_Shift_127
Sustain_On
Time_Shift_1929
Sustain_Off
Time_Shift_83
Sustain_On
Time_Shift_1490
Sustain_Off
Time_Shift_38
Sustain_On
Time_Shift_282
Note_On_33_Vel_59
Time_Shift_15
Sustain_Off
Time_Shift_33
Note_On_33_Vel_0
Time_Shift_93
Sustain_On
Time_Shift_327
Note_On_59_Vel_55
Time_Shift_1
Note_On_47_Vel_46
Time_Shift_9
Note_On_47_Vel_0
Time_Shift_277
Note_On_63_Vel_66
Time_Shift_1
Note_On_35_Vel_52
Time_Shift_7
Note_On_35_Vel_0
Note_On_63_Vel_0
Time_Shift_312
Note_On_68_Vel_67
Time_Shift_6
Note_On_75_Vel_69
Time_Shift_4
Note_On_68_Vel_0
Time_Shift_8
Note_On_59_Vel_0
Time_Shift_270
Note_On_63_Vel_60
Time_Shift_302
Note_On_59_Vel_64
Time_Shift_4
Note_On_35_Vel_48
Time_Shift_130
Note_On_35_Vel_0
Time_Shift_5
Note_On_35_Vel_52
Time_Shift_187
Note_On_35_Vel_0
Time_Shift_5
Note_On_35_Vel_59
Time_Shift_42
Note_On_59_Vel_0
Time_Shift_84
Note_On_63_Vel_0
Time_Shift_185
Note_On_59_Vel_59
Note_On_58_Vel_57
Time_Shift_7
Note_On_58_Vel_0
Time_Shift_8
Note_On_59_Vel_0
Note_On_75_Vel_0
Time_Shift_15
Note_On_35_Vel_0
Time_Shift_101
Note_On_65_Vel_53
Time_Shift_164
Note_On_63_Vel_58
Note_On_35_Vel_47
Time_Shift_88
Note_On_63_Vel_0
Time_Shift_46
Note_On_35_Vel_0
Note_On_65_Vel_0
Time_Shift_6
Note_On_35_Vel_44
Time_Shift_2
Note_On_65_Vel_57
Time_Shift_153
Sustain_Off
Time_Shift_16
Note_On_35_Vel_0
Time_Shift_4
Note_On_35_Vel_42
Time_Shift_50
Sustain_On
Time_Shift_275
Note_On_63_Vel_55
Time_Shift_3
Note_On_34_Vel_39
Time_Shift_6
Note_On_34_Vel_0
Time_Shift_197
Note_On_34_Vel_33
Note_On_53_Vel_33
Time_Shift_10
Note_On_34_Vel_0
Time_Shift_139
Note_On_35_Vel_0
Time_Shift_4
Note_On_59_Vel_51
Time_Shift_3
Note_On_27_Vel_50
Note_On_35_Vel_44
Time_Shift_8
Note_On_27_Vel_0
Time_Shift_215
Note_On_59_Vel_0
Time_Shift_184
Note_On_35_Vel_0
Note_On_53_Vel_0
Time_Shift_4
Sustain_Off
Time_Shift_5
Note_On_47_Vel_52
Time_Shift_1
Note_On_35_Vel_53
Time_Shift_2
Note_On_28_Vel_55
Time_Shift_2
Note_On_40_Vel_48
Time_Shift_3
Note_On_52_Vel_58
Time_Shift_6
Note_On_28_Vel_0
Note_On_52_Vel_0
Time_Shift_23
Note_On_35_Vel_0
Note_On_47_Vel_0
Time_Shift_93
Sustain_On
Time_Shift_224
Note_On_56_Vel_46
Time_Shift_279
Note_On_47_Vel_36
Time_Shift_1
Note_On_59_Vel_51
Time_Shift_264
Note_On_59_Vel_0
Note_On_65_Vel_0
Time_Shift_41
Note_On_35_Vel_49
Time_Shift_5
Note_On_35_Vel_0
Time_Shift_76
Note_On_47_Vel_0
Time_Shift_208
Note_On_63_Vel_0
Time_Shift_10
Note_On_63_Vel_52
Time_Shift_5
Note_On_52_Vel_39
Time_Shift_261
Note_On_56_Vel_0
Time_Shift_11
Note_On_59_Vel_44
Note_On_47_Vel_36
Note_On_56_Vel_27
Note_On_35_Vel_27
Time_Shift_5
Note_On_35_Vel_0
Note_On_59_Vel_0
Time_Shift_284
Note_On_56_Vel_0
Time_Shift_8
Note_On_35_Vel_36
Time_Shift_1
Note_On_32_Vel_36
Time_Shift_2
Note_On_56_Vel_41
Time_Shift_4
Note_On_32_Vel_0
Note_On_35_Vel_0
Note_On_47_Vel_0
Time_Shift_304
Note_On_59_Vel_44
Time_Shift_311
Note_On_63_Vel_0
Time_Shift_7
Note_On_59_Vel_0
Time_Shift_2
Note_On_63_Vel_50
Time_Shift_308
Note_On_35_Vel_36
Time_Shift_5
Note_On_47_Vel_41
Note_On_35_Vel_0
Time_Shift_292
Note_On_63_Vel_0
Time_Shift_11
Note_On_63_Vel_47
Time_Shift_12
Note_On_52_Vel_0
Time_Shift_338
Note_On_59_Vel_43
Time_Shift_2
Note_On_58_Vel_41
Time_Shift_6
Note_On_58_Vel_0
Time_Shift_468
Note_On_47_Vel_0
Time_Shift_6
Note_On_35_Vel_39
Time_Shift_1
Note_On_47_Vel_36
Time_Shift_2
Note_On_28_Vel_40
Time_Shift_6
Note_On_28_Vel_0
Note_On_35_Vel_0
Time_Shift_3
Note_On_55_Vel_38
Time_Shift_189
Note_On_59_Vel_0
Time_Shift_11
Sustain_Off
Time_Shift_381
Sustain_On
Time_Shift_131
Note_On_40_Vel_0
Time_Shift_123
Note_On_47_Vel_0
Note_On_56_Vel_0
Time_Shift_2181
Note_On_55_Vel_0
Time_Shift_745
Note_On_63_Vel_0
Time_Shift_4270
Sustain_Off
Time_Shift_2726
Sustain_On
Time_Shift_2181
Sustain_Off
