Ticks_Per_Beat_384
Tempo_500000
Time_Shift_7
Sustain_On
Time_Shift_6193
Note_On_60_Vel_51
Time_Shift_15
Note_On_48_Vel_52
Time_Shift_1180
Note_On_63_Vel_49
Time_Shift_21
Note_On_51_Vel_46
Time_Shift_30
Sustain_Off
Time_Shift_14
Note_On_60_Vel_0
Note_On_48_Vel_0
Time_Shift_120
Sustain_On
Time_Shift_453
Note_On_63_Vel_0
Time_Shift_10
Note_On_63_Vel_48
Time_Shift_13
Note_On_51_Vel_0
Time_Shift_8
Note_On_51_Vel_49
Time_Shift_529
Note_On_63_Vel_0
Time_Shift_10
Note_On_63_Vel_60
Time_Shift_6
Note_On_51_Vel_0
Time_Shift_8
Note_On_51_Vel_51
Time_Shift_122
Note_On_48_Vel_51
Time_Shift_7
Sustain_Off
Time_Shift_11
Note_On_60_Vel_50
Time_Shift_5
Note_On_63_Vel_0
Time_Shift_54
Note_On_51_Vel_0
Time_Shift_92
Sustain_On
Time_Shift_576
Note_On_60_Vel_0
Time_Shift_11
Note_On_51_Vel_45
Note_On_60_Vel_26
Time_Shift_1
Note_On_63_Vel_35
Time_Shift_53
Sustain_Off
Time_Shift_1
Note_On_48_Vel_0
Time_Shift_172
Sustain_On
Time_Shift_70
Note_On_60_Vel_0
Time_Shift_268
Note_On_63_Vel_0
Time_Shift_3
Note_On_51_Vel_0
Time_Shift_1
Sustain_Off
Time_Shift_903
Sustain_On
Time_Shift_513
Note_On_67_Vel_47
Time_Shift_6
Note_On_60_Vel_34
Time_Shift_6
Note_On_63_Vel_37
Time_Shift_642
Note_On_67_Vel_0
Time_Shift_8
Note_On_63_Vel_0
Time_Shift_3
Note_On_67_Vel_56
Time_Shift_1
Note_On_63_Vel_53
Time_Shift_11
Note_On_60_Vel_0
Time_Shift_4
Note_On_60_Vel_40
Sustain_Off
Time_Shift_103
Sustain_On
Time_Shift_423
Note_On_67_Vel_0
Time_Shift_11
Note_On_67_Vel_60
Time_Shift_4
Note_On_60_Vel_0
Note_On_63_Vel_0
Time_Shift_4
Note_On_63_Vel_53
Time_Shift_1
Note_On_60_Vel_52
Time_Shift_157
Note_On_67_Vel_0
Time_Shift_7
Note_On_60_Vel_0
Note_On_63_Vel_0
Time_Shift_2
Note_On_67_Vel_65
Time_Shift_2
Note_On_60_Vel_53
Time_Shift_1
Note_On_63_Vel_54
Time_Shift_725
Note_On_67_Vel_0
Time_Shift_7
Note_On_60_Vel_0
Note_On_63_Vel_0
Time_Shift_3
Note_On_67_Vel_64
Time_Shift_2
Note_On_60_Vel_62
Time_Shift_1
Note_On_63_Vel_54
Time_Shift_60
Sustain_Off
Time_Shift_19
Sustain_On
Time_Shift_660
Note_On_67_Vel_0
Time_Shift_5
Note_On_70_Vel_67
Time_Shift_3
Note_On_60_Vel_0
Time_Shift_3
Note_On_67_Vel_62
Time_Shift_5
Note_On_60_Vel_66
Time_Shift_6
Note_On_53_Vel_58
Time_Shift_9
Sustain_Off
Time_Shift_4
Note_On_63_Vel_0
Time_Shift_96
Sustain_On
Time_Shift_258
Note_On_68_Vel_71
Time_Shift_9
Note_On_65_Vel_64
Time_Shift_2
Note_On_60_Vel_0
Time_Shift_7
Note_On_60_Vel_38
Time_Shift_262
Note_On_67_Vel_0
Time_Shift_23
Note_On_53_Vel_0
Time_Shift_36
Note_On_70_Vel_0
Time_Shift_6
Note_On_65_Vel_0
Note_On_68_Vel_0
Time_Shift_9
Sustain_Off
Time_Shift_2
Note_On_60_Vel_0
Time_Shift_7
Note_On_63_Vel_61
Note_On_48_Vel_66
Note_On_67_Vel_65
Time_Shift_5
Note_On_60_Vel_59
Time_Shift_88
Sustain_On
Time_Shift_338
Note_On_62_Vel_57
Note_On_65_Vel_59
Time_Shift_146
Note_On_48_Vel_0
Time_Shift_4
Note_On_48_Vel_68
Time_Shift_180
Note_On_67_Vel_0
Time_Shift_5
Note_On_67_Vel_69
Time_Shift_11
Note_On_60_Vel_0
Note_On_63_Vel_0
Time_Shift_4
Note_On_63_Vel_59
Time_Shift_3
Note_On_48_Vel_0
Time_Shift_3
Note_On_60_Vel_58
Time_Shift_1
Note_On_62_Vel_0
Time_Shift_1
Note_On_65_Vel_0
Time_Shift_2
Note_On_48_Vel_59
Time_Shift_12
Sustain_Off
Time_Shift_135
Sustain_On
Time_Shift_630
Note_On_63_Vel_0
Time_Shift_4
Note_On_63_Vel_68
Time_Shift_3
Note_On_48_Vel_0
Time_Shift_11
Note_On_48_Vel_66
Time_Shift_5
Note_On_60_Vel_0
Time_Shift_4
Note_On_60_Vel_52
Time_Shift_7
Sustain_Off
Time_Shift_112
Sustain_On
Time_Shift_647
Note_On_62_Vel_74
Time_Shift_2
Note_On_55_Vel_65
Time_Shift_16
Note_On_58_Vel_56
Time_Shift_35
Note_On_48_Vel_0
Note_On_63_Vel_0
Time_Shift_1
Note_On_60_Vel_0
Time_Shift_1
Sustain_Off
Time_Shift_104
Note_On_67_Vel_0
Time_Shift_8
Sustain_On
Time_Shift_553
Note_On_62_Vel_0
Time_Shift_7
Note_On_58_Vel_0
Time_Shift_2
Note_On_62_Vel_74
Time_Shift_4
Note_On_50_Vel_67
Time_Shift_5
Note_On_58_Vel_63
Time_Shift_12
Note_On_55_Vel_0
Time_Shift_12
Sustain_Off
Time_Shift_111
Sustain_On
Time_Shift_500
Note_On_62_Vel_0
Time_Shift_11
Note_On_62_Vel_80
Note_On_48_Vel_75
Time_Shift_4
Note_On_58_Vel_0
Time_Shift_5
Note_On_58_Vel_64
Time_Shift_156
Note_On_62_Vel_0
Time_Shift_8
Note_On_58_Vel_0
Time_Shift_2
Note_On_62_Vel_84
Time_Shift_4
Note_On_58_Vel_77
Time_Shift_2
Note_On_46_Vel_79
Time_Shift_3
Note_On_55_Vel_64
Time_Shift_69
Sustain_Off
Time_Shift_24
Note_On_48_Vel_0
Note_On_50_Vel_0
Time_Shift_142
Sustain_On
Time_Shift_107
Note_On_55_Vel_0
Time_Shift_484
Note_On_62_Vel_0
Time_Shift_5
Note_On_62_Vel_86
Time_Shift_3
Note_On_58_Vel_0
Time_Shift_10
Note_On_58_Vel_73
Note_On_55_Vel_63
Time_Shift_258
Note_On_46_Vel_0
Time_Shift_128
Note_On_45_Vel_91
Time_Shift_4
Note_On_57_Vel_69
Time_Shift_21
Sustain_Off
Time_Shift_39
Sustain_On
Time_Shift_346
Note_On_55_Vel_0
Time_Shift_9
Note_On_67_Vel_77
Time_Shift_2
Note_On_43_Vel_77
Note_On_55_Vel_75
Time_Shift_45
Sustain_Off
Time_Shift_15
Note_On_58_Vel_0
Time_Shift_1
Note_On_45_Vel_0
Time_Shift_5
Note_On_57_Vel_0
Time_Shift_177
Sustain_On
Time_Shift_388
Note_On_56_Vel_82
Time_Shift_2
Note_On_44_Vel_85
Time_Shift_160
Note_On_53_Vel_87
Note_On_41_Vel_86
Time_Shift_46
Sustain_Off
Time_Shift_17
Note_On_43_Vel_0
Time_Shift_1
Note_On_44_Vel_0
Time_Shift_1
Note_On_56_Vel_0
Time_Shift_7
Note_On_55_Vel_0
Time_Shift_7
Note_On_67_Vel_0
Time_Shift_139
Sustain_On
Time_Shift_46
Note_On_62_Vel_0
Time_Shift_431
Note_On_62_Vel_88
Time_Shift_3
Note_On_50_Vel_80
Time_Shift_168
Note_On_39_Vel_81
Time_Shift_2
Note_On_51_Vel_91
Time_Shift_2
Note_On_63_Vel_83
Time_Shift_58
Sustain_Off
Note_On_41_Vel_0
Time_Shift_1
Note_On_50_Vel_0
Note_On_62_Vel_0
Time_Shift_2
Note_On_53_Vel_0
Time_Shift_177
Sustain_On
Time_Shift_399
Note_On_53_Vel_86
Time_Shift_1
Note_On_65_Vel_76
Time_Shift_2
Note_On_41_Vel_85
Time_Shift_1
Note_On_60_Vel_75
Time_Shift_4
Note_On_60_Vel_0
Note_On_65_Vel_0
Time_Shift_163
Note_On_50_Vel_88
Time_Shift_1
Note_On_38_Vel_94
Time_Shift_31
Sustain_Off
Time_Shift_3
Note_On_41_Vel_0
Note_On_51_Vel_0
Time_Shift_2
Note_On_39_Vel_0
Time_Shift_1
Note_On_53_Vel_0
Time_Shift_114
Sustain_On
Time_Shift_269
Note_On_63_Vel_0
Time_Shift_235
Note_On_43_Vel_92
Time_Shift_1
Note_On_31_Vel_83
Time_Shift_1
Note_On_55_Vel_95
Time_Shift_1
Note_On_67_Vel_79
Time_Shift_8
Note_On_31_Vel_0
Time_Shift_177
Note_On_55_Vel_0
Note_On_67_Vel_0
Time_Shift_8
Note_On_67_Vel_94
Time_Shift_3
Note_On_55_Vel_84
Note_On_60_Vel_85
Time_Shift_1
Note_On_48_Vel_93
Time_Shift_1
Note_On_36_Vel_90
Time_Shift_1
Note_On_63_Vel_82
Time_Shift_13
Sustain_Off
Time_Shift_7
Note_On_43_Vel_0
Note_On_50_Vel_0
Note_On_38_Vel_0
Time_Shift_242
Sustain_On
Time_Shift_576
Note_On_67_Vel_0
Time_Shift_8
Note_On_36_Vel_0
Note_On_48_Vel_0
Note_On_60_Vel_0
Time_Shift_2
Note_On_79_Vel_80
Time_Shift_1
Note_On_67_Vel_90
Time_Shift_2
Note_On_36_Vel_70
Time_Shift_1
Note_On_48_Vel_80
Time_Shift_1
Note_On_63_Vel_0
Time_Shift_4
Note_On_60_Vel_79
Time_Shift_5
Note_On_63_Vel_76
Time_Shift_39
Sustain_Off
Time_Shift_14
Sustain_On
Time_Shift_31
Sustain_Off
Time_Shift_84
Sustain_On
Time_Shift_430
Note_On_79_Vel_0
Time_Shift_8
Note_On_67_Vel_0
Time_Shift_3
Note_On_79_Vel_83
Time_Shift_1
Note_On_67_Vel_88
Time_Shift_3
Note_On_63_Vel_0
Time_Shift_11
Note_On_63_Vel_76
Time_Shift_1
Note_On_50_Vel_76
Time_Shift_1
Note_On_75_Vel_67
Time_Shift_156
Note_On_67_Vel_0
Note_On_79_Vel_0
Time_Shift_7
Note_On_79_Vel_87
Time_Shift_4
Note_On_67_Vel_90
Time_Shift_9
Note_On_51_Vel_75
Time_Shift_3
Note_On_58_Vel_77
Time_Shift_10
Note_On_46_Vel_68
Time_Shift_6
Note_On_46_Vel_0
Time_Shift_31
Note_On_60_Vel_0
Time_Shift_11
Sustain_Off
Time_Shift_7
Note_On_36_Vel_0
Time_Shift_3
Note_On_48_Vel_0
Time_Shift_1
Note_On_50_Vel_0
Time_Shift_1
Note_On_55_Vel_0
Time_Shift_1
Note_On_75_Vel_0
Time_Shift_91
Note_On_79_Vel_0
Time_Shift_69
Sustain_On
Time_Shift_522
Note_On_67_Vel_0
Time_Shift_12
Note_On_67_Vel_93
Note_On_79_Vel_84
Time_Shift_3
Note_On_63_Vel_0
Time_Shift_8
Note_On_63_Vel_83
Note_On_51_Vel_0
Time_Shift_8
Note_On_58_Vel_0
Time_Shift_2
Note_On_51_Vel_74
Time_Shift_2
Note_On_58_Vel_77
Time_Shift_59
Sustain_Off
Time_Shift_67
Note_On_79_Vel_0
Time_Shift_31
Sustain_On
Time_Shift_572
Note_On_82_Vel_73
Time_Shift_1
Note_On_70_Vel_85
Time_Shift_3
Note_On_82_Vel_0
Time_Shift_8
Note_On_51_Vel_0
Time_Shift_4
Note_On_44_Vel_70
Note_On_51_Vel_67
Time_Shift_13
Note_On_60_Vel_59
Time_Shift_11
Sustain_Off
Time_Shift_10
Note_On_58_Vel_0
Time_Shift_16
Note_On_67_Vel_0
Time_Shift_84
Sustain_On
Time_Shift_236
Note_On_80_Vel_70
Time_Shift_3
Note_On_68_Vel_77
Time_Shift_7
Note_On_80_Vel_0
Time_Shift_380
Note_On_67_Vel_74
Time_Shift_4
Note_On_63_Vel_0
Time_Shift_7
Note_On_51_Vel_0
Time_Shift_3
Note_On_63_Vel_65
Time_Shift_1
Note_On_58_Vel_67
Time_Shift_1
Note_On_51_Vel_64
Time_Shift_6
Note_On_39_Vel_60
Time_Shift_10
Note_On_68_Vel_0
Time_Shift_1
Note_On_60_Vel_0
Note_On_70_Vel_0
Note_On_44_Vel_0
Time_Shift_14
Sustain_Off
Time_Shift_133
Sustain_On
Time_Shift_471
Note_On_65_Vel_76
Time_Shift_2
Note_On_56_Vel_63
Time_Shift_134
Note_On_67_Vel_0
Time_Shift_7
Note_On_67_Vel_78
Time_Shift_16
Note_On_63_Vel_0
Time_Shift_6
Note_On_63_Vel_61
Time_Shift_2
Note_On_58_Vel_0
Time_Shift_11
Note_On_58_Vel_61
Time_Shift_15
Note_On_56_Vel_0
Note_On_65_Vel_0
Time_Shift_8
Sustain_Off
Time_Shift_127
Sustain_On
Time_Shift_599
Note_On_63_Vel_0
Time_Shift_6
Note_On_63_Vel_81
Time_Shift_17
Note_On_39_Vel_0
Note_On_51_Vel_0
Note_On_58_Vel_0
Time_Shift_3
Note_On_55_Vel_59
Time_Shift_5
Note_On_51_Vel_67
Time_Shift_1
Note_On_58_Vel_64
Time_Shift_2
Note_On_39_Vel_74
Time_Shift_31
Sustain_Off
Time_Shift_20
Note_On_67_Vel_0
Time_Shift_61
Sustain_On
Time_Shift_645
Note_On_63_Vel_0
Time_Shift_10
Note_On_63_Vel_85
Time_Shift_4
Note_On_44_Vel_91
Time_Shift_1
Note_On_60_Vel_80
Note_On_56_Vel_85
Time_Shift_3
Note_On_32_Vel_76
Time_Shift_5
Note_On_32_Vel_0
Time_Shift_29
Sustain_Off
Time_Shift_11
Note_On_55_Vel_0
Time_Shift_3
Note_On_58_Vel_0
Time_Shift_49
Note_On_39_Vel_0
Sustain_On
Time_Shift_169
Note_On_51_Vel_0
Time_Shift_528
Note_On_72_Vel_101
Time_Shift_2
Note_On_60_Vel_0
Time_Shift_4
Note_On_51_Vel_87
Time_Shift_1
Note_On_39_Vel_83
Note_On_60_Vel_86
Time_Shift_42
Sustain_Off
Time_Shift_5
Note_On_44_Vel_0
Time_Shift_5
Note_On_56_Vel_0
Time_Shift_82
Sustain_On
Time_Shift_529
Note_On_72_Vel_0
Time_Shift_5
Note_On_72_Vel_98
Time_Shift_3
Note_On_60_Vel_0
Note_On_63_Vel_0
Time_Shift_9
Note_On_63_Vel_83
Time_Shift_1
Note_On_50_Vel_85
Time_Shift_1
Note_On_66_Vel_72
Note_On_60_Vel_86
Time_Shift_1
Note_On_38_Vel_87
Time_Shift_149
Note_On_72_Vel_0
Time_Shift_8
Note_On_63_Vel_0
Time_Shift_3
Note_On_72_Vel_102
Time_Shift_3
Note_On_48_Vel_100
Note_On_63_Vel_87
Time_Shift_4
Note_On_36_Vel_91
Time_Shift_52
Sustain_Off
Time_Shift_9
Note_On_51_Vel_0
Time_Shift_1
Note_On_38_Vel_0
Note_On_50_Vel_0
Time_Shift_1
Note_On_39_Vel_0
Time_Shift_19
Note_On_60_Vel_0
Time_Shift_8
Note_On_66_Vel_0
Time_Shift_123
Sustain_On
Time_Shift_357
Note_On_59_Vel_89
Time_Shift_60
Note_On_65_Vel_81
Time_Shift_57
Note_On_71_Vel_87
Time_Shift_90
Note_On_74_Vel_101
Time_Shift_15
Note_On_32_Vel_97
Note_On_44_Vel_96
Time_Shift_45
Sustain_Off
Time_Shift_2
Note_On_36_Vel_0
Time_Shift_1
Note_On_65_Vel_0
Note_On_71_Vel_0
Time_Shift_1
Note_On_59_Vel_0
Time_Shift_2
Note_On_48_Vel_0
Time_Shift_7
Note_On_63_Vel_0
Time_Shift_23
Note_On_72_Vel_0
Time_Shift_69
Sustain_On
Time_Shift_488
Note_On_75_Vel_98
Time_Shift_1
Note_On_31_Vel_91
Time_Shift_2
Note_On_43_Vel_93
Time_Shift_141
Note_On_72_Vel_106
Time_Shift_11
Note_On_63_Vel_97
Time_Shift_3
Note_On_48_Vel_101
Note_On_36_Vel_93
Time_Shift_42
Sustain_Off
Time_Shift_1
Note_On_32_Vel_0
Time_Shift_5
Note_On_74_Vel_0
Note_On_31_Vel_0
Time_Shift_1
Note_On_75_Vel_0
Time_Shift_12
Note_On_44_Vel_0
Time_Shift_192
Sustain_On
Time_Shift_192
Note_On_43_Vel_0
Time_Shift_323
Note_On_72_Vel_0
Time_Shift_4
Note_On_72_Vel_92
Time_Shift_4
Note_On_60_Vel_87
Time_Shift_73
Note_On_63_Vel_0
Time_Shift_1
Note_On_36_Vel_0
Time_Shift_14
Sustain_Off
Time_Shift_3
Note_On_48_Vel_0
Time_Shift_116
Sustain_On
Time_Shift_430
Note_On_60_Vel_0
Note_On_72_Vel_0
Time_Shift_5
Note_On_72_Vel_76
Time_Shift_6
Note_On_60_Vel_64
Time_Shift_142
Note_On_72_Vel_0
Time_Shift_5
Note_On_72_Vel_74
Time_Shift_3
Note_On_60_Vel_0
Time_Shift_6
Note_On_60_Vel_59
Time_Shift_26
Sustain_Off
Time_Shift_168
Sustain_On
Time_Shift_686
Note_On_79_Vel_60
Time_Shift_5
Note_On_60_Vel_0
Time_Shift_4
Note_On_67_Vel_49
Time_Shift_6
Note_On_60_Vel_36
Time_Shift_53
Note_On_60_Vel_0
Time_Shift_3
Sustain_Off
Time_Shift_3
Note_On_72_Vel_0
Time_Shift_154
Sustain_On
Time_Shift_378
Note_On_65_Vel_50
Time_Shift_4
Note_On_77_Vel_54
Time_Shift_155
Note_On_67_Vel_0
Time_Shift_4
Sustain_Off
Time_Shift_11
Note_On_65_Vel_0
Note_On_77_Vel_0
Time_Shift_4
Note_On_77_Vel_53
Time_Shift_1
Note_On_65_Vel_51
Time_Shift_72
Sustain_On
Time_Shift_77
Note_On_79_Vel_0
Time_Shift_614
Note_On_77_Vel_0
Time_Shift_8
Note_On_65_Vel_0
Time_Shift_4
Note_On_77_Vel_64
Time_Shift_6
Note_On_65_Vel_50
Time_Shift_25
Note_On_60_Vel_41
Time_Shift_7
Note_On_56_Vel_45
Time_Shift_550
Note_On_65_Vel_0
Note_On_77_Vel_0
Time_Shift_6
Note_On_65_Vel_61
Time_Shift_3
Note_On_77_Vel_73
Time_Shift_167
Note_On_77_Vel_0
Time_Shift_6
Note_On_77_Vel_76
Time_Shift_9
Note_On_71_Vel_60
Time_Shift_1
Note_On_65_Vel_0
Time_Shift_9
Note_On_65_Vel_61
Note_On_59_Vel_64
Time_Shift_13
Note_On_55_Vel_48
Time_Shift_66
Sustain_Off
Time_Shift_2
Note_On_60_Vel_0
Note_On_56_Vel_0
Time_Shift_71
Sustain_On
Time_Shift_591
Note_On_77_Vel_0
Time_Shift_8
Note_On_65_Vel_0
Time_Shift_4
Note_On_77_Vel_82
Time_Shift_3
Note_On_65_Vel_63
Time_Shift_9
Note_On_72_Vel_59
Time_Shift_3
Note_On_60_Vel_60
Time_Shift_4
Note_On_72_Vel_0
Time_Shift_5
Note_On_56_Vel_58
Time_Shift_33
Note_On_55_Vel_0
Time_Shift_14
Note_On_59_Vel_0
Time_Shift_17
Note_On_71_Vel_0
Time_Shift_4
Sustain_Off
Time_Shift_50
Sustain_On
Time_Shift_653
Note_On_65_Vel_0
Note_On_77_Vel_0
Time_Shift_9
Note_On_77_Vel_75
Time_Shift_1
Note_On_65_Vel_61
Time_Shift_24
Note_On_55_Vel_45
Note_On_59_Vel_54
Time_Shift_23
Sustain_Off
Time_Shift_3
Note_On_56_Vel_0
Time_Shift_4
Note_On_60_Vel_0
Time_Shift_43
Sustain_On
Time_Shift_274
Note_On_75_Vel_80
Time_Shift_1
Note_On_63_Vel_63
Time_Shift_1
Note_On_87_Vel_66
Time_Shift_1
Note_On_55_Vel_0
Time_Shift_7
Note_On_87_Vel_0
Time_Shift_3
Note_On_55_Vel_43
Time_Shift_51
Note_On_65_Vel_0
Time_Shift_223
Note_On_63_Vel_0
Note_On_75_Vel_0
Time_Shift_8
Note_On_87_Vel_62
Note_On_75_Vel_68
Time_Shift_2
Note_On_63_Vel_65
Time_Shift_5
Note_On_87_Vel_0
Time_Shift_60
Note_On_74_Vel_74
Time_Shift_16
Note_On_62_Vel_53
Time_Shift_39
Note_On_77_Vel_0
Time_Shift_1
Sustain_Off
Time_Shift_4
Note_On_63_Vel_0
Note_On_59_Vel_0
Note_On_55_Vel_0
Time_Shift_1
Note_On_75_Vel_0
Time_Shift_117
Sustain_On
Time_Shift_499
Note_On_72_Vel_62
Time_Shift_18
Note_On_60_Vel_50
Time_Shift_75
Sustain_Off
Time_Shift_2
Note_On_74_Vel_0
Time_Shift_2
Note_On_62_Vel_0
Time_Shift_7
Note_On_60_Vel_0
Time_Shift_1
Note_On_72_Vel_0
Time_Shift_39
Note_On_74_Vel_65
Time_Shift_5
Note_On_62_Vel_44
Time_Shift_174
Sustain_On
Time_Shift_594
Note_On_79_Vel_65
Time_Shift_3
Note_On_67_Vel_52
Time_Shift_35
Sustain_Off
Time_Shift_2
Note_On_62_Vel_0
Note_On_74_Vel_0
Time_Shift_119
Sustain_On
Time_Shift_455
Note_On_77_Vel_69
Time_Shift_11
Note_On_65_Vel_52
Time_Shift_148
Note_On_67_Vel_0
Note_On_77_Vel_0
Time_Shift_5
Note_On_77_Vel_65
Time_Shift_3
Note_On_65_Vel_0
Time_Shift_4
Note_On_65_Vel_58
Time_Shift_11
Note_On_79_Vel_0
Time_Shift_12
Sustain_Off
Time_Shift_80
Sustain_On
Time_Shift_522
Note_On_65_Vel_0
Time_Shift_108
Note_On_77_Vel_0
Time_Shift_42
Note_On_77_Vel_70
Time_Shift_7
Note_On_65_Vel_54
Time_Shift_1
Note_On_60_Vel_53
Time_Shift_7
Note_On_56_Vel_47
Time_Shift_23
Sustain_Off
Time_Shift_4
Sustain_On
Time_Shift_546
Note_On_65_Vel_0
Note_On_77_Vel_0
Time_Shift_7
Note_On_77_Vel_71
Time_Shift_1
Note_On_65_Vel_59
Time_Shift_161
Note_On_60_Vel_0
Note_On_77_Vel_0
Time_Shift_4
Note_On_77_Vel_74
Time_Shift_3
Note_On_65_Vel_0
Time_Shift_5
Note_On_65_Vel_67
Time_Shift_5
Note_On_55_Vel_50
Time_Shift_1
Note_On_59_Vel_62
Time_Shift_37
Sustain_Off
Time_Shift_75
Sustain_On
Time_Shift_661
Note_On_77_Vel_0
Time_Shift_7
Note_On_65_Vel_0
Time_Shift_1
Note_On_77_Vel_82
Time_Shift_6
Note_On_65_Vel_61
Time_Shift_6
Note_On_60_Vel_59
Time_Shift_3
Note_On_56_Vel_0
Time_Shift_7
Note_On_56_Vel_59
Time_Shift_25
Note_On_59_Vel_0
Note_On_55_Vel_0
Time_Shift_12
Sustain_Off
Time_Shift_109
Sustain_On
Time_Shift_576
Note_On_77_Vel_0
Time_Shift_8
Note_On_65_Vel_0
Time_Shift_3
Note_On_77_Vel_75
Time_Shift_6
Note_On_65_Vel_56
Time_Shift_6
Note_On_56_Vel_0
Time_Shift_11
Note_On_56_Vel_43
Time_Shift_5
Note_On_59_Vel_58
Time_Shift_13
Sustain_Off
Time_Shift_11
Note_On_60_Vel_0
Time_Shift_114
Sustain_On
Time_Shift_217
Note_On_75_Vel_73
Time_Shift_6
Note_On_63_Vel_64
Time_Shift_45
Sustain_Off
Time_Shift_8
Note_On_65_Vel_0
Time_Shift_8
Note_On_77_Vel_0
Time_Shift_92
Sustain_On
Time_Shift_206
Note_On_74_Vel_74
Time_Shift_1
Note_On_62_Vel_61
Time_Shift_50
Sustain_Off
Time_Shift_17
Note_On_75_Vel_0
Time_Shift_57
Note_On_63_Vel_0
Sustain_On
Time_Shift_217
Note_On_75_Vel_79
Note_On_63_Vel_68
Time_Shift_55
Sustain_Off
Time_Shift_1
Note_On_62_Vel_0
Time_Shift_6
Note_On_74_Vel_0
Time_Shift_58
Sustain_On
Time_Shift_252
Note_On_77_Vel_85
Time_Shift_5
Note_On_65_Vel_69
Time_Shift_49
Sustain_Off
Time_Shift_4
Note_On_75_Vel_0
Time_Shift_90
Note_On_63_Vel_0
Time_Shift_31
Sustain_On
Time_Shift_615
Note_On_62_Vel_60
Time_Shift_14
Note_On_56_Vel_0
Time_Shift_5
Note_On_58_Vel_59
Time_Shift_5
Note_On_56_Vel_61
Time_Shift_21
Note_On_59_Vel_0
Time_Shift_21
Sustain_Off
Time_Shift_125
Sustain_On
Time_Shift_223
Note_On_78_Vel_82
Time_Shift_16
Note_On_66_Vel_68
Time_Shift_417
Note_On_79_Vel_85
Time_Shift_4
Note_On_58_Vel_0
Time_Shift_3
Note_On_63_Vel_59
Time_Shift_3
Note_On_67_Vel_67
Time_Shift_2
Note_On_51_Vel_59
Time_Shift_3
Note_On_58_Vel_53
Time_Shift_43
Note_On_65_Vel_0
Time_Shift_3
Note_On_66_Vel_0
Time_Shift_2
Note_On_78_Vel_0
Time_Shift_1
Note_On_77_Vel_0
Time_Shift_1
Note_On_62_Vel_0
Time_Shift_9
Note_On_56_Vel_0
Time_Shift_2
Sustain_Off
Time_Shift_151
Sustain_On
Time_Shift_584
Note_On_79_Vel_0
Time_Shift_10
Note_On_79_Vel_82
Time_Shift_5
Note_On_63_Vel_0
Time_Shift_8
Note_On_51_Vel_0
Time_Shift_2
Note_On_63_Vel_62
Time_Shift_2
Note_On_70_Vel_55
Time_Shift_4
Note_On_58_Vel_0
Time_Shift_1
Note_On_51_Vel_62
Time_Shift_10
Note_On_58_Vel_45
Time_Shift_21
Sustain_Off
Time_Shift_75
Sustain_On
Time_Shift_123
Note_On_67_Vel_0
Time_Shift_399
Note_On_70_Vel_0
Note_On_79_Vel_0
Time_Shift_5
Note_On_79_Vel_86
Time_Shift_5
Note_On_70_Vel_71
Time_Shift_159
Note_On_63_Vel_0
Time_Shift_3
Note_On_75_Vel_89
Time_Shift_5
Note_On_51_Vel_0
Time_Shift_3
Note_On_63_Vel_67
Note_On_72_Vel_79
Time_Shift_6
Note_On_51_Vel_56
Time_Shift_1
Note_On_79_Vel_0
Sustain_Off
Note_On_68_Vel_65
Time_Shift_1
Note_On_58_Vel_0
Note_On_70_Vel_0
Time_Shift_1
Note_On_56_Vel_58
Time_Shift_118
Sustain_On
Time_Shift_721
Note_On_80_Vel_92
Time_Shift_9
Note_On_63_Vel_0
Note_On_72_Vel_0
Time_Shift_7
Note_On_63_Vel_70
Time_Shift_1
Note_On_56_Vel_0
Note_On_75_Vel_0
Note_On_72_Vel_77
Time_Shift_6
Note_On_75_Vel_67
Note_On_56_Vel_68
Time_Shift_42
Sustain_Off
Time_Shift_82
Sustain_On
Time_Shift_100
Note_On_68_Vel_0
Time_Shift_584
Note_On_51_Vel_0
Time_Shift_10
Note_On_51_Vel_76
Time_Shift_4
Note_On_79_Vel_76
Time_Shift_1
Note_On_82_Vel_69
Time_Shift_4
Note_On_58_Vel_65
Time_Shift_3
Note_On_70_Vel_68
Time_Shift_32
Note_On_80_Vel_0
Time_Shift_4
Note_On_56_Vel_0
Time_Shift_3
Note_On_75_Vel_0
Time_Shift_16
Sustain_Off
Time_Shift_7
Note_On_72_Vel_0
Time_Shift_8
Note_On_63_Vel_0
Time_Shift_69
Sustain_On
Time_Shift_486
Note_On_77_Vel_82
Time_Shift_6
Note_On_68_Vel_66
Time_Shift_15
Note_On_82_Vel_0
Time_Shift_4
Note_On_59_Vel_65
Time_Shift_134
Note_On_58_Vel_0
Time_Shift_4
Note_On_75_Vel_77
Time_Shift_7
Note_On_58_Vel_72
Time_Shift_1
Note_On_67_Vel_62
Time_Shift_19
Sustain_Off
Time_Shift_2
Note_On_68_Vel_0
Time_Shift_1
Note_On_59_Vel_0
Time_Shift_1
Note_On_79_Vel_0
Time_Shift_3
Note_On_77_Vel_0
Time_Shift_124
Sustain_On
Time_Shift_452
Note_On_74_Vel_75
Time_Shift_10
Note_On_68_Vel_53
Time_Shift_1
Note_On_65_Vel_60
Time_Shift_159
Note_On_75_Vel_0
Time_Shift_4
Note_On_75_Vel_70
Time_Shift_3
Note_On_67_Vel_0
Time_Shift_4
Note_On_74_Vel_0
Note_On_68_Vel_0
Time_Shift_1
Note_On_65_Vel_0
Note_On_58_Vel_0
Time_Shift_2
Sustain_Off
Time_Shift_1
Note_On_67_Vel_56
Time_Shift_4
Note_On_63_Vel_52
Time_Shift_88
Note_On_70_Vel_0
Time_Shift_62
Sustain_On
Time_Shift_634
Note_On_70_Vel_71
Time_Shift_2
Note_On_55_Vel_65
Time_Shift_1
Note_On_63_Vel_0
Note_On_67_Vel_0
Time_Shift_4
Note_On_67_Vel_56
Note_On_63_Vel_57
Time_Shift_38
Sustain_Off
Time_Shift_27
Note_On_75_Vel_0
Time_Shift_69
Sustain_On
Time_Shift_123
Note_On_51_Vel_0
Time_Shift_568
Note_On_63_Vel_0
Time_Shift_5
Note_On_72_Vel_79
Time_Shift_4
Note_On_60_Vel_73
Time_Shift_1
Note_On_56_Vel_70
Time_Shift_2
Note_On_63_Vel_68
Time_Shift_1
Note_On_44_Vel_64
Time_Shift_4
Note_On_68_Vel_70
Time_Shift_35
Note_On_55_Vel_0
Time_Shift_1
Note_On_70_Vel_0
Time_Shift_8
Sustain_Off
Time_Shift_1
Note_On_67_Vel_0
Time_Shift_115
Sustain_On
Time_Shift_576
Note_On_72_Vel_0
Time_Shift_4
Note_On_72_Vel_88
Time_Shift_4
Note_On_60_Vel_0
Note_On_63_Vel_0
Time_Shift_7
Note_On_63_Vel_80
Time_Shift_4
Note_On_60_Vel_78
Time_Shift_1
Note_On_51_Vel_83
Time_Shift_2
Note_On_67_Vel_69
Time_Shift_1
Note_On_39_Vel_76
Time_Shift_8
Note_On_67_Vel_0
Time_Shift_30
Sustain_Off
Time_Shift_5
Note_On_44_Vel_0
Note_On_56_Vel_0
Time_Shift_65
Sustain_On
Time_Shift_7
Note_On_68_Vel_0
Time_Shift_538
Note_On_60_Vel_0
Note_On_72_Vel_0
Time_Shift_4
Note_On_50_Vel_84
Time_Shift_2
Note_On_38_Vel_88
Time_Shift_2
Note_On_63_Vel_0
Time_Shift_1
Note_On_72_Vel_87
Time_Shift_2
Note_On_60_Vel_85
Time_Shift_1
Note_On_66_Vel_62
Time_Shift_2
Note_On_63_Vel_78
Time_Shift_2
Note_On_69_Vel_72
Time_Shift_7
Note_On_66_Vel_0
Note_On_69_Vel_0
Time_Shift_154
Note_On_60_Vel_0
Note_On_72_Vel_0
Time_Shift_4
Note_On_72_Vel_91
Time_Shift_2
Note_On_60_Vel_88
Time_Shift_1
Note_On_48_Vel_95
Time_Shift_1
Note_On_36_Vel_88
Time_Shift_1
Note_On_67_Vel_79
Time_Shift_63
Note_On_51_Vel_0
Time_Shift_1
Note_On_39_Vel_0
Note_On_38_Vel_0
Time_Shift_1
Note_On_50_Vel_0
Sustain_Off
Time_Shift_141
Sustain_On
Time_Shift_381
Note_On_59_Vel_86
Time_Shift_66
Note_On_65_Vel_76
Time_Shift_58
Note_On_71_Vel_81
Time_Shift_9
Note_On_67_Vel_0
Time_Shift_82
Note_On_74_Vel_93
Time_Shift_20
Note_On_44_Vel_92
Time_Shift_1
Note_On_32_Vel_93
Time_Shift_62
Note_On_63_Vel_0
Time_Shift_1
Note_On_36_Vel_0
Note_On_48_Vel_0
Note_On_71_Vel_0
Time_Shift_1
Note_On_59_Vel_0
Time_Shift_6
Sustain_Off
Time_Shift_4
Note_On_60_Vel_0
Time_Shift_7
Note_On_72_Vel_0
Time_Shift_85
Sustain_On
Time_Shift_496
Note_On_31_Vel_88
Note_On_75_Vel_93
Note_On_43_Vel_91
Time_Shift_160
Note_On_72_Vel_101
Time_Shift_2
Note_On_48_Vel_100
Time_Shift_5
Note_On_36_Vel_92
Time_Shift_48
Note_On_31_Vel_0
Time_Shift_4
Note_On_32_Vel_0
Time_Shift_4
Note_On_75_Vel_0
Time_Shift_2
Sustain_Off
Time_Shift_9
Note_On_44_Vel_0
Time_Shift_7
Note_On_74_Vel_0
Time_Shift_8
Note_On_65_Vel_0
Time_Shift_154
Sustain_On
Time_Shift_192
Note_On_43_Vel_0
Time_Shift_368
Note_On_72_Vel_0
Time_Shift_8
Note_On_36_Vel_0
Note_On_48_Vel_0
Time_Shift_4
Note_On_72_Vel_99
Note_On_48_Vel_101
Time_Shift_1
Note_On_36_Vel_96
Note_On_60_Vel_100
Time_Shift_39
Sustain_Off
Time_Shift_40
Sustain_On
Time_Shift_584
Note_On_60_Vel_0
Note_On_72_Vel_0
Time_Shift_8
Note_On_36_Vel_0
Note_On_48_Vel_0
Time_Shift_1
Note_On_72_Vel_101
Time_Shift_1
Note_On_60_Vel_102
Time_Shift_2
Note_On_48_Vel_100
Note_On_36_Vel_90
Time_Shift_172
Note_On_36_Vel_0
Note_On_48_Vel_0
Note_On_60_Vel_0
Note_On_72_Vel_0
Time_Shift_5
Note_On_72_Vel_99
Time_Shift_2
Note_On_60_Vel_93
Time_Shift_3
Note_On_48_Vel_98
Time_Shift_1
Note_On_36_Vel_91
Time_Shift_43
Sustain_Off
Time_Shift_108
Sustain_On
Time_Shift_833
Note_On_79_Vel_76
Time_Shift_3
Note_On_67_Vel_60
Time_Shift_7
Note_On_72_Vel_0
Time_Shift_1
Sustain_Off
Time_Shift_16
Note_On_36_Vel_0
Note_On_48_Vel_0
Time_Shift_7
Note_On_60_Vel_0
Time_Shift_423
Sustain_On
Time_Shift_184
Note_On_67_Vel_0
Time_Shift_21
Note_On_65_Vel_55
Note_On_77_Vel_63
Time_Shift_79
Note_On_79_Vel_0
Time_Shift_77
Note_On_77_Vel_0
Time_Shift_7
Note_On_65_Vel_0
Time_Shift_4
Note_On_77_Vel_72
Time_Shift_5
Note_On_65_Vel_50
Time_Shift_32
Sustain_Off
Time_Shift_75
Sustain_On
Time_Shift_637
Note_On_77_Vel_0
Time_Shift_51
Note_On_77_Vel_73
Time_Shift_11
Note_On_65_Vel_0
Time_Shift_4
Note_On_65_Vel_55
Note_On_60_Vel_59
Time_Shift_6
Note_On_56_Vel_54
Time_Shift_21
Sustain_Off
Time_Shift_61
Sustain_On
Time_Shift_499
Note_On_65_Vel_0
Note_On_77_Vel_0
Time_Shift_8
Note_On_65_Vel_67
Time_Shift_3
Note_On_77_Vel_79
Time_Shift_181
Note_On_77_Vel_0
Time_Shift_6
Note_On_77_Vel_79
Time_Shift_2
Note_On_65_Vel_0
Time_Shift_4
Note_On_59_Vel_67
Time_Shift_3
Note_On_65_Vel_67
Time_Shift_3
Note_On_55_Vel_53
Time_Shift_22
Sustain_Off
Time_Shift_83
Sustain_On
Time_Shift_676
Note_On_77_Vel_0
Time_Shift_4
Note_On_77_Vel_76
Time_Shift_3
Note_On_65_Vel_0
Time_Shift_5
Note_On_65_Vel_65
Time_Shift_3
Note_On_56_Vel_0
Note_On_60_Vel_0
Time_Shift_5
Note_On_72_Vel_58
Time_Shift_4
Note_On_60_Vel_62
Time_Shift_2
Note_On_56_Vel_59
Time_Shift_48
Note_On_55_Vel_0
Time_Shift_1
Note_On_59_Vel_0
Time_Shift_6
Sustain_Off
Time_Shift_95
Sustain_On
Time_Shift_584
Note_On_77_Vel_0
Time_Shift_8
Note_On_65_Vel_0
Time_Shift_2
Note_On_77_Vel_75
Time_Shift_2
Note_On_55_Vel_49
Note_On_65_Vel_59
Time_Shift_9
Note_On_59_Vel_51
Time_Shift_4
Note_On_67_Vel_53
Time_Shift_2
Sustain_Off
Time_Shift_4
Note_On_67_Vel_0
Time_Shift_23
Note_On_60_Vel_0
Time_Shift_53
Sustain_On
Time_Shift_301
Note_On_75_Vel_85
Time_Shift_2
Note_On_63_Vel_72
Time_Shift_320
Note_On_63_Vel_0
Note_On_75_Vel_0
Time_Shift_5
Note_On_87_Vel_69
Time_Shift_1
Note_On_75_Vel_70
Time_Shift_4
Note_On_63_Vel_68
Time_Shift_5
Note_On_87_Vel_0
Time_Shift_59
Note_On_62_Vel_65
Time_Shift_1
Note_On_74_Vel_74
Time_Shift_43
Sustain_Off
Time_Shift_11
Note_On_59_Vel_0
Time_Shift_1
Note_On_56_Vel_0
Note_On_72_Vel_0
Note_On_55_Vel_0
Time_Shift_1
Note_On_63_Vel_0
Time_Shift_2
Note_On_75_Vel_0
Time_Shift_12
Note_On_77_Vel_0
Time_Shift_8
Note_On_65_Vel_0
Time_Shift_146
Sustain_On
Time_Shift_397
Note_On_72_Vel_70
Time_Shift_34
Note_On_60_Vel_44
Time_Shift_101
Sustain_Off
Time_Shift_13
Note_On_62_Vel_0
Note_On_74_Vel_0
Time_Shift_2
Note_On_60_Vel_0
Time_Shift_2
Note_On_72_Vel_0
Time_Shift_4
Note_On_74_Vel_66
Time_Shift_3
Note_On_62_Vel_48
Time_Shift_197
Sustain_On
Time_Shift_667
Note_On_79_Vel_60
Time_Shift_21
Note_On_67_Vel_45
Time_Shift_23
Sustain_Off
Time_Shift_7
Note_On_62_Vel_0
Time_Shift_1
Note_On_74_Vel_0
Time_Shift_156
Sustain_On
Time_Shift_463
Note_On_77_Vel_66
Time_Shift_17
Note_On_65_Vel_47
Time_Shift_165
Note_On_77_Vel_0
Time_Shift_8
Note_On_67_Vel_0
Time_Shift_2
Note_On_77_Vel_65
Time_Shift_6
Note_On_65_Vel_0
Time_Shift_4
Note_On_65_Vel_55
Time_Shift_7
Sustain_Off
Time_Shift_50
Note_On_79_Vel_0
Time_Shift_46
Sustain_On
Time_Shift_714
Note_On_65_Vel_0
Note_On_77_Vel_0
Time_Shift_6
Note_On_65_Vel_56
Time_Shift_6
Note_On_77_Vel_64
Time_Shift_10
Note_On_56_Vel_50
Time_Shift_6
Note_On_60_Vel_43
Time_Shift_610
Note_On_65_Vel_0
Time_Shift_8
Note_On_77_Vel_0
Time_Shift_3
Note_On_65_Vel_54
Time_Shift_6
Note_On_77_Vel_62
Time_Shift_167
Note_On_77_Vel_0
Time_Shift_11
Note_On_77_Vel_70
Time_Shift_5
Note_On_65_Vel_0
Time_Shift_9
Note_On_65_Vel_61
Time_Shift_16
Note_On_59_Vel_58
Time_Shift_5
Note_On_55_Vel_49
Time_Shift_22
Sustain_Off
Time_Shift_86
Sustain_On
Time_Shift_200
Note_On_60_Vel_0
Time_Shift_499
Note_On_65_Vel_0
Note_On_77_Vel_0
Time_Shift_4
Note_On_77_Vel_64
Note_On_65_Vel_57
Time_Shift_3
Note_On_56_Vel_0
Time_Shift_8
Note_On_60_Vel_55
Time_Shift_3
Note_On_56_Vel_51
Time_Shift_45
Note_On_59_Vel_0
Time_Shift_1
Note_On_55_Vel_0
Time_Shift_8
Sustain_Off
Time_Shift_81
Sustain_On
Time_Shift_676
Note_On_65_Vel_0
Note_On_77_Vel_0
Time_Shift_4
Note_On_77_Vel_67
Time_Shift_3
Note_On_65_Vel_54
Time_Shift_9
Note_On_56_Vel_0
Time_Shift_5
Note_On_59_Vel_58
Time_Shift_1
Note_On_56_Vel_45
Time_Shift_59
Sustain_Off
Time_Shift_27
Note_On_60_Vel_0
Time_Shift_161
Sustain_On
Time_Shift_142
Note_On_75_Vel_70
Time_Shift_9
Note_On_63_Vel_61
Time_Shift_58
Sustain_Off
Time_Shift_37
Note_On_65_Vel_0
Note_On_77_Vel_0
Time_Shift_77
Sustain_On
Time_Shift_213
Note_On_74_Vel_68
Time_Shift_4
Note_On_62_Vel_58
Time_Shift_56
Sustain_Off
Time_Shift_95
Sustain_On
Time_Shift_108
Note_On_63_Vel_0
Time_Shift_123
Note_On_75_Vel_0
Time_Shift_4
Note_On_75_Vel_73
Time_Shift_1
Note_On_63_Vel_69
Time_Shift_67
Sustain_Off
Time_Shift_7
Note_On_62_Vel_0
Time_Shift_3
Note_On_74_Vel_0
Time_Shift_71
Sustain_On
Time_Shift_280
Note_On_77_Vel_80
Time_Shift_5
Note_On_65_Vel_68
Time_Shift_66
Note_On_75_Vel_0
Time_Shift_10
Sustain_Off
Time_Shift_15
Note_On_63_Vel_0
Time_Shift_146
Sustain_On
Time_Shift_192
Note_On_59_Vel_0
Time_Shift_396
Note_On_62_Vel_47
Time_Shift_4
Note_On_56_Vel_0
Time_Shift_3
Note_On_58_Vel_54
Time_Shift_1
Note_On_56_Vel_56
Time_Shift_62
Sustain_Off
Time_Shift_41
Sustain_On
Time_Shift_327
Note_On_78_Vel_80
Time_Shift_15
Note_On_66_Vel_57
Time_Shift_472
Note_On_65_Vel_0
Time_Shift_7
Note_On_79_Vel_81
Time_Shift_6
Note_On_67_Vel_63
Time_Shift_12
Note_On_63_Vel_50
Time_Shift_14
Note_On_58_Vel_0
Time_Shift_3
Note_On_51_Vel_51
Time_Shift_1
Note_On_58_Vel_44
Time_Shift_29
Note_On_62_Vel_0
Time_Shift_1
Note_On_66_Vel_0
Note_On_56_Vel_0
Note_On_78_Vel_0
Time_Shift_3
Note_On_77_Vel_0
Time_Shift_22
Sustain_Off
Time_Shift_140
Sustain_On
Time_Shift_607
Note_On_79_Vel_0
Time_Shift_10
Note_On_79_Vel_77
Time_Shift_6
Note_On_51_Vel_0
Note_On_63_Vel_0
Time_Shift_3
Note_On_70_Vel_60
Time_Shift_1
Note_On_51_Vel_49
Time_Shift_3
Note_On_63_Vel_50
Time_Shift_615
Note_On_79_Vel_0
Time_Shift_7
Note_On_70_Vel_0
Time_Shift_4
Note_On_79_Vel_75
Time_Shift_7
Note_On_70_Vel_58
Time_Shift_163
Note_On_75_Vel_81
Time_Shift_11
Note_On_63_Vel_0
Time_Shift_3
Note_On_72_Vel_69
Time_Shift_1
Note_On_63_Vel_54
Time_Shift_3
Note_On_68_Vel_59
Note_On_51_Vel_0
Time_Shift_1
Note_On_79_Vel_0
Time_Shift_2
Sustain_Off
Time_Shift_2
Note_On_56_Vel_47
Time_Shift_3
Note_On_58_Vel_0
Note_On_68_Vel_0
Time_Shift_1
Note_On_51_Vel_43
Time_Shift_7
Note_On_67_Vel_0
Time_Shift_7
Note_On_70_Vel_0
Time_Shift_69
Sustain_On
Time_Shift_753
Note_On_72_Vel_0
Time_Shift_3
Note_On_80_Vel_84
Time_Shift_5
Note_On_63_Vel_0
Time_Shift_3
Note_On_72_Vel_70
Time_Shift_2
Note_On_63_Vel_56
Time_Shift_2
Note_On_56_Vel_0
Time_Shift_11
Note_On_56_Vel_55
Time_Shift_420
Note_On_51_Vel_0
Time_Shift_449
Sustain_Off
Time_Shift_2
Note_On_80_Vel_0
Time_Shift_8
Note_On_79_Vel_88
Time_Shift_1
Note_On_63_Vel_0
Time_Shift_6
Note_On_63_Vel_73
Time_Shift_6
Note_On_70_Vel_75
Time_Shift_2
Note_On_51_Vel_70
Time_Shift_2
Note_On_56_Vel_0
Note_On_72_Vel_0
Time_Shift_2
Note_On_58_Vel_64
Time_Shift_5
Note_On_75_Vel_0
Sustain_On
Time_Shift_31
Sustain_Off
Time_Shift_85
Sustain_On
Time_Shift_519
Note_On_77_Vel_86
Time_Shift_14
Note_On_59_Vel_75
Note_On_68_Vel_70
Time_Shift_150
Note_On_58_Vel_0
Time_Shift_4
Note_On_75_Vel_85
Time_Shift_5
Note_On_58_Vel_74
Time_Shift_2
Note_On_67_Vel_71
Time_Shift_37
Note_On_63_Vel_0
Note_On_70_Vel_0
Sustain_Off
Note_On_68_Vel_0
Time_Shift_1
Note_On_79_Vel_0
Time_Shift_1
Note_On_59_Vel_0
Note_On_77_Vel_0
Time_Shift_104
Sustain_On
Time_Shift_493
Note_On_74_Vel_81
Time_Shift_1
Note_On_65_Vel_68
Time_Shift_1
Note_On_68_Vel_63
Time_Shift_157
Note_On_75_Vel_0
Time_Shift_8
Note_On_67_Vel_0
Time_Shift_3
Note_On_75_Vel_82
Time_Shift_1
Note_On_63_Vel_76
Time_Shift_1
Note_On_67_Vel_73
Time_Shift_14
Note_On_58_Vel_0
Note_On_68_Vel_0
Sustain_Off
Time_Shift_2
Note_On_65_Vel_0
Note_On_74_Vel_0
Time_Shift_171
Sustain_On
Time_Shift_667
Note_On_70_Vel_76
Time_Shift_9
Note_On_63_Vel_0
Note_On_67_Vel_0
Time_Shift_4
Note_On_67_Vel_57
Note_On_63_Vel_62
Time_Shift_1
Note_On_55_Vel_66
Time_Shift_53
Sustain_Off
Time_Shift_111
Sustain_On
Time_Shift_107
Note_On_75_Vel_0
Time_Shift_600
Note_On_51_Vel_0
Time_Shift_19
Note_On_72_Vel_77
Time_Shift_4
Note_On_63_Vel_0
Time_Shift_1
Note_On_60_Vel_67
Time_Shift_7
Note_On_63_Vel_66
Time_Shift_3
Note_On_56_Vel_58
Time_Shift_1
Note_On_44_Vel_64
Time_Shift_21
Note_On_55_Vel_0
Time_Shift_51
Note_On_67_Vel_0
Time_Shift_8
Sustain_Off
Time_Shift_15
Note_On_70_Vel_0
Time_Shift_108
Sustain_On
Time_Shift_599
Note_On_72_Vel_0
Time_Shift_8
Note_On_72_Vel_83
Time_Shift_7
Note_On_60_Vel_0
Note_On_63_Vel_0
Time_Shift_5
Note_On_60_Vel_69
Time_Shift_1
Note_On_63_Vel_74
Note_On_68_Vel_66
Time_Shift_5
Note_On_51_Vel_72
Note_On_39_Vel_71
Time_Shift_6
Note_On_44_Vel_0
Time_Shift_47
Sustain_Off
Time_Shift_51
Sustain_On
Time_Shift_599
Note_On_60_Vel_0
Note_On_72_Vel_0
Time_Shift_8
Note_On_38_Vel_87
Note_On_63_Vel_0
Note_On_72_Vel_87
Time_Shift_2
Note_On_50_Vel_81
Time_Shift_1
Note_On_60_Vel_82
Time_Shift_5
Note_On_63_Vel_74
Time_Shift_3
Note_On_69_Vel_71
Time_Shift_4
Note_On_69_Vel_0
Time_Shift_169
Note_On_72_Vel_0
Time_Shift_8
Note_On_60_Vel_0
Note_On_63_Vel_0
Time_Shift_2
Note_On_72_Vel_92
Time_Shift_4
Note_On_63_Vel_82
Time_Shift_1
Note_On_60_Vel_82
Time_Shift_3
Note_On_67_Vel_80
Note_On_36_Vel_91
Note_On_48_Vel_94
Time_Shift_5
Note_On_67_Vel_0
Time_Shift_69
Note_On_68_Vel_0
Time_Shift_4
Sustain_Off
Time_Shift_5
Note_On_56_Vel_0
Time_Shift_2
Note_On_38_Vel_0
Time_Shift_1
Note_On_50_Vel_0
Time_Shift_4
Note_On_51_Vel_0
Time_Shift_100
Sustain_On
Time_Shift_15
Note_On_39_Vel_0
Time_Shift_406
Note_On_59_Vel_86
Time_Shift_62
Note_On_65_Vel_80
Time_Shift_54
Note_On_71_Vel_78
Time_Shift_85
Note_On_74_Vel_97
Time_Shift_19
Note_On_44_Vel_94
Note_On_32_Vel_95
Time_Shift_39
Note_On_48_Vel_0
Time_Shift_2
Note_On_36_Vel_0
Time_Shift_2
Note_On_65_Vel_0
Time_Shift_1
Note_On_59_Vel_0
Time_Shift_1
Note_On_71_Vel_0
Time_Shift_5
Note_On_60_Vel_0
Time_Shift_7
Note_On_63_Vel_0
Time_Shift_7
Sustain_Off
Time_Shift_1
Note_On_72_Vel_0
Time_Shift_154
Sustain_On
Time_Shift_449
Note_On_31_Vel_93
Note_On_67_Vel_73
Time_Shift_1
Note_On_43_Vel_94
Time_Shift_2
Note_On_75_Vel_99
Time_Shift_166
Note_On_72_Vel_102
Time_Shift_10
Note_On_48_Vel_105
Time_Shift_1
Note_On_36_Vel_98
Time_Shift_2
Note_On_24_Vel_98
Time_Shift_6
Note_On_24_Vel_0
Time_Shift_59
Note_On_32_Vel_0
Time_Shift_2
Note_On_31_Vel_0
Time_Shift_1
Sustain_Off
Time_Shift_3
Note_On_75_Vel_0
Time_Shift_12
Note_On_44_Vel_0
Time_Shift_8
Note_On_74_Vel_0
Time_Shift_30
Note_On_67_Vel_0
Time_Shift_108
Sustain_On
Time_Shift_299
Note_On_43_Vel_0
Time_Shift_277
Note_On_48_Vel_0
Note_On_72_Vel_0
Time_Shift_8
Note_On_36_Vel_0
Time_Shift_1
Note_On_72_Vel_100
Time_Shift_2
Note_On_60_Vel_101
Note_On_48_Vel_103
Note_On_36_Vel_98
Time_Shift_70
Sustain_Off
Time_Shift_57
Sustain_On
Time_Shift_584
Note_On_72_Vel_0
Time_Shift_8
Note_On_36_Vel_0
Note_On_48_Vel_0
Note_On_60_Vel_0
Time_Shift_2
Note_On_72_Vel_89
Time_Shift_2
Note_On_60_Vel_91
Time_Shift_1
Note_On_48_Vel_93
Time_Shift_3
Note_On_36_Vel_87
Time_Shift_184
Note_On_36_Vel_0
Note_On_48_Vel_0
Note_On_60_Vel_0
Note_On_72_Vel_0
Time_Shift_4
Note_On_72_Vel_92
Time_Shift_2
Note_On_60_Vel_95
Time_Shift_1
Note_On_48_Vel_98
Time_Shift_1
Note_On_67_Vel_83
Time_Shift_1
Note_On_36_Vel_87
Time_Shift_6
Note_On_67_Vel_0
Time_Shift_34
Sustain_Off
Time_Shift_119
Sustain_On
Time_Shift_969
Note_On_46_Vel_63
Time_Shift_1
Note_On_34_Vel_62
Time_Shift_65
Sustain_Off
Time_Shift_10
Note_On_36_Vel_0
Note_On_48_Vel_0
Note_On_60_Vel_0
Time_Shift_292
Sustain_On
Time_Shift_23
Note_On_72_Vel_0
Time_Shift_915
Note_On_44_Vel_49
Time_Shift_16
Note_On_75_Vel_59
Time_Shift_60
Note_On_34_Vel_0
Time_Shift_30
Note_On_46_Vel_0
Time_Shift_2
Sustain_Off
Time_Shift_113
Sustain_On
Time_Shift_93
Note_On_44_Vel_0
Time_Shift_456
Note_On_60_Vel_38
Note_On_63_Vel_39
Time_Shift_7
Note_On_68_Vel_40
Time_Shift_8
Note_On_51_Vel_40
Time_Shift_1
Note_On_56_Vel_33
Time_Shift_696
Note_On_72_Vel_62
Time_Shift_6
Note_On_44_Vel_39
Time_Shift_677
Note_On_60_Vel_0
Note_On_68_Vel_0
Time_Shift_5
Note_On_68_Vel_50
Time_Shift_6
Note_On_60_Vel_35
Time_Shift_12
Note_On_51_Vel_0
Note_On_63_Vel_0
Time_Shift_5
Note_On_63_Vel_40
Time_Shift_5
Note_On_51_Vel_40
Time_Shift_3
Note_On_56_Vel_0
Time_Shift_711
Note_On_70_Vel_58
Time_Shift_27
Note_On_37_Vel_44
Time_Shift_29
Sustain_Off
Time_Shift_3
Note_On_63_Vel_0
Time_Shift_2
Note_On_44_Vel_0
Time_Shift_1
Note_On_75_Vel_0
Time_Shift_5
Note_On_60_Vel_0
Time_Shift_7
Note_On_51_Vel_0
Time_Shift_8
Note_On_68_Vel_0
Note_On_72_Vel_0
Time_Shift_84
Sustain_On
Time_Shift_592
Note_On_70_Vel_0
Time_Shift_4
Note_On_70_Vel_56
Time_Shift_18
Note_On_64_Vel_49
Time_Shift_2
Note_On_68_Vel_50
Time_Shift_26
Note_On_58_Vel_34
Time_Shift_560
Note_On_72_Vel_65
Time_Shift_175
Note_On_73_Vel_70
Time_Shift_34
Note_On_49_Vel_51
Time_Shift_42
Sustain_Off
Note_On_68_Vel_0
Time_Shift_1
Note_On_64_Vel_0
Note_On_70_Vel_0
Time_Shift_1
Note_On_72_Vel_0
Time_Shift_28
Note_On_37_Vel_0
Note_On_58_Vel_0
Time_Shift_61
Sustain_On
Time_Shift_566
Note_On_68_Vel_51
Time_Shift_5
Note_On_64_Vel_48
Time_Shift_14
Note_On_61_Vel_35
Time_Shift_10
Note_On_58_Vel_35
Time_Shift_2
Note_On_56_Vel_40
Time_Shift_766
Note_On_39_Vel_43
Time_Shift_8
Note_On_70_Vel_58
Time_Shift_85
Note_On_58_Vel_0
Time_Shift_1
Note_On_73_Vel_0
Note_On_56_Vel_0
Note_On_68_Vel_0
Note_On_61_Vel_0
Time_Shift_1
Note_On_64_Vel_0
Time_Shift_1
Note_On_49_Vel_0
Time_Shift_4
Sustain_Off
Time_Shift_104
Sustain_On
Time_Shift_553
Note_On_70_Vel_0
Time_Shift_9
Note_On_61_Vel_49
Time_Shift_2
Note_On_70_Vel_59
Time_Shift_19
Note_On_51_Vel_37
Time_Shift_3
Note_On_67_Vel_39
Time_Shift_93
Sustain_Off
Time_Shift_4
Sustain_On
Time_Shift_465
Note_On_72_Vel_66
Time_Shift_203
Note_On_73_Vel_62
Time_Shift_1
Note_On_39_Vel_0
Time_Shift_11
Note_On_39_Vel_44
Time_Shift_95
Sustain_Off
Time_Shift_3
Note_On_72_Vel_0
Note_On_61_Vel_0
Note_On_67_Vel_0
Time_Shift_90
Sustain_On
Time_Shift_369
Note_On_70_Vel_0
Time_Shift_8
Note_On_73_Vel_0
Time_Shift_3
Note_On_75_Vel_62
Time_Shift_1
Note_On_73_Vel_45
Time_Shift_257
Note_On_77_Vel_71
Time_Shift_4
Note_On_61_Vel_46
Time_Shift_39
Note_On_67_Vel_40
Time_Shift_579
Note_On_75_Vel_0
Time_Shift_8
Note_On_75_Vel_66
Time_Shift_182
Note_On_40_Vel_46
Time_Shift_25
Note_On_73_Vel_0
Time_Shift_11
Note_On_73_Vel_60
Time_Shift_38
Note_On_67_Vel_0
Time_Shift_1
Note_On_61_Vel_0
Note_On_51_Vel_0
Note_On_75_Vel_0
Note_On_77_Vel_0
Time_Shift_10
Sustain_Off
Time_Shift_17
Note_On_39_Vel_0
Time_Shift_84
Sustain_On
Time_Shift_591
Note_On_52_Vel_53
Time_Shift_65
Note_On_70_Vel_45
Time_Shift_22
Note_On_67_Vel_30
Time_Shift_6
Note_On_61_Vel_49
Time_Shift_8
Note_On_58_Vel_41
Time_Shift_52
Sustain_Off
Time_Shift_85
Sustain_On
Time_Shift_645
Note_On_72_Vel_59
Time_Shift_26
Note_On_68_Vel_42
Time_Shift_4
Note_On_56_Vel_35
Note_On_60_Vel_34
Time_Shift_3
Note_On_53_Vel_42
Time_Shift_39
Note_On_61_Vel_0
Note_On_52_Vel_0
Time_Shift_1
Note_On_67_Vel_0
Note_On_58_Vel_0
Note_On_70_Vel_0
Time_Shift_2
Sustain_Off
Time_Shift_10
Note_On_40_Vel_0
Time_Shift_8
Note_On_73_Vel_0
Time_Shift_146
Sustain_On
Time_Shift_599
Note_On_68_Vel_0
Time_Shift_7
Note_On_60_Vel_0
Time_Shift_2
Note_On_68_Vel_46
Time_Shift_1
Note_On_51_Vel_54
Time_Shift_3
Note_On_63_Vel_41
Time_Shift_6
Note_On_60_Vel_23
Time_Shift_53
Note_On_56_Vel_0
Note_On_53_Vel_0
Time_Shift_1
Note_On_72_Vel_0
Time_Shift_8
Sustain_Off
Time_Shift_65
Sustain_On
Time_Shift_488
Note_On_49_Vel_53
Time_Shift_189
Note_On_75_Vel_69
Time_Shift_20
Note_On_48_Vel_54
Time_Shift_53
Note_On_51_Vel_0
Time_Shift_1
Note_On_49_Vel_0
Note_On_68_Vel_0
Time_Shift_1
Sustain_Off
Time_Shift_1
Note_On_63_Vel_0
Time_Shift_38
Note_On_60_Vel_0
Time_Shift_100
Sustain_On
Time_Shift_560
Note_On_68_Vel_48
Time_Shift_26
Note_On_63_Vel_44
Time_Shift_341
Note_On_46_Vel_58
Time_Shift_391
Note_On_44_Vel_53
Time_Shift_12
Note_On_72_Vel_58
Time_Shift_40
Note_On_48_Vel_0
Time_Shift_1
Sustain_Off
Note_On_63_Vel_0
Time_Shift_1
Note_On_75_Vel_0
Note_On_46_Vel_0
Time_Shift_125
Sustain_On
Time_Shift_403
Note_On_43_Vel_54
Time_Shift_132
Note_On_41_Vel_54
Time_Shift_33
Note_On_68_Vel_0
Time_Shift_1
Note_On_43_Vel_0
Time_Shift_2
Note_On_65_Vel_45
Note_On_44_Vel_0
Time_Shift_3
Note_On_68_Vel_46
Time_Shift_4
Sustain_Off
Time_Shift_129
Sustain_On
Time_Shift_441
Note_On_39_Vel_52
Time_Shift_139
Note_On_70_Vel_54
Time_Shift_1
Note_On_37_Vel_57
Time_Shift_17
Sustain_Off
Time_Shift_9
Note_On_39_Vel_0
Note_On_65_Vel_0
Time_Shift_2
Note_On_41_Vel_0
Note_On_68_Vel_0
Time_Shift_5
Note_On_72_Vel_0
Time_Shift_123
Sustain_On
Time_Shift_637
Note_On_70_Vel_0
Time_Shift_5
Note_On_70_Vel_62
Time_Shift_15
Note_On_68_Vel_51
Time_Shift_1
Note_On_61_Vel_46
Time_Shift_5
Note_On_65_Vel_45
Time_Shift_41
Sustain_Off
Time_Shift_56
Sustain_On
Time_Shift_478
Note_On_72_Vel_64
Time_Shift_161
Note_On_73_Vel_66
Time_Shift_26
Note_On_49_Vel_49
Time_Shift_2
Sustain_Off
Time_Shift_3
Note_On_61_Vel_0
Time_Shift_1
Note_On_37_Vel_0
Note_On_65_Vel_0
Note_On_68_Vel_0
Time_Shift_1
Note_On_72_Vel_0
Time_Shift_19
Note_On_70_Vel_0
Time_Shift_93
Sustain_On
Time_Shift_626
Note_On_64_Vel_54
Time_Shift_7
Note_On_61_Vel_47
Time_Shift_1
Note_On_68_Vel_50
Time_Shift_29
Note_On_58_Vel_36
Time_Shift_731
Note_On_70_Vel_55
Time_Shift_3
Note_On_73_Vel_0
Time_Shift_8
Note_On_73_Vel_40
Time_Shift_5
Note_On_39_Vel_39
Time_Shift_8
Note_On_51_Vel_31
Time_Shift_24
Sustain_Off
Time_Shift_4
Note_On_64_Vel_0
Note_On_58_Vel_0
Time_Shift_1
Note_On_68_Vel_0
Note_On_49_Vel_0
Time_Shift_20
Note_On_61_Vel_0
Time_Shift_76
Sustain_On
Time_Shift_8
Note_On_73_Vel_0
Time_Shift_568
Note_On_70_Vel_0
Time_Shift_8
Note_On_70_Vel_66
Time_Shift_15
Note_On_51_Vel_0
Time_Shift_5
Note_On_63_Vel_41
Time_Shift_2
Note_On_51_Vel_48
Time_Shift_1
Note_On_39_Vel_0
Time_Shift_5
Note_On_39_Vel_37
Time_Shift_1
Note_On_58_Vel_33
Time_Shift_9
Note_On_58_Vel_0
Time_Shift_579
Note_On_72_Vel_71
Time_Shift_166
Note_On_39_Vel_0
Time_Shift_11
Note_On_39_Vel_48
Time_Shift_3
Note_On_73_Vel_76
Time_Shift_45
Sustain_Off
Time_Shift_95
Sustain_On
Time_Shift_226
Note_On_75_Vel_83
Time_Shift_417
Note_On_77_Vel_78
Time_Shift_10
Note_On_63_Vel_0
Note_On_73_Vel_0
Time_Shift_6
Note_On_63_Vel_51
Time_Shift_1
Note_On_51_Vel_0
Time_Shift_3
Note_On_73_Vel_56
Time_Shift_2
Note_On_67_Vel_50
Note_On_51_Vel_52
Time_Shift_38
Note_On_72_Vel_0
Time_Shift_1
Note_On_75_Vel_0
Time_Shift_2
Sustain_Off
Time_Shift_16
Note_On_70_Vel_0
Time_Shift_31
Note_On_39_Vel_0
Time_Shift_53
Note_On_63_Vel_0
Time_Shift_8
Sustain_On
Time_Shift_251
Note_On_79_Vel_82
Time_Shift_419
Note_On_80_Vel_75
Time_Shift_10
Note_On_63_Vel_43
Time_Shift_7
Note_On_56_Vel_40
Time_Shift_5
Note_On_72_Vel_51
Time_Shift_2
Note_On_68_Vel_41
Time_Shift_14
Sustain_Off
Time_Shift_1
Note_On_67_Vel_0
Note_On_77_Vel_0
Time_Shift_1
Note_On_79_Vel_0
Time_Shift_12
Note_On_73_Vel_0
Time_Shift_8
Note_On_51_Vel_0
Time_Shift_107
Sustain_On
Time_Shift_653
Note_On_56_Vel_0
Time_Shift_11
Note_On_56_Vel_65
Time_Shift_10
Note_On_44_Vel_55
Time_Shift_45
Sustain_Off
Time_Shift_172
Sustain_On
Time_Shift_644
Note_On_49_Vel_63
Time_Shift_4
Note_On_37_Vel_50
Time_Shift_66
Sustain_Off
Note_On_44_Vel_0
Time_Shift_16
Note_On_63_Vel_0
Time_Shift_146
Sustain_On
Time_Shift_7
Note_On_68_Vel_0
Time_Shift_619
Note_On_48_Vel_50
Time_Shift_7
Note_On_36_Vel_38
Time_Shift_12
Sustain_Off
Note_On_37_Vel_0
Time_Shift_1
Note_On_49_Vel_0
Time_Shift_145
Sustain_On
Time_Shift_15
Note_On_56_Vel_0
Time_Shift_154
Note_On_80_Vel_0
Time_Shift_553
Note_On_72_Vel_0
Time_Shift_16
Note_On_32_Vel_37
Time_Shift_3
Note_On_75_Vel_64
Time_Shift_3
Note_On_44_Vel_35
Time_Shift_62
Note_On_36_Vel_0
Time_Shift_7
Sustain_Off
Time_Shift_4
Note_On_48_Vel_0
Time_Shift_89
Sustain_On
Time_Shift_603
Note_On_63_Vel_47
Time_Shift_3
Note_On_60_Vel_41
Time_Shift_3
Note_On_68_Vel_54
Time_Shift_2
Note_On_72_Vel_44
Time_Shift_15
Note_On_51_Vel_43
Time_Shift_733
Note_On_44_Vel_0
Note_On_72_Vel_0
Time_Shift_6
Note_On_72_Vel_61
Time_Shift_6
Note_On_44_Vel_53
Time_Shift_4
Note_On_32_Vel_0
Time_Shift_3
Note_On_32_Vel_42
Time_Shift_12
Note_On_63_Vel_0
Time_Shift_8
Note_On_63_Vel_27
Sustain_Off
Time_Shift_19
Note_On_75_Vel_0
Time_Shift_80
Sustain_On
Time_Shift_599
Note_On_60_Vel_0
Note_On_68_Vel_0
Time_Shift_4
Note_On_60_Vel_48
Time_Shift_8
Note_On_68_Vel_43
Time_Shift_4
Note_On_51_Vel_0
Note_On_63_Vel_0
Note_On_56_Vel_37
Time_Shift_4
Note_On_63_Vel_39
Time_Shift_1
Note_On_51_Vel_43
Time_Shift_710
Note_On_70_Vel_53
Time_Shift_10
Note_On_37_Vel_48
Time_Shift_10
Note_On_61_Vel_25
Time_Shift_20
Note_On_72_Vel_0
Note_On_60_Vel_0
Sustain_Off
Time_Shift_1
Note_On_51_Vel_0
Note_On_44_Vel_0
Time_Shift_1
Note_On_56_Vel_0
Time_Shift_3
Note_On_32_Vel_0
Time_Shift_8
Note_On_63_Vel_0
Time_Shift_54
Note_On_68_Vel_0
Time_Shift_30
Sustain_On
Time_Shift_592
Note_On_70_Vel_0
Time_Shift_5
Note_On_70_Vel_55
Time_Shift_1
Note_On_68_Vel_53
Time_Shift_1
Note_On_61_Vel_0
Time_Shift_4
Note_On_64_Vel_49
Time_Shift_7
Note_On_61_Vel_37
Time_Shift_9
Note_On_56_Vel_39
Time_Shift_2
Note_On_58_Vel_40
Time_Shift_550
Note_On_72_Vel_59
Time_Shift_153
Note_On_73_Vel_59
Time_Shift_18
Note_On_49_Vel_57
Time_Shift_28
Note_On_58_Vel_0
Note_On_64_Vel_0
Sustain_Off
Note_On_61_Vel_0
Note_On_68_Vel_0
Time_Shift_1
Note_On_37_Vel_0
Note_On_70_Vel_0
Note_On_56_Vel_0
Time_Shift_1
Note_On_72_Vel_0
Time_Shift_88
Sustain_On
Time_Shift_595
Note_On_68_Vel_53
Time_Shift_14
Note_On_61_Vel_47
Time_Shift_2
Note_On_64_Vel_52
Time_Shift_21
Note_On_58_Vel_35
Time_Shift_4
Note_On_56_Vel_35
Time_Shift_704
Note_On_70_Vel_59
Time_Shift_24
Note_On_39_Vel_45
Time_Shift_50
Note_On_58_Vel_0
Time_Shift_1
Note_On_68_Vel_0
Note_On_73_Vel_0
Note_On_61_Vel_0
Note_On_56_Vel_0
Time_Shift_1
Note_On_64_Vel_0
Note_On_49_Vel_0
Time_Shift_7
Sustain_Off
Time_Shift_105
Sustain_On
Time_Shift_530
Note_On_70_Vel_0
Time_Shift_11
Note_On_61_Vel_46
Note_On_70_Vel_54
Time_Shift_1
Note_On_67_Vel_49
Time_Shift_21
Note_On_51_Vel_34
Time_Shift_9
Note_On_58_Vel_37
Time_Shift_341
Note_On_72_Vel_73
Time_Shift_339
Note_On_39_Vel_0
Time_Shift_10
Note_On_39_Vel_49
Time_Shift_2
Note_On_73_Vel_75
Time_Shift_349
Note_On_75_Vel_77
Time_Shift_370
Note_On_77_Vel_76
Time_Shift_14
Note_On_61_Vel_0
Note_On_67_Vel_0
Time_Shift_4
Note_On_61_Vel_47
Note_On_67_Vel_55
Time_Shift_3
Note_On_51_Vel_0
Time_Shift_8
Note_On_58_Vel_0
Time_Shift_1
Note_On_51_Vel_46
Time_Shift_7
Note_On_58_Vel_46
Time_Shift_13
Note_On_72_Vel_0
Time_Shift_5
Note_On_75_Vel_0
Time_Shift_1
Note_On_73_Vel_0
Time_Shift_19
Note_On_70_Vel_0
Time_Shift_13
Sustain_Off
Time_Shift_49
Sustain_On
Time_Shift_222
Note_On_75_Vel_77
Time_Shift_367
Note_On_73_Vel_68
Note_On_40_Vel_47
Time_Shift_57
Note_On_77_Vel_0
Time_Shift_1
Sustain_Off
Time_Shift_1
Note_On_75_Vel_0
Time_Shift_12
Note_On_39_Vel_0
Time_Shift_8
Note_On_51_Vel_0
Note_On_61_Vel_0
Time_Shift_84
Sustain_On
Time_Shift_292
Note_On_58_Vel_0
Time_Shift_189
Note_On_52_Vel_57
Time_Shift_100
Note_On_70_Vel_52
Time_Shift_3
Note_On_67_Vel_0
Time_Shift_10
Note_On_67_Vel_41
Time_Shift_54
Note_On_61_Vel_46
Note_On_58_Vel_47
Time_Shift_22
Sustain_Off
Time_Shift_29
Sustain_On
Time_Shift_680
Note_On_72_Vel_63
Time_Shift_1
Note_On_53_Vel_57
Time_Shift_22
Note_On_56_Vel_47
Note_On_68_Vel_51
Time_Shift_4
Note_On_65_Vel_41
Time_Shift_5
Note_On_60_Vel_35
Time_Shift_53
Note_On_52_Vel_0
Time_Shift_1
Note_On_58_Vel_0
Time_Shift_1
Note_On_67_Vel_0
Note_On_70_Vel_0
Time_Shift_2
Note_On_61_Vel_0
Time_Shift_4
Sustain_Off
Time_Shift_3
Note_On_40_Vel_0
Time_Shift_7
Note_On_73_Vel_0
Time_Shift_123
Sustain_On
Time_Shift_608
Note_On_51_Vel_60
Time_Shift_10
Note_On_63_Vel_47
Time_Shift_12
Note_On_68_Vel_0
Time_Shift_6
Note_On_68_Vel_44
Time_Shift_86
Note_On_65_Vel_0
Time_Shift_4
Note_On_56_Vel_0
Time_Shift_1
Note_On_53_Vel_0
Time_Shift_7
Sustain_Off
Time_Shift_88
Sustain_On
Time_Shift_15
Note_On_60_Vel_0
Time_Shift_455
Note_On_49_Vel_66
Time_Shift_166
Note_On_75_Vel_69
Time_Shift_2
Note_On_48_Vel_65
Time_Shift_72
Note_On_49_Vel_0
Note_On_72_Vel_0
Note_On_51_Vel_0
Time_Shift_1
Note_On_63_Vel_0
Time_Shift_7
Sustain_Off
Time_Shift_135
Sustain_On
Time_Shift_537
Note_On_68_Vel_0
Time_Shift_6
Note_On_80_Vel_55
Time_Shift_4
Note_On_68_Vel_59
Time_Shift_5
Note_On_63_Vel_54
Note_On_80_Vel_0
Time_Shift_339
Note_On_46_Vel_73
Time_Shift_368
Note_On_44_Vel_65
Time_Shift_17
Note_On_72_Vel_71
Time_Shift_41
Sustain_Off
Time_Shift_7
Note_On_68_Vel_0
Time_Shift_1
Note_On_48_Vel_0
Note_On_63_Vel_0
Note_On_46_Vel_0
Time_Shift_2
Note_On_75_Vel_0
Time_Shift_109
Sustain_On
Time_Shift_185
Note_On_43_Vel_73
Time_Shift_357
Note_On_41_Vel_68
Note_On_68_Vel_61
Time_Shift_2
Note_On_56_Vel_52
Time_Shift_4
Note_On_65_Vel_49
Time_Shift_35
Note_On_44_Vel_0
Time_Shift_13
Note_On_43_Vel_0
Time_Shift_6
Sustain_Off
Time_Shift_120
Sustain_On
Time_Shift_174
Note_On_39_Vel_65
Time_Shift_13
Note_On_41_Vel_0
Time_Shift_16
Sustain_Off
Time_Shift_50
Sustain_On
Time_Shift_277
Note_On_56_Vel_0
Time_Shift_32
Note_On_37_Vel_59
Time_Shift_2
Note_On_70_Vel_66
Time_Shift_69
Note_On_68_Vel_0
Note_On_39_Vel_0
Sustain_Off
Time_Shift_1
Note_On_65_Vel_0
Time_Shift_18
Note_On_72_Vel_0
Time_Shift_116
Sustain_On
Time_Shift_560
Note_On_70_Vel_0
Time_Shift_5
Note_On_70_Vel_70
Time_Shift_1
Note_On_61_Vel_55
Time_Shift_24
Note_On_65_Vel_44
Note_On_68_Vel_49
Time_Shift_8
Note_On_58_Vel_46
Time_Shift_570
Note_On_72_Vel_81
Time_Shift_169
Note_On_73_Vel_78
Time_Shift_17
Note_On_49_Vel_58
Time_Shift_2
Note_On_61_Vel_0
Note_On_58_Vel_0
Note_On_65_Vel_0
Note_On_68_Vel_0
Note_On_37_Vel_0
Time_Shift_1
Sustain_Off
Time_Shift_1
Note_On_72_Vel_0
Time_Shift_16
Note_On_70_Vel_0
Time_Shift_116
Sustain_On
Time_Shift_557
Note_On_64_Vel_62
Time_Shift_4
Note_On_68_Vel_61
Time_Shift_5
Note_On_61_Vel_49
Time_Shift_10
Note_On_58_Vel_46
Time_Shift_693
Note_On_39_Vel_58
Time_Shift_3
Note_On_70_Vel_73
Time_Shift_37
Note_On_58_Vel_0
Note_On_61_Vel_0
Note_On_64_Vel_0
Time_Shift_2
Note_On_68_Vel_0
Note_On_73_Vel_0
Sustain_Off
Time_Shift_9
Note_On_49_Vel_0
Time_Shift_131
Sustain_On
Time_Shift_545
Note_On_70_Vel_0
Time_Shift_4
Note_On_70_Vel_70
Time_Shift_14
Note_On_63_Vel_54
Note_On_68_Vel_66
Time_Shift_16
Note_On_58_Vel_50
Time_Shift_2
Note_On_51_Vel_43
Time_Shift_356
Note_On_72_Vel_82
Time_Shift_346
Note_On_39_Vel_0
Time_Shift_9
Note_On_27_Vel_58
Time_Shift_1
Note_On_85_Vel_74
Note_On_73_Vel_85
Time_Shift_1
Note_On_39_Vel_53
Time_Shift_1
Sustain_Off
Time_Shift_3
Note_On_27_Vel_0
Note_On_85_Vel_0
Time_Shift_50
Note_On_72_Vel_0
Time_Shift_1
Note_On_68_Vel_0
Time_Shift_2
Note_On_70_Vel_0
Time_Shift_1
Sustain_On
Time_Shift_331
Note_On_75_Vel_93
Time_Shift_1
Note_On_87_Vel_76
Time_Shift_6
Note_On_87_Vel_0
Time_Shift_350
Note_On_77_Vel_87
Time_Shift_2
Note_On_67_Vel_62
Time_Shift_1
Note_On_73_Vel_0
Time_Shift_8
Note_On_51_Vel_0
Note_On_58_Vel_0
Note_On_63_Vel_0
Time_Shift_2
Note_On_73_Vel_68
Time_Shift_2
Note_On_63_Vel_53
Time_Shift_3
Note_On_39_Vel_0
Time_Shift_1
Note_On_51_Vel_55
Time_Shift_3
Note_On_58_Vel_53
Time_Shift_1
Note_On_39_Vel_53
Time_Shift_34
Sustain_Off
Time_Shift_1
Note_On_75_Vel_0
Time_Shift_68
Sustain_On
Time_Shift_77
Note_On_63_Vel_0
Time_Shift_38
Note_On_39_Vel_0
Time_Shift_143
Note_On_79_Vel_95
Time_Shift_349
Note_On_58_Vel_0
Time_Shift_42
Note_On_80_Vel_89
Time_Shift_7
Note_On_63_Vel_55
Time_Shift_5
Note_On_72_Vel_71
Time_Shift_2
Note_On_56_Vel_57
Time_Shift_1
Note_On_68_Vel_58
Time_Shift_31
Sustain_Off
Note_On_67_Vel_0
Time_Shift_2
Note_On_79_Vel_0
Note_On_77_Vel_0
Time_Shift_9
Note_On_73_Vel_0
Time_Shift_93
Sustain_On
Time_Shift_368
Note_On_68_Vel_0
Time_Shift_315
Note_On_72_Vel_0
Time_Shift_5
Note_On_84_Vel_94
Time_Shift_2
Note_On_72_Vel_81
Time_Shift_62
Note_On_51_Vel_0
Time_Shift_4
Sustain_Off
Time_Shift_4
Note_On_80_Vel_0
Time_Shift_1
Note_On_63_Vel_0
Time_Shift_1
Note_On_56_Vel_0
Time_Shift_136
Sustain_On
Time_Shift_207
Note_On_72_Vel_0
Time_Shift_162
Note_On_84_Vel_0
Time_Shift_4
Note_On_84_Vel_93
Time_Shift_7
Note_On_72_Vel_77
Time_Shift_158
Note_On_72_Vel_0
Note_On_84_Vel_0
Time_Shift_8
Note_On_84_Vel_96
Time_Shift_1
Note_On_72_Vel_81
Time_Shift_34
Sustain_Off
Time_Shift_64
Sustain_On
Time_Shift_281
Note_On_80_Vel_93
Time_Shift_5
Note_On_68_Vel_74
Time_Shift_47
Sustain_Off
Time_Shift_44
Note_On_72_Vel_0
Time_Shift_23
Sustain_On
Time_Shift_248
Note_On_79_Vel_90
Time_Shift_2
Note_On_67_Vel_73
Time_Shift_38
Sustain_Off
Time_Shift_5
Note_On_68_Vel_0
Time_Shift_2
Note_On_80_Vel_0
Time_Shift_4
Note_On_84_Vel_0
Time_Shift_92
Sustain_On
Time_Shift_101
Note_On_67_Vel_0
Time_Shift_143
Note_On_78_Vel_82
Time_Shift_1
Note_On_66_Vel_73
Time_Shift_26
Note_On_79_Vel_0
Time_Shift_9
Sustain_Off
Time_Shift_89
Sustain_On
Time_Shift_348
Note_On_77_Vel_88
Time_Shift_3
Note_On_65_Vel_61
Time_Shift_23
Sustain_Off
Time_Shift_36
Note_On_66_Vel_0
Time_Shift_1
Note_On_78_Vel_0
Time_Shift_173
Sustain_On
Time_Shift_566
Note_On_70_Vel_68
Time_Shift_6
Note_On_67_Vel_56
Time_Shift_4
Note_On_55_Vel_61
Note_On_61_Vel_68
Time_Shift_82
Sustain_Off
Time_Shift_148
Sustain_On
Time_Shift_77
Note_On_65_Vel_0
Time_Shift_547
Note_On_60_Vel_56
Time_Shift_11
Note_On_72_Vel_57
Time_Shift_4
Note_On_56_Vel_54
Time_Shift_30
Sustain_Off
Time_Shift_5
Note_On_61_Vel_0
Time_Shift_1
Note_On_70_Vel_0
Note_On_55_Vel_0
Time_Shift_131
Sustain_On
Time_Shift_93
Note_On_67_Vel_0
Time_Shift_408
Note_On_75_Vel_68
Time_Shift_4
Note_On_63_Vel_59
Time_Shift_152
Note_On_74_Vel_75
Time_Shift_1
Note_On_62_Vel_57
Time_Shift_87
Note_On_77_Vel_0
Time_Shift_31
Note_On_60_Vel_0
Time_Shift_4
Sustain_Off
Time_Shift_2
Note_On_72_Vel_0
Time_Shift_3
Note_On_75_Vel_0
Time_Shift_1
Note_On_63_Vel_0
Note_On_56_Vel_0
Time_Shift_113
Sustain_On
Time_Shift_420
Note_On_75_Vel_88
Time_Shift_7
Note_On_63_Vel_76
Time_Shift_153
Note_On_73_Vel_92
Time_Shift_1
Note_On_61_Vel_78
Time_Shift_41
Note_On_74_Vel_0
Time_Shift_8
Sustain_Off
Time_Shift_1
Note_On_63_Vel_0
Note_On_75_Vel_0
Time_Shift_6
Note_On_62_Vel_0
Time_Shift_85
Sustain_On
Time_Shift_622
Note_On_61_Vel_0
Time_Shift_8
Note_On_52_Vel_65
Time_Shift_2
Note_On_61_Vel_56
Time_Shift_1
Note_On_67_Vel_71
Time_Shift_16
Note_On_58_Vel_56
Time_Shift_77
Note_On_73_Vel_0
Time_Shift_5
Sustain_Off
Time_Shift_114
Sustain_On
Time_Shift_667
Note_On_68_Vel_68
Time_Shift_6
Note_On_56_Vel_63
Time_Shift_3
Note_On_65_Vel_55
Time_Shift_2
Note_On_53_Vel_60
Time_Shift_46
Note_On_52_Vel_0
Time_Shift_1
Note_On_67_Vel_0
Sustain_Off
Note_On_58_Vel_0
Time_Shift_96
Sustain_On
Time_Shift_46
Note_On_61_Vel_0
Time_Shift_274
Note_On_72_Vel_80
Time_Shift_1
Note_On_60_Vel_70
Time_Shift_82
Note_On_56_Vel_0
Note_On_53_Vel_0
Note_On_68_Vel_0
Time_Shift_1
Note_On_65_Vel_0
Time_Shift_3
Sustain_Off
Time_Shift_332
Note_On_71_Vel_73
Time_Shift_22
Note_On_59_Vel_69
Time_Shift_4
Note_On_72_Vel_0
Time_Shift_2
Note_On_60_Vel_0
Time_Shift_363
Note_On_72_Vel_78
Note_On_60_Vel_62
Time_Shift_34
Note_On_71_Vel_0
Note_On_59_Vel_0
Time_Shift_88
Sustain_On
Time_Shift_366
Note_On_77_Vel_88
Time_Shift_5
Note_On_65_Vel_63
Time_Shift_63
Note_On_72_Vel_0
Time_Shift_1
Note_On_60_Vel_0
Time_Shift_14
Sustain_Off
Time_Shift_335
Sustain_On
Time_Shift_416
Note_On_70_Vel_68
Time_Shift_1
Note_On_82_Vel_59
Time_Shift_5
Note_On_82_Vel_0
Time_Shift_20
Note_On_55_Vel_42
Time_Shift_4
Note_On_67_Vel_44
Time_Shift_2
Note_On_61_Vel_51
Time_Shift_51
Sustain_Off
Time_Shift_84
Sustain_On
Time_Shift_523
Note_On_65_Vel_0
Time_Shift_213
Note_On_72_Vel_63
Time_Shift_2
Note_On_56_Vel_43
Time_Shift_4
Note_On_60_Vel_44
Time_Shift_7
Note_On_68_Vel_46
Time_Shift_17
Sustain_Off
Time_Shift_10
Note_On_61_Vel_0
Time_Shift_2
Note_On_55_Vel_0
Note_On_70_Vel_0
Time_Shift_105
Note_On_67_Vel_0
Time_Shift_8
Sustain_On
Time_Shift_273
Note_On_75_Vel_83
Time_Shift_6
Note_On_63_Vel_58
Time_Shift_38
Sustain_Off
Time_Shift_59
Sustain_On
Time_Shift_384
Note_On_77_Vel_0
Time_Shift_12
Note_On_77_Vel_76
Time_Shift_1
Note_On_65_Vel_58
Time_Shift_39
Note_On_56_Vel_0
Note_On_72_Vel_0
Sustain_Off
Note_On_63_Vel_0
Time_Shift_1
Note_On_75_Vel_0
Time_Shift_1
Note_On_60_Vel_0
Note_On_68_Vel_0
Time_Shift_138
Sustain_On
Time_Shift_496
Note_On_72_Vel_70
Time_Shift_7
Note_On_60_Vel_60
Time_Shift_116
Note_On_60_Vel_0
Note_On_77_Vel_0
Note_On_72_Vel_0
Time_Shift_9
Sustain_Off
Time_Shift_20
Note_On_73_Vel_70
Time_Shift_5
Note_On_65_Vel_0
Time_Shift_10
Note_On_61_Vel_60
Time_Shift_167
Sustain_On
Time_Shift_588
Note_On_67_Vel_61
Time_Shift_14
Note_On_52_Vel_54
Time_Shift_24
Note_On_58_Vel_41
Time_Shift_8
Sustain_Off
Time_Shift_19
Note_On_73_Vel_0
Time_Shift_107
Sustain_On
Time_Shift_650
Note_On_68_Vel_58
Time_Shift_3
Note_On_56_Vel_54
Time_Shift_4
Note_On_65_Vel_43
Time_Shift_5
Note_On_67_Vel_0
Time_Shift_3
Note_On_52_Vel_0
Note_On_61_Vel_0
Note_On_58_Vel_0
Time_Shift_2
Note_On_53_Vel_46
Sustain_Off
Time_Shift_109
Sustain_On
Time_Shift_328
Note_On_72_Vel_76
Time_Shift_6
Note_On_60_Vel_66
Time_Shift_24
Sustain_Off
Time_Shift_103
Sustain_On
Time_Shift_334
Note_On_61_Vel_72
Time_Shift_1
Note_On_73_Vel_66
Time_Shift_36
Note_On_72_Vel_0
Time_Shift_1
Note_On_68_Vel_0
Note_On_60_Vel_0
Time_Shift_1
Note_On_56_Vel_0
Note_On_53_Vel_0
Time_Shift_14
Sustain_Off
Time_Shift_12
Note_On_65_Vel_0
Time_Shift_131
Sustain_On
Time_Shift_543
Note_On_68_Vel_60
Time_Shift_7
Note_On_56_Vel_63
Time_Shift_187
Note_On_72_Vel_69
Time_Shift_3
Note_On_60_Vel_72
Time_Shift_40
Note_On_56_Vel_0
Time_Shift_1
Note_On_61_Vel_0
Time_Shift_1
Sustain_Off
Time_Shift_2
Note_On_68_Vel_0
Time_Shift_14
Note_On_73_Vel_0
Time_Shift_116
Sustain_On
Time_Shift_291
Note_On_72_Vel_0
Time_Shift_325
Note_On_64_Vel_56
Time_Shift_1
Note_On_48_Vel_54
Time_Shift_1
Note_On_55_Vel_43
Time_Shift_11
Note_On_60_Vel_0
Time_Shift_11
Note_On_60_Vel_38
Time_Shift_33
Sustain_Off
Time_Shift_102
Sustain_On
Time_Shift_645
Note_On_65_Vel_55
Time_Shift_17
Note_On_49_Vel_55
Time_Shift_2
Note_On_53_Vel_45
Time_Shift_6
Note_On_61_Vel_46
Time_Shift_9
Sustain_Off
Time_Shift_2
Note_On_64_Vel_0
Time_Shift_1
Note_On_60_Vel_0
Note_On_55_Vel_0
Time_Shift_4
Note_On_48_Vel_0
Time_Shift_67
Sustain_On
Time_Shift_351
Note_On_72_Vel_65
Time_Shift_3
Note_On_60_Vel_60
Time_Shift_322
Note_On_61_Vel_0
Time_Shift_107
Note_On_70_Vel_62
Time_Shift_17
Note_On_58_Vel_55
Time_Shift_648
Note_On_68_Vel_57
Time_Shift_1
Note_On_56_Vel_52
Time_Shift_166
Note_On_55_Vel_56
Note_On_67_Vel_61
Time_Shift_13
Note_On_65_Vel_0
Time_Shift_5
Note_On_49_Vel_0
Note_On_58_Vel_0
Note_On_72_Vel_0
Time_Shift_1
Note_On_60_Vel_0
Note_On_53_Vel_0
Time_Shift_1
Note_On_68_Vel_0
Note_On_70_Vel_0
Time_Shift_1
Note_On_56_Vel_0
Time_Shift_12
Sustain_Off
Time_Shift_134
Sustain_On
Time_Shift_639
Note_On_64_Vel_52
Time_Shift_8
Note_On_48_Vel_49
Time_Shift_26
Sustain_Off
Time_Shift_110
Sustain_On
Time_Shift_658
Note_On_65_Vel_45
Time_Shift_6
Note_On_49_Vel_47
Time_Shift_9
Sustain_Off
Time_Shift_1
Note_On_48_Vel_0
Time_Shift_2
Note_On_55_Vel_0
Time_Shift_1
Note_On_64_Vel_0
Time_Shift_22
Note_On_67_Vel_0
Time_Shift_77
Sustain_On
Time_Shift_284
Note_On_72_Vel_60
Time_Shift_20
Note_On_60_Vel_48
Time_Shift_414
Note_On_70_Vel_54
Time_Shift_7
Note_On_58_Vel_52
Time_Shift_22
Note_On_60_Vel_0
Time_Shift_16
Sustain_Off
Time_Shift_35
Note_On_65_Vel_0
Time_Shift_54
Sustain_On
Time_Shift_77
Note_On_72_Vel_0
Time_Shift_428
Note_On_80_Vel_51
Time_Shift_4
Note_On_68_Vel_56
Time_Shift_6
Note_On_80_Vel_0
Time_Shift_21
Note_On_56_Vel_40
Time_Shift_142
Note_On_58_Vel_0
Time_Shift_1
Note_On_70_Vel_0
Note_On_68_Vel_0
Note_On_56_Vel_0
Time_Shift_4
Note_On_55_Vel_50
Time_Shift_3
Sustain_Off
Time_Shift_1
Note_On_67_Vel_50
Time_Shift_150
Sustain_On
Time_Shift_660
Note_On_48_Vel_47
Time_Shift_5
Note_On_64_Vel_42
Time_Shift_22
Note_On_60_Vel_31
Time_Shift_22
Sustain_Off
Time_Shift_1
Note_On_55_Vel_0
Time_Shift_12
Note_On_49_Vel_0
Note_On_67_Vel_0
Time_Shift_131
Sustain_On
Time_Shift_606
Note_On_49_Vel_56
Note_On_61_Vel_51
Time_Shift_59
Note_On_64_Vel_0
Time_Shift_1
Note_On_48_Vel_0
Time_Shift_2
Note_On_60_Vel_0
Time_Shift_2
Sustain_Off
Time_Shift_136
Sustain_On
Time_Shift_200
Note_On_60_Vel_64
Time_Shift_4
Note_On_48_Vel_62
Time_Shift_46
Sustain_Off
Time_Shift_1
Note_On_49_Vel_0
Time_Shift_10
Note_On_61_Vel_0
Time_Shift_85
Sustain_On
Time_Shift_225
Note_On_43_Vel_55
Time_Shift_15
Note_On_55_Vel_43
Time_Shift_1
Sustain_Off
Time_Shift_7
Note_On_48_Vel_0
Time_Shift_2
Note_On_60_Vel_0
Time_Shift_157
Sustain_On
Time_Shift_203
Note_On_44_Vel_56
Time_Shift_5
Sustain_Off
Time_Shift_3
Note_On_56_Vel_48
Time_Shift_1
Note_On_55_Vel_0
Note_On_43_Vel_0
Time_Shift_103
Sustain_On
Time_Shift_304
Sustain_Off
Time_Shift_3
Note_On_56_Vel_0
Time_Shift_1
Note_On_44_Vel_0
Time_Shift_6
Note_On_46_Vel_53
Time_Shift_2
Note_On_58_Vel_44
Time_Shift_129
Sustain_On
Time_Shift_281
Note_On_44_Vel_55
Time_Shift_3
Note_On_56_Vel_54
Time_Shift_35
Sustain_Off
Time_Shift_11
Note_On_46_Vel_0
Time_Shift_31
Note_On_58_Vel_0
Time_Shift_31
Sustain_On
Time_Shift_275
Note_On_56_Vel_0
Time_Shift_1
Note_On_44_Vel_0
Time_Shift_4
Sustain_Off
Time_Shift_1
Note_On_52_Vel_52
Time_Shift_6
Note_On_40_Vel_46
Time_Shift_135
Sustain_On
Time_Shift_270
Note_On_29_Vel_43
Time_Shift_2
Note_On_41_Vel_46
Time_Shift_5
Note_On_29_Vel_0
Time_Shift_27
Note_On_53_Vel_42
Time_Shift_66
Sustain_Off
Time_Shift_22
Note_On_52_Vel_0
Time_Shift_31
Note_On_40_Vel_0
Time_Shift_23
Sustain_On
Time_Shift_290
Note_On_51_Vel_49
Time_Shift_10
Note_On_39_Vel_40
Time_Shift_26
Note_On_41_Vel_0
Time_Shift_6
Sustain_Off
Time_Shift_59
Sustain_On
Time_Shift_316
Note_On_49_Vel_50
Time_Shift_3
Note_On_37_Vel_44
Time_Shift_48
Sustain_Off
Time_Shift_28
Note_On_39_Vel_0
Time_Shift_2
Note_On_51_Vel_0
Time_Shift_18
Note_On_53_Vel_0
Time_Shift_61
Sustain_On
Time_Shift_332
Note_On_47_Vel_49
Time_Shift_1
Note_On_35_Vel_41
Time_Shift_45
Note_On_37_Vel_0
Note_On_49_Vel_0
Time_Shift_9
Sustain_Off
Time_Shift_113
Sustain_On
Time_Shift_350
Note_On_48_Vel_57
Time_Shift_22
Note_On_36_Vel_28
Time_Shift_22
Note_On_60_Vel_44
Time_Shift_2
Sustain_Off
Note_On_35_Vel_0
Time_Shift_1
Note_On_47_Vel_0
Time_Shift_133
Sustain_On
Time_Shift_581
Note_On_32_Vel_37
Time_Shift_10
Note_On_36_Vel_0
Note_On_60_Vel_0
Time_Shift_51
Note_On_75_Vel_64
Time_Shift_57
Sustain_Off
Time_Shift_3
Note_On_48_Vel_0
Time_Shift_112
Sustain_On
Time_Shift_542
Note_On_68_Vel_47
Time_Shift_23
Note_On_63_Vel_38
Time_Shift_3
Note_On_60_Vel_25
Time_Shift_3
Note_On_51_Vel_40
Time_Shift_674
Note_On_72_Vel_63
Time_Shift_10
Note_On_44_Vel_36
Time_Shift_718
Note_On_60_Vel_0
Time_Shift_10
Note_On_60_Vel_44
Time_Shift_6
Note_On_51_Vel_0
Time_Shift_7
Note_On_63_Vel_0
Note_On_68_Vel_0
Time_Shift_3
Note_On_51_Vel_36
Time_Shift_2
Note_On_56_Vel_39
Time_Shift_4
Note_On_63_Vel_41
Note_On_68_Vel_41
Time_Shift_741
Note_On_70_Vel_58
Time_Shift_1
Note_On_37_Vel_46
Time_Shift_52
Note_On_72_Vel_0
Time_Shift_1
Note_On_63_Vel_0
Note_On_60_Vel_0
Note_On_51_Vel_0
Time_Shift_1
Note_On_75_Vel_0
Note_On_56_Vel_0
Sustain_Off
Time_Shift_25
Note_On_44_Vel_0
Time_Shift_69
Sustain_On
Time_Shift_591
Note_On_70_Vel_0
Time_Shift_8
Note_On_70_Vel_61
Time_Shift_4
Note_On_64_Vel_46
Time_Shift_11
Note_On_32_Vel_0
Note_On_68_Vel_0
Time_Shift_6
Note_On_68_Vel_50
Time_Shift_3
Note_On_61_Vel_36
Time_Shift_3
Note_On_56_Vel_38
Time_Shift_8
Note_On_58_Vel_36
Time_Shift_576
Note_On_72_Vel_59
Time_Shift_161
Note_On_73_Vel_69
Time_Shift_33
Note_On_49_Vel_53
Time_Shift_30
Note_On_58_Vel_0
Time_Shift_1
Note_On_61_Vel_0
Note_On_68_Vel_0
Time_Shift_1
Note_On_72_Vel_0
Note_On_56_Vel_0
Time_Shift_4
Sustain_Off
Time_Shift_12
Note_On_70_Vel_0
Time_Shift_69
Sustain_On
Time_Shift_15
Note_On_37_Vel_0
Time_Shift_591
Note_On_64_Vel_0
Time_Shift_11
Note_On_64_Vel_46
Time_Shift_4
Note_On_68_Vel_45
Time_Shift_33
Note_On_56_Vel_35
Time_Shift_2
Note_On_61_Vel_21
Time_Shift_733
Note_On_39_Vel_46
Time_Shift_16
Note_On_70_Vel_50
Time_Shift_60
Note_On_68_Vel_0
Note_On_73_Vel_0
Time_Shift_1
Note_On_56_Vel_0
Time_Shift_1
Note_On_64_Vel_0
Time_Shift_1
Note_On_49_Vel_0
Time_Shift_8
Sustain_Off
Time_Shift_60
Sustain_On
Time_Shift_629
Note_On_70_Vel_0
Time_Shift_9
Note_On_70_Vel_61
Time_Shift_7
Note_On_61_Vel_0
Time_Shift_10
Note_On_61_Vel_44
Time_Shift_16
Note_On_67_Vel_43
Time_Shift_2
Note_On_51_Vel_38
Time_Shift_4
Note_On_58_Vel_35
Time_Shift_572
Note_On_72_Vel_62
Time_Shift_164
Note_On_39_Vel_0
Time_Shift_2
Note_On_73_Vel_67
Time_Shift_5
Note_On_67_Vel_0
Time_Shift_3
Note_On_39_Vel_50
Time_Shift_3
Note_On_67_Vel_41
Time_Shift_210
Note_On_58_Vel_0
Time_Shift_390
Note_On_75_Vel_72
Time_Shift_224
Note_On_61_Vel_0
Time_Shift_11
Note_On_61_Vel_53
Note_On_77_Vel_78
Time_Shift_12
Note_On_67_Vel_0
Note_On_70_Vel_0
Time_Shift_8
Note_On_51_Vel_0
Note_On_70_Vel_47
Time_Shift_2
Note_On_67_Vel_52
Time_Shift_1
Note_On_58_Vel_49
Time_Shift_1
Note_On_51_Vel_43
Time_Shift_641
Note_On_75_Vel_0
Time_Shift_6
Note_On_75_Vel_65
Time_Shift_180
Note_On_40_Vel_46
Time_Shift_6
Note_On_73_Vel_0
Time_Shift_6
Note_On_73_Vel_65
Time_Shift_21
Note_On_72_Vel_0
Note_On_75_Vel_0
Note_On_51_Vel_0
Time_Shift_1
Note_On_70_Vel_0
Note_On_77_Vel_0
Time_Shift_6
Sustain_Off
Time_Shift_4
Note_On_58_Vel_0
Time_Shift_8
Note_On_61_Vel_0
Time_Shift_8
Note_On_39_Vel_0
Time_Shift_92
Sustain_On
Time_Shift_470
Note_On_52_Vel_66
Time_Shift_210
Note_On_70_Vel_46
Time_Shift_3
Note_On_67_Vel_0
Time_Shift_5
Note_On_67_Vel_44
Time_Shift_37
Note_On_61_Vel_54
Time_Shift_3
Note_On_58_Vel_47
Time_Shift_44
Sustain_Off
Time_Shift_96
Sustain_On
Time_Shift_558
Note_On_53_Vel_57
Time_Shift_96
Note_On_72_Vel_62
Time_Shift_16
Note_On_56_Vel_47
Time_Shift_2
Note_On_65_Vel_35
Time_Shift_3
Note_On_60_Vel_49
Time_Shift_3
Note_On_68_Vel_45
Time_Shift_43
Note_On_40_Vel_0
Time_Shift_12
Note_On_58_Vel_0
Note_On_67_Vel_0
Note_On_61_Vel_0
Time_Shift_1
Note_On_52_Vel_0
Note_On_70_Vel_0
Time_Shift_3
Sustain_Off
Time_Shift_15
Note_On_73_Vel_0
Time_Shift_115
Sustain_On
Time_Shift_574
Note_On_51_Vel_62
Time_Shift_689
Note_On_49_Vel_59
Time_Shift_177
Note_On_75_Vel_64
Time_Shift_2
Note_On_48_Vel_60
Time_Shift_48
Note_On_72_Vel_0
Time_Shift_1
Note_On_56_Vel_0
Time_Shift_1
Note_On_60_Vel_0
Note_On_53_Vel_0
Time_Shift_2
Note_On_49_Vel_0
Time_Shift_1
Sustain_Off
Time_Shift_3
Note_On_65_Vel_0
Time_Shift_61
Note_On_68_Vel_0
Time_Shift_100
Sustain_On
Time_Shift_595
Note_On_68_Vel_43
Note_On_63_Vel_36
Time_Shift_347
Note_On_46_Vel_63
Time_Shift_420
Note_On_44_Vel_59
Time_Shift_4
Note_On_72_Vel_61
Time_Shift_18
Note_On_65_Vel_33
Time_Shift_6
Note_On_65_Vel_0
Time_Shift_53
Sustain_Off
Time_Shift_4
Note_On_63_Vel_0
Time_Shift_1
Note_On_46_Vel_0
Time_Shift_2
Note_On_48_Vel_0
Time_Shift_1
Note_On_75_Vel_0
Time_Shift_8
Note_On_51_Vel_0
Time_Shift_116
Sustain_On
Time_Shift_396
Note_On_43_Vel_63
Time_Shift_144
Sustain_Off
Note_On_43_Vel_0
Time_Shift_2
Note_On_44_Vel_0
Time_Shift_7
Note_On_41_Vel_55
Time_Shift_4
Note_On_68_Vel_0
Time_Shift_4
Note_On_68_Vel_50
Time_Shift_1
Note_On_65_Vel_44
Time_Shift_102
Sustain_On
Time_Shift_131
Note_On_68_Vel_0
Time_Shift_4
Note_On_68_Vel_31
Time_Shift_395
Note_On_39_Vel_53
Time_Shift_112
Sustain_Off
Time_Shift_3
Note_On_41_Vel_0
Time_Shift_1
Note_On_68_Vel_0
Time_Shift_1
Note_On_39_Vel_0
Time_Shift_6
Note_On_72_Vel_0
Time_Shift_11
Note_On_70_Vel_61
Time_Shift_9
Note_On_37_Vel_52
Time_Shift_9
Note_On_61_Vel_31
Time_Shift_117
Sustain_On
Time_Shift_645
Note_On_70_Vel_0
Time_Shift_10
Note_On_70_Vel_62
Time_Shift_21
Note_On_65_Vel_0
Time_Shift_7
Note_On_61_Vel_0
Time_Shift_3
Note_On_65_Vel_46
Time_Shift_2
Note_On_68_Vel_45
Time_Shift_1
Note_On_61_Vel_40
Time_Shift_16
Sustain_Off
Time_Shift_63
Sustain_On
Time_Shift_528
Note_On_72_Vel_67
Time_Shift_160
Note_On_73_Vel_71
Time_Shift_33
Note_On_49_Vel_47
Time_Shift_4
Sustain_Off
Note_On_61_Vel_0
Note_On_68_Vel_0
Time_Shift_1
Note_On_72_Vel_0
Time_Shift_11
Note_On_70_Vel_0
Time_Shift_15
Note_On_65_Vel_0
Time_Shift_70
Note_On_37_Vel_0
Time_Shift_7
Sustain_On
Time_Shift_641
Note_On_64_Vel_57
Time_Shift_21
Note_On_61_Vel_43
Time_Shift_10
Note_On_68_Vel_38
Time_Shift_9
Note_On_58_Vel_34
Time_Shift_771
Note_On_73_Vel_0
Time_Shift_2
Sustain_Off
Time_Shift_4
Note_On_39_Vel_46
Time_Shift_1
Note_On_70_Vel_53
Time_Shift_2
Note_On_73_Vel_43
Time_Shift_7
Note_On_64_Vel_0
Time_Shift_36
Note_On_61_Vel_0
Note_On_58_Vel_0
Time_Shift_2
Note_On_49_Vel_0
Time_Shift_23
Note_On_68_Vel_0
Time_Shift_76
Sustain_On
Time_Shift_262
Note_On_73_Vel_0
Time_Shift_407
Note_On_70_Vel_0
Time_Shift_8
Note_On_70_Vel_64
Time_Shift_5
Note_On_80_Vel_56
Time_Shift_4
Note_On_68_Vel_62
Time_Shift_2
Note_On_63_Vel_56
Time_Shift_4
Note_On_80_Vel_0
Time_Shift_7
Note_On_39_Vel_0
Time_Shift_1
Note_On_51_Vel_50
Time_Shift_2
Note_On_58_Vel_42
Time_Shift_2
Note_On_39_Vel_36
Time_Shift_614
Note_On_72_Vel_66
Time_Shift_157
Note_On_39_Vel_0
Time_Shift_5
Sustain_Off
Time_Shift_6
Note_On_39_Vel_46
Time_Shift_1
Note_On_73_Vel_75
Time_Shift_3
Note_On_68_Vel_0
Time_Shift_5
Note_On_68_Vel_45
Time_Shift_11
Sustain_On
Time_Shift_353
Note_On_73_Vel_0
Time_Shift_8
Note_On_75_Vel_80
Time_Shift_3
Note_On_73_Vel_62
Time_Shift_396
Note_On_63_Vel_0
Time_Shift_4
Note_On_77_Vel_79
Time_Shift_1
Note_On_63_Vel_53
Time_Shift_3
Note_On_73_Vel_0
Time_Shift_4
Note_On_67_Vel_61
Time_Shift_3
Note_On_51_Vel_0
Note_On_58_Vel_0
Time_Shift_2
Note_On_73_Vel_63
Time_Shift_3
Note_On_51_Vel_52
Time_Shift_6
Note_On_58_Vel_54
Time_Shift_10
Note_On_68_Vel_0
Note_On_75_Vel_0
Time_Shift_3
Note_On_39_Vel_0
Time_Shift_6
Sustain_Off
Time_Shift_9
Note_On_72_Vel_0
Time_Shift_23
Note_On_70_Vel_0
Time_Shift_61
Sustain_On
Time_Shift_262
Note_On_79_Vel_92
Time_Shift_424
Note_On_80_Vel_91
Time_Shift_5
Note_On_63_Vel_0
Time_Shift_12
Note_On_63_Vel_63
Time_Shift_2
Note_On_58_Vel_0
Note_On_72_Vel_71
Note_On_67_Vel_0
Time_Shift_4
Note_On_56_Vel_55
Time_Shift_1
Note_On_79_Vel_0
Note_On_77_Vel_0
Time_Shift_1
Sustain_Off
Note_On_68_Vel_60
Time_Shift_11
Note_On_73_Vel_0
Time_Shift_8
Note_On_51_Vel_0
Time_Shift_77
Sustain_On
Time_Shift_683
Note_On_56_Vel_0
Time_Shift_8
Note_On_56_Vel_75
Time_Shift_6
Note_On_44_Vel_71
Time_Shift_67
Sustain_Off
Time_Shift_42
Sustain_On
Time_Shift_538
Note_On_44_Vel_0
Note_On_56_Vel_0
Time_Shift_10
Note_On_44_Vel_80
Note_On_56_Vel_81
Time_Shift_151
Note_On_56_Vel_0
Time_Shift_5
Note_On_56_Vel_92
Time_Shift_3
Note_On_44_Vel_0
Time_Shift_4
Note_On_44_Vel_88
Time_Shift_54
Sustain_Off
Time_Shift_172
Sustain_On
Time_Shift_664
Note_On_58_Vel_82
Note_On_46_Vel_82
Time_Shift_4
Note_On_56_Vel_0
Time_Shift_4
Note_On_56_Vel_60
Time_Shift_67
Note_On_68_Vel_0
Time_Shift_1
Note_On_44_Vel_0
Time_Shift_3
Sustain_Off
Time_Shift_217
Sustain_On
Time_Shift_806
Note_On_56_Vel_0
Time_Shift_36
Note_On_58_Vel_0
Time_Shift_1
Note_On_46_Vel_0
Time_Shift_6
Sustain_Off
Time_Shift_3
Note_On_63_Vel_0
Time_Shift_8
Note_On_48_Vel_62
Time_Shift_3
Note_On_60_Vel_56
Time_Shift_5
Note_On_80_Vel_0
Time_Shift_261
Sustain_On
Time_Shift_346
Note_On_72_Vel_0
Time_Shift_768
Note_On_63_Vel_46
Time_Shift_1
Note_On_51_Vel_54
Time_Shift_39
Sustain_Off
Time_Shift_1
Note_On_48_Vel_0
Time_Shift_20
Note_On_60_Vel_0
Time_Shift_92
Sustain_On
Time_Shift_615
Note_On_51_Vel_0
Time_Shift_7
Note_On_63_Vel_0
Time_Shift_3
Note_On_51_Vel_53
Time_Shift_2
Note_On_63_Vel_40
Time_Shift_656
Note_On_51_Vel_0
Note_On_63_Vel_0
Time_Shift_4
Note_On_51_Vel_51
Note_On_63_Vel_41
Time_Shift_169
Note_On_48_Vel_52
Time_Shift_1
Note_On_51_Vel_0
Note_On_63_Vel_0
Time_Shift_4
Note_On_60_Vel_44
Time_Shift_1
Sustain_Off
Time_Shift_136
Sustain_On
Time_Shift_688
Note_On_63_Vel_42
Time_Shift_16
Note_On_51_Vel_44
Time_Shift_70
Note_On_48_Vel_0
Time_Shift_7
Sustain_Off
Time_Shift_10
Note_On_60_Vel_0
Time_Shift_146
Sustain_On
Time_Shift_567
Sustain_Off
Time_Shift_2
Note_On_51_Vel_0
Time_Shift_14
Note_On_63_Vel_0
Time_Shift_906
Sustain_On
Time_Shift_468
Note_On_63_Vel_43
Time_Shift_3
Note_On_67_Vel_42
Time_Shift_2
Note_On_60_Vel_36
Time_Shift_710
Note_On_63_Vel_0
Note_On_67_Vel_0
Time_Shift_8
Note_On_60_Vel_0
Time_Shift_4
Note_On_67_Vel_49
Note_On_63_Vel_44
Time_Shift_6
Note_On_60_Vel_38
Time_Shift_589
Note_On_67_Vel_0
Time_Shift_5
Note_On_67_Vel_53
Time_Shift_3
Note_On_63_Vel_0
Time_Shift_7
Note_On_60_Vel_0
Time_Shift_1
Note_On_63_Vel_41
Time_Shift_4
Note_On_60_Vel_32
Time_Shift_172
Note_On_63_Vel_0
Note_On_67_Vel_0
Time_Shift_4
Note_On_67_Vel_55
Time_Shift_2
Note_On_63_Vel_50
Time_Shift_2
Note_On_60_Vel_0
Time_Shift_6
Note_On_60_Vel_50
Time_Shift_777
Note_On_67_Vel_0
Time_Shift_8
Note_On_60_Vel_0
Note_On_63_Vel_0
Time_Shift_2
Note_On_67_Vel_54
Time_Shift_6
Note_On_60_Vel_38
Time_Shift_1
Note_On_63_Vel_46
Time_Shift_783
Note_On_70_Vel_53
Time_Shift_6
Note_On_67_Vel_0
Time_Shift_8
Note_On_60_Vel_0
Time_Shift_3
Note_On_63_Vel_0
Time_Shift_1
Note_On_67_Vel_49
Time_Shift_1
Note_On_60_Vel_40
Time_Shift_1
Note_On_53_Vel_39
Time_Shift_6
Sustain_Off
Time_Shift_96
Sustain_On
Time_Shift_320
Note_On_68_Vel_60
Time_Shift_6
Note_On_65_Vel_53
Time_Shift_380
Note_On_67_Vel_0
Time_Shift_11
Note_On_67_Vel_62
Time_Shift_4
Note_On_60_Vel_0
Time_Shift_2
Sustain_Off
Note_On_70_Vel_0
Time_Shift_1
Note_On_48_Vel_58
Note_On_65_Vel_0
Time_Shift_1
Note_On_53_Vel_0
Note_On_68_Vel_0
Note_On_63_Vel_48
Time_Shift_1
Note_On_60_Vel_48
Time_Shift_72
Sustain_On
Time_Shift_340
Note_On_65_Vel_55
Time_Shift_2
Note_On_62_Vel_55
Time_Shift_157
Note_On_48_Vel_0
Time_Shift_5
Note_On_48_Vel_54
Time_Shift_187
Note_On_67_Vel_0
Time_Shift_8
Note_On_60_Vel_0
Note_On_63_Vel_0
Time_Shift_2
Note_On_67_Vel_61
Time_Shift_3
Note_On_63_Vel_52
Time_Shift_3
Note_On_48_Vel_0
Time_Shift_3
Note_On_60_Vel_37
Time_Shift_2
Note_On_48_Vel_47
Time_Shift_5
Sustain_Off
Time_Shift_2
Note_On_62_Vel_0
Time_Shift_2
Note_On_65_Vel_0
Time_Shift_78
Sustain_On
Time_Shift_722
Note_On_63_Vel_0
Time_Shift_11
Note_On_63_Vel_54
Time_Shift_4
Note_On_48_Vel_0
Note_On_60_Vel_0
Time_Shift_4
Note_On_48_Vel_50
Time_Shift_1
Note_On_60_Vel_43
Time_Shift_19
Sustain_Off
Time_Shift_38
Sustain_On
Time_Shift_769
Note_On_62_Vel_49
Time_Shift_3
Note_On_55_Vel_55
Time_Shift_8
Note_On_58_Vel_42
Time_Shift_7
Sustain_Off
Time_Shift_6
Note_On_48_Vel_0
Time_Shift_1
Note_On_60_Vel_0
Time_Shift_35
Note_On_63_Vel_0
Time_Shift_39
Sustain_On
Time_Shift_153
Note_On_67_Vel_0
Time_Shift_598
Note_On_50_Vel_60
Time_Shift_9
Note_On_62_Vel_0
Time_Shift_11
Note_On_62_Vel_46
Time_Shift_12
Note_On_58_Vel_0
Time_Shift_8
Note_On_55_Vel_0
Time_Shift_3
Note_On_58_Vel_40
Time_Shift_2
Note_On_55_Vel_30
Time_Shift_14
Sustain_Off
Time_Shift_27
Sustain_On
Time_Shift_599
Note_On_62_Vel_0
Time_Shift_3
Note_On_48_Vel_59
Time_Shift_2
Note_On_62_Vel_43
Time_Shift_10
Note_On_58_Vel_0
Time_Shift_5
Note_On_58_Vel_40
Time_Shift_2
Note_On_60_Vel_41
Time_Shift_165
Note_On_46_Vel_68
Time_Shift_5
Note_On_58_Vel_0
Time_Shift_9
Note_On_58_Vel_54
Time_Shift_14
Sustain_Off
Note_On_55_Vel_0
Time_Shift_5
Note_On_55_Vel_28
Time_Shift_23
Note_On_50_Vel_0
Note_On_48_Vel_0
Time_Shift_10
Note_On_60_Vel_0
Time_Shift_85
Sustain_On
Time_Shift_414
Note_On_55_Vel_0
Time_Shift_223
Note_On_62_Vel_0
Time_Shift_8
Note_On_62_Vel_50
Time_Shift_10
Note_On_55_Vel_39
Time_Shift_5
Note_On_58_Vel_0
Time_Shift_4
Note_On_58_Vel_39
Time_Shift_399
Note_On_45_Vel_67
Time_Shift_6
Note_On_57_Vel_46
Time_Shift_6
Note_On_57_Vel_0
Time_Shift_415
Note_On_55_Vel_0
Time_Shift_9
Note_On_67_Vel_64
Time_Shift_2
Note_On_43_Vel_58
Note_On_55_Vel_63
Time_Shift_61
Note_On_62_Vel_0
Note_On_45_Vel_0
Note_On_58_Vel_0
Note_On_46_Vel_0
Sustain_Off
Time_Shift_135
Sustain_On
Time_Shift_450
Note_On_56_Vel_63
Note_On_44_Vel_64
Time_Shift_161
Note_On_53_Vel_69
Note_On_41_Vel_71
Time_Shift_31
Note_On_67_Vel_0
Time_Shift_6
Note_On_44_Vel_0
Note_On_43_Vel_0
Time_Shift_1
Note_On_56_Vel_0
Time_Shift_1
Sustain_Off
Time_Shift_3
Note_On_55_Vel_0
Time_Shift_115
Sustain_On
Time_Shift_500
Note_On_62_Vel_79
Time_Shift_6
Note_On_50_Vel_70
Time_Shift_158
Note_On_39_Vel_73
Time_Shift_3
Note_On_51_Vel_77
Time_Shift_3
Note_On_63_Vel_70
Time_Shift_64
Note_On_50_Vel_0
Sustain_Off
Note_On_62_Vel_0
Note_On_41_Vel_0
Time_Shift_2
Note_On_53_Vel_0
Time_Shift_109
Sustain_On
Time_Shift_451
Note_On_53_Vel_78
Time_Shift_2
Note_On_41_Vel_78
Time_Shift_169
Note_On_50_Vel_82
Time_Shift_1
Note_On_38_Vel_85
Time_Shift_29
Note_On_41_Vel_0
Time_Shift_1
Note_On_39_Vel_0
Time_Shift_1
Note_On_51_Vel_0
Time_Shift_1
Sustain_Off
Time_Shift_1
Note_On_53_Vel_0
Time_Shift_27
Note_On_63_Vel_0
Time_Shift_77
Sustain_On
Time_Shift_488
Note_On_55_Vel_86
Note_On_43_Vel_82
Time_Shift_1
Note_On_67_Vel_71
Time_Shift_152
Note_On_38_Vel_0
Time_Shift_1
Note_On_43_Vel_0
Note_On_50_Vel_0
Time_Shift_6
Sustain_Off
Time_Shift_20
Note_On_55_Vel_0
Note_On_67_Vel_0
Time_Shift_4
Note_On_55_Vel_82
Time_Shift_2
Note_On_67_Vel_89
Time_Shift_5
Note_On_48_Vel_91
Note_On_36_Vel_84
Note_On_60_Vel_86
Time_Shift_1
Note_On_63_Vel_79
Time_Shift_42
Sustain_On
Time_Shift_791
Note_On_67_Vel_0
Time_Shift_8
Note_On_48_Vel_0
Note_On_60_Vel_0
Note_On_79_Vel_86
Time_Shift_2
Note_On_67_Vel_95
Time_Shift_3
Note_On_75_Vel_78
Time_Shift_5
Note_On_48_Vel_85
Time_Shift_1
Note_On_60_Vel_85
Time_Shift_24
Sustain_Off
Time_Shift_57
Sustain_On
Time_Shift_261
Note_On_79_Vel_0
Time_Shift_131
Note_On_55_Vel_0
Time_Shift_184
Note_On_67_Vel_0
Time_Shift_8
Note_On_63_Vel_0
Time_Shift_2
Note_On_67_Vel_87
Time_Shift_1
Note_On_79_Vel_84
Time_Shift_4
Note_On_60_Vel_0
Time_Shift_1
Note_On_63_Vel_85
Time_Shift_4
Note_On_50_Vel_79
Time_Shift_149
Note_On_36_Vel_0
Note_On_67_Vel_0
Note_On_79_Vel_0
Time_Shift_4
Note_On_79_Vel_84
Time_Shift_2
Note_On_67_Vel_91
Time_Shift_1
Note_On_75_Vel_0
Time_Shift_5
Note_On_58_Vel_86
Note_On_75_Vel_78
Time_Shift_1
Note_On_51_Vel_80
Time_Shift_44
Sustain_Off
Time_Shift_8
Note_On_50_Vel_0
Note_On_48_Vel_0
Time_Shift_2
Note_On_63_Vel_0
Time_Shift_33
Note_On_79_Vel_0
Time_Shift_153
Sustain_On
Time_Shift_108
Note_On_75_Vel_0
Time_Shift_530
Note_On_51_Vel_0
Note_On_58_Vel_0
Note_On_67_Vel_0
Time_Shift_4
Note_On_79_Vel_85
Time_Shift_1
Note_On_67_Vel_91
Time_Shift_2
Note_On_58_Vel_87
Time_Shift_4
Note_On_51_Vel_84
Time_Shift_4
Note_On_79_Vel_0
Time_Shift_51
Sustain_Off
Time_Shift_64
Sustain_On
Time_Shift_738
Note_On_51_Vel_0
Time_Shift_2
Note_On_70_Vel_87
Time_Shift_1
Note_On_82_Vel_77
Time_Shift_7
Note_On_51_Vel_78
Note_On_44_Vel_83
Time_Shift_1
Note_On_60_Vel_82
Time_Shift_4
Note_On_82_Vel_0
Time_Shift_12
Note_On_67_Vel_0
Time_Shift_16
Sustain_Off
Time_Shift_7
Note_On_58_Vel_0
Time_Shift_103
Sustain_On
Time_Shift_292
Note_On_80_Vel_90
Time_Shift_2
Note_On_68_Vel_93
Time_Shift_403
Note_On_79_Vel_89
Time_Shift_2
Note_On_51_Vel_0
Time_Shift_1
Note_On_67_Vel_95
Time_Shift_8
Note_On_39_Vel_89
Note_On_51_Vel_90
Time_Shift_1
Note_On_58_Vel_88
Note_On_75_Vel_80
Time_Shift_32
Sustain_Off
Time_Shift_6
Note_On_44_Vel_0
Time_Shift_1
Note_On_68_Vel_0
Note_On_70_Vel_0
Time_Shift_5
Note_On_60_Vel_0
Note_On_80_Vel_0
Time_Shift_107
Sustain_On
Time_Shift_277
Note_On_79_Vel_0
Time_Shift_7
Note_On_75_Vel_0
Time_Shift_232
Note_On_65_Vel_92
Time_Shift_2
Note_On_77_Vel_77
Time_Shift_2
Note_On_56_Vel_78
Time_Shift_148
Note_On_67_Vel_0
Time_Shift_5
Note_On_67_Vel_95
Note_On_79_Vel_86
Time_Shift_3
Note_On_58_Vel_0
Time_Shift_4
Note_On_58_Vel_93
Time_Shift_4
Note_On_51_Vel_0
Time_Shift_9
Note_On_51_Vel_68
Time_Shift_38
Sustain_Off
Time_Shift_3
Note_On_65_Vel_0
Note_On_56_Vel_0
Time_Shift_2
Note_On_77_Vel_0
Time_Shift_48
Note_On_79_Vel_0
Time_Shift_46
Sustain_On
Time_Shift_718
Note_On_63_Vel_88
Time_Shift_4
Note_On_39_Vel_0
Note_On_51_Vel_0
Note_On_58_Vel_0
Time_Shift_3
Note_On_55_Vel_73
Time_Shift_2
Note_On_39_Vel_83
Note_On_27_Vel_77
Time_Shift_2
Note_On_51_Vel_82
Time_Shift_4
Note_On_58_Vel_71
Time_Shift_4
Note_On_27_Vel_0
Time_Shift_34
Sustain_Off
Time_Shift_50
Note_On_67_Vel_0
Time_Shift_85
Sustain_On
Time_Shift_737
Note_On_63_Vel_0
Time_Shift_10
Note_On_63_Vel_66
Time_Shift_10
Note_On_60_Vel_53
Time_Shift_2
Note_On_56_Vel_63
Time_Shift_1
Note_On_51_Vel_0
Time_Shift_4
Note_On_44_Vel_70
Time_Shift_2
Note_On_51_Vel_47
Time_Shift_36
Sustain_Off
Time_Shift_9
Note_On_55_Vel_0
Time_Shift_2
Note_On_58_Vel_0
Time_Shift_78
Note_On_39_Vel_0
Time_Shift_84
Sustain_On
Time_Shift_719
Note_On_72_Vel_75
Time_Shift_3
Note_On_51_Vel_0
Note_On_63_Vel_0
Time_Shift_8
Note_On_60_Vel_0
Time_Shift_3
Note_On_63_Vel_70
Time_Shift_1
Note_On_51_Vel_66
Time_Shift_5
Note_On_60_Vel_52
Time_Shift_2
Note_On_39_Vel_61
Time_Shift_33
Sustain_Off
Time_Shift_63
Sustain_On
Time_Shift_569
Note_On_72_Vel_0
Time_Shift_7
Note_On_60_Vel_0
Note_On_63_Vel_0
Time_Shift_1
Note_On_72_Vel_88
Time_Shift_7
Note_On_60_Vel_81
Time_Shift_3
Note_On_63_Vel_77
Time_Shift_1
Note_On_50_Vel_74
Note_On_38_Vel_78
Time_Shift_150
Note_On_72_Vel_0
Time_Shift_5
Note_On_72_Vel_90
Time_Shift_2
Note_On_60_Vel_0
Note_On_63_Vel_0
Time_Shift_4
Note_On_63_Vel_80
Time_Shift_2
Note_On_60_Vel_87
Time_Shift_4
Note_On_48_Vel_90
Time_Shift_1
Note_On_36_Vel_85
Time_Shift_42
Sustain_Off
Time_Shift_11
Note_On_51_Vel_0
Note_On_39_Vel_0
Note_On_44_Vel_0
Time_Shift_1
Note_On_56_Vel_0
Time_Shift_1
Note_On_38_Vel_0
Time_Shift_11
Note_On_50_Vel_0
Time_Shift_138
Sustain_On
Time_Shift_440
Note_On_59_Vel_85
Time_Shift_66
Note_On_65_Vel_75
Time_Shift_59
Note_On_71_Vel_83
Time_Shift_83
Note_On_74_Vel_95
Time_Shift_17
Note_On_32_Vel_91
Time_Shift_1
Note_On_44_Vel_89
Time_Shift_49
Note_On_60_Vel_0
Time_Shift_7
Note_On_48_Vel_0
Time_Shift_1
Sustain_Off
Time_Shift_1
Note_On_36_Vel_0
Time_Shift_2
Note_On_59_Vel_0
Time_Shift_4
Note_On_63_Vel_0
Time_Shift_15
Note_On_72_Vel_0
Time_Shift_93
Sustain_On
Time_Shift_506
Note_On_31_Vel_83
Time_Shift_1
Note_On_75_Vel_98
Time_Shift_2
Note_On_43_Vel_90
Time_Shift_13
Note_On_65_Vel_0
Time_Shift_151
Note_On_72_Vel_104
Time_Shift_1
Note_On_84_Vel_96
Time_Shift_1
Note_On_71_Vel_0
Time_Shift_8
Note_On_84_Vel_0
Note_On_48_Vel_99
Time_Shift_3
Note_On_36_Vel_92
Time_Shift_8
Sustain_Off
Time_Shift_14
Note_On_31_Vel_0
Time_Shift_3
Note_On_32_Vel_0
Time_Shift_5
Note_On_75_Vel_0
Time_Shift_36
Note_On_44_Vel_0
Time_Shift_16
Note_On_74_Vel_0
Time_Shift_169
Sustain_On
Time_Shift_99
Note_On_43_Vel_0
Time_Shift_469
Note_On_72_Vel_0
Time_Shift_7
Note_On_72_Vel_101
Time_Shift_5
Note_On_60_Vel_86
Time_Shift_57
Note_On_48_Vel_0
Time_Shift_1
Note_On_36_Vel_0
Time_Shift_10
Sustain_Off
Time_Shift_104
Sustain_On
Time_Shift_277
Note_On_72_Vel_0
Time_Shift_53
Note_On_60_Vel_0
Time_Shift_151
Note_On_72_Vel_93
Time_Shift_6
Note_On_60_Vel_68
Time_Shift_151
Note_On_72_Vel_0
Time_Shift_11
Note_On_72_Vel_80
Time_Shift_12
Note_On_60_Vel_0
Time_Shift_11
Note_On_60_Vel_70
Time_Shift_10
Sustain_Off
Time_Shift_163
Sustain_On
Time_Shift_815
Note_On_79_Vel_60
Time_Shift_4
Note_On_67_Vel_48
Time_Shift_10
Note_On_60_Vel_0
Time_Shift_7
Note_On_60_Vel_29
Time_Shift_48
Sustain_Off
Time_Shift_3
Note_On_60_Vel_0
Time_Shift_12
Note_On_72_Vel_0
Time_Shift_161
Sustain_On
Time_Shift_404
Note_On_77_Vel_67
Time_Shift_1
Note_On_65_Vel_49
Time_Shift_186
Note_On_65_Vel_0
Note_On_77_Vel_0
Time_Shift_5
Note_On_77_Vel_74
Time_Shift_5
Note_On_65_Vel_54
Time_Shift_47
Sustain_Off
Time_Shift_12
Note_On_67_Vel_0
Time_Shift_16
Note_On_79_Vel_0
Time_Shift_23
Sustain_On
Time_Shift_737
Note_On_65_Vel_0
Note_On_77_Vel_0
Time_Shift_6
Note_On_77_Vel_80
Time_Shift_4
Note_On_65_Vel_62
Time_Shift_26
Note_On_60_Vel_43
Time_Shift_2
Note_On_56_Vel_51
Time_Shift_607
Note_On_77_Vel_0
Time_Shift_8
Note_On_65_Vel_0
Time_Shift_3
Note_On_77_Vel_78
Time_Shift_2
Note_On_65_Vel_62
Time_Shift_194
Note_On_65_Vel_0
Time_Shift_8
Note_On_77_Vel_0
Time_Shift_4
Note_On_65_Vel_72
Time_Shift_1
Note_On_77_Vel_84
Time_Shift_19
Note_On_59_Vel_63
Time_Shift_2
Note_On_55_Vel_46
Time_Shift_71
Sustain_Off
Time_Shift_4
Note_On_60_Vel_0
Time_Shift_1
Note_On_56_Vel_0
Time_Shift_82
Sustain_On
Time_Shift_684
Note_On_77_Vel_0
Time_Shift_5
Note_On_77_Vel_69
Time_Shift_3
Note_On_65_Vel_0
Time_Shift_8
Note_On_65_Vel_47
Time_Shift_11
Note_On_72_Vel_48
Note_On_56_Vel_50
Time_Shift_4
Note_On_60_Vel_44
Time_Shift_36
Note_On_59_Vel_0
Note_On_55_Vel_0
Time_Shift_15
Sustain_Off
Time_Shift_64
Sustain_On
Time_Shift_322
Note_On_72_Vel_0
Time_Shift_338
Note_On_65_Vel_0
Note_On_77_Vel_0
Time_Shift_6
Note_On_65_Vel_59
Time_Shift_1
Note_On_77_Vel_64
Time_Shift_37
Note_On_55_Vel_30
Time_Shift_5
Note_On_59_Vel_45
Time_Shift_344
Note_On_75_Vel_70
Time_Shift_24
Note_On_63_Vel_55
Time_Shift_27
Sustain_Off
Time_Shift_33
Sustain_On
Time_Shift_276
Note_On_63_Vel_0
Note_On_75_Vel_0
Note_On_77_Vel_0
Time_Shift_5
Note_On_75_Vel_59
Time_Shift_1
Note_On_63_Vel_49
Time_Shift_5
Note_On_77_Vel_44
Time_Shift_57
Note_On_62_Vel_66
Time_Shift_1
Note_On_74_Vel_65
Time_Shift_32
Note_On_59_Vel_0
Note_On_77_Vel_0
Note_On_55_Vel_0
Time_Shift_1
Sustain_Off
Note_On_63_Vel_0
Time_Shift_1
Note_On_75_Vel_0
Time_Shift_12
Note_On_56_Vel_0
Time_Shift_8
Note_On_60_Vel_0
Time_Shift_8
Note_On_65_Vel_0
Time_Shift_176
Sustain_On
Time_Shift_489
Note_On_60_Vel_53
Time_Shift_80
Note_On_62_Vel_0
Time_Shift_1
Note_On_74_Vel_0
Time_Shift_3
Sustain_Off
Time_Shift_42
Note_On_60_Vel_0
Time_Shift_38
Note_On_74_Vel_59
Time_Shift_20
Note_On_62_Vel_41
Time_Shift_172
Sustain_On
Time_Shift_704
Note_On_79_Vel_60
Time_Shift_4
Note_On_67_Vel_47
Time_Shift_48
Sustain_Off
Time_Shift_1
Note_On_62_Vel_0
Time_Shift_2
Note_On_74_Vel_0
Time_Shift_140
Sustain_On
Time_Shift_467
Note_On_77_Vel_55
Time_Shift_5
Note_On_65_Vel_50
Time_Shift_173
Note_On_77_Vel_0
Time_Shift_11
Note_On_77_Vel_63
Time_Shift_4
Note_On_65_Vel_0
Time_Shift_6
Note_On_65_Vel_51
Time_Shift_45
Sustain_Off
Time_Shift_3
Note_On_67_Vel_0
Time_Shift_4
Note_On_79_Vel_0
Time_Shift_111
Sustain_On
Time_Shift_684
Note_On_65_Vel_0
Time_Shift_7
Note_On_77_Vel_0
Time_Shift_3
Note_On_65_Vel_52
Time_Shift_1
Note_On_77_Vel_53
Time_Shift_11
Note_On_56_Vel_42
Time_Shift_5
Note_On_60_Vel_35
Time_Shift_641
Note_On_65_Vel_0
Note_On_77_Vel_0
Time_Shift_5
Note_On_65_Vel_55
Time_Shift_5
Note_On_77_Vel_69
Time_Shift_182
Note_On_65_Vel_0
Note_On_77_Vel_0
Time_Shift_5
Note_On_77_Vel_69
Time_Shift_1
Note_On_65_Vel_68
Time_Shift_19
Note_On_59_Vel_65
Time_Shift_16
Note_On_55_Vel_39
Time_Shift_42
Sustain_Off
Time_Shift_24
Sustain_On
Time_Shift_622
Note_On_60_Vel_0
Time_Shift_108
Note_On_65_Vel_0
Note_On_77_Vel_0
Time_Shift_7
Note_On_56_Vel_0
Time_Shift_2
Note_On_77_Vel_77
Time_Shift_2
Note_On_65_Vel_60
Time_Shift_5
Note_On_56_Vel_54
Time_Shift_3
Note_On_60_Vel_53
Time_Shift_65
Note_On_59_Vel_0
Note_On_55_Vel_0
Time_Shift_11
Sustain_Off
Time_Shift_135
Sustain_On
Time_Shift_684
Note_On_65_Vel_0
Note_On_77_Vel_0
Time_Shift_9
Note_On_65_Vel_56
Time_Shift_2
Note_On_77_Vel_72
Time_Shift_19
Note_On_56_Vel_0
Time_Shift_4
Note_On_59_Vel_48
Time_Shift_1
Note_On_56_Vel_42
Time_Shift_67
Sustain_Off
Time_Shift_13
Note_On_60_Vel_0
Time_Shift_54
Sustain_On
Time_Shift_275
Note_On_75_Vel_69
Time_Shift_23
Note_On_63_Vel_63
Time_Shift_51
Sustain_Off
Time_Shift_9
Note_On_65_Vel_0
Time_Shift_33
Note_On_77_Vel_0
Time_Shift_93
Sustain_On
Time_Shift_198
Note_On_74_Vel_69
Time_Shift_3
Note_On_62_Vel_62
Time_Shift_48
Note_On_75_Vel_0
Time_Shift_1
Sustain_Off
Time_Shift_49
Note_On_63_Vel_0
Time_Shift_61
Sustain_On
Time_Shift_232
Note_On_75_Vel_74
Time_Shift_4
Note_On_63_Vel_71
Time_Shift_78
Sustain_Off
Time_Shift_6
Note_On_62_Vel_0
Time_Shift_5
Note_On_74_Vel_0
Time_Shift_90
Sustain_On
Time_Shift_270
Note_On_77_Vel_80
Time_Shift_19
Note_On_65_Vel_66
Time_Shift_51
Sustain_Off
Time_Shift_13
Note_On_63_Vel_0
Time_Shift_31
Note_On_75_Vel_0
Time_Shift_131
Sustain_On
Time_Shift_641
Note_On_62_Vel_45
Time_Shift_1
Note_On_70_Vel_51
Time_Shift_3
Note_On_56_Vel_0
Note_On_58_Vel_50
Time_Shift_8
Note_On_56_Vel_47
Time_Shift_61
Note_On_59_Vel_0
Time_Shift_22
Sustain_Off
Time_Shift_116
Sustain_On
Time_Shift_200
Note_On_65_Vel_0
Time_Shift_42
Note_On_78_Vel_73
Time_Shift_4
Note_On_66_Vel_64
Time_Shift_506
Note_On_79_Vel_75
Time_Shift_5
Note_On_67_Vel_58
Time_Shift_5
Note_On_63_Vel_49
Time_Shift_3
Note_On_51_Vel_47
Time_Shift_4
Note_On_75_Vel_44
Time_Shift_7
Note_On_58_Vel_0
Time_Shift_4
Note_On_58_Vel_39
Time_Shift_27
Note_On_62_Vel_0
Time_Shift_7
Note_On_66_Vel_0
Time_Shift_5
Note_On_78_Vel_0
Time_Shift_1
Note_On_77_Vel_0
Time_Shift_7
Sustain_Off
Time_Shift_3
Note_On_56_Vel_0
Time_Shift_123
Sustain_On
Time_Shift_215
Note_On_75_Vel_0
Time_Shift_514
Note_On_79_Vel_0
Time_Shift_11
Note_On_79_Vel_73
Time_Shift_20
Note_On_51_Vel_0
Note_On_63_Vel_0
Note_On_70_Vel_0
Time_Shift_4
Note_On_63_Vel_38
Note_On_51_Vel_40
Time_Shift_5
Note_On_70_Vel_41
Time_Shift_651
Note_On_67_Vel_0
Time_Shift_16
Note_On_79_Vel_0
Time_Shift_7
Note_On_70_Vel_0
Time_Shift_4
Note_On_79_Vel_75
Time_Shift_8
Note_On_70_Vel_56
Time_Shift_173
Note_On_58_Vel_0
Time_Shift_1
Note_On_75_Vel_70
Time_Shift_22
Note_On_51_Vel_0
Time_Shift_4
Note_On_72_Vel_54
Time_Shift_3
Note_On_63_Vel_0
Time_Shift_4
Note_On_51_Vel_37
Time_Shift_1
Note_On_63_Vel_36
Note_On_68_Vel_44
Time_Shift_4
Note_On_56_Vel_47
Time_Shift_89
Sustain_Off
Time_Shift_10
Note_On_70_Vel_0
Time_Shift_15
Note_On_79_Vel_0
Time_Shift_92
Sustain_On
Time_Shift_750
Note_On_80_Vel_82
Time_Shift_18
Note_On_63_Vel_0
Note_On_72_Vel_0
Time_Shift_10
Note_On_72_Vel_56
Time_Shift_2
Note_On_63_Vel_42
Time_Shift_12
Note_On_56_Vel_0
Time_Shift_3
Note_On_56_Vel_45
Time_Shift_895
Note_On_79_Vel_69
Time_Shift_8
Note_On_68_Vel_0
Time_Shift_14
Note_On_70_Vel_60
Time_Shift_1
Note_On_51_Vel_0
Time_Shift_7
Note_On_51_Vel_57
Time_Shift_1
Note_On_63_Vel_0
Time_Shift_4
Note_On_63_Vel_50
Time_Shift_12
Note_On_58_Vel_50
Time_Shift_26
Note_On_80_Vel_0
Note_On_75_Vel_0
Time_Shift_1
Note_On_56_Vel_0
Time_Shift_18
Note_On_72_Vel_0
Time_Shift_20
Sustain_Off
Time_Shift_72
Sustain_On
Time_Shift_539
Note_On_77_Vel_66
Time_Shift_14
Note_On_68_Vel_52
Time_Shift_4
Note_On_59_Vel_58
Time_Shift_150
Note_On_58_Vel_0
Time_Shift_5
Note_On_75_Vel_70
Time_Shift_4
Note_On_58_Vel_53
Time_Shift_10
Note_On_67_Vel_49
Time_Shift_5
Note_On_79_Vel_0
Time_Shift_1
Sustain_Off
Note_On_63_Vel_0
Time_Shift_4
Note_On_68_Vel_0
Note_On_59_Vel_0
Time_Shift_4
Note_On_77_Vel_0
Time_Shift_144
Sustain_On
Time_Shift_557
Note_On_65_Vel_55
Time_Shift_1
Note_On_74_Vel_62
Time_Shift_6
Note_On_68_Vel_54
Time_Shift_204
Note_On_75_Vel_0
Time_Shift_7
Note_On_67_Vel_0
Time_Shift_1
Note_On_75_Vel_66
Time_Shift_3
Note_On_67_Vel_57
Time_Shift_1
Note_On_63_Vel_53
Time_Shift_44
Note_On_74_Vel_0
Time_Shift_1
Sustain_Off
Note_On_68_Vel_0
Note_On_65_Vel_0
Time_Shift_12
Note_On_70_Vel_0
Time_Shift_7
Note_On_58_Vel_0
Time_Shift_185
Sustain_On
Time_Shift_773
Note_On_55_Vel_59
Time_Shift_2
Note_On_63_Vel_0
Note_On_67_Vel_0
Time_Shift_9
Note_On_67_Vel_48
Time_Shift_1
Note_On_70_Vel_59
Time_Shift_1
Note_On_63_Vel_48
Time_Shift_49
Sustain_Off
Time_Shift_109
Sustain_On
Time_Shift_933
Note_On_72_Vel_70
Time_Shift_4
Note_On_63_Vel_0
Time_Shift_5
Note_On_68_Vel_56
Note_On_63_Vel_53
Time_Shift_1
Note_On_56_Vel_57
Time_Shift_2
Note_On_60_Vel_48
Note_On_44_Vel_59
Time_Shift_59
Sustain_Off
Time_Shift_15
Note_On_55_Vel_0
Time_Shift_6
Note_On_70_Vel_0
Time_Shift_28
Note_On_67_Vel_0
Time_Shift_23
Note_On_75_Vel_0
Time_Shift_38
Note_On_51_Vel_0
Time_Shift_15
Sustain_On
Time_Shift_799
Note_On_72_Vel_0
Time_Shift_7
Note_On_72_Vel_76
Time_Shift_1
Note_On_63_Vel_0
Time_Shift_7
Note_On_60_Vel_0
Time_Shift_1
Note_On_39_Vel_66
Time_Shift_2
Note_On_63_Vel_67
Time_Shift_1
Note_On_51_Vel_69
Note_On_60_Vel_65
Time_Shift_2
Note_On_67_Vel_55
Time_Shift_10
Note_On_67_Vel_0
Time_Shift_35
Sustain_Off
Time_Shift_11
Note_On_44_Vel_0
Time_Shift_2
Note_On_56_Vel_0
Time_Shift_21
Note_On_68_Vel_0
Time_Shift_123
Sustain_On
Time_Shift_576
Note_On_72_Vel_0
Time_Shift_7
Note_On_60_Vel_0
Time_Shift_4
Note_On_72_Vel_81
Time_Shift_4
Note_On_63_Vel_0
Time_Shift_2
Note_On_60_Vel_78
Time_Shift_3
Note_On_38_Vel_74
Note_On_63_Vel_72
Time_Shift_1
Note_On_50_Vel_74
Time_Shift_201
Note_On_72_Vel_0
Time_Shift_8
Note_On_60_Vel_0
Note_On_63_Vel_0
Time_Shift_2
Note_On_48_Vel_94
Time_Shift_1
Note_On_36_Vel_86
Time_Shift_1
Note_On_72_Vel_88
Note_On_60_Vel_86
Time_Shift_2
Note_On_63_Vel_78
Time_Shift_38
Sustain_Off
Time_Shift_29
Note_On_51_Vel_0
Note_On_39_Vel_0
Time_Shift_1
Note_On_38_Vel_0
Time_Shift_1
Note_On_50_Vel_0
Time_Shift_140
Sustain_On
Time_Shift_551
Note_On_59_Vel_86
Time_Shift_77
Note_On_65_Vel_78
Time_Shift_74
Note_On_71_Vel_69
Time_Shift_114
Note_On_74_Vel_95
Time_Shift_6
Note_On_60_Vel_0
Time_Shift_11
Note_On_36_Vel_0
Time_Shift_4
Note_On_71_Vel_0
Time_Shift_1
Note_On_59_Vel_0
Time_Shift_4
Note_On_71_Vel_71
Time_Shift_2
Note_On_44_Vel_94
Time_Shift_1
Note_On_32_Vel_93
Note_On_48_Vel_0
Time_Shift_8
Note_On_63_Vel_0
Time_Shift_2
Sustain_Off
Time_Shift_5
Sustain_On
Time_Shift_69
Note_On_72_Vel_0
Time_Shift_12
Sustain_Off
Time_Shift_119
Sustain_On
Time_Shift_649
Note_On_31_Vel_93
Note_On_75_Vel_102
Note_On_43_Vel_94
Time_Shift_5
Note_On_69_Vel_78
Time_Shift_7
Note_On_69_Vel_0
Time_Shift_215
Note_On_72_Vel_95
Time_Shift_3
Note_On_67_Vel_88
Note_On_63_Vel_92
Time_Shift_1
Note_On_48_Vel_103
Time_Shift_2
Note_On_36_Vel_93
Time_Shift_42
Sustain_Off
Time_Shift_6
Note_On_31_Vel_0
Time_Shift_7
Note_On_32_Vel_0
Note_On_44_Vel_0
Time_Shift_12
Note_On_75_Vel_0
Time_Shift_11
Note_On_65_Vel_0
Time_Shift_8
Note_On_71_Vel_0
Note_On_74_Vel_0
Time_Shift_123
Note_On_43_Vel_0
Time_Shift_138
Sustain_On
Time_Shift_622
Note_On_48_Vel_0
Note_On_72_Vel_0
Time_Shift_8
Note_On_36_Vel_0
Time_Shift_2
Note_On_72_Vel_103
Time_Shift_1
Note_On_48_Vel_104
Note_On_60_Vel_102
Time_Shift_1
Note_On_36_Vel_98
Time_Shift_52
Sustain_Off
Time_Shift_66
Sustain_On
Time_Shift_361
Note_On_67_Vel_0
Time_Shift_407
Note_On_36_Vel_0
Note_On_48_Vel_0
Note_On_60_Vel_0
Note_On_72_Vel_0
Time_Shift_5
Note_On_72_Vel_104
Time_Shift_2
Note_On_60_Vel_105
Time_Shift_2
Note_On_48_Vel_103
Time_Shift_2
Note_On_36_Vel_95
Time_Shift_205
Note_On_48_Vel_0
Note_On_60_Vel_0
Note_On_72_Vel_0
Time_Shift_7
Note_On_36_Vel_0
Time_Shift_3
Note_On_60_Vel_102
Note_On_72_Vel_102
Time_Shift_1
Note_On_48_Vel_103
Time_Shift_1
Note_On_36_Vel_98
Time_Shift_28
Sustain_Off
Time_Shift_36
Note_On_63_Vel_0
Time_Shift_169
Sustain_On
Time_Shift_1138
Sustain_Off
Note_On_36_Vel_0
Time_Shift_14
Note_On_48_Vel_0
Time_Shift_8
Note_On_60_Vel_0
Note_On_72_Vel_0
