Ticks_Per_Beat_384
Tempo_500000
Time_Shift_7
Sustain_On
Time_Shift_254
Sustain_Off
Time_Shift_39
Note_On_66_Vel_56
Time_Shift_53
Sustain_On
Time_Shift_160
Sustain_Off
Time_Shift_7
Note_On_66_Vel_0
Time_Shift_6
Note_On_62_Vel_63
Time_Shift_5
Note_On_69_Vel_65
Time_Shift_1
Note_On_54_Vel_65
Note_On_50_Vel_61
Time_Shift_26
Note_On_62_Vel_0
Time_Shift_1
Note_On_54_Vel_0
Time_Shift_4
Note_On_50_Vel_0
Time_Shift_28
Note_On_69_Vel_0
Time_Shift_132
Note_On_83_Vel_68
Time_Shift_30
Note_On_81_Vel_69
Time_Shift_4
Note_On_57_Vel_62
Time_Shift_2
Note_On_83_Vel_0
Time_Shift_17
Note_On_81_Vel_0
Time_Shift_10
Note_On_57_Vel_0
Time_Shift_156
Note_On_67_Vel_68
Time_Shift_3
Note_On_49_Vel_66
Time_Shift_11
Note_On_81_Vel_73
Time_Shift_1
Note_On_55_Vel_66
Time_Shift_3
Note_On_69_Vel_82
Time_Shift_21
Note_On_49_Vel_0
Time_Shift_2
Note_On_76_Vel_38
Time_Shift_1
Note_On_67_Vel_0
Time_Shift_2
Note_On_64_Vel_49
Time_Shift_16
Note_On_64_Vel_0
Time_Shift_4
Note_On_55_Vel_0
Note_On_69_Vel_0
Note_On_81_Vel_0
Time_Shift_7
Note_On_76_Vel_0
Time_Shift_152
Note_On_83_Vel_71
Time_Shift_28
Note_On_81_Vel_67
Time_Shift_2
Note_On_57_Vel_54
Time_Shift_4
Note_On_83_Vel_0
Time_Shift_4
Note_On_69_Vel_40
Time_Shift_25
Note_On_81_Vel_0
Time_Shift_8
Note_On_57_Vel_0
Time_Shift_8
Note_On_69_Vel_0
Time_Shift_128
Note_On_66_Vel_74
Time_Shift_28
Note_On_50_Vel_74
Time_Shift_1
Note_On_62_Vel_66
Time_Shift_2
Note_On_66_Vel_0
Time_Shift_2
Note_On_54_Vel_60
Time_Shift_2
Note_On_69_Vel_70
Time_Shift_26
Note_On_50_Vel_0
Note_On_62_Vel_0
Time_Shift_18
Note_On_69_Vel_0
Time_Shift_8
Note_On_54_Vel_0
Time_Shift_136
Note_On_83_Vel_76
Time_Shift_22
Note_On_57_Vel_61
Time_Shift_1
Note_On_81_Vel_72
Time_Shift_8
Note_On_83_Vel_0
Time_Shift_21
Note_On_57_Vel_0
Time_Shift_11
Note_On_81_Vel_0
Time_Shift_137
Note_On_66_Vel_76
Time_Shift_25
Note_On_54_Vel_63
Time_Shift_3
Note_On_42_Vel_75
Time_Shift_7
Note_On_66_Vel_0
Note_On_69_Vel_70
Time_Shift_10
Note_On_54_Vel_0
Time_Shift_26
Note_On_42_Vel_0
Time_Shift_7
Note_On_69_Vel_0
Time_Shift_131
Note_On_88_Vel_80
Time_Shift_30
Note_On_57_Vel_59
Time_Shift_2
Note_On_62_Vel_61
Time_Shift_1
Note_On_54_Vel_65
Time_Shift_2
Note_On_86_Vel_77
Time_Shift_5
Note_On_88_Vel_0
Time_Shift_18
Note_On_62_Vel_0
Time_Shift_1
Note_On_57_Vel_0
Time_Shift_18
Note_On_54_Vel_0
Note_On_86_Vel_0
Time_Shift_119
Note_On_85_Vel_80
Time_Shift_25
Note_On_85_Vel_0
Time_Shift_2
Note_On_43_Vel_67
Time_Shift_3
Note_On_31_Vel_61
Time_Shift_4
Note_On_31_Vel_0
Time_Shift_6
Note_On_83_Vel_64
Time_Shift_14
Note_On_43_Vel_0
Time_Shift_8
Note_On_83_Vel_0
Time_Shift_137
Note_On_82_Vel_77
Time_Shift_26
Note_On_82_Vel_0
Time_Shift_3
Note_On_83_Vel_79
Time_Shift_2
Note_On_63_Vel_63
Time_Shift_3
Note_On_75_Vel_62
Time_Shift_1
Note_On_59_Vel_70
Time_Shift_10
Note_On_55_Vel_64
Time_Shift_2
Note_On_83_Vel_0
Time_Shift_18
Note_On_75_Vel_0
Time_Shift_2
Note_On_63_Vel_0
Time_Shift_5
Note_On_59_Vel_0
Time_Shift_6
Note_On_55_Vel_0
Time_Shift_138
Note_On_75_Vel_77
Time_Shift_30
Note_On_59_Vel_74
Note_On_55_Vel_64
Note_On_64_Vel_67
Time_Shift_7
Note_On_76_Vel_77
Time_Shift_3
Note_On_75_Vel_0
Time_Shift_14
Note_On_76_Vel_0
Time_Shift_5
Note_On_64_Vel_0
Time_Shift_3
Note_On_55_Vel_0
Note_On_59_Vel_0
Time_Shift_148
Note_On_78_Vel_76
Time_Shift_31
Note_On_79_Vel_82
Time_Shift_16
Note_On_78_Vel_0
Time_Shift_10
Note_On_79_Vel_0
Time_Shift_137
Note_On_81_Vel_76
Time_Shift_40
Note_On_64_Vel_65
Time_Shift_1
Note_On_81_Vel_0
Time_Shift_2
Note_On_83_Vel_74
Time_Shift_3
Note_On_55_Vel_61
Time_Shift_3
Note_On_59_Vel_58
Time_Shift_23
Note_On_83_Vel_0
Time_Shift_1
Note_On_64_Vel_0
Time_Shift_5
Note_On_55_Vel_0
Time_Shift_2
Note_On_59_Vel_0
Time_Shift_133
Note_On_76_Vel_62
Time_Shift_39
Note_On_76_Vel_0
Time_Shift_6
Note_On_76_Vel_63
Time_Shift_5
Note_On_62_Vel_60
Time_Shift_2
Note_On_64_Vel_57
Time_Shift_1
Note_On_56_Vel_48
Time_Shift_3
Note_On_59_Vel_45
Time_Shift_26
Note_On_64_Vel_0
Note_On_62_Vel_0
Time_Shift_3
Note_On_76_Vel_0
Time_Shift_12
Note_On_56_Vel_0
Time_Shift_8
Note_On_59_Vel_0
Time_Shift_148
Note_On_78_Vel_69
Time_Shift_44
Note_On_76_Vel_62
Time_Shift_3
Note_On_78_Vel_0
Time_Shift_3
Note_On_57_Vel_57
Time_Shift_1
Note_On_61_Vel_53
Note_On_64_Vel_50
Time_Shift_2
Note_On_69_Vel_44
Time_Shift_10
Note_On_69_Vel_0
Time_Shift_18
Note_On_76_Vel_0
Time_Shift_2
Note_On_57_Vel_0
Time_Shift_1
Note_On_64_Vel_0
Time_Shift_2
Note_On_61_Vel_0
Time_Shift_197
Note_On_78_Vel_66
Time_Shift_48
Note_On_79_Vel_69
Note_On_78_Vel_0
Time_Shift_29
Note_On_79_Vel_0
Time_Shift_143
Note_On_80_Vel_76
Time_Shift_26
Note_On_80_Vel_0
Time_Shift_20
Note_On_81_Vel_73
Time_Shift_11
Note_On_62_Vel_64
Time_Shift_1
Note_On_50_Vel_57
Time_Shift_26
Note_On_81_Vel_0
Time_Shift_2
Note_On_62_Vel_0
Time_Shift_1
Note_On_50_Vel_0
Time_Shift_151
Note_On_95_Vel_90
Time_Shift_29
Note_On_93_Vel_87
Time_Shift_11
Note_On_57_Vel_70
Time_Shift_6
Note_On_95_Vel_0
Time_Shift_24
Note_On_57_Vel_0
Time_Shift_20
Note_On_93_Vel_0
Time_Shift_122
Note_On_79_Vel_80
Time_Shift_26
Note_On_81_Vel_80
Time_Shift_9
Note_On_79_Vel_0
Time_Shift_1
Note_On_69_Vel_61
Note_On_61_Vel_76
Time_Shift_1
Note_On_67_Vel_58
Time_Shift_22
Note_On_81_Vel_0
Time_Shift_25
Note_On_61_Vel_0
Time_Shift_1
Note_On_67_Vel_0
Note_On_69_Vel_0
Time_Shift_139
Note_On_95_Vel_90
Time_Shift_23
Note_On_93_Vel_87
Time_Shift_11
Note_On_69_Vel_68
Time_Shift_2
Note_On_57_Vel_72
Time_Shift_5
Note_On_95_Vel_0
Time_Shift_15
Note_On_93_Vel_0
Time_Shift_13
Note_On_69_Vel_0
Time_Shift_2
Note_On_57_Vel_0
Time_Shift_132
Note_On_78_Vel_85
Time_Shift_37
Note_On_62_Vel_63
Time_Shift_1
Note_On_81_Vel_72
Time_Shift_3
Note_On_66_Vel_55
Time_Shift_1
Note_On_69_Vel_49
Time_Shift_15
Note_On_78_Vel_0
Time_Shift_11
Note_On_62_Vel_0
Time_Shift_1
Note_On_81_Vel_0
Time_Shift_1
Note_On_66_Vel_0
Time_Shift_18
Note_On_69_Vel_0
Time_Shift_141
Note_On_95_Vel_90
Time_Shift_30
Note_On_93_Vel_83
Time_Shift_2
Note_On_57_Vel_69
Note_On_69_Vel_68
Time_Shift_8
Note_On_95_Vel_0
Time_Shift_15
Note_On_93_Vel_0
Time_Shift_1
Note_On_69_Vel_0
Time_Shift_2
Note_On_57_Vel_0
Time_Shift_176
Note_On_78_Vel_83
Time_Shift_28
Note_On_81_Vel_80
Note_On_78_Vel_0
Time_Shift_7
Note_On_62_Vel_69
Time_Shift_2
Note_On_66_Vel_59
Time_Shift_1
Note_On_69_Vel_52
Time_Shift_23
Note_On_66_Vel_0
Time_Shift_1
Note_On_62_Vel_0
Time_Shift_9
Note_On_81_Vel_0
Time_Shift_7
Note_On_69_Vel_0
Time_Shift_182
Note_On_100_Vel_89
Time_Shift_34
Note_On_98_Vel_92
Time_Shift_36
Note_On_98_Vel_0
Time_Shift_9
Note_On_100_Vel_0
Time_Shift_113
Note_On_97_Vel_98
Time_Shift_27
Note_On_95_Vel_98
Time_Shift_3
Note_On_43_Vel_68
Time_Shift_42
Note_On_97_Vel_0
Time_Shift_7
Note_On_43_Vel_0
Time_Shift_46
Note_On_95_Vel_0
Time_Shift_90
Note_On_93_Vel_96
Time_Shift_31
Note_On_63_Vel_80
Time_Shift_1
Note_On_91_Vel_88
Time_Shift_3
Note_On_59_Vel_79
Time_Shift_8
Note_On_55_Vel_73
Time_Shift_150
Note_On_63_Vel_0
Time_Shift_4
Note_On_55_Vel_0
Time_Shift_8
Note_On_90_Vel_79
Note_On_91_Vel_0
Time_Shift_36
Note_On_59_Vel_0
Time_Shift_2
Note_On_88_Vel_84
Time_Shift_4
Note_On_64_Vel_74
Time_Shift_1
Note_On_93_Vel_0
Time_Shift_1
Note_On_90_Vel_0
Time_Shift_3
Note_On_59_Vel_57
Time_Shift_35
Note_On_88_Vel_0
Time_Shift_7
Note_On_59_Vel_0
Note_On_64_Vel_0
Time_Shift_141
Note_On_86_Vel_88
Time_Shift_34
Note_On_85_Vel_86
Time_Shift_3
Note_On_86_Vel_0
Time_Shift_31
Note_On_85_Vel_0
Time_Shift_135
Note_On_83_Vel_86
Time_Shift_37
Note_On_81_Vel_81
Time_Shift_6
Note_On_45_Vel_58
Time_Shift_1
Note_On_83_Vel_0
Time_Shift_20
Note_On_81_Vel_0
Time_Shift_5
Note_On_45_Vel_0
Time_Shift_213
Note_On_79_Vel_75
Time_Shift_38
Note_On_79_Vel_0
Time_Shift_2
Note_On_78_Vel_76
Time_Shift_5
Note_On_67_Vel_55
Time_Shift_14
Note_On_57_Vel_51
Time_Shift_11
Note_On_61_Vel_37
Time_Shift_10
Note_On_67_Vel_0
Time_Shift_9
Note_On_78_Vel_0
Time_Shift_236
Note_On_76_Vel_59
Time_Shift_9
Note_On_61_Vel_0
Time_Shift_8
Note_On_57_Vel_0
Time_Shift_26
Note_On_74_Vel_67
Time_Shift_5
Note_On_76_Vel_0
Time_Shift_26
Note_On_66_Vel_57
Time_Shift_1
Note_On_62_Vel_54
Time_Shift_12
Note_On_74_Vel_0
Time_Shift_24
Note_On_66_Vel_0
Time_Shift_2
Note_On_62_Vel_0
Time_Shift_247
Note_On_83_Vel_59
Time_Shift_54
Note_On_81_Vel_79
Time_Shift_18
Note_On_83_Vel_0
Time_Shift_31
Note_On_81_Vel_0
Time_Shift_242
Note_On_66_Vel_76
Time_Shift_47
Note_On_69_Vel_74
Time_Shift_18
Note_On_66_Vel_0
Time_Shift_2
Note_On_50_Vel_59
Time_Shift_4
Note_On_54_Vel_52
Time_Shift_14
Note_On_69_Vel_0
Time_Shift_14
Note_On_50_Vel_0
Time_Shift_35
Note_On_54_Vel_0
Time_Shift_140
Note_On_83_Vel_72
Time_Shift_33
Note_On_83_Vel_0
Time_Shift_4
Note_On_81_Vel_75
Time_Shift_4
Note_On_57_Vel_49
Time_Shift_16
Note_On_81_Vel_0
Time_Shift_15
Note_On_57_Vel_0
Time_Shift_147
Note_On_49_Vel_66
Time_Shift_4
Note_On_67_Vel_66
Time_Shift_9
Note_On_55_Vel_67
Time_Shift_16
Note_On_81_Vel_72
Note_On_69_Vel_77
Time_Shift_7
Note_On_64_Vel_63
Time_Shift_8
Note_On_49_Vel_0
Time_Shift_1
Note_On_67_Vel_0
Time_Shift_7
Note_On_69_Vel_0
Time_Shift_15
Note_On_55_Vel_0
Time_Shift_19
Note_On_64_Vel_0
Time_Shift_69
Note_On_81_Vel_0
Time_Shift_74
Note_On_83_Vel_75
Time_Shift_24
Note_On_83_Vel_0
Time_Shift_7
Note_On_81_Vel_65
Time_Shift_15
Note_On_57_Vel_56
Time_Shift_23
Note_On_81_Vel_0
Time_Shift_26
Note_On_57_Vel_0
Time_Shift_125
Note_On_66_Vel_73
Time_Shift_29
Note_On_50_Vel_72
Time_Shift_3
Note_On_81_Vel_70
Time_Shift_1
Note_On_54_Vel_61
Note_On_69_Vel_72
Time_Shift_8
Note_On_66_Vel_0
Time_Shift_13
Note_On_81_Vel_0
Time_Shift_2
Note_On_54_Vel_0
Note_On_50_Vel_0
Time_Shift_27
Note_On_69_Vel_0
Time_Shift_137
Note_On_83_Vel_75
Time_Shift_31
Note_On_81_Vel_74
Time_Shift_2
Note_On_83_Vel_0
Time_Shift_3
Note_On_57_Vel_46
Time_Shift_34
Note_On_81_Vel_0
Time_Shift_1
Note_On_57_Vel_0
Time_Shift_133
Note_On_66_Vel_76
Time_Shift_32
Note_On_66_Vel_0
Time_Shift_2
Note_On_42_Vel_59
Time_Shift_5
Note_On_69_Vel_71
Time_Shift_42
Note_On_42_Vel_0
Note_On_69_Vel_0
Time_Shift_145
Note_On_88_Vel_82
Time_Shift_21
Note_On_62_Vel_72
Time_Shift_5
Note_On_54_Vel_74
Time_Shift_1
Note_On_57_Vel_65
Time_Shift_10
Note_On_86_Vel_86
Time_Shift_13
Note_On_62_Vel_0
Time_Shift_1
Note_On_88_Vel_0
Time_Shift_6
Note_On_57_Vel_0
Time_Shift_13
Note_On_54_Vel_0
Time_Shift_8
Note_On_86_Vel_0
Time_Shift_109
Note_On_85_Vel_85
Time_Shift_34
Note_On_31_Vel_63
Note_On_43_Vel_69
Time_Shift_7
Note_On_83_Vel_78
Time_Shift_1
Note_On_85_Vel_0
Time_Shift_2
Note_On_31_Vel_0
Time_Shift_13
Note_On_43_Vel_0
Time_Shift_26
Note_On_83_Vel_0
Time_Shift_119
Note_On_82_Vel_76
Time_Shift_29
Note_On_82_Vel_0
Time_Shift_7
Note_On_83_Vel_71
Time_Shift_5
Note_On_63_Vel_65
Time_Shift_3
Note_On_59_Vel_67
Time_Shift_1
Note_On_55_Vel_66
Time_Shift_18
Note_On_83_Vel_0
Time_Shift_15
Note_On_63_Vel_0
Time_Shift_3
Note_On_59_Vel_0
Time_Shift_2
Note_On_55_Vel_0
Time_Shift_140
Note_On_75_Vel_72
Time_Shift_38
Note_On_64_Vel_69
Note_On_76_Vel_75
Time_Shift_4
Note_On_55_Vel_63
Time_Shift_3
Note_On_59_Vel_60
Time_Shift_12
Note_On_75_Vel_0
Time_Shift_4
Note_On_76_Vel_0
Time_Shift_9
Note_On_64_Vel_0
Time_Shift_33
Note_On_55_Vel_0
Note_On_59_Vel_0
Time_Shift_106
Note_On_78_Vel_77
Time_Shift_37
Note_On_79_Vel_79
Time_Shift_11
Note_On_78_Vel_0
Time_Shift_38
Note_On_79_Vel_0
Time_Shift_117
Note_On_81_Vel_74
Time_Shift_41
Note_On_81_Vel_0
Time_Shift_2
Note_On_83_Vel_76
Time_Shift_14
Note_On_55_Vel_58
Time_Shift_2
Note_On_59_Vel_56
Time_Shift_3
Note_On_64_Vel_52
Time_Shift_32
Note_On_64_Vel_0
Time_Shift_1
Note_On_55_Vel_0
Time_Shift_1
Note_On_59_Vel_0
Time_Shift_2
Note_On_83_Vel_0
Time_Shift_129
Note_On_76_Vel_74
Time_Shift_23
Note_On_76_Vel_0
Time_Shift_52
Note_On_76_Vel_78
Time_Shift_6
Note_On_62_Vel_53
Note_On_68_Vel_49
Time_Shift_1
Note_On_64_Vel_51
Time_Shift_1
Note_On_59_Vel_37
Time_Shift_15
Note_On_76_Vel_0
Time_Shift_5
Note_On_68_Vel_0
Note_On_62_Vel_0
Time_Shift_22
Note_On_64_Vel_0
Time_Shift_23
Note_On_59_Vel_0
Time_Shift_175
Note_On_78_Vel_76
Time_Shift_35
Note_On_78_Vel_0
Time_Shift_24
Note_On_64_Vel_52
Time_Shift_1
Note_On_57_Vel_50
Time_Shift_1
Note_On_76_Vel_67
Time_Shift_3
Note_On_61_Vel_52
Time_Shift_5
Note_On_69_Vel_48
Time_Shift_26
Note_On_64_Vel_0
Time_Shift_1
Note_On_57_Vel_0
Time_Shift_2
Note_On_61_Vel_0
Time_Shift_2
Note_On_76_Vel_0
Time_Shift_24
Note_On_69_Vel_0
Time_Shift_152
Note_On_78_Vel_63
Time_Shift_48
Note_On_78_Vel_0
Time_Shift_1
Note_On_79_Vel_74
Time_Shift_34
Note_On_79_Vel_0
Time_Shift_145
Note_On_80_Vel_73
Time_Shift_43
Note_On_80_Vel_0
Note_On_81_Vel_67
Time_Shift_29
Note_On_81_Vel_0
Time_Shift_14
Note_On_62_Vel_53
Time_Shift_1
Note_On_50_Vel_56
Time_Shift_29
Note_On_62_Vel_0
Time_Shift_4
Note_On_50_Vel_0
Time_Shift_125
Note_On_95_Vel_87
Time_Shift_29
Note_On_93_Vel_88
Time_Shift_20
Note_On_57_Vel_69
Time_Shift_25
Note_On_95_Vel_0
Time_Shift_8
Note_On_57_Vel_0
Time_Shift_8
Note_On_93_Vel_0
Time_Shift_122
Note_On_79_Vel_84
Time_Shift_36
Note_On_67_Vel_56
Time_Shift_1
Note_On_81_Vel_80
Time_Shift_1
Note_On_61_Vel_73
Time_Shift_2
Note_On_69_Vel_63
Time_Shift_7
Note_On_79_Vel_0
Time_Shift_20
Note_On_81_Vel_0
Time_Shift_6
Note_On_69_Vel_0
Time_Shift_4
Note_On_67_Vel_0
Note_On_61_Vel_0
Time_Shift_136
Note_On_95_Vel_95
Time_Shift_32
Note_On_93_Vel_83
Time_Shift_5
Note_On_57_Vel_65
Time_Shift_3
Note_On_95_Vel_0
Time_Shift_21
Note_On_57_Vel_0
Time_Shift_26
Note_On_93_Vel_0
Time_Shift_111
Note_On_78_Vel_86
Time_Shift_39
Note_On_62_Vel_62
Time_Shift_1
Note_On_81_Vel_77
Time_Shift_5
Note_On_69_Vel_55
Time_Shift_1
Note_On_66_Vel_53
Time_Shift_20
Note_On_78_Vel_0
Time_Shift_5
Note_On_62_Vel_0
Note_On_69_Vel_0
Note_On_66_Vel_0
Time_Shift_2
Note_On_81_Vel_0
Time_Shift_172
Note_On_95_Vel_96
Time_Shift_17
Note_On_57_Vel_65
Time_Shift_2
Note_On_69_Vel_62
Time_Shift_2
Note_On_93_Vel_94
Time_Shift_26
Note_On_69_Vel_0
Time_Shift_2
Note_On_57_Vel_0
Time_Shift_10
Note_On_95_Vel_0
Time_Shift_15
Note_On_93_Vel_0
Time_Shift_178
Note_On_78_Vel_82
Time_Shift_37
Note_On_81_Vel_86
Time_Shift_3
Note_On_69_Vel_64
Time_Shift_1
Note_On_62_Vel_64
Time_Shift_2
Note_On_66_Vel_64
Time_Shift_25
Note_On_78_Vel_0
Note_On_66_Vel_0
Time_Shift_1
Note_On_69_Vel_0
Time_Shift_1
Note_On_81_Vel_0
Time_Shift_21
Note_On_62_Vel_0
Time_Shift_201
Note_On_100_Vel_98
Time_Shift_36
Note_On_98_Vel_97
Time_Shift_55
Note_On_100_Vel_0
Time_Shift_30
Note_On_98_Vel_0
Time_Shift_96
Note_On_97_Vel_102
Time_Shift_26
Note_On_95_Vel_101
Time_Shift_6
Note_On_43_Vel_73
Time_Shift_16
Note_On_97_Vel_0
Time_Shift_11
Note_On_43_Vel_0
Time_Shift_91
Note_On_95_Vel_0
Time_Shift_80
Note_On_93_Vel_86
Time_Shift_24
Note_On_91_Vel_90
Time_Shift_8
Note_On_59_Vel_67
Time_Shift_8
Note_On_55_Vel_63
Time_Shift_153
Note_On_90_Vel_75
Time_Shift_40
Note_On_88_Vel_80
Time_Shift_2
Note_On_55_Vel_0
Note_On_59_Vel_0
Time_Shift_5
Note_On_64_Vel_70
Time_Shift_2
Note_On_91_Vel_0
Time_Shift_2
Note_On_55_Vel_59
Time_Shift_2
Note_On_59_Vel_55
Time_Shift_1
Note_On_90_Vel_0
Time_Shift_3
Note_On_93_Vel_0
Time_Shift_19
Note_On_64_Vel_0
Time_Shift_20
Note_On_55_Vel_0
Note_On_59_Vel_0
Note_On_88_Vel_0
Time_Shift_157
Note_On_86_Vel_78
Time_Shift_30
Note_On_85_Vel_85
Time_Shift_10
Note_On_86_Vel_0
Time_Shift_10
Note_On_85_Vel_0
Time_Shift_172
Note_On_83_Vel_68
Time_Shift_32
Note_On_83_Vel_0
Time_Shift_6
Note_On_81_Vel_74
Time_Shift_2
Note_On_45_Vel_66
Time_Shift_25
Note_On_81_Vel_0
Note_On_45_Vel_0
Time_Shift_242
Note_On_79_Vel_72
Time_Shift_48
Note_On_67_Vel_52
Time_Shift_2
Note_On_78_Vel_71
Time_Shift_3
Note_On_57_Vel_48
Time_Shift_6
Note_On_79_Vel_0
Time_Shift_1
Note_On_61_Vel_43
Time_Shift_21
Note_On_78_Vel_0
Time_Shift_6
Note_On_67_Vel_0
Time_Shift_294
Note_On_76_Vel_50
Time_Shift_37
Note_On_61_Vel_0
Time_Shift_12
Note_On_74_Vel_65
Time_Shift_5
Note_On_57_Vel_0
Time_Shift_8
Note_On_76_Vel_0
Time_Shift_11
Note_On_66_Vel_43
Time_Shift_2
Note_On_62_Vel_41
Time_Shift_41
Note_On_74_Vel_0
Time_Shift_284
Note_On_66_Vel_0
Time_Shift_7
Note_On_62_Vel_0
Time_Shift_76
Note_On_78_Vel_63
Time_Shift_357
Note_On_81_Vel_72
Time_Shift_1
Note_On_49_Vel_64
Time_Shift_33
Note_On_49_Vel_0
Time_Shift_25
Note_On_78_Vel_0
Time_Shift_294
Note_On_67_Vel_53
Time_Shift_2
Note_On_64_Vel_54
Time_Shift_3
Note_On_57_Vel_52
Time_Shift_23
Note_On_67_Vel_0
Time_Shift_3
Note_On_64_Vel_0
Time_Shift_21
Note_On_57_Vel_0
Time_Shift_50
Note_On_79_Vel_62
Time_Shift_26
Note_On_81_Vel_0
Time_Shift_5
Note_On_79_Vel_0
Time_Shift_29
Note_On_78_Vel_63
Time_Shift_38
Note_On_79_Vel_77
Time_Shift_28
Note_On_78_Vel_0
Time_Shift_4
Note_On_79_Vel_0
Time_Shift_5
Note_On_78_Vel_80
Time_Shift_13
Note_On_50_Vel_63
Time_Shift_24
Note_On_78_Vel_0
Time_Shift_8
Note_On_50_Vel_0
Time_Shift_246
Note_On_77_Vel_74
Time_Shift_40
Note_On_77_Vel_0
Time_Shift_11
Note_On_78_Vel_78
Time_Shift_7
Note_On_62_Vel_53
Note_On_66_Vel_57
Note_On_57_Vel_56
Time_Shift_23
Note_On_66_Vel_0
Time_Shift_10
Note_On_57_Vel_0
Time_Shift_1
Note_On_78_Vel_0
Time_Shift_15
Note_On_62_Vel_0
Time_Shift_190
Note_On_74_Vel_71
Time_Shift_52
Note_On_78_Vel_93
Time_Shift_2
Note_On_46_Vel_76
Time_Shift_15
Note_On_74_Vel_0
Time_Shift_13
Note_On_46_Vel_0
Time_Shift_224
Note_On_64_Vel_65
Time_Shift_1
Note_On_61_Vel_56
Time_Shift_7
Note_On_54_Vel_62
Time_Shift_29
Note_On_64_Vel_0
Time_Shift_1
Note_On_61_Vel_0
Time_Shift_1
Note_On_54_Vel_0
Time_Shift_46
Note_On_76_Vel_61
Time_Shift_41
Note_On_78_Vel_0
Time_Shift_16
Note_On_76_Vel_0
Time_Shift_13
Note_On_74_Vel_63
Time_Shift_32
Note_On_74_Vel_0
Time_Shift_12
Note_On_76_Vel_75
Time_Shift_46
Note_On_76_Vel_0
Time_Shift_8
Note_On_74_Vel_85
Time_Shift_5
Note_On_47_Vel_65
Time_Shift_19
Note_On_74_Vel_0
Time_Shift_26
Note_On_47_Vel_0
Time_Shift_218
Note_On_73_Vel_68
Time_Shift_33
Note_On_73_Vel_0
Time_Shift_12
Note_On_74_Vel_61
Time_Shift_1
Note_On_62_Vel_61
Time_Shift_6
Note_On_59_Vel_56
Time_Shift_9
Note_On_54_Vel_57
Time_Shift_16
Note_On_74_Vel_0
Time_Shift_3
Note_On_62_Vel_0
Time_Shift_4
Note_On_59_Vel_0
Time_Shift_28
Note_On_54_Vel_0
Time_Shift_165
Note_On_71_Vel_61
Time_Shift_39
Note_On_71_Vel_0
Time_Shift_15
Note_On_74_Vel_71
Time_Shift_14
Note_On_44_Vel_61
Time_Shift_32
Note_On_44_Vel_0
Time_Shift_27
Sustain_On
Time_Shift_121
Note_On_73_Vel_66
Time_Shift_25
Note_On_74_Vel_0
Time_Shift_7
Note_On_74_Vel_53
Time_Shift_9
Sustain_Off
Time_Shift_21
Note_On_65_Vel_53
Time_Shift_1
Note_On_73_Vel_0
Time_Shift_5
Note_On_73_Vel_82
Time_Shift_4
Note_On_62_Vel_46
Time_Shift_11
Note_On_59_Vel_46
Time_Shift_16
Note_On_65_Vel_0
Note_On_62_Vel_0
Time_Shift_1
Note_On_73_Vel_0
Time_Shift_9
Note_On_74_Vel_0
Time_Shift_31
Note_On_59_Vel_0
Time_Shift_49
Note_On_71_Vel_76
Time_Shift_49
Note_On_71_Vel_0
Time_Shift_79
Note_On_45_Vel_59
Time_Shift_2
Note_On_81_Vel_63
Time_Shift_2
Note_On_69_Vel_69
Time_Shift_3
Note_On_81_Vel_0
Time_Shift_39
Note_On_45_Vel_0
Time_Shift_8
Note_On_69_Vel_0
Time_Shift_174
Note_On_71_Vel_71
Time_Shift_36
Note_On_73_Vel_89
Time_Shift_1
Note_On_66_Vel_71
Time_Shift_1
Note_On_62_Vel_62
Time_Shift_1
Note_On_71_Vel_0
Time_Shift_20
Note_On_73_Vel_0
Time_Shift_3
Note_On_57_Vel_63
Time_Shift_2
Note_On_62_Vel_0
Time_Shift_15
Note_On_66_Vel_0
Time_Shift_23
Note_On_57_Vel_0
Time_Shift_136
Note_On_74_Vel_76
Time_Shift_43
Note_On_76_Vel_81
Note_On_45_Vel_73
Time_Shift_1
Note_On_74_Vel_0
Time_Shift_23
Note_On_76_Vel_0
Time_Shift_6
Note_On_45_Vel_0
Time_Shift_164
Note_On_83_Vel_81
Time_Shift_38
Note_On_81_Vel_81
Time_Shift_2
Note_On_67_Vel_63
Time_Shift_5
Note_On_57_Vel_56
Time_Shift_1
Note_On_61_Vel_56
Time_Shift_8
Note_On_83_Vel_0
Time_Shift_16
Note_On_81_Vel_0
Note_On_67_Vel_0
Time_Shift_14
Note_On_57_Vel_0
Time_Shift_1
Note_On_61_Vel_0
Time_Shift_158
Note_On_77_Vel_79
Time_Shift_35
Note_On_77_Vel_0
Time_Shift_8
Note_On_50_Vel_64
Time_Shift_1
Note_On_78_Vel_80
Time_Shift_22
Note_On_78_Vel_0
Time_Shift_25
Note_On_50_Vel_0
Time_Shift_188
Note_On_83_Vel_64
Time_Shift_46
Note_On_81_Vel_78
Time_Shift_6
Note_On_57_Vel_56
Time_Shift_1
Note_On_83_Vel_0
Note_On_66_Vel_60
Time_Shift_4
Note_On_62_Vel_52
Time_Shift_22
Note_On_81_Vel_0
Time_Shift_5
Note_On_66_Vel_0
Time_Shift_1
Note_On_57_Vel_0
Time_Shift_1
Note_On_62_Vel_0
Time_Shift_254
Note_On_80_Vel_77
Time_Shift_22
Note_On_80_Vel_0
Time_Shift_71
Note_On_49_Vel_55
Time_Shift_4
Note_On_81_Vel_78
Time_Shift_26
Note_On_49_Vel_0
Time_Shift_15
Note_On_81_Vel_0
Time_Shift_39
Note_On_83_Vel_77
Time_Shift_74
Note_On_81_Vel_83
Time_Shift_7
Note_On_83_Vel_0
Time_Shift_40
Note_On_81_Vel_0
Time_Shift_22
Note_On_80_Vel_88
Time_Shift_6
Note_On_64_Vel_67
Time_Shift_2
Note_On_67_Vel_61
Note_On_57_Vel_58
Time_Shift_16
Note_On_80_Vel_0
Time_Shift_8
Note_On_67_Vel_0
Time_Shift_1
Note_On_64_Vel_0
Time_Shift_7
Note_On_57_Vel_0
Time_Shift_43
Note_On_81_Vel_72
Time_Shift_60
Note_On_81_Vel_0
Time_Shift_10
Note_On_79_Vel_80
Time_Shift_60
Note_On_79_Vel_0
Time_Shift_20
Note_On_78_Vel_80
Note_On_50_Vel_66
Time_Shift_28
Note_On_50_Vel_0
Time_Shift_1
Note_On_78_Vel_0
Time_Shift_56
Note_On_79_Vel_70
Time_Shift_45
Note_On_79_Vel_0
Time_Shift_14
Note_On_78_Vel_76
Time_Shift_46
Note_On_78_Vel_0
Time_Shift_38
Note_On_77_Vel_72
Time_Shift_6
Note_On_66_Vel_60
Time_Shift_3
Note_On_62_Vel_56
Time_Shift_1
Note_On_57_Vel_53
Time_Shift_23
Note_On_66_Vel_0
Time_Shift_10
Note_On_77_Vel_0
Time_Shift_15
Note_On_57_Vel_0
Note_On_62_Vel_0
Time_Shift_16
Note_On_78_Vel_81
Time_Shift_27
Note_On_78_Vel_0
Time_Shift_45
Note_On_74_Vel_65
Time_Shift_38
Note_On_74_Vel_0
Time_Shift_29
Note_On_46_Vel_68
Time_Shift_3
Note_On_78_Vel_77
Time_Shift_21
Note_On_46_Vel_0
Time_Shift_8
Note_On_78_Vel_0
Time_Shift_43
Note_On_79_Vel_72
Time_Shift_57
Note_On_79_Vel_0
Time_Shift_24
Note_On_78_Vel_73
Time_Shift_31
Note_On_78_Vel_0
Time_Shift_28
Note_On_64_Vel_59
Time_Shift_4
Note_On_54_Vel_65
Time_Shift_1
Note_On_77_Vel_70
Time_Shift_28
Note_On_64_Vel_0
Note_On_54_Vel_0
Time_Shift_42
Note_On_78_Vel_71
Time_Shift_15
Note_On_77_Vel_0
Time_Shift_44
Note_On_76_Vel_66
Time_Shift_2
Note_On_78_Vel_0
Time_Shift_24
Note_On_76_Vel_0
Time_Shift_55
Note_On_47_Vel_68
Time_Shift_2
Note_On_74_Vel_75
Time_Shift_27
Note_On_47_Vel_0
Time_Shift_11
Note_On_74_Vel_0
Time_Shift_23
Note_On_76_Vel_69
Time_Shift_78
Note_On_76_Vel_0
Time_Shift_4
Note_On_74_Vel_67
Time_Shift_49
Note_On_74_Vel_0
Time_Shift_10
Note_On_62_Vel_65
Time_Shift_15
Note_On_59_Vel_56
Time_Shift_2
Note_On_54_Vel_61
Time_Shift_8
Note_On_73_Vel_73
Time_Shift_20
Note_On_62_Vel_0
Time_Shift_9
Note_On_54_Vel_0
Note_On_59_Vel_0
Time_Shift_17
Note_On_73_Vel_0
Time_Shift_12
Note_On_74_Vel_64
Time_Shift_36
Note_On_74_Vel_0
Time_Shift_32
Note_On_71_Vel_70
Time_Shift_55
Note_On_71_Vel_0
Time_Shift_20
Note_On_44_Vel_69
Time_Shift_1
Note_On_74_Vel_77
Time_Shift_25
Note_On_44_Vel_0
Time_Shift_5
Note_On_74_Vel_0
Time_Shift_38
Note_On_76_Vel_78
Time_Shift_64
Note_On_76_Vel_0
Time_Shift_8
Note_On_74_Vel_69
Time_Shift_54
Note_On_74_Vel_0
Time_Shift_4
Note_On_65_Vel_63
Time_Shift_2
Note_On_62_Vel_64
Time_Shift_8
Note_On_73_Vel_81
Time_Shift_7
Note_On_59_Vel_59
Time_Shift_16
Note_On_65_Vel_0
Time_Shift_2
Note_On_62_Vel_0
Time_Shift_5
Note_On_73_Vel_0
Time_Shift_20
Note_On_59_Vel_0
Time_Shift_12
Note_On_74_Vel_68
Time_Shift_62
Note_On_74_Vel_0
Time_Shift_14
Note_On_71_Vel_74
Time_Shift_40
Note_On_71_Vel_0
Time_Shift_33
Note_On_45_Vel_63
Time_Shift_2
Note_On_81_Vel_69
Time_Shift_2
Note_On_69_Vel_77
Time_Shift_4
Note_On_81_Vel_0
Time_Shift_20
Note_On_45_Vel_0
Time_Shift_8
Note_On_69_Vel_0
Time_Shift_43
Note_On_71_Vel_79
Time_Shift_40
Note_On_71_Vel_0
Time_Shift_26
Note_On_73_Vel_84
Time_Shift_36
Note_On_73_Vel_0
Time_Shift_39
Note_On_74_Vel_82
Time_Shift_7
Note_On_66_Vel_67
Note_On_57_Vel_64
Time_Shift_1
Note_On_62_Vel_58
Time_Shift_25
Note_On_74_Vel_0
Note_On_62_Vel_0
Time_Shift_2
Note_On_66_Vel_0
Time_Shift_22
Note_On_57_Vel_0
Time_Shift_23
Note_On_76_Vel_75
Time_Shift_51
Note_On_76_Vel_0
Time_Shift_30
Note_On_77_Vel_86
Time_Shift_64
Note_On_77_Vel_0
Time_Shift_4
Note_On_45_Vel_63
Time_Shift_6
Note_On_78_Vel_87
Time_Shift_18
Note_On_45_Vel_0
Time_Shift_9
Note_On_78_Vel_0
Time_Shift_52
Note_On_79_Vel_82
Time_Shift_36
Note_On_79_Vel_0
Time_Shift_32
Note_On_80_Vel_89
Time_Shift_29
Note_On_80_Vel_0
Time_Shift_49
Note_On_81_Vel_77
Note_On_67_Vel_56
Time_Shift_1
Note_On_64_Vel_56
Time_Shift_2
Note_On_57_Vel_58
Time_Shift_22
Note_On_67_Vel_0
Time_Shift_1
Note_On_64_Vel_0
Time_Shift_4
Note_On_81_Vel_0
Time_Shift_20
Note_On_57_Vel_0
Time_Shift_19
Note_On_83_Vel_89
Time_Shift_72
Note_On_83_Vel_0
Time_Shift_3
Note_On_85_Vel_90
Time_Shift_57
Note_On_86_Vel_95
Time_Shift_3
Note_On_85_Vel_0
Time_Shift_19
Note_On_50_Vel_70
Time_Shift_16
Note_On_86_Vel_0
Time_Shift_26
Note_On_50_Vel_0
Time_Shift_279
Note_On_57_Vel_56
Time_Shift_2
Note_On_66_Vel_54
Time_Shift_1
Note_On_62_Vel_52
Time_Shift_24
Note_On_57_Vel_0
Time_Shift_25
Note_On_62_Vel_0
Note_On_66_Vel_0
Time_Shift_310
Note_On_81_Vel_68
Time_Shift_1
Note_On_49_Vel_58
Time_Shift_38
Note_On_49_Vel_0
Time_Shift_271
Note_On_67_Vel_51
Time_Shift_6
Note_On_57_Vel_53
Note_On_64_Vel_51
Time_Shift_24
Note_On_81_Vel_0
Time_Shift_5
Note_On_67_Vel_0
Time_Shift_3
Note_On_57_Vel_0
Time_Shift_1
Note_On_64_Vel_0
Time_Shift_38
Note_On_79_Vel_57
Time_Shift_51
Note_On_78_Vel_75
Time_Shift_12
Note_On_79_Vel_0
Time_Shift_38
Note_On_78_Vel_0
Time_Shift_9
Note_On_79_Vel_68
Time_Shift_31
Note_On_78_Vel_85
Time_Shift_1
Note_On_79_Vel_0
Time_Shift_25
Note_On_50_Vel_62
Time_Shift_19
Note_On_78_Vel_0
Time_Shift_31
Note_On_50_Vel_0
Time_Shift_220
Note_On_77_Vel_70
Time_Shift_32
Note_On_77_Vel_0
Time_Shift_14
Note_On_78_Vel_79
Time_Shift_7
Note_On_66_Vel_60
Time_Shift_1
Note_On_57_Vel_56
Time_Shift_26
Note_On_66_Vel_0
Time_Shift_6
Note_On_57_Vel_0
Time_Shift_1
Note_On_78_Vel_0
Time_Shift_213
Note_On_74_Vel_66
Time_Shift_50
Note_On_74_Vel_0
Time_Shift_5
Note_On_78_Vel_84
Time_Shift_3
Note_On_46_Vel_64
Time_Shift_29
Note_On_46_Vel_0
Time_Shift_239
Note_On_64_Vel_61
Time_Shift_14
Note_On_61_Vel_36
Time_Shift_2
Note_On_54_Vel_47
Time_Shift_18
Note_On_64_Vel_0
Time_Shift_26
Note_On_61_Vel_0
Time_Shift_7
Note_On_54_Vel_0
Time_Shift_9
Note_On_76_Vel_58
Time_Shift_22
Note_On_78_Vel_0
Time_Shift_31
Note_On_76_Vel_0
Time_Shift_5
Note_On_74_Vel_62
Time_Shift_38
Note_On_74_Vel_0
Time_Shift_8
Note_On_76_Vel_74
Time_Shift_35
Note_On_76_Vel_0
Time_Shift_11
Note_On_74_Vel_76
Time_Shift_21
Note_On_47_Vel_62
Time_Shift_25
Note_On_74_Vel_0
Time_Shift_5
Note_On_47_Vel_0
Time_Shift_217
Note_On_73_Vel_69
Time_Shift_42
Note_On_73_Vel_0
Time_Shift_11
Note_On_74_Vel_62
Time_Shift_9
Note_On_62_Vel_57
Time_Shift_6
Note_On_59_Vel_57
Time_Shift_6
Note_On_54_Vel_60
Time_Shift_26
Note_On_62_Vel_0
Time_Shift_1
Note_On_59_Vel_0
Note_On_54_Vel_0
Time_Shift_2
Note_On_74_Vel_0
Time_Shift_182
Note_On_71_Vel_66
Time_Shift_44
Note_On_71_Vel_0
Time_Shift_13
Note_On_74_Vel_77
Time_Shift_17
Note_On_44_Vel_55
Time_Shift_26
Note_On_44_Vel_0
Time_Shift_26
Note_On_74_Vel_0
Time_Shift_95
Note_On_73_Vel_54
Time_Shift_29
Note_On_74_Vel_66
Time_Shift_29
Note_On_73_Vel_0
Time_Shift_5
Note_On_73_Vel_84
Time_Shift_1
Note_On_74_Vel_0
Time_Shift_5
Note_On_62_Vel_61
Time_Shift_3
Note_On_65_Vel_58
Time_Shift_12
Note_On_59_Vel_63
Time_Shift_17
Note_On_73_Vel_0
Time_Shift_7
Note_On_62_Vel_0
Note_On_65_Vel_0
Time_Shift_7
Note_On_59_Vel_0
Time_Shift_70
Note_On_71_Vel_75
Time_Shift_39
Note_On_71_Vel_0
Time_Shift_88
Note_On_81_Vel_67
Time_Shift_4
Note_On_69_Vel_76
Note_On_45_Vel_55
Time_Shift_3
Note_On_81_Vel_0
Time_Shift_28
Note_On_69_Vel_0
Time_Shift_18
Note_On_45_Vel_0
Time_Shift_150
Note_On_71_Vel_75
Time_Shift_36
Note_On_73_Vel_84
Time_Shift_3
Note_On_71_Vel_0
Time_Shift_5
Note_On_66_Vel_66
Time_Shift_1
Note_On_57_Vel_70
Time_Shift_2
Note_On_62_Vel_58
Time_Shift_9
Note_On_73_Vel_0
Time_Shift_9
Note_On_66_Vel_0
Time_Shift_5
Note_On_57_Vel_0
Time_Shift_1
Note_On_62_Vel_0
Time_Shift_170
Note_On_74_Vel_72
Time_Shift_36
Note_On_74_Vel_0
Time_Shift_9
Note_On_76_Vel_80
Time_Shift_6
Note_On_45_Vel_59
Time_Shift_4
Note_On_73_Vel_62
Time_Shift_15
Note_On_76_Vel_0
Time_Shift_23
Note_On_73_Vel_0
Time_Shift_8
Note_On_45_Vel_0
Time_Shift_169
Note_On_83_Vel_76
Time_Shift_34
Note_On_83_Vel_0
Time_Shift_6
Note_On_67_Vel_66
Time_Shift_11
Note_On_81_Vel_79
Note_On_57_Vel_56
Time_Shift_4
Note_On_61_Vel_55
Time_Shift_20
Note_On_67_Vel_0
Time_Shift_10
Note_On_61_Vel_0
Time_Shift_15
Note_On_57_Vel_0
Note_On_81_Vel_0
Time_Shift_225
Note_On_77_Vel_63
Time_Shift_34
Note_On_77_Vel_0
Time_Shift_13
Note_On_50_Vel_55
Note_On_78_Vel_74
Time_Shift_27
Note_On_50_Vel_0
Time_Shift_16
Note_On_78_Vel_0
Time_Shift_212
Note_On_83_Vel_66
Time_Shift_52
Note_On_81_Vel_74
Time_Shift_13
Note_On_83_Vel_0
Time_Shift_3
Note_On_66_Vel_54
Note_On_57_Vel_47
Time_Shift_2
Note_On_62_Vel_48
Time_Shift_22
Note_On_81_Vel_0
Time_Shift_7
Note_On_66_Vel_0
Note_On_62_Vel_0
Time_Shift_1
Note_On_57_Vel_0
Time_Shift_272
Note_On_80_Vel_73
Time_Shift_27
Note_On_80_Vel_0
Time_Shift_28
Note_On_49_Vel_75
Time_Shift_31
Note_On_49_Vel_0
Time_Shift_4
Note_On_81_Vel_68
Time_Shift_66
Note_On_83_Vel_67
Time_Shift_5
Note_On_81_Vel_0
Time_Shift_71
Note_On_83_Vel_0
Time_Shift_9
Note_On_81_Vel_66
Time_Shift_31
Note_On_81_Vel_0
Time_Shift_44
Note_On_80_Vel_76
Time_Shift_7
Note_On_64_Vel_62
Time_Shift_2
Note_On_57_Vel_59
Time_Shift_1
Note_On_67_Vel_54
Time_Shift_27
Note_On_67_Vel_0
Time_Shift_3
Note_On_57_Vel_0
Time_Shift_4
Note_On_80_Vel_0
Time_Shift_8
Note_On_64_Vel_0
Time_Shift_35
Note_On_81_Vel_64
Time_Shift_43
Note_On_81_Vel_0
Time_Shift_31
Note_On_79_Vel_77
Time_Shift_49
Note_On_79_Vel_0
Time_Shift_29
Note_On_50_Vel_63
Time_Shift_8
Note_On_78_Vel_77
Time_Shift_23
Note_On_50_Vel_0
Time_Shift_6
Note_On_78_Vel_0
Time_Shift_56
Note_On_79_Vel_66
Time_Shift_38
Note_On_79_Vel_0
Time_Shift_24
Note_On_78_Vel_68
Time_Shift_39
Note_On_78_Vel_0
Time_Shift_29
Note_On_77_Vel_74
Time_Shift_8
Note_On_57_Vel_64
Time_Shift_10
Note_On_62_Vel_52
Time_Shift_2
Note_On_66_Vel_58
Time_Shift_27
Note_On_66_Vel_0
Note_On_62_Vel_0
Time_Shift_1
Note_On_57_Vel_0
Time_Shift_1
Note_On_77_Vel_0
Time_Shift_25
Note_On_78_Vel_81
Time_Shift_29
Note_On_78_Vel_0
Time_Shift_45
Note_On_74_Vel_69
Time_Shift_37
Note_On_74_Vel_0
Time_Shift_46
Note_On_78_Vel_83
Time_Shift_1
Note_On_46_Vel_70
Time_Shift_23
Note_On_78_Vel_0
Time_Shift_26
Note_On_46_Vel_0
Time_Shift_23
Note_On_79_Vel_73
Time_Shift_58
Note_On_79_Vel_0
Time_Shift_17
Note_On_78_Vel_75
Time_Shift_35
Note_On_78_Vel_0
Time_Shift_26
Note_On_77_Vel_76
Time_Shift_6
Note_On_64_Vel_66
Note_On_61_Vel_62
Time_Shift_7
Note_On_54_Vel_66
Time_Shift_20
Note_On_64_Vel_0
Time_Shift_4
Note_On_54_Vel_0
Time_Shift_16
Note_On_77_Vel_0
Time_Shift_3
Note_On_61_Vel_0
Time_Shift_21
Note_On_78_Vel_79
Time_Shift_54
Note_On_76_Vel_73
Time_Shift_10
Note_On_78_Vel_0
Time_Shift_20
Note_On_76_Vel_0
Time_Shift_50
Note_On_74_Vel_75
Time_Shift_2
Note_On_47_Vel_80
Time_Shift_32
Note_On_47_Vel_0
Time_Shift_14
Note_On_74_Vel_0
Time_Shift_12
Note_On_76_Vel_68
Time_Shift_63
Note_On_76_Vel_0
Time_Shift_11
Note_On_74_Vel_69
Time_Shift_54
Note_On_74_Vel_0
Time_Shift_16
Note_On_73_Vel_82
Time_Shift_8
Note_On_62_Vel_68
Note_On_66_Vel_65
Time_Shift_10
Note_On_54_Vel_70
Time_Shift_5
Note_On_59_Vel_46
Time_Shift_21
Note_On_62_Vel_0
Time_Shift_20
Note_On_59_Vel_0
Time_Shift_15
Note_On_54_Vel_0
Time_Shift_1
Note_On_74_Vel_67
Time_Shift_7
Note_On_73_Vel_0
Time_Shift_7
Note_On_66_Vel_0
Time_Shift_41
Note_On_71_Vel_77
Time_Shift_5
Note_On_74_Vel_0
Time_Shift_52
Note_On_71_Vel_0
Time_Shift_28
Note_On_74_Vel_69
Time_Shift_6
Note_On_44_Vel_66
Time_Shift_25
Note_On_74_Vel_0
Time_Shift_20
Note_On_44_Vel_0
Time_Shift_17
Note_On_76_Vel_65
Time_Shift_51
Note_On_76_Vel_0
Time_Shift_18
Note_On_74_Vel_63
Time_Shift_41
Note_On_74_Vel_0
Time_Shift_21
Note_On_73_Vel_75
Time_Shift_12
Note_On_65_Vel_56
Time_Shift_3
Note_On_62_Vel_57
Time_Shift_6
Note_On_59_Vel_41
Time_Shift_12
Note_On_73_Vel_0
Time_Shift_4
Note_On_65_Vel_0
Time_Shift_22
Note_On_62_Vel_0
Note_On_59_Vel_0
Time_Shift_12
Note_On_74_Vel_61
Time_Shift_45
Note_On_74_Vel_0
Time_Shift_20
Note_On_71_Vel_74
Time_Shift_40
Note_On_71_Vel_0
Time_Shift_54
Note_On_45_Vel_58
Time_Shift_1
Note_On_69_Vel_67
Time_Shift_24
Note_On_45_Vel_0
Time_Shift_1
Note_On_69_Vel_0
Time_Shift_48
Note_On_71_Vel_70
Time_Shift_36
Note_On_71_Vel_0
Time_Shift_47
Note_On_73_Vel_71
Time_Shift_33
Note_On_73_Vel_0
Time_Shift_35
Note_On_74_Vel_71
Time_Shift_1
Note_On_62_Vel_64
Time_Shift_4
Note_On_66_Vel_61
Note_On_57_Vel_60
Time_Shift_30
Note_On_62_Vel_0
Note_On_66_Vel_0
Time_Shift_2
Note_On_74_Vel_0
Time_Shift_1
Note_On_57_Vel_0
Time_Shift_43
Note_On_76_Vel_67
Time_Shift_34
Note_On_76_Vel_0
Time_Shift_57
Note_On_77_Vel_75
Time_Shift_40
Note_On_77_Vel_0
Time_Shift_25
Note_On_45_Vel_60
Time_Shift_9
Note_On_78_Vel_82
Time_Shift_18
Note_On_45_Vel_0
Time_Shift_9
Note_On_78_Vel_0
Time_Shift_54
Note_On_79_Vel_78
Time_Shift_66
Note_On_79_Vel_0
Time_Shift_6
Note_On_80_Vel_93
Time_Shift_56
Note_On_80_Vel_0
Time_Shift_29
Note_On_81_Vel_82
Time_Shift_1
Note_On_64_Vel_67
Note_On_67_Vel_65
Note_On_57_Vel_65
Time_Shift_30
Note_On_67_Vel_0
Time_Shift_1
Note_On_64_Vel_0
Time_Shift_1
Note_On_57_Vel_0
Time_Shift_45
Note_On_83_Vel_94
Time_Shift_3
Note_On_81_Vel_0
Time_Shift_79
Note_On_85_Vel_95
Time_Shift_5
Note_On_83_Vel_0
Time_Shift_49
Note_On_86_Vel_98
Time_Shift_12
Note_On_85_Vel_0
Time_Shift_4
Note_On_66_Vel_71
Note_On_62_Vel_71
Time_Shift_30
Note_On_86_Vel_0
Time_Shift_1
Note_On_66_Vel_0
Time_Shift_1
Note_On_62_Vel_0
Time_Shift_296
Note_On_83_Vel_70
Time_Shift_47
Note_On_81_Vel_75
Time_Shift_3
Note_On_83_Vel_0
Time_Shift_41
Note_On_81_Vel_0
Time_Shift_282
Note_On_66_Vel_60
Time_Shift_34
Note_On_81_Vel_70
Note_On_69_Vel_77
Time_Shift_1
Note_On_54_Vel_58
Time_Shift_1
Note_On_50_Vel_68
Time_Shift_6
Note_On_62_Vel_63
Time_Shift_18
Note_On_54_Vel_0
Time_Shift_3
Note_On_66_Vel_0
Note_On_81_Vel_0
Time_Shift_6
Note_On_50_Vel_0
Time_Shift_3
Note_On_62_Vel_0
Time_Shift_7
Note_On_69_Vel_0
Time_Shift_238
Note_On_83_Vel_60
Time_Shift_25
Note_On_81_Vel_74
Time_Shift_9
Note_On_69_Vel_50
Time_Shift_1
Note_On_83_Vel_0
Time_Shift_2
Note_On_57_Vel_53
Time_Shift_1
Note_On_69_Vel_0
Time_Shift_7
Note_On_81_Vel_0
Time_Shift_39
Note_On_57_Vel_0
Time_Shift_157
Note_On_49_Vel_63
Time_Shift_28
Note_On_55_Vel_56
Time_Shift_4
Note_On_69_Vel_78
Note_On_81_Vel_68
Time_Shift_2
Note_On_49_Vel_0
Time_Shift_30
Note_On_69_Vel_0
Time_Shift_3
Note_On_76_Vel_43
Time_Shift_1
Note_On_64_Vel_60
Time_Shift_13
Note_On_55_Vel_0
Time_Shift_16
Note_On_81_Vel_0
Time_Shift_15
Note_On_64_Vel_0
Time_Shift_23
Note_On_76_Vel_0
Time_Shift_122
Note_On_83_Vel_70
Time_Shift_20
Note_On_81_Vel_61
Time_Shift_9
Note_On_83_Vel_0
Note_On_57_Vel_56
Note_On_69_Vel_48
Time_Shift_26
Note_On_81_Vel_0
Time_Shift_30
Note_On_57_Vel_0
Time_Shift_16
Note_On_69_Vel_0
Time_Shift_96
Note_On_66_Vel_69
Time_Shift_4
Note_On_78_Vel_64
Time_Shift_7
Note_On_78_Vel_0
Time_Shift_12
Note_On_81_Vel_68
Time_Shift_7
Note_On_69_Vel_75
Time_Shift_1
Note_On_62_Vel_62
Time_Shift_2
Note_On_50_Vel_67
Time_Shift_1
Note_On_66_Vel_0
Time_Shift_3
Note_On_54_Vel_56
Time_Shift_10
Note_On_81_Vel_0
Time_Shift_12
Note_On_62_Vel_0
Time_Shift_3
Note_On_50_Vel_0
Time_Shift_3
Note_On_54_Vel_0
Time_Shift_8
Note_On_69_Vel_0
Time_Shift_146
Note_On_83_Vel_81
Time_Shift_21
Note_On_81_Vel_74
Time_Shift_6
Note_On_57_Vel_43
Time_Shift_3
Note_On_83_Vel_0
Time_Shift_31
Note_On_81_Vel_0
Time_Shift_23
Note_On_57_Vel_0
Time_Shift_112
Note_On_66_Vel_83
Time_Shift_6
Note_On_78_Vel_75
Time_Shift_26
Note_On_66_Vel_0
Time_Shift_1
Note_On_81_Vel_67
Time_Shift_3
Note_On_42_Vel_63
Time_Shift_1
Note_On_69_Vel_72
Note_On_78_Vel_0
Time_Shift_43
Note_On_42_Vel_0
Note_On_69_Vel_0
Note_On_81_Vel_0
Time_Shift_143
Note_On_88_Vel_84
Time_Shift_25
Note_On_86_Vel_88
Time_Shift_2
Note_On_62_Vel_61
Time_Shift_2
Note_On_54_Vel_64
Time_Shift_1
Note_On_57_Vel_56
Time_Shift_7
Note_On_88_Vel_0
Time_Shift_14
Note_On_86_Vel_0
Time_Shift_1
Note_On_62_Vel_0
Time_Shift_1
Note_On_54_Vel_0
Time_Shift_8
Note_On_57_Vel_0
Time_Shift_116
Note_On_85_Vel_85
Time_Shift_31
Note_On_83_Vel_82
Note_On_43_Vel_62
Time_Shift_18
Note_On_85_Vel_0
Time_Shift_15
Note_On_83_Vel_0
Time_Shift_15
Note_On_43_Vel_0
Time_Shift_127
Note_On_82_Vel_80
Time_Shift_29
Note_On_82_Vel_0
Time_Shift_1
Note_On_83_Vel_76
Time_Shift_8
Note_On_75_Vel_61
Time_Shift_2
Note_On_63_Vel_60
Time_Shift_2
Note_On_55_Vel_66
Time_Shift_1
Note_On_59_Vel_67
Time_Shift_21
Note_On_83_Vel_0
Time_Shift_9
Note_On_75_Vel_0
Time_Shift_4
Note_On_63_Vel_0
Time_Shift_1
Note_On_55_Vel_0
Note_On_59_Vel_0
Time_Shift_142
Note_On_75_Vel_73
Time_Shift_34
Note_On_75_Vel_0
Time_Shift_1
Note_On_64_Vel_70
Time_Shift_1
Note_On_76_Vel_70
Time_Shift_5
Note_On_59_Vel_64
Note_On_55_Vel_60
Time_Shift_18
Note_On_76_Vel_0
Time_Shift_10
Note_On_64_Vel_0
Time_Shift_4
Note_On_55_Vel_0
Time_Shift_1
Note_On_59_Vel_0
Time_Shift_123
Note_On_78_Vel_80
Time_Shift_29
Note_On_78_Vel_0
Time_Shift_16
Note_On_79_Vel_73
Time_Shift_32
Note_On_79_Vel_0
Time_Shift_130
Note_On_81_Vel_74
Time_Shift_44
Note_On_83_Vel_75
Time_Shift_7
Note_On_59_Vel_60
Time_Shift_2
Note_On_55_Vel_53
Time_Shift_7
Note_On_64_Vel_43
Time_Shift_3
Note_On_81_Vel_0
Time_Shift_24
Note_On_55_Vel_0
Time_Shift_2
Note_On_59_Vel_0
Time_Shift_5
Note_On_83_Vel_0
Time_Shift_7
Note_On_64_Vel_0
Time_Shift_135
Note_On_76_Vel_71
Time_Shift_50
Note_On_76_Vel_0
Time_Shift_11
Note_On_76_Vel_81
Time_Shift_8
Note_On_62_Vel_55
Time_Shift_2
Note_On_64_Vel_54
Time_Shift_6
Note_On_59_Vel_44
Time_Shift_2
Note_On_56_Vel_43
Time_Shift_8
Note_On_76_Vel_0
Time_Shift_9
Note_On_62_Vel_0
Time_Shift_17
Note_On_59_Vel_0
Time_Shift_4
Note_On_56_Vel_0
Time_Shift_2
Note_On_64_Vel_0
Time_Shift_190
Note_On_78_Vel_70
Time_Shift_54
Note_On_76_Vel_71
Time_Shift_1
Note_On_57_Vel_55
Note_On_61_Vel_56
Time_Shift_1
Note_On_78_Vel_0
Time_Shift_2
Note_On_64_Vel_49
Time_Shift_4
Note_On_69_Vel_45
Time_Shift_29
Note_On_57_Vel_0
Time_Shift_2
Note_On_76_Vel_0
Time_Shift_2
Note_On_64_Vel_0
Time_Shift_1
Note_On_61_Vel_0
Time_Shift_14
Note_On_69_Vel_0
Time_Shift_171
Note_On_78_Vel_66
Time_Shift_27
Note_On_78_Vel_0
Time_Shift_20
Note_On_79_Vel_75
Time_Shift_31
Note_On_79_Vel_0
Time_Shift_168
Note_On_80_Vel_67
Time_Shift_30
Note_On_81_Vel_74
Time_Shift_14
Note_On_80_Vel_0
Time_Shift_4
Note_On_62_Vel_60
Time_Shift_7
Note_On_50_Vel_53
Time_Shift_21
Note_On_81_Vel_0
Time_Shift_2
Note_On_62_Vel_0
Time_Shift_2
Note_On_50_Vel_0
Time_Shift_185
Note_On_95_Vel_88
Time_Shift_25
Note_On_93_Vel_93
Time_Shift_17
Note_On_69_Vel_68
Time_Shift_1
Note_On_95_Vel_0
Time_Shift_2
Note_On_57_Vel_71
Time_Shift_12
Note_On_93_Vel_0
Time_Shift_7
Note_On_69_Vel_0
Time_Shift_8
Note_On_57_Vel_0
Time_Shift_142
Note_On_79_Vel_88
Time_Shift_30
Note_On_79_Vel_0
Time_Shift_8
Note_On_67_Vel_67
Time_Shift_3
Note_On_81_Vel_79
Time_Shift_2
Note_On_69_Vel_67
Time_Shift_1
Note_On_61_Vel_74
Time_Shift_16
Note_On_67_Vel_0
Time_Shift_10
Note_On_81_Vel_0
Time_Shift_5
Note_On_61_Vel_0
Time_Shift_20
Note_On_69_Vel_0
Time_Shift_138
Note_On_95_Vel_93
Time_Shift_25
Note_On_93_Vel_87
Time_Shift_10
Note_On_57_Vel_73
Time_Shift_8
Note_On_95_Vel_0
Time_Shift_22
Note_On_57_Vel_0
Time_Shift_35
Note_On_93_Vel_0
Time_Shift_107
Note_On_78_Vel_81
Time_Shift_28
Note_On_81_Vel_82
Time_Shift_9
Note_On_69_Vel_61
Time_Shift_1
Note_On_62_Vel_61
Time_Shift_6
Note_On_66_Vel_61
Time_Shift_14
Note_On_81_Vel_0
Time_Shift_4
Note_On_78_Vel_0
Time_Shift_1
Note_On_69_Vel_0
Time_Shift_22
Note_On_62_Vel_0
Note_On_66_Vel_0
Time_Shift_171
Note_On_95_Vel_88
Time_Shift_35
Note_On_69_Vel_65
Time_Shift_1
Note_On_93_Vel_80
Time_Shift_2
Note_On_57_Vel_65
Time_Shift_26
Note_On_69_Vel_0
Time_Shift_4
Note_On_57_Vel_0
Time_Shift_6
Note_On_95_Vel_0
Time_Shift_23
Note_On_93_Vel_0
Time_Shift_193
Note_On_78_Vel_76
Time_Shift_34
Note_On_81_Vel_78
Time_Shift_5
Note_On_62_Vel_59
Time_Shift_2
Note_On_69_Vel_52
Time_Shift_1
Note_On_66_Vel_59
Time_Shift_19
Note_On_78_Vel_0
Time_Shift_4
Note_On_81_Vel_0
Time_Shift_1
Note_On_66_Vel_0
Note_On_69_Vel_0
Time_Shift_2
Note_On_62_Vel_0
Time_Shift_228
Note_On_100_Vel_93
Time_Shift_37
Note_On_98_Vel_88
Time_Shift_89
Note_On_100_Vel_0
Time_Shift_69
Note_On_98_Vel_0
Time_Shift_13
Note_On_97_Vel_97
Time_Shift_28
Note_On_95_Vel_95
Time_Shift_16
Note_On_43_Vel_66
Time_Shift_3
Note_On_55_Vel_55
Time_Shift_24
Note_On_43_Vel_0
Time_Shift_8
Note_On_55_Vel_0
Time_Shift_23
Note_On_97_Vel_0
Time_Shift_46
Note_On_95_Vel_0
Time_Shift_97
Note_On_93_Vel_86
Time_Shift_23
Note_On_63_Vel_76
Time_Shift_7
Note_On_91_Vel_77
Time_Shift_1
Note_On_55_Vel_62
Time_Shift_6
Note_On_59_Vel_68
Time_Shift_139
Note_On_55_Vel_0
Time_Shift_3
Note_On_91_Vel_0
Note_On_93_Vel_0
Time_Shift_15
Note_On_90_Vel_77
Time_Shift_9
Note_On_63_Vel_0
Time_Shift_34
Note_On_88_Vel_82
Time_Shift_4
Note_On_59_Vel_0
Time_Shift_3
Note_On_64_Vel_72
Time_Shift_8
Note_On_59_Vel_56
Time_Shift_1
Note_On_55_Vel_63
Time_Shift_1
Note_On_90_Vel_0
Time_Shift_19
Note_On_64_Vel_0
Time_Shift_22
Note_On_88_Vel_0
Time_Shift_8
Note_On_55_Vel_0
Note_On_59_Vel_0
Time_Shift_150
Note_On_86_Vel_79
Time_Shift_39
Note_On_85_Vel_79
Time_Shift_24
Note_On_85_Vel_0
Time_Shift_2
Note_On_86_Vel_0
Time_Shift_173
Note_On_83_Vel_69
Time_Shift_30
Note_On_83_Vel_0
Time_Shift_16
Note_On_81_Vel_72
Time_Shift_6
Note_On_73_Vel_50
Time_Shift_1
Note_On_45_Vel_59
Time_Shift_4
Note_On_73_Vel_0
Time_Shift_23
Note_On_81_Vel_0
Time_Shift_2
Note_On_45_Vel_0
Time_Shift_248
Note_On_79_Vel_63
Time_Shift_41
Note_On_78_Vel_74
Time_Shift_4
Note_On_57_Vel_51
Time_Shift_3
Note_On_67_Vel_51
Time_Shift_21
Note_On_61_Vel_43
Time_Shift_4
Note_On_79_Vel_0
Time_Shift_46
Note_On_78_Vel_0
Time_Shift_62
Note_On_67_Vel_0
Time_Shift_322
Note_On_76_Vel_53
Time_Shift_32
Note_On_61_Vel_0
Time_Shift_14
Note_On_57_Vel_0
Time_Shift_2
Note_On_74_Vel_65
Time_Shift_21
Note_On_76_Vel_0
Time_Shift_18
Note_On_62_Vel_41
Time_Shift_1
Note_On_66_Vel_42
Time_Shift_321
Note_On_66_Vel_0
Time_Shift_2
Note_On_62_Vel_0
Note_On_74_Vel_0
Time_Shift_1063
Sustain_On
Time_Shift_173
Note_On_71_Vel_40
Time_Shift_167
Note_On_72_Vel_69
Time_Shift_213
Note_On_72_Vel_0
Time_Shift_9
Note_On_43_Vel_57
Time_Shift_3
Note_On_72_Vel_49
Time_Shift_4
Note_On_71_Vel_0
Time_Shift_3
Sustain_Off
Time_Shift_27
Note_On_72_Vel_0
Time_Shift_17
Note_On_74_Vel_64
Time_Shift_28
Note_On_74_Vel_0
Time_Shift_15
Note_On_76_Vel_65
Time_Shift_51
Note_On_74_Vel_60
Time_Shift_3
Note_On_76_Vel_0
Time_Shift_24
Note_On_43_Vel_0
Time_Shift_18
Note_On_83_Vel_83
Time_Shift_1
Note_On_74_Vel_0
Time_Shift_31
Note_On_50_Vel_56
Time_Shift_12
Note_On_83_Vel_0
Time_Shift_4
Note_On_59_Vel_44
Time_Shift_34
Note_On_50_Vel_0
Time_Shift_4
Note_On_59_Vel_0
Time_Shift_202
Note_On_51_Vel_50
Time_Shift_2
Note_On_72_Vel_74
Time_Shift_46
Note_On_72_Vel_0
Time_Shift_9
Note_On_62_Vel_45
Time_Shift_2
Note_On_74_Vel_54
Time_Shift_37
Note_On_62_Vel_0
Time_Shift_3
Note_On_74_Vel_0
Time_Shift_3
Note_On_51_Vel_0
Time_Shift_10
Note_On_72_Vel_77
Time_Shift_31
Note_On_72_Vel_0
Time_Shift_3
Note_On_81_Vel_89
Time_Shift_47
Note_On_60_Vel_50
Time_Shift_1
Note_On_81_Vel_0
Time_Shift_3
Note_On_54_Vel_58
Time_Shift_101
Note_On_54_Vel_0
Time_Shift_19
Note_On_60_Vel_0
Time_Shift_129
Note_On_52_Vel_50
Time_Shift_8
Note_On_71_Vel_59
Time_Shift_36
Note_On_71_Vel_0
Time_Shift_9
Note_On_72_Vel_66
Time_Shift_50
Note_On_72_Vel_0
Time_Shift_8
Note_On_71_Vel_71
Time_Shift_42
Note_On_79_Vel_83
Time_Shift_5
Note_On_71_Vel_0
Time_Shift_31
Note_On_59_Vel_57
Time_Shift_6
Note_On_55_Vel_54
Time_Shift_14
Note_On_79_Vel_0
Time_Shift_24
Note_On_59_Vel_0
Time_Shift_14
Note_On_55_Vel_0
Time_Shift_154
Note_On_52_Vel_0
Time_Shift_12
Note_On_81_Vel_69
Time_Shift_1
Note_On_69_Vel_75
Note_On_48_Vel_64
Time_Shift_37
Note_On_69_Vel_0
Time_Shift_4
Note_On_81_Vel_0
Time_Shift_11
Note_On_48_Vel_0
Time_Shift_38
Note_On_76_Vel_73
Time_Shift_42
Note_On_76_Vel_0
Time_Shift_74
Note_On_81_Vel_82
Time_Shift_3
Note_On_57_Vel_51
Time_Shift_2
Note_On_64_Vel_61
Time_Shift_25
Note_On_57_Vel_0
Time_Shift_2
Note_On_64_Vel_0
Time_Shift_6
Note_On_81_Vel_0
Time_Shift_47
Note_On_88_Vel_85
Time_Shift_26
Note_On_88_Vel_0
Time_Shift_95
Note_On_50_Vel_61
Time_Shift_1
Note_On_74_Vel_73
Time_Shift_35
Note_On_50_Vel_0
Time_Shift_54
Note_On_74_Vel_0
Time_Shift_5
Note_On_79_Vel_82
Time_Shift_83
Note_On_79_Vel_0
Time_Shift_16
Note_On_83_Vel_82
Note_On_62_Vel_64
Note_On_67_Vel_49
Time_Shift_10
Note_On_67_Vel_0
Time_Shift_39
Note_On_83_Vel_0
Time_Shift_23
Note_On_62_Vel_0
Time_Shift_30
Note_On_86_Vel_93
Time_Shift_77
Note_On_86_Vel_0
Time_Shift_26
Note_On_91_Vel_103
Time_Shift_18
Note_On_71_Vel_61
Time_Shift_4
Note_On_74_Vel_62
Time_Shift_73
Note_On_95_Vel_105
Time_Shift_105
Note_On_100_Vel_99
Time_Shift_19
Note_On_62_Vel_55
Time_Shift_78
Note_On_98_Vel_89
Time_Shift_108
Note_On_97_Vel_89
Time_Shift_10
Note_On_72_Vel_74
Time_Shift_1
Note_On_69_Vel_66
Time_Shift_4
Note_On_98_Vel_0
Time_Shift_5
Note_On_74_Vel_0
Note_On_62_Vel_0
Time_Shift_2
Note_On_91_Vel_0
Time_Shift_8
Note_On_95_Vel_0
Time_Shift_15
Note_On_71_Vel_0
Time_Shift_16
Note_On_100_Vel_0
Time_Shift_21
Note_On_96_Vel_85
Time_Shift_114
Note_On_88_Vel_80
Time_Shift_11
Note_On_97_Vel_0
Time_Shift_7
Note_On_72_Vel_0
Time_Shift_2
Note_On_62_Vel_62
Time_Shift_2
Note_On_74_Vel_47
Time_Shift_38
Note_On_62_Vel_0
Time_Shift_4
Note_On_74_Vel_0
Note_On_96_Vel_0
Time_Shift_24
Note_On_69_Vel_0
Time_Shift_9
Note_On_90_Vel_86
Time_Shift_6
Note_On_88_Vel_0
Time_Shift_58
Note_On_90_Vel_0
Time_Shift_38
Note_On_93_Vel_104
Time_Shift_6
Note_On_71_Vel_71
Time_Shift_2
Note_On_67_Vel_68
Time_Shift_27
Note_On_71_Vel_0
Time_Shift_4
Note_On_67_Vel_0
Time_Shift_45
Note_On_91_Vel_90
Time_Shift_50
Note_On_93_Vel_0
Time_Shift_58
Note_On_86_Vel_80
Time_Shift_42
Note_On_91_Vel_0
Time_Shift_11
Note_On_86_Vel_0
Time_Shift_42
Note_On_83_Vel_62
Time_Shift_78
Note_On_83_Vel_0
Time_Shift_111
Note_On_43_Vel_64
Time_Shift_7
Note_On_74_Vel_74
Time_Shift_31
Note_On_74_Vel_0
Time_Shift_17
Note_On_76_Vel_70
Time_Shift_29
Note_On_43_Vel_0
Time_Shift_16
Note_On_76_Vel_0
Time_Shift_9
Note_On_74_Vel_64
Time_Shift_61
Note_On_83_Vel_70
Note_On_74_Vel_0
Time_Shift_26
Note_On_59_Vel_71
Time_Shift_2
Note_On_50_Vel_67
Time_Shift_14
Note_On_83_Vel_0
Time_Shift_18
Note_On_59_Vel_0
Time_Shift_1
Note_On_50_Vel_0
Time_Shift_247
Note_On_72_Vel_75
Time_Shift_2
Note_On_51_Vel_47
Time_Shift_27
Note_On_72_Vel_0
Time_Shift_30
Note_On_86_Vel_49
Time_Shift_4
Note_On_74_Vel_49
Note_On_86_Vel_0
Time_Shift_36
Note_On_74_Vel_0
Time_Shift_10
Note_On_72_Vel_80
Time_Shift_30
Note_On_72_Vel_0
Time_Shift_5
Note_On_81_Vel_86
Time_Shift_39
Note_On_60_Vel_56
Time_Shift_1
Note_On_54_Vel_65
Time_Shift_18
Note_On_81_Vel_0
Time_Shift_88
Note_On_60_Vel_0
Time_Shift_19
Note_On_51_Vel_0
Time_Shift_62
Note_On_54_Vel_0
Time_Shift_70
Note_On_52_Vel_62
Time_Shift_9
Note_On_71_Vel_67
Time_Shift_35
Note_On_71_Vel_0
Time_Shift_24
Note_On_72_Vel_69
Time_Shift_45
Note_On_72_Vel_0
Time_Shift_6
Note_On_71_Vel_74
Time_Shift_45
Note_On_79_Vel_86
Time_Shift_2
Note_On_71_Vel_0
Time_Shift_19
Note_On_59_Vel_62
Note_On_55_Vel_61
Time_Shift_27
Note_On_79_Vel_0
Time_Shift_18
Note_On_55_Vel_0
Time_Shift_1
Note_On_59_Vel_0
Time_Shift_129
Note_On_52_Vel_0
Time_Shift_58
Note_On_81_Vel_71
Time_Shift_3
Note_On_69_Vel_76
Time_Shift_4
Note_On_48_Vel_66
Time_Shift_30
Note_On_81_Vel_0
Note_On_69_Vel_0
Time_Shift_14
Note_On_48_Vel_0
Time_Shift_48
Note_On_76_Vel_70
Time_Shift_23
Note_On_76_Vel_0
Time_Shift_88
Note_On_81_Vel_80
Time_Shift_10
Note_On_64_Vel_62
Time_Shift_7
Note_On_57_Vel_52
Time_Shift_34
Note_On_81_Vel_0
Note_On_64_Vel_0
Time_Shift_35
Note_On_88_Vel_86
Time_Shift_27
Note_On_88_Vel_0
Time_Shift_18
Note_On_57_Vel_0
Time_Shift_80
Note_On_50_Vel_65
Time_Shift_1
Note_On_74_Vel_72
Time_Shift_30
Note_On_50_Vel_0
Time_Shift_63
Note_On_74_Vel_0
Time_Shift_9
Note_On_79_Vel_77
Time_Shift_79
Note_On_79_Vel_0
Time_Shift_25
Note_On_83_Vel_74
Time_Shift_14
Note_On_62_Vel_56
Time_Shift_36
Note_On_62_Vel_0
Time_Shift_1
Note_On_83_Vel_0
Time_Shift_57
Note_On_86_Vel_86
Time_Shift_40
Note_On_86_Vel_0
Time_Shift_63
Note_On_91_Vel_87
Time_Shift_13
Note_On_71_Vel_60
Time_Shift_4
Note_On_74_Vel_61
Time_Shift_46
Note_On_71_Vel_0
Time_Shift_30
Note_On_95_Vel_99
Time_Shift_54
Note_On_91_Vel_0
Time_Shift_51
Note_On_100_Vel_91
Time_Shift_21
Note_On_62_Vel_49
Time_Shift_67
Note_On_98_Vel_82
Time_Shift_23
Note_On_95_Vel_0
Time_Shift_83
Note_On_96_Vel_79
Time_Shift_9
Note_On_74_Vel_0
Time_Shift_12
Note_On_72_Vel_60
Time_Shift_16
Note_On_69_Vel_48
Time_Shift_53
Note_On_93_Vel_82
Time_Shift_19
Note_On_100_Vel_0
Time_Shift_15
Note_On_62_Vel_0
Time_Shift_46
Note_On_98_Vel_0
Time_Shift_8
Note_On_72_Vel_0
Note_On_96_Vel_0
Time_Shift_15
Note_On_69_Vel_0
Time_Shift_11
Note_On_88_Vel_68
Time_Shift_9
Note_On_62_Vel_54
Time_Shift_11
Note_On_93_Vel_0
Time_Shift_66
Note_On_90_Vel_74
Time_Shift_3
Note_On_88_Vel_0
Time_Shift_8
Note_On_62_Vel_0
Time_Shift_81
Note_On_71_Vel_61
Time_Shift_5
Note_On_67_Vel_50
Note_On_91_Vel_73
Time_Shift_13
Note_On_90_Vel_0
Time_Shift_6
Note_On_71_Vel_0
Time_Shift_25
Note_On_67_Vel_0
Time_Shift_183
Note_On_71_Vel_74
Time_Shift_101
Note_On_91_Vel_0
Time_Shift_11
Note_On_71_Vel_0
Time_Shift_12
Note_On_72_Vel_77
Time_Shift_28
Note_On_72_Vel_0
Time_Shift_144
Note_On_43_Vel_59
Time_Shift_4
Note_On_74_Vel_71
Time_Shift_35
Note_On_74_Vel_0
Time_Shift_4
Note_On_43_Vel_0
Time_Shift_14
Note_On_76_Vel_71
Time_Shift_58
Note_On_76_Vel_0
Time_Shift_7
Note_On_74_Vel_63
Time_Shift_41
Note_On_74_Vel_0
Time_Shift_10
Note_On_83_Vel_73
Time_Shift_43
Note_On_59_Vel_50
Time_Shift_2
Note_On_50_Vel_51
Time_Shift_10
Note_On_83_Vel_0
Time_Shift_35
Note_On_59_Vel_0
Time_Shift_152
Note_On_50_Vel_0
Time_Shift_27
Note_On_51_Vel_66
Time_Shift_1
Note_On_72_Vel_74
Time_Shift_35
Note_On_72_Vel_0
Time_Shift_14
Note_On_74_Vel_55
Time_Shift_54
Note_On_72_Vel_79
Time_Shift_20
Note_On_74_Vel_0
Time_Shift_11
Note_On_72_Vel_0
Time_Shift_7
Note_On_81_Vel_85
Time_Shift_39
Note_On_60_Vel_59
Time_Shift_9
Note_On_54_Vel_67
Time_Shift_3
Note_On_81_Vel_0
Time_Shift_61
Note_On_60_Vel_0
Time_Shift_150
Note_On_54_Vel_0
Time_Shift_27
Note_On_51_Vel_0
Time_Shift_4
Note_On_52_Vel_60
Time_Shift_2
Note_On_71_Vel_68
Time_Shift_47
Note_On_72_Vel_61
Time_Shift_1
Note_On_71_Vel_0
Time_Shift_49
Note_On_71_Vel_72
Time_Shift_4
Note_On_72_Vel_0
Time_Shift_36
Note_On_79_Vel_80
Time_Shift_7
Note_On_71_Vel_0
Time_Shift_23
Note_On_59_Vel_65
Note_On_55_Vel_63
Time_Shift_26
Note_On_79_Vel_0
Time_Shift_18
Note_On_59_Vel_0
Time_Shift_5
Note_On_55_Vel_0
Time_Shift_154
Note_On_52_Vel_0
Time_Shift_32
Note_On_81_Vel_67
Note_On_48_Vel_66
Time_Shift_1
Note_On_69_Vel_73
Time_Shift_30
Note_On_81_Vel_0
Time_Shift_1
Note_On_69_Vel_0
Time_Shift_10
Note_On_48_Vel_0
Time_Shift_50
Note_On_76_Vel_63
Time_Shift_45
Note_On_76_Vel_0
Time_Shift_74
Note_On_81_Vel_69
Time_Shift_2
Note_On_57_Vel_63
Time_Shift_4
Note_On_64_Vel_57
Time_Shift_25
Note_On_81_Vel_0
Time_Shift_6
Note_On_64_Vel_0
Time_Shift_43
Note_On_57_Vel_0
Time_Shift_10
Note_On_88_Vel_81
Time_Shift_25
Note_On_88_Vel_0
Time_Shift_101
Note_On_50_Vel_68
Note_On_74_Vel_69
Time_Shift_34
Note_On_50_Vel_0
Time_Shift_59
Note_On_74_Vel_0
Time_Shift_1
Note_On_79_Vel_79
Time_Shift_105
Note_On_79_Vel_0
Time_Shift_7
Note_On_62_Vel_68
Time_Shift_2
Note_On_83_Vel_79
Time_Shift_63
Note_On_62_Vel_0
Time_Shift_7
Note_On_83_Vel_0
Time_Shift_26
Note_On_86_Vel_90
Time_Shift_33
Note_On_86_Vel_0
Time_Shift_70
Note_On_91_Vel_102
Time_Shift_18
Note_On_71_Vel_63
Time_Shift_7
Note_On_74_Vel_53
Time_Shift_73
Note_On_95_Vel_103
Time_Shift_34
Note_On_71_Vel_0
Time_Shift_73
Note_On_100_Vel_99
Time_Shift_8
Note_On_62_Vel_60
Time_Shift_86
Note_On_98_Vel_91
Time_Shift_18
Note_On_91_Vel_0
Time_Shift_15
Note_On_95_Vel_0
Time_Shift_8
Note_On_62_Vel_0
Time_Shift_61
Note_On_97_Vel_89
Time_Shift_11
Note_On_81_Vel_65
Time_Shift_1
Note_On_72_Vel_73
Time_Shift_4
Note_On_81_Vel_0
Time_Shift_4
Note_On_69_Vel_63
Time_Shift_11
Note_On_100_Vel_0
Time_Shift_15
Note_On_74_Vel_0
Time_Shift_31
Note_On_72_Vel_0
Time_Shift_14
Note_On_96_Vel_84
Time_Shift_55
Note_On_98_Vel_0
Time_Shift_16
Note_On_69_Vel_0
Time_Shift_23
Note_On_97_Vel_0
Time_Shift_26
Note_On_88_Vel_82
Time_Shift_4
Note_On_96_Vel_0
Time_Shift_4
Note_On_62_Vel_63
Time_Shift_23
Note_On_88_Vel_0
Time_Shift_3
Note_On_62_Vel_0
Time_Shift_58
Note_On_90_Vel_86
Time_Shift_46
Note_On_90_Vel_0
Time_Shift_62
Note_On_93_Vel_101
Time_Shift_6
Note_On_71_Vel_71
Time_Shift_2
Note_On_67_Vel_65
Time_Shift_24
Note_On_71_Vel_0
Time_Shift_7
Note_On_67_Vel_0
Time_Shift_47
Note_On_91_Vel_86
Time_Shift_56
Note_On_93_Vel_0
Time_Shift_51
Note_On_86_Vel_79
Time_Shift_34
Note_On_91_Vel_0
Time_Shift_26
Note_On_86_Vel_0
Time_Shift_35
Note_On_83_Vel_68
Time_Shift_62
Note_On_83_Vel_0
Time_Shift_85
Note_On_43_Vel_68
Time_Shift_3
Note_On_74_Vel_75
Time_Shift_23
Note_On_43_Vel_0
Time_Shift_8
Note_On_74_Vel_0
Time_Shift_21
Note_On_76_Vel_75
Time_Shift_64
Note_On_76_Vel_0
Time_Shift_3
Note_On_74_Vel_67
Time_Shift_51
Note_On_74_Vel_0
Time_Shift_15
Note_On_83_Vel_79
Time_Shift_23
Note_On_59_Vel_65
Time_Shift_3
Note_On_50_Vel_63
Time_Shift_39
Note_On_83_Vel_0
Time_Shift_11
Note_On_59_Vel_0
Time_Shift_150
Note_On_50_Vel_0
Time_Shift_19
Note_On_51_Vel_78
Note_On_72_Vel_88
Time_Shift_42
Note_On_72_Vel_0
Time_Shift_83
Note_On_72_Vel_74
Time_Shift_44
Note_On_81_Vel_88
Time_Shift_6
Note_On_72_Vel_0
Time_Shift_26
Note_On_60_Vel_68
Time_Shift_11
Note_On_54_Vel_69
Time_Shift_22
Note_On_81_Vel_0
Time_Shift_42
Note_On_60_Vel_0
Time_Shift_93
Note_On_54_Vel_0
Time_Shift_19
Note_On_51_Vel_0
Time_Shift_58
Note_On_52_Vel_65
Time_Shift_7
Note_On_71_Vel_70
Time_Shift_36
Note_On_71_Vel_0
Time_Shift_19
Note_On_72_Vel_70
Time_Shift_61
Note_On_72_Vel_0
Time_Shift_8
Note_On_71_Vel_73
Time_Shift_36
Note_On_79_Vel_82
Time_Shift_17
Note_On_59_Vel_71
Note_On_55_Vel_69
Time_Shift_11
Note_On_71_Vel_0
Time_Shift_20
Note_On_79_Vel_0
Time_Shift_9
Note_On_59_Vel_0
Time_Shift_4
Note_On_55_Vel_0
Time_Shift_148
Note_On_52_Vel_0
Time_Shift_30
Note_On_48_Vel_71
Time_Shift_1
Note_On_81_Vel_66
Note_On_69_Vel_71
Time_Shift_47
Note_On_69_Vel_0
Time_Shift_6
Note_On_81_Vel_0
Time_Shift_24
Note_On_48_Vel_0
Time_Shift_1
Note_On_76_Vel_70
Time_Shift_48
Note_On_76_Vel_0
Time_Shift_65
Note_On_81_Vel_80
Time_Shift_1
Note_On_57_Vel_65
Time_Shift_1
Note_On_64_Vel_66
Time_Shift_34
Note_On_64_Vel_0
Time_Shift_1
Note_On_81_Vel_0
Time_Shift_21
Note_On_57_Vel_0
Time_Shift_27
Note_On_88_Vel_88
Time_Shift_30
Note_On_88_Vel_0
Time_Shift_93
Note_On_74_Vel_81
Note_On_50_Vel_68
Time_Shift_32
Note_On_50_Vel_0
Time_Shift_53
Note_On_74_Vel_0
Time_Shift_8
Note_On_79_Vel_82
Time_Shift_91
Note_On_79_Vel_0
Time_Shift_5
Note_On_62_Vel_72
Time_Shift_3
Note_On_83_Vel_88
Time_Shift_27
Note_On_62_Vel_0
Time_Shift_23
Note_On_83_Vel_0
Time_Shift_56
Note_On_86_Vel_99
Time_Shift_81
Note_On_86_Vel_0
Time_Shift_12
Note_On_71_Vel_66
Time_Shift_1
Note_On_91_Vel_97
Time_Shift_35
Note_On_71_Vel_0
Time_Shift_56
Note_On_95_Vel_102
Time_Shift_51
Note_On_91_Vel_0
Time_Shift_50
Note_On_100_Vel_93
Time_Shift_7
Note_On_62_Vel_60
Time_Shift_58
Note_On_95_Vel_0
Time_Shift_27
Note_On_98_Vel_89
Time_Shift_34
Note_On_62_Vel_0
Time_Shift_69
Note_On_100_Vel_0
Time_Shift_1
Note_On_96_Vel_84
Time_Shift_4
Note_On_72_Vel_68
Time_Shift_6
Note_On_84_Vel_69
Time_Shift_8
Note_On_69_Vel_60
Time_Shift_76
Note_On_93_Vel_79
Time_Shift_13
Note_On_84_Vel_0
Time_Shift_31
Note_On_98_Vel_0
Time_Shift_23
Note_On_96_Vel_0
Time_Shift_30
Note_On_72_Vel_0
Time_Shift_12
Note_On_62_Vel_63
Time_Shift_1
Note_On_88_Vel_66
Time_Shift_33
Note_On_93_Vel_0
Time_Shift_23
Note_On_69_Vel_0
Time_Shift_30
Note_On_90_Vel_84
Time_Shift_17
Note_On_62_Vel_0
Note_On_88_Vel_0
Time_Shift_85
Note_On_71_Vel_78
Time_Shift_1
Note_On_91_Vel_86
Time_Shift_9
Note_On_79_Vel_65
Time_Shift_4
Note_On_67_Vel_67
Time_Shift_14
Note_On_71_Vel_0
Time_Shift_2
Note_On_90_Vel_0
Time_Shift_4
Note_On_67_Vel_0
Time_Shift_26
Note_On_79_Vel_0
Time_Shift_108
Note_On_91_Vel_0
Time_Shift_81
Note_On_71_Vel_100
Time_Shift_30
Note_On_71_Vel_0
Time_Shift_201
Note_On_83_Vel_99
Time_Shift_5
Note_On_71_Vel_91
Time_Shift_2
Note_On_75_Vel_87
Note_On_47_Vel_88
Time_Shift_1
Note_On_78_Vel_87
Time_Shift_84
Note_On_47_Vel_0
Time_Shift_15
Note_On_59_Vel_55
Time_Shift_114
Note_On_46_Vel_71
Time_Shift_49
Note_On_71_Vel_0
Time_Shift_32
Note_On_59_Vel_0
Time_Shift_14
Note_On_75_Vel_0
Note_On_46_Vel_0
Time_Shift_2
Note_On_83_Vel_0
Time_Shift_3
Note_On_78_Vel_0
Time_Shift_7
Note_On_47_Vel_65
Time_Shift_113
Note_On_47_Vel_0
Time_Shift_13
Note_On_82_Vel_92
Time_Shift_3
Note_On_49_Vel_85
Time_Shift_3
Note_On_76_Vel_73
Note_On_70_Vel_85
Time_Shift_1
Note_On_78_Vel_77
Time_Shift_37
Note_On_49_Vel_0
Time_Shift_63
Note_On_61_Vel_73
Time_Shift_59
Note_On_61_Vel_0
Time_Shift_5
Note_On_78_Vel_0
Time_Shift_52
Note_On_48_Vel_74
Time_Shift_109
Note_On_48_Vel_0
Time_Shift_1
Note_On_49_Vel_75
Time_Shift_22
Note_On_82_Vel_0
Time_Shift_8
Note_On_70_Vel_0
Note_On_76_Vel_0
Time_Shift_40
Note_On_49_Vel_0
Time_Shift_39
Note_On_81_Vel_92
Time_Shift_2
Note_On_69_Vel_86
Time_Shift_5
Note_On_51_Vel_85
Time_Shift_1
Note_On_75_Vel_75
Time_Shift_1
Note_On_78_Vel_81
Time_Shift_93
Note_On_63_Vel_73
Time_Shift_11
Note_On_51_Vel_0
Time_Shift_45
Note_On_75_Vel_0
Time_Shift_16
Note_On_63_Vel_0
Time_Shift_31
Note_On_69_Vel_0
Time_Shift_8
Note_On_81_Vel_0
Time_Shift_11
Note_On_49_Vel_78
Time_Shift_93
Note_On_51_Vel_72
Time_Shift_26
Note_On_78_Vel_0
Time_Shift_5
Note_On_49_Vel_0
Time_Shift_70
Note_On_79_Vel_88
Time_Shift_3
Note_On_51_Vel_0
Note_On_76_Vel_80
Note_On_52_Vel_79
Time_Shift_1
Note_On_67_Vel_82
Time_Shift_2
Note_On_71_Vel_78
Time_Shift_40
Note_On_52_Vel_0
Time_Shift_66
Note_On_64_Vel_78
Time_Shift_21
Note_On_67_Vel_0
Time_Shift_29
Note_On_64_Vel_0
Time_Shift_42
Note_On_51_Vel_74
Time_Shift_15
Note_On_79_Vel_0
Time_Shift_44
Note_On_76_Vel_0
Time_Shift_8
Note_On_71_Vel_0
Time_Shift_15
Note_On_51_Vel_0
Time_Shift_8
Note_On_52_Vel_75
Time_Shift_114
Note_On_52_Vel_0
Time_Shift_11
Note_On_78_Vel_89
Note_On_54_Vel_81
Time_Shift_4
Note_On_75_Vel_80
Time_Shift_4
Note_On_69_Vel_78
Time_Shift_1
Note_On_71_Vel_69
Time_Shift_70
Note_On_54_Vel_0
Time_Shift_25
Note_On_66_Vel_79
Time_Shift_53
Note_On_66_Vel_0
Time_Shift_39
Note_On_53_Vel_80
Time_Shift_25
Note_On_69_Vel_0
Time_Shift_89
Note_On_54_Vel_77
Time_Shift_25
Note_On_53_Vel_0
Time_Shift_26
Note_On_54_Vel_0
Time_Shift_15
Note_On_75_Vel_0
Time_Shift_54
Note_On_76_Vel_84
Time_Shift_6
Note_On_71_Vel_0
Note_On_78_Vel_0
Time_Shift_7
Note_On_55_Vel_73
Time_Shift_3
Note_On_71_Vel_72
Time_Shift_33
Note_On_71_Vel_0
Time_Shift_6
Note_On_55_Vel_0
Time_Shift_61
Note_On_67_Vel_75
Time_Shift_48
Note_On_67_Vel_0
Time_Shift_62
Note_On_54_Vel_77
Time_Shift_106
Note_On_55_Vel_75
Time_Shift_25
Note_On_54_Vel_0
Time_Shift_123
Note_On_55_Vel_0
Time_Shift_22
Note_On_70_Vel_65
Note_On_60_Vel_55
Time_Shift_2
Note_On_72_Vel_58
Time_Shift_1
Note_On_64_Vel_56
Time_Shift_61
Note_On_76_Vel_0
Time_Shift_218
Note_On_60_Vel_0
Time_Shift_11
Note_On_62_Vel_57
Time_Shift_59
Note_On_62_Vel_0
Time_Shift_19
Note_On_64_Vel_0
Time_Shift_57
Note_On_60_Vel_61
Time_Shift_64
Note_On_70_Vel_0
Time_Shift_5
Note_On_60_Vel_0
Time_Shift_28
Note_On_72_Vel_0
Time_Shift_34
Note_On_71_Vel_59
Time_Shift_6
Note_On_63_Vel_49
Time_Shift_1
Note_On_66_Vel_54
Time_Shift_1
Note_On_59_Vel_59
Time_Shift_127
Note_On_54_Vel_65
Time_Shift_61
Note_On_59_Vel_0
Time_Shift_58
Note_On_54_Vel_0
Time_Shift_18
Note_On_51_Vel_64
Time_Shift_102
Note_On_51_Vel_0
Time_Shift_14
Note_On_63_Vel_0
Time_Shift_22
Note_On_71_Vel_0
Time_Shift_1
Note_On_47_Vel_68
Time_Shift_8
Note_On_66_Vel_0
Time_Shift_241
Note_On_47_Vel_0
Time_Shift_69
Note_On_43_Vel_55
Time_Shift_9
Note_On_74_Vel_48
Time_Shift_18
Note_On_43_Vel_0
Time_Shift_13
Note_On_74_Vel_0
Time_Shift_11
Note_On_76_Vel_64
Time_Shift_42
Note_On_76_Vel_0
Time_Shift_31
Note_On_74_Vel_64
Time_Shift_40
Note_On_74_Vel_0
Time_Shift_5
Note_On_83_Vel_71
Time_Shift_43
Note_On_83_Vel_0
Time_Shift_2
Note_On_59_Vel_62
Time_Shift_10
Note_On_50_Vel_36
Time_Shift_53
Note_On_59_Vel_0
Time_Shift_1
Note_On_50_Vel_0
Time_Shift_245
Note_On_72_Vel_66
Time_Shift_2
Note_On_51_Vel_44
Time_Shift_29
Note_On_72_Vel_0
Time_Shift_27
Note_On_74_Vel_56
Time_Shift_32
Note_On_74_Vel_0
Time_Shift_23
Note_On_72_Vel_69
Time_Shift_22
Note_On_51_Vel_0
Time_Shift_10
Note_On_72_Vel_0
Time_Shift_3
Note_On_81_Vel_78
Time_Shift_39
Note_On_60_Vel_53
Time_Shift_2
Note_On_81_Vel_0
Time_Shift_11
Note_On_54_Vel_58
Time_Shift_61
Note_On_60_Vel_0
Time_Shift_123
Note_On_54_Vel_0
Time_Shift_88
Note_On_52_Vel_50
Time_Shift_1
Note_On_71_Vel_57
Time_Shift_29
Note_On_71_Vel_0
Time_Shift_16
Note_On_72_Vel_61
Time_Shift_48
Note_On_72_Vel_0
Time_Shift_9
Note_On_71_Vel_62
Time_Shift_46
Note_On_71_Vel_0
Time_Shift_2
Note_On_79_Vel_77
Time_Shift_30
Note_On_59_Vel_51
Time_Shift_1
Note_On_55_Vel_52
Time_Shift_18
Note_On_79_Vel_0
Time_Shift_56
Note_On_55_Vel_0
Time_Shift_83
Note_On_59_Vel_0
Time_Shift_18
Note_On_52_Vel_0
Time_Shift_43
Note_On_48_Vel_64
Time_Shift_1
Note_On_81_Vel_68
Time_Shift_1
Note_On_69_Vel_73
Time_Shift_75
Note_On_81_Vel_0
Time_Shift_15
Note_On_76_Vel_66
Time_Shift_54
Note_On_76_Vel_0
Time_Shift_4
Note_On_48_Vel_0
Time_Shift_11
Note_On_69_Vel_0
Time_Shift_41
Note_On_81_Vel_77
Note_On_57_Vel_50
Time_Shift_3
Note_On_64_Vel_59
Time_Shift_30
Note_On_57_Vel_0
Time_Shift_1
Note_On_64_Vel_0
Time_Shift_1
Note_On_81_Vel_0
Time_Shift_53
Note_On_88_Vel_77
Time_Shift_27
Note_On_88_Vel_0
Time_Shift_86
Note_On_50_Vel_60
Time_Shift_1
Note_On_74_Vel_73
Time_Shift_39
Note_On_50_Vel_0
Time_Shift_44
Note_On_74_Vel_0
Time_Shift_12
Note_On_79_Vel_76
Time_Shift_71
Note_On_79_Vel_0
Time_Shift_17
Note_On_83_Vel_76
Time_Shift_6
Note_On_62_Vel_66
Time_Shift_34
Note_On_62_Vel_0
Time_Shift_18
Note_On_83_Vel_0
Time_Shift_50
Note_On_86_Vel_83
Time_Shift_102
Note_On_91_Vel_92
Time_Shift_14
Note_On_74_Vel_64
Time_Shift_4
Note_On_71_Vel_67
Time_Shift_38
Note_On_86_Vel_0
Time_Shift_37
Note_On_95_Vel_100
Time_Shift_62
Note_On_71_Vel_0
Time_Shift_40
Note_On_100_Vel_97
Time_Shift_16
Note_On_62_Vel_57
Time_Shift_52
Note_On_91_Vel_0
Time_Shift_18
Note_On_98_Vel_88
Time_Shift_5
Note_On_62_Vel_0
Time_Shift_23
Note_On_95_Vel_0
Time_Shift_46
Note_On_100_Vel_0
Time_Shift_39
Note_On_74_Vel_0
Time_Shift_1
Note_On_96_Vel_79
Time_Shift_19
Note_On_72_Vel_65
Time_Shift_12
Note_On_69_Vel_50
Time_Shift_64
Note_On_93_Vel_75
Time_Shift_80
Note_On_98_Vel_0
Time_Shift_33
Note_On_88_Vel_63
Time_Shift_13
Note_On_96_Vel_0
Time_Shift_2
Note_On_62_Vel_53
Time_Shift_50
Note_On_88_Vel_0
Time_Shift_10
Note_On_72_Vel_0
Time_Shift_19
Note_On_90_Vel_67
Time_Shift_27
Note_On_62_Vel_0
Note_On_69_Vel_0
Note_On_93_Vel_0
Time_Shift_80
Note_On_91_Vel_80
Time_Shift_4
Note_On_71_Vel_66
Time_Shift_4
Note_On_67_Vel_57
Time_Shift_2
Note_On_79_Vel_53
Time_Shift_17
Note_On_90_Vel_0
Time_Shift_5
Note_On_71_Vel_0
Time_Shift_2
Note_On_67_Vel_0
Time_Shift_55
Note_On_79_Vel_0
Time_Shift_107
Note_On_91_Vel_0
Time_Shift_59
Note_On_83_Vel_81
Time_Shift_1
Note_On_71_Vel_92
Time_Shift_35
Note_On_71_Vel_0
Time_Shift_13
Note_On_83_Vel_0
Time_Shift_198
Note_On_83_Vel_98
Time_Shift_4
Note_On_47_Vel_93
Time_Shift_1
Note_On_71_Vel_87
Time_Shift_1
Note_On_75_Vel_83
Time_Shift_2
Note_On_78_Vel_82
Time_Shift_1
Note_On_59_Vel_87
Time_Shift_41
Note_On_59_Vel_0
Time_Shift_2
Note_On_47_Vel_0
Time_Shift_158
Note_On_46_Vel_64
Time_Shift_47
Note_On_75_Vel_0
Time_Shift_6
Note_On_71_Vel_0
Time_Shift_43
Note_On_47_Vel_76
Time_Shift_41
Note_On_46_Vel_0
Time_Shift_25
Note_On_47_Vel_0
Time_Shift_6
Note_On_83_Vel_0
Time_Shift_7
Note_On_78_Vel_0
Time_Shift_50
Note_On_82_Vel_92
Time_Shift_2
Note_On_76_Vel_74
Note_On_49_Vel_86
Time_Shift_6
Note_On_70_Vel_86
Time_Shift_6
Note_On_78_Vel_76
Time_Shift_25
Note_On_49_Vel_0
Time_Shift_59
Note_On_61_Vel_82
Time_Shift_51
Note_On_61_Vel_0
Time_Shift_68
Note_On_48_Vel_71
Time_Shift_18
Note_On_78_Vel_0
Time_Shift_69
Note_On_76_Vel_0
Time_Shift_21
Note_On_48_Vel_0
Time_Shift_1
Note_On_49_Vel_75
Time_Shift_24
Note_On_82_Vel_0
Time_Shift_15
Note_On_70_Vel_0
Time_Shift_51
Note_On_49_Vel_0
Time_Shift_33
Note_On_81_Vel_98
Time_Shift_11
Note_On_69_Vel_84
Time_Shift_1
Note_On_78_Vel_86
Time_Shift_2
Note_On_75_Vel_73
Time_Shift_6
Note_On_51_Vel_72
Time_Shift_73
Note_On_51_Vel_0
Time_Shift_21
Note_On_63_Vel_70
Time_Shift_117
Note_On_49_Vel_77
Time_Shift_15
Note_On_63_Vel_0
Time_Shift_75
Note_On_51_Vel_79
Time_Shift_18
Note_On_75_Vel_0
Time_Shift_12
Note_On_49_Vel_0
Time_Shift_26
Note_On_69_Vel_0
Time_Shift_15
Note_On_81_Vel_0
Time_Shift_42
Note_On_52_Vel_78
Time_Shift_1
Note_On_79_Vel_87
Time_Shift_4
Note_On_51_Vel_0
Time_Shift_4
Note_On_76_Vel_74
Time_Shift_11
Note_On_78_Vel_0
Time_Shift_4
Note_On_71_Vel_65
Note_On_67_Vel_59
Time_Shift_21
Note_On_52_Vel_0
Time_Shift_69
Note_On_64_Vel_78
Time_Shift_96
Note_On_51_Vel_71
Time_Shift_9
Note_On_64_Vel_0
Time_Shift_92
Note_On_52_Vel_73
Time_Shift_31
Note_On_51_Vel_0
Time_Shift_80
Note_On_52_Vel_0
Time_Shift_5
Note_On_67_Vel_0
Time_Shift_10
Note_On_79_Vel_0
Time_Shift_1
Note_On_66_Vel_69
Time_Shift_1
Note_On_78_Vel_83
Time_Shift_3
Note_On_66_Vel_0
Time_Shift_2
Note_On_54_Vel_77
Time_Shift_8
Note_On_75_Vel_72
Time_Shift_2
Note_On_69_Vel_68
Time_Shift_4
Note_On_71_Vel_0
Note_On_76_Vel_0
Time_Shift_36
Note_On_54_Vel_0
Time_Shift_75
Note_On_66_Vel_66
Time_Shift_40
Note_On_66_Vel_0
Time_Shift_59
Note_On_53_Vel_73
Time_Shift_113
Note_On_54_Vel_74
Time_Shift_25
Note_On_53_Vel_0
Time_Shift_39
Note_On_54_Vel_0
Time_Shift_43
Note_On_69_Vel_0
Time_Shift_7
Note_On_75_Vel_0
Time_Shift_21
Note_On_76_Vel_75
Time_Shift_5
Note_On_55_Vel_71
Time_Shift_5
Note_On_78_Vel_0
Time_Shift_4
Note_On_71_Vel_64
Time_Shift_31
Note_On_55_Vel_0
Time_Shift_1
Note_On_71_Vel_0
Time_Shift_82
Note_On_67_Vel_66
Time_Shift_33
Note_On_67_Vel_0
Time_Shift_77
Note_On_54_Vel_74
Time_Shift_106
Note_On_54_Vel_0
Time_Shift_15
Note_On_55_Vel_66
Time_Shift_117
Note_On_55_Vel_0
Time_Shift_3
Note_On_76_Vel_0
Time_Shift_42
Note_On_64_Vel_55
Note_On_72_Vel_51
Note_On_60_Vel_52
Time_Shift_4
Note_On_70_Vel_57
Time_Shift_263
Note_On_60_Vel_0
Time_Shift_31
Note_On_62_Vel_54
Time_Shift_41
Note_On_62_Vel_0
Time_Shift_90
Note_On_60_Vel_52
Time_Shift_20
Note_On_70_Vel_0
Time_Shift_29
Note_On_64_Vel_0
Time_Shift_48
Note_On_72_Vel_0
Time_Shift_4
Note_On_60_Vel_0
Time_Shift_61
Note_On_59_Vel_63
Time_Shift_2
Note_On_71_Vel_52
Note_On_63_Vel_42
Time_Shift_3
Note_On_66_Vel_50
Time_Shift_114
Note_On_63_Vel_0
Time_Shift_10
Note_On_59_Vel_0
Time_Shift_16
Note_On_54_Vel_60
Time_Shift_135
Note_On_54_Vel_0
Time_Shift_32
Note_On_51_Vel_59
Time_Shift_7
Note_On_66_Vel_0
Time_Shift_15
Note_On_71_Vel_0
Time_Shift_66
Note_On_51_Vel_0
Time_Shift_73
Note_On_47_Vel_58
Time_Shift_31
Note_On_47_Vel_0
Time_Shift_240
Note_On_43_Vel_58
Time_Shift_25
Note_On_74_Vel_53
Time_Shift_32
Note_On_74_Vel_0
Time_Shift_22
Note_On_76_Vel_61
Time_Shift_44
Note_On_43_Vel_0
Time_Shift_4
Note_On_74_Vel_67
Time_Shift_1
Note_On_76_Vel_0
Time_Shift_43
Note_On_74_Vel_0
Time_Shift_8
Note_On_83_Vel_82
Time_Shift_36
Note_On_50_Vel_64
Time_Shift_5
Note_On_83_Vel_0
Time_Shift_26
Note_On_59_Vel_44
Time_Shift_25
Note_On_50_Vel_0
Time_Shift_6
Note_On_59_Vel_0
Time_Shift_253
Note_On_51_Vel_47
Note_On_72_Vel_67
Time_Shift_25
Note_On_72_Vel_0
Time_Shift_30
Note_On_74_Vel_57
Time_Shift_31
Note_On_74_Vel_0
Time_Shift_27
Note_On_72_Vel_70
Time_Shift_27
Note_On_81_Vel_84
Time_Shift_7
Note_On_72_Vel_0
Time_Shift_34
Note_On_81_Vel_0
Time_Shift_13
Note_On_60_Vel_47
Time_Shift_2
Note_On_54_Vel_57
Time_Shift_70
Note_On_51_Vel_0
Time_Shift_38
Note_On_60_Vel_0
Time_Shift_30
Note_On_54_Vel_0
Time_Shift_121
Note_On_52_Vel_53
Time_Shift_10
Note_On_71_Vel_66
Time_Shift_10
Note_On_83_Vel_56
Time_Shift_26
Note_On_71_Vel_0
Time_Shift_3
Note_On_83_Vel_0
Time_Shift_18
Note_On_72_Vel_63
Time_Shift_44
Note_On_72_Vel_0
Time_Shift_10
Note_On_71_Vel_78
Time_Shift_38
Note_On_79_Vel_86
Time_Shift_1
Note_On_71_Vel_0
Time_Shift_24
Note_On_59_Vel_56
Time_Shift_1
Note_On_55_Vel_58
Time_Shift_25
Note_On_79_Vel_0
Time_Shift_22
Note_On_59_Vel_0
Time_Shift_6
Note_On_55_Vel_0
Time_Shift_164
Note_On_52_Vel_0
Time_Shift_36
Note_On_48_Vel_70
Time_Shift_27
Note_On_81_Vel_53
Time_Shift_6
Note_On_69_Vel_52
Time_Shift_20
Note_On_81_Vel_0
Time_Shift_28
Note_On_48_Vel_0
Time_Shift_14
Note_On_69_Vel_0
Time_Shift_2
Note_On_76_Vel_75
Time_Shift_44
Note_On_76_Vel_0
Time_Shift_74
Note_On_64_Vel_65
Time_Shift_2
Note_On_81_Vel_79
Time_Shift_4
Note_On_57_Vel_52
Time_Shift_31
Note_On_64_Vel_0
Note_On_81_Vel_0
Time_Shift_60
Note_On_88_Vel_85
Time_Shift_29
Note_On_57_Vel_0
Time_Shift_2
Note_On_88_Vel_0
Time_Shift_92
Note_On_50_Vel_60
Time_Shift_1
Note_On_74_Vel_68
Time_Shift_33
Note_On_50_Vel_0
Time_Shift_59
Note_On_74_Vel_0
Time_Shift_8
Note_On_79_Vel_79
Time_Shift_85
Note_On_79_Vel_0
Time_Shift_22
Note_On_83_Vel_74
Time_Shift_1
Note_On_62_Vel_66
Time_Shift_58
Note_On_83_Vel_0
Time_Shift_23
Sustain_On
Time_Shift_22
Note_On_86_Vel_88
Time_Shift_118
Note_On_91_Vel_94
Time_Shift_9
Note_On_71_Vel_66
Time_Shift_4
Note_On_62_Vel_0
Time_Shift_3
Note_On_74_Vel_62
Time_Shift_35
Sustain_Off
Time_Shift_42
Note_On_95_Vel_101
Time_Shift_109
Note_On_100_Vel_99
Time_Shift_15
Note_On_62_Vel_53
Time_Shift_4
Note_On_86_Vel_0
Time_Shift_53
Note_On_71_Vel_0
Time_Shift_23
Note_On_91_Vel_0
Time_Shift_10
Note_On_98_Vel_86
Time_Shift_6
Note_On_95_Vel_0
Time_Shift_30
Note_On_62_Vel_0
Time_Shift_16
Note_On_74_Vel_0
Time_Shift_8
Note_On_100_Vel_0
Time_Shift_72
Note_On_96_Vel_74
Time_Shift_25
Note_On_72_Vel_54
Time_Shift_8
Note_On_69_Vel_45
Time_Shift_83
Note_On_93_Vel_74
Time_Shift_111
Note_On_98_Vel_0
Time_Shift_34
Note_On_88_Vel_70
Time_Shift_9
Note_On_62_Vel_51
Time_Shift_18
Note_On_96_Vel_0
Time_Shift_17
Note_On_88_Vel_0
Time_Shift_3
Note_On_62_Vel_0
Time_Shift_4
Note_On_72_Vel_0
Time_Shift_15
Note_On_69_Vel_0
Time_Shift_8
Note_On_93_Vel_0
Time_Shift_51
Note_On_90_Vel_57
Time_Shift_225
Note_On_90_Vel_0
Time_Shift_51
Note_On_91_Vel_58
Time_Shift_27
Note_On_67_Vel_38
Time_Shift_3
Note_On_71_Vel_38
Time_Shift_149
Sustain_On
Time_Shift_54
Note_On_67_Vel_0
Time_Shift_6
Note_On_71_Vel_0
Time_Shift_40
Sustain_Off
Time_Shift_392
Note_On_91_Vel_0
Time_Shift_722
Sustain_On
Time_Shift_248
Sustain_Off
Time_Shift_9
Note_On_68_Vel_70
Time_Shift_4
Note_On_80_Vel_60
Time_Shift_27
Note_On_68_Vel_0
Time_Shift_27
Note_On_80_Vel_0
Time_Shift_217
Note_On_80_Vel_81
Time_Shift_1
Note_On_77_Vel_76
Time_Shift_3
Note_On_49_Vel_66
Time_Shift_26
Note_On_80_Vel_0
Time_Shift_1
Note_On_77_Vel_0
Time_Shift_21
Note_On_49_Vel_0
Time_Shift_4
Note_On_82_Vel_52
Time_Shift_60
Note_On_82_Vel_0
Time_Shift_7
Note_On_80_Vel_64
Time_Shift_55
Note_On_80_Vel_0
Time_Shift_10
Note_On_73_Vel_72
Time_Shift_22
Note_On_65_Vel_51
Time_Shift_6
Note_On_56_Vel_51
Time_Shift_1
Note_On_61_Vel_41
Time_Shift_19
Note_On_73_Vel_0
Time_Shift_5
Note_On_65_Vel_0
Time_Shift_7
Note_On_56_Vel_0
Time_Shift_4
Note_On_61_Vel_0
Time_Shift_66
Note_On_82_Vel_81
Time_Shift_30
Note_On_82_Vel_0
Time_Shift_97
Note_On_44_Vel_84
Time_Shift_10
Note_On_78_Vel_71
Time_Shift_8
Note_On_80_Vel_76
Time_Shift_20
Note_On_78_Vel_0
Time_Shift_5
Note_On_82_Vel_72
Time_Shift_1
Note_On_44_Vel_0
Time_Shift_8
Note_On_80_Vel_0
Time_Shift_65
Note_On_80_Vel_73
Time_Shift_19
Note_On_82_Vel_0
Time_Shift_5
Note_On_78_Vel_56
Time_Shift_51
Note_On_72_Vel_74
Time_Shift_6
Note_On_80_Vel_0
Time_Shift_16
Note_On_66_Vel_70
Time_Shift_4
Note_On_63_Vel_57
Note_On_56_Vel_65
Time_Shift_8
Note_On_72_Vel_0
Time_Shift_10
Note_On_78_Vel_0
Time_Shift_3
Note_On_66_Vel_0
Time_Shift_8
Note_On_56_Vel_0
Time_Shift_12
Note_On_63_Vel_0
Time_Shift_56
Note_On_87_Vel_82
Time_Shift_33
Note_On_87_Vel_0
Time_Shift_103
Note_On_44_Vel_76
Time_Shift_3
Note_On_80_Vel_78
Time_Shift_1
Note_On_78_Vel_72
Time_Shift_23
Note_On_44_Vel_0
Time_Shift_2
Note_On_78_Vel_0
Time_Shift_2
Note_On_80_Vel_0
Time_Shift_11
Note_On_82_Vel_74
Time_Shift_55
Note_On_82_Vel_0
Time_Shift_11
Note_On_80_Vel_71
Time_Shift_3
Note_On_78_Vel_62
Time_Shift_65
Note_On_80_Vel_0
Time_Shift_1
Note_On_75_Vel_77
Time_Shift_2
Note_On_78_Vel_0
Time_Shift_21
Note_On_66_Vel_67
Time_Shift_4
Note_On_63_Vel_51
Time_Shift_1
Note_On_56_Vel_62
Time_Shift_16
Note_On_75_Vel_0
Time_Shift_4
Note_On_66_Vel_0
Time_Shift_7
Note_On_63_Vel_0
Time_Shift_22
Note_On_56_Vel_0
Time_Shift_46
Note_On_84_Vel_88
Time_Shift_27
Note_On_84_Vel_0
Time_Shift_98
Note_On_49_Vel_84
Time_Shift_4
Note_On_80_Vel_88
Time_Shift_4
Note_On_77_Vel_75
Time_Shift_24
Note_On_49_Vel_0
Time_Shift_1
Note_On_77_Vel_0
Time_Shift_16
Note_On_82_Vel_40
Time_Shift_18
Note_On_80_Vel_0
Time_Shift_42
Note_On_80_Vel_72
Time_Shift_31
Note_On_77_Vel_56
Time_Shift_34
Note_On_82_Vel_0
Time_Shift_8
Note_On_77_Vel_0
Time_Shift_7
Note_On_65_Vel_80
Time_Shift_1
Note_On_77_Vel_72
Time_Shift_3
Note_On_56_Vel_77
Time_Shift_2
Note_On_61_Vel_77
Note_On_73_Vel_71
Time_Shift_6
Note_On_85_Vel_71
Time_Shift_1
Note_On_80_Vel_0
Time_Shift_14
Note_On_65_Vel_0
Time_Shift_4
Note_On_56_Vel_0
Time_Shift_4
Note_On_61_Vel_0
Time_Shift_20
Note_On_73_Vel_0
Note_On_85_Vel_0
Time_Shift_7
Note_On_77_Vel_0
Time_Shift_58
Note_On_85_Vel_88
Time_Shift_50
Note_On_85_Vel_0
Time_Shift_75
Note_On_49_Vel_82
Time_Shift_5
Note_On_80_Vel_88
Time_Shift_1
Note_On_77_Vel_75
Time_Shift_23
Note_On_49_Vel_0
Time_Shift_1
Note_On_77_Vel_0
Time_Shift_35
Note_On_82_Vel_54
Time_Shift_6
Note_On_80_Vel_0
Time_Shift_52
Note_On_80_Vel_72
Time_Shift_6
Note_On_77_Vel_70
Time_Shift_18
Note_On_82_Vel_0
Time_Shift_47
Note_On_77_Vel_0
Time_Shift_2
Note_On_73_Vel_82
Note_On_80_Vel_0
Time_Shift_4
Note_On_77_Vel_77
Time_Shift_3
Note_On_65_Vel_83
Note_On_56_Vel_82
Time_Shift_2
Note_On_61_Vel_80
Time_Shift_24
Note_On_65_Vel_0
Note_On_73_Vel_0
Time_Shift_1
Note_On_56_Vel_0
Time_Shift_1
Note_On_61_Vel_0
Time_Shift_70
Note_On_77_Vel_0
Time_Shift_11
Note_On_82_Vel_91
Time_Shift_45
Note_On_82_Vel_0
Time_Shift_84
Note_On_44_Vel_76
Note_On_80_Vel_84
Time_Shift_2
Note_On_78_Vel_82
Time_Shift_23
Note_On_80_Vel_0
Time_Shift_1
Note_On_78_Vel_0
Note_On_44_Vel_0
Time_Shift_15
Note_On_82_Vel_69
Time_Shift_56
Note_On_80_Vel_80
Time_Shift_6
Note_On_82_Vel_0
Time_Shift_22
Note_On_78_Vel_73
Time_Shift_38
Note_On_80_Vel_0
Time_Shift_13
Note_On_78_Vel_0
Time_Shift_3
Note_On_72_Vel_83
Time_Shift_16
Note_On_63_Vel_69
Time_Shift_2
Note_On_66_Vel_73
Time_Shift_10
Note_On_56_Vel_69
Time_Shift_10
Note_On_72_Vel_0
Time_Shift_4
Note_On_63_Vel_0
Time_Shift_3
Note_On_66_Vel_0
Time_Shift_28
Note_On_56_Vel_0
Time_Shift_55
Note_On_87_Vel_90
Time_Shift_1
Note_On_78_Vel_64
Time_Shift_31
Note_On_87_Vel_0
Time_Shift_5
Note_On_78_Vel_0
Time_Shift_92
Note_On_44_Vel_79
Time_Shift_3
Note_On_80_Vel_81
Time_Shift_2
Note_On_78_Vel_71
Time_Shift_24
Note_On_44_Vel_0
Time_Shift_2
Note_On_80_Vel_0
Time_Shift_2
Note_On_78_Vel_0
Time_Shift_19
Note_On_82_Vel_70
Time_Shift_59
Note_On_82_Vel_0
Time_Shift_1
Note_On_80_Vel_81
Time_Shift_6
Note_On_78_Vel_74
Time_Shift_63
Note_On_75_Vel_77
Time_Shift_7
Note_On_80_Vel_0
Time_Shift_3
Note_On_68_Vel_65
Time_Shift_1
Note_On_66_Vel_67
Time_Shift_1
Note_On_78_Vel_0
Time_Shift_2
Note_On_63_Vel_63
Note_On_56_Vel_67
Time_Shift_16
Note_On_75_Vel_0
Time_Shift_12
Note_On_68_Vel_0
Note_On_66_Vel_0
Time_Shift_23
Note_On_56_Vel_0
Note_On_63_Vel_0
Time_Shift_62
Note_On_84_Vel_92
Time_Shift_45
Note_On_84_Vel_0
Time_Shift_89
Note_On_85_Vel_94
Time_Shift_4
Note_On_49_Vel_70
Time_Shift_3
Note_On_77_Vel_75
Time_Shift_25
Note_On_49_Vel_0
Time_Shift_214
Note_On_65_Vel_54
Note_On_56_Vel_65
Time_Shift_2
Note_On_61_Vel_55
Time_Shift_28
Note_On_65_Vel_0
Time_Shift_2
Note_On_61_Vel_0
Time_Shift_2
Note_On_56_Vel_0
Time_Shift_138
Note_On_77_Vel_0
Time_Shift_62
Note_On_85_Vel_0
Time_Shift_11
Note_On_80_Vel_66
Note_On_77_Vel_65
Time_Shift_1
Note_On_49_Vel_55
Time_Shift_27
Note_On_80_Vel_0
Time_Shift_2
Note_On_77_Vel_0
Time_Shift_4
Note_On_49_Vel_0
Time_Shift_25
Note_On_82_Vel_50
Time_Shift_45
Note_On_82_Vel_0
Time_Shift_19
Note_On_80_Vel_68
Time_Shift_3
Note_On_77_Vel_52
Time_Shift_50
Note_On_80_Vel_0
Time_Shift_5
Note_On_77_Vel_0
Time_Shift_15
Note_On_73_Vel_68
Time_Shift_23
Note_On_75_Vel_52
Time_Shift_3
Note_On_56_Vel_58
Note_On_65_Vel_48
Note_On_61_Vel_50
Time_Shift_5
Note_On_75_Vel_0
Time_Shift_11
Note_On_73_Vel_0
Time_Shift_8
Note_On_65_Vel_0
Time_Shift_5
Note_On_56_Vel_0
Time_Shift_14
Note_On_61_Vel_0
Time_Shift_42
Note_On_82_Vel_70
Time_Shift_25
Note_On_82_Vel_0
Time_Shift_115
Note_On_44_Vel_62
Time_Shift_4
Note_On_78_Vel_69
Time_Shift_8
Note_On_80_Vel_62
Time_Shift_14
Note_On_78_Vel_0
Time_Shift_10
Note_On_80_Vel_0
Time_Shift_13
Note_On_44_Vel_0
Time_Shift_12
Note_On_82_Vel_60
Time_Shift_51
Note_On_82_Vel_0
Time_Shift_6
Note_On_80_Vel_68
Time_Shift_12
Note_On_78_Vel_61
Time_Shift_43
Note_On_80_Vel_0
Note_On_78_Vel_0
Time_Shift_33
Note_On_72_Vel_58
Time_Shift_9
Note_On_75_Vel_54
Note_On_66_Vel_59
Note_On_63_Vel_51
Time_Shift_4
Note_On_56_Vel_65
Time_Shift_19
Note_On_72_Vel_0
Time_Shift_1
Note_On_63_Vel_0
Time_Shift_3
Note_On_66_Vel_0
Time_Shift_3
Note_On_75_Vel_0
Time_Shift_19
Note_On_56_Vel_0
Time_Shift_54
Note_On_87_Vel_74
Time_Shift_28
Note_On_87_Vel_0
Time_Shift_107
Note_On_44_Vel_68
Time_Shift_4
Note_On_80_Vel_70
Time_Shift_2
Note_On_78_Vel_61
Time_Shift_24
Note_On_80_Vel_0
Time_Shift_19
Note_On_44_Vel_0
Note_On_78_Vel_0
Time_Shift_6
Note_On_82_Vel_64
Time_Shift_53
Note_On_80_Vel_70
Time_Shift_4
Note_On_82_Vel_0
Time_Shift_2
Note_On_78_Vel_67
Time_Shift_63
Note_On_80_Vel_0
Time_Shift_5
Note_On_78_Vel_0
Time_Shift_9
Note_On_75_Vel_62
Time_Shift_23
Note_On_66_Vel_54
Time_Shift_6
Note_On_63_Vel_50
Time_Shift_1
Note_On_56_Vel_59
Time_Shift_15
Note_On_75_Vel_0
Time_Shift_15
Note_On_56_Vel_0
Time_Shift_20
Note_On_63_Vel_0
Time_Shift_8
Note_On_66_Vel_0
Time_Shift_29
Note_On_84_Vel_76
Time_Shift_26
Note_On_84_Vel_0
Time_Shift_109
Note_On_49_Vel_68
Note_On_77_Vel_78
Time_Shift_2
Note_On_80_Vel_78
Time_Shift_5
Note_On_61_Vel_64
Time_Shift_6
Note_On_61_Vel_0
Time_Shift_11
Note_On_80_Vel_0
Time_Shift_1
Note_On_77_Vel_0
Time_Shift_2
Note_On_49_Vel_0
Time_Shift_21
Note_On_82_Vel_58
Time_Shift_61
Note_On_82_Vel_0
Time_Shift_4
Note_On_80_Vel_65
Time_Shift_2
Note_On_77_Vel_67
Time_Shift_55
Note_On_80_Vel_0
Time_Shift_4
Note_On_77_Vel_0
Time_Shift_22
Note_On_73_Vel_68
Time_Shift_13
Note_On_56_Vel_63
Time_Shift_2
Note_On_65_Vel_49
Time_Shift_2
Note_On_61_Vel_51
Time_Shift_11
Note_On_73_Vel_0
Time_Shift_9
Note_On_56_Vel_0
Time_Shift_1
Note_On_65_Vel_0
Time_Shift_24
Note_On_61_Vel_0
Time_Shift_46
Note_On_85_Vel_81
Time_Shift_47
Note_On_85_Vel_0
Time_Shift_90
Note_On_80_Vel_79
Time_Shift_3
Note_On_77_Vel_73
Time_Shift_1
Note_On_49_Vel_63
Time_Shift_18
Note_On_80_Vel_0
Time_Shift_3
Note_On_77_Vel_0
Time_Shift_5
Note_On_49_Vel_0
Time_Shift_16
Note_On_82_Vel_59
Time_Shift_53
Note_On_82_Vel_0
Time_Shift_2
Note_On_80_Vel_75
Time_Shift_29
Note_On_77_Vel_70
Time_Shift_28
Note_On_80_Vel_0
Time_Shift_4
Note_On_77_Vel_0
Time_Shift_38
Note_On_73_Vel_67
Time_Shift_13
Note_On_65_Vel_56
Time_Shift_1
Note_On_77_Vel_57
Time_Shift_1
Note_On_68_Vel_58
Time_Shift_6
Note_On_56_Vel_59
Note_On_61_Vel_56
Time_Shift_9
Note_On_73_Vel_0
Time_Shift_3
Note_On_68_Vel_0
Time_Shift_15
Note_On_65_Vel_0
Note_On_77_Vel_0
Time_Shift_15
Note_On_56_Vel_0
Note_On_61_Vel_0
Time_Shift_58
Note_On_82_Vel_68
Time_Shift_42
Note_On_82_Vel_0
Time_Shift_78
Note_On_44_Vel_68
Time_Shift_5
Note_On_78_Vel_72
Time_Shift_3
Note_On_80_Vel_71
Time_Shift_18
Note_On_44_Vel_0
Time_Shift_5
Note_On_80_Vel_0
Time_Shift_21
Note_On_78_Vel_0
Time_Shift_11
Note_On_82_Vel_64
Time_Shift_47
Note_On_80_Vel_71
Time_Shift_7
Note_On_82_Vel_0
Time_Shift_24
Note_On_78_Vel_63
Time_Shift_44
Note_On_80_Vel_0
Time_Shift_3
Note_On_78_Vel_0
Time_Shift_12
Note_On_72_Vel_71
Time_Shift_4
Note_On_66_Vel_67
Time_Shift_1
Note_On_75_Vel_60
Note_On_63_Vel_65
Time_Shift_9
Note_On_56_Vel_60
Time_Shift_18
Note_On_72_Vel_0
Time_Shift_1
Note_On_66_Vel_0
Time_Shift_4
Note_On_63_Vel_0
Time_Shift_7
Note_On_75_Vel_0
Time_Shift_16
Note_On_56_Vel_0
Time_Shift_39
Note_On_87_Vel_87
Time_Shift_34
Note_On_87_Vel_0
Time_Shift_105
Note_On_80_Vel_83
Time_Shift_2
Note_On_44_Vel_68
Note_On_78_Vel_75
Time_Shift_24
Note_On_80_Vel_0
Time_Shift_7
Note_On_44_Vel_0
Time_Shift_4
Note_On_78_Vel_0
Time_Shift_4
Note_On_82_Vel_65
Time_Shift_62
Note_On_80_Vel_73
Time_Shift_3
Note_On_82_Vel_0
Time_Shift_1
Note_On_78_Vel_67
Time_Shift_70
Note_On_80_Vel_0
Time_Shift_1
Note_On_75_Vel_76
Note_On_78_Vel_0
Time_Shift_17
Note_On_66_Vel_68
Time_Shift_2
Note_On_63_Vel_67
Time_Shift_4
Note_On_56_Vel_67
Time_Shift_35
Note_On_75_Vel_0
Time_Shift_8
Note_On_56_Vel_0
Note_On_63_Vel_0
Note_On_66_Vel_0
Time_Shift_48
Note_On_84_Vel_84
Time_Shift_28
Note_On_84_Vel_0
Time_Shift_112
Note_On_85_Vel_85
Time_Shift_6
Note_On_49_Vel_53
Time_Shift_2
Note_On_77_Vel_68
Time_Shift_34
Note_On_49_Vel_0
Time_Shift_100
Note_On_77_Vel_0
Time_Shift_39
Note_On_85_Vel_0
Time_Shift_35
Note_On_65_Vel_63
Time_Shift_7
Note_On_61_Vel_63
Time_Shift_8
Note_On_56_Vel_47
Time_Shift_9
Note_On_65_Vel_0
Time_Shift_12
Note_On_61_Vel_0
Time_Shift_23
Note_On_56_Vel_0
Time_Shift_173
Note_On_96_Vel_90
Time_Shift_1
Note_On_45_Vel_73
Time_Shift_35
Note_On_45_Vel_0
Time_Shift_79
Note_On_90_Vel_80
Time_Shift_17
Note_On_96_Vel_0
Time_Shift_19
Note_On_92_Vel_87
Time_Shift_35
Note_On_90_Vel_0
Time_Shift_9
Note_On_90_Vel_101
Time_Shift_8
Note_On_65_Vel_79
Time_Shift_8
Note_On_60_Vel_79
Time_Shift_17
Note_On_53_Vel_67
Time_Shift_23
Note_On_60_Vel_0
Time_Shift_42
Note_On_53_Vel_0
Time_Shift_22
Note_On_89_Vel_88
Time_Shift_1
Note_On_92_Vel_0
Time_Shift_16
Note_On_90_Vel_0
Time_Shift_15
Note_On_65_Vel_0
Time_Shift_27
Note_On_89_Vel_0
Time_Shift_56
Note_On_87_Vel_88
Time_Shift_10
Note_On_46_Vel_61
Time_Shift_45
Note_On_46_Vel_0
Time_Shift_24
Note_On_85_Vel_80
Note_On_87_Vel_0
Time_Shift_32
Note_On_85_Vel_0
Time_Shift_25
Note_On_84_Vel_74
Time_Shift_44
Note_On_85_Vel_79
Time_Shift_29
Note_On_84_Vel_0
Time_Shift_3
Note_On_65_Vel_75
Time_Shift_1
Note_On_84_Vel_94
Time_Shift_2
Note_On_61_Vel_67
Time_Shift_3
Note_On_58_Vel_68
Time_Shift_27
Note_On_84_Vel_0
Time_Shift_6
Note_On_65_Vel_0
Time_Shift_4
Note_On_85_Vel_0
Note_On_61_Vel_0
Time_Shift_6
Note_On_58_Vel_0
Time_Shift_60
Note_On_82_Vel_86
Time_Shift_107
Note_On_80_Vel_94
Time_Shift_13
Note_On_51_Vel_57
Time_Shift_2
Note_On_82_Vel_0
Time_Shift_32
Note_On_51_Vel_0
Time_Shift_55
Note_On_78_Vel_92
Time_Shift_14
Note_On_80_Vel_0
Time_Shift_90
Note_On_78_Vel_0
Time_Shift_2
Note_On_77_Vel_86
Time_Shift_6
Note_On_66_Vel_68
Time_Shift_17
Note_On_58_Vel_53
Note_On_61_Vel_57
Time_Shift_16
Note_On_66_Vel_0
Time_Shift_33
Note_On_61_Vel_0
Time_Shift_27
Note_On_75_Vel_89
Time_Shift_4
Note_On_58_Vel_0
Time_Shift_18
Note_On_77_Vel_0
Time_Shift_94
Note_On_73_Vel_94
Time_Shift_12
Note_On_56_Vel_60
Time_Shift_2
Note_On_75_Vel_0
Time_Shift_24
Note_On_56_Vel_0
Time_Shift_65
Note_On_72_Vel_86
Time_Shift_38
Note_On_73_Vel_0
Time_Shift_14
Note_On_72_Vel_0
Time_Shift_61
Note_On_60_Vel_55
Time_Shift_2
Note_On_66_Vel_56
Time_Shift_1
Note_On_70_Vel_72
Time_Shift_26
Note_On_66_Vel_0
Time_Shift_5
Note_On_60_Vel_0
Time_Shift_4
Note_On_70_Vel_0
Time_Shift_74
Note_On_68_Vel_68
Time_Shift_73
Note_On_68_Vel_0
Time_Shift_50
Note_On_44_Vel_68
Time_Shift_3
Note_On_67_Vel_65
Time_Shift_27
Note_On_44_Vel_0
Time_Shift_29
Note_On_67_Vel_0
Time_Shift_42
Note_On_68_Vel_64
Time_Shift_84
Note_On_68_Vel_0
Time_Shift_41
Note_On_70_Vel_60
Time_Shift_6
Note_On_66_Vel_59
Time_Shift_1
Note_On_60_Vel_49
Time_Shift_3
Note_On_56_Vel_57
Time_Shift_32
Note_On_60_Vel_0
Time_Shift_1
Note_On_56_Vel_0
Time_Shift_6
Note_On_70_Vel_0
Time_Shift_7
Note_On_66_Vel_0
Time_Shift_49
Note_On_72_Vel_57
Time_Shift_55
Note_On_72_Vel_0
Time_Shift_61
Note_On_73_Vel_65
Time_Shift_5
Note_On_49_Vel_75
Time_Shift_35
Note_On_49_Vel_0
Time_Shift_16
Note_On_73_Vel_0
Time_Shift_45
Note_On_75_Vel_66
Time_Shift_59
Note_On_75_Vel_0
Time_Shift_63
Note_On_68_Vel_62
Time_Shift_3
Note_On_65_Vel_57
Note_On_56_Vel_66
Time_Shift_1
Note_On_77_Vel_69
Time_Shift_1
Note_On_61_Vel_58
Time_Shift_24
Note_On_65_Vel_0
Time_Shift_7
Note_On_61_Vel_0
Time_Shift_2
Note_On_68_Vel_0
Time_Shift_5
Note_On_77_Vel_0
Time_Shift_6
Note_On_56_Vel_0
Time_Shift_42
Note_On_78_Vel_73
Time_Shift_74
Note_On_78_Vel_0
Time_Shift_43
Note_On_79_Vel_77
Time_Shift_1
Note_On_44_Vel_87
Time_Shift_41
Note_On_44_Vel_0
Time_Shift_41
Note_On_79_Vel_0
Time_Shift_17
Note_On_80_Vel_76
Time_Shift_114
Note_On_66_Vel_74
Time_Shift_3
Note_On_80_Vel_0
Time_Shift_2
Note_On_60_Vel_70
Time_Shift_1
Note_On_56_Vel_72
Time_Shift_1
Note_On_82_Vel_79
Time_Shift_22
Note_On_66_Vel_0
Time_Shift_6
Note_On_56_Vel_0
Time_Shift_2
Note_On_60_Vel_0
Time_Shift_23
Note_On_82_Vel_0
Time_Shift_32
Note_On_84_Vel_81
Time_Shift_33
Note_On_84_Vel_0
Time_Shift_75
Note_On_85_Vel_88
Time_Shift_4
Note_On_49_Vel_86
Time_Shift_37
Note_On_49_Vel_0
Time_Shift_47
Note_On_85_Vel_0
Time_Shift_14
Note_On_87_Vel_92
Time_Shift_83
Note_On_87_Vel_0
Time_Shift_8
Note_On_65_Vel_73
Time_Shift_1
Note_On_88_Vel_95
Time_Shift_3
Note_On_56_Vel_74
Time_Shift_1
Note_On_61_Vel_70
Time_Shift_25
Note_On_65_Vel_0
Time_Shift_5
Note_On_56_Vel_0
Time_Shift_1
Note_On_61_Vel_0
Time_Shift_62
Note_On_89_Vel_97
Time_Shift_20
Note_On_88_Vel_0
Time_Shift_36
Note_On_89_Vel_0
Time_Shift_67
Note_On_45_Vel_84
Time_Shift_1
Note_On_96_Vel_100
Time_Shift_37
Note_On_45_Vel_0
Time_Shift_104
Note_On_96_Vel_0
Time_Shift_3
Note_On_90_Vel_79
Time_Shift_40
Note_On_92_Vel_91
Time_Shift_26
Note_On_90_Vel_0
Time_Shift_6
Note_On_65_Vel_80
Time_Shift_1
Note_On_90_Vel_103
Time_Shift_12
Note_On_60_Vel_69
Time_Shift_7
Note_On_53_Vel_74
Time_Shift_35
Note_On_60_Vel_0
Time_Shift_9
Note_On_53_Vel_0
Time_Shift_2
Note_On_90_Vel_0
Time_Shift_36
Note_On_65_Vel_0
Note_On_92_Vel_0
Time_Shift_23
Note_On_89_Vel_85
Time_Shift_58
Note_On_89_Vel_0
Time_Shift_53
Note_On_87_Vel_83
Time_Shift_6
Note_On_46_Vel_57
Time_Shift_75
Note_On_87_Vel_0
Note_On_46_Vel_0
Time_Shift_13
Note_On_85_Vel_75
Time_Shift_48
Note_On_85_Vel_0
Time_Shift_6
Note_On_84_Vel_71
Time_Shift_44
Note_On_85_Vel_75
Time_Shift_20
Note_On_84_Vel_0
Time_Shift_3
Note_On_65_Vel_71
Time_Shift_6
Note_On_84_Vel_93
Note_On_61_Vel_66
Time_Shift_2
Note_On_58_Vel_61
Time_Shift_23
Note_On_65_Vel_0
Time_Shift_3
Note_On_84_Vel_0
Time_Shift_5
Note_On_61_Vel_0
Time_Shift_4
Note_On_85_Vel_0
Time_Shift_6
Note_On_58_Vel_0
Time_Shift_75
Note_On_82_Vel_76
Time_Shift_52
Note_On_82_Vel_0
Time_Shift_58
Note_On_51_Vel_68
Time_Shift_2
Note_On_80_Vel_80
Time_Shift_35
Note_On_51_Vel_0
Time_Shift_70
Note_On_80_Vel_0
Time_Shift_3
Note_On_78_Vel_71
Time_Shift_35
Note_On_78_Vel_0
Time_Shift_75
Note_On_66_Vel_65
Note_On_58_Vel_65
Note_On_77_Vel_67
Note_On_61_Vel_65
Time_Shift_30
Note_On_66_Vel_0
Time_Shift_3
Note_On_61_Vel_0
Time_Shift_3
Note_On_58_Vel_0
Time_Shift_29
Note_On_77_Vel_0
Time_Shift_29
Note_On_75_Vel_72
Time_Shift_116
Note_On_75_Vel_0
Time_Shift_10
Note_On_73_Vel_70
Time_Shift_5
Note_On_68_Vel_62
Time_Shift_5
Note_On_56_Vel_67
Time_Shift_29
Note_On_73_Vel_0
Time_Shift_1
Note_On_68_Vel_0
Time_Shift_20
Note_On_56_Vel_0
Time_Shift_28
Note_On_72_Vel_67
Time_Shift_44
Note_On_72_Vel_0
Time_Shift_72
Note_On_70_Vel_65
Time_Shift_11
Note_On_66_Vel_52
Time_Shift_1
Note_On_60_Vel_60
Time_Shift_32
Note_On_60_Vel_0
Time_Shift_12
Note_On_66_Vel_0
Time_Shift_26
Note_On_68_Vel_65
Time_Shift_12
Note_On_70_Vel_0
Time_Shift_13
Note_On_68_Vel_0
Time_Shift_110
Note_On_82_Vel_98
Time_Shift_31
Note_On_44_Vel_54
Time_Shift_3
Note_On_56_Vel_50
Time_Shift_19
Note_On_82_Vel_0
Time_Shift_24
Note_On_44_Vel_0
Note_On_56_Vel_0
Time_Shift_24
Note_On_72_Vel_73
Time_Shift_42
Note_On_72_Vel_0
Time_Shift_90
Note_On_66_Vel_67
Time_Shift_1
Note_On_80_Vel_70
Time_Shift_1
Note_On_63_Vel_61
Time_Shift_7
Note_On_56_Vel_62
Time_Shift_1
Note_On_75_Vel_53
Time_Shift_10
Note_On_78_Vel_52
Note_On_75_Vel_0
Time_Shift_11
Note_On_66_Vel_0
Note_On_80_Vel_0
Time_Shift_1
Note_On_63_Vel_0
Time_Shift_4
Note_On_56_Vel_0
Time_Shift_30
Note_On_78_Vel_0
Time_Shift_43
Note_On_89_Vel_68
Time_Shift_54
Note_On_89_Vel_0
Time_Shift_62
Note_On_49_Vel_88
Time_Shift_3
Note_On_77_Vel_72
Time_Shift_1
Note_On_87_Vel_82
Time_Shift_31
Note_On_49_Vel_0
Time_Shift_29
Note_On_77_Vel_0
Time_Shift_2
Note_On_87_Vel_0
Time_Shift_48
Note_On_77_Vel_51
Time_Shift_38
Note_On_77_Vel_0
Time_Shift_60
Note_On_85_Vel_75
Time_Shift_1
Note_On_80_Vel_66
Time_Shift_2
Note_On_77_Vel_61
Time_Shift_3
Note_On_65_Vel_66
Time_Shift_8
Note_On_61_Vel_64
Time_Shift_3
Note_On_56_Vel_61
Time_Shift_9
Note_On_80_Vel_0
Time_Shift_2
Note_On_65_Vel_0
Time_Shift_13
Note_On_56_Vel_0
Time_Shift_1
Note_On_61_Vel_0
Time_Shift_2
Note_On_77_Vel_0
Time_Shift_8
Note_On_85_Vel_0
Time_Shift_60
Note_On_94_Vel_89
Time_Shift_86
Note_On_94_Vel_0
Time_Shift_28
Note_On_92_Vel_97
Time_Shift_14
Note_On_44_Vel_57
Time_Shift_22
Note_On_92_Vel_0
Time_Shift_9
Note_On_44_Vel_0
Time_Shift_41
Note_On_84_Vel_79
Time_Shift_35
Note_On_84_Vel_0
Time_Shift_89
Note_On_92_Vel_80
Time_Shift_13
Note_On_90_Vel_70
Note_On_66_Vel_76
Time_Shift_11
Note_On_75_Vel_57
Time_Shift_16
Note_On_92_Vel_0
Time_Shift_1
Note_On_66_Vel_0
Note_On_90_Vel_0
Time_Shift_9
Note_On_75_Vel_0
Time_Shift_41
Note_On_96_Vel_95
Time_Shift_85
Note_On_96_Vel_0
Time_Shift_12
Note_On_97_Vel_107
Time_Shift_3
Note_On_89_Vel_97
Time_Shift_6
Note_On_65_Vel_81
Time_Shift_1
Note_On_61_Vel_91
Time_Shift_27
Note_On_89_Vel_0
Time_Shift_4
Note_On_65_Vel_0
Time_Shift_12
Note_On_61_Vel_0
Time_Shift_135
Note_On_97_Vel_0
Time_Shift_106
Note_On_80_Vel_83
Time_Shift_1
Note_On_68_Vel_93
Time_Shift_36
Note_On_68_Vel_0
Time_Shift_21
Note_On_80_Vel_0
Time_Shift_209
Note_On_49_Vel_55
Time_Shift_1
Note_On_80_Vel_67
Note_On_77_Vel_62
Time_Shift_29
Note_On_80_Vel_0
Time_Shift_1
Note_On_77_Vel_0
Time_Shift_7
Note_On_49_Vel_0
Time_Shift_14
Note_On_82_Vel_65
Time_Shift_49
Note_On_82_Vel_0
Time_Shift_22
Note_On_80_Vel_70
Time_Shift_6
Note_On_77_Vel_70
Time_Shift_47
Note_On_80_Vel_0
Time_Shift_12
Note_On_77_Vel_0
Time_Shift_4
Note_On_65_Vel_60
Time_Shift_1
Note_On_73_Vel_61
Time_Shift_2
Note_On_56_Vel_59
Time_Shift_2
Note_On_61_Vel_60
Note_On_77_Vel_64
Time_Shift_28
Note_On_73_Vel_0
Time_Shift_1
Note_On_65_Vel_0
Note_On_61_Vel_0
Time_Shift_4
Note_On_56_Vel_0
Time_Shift_19
Note_On_77_Vel_0
Time_Shift_56
Note_On_82_Vel_73
Time_Shift_27
Note_On_82_Vel_0
Time_Shift_126
Note_On_44_Vel_52
Time_Shift_1
Note_On_80_Vel_63
Time_Shift_1
Note_On_78_Vel_63
Time_Shift_24
Note_On_80_Vel_0
Time_Shift_9
Note_On_44_Vel_0
Time_Shift_10
Note_On_78_Vel_0
Time_Shift_3
Note_On_82_Vel_64
Time_Shift_53
Note_On_80_Vel_74
Time_Shift_8
Note_On_82_Vel_0
Time_Shift_15
Note_On_78_Vel_64
Time_Shift_45
Note_On_80_Vel_0
Time_Shift_3
Note_On_78_Vel_0
Time_Shift_8
Note_On_72_Vel_65
Time_Shift_23
Note_On_75_Vel_56
Time_Shift_1
Note_On_68_Vel_57
Time_Shift_1
Note_On_66_Vel_61
Time_Shift_2
Note_On_63_Vel_53
Note_On_56_Vel_63
Time_Shift_11
Note_On_72_Vel_0
Time_Shift_14
Note_On_66_Vel_0
Time_Shift_1
Note_On_75_Vel_0
Time_Shift_2
Note_On_56_Vel_0
Time_Shift_2
Note_On_68_Vel_0
Time_Shift_15
Note_On_63_Vel_0
Time_Shift_43
Note_On_87_Vel_78
Time_Shift_27
Note_On_87_Vel_0
Time_Shift_115
Note_On_44_Vel_79
Time_Shift_2
Note_On_78_Vel_71
Time_Shift_2
Note_On_80_Vel_71
Time_Shift_22
Note_On_78_Vel_0
Time_Shift_2
Note_On_44_Vel_0
Time_Shift_4
Note_On_80_Vel_0
Time_Shift_7
Note_On_82_Vel_71
Time_Shift_70
Note_On_80_Vel_77
Time_Shift_6
Note_On_78_Vel_67
Time_Shift_3
Note_On_82_Vel_0
Time_Shift_74
Note_On_80_Vel_0
Time_Shift_4
Note_On_78_Vel_0
Time_Shift_7
Note_On_75_Vel_67
Time_Shift_4
Note_On_66_Vel_68
Time_Shift_1
Note_On_63_Vel_70
Time_Shift_3
Note_On_56_Vel_67
Time_Shift_23
Note_On_66_Vel_0
Time_Shift_5
Note_On_56_Vel_0
Note_On_63_Vel_0
Time_Shift_1
Note_On_75_Vel_0
Time_Shift_72
Note_On_84_Vel_77
Time_Shift_35
Note_On_84_Vel_0
Time_Shift_102
Note_On_49_Vel_81
Time_Shift_7
Note_On_77_Vel_66
Time_Shift_2
Note_On_80_Vel_71
Time_Shift_23
Note_On_49_Vel_0
Time_Shift_5
Note_On_77_Vel_0
Time_Shift_1
Note_On_82_Vel_58
Time_Shift_6
Note_On_80_Vel_0
Time_Shift_61
Note_On_82_Vel_0
Time_Shift_10
Note_On_80_Vel_71
Time_Shift_2
Note_On_77_Vel_71
Time_Shift_84
Note_On_65_Vel_77
Time_Shift_2
Note_On_77_Vel_0
Time_Shift_1
Note_On_80_Vel_0
Time_Shift_3
Note_On_56_Vel_70
Time_Shift_1
Note_On_68_Vel_67
Note_On_77_Vel_69
Note_On_61_Vel_64
Time_Shift_7
Note_On_73_Vel_63
Time_Shift_16
Note_On_65_Vel_0
Time_Shift_4
Note_On_56_Vel_0
Time_Shift_6
Note_On_68_Vel_0
Time_Shift_16
Note_On_61_Vel_0
Note_On_77_Vel_0
Time_Shift_8
Note_On_73_Vel_0
Time_Shift_57
Note_On_85_Vel_83
Time_Shift_27
Note_On_85_Vel_0
Time_Shift_108
Note_On_49_Vel_84
Time_Shift_2
Note_On_80_Vel_84
Time_Shift_2
Note_On_77_Vel_70
Time_Shift_32
Note_On_80_Vel_0
Time_Shift_2
Note_On_49_Vel_0
Time_Shift_3
Note_On_77_Vel_0
Time_Shift_2
Note_On_82_Vel_62
Time_Shift_54
Note_On_82_Vel_0
Time_Shift_21
Note_On_80_Vel_73
Time_Shift_4
Note_On_77_Vel_72
Time_Shift_57
Note_On_80_Vel_0
Time_Shift_13
Note_On_77_Vel_0
Time_Shift_4
Note_On_65_Vel_75
Note_On_56_Vel_77
Time_Shift_1
Note_On_73_Vel_75
Time_Shift_1
Note_On_77_Vel_68
Time_Shift_2
Note_On_61_Vel_69
Time_Shift_25
Note_On_65_Vel_0
Time_Shift_1
Note_On_56_Vel_0
Time_Shift_19
Note_On_61_Vel_0
Note_On_73_Vel_0
Note_On_77_Vel_0
Time_Shift_67
Note_On_82_Vel_86
Time_Shift_31
Note_On_82_Vel_0
Time_Shift_100
Note_On_44_Vel_73
Time_Shift_5
Note_On_80_Vel_91
Time_Shift_2
Note_On_78_Vel_79
Time_Shift_22
Note_On_80_Vel_0
Note_On_44_Vel_0
Note_On_78_Vel_0
Time_Shift_86
Note_On_80_Vel_86
Time_Shift_23
Note_On_78_Vel_75
Time_Shift_57
Note_On_72_Vel_80
Time_Shift_2
Note_On_80_Vel_0
Time_Shift_1
Note_On_78_Vel_0
Time_Shift_4
Note_On_66_Vel_73
Time_Shift_3
Note_On_63_Vel_65
Time_Shift_1
Note_On_75_Vel_62
Time_Shift_5
Note_On_56_Vel_69
Time_Shift_22
Note_On_72_Vel_0
Time_Shift_1
Note_On_66_Vel_0
Time_Shift_3
Note_On_75_Vel_0
Time_Shift_11
Note_On_63_Vel_0
Time_Shift_7
Note_On_56_Vel_0
Time_Shift_58
Note_On_87_Vel_94
Time_Shift_44
Note_On_87_Vel_0
Time_Shift_86
Note_On_44_Vel_85
Time_Shift_1
Note_On_80_Vel_81
Time_Shift_5
Note_On_78_Vel_76
Time_Shift_17
Note_On_82_Vel_70
Time_Shift_4
Note_On_80_Vel_0
Time_Shift_1
Note_On_44_Vel_0
Time_Shift_1
Note_On_78_Vel_0
Time_Shift_70
Note_On_80_Vel_72
Time_Shift_4
Note_On_78_Vel_65
Time_Shift_1
Note_On_82_Vel_0
Time_Shift_8
Note_On_78_Vel_0
Time_Shift_80
Note_On_75_Vel_73
Time_Shift_7
Note_On_66_Vel_72
Time_Shift_1
Note_On_68_Vel_68
Time_Shift_1
Note_On_56_Vel_70
Time_Shift_6
Note_On_63_Vel_61
Time_Shift_21
Note_On_75_Vel_0
Note_On_66_Vel_0
Time_Shift_4
Note_On_56_Vel_0
Time_Shift_3
Note_On_80_Vel_0
Time_Shift_15
Note_On_68_Vel_0
Time_Shift_23
Note_On_63_Vel_0
Time_Shift_48
Note_On_84_Vel_87
Time_Shift_26
Note_On_84_Vel_0
Time_Shift_102
Note_On_85_Vel_105
Time_Shift_3
Note_On_49_Vel_89
Time_Shift_4
Note_On_77_Vel_71
Time_Shift_2
Sustain_On
Time_Shift_203
Note_On_85_Vel_0
Sustain_Off
Time_Shift_1
Note_On_49_Vel_0
Note_On_77_Vel_0
Time_Shift_36
Note_On_65_Vel_68
Time_Shift_2
Note_On_68_Vel_65
Time_Shift_1
Note_On_61_Vel_59
Time_Shift_1
Note_On_77_Vel_64
Note_On_56_Vel_75
Note_On_73_Vel_57
Time_Shift_1
Note_On_75_Vel_67
Time_Shift_25
Note_On_68_Vel_0
Time_Shift_14
Note_On_65_Vel_0
Note_On_77_Vel_0
Time_Shift_7
Note_On_56_Vel_0
Note_On_73_Vel_0
Time_Shift_16
Note_On_75_Vel_0
Time_Shift_15
Note_On_61_Vel_0
Time_Shift_173
Note_On_77_Vel_78
Time_Shift_4
Note_On_49_Vel_60
Time_Shift_5
Note_On_80_Vel_64
Time_Shift_30
Note_On_49_Vel_0
Time_Shift_10
Note_On_80_Vel_0
Time_Shift_4
Note_On_77_Vel_0
Time_Shift_24
Note_On_82_Vel_67
Time_Shift_60
Note_On_82_Vel_0
Time_Shift_17
Note_On_80_Vel_65
Time_Shift_1
Note_On_77_Vel_49
Time_Shift_42
Note_On_80_Vel_0
Time_Shift_14
Note_On_77_Vel_0
Time_Shift_4
Note_On_65_Vel_61
Time_Shift_2
Note_On_73_Vel_72
Time_Shift_1
Note_On_61_Vel_62
Time_Shift_5
Note_On_56_Vel_46
Time_Shift_28
Note_On_73_Vel_0
Note_On_65_Vel_0
Time_Shift_3
Note_On_61_Vel_0
Time_Shift_6
Note_On_56_Vel_0
Time_Shift_30
Note_On_77_Vel_34
Time_Shift_6
Note_On_77_Vel_0
Time_Shift_55
Note_On_82_Vel_65
Time_Shift_44
Note_On_82_Vel_0
Time_Shift_81
Note_On_44_Vel_72
Note_On_78_Vel_84
Time_Shift_1
Note_On_80_Vel_82
Time_Shift_26
Note_On_78_Vel_0
Time_Shift_1
Note_On_80_Vel_0
Note_On_44_Vel_0
Time_Shift_56
Note_On_82_Vel_64
Time_Shift_41
Note_On_82_Vel_0
Time_Shift_15
Note_On_80_Vel_59
Time_Shift_24
Note_On_78_Vel_64
Time_Shift_20
Note_On_80_Vel_0
Time_Shift_40
Note_On_72_Vel_69
Time_Shift_10
Note_On_78_Vel_0
Time_Shift_3
Note_On_66_Vel_67
Time_Shift_2
Note_On_75_Vel_56
Time_Shift_2
Note_On_56_Vel_69
Time_Shift_3
Note_On_63_Vel_54
Time_Shift_3
Note_On_78_Vel_51
Time_Shift_10
Note_On_78_Vel_0
Time_Shift_3
Note_On_72_Vel_0
Time_Shift_5
Note_On_66_Vel_0
Time_Shift_1
Note_On_63_Vel_0
Time_Shift_3
Note_On_56_Vel_0
Time_Shift_4
Note_On_75_Vel_0
Time_Shift_60
Note_On_87_Vel_84
Time_Shift_34
Note_On_87_Vel_0
Time_Shift_102
Note_On_78_Vel_84
Time_Shift_5
Note_On_80_Vel_84
Time_Shift_2
Note_On_44_Vel_68
Time_Shift_17
Note_On_78_Vel_0
Time_Shift_4
Note_On_80_Vel_0
Time_Shift_3
Note_On_44_Vel_0
Time_Shift_36
Note_On_82_Vel_74
Time_Shift_58
Note_On_82_Vel_0
Time_Shift_7
Note_On_78_Vel_72
Note_On_80_Vel_65
Time_Shift_102
Note_On_78_Vel_0
Time_Shift_1
Note_On_66_Vel_71
Time_Shift_1
Note_On_56_Vel_72
Time_Shift_1
Note_On_75_Vel_69
Time_Shift_8
Note_On_78_Vel_63
Time_Shift_16
Note_On_66_Vel_0
Time_Shift_1
Note_On_56_Vel_0
Time_Shift_2
Note_On_80_Vel_0
Time_Shift_16
Note_On_75_Vel_0
Time_Shift_15
Note_On_78_Vel_0
Time_Shift_50
Note_On_84_Vel_81
Time_Shift_50
Note_On_84_Vel_0
Time_Shift_89
Note_On_77_Vel_84
Note_On_80_Vel_85
Time_Shift_7
Note_On_49_Vel_64
Time_Shift_19
Note_On_77_Vel_0
Time_Shift_1
Note_On_80_Vel_0
Time_Shift_30
Note_On_49_Vel_0
Time_Shift_20
Note_On_82_Vel_65
Time_Shift_53
Note_On_82_Vel_0
Time_Shift_1
Note_On_80_Vel_62
Time_Shift_3
Note_On_77_Vel_68
Time_Shift_61
Note_On_77_Vel_0
Time_Shift_29
Note_On_65_Vel_61
Time_Shift_1
Note_On_61_Vel_69
Time_Shift_1
Note_On_80_Vel_0
Note_On_56_Vel_65
Time_Shift_3
Note_On_73_Vel_62
Time_Shift_7
Note_On_77_Vel_58
Time_Shift_16
Note_On_61_Vel_0
Time_Shift_1
Note_On_65_Vel_0
Time_Shift_1
Note_On_56_Vel_0
Time_Shift_1
Note_On_73_Vel_0
Time_Shift_32
Note_On_77_Vel_0
Time_Shift_51
Note_On_85_Vel_76
Time_Shift_49
Note_On_85_Vel_0
Time_Shift_68
Note_On_89_Vel_81
Time_Shift_4
Note_On_77_Vel_89
Time_Shift_1
Note_On_80_Vel_88
Time_Shift_4
Note_On_89_Vel_0
Time_Shift_3
Note_On_49_Vel_76
Time_Shift_20
Note_On_80_Vel_0
Time_Shift_1
Note_On_77_Vel_0
Time_Shift_4
Note_On_49_Vel_0
Time_Shift_47
Note_On_82_Vel_71
Time_Shift_44
Note_On_82_Vel_0
Time_Shift_15
Note_On_80_Vel_68
Time_Shift_3
Note_On_77_Vel_76
Time_Shift_78
Note_On_77_Vel_0
Time_Shift_2
Note_On_65_Vel_75
Time_Shift_1
Note_On_61_Vel_79
Note_On_73_Vel_75
Time_Shift_1
Note_On_77_Vel_68
Time_Shift_1
Note_On_56_Vel_71
Note_On_68_Vel_68
Time_Shift_22
Note_On_65_Vel_0
Note_On_73_Vel_0
Time_Shift_1
Note_On_56_Vel_0
Time_Shift_10
Note_On_68_Vel_0
Note_On_80_Vel_0
Time_Shift_8
Note_On_61_Vel_0
Note_On_77_Vel_0
Time_Shift_34
Note_On_77_Vel_37
Time_Shift_5
Note_On_77_Vel_0
Time_Shift_50
Note_On_82_Vel_59
Time_Shift_25
Note_On_82_Vel_0
Time_Shift_90
Note_On_44_Vel_76
Time_Shift_3
Note_On_80_Vel_86
Time_Shift_1
Note_On_78_Vel_85
Time_Shift_23
Note_On_44_Vel_0
Note_On_78_Vel_0
Time_Shift_23
Note_On_80_Vel_0
Time_Shift_36
Note_On_82_Vel_65
Time_Shift_43
Note_On_82_Vel_0
Time_Shift_6
Note_On_80_Vel_68
Time_Shift_78
Note_On_80_Vel_0
Time_Shift_2
Note_On_72_Vel_75
Note_On_78_Vel_73
Time_Shift_1
Note_On_66_Vel_82
Time_Shift_2
Note_On_63_Vel_75
Time_Shift_2
Note_On_56_Vel_77
Time_Shift_18
Note_On_66_Vel_0
Time_Shift_27
Note_On_56_Vel_0
Note_On_63_Vel_0
Note_On_72_Vel_0
Note_On_78_Vel_0
Time_Shift_29
Note_On_78_Vel_55
Time_Shift_44
Note_On_87_Vel_76
Time_Shift_26
Note_On_78_Vel_0
Time_Shift_6
Note_On_87_Vel_0
Time_Shift_97
Note_On_78_Vel_87
Time_Shift_1
Note_On_80_Vel_86
Time_Shift_1
Note_On_44_Vel_75
Time_Shift_22
Note_On_78_Vel_0
Time_Shift_2
Note_On_80_Vel_0
Time_Shift_25
Note_On_44_Vel_0
Time_Shift_11
Note_On_82_Vel_68
Time_Shift_62
Note_On_80_Vel_71
Time_Shift_2
Note_On_82_Vel_0
Time_Shift_13
Note_On_78_Vel_76
Time_Shift_62
Note_On_63_Vel_83
Time_Shift_2
Note_On_66_Vel_82
Note_On_80_Vel_0
Time_Shift_2
Note_On_75_Vel_76
Time_Shift_3
Note_On_56_Vel_76
Time_Shift_10
Note_On_78_Vel_0
Time_Shift_11
Note_On_66_Vel_0
Time_Shift_2
Note_On_63_Vel_0
Time_Shift_6
Note_On_56_Vel_0
Time_Shift_14
Note_On_75_Vel_0
Time_Shift_80
Note_On_84_Vel_82
Time_Shift_50
Note_On_84_Vel_0
Time_Shift_80
Note_On_49_Vel_87
Time_Shift_1
Note_On_85_Vel_96
Time_Shift_7
Note_On_77_Vel_75
Time_Shift_27
Sustain_On
Time_Shift_197
Sustain_Off
Time_Shift_8
Note_On_65_Vel_71
Time_Shift_4
Note_On_56_Vel_70
Note_On_61_Vel_67
Time_Shift_7
Note_On_49_Vel_0
Time_Shift_13
Note_On_65_Vel_0
Time_Shift_7
Note_On_56_Vel_0
Time_Shift_2
Note_On_61_Vel_0
Time_Shift_8
Note_On_77_Vel_0
Time_Shift_23
Note_On_85_Vel_0
Time_Shift_175
Note_On_45_Vel_79
Time_Shift_6
Note_On_96_Vel_85
Time_Shift_11
Sustain_On
Time_Shift_140
Note_On_90_Vel_85
Time_Shift_37
Note_On_92_Vel_92
Time_Shift_31
Note_On_90_Vel_0
Time_Shift_6
Note_On_90_Vel_102
Time_Shift_3
Note_On_65_Vel_76
Time_Shift_10
Note_On_60_Vel_76
Time_Shift_7
Note_On_53_Vel_78
Time_Shift_20
Note_On_45_Vel_0
Time_Shift_1
Sustain_Off
Time_Shift_1
Note_On_96_Vel_0
Time_Shift_1
Note_On_92_Vel_0
Time_Shift_1
Note_On_90_Vel_0
Time_Shift_19
Note_On_60_Vel_0
Time_Shift_1
Note_On_53_Vel_0
Time_Shift_14
Note_On_65_Vel_0
Time_Shift_44
Note_On_89_Vel_89
Time_Shift_59
Note_On_89_Vel_0
Time_Shift_60
Note_On_87_Vel_91
Time_Shift_4
Note_On_46_Vel_76
Time_Shift_89
Note_On_87_Vel_0
Time_Shift_1
Note_On_85_Vel_85
Time_Shift_12
Note_On_46_Vel_0
Time_Shift_17
Note_On_85_Vel_0
Time_Shift_69
Note_On_85_Vel_88
Time_Shift_25
Note_On_65_Vel_74
Time_Shift_5
Note_On_84_Vel_95
Time_Shift_4
Note_On_61_Vel_66
Note_On_58_Vel_63
Time_Shift_6
Note_On_85_Vel_0
Time_Shift_19
Note_On_84_Vel_0
Time_Shift_16
Note_On_65_Vel_0
Time_Shift_3
Note_On_58_Vel_0
Time_Shift_13
Note_On_61_Vel_0
Time_Shift_65
Note_On_82_Vel_83
Time_Shift_128
Note_On_80_Vel_82
Time_Shift_3
Note_On_51_Vel_78
Time_Shift_34
Note_On_82_Vel_0
Time_Shift_1
Note_On_51_Vel_0
Time_Shift_66
Note_On_78_Vel_80
Time_Shift_7
Note_On_80_Vel_0
Time_Shift_87
Note_On_78_Vel_0
Time_Shift_28
Note_On_77_Vel_75
Time_Shift_8
Note_On_66_Vel_66
Time_Shift_5
Note_On_61_Vel_63
Time_Shift_1
Note_On_58_Vel_62
Time_Shift_25
Note_On_61_Vel_0
Time_Shift_18
Note_On_66_Vel_0
Time_Shift_15
Note_On_58_Vel_0
Time_Shift_26
Note_On_75_Vel_67
Time_Shift_36
Note_On_77_Vel_0
Time_Shift_95
Note_On_75_Vel_0
Time_Shift_14
Note_On_73_Vel_71
Time_Shift_19
Note_On_68_Vel_52
Time_Shift_6
Note_On_65_Vel_32
Time_Shift_2
Note_On_56_Vel_45
Time_Shift_8
Note_On_73_Vel_0
Time_Shift_32
Note_On_68_Vel_0
Time_Shift_33
Note_On_72_Vel_68
Time_Shift_29
Note_On_65_Vel_0
Time_Shift_20
Note_On_72_Vel_0
Time_Shift_26
Note_On_56_Vel_0
Time_Shift_42
Note_On_66_Vel_74
Time_Shift_22
Note_On_60_Vel_55
Time_Shift_4
Note_On_70_Vel_60
Time_Shift_5
Note_On_66_Vel_0
Time_Shift_34
Note_On_60_Vel_0
Time_Shift_23
Note_On_70_Vel_0
Time_Shift_41
Note_On_68_Vel_64
Time_Shift_56
Note_On_68_Vel_0
Time_Shift_76
Note_On_44_Vel_65
Note_On_67_Vel_64
Time_Shift_30
Note_On_44_Vel_0
Time_Shift_5
Note_On_67_Vel_0
Time_Shift_79
Note_On_68_Vel_55
Time_Shift_121
Note_On_66_Vel_61
Time_Shift_3
Note_On_60_Vel_55
Time_Shift_1
Note_On_70_Vel_60
Time_Shift_3
Note_On_56_Vel_58
Time_Shift_25
Note_On_60_Vel_0
Time_Shift_1
Note_On_66_Vel_0
Time_Shift_5
Note_On_68_Vel_0
Time_Shift_1
Note_On_56_Vel_0
Time_Shift_13
Note_On_70_Vel_0
Time_Shift_59
Note_On_72_Vel_60
Time_Shift_38
Note_On_72_Vel_0
Time_Shift_86
Note_On_73_Vel_71
Time_Shift_6
Note_On_49_Vel_66
Time_Shift_30
Note_On_49_Vel_0
Time_Shift_6
Note_On_73_Vel_0
Time_Shift_78
Note_On_75_Vel_61
Time_Shift_55
Note_On_75_Vel_0
Time_Shift_66
Note_On_65_Vel_72
Note_On_77_Vel_72
Time_Shift_2
Note_On_56_Vel_71
Time_Shift_1
Note_On_61_Vel_68
Time_Shift_21
Note_On_65_Vel_0
Time_Shift_2
Note_On_61_Vel_0
Time_Shift_1
Note_On_56_Vel_0
Time_Shift_14
Note_On_77_Vel_0
Time_Shift_62
Note_On_78_Vel_69
Time_Shift_52
Note_On_78_Vel_0
Time_Shift_82
Note_On_44_Vel_79
Time_Shift_4
Note_On_79_Vel_69
Note_On_78_Vel_65
Time_Shift_40
Note_On_79_Vel_0
Time_Shift_3
Note_On_44_Vel_0
Note_On_78_Vel_0
Time_Shift_52
Note_On_80_Vel_74
Time_Shift_72
Note_On_80_Vel_0
Time_Shift_56
Note_On_82_Vel_69
Time_Shift_4
Note_On_66_Vel_64
Note_On_60_Vel_66
Time_Shift_1
Note_On_56_Vel_68
Time_Shift_27
Note_On_66_Vel_0
Note_On_60_Vel_0
Time_Shift_5
Note_On_56_Vel_0
Time_Shift_55
Note_On_84_Vel_80
Time_Shift_12
Note_On_82_Vel_0
Time_Shift_22
Note_On_84_Vel_0
Time_Shift_90
Note_On_85_Vel_83
Note_On_49_Vel_84
Time_Shift_38
Note_On_49_Vel_0
Time_Shift_9
Note_On_85_Vel_0
Time_Shift_55
Note_On_87_Vel_88
Time_Shift_57
Note_On_87_Vel_0
Time_Shift_54
Note_On_65_Vel_73
Time_Shift_1
Note_On_88_Vel_92
Time_Shift_1
Note_On_61_Vel_66
Time_Shift_27
Note_On_65_Vel_0
Time_Shift_3
Note_On_61_Vel_0
Time_Shift_69
Note_On_89_Vel_88
Time_Shift_27
Note_On_88_Vel_0
Time_Shift_27
Note_On_89_Vel_0
Time_Shift_60
Note_On_96_Vel_97
Time_Shift_8
Note_On_45_Vel_82
Time_Shift_51
Sustain_On
Time_Shift_149
Note_On_90_Vel_60
Time_Shift_26
Note_On_92_Vel_81
Time_Shift_9
Note_On_90_Vel_0
Time_Shift_4
Note_On_45_Vel_0
Time_Shift_2
Note_On_65_Vel_76
Time_Shift_2
Note_On_60_Vel_74
Note_On_90_Vel_95
Time_Shift_2
Note_On_96_Vel_0
Time_Shift_2
Sustain_Off
Time_Shift_13
Note_On_53_Vel_77
Time_Shift_33
Note_On_53_Vel_0
Time_Shift_4
Note_On_60_Vel_0
Note_On_92_Vel_0
Time_Shift_15
Note_On_65_Vel_0
Time_Shift_46
Note_On_90_Vel_0
Time_Shift_12
Note_On_89_Vel_84
Time_Shift_61
Note_On_89_Vel_0
Time_Shift_53
Note_On_87_Vel_87
Time_Shift_5
Note_On_46_Vel_72
Time_Shift_59
Note_On_87_Vel_0
Time_Shift_25
Note_On_46_Vel_0
Time_Shift_18
Note_On_85_Vel_79
Time_Shift_25
Note_On_85_Vel_0
Time_Shift_36
Note_On_84_Vel_73
Time_Shift_32
Note_On_85_Vel_80
Time_Shift_12
Note_On_84_Vel_0
Time_Shift_5
Note_On_65_Vel_79
Time_Shift_6
Note_On_84_Vel_95
Time_Shift_1
Note_On_58_Vel_65
Time_Shift_5
Note_On_61_Vel_63
Time_Shift_3
Note_On_85_Vel_0
Time_Shift_22
Note_On_65_Vel_0
Note_On_84_Vel_0
Time_Shift_8
Note_On_61_Vel_0
Time_Shift_50
Note_On_58_Vel_0
Time_Shift_36
Note_On_82_Vel_85
Time_Shift_123
Note_On_80_Vel_81
Time_Shift_17
Note_On_82_Vel_0
Time_Shift_2
Note_On_51_Vel_59
Time_Shift_29
Note_On_51_Vel_0
Time_Shift_56
Note_On_80_Vel_0
Time_Shift_7
Note_On_78_Vel_75
Time_Shift_83
Note_On_78_Vel_0
Time_Shift_42
Note_On_77_Vel_74
Time_Shift_4
Note_On_73_Vel_52
Note_On_66_Vel_57
Time_Shift_3
Note_On_58_Vel_58
Time_Shift_1
Note_On_61_Vel_55
Time_Shift_4
Note_On_73_Vel_0
Time_Shift_29
Note_On_66_Vel_0
Time_Shift_7
Note_On_61_Vel_0
Time_Shift_48
Note_On_58_Vel_0
Time_Shift_18
Note_On_75_Vel_64
Time_Shift_13
Note_On_77_Vel_0
Time_Shift_105
Note_On_75_Vel_0
Time_Shift_14
Note_On_73_Vel_61
Time_Shift_1
Note_On_56_Vel_53
Time_Shift_1
Note_On_68_Vel_52
Time_Shift_31
Note_On_56_Vel_0
Time_Shift_11
Note_On_73_Vel_0
Time_Shift_6
Note_On_68_Vel_0
Time_Shift_60
Note_On_72_Vel_62
Time_Shift_42
Note_On_72_Vel_0
Time_Shift_67
Note_On_66_Vel_51
Time_Shift_3
Note_On_60_Vel_48
Time_Shift_2
Note_On_70_Vel_63
Time_Shift_27
Note_On_66_Vel_0
Time_Shift_13
Note_On_60_Vel_0
Time_Shift_44
Note_On_70_Vel_0
Time_Shift_25
Note_On_68_Vel_48
Time_Shift_31
Note_On_68_Vel_0
Time_Shift_85
Note_On_44_Vel_92
Time_Shift_3
Note_On_82_Vel_99
Time_Shift_31
Note_On_44_Vel_0
Time_Shift_23
Note_On_82_Vel_0
Time_Shift_61
Note_On_72_Vel_68
Time_Shift_33
Note_On_72_Vel_0
Time_Shift_85
Note_On_63_Vel_66
Time_Shift_3
Note_On_66_Vel_70
Time_Shift_3
Note_On_80_Vel_77
Time_Shift_1
Note_On_56_Vel_68
Time_Shift_6
Note_On_78_Vel_70
Time_Shift_17
Note_On_66_Vel_0
Time_Shift_1
Note_On_80_Vel_0
Time_Shift_2
Note_On_56_Vel_0
Time_Shift_4
Note_On_78_Vel_0
Time_Shift_11
Note_On_63_Vel_0
Time_Shift_79
Note_On_89_Vel_65
Time_Shift_75
Note_On_89_Vel_0
Time_Shift_39
Note_On_49_Vel_94
Time_Shift_2
Note_On_87_Vel_94
Time_Shift_36
Note_On_49_Vel_0
Time_Shift_18
Note_On_87_Vel_0
Time_Shift_77
Note_On_77_Vel_56
Time_Shift_92
Note_On_85_Vel_84
Time_Shift_3
Note_On_65_Vel_64
Time_Shift_2
Note_On_61_Vel_73
Time_Shift_4
Note_On_80_Vel_62
Time_Shift_4
Note_On_56_Vel_45
Time_Shift_15
Note_On_77_Vel_0
Time_Shift_2
Note_On_85_Vel_0
Time_Shift_5
Note_On_65_Vel_0
Time_Shift_5
Note_On_61_Vel_0
Time_Shift_3
Note_On_80_Vel_0
Time_Shift_11
Note_On_56_Vel_0
Time_Shift_64
Note_On_94_Vel_99
Time_Shift_115
Note_On_92_Vel_105
Note_On_44_Vel_90
Time_Shift_31
Note_On_44_Vel_0
Time_Shift_2
Note_On_94_Vel_0
Time_Shift_46
Note_On_92_Vel_0
Time_Shift_17
Note_On_84_Vel_85
Time_Shift_32
Note_On_84_Vel_0
Time_Shift_96
Note_On_92_Vel_104
Time_Shift_2
Note_On_66_Vel_92
Time_Shift_7
Note_On_63_Vel_76
Time_Shift_1
Note_On_90_Vel_92
Time_Shift_4
Note_On_56_Vel_70
Time_Shift_5
Note_On_94_Vel_77
Time_Shift_16
Note_On_66_Vel_0
Time_Shift_2
Note_On_92_Vel_0
Time_Shift_3
Note_On_63_Vel_0
Time_Shift_2
Note_On_56_Vel_0
Note_On_90_Vel_0
Time_Shift_5
Note_On_94_Vel_0
Time_Shift_57
Note_On_96_Vel_106
Time_Shift_89
Note_On_96_Vel_0
Time_Shift_20
Note_On_97_Vel_109
Time_Shift_6
Note_On_101_Vel_94
Time_Shift_1
Note_On_65_Vel_96
Note_On_61_Vel_100
Note_On_89_Vel_94
Time_Shift_19
Sustain_On
Time_Shift_246
Sustain_Off
Time_Shift_3
Note_On_97_Vel_0
Time_Shift_1
Note_On_65_Vel_0
Time_Shift_1
Note_On_61_Vel_0
Time_Shift_1
Note_On_89_Vel_0
Time_Shift_9
Note_On_101_Vel_0
