Ticks_Per_Beat_384
Tempo_500000
Time_Shift_6504
Sustain_On
Time_Shift_944
Note_On_60_Vel_43
Time_Shift_72
Note_On_62_Vel_61
Time_Shift_83
Note_On_60_Vel_0
Time_Shift_8
Note_On_60_Vel_57
Time_Shift_76
Sustain_Off
Time_Shift_67
Note_On_59_Vel_64
Time_Shift_25
Note_On_62_Vel_0
Time_Shift_13
Note_On_60_Vel_0
Time_Shift_115
Note_On_60_Vel_61
Time_Shift_33
Note_On_59_Vel_0
Time_Shift_113
Note_On_62_Vel_65
Time_Shift_61
Note_On_60_Vel_0
Time_Shift_90
Note_On_63_Vel_67
Time_Shift_31
Note_On_62_Vel_0
Time_Shift_107
Note_On_55_Vel_65
Time_Shift_11
Note_On_63_Vel_0
Time_Shift_131
Note_On_56_Vel_69
Time_Shift_23
Note_On_55_Vel_0
Time_Shift_113
Note_On_55_Vel_60
Time_Shift_29
Note_On_56_Vel_0
Time_Shift_3
Note_On_48_Vel_53
Time_Shift_41
Note_On_55_Vel_0
Time_Shift_34
Note_On_48_Vel_0
Time_Shift_2
Note_On_50_Vel_57
Time_Shift_52
Note_On_54_Vel_70
Time_Shift_32
Note_On_48_Vel_53
Time_Shift_113
Note_On_55_Vel_71
Time_Shift_1
Note_On_47_Vel_58
Time_Shift_12
Note_On_48_Vel_0
Time_Shift_1
Note_On_54_Vel_0
Time_Shift_175
Note_On_56_Vel_69
Time_Shift_19
Note_On_55_Vel_0
Time_Shift_5
Note_On_50_Vel_0
Time_Shift_1
Note_On_48_Vel_50
Time_Shift_5
Note_On_47_Vel_0
Time_Shift_117
Sustain_On
Time_Shift_81
Note_On_56_Vel_0
Time_Shift_1
Sustain_Off
Time_Shift_47
Note_On_50_Vel_59
Time_Shift_40
Sustain_On
Time_Shift_49
Note_On_56_Vel_66
Time_Shift_104
Note_On_56_Vel_0
Time_Shift_5
Sustain_Off
Time_Shift_6
Note_On_56_Vel_68
Time_Shift_20
Note_On_50_Vel_0
Time_Shift_5
Note_On_51_Vel_56
Time_Shift_164
Sustain_On
Time_Shift_150
Sustain_Off
Note_On_51_Vel_0
Time_Shift_19
Note_On_48_Vel_0
Time_Shift_18
Note_On_47_Vel_55
Note_On_50_Vel_55
Time_Shift_28
Sustain_On
Time_Shift_113
Note_On_55_Vel_69
Time_Shift_141
Sustain_Off
Time_Shift_10
Note_On_50_Vel_0
Time_Shift_1
Note_On_47_Vel_0
Time_Shift_3
Note_On_56_Vel_0
Time_Shift_4
Note_On_52_Vel_72
Note_On_49_Vel_69
Time_Shift_8
Note_On_46_Vel_61
Time_Shift_132
Note_On_53_Vel_77
Time_Shift_156
Note_On_55_Vel_0
Time_Shift_11
Note_On_55_Vel_78
Time_Shift_12
Note_On_53_Vel_0
Note_On_52_Vel_0
Time_Shift_185
Sustain_On
Time_Shift_84
Note_On_55_Vel_0
Time_Shift_8
Note_On_55_Vel_79
Time_Shift_53
Sustain_Off
Time_Shift_31
Note_On_55_Vel_0
Time_Shift_9
Note_On_55_Vel_82
Time_Shift_45
Sustain_On
Time_Shift_253
Note_On_46_Vel_0
Time_Shift_2
Sustain_Off
Note_On_49_Vel_0
Time_Shift_25
Note_On_48_Vel_70
Time_Shift_2
Note_On_45_Vel_65
Time_Shift_48
Sustain_On
Time_Shift_118
Note_On_53_Vel_81
Time_Shift_92
Note_On_53_Vel_0
Note_On_45_Vel_0
Time_Shift_3
Sustain_Off
Time_Shift_18
Note_On_55_Vel_0
Time_Shift_50
Note_On_60_Vel_96
Time_Shift_3
Note_On_48_Vel_0
Time_Shift_6
Note_On_54_Vel_83
Time_Shift_3
Note_On_44_Vel_80
Time_Shift_1
Note_On_48_Vel_70
Time_Shift_13
Sustain_On
Time_Shift_223
Sustain_Off
Time_Shift_3
Note_On_48_Vel_0
Time_Shift_1
Note_On_44_Vel_0
Note_On_54_Vel_0
Note_On_60_Vel_0
Time_Shift_75
Note_On_62_Vel_97
Time_Shift_1
Note_On_47_Vel_86
Time_Shift_3
Note_On_55_Vel_86
Time_Shift_3
Note_On_53_Vel_85
Time_Shift_1
Note_On_43_Vel_87
Time_Shift_5
Sustain_On
Time_Shift_249
Sustain_Off
Time_Shift_2
Note_On_47_Vel_0
Note_On_43_Vel_0
Note_On_53_Vel_0
Note_On_55_Vel_0
Time_Shift_1
Note_On_62_Vel_0
Time_Shift_73
Note_On_63_Vel_96
Time_Shift_3
Note_On_51_Vel_89
Note_On_60_Vel_77
Note_On_48_Vel_89
Time_Shift_3
Note_On_55_Vel_87
Time_Shift_1
Note_On_36_Vel_82
Note_On_43_Vel_82
Time_Shift_6
Sustain_On
Time_Shift_157
Note_On_48_Vel_0
Time_Shift_1
Note_On_36_Vel_0
Time_Shift_1
Sustain_Off
Time_Shift_1
Note_On_43_Vel_0
Note_On_51_Vel_0
Time_Shift_1
Note_On_55_Vel_0
Time_Shift_62
Note_On_48_Vel_74
Time_Shift_165
Note_On_50_Vel_72
Note_On_48_Vel_0
Time_Shift_42
Note_On_63_Vel_0
Time_Shift_98
Note_On_51_Vel_69
Time_Shift_13
Note_On_50_Vel_0
Time_Shift_48
Note_On_53_Vel_68
Time_Shift_3
Note_On_51_Vel_0
Time_Shift_38
Note_On_53_Vel_0
Time_Shift_24
Note_On_55_Vel_64
Time_Shift_26
Note_On_62_Vel_67
Time_Shift_27
Note_On_60_Vel_0
Time_Shift_4
Note_On_60_Vel_49
Time_Shift_11
Note_On_53_Vel_68
Time_Shift_126
Note_On_52_Vel_74
Time_Shift_11
Note_On_53_Vel_0
Time_Shift_124
Note_On_55_Vel_0
Time_Shift_21
Note_On_53_Vel_75
Time_Shift_110
Sustain_On
Time_Shift_31
Sustain_Off
Time_Shift_10
Note_On_55_Vel_83
Time_Shift_128
Note_On_62_Vel_0
Time_Shift_7
Note_On_60_Vel_0
Time_Shift_3
Note_On_62_Vel_67
Time_Shift_8
Note_On_60_Vel_49
Time_Shift_1
Note_On_65_Vel_67
Time_Shift_8
Note_On_56_Vel_81
Time_Shift_14
Note_On_53_Vel_0
Time_Shift_2
Note_On_55_Vel_0
Note_On_52_Vel_0
Time_Shift_152
Note_On_44_Vel_78
Time_Shift_159
Note_On_46_Vel_81
Time_Shift_26
Note_On_44_Vel_0
Time_Shift_125
Note_On_44_Vel_79
Time_Shift_136
Note_On_46_Vel_0
Time_Shift_10
Note_On_44_Vel_0
Time_Shift_2
Note_On_62_Vel_0
Note_On_65_Vel_0
Time_Shift_2
Note_On_56_Vel_0
Time_Shift_5
Note_On_65_Vel_63
Time_Shift_1
Note_On_62_Vel_68
Time_Shift_1
Note_On_59_Vel_67
Time_Shift_1
Note_On_43_Vel_74
Time_Shift_34
Note_On_62_Vel_0
Time_Shift_5
Note_On_59_Vel_0
Time_Shift_107
Note_On_49_Vel_76
Time_Shift_143
Note_On_60_Vel_0
Time_Shift_65
Note_On_50_Vel_71
Time_Shift_4
Note_On_65_Vel_0
Time_Shift_1
Note_On_49_Vel_0
Time_Shift_3
Note_On_59_Vel_56
Time_Shift_1
Note_On_65_Vel_56
Time_Shift_325
Note_On_50_Vel_0
Time_Shift_9
Note_On_50_Vel_68
Time_Shift_61
Note_On_50_Vel_0
Time_Shift_39
Note_On_50_Vel_71
Time_Shift_114
Sustain_On
Time_Shift_106
Sustain_Off
Time_Shift_9
Sustain_On
Time_Shift_39
Note_On_43_Vel_0
Time_Shift_46
Note_On_65_Vel_0
Time_Shift_4
Note_On_65_Vel_55
Time_Shift_3
Note_On_53_Vel_59
Time_Shift_2
Note_On_60_Vel_51
Time_Shift_149
Note_On_44_Vel_73
Time_Shift_80
Note_On_59_Vel_0
Time_Shift_20
Note_On_50_Vel_0
Time_Shift_1
Note_On_43_Vel_71
Time_Shift_2
Sustain_Off
Time_Shift_1
Note_On_60_Vel_0
Time_Shift_45
Note_On_44_Vel_0
Time_Shift_7
Note_On_44_Vel_82
Time_Shift_16
Note_On_65_Vel_0
Time_Shift_6
Note_On_65_Vel_78
Time_Shift_9
Note_On_53_Vel_0
Time_Shift_2
Note_On_62_Vel_62
Time_Shift_7
Note_On_53_Vel_59
Time_Shift_2
Note_On_59_Vel_58
Time_Shift_20
Note_On_43_Vel_0
Time_Shift_10
Note_On_43_Vel_77
Time_Shift_118
Note_On_42_Vel_78
Time_Shift_133
Note_On_44_Vel_0
Time_Shift_8
Note_On_43_Vel_0
Time_Shift_8
Note_On_43_Vel_79
Time_Shift_13
Note_On_42_Vel_0
Time_Shift_140
Note_On_44_Vel_81
Time_Shift_36
Note_On_43_Vel_0
Time_Shift_122
Note_On_44_Vel_0
Time_Shift_5
Note_On_43_Vel_83
Time_Shift_156
Note_On_32_Vel_79
Time_Shift_12
Note_On_43_Vel_0
Time_Shift_131
Note_On_31_Vel_78
Time_Shift_30
Sustain_On
Time_Shift_126
Note_On_43_Vel_83
Time_Shift_96
Note_On_53_Vel_0
Time_Shift_13
Note_On_31_Vel_0
Time_Shift_1
Note_On_65_Vel_0
Time_Shift_1
Sustain_Off
Note_On_43_Vel_0
Time_Shift_1
Note_On_32_Vel_0
Time_Shift_51
Note_On_51_Vel_96
Note_On_63_Vel_97
Time_Shift_4
Note_On_60_Vel_90
Time_Shift_2
Note_On_48_Vel_98
Note_On_36_Vel_90
Time_Shift_20
Sustain_On
Time_Shift_23
Note_On_59_Vel_0
Note_On_62_Vel_0
Time_Shift_71
Note_On_51_Vel_0
Time_Shift_2
Sustain_Off
Note_On_36_Vel_0
Note_On_48_Vel_0
Note_On_63_Vel_0
Time_Shift_1
Note_On_60_Vel_0
Time_Shift_209
Note_On_72_Vel_101
Time_Shift_2
Note_On_63_Vel_100
Time_Shift_1
Note_On_60_Vel_96
Time_Shift_2
Note_On_48_Vel_82
Note_On_55_Vel_90
Time_Shift_34
Sustain_On
Time_Shift_92
Note_On_63_Vel_0
Time_Shift_10
Note_On_48_Vel_0
Time_Shift_1
Sustain_Off
Note_On_60_Vel_0
Time_Shift_1
Note_On_72_Vel_0
Time_Shift_4
Note_On_55_Vel_0
Time_Shift_194
Note_On_84_Vel_100
Time_Shift_2
Note_On_72_Vel_97
Time_Shift_2
Note_On_75_Vel_97
Time_Shift_4
Note_On_67_Vel_87
Time_Shift_1
Note_On_60_Vel_84
Time_Shift_12
Sustain_On
Time_Shift_136
Note_On_60_Vel_0
Time_Shift_6
Sustain_Off
Time_Shift_19
Note_On_67_Vel_0
Time_Shift_56
Note_On_68_Vel_67
Time_Shift_29
Sustain_On
Time_Shift_92
Sustain_Off
Time_Shift_3
Note_On_68_Vel_0
Time_Shift_32
Note_On_67_Vel_69
Time_Shift_65
Note_On_72_Vel_0
Time_Shift_76
Sustain_On
Time_Shift_4
Note_On_72_Vel_77
Time_Shift_119
Note_On_84_Vel_0
Time_Shift_26
Note_On_67_Vel_0
Time_Shift_1
Sustain_Off
Time_Shift_3
Note_On_71_Vel_80
Time_Shift_4
Note_On_72_Vel_0
Time_Shift_5
Note_On_75_Vel_0
Time_Shift_19
Note_On_65_Vel_50
Note_On_68_Vel_60
Time_Shift_117
Note_On_72_Vel_86
Time_Shift_56
Sustain_On
Time_Shift_76
Sustain_Off
Time_Shift_43
Note_On_73_Vel_89
Time_Shift_22
Note_On_72_Vel_0
Time_Shift_135
Sustain_On
Time_Shift_42
Note_On_73_Vel_0
Time_Shift_77
Sustain_Off
Time_Shift_12
Note_On_71_Vel_0
Time_Shift_10
Note_On_74_Vel_84
Time_Shift_90
Note_On_74_Vel_0
Time_Shift_5
Note_On_74_Vel_73
Time_Shift_2
Sustain_On
Time_Shift_358
Sustain_Off
Time_Shift_8
Note_On_65_Vel_0
Time_Shift_4
Note_On_74_Vel_0
Time_Shift_5
Note_On_75_Vel_72
Time_Shift_29
Note_On_72_Vel_54
Time_Shift_2
Note_On_67_Vel_41
Time_Shift_5
Note_On_63_Vel_51
Time_Shift_42
Note_On_68_Vel_0
Time_Shift_154
Sustain_On
Time_Shift_125
Sustain_Off
Time_Shift_1
Note_On_72_Vel_0
Time_Shift_4
Note_On_67_Vel_0
Time_Shift_12
Note_On_67_Vel_48
Note_On_70_Vel_67
Time_Shift_9
Note_On_64_Vel_50
Time_Shift_146
Note_On_71_Vel_72
Time_Shift_177
Note_On_72_Vel_72
Time_Shift_8
Note_On_71_Vel_0
Time_Shift_9
Note_On_75_Vel_0
Time_Shift_137
Note_On_72_Vel_0
Time_Shift_155
Note_On_73_Vel_80
Time_Shift_85
Note_On_63_Vel_0
Time_Shift_15
Note_On_73_Vel_0
Time_Shift_11
Note_On_73_Vel_74
Time_Shift_127
Sustain_On
Time_Shift_236
Note_On_74_Vel_71
Sustain_Off
Time_Shift_22
Note_On_66_Vel_49
Time_Shift_5
Note_On_69_Vel_43
Time_Shift_9
Note_On_67_Vel_0
Note_On_70_Vel_0
Time_Shift_6
Note_On_73_Vel_0
Note_On_64_Vel_0
Time_Shift_114
Sustain_On
Time_Shift_181
Note_On_68_Vel_60
Time_Shift_7
Note_On_65_Vel_52
Note_On_58_Vel_54
Time_Shift_46
Note_On_69_Vel_0
Note_On_66_Vel_0
Time_Shift_24
Sustain_Off
Time_Shift_71
Note_On_75_Vel_82
Time_Shift_63
Sustain_On
Time_Shift_90
Note_On_76_Vel_88
Time_Shift_132
Note_On_74_Vel_0
Time_Shift_13
Note_On_77_Vel_94
Time_Shift_176
Note_On_78_Vel_97
Time_Shift_335
Note_On_79_Vel_100
Time_Shift_13
Note_On_68_Vel_0
Time_Shift_2
Note_On_65_Vel_0
Note_On_58_Vel_0
Note_On_76_Vel_0
Time_Shift_1
Note_On_77_Vel_0
Note_On_78_Vel_0
Time_Shift_7
Sustain_Off
Time_Shift_3
Note_On_67_Vel_65
Time_Shift_3
Note_On_75_Vel_0
Time_Shift_4
Note_On_51_Vel_64
Time_Shift_1
Note_On_63_Vel_70
Note_On_75_Vel_66
Time_Shift_41
Sustain_On
Time_Shift_200
Note_On_79_Vel_0
Time_Shift_9
Note_On_79_Vel_94
Time_Shift_40
Note_On_79_Vel_0
Note_On_51_Vel_0
Time_Shift_2
Sustain_Off
Time_Shift_3
Note_On_63_Vel_0
Time_Shift_8
Note_On_67_Vel_0
Note_On_75_Vel_0
Time_Shift_14
Note_On_77_Vel_99
Time_Shift_4
Note_On_62_Vel_86
Note_On_55_Vel_78
Time_Shift_4
Note_On_71_Vel_71
Time_Shift_16
Sustain_On
Time_Shift_36
Note_On_62_Vel_0
Time_Shift_1
Note_On_55_Vel_0
Time_Shift_5
Sustain_Off
Time_Shift_5
Note_On_77_Vel_0
Time_Shift_1
Note_On_71_Vel_0
Time_Shift_263
Note_On_75_Vel_101
Time_Shift_2
Note_On_48_Vel_83
Time_Shift_5
Note_On_55_Vel_81
Note_On_72_Vel_89
Time_Shift_1
Note_On_67_Vel_83
Note_On_63_Vel_84
Time_Shift_11
Sustain_On
Time_Shift_76
Note_On_75_Vel_0
Note_On_72_Vel_0
Time_Shift_1
Note_On_67_Vel_0
Time_Shift_2
Note_On_63_Vel_0
Note_On_48_Vel_0
Sustain_Off
Note_On_55_Vel_0
Time_Shift_157
Note_On_48_Vel_62
Time_Shift_87
Note_On_48_Vel_0
Time_Shift_42
Note_On_48_Vel_64
Time_Shift_158
Note_On_49_Vel_65
Time_Shift_9
Note_On_48_Vel_0
Time_Shift_153
Note_On_50_Vel_56
Time_Shift_63
Note_On_49_Vel_0
Time_Shift_93
Note_On_50_Vel_0
Time_Shift_13
Note_On_51_Vel_56
Time_Shift_164
Note_On_67_Vel_57
Time_Shift_5
Note_On_63_Vel_60
Time_Shift_2
Note_On_61_Vel_58
Time_Shift_23
Note_On_58_Vel_44
Time_Shift_111
Note_On_68_Vel_65
Time_Shift_43
Note_On_68_Vel_0
Time_Shift_103
Note_On_69_Vel_64
Time_Shift_5
Note_On_67_Vel_0
Time_Shift_22
Note_On_69_Vel_0
Time_Shift_131
Note_On_70_Vel_67
Time_Shift_40
Note_On_70_Vel_0
Time_Shift_120
Note_On_71_Vel_70
Time_Shift_55
Note_On_71_Vel_0
Time_Shift_66
Sustain_On
Time_Shift_179
Note_On_58_Vel_0
Time_Shift_1
Note_On_61_Vel_0
Sustain_Off
Time_Shift_24
Note_On_72_Vel_85
Time_Shift_3
Note_On_63_Vel_0
Time_Shift_5
Note_On_68_Vel_68
Time_Shift_4
Note_On_63_Vel_54
Time_Shift_1
Note_On_44_Vel_59
Time_Shift_1
Note_On_60_Vel_62
Note_On_56_Vel_65
Time_Shift_20
Sustain_On
Time_Shift_207
Note_On_72_Vel_0
Time_Shift_10
Note_On_72_Vel_76
Time_Shift_51
Note_On_51_Vel_0
Note_On_63_Vel_0
Time_Shift_1
Note_On_67_Vel_81
Time_Shift_7
Note_On_61_Vel_80
Time_Shift_2
Note_On_58_Vel_72
Note_On_51_Vel_76
Time_Shift_2
Note_On_63_Vel_74
Time_Shift_16
Sustain_Off
Time_Shift_4
Note_On_72_Vel_0
Note_On_60_Vel_0
Time_Shift_1
Note_On_68_Vel_0
Note_On_56_Vel_0
Note_On_44_Vel_0
Time_Shift_118
Note_On_68_Vel_81
Time_Shift_138
Note_On_69_Vel_86
Time_Shift_19
Note_On_68_Vel_0
Time_Shift_16
Note_On_69_Vel_0
Time_Shift_7
Note_On_67_Vel_0
Time_Shift_110
Note_On_70_Vel_89
Time_Shift_57
Note_On_70_Vel_0
Time_Shift_97
Note_On_71_Vel_89
Time_Shift_74
Sustain_On
Time_Shift_205
Note_On_71_Vel_0
Note_On_61_Vel_0
Time_Shift_1
Note_On_58_Vel_0
Time_Shift_3
Sustain_Off
Time_Shift_28
Note_On_72_Vel_94
Time_Shift_1
Note_On_63_Vel_0
Time_Shift_3
Note_On_60_Vel_92
Note_On_56_Vel_98
Time_Shift_1
Note_On_68_Vel_91
Note_On_63_Vel_81
Note_On_44_Vel_88
Time_Shift_3
Note_On_51_Vel_0
Time_Shift_46
Sustain_On
Time_Shift_216
Note_On_72_Vel_0
Time_Shift_9
Note_On_72_Vel_83
Time_Shift_15
Sustain_Off
Time_Shift_3
Note_On_56_Vel_0
Note_On_68_Vel_0
Time_Shift_1
Note_On_63_Vel_0
Note_On_44_Vel_0
Time_Shift_18
Note_On_60_Vel_0
Time_Shift_4
Note_On_55_Vel_102
Note_On_60_Vel_96
Note_On_64_Vel_94
Note_On_43_Vel_101
Time_Shift_4
Note_On_70_Vel_96
Time_Shift_53
Sustain_On
Time_Shift_228
Note_On_64_Vel_0
Time_Shift_4
Note_On_43_Vel_0
Time_Shift_1
Note_On_55_Vel_0
Time_Shift_1
Note_On_70_Vel_0
Time_Shift_2
Sustain_Off
Time_Shift_10
Note_On_60_Vel_0
Time_Shift_4
Note_On_68_Vel_94
Time_Shift_1
Note_On_65_Vel_92
Time_Shift_1
Note_On_60_Vel_96
Note_On_53_Vel_90
Time_Shift_2
Note_On_41_Vel_89
Time_Shift_15
Note_On_72_Vel_0
Time_Shift_13
Note_On_53_Vel_0
Note_On_65_Vel_0
Time_Shift_25
Note_On_60_Vel_0
Time_Shift_8
Note_On_41_Vel_0
Time_Shift_15
Note_On_68_Vel_0
Time_Shift_70
Note_On_55_Vel_95
Time_Shift_1
Note_On_43_Vel_89
Note_On_63_Vel_97
Time_Shift_2
Note_On_67_Vel_85
Note_On_60_Vel_88
Time_Shift_27
Note_On_55_Vel_0
Time_Shift_2
Note_On_43_Vel_0
Time_Shift_2
Note_On_60_Vel_0
Note_On_67_Vel_0
Time_Shift_4
Note_On_63_Vel_0
Time_Shift_105
Note_On_60_Vel_98
Note_On_65_Vel_99
Time_Shift_1
Note_On_56_Vel_103
Time_Shift_4
Note_On_44_Vel_96
Time_Shift_20
Sustain_On
Time_Shift_278
Note_On_56_Vel_0
Time_Shift_1
Note_On_44_Vel_0
Time_Shift_1
Note_On_60_Vel_0
Sustain_Off
Note_On_65_Vel_0
Time_Shift_40
Note_On_66_Vel_96
Note_On_60_Vel_89
Time_Shift_1
Note_On_56_Vel_104
Time_Shift_1
Note_On_62_Vel_93
Time_Shift_3
Note_On_44_Vel_96
Time_Shift_29
Sustain_On
Time_Shift_211
Sustain_Off
Time_Shift_1
Note_On_56_Vel_0
Note_On_66_Vel_0
Time_Shift_1
Note_On_44_Vel_0
Time_Shift_1
Note_On_60_Vel_0
Note_On_62_Vel_0
Time_Shift_91
Note_On_67_Vel_103
Time_Shift_3
Note_On_62_Vel_102
Note_On_55_Vel_99
Note_On_59_Vel_102
Time_Shift_1
Note_On_43_Vel_91
Time_Shift_21
Sustain_On
Time_Shift_137
Sustain_Off
Time_Shift_1
Note_On_55_Vel_0
Time_Shift_4
Note_On_62_Vel_0
Time_Shift_1
Note_On_59_Vel_0
Note_On_67_Vel_0
Time_Shift_10
Note_On_43_Vel_0
Time_Shift_226
Note_On_79_Vel_104
Time_Shift_1
Note_On_67_Vel_101
Note_On_74_Vel_94
Note_On_43_Vel_98
Time_Shift_1
Note_On_31_Vel_89
Note_On_71_Vel_95
Time_Shift_41
Sustain_On
Time_Shift_185
Note_On_43_Vel_0
Time_Shift_8
Note_On_43_Vel_54
Time_Shift_102
Note_On_31_Vel_0
Note_On_67_Vel_0
Note_On_74_Vel_0
Time_Shift_1
Note_On_71_Vel_0
Note_On_43_Vel_0
Note_On_79_Vel_0
Time_Shift_2
Sustain_Off
Time_Shift_145
Note_On_44_Vel_62
Time_Shift_80
Note_On_44_Vel_0
Time_Shift_122
Sustain_On
Time_Shift_6
Note_On_45_Vel_58
Time_Shift_1
Note_On_33_Vel_57
Time_Shift_229
Note_On_46_Vel_60
Time_Shift_1
Note_On_34_Vel_56
Time_Shift_324
Sustain_Off
Time_Shift_3
Note_On_45_Vel_0
Time_Shift_32
Note_On_47_Vel_52
Time_Shift_2
Note_On_54_Vel_41
Time_Shift_1
Note_On_33_Vel_0
Time_Shift_100
Sustain_On
Time_Shift_331
Note_On_46_Vel_0
Time_Shift_7
Note_On_34_Vel_0
Time_Shift_36
Note_On_36_Vel_42
Note_On_47_Vel_0
Time_Shift_13
Sustain_Off
Time_Shift_5
Note_On_54_Vel_0
Time_Shift_123
Sustain_On
Time_Shift_36
Note_On_72_Vel_54
Note_On_48_Vel_48
Time_Shift_244
Note_On_73_Vel_57
Time_Shift_48
Note_On_51_Vel_57
Time_Shift_122
Note_On_74_Vel_58
Time_Shift_57
Note_On_59_Vel_60
Time_Shift_7
Note_On_36_Vel_0
Time_Shift_137
Note_On_60_Vel_59
Time_Shift_92
Note_On_75_Vel_67
Time_Shift_84
Note_On_38_Vel_58
Time_Shift_5
Note_On_48_Vel_0
Note_On_60_Vel_0
Note_On_59_Vel_0
Time_Shift_1
Note_On_73_Vel_0
Note_On_51_Vel_0
Note_On_74_Vel_0
Time_Shift_4
Note_On_72_Vel_0
Time_Shift_2
Sustain_Off
Time_Shift_6
Note_On_75_Vel_0
Time_Shift_3
Note_On_72_Vel_52
Time_Shift_1
Note_On_75_Vel_64
Time_Shift_66
Note_On_50_Vel_56
Time_Shift_6
Sustain_On
Time_Shift_54
Note_On_75_Vel_0
Time_Shift_5
Note_On_75_Vel_55
Time_Shift_5
Note_On_74_Vel_48
Time_Shift_36
Note_On_72_Vel_0
Time_Shift_12
Note_On_72_Vel_42
Time_Shift_53
Note_On_53_Vel_51
Time_Shift_150
Note_On_75_Vel_0
Time_Shift_3
Note_On_59_Vel_67
Time_Shift_1
Note_On_75_Vel_70
Time_Shift_155
Note_On_60_Vel_70
Time_Shift_87
Note_On_75_Vel_0
Time_Shift_7
Note_On_75_Vel_39
Time_Shift_93
Note_On_72_Vel_0
Time_Shift_4
Note_On_72_Vel_69
Time_Shift_1
Note_On_59_Vel_0
Note_On_75_Vel_0
Note_On_53_Vel_0
Time_Shift_1
Note_On_50_Vel_0
Note_On_60_Vel_0
Time_Shift_2
Note_On_39_Vel_66
Time_Shift_2
Sustain_Off
Time_Shift_5
Note_On_38_Vel_0
Time_Shift_13
Note_On_51_Vel_66
Time_Shift_3
Note_On_74_Vel_0
Time_Shift_49
Note_On_39_Vel_0
Time_Shift_4
Sustain_On
Time_Shift_106
Note_On_73_Vel_79
Time_Shift_29
Note_On_55_Vel_60
Time_Shift_136
Note_On_74_Vel_75
Time_Shift_19
Note_On_59_Vel_74
Time_Shift_159
Note_On_60_Vel_68
Time_Shift_76
Note_On_75_Vel_78
Time_Shift_73
Note_On_59_Vel_0
Time_Shift_1
Note_On_73_Vel_0
Time_Shift_2
Note_On_72_Vel_0
Note_On_51_Vel_0
Note_On_55_Vel_0
Note_On_74_Vel_0
Note_On_60_Vel_0
Time_Shift_2
Note_On_41_Vel_70
Time_Shift_2
Sustain_Off
Time_Shift_2
Note_On_75_Vel_0
Time_Shift_10
Note_On_75_Vel_88
Time_Shift_59
Sustain_On
Time_Shift_164
Note_On_72_Vel_58
Time_Shift_1
Note_On_56_Vel_75
Time_Shift_158
Note_On_75_Vel_0
Time_Shift_11
Note_On_75_Vel_84
Note_On_59_Vel_69
Time_Shift_184
Note_On_60_Vel_73
Time_Shift_5
Note_On_68_Vel_55
Time_Shift_69
Note_On_75_Vel_0
Time_Shift_8
Note_On_75_Vel_57
Time_Shift_133
Note_On_43_Vel_66
Time_Shift_6
Note_On_56_Vel_0
Sustain_Off
Time_Shift_1
Note_On_60_Vel_0
Note_On_59_Vel_0
Time_Shift_2
Note_On_75_Vel_0
Time_Shift_3
Note_On_72_Vel_0
Time_Shift_9
Note_On_72_Vel_83
Time_Shift_7
Note_On_41_Vel_0
Note_On_68_Vel_0
Time_Shift_69
Sustain_On
Time_Shift_18
Note_On_55_Vel_52
Time_Shift_141
Note_On_73_Vel_84
Time_Shift_23
Note_On_60_Vel_52
Time_Shift_159
Note_On_74_Vel_77
Time_Shift_29
Note_On_63_Vel_72
Time_Shift_148
Note_On_75_Vel_79
Time_Shift_25
Note_On_67_Vel_48
Time_Shift_2
Note_On_63_Vel_0
Time_Shift_8
Note_On_73_Vel_0
Time_Shift_3
Note_On_63_Vel_56
Time_Shift_4
Note_On_73_Vel_44
Time_Shift_62
Note_On_67_Vel_0
Time_Shift_5
Note_On_67_Vel_39
Time_Shift_72
Note_On_74_Vel_0
Time_Shift_11
Note_On_74_Vel_63
Time_Shift_4
Note_On_55_Vel_0
Time_Shift_11
Note_On_55_Vel_53
Time_Shift_35
Note_On_75_Vel_0
Time_Shift_7
Note_On_75_Vel_74
Time_Shift_54
Note_On_74_Vel_0
Time_Shift_11
Note_On_74_Vel_60
Time_Shift_51
Note_On_75_Vel_0
Time_Shift_9
Note_On_75_Vel_77
Time_Shift_4
Note_On_62_Vel_60
Time_Shift_41
Note_On_74_Vel_0
Time_Shift_4
Note_On_74_Vel_77
Time_Shift_49
Note_On_75_Vel_0
Time_Shift_9
Note_On_75_Vel_78
Time_Shift_37
Note_On_74_Vel_0
Time_Shift_10
Note_On_74_Vel_72
Time_Shift_52
Note_On_73_Vel_0
Time_Shift_11
Note_On_73_Vel_71
Time_Shift_50
Note_On_74_Vel_0
Time_Shift_3
Note_On_72_Vel_0
Note_On_73_Vel_0
Time_Shift_1
Note_On_60_Vel_0
Note_On_75_Vel_0
Note_On_62_Vel_0
Time_Shift_2
Note_On_74_Vel_65
Note_On_67_Vel_0
Sustain_Off
Time_Shift_2
Note_On_43_Vel_0
Time_Shift_23
Note_On_63_Vel_0
Time_Shift_44
Note_On_65_Vel_51
Time_Shift_5
Note_On_79_Vel_70
Time_Shift_17
Note_On_71_Vel_50
Time_Shift_19
Sustain_On
Time_Shift_38
Note_On_74_Vel_0
Time_Shift_11
Note_On_74_Vel_60
Time_Shift_4
Note_On_75_Vel_53
Time_Shift_158
Note_On_67_Vel_54
Time_Shift_111
Note_On_74_Vel_0
Time_Shift_4
Note_On_77_Vel_67
Time_Shift_2
Note_On_74_Vel_58
Time_Shift_124
Note_On_48_Vel_49
Time_Shift_1
Note_On_75_Vel_0
Time_Shift_4
Note_On_75_Vel_67
Time_Shift_6
Note_On_67_Vel_0
Note_On_65_Vel_0
Time_Shift_1
Note_On_71_Vel_0
Note_On_79_Vel_0
Time_Shift_1
Note_On_74_Vel_0
Time_Shift_2
Note_On_72_Vel_60
Time_Shift_3
Sustain_Off
Time_Shift_6
Note_On_77_Vel_0
Time_Shift_5
Note_On_77_Vel_54
Time_Shift_2
Note_On_55_Vel_0
Time_Shift_77
Sustain_On
Time_Shift_103
Note_On_55_Vel_57
Time_Shift_12
Note_On_77_Vel_0
Time_Shift_137
Note_On_83_Vel_69
Time_Shift_25
Note_On_87_Vel_74
Time_Shift_2
Note_On_60_Vel_54
Time_Shift_1
Note_On_84_Vel_65
Time_Shift_3
Note_On_79_Vel_64
Time_Shift_165
Note_On_63_Vel_64
Time_Shift_201
Note_On_95_Vel_61
Time_Shift_30
Note_On_91_Vel_67
Time_Shift_9
Note_On_96_Vel_56
Time_Shift_27
Note_On_51_Vel_46
Time_Shift_222
Note_On_55_Vel_0
Time_Shift_5
Note_On_55_Vel_51
Time_Shift_164
Note_On_83_Vel_0
Time_Shift_10
Note_On_83_Vel_64
Time_Shift_21
Note_On_79_Vel_0
Note_On_84_Vel_0
Note_On_87_Vel_0
Time_Shift_7
Note_On_79_Vel_51
Time_Shift_2
Note_On_87_Vel_57
Time_Shift_2
Note_On_84_Vel_52
Time_Shift_12
Note_On_60_Vel_0
Time_Shift_4
Note_On_60_Vel_47
Time_Shift_180
Note_On_63_Vel_0
Time_Shift_11
Note_On_63_Vel_54
Time_Shift_165
Note_On_41_Vel_53
Time_Shift_4
Note_On_48_Vel_0
Note_On_55_Vel_0
Sustain_Off
Note_On_63_Vel_0
Time_Shift_1
Note_On_91_Vel_0
Note_On_96_Vel_0
Note_On_51_Vel_0
Note_On_79_Vel_0
Note_On_75_Vel_0
Note_On_60_Vel_0
Time_Shift_1
Note_On_84_Vel_0
Note_On_72_Vel_0
Time_Shift_18
Note_On_83_Vel_0
Note_On_87_Vel_0
Note_On_95_Vel_0
Time_Shift_38
Note_On_74_Vel_60
Sustain_On
Time_Shift_12
Note_On_72_Vel_57
Time_Shift_26
Note_On_53_Vel_56
Time_Shift_139
Note_On_53_Vel_0
Note_On_72_Vel_0
Time_Shift_11
Note_On_53_Vel_48
Note_On_75_Vel_77
Note_On_72_Vel_56
Time_Shift_54
Note_On_56_Vel_52
Time_Shift_12
Note_On_41_Vel_0
Time_Shift_102
Note_On_76_Vel_82
Time_Shift_25
Note_On_60_Vel_64
Time_Shift_144
Note_On_62_Vel_67
Time_Shift_84
Note_On_77_Vel_74
Time_Shift_98
Note_On_77_Vel_0
Time_Shift_6
Note_On_77_Vel_86
Note_On_65_Vel_67
Time_Shift_163
Note_On_62_Vel_0
Time_Shift_9
Note_On_62_Vel_72
Time_Shift_160
Note_On_77_Vel_0
Time_Shift_11
Note_On_77_Vel_85
Time_Shift_12
Note_On_60_Vel_0
Time_Shift_6
Note_On_60_Vel_74
Time_Shift_146
Note_On_68_Vel_74
Time_Shift_172
Note_On_75_Vel_0
Time_Shift_1
Note_On_41_Vel_70
Note_On_68_Vel_0
Note_On_62_Vel_0
Note_On_76_Vel_0
Note_On_65_Vel_0
Note_On_56_Vel_0
Note_On_53_Vel_0
Note_On_74_Vel_0
Time_Shift_1
Note_On_72_Vel_0
Note_On_60_Vel_0
Time_Shift_3
Sustain_Off
Time_Shift_15
Note_On_86_Vel_87
Time_Shift_1
Note_On_77_Vel_0
Time_Shift_17
Note_On_84_Vel_72
Time_Shift_23
Note_On_41_Vel_0
Time_Shift_14
Sustain_On
Time_Shift_9
Note_On_53_Vel_69
Time_Shift_115
Note_On_87_Vel_95
Time_Shift_14
Note_On_53_Vel_0
Time_Shift_11
Note_On_53_Vel_57
Time_Shift_18
Note_On_56_Vel_64
Time_Shift_121
Note_On_88_Vel_91
Time_Shift_9
Note_On_60_Vel_72
Time_Shift_155
Note_On_62_Vel_80
Time_Shift_74
Note_On_89_Vel_97
Time_Shift_104
Note_On_89_Vel_0
Time_Shift_5
Note_On_89_Vel_95
Time_Shift_23
Note_On_65_Vel_73
Time_Shift_164
Note_On_62_Vel_0
Time_Shift_4
Note_On_62_Vel_84
Time_Shift_134
Note_On_89_Vel_0
Time_Shift_11
Note_On_89_Vel_98
Time_Shift_20
Note_On_60_Vel_0
Time_Shift_7
Note_On_60_Vel_72
Time_Shift_145
Note_On_68_Vel_73
Time_Shift_124
Note_On_83_Vel_71
Time_Shift_56
Sustain_Off
Note_On_87_Vel_0
Note_On_62_Vel_0
Note_On_60_Vel_0
Time_Shift_1
Note_On_65_Vel_0
Note_On_68_Vel_0
Note_On_88_Vel_0
Note_On_53_Vel_0
Note_On_56_Vel_0
Note_On_86_Vel_0
Note_On_84_Vel_0
Time_Shift_28
Note_On_89_Vel_0
Time_Shift_7
Note_On_89_Vel_91
Time_Shift_12
Note_On_86_Vel_75
Time_Shift_12
Sustain_On
Time_Shift_19
Note_On_55_Vel_67
Time_Shift_167
Note_On_91_Vel_92
Note_On_87_Vel_81
Time_Shift_6
Note_On_87_Vel_0
Time_Shift_10
Note_On_59_Vel_70
Time_Shift_161
Note_On_62_Vel_77
Time_Shift_151
Note_On_89_Vel_0
Time_Shift_1
Note_On_67_Vel_69
Time_Shift_7
Note_On_86_Vel_0
Time_Shift_3
Note_On_89_Vel_94
Time_Shift_6
Note_On_86_Vel_87
Time_Shift_164
Note_On_43_Vel_72
Time_Shift_23
Note_On_88_Vel_90
Time_Shift_9
Sustain_Off
Note_On_59_Vel_0
Time_Shift_1
Note_On_91_Vel_0
Note_On_89_Vel_0
Time_Shift_3
Note_On_86_Vel_0
Time_Shift_1
Note_On_67_Vel_0
Note_On_55_Vel_0
Note_On_62_Vel_0
Time_Shift_5
Note_On_83_Vel_0
Time_Shift_10
Note_On_85_Vel_73
Time_Shift_21
Note_On_55_Vel_54
Time_Shift_53
Sustain_On
Time_Shift_111
Note_On_89_Vel_92
Time_Shift_2
Note_On_86_Vel_77
Time_Shift_17
Note_On_58_Vel_64
Time_Shift_1
Note_On_43_Vel_0
Time_Shift_157
Note_On_61_Vel_72
Time_Shift_188
Note_On_88_Vel_0
Time_Shift_5
Note_On_67_Vel_64
Time_Shift_2
Note_On_88_Vel_92
Time_Shift_1
Note_On_85_Vel_0
Time_Shift_9
Note_On_85_Vel_71
Time_Shift_196
Note_On_43_Vel_70
Time_Shift_10
Note_On_55_Vel_0
Time_Shift_23
Sustain_Off
Time_Shift_9
Note_On_58_Vel_0
Note_On_67_Vel_0
Time_Shift_1
Note_On_61_Vel_0
Time_Shift_1
Note_On_88_Vel_0
Note_On_86_Vel_0
Note_On_87_Vel_90
Time_Shift_1
Note_On_85_Vel_0
Time_Shift_7
Note_On_84_Vel_77
Time_Shift_28
Note_On_43_Vel_0
Time_Shift_91
Sustain_On
Time_Shift_102
Note_On_57_Vel_51
Time_Shift_187
Note_On_60_Vel_66
Time_Shift_191
Note_On_66_Vel_61
Time_Shift_173
Note_On_89_Vel_0
Time_Shift_4
Note_On_87_Vel_0
Time_Shift_1
Note_On_84_Vel_0
Note_On_57_Vel_0
Note_On_60_Vel_0
Time_Shift_2
Note_On_66_Vel_0
Time_Shift_3
Sustain_Off
Time_Shift_31
Note_On_86_Vel_69
Time_Shift_2
Note_On_83_Vel_54
Time_Shift_7
Note_On_67_Vel_47
Time_Shift_8
Note_On_59_Vel_57
Time_Shift_65
Sustain_On
Time_Shift_148
Note_On_65_Vel_52
Time_Shift_193
Note_On_79_Vel_82
Time_Shift_41
Note_On_62_Vel_54
Time_Shift_202
Note_On_79_Vel_0
Time_Shift_7
Note_On_79_Vel_88
Time_Shift_16
Note_On_59_Vel_0
Time_Shift_9
Note_On_59_Vel_56
Time_Shift_279
Note_On_84_Vel_90
Time_Shift_31
Note_On_51_Vel_49
Time_Shift_46
Note_On_83_Vel_0
Sustain_Off
Time_Shift_1
Note_On_67_Vel_0
Note_On_59_Vel_0
Time_Shift_1
Note_On_62_Vel_0
Time_Shift_1
Note_On_65_Vel_0
Time_Shift_1
Note_On_86_Vel_0
Note_On_79_Vel_0
Time_Shift_84
Sustain_On
Time_Shift_90
Note_On_55_Vel_48
Time_Shift_5
Note_On_72_Vel_51
Time_Shift_172
Note_On_79_Vel_51
Time_Shift_7
Note_On_63_Vel_60
Time_Shift_166
Note_On_60_Vel_63
Time_Shift_173
Note_On_83_Vel_77
Time_Shift_4
Note_On_51_Vel_0
Time_Shift_1
Note_On_55_Vel_0
Note_On_63_Vel_0
Note_On_84_Vel_0
Note_On_60_Vel_0
Time_Shift_1
Note_On_79_Vel_0
Time_Shift_6
Sustain_Off
Time_Shift_17
Note_On_80_Vel_57
Time_Shift_6
Note_On_53_Vel_49
Time_Shift_20
Sustain_On
Time_Shift_31
Note_On_72_Vel_0
Time_Shift_57
Note_On_84_Vel_84
Time_Shift_96
Note_On_84_Vel_0
Time_Shift_5
Note_On_56_Vel_49
Time_Shift_7
Note_On_84_Vel_68
Time_Shift_42
Note_On_83_Vel_0
Time_Shift_6
Note_On_83_Vel_67
Time_Shift_52
Note_On_81_Vel_66
Time_Shift_27
Note_On_83_Vel_0
Time_Shift_7
Note_On_83_Vel_76
Time_Shift_70
Note_On_84_Vel_0
Time_Shift_9
Note_On_62_Vel_63
Time_Shift_2
Note_On_84_Vel_95
Time_Shift_187
Note_On_86_Vel_94
Time_Shift_30
Note_On_59_Vel_61
Time_Shift_148
Note_On_84_Vel_0
Time_Shift_4
Note_On_84_Vel_85
Time_Shift_27
Note_On_79_Vel_62
Time_Shift_8
Note_On_51_Vel_54
Time_Shift_2
Note_On_59_Vel_0
Note_On_56_Vel_0
Time_Shift_1
Note_On_80_Vel_0
Note_On_83_Vel_0
Note_On_62_Vel_0
Note_On_86_Vel_0
Note_On_81_Vel_0
Time_Shift_2
Sustain_Off
Time_Shift_2
Note_On_53_Vel_0
Time_Shift_69
Sustain_On
Time_Shift_89
Note_On_55_Vel_49
Time_Shift_3
Note_On_72_Vel_71
Time_Shift_166
Note_On_60_Vel_61
Time_Shift_3
Note_On_82_Vel_87
Time_Shift_14
Note_On_75_Vel_59
Time_Shift_146
Note_On_48_Vel_59
Time_Shift_29
Note_On_80_Vel_84
Time_Shift_154
Note_On_51_Vel_0
Note_On_79_Vel_0
Note_On_55_Vel_0
Note_On_72_Vel_0
Time_Shift_1
Note_On_82_Vel_0
Note_On_75_Vel_0
Note_On_60_Vel_0
Time_Shift_5
Sustain_Off
Time_Shift_4
Note_On_84_Vel_0
Time_Shift_28
Note_On_47_Vel_56
Time_Shift_3
Note_On_74_Vel_42
Time_Shift_23
Note_On_48_Vel_0
Time_Shift_16
Sustain_On
Time_Shift_133
Note_On_79_Vel_81
Time_Shift_2
Note_On_50_Vel_51
Time_Shift_193
Note_On_55_Vel_51
Time_Shift_6
Note_On_67_Vel_47
Time_Shift_165
Note_On_77_Vel_74
Time_Shift_7
Note_On_55_Vel_0
Time_Shift_11
Note_On_55_Vel_45
Time_Shift_5
Note_On_74_Vel_0
Time_Shift_4
Note_On_74_Vel_45
Time_Shift_185
Note_On_75_Vel_65
Time_Shift_1
Note_On_48_Vel_49
Time_Shift_7
Note_On_47_Vel_0
Time_Shift_2
Note_On_80_Vel_0
Time_Shift_2
Note_On_50_Vel_0
Time_Shift_1
Note_On_74_Vel_0
Time_Shift_1
Note_On_79_Vel_0
Time_Shift_9
Note_On_77_Vel_0
Time_Shift_50
Sustain_Off
Time_Shift_7
Sustain_On
Time_Shift_98
Note_On_72_Vel_63
Time_Shift_6
Note_On_51_Vel_57
Time_Shift_134
Note_On_67_Vel_0
Time_Shift_26
Note_On_84_Vel_91
Time_Shift_20
Note_On_55_Vel_0
Time_Shift_4
Note_On_55_Vel_65
Time_Shift_151
Note_On_63_Vel_69
Time_Shift_3
Note_On_79_Vel_74
Time_Shift_198
Note_On_83_Vel_82
Time_Shift_1
Note_On_51_Vel_0
Note_On_48_Vel_0
Note_On_75_Vel_0
Note_On_84_Vel_0
Note_On_72_Vel_0
Time_Shift_1
Sustain_Off
Note_On_79_Vel_0
Note_On_55_Vel_0
Time_Shift_10
Note_On_63_Vel_0
Time_Shift_13
Note_On_53_Vel_56
Time_Shift_1
Note_On_80_Vel_61
Time_Shift_40
Sustain_On
Time_Shift_94
Note_On_84_Vel_76
Time_Shift_52
Note_On_83_Vel_0
Time_Shift_10
Note_On_83_Vel_75
Time_Shift_17
Note_On_56_Vel_49
Time_Shift_19
Note_On_84_Vel_0
Time_Shift_11
Note_On_84_Vel_79
Time_Shift_51
Note_On_83_Vel_0
Time_Shift_4
Note_On_83_Vel_74
Time_Shift_34
Note_On_84_Vel_0
Time_Shift_10
Note_On_84_Vel_67
Time_Shift_29
Note_On_62_Vel_69
Time_Shift_30
Note_On_83_Vel_0
Time_Shift_11
Note_On_83_Vel_81
Time_Shift_43
Note_On_84_Vel_0
Time_Shift_6
Note_On_84_Vel_70
Time_Shift_55
Note_On_83_Vel_0
Time_Shift_10
Note_On_83_Vel_70
Time_Shift_31
Note_On_59_Vel_60
Time_Shift_28
Note_On_84_Vel_0
Time_Shift_4
Note_On_84_Vel_69
Time_Shift_43
Note_On_83_Vel_0
Time_Shift_4
Note_On_83_Vel_78
Time_Shift_56
Note_On_81_Vel_76
Time_Shift_62
Note_On_83_Vel_0
Time_Shift_7
Note_On_83_Vel_68
Time_Shift_101
Note_On_84_Vel_0
Time_Shift_9
Note_On_84_Vel_62
Time_Shift_2
Note_On_51_Vel_54
Time_Shift_5
Note_On_53_Vel_0
Time_Shift_2
Note_On_81_Vel_0
Note_On_83_Vel_0
Time_Shift_2
Note_On_80_Vel_0
Time_Shift_3
Note_On_56_Vel_0
Time_Shift_2
Note_On_59_Vel_0
Time_Shift_1
Note_On_62_Vel_0
Time_Shift_1
Sustain_Off
Time_Shift_34
Sustain_On
Time_Shift_23
Sustain_Off
Time_Shift_85
Sustain_On
Time_Shift_43
Note_On_56_Vel_50
Time_Shift_22
Note_On_72_Vel_48
Time_Shift_147
Note_On_82_Vel_80
Time_Shift_7
Note_On_60_Vel_48
Time_Shift_6
Note_On_75_Vel_54
Time_Shift_159
Note_On_60_Vel_0
Time_Shift_9
Note_On_60_Vel_46
Time_Shift_2
Note_On_80_Vel_79
Time_Shift_164
Sustain_Off
Time_Shift_9
Note_On_72_Vel_0
Note_On_84_Vel_0
Note_On_51_Vel_0
Note_On_60_Vel_0
Time_Shift_2
Note_On_56_Vel_0
Time_Shift_2
Note_On_73_Vel_53
Note_On_51_Vel_45
Time_Shift_96
Sustain_On
Time_Shift_64
Note_On_79_Vel_75
Time_Shift_19
Note_On_58_Vel_57
Time_Shift_94
Note_On_79_Vel_0
Time_Shift_5
Note_On_79_Vel_65
Time_Shift_56
Note_On_73_Vel_0
Time_Shift_3
Note_On_77_Vel_83
Note_On_63_Vel_63
Time_Shift_2
Note_On_73_Vel_65
Time_Shift_156
Note_On_75_Vel_0
Time_Shift_4
Note_On_75_Vel_82
Time_Shift_12
Note_On_63_Vel_0
Time_Shift_11
Note_On_63_Vel_73
Time_Shift_127
Note_On_82_Vel_0
Time_Shift_15
Note_On_80_Vel_0
Time_Shift_8
Note_On_80_Vel_85
Time_Shift_29
Note_On_72_Vel_65
Time_Shift_1
Note_On_58_Vel_0
Time_Shift_1
Note_On_77_Vel_0
Note_On_79_Vel_0
Time_Shift_1
Note_On_63_Vel_0
Time_Shift_1
Note_On_51_Vel_0
Note_On_73_Vel_0
Note_On_75_Vel_0
Time_Shift_9
Sustain_Off
Note_On_56_Vel_54
Time_Shift_81
Sustain_On
Time_Shift_71
Note_On_75_Vel_67
Time_Shift_10
Note_On_60_Vel_58
Time_Shift_103
Note_On_75_Vel_0
Time_Shift_10
Note_On_75_Vel_63
Time_Shift_58
Note_On_62_Vel_63
Time_Shift_6
Note_On_78_Vel_84
Time_Shift_2
Note_On_74_Vel_64
Time_Shift_14
Sustain_Off
Time_Shift_7
Note_On_72_Vel_0
Time_Shift_1
Note_On_56_Vel_0
Time_Shift_1
Note_On_60_Vel_0
Time_Shift_6
Note_On_75_Vel_0
Time_Shift_7
Note_On_62_Vel_0
Time_Shift_11
Note_On_80_Vel_0
Time_Shift_54
Sustain_On
Time_Shift_58
Note_On_72_Vel_62
Time_Shift_24
Note_On_62_Vel_48
Time_Shift_168
Note_On_79_Vel_65
Time_Shift_5
Note_On_71_Vel_57
Time_Shift_17
Note_On_72_Vel_0
Time_Shift_3
Note_On_78_Vel_0
Time_Shift_4
Note_On_62_Vel_0
Time_Shift_5
Note_On_74_Vel_0
Sustain_Off
Time_Shift_8
Note_On_55_Vel_41
Time_Shift_69
Sustain_On
Time_Shift_65
Note_On_74_Vel_63
Time_Shift_45
Note_On_59_Vel_55
Time_Shift_136
Note_On_79_Vel_0
Time_Shift_5
Note_On_79_Vel_95
Time_Shift_38
Note_On_62_Vel_54
Time_Shift_126
Note_On_79_Vel_0
Time_Shift_7
Note_On_91_Vel_85
Time_Shift_1
Note_On_79_Vel_68
Time_Shift_38
Note_On_62_Vel_0
Time_Shift_5
Note_On_62_Vel_52
Time_Shift_176
Note_On_77_Vel_72
Time_Shift_12
Note_On_56_Vel_54
Time_Shift_5
Note_On_72_Vel_55
Time_Shift_9
Note_On_91_Vel_0
Time_Shift_15
Sustain_Off
Time_Shift_5
Note_On_79_Vel_0
Time_Shift_1
Note_On_71_Vel_0
Time_Shift_3
Note_On_62_Vel_0
Time_Shift_1
Note_On_74_Vel_0
Note_On_55_Vel_0
Note_On_59_Vel_0
Time_Shift_67
Sustain_On
Time_Shift_85
Note_On_75_Vel_55
Time_Shift_2
Note_On_60_Vel_48
Time_Shift_176
Note_On_74_Vel_57
Time_Shift_1
Note_On_62_Vel_58
Time_Shift_175
Note_On_78_Vel_75
Time_Shift_14
Note_On_62_Vel_0
Note_On_72_Vel_0
Time_Shift_6
Note_On_72_Vel_59
Time_Shift_3
Note_On_62_Vel_61
Time_Shift_169
Sustain_Off
Time_Shift_2
Note_On_62_Vel_0
Note_On_72_Vel_0
Note_On_75_Vel_0
Note_On_74_Vel_0
Time_Shift_1
Note_On_60_Vel_0
Note_On_56_Vel_0
Time_Shift_1
Note_On_77_Vel_0
Time_Shift_6
Note_On_78_Vel_0
Time_Shift_12
Note_On_79_Vel_72
Time_Shift_16
Note_On_55_Vel_49
Time_Shift_3
Note_On_71_Vel_49
Time_Shift_73
Sustain_On
Time_Shift_100
Note_On_71_Vel_0
Time_Shift_5
Note_On_74_Vel_62
Time_Shift_4
Note_On_71_Vel_47
Time_Shift_14
Note_On_55_Vel_0
Time_Shift_11
Note_On_55_Vel_44
Time_Shift_189
Note_On_71_Vel_0
Time_Shift_3
Note_On_77_Vel_65
Time_Shift_1
Note_On_43_Vel_46
Time_Shift_1
Note_On_71_Vel_51
Time_Shift_204
Note_On_31_Vel_43
Time_Shift_9
Note_On_67_Vel_43
Time_Shift_246
Sustain_Off
Time_Shift_1
Note_On_71_Vel_0
Time_Shift_1
Note_On_74_Vel_0
Note_On_77_Vel_0
Time_Shift_1
Note_On_79_Vel_0
Note_On_55_Vel_0
Note_On_67_Vel_0
Time_Shift_1
Note_On_43_Vel_0
Time_Shift_1
Note_On_31_Vel_0
Time_Shift_12
Note_On_36_Vel_45
Time_Shift_13
Note_On_75_Vel_56
Time_Shift_7
Note_On_72_Vel_47
Time_Shift_57
Note_On_48_Vel_47
Time_Shift_10
Sustain_On
Time_Shift_23
Note_On_36_Vel_0
Time_Shift_136
Note_On_67_Vel_45
Time_Shift_37
Note_On_51_Vel_56
Time_Shift_127
Note_On_72_Vel_0
Time_Shift_8
Note_On_72_Vel_66
Time_Shift_24
Note_On_63_Vel_55
Time_Shift_2
Note_On_55_Vel_53
Time_Shift_111
Note_On_51_Vel_0
Time_Shift_11
Note_On_51_Vel_63
Time_Shift_20
Note_On_67_Vel_0
Time_Shift_3
Note_On_70_Vel_50
Time_Shift_7
Note_On_67_Vel_40
Time_Shift_131
Note_On_48_Vel_0
Time_Shift_1
Note_On_63_Vel_0
Note_On_51_Vel_0
Note_On_75_Vel_0
Note_On_67_Vel_0
Note_On_72_Vel_0
Note_On_55_Vel_0
Time_Shift_6
Note_On_38_Vel_61
Sustain_Off
Time_Shift_32
Note_On_65_Vel_53
Time_Shift_2
Note_On_69_Vel_39
Time_Shift_33
Sustain_On
Time_Shift_12
Note_On_50_Vel_58
Time_Shift_88
Note_On_70_Vel_0
Time_Shift_33
Note_On_73_Vel_75
Time_Shift_154
Note_On_74_Vel_75
Time_Shift_5
Note_On_68_Vel_55
Time_Shift_35
Note_On_59_Vel_69
Time_Shift_130
Note_On_75_Vel_83
Note_On_60_Vel_67
Time_Shift_6
Note_On_72_Vel_55
Time_Shift_152
Note_On_75_Vel_0
Time_Shift_8
Note_On_73_Vel_0
Time_Shift_2
Note_On_65_Vel_0
Time_Shift_1
Note_On_68_Vel_0
Note_On_39_Vel_69
Sustain_Off
Note_On_75_Vel_71
Note_On_50_Vel_0
Time_Shift_1
Note_On_74_Vel_0
Note_On_59_Vel_0
Time_Shift_1
Note_On_60_Vel_0
Note_On_38_Vel_0
Time_Shift_10
Note_On_69_Vel_0
Time_Shift_15
Note_On_67_Vel_51
Time_Shift_5
Note_On_51_Vel_61
Time_Shift_39
Note_On_39_Vel_0
Time_Shift_17
Sustain_On
Time_Shift_110
Note_On_55_Vel_73
Time_Shift_144
Note_On_75_Vel_0
Time_Shift_3
Note_On_59_Vel_74
Time_Shift_3
Note_On_75_Vel_83
Time_Shift_17
Note_On_67_Vel_0
Time_Shift_6
Note_On_67_Vel_42
Time_Shift_2
Note_On_72_Vel_0
Time_Shift_3
Note_On_71_Vel_52
Time_Shift_1
Note_On_72_Vel_56
Time_Shift_3
Note_On_71_Vel_0
Time_Shift_130
Note_On_60_Vel_73
Time_Shift_165
Note_On_41_Vel_64
Time_Shift_1
Note_On_59_Vel_0
Time_Shift_1
Sustain_Off
Note_On_75_Vel_0
Note_On_67_Vel_0
Time_Shift_1
Note_On_55_Vel_0
Note_On_51_Vel_0
Time_Shift_2
Note_On_60_Vel_0
Time_Shift_15
Note_On_72_Vel_0
Time_Shift_9
Note_On_72_Vel_75
Time_Shift_3
Note_On_68_Vel_56
Time_Shift_42
Sustain_On
Time_Shift_10
Note_On_41_Vel_0
Time_Shift_6
Note_On_53_Vel_62
Time_Shift_139
Note_On_73_Vel_81
Time_Shift_3
Note_On_56_Vel_65
Time_Shift_5
Note_On_67_Vel_53
Time_Shift_6
Note_On_67_Vel_0
Time_Shift_152
Note_On_74_Vel_81
Time_Shift_3
Note_On_59_Vel_73
Time_Shift_25
Note_On_67_Vel_46
Time_Shift_16
Sustain_Off
Time_Shift_3
Note_On_56_Vel_0
Note_On_72_Vel_0
Time_Shift_1
Note_On_73_Vel_0
Time_Shift_1
Note_On_53_Vel_0
Time_Shift_1
Note_On_68_Vel_0
Time_Shift_36
Sustain_On
Time_Shift_87
Note_On_60_Vel_74
Time_Shift_87
Note_On_75_Vel_89
Time_Shift_60
Note_On_59_Vel_0
Note_On_74_Vel_0
Time_Shift_1
Note_On_60_Vel_0
Sustain_Off
Time_Shift_3
Note_On_67_Vel_0
Time_Shift_23
Note_On_75_Vel_0
Time_Shift_6
Note_On_43_Vel_65
Time_Shift_4
Note_On_75_Vel_81
Time_Shift_9
Note_On_67_Vel_50
Time_Shift_27
Sustain_On
Time_Shift_66
Note_On_55_Vel_62
Time_Shift_129
Note_On_60_Vel_74
Time_Shift_168
Note_On_87_Vel_89
Time_Shift_10
Note_On_84_Vel_73
Time_Shift_24
Note_On_79_Vel_61
Time_Shift_1
Note_On_63_Vel_68
Time_Shift_147
Note_On_67_Vel_0
Time_Shift_12
Note_On_67_Vel_65
Time_Shift_104
Note_On_43_Vel_0
Time_Shift_80
Note_On_86_Vel_72
Time_Shift_12
Note_On_55_Vel_0
Time_Shift_6
Note_On_74_Vel_52
Time_Shift_3
Note_On_55_Vel_53
Time_Shift_37
Note_On_87_Vel_0
Time_Shift_6
Note_On_87_Vel_69
Time_Shift_48
Note_On_86_Vel_0
Time_Shift_5
Note_On_86_Vel_80
Time_Shift_63
Note_On_62_Vel_61
Time_Shift_24
Note_On_86_Vel_0
Time_Shift_11
Note_On_86_Vel_84
Time_Shift_58
Note_On_87_Vel_0
Time_Shift_5
Note_On_87_Vel_79
Time_Shift_33
Note_On_86_Vel_0
Time_Shift_10
Note_On_86_Vel_90
Time_Shift_48
Note_On_85_Vel_79
Time_Shift_42
Note_On_86_Vel_0
Time_Shift_6
Note_On_86_Vel_80
Time_Shift_66
Note_On_65_Vel_55
Time_Shift_1
Note_On_91_Vel_86
Time_Shift_3
Note_On_83_Vel_69
Time_Shift_1
Note_On_74_Vel_0
Time_Shift_2
Sustain_Off
Note_On_55_Vel_0
Time_Shift_1
Note_On_87_Vel_0
Time_Shift_2
Note_On_75_Vel_0
Note_On_63_Vel_0
Time_Shift_1
Note_On_84_Vel_0
Time_Shift_4
Note_On_60_Vel_0
Time_Shift_13
Note_On_85_Vel_0
Time_Shift_8
Sustain_On
Time_Shift_15
Note_On_62_Vel_0
Time_Shift_108
Note_On_79_Vel_0
Time_Shift_46
Note_On_67_Vel_0
Time_Shift_10
Note_On_67_Vel_62
Time_Shift_120
Note_On_86_Vel_0
Time_Shift_6
Note_On_89_Vel_75
Time_Shift_3
Note_On_86_Vel_73
Time_Shift_117
Note_On_67_Vel_0
Note_On_65_Vel_0
Sustain_Off
Time_Shift_2
Note_On_91_Vel_0
Note_On_86_Vel_0
Time_Shift_1
Note_On_89_Vel_0
Time_Shift_1
Note_On_87_Vel_71
Time_Shift_4
Note_On_84_Vel_67
Note_On_48_Vel_54
Time_Shift_58
Note_On_83_Vel_0
Sustain_On
Time_Shift_194
Note_On_55_Vel_56
Time_Shift_98
Note_On_71_Vel_62
Time_Shift_33
Note_On_75_Vel_76
Note_On_67_Vel_58
Time_Shift_27
Note_On_60_Vel_53
Time_Shift_157
Note_On_63_Vel_66
Time_Shift_149
Note_On_83_Vel_69
Time_Shift_10
Note_On_87_Vel_0
Time_Shift_12
Note_On_87_Vel_67
Time_Shift_4
Note_On_84_Vel_0
Time_Shift_3
Note_On_79_Vel_55
Time_Shift_1
Note_On_84_Vel_55
Time_Shift_3
Note_On_60_Vel_0
Time_Shift_5
Sustain_Off
Time_Shift_1
Note_On_71_Vel_0
Note_On_67_Vel_0
Time_Shift_1
Note_On_60_Vel_53
Note_On_63_Vel_0
Time_Shift_1
Note_On_48_Vel_0
Note_On_55_Vel_0
Time_Shift_54
Sustain_On
Time_Shift_141
Note_On_55_Vel_50
Time_Shift_171
Note_On_71_Vel_55
Time_Shift_18
Note_On_75_Vel_0
Time_Shift_8
Note_On_75_Vel_63
Time_Shift_6
Note_On_67_Vel_46
Time_Shift_13
Note_On_72_Vel_55
Time_Shift_16
Note_On_51_Vel_50
Time_Shift_164
Note_On_60_Vel_0
Time_Shift_12
Note_On_60_Vel_59
Time_Shift_88
Note_On_83_Vel_0
Time_Shift_89
Note_On_41_Vel_53
Time_Shift_2
Note_On_72_Vel_0
Note_On_71_Vel_0
Time_Shift_2
Note_On_67_Vel_0
Time_Shift_2
Note_On_60_Vel_0
Note_On_51_Vel_0
Note_On_55_Vel_0
Time_Shift_2
Sustain_Off
Time_Shift_3
Note_On_84_Vel_0
Note_On_87_Vel_0
Time_Shift_8
Note_On_75_Vel_0
Time_Shift_8
Note_On_79_Vel_0
Time_Shift_27
Note_On_74_Vel_60
Time_Shift_13
Note_On_68_Vel_45
Time_Shift_2
Note_On_72_Vel_54
Time_Shift_1
Note_On_41_Vel_0
Time_Shift_30
Note_On_53_Vel_49
Time_Shift_3
Sustain_On
Time_Shift_152
Note_On_75_Vel_79
Time_Shift_46
Note_On_56_Vel_55
Time_Shift_112
Note_On_76_Vel_84
Time_Shift_25
Note_On_60_Vel_71
Time_Shift_152
Note_On_62_Vel_76
Time_Shift_65
Note_On_77_Vel_84
Time_Shift_93
Note_On_77_Vel_0
Time_Shift_11
Note_On_77_Vel_89
Time_Shift_9
Note_On_65_Vel_69
Time_Shift_165
Note_On_62_Vel_0
Time_Shift_11
Note_On_62_Vel_85
Time_Shift_142
Note_On_77_Vel_0
Time_Shift_11
Note_On_77_Vel_91
Time_Shift_20
Note_On_60_Vel_0
Note_On_74_Vel_0
Time_Shift_6
Note_On_74_Vel_58
Time_Shift_5
Note_On_60_Vel_77
Time_Shift_135
Note_On_68_Vel_0
Time_Shift_6
Note_On_68_Vel_84
Time_Shift_170
Note_On_41_Vel_72
Time_Shift_12
Note_On_65_Vel_0
Note_On_68_Vel_0
Note_On_62_Vel_0
Note_On_75_Vel_0
Note_On_56_Vel_0
Note_On_53_Vel_0
Note_On_76_Vel_0
Note_On_72_Vel_0
Time_Shift_1
Note_On_60_Vel_0
Time_Shift_3
Note_On_77_Vel_0
Time_Shift_1
Sustain_Off
Time_Shift_3
Note_On_86_Vel_81
Time_Shift_5
Note_On_77_Vel_64
Time_Shift_5
Note_On_84_Vel_69
Time_Shift_3
Note_On_80_Vel_61
Time_Shift_30
Note_On_41_Vel_0
Time_Shift_14
Sustain_On
Time_Shift_13
Note_On_53_Vel_72
Time_Shift_107
Note_On_87_Vel_94
Time_Shift_6
Note_On_72_Vel_70
Time_Shift_46
Note_On_56_Vel_73
Time_Shift_106
Note_On_88_Vel_96
Time_Shift_15
Note_On_60_Vel_74
Time_Shift_149
Note_On_89_Vel_101
Time_Shift_8
Note_On_62_Vel_82
Time_Shift_149
Note_On_89_Vel_0
Time_Shift_6
Note_On_89_Vel_99
Time_Shift_18
Note_On_86_Vel_0
Time_Shift_7
Note_On_80_Vel_0
Time_Shift_3
Note_On_86_Vel_67
Time_Shift_7
Note_On_80_Vel_68
Time_Shift_1
Note_On_65_Vel_68
Time_Shift_150
Note_On_62_Vel_0
Time_Shift_11
Note_On_62_Vel_69
Time_Shift_36
Note_On_77_Vel_0
Time_Shift_10
Note_On_77_Vel_77
Time_Shift_43
Note_On_80_Vel_0
Time_Shift_7
Note_On_80_Vel_75
Time_Shift_39
Note_On_84_Vel_0
Time_Shift_5
Note_On_84_Vel_81
Time_Shift_26
Note_On_86_Vel_0
Time_Shift_8
Note_On_86_Vel_85
Time_Shift_23
Note_On_89_Vel_0
Time_Shift_6
Note_On_89_Vel_102
Time_Shift_2
Note_On_60_Vel_0
Time_Shift_10
Note_On_60_Vel_63
Time_Shift_146
Note_On_68_Vel_61
Time_Shift_82
Note_On_77_Vel_0
Time_Shift_9
Note_On_77_Vel_66
Time_Shift_49
Note_On_87_Vel_0
Time_Shift_1
Sustain_Off
Note_On_56_Vel_0
Note_On_72_Vel_0
Note_On_74_Vel_0
Time_Shift_1
Note_On_88_Vel_0
Note_On_53_Vel_0
Time_Shift_1
Note_On_60_Vel_0
Note_On_80_Vel_0
Note_On_84_Vel_0
Time_Shift_1
Note_On_89_Vel_0
Note_On_77_Vel_0
Note_On_65_Vel_0
Time_Shift_2
Note_On_83_Vel_79
Time_Shift_12
Note_On_68_Vel_0
Time_Shift_8
Note_On_62_Vel_0
Time_Shift_8
Note_On_86_Vel_0
Time_Shift_4
Note_On_43_Vel_63
Time_Shift_1
Note_On_86_Vel_72
Time_Shift_41
Sustain_On
Time_Shift_12
Note_On_89_Vel_91
Time_Shift_44
Note_On_55_Vel_61
Time_Shift_153
Note_On_91_Vel_97
Time_Shift_38
Note_On_59_Vel_57
Time_Shift_156
Note_On_62_Vel_71
Time_Shift_149
Note_On_67_Vel_70
Time_Shift_55
Note_On_89_Vel_0
Time_Shift_5
Note_On_89_Vel_89
Time_Shift_103
Note_On_76_Vel_65
Time_Shift_22
Note_On_43_Vel_0
Time_Shift_2
Note_On_82_Vel_78
Time_Shift_6
Note_On_43_Vel_65
Time_Shift_34
Note_On_85_Vel_90
Time_Shift_16
Note_On_88_Vel_94
Time_Shift_5
Note_On_59_Vel_0
Time_Shift_1
Note_On_91_Vel_0
Time_Shift_1
Note_On_86_Vel_0
Note_On_67_Vel_0
Note_On_89_Vel_0
Note_On_62_Vel_0
Time_Shift_1
Note_On_83_Vel_0
Time_Shift_5
Sustain_Off
Time_Shift_14
Note_On_55_Vel_0
Time_Shift_11
Note_On_55_Vel_55
Time_Shift_65
Sustain_On
Time_Shift_66
Note_On_74_Vel_57
Time_Shift_11
Note_On_74_Vel_0
Time_Shift_2
Note_On_89_Vel_102
Time_Shift_46
Note_On_58_Vel_73
Time_Shift_6
Note_On_76_Vel_0
Time_Shift_133
Note_On_61_Vel_78
Time_Shift_13
Note_On_43_Vel_0
Time_Shift_157
Note_On_67_Vel_70
Time_Shift_35
Note_On_88_Vel_0
Time_Shift_4
Note_On_88_Vel_96
Time_Shift_184
Note_On_78_Vel_75
Time_Shift_29
Note_On_43_Vel_60
Time_Shift_56
Note_On_67_Vel_0
Time_Shift_1
Note_On_85_Vel_0
Note_On_55_Vel_0
Time_Shift_1
Note_On_88_Vel_0
Time_Shift_1
Note_On_89_Vel_0
Note_On_61_Vel_0
Note_On_82_Vel_0
Note_On_58_Vel_0
Time_Shift_4
Sustain_Off
Time_Shift_31
Note_On_84_Vel_76
Time_Shift_7
Note_On_87_Vel_93
Time_Shift_27
Sustain_On
Time_Shift_198
Note_On_57_Vel_44
Time_Shift_185
Note_On_60_Vel_66
Time_Shift_197
Note_On_66_Vel_58
Time_Shift_223
Note_On_86_Vel_72
Note_On_83_Vel_63
Note_On_74_Vel_51
Time_Shift_15
Note_On_78_Vel_0
Note_On_87_Vel_0
Time_Shift_3
Note_On_84_Vel_0
Note_On_66_Vel_0
Note_On_60_Vel_0
Time_Shift_2
Note_On_57_Vel_0
Time_Shift_4
Note_On_67_Vel_43
Time_Shift_3
Note_On_43_Vel_0
Time_Shift_3
Note_On_59_Vel_54
Time_Shift_2
Sustain_Off
Time_Shift_56
Sustain_On
Time_Shift_144
Note_On_65_Vel_59
Time_Shift_204
Note_On_79_Vel_83
Time_Shift_40
Note_On_62_Vel_55
Time_Shift_196
Note_On_59_Vel_0
Time_Shift_9
Note_On_59_Vel_54
Time_Shift_99
Note_On_79_Vel_0
Time_Shift_8
Note_On_79_Vel_83
Time_Shift_219
Note_On_84_Vel_89
Time_Shift_23
Note_On_51_Vel_56
Time_Shift_58
Note_On_83_Vel_0
Time_Shift_2
Note_On_59_Vel_0
Note_On_67_Vel_0
Note_On_74_Vel_0
Note_On_62_Vel_0
Sustain_Off
Note_On_65_Vel_0
Note_On_86_Vel_0
Time_Shift_1
Note_On_79_Vel_0
Time_Shift_65
Sustain_On
Time_Shift_108
Note_On_72_Vel_54
Time_Shift_2
Note_On_55_Vel_50
Time_Shift_164
Note_On_79_Vel_77
Time_Shift_32
Note_On_63_Vel_61
Time_Shift_146
Note_On_60_Vel_72
Time_Shift_200
Note_On_83_Vel_82
Time_Shift_14
Note_On_84_Vel_0
Time_Shift_1
Note_On_79_Vel_0
Time_Shift_2
Note_On_55_Vel_0
Time_Shift_2
Note_On_63_Vel_0
Note_On_51_Vel_0
Time_Shift_2
Note_On_60_Vel_0
Time_Shift_6
Note_On_80_Vel_62
Time_Shift_7
Sustain_Off
Time_Shift_5
Note_On_72_Vel_0
Time_Shift_6
Note_On_53_Vel_56
Time_Shift_17
Sustain_On
Time_Shift_87
Note_On_84_Vel_81
Time_Shift_51
Note_On_83_Vel_0
Time_Shift_9
Note_On_83_Vel_74
Time_Shift_37
Note_On_84_Vel_0
Time_Shift_10
Note_On_56_Vel_56
Note_On_84_Vel_73
Time_Shift_67
Note_On_83_Vel_0
Time_Shift_4
Note_On_83_Vel_76
Time_Shift_35
Note_On_84_Vel_0
Time_Shift_9
Note_On_84_Vel_80
Time_Shift_60
Note_On_83_Vel_0
Time_Shift_9
Note_On_83_Vel_75
Time_Shift_15
Note_On_62_Vel_61
Time_Shift_22
Note_On_84_Vel_0
Time_Shift_11
Note_On_84_Vel_83
Time_Shift_66
Note_On_83_Vel_0
Time_Shift_9
Note_On_83_Vel_63
Time_Shift_44
Note_On_84_Vel_0
Time_Shift_10
Note_On_84_Vel_74
Time_Shift_32
Note_On_59_Vel_50
Time_Shift_20
Note_On_80_Vel_0
Note_On_83_Vel_0
Time_Shift_7
Note_On_83_Vel_78
Time_Shift_75
Note_On_81_Vel_63
Time_Shift_79
Note_On_83_Vel_0
Time_Shift_9
Note_On_83_Vel_62
Time_Shift_183
Note_On_84_Vel_0
Time_Shift_7
Note_On_84_Vel_57
Time_Shift_34
Note_On_51_Vel_36
Time_Shift_28
Note_On_53_Vel_0
Time_Shift_31
Note_On_62_Vel_0
Time_Shift_15
Note_On_56_Vel_0
Time_Shift_16
Note_On_59_Vel_0
Time_Shift_69
Note_On_83_Vel_0
Time_Shift_7
Note_On_81_Vel_0
Time_Shift_15
Note_On_72_Vel_46
Time_Shift_156
Note_On_82_Vel_68
Time_Shift_18
Note_On_56_Vel_47
Time_Shift_151
Note_On_80_Vel_72
Time_Shift_6
Note_On_84_Vel_0
Time_Shift_20
Note_On_60_Vel_43
Time_Shift_154
Note_On_79_Vel_59
Time_Shift_28
Note_On_52_Vel_41
Time_Shift_1
Note_On_56_Vel_0
Time_Shift_1
Note_On_80_Vel_0
Note_On_82_Vel_0
Note_On_51_Vel_0
Time_Shift_1
Note_On_60_Vel_0
Time_Shift_10
Note_On_72_Vel_0
Time_Shift_4
Sustain_Off
Time_Shift_19
Sustain_On
Time_Shift_109
Note_On_73_Vel_59
Time_Shift_2
Note_On_64_Vel_45
Time_Shift_143
Note_On_79_Vel_0
Time_Shift_8
Note_On_79_Vel_78
Time_Shift_26
Note_On_55_Vel_49
Time_Shift_5
Note_On_72_Vel_59
Time_Shift_133
Note_On_70_Vel_65
Time_Shift_23
Note_On_60_Vel_47
Time_Shift_154
Note_On_53_Vel_55
Time_Shift_2
Note_On_68_Vel_54
Time_Shift_148
Note_On_80_Vel_81
Time_Shift_10
Note_On_70_Vel_0
Time_Shift_2
Note_On_55_Vel_0
Note_On_52_Vel_0
Time_Shift_1
Note_On_72_Vel_0
Note_On_79_Vel_0
Time_Shift_3
Note_On_60_Vel_0
Time_Shift_2
Note_On_65_Vel_52
Time_Shift_13
Note_On_73_Vel_0
Time_Shift_7
Note_On_64_Vel_0
Time_Shift_124
Note_On_77_Vel_75
Time_Shift_25
Note_On_56_Vel_58
Time_Shift_133
Note_On_73_Vel_72
Time_Shift_11
Note_On_61_Vel_64
Time_Shift_164
Note_On_54_Vel_63
Note_On_69_Vel_58
Time_Shift_123
Note_On_61_Vel_0
Time_Shift_7
Note_On_73_Vel_0
Time_Shift_3
Note_On_56_Vel_0
Time_Shift_2
Note_On_68_Vel_0
Note_On_77_Vel_0
Time_Shift_15
Note_On_53_Vel_0
Time_Shift_1
Note_On_72_Vel_71
Time_Shift_2
Note_On_63_Vel_56
Time_Shift_5
Note_On_65_Vel_0
Time_Shift_15
Note_On_80_Vel_0
Time_Shift_131
Note_On_72_Vel_0
Time_Shift_3
Note_On_72_Vel_68
Time_Shift_3
Note_On_60_Vel_67
Time_Shift_139
Note_On_72_Vel_0
Time_Shift_10
Note_On_72_Vel_79
Time_Shift_21
Note_On_54_Vel_0
Time_Shift_12
Note_On_54_Vel_51
Time_Shift_119
Note_On_72_Vel_0
Time_Shift_5
Note_On_72_Vel_80
Time_Shift_8
Note_On_67_Vel_65
Time_Shift_8
Note_On_55_Vel_59
Time_Shift_132
Note_On_54_Vel_0
Time_Shift_2
Note_On_73_Vel_83
Time_Shift_4
Note_On_54_Vel_53
Time_Shift_143
Note_On_74_Vel_82
Time_Shift_4
Note_On_43_Vel_69
Time_Shift_42
Sustain_Off
Time_Shift_5
Sustain_On
Time_Shift_101
Note_On_75_Vel_87
Time_Shift_152
Note_On_43_Vel_0
Note_On_67_Vel_0
Time_Shift_4
Note_On_31_Vel_74
Time_Shift_1
Note_On_71_Vel_79
Time_Shift_1
Note_On_43_Vel_65
Time_Shift_1
Note_On_67_Vel_66
Note_On_65_Vel_71
Time_Shift_70
Note_On_69_Vel_0
Time_Shift_69
Note_On_72_Vel_0
Time_Shift_5
Note_On_72_Vel_86
Note_On_45_Vel_79
Time_Shift_1
Note_On_33_Vel_81
Time_Shift_140
Note_On_73_Vel_0
Time_Shift_8
Note_On_73_Vel_93
Time_Shift_3
Note_On_46_Vel_96
Time_Shift_2
Note_On_34_Vel_89
Time_Shift_141
Note_On_74_Vel_0
Time_Shift_5
Note_On_47_Vel_98
Time_Shift_2
Note_On_35_Vel_89
Time_Shift_3
Note_On_74_Vel_93
Time_Shift_151
Note_On_75_Vel_0
Time_Shift_8
Note_On_63_Vel_0
Note_On_67_Vel_0
Time_Shift_1
Note_On_48_Vel_99
Time_Shift_2
Note_On_75_Vel_98
Time_Shift_1
Note_On_36_Vel_94
Time_Shift_5
Note_On_63_Vel_87
Time_Shift_1
Note_On_67_Vel_82
Time_Shift_139
Note_On_49_Vel_102
Time_Shift_1
Note_On_37_Vel_88
Time_Shift_111
Note_On_72_Vel_0
Time_Shift_10
Note_On_72_Vel_92
Time_Shift_27
Note_On_50_Vel_96
Time_Shift_4
Note_On_38_Vel_95
Time_Shift_131
Note_On_51_Vel_105
Note_On_39_Vel_89
Time_Shift_143
Note_On_67_Vel_0
Note_On_72_Vel_0
Time_Shift_5
Note_On_72_Vel_94
Time_Shift_3
Note_On_67_Vel_89
Time_Shift_2
Note_On_76_Vel_87
Time_Shift_1
Note_On_40_Vel_101
Time_Shift_1
Note_On_52_Vel_103
Time_Shift_22
Note_On_71_Vel_0
Time_Shift_1
Note_On_47_Vel_0
Time_Shift_2
Note_On_45_Vel_0
Note_On_34_Vel_0
Note_On_46_Vel_0
Time_Shift_1
Note_On_75_Vel_0
Time_Shift_1
Note_On_36_Vel_0
Time_Shift_1
Note_On_48_Vel_0
Note_On_73_Vel_0
Time_Shift_1
Note_On_39_Vel_0
Time_Shift_1
Note_On_50_Vel_0
Note_On_74_Vel_0
Note_On_38_Vel_0
Time_Shift_1
Note_On_51_Vel_0
Time_Shift_2
Note_On_49_Vel_0
Time_Shift_9
Note_On_31_Vel_0
Note_On_33_Vel_0
Note_On_43_Vel_0
Note_On_60_Vel_0
Note_On_65_Vel_0
Time_Shift_14
Sustain_Off
Time_Shift_1
Note_On_35_Vel_0
Note_On_54_Vel_0
Note_On_55_Vel_0
Time_Shift_8
Note_On_37_Vel_0
Note_On_63_Vel_0
Time_Shift_38
Sustain_On
Time_Shift_43
Note_On_73_Vel_95
Note_On_61_Vel_100
Time_Shift_149
Note_On_40_Vel_0
Note_On_52_Vel_0
Note_On_72_Vel_0
Time_Shift_4
Note_On_52_Vel_104
Time_Shift_5
Note_On_72_Vel_104
Note_On_40_Vel_95
Note_On_60_Vel_100
Time_Shift_52
Sustain_Off
Time_Shift_6
Note_On_61_Vel_0
Note_On_73_Vel_0
Time_Shift_1
Note_On_60_Vel_0
Time_Shift_9
Note_On_76_Vel_0
Time_Shift_15
Note_On_67_Vel_0
Time_Shift_62
Note_On_72_Vel_0
Time_Shift_7
Note_On_84_Vel_103
Time_Shift_1
Note_On_72_Vel_104
Time_Shift_107
Note_On_52_Vel_0
Time_Shift_31
Sustain_On
Time_Shift_15
Note_On_72_Vel_0
Time_Shift_5
Note_On_68_Vel_92
Time_Shift_1
Note_On_72_Vel_93
Time_Shift_3
Note_On_65_Vel_87
Time_Shift_1
Note_On_60_Vel_94
Time_Shift_1
Note_On_53_Vel_97
Note_On_41_Vel_90
Time_Shift_12
Note_On_40_Vel_0
Time_Shift_15
Note_On_84_Vel_0
Time_Shift_119
Note_On_42_Vel_96
Note_On_54_Vel_98
Time_Shift_135
Note_On_60_Vel_0
Note_On_72_Vel_0
Time_Shift_9
Note_On_72_Vel_96
Time_Shift_1
Note_On_60_Vel_91
Time_Shift_1
Note_On_55_Vel_99
Time_Shift_1
Note_On_43_Vel_95
Time_Shift_1
Note_On_64_Vel_73
Time_Shift_10
Note_On_64_Vel_0
Time_Shift_126
Note_On_56_Vel_109
Time_Shift_1
Note_On_44_Vel_97
Time_Shift_157
Note_On_60_Vel_0
Note_On_72_Vel_0
Time_Shift_4
Note_On_60_Vel_104
Note_On_58_Vel_101
Time_Shift_1
Note_On_67_Vel_92
Time_Shift_3
Note_On_68_Vel_0
Note_On_64_Vel_92
Note_On_46_Vel_97
Note_On_72_Vel_100
Time_Shift_10
Note_On_68_Vel_86
Time_Shift_4
Sustain_Off
Time_Shift_4
Note_On_44_Vel_0
Note_On_65_Vel_0
Note_On_42_Vel_0
Note_On_55_Vel_0
Time_Shift_1
Note_On_53_Vel_0
Note_On_54_Vel_0
Note_On_56_Vel_0
Note_On_41_Vel_0
Note_On_43_Vel_0
Time_Shift_34
Sustain_On
Time_Shift_88
Note_On_61_Vel_104
Note_On_73_Vel_101
Time_Shift_150
Note_On_46_Vel_0
Note_On_58_Vel_0
Note_On_60_Vel_0
Note_On_72_Vel_0
Time_Shift_6
Note_On_72_Vel_108
Note_On_58_Vel_104
Time_Shift_1
Note_On_60_Vel_107
Time_Shift_1
Note_On_68_Vel_0
Note_On_46_Vel_103
Time_Shift_42
Sustain_Off
Time_Shift_1
Note_On_73_Vel_0
Note_On_61_Vel_0
Time_Shift_3
Note_On_64_Vel_0
Note_On_67_Vel_0
Time_Shift_92
Note_On_60_Vel_0
Time_Shift_8
Note_On_72_Vel_0
Time_Shift_4
Note_On_84_Vel_105
Note_On_72_Vel_106
Time_Shift_19
Sustain_On
Time_Shift_123
Note_On_72_Vel_0
Time_Shift_9
Note_On_60_Vel_98
Time_Shift_2
Note_On_72_Vel_99
Note_On_56_Vel_106
Note_On_65_Vel_87
Note_On_68_Vel_94
Time_Shift_2
Note_On_44_Vel_97
Time_Shift_133
Note_On_55_Vel_99
Time_Shift_2
Note_On_43_Vel_95
Time_Shift_2
Note_On_67_Vel_82
Time_Shift_27
Note_On_84_Vel_0
Time_Shift_123
Note_On_60_Vel_0
Note_On_72_Vel_0
Time_Shift_5
Note_On_54_Vel_98
Note_On_42_Vel_101
Time_Shift_3
Note_On_60_Vel_102
Time_Shift_3
Note_On_72_Vel_97
Time_Shift_136
Note_On_53_Vel_98
Time_Shift_2
Note_On_41_Vel_96
Time_Shift_150
Note_On_60_Vel_0
Note_On_72_Vel_0
Time_Shift_8
Note_On_67_Vel_0
Time_Shift_3
Note_On_60_Vel_100
Note_On_72_Vel_95
Time_Shift_1
Note_On_67_Vel_86
Time_Shift_1
Note_On_51_Vel_98
Note_On_39_Vel_94
Time_Shift_2
Note_On_58_Vel_0
Time_Shift_3
Sustain_Off
Time_Shift_2
Note_On_65_Vel_0
Note_On_56_Vel_0
Time_Shift_1
Note_On_68_Vel_0
Note_On_55_Vel_0
Note_On_42_Vel_0
Note_On_41_Vel_0
Note_On_54_Vel_0
Note_On_53_Vel_0
Time_Shift_2
Note_On_44_Vel_0
Note_On_43_Vel_0
Time_Shift_8
Note_On_46_Vel_0
Time_Shift_46
Sustain_On
Time_Shift_89
Note_On_74_Vel_95
Time_Shift_1
Note_On_62_Vel_96
Time_Shift_148
Note_On_39_Vel_0
Note_On_51_Vel_0
Note_On_60_Vel_0
Note_On_72_Vel_0
Time_Shift_4
Note_On_72_Vel_102
Time_Shift_1
Note_On_60_Vel_103
Time_Shift_1
Note_On_39_Vel_92
Note_On_51_Vel_99
Time_Shift_30
Sustain_Off
Time_Shift_26
Note_On_62_Vel_0
Time_Shift_1
Note_On_67_Vel_0
Note_On_74_Vel_0
Time_Shift_1
Note_On_60_Vel_0
Note_On_72_Vel_0
Time_Shift_84
Note_On_84_Vel_103
Time_Shift_1
Note_On_72_Vel_102
Time_Shift_104
Note_On_84_Vel_0
Time_Shift_8
Note_On_51_Vel_0
Time_Shift_8
Note_On_39_Vel_0
Note_On_72_Vel_0
Time_Shift_41
Note_On_60_Vel_99
Time_Shift_1
Note_On_50_Vel_95
Note_On_66_Vel_86
Time_Shift_1
Note_On_38_Vel_90
Note_On_72_Vel_93
Time_Shift_26
Sustain_On
Time_Shift_118
Note_On_49_Vel_94
Note_On_37_Vel_91
Time_Shift_1
Note_On_61_Vel_83
Time_Shift_1
Note_On_73_Vel_81
Time_Shift_10
Note_On_73_Vel_0
Time_Shift_131
Note_On_50_Vel_0
Time_Shift_8
Note_On_38_Vel_0
Note_On_60_Vel_0
Note_On_72_Vel_0
Time_Shift_3
Note_On_50_Vel_90
Time_Shift_2
Note_On_38_Vel_88
Note_On_72_Vel_96
Time_Shift_2
Note_On_66_Vel_0
Time_Shift_1
Note_On_60_Vel_94
Time_Shift_4
Note_On_66_Vel_69
Time_Shift_145
Note_On_51_Vel_85
Note_On_39_Vel_82
Time_Shift_150
Note_On_60_Vel_0
Time_Shift_5
Note_On_49_Vel_0
Time_Shift_3
Note_On_38_Vel_0
Note_On_50_Vel_0
Note_On_66_Vel_0
Note_On_72_Vel_0
Note_On_51_Vel_0
Time_Shift_1
Note_On_39_Vel_0
Time_Shift_1
Note_On_37_Vel_0
Time_Shift_1
Note_On_60_Vel_90
Time_Shift_3
Note_On_38_Vel_80
Note_On_50_Vel_82
Note_On_69_Vel_82
Time_Shift_1
Note_On_72_Vel_90
Note_On_66_Vel_76
Time_Shift_4
Sustain_Off
Time_Shift_4
Note_On_61_Vel_0
Time_Shift_92
Sustain_On
Time_Shift_65
Note_On_71_Vel_85
Time_Shift_4
Note_On_59_Vel_82
Time_Shift_154
Note_On_38_Vel_0
Note_On_50_Vel_0
Time_Shift_4
Sustain_Off
Time_Shift_5
Note_On_70_Vel_90
Note_On_58_Vel_82
Time_Shift_1
Note_On_50_Vel_74
Time_Shift_1
Note_On_38_Vel_71
Time_Shift_19
Note_On_66_Vel_0
Time_Shift_1
Note_On_72_Vel_0
Note_On_69_Vel_0
Time_Shift_1
Note_On_59_Vel_0
Time_Shift_1
Note_On_60_Vel_0
Time_Shift_1
Note_On_71_Vel_0
Time_Shift_27
Sustain_On
Time_Shift_104
Note_On_69_Vel_78
Note_On_57_Vel_70
Time_Shift_173
Note_On_58_Vel_0
Time_Shift_11
Note_On_62_Vel_72
Note_On_58_Vel_80
Note_On_43_Vel_67
Note_On_67_Vel_74
Time_Shift_1
Note_On_55_Vel_73
Note_On_31_Vel_64
Time_Shift_15
Note_On_70_Vel_0
Time_Shift_3
Note_On_57_Vel_0
Time_Shift_1
Note_On_69_Vel_0
Time_Shift_10
Sustain_Off
Time_Shift_20
Note_On_50_Vel_0
Time_Shift_8
Note_On_38_Vel_0
Time_Shift_15
Note_On_31_Vel_0
Time_Shift_8
Sustain_On
Time_Shift_60
Note_On_44_Vel_83
Time_Shift_3
Note_On_32_Vel_77
Time_Shift_3
Note_On_50_Vel_62
Time_Shift_11
Note_On_50_Vel_0
Time_Shift_123
Note_On_55_Vel_0
Note_On_67_Vel_0
Time_Shift_5
Note_On_45_Vel_86
Note_On_55_Vel_94
Time_Shift_2
Note_On_33_Vel_83
Time_Shift_3
Note_On_67_Vel_88
Time_Shift_2
Note_On_64_Vel_70
Time_Shift_11
Note_On_64_Vel_0
Time_Shift_130
Note_On_55_Vel_0
Note_On_67_Vel_0
Time_Shift_4
Note_On_46_Vel_98
Time_Shift_1
Note_On_65_Vel_78
Time_Shift_1
Note_On_34_Vel_90
Time_Shift_1
Note_On_67_Vel_69
Time_Shift_1
Note_On_62_Vel_0
Time_Shift_3
Note_On_55_Vel_77
Time_Shift_2
Note_On_62_Vel_65
Time_Shift_148
Note_On_55_Vel_0
Note_On_62_Vel_0
Note_On_67_Vel_0
Time_Shift_4
Sustain_Off
Time_Shift_3
Note_On_67_Vel_89
Time_Shift_2
Note_On_32_Vel_0
Note_On_34_Vel_0
Time_Shift_1
Note_On_33_Vel_0
Note_On_47_Vel_95
Note_On_45_Vel_0
Time_Shift_1
Note_On_55_Vel_89
Note_On_62_Vel_94
Note_On_46_Vel_0
Note_On_44_Vel_0
Note_On_59_Vel_86
Time_Shift_1
Note_On_43_Vel_0
Time_Shift_2
Note_On_35_Vel_87
Time_Shift_2
Note_On_58_Vel_0
Note_On_59_Vel_0
Time_Shift_30
Note_On_65_Vel_0
Time_Shift_16
Sustain_On
Time_Shift_89
Note_On_56_Vel_100
Time_Shift_2
Note_On_68_Vel_91
Time_Shift_139
Note_On_47_Vel_0
Time_Shift_8
Note_On_55_Vel_0
Note_On_67_Vel_0
Time_Shift_3
Note_On_59_Vel_92
Note_On_47_Vel_97
Time_Shift_1
Note_On_55_Vel_92
Note_On_74_Vel_89
Time_Shift_2
Note_On_67_Vel_90
Time_Shift_30
Note_On_35_Vel_0
Note_On_68_Vel_0
Note_On_62_Vel_0
Time_Shift_1
Sustain_Off
Note_On_56_Vel_0
Time_Shift_40
Note_On_55_Vel_0
Note_On_67_Vel_0
Time_Shift_79
Note_On_67_Vel_103
Note_On_79_Vel_104
Time_Shift_56
Note_On_67_Vel_0
Time_Shift_5
Note_On_79_Vel_0
Time_Shift_6
Note_On_59_Vel_0
Time_Shift_7
Note_On_47_Vel_0
Time_Shift_31
Note_On_74_Vel_0
Time_Shift_51
Note_On_60_Vel_88
Note_On_67_Vel_90
Time_Shift_5
Note_On_55_Vel_86
Note_On_63_Vel_93
Time_Shift_1
Note_On_48_Vel_93
Time_Shift_2
Note_On_36_Vel_84
Time_Shift_72
Sustain_On
Time_Shift_65
Note_On_49_Vel_98
Time_Shift_1
Note_On_37_Vel_86
Time_Shift_141
Note_On_55_Vel_0
Note_On_67_Vel_0
Time_Shift_6
Note_On_50_Vel_100
Time_Shift_2
Note_On_67_Vel_88
Time_Shift_1
Note_On_55_Vel_91
Time_Shift_1
Note_On_38_Vel_93
Time_Shift_1
Note_On_62_Vel_91
Time_Shift_138
Note_On_51_Vel_101
Time_Shift_1
Note_On_39_Vel_85
Time_Shift_144
Note_On_63_Vel_0
Time_Shift_2
Note_On_51_Vel_0
Note_On_48_Vel_0
Note_On_49_Vel_0
Note_On_38_Vel_0
Note_On_36_Vel_0
Time_Shift_1
Note_On_50_Vel_0
Note_On_39_Vel_0
Note_On_37_Vel_0
Time_Shift_2
Sustain_Off
Time_Shift_8
Note_On_55_Vel_0
Note_On_60_Vel_0
Note_On_62_Vel_0
Note_On_67_Vel_0
Time_Shift_4
Note_On_41_Vel_97
Time_Shift_1
Note_On_53_Vel_96
Note_On_67_Vel_93
Note_On_55_Vel_93
Time_Shift_1
Note_On_62_Vel_94
Time_Shift_5
Note_On_59_Vel_84
Time_Shift_35
Sustain_On
Time_Shift_91
Note_On_68_Vel_99
Time_Shift_1
Note_On_56_Vel_100
Time_Shift_146
Note_On_53_Vel_0
Note_On_67_Vel_0
Time_Shift_8
Note_On_41_Vel_0
Note_On_55_Vel_0
Time_Shift_1
Note_On_67_Vel_103
Time_Shift_2
Note_On_53_Vel_96
Time_Shift_2
Note_On_41_Vel_96
Note_On_55_Vel_93
Time_Shift_22
Sustain_Off
Note_On_62_Vel_0
Time_Shift_5
Note_On_56_Vel_0
Time_Shift_1
Note_On_68_Vel_0
Time_Shift_21
Note_On_59_Vel_0
Time_Shift_23
Note_On_67_Vel_0
Time_Shift_31
Note_On_55_Vel_0
Time_Shift_48
Note_On_79_Vel_104
Time_Shift_1
Note_On_67_Vel_103
Time_Shift_35
Note_On_53_Vel_0
Time_Shift_4
Note_On_67_Vel_0
Time_Shift_6
Note_On_79_Vel_0
Time_Shift_28
Note_On_41_Vel_0
Time_Shift_88
Note_On_63_Vel_96
Note_On_55_Vel_83
Note_On_39_Vel_91
Time_Shift_1
Note_On_67_Vel_90
Note_On_51_Vel_95
Time_Shift_1
Note_On_60_Vel_79
Time_Shift_33
Sustain_On
Time_Shift_110
Note_On_50_Vel_94
Time_Shift_1
Note_On_38_Vel_90
Time_Shift_150
Note_On_67_Vel_0
Time_Shift_8
Note_On_55_Vel_0
Time_Shift_3
Note_On_67_Vel_100
Time_Shift_1
Note_On_55_Vel_100
Time_Shift_7
Note_On_49_Vel_96
Time_Shift_5
Note_On_37_Vel_91
Time_Shift_133
Note_On_48_Vel_98
Time_Shift_1
Note_On_36_Vel_90
Time_Shift_142
Note_On_55_Vel_0
Note_On_67_Vel_0
Time_Shift_8
Note_On_63_Vel_0
Time_Shift_1
Note_On_55_Vel_94
Time_Shift_1
Note_On_46_Vel_94
Time_Shift_1
Note_On_34_Vel_90
Note_On_67_Vel_88
Time_Shift_1
Note_On_63_Vel_90
Time_Shift_3
Note_On_61_Vel_88
Time_Shift_2
Sustain_Off
Time_Shift_7
Note_On_60_Vel_0
Time_Shift_1
Note_On_38_Vel_0
Time_Shift_1
Note_On_50_Vel_0
Note_On_48_Vel_0
Note_On_51_Vel_0
Time_Shift_28
Sustain_On
Time_Shift_113
Note_On_68_Vel_97
Time_Shift_4
Note_On_56_Vel_98
Time_Shift_2
Note_On_44_Vel_94
Note_On_48_Vel_85
Time_Shift_2
Note_On_32_Vel_80
Time_Shift_142
Note_On_58_Vel_105
Time_Shift_1
Note_On_70_Vel_101
Time_Shift_9
Note_On_31_Vel_87
Time_Shift_1
Note_On_43_Vel_89
Time_Shift_136
Note_On_41_Vel_95
Time_Shift_1
Note_On_72_Vel_104
Note_On_29_Vel_91
Note_On_60_Vel_106
Time_Shift_19
Note_On_70_Vel_0
Time_Shift_7
Note_On_70_Vel_56
Time_Shift_121
Note_On_32_Vel_0
Time_Shift_1
Note_On_56_Vel_0
Note_On_44_Vel_0
Time_Shift_1
Note_On_68_Vel_0
Note_On_61_Vel_0
Time_Shift_1
Note_On_58_Vel_0
Note_On_31_Vel_0
Time_Shift_1
Note_On_36_Vel_0
Note_On_72_Vel_0
Note_On_60_Vel_0
Note_On_43_Vel_0
Time_Shift_1
Note_On_48_Vel_0
Time_Shift_1
Sustain_Off
Time_Shift_3
Note_On_73_Vel_107
Time_Shift_1
Note_On_29_Vel_0
Note_On_37_Vel_0
Note_On_41_Vel_0
Note_On_46_Vel_0
Note_On_55_Vel_0
Note_On_63_Vel_0
Note_On_67_Vel_0
Time_Shift_3
Note_On_61_Vel_105
Time_Shift_4
Note_On_37_Vel_86
Time_Shift_1
Note_On_34_Vel_0
Note_On_39_Vel_0
Note_On_70_Vel_0
Note_On_63_Vel_86
Time_Shift_3
Note_On_36_Vel_81
Time_Shift_1
Note_On_39_Vel_81
Time_Shift_1
Note_On_70_Vel_77
Time_Shift_2
Note_On_36_Vel_0
Note_On_49_Vel_0
Time_Shift_39
Note_On_37_Vel_0
Time_Shift_15
Note_On_39_Vel_0
Time_Shift_8
Note_On_63_Vel_0
Time_Shift_75
Note_On_43_Vel_92
Time_Shift_2
Note_On_31_Vel_92
Time_Shift_7
Sustain_On
Time_Shift_154
Note_On_73_Vel_0
Time_Shift_5
Note_On_73_Vel_102
Time_Shift_3
Note_On_61_Vel_0
Time_Shift_3
Sustain_Off
Time_Shift_1
Note_On_61_Vel_87
Time_Shift_2
Note_On_46_Vel_88
Time_Shift_3
Note_On_34_Vel_86
Time_Shift_98
Sustain_On
Time_Shift_61
Note_On_50_Vel_83
Time_Shift_3
Note_On_38_Vel_78
Time_Shift_82
Note_On_43_Vel_0
Time_Shift_7
Note_On_43_Vel_62
Time_Shift_79
Note_On_72_Vel_90
Time_Shift_6
Note_On_61_Vel_0
Time_Shift_2
Sustain_Off
Time_Shift_2
Note_On_67_Vel_56
Time_Shift_1
Note_On_73_Vel_0
Note_On_38_Vel_0
Note_On_70_Vel_0
Time_Shift_1
Note_On_50_Vel_0
Note_On_43_Vel_0
Note_On_46_Vel_0
Note_On_34_Vel_0
Note_On_31_Vel_0
Time_Shift_2
Note_On_61_Vel_71
Time_Shift_183
Note_On_70_Vel_89
Time_Shift_9
Sustain_On
Time_Shift_181
Note_On_65_Vel_81
Time_Shift_1
Sustain_Off
Time_Shift_2
Note_On_61_Vel_0
Time_Shift_4
Note_On_61_Vel_68
Time_Shift_1
Note_On_51_Vel_55
Time_Shift_7
Note_On_67_Vel_0
Note_On_72_Vel_0
Time_Shift_96
Sustain_On
Time_Shift_89
Note_On_67_Vel_71
Time_Shift_7
Note_On_63_Vel_72
Time_Shift_180
Note_On_67_Vel_0
Time_Shift_2
Sustain_Off
Time_Shift_2
Note_On_63_Vel_0
Note_On_65_Vel_0
Time_Shift_4
Note_On_70_Vel_0
Time_Shift_8
Note_On_61_Vel_0
Time_Shift_13
Note_On_68_Vel_68
Time_Shift_7
Note_On_60_Vel_56
Time_Shift_4
Note_On_56_Vel_54
Time_Shift_1
Note_On_44_Vel_54
Time_Shift_28
Note_On_68_Vel_0
Time_Shift_31
Note_On_60_Vel_0
Time_Shift_69
Note_On_56_Vel_0
Time_Shift_15
Note_On_71_Vel_70
Time_Shift_3
Note_On_59_Vel_65
Time_Shift_2
Note_On_63_Vel_44
Time_Shift_65
Note_On_51_Vel_0
Time_Shift_42
Note_On_71_Vel_0
Time_Shift_4
Note_On_44_Vel_0
Note_On_59_Vel_0
Note_On_63_Vel_0
Time_Shift_26
Note_On_72_Vel_74
Time_Shift_2
Note_On_60_Vel_68
Time_Shift_37
Note_On_60_Vel_0
Time_Shift_27
Sustain_On
Time_Shift_74
Note_On_73_Vel_80
Time_Shift_5
Note_On_61_Vel_71
Time_Shift_125
Note_On_72_Vel_0
Time_Shift_1
Note_On_61_Vel_0
Time_Shift_4
Sustain_Off
Time_Shift_9
Note_On_74_Vel_74
Time_Shift_9
Note_On_54_Vel_62
Time_Shift_1
Note_On_62_Vel_69
Time_Shift_3
Note_On_57_Vel_51
Time_Shift_4
Note_On_48_Vel_52
Time_Shift_26
Sustain_On
Time_Shift_96
Note_On_46_Vel_66
Time_Shift_1
Note_On_55_Vel_63
Time_Shift_3
Note_On_50_Vel_58
Time_Shift_130
Note_On_74_Vel_0
Time_Shift_8
Note_On_62_Vel_0
Time_Shift_3
Note_On_74_Vel_77
Time_Shift_1
Note_On_62_Vel_72
Time_Shift_1
Note_On_56_Vel_68
Time_Shift_3
Note_On_50_Vel_0
Time_Shift_4
Sustain_Off
Time_Shift_1
Note_On_50_Vel_58
Time_Shift_7
Note_On_47_Vel_51
Time_Shift_5
Note_On_46_Vel_0
Note_On_48_Vel_0
Time_Shift_1
Note_On_55_Vel_0
Time_Shift_1
Note_On_54_Vel_0
Time_Shift_4
Note_On_73_Vel_0
Time_Shift_7
Note_On_57_Vel_0
Time_Shift_31
Sustain_On
Time_Shift_71
Note_On_57_Vel_67
Note_On_48_Vel_67
Time_Shift_137
Note_On_62_Vel_0
Note_On_74_Vel_0
Time_Shift_9
Note_On_74_Vel_78
Time_Shift_2
Note_On_62_Vel_75
Time_Shift_6
Note_On_58_Vel_70
Time_Shift_3
Sustain_Off
Time_Shift_3
Note_On_56_Vel_0
Time_Shift_2
Note_On_57_Vel_0
Time_Shift_13
Note_On_50_Vel_0
Time_Shift_5
Note_On_46_Vel_45
Time_Shift_2
Note_On_50_Vel_36
Time_Shift_1
Note_On_47_Vel_0
Time_Shift_30
Note_On_62_Vel_0
Time_Shift_39
Sustain_On
Time_Shift_21
Note_On_75_Vel_82
Time_Shift_5
Note_On_63_Vel_79
Time_Shift_124
Note_On_76_Vel_83
Time_Shift_3
Note_On_49_Vel_70
Time_Shift_2
Note_On_64_Vel_75
Time_Shift_90
Note_On_50_Vel_0
Time_Shift_6
Note_On_50_Vel_72
Time_Shift_25
Note_On_77_Vel_91
Time_Shift_5
Note_On_65_Vel_87
Time_Shift_130
Note_On_60_Vel_62
Time_Shift_5
Note_On_57_Vel_61
Time_Shift_1
Note_On_78_Vel_92
Time_Shift_5
Note_On_66_Vel_81
Time_Shift_3
Sustain_Off
Note_On_58_Vel_0
Time_Shift_1
Note_On_65_Vel_0
Note_On_46_Vel_0
Note_On_64_Vel_0
Note_On_63_Vel_0
Note_On_76_Vel_0
Note_On_75_Vel_0
Note_On_77_Vel_0
Time_Shift_1
Note_On_49_Vel_0
Time_Shift_3
Note_On_48_Vel_0
Note_On_74_Vel_0
Time_Shift_61
Sustain_On
Time_Shift_59
Note_On_51_Vel_71
Time_Shift_113
Note_On_66_Vel_0
Time_Shift_1
Sustain_Off
Time_Shift_2
Note_On_50_Vel_0
Time_Shift_17
Note_On_60_Vel_0
Time_Shift_16
Note_On_78_Vel_0
Time_Shift_6
Note_On_78_Vel_79
Time_Shift_5
Note_On_66_Vel_71
Note_On_50_Vel_56
Note_On_69_Vel_52
Time_Shift_27
Note_On_57_Vel_0
Time_Shift_8
Sustain_On
Time_Shift_92
Note_On_50_Vel_0
Time_Shift_1
Note_On_57_Vel_61
Time_Shift_3
Note_On_50_Vel_50
Time_Shift_85
Note_On_43_Vel_61
Time_Shift_20
Sustain_Off
Time_Shift_6
Note_On_66_Vel_0
Time_Shift_1
Note_On_78_Vel_0
Time_Shift_2
Note_On_57_Vel_0
Time_Shift_5
Note_On_51_Vel_0
Time_Shift_4
Note_On_79_Vel_71
Time_Shift_3
Note_On_67_Vel_70
Note_On_69_Vel_0
Time_Shift_23
Sustain_On
Time_Shift_32
Note_On_58_Vel_61
Time_Shift_15
Note_On_43_Vel_0
Time_Shift_56
Note_On_80_Vel_85
Time_Shift_1
Note_On_68_Vel_70
Time_Shift_2
Sustain_Off
Time_Shift_5
Note_On_79_Vel_0
Time_Shift_5
Note_On_50_Vel_0
Time_Shift_3
Note_On_58_Vel_0
Time_Shift_4
Note_On_67_Vel_0
Time_Shift_23
Note_On_68_Vel_0
Time_Shift_31
Sustain_On
Time_Shift_50
Note_On_81_Vel_87
Time_Shift_5
Note_On_69_Vel_68
Time_Shift_125
Note_On_82_Vel_92
Time_Shift_8
Note_On_70_Vel_77
Time_Shift_92
Sustain_Off
Time_Shift_4
Note_On_69_Vel_0
Note_On_80_Vel_0
Time_Shift_1
Note_On_81_Vel_0
Time_Shift_2
Note_On_70_Vel_0
Time_Shift_1
Note_On_82_Vel_0
Time_Shift_24
Note_On_83_Vel_85
Note_On_63_Vel_71
Time_Shift_3
Note_On_57_Vel_66
Time_Shift_3
Note_On_54_Vel_65
Note_On_71_Vel_75
Time_Shift_28
Sustain_On
Time_Shift_10
Note_On_63_Vel_0
Time_Shift_86
Note_On_59_Vel_65
Time_Shift_1
Note_On_55_Vel_60
Time_Shift_125
Note_On_71_Vel_0
Note_On_83_Vel_0
Time_Shift_5
Sustain_Off
Time_Shift_1
Note_On_83_Vel_88
Note_On_55_Vel_0
Time_Shift_1
Note_On_71_Vel_81
Note_On_57_Vel_0
Note_On_65_Vel_71
Time_Shift_3
Note_On_59_Vel_0
Time_Shift_1
Note_On_56_Vel_75
Time_Shift_5
Note_On_54_Vel_0
Time_Shift_25
Note_On_65_Vel_0
Time_Shift_5
Sustain_On
Time_Shift_79
Note_On_66_Vel_86
Time_Shift_1
Note_On_57_Vel_68
Time_Shift_132
Note_On_56_Vel_0
Note_On_66_Vel_0
Time_Shift_1
Note_On_57_Vel_0
Time_Shift_3
Note_On_71_Vel_0
Note_On_83_Vel_0
Time_Shift_4
Note_On_83_Vel_87
Time_Shift_1
Sustain_Off
Time_Shift_3
Note_On_67_Vel_69
Time_Shift_1
Note_On_71_Vel_71
Note_On_55_Vel_72
Time_Shift_44
Sustain_On
Time_Shift_21
Note_On_71_Vel_0
Time_Shift_6
Note_On_83_Vel_0
Time_Shift_50
Note_On_84_Vel_92
Time_Shift_1
Note_On_72_Vel_83
Time_Shift_122
Note_On_85_Vel_95
Time_Shift_2
Note_On_58_Vel_73
Time_Shift_1
Note_On_73_Vel_87
Time_Shift_105
Note_On_86_Vel_97
Time_Shift_6
Note_On_59_Vel_69
Time_Shift_5
Note_On_74_Vel_78
Time_Shift_58
Note_On_73_Vel_0
Time_Shift_3
Note_On_73_Vel_63
Time_Shift_32
Note_On_54_Vel_79
Time_Shift_8
Sustain_Off
Time_Shift_14
Note_On_73_Vel_0
Time_Shift_1
Note_On_55_Vel_0
Note_On_84_Vel_0
Note_On_58_Vel_0
Time_Shift_1
Note_On_72_Vel_0
Note_On_85_Vel_0
Time_Shift_1
Note_On_59_Vel_0
Time_Shift_1
Note_On_67_Vel_0
Time_Shift_1
Note_On_86_Vel_0
Time_Shift_2
Note_On_74_Vel_0
Time_Shift_9
Note_On_87_Vel_93
Note_On_75_Vel_90
Time_Shift_11
Sustain_On
Time_Shift_49
Note_On_69_Vel_65
Time_Shift_90
Note_On_60_Vel_70
Time_Shift_99
Note_On_75_Vel_0
Note_On_87_Vel_0
Time_Shift_8
Note_On_87_Vel_95
Time_Shift_3
Note_On_75_Vel_90
Time_Shift_19
Note_On_59_Vel_82
Time_Shift_109
Note_On_66_Vel_90
Time_Shift_98
Note_On_52_Vel_80
Time_Shift_9
Note_On_59_Vel_0
Time_Shift_11
Note_On_59_Vel_87
Time_Shift_25
Note_On_88_Vel_98
Time_Shift_1
Note_On_76_Vel_97
Time_Shift_4
Note_On_67_Vel_82
Time_Shift_9
Note_On_69_Vel_0
Time_Shift_4
Note_On_60_Vel_0
Note_On_87_Vel_0
Time_Shift_1
Note_On_54_Vel_0
Time_Shift_1
Note_On_52_Vel_0
Note_On_66_Vel_0
Time_Shift_1
Note_On_59_Vel_0
Time_Shift_3
Sustain_Off
Time_Shift_5
Note_On_67_Vel_0
Time_Shift_4
Note_On_75_Vel_0
Time_Shift_31
Note_On_76_Vel_0
Time_Shift_44
Note_On_89_Vel_91
Time_Shift_4
Note_On_77_Vel_82
Time_Shift_116
Note_On_78_Vel_88
Time_Shift_1
Note_On_90_Vel_91
Time_Shift_5
Note_On_67_Vel_59
Time_Shift_6
Note_On_67_Vel_0
Time_Shift_31
Note_On_77_Vel_0
Time_Shift_8
Note_On_89_Vel_0
Time_Shift_15
Note_On_78_Vel_0
Note_On_88_Vel_0
Time_Shift_8
Note_On_90_Vel_0
Time_Shift_43
Note_On_91_Vel_94
Time_Shift_1
Note_On_79_Vel_87
Time_Shift_36
Note_On_79_Vel_0
Time_Shift_2
Note_On_91_Vel_0
Time_Shift_75
Note_On_47_Vel_74
Time_Shift_11
Note_On_92_Vel_94
Time_Shift_4
Note_On_80_Vel_85
Time_Shift_11
Note_On_47_Vel_0
Time_Shift_19
Note_On_80_Vel_0
Time_Shift_79
Note_On_91_Vel_84
Note_On_79_Vel_77
Time_Shift_72
Note_On_79_Vel_0
Time_Shift_31
Note_On_92_Vel_0
Time_Shift_12
Note_On_65_Vel_77
Time_Shift_5
Note_On_62_Vel_71
Time_Shift_3
Note_On_90_Vel_91
Note_On_55_Vel_67
Time_Shift_8
Note_On_81_Vel_72
Time_Shift_12
Note_On_65_Vel_0
Time_Shift_2
Note_On_62_Vel_0
Time_Shift_27
Note_On_55_Vel_0
Time_Shift_15
Note_On_91_Vel_0
Time_Shift_16
Note_On_81_Vel_0
Time_Shift_28
Note_On_89_Vel_91
Time_Shift_4
Note_On_83_Vel_86
Time_Shift_65
Note_On_83_Vel_0
Time_Shift_53
Note_On_88_Vel_87
Time_Shift_1
Note_On_48_Vel_77
Time_Shift_2
Note_On_84_Vel_82
Time_Shift_16
Note_On_90_Vel_0
Time_Shift_10
Note_On_48_Vel_0
Time_Shift_2
Note_On_84_Vel_0
Time_Shift_16
Note_On_88_Vel_0
Time_Shift_10
Note_On_89_Vel_0
Time_Shift_73
Note_On_79_Vel_67
Time_Shift_1
Note_On_87_Vel_74
Time_Shift_29
Note_On_79_Vel_0
Time_Shift_58
Note_On_87_Vel_0
Time_Shift_20
Note_On_86_Vel_87
Time_Shift_6
Note_On_77_Vel_76
Time_Shift_8
Note_On_60_Vel_66
Time_Shift_1
Note_On_55_Vel_61
Note_On_63_Vel_63
Time_Shift_18
Note_On_77_Vel_0
Time_Shift_24
Note_On_55_Vel_0
Note_On_60_Vel_0
Note_On_63_Vel_0
Time_Shift_15
Note_On_86_Vel_0
Time_Shift_40
Note_On_87_Vel_96
Time_Shift_15
Note_On_77_Vel_62
Time_Shift_5
Note_On_75_Vel_61
Time_Shift_40
Note_On_77_Vel_0
Time_Shift_34
Note_On_73_Vel_82
Time_Shift_11
Note_On_85_Vel_69
Time_Shift_10
Note_On_43_Vel_73
Time_Shift_26
Note_On_73_Vel_0
Time_Shift_4
Note_On_75_Vel_0
Time_Shift_1
Note_On_43_Vel_0
Time_Shift_10
Note_On_89_Vel_103
Time_Shift_4
Note_On_87_Vel_0
Time_Shift_23
Note_On_85_Vel_0
Time_Shift_63
Note_On_87_Vel_88
Time_Shift_3
Note_On_75_Vel_76
Time_Shift_65
Note_On_75_Vel_0
Time_Shift_58
Note_On_63_Vel_79
Time_Shift_2
Note_On_51_Vel_78
Time_Shift_3
Note_On_58_Vel_61
Time_Shift_1
Note_On_85_Vel_82
Time_Shift_8
Note_On_79_Vel_70
Time_Shift_12
Note_On_87_Vel_0
Time_Shift_5
Note_On_51_Vel_0
Time_Shift_3
Note_On_89_Vel_0
Time_Shift_15
Note_On_63_Vel_0
Time_Shift_8
Note_On_58_Vel_0
Time_Shift_53
Note_On_73_Vel_74
Time_Shift_3
Note_On_82_Vel_84
Time_Shift_10
Note_On_79_Vel_0
Time_Shift_18
Note_On_87_Vel_56
Time_Shift_2
Note_On_73_Vel_0
Time_Shift_6
Note_On_87_Vel_0
Time_Shift_8
Note_On_85_Vel_0
Time_Shift_74
Note_On_80_Vel_83
Time_Shift_1
Note_On_44_Vel_66
Time_Shift_9
Note_On_72_Vel_64
Note_On_82_Vel_0
Time_Shift_5
Note_On_63_Vel_54
Time_Shift_1
Note_On_73_Vel_63
Time_Shift_16
Note_On_44_Vel_0
Time_Shift_6
Note_On_72_Vel_0
Time_Shift_18
Note_On_63_Vel_0
Time_Shift_53
Note_On_82_Vel_82
Time_Shift_10
Note_On_68_Vel_71
Time_Shift_10
Note_On_75_Vel_53
Time_Shift_4
Note_On_75_Vel_0
Time_Shift_39
Note_On_80_Vel_0
Time_Shift_15
Note_On_68_Vel_0
Time_Shift_23
Note_On_73_Vel_0
Time_Shift_29
Note_On_83_Vel_87
Time_Shift_8
Note_On_56_Vel_75
Note_On_75_Vel_74
Time_Shift_5
Note_On_60_Vel_68
Note_On_51_Vel_65
Time_Shift_17
Note_On_56_Vel_0
Time_Shift_2
Note_On_82_Vel_0
Time_Shift_23
Note_On_51_Vel_0
Note_On_60_Vel_0
Time_Shift_16
Note_On_75_Vel_0
Time_Shift_5
Note_On_83_Vel_0
Time_Shift_37
Note_On_72_Vel_83
Note_On_84_Vel_91
Time_Shift_7
Note_On_75_Vel_66
Time_Shift_5
Note_On_75_Vel_0
Time_Shift_32
Note_On_72_Vel_0
Time_Shift_17
Note_On_84_Vel_0
Time_Shift_67
Note_On_85_Vel_91
Time_Shift_2
Note_On_79_Vel_80
Time_Shift_1
Note_On_40_Vel_64
Time_Shift_2
Note_On_73_Vel_74
Time_Shift_55
Note_On_40_Vel_0
Time_Shift_46
Note_On_73_Vel_0
Time_Shift_15
Note_On_84_Vel_85
Time_Shift_6
Note_On_72_Vel_78
Time_Shift_102
Note_On_72_Vel_0
Time_Shift_12
Note_On_48_Vel_77
Time_Shift_3
Note_On_60_Vel_75
Time_Shift_3
Note_On_83_Vel_89
Time_Shift_1
Note_On_55_Vel_69
Time_Shift_6
Note_On_74_Vel_74
Time_Shift_6
Note_On_85_Vel_0
Time_Shift_9
Note_On_48_Vel_0
Time_Shift_6
Note_On_84_Vel_0
Time_Shift_16
Note_On_60_Vel_0
Time_Shift_15
Note_On_55_Vel_0
Time_Shift_8
Note_On_74_Vel_0
Time_Shift_30
Note_On_79_Vel_0
Time_Shift_17
Note_On_82_Vel_93
Time_Shift_2
Note_On_76_Vel_87
Time_Shift_70
Note_On_76_Vel_0
Time_Shift_4
Note_On_83_Vel_0
Time_Shift_12
Note_On_82_Vel_0
Time_Shift_34
Note_On_53_Vel_82
Time_Shift_3
Note_On_41_Vel_77
Time_Shift_1
Note_On_77_Vel_82
Note_On_81_Vel_89
Time_Shift_24
Note_On_41_Vel_0
Note_On_53_Vel_0
Time_Shift_41
Note_On_77_Vel_0
Time_Shift_53
Note_On_80_Vel_87
Time_Shift_3
Note_On_81_Vel_0
Time_Shift_8
Note_On_72_Vel_79
Time_Shift_48
Note_On_80_Vel_0
Time_Shift_49
Note_On_72_Vel_0
Time_Shift_11
Note_On_53_Vel_76
Time_Shift_1
Note_On_56_Vel_79
Note_On_62_Vel_78
Note_On_79_Vel_86
Time_Shift_11
Note_On_74_Vel_68
Time_Shift_12
Note_On_53_Vel_0
Note_On_62_Vel_0
Time_Shift_4
Note_On_56_Vel_0
Time_Shift_101
Note_On_77_Vel_82
Time_Shift_1
Note_On_68_Vel_82
Time_Shift_1
Note_On_79_Vel_0
Time_Shift_27
Note_On_74_Vel_0
Time_Shift_4
Note_On_62_Vel_51
Time_Shift_73
Note_On_68_Vel_0
Time_Shift_25
Note_On_79_Vel_90
Time_Shift_2
Note_On_67_Vel_78
Time_Shift_1
Note_On_43_Vel_65
Time_Shift_2
Note_On_77_Vel_0
Time_Shift_10
Note_On_77_Vel_65
Time_Shift_14
Note_On_62_Vel_0
Time_Shift_15
Note_On_43_Vel_0
Time_Shift_15
Note_On_77_Vel_0
Time_Shift_11
Note_On_67_Vel_0
Time_Shift_16
Note_On_79_Vel_0
Time_Shift_44
Note_On_83_Vel_90
Time_Shift_25
Note_On_77_Vel_54
Time_Shift_54
Note_On_83_Vel_0
Time_Shift_47
Note_On_86_Vel_89
Time_Shift_14
Note_On_79_Vel_79
Time_Shift_8
Note_On_67_Vel_65
Time_Shift_5
Note_On_65_Vel_59
Time_Shift_1
Note_On_59_Vel_53
Time_Shift_36
Note_On_77_Vel_0
Time_Shift_72
Note_On_91_Vel_93
Time_Shift_7
Note_On_83_Vel_76
Time_Shift_11
Note_On_62_Vel_62
Time_Shift_8
Note_On_59_Vel_0
Time_Shift_1
Note_On_79_Vel_0
Time_Shift_1
Note_On_86_Vel_0
Time_Shift_2
Note_On_65_Vel_0
Time_Shift_124
Note_On_62_Vel_0
Note_On_87_Vel_85
Time_Shift_3
Note_On_84_Vel_69
Time_Shift_17
Note_On_83_Vel_0
Time_Shift_8
Note_On_67_Vel_0
Time_Shift_8
Note_On_63_Vel_59
Note_On_60_Vel_52
Time_Shift_15
Note_On_91_Vel_0
Time_Shift_69
Sustain_On
Time_Shift_9
Note_On_79_Vel_66
Time_Shift_75
Sustain_Off
Time_Shift_31
Note_On_87_Vel_0
Time_Shift_8
Note_On_87_Vel_65
Time_Shift_32
Note_On_89_Vel_79
Time_Shift_14
Sustain_On
Time_Shift_38
Note_On_87_Vel_0
Time_Shift_10
Note_On_87_Vel_89
Time_Shift_13
Note_On_84_Vel_0
Time_Shift_12
Note_On_84_Vel_71
Time_Shift_100
Note_On_86_Vel_95
Time_Shift_142
Note_On_86_Vel_0
Note_On_87_Vel_0
Time_Shift_5
Note_On_86_Vel_79
Time_Shift_4
Note_On_87_Vel_79
Time_Shift_34
Note_On_58_Vel_49
Time_Shift_95
Note_On_79_Vel_0
Time_Shift_11
Note_On_79_Vel_71
Time_Shift_162
Note_On_85_Vel_84
Time_Shift_11
Note_On_55_Vel_47
Time_Shift_96
Note_On_94_Vel_94
Time_Shift_50
Note_On_84_Vel_0
Time_Shift_12
Note_On_84_Vel_75
Time_Shift_34
Note_On_85_Vel_0
Time_Shift_8
Note_On_85_Vel_83
Time_Shift_55
Note_On_92_Vel_95
Time_Shift_6
Note_On_84_Vel_0
Time_Shift_10
Note_On_84_Vel_72
Time_Shift_4
Note_On_56_Vel_56
Time_Shift_7
Sustain_Off
Time_Shift_33
Sustain_On
Time_Shift_87
Note_On_83_Vel_71
Time_Shift_151
Note_On_84_Vel_0
Time_Shift_10
Note_On_62_Vel_68
Time_Shift_2
Note_On_84_Vel_65
Time_Shift_7
Note_On_85_Vel_0
Time_Shift_116
Note_On_90_Vel_88
Time_Shift_134
Note_On_94_Vel_0
Time_Shift_19
Note_On_91_Vel_82
Time_Shift_4
Note_On_55_Vel_0
Note_On_83_Vel_0
Time_Shift_10
Note_On_55_Vel_52
Note_On_83_Vel_65
Time_Shift_5
Sustain_Off
Time_Shift_1
Note_On_60_Vel_0
Time_Shift_15
Note_On_89_Vel_0
Time_Shift_8
Sustain_On
Time_Shift_23
Note_On_87_Vel_0
Time_Shift_30
Note_On_86_Vel_0
Time_Shift_39
Note_On_79_Vel_0
Time_Shift_9
Note_On_79_Vel_71
Time_Shift_75
Note_On_58_Vel_0
Time_Shift_62
Note_On_84_Vel_0
Time_Shift_8
Note_On_84_Vel_83
Time_Shift_11
Note_On_67_Vel_52
Time_Shift_5
Note_On_62_Vel_0
Time_Shift_8
Note_On_81_Vel_51
Time_Shift_6
Note_On_56_Vel_0
Time_Shift_23
Note_On_63_Vel_0
Time_Shift_31
Note_On_90_Vel_0
Note_On_92_Vel_0
Time_Shift_61
Note_On_83_Vel_0
Time_Shift_1
Note_On_86_Vel_84
Time_Shift_3
Note_On_83_Vel_74
Time_Shift_148
Note_On_87_Vel_82
Time_Shift_10
Note_On_84_Vel_0
Time_Shift_5
Note_On_84_Vel_70
Time_Shift_8
Note_On_63_Vel_61
Time_Shift_6
Note_On_60_Vel_51
Time_Shift_57
Note_On_67_Vel_0
Time_Shift_3
Note_On_63_Vel_0
Time_Shift_3
Note_On_86_Vel_0
Time_Shift_2
Note_On_81_Vel_0
Note_On_87_Vel_0
Time_Shift_1
Note_On_83_Vel_0
Time_Shift_1
Note_On_91_Vel_0
Sustain_Off
Time_Shift_3
Note_On_84_Vel_0
Time_Shift_8
Note_On_60_Vel_0
Time_Shift_2
Note_On_79_Vel_0
Time_Shift_16
Note_On_55_Vel_0
Time_Shift_7
Note_On_79_Vel_70
Time_Shift_46
Note_On_79_Vel_0
Time_Shift_44
Note_On_75_Vel_55
Time_Shift_36
Note_On_75_Vel_0
Time_Shift_16
Note_On_77_Vel_73
Time_Shift_39
Note_On_77_Vel_0
Time_Shift_11
Note_On_75_Vel_79
Time_Shift_2
Note_On_63_Vel_62
Time_Shift_5
Note_On_60_Vel_53
Time_Shift_1
Sustain_On
Time_Shift_32
Note_On_72_Vel_58
Time_Shift_94
Note_On_74_Vel_76
Time_Shift_143
Note_On_75_Vel_0
Time_Shift_4
Note_On_75_Vel_68
Time_Shift_20
Note_On_72_Vel_0
Time_Shift_1
Note_On_74_Vel_0
Time_Shift_1
Note_On_60_Vel_0
Time_Shift_9
Sustain_Off
Time_Shift_4
Note_On_73_Vel_56
Time_Shift_5
Note_On_58_Vel_48
Time_Shift_71
Sustain_On
Time_Shift_40
Note_On_67_Vel_52
Time_Shift_59
Note_On_74_Vel_50
Time_Shift_85
Note_On_73_Vel_0
Time_Shift_5
Note_On_73_Vel_65
Note_On_55_Vel_54
Time_Shift_112
Note_On_82_Vel_89
Time_Shift_64
Note_On_72_Vel_65
Time_Shift_42
Note_On_73_Vel_0
Time_Shift_11
Note_On_73_Vel_67
Time_Shift_48
Note_On_80_Vel_84
Note_On_67_Vel_0
Time_Shift_1
Note_On_55_Vel_0
Note_On_73_Vel_0
Time_Shift_1
Note_On_58_Vel_0
Time_Shift_1
Note_On_72_Vel_0
Note_On_74_Vel_0
Time_Shift_1
Note_On_82_Vel_0
Time_Shift_2
Note_On_56_Vel_60
Time_Shift_2
Sustain_Off
Time_Shift_2
Note_On_75_Vel_0
Time_Shift_3
Note_On_72_Vel_70
Time_Shift_13
Note_On_63_Vel_0
Time_Shift_23
Sustain_On
Time_Shift_101
Note_On_71_Vel_68
Time_Shift_160
Note_On_72_Vel_0
Time_Shift_5
Note_On_62_Vel_69
Time_Shift_3
Note_On_72_Vel_58
Time_Shift_127
Note_On_78_Vel_78
Time_Shift_147
Note_On_79_Vel_77
Time_Shift_7
Note_On_80_Vel_0
Time_Shift_2
Note_On_72_Vel_0
Time_Shift_1
Note_On_78_Vel_0
Time_Shift_4
Note_On_56_Vel_0
Sustain_Off
Time_Shift_11
Note_On_71_Vel_0
Time_Shift_1
Note_On_62_Vel_0
Time_Shift_2
Note_On_55_Vel_56
Time_Shift_1
Note_On_71_Vel_48
Time_Shift_50
Sustain_On
Time_Shift_66
Note_On_67_Vel_67
Time_Shift_151
Note_On_72_Vel_76
Time_Shift_21
Note_On_55_Vel_0
Time_Shift_4
Note_On_71_Vel_0
Time_Shift_2
Note_On_43_Vel_55
Note_On_69_Vel_52
Time_Shift_1
Note_On_79_Vel_0
Time_Shift_2
Note_On_55_Vel_45
Time_Shift_2
Note_On_67_Vel_0
Time_Shift_13
Sustain_Off
Time_Shift_22
Sustain_On
Time_Shift_77
Note_On_55_Vel_0
Time_Shift_8
Note_On_71_Vel_73
Time_Shift_2
Note_On_74_Vel_75
Time_Shift_13
Note_On_43_Vel_0
Time_Shift_4
Note_On_43_Vel_43
Time_Shift_149
Note_On_72_Vel_0
Time_Shift_4
Note_On_75_Vel_79
Time_Shift_8
Note_On_72_Vel_64
Note_On_55_Vel_56
Time_Shift_4
Note_On_48_Vel_62
Time_Shift_4
Note_On_74_Vel_0
Time_Shift_6
Note_On_71_Vel_0
Note_On_43_Vel_0
Time_Shift_5
Note_On_69_Vel_0
Time_Shift_2
Sustain_Off
Time_Shift_3
Note_On_72_Vel_0
Time_Shift_10
Note_On_48_Vel_0
Note_On_75_Vel_0
Time_Shift_16
Note_On_55_Vel_0
Time_Shift_92
Sustain_On
Time_Shift_51
Note_On_79_Vel_79
Time_Shift_4
Note_On_39_Vel_63
Note_On_48_Vel_55
Time_Shift_6
Note_On_48_Vel_0
Time_Shift_2
Note_On_51_Vel_54
Time_Shift_140
Note_On_91_Vel_90
Time_Shift_1
Note_On_43_Vel_74
Time_Shift_4
Note_On_87_Vel_74
Time_Shift_122
Note_On_87_Vel_0
Time_Shift_11
Note_On_87_Vel_93
Time_Shift_3
Note_On_48_Vel_69
Time_Shift_1
Note_On_84_Vel_85
Time_Shift_131
Note_On_79_Vel_0
Note_On_84_Vel_0
Time_Shift_8
Note_On_84_Vel_95
Note_On_51_Vel_0
Time_Shift_3
Note_On_79_Vel_87
Time_Shift_1
Note_On_51_Vel_76
Time_Shift_3
Note_On_48_Vel_0
Time_Shift_4
Note_On_48_Vel_68
Time_Shift_119
Note_On_79_Vel_0
Time_Shift_12
Note_On_79_Vel_97
Time_Shift_8
Note_On_75_Vel_84
Time_Shift_3
Note_On_43_Vel_0
Time_Shift_4
Note_On_55_Vel_79
Time_Shift_2
Note_On_43_Vel_72
Time_Shift_125
Note_On_75_Vel_0
Time_Shift_7
Note_On_75_Vel_100
Time_Shift_5
Note_On_72_Vel_89
Time_Shift_3
Note_On_48_Vel_0
Time_Shift_5
Note_On_60_Vel_78
Time_Shift_1
Note_On_48_Vel_67
Time_Shift_125
Note_On_72_Vel_0
Time_Shift_10
Note_On_72_Vel_101
Time_Shift_24
Note_On_63_Vel_78
Time_Shift_1
Note_On_67_Vel_65
Time_Shift_158
Note_On_73_Vel_99
Time_Shift_12
Note_On_68_Vel_80
Time_Shift_20
Note_On_65_Vel_75
Time_Shift_4
Note_On_58_Vel_65
Time_Shift_20
Note_On_43_Vel_0
Note_On_55_Vel_0
Note_On_63_Vel_0
Note_On_67_Vel_0
Note_On_87_Vel_0
Note_On_75_Vel_0
Note_On_48_Vel_0
Note_On_79_Vel_0
Note_On_51_Vel_0
Time_Shift_1
Note_On_72_Vel_0
Note_On_60_Vel_0
Time_Shift_1
Sustain_Off
Time_Shift_2
Note_On_91_Vel_0
Time_Shift_8
Note_On_84_Vel_0
Time_Shift_61
Sustain_On
Time_Shift_47
Note_On_69_Vel_82
Time_Shift_156
Note_On_70_Vel_88
Time_Shift_74
Note_On_39_Vel_0
Time_Shift_69
Note_On_68_Vel_0
Time_Shift_10
Note_On_68_Vel_84
Time_Shift_159
Note_On_70_Vel_0
Time_Shift_2
Note_On_67_Vel_67
Time_Shift_2
Note_On_70_Vel_66
Time_Shift_30
Note_On_63_Vel_52
Time_Shift_1
Note_On_51_Vel_57
Time_Shift_65
Sustain_Off
Time_Shift_68
Note_On_77_Vel_82
Time_Shift_101
Sustain_On
Time_Shift_30
Note_On_65_Vel_0
Note_On_69_Vel_0
Time_Shift_39
Note_On_63_Vel_0
Note_On_70_Vel_0
Time_Shift_4
Note_On_58_Vel_0
Time_Shift_3
Note_On_70_Vel_58
Time_Shift_1
Note_On_73_Vel_0
Time_Shift_11
Note_On_55_Vel_47
Time_Shift_130
Note_On_75_Vel_78
Time_Shift_166
Note_On_68_Vel_0
Time_Shift_4
Note_On_72_Vel_75
Time_Shift_2
Note_On_68_Vel_65
Time_Shift_5
Note_On_56_Vel_69
Time_Shift_58
Note_On_72_Vel_0
Time_Shift_1
Note_On_75_Vel_0
Note_On_70_Vel_0
Time_Shift_1
Note_On_55_Vel_0
Time_Shift_1
Note_On_68_Vel_0
Time_Shift_2
Note_On_56_Vel_0
Time_Shift_2
Sustain_Off
Time_Shift_1
Note_On_51_Vel_0
Note_On_67_Vel_0
Time_Shift_7
Note_On_77_Vel_0
Time_Shift_54
Sustain_On
Time_Shift_44
Note_On_89_Vel_92
Time_Shift_21
Note_On_48_Vel_60
Time_Shift_3
Note_On_44_Vel_54
Note_On_36_Vel_64
Time_Shift_116
Note_On_48_Vel_0
Time_Shift_1
Note_On_96_Vel_94
Time_Shift_10
Note_On_92_Vel_94
Time_Shift_1
Note_On_48_Vel_69
Time_Shift_3
Note_On_41_Vel_69
Time_Shift_131
Note_On_89_Vel_0
Note_On_92_Vel_0
Time_Shift_5
Note_On_89_Vel_95
Time_Shift_3
Note_On_92_Vel_106
Time_Shift_130
Note_On_48_Vel_0
Note_On_89_Vel_0
Time_Shift_8
Note_On_44_Vel_0
Time_Shift_3
Note_On_89_Vel_103
Time_Shift_1
Note_On_48_Vel_84
Note_On_84_Vel_94
Time_Shift_1
Note_On_44_Vel_82
Time_Shift_133
Note_On_84_Vel_0
Time_Shift_8
Note_On_48_Vel_0
Time_Shift_1
Note_On_84_Vel_95
Time_Shift_3
Note_On_80_Vel_88
Time_Shift_4
Note_On_44_Vel_0
Time_Shift_2
Note_On_53_Vel_81
Note_On_48_Vel_76
Time_Shift_7
Note_On_44_Vel_77
Time_Shift_121
Note_On_80_Vel_0
Time_Shift_8
Note_On_53_Vel_0
Time_Shift_1
Note_On_80_Vel_102
Time_Shift_3
Note_On_77_Vel_85
Time_Shift_6
Note_On_56_Vel_88
Note_On_53_Vel_67
Time_Shift_151
Note_On_77_Vel_0
Time_Shift_8
Note_On_56_Vel_0
Time_Shift_2
Note_On_77_Vel_99
Time_Shift_3
Note_On_56_Vel_82
Time_Shift_1
Note_On_60_Vel_85
Note_On_72_Vel_83
Time_Shift_197
Note_On_61_Vel_90
Time_Shift_1
Note_On_70_Vel_83
Time_Shift_4
Note_On_55_Vel_68
Time_Shift_20
Note_On_56_Vel_0
Time_Shift_63
Sustain_Off
Time_Shift_32
Note_On_92_Vel_0
Time_Shift_15
Note_On_96_Vel_0
Time_Shift_15
Note_On_89_Vel_0
Time_Shift_6
Note_On_76_Vel_89
Time_Shift_7
Note_On_77_Vel_0
Time_Shift_3
Sustain_On
Time_Shift_7
Note_On_72_Vel_0
Time_Shift_8
Note_On_41_Vel_0
Note_On_84_Vel_0
Time_Shift_8
Note_On_80_Vel_0
Time_Shift_7
Note_On_53_Vel_0
Time_Shift_23
Note_On_60_Vel_0
Time_Shift_23
Note_On_44_Vel_0
Time_Shift_70
Note_On_79_Vel_95
Time_Shift_15
Note_On_70_Vel_0
Time_Shift_4
Note_On_70_Vel_50
Time_Shift_145
Note_On_77_Vel_87
Time_Shift_181
Note_On_76_Vel_0
Time_Shift_10
Note_On_76_Vel_77
Time_Shift_25
Note_On_61_Vel_0
Time_Shift_27
Note_On_36_Vel_0
Time_Shift_26
Note_On_60_Vel_44
Time_Shift_135
Note_On_67_Vel_55
Time_Shift_8
Sustain_Off
Time_Shift_46
Note_On_70_Vel_0
Time_Shift_30
Note_On_77_Vel_0
Time_Shift_85
Note_On_79_Vel_0
Time_Shift_11
Note_On_72_Vel_58
Time_Shift_32
Note_On_52_Vel_31
Time_Shift_26
Note_On_55_Vel_0
Time_Shift_101
Note_On_70_Vel_58
Time_Shift_45
Note_On_67_Vel_0
Time_Shift_8
Note_On_48_Vel_0
Time_Shift_84
Note_On_72_Vel_0
Time_Shift_17
Note_On_68_Vel_59
Time_Shift_3
Note_On_70_Vel_0
Time_Shift_4
Note_On_65_Vel_42
Time_Shift_3
Note_On_53_Vel_51
Time_Shift_4
Note_On_76_Vel_0
Time_Shift_30
Note_On_52_Vel_0
Time_Shift_9
Note_On_53_Vel_0
Time_Shift_7
Note_On_60_Vel_0
Time_Shift_69
Note_On_65_Vel_0
Time_Shift_19
Note_On_70_Vel_58
Time_Shift_4
Note_On_67_Vel_52
Time_Shift_8
Note_On_68_Vel_0
Time_Shift_87
Note_On_67_Vel_0
Time_Shift_52
Note_On_70_Vel_0
Time_Shift_5
Note_On_71_Vel_65
Note_On_65_Vel_58
Time_Shift_2
Note_On_68_Vel_49
Time_Shift_151
Note_On_72_Vel_67
Time_Shift_87
Sustain_On
Time_Shift_57
Note_On_73_Vel_73
Time_Shift_135
Note_On_68_Vel_0
Time_Shift_5
Note_On_64_Vel_74
Time_Shift_3
Note_On_74_Vel_60
Time_Shift_3
Note_On_68_Vel_44
Time_Shift_31
Note_On_73_Vel_0
Time_Shift_3
Note_On_65_Vel_0
Time_Shift_16
Sustain_Off
Note_On_72_Vel_0
Time_Shift_31
Note_On_71_Vel_0
Time_Shift_5
Note_On_74_Vel_0
Time_Shift_36
Note_On_64_Vel_0
Time_Shift_8
Note_On_63_Vel_79
Time_Shift_32
Note_On_73_Vel_40
Time_Shift_1
Note_On_67_Vel_44
Time_Shift_18
Note_On_68_Vel_0
Time_Shift_76
Note_On_73_Vel_0
Time_Shift_5
Note_On_51_Vel_79
Time_Shift_5
Note_On_73_Vel_64
Time_Shift_5
Note_On_70_Vel_69
Time_Shift_15
Note_On_63_Vel_0
Time_Shift_130
Note_On_56_Vel_84
Note_On_72_Vel_71
Time_Shift_10
Note_On_70_Vel_0
Time_Shift_3
Note_On_51_Vel_0
Time_Shift_4
Note_On_67_Vel_0
Time_Shift_15
Note_On_73_Vel_0
Time_Shift_20
Note_On_56_Vel_0
Time_Shift_65
Note_On_72_Vel_0
Time_Shift_2
Note_On_73_Vel_73
Time_Shift_2
Note_On_70_Vel_72
Time_Shift_75
Note_On_73_Vel_0
Time_Shift_2
Note_On_70_Vel_0
Time_Shift_69
Note_On_68_Vel_93
Time_Shift_3
Note_On_72_Vel_71
Time_Shift_2
Note_On_75_Vel_72
Time_Shift_75
Sustain_On
Time_Shift_59
Note_On_76_Vel_71
Time_Shift_18
Note_On_68_Vel_0
Time_Shift_9
Note_On_68_Vel_47
Time_Shift_97
Note_On_77_Vel_84
Time_Shift_125
Note_On_68_Vel_0
Time_Shift_2
Note_On_78_Vel_97
Time_Shift_2
Note_On_68_Vel_87
Time_Shift_138
Note_On_67_Vel_91
Note_On_79_Vel_91
Time_Shift_4
Note_On_71_Vel_77
Time_Shift_20
Note_On_76_Vel_0
Time_Shift_1
Note_On_72_Vel_0
Note_On_77_Vel_0
Note_On_75_Vel_0
Time_Shift_3
Note_On_68_Vel_0
Sustain_Off
Time_Shift_3
Note_On_78_Vel_0
Time_Shift_88
Note_On_71_Vel_0
Time_Shift_5
Note_On_77_Vel_83
Time_Shift_1
Note_On_55_Vel_80
Time_Shift_4
Note_On_74_Vel_77
Time_Shift_1
Note_On_71_Vel_72
Time_Shift_20
Note_On_67_Vel_0
Time_Shift_88
Note_On_74_Vel_0
Time_Shift_4
Note_On_71_Vel_0
Time_Shift_4
Note_On_55_Vel_0
Time_Shift_6
Note_On_60_Vel_95
Time_Shift_6
Note_On_75_Vel_88
Time_Shift_1
Note_On_72_Vel_81
Time_Shift_9
Note_On_77_Vel_0
Time_Shift_22
Note_On_60_Vel_0
Time_Shift_77
Note_On_75_Vel_0
Time_Shift_8
Note_On_77_Vel_83
Time_Shift_2
Note_On_74_Vel_80
Time_Shift_26
Note_On_72_Vel_0
Time_Shift_119
Note_On_72_Vel_103
Time_Shift_7
Note_On_78_Vel_94
Time_Shift_1
Note_On_75_Vel_87
Time_Shift_49
Note_On_77_Vel_0
Note_On_74_Vel_0
Time_Shift_16
Note_On_79_Vel_0
Time_Shift_61
Note_On_75_Vel_0
Time_Shift_4
Note_On_79_Vel_88
Time_Shift_2
Note_On_75_Vel_64
Time_Shift_10
Sustain_On
Time_Shift_107
Note_On_75_Vel_0
Time_Shift_8
Note_On_80_Vel_96
Time_Shift_3
Note_On_75_Vel_68
Time_Shift_20
Note_On_72_Vel_0
Time_Shift_11
Note_On_72_Vel_59
Time_Shift_3
Note_On_78_Vel_0
Time_Shift_85
Note_On_81_Vel_96
Time_Shift_1
Note_On_75_Vel_0
Time_Shift_3
Note_On_71_Vel_91
Time_Shift_1
Note_On_75_Vel_91
Time_Shift_128
Note_On_82_Vel_103
Time_Shift_1
Note_On_70_Vel_103
Time_Shift_1
Note_On_74_Vel_80
Time_Shift_111
Note_On_80_Vel_0
Time_Shift_6
Note_On_58_Vel_97
Time_Shift_4
Note_On_80_Vel_90
Note_On_77_Vel_85
Time_Shift_62
Note_On_74_Vel_0
Time_Shift_3
Note_On_82_Vel_0
Time_Shift_1
Note_On_71_Vel_0
Note_On_70_Vel_0
Note_On_72_Vel_0
Note_On_75_Vel_0
Time_Shift_5
Note_On_80_Vel_0
Time_Shift_1
Note_On_77_Vel_0
Time_Shift_11
Note_On_79_Vel_0
Time_Shift_7
Note_On_81_Vel_0
Time_Shift_16
Sustain_Off
Time_Shift_23
Note_On_58_Vel_0
Time_Shift_4
Note_On_63_Vel_106
Time_Shift_1
Note_On_75_Vel_91
Time_Shift_1
Note_On_79_Vel_88
Time_Shift_51
Note_On_63_Vel_0
Time_Shift_1
Note_On_75_Vel_0
Note_On_79_Vel_0
Time_Shift_68
Note_On_80_Vel_90
Time_Shift_1
Note_On_77_Vel_82
Time_Shift_31
Note_On_77_Vel_0
Time_Shift_5
Note_On_80_Vel_0
Time_Shift_101
Note_On_82_Vel_104
Note_On_75_Vel_109
Note_On_79_Vel_95
Time_Shift_43
Note_On_79_Vel_0
Time_Shift_2
Note_On_75_Vel_0
Time_Shift_2
Note_On_82_Vel_0
Time_Shift_81
Note_On_83_Vel_100
Time_Shift_3
Note_On_75_Vel_89
Note_On_79_Vel_91
Time_Shift_32
Note_On_79_Vel_0
Time_Shift_9
Note_On_83_Vel_0
Time_Shift_98
Note_On_84_Vel_90
Note_On_79_Vel_86
Time_Shift_33
Note_On_79_Vel_0
Time_Shift_5
Note_On_84_Vel_0
Time_Shift_1
Note_On_75_Vel_0
Time_Shift_82
Note_On_75_Vel_105
Time_Shift_4
Note_On_85_Vel_95
Time_Shift_4
Note_On_79_Vel_94
Time_Shift_38
Note_On_79_Vel_0
Time_Shift_1
Note_On_75_Vel_0
Time_Shift_4
Note_On_85_Vel_0
Time_Shift_74
Note_On_86_Vel_98
Time_Shift_1
Note_On_78_Vel_102
Note_On_74_Vel_104
Time_Shift_42
Note_On_78_Vel_0
Time_Shift_7
Note_On_74_Vel_0
Time_Shift_5
Note_On_86_Vel_0
Time_Shift_67
Note_On_62_Vel_99
Time_Shift_2
Note_On_84_Vel_94
Time_Shift_1
Note_On_81_Vel_100
Time_Shift_3
Note_On_74_Vel_98
Time_Shift_1
Note_On_78_Vel_83
Time_Shift_5
Note_On_74_Vel_0
Time_Shift_28
Note_On_62_Vel_0
Time_Shift_8
Note_On_81_Vel_0
Time_Shift_3
Note_On_84_Vel_0
Time_Shift_37
Note_On_78_Vel_0
Time_Shift_41
Note_On_82_Vel_104
Time_Shift_1
Note_On_67_Vel_100
Note_On_79_Vel_97
Time_Shift_7
Note_On_62_Vel_75
Time_Shift_5
Note_On_62_Vel_0
Time_Shift_28
Note_On_79_Vel_0
Time_Shift_8
Note_On_82_Vel_0
Time_Shift_4
Note_On_67_Vel_0
Time_Shift_71
Note_On_81_Vel_102
Note_On_72_Vel_100
Time_Shift_1
Note_On_78_Vel_98
Note_On_69_Vel_95
Time_Shift_5
Note_On_62_Vel_84
Time_Shift_14
Sustain_On
Time_Shift_105
Note_On_82_Vel_92
Time_Shift_3
Note_On_79_Vel_90
Time_Shift_2
Note_On_70_Vel_94
Time_Shift_2
Note_On_74_Vel_74
Time_Shift_1
Note_On_67_Vel_81
Time_Shift_10
Note_On_78_Vel_0
Time_Shift_7
Note_On_62_Vel_0
Time_Shift_1
Note_On_78_Vel_62
Time_Shift_6
Note_On_62_Vel_61
Time_Shift_59
Note_On_72_Vel_0
Time_Shift_2
Note_On_81_Vel_0
Note_On_62_Vel_0
Time_Shift_3
Note_On_78_Vel_0
Note_On_79_Vel_0
Note_On_69_Vel_0
Note_On_70_Vel_0
Time_Shift_1
Note_On_82_Vel_0
Note_On_67_Vel_0
Time_Shift_3
Sustain_Off
Time_Shift_10
Note_On_74_Vel_0
Time_Shift_20
Note_On_68_Vel_99
Time_Shift_6
Note_On_58_Vel_91
Note_On_74_Vel_95
Time_Shift_1
Note_On_77_Vel_90
Note_On_65_Vel_87
Time_Shift_27
Sustain_On
Time_Shift_99
Note_On_79_Vel_92
Note_On_77_Vel_0
Time_Shift_4
Note_On_67_Vel_93
Note_On_75_Vel_92
Time_Shift_1
Note_On_63_Vel_94
Time_Shift_4
Note_On_77_Vel_84
Time_Shift_87
Note_On_79_Vel_0
Time_Shift_1
Note_On_67_Vel_0
Time_Shift_1
Note_On_58_Vel_0
Note_On_63_Vel_0
Note_On_68_Vel_0
Sustain_Off
Time_Shift_1
Note_On_75_Vel_0
Note_On_77_Vel_0
Time_Shift_24
Note_On_65_Vel_0
Note_On_74_Vel_0
Time_Shift_4
Note_On_77_Vel_88
Time_Shift_1
Note_On_74_Vel_96
Note_On_65_Vel_91
Note_On_71_Vel_93
Time_Shift_2
Note_On_62_Vel_93
Time_Shift_32
Sustain_On
Time_Shift_7
Note_On_77_Vel_0
Time_Shift_87
Note_On_75_Vel_93
Time_Shift_2
Note_On_60_Vel_87
Time_Shift_1
Note_On_72_Vel_86
Time_Shift_1
Note_On_63_Vel_96
Time_Shift_1
Note_On_67_Vel_65
Time_Shift_107
Sustain_Off
Time_Shift_1
Note_On_65_Vel_0
Time_Shift_10
Note_On_75_Vel_0
Time_Shift_5
Note_On_60_Vel_0
Note_On_71_Vel_0
Note_On_74_Vel_0
Time_Shift_4
Note_On_66_Vel_97
Note_On_74_Vel_95
Time_Shift_3
Note_On_60_Vel_94
Time_Shift_1
Note_On_62_Vel_0
Note_On_67_Vel_0
Time_Shift_3
Note_On_57_Vel_97
Time_Shift_1
Note_On_50_Vel_75
Time_Shift_19
Sustain_On
Time_Shift_103
Note_On_70_Vel_101
Time_Shift_1
Note_On_67_Vel_84
Time_Shift_1
Note_On_58_Vel_95
Time_Shift_2
Note_On_55_Vel_78
Time_Shift_85
Note_On_63_Vel_0
Time_Shift_3
Note_On_74_Vel_0
Time_Shift_1
Note_On_67_Vel_0
Note_On_58_Vel_0
Note_On_60_Vel_0
Note_On_55_Vel_0
Note_On_70_Vel_0
Time_Shift_1
Sustain_Off
Time_Shift_3
Note_On_72_Vel_0
Time_Shift_15
Note_On_57_Vel_0
Time_Shift_8
Note_On_50_Vel_0
Note_On_66_Vel_0
Time_Shift_2
Note_On_69_Vel_95
Time_Shift_1
Note_On_57_Vel_99
Time_Shift_1
Note_On_66_Vel_93
Note_On_60_Vel_96
Time_Shift_2
Note_On_50_Vel_79
Time_Shift_17
Sustain_On
Time_Shift_108
Note_On_70_Vel_92
Time_Shift_3
Note_On_58_Vel_93
Note_On_67_Vel_80
Time_Shift_2
Note_On_55_Vel_85
Time_Shift_110
Note_On_69_Vel_0
Time_Shift_1
Note_On_67_Vel_0
Note_On_66_Vel_0
Note_On_50_Vel_0
Time_Shift_1
Note_On_70_Vel_0
Note_On_60_Vel_0
Time_Shift_1
Note_On_57_Vel_0
Note_On_58_Vel_0
Sustain_Off
Time_Shift_10
Note_On_62_Vel_95
Time_Shift_2
Note_On_53_Vel_89
Note_On_65_Vel_99
Time_Shift_1
Note_On_56_Vel_98
Note_On_46_Vel_90
Time_Shift_45
Sustain_On
Time_Shift_77
Note_On_55_Vel_0
Time_Shift_4
Note_On_55_Vel_94
Time_Shift_1
Note_On_63_Vel_93
Time_Shift_2
Note_On_51_Vel_97
Time_Shift_2
Note_On_43_Vel_79
Time_Shift_6
Note_On_43_Vel_0
Time_Shift_75
Note_On_46_Vel_0
Note_On_56_Vel_0
Time_Shift_1
Note_On_65_Vel_0
Note_On_62_Vel_0
Time_Shift_1
Note_On_63_Vel_0
Note_On_53_Vel_0
Note_On_51_Vel_0
Time_Shift_3
Sustain_Off
Time_Shift_20
Note_On_55_Vel_0
Time_Shift_17
Note_On_59_Vel_99
Time_Shift_1
Note_On_53_Vel_98
Note_On_50_Vel_95
Time_Shift_1
Note_On_62_Vel_98
Note_On_43_Vel_93
Time_Shift_19
Sustain_On
Time_Shift_100
Note_On_43_Vel_0
Time_Shift_7
Note_On_48_Vel_96
Time_Shift_1
Note_On_51_Vel_92
Time_Shift_2
Note_On_55_Vel_85
Time_Shift_1
Note_On_63_Vel_92
Note_On_60_Vel_91
Note_On_43_Vel_89
Time_Shift_1
Note_On_36_Vel_89
Time_Shift_42
Sustain_Off
Time_Shift_5
Note_On_59_Vel_0
Note_On_48_Vel_0
Note_On_60_Vel_0
Note_On_53_Vel_0
Time_Shift_1
Note_On_43_Vel_0
Note_On_51_Vel_0
Time_Shift_1
Note_On_55_Vel_0
Note_On_62_Vel_0
Time_Shift_2
Note_On_50_Vel_0
Time_Shift_2
Note_On_36_Vel_0
Note_On_63_Vel_0
Time_Shift_66
Note_On_50_Vel_100
Time_Shift_2
Note_On_43_Vel_98
Note_On_31_Vel_93
Time_Shift_1
Note_On_59_Vel_102
Time_Shift_2
Note_On_53_Vel_92
Time_Shift_10
Sustain_On
Time_Shift_115
Note_On_43_Vel_0
Time_Shift_2
Note_On_51_Vel_96
Time_Shift_2
Note_On_60_Vel_103
Time_Shift_1
Note_On_48_Vel_113
Time_Shift_3
Note_On_31_Vel_0
Time_Shift_2
Note_On_39_Vel_93
Time_Shift_1
Note_On_36_Vel_102
Time_Shift_1
Note_On_43_Vel_91
Time_Shift_1
Note_On_55_Vel_86
Time_Shift_2
Note_On_31_Vel_88
Time_Shift_46
Note_On_53_Vel_0
Time_Shift_2
Note_On_48_Vel_0
Sustain_Off
Time_Shift_1
Note_On_59_Vel_0
Note_On_60_Vel_0
Note_On_50_Vel_0
Time_Shift_1
Note_On_51_Vel_0
Note_On_31_Vel_0
Note_On_43_Vel_0
Time_Shift_1
Note_On_36_Vel_0
Time_Shift_19
Note_On_39_Vel_0
Note_On_55_Vel_0
Time_Shift_68
Note_On_74_Vel_97
Time_Shift_1
Note_On_71_Vel_87
Time_Shift_122
Note_On_48_Vel_110
Time_Shift_4
Note_On_36_Vel_103
Time_Shift_6
Note_On_75_Vel_96
Time_Shift_19
Note_On_74_Vel_0
Time_Shift_10
Note_On_71_Vel_0
Time_Shift_31
Sustain_On
Time_Shift_82
Note_On_86_Vel_98
Time_Shift_4
Note_On_83_Vel_94
Time_Shift_129
Note_On_87_Vel_101
Time_Shift_2
Note_On_84_Vel_89
Time_Shift_113
Note_On_48_Vel_0
Time_Shift_12
Note_On_98_Vel_109
Time_Shift_4
Note_On_95_Vel_93
Time_Shift_124
Note_On_99_Vel_98
Time_Shift_1
Note_On_43_Vel_97
Time_Shift_1
Note_On_31_Vel_97
Time_Shift_119
Note_On_86_Vel_0
Time_Shift_8
Note_On_83_Vel_0
Note_On_95_Vel_0
Time_Shift_2
Note_On_84_Vel_0
Note_On_86_Vel_93
Note_On_41_Vel_106
Time_Shift_2
Note_On_83_Vel_97
Note_On_29_Vel_100
Time_Shift_1
Note_On_95_Vel_90
Time_Shift_121
Note_On_98_Vel_0
Time_Shift_2
Note_On_95_Vel_0
Time_Shift_1
Note_On_29_Vel_0
Time_Shift_1
Note_On_41_Vel_0
Note_On_36_Vel_0
Note_On_86_Vel_0
Time_Shift_1
Note_On_87_Vel_0
Note_On_99_Vel_0
Note_On_43_Vel_0
Note_On_83_Vel_0
Time_Shift_1
Note_On_75_Vel_0
Time_Shift_2
Sustain_Off
Time_Shift_3
Note_On_39_Vel_108
Time_Shift_2
Note_On_87_Vel_97
Time_Shift_1
Note_On_27_Vel_107
Time_Shift_106
Sustain_On
Time_Shift_15
Note_On_87_Vel_0
Time_Shift_2
Note_On_74_Vel_100
Time_Shift_1
Note_On_71_Vel_96
Time_Shift_1
Note_On_67_Vel_77
Time_Shift_119
Note_On_39_Vel_0
Time_Shift_3
Note_On_72_Vel_95
Time_Shift_8
Note_On_41_Vel_104
Time_Shift_1
Note_On_29_Vel_95
Time_Shift_111
Note_On_27_Vel_0
Time_Shift_8
Note_On_31_Vel_0
Note_On_71_Vel_0
Time_Shift_3
Note_On_62_Vel_100
Time_Shift_1
Note_On_43_Vel_104
Time_Shift_1
Note_On_59_Vel_97
Note_On_31_Vel_92
Time_Shift_3
Note_On_71_Vel_90
Time_Shift_75
Note_On_74_Vel_0
Time_Shift_1
Note_On_71_Vel_0
Time_Shift_1
Note_On_29_Vel_0
Time_Shift_1
Note_On_43_Vel_0
Note_On_41_Vel_0
Note_On_59_Vel_0
Time_Shift_1
Sustain_Off
Note_On_31_Vel_0
Note_On_62_Vel_0
Time_Shift_5
Note_On_72_Vel_0
Time_Shift_23
Note_On_67_Vel_0
Time_Shift_26
Note_On_63_Vel_102
Note_On_44_Vel_108
Time_Shift_1
Note_On_32_Vel_89
Time_Shift_2
Note_On_68_Vel_73
Time_Shift_9
Note_On_68_Vel_0
Time_Shift_31
Sustain_On
Time_Shift_87
Note_On_71_Vel_100
Time_Shift_1
Note_On_74_Vel_104
Time_Shift_27
Sustain_Off
Time_Shift_15
Note_On_63_Vel_0
Time_Shift_4
Note_On_44_Vel_0
Time_Shift_2
Note_On_32_Vel_0
Note_On_71_Vel_0
Time_Shift_6
Note_On_74_Vel_0
Time_Shift_92
Note_On_75_Vel_93
Time_Shift_4
Note_On_42_Vel_111
Note_On_30_Vel_105
Note_On_63_Vel_87
Time_Shift_1
Note_On_72_Vel_91
Time_Shift_2
Note_On_69_Vel_67
Time_Shift_74
Sustain_On
Time_Shift_69
Note_On_63_Vel_0
Note_On_69_Vel_0
Note_On_72_Vel_0
Time_Shift_6
Note_On_63_Vel_107
Time_Shift_1
Note_On_72_Vel_97
Time_Shift_3
Note_On_69_Vel_82
Time_Shift_48
Note_On_72_Vel_0
Time_Shift_2
Note_On_69_Vel_0
Note_On_63_Vel_0
Time_Shift_6
Note_On_42_Vel_0
Time_Shift_5
Sustain_Off
Time_Shift_6
Note_On_75_Vel_0
Time_Shift_15
Note_On_30_Vel_0
Time_Shift_94
Note_On_62_Vel_108
Time_Shift_1
Note_On_71_Vel_103
Time_Shift_1
Note_On_67_Vel_102
Time_Shift_1
Note_On_31_Vel_103
Note_On_43_Vel_105
Time_Shift_35
Note_On_67_Vel_0
Time_Shift_1
Note_On_62_Vel_0
Note_On_71_Vel_0
Time_Shift_28
Note_On_43_Vel_0
Time_Shift_121
Note_On_67_Vel_84
Note_On_69_Vel_67
Time_Shift_8
Note_On_65_Vel_77
Time_Shift_2
Note_On_62_Vel_71
Time_Shift_4
Note_On_71_Vel_62
Time_Shift_50
Note_On_31_Vel_0
Note_On_67_Vel_0
Note_On_71_Vel_0
Time_Shift_7
Note_On_69_Vel_0
Time_Shift_16
Note_On_65_Vel_0
Time_Shift_5
Note_On_67_Vel_74
Time_Shift_2
Note_On_62_Vel_0
Time_Shift_2
Note_On_43_Vel_75
Time_Shift_1
Note_On_65_Vel_80
Note_On_31_Vel_78
Time_Shift_1
Note_On_62_Vel_73
Time_Shift_32
Note_On_65_Vel_0
Time_Shift_87
Note_On_67_Vel_0
Time_Shift_5
Note_On_60_Vel_70
Time_Shift_3
Note_On_67_Vel_66
Time_Shift_15
Note_On_62_Vel_0
Time_Shift_5
Note_On_62_Vel_57
Time_Shift_11
Note_On_31_Vel_0
Time_Shift_7
Note_On_43_Vel_0
Time_Shift_16
Note_On_60_Vel_0
Time_Shift_23
Note_On_62_Vel_0
Time_Shift_63
Note_On_59_Vel_76
Note_On_43_Vel_66
Time_Shift_1
Note_On_31_Vel_61
Time_Shift_1
Note_On_62_Vel_70
Time_Shift_30
Note_On_59_Vel_0
Time_Shift_20
Note_On_31_Vel_0
Time_Shift_15
Note_On_62_Vel_0
Time_Shift_65
Note_On_65_Vel_73
Time_Shift_1
Note_On_62_Vel_68
Time_Shift_30
Note_On_62_Vel_0
Time_Shift_1
Note_On_65_Vel_0
Time_Shift_18
Note_On_43_Vel_0
Note_On_67_Vel_0
Time_Shift_90
Note_On_67_Vel_71
Time_Shift_1
Note_On_62_Vel_74
Time_Shift_2
Note_On_65_Vel_65
Time_Shift_2
Note_On_31_Vel_54
Time_Shift_5
Note_On_59_Vel_51
Time_Shift_20
Note_On_65_Vel_0
Note_On_62_Vel_0
Time_Shift_14
Note_On_59_Vel_0
Time_Shift_58
Note_On_31_Vel_0
Time_Shift_33
Note_On_62_Vel_75
Time_Shift_3
Note_On_59_Vel_69
Time_Shift_23
Note_On_62_Vel_0
Time_Shift_4
Note_On_67_Vel_0
Time_Shift_22
Note_On_59_Vel_0
Time_Shift_65
Note_On_43_Vel_74
Time_Shift_13
Note_On_60_Vel_71
Time_Shift_2
Note_On_64_Vel_66
Time_Shift_16
Note_On_43_Vel_0
Time_Shift_7
Note_On_64_Vel_0
Time_Shift_20
Note_On_60_Vel_0
Time_Shift_67
Note_On_67_Vel_93
Time_Shift_22
Note_On_67_Vel_0
Time_Shift_61
Note_On_77_Vel_75
Note_On_79_Vel_78
Time_Shift_46
Note_On_81_Vel_80
Time_Shift_27
Note_On_79_Vel_0
Time_Shift_1
Note_On_67_Vel_89
Time_Shift_6
Note_On_77_Vel_0
Time_Shift_4
Note_On_79_Vel_95
Time_Shift_1
Note_On_77_Vel_87
Time_Shift_5
Note_On_74_Vel_86
Time_Shift_16
Note_On_81_Vel_0
Time_Shift_108
Note_On_76_Vel_74
Time_Shift_1
Note_On_72_Vel_80
Time_Shift_57
Note_On_77_Vel_0
Time_Shift_16
Note_On_74_Vel_0
Time_Shift_65
Note_On_71_Vel_81
Time_Shift_3
Note_On_74_Vel_64
Time_Shift_3
Note_On_55_Vel_65
Time_Shift_13
Note_On_72_Vel_0
Time_Shift_13
Note_On_71_Vel_0
Time_Shift_2
Note_On_76_Vel_0
Time_Shift_4
Note_On_74_Vel_0
Time_Shift_12
Note_On_67_Vel_0
Time_Shift_7
Note_On_79_Vel_0
Time_Shift_78
Note_On_77_Vel_77
Time_Shift_4
Note_On_74_Vel_71
Time_Shift_18
Note_On_55_Vel_0
Time_Shift_5
Note_On_71_Vel_48
Time_Shift_1
Note_On_77_Vel_0
Time_Shift_37
Note_On_71_Vel_0
Time_Shift_11
Note_On_74_Vel_0
Time_Shift_66
Note_On_79_Vel_81
Time_Shift_2
Note_On_77_Vel_79
Time_Shift_7
Note_On_43_Vel_73
Time_Shift_12
Note_On_74_Vel_63
Time_Shift_17
Note_On_77_Vel_0
Time_Shift_80
Note_On_74_Vel_0
Time_Shift_8
Note_On_74_Vel_73
Time_Shift_9
Note_On_71_Vel_76
Time_Shift_26
Note_On_74_Vel_0
Time_Shift_2
Note_On_71_Vel_0
Time_Shift_10
Note_On_79_Vel_0
Time_Shift_76
Note_On_43_Vel_0
Time_Shift_17
Note_On_72_Vel_86
Time_Shift_1
Note_On_55_Vel_63
Time_Shift_2
Note_On_76_Vel_67
Time_Shift_23
Note_On_72_Vel_0
Time_Shift_3
Note_On_76_Vel_0
Time_Shift_31
Note_On_55_Vel_0
Time_Shift_52
Note_On_79_Vel_94
Time_Shift_29
Note_On_79_Vel_0
Time_Shift_38
Note_On_89_Vel_86
Time_Shift_6
Note_On_91_Vel_88
Time_Shift_34
Note_On_93_Vel_90
Time_Shift_17
Sustain_On
Time_Shift_23
Note_On_91_Vel_0
Time_Shift_5
Note_On_91_Vel_93
Time_Shift_3
Note_On_89_Vel_0
Time_Shift_1
Note_On_79_Vel_83
Time_Shift_3
Note_On_86_Vel_95
Time_Shift_1
Note_On_89_Vel_87
Time_Shift_3
Note_On_79_Vel_0
Time_Shift_22
Sustain_Off
Time_Shift_24
Note_On_86_Vel_0
Time_Shift_8
Note_On_89_Vel_0
Time_Shift_15
Note_On_91_Vel_0
Time_Shift_15
Note_On_93_Vel_0
Time_Shift_27
Note_On_88_Vel_88
Note_On_84_Vel_85
Time_Shift_14
Note_On_86_Vel_78
Time_Shift_11
Note_On_84_Vel_0
Time_Shift_6
Note_On_88_Vel_0
Time_Shift_104
Note_On_86_Vel_0
Time_Shift_4
Note_On_86_Vel_87
Time_Shift_4
Note_On_83_Vel_82
Time_Shift_10
Note_On_67_Vel_64
Time_Shift_35
Note_On_83_Vel_0
Time_Shift_8
Note_On_67_Vel_0
Time_Shift_8
Note_On_86_Vel_0
Time_Shift_72
Note_On_89_Vel_91
Note_On_86_Vel_88
Time_Shift_27
Note_On_86_Vel_0
Time_Shift_6
Note_On_89_Vel_0
Time_Shift_100
Note_On_91_Vel_89
Time_Shift_5
Note_On_89_Vel_87
Time_Shift_1
Note_On_86_Vel_86
Time_Shift_30
Note_On_55_Vel_52
Time_Shift_5
Note_On_91_Vel_0
Time_Shift_4
Note_On_86_Vel_0
Time_Shift_5
Note_On_89_Vel_0
Time_Shift_88
Note_On_86_Vel_85
Time_Shift_5
Note_On_83_Vel_76
Time_Shift_23
Note_On_83_Vel_0
Time_Shift_20
Note_On_86_Vel_0
Time_Shift_93
Note_On_55_Vel_0
Time_Shift_1
Note_On_96_Vel_104
Time_Shift_11
Note_On_87_Vel_89
Note_On_84_Vel_86
Time_Shift_16
Note_On_56_Vel_53
Time_Shift_33
Sustain_On
Time_Shift_307
Note_On_84_Vel_0
Time_Shift_6
Note_On_84_Vel_78
Time_Shift_8
Note_On_75_Vel_60
Time_Shift_3
Note_On_72_Vel_62
Time_Shift_3
Note_On_63_Vel_54
Time_Shift_118
Note_On_80_Vel_85
Time_Shift_139
Note_On_80_Vel_0
Time_Shift_9
Note_On_80_Vel_91
Time_Shift_21
Note_On_63_Vel_0
Note_On_75_Vel_0
Time_Shift_1
Sustain_Off
Time_Shift_4
Note_On_56_Vel_0
Time_Shift_2
Note_On_63_Vel_63
Time_Shift_1
Note_On_72_Vel_0
Time_Shift_3
Note_On_75_Vel_58
Time_Shift_1
Note_On_72_Vel_57
Time_Shift_34
Sustain_On
Time_Shift_77
Note_On_79_Vel_86
Note_On_75_Vel_0
Time_Shift_9
Note_On_75_Vel_55
Time_Shift_122
Note_On_79_Vel_0
Time_Shift_10
Note_On_79_Vel_79
Time_Shift_21
Note_On_72_Vel_0
Note_On_75_Vel_0
Time_Shift_3
Note_On_72_Vel_62
Time_Shift_1
Note_On_75_Vel_67
Time_Shift_14
Note_On_57_Vel_51
Time_Shift_66
Note_On_96_Vel_0
Time_Shift_32
Note_On_78_Vel_90
Time_Shift_137
Note_On_78_Vel_0
Time_Shift_6
Note_On_78_Vel_82
Time_Shift_16
Note_On_57_Vel_0
Time_Shift_1
Note_On_74_Vel_68
Time_Shift_2
Note_On_75_Vel_0
Note_On_63_Vel_0
Note_On_72_Vel_0
Time_Shift_1
Note_On_79_Vel_0
Time_Shift_4
Note_On_62_Vel_62
Time_Shift_1
Note_On_80_Vel_0
Note_On_87_Vel_0
Time_Shift_3
Sustain_Off
Time_Shift_1
Note_On_59_Vel_55
Time_Shift_3
Note_On_84_Vel_0
Time_Shift_54
Sustain_On
Time_Shift_45
Note_On_79_Vel_84
Time_Shift_1
Note_On_74_Vel_0
Time_Shift_9
Note_On_74_Vel_54
Note_On_67_Vel_69
Time_Shift_122
Note_On_79_Vel_0
Time_Shift_8
Note_On_79_Vel_75
Time_Shift_7
Note_On_67_Vel_0
Time_Shift_11
Note_On_67_Vel_73
Time_Shift_14
Note_On_62_Vel_0
Note_On_74_Vel_0
Note_On_59_Vel_0
Time_Shift_3
Sustain_Off
Time_Shift_11
Note_On_78_Vel_0
Note_On_47_Vel_49
Time_Shift_3
Note_On_50_Vel_44
Time_Shift_27
Sustain_On
Time_Shift_60
Note_On_77_Vel_79
Time_Shift_5
Note_On_74_Vel_66
Time_Shift_127
Note_On_77_Vel_0
Time_Shift_11
Note_On_77_Vel_79
Time_Shift_16
Note_On_48_Vel_60
Time_Shift_4
Note_On_72_Vel_61
Time_Shift_10
Note_On_47_Vel_0
Time_Shift_1
Note_On_74_Vel_0
Time_Shift_1
Note_On_50_Vel_0
Time_Shift_2
Sustain_Off
Time_Shift_9
Note_On_79_Vel_0
Time_Shift_15
Note_On_67_Vel_0
Time_Shift_46
Sustain_On
Time_Shift_33
Note_On_76_Vel_77
Time_Shift_2
Note_On_67_Vel_60
Time_Shift_142
Note_On_76_Vel_0
Time_Shift_6
Note_On_76_Vel_73
Time_Shift_2
Note_On_67_Vel_0
Time_Shift_4
Note_On_67_Vel_61
Time_Shift_11
Note_On_72_Vel_0
Time_Shift_5
Note_On_72_Vel_50
Time_Shift_10
Note_On_55_Vel_41
Time_Shift_108
Note_On_72_Vel_0
Time_Shift_10
Note_On_72_Vel_67
Time_Shift_3
Note_On_75_Vel_68
Time_Shift_109
Note_On_41_Vel_58
Time_Shift_32
Note_On_75_Vel_0
Time_Shift_5
Note_On_75_Vel_71
Time_Shift_2
Note_On_72_Vel_0
Time_Shift_1
Note_On_67_Vel_0
Time_Shift_1
Note_On_76_Vel_0
Note_On_77_Vel_0
Time_Shift_1
Note_On_55_Vel_0
Note_On_48_Vel_0
Time_Shift_1
Sustain_Off
Time_Shift_1
Note_On_72_Vel_61
Time_Shift_2
Note_On_65_Vel_65
Time_Shift_34
Note_On_53_Vel_64
Time_Shift_21
Sustain_On
Time_Shift_59
Note_On_73_Vel_82
Time_Shift_3
Note_On_68_Vel_69
Time_Shift_134
Note_On_78_Vel_90
Time_Shift_3
Note_On_68_Vel_0
Note_On_73_Vel_0
Time_Shift_4
Note_On_68_Vel_75
Time_Shift_7
Note_On_73_Vel_67
Time_Shift_5
Note_On_75_Vel_0
Time_Shift_6
Note_On_75_Vel_55
Time_Shift_8
Note_On_56_Vel_61
Time_Shift_101
Note_On_73_Vel_0
Time_Shift_4
Note_On_77_Vel_86
Time_Shift_1
Note_On_73_Vel_81
Time_Shift_161
Note_On_82_Vel_91
Time_Shift_18
Note_On_77_Vel_0
Time_Shift_8
Note_On_72_Vel_0
Time_Shift_1
Note_On_77_Vel_64
Time_Shift_3
Note_On_78_Vel_0
Note_On_73_Vel_0
Note_On_56_Vel_0
Time_Shift_1
Note_On_72_Vel_57
Sustain_Off
Note_On_75_Vel_0
Time_Shift_2
Note_On_68_Vel_0
Time_Shift_1
Note_On_41_Vel_0
Note_On_53_Vel_0
Time_Shift_5
Note_On_53_Vel_46
Time_Shift_71
Sustain_On
Time_Shift_27
Note_On_73_Vel_80
Time_Shift_1
Note_On_80_Vel_73
Time_Shift_126
Note_On_77_Vel_0
Time_Shift_7
Note_On_77_Vel_79
Time_Shift_6
Note_On_68_Vel_62
Time_Shift_2
Note_On_73_Vel_0
Time_Shift_5
Note_On_73_Vel_61
Time_Shift_8
Note_On_61_Vel_61
Time_Shift_110
Note_On_73_Vel_0
Time_Shift_10
Note_On_73_Vel_83
Time_Shift_6
Note_On_65_Vel_0
Time_Shift_7
Note_On_65_Vel_56
Time_Shift_92
Note_On_72_Vel_0
Time_Shift_1
Note_On_53_Vel_0
Time_Shift_6
Note_On_65_Vel_0
Time_Shift_1
Note_On_68_Vel_0
Time_Shift_11
Note_On_80_Vel_0
Time_Shift_1
Sustain_Off
Note_On_61_Vel_0
Time_Shift_7
Note_On_77_Vel_0
Time_Shift_4
Note_On_82_Vel_0
Time_Shift_5
Note_On_73_Vel_0
Time_Shift_24
Note_On_72_Vel_63
Time_Shift_11
Note_On_63_Vel_51
Time_Shift_1
Note_On_55_Vel_41
Time_Shift_1
Note_On_60_Vel_47
Time_Shift_1
Note_On_67_Vel_46
Time_Shift_134
Sustain_On
Time_Shift_4
Note_On_73_Vel_65
Time_Shift_135
Note_On_74_Vel_60
Time_Shift_115
Note_On_75_Vel_69
Time_Shift_153
Note_On_75_Vel_0
Time_Shift_10
Note_On_75_Vel_60
Time_Shift_20
Note_On_43_Vel_43
Time_Shift_23
Note_On_55_Vel_0
Time_Shift_1
Note_On_72_Vel_0
Time_Shift_1
Note_On_63_Vel_0
Time_Shift_1
Note_On_60_Vel_0
Note_On_67_Vel_0
Sustain_Off
Time_Shift_1
Note_On_65_Vel_62
Note_On_73_Vel_0
Note_On_74_Vel_0
Time_Shift_94
Note_On_45_Vel_53
Time_Shift_56
Sustain_On
Time_Shift_65
Note_On_46_Vel_58
Time_Shift_170
Note_On_47_Vel_54
Time_Shift_2
Note_On_74_Vel_70
Time_Shift_150
Note_On_67_Vel_67
Time_Shift_1
Note_On_72_Vel_65
Time_Shift_1
Note_On_60_Vel_67
Time_Shift_5
Note_On_63_Vel_62
Time_Shift_1
Note_On_48_Vel_62
Time_Shift_22
Note_On_65_Vel_0
Time_Shift_1
Note_On_47_Vel_0
Note_On_45_Vel_0
Time_Shift_1
Note_On_74_Vel_0
Note_On_46_Vel_0
Time_Shift_1
Note_On_67_Vel_0
Time_Shift_4
Sustain_Off
Time_Shift_6
Note_On_43_Vel_0
Note_On_75_Vel_0
Time_Shift_37
Note_On_63_Vel_0
Time_Shift_17
Note_On_72_Vel_0
Time_Shift_15
Note_On_60_Vel_0
Time_Shift_10
Note_On_48_Vel_0
Time_Shift_10
Note_On_61_Vel_90
Time_Shift_73
Sustain_On
Time_Shift_49
Note_On_62_Vel_91
Time_Shift_119
Note_On_63_Vel_94
Time_Shift_111
Note_On_61_Vel_0
Note_On_62_Vel_0
Time_Shift_1
Note_On_63_Vel_0
Time_Shift_8
Sustain_Off
Time_Shift_7
Note_On_84_Vel_99
Time_Shift_1
Note_On_72_Vel_99
Time_Shift_1
Note_On_75_Vel_99
Time_Shift_1
Note_On_56_Vel_103
Time_Shift_1
Note_On_44_Vel_98
Time_Shift_31
Sustain_On
Time_Shift_88
Note_On_73_Vel_92
Time_Shift_124
Note_On_72_Vel_0
Note_On_74_Vel_89
Note_On_60_Vel_90
Time_Shift_1
Note_On_63_Vel_84
Time_Shift_5
Note_On_51_Vel_84
Time_Shift_97
Note_On_75_Vel_0
Time_Shift_5
Note_On_75_Vel_94
Time_Shift_113
Note_On_74_Vel_0
Note_On_73_Vel_0
Note_On_75_Vel_0
Note_On_56_Vel_0
Time_Shift_1
Note_On_60_Vel_0
Note_On_63_Vel_0
Time_Shift_2
Sustain_Off
Time_Shift_9
Note_On_44_Vel_0
Note_On_51_Vel_0
Note_On_84_Vel_0
Time_Shift_8
Note_On_84_Vel_104
Time_Shift_1
Note_On_96_Vel_103
Note_On_51_Vel_108
Time_Shift_3
Note_On_87_Vel_97
Note_On_39_Vel_97
Time_Shift_27
Sustain_On
Time_Shift_89
Note_On_85_Vel_89
Time_Shift_116
Note_On_86_Vel_96
Time_Shift_2
Note_On_39_Vel_0
Time_Shift_6
Note_On_63_Vel_96
Time_Shift_1
Note_On_60_Vel_83
Time_Shift_3
Note_On_55_Vel_88
Time_Shift_98
Note_On_87_Vel_0
Time_Shift_4
Note_On_87_Vel_98
Time_Shift_113
Note_On_96_Vel_0
Note_On_60_Vel_0
Time_Shift_1
Note_On_63_Vel_0
Note_On_85_Vel_0
Note_On_87_Vel_0
Sustain_Off
Note_On_86_Vel_0
Note_On_55_Vel_0
Time_Shift_4
Note_On_51_Vel_0
Note_On_84_Vel_0
Time_Shift_9
Note_On_84_Vel_104
Time_Shift_1
Note_On_72_Vel_108
Time_Shift_1
Note_On_53_Vel_107
Time_Shift_1
Note_On_41_Vel_101
Time_Shift_2
Note_On_75_Vel_99
Time_Shift_40
Sustain_On
Time_Shift_2
Note_On_53_Vel_0
Time_Shift_2
Note_On_84_Vel_0
Time_Shift_69
Note_On_73_Vel_93
Time_Shift_115
Note_On_63_Vel_100
Note_On_74_Vel_95
Note_On_60_Vel_78
Time_Shift_4
Note_On_56_Vel_86
Time_Shift_92
Note_On_75_Vel_0
Time_Shift_11
Note_On_75_Vel_99
Time_Shift_79
Note_On_73_Vel_0
Note_On_72_Vel_0
Note_On_56_Vel_0
Time_Shift_1
Note_On_74_Vel_0
Time_Shift_1
Note_On_63_Vel_0
Time_Shift_10
Sustain_Off
Time_Shift_6
Note_On_41_Vel_0
Note_On_75_Vel_0
Time_Shift_8
Note_On_60_Vel_0
Time_Shift_30
Note_On_54_Vel_106
Time_Shift_1
Note_On_84_Vel_109
Time_Shift_2
Note_On_42_Vel_105
Time_Shift_1
Note_On_87_Vel_101
Time_Shift_12
Sustain_On
Time_Shift_112
Note_On_85_Vel_101
Time_Shift_113
Note_On_86_Vel_96
Time_Shift_2
Note_On_63_Vel_90
Time_Shift_1
Note_On_60_Vel_88
Time_Shift_1
Note_On_57_Vel_77
Time_Shift_93
Note_On_87_Vel_0
Time_Shift_6
Note_On_87_Vel_100
Time_Shift_109
Note_On_84_Vel_0
Note_On_87_Vel_0
Time_Shift_7
Note_On_87_Vel_97
Time_Shift_1
Note_On_57_Vel_0
Note_On_60_Vel_0
Note_On_63_Vel_0
Time_Shift_3
Note_On_84_Vel_106
Note_On_96_Vel_103
Time_Shift_2
Note_On_66_Vel_93
Time_Shift_1
Note_On_63_Vel_90
Note_On_57_Vel_76
Time_Shift_5
Note_On_60_Vel_82
Time_Shift_89
Note_On_85_Vel_0
Time_Shift_10
Note_On_85_Vel_100
Time_Shift_113
Note_On_60_Vel_0
Note_On_63_Vel_0
Note_On_66_Vel_0
Note_On_86_Vel_0
Time_Shift_9
Note_On_86_Vel_101
Time_Shift_1
Note_On_69_Vel_90
Time_Shift_1
Note_On_66_Vel_85
Note_On_60_Vel_85
Note_On_63_Vel_84
Time_Shift_96
Note_On_84_Vel_0
Note_On_87_Vel_0
Time_Shift_7
Note_On_84_Vel_76
Time_Shift_1
Note_On_87_Vel_104
Time_Shift_108
Note_On_60_Vel_0
Note_On_66_Vel_0
Note_On_69_Vel_0
Note_On_84_Vel_0
Note_On_96_Vel_0
Time_Shift_7
Note_On_72_Vel_104
Note_On_63_Vel_0
Time_Shift_1
Note_On_84_Vel_107
Note_On_69_Vel_94
Time_Shift_1
Note_On_96_Vel_100
Time_Shift_1
Note_On_66_Vel_86
Time_Shift_1
Note_On_60_Vel_79
Note_On_63_Vel_82
Time_Shift_88
Note_On_85_Vel_0
Time_Shift_10
Note_On_85_Vel_104
Time_Shift_1
Note_On_97_Vel_90
Time_Shift_112
Note_On_60_Vel_0
Note_On_63_Vel_0
Note_On_66_Vel_0
Note_On_69_Vel_0
Note_On_86_Vel_0
Time_Shift_5
Note_On_69_Vel_101
Note_On_60_Vel_86
Note_On_86_Vel_104
Time_Shift_1
Note_On_66_Vel_85
Time_Shift_5
Note_On_63_Vel_84
Time_Shift_1
Note_On_57_Vel_0
Time_Shift_88
Note_On_87_Vel_0
Time_Shift_11
Note_On_87_Vel_101
Time_Shift_112
Note_On_84_Vel_0
Note_On_87_Vel_0
Note_On_96_Vel_0
Time_Shift_7
Note_On_96_Vel_103
Time_Shift_1
Note_On_66_Vel_0
Note_On_69_Vel_0
Note_On_72_Vel_0
Time_Shift_1
Note_On_84_Vel_110
Time_Shift_1
Note_On_87_Vel_101
Time_Shift_2
Note_On_66_Vel_80
Time_Shift_2
Note_On_69_Vel_85
Time_Shift_2
Note_On_75_Vel_103
Time_Shift_3
Note_On_72_Vel_93
Time_Shift_88
Note_On_85_Vel_0
Note_On_97_Vel_0
Time_Shift_7
Note_On_85_Vel_106
Time_Shift_1
Note_On_97_Vel_89
Time_Shift_108
Note_On_86_Vel_0
Time_Shift_7
Note_On_72_Vel_0
Time_Shift_4
Note_On_86_Vel_103
Time_Shift_3
Note_On_78_Vel_101
Time_Shift_1
Note_On_69_Vel_0
Note_On_75_Vel_0
Time_Shift_3
Note_On_72_Vel_90
Time_Shift_3
Note_On_69_Vel_81
Time_Shift_3
Note_On_75_Vel_84
Time_Shift_83
Note_On_87_Vel_0
Note_On_96_Vel_0
Time_Shift_6
Note_On_87_Vel_101
Time_Shift_3
Note_On_96_Vel_69
Time_Shift_72
Note_On_78_Vel_0
Note_On_69_Vel_0
Note_On_72_Vel_0
Note_On_60_Vel_0
Note_On_97_Vel_0
Time_Shift_1
Note_On_96_Vel_0
Note_On_66_Vel_0
Note_On_75_Vel_0
Time_Shift_6
Sustain_Off
Time_Shift_4
Note_On_42_Vel_0
Note_On_54_Vel_0
Time_Shift_8
Note_On_63_Vel_0
Note_On_85_Vel_0
Note_On_86_Vel_0
Time_Shift_15
Note_On_84_Vel_0
Note_On_87_Vel_0
Time_Shift_4
Note_On_79_Vel_110
Time_Shift_1
Note_On_91_Vel_101
Note_On_87_Vel_100
Note_On_84_Vel_106
Time_Shift_1
Note_On_96_Vel_101
Time_Shift_1
Note_On_75_Vel_101
Note_On_67_Vel_95
Time_Shift_2
Note_On_72_Vel_101
Time_Shift_30
Sustain_On
Time_Shift_74
Note_On_83_Vel_100
Time_Shift_2
Note_On_95_Vel_87
Time_Shift_39
Note_On_96_Vel_0
Time_Shift_2
Sustain_Off
Note_On_72_Vel_0
Time_Shift_1
Note_On_84_Vel_0
Time_Shift_1
Note_On_75_Vel_0
Time_Shift_1
Note_On_83_Vel_0
Note_On_87_Vel_0
Time_Shift_3
Note_On_91_Vel_0
Note_On_95_Vel_0
Time_Shift_7
Note_On_67_Vel_0
Note_On_79_Vel_0
Time_Shift_46
Note_On_82_Vel_102
Time_Shift_2
Note_On_94_Vel_75
Time_Shift_6
Note_On_94_Vel_0
Time_Shift_24
Note_On_82_Vel_0
Time_Shift_75
Note_On_80_Vel_98
Time_Shift_43
Note_On_80_Vel_0
Time_Shift_67
Note_On_75_Vel_101
Note_On_79_Vel_106
Note_On_84_Vel_102
Time_Shift_39
Note_On_75_Vel_0
Time_Shift_2
Note_On_79_Vel_0
Time_Shift_6
Note_On_84_Vel_0
Time_Shift_52
Note_On_78_Vel_103
Time_Shift_1
Note_On_83_Vel_99
Time_Shift_32
Note_On_78_Vel_0
Time_Shift_6
Note_On_83_Vel_0
Time_Shift_71
Note_On_77_Vel_98
Note_On_82_Vel_97
Time_Shift_1
Note_On_74_Vel_91
Time_Shift_33
Note_On_74_Vel_0
Time_Shift_3
Note_On_77_Vel_0
Time_Shift_2
Note_On_82_Vel_0
Time_Shift_62
Note_On_81_Vel_100
Time_Shift_1
Note_On_76_Vel_102
Time_Shift_5
Note_On_73_Vel_95
Time_Shift_26
Note_On_73_Vel_0
Time_Shift_1
Note_On_76_Vel_0
Time_Shift_3
Note_On_81_Vel_0
Time_Shift_64
Note_On_75_Vel_95
Time_Shift_3
Note_On_72_Vel_94
Time_Shift_1
Note_On_80_Vel_87
Time_Shift_26
Note_On_72_Vel_0
Time_Shift_2
Note_On_75_Vel_0
Note_On_80_Vel_0
Time_Shift_73
Note_On_79_Vel_99
Note_On_74_Vel_96
Time_Shift_1
Note_On_71_Vel_94
Time_Shift_23
Note_On_74_Vel_0
Time_Shift_1
Note_On_71_Vel_0
Time_Shift_19
Note_On_79_Vel_0
Time_Shift_55
Note_On_78_Vel_96
Time_Shift_1
Note_On_73_Vel_95
Time_Shift_1
Note_On_70_Vel_99
Time_Shift_18
Note_On_78_Vel_0
Time_Shift_2
Note_On_73_Vel_0
Time_Shift_3
Note_On_70_Vel_0
Time_Shift_71
Note_On_69_Vel_97
Time_Shift_1
Note_On_77_Vel_97
Note_On_72_Vel_98
Time_Shift_23
Note_On_77_Vel_0
Note_On_69_Vel_0
Note_On_72_Vel_0
Time_Shift_81
Note_On_76_Vel_101
Note_On_68_Vel_99
Time_Shift_1
Note_On_71_Vel_96
Time_Shift_31
Note_On_68_Vel_0
Note_On_71_Vel_0
Time_Shift_1
Note_On_76_Vel_0
Time_Shift_66
Note_On_67_Vel_100
Note_On_75_Vel_85
Note_On_70_Vel_100
Time_Shift_29
Note_On_67_Vel_0
Time_Shift_11
Note_On_70_Vel_0
Time_Shift_12
Note_On_75_Vel_0
Time_Shift_55
Note_On_69_Vel_97
Time_Shift_1
Note_On_66_Vel_98
Time_Shift_1
Note_On_74_Vel_90
Time_Shift_32
Note_On_66_Vel_0
Note_On_69_Vel_0
Note_On_74_Vel_0
Time_Shift_68
Note_On_68_Vel_94
Note_On_73_Vel_94
Time_Shift_1
Note_On_65_Vel_99
Time_Shift_28
Note_On_73_Vel_0
Time_Shift_1
Note_On_68_Vel_0
Time_Shift_21
Note_On_65_Vel_0
Time_Shift_60
Note_On_67_Vel_99
Time_Shift_1
Note_On_72_Vel_103
Time_Shift_3
Note_On_64_Vel_96
Time_Shift_26
Note_On_67_Vel_0
Time_Shift_4
Note_On_64_Vel_0
Time_Shift_1
Note_On_72_Vel_0
Time_Shift_207
Note_On_72_Vel_84
Note_On_63_Vel_100
Time_Shift_1
Note_On_67_Vel_87
Time_Shift_24
Note_On_67_Vel_0
Time_Shift_5
Note_On_63_Vel_0
Time_Shift_1
Note_On_72_Vel_0
Time_Shift_224
Note_On_65_Vel_81
Note_On_71_Vel_76
Note_On_62_Vel_84
Time_Shift_28
Note_On_71_Vel_0
Time_Shift_1
Note_On_62_Vel_0
Time_Shift_1
Note_On_65_Vel_0
Time_Shift_248
Note_On_68_Vel_73
Time_Shift_4
Note_On_63_Vel_72
Time_Shift_4
Note_On_60_Vel_67
Time_Shift_29
Note_On_60_Vel_0
Time_Shift_2
Note_On_63_Vel_0
Time_Shift_1
Note_On_68_Vel_0
Time_Shift_318
Note_On_67_Vel_52
Time_Shift_1
Note_On_59_Vel_55
Note_On_62_Vel_51
Time_Shift_45
Note_On_59_Vel_0
Time_Shift_8
Note_On_62_Vel_0
Time_Shift_16
Note_On_67_Vel_0
Time_Shift_782
Note_On_53_Vel_29
Time_Shift_1
Note_On_50_Vel_30
Time_Shift_5
Note_On_59_Vel_32
Note_On_55_Vel_28
Time_Shift_3
Note_On_43_Vel_32
Time_Shift_65
Sustain_On
Time_Shift_69
Sustain_Off
Time_Shift_10
Note_On_50_Vel_0
Time_Shift_9
Note_On_53_Vel_0
Time_Shift_35
Note_On_59_Vel_0
Time_Shift_353
Note_On_55_Vel_0
Time_Shift_69
Note_On_43_Vel_0
Time_Shift_950
Note_On_60_Vel_30
Time_Shift_54
Note_On_60_Vel_0
Time_Shift_29
Note_On_62_Vel_45
Time_Shift_56
Note_On_62_Vel_0
Time_Shift_36
Note_On_60_Vel_53
Time_Shift_163
Note_On_59_Vel_59
Time_Shift_10
Note_On_60_Vel_0
Time_Shift_100
Sustain_On
Time_Shift_38
Note_On_60_Vel_52
Time_Shift_33
Note_On_59_Vel_0
Time_Shift_126
Note_On_62_Vel_61
Time_Shift_152
Note_On_63_Vel_66
Time_Shift_127
Note_On_55_Vel_61
Time_Shift_153
Note_On_56_Vel_60
Time_Shift_139
Note_On_55_Vel_0
Time_Shift_8
Note_On_55_Vel_58
Time_Shift_80
Note_On_48_Vel_51
Time_Shift_60
Note_On_50_Vel_50
Time_Shift_33
Note_On_54_Vel_65
Time_Shift_50
Note_On_48_Vel_0
Time_Shift_11
Note_On_48_Vel_51
Time_Shift_42
Note_On_62_Vel_0
Time_Shift_16
Note_On_56_Vel_0
Time_Shift_15
Note_On_55_Vel_0
Time_Shift_4
Note_On_63_Vel_0
Note_On_55_Vel_68
Time_Shift_4
Note_On_48_Vel_0
Note_On_60_Vel_0
Time_Shift_3
Note_On_54_Vel_0
Time_Shift_4
Note_On_47_Vel_60
Time_Shift_8
Note_On_50_Vel_0
Time_Shift_172
Note_On_56_Vel_64
Time_Shift_5
Sustain_Off
Time_Shift_3
Note_On_48_Vel_53
Time_Shift_2
Note_On_55_Vel_0
Time_Shift_4
Note_On_47_Vel_0
Time_Shift_144
Sustain_On
Time_Shift_135
Note_On_50_Vel_53
Time_Shift_73
Note_On_56_Vel_0
Time_Shift_9
Note_On_56_Vel_63
Time_Shift_114
Note_On_56_Vel_0
Time_Shift_11
Note_On_56_Vel_60
Time_Shift_33
Note_On_50_Vel_0
Time_Shift_6
Note_On_51_Vel_55
Time_Shift_23
Sustain_Off
Time_Shift_165
Sustain_On
Time_Shift_139
Note_On_47_Vel_55
Note_On_50_Vel_56
Time_Shift_135
Note_On_55_Vel_67
Time_Shift_167
Note_On_52_Vel_63
Time_Shift_2
Note_On_46_Vel_58
Time_Shift_4
Note_On_49_Vel_61
Time_Shift_26
Note_On_48_Vel_0
Time_Shift_1
Sustain_Off
Time_Shift_1
Note_On_50_Vel_0
Time_Shift_2
Note_On_47_Vel_0
Time_Shift_1
Note_On_56_Vel_0
Time_Shift_21
Note_On_51_Vel_0
Time_Shift_101
Note_On_53_Vel_65
Time_Shift_152
Note_On_55_Vel_0
Time_Shift_12
Note_On_55_Vel_64
Time_Shift_127
Note_On_52_Vel_0
Time_Shift_199
Note_On_55_Vel_0
Time_Shift_4
Note_On_55_Vel_48
Time_Shift_88
Sustain_On
Time_Shift_8
Note_On_55_Vel_0
Time_Shift_10
Note_On_55_Vel_45
Time_Shift_343
Note_On_53_Vel_0
Time_Shift_9
Note_On_48_Vel_41
Time_Shift_2
Note_On_49_Vel_0
Time_Shift_2
Note_On_46_Vel_0
Time_Shift_19
Note_On_45_Vel_45
Time_Shift_25
Sustain_Off
Time_Shift_20
Sustain_On
Time_Shift_110
Note_On_53_Vel_61
Time_Shift_153
Sustain_Off
Time_Shift_2
Note_On_45_Vel_0
Time_Shift_11
Note_On_60_Vel_79
Time_Shift_8
Note_On_44_Vel_65
Sustain_On
Time_Shift_1
Note_On_54_Vel_73
Time_Shift_22
Note_On_55_Vel_0
Time_Shift_239
Sustain_Off
Time_Shift_1
Note_On_48_Vel_0
Time_Shift_1
Note_On_54_Vel_0
Time_Shift_1
Note_On_60_Vel_0
Note_On_44_Vel_0
Time_Shift_4
Note_On_53_Vel_0
Time_Shift_62
Sustain_On
Time_Shift_5
Note_On_62_Vel_89
Time_Shift_4
Note_On_47_Vel_77
Time_Shift_3
Note_On_53_Vel_76
Time_Shift_1
Note_On_55_Vel_77
Note_On_43_Vel_75
Time_Shift_276
Note_On_43_Vel_0
Sustain_Off
Time_Shift_1
Note_On_47_Vel_0
Note_On_53_Vel_0
Note_On_55_Vel_0
Note_On_62_Vel_0
Time_Shift_71
Note_On_63_Vel_89
Time_Shift_4
Note_On_51_Vel_76
Time_Shift_1
Note_On_43_Vel_74
Note_On_60_Vel_66
Time_Shift_2
Note_On_36_Vel_75
Sustain_On
Time_Shift_3
Note_On_55_Vel_72
Time_Shift_1
Note_On_48_Vel_75
Time_Shift_188
Note_On_48_Vel_0
Time_Shift_9
Note_On_48_Vel_69
Time_Shift_1
Note_On_36_Vel_0
Sustain_Off
Time_Shift_2
Note_On_55_Vel_0
Note_On_51_Vel_0
Time_Shift_4
Note_On_43_Vel_0
Time_Shift_158
Note_On_50_Vel_72
Time_Shift_5
Note_On_48_Vel_0
Time_Shift_82
Note_On_60_Vel_0
Time_Shift_52
Note_On_51_Vel_69
Time_Shift_3
Note_On_50_Vel_0
Time_Shift_70
Note_On_51_Vel_0
Time_Shift_6
Note_On_63_Vel_0
Time_Shift_3
Note_On_53_Vel_66
Time_Shift_37
Note_On_53_Vel_0
Time_Shift_22
Note_On_55_Vel_61
Time_Shift_35
Note_On_62_Vel_69
Time_Shift_12
Note_On_60_Vel_57
Time_Shift_11
Note_On_56_Vel_63
Time_Shift_1
Note_On_55_Vel_0
Time_Shift_1
Note_On_53_Vel_70
Time_Shift_142
Note_On_52_Vel_76
Time_Shift_4
Note_On_53_Vel_0
Time_Shift_131
Sustain_On
Time_Shift_24
Note_On_53_Vel_78
Time_Shift_148
Note_On_55_Vel_79
Time_Shift_151
Note_On_56_Vel_0
Time_Shift_4
Note_On_56_Vel_76
Time_Shift_4
Note_On_60_Vel_0
Time_Shift_2
Note_On_65_Vel_66
Time_Shift_5
Note_On_60_Vel_51
Time_Shift_9
Sustain_Off
Time_Shift_12
Note_On_53_Vel_0
Time_Shift_1
Note_On_62_Vel_0
Time_Shift_1
Note_On_52_Vel_0
Time_Shift_2
Note_On_55_Vel_0
Time_Shift_128
Note_On_44_Vel_77
Time_Shift_156
Note_On_46_Vel_76
Time_Shift_152
Note_On_44_Vel_0
Time_Shift_6
Note_On_44_Vel_78
Time_Shift_123
Note_On_46_Vel_0
Time_Shift_6
Note_On_44_Vel_0
Time_Shift_26
Note_On_56_Vel_0
Time_Shift_16
Note_On_65_Vel_0
Time_Shift_2
Note_On_43_Vel_73
Time_Shift_1
Note_On_59_Vel_65
Time_Shift_1
Note_On_65_Vel_64
Time_Shift_4
Note_On_62_Vel_66
Time_Shift_27
Note_On_62_Vel_0
Time_Shift_3
Note_On_60_Vel_0
Time_Shift_4
Note_On_59_Vel_0
Time_Shift_19
Note_On_65_Vel_0
Time_Shift_91
Note_On_49_Vel_76
Time_Shift_216
Note_On_43_Vel_0
Time_Shift_4
Note_On_50_Vel_68
Time_Shift_4
Note_On_49_Vel_0
Time_Shift_2
Note_On_43_Vel_52
Time_Shift_1
Note_On_59_Vel_56
Time_Shift_1
Note_On_65_Vel_61
Time_Shift_127
Sustain_On
Time_Shift_215
Note_On_50_Vel_0
Time_Shift_8
Note_On_50_Vel_63
Time_Shift_84
Note_On_50_Vel_0
Time_Shift_6
Note_On_50_Vel_68
Time_Shift_320
Sustain_Off
Time_Shift_27
Note_On_65_Vel_0
Time_Shift_11
Note_On_65_Vel_54
Note_On_60_Vel_55
Time_Shift_1
Note_On_53_Vel_58
Time_Shift_49
Sustain_On
Time_Shift_102
Note_On_44_Vel_68
Time_Shift_75
Note_On_43_Vel_0
Time_Shift_11
Note_On_43_Vel_79
Time_Shift_58
Note_On_44_Vel_0
Time_Shift_5
Note_On_44_Vel_81
Time_Shift_12
Note_On_50_Vel_0
Time_Shift_2
Note_On_60_Vel_0
Time_Shift_5
Sustain_Off
Time_Shift_15
Note_On_53_Vel_0
Note_On_59_Vel_0
Note_On_65_Vel_0
Time_Shift_4
Note_On_65_Vel_76
Time_Shift_1
Note_On_62_Vel_68
Time_Shift_3
Note_On_59_Vel_65
Note_On_53_Vel_72
Time_Shift_19
Note_On_44_Vel_0
Time_Shift_134
Note_On_43_Vel_0
Time_Shift_20
Note_On_42_Vel_82
Time_Shift_103
Sustain_On
Time_Shift_45
Note_On_43_Vel_83
Time_Shift_29
Note_On_42_Vel_0
Time_Shift_64
Sustain_Off
Time_Shift_61
Note_On_44_Vel_85
Time_Shift_26
Note_On_43_Vel_0
Time_Shift_138
Note_On_43_Vel_86
Time_Shift_2
Note_On_44_Vel_0
Time_Shift_152
Note_On_32_Vel_85
Time_Shift_13
Note_On_43_Vel_0
Time_Shift_137
Note_On_31_Vel_83
Time_Shift_9
Sustain_On
Time_Shift_134
Note_On_43_Vel_93
Time_Shift_4
Note_On_32_Vel_0
Time_Shift_126
Note_On_31_Vel_0
Note_On_43_Vel_0
Note_On_65_Vel_0
Time_Shift_4
Note_On_53_Vel_0
Time_Shift_3
Sustain_Off
Time_Shift_34
Note_On_63_Vel_94
Time_Shift_2
Note_On_59_Vel_0
Note_On_51_Vel_93
Time_Shift_3
Note_On_60_Vel_87
Time_Shift_1
Note_On_48_Vel_97
Note_On_36_Vel_93
Time_Shift_27
Note_On_62_Vel_0
Sustain_On
Time_Shift_135
Note_On_36_Vel_0
Note_On_51_Vel_0
Time_Shift_2
Sustain_Off
Time_Shift_1
Note_On_63_Vel_0
Time_Shift_7
Note_On_48_Vel_0
Note_On_60_Vel_0
Time_Shift_159
Note_On_72_Vel_97
Time_Shift_1
Note_On_63_Vel_93
Note_On_60_Vel_92
Time_Shift_2
Note_On_55_Vel_93
Time_Shift_1
Note_On_48_Vel_86
Time_Shift_22
Sustain_On
Time_Shift_151
Note_On_72_Vel_0
Time_Shift_6
Sustain_Off
Time_Shift_4
Note_On_48_Vel_0
Note_On_55_Vel_0
Note_On_60_Vel_0
Note_On_63_Vel_0
Time_Shift_154
Sustain_On
Time_Shift_11
Note_On_84_Vel_95
Note_On_72_Vel_91
Time_Shift_2
Note_On_75_Vel_94
Note_On_60_Vel_79
Time_Shift_2
Note_On_67_Vel_83
Time_Shift_174
Note_On_67_Vel_0
Time_Shift_3
Note_On_60_Vel_0
Note_On_84_Vel_0
Time_Shift_2
Note_On_72_Vel_0
Time_Shift_1
Note_On_75_Vel_0
Time_Shift_7
Sustain_Off
Time_Shift_41
Note_On_68_Vel_64
Time_Shift_6
Note_On_75_Vel_64
Time_Shift_135
Sustain_On
Time_Shift_18
Note_On_67_Vel_68
Time_Shift_151
Note_On_72_Vel_77
Time_Shift_158
Note_On_75_Vel_0
Note_On_71_Vel_75
Time_Shift_3
Sustain_Off
Time_Shift_4
Note_On_72_Vel_0
Time_Shift_11
Note_On_68_Vel_0
Time_Shift_8
Note_On_68_Vel_61
Time_Shift_4
Note_On_65_Vel_45
Time_Shift_80
Sustain_On
Time_Shift_37
Note_On_72_Vel_79
Time_Shift_154
Sustain_Off
Time_Shift_39
Note_On_73_Vel_82
Time_Shift_1
Note_On_67_Vel_0
Time_Shift_17
Note_On_72_Vel_0
Time_Shift_121
Note_On_71_Vel_0
Time_Shift_8
Sustain_On
Time_Shift_126
Sustain_Off
Time_Shift_29
Note_On_74_Vel_76
Time_Shift_83
Note_On_74_Vel_0
Time_Shift_11
Note_On_74_Vel_77
Time_Shift_27
Sustain_On
Time_Shift_323
Note_On_73_Vel_0
Time_Shift_38
Note_On_65_Vel_0
Note_On_68_Vel_0
Time_Shift_2
Note_On_74_Vel_0
Time_Shift_15
Note_On_75_Vel_74
Time_Shift_2
Sustain_Off
Time_Shift_5
Note_On_72_Vel_56
Time_Shift_20
Note_On_67_Vel_37
Time_Shift_7
Note_On_63_Vel_52
Time_Shift_310
Note_On_67_Vel_0
Time_Shift_4
Note_On_70_Vel_67
Time_Shift_4
Note_On_67_Vel_48
Time_Shift_26
Note_On_64_Vel_51
Time_Shift_14
Note_On_72_Vel_0
Time_Shift_11
Note_On_75_Vel_0
Time_Shift_111
Note_On_71_Vel_74
Time_Shift_22
Note_On_63_Vel_0
Time_Shift_162
Note_On_72_Vel_72
Time_Shift_1
Note_On_71_Vel_0
Time_Shift_144
Sustain_On
Time_Shift_156
Note_On_73_Vel_79
Time_Shift_44
Note_On_72_Vel_0
Time_Shift_46
Note_On_73_Vel_0
Time_Shift_5
Note_On_73_Vel_79
Time_Shift_376
Sustain_Off
Time_Shift_5
Note_On_74_Vel_69
Time_Shift_23
Note_On_66_Vel_49
Time_Shift_4
Note_On_67_Vel_0
Time_Shift_5
Note_On_69_Vel_40
Time_Shift_1
Note_On_64_Vel_0
Note_On_73_Vel_0
Time_Shift_19
Note_On_70_Vel_0
Time_Shift_46
Sustain_On
Time_Shift_234
Note_On_65_Vel_66
Time_Shift_1
Note_On_68_Vel_65
Time_Shift_1
Note_On_58_Vel_59
Time_Shift_49
Note_On_74_Vel_0
Time_Shift_3
Note_On_69_Vel_0
Note_On_66_Vel_0
Time_Shift_14
Sustain_Off
Time_Shift_28
Sustain_On
Time_Shift_53
Note_On_75_Vel_86
Time_Shift_153
Note_On_76_Vel_93
Time_Shift_156
Note_On_77_Vel_98
Time_Shift_159
Note_On_78_Vel_101
Time_Shift_132
Note_On_78_Vel_0
Time_Shift_10
Note_On_78_Vel_70
Time_Shift_181
Note_On_68_Vel_0
Time_Shift_1
Note_On_76_Vel_0
Note_On_65_Vel_0
Time_Shift_2
Note_On_58_Vel_0
Note_On_78_Vel_0
Time_Shift_2
Sustain_Off
Time_Shift_4
Note_On_77_Vel_0
Time_Shift_4
Note_On_79_Vel_97
Time_Shift_3
Note_On_75_Vel_0
Time_Shift_4
Note_On_67_Vel_80
Time_Shift_1
Note_On_75_Vel_86
Time_Shift_7
Note_On_51_Vel_73
Note_On_63_Vel_76
Time_Shift_27
Sustain_On
Time_Shift_207
Note_On_79_Vel_0
Time_Shift_5
Note_On_79_Vel_88
Time_Shift_39
Note_On_75_Vel_0
Time_Shift_1
Note_On_51_Vel_0
Time_Shift_1
Note_On_63_Vel_0
Time_Shift_4
Sustain_Off
Time_Shift_19
Note_On_67_Vel_0
Time_Shift_4
Note_On_77_Vel_99
Time_Shift_2
Note_On_62_Vel_89
Time_Shift_2
Note_On_67_Vel_89
Note_On_71_Vel_88
Note_On_55_Vel_85
Time_Shift_23
Note_On_79_Vel_0
Sustain_On
Time_Shift_18
Note_On_62_Vel_0
Time_Shift_30
Note_On_55_Vel_0
Time_Shift_13
Note_On_71_Vel_0
Time_Shift_8
Note_On_67_Vel_0
Time_Shift_2
Sustain_Off
Time_Shift_113
Note_On_77_Vel_0
Time_Shift_132
Note_On_75_Vel_98
Time_Shift_1
Note_On_48_Vel_87
Time_Shift_2
Note_On_67_Vel_85
Note_On_55_Vel_86
Note_On_63_Vel_91
Note_On_72_Vel_86
Time_Shift_11
Sustain_On
Time_Shift_180
Note_On_67_Vel_0
Time_Shift_1
Note_On_72_Vel_0
Note_On_48_Vel_0
Time_Shift_1
Note_On_63_Vel_0
Time_Shift_6
Sustain_Off
Time_Shift_4
Note_On_55_Vel_0
Time_Shift_174
Note_On_48_Vel_66
Time_Shift_159
Note_On_49_Vel_65
Time_Shift_2
Note_On_48_Vel_0
Time_Shift_65
Note_On_75_Vel_0
Time_Shift_104
Note_On_50_Vel_55
Time_Shift_26
Note_On_49_Vel_0
Time_Shift_126
Note_On_50_Vel_0
Time_Shift_17
Note_On_51_Vel_60
Time_Shift_171
Note_On_67_Vel_56
Time_Shift_12
Note_On_63_Vel_54
Time_Shift_4
Note_On_61_Vel_45
Time_Shift_4
Note_On_58_Vel_46
Time_Shift_124
Note_On_68_Vel_63
Time_Shift_65
Note_On_68_Vel_0
Time_Shift_88
Note_On_69_Vel_58
Time_Shift_11
Note_On_67_Vel_0
Time_Shift_18
Note_On_69_Vel_0
Time_Shift_108
Note_On_70_Vel_72
Time_Shift_56
Note_On_70_Vel_0
Time_Shift_91
Note_On_71_Vel_76
Time_Shift_50
Note_On_71_Vel_0
Time_Shift_84
Sustain_On
Time_Shift_169
Sustain_Off
Time_Shift_20
Note_On_72_Vel_82
Time_Shift_2
Note_On_60_Vel_76
Time_Shift_1
Note_On_68_Vel_75
Time_Shift_3
Note_On_56_Vel_78
Time_Shift_1
Note_On_44_Vel_67
Time_Shift_12
Note_On_58_Vel_0
Time_Shift_15
Note_On_61_Vel_0
Sustain_On
Time_Shift_23
Note_On_51_Vel_0
Time_Shift_177
Note_On_72_Vel_0
Time_Shift_6
Note_On_72_Vel_65
Time_Shift_70
Note_On_63_Vel_0
Time_Shift_3
Note_On_58_Vel_77
Time_Shift_1
Note_On_51_Vel_68
Note_On_67_Vel_75
Time_Shift_2
Sustain_Off
Time_Shift_5
Note_On_61_Vel_77
Note_On_68_Vel_0
Note_On_56_Vel_0
Time_Shift_1
Note_On_63_Vel_78
Note_On_72_Vel_0
Time_Shift_2
Note_On_60_Vel_0
Time_Shift_135
Note_On_68_Vel_80
Time_Shift_72
Note_On_68_Vel_0
Time_Shift_10
Note_On_67_Vel_0
Time_Shift_57
Note_On_69_Vel_86
Time_Shift_32
Note_On_69_Vel_0
Time_Shift_115
Note_On_70_Vel_91
Time_Shift_59
Note_On_70_Vel_0
Time_Shift_94
Note_On_71_Vel_90
Time_Shift_88
Sustain_On
Time_Shift_210
Sustain_Off
Time_Shift_1
Note_On_71_Vel_0
Note_On_61_Vel_0
Time_Shift_1
Note_On_58_Vel_0
Time_Shift_19
Note_On_44_Vel_0
Note_On_63_Vel_0
Time_Shift_2
Note_On_72_Vel_95
Time_Shift_2
Note_On_56_Vel_95
Note_On_68_Vel_89
Note_On_44_Vel_86
Time_Shift_1
Note_On_60_Vel_90
Time_Shift_1
Note_On_63_Vel_83
Time_Shift_24
Note_On_51_Vel_0
Time_Shift_23
Sustain_On
Time_Shift_200
Note_On_72_Vel_0
Time_Shift_10
Note_On_72_Vel_83
Time_Shift_23
Sustain_Off
Time_Shift_2
Note_On_63_Vel_0
Note_On_68_Vel_0
Time_Shift_2
Note_On_44_Vel_0
Time_Shift_9
Note_On_56_Vel_0
Time_Shift_8
Note_On_60_Vel_0
Time_Shift_6
Note_On_55_Vel_101
Time_Shift_1
Note_On_43_Vel_96
Time_Shift_3
Note_On_60_Vel_90
Note_On_70_Vel_93
Note_On_64_Vel_92
Time_Shift_44
Note_On_72_Vel_0
Sustain_On
Time_Shift_257
Sustain_Off
Time_Shift_1
Note_On_43_Vel_0
Note_On_64_Vel_0
Time_Shift_1
Note_On_70_Vel_0
Time_Shift_2
Note_On_60_Vel_0
Note_On_55_Vel_0
Time_Shift_4
Note_On_68_Vel_94
Time_Shift_1
Note_On_53_Vel_89
Time_Shift_1
Note_On_60_Vel_93
Note_On_65_Vel_87
Time_Shift_1
Note_On_41_Vel_89
Time_Shift_31
Note_On_53_Vel_0
Note_On_60_Vel_0
Time_Shift_2
Note_On_41_Vel_0
Note_On_68_Vel_0
Time_Shift_2
Note_On_65_Vel_0
Time_Shift_93
Note_On_43_Vel_86
Time_Shift_1
Note_On_55_Vel_93
Time_Shift_4
Note_On_67_Vel_93
Note_On_60_Vel_91
Time_Shift_1
Note_On_63_Vel_95
Time_Shift_36
Note_On_55_Vel_0
Time_Shift_3
Note_On_67_Vel_0
Note_On_60_Vel_0
Time_Shift_2
Note_On_63_Vel_0
Time_Shift_5
Note_On_43_Vel_0
Time_Shift_102
Note_On_60_Vel_92
Note_On_56_Vel_100
Note_On_65_Vel_99
Time_Shift_2
Note_On_44_Vel_94
Time_Shift_31
Sustain_On
Time_Shift_235
Note_On_44_Vel_0
Note_On_56_Vel_0
Sustain_Off
Note_On_65_Vel_0
Note_On_60_Vel_0
Time_Shift_60
Note_On_56_Vel_103
Time_Shift_1
Note_On_66_Vel_96
Note_On_60_Vel_97
Note_On_62_Vel_96
Time_Shift_1
Note_On_44_Vel_92
Time_Shift_26
Sustain_On
Time_Shift_211
Note_On_62_Vel_0
Note_On_56_Vel_0
Note_On_60_Vel_0
Note_On_44_Vel_0
Note_On_66_Vel_0
Time_Shift_1
Sustain_Off
Time_Shift_97
Note_On_67_Vel_104
Time_Shift_1
Note_On_55_Vel_100
Time_Shift_1
Note_On_59_Vel_95
Note_On_62_Vel_99
Note_On_43_Vel_93
Time_Shift_11
Sustain_On
Time_Shift_88
Note_On_62_Vel_0
Time_Shift_1
Note_On_67_Vel_0
Time_Shift_4
Note_On_55_Vel_0
Note_On_59_Vel_0
Sustain_Off
Time_Shift_7
Note_On_43_Vel_0
Time_Shift_270
Note_On_79_Vel_105
Time_Shift_2
Note_On_67_Vel_101
Time_Shift_1
Note_On_74_Vel_94
Note_On_31_Vel_86
Note_On_43_Vel_95
Time_Shift_1
Note_On_71_Vel_93
Time_Shift_18
Sustain_On
Time_Shift_326
Sustain_Off
Time_Shift_1
Note_On_31_Vel_0
Time_Shift_2
Note_On_43_Vel_0
Time_Shift_1
Note_On_71_Vel_0
Note_On_74_Vel_0
Time_Shift_8
Note_On_67_Vel_0
Note_On_79_Vel_0
Time_Shift_120
Note_On_44_Vel_64
Time_Shift_11
Sustain_On
Time_Shift_163
Sustain_Off
Time_Shift_6
Sustain_On
Time_Shift_33
Note_On_45_Vel_65
Time_Shift_247
Note_On_46_Vel_55
Time_Shift_258
Sustain_Off
Time_Shift_38
Note_On_44_Vel_0
Time_Shift_46
Note_On_47_Vel_52
Time_Shift_61
Sustain_On
Time_Shift_430
Note_On_46_Vel_0
Time_Shift_11
Note_On_36_Vel_33
Time_Shift_12
Note_On_45_Vel_0
Time_Shift_7
Note_On_47_Vel_0
Time_Shift_13
Sustain_Off
Time_Shift_88
Sustain_On
Time_Shift_27
Note_On_72_Vel_48
Time_Shift_5
Note_On_48_Vel_47
Time_Shift_272
Note_On_73_Vel_44
Time_Shift_1
Note_On_51_Vel_57
Time_Shift_173
Note_On_74_Vel_53
Time_Shift_9
Note_On_59_Vel_60
Time_Shift_171
Note_On_60_Vel_53
Time_Shift_69
Note_On_75_Vel_72
Time_Shift_99
Note_On_38_Vel_55
Time_Shift_16
Note_On_48_Vel_0
Time_Shift_2
Note_On_60_Vel_0
Note_On_51_Vel_0
Note_On_74_Vel_0
Note_On_75_Vel_0
Time_Shift_3
Note_On_36_Vel_0
Time_Shift_3
Sustain_Off
Time_Shift_2
Note_On_59_Vel_0
Note_On_73_Vel_0
Time_Shift_1
Note_On_75_Vel_61
Time_Shift_62
Note_On_50_Vel_60
Time_Shift_6
Sustain_On
Time_Shift_147
Note_On_53_Vel_59
Time_Shift_153
Note_On_75_Vel_0
Time_Shift_4
Note_On_75_Vel_75
Time_Shift_9
Note_On_59_Vel_65
Time_Shift_153
Note_On_60_Vel_68
Time_Shift_161
Note_On_75_Vel_0
Note_On_53_Vel_0
Time_Shift_1
Note_On_50_Vel_0
Note_On_59_Vel_0
Note_On_60_Vel_0
Note_On_38_Vel_0
Time_Shift_2
Note_On_72_Vel_0
Sustain_Off
Time_Shift_9
Note_On_39_Vel_66
Note_On_72_Vel_72
Time_Shift_45
Sustain_On
Time_Shift_14
Note_On_51_Vel_66
Time_Shift_117
Note_On_73_Vel_84
Time_Shift_39
Note_On_55_Vel_66
Time_Shift_125
Note_On_74_Vel_76
Time_Shift_29
Note_On_59_Vel_72
Time_Shift_164
Note_On_60_Vel_62
Time_Shift_87
Note_On_75_Vel_81
Time_Shift_59
Note_On_59_Vel_0
Note_On_73_Vel_0
Note_On_72_Vel_0
Note_On_74_Vel_0
Time_Shift_1
Note_On_55_Vel_0
Note_On_41_Vel_65
Note_On_60_Vel_0
Note_On_51_Vel_0
Time_Shift_2
Note_On_39_Vel_0
Time_Shift_4
Sustain_Off
Time_Shift_27
Note_On_75_Vel_0
Time_Shift_4
Note_On_75_Vel_83
Time_Shift_11
Sustain_On
Time_Shift_190
Note_On_56_Vel_72
Time_Shift_156
Note_On_75_Vel_0
Time_Shift_11
Note_On_75_Vel_81
Time_Shift_9
Note_On_59_Vel_67
Time_Shift_184
Note_On_60_Vel_69
Time_Shift_210
Note_On_43_Vel_60
Time_Shift_5
Note_On_72_Vel_75
Time_Shift_8
Note_On_56_Vel_0
Note_On_59_Vel_0
Note_On_41_Vel_0
Time_Shift_2
Note_On_60_Vel_0
Time_Shift_2
Sustain_Off
Time_Shift_53
Sustain_On
Time_Shift_15
Note_On_75_Vel_0
Time_Shift_19
Note_On_55_Vel_50
Time_Shift_132
Note_On_73_Vel_80
Time_Shift_48
Note_On_60_Vel_49
Time_Shift_137
Note_On_74_Vel_75
Time_Shift_34
Note_On_63_Vel_67
Time_Shift_159
Note_On_75_Vel_82
Time_Shift_4
Note_On_67_Vel_60
Time_Shift_151
Note_On_74_Vel_0
Time_Shift_4
Note_On_74_Vel_63
Time_Shift_26
Note_On_55_Vel_0
Time_Shift_11
Note_On_55_Vel_53
Time_Shift_35
Note_On_75_Vel_0
Time_Shift_7
Note_On_75_Vel_71
Time_Shift_70
Note_On_74_Vel_0
Time_Shift_7
Note_On_74_Vel_57
Time_Shift_39
Note_On_75_Vel_0
Time_Shift_11
Note_On_75_Vel_78
Time_Shift_7
Note_On_62_Vel_54
Time_Shift_36
Note_On_74_Vel_0
Time_Shift_5
Note_On_74_Vel_64
Time_Shift_41
Note_On_75_Vel_0
Time_Shift_7
Note_On_75_Vel_71
Time_Shift_39
Note_On_74_Vel_0
Time_Shift_10
Note_On_74_Vel_68
Time_Shift_52
Note_On_73_Vel_0
Note_On_75_Vel_0
Time_Shift_4
Note_On_73_Vel_73
Time_Shift_6
Note_On_75_Vel_61
Time_Shift_43
Note_On_74_Vel_0
Time_Shift_11
Note_On_74_Vel_71
Time_Shift_69
Note_On_73_Vel_0
Time_Shift_1
Note_On_72_Vel_0
Note_On_60_Vel_0
Time_Shift_1
Note_On_74_Vel_0
Time_Shift_1
Note_On_63_Vel_0
Time_Shift_1
Note_On_75_Vel_0
Time_Shift_1
Note_On_43_Vel_0
Time_Shift_4
Sustain_Off
Time_Shift_7
Note_On_79_Vel_72
Time_Shift_4
Note_On_67_Vel_0
Time_Shift_16
Sustain_On
Time_Shift_10
Note_On_65_Vel_47
Time_Shift_1
Note_On_74_Vel_57
Note_On_71_Vel_51
Time_Shift_220
Note_On_67_Vel_49
Time_Shift_99
Note_On_74_Vel_0
Time_Shift_1
Note_On_77_Vel_61
Time_Shift_9
Note_On_74_Vel_52
Time_Shift_101
Note_On_67_Vel_0
Note_On_79_Vel_0
Time_Shift_1
Note_On_71_Vel_0
Time_Shift_1
Note_On_74_Vel_0
Time_Shift_3
Note_On_65_Vel_0
Time_Shift_3
Note_On_77_Vel_0
Time_Shift_1
Sustain_Off
Time_Shift_2
Note_On_48_Vel_44
Note_On_75_Vel_61
Time_Shift_1
Note_On_62_Vel_0
Time_Shift_7
Note_On_55_Vel_0
Time_Shift_4
Note_On_72_Vel_51
Time_Shift_58
Sustain_On
Time_Shift_54
Note_On_72_Vel_0
Time_Shift_81
Note_On_55_Vel_52
Time_Shift_93
Note_On_82_Vel_49
Time_Shift_49
Note_On_83_Vel_68
Time_Shift_25
Note_On_87_Vel_77
Time_Shift_1
Note_On_79_Vel_65
Time_Shift_3
Note_On_84_Vel_68
Note_On_60_Vel_59
Time_Shift_154
Note_On_63_Vel_64
Time_Shift_206
Note_On_95_Vel_63
Time_Shift_33
Note_On_99_Vel_64
Time_Shift_11
Note_On_96_Vel_59
Time_Shift_6
Note_On_91_Vel_63
Time_Shift_36
Note_On_51_Vel_55
Time_Shift_223
Note_On_55_Vel_0
Time_Shift_10
Note_On_55_Vel_45
Time_Shift_113
Note_On_83_Vel_0
Time_Shift_9
Note_On_83_Vel_66
Time_Shift_30
Note_On_79_Vel_0
Note_On_84_Vel_0
Note_On_87_Vel_0
Time_Shift_5
Note_On_87_Vel_61
Time_Shift_1
Note_On_84_Vel_54
Time_Shift_2
Note_On_79_Vel_47
Time_Shift_22
Note_On_60_Vel_0
Time_Shift_7
Note_On_60_Vel_46
Time_Shift_170
Note_On_63_Vel_0
Time_Shift_10
Note_On_63_Vel_44
Time_Shift_184
Note_On_41_Vel_47
Time_Shift_52
Note_On_75_Vel_0
Time_Shift_6
Note_On_48_Vel_0
Time_Shift_2
Note_On_99_Vel_0
Time_Shift_1
Note_On_74_Vel_58
Time_Shift_1
Note_On_83_Vel_0
Time_Shift_1
Note_On_79_Vel_0
Note_On_96_Vel_0
Note_On_51_Vel_0
Note_On_84_Vel_0
Note_On_55_Vel_0
Time_Shift_1
Note_On_87_Vel_0
Note_On_63_Vel_0
Note_On_60_Vel_0
Time_Shift_2
Sustain_Off
Time_Shift_1
Note_On_82_Vel_0
Note_On_91_Vel_0
Time_Shift_8
Note_On_95_Vel_0
Time_Shift_14
Note_On_72_Vel_53
Time_Shift_11
Note_On_53_Vel_50
Time_Shift_36
Sustain_On
Time_Shift_121
Note_On_75_Vel_72
Time_Shift_45
Note_On_56_Vel_55
Time_Shift_114
Note_On_76_Vel_77
Time_Shift_26
Note_On_60_Vel_46
Time_Shift_153
Note_On_62_Vel_70
Time_Shift_66
Note_On_77_Vel_77
Time_Shift_97
Note_On_77_Vel_0
Time_Shift_11
Note_On_77_Vel_73
Time_Shift_15
Note_On_65_Vel_62
Time_Shift_151
Note_On_62_Vel_0
Time_Shift_11
Note_On_62_Vel_77
Time_Shift_142
Note_On_77_Vel_0
Time_Shift_11
Note_On_77_Vel_89
Time_Shift_5
Note_On_41_Vel_0
Time_Shift_23
Note_On_60_Vel_0
Time_Shift_8
Note_On_60_Vel_70
Time_Shift_138
Note_On_68_Vel_70
Time_Shift_164
Note_On_41_Vel_71
Time_Shift_29
Note_On_86_Vel_86
Time_Shift_8
Sustain_Off
Time_Shift_1
Note_On_56_Vel_0
Time_Shift_1
Note_On_74_Vel_0
Note_On_60_Vel_0
Time_Shift_1
Note_On_68_Vel_0
Note_On_72_Vel_0
Note_On_53_Vel_0
Note_On_75_Vel_0
Note_On_62_Vel_0
Note_On_65_Vel_0
Note_On_76_Vel_0
Note_On_84_Vel_65
Time_Shift_26
Note_On_77_Vel_0
Time_Shift_31
Sustain_On
Time_Shift_9
Note_On_53_Vel_67
Time_Shift_45
Note_On_41_Vel_0
Time_Shift_36
Note_On_87_Vel_94
Time_Shift_33
Note_On_53_Vel_0
Time_Shift_9
Note_On_56_Vel_64
Note_On_53_Vel_56
Time_Shift_119
Note_On_88_Vel_94
Time_Shift_23
Note_On_60_Vel_56
Time_Shift_148
Note_On_62_Vel_77
Time_Shift_73
Note_On_89_Vel_89
Time_Shift_89
Note_On_89_Vel_0
Time_Shift_10
Note_On_89_Vel_87
Time_Shift_31
Note_On_65_Vel_63
Time_Shift_158
Note_On_62_Vel_0
Time_Shift_9
Note_On_62_Vel_68
Time_Shift_153
Note_On_60_Vel_0
Note_On_89_Vel_0
Time_Shift_4
Note_On_89_Vel_96
Time_Shift_7
Note_On_60_Vel_66
Time_Shift_138
Note_On_68_Vel_64
Time_Shift_127
Note_On_83_Vel_64
Time_Shift_56
Note_On_43_Vel_71
Time_Shift_16
Sustain_Off
Time_Shift_4
Note_On_62_Vel_0
Time_Shift_1
Note_On_68_Vel_0
Time_Shift_1
Note_On_65_Vel_0
Note_On_88_Vel_0
Time_Shift_1
Note_On_87_Vel_0
Note_On_60_Vel_0
Time_Shift_1
Note_On_56_Vel_0
Time_Shift_4
Note_On_84_Vel_0
Note_On_89_Vel_0
Time_Shift_4
Note_On_89_Vel_91
Time_Shift_4
Note_On_53_Vel_0
Note_On_86_Vel_0
Time_Shift_5
Note_On_86_Vel_76
Time_Shift_26
Sustain_On
Time_Shift_31
Note_On_55_Vel_59
Time_Shift_146
Note_On_83_Vel_0
Time_Shift_3
Note_On_91_Vel_91
Time_Shift_9
Note_On_59_Vel_71
Time_Shift_167
Note_On_62_Vel_74
Time_Shift_147
Note_On_67_Vel_62
Time_Shift_4
Note_On_89_Vel_0
Time_Shift_8
Note_On_89_Vel_98
Time_Shift_15
Note_On_86_Vel_0
Time_Shift_11
Note_On_86_Vel_68
Time_Shift_135
Note_On_43_Vel_0
Time_Shift_6
Note_On_43_Vel_68
Time_Shift_20
Note_On_88_Vel_90
Time_Shift_22
Note_On_85_Vel_68
Time_Shift_2
Note_On_62_Vel_0
Time_Shift_1
Note_On_91_Vel_0
Time_Shift_1
Note_On_59_Vel_0
Note_On_86_Vel_0
Time_Shift_1
Note_On_89_Vel_0
Note_On_67_Vel_0
Time_Shift_2
Sustain_Off
Time_Shift_3
Note_On_43_Vel_0
Time_Shift_26
Note_On_55_Vel_0
Time_Shift_27
Note_On_55_Vel_59
Time_Shift_4
Sustain_On
Time_Shift_112
Note_On_89_Vel_97
Time_Shift_15
Note_On_86_Vel_74
Time_Shift_49
Note_On_58_Vel_74
Time_Shift_141
Note_On_61_Vel_73
Time_Shift_167
Note_On_85_Vel_0
Note_On_88_Vel_0
Time_Shift_4
Note_On_88_Vel_94
Time_Shift_2
Note_On_67_Vel_64
Time_Shift_5
Note_On_85_Vel_81
Time_Shift_138
Note_On_70_Vel_39
Time_Shift_4
Note_On_70_Vel_0
Time_Shift_59
Note_On_58_Vel_0
Time_Shift_2
Note_On_86_Vel_0
Time_Shift_1
Note_On_89_Vel_0
Time_Shift_1
Note_On_61_Vel_0
Note_On_67_Vel_0
Time_Shift_1
Note_On_43_Vel_60
Time_Shift_44
Note_On_55_Vel_0
Time_Shift_8
Note_On_85_Vel_0
Time_Shift_4
Note_On_87_Vel_89
Time_Shift_6
Note_On_84_Vel_71
Time_Shift_38
Sustain_Off
Time_Shift_5
Note_On_43_Vel_0
Time_Shift_18
Note_On_55_Vel_53
Time_Shift_82
Sustain_On
Time_Shift_110
Note_On_57_Vel_49
Time_Shift_177
Note_On_60_Vel_57
Time_Shift_193
Note_On_66_Vel_53
Time_Shift_169
Note_On_55_Vel_0
Time_Shift_2
Note_On_84_Vel_0
Time_Shift_2
Note_On_88_Vel_0
Time_Shift_3
Note_On_87_Vel_0
Time_Shift_10
Note_On_86_Vel_68
Note_On_60_Vel_0
Time_Shift_8
Note_On_83_Vel_57
Time_Shift_2
Note_On_66_Vel_0
Time_Shift_15
Note_On_57_Vel_0
Time_Shift_4
Sustain_Off
Time_Shift_12
Note_On_59_Vel_49
Time_Shift_4
Note_On_67_Vel_33
Time_Shift_19
Sustain_On
Time_Shift_196
Note_On_65_Vel_51
Time_Shift_174
Note_On_79_Vel_79
Time_Shift_48
Note_On_62_Vel_53
Time_Shift_188
Note_On_79_Vel_0
Time_Shift_12
Note_On_79_Vel_81
Time_Shift_12
Note_On_59_Vel_0
Time_Shift_4
Note_On_59_Vel_53
Time_Shift_250
Note_On_84_Vel_92
Time_Shift_49
Note_On_51_Vel_47
Time_Shift_25
Sustain_Off
Time_Shift_23
Note_On_59_Vel_0
Note_On_67_Vel_0
Time_Shift_2
Note_On_83_Vel_0
Time_Shift_1
Note_On_65_Vel_0
Time_Shift_1
Note_On_79_Vel_0
Note_On_62_Vel_0
Note_On_86_Vel_0
Time_Shift_52
Sustain_On
Time_Shift_99
Note_On_72_Vel_58
Time_Shift_34
Note_On_55_Vel_41
Time_Shift_143
Note_On_79_Vel_48
Time_Shift_29
Note_On_63_Vel_57
Time_Shift_158
Note_On_60_Vel_58
Time_Shift_162
Note_On_84_Vel_0
Note_On_72_Vel_0
Time_Shift_1
Note_On_51_Vel_0
Note_On_55_Vel_0
Note_On_79_Vel_0
Note_On_63_Vel_0
Time_Shift_1
Note_On_83_Vel_75
Time_Shift_1
Note_On_60_Vel_0
Time_Shift_10
Sustain_Off
Time_Shift_4
Note_On_80_Vel_61
Time_Shift_18
Sustain_On
Time_Shift_26
Note_On_53_Vel_46
Time_Shift_82
Note_On_84_Vel_80
Time_Shift_53
Note_On_83_Vel_0
Time_Shift_5
Note_On_83_Vel_70
Time_Shift_39
Note_On_56_Vel_46
Time_Shift_2
Note_On_84_Vel_0
Time_Shift_5
Note_On_84_Vel_76
Time_Shift_49
Note_On_83_Vel_0
Time_Shift_9
Note_On_83_Vel_83
Time_Shift_41
Note_On_81_Vel_82
Time_Shift_12
Note_On_83_Vel_0
Time_Shift_10
Note_On_83_Vel_79
Time_Shift_74
Note_On_84_Vel_0
Time_Shift_5
Note_On_62_Vel_56
Time_Shift_3
Note_On_84_Vel_91
Time_Shift_187
Note_On_86_Vel_92
Time_Shift_6
Note_On_59_Vel_54
Time_Shift_168
Note_On_84_Vel_0
Time_Shift_7
Note_On_84_Vel_83
Time_Shift_2
Sustain_Off
Time_Shift_6
Note_On_53_Vel_0
Time_Shift_2
Note_On_83_Vel_0
Time_Shift_1
Note_On_62_Vel_0
Note_On_56_Vel_0
Note_On_81_Vel_0
Note_On_59_Vel_0
Time_Shift_1
Note_On_80_Vel_0
Note_On_86_Vel_0
Time_Shift_17
Note_On_79_Vel_54
Time_Shift_14
Note_On_51_Vel_37
Time_Shift_42
Sustain_On
Time_Shift_119
Note_On_55_Vel_41
Note_On_72_Vel_63
Time_Shift_166
Note_On_60_Vel_60
Time_Shift_1
Note_On_82_Vel_87
Time_Shift_36
Note_On_75_Vel_53
Time_Shift_134
Note_On_48_Vel_57
Time_Shift_6
Note_On_80_Vel_83
Time_Shift_181
Note_On_74_Vel_57
Time_Shift_7
Note_On_84_Vel_0
Time_Shift_1
Note_On_72_Vel_0
Time_Shift_1
Note_On_82_Vel_0
Note_On_60_Vel_0
Time_Shift_1
Note_On_48_Vel_0
Note_On_79_Vel_0
Time_Shift_1
Note_On_51_Vel_0
Note_On_75_Vel_0
Time_Shift_2
Note_On_55_Vel_0
Time_Shift_5
Note_On_47_Vel_53
Time_Shift_18
Sustain_Off
Time_Shift_12
Sustain_On
Time_Shift_139
Note_On_79_Vel_79
Time_Shift_25
Note_On_50_Vel_43
Time_Shift_180
Note_On_67_Vel_53
Time_Shift_13
Note_On_55_Vel_43
Time_Shift_139
Note_On_77_Vel_73
Time_Shift_26
Note_On_55_Vel_0
Note_On_74_Vel_0
Time_Shift_4
Note_On_74_Vel_53
Time_Shift_2
Note_On_55_Vel_48
Time_Shift_173
Note_On_47_Vel_0
Time_Shift_2
Note_On_67_Vel_0
Note_On_74_Vel_0
Note_On_50_Vel_0
Time_Shift_1
Note_On_80_Vel_0
Time_Shift_1
Note_On_79_Vel_0
Time_Shift_11
Note_On_75_Vel_66
Time_Shift_16
Note_On_48_Vel_47
Time_Shift_3
Sustain_Off
Time_Shift_48
Sustain_On
Time_Shift_110
Note_On_72_Vel_58
Time_Shift_11
Note_On_51_Vel_53
Time_Shift_64
Note_On_77_Vel_0
Time_Shift_94
Note_On_84_Vel_87
Time_Shift_21
Note_On_55_Vel_0
Note_On_75_Vel_0
Time_Shift_8
Note_On_75_Vel_54
Time_Shift_1
Note_On_55_Vel_57
Time_Shift_148
Note_On_63_Vel_71
Time_Shift_1
Note_On_79_Vel_69
Time_Shift_189
Note_On_83_Vel_82
Time_Shift_29
Note_On_80_Vel_65
Time_Shift_4
Note_On_53_Vel_56
Time_Shift_12
Note_On_51_Vel_0
Time_Shift_1
Note_On_75_Vel_0
Note_On_79_Vel_0
Time_Shift_1
Note_On_55_Vel_0
Time_Shift_1
Note_On_63_Vel_0
Note_On_84_Vel_0
Time_Shift_4
Note_On_48_Vel_0
Time_Shift_1
Sustain_Off
Time_Shift_7
Note_On_72_Vel_0
Time_Shift_31
Sustain_On
Time_Shift_66
Note_On_84_Vel_81
Time_Shift_41
Note_On_83_Vel_0
Time_Shift_11
Note_On_83_Vel_82
Time_Shift_51
Note_On_84_Vel_0
Time_Shift_10
Note_On_84_Vel_77
Note_On_56_Vel_47
Time_Shift_43
Note_On_83_Vel_0
Time_Shift_8
Note_On_83_Vel_83
Time_Shift_39
Note_On_84_Vel_0
Time_Shift_6
Note_On_84_Vel_74
Time_Shift_18
Note_On_62_Vel_63
Time_Shift_52
Note_On_83_Vel_0
Time_Shift_6
Note_On_83_Vel_71
Time_Shift_40
Note_On_84_Vel_0
Time_Shift_8
Note_On_84_Vel_72
Time_Shift_69
Note_On_83_Vel_0
Time_Shift_4
Note_On_59_Vel_55
Note_On_83_Vel_79
Time_Shift_70
Note_On_81_Vel_63
Time_Shift_57
Note_On_83_Vel_0
Time_Shift_5
Note_On_83_Vel_65
Time_Shift_118
Note_On_84_Vel_0
Time_Shift_5
Note_On_84_Vel_72
Time_Shift_35
Note_On_53_Vel_0
Time_Shift_3
Note_On_80_Vel_0
Note_On_51_Vel_47
Note_On_59_Vel_0
Note_On_83_Vel_0
Note_On_81_Vel_0
Time_Shift_6
Note_On_62_Vel_0
Sustain_Off
Time_Shift_20
Note_On_56_Vel_0
Time_Shift_57
Note_On_59_Vel_38
Time_Shift_50
Sustain_On
Time_Shift_41
Note_On_72_Vel_55
Time_Shift_13
Note_On_59_Vel_0
Time_Shift_5
Note_On_56_Vel_48
Time_Shift_124
Note_On_82_Vel_78
Time_Shift_21
Note_On_75_Vel_57
Time_Shift_3
Note_On_60_Vel_48
Time_Shift_169
Note_On_80_Vel_74
Time_Shift_1
Note_On_60_Vel_0
Time_Shift_5
Note_On_60_Vel_47
Time_Shift_2
Note_On_75_Vel_0
Time_Shift_5
Note_On_75_Vel_36
Time_Shift_157
Note_On_51_Vel_0
Time_Shift_4
Note_On_51_Vel_56
Time_Shift_5
Note_On_60_Vel_0
Time_Shift_1
Note_On_73_Vel_52
Time_Shift_5
Note_On_73_Vel_0
Time_Shift_3
Sustain_Off
Time_Shift_5
Note_On_56_Vel_0
Note_On_84_Vel_0
Time_Shift_30
Sustain_On
Time_Shift_109
Note_On_79_Vel_77
Time_Shift_7
Note_On_58_Vel_60
Time_Shift_107
Note_On_79_Vel_0
Time_Shift_9
Note_On_79_Vel_74
Time_Shift_53
Note_On_73_Vel_72
Time_Shift_2
Note_On_77_Vel_79
Time_Shift_8
Note_On_63_Vel_63
Time_Shift_135
Note_On_75_Vel_0
Time_Shift_4
Note_On_75_Vel_83
Time_Shift_12
Note_On_63_Vel_0
Time_Shift_10
Note_On_63_Vel_76
Time_Shift_151
Note_On_80_Vel_0
Time_Shift_8
Note_On_80_Vel_82
Time_Shift_23
Note_On_72_Vel_0
Note_On_75_Vel_0
Time_Shift_6
Note_On_72_Vel_54
Time_Shift_4
Note_On_77_Vel_0
Note_On_63_Vel_0
Note_On_58_Vel_0
Time_Shift_1
Note_On_73_Vel_0
Note_On_75_Vel_58
Note_On_56_Vel_49
Note_On_51_Vel_0
Note_On_79_Vel_0
Time_Shift_2
Sustain_Off
Time_Shift_2
Note_On_82_Vel_0
Time_Shift_108
Sustain_On
Time_Shift_23
Note_On_75_Vel_0
Time_Shift_9
Note_On_75_Vel_61
Time_Shift_41
Note_On_60_Vel_41
Time_Shift_88
Note_On_75_Vel_0
Time_Shift_4
Note_On_75_Vel_65
Time_Shift_38
Sustain_Off
Time_Shift_15
Note_On_78_Vel_75
Time_Shift_4
Note_On_74_Vel_58
Time_Shift_8
Note_On_62_Vel_52
Time_Shift_4
Note_On_60_Vel_0
Time_Shift_42
Sustain_On
Time_Shift_8
Note_On_56_Vel_0
Time_Shift_123
Note_On_62_Vel_0
Note_On_72_Vel_0
Time_Shift_5
Note_On_62_Vel_45
Time_Shift_1
Note_On_72_Vel_44
Time_Shift_132
Note_On_75_Vel_0
Time_Shift_8
Note_On_80_Vel_0
Time_Shift_11
Note_On_79_Vel_66
Time_Shift_1
Note_On_78_Vel_0
Note_On_72_Vel_0
Time_Shift_1
Note_On_74_Vel_0
Time_Shift_1
Note_On_62_Vel_0
Time_Shift_1
Note_On_71_Vel_50
Time_Shift_4
Sustain_Off
Time_Shift_25
Note_On_55_Vel_32
Time_Shift_55
Sustain_On
Time_Shift_87
Note_On_74_Vel_53
Time_Shift_37
Note_On_59_Vel_46
Time_Shift_145
Note_On_79_Vel_0
Time_Shift_7
Note_On_79_Vel_95
Time_Shift_13
Sustain_Off
Time_Shift_11
Note_On_71_Vel_0
Time_Shift_6
Note_On_71_Vel_39
Time_Shift_3
Note_On_62_Vel_51
Time_Shift_29
Sustain_On
Time_Shift_116
Note_On_62_Vel_0
Time_Shift_11
Note_On_91_Vel_74
Note_On_62_Vel_48
Time_Shift_119
Note_On_74_Vel_0
Time_Shift_96
Note_On_77_Vel_87
Time_Shift_13
Note_On_56_Vel_58
Time_Shift_15
Note_On_72_Vel_63
Time_Shift_7
Note_On_91_Vel_0
Time_Shift_7
Note_On_59_Vel_0
Time_Shift_62
Note_On_55_Vel_0
Note_On_71_Vel_0
Time_Shift_11
Sustain_Off
Time_Shift_12
Note_On_62_Vel_0
Note_On_79_Vel_0
Time_Shift_75
Note_On_60_Vel_50
Time_Shift_9
Sustain_On
Time_Shift_182
Note_On_74_Vel_55
Time_Shift_7
Note_On_62_Vel_51
Time_Shift_162
Note_On_78_Vel_85
Time_Shift_33
Note_On_62_Vel_0
Note_On_72_Vel_0
Time_Shift_4
Note_On_72_Vel_51
Time_Shift_7
Note_On_62_Vel_52
Time_Shift_5
Note_On_56_Vel_0
Time_Shift_147
Sustain_Off
Time_Shift_10
Note_On_72_Vel_0
Note_On_77_Vel_0
Time_Shift_1
Note_On_62_Vel_0
Note_On_74_Vel_0
Note_On_60_Vel_0
Note_On_79_Vel_72
Time_Shift_1
Note_On_78_Vel_0
Time_Shift_22
Note_On_43_Vel_45
Time_Shift_4
Note_On_71_Vel_51
Time_Shift_2
Note_On_55_Vel_43
Time_Shift_43
Sustain_On
Time_Shift_123
Note_On_43_Vel_0
Time_Shift_23
Note_On_55_Vel_0
Note_On_71_Vel_0
Time_Shift_5
Note_On_74_Vel_50
Time_Shift_4
Note_On_55_Vel_41
Time_Shift_2
Note_On_71_Vel_41
Time_Shift_173
Note_On_74_Vel_0
Sustain_Off
Note_On_55_Vel_0
Time_Shift_2
Note_On_79_Vel_0
Time_Shift_14
Note_On_71_Vel_0
Note_On_77_Vel_62
Time_Shift_10
Note_On_71_Vel_45
Time_Shift_1
Note_On_43_Vel_42
Time_Shift_65
Sustain_On
Time_Shift_146
Note_On_71_Vel_0
Time_Shift_5
Note_On_67_Vel_39
Time_Shift_5
Note_On_31_Vel_33
Time_Shift_1
Note_On_71_Vel_41
Time_Shift_256
Note_On_71_Vel_0
Time_Shift_5
Note_On_36_Vel_37
Time_Shift_1
Note_On_67_Vel_0
Note_On_31_Vel_0
Time_Shift_1
Note_On_77_Vel_0
Time_Shift_1
Sustain_Off
Time_Shift_17
Note_On_43_Vel_0
Time_Shift_4
Note_On_75_Vel_50
Time_Shift_22
Note_On_72_Vel_49
Time_Shift_36
Sustain_On
Time_Shift_6
Note_On_48_Vel_41
Time_Shift_163
Note_On_67_Vel_46
Time_Shift_146
Note_On_36_Vel_0
Time_Shift_15
Note_On_72_Vel_0
Time_Shift_11
Note_On_72_Vel_70
Time_Shift_32
Note_On_63_Vel_47
Time_Shift_3
Note_On_55_Vel_46
Time_Shift_138
Note_On_67_Vel_0
Time_Shift_6
Note_On_67_Vel_48
Time_Shift_6
Note_On_51_Vel_52
Time_Shift_150
Note_On_48_Vel_0
Note_On_51_Vel_0
Time_Shift_1
Note_On_63_Vel_0
Time_Shift_1
Note_On_55_Vel_0
Note_On_75_Vel_0
Time_Shift_10
Note_On_38_Vel_51
Time_Shift_3
Note_On_72_Vel_0
Time_Shift_4
Note_On_72_Vel_49
Time_Shift_7
Note_On_65_Vel_45
Time_Shift_1
Sustain_Off
Time_Shift_42
Sustain_On
Time_Shift_27
Note_On_50_Vel_55
Time_Shift_105
Note_On_73_Vel_75
Time_Shift_29
Note_On_67_Vel_0
Time_Shift_4
Note_On_53_Vel_59
Time_Shift_3
Note_On_67_Vel_39
Time_Shift_119
Note_On_74_Vel_69
Time_Shift_17
Note_On_68_Vel_53
Time_Shift_3
Note_On_59_Vel_61
Time_Shift_141
Note_On_75_Vel_78
Time_Shift_3
Note_On_60_Vel_62
Time_Shift_143
Note_On_53_Vel_0
Sustain_Off
Note_On_74_Vel_0
Time_Shift_1
Note_On_68_Vel_0
Note_On_59_Vel_0
Note_On_73_Vel_0
Note_On_50_Vel_0
Note_On_65_Vel_0
Note_On_60_Vel_0
Note_On_72_Vel_0
Time_Shift_1
Note_On_38_Vel_0
Time_Shift_18
Note_On_67_Vel_0
Note_On_75_Vel_0
Time_Shift_5
Note_On_75_Vel_69
Time_Shift_3
Note_On_39_Vel_60
Time_Shift_3
Note_On_67_Vel_54
Time_Shift_48
Note_On_51_Vel_56
Time_Shift_26
Sustain_On
Time_Shift_143
Note_On_55_Vel_59
Time_Shift_125
Note_On_75_Vel_0
Time_Shift_11
Note_On_75_Vel_74
Time_Shift_11
Note_On_59_Vel_67
Time_Shift_9
Note_On_67_Vel_0
Time_Shift_3
Note_On_72_Vel_56
Time_Shift_4
Note_On_67_Vel_43
Time_Shift_134
Note_On_60_Vel_67
Time_Shift_158
Note_On_41_Vel_66
Time_Shift_16
Note_On_72_Vel_0
Time_Shift_8
Note_On_39_Vel_0
Note_On_72_Vel_67
Time_Shift_2
Note_On_68_Vel_58
Time_Shift_2
Note_On_59_Vel_0
Note_On_67_Vel_0
Time_Shift_1
Note_On_75_Vel_0
Note_On_55_Vel_0
Time_Shift_1
Note_On_51_Vel_0
Sustain_Off
Note_On_60_Vel_0
Time_Shift_70
Sustain_On
Time_Shift_121
Note_On_73_Vel_78
Time_Shift_10
Note_On_56_Vel_68
Time_Shift_147
Note_On_74_Vel_77
Time_Shift_10
Note_On_59_Vel_71
Time_Shift_39
Note_On_73_Vel_0
Time_Shift_2
Note_On_68_Vel_0
Time_Shift_1
Sustain_Off
Time_Shift_16
Note_On_72_Vel_0
Time_Shift_8
Note_On_41_Vel_0
Time_Shift_7
Sustain_On
Time_Shift_98
Note_On_60_Vel_68
Time_Shift_80
Note_On_75_Vel_83
Time_Shift_72
Note_On_59_Vel_0
Time_Shift_4
Note_On_56_Vel_0
Time_Shift_1
Note_On_60_Vel_0
Time_Shift_4
Sustain_Off
Time_Shift_10
Note_On_74_Vel_0
Note_On_75_Vel_0
Time_Shift_4
Note_On_75_Vel_72
Time_Shift_1
Note_On_43_Vel_61
Time_Shift_19
Note_On_67_Vel_59
Time_Shift_1
Note_On_72_Vel_68
Time_Shift_67
Sustain_On
Time_Shift_5
Note_On_55_Vel_62
Time_Shift_140
Note_On_60_Vel_61
Time_Shift_158
Note_On_87_Vel_89
Time_Shift_8
Note_On_84_Vel_69
Time_Shift_24
Note_On_79_Vel_62
Time_Shift_4
Note_On_63_Vel_70
Time_Shift_153
Note_On_67_Vel_0
Time_Shift_4
Note_On_67_Vel_67
Time_Shift_169
Note_On_86_Vel_67
Time_Shift_19
Note_On_55_Vel_0
Time_Shift_6
Note_On_55_Vel_51
Time_Shift_25
Note_On_87_Vel_0
Time_Shift_6
Note_On_87_Vel_75
Time_Shift_40
Note_On_43_Vel_0
Time_Shift_7
Note_On_86_Vel_0
Time_Shift_7
Note_On_86_Vel_80
Time_Shift_47
Note_On_87_Vel_0
Time_Shift_9
Note_On_87_Vel_80
Time_Shift_1
Note_On_63_Vel_0
Time_Shift_36
Note_On_86_Vel_0
Time_Shift_5
Note_On_62_Vel_61
Time_Shift_1
Note_On_86_Vel_88
Time_Shift_20
Sustain_Off
Time_Shift_20
Sustain_On
Time_Shift_8
Note_On_87_Vel_0
Time_Shift_10
Note_On_87_Vel_86
Time_Shift_51
Note_On_86_Vel_0
Time_Shift_7
Note_On_86_Vel_78
Time_Shift_26
Note_On_85_Vel_80
Time_Shift_67
Note_On_86_Vel_0
Time_Shift_5
Note_On_86_Vel_87
Time_Shift_13
Note_On_87_Vel_0
Note_On_60_Vel_0
Time_Shift_5
Note_On_72_Vel_0
Note_On_84_Vel_0
Time_Shift_8
Note_On_75_Vel_0
Time_Shift_8
Sustain_Off
Time_Shift_7
Sustain_On
Time_Shift_23
Note_On_85_Vel_0
Time_Shift_11
Note_On_91_Vel_80
Time_Shift_8
Note_On_83_Vel_64
Time_Shift_21
Note_On_65_Vel_50
Time_Shift_198
Note_On_67_Vel_0
Time_Shift_4
Note_On_67_Vel_59
Time_Shift_104
Note_On_86_Vel_0
Time_Shift_4
Note_On_89_Vel_70
Time_Shift_7
Note_On_86_Vel_62
Time_Shift_91
Note_On_48_Vel_56
Time_Shift_12
Note_On_62_Vel_0
Note_On_83_Vel_0
Note_On_67_Vel_0
Note_On_65_Vel_0
Time_Shift_1
Note_On_89_Vel_0
Time_Shift_1
Note_On_91_Vel_0
Time_Shift_4
Sustain_Off
Time_Shift_3
Note_On_79_Vel_0
Time_Shift_3
Note_On_87_Vel_69
Time_Shift_1
Note_On_84_Vel_58
Time_Shift_3
Note_On_55_Vel_0
Note_On_86_Vel_0
Time_Shift_62
Sustain_On
Time_Shift_142
Note_On_55_Vel_58
Time_Shift_136
Note_On_71_Vel_61
Time_Shift_40
Note_On_60_Vel_60
Time_Shift_1
Note_On_67_Vel_58
Time_Shift_2
Note_On_75_Vel_67
Time_Shift_142
Note_On_63_Vel_63
Time_Shift_162
Note_On_83_Vel_69
Time_Shift_12
Note_On_60_Vel_0
Time_Shift_5
Note_On_60_Vel_54
Time_Shift_18
Note_On_75_Vel_0
Note_On_84_Vel_0
Note_On_87_Vel_0
Time_Shift_5
Note_On_84_Vel_63
Time_Shift_3
Note_On_75_Vel_58
Time_Shift_2
Note_On_87_Vel_76
Time_Shift_1
Note_On_79_Vel_61
Time_Shift_174
Note_On_55_Vel_0
Time_Shift_9
Note_On_55_Vel_51
Time_Shift_167
Note_On_71_Vel_0
Time_Shift_11
Note_On_71_Vel_61
Time_Shift_20
Note_On_75_Vel_0
Time_Shift_6
Note_On_75_Vel_59
Time_Shift_7
Note_On_72_Vel_58
Time_Shift_18
Note_On_67_Vel_0
Time_Shift_7
Note_On_51_Vel_44
Time_Shift_1
Note_On_67_Vel_42
Time_Shift_161
Note_On_60_Vel_0
Time_Shift_9
Note_On_60_Vel_54
Time_Shift_165
Note_On_41_Vel_59
Time_Shift_38
Note_On_87_Vel_0
Note_On_84_Vel_0
Time_Shift_1
Note_On_67_Vel_0
Time_Shift_2
Note_On_55_Vel_0
Time_Shift_1
Note_On_83_Vel_0
Note_On_63_Vel_0
Time_Shift_1
Note_On_48_Vel_0
Time_Shift_1
Note_On_79_Vel_0
Note_On_60_Vel_0
Note_On_51_Vel_0
Time_Shift_8
Sustain_Off
Time_Shift_4
Note_On_71_Vel_0
Time_Shift_8
Note_On_75_Vel_0
Time_Shift_8
Note_On_72_Vel_0
Time_Shift_3
Note_On_74_Vel_61
Time_Shift_7
Note_On_72_Vel_60
Time_Shift_15
Note_On_68_Vel_50
Time_Shift_15
Note_On_53_Vel_50
Time_Shift_6
Sustain_On
Time_Shift_153
Note_On_75_Vel_73
Time_Shift_42
Note_On_56_Vel_72
Time_Shift_124
Note_On_76_Vel_79
Time_Shift_22
Note_On_60_Vel_70
Time_Shift_160
Note_On_62_Vel_73
Time_Shift_66
Note_On_77_Vel_83
Time_Shift_85
Note_On_77_Vel_0
Time_Shift_11
Note_On_77_Vel_90
Time_Shift_31
Note_On_65_Vel_63
Time_Shift_143
Note_On_62_Vel_0
Time_Shift_11
Note_On_62_Vel_74
Time_Shift_150
Note_On_77_Vel_0
Time_Shift_5
Note_On_77_Vel_91
Time_Shift_26
Note_On_60_Vel_0
Time_Shift_5
Note_On_60_Vel_79
Time_Shift_2
Note_On_41_Vel_0
Time_Shift_131
Note_On_68_Vel_0
Time_Shift_6
Note_On_68_Vel_77
Time_Shift_162
Note_On_41_Vel_76
Time_Shift_30
Note_On_86_Vel_85
Time_Shift_5
Note_On_74_Vel_0
Time_Shift_1
Sustain_Off
Note_On_60_Vel_0
Note_On_56_Vel_0
Note_On_65_Vel_0
Note_On_68_Vel_0
Note_On_76_Vel_0
Note_On_75_Vel_0
Note_On_62_Vel_0
Time_Shift_1
Note_On_53_Vel_0
Note_On_72_Vel_0
Time_Shift_1
Note_On_80_Vel_69
Time_Shift_5
Note_On_84_Vel_62
Time_Shift_50
Sustain_On
Time_Shift_14
Note_On_53_Vel_68
Time_Shift_9
Note_On_41_Vel_0
Time_Shift_89
Note_On_87_Vel_95
Time_Shift_45
Note_On_56_Vel_75
Time_Shift_115
Note_On_60_Vel_85
Note_On_88_Vel_99
Time_Shift_168
Note_On_89_Vel_103
Time_Shift_1
Note_On_62_Vel_86
Time_Shift_150
Note_On_89_Vel_0
Time_Shift_7
Note_On_89_Vel_101
Time_Shift_16
Note_On_80_Vel_0
Note_On_86_Vel_0
Time_Shift_8
Note_On_84_Vel_0
Note_On_80_Vel_80
Time_Shift_3
Note_On_86_Vel_70
Time_Shift_5
Note_On_84_Vel_66
Time_Shift_4
Note_On_65_Vel_75
Time_Shift_134
Note_On_62_Vel_0
Time_Shift_11
Note_On_62_Vel_84
Time_Shift_81
Note_On_77_Vel_0
Time_Shift_7
Note_On_77_Vel_72
Time_Shift_24
Note_On_80_Vel_0
Time_Shift_6
Note_On_80_Vel_78
Time_Shift_48
Note_On_84_Vel_0
Time_Shift_7
Note_On_84_Vel_72
Time_Shift_23
Note_On_86_Vel_0
Time_Shift_5
Note_On_86_Vel_86
Time_Shift_11
Note_On_60_Vel_0
Time_Shift_7
Note_On_89_Vel_0
Time_Shift_4
Note_On_60_Vel_71
Time_Shift_5
Note_On_89_Vel_105
Time_Shift_156
Note_On_68_Vel_77
Time_Shift_81
Note_On_77_Vel_0
Time_Shift_7
Note_On_77_Vel_79
Time_Shift_69
Note_On_83_Vel_85
Time_Shift_16
Note_On_86_Vel_0
Time_Shift_5
Note_On_43_Vel_73
Time_Shift_6
Note_On_87_Vel_0
Note_On_86_Vel_76
Time_Shift_1
Note_On_53_Vel_0
Note_On_56_Vel_0
Time_Shift_1
Note_On_60_Vel_0
Note_On_88_Vel_0
Note_On_65_Vel_0
Note_On_68_Vel_0
Time_Shift_2
Sustain_Off
Time_Shift_16
Note_On_80_Vel_0
Note_On_84_Vel_0
Time_Shift_23
Sustain_On
Time_Shift_8
Note_On_89_Vel_0
Time_Shift_4
Note_On_89_Vel_99
Time_Shift_39
Note_On_55_Vel_61
Time_Shift_156
Note_On_91_Vel_97
Time_Shift_27
Note_On_59_Vel_55
Time_Shift_123
Sustain_Off
Time_Shift_27
Note_On_62_Vel_0
Time_Shift_6
Note_On_62_Vel_76
Time_Shift_17
Sustain_On
Time_Shift_141
Note_On_67_Vel_74
Time_Shift_51
Note_On_89_Vel_0
Time_Shift_9
Note_On_89_Vel_96
Time_Shift_71
Note_On_76_Vel_84
Time_Shift_28
Note_On_43_Vel_0
Time_Shift_8
Note_On_43_Vel_70
Time_Shift_8
Note_On_82_Vel_86
Time_Shift_42
Note_On_59_Vel_0
Time_Shift_1
Note_On_67_Vel_0
Note_On_55_Vel_0
Note_On_91_Vel_0
Time_Shift_1
Note_On_89_Vel_0
Time_Shift_1
Note_On_62_Vel_0
Time_Shift_1
Note_On_85_Vel_90
Time_Shift_5
Sustain_Off
Time_Shift_2
Note_On_83_Vel_0
Time_Shift_5
Note_On_88_Vel_97
Time_Shift_3
Note_On_77_Vel_0
Note_On_86_Vel_0
Time_Shift_38
Sustain_On
Time_Shift_146
Note_On_89_Vel_99
Time_Shift_12
Note_On_58_Vel_68
Time_Shift_148
Note_On_61_Vel_80
Time_Shift_173
Note_On_67_Vel_72
Time_Shift_43
Note_On_88_Vel_0
Time_Shift_11
Note_On_88_Vel_92
Time_Shift_122
Note_On_75_Vel_67
Time_Shift_28
Note_On_43_Vel_0
Time_Shift_8
Note_On_78_Vel_80
Time_Shift_29
Note_On_43_Vel_62
Time_Shift_5
Note_On_81_Vel_63
Time_Shift_73
Note_On_67_Vel_0
Time_Shift_1
Note_On_76_Vel_0
Note_On_82_Vel_0
Note_On_85_Vel_0
Time_Shift_1
Note_On_61_Vel_0
Time_Shift_1
Note_On_88_Vel_0
Time_Shift_1
Note_On_58_Vel_0
Time_Shift_1
Sustain_Off
Time_Shift_1
Note_On_81_Vel_0
Time_Shift_1
Note_On_84_Vel_77
Time_Shift_3
Note_On_87_Vel_94
Time_Shift_21
Note_On_43_Vel_0
Time_Shift_6
Note_On_43_Vel_54
Time_Shift_25
Note_On_89_Vel_0
Time_Shift_8
Sustain_On
Time_Shift_139
Note_On_57_Vel_58
Time_Shift_14
Note_On_43_Vel_0
Time_Shift_183
Note_On_60_Vel_58
Time_Shift_183
Note_On_66_Vel_56
Time_Shift_201
Sustain_Off
Note_On_86_Vel_65
Time_Shift_3
Note_On_83_Vel_58
Time_Shift_2
Note_On_87_Vel_0
Note_On_66_Vel_0
Note_On_57_Vel_0
Note_On_84_Vel_0
Note_On_60_Vel_0
Time_Shift_12
Note_On_75_Vel_0
Note_On_78_Vel_0
Time_Shift_13
Note_On_79_Vel_40
Note_On_59_Vel_48
Time_Shift_33
Sustain_On
Time_Shift_181
Note_On_65_Vel_54
Time_Shift_180
Note_On_79_Vel_0
Time_Shift_5
Note_On_79_Vel_80
Time_Shift_64
Note_On_62_Vel_49
Time_Shift_192
Note_On_59_Vel_0
Time_Shift_11
Note_On_59_Vel_52
Time_Shift_81
Note_On_79_Vel_0
Time_Shift_12
Note_On_79_Vel_87
Time_Shift_220
Note_On_84_Vel_87
Time_Shift_26
Sustain_Off
Time_Shift_1
Note_On_51_Vel_46
Time_Shift_18
Note_On_86_Vel_0
Time_Shift_3
Note_On_65_Vel_0
Note_On_83_Vel_0
Note_On_59_Vel_0
Time_Shift_3
Note_On_62_Vel_0
Time_Shift_2
Sustain_On
Time_Shift_174
Note_On_55_Vel_47
Time_Shift_5
Note_On_72_Vel_57
Time_Shift_166
Note_On_79_Vel_0
Time_Shift_10
Note_On_79_Vel_71
Time_Shift_26
Note_On_63_Vel_52
Time_Shift_160
Note_On_60_Vel_60
Time_Shift_207
Note_On_83_Vel_73
Time_Shift_17
Note_On_80_Vel_53
Time_Shift_6
Note_On_72_Vel_0
Time_Shift_1
Note_On_51_Vel_0
Note_On_60_Vel_0
Note_On_84_Vel_0
Note_On_63_Vel_0
Note_On_55_Vel_0
Time_Shift_10
Sustain_Off
Time_Shift_9
Note_On_79_Vel_0
Time_Shift_5
Note_On_53_Vel_41
Time_Shift_10
Sustain_On
Time_Shift_107
Note_On_84_Vel_81
Time_Shift_62
Note_On_83_Vel_0
Time_Shift_7
Note_On_83_Vel_70
Time_Shift_19
Note_On_56_Vel_47
Time_Shift_20
Note_On_84_Vel_0
Time_Shift_11
Note_On_84_Vel_68
Time_Shift_43
Note_On_83_Vel_0
Time_Shift_11
Note_On_83_Vel_79
Time_Shift_42
Note_On_84_Vel_0
Time_Shift_6
Note_On_84_Vel_73
Time_Shift_48
Note_On_83_Vel_0
Time_Shift_11
Note_On_83_Vel_70
Note_On_62_Vel_55
Time_Shift_35
Note_On_84_Vel_0
Time_Shift_5
Note_On_84_Vel_76
Time_Shift_38
Note_On_86_Vel_57
Time_Shift_26
Note_On_83_Vel_0
Time_Shift_11
Note_On_83_Vel_68
Time_Shift_28
Note_On_84_Vel_0
Time_Shift_7
Note_On_84_Vel_63
Time_Shift_34
Note_On_59_Vel_58
Time_Shift_28
Note_On_83_Vel_0
Time_Shift_6
Note_On_83_Vel_76
Time_Shift_83
Note_On_81_Vel_57
Time_Shift_65
Note_On_83_Vel_0
Time_Shift_5
Note_On_83_Vel_63
Time_Shift_71
Note_On_81_Vel_0
Time_Shift_11
Note_On_81_Vel_36
Time_Shift_112
Note_On_84_Vel_0
Time_Shift_6
Note_On_84_Vel_64
Time_Shift_65
Note_On_51_Vel_34
Time_Shift_121
Note_On_80_Vel_0
Note_On_86_Vel_0
Time_Shift_20
Note_On_72_Vel_50
Time_Shift_6
Note_On_62_Vel_0
Time_Shift_2
Note_On_59_Vel_0
Note_On_83_Vel_0
Note_On_56_Vel_0
Time_Shift_3
Note_On_53_Vel_0
Time_Shift_15
Note_On_81_Vel_0
Time_Shift_12
Sustain_Off
Time_Shift_11
Sustain_On
Time_Shift_20
Note_On_63_Vel_40
Time_Shift_96
Note_On_82_Vel_72
Time_Shift_33
Note_On_56_Vel_45
Time_Shift_139
Note_On_80_Vel_74
Time_Shift_23
Note_On_60_Vel_44
Time_Shift_160
Note_On_79_Vel_69
Time_Shift_29
Note_On_56_Vel_0
Time_Shift_2
Note_On_51_Vel_0
Note_On_82_Vel_0
Time_Shift_1
Note_On_60_Vel_0
Time_Shift_1
Note_On_63_Vel_0
Time_Shift_3
Note_On_84_Vel_0
Note_On_52_Vel_39
Time_Shift_8
Note_On_72_Vel_0
Time_Shift_122
Note_On_73_Vel_72
Time_Shift_1
Note_On_52_Vel_0
Time_Shift_10
Note_On_64_Vel_49
Note_On_52_Vel_43
Time_Shift_136
Note_On_79_Vel_0
Time_Shift_4
Note_On_79_Vel_83
Time_Shift_11
Note_On_80_Vel_0
Time_Shift_5
Note_On_55_Vel_56
Time_Shift_21
Note_On_72_Vel_54
Time_Shift_139
Note_On_60_Vel_49
Note_On_70_Vel_64
Time_Shift_153
Note_On_68_Vel_67
Time_Shift_12
Note_On_53_Vel_52
Time_Shift_141
Note_On_80_Vel_85
Time_Shift_21
Note_On_53_Vel_0
Time_Shift_4
Note_On_65_Vel_51
Time_Shift_1
Note_On_53_Vel_49
Time_Shift_14
Note_On_55_Vel_0
Time_Shift_7
Sustain_Off
Time_Shift_12
Sustain_On
Time_Shift_103
Note_On_77_Vel_80
Time_Shift_2
Note_On_56_Vel_55
Time_Shift_72
Note_On_52_Vel_0
Time_Shift_84
Note_On_73_Vel_0
Note_On_77_Vel_0
Time_Shift_4
Note_On_73_Vel_75
Time_Shift_1
Note_On_77_Vel_67
Time_Shift_2
Note_On_61_Vel_65
Time_Shift_39
Note_On_64_Vel_0
Time_Shift_92
Note_On_60_Vel_0
Time_Shift_27
Note_On_69_Vel_64
Time_Shift_1
Note_On_54_Vel_61
Time_Shift_141
Note_On_72_Vel_0
Time_Shift_4
Note_On_72_Vel_80
Time_Shift_24
Note_On_63_Vel_69
Time_Shift_48
Note_On_53_Vel_0
Note_On_77_Vel_0
Time_Shift_1
Note_On_80_Vel_0
Time_Shift_1
Note_On_73_Vel_0
Note_On_69_Vel_0
Note_On_61_Vel_0
Time_Shift_1
Note_On_56_Vel_0
Time_Shift_2
Sustain_Off
Time_Shift_4
Note_On_65_Vel_0
Note_On_68_Vel_0
Time_Shift_15
Note_On_79_Vel_0
Time_Shift_8
Sustain_On
Time_Shift_8
Note_On_70_Vel_0
Time_Shift_46
Note_On_72_Vel_0
Time_Shift_7
Note_On_72_Vel_74
Time_Shift_4
Note_On_60_Vel_68
Time_Shift_150
Note_On_72_Vel_0
Time_Shift_4
Note_On_72_Vel_82
Time_Shift_11
Note_On_54_Vel_0
Time_Shift_6
Note_On_54_Vel_64
Time_Shift_125
Note_On_72_Vel_0
Time_Shift_4
Note_On_72_Vel_80
Time_Shift_9
Note_On_67_Vel_65
Time_Shift_6
Note_On_55_Vel_61
Time_Shift_140
Note_On_73_Vel_87
Time_Shift_136
Note_On_63_Vel_0
Note_On_60_Vel_0
Time_Shift_1
Note_On_67_Vel_0
Note_On_55_Vel_0
Note_On_54_Vel_0
Time_Shift_8
Note_On_74_Vel_82
Time_Shift_1
Note_On_43_Vel_76
Sustain_Off
Time_Shift_25
Sustain_On
Time_Shift_121
Note_On_75_Vel_88
Time_Shift_17
Note_On_43_Vel_0
Time_Shift_11
Note_On_43_Vel_47
Time_Shift_10
Note_On_67_Vel_40
Time_Shift_118
Note_On_67_Vel_0
Time_Shift_7
Note_On_71_Vel_83
Note_On_43_Vel_0
Time_Shift_3
Note_On_31_Vel_78
Time_Shift_1
Note_On_67_Vel_66
Note_On_43_Vel_69
Note_On_65_Vel_75
Time_Shift_35
Note_On_73_Vel_0
Time_Shift_19
Sustain_Off
Time_Shift_4
Sustain_On
Time_Shift_76
Note_On_72_Vel_0
Time_Shift_3
Note_On_45_Vel_88
Time_Shift_3
Note_On_33_Vel_83
Note_On_72_Vel_91
Time_Shift_148
Note_On_73_Vel_94
Time_Shift_2
Note_On_46_Vel_98
Time_Shift_1
Note_On_34_Vel_90
Time_Shift_128
Note_On_74_Vel_0
Time_Shift_5
Note_On_47_Vel_101
Time_Shift_3
Note_On_74_Vel_95
Note_On_35_Vel_93
Time_Shift_152
Note_On_48_Vel_105
Time_Shift_1
Note_On_67_Vel_0
Note_On_75_Vel_0
Time_Shift_3
Note_On_36_Vel_95
Time_Shift_1
Note_On_75_Vel_93
Note_On_67_Vel_90
Time_Shift_1
Note_On_63_Vel_87
Time_Shift_6
Note_On_33_Vel_0
Note_On_34_Vel_0
Note_On_73_Vel_0
Note_On_47_Vel_0
Note_On_65_Vel_0
Note_On_45_Vel_0
Note_On_74_Vel_0
Note_On_46_Vel_0
Time_Shift_1
Note_On_71_Vel_0
Note_On_35_Vel_0
Time_Shift_10
Sustain_Off
Time_Shift_1
Note_On_31_Vel_0
Note_On_43_Vel_0
Time_Shift_46
Sustain_On
Time_Shift_72
Note_On_49_Vel_104
Note_On_61_Vel_96
Time_Shift_1
Note_On_73_Vel_81
Time_Shift_1
Note_On_37_Vel_85
Time_Shift_141
Note_On_72_Vel_0
Time_Shift_5
Note_On_50_Vel_102
Note_On_72_Vel_101
Time_Shift_3
Note_On_38_Vel_96
Time_Shift_2
Note_On_60_Vel_95
Time_Shift_132
Note_On_39_Vel_91
Note_On_51_Vel_108
Time_Shift_144
Note_On_63_Vel_0
Note_On_36_Vel_0
Time_Shift_1
Note_On_51_Vel_0
Note_On_48_Vel_0
Note_On_38_Vel_0
Time_Shift_1
Note_On_39_Vel_0
Note_On_37_Vel_0
Note_On_50_Vel_0
Note_On_49_Vel_0
Time_Shift_4
Note_On_60_Vel_0
Note_On_67_Vel_0
Note_On_72_Vel_0
Note_On_75_Vel_0
Time_Shift_5
Sustain_Off
Time_Shift_3
Note_On_73_Vel_0
Note_On_52_Vel_102
Time_Shift_1
Note_On_40_Vel_97
Time_Shift_1
Note_On_60_Vel_97
Note_On_72_Vel_96
Time_Shift_1
Note_On_67_Vel_89
Time_Shift_4
Note_On_61_Vel_0
Time_Shift_69
Sustain_On
Time_Shift_59
Note_On_61_Vel_105
Time_Shift_3
Note_On_73_Vel_98
Time_Shift_146
Note_On_52_Vel_0
Time_Shift_7
Note_On_40_Vel_0
Note_On_60_Vel_0
Note_On_72_Vel_0
Time_Shift_4
Note_On_52_Vel_105
Note_On_40_Vel_97
Time_Shift_1
Note_On_72_Vel_101
Time_Shift_2
Note_On_60_Vel_98
Time_Shift_42
Sustain_Off
Time_Shift_90
Note_On_72_Vel_0
Time_Shift_7
Note_On_67_Vel_0
Time_Shift_3
Note_On_72_Vel_104
Note_On_84_Vel_102
Time_Shift_5
Note_On_61_Vel_0
Time_Shift_15
Note_On_73_Vel_0
Time_Shift_8
Sustain_On
Time_Shift_123
Note_On_52_Vel_0
Note_On_60_Vel_0
Note_On_72_Vel_0
Time_Shift_2
Note_On_40_Vel_0
Time_Shift_2
Note_On_68_Vel_94
Time_Shift_1
Note_On_60_Vel_99
Note_On_72_Vel_95
Time_Shift_2
Note_On_65_Vel_85
Time_Shift_3
Note_On_41_Vel_94
Time_Shift_1
Note_On_53_Vel_100
Time_Shift_12
Note_On_84_Vel_0
Time_Shift_123
Note_On_65_Vel_0
Time_Shift_7
Note_On_42_Vel_96
Time_Shift_3
Note_On_54_Vel_102
Time_Shift_1
Note_On_65_Vel_86
Time_Shift_135
Note_On_60_Vel_0
Note_On_72_Vel_0
Time_Shift_7
Note_On_60_Vel_101
Time_Shift_2
Note_On_72_Vel_96
Time_Shift_2
Note_On_55_Vel_101
Note_On_43_Vel_98
Time_Shift_1
Note_On_67_Vel_83
Time_Shift_138
Note_On_56_Vel_106
Note_On_44_Vel_96
Time_Shift_149
Note_On_60_Vel_0
Note_On_72_Vel_0
Time_Shift_9
Note_On_58_Vel_107
Time_Shift_1
Note_On_60_Vel_105
Time_Shift_1
Note_On_72_Vel_101
Note_On_76_Vel_97
Time_Shift_1
Note_On_46_Vel_101
Note_On_64_Vel_94
Time_Shift_13
Sustain_Off
Time_Shift_2
Note_On_68_Vel_0
Note_On_54_Vel_0
Time_Shift_1
Note_On_42_Vel_0
Note_On_41_Vel_0
Note_On_56_Vel_0
Note_On_65_Vel_0
Note_On_53_Vel_0
Note_On_44_Vel_0
Time_Shift_1
Note_On_55_Vel_0
Time_Shift_1
Note_On_43_Vel_0
Time_Shift_9
Note_On_67_Vel_0
Time_Shift_53
Sustain_On
Time_Shift_56
Note_On_61_Vel_103
Time_Shift_1
Note_On_73_Vel_102
Time_Shift_151
Note_On_46_Vel_0
Note_On_58_Vel_0
Note_On_60_Vel_0
Note_On_72_Vel_0
Time_Shift_4
Note_On_58_Vel_106
Time_Shift_2
Note_On_77_Vel_102
Time_Shift_2
Note_On_60_Vel_105
Time_Shift_1
Note_On_72_Vel_105
Time_Shift_1
Note_On_46_Vel_103
Time_Shift_51
Note_On_61_Vel_0
Time_Shift_2
Note_On_73_Vel_0
Note_On_64_Vel_0
Time_Shift_12
Sustain_Off
Time_Shift_9
Note_On_76_Vel_0
Time_Shift_69
Note_On_72_Vel_0
Time_Shift_7
Note_On_72_Vel_94
Note_On_84_Vel_100
Time_Shift_1
Note_On_74_Vel_92
Note_On_60_Vel_0
Note_On_86_Vel_87
Time_Shift_31
Note_On_58_Vel_0
Time_Shift_10
Note_On_84_Vel_0
Time_Shift_5
Note_On_77_Vel_0
Time_Shift_23
Note_On_72_Vel_0
Note_On_86_Vel_0
Time_Shift_8
Note_On_46_Vel_0
Time_Shift_76
Note_On_56_Vel_101
Time_Shift_1
Note_On_44_Vel_93
Time_Shift_2
Note_On_72_Vel_93
Time_Shift_1
Note_On_62_Vel_90
Note_On_60_Vel_93
Time_Shift_3
Note_On_68_Vel_85
Time_Shift_1
Note_On_65_Vel_80
Time_Shift_16
Sustain_On
Time_Shift_115
Note_On_44_Vel_0
Time_Shift_4
Note_On_55_Vel_96
Time_Shift_1
Note_On_43_Vel_94
Time_Shift_3
Note_On_68_Vel_0
Note_On_72_Vel_0
Time_Shift_3
Note_On_44_Vel_82
Time_Shift_2
Note_On_68_Vel_65
Time_Shift_6
Note_On_72_Vel_70
Time_Shift_135
Note_On_60_Vel_0
Note_On_72_Vel_0
Time_Shift_10
Note_On_72_Vel_94
Note_On_60_Vel_99
Note_On_42_Vel_102
Time_Shift_1
Note_On_54_Vel_97
Time_Shift_132
Note_On_53_Vel_96
Note_On_41_Vel_97
Time_Shift_79
Note_On_74_Vel_0
Time_Shift_77
Note_On_60_Vel_0
Note_On_72_Vel_0
Time_Shift_5
Note_On_72_Vel_93
Note_On_60_Vel_92
Time_Shift_1
Note_On_51_Vel_102
Note_On_39_Vel_97
Time_Shift_5
Note_On_67_Vel_89
Time_Shift_1
Note_On_65_Vel_0
Time_Shift_1
Note_On_68_Vel_0
Note_On_56_Vel_0
Note_On_42_Vel_0
Note_On_44_Vel_0
Note_On_53_Vel_0
Time_Shift_1
Note_On_55_Vel_0
Sustain_Off
Note_On_62_Vel_0
Note_On_54_Vel_0
Note_On_43_Vel_0
Note_On_41_Vel_0
Time_Shift_40
Sustain_On
Time_Shift_102
Note_On_74_Vel_100
Time_Shift_1
Note_On_62_Vel_94
Time_Shift_135
Note_On_39_Vel_0
Note_On_51_Vel_0
Note_On_60_Vel_0
Note_On_72_Vel_0
Time_Shift_10
Note_On_72_Vel_103
Time_Shift_1
Note_On_51_Vel_98
Note_On_39_Vel_92
Note_On_60_Vel_98
Time_Shift_46
Note_On_67_Vel_0
Note_On_62_Vel_0
Time_Shift_1
Note_On_60_Vel_0
Note_On_74_Vel_0
Note_On_72_Vel_0
Sustain_Off
Time_Shift_100
Note_On_84_Vel_101
Time_Shift_1
Note_On_72_Vel_103
Time_Shift_67
Note_On_84_Vel_0
Time_Shift_1
Note_On_72_Vel_0
Time_Shift_8
Note_On_51_Vel_0
Time_Shift_18
Note_On_39_Vel_0
Time_Shift_59
Note_On_50_Vel_91
Time_Shift_1
Note_On_72_Vel_93
Note_On_38_Vel_86
Note_On_60_Vel_98
Note_On_66_Vel_87
Time_Shift_40
Sustain_On
Time_Shift_111
Note_On_49_Vel_98
Note_On_37_Vel_90
Time_Shift_143
Note_On_38_Vel_0
Note_On_50_Vel_0
Note_On_60_Vel_0
Note_On_72_Vel_0
Time_Shift_5
Note_On_50_Vel_98
Time_Shift_2
Note_On_72_Vel_100
Note_On_60_Vel_100
Time_Shift_2
Note_On_38_Vel_90
Time_Shift_147
Note_On_39_Vel_87
Time_Shift_1
Note_On_51_Vel_92
Time_Shift_150
Note_On_49_Vel_0
Note_On_38_Vel_0
Note_On_50_Vel_0
Note_On_60_Vel_0
Time_Shift_1
Note_On_51_Vel_0
Sustain_Off
Time_Shift_2
Note_On_37_Vel_0
Time_Shift_2
Note_On_50_Vel_74
Time_Shift_2
Note_On_66_Vel_0
Note_On_72_Vel_0
Time_Shift_1
Note_On_38_Vel_72
Time_Shift_1
Note_On_60_Vel_84
Time_Shift_2
Note_On_72_Vel_87
Time_Shift_2
Note_On_66_Vel_71
Time_Shift_18
Note_On_39_Vel_0
Time_Shift_92
Sustain_On
Time_Shift_46
Note_On_38_Vel_0
Time_Shift_4
Note_On_71_Vel_83
Time_Shift_6
Note_On_59_Vel_84
Note_On_38_Vel_72
Time_Shift_143
Note_On_38_Vel_0
Note_On_50_Vel_0
Time_Shift_4
Note_On_70_Vel_87
Note_On_58_Vel_81
Time_Shift_4
Note_On_50_Vel_75
Time_Shift_3
Note_On_38_Vel_74
Time_Shift_2
Sustain_Off
Time_Shift_12
Note_On_71_Vel_0
Time_Shift_1
Note_On_66_Vel_0
Note_On_59_Vel_0
Time_Shift_5
Note_On_60_Vel_0
Time_Shift_8
Note_On_72_Vel_0
Time_Shift_15
Sustain_On
Time_Shift_103
Note_On_69_Vel_83
Note_On_57_Vel_81
Time_Shift_155
Sustain_Off
Time_Shift_19
Note_On_58_Vel_0
Time_Shift_3
Note_On_62_Vel_72
Note_On_67_Vel_73
Note_On_55_Vel_70
Note_On_70_Vel_0
Note_On_57_Vel_0
Time_Shift_1
Note_On_69_Vel_0
Time_Shift_1
Note_On_58_Vel_65
Time_Shift_3
Note_On_43_Vel_71
Time_Shift_3
Note_On_31_Vel_72
Time_Shift_12
Note_On_50_Vel_0
Time_Shift_7
Note_On_38_Vel_0
Time_Shift_54
Sustain_On
Time_Shift_8
Note_On_55_Vel_0
Time_Shift_7
Note_On_31_Vel_0
Time_Shift_50
Note_On_44_Vel_86
Time_Shift_1
Note_On_32_Vel_78
Time_Shift_134
Note_On_67_Vel_0
Time_Shift_6
Note_On_45_Vel_83
Time_Shift_4
Note_On_33_Vel_79
Time_Shift_1
Note_On_55_Vel_78
Note_On_67_Vel_91
Time_Shift_148
Note_On_46_Vel_99
Time_Shift_1
Note_On_34_Vel_85
Time_Shift_139
Sustain_Off
Time_Shift_5
Note_On_32_Vel_0
Time_Shift_1
Note_On_46_Vel_0
Note_On_34_Vel_0
Time_Shift_1
Note_On_33_Vel_0
Note_On_44_Vel_0
Note_On_45_Vel_0
Time_Shift_1
Note_On_55_Vel_0
Note_On_62_Vel_0
Note_On_67_Vel_0
Time_Shift_4
Note_On_47_Vel_96
Note_On_67_Vel_86
Note_On_62_Vel_89
Time_Shift_1
Note_On_35_Vel_87
Time_Shift_1
Note_On_55_Vel_88
Time_Shift_2
Note_On_58_Vel_0
Time_Shift_23
Sustain_On
Time_Shift_109
Note_On_56_Vel_101
Time_Shift_2
Note_On_68_Vel_89
Time_Shift_142
Note_On_67_Vel_0
Time_Shift_8
Note_On_35_Vel_0
Note_On_47_Vel_0
Time_Shift_2
Note_On_67_Vel_93
Time_Shift_2
Note_On_59_Vel_85
Time_Shift_1
Note_On_74_Vel_89
Note_On_47_Vel_96
Time_Shift_3
Note_On_71_Vel_88
Time_Shift_3
Note_On_35_Vel_89
Time_Shift_2
Sustain_Off
Time_Shift_13
Note_On_62_Vel_0
Time_Shift_1
Note_On_68_Vel_0
Time_Shift_2
Note_On_56_Vel_0
Note_On_55_Vel_0
Time_Shift_2
Note_On_43_Vel_0
Time_Shift_23
Note_On_59_Vel_0
Time_Shift_92
Note_On_67_Vel_0
Time_Shift_8
Note_On_79_Vel_103
Time_Shift_1
Note_On_67_Vel_101
Time_Shift_52
Note_On_67_Vel_0
Time_Shift_1
Note_On_79_Vel_0
Time_Shift_15
Note_On_47_Vel_0
Note_On_71_Vel_0
Time_Shift_7
Note_On_35_Vel_0
Time_Shift_16
Note_On_74_Vel_0
Time_Shift_58
Note_On_60_Vel_87
Time_Shift_3
Note_On_67_Vel_93
Time_Shift_1
Note_On_55_Vel_94
Time_Shift_2
Note_On_48_Vel_97
Note_On_63_Vel_93
Time_Shift_2
Note_On_36_Vel_87
Time_Shift_26
Sustain_On
Time_Shift_116
Note_On_49_Vel_99
Time_Shift_2
Note_On_37_Vel_87
Time_Shift_143
Note_On_55_Vel_0
Note_On_67_Vel_0
Time_Shift_6
Note_On_50_Vel_103
Time_Shift_4
Note_On_67_Vel_96
Time_Shift_1
Note_On_62_Vel_98
Note_On_38_Vel_100
Note_On_55_Vel_97
Time_Shift_140
Note_On_51_Vel_103
Time_Shift_1
Note_On_39_Vel_91
Time_Shift_147
Note_On_67_Vel_0
Time_Shift_8
Note_On_55_Vel_0
Note_On_62_Vel_0
Time_Shift_3
Note_On_53_Vel_101
Time_Shift_1
Note_On_41_Vel_100
Note_On_67_Vel_89
Time_Shift_1
Note_On_62_Vel_95
Note_On_55_Vel_92
Time_Shift_1
Note_On_59_Vel_92
Time_Shift_9
Note_On_60_Vel_0
Time_Shift_6
Sustain_Off
Time_Shift_6
Note_On_51_Vel_0
Note_On_63_Vel_0
Time_Shift_1
Note_On_50_Vel_0
Note_On_36_Vel_0
Time_Shift_1
Note_On_38_Vel_0
Time_Shift_1
Note_On_48_Vel_0
Note_On_37_Vel_0
Time_Shift_1
Note_On_49_Vel_0
Time_Shift_38
Sustain_On
Time_Shift_16
Note_On_55_Vel_0
Time_Shift_46
Note_On_62_Vel_0
Time_Shift_5
Note_On_56_Vel_101
Time_Shift_5
Note_On_68_Vel_90
Time_Shift_1
Note_On_62_Vel_75
Time_Shift_135
Note_On_67_Vel_0
Time_Shift_7
Note_On_41_Vel_0
Note_On_53_Vel_0
Time_Shift_3
Note_On_60_Vel_93
Time_Shift_1
Note_On_67_Vel_102
Time_Shift_2
Note_On_55_Vel_86
Time_Shift_2
Note_On_60_Vel_0
Time_Shift_1
Note_On_53_Vel_94
Time_Shift_1
Note_On_41_Vel_100
Time_Shift_36
Note_On_39_Vel_0
Time_Shift_5
Sustain_Off
Time_Shift_2
Note_On_59_Vel_0
Time_Shift_1
Note_On_56_Vel_0
Note_On_55_Vel_0
Time_Shift_1
Note_On_62_Vel_0
Time_Shift_2
Note_On_68_Vel_0
Time_Shift_89
Note_On_67_Vel_0
Time_Shift_8
Note_On_79_Vel_103
Note_On_67_Vel_104
Time_Shift_46
Note_On_53_Vel_0
Time_Shift_4
Note_On_79_Vel_0
Time_Shift_19
Note_On_67_Vel_0
Time_Shift_15
Note_On_41_Vel_0
Time_Shift_75
Note_On_55_Vel_96
Time_Shift_3
Note_On_67_Vel_97
Time_Shift_2
Note_On_60_Vel_83
Time_Shift_1
Note_On_63_Vel_95
Time_Shift_1
Note_On_39_Vel_93
Note_On_51_Vel_98
Time_Shift_26
Sustain_On
Time_Shift_111
Note_On_50_Vel_102
Time_Shift_1
Note_On_38_Vel_97
Time_Shift_141
Note_On_55_Vel_0
Note_On_67_Vel_0
Time_Shift_10
Note_On_67_Vel_102
Time_Shift_1
Note_On_55_Vel_103
Time_Shift_9
Note_On_49_Vel_91
Time_Shift_6
Note_On_37_Vel_90
Time_Shift_13
Note_On_39_Vel_0
Time_Shift_4
Note_On_39_Vel_58
Time_Shift_114
Note_On_48_Vel_99
Time_Shift_1
Note_On_36_Vel_87
Time_Shift_149
Note_On_55_Vel_0
Note_On_67_Vel_0
Time_Shift_4
Note_On_46_Vel_96
Time_Shift_1
Note_On_67_Vel_90
Note_On_55_Vel_89
Note_On_34_Vel_85
Time_Shift_1
Note_On_61_Vel_90
Time_Shift_147
Note_On_56_Vel_98
Time_Shift_4
Note_On_68_Vel_100
Time_Shift_1
Note_On_32_Vel_80
Time_Shift_1
Note_On_44_Vel_88
Time_Shift_143
Note_On_43_Vel_91
Time_Shift_1
Note_On_31_Vel_88
Time_Shift_2
Note_On_58_Vel_99
Note_On_70_Vel_100
Time_Shift_141
Note_On_60_Vel_0
Time_Shift_6
Note_On_72_Vel_102
Note_On_60_Vel_103
Time_Shift_2
Note_On_29_Vel_88
Time_Shift_1
Note_On_41_Vel_90
Time_Shift_144
Note_On_61_Vel_0
Time_Shift_8
Note_On_37_Vel_0
Note_On_49_Vel_0
Note_On_63_Vel_0
Time_Shift_3
Note_On_73_Vel_106
Note_On_61_Vel_108
Time_Shift_2
Note_On_63_Vel_92
Note_On_49_Vel_94
Time_Shift_1
Note_On_37_Vel_85
Time_Shift_23
Sustain_Off
Time_Shift_8
Note_On_41_Vel_0
Time_Shift_3
Note_On_34_Vel_0
Note_On_72_Vel_0
Note_On_51_Vel_0
Note_On_38_Vel_0
Time_Shift_1
Note_On_67_Vel_0
Note_On_50_Vel_0
Note_On_48_Vel_0
Note_On_36_Vel_0
Note_On_58_Vel_0
Note_On_46_Vel_0
Note_On_55_Vel_0
Note_On_56_Vel_0
Note_On_43_Vel_0
Note_On_39_Vel_0
Time_Shift_1
Note_On_31_Vel_0
Note_On_32_Vel_0
Note_On_60_Vel_0
Note_On_44_Vel_0
Time_Shift_12
Note_On_68_Vel_0
Time_Shift_8
Note_On_29_Vel_0
Time_Shift_38
Sustain_On
Time_Shift_54
Note_On_49_Vel_0
Time_Shift_3
Note_On_43_Vel_90
Time_Shift_1
Note_On_31_Vel_80
Time_Shift_157
Note_On_73_Vel_0
Time_Shift_8
Note_On_37_Vel_0
Note_On_61_Vel_0
Time_Shift_3
Note_On_73_Vel_103
Time_Shift_1
Note_On_61_Vel_101
Note_On_46_Vel_88
Time_Shift_2
Note_On_34_Vel_78
Time_Shift_12
Note_On_31_Vel_0
Time_Shift_2
Note_On_43_Vel_0
Time_Shift_18
Note_On_63_Vel_0
Time_Shift_8
Sustain_Off
Time_Shift_7
Note_On_70_Vel_0
Time_Shift_77
Sustain_On
Time_Shift_34
Note_On_50_Vel_87
Time_Shift_2
Note_On_38_Vel_83
Time_Shift_185
Note_On_72_Vel_94
Time_Shift_17
Note_On_34_Vel_0
Time_Shift_2
Note_On_60_Vel_68
Time_Shift_1
Sustain_Off
Time_Shift_5
Note_On_38_Vel_0
Note_On_73_Vel_0
Note_On_46_Vel_0
Note_On_50_Vel_0
Time_Shift_1
Note_On_67_Vel_59
Time_Shift_22
Note_On_39_Vel_60
Time_Shift_123
Note_On_61_Vel_0
Time_Shift_35
Note_On_70_Vel_87
Time_Shift_3
Note_On_67_Vel_0
Time_Shift_5
Note_On_67_Vel_49
Time_Shift_3
Note_On_39_Vel_0
Time_Shift_12
Note_On_39_Vel_59
Time_Shift_11
Sustain_On
Time_Shift_8
Note_On_60_Vel_0
Time_Shift_143
Note_On_65_Vel_79
Time_Shift_1
Note_On_61_Vel_77
Time_Shift_2
Note_On_72_Vel_0
Time_Shift_10
Note_On_70_Vel_0
Time_Shift_9
Sustain_Off
Time_Shift_4
Note_On_39_Vel_0
Time_Shift_4
Note_On_51_Vel_47
Time_Shift_2
Note_On_39_Vel_50
Time_Shift_63
Note_On_67_Vel_0
Time_Shift_54
Sustain_On
Time_Shift_48
Note_On_67_Vel_72
Time_Shift_1
Note_On_63_Vel_70
Time_Shift_177
Sustain_Off
Time_Shift_8
Note_On_67_Vel_0
Time_Shift_5
Note_On_65_Vel_0
Time_Shift_3
Note_On_63_Vel_0
Time_Shift_6
Note_On_68_Vel_72
Time_Shift_13
Note_On_39_Vel_0
Time_Shift_3
Note_On_60_Vel_56
Time_Shift_4
Note_On_61_Vel_0
Time_Shift_9
Note_On_44_Vel_56
Time_Shift_91
Note_On_60_Vel_0
Time_Shift_27
Note_On_71_Vel_76
Time_Shift_4
Sustain_On
Time_Shift_12
Note_On_59_Vel_59
Time_Shift_42
Note_On_44_Vel_0
Time_Shift_13
Sustain_Off
Time_Shift_10
Note_On_51_Vel_0
Note_On_68_Vel_0
Time_Shift_6
Note_On_71_Vel_0
Time_Shift_40
Note_On_59_Vel_0
Time_Shift_25
Note_On_72_Vel_73
Note_On_60_Vel_70
Time_Shift_13
Sustain_On
Time_Shift_11
Note_On_48_Vel_29
Time_Shift_2
Note_On_55_Vel_28
Time_Shift_3
Note_On_48_Vel_0
Time_Shift_104
Note_On_73_Vel_77
Time_Shift_12
Note_On_61_Vel_67
Time_Shift_113
Sustain_Off
Time_Shift_2
Note_On_60_Vel_0
Time_Shift_3
Note_On_61_Vel_0
Time_Shift_2
Note_On_72_Vel_0
Note_On_73_Vel_0
Time_Shift_2
Note_On_55_Vel_0
Time_Shift_9
Note_On_74_Vel_77
Time_Shift_18
Note_On_54_Vel_59
Time_Shift_1
Note_On_62_Vel_61
Time_Shift_3
Note_On_48_Vel_57
Time_Shift_10
Note_On_57_Vel_45
Time_Shift_59
Sustain_On
Time_Shift_52
Note_On_55_Vel_60
Time_Shift_2
Note_On_46_Vel_61
Time_Shift_3
Note_On_50_Vel_58
Time_Shift_135
Note_On_62_Vel_0
Note_On_74_Vel_0
Time_Shift_4
Note_On_48_Vel_0
Note_On_46_Vel_0
Note_On_55_Vel_0
Time_Shift_1
Sustain_Off
Note_On_54_Vel_0
Time_Shift_1
Note_On_74_Vel_83
Time_Shift_1
Note_On_50_Vel_0
Time_Shift_4
Note_On_62_Vel_77
Time_Shift_1
Note_On_50_Vel_58
Time_Shift_3
Note_On_57_Vel_0
Time_Shift_3
Note_On_56_Vel_60
Time_Shift_8
Note_On_47_Vel_52
Time_Shift_58
Sustain_On
Time_Shift_56
Note_On_57_Vel_70
Time_Shift_8
Note_On_48_Vel_69
Time_Shift_128
Note_On_62_Vel_0
Note_On_74_Vel_0
Time_Shift_8
Note_On_57_Vel_0
Time_Shift_1
Note_On_48_Vel_0
Note_On_56_Vel_0
Time_Shift_2
Note_On_74_Vel_77
Note_On_62_Vel_72
Time_Shift_1
Sustain_Off
Time_Shift_3
Note_On_58_Vel_62
Time_Shift_11
Note_On_46_Vel_57
Time_Shift_5
Note_On_47_Vel_0
Time_Shift_46
Note_On_62_Vel_0
Time_Shift_59
Note_On_75_Vel_80
Time_Shift_4
Note_On_63_Vel_83
Time_Shift_6
Sustain_On
Time_Shift_122
Note_On_76_Vel_86
Time_Shift_4
Note_On_64_Vel_75
Note_On_49_Vel_69
Time_Shift_104
Note_On_50_Vel_0
Time_Shift_5
Note_On_50_Vel_70
Time_Shift_14
Note_On_77_Vel_89
Time_Shift_2
Note_On_65_Vel_87
Time_Shift_134
Note_On_78_Vel_87
Time_Shift_3
Note_On_75_Vel_0
Note_On_45_Vel_59
Note_On_58_Vel_0
Note_On_77_Vel_0
Note_On_76_Vel_0
Note_On_74_Vel_0
Note_On_64_Vel_0
Time_Shift_1
Note_On_65_Vel_0
Note_On_63_Vel_0
Note_On_46_Vel_0
Time_Shift_1
Note_On_49_Vel_0
Time_Shift_1
Sustain_Off
Time_Shift_4
Note_On_57_Vel_57
Time_Shift_3
Note_On_66_Vel_73
Time_Shift_1
Note_On_60_Vel_58
Time_Shift_77
Sustain_On
Time_Shift_38
Note_On_78_Vel_0
Time_Shift_7
Note_On_51_Vel_74
Time_Shift_4
Note_On_78_Vel_69
Time_Shift_121
Note_On_45_Vel_0
Time_Shift_2
Note_On_60_Vel_0
Time_Shift_2
Sustain_Off
Time_Shift_10
Note_On_78_Vel_0
Time_Shift_7
Note_On_78_Vel_89
Time_Shift_1
Note_On_50_Vel_0
Note_On_66_Vel_0
Time_Shift_5
Note_On_50_Vel_59
Time_Shift_1
Note_On_66_Vel_73
Time_Shift_17
Note_On_57_Vel_0
Time_Shift_31
Sustain_On
Time_Shift_65
Note_On_57_Vel_71
Time_Shift_113
Note_On_43_Vel_61
Time_Shift_10
Note_On_51_Vel_0
Time_Shift_1
Note_On_66_Vel_0
Note_On_57_Vel_0
Note_On_50_Vel_0
Note_On_78_Vel_0
Time_Shift_7
Sustain_Off
Time_Shift_13
Note_On_79_Vel_73
Time_Shift_2
Note_On_67_Vel_73
Time_Shift_42
Sustain_On
Time_Shift_11
Note_On_58_Vel_62
Time_Shift_65
Note_On_80_Vel_84
Time_Shift_1
Note_On_43_Vel_0
Time_Shift_3
Note_On_68_Vel_78
Time_Shift_1
Note_On_79_Vel_0
Time_Shift_5
Sustain_Off
Time_Shift_22
Note_On_67_Vel_0
Time_Shift_9
Note_On_57_Vel_40
Time_Shift_11
Note_On_68_Vel_0
Time_Shift_41
Sustain_On
Time_Shift_35
Note_On_81_Vel_88
Time_Shift_7
Note_On_69_Vel_69
Time_Shift_23
Note_On_67_Vel_36
Time_Shift_99
Note_On_82_Vel_92
Time_Shift_1
Note_On_70_Vel_83
Time_Shift_92
Note_On_69_Vel_0
Time_Shift_1
Note_On_81_Vel_0
Note_On_58_Vel_0
Time_Shift_5
Note_On_82_Vel_0
Time_Shift_1
Note_On_70_Vel_0
Time_Shift_5
Note_On_57_Vel_0
Note_On_80_Vel_0
Time_Shift_8
Note_On_67_Vel_0
Time_Shift_2
Sustain_Off
Time_Shift_27
Note_On_83_Vel_86
Time_Shift_3
Note_On_63_Vel_73
Time_Shift_2
Note_On_57_Vel_65
Note_On_71_Vel_79
Time_Shift_6
Note_On_54_Vel_64
Time_Shift_13
Sustain_On
Time_Shift_100
Note_On_57_Vel_0
Time_Shift_6
Note_On_64_Vel_67
Time_Shift_1
Note_On_59_Vel_70
Note_On_57_Vel_65
Time_Shift_1
Note_On_55_Vel_66
Time_Shift_131
Note_On_83_Vel_0
Time_Shift_7
Note_On_71_Vel_0
Time_Shift_4
Note_On_83_Vel_93
Note_On_71_Vel_87
Note_On_65_Vel_72
Time_Shift_1
Note_On_54_Vel_0
Time_Shift_4
Sustain_Off
Time_Shift_1
Note_On_55_Vel_0
Time_Shift_1
Note_On_56_Vel_72
Time_Shift_1
Note_On_63_Vel_0
Note_On_64_Vel_0
Note_On_57_Vel_0
Time_Shift_27
Sustain_On
Time_Shift_85
Note_On_66_Vel_85
Time_Shift_3
Note_On_57_Vel_68
Time_Shift_127
Note_On_83_Vel_0
Time_Shift_6
Note_On_57_Vel_0
Time_Shift_1
Note_On_66_Vel_0
Note_On_71_Vel_0
Time_Shift_1
Note_On_67_Vel_72
Time_Shift_2
Note_On_55_Vel_71
Sustain_Off
Time_Shift_1
Note_On_65_Vel_0
Note_On_83_Vel_87
Time_Shift_1
Note_On_71_Vel_73
Time_Shift_3
Note_On_56_Vel_0
Note_On_59_Vel_0
Time_Shift_69
Sustain_On
Time_Shift_8
Note_On_55_Vel_0
Time_Shift_49
Note_On_84_Vel_90
Note_On_72_Vel_87
Time_Shift_39
Note_On_55_Vel_49
Time_Shift_88
Note_On_85_Vel_95
Time_Shift_3
Note_On_58_Vel_73
Time_Shift_2
Note_On_73_Vel_86
Time_Shift_34
Note_On_67_Vel_0
Time_Shift_42
Note_On_59_Vel_70
Time_Shift_39
Note_On_86_Vel_92
Time_Shift_6
Note_On_74_Vel_72
Time_Shift_5
Note_On_83_Vel_0
Time_Shift_6
Note_On_83_Vel_54
Time_Shift_20
Note_On_76_Vel_42
Time_Shift_33
Note_On_54_Vel_85
Time_Shift_41
Sustain_Off
Time_Shift_2
Note_On_73_Vel_0
Time_Shift_1
Note_On_85_Vel_0
Note_On_83_Vel_0
Note_On_84_Vel_0
Note_On_86_Vel_0
Time_Shift_1
Note_On_74_Vel_0
Note_On_58_Vel_0
Note_On_76_Vel_0
Note_On_72_Vel_0
Time_Shift_1
Note_On_59_Vel_0
Time_Shift_3
Note_On_71_Vel_0
Time_Shift_7
Note_On_55_Vel_0
Time_Shift_11
Note_On_87_Vel_89
Time_Shift_2
Note_On_75_Vel_83
Time_Shift_22
Note_On_69_Vel_70
Time_Shift_4
Note_On_54_Vel_0
Time_Shift_7
Sustain_On
Time_Shift_94
Note_On_60_Vel_85
Time_Shift_129
Note_On_87_Vel_0
Time_Shift_5
Note_On_59_Vel_85
Time_Shift_3
Note_On_75_Vel_0
Time_Shift_3
Note_On_69_Vel_0
Note_On_87_Vel_90
Time_Shift_2
Note_On_75_Vel_90
Time_Shift_41
Sustain_Off
Time_Shift_75
Note_On_66_Vel_79
Time_Shift_9
Sustain_On
Time_Shift_96
Note_On_52_Vel_79
Time_Shift_27
Note_On_59_Vel_0
Time_Shift_6
Note_On_59_Vel_81
Time_Shift_11
Note_On_88_Vel_95
Time_Shift_2
Note_On_76_Vel_91
Time_Shift_7
Note_On_67_Vel_90
Time_Shift_4
Sustain_Off
Time_Shift_3
Note_On_75_Vel_0
Time_Shift_1
Note_On_87_Vel_0
Time_Shift_2
Note_On_66_Vel_0
Time_Shift_2
Note_On_52_Vel_0
Time_Shift_1
Note_On_60_Vel_0
Time_Shift_3
Note_On_59_Vel_0
Time_Shift_9
Note_On_67_Vel_0
Time_Shift_5
Note_On_76_Vel_0
Time_Shift_29
Note_On_88_Vel_0
Time_Shift_43
Note_On_89_Vel_94
Time_Shift_6
Note_On_77_Vel_81
Time_Shift_124
Note_On_78_Vel_78
Time_Shift_4
Note_On_90_Vel_81
Time_Shift_30
Note_On_77_Vel_0
Note_On_89_Vel_0
Time_Shift_23
Note_On_78_Vel_0
Time_Shift_8
Note_On_90_Vel_0
Time_Shift_43
Note_On_91_Vel_96
Time_Shift_3
Note_On_79_Vel_84
Time_Shift_30
Note_On_79_Vel_0
Time_Shift_100
Note_On_92_Vel_95
Time_Shift_6
Note_On_59_Vel_64
Note_On_80_Vel_75
Time_Shift_3
Note_On_47_Vel_64
Time_Shift_7
Note_On_59_Vel_0
Note_On_91_Vel_0
Time_Shift_23
Note_On_47_Vel_0
Time_Shift_1
Note_On_80_Vel_0
Time_Shift_37
Note_On_92_Vel_0
Time_Shift_42
Note_On_79_Vel_79
Note_On_91_Vel_85
Time_Shift_24
Note_On_79_Vel_0
Time_Shift_72
Note_On_91_Vel_0
Time_Shift_28
Note_On_90_Vel_96
Time_Shift_5
Note_On_62_Vel_69
Time_Shift_1
Note_On_65_Vel_68
Time_Shift_8
Note_On_55_Vel_59
Time_Shift_1
Note_On_81_Vel_69
Time_Shift_16
Note_On_62_Vel_0
Time_Shift_11
Note_On_55_Vel_0
Time_Shift_7
Note_On_65_Vel_0
Time_Shift_31
Note_On_81_Vel_0
Time_Shift_30
Note_On_89_Vel_92
Time_Shift_22
Note_On_83_Vel_77
Time_Shift_55
Note_On_83_Vel_0
Time_Shift_47
Note_On_90_Vel_0
Time_Shift_11
Note_On_88_Vel_89
Time_Shift_8
Note_On_48_Vel_70
Time_Shift_1
Note_On_84_Vel_75
Time_Shift_31
Note_On_84_Vel_0
Time_Shift_2
Note_On_89_Vel_0
Time_Shift_4
Note_On_88_Vel_0
Time_Shift_12
Note_On_48_Vel_0
Time_Shift_65
Note_On_87_Vel_86
Time_Shift_4
Note_On_79_Vel_71
Time_Shift_61
Note_On_79_Vel_0
Time_Shift_57
Note_On_86_Vel_82
Time_Shift_1
Note_On_63_Vel_71
Time_Shift_2
Note_On_67_Vel_64
Time_Shift_6
Note_On_55_Vel_59
Time_Shift_1
Note_On_77_Vel_62
Time_Shift_2
Note_On_67_Vel_0
Time_Shift_8
Note_On_87_Vel_0
Time_Shift_10
Note_On_63_Vel_0
Time_Shift_3
Note_On_86_Vel_0
Time_Shift_25
Note_On_55_Vel_0
Time_Shift_62
Note_On_87_Vel_92
Time_Shift_26
Note_On_75_Vel_52
Time_Shift_28
Note_On_77_Vel_0
Time_Shift_66
Note_On_43_Vel_67
Time_Shift_21
Note_On_89_Vel_105
Time_Shift_8
Note_On_87_Vel_0
Time_Shift_4
Note_On_75_Vel_0
Time_Shift_16
Note_On_43_Vel_0
Time_Shift_71
Note_On_87_Vel_86
Time_Shift_2
Note_On_75_Vel_77
Time_Shift_15
Note_On_89_Vel_0
Time_Shift_81
Note_On_75_Vel_0
Time_Shift_23
Note_On_87_Vel_0
Time_Shift_4
Note_On_85_Vel_83
Time_Shift_3
Note_On_63_Vel_76
Time_Shift_4
Note_On_58_Vel_62
Time_Shift_1
Note_On_51_Vel_68
Time_Shift_5
Note_On_79_Vel_72
Time_Shift_18
Note_On_63_Vel_0
Time_Shift_5
Note_On_58_Vel_0
Time_Shift_21
Note_On_51_Vel_0
Time_Shift_63
Note_On_82_Vel_84
Time_Shift_2
Note_On_85_Vel_0
Time_Shift_2
Note_On_73_Vel_66
Time_Shift_14
Note_On_63_Vel_52
Time_Shift_19
Note_On_79_Vel_0
Time_Shift_38
Note_On_63_Vel_0
Note_On_73_Vel_0
Time_Shift_57
Note_On_44_Vel_64
Time_Shift_1
Note_On_80_Vel_80
Time_Shift_1
Note_On_72_Vel_75
Time_Shift_34
Note_On_82_Vel_0
Time_Shift_2
Note_On_72_Vel_0
Time_Shift_2
Note_On_44_Vel_0
Time_Shift_76
Note_On_82_Vel_87
Time_Shift_18
Note_On_68_Vel_64
Time_Shift_48
Note_On_80_Vel_0
Time_Shift_46
Note_On_68_Vel_0
Time_Shift_18
Note_On_60_Vel_64
Time_Shift_2
Note_On_83_Vel_88
Time_Shift_2
Note_On_68_Vel_61
Time_Shift_4
Note_On_51_Vel_54
Note_On_56_Vel_62
Note_On_75_Vel_78
Time_Shift_28
Note_On_60_Vel_0
Time_Shift_10
Note_On_75_Vel_0
Time_Shift_5
Note_On_68_Vel_0
Time_Shift_7
Note_On_51_Vel_0
Note_On_82_Vel_0
Time_Shift_13
Note_On_83_Vel_0
Time_Shift_3
Note_On_56_Vel_0
Time_Shift_44
Note_On_84_Vel_92
Time_Shift_5
Note_On_72_Vel_77
Time_Shift_4
Note_On_68_Vel_61
Time_Shift_47
Note_On_68_Vel_0
Time_Shift_2
Note_On_72_Vel_0
Time_Shift_11
Note_On_84_Vel_0
Time_Shift_64
Note_On_40_Vel_63
Time_Shift_3
Note_On_85_Vel_89
Time_Shift_1
Note_On_79_Vel_70
Time_Shift_2
Note_On_73_Vel_68
Time_Shift_20
Note_On_40_Vel_0
Time_Shift_27
Note_On_73_Vel_0
Time_Shift_39
Note_On_79_Vel_0
Time_Shift_22
Note_On_84_Vel_85
Time_Shift_3
Note_On_72_Vel_82
Time_Shift_39
Note_On_72_Vel_0
Time_Shift_51
Note_On_84_Vel_0
Time_Shift_34
Note_On_60_Vel_77
Time_Shift_2
Note_On_48_Vel_75
Time_Shift_2
Note_On_55_Vel_74
Time_Shift_2
Note_On_83_Vel_87
Time_Shift_6
Note_On_85_Vel_0
Time_Shift_2
Note_On_74_Vel_70
Time_Shift_9
Note_On_72_Vel_57
Time_Shift_2
Note_On_60_Vel_0
Time_Shift_2
Note_On_72_Vel_0
Time_Shift_4
Note_On_48_Vel_0
Time_Shift_19
Note_On_55_Vel_0
Time_Shift_31
Note_On_74_Vel_0
Time_Shift_22
Note_On_83_Vel_0
Time_Shift_21
Note_On_82_Vel_90
Time_Shift_8
Note_On_76_Vel_74
Time_Shift_12
Note_On_72_Vel_50
Time_Shift_37
Note_On_76_Vel_0
Time_Shift_29
Note_On_82_Vel_0
Time_Shift_9
Note_On_72_Vel_0
Time_Shift_27
Note_On_53_Vel_98
Time_Shift_3
Note_On_41_Vel_90
Time_Shift_5
Note_On_81_Vel_88
Time_Shift_2
Note_On_72_Vel_80
Time_Shift_2
Note_On_77_Vel_83
Time_Shift_13
Note_On_53_Vel_0
Time_Shift_33
Note_On_41_Vel_0
Time_Shift_73
Note_On_81_Vel_0
Time_Shift_4
Note_On_72_Vel_0
Note_On_80_Vel_86
Time_Shift_11
Note_On_72_Vel_70
Time_Shift_19
Note_On_77_Vel_0
Time_Shift_10
Note_On_77_Vel_47
Time_Shift_18
Note_On_80_Vel_0
Time_Shift_56
Note_On_53_Vel_79
Time_Shift_3
Note_On_62_Vel_79
Time_Shift_1
Note_On_56_Vel_73
Time_Shift_1
Note_On_79_Vel_79
Time_Shift_23
Note_On_62_Vel_0
Note_On_53_Vel_0
Time_Shift_2
Note_On_56_Vel_0
Time_Shift_1
Note_On_77_Vel_0
Time_Shift_62
Note_On_72_Vel_0
Time_Shift_20
Note_On_79_Vel_0
Time_Shift_9
Note_On_68_Vel_78
Note_On_77_Vel_79
Time_Shift_43
Note_On_68_Vel_0
Time_Shift_81
Note_On_77_Vel_0
Time_Shift_19
Note_On_43_Vel_67
Time_Shift_1
Note_On_79_Vel_82
Time_Shift_8
Note_On_67_Vel_69
Time_Shift_9
Note_On_77_Vel_57
Time_Shift_20
Note_On_43_Vel_0
Time_Shift_53
Note_On_67_Vel_0
Time_Shift_21
Note_On_79_Vel_0
Time_Shift_8
Note_On_77_Vel_0
Time_Shift_9
Note_On_83_Vel_89
Time_Shift_19
Note_On_74_Vel_49
Time_Shift_10
Note_On_74_Vel_0
Time_Shift_46
Note_On_83_Vel_0
Time_Shift_57
Note_On_86_Vel_92
Time_Shift_10
Note_On_79_Vel_77
Time_Shift_14
Note_On_55_Vel_48
Time_Shift_1
Note_On_65_Vel_50
Time_Shift_2
Note_On_59_Vel_52
Time_Shift_116
Note_On_55_Vel_0
Time_Shift_1
Note_On_59_Vel_0
Note_On_91_Vel_89
Time_Shift_1
Note_On_65_Vel_0
Time_Shift_2
Note_On_79_Vel_0
Time_Shift_2
Note_On_83_Vel_80
Time_Shift_1
Note_On_62_Vel_65
Time_Shift_2
Note_On_55_Vel_49
Time_Shift_144
Note_On_55_Vel_0
Time_Shift_9
Note_On_87_Vel_81
Time_Shift_15
Note_On_62_Vel_0
Note_On_63_Vel_61
Time_Shift_5
Note_On_84_Vel_65
Note_On_60_Vel_46
Time_Shift_6
Note_On_91_Vel_0
Time_Shift_3
Note_On_83_Vel_0
Time_Shift_1
Note_On_86_Vel_0
Time_Shift_101
Note_On_79_Vel_66
Time_Shift_106
Note_On_87_Vel_0
Time_Shift_11
Note_On_87_Vel_80
Time_Shift_5
Sustain_On
Time_Shift_34
Note_On_89_Vel_83
Time_Shift_50
Note_On_87_Vel_0
Time_Shift_4
Note_On_87_Vel_86
Time_Shift_11
Note_On_84_Vel_0
Time_Shift_11
Note_On_84_Vel_71
Time_Shift_104
Note_On_86_Vel_92
Time_Shift_139
Note_On_87_Vel_0
Time_Shift_11
Note_On_87_Vel_87
Time_Shift_25
Note_On_85_Vel_62
Time_Shift_3
Sustain_Off
Time_Shift_5
Note_On_58_Vel_46
Time_Shift_10
Sustain_On
Time_Shift_99
Note_On_79_Vel_0
Time_Shift_11
Note_On_79_Vel_66
Time_Shift_13
Note_On_84_Vel_0
Note_On_86_Vel_0
Note_On_89_Vel_0
Time_Shift_30
Sustain_Off
Time_Shift_85
Note_On_85_Vel_0
Sustain_On
Time_Shift_7
Note_On_55_Vel_51
Time_Shift_1
Note_On_85_Vel_79
Time_Shift_7
Note_On_60_Vel_0
Time_Shift_111
Note_On_94_Vel_95
Time_Shift_74
Note_On_84_Vel_80
Time_Shift_7
Note_On_85_Vel_0
Time_Shift_12
Note_On_85_Vel_75
Time_Shift_69
Note_On_58_Vel_0
Note_On_92_Vel_94
Time_Shift_1
Sustain_Off
Note_On_85_Vel_0
Time_Shift_4
Note_On_63_Vel_0
Note_On_94_Vel_0
Time_Shift_14
Note_On_84_Vel_0
Note_On_87_Vel_0
Time_Shift_9
Note_On_84_Vel_70
Time_Shift_22
Sustain_On
Time_Shift_61
Note_On_79_Vel_0
Time_Shift_48
Note_On_83_Vel_73
Time_Shift_133
Sustain_Off
Time_Shift_4
Note_On_62_Vel_77
Time_Shift_22
Note_On_84_Vel_0
Time_Shift_8
Note_On_84_Vel_54
Time_Shift_8
Note_On_83_Vel_0
Time_Shift_7
Note_On_83_Vel_42
Time_Shift_6
Note_On_92_Vel_0
Time_Shift_18
Note_On_55_Vel_0
Time_Shift_74
Note_On_90_Vel_83
Time_Shift_138
Note_On_91_Vel_84
Time_Shift_10
Note_On_83_Vel_0
Time_Shift_9
Note_On_83_Vel_70
Time_Shift_25
Note_On_55_Vel_49
Time_Shift_116
Note_On_79_Vel_77
Time_Shift_4
Note_On_84_Vel_0
Time_Shift_141
Note_On_84_Vel_70
Time_Shift_2
Note_On_81_Vel_61
Time_Shift_4
Note_On_62_Vel_0
Time_Shift_3
Note_On_67_Vel_57
Time_Shift_80
Note_On_90_Vel_0
Time_Shift_39
Note_On_83_Vel_0
Time_Shift_3
Note_On_86_Vel_74
Time_Shift_4
Note_On_83_Vel_71
Time_Shift_8
Sustain_On
Time_Shift_138
Sustain_Off
Time_Shift_16
Note_On_84_Vel_0
Time_Shift_2
Note_On_87_Vel_78
Time_Shift_3
Note_On_84_Vel_65
Time_Shift_15
Note_On_63_Vel_48
Time_Shift_3
Note_On_91_Vel_0
Time_Shift_12
Note_On_60_Vel_37
Time_Shift_26
Note_On_79_Vel_0
Time_Shift_15
Note_On_81_Vel_0
Time_Shift_5
Note_On_67_Vel_0
Time_Shift_6
Note_On_55_Vel_0
Time_Shift_5
Note_On_83_Vel_0
Time_Shift_7
Note_On_86_Vel_0
Time_Shift_13
Note_On_60_Vel_0
Time_Shift_5
Note_On_84_Vel_0
Time_Shift_3
Note_On_79_Vel_67
Time_Shift_26
Note_On_63_Vel_0
Time_Shift_23
Note_On_87_Vel_0
Time_Shift_23
Note_On_79_Vel_0
Time_Shift_38
Note_On_75_Vel_72
Time_Shift_36
Note_On_77_Vel_62
Time_Shift_48
Note_On_75_Vel_0
Note_On_77_Vel_0
Time_Shift_12
Note_On_75_Vel_77
Time_Shift_1
Note_On_60_Vel_53
Note_On_63_Vel_52
Time_Shift_36
Note_On_72_Vel_57
Time_Shift_67
Sustain_On
Time_Shift_30
Note_On_75_Vel_0
Time_Shift_6
Note_On_75_Vel_65
Time_Shift_2
Note_On_74_Vel_76
Time_Shift_146
Note_On_75_Vel_0
Time_Shift_5
Note_On_75_Vel_68
Time_Shift_3
Sustain_Off
Time_Shift_2
Note_On_74_Vel_0
Time_Shift_2
Note_On_72_Vel_0
Time_Shift_3
Note_On_60_Vel_0
Time_Shift_15
Note_On_73_Vel_62
Time_Shift_9
Note_On_58_Vel_48
Time_Shift_120
Note_On_67_Vel_55
Time_Shift_18
Sustain_On
Time_Shift_115
Note_On_73_Vel_0
Time_Shift_5
Note_On_73_Vel_60
Time_Shift_4
Note_On_55_Vel_55
Time_Shift_114
Note_On_82_Vel_85
Time_Shift_80
Note_On_72_Vel_65
Time_Shift_27
Note_On_73_Vel_0
Time_Shift_9
Note_On_73_Vel_69
Time_Shift_56
Sustain_Off
Time_Shift_3
Note_On_80_Vel_84
Time_Shift_1
Note_On_72_Vel_0
Time_Shift_7
Note_On_67_Vel_0
Note_On_58_Vel_0
Time_Shift_1
Note_On_72_Vel_72
Time_Shift_1
Note_On_55_Vel_0
Note_On_82_Vel_0
Time_Shift_2
Note_On_73_Vel_0
Note_On_56_Vel_55
Time_Shift_5
Note_On_75_Vel_0
Time_Shift_30
Note_On_63_Vel_0
Time_Shift_70
Sustain_On
Time_Shift_35
Note_On_71_Vel_60
Time_Shift_149
Note_On_72_Vel_0
Time_Shift_4
Note_On_62_Vel_70
Time_Shift_7
Note_On_72_Vel_63
Time_Shift_12
Sustain_Off
Time_Shift_84
Sustain_On
Time_Shift_30
Note_On_78_Vel_79
Time_Shift_144
Sustain_Off
Time_Shift_4
Note_On_80_Vel_0
Time_Shift_7
Note_On_71_Vel_0
Note_On_56_Vel_0
Time_Shift_2
Note_On_79_Vel_72
Time_Shift_1
Note_On_78_Vel_0
Time_Shift_5
Note_On_71_Vel_66
Time_Shift_3
Note_On_55_Vel_52
Time_Shift_12
Note_On_72_Vel_0
Time_Shift_35
Note_On_62_Vel_0
Time_Shift_3
Sustain_On
Time_Shift_79
Note_On_67_Vel_69
Time_Shift_154
Note_On_72_Vel_72
Time_Shift_14
Note_On_69_Vel_49
Time_Shift_25
Note_On_43_Vel_57
Time_Shift_12
Note_On_71_Vel_0
Time_Shift_3
Note_On_55_Vel_0
Time_Shift_1
Sustain_Off
Time_Shift_1
Note_On_79_Vel_0
Time_Shift_5
Note_On_67_Vel_0
Time_Shift_59
Sustain_On
Time_Shift_35
Note_On_74_Vel_69
Time_Shift_9
Note_On_71_Vel_60
Time_Shift_26
Note_On_69_Vel_0
Time_Shift_137
Note_On_75_Vel_72
Time_Shift_5
Note_On_43_Vel_0
Time_Shift_2
Note_On_74_Vel_0
Time_Shift_1
Note_On_72_Vel_0
Time_Shift_1
Note_On_71_Vel_0
Time_Shift_7
Sustain_Off
Time_Shift_3
Note_On_55_Vel_52
Time_Shift_1
Note_On_72_Vel_57
Note_On_48_Vel_60
Time_Shift_31
Note_On_75_Vel_0
Time_Shift_2
Note_On_72_Vel_0
Time_Shift_5
Note_On_48_Vel_0
Time_Shift_27
Note_On_55_Vel_0
Time_Shift_54
Sustain_On
Time_Shift_66
Note_On_79_Vel_68
Note_On_39_Vel_64
Time_Shift_1
Note_On_36_Vel_55
Time_Shift_6
Note_On_75_Vel_54
Time_Shift_88
Sustain_Off
Time_Shift_57
Note_On_91_Vel_85
Time_Shift_14
Note_On_43_Vel_73
Time_Shift_3
Note_On_87_Vel_54
Time_Shift_11
Sustain_On
Time_Shift_107
Note_On_87_Vel_0
Time_Shift_1
Sustain_Off
Time_Shift_5
Note_On_48_Vel_74
Time_Shift_2
Note_On_87_Vel_94
Time_Shift_3
Note_On_84_Vel_83
Time_Shift_20
Sustain_On
Time_Shift_108
Note_On_79_Vel_0
Note_On_84_Vel_0
Time_Shift_8
Note_On_84_Vel_94
Time_Shift_3
Note_On_79_Vel_91
Time_Shift_6
Note_On_51_Vel_79
Time_Shift_136
Note_On_79_Vel_0
Time_Shift_4
Note_On_79_Vel_94
Time_Shift_4
Note_On_43_Vel_0
Note_On_51_Vel_0
Note_On_75_Vel_0
Time_Shift_4
Note_On_51_Vel_81
Note_On_75_Vel_85
Time_Shift_2
Note_On_43_Vel_74
Time_Shift_1
Note_On_55_Vel_79
Time_Shift_123
Note_On_75_Vel_0
Time_Shift_8
Note_On_55_Vel_0
Time_Shift_2
Note_On_75_Vel_90
Time_Shift_4
Note_On_55_Vel_79
Time_Shift_1
Note_On_72_Vel_82
Time_Shift_1
Note_On_60_Vel_79
Time_Shift_2
Note_On_67_Vel_79
Time_Shift_128
Note_On_72_Vel_0
Time_Shift_10
Note_On_72_Vel_99
Time_Shift_13
Note_On_60_Vel_0
Note_On_67_Vel_0
Time_Shift_9
Note_On_60_Vel_82
Time_Shift_1
Note_On_67_Vel_81
Time_Shift_3
Note_On_63_Vel_79
Time_Shift_152
Note_On_73_Vel_94
Time_Shift_12
Note_On_68_Vel_76
Time_Shift_11
Note_On_65_Vel_79
Time_Shift_5
Note_On_58_Vel_74
Time_Shift_22
Note_On_36_Vel_0
Time_Shift_6
Note_On_63_Vel_0
Note_On_84_Vel_0
Note_On_55_Vel_0
Note_On_51_Vel_0
Note_On_67_Vel_0
Time_Shift_1
Note_On_75_Vel_0
Note_On_60_Vel_0
Note_On_79_Vel_0
Note_On_39_Vel_0
Note_On_87_Vel_0
Note_On_43_Vel_0
Time_Shift_1
Note_On_72_Vel_0
Time_Shift_1
Note_On_91_Vel_0
Time_Shift_2
Sustain_Off
Time_Shift_12
Note_On_48_Vel_0
Time_Shift_83
Note_On_69_Vel_83
Time_Shift_86
Sustain_On
Time_Shift_77
Note_On_70_Vel_88
Time_Shift_146
Note_On_68_Vel_0
Time_Shift_4
Note_On_68_Vel_81
Time_Shift_168
Note_On_67_Vel_65
Time_Shift_25
Note_On_51_Vel_63
Time_Shift_144
Note_On_65_Vel_0
Time_Shift_1
Note_On_77_Vel_77
Time_Shift_1
Note_On_58_Vel_0
Time_Shift_3
Sustain_Off
Time_Shift_2
Note_On_68_Vel_0
Time_Shift_2
Note_On_73_Vel_0
Time_Shift_11
Note_On_69_Vel_0
Time_Shift_154
Note_On_70_Vel_0
Time_Shift_6
Note_On_70_Vel_56
Time_Shift_5
Note_On_55_Vel_50
Time_Shift_4
Sustain_On
Time_Shift_147
Note_On_75_Vel_71
Time_Shift_163
Note_On_72_Vel_76
Time_Shift_13
Note_On_56_Vel_69
Time_Shift_61
Note_On_67_Vel_0
Time_Shift_4
Note_On_55_Vel_0
Note_On_51_Vel_0
Note_On_70_Vel_0
Note_On_75_Vel_0
Time_Shift_1
Note_On_72_Vel_0
Time_Shift_2
Sustain_Off
Time_Shift_1
Note_On_56_Vel_0
Time_Shift_7
Note_On_77_Vel_0
Time_Shift_77
Sustain_On
Time_Shift_34
Note_On_89_Vel_83
Time_Shift_9
Note_On_36_Vel_67
Time_Shift_2
Note_On_48_Vel_58
Time_Shift_124
Note_On_48_Vel_0
Time_Shift_7
Note_On_96_Vel_94
Time_Shift_4
Note_On_48_Vel_70
Time_Shift_5
Note_On_41_Vel_67
Time_Shift_3
Note_On_92_Vel_92
Time_Shift_135
Note_On_41_Vel_0
Note_On_89_Vel_0
Note_On_92_Vel_0
Time_Shift_5
Note_On_44_Vel_76
Time_Shift_1
Note_On_41_Vel_69
Note_On_92_Vel_104
Time_Shift_3
Note_On_89_Vel_91
Time_Shift_144
Note_On_48_Vel_0
Note_On_89_Vel_0
Time_Shift_4
Note_On_89_Vel_102
Time_Shift_1
Note_On_48_Vel_85
Time_Shift_3
Note_On_44_Vel_0
Time_Shift_1
Note_On_84_Vel_93
Time_Shift_4
Note_On_44_Vel_79
Time_Shift_133
Note_On_84_Vel_0
Time_Shift_7
Note_On_84_Vel_93
Time_Shift_1
Note_On_48_Vel_0
Time_Shift_3
Note_On_80_Vel_87
Time_Shift_1
Note_On_53_Vel_80
Time_Shift_1
Note_On_48_Vel_79
Time_Shift_133
Note_On_80_Vel_0
Time_Shift_5
Note_On_80_Vel_97
Time_Shift_6
Note_On_77_Vel_86
Time_Shift_3
Note_On_72_Vel_72
Time_Shift_11
Note_On_56_Vel_84
Time_Shift_144
Note_On_77_Vel_0
Time_Shift_6
Note_On_77_Vel_97
Time_Shift_2
Note_On_56_Vel_0
Note_On_72_Vel_0
Time_Shift_4
Note_On_56_Vel_81
Note_On_72_Vel_82
Time_Shift_1
Note_On_60_Vel_83
Time_Shift_207
Note_On_55_Vel_61
Note_On_61_Vel_85
Note_On_70_Vel_77
Time_Shift_36
Note_On_53_Vel_0
Time_Shift_1
Note_On_77_Vel_0
Note_On_84_Vel_0
Note_On_44_Vel_0
Note_On_56_Vel_0
Note_On_96_Vel_0
Note_On_72_Vel_0
Time_Shift_1
Note_On_80_Vel_0
Note_On_60_Vel_0
Note_On_89_Vel_0
Time_Shift_2
Note_On_92_Vel_0
Time_Shift_5
Sustain_Off
Time_Shift_19
Note_On_36_Vel_0
Note_On_41_Vel_0
Time_Shift_93
Note_On_76_Vel_82
Time_Shift_38
Sustain_On
Time_Shift_128
Note_On_79_Vel_88
Time_Shift_164
Note_On_77_Vel_83
Time_Shift_192
Note_On_76_Vel_0
Time_Shift_10
Note_On_76_Vel_70
Time_Shift_55
Note_On_60_Vel_47
Time_Shift_172
Note_On_67_Vel_44
Time_Shift_62
Note_On_48_Vel_0
Time_Shift_40
Sustain_Off
Time_Shift_81
Note_On_72_Vel_65
Time_Shift_62
Note_On_52_Vel_35
Time_Shift_117
Note_On_70_Vel_0
Time_Shift_4
Note_On_70_Vel_52
Time_Shift_134
Note_On_61_Vel_0
Time_Shift_12
Note_On_70_Vel_0
Time_Shift_22
Note_On_68_Vel_55
Time_Shift_2
Note_On_53_Vel_49
Time_Shift_2
Note_On_72_Vel_0
Time_Shift_8
Note_On_79_Vel_0
Time_Shift_8
Note_On_55_Vel_0
Time_Shift_7
Note_On_67_Vel_0
Time_Shift_27
Note_On_53_Vel_0
Time_Shift_12
Note_On_52_Vel_0
Note_On_77_Vel_0
Time_Shift_61
Note_On_60_Vel_0
Time_Shift_10
Note_On_70_Vel_65
Time_Shift_8
Note_On_67_Vel_51
Time_Shift_97
Note_On_68_Vel_0
Time_Shift_8
Note_On_76_Vel_0
Time_Shift_60
Note_On_71_Vel_67
Time_Shift_2
Note_On_65_Vel_64
Note_On_68_Vel_58
Time_Shift_128
Note_On_72_Vel_74
Time_Shift_125
Note_On_70_Vel_0
Sustain_On
Time_Shift_41
Note_On_73_Vel_76
Time_Shift_136
Note_On_67_Vel_0
Time_Shift_9
Note_On_74_Vel_69
Time_Shift_7
Note_On_64_Vel_66
Time_Shift_126
Note_On_72_Vel_0
Time_Shift_1
Note_On_68_Vel_0
Note_On_73_Vel_0
Time_Shift_1
Note_On_75_Vel_68
Time_Shift_1
Note_On_65_Vel_0
Time_Shift_3
Note_On_64_Vel_0
Note_On_74_Vel_0
Time_Shift_1
Note_On_67_Vel_63
Time_Shift_1
Note_On_63_Vel_68
Time_Shift_3
Note_On_71_Vel_0
Time_Shift_6
Sustain_Off
Time_Shift_122
Note_On_73_Vel_67
Note_On_51_Vel_64
Time_Shift_7
Note_On_70_Vel_67
Time_Shift_4
Note_On_67_Vel_0
Time_Shift_121
Note_On_73_Vel_0
Time_Shift_4
Note_On_70_Vel_0
Time_Shift_1
Note_On_63_Vel_0
Time_Shift_3
Note_On_51_Vel_0
Note_On_75_Vel_0
Time_Shift_11
Note_On_56_Vel_72
Time_Shift_1
Note_On_72_Vel_70
Time_Shift_6
Note_On_68_Vel_60
Time_Shift_83
Sustain_On
Time_Shift_23
Note_On_56_Vel_0
Time_Shift_16
Note_On_73_Vel_73
Time_Shift_3
Note_On_70_Vel_70
Time_Shift_135
Note_On_68_Vel_0
Time_Shift_7
Note_On_72_Vel_0
Time_Shift_2
Note_On_68_Vel_86
Time_Shift_2
Note_On_75_Vel_77
Time_Shift_3
Note_On_72_Vel_73
Time_Shift_40
Note_On_73_Vel_0
Time_Shift_1
Note_On_70_Vel_0
Time_Shift_2
Sustain_Off
Time_Shift_92
Note_On_76_Vel_75
Time_Shift_12
Sustain_On
Time_Shift_124
Note_On_77_Vel_87
Time_Shift_125
Note_On_78_Vel_95
Time_Shift_12
Note_On_68_Vel_0
Time_Shift_7
Note_On_68_Vel_81
Time_Shift_128
Note_On_79_Vel_89
Time_Shift_7
Note_On_67_Vel_86
Time_Shift_2
Note_On_71_Vel_74
Time_Shift_117
Note_On_77_Vel_0
Time_Shift_7
Note_On_77_Vel_86
Time_Shift_1
Note_On_71_Vel_0
Note_On_76_Vel_0
Time_Shift_2
Note_On_72_Vel_0
Time_Shift_1
Note_On_78_Vel_0
Time_Shift_1
Note_On_75_Vel_0
Note_On_68_Vel_0
Note_On_74_Vel_78
Time_Shift_2
Note_On_55_Vel_72
Time_Shift_3
Note_On_79_Vel_0
Time_Shift_1
Note_On_71_Vel_68
Time_Shift_1
Note_On_67_Vel_0
Time_Shift_7
Sustain_Off
Time_Shift_28
Sustain_On
Time_Shift_46
Sustain_Off
Time_Shift_4
Note_On_74_Vel_0
Time_Shift_11
Note_On_55_Vel_0
Time_Shift_35
Note_On_60_Vel_93
Time_Shift_1
Note_On_75_Vel_87
Time_Shift_3
Note_On_72_Vel_79
Time_Shift_7
Note_On_71_Vel_0
Time_Shift_9
Note_On_77_Vel_0
Time_Shift_10
Note_On_60_Vel_0
Time_Shift_66
Sustain_On
Time_Shift_24
Note_On_75_Vel_0
Time_Shift_10
Note_On_77_Vel_86
Time_Shift_1
Note_On_74_Vel_84
Time_Shift_134
Note_On_72_Vel_0
Time_Shift_5
Note_On_72_Vel_103
Time_Shift_2
Note_On_78_Vel_93
Time_Shift_2
Note_On_75_Vel_94
Time_Shift_52
Note_On_74_Vel_0
Time_Shift_1
Note_On_77_Vel_0
Time_Shift_1
Sustain_Off
Time_Shift_75
Note_On_79_Vel_88
Time_Shift_8
Note_On_78_Vel_0
Time_Shift_4
Note_On_78_Vel_70
Time_Shift_3
Sustain_On
Time_Shift_124
Note_On_80_Vel_94
Time_Shift_15
Note_On_72_Vel_0
Time_Shift_5
Note_On_72_Vel_55
Time_Shift_110
Note_On_75_Vel_0
Time_Shift_2
Note_On_81_Vel_98
Time_Shift_2
Note_On_71_Vel_86
Time_Shift_5
Note_On_75_Vel_88
Time_Shift_126
Note_On_82_Vel_97
Time_Shift_5
Note_On_70_Vel_95
Time_Shift_1
Note_On_74_Vel_85
Time_Shift_112
Note_On_80_Vel_0
Note_On_58_Vel_95
Time_Shift_4
Note_On_80_Vel_90
Time_Shift_1
Note_On_77_Vel_83
Time_Shift_126
Note_On_75_Vel_0
Note_On_79_Vel_0
Time_Shift_4
Note_On_63_Vel_106
Time_Shift_4
Note_On_79_Vel_93
Time_Shift_1
Note_On_75_Vel_95
Time_Shift_10
Sustain_Off
Time_Shift_3
Note_On_72_Vel_0
Time_Shift_3
Note_On_81_Vel_0
Time_Shift_1
Note_On_74_Vel_0
Time_Shift_2
Note_On_80_Vel_0
Note_On_71_Vel_0
Note_On_82_Vel_0
Time_Shift_1
Note_On_70_Vel_0
Note_On_77_Vel_0
Time_Shift_6
Note_On_58_Vel_0
Time_Shift_1
Note_On_78_Vel_0
Time_Shift_7
Note_On_79_Vel_0
Time_Shift_7
Note_On_63_Vel_0
Time_Shift_19
Note_On_75_Vel_0
Time_Shift_70
Note_On_80_Vel_90
Time_Shift_1
Note_On_77_Vel_85
Time_Shift_28
Note_On_77_Vel_0
Time_Shift_5
Note_On_80_Vel_0
Time_Shift_100
Note_On_82_Vel_104
Note_On_75_Vel_109
Note_On_79_Vel_90
Time_Shift_31
Note_On_79_Vel_0
Time_Shift_15
Note_On_82_Vel_0
Time_Shift_83
Note_On_83_Vel_98
Time_Shift_1
Note_On_79_Vel_89
Time_Shift_29
Note_On_79_Vel_0
Time_Shift_10
Note_On_83_Vel_0
Time_Shift_88
Note_On_75_Vel_0
Time_Shift_9
Note_On_84_Vel_102
Time_Shift_1
Note_On_75_Vel_75
Note_On_79_Vel_94
Time_Shift_30
Note_On_79_Vel_0
Time_Shift_8
Note_On_75_Vel_0
Time_Shift_2
Note_On_84_Vel_0
Time_Shift_93
Note_On_85_Vel_100
Time_Shift_3
Note_On_79_Vel_100
Note_On_75_Vel_104
Time_Shift_36
Note_On_85_Vel_0
Time_Shift_2
Note_On_79_Vel_0
Time_Shift_2
Note_On_75_Vel_0
Time_Shift_82
Note_On_78_Vel_103
Time_Shift_1
Note_On_86_Vel_96
Time_Shift_1
Note_On_74_Vel_106
Time_Shift_48
Note_On_78_Vel_0
Note_On_74_Vel_0
Time_Shift_8
Note_On_86_Vel_0
Time_Shift_71
Note_On_84_Vel_95
Time_Shift_2
Note_On_62_Vel_99
Time_Shift_1
Note_On_81_Vel_98
Time_Shift_22
Note_On_78_Vel_66
Time_Shift_33
Note_On_62_Vel_0
Time_Shift_2
Note_On_84_Vel_0
Time_Shift_6
Note_On_81_Vel_0
Time_Shift_13
Note_On_78_Vel_0
Time_Shift_53
Note_On_82_Vel_103
Time_Shift_2
Note_On_67_Vel_101
Note_On_79_Vel_99
Time_Shift_47
Note_On_79_Vel_0
Time_Shift_1
Note_On_67_Vel_0
Time_Shift_9
Note_On_82_Vel_0
Time_Shift_69
Note_On_72_Vel_102
Time_Shift_1
Note_On_81_Vel_101
Time_Shift_2
Note_On_78_Vel_99
Note_On_62_Vel_90
Time_Shift_3
Note_On_69_Vel_98
Time_Shift_13
Sustain_On
Time_Shift_111
Note_On_70_Vel_97
Note_On_79_Vel_88
Note_On_74_Vel_80
Time_Shift_1
Note_On_82_Vel_92
Time_Shift_113
Note_On_62_Vel_0
Note_On_72_Vel_0
Note_On_81_Vel_0
Time_Shift_1
Note_On_69_Vel_0
Note_On_78_Vel_0
Note_On_82_Vel_0
Time_Shift_1
Sustain_Off
Time_Shift_3
Note_On_74_Vel_0
Time_Shift_8
Note_On_79_Vel_0
Time_Shift_6
Note_On_68_Vel_99
Time_Shift_1
Note_On_70_Vel_0
Time_Shift_4
Note_On_58_Vel_91
Note_On_74_Vel_89
Note_On_77_Vel_90
Time_Shift_2
Note_On_65_Vel_82
Time_Shift_4
Note_On_70_Vel_84
Time_Shift_13
Sustain_On
Time_Shift_108
Note_On_77_Vel_0
Time_Shift_2
Note_On_79_Vel_91
Time_Shift_2
Note_On_63_Vel_97
Time_Shift_1
Note_On_77_Vel_83
Note_On_75_Vel_90
Note_On_67_Vel_89
Time_Shift_18
Note_On_70_Vel_0
Time_Shift_8
Note_On_70_Vel_61
Time_Shift_85
Note_On_63_Vel_0
Note_On_70_Vel_0
Note_On_58_Vel_0
Time_Shift_1
Note_On_75_Vel_0
Time_Shift_3
Sustain_Off
Time_Shift_3
Note_On_65_Vel_0
Note_On_68_Vel_0
Note_On_74_Vel_0
Note_On_77_Vel_0
Time_Shift_7
Note_On_77_Vel_93
Time_Shift_1
Note_On_74_Vel_100
Note_On_71_Vel_96
Time_Shift_2
Note_On_62_Vel_94
Time_Shift_1
Note_On_65_Vel_92
Time_Shift_1
Note_On_55_Vel_83
Time_Shift_26
Note_On_79_Vel_0
Sustain_On
Time_Shift_100
Note_On_75_Vel_96
Note_On_67_Vel_0
Time_Shift_3
Note_On_72_Vel_90
Time_Shift_1
Note_On_60_Vel_89
Note_On_67_Vel_65
Note_On_63_Vel_94
Time_Shift_107
Note_On_72_Vel_0
Note_On_65_Vel_0
Note_On_63_Vel_0
Note_On_75_Vel_0
Note_On_62_Vel_0
Time_Shift_4
Sustain_Off
Note_On_67_Vel_0
Note_On_77_Vel_0
Time_Shift_8
Note_On_55_Vel_0
Note_On_60_Vel_0
Note_On_71_Vel_0
Note_On_74_Vel_0
Time_Shift_7
Note_On_66_Vel_99
Time_Shift_1
Note_On_60_Vel_88
Note_On_74_Vel_97
Time_Shift_2
Note_On_50_Vel_87
Time_Shift_1
Note_On_57_Vel_97
Time_Shift_20
Sustain_On
Time_Shift_110
Note_On_70_Vel_99
Time_Shift_1
Note_On_58_Vel_94
Time_Shift_1
Note_On_67_Vel_82
Time_Shift_2
Note_On_55_Vel_80
Time_Shift_99
Note_On_74_Vel_0
Time_Shift_1
Note_On_58_Vel_0
Note_On_55_Vel_0
Time_Shift_1
Note_On_67_Vel_0
Note_On_70_Vel_0
Time_Shift_4
Sustain_Off
Time_Shift_3
Note_On_60_Vel_0
Time_Shift_16
Note_On_50_Vel_0
Note_On_57_Vel_0
Note_On_66_Vel_0
Time_Shift_2
Note_On_69_Vel_98
Time_Shift_2
Note_On_60_Vel_95
Note_On_57_Vel_91
Time_Shift_1
Note_On_66_Vel_90
Note_On_50_Vel_79
Time_Shift_18
Sustain_On
Time_Shift_105
Note_On_67_Vel_84
Time_Shift_2
Note_On_58_Vel_99
Note_On_70_Vel_91
Time_Shift_2
Note_On_55_Vel_85
Time_Shift_107
Note_On_69_Vel_0
Note_On_66_Vel_0
Time_Shift_1
Note_On_60_Vel_0
Note_On_67_Vel_0
Note_On_57_Vel_0
Note_On_50_Vel_0
Note_On_58_Vel_0
Note_On_55_Vel_0
Time_Shift_1
Note_On_70_Vel_0
Sustain_Off
Time_Shift_16
Note_On_56_Vel_104
Time_Shift_1
Note_On_62_Vel_94
Note_On_53_Vel_92
Time_Shift_1
Note_On_65_Vel_99
Time_Shift_1
Note_On_46_Vel_86
Time_Shift_16
Sustain_On
Time_Shift_112
Note_On_51_Vel_95
Note_On_55_Vel_86
Time_Shift_2
Note_On_63_Vel_94
Time_Shift_4
Note_On_43_Vel_77
Time_Shift_88
Sustain_Off
Time_Shift_2
Note_On_51_Vel_0
Note_On_46_Vel_0
Note_On_56_Vel_0
Note_On_55_Vel_0
Time_Shift_1
Note_On_65_Vel_0
Note_On_62_Vel_0
Time_Shift_1
Note_On_63_Vel_0
Time_Shift_21
Note_On_43_Vel_0
Note_On_53_Vel_0
Time_Shift_8
Note_On_53_Vel_102
Time_Shift_2
Note_On_43_Vel_97
Note_On_62_Vel_99
Note_On_50_Vel_99
Note_On_59_Vel_95
Time_Shift_13
Sustain_On
Time_Shift_119
Note_On_63_Vel_93
Note_On_60_Vel_89
Time_Shift_1
Note_On_51_Vel_90
Time_Shift_3
Note_On_48_Vel_94
Time_Shift_1
Note_On_55_Vel_85
Time_Shift_1
Note_On_36_Vel_83
Time_Shift_55
Sustain_Off
Time_Shift_1
Note_On_60_Vel_0
Time_Shift_1
Note_On_48_Vel_0
Note_On_51_Vel_0
Time_Shift_1
Note_On_63_Vel_0
Note_On_59_Vel_0
Time_Shift_3
Note_On_50_Vel_0
Time_Shift_1
Note_On_55_Vel_0
Note_On_36_Vel_0
Time_Shift_5
Note_On_53_Vel_0
Note_On_62_Vel_0
Time_Shift_7
Note_On_43_Vel_0
Time_Shift_52
Note_On_50_Vel_101
Time_Shift_1
Note_On_43_Vel_96
Time_Shift_1
Note_On_59_Vel_99
Time_Shift_1
Note_On_31_Vel_91
Time_Shift_1
Note_On_53_Vel_96
Time_Shift_121
Note_On_50_Vel_0
Time_Shift_14
Note_On_60_Vel_98
Time_Shift_1
Sustain_On
Time_Shift_2
Note_On_48_Vel_110
Time_Shift_1
Note_On_36_Vel_100
Time_Shift_59
Note_On_53_Vel_0
Time_Shift_26
Sustain_Off
Time_Shift_4
Note_On_48_Vel_0
Note_On_31_Vel_0
Time_Shift_1
Note_On_36_Vel_0
Note_On_43_Vel_0
Time_Shift_15
Note_On_59_Vel_0
Time_Shift_15
Note_On_60_Vel_0
Time_Shift_14
Note_On_71_Vel_93
Time_Shift_3
Note_On_59_Vel_80
Time_Shift_1
Note_On_74_Vel_90
Time_Shift_1
Note_On_62_Vel_82
Time_Shift_58
Note_On_59_Vel_0
Time_Shift_46
Note_On_62_Vel_0
Note_On_71_Vel_0
Time_Shift_33
Note_On_48_Vel_111
Time_Shift_2
Note_On_36_Vel_101
Time_Shift_3
Note_On_75_Vel_98
Note_On_72_Vel_97
Time_Shift_31
Note_On_74_Vel_0
Time_Shift_3
Note_On_48_Vel_0
Time_Shift_102
Note_On_86_Vel_99
Time_Shift_3
Note_On_83_Vel_97
Time_Shift_7
Sustain_On
Time_Shift_16
Note_On_72_Vel_0
Time_Shift_15
Note_On_36_Vel_0
Time_Shift_3
Note_On_48_Vel_88
Time_Shift_6
Note_On_36_Vel_67
Time_Shift_90
Note_On_87_Vel_98
Time_Shift_1
Note_On_84_Vel_97
Time_Shift_131
Note_On_98_Vel_108
Time_Shift_2
Note_On_95_Vel_100
Time_Shift_130
Note_On_99_Vel_103
Time_Shift_2
Note_On_43_Vel_107
Time_Shift_1
Note_On_31_Vel_100
Time_Shift_122
Note_On_29_Vel_100
Time_Shift_1
Note_On_41_Vel_104
Time_Shift_3
Note_On_83_Vel_0
Note_On_86_Vel_0
Note_On_95_Vel_0
Time_Shift_4
Note_On_91_Vel_82
Note_On_95_Vel_94
Time_Shift_1
Note_On_83_Vel_101
Time_Shift_3
Note_On_86_Vel_92
Time_Shift_107
Note_On_75_Vel_0
Note_On_91_Vel_0
Time_Shift_2
Note_On_98_Vel_0
Time_Shift_2
Note_On_95_Vel_0
Time_Shift_2
Note_On_36_Vel_0
Note_On_86_Vel_0
Sustain_Off
Note_On_31_Vel_0
Time_Shift_1
Note_On_83_Vel_0
Time_Shift_1
Note_On_99_Vel_0
Time_Shift_2
Note_On_43_Vel_0
Time_Shift_5
Note_On_48_Vel_0
Time_Shift_8
Note_On_29_Vel_0
Note_On_41_Vel_0
Note_On_84_Vel_0
Note_On_87_Vel_0
Time_Shift_3
Note_On_39_Vel_108
Time_Shift_2
Note_On_84_Vel_84
Time_Shift_1
Note_On_27_Vel_104
Time_Shift_1
Note_On_87_Vel_88
Time_Shift_70
Sustain_On
Time_Shift_31
Note_On_31_Vel_44
Time_Shift_32
Note_On_74_Vel_95
Time_Shift_1
Note_On_71_Vel_98
Time_Shift_131
Note_On_41_Vel_103
Note_On_29_Vel_92
Time_Shift_2
Note_On_67_Vel_79
Time_Shift_87
Note_On_87_Vel_0
Time_Shift_8
Note_On_84_Vel_0
Time_Shift_15
Note_On_39_Vel_0
Time_Shift_8
Note_On_31_Vel_0
Note_On_67_Vel_0
Note_On_71_Vel_0
Time_Shift_7
Note_On_71_Vel_92
Note_On_31_Vel_96
Time_Shift_1
Note_On_43_Vel_101
Time_Shift_1
Note_On_62_Vel_104
Note_On_67_Vel_83
Time_Shift_2
Note_On_59_Vel_100
Time_Shift_42
Note_On_27_Vel_0
Time_Shift_17
Sustain_Off
Time_Shift_45
Note_On_41_Vel_0
Time_Shift_30
Note_On_67_Vel_0
Time_Shift_4
Note_On_44_Vel_110
Note_On_63_Vel_97
Note_On_72_Vel_92
Time_Shift_1
Note_On_32_Vel_94
Time_Shift_5
Note_On_67_Vel_79
Time_Shift_29
Sustain_On
Time_Shift_92
Note_On_31_Vel_0
Note_On_71_Vel_0
Time_Shift_8
Note_On_29_Vel_0
Note_On_74_Vel_0
Time_Shift_3
Note_On_31_Vel_91
Time_Shift_1
Note_On_71_Vel_99
Note_On_74_Vel_100
Time_Shift_11
Note_On_59_Vel_0
Time_Shift_10
Note_On_32_Vel_0
Time_Shift_1
Note_On_62_Vel_0
Time_Shift_3
Note_On_43_Vel_0
Time_Shift_2
Note_On_44_Vel_0
Time_Shift_7
Note_On_63_Vel_0
Note_On_72_Vel_0
Time_Shift_11
Sustain_Off
Time_Shift_12
Note_On_31_Vel_0
Time_Shift_16
Note_On_71_Vel_0
Time_Shift_38
Note_On_67_Vel_0
Time_Shift_34
Note_On_42_Vel_111
Note_On_75_Vel_94
Time_Shift_1
Note_On_30_Vel_103
Time_Shift_2
Note_On_72_Vel_93
Time_Shift_2
Note_On_69_Vel_76
Time_Shift_3
Note_On_71_Vel_86
Time_Shift_22
Note_On_74_Vel_0
Time_Shift_90
Note_On_71_Vel_0
Time_Shift_46
Note_On_72_Vel_0
Time_Shift_7
Note_On_69_Vel_0
Time_Shift_2
Note_On_63_Vel_106
Time_Shift_1
Note_On_72_Vel_97
Time_Shift_2
Note_On_69_Vel_85
Time_Shift_41
Note_On_75_Vel_0
Time_Shift_6
Note_On_69_Vel_0
Time_Shift_5
Note_On_63_Vel_0
Time_Shift_1
Note_On_72_Vel_0
Time_Shift_2
Note_On_42_Vel_0
Note_On_30_Vel_0
Time_Shift_124
Note_On_71_Vel_100
Time_Shift_1
Note_On_62_Vel_105
Time_Shift_3
Note_On_67_Vel_97
Note_On_43_Vel_102
Note_On_31_Vel_96
Time_Shift_36
Note_On_67_Vel_0
Note_On_62_Vel_0
Time_Shift_1
Note_On_43_Vel_0
Time_Shift_1
Note_On_71_Vel_0
Time_Shift_1
Note_On_31_Vel_0
Time_Shift_147
Note_On_67_Vel_83
Time_Shift_2
Note_On_71_Vel_72
Time_Shift_4
Note_On_62_Vel_75
Note_On_65_Vel_70
Time_Shift_3
Note_On_43_Vel_73
Time_Shift_47
Note_On_65_Vel_0
Time_Shift_16
Note_On_62_Vel_0
Note_On_71_Vel_0
Time_Shift_15
Note_On_67_Vel_0
Time_Shift_6
Note_On_67_Vel_81
Time_Shift_2
Note_On_65_Vel_66
Time_Shift_4
Note_On_62_Vel_70
Time_Shift_15
Note_On_63_Vel_65
Time_Shift_2
Note_On_55_Vel_66
Time_Shift_63
Note_On_63_Vel_0
Time_Shift_16
Note_On_62_Vel_0
Time_Shift_9
Note_On_62_Vel_69
Time_Shift_20
Note_On_64_Vel_69
Time_Shift_1
Note_On_67_Vel_0
Time_Shift_2
Note_On_60_Vel_55
Time_Shift_3
Note_On_67_Vel_62
Time_Shift_37
Note_On_64_Vel_0
Time_Shift_12
Note_On_43_Vel_0
Time_Shift_8
Note_On_55_Vel_0
Time_Shift_7
Note_On_65_Vel_0
Time_Shift_23
Note_On_60_Vel_0
Time_Shift_39
Note_On_62_Vel_0
Time_Shift_10
Note_On_62_Vel_74
Time_Shift_1
Note_On_59_Vel_62
Time_Shift_1
Note_On_43_Vel_57
Time_Shift_1
Note_On_31_Vel_55
Time_Shift_25
Note_On_59_Vel_0
Time_Shift_4
Note_On_62_Vel_0
Time_Shift_27
Note_On_31_Vel_0
Time_Shift_8
Note_On_43_Vel_0
Time_Shift_68
Note_On_65_Vel_71
Time_Shift_3
Note_On_62_Vel_68
Time_Shift_32
Note_On_62_Vel_0
Time_Shift_1
Note_On_65_Vel_0
Time_Shift_5
Note_On_67_Vel_0
Time_Shift_95
Note_On_31_Vel_60
Time_Shift_3
Note_On_67_Vel_72
Time_Shift_2
Note_On_65_Vel_72
Time_Shift_3
Note_On_62_Vel_67
Time_Shift_29
Note_On_65_Vel_0
Time_Shift_1
Note_On_62_Vel_0
Time_Shift_1
Note_On_31_Vel_0
Time_Shift_90
Note_On_62_Vel_74
Time_Shift_2
Note_On_59_Vel_75
Time_Shift_29
Note_On_62_Vel_0
Time_Shift_2
Note_On_59_Vel_0
Time_Shift_7
Note_On_67_Vel_0
Time_Shift_92
Note_On_43_Vel_62
Note_On_60_Vel_76
Time_Shift_7
Note_On_64_Vel_61
Time_Shift_22
Note_On_60_Vel_0
Time_Shift_2
Note_On_43_Vel_0
Time_Shift_26
Note_On_64_Vel_0
Time_Shift_58
Note_On_67_Vel_82
Time_Shift_39
Note_On_67_Vel_0
Time_Shift_38
Note_On_43_Vel_59
Time_Shift_1
Note_On_77_Vel_78
Time_Shift_1
Note_On_79_Vel_85
Time_Shift_44
Note_On_81_Vel_80
Time_Shift_3
Note_On_43_Vel_0
Time_Shift_16
Note_On_79_Vel_0
Time_Shift_15
Note_On_77_Vel_0
Time_Shift_3
Note_On_79_Vel_83
Time_Shift_2
Note_On_67_Vel_79
Time_Shift_1
Note_On_77_Vel_89
Time_Shift_1
Note_On_74_Vel_90
Time_Shift_54
Note_On_77_Vel_0
Time_Shift_8
Note_On_74_Vel_0
Time_Shift_65
Note_On_76_Vel_77
Time_Shift_4
Note_On_72_Vel_85
Time_Shift_23
Note_On_67_Vel_0
Time_Shift_5
Note_On_67_Vel_55
Time_Shift_14
Note_On_72_Vel_0
Note_On_76_Vel_0
Time_Shift_12
Note_On_81_Vel_0
Time_Shift_82
Note_On_55_Vel_69
Time_Shift_1
Note_On_71_Vel_80
Time_Shift_4
Note_On_74_Vel_66
Time_Shift_1
Note_On_77_Vel_62
Time_Shift_24
Note_On_71_Vel_0
Note_On_55_Vel_0
Time_Shift_3
Note_On_79_Vel_0
Time_Shift_16
Note_On_74_Vel_0
Time_Shift_23
Note_On_67_Vel_0
Time_Shift_53
Note_On_77_Vel_0
Time_Shift_11
Note_On_77_Vel_76
Time_Shift_1
Note_On_74_Vel_74
Time_Shift_1
Note_On_43_Vel_54
Time_Shift_25
Note_On_71_Vel_48
Time_Shift_5
Note_On_77_Vel_0
Time_Shift_3
Note_On_43_Vel_0
Time_Shift_16
Note_On_71_Vel_0
Note_On_74_Vel_0
Time_Shift_89
Note_On_79_Vel_86
Time_Shift_6
Note_On_77_Vel_81
Time_Shift_5
Note_On_43_Vel_64
Time_Shift_3
Note_On_74_Vel_70
Time_Shift_20
Note_On_77_Vel_0
Time_Shift_30
Note_On_74_Vel_0
Time_Shift_56
Note_On_74_Vel_75
Time_Shift_18
Note_On_71_Vel_70
Time_Shift_22
Note_On_74_Vel_0
Time_Shift_1
Note_On_71_Vel_0
Time_Shift_42
Note_On_79_Vel_0
Time_Shift_16
Note_On_43_Vel_0
Time_Shift_48
Note_On_72_Vel_85
Time_Shift_1
Note_On_55_Vel_60
Time_Shift_2
Note_On_76_Vel_71
Time_Shift_22
Note_On_72_Vel_0
Time_Shift_3
Note_On_76_Vel_0
Time_Shift_38
Note_On_55_Vel_0
Time_Shift_50
Note_On_79_Vel_91
Time_Shift_37
Note_On_43_Vel_48
Time_Shift_21
Note_On_79_Vel_0
Time_Shift_27
Note_On_89_Vel_78
Time_Shift_1
Note_On_91_Vel_82
Time_Shift_10
Note_On_43_Vel_0
Time_Shift_15
Sustain_On
Time_Shift_13
Note_On_93_Vel_88
Time_Shift_12
Sustain_Off
Time_Shift_14
Note_On_91_Vel_0
Time_Shift_5
Note_On_91_Vel_99
Time_Shift_3
Note_On_89_Vel_0
Time_Shift_10
Note_On_86_Vel_92
Note_On_89_Vel_93
Time_Shift_43
Note_On_86_Vel_0
Time_Shift_39
Note_On_89_Vel_0
Time_Shift_38
Note_On_88_Vel_89
Time_Shift_3
Note_On_84_Vel_86
Time_Shift_6
Note_On_86_Vel_75
Time_Shift_19
Note_On_84_Vel_0
Time_Shift_3
Note_On_88_Vel_0
Note_On_93_Vel_0
Time_Shift_100
Note_On_86_Vel_0
Time_Shift_10
Note_On_86_Vel_82
Note_On_83_Vel_79
Note_On_67_Vel_62
Time_Shift_26
Note_On_67_Vel_0
Time_Shift_10
Note_On_91_Vel_0
Time_Shift_7
Note_On_83_Vel_0
Time_Shift_46
Note_On_86_Vel_0
Time_Shift_35
Note_On_89_Vel_91
Time_Shift_3
Note_On_86_Vel_82
Time_Shift_34
Note_On_86_Vel_0
Time_Shift_2
Note_On_89_Vel_0
Time_Shift_93
Note_On_91_Vel_92
Time_Shift_10
Note_On_89_Vel_86
Time_Shift_4
Note_On_86_Vel_82
Time_Shift_6
Note_On_55_Vel_64
Time_Shift_113
Note_On_86_Vel_0
Time_Shift_6
Note_On_86_Vel_92
Time_Shift_5
Note_On_83_Vel_86
Time_Shift_24
Note_On_91_Vel_0
Time_Shift_5
Note_On_89_Vel_0
Note_On_55_Vel_0
Time_Shift_2
Note_On_83_Vel_0
Time_Shift_35
Note_On_86_Vel_0
Time_Shift_87
Note_On_96_Vel_109
Time_Shift_4
Note_On_84_Vel_100
Time_Shift_4
Note_On_87_Vel_98
Time_Shift_31
Note_On_56_Vel_53
Time_Shift_43
Sustain_On
Time_Shift_269
Note_On_84_Vel_0
Time_Shift_8
Note_On_84_Vel_83
Time_Shift_4
Note_On_87_Vel_0
Time_Shift_5
Note_On_75_Vel_69
Time_Shift_1
Note_On_72_Vel_62
Time_Shift_9
Note_On_63_Vel_59
Time_Shift_21
Sustain_Off
Time_Shift_13
Sustain_On
Time_Shift_31
Note_On_96_Vel_0
Time_Shift_46
Note_On_72_Vel_0
Time_Shift_4
Note_On_80_Vel_87
Time_Shift_6
Note_On_72_Vel_49
Time_Shift_136
Note_On_80_Vel_0
Time_Shift_7
Note_On_80_Vel_83
Time_Shift_16
Note_On_63_Vel_0
Time_Shift_7
Sustain_Off
Note_On_56_Vel_0
Note_On_72_Vel_0
Note_On_75_Vel_0
Time_Shift_1
Note_On_63_Vel_61
Time_Shift_5
Note_On_75_Vel_57
Time_Shift_6
Note_On_72_Vel_56
Time_Shift_58
Sustain_On
Time_Shift_48
Note_On_79_Vel_91
Time_Shift_136
Note_On_79_Vel_0
Note_On_84_Vel_0
Time_Shift_4
Note_On_79_Vel_83
Time_Shift_8
Sustain_Off
Time_Shift_3
Note_On_72_Vel_0
Note_On_75_Vel_0
Time_Shift_10
Note_On_75_Vel_70
Time_Shift_1
Note_On_72_Vel_60
Time_Shift_6
Note_On_57_Vel_53
Time_Shift_37
Note_On_80_Vel_0
Time_Shift_15
Sustain_On
Time_Shift_60
Note_On_78_Vel_91
Time_Shift_125
Note_On_78_Vel_0
Time_Shift_9
Note_On_78_Vel_79
Time_Shift_2
Note_On_63_Vel_0
Note_On_79_Vel_0
Note_On_72_Vel_0
Note_On_75_Vel_0
Time_Shift_2
Note_On_57_Vel_0
Time_Shift_5
Sustain_Off
Time_Shift_7
Note_On_74_Vel_62
Note_On_62_Vel_64
Time_Shift_8
Note_On_59_Vel_58
Time_Shift_67
Sustain_On
Time_Shift_47
Note_On_79_Vel_85
Time_Shift_10
Note_On_67_Vel_62
Time_Shift_119
Note_On_79_Vel_0
Time_Shift_9
Note_On_79_Vel_84
Time_Shift_7
Note_On_67_Vel_0
Note_On_74_Vel_0
Time_Shift_7
Note_On_67_Vel_66
Time_Shift_4
Note_On_74_Vel_48
Time_Shift_1
Note_On_50_Vel_47
Time_Shift_6
Note_On_47_Vel_55
Time_Shift_97
Note_On_74_Vel_0
Time_Shift_5
Note_On_77_Vel_84
Time_Shift_2
Note_On_74_Vel_75
Time_Shift_131
Note_On_77_Vel_0
Time_Shift_4
Note_On_77_Vel_75
Time_Shift_11
Note_On_78_Vel_0
Time_Shift_5
Note_On_72_Vel_58
Time_Shift_9
Note_On_47_Vel_0
Sustain_Off
Time_Shift_1
Note_On_50_Vel_0
Note_On_59_Vel_0
Note_On_67_Vel_0
Time_Shift_1
Note_On_60_Vel_53
Note_On_79_Vel_0
Time_Shift_1
Note_On_74_Vel_0
Time_Shift_2
Note_On_48_Vel_52
Time_Shift_4
Note_On_62_Vel_0
Time_Shift_93
Sustain_On
Time_Shift_14
Note_On_67_Vel_56
Time_Shift_1
Note_On_77_Vel_0
Time_Shift_2
Note_On_76_Vel_69
Time_Shift_5
Note_On_77_Vel_65
Time_Shift_58
Note_On_74_Vel_37
Time_Shift_65
Note_On_67_Vel_0
Note_On_76_Vel_0
Time_Shift_6
Note_On_76_Vel_64
Time_Shift_2
Note_On_60_Vel_0
Time_Shift_3
Note_On_67_Vel_55
Time_Shift_8
Note_On_60_Vel_40
Time_Shift_7
Note_On_55_Vel_40
Time_Shift_113
Note_On_72_Vel_0
Time_Shift_10
Note_On_72_Vel_64
Time_Shift_1
Note_On_75_Vel_72
Time_Shift_101
Note_On_41_Vel_60
Time_Shift_6
Note_On_76_Vel_0
Time_Shift_1
Note_On_72_Vel_0
Time_Shift_1
Note_On_67_Vel_0
Note_On_48_Vel_0
Note_On_55_Vel_0
Time_Shift_1
Note_On_60_Vel_0
Time_Shift_2
Note_On_77_Vel_0
Sustain_Off
Time_Shift_7
Note_On_74_Vel_0
Time_Shift_8
Note_On_75_Vel_0
Time_Shift_5
Note_On_75_Vel_77
Time_Shift_17
Note_On_65_Vel_60
Time_Shift_21
Note_On_53_Vel_60
Time_Shift_18
Sustain_On
Time_Shift_70
Note_On_73_Vel_84
Time_Shift_2
Note_On_68_Vel_72
Time_Shift_134
Note_On_78_Vel_93
Time_Shift_22
Note_On_72_Vel_58
Note_On_56_Vel_68
Time_Shift_103
Note_On_73_Vel_0
Time_Shift_10
Note_On_77_Vel_84
Time_Shift_1
Note_On_73_Vel_80
Time_Shift_149
Note_On_82_Vel_91
Time_Shift_16
Note_On_41_Vel_0
Note_On_77_Vel_0
Time_Shift_2
Note_On_75_Vel_0
Time_Shift_1
Note_On_73_Vel_0
Note_On_78_Vel_0
Note_On_65_Vel_0
Time_Shift_3
Note_On_77_Vel_64
Sustain_Off
Time_Shift_2
Note_On_53_Vel_0
Note_On_72_Vel_0
Time_Shift_5
Note_On_72_Vel_58
Time_Shift_2
Note_On_53_Vel_44
Time_Shift_8
Note_On_68_Vel_0
Time_Shift_69
Sustain_On
Time_Shift_34
Note_On_80_Vel_78
Time_Shift_1
Note_On_73_Vel_71
Time_Shift_142
Note_On_77_Vel_0
Time_Shift_5
Note_On_77_Vel_77
Time_Shift_8
Note_On_61_Vel_61
Time_Shift_5
Note_On_68_Vel_54
Time_Shift_113
Note_On_73_Vel_0
Time_Shift_10
Note_On_73_Vel_75
Time_Shift_17
Note_On_65_Vel_59
Time_Shift_91
Note_On_53_Vel_0
Note_On_73_Vel_0
Time_Shift_1
Note_On_68_Vel_0
Note_On_65_Vel_0
Note_On_61_Vel_0
Note_On_80_Vel_0
Time_Shift_1
Note_On_77_Vel_0
Note_On_82_Vel_0
Time_Shift_2
Note_On_72_Vel_0
Time_Shift_3
Sustain_Off
Time_Shift_5
Note_On_56_Vel_0
Time_Shift_36
Note_On_72_Vel_65
Time_Shift_12
Note_On_63_Vel_50
Time_Shift_6
Note_On_67_Vel_50
Time_Shift_3
Note_On_55_Vel_43
Note_On_60_Vel_46
Time_Shift_120
Sustain_On
Time_Shift_4
Note_On_73_Vel_73
Time_Shift_138
Note_On_74_Vel_63
Time_Shift_132
Note_On_75_Vel_61
Time_Shift_164
Note_On_75_Vel_0
Time_Shift_10
Note_On_75_Vel_64
Time_Shift_10
Note_On_43_Vel_47
Time_Shift_4
Note_On_65_Vel_44
Time_Shift_22
Note_On_55_Vel_0
Note_On_72_Vel_0
Time_Shift_2
Note_On_63_Vel_0
Note_On_60_Vel_0
Note_On_67_Vel_0
Note_On_74_Vel_0
Time_Shift_1
Note_On_73_Vel_0
Sustain_Off
Time_Shift_123
Note_On_45_Vel_52
Time_Shift_27
Sustain_On
Time_Shift_109
Note_On_46_Vel_59
Time_Shift_163
Note_On_74_Vel_56
Note_On_47_Vel_52
Time_Shift_127
Note_On_72_Vel_72
Time_Shift_1
Note_On_60_Vel_74
Time_Shift_4
Note_On_67_Vel_56
Time_Shift_14
Note_On_63_Vel_60
Time_Shift_6
Note_On_48_Vel_50
Time_Shift_30
Sustain_Off
Time_Shift_1
Note_On_74_Vel_0
Note_On_46_Vel_0
Time_Shift_1
Note_On_47_Vel_0
Note_On_67_Vel_0
Note_On_45_Vel_0
Time_Shift_1
Note_On_65_Vel_0
Time_Shift_4
Note_On_43_Vel_0
Time_Shift_3
Note_On_63_Vel_0
Time_Shift_5
Note_On_75_Vel_0
Time_Shift_46
Note_On_48_Vel_0
Time_Shift_15
Note_On_60_Vel_0
Time_Shift_5
Note_On_72_Vel_0
Time_Shift_7
Note_On_61_Vel_87
Time_Shift_50
Sustain_On
Time_Shift_73
Note_On_62_Vel_96
Time_Shift_122
Note_On_63_Vel_98
Time_Shift_112
Note_On_61_Vel_0
Time_Shift_11
Note_On_62_Vel_0
Time_Shift_1
Note_On_63_Vel_0
Time_Shift_4
Sustain_Off
Time_Shift_9
Note_On_84_Vel_102
Time_Shift_1
Note_On_75_Vel_104
Note_On_56_Vel_106
Time_Shift_1
Note_On_44_Vel_101
Note_On_72_Vel_102
Time_Shift_38
Note_On_56_Vel_0
Time_Shift_12
Sustain_On
Time_Shift_66
Note_On_73_Vel_93
Time_Shift_123
Note_On_63_Vel_89
Time_Shift_1
Note_On_60_Vel_91
Time_Shift_3
Note_On_74_Vel_95
Time_Shift_1
Note_On_51_Vel_92
Note_On_72_Vel_0
Time_Shift_97
Note_On_75_Vel_0
Time_Shift_9
Note_On_75_Vel_95
Time_Shift_102
Note_On_74_Vel_0
Note_On_84_Vel_0
Note_On_60_Vel_0
Note_On_73_Vel_0
Time_Shift_1
Note_On_75_Vel_0
Time_Shift_3
Sustain_Off
Time_Shift_1
Note_On_63_Vel_0
Time_Shift_7
Note_On_44_Vel_0
Time_Shift_23
Note_On_51_Vel_0
Time_Shift_4
Note_On_96_Vel_107
Time_Shift_1
Note_On_51_Vel_105
Time_Shift_1
Note_On_39_Vel_97
Note_On_84_Vel_104
Time_Shift_1
Note_On_87_Vel_100
Time_Shift_24
Sustain_On
Time_Shift_97
Note_On_85_Vel_92
Time_Shift_121
Note_On_86_Vel_94
Time_Shift_2
Note_On_63_Vel_91
Time_Shift_1
Note_On_60_Vel_84
Time_Shift_1
Note_On_55_Vel_85
Time_Shift_93
Note_On_87_Vel_0
Time_Shift_10
Note_On_87_Vel_99
Time_Shift_74
Note_On_39_Vel_0
Time_Shift_34
Sustain_Off
Time_Shift_1
Note_On_60_Vel_0
Time_Shift_1
Note_On_51_Vel_0
Note_On_55_Vel_0
Time_Shift_1
Note_On_63_Vel_0
Note_On_85_Vel_0
Time_Shift_1
Note_On_96_Vel_0
Note_On_87_Vel_0
Time_Shift_9
Note_On_84_Vel_0
Time_Shift_7
Note_On_86_Vel_0
Time_Shift_3
Note_On_72_Vel_107
Note_On_53_Vel_105
Time_Shift_1
Note_On_84_Vel_103
Note_On_41_Vel_98
Time_Shift_6
Note_On_75_Vel_98
Time_Shift_21
Sustain_On
Time_Shift_84
Note_On_75_Vel_0
Time_Shift_10
Note_On_73_Vel_92
Time_Shift_2
Note_On_75_Vel_87
Time_Shift_107
Note_On_63_Vel_93
Time_Shift_1
Note_On_56_Vel_82
Note_On_74_Vel_97
Time_Shift_1
Note_On_60_Vel_79
Time_Shift_102
Note_On_75_Vel_0
Time_Shift_6
Note_On_75_Vel_103
Time_Shift_81
Note_On_74_Vel_0
Note_On_41_Vel_0
Time_Shift_1
Note_On_53_Vel_0
Note_On_72_Vel_0
Note_On_73_Vel_0
Note_On_60_Vel_0
Note_On_75_Vel_0
Note_On_56_Vel_0
Note_On_63_Vel_0
Note_On_84_Vel_0
Time_Shift_6
Sustain_Off
Time_Shift_52
Note_On_96_Vel_107
Time_Shift_2
Note_On_84_Vel_107
Time_Shift_1
Note_On_42_Vel_103
Note_On_54_Vel_100
Time_Shift_2
Note_On_87_Vel_98
Time_Shift_18
Sustain_On
Time_Shift_101
Note_On_85_Vel_96
Time_Shift_114
Note_On_54_Vel_0
Time_Shift_4
Note_On_86_Vel_97
Time_Shift_4
Note_On_63_Vel_88
Note_On_57_Vel_75
Time_Shift_2
Note_On_60_Vel_76
Time_Shift_1
Note_On_54_Vel_84
Time_Shift_97
Note_On_87_Vel_0
Time_Shift_11
Note_On_87_Vel_97
Time_Shift_112
Note_On_87_Vel_0
Time_Shift_7
Note_On_57_Vel_0
Note_On_63_Vel_0
Note_On_84_Vel_0
Note_On_96_Vel_0
Time_Shift_4
Note_On_87_Vel_94
Note_On_66_Vel_96
Time_Shift_1
Note_On_57_Vel_77
Time_Shift_2
Note_On_84_Vel_103
Note_On_96_Vel_101
Time_Shift_1
Note_On_60_Vel_0
Time_Shift_2
Note_On_63_Vel_86
Time_Shift_2
Note_On_60_Vel_79
Time_Shift_96
Note_On_85_Vel_0
Time_Shift_6
Note_On_85_Vel_94
Time_Shift_109
Note_On_60_Vel_0
Note_On_63_Vel_0
Note_On_66_Vel_0
Note_On_86_Vel_0
Time_Shift_6
Note_On_69_Vel_94
Time_Shift_2
Note_On_84_Vel_0
Note_On_66_Vel_89
Note_On_86_Vel_95
Time_Shift_1
Note_On_60_Vel_83
Time_Shift_2
Note_On_63_Vel_83
Time_Shift_7
Note_On_84_Vel_83
Time_Shift_89
Note_On_87_Vel_0
Time_Shift_8
Note_On_84_Vel_0
Time_Shift_4
Note_On_87_Vel_100
Note_On_84_Vel_77
Time_Shift_119
Note_On_63_Vel_0
Note_On_66_Vel_0
Note_On_69_Vel_0
Note_On_84_Vel_0
Note_On_87_Vel_0
Note_On_96_Vel_0
Time_Shift_5
Note_On_72_Vel_100
Time_Shift_1
Note_On_84_Vel_106
Note_On_69_Vel_85
Time_Shift_2
Note_On_60_Vel_0
Note_On_87_Vel_96
Time_Shift_2
Note_On_96_Vel_99
Time_Shift_1
Note_On_63_Vel_81
Note_On_66_Vel_90
Time_Shift_4
Note_On_60_Vel_73
Time_Shift_93
Note_On_85_Vel_0
Time_Shift_4
Note_On_85_Vel_97
Time_Shift_111
Note_On_69_Vel_0
Note_On_86_Vel_0
Time_Shift_7
Note_On_60_Vel_0
Note_On_63_Vel_0
Note_On_66_Vel_0
Time_Shift_2
Note_On_86_Vel_101
Time_Shift_2
Note_On_69_Vel_93
Note_On_66_Vel_84
Time_Shift_1
Note_On_60_Vel_88
Time_Shift_1
Note_On_63_Vel_86
Time_Shift_102
Note_On_87_Vel_0
Time_Shift_5
Note_On_87_Vel_101
Time_Shift_110
Note_On_84_Vel_0
Note_On_87_Vel_0
Note_On_96_Vel_0
Time_Shift_5
Note_On_96_Vel_100
Time_Shift_1
Note_On_84_Vel_106
Note_On_87_Vel_102
Time_Shift_2
Note_On_66_Vel_0
Note_On_69_Vel_0
Note_On_72_Vel_0
Time_Shift_3
Note_On_75_Vel_108
Time_Shift_1
Note_On_66_Vel_88
Note_On_69_Vel_79
Time_Shift_3
Note_On_72_Vel_96
Time_Shift_93
Note_On_85_Vel_0
Time_Shift_5
Note_On_85_Vel_99
Time_Shift_118
Note_On_72_Vel_0
Note_On_75_Vel_0
Note_On_86_Vel_0
Time_Shift_6
Note_On_86_Vel_100
Time_Shift_1
Note_On_84_Vel_0
Time_Shift_1
Note_On_78_Vel_104
Time_Shift_2
Note_On_75_Vel_98
Time_Shift_1
Note_On_72_Vel_95
Time_Shift_7
Note_On_84_Vel_92
Time_Shift_89
Note_On_87_Vel_0
Time_Shift_6
Note_On_87_Vel_100
Time_Shift_116
Note_On_63_Vel_0
Time_Shift_1
Note_On_72_Vel_0
Note_On_75_Vel_0
Note_On_84_Vel_0
Note_On_87_Vel_0
Note_On_96_Vel_0
Time_Shift_2
Sustain_Off
Time_Shift_1
Note_On_66_Vel_0
Time_Shift_1
Note_On_79_Vel_109
Note_On_84_Vel_109
Time_Shift_1
Note_On_96_Vel_103
Note_On_75_Vel_103
Note_On_91_Vel_105
Note_On_67_Vel_91
Time_Shift_3
Note_On_87_Vel_97
Time_Shift_1
Note_On_72_Vel_100
Time_Shift_22
Sustain_On
Time_Shift_79
Note_On_95_Vel_84
Note_On_83_Vel_106
Time_Shift_13
Note_On_54_Vel_0
Time_Shift_7
Note_On_42_Vel_0
Time_Shift_2
Note_On_79_Vel_0
Note_On_96_Vel_0
Note_On_84_Vel_0
Time_Shift_1
Note_On_87_Vel_0
Sustain_Off
Note_On_75_Vel_0
Time_Shift_1
Note_On_85_Vel_0
Note_On_67_Vel_0
Time_Shift_1
Note_On_91_Vel_0
Time_Shift_1
Note_On_95_Vel_0
Time_Shift_2
Note_On_78_Vel_0
Time_Shift_2
Note_On_83_Vel_0
Time_Shift_6
Note_On_57_Vel_0
Time_Shift_8
Note_On_60_Vel_0
Time_Shift_7
Note_On_69_Vel_0
Time_Shift_8
Note_On_86_Vel_0
Time_Shift_49
Note_On_82_Vel_101
Time_Shift_108
Note_On_80_Vel_102
Time_Shift_34
Note_On_72_Vel_0
Time_Shift_2
Note_On_82_Vel_0
Time_Shift_6
Note_On_80_Vel_0
Time_Shift_74
Note_On_84_Vel_100
Note_On_75_Vel_100
Note_On_79_Vel_106
Time_Shift_42
Note_On_79_Vel_0
Time_Shift_1
Note_On_75_Vel_0
Time_Shift_37
Note_On_84_Vel_0
Time_Shift_17
Note_On_78_Vel_102
Time_Shift_1
Note_On_83_Vel_99
Time_Shift_28
Note_On_78_Vel_0
Time_Shift_5
Note_On_83_Vel_0
Time_Shift_77
Note_On_77_Vel_101
Time_Shift_2
Note_On_82_Vel_99
Time_Shift_1
Note_On_74_Vel_97
Time_Shift_27
Note_On_82_Vel_0
Time_Shift_1
Note_On_74_Vel_0
Note_On_77_Vel_0
Time_Shift_75
Note_On_81_Vel_101
Time_Shift_1
Note_On_76_Vel_104
Time_Shift_4
Note_On_73_Vel_95
Time_Shift_29
Note_On_76_Vel_0
Time_Shift_1
Note_On_73_Vel_0
Time_Shift_4
Note_On_81_Vel_0
Time_Shift_67
Note_On_75_Vel_101
Note_On_80_Vel_96
Time_Shift_3
Note_On_72_Vel_94
Time_Shift_22
Note_On_80_Vel_0
Time_Shift_1
Note_On_75_Vel_0
Time_Shift_18
Note_On_72_Vel_0
Time_Shift_65
Note_On_74_Vel_96
Note_On_79_Vel_101
Note_On_71_Vel_94
Time_Shift_23
Note_On_74_Vel_0
Note_On_71_Vel_0
Time_Shift_1
Note_On_79_Vel_0
Time_Shift_77
Note_On_78_Vel_96
Note_On_73_Vel_97
Time_Shift_5
Note_On_70_Vel_95
Time_Shift_24
Note_On_73_Vel_0
Time_Shift_1
Note_On_70_Vel_0
Time_Shift_19
Note_On_78_Vel_0
Time_Shift_59
Note_On_77_Vel_98
Time_Shift_1
Note_On_72_Vel_96
Time_Shift_3
Note_On_69_Vel_89
Time_Shift_20
Note_On_72_Vel_0
Time_Shift_1
Note_On_77_Vel_0
Time_Shift_3
Note_On_69_Vel_0
Time_Shift_79
Note_On_76_Vel_99
Time_Shift_1
Note_On_71_Vel_96
Time_Shift_2
Note_On_68_Vel_89
Time_Shift_25
Note_On_68_Vel_0
Time_Shift_1
Note_On_71_Vel_0
Time_Shift_1
Note_On_76_Vel_0
Time_Shift_77
Note_On_70_Vel_97
Time_Shift_3
Note_On_75_Vel_89
Time_Shift_3
Note_On_67_Vel_90
Time_Shift_24
Note_On_67_Vel_0
Time_Shift_5
Note_On_70_Vel_0
Time_Shift_3
Note_On_75_Vel_0
Time_Shift_78
Note_On_74_Vel_98
Note_On_69_Vel_90
Note_On_66_Vel_91
Time_Shift_23
Note_On_66_Vel_0
Note_On_69_Vel_0
Time_Shift_1
Note_On_74_Vel_0
Time_Shift_80
Note_On_73_Vel_94
Note_On_68_Vel_96
Note_On_65_Vel_96
Time_Shift_21
Note_On_65_Vel_0
Time_Shift_4
Note_On_68_Vel_0
Time_Shift_1
Note_On_73_Vel_0
Time_Shift_87
Note_On_72_Vel_104
Time_Shift_2
Note_On_67_Vel_93
Time_Shift_3
Note_On_64_Vel_87
Time_Shift_20
Note_On_67_Vel_0
Time_Shift_3
Note_On_64_Vel_0
Note_On_72_Vel_0
Time_Shift_230
Note_On_67_Vel_78
Time_Shift_2
Note_On_72_Vel_75
Time_Shift_1
Note_On_63_Vel_86
Time_Shift_21
Note_On_67_Vel_0
Time_Shift_7
Note_On_72_Vel_0
Time_Shift_19
Note_On_63_Vel_0
Time_Shift_225
Note_On_65_Vel_64
Time_Shift_2
Note_On_71_Vel_62
Note_On_62_Vel_70
Time_Shift_23
Note_On_65_Vel_0
Time_Shift_1
Note_On_71_Vel_0
Time_Shift_1
Note_On_62_Vel_0
Time_Shift_250
Note_On_68_Vel_62
Time_Shift_2
Note_On_63_Vel_65
Time_Shift_6
Note_On_60_Vel_51
Time_Shift_31
Note_On_60_Vel_0
Note_On_63_Vel_0
Note_On_68_Vel_0
Time_Shift_347
Note_On_67_Vel_43
Time_Shift_7
Note_On_59_Vel_39
Time_Shift_1
Note_On_62_Vel_37
Time_Shift_61
Note_On_59_Vel_0
Time_Shift_6
Note_On_62_Vel_0
Time_Shift_7
Note_On_67_Vel_0
Time_Shift_764
Note_On_67_Vel_71
Time_Shift_14
Note_On_63_Vel_61
Time_Shift_9
Note_On_58_Vel_56
Time_Shift_5
Note_On_61_Vel_45
Time_Shift_5
Sustain_On
Time_Shift_245
Sustain_Off
Time_Shift_131
Note_On_58_Vel_0
Time_Shift_23
Note_On_61_Vel_0
Note_On_63_Vel_0
Time_Shift_15
Note_On_67_Vel_0
Time_Shift_1388
Note_On_68_Vel_67
Time_Shift_52
Note_On_68_Vel_0
Time_Shift_22
Note_On_70_Vel_72
Time_Shift_63
Note_On_68_Vel_79
Time_Shift_21
Note_On_70_Vel_0
Time_Shift_7
Note_On_63_Vel_62
Time_Shift_4
Note_On_60_Vel_40
Time_Shift_3
Note_On_56_Vel_45
Time_Shift_149
Note_On_68_Vel_0
Time_Shift_14
Note_On_67_Vel_81
Time_Shift_148
Note_On_68_Vel_82
Time_Shift_149
Note_On_70_Vel_86
Time_Shift_148
Note_On_72_Vel_83
Time_Shift_19
Note_On_70_Vel_0
Time_Shift_117
Note_On_63_Vel_0
Time_Shift_8
Sustain_On
Time_Shift_3
Note_On_63_Vel_82
Time_Shift_20
Note_On_68_Vel_0
Time_Shift_127
Note_On_70_Vel_89
Time_Shift_130
Note_On_68_Vel_86
Time_Shift_150
Note_On_67_Vel_0
Time_Shift_7
Note_On_67_Vel_84
Time_Shift_13
Note_On_51_Vel_63
Time_Shift_1
Note_On_58_Vel_63
Time_Shift_4
Note_On_61_Vel_63
Time_Shift_3
Sustain_Off
Time_Shift_64
Note_On_72_Vel_0
Sustain_On
Time_Shift_54
Note_On_68_Vel_0
Time_Shift_9
Note_On_68_Vel_90
Time_Shift_129
Note_On_70_Vel_0
Time_Shift_49
Note_On_69_Vel_85
Time_Shift_31
Note_On_68_Vel_0
Time_Shift_51
Note_On_56_Vel_0
Time_Shift_30
Sustain_Off
Time_Shift_12
Note_On_69_Vel_0
Time_Shift_58
Note_On_60_Vel_0
Time_Shift_15
Sustain_On
Time_Shift_104
Note_On_70_Vel_86
Time_Shift_96
Note_On_70_Vel_0
Time_Shift_11
Note_On_70_Vel_85
Time_Shift_158
Note_On_67_Vel_0
Time_Shift_245
Note_On_70_Vel_0
Time_Shift_5
Note_On_70_Vel_80
Time_Shift_18
Note_On_61_Vel_0
Time_Shift_7
Note_On_52_Vel_50
Time_Shift_1
Sustain_Off
Note_On_58_Vel_0
Time_Shift_3
Note_On_61_Vel_57
Time_Shift_4
Note_On_58_Vel_58
Time_Shift_6
Note_On_51_Vel_0
Time_Shift_2
Note_On_63_Vel_0
Time_Shift_62
Sustain_On
Time_Shift_299
Note_On_70_Vel_0
Time_Shift_5
Note_On_70_Vel_67
Time_Shift_46
Note_On_72_Vel_69
Time_Shift_57
Note_On_70_Vel_0
Time_Shift_4
Note_On_70_Vel_82
Time_Shift_18
Sustain_Off
Time_Shift_3
Note_On_52_Vel_0
Time_Shift_2
Note_On_53_Vel_61
Time_Shift_4
Note_On_58_Vel_0
Note_On_61_Vel_0
Time_Shift_1
Note_On_65_Vel_63
Time_Shift_3
Note_On_58_Vel_59
Time_Shift_2
Note_On_61_Vel_58
Time_Shift_47
Sustain_On
Time_Shift_102
Note_On_69_Vel_82
Time_Shift_14
Note_On_72_Vel_0
Time_Shift_69
Note_On_70_Vel_0
Time_Shift_72
Note_On_70_Vel_85
Time_Shift_148
Note_On_72_Vel_87
Time_Shift_48
Sustain_Off
Time_Shift_47
Note_On_69_Vel_0
Time_Shift_38
Sustain_On
Time_Shift_27
Note_On_73_Vel_84
Time_Shift_142
Note_On_65_Vel_0
Time_Shift_10
Note_On_65_Vel_88
Time_Shift_120
Note_On_72_Vel_0
Time_Shift_12
Note_On_72_Vel_85
Time_Shift_142
Note_On_70_Vel_0
Time_Shift_11
Note_On_70_Vel_89
Time_Shift_120
Note_On_53_Vel_0
Time_Shift_8
Note_On_53_Vel_70
Time_Shift_2
Note_On_63_Vel_73
Time_Shift_4
Note_On_60_Vel_65
Time_Shift_18
Note_On_69_Vel_90
Time_Shift_106
Note_On_61_Vel_0
Time_Shift_8
Note_On_70_Vel_0
Time_Shift_4
Sustain_Off
Time_Shift_11
Note_On_72_Vel_0
Sustain_On
Time_Shift_8
Note_On_73_Vel_0
Time_Shift_11
Note_On_70_Vel_90
Time_Shift_19
Note_On_58_Vel_0
Time_Shift_145
Note_On_71_Vel_91
Time_Shift_148
Note_On_71_Vel_0
Time_Shift_164
Note_On_72_Vel_89
Time_Shift_66
Note_On_65_Vel_0
Time_Shift_23
Note_On_72_Vel_0
Time_Shift_10
Note_On_72_Vel_87
Time_Shift_412
Note_On_72_Vel_0
Time_Shift_5
Note_On_72_Vel_89
Time_Shift_14
Sustain_Off
Time_Shift_1
Note_On_54_Vel_63
Time_Shift_103
Note_On_69_Vel_0
Sustain_On
Time_Shift_23
Note_On_70_Vel_0
Time_Shift_315
Note_On_72_Vel_0
Time_Shift_9
Note_On_72_Vel_72
Time_Shift_61
Sustain_Off
Time_Shift_15
Note_On_54_Vel_0
Note_On_74_Vel_62
Time_Shift_7
Note_On_53_Vel_0
Time_Shift_31
Note_On_72_Vel_0
Time_Shift_7
Note_On_63_Vel_0
Time_Shift_3
Note_On_72_Vel_69
Time_Shift_11
Note_On_67_Vel_50
Time_Shift_2
Note_On_60_Vel_0
Time_Shift_4
Note_On_60_Vel_43
Time_Shift_9
Note_On_64_Vel_45
Time_Shift_6
Note_On_55_Vel_49
Time_Shift_165
Note_On_71_Vel_74
Time_Shift_35
Note_On_72_Vel_0
Time_Shift_19
Note_On_74_Vel_0
Sustain_On
Time_Shift_98
Note_On_72_Vel_78
Time_Shift_153
Note_On_74_Vel_76
Time_Shift_155
Note_On_76_Vel_76
Time_Shift_37
Note_On_72_Vel_0
Time_Shift_16
Note_On_74_Vel_0
Time_Shift_2
Note_On_71_Vel_0
Sustain_Off
Time_Shift_84
Sustain_On
Time_Shift_8
Note_On_67_Vel_0
Time_Shift_11
Note_On_67_Vel_73
Time_Shift_133
Note_On_74_Vel_79
Time_Shift_136
Note_On_72_Vel_83
Time_Shift_168
Note_On_71_Vel_81
Time_Shift_13
Note_On_55_Vel_0
Time_Shift_5
Note_On_65_Vel_67
Time_Shift_1
Note_On_55_Vel_52
Time_Shift_124
Note_On_72_Vel_0
Time_Shift_11
Note_On_72_Vel_82
Time_Shift_69
Note_On_74_Vel_0
Note_On_76_Vel_0
Time_Shift_1
Note_On_67_Vel_0
Time_Shift_3
Note_On_60_Vel_0
Time_Shift_24
Note_On_64_Vel_0
Sustain_Off
Time_Shift_69
Note_On_73_Vel_89
Time_Shift_123
Note_On_72_Vel_0
Time_Shift_84
Sustain_On
Time_Shift_83
Note_On_74_Vel_84
Time_Shift_9
Sustain_Off
Time_Shift_77
Note_On_74_Vel_0
Time_Shift_11
Note_On_74_Vel_81
Time_Shift_4
Sustain_On
Time_Shift_31
Note_On_73_Vel_0
Time_Shift_372
Note_On_75_Vel_79
Time_Shift_15
Note_On_66_Vel_63
Time_Shift_5
Note_On_71_Vel_0
Time_Shift_8
Note_On_54_Vel_56
Time_Shift_9
Note_On_65_Vel_0
Time_Shift_1
Sustain_Off
Time_Shift_3
Note_On_74_Vel_0
Time_Shift_48
Note_On_55_Vel_0
Time_Shift_69
Sustain_On
Time_Shift_233
Note_On_70_Vel_71
Time_Shift_33
Note_On_64_Vel_58
Time_Shift_119
Sustain_Off
Time_Shift_1
Note_On_75_Vel_0
Time_Shift_1
Note_On_66_Vel_0
Time_Shift_1
Note_On_71_Vel_82
Time_Shift_88
Sustain_On
Time_Shift_77
Note_On_72_Vel_80
Time_Shift_20
Note_On_71_Vel_0
Time_Shift_72
Note_On_70_Vel_0
Time_Shift_195
Note_On_73_Vel_85
Time_Shift_89
Note_On_73_Vel_0
Time_Shift_8
Note_On_73_Vel_77
Time_Shift_77
Note_On_72_Vel_0
Time_Shift_369
Note_On_74_Vel_71
Time_Shift_18
Note_On_65_Vel_65
Time_Shift_9
Note_On_73_Vel_0
Time_Shift_1
Note_On_64_Vel_0
Time_Shift_5
Note_On_54_Vel_0
Time_Shift_3
Note_On_53_Vel_52
Time_Shift_3
Sustain_Off
Time_Shift_76
Sustain_On
Time_Shift_499
Note_On_69_Vel_52
Time_Shift_4
Note_On_63_Vel_52
Time_Shift_7
Note_On_65_Vel_0
Time_Shift_7
Note_On_74_Vel_0
Time_Shift_1
Sustain_Off
Time_Shift_155
Note_On_70_Vel_65
Time_Shift_10
Sustain_On
Time_Shift_143
Note_On_71_Vel_68
Time_Shift_18
Note_On_69_Vel_0
Time_Shift_136
Note_On_72_Vel_72
Time_Shift_155
Note_On_71_Vel_0
Time_Shift_4
Note_On_70_Vel_0
Time_Shift_1
Sustain_Off
Time_Shift_4
Note_On_72_Vel_0
Time_Shift_5
Note_On_72_Vel_64
Note_On_41_Vel_46
Time_Shift_87
Note_On_53_Vel_0
Time_Shift_23
Sustain_On
Time_Shift_45
Note_On_43_Vel_58
Time_Shift_147
Note_On_72_Vel_0
Time_Shift_10
Note_On_72_Vel_69
Time_Shift_1
Sustain_Off
Time_Shift_7
Note_On_44_Vel_64
Time_Shift_1
Note_On_41_Vel_0
Time_Shift_1
Note_On_43_Vel_0
Time_Shift_72
Sustain_On
Time_Shift_59
Note_On_45_Vel_67
Time_Shift_173
Sustain_Off
Time_Shift_10
Note_On_46_Vel_65
Time_Shift_2
Note_On_65_Vel_62
Time_Shift_14
Note_On_44_Vel_0
Time_Shift_34
Note_On_45_Vel_0
Time_Shift_46
Sustain_On
Time_Shift_23
Note_On_63_Vel_0
Time_Shift_19
Note_On_67_Vel_65
Time_Shift_140
Sustain_Off
Time_Shift_10
Note_On_46_Vel_0
Time_Shift_7
Note_On_46_Vel_68
Time_Shift_4
Note_On_62_Vel_67
Time_Shift_2
Note_On_68_Vel_69
Time_Shift_18
Note_On_67_Vel_0
Time_Shift_38
Sustain_On
Time_Shift_16
Note_On_72_Vel_0
Time_Shift_72
Note_On_69_Vel_77
Time_Shift_144
Sustain_Off
Time_Shift_22
Note_On_62_Vel_0
Time_Shift_2
Note_On_68_Vel_0
Time_Shift_2
Note_On_70_Vel_70
Time_Shift_2
Note_On_69_Vel_0
Time_Shift_2
Note_On_65_Vel_0
Time_Shift_1
Note_On_39_Vel_53
Time_Shift_2
Note_On_61_Vel_67
Time_Shift_81
Sustain_On
Time_Shift_65
Note_On_41_Vel_53
Time_Shift_150
Note_On_70_Vel_0
Time_Shift_8
Sustain_Off
Time_Shift_2
Note_On_70_Vel_72
Time_Shift_9
Note_On_39_Vel_0
Time_Shift_3
Note_On_41_Vel_0
Time_Shift_2
Note_On_42_Vel_63
Time_Shift_7
Note_On_46_Vel_0
Time_Shift_77
Sustain_On
Time_Shift_60
Note_On_43_Vel_63
Time_Shift_138
Note_On_42_Vel_0
Time_Shift_4
Sustain_Off
Time_Shift_5
Note_On_43_Vel_0
Time_Shift_10
Note_On_63_Vel_66
Time_Shift_2
Note_On_44_Vel_58
Time_Shift_72
Sustain_On
Time_Shift_16
Note_On_61_Vel_0
Time_Shift_57
Note_On_65_Vel_69
Time_Shift_150
Note_On_44_Vel_0
Time_Shift_3
Sustain_Off
Time_Shift_2
Note_On_66_Vel_65
Time_Shift_7
Note_On_44_Vel_56
Note_On_63_Vel_0
Note_On_65_Vel_0
Time_Shift_8
Note_On_60_Vel_52
Time_Shift_3
Note_On_70_Vel_0
Time_Shift_92
Sustain_On
Time_Shift_53
Note_On_67_Vel_70
Time_Shift_135
Sustain_Off
Time_Shift_4
Note_On_66_Vel_0
Time_Shift_3
Note_On_60_Vel_0
Time_Shift_21
Note_On_68_Vel_60
Time_Shift_11
Note_On_37_Vel_49
Note_On_59_Vel_55
Time_Shift_3
Note_On_67_Vel_0
Time_Shift_70
Sustain_On
Time_Shift_71
Note_On_39_Vel_56
Time_Shift_147
Sustain_Off
Time_Shift_5
Note_On_44_Vel_0
Note_On_68_Vel_0
Time_Shift_4
Note_On_68_Vel_59
Time_Shift_1
Note_On_59_Vel_0
Time_Shift_5
Note_On_37_Vel_0
Time_Shift_5
Note_On_39_Vel_0
Time_Shift_5
Note_On_40_Vel_54
Time_Shift_64
Sustain_On
Time_Shift_117
Note_On_41_Vel_54
Time_Shift_161
Sustain_Off
Time_Shift_12
Note_On_61_Vel_66
Time_Shift_21
Note_On_42_Vel_55
Time_Shift_6
Note_On_41_Vel_0
Note_On_40_Vel_0
Time_Shift_59
Sustain_On
Time_Shift_87
Note_On_62_Vel_69
Time_Shift_163
Note_On_63_Vel_72
Time_Shift_169
Note_On_64_Vel_79
Time_Shift_139
Note_On_63_Vel_0
Time_Shift_3
Note_On_68_Vel_0
Time_Shift_6
Sustain_Off
Time_Shift_17
Note_On_62_Vel_0
Time_Shift_31
Sustain_On
Time_Shift_2
Note_On_58_Vel_61
Time_Shift_9
Note_On_54_Vel_44
Time_Shift_4
Note_On_61_Vel_0
Time_Shift_177
Note_On_64_Vel_0
Time_Shift_5
Note_On_64_Vel_66
Time_Shift_169
Note_On_73_Vel_77
Time_Shift_153
Note_On_70_Vel_79
Time_Shift_160
Note_On_69_Vel_73
Time_Shift_6
Sustain_Off
Time_Shift_2
Note_On_64_Vel_0
Note_On_58_Vel_0
Note_On_42_Vel_0
Note_On_54_Vel_0
Note_On_73_Vel_0
Note_On_70_Vel_0
Time_Shift_1
Note_On_65_Vel_59
Time_Shift_29
Note_On_53_Vel_53
Time_Shift_2
Note_On_41_Vel_50
Time_Shift_33
Sustain_On
Time_Shift_89
Note_On_70_Vel_81
Time_Shift_2
Note_On_67_Vel_60
Time_Shift_132
Sustain_Off
Time_Shift_15
Note_On_53_Vel_0
Time_Shift_8
Note_On_53_Vel_68
Time_Shift_1
Note_On_71_Vel_79
Time_Shift_5
Note_On_69_Vel_0
Time_Shift_1
Note_On_68_Vel_69
Time_Shift_14
Note_On_70_Vel_0
Time_Shift_13
Note_On_67_Vel_0
Time_Shift_66
Sustain_On
Time_Shift_46
Note_On_72_Vel_83
Time_Shift_143
Sustain_Off
Time_Shift_11
Note_On_41_Vel_0
Time_Shift_15
Note_On_65_Vel_0
Time_Shift_3
Note_On_73_Vel_82
Time_Shift_2
Note_On_65_Vel_68
Time_Shift_23
Note_On_53_Vel_0
Note_On_72_Vel_0
Time_Shift_18
Note_On_71_Vel_0
Time_Shift_46
Sustain_On
Time_Shift_51
Note_On_64_Vel_71
Time_Shift_141
Note_On_73_Vel_0
Time_Shift_8
Sustain_Off
Time_Shift_2
Note_On_73_Vel_87
Time_Shift_13
Note_On_65_Vel_0
Note_On_68_Vel_0
Time_Shift_5
Note_On_64_Vel_0
Time_Shift_17
Note_On_66_Vel_67
Time_Shift_86
Sustain_On
Time_Shift_50
Note_On_65_Vel_75
Time_Shift_165
Note_On_66_Vel_0
Time_Shift_3
Sustain_Off
Time_Shift_1
Note_On_63_Vel_70
Time_Shift_3
Note_On_66_Vel_60
Time_Shift_3
Note_On_65_Vel_0
Time_Shift_105
Sustain_On
Time_Shift_40
Note_On_72_Vel_77
Time_Shift_174
Note_On_75_Vel_71
Time_Shift_3
Note_On_56_Vel_55
Time_Shift_1
Note_On_73_Vel_0
Time_Shift_1
Note_On_72_Vel_0
Note_On_66_Vel_0
Note_On_63_Vel_0
Time_Shift_1
Sustain_Off
Time_Shift_64
Sustain_On
Time_Shift_76
Note_On_73_Vel_75
Time_Shift_167
Note_On_72_Vel_71
Time_Shift_1
Note_On_75_Vel_0
Time_Shift_1
Note_On_73_Vel_0
Time_Shift_3
Note_On_56_Vel_0
Time_Shift_2
Note_On_44_Vel_54
Time_Shift_5
Sustain_Off
Time_Shift_106
Sustain_On
Time_Shift_53
Note_On_63_Vel_67
Time_Shift_159
Note_On_68_Vel_57
Time_Shift_1
Sustain_Off
Note_On_72_Vel_0
Time_Shift_1
Note_On_44_Vel_0
Time_Shift_23
Note_On_36_Vel_51
Time_Shift_101
Sustain_On
Time_Shift_40
Note_On_66_Vel_61
Time_Shift_146
Note_On_68_Vel_0
Sustain_Off
Time_Shift_1
Note_On_36_Vel_0
Time_Shift_1
Note_On_63_Vel_0
Time_Shift_1
Note_On_66_Vel_0
Time_Shift_15
Note_On_37_Vel_52
Time_Shift_5
Note_On_65_Vel_62
Time_Shift_9
Note_On_61_Vel_55
Time_Shift_35
Sustain_On
Time_Shift_131
Note_On_66_Vel_67
Time_Shift_15
Note_On_63_Vel_61
Time_Shift_79
Note_On_61_Vel_0
Time_Shift_1
Note_On_65_Vel_0
Sustain_Off
Time_Shift_66
Note_On_68_Vel_64
Time_Shift_16
Note_On_37_Vel_0
Time_Shift_3
Note_On_49_Vel_58
Note_On_65_Vel_59
Time_Shift_5
Note_On_63_Vel_0
Time_Shift_2
Note_On_66_Vel_0
Time_Shift_105
Sustain_On
Time_Shift_16
Note_On_69_Vel_61
Time_Shift_159
Note_On_70_Vel_69
Time_Shift_20
Note_On_69_Vel_0
Time_Shift_2
Note_On_61_Vel_54
Time_Shift_56
Note_On_49_Vel_0
Time_Shift_31
Sustain_Off
Time_Shift_8
Note_On_68_Vel_0
Time_Shift_54
Note_On_60_Vel_59
Time_Shift_23
Sustain_On
Time_Shift_116
Sustain_Off
Time_Shift_14
Note_On_70_Vel_0
Time_Shift_7
Note_On_70_Vel_72
Time_Shift_6
Note_On_61_Vel_0
Time_Shift_1
Note_On_65_Vel_0
Time_Shift_7
Note_On_60_Vel_0
Time_Shift_4
Note_On_63_Vel_60
Time_Shift_129
Sustain_On
Time_Shift_26
Note_On_63_Vel_0
Time_Shift_10
Note_On_61_Vel_58
Time_Shift_133
Sustain_Off
Time_Shift_11
Note_On_61_Vel_0
Time_Shift_8
Note_On_63_Vel_59
Time_Shift_26
Note_On_60_Vel_53
Time_Shift_54
Sustain_On
Time_Shift_88
Note_On_69_Vel_60
Time_Shift_155
Note_On_72_Vel_64
Time_Shift_7
Sustain_Off
Time_Shift_8
Note_On_69_Vel_0
Time_Shift_7
Note_On_60_Vel_0
Time_Shift_4
Note_On_70_Vel_0
Time_Shift_6
Note_On_53_Vel_47
Time_Shift_71
Sustain_On
Time_Shift_53
Note_On_70_Vel_66
Time_Shift_164
Note_On_69_Vel_63
Time_Shift_1
Sustain_Off
Time_Shift_3
Note_On_70_Vel_0
Time_Shift_4
Note_On_63_Vel_0
Time_Shift_1
Note_On_53_Vel_0
Time_Shift_1
Note_On_72_Vel_0
Time_Shift_21
Note_On_41_Vel_39
Time_Shift_82
Sustain_On
Time_Shift_67
Note_On_60_Vel_53
Time_Shift_181
Note_On_65_Vel_54
Time_Shift_4
Sustain_Off
Time_Shift_14
Note_On_33_Vel_46
Time_Shift_7
Note_On_41_Vel_0
Time_Shift_88
Sustain_On
Time_Shift_63
Note_On_63_Vel_57
Time_Shift_108
Sustain_Off
Time_Shift_61
Note_On_34_Vel_50
Time_Shift_1
Note_On_33_Vel_0
Time_Shift_1
Note_On_63_Vel_0
Time_Shift_1
Note_On_61_Vel_55
Time_Shift_11
Note_On_60_Vel_0
Time_Shift_38
Sustain_On
Time_Shift_113
Note_On_36_Vel_56
Time_Shift_118
Sustain_Off
Time_Shift_24
Note_On_34_Vel_0
Time_Shift_2
Note_On_36_Vel_0
Time_Shift_3
Note_On_58_Vel_54
Time_Shift_5
Note_On_37_Vel_58
Time_Shift_20
Note_On_69_Vel_0
Time_Shift_61
Sustain_On
Time_Shift_77
Note_On_39_Vel_60
Time_Shift_146
Sustain_Off
Time_Shift_11
Note_On_41_Vel_56
Note_On_60_Vel_64
Time_Shift_26
Note_On_39_Vel_0
Time_Shift_1
Note_On_61_Vel_0
Time_Shift_16
Note_On_37_Vel_0
Time_Shift_38
Sustain_On
Time_Shift_76
Note_On_61_Vel_77
Time_Shift_24
Note_On_65_Vel_0
Time_Shift_92
Note_On_58_Vel_0
Time_Shift_38
Note_On_41_Vel_0
Note_On_60_Vel_0
Time_Shift_6
Note_On_60_Vel_58
Time_Shift_5
Note_On_41_Vel_56
Time_Shift_9
Note_On_56_Vel_56
Time_Shift_43
Sustain_Off
Time_Shift_14
Note_On_61_Vel_0
Time_Shift_69
Sustain_On
Time_Shift_31
Note_On_65_Vel_78
Time_Shift_188
Note_On_67_Vel_73
Time_Shift_7
Note_On_55_Vel_56
Time_Shift_23
Sustain_Off
Time_Shift_2
Note_On_65_Vel_0
Time_Shift_4
Note_On_56_Vel_0
Time_Shift_75
Sustain_On
Time_Shift_49
Note_On_40_Vel_57
Time_Shift_152
Note_On_64_Vel_68
Time_Shift_3
Sustain_Off
Time_Shift_4
Note_On_60_Vel_0
Time_Shift_2
Note_On_58_Vel_65
Note_On_55_Vel_0
Time_Shift_1
Note_On_67_Vel_0
Time_Shift_15
Note_On_43_Vel_47
Time_Shift_5
Note_On_41_Vel_0
Time_Shift_31
Sustain_On
Time_Shift_86
Note_On_56_Vel_74
Time_Shift_2
Note_On_41_Vel_56
Time_Shift_6
Note_On_65_Vel_72
Time_Shift_144
Note_On_40_Vel_0
Time_Shift_11
Note_On_40_Vel_56
Time_Shift_1
Note_On_67_Vel_81
Time_Shift_9
Note_On_55_Vel_61
Time_Shift_13
Sustain_Off
Time_Shift_4
Note_On_64_Vel_0
Time_Shift_2
Note_On_41_Vel_0
Note_On_58_Vel_0
Note_On_43_Vel_0
Time_Shift_2
Note_On_56_Vel_0
Note_On_65_Vel_0
Time_Shift_65
Sustain_On
Time_Shift_63
Note_On_37_Vel_65
Time_Shift_160
Note_On_67_Vel_0
Time_Shift_4
Note_On_67_Vel_86
Time_Shift_6
Note_On_36_Vel_59
Time_Shift_11
Note_On_64_Vel_52
Time_Shift_13
Note_On_37_Vel_0
Note_On_55_Vel_0
Time_Shift_1
Note_On_40_Vel_0
Time_Shift_2
Sustain_Off
Time_Shift_101
Sustain_On
Time_Shift_21
Note_On_48_Vel_67
Time_Shift_197
Note_On_68_Vel_79
Time_Shift_17
Note_On_65_Vel_72
Note_On_41_Vel_58
Time_Shift_40
Note_On_36_Vel_0
Time_Shift_2
Sustain_Off
Time_Shift_1
Note_On_64_Vel_0
Time_Shift_1
Note_On_48_Vel_0
Time_Shift_59
Note_On_67_Vel_0
Time_Shift_88
Note_On_43_Vel_61
Time_Shift_165
Note_On_56_Vel_55
Time_Shift_1
Note_On_65_Vel_0
Time_Shift_3
Note_On_44_Vel_59
Time_Shift_4
Note_On_56_Vel_0
Time_Shift_1
Note_On_65_Vel_66
Time_Shift_34
Note_On_43_Vel_0
Time_Shift_4
Note_On_41_Vel_0
Time_Shift_115
Note_On_46_Vel_63
Time_Shift_23
Sustain_On
Time_Shift_112
Sustain_Off
Time_Shift_45
Note_On_63_Vel_67
Note_On_47_Vel_66
Time_Shift_4
Note_On_59_Vel_60
Time_Shift_5
Note_On_46_Vel_0
Time_Shift_3
Note_On_59_Vel_0
Time_Shift_15
Note_On_44_Vel_0
Note_On_68_Vel_0
Time_Shift_46
Sustain_On
Time_Shift_81
Note_On_67_Vel_78
Time_Shift_184
Note_On_70_Vel_75
Time_Shift_7
Sustain_Off
Time_Shift_1
Note_On_59_Vel_63
Time_Shift_15
Note_On_67_Vel_0
Time_Shift_12
Note_On_65_Vel_0
Time_Shift_77
Sustain_On
Time_Shift_31
Note_On_68_Vel_79
Time_Shift_25
Note_On_70_Vel_0
Time_Shift_83
Sustain_Off
Time_Shift_73
Note_On_62_Vel_69
Time_Shift_3
Sustain_On
Time_Shift_4
Note_On_58_Vel_61
Time_Shift_157
Note_On_68_Vel_0
Time_Shift_11
Note_On_68_Vel_65
Time_Shift_173
Note_On_62_Vel_0
Time_Shift_4
Note_On_77_Vel_74
Time_Shift_7
Note_On_62_Vel_48
Time_Shift_3
Note_On_63_Vel_0
Time_Shift_2
Note_On_59_Vel_0
Time_Shift_4
Sustain_Off
Time_Shift_6
Note_On_59_Vel_41
Time_Shift_13
Note_On_47_Vel_0
Time_Shift_76
Sustain_On
Time_Shift_53
Note_On_75_Vel_83
Time_Shift_21
Note_On_63_Vel_65
Time_Shift_118
Note_On_68_Vel_0
Time_Shift_22
Note_On_74_Vel_76
Time_Shift_23
Note_On_65_Vel_63
Time_Shift_5
Note_On_77_Vel_0
Time_Shift_11
Note_On_63_Vel_0
Time_Shift_4
Sustain_Off
Time_Shift_35
Note_On_62_Vel_0
Time_Shift_87
Note_On_71_Vel_73
Time_Shift_1
Note_On_66_Vel_67
Time_Shift_15
Note_On_63_Vel_64
Time_Shift_66
Note_On_58_Vel_0
Time_Shift_16
Note_On_75_Vel_0
Time_Shift_57
Note_On_70_Vel_75
Time_Shift_4
Note_On_65_Vel_0
Time_Shift_5
Note_On_65_Vel_62
Time_Shift_12
Note_On_62_Vel_64
Time_Shift_5
Note_On_66_Vel_0
Time_Shift_5
Note_On_71_Vel_0
Time_Shift_5
Note_On_63_Vel_0
Time_Shift_6
Note_On_59_Vel_0
Time_Shift_39
Note_On_74_Vel_0
Time_Shift_69
Sustain_On
Time_Shift_19
Note_On_68_Vel_71
Time_Shift_3
Note_On_50_Vel_58
Time_Shift_141
Sustain_Off
Time_Shift_13
Note_On_66_Vel_71
Time_Shift_16
Note_On_70_Vel_0
Time_Shift_6
Note_On_50_Vel_0
Time_Shift_4
Note_On_51_Vel_66
Time_Shift_113
Note_On_62_Vel_0
Time_Shift_7
Sustain_On
Time_Shift_15
Note_On_53_Vel_74
Time_Shift_166
Note_On_63_Vel_73
Time_Shift_1
Note_On_54_Vel_73
Time_Shift_25
Sustain_Off
Time_Shift_11
Note_On_66_Vel_0
Time_Shift_2
Note_On_65_Vel_0
Time_Shift_3
Note_On_68_Vel_0
Time_Shift_1
Note_On_51_Vel_0
Time_Shift_2
Note_On_53_Vel_0
Time_Shift_114
Note_On_56_Vel_74
Time_Shift_165
Note_On_65_Vel_70
Time_Shift_32
Note_On_58_Vel_62
Time_Shift_4
Note_On_63_Vel_0
Time_Shift_8
Note_On_56_Vel_0
Time_Shift_4
Note_On_54_Vel_0
Time_Shift_70
Sustain_On
Time_Shift_59
Note_On_66_Vel_76
Time_Shift_163
Note_On_65_Vel_0
Time_Shift_5
Note_On_65_Vel_64
Time_Shift_8
Note_On_61_Vel_62
Sustain_Off
Time_Shift_7
Note_On_58_Vel_0
Time_Shift_7
Note_On_66_Vel_0
Time_Shift_16
Note_On_46_Vel_48
Time_Shift_147
Note_On_70_Vel_66
Time_Shift_33
Sustain_On
Time_Shift_128
Note_On_46_Vel_0
Time_Shift_3
Sustain_Off
Time_Shift_5
Note_On_47_Vel_56
Time_Shift_6
Note_On_63_Vel_62
Time_Shift_88
Sustain_On
Time_Shift_81
Note_On_49_Vel_54
Time_Shift_184
Sustain_Off
Time_Shift_17
Note_On_59_Vel_48
Time_Shift_1
Note_On_51_Vel_54
Time_Shift_78
Note_On_65_Vel_0
Time_Shift_5
Note_On_61_Vel_0
Time_Shift_18
Note_On_70_Vel_0
Time_Shift_31
Note_On_49_Vel_0
Time_Shift_34
Note_On_53_Vel_60
Time_Shift_20
Sustain_On
Time_Shift_92
Sustain_Off
Time_Shift_49
Note_On_53_Vel_0
Time_Shift_33
Note_On_61_Vel_52
Time_Shift_3
Note_On_51_Vel_0
Note_On_63_Vel_0
Time_Shift_3
Note_On_54_Vel_53
Time_Shift_58
Sustain_On
Time_Shift_111
Note_On_63_Vel_61
Time_Shift_196
Note_On_61_Vel_0
Time_Shift_6
Note_On_61_Vel_45
Time_Shift_6
Note_On_58_Vel_42
Time_Shift_18
Sustain_Off
Time_Shift_1
Note_On_47_Vel_0
Time_Shift_6
Note_On_54_Vel_0
Time_Shift_6
Note_On_42_Vel_42
Time_Shift_3
Note_On_59_Vel_0
Time_Shift_123
Sustain_On
Time_Shift_82
Note_On_66_Vel_55
Time_Shift_41
Note_On_63_Vel_0
Time_Shift_188
Note_On_59_Vel_55
Time_Shift_10
Note_On_44_Vel_45
Time_Shift_25
Note_On_58_Vel_0
Sustain_Off
Time_Shift_15
Note_On_61_Vel_0
Time_Shift_38
Note_On_42_Vel_0
Time_Shift_31
Sustain_On
Time_Shift_110
Note_On_65_Vel_58
Time_Shift_270
Note_On_71_Vel_69
Time_Shift_51
Note_On_56_Vel_47
Time_Shift_71
Note_On_65_Vel_0
Time_Shift_15
Sustain_Off
Time_Shift_13
Note_On_66_Vel_0
Time_Shift_39
Note_On_44_Vel_0
Time_Shift_31
Note_On_63_Vel_55
Time_Shift_30
Sustain_On
Time_Shift_139
Note_On_62_Vel_60
Time_Shift_147
Note_On_70_Vel_74
Time_Shift_167
Note_On_63_Vel_0
Time_Shift_6
Note_On_63_Vel_73
Time_Shift_24
Note_On_54_Vel_58
Time_Shift_119
Note_On_75_Vel_80
Time_Shift_23
Note_On_58_Vel_55
Time_Shift_151
Note_On_69_Vel_73
Time_Shift_7
Note_On_59_Vel_0
Time_Shift_2
Note_On_71_Vel_0
Time_Shift_2
Note_On_58_Vel_0
Time_Shift_1
Note_On_56_Vel_0
Time_Shift_1
Note_On_62_Vel_0
Note_On_70_Vel_0
Time_Shift_4
Note_On_63_Vel_0
Note_On_54_Vel_0
Time_Shift_6
Note_On_53_Vel_60
Time_Shift_1
Note_On_60_Vel_56
Time_Shift_2
Sustain_Off
Time_Shift_58
Sustain_On
Time_Shift_66
Note_On_78_Vel_82
Time_Shift_19
Note_On_69_Vel_0
Time_Shift_6
Note_On_69_Vel_52
Time_Shift_4
Note_On_63_Vel_65
Time_Shift_89
Note_On_78_Vel_0
Time_Shift_11
Note_On_78_Vel_73
Time_Shift_73
Note_On_61_Vel_67
Time_Shift_4
Note_On_77_Vel_79
Time_Shift_1
Note_On_78_Vel_0
Time_Shift_8
Note_On_60_Vel_0
Time_Shift_11
Note_On_75_Vel_0
Time_Shift_143
Note_On_60_Vel_61
Note_On_75_Vel_76
Time_Shift_168
Note_On_74_Vel_58
Time_Shift_2
Note_On_68_Vel_55
Time_Shift_3
Note_On_58_Vel_50
Time_Shift_37
Note_On_61_Vel_0
Time_Shift_108
Note_On_63_Vel_0
Time_Shift_7
Note_On_69_Vel_0
Time_Shift_8
Note_On_75_Vel_0
Time_Shift_6
Note_On_75_Vel_64
Time_Shift_6
Note_On_53_Vel_0
Time_Shift_11
Note_On_60_Vel_0
Time_Shift_5
Note_On_60_Vel_48
Time_Shift_11
Note_On_77_Vel_0
Time_Shift_89
Sustain_Off
Time_Shift_51
Note_On_76_Vel_54
Time_Shift_19
Note_On_61_Vel_52
Time_Shift_2
Sustain_On
Time_Shift_2
Note_On_60_Vel_0
Time_Shift_75
Note_On_74_Vel_0
Time_Shift_110
Note_On_77_Vel_61
Time_Shift_1
Note_On_62_Vel_56
Time_Shift_196
Note_On_75_Vel_0
Time_Shift_2
Note_On_61_Vel_0
Time_Shift_1
Note_On_58_Vel_0
Time_Shift_1
Note_On_68_Vel_0
Note_On_77_Vel_0
Time_Shift_4
Note_On_62_Vel_0
Time_Shift_2
Sustain_Off
Time_Shift_5
Note_On_76_Vel_0
Time_Shift_31
Note_On_51_Vel_56
Time_Shift_3
Note_On_66_Vel_49
Time_Shift_81
Sustain_On
Time_Shift_116
Note_On_78_Vel_76
Time_Shift_20
Note_On_75_Vel_39
Time_Shift_7
Note_On_70_Vel_39
Time_Shift_215
Note_On_77_Vel_55
Time_Shift_2
Note_On_68_Vel_81
Time_Shift_3
Note_On_71_Vel_55
Time_Shift_18
Note_On_78_Vel_0
Time_Shift_3
Note_On_70_Vel_0
Time_Shift_1
Note_On_66_Vel_0
Time_Shift_1
Note_On_51_Vel_0
Time_Shift_5
Sustain_Off
Time_Shift_70
Sustain_On
Time_Shift_23
Note_On_75_Vel_0
Time_Shift_40
Note_On_83_Vel_67
Time_Shift_2
Note_On_74_Vel_50
Time_Shift_150
Note_On_71_Vel_0
Note_On_77_Vel_0
Time_Shift_4
Note_On_71_Vel_57
Time_Shift_7
Note_On_77_Vel_58
Time_Shift_112
Note_On_74_Vel_0
Note_On_83_Vel_0
Time_Shift_5
Note_On_83_Vel_71
Time_Shift_6
Note_On_74_Vel_50
Time_Shift_135
Note_On_68_Vel_0
Time_Shift_6
Note_On_68_Vel_70
Time_Shift_2
Note_On_77_Vel_0
Time_Shift_4
Note_On_77_Vel_60
Time_Shift_3
Note_On_74_Vel_0
Time_Shift_5
Note_On_74_Vel_37
Time_Shift_13
Note_On_70_Vel_55
Time_Shift_105
Note_On_74_Vel_0
Time_Shift_6
Note_On_82_Vel_75
Time_Shift_5
Note_On_74_Vel_55
Time_Shift_55
Note_On_71_Vel_0
Note_On_83_Vel_0
Time_Shift_12
Sustain_Off
Time_Shift_37
Sustain_On
Time_Shift_23
Note_On_70_Vel_0
Time_Shift_5
Note_On_66_Vel_70
Time_Shift_2
Note_On_78_Vel_68
Note_On_70_Vel_63
Time_Shift_116
Note_On_82_Vel_0
Time_Shift_6
Note_On_82_Vel_78
Time_Shift_2
Note_On_68_Vel_0
Time_Shift_8
Note_On_78_Vel_0
Time_Shift_8
Note_On_78_Vel_50
Time_Shift_4
Note_On_75_Vel_54
Time_Shift_107
Note_On_68_Vel_79
Time_Shift_4
Note_On_77_Vel_0
Time_Shift_5
Note_On_77_Vel_68
Time_Shift_4
Note_On_71_Vel_70
Time_Shift_66
Note_On_75_Vel_0
Note_On_70_Vel_0
Time_Shift_1
Note_On_66_Vel_0
Note_On_78_Vel_0
Time_Shift_2
Note_On_82_Vel_0
Time_Shift_2
Sustain_Off
Time_Shift_19
Note_On_74_Vel_0
Time_Shift_16
Note_On_77_Vel_0
Sustain_On
Time_Shift_7
Note_On_83_Vel_72
Time_Shift_3
Note_On_77_Vel_54
Time_Shift_5
Note_On_68_Vel_0
Time_Shift_4
Note_On_74_Vel_50
Time_Shift_6
Note_On_68_Vel_45
Time_Shift_105
Note_On_68_Vel_0
Note_On_71_Vel_0
Note_On_77_Vel_0
Time_Shift_5
Note_On_77_Vel_69
Time_Shift_2
Note_On_71_Vel_70
Time_Shift_3
Note_On_68_Vel_59
Time_Shift_90
Note_On_83_Vel_0
Time_Shift_8
Note_On_68_Vel_0
Time_Shift_2
Note_On_83_Vel_78
Time_Shift_9
Note_On_68_Vel_44
Time_Shift_20
Note_On_74_Vel_0
Note_On_77_Vel_0
Time_Shift_5
Note_On_74_Vel_44
Time_Shift_1
Note_On_77_Vel_42
Time_Shift_86
Note_On_68_Vel_0
Time_Shift_5
Note_On_68_Vel_77
Time_Shift_2
Note_On_77_Vel_0
Time_Shift_5
Note_On_77_Vel_69
Time_Shift_8
Note_On_70_Vel_66
Time_Shift_105
Note_On_82_Vel_84
Time_Shift_21
Note_On_68_Vel_0
Note_On_74_Vel_0
Time_Shift_11
Note_On_68_Vel_52
Note_On_74_Vel_36
Time_Shift_96
Note_On_70_Vel_0
Time_Shift_4
Note_On_66_Vel_82
Time_Shift_7
Note_On_70_Vel_67
Note_On_78_Vel_78
Time_Shift_41
Sustain_Off
Time_Shift_4
Note_On_74_Vel_0
Note_On_77_Vel_0
Time_Shift_1
Note_On_82_Vel_0
Time_Shift_1
Note_On_68_Vel_0
Time_Shift_4
Note_On_83_Vel_0
Time_Shift_15
Note_On_71_Vel_0
Time_Shift_15
Sustain_On
Time_Shift_36
Note_On_82_Vel_79
Time_Shift_3
Note_On_75_Vel_62
Time_Shift_115
Note_On_75_Vel_0
Time_Shift_4
Note_On_80_Vel_79
Time_Shift_2
Note_On_75_Vel_58
Time_Shift_4
Note_On_72_Vel_68
Time_Shift_97
Note_On_75_Vel_0
Time_Shift_7
Note_On_84_Vel_79
Time_Shift_2
Note_On_75_Vel_70
Time_Shift_114
Note_On_80_Vel_0
Time_Shift_3
Note_On_64_Vel_77
Time_Shift_2
Note_On_80_Vel_75
Time_Shift_2
Note_On_73_Vel_77
Time_Shift_1
Note_On_76_Vel_71
Time_Shift_30
Note_On_84_Vel_0
Time_Shift_1
Note_On_82_Vel_0
Time_Shift_1
Note_On_72_Vel_0
Note_On_66_Vel_0
Note_On_75_Vel_0
Note_On_78_Vel_0
Time_Shift_6
Note_On_70_Vel_0
Time_Shift_10
Sustain_Off
Time_Shift_29
Sustain_On
Time_Shift_31
Note_On_76_Vel_0
Time_Shift_3
Note_On_85_Vel_83
Time_Shift_3
Note_On_76_Vel_68
Time_Shift_1
Note_On_73_Vel_0
Time_Shift_4
Note_On_73_Vel_54
Time_Shift_116
Note_On_66_Vel_80
Time_Shift_11
Note_On_78_Vel_73
Time_Shift_4
Note_On_72_Vel_57
Note_On_70_Vel_75
Time_Shift_11
Note_On_72_Vel_0
Time_Shift_69
Note_On_76_Vel_0
Time_Shift_8
Note_On_64_Vel_0
Note_On_73_Vel_0
Time_Shift_3
Note_On_76_Vel_71
Time_Shift_2
Note_On_73_Vel_76
Note_On_64_Vel_80
Time_Shift_4
Note_On_82_Vel_80
Time_Shift_104
Note_On_66_Vel_0
Time_Shift_2
Note_On_80_Vel_0
Time_Shift_3
Note_On_85_Vel_0
Time_Shift_2
Note_On_73_Vel_0
Time_Shift_3
Note_On_78_Vel_0
Time_Shift_4
Note_On_64_Vel_0
Time_Shift_1
Note_On_78_Vel_79
Note_On_76_Vel_0
Time_Shift_1
Note_On_62_Vel_87
Time_Shift_2
Note_On_74_Vel_76
Time_Shift_3
Note_On_71_Vel_69
Note_On_82_Vel_0
Time_Shift_4
Note_On_70_Vel_0
Time_Shift_15
Sustain_Off
Time_Shift_31
Sustain_On
Time_Shift_54
Note_On_74_Vel_0
Time_Shift_2
Note_On_83_Vel_87
Time_Shift_5
Note_On_74_Vel_75
Time_Shift_16
Note_On_78_Vel_0
Time_Shift_6
Note_On_78_Vel_44
Time_Shift_106
Note_On_76_Vel_70
Time_Shift_6
Note_On_64_Vel_80
Time_Shift_1
Note_On_68_Vel_59
Time_Shift_81
Note_On_62_Vel_0
Time_Shift_7
Note_On_71_Vel_0
Time_Shift_2
Note_On_62_Vel_82
Time_Shift_4
Note_On_74_Vel_0
Time_Shift_1
Note_On_71_Vel_69
Time_Shift_2
Note_On_80_Vel_75
Time_Shift_114
Note_On_76_Vel_0
Time_Shift_3
Note_On_60_Vel_87
Time_Shift_3
Note_On_76_Vel_75
Time_Shift_5
Note_On_69_Vel_63
Time_Shift_4
Note_On_83_Vel_0
Note_On_64_Vel_0
Time_Shift_1
Note_On_71_Vel_0
Time_Shift_1
Note_On_62_Vel_0
Time_Shift_1
Sustain_Off
Note_On_80_Vel_0
Note_On_78_Vel_0
Time_Shift_13
Note_On_68_Vel_0
Time_Shift_15
Sustain_On
Time_Shift_62
Note_On_76_Vel_0
Note_On_81_Vel_78
Time_Shift_4
Note_On_72_Vel_69
Time_Shift_5
Note_On_76_Vel_51
Time_Shift_116
Note_On_62_Vel_91
Time_Shift_1
Note_On_66_Vel_79
Time_Shift_89
Note_On_60_Vel_0
Time_Shift_8
Note_On_69_Vel_0
Time_Shift_3
Note_On_78_Vel_83
Note_On_60_Vel_71
Time_Shift_1
Note_On_69_Vel_75
Time_Shift_96
Note_On_62_Vel_0
Time_Shift_1
Note_On_72_Vel_0
Time_Shift_1
Note_On_66_Vel_0
Note_On_76_Vel_0
Note_On_60_Vel_0
Note_On_81_Vel_0
Note_On_69_Vel_0
Time_Shift_1
Note_On_78_Vel_0
Time_Shift_3
Sustain_Off
Time_Shift_19
Note_On_59_Vel_83
Time_Shift_9
Note_On_74_Vel_74
Time_Shift_1
Note_On_67_Vel_67
Time_Shift_17
Note_On_59_Vel_0
Time_Shift_32
Sustain_On
Time_Shift_42
Note_On_79_Vel_81
Time_Shift_1
Note_On_71_Vel_73
Time_Shift_126
Note_On_71_Vel_0
Time_Shift_4
Note_On_85_Vel_95
Time_Shift_1
Note_On_71_Vel_93
Time_Shift_1
Note_On_77_Vel_83
Time_Shift_12
Note_On_79_Vel_0
Note_On_74_Vel_0
Time_Shift_5
Note_On_67_Vel_0
Time_Shift_13
Sustain_Off
Time_Shift_25
Sustain_On
Time_Shift_43
Note_On_89_Vel_89
Time_Shift_5
Note_On_80_Vel_82
Time_Shift_114
Note_On_85_Vel_0
Time_Shift_3
Note_On_69_Vel_86
Time_Shift_1
Note_On_78_Vel_85
Note_On_85_Vel_82
Time_Shift_45
Sustain_Off
Time_Shift_12
Note_On_77_Vel_0
Sustain_On
Time_Shift_40
Note_On_90_Vel_91
Time_Shift_2
Note_On_81_Vel_72
Time_Shift_127
Note_On_71_Vel_0
Time_Shift_2
Note_On_83_Vel_84
Time_Shift_7
Note_On_75_Vel_73
Note_On_71_Vel_90
Time_Shift_18
Sustain_Off
Time_Shift_11
Note_On_89_Vel_0
Time_Shift_46
Sustain_On
Time_Shift_8
Note_On_69_Vel_0
Note_On_78_Vel_0
Time_Shift_5
Note_On_78_Vel_84
Time_Shift_6
Note_On_69_Vel_88
Note_On_87_Vel_80
Time_Shift_4
Note_On_80_Vel_0
Time_Shift_16
Note_On_71_Vel_0
Time_Shift_11
Note_On_71_Vel_64
Time_Shift_81
Note_On_83_Vel_0
Time_Shift_8
Note_On_83_Vel_82
Time_Shift_3
Note_On_76_Vel_75
Note_On_67_Vel_83
Time_Shift_50
Note_On_90_Vel_0
Time_Shift_5
Note_On_71_Vel_0
Note_On_78_Vel_0
Time_Shift_5
Sustain_Off
Time_Shift_1
Note_On_75_Vel_0
Time_Shift_12
Note_On_85_Vel_0
Note_On_87_Vel_0
Time_Shift_16
Sustain_On
Time_Shift_4
Note_On_79_Vel_82
Time_Shift_1
Note_On_88_Vel_85
Time_Shift_133
Note_On_69_Vel_0
Time_Shift_3
Note_On_73_Vel_79
Time_Shift_2
Note_On_69_Vel_80
Time_Shift_83
Note_On_85_Vel_92
Time_Shift_4
Note_On_67_Vel_0
Time_Shift_8
Note_On_76_Vel_0
Time_Shift_3
Note_On_67_Vel_88
Time_Shift_1
Note_On_79_Vel_0
Time_Shift_2
Note_On_76_Vel_72
Time_Shift_109
Note_On_81_Vel_0
Time_Shift_4
Note_On_81_Vel_76
Time_Shift_1
Note_On_74_Vel_74
Time_Shift_1
Note_On_65_Vel_86
Time_Shift_13
Note_On_69_Vel_0
Note_On_88_Vel_0
Note_On_76_Vel_0
Time_Shift_1
Note_On_83_Vel_0
Time_Shift_7
Sustain_Off
Time_Shift_4
Note_On_73_Vel_0
Time_Shift_8
Note_On_67_Vel_0
Note_On_85_Vel_0
Time_Shift_38
Sustain_On
Time_Shift_21
Note_On_86_Vel_88
Time_Shift_4
Note_On_77_Vel_76
Time_Shift_121
Note_On_74_Vel_0
Time_Shift_3
Note_On_79_Vel_92
Time_Shift_3
Note_On_67_Vel_88
Note_On_71_Vel_82
Time_Shift_3
Note_On_74_Vel_70
Time_Shift_91
Note_On_65_Vel_0
Note_On_74_Vel_0
Time_Shift_4
Note_On_83_Vel_88
Time_Shift_1
Note_On_65_Vel_84
Time_Shift_1
Note_On_74_Vel_79
Time_Shift_1
Note_On_71_Vel_0
Time_Shift_5
Note_On_71_Vel_74
Time_Shift_90
Note_On_74_Vel_0
Time_Shift_1
Note_On_86_Vel_0
Time_Shift_1
Note_On_67_Vel_0
Note_On_71_Vel_0
Time_Shift_2
Note_On_83_Vel_0
Time_Shift_1
Sustain_Off
Time_Shift_4
Note_On_65_Vel_0
Time_Shift_4
Note_On_77_Vel_0
Note_On_79_Vel_0
Note_On_81_Vel_0
Time_Shift_9
Note_On_64_Vel_84
Time_Shift_1
Note_On_79_Vel_87
Time_Shift_2
Note_On_72_Vel_82
Time_Shift_29
Note_On_64_Vel_0
Time_Shift_28
Sustain_On
Time_Shift_43
Note_On_76_Vel_80
Time_Shift_6
Note_On_84_Vel_85
Time_Shift_120
Note_On_76_Vel_0
Time_Shift_4
Note_On_82_Vel_100
Note_On_90_Vel_98
Time_Shift_2
Note_On_76_Vel_100
Time_Shift_15
Sustain_Off
Time_Shift_25
Note_On_79_Vel_0
Time_Shift_15
Sustain_On
Time_Shift_43
Note_On_85_Vel_87
Note_On_94_Vel_95
Time_Shift_3
Note_On_72_Vel_0
Time_Shift_108
Note_On_90_Vel_0
Time_Shift_5
Note_On_74_Vel_92
Note_On_90_Vel_91
Time_Shift_1
Note_On_83_Vel_87
Time_Shift_35
Sustain_Off
Time_Shift_28
Sustain_On
Time_Shift_41
Note_On_95_Vel_90
Time_Shift_1
Note_On_86_Vel_82
Time_Shift_127
Note_On_76_Vel_0
Time_Shift_5
Note_On_80_Vel_86
Note_On_88_Vel_87
Time_Shift_1
Note_On_76_Vel_101
Time_Shift_98
Note_On_92_Vel_94
Time_Shift_4
Note_On_74_Vel_0
Note_On_83_Vel_0
Time_Shift_4
Note_On_74_Vel_88
Note_On_83_Vel_88
Time_Shift_26
Note_On_84_Vel_0
Time_Shift_38
Note_On_76_Vel_0
Time_Shift_47
Note_On_88_Vel_0
Time_Shift_3
Note_On_81_Vel_88
Time_Shift_1
Note_On_72_Vel_94
Note_On_88_Vel_90
Time_Shift_31
Note_On_74_Vel_0
Note_On_80_Vel_0
Note_On_95_Vel_0
Note_On_94_Vel_0
Note_On_92_Vel_0
Note_On_85_Vel_0
Time_Shift_1
Note_On_82_Vel_0
Note_On_83_Vel_0
Time_Shift_7
Sustain_Off
Time_Shift_3
Note_On_86_Vel_0
Note_On_90_Vel_0
Time_Shift_31
Sustain_On
Time_Shift_18
Note_On_93_Vel_91
Time_Shift_2
Note_On_84_Vel_83
Time_Shift_128
Note_On_86_Vel_85
Time_Shift_3
Note_On_78_Vel_85
Time_Shift_4
Note_On_74_Vel_90
Time_Shift_83
Note_On_81_Vel_0
Time_Shift_4
Note_On_90_Vel_98
Time_Shift_3
Note_On_72_Vel_0
Time_Shift_3
Note_On_81_Vel_86
Time_Shift_2
Note_On_72_Vel_90
Time_Shift_88
Note_On_88_Vel_0
Time_Shift_15
Note_On_86_Vel_0
Time_Shift_11
Note_On_86_Vel_88
Note_On_71_Vel_91
Time_Shift_2
Note_On_79_Vel_87
Time_Shift_1
Note_On_74_Vel_0
Time_Shift_7
Note_On_78_Vel_0
Time_Shift_30
Sustain_Off
Time_Shift_26
Sustain_On
Time_Shift_30
Note_On_71_Vel_0
Time_Shift_2
Note_On_91_Vel_96
Time_Shift_3
Note_On_83_Vel_85
Note_On_71_Vel_79
Time_Shift_127
Note_On_85_Vel_90
Time_Shift_2
Note_On_77_Vel_85
Note_On_73_Vel_90
Time_Shift_89
Note_On_71_Vel_0
Time_Shift_6
Note_On_80_Vel_90
Note_On_89_Vel_95
Time_Shift_2
Note_On_71_Vel_83
Time_Shift_69
Note_On_81_Vel_0
Time_Shift_46
Note_On_85_Vel_0
Time_Shift_4
Note_On_85_Vel_83
Time_Shift_1
Note_On_69_Vel_82
Time_Shift_2
Note_On_78_Vel_78
Time_Shift_1
Note_On_86_Vel_0
Time_Shift_7
Note_On_93_Vel_0
Time_Shift_8
Note_On_84_Vel_0
Note_On_89_Vel_0
Time_Shift_1
Note_On_71_Vel_0
Time_Shift_2
Note_On_80_Vel_0
Time_Shift_3
Sustain_Off
Time_Shift_9
Note_On_79_Vel_0
Time_Shift_8
Note_On_91_Vel_0
Sustain_On
Time_Shift_8
Note_On_77_Vel_0
Note_On_83_Vel_0
Time_Shift_7
Note_On_72_Vel_0
Time_Shift_23
Note_On_69_Vel_0
Time_Shift_8
Note_On_90_Vel_0
Time_Shift_4
Note_On_69_Vel_67
Time_Shift_1
Note_On_90_Vel_92
Note_On_81_Vel_75
Time_Shift_130
Note_On_83_Vel_86
Time_Shift_7
Note_On_71_Vel_85
Time_Shift_5
Note_On_75_Vel_72
Time_Shift_21
Sustain_Off
Time_Shift_40
Sustain_On
Time_Shift_15
Note_On_78_Vel_0
Time_Shift_8
Note_On_69_Vel_0
Time_Shift_2
Note_On_78_Vel_83
Time_Shift_3
Note_On_69_Vel_66
Time_Shift_4
Note_On_87_Vel_77
Time_Shift_14
Note_On_71_Vel_0
Time_Shift_10
Note_On_71_Vel_56
Time_Shift_89
Note_On_83_Vel_0
Time_Shift_3
Note_On_69_Vel_0
Time_Shift_2
Note_On_87_Vel_0
Note_On_90_Vel_0
Time_Shift_1
Note_On_73_Vel_0
Note_On_81_Vel_0
Time_Shift_2
Note_On_75_Vel_0
Time_Shift_4
Note_On_83_Vel_77
Time_Shift_3
Note_On_67_Vel_79
Time_Shift_5
Sustain_Off
Time_Shift_3
Note_On_78_Vel_0
Note_On_85_Vel_0
Time_Shift_8
Sustain_On
Time_Shift_2
Note_On_76_Vel_50
Time_Shift_1
Note_On_78_Vel_60
Time_Shift_78
Note_On_88_Vel_84
Time_Shift_2
Note_On_79_Vel_73
Time_Shift_101
Note_On_71_Vel_0
Time_Shift_16
Note_On_83_Vel_0
Time_Shift_4
Note_On_67_Vel_0
Time_Shift_1
Note_On_83_Vel_71
Time_Shift_3
Note_On_76_Vel_0
Time_Shift_1
Note_On_88_Vel_0
Note_On_52_Vel_56
Time_Shift_1
Note_On_79_Vel_0
Time_Shift_3
Note_On_76_Vel_58
Time_Shift_2
Sustain_Off
Note_On_78_Vel_0
Time_Shift_46
Sustain_On
Time_Shift_54
Note_On_88_Vel_82
Time_Shift_2
Note_On_79_Vel_65
Time_Shift_106
Note_On_83_Vel_0
Time_Shift_8
Note_On_83_Vel_75
Time_Shift_3
Note_On_47_Vel_66
Note_On_59_Vel_70
Time_Shift_96
Note_On_79_Vel_0
Note_On_88_Vel_0
Time_Shift_4
Note_On_88_Vel_79
Time_Shift_1
Note_On_79_Vel_64
Time_Shift_110
Note_On_76_Vel_0
Note_On_83_Vel_0
Time_Shift_5
Note_On_83_Vel_74
Time_Shift_1
Note_On_76_Vel_71
Time_Shift_4
Note_On_55_Vel_70
Time_Shift_2
Note_On_43_Vel_67
Time_Shift_88
Note_On_88_Vel_0
Time_Shift_8
Note_On_88_Vel_83
Note_On_79_Vel_0
Time_Shift_7
Note_On_76_Vel_0
Time_Shift_3
Note_On_79_Vel_61
Time_Shift_2
Note_On_76_Vel_51
Time_Shift_103
Note_On_52_Vel_0
Note_On_83_Vel_0
Time_Shift_8
Note_On_52_Vel_78
Note_On_76_Vel_0
Time_Shift_2
Note_On_40_Vel_71
Time_Shift_1
Note_On_83_Vel_79
Time_Shift_2
Note_On_76_Vel_72
Time_Shift_95
Note_On_79_Vel_0
Note_On_88_Vel_0
Time_Shift_9
Note_On_79_Vel_81
Note_On_88_Vel_83
Time_Shift_113
Note_On_47_Vel_0
Note_On_83_Vel_0
Time_Shift_4
Note_On_47_Vel_85
Time_Shift_4
Note_On_83_Vel_80
Time_Shift_1
Note_On_35_Vel_70
Time_Shift_7
Note_On_35_Vel_0
Time_Shift_92
Note_On_79_Vel_0
Note_On_88_Vel_0
Time_Shift_6
Note_On_79_Vel_73
Time_Shift_3
Note_On_88_Vel_83
Time_Shift_1
Note_On_76_Vel_0
Time_Shift_86
Note_On_47_Vel_0
Note_On_79_Vel_0
Note_On_55_Vel_0
Time_Shift_1
Note_On_59_Vel_0
Note_On_43_Vel_0
Note_On_83_Vel_0
Time_Shift_1
Note_On_40_Vel_0
Time_Shift_4
Sustain_Off
Time_Shift_13
Note_On_52_Vel_0
Time_Shift_21
Note_On_46_Vel_89
Time_Shift_4
Note_On_34_Vel_85
Time_Shift_5
Note_On_85_Vel_89
Time_Shift_5
Note_On_76_Vel_72
Time_Shift_4
Sustain_On
Time_Shift_245
Note_On_88_Vel_0
Time_Shift_4
Note_On_91_Vel_82
Time_Shift_1
Note_On_88_Vel_81
Time_Shift_3
Note_On_61_Vel_75
Time_Shift_3
Note_On_64_Vel_70
Note_On_55_Vel_65
Time_Shift_101
Note_On_90_Vel_77
Time_Shift_6
Note_On_87_Vel_59
Time_Shift_119
Note_On_93_Vel_90
Time_Shift_9
Note_On_55_Vel_0
Note_On_61_Vel_0
Time_Shift_1
Note_On_89_Vel_87
Time_Shift_4
Note_On_55_Vel_68
Time_Shift_4
Note_On_61_Vel_69
Time_Shift_76
Note_On_88_Vel_0
Note_On_91_Vel_0
Time_Shift_6
Note_On_91_Vel_85
Time_Shift_4
Note_On_88_Vel_87
Time_Shift_28
Note_On_76_Vel_0
Time_Shift_56
Sustain_Off
Time_Shift_5
Note_On_89_Vel_0
Time_Shift_8
Note_On_55_Vel_0
Note_On_61_Vel_0
Note_On_64_Vel_0
Time_Shift_2
Note_On_86_Vel_83
Time_Shift_1
Note_On_89_Vel_84
Time_Shift_7
Note_On_55_Vel_63
Note_On_61_Vel_60
Time_Shift_1
Note_On_64_Vel_61
Time_Shift_12
Note_On_34_Vel_0
Sustain_On
Time_Shift_77
Note_On_85_Vel_0
Note_On_88_Vel_0
Time_Shift_5
Note_On_88_Vel_89
Time_Shift_4
Note_On_85_Vel_80
Time_Shift_106
Note_On_86_Vel_0
Note_On_93_Vel_0
Time_Shift_4
Note_On_37_Vel_68
Time_Shift_1
Note_On_82_Vel_81
Time_Shift_2
Note_On_86_Vel_75
Time_Shift_93
Note_On_85_Vel_0
Time_Shift_6
Note_On_85_Vel_80
Time_Shift_4
Note_On_81_Vel_72
Time_Shift_113
Note_On_82_Vel_0
Time_Shift_7
Note_On_82_Vel_88
Note_On_64_Vel_0
Time_Shift_8
Note_On_55_Vel_0
Time_Shift_3
Note_On_58_Vel_64
Time_Shift_1
Note_On_64_Vel_73
Note_On_55_Vel_62
Time_Shift_1
Note_On_79_Vel_72
Time_Shift_87
Note_On_81_Vel_0
Time_Shift_7
Note_On_81_Vel_77
Time_Shift_2
Note_On_77_Vel_79
Time_Shift_104
Sustain_Off
Time_Shift_10
Note_On_55_Vel_0
Note_On_58_Vel_0
Note_On_64_Vel_0
Note_On_79_Vel_0
Time_Shift_5
Note_On_79_Vel_78
Note_On_64_Vel_80
Time_Shift_3
Note_On_58_Vel_67
Note_On_76_Vel_78
Time_Shift_3
Note_On_55_Vel_68
Time_Shift_12
Sustain_On
Time_Shift_31
Note_On_90_Vel_0
Time_Shift_15
Note_On_46_Vel_0
Time_Shift_23
Note_On_77_Vel_0
Time_Shift_9
Note_On_77_Vel_75
Time_Shift_3
Note_On_74_Vel_66
Time_Shift_96
Note_On_55_Vel_0
Note_On_58_Vel_0
Note_On_76_Vel_0
Time_Shift_10
Note_On_55_Vel_77
Time_Shift_1
Note_On_76_Vel_75
Note_On_58_Vel_68
Time_Shift_2
Note_On_73_Vel_71
Time_Shift_5
Note_On_64_Vel_0
Time_Shift_82
Note_On_79_Vel_0
Time_Shift_11
Note_On_79_Vel_83
Time_Shift_1
Note_On_70_Vel_71
Time_Shift_49
Note_On_87_Vel_0
Time_Shift_3
Note_On_86_Vel_0
Sustain_Off
Time_Shift_1
Note_On_91_Vel_0
Note_On_88_Vel_0
Note_On_76_Vel_0
Note_On_74_Vel_0
Note_On_73_Vel_0
Note_On_82_Vel_0
Time_Shift_2
Note_On_81_Vel_0
Time_Shift_2
Note_On_37_Vel_0
Time_Shift_8
Note_On_55_Vel_0
Note_On_61_Vel_0
Note_On_85_Vel_0
Note_On_89_Vel_0
Time_Shift_7
Note_On_58_Vel_0
Time_Shift_8
Note_On_77_Vel_0
Time_Shift_32
Note_On_52_Vel_79
Time_Shift_2
Note_On_40_Vel_77
Time_Shift_4
Sustain_On
Time_Shift_1
Note_On_69_Vel_72
Time_Shift_15
Note_On_70_Vel_0
Time_Shift_203
Sustain_Off
Time_Shift_19
Sustain_On
Time_Shift_19
Note_On_91_Vel_84
Time_Shift_4
Note_On_88_Vel_84
Time_Shift_13
Note_On_61_Vel_63
Note_On_57_Vel_55
Time_Shift_7
Note_On_55_Vel_53
Time_Shift_86
Note_On_90_Vel_81
Time_Shift_6
Note_On_87_Vel_65
Time_Shift_96
Note_On_79_Vel_0
Time_Shift_19
Note_On_93_Vel_76
Time_Shift_2
Note_On_89_Vel_75
Time_Shift_2
Note_On_61_Vel_0
Time_Shift_9
Note_On_61_Vel_60
Time_Shift_6
Note_On_55_Vel_0
Time_Shift_4
Note_On_55_Vel_48
Time_Shift_65
Note_On_91_Vel_0
Time_Shift_8
Note_On_88_Vel_0
Time_Shift_3
Note_On_91_Vel_80
Time_Shift_2
Note_On_88_Vel_80
Time_Shift_95
Note_On_89_Vel_0
Time_Shift_6
Note_On_89_Vel_88
Time_Shift_1
Note_On_55_Vel_0
Note_On_57_Vel_0
Note_On_61_Vel_0
Time_Shift_4
Note_On_86_Vel_83
Time_Shift_2
Note_On_57_Vel_67
Time_Shift_2
Note_On_61_Vel_64
Time_Shift_1
Note_On_55_Vel_67
Time_Shift_91
Note_On_88_Vel_0
Time_Shift_6
Note_On_88_Vel_84
Note_On_85_Vel_85
Time_Shift_75
Note_On_91_Vel_0
Time_Shift_1
Note_On_88_Vel_0
Note_On_90_Vel_0
Note_On_89_Vel_0
Note_On_93_Vel_0
Note_On_87_Vel_0
Time_Shift_1
Note_On_61_Vel_0
Time_Shift_2
Note_On_40_Vel_0
Note_On_57_Vel_0
Note_On_85_Vel_0
Sustain_Off
Time_Shift_3
Note_On_69_Vel_0
Note_On_55_Vel_0
Time_Shift_3
Note_On_52_Vel_0
Time_Shift_13
Note_On_33_Vel_68
Time_Shift_1
Note_On_45_Vel_71
Time_Shift_3
Note_On_86_Vel_0
Time_Shift_8
Sustain_On
Note_On_86_Vel_84
Time_Shift_4
Note_On_82_Vel_84
Time_Shift_80
Note_On_33_Vel_0
Time_Shift_19
Note_On_85_Vel_84
Time_Shift_1
Note_On_81_Vel_69
Time_Shift_111
Note_On_82_Vel_0
Time_Shift_4
Note_On_82_Vel_89
Time_Shift_7
Note_On_79_Vel_73
Note_On_64_Vel_70
Time_Shift_1
Note_On_61_Vel_73
Time_Shift_87
Note_On_81_Vel_0
Time_Shift_4
Note_On_62_Vel_77
Note_On_81_Vel_76
Time_Shift_1
Note_On_77_Vel_77
Time_Shift_16
Note_On_65_Vel_74
Time_Shift_87
Note_On_79_Vel_0
Time_Shift_4
Note_On_79_Vel_86
Time_Shift_7
Note_On_67_Vel_78
Time_Shift_1
Note_On_76_Vel_74
Time_Shift_3
Note_On_64_Vel_0
Time_Shift_10
Note_On_64_Vel_65
Time_Shift_67
Note_On_77_Vel_0
Time_Shift_10
Note_On_77_Vel_88
Time_Shift_9
Note_On_74_Vel_72
Time_Shift_8
Note_On_69_Vel_80
Time_Shift_88
Note_On_67_Vel_0
Note_On_76_Vel_0
Time_Shift_6
Note_On_67_Vel_69
Time_Shift_5
Note_On_76_Vel_84
Time_Shift_1
Note_On_70_Vel_90
Time_Shift_1
Note_On_73_Vel_81
Time_Shift_53
Note_On_62_Vel_0
Note_On_86_Vel_0
Note_On_65_Vel_0
Note_On_82_Vel_0
Note_On_61_Vel_0
Note_On_67_Vel_0
Note_On_81_Vel_0
Note_On_77_Vel_0
Note_On_64_Vel_0
Time_Shift_1
Note_On_79_Vel_0
Note_On_70_Vel_0
Note_On_76_Vel_0
Note_On_74_Vel_0
Time_Shift_1
Sustain_Off
Note_On_45_Vel_0
Time_Shift_1
Note_On_73_Vel_0
Time_Shift_1
Note_On_69_Vel_0
Time_Shift_15
Note_On_85_Vel_0
Time_Shift_28
Note_On_81_Vel_89
Time_Shift_4
Note_On_69_Vel_72
Time_Shift_17
Note_On_76_Vel_62
Time_Shift_18
Note_On_67_Vel_55
Time_Shift_10
Note_On_67_Vel_0
Time_Shift_79
Note_On_50_Vel_81
Time_Shift_1
Note_On_38_Vel_79
Time_Shift_2
Note_On_78_Vel_88
Time_Shift_1
Note_On_72_Vel_84
Time_Shift_9
Sustain_On
Time_Shift_230
Note_On_69_Vel_0
Time_Shift_3
Note_On_93_Vel_92
Time_Shift_1
Note_On_96_Vel_84
Time_Shift_4
Note_On_96_Vel_0
Time_Shift_2
Note_On_69_Vel_71
Time_Shift_6
Note_On_60_Vel_67
Time_Shift_6
Note_On_66_Vel_63
Time_Shift_83
Note_On_95_Vel_83
Time_Shift_4
Note_On_92_Vel_84
Time_Shift_129
Note_On_69_Vel_0
Time_Shift_3
Note_On_98_Vel_87
Time_Shift_1
Note_On_94_Vel_80
Time_Shift_1
Note_On_69_Vel_65
Time_Shift_3
Note_On_60_Vel_0
Note_On_66_Vel_0
Time_Shift_4
Note_On_60_Vel_74
Time_Shift_1
Note_On_66_Vel_66
Time_Shift_79
Note_On_93_Vel_0
Time_Shift_6
Note_On_93_Vel_93
Time_Shift_1
Note_On_96_Vel_81
Time_Shift_101
Note_On_60_Vel_0
Note_On_94_Vel_0
Time_Shift_8
Note_On_66_Vel_0
Note_On_69_Vel_0
Time_Shift_1
Note_On_94_Vel_93
Time_Shift_2
Note_On_60_Vel_75
Time_Shift_1
Note_On_72_Vel_0
Note_On_69_Vel_67
Time_Shift_1
Note_On_66_Vel_72
Time_Shift_6
Note_On_91_Vel_75
Time_Shift_12
Note_On_91_Vel_0
Time_Shift_69
Note_On_93_Vel_0
Time_Shift_7
Note_On_93_Vel_89
Time_Shift_5
Note_On_90_Vel_80
Time_Shift_60
Note_On_95_Vel_0
Note_On_96_Vel_0
Note_On_38_Vel_0
Note_On_66_Vel_0
Time_Shift_1
Note_On_93_Vel_0
Note_On_92_Vel_0
Note_On_50_Vel_0
Note_On_69_Vel_0
Note_On_76_Vel_0
Note_On_90_Vel_0
Note_On_78_Vel_0
Time_Shift_1
Note_On_81_Vel_0
Sustain_Off
Time_Shift_18
Note_On_60_Vel_0
Note_On_94_Vel_0
Note_On_98_Vel_0
Time_Shift_25
Note_On_42_Vel_87
Time_Shift_1
Note_On_87_Vel_86
Note_On_91_Vel_80
Time_Shift_28
Sustain_On
Time_Shift_3
Note_On_42_Vel_0
Time_Shift_62
Note_On_86_Vel_83
Note_On_90_Vel_88
Time_Shift_111
Note_On_87_Vel_0
Sustain_Off
Time_Shift_11
Note_On_69_Vel_76
Note_On_87_Vel_85
Time_Shift_1
Note_On_63_Vel_75
Note_On_84_Vel_79
Time_Shift_1
Note_On_60_Vel_72
Time_Shift_72
Sustain_On
Time_Shift_15
Note_On_86_Vel_0
Time_Shift_4
Note_On_86_Vel_81
Time_Shift_5
Note_On_82_Vel_85
Time_Shift_122
Note_On_69_Vel_0
Time_Shift_7
Note_On_60_Vel_0
Note_On_63_Vel_0
Note_On_84_Vel_0
Time_Shift_4
Note_On_69_Vel_74
Time_Shift_1
Note_On_84_Vel_76
Time_Shift_1
Note_On_81_Vel_79
Note_On_63_Vel_75
Time_Shift_1
Note_On_60_Vel_73
Time_Shift_78
Note_On_82_Vel_0
Time_Shift_4
Note_On_79_Vel_80
Time_Shift_1
Note_On_82_Vel_88
Time_Shift_110
Note_On_60_Vel_0
Note_On_63_Vel_0
Note_On_69_Vel_0
Note_On_81_Vel_0
Time_Shift_5
Note_On_63_Vel_74
Note_On_81_Vel_83
Time_Shift_1
Note_On_69_Vel_75
Note_On_60_Vel_69
Time_Shift_2
Note_On_78_Vel_79
Time_Shift_84
Note_On_84_Vel_0
Time_Shift_9
Note_On_75_Vel_71
Time_Shift_2
Note_On_84_Vel_79
Time_Shift_35
Note_On_91_Vel_0
Time_Shift_15
Note_On_69_Vel_0
Time_Shift_1
Note_On_86_Vel_0
Note_On_81_Vel_0
Time_Shift_1
Note_On_79_Vel_0
Note_On_82_Vel_0
Note_On_87_Vel_0
Time_Shift_1
Note_On_60_Vel_0
Note_On_63_Vel_0
Time_Shift_1
Note_On_75_Vel_0
Note_On_78_Vel_0
Time_Shift_3
Sustain_Off
Time_Shift_1
Note_On_90_Vel_0
Time_Shift_52
Note_On_57_Vel_68
Time_Shift_1
Note_On_45_Vel_67
Time_Shift_1
Note_On_74_Vel_73
Time_Shift_8
Note_On_84_Vel_0
Time_Shift_7
Sustain_On
Time_Shift_223
Note_On_96_Vel_83
Time_Shift_4
Note_On_93_Vel_73
Time_Shift_12
Note_On_69_Vel_53
Time_Shift_2
Note_On_66_Vel_55
Time_Shift_3
Note_On_60_Vel_53
Note_On_62_Vel_54
Time_Shift_87
Note_On_45_Vel_0
Time_Shift_7
Note_On_95_Vel_76
Time_Shift_3
Note_On_92_Vel_69
Time_Shift_114
Note_On_98_Vel_81
Time_Shift_6
Note_On_62_Vel_0
Note_On_66_Vel_0
Time_Shift_1
Note_On_94_Vel_74
Time_Shift_7
Note_On_60_Vel_0
Time_Shift_2
Note_On_66_Vel_62
Time_Shift_1
Note_On_62_Vel_67
Time_Shift_1
Note_On_60_Vel_60
Time_Shift_73
Note_On_93_Vel_0
Time_Shift_7
Note_On_96_Vel_0
Time_Shift_4
Note_On_93_Vel_80
Time_Shift_1
Note_On_96_Vel_81
Time_Shift_95
Note_On_60_Vel_0
Note_On_62_Vel_0
Note_On_66_Vel_0
Note_On_94_Vel_0
Time_Shift_7
Note_On_62_Vel_77
Time_Shift_1
Note_On_94_Vel_89
Time_Shift_1
Note_On_60_Vel_70
Time_Shift_2
Note_On_66_Vel_67
Time_Shift_4
Note_On_91_Vel_78
Time_Shift_77
Note_On_93_Vel_0
Time_Shift_9
Note_On_93_Vel_88
Note_On_90_Vel_80
Time_Shift_69
Note_On_95_Vel_0
Time_Shift_1
Note_On_60_Vel_0
Note_On_62_Vel_0
Note_On_74_Vel_0
Time_Shift_1
Note_On_66_Vel_0
Note_On_90_Vel_0
Note_On_96_Vel_0
Note_On_92_Vel_0
Note_On_94_Vel_0
Note_On_98_Vel_0
Note_On_93_Vel_0
Time_Shift_1
Note_On_57_Vel_0
Note_On_69_Vel_0
Time_Shift_5
Sustain_Off
Time_Shift_14
Note_On_91_Vel_0
Time_Shift_4
Note_On_50_Vel_79
Time_Shift_1
Note_On_38_Vel_83
Time_Shift_6
Note_On_91_Vel_81
Time_Shift_1
Note_On_87_Vel_86
Time_Shift_23
Note_On_50_Vel_0
Note_On_38_Vel_0
Time_Shift_27
Sustain_On
Time_Shift_46
Note_On_86_Vel_87
Time_Shift_3
Note_On_90_Vel_84
Time_Shift_104
Note_On_87_Vel_0
Time_Shift_5
Note_On_69_Vel_83
Time_Shift_5
Note_On_84_Vel_81
Time_Shift_1
Note_On_87_Vel_80
Note_On_66_Vel_76
Time_Shift_81
Note_On_86_Vel_0
Time_Shift_8
Note_On_86_Vel_79
Time_Shift_3
Note_On_82_Vel_89
Time_Shift_11
Note_On_67_Vel_71
Time_Shift_1
Note_On_76_Vel_62
Time_Shift_3
Note_On_70_Vel_84
Time_Shift_5
Note_On_76_Vel_0
Time_Shift_77
Note_On_69_Vel_0
Note_On_84_Vel_0
Time_Shift_8
Note_On_66_Vel_0
Time_Shift_3
Note_On_69_Vel_83
Note_On_81_Vel_90
Note_On_84_Vel_80
Time_Shift_1
Note_On_66_Vel_75
Time_Shift_88
Note_On_82_Vel_0
Time_Shift_7
Note_On_67_Vel_0
Note_On_70_Vel_0
Time_Shift_4
Note_On_79_Vel_83
Note_On_82_Vel_91
Time_Shift_1
Note_On_70_Vel_89
Time_Shift_2
Note_On_67_Vel_74
Time_Shift_101
Note_On_69_Vel_0
Note_On_81_Vel_0
Time_Shift_4
Note_On_81_Vel_81
Time_Shift_2
Note_On_78_Vel_84
Note_On_69_Vel_76
Time_Shift_4
Note_On_72_Vel_83
Note_On_91_Vel_0
Time_Shift_1
Note_On_70_Vel_0
Note_On_90_Vel_0
Note_On_67_Vel_0
Note_On_66_Vel_0
Time_Shift_1
Note_On_87_Vel_0
Note_On_79_Vel_0
Time_Shift_7
Sustain_Off
Time_Shift_4
Note_On_82_Vel_0
Time_Shift_8
Note_On_84_Vel_0
Note_On_86_Vel_0
Time_Shift_23
Note_On_69_Vel_0
Time_Shift_23
Sustain_On
Time_Shift_35
Note_On_86_Vel_88
Time_Shift_2
Note_On_74_Vel_75
Time_Shift_12
Note_On_82_Vel_71
Time_Shift_92
Note_On_70_Vel_77
Time_Shift_5
Note_On_82_Vel_0
Time_Shift_3
Note_On_67_Vel_72
Time_Shift_1
Note_On_79_Vel_76
Note_On_82_Vel_82
Time_Shift_7
Note_On_72_Vel_0
Time_Shift_8
Sustain_Off
Time_Shift_19
Sustain_On
Time_Shift_8
Note_On_78_Vel_0
Time_Shift_46
Note_On_81_Vel_0
Time_Shift_8
Note_On_70_Vel_0
Note_On_74_Vel_0
Time_Shift_6
Note_On_74_Vel_76
Time_Shift_1
Note_On_70_Vel_63
Time_Shift_105
Note_On_81_Vel_76
Time_Shift_5
Note_On_69_Vel_80
Time_Shift_2
Note_On_73_Vel_81
Time_Shift_94
Note_On_79_Vel_0
Time_Shift_2
Note_On_69_Vel_0
Note_On_85_Vel_86
Time_Shift_3
Note_On_76_Vel_77
Time_Shift_1
Note_On_69_Vel_59
Time_Shift_103
Note_On_69_Vel_0
Note_On_74_Vel_0
Note_On_81_Vel_0
Time_Shift_4
Note_On_65_Vel_76
Note_On_74_Vel_70
Time_Shift_6
Note_On_81_Vel_77
Note_On_69_Vel_60
Time_Shift_5
Note_On_76_Vel_0
Time_Shift_1
Note_On_82_Vel_0
Note_On_70_Vel_0
Time_Shift_2
Note_On_85_Vel_0
Time_Shift_1
Note_On_67_Vel_0
Time_Shift_4
Note_On_86_Vel_0
Time_Shift_8
Note_On_73_Vel_0
Time_Shift_15
Sustain_Off
Time_Shift_46
Note_On_74_Vel_0
Time_Shift_7
Note_On_74_Vel_70
Time_Shift_2
Note_On_86_Vel_86
Time_Shift_1
Note_On_77_Vel_80
Time_Shift_29
Sustain_On
Time_Shift_84
Note_On_77_Vel_0
Time_Shift_4
Note_On_79_Vel_85
Note_On_67_Vel_76
Time_Shift_1
Note_On_71_Vel_81
Time_Shift_5
Note_On_77_Vel_68
Time_Shift_90
Note_On_65_Vel_0
Note_On_74_Vel_0
Time_Shift_4
Note_On_65_Vel_80
Time_Shift_1
Note_On_74_Vel_78
Time_Shift_2
Note_On_83_Vel_86
Time_Shift_101
Note_On_79_Vel_0
Time_Shift_5
Note_On_79_Vel_83
Note_On_72_Vel_83
Time_Shift_1
Note_On_64_Vel_75
Time_Shift_20
Note_On_65_Vel_0
Time_Shift_1
Note_On_86_Vel_0
Note_On_67_Vel_0
Note_On_74_Vel_0
Time_Shift_1
Note_On_71_Vel_0
Time_Shift_8
Sustain_Off
Time_Shift_10
Note_On_69_Vel_0
Note_On_77_Vel_0
Time_Shift_7
Note_On_81_Vel_0
Note_On_83_Vel_0
Time_Shift_46
Sustain_On
Time_Shift_8
Note_On_72_Vel_0
Time_Shift_2
Note_On_67_Vel_61
Time_Shift_1
Note_On_76_Vel_74
Time_Shift_3
Note_On_84_Vel_78
Time_Shift_2
Note_On_79_Vel_0
Time_Shift_3
Note_On_72_Vel_66
Time_Shift_104
Note_On_76_Vel_0
Time_Shift_5
Note_On_78_Vel_82
Time_Shift_2
Note_On_66_Vel_77
Time_Shift_3
Note_On_76_Vel_70
Note_On_70_Vel_79
Time_Shift_90
Note_On_64_Vel_0
Time_Shift_3
Note_On_73_Vel_82
Time_Shift_3
Note_On_64_Vel_72
Time_Shift_2
Note_On_82_Vel_82
Time_Shift_100
Note_On_78_Vel_0
Time_Shift_4
Note_On_78_Vel_86
Time_Shift_6
Note_On_74_Vel_70
Time_Shift_2
Note_On_62_Vel_77
Time_Shift_2
Note_On_71_Vel_72
Time_Shift_3
Note_On_73_Vel_0
Time_Shift_1
Note_On_72_Vel_0
Note_On_82_Vel_0
Note_On_66_Vel_0
Note_On_64_Vel_0
Note_On_70_Vel_0
Time_Shift_5
Note_On_67_Vel_0
Note_On_76_Vel_0
Time_Shift_2
Sustain_Off
Time_Shift_5
Note_On_84_Vel_0
Time_Shift_31
Sustain_On
Time_Shift_38
Note_On_74_Vel_0
Time_Shift_11
Note_On_83_Vel_84
Note_On_74_Vel_80
Time_Shift_51
Note_On_78_Vel_0
Time_Shift_4
Note_On_78_Vel_60
Time_Shift_57
Note_On_62_Vel_0
Time_Shift_11
Note_On_68_Vel_72
Note_On_64_Vel_73
Note_On_76_Vel_62
Time_Shift_1
Note_On_62_Vel_59
Time_Shift_4
Note_On_76_Vel_0
Time_Shift_76
Note_On_62_Vel_0
Note_On_71_Vel_0
Time_Shift_4
Note_On_83_Vel_0
Time_Shift_1
Note_On_62_Vel_80
Note_On_80_Vel_83
Time_Shift_2
Note_On_71_Vel_73
Time_Shift_1
Note_On_74_Vel_0
Time_Shift_2
Sustain_Off
Time_Shift_2
Note_On_64_Vel_0
Time_Shift_50
Sustain_On
Time_Shift_55
Note_On_60_Vel_82
Time_Shift_6
Note_On_78_Vel_0
Time_Shift_4
Note_On_62_Vel_0
Note_On_69_Vel_61
Time_Shift_1
Sustain_Off
Time_Shift_2
Note_On_76_Vel_62
Note_On_71_Vel_0
Time_Shift_4
Note_On_80_Vel_0
Time_Shift_5
Note_On_68_Vel_0
Time_Shift_1
Note_On_77_Vel_57
Time_Shift_22
Note_On_60_Vel_0
Time_Shift_38
Sustain_On
Time_Shift_8
Note_On_69_Vel_0
Time_Shift_11
Note_On_81_Vel_81
Note_On_69_Vel_64
Time_Shift_5
Note_On_72_Vel_62
Time_Shift_107
Note_On_72_Vel_0
Time_Shift_5
Note_On_72_Vel_89
Note_On_86_Vel_86
Time_Shift_4
Note_On_78_Vel_89
Time_Shift_29
Note_On_76_Vel_0
Time_Shift_54
Note_On_81_Vel_0
Time_Shift_10
Note_On_81_Vel_77
Time_Shift_1
Note_On_90_Vel_89
Time_Shift_20
Note_On_72_Vel_0
Time_Shift_10
Note_On_72_Vel_55
Time_Shift_77
Note_On_71_Vel_88
Time_Shift_5
Note_On_81_Vel_0
Note_On_86_Vel_0
Note_On_79_Vel_85
Time_Shift_4
Note_On_81_Vel_76
Note_On_86_Vel_78
Time_Shift_46
Sustain_Off
Time_Shift_4
Note_On_77_Vel_0
Time_Shift_23
Sustain_On
Time_Shift_23
Note_On_79_Vel_0
Time_Shift_4
Note_On_91_Vel_90
Time_Shift_5
Note_On_83_Vel_80
Note_On_79_Vel_75
Time_Shift_6
Note_On_71_Vel_0
Time_Shift_11
Note_On_71_Vel_65
Time_Shift_95
Note_On_85_Vel_89
Note_On_77_Vel_87
Time_Shift_1
Note_On_73_Vel_88
Time_Shift_85
Note_On_71_Vel_0
Time_Shift_8
Note_On_71_Vel_78
Time_Shift_4
Note_On_89_Vel_88
Time_Shift_1
Note_On_80_Vel_86
Time_Shift_110
Note_On_69_Vel_0
Time_Shift_4
Note_On_69_Vel_83
Time_Shift_4
Note_On_78_Vel_0
Note_On_85_Vel_0
Time_Shift_4
Note_On_85_Vel_84
Time_Shift_3
Note_On_78_Vel_75
Time_Shift_11
Sustain_Off
Time_Shift_43
Sustain_On
Time_Shift_31
Note_On_81_Vel_0
Note_On_90_Vel_0
Time_Shift_9
Note_On_90_Vel_90
Note_On_81_Vel_79
Time_Shift_106
Note_On_71_Vel_0
Note_On_83_Vel_0
Time_Shift_10
Note_On_83_Vel_87
Time_Shift_1
Note_On_71_Vel_93
Time_Shift_2
Note_On_75_Vel_74
Time_Shift_79
Note_On_69_Vel_0
Note_On_78_Vel_0
Time_Shift_4
Note_On_69_Vel_87
Note_On_78_Vel_85
Time_Shift_4
Note_On_87_Vel_81
Time_Shift_107
Note_On_83_Vel_0
Time_Shift_5
Note_On_67_Vel_87
Time_Shift_4
Note_On_83_Vel_81
Time_Shift_3
Note_On_76_Vel_79
Time_Shift_29
Sustain_Off
Time_Shift_28
Sustain_On
Time_Shift_31
Note_On_79_Vel_0
Time_Shift_3
Note_On_88_Vel_87
Time_Shift_6
Note_On_79_Vel_76
Time_Shift_99
Note_On_69_Vel_0
Time_Shift_10
Note_On_69_Vel_92
Time_Shift_5
Note_On_73_Vel_0
Note_On_76_Vel_0
Note_On_81_Vel_0
Time_Shift_5
Note_On_76_Vel_66
Time_Shift_1
Note_On_81_Vel_76
Time_Shift_2
Note_On_79_Vel_0
Time_Shift_1
Note_On_73_Vel_73
Time_Shift_3
Note_On_79_Vel_56
Time_Shift_65
Note_On_67_Vel_0
Time_Shift_9
Note_On_67_Vel_84
Time_Shift_6
Note_On_76_Vel_0
Note_On_85_Vel_0
Time_Shift_6
Note_On_85_Vel_82
Note_On_76_Vel_71
Time_Shift_107
Note_On_65_Vel_93
Time_Shift_2
Note_On_91_Vel_0
Time_Shift_4
Note_On_75_Vel_0
Note_On_85_Vel_0
Time_Shift_1
Note_On_73_Vel_0
Note_On_78_Vel_0
Note_On_79_Vel_0
Note_On_76_Vel_0
Note_On_67_Vel_0
Time_Shift_2
Note_On_83_Vel_0
Time_Shift_1
Note_On_72_Vel_0
Note_On_80_Vel_0
Note_On_81_Vel_0
Time_Shift_1
Note_On_77_Vel_0
Time_Shift_3
Sustain_Off
Time_Shift_3
Note_On_81_Vel_79
Time_Shift_1
Note_On_71_Vel_0
Note_On_87_Vel_0
Note_On_88_Vel_0
Note_On_89_Vel_0
Note_On_90_Vel_0
Time_Shift_4
Note_On_71_Vel_53
Time_Shift_2
Note_On_74_Vel_67
Time_Shift_1
Note_On_69_Vel_0
Note_On_86_Vel_0
Time_Shift_17
Note_On_65_Vel_0
Time_Shift_37
Sustain_On
Time_Shift_23
Note_On_86_Vel_84
Time_Shift_5
Note_On_77_Vel_72
Time_Shift_110
Note_On_77_Vel_0
Time_Shift_10
Note_On_77_Vel_97
Time_Shift_2
Note_On_91_Vel_97
Time_Shift_1
Note_On_79_Vel_84
Time_Shift_1
Note_On_83_Vel_93
Time_Shift_51
Sustain_Off
Time_Shift_20
Sustain_On
Time_Shift_23
Note_On_86_Vel_0
Time_Shift_9
Note_On_95_Vel_93
Time_Shift_1
Note_On_86_Vel_86
Time_Shift_105
Note_On_91_Vel_0
Time_Shift_4
Note_On_76_Vel_102
Time_Shift_2
Note_On_88_Vel_84
Note_On_84_Vel_92
Time_Shift_2
Note_On_91_Vel_98
Time_Shift_19
Sustain_Off
Time_Shift_27
Sustain_On
Time_Shift_46
Note_On_88_Vel_0
Time_Shift_11
Note_On_88_Vel_91
Note_On_96_Vel_88
Time_Shift_12
Note_On_81_Vel_0
Time_Shift_104
Note_On_78_Vel_100
Time_Shift_5
Note_On_90_Vel_95
Time_Shift_1
Note_On_82_Vel_96
Time_Shift_82
Note_On_76_Vel_0
Time_Shift_8
Note_On_76_Vel_88
Time_Shift_2
Note_On_97_Vel_82
Time_Shift_1
Note_On_85_Vel_95
Note_On_94_Vel_91
Time_Shift_104
Note_On_90_Vel_0
Time_Shift_8
Note_On_74_Vel_0
Note_On_83_Vel_0
Time_Shift_3
Note_On_90_Vel_95
Time_Shift_2
Note_On_74_Vel_89
Time_Shift_3
Note_On_83_Vel_86
Time_Shift_26
Sustain_Off
Time_Shift_27
Sustain_On
Time_Shift_39
Note_On_86_Vel_0
Note_On_95_Vel_0
Time_Shift_9
Note_On_95_Vel_92
Note_On_86_Vel_80
Time_Shift_114
Note_On_76_Vel_0
Note_On_88_Vel_0
Time_Shift_4
Note_On_76_Vel_97
Note_On_88_Vel_87
Time_Shift_3
Note_On_80_Vel_85
Time_Shift_85
Note_On_74_Vel_0
Note_On_83_Vel_0
Time_Shift_3
Note_On_92_Vel_95
Time_Shift_4
Note_On_74_Vel_92
Note_On_83_Vel_90
Time_Shift_72
Sustain_Off
Time_Shift_28
Sustain_On
Time_Shift_8
Note_On_88_Vel_0
Time_Shift_5
Note_On_72_Vel_94
Time_Shift_2
Note_On_81_Vel_86
Time_Shift_2
Note_On_88_Vel_91
Time_Shift_26
Note_On_80_Vel_0
Time_Shift_3
Note_On_97_Vel_0
Time_Shift_1
Note_On_82_Vel_0
Time_Shift_7
Note_On_79_Vel_0
Time_Shift_8
Note_On_71_Vel_0
Note_On_84_Vel_0
Note_On_85_Vel_0
Time_Shift_7
Note_On_96_Vel_0
Time_Shift_16
Note_On_94_Vel_0
Time_Shift_25
Note_On_93_Vel_91
Time_Shift_1
Note_On_84_Vel_85
Time_Shift_112
Note_On_72_Vel_0
Note_On_74_Vel_0
Note_On_78_Vel_0
Note_On_86_Vel_0
Time_Shift_9
Note_On_86_Vel_85
Time_Shift_1
Note_On_72_Vel_76
Note_On_74_Vel_90
Note_On_78_Vel_86
Time_Shift_82
Note_On_72_Vel_0
Note_On_81_Vel_0
Note_On_90_Vel_0
Time_Shift_9
Note_On_90_Vel_96
Note_On_81_Vel_86
Time_Shift_2
Note_On_72_Vel_90
Time_Shift_104
Note_On_83_Vel_0
Note_On_86_Vel_0
Time_Shift_11
Note_On_83_Vel_75
Note_On_71_Vel_90
Note_On_86_Vel_83
Time_Shift_5
Note_On_79_Vel_85
Time_Shift_25
Sustain_Off
Time_Shift_36
Sustain_On
Time_Shift_23
Note_On_91_Vel_0
Time_Shift_7
Note_On_91_Vel_92
Time_Shift_9
Note_On_83_Vel_0
Time_Shift_7
Note_On_83_Vel_73
Time_Shift_105
Note_On_73_Vel_88
Time_Shift_3
Note_On_77_Vel_0
Note_On_84_Vel_0
Time_Shift_2
Note_On_85_Vel_86
Time_Shift_2
Note_On_77_Vel_80
Time_Shift_5
Note_On_84_Vel_74
Time_Shift_60
Note_On_71_Vel_0
Time_Shift_8
Note_On_71_Vel_65
Time_Shift_15
Note_On_77_Vel_0
Time_Shift_3
Note_On_89_Vel_92
Time_Shift_5
Note_On_80_Vel_83
Time_Shift_2
Note_On_77_Vel_71
Time_Shift_5
Note_On_76_Vel_0
Time_Shift_100
Note_On_78_Vel_0
Note_On_85_Vel_0
Time_Shift_2
Note_On_69_Vel_80
Time_Shift_2
Note_On_85_Vel_87
Time_Shift_1
Note_On_78_Vel_80
Time_Shift_39
Sustain_Off
Time_Shift_7
Note_On_80_Vel_0
Time_Shift_26
Sustain_On
Time_Shift_23
Note_On_69_Vel_0
Note_On_81_Vel_0
Note_On_90_Vel_0
Time_Shift_4
Note_On_69_Vel_60
Note_On_90_Vel_88
Note_On_81_Vel_71
Time_Shift_11
Note_On_74_Vel_0
Time_Shift_108
Note_On_71_Vel_0
Note_On_83_Vel_0
Time_Shift_4
Note_On_83_Vel_84
Time_Shift_4
Note_On_71_Vel_85
Time_Shift_3
Note_On_75_Vel_62
Time_Shift_73
Note_On_86_Vel_0
Time_Shift_8
Note_On_69_Vel_0
Note_On_78_Vel_0
Time_Shift_8
Note_On_78_Vel_82
Time_Shift_3
Note_On_69_Vel_77
Time_Shift_1
Note_On_87_Vel_74
Time_Shift_111
Note_On_83_Vel_0
Time_Shift_5
Note_On_83_Vel_75
Time_Shift_6
Note_On_76_Vel_63
Time_Shift_2
Note_On_67_Vel_69
Time_Shift_25
Note_On_92_Vel_0
Time_Shift_4
Note_On_87_Vel_0
Time_Shift_9
Sustain_Off
Time_Shift_18
Note_On_89_Vel_0
Time_Shift_23
Note_On_84_Vel_0
Sustain_On
Time_Shift_8
Note_On_79_Vel_0
Note_On_88_Vel_0
Time_Shift_7
Note_On_88_Vel_81
Time_Shift_3
Note_On_79_Vel_71
Time_Shift_5
Note_On_95_Vel_0
Time_Shift_123
Note_On_69_Vel_0
Note_On_73_Vel_0
Note_On_81_Vel_0
Time_Shift_5
Note_On_81_Vel_76
Time_Shift_2
Note_On_69_Vel_74
Time_Shift_1
Note_On_73_Vel_66
Time_Shift_46
Note_On_77_Vel_0
Time_Shift_30
Note_On_75_Vel_0
Time_Shift_16
Note_On_67_Vel_0
Note_On_72_Vel_0
Note_On_76_Vel_0
Note_On_85_Vel_0
Time_Shift_4
Note_On_67_Vel_50
Note_On_85_Vel_80
Time_Shift_3
Note_On_69_Vel_0
Note_On_81_Vel_0
Time_Shift_3
Note_On_76_Vel_58
Time_Shift_4
Note_On_69_Vel_55
Time_Shift_5
Note_On_81_Vel_55
Time_Shift_50
Note_On_91_Vel_0
Time_Shift_8
Note_On_71_Vel_0
Time_Shift_1
Sustain_Off
Time_Shift_4
Note_On_69_Vel_0
Note_On_76_Vel_0
Time_Shift_2
Note_On_79_Vel_0
Time_Shift_2
Note_On_88_Vel_0
Note_On_73_Vel_0
Time_Shift_1
Note_On_67_Vel_0
Time_Shift_1
Note_On_85_Vel_0
Time_Shift_4
Note_On_78_Vel_0
Note_On_83_Vel_0
Note_On_93_Vel_0
Time_Shift_8
Note_On_90_Vel_0
Time_Shift_15
Note_On_81_Vel_0
Time_Shift_3
Note_On_65_Vel_62
Time_Shift_4
Note_On_81_Vel_65
Time_Shift_8
Sustain_On
Time_Shift_11
Note_On_74_Vel_52
Time_Shift_1
Note_On_69_Vel_43
Time_Shift_94
Note_On_86_Vel_71
Time_Shift_5
Note_On_77_Vel_60
Time_Shift_78
Note_On_65_Vel_0
Time_Shift_1
Sustain_Off
Time_Shift_4
Note_On_86_Vel_0
Note_On_69_Vel_0
Time_Shift_27
Note_On_50_Vel_64
Time_Shift_2
Note_On_81_Vel_0
Time_Shift_8
Note_On_74_Vel_0
Note_On_77_Vel_0
Sustain_On
Time_Shift_3
Note_On_81_Vel_65
Time_Shift_1
Note_On_77_Vel_57
Time_Shift_5
Note_On_74_Vel_54
Time_Shift_106
Note_On_77_Vel_0
Note_On_81_Vel_0
Time_Shift_5
Note_On_77_Vel_60
Time_Shift_1
Note_On_86_Vel_69
Time_Shift_5
Note_On_81_Vel_52
Time_Shift_69
Note_On_50_Vel_0
Note_On_81_Vel_0
Time_Shift_1
Note_On_77_Vel_0
Note_On_74_Vel_0
Time_Shift_2
Note_On_86_Vel_0
Time_Shift_4
Sustain_Off
Time_Shift_51
Sustain_On
Time_Shift_3
Note_On_34_Vel_83
Note_On_46_Vel_84
Time_Shift_1
Note_On_80_Vel_83
Time_Shift_2
Note_On_86_Vel_68
Time_Shift_267
Note_On_92_Vel_89
Time_Shift_10
Note_On_46_Vel_0
Time_Shift_1
Note_On_34_Vel_0
Time_Shift_3
Note_On_86_Vel_0
Note_On_89_Vel_74
Time_Shift_1
Note_On_65_Vel_68
Note_On_56_Vel_67
Note_On_62_Vel_65
Note_On_80_Vel_0
Time_Shift_8
Sustain_Off
Time_Shift_24
Note_On_65_Vel_0
Note_On_62_Vel_0
Time_Shift_3
Note_On_56_Vel_0
Time_Shift_50
Note_On_91_Vel_84
Note_On_88_Vel_67
Time_Shift_11
Sustain_On
Time_Shift_8
Note_On_92_Vel_0
Time_Shift_15
Note_On_89_Vel_0
Time_Shift_96
Note_On_90_Vel_86
Note_On_94_Vel_95
Time_Shift_8
Note_On_62_Vel_75
Time_Shift_1
Note_On_65_Vel_74
Time_Shift_3
Note_On_88_Vel_0
Time_Shift_2
Note_On_56_Vel_71
Time_Shift_88
Note_On_89_Vel_89
Note_On_92_Vel_87
Time_Shift_102
Note_On_56_Vel_0
Note_On_65_Vel_0
Time_Shift_7
Note_On_62_Vel_0
Note_On_90_Vel_0
Time_Shift_3
Note_On_56_Vel_70
Time_Shift_1
Sustain_Off
Note_On_65_Vel_66
Time_Shift_3
Note_On_90_Vel_88
Note_On_62_Vel_61
Time_Shift_1
Note_On_91_Vel_0
Time_Shift_1
Note_On_87_Vel_84
Time_Shift_61
Sustain_On
Time_Shift_23
Note_On_89_Vel_0
Time_Shift_4
Note_On_89_Vel_85
Note_On_86_Vel_85
Time_Shift_42
Sustain_Off
Time_Shift_7
Note_On_65_Vel_0
Time_Shift_2
Note_On_62_Vel_0
Note_On_87_Vel_0
Time_Shift_2
Note_On_90_Vel_0
Note_On_89_Vel_0
Time_Shift_1
Note_On_86_Vel_0
Time_Shift_3
Note_On_56_Vel_0
Note_On_92_Vel_0
Note_On_94_Vel_0
Time_Shift_54
Note_On_83_Vel_87
Time_Shift_1
Note_On_38_Vel_78
Time_Shift_2
Note_On_87_Vel_81
Time_Shift_12
Sustain_On
Time_Shift_90
Note_On_86_Vel_86
Time_Shift_3
Note_On_82_Vel_84
Time_Shift_27
Note_On_74_Vel_43
Time_Shift_80
Note_On_83_Vel_0
Time_Shift_3
Note_On_80_Vel_86
Time_Shift_5
Note_On_83_Vel_78
Time_Shift_9
Note_On_59_Vel_55
Time_Shift_1
Note_On_53_Vel_51
Note_On_65_Vel_54
Note_On_56_Vel_59
Time_Shift_74
Note_On_82_Vel_0
Time_Shift_6
Note_On_82_Vel_88
Time_Shift_1
Note_On_78_Vel_83
Time_Shift_116
Note_On_56_Vel_0
Note_On_59_Vel_0
Note_On_80_Vel_0
Time_Shift_6
Note_On_77_Vel_81
Time_Shift_1
Note_On_80_Vel_84
Time_Shift_1
Note_On_65_Vel_0
Time_Shift_1
Note_On_59_Vel_64
Time_Shift_2
Note_On_56_Vel_68
Note_On_65_Vel_60
Time_Shift_89
Note_On_78_Vel_0
Time_Shift_4
Note_On_78_Vel_75
Time_Shift_3
Note_On_75_Vel_76
Time_Shift_23
Note_On_56_Vel_0
Time_Shift_9
Note_On_56_Vel_52
Time_Shift_76
Note_On_65_Vel_0
Note_On_74_Vel_0
Note_On_77_Vel_0
Time_Shift_5
Note_On_77_Vel_76
Time_Shift_3
Note_On_56_Vel_0
Note_On_59_Vel_0
Note_On_65_Vel_62
Time_Shift_1
Note_On_62_Vel_51
Time_Shift_1
Note_On_74_Vel_69
Time_Shift_2
Note_On_59_Vel_57
Time_Shift_2
Note_On_56_Vel_64
Time_Shift_93
Note_On_77_Vel_0
Note_On_80_Vel_0
Time_Shift_9
Note_On_71_Vel_77
Time_Shift_1
Note_On_80_Vel_80
Time_Shift_1
Note_On_77_Vel_72
Time_Shift_28
Sustain_Off
Time_Shift_2
Note_On_78_Vel_0
Note_On_83_Vel_0
Note_On_86_Vel_0
Note_On_59_Vel_0
Note_On_56_Vel_0
Time_Shift_1
Note_On_87_Vel_0
Note_On_82_Vel_0
Time_Shift_1
Note_On_74_Vel_0
Note_On_38_Vel_0
Note_On_75_Vel_0
Note_On_65_Vel_0
Time_Shift_3
Note_On_53_Vel_0
Time_Shift_8
Note_On_62_Vel_0
Time_Shift_23
Note_On_77_Vel_0
Time_Shift_16
Note_On_71_Vel_0
Time_Shift_38
Note_On_80_Vel_0
Time_Shift_2
Note_On_41_Vel_67
Time_Shift_9
Note_On_70_Vel_74
Time_Shift_4
Sustain_On
Time_Shift_9
Note_On_74_Vel_50
Time_Shift_277
Note_On_92_Vel_75
Time_Shift_2
Note_On_89_Vel_68
Time_Shift_15
Note_On_58_Vel_56
Time_Shift_1
Note_On_62_Vel_51
Time_Shift_4
Note_On_56_Vel_46
Time_Shift_88
Note_On_88_Vel_76
Time_Shift_3
Note_On_91_Vel_73
Time_Shift_125
Note_On_90_Vel_78
Time_Shift_2
Note_On_94_Vel_83
Time_Shift_4
Note_On_62_Vel_0
Time_Shift_8
Note_On_56_Vel_0
Note_On_58_Vel_0
Time_Shift_2
Note_On_62_Vel_62
Time_Shift_3
Note_On_58_Vel_50
Note_On_56_Vel_48
Time_Shift_87
Note_On_89_Vel_0
Note_On_92_Vel_0
Time_Shift_6
Note_On_92_Vel_72
Note_On_89_Vel_75
Time_Shift_94
Note_On_56_Vel_0
Note_On_58_Vel_0
Note_On_62_Vel_0
Time_Shift_5
Note_On_62_Vel_57
Time_Shift_2
Note_On_58_Vel_62
Note_On_56_Vel_58
Time_Shift_1
Note_On_90_Vel_0
Time_Shift_5
Note_On_90_Vel_79
Time_Shift_6
Note_On_87_Vel_73
Time_Shift_4
Note_On_74_Vel_0
Time_Shift_84
Note_On_89_Vel_0
Time_Shift_4
Note_On_86_Vel_79
Time_Shift_1
Note_On_89_Vel_78
Time_Shift_16
Note_On_56_Vel_0
Sustain_Off
Note_On_58_Vel_0
Time_Shift_2
Note_On_62_Vel_0
Note_On_94_Vel_0
Time_Shift_1
Note_On_92_Vel_0
Note_On_90_Vel_0
Note_On_70_Vel_0
Note_On_91_Vel_0
Time_Shift_2
Note_On_88_Vel_0
Time_Shift_2
Note_On_87_Vel_0
Time_Shift_3
Note_On_41_Vel_0
Time_Shift_12
Note_On_86_Vel_0
Time_Shift_19
Sustain_On
Time_Shift_50
Note_On_34_Vel_73
Time_Shift_6
Note_On_46_Vel_70
Time_Shift_7
Note_On_87_Vel_78
Time_Shift_2
Note_On_83_Vel_74
Time_Shift_108
Note_On_86_Vel_80
Note_On_82_Vel_77
Time_Shift_100
Note_On_65_Vel_73
Time_Shift_3
Note_On_83_Vel_0
Time_Shift_2
Note_On_62_Vel_73
Time_Shift_2
Note_On_80_Vel_83
Note_On_83_Vel_74
Time_Shift_96
Note_On_82_Vel_0
Time_Shift_5
Note_On_78_Vel_84
Time_Shift_4
Note_On_82_Vel_79
Time_Shift_3
Note_On_66_Vel_81
Time_Shift_1
Note_On_63_Vel_74
Time_Shift_95
Note_On_65_Vel_0
Time_Shift_7
Note_On_80_Vel_0
Time_Shift_2
Note_On_77_Vel_85
Time_Shift_2
Note_On_65_Vel_83
Time_Shift_1
Note_On_80_Vel_86
Time_Shift_1
Note_On_68_Vel_84
Time_Shift_87
Note_On_78_Vel_0
Time_Shift_7
Note_On_66_Vel_0
Time_Shift_1
Note_On_78_Vel_90
Time_Shift_3
Note_On_75_Vel_84
Time_Shift_2
Note_On_66_Vel_83
Time_Shift_6
Note_On_70_Vel_81
Time_Shift_103
Note_On_68_Vel_0
Note_On_77_Vel_0
Time_Shift_4
Note_On_71_Vel_91
Time_Shift_2
Note_On_74_Vel_83
Time_Shift_1
Note_On_77_Vel_82
Time_Shift_2
Note_On_68_Vel_81
Time_Shift_63
Note_On_82_Vel_0
Note_On_62_Vel_0
Note_On_83_Vel_0
Note_On_74_Vel_0
Note_On_86_Vel_0
Note_On_77_Vel_0
Time_Shift_1
Sustain_Off
Note_On_65_Vel_0
Note_On_70_Vel_0
Note_On_80_Vel_0
Note_On_78_Vel_0
Note_On_68_Vel_0
Note_On_87_Vel_0
Note_On_71_Vel_0
Note_On_75_Vel_0
Note_On_34_Vel_0
Note_On_66_Vel_0
Note_On_46_Vel_0
Time_Shift_1
Note_On_63_Vel_0
Time_Shift_3
Note_On_89_Vel_0
Time_Shift_35
Note_On_82_Vel_91
Time_Shift_2
Note_On_70_Vel_79
Time_Shift_5
Note_On_74_Vel_63
Time_Shift_27
Sustain_On
Time_Shift_46
Note_On_70_Vel_0
Time_Shift_16
Note_On_82_Vel_0
Time_Shift_15
Note_On_74_Vel_0
Time_Shift_21
Note_On_39_Vel_88
Note_On_51_Vel_92
Time_Shift_11
Note_On_79_Vel_83
Time_Shift_2
Note_On_73_Vel_81
Time_Shift_251
Note_On_97_Vel_92
Time_Shift_3
Note_On_94_Vel_89
Time_Shift_2
Note_On_61_Vel_75
Time_Shift_3
Note_On_70_Vel_64
Time_Shift_1
Note_On_67_Vel_56
Time_Shift_85
Note_On_96_Vel_96
Time_Shift_4
Note_On_93_Vel_88
Time_Shift_101
Note_On_67_Vel_0
Note_On_70_Vel_0
Note_On_94_Vel_0
Time_Shift_4
Note_On_70_Vel_83
Time_Shift_1
Note_On_99_Vel_97
Time_Shift_3
Note_On_94_Vel_80
Note_On_61_Vel_0
Note_On_97_Vel_0
Time_Shift_2
Note_On_87_Vel_87
Time_Shift_1
Note_On_67_Vel_72
Note_On_95_Vel_79
Time_Shift_2
Note_On_97_Vel_82
Note_On_61_Vel_77
Time_Shift_2
Note_On_87_Vel_0
Time_Shift_93
Note_On_94_Vel_0
Note_On_97_Vel_0
Time_Shift_5
Note_On_97_Vel_92
Note_On_94_Vel_93
Time_Shift_94
Note_On_70_Vel_0
Time_Shift_8
Note_On_61_Vel_0
Note_On_95_Vel_0
Time_Shift_2
Note_On_70_Vel_83
Time_Shift_4
Note_On_61_Vel_84
Time_Shift_4
Note_On_95_Vel_91
Time_Shift_4
Note_On_92_Vel_84
Time_Shift_101
Note_On_94_Vel_0
Time_Shift_11
Note_On_94_Vel_93
Note_On_91_Vel_87
Time_Shift_64
Note_On_79_Vel_0
Time_Shift_1
Note_On_93_Vel_0
Note_On_73_Vel_0
Note_On_97_Vel_0
Note_On_91_Vel_0
Note_On_61_Vel_0
Note_On_67_Vel_0
Note_On_96_Vel_0
Time_Shift_2
Note_On_39_Vel_0
Note_On_51_Vel_0
Note_On_92_Vel_0
Time_Shift_1
Note_On_70_Vel_0
Time_Shift_1
Sustain_Off
Time_Shift_12
Note_On_99_Vel_0
Time_Shift_21
Note_On_55_Vel_76
Time_Shift_8
Note_On_43_Vel_75
Time_Shift_10
Sustain_On
Time_Shift_4
Note_On_92_Vel_97
Note_On_88_Vel_91
Time_Shift_101
Note_On_91_Vel_100
Time_Shift_5
Note_On_87_Vel_90
Time_Shift_74
Note_On_95_Vel_0
Time_Shift_23
Note_On_88_Vel_0
Time_Shift_1
Note_On_85_Vel_96
Time_Shift_7
Note_On_70_Vel_77
Time_Shift_3
Note_On_88_Vel_90
Time_Shift_3
Note_On_61_Vel_79
Time_Shift_1
Note_On_64_Vel_68
Time_Shift_77
Note_On_87_Vel_0
Time_Shift_5
Note_On_83_Vel_91
Time_Shift_1
Note_On_87_Vel_89
Time_Shift_110
Note_On_70_Vel_0
Note_On_85_Vel_0
Time_Shift_7
Note_On_61_Vel_0
Note_On_64_Vel_0
Time_Shift_1
Note_On_82_Vel_97
Time_Shift_2
Note_On_70_Vel_83
Note_On_85_Vel_91
Time_Shift_4
Note_On_61_Vel_83
Time_Shift_4
Note_On_64_Vel_75
Time_Shift_74
Note_On_83_Vel_0
Time_Shift_10
Note_On_83_Vel_89
Time_Shift_1
Note_On_80_Vel_94
Time_Shift_104
Note_On_70_Vel_0
Time_Shift_8
Note_On_61_Vel_0
Note_On_64_Vel_0
Note_On_82_Vel_0
Time_Shift_3
Note_On_70_Vel_93
Time_Shift_1
Note_On_79_Vel_95
Note_On_82_Vel_93
Time_Shift_1
Note_On_64_Vel_84
Note_On_61_Vel_84
Time_Shift_1
Note_On_91_Vel_0
Time_Shift_93
Note_On_85_Vel_0
Time_Shift_4
Note_On_85_Vel_95
Note_On_76_Vel_93
Time_Shift_1
Note_On_88_Vel_0
Time_Shift_90
Sustain_Off
Time_Shift_5
Note_On_43_Vel_0
Time_Shift_6
Note_On_92_Vel_0
Note_On_80_Vel_0
Time_Shift_1
Note_On_64_Vel_0
Time_Shift_1
Note_On_83_Vel_0
Note_On_55_Vel_0
Note_On_94_Vel_0
Time_Shift_1
Note_On_61_Vel_0
Time_Shift_1
Note_On_76_Vel_0
Note_On_79_Vel_0
Note_On_82_Vel_0
Time_Shift_1
Note_On_87_Vel_0
Note_On_85_Vel_0
Time_Shift_12
Note_On_70_Vel_0
Time_Shift_5
Note_On_58_Vel_96
Time_Shift_1
Note_On_75_Vel_96
Time_Shift_3
Note_On_46_Vel_101
Time_Shift_14
Sustain_On
Time_Shift_177
Note_On_58_Vel_0
Time_Shift_6
Note_On_58_Vel_96
Time_Shift_4
Note_On_64_Vel_85
Time_Shift_5
Note_On_64_Vel_0
Time_Shift_35
Note_On_67_Vel_66
Time_Shift_2
Note_On_97_Vel_100
Time_Shift_4
Note_On_94_Vel_92
Time_Shift_1
Note_On_61_Vel_79
Time_Shift_2
Note_On_63_Vel_83
Time_Shift_89
Note_On_93_Vel_99
Time_Shift_1
Note_On_96_Vel_96
Time_Shift_104
Note_On_67_Vel_0
Time_Shift_8
Note_On_99_Vel_101
Note_On_61_Vel_0
Note_On_63_Vel_0
Note_On_97_Vel_0
Time_Shift_2
Note_On_95_Vel_97
Time_Shift_1
Note_On_67_Vel_89
Time_Shift_5
Note_On_95_Vel_0
Time_Shift_3
Note_On_97_Vel_94
Note_On_61_Vel_92
Note_On_63_Vel_92
Time_Shift_81
Note_On_97_Vel_0
Time_Shift_8
Note_On_94_Vel_0
Time_Shift_4
Note_On_97_Vel_103
Time_Shift_4
Note_On_94_Vel_90
Time_Shift_38
Note_On_96_Vel_0
Time_Shift_5
Note_On_96_Vel_62
Time_Shift_56
Note_On_61_Vel_0
Note_On_67_Vel_0
Time_Shift_6
Note_On_67_Vel_90
Time_Shift_1
Note_On_95_Vel_97
Time_Shift_1
Note_On_63_Vel_0
Time_Shift_3
Note_On_58_Vel_0
Note_On_61_Vel_95
Time_Shift_1
Note_On_92_Vel_92
Note_On_63_Vel_93
Time_Shift_96
Note_On_94_Vel_0
Time_Shift_5
Note_On_94_Vel_93
Note_On_91_Vel_96
Time_Shift_64
Note_On_46_Vel_0
Time_Shift_5
Note_On_93_Vel_0
Time_Shift_1
Note_On_61_Vel_0
Note_On_67_Vel_0
Note_On_63_Vel_0
Note_On_99_Vel_0
Note_On_92_Vel_0
Note_On_97_Vel_0
Time_Shift_1
Note_On_94_Vel_0
Note_On_75_Vel_0
Time_Shift_1
Note_On_96_Vel_0
Note_On_91_Vel_0
Time_Shift_1
Sustain_Off
Time_Shift_14
Note_On_95_Vel_0
Time_Shift_27
Note_On_51_Vel_103
Time_Shift_2
Note_On_39_Vel_97
Time_Shift_3
Note_On_88_Vel_96
Time_Shift_2
Note_On_92_Vel_100
Time_Shift_12
Sustain_On
Time_Shift_84
Note_On_91_Vel_91
Time_Shift_2
Note_On_87_Vel_93
Time_Shift_106
Note_On_88_Vel_0
Time_Shift_4
Note_On_58_Vel_90
Time_Shift_2
Note_On_55_Vel_85
Time_Shift_1
Note_On_85_Vel_85
Time_Shift_3
Note_On_88_Vel_83
Time_Shift_90
Note_On_87_Vel_0
Time_Shift_4
Note_On_83_Vel_90
Time_Shift_1
Note_On_59_Vel_91
Time_Shift_5
Note_On_87_Vel_85
Time_Shift_4
Note_On_56_Vel_76
Time_Shift_94
Note_On_58_Vel_0
Note_On_85_Vel_0
Time_Shift_7
Note_On_55_Vel_0
Time_Shift_3
Note_On_85_Vel_87
Time_Shift_1
Note_On_58_Vel_93
Note_On_55_Vel_91
Time_Shift_1
Note_On_82_Vel_98
Time_Shift_7
Note_On_51_Vel_0
Time_Shift_80
Note_On_59_Vel_0
Note_On_83_Vel_0
Time_Shift_7
Note_On_83_Vel_96
Time_Shift_1
Note_On_56_Vel_0
Note_On_87_Vel_0
Time_Shift_4
Note_On_59_Vel_102
Time_Shift_2
Note_On_80_Vel_91
Time_Shift_1
Note_On_56_Vel_88
Time_Shift_2
Note_On_87_Vel_86
Time_Shift_106
Note_On_58_Vel_0
Note_On_82_Vel_0
Time_Shift_6
Note_On_82_Vel_101
Note_On_61_Vel_101
Time_Shift_2
Note_On_87_Vel_0
Time_Shift_1
Note_On_58_Vel_99
Time_Shift_1
Note_On_79_Vel_94
Time_Shift_2
Note_On_87_Vel_78
Time_Shift_4
Note_On_78_Vel_78
Time_Shift_7
Note_On_78_Vel_0
Time_Shift_45
Note_On_80_Vel_0
Note_On_56_Vel_0
Time_Shift_2
Note_On_58_Vel_0
Note_On_55_Vel_0
Time_Shift_1
Note_On_79_Vel_0
Note_On_92_Vel_0
Note_On_59_Vel_0
Time_Shift_1
Note_On_83_Vel_0
Note_On_61_Vel_0
Note_On_91_Vel_0
Time_Shift_1
Note_On_82_Vel_0
Time_Shift_2
Sustain_Off
Time_Shift_2
Note_On_39_Vel_0
Time_Shift_15
Note_On_85_Vel_0
Note_On_88_Vel_0
Time_Shift_8
Note_On_87_Vel_0
Time_Shift_6
Note_On_75_Vel_96
Time_Shift_3
Note_On_87_Vel_88
Time_Shift_61
Note_On_87_Vel_0
Time_Shift_2
Note_On_75_Vel_0
Time_Shift_58
Note_On_83_Vel_96
Time_Shift_2
Note_On_80_Vel_100
Note_On_59_Vel_95
Time_Shift_2
Note_On_56_Vel_89
Time_Shift_38
Note_On_59_Vel_0
Time_Shift_1
Note_On_56_Vel_0
Time_Shift_61
Note_On_85_Vel_92
Note_On_82_Vel_95
Time_Shift_20
Note_On_83_Vel_0
Time_Shift_7
Note_On_80_Vel_0
Time_Shift_3
Note_On_85_Vel_0
Time_Shift_2
Note_On_82_Vel_0
Time_Shift_76
Note_On_83_Vel_98
Time_Shift_3
Note_On_87_Vel_96
Time_Shift_3
Note_On_44_Vel_92
Time_Shift_1
Note_On_32_Vel_88
Time_Shift_31
Note_On_83_Vel_0
Time_Shift_1
Note_On_32_Vel_0
Time_Shift_18
Sustain_On
Time_Shift_39
Note_On_87_Vel_0
Time_Shift_20
Note_On_46_Vel_91
Time_Shift_1
Note_On_34_Vel_77
Time_Shift_122
Note_On_34_Vel_0
Time_Shift_6
Note_On_46_Vel_0
Time_Shift_1
Note_On_47_Vel_97
Time_Shift_1
Note_On_80_Vel_99
Time_Shift_2
Note_On_77_Vel_94
Time_Shift_16
Note_On_44_Vel_0
Time_Shift_1
Sustain_Off
Time_Shift_13
Note_On_47_Vel_0
Time_Shift_2
Note_On_77_Vel_0
Time_Shift_30
Note_On_80_Vel_0
Time_Shift_35
Note_On_78_Vel_96
Note_On_82_Vel_93
Time_Shift_47
Note_On_78_Vel_0
Time_Shift_7
Note_On_82_Vel_0
Time_Shift_57
Note_On_83_Vel_103
Time_Shift_6
Note_On_38_Vel_91
Time_Shift_2
Note_On_80_Vel_82
Note_On_77_Vel_82
Note_On_50_Vel_95
Time_Shift_33
Note_On_50_Vel_0
Time_Shift_2
Note_On_83_Vel_0
Time_Shift_1
Note_On_38_Vel_0
Time_Shift_2
Sustain_On
Time_Shift_2
Note_On_80_Vel_0
Time_Shift_64
Note_On_39_Vel_90
Note_On_51_Vel_103
Time_Shift_118
Note_On_77_Vel_0
Time_Shift_5
Note_On_77_Vel_95
Note_On_53_Vel_103
Time_Shift_2
Note_On_41_Vel_91
Note_On_74_Vel_93
Time_Shift_29
Note_On_39_Vel_0
Sustain_Off
Time_Shift_1
Note_On_51_Vel_0
Time_Shift_1
Note_On_53_Vel_0
Time_Shift_2
Note_On_41_Vel_0
Time_Shift_4
Note_On_74_Vel_0
Time_Shift_33
Note_On_77_Vel_0
Time_Shift_33
Note_On_78_Vel_98
Time_Shift_2
Note_On_75_Vel_88
Time_Shift_28
Note_On_78_Vel_0
Time_Shift_29
Note_On_75_Vel_0
Time_Shift_51
Note_On_80_Vel_96
Time_Shift_2
Note_On_77_Vel_89
Time_Shift_1
Note_On_56_Vel_100
Time_Shift_3
Note_On_44_Vel_91
Time_Shift_2
Note_On_75_Vel_86
Time_Shift_22
Note_On_77_Vel_0
Time_Shift_12
Note_On_56_Vel_0
Time_Shift_3
Note_On_80_Vel_0
Time_Shift_50
Sustain_On
Time_Shift_11
Note_On_46_Vel_98
Note_On_58_Vel_96
Time_Shift_119
Note_On_59_Vel_106
Time_Shift_2
Note_On_71_Vel_100
Time_Shift_1
Note_On_74_Vel_104
Note_On_47_Vel_96
Time_Shift_1
Note_On_78_Vel_87
Time_Shift_27
Note_On_44_Vel_0
Time_Shift_12
Note_On_58_Vel_0
Note_On_46_Vel_0
Note_On_59_Vel_0
Time_Shift_1
Note_On_71_Vel_0
Time_Shift_2
Note_On_47_Vel_0
Time_Shift_1
Note_On_78_Vel_0
Sustain_Off
Time_Shift_2
Note_On_74_Vel_0
Time_Shift_5
Note_On_75_Vel_0
Time_Shift_51
Note_On_75_Vel_91
Time_Shift_1
Note_On_72_Vel_90
Time_Shift_38
Note_On_72_Vel_0
Time_Shift_6
Note_On_75_Vel_0
Time_Shift_70
Note_On_77_Vel_93
Time_Shift_2
Note_On_74_Vel_91
Note_On_50_Vel_94
Note_On_62_Vel_94
Time_Shift_32
Note_On_77_Vel_0
Time_Shift_2
Note_On_62_Vel_0
Note_On_50_Vel_0
Time_Shift_29
Note_On_74_Vel_0
Time_Shift_31
Sustain_On
Time_Shift_4
Note_On_51_Vel_97
Time_Shift_2
Note_On_63_Vel_97
Time_Shift_121
Note_On_65_Vel_92
Note_On_68_Vel_98
Time_Shift_3
Note_On_53_Vel_100
Time_Shift_3
Note_On_71_Vel_82
Note_On_72_Vel_87
Time_Shift_31
Note_On_63_Vel_0
Note_On_53_Vel_0
Time_Shift_1
Note_On_51_Vel_0
Time_Shift_1
Note_On_65_Vel_0
Note_On_68_Vel_0
Time_Shift_1
Note_On_72_Vel_0
Note_On_71_Vel_0
Time_Shift_1
Sustain_Off
Time_Shift_65
Note_On_73_Vel_90
Time_Shift_1
Note_On_70_Vel_88
Time_Shift_39
Note_On_70_Vel_0
Time_Shift_5
Note_On_73_Vel_0
Time_Shift_64
Note_On_74_Vel_90
Time_Shift_7
Note_On_71_Vel_84
Time_Shift_5
Note_On_56_Vel_89
Time_Shift_3
Note_On_44_Vel_88
Time_Shift_23
Note_On_74_Vel_0
Time_Shift_3
Note_On_71_Vel_0
Time_Shift_3
Note_On_56_Vel_0
Time_Shift_28
Sustain_On
Time_Shift_36
Note_On_58_Vel_95
Time_Shift_1
Note_On_46_Vel_94
Time_Shift_114
Note_On_77_Vel_90
Time_Shift_1
Note_On_68_Vel_99
Note_On_59_Vel_96
Time_Shift_2
Note_On_47_Vel_90
Note_On_65_Vel_95
Time_Shift_1
Note_On_73_Vel_83
Time_Shift_21
Note_On_58_Vel_0
Time_Shift_1
Note_On_44_Vel_0
Time_Shift_6
Sustain_Off
Time_Shift_4
Note_On_46_Vel_0
Time_Shift_2
Note_On_59_Vel_0
Time_Shift_5
Note_On_47_Vel_0
Time_Shift_2
Note_On_68_Vel_0
Note_On_65_Vel_0
Time_Shift_19
Note_On_77_Vel_0
Time_Shift_49
Note_On_66_Vel_89
Note_On_70_Vel_91
Time_Shift_101
Note_On_71_Vel_93
Time_Shift_1
Note_On_68_Vel_86
Note_On_53_Vel_92
Time_Shift_1
Note_On_41_Vel_92
Time_Shift_33
Note_On_66_Vel_0
Time_Shift_5
Note_On_71_Vel_0
Time_Shift_1
Note_On_70_Vel_0
Note_On_53_Vel_0
Note_On_68_Vel_0
Note_On_41_Vel_0
Time_Shift_1
Note_On_73_Vel_0
Time_Shift_46
Sustain_On
Time_Shift_18
Note_On_54_Vel_93
Time_Shift_2
Note_On_42_Vel_91
Time_Shift_6
Note_On_70_Vel_74
Time_Shift_113
Note_On_70_Vel_0
Time_Shift_2
Note_On_56_Vel_98
Time_Shift_1
Note_On_65_Vel_96
Note_On_62_Vel_93
Time_Shift_2
Note_On_44_Vel_95
Time_Shift_6
Note_On_70_Vel_76
Time_Shift_3
Note_On_42_Vel_0
Note_On_54_Vel_0
Time_Shift_4
Sustain_Off
Time_Shift_19
Note_On_56_Vel_0
Time_Shift_5
Note_On_62_Vel_0
Note_On_65_Vel_0
Time_Shift_34
Note_On_44_Vel_0
Time_Shift_23
Note_On_70_Vel_0
Time_Shift_6
Note_On_66_Vel_89
Time_Shift_4
Note_On_70_Vel_64
Time_Shift_1
Note_On_63_Vel_91
Time_Shift_108
Note_On_38_Vel_88
Time_Shift_2
Note_On_50_Vel_87
Note_On_68_Vel_93
Time_Shift_2
Note_On_65_Vel_84
Time_Shift_8
Note_On_63_Vel_0
Time_Shift_23
Sustain_On
Time_Shift_23
Note_On_66_Vel_0
Time_Shift_49
Note_On_39_Vel_84
Time_Shift_1
Note_On_51_Vel_94
Time_Shift_6
Note_On_63_Vel_96
Time_Shift_112
Note_On_53_Vel_97
Time_Shift_1
Note_On_41_Vel_92
Time_Shift_2
Note_On_62_Vel_90
Time_Shift_11
Note_On_39_Vel_0
Time_Shift_2
Sustain_Off
Note_On_38_Vel_0
Time_Shift_3
Note_On_51_Vel_0
Time_Shift_2
Note_On_50_Vel_0
Note_On_63_Vel_0
Note_On_65_Vel_0
Time_Shift_9
Note_On_53_Vel_0
Time_Shift_7
Note_On_41_Vel_0
Time_Shift_2
Note_On_68_Vel_0
Time_Shift_8
Note_On_70_Vel_0
Time_Shift_53
Note_On_58_Vel_91
Time_Shift_27
Note_On_68_Vel_46
Time_Shift_17
Note_On_58_Vel_0
Time_Shift_3
Note_On_62_Vel_0
Time_Shift_38
Note_On_68_Vel_0
Time_Shift_30
Note_On_46_Vel_93
Time_Shift_4
Note_On_34_Vel_91
Time_Shift_1
Note_On_70_Vel_95
Time_Shift_2
Note_On_62_Vel_87
Time_Shift_3
Note_On_68_Vel_76
Time_Shift_2
Note_On_65_Vel_78
Time_Shift_4
Note_On_65_Vel_0
Time_Shift_12
Note_On_46_Vel_0
Time_Shift_6
Note_On_34_Vel_0
Time_Shift_29
Note_On_68_Vel_0
Time_Shift_7
Note_On_62_Vel_0
Time_Shift_8
Note_On_70_Vel_0
Time_Shift_20
Note_On_68_Vel_83
Time_Shift_1
Note_On_65_Vel_82
Time_Shift_74
Note_On_65_Vel_0
Time_Shift_1
Note_On_68_Vel_0
Time_Shift_65
Note_On_66_Vel_76
Time_Shift_1
Note_On_70_Vel_66
Time_Shift_4
Note_On_39_Vel_77
Note_On_51_Vel_74
Time_Shift_1
Note_On_63_Vel_71
Time_Shift_33
Sustain_On
Time_Shift_53
Note_On_70_Vel_0
Time_Shift_7
Note_On_46_Vel_61
Time_Shift_4
Note_On_68_Vel_65
Note_On_65_Vel_68
Time_Shift_1
Note_On_70_Vel_61
Time_Shift_96
Note_On_70_Vel_0
Time_Shift_8
Note_On_51_Vel_0
Note_On_63_Vel_0
Note_On_66_Vel_0
Time_Shift_3
Note_On_70_Vel_82
Time_Shift_1
Note_On_63_Vel_87
Note_On_66_Vel_73
Note_On_51_Vel_87
Time_Shift_119
Note_On_49_Vel_88
Time_Shift_2
Note_On_61_Vel_86
Time_Shift_97
Note_On_68_Vel_0
Time_Shift_8
Note_On_68_Vel_87
Time_Shift_5
Note_On_47_Vel_88
Time_Shift_1
Note_On_71_Vel_77
Note_On_59_Vel_87
Time_Shift_3
Note_On_72_Vel_77
Time_Shift_33
Sustain_Off
Note_On_61_Vel_0
Note_On_46_Vel_0
Note_On_66_Vel_0
Note_On_70_Vel_0
Time_Shift_1
Note_On_68_Vel_0
Note_On_49_Vel_0
Note_On_51_Vel_0
Note_On_65_Vel_0
Note_On_63_Vel_0
Note_On_39_Vel_0
Time_Shift_49
Sustain_On
Time_Shift_11
Note_On_73_Vel_90
Time_Shift_1
Note_On_70_Vel_88
Time_Shift_6
Note_On_51_Vel_70
Time_Shift_5
Note_On_51_Vel_0
Time_Shift_92
Note_On_71_Vel_0
Time_Shift_4
Note_On_75_Vel_95
Note_On_71_Vel_94
Time_Shift_1
Note_On_56_Vel_100
Time_Shift_6
Note_On_44_Vel_87
Time_Shift_102
Note_On_54_Vel_94
Note_On_42_Vel_102
Time_Shift_18
Note_On_72_Vel_0
Time_Shift_31
Note_On_71_Vel_0
Time_Shift_4
Note_On_71_Vel_64
Time_Shift_7
Note_On_68_Vel_82
Time_Shift_50
Note_On_68_Vel_0
Time_Shift_4
Note_On_68_Vel_88
Time_Shift_7
Note_On_53_Vel_94
Time_Shift_5
Note_On_41_Vel_82
Time_Shift_11
Note_On_56_Vel_0
Time_Shift_1
Note_On_73_Vel_0
Time_Shift_1
Note_On_54_Vel_0
Note_On_44_Vel_0
Note_On_47_Vel_0
Note_On_75_Vel_0
Time_Shift_1
Sustain_Off
Note_On_70_Vel_0
Time_Shift_2
Note_On_59_Vel_0
Time_Shift_45
Note_On_41_Vel_0
Time_Shift_8
Sustain_On
Time_Shift_29
Note_On_70_Vel_84
Time_Shift_2
Note_On_66_Vel_87
Time_Shift_99
Note_On_53_Vel_0
Note_On_68_Vel_0
Note_On_71_Vel_0
Time_Shift_5
Note_On_68_Vel_92
Time_Shift_1
Note_On_71_Vel_89
Time_Shift_5
Note_On_53_Vel_92
Time_Shift_100
Note_On_63_Vel_98
Time_Shift_4
Note_On_51_Vel_89
Time_Shift_100
Note_On_70_Vel_0
Time_Shift_5
Note_On_49_Vel_97
Time_Shift_1
Note_On_61_Vel_101
Time_Shift_2
Note_On_70_Vel_96
Time_Shift_2
Note_On_73_Vel_96
Time_Shift_41
Note_On_66_Vel_0
Note_On_71_Vel_0
Time_Shift_1
Note_On_63_Vel_0
Time_Shift_1
Note_On_51_Vel_0
Time_Shift_1
Note_On_53_Vel_0
Time_Shift_5
Sustain_Off
Time_Shift_18
Note_On_42_Vel_0
Note_On_68_Vel_0
Time_Shift_8
Sustain_On
Time_Shift_15
Note_On_61_Vel_0
Time_Shift_13
Note_On_75_Vel_88
Time_Shift_4
Note_On_72_Vel_89
Time_Shift_98
Note_On_73_Vel_0
Time_Shift_11
Note_On_77_Vel_88
Time_Shift_1
Note_On_73_Vel_76
Time_Shift_2
Note_On_58_Vel_94
Time_Shift_2
Note_On_46_Vel_91
Time_Shift_105
Note_On_44_Vel_89
Note_On_56_Vel_98
Time_Shift_111
Note_On_66_Vel_94
Time_Shift_2
Sustain_Off
Note_On_54_Vel_91
Time_Shift_3
Note_On_42_Vel_95
Time_Shift_24
Sustain_On
Time_Shift_76
Note_On_68_Vel_88
Time_Shift_1
Note_On_71_Vel_89
Time_Shift_108
Note_On_73_Vel_0
Time_Shift_4
Note_On_73_Vel_95
Time_Shift_3
Note_On_54_Vel_0
Note_On_66_Vel_0
Note_On_70_Vel_0
Time_Shift_4
Note_On_70_Vel_80
Time_Shift_1
Note_On_66_Vel_93
Time_Shift_2
Note_On_54_Vel_86
Time_Shift_96
Note_On_53_Vel_93
Note_On_65_Vel_94
Time_Shift_2
Note_On_77_Vel_0
Time_Shift_110
Note_On_71_Vel_0
Note_On_75_Vel_0
Time_Shift_4
Sustain_Off
Time_Shift_5
Note_On_63_Vel_100
Time_Shift_2
Note_On_51_Vel_91
Note_On_75_Vel_97
Note_On_42_Vel_0
Note_On_56_Vel_0
Time_Shift_1
Note_On_71_Vel_91
Note_On_54_Vel_0
Note_On_68_Vel_0
Note_On_44_Vel_0
Note_On_53_Vel_0
Note_On_66_Vel_0
Note_On_72_Vel_0
Note_On_58_Vel_0
Note_On_70_Vel_0
Note_On_73_Vel_0
Time_Shift_1
Note_On_65_Vel_0
Note_On_46_Vel_0
Time_Shift_18
Note_On_49_Vel_0
Time_Shift_38
Sustain_On
Time_Shift_42
Note_On_73_Vel_92
Note_On_77_Vel_90
Time_Shift_104
Note_On_75_Vel_0
Time_Shift_8
Note_On_71_Vel_0
Time_Shift_2
Note_On_78_Vel_98
Time_Shift_1
Note_On_75_Vel_89
Time_Shift_4
Note_On_71_Vel_71
Time_Shift_2
Note_On_59_Vel_92
Time_Shift_2
Note_On_47_Vel_91
Time_Shift_100
Note_On_58_Vel_99
Time_Shift_1
Note_On_46_Vel_92
Time_Shift_103
Note_On_63_Vel_0
Time_Shift_3
Sustain_Off
Time_Shift_2
Note_On_75_Vel_0
Time_Shift_1
Note_On_71_Vel_0
Note_On_78_Vel_0
Note_On_47_Vel_0
Time_Shift_1
Note_On_73_Vel_0
Note_On_59_Vel_0
Time_Shift_1
Note_On_77_Vel_0
Note_On_58_Vel_0
Time_Shift_1
Note_On_51_Vel_0
Time_Shift_3
Note_On_44_Vel_89
Note_On_56_Vel_98
Time_Shift_1
Note_On_80_Vel_97
Time_Shift_2
Note_On_77_Vel_86
Time_Shift_16
Sustain_On
Time_Shift_87
Note_On_78_Vel_103
Time_Shift_2
Note_On_82_Vel_95
Time_Shift_7
Note_On_42_Vel_94
Note_On_54_Vel_96
Time_Shift_103
Note_On_83_Vel_101
Note_On_80_Vel_0
Time_Shift_5
Note_On_53_Vel_99
Note_On_80_Vel_90
Time_Shift_2
Note_On_41_Vel_90
Time_Shift_117
Note_On_79_Vel_100
Time_Shift_2
Note_On_76_Vel_83
Note_On_52_Vel_97
Time_Shift_1
Note_On_40_Vel_90
Time_Shift_104
Note_On_78_Vel_0
Time_Shift_5
Note_On_78_Vel_102
Time_Shift_8
Note_On_51_Vel_103
Time_Shift_3
Sustain_Off
Time_Shift_1
Note_On_77_Vel_0
Note_On_39_Vel_98
Time_Shift_1
Note_On_82_Vel_0
Time_Shift_1
Note_On_56_Vel_0
Note_On_40_Vel_0
Note_On_83_Vel_0
Note_On_53_Vel_0
Note_On_52_Vel_0
Note_On_41_Vel_0
Note_On_44_Vel_0
Note_On_42_Vel_0
Time_Shift_1
Note_On_79_Vel_0
Note_On_54_Vel_0
Time_Shift_3
Note_On_76_Vel_0
Time_Shift_15
Note_On_46_Vel_0
Time_Shift_39
Sustain_On
Time_Shift_37
Note_On_81_Vel_97
Time_Shift_128
Sustain_Off
Time_Shift_6
Note_On_81_Vel_0
Time_Shift_13
Note_On_51_Vel_0
Note_On_78_Vel_0
Note_On_80_Vel_0
Time_Shift_5
Note_On_84_Vel_97
Time_Shift_4
Note_On_80_Vel_91
Time_Shift_3
Note_On_50_Vel_98
Time_Shift_4
Note_On_72_Vel_90
Time_Shift_2
Note_On_38_Vel_87
Time_Shift_13
Sustain_On
Time_Shift_103
Note_On_78_Vel_98
Time_Shift_73
Note_On_39_Vel_0
Time_Shift_8
Note_On_80_Vel_0
Time_Shift_1
Note_On_50_Vel_0
Time_Shift_1
Note_On_84_Vel_0
Note_On_38_Vel_0
Time_Shift_2
Note_On_78_Vel_0
Sustain_Off
Time_Shift_4
Note_On_72_Vel_0
Time_Shift_43
Note_On_85_Vel_106
Note_On_77_Vel_104
Time_Shift_5
Note_On_73_Vel_100
Time_Shift_1
Note_On_37_Vel_91
Note_On_49_Vel_104
Time_Shift_12
Sustain_On
Time_Shift_109
Note_On_37_Vel_0
Note_On_49_Vel_0
Time_Shift_1
Sustain_Off
Note_On_85_Vel_0
Time_Shift_1
Note_On_77_Vel_0
Time_Shift_1
Note_On_73_Vel_0
Time_Shift_214
Note_On_61_Vel_105
Note_On_73_Vel_104
Time_Shift_4
Sustain_On
Time_Shift_266
Note_On_47_Vel_96
Time_Shift_1
Note_On_59_Vel_100
Time_Shift_25
Sustain_Off
Time_Shift_85
Sustain_On
Time_Shift_14
Note_On_75_Vel_81
Time_Shift_2
Note_On_63_Vel_87
Time_Shift_114
Note_On_76_Vel_87
Time_Shift_4
Note_On_64_Vel_76
Time_Shift_106
Note_On_77_Vel_93
Time_Shift_3
Note_On_65_Vel_93
Time_Shift_114
Note_On_46_Vel_91
Time_Shift_1
Note_On_58_Vel_92
Note_On_78_Vel_99
Time_Shift_1
Note_On_66_Vel_94
Time_Shift_114
Note_On_56_Vel_98
Note_On_80_Vel_97
Note_On_68_Vel_93
Time_Shift_1
Note_On_44_Vel_89
Time_Shift_105
Note_On_81_Vel_103
Time_Shift_2
Note_On_69_Vel_99
Time_Shift_1
Note_On_54_Vel_100
Time_Shift_2
Note_On_42_Vel_98
Time_Shift_108
Note_On_82_Vel_106
Time_Shift_2
Note_On_70_Vel_100
Time_Shift_7
Note_On_52_Vel_86
Time_Shift_2
Note_On_40_Vel_90
Time_Shift_95
Note_On_61_Vel_0
Time_Shift_5
Note_On_65_Vel_0
Time_Shift_1
Note_On_42_Vel_0
Note_On_44_Vel_0
Note_On_47_Vel_0
Time_Shift_1
Note_On_69_Vel_0
Note_On_77_Vel_0
Note_On_66_Vel_0
Note_On_59_Vel_0
Note_On_68_Vel_0
Note_On_56_Vel_0
Time_Shift_1
Sustain_Off
Note_On_58_Vel_0
Note_On_80_Vel_0
Note_On_63_Vel_0
Note_On_54_Vel_0
Note_On_46_Vel_0
Note_On_78_Vel_0
Note_On_64_Vel_0
Note_On_81_Vel_0
Time_Shift_1
Note_On_70_Vel_0
Note_On_76_Vel_0
Note_On_40_Vel_0
Time_Shift_1
Note_On_82_Vel_0
Note_On_52_Vel_0
Time_Shift_6
Note_On_75_Vel_0
Time_Shift_2
Note_On_63_Vel_104
Time_Shift_3
Note_On_75_Vel_94
Time_Shift_2
Note_On_73_Vel_0
Time_Shift_3
Note_On_51_Vel_100
Time_Shift_1
Note_On_39_Vel_89
Time_Shift_50
Sustain_On
Time_Shift_8
Note_On_63_Vel_0
Time_Shift_47
Note_On_77_Vel_93
Note_On_65_Vel_102
Time_Shift_113
Note_On_78_Vel_101
Time_Shift_3
Note_On_66_Vel_102
Time_Shift_57
Sustain_Off
Time_Shift_1
Note_On_65_Vel_0
Time_Shift_2
Note_On_75_Vel_0
Note_On_77_Vel_0
Note_On_66_Vel_0
Time_Shift_1
Note_On_78_Vel_0
Time_Shift_6
Note_On_39_Vel_0
Note_On_51_Vel_0
Time_Shift_39
Sustain_On
Time_Shift_7
Note_On_67_Vel_94
Time_Shift_3
Note_On_79_Vel_101
Note_On_61_Vel_97
Time_Shift_1
Note_On_49_Vel_90
Time_Shift_96
Note_On_67_Vel_0
Time_Shift_16
Note_On_68_Vel_99
Time_Shift_1
Note_On_80_Vel_98
Note_On_60_Vel_95
Time_Shift_1
Note_On_48_Vel_93
Time_Shift_21
Note_On_61_Vel_0
Time_Shift_4
Note_On_78_Vel_41
Time_Shift_83
Note_On_58_Vel_101
Note_On_82_Vel_103
Time_Shift_1
Note_On_46_Vel_95
Note_On_70_Vel_98
Time_Shift_113
Note_On_83_Vel_101
Time_Shift_3
Note_On_71_Vel_98
Time_Shift_2
Note_On_56_Vel_102
Time_Shift_3
Note_On_44_Vel_98
Time_Shift_107
Note_On_42_Vel_102
Time_Shift_1
Note_On_54_Vel_103
Note_On_72_Vel_104
Note_On_84_Vel_105
Time_Shift_101
Note_On_42_Vel_0
Note_On_68_Vel_0
Sustain_Off
Note_On_49_Vel_0
Note_On_48_Vel_0
Note_On_56_Vel_0
Time_Shift_1
Note_On_54_Vel_0
Note_On_71_Vel_0
Note_On_60_Vel_0
Note_On_58_Vel_0
Note_On_70_Vel_0
Note_On_79_Vel_0
Note_On_44_Vel_0
Note_On_83_Vel_0
Time_Shift_1
Note_On_82_Vel_0
Note_On_72_Vel_0
Note_On_46_Vel_0
Note_On_78_Vel_0
Time_Shift_1
Note_On_84_Vel_0
Time_Shift_16
Note_On_80_Vel_0
Time_Shift_4
Note_On_53_Vel_101
Time_Shift_1
Note_On_41_Vel_96
Note_On_65_Vel_102
Time_Shift_1
Note_On_77_Vel_97
Time_Shift_25
Sustain_On
Time_Shift_6
Note_On_53_Vel_0
Time_Shift_79
Note_On_41_Vel_0
Time_Shift_4
Note_On_79_Vel_99
Note_On_67_Vel_93
Time_Shift_4
Note_On_41_Vel_90
Time_Shift_1
Note_On_53_Vel_92
Time_Shift_94
Note_On_53_Vel_0
Time_Shift_1
Note_On_65_Vel_0
Note_On_79_Vel_0
Note_On_67_Vel_0
Time_Shift_1
Note_On_77_Vel_0
Time_Shift_13
Note_On_68_Vel_94
Note_On_80_Vel_98
Time_Shift_6
Sustain_Off
Time_Shift_45
Sustain_On
Time_Shift_23
Note_On_41_Vel_0
Time_Shift_31
Note_On_51_Vel_93
Note_On_63_Vel_99
Time_Shift_3
Note_On_81_Vel_99
Note_On_69_Vel_100
Time_Shift_27
Note_On_68_Vel_0
Time_Shift_88
Note_On_61_Vel_102
Time_Shift_1
Note_On_49_Vel_97
Time_Shift_1
Note_On_70_Vel_103
Time_Shift_3
Note_On_82_Vel_105
Time_Shift_42
Sustain_Off
Time_Shift_20
Note_On_63_Vel_0
Time_Shift_2
Note_On_81_Vel_0
Note_On_51_Vel_0
Note_On_49_Vel_0
Time_Shift_2
Note_On_61_Vel_0
Time_Shift_6
Note_On_70_Vel_0
Time_Shift_1
Note_On_82_Vel_0
Time_Shift_3
Note_On_69_Vel_0
Time_Shift_8
Note_On_80_Vel_0
Time_Shift_30
Note_On_58_Vel_101
Sustain_On
Time_Shift_1
Note_On_46_Vel_99
Time_Shift_136
Note_On_77_Vel_95
Note_On_85_Vel_101
Note_On_53_Vel_100
Note_On_41_Vel_97
Time_Shift_1
Note_On_73_Vel_105
Time_Shift_2
Note_On_82_Vel_100
Time_Shift_114
Note_On_73_Vel_0
Time_Shift_11
Note_On_73_Vel_93
Time_Shift_1
Note_On_49_Vel_102
Note_On_61_Vel_96
Time_Shift_2
Note_On_37_Vel_99
Time_Shift_124
Note_On_46_Vel_0
Time_Shift_5
Note_On_46_Vel_97
Time_Shift_3
Note_On_34_Vel_98
Time_Shift_7
Note_On_61_Vel_0
Time_Shift_1
Note_On_53_Vel_0
Note_On_41_Vel_0
Time_Shift_1
Note_On_49_Vel_0
Note_On_58_Vel_0
Time_Shift_1
Sustain_Off
Time_Shift_1
Note_On_37_Vel_0
Time_Shift_35
Note_On_73_Vel_0
Sustain_On
Time_Shift_92
Note_On_85_Vel_0
Time_Shift_11
Note_On_85_Vel_104
Time_Shift_1
Note_On_73_Vel_105
Time_Shift_131
Note_On_34_Vel_0
Time_Shift_1
Note_On_73_Vel_0
Time_Shift_1
Note_On_85_Vel_0
Time_Shift_3
Note_On_51_Vel_95
Time_Shift_2
Note_On_39_Vel_85
Note_On_84_Vel_101
Time_Shift_1
Note_On_78_Vel_92
Note_On_72_Vel_99
Time_Shift_10
Sustain_Off
Note_On_46_Vel_0
Note_On_77_Vel_0
Time_Shift_8
Note_On_82_Vel_0
Time_Shift_38
Sustain_On
Time_Shift_89
Note_On_82_Vel_104
Time_Shift_1
Note_On_52_Vel_87
Time_Shift_1
Note_On_40_Vel_88
Time_Shift_1
Note_On_79_Vel_92
Time_Shift_3
Note_On_70_Vel_86
Time_Shift_138
Note_On_39_Vel_0
Note_On_51_Vel_0
Note_On_72_Vel_0
Note_On_84_Vel_0
Time_Shift_1
Note_On_78_Vel_0
Note_On_82_Vel_0
Note_On_79_Vel_0
Note_On_52_Vel_0
Time_Shift_3
Sustain_Off
Time_Shift_1
Note_On_70_Vel_0
Time_Shift_47
Sustain_On
Time_Shift_2
Note_On_81_Vel_105
Time_Shift_1
Note_On_53_Vel_98
Note_On_41_Vel_85
Time_Shift_1
Note_On_77_Vel_96
Time_Shift_181
Sustain_Off
Time_Shift_4
Note_On_77_Vel_0
Time_Shift_3
Note_On_81_Vel_0
Note_On_53_Vel_0
Time_Shift_1
Note_On_40_Vel_0
Time_Shift_3
Note_On_41_Vel_0
Time_Shift_247
Note_On_77_Vel_66
Time_Shift_2
Sustain_On
Time_Shift_174
Note_On_78_Vel_80
Time_Shift_33
Sustain_Off
Time_Shift_9
Note_On_66_Vel_41
Time_Shift_60
Sustain_On
Time_Shift_73
Note_On_53_Vel_45
Time_Shift_1
Note_On_79_Vel_75
Time_Shift_31
Note_On_67_Vel_55
Time_Shift_124
Note_On_69_Vel_53
Time_Shift_2
Note_On_55_Vel_47
Time_Shift_125
Note_On_70_Vel_70
Time_Shift_1
Note_On_62_Vel_60
Time_Shift_12
Note_On_77_Vel_0
Time_Shift_111
Note_On_71_Vel_81
Note_On_59_Vel_65
Time_Shift_156
Note_On_72_Vel_71
Time_Shift_7
Note_On_51_Vel_60
Time_Shift_25
Note_On_67_Vel_0
Note_On_62_Vel_0
Time_Shift_1
Note_On_69_Vel_0
Note_On_55_Vel_0
Time_Shift_1
Note_On_70_Vel_0
Note_On_53_Vel_0
Time_Shift_1
Note_On_78_Vel_0
Note_On_79_Vel_0
Time_Shift_1
Note_On_59_Vel_0
Time_Shift_4
Sustain_Off
Note_On_66_Vel_0
Time_Shift_62
Sustain_On
Time_Shift_49
Note_On_55_Vel_64
Time_Shift_105
Note_On_63_Vel_66
Time_Shift_148
Note_On_67_Vel_63
Time_Shift_6
Note_On_60_Vel_60
Time_Shift_126
Note_On_50_Vel_61
Time_Shift_116
Note_On_83_Vel_83
Time_Shift_10
Note_On_71_Vel_0
Time_Shift_8
Note_On_55_Vel_0
Time_Shift_4
Note_On_71_Vel_67
Time_Shift_6
Note_On_55_Vel_52
Time_Shift_105
Note_On_72_Vel_0
Time_Shift_9
Note_On_84_Vel_78
Time_Shift_2
Note_On_72_Vel_75
Time_Shift_2
Note_On_65_Vel_60
Time_Shift_128
Note_On_86_Vel_80
Time_Shift_21
Note_On_59_Vel_61
Time_Shift_157
Note_On_63_Vel_0
Note_On_60_Vel_0
Note_On_72_Vel_0
Note_On_51_Vel_0
Note_On_65_Vel_0
Note_On_71_Vel_0
Note_On_83_Vel_0
Note_On_67_Vel_0
Time_Shift_1
Note_On_50_Vel_0
Note_On_55_Vel_0
Note_On_84_Vel_0
Sustain_Off
Time_Shift_2
Note_On_48_Vel_55
Note_On_59_Vel_0
Time_Shift_1
Note_On_86_Vel_0
Time_Shift_2
Note_On_87_Vel_74
Time_Shift_24
Note_On_75_Vel_49
Time_Shift_51
Sustain_On
Time_Shift_61
Note_On_55_Vel_56
Time_Shift_122
Note_On_63_Vel_60
Time_Shift_129
Note_On_60_Vel_58
Time_Shift_1
Note_On_78_Vel_80
Time_Shift_5
Note_On_66_Vel_66
Time_Shift_139
Note_On_77_Vel_79
Time_Shift_14
Note_On_51_Vel_56
Time_Shift_1
Note_On_65_Vel_57
Time_Shift_27
Note_On_48_Vel_0
Time_Shift_1
Note_On_63_Vel_0
Time_Shift_3
Note_On_66_Vel_0
Time_Shift_19
Note_On_87_Vel_0
Time_Shift_23
Note_On_75_Vel_0
Time_Shift_36
Note_On_67_Vel_69
Time_Shift_13
Note_On_53_Vel_63
Time_Shift_112
Note_On_60_Vel_0
Time_Shift_1
Note_On_68_Vel_77
Time_Shift_7
Note_On_60_Vel_65
Time_Shift_13
Note_On_66_Vel_50
Time_Shift_100
Note_On_57_Vel_67
Time_Shift_5
Note_On_69_Vel_78
Time_Shift_162
Note_On_70_Vel_71
Time_Shift_7
Note_On_49_Vel_63
Time_Shift_35
Note_On_78_Vel_0
Time_Shift_5
Note_On_60_Vel_0
Note_On_53_Vel_0
Time_Shift_1
Note_On_51_Vel_0
Note_On_69_Vel_0
Note_On_77_Vel_0
Time_Shift_2
Note_On_66_Vel_0
Note_On_67_Vel_0
Time_Shift_1
Note_On_68_Vel_0
Note_On_57_Vel_0
Time_Shift_1
Sustain_Off
Note_On_55_Vel_0
Time_Shift_13
Note_On_65_Vel_0
Time_Shift_16
Sustain_On
Time_Shift_34
Note_On_53_Vel_59
Time_Shift_138
Note_On_61_Vel_72
Time_Shift_130
Note_On_58_Vel_61
Time_Shift_2
Note_On_65_Vel_69
Time_Shift_29
Sustain_Off
Time_Shift_7
Note_On_61_Vel_0
Time_Shift_1
Note_On_49_Vel_0
Time_Shift_1
Note_On_53_Vel_0
Time_Shift_1
Note_On_70_Vel_0
Time_Shift_15
Note_On_58_Vel_0
Time_Shift_33
Sustain_On
Time_Shift_39
Note_On_48_Vel_64
Time_Shift_158
Note_On_81_Vel_74
Time_Shift_6
Note_On_53_Vel_58
Time_Shift_1
Note_On_69_Vel_60
Time_Shift_108
Note_On_63_Vel_68
Time_Shift_18
Note_On_82_Vel_87
Time_Shift_7
Note_On_70_Vel_71
Time_Shift_114
Note_On_57_Vel_67
Time_Shift_16
Note_On_84_Vel_84
Time_Shift_28
Note_On_72_Vel_66
Time_Shift_150
Note_On_85_Vel_70
Time_Shift_1
Note_On_82_Vel_0
Time_Shift_1
Note_On_46_Vel_56
Time_Shift_2
Note_On_73_Vel_65
Note_On_82_Vel_63
Time_Shift_11
Sustain_Off
Time_Shift_9
Note_On_65_Vel_0
Time_Shift_4
Note_On_48_Vel_0
Time_Shift_1
Note_On_63_Vel_0
Note_On_53_Vel_0
Time_Shift_5
Note_On_69_Vel_0
Time_Shift_1
Note_On_70_Vel_0
Note_On_57_Vel_0
Time_Shift_1
Note_On_84_Vel_0
Time_Shift_1
Note_On_81_Vel_0
Time_Shift_1
Note_On_72_Vel_0
Time_Shift_62
Sustain_On
Time_Shift_27
Note_On_53_Vel_55
Time_Shift_39
Note_On_46_Vel_0
Time_Shift_50
Note_On_82_Vel_0
Time_Shift_63
Note_On_61_Vel_60
Time_Shift_144
Note_On_85_Vel_0
Time_Shift_5
Note_On_58_Vel_62
Time_Shift_3
Note_On_73_Vel_0
Time_Shift_3
Note_On_85_Vel_65
Time_Shift_1
Note_On_73_Vel_59
Time_Shift_119
Note_On_85_Vel_0
Time_Shift_6
Note_On_85_Vel_74
Time_Shift_1
Note_On_73_Vel_0
Time_Shift_5
Note_On_73_Vel_69
Time_Shift_22
Note_On_47_Vel_50
Time_Shift_111
Note_On_85_Vel_0
Time_Shift_5
Note_On_85_Vel_60
Time_Shift_3
Note_On_73_Vel_0
Time_Shift_2
Note_On_77_Vel_63
Time_Shift_2
Note_On_73_Vel_52
Time_Shift_1
Note_On_49_Vel_59
Time_Shift_118
Note_On_73_Vel_0
Note_On_85_Vel_0
Time_Shift_5
Note_On_78_Vel_74
Time_Shift_1
Note_On_56_Vel_61
Time_Shift_5
Note_On_85_Vel_70
Note_On_73_Vel_68
Time_Shift_112
Note_On_53_Vel_0
Time_Shift_5
Note_On_49_Vel_0
Time_Shift_5
Note_On_53_Vel_58
Time_Shift_5
Note_On_73_Vel_0
Note_On_78_Vel_0
Note_On_85_Vel_0
Time_Shift_2
Note_On_80_Vel_80
Time_Shift_3
Note_On_85_Vel_59
Time_Shift_6
Note_On_73_Vel_61
Time_Shift_1
Note_On_78_Vel_65
Time_Shift_134
Note_On_85_Vel_0
Time_Shift_5
Note_On_82_Vel_77
Time_Shift_5
Note_On_85_Vel_67
Time_Shift_6
Note_On_73_Vel_0
Time_Shift_4
Note_On_46_Vel_61
Time_Shift_5
Note_On_73_Vel_55
Time_Shift_41
Note_On_47_Vel_0
Note_On_53_Vel_0
Time_Shift_1
Note_On_77_Vel_0
Note_On_78_Vel_0
Note_On_56_Vel_0
Time_Shift_1
Note_On_58_Vel_0
Note_On_80_Vel_0
Time_Shift_7
Sustain_Off
Time_Shift_2
Note_On_61_Vel_0
Time_Shift_38
Sustain_On
Time_Shift_34
Note_On_49_Vel_61
Time_Shift_128
Note_On_58_Vel_59
Time_Shift_107
Note_On_85_Vel_0
Time_Shift_10
Note_On_85_Vel_79
Time_Shift_7
Note_On_54_Vel_59
Time_Shift_6
Note_On_73_Vel_0
Time_Shift_6
Note_On_73_Vel_57
Time_Shift_117
Note_On_73_Vel_0
Note_On_85_Vel_0
Time_Shift_6
Note_On_85_Vel_81
Time_Shift_5
Note_On_73_Vel_73
Time_Shift_10
Note_On_44_Vel_54
Time_Shift_25
Note_On_46_Vel_0
Time_Shift_92
Note_On_49_Vel_0
Time_Shift_6
Note_On_89_Vel_78
Time_Shift_5
Note_On_49_Vel_53
Time_Shift_1
Note_On_77_Vel_64
Time_Shift_111
Note_On_58_Vel_0
Time_Shift_4
Note_On_90_Vel_89
Time_Shift_4
Note_On_85_Vel_0
Time_Shift_4
Note_On_78_Vel_71
Note_On_85_Vel_70
Time_Shift_8
Note_On_59_Vel_61
Time_Shift_118
Note_On_85_Vel_0
Time_Shift_4
Note_On_92_Vel_86
Note_On_85_Vel_69
Time_Shift_8
Note_On_80_Vel_71
Time_Shift_13
Note_On_53_Vel_58
Time_Shift_124
Note_On_93_Vel_84
Time_Shift_8
Note_On_81_Vel_70
Time_Shift_51
Note_On_82_Vel_0
Time_Shift_2
Note_On_42_Vel_58
Time_Shift_9
Note_On_59_Vel_0
Note_On_49_Vel_0
Note_On_78_Vel_0
Note_On_44_Vel_0
Note_On_80_Vel_0
Note_On_77_Vel_0
Note_On_90_Vel_0
Sustain_Off
Note_On_89_Vel_0
Time_Shift_1
Note_On_73_Vel_0
Note_On_54_Vel_0
Note_On_53_Vel_0
Time_Shift_65
Note_On_92_Vel_0
Sustain_On
Time_Shift_10
Note_On_92_Vel_60
Time_Shift_45
Note_On_49_Vel_49
Time_Shift_135
Note_On_57_Vel_56
Time_Shift_117
Note_On_81_Vel_0
Note_On_93_Vel_0
Time_Shift_4
Note_On_54_Vel_64
Time_Shift_3
Note_On_81_Vel_65
Time_Shift_2
Note_On_93_Vel_61
Time_Shift_137
Note_On_81_Vel_0
Time_Shift_10
Note_On_81_Vel_71
Time_Shift_8
Note_On_49_Vel_0
Time_Shift_1
Note_On_57_Vel_0
Time_Shift_1
Note_On_54_Vel_0
Time_Shift_7
Sustain_Off
Time_Shift_3
Note_On_42_Vel_0
Note_On_85_Vel_0
Note_On_92_Vel_0
Time_Shift_7
Note_On_55_Vel_52
Time_Shift_47
Sustain_On
Time_Shift_62
Note_On_93_Vel_0
Time_Shift_4
Note_On_85_Vel_75
Time_Shift_5
Note_On_93_Vel_67
Time_Shift_32
Note_On_57_Vel_47
Time_Shift_109
Note_On_86_Vel_75
Time_Shift_11
Note_On_81_Vel_0
Time_Shift_7
Note_On_81_Vel_50
Time_Shift_9
Note_On_64_Vel_37
Time_Shift_122
Note_On_93_Vel_0
Time_Shift_12
Note_On_88_Vel_69
Time_Shift_3
Note_On_61_Vel_54
Time_Shift_175
Note_On_90_Vel_62
Time_Shift_25
Note_On_86_Vel_0
Time_Shift_3
Note_On_54_Vel_50
Time_Shift_1
Note_On_86_Vel_41
Time_Shift_47
Sustain_Off
Time_Shift_15
Note_On_57_Vel_0
Time_Shift_1
Note_On_61_Vel_0
Note_On_55_Vel_0
Note_On_81_Vel_0
Time_Shift_1
Note_On_85_Vel_0
Note_On_64_Vel_0
Note_On_88_Vel_0
Time_Shift_86
Note_On_86_Vel_0
Sustain_On
Time_Shift_11
Note_On_57_Vel_52
Time_Shift_159
Note_On_63_Vel_55
Time_Shift_145
Note_On_75_Vel_62
Time_Shift_34
Note_On_60_Vel_41
Time_Shift_106
Note_On_81_Vel_74
Time_Shift_6
Note_On_90_Vel_0
Time_Shift_21
Note_On_53_Vel_59
Time_Shift_17
Note_On_54_Vel_0
Time_Shift_95
Note_On_84_Vel_87
Time_Shift_5
Note_On_57_Vel_0
Time_Shift_4
Note_On_57_Vel_61
Time_Shift_134
Note_On_63_Vel_0
Time_Shift_4
Note_On_87_Vel_92
Time_Shift_1
Note_On_63_Vel_68
Time_Shift_149
Note_On_60_Vel_0
Time_Shift_2
Note_On_93_Vel_96
Time_Shift_2
Note_On_60_Vel_66
Time_Shift_195
Note_On_94_Vel_103
Time_Shift_8
Note_On_53_Vel_0
Time_Shift_4
Note_On_53_Vel_73
Note_On_82_Vel_86
Time_Shift_2
Note_On_86_Vel_80
Time_Shift_7
Note_On_75_Vel_0
Note_On_63_Vel_0
Time_Shift_1
Note_On_87_Vel_0
Time_Shift_2
Note_On_57_Vel_0
Note_On_60_Vel_0
Time_Shift_1
Note_On_84_Vel_0
Time_Shift_1
Note_On_81_Vel_0
Note_On_93_Vel_0
Time_Shift_19
Sustain_Off
Time_Shift_17
Sustain_On
Time_Shift_158
Note_On_87_Vel_78
Time_Shift_7
Note_On_62_Vel_64
Time_Shift_3
Note_On_84_Vel_74
Time_Shift_141
Note_On_67_Vel_64
Time_Shift_8
Note_On_85_Vel_81
Note_On_88_Vel_79
Time_Shift_124
Note_On_65_Vel_73
Time_Shift_5
Note_On_89_Vel_79
Time_Shift_7
Note_On_86_Vel_0
Time_Shift_10
Note_On_86_Vel_81
Time_Shift_121
Note_On_53_Vel_0
Note_On_87_Vel_0
Time_Shift_10
Note_On_53_Vel_66
Note_On_87_Vel_85
Time_Shift_116
Note_On_93_Vel_94
Time_Shift_52
Note_On_60_Vel_41
Time_Shift_52
Note_On_93_Vel_0
Time_Shift_7
Note_On_93_Vel_95
Time_Shift_24
Note_On_62_Vel_0
Note_On_87_Vel_0
Time_Shift_8
Note_On_62_Vel_76
Time_Shift_2
Note_On_87_Vel_86
Time_Shift_1
Note_On_91_Vel_89
Time_Shift_104
Note_On_89_Vel_0
Time_Shift_8
Note_On_89_Vel_99
Time_Shift_12
Note_On_63_Vel_84
Time_Shift_141
Note_On_92_Vel_96
Time_Shift_12
Note_On_46_Vel_74
Time_Shift_3
Note_On_82_Vel_0
Time_Shift_9
Note_On_91_Vel_0
Note_On_62_Vel_0
Note_On_86_Vel_0
Time_Shift_1
Note_On_67_Vel_0
Note_On_89_Vel_0
Note_On_63_Vel_0
Note_On_93_Vel_0
Note_On_85_Vel_0
Note_On_84_Vel_0
Note_On_88_Vel_0
Note_On_65_Vel_0
Note_On_60_Vel_0
Time_Shift_1
Note_On_53_Vel_0
Note_On_87_Vel_0
Note_On_94_Vel_0
Time_Shift_1
Sustain_Off
Time_Shift_42
Sustain_On
Time_Shift_64
Note_On_86_Vel_86
Time_Shift_18
Note_On_53_Vel_71
Time_Shift_80
Note_On_86_Vel_0
Time_Shift_10
Note_On_86_Vel_86
Time_Shift_43
Note_On_92_Vel_0
Time_Shift_10
Note_On_92_Vel_97
Time_Shift_2
Note_On_63_Vel_75
Time_Shift_22
Note_On_84_Vel_79
Time_Shift_109
Note_On_62_Vel_69
Time_Shift_8
Note_On_82_Vel_73
Time_Shift_149
Note_On_51_Vel_67
Time_Shift_16
Sustain_Off
Note_On_86_Vel_0
Time_Shift_1
Note_On_46_Vel_0
Note_On_85_Vel_72
Time_Shift_1
Note_On_62_Vel_0
Note_On_63_Vel_0
Time_Shift_1
Note_On_84_Vel_0
Note_On_82_Vel_0
Time_Shift_19
Note_On_92_Vel_0
Time_Shift_16
Sustain_On
Time_Shift_72
Note_On_58_Vel_69
Time_Shift_1
Note_On_91_Vel_88
Time_Shift_96
Note_On_91_Vel_0
Time_Shift_8
Note_On_91_Vel_96
Time_Shift_26
Note_On_60_Vel_71
Time_Shift_12
Note_On_85_Vel_0
Time_Shift_3
Note_On_89_Vel_93
Time_Shift_2
Note_On_85_Vel_81
Time_Shift_109
Note_On_61_Vel_80
Time_Shift_2
Note_On_87_Vel_98
Time_Shift_150
Note_On_90_Vel_95
Time_Shift_14
Note_On_44_Vel_67
Time_Shift_4
Note_On_58_Vel_0
Time_Shift_2
Note_On_91_Vel_0
Note_On_51_Vel_0
Note_On_85_Vel_0
Time_Shift_1
Sustain_Off
Note_On_89_Vel_0
Note_On_87_Vel_0
Note_On_61_Vel_0
Time_Shift_1
Note_On_60_Vel_0
Time_Shift_3
Note_On_53_Vel_0
Time_Shift_47
Sustain_On
Time_Shift_59
Note_On_84_Vel_82
Time_Shift_24
Note_On_51_Vel_63
Time_Shift_70
Note_On_84_Vel_0
Time_Shift_5
Note_On_84_Vel_87
Time_Shift_49
Note_On_90_Vel_0
Time_Shift_8
Note_On_90_Vel_98
Time_Shift_4
Note_On_61_Vel_75
Time_Shift_3
Note_On_82_Vel_88
Time_Shift_134
Note_On_80_Vel_64
Time_Shift_6
Note_On_60_Vel_64
Time_Shift_125
Note_On_61_Vel_0
Note_On_82_Vel_0
Sustain_Off
Note_On_84_Vel_0
Note_On_51_Vel_0
Note_On_60_Vel_0
Time_Shift_1
Note_On_44_Vel_0
Time_Shift_13
Note_On_83_Vel_74
Time_Shift_11
Note_On_49_Vel_62
Time_Shift_25
Sustain_On
Time_Shift_85
Note_On_80_Vel_0
Time_Shift_15
Note_On_89_Vel_93
Time_Shift_1
Note_On_56_Vel_65
Time_Shift_99
Note_On_89_Vel_0
Time_Shift_10
Note_On_89_Vel_95
Time_Shift_28
Note_On_83_Vel_0
Time_Shift_2
Note_On_58_Vel_66
Time_Shift_8
Note_On_87_Vel_83
Time_Shift_1
Note_On_83_Vel_77
Time_Shift_112
Note_On_59_Vel_70
Time_Shift_4
Note_On_85_Vel_94
Time_Shift_108
Note_On_83_Vel_0
Note_On_59_Vel_0
Time_Shift_1
Note_On_58_Vel_0
Note_On_89_Vel_0
Time_Shift_1
Note_On_56_Vel_0
Note_On_87_Vel_0
Time_Shift_1
Note_On_49_Vel_0
Time_Shift_4
Sustain_Off
Time_Shift_4
Note_On_90_Vel_0
Time_Shift_31
Sustain_On
Time_Shift_3
Note_On_88_Vel_93
Time_Shift_2
Note_On_42_Vel_67
Time_Shift_136
Note_On_82_Vel_86
Time_Shift_14
Note_On_54_Vel_68
Time_Shift_31
Sustain_Off
Time_Shift_13
Sustain_On
Time_Shift_96
Note_On_58_Vel_69
Time_Shift_127
Note_On_75_Vel_79
Time_Shift_10
Note_On_60_Vel_66
Time_Shift_107
Note_On_88_Vel_0
Time_Shift_1
Note_On_58_Vel_0
Time_Shift_1
Note_On_60_Vel_0
Note_On_75_Vel_0
Note_On_54_Vel_0
Time_Shift_3
Sustain_Off
Time_Shift_1
Note_On_85_Vel_0
Time_Shift_7
Note_On_85_Vel_87
Time_Shift_1
Note_On_82_Vel_0
Time_Shift_4
Note_On_76_Vel_76
Time_Shift_1
Note_On_82_Vel_79
Time_Shift_1
Note_On_61_Vel_70
Time_Shift_9
Note_On_42_Vel_0
Time_Shift_37
Note_On_76_Vel_0
Time_Shift_87
Note_On_73_Vel_73
Time_Shift_3
Note_On_63_Vel_72
Time_Shift_13
Note_On_61_Vel_0
Time_Shift_1
Note_On_82_Vel_0
Time_Shift_6
Note_On_85_Vel_0
Time_Shift_91
Note_On_73_Vel_0
Time_Shift_8
Note_On_63_Vel_0
Time_Shift_16
Note_On_82_Vel_81
Time_Shift_3
Note_On_64_Vel_72
Time_Shift_2
Note_On_73_Vel_67
Time_Shift_33
Note_On_64_Vel_0
Time_Shift_3
Note_On_73_Vel_0
Time_Shift_13
Note_On_82_Vel_0
Time_Shift_77
Note_On_70_Vel_64
Time_Shift_1
Note_On_63_Vel_51
Time_Shift_40
Note_On_70_Vel_0
Time_Shift_34
Note_On_63_Vel_0
Time_Shift_58
Note_On_77_Vel_74
Time_Shift_7
Note_On_29_Vel_59
Time_Shift_1
Note_On_41_Vel_59
Time_Shift_7
Note_On_72_Vel_58
Time_Shift_28
Note_On_41_Vel_0
Time_Shift_105
Note_On_30_Vel_68
Time_Shift_2
Note_On_29_Vel_0
Time_Shift_15
Note_On_72_Vel_0
Time_Shift_8
Note_On_77_Vel_0
Time_Shift_100
Note_On_30_Vel_0
Time_Shift_12
Note_On_31_Vel_61
Time_Shift_9
Note_On_43_Vel_64
Time_Shift_25
Sustain_On
Time_Shift_31
Sustain_Off
Time_Shift_84
Sustain_On
Time_Shift_2
Note_On_32_Vel_61
Time_Shift_2
Note_On_44_Vel_62
Time_Shift_124
Note_On_32_Vel_0
Time_Shift_2
Note_On_31_Vel_0
Time_Shift_2
Note_On_44_Vel_0
Time_Shift_8
Note_On_65_Vel_69
Time_Shift_6
Note_On_43_Vel_0
Time_Shift_3
Sustain_Off
Time_Shift_1
Note_On_60_Vel_54
Note_On_45_Vel_62
Note_On_53_Vel_58
Time_Shift_1
Note_On_33_Vel_63
Time_Shift_79
Sustain_On
Time_Shift_59
Note_On_66_Vel_79
Time_Shift_7
Note_On_54_Vel_69
Time_Shift_27
Note_On_53_Vel_0
Time_Shift_92
Note_On_66_Vel_0
Time_Shift_2
Note_On_54_Vel_0
Time_Shift_1
Note_On_60_Vel_0
Time_Shift_4
Sustain_Off
Note_On_33_Vel_0
Note_On_45_Vel_0
Note_On_65_Vel_0
Time_Shift_5
Note_On_65_Vel_78
Time_Shift_4
Note_On_45_Vel_65
Time_Shift_2
Note_On_33_Vel_68
Note_On_53_Vel_71
Time_Shift_66
Sustain_On
Time_Shift_52
Note_On_64_Vel_78
Time_Shift_125
Note_On_53_Vel_0
Time_Shift_8
Note_On_53_Vel_61
Time_Shift_14
Note_On_58_Vel_70
Time_Shift_5
Note_On_34_Vel_60
Time_Shift_1
Note_On_46_Vel_65
Time_Shift_18
Note_On_33_Vel_0
Note_On_45_Vel_0
Time_Shift_1
Note_On_64_Vel_0
Time_Shift_1
Note_On_65_Vel_0
Time_Shift_3
Note_On_63_Vel_88
Time_Shift_10
Sustain_Off
Time_Shift_54
Note_On_46_Vel_0
Time_Shift_15
Note_On_53_Vel_0
Time_Shift_8
Sustain_On
Time_Shift_23
Note_On_34_Vel_0
Time_Shift_20
Note_On_48_Vel_71
Time_Shift_4
Note_On_36_Vel_63
Time_Shift_156
Note_On_37_Vel_74
Time_Shift_1
Note_On_49_Vel_75
Note_On_61_Vel_85
Time_Shift_17
Sustain_Off
Time_Shift_6
Note_On_48_Vel_0
Time_Shift_27
Note_On_36_Vel_0
Time_Shift_69
Sustain_On
Time_Shift_19
Note_On_39_Vel_70
Note_On_51_Vel_78
Time_Shift_131
Sustain_Off
Time_Shift_5
Note_On_63_Vel_0
Note_On_58_Vel_0
Note_On_51_Vel_0
Time_Shift_1
Note_On_49_Vel_0
Note_On_37_Vel_0
Note_On_61_Vel_0
Time_Shift_1
Note_On_39_Vel_0
Time_Shift_13
Note_On_60_Vel_71
Time_Shift_2
Note_On_40_Vel_70
Note_On_52_Vel_66
Time_Shift_1
Note_On_55_Vel_58
Time_Shift_80
Sustain_On
Time_Shift_55
Note_On_61_Vel_81
Time_Shift_125
Note_On_61_Vel_0
Note_On_55_Vel_0
Time_Shift_4
Sustain_Off
Time_Shift_16
Note_On_40_Vel_0
Note_On_52_Vel_0
Note_On_60_Vel_0
Time_Shift_7
Note_On_40_Vel_62
Time_Shift_2
Note_On_52_Vel_65
Time_Shift_1
Note_On_60_Vel_77
Time_Shift_59
Sustain_On
Time_Shift_66
Note_On_58_Vel_76
Time_Shift_124
Note_On_60_Vel_0
Time_Shift_5
Note_On_52_Vel_0
Note_On_40_Vel_0
Time_Shift_1
Note_On_41_Vel_65
Note_On_57_Vel_78
Note_On_53_Vel_65
Time_Shift_5
Note_On_58_Vel_0
Time_Shift_17
Sustain_Off
Time_Shift_28
Note_On_57_Vel_0
Time_Shift_84
Note_On_53_Vel_0
Time_Shift_9
Note_On_54_Vel_80
Note_On_42_Vel_74
Time_Shift_14
Note_On_41_Vel_0
Time_Shift_62
Sustain_On
Time_Shift_62
Note_On_55_Vel_78
Time_Shift_2
Note_On_43_Vel_73
Time_Shift_133
Note_On_56_Vel_77
Note_On_44_Vel_75
Time_Shift_131
Note_On_42_Vel_0
Time_Shift_1
Note_On_54_Vel_0
Time_Shift_1
Note_On_56_Vel_0
Note_On_55_Vel_0
Time_Shift_1
Note_On_43_Vel_0
Note_On_44_Vel_0
Time_Shift_3
Sustain_Off
Time_Shift_8
Note_On_77_Vel_78
Time_Shift_5
Note_On_72_Vel_74
Time_Shift_2
Note_On_65_Vel_72
Time_Shift_1
Note_On_57_Vel_67
Time_Shift_6
Note_On_45_Vel_71
Time_Shift_35
Sustain_On
Time_Shift_4
Note_On_65_Vel_0
Time_Shift_92
Note_On_78_Vel_96
Time_Shift_7
Note_On_66_Vel_77
Time_Shift_128
Note_On_77_Vel_0
Time_Shift_4
Note_On_77_Vel_92
Time_Shift_3
Note_On_57_Vel_0
Time_Shift_8
Note_On_45_Vel_0
Time_Shift_3
Note_On_65_Vel_83
Time_Shift_1
Note_On_57_Vel_77
Time_Shift_6
Note_On_45_Vel_66
Note_On_78_Vel_0
Time_Shift_1
Note_On_66_Vel_0
Time_Shift_12
Sustain_Off
Time_Shift_85
Sustain_On
Time_Shift_18
Note_On_76_Vel_89
Time_Shift_112
Note_On_65_Vel_0
Time_Shift_5
Note_On_65_Vel_79
Time_Shift_13
Note_On_70_Vel_65
Time_Shift_45
Note_On_58_Vel_67
Time_Shift_1
Note_On_46_Vel_63
Time_Shift_22
Note_On_75_Vel_87
Time_Shift_38
Sustain_Off
Time_Shift_1
Note_On_76_Vel_0
Time_Shift_1
Note_On_45_Vel_0
Time_Shift_5
Note_On_72_Vel_0
Time_Shift_7
Note_On_57_Vel_0
Time_Shift_8
Note_On_77_Vel_0
Time_Shift_69
Sustain_On
Time_Shift_29
Note_On_48_Vel_70
Time_Shift_2
Note_On_70_Vel_0
Time_Shift_1
Note_On_60_Vel_60
Time_Shift_5
Note_On_70_Vel_54
Time_Shift_135
Note_On_73_Vel_83
Time_Shift_2
Note_On_61_Vel_78
Time_Shift_1
Note_On_49_Vel_74
Time_Shift_92
Note_On_48_Vel_0
Time_Shift_5
Note_On_75_Vel_0
Time_Shift_8
Sustain_Off
Time_Shift_4
Note_On_60_Vel_0
Time_Shift_31
Sustain_On
Time_Shift_2
Note_On_63_Vel_77
Time_Shift_9
Note_On_51_Vel_65
Time_Shift_4
Note_On_46_Vel_0
Time_Shift_131
Note_On_65_Vel_0
Time_Shift_4
Note_On_52_Vel_67
Note_On_72_Vel_76
Time_Shift_2
Note_On_67_Vel_66
Time_Shift_8
Note_On_73_Vel_0
Time_Shift_3
Note_On_63_Vel_0
Time_Shift_1
Note_On_51_Vel_0
Time_Shift_1
Note_On_70_Vel_0
Time_Shift_4
Note_On_49_Vel_0
Note_On_58_Vel_0
Time_Shift_2
Sustain_Off
Time_Shift_6
Note_On_61_Vel_0
Time_Shift_69
Sustain_On
Time_Shift_38
Note_On_73_Vel_80
Time_Shift_146
Note_On_52_Vel_0
Note_On_72_Vel_0
Time_Shift_4
Note_On_72_Vel_81
Sustain_Off
Time_Shift_2
Note_On_67_Vel_0
Time_Shift_5
Note_On_52_Vel_57
Time_Shift_1
Note_On_64_Vel_64
Time_Shift_50
Sustain_On
Time_Shift_87
Note_On_70_Vel_78
Time_Shift_115
Note_On_73_Vel_0
Time_Shift_1
Note_On_64_Vel_0
Note_On_52_Vel_0
Time_Shift_1
Note_On_70_Vel_0
Time_Shift_7
Sustain_Off
Time_Shift_27
Note_On_72_Vel_0
Time_Shift_2
Note_On_69_Vel_72
Time_Shift_2
Note_On_53_Vel_63
Note_On_65_Vel_59
Time_Shift_5
Note_On_72_Vel_61
Time_Shift_27
Note_On_65_Vel_0
Time_Shift_3
Note_On_53_Vel_0
Time_Shift_1
Note_On_69_Vel_0
Time_Shift_93
Note_On_70_Vel_82
Time_Shift_1
Note_On_67_Vel_68
Time_Shift_39
Note_On_67_Vel_0
Time_Shift_99
Note_On_41_Vel_58
Time_Shift_8
Note_On_71_Vel_78
Time_Shift_9
Note_On_68_Vel_71
Time_Shift_56
Note_On_72_Vel_0
Time_Shift_23
Sustain_On
Time_Shift_43
Note_On_72_Vel_81
Time_Shift_2
Note_On_69_Vel_67
Time_Shift_155
Note_On_70_Vel_0
Time_Shift_1
Note_On_73_Vel_83
Time_Shift_1
Sustain_Off
Time_Shift_1
Note_On_53_Vel_61
Time_Shift_2
Note_On_70_Vel_73
Time_Shift_5
Note_On_41_Vel_0
Time_Shift_2
Note_On_68_Vel_0
Time_Shift_3
Note_On_69_Vel_0
Time_Shift_1
Note_On_71_Vel_0
Time_Shift_1
Note_On_72_Vel_0
Time_Shift_106
Sustain_On
Time_Shift_38
Note_On_67_Vel_53
Time_Shift_2
Note_On_64_Vel_59
Note_On_69_Vel_53
Time_Shift_152
Note_On_69_Vel_0
Time_Shift_4
Note_On_61_Vel_77
Note_On_72_Vel_80
Time_Shift_7
Note_On_69_Vel_69
Time_Shift_22
Note_On_67_Vel_0
Time_Shift_2
Note_On_64_Vel_0
Note_On_73_Vel_0
Time_Shift_11
Note_On_70_Vel_0
Sustain_Off
Time_Shift_61
Sustain_On
Time_Shift_35
Note_On_67_Vel_67
Note_On_70_Vel_75
Time_Shift_5
Note_On_73_Vel_66
Time_Shift_96
Note_On_67_Vel_0
Time_Shift_3
Sustain_Off
Time_Shift_19
Note_On_70_Vel_0
Time_Shift_4
Note_On_69_Vel_0
Time_Shift_2
Note_On_61_Vel_0
Time_Shift_6
Note_On_69_Vel_74
Time_Shift_3
Note_On_65_Vel_70
Time_Shift_23
Note_On_60_Vel_61
Time_Shift_11
Note_On_69_Vel_0
Time_Shift_1
Note_On_72_Vel_0
Time_Shift_1
Note_On_65_Vel_0
Time_Shift_83
Sustain_On
Time_Shift_15
Note_On_70_Vel_80
Time_Shift_1
Note_On_67_Vel_72
Time_Shift_133
Note_On_71_Vel_80
Time_Shift_8
Note_On_41_Vel_61
Time_Shift_3
Note_On_68_Vel_71
Time_Shift_15
Note_On_70_Vel_0
Time_Shift_2
Note_On_73_Vel_0
Sustain_Off
Time_Shift_1
Note_On_67_Vel_0
Time_Shift_83
Sustain_On
Time_Shift_26
Note_On_72_Vel_82
Time_Shift_8
Note_On_69_Vel_69
Time_Shift_149
Note_On_73_Vel_75
Time_Shift_5
Note_On_70_Vel_70
Time_Shift_4
Note_On_60_Vel_0
Time_Shift_4
Note_On_69_Vel_0
Note_On_72_Vel_0
Time_Shift_1
Note_On_68_Vel_0
Note_On_71_Vel_0
Time_Shift_3
Note_On_53_Vel_0
Time_Shift_4
Note_On_53_Vel_48
Time_Shift_3
Sustain_Off
Time_Shift_147
Sustain_On
Time_Shift_5
Note_On_64_Vel_54
Time_Shift_6
Note_On_69_Vel_51
Time_Shift_4
Note_On_69_Vel_0
Time_Shift_3
Note_On_67_Vel_43
Time_Shift_123
Note_On_72_Vel_80
Time_Shift_16
Note_On_64_Vel_0
Note_On_73_Vel_0
Time_Shift_2
Note_On_70_Vel_0
Time_Shift_1
Note_On_69_Vel_60
Time_Shift_10
Note_On_61_Vel_63
Time_Shift_3
Sustain_Off
Time_Shift_118
Note_On_67_Vel_0
Time_Shift_4
Note_On_70_Vel_76
Time_Shift_1
Note_On_67_Vel_56
Time_Shift_126
Note_On_69_Vel_0
Time_Shift_7
Note_On_61_Vel_0
Time_Shift_3
Note_On_69_Vel_72
Time_Shift_9
Note_On_67_Vel_0
Time_Shift_10
Note_On_65_Vel_64
Time_Shift_4
Note_On_60_Vel_56
Time_Shift_13
Note_On_72_Vel_0
Time_Shift_4
Note_On_70_Vel_0
Note_On_69_Vel_0
Time_Shift_42
Note_On_65_Vel_0
Time_Shift_92
Sustain_On
Time_Shift_131
Note_On_60_Vel_0
Time_Shift_4
Sustain_Off
Time_Shift_2
Note_On_60_Vel_73
Time_Shift_1
Note_On_65_Vel_73
Time_Shift_1
Note_On_41_Vel_0
Note_On_53_Vel_0
Time_Shift_1
Note_On_57_Vel_68
Time_Shift_3
Note_On_41_Vel_64
Time_Shift_2
Note_On_53_Vel_63
Time_Shift_29
Note_On_57_Vel_0
Time_Shift_18
Note_On_60_Vel_0
Time_Shift_66
Note_On_61_Vel_80
Time_Shift_6
Note_On_58_Vel_66
Time_Shift_32
Note_On_61_Vel_0
Time_Shift_1
Note_On_58_Vel_0
Time_Shift_107
Note_On_62_Vel_68
Time_Shift_1
Note_On_59_Vel_67
Time_Shift_24
Note_On_62_Vel_0
Time_Shift_4
Note_On_59_Vel_0
Time_Shift_101
Note_On_63_Vel_76
Time_Shift_45
Note_On_63_Vel_0
Time_Shift_92
Note_On_59_Vel_79
Time_Shift_1
Note_On_62_Vel_73
Time_Shift_24
Note_On_62_Vel_0
Time_Shift_1
Note_On_59_Vel_0
Time_Shift_114
Note_On_61_Vel_75
Note_On_58_Vel_67
Time_Shift_26
Note_On_65_Vel_0
Time_Shift_11
Note_On_58_Vel_0
Note_On_61_Vel_0
Time_Shift_117
Note_On_60_Vel_70
Time_Shift_1
Note_On_57_Vel_70
Time_Shift_25
Note_On_60_Vel_0
Time_Shift_8
Note_On_53_Vel_0
Time_Shift_15
Note_On_57_Vel_0
Time_Shift_8
Note_On_41_Vel_0
Time_Shift_264
Note_On_77_Vel_100
Time_Shift_3
Note_On_69_Vel_91
Time_Shift_2
Note_On_72_Vel_82
Time_Shift_1
Note_On_53_Vel_88
Note_On_60_Vel_88
Time_Shift_25
Note_On_77_Vel_0
Time_Shift_1
Note_On_60_Vel_0
Note_On_53_Vel_0
Note_On_69_Vel_0
Time_Shift_1
Note_On_72_Vel_0
Time_Shift_360
Note_On_89_Vel_112
Time_Shift_2
Note_On_77_Vel_98
Time_Shift_1
Note_On_84_Vel_104
Time_Shift_1
Note_On_81_Vel_103
Note_On_72_Vel_98
Time_Shift_7
Note_On_65_Vel_94
Time_Shift_8
Sustain_On
Time_Shift_357
Note_On_89_Vel_0
Note_On_81_Vel_0
Note_On_72_Vel_0
Note_On_65_Vel_0
Time_Shift_1
Note_On_84_Vel_0
Time_Shift_3
Note_On_77_Vel_0
Time_Shift_4
Sustain_Off
Time_Shift_825
Sustain_On
Time_Shift_257
Note_On_58_Vel_37
Time_Shift_103
Note_On_60_Vel_54
Time_Shift_85
Note_On_58_Vel_0
Time_Shift_7
Note_On_58_Vel_45
Time_Shift_210
Note_On_57_Vel_60
Time_Shift_152
Note_On_58_Vel_0
Time_Shift_7
Note_On_58_Vel_68
Time_Shift_24
Sustain_Off
Time_Shift_20
Note_On_57_Vel_0
Time_Shift_57
Note_On_60_Vel_0
Time_Shift_60
Note_On_60_Vel_63
Time_Shift_67
Note_On_58_Vel_0
Time_Shift_110
Note_On_61_Vel_62
Time_Shift_22
Note_On_60_Vel_0
Time_Shift_117
Sustain_On
Time_Shift_11
Note_On_53_Vel_68
Time_Shift_81
Note_On_61_Vel_0
Time_Shift_8
Sustain_Off
Time_Shift_73
Note_On_54_Vel_67
Time_Shift_57
Note_On_53_Vel_0
Time_Shift_46
Sustain_On
Time_Shift_35
Note_On_53_Vel_58
Time_Shift_69
Note_On_46_Vel_57
Time_Shift_70
Note_On_48_Vel_55
Time_Shift_68
Note_On_52_Vel_60
Time_Shift_12
Note_On_54_Vel_0
Time_Shift_8
Note_On_46_Vel_0
Time_Shift_1
Note_On_48_Vel_0
Time_Shift_10
Note_On_46_Vel_57
Time_Shift_4
Note_On_53_Vel_0
Time_Shift_122
Note_On_53_Vel_62
Time_Shift_3
Note_On_45_Vel_57
Time_Shift_1
Note_On_48_Vel_49
Time_Shift_20
Note_On_46_Vel_0
Time_Shift_126
Sustain_Off
Time_Shift_20
Note_On_52_Vel_0
Time_Shift_16
Note_On_45_Vel_0
Time_Shift_10
Note_On_54_Vel_58
Time_Shift_8
Note_On_46_Vel_54
Time_Shift_4
Note_On_48_Vel_0
Time_Shift_131
Sustain_On
Time_Shift_110
Note_On_48_Vel_48
Time_Shift_89
Note_On_54_Vel_0
Time_Shift_9
Note_On_54_Vel_73
Time_Shift_121
Sustain_Off
Time_Shift_1
Note_On_54_Vel_0
Time_Shift_5
Note_On_54_Vel_65
Time_Shift_1
Note_On_49_Vel_54
Time_Shift_16
Note_On_48_Vel_0
Time_Shift_9
Note_On_53_Vel_0
Time_Shift_138
Sustain_On
Time_Shift_200
Sustain_Off
Time_Shift_7
Note_On_48_Vel_58
Time_Shift_2
Note_On_45_Vel_58
Time_Shift_14
Sustain_On
Time_Shift_117
Note_On_53_Vel_71
Time_Shift_141
Sustain_Off
Time_Shift_17
Note_On_48_Vel_0
Time_Shift_3
Note_On_46_Vel_0
Time_Shift_1
Note_On_45_Vel_0
Time_Shift_1
Note_On_50_Vel_73
Note_On_49_Vel_0
Time_Shift_7
Note_On_47_Vel_61
Time_Shift_1
Note_On_44_Vel_63
Time_Shift_3
Note_On_54_Vel_0
Time_Shift_123
Sustain_On
Time_Shift_16
Note_On_44_Vel_0
Time_Shift_3
Note_On_51_Vel_80
Time_Shift_1
Note_On_44_Vel_52
Time_Shift_180
Note_On_53_Vel_0
Time_Shift_5
Note_On_53_Vel_79
Time_Shift_33
Sustain_Off
Time_Shift_93
Note_On_50_Vel_0
Time_Shift_161
Note_On_53_Vel_0
Time_Shift_9
Note_On_53_Vel_74
Time_Shift_6
Note_On_51_Vel_0
Time_Shift_85
Note_On_53_Vel_0
Time_Shift_4
Note_On_53_Vel_82
Time_Shift_111
Sustain_On
Time_Shift_233
Note_On_46_Vel_70
Time_Shift_1
Note_On_43_Vel_62
Time_Shift_146
Note_On_51_Vel_83
Time_Shift_123
Note_On_47_Vel_0
Note_On_46_Vel_0
Note_On_51_Vel_0
Note_On_53_Vel_0
Sustain_Off
Time_Shift_1
Note_On_44_Vel_0
Time_Shift_1
Note_On_43_Vel_0
Time_Shift_52
Note_On_58_Vel_93
Time_Shift_6
Note_On_42_Vel_80
Time_Shift_1
Note_On_51_Vel_73
Time_Shift_35
Sustain_On
Time_Shift_239
Sustain_Off
Time_Shift_3
Note_On_42_Vel_0
Time_Shift_1
Note_On_51_Vel_0
Time_Shift_1
Note_On_58_Vel_0
Time_Shift_66
Note_On_51_Vel_86
Time_Shift_1
Note_On_45_Vel_80
Time_Shift_1
Note_On_57_Vel_77
Note_On_41_Vel_78
Note_On_60_Vel_87
Time_Shift_5
Note_On_53_Vel_79
Time_Shift_13
Sustain_On
Time_Shift_257
Sustain_Off
Time_Shift_2
Note_On_51_Vel_0
Note_On_41_Vel_0
Time_Shift_1
Note_On_45_Vel_0
Time_Shift_1
Note_On_53_Vel_0
Time_Shift_1
Note_On_60_Vel_0
Time_Shift_15
Note_On_57_Vel_0
Time_Shift_72
Note_On_61_Vel_95
Time_Shift_2
Note_On_46_Vel_83
Time_Shift_1
Note_On_53_Vel_80
Time_Shift_3
Note_On_34_Vel_78
Time_Shift_2
Note_On_49_Vel_82
Time_Shift_12
Sustain_On
Time_Shift_172
Note_On_34_Vel_0
Note_On_46_Vel_0
Note_On_53_Vel_0
Sustain_Off
Time_Shift_1
Note_On_49_Vel_0
Note_On_61_Vel_0
Time_Shift_57
Note_On_46_Vel_70
Time_Shift_141
Note_On_46_Vel_0
Time_Shift_16
Note_On_48_Vel_71
Time_Shift_132
Note_On_49_Vel_69
Time_Shift_2
Note_On_48_Vel_0
Time_Shift_65
Note_On_51_Vel_70
Time_Shift_20
Note_On_49_Vel_0
Time_Shift_40
Note_On_53_Vel_70
Time_Shift_58
Note_On_58_Vel_60
Time_Shift_1
Note_On_60_Vel_65
Time_Shift_5
Note_On_53_Vel_0
Time_Shift_5
Note_On_54_Vel_65
Time_Shift_137
Note_On_51_Vel_0
Time_Shift_26
Note_On_50_Vel_74
Time_Shift_154
Note_On_51_Vel_75
Time_Shift_49
Note_On_50_Vel_0
Time_Shift_71
Sustain_On
Time_Shift_53
Note_On_53_Vel_81
Time_Shift_116
Sustain_Off
Time_Shift_29
Note_On_53_Vel_0
Time_Shift_1
Note_On_58_Vel_0
Time_Shift_4
Note_On_60_Vel_0
Time_Shift_2
Note_On_58_Vel_60
Note_On_51_Vel_0
Time_Shift_1
Note_On_63_Vel_69
Time_Shift_9
Note_On_54_Vel_0
Time_Shift_4
Note_On_54_Vel_72
Time_Shift_164
Note_On_42_Vel_71
Time_Shift_154
Note_On_44_Vel_70
Time_Shift_146
Note_On_42_Vel_0
Time_Shift_5
Note_On_42_Vel_73
Time_Shift_164
Note_On_63_Vel_0
Time_Shift_11
Note_On_63_Vel_70
Note_On_57_Vel_65
Time_Shift_1
Note_On_41_Vel_65
Time_Shift_2
Note_On_60_Vel_60
Time_Shift_17
Note_On_44_Vel_0
Time_Shift_2
Note_On_42_Vel_0
Time_Shift_6
Note_On_58_Vel_0
Time_Shift_7
Note_On_54_Vel_0
Time_Shift_1
Note_On_63_Vel_0
Time_Shift_3
Note_On_57_Vel_0
Time_Shift_27
Note_On_60_Vel_0
Time_Shift_79
Note_On_47_Vel_69
Time_Shift_209
Note_On_63_Vel_69
Note_On_53_Vel_57
Note_On_48_Vel_68
Time_Shift_1
Note_On_57_Vel_60
Time_Shift_21
Note_On_47_Vel_0
Time_Shift_335
Note_On_48_Vel_0
Time_Shift_11
Note_On_48_Vel_61
Time_Shift_97
Note_On_48_Vel_0
Time_Shift_4
Note_On_48_Vel_66
Time_Shift_3
Sustain_On
Time_Shift_62
Note_On_41_Vel_0
Time_Shift_280
Sustain_Off
Time_Shift_3
Note_On_58_Vel_57
Time_Shift_5
Note_On_51_Vel_57
Time_Shift_4
Note_On_63_Vel_0
Time_Shift_4
Note_On_60_Vel_43
Time_Shift_6
Note_On_63_Vel_57
Time_Shift_66
Sustain_On
Time_Shift_68
Note_On_42_Vel_72
Time_Shift_9
Note_On_53_Vel_0
Time_Shift_75
Note_On_41_Vel_80
Time_Shift_13
Note_On_42_Vel_0
Note_On_51_Vel_0
Time_Shift_1
Note_On_48_Vel_0
Note_On_58_Vel_0
Time_Shift_2
Note_On_63_Vel_0
Time_Shift_2
Note_On_57_Vel_0
Time_Shift_5
Sustain_Off
Time_Shift_32
Note_On_41_Vel_0
Time_Shift_13
Note_On_42_Vel_80
Time_Shift_3
Note_On_60_Vel_0
Time_Shift_50
Note_On_63_Vel_76
Time_Shift_2
Note_On_60_Vel_61
Time_Shift_2
Note_On_51_Vel_68
Time_Shift_3
Note_On_57_Vel_58
Time_Shift_1
Note_On_41_Vel_67
Time_Shift_31
Note_On_42_Vel_0
Time_Shift_138
Note_On_40_Vel_75
Time_Shift_157
Note_On_41_Vel_0
Time_Shift_4
Note_On_41_Vel_79
Time_Shift_46
Note_On_40_Vel_0
Time_Shift_111
Note_On_42_Vel_85
Time_Shift_54
Note_On_41_Vel_0
Time_Shift_103
Note_On_41_Vel_83
Time_Shift_20
Note_On_42_Vel_0
Time_Shift_129
Note_On_30_Vel_80
Time_Shift_4
Note_On_41_Vel_0
Time_Shift_167
Note_On_30_Vel_0
Time_Shift_2
Note_On_29_Vel_82
Time_Shift_105
Sustain_On
Time_Shift_39
Note_On_29_Vel_0
Time_Shift_8
Note_On_41_Vel_88
Note_On_29_Vel_77
Time_Shift_111
Note_On_29_Vel_0
Time_Shift_1
Note_On_41_Vel_0
Sustain_Off
Note_On_57_Vel_0
Time_Shift_2
Note_On_60_Vel_0
Note_On_51_Vel_0
Time_Shift_1
Note_On_63_Vel_0
Time_Shift_70
Note_On_49_Vel_90
Note_On_61_Vel_92
Time_Shift_1
Note_On_58_Vel_92
Time_Shift_1
Note_On_34_Vel_94
Note_On_46_Vel_93
Note_On_53_Vel_90
Time_Shift_12
Sustain_On
Time_Shift_147
Sustain_Off
Time_Shift_2
Note_On_34_Vel_0
Time_Shift_1
Note_On_53_Vel_0
Note_On_46_Vel_0
Note_On_58_Vel_0
Time_Shift_1
Note_On_49_Vel_0
Time_Shift_1
Note_On_61_Vel_0
Time_Shift_182
Note_On_73_Vel_96
Note_On_65_Vel_91
Time_Shift_1
Note_On_61_Vel_95
Time_Shift_1
Note_On_58_Vel_90
Time_Shift_2
Note_On_70_Vel_85
Note_On_46_Vel_88
Time_Shift_15
Sustain_On
Time_Shift_199
Sustain_Off
Time_Shift_3
Note_On_58_Vel_0
Time_Shift_1
Note_On_61_Vel_0
Note_On_46_Vel_0
Note_On_70_Vel_0
Note_On_73_Vel_0
Note_On_65_Vel_0
Time_Shift_140
Note_On_85_Vel_95
Time_Shift_3
Sustain_On
Time_Shift_1
Note_On_82_Vel_93
Time_Shift_1
Note_On_77_Vel_86
Note_On_73_Vel_91
Note_On_58_Vel_91
Time_Shift_151
Note_On_77_Vel_0
Time_Shift_6
Note_On_77_Vel_67
Time_Shift_2
Note_On_73_Vel_0
Time_Shift_6
Note_On_73_Vel_57
Time_Shift_58
Sustain_Off
Time_Shift_2
Note_On_77_Vel_0
Note_On_85_Vel_0
Note_On_82_Vel_0
Note_On_58_Vel_0
Note_On_73_Vel_0
Time_Shift_39
Note_On_70_Vel_60
Note_On_66_Vel_60
Time_Shift_49
Sustain_On
Time_Shift_118
Note_On_65_Vel_65
Time_Shift_150
Note_On_70_Vel_0
Time_Shift_8
Note_On_70_Vel_75
Time_Shift_154
Note_On_66_Vel_0
Time_Shift_11
Note_On_66_Vel_62
Time_Shift_1
Note_On_69_Vel_70
Time_Shift_12
Note_On_63_Vel_62
Time_Shift_18
Sustain_Off
Time_Shift_42
Sustain_On
Time_Shift_4
Note_On_70_Vel_0
Time_Shift_12
Note_On_65_Vel_0
Time_Shift_15
Sustain_Off
Time_Shift_40
Note_On_70_Vel_76
Time_Shift_165
Note_On_71_Vel_78
Time_Shift_23
Note_On_70_Vel_0
Time_Shift_283
Note_On_72_Vel_81
Time_Shift_50
Note_On_71_Vel_0
Time_Shift_38
Note_On_72_Vel_0
Time_Shift_11
Note_On_72_Vel_74
Time_Shift_120
Note_On_69_Vel_0
Time_Shift_30
Sustain_On
Time_Shift_232
Sustain_Off
Time_Shift_21
Note_On_73_Vel_63
Time_Shift_22
Note_On_65_Vel_46
Time_Shift_3
Note_On_72_Vel_0
Time_Shift_1
Note_On_61_Vel_49
Time_Shift_1
Note_On_70_Vel_49
Time_Shift_7
Note_On_63_Vel_0
Time_Shift_97
Sustain_On
Time_Shift_233
Note_On_68_Vel_62
Time_Shift_13
Note_On_65_Vel_0
Time_Shift_8
Note_On_66_Vel_0
Time_Shift_1
Note_On_65_Vel_50
Time_Shift_11
Note_On_70_Vel_0
Note_On_73_Vel_0
Time_Shift_2
Note_On_61_Vel_0
Time_Shift_1
Note_On_62_Vel_51
Time_Shift_3
Sustain_Off
Time_Shift_139
Note_On_69_Vel_67
Time_Shift_172
Note_On_70_Vel_71
Time_Shift_23
Note_On_69_Vel_0
Time_Shift_282
Note_On_71_Vel_72
Time_Shift_103
Note_On_71_Vel_0
Time_Shift_9
Note_On_71_Vel_68
Time_Shift_145
Note_On_70_Vel_0
Time_Shift_30
Sustain_On
Time_Shift_187
Note_On_72_Vel_71
Time_Shift_1
Sustain_Off
Time_Shift_15
Note_On_64_Vel_53
Time_Shift_1
Note_On_67_Vel_58
Time_Shift_96
Sustain_On
Time_Shift_215
Note_On_68_Vel_0
Time_Shift_4
Note_On_68_Vel_58
Time_Shift_6
Note_On_66_Vel_60
Time_Shift_5
Note_On_63_Vel_55
Time_Shift_4
Note_On_56_Vel_53
Time_Shift_26
Note_On_72_Vel_0
Time_Shift_3
Note_On_62_Vel_0
Time_Shift_2
Note_On_64_Vel_0
Note_On_67_Vel_0
Time_Shift_8
Sustain_Off
Time_Shift_3
Note_On_65_Vel_0
Note_On_71_Vel_0
Time_Shift_105
Note_On_73_Vel_84
Time_Shift_170
Note_On_74_Vel_85
Time_Shift_11
Note_On_73_Vel_0
Time_Shift_123
Note_On_74_Vel_0
Time_Shift_126
Note_On_75_Vel_81
Time_Shift_78
Note_On_76_Vel_94
Time_Shift_17
Sustain_On
Time_Shift_284
Note_On_75_Vel_0
Time_Shift_5
Sustain_Off
Time_Shift_2
Note_On_63_Vel_0
Time_Shift_4
Note_On_56_Vel_0
Note_On_66_Vel_0
Time_Shift_1
Note_On_76_Vel_0
Time_Shift_11
Note_On_68_Vel_0
Time_Shift_5
Note_On_77_Vel_95
Time_Shift_4
Note_On_73_Vel_93
Note_On_49_Vel_89
Time_Shift_2
Note_On_68_Vel_85
Note_On_61_Vel_96
Time_Shift_1
Note_On_65_Vel_86
Time_Shift_27
Sustain_On
Time_Shift_165
Note_On_68_Vel_0
Time_Shift_1
Note_On_73_Vel_0
Note_On_61_Vel_0
Note_On_77_Vel_0
Time_Shift_1
Note_On_49_Vel_0
Note_On_65_Vel_0
Time_Shift_3
Sustain_Off
Time_Shift_78
Note_On_77_Vel_88
Time_Shift_39
Note_On_75_Vel_97
Time_Shift_1
Note_On_69_Vel_84
Time_Shift_2
Note_On_65_Vel_89
Time_Shift_2
Note_On_53_Vel_94
Time_Shift_2
Note_On_60_Vel_94
Time_Shift_13
Sustain_On
Time_Shift_118
Sustain_Off
Time_Shift_1
Note_On_60_Vel_0
Note_On_53_Vel_0
Note_On_69_Vel_0
Time_Shift_2
Note_On_75_Vel_0
Note_On_65_Vel_0
Time_Shift_9
Note_On_77_Vel_0
Time_Shift_190
Note_On_73_Vel_99
Time_Shift_5
Note_On_65_Vel_96
Time_Shift_1
Note_On_61_Vel_96
Note_On_70_Vel_91
Time_Shift_2
Note_On_53_Vel_83
Time_Shift_2
Note_On_46_Vel_87
Time_Shift_8
Sustain_On
Time_Shift_146
Sustain_Off
Time_Shift_2
Note_On_53_Vel_0
Time_Shift_1
Note_On_46_Vel_0
Note_On_61_Vel_0
Time_Shift_1
Note_On_65_Vel_0
Time_Shift_1
Note_On_70_Vel_0
Time_Shift_1
Note_On_73_Vel_0
Time_Shift_206
Note_On_46_Vel_69
Time_Shift_18
Sustain_On
Time_Shift_168
Note_On_47_Vel_69
Time_Shift_55
Sustain_Off
Time_Shift_108
Note_On_48_Vel_62
Time_Shift_53
Note_On_46_Vel_0
Time_Shift_108
Note_On_49_Vel_62
Time_Shift_79
Note_On_48_Vel_0
Time_Shift_5
Note_On_47_Vel_0
Time_Shift_95
Note_On_65_Vel_57
Time_Shift_17
Note_On_61_Vel_55
Time_Shift_1
Note_On_59_Vel_50
Time_Shift_5
Note_On_56_Vel_52
Time_Shift_111
Note_On_66_Vel_75
Time_Shift_50
Note_On_66_Vel_0
Time_Shift_94
Note_On_67_Vel_70
Time_Shift_47
Note_On_67_Vel_0
Time_Shift_110
Note_On_68_Vel_66
Time_Shift_153
Note_On_69_Vel_75
Time_Shift_139
Sustain_On
Time_Shift_153
Note_On_69_Vel_0
Time_Shift_12
Sustain_Off
Time_Shift_4
Note_On_68_Vel_0
Time_Shift_5
Note_On_65_Vel_0
Time_Shift_1
Note_On_56_Vel_0
Time_Shift_4
Note_On_59_Vel_0
Time_Shift_13
Note_On_49_Vel_0
Note_On_61_Vel_0
Time_Shift_1
Note_On_70_Vel_87
Time_Shift_3
Note_On_54_Vel_77
Note_On_58_Vel_78
Note_On_42_Vel_77
Time_Shift_1
Note_On_66_Vel_74
Time_Shift_1
Note_On_61_Vel_71
Time_Shift_48
Sustain_On
Time_Shift_199
Note_On_70_Vel_0
Time_Shift_11
Note_On_70_Vel_81
Time_Shift_47
Note_On_42_Vel_0
Sustain_Off
Note_On_61_Vel_0
Time_Shift_1
Note_On_58_Vel_0
Note_On_54_Vel_0
Note_On_70_Vel_0
Note_On_66_Vel_0
Time_Shift_20
Note_On_53_Vel_79
Time_Shift_1
Note_On_46_Vel_69
Time_Shift_1
Note_On_62_Vel_89
Note_On_56_Vel_84
Time_Shift_140
Note_On_63_Vel_88
Time_Shift_83
Note_On_63_Vel_0
Time_Shift_69
Note_On_64_Vel_74
Time_Shift_11
Note_On_62_Vel_0
Time_Shift_57
Note_On_64_Vel_0
Time_Shift_51
Note_On_62_Vel_67
Time_Shift_19
Note_On_65_Vel_89
Time_Shift_53
Note_On_65_Vel_0
Time_Shift_109
Note_On_66_Vel_93
Time_Shift_55
Note_On_66_Vel_0
Time_Shift_35
Note_On_65_Vel_64
Time_Shift_51
Sustain_On
Time_Shift_154
Note_On_62_Vel_0
Time_Shift_3
Sustain_Off
Time_Shift_1
Note_On_56_Vel_0
Time_Shift_4
Note_On_53_Vel_0
Time_Shift_11
Note_On_46_Vel_0
Time_Shift_7
Note_On_55_Vel_100
Time_Shift_1
Note_On_51_Vel_94
Time_Shift_1
Note_On_63_Vel_95
Time_Shift_1
Note_On_58_Vel_92
Note_On_39_Vel_86
Time_Shift_2
Note_On_67_Vel_94
Time_Shift_7
Note_On_65_Vel_0
Time_Shift_16
Sustain_On
Time_Shift_222
Note_On_67_Vel_0
Time_Shift_7
Note_On_67_Vel_78
Time_Shift_47
Note_On_51_Vel_0
Time_Shift_1
Sustain_Off
Note_On_63_Vel_0
Time_Shift_1
Note_On_58_Vel_0
Note_On_67_Vel_0
Time_Shift_2
Note_On_39_Vel_0
Time_Shift_12
Note_On_55_Vel_0
Time_Shift_3
Note_On_50_Vel_101
Note_On_38_Vel_96
Time_Shift_5
Note_On_59_Vel_99
Time_Shift_1
Note_On_55_Vel_93
Time_Shift_1
Note_On_65_Vel_102
Time_Shift_43
Sustain_On
Time_Shift_254
Note_On_55_Vel_0
Time_Shift_6
Note_On_63_Vel_96
Note_On_48_Vel_90
Time_Shift_4
Note_On_55_Vel_89
Note_On_60_Vel_84
Time_Shift_1
Note_On_36_Vel_89
Time_Shift_2
Sustain_Off
Time_Shift_6
Note_On_65_Vel_0
Time_Shift_2
Note_On_50_Vel_0
Time_Shift_4
Note_On_59_Vel_0
Time_Shift_18
Note_On_36_Vel_0
Note_On_48_Vel_0
Time_Shift_3
Note_On_38_Vel_0
Time_Shift_3
Note_On_63_Vel_0
Time_Shift_1
Note_On_60_Vel_0
Time_Shift_27
Note_On_55_Vel_0
Time_Shift_58
Note_On_50_Vel_97
Time_Shift_1
Note_On_58_Vel_88
Note_On_62_Vel_97
Time_Shift_3
Note_On_38_Vel_93
Time_Shift_55
Note_On_50_Vel_0
Time_Shift_2
Note_On_62_Vel_0
Time_Shift_1
Note_On_38_Vel_0
Time_Shift_3
Note_On_58_Vel_0
Time_Shift_87
Note_On_39_Vel_92
Time_Shift_1
Note_On_60_Vel_99
Time_Shift_1
Note_On_55_Vel_89
Note_On_51_Vel_94
Time_Shift_33
Sustain_On
Time_Shift_241
Note_On_51_Vel_0
Sustain_Off
Note_On_39_Vel_0
Time_Shift_1
Note_On_60_Vel_0
Note_On_55_Vel_0
Time_Shift_42
Note_On_61_Vel_103
Time_Shift_3
Note_On_51_Vel_95
Time_Shift_1
Note_On_55_Vel_86
Note_On_39_Vel_90
Time_Shift_1
Note_On_57_Vel_86
Time_Shift_34
Sustain_On
Time_Shift_219
Note_On_51_Vel_0
Time_Shift_1
Note_On_57_Vel_0
Sustain_Off
Note_On_55_Vel_0
Note_On_39_Vel_0
Note_On_61_Vel_0
Time_Shift_91
Note_On_62_Vel_104
Time_Shift_1
Note_On_54_Vel_99
Note_On_50_Vel_101
Note_On_57_Vel_95
Time_Shift_4
Note_On_38_Vel_95
Time_Shift_2
Note_On_26_Vel_88
Time_Shift_4
Note_On_26_Vel_0
Time_Shift_8
Sustain_On
Time_Shift_127
Sustain_Off
Time_Shift_1
Note_On_54_Vel_0
Note_On_50_Vel_0
Note_On_62_Vel_0
Note_On_38_Vel_0
Time_Shift_1
Note_On_57_Vel_0
Time_Shift_251
Note_On_74_Vel_96
Time_Shift_2
Note_On_62_Vel_98
Time_Shift_3
Note_On_38_Vel_93
Time_Shift_2
Note_On_26_Vel_87
Note_On_69_Vel_87
Time_Shift_1
Note_On_66_Vel_92
Time_Shift_4
Sustain_On
Time_Shift_276
Note_On_62_Vel_0
Note_On_38_Vel_0
Note_On_66_Vel_0
Time_Shift_1
Note_On_69_Vel_0
Time_Shift_1
Note_On_26_Vel_0
Time_Shift_2
Sustain_Off
Time_Shift_27
Note_On_74_Vel_0
Time_Shift_381
Note_On_40_Vel_55
Note_On_28_Vel_64
Time_Shift_247
Note_On_41_Vel_53
Time_Shift_5
Note_On_29_Vel_52
Time_Shift_28
Note_On_40_Vel_0
Time_Shift_371
Note_On_29_Vel_0
Note_On_41_Vel_0
Time_Shift_5
Note_On_28_Vel_0
Time_Shift_484
Sustain_On
Time_Shift_69
Sustain_Off
Time_Shift_2
Note_On_31_Vel_31
Time_Shift_5
Note_On_31_Vel_0
Time_Shift_83
Note_On_31_Vel_26
Time_Shift_86
Note_On_31_Vel_0
Time_Shift_20
Note_On_67_Vel_30
Note_On_43_Vel_38
Time_Shift_3
Sustain_On
Time_Shift_272
Note_On_68_Vel_40
Time_Shift_36
Note_On_43_Vel_0
Time_Shift_3
Note_On_46_Vel_51
Time_Shift_3
Note_On_43_Vel_34
Time_Shift_155
Note_On_69_Vel_50
Time_Shift_52
Note_On_42_Vel_34
Time_Shift_6
Note_On_54_Vel_30
Time_Shift_96
Note_On_43_Vel_0
Time_Shift_9
Note_On_55_Vel_37
Time_Shift_1
Note_On_43_Vel_37
Time_Shift_6
Note_On_70_Vel_62
Time_Shift_183
Note_On_70_Vel_0
Time_Shift_3
Note_On_68_Vel_0
Note_On_54_Vel_0
Time_Shift_1
Note_On_69_Vel_0
Note_On_46_Vel_0
Note_On_43_Vel_0
Time_Shift_1
Note_On_33_Vel_44
Time_Shift_1
Note_On_70_Vel_58
Time_Shift_1
Sustain_Off
Time_Shift_1
Note_On_42_Vel_0
Note_On_67_Vel_0
Time_Shift_38
Sustain_On
Time_Shift_26
Note_On_45_Vel_52
Time_Shift_59
Note_On_33_Vel_0
Time_Shift_10
Note_On_33_Vel_41
Time_Shift_126
Note_On_48_Vel_40
Time_Shift_102
Note_On_70_Vel_0
Time_Shift_4
Note_On_70_Vel_54
Time_Shift_42
Note_On_33_Vel_0
Time_Shift_4
Note_On_54_Vel_54
Time_Shift_2
Note_On_33_Vel_40
Time_Shift_125
Note_On_55_Vel_0
Time_Shift_4
Note_On_55_Vel_55
Time_Shift_178
Note_On_67_Vel_57
Time_Shift_5
Note_On_34_Vel_46
Time_Shift_16
Sustain_Off
Time_Shift_3
Note_On_48_Vel_0
Time_Shift_1
Note_On_45_Vel_0
Note_On_55_Vel_0
Time_Shift_2
Note_On_33_Vel_0
Time_Shift_2
Note_On_54_Vel_0
Time_Shift_27
Note_On_46_Vel_48
Time_Shift_7
Sustain_On
Time_Shift_119
Note_On_68_Vel_58
Time_Shift_38
Note_On_50_Vel_58
Time_Shift_111
Note_On_69_Vel_68
Time_Shift_50
Note_On_54_Vel_66
Time_Shift_112
Note_On_70_Vel_0
Time_Shift_7
Note_On_55_Vel_58
Time_Shift_4
Note_On_70_Vel_73
Time_Shift_154
Note_On_68_Vel_0
Note_On_34_Vel_0
Time_Shift_2
Note_On_54_Vel_0
Note_On_46_Vel_0
Time_Shift_1
Note_On_50_Vel_0
Note_On_55_Vel_0
Note_On_67_Vel_0
Time_Shift_6
Note_On_69_Vel_0
Time_Shift_1
Note_On_36_Vel_60
Time_Shift_2
Note_On_70_Vel_0
Time_Shift_1
Sustain_Off
Time_Shift_9
Note_On_70_Vel_62
Time_Shift_82
Sustain_On
Time_Shift_12
Note_On_48_Vel_55
Time_Shift_109
Note_On_51_Vel_70
Time_Shift_51
Note_On_66_Vel_39
Time_Shift_112
Note_On_70_Vel_0
Time_Shift_5
Note_On_70_Vel_73
Time_Shift_1
Note_On_54_Vel_68
Time_Shift_167
Note_On_55_Vel_65
Time_Shift_209
Note_On_38_Vel_53
Time_Shift_27
Note_On_67_Vel_68
Time_Shift_4
Note_On_48_Vel_0
Note_On_55_Vel_0
Time_Shift_1
Note_On_51_Vel_0
Note_On_54_Vel_0
Time_Shift_2
Note_On_66_Vel_0
Time_Shift_1
Note_On_70_Vel_0
Note_On_36_Vel_0
Time_Shift_1
Sustain_Off
Time_Shift_68
Note_On_50_Vel_52
Time_Shift_14
Sustain_On
Time_Shift_131
Note_On_68_Vel_77
Time_Shift_49
Note_On_55_Vel_55
Time_Shift_130
Note_On_69_Vel_75
Time_Shift_39
Note_On_58_Vel_59
Time_Shift_151
Note_On_70_Vel_79
Time_Shift_9
Note_On_62_Vel_52
Time_Shift_166
Note_On_69_Vel_0
Time_Shift_4
Note_On_69_Vel_59
Time_Shift_27
Note_On_38_Vel_0
Time_Shift_4
Note_On_38_Vel_49
Time_Shift_27
Note_On_70_Vel_0
Time_Shift_6
Note_On_70_Vel_66
Time_Shift_55
Note_On_50_Vel_0
Time_Shift_5
Note_On_50_Vel_49
Time_Shift_49
Note_On_70_Vel_0
Time_Shift_11
Note_On_70_Vel_68
Time_Shift_58
Note_On_69_Vel_0
Time_Shift_10
Note_On_69_Vel_68
Time_Shift_44
Note_On_70_Vel_0
Time_Shift_9
Note_On_70_Vel_70
Time_Shift_3
Note_On_58_Vel_0
Time_Shift_23
Note_On_57_Vel_52
Time_Shift_34
Note_On_69_Vel_0
Time_Shift_6
Note_On_69_Vel_68
Time_Shift_32
Note_On_68_Vel_0
Time_Shift_10
Note_On_68_Vel_65
Time_Shift_67
Note_On_69_Vel_0
Time_Shift_7
Note_On_69_Vel_70
Time_Shift_44
Sustain_Off
Time_Shift_25
Note_On_70_Vel_0
Time_Shift_1
Note_On_68_Vel_0
Note_On_55_Vel_0
Time_Shift_2
Note_On_62_Vel_0
Time_Shift_1
Note_On_67_Vel_0
Time_Shift_1
Note_On_69_Vel_0
Time_Shift_1
Note_On_68_Vel_53
Time_Shift_7
Note_On_60_Vel_45
Time_Shift_1
Note_On_66_Vel_50
Time_Shift_2
Note_On_75_Vel_60
Time_Shift_8
Note_On_57_Vel_0
Time_Shift_15
Note_On_68_Vel_0
Time_Shift_23
Sustain_On
Time_Shift_121
Note_On_69_Vel_48
Time_Shift_103
Note_On_62_Vel_48
Time_Shift_93
Note_On_74_Vel_60
Time_Shift_14
Note_On_69_Vel_0
Time_Shift_4
Note_On_69_Vel_47
Time_Shift_124
Note_On_31_Vel_50
Time_Shift_6
Note_On_66_Vel_0
Note_On_75_Vel_0
Note_On_60_Vel_0
Note_On_62_Vel_0
Note_On_74_Vel_0
Note_On_69_Vel_0
Time_Shift_6
Sustain_Off
Time_Shift_6
Note_On_38_Vel_0
Time_Shift_7
Note_On_50_Vel_0
Time_Shift_6
Note_On_70_Vel_59
Time_Shift_7
Note_On_67_Vel_43
Time_Shift_49
Sustain_On
Time_Shift_166
Note_On_50_Vel_52
Time_Shift_135
Note_On_78_Vel_63
Time_Shift_26
Note_On_82_Vel_79
Time_Shift_17
Note_On_79_Vel_55
Time_Shift_24
Note_On_31_Vel_0
Time_Shift_1
Note_On_55_Vel_45
Time_Shift_146
Note_On_58_Vel_53
Time_Shift_167
Note_On_90_Vel_54
Time_Shift_46
Note_On_94_Vel_71
Time_Shift_4
Note_On_91_Vel_63
Time_Shift_21
Note_On_62_Vel_54
Time_Shift_4
Note_On_86_Vel_53
Time_Shift_187
Note_On_58_Vel_0
Time_Shift_5
Note_On_58_Vel_48
Time_Shift_172
Note_On_78_Vel_0
Time_Shift_6
Note_On_78_Vel_58
Time_Shift_48
Note_On_79_Vel_0
Note_On_82_Vel_0
Time_Shift_7
Note_On_55_Vel_0
Time_Shift_1
Note_On_79_Vel_50
Time_Shift_3
Note_On_82_Vel_60
Time_Shift_8
Note_On_55_Vel_44
Time_Shift_196
Note_On_67_Vel_0
Time_Shift_10
Note_On_67_Vel_49
Time_Shift_220
Note_On_36_Vel_54
Time_Shift_12
Sustain_Off
Time_Shift_19
Note_On_67_Vel_0
Time_Shift_3
Note_On_78_Vel_0
Time_Shift_1
Note_On_91_Vel_0
Note_On_82_Vel_0
Note_On_90_Vel_0
Note_On_69_Vel_53
Note_On_94_Vel_0
Time_Shift_1
Note_On_79_Vel_0
Note_On_55_Vel_0
Note_On_50_Vel_0
Note_On_86_Vel_0
Note_On_58_Vel_0
Time_Shift_1
Note_On_62_Vel_0
Time_Shift_2
Note_On_70_Vel_0
Time_Shift_2
Note_On_67_Vel_49
Time_Shift_51
Sustain_On
Time_Shift_5
Note_On_48_Vel_52
Time_Shift_64
Note_On_36_Vel_0
Time_Shift_65
Note_On_70_Vel_74
Time_Shift_57
Note_On_51_Vel_56
Time_Shift_107
Note_On_71_Vel_78
Time_Shift_21
Note_On_55_Vel_52
Time_Shift_138
Note_On_72_Vel_80
Time_Shift_12
Note_On_71_Vel_0
Time_Shift_1
Note_On_57_Vel_64
Time_Shift_3
Note_On_71_Vel_60
Time_Shift_157
Note_On_72_Vel_0
Time_Shift_7
Note_On_72_Vel_81
Time_Shift_12
Note_On_60_Vel_65
Time_Shift_142
Note_On_57_Vel_0
Time_Shift_7
Note_On_57_Vel_68
Time_Shift_185
Note_On_72_Vel_0
Time_Shift_4
Note_On_72_Vel_78
Time_Shift_12
Note_On_55_Vel_0
Note_On_69_Vel_0
Time_Shift_4
Note_On_55_Vel_65
Time_Shift_1
Note_On_69_Vel_55
Time_Shift_144
Note_On_63_Vel_78
Time_Shift_169
Note_On_36_Vel_65
Time_Shift_28
Note_On_81_Vel_78
Note_On_69_Vel_0
Time_Shift_1
Note_On_48_Vel_0
Note_On_71_Vel_0
Time_Shift_1
Note_On_51_Vel_0
Note_On_55_Vel_0
Note_On_70_Vel_0
Note_On_57_Vel_0
Note_On_72_Vel_0
Sustain_Off
Time_Shift_1
Note_On_63_Vel_0
Note_On_60_Vel_0
Time_Shift_5
Note_On_79_Vel_64
Time_Shift_2
Note_On_75_Vel_58
Time_Shift_5
Note_On_67_Vel_0
Time_Shift_53
Sustain_On
Time_Shift_3
Note_On_48_Vel_70
Time_Shift_101
Note_On_82_Vel_93
Time_Shift_19
Note_On_48_Vel_0
Time_Shift_5
Note_On_48_Vel_58
Time_Shift_11
Note_On_79_Vel_0
Time_Shift_7
Note_On_79_Vel_55
Time_Shift_10
Note_On_51_Vel_68
Time_Shift_101
Note_On_83_Vel_95
Time_Shift_34
Note_On_55_Vel_66
Time_Shift_129
Note_On_84_Vel_96
Time_Shift_20
Note_On_57_Vel_71
Time_Shift_136
Note_On_84_Vel_0
Time_Shift_10
Note_On_84_Vel_96
Time_Shift_14
Note_On_83_Vel_0
Time_Shift_4
Note_On_83_Vel_67
Time_Shift_34
Note_On_60_Vel_66
Time_Shift_146
Note_On_57_Vel_0
Time_Shift_8
Note_On_57_Vel_56
Time_Shift_34
Note_On_72_Vel_69
Time_Shift_42
Note_On_79_Vel_0
Time_Shift_5
Note_On_79_Vel_71
Time_Shift_18
Note_On_81_Vel_0
Time_Shift_4
Note_On_81_Vel_69
Time_Shift_58
Note_On_84_Vel_0
Time_Shift_4
Note_On_84_Vel_97
Time_Shift_19
Note_On_55_Vel_0
Time_Shift_5
Note_On_55_Vel_69
Time_Shift_141
Note_On_51_Vel_0
Time_Shift_3
Note_On_63_Vel_64
Time_Shift_58
Note_On_72_Vel_0
Time_Shift_6
Note_On_72_Vel_69
Time_Shift_69
Note_On_78_Vel_75
Time_Shift_17
Note_On_81_Vel_0
Time_Shift_6
Note_On_81_Vel_69
Time_Shift_5
Note_On_38_Vel_62
Time_Shift_16
Sustain_Off
Time_Shift_12
Note_On_36_Vel_0
Time_Shift_5
Note_On_82_Vel_0
Note_On_48_Vel_0
Time_Shift_1
Note_On_75_Vel_0
Note_On_83_Vel_0
Time_Shift_1
Note_On_63_Vel_0
Note_On_55_Vel_0
Note_On_84_Vel_0
Time_Shift_1
Note_On_57_Vel_0
Note_On_79_Vel_0
Note_On_60_Vel_0
Time_Shift_7
Note_On_84_Vel_95
Time_Shift_39
Sustain_On
Time_Shift_19
Note_On_50_Vel_63
Time_Shift_193
Note_On_86_Vel_98
Time_Shift_26
Note_On_72_Vel_0
Time_Shift_22
Note_On_54_Vel_71
Time_Shift_54
Note_On_81_Vel_0
Time_Shift_88
Note_On_57_Vel_71
Time_Shift_150
Note_On_84_Vel_0
Time_Shift_5
Note_On_62_Vel_72
Time_Shift_1
Note_On_84_Vel_92
Time_Shift_129
Note_On_71_Vel_77
Time_Shift_19
Note_On_38_Vel_0
Time_Shift_11
Note_On_38_Vel_67
Time_Shift_24
Note_On_77_Vel_60
Time_Shift_7
Note_On_86_Vel_0
Time_Shift_1
Note_On_57_Vel_0
Note_On_54_Vel_0
Time_Shift_1
Note_On_62_Vel_0
Note_On_50_Vel_0
Time_Shift_1
Note_On_84_Vel_0
Time_Shift_3
Sustain_Off
Time_Shift_3
Note_On_80_Vel_75
Time_Shift_3
Note_On_78_Vel_0
Time_Shift_25
Note_On_83_Vel_91
Time_Shift_35
Note_On_50_Vel_61
Time_Shift_17
Sustain_On
Time_Shift_123
Note_On_50_Vel_0
Time_Shift_10
Note_On_50_Vel_59
Time_Shift_29
Note_On_84_Vel_96
Time_Shift_1
Note_On_53_Vel_65
Time_Shift_171
Note_On_56_Vel_71
Time_Shift_157
Note_On_83_Vel_0
Time_Shift_11
Note_On_83_Vel_91
Time_Shift_7
Note_On_62_Vel_73
Time_Shift_125
Note_On_70_Vel_66
Time_Shift_11
Note_On_38_Vel_0
Time_Shift_44
Note_On_73_Vel_71
Time_Shift_13
Note_On_38_Vel_62
Time_Shift_32
Note_On_84_Vel_0
Time_Shift_2
Note_On_53_Vel_0
Time_Shift_1
Note_On_62_Vel_0
Note_On_83_Vel_0
Note_On_80_Vel_0
Time_Shift_1
Note_On_56_Vel_0
Time_Shift_6
Note_On_76_Vel_62
Time_Shift_1
Note_On_71_Vel_0
Time_Shift_4
Sustain_Off
Time_Shift_11
Note_On_77_Vel_0
Time_Shift_8
Note_On_50_Vel_0
Time_Shift_38
Sustain_On
Time_Shift_7
Note_On_82_Vel_93
Time_Shift_5
Note_On_50_Vel_56
Time_Shift_26
Note_On_70_Vel_0
Time_Shift_131
Note_On_50_Vel_0
Time_Shift_8
Note_On_50_Vel_37
Time_Shift_59
Note_On_55_Vel_58
Time_Shift_179
Note_On_58_Vel_62
Time_Shift_202
Note_On_61_Vel_66
Time_Shift_208
Note_On_81_Vel_63
Time_Shift_28
Note_On_50_Vel_0
Time_Shift_7
Note_On_50_Vel_43
Time_Shift_4
Note_On_54_Vel_42
Time_Shift_11
Note_On_58_Vel_0
Time_Shift_1
Note_On_55_Vel_0
Note_On_82_Vel_0
Time_Shift_1
Note_On_38_Vel_0
Note_On_61_Vel_0
Note_On_76_Vel_0
Time_Shift_1
Note_On_73_Vel_0
Time_Shift_9
Sustain_Off
Time_Shift_119
Sustain_On
Time_Shift_41
Note_On_60_Vel_51
Time_Shift_225
Note_On_57_Vel_43
Time_Shift_214
Note_On_74_Vel_67
Time_Shift_50
Note_On_54_Vel_0
Time_Shift_4
Note_On_54_Vel_44
Time_Shift_310
Note_On_79_Vel_76
Time_Shift_59
Note_On_46_Vel_39
Time_Shift_91
Note_On_57_Vel_0
Time_Shift_1
Note_On_81_Vel_0
Note_On_60_Vel_0
Time_Shift_1
Note_On_54_Vel_0
Time_Shift_1
Sustain_Off
Time_Shift_9
Note_On_50_Vel_0
Time_Shift_108
Sustain_On
Time_Shift_20
Note_On_67_Vel_30
Time_Shift_39
Note_On_50_Vel_30
Time_Shift_172
Note_On_58_Vel_38
Time_Shift_153
Note_On_55_Vel_48
Time_Shift_211
Note_On_78_Vel_67
Time_Shift_12
Note_On_58_Vel_0
Time_Shift_1
Note_On_67_Vel_0
Note_On_79_Vel_0
Time_Shift_1
Note_On_50_Vel_0
Note_On_46_Vel_0
Time_Shift_1
Note_On_55_Vel_0
Time_Shift_4
Note_On_74_Vel_0
Time_Shift_15
Note_On_48_Vel_44
Time_Shift_2
Note_On_75_Vel_53
Time_Shift_136
Note_On_79_Vel_70
Time_Shift_62
Note_On_78_Vel_0
Time_Shift_9
Note_On_78_Vel_69
Time_Shift_17
Note_On_51_Vel_49
Time_Shift_28
Note_On_79_Vel_0
Time_Shift_11
Note_On_79_Vel_60
Time_Shift_50
Note_On_78_Vel_0
Time_Shift_7
Note_On_78_Vel_72
Time_Shift_47
Note_On_79_Vel_0
Time_Shift_7
Note_On_57_Vel_52
Time_Shift_3
Note_On_79_Vel_67
Time_Shift_52
Note_On_78_Vel_0
Time_Shift_5
Note_On_78_Vel_70
Time_Shift_48
Note_On_79_Vel_0
Time_Shift_5
Note_On_79_Vel_63
Time_Shift_103
Note_On_79_Vel_0
Time_Shift_6
Note_On_54_Vel_52
Time_Shift_4
Note_On_79_Vel_56
Time_Shift_44
Note_On_78_Vel_0
Time_Shift_10
Note_On_78_Vel_73
Time_Shift_86
Note_On_76_Vel_54
Time_Shift_57
Note_On_78_Vel_0
Time_Shift_6
Note_On_78_Vel_67
Time_Shift_109
Note_On_79_Vel_0
Time_Shift_4
Note_On_79_Vel_63
Time_Shift_26
Note_On_46_Vel_44
Time_Shift_19
Note_On_48_Vel_0
Note_On_75_Vel_0
Time_Shift_1
Note_On_57_Vel_0
Note_On_51_Vel_0
Time_Shift_2
Note_On_54_Vel_0
Note_On_78_Vel_0
Time_Shift_5
Note_On_76_Vel_0
Time_Shift_16
Sustain_Off
Time_Shift_150
Sustain_On
Time_Shift_12
Note_On_67_Vel_40
Time_Shift_23
Note_On_58_Vel_28
Time_Shift_144
Note_On_51_Vel_40
Time_Shift_2
Note_On_77_Vel_61
Time_Shift_115
Note_On_55_Vel_42
Time_Shift_40
Note_On_75_Vel_72
Time_Shift_180
Note_On_74_Vel_67
Time_Shift_15
Note_On_47_Vel_48
Time_Shift_24
Note_On_51_Vel_0
Note_On_46_Vel_0
Note_On_67_Vel_0
Time_Shift_1
Note_On_58_Vel_0
Note_On_77_Vel_0
Time_Shift_12
Note_On_79_Vel_0
Time_Shift_2
Sustain_Off
Time_Shift_91
Sustain_On
Time_Shift_2
Note_On_74_Vel_0
Time_Shift_7
Note_On_59_Vel_49
Time_Shift_16
Note_On_68_Vel_52
Time_Shift_161
Note_On_74_Vel_67
Time_Shift_2
Note_On_50_Vel_49
Time_Shift_22
Note_On_67_Vel_38
Time_Shift_143
Note_On_55_Vel_0
Time_Shift_6
Note_On_65_Vel_60
Time_Shift_2
Note_On_55_Vel_46
Time_Shift_173
Note_On_48_Vel_48
Time_Shift_6
Note_On_63_Vel_66
Time_Shift_139
Note_On_60_Vel_52
Time_Shift_2
Sustain_Off
Time_Shift_17
Note_On_75_Vel_0
Time_Shift_6
Note_On_47_Vel_0
Note_On_59_Vel_0
Time_Shift_1
Note_On_68_Vel_0
Time_Shift_1
Note_On_65_Vel_0
Time_Shift_1
Note_On_67_Vel_0
Note_On_75_Vel_78
Time_Shift_1
Note_On_50_Vel_0
Time_Shift_3
Note_On_74_Vel_0
Time_Shift_145
Note_On_72_Vel_78
Note_On_51_Vel_58
Time_Shift_81
Sustain_On
Time_Shift_71
Note_On_56_Vel_66
Note_On_68_Vel_76
Time_Shift_179
Note_On_64_Vel_53
Time_Shift_1
Note_On_49_Vel_55
Time_Shift_17
Note_On_56_Vel_0
Time_Shift_5
Note_On_56_Vel_46
Time_Shift_126
Note_On_67_Vel_77
Time_Shift_5
Note_On_58_Vel_62
Time_Shift_121
Sustain_Off
Time_Shift_6
Note_On_48_Vel_0
Note_On_63_Vel_0
Time_Shift_6
Note_On_55_Vel_0
Time_Shift_11
Note_On_55_Vel_71
Time_Shift_43
Note_On_60_Vel_0
Time_Shift_61
Sustain_On
Time_Shift_46
Note_On_49_Vel_0
Note_On_67_Vel_0
Time_Shift_5
Note_On_49_Vel_59
Time_Shift_3
Note_On_67_Vel_72
Time_Shift_154
Note_On_67_Vel_0
Time_Shift_10
Note_On_67_Vel_56
Time_Shift_14
Note_On_62_Vel_55
Time_Shift_29
Note_On_50_Vel_55
Time_Shift_27
Sustain_Off
Time_Shift_4
Sustain_On
Time_Shift_69
Note_On_68_Vel_0
Time_Shift_4
Note_On_68_Vel_80
Time_Shift_146
Note_On_69_Vel_88
Time_Shift_143
Note_On_70_Vel_91
Time_Shift_160
Note_On_56_Vel_0
Note_On_70_Vel_0
Time_Shift_5
Note_On_38_Vel_53
Time_Shift_3
Note_On_62_Vel_0
Time_Shift_1
Note_On_70_Vel_78
Time_Shift_4
Note_On_66_Vel_52
Time_Shift_1
Note_On_60_Vel_56
Time_Shift_4
Note_On_62_Vel_58
Time_Shift_29
Note_On_51_Vel_0
Note_On_75_Vel_0
Time_Shift_3
Note_On_55_Vel_0
Note_On_50_Vel_0
Time_Shift_1
Note_On_69_Vel_0
Note_On_68_Vel_0
Time_Shift_1
Sustain_Off
Time_Shift_10
Note_On_49_Vel_0
Note_On_64_Vel_0
Time_Shift_8
Note_On_58_Vel_0
Note_On_67_Vel_0
Note_On_72_Vel_0
Time_Shift_69
Sustain_On
Time_Shift_18
Note_On_39_Vel_72
Time_Shift_163
Note_On_40_Vel_68
Time_Shift_149
Note_On_42_Vel_83
Time_Shift_1
Note_On_69_Vel_80
Time_Shift_145
Note_On_62_Vel_0
Time_Shift_5
Note_On_43_Vel_99
Time_Shift_3
Note_On_31_Vel_89
Time_Shift_1
Note_On_67_Vel_76
Time_Shift_1
Note_On_62_Vel_82
Time_Shift_1
Note_On_58_Vel_84
Time_Shift_5
Note_On_66_Vel_0
Note_On_60_Vel_0
Time_Shift_1
Note_On_42_Vel_0
Note_On_40_Vel_0
Note_On_39_Vel_0
Time_Shift_1
Note_On_69_Vel_0
Time_Shift_1
Note_On_38_Vel_0
Time_Shift_4
Sustain_Off
Time_Shift_69
Sustain_On
Time_Shift_59
Note_On_44_Vel_95
Time_Shift_3
Note_On_32_Vel_84
Time_Shift_149
Note_On_57_Vel_83
Note_On_45_Vel_97
Note_On_33_Vel_93
Time_Shift_4
Note_On_57_Vel_0
Time_Shift_131
Note_On_46_Vel_104
Time_Shift_2
Note_On_34_Vel_93
Time_Shift_117
Note_On_45_Vel_0
Time_Shift_1
Note_On_32_Vel_0
Note_On_33_Vel_0
Time_Shift_1
Note_On_44_Vel_0
Time_Shift_1
Note_On_58_Vel_0
Note_On_46_Vel_0
Sustain_Off
Note_On_70_Vel_0
Time_Shift_1
Note_On_34_Vel_0
Time_Shift_7
Note_On_43_Vel_0
Time_Shift_8
Note_On_31_Vel_0
Time_Shift_8
Note_On_62_Vel_0
Note_On_67_Vel_0
Time_Shift_4
Note_On_67_Vel_93
Note_On_62_Vel_99
Time_Shift_1
Note_On_47_Vel_99
Note_On_74_Vel_96
Time_Shift_2
Note_On_55_Vel_93
Time_Shift_2
Note_On_65_Vel_89
Time_Shift_2
Note_On_35_Vel_94
Time_Shift_42
Sustain_On
Time_Shift_90
Note_On_56_Vel_104
Time_Shift_2
Note_On_68_Vel_95
Time_Shift_146
Note_On_47_Vel_0
Note_On_55_Vel_0
Note_On_67_Vel_0
Time_Shift_8
Note_On_35_Vel_0
Time_Shift_2
Note_On_47_Vel_102
Time_Shift_1
Note_On_55_Vel_100
Note_On_59_Vel_95
Time_Shift_1
Note_On_67_Vel_97
Note_On_35_Vel_100
Time_Shift_4
Note_On_59_Vel_0
Time_Shift_30
Note_On_65_Vel_0
Time_Shift_4
Note_On_56_Vel_0
Note_On_68_Vel_0
Time_Shift_7
Sustain_Off
Time_Shift_20
Note_On_62_Vel_0
Time_Shift_23
Note_On_55_Vel_0
Time_Shift_39
Sustain_On
Time_Shift_7
Note_On_67_Vel_0
Time_Shift_7
Note_On_79_Vel_107
Time_Shift_2
Note_On_67_Vel_105
Time_Shift_58
Note_On_67_Vel_0
Time_Shift_2
Sustain_Off
Time_Shift_5
Note_On_79_Vel_0
Time_Shift_3
Note_On_47_Vel_0
Time_Shift_8
Note_On_35_Vel_0
Note_On_74_Vel_0
Time_Shift_79
Note_On_67_Vel_100
Time_Shift_2
Note_On_60_Vel_94
Note_On_55_Vel_99
Time_Shift_1
Note_On_63_Vel_99
Note_On_48_Vel_97
Time_Shift_5
Note_On_36_Vel_89
Time_Shift_59
Sustain_On
Time_Shift_78
Note_On_49_Vel_100
Time_Shift_3
Note_On_37_Vel_88
Time_Shift_141
Note_On_55_Vel_0
Note_On_67_Vel_0
Time_Shift_8
Note_On_62_Vel_101
Time_Shift_1
Note_On_67_Vel_101
Note_On_50_Vel_105
Time_Shift_2
Note_On_55_Vel_98
Time_Shift_1
Note_On_38_Vel_103
Time_Shift_129
Note_On_51_Vel_106
Note_On_39_Vel_98
Time_Shift_147
Note_On_63_Vel_0
Time_Shift_1
Note_On_51_Vel_0
Note_On_49_Vel_0
Time_Shift_1
Note_On_37_Vel_0
Time_Shift_2
Note_On_55_Vel_0
Note_On_60_Vel_0
Note_On_62_Vel_0
Note_On_67_Vel_0
Time_Shift_7
Note_On_53_Vel_108
Time_Shift_1
Note_On_36_Vel_0
Note_On_48_Vel_0
Time_Shift_1
Note_On_41_Vel_100
Time_Shift_1
Sustain_Off
Note_On_55_Vel_96
Note_On_67_Vel_91
Time_Shift_1
Note_On_59_Vel_96
Note_On_62_Vel_99
Time_Shift_6
Note_On_65_Vel_84
Time_Shift_37
Sustain_On
Time_Shift_95
Note_On_56_Vel_103
Time_Shift_1
Note_On_68_Vel_99
Time_Shift_142
Note_On_41_Vel_0
Note_On_53_Vel_0
Note_On_67_Vel_0
Time_Shift_7
Note_On_53_Vel_105
Time_Shift_2
Note_On_67_Vel_94
Time_Shift_2
Note_On_41_Vel_97
Time_Shift_65
Sustain_Off
Time_Shift_6
Note_On_56_Vel_0
Note_On_59_Vel_0
Note_On_55_Vel_0
Time_Shift_1
Note_On_68_Vel_0
Time_Shift_2
Note_On_38_Vel_0
Note_On_50_Vel_0
Time_Shift_7
Note_On_39_Vel_0
Time_Shift_16
Note_On_65_Vel_0
Time_Shift_38
Note_On_67_Vel_0
Time_Shift_5
Note_On_67_Vel_103
Time_Shift_1
Note_On_79_Vel_104
Time_Shift_48
Note_On_62_Vel_0
Time_Shift_17
Note_On_67_Vel_0
Time_Shift_11
Note_On_79_Vel_0
Time_Shift_2
Note_On_53_Vel_0
Time_Shift_8
Note_On_41_Vel_0
Time_Shift_64
Note_On_55_Vel_97
Time_Shift_1
Note_On_67_Vel_98
Note_On_60_Vel_88
Time_Shift_1
Note_On_63_Vel_96
Time_Shift_4
Note_On_39_Vel_95
Note_On_51_Vel_103
Time_Shift_22
Sustain_On
Time_Shift_117
Note_On_50_Vel_104
Time_Shift_2
Note_On_38_Vel_98
Time_Shift_135
Note_On_67_Vel_0
Time_Shift_7
Note_On_55_Vel_0
Time_Shift_3
Note_On_67_Vel_100
Time_Shift_1
Note_On_55_Vel_101
Time_Shift_1
Note_On_49_Vel_101
Note_On_61_Vel_96
Time_Shift_1
Note_On_37_Vel_97
Time_Shift_17
Note_On_39_Vel_0
Time_Shift_5
Note_On_39_Vel_59
Time_Shift_114
Note_On_48_Vel_104
Time_Shift_3
Note_On_36_Vel_95
Time_Shift_147
Note_On_55_Vel_0
Note_On_61_Vel_0
Note_On_67_Vel_0
Time_Shift_5
Note_On_55_Vel_96
Note_On_46_Vel_91
Time_Shift_1
Note_On_67_Vel_86
Time_Shift_2
Note_On_63_Vel_0
Note_On_34_Vel_87
Time_Shift_2
Note_On_61_Vel_89
Time_Shift_3
Note_On_63_Vel_86
Time_Shift_1
Note_On_36_Vel_0
Note_On_38_Vel_0
Time_Shift_2
Note_On_49_Vel_0
Note_On_60_Vel_0
Note_On_51_Vel_0
Note_On_48_Vel_0
Sustain_Off
Time_Shift_1
Note_On_50_Vel_0
Time_Shift_52
Sustain_On
Time_Shift_96
Note_On_68_Vel_98
Time_Shift_1
Note_On_56_Vel_98
Time_Shift_4
Note_On_44_Vel_97
Time_Shift_2
Note_On_32_Vel_85
Time_Shift_7
Note_On_66_Vel_68
Time_Shift_128
Note_On_70_Vel_100
Time_Shift_2
Note_On_58_Vel_101
Time_Shift_1
Note_On_31_Vel_98
Note_On_43_Vel_99
Time_Shift_140
Note_On_72_Vel_107
Time_Shift_1
Note_On_29_Vel_94
Time_Shift_1
Note_On_41_Vel_98
Time_Shift_3
Note_On_60_Vel_102
Time_Shift_3
Note_On_48_Vel_81
Note_On_36_Vel_87
Time_Shift_3
Note_On_70_Vel_0
Time_Shift_8
Note_On_70_Vel_70
Time_Shift_138
Note_On_61_Vel_0
Note_On_63_Vel_0
Time_Shift_1
Note_On_73_Vel_111
Time_Shift_4
Note_On_61_Vel_103
Time_Shift_2
Sustain_Off
Time_Shift_3
Note_On_63_Vel_84
Time_Shift_13
Note_On_36_Vel_0
Time_Shift_8
Note_On_39_Vel_0
Time_Shift_4
Note_On_34_Vel_0
Note_On_41_Vel_0
Note_On_56_Vel_0
Note_On_72_Vel_0
Time_Shift_1
Note_On_46_Vel_0
Note_On_58_Vel_0
Time_Shift_1
Note_On_60_Vel_0
Time_Shift_1
Note_On_68_Vel_0
Note_On_44_Vel_0
Note_On_48_Vel_0
Time_Shift_1
Note_On_32_Vel_0
Time_Shift_1
Note_On_43_Vel_0
Note_On_31_Vel_0
Time_Shift_6
Note_On_67_Vel_0
Time_Shift_8
Note_On_37_Vel_0
Note_On_55_Vel_0
Note_On_66_Vel_0
Time_Shift_38
Sustain_On
Time_Shift_77
Note_On_29_Vel_0
Time_Shift_4
Note_On_31_Vel_86
Time_Shift_1
Note_On_43_Vel_88
Time_Shift_141
Note_On_73_Vel_0
Time_Shift_8
Note_On_61_Vel_0
Time_Shift_2
Note_On_73_Vel_104
Time_Shift_2
Note_On_61_Vel_98
Time_Shift_2
Note_On_65_Vel_78
Time_Shift_2
Note_On_46_Vel_81
Note_On_34_Vel_80
Time_Shift_11
Sustain_Off
Time_Shift_73
Sustain_On
Time_Shift_73
Note_On_50_Vel_84
Time_Shift_3
Note_On_38_Vel_88
Time_Shift_180
Note_On_72_Vel_92
Time_Shift_8
Note_On_67_Vel_69
Time_Shift_12
Sustain_Off
Note_On_61_Vel_0
Note_On_63_Vel_0
Time_Shift_6
Note_On_38_Vel_0
Note_On_34_Vel_0
Note_On_46_Vel_0
Time_Shift_1
Note_On_50_Vel_0
Time_Shift_4
Note_On_61_Vel_71
Time_Shift_5
Note_On_43_Vel_0
Time_Shift_6
Note_On_39_Vel_64
Time_Shift_1
Note_On_65_Vel_0
Note_On_70_Vel_0
Note_On_73_Vel_0
Note_On_51_Vel_50
Time_Shift_8
Note_On_31_Vel_0
Time_Shift_107
Sustain_On
Time_Shift_34
Note_On_70_Vel_89
Time_Shift_181
Note_On_61_Vel_0
Time_Shift_6
Note_On_65_Vel_79
Time_Shift_3
Note_On_61_Vel_79
Time_Shift_22
Note_On_39_Vel_0
Note_On_51_Vel_0
Time_Shift_5
Note_On_51_Vel_50
Time_Shift_1
Sustain_Off
Time_Shift_5
Note_On_39_Vel_51
Time_Shift_58
Sustain_On
Time_Shift_8
Note_On_72_Vel_0
Time_Shift_84
Note_On_67_Vel_0
Time_Shift_7
Note_On_67_Vel_67
Time_Shift_4
Note_On_63_Vel_75
Time_Shift_190
Note_On_68_Vel_71
Time_Shift_10
Note_On_65_Vel_0
Time_Shift_1
Note_On_44_Vel_54
Sustain_Off
Note_On_67_Vel_0
Time_Shift_1
Note_On_60_Vel_51
Time_Shift_3
Note_On_56_Vel_47
Time_Shift_1
Note_On_51_Vel_0
Time_Shift_1
Note_On_63_Vel_0
Note_On_39_Vel_0
Time_Shift_21
Note_On_61_Vel_0
Note_On_70_Vel_0
Time_Shift_24
Note_On_60_Vel_0
Time_Shift_75
Note_On_68_Vel_0
Time_Shift_21
Note_On_71_Vel_71
Time_Shift_10
Sustain_On
Time_Shift_5
Note_On_59_Vel_56
Time_Shift_34
Note_On_56_Vel_0
Time_Shift_25
Sustain_Off
Time_Shift_3
Note_On_59_Vel_0
Time_Shift_15
Note_On_71_Vel_0
Time_Shift_41
Sustain_On
Time_Shift_11
Note_On_72_Vel_76
Time_Shift_2
Note_On_60_Vel_67
Time_Shift_136
Note_On_73_Vel_79
Time_Shift_7
Note_On_61_Vel_66
Time_Shift_120
Note_On_44_Vel_0
Time_Shift_7
Sustain_Off
Time_Shift_2
Note_On_61_Vel_0
Time_Shift_1
Note_On_60_Vel_0
Time_Shift_2
Note_On_72_Vel_0
Note_On_73_Vel_0
Note_On_74_Vel_78
Time_Shift_21
Note_On_54_Vel_58
Time_Shift_2
Note_On_62_Vel_61
Time_Shift_1
Note_On_48_Vel_54
Time_Shift_18
Sustain_On
Time_Shift_105
Note_On_55_Vel_57
Time_Shift_3
Note_On_46_Vel_57
Time_Shift_3
Note_On_50_Vel_54
Time_Shift_127
Note_On_50_Vel_0
Time_Shift_8
Note_On_62_Vel_0
Note_On_74_Vel_0
Time_Shift_1
Note_On_50_Vel_62
Time_Shift_3
Note_On_74_Vel_84
Time_Shift_2
Note_On_62_Vel_80
Time_Shift_4
Note_On_47_Vel_61
Time_Shift_1
Note_On_56_Vel_69
Time_Shift_31
Note_On_55_Vel_0
Time_Shift_6
Note_On_46_Vel_0
Time_Shift_4
Note_On_54_Vel_0
Time_Shift_86
Note_On_48_Vel_0
Time_Shift_5
Note_On_57_Vel_72
Note_On_48_Vel_75
Time_Shift_133
Note_On_74_Vel_0
Time_Shift_8
Note_On_62_Vel_0
Time_Shift_2
Note_On_74_Vel_80
Time_Shift_4
Note_On_62_Vel_79
Note_On_58_Vel_70
Time_Shift_5
Note_On_46_Vel_65
Time_Shift_19
Note_On_48_Vel_0
Time_Shift_2
Sustain_Off
Note_On_57_Vel_0
Time_Shift_1
Note_On_56_Vel_0
Time_Shift_6
Note_On_47_Vel_0
Time_Shift_30
Note_On_50_Vel_0
Time_Shift_16
Sustain_On
Time_Shift_48
Note_On_75_Vel_88
Time_Shift_19
Note_On_63_Vel_75
Time_Shift_121
Note_On_76_Vel_89
Note_On_64_Vel_79
Time_Shift_1
Note_On_49_Vel_71
Time_Shift_87
Note_On_50_Vel_76
Time_Shift_36
Note_On_77_Vel_94
Time_Shift_6
Note_On_65_Vel_88
Time_Shift_130
Note_On_58_Vel_0
Note_On_77_Vel_0
Note_On_65_Vel_0
Note_On_46_Vel_0
Note_On_50_Vel_0
Note_On_64_Vel_0
Time_Shift_1
Note_On_63_Vel_0
Note_On_76_Vel_0
Note_On_75_Vel_0
Note_On_49_Vel_0
Time_Shift_1
Note_On_78_Vel_95
Note_On_60_Vel_61
Time_Shift_1
Note_On_51_Vel_63
Note_On_48_Vel_65
Sustain_Off
Time_Shift_3
Note_On_57_Vel_61
Time_Shift_1
Note_On_66_Vel_87
Time_Shift_5
Note_On_62_Vel_0
Note_On_74_Vel_0
Time_Shift_16
Note_On_48_Vel_0
Time_Shift_46
Sustain_On
Time_Shift_69
Note_On_51_Vel_0
Note_On_57_Vel_0
Time_Shift_7
Note_On_51_Vel_69
Time_Shift_4
Note_On_57_Vel_45
Time_Shift_102
Sustain_Off
Time_Shift_5
Note_On_60_Vel_0
Time_Shift_13
Note_On_78_Vel_0
Time_Shift_7
Note_On_78_Vel_84
Note_On_57_Vel_0
Note_On_66_Vel_0
Time_Shift_4
Note_On_66_Vel_70
Time_Shift_2
Note_On_50_Vel_60
Time_Shift_2
Note_On_57_Vel_51
Time_Shift_15
Sustain_On
Time_Shift_115
Note_On_57_Vel_0
Time_Shift_6
Note_On_57_Vel_70
Time_Shift_115
Note_On_43_Vel_60
Time_Shift_5
Note_On_57_Vel_0
Time_Shift_1
Note_On_50_Vel_0
Note_On_78_Vel_0
Note_On_66_Vel_0
Time_Shift_3
Sustain_Off
Time_Shift_1
Note_On_51_Vel_0
Time_Shift_8
Note_On_79_Vel_76
Time_Shift_2
Note_On_67_Vel_70
Time_Shift_44
Sustain_On
Time_Shift_10
Note_On_58_Vel_58
Time_Shift_75
Note_On_80_Vel_87
Time_Shift_15
Note_On_68_Vel_66
Time_Shift_1
Note_On_79_Vel_0
Time_Shift_1
Note_On_43_Vel_0
Time_Shift_1
Note_On_58_Vel_0
Time_Shift_4
Note_On_67_Vel_0
Time_Shift_4
Sustain_Off
Time_Shift_65
Sustain_On
Time_Shift_16
Note_On_68_Vel_0
Time_Shift_19
Note_On_81_Vel_85
Time_Shift_2
Note_On_69_Vel_74
Time_Shift_125
Note_On_82_Vel_95
Time_Shift_3
Note_On_70_Vel_82
Time_Shift_129
Note_On_70_Vel_0
Time_Shift_1
Note_On_80_Vel_0
Time_Shift_1
Note_On_82_Vel_0
Note_On_69_Vel_0
Note_On_83_Vel_88
Time_Shift_1
Note_On_81_Vel_0
Time_Shift_3
Note_On_71_Vel_83
Time_Shift_1
Note_On_63_Vel_76
Time_Shift_1
Sustain_Off
Time_Shift_2
Note_On_57_Vel_73
Time_Shift_4
Note_On_54_Vel_65
Time_Shift_46
Sustain_On
Time_Shift_65
Note_On_55_Vel_71
Time_Shift_2
Note_On_64_Vel_69
Time_Shift_2
Note_On_59_Vel_72
Time_Shift_115
Note_On_71_Vel_0
Note_On_83_Vel_0
Time_Shift_5
Note_On_57_Vel_0
Time_Shift_2
Note_On_64_Vel_0
Time_Shift_1
Note_On_55_Vel_0
Time_Shift_1
Note_On_83_Vel_93
Time_Shift_1
Note_On_71_Vel_90
Time_Shift_5
Note_On_54_Vel_0
Note_On_63_Vel_0
Time_Shift_4
Sustain_Off
Time_Shift_5
Note_On_65_Vel_74
Time_Shift_1
Note_On_56_Vel_73
Time_Shift_29
Sustain_On
Time_Shift_96
Note_On_66_Vel_84
Time_Shift_2
Note_On_57_Vel_68
Time_Shift_109
Note_On_71_Vel_0
Note_On_83_Vel_0
Time_Shift_9
Note_On_66_Vel_0
Note_On_56_Vel_0
Note_On_57_Vel_0
Note_On_83_Vel_88
Time_Shift_2
Note_On_65_Vel_0
Time_Shift_1
Note_On_71_Vel_74
Time_Shift_5
Sustain_Off
Time_Shift_1
Note_On_55_Vel_64
Time_Shift_36
Sustain_On
Time_Shift_89
Note_On_84_Vel_90
Time_Shift_1
Note_On_72_Vel_87
Time_Shift_121
Note_On_58_Vel_83
Time_Shift_2
Note_On_85_Vel_93
Time_Shift_5
Note_On_73_Vel_89
Time_Shift_81
Note_On_59_Vel_0
Time_Shift_11
Note_On_59_Vel_70
Time_Shift_12
Note_On_58_Vel_0
Time_Shift_8
Note_On_58_Vel_72
Note_On_86_Vel_97
Time_Shift_3
Note_On_74_Vel_92
Time_Shift_63
Note_On_54_Vel_80
Time_Shift_3
Note_On_72_Vel_0
Note_On_71_Vel_0
Time_Shift_3
Note_On_74_Vel_0
Note_On_59_Vel_0
Note_On_84_Vel_0
Note_On_86_Vel_0
Note_On_83_Vel_0
Time_Shift_1
Note_On_73_Vel_0
Note_On_85_Vel_0
Note_On_58_Vel_0
Time_Shift_7
Sustain_Off
Time_Shift_5
Note_On_55_Vel_0
Time_Shift_46
Sustain_On
Time_Shift_5
Note_On_87_Vel_96
Time_Shift_6
Note_On_75_Vel_94
Time_Shift_1
Note_On_69_Vel_80
Time_Shift_107
Note_On_60_Vel_81
Time_Shift_115
Note_On_59_Vel_84
Time_Shift_19
Note_On_75_Vel_0
Note_On_87_Vel_0
Time_Shift_4
Note_On_87_Vel_95
Time_Shift_2
Note_On_75_Vel_97
Time_Shift_120
Note_On_66_Vel_89
Time_Shift_97
Note_On_59_Vel_0
Time_Shift_5
Note_On_52_Vel_75
Time_Shift_6
Note_On_59_Vel_75
Time_Shift_33
Note_On_88_Vel_99
Time_Shift_3
Note_On_76_Vel_101
Time_Shift_2
Note_On_67_Vel_105
Time_Shift_18
Note_On_69_Vel_0
Time_Shift_1
Note_On_60_Vel_0
Time_Shift_3
Note_On_66_Vel_0
Time_Shift_1
Note_On_87_Vel_0
Time_Shift_1
Note_On_75_Vel_0
Time_Shift_1
Sustain_Off
Time_Shift_3
Note_On_59_Vel_0
Time_Shift_4
Note_On_76_Vel_0
Time_Shift_1
Note_On_67_Vel_0
Time_Shift_2
Note_On_54_Vel_0
Time_Shift_1
Note_On_52_Vel_0
Time_Shift_76
Note_On_89_Vel_94
Time_Shift_1
Note_On_77_Vel_85
Time_Shift_7
Note_On_88_Vel_0
Time_Shift_46
Note_On_77_Vel_0
Time_Shift_63
Note_On_90_Vel_88
Time_Shift_2
Note_On_78_Vel_88
Time_Shift_39
Note_On_78_Vel_0
Time_Shift_7
Note_On_90_Vel_0
Time_Shift_4
Note_On_89_Vel_0
Time_Shift_63
Note_On_91_Vel_96
Time_Shift_2
Note_On_79_Vel_85
Time_Shift_24
Note_On_79_Vel_0
Time_Shift_91
Note_On_47_Vel_70
Time_Shift_1
Note_On_92_Vel_94
Time_Shift_7
Note_On_80_Vel_80
Time_Shift_12
Note_On_91_Vel_0
Time_Shift_11
Note_On_47_Vel_0
Time_Shift_8
Note_On_80_Vel_0
Time_Shift_50
Note_On_92_Vel_0
Time_Shift_34
Note_On_91_Vel_92
Note_On_79_Vel_84
Time_Shift_40
Note_On_79_Vel_0
Time_Shift_5
Note_On_91_Vel_0
Time_Shift_71
Note_On_65_Vel_69
Time_Shift_3
Note_On_62_Vel_68
Time_Shift_1
Note_On_90_Vel_94
Time_Shift_4
Note_On_55_Vel_56
Time_Shift_6
Note_On_81_Vel_77
Time_Shift_10
Note_On_65_Vel_0
Time_Shift_23
Note_On_81_Vel_0
Time_Shift_3
Note_On_62_Vel_0
Time_Shift_15
Note_On_55_Vel_0
Time_Shift_51
Note_On_89_Vel_91
Time_Shift_5
Note_On_83_Vel_85
Time_Shift_68
Note_On_83_Vel_0
Time_Shift_41
Note_On_88_Vel_88
Time_Shift_4
Note_On_90_Vel_0
Time_Shift_6
Note_On_84_Vel_83
Note_On_48_Vel_73
Time_Shift_22
Note_On_89_Vel_0
Time_Shift_17
Note_On_88_Vel_0
Time_Shift_6
Note_On_84_Vel_0
Time_Shift_3
Note_On_48_Vel_0
Time_Shift_67
Note_On_87_Vel_85
Note_On_79_Vel_75
Time_Shift_31
Note_On_79_Vel_0
Time_Shift_86
Note_On_86_Vel_87
Time_Shift_3
Note_On_63_Vel_73
Note_On_60_Vel_69
Time_Shift_3
Note_On_77_Vel_79
Time_Shift_2
Note_On_55_Vel_60
Time_Shift_23
Note_On_87_Vel_0
Time_Shift_3
Note_On_63_Vel_0
Time_Shift_1
Note_On_77_Vel_0
Note_On_60_Vel_0
Time_Shift_6
Note_On_55_Vel_0
Time_Shift_3
Note_On_86_Vel_0
Time_Shift_72
Note_On_87_Vel_93
Time_Shift_88
Note_On_73_Vel_88
Time_Shift_7
Note_On_85_Vel_74
Time_Shift_1
Note_On_87_Vel_0
Time_Shift_15
Note_On_43_Vel_78
Time_Shift_10
Note_On_73_Vel_0
Time_Shift_26
Note_On_89_Vel_106
Time_Shift_13
Note_On_85_Vel_0
Time_Shift_16
Note_On_43_Vel_0
Time_Shift_63
Note_On_87_Vel_87
Time_Shift_10
Note_On_89_Vel_0
Time_Shift_114
Note_On_58_Vel_74
Time_Shift_1
Note_On_85_Vel_87
Time_Shift_1
Note_On_63_Vel_78
Time_Shift_4
Note_On_51_Vel_74
Time_Shift_1
Note_On_79_Vel_71
Time_Shift_13
Note_On_87_Vel_0
Time_Shift_9
Note_On_58_Vel_0
Time_Shift_22
Note_On_51_Vel_0
Time_Shift_15
Note_On_63_Vel_0
Time_Shift_30
Note_On_73_Vel_87
Time_Shift_5
Note_On_82_Vel_84
Time_Shift_34
Note_On_73_Vel_0
Time_Shift_23
Note_On_85_Vel_0
Time_Shift_71
Note_On_44_Vel_67
Time_Shift_1
Note_On_80_Vel_84
Time_Shift_1
Note_On_72_Vel_83
Time_Shift_12
Note_On_79_Vel_0
Time_Shift_15
Note_On_82_Vel_0
Time_Shift_4
Note_On_72_Vel_0
Time_Shift_1
Note_On_44_Vel_0
Time_Shift_84
Note_On_82_Vel_84
Time_Shift_5
Note_On_68_Vel_72
Time_Shift_29
Note_On_68_Vel_0
Time_Shift_8
Note_On_80_Vel_0
Time_Shift_80
Note_On_83_Vel_87
Time_Shift_3
Note_On_51_Vel_66
Note_On_75_Vel_78
Time_Shift_1
Note_On_60_Vel_65
Time_Shift_4
Note_On_56_Vel_62
Time_Shift_3
Note_On_82_Vel_0
Time_Shift_15
Note_On_60_Vel_0
Time_Shift_8
Note_On_51_Vel_0
Note_On_75_Vel_0
Time_Shift_24
Note_On_56_Vel_0
Time_Shift_11
Note_On_83_Vel_0
Time_Shift_45
Note_On_84_Vel_89
Time_Shift_1
Note_On_72_Vel_85
Time_Shift_1
Note_On_75_Vel_65
Time_Shift_38
Note_On_72_Vel_0
Time_Shift_12
Note_On_75_Vel_0
Note_On_84_Vel_0
Time_Shift_72
Note_On_85_Vel_86
Time_Shift_6
Note_On_40_Vel_72
Time_Shift_1
Note_On_82_Vel_75
Time_Shift_30
Note_On_40_Vel_0
Time_Shift_52
Note_On_82_Vel_0
Time_Shift_29
Note_On_84_Vel_88
Time_Shift_3
Note_On_72_Vel_82
Time_Shift_26
Note_On_72_Vel_0
Time_Shift_26
Note_On_85_Vel_0
Time_Shift_64
Note_On_83_Vel_89
Time_Shift_4
Note_On_55_Vel_74
Time_Shift_1
Note_On_48_Vel_73
Time_Shift_1
Note_On_60_Vel_69
Time_Shift_1
Note_On_74_Vel_76
Time_Shift_27
Note_On_48_Vel_0
Time_Shift_33
Note_On_60_Vel_0
Note_On_74_Vel_0
Time_Shift_23
Note_On_55_Vel_0
Time_Shift_8
Note_On_84_Vel_0
Time_Shift_19
Note_On_82_Vel_95
Time_Shift_3
Note_On_76_Vel_82
Time_Shift_47
Note_On_83_Vel_0
Time_Shift_4
Note_On_76_Vel_0
Time_Shift_31
Note_On_82_Vel_0
Time_Shift_38
Note_On_53_Vel_81
Time_Shift_1
Note_On_41_Vel_76
Note_On_81_Vel_90
Time_Shift_4
Note_On_77_Vel_81
Time_Shift_18
Note_On_74_Vel_53
Time_Shift_6
Note_On_53_Vel_0
Time_Shift_4
Note_On_41_Vel_0
Time_Shift_83
Note_On_80_Vel_88
Time_Shift_7
Note_On_72_Vel_80
Time_Shift_7
Note_On_81_Vel_0
Time_Shift_12
Note_On_77_Vel_0
Time_Shift_9
Note_On_77_Vel_50
Time_Shift_6
Note_On_72_Vel_0
Time_Shift_16
Note_On_74_Vel_0
Time_Shift_30
Note_On_77_Vel_0
Time_Shift_23
Note_On_80_Vel_0
Time_Shift_11
Note_On_62_Vel_83
Note_On_79_Vel_89
Time_Shift_1
Note_On_53_Vel_74
Time_Shift_1
Note_On_56_Vel_71
Time_Shift_21
Note_On_74_Vel_61
Time_Shift_4
Note_On_53_Vel_0
Time_Shift_1
Note_On_62_Vel_0
Time_Shift_3
Note_On_56_Vel_0
Time_Shift_83
Note_On_74_Vel_0
Time_Shift_2
Note_On_79_Vel_0
Time_Shift_9
Note_On_68_Vel_77
Time_Shift_1
Note_On_77_Vel_79
Time_Shift_48
Note_On_68_Vel_0
Time_Shift_81
Note_On_79_Vel_85
Time_Shift_3
Note_On_43_Vel_72
Time_Shift_4
Note_On_67_Vel_73
Time_Shift_17
Note_On_77_Vel_0
Time_Shift_19
Note_On_43_Vel_0
Time_Shift_27
Note_On_67_Vel_0
Time_Shift_54
Note_On_79_Vel_0
Time_Shift_2
Note_On_83_Vel_91
Time_Shift_127
Note_On_86_Vel_88
Time_Shift_8
Note_On_65_Vel_60
Time_Shift_6
Note_On_55_Vel_54
Time_Shift_1
Note_On_59_Vel_59
Time_Shift_1
Note_On_79_Vel_68
Time_Shift_57
Sustain_On
Time_Shift_53
Note_On_83_Vel_0
Time_Shift_9
Note_On_91_Vel_89
Time_Shift_3
Note_On_83_Vel_80
Time_Shift_11
Note_On_62_Vel_61
Time_Shift_134
Note_On_87_Vel_84
Time_Shift_15
Note_On_86_Vel_0
Note_On_65_Vel_0
Time_Shift_1
Note_On_59_Vel_0
Note_On_62_Vel_0
Note_On_55_Vel_0
Note_On_83_Vel_0
Time_Shift_2
Note_On_79_Vel_0
Time_Shift_1
Note_On_84_Vel_63
Time_Shift_2
Note_On_63_Vel_60
Time_Shift_1
Note_On_91_Vel_0
Sustain_Off
Time_Shift_1
Note_On_60_Vel_52
Time_Shift_109
Note_On_79_Vel_68
Time_Shift_19
Sustain_On
Time_Shift_61
Note_On_87_Vel_0
Time_Shift_10
Note_On_87_Vel_79
Time_Shift_39
Note_On_89_Vel_91
Time_Shift_43
Note_On_87_Vel_0
Time_Shift_10
Note_On_87_Vel_91
Time_Shift_21
Note_On_84_Vel_0
Time_Shift_9
Note_On_84_Vel_59
Time_Shift_83
Note_On_86_Vel_98
Time_Shift_131
Note_On_87_Vel_0
Time_Shift_10
Note_On_87_Vel_89
Time_Shift_34
Note_On_58_Vel_53
Time_Shift_4
Note_On_85_Vel_65
Time_Shift_48
Note_On_84_Vel_0
Note_On_60_Vel_0
Time_Shift_1
Note_On_63_Vel_0
Time_Shift_1
Note_On_86_Vel_0
Time_Shift_1
Sustain_Off
Time_Shift_1
Note_On_89_Vel_0
Time_Shift_1
Note_On_79_Vel_0
Time_Shift_66
Note_On_79_Vel_58
Time_Shift_17
Sustain_On
Time_Shift_107
Note_On_85_Vel_0
Time_Shift_9
Note_On_85_Vel_80
Time_Shift_4
Note_On_55_Vel_55
Time_Shift_95
Note_On_85_Vel_0
Time_Shift_4
Note_On_94_Vel_88
Time_Shift_4
Note_On_85_Vel_71
Time_Shift_57
Note_On_84_Vel_86
Time_Shift_19
Note_On_85_Vel_0
Time_Shift_6
Note_On_85_Vel_76
Time_Shift_65
Note_On_92_Vel_93
Time_Shift_19
Note_On_58_Vel_0
Note_On_85_Vel_0
Time_Shift_4
Note_On_55_Vel_0
Time_Shift_1
Note_On_94_Vel_0
Time_Shift_5
Note_On_87_Vel_0
Time_Shift_8
Note_On_84_Vel_0
Time_Shift_4
Sustain_Off
Note_On_84_Vel_58
Note_On_56_Vel_53
Time_Shift_73
Note_On_79_Vel_0
Time_Shift_29
Note_On_83_Vel_76
Time_Shift_63
Sustain_On
Time_Shift_84
Note_On_84_Vel_0
Time_Shift_7
Note_On_62_Vel_71
Time_Shift_1
Note_On_84_Vel_76
Time_Shift_131
Note_On_90_Vel_94
Time_Shift_130
Note_On_83_Vel_0
Time_Shift_8
Note_On_91_Vel_89
Time_Shift_4
Note_On_83_Vel_75
Time_Shift_37
Note_On_55_Vel_48
Time_Shift_93
Note_On_79_Vel_83
Time_Shift_135
Note_On_84_Vel_0
Time_Shift_11
Note_On_84_Vel_87
Time_Shift_16
Note_On_67_Vel_53
Time_Shift_3
Note_On_56_Vel_0
Time_Shift_2
Note_On_81_Vel_57
Time_Shift_6
Note_On_91_Vel_0
Note_On_92_Vel_0
Note_On_55_Vel_0
Time_Shift_1
Note_On_79_Vel_0
Note_On_62_Vel_0
Time_Shift_2
Note_On_83_Vel_0
Time_Shift_1
Note_On_74_Vel_42
Time_Shift_10
Sustain_Off
Time_Shift_17
Note_On_90_Vel_0
Time_Shift_54
Sustain_On
Time_Shift_23
Note_On_74_Vel_0
Time_Shift_6
Note_On_86_Vel_86
Time_Shift_4
Note_On_83_Vel_73
Time_Shift_143
Note_On_84_Vel_0
Time_Shift_9
Note_On_87_Vel_81
Time_Shift_2
Note_On_84_Vel_76
Time_Shift_9
Note_On_60_Vel_51
Note_On_63_Vel_54
Time_Shift_62
Note_On_83_Vel_0
Time_Shift_1
Sustain_Off
Note_On_86_Vel_0
Time_Shift_2
Note_On_67_Vel_0
Time_Shift_1
Note_On_63_Vel_0
Time_Shift_14
Note_On_81_Vel_0
Time_Shift_6
Note_On_60_Vel_0
Time_Shift_7
Note_On_79_Vel_63
Time_Shift_31
Note_On_79_Vel_0
Time_Shift_56
Note_On_87_Vel_0
Time_Shift_8
Note_On_84_Vel_0
Time_Shift_3
Note_On_87_Vel_57
Time_Shift_4
Sustain_On
Time_Shift_1
Note_On_84_Vel_54
Time_Shift_44
Note_On_77_Vel_80
Time_Shift_28
Note_On_60_Vel_55
Time_Shift_4
Note_On_84_Vel_0
Time_Shift_11
Note_On_63_Vel_51
Time_Shift_24
Note_On_75_Vel_75
Note_On_72_Vel_71
Time_Shift_65
Note_On_87_Vel_0
Time_Shift_58
Note_On_74_Vel_75
Time_Shift_142
Note_On_75_Vel_0
Time_Shift_4
Note_On_75_Vel_80
Time_Shift_26
Note_On_73_Vel_56
Time_Shift_1
Note_On_58_Vel_54
Time_Shift_51
Note_On_72_Vel_0
Time_Shift_1
Note_On_77_Vel_0
Time_Shift_2
Note_On_60_Vel_0
Time_Shift_1
Note_On_74_Vel_0
Time_Shift_5
Sustain_Off
Time_Shift_66
Note_On_67_Vel_61
Time_Shift_19
Sustain_On
Time_Shift_115
Note_On_73_Vel_0
Time_Shift_7
Note_On_73_Vel_66
Time_Shift_1
Note_On_55_Vel_52
Time_Shift_112
Note_On_82_Vel_87
Time_Shift_111
Note_On_73_Vel_0
Time_Shift_4
Note_On_73_Vel_72
Time_Shift_54
Note_On_80_Vel_84
Time_Shift_8
Note_On_56_Vel_57
Time_Shift_6
Note_On_82_Vel_0
Time_Shift_1
Note_On_73_Vel_0
Time_Shift_1
Note_On_55_Vel_0
Note_On_58_Vel_0
Time_Shift_1
Note_On_63_Vel_0
Time_Shift_2
Note_On_67_Vel_0
Time_Shift_5
Sustain_Off
Time_Shift_2
Note_On_75_Vel_0
Time_Shift_85
Sustain_On
Time_Shift_29
Note_On_71_Vel_66
Time_Shift_144
Note_On_72_Vel_66
Time_Shift_14
Note_On_62_Vel_61
Time_Shift_21
Note_On_56_Vel_0
Time_Shift_22
Sustain_Off
Time_Shift_85
Sustain_On
Time_Shift_6
Note_On_78_Vel_81
Time_Shift_140
Note_On_71_Vel_0
Time_Shift_3
Note_On_79_Vel_82
Time_Shift_6
Note_On_71_Vel_66
Time_Shift_11
Sustain_Off
Time_Shift_4
Note_On_55_Vel_54
Time_Shift_1
Note_On_80_Vel_0
Time_Shift_1
Note_On_72_Vel_0
Time_Shift_3
Note_On_78_Vel_0
Time_Shift_31
Note_On_62_Vel_0
Time_Shift_47
Sustain_On
Time_Shift_31
Note_On_67_Vel_65
Time_Shift_156
Note_On_72_Vel_74
Time_Shift_20
Note_On_55_Vel_0
Time_Shift_6
Note_On_69_Vel_51
Time_Shift_5
Note_On_43_Vel_56
Note_On_55_Vel_51
Time_Shift_39
Note_On_71_Vel_0
Time_Shift_1
Note_On_67_Vel_0
Time_Shift_5
Note_On_79_Vel_0
Time_Shift_5
Sustain_Off
Time_Shift_47
Sustain_On
Time_Shift_27
Note_On_74_Vel_72
Note_On_71_Vel_58
Time_Shift_19
Note_On_55_Vel_0
Time_Shift_131
Note_On_72_Vel_0
Time_Shift_4
Note_On_55_Vel_61
Time_Shift_3
Note_On_48_Vel_64
Time_Shift_3
Note_On_75_Vel_73
Time_Shift_1
Note_On_72_Vel_63
Time_Shift_27
Note_On_69_Vel_0
Time_Shift_8
Note_On_74_Vel_0
Time_Shift_2
Note_On_55_Vel_0
Note_On_48_Vel_0
Note_On_72_Vel_0
Time_Shift_1
Note_On_43_Vel_0
Note_On_71_Vel_0
Time_Shift_1
Note_On_75_Vel_0
Time_Shift_1
Sustain_Off
Time_Shift_110
Sustain_On
Time_Shift_30
Note_On_36_Vel_59
Time_Shift_2
Note_On_79_Vel_84
Note_On_39_Vel_68
Time_Shift_143
Note_On_43_Vel_76
Time_Shift_3
Note_On_91_Vel_96
Time_Shift_9
Note_On_87_Vel_79
Time_Shift_120
Note_On_43_Vel_0
Note_On_87_Vel_0
Time_Shift_4
Sustain_Off
Time_Shift_1
Note_On_43_Vel_79
Time_Shift_1
Note_On_87_Vel_96
Time_Shift_2
Note_On_48_Vel_81
Time_Shift_2
Note_On_84_Vel_85
Time_Shift_21
Sustain_On
Time_Shift_107
Note_On_48_Vel_0
Note_On_79_Vel_0
Note_On_84_Vel_0
Time_Shift_8
Note_On_84_Vel_91
Time_Shift_2
Note_On_79_Vel_93
Time_Shift_1
Note_On_51_Vel_85
Time_Shift_1
Note_On_48_Vel_89
Time_Shift_119
Note_On_79_Vel_0
Time_Shift_8
Note_On_43_Vel_0
Note_On_48_Vel_0
Note_On_51_Vel_0
Time_Shift_2
Note_On_79_Vel_99
Time_Shift_3
Note_On_51_Vel_86
Time_Shift_2
Note_On_48_Vel_82
Time_Shift_2
Note_On_43_Vel_82
Note_On_55_Vel_88
Note_On_75_Vel_92
Time_Shift_52
Note_On_75_Vel_0
Time_Shift_6
Note_On_75_Vel_75
Time_Shift_71
Note_On_75_Vel_0
Time_Shift_8
Note_On_48_Vel_0
Note_On_55_Vel_0
Time_Shift_1
Note_On_75_Vel_91
Time_Shift_3
Note_On_55_Vel_79
Note_On_72_Vel_85
Time_Shift_4
Note_On_48_Vel_73
Time_Shift_1
Note_On_60_Vel_87
Time_Shift_129
Note_On_72_Vel_0
Time_Shift_8
Note_On_72_Vel_100
Time_Shift_15
Note_On_48_Vel_0
Note_On_55_Vel_0
Time_Shift_3
Note_On_67_Vel_75
Time_Shift_1
Note_On_48_Vel_67
Note_On_63_Vel_88
Time_Shift_3
Note_On_55_Vel_65
Time_Shift_146
Note_On_73_Vel_99
Time_Shift_13
Note_On_68_Vel_79
Time_Shift_12
Note_On_65_Vel_80
Time_Shift_4
Note_On_58_Vel_77
Time_Shift_71
Note_On_36_Vel_0
Time_Shift_7
Note_On_43_Vel_0
Time_Shift_1
Note_On_91_Vel_0
Time_Shift_3
Note_On_75_Vel_0
Note_On_55_Vel_0
Note_On_39_Vel_0
Note_On_63_Vel_0
Time_Shift_1
Note_On_48_Vel_0
Note_On_51_Vel_0
Note_On_72_Vel_0
Note_On_60_Vel_0
Note_On_87_Vel_0
Note_On_67_Vel_0
Time_Shift_1
Sustain_Off
Time_Shift_10
Note_On_84_Vel_0
Time_Shift_8
Note_On_79_Vel_0
Time_Shift_17
Note_On_69_Vel_87
Time_Shift_90
Note_On_68_Vel_0
Time_Shift_39
Sustain_On
Time_Shift_38
Note_On_70_Vel_89
Time_Shift_3
Note_On_67_Vel_61
Time_Shift_59
Note_On_69_Vel_0
Time_Shift_96
Note_On_68_Vel_86
Time_Shift_165
Note_On_67_Vel_0
Time_Shift_11
Note_On_67_Vel_71
Time_Shift_22
Note_On_51_Vel_60
Time_Shift_145
Sustain_Off
Time_Shift_2
Note_On_65_Vel_0
Time_Shift_1
Note_On_67_Vel_0
Note_On_70_Vel_0
Note_On_68_Vel_0
Note_On_58_Vel_0
Time_Shift_1
Note_On_73_Vel_0
Time_Shift_13
Note_On_77_Vel_80
Time_Shift_81
Sustain_On
Time_Shift_69
Note_On_77_Vel_0
Time_Shift_12
Note_On_77_Vel_62
Time_Shift_1
Note_On_70_Vel_66
Time_Shift_14
Note_On_55_Vel_59
Time_Shift_135
Note_On_70_Vel_0
Time_Shift_9
Note_On_75_Vel_76
Time_Shift_2
Note_On_70_Vel_55
Time_Shift_168
Note_On_72_Vel_73
Time_Shift_1
Note_On_56_Vel_77
Time_Shift_2
Note_On_68_Vel_65
Time_Shift_46
Note_On_55_Vel_0
Note_On_77_Vel_0
Note_On_72_Vel_0
Time_Shift_1
Note_On_70_Vel_0
Time_Shift_1
Note_On_75_Vel_0
Note_On_56_Vel_0
Note_On_68_Vel_0
Time_Shift_3
Sustain_Off
Time_Shift_5
Note_On_51_Vel_0
Time_Shift_100
Sustain_On
Time_Shift_26
Note_On_89_Vel_94
Time_Shift_5
Note_On_36_Vel_71
Time_Shift_1
Note_On_48_Vel_66
Note_On_44_Vel_64
Time_Shift_1
Note_On_32_Vel_70
Time_Shift_82
Note_On_32_Vel_0
Time_Shift_42
Note_On_96_Vel_97
Time_Shift_4
Note_On_36_Vel_0
Time_Shift_10
Note_On_92_Vel_91
Time_Shift_1
Note_On_36_Vel_82
Time_Shift_3
Note_On_41_Vel_71
Time_Shift_124
Note_On_41_Vel_0
Note_On_44_Vel_0
Note_On_89_Vel_0
Note_On_92_Vel_0
Time_Shift_9
Note_On_89_Vel_96
Note_On_92_Vel_101
Time_Shift_1
Note_On_44_Vel_81
Note_On_41_Vel_77
Time_Shift_1
Note_On_53_Vel_71
Time_Shift_77
Sustain_Off
Time_Shift_27
Sustain_On
Time_Shift_23
Note_On_89_Vel_0
Time_Shift_8
Note_On_41_Vel_0
Note_On_44_Vel_0
Note_On_48_Vel_0
Time_Shift_2
Note_On_89_Vel_93
Time_Shift_2
Note_On_84_Vel_97
Time_Shift_3
Note_On_48_Vel_85
Time_Shift_3
Note_On_41_Vel_81
Time_Shift_1
Note_On_44_Vel_82
Time_Shift_127
Note_On_48_Vel_0
Note_On_53_Vel_0
Note_On_84_Vel_0
Time_Shift_6
Note_On_84_Vel_90
Time_Shift_2
Note_On_80_Vel_84
Time_Shift_1
Note_On_48_Vel_82
Time_Shift_1
Note_On_53_Vel_78
Time_Shift_1
Note_On_72_Vel_78
Time_Shift_5
Note_On_72_Vel_0
Time_Shift_130
Note_On_44_Vel_0
Note_On_53_Vel_0
Note_On_80_Vel_0
Time_Shift_5
Note_On_53_Vel_81
Time_Shift_2
Note_On_80_Vel_94
Time_Shift_1
Note_On_72_Vel_77
Time_Shift_1
Note_On_77_Vel_89
Note_On_56_Vel_85
Note_On_44_Vel_75
Time_Shift_160
Note_On_56_Vel_0
Note_On_72_Vel_0
Note_On_77_Vel_0
Time_Shift_4
Note_On_77_Vel_88
Time_Shift_5
Note_On_72_Vel_81
Time_Shift_1
Note_On_56_Vel_86
Time_Shift_1
Note_On_60_Vel_92
Time_Shift_178
Note_On_61_Vel_94
Time_Shift_5
Note_On_70_Vel_84
Time_Shift_3
Note_On_55_Vel_73
Time_Shift_92
Sustain_Off
Time_Shift_8
Note_On_96_Vel_0
Time_Shift_1
Note_On_56_Vel_0
Note_On_80_Vel_0
Time_Shift_1
Note_On_53_Vel_0
Note_On_92_Vel_0
Time_Shift_3
Note_On_44_Vel_0
Note_On_41_Vel_0
Time_Shift_1
Note_On_72_Vel_0
Note_On_77_Vel_0
Note_On_89_Vel_0
Time_Shift_27
Note_On_36_Vel_0
Note_On_84_Vel_0
Time_Shift_6
Note_On_76_Vel_85
Time_Shift_71
Sustain_On
Time_Shift_57
Sustain_Off
Time_Shift_5
Sustain_On
Time_Shift_15
Note_On_70_Vel_0
Note_On_76_Vel_0
Time_Shift_8
Note_On_79_Vel_88
Time_Shift_3
Note_On_76_Vel_63
Note_On_70_Vel_62
Time_Shift_155
Note_On_77_Vel_78
Time_Shift_16
Sustain_Off
Time_Shift_10
Sustain_On
Time_Shift_138
Note_On_76_Vel_0
Time_Shift_12
Note_On_76_Vel_76
Time_Shift_31
Note_On_61_Vel_0
Time_Shift_3
Note_On_60_Vel_0
Time_Shift_5
Note_On_60_Vel_54
Time_Shift_12
Sustain_Off
Time_Shift_91
Sustain_On
Time_Shift_22
Note_On_67_Vel_53
Time_Shift_9
Note_On_48_Vel_0
Time_Shift_76
Note_On_77_Vel_0
Time_Shift_95
Note_On_72_Vel_62
Time_Shift_55
Note_On_52_Vel_43
Time_Shift_42
Sustain_Off
Time_Shift_35
Note_On_67_Vel_0
Time_Shift_4
Note_On_79_Vel_0
Time_Shift_3
Note_On_55_Vel_0
Time_Shift_20
Note_On_70_Vel_0
Time_Shift_5
Note_On_70_Vel_61
Time_Shift_172
Note_On_68_Vel_62
Note_On_65_Vel_49
Time_Shift_7
Note_On_53_Vel_52
Time_Shift_9
Note_On_52_Vel_0
Time_Shift_4
Note_On_72_Vel_0
Time_Shift_2
Note_On_70_Vel_0
Time_Shift_16
Note_On_60_Vel_0
Time_Shift_7
Note_On_53_Vel_0
Time_Shift_1
Note_On_76_Vel_0
Time_Shift_102
Note_On_70_Vel_66
Time_Shift_20
Note_On_67_Vel_44
Time_Shift_8
Note_On_65_Vel_0
Time_Shift_123
Note_On_68_Vel_0
Time_Shift_5
Note_On_71_Vel_65
Note_On_68_Vel_59
Note_On_65_Vel_72
Time_Shift_14
Note_On_70_Vel_0
Note_On_67_Vel_0
Time_Shift_73
Sustain_On
Time_Shift_39
Note_On_68_Vel_0
Time_Shift_5
Note_On_72_Vel_78
Time_Shift_5
Note_On_68_Vel_52
Time_Shift_140
Note_On_73_Vel_81
Time_Shift_134
Note_On_68_Vel_0
Time_Shift_4
Note_On_74_Vel_73
Time_Shift_1
Note_On_68_Vel_51
Time_Shift_4
Note_On_64_Vel_65
Time_Shift_111
Note_On_72_Vel_0
Time_Shift_1
Note_On_65_Vel_0
Time_Shift_1
Note_On_71_Vel_0
Note_On_68_Vel_0
Time_Shift_5
Sustain_Off
Time_Shift_4
Note_On_74_Vel_0
Time_Shift_1
Note_On_64_Vel_0
Time_Shift_14
Note_On_73_Vel_0
Time_Shift_3
Note_On_75_Vel_73
Time_Shift_1
Note_On_67_Vel_63
Time_Shift_6
Note_On_73_Vel_61
Time_Shift_8
Note_On_63_Vel_76
Time_Shift_112
Note_On_73_Vel_0
Time_Shift_6
Note_On_67_Vel_0
Time_Shift_6
Note_On_73_Vel_72
Note_On_51_Vel_65
Time_Shift_6
Note_On_70_Vel_68
Time_Shift_74
Note_On_75_Vel_0
Time_Shift_3
Note_On_73_Vel_0
Time_Shift_55
Note_On_72_Vel_76
Note_On_56_Vel_78
Time_Shift_2
Note_On_51_Vel_0
Time_Shift_1
Note_On_68_Vel_65
Time_Shift_32
Note_On_63_Vel_0
Note_On_70_Vel_0
Note_On_56_Vel_0
Time_Shift_3
Note_On_68_Vel_0
Note_On_72_Vel_0
Time_Shift_96
Note_On_73_Vel_81
Time_Shift_2
Note_On_70_Vel_77
Time_Shift_31
Note_On_73_Vel_0
Time_Shift_2
Note_On_70_Vel_0
Time_Shift_109
Note_On_75_Vel_82
Time_Shift_1
Note_On_68_Vel_87
Time_Shift_3
Note_On_72_Vel_76
Time_Shift_27
Note_On_72_Vel_0
Time_Shift_33
Note_On_68_Vel_0
Note_On_75_Vel_0
Time_Shift_73
Note_On_76_Vel_82
Time_Shift_3
Note_On_72_Vel_75
Time_Shift_4
Note_On_68_Vel_68
Time_Shift_23
Note_On_76_Vel_0
Time_Shift_20
Note_On_72_Vel_0
Time_Shift_76
Note_On_68_Vel_0
Time_Shift_10
Note_On_77_Vel_88
Time_Shift_1
Note_On_68_Vel_69
Note_On_72_Vel_82
Time_Shift_24
Note_On_72_Vel_0
Time_Shift_1
Note_On_68_Vel_0
Time_Shift_18
Note_On_77_Vel_0
Time_Shift_87
Note_On_78_Vel_89
Time_Shift_1
Note_On_68_Vel_85
Time_Shift_1
Note_On_72_Vel_79
Time_Shift_26
Note_On_68_Vel_0
Note_On_72_Vel_0
Time_Shift_2
Note_On_78_Vel_0
Time_Shift_110
Note_On_79_Vel_84
Note_On_67_Vel_84
Time_Shift_3
Note_On_71_Vel_78
Time_Shift_35
Note_On_67_Vel_0
Note_On_71_Vel_0
Time_Shift_3
Note_On_79_Vel_0
Time_Shift_90
Note_On_77_Vel_78
Note_On_55_Vel_73
Time_Shift_3
Note_On_74_Vel_70
Time_Shift_19
Note_On_71_Vel_44
Time_Shift_13
Note_On_74_Vel_0
Time_Shift_4
Note_On_77_Vel_0
Time_Shift_3
Note_On_55_Vel_0
Time_Shift_9
Note_On_71_Vel_0
Time_Shift_86
Note_On_67_Vel_68
Note_On_75_Vel_76
Time_Shift_1
Note_On_60_Vel_80
Time_Shift_3
Note_On_72_Vel_68
Time_Shift_27
Note_On_60_Vel_0
Time_Shift_2
Note_On_72_Vel_0
Time_Shift_5
Note_On_75_Vel_0
Time_Shift_5
Note_On_67_Vel_0
Time_Shift_94
Note_On_71_Vel_74
Time_Shift_1
Note_On_74_Vel_79
Time_Shift_1
Note_On_65_Vel_78
Time_Shift_3
Note_On_67_Vel_68
Time_Shift_3
Note_On_62_Vel_72
Time_Shift_1
Note_On_55_Vel_72
Time_Shift_25
Note_On_71_Vel_0
Time_Shift_4
Note_On_65_Vel_0
Time_Shift_1
Note_On_74_Vel_0
Time_Shift_1
Note_On_62_Vel_0
Time_Shift_19
Sustain_On
Time_Shift_75
Note_On_75_Vel_84
Time_Shift_7
Note_On_72_Vel_75
Time_Shift_12
Note_On_63_Vel_84
Time_Shift_6
Note_On_60_Vel_73
Time_Shift_87
Note_On_72_Vel_0
Note_On_63_Vel_0
Note_On_75_Vel_0
Time_Shift_1
Note_On_60_Vel_0
Time_Shift_2
Sustain_Off
Time_Shift_10
Note_On_55_Vel_0
Note_On_67_Vel_0
Time_Shift_10
Note_On_77_Vel_87
Time_Shift_8
Note_On_74_Vel_78
Time_Shift_7
Note_On_68_Vel_83
Time_Shift_2
Note_On_65_Vel_72
Time_Shift_4
Note_On_58_Vel_70
Time_Shift_46
Sustain_On
Time_Shift_66
Note_On_75_Vel_86
Time_Shift_1
Note_On_79_Vel_85
Time_Shift_6
Note_On_67_Vel_85
Time_Shift_1
Note_On_63_Vel_87
Time_Shift_86
Note_On_65_Vel_0
Time_Shift_1
Note_On_74_Vel_0
Time_Shift_1
Note_On_67_Vel_0
Note_On_77_Vel_0
Time_Shift_1
Note_On_58_Vel_0
Note_On_75_Vel_0
Note_On_79_Vel_0
Time_Shift_1
Note_On_63_Vel_0
Time_Shift_3
Sustain_Off
Time_Shift_2
Note_On_68_Vel_0
Time_Shift_30
Note_On_78_Vel_94
Time_Shift_3
Note_On_81_Vel_92
Time_Shift_1
Note_On_72_Vel_94
Time_Shift_4
Note_On_69_Vel_88
Time_Shift_11
Note_On_62_Vel_76
Time_Shift_12
Sustain_On
Time_Shift_103
Note_On_82_Vel_93
Time_Shift_1
Note_On_79_Vel_84
Time_Shift_2
Note_On_70_Vel_90
Time_Shift_5
Note_On_67_Vel_79
Time_Shift_4
Note_On_78_Vel_0
Time_Shift_8
Note_On_78_Vel_64
Time_Shift_94
Note_On_72_Vel_0
Note_On_79_Vel_0
Note_On_78_Vel_0
Time_Shift_1
Note_On_81_Vel_0
Time_Shift_1
Note_On_70_Vel_0
Time_Shift_1
Sustain_Off
Note_On_82_Vel_0
Time_Shift_3
Note_On_69_Vel_0
Time_Shift_7
Note_On_83_Vel_99
Time_Shift_1
Note_On_62_Vel_0
Time_Shift_1
Note_On_77_Vel_91
Time_Shift_2
Note_On_74_Vel_91
Time_Shift_43
Sustain_On
Time_Shift_90
Note_On_72_Vel_96
Time_Shift_1
Note_On_60_Vel_97
Time_Shift_1
Note_On_75_Vel_90
Time_Shift_20
Note_On_77_Vel_0
Time_Shift_4
Note_On_83_Vel_0
Time_Shift_1
Note_On_74_Vel_0
Time_Shift_77
Note_On_75_Vel_0
Time_Shift_5
Note_On_72_Vel_0
Time_Shift_4
Note_On_60_Vel_0
Time_Shift_6
Sustain_Off
Time_Shift_3
Note_On_86_Vel_99
Time_Shift_7
Note_On_83_Vel_97
Time_Shift_2
Note_On_77_Vel_97
Time_Shift_1
Note_On_67_Vel_0
Time_Shift_3
Note_On_74_Vel_95
Time_Shift_8
Note_On_67_Vel_88
Time_Shift_32
Note_On_67_Vel_0
Time_Shift_1
Note_On_74_Vel_0
Time_Shift_10
Note_On_86_Vel_0
Sustain_On
Time_Shift_74
Note_On_75_Vel_95
Note_On_84_Vel_91
Note_On_87_Vel_91
Time_Shift_1
Note_On_72_Vel_90
Time_Shift_3
Note_On_67_Vel_83
Time_Shift_60
Note_On_77_Vel_0
Time_Shift_21
Note_On_67_Vel_0
Note_On_83_Vel_0
Time_Shift_3
Note_On_84_Vel_0
Time_Shift_3
Sustain_Off
Time_Shift_37
Note_On_89_Vel_104
Time_Shift_1
Note_On_86_Vel_97
Time_Shift_1
Note_On_70_Vel_94
Time_Shift_1
Note_On_77_Vel_88
Note_On_80_Vel_101
Time_Shift_18
Sustain_On
Time_Shift_100
Note_On_87_Vel_0
Time_Shift_5
Note_On_91_Vel_98
Time_Shift_1
Note_On_87_Vel_95
Time_Shift_1
Note_On_75_Vel_0
Time_Shift_5
Note_On_79_Vel_96
Note_On_75_Vel_88
Time_Shift_116
Note_On_93_Vel_105
Sustain_Off
Time_Shift_1
Note_On_86_Vel_0
Note_On_87_Vel_0
Time_Shift_2
Note_On_79_Vel_0
Note_On_77_Vel_0
Note_On_70_Vel_0
Time_Shift_1
Note_On_89_Vel_0
Time_Shift_2
Note_On_90_Vel_102
Time_Shift_12
Note_On_80_Vel_0
Time_Shift_1
Note_On_84_Vel_93
Time_Shift_2
Note_On_74_Vel_92
Time_Shift_3
Note_On_81_Vel_85
Time_Shift_1
Note_On_75_Vel_0
Time_Shift_3
Note_On_80_Vel_75
Time_Shift_3
Note_On_83_Vel_74
Time_Shift_2
Note_On_75_Vel_66
Time_Shift_8
Sustain_On
Time_Shift_92
Note_On_91_Vel_0
Note_On_93_Vel_0
Time_Shift_5
Note_On_79_Vel_98
Note_On_94_Vel_101
Time_Shift_1
Note_On_91_Vel_102
Time_Shift_3
Note_On_82_Vel_105
Time_Shift_1
Note_On_93_Vel_92
Time_Shift_74
Sustain_Off
Time_Shift_8
Sustain_On
Time_Shift_8
Note_On_72_Vel_0
Time_Shift_33
Note_On_95_Vel_105
Note_On_86_Vel_104
Time_Shift_2
Note_On_89_Vel_99
Time_Shift_118
Note_On_84_Vel_0
Time_Shift_8
Note_On_90_Vel_0
Time_Shift_2
Note_On_87_Vel_101
Note_On_84_Vel_108
Time_Shift_2
Note_On_96_Vel_102
Note_On_72_Vel_105
Time_Shift_11
Note_On_80_Vel_0
Note_On_81_Vel_0
Time_Shift_68
Sustain_Off
Time_Shift_1
Note_On_74_Vel_0
Time_Shift_8
Note_On_93_Vel_0
Time_Shift_4
Note_On_79_Vel_0
Time_Shift_1
Note_On_89_Vel_0
Note_On_72_Vel_0
Time_Shift_1
Note_On_84_Vel_0
Note_On_87_Vel_0
Time_Shift_1
Note_On_86_Vel_0
Time_Shift_1
Note_On_75_Vel_0
Note_On_82_Vel_0
Time_Shift_8
Note_On_83_Vel_0
Time_Shift_7
Note_On_91_Vel_0
Note_On_94_Vel_0
Time_Shift_8
Note_On_95_Vel_0
Time_Shift_4
Note_On_98_Vel_105
Time_Shift_1
Note_On_95_Vel_97
Time_Shift_131
Note_On_99_Vel_104
Time_Shift_2
Note_On_96_Vel_0
Time_Shift_4
Note_On_87_Vel_101
Time_Shift_1
Note_On_96_Vel_93
Time_Shift_6
Note_On_60_Vel_109
Note_On_48_Vel_108
Time_Shift_130
Note_On_86_Vel_95
Note_On_83_Vel_99
Time_Shift_82
Sustain_On
Time_Shift_8
Sustain_Off
Time_Shift_38
Note_On_87_Vel_0
Time_Shift_11
Note_On_87_Vel_92
Time_Shift_1
Note_On_84_Vel_85
Time_Shift_34
Sustain_On
Time_Shift_103
Note_On_74_Vel_89
Time_Shift_2
Note_On_71_Vel_85
Time_Shift_128
Note_On_67_Vel_84
Note_On_55_Vel_102
Time_Shift_1
Note_On_72_Vel_90
Note_On_43_Vel_99
Time_Shift_19
Note_On_99_Vel_0
Time_Shift_111
Note_On_53_Vel_100
Note_On_41_Vel_96
Time_Shift_1
Note_On_62_Vel_92
Time_Shift_2
Note_On_59_Vel_96
Time_Shift_109
Note_On_95_Vel_0
Time_Shift_13
Note_On_96_Vel_0
Time_Shift_1
Note_On_86_Vel_0
Note_On_84_Vel_0
Time_Shift_1
Note_On_62_Vel_0
Note_On_83_Vel_0
Note_On_71_Vel_0
Time_Shift_1
Note_On_98_Vel_0
Note_On_48_Vel_0
Note_On_87_Vel_0
Note_On_72_Vel_0
Time_Shift_1
Note_On_59_Vel_0
Note_On_53_Vel_0
Time_Shift_2
Note_On_55_Vel_0
Note_On_74_Vel_0
Sustain_Off
Note_On_60_Vel_0
Note_On_41_Vel_0
Time_Shift_4
Note_On_67_Vel_0
Time_Shift_1
Note_On_51_Vel_108
Time_Shift_1
Note_On_39_Vel_100
Time_Shift_1
Note_On_63_Vel_95
Time_Shift_13
Note_On_43_Vel_0
Time_Shift_61
Note_On_39_Vel_0
Time_Shift_15
Sustain_On
Time_Shift_37
Note_On_59_Vel_86
Note_On_74_Vel_94
Time_Shift_2
Note_On_71_Vel_90
Time_Shift_143
Note_On_53_Vel_105
Time_Shift_2
Note_On_75_Vel_89
Time_Shift_2
Note_On_41_Vel_95
Time_Shift_125
Note_On_83_Vel_99
Note_On_86_Vel_102
Time_Shift_1
Note_On_55_Vel_103
Time_Shift_3
Note_On_43_Vel_95
Time_Shift_63
Note_On_74_Vel_0
Note_On_75_Vel_0
Note_On_55_Vel_0
Note_On_43_Vel_0
Note_On_53_Vel_0
Time_Shift_1
Note_On_71_Vel_0
Time_Shift_1
Note_On_41_Vel_0
Note_On_86_Vel_0
Time_Shift_1
Note_On_83_Vel_0
Time_Shift_3
Note_On_63_Vel_0
Time_Shift_4
Sustain_Off
Time_Shift_4
Note_On_51_Vel_0
Time_Shift_8
Note_On_59_Vel_0
Time_Shift_49
Note_On_86_Vel_89
Time_Shift_1
Note_On_56_Vel_110
Time_Shift_2
Note_On_44_Vel_102
Time_Shift_1
Note_On_84_Vel_92
Time_Shift_1
Note_On_87_Vel_95
Time_Shift_15
Sustain_On
Time_Shift_121
Note_On_98_Vel_109
Time_Shift_6
Note_On_95_Vel_96
Time_Shift_11
Note_On_87_Vel_0
Time_Shift_81
Note_On_98_Vel_0
Time_Shift_1
Note_On_86_Vel_0
Note_On_95_Vel_0
Time_Shift_3
Sustain_Off
Time_Shift_7
Note_On_56_Vel_0
Note_On_84_Vel_0
Time_Shift_8
Note_On_44_Vel_0
Time_Shift_27
Note_On_99_Vel_98
Time_Shift_2
Note_On_55_Vel_106
Time_Shift_4
Note_On_43_Vel_101
Time_Shift_28
Sustain_On
Time_Shift_135
Note_On_87_Vel_82
Time_Shift_2
Note_On_84_Vel_82
Time_Shift_67
Note_On_43_Vel_0
Time_Shift_1
Note_On_99_Vel_0
Note_On_87_Vel_0
Time_Shift_1
Note_On_55_Vel_0
Sustain_Off
Time_Shift_2
Note_On_84_Vel_0
Time_Shift_87
Note_On_53_Vel_89
Time_Shift_1
Note_On_41_Vel_88
Time_Shift_2
Note_On_86_Vel_83
Time_Shift_1
Note_On_80_Vel_82
Time_Shift_3
Note_On_92_Vel_72
Time_Shift_21
Sustain_On
Time_Shift_46
Note_On_92_Vel_0
Time_Shift_79
Note_On_84_Vel_76
Note_On_72_Vel_86
Time_Shift_1
Note_On_75_Vel_84
Time_Shift_16
Sustain_Off
Note_On_86_Vel_0
Time_Shift_2
Note_On_41_Vel_0
Time_Shift_1
Note_On_80_Vel_0
Time_Shift_3
Note_On_53_Vel_0
Time_Shift_23
Note_On_72_Vel_0
Time_Shift_12
Note_On_75_Vel_0
Time_Shift_9
Note_On_84_Vel_0
Time_Shift_63
Note_On_62_Vel_87
Time_Shift_1
Note_On_74_Vel_87
Time_Shift_1
Note_On_53_Vel_84
Note_On_68_Vel_82
Note_On_60_Vel_81
Time_Shift_3
Note_On_72_Vel_69
Time_Shift_62
Sustain_On
Time_Shift_54
Sustain_Off
Time_Shift_28
Note_On_87_Vel_88
Time_Shift_1
Note_On_84_Vel_97
Time_Shift_125
Note_On_84_Vel_0
Time_Shift_5
Note_On_86_Vel_85
Time_Shift_3
Sustain_On
Note_On_80_Vel_85
Time_Shift_1
Note_On_84_Vel_76
Time_Shift_138
Note_On_99_Vel_104
Time_Shift_4
Note_On_96_Vel_89
Time_Shift_95
Note_On_62_Vel_0
Time_Shift_1
Note_On_53_Vel_0
Note_On_74_Vel_0
Time_Shift_1
Note_On_80_Vel_0
Note_On_86_Vel_0
Note_On_84_Vel_0
Note_On_60_Vel_0
Note_On_87_Vel_0
Note_On_99_Vel_0
Note_On_68_Vel_0
Time_Shift_1
Note_On_96_Vel_0
Time_Shift_2
Sustain_Off
Time_Shift_2
Note_On_72_Vel_0
Time_Shift_36
Note_On_98_Vel_88
Time_Shift_1
Note_On_41_Vel_90
Time_Shift_1
Note_On_92_Vel_97
Time_Shift_1
Note_On_29_Vel_95
Time_Shift_53
Sustain_On
Time_Shift_82
Note_On_87_Vel_78
Time_Shift_1
Note_On_84_Vel_82
Time_Shift_79
Note_On_98_Vel_0
Time_Shift_3
Note_On_29_Vel_0
Time_Shift_1
Sustain_Off
Time_Shift_1
Note_On_92_Vel_0
Note_On_41_Vel_0
Time_Shift_4
Note_On_84_Vel_0
Time_Shift_1
Note_On_87_Vel_0
Time_Shift_30
Note_On_86_Vel_90
Time_Shift_3
Note_On_91_Vel_94
Time_Shift_1
Note_On_79_Vel_95
Time_Shift_3
Note_On_43_Vel_100
Time_Shift_2
Note_On_31_Vel_90
Time_Shift_28
Sustain_On
Time_Shift_103
Note_On_72_Vel_84
Note_On_75_Vel_88
Time_Shift_41
Note_On_43_Vel_0
Note_On_86_Vel_0
Time_Shift_3
Note_On_91_Vel_0
Time_Shift_1
Note_On_31_Vel_0
Note_On_79_Vel_0
Time_Shift_1
Sustain_Off
Note_On_72_Vel_0
Time_Shift_6
Note_On_75_Vel_0
Time_Shift_72
Note_On_62_Vel_92
Note_On_74_Vel_92
Time_Shift_1
Note_On_55_Vel_87
Note_On_67_Vel_84
Note_On_43_Vel_86
Time_Shift_2
Note_On_60_Vel_86
Time_Shift_10
Note_On_72_Vel_74
Time_Shift_36
Note_On_62_Vel_0
Time_Shift_77
Sustain_On
Time_Shift_25
Note_On_87_Vel_90
Note_On_84_Vel_90
Time_Shift_126
Note_On_86_Vel_94
Time_Shift_4
Note_On_79_Vel_90
Time_Shift_121
Note_On_43_Vel_0
Note_On_55_Vel_0
Time_Shift_13
Note_On_99_Vel_106
Time_Shift_5
Note_On_96_Vel_95
Time_Shift_113
Note_On_60_Vel_0
Sustain_Off
Time_Shift_4
Note_On_91_Vel_102
Note_On_98_Vel_99
Time_Shift_1
Note_On_43_Vel_104
Time_Shift_3
Note_On_31_Vel_96
Time_Shift_7
Note_On_72_Vel_0
Time_Shift_16
Sustain_On
Time_Shift_46
Note_On_67_Vel_0
Time_Shift_7
Note_On_74_Vel_0
Time_Shift_46
Note_On_84_Vel_0
Note_On_87_Vel_0
Time_Shift_9
Note_On_87_Vel_84
Note_On_84_Vel_92
Time_Shift_121
Sustain_Off
Time_Shift_3
Note_On_91_Vel_0
Time_Shift_1
Note_On_43_Vel_0
Note_On_84_Vel_0
Time_Shift_1
Note_On_87_Vel_0
Time_Shift_1
Note_On_31_Vel_0
Time_Shift_3
Note_On_86_Vel_0
Note_On_98_Vel_0
Note_On_99_Vel_0
Time_Shift_7
Note_On_79_Vel_0
Time_Shift_2
Note_On_86_Vel_93
Note_On_44_Vel_99
Time_Shift_1
Note_On_32_Vel_96
Note_On_78_Vel_97
Time_Shift_5
Note_On_96_Vel_0
Time_Shift_31
Sustain_On
Time_Shift_120
Note_On_71_Vel_66
Time_Shift_6
Note_On_74_Vel_72
Time_Shift_39
Note_On_86_Vel_0
Note_On_44_Vel_0
Time_Shift_1
Note_On_78_Vel_0
Note_On_71_Vel_0
Time_Shift_2
Sustain_Off
Time_Shift_2
Note_On_74_Vel_0
Time_Shift_22
Note_On_32_Vel_0
Time_Shift_39
Note_On_62_Vel_94
Time_Shift_2
Note_On_56_Vel_92
Time_Shift_1
Note_On_60_Vel_90
Note_On_72_Vel_84
Note_On_66_Vel_90
Time_Shift_27
Sustain_On
Time_Shift_126
Note_On_87_Vel_93
Time_Shift_1
Note_On_84_Vel_92
Time_Shift_121
Note_On_86_Vel_89
Time_Shift_1
Note_On_78_Vel_93
Time_Shift_146
Note_On_99_Vel_103
Time_Shift_1
Note_On_96_Vel_91
Time_Shift_109
Note_On_44_Vel_105
Time_Shift_5
Note_On_32_Vel_97
Time_Shift_4
Note_On_78_Vel_0
Time_Shift_3
Note_On_90_Vel_102
Time_Shift_1
Note_On_98_Vel_93
Time_Shift_81
Note_On_60_Vel_0
Time_Shift_15
Note_On_56_Vel_0
Time_Shift_16
Note_On_62_Vel_0
Time_Shift_7
Note_On_87_Vel_0
Time_Shift_8
Note_On_84_Vel_0
Time_Shift_4
Note_On_87_Vel_83
Note_On_84_Vel_87
Time_Shift_83
Sustain_Off
Time_Shift_15
Note_On_32_Vel_0
Time_Shift_2
Note_On_44_Vel_0
Time_Shift_11
Note_On_66_Vel_0
Note_On_72_Vel_0
Note_On_98_Vel_0
Note_On_99_Vel_0
Time_Shift_4
Note_On_90_Vel_0
Time_Shift_3
Note_On_87_Vel_0
Time_Shift_1
Note_On_86_Vel_0
Note_On_96_Vel_0
Note_On_84_Vel_0
Time_Shift_4
Note_On_86_Vel_89
Time_Shift_1
Note_On_43_Vel_102
Time_Shift_2
Note_On_31_Vel_91
Time_Shift_4
Note_On_79_Vel_91
Time_Shift_12
Sustain_On
Time_Shift_119
Note_On_72_Vel_84
Time_Shift_2
Note_On_75_Vel_82
Time_Shift_44
Sustain_Off
Time_Shift_3
Note_On_31_Vel_0
Time_Shift_32
Note_On_43_Vel_0
Time_Shift_7
Note_On_79_Vel_0
Note_On_86_Vel_0
Time_Shift_8
Note_On_72_Vel_0
Time_Shift_23
Sustain_On
Time_Shift_11
Note_On_67_Vel_85
Note_On_74_Vel_91
Time_Shift_1
Note_On_55_Vel_87
Note_On_62_Vel_92
Time_Shift_139
Note_On_87_Vel_90
Time_Shift_1
Note_On_84_Vel_91
Time_Shift_96
Sustain_Off
Note_On_62_Vel_0
Note_On_74_Vel_0
Time_Shift_1
Note_On_67_Vel_0
Note_On_87_Vel_0
Note_On_84_Vel_0
Time_Shift_1
Note_On_55_Vel_0
Time_Shift_3
Note_On_75_Vel_0
Time_Shift_27
Note_On_86_Vel_95
Time_Shift_2
Note_On_55_Vel_93
Time_Shift_2
Note_On_43_Vel_90
Time_Shift_2
Note_On_79_Vel_86
Time_Shift_6
Sustain_On
Time_Shift_127
Note_On_89_Vel_99
Note_On_92_Vel_99
Time_Shift_130
Note_On_87_Vel_93
Time_Shift_4
Note_On_55_Vel_0
Time_Shift_1
Note_On_91_Vel_93
Time_Shift_1
Note_On_65_Vel_95
Time_Shift_2
Note_On_55_Vel_82
Note_On_89_Vel_0
Note_On_86_Vel_0
Note_On_62_Vel_84
Time_Shift_1
Note_On_43_Vel_0
Time_Shift_1
Note_On_92_Vel_0
Time_Shift_22
Sustain_Off
Time_Shift_3
Note_On_79_Vel_0
Time_Shift_53
Sustain_On
Time_Shift_45
Note_On_95_Vel_102
Note_On_89_Vel_93
Time_Shift_1
Note_On_86_Vel_102
Time_Shift_25
Note_On_65_Vel_0
Time_Shift_14
Note_On_87_Vel_0
Sustain_Off
Time_Shift_10
Note_On_86_Vel_0
Time_Shift_5
Note_On_91_Vel_0
Time_Shift_8
Note_On_55_Vel_0
Time_Shift_8
Note_On_62_Vel_0
Time_Shift_7
Note_On_89_Vel_0
Time_Shift_46
Note_On_95_Vel_0
Time_Shift_19
Note_On_96_Vel_104
Note_On_84_Vel_104
Time_Shift_2
Note_On_87_Vel_97
Time_Shift_3
Note_On_63_Vel_97
Note_On_60_Vel_86
Time_Shift_48
Note_On_60_Vel_0
Time_Shift_2
Note_On_63_Vel_0
Time_Shift_82
Note_On_86_Vel_97
Note_On_89_Vel_104
Time_Shift_3
Note_On_98_Vel_91
Time_Shift_10
Note_On_98_Vel_0
Time_Shift_54
Sustain_On
Time_Shift_8
Note_On_87_Vel_0
Time_Shift_59
Note_On_90_Vel_100
Time_Shift_6
Note_On_87_Vel_95
Time_Shift_125
Note_On_91_Vel_102
Time_Shift_117
Note_On_96_Vel_0
Time_Shift_6
Sustain_Off
Time_Shift_2
Note_On_96_Vel_104
Note_On_87_Vel_0
Time_Shift_6
Note_On_75_Vel_95
Note_On_72_Vel_89
Note_On_87_Vel_90
Time_Shift_55
Sustain_On
Time_Shift_73
Note_On_74_Vel_84
Note_On_77_Vel_85
Time_Shift_150
Note_On_75_Vel_0
Time_Shift_9
Note_On_60_Vel_107
Note_On_78_Vel_97
Time_Shift_1
Note_On_75_Vel_95
Time_Shift_4
Note_On_72_Vel_0
Note_On_87_Vel_0
Time_Shift_3
Note_On_89_Vel_0
Time_Shift_2
Note_On_77_Vel_0
Note_On_74_Vel_0
Time_Shift_35
Note_On_91_Vel_0
Time_Shift_7
Note_On_84_Vel_0
Time_Shift_88
Note_On_79_Vel_85
Time_Shift_81
Note_On_86_Vel_0
Time_Shift_46
Note_On_90_Vel_0
Time_Shift_4
Note_On_78_Vel_0
Time_Shift_2
Note_On_79_Vel_0
Note_On_84_Vel_97
Time_Shift_11
Sustain_Off
Time_Shift_12
Note_On_63_Vel_84
Time_Shift_10
Note_On_75_Vel_0
Time_Shift_15
Sustain_On
Time_Shift_77
Note_On_96_Vel_0
Time_Shift_2
Note_On_65_Vel_86
Time_Shift_2
Note_On_62_Vel_86
Time_Shift_149
Note_On_63_Vel_0
Time_Shift_6
Note_On_66_Vel_95
Time_Shift_4
Note_On_63_Vel_91
Time_Shift_1
Note_On_48_Vel_102
Time_Shift_135
Note_On_67_Vel_88
Time_Shift_135
Note_On_51_Vel_93
Time_Shift_6
Note_On_72_Vel_102
Time_Shift_17
Sustain_Off
Time_Shift_2
Note_On_62_Vel_0
Time_Shift_2
Note_On_84_Vel_0
Time_Shift_1
Note_On_63_Vel_0
Note_On_48_Vel_0
Note_On_67_Vel_0
Time_Shift_1
Note_On_65_Vel_0
Time_Shift_1
Note_On_66_Vel_0
Time_Shift_4
Note_On_60_Vel_0
Time_Shift_62
Sustain_On
Time_Shift_49
Note_On_50_Vel_84
Note_On_53_Vel_96
Time_Shift_150
Note_On_51_Vel_0
Time_Shift_5
Note_On_60_Vel_106
Time_Shift_5
Note_On_54_Vel_88
Time_Shift_1
Note_On_51_Vel_83
Time_Shift_147
Note_On_55_Vel_101
Time_Shift_180
Note_On_72_Vel_0
Time_Shift_11
Note_On_72_Vel_104
Time_Shift_1
Note_On_63_Vel_106
Note_On_68_Vel_108
Time_Shift_2
Note_On_56_Vel_110
Time_Shift_2
Note_On_44_Vel_102
Time_Shift_48
Note_On_60_Vel_0
Time_Shift_1
Note_On_54_Vel_0
Note_On_55_Vel_0
Note_On_51_Vel_0
Note_On_50_Vel_0
Time_Shift_1
Note_On_53_Vel_0
Time_Shift_1
Sustain_Off
Time_Shift_118
Sustain_On
Time_Shift_151
Note_On_51_Vel_93
Time_Shift_1
Note_On_39_Vel_85
Time_Shift_136
Note_On_49_Vel_100
Time_Shift_2
Note_On_37_Vel_90
Time_Shift_136
Note_On_48_Vel_105
Time_Shift_9
Note_On_36_Vel_82
Time_Shift_129
Note_On_46_Vel_104
Time_Shift_2
Note_On_34_Vel_91
Time_Shift_133
Note_On_44_Vel_0
Time_Shift_5
Note_On_44_Vel_109
Time_Shift_1
Note_On_32_Vel_97
Time_Shift_144
Note_On_43_Vel_103
Note_On_31_Vel_96
Time_Shift_176
Note_On_42_Vel_107
Note_On_30_Vel_95
Time_Shift_70
Sustain_Off
Note_On_34_Vel_0
Time_Shift_1
Note_On_56_Vel_0
Note_On_37_Vel_0
Note_On_49_Vel_0
Note_On_36_Vel_0
Note_On_46_Vel_0
Time_Shift_1
Note_On_48_Vel_0
Note_On_51_Vel_0
Time_Shift_1
Note_On_68_Vel_0
Note_On_32_Vel_0
Time_Shift_1
Note_On_39_Vel_0
Note_On_44_Vel_0
Time_Shift_1
Note_On_72_Vel_0
Note_On_43_Vel_0
Note_On_63_Vel_0
Note_On_31_Vel_0
Time_Shift_98
Sustain_On
Time_Shift_25
Note_On_71_Vel_104
Time_Shift_174
Note_On_71_Vel_0
Time_Shift_7
Note_On_71_Vel_82
Time_Shift_1
Note_On_30_Vel_0
Note_On_68_Vel_88
Time_Shift_8
Note_On_62_Vel_74
Time_Shift_3
Note_On_30_Vel_76
Time_Shift_23
Sustain_Off
Time_Shift_51
Sustain_On
Time_Shift_85
Note_On_67_Vel_77
Time_Shift_191
Note_On_42_Vel_0
Note_On_72_Vel_83
Time_Shift_4
Sustain_Off
Time_Shift_6
Note_On_68_Vel_0
Note_On_67_Vel_0
Time_Shift_13
Note_On_71_Vel_0
Time_Shift_85
Note_On_30_Vel_0
Time_Shift_15
Sustain_On
Time_Shift_64
Note_On_26_Vel_50
Time_Shift_1
Note_On_38_Vel_58
Time_Shift_388
Note_On_24_Vel_60
Time_Shift_8
Note_On_62_Vel_0
Time_Shift_61
Sustain_Off
Time_Shift_23
Note_On_24_Vel_0
Time_Shift_62
Note_On_26_Vel_0
Time_Shift_30
Note_On_72_Vel_0
Time_Shift_8
Note_On_38_Vel_0
Time_Shift_27
Note_On_92_Vel_106
Note_On_89_Vel_95
Time_Shift_4
Sustain_On
Note_On_29_Vel_92
Note_On_41_Vel_92
Time_Shift_128
Note_On_42_Vel_91
Time_Shift_3
Note_On_88_Vel_98
Time_Shift_2
Note_On_30_Vel_92
Time_Shift_2
Note_On_91_Vel_95
Time_Shift_128
Note_On_90_Vel_105
Time_Shift_2
Note_On_87_Vel_92
Note_On_31_Vel_94
Time_Shift_3
Note_On_43_Vel_99
Time_Shift_116
Note_On_89_Vel_0
Time_Shift_5
Note_On_32_Vel_94
Note_On_44_Vel_108
Note_On_89_Vel_99
Note_On_86_Vel_96
Time_Shift_133
Note_On_32_Vel_0
Note_On_44_Vel_0
Note_On_88_Vel_0
Time_Shift_8
Note_On_85_Vel_94
Note_On_88_Vel_100
Time_Shift_1
Note_On_44_Vel_105
Time_Shift_1
Note_On_32_Vel_86
Time_Shift_128
Note_On_42_Vel_0
Time_Shift_3
Note_On_29_Vel_0
Time_Shift_1
Note_On_41_Vel_0
Time_Shift_1
Note_On_89_Vel_0
Note_On_91_Vel_0
Note_On_92_Vel_0
Time_Shift_1
Note_On_86_Vel_0
Time_Shift_1
Note_On_43_Vel_0
Time_Shift_1
Note_On_87_Vel_0
Sustain_Off
Time_Shift_11
Note_On_87_Vel_86
Note_On_84_Vel_87
Time_Shift_4
Note_On_90_Vel_0
Time_Shift_69
Sustain_On
Time_Shift_31
Note_On_30_Vel_0
Time_Shift_28
Note_On_86_Vel_100
Time_Shift_2
Note_On_83_Vel_97
Time_Shift_124
Note_On_85_Vel_0
Time_Shift_4
Note_On_85_Vel_94
Time_Shift_1
Note_On_82_Vel_95
Time_Shift_125
Note_On_84_Vel_0
Time_Shift_11
Note_On_84_Vel_96
Note_On_81_Vel_92
Time_Shift_28
Note_On_83_Vel_0
Time_Shift_8
Note_On_83_Vel_56
Time_Shift_76
Note_On_83_Vel_0
Time_Shift_10
Note_On_83_Vel_93
Time_Shift_1
Note_On_80_Vel_93
Time_Shift_143
Note_On_82_Vel_0
Time_Shift_3
Note_On_79_Vel_93
Time_Shift_1
Note_On_82_Vel_98
Time_Shift_126
Note_On_81_Vel_0
Time_Shift_7
Note_On_81_Vel_97
Time_Shift_2
Note_On_78_Vel_98
Time_Shift_45
Note_On_79_Vel_0
Time_Shift_11
Note_On_79_Vel_54
Time_Shift_112
Note_On_80_Vel_0
Time_Shift_9
Note_On_80_Vel_92
Time_Shift_3
Note_On_77_Vel_86
Time_Shift_22
Sustain_Off
Time_Shift_8
Note_On_83_Vel_0
Time_Shift_3
Note_On_81_Vel_0
Note_On_79_Vel_0
Note_On_85_Vel_0
Time_Shift_1
Note_On_88_Vel_0
Time_Shift_1
Note_On_87_Vel_0
Time_Shift_1
Note_On_78_Vel_0
Note_On_82_Vel_0
Time_Shift_1
Note_On_86_Vel_0
Time_Shift_28
Note_On_84_Vel_0
Time_Shift_31
Sustain_On
Time_Shift_195
Note_On_79_Vel_89
Time_Shift_3
Note_On_76_Vel_69
Time_Shift_1
Note_On_31_Vel_0
Time_Shift_130
Note_On_78_Vel_83
Time_Shift_7
Note_On_75_Vel_74
Time_Shift_96
Sustain_Off
Time_Shift_5
Note_On_44_Vel_0
Time_Shift_16
Note_On_32_Vel_0
Time_Shift_7
Note_On_77_Vel_0
Time_Shift_6
Note_On_41_Vel_70
Time_Shift_2
Note_On_29_Vel_72
Note_On_80_Vel_0
Time_Shift_4
Note_On_77_Vel_80
Time_Shift_7
Note_On_74_Vel_68
Time_Shift_12
Sustain_On
Time_Shift_108
Note_On_76_Vel_0
Time_Shift_4
Note_On_76_Vel_72
Time_Shift_1
Note_On_73_Vel_76
Time_Shift_1
Note_On_42_Vel_80
Note_On_30_Vel_75
Time_Shift_124
Note_On_75_Vel_0
Time_Shift_5
Note_On_72_Vel_77
Note_On_75_Vel_83
Time_Shift_7
Note_On_43_Vel_83
Time_Shift_6
Note_On_31_Vel_75
Time_Shift_120
Note_On_74_Vel_0
Time_Shift_7
Note_On_74_Vel_69
Time_Shift_6
Note_On_71_Vel_71
Time_Shift_4
Note_On_44_Vel_87
Time_Shift_1
Note_On_32_Vel_73
Time_Shift_100
Note_On_76_Vel_0
Time_Shift_7
Note_On_72_Vel_0
Time_Shift_2
Note_On_42_Vel_0
Note_On_77_Vel_0
Note_On_75_Vel_0
Time_Shift_1
Note_On_74_Vel_0
Note_On_79_Vel_0
Note_On_41_Vel_0
Note_On_29_Vel_0
Time_Shift_3
Note_On_78_Vel_0
Time_Shift_2
Note_On_43_Vel_0
Time_Shift_2
Note_On_31_Vel_0
Time_Shift_4
Note_On_30_Vel_0
Time_Shift_7
Note_On_71_Vel_0
Note_On_73_Vel_0
Time_Shift_11
Note_On_73_Vel_76
Time_Shift_12
Note_On_44_Vel_0
Time_Shift_8
Note_On_32_Vel_0
Note_On_44_Vel_96
Time_Shift_5
Note_On_32_Vel_69
Time_Shift_19
Sustain_Off
Time_Shift_101
Note_On_72_Vel_77
Time_Shift_4
Note_On_69_Vel_56
Time_Shift_151
Note_On_71_Vel_68
Note_On_68_Vel_53
Time_Shift_73
Sustain_On
Time_Shift_76
Note_On_67_Vel_62
Time_Shift_3
Note_On_70_Vel_70
Time_Shift_159
Note_On_69_Vel_0
Time_Shift_4
Note_On_69_Vel_67
Time_Shift_6
Note_On_66_Vel_63
Time_Shift_136
Note_On_68_Vel_0
Time_Shift_6
Note_On_68_Vel_66
Time_Shift_5
Note_On_65_Vel_64
Time_Shift_158
Note_On_67_Vel_0
Time_Shift_8
Note_On_67_Vel_63
Time_Shift_29
Note_On_41_Vel_49
Time_Shift_4
Note_On_29_Vel_49
Time_Shift_10
Sustain_Off
Time_Shift_5
Note_On_32_Vel_0
Time_Shift_2
Note_On_71_Vel_0
Note_On_70_Vel_0
Note_On_69_Vel_0
Note_On_44_Vel_0
Time_Shift_1
Note_On_68_Vel_0
Time_Shift_3
Note_On_72_Vel_0
Time_Shift_7
Note_On_73_Vel_0
Time_Shift_85
Sustain_On
Time_Shift_31
Note_On_66_Vel_0
Time_Shift_5
Note_On_66_Vel_65
Time_Shift_18
Note_On_63_Vel_55
Time_Shift_6
Note_On_48_Vel_38
Time_Shift_159
Sustain_Off
Time_Shift_5
Note_On_41_Vel_0
Time_Shift_2
Note_On_66_Vel_0
Time_Shift_1
Note_On_63_Vel_0
Time_Shift_3
Note_On_65_Vel_0
Time_Shift_8
Note_On_29_Vel_0
Note_On_48_Vel_0
Time_Shift_3
Note_On_65_Vel_64
Time_Shift_5
Note_On_67_Vel_0
Time_Shift_11
Note_On_62_Vel_61
Time_Shift_8
Note_On_43_Vel_44
Time_Shift_2
Note_On_31_Vel_39
Time_Shift_71
Sustain_On
Time_Shift_133
Note_On_63_Vel_64
Time_Shift_24
Note_On_60_Vel_48
Time_Shift_185
Sustain_Off
Time_Shift_15
Note_On_62_Vel_0
Note_On_65_Vel_0
Time_Shift_50
Note_On_43_Vel_0
Time_Shift_5
Note_On_59_Vel_35
Time_Shift_33
Note_On_31_Vel_0
Time_Shift_6
Note_On_43_Vel_34
Time_Shift_4
Note_On_31_Vel_30
Time_Shift_251
Sustain_On
Time_Shift_39
Sustain_Off
Time_Shift_9
Note_On_63_Vel_0
Time_Shift_15
Note_On_62_Vel_42
Time_Shift_14
Note_On_60_Vel_0
Time_Shift_46
Sustain_On
Time_Shift_266
Note_On_62_Vel_0
Note_On_43_Vel_0
Note_On_59_Vel_0
Time_Shift_1
Note_On_31_Vel_0
Time_Shift_1
Sustain_Off
Time_Shift_100
Note_On_75_Vel_100
Time_Shift_1
Note_On_60_Vel_107
Time_Shift_2
Note_On_48_Vel_108
Time_Shift_1
Note_On_67_Vel_97
Note_On_63_Vel_104
Note_On_72_Vel_104
Time_Shift_1
Note_On_36_Vel_94
Time_Shift_43
Note_On_60_Vel_0
Time_Shift_2
Note_On_48_Vel_0
Time_Shift_2
Note_On_36_Vel_0
Time_Shift_1
Note_On_63_Vel_0
Note_On_67_Vel_0
Time_Shift_8
Note_On_72_Vel_0
Time_Shift_55
Note_On_75_Vel_0
Time_Shift_20
Note_On_74_Vel_97
Note_On_50_Vel_95
Time_Shift_1
Note_On_62_Vel_100
Time_Shift_2
Note_On_38_Vel_92
Time_Shift_31
Sustain_On
Time_Shift_91
Note_On_75_Vel_94
Note_On_39_Vel_94
Note_On_63_Vel_95
Time_Shift_1
Note_On_51_Vel_101
Time_Shift_131
Note_On_75_Vel_0
Time_Shift_2
Note_On_78_Vel_103
Time_Shift_1
Note_On_66_Vel_100
Time_Shift_1
Note_On_42_Vel_91
Note_On_54_Vel_98
Time_Shift_2
Note_On_75_Vel_78
Time_Shift_109
Note_On_74_Vel_0
Time_Shift_8
Note_On_38_Vel_0
Time_Shift_1
Note_On_75_Vel_0
Note_On_63_Vel_0
Time_Shift_1
Note_On_71_Vel_100
Note_On_50_Vel_0
Note_On_42_Vel_0
Note_On_78_Vel_0
Note_On_79_Vel_108
Note_On_55_Vel_102
Note_On_67_Vel_104
Note_On_74_Vel_106
Time_Shift_1
Note_On_51_Vel_0
Note_On_66_Vel_0
Note_On_39_Vel_0
Note_On_62_Vel_0
Note_On_54_Vel_0
Note_On_43_Vel_89
Time_Shift_1
Sustain_Off
Time_Shift_38
Note_On_67_Vel_0
Time_Shift_7
Note_On_71_Vel_0
Time_Shift_2
Note_On_55_Vel_0
Time_Shift_6
Note_On_43_Vel_0
Time_Shift_12
Note_On_74_Vel_0
Time_Shift_7
Note_On_79_Vel_0
Time_Shift_31
Sustain_On
Time_Shift_21
Note_On_81_Vel_106
Time_Shift_6
Note_On_57_Vel_102
Note_On_69_Vel_94
Time_Shift_1
Note_On_45_Vel_90
Time_Shift_121
Note_On_82_Vel_101
Time_Shift_1
Note_On_70_Vel_99
Time_Shift_2
Note_On_58_Vel_101
Time_Shift_2
Note_On_46_Vel_95
Time_Shift_125
Note_On_83_Vel_102
Time_Shift_1
Note_On_71_Vel_100
Time_Shift_1
Note_On_59_Vel_102
Time_Shift_1
Note_On_47_Vel_94
Time_Shift_121
Note_On_82_Vel_0
Note_On_58_Vel_0
Note_On_70_Vel_0
Note_On_69_Vel_0
Note_On_81_Vel_0
Time_Shift_1
Note_On_71_Vel_0
Note_On_57_Vel_0
Note_On_45_Vel_0
Time_Shift_1
Note_On_59_Vel_0
Time_Shift_1
Note_On_46_Vel_0
Note_On_47_Vel_0
Note_On_83_Vel_0
Time_Shift_5
Note_On_72_Vel_113
Sustain_Off
Note_On_84_Vel_104
Time_Shift_1
Note_On_79_Vel_102
Note_On_60_Vel_112
Time_Shift_2
Note_On_75_Vel_103
Note_On_48_Vel_101
Time_Shift_36
Note_On_60_Vel_0
Time_Shift_3
Note_On_48_Vel_0
Time_Shift_2
Note_On_72_Vel_0
Time_Shift_4
Note_On_84_Vel_0
Time_Shift_2
Note_On_79_Vel_0
Time_Shift_4
Note_On_75_Vel_0
Time_Shift_42
Sustain_On
Time_Shift_37
Note_On_61_Vel_107
Time_Shift_3
Note_On_49_Vel_97
Time_Shift_1
Note_On_73_Vel_105
Note_On_85_Vel_103
Time_Shift_124
Note_On_50_Vel_96
Note_On_86_Vel_100
Time_Shift_1
Note_On_74_Vel_101
Note_On_62_Vel_101
Time_Shift_134
Note_On_75_Vel_101
Note_On_87_Vel_95
Note_On_63_Vel_102
Time_Shift_2
Note_On_51_Vel_98
Time_Shift_112
Note_On_85_Vel_0
Note_On_75_Vel_0
Time_Shift_1
Note_On_87_Vel_0
Note_On_62_Vel_0
Time_Shift_1
Note_On_63_Vel_0
Note_On_73_Vel_0
Note_On_49_Vel_0
Time_Shift_1
Note_On_50_Vel_0
Note_On_74_Vel_0
Note_On_61_Vel_0
Note_On_51_Vel_0
Time_Shift_1
Sustain_Off
Time_Shift_4
Note_On_86_Vel_0
Time_Shift_9
Note_On_86_Vel_104
Time_Shift_2
Note_On_79_Vel_112
Time_Shift_1
Note_On_55_Vel_102
Note_On_67_Vel_110
Time_Shift_1
Note_On_83_Vel_103
Note_On_91_Vel_110
Time_Shift_36
Note_On_67_Vel_0
Time_Shift_7
Note_On_55_Vel_0
Time_Shift_4
Note_On_79_Vel_0
Time_Shift_25
Note_On_83_Vel_0
Note_On_86_Vel_0
Time_Shift_23
Sustain_On
Time_Shift_23
Note_On_91_Vel_0
Time_Shift_11
Note_On_93_Vel_101
Time_Shift_1
Note_On_81_Vel_97
Time_Shift_1
Note_On_69_Vel_95
Time_Shift_4
Note_On_57_Vel_90
Time_Shift_2
Note_On_59_Vel_89
Time_Shift_122
Note_On_58_Vel_98
Note_On_94_Vel_102
Time_Shift_1
Note_On_70_Vel_100
Note_On_82_Vel_105
Time_Shift_31
Note_On_92_Vel_46
Time_Shift_96
Note_On_59_Vel_0
Time_Shift_6
Note_On_59_Vel_98
Note_On_95_Vel_109
Note_On_83_Vel_108
Time_Shift_2
Note_On_71_Vel_102
Time_Shift_119
Sustain_Off
Time_Shift_5
Note_On_69_Vel_0
Note_On_57_Vel_0
Time_Shift_1
Note_On_93_Vel_0
Note_On_81_Vel_0
Note_On_95_Vel_0
Note_On_58_Vel_0
Note_On_94_Vel_0
Time_Shift_1
Note_On_71_Vel_0
Note_On_59_Vel_0
Note_On_70_Vel_0
Note_On_83_Vel_0
Note_On_82_Vel_0
Time_Shift_11
Note_On_92_Vel_0
Time_Shift_42
Note_On_72_Vel_111
Note_On_84_Vel_111
Time_Shift_1
Note_On_91_Vel_105
Time_Shift_1
Note_On_87_Vel_104
Note_On_60_Vel_104
Time_Shift_1
Note_On_96_Vel_106
Time_Shift_24
Note_On_94_Vel_50
Time_Shift_1
Sustain_On
Time_Shift_214
Sustain_Off
Time_Shift_19
Note_On_60_Vel_0
Time_Shift_28
Note_On_72_Vel_0
Time_Shift_38
Note_On_84_Vel_0
Time_Shift_46
Sustain_On
Time_Shift_92
Note_On_91_Vel_0
Note_On_94_Vel_0
Note_On_96_Vel_0
Time_Shift_123
Sustain_Off
Time_Shift_46
Note_On_87_Vel_0
Time_Shift_233
Note_On_60_Vel_50
Time_Shift_17
Note_On_48_Vel_31
Time_Shift_198
Note_On_49_Vel_42
Time_Shift_1
Note_On_61_Vel_47
Time_Shift_13
Note_On_48_Vel_0
Time_Shift_2
Note_On_60_Vel_0
Time_Shift_218
Note_On_62_Vel_47
Time_Shift_7
Note_On_50_Vel_37
Time_Shift_61
Note_On_49_Vel_0
Time_Shift_3
Note_On_61_Vel_0
Time_Shift_258
Note_On_63_Vel_42
Time_Shift_31
Note_On_51_Vel_35
Time_Shift_34
Note_On_62_Vel_0
Time_Shift_15
Note_On_50_Vel_0
Time_Shift_77
Sustain_On
Time_Shift_583
Note_On_51_Vel_0
Note_On_63_Vel_0
Time_Shift_5
Note_On_51_Vel_33
Time_Shift_4
Note_On_63_Vel_32
Time_Shift_205
Note_On_36_Vel_23
Time_Shift_23
Note_On_48_Vel_25
Time_Shift_1776
Note_On_51_Vel_0
Note_On_63_Vel_0
Time_Shift_1313
Sustain_Off
Time_Shift_92
Note_On_48_Vel_0
Time_Shift_100
Note_On_36_Vel_0
Time_Shift_6640
Note_On_46_Vel_64
Time_Shift_37
Note_On_46_Vel_0
Time_Shift_313
Note_On_51_Vel_74
Time_Shift_326
Note_On_50_Vel_61
Time_Shift_7
Note_On_51_Vel_0
Time_Shift_114
Note_On_50_Vel_0
Time_Shift_7
Note_On_48_Vel_60
Time_Shift_146
Note_On_58_Vel_74
Time_Shift_2
Note_On_46_Vel_68
Time_Shift_1
Note_On_48_Vel_0
Time_Shift_25
Note_On_58_Vel_0
Time_Shift_23
Note_On_46_Vel_0
Time_Shift_248
Note_On_63_Vel_81
Time_Shift_2
Note_On_58_Vel_65
Time_Shift_8
Note_On_55_Vel_57
Time_Shift_42
Sustain_On
Time_Shift_249
Note_On_55_Vel_0
Time_Shift_2
Sustain_Off
Note_On_58_Vel_0
Time_Shift_5
Note_On_63_Vel_0
Time_Shift_4
Note_On_53_Vel_65
Time_Shift_2
Note_On_62_Vel_67
Time_Shift_2
Note_On_56_Vel_60
Time_Shift_38
Note_On_53_Vel_0
Time_Shift_2
Note_On_56_Vel_0
Time_Shift_72
Note_On_62_Vel_0
Time_Shift_8
Note_On_60_Vel_72
Time_Shift_83
Note_On_60_Vel_0
Time_Shift_66
Note_On_58_Vel_72
Time_Shift_8
Note_On_56_Vel_66
Time_Shift_1
Note_On_53_Vel_58
Time_Shift_21
Note_On_58_Vel_0
Time_Shift_2
Note_On_56_Vel_0
Time_Shift_2
Note_On_53_Vel_0
Time_Shift_265
Note_On_67_Vel_83
Time_Shift_9
Note_On_58_Vel_63
Time_Shift_4
Note_On_55_Vel_59
Time_Shift_3
Note_On_51_Vel_65
Time_Shift_12
Sustain_On
Time_Shift_254
Note_On_58_Vel_0
Time_Shift_5
Note_On_65_Vel_71
Time_Shift_2
Note_On_58_Vel_61
Time_Shift_4
Note_On_56_Vel_62
Time_Shift_3
Note_On_50_Vel_62
Time_Shift_20
Note_On_55_Vel_0
Time_Shift_2
Note_On_51_Vel_0
Time_Shift_1
Sustain_Off
Time_Shift_2
Note_On_67_Vel_0
Note_On_58_Vel_0
Time_Shift_4
Note_On_65_Vel_0
Time_Shift_3
Note_On_56_Vel_0
Time_Shift_65
Note_On_50_Vel_0
Time_Shift_7
Note_On_48_Vel_68
Time_Shift_162
Note_On_65_Vel_78
Time_Shift_8
Note_On_56_Vel_67
Time_Shift_1
Note_On_46_Vel_68
Time_Shift_1
Note_On_58_Vel_67
Time_Shift_16
Note_On_48_Vel_0
Time_Shift_4
Note_On_65_Vel_0
Time_Shift_3
Note_On_56_Vel_0
Time_Shift_5
Note_On_58_Vel_0
Time_Shift_19
Note_On_46_Vel_0
Time_Shift_247
Note_On_63_Vel_80
Time_Shift_8
Note_On_58_Vel_61
Time_Shift_11
Note_On_55_Vel_49
Time_Shift_2
Note_On_46_Vel_50
Time_Shift_17
Sustain_On
Time_Shift_268
Note_On_62_Vel_72
Time_Shift_2
Note_On_55_Vel_0
Time_Shift_1
Note_On_53_Vel_63
Note_On_63_Vel_0
Note_On_58_Vel_0
Time_Shift_3
Note_On_56_Vel_58
Time_Shift_1
Sustain_Off
Time_Shift_14
Note_On_46_Vel_0
Time_Shift_21
Note_On_53_Vel_0
Time_Shift_43
Note_On_56_Vel_0
Time_Shift_34
Note_On_60_Vel_71
Time_Shift_7
Note_On_62_Vel_0
Time_Shift_55
Note_On_60_Vel_0
Time_Shift_92
Note_On_53_Vel_66
Time_Shift_1
Note_On_58_Vel_66
Time_Shift_4
Note_On_56_Vel_67
Time_Shift_26
Note_On_53_Vel_0
Time_Shift_5
Note_On_56_Vel_0
Time_Shift_14
Note_On_58_Vel_0
Time_Shift_249
Note_On_63_Vel_74
Time_Shift_1
Note_On_58_Vel_59
Time_Shift_1
Note_On_55_Vel_60
Time_Shift_6
Note_On_39_Vel_58
Note_On_51_Vel_57
Time_Shift_12
Sustain_On
Time_Shift_276
Note_On_58_Vel_0
Time_Shift_4
Note_On_65_Vel_77
Note_On_50_Vel_72
Time_Shift_1
Note_On_38_Vel_69
Time_Shift_2
Note_On_53_Vel_81
Time_Shift_1
Note_On_58_Vel_66
Time_Shift_13
Sustain_Off
Time_Shift_14
Note_On_51_Vel_0
Time_Shift_1
Note_On_55_Vel_0
Time_Shift_1
Note_On_58_Vel_0
Time_Shift_1
Note_On_50_Vel_0
Time_Shift_2
Note_On_39_Vel_0
Note_On_63_Vel_0
Time_Shift_1
Note_On_65_Vel_0
Note_On_53_Vel_0
Time_Shift_1
Note_On_38_Vel_0
Time_Shift_92
Note_On_55_Vel_77
Note_On_67_Vel_79
Time_Shift_2
Note_On_58_Vel_71
Time_Shift_1
Note_On_49_Vel_73
Time_Shift_1
Note_On_63_Vel_74
Time_Shift_3
Note_On_37_Vel_74
Time_Shift_25
Note_On_49_Vel_0
Note_On_55_Vel_0
Time_Shift_2
Note_On_67_Vel_0
Note_On_58_Vel_0
Time_Shift_2
Note_On_63_Vel_0
Note_On_37_Vel_0
Time_Shift_102
Note_On_68_Vel_88
Time_Shift_4
Note_On_56_Vel_87
Note_On_63_Vel_82
Note_On_48_Vel_83
Time_Shift_4
Note_On_36_Vel_77
Time_Shift_20
Sustain_On
Time_Shift_237
Sustain_Off
Time_Shift_12
Note_On_68_Vel_0
Note_On_56_Vel_0
Time_Shift_2
Note_On_48_Vel_0
Time_Shift_2
Note_On_63_Vel_0
Time_Shift_2
Note_On_36_Vel_0
Time_Shift_3
Note_On_69_Vel_92
Time_Shift_2
Note_On_57_Vel_95
Time_Shift_1
Note_On_47_Vel_93
Note_On_63_Vel_93
Time_Shift_2
Note_On_66_Vel_92
Note_On_35_Vel_83
Time_Shift_26
Note_On_57_Vel_0
Time_Shift_4
Note_On_47_Vel_0
Time_Shift_29
Sustain_On
Time_Shift_169
Note_On_63_Vel_0
Time_Shift_43
Sustain_Off
Time_Shift_7
Note_On_58_Vel_96
Note_On_46_Vel_95
Note_On_67_Vel_82
Note_On_70_Vel_90
Time_Shift_2
Note_On_63_Vel_88
Time_Shift_3
Note_On_34_Vel_88
Time_Shift_30
Note_On_35_Vel_0
Time_Shift_4
Note_On_63_Vel_0
Note_On_66_Vel_0
Note_On_46_Vel_0
Note_On_67_Vel_0
Time_Shift_1
Note_On_58_Vel_0
Time_Shift_2
Note_On_69_Vel_0
Time_Shift_2
Note_On_70_Vel_0
Note_On_34_Vel_0
Time_Shift_71
Note_On_71_Vel_100
Time_Shift_5
Note_On_59_Vel_97
Time_Shift_1
Note_On_45_Vel_94
Time_Shift_2
Note_On_66_Vel_87
Note_On_63_Vel_87
Time_Shift_1
Note_On_33_Vel_89
Time_Shift_35
Note_On_59_Vel_0
Time_Shift_2
Note_On_45_Vel_0
Time_Shift_3
Note_On_33_Vel_0
Time_Shift_2
Note_On_71_Vel_0
Time_Shift_3
Note_On_66_Vel_0
Note_On_63_Vel_0
Time_Shift_92
Note_On_72_Vel_101
Note_On_60_Vel_104
Time_Shift_1
Note_On_66_Vel_95
Note_On_63_Vel_101
Note_On_44_Vel_101
Time_Shift_1
Note_On_32_Vel_94
Time_Shift_41
Sustain_On
Time_Shift_192
Note_On_60_Vel_0
Time_Shift_16
Note_On_72_Vel_0
Time_Shift_3
Sustain_Off
Time_Shift_4
Note_On_44_Vel_0
Note_On_63_Vel_0
Time_Shift_7
Note_On_32_Vel_0
Note_On_66_Vel_0
Time_Shift_38
Note_On_60_Vel_98
Time_Shift_1
Note_On_72_Vel_98
Time_Shift_1
Note_On_43_Vel_100
Note_On_31_Vel_94
Time_Shift_2
Note_On_67_Vel_93
Time_Shift_1
Note_On_63_Vel_95
Time_Shift_38
Note_On_43_Vel_0
Note_On_67_Vel_0
Time_Shift_1
Note_On_31_Vel_0
Note_On_60_Vel_0
Time_Shift_4
Note_On_72_Vel_0
Time_Shift_3
Note_On_63_Vel_0
Time_Shift_277
Note_On_71_Vel_96
Note_On_67_Vel_93
Time_Shift_1
Note_On_43_Vel_93
Time_Shift_1
Note_On_62_Vel_95
Time_Shift_28
Note_On_71_Vel_0
Time_Shift_1
Note_On_43_Vel_0
Time_Shift_18
Note_On_62_Vel_0
Note_On_67_Vel_0
Time_Shift_650
Note_On_70_Vel_66
Time_Shift_4
Note_On_67_Vel_52
Time_Shift_1
Note_On_62_Vel_63
Time_Shift_2
Note_On_55_Vel_46
Time_Shift_19
Note_On_62_Vel_0
Time_Shift_4
Note_On_70_Vel_0
Time_Shift_19
Note_On_67_Vel_0
Time_Shift_8
Note_On_55_Vel_0
Time_Shift_326
Note_On_70_Vel_62
Time_Shift_1
Note_On_68_Vel_58
Time_Shift_8
Note_On_53_Vel_46
Time_Shift_4
Note_On_62_Vel_51
Time_Shift_21
Note_On_68_Vel_0
Time_Shift_1
Note_On_53_Vel_0
Time_Shift_7
Note_On_70_Vel_0
Time_Shift_16
Note_On_62_Vel_0
Time_Shift_389
Note_On_58_Vel_67
Time_Shift_148
Sustain_On
Time_Shift_283
Note_On_65_Vel_51
Time_Shift_11
Note_On_62_Vel_44
Time_Shift_328
Note_On_65_Vel_0
Time_Shift_10
Note_On_65_Vel_69
Time_Shift_7
Note_On_56_Vel_57
Time_Shift_1
Note_On_60_Vel_53
Time_Shift_124
Note_On_67_Vel_84
Time_Shift_8
Note_On_55_Vel_61
Time_Shift_132
Sustain_Off
Time_Shift_4
Note_On_65_Vel_0
Time_Shift_2
Note_On_58_Vel_0
Note_On_56_Vel_0
Time_Shift_2
Note_On_55_Vel_0
Note_On_62_Vel_0
Time_Shift_2
Note_On_60_Vel_0
Note_On_67_Vel_0
Time_Shift_1
Note_On_68_Vel_79
Time_Shift_10
Note_On_60_Vel_59
Time_Shift_11
Note_On_53_Vel_53
Time_Shift_93
Sustain_On
Time_Shift_225
Sustain_Off
Time_Shift_5
Note_On_65_Vel_64
Time_Shift_2
Note_On_60_Vel_0
Time_Shift_1
Note_On_68_Vel_0
Time_Shift_2
Note_On_62_Vel_52
Time_Shift_1
Note_On_59_Vel_58
Time_Shift_4
Note_On_56_Vel_55
Time_Shift_14
Note_On_53_Vel_0
Time_Shift_107
Sustain_On
Time_Shift_179
Note_On_56_Vel_0
Note_On_59_Vel_0
Time_Shift_1
Note_On_63_Vel_72
Time_Shift_1
Note_On_65_Vel_0
Time_Shift_2
Note_On_62_Vel_0
Time_Shift_6
Note_On_58_Vel_50
Time_Shift_1
Note_On_55_Vel_47
Time_Shift_1
Sustain_Off
Time_Shift_123
Note_On_65_Vel_67
Time_Shift_51
Note_On_63_Vel_0
Time_Shift_81
Note_On_58_Vel_0
Time_Shift_34
Note_On_65_Vel_0
Time_Shift_19
Note_On_55_Vel_0
Time_Shift_4
Note_On_58_Vel_44
Note_On_67_Vel_58
Note_On_55_Vel_44
Time_Shift_1
Note_On_63_Vel_47
Time_Shift_303
Note_On_58_Vel_0
Time_Shift_23
Note_On_55_Vel_0
Time_Shift_7
Note_On_63_Vel_0
Time_Shift_6
Note_On_63_Vel_63
Time_Shift_5
Note_On_60_Vel_47
Time_Shift_10
Note_On_56_Vel_47
Time_Shift_48
Note_On_67_Vel_0
Time_Shift_250
Note_On_58_Vel_60
Time_Shift_5
Note_On_56_Vel_0
Time_Shift_2
Note_On_60_Vel_0
Time_Shift_2
Note_On_55_Vel_53
Time_Shift_138
Note_On_56_Vel_67
Time_Shift_5
Note_On_53_Vel_58
Time_Shift_36
Note_On_55_Vel_0
Time_Shift_15
Note_On_58_Vel_0
Time_Shift_85
Note_On_63_Vel_0
Time_Shift_6
Note_On_53_Vel_0
Time_Shift_3
Note_On_56_Vel_0
Time_Shift_2
Note_On_63_Vel_74
Time_Shift_2
Note_On_55_Vel_61
Time_Shift_5
Note_On_58_Vel_46
Note_On_51_Vel_65
Time_Shift_34
Note_On_55_Vel_0
Time_Shift_40
Note_On_51_Vel_0
Time_Shift_92
Note_On_58_Vel_0
Time_Shift_193
Note_On_58_Vel_50
Time_Shift_3
Note_On_53_Vel_52
Note_On_46_Vel_53
Time_Shift_50
Sustain_On
Time_Shift_273
Note_On_62_Vel_56
Time_Shift_74
Note_On_63_Vel_0
Time_Shift_64
Note_On_60_Vel_53
Time_Shift_56
Note_On_62_Vel_0
Time_Shift_9
Sustain_Off
Time_Shift_23
Note_On_58_Vel_0
Time_Shift_23
Note_On_46_Vel_0
Time_Shift_46
Note_On_60_Vel_0
Time_Shift_11
Note_On_34_Vel_51
Time_Shift_1
Note_On_58_Vel_54
Note_On_46_Vel_53
Time_Shift_1
Note_On_56_Vel_52
Time_Shift_30
Note_On_58_Vel_0
Time_Shift_7
Note_On_53_Vel_0
Note_On_56_Vel_0
Time_Shift_1
Note_On_46_Vel_0
Time_Shift_9
Note_On_34_Vel_0
Time_Shift_252
Note_On_67_Vel_67
Time_Shift_3
Note_On_39_Vel_60
Time_Shift_2
Note_On_63_Vel_60
Time_Shift_2
Note_On_51_Vel_62
Note_On_55_Vel_49
Time_Shift_16
Note_On_67_Vel_0
Time_Shift_7
Note_On_51_Vel_0
Time_Shift_19
Note_On_39_Vel_0
Note_On_55_Vel_0
Note_On_63_Vel_0
Time_Shift_248
Note_On_79_Vel_90
Time_Shift_3
Note_On_75_Vel_90
Note_On_67_Vel_88
Time_Shift_1
Note_On_63_Vel_92
Time_Shift_4
Note_On_51_Vel_87
Time_Shift_13
Note_On_79_Vel_0
Time_Shift_4
Note_On_75_Vel_0
Time_Shift_1
Note_On_63_Vel_0
Time_Shift_11
Note_On_67_Vel_0
Time_Shift_15
Note_On_51_Vel_0
Time_Shift_263
Note_On_67_Vel_79
Time_Shift_1
Note_On_55_Vel_74
Time_Shift_1
Note_On_63_Vel_84
Note_On_51_Vel_78
Note_On_39_Vel_68
Time_Shift_23
Note_On_67_Vel_0
Note_On_55_Vel_0
Time_Shift_1
Note_On_63_Vel_0
Note_On_51_Vel_0
Time_Shift_26
Note_On_39_Vel_0
Time_Shift_245
Note_On_47_Vel_84
Time_Shift_3
Note_On_55_Vel_81
Time_Shift_1
Note_On_63_Vel_84
Note_On_67_Vel_80
Time_Shift_2
Note_On_35_Vel_76
Time_Shift_19
Note_On_47_Vel_0
Time_Shift_5
Note_On_35_Vel_0
Note_On_63_Vel_0
Time_Shift_17
Note_On_55_Vel_0
Note_On_67_Vel_0
Time_Shift_263
Note_On_79_Vel_98
Note_On_67_Vel_101
Time_Shift_1
Note_On_63_Vel_101
Note_On_75_Vel_103
Time_Shift_1
Note_On_51_Vel_92
Time_Shift_17
Note_On_67_Vel_0
Time_Shift_4
Note_On_79_Vel_0
Time_Shift_1
Note_On_63_Vel_0
Time_Shift_1
Note_On_75_Vel_0
Time_Shift_27
Note_On_51_Vel_0
Time_Shift_242
Note_On_63_Vel_92
Time_Shift_3
Note_On_55_Vel_80
Time_Shift_1
Note_On_67_Vel_81
Time_Shift_2
Note_On_60_Vel_76
Time_Shift_2
Note_On_48_Vel_84
Time_Shift_1
Note_On_36_Vel_75
Time_Shift_2
Note_On_60_Vel_0
Time_Shift_20
Note_On_63_Vel_0
Note_On_55_Vel_0
Time_Shift_1
Note_On_48_Vel_0
Time_Shift_17
Note_On_67_Vel_0
Time_Shift_8
Note_On_36_Vel_0
Time_Shift_280
Note_On_94_Vel_100
Time_Shift_16
Note_On_46_Vel_71
Note_On_34_Vel_68
Time_Shift_1
Note_On_91_Vel_63
Time_Shift_26
Sustain_On
Time_Shift_60
Note_On_79_Vel_81
Time_Shift_1
Note_On_82_Vel_87
Time_Shift_77
Note_On_91_Vel_0
Time_Shift_10
Note_On_91_Vel_91
Time_Shift_2
Note_On_87_Vel_82
Time_Shift_103
Note_On_79_Vel_0
Time_Shift_10
Note_On_79_Vel_89
Time_Shift_2
Note_On_58_Vel_75
Time_Shift_1
Note_On_67_Vel_77
Time_Shift_2
Note_On_63_Vel_79
Note_On_75_Vel_82
Time_Shift_2
Note_On_70_Vel_71
Time_Shift_25
Sustain_Off
Note_On_82_Vel_0
Time_Shift_1
Note_On_46_Vel_0
Note_On_91_Vel_0
Note_On_79_Vel_0
Note_On_94_Vel_0
Note_On_34_Vel_0
Time_Shift_1
Note_On_87_Vel_0
Time_Shift_1
Note_On_67_Vel_0
Time_Shift_4
Note_On_63_Vel_0
Note_On_75_Vel_0
Time_Shift_5
Note_On_70_Vel_0
Time_Shift_296
Note_On_82_Vel_85
Note_On_68_Vel_70
Time_Shift_1
Note_On_74_Vel_77
Time_Shift_3
Note_On_65_Vel_73
Time_Shift_26
Note_On_74_Vel_0
Time_Shift_2
Note_On_65_Vel_0
Time_Shift_17
Note_On_68_Vel_0
Note_On_82_Vel_0
Time_Shift_358
Note_On_87_Vel_69
Time_Shift_4
Note_On_75_Vel_61
Time_Shift_4
Note_On_67_Vel_54
Time_Shift_6
Note_On_63_Vel_61
Time_Shift_5
Note_On_58_Vel_0
Time_Shift_12
Note_On_75_Vel_0
Time_Shift_12
Note_On_67_Vel_0
Time_Shift_60
Note_On_87_Vel_0
Time_Shift_303
Note_On_51_Vel_72
Time_Shift_30
Note_On_51_Vel_0
Time_Shift_13
Note_On_63_Vel_0
Time_Shift_298
Note_On_46_Vel_71
Time_Shift_29
Note_On_46_Vel_0
Time_Shift_323
Note_On_51_Vel_77
Time_Shift_326
Note_On_50_Vel_66
Time_Shift_9
Note_On_51_Vel_0
Time_Shift_126
Note_On_48_Vel_66
Time_Shift_21
Note_On_50_Vel_0
Time_Shift_95
Note_On_48_Vel_0
Time_Shift_39
Note_On_58_Vel_73
Time_Shift_4
Note_On_46_Vel_68
Time_Shift_33
Note_On_58_Vel_0
Time_Shift_4
Note_On_46_Vel_0
Time_Shift_264
Note_On_63_Vel_83
Time_Shift_15
Note_On_55_Vel_57
Note_On_58_Vel_59
Time_Shift_11
Sustain_On
Time_Shift_288
Note_On_62_Vel_77
Time_Shift_5
Note_On_53_Vel_61
Time_Shift_1
Note_On_56_Vel_60
Time_Shift_4
Sustain_Off
Time_Shift_12
Note_On_55_Vel_0
Time_Shift_1
Note_On_63_Vel_0
Time_Shift_2
Note_On_58_Vel_0
Time_Shift_22
Note_On_53_Vel_0
Time_Shift_6
Note_On_56_Vel_0
Time_Shift_80
Note_On_62_Vel_0
Time_Shift_11
Note_On_60_Vel_64
Time_Shift_1
Note_On_56_Vel_49
Time_Shift_64
Note_On_60_Vel_0
Time_Shift_41
Note_On_56_Vel_0
Time_Shift_46
Note_On_58_Vel_66
Time_Shift_3
Note_On_53_Vel_63
Time_Shift_2
Note_On_56_Vel_63
Time_Shift_23
Note_On_58_Vel_0
Time_Shift_6
Note_On_53_Vel_0
Time_Shift_1
Note_On_56_Vel_0
Time_Shift_275
Note_On_67_Vel_79
Time_Shift_1
Note_On_58_Vel_68
Time_Shift_2
Note_On_55_Vel_65
Time_Shift_8
Note_On_51_Vel_67
Time_Shift_17
Sustain_On
Time_Shift_275
Note_On_65_Vel_74
Time_Shift_1
Note_On_58_Vel_0
Time_Shift_3
Note_On_56_Vel_79
Time_Shift_3
Note_On_58_Vel_58
Time_Shift_19
Note_On_50_Vel_59
Time_Shift_4
Note_On_55_Vel_0
Time_Shift_5
Note_On_51_Vel_0
Time_Shift_1
Note_On_67_Vel_0
Note_On_58_Vel_0
Time_Shift_3
Sustain_Off
Time_Shift_1
Note_On_65_Vel_0
Time_Shift_2
Note_On_56_Vel_0
Time_Shift_83
Note_On_50_Vel_0
Time_Shift_3
Note_On_48_Vel_63
Time_Shift_153
Note_On_65_Vel_72
Time_Shift_9
Note_On_58_Vel_59
Time_Shift_1
Note_On_56_Vel_57
Time_Shift_2
Note_On_46_Vel_63
Time_Shift_7
Note_On_48_Vel_0
Time_Shift_19
Note_On_65_Vel_0
Time_Shift_1
Note_On_58_Vel_0
Time_Shift_4
Note_On_56_Vel_0
Time_Shift_5
Note_On_46_Vel_0
Time_Shift_272
Note_On_63_Vel_72
Time_Shift_3
Note_On_58_Vel_57
Time_Shift_8
Note_On_55_Vel_53
Time_Shift_50
Sustain_On
Time_Shift_243
Note_On_62_Vel_71
Time_Shift_3
Note_On_53_Vel_62
Time_Shift_3
Note_On_56_Vel_60
Time_Shift_30
Note_On_55_Vel_0
Time_Shift_5
Sustain_Off
Time_Shift_3
Note_On_58_Vel_0
Time_Shift_6
Note_On_53_Vel_0
Time_Shift_3
Note_On_56_Vel_0
Time_Shift_3
Note_On_63_Vel_0
Time_Shift_73
Note_On_60_Vel_65
Time_Shift_6
Note_On_62_Vel_0
Time_Shift_64
Note_On_60_Vel_0
Time_Shift_78
Note_On_58_Vel_65
Time_Shift_2
Note_On_56_Vel_66
Time_Shift_1
Note_On_53_Vel_58
Time_Shift_32
Note_On_58_Vel_0
Note_On_56_Vel_0
Time_Shift_1
Note_On_53_Vel_0
Time_Shift_262
Note_On_63_Vel_72
Time_Shift_2
Note_On_58_Vel_61
Note_On_55_Vel_59
Time_Shift_2
Sustain_On
Time_Shift_2
Note_On_51_Vel_65
Time_Shift_1
Note_On_39_Vel_62
Time_Shift_281
Note_On_58_Vel_0
Time_Shift_5
Note_On_65_Vel_78
Time_Shift_1
Note_On_50_Vel_72
Time_Shift_3
Note_On_53_Vel_79
Note_On_38_Vel_68
Note_On_58_Vel_72
Time_Shift_4
Sustain_Off
Time_Shift_34
Note_On_51_Vel_0
Time_Shift_1
Note_On_55_Vel_0
Time_Shift_1
Note_On_58_Vel_0
Note_On_50_Vel_0
Time_Shift_1
Note_On_53_Vel_0
Note_On_63_Vel_0
Time_Shift_1
Note_On_39_Vel_0
Note_On_65_Vel_0
Time_Shift_1
Note_On_38_Vel_0
Time_Shift_82
Note_On_58_Vel_85
Note_On_67_Vel_88
Time_Shift_1
Note_On_55_Vel_85
Note_On_49_Vel_82
Time_Shift_5
Note_On_37_Vel_83
Time_Shift_2
Note_On_63_Vel_71
Time_Shift_23
Note_On_58_Vel_0
Note_On_55_Vel_0
Time_Shift_1
Note_On_49_Vel_0
Time_Shift_1
Note_On_37_Vel_0
Time_Shift_2
Note_On_63_Vel_0
Note_On_67_Vel_0
Time_Shift_103
Note_On_68_Vel_91
Time_Shift_1
Note_On_63_Vel_88
Time_Shift_1
Note_On_56_Vel_93
Time_Shift_3
Note_On_48_Vel_93
Time_Shift_3
Note_On_36_Vel_87
Time_Shift_58
Sustain_On
Time_Shift_211
Sustain_Off
Time_Shift_2
Note_On_48_Vel_0
Time_Shift_1
Note_On_56_Vel_0
Time_Shift_1
Note_On_63_Vel_0
Note_On_36_Vel_0
Time_Shift_2
Note_On_68_Vel_0
Time_Shift_7
Note_On_57_Vel_96
Note_On_47_Vel_96
Time_Shift_1
Note_On_69_Vel_90
Time_Shift_1
Note_On_63_Vel_92
Time_Shift_1
Note_On_66_Vel_92
Note_On_35_Vel_85
Time_Shift_65
Sustain_On
Time_Shift_207
Note_On_63_Vel_0
Time_Shift_3
Note_On_46_Vel_94
Time_Shift_2
Note_On_58_Vel_97
Time_Shift_1
Note_On_70_Vel_95
Time_Shift_1
Note_On_67_Vel_77
Time_Shift_1
Note_On_34_Vel_86
Time_Shift_2
Note_On_63_Vel_85
Time_Shift_10
Sustain_Off
Time_Shift_9
Note_On_47_Vel_0
Note_On_69_Vel_0
Time_Shift_2
Note_On_57_Vel_0
Time_Shift_3
Note_On_35_Vel_0
Time_Shift_6
Note_On_66_Vel_0
Time_Shift_1
Note_On_58_Vel_0
Time_Shift_2
Note_On_46_Vel_0
Time_Shift_3
Note_On_34_Vel_0
Time_Shift_4
Note_On_70_Vel_0
Time_Shift_4
Note_On_67_Vel_0
Time_Shift_15
Note_On_63_Vel_0
Time_Shift_59
Note_On_71_Vel_97
Note_On_59_Vel_102
Time_Shift_5
Note_On_33_Vel_91
Note_On_66_Vel_83
Time_Shift_1
Note_On_45_Vel_91
Note_On_63_Vel_88
Time_Shift_33
Note_On_45_Vel_0
Time_Shift_5
Note_On_33_Vel_0
Note_On_59_Vel_0
Time_Shift_7
Note_On_71_Vel_0
Time_Shift_3
Note_On_63_Vel_0
Time_Shift_1
Note_On_66_Vel_0
Time_Shift_88
Note_On_72_Vel_103
Time_Shift_2
Note_On_60_Vel_103
Note_On_44_Vel_102
Note_On_66_Vel_93
Time_Shift_1
Note_On_63_Vel_98
Note_On_32_Vel_91
Time_Shift_25
Sustain_On
Time_Shift_220
Sustain_Off
Time_Shift_20
Note_On_72_Vel_0
Time_Shift_6
Note_On_60_Vel_0
Time_Shift_8
Note_On_44_Vel_0
Note_On_63_Vel_0
Note_On_66_Vel_0
Time_Shift_8
Note_On_32_Vel_0
Time_Shift_26
Note_On_60_Vel_100
Note_On_43_Vel_100
Time_Shift_1
Note_On_72_Vel_98
Note_On_31_Vel_94
Time_Shift_1
Note_On_67_Vel_96
Note_On_63_Vel_98
Time_Shift_36
Note_On_60_Vel_0
Note_On_43_Vel_0
Time_Shift_1
Note_On_67_Vel_0
Time_Shift_3
Note_On_31_Vel_0
Time_Shift_1
Note_On_72_Vel_0
Time_Shift_2
Note_On_63_Vel_0
Time_Shift_280
Note_On_67_Vel_91
Note_On_71_Vel_93
Note_On_55_Vel_94
Time_Shift_3
Note_On_43_Vel_92
Time_Shift_1
Note_On_62_Vel_94
Time_Shift_25
Note_On_55_Vel_0
Time_Shift_1
Note_On_67_Vel_0
Note_On_62_Vel_0
Note_On_71_Vel_0
Time_Shift_5
Note_On_43_Vel_0
Time_Shift_648
Note_On_70_Vel_66
Time_Shift_4
Note_On_62_Vel_63
Time_Shift_1
Note_On_55_Vel_48
Time_Shift_4
Note_On_43_Vel_45
Time_Shift_22
Note_On_70_Vel_0
Time_Shift_5
Note_On_43_Vel_0
Time_Shift_12
Note_On_55_Vel_0
Note_On_62_Vel_0
Time_Shift_335
Note_On_70_Vel_61
Time_Shift_2
Note_On_68_Vel_54
Time_Shift_4
Note_On_53_Vel_51
Time_Shift_2
Note_On_62_Vel_52
Time_Shift_29
Note_On_53_Vel_0
Note_On_68_Vel_0
Time_Shift_3
Note_On_70_Vel_0
Time_Shift_17
Note_On_62_Vel_0
Time_Shift_403
Note_On_58_Vel_71
Time_Shift_342
Sustain_On
Time_Shift_73
Note_On_65_Vel_57
Time_Shift_6
Note_On_62_Vel_46
Time_Shift_343
Note_On_65_Vel_0
Time_Shift_5
Note_On_65_Vel_63
Time_Shift_8
Note_On_60_Vel_49
Time_Shift_6
Note_On_56_Vel_60
Time_Shift_117
Note_On_67_Vel_80
Time_Shift_29
Note_On_55_Vel_58
Time_Shift_135
Note_On_60_Vel_0
Time_Shift_1
Note_On_68_Vel_78
Time_Shift_2
Note_On_55_Vel_0
Note_On_56_Vel_0
Time_Shift_1
Note_On_58_Vel_0
Note_On_65_Vel_0
Time_Shift_1
Sustain_Off
Note_On_67_Vel_0
Note_On_62_Vel_0
Time_Shift_4
Note_On_60_Vel_67
Time_Shift_13
Note_On_53_Vel_56
Time_Shift_124
Sustain_On
Time_Shift_188
Note_On_65_Vel_73
Time_Shift_9
Note_On_62_Vel_52
Time_Shift_4
Note_On_56_Vel_57
Time_Shift_1
Note_On_59_Vel_56
Time_Shift_26
Note_On_60_Vel_0
Time_Shift_5
Sustain_Off
Note_On_68_Vel_0
Time_Shift_36
Note_On_53_Vel_0
Time_Shift_249
Note_On_63_Vel_69
Time_Shift_8
Note_On_55_Vel_48
Time_Shift_4
Note_On_58_Vel_45
Time_Shift_20
Note_On_65_Vel_0
Time_Shift_4
Note_On_56_Vel_0
Time_Shift_9
Note_On_59_Vel_0
Time_Shift_9
Note_On_62_Vel_0
Time_Shift_75
Note_On_65_Vel_62
Time_Shift_25
Note_On_58_Vel_0
Time_Shift_23
Note_On_63_Vel_0
Time_Shift_110
Note_On_65_Vel_0
Time_Shift_9
Note_On_55_Vel_0
Time_Shift_18
Note_On_67_Vel_55
Time_Shift_3
Note_On_55_Vel_42
Time_Shift_2
Note_On_63_Vel_45
Time_Shift_3
Note_On_58_Vel_38
Time_Shift_128
Sustain_On
Time_Shift_192
Note_On_55_Vel_0
Time_Shift_15
Note_On_63_Vel_0
Time_Shift_8
Note_On_58_Vel_0
Time_Shift_3
Note_On_63_Vel_66
Time_Shift_8
Note_On_60_Vel_50
Time_Shift_2
Note_On_56_Vel_54
Time_Shift_133
Note_On_67_Vel_0
Time_Shift_107
Sustain_Off
Time_Shift_72
Note_On_55_Vel_57
Note_On_58_Vel_62
Time_Shift_128
Note_On_56_Vel_0
Time_Shift_7
Note_On_56_Vel_64
Time_Shift_4
Note_On_55_Vel_0
Time_Shift_6
Note_On_58_Vel_0
Time_Shift_2
Note_On_53_Vel_59
Time_Shift_4
Note_On_60_Vel_0
Time_Shift_136
Note_On_53_Vel_0
Time_Shift_2
Note_On_63_Vel_0
Time_Shift_3
Note_On_56_Vel_0
Time_Shift_4
Note_On_63_Vel_70
Time_Shift_2
Note_On_55_Vel_60
Time_Shift_6
Note_On_51_Vel_61
Time_Shift_69
Note_On_51_Vel_0
Time_Shift_16
Note_On_55_Vel_0
Time_Shift_123
Sustain_On
Time_Shift_167
Note_On_58_Vel_46
Time_Shift_2
Note_On_46_Vel_46
Time_Shift_2
Note_On_53_Vel_50
Time_Shift_21
Sustain_Off
Time_Shift_313
Note_On_62_Vel_59
Time_Shift_150
Note_On_60_Vel_57
Time_Shift_36
Note_On_63_Vel_0
Time_Shift_1
Note_On_62_Vel_0
Time_Shift_14
Note_On_58_Vel_0
Time_Shift_100
Note_On_46_Vel_0
Note_On_53_Vel_0
Time_Shift_5
Note_On_58_Vel_57
Time_Shift_1
Note_On_53_Vel_53
Time_Shift_6
Note_On_46_Vel_53
Time_Shift_3
Note_On_34_Vel_50
Note_On_56_Vel_61
Time_Shift_24
Note_On_60_Vel_0
Time_Shift_3
Note_On_53_Vel_0
Note_On_58_Vel_0
Time_Shift_1
Note_On_46_Vel_0
Time_Shift_6
Note_On_56_Vel_0
Time_Shift_28
Note_On_34_Vel_0
Time_Shift_240
Note_On_39_Vel_74
Time_Shift_1
Note_On_67_Vel_75
Time_Shift_2
Note_On_63_Vel_72
Note_On_55_Vel_68
Time_Shift_23
Note_On_67_Vel_0
Note_On_55_Vel_0
Time_Shift_4
Note_On_39_Vel_0
Time_Shift_22
Note_On_63_Vel_0
Time_Shift_254
Note_On_79_Vel_93
Time_Shift_2
Note_On_63_Vel_100
Note_On_75_Vel_93
Time_Shift_1
Note_On_51_Vel_89
Note_On_67_Vel_90
Time_Shift_20
Note_On_67_Vel_0
Time_Shift_1
Note_On_79_Vel_0
Time_Shift_2
Note_On_63_Vel_0
Note_On_51_Vel_0
Time_Shift_19
Note_On_75_Vel_0
Time_Shift_206
Note_On_63_Vel_50
Time_Shift_25
Note_On_63_Vel_0
Time_Shift_41
Note_On_67_Vel_80
Time_Shift_1
Note_On_63_Vel_81
Note_On_51_Vel_79
Note_On_39_Vel_72
Note_On_55_Vel_71
Time_Shift_24
Note_On_51_Vel_0
Note_On_55_Vel_0
Note_On_63_Vel_0
Time_Shift_18
Note_On_67_Vel_0
Time_Shift_8
Note_On_39_Vel_0
Time_Shift_246
Note_On_47_Vel_84
Time_Shift_3
Note_On_55_Vel_92
Note_On_59_Vel_77
Time_Shift_1
Note_On_63_Vel_92
Note_On_67_Vel_92
Time_Shift_1
Note_On_35_Vel_78
Time_Shift_19
Note_On_47_Vel_0
Time_Shift_2
Note_On_63_Vel_0
Time_Shift_4
Note_On_59_Vel_0
Time_Shift_5
Note_On_35_Vel_0
Time_Shift_3
Note_On_67_Vel_0
Time_Shift_8
Note_On_55_Vel_0
Time_Shift_258
Note_On_79_Vel_101
Time_Shift_1
Note_On_67_Vel_106
Time_Shift_1
Note_On_63_Vel_102
Time_Shift_2
Note_On_75_Vel_101
Time_Shift_1
Note_On_51_Vel_94
Time_Shift_19
Note_On_67_Vel_0
Time_Shift_4
Note_On_79_Vel_0
Time_Shift_1
Note_On_63_Vel_0
Time_Shift_1
Note_On_51_Vel_0
Time_Shift_19
Note_On_75_Vel_0
Time_Shift_247
Note_On_63_Vel_98
Note_On_55_Vel_94
Time_Shift_2
Note_On_67_Vel_97
Time_Shift_1
Note_On_60_Vel_81
Time_Shift_5
Note_On_48_Vel_87
Time_Shift_1
Note_On_36_Vel_78
Time_Shift_18
Note_On_55_Vel_0
Time_Shift_2
Note_On_63_Vel_0
Time_Shift_2
Note_On_60_Vel_0
Time_Shift_14
Note_On_67_Vel_0
Time_Shift_7
Note_On_36_Vel_0
Note_On_48_Vel_0
Time_Shift_299
Note_On_94_Vel_96
Time_Shift_12
Note_On_46_Vel_71
Time_Shift_1
Note_On_34_Vel_65
Time_Shift_4
Note_On_91_Vel_73
Time_Shift_15
Sustain_On
Time_Shift_70
Note_On_82_Vel_96
Note_On_79_Vel_89
Time_Shift_83
Note_On_91_Vel_0
Time_Shift_10
Note_On_91_Vel_97
Time_Shift_1
Note_On_87_Vel_93
Time_Shift_112
Note_On_79_Vel_0
Time_Shift_3
Note_On_67_Vel_82
Time_Shift_1
Note_On_63_Vel_77
Time_Shift_1
Note_On_58_Vel_77
Time_Shift_2
Note_On_75_Vel_85
Time_Shift_1
Note_On_79_Vel_84
Time_Shift_20
Note_On_46_Vel_0
Time_Shift_2
Note_On_82_Vel_0
Sustain_Off
Time_Shift_2
Note_On_94_Vel_0
Time_Shift_1
Note_On_87_Vel_0
Time_Shift_1
Note_On_91_Vel_0
Time_Shift_1
Note_On_67_Vel_0
Time_Shift_2
Note_On_75_Vel_0
Time_Shift_2
Note_On_34_Vel_0
Time_Shift_5
Note_On_63_Vel_0
Time_Shift_10
Note_On_79_Vel_0
Time_Shift_280
Note_On_82_Vel_85
Time_Shift_1
Note_On_74_Vel_80
Time_Shift_4
Note_On_68_Vel_69
Time_Shift_2
Note_On_65_Vel_75
Time_Shift_25
Note_On_68_Vel_0
Time_Shift_6
Note_On_65_Vel_0
Time_Shift_12
Note_On_74_Vel_0
Note_On_82_Vel_0
Time_Shift_341
Note_On_87_Vel_67
Note_On_75_Vel_71
Time_Shift_8
Note_On_67_Vel_52
Time_Shift_3
Note_On_63_Vel_64
Time_Shift_14
Note_On_58_Vel_0
Time_Shift_49
Note_On_67_Vel_0
Time_Shift_8
Note_On_75_Vel_0
Time_Shift_168
Note_On_87_Vel_0
Time_Shift_186
Note_On_51_Vel_62
Time_Shift_36
Note_On_51_Vel_0
Time_Shift_9
Note_On_63_Vel_0
Time_Shift_268
Note_On_79_Vel_88
Time_Shift_3
Note_On_75_Vel_83
Time_Shift_24
Note_On_79_Vel_0
Time_Shift_1
Note_On_75_Vel_0
Time_Shift_267
Note_On_91_Vel_92
Time_Shift_1
Note_On_87_Vel_89
Time_Shift_50
Sustain_On
Time_Shift_52
Note_On_75_Vel_96
Note_On_79_Vel_88
Time_Shift_63
Note_On_87_Vel_0
Time_Shift_8
Note_On_91_Vel_0
Time_Shift_28
Note_On_87_Vel_86
Time_Shift_1
Note_On_84_Vel_77
Time_Shift_94
Note_On_75_Vel_0
Time_Shift_5
Note_On_75_Vel_99
Time_Shift_1
Note_On_72_Vel_86
Time_Shift_36
Note_On_84_Vel_0
Note_On_87_Vel_0
Time_Shift_1
Note_On_75_Vel_0
Time_Shift_1
Sustain_Off
Note_On_72_Vel_0
Time_Shift_2
Note_On_79_Vel_0
Time_Shift_264
Note_On_79_Vel_89
Time_Shift_4
Note_On_75_Vel_88
Time_Shift_5
Note_On_60_Vel_75
Note_On_63_Vel_79
Time_Shift_24
Note_On_79_Vel_0
Note_On_75_Vel_0
Time_Shift_4
Note_On_60_Vel_0
Time_Shift_22
Note_On_63_Vel_0
Time_Shift_237
Note_On_68_Vel_83
Time_Shift_1
Note_On_80_Vel_89
Time_Shift_4
Note_On_65_Vel_77
Note_On_77_Vel_77
Time_Shift_19
Sustain_On
Time_Shift_83
Note_On_56_Vel_83
Time_Shift_2
Note_On_53_Vel_79
Time_Shift_99
Note_On_65_Vel_0
Note_On_68_Vel_0
Time_Shift_5
Note_On_60_Vel_84
Time_Shift_1
Note_On_68_Vel_76
Note_On_65_Vel_82
Time_Shift_5
Note_On_56_Vel_0
Time_Shift_70
Note_On_60_Vel_0
Time_Shift_1
Note_On_80_Vel_0
Note_On_53_Vel_0
Time_Shift_4
Note_On_77_Vel_0
Time_Shift_4
Sustain_Off
Time_Shift_2
Note_On_65_Vel_0
Time_Shift_8
Note_On_68_Vel_0
Time_Shift_22
Note_On_53_Vel_68
Time_Shift_1
Note_On_48_Vel_76
Time_Shift_28
Note_On_53_Vel_0
Note_On_48_Vel_0
Time_Shift_305
Note_On_56_Vel_81
Time_Shift_1
Note_On_84_Vel_92
Note_On_53_Vel_50
Time_Shift_1
Note_On_80_Vel_80
Time_Shift_6
Note_On_72_Vel_59
Time_Shift_26
Note_On_56_Vel_0
Time_Shift_6
Note_On_53_Vel_0
Time_Shift_34
Sustain_On
Time_Shift_69
Note_On_72_Vel_0
Time_Shift_171
Note_On_84_Vel_0
Time_Shift_2
Sustain_Off
Time_Shift_19
Note_On_80_Vel_0
Time_Shift_3
Note_On_89_Vel_93
Note_On_86_Vel_87
Time_Shift_3
Note_On_53_Vel_80
Time_Shift_6
Note_On_46_Vel_69
Time_Shift_34
Sustain_On
Time_Shift_54
Note_On_77_Vel_86
Time_Shift_2
Note_On_74_Vel_88
Time_Shift_82
Note_On_86_Vel_0
Time_Shift_8
Note_On_82_Vel_92
Time_Shift_1
Note_On_86_Vel_90
Time_Shift_53
Note_On_77_Vel_0
Time_Shift_8
Note_On_86_Vel_0
Note_On_74_Vel_0
Note_On_82_Vel_0
Time_Shift_1
Note_On_89_Vel_0
Time_Shift_2
Note_On_77_Vel_66
Sustain_Off
Time_Shift_48
Note_On_70_Vel_79
Note_On_74_Vel_70
Time_Shift_48
Sustain_On
Time_Shift_8
Note_On_74_Vel_0
Time_Shift_7
Note_On_74_Vel_55
Time_Shift_239
Note_On_77_Vel_0
Time_Shift_6
Note_On_77_Vel_84
Time_Shift_2
Note_On_74_Vel_0
Time_Shift_8
Note_On_70_Vel_0
Time_Shift_2
Note_On_74_Vel_73
Time_Shift_2
Sustain_Off
Time_Shift_3
Note_On_58_Vel_64
Note_On_62_Vel_73
Time_Shift_8
Note_On_46_Vel_0
Note_On_53_Vel_0
Time_Shift_38
Note_On_77_Vel_0
Time_Shift_15
Note_On_74_Vel_0
Time_Shift_23
Sustain_On
Time_Shift_177
Note_On_62_Vel_0
Time_Shift_18
Sustain_Off
Time_Shift_13
Note_On_58_Vel_0
Time_Shift_3
Note_On_67_Vel_79
Note_On_79_Vel_84
Note_On_63_Vel_89
Time_Shift_2
Note_On_58_Vel_56
Time_Shift_24
Note_On_67_Vel_0
Time_Shift_5
Note_On_63_Vel_0
Time_Shift_35
Sustain_On
Time_Shift_8
Note_On_58_Vel_0
Note_On_79_Vel_0
Time_Shift_35
Note_On_51_Vel_81
Time_Shift_5
Note_On_55_Vel_65
Time_Shift_86
Note_On_63_Vel_84
Time_Shift_1
Note_On_58_Vel_70
Time_Shift_67
Note_On_55_Vel_0
Time_Shift_1
Note_On_63_Vel_0
Note_On_58_Vel_0
Time_Shift_1
Sustain_Off
Time_Shift_34
Note_On_51_Vel_0
Time_Shift_4
Note_On_51_Vel_81
Note_On_46_Vel_73
Time_Shift_29
Note_On_46_Vel_0
Time_Shift_1
Note_On_51_Vel_0
Time_Shift_317
Note_On_82_Vel_89
Time_Shift_5
Note_On_55_Vel_64
Note_On_51_Vel_69
Time_Shift_1
Note_On_79_Vel_75
Time_Shift_31
Note_On_55_Vel_0
Time_Shift_1
Note_On_51_Vel_0
Time_Shift_33
Sustain_On
Time_Shift_224
Sustain_Off
Time_Shift_8
Note_On_82_Vel_0
Time_Shift_14
Note_On_79_Vel_0
Time_Shift_7
Note_On_87_Vel_85
Time_Shift_5
Note_On_84_Vel_74
Time_Shift_5
Note_On_51_Vel_70
Time_Shift_2
Note_On_44_Vel_65
Time_Shift_35
Sustain_On
Time_Shift_58
Note_On_72_Vel_79
Note_On_75_Vel_74
Time_Shift_80
Note_On_84_Vel_0
Time_Shift_4
Note_On_80_Vel_80
Note_On_84_Vel_86
Time_Shift_70
Note_On_80_Vel_0
Time_Shift_2
Note_On_84_Vel_0
Note_On_72_Vel_0
Note_On_75_Vel_0
Time_Shift_1
Note_On_87_Vel_0
Time_Shift_5
Sustain_Off
Time_Shift_38
Note_On_72_Vel_74
Note_On_68_Vel_77
Time_Shift_29
Note_On_72_Vel_0
Time_Shift_35
Note_On_68_Vel_0
Time_Shift_240
Note_On_80_Vel_87
Time_Shift_3
Note_On_75_Vel_83
Time_Shift_14
Note_On_44_Vel_0
Time_Shift_4
Note_On_60_Vel_61
Time_Shift_1
Note_On_56_Vel_65
Time_Shift_23
Note_On_51_Vel_0
Time_Shift_23
Note_On_75_Vel_0
Time_Shift_7
Sustain_On
Time_Shift_192
Note_On_80_Vel_0
Time_Shift_27
Note_On_56_Vel_0
Time_Shift_10
Sustain_Off
Time_Shift_25
Note_On_60_Vel_0
Time_Shift_24
Note_On_41_Vel_70
Time_Shift_2
Note_On_74_Vel_74
Note_On_53_Vel_71
Time_Shift_1
Note_On_72_Vel_74
Time_Shift_65
Sustain_On
Time_Shift_25
Note_On_80_Vel_72
Time_Shift_1
Note_On_84_Vel_81
Time_Shift_89
Note_On_84_Vel_0
Time_Shift_1
Note_On_86_Vel_91
Time_Shift_3
Note_On_84_Vel_82
Time_Shift_68
Note_On_72_Vel_0
Note_On_80_Vel_0
Note_On_74_Vel_0
Time_Shift_2
Note_On_86_Vel_0
Time_Shift_15
Note_On_96_Vel_100
Note_On_92_Vel_90
Time_Shift_34
Note_On_53_Vel_0
Time_Shift_192
Note_On_41_Vel_0
Time_Shift_33
Sustain_Off
Time_Shift_5
Note_On_84_Vel_0
Time_Shift_31
Note_On_96_Vel_0
Time_Shift_43
Note_On_53_Vel_83
Note_On_41_Vel_78
Note_On_74_Vel_83
Time_Shift_7
Note_On_72_Vel_77
Time_Shift_1
Note_On_65_Vel_66
Time_Shift_11
Note_On_65_Vel_0
Note_On_92_Vel_0
Time_Shift_12
Note_On_41_Vel_0
Time_Shift_10
Note_On_72_Vel_0
Time_Shift_8
Note_On_53_Vel_0
Note_On_74_Vel_0
Time_Shift_275
Note_On_56_Vel_78
Time_Shift_1
Note_On_74_Vel_83
Time_Shift_1
Note_On_62_Vel_62
Note_On_72_Vel_80
Time_Shift_3
Note_On_44_Vel_75
Time_Shift_4
Note_On_62_Vel_0
Sustain_On
Time_Shift_82
Note_On_84_Vel_93
Time_Shift_7
Note_On_77_Vel_75
Time_Shift_88
Note_On_84_Vel_0
Time_Shift_6
Note_On_86_Vel_92
Time_Shift_3
Note_On_84_Vel_92
Time_Shift_73
Note_On_74_Vel_0
Time_Shift_1
Note_On_77_Vel_0
Time_Shift_14
Note_On_96_Vel_103
Note_On_89_Vel_100
Time_Shift_49
Note_On_72_Vel_0
Time_Shift_203
Note_On_96_Vel_0
Time_Shift_1
Note_On_44_Vel_0
Time_Shift_1
Sustain_Off
Time_Shift_2
Note_On_56_Vel_0
Time_Shift_16
Note_On_84_Vel_0
Time_Shift_15
Note_On_86_Vel_0
Time_Shift_15
Note_On_89_Vel_0
Time_Shift_19
Note_On_72_Vel_85
Time_Shift_1
Note_On_74_Vel_90
Time_Shift_2
Note_On_56_Vel_81
Time_Shift_4
Note_On_44_Vel_83
Time_Shift_25
Note_On_72_Vel_0
Time_Shift_1
Note_On_56_Vel_0
Note_On_74_Vel_0
Time_Shift_3
Note_On_44_Vel_0
Time_Shift_211
Note_On_74_Vel_59
Time_Shift_34
Note_On_74_Vel_0
Time_Shift_38
Note_On_43_Vel_88
Note_On_55_Vel_88
Time_Shift_3
Note_On_74_Vel_87
Time_Shift_1
Note_On_71_Vel_83
Time_Shift_23
Note_On_43_Vel_0
Time_Shift_19
Note_On_55_Vel_0
Time_Shift_16
Note_On_71_Vel_0
Time_Shift_18
Note_On_74_Vel_0
Time_Shift_10
Note_On_83_Vel_90
Time_Shift_1
Note_On_79_Vel_77
Time_Shift_34
Note_On_83_Vel_0
Time_Shift_14
Note_On_79_Vel_0
Time_Shift_50
Note_On_86_Vel_95
Note_On_83_Vel_86
Time_Shift_94
Note_On_95_Vel_104
Time_Shift_4
Note_On_91_Vel_92
Time_Shift_59
Sustain_On
Time_Shift_192
Sustain_Off
Time_Shift_186
Note_On_74_Vel_70
Time_Shift_5
Note_On_71_Vel_57
Time_Shift_26
Note_On_67_Vel_39
Time_Shift_36
Sustain_On
Time_Shift_292
Note_On_67_Vel_0
Note_On_74_Vel_0
Time_Shift_4
Note_On_67_Vel_59
Time_Shift_2
Note_On_74_Vel_69
Time_Shift_3
Note_On_70_Vel_67
Time_Shift_14
Note_On_95_Vel_0
Time_Shift_46
Note_On_83_Vel_0
Time_Shift_30
Note_On_79_Vel_71
Time_Shift_2
Note_On_82_Vel_78
Time_Shift_13
Note_On_62_Vel_68
Time_Shift_71
Note_On_74_Vel_0
Time_Shift_5
Note_On_74_Vel_79
Time_Shift_2
Note_On_67_Vel_0
Note_On_70_Vel_0
Time_Shift_4
Note_On_67_Vel_67
Time_Shift_6
Note_On_70_Vel_64
Time_Shift_17
Note_On_82_Vel_0
Note_On_79_Vel_0
Time_Shift_2
Note_On_74_Vel_0
Sustain_Off
Time_Shift_1
Note_On_62_Vel_0
Time_Shift_1
Note_On_91_Vel_0
Time_Shift_15
Note_On_86_Vel_0
Time_Shift_8
Note_On_71_Vel_0
Time_Shift_8
Note_On_67_Vel_0
Note_On_70_Vel_0
Time_Shift_65
Note_On_73_Vel_81
Time_Shift_6
Note_On_70_Vel_67
Time_Shift_1
Note_On_64_Vel_65
Time_Shift_1
Note_On_67_Vel_54
Time_Shift_31
Note_On_64_Vel_0
Time_Shift_1
Note_On_73_Vel_0
Note_On_70_Vel_0
Time_Shift_18
Note_On_67_Vel_0
Time_Shift_281
Note_On_72_Vel_78
Time_Shift_6
Note_On_70_Vel_68
Time_Shift_9
Note_On_64_Vel_56
Time_Shift_18
Sustain_On
Time_Shift_283
Sustain_Off
Time_Shift_2
Note_On_72_Vel_0
Time_Shift_2
Note_On_64_Vel_0
Time_Shift_8
Note_On_70_Vel_0
Time_Shift_1
Note_On_72_Vel_73
Note_On_69_Vel_66
Time_Shift_1
Note_On_65_Vel_64
Time_Shift_93
Note_On_81_Vel_81
Time_Shift_7
Note_On_60_Vel_63
Time_Shift_3
Note_On_77_Vel_58
Time_Shift_15
Sustain_On
Time_Shift_46
Note_On_72_Vel_0
Time_Shift_11
Note_On_72_Vel_76
Time_Shift_5
Note_On_69_Vel_0
Time_Shift_7
Note_On_65_Vel_0
Time_Shift_3
Note_On_69_Vel_78
Time_Shift_2
Note_On_65_Vel_70
Time_Shift_45
Note_On_81_Vel_0
Time_Shift_1
Note_On_65_Vel_0
Time_Shift_1
Note_On_60_Vel_0
Note_On_72_Vel_0
Time_Shift_2
Note_On_77_Vel_0
Time_Shift_15
Sustain_Off
Note_On_69_Vel_0
Time_Shift_48
Note_On_71_Vel_81
Time_Shift_16
Note_On_62_Vel_61
Time_Shift_1
Note_On_68_Vel_65
Time_Shift_1
Note_On_65_Vel_45
Time_Shift_23
Note_On_71_Vel_0
Note_On_62_Vel_0
Time_Shift_1
Note_On_68_Vel_0
Time_Shift_10
Note_On_65_Vel_0
Time_Shift_306
Note_On_70_Vel_77
Time_Shift_6
Note_On_68_Vel_60
Note_On_62_Vel_65
Time_Shift_26
Sustain_On
Time_Shift_274
Note_On_62_Vel_0
Note_On_68_Vel_0
Time_Shift_5
Sustain_Off
Time_Shift_21
Note_On_70_Vel_0
Time_Shift_6
Note_On_70_Vel_71
Time_Shift_4
Note_On_67_Vel_67
Time_Shift_3
Note_On_63_Vel_64
Time_Shift_25
Sustain_On
Time_Shift_63
Note_On_79_Vel_68
Note_On_75_Vel_68
Time_Shift_98
Note_On_79_Vel_0
Time_Shift_4
Note_On_70_Vel_0
Note_On_82_Vel_84
Time_Shift_1
Note_On_79_Vel_73
Time_Shift_11
Note_On_67_Vel_0
Time_Shift_53
Sustain_Off
Time_Shift_34
Note_On_91_Vel_86
Time_Shift_9
Note_On_51_Vel_67
Note_On_87_Vel_63
Time_Shift_19
Note_On_63_Vel_0
Time_Shift_15
Note_On_75_Vel_0
Time_Shift_8
Sustain_On
Time_Shift_100
Note_On_87_Vel_0
Time_Shift_84
Note_On_82_Vel_0
Time_Shift_23
Note_On_79_Vel_0
Time_Shift_77
Note_On_91_Vel_0
Time_Shift_6
Note_On_91_Vel_98
Time_Shift_4
Note_On_79_Vel_88
Time_Shift_1
Note_On_85_Vel_85
Time_Shift_1
Sustain_Off
Time_Shift_11
Note_On_51_Vel_0
Time_Shift_5
Note_On_51_Vel_68
Time_Shift_5
Note_On_39_Vel_59
Time_Shift_29
Sustain_On
Time_Shift_274
Note_On_86_Vel_78
Time_Shift_1
Note_On_79_Vel_0
Note_On_90_Vel_87
Time_Shift_2
Note_On_51_Vel_0
Time_Shift_1
Note_On_85_Vel_0
Time_Shift_1
Note_On_91_Vel_0
Time_Shift_2
Note_On_39_Vel_0
Time_Shift_4
Note_On_50_Vel_67
Time_Shift_1
Note_On_38_Vel_63
Time_Shift_3
Sustain_Off
Time_Shift_56
Sustain_On
Time_Shift_11
Note_On_78_Vel_84
Time_Shift_112
Note_On_78_Vel_0
Time_Shift_10
Note_On_78_Vel_89
Time_Shift_62
Note_On_78_Vel_0
Note_On_90_Vel_0
Time_Shift_1
Note_On_86_Vel_0
Note_On_50_Vel_0
Time_Shift_1
Note_On_38_Vel_0
Time_Shift_2
Sustain_Off
Time_Shift_29
Note_On_69_Vel_75
Time_Shift_6
Note_On_66_Vel_76
Time_Shift_11
Note_On_62_Vel_68
Time_Shift_14
Note_On_69_Vel_0
Time_Shift_1
Note_On_66_Vel_0
Time_Shift_32
Sustain_On
Time_Shift_10
Note_On_50_Vel_54
Time_Shift_248
Note_On_77_Vel_91
Time_Shift_1
Note_On_71_Vel_82
Time_Shift_1
Note_On_55_Vel_81
Time_Shift_1
Note_On_65_Vel_81
Time_Shift_1
Note_On_43_Vel_82
Time_Shift_4
Sustain_Off
Time_Shift_6
Note_On_50_Vel_0
Time_Shift_12
Note_On_62_Vel_0
Time_Shift_62
Sustain_On
Time_Shift_107
Note_On_43_Vel_0
Note_On_71_Vel_0
Time_Shift_9
Note_On_43_Vel_53
Time_Shift_2
Note_On_71_Vel_59
Time_Shift_92
Note_On_65_Vel_0
Time_Shift_1
Note_On_77_Vel_0
Note_On_55_Vel_0
Note_On_71_Vel_0
Time_Shift_1
Sustain_Off
Time_Shift_15
Note_On_67_Vel_90
Time_Shift_5
Note_On_64_Vel_84
Time_Shift_2
Note_On_60_Vel_82
Note_On_48_Vel_83
Time_Shift_4
Sustain_On
Time_Shift_85
Note_On_76_Vel_84
Note_On_72_Vel_74
Time_Shift_84
Note_On_76_Vel_0
Time_Shift_2
Note_On_79_Vel_99
Time_Shift_2
Note_On_76_Vel_87
Time_Shift_70
Note_On_64_Vel_0
Note_On_76_Vel_0
Time_Shift_1
Note_On_48_Vel_0
Note_On_72_Vel_0
Note_On_67_Vel_0
Time_Shift_3
Sustain_Off
Note_On_79_Vel_0
Time_Shift_6
Note_On_60_Vel_0
Time_Shift_8
Note_On_43_Vel_0
Time_Shift_9
Note_On_88_Vel_102
Note_On_84_Vel_95
Time_Shift_15
Note_On_43_Vel_91
Time_Shift_1
Note_On_55_Vel_90
Time_Shift_25
Note_On_55_Vel_0
Note_On_84_Vel_0
Time_Shift_1
Note_On_43_Vel_0
Time_Shift_1
Note_On_88_Vel_0
Time_Shift_259
Note_On_77_Vel_93
Time_Shift_2
Note_On_87_Vel_98
Note_On_57_Vel_90
Note_On_84_Vel_85
Time_Shift_2
Sustain_On
Time_Shift_1
Note_On_45_Vel_90
Time_Shift_2
Note_On_75_Vel_97
Time_Shift_281
Note_On_77_Vel_0
Time_Shift_6
Note_On_77_Vel_99
Time_Shift_5
Note_On_58_Vel_90
Note_On_46_Vel_88
Time_Shift_1
Note_On_74_Vel_91
Time_Shift_5
Sustain_Off
Time_Shift_2
Note_On_45_Vel_0
Note_On_84_Vel_0
Time_Shift_1
Note_On_57_Vel_0
Note_On_87_Vel_0
Time_Shift_3
Note_On_75_Vel_0
Time_Shift_46
Sustain_On
Time_Shift_26
Note_On_86_Vel_92
Time_Shift_1
Note_On_82_Vel_94
Time_Shift_88
Note_On_86_Vel_0
Time_Shift_8
Note_On_89_Vel_104
Time_Shift_2
Note_On_86_Vel_91
Time_Shift_87
Note_On_82_Vel_0
Note_On_74_Vel_0
Time_Shift_1
Note_On_58_Vel_0
Note_On_46_Vel_0
Time_Shift_1
Note_On_89_Vel_0
Time_Shift_1
Sustain_Off
Time_Shift_4
Note_On_98_Vel_112
Time_Shift_4
Note_On_77_Vel_0
Time_Shift_3
Note_On_53_Vel_89
Time_Shift_1
Note_On_94_Vel_98
Time_Shift_5
Note_On_41_Vel_82
Time_Shift_39
Note_On_41_Vel_0
Time_Shift_13
Note_On_53_Vel_0
Time_Shift_138
Sustain_On
Time_Shift_108
Note_On_98_Vel_0
Time_Shift_54
Note_On_86_Vel_0
Note_On_94_Vel_0
Time_Shift_7
Note_On_86_Vel_99
Time_Shift_4
Note_On_81_Vel_96
Time_Shift_2
Note_On_84_Vel_96
Note_On_74_Vel_97
Time_Shift_6
Note_On_42_Vel_77
Time_Shift_1
Sustain_Off
Time_Shift_2
Note_On_54_Vel_83
Time_Shift_54
Sustain_On
Time_Shift_415
Note_On_86_Vel_0
Time_Shift_4
Note_On_86_Vel_88
Time_Shift_4
Note_On_83_Vel_84
Time_Shift_5
Note_On_42_Vel_0
Note_On_74_Vel_0
Time_Shift_1
Note_On_54_Vel_0
Time_Shift_2
Sustain_Off
Time_Shift_1
Note_On_84_Vel_0
Note_On_81_Vel_0
Time_Shift_12
Note_On_43_Vel_62
Time_Shift_4
Note_On_55_Vel_52
Time_Shift_6
Note_On_55_Vel_0
Time_Shift_61
Sustain_On
Time_Shift_43
Note_On_79_Vel_83
Time_Shift_4
Note_On_74_Vel_72
Time_Shift_99
Note_On_79_Vel_0
Note_On_83_Vel_0
Time_Shift_5
Note_On_83_Vel_87
Time_Shift_4
Note_On_79_Vel_76
Time_Shift_91
Note_On_74_Vel_0
Time_Shift_4
Note_On_74_Vel_71
Time_Shift_1
Note_On_71_Vel_78
Time_Shift_87
Note_On_74_Vel_0
Note_On_79_Vel_0
Time_Shift_11
Note_On_79_Vel_81
Note_On_74_Vel_73
Time_Shift_96
Note_On_71_Vel_0
Note_On_74_Vel_0
Time_Shift_6
Note_On_71_Vel_67
Time_Shift_3
Note_On_67_Vel_64
Time_Shift_1
Note_On_74_Vel_59
Time_Shift_106
Note_On_71_Vel_0
Note_On_74_Vel_0
Time_Shift_6
Note_On_71_Vel_73
Time_Shift_4
Note_On_74_Vel_61
Time_Shift_55
Sustain_Off
Time_Shift_19
Sustain_On
Time_Shift_23
Note_On_67_Vel_0
Time_Shift_5
Note_On_67_Vel_63
Time_Shift_22
Note_On_62_Vel_66
Time_Shift_114
Note_On_72_Vel_71
Time_Shift_2
Note_On_79_Vel_0
Time_Shift_5
Note_On_74_Vel_0
Note_On_83_Vel_0
Time_Shift_1
Sustain_Off
Time_Shift_2
Note_On_69_Vel_63
Time_Shift_26
Sustain_On
Time_Shift_38
Note_On_86_Vel_0
Time_Shift_65
Note_On_69_Vel_0
Time_Shift_16
Note_On_72_Vel_0
Time_Shift_4
Note_On_67_Vel_0
Note_On_71_Vel_0
Time_Shift_5
Note_On_71_Vel_65
Time_Shift_1
Note_On_67_Vel_55
Time_Shift_1
Sustain_Off
Time_Shift_16
Note_On_43_Vel_0
Time_Shift_11
Note_On_43_Vel_33
Time_Shift_334
Sustain_On
Time_Shift_85
Note_On_70_Vel_69
Time_Shift_138
Note_On_71_Vel_0
Time_Shift_370
Note_On_68_Vel_42
Time_Shift_2
Note_On_41_Vel_40
Time_Shift_1
Note_On_60_Vel_32
Note_On_53_Vel_31
Time_Shift_22
Note_On_43_Vel_0
Sustain_Off
Time_Shift_112
Sustain_On
Time_Shift_23
Note_On_67_Vel_0
Time_Shift_389
Note_On_51_Vel_60
Time_Shift_7
Note_On_39_Vel_46
Note_On_63_Vel_48
Time_Shift_16
Note_On_41_Vel_0
Time_Shift_3
Note_On_53_Vel_0
Time_Shift_2
Note_On_62_Vel_0
Time_Shift_5
Sustain_Off
Time_Shift_39
Note_On_70_Vel_0
Time_Shift_46
Sustain_On
Time_Shift_15
Sustain_Off
Time_Shift_85
Sustain_On
Time_Shift_15
Note_On_68_Vel_0
Time_Shift_104
Note_On_38_Vel_52
Time_Shift_1
Note_On_50_Vel_51
Time_Shift_86
Sustain_Off
Time_Shift_29
Note_On_51_Vel_0
Time_Shift_5
Note_On_50_Vel_0
Time_Shift_1
Note_On_63_Vel_0
Note_On_39_Vel_0
Time_Shift_3
Note_On_38_Vel_0
Time_Shift_6
Note_On_48_Vel_71
Time_Shift_3
Note_On_36_Vel_59
Time_Shift_31
Note_On_60_Vel_0
Time_Shift_11
Note_On_48_Vel_0
Time_Shift_2
Note_On_36_Vel_0
Time_Shift_122
Note_On_34_Vel_70
Time_Shift_2
Note_On_46_Vel_71
Note_On_58_Vel_67
Time_Shift_28
Note_On_46_Vel_0
Time_Shift_2
Note_On_34_Vel_0
Time_Shift_6
Note_On_58_Vel_0
Time_Shift_275
Note_On_63_Vel_71
Time_Shift_2
Note_On_58_Vel_60
Time_Shift_5
Note_On_55_Vel_61
Time_Shift_5
Note_On_43_Vel_60
Time_Shift_54
Sustain_On
Time_Shift_234
Note_On_53_Vel_64
Note_On_41_Vel_69
Time_Shift_4
Note_On_62_Vel_67
Time_Shift_3
Note_On_56_Vel_62
Time_Shift_1
Sustain_Off
Time_Shift_12
Note_On_58_Vel_0
Time_Shift_2
Note_On_63_Vel_0
Time_Shift_1
Note_On_43_Vel_0
Time_Shift_17
Note_On_56_Vel_0
Time_Shift_3
Note_On_55_Vel_0
Time_Shift_15
Note_On_53_Vel_0
Time_Shift_23
Note_On_41_Vel_0
Time_Shift_48
Note_On_60_Vel_65
Time_Shift_14
Note_On_62_Vel_0
Time_Shift_48
Note_On_60_Vel_0
Time_Shift_87
Note_On_41_Vel_75
Time_Shift_1
Note_On_58_Vel_70
Time_Shift_3
Note_On_53_Vel_71
Time_Shift_4
Note_On_56_Vel_70
Time_Shift_24
Note_On_58_Vel_0
Time_Shift_1
Note_On_41_Vel_0
Note_On_53_Vel_0
Time_Shift_8
Note_On_56_Vel_0
Time_Shift_267
Note_On_67_Vel_79
Time_Shift_6
Note_On_55_Vel_68
Note_On_58_Vel_71
Time_Shift_9
Note_On_51_Vel_80
Note_On_39_Vel_70
Time_Shift_26
Sustain_On
Time_Shift_251
Note_On_56_Vel_77
Note_On_65_Vel_67
Time_Shift_2
Note_On_38_Vel_67
Note_On_51_Vel_0
Time_Shift_1
Note_On_39_Vel_0
Note_On_55_Vel_0
Time_Shift_1
Note_On_67_Vel_0
Note_On_50_Vel_63
Note_On_58_Vel_0
Time_Shift_2
Sustain_Off
Time_Shift_31
Note_On_38_Vel_0
Time_Shift_1
Note_On_50_Vel_0
Time_Shift_2
Note_On_56_Vel_0
Time_Shift_3
Note_On_65_Vel_0
Time_Shift_85
Note_On_48_Vel_75
Time_Shift_2
Note_On_36_Vel_67
Time_Shift_28
Note_On_48_Vel_0
Time_Shift_21
Note_On_36_Vel_0
Time_Shift_87
Note_On_65_Vel_83
Time_Shift_6
Note_On_46_Vel_73
Note_On_34_Vel_69
Note_On_53_Vel_64
Time_Shift_1
Note_On_58_Vel_70
Note_On_56_Vel_72
Time_Shift_25
Note_On_56_Vel_0
Note_On_65_Vel_0
Time_Shift_1
Note_On_53_Vel_0
Note_On_58_Vel_0
Note_On_46_Vel_0
Time_Shift_5
Note_On_34_Vel_0
Time_Shift_199
Note_On_56_Vel_49
Time_Shift_52
Note_On_56_Vel_0
Time_Shift_28
Note_On_63_Vel_77
Time_Shift_6
Note_On_58_Vel_62
Time_Shift_1
Note_On_55_Vel_63
Time_Shift_1
Note_On_43_Vel_64
Time_Shift_87
Sustain_On
Time_Shift_214
Note_On_62_Vel_74
Time_Shift_3
Note_On_41_Vel_64
Time_Shift_1
Note_On_53_Vel_57
Time_Shift_2
Note_On_56_Vel_62
Time_Shift_3
Note_On_53_Vel_0
Time_Shift_32
Note_On_58_Vel_0
Time_Shift_1
Sustain_Off
Time_Shift_1
Note_On_43_Vel_0
Time_Shift_1
Note_On_63_Vel_0
Time_Shift_6
Note_On_56_Vel_0
Time_Shift_20
Note_On_55_Vel_0
Time_Shift_17
Note_On_62_Vel_0
Time_Shift_6
Note_On_41_Vel_0
Time_Shift_36
Note_On_60_Vel_64
Time_Shift_68
Note_On_60_Vel_0
Time_Shift_85
Note_On_58_Vel_70
Time_Shift_3
Note_On_41_Vel_67
Time_Shift_3
Note_On_53_Vel_64
Time_Shift_4
Note_On_56_Vel_66
Time_Shift_24
Note_On_53_Vel_0
Time_Shift_1
Note_On_58_Vel_0
Time_Shift_5
Note_On_56_Vel_0
Time_Shift_24
Note_On_41_Vel_0
Time_Shift_235
Note_On_63_Vel_81
Note_On_39_Vel_73
Note_On_58_Vel_69
Note_On_51_Vel_75
Time_Shift_2
Note_On_55_Vel_69
Time_Shift_32
Sustain_On
Time_Shift_254
Note_On_58_Vel_0
Time_Shift_8
Note_On_50_Vel_76
Time_Shift_1
Note_On_38_Vel_72
Time_Shift_1
Note_On_53_Vel_87
Time_Shift_1
Note_On_58_Vel_74
Note_On_65_Vel_76
Time_Shift_25
Sustain_Off
Time_Shift_3
Note_On_51_Vel_0
Time_Shift_3
Note_On_50_Vel_0
Note_On_55_Vel_0
Time_Shift_2
Note_On_58_Vel_0
Time_Shift_1
Note_On_39_Vel_0
Time_Shift_2
Note_On_53_Vel_0
Note_On_63_Vel_0
Time_Shift_1
Note_On_38_Vel_0
Time_Shift_8
Note_On_65_Vel_0
Time_Shift_73
Note_On_55_Vel_89
Time_Shift_4
Note_On_58_Vel_84
Note_On_67_Vel_88
Time_Shift_2
Note_On_63_Vel_86
Time_Shift_3
Note_On_49_Vel_84
Time_Shift_4
Note_On_37_Vel_87
Time_Shift_24
Note_On_55_Vel_0
Note_On_58_Vel_0
Time_Shift_4
Note_On_63_Vel_0
Time_Shift_1
Note_On_67_Vel_0
Note_On_49_Vel_0
Time_Shift_4
Note_On_37_Vel_0
Time_Shift_95
Note_On_63_Vel_95
Note_On_68_Vel_94
Time_Shift_1
Note_On_56_Vel_100
Time_Shift_2
Note_On_48_Vel_90
Note_On_36_Vel_89
Time_Shift_6
Note_On_44_Vel_80
Time_Shift_28
Sustain_On
Time_Shift_215
Note_On_44_Vel_0
Time_Shift_13
Sustain_Off
Time_Shift_4
Note_On_36_Vel_0
Time_Shift_1
Note_On_56_Vel_0
Note_On_48_Vel_0
Time_Shift_1
Note_On_68_Vel_0
Time_Shift_12
Note_On_63_Vel_0
Time_Shift_6
Note_On_69_Vel_90
Note_On_57_Vel_95
Time_Shift_3
Note_On_66_Vel_98
Note_On_63_Vel_94
Time_Shift_3
Note_On_47_Vel_95
Time_Shift_5
Note_On_35_Vel_87
Time_Shift_44
Sustain_On
Time_Shift_231
Note_On_63_Vel_0
Time_Shift_4
Note_On_58_Vel_99
Time_Shift_2
Note_On_70_Vel_97
Time_Shift_2
Note_On_63_Vel_94
Time_Shift_2
Note_On_46_Vel_96
Time_Shift_1
Note_On_34_Vel_92
Time_Shift_8
Sustain_Off
Time_Shift_6
Note_On_47_Vel_0
Time_Shift_4
Note_On_57_Vel_0
Time_Shift_5
Note_On_66_Vel_0
Time_Shift_1
Note_On_69_Vel_0
Time_Shift_2
Note_On_35_Vel_0
Time_Shift_7
Note_On_63_Vel_0
Time_Shift_1
Note_On_58_Vel_0
Time_Shift_4
Note_On_70_Vel_0
Note_On_46_Vel_0
Time_Shift_1
Note_On_34_Vel_0
Time_Shift_82
Note_On_71_Vel_98
Note_On_59_Vel_105
Time_Shift_2
Note_On_45_Vel_92
Note_On_33_Vel_93
Note_On_66_Vel_86
Time_Shift_2
Note_On_63_Vel_90
Time_Shift_30
Note_On_59_Vel_0
Time_Shift_1
Note_On_45_Vel_0
Time_Shift_2
Note_On_63_Vel_0
Time_Shift_1
Note_On_33_Vel_0
Note_On_71_Vel_0
Time_Shift_2
Note_On_66_Vel_0
Time_Shift_90
Note_On_72_Vel_103
Time_Shift_2
Note_On_60_Vel_109
Note_On_44_Vel_107
Note_On_66_Vel_93
Time_Shift_1
Note_On_32_Vel_95
Note_On_63_Vel_101
Time_Shift_34
Sustain_On
Time_Shift_180
Sustain_Off
Time_Shift_8
Note_On_32_Vel_0
Note_On_44_Vel_0
Time_Shift_1
Note_On_66_Vel_0
Note_On_72_Vel_0
Time_Shift_1
Note_On_63_Vel_0
Note_On_60_Vel_0
Time_Shift_73
Note_On_60_Vel_99
Time_Shift_2
Note_On_72_Vel_100
Note_On_43_Vel_103
Time_Shift_1
Note_On_63_Vel_101
Note_On_67_Vel_96
Note_On_31_Vel_94
Time_Shift_37
Note_On_43_Vel_0
Note_On_60_Vel_0
Time_Shift_3
Note_On_67_Vel_0
Note_On_31_Vel_0
Time_Shift_5
Note_On_63_Vel_0
Time_Shift_27
Note_On_72_Vel_0
Time_Shift_265
Note_On_71_Vel_95
Note_On_62_Vel_98
Time_Shift_1
Note_On_67_Vel_94
Note_On_43_Vel_93
Note_On_55_Vel_92
Time_Shift_26
Note_On_55_Vel_0
Time_Shift_3
Note_On_67_Vel_0
Time_Shift_1
Note_On_71_Vel_0
Time_Shift_1
Note_On_43_Vel_0
Time_Shift_18
Note_On_62_Vel_0
Time_Shift_656
Note_On_70_Vel_70
Time_Shift_8
Note_On_67_Vel_50
Time_Shift_2
Note_On_62_Vel_59
Time_Shift_3
Note_On_55_Vel_42
Time_Shift_23
Note_On_67_Vel_0
Time_Shift_4
Note_On_70_Vel_0
Time_Shift_7
Note_On_55_Vel_0
Time_Shift_11
Note_On_62_Vel_0
Time_Shift_350
Note_On_70_Vel_64
Note_On_68_Vel_61
Time_Shift_1
Note_On_62_Vel_58
Time_Shift_5
Note_On_53_Vel_50
Time_Shift_24
Note_On_62_Vel_0
Time_Shift_5
Note_On_68_Vel_0
Time_Shift_1
Note_On_53_Vel_0
Time_Shift_5
Note_On_70_Vel_0
Time_Shift_451
Note_On_58_Vel_67
Time_Shift_408
Note_On_65_Vel_55
Time_Shift_12
Note_On_62_Vel_43
Time_Shift_67
Sustain_On
Time_Shift_284
Note_On_65_Vel_0
Time_Shift_7
Note_On_65_Vel_68
Time_Shift_6
Note_On_56_Vel_58
Time_Shift_3
Note_On_60_Vel_52
Time_Shift_120
Note_On_67_Vel_80
Time_Shift_20
Note_On_55_Vel_61
Time_Shift_124
Note_On_68_Vel_76
Sustain_Off
Time_Shift_7
Note_On_58_Vel_0
Note_On_55_Vel_0
Note_On_62_Vel_0
Note_On_65_Vel_0
Note_On_56_Vel_0
Note_On_67_Vel_0
Time_Shift_5
Note_On_60_Vel_0
Time_Shift_6
Note_On_60_Vel_50
Time_Shift_10
Note_On_53_Vel_55
Time_Shift_84
Sustain_On
Time_Shift_224
Note_On_65_Vel_69
Time_Shift_12
Note_On_56_Vel_56
Time_Shift_4
Note_On_59_Vel_53
Note_On_62_Vel_47
Time_Shift_2
Note_On_68_Vel_0
Time_Shift_2
Sustain_Off
Note_On_60_Vel_0
Time_Shift_9
Note_On_53_Vel_0
Time_Shift_84
Sustain_On
Time_Shift_203
Note_On_63_Vel_73
Time_Shift_6
Note_On_55_Vel_54
Time_Shift_5
Note_On_58_Vel_48
Time_Shift_25
Note_On_56_Vel_0
Time_Shift_2
Note_On_59_Vel_0
Note_On_65_Vel_0
Time_Shift_1
Note_On_62_Vel_0
Time_Shift_2
Sustain_Off
Time_Shift_83
Note_On_63_Vel_0
Time_Shift_1
Note_On_65_Vel_67
Time_Shift_156
Note_On_55_Vel_0
Time_Shift_6
Note_On_67_Vel_71
Time_Shift_1
Note_On_55_Vel_54
Time_Shift_1
Note_On_58_Vel_0
Time_Shift_11
Note_On_58_Vel_48
Time_Shift_3
Note_On_65_Vel_0
Time_Shift_101
Note_On_55_Vel_0
Time_Shift_8
Sustain_On
Time_Shift_46
Note_On_58_Vel_0
Time_Shift_166
Sustain_Off
Time_Shift_9
Note_On_67_Vel_0
Time_Shift_1
Note_On_63_Vel_69
Time_Shift_6
Note_On_60_Vel_50
Time_Shift_2
Note_On_56_Vel_53
Time_Shift_115
Sustain_On
Time_Shift_207
Note_On_58_Vel_62
Time_Shift_4
Note_On_55_Vel_50
Time_Shift_127
Note_On_56_Vel_0
Time_Shift_5
Note_On_56_Vel_66
Time_Shift_4
Note_On_53_Vel_59
Time_Shift_81
Note_On_56_Vel_0
Time_Shift_14
Note_On_58_Vel_0
Time_Shift_1
Sustain_Off
Time_Shift_11
Note_On_60_Vel_0
Time_Shift_4
Note_On_53_Vel_0
Time_Shift_26
Note_On_63_Vel_0
Time_Shift_8
Note_On_55_Vel_0
Time_Shift_4
Note_On_63_Vel_73
Time_Shift_1
Note_On_55_Vel_61
Time_Shift_5
Note_On_51_Vel_63
Time_Shift_136
Note_On_51_Vel_0
Time_Shift_240
Note_On_46_Vel_55
Time_Shift_1
Note_On_58_Vel_53
Time_Shift_1
Note_On_53_Vel_47
Time_Shift_80
Note_On_55_Vel_0
Time_Shift_242
Note_On_62_Vel_59
Time_Shift_74
Note_On_63_Vel_0
Time_Shift_54
Note_On_62_Vel_0
Time_Shift_2
Note_On_60_Vel_60
Time_Shift_105
Note_On_60_Vel_0
Time_Shift_53
Note_On_58_Vel_0
Time_Shift_4
Note_On_58_Vel_62
Time_Shift_4
Note_On_46_Vel_0
Note_On_53_Vel_0
Time_Shift_4
Note_On_53_Vel_47
Time_Shift_2
Note_On_46_Vel_50
Time_Shift_3
Note_On_56_Vel_58
Note_On_34_Vel_49
Time_Shift_6
Note_On_34_Vel_0
Time_Shift_20
Note_On_53_Vel_0
Time_Shift_7
Note_On_56_Vel_0
Time_Shift_4
Note_On_58_Vel_0
Time_Shift_2
Note_On_46_Vel_0
Time_Shift_263
Note_On_39_Vel_70
Time_Shift_7
Note_On_67_Vel_67
Time_Shift_1
Note_On_55_Vel_62
Time_Shift_2
Note_On_63_Vel_60
Time_Shift_20
Note_On_39_Vel_0
Time_Shift_1
Note_On_55_Vel_0
Time_Shift_2
Note_On_67_Vel_0
Time_Shift_25
Note_On_63_Vel_0
Time_Shift_257
Note_On_79_Vel_97
Time_Shift_1
Note_On_63_Vel_100
Time_Shift_2
Note_On_51_Vel_91
Time_Shift_2
Note_On_75_Vel_92
Time_Shift_2
Note_On_67_Vel_84
Time_Shift_13
Note_On_79_Vel_0
Time_Shift_4
Note_On_75_Vel_0
Time_Shift_2
Note_On_67_Vel_0
Time_Shift_16
Note_On_63_Vel_0
Time_Shift_8
Note_On_51_Vel_0
Time_Shift_259
Note_On_67_Vel_72
Time_Shift_3
Note_On_55_Vel_69
Time_Shift_1
Note_On_51_Vel_81
Time_Shift_1
Note_On_63_Vel_77
Note_On_39_Vel_68
Time_Shift_22
Note_On_67_Vel_0
Time_Shift_2
Note_On_51_Vel_0
Time_Shift_1
Note_On_55_Vel_0
Time_Shift_1
Note_On_39_Vel_0
Time_Shift_17
Note_On_63_Vel_0
Time_Shift_255
Note_On_47_Vel_85
Time_Shift_2
Note_On_59_Vel_71
Time_Shift_1
Note_On_63_Vel_76
Note_On_55_Vel_80
Time_Shift_1
Note_On_35_Vel_77
Time_Shift_1
Note_On_67_Vel_74
Time_Shift_21
Note_On_47_Vel_0
Note_On_55_Vel_0
Time_Shift_1
Note_On_67_Vel_0
Time_Shift_4
Note_On_35_Vel_0
Time_Shift_6
Note_On_59_Vel_0
Time_Shift_15
Note_On_63_Vel_0
Time_Shift_267
Note_On_79_Vel_100
Note_On_63_Vel_103
Time_Shift_2
Note_On_67_Vel_100
Time_Shift_2
Note_On_51_Vel_99
Note_On_75_Vel_100
Time_Shift_20
Note_On_67_Vel_0
Time_Shift_3
Note_On_79_Vel_0
Time_Shift_2
Note_On_63_Vel_0
Note_On_51_Vel_0
Time_Shift_19
Note_On_75_Vel_0
Time_Shift_253
Note_On_55_Vel_87
Time_Shift_1
Note_On_67_Vel_92
Time_Shift_2
Note_On_60_Vel_82
Note_On_63_Vel_94
Time_Shift_2
Note_On_48_Vel_91
Time_Shift_1
Note_On_36_Vel_80
Time_Shift_16
Note_On_67_Vel_0
Time_Shift_3
Note_On_55_Vel_0
Time_Shift_2
Note_On_60_Vel_0
Time_Shift_4
Note_On_36_Vel_0
Time_Shift_16
Note_On_48_Vel_0
Note_On_63_Vel_0
Time_Shift_301
Note_On_94_Vel_93
Time_Shift_6
Sustain_On
Time_Shift_1
Note_On_91_Vel_76
Time_Shift_5
Note_On_34_Vel_63
Note_On_46_Vel_64
Time_Shift_78
Note_On_82_Vel_93
Note_On_79_Vel_80
Time_Shift_93
Note_On_82_Vel_0
Note_On_91_Vel_0
Time_Shift_4
Note_On_91_Vel_87
Time_Shift_1
Note_On_87_Vel_85
Time_Shift_4
Note_On_82_Vel_71
Time_Shift_121
Note_On_79_Vel_0
Time_Shift_3
Note_On_58_Vel_76
Time_Shift_1
Note_On_79_Vel_77
Note_On_67_Vel_77
Time_Shift_2
Note_On_63_Vel_79
Time_Shift_2
Note_On_75_Vel_79
Time_Shift_29
Sustain_Off
Time_Shift_6
Note_On_67_Vel_0
Time_Shift_1
Note_On_79_Vel_0
Note_On_91_Vel_0
Time_Shift_2
Note_On_82_Vel_0
Time_Shift_1
Note_On_87_Vel_0
Note_On_94_Vel_0
Time_Shift_2
Note_On_46_Vel_0
Note_On_63_Vel_0
Time_Shift_13
Note_On_34_Vel_0
Time_Shift_23
Note_On_75_Vel_0
Time_Shift_267
Note_On_82_Vel_82
Time_Shift_11
Note_On_74_Vel_59
Time_Shift_1
Note_On_68_Vel_64
Time_Shift_1
Note_On_65_Vel_62
Time_Shift_23
Note_On_74_Vel_0
Time_Shift_7
Note_On_65_Vel_0
Time_Shift_20
Note_On_68_Vel_0
Note_On_82_Vel_0
Time_Shift_376
Note_On_58_Vel_0
Time_Shift_4
Note_On_87_Vel_56
Time_Shift_3
Note_On_67_Vel_43
Time_Shift_4
Note_On_75_Vel_49
Time_Shift_3
Note_On_63_Vel_50
Time_Shift_35
Note_On_67_Vel_0
Time_Shift_120
Note_On_87_Vel_0
Time_Shift_177
Note_On_75_Vel_0
Time_Shift_70
Note_On_51_Vel_50
Time_Shift_36
Note_On_51_Vel_0
Time_Shift_1
Note_On_63_Vel_0
Time_Shift_249
Note_On_79_Vel_85
Time_Shift_3
Note_On_75_Vel_81
Time_Shift_21
Note_On_79_Vel_0
Time_Shift_1
Note_On_75_Vel_0
Time_Shift_266
Note_On_91_Vel_90
Time_Shift_1
Note_On_87_Vel_85
Time_Shift_25
Note_On_91_Vel_0
Time_Shift_5
Note_On_87_Vel_0
Time_Shift_67
Note_On_79_Vel_89
Time_Shift_2
Note_On_75_Vel_93
Time_Shift_13
Sustain_On
Time_Shift_20
Note_On_79_Vel_0
Time_Shift_7
Note_On_75_Vel_0
Time_Shift_53
Note_On_87_Vel_84
Time_Shift_4
Note_On_84_Vel_71
Time_Shift_86
Note_On_75_Vel_97
Time_Shift_2
Note_On_72_Vel_88
Time_Shift_26
Note_On_84_Vel_0
Time_Shift_3
Note_On_72_Vel_0
Time_Shift_1
Note_On_75_Vel_0
Time_Shift_2
Note_On_87_Vel_0
Time_Shift_5
Sustain_Off
Time_Shift_259
Note_On_79_Vel_87
Time_Shift_4
Note_On_75_Vel_82
Time_Shift_7
Note_On_60_Vel_76
Time_Shift_1
Note_On_63_Vel_80
Time_Shift_22
Note_On_79_Vel_0
Time_Shift_3
Note_On_60_Vel_0
Note_On_63_Vel_0
Time_Shift_5
Note_On_75_Vel_0
Time_Shift_262
Note_On_68_Vel_76
Time_Shift_3
Note_On_65_Vel_72
Time_Shift_1
Note_On_80_Vel_82
Time_Shift_1
Note_On_77_Vel_79
Time_Shift_3
Note_On_72_Vel_53
Time_Shift_30
Note_On_65_Vel_0
Time_Shift_27
Sustain_On
Time_Shift_35
Note_On_56_Vel_82
Time_Shift_1
Note_On_53_Vel_82
Time_Shift_104
Note_On_65_Vel_84
Time_Shift_2
Note_On_60_Vel_80
Time_Shift_104
Note_On_53_Vel_0
Time_Shift_2
Note_On_80_Vel_0
Time_Shift_1
Note_On_65_Vel_0
Time_Shift_1
Note_On_48_Vel_83
Sustain_Off
Note_On_77_Vel_0
Note_On_56_Vel_0
Time_Shift_1
Note_On_60_Vel_0
Note_On_53_Vel_71
Time_Shift_3
Note_On_68_Vel_0
Time_Shift_24
Note_On_48_Vel_0
Time_Shift_6
Note_On_72_Vel_0
Time_Shift_8
Note_On_53_Vel_0
Time_Shift_281
Note_On_53_Vel_69
Time_Shift_1
Note_On_56_Vel_79
Time_Shift_2
Note_On_84_Vel_90
Time_Shift_3
Note_On_80_Vel_80
Time_Shift_1
Note_On_72_Vel_66
Time_Shift_29
Note_On_53_Vel_0
Time_Shift_2
Note_On_56_Vel_0
Time_Shift_9
Note_On_72_Vel_0
Time_Shift_33
Sustain_On
Time_Shift_232
Sustain_Off
Time_Shift_6
Note_On_84_Vel_0
Time_Shift_8
Note_On_80_Vel_0
Time_Shift_5
Note_On_89_Vel_92
Time_Shift_1
Note_On_86_Vel_86
Time_Shift_13
Note_On_53_Vel_80
Time_Shift_3
Note_On_46_Vel_69
Time_Shift_47
Note_On_86_Vel_0
Time_Shift_8
Sustain_On
Time_Shift_26
Note_On_77_Vel_87
Time_Shift_1
Note_On_74_Vel_86
Time_Shift_94
Note_On_82_Vel_85
Time_Shift_1
Note_On_86_Vel_87
Time_Shift_54
Note_On_89_Vel_0
Time_Shift_12
Note_On_77_Vel_0
Time_Shift_1
Note_On_86_Vel_0
Time_Shift_3
Note_On_82_Vel_0
Time_Shift_1
Sustain_Off
Time_Shift_29
Note_On_74_Vel_0
Time_Shift_4
Note_On_74_Vel_81
Time_Shift_1
Note_On_70_Vel_85
Time_Shift_9
Note_On_65_Vel_63
Time_Shift_55
Note_On_74_Vel_0
Time_Shift_8
Note_On_70_Vel_0
Time_Shift_15
Sustain_On
Time_Shift_205
Sustain_Off
Time_Shift_16
Note_On_74_Vel_88
Note_On_77_Vel_84
Time_Shift_11
Note_On_62_Vel_77
Time_Shift_2
Note_On_58_Vel_74
Note_On_46_Vel_0
Time_Shift_2
Note_On_53_Vel_0
Time_Shift_26
Note_On_65_Vel_0
Time_Shift_7
Note_On_74_Vel_0
Note_On_77_Vel_0
Time_Shift_23
Sustain_On
Time_Shift_185
Note_On_62_Vel_0
Time_Shift_9
Note_On_58_Vel_0
Time_Shift_3
Sustain_Off
Time_Shift_39
Note_On_67_Vel_80
Time_Shift_3
Note_On_79_Vel_78
Time_Shift_1
Note_On_63_Vel_84
Time_Shift_27
Note_On_63_Vel_0
Time_Shift_25
Sustain_On
Time_Shift_64
Note_On_51_Vel_78
Time_Shift_2
Note_On_55_Vel_63
Time_Shift_89
Note_On_58_Vel_73
Note_On_63_Vel_80
Time_Shift_99
Note_On_51_Vel_0
Time_Shift_1
Sustain_Off
Time_Shift_3
Note_On_58_Vel_0
Time_Shift_1
Note_On_55_Vel_0
Note_On_63_Vel_0
Time_Shift_2
Note_On_79_Vel_0
Time_Shift_3
Note_On_46_Vel_76
Time_Shift_1
Note_On_51_Vel_85
Time_Shift_4
Note_On_67_Vel_0
Time_Shift_21
Note_On_46_Vel_0
Time_Shift_17
Note_On_51_Vel_0
Time_Shift_296
Note_On_82_Vel_89
Time_Shift_7
Note_On_55_Vel_63
Time_Shift_1
Note_On_79_Vel_66
Time_Shift_4
Note_On_51_Vel_67
Time_Shift_36
Note_On_51_Vel_0
Time_Shift_1
Note_On_55_Vel_0
Time_Shift_24
Sustain_On
Time_Shift_238
Note_On_79_Vel_0
Time_Shift_12
Note_On_82_Vel_0
Time_Shift_8
Sustain_Off
Time_Shift_27
Note_On_87_Vel_83
Time_Shift_3
Note_On_84_Vel_68
Time_Shift_7
Note_On_44_Vel_59
Time_Shift_2
Note_On_51_Vel_68
Time_Shift_41
Sustain_On
Time_Shift_57
Note_On_72_Vel_81
Time_Shift_1
Note_On_75_Vel_69
Time_Shift_72
Note_On_84_Vel_0
Time_Shift_11
Note_On_80_Vel_77
Note_On_84_Vel_85
Time_Shift_55
Note_On_80_Vel_0
Note_On_84_Vel_0
Note_On_87_Vel_0
Time_Shift_1
Note_On_72_Vel_0
Note_On_75_Vel_0
Time_Shift_6
Sustain_Off
Time_Shift_62
Note_On_72_Vel_69
Time_Shift_1
Note_On_75_Vel_61
Time_Shift_3
Note_On_68_Vel_66
Time_Shift_22
Note_On_72_Vel_0
Time_Shift_16
Note_On_75_Vel_0
Time_Shift_23
Note_On_68_Vel_0
Time_Shift_22
Note_On_72_Vel_53
Time_Shift_32
Sustain_On
Time_Shift_38
Note_On_72_Vel_0
Time_Shift_159
Note_On_80_Vel_81
Time_Shift_6
Note_On_75_Vel_76
Time_Shift_2
Note_On_60_Vel_55
Time_Shift_7
Sustain_Off
Note_On_51_Vel_0
Time_Shift_6
Note_On_56_Vel_52
Time_Shift_66
Note_On_75_Vel_0
Time_Shift_15
Sustain_On
Time_Shift_16
Note_On_80_Vel_0
Time_Shift_161
Note_On_44_Vel_0
Time_Shift_13
Note_On_56_Vel_0
Time_Shift_13
Sustain_Off
Time_Shift_12
Note_On_60_Vel_0
Time_Shift_42
Note_On_41_Vel_60
Time_Shift_6
Note_On_72_Vel_69
Time_Shift_1
Note_On_53_Vel_61
Time_Shift_1
Note_On_74_Vel_66
Time_Shift_4
Sustain_On
Time_Shift_90
Note_On_84_Vel_78
Note_On_80_Vel_69
Time_Shift_87
Note_On_84_Vel_0
Time_Shift_5
Note_On_86_Vel_87
Time_Shift_4
Note_On_84_Vel_83
Time_Shift_29
Note_On_72_Vel_0
Time_Shift_61
Note_On_96_Vel_92
Time_Shift_4
Note_On_92_Vel_83
Time_Shift_5
Sustain_Off
Time_Shift_7
Note_On_74_Vel_0
Time_Shift_8
Sustain_On
Time_Shift_190
Sustain_Off
Time_Shift_2
Note_On_80_Vel_0
Time_Shift_10
Note_On_92_Vel_0
Time_Shift_13
Note_On_41_Vel_0
Note_On_53_Vel_0
Time_Shift_38
Note_On_86_Vel_0
Time_Shift_58
Note_On_74_Vel_81
Time_Shift_2
Note_On_53_Vel_82
Time_Shift_2
Note_On_96_Vel_0
Time_Shift_2
Note_On_72_Vel_76
Time_Shift_2
Note_On_65_Vel_64
Time_Shift_1
Note_On_41_Vel_73
Time_Shift_10
Note_On_84_Vel_0
Time_Shift_6
Note_On_74_Vel_0
Time_Shift_6
Note_On_41_Vel_0
Time_Shift_19
Note_On_53_Vel_0
Note_On_65_Vel_0
Time_Shift_7
Note_On_72_Vel_0
Time_Shift_274
Note_On_63_Vel_67
Time_Shift_1
Note_On_56_Vel_82
Time_Shift_5
Note_On_72_Vel_81
Note_On_44_Vel_80
Time_Shift_1
Note_On_74_Vel_82
Time_Shift_4
Note_On_63_Vel_0
Time_Shift_7
Sustain_On
Time_Shift_82
Note_On_84_Vel_93
Time_Shift_1
Note_On_77_Vel_75
Time_Shift_86
Note_On_84_Vel_0
Time_Shift_4
Note_On_86_Vel_96
Time_Shift_6
Note_On_84_Vel_89
Time_Shift_65
Sustain_Off
Time_Shift_12
Note_On_74_Vel_0
Time_Shift_1
Note_On_77_Vel_0
Time_Shift_7
Note_On_86_Vel_0
Time_Shift_1
Note_On_84_Vel_0
Time_Shift_2
Note_On_96_Vel_105
Note_On_72_Vel_0
Note_On_56_Vel_0
Time_Shift_2
Note_On_89_Vel_98
Time_Shift_23
Sustain_On
Time_Shift_245
Sustain_Off
Time_Shift_1
Note_On_44_Vel_0
Time_Shift_23
Note_On_89_Vel_0
Time_Shift_37
Note_On_56_Vel_91
Note_On_72_Vel_87
Time_Shift_2
Note_On_44_Vel_90
Time_Shift_2
Note_On_74_Vel_84
Time_Shift_20
Note_On_96_Vel_0
Time_Shift_4
Note_On_56_Vel_0
Time_Shift_2
Note_On_44_Vel_0
Time_Shift_6
Note_On_74_Vel_0
Time_Shift_11
Note_On_72_Vel_0
Time_Shift_270
Note_On_43_Vel_85
Time_Shift_1
Note_On_55_Vel_86
Time_Shift_3
Note_On_74_Vel_86
Time_Shift_1
Note_On_71_Vel_83
Time_Shift_22
Note_On_55_Vel_0
Time_Shift_2
Note_On_43_Vel_0
Time_Shift_32
Note_On_71_Vel_0
Time_Shift_19
Note_On_74_Vel_0
Time_Shift_15
Note_On_83_Vel_93
Note_On_79_Vel_79
Time_Shift_29
Note_On_79_Vel_0
Time_Shift_1
Note_On_83_Vel_0
Time_Shift_63
Note_On_86_Vel_98
Time_Shift_1
Note_On_83_Vel_92
Time_Shift_93
Note_On_95_Vel_110
Time_Shift_7
Note_On_91_Vel_90
Time_Shift_10
Sustain_On
Time_Shift_330
Sustain_Off
Time_Shift_23
Note_On_83_Vel_0
Time_Shift_103
Note_On_74_Vel_72
Time_Shift_9
Note_On_71_Vel_60
Time_Shift_13
Note_On_67_Vel_49
Time_Shift_52
Note_On_95_Vel_0
Time_Shift_15
Sustain_On
Time_Shift_192
Note_On_91_Vel_0
Time_Shift_46
Note_On_86_Vel_0
Time_Shift_22
Note_On_71_Vel_0
Time_Shift_1
Note_On_67_Vel_0
Time_Shift_5
Sustain_Off
Time_Shift_3
Note_On_74_Vel_0
Time_Shift_3
Note_On_67_Vel_62
Time_Shift_1
Note_On_74_Vel_62
Note_On_70_Vel_66
Time_Shift_49
Note_On_67_Vel_0
Time_Shift_7
Note_On_74_Vel_0
Time_Shift_36
Note_On_82_Vel_78
Note_On_79_Vel_69
Time_Shift_23
Note_On_62_Vel_57
Time_Shift_4
Note_On_70_Vel_0
Time_Shift_4
Note_On_79_Vel_0
Time_Shift_1
Note_On_82_Vel_0
Time_Shift_41
Note_On_62_Vel_0
Time_Shift_17
Note_On_74_Vel_79
Time_Shift_1
Note_On_67_Vel_63
Time_Shift_1
Note_On_70_Vel_73
Time_Shift_27
Note_On_67_Vel_0
Time_Shift_3
Note_On_74_Vel_0
Time_Shift_6
Note_On_70_Vel_0
Time_Shift_86
Note_On_73_Vel_85
Time_Shift_1
Note_On_70_Vel_74
Time_Shift_3
Note_On_64_Vel_65
Time_Shift_6
Note_On_67_Vel_54
Time_Shift_26
Note_On_64_Vel_0
Time_Shift_2
Note_On_70_Vel_0
Time_Shift_1
Note_On_73_Vel_0
Time_Shift_12
Note_On_67_Vel_0
Time_Shift_285
Note_On_72_Vel_81
Time_Shift_10
Note_On_64_Vel_57
Time_Shift_1
Note_On_70_Vel_67
Time_Shift_19
Sustain_On
Time_Shift_286
Sustain_Off
Time_Shift_1
Note_On_70_Vel_0
Note_On_64_Vel_0
Time_Shift_20
Note_On_72_Vel_0
Time_Shift_4
Note_On_72_Vel_69
Time_Shift_1
Note_On_69_Vel_64
Time_Shift_1
Note_On_65_Vel_61
Time_Shift_37
Note_On_69_Vel_0
Note_On_65_Vel_0
Time_Shift_26
Sustain_On
Time_Shift_24
Note_On_81_Vel_83
Time_Shift_4
Note_On_69_Vel_66
Note_On_77_Vel_67
Note_On_60_Vel_65
Time_Shift_79
Note_On_69_Vel_0
Note_On_72_Vel_0
Time_Shift_2
Note_On_65_Vel_77
Time_Shift_4
Note_On_72_Vel_80
Time_Shift_6
Note_On_69_Vel_64
Time_Shift_11
Sustain_Off
Time_Shift_17
Note_On_77_Vel_0
Note_On_72_Vel_0
Time_Shift_3
Note_On_81_Vel_0
Note_On_65_Vel_0
Time_Shift_5
Note_On_60_Vel_0
Time_Shift_22
Note_On_69_Vel_0
Time_Shift_64
Note_On_71_Vel_79
Time_Shift_1
Note_On_68_Vel_72
Time_Shift_2
Note_On_62_Vel_68
Time_Shift_26
Note_On_71_Vel_0
Note_On_68_Vel_0
Time_Shift_3
Note_On_62_Vel_0
Time_Shift_329
Note_On_68_Vel_63
Note_On_70_Vel_73
Time_Shift_12
Note_On_62_Vel_57
Time_Shift_23
Sustain_On
Time_Shift_269
Note_On_62_Vel_0
Note_On_68_Vel_0
Time_Shift_5
Sustain_Off
Time_Shift_26
Note_On_70_Vel_0
Time_Shift_8
Note_On_70_Vel_73
Time_Shift_1
Note_On_67_Vel_73
Time_Shift_3
Note_On_63_Vel_69
Time_Shift_26
Sustain_On
Time_Shift_57
Note_On_79_Vel_79
Time_Shift_2
Note_On_75_Vel_72
Time_Shift_95
Note_On_79_Vel_0
Time_Shift_6
Note_On_82_Vel_91
Note_On_79_Vel_83
Time_Shift_32
Note_On_63_Vel_0
Note_On_67_Vel_0
Time_Shift_1
Sustain_Off
Time_Shift_49
Note_On_91_Vel_96
Time_Shift_19
Note_On_70_Vel_0
Sustain_On
Time_Shift_9
Note_On_51_Vel_69
Time_Shift_99
Note_On_75_Vel_0
Time_Shift_123
Note_On_79_Vel_0
Time_Shift_77
Note_On_82_Vel_0
Time_Shift_23
Note_On_91_Vel_0
Time_Shift_6
Note_On_91_Vel_105
Time_Shift_4
Note_On_85_Vel_89
Time_Shift_1
Note_On_79_Vel_94
Time_Shift_4
Note_On_51_Vel_0
Time_Shift_9
Sustain_Off
Time_Shift_2
Note_On_51_Vel_71
Time_Shift_1
Note_On_39_Vel_61
Time_Shift_34
Sustain_On
Time_Shift_263
Note_On_51_Vel_0
Time_Shift_1
Note_On_85_Vel_0
Time_Shift_1
Note_On_39_Vel_0
Time_Shift_6
Sustain_Off
Note_On_90_Vel_92
Note_On_86_Vel_83
Time_Shift_5
Note_On_50_Vel_63
Time_Shift_1
Note_On_79_Vel_0
Note_On_38_Vel_60
Time_Shift_15
Note_On_91_Vel_0
Time_Shift_46
Sustain_On
Time_Shift_14
Note_On_78_Vel_90
Time_Shift_2
Note_On_81_Vel_73
Time_Shift_99
Note_On_78_Vel_0
Time_Shift_10
Note_On_78_Vel_91
Time_Shift_56
Note_On_81_Vel_0
Time_Shift_2
Note_On_78_Vel_0
Note_On_86_Vel_0
Note_On_90_Vel_0
Time_Shift_1
Note_On_50_Vel_0
Time_Shift_1
Note_On_38_Vel_0
Time_Shift_6
Sustain_Off
Time_Shift_42
Note_On_66_Vel_80
Time_Shift_5
Note_On_62_Vel_74
Note_On_50_Vel_69
Time_Shift_20
Note_On_66_Vel_0
Time_Shift_80
Sustain_On
Time_Shift_226
Note_On_77_Vel_92
Time_Shift_1
Note_On_71_Vel_83
Time_Shift_2
Note_On_43_Vel_81
Time_Shift_1
Note_On_55_Vel_80
Time_Shift_1
Note_On_65_Vel_81
Time_Shift_3
Sustain_Off
Note_On_50_Vel_0
Time_Shift_4
Note_On_62_Vel_0
Time_Shift_54
Sustain_On
Time_Shift_227
Note_On_65_Vel_0
Note_On_71_Vel_0
Time_Shift_1
Note_On_43_Vel_0
Time_Shift_1
Note_On_77_Vel_0
Time_Shift_2
Note_On_55_Vel_0
Time_Shift_3
Sustain_Off
Time_Shift_15
Note_On_67_Vel_90
Note_On_48_Vel_80
Time_Shift_1
Note_On_60_Vel_80
Time_Shift_2
Note_On_64_Vel_87
Time_Shift_24
Sustain_On
Time_Shift_66
Note_On_76_Vel_93
Time_Shift_2
Note_On_72_Vel_78
Time_Shift_86
Note_On_72_Vel_0
Note_On_76_Vel_0
Time_Shift_5
Note_On_79_Vel_100
Time_Shift_2
Note_On_76_Vel_93
Time_Shift_3
Note_On_72_Vel_74
Time_Shift_72
Note_On_64_Vel_0
Time_Shift_1
Note_On_72_Vel_0
Time_Shift_1
Note_On_76_Vel_0
Note_On_48_Vel_0
Note_On_60_Vel_0
Time_Shift_1
Note_On_67_Vel_0
Time_Shift_3
Sustain_Off
Time_Shift_11
Note_On_88_Vel_103
Time_Shift_3
Note_On_84_Vel_98
Time_Shift_3
Note_On_43_Vel_92
Time_Shift_3
Note_On_55_Vel_92
Time_Shift_7
Note_On_79_Vel_0
Time_Shift_21
Note_On_84_Vel_0
Note_On_55_Vel_0
Time_Shift_3
Note_On_88_Vel_0
Note_On_43_Vel_0
Time_Shift_263
Note_On_77_Vel_99
Time_Shift_1
Note_On_45_Vel_95
Note_On_75_Vel_102
Time_Shift_1
Note_On_84_Vel_92
Note_On_87_Vel_100
Time_Shift_2
Note_On_57_Vel_94
Time_Shift_32
Sustain_On
Time_Shift_261
Note_On_77_Vel_0
Time_Shift_4
Note_On_77_Vel_100
Note_On_46_Vel_93
Note_On_58_Vel_97
Time_Shift_1
Sustain_Off
Time_Shift_2
Note_On_74_Vel_95
Time_Shift_3
Note_On_84_Vel_0
Time_Shift_3
Note_On_75_Vel_0
Note_On_87_Vel_0
Time_Shift_10
Note_On_45_Vel_0
Note_On_57_Vel_0
Time_Shift_30
Sustain_On
Time_Shift_39
Note_On_86_Vel_99
Time_Shift_2
Note_On_82_Vel_97
Time_Shift_90
Note_On_86_Vel_0
Time_Shift_6
Note_On_89_Vel_109
Time_Shift_3
Note_On_86_Vel_93
Time_Shift_63
Note_On_58_Vel_0
Note_On_82_Vel_0
Note_On_74_Vel_0
Sustain_Off
Note_On_46_Vel_0
Time_Shift_3
Note_On_89_Vel_0
Time_Shift_9
Note_On_77_Vel_0
Time_Shift_17
Note_On_98_Vel_113
Time_Shift_4
Note_On_94_Vel_105
Time_Shift_1
Note_On_53_Vel_86
Time_Shift_4
Note_On_41_Vel_85
Time_Shift_21
Sustain_On
Time_Shift_7
Note_On_53_Vel_0
Time_Shift_24
Note_On_41_Vel_0
Time_Shift_22
Note_On_86_Vel_0
Sustain_Off
Time_Shift_46
Note_On_98_Vel_0
Time_Shift_54
Note_On_94_Vel_0
Time_Shift_200
Note_On_86_Vel_101
Time_Shift_4
Note_On_81_Vel_93
Time_Shift_1
Note_On_74_Vel_98
Time_Shift_4
Note_On_84_Vel_94
Time_Shift_2
Note_On_54_Vel_86
Time_Shift_1
Note_On_42_Vel_81
Time_Shift_57
Sustain_On
Time_Shift_453
Note_On_86_Vel_0
Time_Shift_5
Note_On_86_Vel_91
Time_Shift_4
Note_On_83_Vel_84
Time_Shift_25
Note_On_42_Vel_0
Note_On_74_Vel_0
Note_On_81_Vel_0
Note_On_84_Vel_0
Time_Shift_1
Note_On_54_Vel_0
Sustain_Off
Time_Shift_13
Note_On_43_Vel_63
Time_Shift_52
Sustain_On
Time_Shift_41
Note_On_79_Vel_83
Time_Shift_2
Note_On_74_Vel_71
Time_Shift_103
Note_On_83_Vel_0
Time_Shift_8
Note_On_79_Vel_0
Time_Shift_3
Note_On_83_Vel_84
Time_Shift_7
Note_On_79_Vel_68
Time_Shift_74
Note_On_74_Vel_0
Time_Shift_7
Note_On_74_Vel_81
Time_Shift_15
Note_On_71_Vel_73
Time_Shift_86
Note_On_74_Vel_0
Note_On_79_Vel_0
Time_Shift_5
Note_On_79_Vel_78
Time_Shift_2
Note_On_74_Vel_67
Time_Shift_16
Note_On_86_Vel_0
Time_Shift_18
Sustain_Off
Time_Shift_5
Sustain_On
Time_Shift_61
Note_On_71_Vel_0
Note_On_74_Vel_0
Time_Shift_5
Note_On_71_Vel_71
Time_Shift_4
Note_On_74_Vel_58
Time_Shift_2
Note_On_67_Vel_60
Time_Shift_89
Note_On_67_Vel_0
Note_On_71_Vel_0
Note_On_74_Vel_0
Time_Shift_4
Note_On_71_Vel_77
Time_Shift_1
Note_On_74_Vel_72
Time_Shift_1
Note_On_67_Vel_54
Time_Shift_129
Note_On_62_Vel_71
Time_Shift_106
Sustain_Off
Time_Shift_7
Note_On_72_Vel_73
Time_Shift_26
Note_On_69_Vel_53
Time_Shift_41
Sustain_On
Time_Shift_30
Note_On_67_Vel_0
Time_Shift_10
Note_On_67_Vel_43
Time_Shift_41
Sustain_Off
Time_Shift_34
Note_On_67_Vel_0
Note_On_71_Vel_0
Time_Shift_8
Note_On_71_Vel_65
Time_Shift_3
Note_On_67_Vel_47
Time_Shift_12
Note_On_83_Vel_0
Time_Shift_38
Note_On_79_Vel_0
Time_Shift_162
Note_On_69_Vel_0
Time_Shift_9
Note_On_72_Vel_0
Time_Shift_6
Note_On_74_Vel_0
Time_Shift_233
Note_On_70_Vel_60
Time_Shift_59
Note_On_71_Vel_0
Time_Shift_8
Sustain_On
Time_Shift_420
Note_On_68_Vel_41
Time_Shift_5
Sustain_Off
Time_Shift_21
Note_On_53_Vel_32
Time_Shift_2
Note_On_41_Vel_39
Time_Shift_81
Note_On_43_Vel_0
Time_Shift_47
Sustain_On
Time_Shift_15
Note_On_67_Vel_0
Time_Shift_395
Note_On_51_Vel_62
Time_Shift_1
Note_On_39_Vel_55
Time_Shift_16
Note_On_63_Vel_54
Time_Shift_21
Sustain_Off
Time_Shift_8
Note_On_41_Vel_0
Time_Shift_4
Note_On_53_Vel_0
Time_Shift_2
Note_On_62_Vel_0
Time_Shift_1
Note_On_68_Vel_0
Time_Shift_2
Note_On_70_Vel_0
Time_Shift_95
Sustain_On
Time_Shift_204
Note_On_38_Vel_57
Note_On_50_Vel_53
Time_Shift_61
Note_On_51_Vel_0
Time_Shift_86
Note_On_48_Vel_61
Time_Shift_1
Note_On_36_Vel_53
Time_Shift_25
Note_On_39_Vel_0
Time_Shift_23
Note_On_48_Vel_0
Time_Shift_4
Note_On_36_Vel_0
Time_Shift_26
Note_On_38_Vel_0
Note_On_50_Vel_0
Time_Shift_6
Sustain_Off
Time_Shift_10
Note_On_63_Vel_0
Time_Shift_66
Note_On_34_Vel_68
Note_On_46_Vel_67
Time_Shift_1
Note_On_58_Vel_65
Time_Shift_30
Note_On_46_Vel_0
Time_Shift_5
Note_On_34_Vel_0
Note_On_58_Vel_0
Time_Shift_276
Note_On_63_Vel_73
Time_Shift_1
Note_On_55_Vel_66
Time_Shift_1
Note_On_58_Vel_54
Time_Shift_1
Note_On_43_Vel_62
Time_Shift_41
Sustain_On
Time_Shift_183
Note_On_55_Vel_0
Note_On_43_Vel_0
Time_Shift_1
Sustain_Off
Time_Shift_2
Note_On_63_Vel_0
Note_On_58_Vel_0
Time_Shift_62
Note_On_53_Vel_65
Time_Shift_1
Note_On_41_Vel_66
Time_Shift_3
Note_On_56_Vel_65
Time_Shift_2
Note_On_62_Vel_66
Time_Shift_27
Note_On_53_Vel_0
Time_Shift_5
Note_On_56_Vel_0
Time_Shift_2
Note_On_41_Vel_0
Time_Shift_93
Note_On_60_Vel_59
Time_Shift_18
Note_On_62_Vel_0
Time_Shift_27
Note_On_60_Vel_0
Time_Shift_115
Note_On_41_Vel_69
Time_Shift_1
Note_On_58_Vel_66
Time_Shift_5
Note_On_56_Vel_65
Time_Shift_25
Note_On_58_Vel_0
Time_Shift_5
Note_On_56_Vel_0
Time_Shift_22
Note_On_41_Vel_0
Time_Shift_254
Sustain_On
Time_Shift_2
Note_On_55_Vel_67
Time_Shift_2
Note_On_67_Vel_72
Time_Shift_4
Note_On_58_Vel_61
Time_Shift_3
Note_On_51_Vel_64
Note_On_39_Vel_64
Time_Shift_280
Note_On_58_Vel_0
Time_Shift_4
Note_On_65_Vel_69
Time_Shift_1
Note_On_38_Vel_66
Note_On_50_Vel_64
Time_Shift_2
Note_On_58_Vel_60
Time_Shift_2
Note_On_56_Vel_71
Time_Shift_5
Note_On_67_Vel_0
Time_Shift_3
Note_On_55_Vel_0
Note_On_51_Vel_0
Time_Shift_1
Note_On_39_Vel_0
Time_Shift_3
Sustain_Off
Time_Shift_18
Note_On_58_Vel_0
Time_Shift_3
Note_On_38_Vel_0
Time_Shift_2
Note_On_50_Vel_0
Time_Shift_7
Note_On_56_Vel_0
Note_On_65_Vel_0
Time_Shift_91
Note_On_48_Vel_64
Time_Shift_1
Note_On_36_Vel_64
Time_Shift_32
Note_On_48_Vel_0
Time_Shift_5
Note_On_36_Vel_0
Time_Shift_94
Note_On_65_Vel_78
Time_Shift_5
Note_On_56_Vel_75
Note_On_46_Vel_68
Time_Shift_1
Note_On_58_Vel_67
Note_On_34_Vel_67
Time_Shift_22
Note_On_58_Vel_0
Time_Shift_2
Note_On_46_Vel_0
Time_Shift_1
Note_On_65_Vel_0
Time_Shift_3
Note_On_56_Vel_0
Time_Shift_2
Note_On_34_Vel_0
Time_Shift_292
Note_On_63_Vel_75
Time_Shift_1
Note_On_55_Vel_63
Time_Shift_6
Note_On_43_Vel_59
Note_On_58_Vel_58
Time_Shift_67
Sustain_On
Time_Shift_218
Note_On_55_Vel_0
Time_Shift_1
Sustain_Off
Time_Shift_3
Note_On_58_Vel_0
Time_Shift_3
Note_On_43_Vel_0
Time_Shift_3
Note_On_63_Vel_0
Time_Shift_4
Note_On_53_Vel_56
Time_Shift_3
Note_On_41_Vel_65
Time_Shift_5
Note_On_62_Vel_68
Time_Shift_1
Note_On_56_Vel_58
Time_Shift_43
Note_On_53_Vel_0
Time_Shift_91
Note_On_62_Vel_0
Time_Shift_2
Note_On_56_Vel_0
Time_Shift_4
Note_On_60_Vel_57
Time_Shift_4
Note_On_56_Vel_45
Time_Shift_70
Note_On_60_Vel_0
Time_Shift_1
Note_On_56_Vel_0
Time_Shift_13
Note_On_41_Vel_0
Time_Shift_65
Note_On_56_Vel_69
Note_On_41_Vel_61
Note_On_58_Vel_64
Time_Shift_38
Note_On_58_Vel_0
Note_On_56_Vel_0
Time_Shift_5
Note_On_41_Vel_0
Time_Shift_277
Note_On_63_Vel_71
Time_Shift_3
Note_On_51_Vel_65
Time_Shift_1
Note_On_58_Vel_56
Time_Shift_2
Note_On_39_Vel_61
Time_Shift_2
Note_On_55_Vel_53
Time_Shift_6
Sustain_On
Time_Shift_268
Sustain_Off
Time_Shift_1
Note_On_58_Vel_0
Time_Shift_4
Note_On_50_Vel_76
Time_Shift_1
Note_On_38_Vel_71
Time_Shift_4
Note_On_53_Vel_80
Time_Shift_1
Note_On_65_Vel_77
Time_Shift_1
Note_On_58_Vel_67
Time_Shift_16
Note_On_51_Vel_0
Time_Shift_3
Note_On_55_Vel_0
Time_Shift_5
Note_On_50_Vel_0
Time_Shift_1
Note_On_58_Vel_0
Note_On_63_Vel_0
Time_Shift_1
Note_On_53_Vel_0
Time_Shift_1
Note_On_39_Vel_0
Time_Shift_1
Note_On_38_Vel_0
Time_Shift_1
Note_On_65_Vel_0
Time_Shift_95
Note_On_55_Vel_78
Note_On_58_Vel_74
Note_On_67_Vel_75
Time_Shift_2
Note_On_49_Vel_75
Time_Shift_3
Note_On_63_Vel_75
Note_On_37_Vel_77
Time_Shift_28
Note_On_55_Vel_0
Time_Shift_1
Note_On_49_Vel_0
Note_On_58_Vel_0
Time_Shift_2
Note_On_63_Vel_0
Time_Shift_2
Note_On_67_Vel_0
Time_Shift_6
Note_On_37_Vel_0
Time_Shift_94
Note_On_68_Vel_91
Time_Shift_2
Note_On_63_Vel_83
Time_Shift_3
Note_On_48_Vel_90
Time_Shift_1
Note_On_56_Vel_92
Time_Shift_2
Note_On_36_Vel_80
Time_Shift_57
Sustain_On
Time_Shift_194
Sustain_Off
Time_Shift_6
Note_On_36_Vel_0
Time_Shift_2
Note_On_56_Vel_0
Note_On_48_Vel_0
Time_Shift_1
Note_On_68_Vel_0
Time_Shift_12
Note_On_63_Vel_0
Time_Shift_5
Note_On_69_Vel_92
Note_On_54_Vel_90
Time_Shift_1
Note_On_47_Vel_96
Note_On_57_Vel_91
Note_On_66_Vel_95
Time_Shift_1
Note_On_63_Vel_92
Time_Shift_2
Note_On_35_Vel_90
Time_Shift_6
Note_On_54_Vel_0
Time_Shift_54
Sustain_On
Time_Shift_23
Note_On_47_Vel_0
Time_Shift_192
Note_On_63_Vel_0
Time_Shift_7
Note_On_58_Vel_94
Time_Shift_1
Note_On_63_Vel_92
Time_Shift_1
Note_On_67_Vel_77
Time_Shift_1
Note_On_70_Vel_90
Note_On_46_Vel_94
Time_Shift_3
Note_On_34_Vel_88
Time_Shift_25
Note_On_57_Vel_0
Time_Shift_13
Note_On_58_Vel_0
Note_On_46_Vel_0
Note_On_66_Vel_0
Time_Shift_1
Note_On_63_Vel_0
Note_On_69_Vel_0
Time_Shift_2
Note_On_34_Vel_0
Time_Shift_1
Note_On_70_Vel_0
Time_Shift_1
Note_On_35_Vel_0
Note_On_67_Vel_0
Time_Shift_1
Sustain_Off
Time_Shift_72
Note_On_59_Vel_99
Note_On_71_Vel_97
Time_Shift_2
Note_On_66_Vel_93
Time_Shift_2
Note_On_33_Vel_92
Time_Shift_1
Note_On_63_Vel_95
Note_On_45_Vel_95
Time_Shift_38
Note_On_59_Vel_0
Time_Shift_5
Note_On_71_Vel_0
Time_Shift_1
Note_On_45_Vel_0
Time_Shift_2
Note_On_33_Vel_0
Note_On_66_Vel_0
Note_On_63_Vel_0
Time_Shift_81
Note_On_72_Vel_104
Time_Shift_3
Note_On_60_Vel_108
Time_Shift_1
Note_On_44_Vel_103
Note_On_32_Vel_92
Note_On_66_Vel_93
Time_Shift_2
Note_On_63_Vel_99
Time_Shift_25
Sustain_On
Time_Shift_187
Sustain_Off
Time_Shift_3
Note_On_72_Vel_0
Note_On_63_Vel_0
Time_Shift_1
Note_On_66_Vel_0
Time_Shift_8
Note_On_32_Vel_0
Note_On_44_Vel_0
Note_On_60_Vel_0
Time_Shift_82
Note_On_43_Vel_105
Time_Shift_1
Note_On_60_Vel_102
Time_Shift_1
Note_On_31_Vel_97
Note_On_72_Vel_102
Time_Shift_2
Note_On_63_Vel_101
Note_On_67_Vel_93
Time_Shift_40
Note_On_60_Vel_0
Note_On_67_Vel_0
Time_Shift_1
Note_On_43_Vel_0
Time_Shift_1
Note_On_31_Vel_0
Time_Shift_1
Note_On_63_Vel_0
Time_Shift_4
Note_On_72_Vel_0
Time_Shift_287
Note_On_67_Vel_94
Note_On_71_Vel_97
Note_On_43_Vel_93
Time_Shift_2
Note_On_62_Vel_96
Time_Shift_29
Note_On_62_Vel_0
Time_Shift_2
Note_On_67_Vel_0
Time_Shift_2
Note_On_71_Vel_0
Time_Shift_29
Note_On_43_Vel_0
Time_Shift_639
Note_On_70_Vel_72
Time_Shift_3
Note_On_62_Vel_62
Time_Shift_1
Note_On_67_Vel_53
Time_Shift_2
Note_On_55_Vel_52
Time_Shift_27
Note_On_62_Vel_0
Time_Shift_1
Note_On_67_Vel_0
Time_Shift_5
Note_On_70_Vel_0
Note_On_55_Vel_0
Time_Shift_370
Note_On_70_Vel_57
Time_Shift_1
Note_On_68_Vel_61
Time_Shift_5
Note_On_62_Vel_51
Time_Shift_3
Note_On_53_Vel_44
Time_Shift_23
Note_On_62_Vel_0
Time_Shift_1
Note_On_68_Vel_0
Time_Shift_4
Note_On_70_Vel_0
Time_Shift_21
Note_On_53_Vel_0
Time_Shift_427
Note_On_58_Vel_64
Time_Shift_95
Sustain_On
Time_Shift_306
Note_On_65_Vel_50
Time_Shift_1
Note_On_62_Vel_44
Time_Shift_331
Note_On_65_Vel_0
Time_Shift_9
Note_On_65_Vel_73
Time_Shift_4
Note_On_56_Vel_57
Time_Shift_3
Note_On_60_Vel_55
Time_Shift_136
Note_On_67_Vel_79
Time_Shift_12
Note_On_55_Vel_58
Time_Shift_118
Sustain_Off
Time_Shift_15
Note_On_55_Vel_0
Note_On_65_Vel_0
Time_Shift_1
Note_On_58_Vel_0
Time_Shift_1
Note_On_62_Vel_0
Time_Shift_1
Note_On_56_Vel_0
Time_Shift_3
Note_On_67_Vel_0
Time_Shift_4
Note_On_60_Vel_0
Time_Shift_4
Note_On_68_Vel_75
Time_Shift_7
Note_On_60_Vel_51
Time_Shift_16
Note_On_53_Vel_55
Time_Shift_81
Sustain_On
Time_Shift_231
Note_On_65_Vel_74
Time_Shift_7
Note_On_56_Vel_59
Time_Shift_4
Note_On_62_Vel_60
Note_On_59_Vel_59
Time_Shift_7
Note_On_60_Vel_0
Time_Shift_8
Sustain_Off
Time_Shift_58
Sustain_On
Time_Shift_215
Note_On_53_Vel_0
Time_Shift_8
Note_On_63_Vel_72
Time_Shift_5
Note_On_55_Vel_53
Time_Shift_2
Note_On_68_Vel_0
Note_On_58_Vel_48
Note_On_56_Vel_0
Time_Shift_3
Note_On_59_Vel_0
Note_On_62_Vel_0
Note_On_65_Vel_0
Time_Shift_6
Sustain_Off
Time_Shift_117
Note_On_55_Vel_0
Time_Shift_1
Note_On_58_Vel_0
Time_Shift_1
Note_On_63_Vel_0
Time_Shift_1
Note_On_65_Vel_66
Time_Shift_159
Note_On_65_Vel_0
Time_Shift_18
Note_On_58_Vel_52
Note_On_67_Vel_58
Time_Shift_3
Note_On_63_Vel_47
Time_Shift_1
Note_On_55_Vel_47
Time_Shift_60
Note_On_55_Vel_0
Time_Shift_1
Note_On_63_Vel_0
Time_Shift_2
Note_On_58_Vel_0
Time_Shift_88
Sustain_On
Time_Shift_181
Sustain_Off
Time_Shift_7
Note_On_67_Vel_0
Time_Shift_7
Note_On_63_Vel_65
Time_Shift_4
Note_On_60_Vel_50
Time_Shift_4
Note_On_56_Vel_48
Time_Shift_127
Sustain_On
Time_Shift_54
Sustain_Off
Time_Shift_84
Sustain_On
Time_Shift_57
Note_On_58_Vel_54
Time_Shift_1
Note_On_55_Vel_47
Time_Shift_127
Note_On_56_Vel_0
Time_Shift_6
Note_On_56_Vel_59
Time_Shift_2
Note_On_53_Vel_56
Time_Shift_95
Note_On_55_Vel_0
Time_Shift_3
Note_On_60_Vel_0
Time_Shift_1
Note_On_58_Vel_0
Time_Shift_1
Sustain_Off
Time_Shift_50
Note_On_53_Vel_0
Note_On_56_Vel_0
Time_Shift_10
Note_On_63_Vel_0
Time_Shift_9
Note_On_63_Vel_71
Time_Shift_2
Note_On_55_Vel_52
Time_Shift_4
Note_On_51_Vel_55
Time_Shift_101
Note_On_51_Vel_0
Time_Shift_268
Note_On_55_Vel_0
Time_Shift_24
Sustain_On
Time_Shift_6
Note_On_58_Vel_49
Time_Shift_4
Note_On_46_Vel_52
Time_Shift_1
Note_On_53_Vel_46
Time_Shift_134
Sustain_Off
Time_Shift_186
Note_On_62_Vel_51
Time_Shift_25
Note_On_63_Vel_0
Time_Shift_94
Note_On_60_Vel_51
Time_Shift_6
Note_On_62_Vel_0
Time_Shift_27
Note_On_58_Vel_0
Time_Shift_131
Note_On_46_Vel_0
Time_Shift_4
Note_On_58_Vel_55
Time_Shift_7
Note_On_46_Vel_49
Time_Shift_1
Note_On_34_Vel_48
Time_Shift_3
Note_On_56_Vel_56
Time_Shift_20
Note_On_60_Vel_0
Note_On_58_Vel_0
Time_Shift_9
Note_On_53_Vel_0
Time_Shift_11
Note_On_34_Vel_0
Time_Shift_1
Note_On_56_Vel_0
Time_Shift_21
Note_On_46_Vel_0
Time_Shift_233
Note_On_39_Vel_70
Time_Shift_1
Note_On_51_Vel_70
Time_Shift_3
Note_On_63_Vel_66
Time_Shift_3
Note_On_55_Vel_60
Time_Shift_1
Note_On_67_Vel_63
Time_Shift_18
Note_On_51_Vel_0
Time_Shift_3
Note_On_39_Vel_0
Time_Shift_2
Note_On_67_Vel_0
Time_Shift_20
Note_On_55_Vel_0
Note_On_63_Vel_0
Time_Shift_270
Note_On_79_Vel_94
Time_Shift_1
Note_On_63_Vel_96
Time_Shift_2
Note_On_51_Vel_88
Note_On_67_Vel_94
Note_On_75_Vel_89
Time_Shift_16
Note_On_67_Vel_0
Time_Shift_1
Note_On_79_Vel_0
Time_Shift_3
Note_On_63_Vel_0
Time_Shift_14
Note_On_75_Vel_0
Time_Shift_8
Note_On_51_Vel_0
Time_Shift_271
Note_On_67_Vel_68
Time_Shift_1
Note_On_75_Vel_66
Note_On_39_Vel_70
Time_Shift_1
Note_On_51_Vel_72
Time_Shift_2
Note_On_63_Vel_66
Note_On_55_Vel_60
Time_Shift_1
Note_On_75_Vel_0
Time_Shift_19
Note_On_67_Vel_0
Time_Shift_2
Note_On_51_Vel_0
Time_Shift_3
Note_On_39_Vel_0
Note_On_55_Vel_0
Time_Shift_22
Note_On_63_Vel_0
Time_Shift_260
Note_On_63_Vel_87
Note_On_55_Vel_84
Time_Shift_2
Note_On_47_Vel_81
Time_Shift_1
Note_On_59_Vel_76
Time_Shift_3
Note_On_35_Vel_76
Time_Shift_1
Note_On_67_Vel_75
Time_Shift_2
Note_On_59_Vel_0
Time_Shift_16
Note_On_47_Vel_0
Time_Shift_1
Note_On_55_Vel_0
Time_Shift_2
Note_On_63_Vel_0
Time_Shift_4
Note_On_35_Vel_0
Time_Shift_8
Note_On_67_Vel_0
Time_Shift_271
Note_On_79_Vel_96
Time_Shift_1
Note_On_67_Vel_97
Note_On_63_Vel_99
Note_On_75_Vel_99
Time_Shift_1
Note_On_51_Vel_95
Time_Shift_17
Note_On_67_Vel_0
Time_Shift_5
Note_On_63_Vel_0
Time_Shift_1
Note_On_75_Vel_0
Time_Shift_6
Note_On_79_Vel_0
Time_Shift_20
Note_On_51_Vel_0
Time_Shift_182
Note_On_51_Vel_57
Time_Shift_10
Note_On_51_Vel_0
Time_Shift_66
Note_On_55_Vel_90
Time_Shift_2
Note_On_63_Vel_89
Time_Shift_3
Note_On_67_Vel_85
Time_Shift_2
Note_On_60_Vel_76
Time_Shift_1
Note_On_48_Vel_88
Time_Shift_2
Note_On_36_Vel_77
Time_Shift_16
Note_On_67_Vel_0
Time_Shift_3
Note_On_55_Vel_0
Time_Shift_2
Note_On_63_Vel_0
Note_On_48_Vel_0
Time_Shift_19
Note_On_60_Vel_0
Time_Shift_7
Note_On_36_Vel_0
Time_Shift_293
Note_On_94_Vel_94
Time_Shift_10
Note_On_91_Vel_75
Time_Shift_1
Note_On_46_Vel_73
Time_Shift_5
Note_On_34_Vel_69
Time_Shift_6
Sustain_On
Time_Shift_65
Note_On_79_Vel_91
Time_Shift_2
Note_On_82_Vel_89
Time_Shift_94
Note_On_91_Vel_0
Time_Shift_7
Note_On_91_Vel_96
Time_Shift_3
Note_On_87_Vel_89
Time_Shift_120
Note_On_58_Vel_72
Time_Shift_1
Note_On_46_Vel_0
Time_Shift_3
Note_On_67_Vel_74
Time_Shift_1
Note_On_75_Vel_81
Time_Shift_1
Note_On_63_Vel_74
Time_Shift_4
Note_On_46_Vel_62
Time_Shift_15
Sustain_Off
Time_Shift_4
Note_On_87_Vel_0
Note_On_82_Vel_0
Time_Shift_1
Note_On_91_Vel_0
Note_On_79_Vel_0
Time_Shift_1
Note_On_34_Vel_0
Note_On_94_Vel_0
Time_Shift_39
Note_On_63_Vel_0
Time_Shift_8
Note_On_67_Vel_0
Time_Shift_15
Note_On_75_Vel_0
Time_Shift_261
Note_On_82_Vel_84
Time_Shift_3
Note_On_74_Vel_68
Time_Shift_2
Note_On_68_Vel_66
Time_Shift_2
Note_On_65_Vel_65
Time_Shift_22
Note_On_74_Vel_0
Time_Shift_12
Note_On_65_Vel_0
Time_Shift_13
Note_On_68_Vel_0
Time_Shift_15
Note_On_46_Vel_0
Note_On_82_Vel_0
Time_Shift_363
Note_On_75_Vel_65
Time_Shift_1
Note_On_87_Vel_62
Time_Shift_1
Note_On_67_Vel_54
Time_Shift_8
Note_On_63_Vel_51
Time_Shift_19
Note_On_58_Vel_0
Time_Shift_26
Note_On_67_Vel_0
Time_Shift_12
Note_On_75_Vel_0
Note_On_87_Vel_0
Time_Shift_16
Note_On_63_Vel_0
Time_Shift_493
Note_On_51_Vel_38
Time_Shift_521
Note_On_51_Vel_0
Time_Shift_168
Note_On_58_Vel_38
Time_Shift_162
Sustain_On
Time_Shift_326
Note_On_70_Vel_47
Note_On_66_Vel_38
Time_Shift_434
Note_On_70_Vel_0
Time_Shift_5
Sustain_Off
Time_Shift_4
Note_On_68_Vel_56
Time_Shift_2
Note_On_70_Vel_49
Time_Shift_58
Sustain_On
Time_Shift_338
Note_On_66_Vel_0
Note_On_70_Vel_0
Time_Shift_8
Note_On_70_Vel_59
Time_Shift_3
Note_On_66_Vel_59
Time_Shift_12
Note_On_46_Vel_50
Time_Shift_18
Sustain_Off
Time_Shift_36
Sustain_On
Time_Shift_315
Note_On_70_Vel_0
Time_Shift_10
Note_On_63_Vel_68
Note_On_70_Vel_64
Time_Shift_13
Note_On_58_Vel_0
Time_Shift_4
Note_On_54_Vel_61
Time_Shift_4
Note_On_66_Vel_0
Time_Shift_2
Note_On_58_Vel_51
Time_Shift_2
Note_On_66_Vel_46
Time_Shift_49
Note_On_68_Vel_0
Time_Shift_309
Note_On_62_Vel_71
Time_Shift_14
Note_On_70_Vel_0
Time_Shift_4
Note_On_65_Vel_45
Time_Shift_4
Note_On_58_Vel_0
Time_Shift_3
Note_On_70_Vel_54
Time_Shift_1
Note_On_56_Vel_51
Note_On_58_Vel_46
Time_Shift_14
Note_On_54_Vel_0
Time_Shift_1
Note_On_46_Vel_0
Note_On_66_Vel_0
Time_Shift_19
Sustain_Off
Time_Shift_84
Sustain_On
Time_Shift_231
Note_On_63_Vel_0
Note_On_70_Vel_0
Time_Shift_9
Note_On_70_Vel_66
Time_Shift_1
Note_On_63_Vel_70
Time_Shift_13
Note_On_65_Vel_0
Time_Shift_8
Note_On_58_Vel_0
Time_Shift_4
Sustain_Off
Time_Shift_1
Note_On_58_Vel_47
Time_Shift_2
Note_On_54_Vel_46
Time_Shift_5
Note_On_56_Vel_0
Note_On_62_Vel_0
Time_Shift_49
Sustain_On
Time_Shift_300
Note_On_70_Vel_0
Time_Shift_5
Note_On_70_Vel_60
Time_Shift_1
Note_On_66_Vel_54
Time_Shift_17
Note_On_58_Vel_0
Time_Shift_6
Note_On_54_Vel_0
Time_Shift_1
Note_On_63_Vel_0
Time_Shift_1
Note_On_58_Vel_43
Time_Shift_1
Sustain_Off
Time_Shift_5
Note_On_51_Vel_47
Time_Shift_93
Sustain_On
Time_Shift_269
Note_On_70_Vel_0
Time_Shift_8
Note_On_68_Vel_61
Time_Shift_3
Note_On_70_Vel_66
Time_Shift_12
Note_On_58_Vel_0
Time_Shift_5
Note_On_58_Vel_39
Time_Shift_8
Note_On_66_Vel_0
Note_On_50_Vel_49
Time_Shift_1
Note_On_51_Vel_0
Time_Shift_6
Sustain_Off
Time_Shift_41
Sustain_On
Time_Shift_342
Note_On_78_Vel_72
Time_Shift_23
Note_On_66_Vel_42
Time_Shift_12
Note_On_50_Vel_0
Note_On_58_Vel_0
Note_On_70_Vel_0
Note_On_68_Vel_0
Time_Shift_4
Sustain_Off
Time_Shift_1
Note_On_51_Vel_42
Time_Shift_1
Note_On_58_Vel_34
Time_Shift_4
Note_On_70_Vel_41
Time_Shift_82
Sustain_On
Time_Shift_300
Note_On_65_Vel_40
Time_Shift_69
Note_On_70_Vel_0
Time_Shift_8
Note_On_70_Vel_43
Time_Shift_71
Note_On_74_Vel_37
Time_Shift_43
Note_On_77_Vel_55
Time_Shift_23
Note_On_58_Vel_0
Time_Shift_2
Note_On_51_Vel_0
Note_On_78_Vel_0
Time_Shift_1
Note_On_66_Vel_0
Time_Shift_7
Note_On_58_Vel_42
Time_Shift_1
Sustain_Off
Time_Shift_1
Note_On_46_Vel_37
Time_Shift_403
Sustain_On
Time_Shift_654
Note_On_58_Vel_0
Time_Shift_4
Note_On_77_Vel_0
Time_Shift_14
Note_On_74_Vel_0
Time_Shift_12
Note_On_70_Vel_0
Time_Shift_3
Sustain_Off
Time_Shift_4
Note_On_65_Vel_0
Time_Shift_23
Note_On_46_Vel_0
Time_Shift_225
Note_On_66_Vel_40
Time_Shift_3
Note_On_63_Vel_42
Time_Shift_4
Note_On_47_Vel_42
Time_Shift_1
Note_On_59_Vel_39
Time_Shift_121
Sustain_On
Time_Shift_15
Note_On_59_Vel_0
Time_Shift_347
Note_On_75_Vel_77
Time_Shift_425
Note_On_68_Vel_48
Note_On_59_Vel_49
Note_On_65_Vel_56
Time_Shift_367
Note_On_70_Vel_59
Time_Shift_13
Note_On_66_Vel_0
Time_Shift_4
Note_On_58_Vel_50
Time_Shift_4
Note_On_66_Vel_43
Time_Shift_23
Note_On_59_Vel_0
Time_Shift_4
Note_On_65_Vel_0
Note_On_75_Vel_0
Time_Shift_3
Note_On_47_Vel_0
Time_Shift_8
Note_On_63_Vel_0
Time_Shift_2
Sustain_Off
Time_Shift_113
Sustain_On
Time_Shift_54
Note_On_68_Vel_0
Time_Shift_115
Note_On_73_Vel_82
Time_Shift_352
Note_On_71_Vel_77
Time_Shift_20
Note_On_68_Vel_57
Time_Shift_2
Note_On_61_Vel_56
Time_Shift_12
Note_On_53_Vel_47
Time_Shift_9
Sustain_Off
Time_Shift_2
Note_On_73_Vel_0
Time_Shift_2
Note_On_58_Vel_0
Time_Shift_3
Note_On_70_Vel_0
Time_Shift_21
Note_On_66_Vel_0
Time_Shift_53
Sustain_On
Time_Shift_139
Note_On_71_Vel_0
Time_Shift_9
Note_On_71_Vel_74
Time_Shift_75
Note_On_53_Vel_0
Time_Shift_3
Note_On_68_Vel_0
Time_Shift_5
Note_On_61_Vel_0
Time_Shift_2
Sustain_Off
Note_On_70_Vel_74
Time_Shift_1
Note_On_71_Vel_0
Time_Shift_1
Note_On_54_Vel_52
Time_Shift_2
Note_On_61_Vel_53
Time_Shift_101
Sustain_On
Time_Shift_258
Note_On_68_Vel_71
Time_Shift_23
Note_On_65_Vel_59
Time_Shift_1
Note_On_59_Vel_52
Sustain_Off
Time_Shift_1
Note_On_56_Vel_50
Time_Shift_7
Note_On_70_Vel_0
Time_Shift_4
Note_On_61_Vel_0
Time_Shift_1
Note_On_54_Vel_0
Time_Shift_74
Sustain_On
Time_Shift_278
Note_On_63_Vel_60
Time_Shift_1
Note_On_66_Vel_59
Time_Shift_7
Sustain_Off
Time_Shift_1
Note_On_65_Vel_0
Time_Shift_2
Note_On_56_Vel_0
Time_Shift_2
Note_On_68_Vel_0
Time_Shift_1
Note_On_59_Vel_0
Time_Shift_12
Note_On_60_Vel_40
Time_Shift_4
Note_On_57_Vel_45
Time_Shift_130
Sustain_On
Time_Shift_266
Note_On_65_Vel_44
Time_Shift_1
Note_On_62_Vel_48
Time_Shift_5
Note_On_58_Vel_47
Time_Shift_31
Note_On_60_Vel_0
Time_Shift_6
Note_On_57_Vel_0
Time_Shift_1
Note_On_66_Vel_0
Time_Shift_8
Sustain_Off
Time_Shift_16
Note_On_63_Vel_0
Time_Shift_134
Sustain_On
Time_Shift_255
Note_On_46_Vel_54
Time_Shift_98
Note_On_45_Vel_62
Time_Shift_120
Note_On_47_Vel_70
Time_Shift_8
Note_On_46_Vel_0
Time_Shift_34
Sustain_Off
Time_Shift_7
Note_On_45_Vel_0
Time_Shift_90
Note_On_46_Vel_71
Time_Shift_26
Sustain_On
Time_Shift_9
Note_On_47_Vel_0
Time_Shift_11
Sustain_Off
Time_Shift_64
Sustain_On
Time_Shift_280
Note_On_54_Vel_75
Time_Shift_25
Sustain_Off
Time_Shift_41
Sustain_On
Time_Shift_299
Note_On_58_Vel_0
Time_Shift_1
Note_On_56_Vel_71
Time_Shift_5
Note_On_82_Vel_71
Note_On_58_Vel_66
Time_Shift_5
Note_On_54_Vel_0
Time_Shift_1
Note_On_62_Vel_0
Time_Shift_4
Note_On_46_Vel_0
Time_Shift_3
Sustain_Off
Time_Shift_35
Note_On_65_Vel_0
Time_Shift_23
Sustain_On
Time_Shift_35
Note_On_81_Vel_66
Time_Shift_102
Note_On_83_Vel_68
Time_Shift_124
Note_On_58_Vel_0
Note_On_82_Vel_0
Time_Shift_3
Note_On_54_Vel_70
Time_Shift_1
Note_On_82_Vel_71
Time_Shift_4
Note_On_58_Vel_57
Time_Shift_5
Note_On_56_Vel_0
Note_On_81_Vel_0
Time_Shift_3
Sustain_Off
Time_Shift_3
Note_On_83_Vel_0
Time_Shift_43
Sustain_On
Time_Shift_299
Note_On_58_Vel_0
Time_Shift_1
Note_On_66_Vel_57
Time_Shift_7
Note_On_51_Vel_62
Note_On_58_Vel_55
Time_Shift_17
Note_On_54_Vel_0
Time_Shift_2
Sustain_Off
Time_Shift_4
Note_On_82_Vel_0
Time_Shift_84
Sustain_On
Time_Shift_14
Note_On_70_Vel_54
Time_Shift_235
Note_On_68_Vel_65
Time_Shift_5
Note_On_58_Vel_0
Time_Shift_4
Note_On_58_Vel_53
Time_Shift_2
Note_On_50_Vel_59
Time_Shift_22
Note_On_66_Vel_0
Time_Shift_3
Note_On_51_Vel_0
Time_Shift_2
Sustain_Off
Time_Shift_97
Sustain_On
Time_Shift_231
Note_On_58_Vel_0
Note_On_70_Vel_0
Time_Shift_3
Note_On_66_Vel_58
Note_On_51_Vel_62
Time_Shift_4
Note_On_70_Vel_62
Time_Shift_2
Note_On_58_Vel_52
Time_Shift_2
Note_On_50_Vel_0
Sustain_Off
Time_Shift_4
Note_On_68_Vel_0
Time_Shift_100
Sustain_On
Time_Shift_266
Sustain_Off
Time_Shift_3
Note_On_58_Vel_0
Note_On_70_Vel_0
Time_Shift_3
Note_On_63_Vel_63
Note_On_51_Vel_0
Time_Shift_1
Note_On_66_Vel_0
Time_Shift_3
Note_On_70_Vel_57
Time_Shift_4
Note_On_54_Vel_54
Note_On_58_Vel_52
Time_Shift_89
Sustain_On
Time_Shift_263
Note_On_54_Vel_0
Time_Shift_2
Note_On_63_Vel_0
Sustain_Off
Time_Shift_24
Note_On_62_Vel_64
Time_Shift_2
Note_On_58_Vel_0
Note_On_70_Vel_0
Time_Shift_10
Note_On_70_Vel_52
Time_Shift_1
Note_On_58_Vel_48
Time_Shift_3
Note_On_56_Vel_43
Time_Shift_33
Sustain_On
Time_Shift_349
Note_On_78_Vel_68
Time_Shift_15
Note_On_62_Vel_0
Sustain_Off
Time_Shift_1
Note_On_56_Vel_0
Time_Shift_16
Note_On_63_Vel_45
Time_Shift_10
Note_On_58_Vel_0
Time_Shift_9
Note_On_54_Vel_38
Time_Shift_1
Note_On_58_Vel_31
Time_Shift_9
Note_On_51_Vel_37
Time_Shift_66
Sustain_On
Time_Shift_402
Note_On_77_Vel_52
Time_Shift_12
Note_On_70_Vel_0
Time_Shift_3
Note_On_62_Vel_49
Time_Shift_8
Note_On_70_Vel_43
Time_Shift_25
Note_On_46_Vel_32
Note_On_53_Vel_29
Time_Shift_13
Sustain_Off
Time_Shift_13
Note_On_54_Vel_0
Time_Shift_84
Note_On_51_Vel_0
Time_Shift_8
Note_On_63_Vel_0
Note_On_78_Vel_0
Time_Shift_223
Sustain_On
Time_Shift_479
Note_On_70_Vel_0
Time_Shift_1
Note_On_62_Vel_0
Note_On_58_Vel_0
Time_Shift_1
Note_On_53_Vel_0
Time_Shift_4
Note_On_77_Vel_0
Note_On_46_Vel_0
Time_Shift_2
Sustain_Off
Time_Shift_220
Note_On_70_Vel_72
Time_Shift_85
Note_On_39_Vel_57
Time_Shift_37
Sustain_On
Time_Shift_81
Note_On_46_Vel_62
Time_Shift_44
Note_On_82_Vel_89
Time_Shift_49
Note_On_54_Vel_60
Time_Shift_344
Note_On_78_Vel_81
Time_Shift_143
Note_On_78_Vel_0
Time_Shift_10
Note_On_78_Vel_64
Time_Shift_1
Note_On_75_Vel_80
Time_Shift_64
Note_On_82_Vel_0
Time_Shift_1
Note_On_39_Vel_0
Time_Shift_1
Note_On_78_Vel_0
Time_Shift_2
Note_On_46_Vel_0
Time_Shift_1
Note_On_70_Vel_0
Time_Shift_7
Sustain_Off
Time_Shift_36
Note_On_54_Vel_0
Sustain_On
Time_Shift_47
Note_On_70_Vel_71
Time_Shift_98
Note_On_75_Vel_0
Time_Shift_66
Note_On_63_Vel_76
Time_Shift_1
Note_On_46_Vel_55
Time_Shift_10
Sustain_Off
Time_Shift_199
Note_On_58_Vel_68
Time_Shift_1
Note_On_66_Vel_57
Time_Shift_84
Note_On_70_Vel_0
Time_Shift_8
Sustain_On
Time_Shift_320
Note_On_54_Vel_70
Time_Shift_145
Note_On_51_Vel_68
Time_Shift_149
Note_On_46_Vel_0
Time_Shift_8
Note_On_46_Vel_65
Time_Shift_167
Note_On_34_Vel_57
Time_Shift_224
Note_On_54_Vel_0
Time_Shift_1
Note_On_46_Vel_0
Sustain_Off
Time_Shift_4
Note_On_46_Vel_55
Time_Shift_211
Note_On_51_Vel_0
Time_Shift_15
Sustain_On
Time_Shift_146
Note_On_58_Vel_0
Time_Shift_5
Note_On_58_Vel_54
Time_Shift_313
Sustain_Off
Time_Shift_2
Note_On_58_Vel_0
Note_On_34_Vel_0
Time_Shift_1
Note_On_63_Vel_0
Time_Shift_2
Note_On_66_Vel_0
Time_Shift_23
Note_On_46_Vel_0
Time_Shift_9
Note_On_46_Vel_61
Time_Shift_3
Note_On_62_Vel_61
Time_Shift_3
Note_On_56_Vel_55
Time_Shift_26
Note_On_46_Vel_0
Time_Shift_1
Note_On_62_Vel_0
Time_Shift_4
Note_On_56_Vel_0
Time_Shift_350
Note_On_51_Vel_60
Time_Shift_6
Note_On_63_Vel_57
Time_Shift_1
Note_On_54_Vel_44
Time_Shift_26
Note_On_51_Vel_0
Time_Shift_15
Note_On_63_Vel_0
Time_Shift_9
Note_On_54_Vel_0
Time_Shift_396
Note_On_39_Vel_41
Time_Shift_52
Note_On_39_Vel_0
Time_Shift_428
Note_On_58_Vel_35
Time_Shift_443
Note_On_66_Vel_38
Time_Shift_6
Note_On_70_Vel_39
Time_Shift_35
Note_On_58_Vel_0
Time_Shift_91
Sustain_On
Time_Shift_273
Note_On_68_Vel_48
Time_Shift_4
Note_On_70_Vel_0
Time_Shift_7
Note_On_70_Vel_53
Time_Shift_369
Note_On_66_Vel_0
Note_On_70_Vel_0
Time_Shift_7
Note_On_70_Vel_60
Time_Shift_2
Note_On_46_Vel_53
Time_Shift_1
Note_On_66_Vel_60
Time_Shift_11
Sustain_Off
Time_Shift_18
Sustain_On
Time_Shift_356
Note_On_63_Vel_66
Time_Shift_1
Note_On_54_Vel_62
Time_Shift_1
Note_On_58_Vel_54
Time_Shift_35
Sustain_Off
Time_Shift_14
Note_On_46_Vel_0
Time_Shift_3
Note_On_66_Vel_0
Note_On_68_Vel_0
Time_Shift_43
Sustain_On
Time_Shift_276
Note_On_70_Vel_0
Time_Shift_4
Note_On_70_Vel_66
Time_Shift_2
Note_On_62_Vel_71
Time_Shift_17
Note_On_58_Vel_0
Time_Shift_4
Note_On_56_Vel_52
Note_On_58_Vel_53
Time_Shift_40
Sustain_Off
Time_Shift_25
Sustain_On
Time_Shift_277
Note_On_63_Vel_0
Note_On_70_Vel_0
Time_Shift_4
Note_On_63_Vel_67
Time_Shift_2
Note_On_70_Vel_58
Time_Shift_2
Note_On_54_Vel_0
Note_On_58_Vel_0
Time_Shift_4
Note_On_58_Vel_53
Time_Shift_2
Note_On_54_Vel_62
Time_Shift_10
Note_On_56_Vel_0
Time_Shift_2
Note_On_62_Vel_0
Time_Shift_3
Sustain_Off
Time_Shift_86
Sustain_On
Time_Shift_264
Note_On_66_Vel_55
Time_Shift_5
Note_On_58_Vel_0
Time_Shift_4
Sustain_Off
Time_Shift_6
Note_On_58_Vel_43
Time_Shift_1
Note_On_51_Vel_49
Time_Shift_43
Note_On_63_Vel_0
Time_Shift_53
Note_On_54_Vel_0
Sustain_On
Time_Shift_277
Note_On_70_Vel_0
Time_Shift_1
Sustain_Off
Time_Shift_2
Note_On_51_Vel_0
Note_On_66_Vel_0
Time_Shift_4
Note_On_68_Vel_58
Time_Shift_3
Note_On_70_Vel_52
Time_Shift_5
Note_On_58_Vel_0
Time_Shift_4
Note_On_50_Vel_44
Time_Shift_1
Note_On_58_Vel_38
Time_Shift_80
Sustain_On
Time_Shift_341
Note_On_78_Vel_61
Time_Shift_17
Note_On_50_Vel_0
Time_Shift_1
Note_On_68_Vel_0
Sustain_Off
Time_Shift_2
Note_On_58_Vel_0
Time_Shift_8
Note_On_58_Vel_38
Time_Shift_3
Note_On_51_Vel_38
Time_Shift_1
Note_On_66_Vel_31
Note_On_63_Vel_35
Time_Shift_11
Note_On_63_Vel_0
Time_Shift_84
Sustain_On
Time_Shift_312
Note_On_65_Vel_25
Time_Shift_88
Note_On_70_Vel_0
Time_Shift_4
Note_On_70_Vel_18
Time_Shift_39
Note_On_74_Vel_31
Time_Shift_20
Sustain_Off
Time_Shift_36
Note_On_51_Vel_0
Time_Shift_2
Note_On_77_Vel_45
Time_Shift_6
Note_On_66_Vel_0
Time_Shift_2
Note_On_46_Vel_31
Time_Shift_13
Note_On_78_Vel_0
Time_Shift_346
Sustain_On
Time_Shift_607
Note_On_58_Vel_0
Time_Shift_34
Note_On_77_Vel_0
Time_Shift_1
Note_On_46_Vel_0
Note_On_74_Vel_0
Note_On_70_Vel_0
Time_Shift_34
Note_On_65_Vel_0
Time_Shift_19
Sustain_Off
Time_Shift_269
Note_On_47_Vel_37
Note_On_66_Vel_37
Time_Shift_1
Note_On_63_Vel_39
Time_Shift_126
Sustain_On
Time_Shift_329
Note_On_75_Vel_76
Time_Shift_409
Note_On_59_Vel_55
Time_Shift_4
Note_On_68_Vel_37
Time_Shift_6
Note_On_65_Vel_39
Time_Shift_365
Note_On_66_Vel_0
Time_Shift_1
Note_On_58_Vel_50
Time_Shift_8
Note_On_70_Vel_55
Time_Shift_2
Note_On_66_Vel_40
Time_Shift_37
Note_On_65_Vel_0
Time_Shift_1
Sustain_Off
Time_Shift_5
Note_On_63_Vel_0
Time_Shift_31
Note_On_59_Vel_0
Time_Shift_30
Note_On_47_Vel_0
Time_Shift_69
Sustain_On
Time_Shift_185
Note_On_73_Vel_78
Time_Shift_84
Note_On_68_Vel_0
Time_Shift_259
Note_On_71_Vel_73
Time_Shift_15
Note_On_68_Vel_56
Time_Shift_8
Note_On_61_Vel_56
Time_Shift_17
Note_On_53_Vel_51
Time_Shift_12
Sustain_Off
Time_Shift_9
Note_On_70_Vel_0
Time_Shift_1
Note_On_58_Vel_0
Time_Shift_1
Note_On_75_Vel_0
Time_Shift_1
Note_On_73_Vel_0
Time_Shift_1
Note_On_66_Vel_0
Time_Shift_76
Sustain_On
Time_Shift_115
Note_On_71_Vel_0
Time_Shift_7
Note_On_71_Vel_70
Time_Shift_85
Note_On_61_Vel_0
Time_Shift_1
Note_On_70_Vel_77
Time_Shift_9
Note_On_61_Vel_53
Time_Shift_11
Note_On_54_Vel_59
Time_Shift_21
Note_On_53_Vel_0
Time_Shift_1
Note_On_71_Vel_0
Time_Shift_1
Note_On_68_Vel_0
Time_Shift_6
Sustain_Off
Time_Shift_88
Sustain_On
Time_Shift_39
Note_On_70_Vel_0
Time_Shift_11
Note_On_70_Vel_56
Time_Shift_178
Note_On_68_Vel_72
Time_Shift_13
Note_On_56_Vel_57
Time_Shift_1
Note_On_65_Vel_59
Note_On_59_Vel_53
Time_Shift_50
Sustain_Off
Time_Shift_2
Note_On_61_Vel_0
Time_Shift_2
Note_On_54_Vel_0
Note_On_70_Vel_0
Time_Shift_96
Sustain_On
Time_Shift_213
Note_On_66_Vel_66
Time_Shift_5
Note_On_63_Vel_56
Time_Shift_1
Note_On_57_Vel_58
Time_Shift_7
Note_On_60_Vel_53
Time_Shift_54
Note_On_59_Vel_0
Note_On_65_Vel_0
Sustain_Off
Note_On_68_Vel_0
Time_Shift_2
Note_On_56_Vel_0
Time_Shift_94
Sustain_On
Time_Shift_258
Note_On_65_Vel_58
Time_Shift_14
Note_On_66_Vel_0
Time_Shift_1
Note_On_57_Vel_0
Note_On_60_Vel_0
Time_Shift_3
Note_On_63_Vel_0
Time_Shift_2
Note_On_62_Vel_51
Time_Shift_1
Sustain_Off
Note_On_58_Vel_45
Time_Shift_197
Sustain_On
Time_Shift_246
Note_On_46_Vel_63
Time_Shift_112
Note_On_45_Vel_70
Time_Shift_109
Note_On_47_Vel_77
Time_Shift_42
Sustain_Off
Time_Shift_67
Note_On_46_Vel_0
Time_Shift_5
Note_On_46_Vel_80
Time_Shift_18
Note_On_45_Vel_0
Time_Shift_21
Note_On_47_Vel_0
Time_Shift_79
Sustain_On
Time_Shift_284
Note_On_46_Vel_0
Time_Shift_12
Note_On_46_Vel_58
Note_On_54_Vel_78
Time_Shift_23
Sustain_Off
Time_Shift_58
Sustain_On
Time_Shift_46
Note_On_65_Vel_0
Time_Shift_30
Note_On_58_Vel_0
Time_Shift_231
Note_On_62_Vel_0
Note_On_82_Vel_73
Time_Shift_4
Note_On_56_Vel_67
Time_Shift_6
Note_On_58_Vel_66
Time_Shift_17
Note_On_54_Vel_0
Time_Shift_2
Sustain_Off
Time_Shift_32
Note_On_46_Vel_0
Time_Shift_16
Sustain_On
Time_Shift_14
Note_On_81_Vel_69
Time_Shift_105
Note_On_83_Vel_68
Time_Shift_126
Note_On_82_Vel_0
Time_Shift_5
Note_On_54_Vel_70
Time_Shift_1
Note_On_82_Vel_73
Time_Shift_22
Sustain_Off
Time_Shift_4
Note_On_56_Vel_0
Note_On_81_Vel_0
Time_Shift_2
Note_On_83_Vel_0
Time_Shift_89
Sustain_On
Time_Shift_245
Note_On_66_Vel_57
Time_Shift_3
Note_On_70_Vel_66
Time_Shift_6
Note_On_58_Vel_0
Time_Shift_7
Note_On_54_Vel_0
Time_Shift_4
Note_On_58_Vel_50
Note_On_51_Vel_59
Time_Shift_10
Sustain_Off
Time_Shift_86
Sustain_On
Time_Shift_254
Note_On_58_Vel_0
Note_On_70_Vel_0
Time_Shift_1
Note_On_68_Vel_65
Time_Shift_4
Note_On_70_Vel_68
Time_Shift_5
Note_On_50_Vel_55
Note_On_58_Vel_51
Time_Shift_7
Sustain_Off
Time_Shift_8
Note_On_51_Vel_0
Time_Shift_1
Note_On_66_Vel_0
Time_Shift_27
Note_On_82_Vel_0
Time_Shift_54
Sustain_On
Time_Shift_261
Note_On_70_Vel_0
Time_Shift_7
Note_On_66_Vel_58
Time_Shift_2
Note_On_70_Vel_62
Time_Shift_7
Note_On_58_Vel_0
Time_Shift_7
Note_On_51_Vel_55
Time_Shift_2
Note_On_58_Vel_42
Time_Shift_2
Note_On_50_Vel_0
Time_Shift_2
Note_On_68_Vel_0
Time_Shift_2
Sustain_Off
Time_Shift_92
Sustain_On
Time_Shift_261
Note_On_70_Vel_0
Time_Shift_2
Note_On_51_Vel_0
Time_Shift_2
Note_On_66_Vel_0
Time_Shift_3
Sustain_Off
Note_On_70_Vel_52
Time_Shift_1
Note_On_58_Vel_0
Time_Shift_4
Note_On_63_Vel_53
Time_Shift_6
Note_On_58_Vel_41
Time_Shift_1
Note_On_54_Vel_49
Time_Shift_96
Sustain_On
Time_Shift_274
Sustain_Off
Time_Shift_1
Note_On_63_Vel_0
Note_On_54_Vel_0
Time_Shift_10
Note_On_70_Vel_0
Time_Shift_4
Note_On_70_Vel_52
Time_Shift_3
Note_On_58_Vel_0
Time_Shift_4
Note_On_56_Vel_45
Time_Shift_1
Note_On_62_Vel_44
Note_On_58_Vel_39
Time_Shift_72
Sustain_On
Time_Shift_328
Sustain_Off
Note_On_78_Vel_56
Time_Shift_10
Note_On_62_Vel_0
Time_Shift_14
Note_On_63_Vel_48
Time_Shift_1
Note_On_70_Vel_0
Time_Shift_12
Note_On_70_Vel_35
Time_Shift_4
Note_On_56_Vel_0
Time_Shift_14
Note_On_54_Vel_36
Time_Shift_4
Note_On_51_Vel_41
Time_Shift_28
Sustain_On
Time_Shift_456
Note_On_77_Vel_45
Time_Shift_20
Note_On_70_Vel_0
Time_Shift_6
Note_On_70_Vel_43
Time_Shift_4
Note_On_62_Vel_43
Time_Shift_31
Note_On_46_Vel_33
Time_Shift_8
Note_On_53_Vel_30
Time_Shift_56
Sustain_Off
Time_Shift_68
Note_On_51_Vel_0
Time_Shift_2
Note_On_63_Vel_0
Note_On_54_Vel_0
Time_Shift_2
Note_On_78_Vel_0
Time_Shift_153
Sustain_On
Time_Shift_484
Note_On_58_Vel_0
Time_Shift_5
Note_On_62_Vel_0
Note_On_70_Vel_0
Time_Shift_1
Note_On_53_Vel_0
Note_On_46_Vel_0
Sustain_Off
Time_Shift_63
Note_On_77_Vel_0
Time_Shift_214
Note_On_70_Vel_71
Time_Shift_75
Note_On_39_Vel_59
Time_Shift_3
Sustain_On
Time_Shift_85
Note_On_46_Vel_65
Time_Shift_30
Note_On_70_Vel_0
Time_Shift_45
Note_On_82_Vel_93
Time_Shift_5
Note_On_70_Vel_72
Time_Shift_25
Note_On_54_Vel_64
Time_Shift_377
Note_On_78_Vel_82
Time_Shift_135
Sustain_Off
Time_Shift_10
Note_On_39_Vel_0
Note_On_46_Vel_0
Time_Shift_6
Note_On_82_Vel_0
Note_On_70_Vel_0
Time_Shift_2
Note_On_75_Vel_81
Time_Shift_25
Sustain_On
Time_Shift_141
Note_On_70_Vel_71
Time_Shift_165
Note_On_63_Vel_77
Time_Shift_3
Note_On_46_Vel_60
Time_Shift_218
Note_On_58_Vel_66
Time_Shift_3
Note_On_66_Vel_64
Time_Shift_23
Note_On_78_Vel_0
Time_Shift_57
Sustain_Off
Time_Shift_7
Note_On_75_Vel_0
Note_On_70_Vel_0
Time_Shift_1
Note_On_54_Vel_0
Time_Shift_142
Sustain_On
Time_Shift_151
Note_On_54_Vel_66
Time_Shift_103
Note_On_46_Vel_0
Time_Shift_41
Note_On_51_Vel_73
Time_Shift_170
Note_On_46_Vel_66
Time_Shift_155
Note_On_34_Vel_61
Time_Shift_86
Sustain_Off
Time_Shift_11
Note_On_51_Vel_0
Time_Shift_1
Note_On_54_Vel_0
Time_Shift_119
Note_On_46_Vel_0
Time_Shift_10
Note_On_46_Vel_56
Time_Shift_175
Sustain_On
Time_Shift_199
Note_On_58_Vel_0
Time_Shift_4
Note_On_58_Vel_55
Time_Shift_356
Note_On_66_Vel_0
Time_Shift_1
Note_On_63_Vel_0
Time_Shift_2
Sustain_Off
Time_Shift_2
Note_On_58_Vel_0
Time_Shift_4
Note_On_46_Vel_0
Time_Shift_6
Note_On_46_Vel_59
Time_Shift_4
Note_On_62_Vel_64
Time_Shift_2
Note_On_56_Vel_50
Time_Shift_24
Note_On_46_Vel_0
Time_Shift_5
Note_On_62_Vel_0
Time_Shift_7
Note_On_56_Vel_0
Time_Shift_6
Note_On_34_Vel_0
Time_Shift_359
Note_On_63_Vel_56
Time_Shift_2
Note_On_54_Vel_55
Time_Shift_3
Note_On_51_Vel_53
Time_Shift_39
Note_On_51_Vel_0
Time_Shift_2
Note_On_54_Vel_0
Time_Shift_9
Note_On_63_Vel_0
Time_Shift_423
Note_On_39_Vel_41
Time_Shift_44
Note_On_39_Vel_0
Time_Shift_332
Sustain_On
Time_Shift_128
Note_On_73_Vel_73
Time_Shift_26
Sustain_Off
Time_Shift_169
Sustain_On
Time_Shift_385
Note_On_85_Vel_80
Time_Shift_7
Note_On_82_Vel_65
Time_Shift_28
Note_On_42_Vel_52
Time_Shift_371
Note_On_66_Vel_61
Time_Shift_53
Note_On_58_Vel_42
Time_Shift_97
Note_On_84_Vel_89
Time_Shift_6
Note_On_81_Vel_78
Time_Shift_154
Note_On_87_Vel_93
Time_Shift_9
Note_On_70_Vel_73
Note_On_83_Vel_82
Time_Shift_5
Note_On_61_Vel_68
Time_Shift_121
Note_On_82_Vel_0
Note_On_85_Vel_0
Time_Shift_4
Note_On_85_Vel_98
Time_Shift_6
Note_On_82_Vel_87
Time_Shift_167
Note_On_73_Vel_0
Time_Shift_9
Note_On_73_Vel_81
Time_Shift_25
Note_On_84_Vel_0
Time_Shift_1
Note_On_42_Vel_0
Note_On_58_Vel_0
Note_On_83_Vel_0
Time_Shift_1
Note_On_61_Vel_0
Note_On_66_Vel_0
Note_On_87_Vel_0
Note_On_81_Vel_0
Time_Shift_1
Note_On_85_Vel_0
Note_On_37_Vel_54
Sustain_Off
Time_Shift_2
Note_On_70_Vel_0
Time_Shift_2
Note_On_82_Vel_0
Time_Shift_82
Sustain_On
Time_Shift_273
Note_On_83_Vel_82
Time_Shift_7
Note_On_80_Vel_67
Time_Shift_12
Note_On_73_Vel_0
Time_Shift_5
Note_On_56_Vel_59
Time_Shift_5
Note_On_65_Vel_56
Time_Shift_1
Note_On_73_Vel_51
Time_Shift_128
Note_On_85_Vel_82
Time_Shift_2
Note_On_82_Vel_78
Time_Shift_174
Note_On_83_Vel_0
Time_Shift_9
Note_On_83_Vel_81
Time_Shift_21
Note_On_80_Vel_0
Time_Shift_3
Note_On_61_Vel_61
Time_Shift_6
Note_On_80_Vel_54
Time_Shift_10
Note_On_53_Vel_47
Time_Shift_381
Note_On_82_Vel_0
Time_Shift_4
Note_On_82_Vel_76
Time_Shift_7
Note_On_78_Vel_62
Time_Shift_4
Note_On_37_Vel_0
Note_On_73_Vel_0
Time_Shift_5
Note_On_42_Vel_56
Time_Shift_1
Note_On_73_Vel_41
Time_Shift_5
Note_On_53_Vel_0
Note_On_65_Vel_0
Note_On_85_Vel_0
Note_On_61_Vel_0
Note_On_56_Vel_0
Time_Shift_1
Note_On_80_Vel_0
Sustain_Off
Time_Shift_11
Note_On_83_Vel_0
Time_Shift_69
Sustain_On
Time_Shift_204
Note_On_58_Vel_66
Time_Shift_2
Note_On_66_Vel_65
Time_Shift_152
Note_On_81_Vel_84
Time_Shift_5
Note_On_77_Vel_74
Time_Shift_139
Note_On_70_Vel_80
Time_Shift_1
Note_On_61_Vel_77
Time_Shift_1
Note_On_80_Vel_84
Note_On_83_Vel_91
Time_Shift_134
Note_On_78_Vel_0
Note_On_82_Vel_0
Time_Shift_5
Note_On_82_Vel_93
Time_Shift_5
Note_On_78_Vel_83
Time_Shift_136
Note_On_73_Vel_0
Time_Shift_23
Note_On_78_Vel_0
Note_On_83_Vel_0
Time_Shift_4
Note_On_83_Vel_67
Time_Shift_4
Note_On_74_Vel_70
Time_Shift_2
Note_On_78_Vel_68
Time_Shift_18
Note_On_61_Vel_0
Note_On_82_Vel_0
Note_On_66_Vel_0
Note_On_58_Vel_0
Note_On_70_Vel_0
Sustain_Off
Time_Shift_1
Note_On_80_Vel_0
Time_Shift_1
Note_On_77_Vel_0
Time_Shift_1
Note_On_81_Vel_0
Time_Shift_4
Note_On_46_Vel_62
Time_Shift_3
Note_On_42_Vel_0
Time_Shift_77
Sustain_On
Time_Shift_84
Note_On_78_Vel_0
Time_Shift_158
Note_On_80_Vel_74
Time_Shift_7
Note_On_77_Vel_67
Time_Shift_4
Note_On_46_Vel_0
Time_Shift_4
Note_On_58_Vel_56
Time_Shift_6
Note_On_46_Vel_55
Time_Shift_140
Note_On_78_Vel_69
Note_On_82_Vel_79
Time_Shift_188
Note_On_80_Vel_0
Time_Shift_5
Note_On_80_Vel_72
Time_Shift_10
Note_On_77_Vel_0
Time_Shift_10
Note_On_77_Vel_58
Time_Shift_11
Note_On_70_Vel_49
Time_Shift_3
Note_On_74_Vel_0
Time_Shift_8
Note_On_74_Vel_37
Time_Shift_391
Note_On_78_Vel_0
Time_Shift_9
Note_On_78_Vel_71
Time_Shift_18
Note_On_75_Vel_49
Time_Shift_33
Note_On_51_Vel_51
Time_Shift_23
Sustain_Off
Time_Shift_40
Note_On_83_Vel_0
Time_Shift_5
Note_On_77_Vel_0
Time_Shift_4
Note_On_46_Vel_0
Time_Shift_1
Note_On_74_Vel_0
Time_Shift_1
Note_On_58_Vel_0
Note_On_82_Vel_0
Time_Shift_2
Note_On_80_Vel_0
Time_Shift_33
Note_On_70_Vel_0
Time_Shift_23
Sustain_On
Time_Shift_166
Note_On_58_Vel_47
Time_Shift_1
Note_On_63_Vel_56
Time_Shift_6
Note_On_54_Vel_51
Time_Shift_114
Note_On_77_Vel_74
Time_Shift_3
Note_On_74_Vel_68
Time_Shift_163
Note_On_63_Vel_0
Time_Shift_3
Note_On_76_Vel_69
Time_Shift_2
Note_On_63_Vel_53
Time_Shift_2
Note_On_80_Vel_70
Time_Shift_1
Note_On_54_Vel_0
Time_Shift_4
Note_On_54_Vel_49
Note_On_58_Vel_0
Note_On_51_Vel_0
Time_Shift_4
Note_On_59_Vel_50
Time_Shift_3
Sustain_Off
Time_Shift_19
Sustain_On
Time_Shift_100
Note_On_75_Vel_0
Note_On_78_Vel_0
Time_Shift_6
Note_On_78_Vel_85
Time_Shift_5
Note_On_75_Vel_67
Time_Shift_165
Note_On_66_Vel_74
Time_Shift_2
Note_On_46_Vel_65
Time_Shift_4
Sustain_Off
Time_Shift_1
Note_On_59_Vel_0
Note_On_54_Vel_0
Time_Shift_1
Note_On_74_Vel_0
Time_Shift_1
Note_On_76_Vel_0
Time_Shift_2
Note_On_80_Vel_0
Time_Shift_5
Note_On_77_Vel_0
Time_Shift_8
Note_On_63_Vel_0
Time_Shift_38
Sustain_On
Time_Shift_253
Note_On_76_Vel_85
Time_Shift_12
Note_On_61_Vel_74
Time_Shift_2
Note_On_54_Vel_64
Time_Shift_117
Note_On_78_Vel_0
Time_Shift_9
Note_On_66_Vel_0
Time_Shift_3
Note_On_78_Vel_95
Note_On_63_Vel_81
Time_Shift_142
Note_On_76_Vel_0
Time_Shift_11
Sustain_Off
Note_On_76_Vel_91
Time_Shift_4
Note_On_46_Vel_0
Time_Shift_8
Note_On_54_Vel_0
Time_Shift_8
Note_On_61_Vel_0
Time_Shift_2
Note_On_54_Vel_72
Time_Shift_2
Note_On_61_Vel_76
Time_Shift_11
Sustain_On
Time_Shift_23
Note_On_75_Vel_0
Time_Shift_257
Note_On_75_Vel_84
Time_Shift_3
Note_On_63_Vel_0
Time_Shift_1
Note_On_61_Vel_0
Time_Shift_2
Note_On_59_Vel_80
Note_On_47_Vel_76
Time_Shift_1
Sustain_Off
Note_On_54_Vel_0
Time_Shift_5
Note_On_78_Vel_0
Time_Shift_15
Note_On_76_Vel_0
Time_Shift_23
Note_On_59_Vel_0
Time_Shift_16
Note_On_75_Vel_0
Time_Shift_7
Note_On_47_Vel_0
Time_Shift_183
Note_On_59_Vel_67
Time_Shift_3
Note_On_75_Vel_69
Time_Shift_2
Note_On_67_Vel_73
Time_Shift_23
Note_On_67_Vel_0
Time_Shift_1
Note_On_59_Vel_0
Time_Shift_1
Note_On_75_Vel_0
Time_Shift_57
Note_On_68_Vel_75
Time_Shift_1
Note_On_75_Vel_83
Time_Shift_1
Note_On_59_Vel_75
Time_Shift_29
Note_On_68_Vel_0
Time_Shift_2
Note_On_75_Vel_0
Time_Shift_28
Note_On_59_Vel_0
Time_Shift_302
Note_On_75_Vel_69
Time_Shift_25
Note_On_66_Vel_43
Note_On_69_Vel_42
Time_Shift_1
Note_On_59_Vel_55
Time_Shift_166
Note_On_65_Vel_52
Time_Shift_5
Sustain_On
Time_Shift_15
Sustain_Off
Time_Shift_212
Note_On_58_Vel_48
Time_Shift_1
Note_On_74_Vel_59
Time_Shift_4
Note_On_70_Vel_49
Time_Shift_33
Note_On_75_Vel_0
Note_On_59_Vel_0
Time_Shift_19
Note_On_69_Vel_0
Time_Shift_223
Note_On_66_Vel_0
Time_Shift_97
Note_On_57_Vel_47
Time_Shift_113
Note_On_74_Vel_0
Time_Shift_255
Note_On_56_Vel_49
Time_Shift_26
Sustain_On
Time_Shift_388
Note_On_75_Vel_70
Time_Shift_8
Note_On_63_Vel_68
Time_Shift_18
Note_On_54_Vel_49
Time_Shift_5
Note_On_51_Vel_51
Time_Shift_73
Note_On_65_Vel_0
Time_Shift_163
Note_On_77_Vel_75
Time_Shift_2
Note_On_65_Vel_69
Time_Shift_98
Note_On_78_Vel_90
Time_Shift_4
Note_On_49_Vel_63
Note_On_66_Vel_79
Time_Shift_94
Note_On_80_Vel_84
Time_Shift_2
Note_On_68_Vel_73
Time_Shift_90
Note_On_70_Vel_0
Time_Shift_2
Note_On_82_Vel_97
Time_Shift_5
Note_On_70_Vel_88
Time_Shift_85
Note_On_57_Vel_0
Time_Shift_8
Note_On_54_Vel_0
Time_Shift_2
Note_On_83_Vel_99
Time_Shift_1
Note_On_57_Vel_70
Time_Shift_1
Note_On_71_Vel_92
Note_On_54_Vel_64
Note_On_47_Vel_68
Time_Shift_3
Note_On_59_Vel_69
Time_Shift_109
Note_On_85_Vel_97
Time_Shift_2
Note_On_73_Vel_96
Time_Shift_97
Note_On_75_Vel_0
Time_Shift_5
Note_On_87_Vel_102
Time_Shift_1
Note_On_75_Vel_98
Time_Shift_142
Sustain_Off
Time_Shift_36
Note_On_75_Vel_0
Note_On_87_Vel_0
Time_Shift_5
Note_On_87_Vel_93
Time_Shift_4
Note_On_75_Vel_96
Time_Shift_6
Note_On_58_Vel_0
Time_Shift_6
Note_On_58_Vel_73
Time_Shift_7
Note_On_46_Vel_72
Time_Shift_18
Note_On_85_Vel_0
Time_Shift_4
Note_On_85_Vel_43
Time_Shift_81
Sustain_On
Time_Shift_11
Note_On_56_Vel_0
Note_On_57_Vel_0
Note_On_58_Vel_0
Note_On_49_Vel_0
Note_On_80_Vel_0
Time_Shift_1
Note_On_82_Vel_0
Note_On_78_Vel_0
Note_On_59_Vel_0
Note_On_47_Vel_0
Note_On_51_Vel_0
Time_Shift_1
Note_On_73_Vel_0
Note_On_54_Vel_0
Note_On_83_Vel_0
Note_On_68_Vel_0
Note_On_77_Vel_0
Note_On_63_Vel_0
Note_On_70_Vel_0
Note_On_66_Vel_0
Note_On_65_Vel_0
Time_Shift_1
Note_On_71_Vel_0
Time_Shift_235
Note_On_53_Vel_60
Time_Shift_1
Note_On_56_Vel_64
Time_Shift_134
Note_On_85_Vel_0
Time_Shift_24
Note_On_59_Vel_72
Time_Shift_194
Sustain_Off
Time_Shift_1
Note_On_86_Vel_75
Time_Shift_3
Note_On_56_Vel_0
Time_Shift_4
Note_On_59_Vel_0
Note_On_74_Vel_62
Time_Shift_4
Note_On_46_Vel_0
Time_Shift_3
Note_On_56_Vel_50
Time_Shift_3
Note_On_58_Vel_62
Time_Shift_2
Note_On_53_Vel_0
Note_On_75_Vel_0
Note_On_87_Vel_0
Time_Shift_1
Note_On_46_Vel_57
Time_Shift_3
Note_On_53_Vel_49
Time_Shift_19
Sustain_On
Time_Shift_350
Note_On_58_Vel_0
Time_Shift_1
Note_On_46_Vel_0
Note_On_86_Vel_0
Note_On_56_Vel_0
Time_Shift_1
Sustain_Off
Note_On_53_Vel_0
Time_Shift_4
Note_On_74_Vel_0
Time_Shift_33
Note_On_75_Vel_80
Time_Shift_5
Note_On_63_Vel_83
Time_Shift_1
Note_On_58_Vel_66
Note_On_51_Vel_64
Time_Shift_1
Note_On_54_Vel_66
Time_Shift_18
Sustain_On
Time_Shift_225
Note_On_77_Vel_87
Time_Shift_2
Note_On_65_Vel_87
Time_Shift_97
Note_On_78_Vel_96
Time_Shift_3
Note_On_66_Vel_91
Time_Shift_1
Note_On_49_Vel_81
Time_Shift_95
Note_On_80_Vel_93
Time_Shift_2
Note_On_68_Vel_89
Time_Shift_96
Note_On_82_Vel_102
Time_Shift_4
Note_On_70_Vel_93
Time_Shift_82
Note_On_54_Vel_0
Time_Shift_4
Note_On_54_Vel_81
Time_Shift_1
Note_On_59_Vel_81
Time_Shift_1
Note_On_57_Vel_88
Time_Shift_4
Note_On_47_Vel_80
Time_Shift_8
Note_On_71_Vel_96
Note_On_83_Vel_96
Time_Shift_20
Note_On_80_Vel_0
Time_Shift_4
Note_On_80_Vel_50
Time_Shift_85
Note_On_85_Vel_104
Note_On_73_Vel_107
Time_Shift_96
Note_On_75_Vel_0
Time_Shift_9
Note_On_87_Vel_102
Time_Shift_1
Note_On_75_Vel_107
Time_Shift_174
Note_On_75_Vel_0
Note_On_87_Vel_0
Time_Shift_9
Note_On_87_Vel_104
Time_Shift_1
Note_On_75_Vel_103
Time_Shift_16
Note_On_46_Vel_95
Time_Shift_13
Note_On_85_Vel_0
Sustain_Off
Time_Shift_2
Note_On_65_Vel_0
Note_On_51_Vel_0
Time_Shift_1
Note_On_47_Vel_0
Note_On_49_Vel_0
Note_On_63_Vel_0
Note_On_82_Vel_0
Note_On_77_Vel_0
Note_On_73_Vel_0
Note_On_78_Vel_0
Time_Shift_1
Note_On_59_Vel_0
Note_On_83_Vel_0
Note_On_57_Vel_0
Note_On_54_Vel_0
Note_On_71_Vel_0
Note_On_80_Vel_0
Note_On_70_Vel_0
Note_On_58_Vel_0
Time_Shift_1
Note_On_66_Vel_0
Time_Shift_1
Note_On_85_Vel_32
Time_Shift_2
Note_On_68_Vel_0
Time_Shift_76
Sustain_On
Time_Shift_43
Sustain_Off
Time_Shift_11
Sustain_On
Time_Shift_172
Note_On_53_Vel_88
Time_Shift_1
Note_On_56_Vel_93
Time_Shift_148
Note_On_59_Vel_97
Time_Shift_193
Note_On_53_Vel_0
Time_Shift_3
Note_On_86_Vel_101
Time_Shift_1
Note_On_58_Vel_96
Time_Shift_1
Note_On_74_Vel_100
Time_Shift_3
Note_On_85_Vel_0
Time_Shift_1
Note_On_53_Vel_83
Time_Shift_294
Sustain_Off
Note_On_86_Vel_0
Time_Shift_1
Note_On_58_Vel_0
Note_On_46_Vel_0
Note_On_56_Vel_0
Note_On_74_Vel_0
Time_Shift_11
Note_On_75_Vel_0
Time_Shift_8
Note_On_53_Vel_0
Note_On_59_Vel_0
Note_On_87_Vel_0
Time_Shift_41
Note_On_78_Vel_113
Time_Shift_1
Note_On_90_Vel_107
Time_Shift_4
Note_On_82_Vel_100
Time_Shift_4
Note_On_87_Vel_94
Note_On_39_Vel_103
Time_Shift_1
Note_On_27_Vel_98
Time_Shift_3
Sustain_On
Time_Shift_250
Note_On_41_Vel_90
Time_Shift_4
Note_On_29_Vel_79
Time_Shift_91
Note_On_78_Vel_0
Note_On_87_Vel_0
Time_Shift_8
Note_On_82_Vel_0
Time_Shift_2
Note_On_75_Vel_101
Time_Shift_1
Note_On_78_Vel_98
Note_On_87_Vel_97
Time_Shift_2
Note_On_30_Vel_92
Time_Shift_2
Note_On_42_Vel_101
Time_Shift_1
Note_On_82_Vel_91
Time_Shift_110
Note_On_32_Vel_82
Time_Shift_1
Note_On_44_Vel_96
Time_Shift_102
Note_On_46_Vel_98
Time_Shift_1
Note_On_34_Vel_85
Time_Shift_108
Note_On_75_Vel_0
Note_On_78_Vel_0
Time_Shift_1
Note_On_83_Vel_107
Time_Shift_3
Note_On_47_Vel_103
Note_On_78_Vel_98
Note_On_71_Vel_101
Time_Shift_1
Note_On_35_Vel_80
Time_Shift_1
Note_On_75_Vel_93
Time_Shift_108
Note_On_49_Vel_105
Time_Shift_2
Note_On_37_Vel_96
Time_Shift_84
Note_On_39_Vel_0
Time_Shift_8
Note_On_51_Vel_109
Time_Shift_2
Note_On_39_Vel_100
Time_Shift_136
Note_On_71_Vel_0
Note_On_75_Vel_0
Note_On_83_Vel_0
Note_On_90_Vel_0
Time_Shift_4
Note_On_83_Vel_105
Time_Shift_3
Note_On_27_Vel_0
Time_Shift_1
Note_On_71_Vel_103
Note_On_80_Vel_95
Time_Shift_1
Sustain_Off
Note_On_75_Vel_102
Time_Shift_2
Note_On_34_Vel_0
Time_Shift_1
Note_On_41_Vel_0
Note_On_35_Vel_0
Note_On_32_Vel_0
Time_Shift_1
Note_On_87_Vel_0
Note_On_82_Vel_0
Note_On_42_Vel_0
Time_Shift_1
Note_On_47_Vel_0
Time_Shift_1
Note_On_37_Vel_0
Note_On_30_Vel_0
Time_Shift_1
Note_On_46_Vel_0
Note_On_44_Vel_0
Time_Shift_1
Note_On_51_Vel_0
Time_Shift_1
Note_On_49_Vel_0
Note_On_78_Vel_0
Time_Shift_5
Note_On_29_Vel_0
Time_Shift_184
Sustain_On
Time_Shift_230
Note_On_77_Vel_100
Time_Shift_344
Note_On_82_Vel_102
Time_Shift_1
Note_On_50_Vel_96
Time_Shift_1
Note_On_70_Vel_97
Time_Shift_3
Note_On_38_Vel_91
Time_Shift_135
Note_On_80_Vel_0
Time_Shift_9
Note_On_80_Vel_100
Time_Shift_168
Note_On_39_Vel_0
Note_On_70_Vel_0
Note_On_75_Vel_0
Time_Shift_1
Note_On_78_Vel_103
Time_Shift_2
Note_On_51_Vel_98
Time_Shift_2
Note_On_39_Vel_92
Time_Shift_1
Note_On_75_Vel_95
Time_Shift_4
Note_On_70_Vel_90
Time_Shift_24
Note_On_82_Vel_0
Time_Shift_4
Note_On_70_Vel_0
Time_Shift_1
Note_On_80_Vel_0
Time_Shift_1
Note_On_78_Vel_0
Time_Shift_1
Note_On_50_Vel_0
Time_Shift_1
Note_On_38_Vel_0
Note_On_51_Vel_0
Note_On_39_Vel_0
Time_Shift_4
Note_On_83_Vel_0
Time_Shift_6
Sustain_Off
Time_Shift_2
Note_On_71_Vel_0
Note_On_77_Vel_0
Time_Shift_15
Note_On_75_Vel_0
Time_Shift_183
Note_On_77_Vel_89
Time_Shift_4
Note_On_68_Vel_84
Note_On_71_Vel_84
Time_Shift_4
Note_On_56_Vel_78
Time_Shift_63
Note_On_56_Vel_0
Time_Shift_10
Note_On_70_Vel_97
Time_Shift_2
Note_On_66_Vel_78
Time_Shift_3
Note_On_68_Vel_0
Note_On_71_Vel_0
Time_Shift_2
Note_On_58_Vel_88
Time_Shift_6
Note_On_77_Vel_0
Time_Shift_107
Sustain_On
Time_Shift_238
Note_On_58_Vel_0
Time_Shift_10
Note_On_74_Vel_85
Time_Shift_1
Note_On_58_Vel_77
Time_Shift_1
Note_On_68_Vel_76
Time_Shift_2
Note_On_65_Vel_82
Time_Shift_1
Note_On_46_Vel_81
Time_Shift_20
Sustain_Off
Time_Shift_13
Note_On_66_Vel_0
Time_Shift_2
Note_On_65_Vel_0
Time_Shift_2
Note_On_68_Vel_0
Time_Shift_5
Note_On_74_Vel_0
Time_Shift_1
Note_On_70_Vel_0
Time_Shift_3
Note_On_46_Vel_0
Time_Shift_16
Note_On_58_Vel_0
Time_Shift_364
Note_On_51_Vel_86
Time_Shift_2
Note_On_75_Vel_84
Time_Shift_4
Note_On_66_Vel_70
Time_Shift_2
Note_On_63_Vel_81
Time_Shift_36
Note_On_66_Vel_0
Time_Shift_6
Note_On_63_Vel_0
Time_Shift_4
Note_On_51_Vel_0
Time_Shift_219
Note_On_75_Vel_0
Time_Shift_197
Note_On_39_Vel_61
Time_Shift_46
Note_On_39_Vel_0
Time_Shift_501
Note_On_73_Vel_65
Time_Shift_216
Sustain_On
Time_Shift_210
Note_On_85_Vel_78
Time_Shift_10
Note_On_82_Vel_64
Time_Shift_21
Note_On_42_Vel_52
Time_Shift_339
Note_On_66_Vel_56
Time_Shift_6
Note_On_58_Vel_60
Time_Shift_126
Note_On_84_Vel_87
Time_Shift_5
Note_On_81_Vel_72
Time_Shift_148
Note_On_87_Vel_89
Time_Shift_12
Note_On_83_Vel_78
Time_Shift_2
Note_On_61_Vel_72
Note_On_70_Vel_73
Time_Shift_128
Note_On_82_Vel_0
Note_On_85_Vel_0
Time_Shift_5
Note_On_85_Vel_93
Time_Shift_5
Note_On_82_Vel_83
Time_Shift_176
Note_On_42_Vel_0
Time_Shift_6
Note_On_73_Vel_0
Time_Shift_3
Note_On_87_Vel_0
Note_On_81_Vel_0
Note_On_83_Vel_0
Note_On_58_Vel_0
Note_On_61_Vel_0
Time_Shift_1
Note_On_84_Vel_0
Note_On_66_Vel_0
Note_On_85_Vel_0
Time_Shift_3
Note_On_73_Vel_76
Time_Shift_4
Sustain_Off
Time_Shift_12
Note_On_70_Vel_0
Time_Shift_4
Note_On_37_Vel_53
Note_On_70_Vel_45
Time_Shift_3
Note_On_82_Vel_0
Time_Shift_77
Sustain_On
Time_Shift_279
Note_On_83_Vel_82
Time_Shift_1
Note_On_80_Vel_69
Time_Shift_28
Note_On_65_Vel_60
Time_Shift_7
Note_On_56_Vel_52
Time_Shift_116
Note_On_82_Vel_78
Time_Shift_1
Note_On_85_Vel_84
Time_Shift_175
Note_On_83_Vel_0
Time_Shift_5
Note_On_83_Vel_78
Time_Shift_18
Note_On_80_Vel_0
Time_Shift_4
Note_On_61_Vel_54
Note_On_80_Vel_64
Time_Shift_4
Note_On_53_Vel_50
Time_Shift_261
Note_On_83_Vel_0
Time_Shift_8
Note_On_83_Vel_52
Time_Shift_107
Note_On_82_Vel_0
Time_Shift_4
Note_On_82_Vel_84
Time_Shift_3
Note_On_65_Vel_0
Note_On_53_Vel_0
Time_Shift_1
Note_On_61_Vel_0
Time_Shift_1
Note_On_56_Vel_0
Note_On_73_Vel_0
Note_On_80_Vel_0
Note_On_83_Vel_0
Note_On_85_Vel_0
Sustain_Off
Time_Shift_6
Note_On_37_Vel_0
Note_On_70_Vel_0
Time_Shift_12
Note_On_78_Vel_61
Time_Shift_8
Note_On_42_Vel_58
Time_Shift_65
Sustain_On
Time_Shift_250
Note_On_58_Vel_65
Time_Shift_1
Note_On_66_Vel_63
Time_Shift_125
Note_On_42_Vel_0
Time_Shift_10
Note_On_81_Vel_80
Time_Shift_24
Note_On_77_Vel_58
Time_Shift_133
Note_On_83_Vel_79
Time_Shift_2
Note_On_80_Vel_69
Time_Shift_20
Note_On_61_Vel_61
Time_Shift_8
Note_On_70_Vel_51
Time_Shift_118
Note_On_82_Vel_0
Time_Shift_11
Note_On_82_Vel_82
Time_Shift_12
Note_On_78_Vel_0
Time_Shift_4
Note_On_78_Vel_63
Time_Shift_196
Note_On_74_Vel_61
Time_Shift_9
Note_On_81_Vel_0
Time_Shift_1
Note_On_80_Vel_0
Note_On_78_Vel_0
Time_Shift_1
Note_On_61_Vel_0
Note_On_58_Vel_0
Note_On_77_Vel_0
Note_On_83_Vel_0
Note_On_70_Vel_0
Time_Shift_2
Sustain_Off
Time_Shift_17
Note_On_66_Vel_0
Time_Shift_8
Note_On_82_Vel_0
Time_Shift_3
Note_On_46_Vel_43
Time_Shift_89
Sustain_On
Time_Shift_266
Note_On_80_Vel_66
Time_Shift_7
Note_On_77_Vel_54
Time_Shift_41
Note_On_65_Vel_45
Time_Shift_20
Note_On_58_Vel_32
Time_Shift_98
Note_On_82_Vel_73
Time_Shift_1
Note_On_78_Vel_61
Time_Shift_197
Note_On_80_Vel_0
Time_Shift_11
Note_On_80_Vel_63
Time_Shift_20
Note_On_77_Vel_0
Time_Shift_4
Note_On_77_Vel_47
Note_On_70_Vel_46
Time_Shift_418
Note_On_78_Vel_0
Time_Shift_4
Note_On_78_Vel_69
Time_Shift_45
Note_On_75_Vel_35
Time_Shift_2
Note_On_51_Vel_44
Time_Shift_57
Note_On_46_Vel_0
Time_Shift_11
Note_On_65_Vel_0
Time_Shift_3
Note_On_58_Vel_0
Note_On_74_Vel_0
Time_Shift_1
Note_On_77_Vel_0
Time_Shift_2
Sustain_Off
Note_On_70_Vel_0
Time_Shift_2
Note_On_82_Vel_0
Time_Shift_19
Note_On_80_Vel_0
Time_Shift_100
Sustain_On
Time_Shift_115
Note_On_63_Vel_51
Time_Shift_2
Note_On_58_Vel_42
Time_Shift_25
Note_On_54_Vel_42
Time_Shift_121
Note_On_77_Vel_71
Time_Shift_2
Note_On_74_Vel_63
Time_Shift_149
Note_On_63_Vel_0
Time_Shift_3
Note_On_80_Vel_78
Time_Shift_3
Note_On_63_Vel_52
Time_Shift_2
Note_On_54_Vel_0
Time_Shift_5
Note_On_76_Vel_59
Time_Shift_4
Note_On_59_Vel_48
Time_Shift_3
Note_On_54_Vel_48
Time_Shift_126
Note_On_78_Vel_0
Time_Shift_7
Note_On_78_Vel_82
Time_Shift_1
Note_On_75_Vel_0
Time_Shift_4
Note_On_75_Vel_62
Time_Shift_168
Note_On_66_Vel_72
Time_Shift_9
Note_On_59_Vel_0
Note_On_58_Vel_0
Note_On_54_Vel_0
Note_On_74_Vel_0
Time_Shift_1
Note_On_63_Vel_0
Note_On_76_Vel_0
Note_On_51_Vel_0
Time_Shift_1
Note_On_78_Vel_0
Time_Shift_2
Note_On_77_Vel_0
Note_On_80_Vel_0
Time_Shift_3
Sustain_Off
Time_Shift_9
Note_On_46_Vel_54
Time_Shift_49
Sustain_On
Time_Shift_246
Note_On_76_Vel_77
Time_Shift_6
Note_On_61_Vel_66
Time_Shift_12
Note_On_54_Vel_59
Time_Shift_130
Note_On_63_Vel_78
Note_On_78_Vel_89
Time_Shift_151
Note_On_76_Vel_0
Time_Shift_6
Note_On_76_Vel_80
Time_Shift_2
Note_On_54_Vel_0
Note_On_61_Vel_0
Time_Shift_10
Note_On_61_Vel_77
Note_On_54_Vel_75
Time_Shift_312
Note_On_75_Vel_0
Time_Shift_5
Note_On_59_Vel_73
Note_On_75_Vel_81
Note_On_46_Vel_0
Note_On_47_Vel_71
Time_Shift_3
Note_On_61_Vel_0
Sustain_Off
Time_Shift_1
Note_On_63_Vel_0
Note_On_66_Vel_0
Time_Shift_1
Note_On_78_Vel_0
Note_On_76_Vel_0
Time_Shift_1
Note_On_54_Vel_0
Time_Shift_28
Note_On_59_Vel_0
Time_Shift_1
Note_On_47_Vel_0
Time_Shift_229
Note_On_75_Vel_0
Time_Shift_3
Note_On_59_Vel_69
Time_Shift_1
Note_On_67_Vel_78
Time_Shift_3
Note_On_75_Vel_65
Time_Shift_20
Note_On_67_Vel_0
Time_Shift_4
Note_On_75_Vel_0
Time_Shift_54
Note_On_59_Vel_0
Time_Shift_3
Note_On_75_Vel_85
Note_On_68_Vel_73
Time_Shift_1
Note_On_59_Vel_57
Time_Shift_27
Note_On_68_Vel_0
Time_Shift_4
Note_On_59_Vel_0
Time_Shift_1
Note_On_75_Vel_0
Time_Shift_357
Note_On_69_Vel_53
Time_Shift_1
Note_On_66_Vel_46
Time_Shift_1
Note_On_75_Vel_58
Note_On_59_Vel_55
Time_Shift_4
Sustain_On
Time_Shift_203
Note_On_65_Vel_44
Time_Shift_204
Note_On_74_Vel_55
Time_Shift_10
Note_On_58_Vel_46
Time_Shift_2
Note_On_70_Vel_44
Time_Shift_96
Note_On_75_Vel_0
Time_Shift_76
Sustain_Off
Time_Shift_134
Note_On_65_Vel_0
Time_Shift_8
Note_On_59_Vel_0
Time_Shift_4
Note_On_66_Vel_0
Time_Shift_29
Note_On_57_Vel_47
Time_Shift_86
Sustain_On
Time_Shift_223
Note_On_58_Vel_0
Time_Shift_109
Note_On_56_Vel_43
Time_Shift_440
Sustain_Off
Time_Shift_2
Note_On_75_Vel_49
Time_Shift_6
Note_On_63_Vel_53
Time_Shift_4
Note_On_69_Vel_0
Time_Shift_8
Sustain_On
Time_Shift_1
Note_On_54_Vel_47
Time_Shift_8
Note_On_66_Vel_36
Time_Shift_6
Note_On_51_Vel_44
Time_Shift_8
Note_On_57_Vel_0
Time_Shift_30
Note_On_74_Vel_0
Time_Shift_69
Note_On_66_Vel_0
Time_Shift_160
Note_On_77_Vel_71
Time_Shift_5
Note_On_65_Vel_69
Time_Shift_78
Note_On_49_Vel_60
Time_Shift_21
Note_On_78_Vel_86
Time_Shift_1
Note_On_66_Vel_80
Time_Shift_100
Note_On_80_Vel_86
Note_On_68_Vel_75
Time_Shift_102
Note_On_82_Vel_94
Time_Shift_2
Note_On_70_Vel_0
Time_Shift_7
Note_On_70_Vel_79
Time_Shift_85
Note_On_54_Vel_0
Time_Shift_4
Note_On_57_Vel_68
Note_On_47_Vel_64
Note_On_54_Vel_59
Time_Shift_2
Note_On_83_Vel_92
Time_Shift_1
Note_On_59_Vel_70
Time_Shift_4
Note_On_71_Vel_84
Time_Shift_100
Note_On_73_Vel_96
Note_On_85_Vel_96
Time_Shift_104
Note_On_75_Vel_0
Time_Shift_6
Note_On_87_Vel_91
Time_Shift_5
Note_On_75_Vel_80
Time_Shift_74
Note_On_83_Vel_0
Time_Shift_4
Note_On_83_Vel_67
Time_Shift_95
Note_On_87_Vel_0
Time_Shift_8
Note_On_75_Vel_0
Time_Shift_1
Note_On_87_Vel_92
Time_Shift_10
Note_On_75_Vel_76
Time_Shift_12
Note_On_85_Vel_0
Time_Shift_5
Note_On_46_Vel_64
Time_Shift_6
Note_On_85_Vel_61
Time_Shift_63
Note_On_78_Vel_0
Time_Shift_1
Note_On_54_Vel_0
Note_On_47_Vel_0
Note_On_80_Vel_0
Time_Shift_1
Note_On_56_Vel_0
Note_On_51_Vel_0
Note_On_77_Vel_0
Note_On_73_Vel_0
Time_Shift_2
Note_On_83_Vel_0
Sustain_Off
Note_On_66_Vel_0
Note_On_59_Vel_0
Note_On_63_Vel_0
Note_On_71_Vel_0
Note_On_65_Vel_0
Note_On_68_Vel_0
Time_Shift_1
Note_On_82_Vel_0
Time_Shift_1
Note_On_70_Vel_0
Time_Shift_12
Note_On_49_Vel_0
Time_Shift_8
Note_On_57_Vel_0
Time_Shift_69
Sustain_On
Time_Shift_192
Note_On_75_Vel_0
Time_Shift_5
Note_On_75_Vel_53
Time_Shift_4
Note_On_56_Vel_61
Time_Shift_3
Note_On_53_Vel_46
Note_On_72_Vel_52
Time_Shift_11
Note_On_72_Vel_0
Time_Shift_146
Note_On_59_Vel_67
Time_Shift_203
Note_On_86_Vel_74
Time_Shift_10
Note_On_74_Vel_59
Sustain_Off
Time_Shift_2
Note_On_53_Vel_0
Time_Shift_2
Note_On_75_Vel_0
Note_On_59_Vel_0
Time_Shift_1
Note_On_46_Vel_0
Time_Shift_2
Note_On_58_Vel_58
Time_Shift_2
Note_On_53_Vel_48
Time_Shift_8
Note_On_85_Vel_0
Note_On_87_Vel_0
Time_Shift_8
Sustain_On
Time_Shift_366
Sustain_Off
Time_Shift_3
Note_On_56_Vel_0
Time_Shift_7
Note_On_53_Vel_0
Note_On_58_Vel_0
Time_Shift_3
Note_On_75_Vel_78
Time_Shift_2
Note_On_63_Vel_81
Time_Shift_1
Note_On_58_Vel_67
Time_Shift_6
Note_On_51_Vel_61
Note_On_54_Vel_67
Time_Shift_27
Sustain_On
Time_Shift_223
Note_On_86_Vel_0
Time_Shift_3
Note_On_77_Vel_84
Time_Shift_1
Note_On_65_Vel_88
Time_Shift_100
Note_On_78_Vel_98
Time_Shift_3
Note_On_66_Vel_92
Time_Shift_1
Note_On_49_Vel_83
Time_Shift_97
Note_On_68_Vel_96
Time_Shift_1
Note_On_80_Vel_91
Time_Shift_1
Note_On_78_Vel_0
Time_Shift_11
Note_On_78_Vel_76
Time_Shift_83
Note_On_82_Vel_101
Time_Shift_1
Note_On_70_Vel_96
Time_Shift_89
Note_On_54_Vel_0
Time_Shift_4
Note_On_47_Vel_81
Time_Shift_1
Note_On_54_Vel_86
Note_On_57_Vel_92
Time_Shift_1
Note_On_83_Vel_91
Time_Shift_4
Note_On_71_Vel_93
Time_Shift_102
Note_On_73_Vel_105
Note_On_85_Vel_103
Time_Shift_103
Note_On_75_Vel_0
Time_Shift_6
Note_On_87_Vel_104
Time_Shift_2
Note_On_75_Vel_109
Time_Shift_161
Note_On_87_Vel_0
Time_Shift_8
Note_On_75_Vel_0
Time_Shift_3
Note_On_87_Vel_98
Time_Shift_1
Note_On_75_Vel_107
Time_Shift_15
Note_On_46_Vel_94
Time_Shift_126
Note_On_49_Vel_0
Note_On_47_Vel_0
Note_On_54_Vel_0
Time_Shift_1
Note_On_58_Vel_0
Note_On_74_Vel_0
Note_On_85_Vel_0
Note_On_80_Vel_0
Time_Shift_1
Note_On_71_Vel_0
Note_On_51_Vel_0
Note_On_73_Vel_0
Note_On_83_Vel_0
Time_Shift_1
Note_On_82_Vel_0
Sustain_Off
Note_On_57_Vel_0
Time_Shift_2
Note_On_70_Vel_0
Time_Shift_11
Note_On_68_Vel_0
Note_On_78_Vel_0
Time_Shift_8
Note_On_66_Vel_0
Note_On_77_Vel_0
Time_Shift_15
Note_On_65_Vel_0
Sustain_On
Time_Shift_123
Note_On_63_Vel_0
Time_Shift_18
Note_On_53_Vel_88
Time_Shift_1
Note_On_56_Vel_85
Time_Shift_154
Note_On_59_Vel_94
Time_Shift_181
Note_On_56_Vel_0
Sustain_Off
Time_Shift_3
Note_On_59_Vel_0
Time_Shift_4
Note_On_53_Vel_0
Note_On_87_Vel_0
Time_Shift_8
Note_On_75_Vel_0
Time_Shift_1
Note_On_86_Vel_100
Note_On_58_Vel_98
Note_On_74_Vel_102
Time_Shift_3
Note_On_53_Vel_87
Time_Shift_3
Sustain_On
Time_Shift_277
Note_On_46_Vel_0
Time_Shift_4
Sustain_Off
Time_Shift_1
Note_On_58_Vel_0
Note_On_86_Vel_0
Note_On_53_Vel_0
Note_On_74_Vel_0
Time_Shift_64
Sustain_On
Time_Shift_8
Note_On_90_Vel_108
Note_On_78_Vel_114
Time_Shift_3
Note_On_39_Vel_103
Note_On_27_Vel_100
Note_On_82_Vel_103
Time_Shift_1
Note_On_87_Vel_97
Time_Shift_254
Note_On_41_Vel_101
Time_Shift_4
Note_On_29_Vel_90
Time_Shift_99
Note_On_78_Vel_0
Note_On_82_Vel_0
Note_On_87_Vel_0
Time_Shift_3
Note_On_30_Vel_97
Time_Shift_1
Note_On_87_Vel_94
Note_On_75_Vel_101
Note_On_78_Vel_93
Time_Shift_1
Note_On_82_Vel_93
Note_On_42_Vel_103
Time_Shift_107
Note_On_44_Vel_100
Note_On_32_Vel_84
Time_Shift_100
Note_On_46_Vel_95
Time_Shift_1
Note_On_34_Vel_77
Time_Shift_102
Note_On_75_Vel_0
Note_On_78_Vel_0
Time_Shift_5
Note_On_83_Vel_104
Time_Shift_2
Note_On_78_Vel_104
Time_Shift_2
Note_On_75_Vel_99
Note_On_71_Vel_102
Time_Shift_1
Note_On_47_Vel_101
Time_Shift_1
Note_On_35_Vel_78
Time_Shift_104
Note_On_49_Vel_99
Time_Shift_2
Note_On_37_Vel_84
Time_Shift_98
Note_On_39_Vel_0
Note_On_49_Vel_0
Time_Shift_5
Note_On_51_Vel_108
Time_Shift_2
Note_On_42_Vel_0
Time_Shift_1
Note_On_39_Vel_98
Time_Shift_3
Note_On_49_Vel_93
Time_Shift_7
Note_On_42_Vel_75
Time_Shift_120
Note_On_39_Vel_0
Note_On_51_Vel_0
Note_On_71_Vel_0
Note_On_75_Vel_0
Note_On_83_Vel_0
Time_Shift_5
Note_On_51_Vel_107
Note_On_71_Vel_104
Note_On_83_Vel_104
Note_On_39_Vel_96
Time_Shift_2
Note_On_80_Vel_98
Time_Shift_1
Note_On_90_Vel_0
Time_Shift_2
Sustain_Off
Time_Shift_1
Note_On_75_Vel_98
Time_Shift_4
Note_On_29_Vel_0
Time_Shift_7
Note_On_30_Vel_0
Time_Shift_1
Note_On_35_Vel_0
Note_On_27_Vel_0
Note_On_34_Vel_0
Time_Shift_1
Note_On_47_Vel_0
Note_On_32_Vel_0
Time_Shift_1
Note_On_37_Vel_0
Note_On_87_Vel_0
Note_On_78_Vel_0
Time_Shift_1
Note_On_82_Vel_0
Note_On_41_Vel_0
Note_On_49_Vel_0
Note_On_42_Vel_0
Note_On_46_Vel_0
Time_Shift_5
Note_On_44_Vel_0
Time_Shift_284
Sustain_On
Time_Shift_144
Note_On_77_Vel_95
Time_Shift_359
Note_On_82_Vel_100
Time_Shift_6
Note_On_70_Vel_92
Time_Shift_9
Note_On_50_Vel_86
Time_Shift_1
Note_On_38_Vel_86
Time_Shift_134
Note_On_80_Vel_0
Time_Shift_6
Note_On_80_Vel_97
Time_Shift_162
Note_On_39_Vel_0
Note_On_51_Vel_0
Note_On_75_Vel_0
Time_Shift_6
Note_On_78_Vel_100
Time_Shift_1
Note_On_51_Vel_91
Time_Shift_1
Note_On_70_Vel_0
Time_Shift_2
Note_On_39_Vel_81
Time_Shift_1
Note_On_75_Vel_90
Time_Shift_1
Note_On_70_Vel_89
Time_Shift_13
Note_On_82_Vel_0
Time_Shift_1
Note_On_50_Vel_0
Time_Shift_3
Note_On_38_Vel_0
Time_Shift_2
Note_On_80_Vel_0
Note_On_83_Vel_0
Time_Shift_6
Sustain_Off
Time_Shift_10
Note_On_71_Vel_0
Note_On_77_Vel_0
Time_Shift_7
Note_On_39_Vel_0
Note_On_51_Vel_0
Note_On_75_Vel_0
Note_On_78_Vel_0
Time_Shift_8
Note_On_70_Vel_0
Time_Shift_196
Note_On_77_Vel_89
Time_Shift_1
Note_On_71_Vel_83
Time_Shift_11
Note_On_56_Vel_77
Time_Shift_62
Note_On_56_Vel_0
Time_Shift_6
Note_On_70_Vel_92
Time_Shift_3
Note_On_71_Vel_0
Time_Shift_2
Note_On_66_Vel_82
Time_Shift_15
Note_On_58_Vel_76
Time_Shift_65
Note_On_77_Vel_0
Time_Shift_169
Sustain_On
Time_Shift_61
Sustain_Off
Time_Shift_62
Note_On_58_Vel_0
Time_Shift_5
Note_On_58_Vel_76
Time_Shift_1
Note_On_74_Vel_85
Time_Shift_4
Note_On_46_Vel_76
Time_Shift_1
Note_On_68_Vel_81
Note_On_65_Vel_85
Time_Shift_31
Note_On_66_Vel_0
Note_On_68_Vel_0
Time_Shift_1
Note_On_70_Vel_0
Time_Shift_1
Note_On_65_Vel_0
Time_Shift_4
Note_On_74_Vel_0
Time_Shift_10
Note_On_46_Vel_0
Time_Shift_403
Note_On_58_Vel_0
Time_Shift_1
Note_On_51_Vel_86
Note_On_75_Vel_89
Time_Shift_3
Note_On_66_Vel_76
Note_On_63_Vel_88
Time_Shift_61
Note_On_63_Vel_0
Time_Shift_4
Note_On_66_Vel_0
Time_Shift_2
Note_On_51_Vel_0
Time_Shift_136
Note_On_75_Vel_0
Time_Shift_276
Note_On_39_Vel_67
Time_Shift_49
Note_On_39_Vel_0
Time_Shift_524
Note_On_46_Vel_71
Time_Shift_32
Note_On_46_Vel_0
Time_Shift_370
Note_On_51_Vel_80
Time_Shift_335
Note_On_50_Vel_69
Time_Shift_8
Note_On_51_Vel_0
Time_Shift_132
Note_On_48_Vel_69
Time_Shift_8
Note_On_50_Vel_0
Time_Shift_56
Note_On_48_Vel_0
Time_Shift_88
Note_On_46_Vel_76
Note_On_58_Vel_76
Time_Shift_33
Note_On_46_Vel_0
Time_Shift_2
Note_On_58_Vel_0
Time_Shift_285
Note_On_63_Vel_83
Time_Shift_3
Note_On_58_Vel_63
Time_Shift_1
Note_On_55_Vel_65
Time_Shift_25
Sustain_On
Time_Shift_267
Note_On_62_Vel_80
Time_Shift_5
Note_On_53_Vel_64
Note_On_56_Vel_66
Time_Shift_3
Sustain_Off
Time_Shift_32
Note_On_55_Vel_0
Time_Shift_9
Note_On_58_Vel_0
Time_Shift_4
Note_On_53_Vel_0
Time_Shift_1
Note_On_56_Vel_0
Time_Shift_2
Note_On_63_Vel_0
Time_Shift_73
Note_On_62_Vel_0
Time_Shift_4
Note_On_60_Vel_66
Time_Shift_3
Note_On_56_Vel_53
Time_Shift_51
Note_On_60_Vel_0
Time_Shift_8
Note_On_56_Vel_0
Time_Shift_102
Note_On_58_Vel_71
Time_Shift_1
Note_On_53_Vel_70
Time_Shift_1
Note_On_56_Vel_69
Time_Shift_29
Note_On_58_Vel_0
Time_Shift_3
Note_On_53_Vel_0
Time_Shift_1
Note_On_56_Vel_0
Time_Shift_264
Note_On_67_Vel_80
Time_Shift_1
Note_On_55_Vel_69
Time_Shift_1
Note_On_58_Vel_68
Time_Shift_4
Note_On_51_Vel_70
Time_Shift_30
Sustain_On
Time_Shift_261
Note_On_58_Vel_0
Time_Shift_3
Note_On_65_Vel_82
Time_Shift_2
Note_On_58_Vel_72
Time_Shift_5
Note_On_56_Vel_77
Time_Shift_16
Note_On_50_Vel_68
Time_Shift_1
Sustain_Off
Note_On_67_Vel_0
Note_On_55_Vel_0
Time_Shift_1
Note_On_51_Vel_0
Time_Shift_7
Note_On_58_Vel_0
Time_Shift_12
Note_On_56_Vel_0
Time_Shift_2
Note_On_65_Vel_0
Time_Shift_90
Note_On_48_Vel_71
Time_Shift_149
Note_On_65_Vel_74
Time_Shift_5
Note_On_56_Vel_66
Time_Shift_2
Note_On_46_Vel_69
Time_Shift_24
Note_On_48_Vel_0
Time_Shift_2
Note_On_56_Vel_0
Note_On_65_Vel_0
Time_Shift_1
Note_On_50_Vel_0
Time_Shift_10
Note_On_46_Vel_0
Time_Shift_274
Note_On_63_Vel_74
Time_Shift_3
Note_On_58_Vel_59
Time_Shift_1
Note_On_55_Vel_56
Time_Shift_2
Note_On_46_Vel_52
Time_Shift_10
Note_On_46_Vel_0
Time_Shift_38
Sustain_On
Time_Shift_254
Note_On_62_Vel_71
Sustain_Off
Time_Shift_3
Note_On_53_Vel_55
Note_On_56_Vel_61
Time_Shift_24
Note_On_55_Vel_0
Time_Shift_4
Note_On_58_Vel_0
Time_Shift_10
Note_On_53_Vel_0
Time_Shift_8
Note_On_63_Vel_0
Time_Shift_1
Note_On_56_Vel_0
Time_Shift_74
Note_On_60_Vel_67
Time_Shift_2
Note_On_62_Vel_0
Time_Shift_62
Note_On_60_Vel_0
Time_Shift_95
Note_On_53_Vel_61
Note_On_58_Vel_62
Time_Shift_3
Note_On_56_Vel_65
Time_Shift_26
Note_On_58_Vel_0
Time_Shift_1
Note_On_53_Vel_0
Time_Shift_2
Note_On_56_Vel_0
Time_Shift_258
Note_On_63_Vel_77
Time_Shift_2
Note_On_51_Vel_68
Time_Shift_1
Sustain_On
Time_Shift_2
Note_On_58_Vel_63
Note_On_39_Vel_64
Time_Shift_1
Note_On_55_Vel_61
Time_Shift_278
Note_On_50_Vel_74
Time_Shift_3
Note_On_58_Vel_0
Time_Shift_3
Note_On_38_Vel_71
Time_Shift_1
Note_On_65_Vel_75
Note_On_53_Vel_81
Note_On_58_Vel_70
Time_Shift_37
Sustain_Off
Time_Shift_3
Note_On_51_Vel_0
Time_Shift_1
Note_On_55_Vel_0
Time_Shift_1
Note_On_53_Vel_0
Note_On_58_Vel_0
Time_Shift_1
Note_On_63_Vel_0
Note_On_39_Vel_0
Time_Shift_1
Note_On_38_Vel_0
Time_Shift_1
Note_On_65_Vel_0
Time_Shift_5
Note_On_50_Vel_0
Time_Shift_74
Note_On_55_Vel_86
Note_On_58_Vel_80
Time_Shift_4
Note_On_49_Vel_81
Time_Shift_1
Note_On_67_Vel_81
Note_On_63_Vel_86
Time_Shift_3
Note_On_37_Vel_80
Time_Shift_23
Note_On_55_Vel_0
Time_Shift_1
Note_On_58_Vel_0
Time_Shift_3
Note_On_49_Vel_0
Time_Shift_1
Note_On_63_Vel_0
Time_Shift_9
Note_On_37_Vel_0
Time_Shift_11
Note_On_67_Vel_0
Time_Shift_74
Note_On_68_Vel_93
Time_Shift_5
Note_On_56_Vel_97
Time_Shift_1
Note_On_63_Vel_84
Time_Shift_1
Note_On_48_Vel_89
Time_Shift_2
Note_On_36_Vel_84
Time_Shift_17
Sustain_On
Time_Shift_237
Sustain_Off
Time_Shift_6
Note_On_36_Vel_0
Time_Shift_1
Note_On_68_Vel_0
Note_On_56_Vel_0
Time_Shift_1
Note_On_48_Vel_0
Time_Shift_16
Note_On_63_Vel_0
Time_Shift_4
Note_On_69_Vel_92
Time_Shift_3
Note_On_47_Vel_98
Note_On_57_Vel_95
Time_Shift_3
Note_On_66_Vel_93
Note_On_63_Vel_92
Time_Shift_1
Note_On_35_Vel_88
Time_Shift_43
Sustain_On
Time_Shift_238
Note_On_63_Vel_0
Time_Shift_6
Sustain_Off
Time_Shift_3
Note_On_58_Vel_93
Time_Shift_1
Note_On_70_Vel_97
Note_On_67_Vel_79
Time_Shift_1
Note_On_63_Vel_89
Note_On_47_Vel_0
Time_Shift_1
Note_On_46_Vel_83
Note_On_69_Vel_0
Time_Shift_1
Note_On_35_Vel_0
Time_Shift_1
Note_On_34_Vel_84
Time_Shift_1
Note_On_57_Vel_0
Time_Shift_3
Note_On_66_Vel_0
Time_Shift_22
Note_On_58_Vel_0
Time_Shift_4
Note_On_67_Vel_0
Time_Shift_3
Note_On_70_Vel_0
Time_Shift_7
Note_On_63_Vel_0
Time_Shift_7
Note_On_46_Vel_0
Time_Shift_16
Note_On_34_Vel_0
Time_Shift_54
Note_On_59_Vel_101
Time_Shift_2
Note_On_71_Vel_99
Time_Shift_1
Note_On_66_Vel_85
Note_On_63_Vel_90
Time_Shift_4
Note_On_45_Vel_92
Time_Shift_23
Note_On_59_Vel_0
Time_Shift_3
Note_On_63_Vel_0
Note_On_71_Vel_0
Time_Shift_2
Note_On_66_Vel_0
Time_Shift_26
Note_On_45_Vel_0
Time_Shift_73
Note_On_72_Vel_101
Time_Shift_1
Note_On_60_Vel_108
Time_Shift_1
Note_On_44_Vel_105
Note_On_32_Vel_95
Note_On_66_Vel_91
Time_Shift_3
Note_On_63_Vel_95
Time_Shift_29
Sustain_On
Time_Shift_173
Sustain_Off
Time_Shift_3
Note_On_72_Vel_0
Time_Shift_4
Note_On_63_Vel_0
Time_Shift_5
Note_On_44_Vel_0
Note_On_60_Vel_0
Time_Shift_7
Note_On_32_Vel_0
Note_On_66_Vel_0
Time_Shift_79
Note_On_60_Vel_102
Time_Shift_1
Note_On_43_Vel_102
Note_On_31_Vel_95
Note_On_72_Vel_103
Time_Shift_1
Note_On_67_Vel_97
Time_Shift_1
Note_On_63_Vel_98
Time_Shift_36
Note_On_43_Vel_0
Time_Shift_1
Note_On_31_Vel_0
Time_Shift_1
Note_On_60_Vel_0
Note_On_67_Vel_0
Time_Shift_1
Note_On_63_Vel_0
Time_Shift_25
Note_On_72_Vel_0
Time_Shift_268
Note_On_55_Vel_92
Time_Shift_1
Note_On_43_Vel_92
Time_Shift_2
Note_On_71_Vel_96
Time_Shift_1
Note_On_62_Vel_95
Time_Shift_1
Note_On_67_Vel_93
Time_Shift_24
Note_On_55_Vel_0
Note_On_67_Vel_0
Note_On_62_Vel_0
Time_Shift_1
Note_On_71_Vel_0
Time_Shift_5
Note_On_43_Vel_0
Time_Shift_681
Note_On_70_Vel_64
Time_Shift_3
Note_On_62_Vel_65
Note_On_55_Vel_49
Time_Shift_25
Note_On_62_Vel_0
Time_Shift_3
Note_On_55_Vel_0
Time_Shift_2
Note_On_70_Vel_0
Time_Shift_387
Note_On_62_Vel_60
Note_On_68_Vel_60
Time_Shift_6
Note_On_70_Vel_55
Time_Shift_7
Note_On_53_Vel_43
Time_Shift_17
Note_On_62_Vel_0
Time_Shift_4
Note_On_68_Vel_0
Time_Shift_2
Note_On_70_Vel_0
Time_Shift_4
Note_On_53_Vel_0
Time_Shift_429
Note_On_58_Vel_72
Time_Shift_412
Note_On_65_Vel_54
Time_Shift_7
Note_On_62_Vel_47
Time_Shift_66
Sustain_On
Time_Shift_261
Note_On_65_Vel_0
Time_Shift_12
Note_On_65_Vel_73
Time_Shift_16
Note_On_56_Vel_57
Time_Shift_2
Note_On_60_Vel_53
Time_Shift_115
Note_On_67_Vel_83
Time_Shift_13
Note_On_55_Vel_60
Time_Shift_144
Sustain_Off
Time_Shift_5
Note_On_60_Vel_0
Time_Shift_5
Note_On_68_Vel_78
Time_Shift_4
Note_On_58_Vel_0
Time_Shift_1
Note_On_65_Vel_0
Note_On_56_Vel_0
Time_Shift_1
Note_On_67_Vel_0
Note_On_60_Vel_61
Note_On_55_Vel_0
Note_On_62_Vel_0
Time_Shift_24
Note_On_53_Vel_48
Time_Shift_65
Sustain_On
Time_Shift_228
Sustain_Off
Time_Shift_9
Note_On_53_Vel_0
Time_Shift_6
Note_On_65_Vel_67
Note_On_60_Vel_0
Time_Shift_1
Note_On_68_Vel_0
Time_Shift_11
Note_On_62_Vel_52
Note_On_56_Vel_53
Time_Shift_1
Note_On_59_Vel_53
Time_Shift_52
Sustain_On
Time_Shift_255
Note_On_63_Vel_68
Time_Shift_14
Note_On_55_Vel_44
Time_Shift_2
Note_On_56_Vel_0
Time_Shift_1
Note_On_62_Vel_0
Sustain_Off
Note_On_59_Vel_0
Time_Shift_2
Note_On_65_Vel_0
Time_Shift_4
Note_On_58_Vel_49
Time_Shift_121
Note_On_65_Vel_58
Time_Shift_63
Note_On_63_Vel_0
Time_Shift_14
Note_On_55_Vel_0
Time_Shift_101
Note_On_65_Vel_0
Time_Shift_6
Note_On_58_Vel_0
Time_Shift_3
Note_On_67_Vel_57
Time_Shift_1
Note_On_55_Vel_41
Note_On_63_Vel_44
Time_Shift_1
Note_On_58_Vel_41
Time_Shift_72
Sustain_On
Time_Shift_104
Note_On_58_Vel_0
Time_Shift_145
Sustain_Off
Time_Shift_12
Note_On_63_Vel_0
Time_Shift_11
Note_On_63_Vel_72
Time_Shift_5
Note_On_60_Vel_50
Time_Shift_4
Note_On_56_Vel_53
Time_Shift_19
Note_On_55_Vel_0
Time_Shift_10
Note_On_67_Vel_0
Time_Shift_283
Note_On_58_Vel_66
Time_Shift_26
Note_On_55_Vel_58
Time_Shift_7
Note_On_56_Vel_0
Time_Shift_5
Note_On_60_Vel_0
Time_Shift_110
Note_On_56_Vel_66
Time_Shift_25
Note_On_53_Vel_55
Time_Shift_33
Note_On_55_Vel_0
Time_Shift_28
Note_On_58_Vel_0
Time_Shift_33
Note_On_63_Vel_0
Time_Shift_44
Note_On_56_Vel_0
Time_Shift_6
Note_On_53_Vel_0
Time_Shift_1
Note_On_55_Vel_63
Time_Shift_6
Note_On_63_Vel_74
Time_Shift_13
Note_On_58_Vel_48
Time_Shift_9
Note_On_51_Vel_65
Time_Shift_29
Note_On_58_Vel_0
Time_Shift_4
Note_On_51_Vel_0
Time_Shift_311
Note_On_55_Vel_0
Time_Shift_11
Note_On_58_Vel_53
Time_Shift_1
Note_On_53_Vel_49
Time_Shift_4
Note_On_46_Vel_53
Time_Shift_76
Sustain_On
Time_Shift_237
Note_On_62_Vel_60
Time_Shift_44
Note_On_63_Vel_0
Time_Shift_18
Sustain_Off
Time_Shift_62
Note_On_60_Vel_59
Time_Shift_9
Note_On_62_Vel_0
Time_Shift_98
Note_On_46_Vel_0
Time_Shift_28
Note_On_60_Vel_0
Time_Shift_18
Note_On_53_Vel_0
Time_Shift_8
Note_On_58_Vel_0
Time_Shift_3
Note_On_53_Vel_50
Time_Shift_1
Note_On_58_Vel_56
Note_On_34_Vel_55
Note_On_46_Vel_52
Time_Shift_1
Note_On_56_Vel_60
Time_Shift_30
Note_On_53_Vel_0
Time_Shift_6
Note_On_56_Vel_0
Time_Shift_9
Note_On_34_Vel_0
Note_On_46_Vel_0
Time_Shift_11
Note_On_58_Vel_0
Time_Shift_247
Note_On_39_Vel_67
Time_Shift_2
Note_On_67_Vel_66
Time_Shift_2
Note_On_51_Vel_66
Time_Shift_1
Note_On_63_Vel_60
Time_Shift_2
Note_On_55_Vel_60
Time_Shift_8
Note_On_51_Vel_0
Time_Shift_12
Note_On_67_Vel_0
Time_Shift_2
Note_On_39_Vel_0
Time_Shift_24
Note_On_55_Vel_0
Note_On_63_Vel_0
Time_Shift_259
Note_On_79_Vel_94
Time_Shift_4
Note_On_67_Vel_97
Time_Shift_1
Note_On_51_Vel_89
Note_On_63_Vel_96
Time_Shift_1
Note_On_75_Vel_93
Time_Shift_15
Note_On_67_Vel_0
Time_Shift_3
Note_On_63_Vel_0
Time_Shift_24
Note_On_51_Vel_0
Note_On_75_Vel_0
Note_On_79_Vel_0
Time_Shift_268
Note_On_51_Vel_82
Time_Shift_3
Note_On_39_Vel_69
Time_Shift_3
Note_On_67_Vel_69
Note_On_55_Vel_64
Time_Shift_2
Note_On_63_Vel_70
Time_Shift_21
Note_On_51_Vel_0
Time_Shift_4
Note_On_39_Vel_0
Time_Shift_5
Note_On_55_Vel_0
Time_Shift_17
Note_On_63_Vel_0
Note_On_67_Vel_0
Time_Shift_256
Note_On_47_Vel_81
Time_Shift_1
Note_On_55_Vel_80
Time_Shift_1
Note_On_63_Vel_82
Time_Shift_1
Note_On_59_Vel_71
Time_Shift_1
Note_On_67_Vel_74
Time_Shift_8
Note_On_59_Vel_0
Time_Shift_13
Note_On_47_Vel_0
Note_On_55_Vel_0
Time_Shift_4
Note_On_67_Vel_0
Time_Shift_22
Note_On_63_Vel_0
Time_Shift_249
Note_On_79_Vel_99
Time_Shift_1
Note_On_67_Vel_102
Time_Shift_1
Note_On_75_Vel_99
Time_Shift_1
Note_On_63_Vel_100
Time_Shift_4
Note_On_51_Vel_91
Time_Shift_17
Note_On_67_Vel_0
Time_Shift_1
Note_On_79_Vel_0
Time_Shift_5
Note_On_63_Vel_0
Note_On_75_Vel_0
Time_Shift_2
Note_On_51_Vel_0
Time_Shift_276
Note_On_55_Vel_87
Note_On_63_Vel_95
Note_On_60_Vel_80
Time_Shift_1
Note_On_67_Vel_91
Time_Shift_4
Note_On_48_Vel_90
Time_Shift_2
Note_On_36_Vel_79
Time_Shift_17
Note_On_55_Vel_0
Note_On_67_Vel_0
Time_Shift_1
Note_On_60_Vel_0
Time_Shift_1
Note_On_63_Vel_0
Time_Shift_2
Note_On_48_Vel_0
Time_Shift_22
Note_On_36_Vel_0
Time_Shift_274
Note_On_94_Vel_93
Time_Shift_8
Note_On_91_Vel_72
Time_Shift_6
Note_On_46_Vel_65
Time_Shift_1
Note_On_34_Vel_61
Time_Shift_25
Sustain_On
Time_Shift_57
Note_On_79_Vel_83
Time_Shift_1
Note_On_82_Vel_85
Time_Shift_88
Note_On_91_Vel_0
Time_Shift_4
Note_On_91_Vel_86
Time_Shift_1
Note_On_87_Vel_82
Time_Shift_103
Note_On_79_Vel_0
Time_Shift_10
Note_On_79_Vel_89
Time_Shift_5
Note_On_58_Vel_72
Time_Shift_1
Note_On_75_Vel_82
Time_Shift_1
Note_On_63_Vel_75
Time_Shift_1
Note_On_67_Vel_75
Time_Shift_9
Sustain_Off
Time_Shift_6
Note_On_46_Vel_0
Time_Shift_3
Note_On_34_Vel_0
Time_Shift_3
Note_On_87_Vel_0
Note_On_82_Vel_0
Time_Shift_2
Note_On_94_Vel_0
Time_Shift_1
Note_On_91_Vel_0
Time_Shift_1
Note_On_79_Vel_0
Time_Shift_10
Note_On_75_Vel_0
Time_Shift_269
Note_On_67_Vel_0
Time_Shift_24
Note_On_63_Vel_0
Time_Shift_11
Note_On_82_Vel_87
Time_Shift_6
Note_On_68_Vel_72
Time_Shift_1
Note_On_74_Vel_75
Time_Shift_2
Note_On_65_Vel_72
Time_Shift_27
Note_On_74_Vel_0
Time_Shift_4
Note_On_68_Vel_0
Time_Shift_5
Note_On_65_Vel_0
Time_Shift_28
Note_On_82_Vel_0
Time_Shift_358
Note_On_87_Vel_66
Time_Shift_4
Note_On_75_Vel_63
Time_Shift_2
Note_On_67_Vel_53
Time_Shift_2
Note_On_63_Vel_57
Time_Shift_18
Note_On_58_Vel_0
Time_Shift_5
Note_On_67_Vel_0
Time_Shift_33
Note_On_75_Vel_0
Time_Shift_39
Note_On_87_Vel_0
Time_Shift_284
Note_On_63_Vel_0
Time_Shift_64
Note_On_51_Vel_60
Time_Shift_34
Note_On_51_Vel_0
Time_Shift_296
Note_On_79_Vel_78
Time_Shift_6
Note_On_75_Vel_72
Time_Shift_22
Note_On_79_Vel_0
Time_Shift_23
Note_On_75_Vel_0
Time_Shift_243
Note_On_91_Vel_93
Time_Shift_2
Note_On_87_Vel_86
Time_Shift_24
Sustain_On
Time_Shift_82
Note_On_79_Vel_78
Time_Shift_2
Note_On_75_Vel_89
Time_Shift_77
Note_On_87_Vel_0
Time_Shift_6
Note_On_87_Vel_87
Time_Shift_3
Note_On_84_Vel_74
Time_Shift_99
Note_On_75_Vel_0
Time_Shift_6
Note_On_75_Vel_92
Time_Shift_2
Note_On_72_Vel_77
Time_Shift_12
Note_On_84_Vel_0
Time_Shift_3
Note_On_79_Vel_0
Time_Shift_3
Note_On_87_Vel_0
Note_On_91_Vel_0
Time_Shift_1
Sustain_Off
Time_Shift_27
Note_On_75_Vel_0
Time_Shift_7
Note_On_72_Vel_0
Time_Shift_258
Note_On_79_Vel_85
Time_Shift_3
Note_On_75_Vel_84
Time_Shift_5
Note_On_60_Vel_78
Time_Shift_6
Note_On_63_Vel_80
Time_Shift_18
Note_On_75_Vel_0
Time_Shift_2
Note_On_79_Vel_0
Time_Shift_6
Note_On_63_Vel_0
Time_Shift_17
Note_On_60_Vel_0
Time_Shift_249
Note_On_68_Vel_84
Time_Shift_9
Note_On_77_Vel_77
Note_On_65_Vel_78
Time_Shift_1
Note_On_80_Vel_79
Time_Shift_41
Sustain_On
Time_Shift_8
Note_On_65_Vel_0
Time_Shift_60
Note_On_53_Vel_78
Note_On_56_Vel_79
Time_Shift_96
Note_On_60_Vel_79
Note_On_65_Vel_84
Time_Shift_86
Note_On_80_Vel_0
Time_Shift_1
Note_On_56_Vel_0
Note_On_65_Vel_0
Time_Shift_3
Note_On_60_Vel_0
Sustain_Off
Time_Shift_3
Note_On_77_Vel_0
Time_Shift_4
Note_On_53_Vel_0
Note_On_68_Vel_0
Time_Shift_4
Note_On_48_Vel_77
Time_Shift_3
Note_On_53_Vel_72
Time_Shift_36
Note_On_48_Vel_0
Time_Shift_26
Note_On_53_Vel_0
Time_Shift_281
Note_On_56_Vel_80
Note_On_84_Vel_92
Time_Shift_1
Note_On_53_Vel_52
Time_Shift_1
Note_On_80_Vel_81
Time_Shift_5
Note_On_72_Vel_58
Time_Shift_27
Note_On_56_Vel_0
Time_Shift_5
Note_On_53_Vel_0
Time_Shift_41
Sustain_On
Time_Shift_169
Note_On_72_Vel_0
Time_Shift_65
Note_On_84_Vel_0
Time_Shift_2
Sustain_Off
Time_Shift_17
Note_On_80_Vel_0
Time_Shift_4
Note_On_89_Vel_95
Time_Shift_1
Note_On_86_Vel_86
Time_Shift_5
Note_On_53_Vel_82
Time_Shift_3
Note_On_46_Vel_69
Time_Shift_49
Sustain_On
Time_Shift_42
Note_On_77_Vel_87
Note_On_74_Vel_89
Time_Shift_81
Note_On_86_Vel_0
Time_Shift_10
Note_On_82_Vel_91
Note_On_86_Vel_90
Time_Shift_59
Note_On_77_Vel_0
Time_Shift_3
Note_On_74_Vel_0
Note_On_86_Vel_0
Note_On_89_Vel_0
Time_Shift_1
Note_On_82_Vel_0
Note_On_77_Vel_69
Time_Shift_2
Sustain_Off
Time_Shift_32
Note_On_77_Vel_0
Time_Shift_15
Note_On_70_Vel_78
Note_On_74_Vel_75
Time_Shift_54
Sustain_On
Time_Shift_70
Note_On_74_Vel_0
Time_Shift_184
Note_On_77_Vel_85
Time_Shift_11
Note_On_74_Vel_74
Time_Shift_1
Note_On_46_Vel_0
Note_On_70_Vel_0
Note_On_53_Vel_0
Time_Shift_1
Sustain_Off
Time_Shift_3
Note_On_62_Vel_72
Time_Shift_1
Note_On_58_Vel_65
Time_Shift_37
Note_On_77_Vel_0
Time_Shift_15
Note_On_74_Vel_0
Time_Shift_31
Sustain_On
Time_Shift_23
Note_On_62_Vel_0
Time_Shift_177
Note_On_58_Vel_0
Time_Shift_5
Sustain_Off
Time_Shift_6
Note_On_79_Vel_84
Note_On_67_Vel_77
Note_On_63_Vel_89
Time_Shift_31
Note_On_63_Vel_0
Time_Shift_19
Note_On_67_Vel_0
Time_Shift_31
Sustain_On
Time_Shift_27
Note_On_51_Vel_79
Time_Shift_11
Note_On_55_Vel_64
Time_Shift_82
Note_On_63_Vel_84
Note_On_58_Vel_82
Time_Shift_73
Note_On_58_Vel_0
Note_On_63_Vel_0
Note_On_55_Vel_0
Note_On_51_Vel_0
Time_Shift_1
Sustain_Off
Time_Shift_21
Note_On_79_Vel_0
Time_Shift_27
Note_On_51_Vel_79
Time_Shift_1
Note_On_46_Vel_71
Time_Shift_23
Note_On_46_Vel_0
Time_Shift_4
Note_On_51_Vel_0
Time_Shift_309
Note_On_82_Vel_90
Time_Shift_1
Note_On_51_Vel_73
Note_On_55_Vel_67
Time_Shift_5
Note_On_79_Vel_69
Time_Shift_4
Note_On_75_Vel_62
Time_Shift_24
Note_On_51_Vel_0
Time_Shift_2
Note_On_55_Vel_0
Time_Shift_122
Note_On_75_Vel_0
Time_Shift_61
Note_On_79_Vel_0
Time_Shift_102
Note_On_82_Vel_0
Time_Shift_23
Note_On_87_Vel_85
Time_Shift_6
Note_On_84_Vel_77
Time_Shift_5
Note_On_51_Vel_70
Time_Shift_1
Note_On_44_Vel_67
Time_Shift_2
Sustain_On
Time_Shift_90
Note_On_75_Vel_89
Time_Shift_6
Note_On_72_Vel_79
Time_Shift_88
Note_On_84_Vel_0
Time_Shift_4
Note_On_80_Vel_86
Time_Shift_2
Note_On_84_Vel_84
Time_Shift_55
Note_On_80_Vel_0
Time_Shift_1
Note_On_84_Vel_0
Note_On_87_Vel_0
Time_Shift_1
Note_On_72_Vel_0
Note_On_75_Vel_0
Time_Shift_2
Sustain_Off
Time_Shift_55
Note_On_68_Vel_80
Time_Shift_1
Note_On_72_Vel_75
Time_Shift_26
Note_On_68_Vel_0
Note_On_72_Vel_0
Time_Shift_288
Note_On_80_Vel_91
Time_Shift_5
Note_On_72_Vel_62
Time_Shift_1
Note_On_75_Vel_79
Time_Shift_4
Note_On_72_Vel_0
Time_Shift_14
Note_On_60_Vel_55
Time_Shift_8
Note_On_56_Vel_57
Note_On_80_Vel_0
Time_Shift_9
Note_On_51_Vel_0
Time_Shift_8
Note_On_44_Vel_0
Time_Shift_23
Note_On_75_Vel_0
Time_Shift_245
Note_On_56_Vel_0
Time_Shift_31
Note_On_74_Vel_76
Time_Shift_3
Note_On_72_Vel_75
Note_On_41_Vel_65
Time_Shift_1
Note_On_53_Vel_61
Time_Shift_12
Note_On_60_Vel_0
Time_Shift_7
Sustain_On
Time_Shift_73
Note_On_80_Vel_72
Time_Shift_2
Note_On_84_Vel_76
Time_Shift_87
Note_On_84_Vel_0
Time_Shift_9
Note_On_86_Vel_88
Time_Shift_2
Note_On_84_Vel_76
Time_Shift_42
Sustain_Off
Time_Shift_31
Note_On_74_Vel_0
Time_Shift_14
Note_On_96_Vel_96
Time_Shift_5
Note_On_92_Vel_94
Time_Shift_9
Note_On_86_Vel_0
Note_On_80_Vel_0
Time_Shift_18
Note_On_72_Vel_0
Time_Shift_23
Note_On_41_Vel_0
Time_Shift_8
Note_On_53_Vel_0
Time_Shift_253
Note_On_96_Vel_0
Time_Shift_10
Note_On_53_Vel_83
Note_On_41_Vel_75
Time_Shift_5
Note_On_74_Vel_70
Time_Shift_3
Note_On_72_Vel_71
Time_Shift_1
Note_On_65_Vel_62
Time_Shift_4
Note_On_65_Vel_0
Time_Shift_8
Note_On_84_Vel_0
Time_Shift_4
Note_On_53_Vel_0
Time_Shift_2
Note_On_41_Vel_0
Time_Shift_17
Note_On_92_Vel_0
Time_Shift_23
Note_On_72_Vel_0
Time_Shift_46
Note_On_74_Vel_0
Time_Shift_213
Note_On_72_Vel_83
Note_On_74_Vel_84
Time_Shift_3
Note_On_56_Vel_83
Time_Shift_2
Note_On_44_Vel_88
Time_Shift_13
Sustain_On
Time_Shift_74
Note_On_77_Vel_81
Time_Shift_1
Note_On_84_Vel_92
Time_Shift_93
Note_On_44_Vel_0
Note_On_77_Vel_0
Note_On_84_Vel_0
Time_Shift_5
Note_On_44_Vel_79
Note_On_86_Vel_100
Time_Shift_7
Note_On_84_Vel_88
Note_On_77_Vel_79
Time_Shift_55
Sustain_Off
Time_Shift_26
Note_On_74_Vel_0
Time_Shift_7
Sustain_On
Time_Shift_3
Note_On_96_Vel_107
Time_Shift_1
Note_On_89_Vel_95
Time_Shift_2
Note_On_77_Vel_0
Time_Shift_2
Note_On_72_Vel_0
Time_Shift_4
Note_On_86_Vel_0
Time_Shift_27
Note_On_84_Vel_0
Time_Shift_7
Note_On_56_Vel_0
Time_Shift_227
Sustain_Off
Time_Shift_4
Note_On_44_Vel_0
Time_Shift_7
Note_On_96_Vel_0
Time_Shift_16
Note_On_89_Vel_0
Time_Shift_34
Note_On_72_Vel_83
Time_Shift_1
Note_On_56_Vel_89
Note_On_74_Vel_84
Time_Shift_3
Note_On_44_Vel_88
Time_Shift_24
Note_On_74_Vel_0
Time_Shift_2
Note_On_72_Vel_0
Note_On_56_Vel_0
Time_Shift_2
Note_On_44_Vel_0
Time_Shift_304
Note_On_55_Vel_90
Time_Shift_2
Note_On_43_Vel_88
Note_On_74_Vel_87
Time_Shift_2
Note_On_71_Vel_81
Time_Shift_22
Note_On_55_Vel_0
Time_Shift_4
Note_On_43_Vel_0
Time_Shift_38
Note_On_71_Vel_0
Time_Shift_11
Note_On_74_Vel_0
Time_Shift_17
Note_On_83_Vel_91
Time_Shift_2
Note_On_79_Vel_79
Time_Shift_21
Note_On_83_Vel_0
Time_Shift_25
Note_On_79_Vel_0
Time_Shift_43
Note_On_86_Vel_99
Time_Shift_4
Note_On_83_Vel_88
Time_Shift_93
Note_On_95_Vel_108
Time_Shift_2
Note_On_91_Vel_95
Time_Shift_27
Sustain_On
Time_Shift_346
Note_On_83_Vel_0
Time_Shift_9
Sustain_Off
Time_Shift_37
Note_On_74_Vel_72
Time_Shift_11
Note_On_71_Vel_65
Time_Shift_8
Note_On_67_Vel_50
Time_Shift_35
Note_On_95_Vel_0
Time_Shift_54
Sustain_On
Time_Shift_61
Note_On_71_Vel_0
Time_Shift_11
Note_On_71_Vel_46
Time_Shift_43
Sustain_Off
Time_Shift_23
Note_On_86_Vel_0
Time_Shift_61
Sustain_On
Time_Shift_8
Note_On_91_Vel_0
Time_Shift_45
Sustain_Off
Time_Shift_9
Note_On_67_Vel_0
Note_On_74_Vel_0
Time_Shift_7
Note_On_74_Vel_66
Time_Shift_2
Note_On_67_Vel_59
Time_Shift_1
Note_On_70_Vel_72
Time_Shift_13
Note_On_71_Vel_0
Time_Shift_42
Note_On_70_Vel_0
Time_Shift_9
Note_On_74_Vel_0
Time_Shift_24
Note_On_82_Vel_82
Time_Shift_5
Note_On_79_Vel_64
Note_On_62_Vel_66
Time_Shift_40
Note_On_79_Vel_0
Time_Shift_12
Note_On_62_Vel_0
Time_Shift_2
Note_On_82_Vel_0
Time_Shift_35
Note_On_67_Vel_0
Time_Shift_4
Note_On_67_Vel_68
Note_On_74_Vel_80
Time_Shift_5
Note_On_70_Vel_77
Time_Shift_20
Note_On_67_Vel_0
Time_Shift_6
Note_On_74_Vel_0
Time_Shift_4
Note_On_70_Vel_0
Time_Shift_84
Note_On_73_Vel_88
Time_Shift_6
Note_On_70_Vel_70
Time_Shift_8
Note_On_64_Vel_56
Time_Shift_8
Note_On_67_Vel_50
Time_Shift_20
Note_On_73_Vel_0
Note_On_70_Vel_0
Time_Shift_19
Note_On_64_Vel_0
Time_Shift_8
Note_On_67_Vel_0
Time_Shift_270
Note_On_72_Vel_83
Time_Shift_10
Note_On_70_Vel_64
Time_Shift_4
Note_On_64_Vel_64
Time_Shift_31
Sustain_On
Time_Shift_291
Note_On_64_Vel_0
Sustain_Off
Note_On_72_Vel_0
Time_Shift_1
Note_On_70_Vel_0
Time_Shift_9
Note_On_72_Vel_75
Time_Shift_1
Note_On_69_Vel_67
Time_Shift_4
Note_On_65_Vel_57
Time_Shift_55
Sustain_On
Time_Shift_19
Note_On_81_Vel_82
Time_Shift_17
Note_On_77_Vel_60
Time_Shift_7
Note_On_60_Vel_62
Time_Shift_64
Note_On_72_Vel_0
Time_Shift_8
Note_On_65_Vel_0
Note_On_69_Vel_0
Time_Shift_2
Note_On_72_Vel_88
Time_Shift_2
Note_On_65_Vel_74
Time_Shift_3
Note_On_69_Vel_68
Time_Shift_41
Note_On_77_Vel_0
Time_Shift_2
Note_On_81_Vel_0
Note_On_72_Vel_0
Time_Shift_1
Note_On_69_Vel_0
Time_Shift_2
Sustain_Off
Time_Shift_3
Note_On_65_Vel_0
Note_On_60_Vel_0
Time_Shift_76
Note_On_68_Vel_73
Note_On_71_Vel_79
Time_Shift_15
Note_On_62_Vel_63
Time_Shift_25
Note_On_71_Vel_0
Time_Shift_1
Note_On_68_Vel_0
Time_Shift_2
Note_On_62_Vel_0
Time_Shift_305
Note_On_68_Vel_69
Time_Shift_1
Note_On_70_Vel_75
Time_Shift_7
Note_On_62_Vel_63
Time_Shift_34
Sustain_On
Time_Shift_274
Note_On_68_Vel_0
Time_Shift_2
Note_On_62_Vel_0
Time_Shift_2
Sustain_Off
Time_Shift_14
Note_On_70_Vel_0
Time_Shift_3
Note_On_63_Vel_66
Time_Shift_7
Note_On_70_Vel_68
Time_Shift_11
Note_On_67_Vel_55
Time_Shift_17
Sustain_On
Time_Shift_67
Note_On_79_Vel_79
Time_Shift_2
Note_On_75_Vel_74
Time_Shift_92
Note_On_79_Vel_0
Time_Shift_6
Note_On_82_Vel_91
Time_Shift_3
Note_On_79_Vel_79
Time_Shift_84
Note_On_91_Vel_100
Time_Shift_11
Note_On_87_Vel_78
Time_Shift_1
Note_On_70_Vel_0
Note_On_75_Vel_0
Time_Shift_1
Note_On_82_Vel_0
Time_Shift_1
Note_On_63_Vel_0
Time_Shift_2
Note_On_79_Vel_0
Time_Shift_3
Sustain_Off
Time_Shift_2
Note_On_51_Vel_65
Time_Shift_2
Note_On_67_Vel_0
Time_Shift_161
Sustain_On
Time_Shift_154
Note_On_91_Vel_0
Time_Shift_11
Note_On_91_Vel_102
Time_Shift_2
Note_On_85_Vel_91
Time_Shift_2
Note_On_51_Vel_0
Time_Shift_3
Note_On_79_Vel_92
Time_Shift_6
Note_On_51_Vel_74
Time_Shift_2
Note_On_39_Vel_67
Time_Shift_2
Sustain_Off
Time_Shift_33
Sustain_On
Time_Shift_15
Note_On_87_Vel_0
Time_Shift_245
Note_On_51_Vel_0
Time_Shift_1
Note_On_79_Vel_0
Note_On_85_Vel_0
Time_Shift_4
Note_On_39_Vel_0
Note_On_90_Vel_96
Time_Shift_2
Note_On_86_Vel_83
Sustain_Off
Time_Shift_14
Note_On_50_Vel_67
Time_Shift_1
Note_On_38_Vel_68
Time_Shift_2
Note_On_91_Vel_0
Time_Shift_46
Sustain_On
Time_Shift_19
Note_On_81_Vel_82
Time_Shift_1
Note_On_78_Vel_88
Time_Shift_3
Note_On_38_Vel_0
Time_Shift_108
Note_On_78_Vel_0
Time_Shift_8
Note_On_78_Vel_89
Time_Shift_7
Note_On_50_Vel_0
Time_Shift_9
Note_On_50_Vel_56
Time_Shift_10
Note_On_38_Vel_46
Time_Shift_63
Note_On_69_Vel_79
Time_Shift_8
Note_On_78_Vel_0
Time_Shift_1
Note_On_81_Vel_0
Time_Shift_1
Note_On_90_Vel_0
Time_Shift_1
Note_On_66_Vel_72
Time_Shift_12
Sustain_Off
Time_Shift_3
Note_On_50_Vel_0
Note_On_86_Vel_0
Time_Shift_3
Note_On_62_Vel_76
Time_Shift_7
Note_On_50_Vel_68
Time_Shift_5
Note_On_38_Vel_0
Time_Shift_31
Note_On_66_Vel_0
Time_Shift_7
Note_On_69_Vel_0
Time_Shift_16
Sustain_On
Time_Shift_256
Note_On_62_Vel_0
Time_Shift_2
Note_On_77_Vel_95
Note_On_50_Vel_0
Time_Shift_3
Sustain_Off
Time_Shift_2
Note_On_71_Vel_79
Time_Shift_2
Note_On_43_Vel_72
Note_On_55_Vel_69
Note_On_65_Vel_73
Time_Shift_65
Sustain_On
Time_Shift_239
Sustain_Off
Time_Shift_2
Note_On_43_Vel_0
Note_On_77_Vel_0
Note_On_65_Vel_0
Time_Shift_1
Note_On_71_Vel_0
Note_On_55_Vel_0
Time_Shift_9
Note_On_67_Vel_81
Time_Shift_2
Note_On_60_Vel_75
Time_Shift_3
Note_On_48_Vel_74
Time_Shift_2
Note_On_64_Vel_72
Time_Shift_19
Sustain_On
Time_Shift_66
Note_On_76_Vel_86
Time_Shift_6
Note_On_72_Vel_66
Time_Shift_81
Note_On_76_Vel_0
Time_Shift_7
Note_On_79_Vel_99
Time_Shift_2
Note_On_76_Vel_90
Time_Shift_71
Note_On_64_Vel_0
Note_On_48_Vel_0
Time_Shift_1
Note_On_60_Vel_0
Note_On_72_Vel_0
Note_On_76_Vel_0
Time_Shift_1
Note_On_67_Vel_0
Time_Shift_1
Sustain_Off
Time_Shift_5
Note_On_79_Vel_0
Time_Shift_13
Note_On_88_Vel_102
Time_Shift_4
Note_On_84_Vel_92
Time_Shift_6
Note_On_43_Vel_90
Note_On_55_Vel_90
Time_Shift_25
Note_On_55_Vel_0
Time_Shift_1
Note_On_84_Vel_0
Time_Shift_5
Note_On_88_Vel_0
Time_Shift_27
Note_On_43_Vel_0
Time_Shift_249
Note_On_77_Vel_97
Time_Shift_1
Note_On_87_Vel_97
Note_On_75_Vel_99
Note_On_84_Vel_90
Time_Shift_2
Note_On_57_Vel_91
Note_On_45_Vel_89
Time_Shift_25
Sustain_On
Time_Shift_261
Note_On_77_Vel_0
Time_Shift_11
Note_On_77_Vel_94
Time_Shift_3
Note_On_58_Vel_91
Time_Shift_3
Note_On_46_Vel_83
Note_On_74_Vel_87
Time_Shift_1
Note_On_45_Vel_0
Note_On_84_Vel_0
Time_Shift_1
Note_On_57_Vel_0
Note_On_87_Vel_0
Time_Shift_1
Note_On_75_Vel_0
Time_Shift_2
Sustain_Off
Time_Shift_47
Sustain_On
Time_Shift_27
Note_On_82_Vel_94
Time_Shift_1
Note_On_86_Vel_88
Time_Shift_87
Note_On_77_Vel_0
Note_On_86_Vel_0
Time_Shift_4
Note_On_77_Vel_83
Time_Shift_6
Note_On_89_Vel_109
Time_Shift_1
Note_On_86_Vel_94
Time_Shift_70
Sustain_Off
Time_Shift_11
Note_On_46_Vel_0
Time_Shift_18
Note_On_98_Vel_112
Time_Shift_2
Note_On_94_Vel_104
Note_On_53_Vel_89
Time_Shift_6
Note_On_41_Vel_84
Time_Shift_5
Note_On_58_Vel_0
Time_Shift_26
Note_On_89_Vel_0
Note_On_82_Vel_0
Time_Shift_1
Note_On_77_Vel_0
Time_Shift_1
Note_On_86_Vel_0
Time_Shift_1
Note_On_41_Vel_0
Note_On_53_Vel_0
Time_Shift_9
Note_On_74_Vel_0
Time_Shift_2
Note_On_98_Vel_0
Time_Shift_29
Note_On_94_Vel_0
Time_Shift_295
Note_On_86_Vel_102
Time_Shift_3
Note_On_81_Vel_94
Time_Shift_4
Note_On_84_Vel_96
Time_Shift_7
Note_On_74_Vel_92
Time_Shift_13
Note_On_42_Vel_73
Time_Shift_4
Note_On_54_Vel_82
Time_Shift_35
Sustain_On
Time_Shift_422
Note_On_86_Vel_0
Time_Shift_11
Note_On_86_Vel_93
Time_Shift_3
Note_On_83_Vel_87
Time_Shift_27
Note_On_43_Vel_64
Time_Shift_4
Note_On_55_Vel_59
Time_Shift_5
Sustain_Off
Note_On_42_Vel_0
Note_On_54_Vel_0
Time_Shift_1
Note_On_84_Vel_0
Time_Shift_1
Note_On_81_Vel_0
Time_Shift_2
Note_On_74_Vel_0
Time_Shift_85
Sustain_On
Time_Shift_21
Note_On_79_Vel_82
Time_Shift_3
Note_On_74_Vel_71
Time_Shift_106
Note_On_79_Vel_0
Note_On_83_Vel_0
Time_Shift_5
Note_On_83_Vel_84
Time_Shift_6
Note_On_79_Vel_66
Time_Shift_5
Note_On_74_Vel_0
Time_Shift_11
Note_On_74_Vel_56
Time_Shift_73
Note_On_74_Vel_0
Time_Shift_5
Note_On_74_Vel_72
Time_Shift_3
Note_On_71_Vel_75
Time_Shift_92
Note_On_74_Vel_0
Note_On_79_Vel_0
Time_Shift_6
Note_On_79_Vel_76
Time_Shift_1
Note_On_74_Vel_75
Time_Shift_93
Note_On_71_Vel_0
Note_On_74_Vel_0
Time_Shift_6
Note_On_71_Vel_73
Time_Shift_2
Note_On_67_Vel_65
Time_Shift_2
Note_On_74_Vel_66
Time_Shift_105
Note_On_71_Vel_0
Note_On_74_Vel_0
Time_Shift_7
Note_On_74_Vel_73
Time_Shift_2
Note_On_71_Vel_70
Time_Shift_2
Note_On_83_Vel_0
Time_Shift_4
Note_On_86_Vel_0
Time_Shift_43
Sustain_Off
Time_Shift_57
Note_On_67_Vel_0
Time_Shift_9
Note_On_67_Vel_49
Time_Shift_3
Note_On_62_Vel_71
Time_Shift_121
Note_On_71_Vel_0
Time_Shift_4
Note_On_72_Vel_73
Time_Shift_9
Note_On_67_Vel_0
Time_Shift_4
Note_On_69_Vel_54
Time_Shift_1
Note_On_67_Vel_44
Time_Shift_72
Note_On_79_Vel_0
Time_Shift_88
Note_On_71_Vel_65
Time_Shift_12
Note_On_67_Vel_0
Time_Shift_4
Note_On_72_Vel_0
Time_Shift_4
Note_On_67_Vel_45
Time_Shift_38
Note_On_69_Vel_0
Time_Shift_38
Note_On_74_Vel_0
Time_Shift_390
Note_On_70_Vel_55
Time_Shift_48
Sustain_On
Time_Shift_54
Note_On_71_Vel_0
Time_Shift_371
Sustain_Off
Time_Shift_4
Note_On_68_Vel_40
Time_Shift_8
Note_On_60_Vel_30
Time_Shift_5
Note_On_53_Vel_30
Note_On_41_Vel_41
Time_Shift_57
Note_On_43_Vel_0
Time_Shift_31
Note_On_55_Vel_0
Note_On_67_Vel_0
Time_Shift_38
Sustain_On
Time_Shift_442
Note_On_51_Vel_60
Note_On_39_Vel_58
Time_Shift_7
Note_On_63_Vel_57
Time_Shift_7
Sustain_Off
Time_Shift_9
Note_On_41_Vel_0
Time_Shift_11
Note_On_62_Vel_0
Time_Shift_8
Note_On_70_Vel_0
Time_Shift_38
Note_On_53_Vel_0
Time_Shift_8
Note_On_68_Vel_0
Time_Shift_62
Sustain_On
Time_Shift_23
Note_On_60_Vel_0
Time_Shift_173
Note_On_50_Vel_63
Note_On_38_Vel_63
Time_Shift_61
Note_On_39_Vel_0
Note_On_51_Vel_0
Time_Shift_1
Note_On_63_Vel_0
Time_Shift_4
Note_On_38_Vel_0
Time_Shift_3
Note_On_50_Vel_0
Time_Shift_1
Sustain_Off
Time_Shift_77
Note_On_48_Vel_64
Time_Shift_1
Note_On_36_Vel_62
Time_Shift_31
Note_On_48_Vel_0
Time_Shift_4
Note_On_36_Vel_0
Time_Shift_117
Note_On_34_Vel_71
Note_On_46_Vel_69
Note_On_58_Vel_67
Time_Shift_37
Note_On_46_Vel_0
Time_Shift_4
Note_On_34_Vel_0
Note_On_58_Vel_0
Time_Shift_288
Note_On_63_Vel_69
Time_Shift_3
Note_On_55_Vel_64
Time_Shift_4
Note_On_43_Vel_65
Time_Shift_1
Note_On_58_Vel_55
Time_Shift_57
Sustain_On
Time_Shift_214
Note_On_55_Vel_0
Time_Shift_3
Note_On_58_Vel_0
Time_Shift_1
Note_On_63_Vel_0
Time_Shift_1
Note_On_43_Vel_0
Time_Shift_1
Sustain_Off
Time_Shift_21
Note_On_53_Vel_66
Note_On_41_Vel_67
Time_Shift_2
Note_On_62_Vel_73
Time_Shift_6
Note_On_56_Vel_64
Time_Shift_25
Note_On_53_Vel_0
Time_Shift_7
Note_On_41_Vel_0
Time_Shift_2
Note_On_56_Vel_0
Time_Shift_93
Note_On_60_Vel_59
Time_Shift_16
Note_On_62_Vel_0
Time_Shift_20
Note_On_60_Vel_0
Time_Shift_114
Note_On_58_Vel_70
Time_Shift_4
Note_On_41_Vel_72
Time_Shift_3
Note_On_53_Vel_60
Note_On_56_Vel_67
Time_Shift_25
Note_On_58_Vel_0
Time_Shift_3
Note_On_41_Vel_0
Time_Shift_1
Note_On_53_Vel_0
Time_Shift_11
Note_On_56_Vel_0
Time_Shift_257
Sustain_On
Time_Shift_12
Note_On_67_Vel_74
Time_Shift_6
Note_On_58_Vel_64
Note_On_55_Vel_64
Time_Shift_2
Note_On_51_Vel_68
Note_On_39_Vel_66
Time_Shift_286
Note_On_65_Vel_73
Time_Shift_5
Note_On_38_Vel_66
Time_Shift_1
Note_On_56_Vel_73
Note_On_50_Vel_64
Time_Shift_5
Note_On_67_Vel_0
Time_Shift_2
Note_On_51_Vel_0
Note_On_55_Vel_0
Time_Shift_2
Sustain_Off
Time_Shift_3
Note_On_39_Vel_0
Time_Shift_2
Note_On_58_Vel_0
Time_Shift_16
Note_On_65_Vel_0
Time_Shift_2
Note_On_56_Vel_0
Time_Shift_2
Note_On_38_Vel_0
Time_Shift_2
Note_On_50_Vel_0
Time_Shift_93
Note_On_48_Vel_73
Note_On_36_Vel_69
Time_Shift_30
Note_On_48_Vel_0
Time_Shift_1
Note_On_36_Vel_0
Time_Shift_110
Note_On_65_Vel_76
Time_Shift_8
Note_On_46_Vel_73
Time_Shift_3
Note_On_34_Vel_69
Time_Shift_1
Note_On_56_Vel_66
Note_On_58_Vel_69
Time_Shift_23
Note_On_65_Vel_0
Time_Shift_5
Note_On_34_Vel_0
Time_Shift_2
Note_On_56_Vel_0
Time_Shift_13
Note_On_46_Vel_0
Note_On_58_Vel_0
Time_Shift_253
Note_On_63_Vel_69
Time_Shift_4
Note_On_55_Vel_61
Note_On_58_Vel_55
Time_Shift_7
Note_On_43_Vel_56
Time_Shift_59
Sustain_On
Time_Shift_216
Sustain_Off
Time_Shift_12
Note_On_53_Vel_56
Time_Shift_3
Note_On_41_Vel_62
Note_On_62_Vel_71
Time_Shift_3
Note_On_56_Vel_63
Time_Shift_1
Note_On_55_Vel_0
Time_Shift_14
Note_On_43_Vel_0
Time_Shift_2
Note_On_63_Vel_0
Time_Shift_4
Note_On_58_Vel_0
Time_Shift_17
Note_On_53_Vel_0
Time_Shift_2
Note_On_41_Vel_0
Note_On_56_Vel_0
Time_Shift_76
Note_On_62_Vel_0
Time_Shift_13
Note_On_60_Vel_60
Time_Shift_6
Note_On_56_Vel_43
Time_Shift_7
Note_On_56_Vel_0
Time_Shift_41
Note_On_60_Vel_0
Time_Shift_88
Note_On_41_Vel_70
Time_Shift_4
Note_On_58_Vel_68
Time_Shift_2
Note_On_53_Vel_57
Note_On_62_Vel_53
Time_Shift_2
Note_On_56_Vel_63
Time_Shift_31
Note_On_41_Vel_0
Time_Shift_1
Note_On_58_Vel_0
Time_Shift_1
Note_On_53_Vel_0
Time_Shift_4
Note_On_56_Vel_0
Time_Shift_26
Note_On_62_Vel_0
Time_Shift_229
Note_On_63_Vel_75
Time_Shift_6
Note_On_51_Vel_68
Note_On_58_Vel_58
Time_Shift_2
Note_On_39_Vel_64
Time_Shift_2
Note_On_55_Vel_54
Time_Shift_22
Sustain_On
Time_Shift_246
Note_On_58_Vel_0
Time_Shift_5
Note_On_50_Vel_75
Time_Shift_3
Note_On_38_Vel_72
Time_Shift_3
Note_On_58_Vel_76
Time_Shift_1
Note_On_53_Vel_78
Note_On_65_Vel_76
Time_Shift_3
Sustain_Off
Time_Shift_26
Note_On_51_Vel_0
Time_Shift_1
Note_On_55_Vel_0
Note_On_50_Vel_0
Time_Shift_4
Note_On_58_Vel_0
Time_Shift_2
Note_On_63_Vel_0
Note_On_38_Vel_0
Note_On_39_Vel_0
Time_Shift_2
Note_On_53_Vel_0
Note_On_65_Vel_0
Time_Shift_83
Note_On_58_Vel_83
Time_Shift_2
Note_On_67_Vel_83
Note_On_63_Vel_84
Time_Shift_7
Note_On_49_Vel_80
Note_On_37_Vel_84
Time_Shift_24
Note_On_58_Vel_0
Time_Shift_5
Note_On_49_Vel_0
Note_On_63_Vel_0
Time_Shift_1
Note_On_67_Vel_0
Time_Shift_14
Note_On_37_Vel_0
Time_Shift_86
Note_On_68_Vel_94
Time_Shift_2
Note_On_56_Vel_96
Time_Shift_1
Note_On_63_Vel_85
Time_Shift_1
Note_On_48_Vel_93
Time_Shift_3
Note_On_36_Vel_87
Time_Shift_51
Sustain_On
Time_Shift_203
Note_On_36_Vel_0
Sustain_Off
Time_Shift_1
Note_On_56_Vel_0
Note_On_68_Vel_0
Time_Shift_1
Note_On_48_Vel_0
Time_Shift_18
Note_On_63_Vel_0
Note_On_69_Vel_94
Time_Shift_4
Note_On_57_Vel_98
Time_Shift_1
Note_On_47_Vel_98
Time_Shift_2
Note_On_63_Vel_93
Time_Shift_1
Note_On_66_Vel_96
Time_Shift_1
Note_On_35_Vel_88
Time_Shift_52
Sustain_On
Time_Shift_223
Note_On_63_Vel_0
Time_Shift_3
Sustain_Off
Time_Shift_8
Note_On_46_Vel_96
Note_On_63_Vel_93
Note_On_58_Vel_98
Note_On_70_Vel_98
Time_Shift_1
Note_On_67_Vel_77
Note_On_34_Vel_89
Time_Shift_3
Note_On_47_Vel_0
Time_Shift_8
Note_On_57_Vel_0
Time_Shift_13
Note_On_66_Vel_0
Time_Shift_3
Note_On_69_Vel_0
Time_Shift_9
Note_On_46_Vel_0
Time_Shift_1
Note_On_58_Vel_0
Note_On_70_Vel_0
Time_Shift_1
Note_On_63_Vel_0
Time_Shift_1
Note_On_34_Vel_0
Time_Shift_3
Note_On_35_Vel_0
Time_Shift_1
Note_On_67_Vel_0
Time_Shift_78
Note_On_59_Vel_100
Time_Shift_1
Note_On_71_Vel_97
Note_On_66_Vel_87
Time_Shift_1
Note_On_45_Vel_92
Note_On_33_Vel_92
Time_Shift_1
Note_On_63_Vel_92
Time_Shift_38
Note_On_59_Vel_0
Time_Shift_2
Note_On_45_Vel_0
Time_Shift_4
Note_On_71_Vel_0
Note_On_33_Vel_0
Note_On_63_Vel_0
Time_Shift_1
Note_On_66_Vel_0
Time_Shift_84
Note_On_72_Vel_104
Note_On_44_Vel_105
Time_Shift_1
Note_On_60_Vel_108
Time_Shift_1
Note_On_32_Vel_92
Note_On_66_Vel_94
Time_Shift_2
Note_On_63_Vel_99
Time_Shift_30
Sustain_On
Time_Shift_175
Sustain_Off
Note_On_72_Vel_0
Time_Shift_3
Note_On_63_Vel_0
Time_Shift_7
Note_On_44_Vel_0
Note_On_60_Vel_0
Time_Shift_7
Note_On_32_Vel_0
Note_On_66_Vel_0
Time_Shift_83
Note_On_43_Vel_101
Note_On_31_Vel_93
Time_Shift_4
Note_On_60_Vel_101
Time_Shift_1
Note_On_72_Vel_101
Note_On_67_Vel_97
Time_Shift_1
Note_On_63_Vel_99
Time_Shift_37
Note_On_43_Vel_0
Time_Shift_3
Note_On_31_Vel_0
Time_Shift_4
Note_On_67_Vel_0
Time_Shift_1
Note_On_60_Vel_0
Time_Shift_1
Note_On_63_Vel_0
Time_Shift_3
Note_On_72_Vel_0
Time_Shift_271
Note_On_71_Vel_97
Note_On_43_Vel_94
Time_Shift_1
Note_On_62_Vel_97
Time_Shift_1
Note_On_67_Vel_96
Time_Shift_3
Note_On_31_Vel_82
Time_Shift_9
Note_On_31_Vel_0
Time_Shift_14
Note_On_62_Vel_0
Time_Shift_1
Note_On_67_Vel_0
Time_Shift_2
Note_On_71_Vel_0
Time_Shift_4
Note_On_43_Vel_0
Time_Shift_680
Note_On_70_Vel_67
Time_Shift_5
Note_On_62_Vel_61
Time_Shift_2
Note_On_55_Vel_47
Time_Shift_2
Note_On_67_Vel_45
Time_Shift_4
Note_On_67_Vel_0
Time_Shift_20
Note_On_62_Vel_0
Time_Shift_4
Note_On_70_Vel_0
Time_Shift_8
Note_On_55_Vel_0
Time_Shift_212
Note_On_71_Vel_41
Time_Shift_135
Note_On_68_Vel_48
Note_On_70_Vel_55
Time_Shift_20
Note_On_71_Vel_0
Time_Shift_2
Note_On_62_Vel_37
Time_Shift_10
Note_On_68_Vel_0
Note_On_70_Vel_0
Time_Shift_34
Note_On_62_Vel_0
Time_Shift_414
Note_On_58_Vel_65
Time_Shift_393
Sustain_On
Time_Shift_13
Note_On_65_Vel_49
Time_Shift_6
Note_On_62_Vel_49
Time_Shift_350
Note_On_65_Vel_0
Time_Shift_3
Note_On_65_Vel_62
Time_Shift_5
Note_On_60_Vel_56
Time_Shift_1
Note_On_56_Vel_56
Time_Shift_126
Note_On_67_Vel_80
Time_Shift_16
Note_On_55_Vel_56
Time_Shift_145
Sustain_Off
Time_Shift_8
Note_On_68_Vel_78
Time_Shift_3
Note_On_60_Vel_0
Time_Shift_1
Note_On_58_Vel_0
Time_Shift_1
Note_On_65_Vel_0
Note_On_62_Vel_0
Note_On_67_Vel_0
Time_Shift_1
Note_On_56_Vel_0
Note_On_55_Vel_0
Time_Shift_7
Note_On_60_Vel_50
Time_Shift_2
Note_On_53_Vel_52
Time_Shift_88
Sustain_On
Time_Shift_234
Note_On_65_Vel_68
Sustain_Off
Time_Shift_6
Note_On_62_Vel_54
Note_On_53_Vel_0
Note_On_60_Vel_0
Time_Shift_1
Note_On_56_Vel_59
Note_On_59_Vel_54
Time_Shift_1
Note_On_68_Vel_0
Time_Shift_72
Sustain_On
Time_Shift_235
Sustain_Off
Time_Shift_8
Note_On_55_Vel_48
Note_On_63_Vel_63
Time_Shift_4
Note_On_58_Vel_45
Time_Shift_5
Note_On_59_Vel_0
Time_Shift_5
Note_On_62_Vel_0
Time_Shift_1
Note_On_65_Vel_0
Time_Shift_19
Note_On_56_Vel_0
Time_Shift_104
Note_On_65_Vel_64
Time_Shift_38
Note_On_63_Vel_0
Time_Shift_119
Note_On_55_Vel_0
Time_Shift_8
Note_On_55_Vel_52
Note_On_58_Vel_0
Time_Shift_3
Note_On_63_Vel_42
Time_Shift_1
Note_On_67_Vel_53
Time_Shift_5
Note_On_58_Vel_42
Time_Shift_1
Note_On_65_Vel_0
Time_Shift_130
Note_On_58_Vel_0
Time_Shift_36
Note_On_63_Vel_0
Time_Shift_100
Note_On_55_Vel_0
Time_Shift_6
Note_On_67_Vel_0
Time_Shift_65
Note_On_63_Vel_62
Time_Shift_2
Note_On_56_Vel_59
Time_Shift_20
Note_On_60_Vel_51
Time_Shift_38
Sustain_On
Time_Shift_273
Note_On_58_Vel_57
Time_Shift_5
Note_On_55_Vel_52
Time_Shift_37
Sustain_Off
Time_Shift_84
Note_On_56_Vel_0
Time_Shift_9
Note_On_53_Vel_60
Time_Shift_1
Note_On_56_Vel_60
Time_Shift_69
Note_On_63_Vel_0
Time_Shift_44
Note_On_60_Vel_0
Time_Shift_15
Note_On_55_Vel_0
Time_Shift_3
Note_On_58_Vel_0
Time_Shift_24
Note_On_56_Vel_0
Note_On_53_Vel_0
Time_Shift_23
Note_On_63_Vel_73
Time_Shift_5
Note_On_51_Vel_57
Time_Shift_3
Note_On_55_Vel_47
Time_Shift_41
Note_On_51_Vel_0
Time_Shift_40
Note_On_55_Vel_0
Time_Shift_286
Note_On_53_Vel_41
Note_On_58_Vel_49
Time_Shift_2
Note_On_46_Vel_49
Time_Shift_65
Sustain_On
Time_Shift_279
Note_On_62_Vel_59
Time_Shift_90
Sustain_Off
Time_Shift_42
Note_On_60_Vel_56
Time_Shift_6
Note_On_62_Vel_0
Time_Shift_5
Note_On_63_Vel_0
Time_Shift_111
Note_On_60_Vel_0
Time_Shift_28
Note_On_46_Vel_0
Note_On_53_Vel_0
Note_On_58_Vel_0
Time_Shift_6
Note_On_58_Vel_54
Time_Shift_2
Note_On_53_Vel_47
Time_Shift_2
Note_On_46_Vel_53
Time_Shift_1
Note_On_34_Vel_53
Time_Shift_3
Note_On_56_Vel_54
Time_Shift_32
Note_On_58_Vel_0
Time_Shift_1
Note_On_53_Vel_0
Time_Shift_3
Note_On_56_Vel_0
Time_Shift_2
Note_On_46_Vel_0
Time_Shift_8
Note_On_34_Vel_0
Time_Shift_267
Note_On_39_Vel_65
Time_Shift_5
Note_On_67_Vel_66
Time_Shift_1
Note_On_51_Vel_64
Time_Shift_2
Note_On_63_Vel_58
Time_Shift_1
Note_On_55_Vel_51
Time_Shift_21
Note_On_51_Vel_0
Note_On_39_Vel_0
Time_Shift_19
Note_On_67_Vel_0
Time_Shift_8
Note_On_55_Vel_0
Note_On_63_Vel_0
Time_Shift_265
Note_On_79_Vel_94
Note_On_63_Vel_96
Time_Shift_1
Note_On_67_Vel_93
Time_Shift_1
Note_On_51_Vel_88
Time_Shift_1
Note_On_75_Vel_93
Time_Shift_20
Note_On_63_Vel_0
Note_On_79_Vel_0
Time_Shift_1
Note_On_75_Vel_0
Time_Shift_18
Note_On_67_Vel_0
Time_Shift_7
Note_On_51_Vel_0
Time_Shift_263
Note_On_63_Vel_83
Note_On_67_Vel_72
Time_Shift_1
Note_On_51_Vel_81
Note_On_55_Vel_70
Note_On_39_Vel_72
Time_Shift_24
Note_On_67_Vel_0
Time_Shift_1
Note_On_51_Vel_0
Time_Shift_2
Note_On_63_Vel_0
Time_Shift_2
Note_On_39_Vel_0
Time_Shift_1
Note_On_55_Vel_0
Time_Shift_270
Note_On_47_Vel_78
Time_Shift_3
Note_On_59_Vel_69
Time_Shift_3
Note_On_55_Vel_76
Time_Shift_1
Note_On_35_Vel_70
Time_Shift_2
Note_On_63_Vel_79
Time_Shift_1
Note_On_67_Vel_74
Time_Shift_18
Note_On_47_Vel_0
Note_On_59_Vel_0
Time_Shift_3
Note_On_55_Vel_0
Time_Shift_1
Note_On_67_Vel_0
Time_Shift_2
Note_On_63_Vel_0
Time_Shift_3
Note_On_35_Vel_0
Time_Shift_285
Note_On_63_Vel_101
Time_Shift_1
Note_On_67_Vel_97
Note_On_79_Vel_97
Note_On_51_Vel_96
Time_Shift_1
Note_On_75_Vel_97
Time_Shift_20
Note_On_67_Vel_0
Time_Shift_3
Note_On_63_Vel_0
Time_Shift_1
Note_On_51_Vel_0
Time_Shift_1
Note_On_75_Vel_0
Time_Shift_17
Note_On_79_Vel_0
Time_Shift_264
Note_On_55_Vel_91
Time_Shift_1
Note_On_67_Vel_86
Time_Shift_1
Note_On_63_Vel_90
Time_Shift_1
Note_On_60_Vel_77
Time_Shift_1
Note_On_48_Vel_92
Time_Shift_3
Note_On_36_Vel_82
Time_Shift_17
Note_On_55_Vel_0
Note_On_67_Vel_0
Time_Shift_2
Note_On_48_Vel_0
Time_Shift_4
Note_On_63_Vel_0
Time_Shift_21
Note_On_36_Vel_0
Note_On_60_Vel_0
Time_Shift_292
Note_On_94_Vel_94
Time_Shift_14
Note_On_91_Vel_66
Time_Shift_3
Note_On_46_Vel_62
Time_Shift_1
Note_On_34_Vel_60
Time_Shift_20
Sustain_On
Time_Shift_61
Note_On_82_Vel_87
Time_Shift_1
Note_On_79_Vel_73
Time_Shift_84
Note_On_91_Vel_0
Time_Shift_7
Note_On_91_Vel_88
Time_Shift_3
Note_On_87_Vel_78
Time_Shift_113
Note_On_79_Vel_0
Time_Shift_8
Note_On_79_Vel_77
Time_Shift_4
Note_On_75_Vel_79
Time_Shift_2
Note_On_67_Vel_71
Time_Shift_1
Note_On_58_Vel_69
Time_Shift_6
Note_On_63_Vel_69
Time_Shift_23
Note_On_46_Vel_0
Time_Shift_1
Note_On_79_Vel_0
Note_On_87_Vel_0
Time_Shift_1
Note_On_82_Vel_0
Note_On_91_Vel_0
Time_Shift_1
Note_On_94_Vel_0
Time_Shift_1
Sustain_Off
Time_Shift_5
Note_On_34_Vel_0
Time_Shift_23
Note_On_67_Vel_0
Time_Shift_8
Note_On_75_Vel_0
Time_Shift_223
Note_On_63_Vel_0
Time_Shift_50
Note_On_82_Vel_80
Time_Shift_7
Note_On_74_Vel_64
Time_Shift_4
Note_On_68_Vel_56
Time_Shift_3
Note_On_65_Vel_58
Time_Shift_24
Note_On_65_Vel_0
Time_Shift_19
Note_On_82_Vel_0
Time_Shift_8
Note_On_74_Vel_0
Time_Shift_15
Note_On_68_Vel_0
Time_Shift_365
Note_On_87_Vel_55
Time_Shift_2
Note_On_75_Vel_55
Time_Shift_2
Note_On_58_Vel_0
Note_On_63_Vel_54
Time_Shift_223
Note_On_63_Vel_0
Time_Shift_84
Note_On_75_Vel_0
Time_Shift_108
Note_On_87_Vel_0
Time_Shift_181
Note_On_51_Vel_37
Time_Shift_105
Note_On_51_Vel_0
Time_Shift_4130
Sustain_On
Time_Shift_1208
Note_On_60_Vel_45
Time_Shift_24
Note_On_51_Vel_34
Time_Shift_1
Note_On_56_Vel_30
Time_Shift_1
Note_On_44_Vel_34
Time_Shift_709
Note_On_60_Vel_0
Time_Shift_10
Note_On_60_Vel_63
Time_Shift_13
Note_On_51_Vel_0
Note_On_56_Vel_0
Time_Shift_5
Note_On_51_Vel_43
Time_Shift_1
Note_On_56_Vel_50
Time_Shift_1
Note_On_44_Vel_0
Time_Shift_6
Note_On_44_Vel_46
Time_Shift_815
Note_On_59_Vel_67
Time_Shift_1
Note_On_56_Vel_0
Time_Shift_8
Note_On_44_Vel_0
Time_Shift_1
Note_On_56_Vel_47
Time_Shift_2
Note_On_53_Vel_43
Time_Shift_1
Note_On_50_Vel_45
Time_Shift_3
Note_On_44_Vel_41
Time_Shift_188
Sustain_Off
Time_Shift_1
Note_On_51_Vel_0
Note_On_60_Vel_0
Time_Shift_157
Sustain_On
Time_Shift_525
Note_On_60_Vel_50
Time_Shift_28
Note_On_44_Vel_0
Time_Shift_3
Note_On_51_Vel_38
Time_Shift_2
Note_On_44_Vel_26
Time_Shift_83
Note_On_50_Vel_0
Time_Shift_1
Note_On_53_Vel_0
Time_Shift_3
Note_On_59_Vel_0
Time_Shift_4
Sustain_Off
Time_Shift_135
Sustain_On
Time_Shift_622
Note_On_60_Vel_0
Time_Shift_4
Note_On_60_Vel_35
Time_Shift_3
Note_On_44_Vel_0
Note_On_56_Vel_0
Time_Shift_6
Note_On_44_Vel_42
Time_Shift_2
Note_On_51_Vel_0
Time_Shift_3
Note_On_56_Vel_34
Time_Shift_8
Note_On_51_Vel_30
Time_Shift_104
Sustain_Off
Time_Shift_100
Sustain_On
Time_Shift_691
Note_On_60_Vel_0
Time_Shift_10
Note_On_60_Vel_53
Time_Shift_21
Note_On_51_Vel_0
Note_On_56_Vel_0
Time_Shift_4
Note_On_51_Vel_40
Time_Shift_5
Note_On_56_Vel_36
Time_Shift_14
Note_On_44_Vel_0
Time_Shift_4
Note_On_32_Vel_35
Time_Shift_2
Note_On_44_Vel_42
Time_Shift_22
Sustain_Off
Time_Shift_133
Sustain_On
Time_Shift_576
Note_On_60_Vel_0
Time_Shift_9
Note_On_60_Vel_65
Time_Shift_14
Note_On_32_Vel_0
Note_On_51_Vel_0
Note_On_56_Vel_0
Time_Shift_4
Note_On_56_Vel_51
Time_Shift_4
Note_On_32_Vel_39
Time_Shift_2
Note_On_51_Vel_52
Time_Shift_790
Note_On_59_Vel_71
Time_Shift_26
Note_On_50_Vel_46
Time_Shift_4
Note_On_56_Vel_0
Time_Shift_4
Note_On_56_Vel_61
Time_Shift_1
Note_On_53_Vel_49
Time_Shift_170
Sustain_Off
Time_Shift_3
Note_On_51_Vel_0
Time_Shift_29
Note_On_60_Vel_0
Time_Shift_169
Sustain_On
Time_Shift_516
Note_On_60_Vel_56
Time_Shift_22
Note_On_44_Vel_0
Time_Shift_10
Note_On_44_Vel_38
Time_Shift_1
Note_On_51_Vel_43
Time_Shift_9
Note_On_53_Vel_0
Sustain_Off
Time_Shift_1
Note_On_50_Vel_0
Time_Shift_5
Note_On_59_Vel_0
Time_Shift_196
Sustain_On
Time_Shift_669
Note_On_60_Vel_0
Time_Shift_6
Note_On_60_Vel_48
Time_Shift_1
Note_On_51_Vel_0
Time_Shift_1
Sustain_Off
Time_Shift_9
Note_On_51_Vel_25
Time_Shift_6
Note_On_44_Vel_0
Time_Shift_10
Note_On_44_Vel_29
Time_Shift_197
Sustain_On
Time_Shift_653
Note_On_60_Vel_0
Time_Shift_8
Note_On_60_Vel_59
Time_Shift_22
Note_On_44_Vel_0
Note_On_51_Vel_0
Note_On_56_Vel_0
Time_Shift_5
Note_On_56_Vel_39
Time_Shift_1
Note_On_44_Vel_41
Time_Shift_4
Note_On_51_Vel_31
Time_Shift_37
Sustain_Off
Time_Shift_84
Sustain_On
Time_Shift_632
Note_On_63_Vel_73
Time_Shift_13
Note_On_60_Vel_0
Time_Shift_10
Note_On_60_Vel_51
Time_Shift_13
Note_On_56_Vel_0
Time_Shift_7
Note_On_56_Vel_42
Time_Shift_1
Note_On_44_Vel_0
Note_On_51_Vel_0
Time_Shift_6
Note_On_51_Vel_44
Time_Shift_1
Note_On_44_Vel_38
Time_Shift_254
Note_On_32_Vel_0
Time_Shift_478
Note_On_68_Vel_79
Time_Shift_14
Note_On_60_Vel_0
Note_On_63_Vel_0
Time_Shift_9
Note_On_60_Vel_53
Note_On_63_Vel_59
Time_Shift_14
Note_On_44_Vel_0
Note_On_51_Vel_0
Note_On_56_Vel_0
Time_Shift_4
Note_On_56_Vel_45
Time_Shift_1
Note_On_44_Vel_47
Time_Shift_4
Note_On_51_Vel_47
Time_Shift_782
Note_On_72_Vel_81
Time_Shift_23
Note_On_63_Vel_0
Time_Shift_7
Note_On_63_Vel_68
Time_Shift_31
Note_On_44_Vel_0
Note_On_56_Vel_0
Time_Shift_4
Note_On_56_Vel_40
Time_Shift_1
Note_On_48_Vel_46
Time_Shift_5
Note_On_44_Vel_42
Time_Shift_123
Note_On_51_Vel_0
Note_On_68_Vel_0
Time_Shift_3
Sustain_Off
Time_Shift_10
Note_On_60_Vel_0
Time_Shift_131
Sustain_On
Time_Shift_607
Note_On_70_Vel_64
Time_Shift_12
Note_On_65_Vel_48
Time_Shift_18
Note_On_44_Vel_0
Time_Shift_4
Note_On_44_Vel_25
Time_Shift_1
Note_On_49_Vel_34
Time_Shift_54
Sustain_Off
Time_Shift_16
Note_On_72_Vel_0
Time_Shift_17
Note_On_48_Vel_0
Time_Shift_15
Note_On_63_Vel_0
Time_Shift_208
Sustain_On
Time_Shift_729
Note_On_70_Vel_0
Time_Shift_12
Note_On_70_Vel_47
Time_Shift_30
Note_On_63_Vel_39
Note_On_61_Vel_43
Time_Shift_45
Note_On_55_Vel_18
Time_Shift_2
Note_On_51_Vel_35
Time_Shift_4
Note_On_55_Vel_0
Time_Shift_27
Sustain_Off
Time_Shift_26
Note_On_65_Vel_0
Time_Shift_8
Note_On_56_Vel_0
Time_Shift_31
Note_On_49_Vel_0
Time_Shift_161
Sustain_On
Time_Shift_918
Note_On_68_Vel_41
Time_Shift_15
Note_On_60_Vel_23
Time_Shift_19
Note_On_44_Vel_0
Note_On_63_Vel_0
Time_Shift_2
Note_On_56_Vel_28
Time_Shift_4
Note_On_63_Vel_19
Time_Shift_3
Note_On_44_Vel_27
Time_Shift_186
Sustain_Off
Time_Shift_2
Note_On_51_Vel_0
Time_Shift_2
Note_On_61_Vel_0
Time_Shift_2
Note_On_70_Vel_0
Time_Shift_406
Sustain_On
Time_Shift_814
Sustain_Off
Time_Shift_39
Note_On_63_Vel_0
Time_Shift_23
Note_On_56_Vel_0
Time_Shift_7
Note_On_60_Vel_0
Time_Shift_8
Note_On_44_Vel_0
Time_Shift_131
Note_On_68_Vel_0
Time_Shift_284
Sustain_On
Time_Shift_104
Note_On_63_Vel_50
Time_Shift_664
Note_On_63_Vel_0
Time_Shift_206
Note_On_63_Vel_42
Time_Shift_1043
Note_On_60_Vel_38
Time_Shift_244
Sustain_Off
Time_Shift_4
Sustain_On
Time_Shift_158
Note_On_68_Vel_54
Time_Shift_326
Note_On_63_Vel_0
Time_Shift_4
Note_On_63_Vel_57
Time_Shift_299
Note_On_72_Vel_65
Time_Shift_312
Note_On_68_Vel_0
Time_Shift_9
Note_On_68_Vel_63
Time_Shift_328
Note_On_75_Vel_67
Time_Shift_315
Note_On_72_Vel_0
Time_Shift_4
Note_On_72_Vel_65
Time_Shift_38
Note_On_51_Vel_50
Time_Shift_266
Note_On_75_Vel_0
Time_Shift_9
Note_On_75_Vel_77
Time_Shift_345
Note_On_82_Vel_86
Time_Shift_22
Note_On_51_Vel_0
Time_Shift_4
Note_On_51_Vel_52
Time_Shift_386
Note_On_80_Vel_86
Time_Shift_516
Note_On_75_Vel_0
Time_Shift_11
Note_On_75_Vel_46
Time_Shift_6
Note_On_73_Vel_54
Time_Shift_40
Note_On_39_Vel_38
Time_Shift_234
Note_On_68_Vel_0
Time_Shift_2
Sustain_Off
Note_On_72_Vel_0
Time_Shift_1
Note_On_63_Vel_0
Note_On_82_Vel_0
Note_On_60_Vel_0
Time_Shift_113
Sustain_On
Time_Shift_29
Note_On_46_Vel_47
Time_Shift_314
Note_On_79_Vel_78
Time_Shift_18
Note_On_51_Vel_0
Time_Shift_10
Note_On_51_Vel_52
Time_Shift_293
Note_On_55_Vel_56
Time_Shift_73
Note_On_80_Vel_0
Time_Shift_253
Note_On_77_Vel_72
Time_Shift_20
Note_On_58_Vel_59
Time_Shift_313
Note_On_63_Vel_70
Time_Shift_328
Note_On_75_Vel_0
Time_Shift_9
Note_On_75_Vel_70
Time_Shift_40
Note_On_67_Vel_47
Time_Shift_404
Note_On_63_Vel_0
Time_Shift_6
Note_On_63_Vel_60
Time_Shift_383
Note_On_72_Vel_59
Time_Shift_115
Sustain_Off
Time_Shift_6
Note_On_77_Vel_0
Note_On_67_Vel_0
Note_On_79_Vel_0
Time_Shift_20
Sustain_On
Time_Shift_285
Note_On_73_Vel_0
Time_Shift_4
Note_On_73_Vel_59
Time_Shift_7
Note_On_70_Vel_51
Time_Shift_411
Note_On_72_Vel_0
Time_Shift_11
Note_On_72_Vel_57
Time_Shift_20
Note_On_63_Vel_0
Time_Shift_9
Note_On_68_Vel_39
Time_Shift_1
Note_On_63_Vel_41
Time_Shift_25
Note_On_56_Vel_41
Time_Shift_7
Sustain_Off
Time_Shift_4
Note_On_58_Vel_0
Time_Shift_2
Note_On_55_Vel_0
Time_Shift_1
Note_On_73_Vel_0
Note_On_70_Vel_0
Time_Shift_35
Note_On_46_Vel_0
Time_Shift_8
Note_On_75_Vel_0
Time_Shift_84
Sustain_On
Time_Shift_269
Note_On_63_Vel_0
Time_Shift_11
Note_On_63_Vel_50
Time_Shift_335
Note_On_51_Vel_0
Time_Shift_3
Note_On_60_Vel_53
Time_Shift_1
Note_On_51_Vel_63
Time_Shift_88
Note_On_39_Vel_0
Time_Shift_238
Note_On_68_Vel_0
Time_Shift_11
Note_On_68_Vel_67
Time_Shift_296
Note_On_63_Vel_0
Time_Shift_9
Note_On_63_Vel_73
Time_Shift_14
Note_On_51_Vel_0
Time_Shift_6
Note_On_51_Vel_64
Time_Shift_286
Note_On_72_Vel_0
Time_Shift_11
Note_On_72_Vel_78
Time_Shift_327
Note_On_68_Vel_0
Time_Shift_5
Note_On_68_Vel_73
Time_Shift_3
Note_On_51_Vel_0
Time_Shift_3
Note_On_51_Vel_70
Time_Shift_346
Note_On_75_Vel_86
Time_Shift_369
Note_On_82_Vel_91
Time_Shift_19
Note_On_51_Vel_0
Note_On_72_Vel_0
Time_Shift_10
Note_On_51_Vel_64
Time_Shift_1
Note_On_72_Vel_67
Time_Shift_350
Note_On_80_Vel_87
Time_Shift_507
Note_On_80_Vel_0
Time_Shift_5
Note_On_80_Vel_68
Time_Shift_39
Note_On_73_Vel_53
Time_Shift_6
Note_On_39_Vel_48
Time_Shift_3
Note_On_75_Vel_0
Time_Shift_9
Note_On_75_Vel_39
Time_Shift_342
Note_On_72_Vel_0
Time_Shift_2
Note_On_82_Vel_0
Time_Shift_1
Note_On_68_Vel_0
Time_Shift_1
Note_On_60_Vel_0
Note_On_63_Vel_0
Time_Shift_3
Note_On_56_Vel_0
Time_Shift_9
Sustain_Off
Time_Shift_10
Sustain_On
Time_Shift_70
Note_On_46_Vel_53
Time_Shift_365
Note_On_79_Vel_70
Time_Shift_26
Note_On_51_Vel_0
Time_Shift_4
Note_On_51_Vel_54
Time_Shift_314
Note_On_55_Vel_61
Time_Shift_330
Note_On_77_Vel_66
Time_Shift_31
Note_On_58_Vel_61
Time_Shift_104
Note_On_75_Vel_0
Time_Shift_218
Note_On_63_Vel_72
Time_Shift_408
Note_On_75_Vel_63
Time_Shift_3
Note_On_67_Vel_62
Time_Shift_500
Note_On_63_Vel_0
Time_Shift_6
Note_On_63_Vel_62
Time_Shift_389
Note_On_72_Vel_55
Time_Shift_388
Note_On_73_Vel_0
Time_Shift_7
Note_On_73_Vel_65
Time_Shift_5
Note_On_70_Vel_53
Time_Shift_503
Note_On_72_Vel_0
Time_Shift_11
Note_On_72_Vel_60
Time_Shift_16
Note_On_68_Vel_41
Time_Shift_34
Note_On_63_Vel_0
Time_Shift_7
Note_On_56_Vel_35
Time_Shift_2
Note_On_63_Vel_39
Time_Shift_64
Note_On_51_Vel_0
Note_On_58_Vel_0
Time_Shift_1
Note_On_73_Vel_0
Sustain_Off
Time_Shift_1
Note_On_70_Vel_0
Time_Shift_1
Note_On_79_Vel_0
Note_On_75_Vel_0
Note_On_67_Vel_0
Note_On_55_Vel_0
Time_Shift_9
Note_On_80_Vel_0
Time_Shift_7
Note_On_77_Vel_0
Time_Shift_8
Note_On_46_Vel_0
Time_Shift_77
Sustain_On
Time_Shift_285
Note_On_44_Vel_52
Time_Shift_37
Note_On_39_Vel_0
Time_Shift_292
Note_On_72_Vel_0
Time_Shift_11
Note_On_72_Vel_62
Time_Shift_20
Note_On_68_Vel_0
Time_Shift_5
Note_On_68_Vel_46
Time_Shift_16
Note_On_48_Vel_46
Time_Shift_71
Sustain_Off
Time_Shift_138
Sustain_On
Time_Shift_120
Note_On_51_Vel_59
Time_Shift_311
Note_On_72_Vel_0
Time_Shift_7
Note_On_56_Vel_0
Time_Shift_3
Note_On_72_Vel_74
Time_Shift_6
Note_On_56_Vel_61
Time_Shift_14
Note_On_68_Vel_0
Time_Shift_4
Note_On_68_Vel_49
Time_Shift_316
Note_On_60_Vel_64
Time_Shift_325
Note_On_63_Vel_0
Note_On_68_Vel_0
Time_Shift_6
Note_On_63_Vel_72
Time_Shift_1
Note_On_68_Vel_60
Time_Shift_331
Note_On_60_Vel_0
Time_Shift_8
Note_On_60_Vel_78
Time_Shift_353
Note_On_68_Vel_0
Time_Shift_5
Note_On_68_Vel_59
Time_Shift_85
Note_On_65_Vel_58
Time_Shift_371
Note_On_63_Vel_0
Time_Shift_10
Note_On_63_Vel_61
Time_Shift_1
Note_On_71_Vel_62
Time_Shift_399
Note_On_44_Vel_0
Time_Shift_1
Note_On_65_Vel_0
Note_On_48_Vel_0
Note_On_51_Vel_0
Note_On_60_Vel_0
Note_On_68_Vel_0
Note_On_63_Vel_0
Time_Shift_1
Note_On_62_Vel_49
Time_Shift_5
Note_On_70_Vel_64
Time_Shift_17
Sustain_Off
Time_Shift_4
Note_On_72_Vel_0
Time_Shift_7
Note_On_56_Vel_0
Note_On_71_Vel_0
Time_Shift_85
Sustain_On
Time_Shift_321
Note_On_34_Vel_41
Time_Shift_316
Note_On_70_Vel_0
Time_Shift_6
Note_On_70_Vel_58
Time_Shift_26
Note_On_68_Vel_45
Time_Shift_41
Note_On_41_Vel_52
Time_Shift_305
Note_On_46_Vel_65
Time_Shift_306
Note_On_70_Vel_0
Time_Shift_4
Note_On_50_Vel_58
Time_Shift_5
Note_On_70_Vel_82
Time_Shift_308
Note_On_53_Vel_64
Time_Shift_336
Note_On_70_Vel_0
Time_Shift_9
Note_On_70_Vel_83
Time_Shift_2
Note_On_58_Vel_73
Time_Shift_304
Note_On_62_Vel_0
Time_Shift_4
Note_On_62_Vel_81
Time_Shift_334
Note_On_70_Vel_0
Time_Shift_4
Note_On_70_Vel_78
Time_Shift_5
Note_On_67_Vel_75
Time_Shift_327
Note_On_65_Vel_84
Time_Shift_362
Note_On_70_Vel_0
Time_Shift_5
Note_On_70_Vel_85
Time_Shift_26
Note_On_67_Vel_0
Time_Shift_4
Note_On_67_Vel_53
Time_Shift_35
Note_On_63_Vel_69
Time_Shift_52
Sustain_Off
Note_On_65_Vel_0
Time_Shift_1
Note_On_41_Vel_0
Note_On_50_Vel_0
Time_Shift_1
Note_On_58_Vel_0
Time_Shift_1
Note_On_68_Vel_0
Note_On_62_Vel_0
Time_Shift_1
Note_On_34_Vel_0
Note_On_53_Vel_0
Time_Shift_105
Sustain_On
Time_Shift_179
Note_On_39_Vel_64
Time_Shift_320
Note_On_67_Vel_0
Time_Shift_9
Note_On_75_Vel_85
Time_Shift_1
Note_On_67_Vel_63
Time_Shift_44
Note_On_46_Vel_0
Time_Shift_10
Note_On_46_Vel_64
Time_Shift_294
Note_On_51_Vel_77
Time_Shift_302
Note_On_70_Vel_0
Time_Shift_9
Note_On_55_Vel_70
Time_Shift_3
Note_On_70_Vel_88
Time_Shift_4
Note_On_67_Vel_0
Time_Shift_5
Note_On_67_Vel_66
Time_Shift_298
Note_On_58_Vel_81
Time_Shift_389
Note_On_68_Vel_81
Time_Shift_22
Note_On_65_Vel_65
Time_Shift_1
Note_On_59_Vel_63
Time_Shift_199
Note_On_55_Vel_0
Time_Shift_3
Note_On_63_Vel_0
Note_On_58_Vel_0
Note_On_46_Vel_0
Time_Shift_1
Note_On_67_Vel_0
Note_On_51_Vel_0
Note_On_39_Vel_0
Time_Shift_3
Sustain_Off
Time_Shift_4
Note_On_75_Vel_0
Time_Shift_19
Note_On_70_Vel_0
Time_Shift_116
Sustain_On
Time_Shift_31
Note_On_74_Vel_82
Time_Shift_370
Note_On_79_Vel_81
Time_Shift_50
Note_On_58_Vel_47
Time_Shift_105
Sustain_Off
Time_Shift_27
Note_On_59_Vel_0
Time_Shift_54
Sustain_On
Time_Shift_195
Note_On_77_Vel_78
Time_Shift_408
Sustain_Off
Time_Shift_10
Note_On_75_Vel_64
Time_Shift_7
Note_On_67_Vel_50
Note_On_79_Vel_0
Time_Shift_4
Note_On_68_Vel_0
Time_Shift_5
Note_On_74_Vel_0
Time_Shift_32
Note_On_65_Vel_0
Time_Shift_1
Note_On_63_Vel_50
Time_Shift_37
Note_On_77_Vel_0
Time_Shift_23
Sustain_On
Time_Shift_373
Note_On_39_Vel_47
Time_Shift_364
Note_On_67_Vel_0
Note_On_70_Vel_56
Time_Shift_6
Note_On_67_Vel_46
Time_Shift_37
Note_On_46_Vel_45
Time_Shift_147
Sustain_Off
Time_Shift_33
Sustain_On
Time_Shift_129
Note_On_51_Vel_62
Time_Shift_148
Note_On_58_Vel_0
Time_Shift_176
Note_On_70_Vel_0
Time_Shift_8
Note_On_67_Vel_0
Time_Shift_2
Note_On_70_Vel_64
Time_Shift_1
Note_On_55_Vel_49
Time_Shift_8
Note_On_67_Vel_48
Time_Shift_326
Note_On_58_Vel_57
Time_Shift_394
Note_On_68_Vel_48
Time_Shift_40
Note_On_65_Vel_43
Time_Shift_1
Note_On_59_Vel_51
Time_Shift_182
Note_On_58_Vel_0
Time_Shift_1
Note_On_67_Vel_0
Time_Shift_1
Note_On_55_Vel_0
Time_Shift_1
Note_On_51_Vel_0
Time_Shift_1
Note_On_46_Vel_0
Time_Shift_10
Note_On_63_Vel_0
Time_Shift_5
Sustain_Off
Time_Shift_56
Note_On_39_Vel_0
Time_Shift_84
Sustain_On
Time_Shift_62
Note_On_75_Vel_0
Time_Shift_3
Note_On_74_Vel_55
Time_Shift_357
Note_On_79_Vel_58
Time_Shift_96
Note_On_74_Vel_0
Time_Shift_112
Sustain_Off
Time_Shift_131
Sustain_On
Time_Shift_52
Note_On_77_Vel_53
Time_Shift_424
Note_On_70_Vel_0
Time_Shift_45
Note_On_75_Vel_51
Time_Shift_30
Note_On_67_Vel_35
Time_Shift_18
Note_On_77_Vel_0
Time_Shift_2
Note_On_79_Vel_0
Time_Shift_2
Note_On_65_Vel_0
Time_Shift_3
Note_On_68_Vel_0
Time_Shift_4
Note_On_63_Vel_31
Time_Shift_3
Note_On_59_Vel_0
Time_Shift_4
Sustain_Off
Time_Shift_150
Sustain_On
Time_Shift_296
Note_On_39_Vel_44
Time_Shift_341
Note_On_75_Vel_0
Time_Shift_8
Note_On_67_Vel_0
Time_Shift_2
Note_On_75_Vel_53
Time_Shift_2
Note_On_67_Vel_45
Time_Shift_58
Note_On_46_Vel_47
Time_Shift_303
Note_On_51_Vel_66
Time_Shift_319
Note_On_67_Vel_0
Note_On_75_Vel_0
Time_Shift_8
Note_On_75_Vel_76
Time_Shift_3
Note_On_67_Vel_67
Time_Shift_23
Note_On_55_Vel_62
Time_Shift_342
Note_On_58_Vel_74
Time_Shift_307
Note_On_75_Vel_0
Time_Shift_5
Note_On_75_Vel_74
Time_Shift_11
Note_On_67_Vel_0
Time_Shift_5
Note_On_73_Vel_65
Time_Shift_6
Note_On_67_Vel_58
Time_Shift_4
Note_On_70_Vel_54
Time_Shift_46
Note_On_63_Vel_0
Time_Shift_10
Note_On_63_Vel_72
Time_Shift_328
Note_On_58_Vel_0
Time_Shift_6
Note_On_58_Vel_77
Time_Shift_347
Note_On_75_Vel_0
Time_Shift_8
Note_On_73_Vel_0
Time_Shift_4
Note_On_75_Vel_84
Time_Shift_4
Note_On_70_Vel_0
Time_Shift_2
Note_On_73_Vel_72
Time_Shift_5
Note_On_63_Vel_0
Time_Shift_2
Note_On_70_Vel_68
Time_Shift_3
Note_On_63_Vel_72
Time_Shift_3
Note_On_55_Vel_0
Time_Shift_5
Note_On_55_Vel_60
Time_Shift_341
Note_On_51_Vel_0
Time_Shift_6
Note_On_51_Vel_75
Time_Shift_439
Note_On_75_Vel_0
Time_Shift_11
Note_On_75_Vel_83
Time_Shift_8
Note_On_72_Vel_70
Time_Shift_4
Note_On_63_Vel_0
Time_Shift_1
Note_On_68_Vel_62
Time_Shift_3
Note_On_63_Vel_68
Time_Shift_27
Note_On_44_Vel_61
Time_Shift_60
Note_On_51_Vel_0
Note_On_70_Vel_0
Note_On_58_Vel_0
Note_On_67_Vel_0
Time_Shift_2
Note_On_46_Vel_0
Note_On_55_Vel_0
Time_Shift_1
Sustain_Off
Time_Shift_1
Note_On_39_Vel_0
Time_Shift_13
Note_On_73_Vel_0
Time_Shift_76
Sustain_On
Time_Shift_186
Note_On_51_Vel_72
Time_Shift_321
Note_On_72_Vel_0
Time_Shift_9
Note_On_72_Vel_83
Time_Shift_7
Note_On_63_Vel_0
Note_On_68_Vel_0
Time_Shift_4
Note_On_68_Vel_67
Time_Shift_7
Note_On_63_Vel_71
Note_On_60_Vel_65
Time_Shift_2
Note_On_56_Vel_60
Time_Shift_340
Note_On_51_Vel_0
Time_Shift_4
Note_On_51_Vel_77
Time_Shift_333
Note_On_71_Vel_82
Time_Shift_16
Note_On_68_Vel_0
Time_Shift_8
Note_On_62_Vel_73
Time_Shift_3
Note_On_68_Vel_60
Time_Shift_32
Note_On_53_Vel_62
Time_Shift_158
Note_On_56_Vel_0
Time_Shift_1
Note_On_51_Vel_0
Note_On_72_Vel_0
Note_On_44_Vel_0
Note_On_60_Vel_0
Time_Shift_1
Sustain_Off
Note_On_63_Vel_0
Time_Shift_12
Note_On_75_Vel_0
Time_Shift_77
Sustain_On
Time_Shift_89
Note_On_59_Vel_66
Time_Shift_23
Note_On_56_Vel_67
Time_Shift_387
Note_On_72_Vel_73
Note_On_68_Vel_0
Time_Shift_5
Note_On_68_Vel_54
Time_Shift_8
Note_On_63_Vel_63
Time_Shift_26
Note_On_44_Vel_61
Time_Shift_42
Note_On_71_Vel_0
Note_On_59_Vel_0
Time_Shift_1
Note_On_62_Vel_0
Time_Shift_1
Note_On_53_Vel_0
Time_Shift_13
Sustain_Off
Time_Shift_96
Sustain_On
Time_Shift_173
Note_On_51_Vel_68
Time_Shift_311
Note_On_72_Vel_0
Time_Shift_11
Note_On_72_Vel_78
Time_Shift_12
Note_On_63_Vel_0
Note_On_68_Vel_0
Time_Shift_11
Note_On_68_Vel_59
Time_Shift_1
Note_On_63_Vel_61
Time_Shift_3
Note_On_56_Vel_0
Time_Shift_9
Note_On_56_Vel_53
Time_Shift_10
Note_On_60_Vel_51
Time_Shift_312
Note_On_51_Vel_0
Time_Shift_4
Note_On_51_Vel_68
Time_Shift_364
Note_On_72_Vel_0
Time_Shift_6
Note_On_75_Vel_83
Time_Shift_6
Note_On_72_Vel_70
Time_Shift_42
Note_On_44_Vel_0
Time_Shift_10
Note_On_44_Vel_55
Time_Shift_39
Note_On_60_Vel_0
Note_On_51_Vel_0
Note_On_68_Vel_0
Time_Shift_1
Note_On_56_Vel_0
Sustain_Off
Time_Shift_19
Note_On_63_Vel_0
Time_Shift_108
Sustain_On
Time_Shift_220
Note_On_51_Vel_62
Time_Shift_127
Note_On_84_Vel_88
Time_Shift_21
Note_On_75_Vel_0
Time_Shift_5
Note_On_80_Vel_63
Time_Shift_6
Note_On_75_Vel_42
Time_Shift_112
Note_On_75_Vel_0
Time_Shift_8
Note_On_72_Vel_0
Time_Shift_3
Note_On_75_Vel_87
Time_Shift_7
Note_On_72_Vel_73
Time_Shift_32
Note_On_60_Vel_53
Time_Shift_1
Note_On_56_Vel_58
Time_Shift_310
Note_On_51_Vel_0
Time_Shift_11
Note_On_51_Vel_81
Time_Shift_326
Note_On_74_Vel_85
Time_Shift_8
Note_On_71_Vel_71
Time_Shift_1
Note_On_44_Vel_0
Time_Shift_5
Note_On_44_Vel_57
Time_Shift_2
Note_On_62_Vel_70
Time_Shift_1
Note_On_68_Vel_58
Time_Shift_34
Note_On_53_Vel_67
Time_Shift_254
Note_On_56_Vel_0
Note_On_51_Vel_0
Time_Shift_1
Note_On_80_Vel_0
Note_On_60_Vel_0
Note_On_84_Vel_0
Note_On_75_Vel_0
Sustain_Off
Time_Shift_18
Note_On_72_Vel_0
Time_Shift_53
Sustain_On
Time_Shift_7
Note_On_59_Vel_59
Time_Shift_2
Note_On_56_Vel_57
Time_Shift_336
Note_On_75_Vel_76
Time_Shift_9
Note_On_44_Vel_0
Note_On_68_Vel_0
Time_Shift_6
Note_On_72_Vel_64
Time_Shift_2
Note_On_68_Vel_51
Note_On_44_Vel_54
Time_Shift_3
Note_On_63_Vel_58
Time_Shift_127
Note_On_71_Vel_0
Note_On_62_Vel_0
Time_Shift_2
Sustain_Off
Note_On_74_Vel_0
Note_On_59_Vel_0
Time_Shift_1
Note_On_53_Vel_0
Time_Shift_81
Sustain_On
Time_Shift_129
Note_On_51_Vel_73
Time_Shift_325
Note_On_72_Vel_0
Note_On_75_Vel_0
Time_Shift_4
Note_On_75_Vel_90
Time_Shift_5
Note_On_72_Vel_73
Time_Shift_14
Note_On_63_Vel_0
Time_Shift_6
Note_On_63_Vel_64
Time_Shift_1
Note_On_68_Vel_0
Time_Shift_6
Note_On_68_Vel_56
Time_Shift_10
Note_On_56_Vel_0
Time_Shift_4
Note_On_60_Vel_55
Time_Shift_5
Note_On_56_Vel_60
Time_Shift_352
Note_On_51_Vel_0
Time_Shift_5
Note_On_51_Vel_63
Time_Shift_210
Note_On_63_Vel_0
Time_Shift_4
Note_On_63_Vel_73
Time_Shift_51
Sustain_Off
Time_Shift_1
Note_On_56_Vel_0
Note_On_60_Vel_0
Note_On_51_Vel_0
Time_Shift_1
Note_On_68_Vel_0
Note_On_63_Vel_0
Note_On_75_Vel_0
Time_Shift_1
Note_On_44_Vel_0
Time_Shift_12
Note_On_70_Vel_68
Time_Shift_14
Note_On_72_Vel_0
Time_Shift_23
Sustain_On
Time_Shift_27
Note_On_73_Vel_75
Time_Shift_93
Note_On_75_Vel_88
Time_Shift_159
Note_On_82_Vel_94
Time_Shift_24
Note_On_43_Vel_58
Time_Shift_402
Note_On_51_Vel_58
Time_Shift_315
Note_On_79_Vel_89
Time_Shift_2
Note_On_70_Vel_0
Time_Shift_15
Note_On_73_Vel_0
Time_Shift_8
Note_On_73_Vel_62
Time_Shift_20
Note_On_58_Vel_54
Time_Shift_318
Note_On_51_Vel_0
Time_Shift_8
Note_On_51_Vel_58
Time_Shift_214
Note_On_79_Vel_0
Time_Shift_11
Note_On_79_Vel_82
Time_Shift_153
Note_On_77_Vel_84
Time_Shift_21
Note_On_73_Vel_0
Time_Shift_11
Note_On_73_Vel_55
Time_Shift_4
Note_On_43_Vel_0
Time_Shift_8
Note_On_43_Vel_50
Time_Shift_5
Note_On_63_Vel_49
Time_Shift_18
Note_On_58_Vel_0
Time_Shift_7
Note_On_58_Vel_52
Time_Shift_151
Sustain_Off
Time_Shift_49
Sustain_On
Time_Shift_146
Note_On_51_Vel_0
Time_Shift_11
Note_On_51_Vel_59
Time_Shift_219
Note_On_75_Vel_0
Time_Shift_4
Note_On_75_Vel_79
Time_Shift_234
Note_On_75_Vel_0
Time_Shift_11
Note_On_75_Vel_76
Time_Shift_5
Note_On_44_Vel_53
Time_Shift_12
Note_On_72_Vel_52
Time_Shift_3
Note_On_63_Vel_0
Time_Shift_4
Note_On_63_Vel_39
Time_Shift_80
Sustain_Off
Time_Shift_2
Note_On_58_Vel_0
Time_Shift_1
Note_On_73_Vel_0
Note_On_51_Vel_0
Time_Shift_1
Note_On_77_Vel_0
Time_Shift_1
Note_On_43_Vel_0
Time_Shift_3
Note_On_79_Vel_0
Time_Shift_16
Note_On_82_Vel_0
Time_Shift_76
Sustain_On
Time_Shift_205
Note_On_51_Vel_42
Time_Shift_310
Note_On_72_Vel_0
Time_Shift_8
Note_On_72_Vel_67
Time_Shift_22
Note_On_68_Vel_50
Time_Shift_16
Note_On_63_Vel_0
Time_Shift_8
Note_On_63_Vel_48
Time_Shift_4
Note_On_60_Vel_39
Time_Shift_8
Note_On_56_Vel_44
Time_Shift_303
Note_On_51_Vel_0
Time_Shift_11
Note_On_51_Vel_51
Time_Shift_384
Note_On_70_Vel_63
Time_Shift_7
Note_On_67_Vel_51
Time_Shift_3
Note_On_61_Vel_49
Time_Shift_34
Note_On_39_Vel_44
Time_Shift_104
Note_On_63_Vel_0
Note_On_51_Vel_0
Note_On_60_Vel_0
Time_Shift_1
Note_On_68_Vel_0
Time_Shift_1
Note_On_56_Vel_0
Note_On_72_Vel_0
Time_Shift_1
Sustain_Off
Note_On_44_Vel_0
Time_Shift_14
Note_On_75_Vel_0
Time_Shift_115
Sustain_On
Time_Shift_100
Note_On_51_Vel_60
Time_Shift_27
Note_On_63_Vel_58
Time_Shift_197
Note_On_72_Vel_67
Time_Shift_130
Note_On_70_Vel_0
Time_Shift_4
Note_On_70_Vel_68
Time_Shift_11
Note_On_61_Vel_0
Note_On_67_Vel_0
Time_Shift_4
Note_On_67_Vel_44
Time_Shift_7
Note_On_61_Vel_49
Time_Shift_161
Note_On_72_Vel_0
Time_Shift_151
Note_On_63_Vel_0
Time_Shift_9
Note_On_63_Vel_63
Time_Shift_6
Note_On_51_Vel_0
Time_Shift_9
Note_On_51_Vel_49
Time_Shift_145
Note_On_69_Vel_70
Time_Shift_199
Note_On_70_Vel_0
Time_Shift_11
Note_On_70_Vel_64
Time_Shift_12
Note_On_61_Vel_0
Time_Shift_8
Note_On_67_Vel_0
Time_Shift_1
Note_On_61_Vel_53
Time_Shift_3
Note_On_67_Vel_43
Time_Shift_83
Note_On_63_Vel_0
Time_Shift_13
Note_On_69_Vel_0
Time_Shift_7
Sustain_Off
Time_Shift_85
Sustain_On
Time_Shift_153
Note_On_51_Vel_0
Time_Shift_8
Note_On_51_Vel_49
Time_Shift_35
Note_On_63_Vel_54
Time_Shift_132
Note_On_72_Vel_68
Time_Shift_10
Note_On_70_Vel_0
Time_Shift_9
Note_On_70_Vel_49
Time_Shift_179
Note_On_68_Vel_63
Time_Shift_23
Note_On_60_Vel_45
Time_Shift_22
Note_On_44_Vel_45
Time_Shift_71
Sustain_Off
Time_Shift_2
Note_On_63_Vel_0
Time_Shift_1
Note_On_51_Vel_0
Note_On_70_Vel_0
Time_Shift_1
Note_On_67_Vel_0
Time_Shift_7
Note_On_39_Vel_0
Time_Shift_7
Note_On_61_Vel_0
Time_Shift_8
Note_On_72_Vel_0
Time_Shift_46
Sustain_On
Time_Shift_229
Note_On_51_Vel_48
Time_Shift_339
Note_On_68_Vel_0
Time_Shift_10
Note_On_68_Vel_52
Time_Shift_13
Note_On_60_Vel_0
Time_Shift_10
Note_On_60_Vel_35
Time_Shift_2
Note_On_63_Vel_43
Time_Shift_1
Note_On_56_Vel_43
Time_Shift_91
Note_On_51_Vel_0
Time_Shift_6
Sustain_Off
Time_Shift_98
Sustain_On
Time_Shift_196
Note_On_51_Vel_45
Time_Shift_380
Note_On_68_Vel_0
Time_Shift_5
Note_On_68_Vel_56
Time_Shift_28
Note_On_65_Vel_48
Time_Shift_24
Note_On_49_Vel_41
Time_Shift_89
Sustain_Off
Time_Shift_9
Note_On_56_Vel_0
Note_On_63_Vel_0
Time_Shift_1
Note_On_44_Vel_0
Time_Shift_28
Note_On_60_Vel_0
Time_Shift_69
Sustain_On
Time_Shift_140
Note_On_56_Vel_58
Time_Shift_346
Note_On_70_Vel_77
Time_Shift_24
Note_On_64_Vel_52
Time_Shift_18
Note_On_55_Vel_54
Time_Shift_317
Note_On_49_Vel_0
Time_Shift_10
Note_On_49_Vel_66
Time_Shift_351
Note_On_72_Vel_83
Time_Shift_26
Note_On_63_Vel_66
Time_Shift_12
Note_On_51_Vel_0
Time_Shift_11
Note_On_48_Vel_64
Time_Shift_47
Sustain_Off
Time_Shift_16
Note_On_70_Vel_0
Time_Shift_4
Note_On_49_Vel_0
Time_Shift_3
Note_On_55_Vel_0
Note_On_64_Vel_0
Time_Shift_3
Note_On_56_Vel_0
Time_Shift_16
Note_On_68_Vel_0
Time_Shift_8
Note_On_65_Vel_0
Time_Shift_84
Sustain_On
Time_Shift_188
Note_On_56_Vel_71
Time_Shift_390
Note_On_73_Vel_67
Time_Shift_18
Note_On_64_Vel_48
Time_Shift_39
Note_On_49_Vel_51
Time_Shift_114
Note_On_48_Vel_0
Time_Shift_1
Note_On_56_Vel_0
Note_On_72_Vel_0
Time_Shift_1
Note_On_63_Vel_0
Time_Shift_2
Sustain_Off
Time_Shift_154
Sustain_On
Time_Shift_103
Note_On_56_Vel_56
Time_Shift_368
Note_On_72_Vel_59
Time_Shift_27
Note_On_63_Vel_48
Time_Shift_24
Note_On_56_Vel_0
Time_Shift_4
Note_On_56_Vel_41
Time_Shift_7
Note_On_44_Vel_47
Time_Shift_17
Note_On_64_Vel_0
Time_Shift_1
Note_On_73_Vel_0
Time_Shift_4
Note_On_49_Vel_0
Time_Shift_4
Sustain_Off
Time_Shift_124
Sustain_On
Time_Shift_208
Note_On_56_Vel_0
Time_Shift_11
Note_On_56_Vel_49
Time_Shift_396
Note_On_68_Vel_53
Time_Shift_10
Note_On_65_Vel_47
Time_Shift_31
Note_On_49_Vel_40
Time_Shift_14
Sustain_Off
Time_Shift_1
Note_On_63_Vel_0
Time_Shift_3
Note_On_72_Vel_0
Time_Shift_102
Sustain_On
Time_Shift_207
Note_On_56_Vel_0
Time_Shift_6
Note_On_56_Vel_55
Time_Shift_361
Note_On_70_Vel_70
Time_Shift_20
Note_On_64_Vel_49
Time_Shift_3
Note_On_55_Vel_55
Time_Shift_348
Note_On_49_Vel_0
Time_Shift_9
Note_On_49_Vel_58
Time_Shift_359
Note_On_72_Vel_72
Time_Shift_28
Note_On_63_Vel_58
Time_Shift_15
Note_On_48_Vel_55
Time_Shift_49
Note_On_44_Vel_0
Time_Shift_9
Note_On_68_Vel_0
Note_On_49_Vel_0
Note_On_70_Vel_0
Sustain_Off
Time_Shift_1
Note_On_56_Vel_0
Note_On_55_Vel_0
Note_On_65_Vel_0
Time_Shift_2
Note_On_64_Vel_0
Time_Shift_88
Sustain_On
Time_Shift_249
Note_On_56_Vel_56
Time_Shift_516
Note_On_73_Vel_59
Time_Shift_25
Note_On_64_Vel_47
Time_Shift_5
Note_On_61_Vel_45
Time_Shift_5
Note_On_58_Vel_42
Time_Shift_30
Note_On_46_Vel_39
Time_Shift_57
Note_On_48_Vel_0
Time_Shift_2
Note_On_56_Vel_0
Time_Shift_1
Sustain_Off
Time_Shift_2
Note_On_72_Vel_0
Time_Shift_1
Note_On_63_Vel_0
Time_Shift_159
Sustain_On
Time_Shift_254
Note_On_58_Vel_0
Time_Shift_10
Note_On_58_Vel_39
Time_Shift_488
Note_On_70_Vel_52
Time_Shift_3
Note_On_67_Vel_40
Time_Shift_6
Note_On_61_Vel_0
Time_Shift_9
Note_On_61_Vel_35
Time_Shift_13
Note_On_63_Vel_45
Time_Shift_28
Note_On_51_Vel_40
Time_Shift_83
Note_On_64_Vel_0
Time_Shift_5
Sustain_Off
Time_Shift_23
Note_On_73_Vel_0
Time_Shift_92
Sustain_On
Time_Shift_92
Note_On_58_Vel_0
Time_Shift_150
Note_On_58_Vel_40
Time_Shift_183
Note_On_72_Vel_59
Time_Shift_258
Note_On_68_Vel_51
Time_Shift_20
Note_On_44_Vel_41
Time_Shift_4
Note_On_63_Vel_0
Time_Shift_7
Note_On_63_Vel_33
Time_Shift_5
Note_On_60_Vel_32
Time_Shift_8
Note_On_67_Vel_0
Note_On_70_Vel_0
Note_On_51_Vel_0
Note_On_58_Vel_0
Time_Shift_7
Sustain_Off
Time_Shift_11
Note_On_46_Vel_0
Time_Shift_8
Note_On_61_Vel_0
Time_Shift_130
Sustain_On
Time_Shift_69
Note_On_72_Vel_0
Time_Shift_174
Note_On_51_Vel_45
Time_Shift_387
Note_On_68_Vel_0
Time_Shift_10
Note_On_68_Vel_47
Time_Shift_13
Note_On_63_Vel_0
Time_Shift_4
Note_On_63_Vel_50
Time_Shift_4
Note_On_60_Vel_0
Time_Shift_10
Note_On_56_Vel_31
Time_Shift_1
Note_On_60_Vel_33
Time_Shift_54
Note_On_51_Vel_0
Time_Shift_1
Note_On_44_Vel_0
Time_Shift_5
Sustain_Off
Time_Shift_113
Sustain_On
Time_Shift_237
Note_On_51_Vel_45
Time_Shift_521
Sustain_Off
Time_Shift_7
Note_On_56_Vel_0
Time_Shift_4
Note_On_51_Vel_0
Time_Shift_22
Note_On_60_Vel_0
Note_On_68_Vel_0
Time_Shift_12
Note_On_39_Vel_38
Time_Shift_2
Note_On_61_Vel_33
Time_Shift_5
Note_On_58_Vel_34
Time_Shift_10
Note_On_55_Vel_22
Time_Shift_148
Sustain_On
Time_Shift_259
Note_On_51_Vel_44
Time_Shift_498
Note_On_44_Vel_48
Time_Shift_2
Note_On_32_Vel_36
Time_Shift_67
Sustain_Off
Time_Shift_45
Note_On_39_Vel_0
Time_Shift_1
Note_On_58_Vel_0
Time_Shift_3
Note_On_51_Vel_0
Time_Shift_2
Note_On_61_Vel_0
Note_On_55_Vel_0
Time_Shift_6
Note_On_63_Vel_0
Time_Shift_77
Sustain_On
Time_Shift_327
Note_On_51_Vel_37
Time_Shift_541
Note_On_32_Vel_0
Time_Shift_6
Note_On_32_Vel_22
Time_Shift_31
Note_On_60_Vel_29
Time_Shift_19
Note_On_56_Vel_19
Time_Shift_70
Sustain_Off
Time_Shift_165
Sustain_On
Time_Shift_515
Note_On_51_Vel_0
Time_Shift_11
Note_On_51_Vel_26
Time_Shift_97
Note_On_32_Vel_0
Note_On_44_Vel_0
Time_Shift_1130
Note_On_63_Vel_54
Time_Shift_80
Note_On_44_Vel_31
Time_Shift_11
Sustain_Off
Time_Shift_76
Note_On_60_Vel_0
Time_Shift_70
Note_On_56_Vel_0
Sustain_On
Time_Shift_115
Note_On_51_Vel_0
Time_Shift_351
Note_On_51_Vel_42
Time_Shift_450
Note_On_60_Vel_41
Time_Shift_21
Note_On_56_Vel_37
Time_Shift_391
Note_On_51_Vel_0
Time_Shift_5
Note_On_51_Vel_41
Time_Shift_7
Note_On_65_Vel_41
Time_Shift_200
Note_On_67_Vel_42
Time_Shift_158
Note_On_68_Vel_46
Time_Shift_14
Note_On_60_Vel_0
Time_Shift_11
Note_On_60_Vel_33
Time_Shift_5
Note_On_56_Vel_0
Time_Shift_4
Note_On_56_Vel_36
Time_Shift_90
Note_On_70_Vel_56
Time_Shift_122
Note_On_72_Vel_63
Time_Shift_94
Note_On_73_Vel_62
Time_Shift_74
Note_On_51_Vel_0
Time_Shift_8
Note_On_51_Vel_50
Time_Shift_14
Note_On_75_Vel_60
Time_Shift_83
Note_On_77_Vel_68
Time_Shift_75
Note_On_79_Vel_73
Time_Shift_77
Note_On_80_Vel_76
Time_Shift_88
Note_On_79_Vel_0
Time_Shift_5
Note_On_79_Vel_69
Time_Shift_11
Note_On_44_Vel_0
Note_On_63_Vel_0
Time_Shift_38
Note_On_80_Vel_0
Time_Shift_11
Note_On_80_Vel_74
Time_Shift_68
Note_On_52_Vel_50
Time_Shift_8
Note_On_82_Vel_79
Time_Shift_5
Note_On_70_Vel_0
Note_On_65_Vel_0
Note_On_72_Vel_0
Time_Shift_2
Note_On_67_Vel_0
Note_On_75_Vel_0
Note_On_51_Vel_0
Time_Shift_1
Note_On_68_Vel_0
Note_On_77_Vel_0
Note_On_73_Vel_0
Note_On_79_Vel_0
Time_Shift_1
Note_On_80_Vel_0
Time_Shift_8
Sustain_Off
Time_Shift_3
Note_On_60_Vel_0
Time_Shift_100
Sustain_On
Time_Shift_291
Note_On_61_Vel_37
Time_Shift_13
Note_On_55_Vel_34
Time_Shift_450
Note_On_75_Vel_43
Time_Shift_30
Note_On_56_Vel_0
Time_Shift_17
Note_On_51_Vel_43
Time_Shift_302
Note_On_61_Vel_0
Time_Shift_3
Sustain_Off
Time_Shift_1
Note_On_82_Vel_0
Time_Shift_15
Note_On_52_Vel_0
Time_Shift_115
Sustain_On
Time_Shift_209
Note_On_61_Vel_37
Time_Shift_298
Note_On_55_Vel_0
Time_Shift_236
Note_On_63_Vel_51
Time_Shift_77
Note_On_44_Vel_52
Time_Shift_247
Note_On_75_Vel_0
Time_Shift_10
Note_On_75_Vel_52
Time_Shift_221
Note_On_63_Vel_0
Time_Shift_11
Note_On_63_Vel_58
Time_Shift_4
Note_On_51_Vel_0
Time_Shift_11
Note_On_51_Vel_46
Time_Shift_162
Note_On_68_Vel_62
Time_Shift_177
Note_On_72_Vel_73
Time_Shift_33
Note_On_56_Vel_53
Time_Shift_3
Note_On_60_Vel_43
Time_Shift_129
Note_On_75_Vel_0
Time_Shift_5
Note_On_75_Vel_72
Time_Shift_157
Note_On_80_Vel_77
Time_Shift_45
Note_On_51_Vel_0
Time_Shift_7
Note_On_51_Vel_52
Time_Shift_114
Note_On_84_Vel_77
Time_Shift_175
Note_On_87_Vel_82
Time_Shift_11
Note_On_60_Vel_0
Time_Shift_10
Note_On_60_Vel_43
Time_Shift_6
Note_On_56_Vel_0
Note_On_61_Vel_0
Time_Shift_4
Note_On_56_Vel_46
Time_Shift_122
Note_On_92_Vel_79
Time_Shift_200
Note_On_97_Vel_83
Time_Shift_58
Note_On_51_Vel_0
Time_Shift_7
Note_On_51_Vel_55
Time_Shift_135
Note_On_96_Vel_92
Time_Shift_143
Note_On_91_Vel_83
Time_Shift_52
Note_On_92_Vel_0
Time_Shift_10
Note_On_92_Vel_85
Time_Shift_78
Note_On_52_Vel_67
Time_Shift_2
Note_On_94_Vel_91
Time_Shift_133
Note_On_97_Vel_0
Time_Shift_5
Note_On_68_Vel_0
Note_On_72_Vel_0
Time_Shift_1
Note_On_56_Vel_0
Note_On_51_Vel_0
Time_Shift_1
Note_On_75_Vel_0
Note_On_96_Vel_0
Note_On_44_Vel_0
Note_On_87_Vel_0
Note_On_60_Vel_0
Time_Shift_1
Note_On_92_Vel_0
Note_On_80_Vel_0
Time_Shift_1
Note_On_91_Vel_0
Note_On_84_Vel_0
Time_Shift_3
Sustain_Off
Time_Shift_19
Note_On_63_Vel_0
Time_Shift_54
Sustain_On
Time_Shift_174
Note_On_61_Vel_56
Time_Shift_2
Note_On_55_Vel_58
Time_Shift_435
Note_On_75_Vel_82
Time_Shift_95
Note_On_51_Vel_50
Time_Shift_243
Sustain_Off
Time_Shift_18
Note_On_94_Vel_0
Time_Shift_10
Note_On_52_Vel_0
Time_Shift_1
Note_On_55_Vel_0
Time_Shift_1
Note_On_61_Vel_0
Time_Shift_88
Sustain_On
Time_Shift_86
Note_On_61_Vel_50
Time_Shift_3
Note_On_55_Vel_45
Time_Shift_647
Note_On_84_Vel_79
Time_Shift_106
Note_On_44_Vel_46
Time_Shift_292
Note_On_51_Vel_0
Time_Shift_4
Note_On_61_Vel_0
Time_Shift_1
Note_On_55_Vel_0
Time_Shift_1
Note_On_75_Vel_0
Time_Shift_12
Sustain_Off
Time_Shift_85
Sustain_On
Time_Shift_227
Note_On_51_Vel_43
Time_Shift_492
Note_On_56_Vel_35
Time_Shift_274
Note_On_72_Vel_49
Time_Shift_115
Note_On_60_Vel_43
Time_Shift_140
Note_On_82_Vel_68
Time_Shift_231
Note_On_80_Vel_65
Time_Shift_29
Note_On_53_Vel_31
Time_Shift_174
Note_On_72_Vel_0
Time_Shift_11
Note_On_72_Vel_48
Time_Shift_196
Note_On_56_Vel_0
Time_Shift_11
Note_On_56_Vel_46
Time_Shift_1
Note_On_79_Vel_61
Time_Shift_185
Note_On_77_Vel_58
Time_Shift_206
Note_On_75_Vel_48
Time_Shift_31
Note_On_46_Vel_46
Time_Shift_128
Note_On_82_Vel_0
Time_Shift_1
Note_On_56_Vel_0
Note_On_51_Vel_0
Note_On_80_Vel_0
Note_On_84_Vel_0
Time_Shift_1
Note_On_53_Vel_0
Note_On_77_Vel_0
Note_On_72_Vel_0
Note_On_44_Vel_0
Note_On_60_Vel_0
Time_Shift_1
Note_On_79_Vel_0
Time_Shift_23
Sustain_Off
Time_Shift_72
Sustain_On
Time_Shift_18
Note_On_77_Vel_57
Time_Shift_175
Note_On_53_Vel_50
Time_Shift_75
Note_On_73_Vel_59
Time_Shift_124
Note_On_75_Vel_0
Time_Shift_205
Note_On_85_Vel_65
Time_Shift_28
Note_On_58_Vel_39
Time_Shift_234
Note_On_79_Vel_74
Time_Shift_146
Note_On_61_Vel_50
Time_Shift_78
Note_On_77_Vel_0
Time_Shift_6
Note_On_77_Vel_72
Time_Shift_264
Note_On_48_Vel_46
Time_Shift_6
Note_On_75_Vel_62
Time_Shift_302
Note_On_87_Vel_67
Time_Shift_40
Note_On_58_Vel_0
Note_On_46_Vel_0
Time_Shift_1
Note_On_77_Vel_0
Note_On_53_Vel_0
Note_On_79_Vel_0
Note_On_85_Vel_0
Note_On_61_Vel_0
Note_On_73_Vel_0
Time_Shift_1
Note_On_75_Vel_0
Time_Shift_6
Sustain_Off
Time_Shift_65
Sustain_On
Time_Shift_28
Note_On_51_Vel_50
Time_Shift_174
Note_On_82_Vel_79
Time_Shift_156
Note_On_56_Vel_57
Time_Shift_155
Note_On_84_Vel_82
Time_Shift_172
Note_On_60_Vel_66
Time_Shift_117
Note_On_80_Vel_85
Time_Shift_249
Note_On_79_Vel_79
Time_Shift_29
Note_On_49_Vel_56
Time_Shift_225
Note_On_77_Vel_77
Time_Shift_150
Note_On_53_Vel_54
Time_Shift_99
Note_On_89_Vel_84
Time_Shift_151
Note_On_48_Vel_0
Time_Shift_39
Note_On_84_Vel_0
Sustain_Off
Time_Shift_11
Note_On_84_Vel_69
Time_Shift_20
Note_On_87_Vel_0
Time_Shift_22
Note_On_58_Vel_45
Time_Shift_31
Sustain_On
Time_Shift_54
Note_On_60_Vel_0
Time_Shift_81
Note_On_85_Vel_88
Time_Shift_150
Note_On_61_Vel_75
Time_Shift_84
Note_On_77_Vel_0
Time_Shift_10
Note_On_77_Vel_79
Time_Shift_182
Note_On_53_Vel_0
Time_Shift_6
Note_On_53_Vel_62
Time_Shift_71
Note_On_84_Vel_0
Time_Shift_7
Note_On_84_Vel_86
Time_Shift_47
Note_On_53_Vel_0
Time_Shift_11
Note_On_53_Vel_37
Time_Shift_142
Note_On_58_Vel_0
Time_Shift_5
Note_On_58_Vel_70
Time_Shift_72
Note_On_82_Vel_0
Time_Shift_9
Note_On_82_Vel_94
Time_Shift_252
Note_On_80_Vel_0
Time_Shift_7
Note_On_80_Vel_80
Time_Shift_39
Note_On_51_Vel_0
Time_Shift_10
Note_On_51_Vel_57
Time_Shift_133
Note_On_85_Vel_0
Time_Shift_2
Note_On_49_Vel_0
Note_On_53_Vel_0
Note_On_58_Vel_0
Time_Shift_1
Note_On_56_Vel_0
Note_On_61_Vel_0
Note_On_79_Vel_0
Note_On_84_Vel_0
Time_Shift_1
Note_On_82_Vel_0
Note_On_77_Vel_0
Time_Shift_1
Note_On_89_Vel_0
Time_Shift_1
Sustain_Off
Time_Shift_53
Note_On_79_Vel_90
Time_Shift_29
Sustain_On
Time_Shift_104
Note_On_55_Vel_67
Time_Shift_103
Note_On_91_Vel_93
Time_Shift_212
Note_On_85_Vel_87
Time_Shift_4
Note_On_60_Vel_70
Time_Shift_218
Note_On_87_Vel_91
Time_Shift_97
Note_On_63_Vel_77
Time_Shift_122
Note_On_82_Vel_91
Time_Shift_138
Note_On_55_Vel_0
Time_Shift_4
Note_On_55_Vel_68
Time_Shift_123
Note_On_84_Vel_94
Time_Shift_165
Note_On_60_Vel_0
Time_Shift_9
Note_On_60_Vel_70
Time_Shift_75
Note_On_79_Vel_0
Time_Shift_11
Note_On_79_Vel_94
Time_Shift_231
Note_On_53_Vel_73
Time_Shift_35
Note_On_82_Vel_0
Time_Shift_7
Note_On_82_Vel_97
Time_Shift_146
Note_On_80_Vel_0
Time_Shift_12
Note_On_79_Vel_0
Note_On_51_Vel_0
Note_On_60_Vel_0
Time_Shift_1
Note_On_84_Vel_0
Note_On_63_Vel_0
Note_On_91_Vel_0
Note_On_55_Vel_0
Note_On_87_Vel_0
Note_On_85_Vel_0
Time_Shift_1
Sustain_Off
Time_Shift_71
Sustain_On
Time_Shift_39
Note_On_56_Vel_74
Time_Shift_137
Note_On_80_Vel_94
Time_Shift_190
Note_On_60_Vel_82
Time_Shift_183
Note_On_92_Vel_98
Time_Shift_167
Note_On_65_Vel_80
Time_Shift_390
Note_On_82_Vel_0
Time_Shift_11
Note_On_82_Vel_92
Time_Shift_50
Note_On_55_Vel_62
Time_Shift_64
Note_On_65_Vel_0
Time_Shift_1
Note_On_56_Vel_0
Note_On_60_Vel_0
Note_On_53_Vel_0
Sustain_Off
Note_On_80_Vel_0
Time_Shift_1
Note_On_92_Vel_0
Time_Shift_80
Sustain_On
Time_Shift_169
Note_On_55_Vel_0
Time_Shift_135
Note_On_94_Vel_96
Time_Shift_30
Note_On_58_Vel_63
Time_Shift_394
Note_On_91_Vel_91
Time_Shift_47
Note_On_63_Vel_65
Time_Shift_394
Note_On_87_Vel_91
Time_Shift_16
Note_On_67_Vel_58
Time_Shift_419
Note_On_85_Vel_86
Time_Shift_43
Note_On_68_Vel_49
Time_Shift_422
Note_On_84_Vel_86
Time_Shift_36
Note_On_80_Vel_57
Time_Shift_27
Note_On_75_Vel_38
Time_Shift_548
Note_On_82_Vel_0
Time_Shift_11
Note_On_82_Vel_75
Time_Shift_17
Note_On_79_Vel_51
Time_Shift_34
Note_On_63_Vel_0
Time_Shift_4
Note_On_63_Vel_36
Time_Shift_119
Note_On_67_Vel_0
Time_Shift_7
Note_On_94_Vel_0
Time_Shift_8
Note_On_91_Vel_0
Time_Shift_8
Note_On_58_Vel_0
Note_On_84_Vel_0
Time_Shift_23
Note_On_68_Vel_0
Time_Shift_23
Note_On_87_Vel_0
Time_Shift_15
Note_On_80_Vel_0
Time_Shift_23
Note_On_85_Vel_0
Time_Shift_284
Note_On_75_Vel_0
Time_Shift_108
Sustain_Off
Time_Shift_1
Note_On_75_Vel_50
Time_Shift_260
Note_On_63_Vel_0
Time_Shift_259
Note_On_74_Vel_45
Time_Shift_179
Sustain_On
Time_Shift_230
Sustain_Off
Time_Shift_218
Note_On_73_Vel_36
Time_Shift_66
Note_On_75_Vel_0
Time_Shift_22
Note_On_74_Vel_0
Time_Shift_1
Note_On_79_Vel_0
Time_Shift_208
Sustain_On
Time_Shift_246
Note_On_82_Vel_0
Time_Shift_326
Note_On_82_Vel_72
Time_Shift_4
Note_On_78_Vel_62
Time_Shift_108
Note_On_42_Vel_42
Time_Shift_7
Note_On_73_Vel_0
Time_Shift_84
Sustain_Off
Time_Shift_85
Sustain_On
Time_Shift_235
Note_On_70_Vel_50
Time_Shift_139
Note_On_49_Vel_39
Time_Shift_135
Note_On_75_Vel_58
Time_Shift_241
Note_On_73_Vel_61
Time_Shift_17
Note_On_54_Vel_49
Time_Shift_246
Note_On_71_Vel_59
Time_Shift_161
Note_On_61_Vel_52
Time_Shift_78
Note_On_70_Vel_0
Time_Shift_6
Note_On_70_Vel_57
Time_Shift_304
Note_On_80_Vel_63
Time_Shift_1
Note_On_77_Vel_59
Time_Shift_43
Note_On_37_Vel_39
Time_Shift_1
Note_On_49_Vel_0
Note_On_71_Vel_0
Note_On_73_Vel_0
Note_On_61_Vel_0
Time_Shift_1
Note_On_78_Vel_0
Note_On_82_Vel_0
Note_On_70_Vel_0
Note_On_75_Vel_0
Note_On_54_Vel_0
Note_On_42_Vel_0
Time_Shift_5
Sustain_Off
Time_Shift_100
Sustain_On
Time_Shift_309
Note_On_68_Vel_35
Time_Shift_43
Note_On_61_Vel_38
Time_Shift_515
Note_On_80_Vel_0
Time_Shift_11
Note_On_80_Vel_59
Time_Shift_9
Note_On_76_Vel_41
Time_Shift_46
Note_On_40_Vel_37
Time_Shift_33
Sustain_Off
Time_Shift_13
Note_On_61_Vel_0
Note_On_37_Vel_0
Note_On_68_Vel_0
Time_Shift_1
Note_On_77_Vel_0
Time_Shift_79
Sustain_On
Time_Shift_69
Note_On_68_Vel_40
Time_Shift_195
Note_On_71_Vel_38
Time_Shift_24
Note_On_47_Vel_42
Time_Shift_135
Note_On_73_Vel_54
Time_Shift_111
Note_On_52_Vel_44
Time_Shift_27
Note_On_71_Vel_0
Time_Shift_5
Note_On_71_Vel_46
Time_Shift_141
Note_On_73_Vel_0
Time_Shift_4
Note_On_73_Vel_54
Time_Shift_119
Note_On_71_Vel_0
Time_Shift_10
Note_On_71_Vel_52
Time_Shift_39
Note_On_59_Vel_44
Time_Shift_152
Note_On_69_Vel_41
Time_Shift_144
Note_On_68_Vel_0
Time_Shift_11
Note_On_68_Vel_45
Time_Shift_193
Sustain_Off
Time_Shift_11
Note_On_47_Vel_0
Time_Shift_10
Note_On_47_Vel_29
Time_Shift_2
Note_On_35_Vel_31
Time_Shift_48
Note_On_78_Vel_52
Time_Shift_17
Note_On_47_Vel_0
Time_Shift_5
Note_On_47_Vel_38
Time_Shift_7
Note_On_75_Vel_38
Time_Shift_53
Note_On_59_Vel_0
Time_Shift_1
Note_On_52_Vel_0
Note_On_73_Vel_0
Note_On_68_Vel_0
Time_Shift_1
Note_On_40_Vel_0
Note_On_76_Vel_0
Note_On_69_Vel_0
Time_Shift_18
Note_On_35_Vel_0
Note_On_80_Vel_0
Time_Shift_46
Sustain_On
Time_Shift_302
Note_On_66_Vel_47
Time_Shift_28
Note_On_59_Vel_36
Time_Shift_361
Note_On_75_Vel_0
Time_Shift_11
Note_On_75_Vel_58
Time_Shift_20
Note_On_59_Vel_0
Note_On_66_Vel_0
Time_Shift_4
Note_On_66_Vel_25
Time_Shift_2
Note_On_59_Vel_29
Time_Shift_3
Note_On_69_Vel_30
Time_Shift_28
Sustain_Off
Time_Shift_32
Sustain_On
Time_Shift_292
Note_On_71_Vel_0
Time_Shift_7
Note_On_59_Vel_0
Time_Shift_8
Note_On_66_Vel_0
Time_Shift_2
Note_On_59_Vel_28
Time_Shift_6
Note_On_66_Vel_43
Time_Shift_215
Note_On_47_Vel_0
Time_Shift_169
Note_On_75_Vel_0
Time_Shift_8
Note_On_75_Vel_52
Time_Shift_15
Note_On_69_Vel_0
Time_Shift_7
Note_On_59_Vel_0
Time_Shift_2
Note_On_69_Vel_23
Time_Shift_3
Note_On_59_Vel_27
Time_Shift_379
Note_On_59_Vel_0
Time_Shift_4
Note_On_65_Vel_36
Note_On_59_Vel_31
Time_Shift_425
Note_On_74_Vel_46
Time_Shift_59
Note_On_58_Vel_31
Time_Shift_81
Note_On_78_Vel_0
Time_Shift_46
Note_On_59_Vel_0
Sustain_Off
Time_Shift_15
Note_On_66_Vel_0
Time_Shift_77
Sustain_On
Time_Shift_85
Note_On_69_Vel_0
Time_Shift_74
Note_On_56_Vel_38
Time_Shift_18
Note_On_75_Vel_0
Time_Shift_371
Note_On_75_Vel_65
Time_Shift_34
Note_On_63_Vel_42
Time_Shift_3
Note_On_54_Vel_40
Time_Shift_2
Note_On_70_Vel_39
Time_Shift_58
Note_On_74_Vel_0
Time_Shift_39
Note_On_65_Vel_0
Time_Shift_263
Note_On_77_Vel_76
Time_Shift_28
Note_On_70_Vel_0
Time_Shift_3
Note_On_65_Vel_46
Time_Shift_1
Note_On_50_Vel_45
Time_Shift_1
Note_On_70_Vel_44
Time_Shift_370
Note_On_78_Vel_79
Time_Shift_28
Note_On_51_Vel_50
Time_Shift_4
Note_On_70_Vel_0
Time_Shift_10
Note_On_70_Vel_47
Time_Shift_2
Note_On_66_Vel_46
Time_Shift_155
Note_On_56_Vel_0
Note_On_75_Vel_0
Sustain_Off
Time_Shift_1
Note_On_58_Vel_0
Note_On_50_Vel_0
Note_On_63_Vel_0
Note_On_54_Vel_0
Note_On_65_Vel_0
Time_Shift_1
Note_On_77_Vel_0
Time_Shift_31
Sustain_On
Time_Shift_200
Note_On_75_Vel_79
Time_Shift_385
Note_On_73_Vel_74
Time_Shift_33
Note_On_63_Vel_52
Time_Shift_363
Note_On_71_Vel_76
Time_Shift_317
Note_On_75_Vel_0
Time_Shift_42
Note_On_67_Vel_50
Time_Shift_37
Note_On_61_Vel_50
Time_Shift_3
Note_On_52_Vel_42
Time_Shift_52
Note_On_73_Vel_0
Time_Shift_1
Note_On_63_Vel_0
Time_Shift_1
Note_On_51_Vel_0
Time_Shift_1
Note_On_66_Vel_0
Time_Shift_6
Sustain_Off
Time_Shift_3
Note_On_78_Vel_0
Time_Shift_8
Note_On_70_Vel_0
Time_Shift_7
Sustain_On
Time_Shift_259
Note_On_70_Vel_73
Time_Shift_383
Note_On_69_Vel_69
Time_Shift_6
Note_On_63_Vel_55
Time_Shift_33
Note_On_60_Vel_39
Note_On_53_Vel_48
Time_Shift_64
Note_On_69_Vel_0
Time_Shift_9
Note_On_69_Vel_33
Time_Shift_26
Note_On_71_Vel_0
Time_Shift_3
Note_On_52_Vel_0
Note_On_67_Vel_0
Note_On_70_Vel_0
Time_Shift_3
Note_On_61_Vel_0
Time_Shift_3
Sustain_Off
Time_Shift_79
Sustain_On
Time_Shift_203
Note_On_67_Vel_74
Time_Shift_227
Note_On_69_Vel_0
Time_Shift_11
Note_On_69_Vel_78
Time_Shift_214
Note_On_70_Vel_83
Time_Shift_24
Note_On_61_Vel_71
Time_Shift_11
Note_On_58_Vel_63
Time_Shift_17
Note_On_60_Vel_0
Time_Shift_17
Note_On_54_Vel_53
Time_Shift_41
Sustain_Off
Time_Shift_65
Sustain_On
Time_Shift_176
Note_On_67_Vel_0
Time_Shift_8
Note_On_69_Vel_0
Time_Shift_31
Note_On_63_Vel_0
Time_Shift_6
Note_On_63_Vel_81
Time_Shift_454
Note_On_70_Vel_0
Time_Shift_11
Note_On_70_Vel_81
Time_Shift_20
Note_On_61_Vel_0
Time_Shift_6
Note_On_61_Vel_60
Time_Shift_5
Note_On_64_Vel_58
Time_Shift_6
Note_On_55_Vel_60
Time_Shift_167
Note_On_53_Vel_0
Time_Shift_4
Note_On_58_Vel_0
Note_On_63_Vel_0
Time_Shift_9
Sustain_Off
Time_Shift_3
Note_On_54_Vel_0
Time_Shift_107
Sustain_On
Time_Shift_159
Note_On_54_Vel_71
Time_Shift_410
Note_On_55_Vel_0
Time_Shift_7
Note_On_55_Vel_75
Time_Shift_392
Note_On_57_Vel_75
Time_Shift_425
Note_On_58_Vel_72
Time_Shift_104
Note_On_55_Vel_0
Time_Shift_6
Note_On_64_Vel_0
Time_Shift_1
Note_On_54_Vel_0
Time_Shift_11
Sustain_Off
Time_Shift_29
Sustain_On
Time_Shift_253
Note_On_57_Vel_0
Time_Shift_6
Note_On_57_Vel_73
Time_Shift_210
Note_On_61_Vel_0
Note_On_70_Vel_0
Time_Shift_162
Note_On_55_Vel_71
Time_Shift_405
Note_On_52_Vel_73
Time_Shift_398
Note_On_70_Vel_79
Time_Shift_6
Note_On_64_Vel_59
Time_Shift_3
Note_On_67_Vel_62
Time_Shift_23
Note_On_49_Vel_59
Time_Shift_111
Note_On_58_Vel_0
Sustain_Off
Time_Shift_1
Note_On_57_Vel_0
Time_Shift_3
Note_On_55_Vel_0
Time_Shift_40
Sustain_On
Time_Shift_255
Note_On_46_Vel_73
Time_Shift_513
Note_On_70_Vel_0
Time_Shift_8
Note_On_70_Vel_79
Time_Shift_7
Note_On_64_Vel_0
Time_Shift_7
Note_On_64_Vel_60
Time_Shift_4
Note_On_61_Vel_63
Time_Shift_2
Note_On_43_Vel_65
Time_Shift_71
Note_On_46_Vel_0
Time_Shift_3
Note_On_49_Vel_0
Time_Shift_1
Note_On_67_Vel_0
Time_Shift_15
Sustain_Off
Time_Shift_20
Note_On_52_Vel_0
Time_Shift_23
Sustain_On
Time_Shift_446
Note_On_55_Vel_68
Time_Shift_509
Note_On_54_Vel_58
Time_Shift_31
Sustain_Off
Time_Shift_135
Sustain_On
Time_Shift_85
Note_On_55_Vel_0
Time_Shift_202
Note_On_55_Vel_54
Time_Shift_135
Note_On_54_Vel_0
Time_Shift_397
Note_On_58_Vel_47
Time_Shift_153
Sustain_Off
Time_Shift_111
Note_On_55_Vel_0
Time_Shift_31
Sustain_On
Time_Shift_353
Note_On_56_Vel_46
Time_Shift_548
Note_On_55_Vel_35
Time_Shift_1
Note_On_63_Vel_37
Time_Shift_173
Sustain_Off
Time_Shift_15
Note_On_56_Vel_0
Note_On_64_Vel_0
Time_Shift_69
Sustain_On
Time_Shift_245
Note_On_53_Vel_43
Time_Shift_569
Note_On_70_Vel_0
Time_Shift_4
Note_On_70_Vel_40
Time_Shift_48
Note_On_51_Vel_40
Time_Shift_188
Note_On_53_Vel_0
Time_Shift_22
Note_On_58_Vel_0
Note_On_61_Vel_0
Sustain_Off
Time_Shift_7
Note_On_43_Vel_0
Time_Shift_77
Sustain_On
Time_Shift_465
Note_On_43_Vel_36
Time_Shift_311
Note_On_55_Vel_0
Time_Shift_269
Note_On_63_Vel_0
Time_Shift_538
Note_On_60_Vel_26
Time_Shift_11
Note_On_72_Vel_34
Time_Shift_4
Note_On_44_Vel_31
Time_Shift_2
Note_On_56_Vel_28
Time_Shift_1
Note_On_63_Vel_34
Time_Shift_108
Sustain_Off
Time_Shift_15
Note_On_51_Vel_0
Time_Shift_3
Note_On_43_Vel_0
Time_Shift_101
Note_On_70_Vel_0
Time_Shift_54
Sustain_On
Time_Shift_266
Note_On_51_Vel_31
Time_Shift_409
Note_On_72_Vel_0
Time_Shift_7
Note_On_72_Vel_48
Time_Shift_2
Note_On_68_Vel_38
Time_Shift_15
Note_On_63_Vel_0
Time_Shift_4
Note_On_63_Vel_46
Time_Shift_11
Note_On_56_Vel_0
Note_On_60_Vel_0
Time_Shift_5
Note_On_60_Vel_32
Time_Shift_5
Note_On_56_Vel_30
Time_Shift_359
Note_On_51_Vel_0
Time_Shift_8
Note_On_51_Vel_47
Time_Shift_401
Note_On_71_Vel_54
Time_Shift_5
Note_On_62_Vel_44
Time_Shift_16
Note_On_56_Vel_0
Note_On_68_Vel_0
Time_Shift_6
Note_On_68_Vel_31
Time_Shift_2
Note_On_56_Vel_28
Time_Shift_8
Note_On_53_Vel_35
Time_Shift_134
Sustain_Off
Time_Shift_2
Note_On_60_Vel_0
Note_On_51_Vel_0
Note_On_56_Vel_0
Note_On_63_Vel_0
Time_Shift_3
Note_On_44_Vel_0
Time_Shift_60
Sustain_On
Time_Shift_160
Note_On_56_Vel_41
Time_Shift_1
Note_On_59_Vel_42
Time_Shift_361
Note_On_72_Vel_0
Time_Shift_11
Note_On_72_Vel_49
Time_Shift_30
Note_On_63_Vel_44
Time_Shift_3
Note_On_44_Vel_38
Time_Shift_56
Note_On_59_Vel_0
Note_On_71_Vel_0
Note_On_62_Vel_0
Time_Shift_1
Note_On_56_Vel_0
Note_On_53_Vel_0
Time_Shift_3
Sustain_Off
Time_Shift_42
Note_On_68_Vel_0
Time_Shift_115
Sustain_On
Time_Shift_162
Note_On_51_Vel_46
Time_Shift_399
Note_On_63_Vel_0
Note_On_72_Vel_0
Time_Shift_5
Note_On_63_Vel_41
Time_Shift_2
Note_On_68_Vel_36
Time_Shift_1
Note_On_72_Vel_47
Time_Shift_19
Note_On_60_Vel_32
Time_Shift_29
Note_On_56_Vel_34
Time_Shift_320
Note_On_51_Vel_0
Time_Shift_5
Note_On_51_Vel_42
Time_Shift_433
Note_On_44_Vel_0
Time_Shift_11
Note_On_44_Vel_45
Time_Shift_14
Note_On_56_Vel_0
Note_On_60_Vel_0
Note_On_51_Vel_0
Time_Shift_2
Note_On_63_Vel_0
Time_Shift_3
Sustain_Off
Time_Shift_23
Note_On_68_Vel_0
Time_Shift_93
Sustain_On
Time_Shift_79
Note_On_75_Vel_45
Time_Shift_20
Note_On_44_Vel_0
Time_Shift_141
Note_On_80_Vel_60
Time_Shift_25
Note_On_51_Vel_33
Time_Shift_147
Note_On_84_Vel_51
Time_Shift_189
Note_On_96_Vel_67
Time_Shift_39
Note_On_60_Vel_41
Time_Shift_20
Note_On_56_Vel_39
Time_Shift_139
Note_On_87_Vel_54
Time_Shift_161
Note_On_84_Vel_0
Time_Shift_10
Note_On_84_Vel_50
Time_Shift_36
Note_On_51_Vel_0
Time_Shift_4
Note_On_51_Vel_34
Time_Shift_115
Note_On_92_Vel_62
Time_Shift_200
Note_On_95_Vel_70
Time_Shift_30
Note_On_53_Vel_42
Time_Shift_162
Note_On_86_Vel_49
Time_Shift_149
Note_On_83_Vel_57
Time_Shift_8
Note_On_56_Vel_0
Time_Shift_9
Note_On_59_Vel_46
Note_On_56_Vel_38
Time_Shift_160
Note_On_92_Vel_0
Time_Shift_10
Note_On_92_Vel_64
Time_Shift_190
Note_On_96_Vel_0
Time_Shift_9
Note_On_96_Vel_65
Time_Shift_41
Sustain_Off
Time_Shift_7
Note_On_44_Vel_47
Time_Shift_20
Note_On_86_Vel_0
Time_Shift_1
Note_On_83_Vel_0
Note_On_60_Vel_0
Time_Shift_1
Note_On_53_Vel_0
Note_On_51_Vel_0
Note_On_80_Vel_0
Note_On_56_Vel_0
Time_Shift_1
Note_On_92_Vel_0
Note_On_59_Vel_0
Time_Shift_4
Note_On_72_Vel_0
Time_Shift_31
Note_On_75_Vel_0
Note_On_95_Vel_0
Time_Shift_7
Note_On_87_Vel_0
Sustain_On
Time_Shift_75
Note_On_87_Vel_58
Time_Shift_156
Note_On_84_Vel_0
Time_Shift_7
Note_On_84_Vel_49
Time_Shift_77
Note_On_51_Vel_28
Time_Shift_98
Note_On_75_Vel_54
Time_Shift_48
Note_On_96_Vel_0
Time_Shift_131
Note_On_84_Vel_0
Time_Shift_11
Note_On_84_Vel_57
Time_Shift_62
Note_On_60_Vel_38
Note_On_56_Vel_24
Time_Shift_115
Note_On_80_Vel_54
Time_Shift_186
Note_On_72_Vel_47
Time_Shift_17
Note_On_51_Vel_0
Time_Shift_7
Note_On_51_Vel_41
Time_Shift_185
Note_On_75_Vel_0
Time_Shift_11
Note_On_75_Vel_36
Time_Shift_295
Note_On_67_Vel_34
Time_Shift_14
Sustain_Off
Time_Shift_23
Note_On_75_Vel_0
Time_Shift_1
Note_On_39_Vel_40
Time_Shift_5
Note_On_60_Vel_0
Time_Shift_12
Sustain_On
Time_Shift_31
Note_On_44_Vel_0
Note_On_56_Vel_0
Time_Shift_8
Note_On_87_Vel_0
Time_Shift_15
Note_On_72_Vel_0
Time_Shift_88
Note_On_73_Vel_43
Time_Shift_21
Note_On_75_Vel_40
Time_Shift_221
Note_On_84_Vel_0
Time_Shift_9
Note_On_84_Vel_60
Time_Shift_61
Note_On_51_Vel_0
Time_Shift_4
Note_On_51_Vel_46
Time_Shift_273
Note_On_82_Vel_74
Time_Shift_30
Note_On_80_Vel_0
Time_Shift_138
Note_On_67_Vel_0
Time_Shift_5
Note_On_67_Vel_54
Time_Shift_15
Note_On_58_Vel_46
Time_Shift_118
Note_On_75_Vel_0
Time_Shift_11
Note_On_75_Vel_65
Time_Shift_20
Note_On_73_Vel_0
Time_Shift_4
Note_On_73_Vel_60
Time_Shift_142
Note_On_80_Vel_75
Time_Shift_31
Note_On_51_Vel_0
Time_Shift_11
Note_On_51_Vel_54
Time_Shift_228
Note_On_79_Vel_72
Time_Shift_175
Note_On_58_Vel_0
Time_Shift_4
Note_On_63_Vel_62
Note_On_58_Vel_50
Time_Shift_27
Note_On_43_Vel_47
Time_Shift_100
Note_On_73_Vel_0
Time_Shift_5
Note_On_73_Vel_70
Time_Shift_5
Note_On_70_Vel_61
Time_Shift_167
Note_On_77_Vel_77
Time_Shift_69
Note_On_51_Vel_0
Time_Shift_6
Note_On_51_Vel_50
Time_Shift_1
Note_On_67_Vel_0
Time_Shift_269
Note_On_73_Vel_0
Note_On_75_Vel_0
Time_Shift_8
Note_On_75_Vel_72
Time_Shift_4
Note_On_73_Vel_66
Time_Shift_188
Note_On_75_Vel_0
Time_Shift_11
Note_On_75_Vel_74
Time_Shift_7
Note_On_72_Vel_63
Time_Shift_28
Note_On_44_Vel_47
Time_Shift_36
Note_On_58_Vel_0
Time_Shift_1
Note_On_43_Vel_0
Time_Shift_1
Note_On_63_Vel_0
Note_On_70_Vel_0
Note_On_82_Vel_0
Note_On_51_Vel_0
Time_Shift_1
Note_On_80_Vel_0
Note_On_79_Vel_0
Time_Shift_1
Note_On_77_Vel_0
Time_Shift_6
Note_On_84_Vel_0
Time_Shift_3
Sustain_Off
Time_Shift_5
Note_On_73_Vel_0
Time_Shift_23
Note_On_39_Vel_0
Time_Shift_15
Sustain_On
Time_Shift_159
Note_On_63_Vel_63
Time_Shift_97
Note_On_51_Vel_51
Time_Shift_129
Note_On_74_Vel_68
Time_Shift_6
Note_On_71_Vel_56
Time_Shift_252
Note_On_73_Vel_61
Time_Shift_22
Note_On_60_Vel_35
Time_Shift_20
Note_On_51_Vel_0
Note_On_72_Vel_0
Time_Shift_1
Note_On_74_Vel_0
Note_On_63_Vel_0
Time_Shift_1
Note_On_71_Vel_0
Time_Shift_27
Note_On_75_Vel_0
Time_Shift_4
Sustain_Off
Time_Shift_65
Sustain_On
Time_Shift_127
Note_On_63_Vel_46
Time_Shift_191
Note_On_51_Vel_41
Time_Shift_117
Note_On_72_Vel_61
Time_Shift_13
Note_On_68_Vel_46
Time_Shift_294
Note_On_61_Vel_48
Time_Shift_50
Note_On_39_Vel_42
Time_Shift_84
Note_On_44_Vel_0
Time_Shift_14
Note_On_60_Vel_0
Time_Shift_66
Note_On_67_Vel_43
Time_Shift_143
Note_On_72_Vel_0
Time_Shift_11
Note_On_72_Vel_51
Time_Shift_50
Note_On_51_Vel_0
Time_Shift_4
Note_On_51_Vel_43
Time_Shift_92
Note_On_70_Vel_54
Time_Shift_142
Note_On_63_Vel_0
Time_Shift_12
Note_On_63_Vel_51
Time_Shift_126
Note_On_61_Vel_0
Time_Shift_11
Note_On_61_Vel_53
Time_Shift_38
Note_On_58_Vel_44
Time_Shift_105
Note_On_67_Vel_0
Time_Shift_9
Note_On_67_Vel_50
Time_Shift_137
Note_On_72_Vel_0
Time_Shift_5
Note_On_72_Vel_60
Time_Shift_10
Note_On_68_Vel_0
Time_Shift_62
Note_On_51_Vel_0
Time_Shift_11
Note_On_51_Vel_43
Time_Shift_96
Note_On_70_Vel_0
Time_Shift_11
Note_On_70_Vel_51
Time_Shift_150
Note_On_63_Vel_0
Time_Shift_9
Note_On_63_Vel_48
Time_Shift_214
Note_On_61_Vel_0
Time_Shift_4
Note_On_61_Vel_32
Time_Shift_65
Note_On_39_Vel_0
Time_Shift_9
Note_On_39_Vel_35
Time_Shift_25
Sustain_Off
Time_Shift_43
Sustain_On
Time_Shift_1
Note_On_72_Vel_0
Time_Shift_3
Note_On_58_Vel_0
Time_Shift_65
Note_On_73_Vel_0
Time_Shift_8
Note_On_67_Vel_0
Time_Shift_4
Note_On_67_Vel_45
Time_Shift_292
Note_On_73_Vel_52
Time_Shift_188
Note_On_51_Vel_0
Time_Shift_10
Note_On_51_Vel_41
Time_Shift_28
Note_On_63_Vel_0
Time_Shift_7
Note_On_63_Vel_37
Time_Shift_211
Note_On_72_Vel_52
Time_Shift_296
Note_On_68_Vel_37
Time_Shift_31
Note_On_60_Vel_37
Time_Shift_34
Note_On_44_Vel_43
Time_Shift_71
Note_On_67_Vel_0
Note_On_63_Vel_0
Note_On_51_Vel_0
Time_Shift_1
Note_On_72_Vel_0
Time_Shift_1
Note_On_73_Vel_0
Time_Shift_1
Note_On_70_Vel_0
Time_Shift_8
Note_On_39_Vel_0
Time_Shift_7
Sustain_Off
Time_Shift_8
Note_On_61_Vel_0
Time_Shift_77
Sustain_On
Time_Shift_117
Note_On_63_Vel_53
Time_Shift_122
Note_On_51_Vel_44
Time_Shift_122
Note_On_68_Vel_0
Time_Shift_10
Note_On_68_Vel_65
Time_Shift_293
Note_On_70_Vel_73
Note_On_56_Vel_44
Time_Shift_282
Note_On_72_Vel_75
Time_Shift_29
Note_On_68_Vel_0
Time_Shift_6
Note_On_68_Vel_59
Time_Shift_140
Note_On_60_Vel_0
Time_Shift_10
Note_On_60_Vel_58
Time_Shift_105
Note_On_63_Vel_0
Time_Shift_8
Note_On_63_Vel_66
Time_Shift_397
Note_On_75_Vel_85
Time_Shift_25
Note_On_72_Vel_0
Time_Shift_10
Note_On_72_Vel_60
Time_Shift_9
Note_On_66_Vel_47
Time_Shift_27
Note_On_56_Vel_0
Time_Shift_12
Note_On_56_Vel_40
Time_Shift_227
Sustain_Off
Time_Shift_84
Sustain_On
Time_Shift_92
Note_On_51_Vel_0
Time_Shift_9
Note_On_51_Vel_52
Time_Shift_344
Note_On_72_Vel_0
Time_Shift_11
Note_On_72_Vel_81
Time_Shift_12
Note_On_66_Vel_0
Time_Shift_8
Note_On_68_Vel_0
Time_Shift_3
Note_On_66_Vel_57
Time_Shift_4
Note_On_68_Vel_54
Time_Shift_24
Note_On_56_Vel_0
Note_On_60_Vel_0
Time_Shift_4
Note_On_56_Vel_45
Time_Shift_3
Note_On_60_Vel_40
Time_Shift_346
Note_On_51_Vel_0
Time_Shift_5
Note_On_51_Vel_61
Time_Shift_364
Note_On_68_Vel_0
Time_Shift_4
Note_On_68_Vel_76
Time_Shift_11
Note_On_66_Vel_0
Time_Shift_10
Note_On_66_Vel_57
Time_Shift_6
Note_On_63_Vel_0
Note_On_70_Vel_0
Time_Shift_30
Note_On_60_Vel_0
Time_Shift_8
Note_On_56_Vel_0
Time_Shift_4
Note_On_60_Vel_57
Time_Shift_6
Note_On_56_Vel_46
Time_Shift_268
Sustain_Off
Time_Shift_75
Note_On_51_Vel_0
Sustain_On
Time_Shift_6
Note_On_51_Vel_49
Time_Shift_94
Note_On_75_Vel_0
Time_Shift_138
Note_On_72_Vel_0
Time_Shift_6
Note_On_72_Vel_72
Time_Shift_114
Note_On_70_Vel_76
Time_Shift_157
Note_On_68_Vel_0
Time_Shift_10
Note_On_68_Vel_65
Time_Shift_22
Note_On_65_Vel_44
Time_Shift_8
Note_On_61_Vel_35
Time_Shift_1
Note_On_49_Vel_40
Time_Shift_5
Note_On_61_Vel_0
Time_Shift_83
Sustain_Off
Time_Shift_57
Note_On_56_Vel_0
Time_Shift_2
Note_On_72_Vel_0
Note_On_51_Vel_0
Time_Shift_11
Note_On_66_Vel_0
Time_Shift_31
Note_On_44_Vel_0
Time_Shift_8
Note_On_60_Vel_0
Time_Shift_8
Sustain_On
Time_Shift_61
Note_On_70_Vel_0
Time_Shift_119
Note_On_56_Vel_51
Time_Shift_4
Sustain_Off
Time_Shift_84
Sustain_On
Time_Shift_288
Note_On_64_Vel_45
Time_Shift_23
Note_On_61_Vel_45
Time_Shift_66
Sustain_Off
Time_Shift_63
Note_On_56_Vel_0
Time_Shift_13
Note_On_65_Vel_0
Time_Shift_31
Sustain_On
Time_Shift_219
Note_On_70_Vel_67
Time_Shift_1
Note_On_56_Vel_41
Time_Shift_459
Note_On_72_Vel_65
Time_Shift_18
Note_On_63_Vel_58
Time_Shift_47
Sustain_Off
Note_On_44_Vel_46
Time_Shift_8
Note_On_64_Vel_0
Time_Shift_2
Note_On_61_Vel_0
Time_Shift_3
Note_On_49_Vel_0
Time_Shift_80
Note_On_68_Vel_0
Time_Shift_23
Sustain_On
Time_Shift_266
Note_On_51_Vel_54
Time_Shift_435
Note_On_68_Vel_45
Time_Shift_14
Note_On_63_Vel_0
Time_Shift_7
Note_On_56_Vel_0
Time_Shift_3
Note_On_60_Vel_38
Time_Shift_1
Note_On_63_Vel_47
Time_Shift_1
Note_On_56_Vel_37
Time_Shift_29
Sustain_Off
Time_Shift_74
Sustain_On
Time_Shift_246
Note_On_70_Vel_0
Time_Shift_90
Sustain_Off
Time_Shift_2
Note_On_51_Vel_0
Time_Shift_9
Note_On_51_Vel_48
Time_Shift_29
Sustain_On
Time_Shift_510
Note_On_39_Vel_38
Time_Shift_33
Note_On_61_Vel_39
Time_Shift_12
Note_On_55_Vel_27
Time_Shift_110
Note_On_68_Vel_0
Note_On_60_Vel_0
Note_On_56_Vel_0
Time_Shift_1
Note_On_44_Vel_0
Time_Shift_2
Note_On_72_Vel_0
Time_Shift_16
Sustain_Off
Time_Shift_84
Sustain_On
Time_Shift_346
Note_On_51_Vel_0
Time_Shift_9
Note_On_51_Vel_33
Time_Shift_137
Note_On_51_Vel_0
Time_Shift_9
Note_On_51_Vel_14
Time_Shift_501
Note_On_32_Vel_32
Time_Shift_56
Note_On_44_Vel_38
Time_Shift_11
Sustain_Off
Time_Shift_6
Note_On_39_Vel_0
Note_On_63_Vel_0
Time_Shift_46
Note_On_55_Vel_0
Time_Shift_62
Sustain_On
Time_Shift_376
Note_On_51_Vel_0
Time_Shift_12
Note_On_51_Vel_34
Time_Shift_572
Note_On_44_Vel_0
Time_Shift_5
Note_On_44_Vel_23
Time_Shift_28
Note_On_60_Vel_21
Time_Shift_2
Note_On_56_Vel_19
Time_Shift_403
Note_On_61_Vel_0
Time_Shift_384
Note_On_51_Vel_0
Time_Shift_5
Note_On_51_Vel_23
Time_Shift_1523
Note_On_32_Vel_0
Time_Shift_18
Note_On_72_Vel_71
Time_Shift_44
Note_On_61_Vel_37
Time_Shift_2
Note_On_68_Vel_29
Time_Shift_54
Note_On_37_Vel_34
Time_Shift_648
Note_On_65_Vel_21
Time_Shift_586
Note_On_61_Vel_0
Time_Shift_5
Note_On_61_Vel_35
Time_Shift_509
Note_On_65_Vel_0
Time_Shift_6
Note_On_65_Vel_31
Time_Shift_152
Note_On_39_Vel_40
Time_Shift_57
Note_On_44_Vel_0
Time_Shift_107
Note_On_41_Vel_42
Time_Shift_101
Note_On_37_Vel_0
Note_On_51_Vel_0
Note_On_56_Vel_0
Note_On_60_Vel_0
Note_On_68_Vel_0
Time_Shift_34
Note_On_43_Vel_51
Time_Shift_131
Note_On_45_Vel_60
Time_Shift_125
Note_On_46_Vel_59
Time_Shift_29
Note_On_70_Vel_60
Time_Shift_17
Note_On_67_Vel_35
Time_Shift_1
Note_On_61_Vel_0
Time_Shift_11
Note_On_61_Vel_51
Time_Shift_68
Note_On_48_Vel_60
Time_Shift_112
Note_On_49_Vel_59
Time_Shift_112
Note_On_51_Vel_65
Time_Shift_109
Note_On_53_Vel_66
Time_Shift_111
Note_On_65_Vel_0
Time_Shift_5
Note_On_65_Vel_53
Time_Shift_6
Note_On_55_Vel_61
Time_Shift_139
Note_On_57_Vel_67
Time_Shift_170
Note_On_58_Vel_66
Time_Shift_166
Note_On_60_Vel_66
Time_Shift_297
Note_On_61_Vel_0
Time_Shift_5
Note_On_61_Vel_53
Time_Shift_87
Note_On_49_Vel_0
Note_On_67_Vel_0
Time_Shift_2
Note_On_72_Vel_0
Time_Shift_1
Note_On_48_Vel_0
Note_On_46_Vel_0
Time_Shift_5
Note_On_45_Vel_0
Note_On_60_Vel_0
Time_Shift_8
Note_On_43_Vel_0
Note_On_55_Vel_0
Time_Shift_7
Note_On_51_Vel_0
Time_Shift_234
Note_On_52_Vel_59
Time_Shift_182
Sustain_Off
Time_Shift_14
Sustain_On
Time_Shift_31
Note_On_65_Vel_0
Time_Shift_5
Note_On_65_Vel_38
Time_Shift_49
Note_On_53_Vel_0
Time_Shift_9
Note_On_53_Vel_55
Time_Shift_241
Note_On_60_Vel_52
Time_Shift_165
Note_On_39_Vel_0
Note_On_70_Vel_0
Time_Shift_7
Note_On_61_Vel_0
Time_Shift_3
Note_On_70_Vel_50
Time_Shift_5
Note_On_61_Vel_39
Time_Shift_61
Note_On_58_Vel_0
Time_Shift_8
Note_On_58_Vel_54
Time_Shift_38
Note_On_41_Vel_0
Time_Shift_8
Note_On_57_Vel_0
Time_Shift_204
Note_On_49_Vel_45
Time_Shift_34
Note_On_52_Vel_0
Time_Shift_31
Note_On_65_Vel_0
Time_Shift_8
Note_On_60_Vel_0
Time_Shift_7
Note_On_53_Vel_0
Time_Shift_127
Note_On_65_Vel_35
Time_Shift_281
Note_On_37_Vel_37
Time_Shift_598
Note_On_70_Vel_0
Time_Shift_5
Note_On_70_Vel_54
Time_Shift_28
Note_On_60_Vel_34
Time_Shift_48
Note_On_39_Vel_40
Time_Shift_162
Note_On_37_Vel_0
Note_On_49_Vel_0
Time_Shift_11
Note_On_58_Vel_0
Time_Shift_7
Note_On_61_Vel_0
Time_Shift_49
Sustain_Off
Time_Shift_28
Note_On_65_Vel_0
Time_Shift_246
Sustain_On
Time_Shift_77
Note_On_63_Vel_39
Time_Shift_530
Note_On_60_Vel_0
Time_Shift_4
Note_On_60_Vel_29
Time_Shift_433
Note_On_63_Vel_0
Time_Shift_9
Note_On_63_Vel_28
Time_Shift_108
Note_On_41_Vel_40
Time_Shift_166
Note_On_43_Vel_44
Time_Shift_138
Note_On_44_Vel_52
Time_Shift_144
Note_On_46_Vel_55
Time_Shift_115
Note_On_68_Vel_51
Time_Shift_4
Note_On_60_Vel_0
Time_Shift_3
Note_On_48_Vel_52
Time_Shift_8
Note_On_60_Vel_40
Time_Shift_128
Note_On_49_Vel_55
Time_Shift_97
Note_On_51_Vel_62
Time_Shift_113
Note_On_53_Vel_61
Time_Shift_127
Note_On_63_Vel_0
Time_Shift_4
Note_On_55_Vel_51
Time_Shift_5
Note_On_63_Vel_49
Time_Shift_18
Note_On_61_Vel_30
Time_Shift_110
Note_On_56_Vel_67
Time_Shift_150
Note_On_58_Vel_67
Time_Shift_255
Sustain_Off
Time_Shift_34
Note_On_60_Vel_0
Time_Shift_4
Note_On_60_Vel_56
Time_Shift_12
Note_On_56_Vel_0
Time_Shift_7
Note_On_56_Vel_38
Time_Shift_23
Note_On_61_Vel_0
Time_Shift_6
Note_On_49_Vel_0
Note_On_63_Vel_0
Time_Shift_83
Note_On_46_Vel_0
Time_Shift_3
Note_On_70_Vel_0
Time_Shift_5
Note_On_58_Vel_0
Time_Shift_18
Note_On_55_Vel_0
Time_Shift_8
Note_On_43_Vel_0
Time_Shift_39
Note_On_39_Vel_0
Time_Shift_53
Note_On_53_Vel_0
Time_Shift_8
Note_On_68_Vel_0
Time_Shift_46
Sustain_On
Time_Shift_281
Note_On_63_Vel_36
Time_Shift_285
Note_On_50_Vel_45
Time_Shift_118
Note_On_41_Vel_0
Time_Shift_161
Note_On_48_Vel_0
Time_Shift_15
Note_On_51_Vel_0
Time_Shift_16
Note_On_68_Vel_39
Time_Shift_15
Note_On_60_Vel_0
Time_Shift_3
Note_On_51_Vel_47
Time_Shift_3
Note_On_60_Vel_32
Time_Shift_117
Note_On_50_Vel_0
Time_Shift_23
Sustain_Off
Time_Shift_190
Note_On_58_Vel_39
Time_Shift_155
Sustain_On
Time_Shift_231
Note_On_63_Vel_0
Time_Shift_10
Note_On_63_Vel_29
Time_Shift_197
Note_On_56_Vel_0
Time_Shift_58
Note_On_56_Vel_38
Time_Shift_979
Note_On_68_Vel_0
Time_Shift_12
Note_On_68_Vel_43
Time_Shift_7
Note_On_61_Vel_35
Time_Shift_19
Note_On_58_Vel_0
Time_Shift_7
Note_On_58_Vel_25
Time_Shift_6
Note_On_39_Vel_28
Time_Shift_72
Note_On_44_Vel_0
Time_Shift_157
Sustain_Off
Time_Shift_242
Sustain_On
Time_Shift_215
Note_On_63_Vel_0
Time_Shift_4
Note_On_63_Vel_34
Time_Shift_127
Note_On_60_Vel_0
Time_Shift_8
Note_On_51_Vel_0
Time_Shift_453
Note_On_61_Vel_0
Time_Shift_5
Note_On_67_Vel_21
Time_Shift_1
Note_On_61_Vel_26
Time_Shift_327
Note_On_41_Vel_37
Time_Shift_271
Note_On_43_Vel_38
Time_Shift_25
Note_On_63_Vel_0
Time_Shift_5
Note_On_63_Vel_47
Time_Shift_209
Note_On_44_Vel_51
Time_Shift_270
Note_On_67_Vel_0
Time_Shift_5
Note_On_67_Vel_47
Time_Shift_3
Note_On_61_Vel_0
Time_Shift_11
Note_On_61_Vel_44
Time_Shift_12
Note_On_44_Vel_0
Time_Shift_11
Note_On_44_Vel_39
Time_Shift_1
Note_On_46_Vel_41
Time_Shift_218
Note_On_48_Vel_49
Time_Shift_277
Note_On_63_Vel_0
Time_Shift_2
Note_On_49_Vel_50
Time_Shift_6
Note_On_63_Vel_39
Time_Shift_270
Note_On_50_Vel_55
Time_Shift_336
Note_On_67_Vel_0
Time_Shift_10
Note_On_67_Vel_46
Time_Shift_6
Note_On_61_Vel_0
Time_Shift_4
Note_On_61_Vel_39
Time_Shift_19
Note_On_56_Vel_0
Time_Shift_40
Note_On_56_Vel_27
Time_Shift_2
Note_On_51_Vel_49
Time_Shift_86
Sustain_Off
Time_Shift_10
Note_On_58_Vel_0
Time_Shift_2
Note_On_43_Vel_0
Time_Shift_36
Sustain_On
Time_Shift_8
Note_On_68_Vel_0
Time_Shift_119
Note_On_52_Vel_55
Time_Shift_326
Note_On_55_Vel_41
Time_Shift_16
Note_On_63_Vel_0
Time_Shift_5
Note_On_63_Vel_46
Time_Shift_33
Sustain_Off
Time_Shift_31
Note_On_56_Vel_0
Time_Shift_54
Note_On_39_Vel_0
Sustain_On
Time_Shift_7
Note_On_41_Vel_0
Time_Shift_77
Note_On_48_Vel_0
Time_Shift_69
Note_On_51_Vel_0
Time_Shift_30
Note_On_53_Vel_46
Time_Shift_1
Note_On_49_Vel_0
Time_Shift_131
Note_On_46_Vel_0
Time_Shift_38
Note_On_50_Vel_0
Time_Shift_349
Note_On_51_Vel_39
Time_Shift_477
Note_On_49_Vel_33
Time_Shift_380
Note_On_63_Vel_0
Time_Shift_11
Note_On_63_Vel_30
Time_Shift_25
Note_On_46_Vel_28
Time_Shift_494
Note_On_51_Vel_0
Time_Shift_11
Note_On_51_Vel_30
Time_Shift_588
Note_On_44_Vel_0
Time_Shift_318
Note_On_68_Vel_34
Time_Shift_45
Note_On_60_Vel_12
Time_Shift_9
Note_On_44_Vel_22
Time_Shift_219
Note_On_52_Vel_0
Time_Shift_3
Sustain_Off
Time_Shift_7
Note_On_67_Vel_0
Time_Shift_1
Note_On_49_Vel_0
Time_Shift_1
Note_On_63_Vel_0
Note_On_51_Vel_0
Time_Shift_1
Note_On_46_Vel_0
Time_Shift_25
Note_On_53_Vel_0
Note_On_55_Vel_0
Time_Shift_8
Note_On_61_Vel_0
Time_Shift_753
Sustain_On
Time_Shift_598
Sustain_Off
Time_Shift_47
Note_On_44_Vel_0
Time_Shift_207
Note_On_68_Vel_0
Time_Shift_8
Note_On_60_Vel_0
Time_Shift_6
Note_On_60_Vel_35
Time_Shift_22
Note_On_51_Vel_30
Time_Shift_30
Note_On_32_Vel_19
Time_Shift_6
Note_On_44_Vel_20
Time_Shift_212
Sustain_On
Time_Shift_927
Note_On_59_Vel_51
Time_Shift_3
Note_On_32_Vel_0
Time_Shift_9
Note_On_32_Vel_35
Time_Shift_1
Note_On_50_Vel_36
Time_Shift_1
Note_On_56_Vel_42
Time_Shift_8
Note_On_53_Vel_34
Time_Shift_134
Note_On_51_Vel_0
Time_Shift_58
Sustain_Off
Time_Shift_11
Note_On_60_Vel_0
Time_Shift_100
Sustain_On
Time_Shift_914
Note_On_44_Vel_0
Note_On_56_Vel_0
Time_Shift_3
Note_On_60_Vel_37
Time_Shift_1
Note_On_51_Vel_26
Time_Shift_3
Note_On_44_Vel_30
Time_Shift_3
Note_On_56_Vel_29
Time_Shift_41
Sustain_Off
Time_Shift_21
Note_On_50_Vel_0
Time_Shift_1
Note_On_53_Vel_0
Note_On_59_Vel_0
Time_Shift_280
Sustain_On
Time_Shift_983
Note_On_60_Vel_0
Time_Shift_11
Note_On_60_Vel_33
Time_Shift_12
Note_On_32_Vel_0
Time_Shift_8
Note_On_32_Vel_24
Note_On_51_Vel_0
Time_Shift_4
Note_On_51_Vel_27
Time_Shift_37
Sustain_Off
Time_Shift_335
Sustain_On
Time_Shift_1874
Note_On_32_Vel_0
Time_Shift_9
Note_On_32_Vel_27
Time_Shift_222
Note_On_44_Vel_0
Time_Shift_4
Note_On_44_Vel_37
Time_Shift_226
Note_On_51_Vel_0
Time_Shift_10
Note_On_51_Vel_37
Time_Shift_205
Note_On_56_Vel_0
Time_Shift_10
Note_On_56_Vel_35
Time_Shift_152
Note_On_60_Vel_0
Time_Shift_126
Note_On_60_Vel_25
Time_Shift_393
Note_On_63_Vel_39
Time_Shift_1061
Note_On_68_Vel_32
Time_Shift_2198
Note_On_32_Vel_0
Time_Shift_62
Note_On_44_Vel_0
Note_On_51_Vel_0
Note_On_56_Vel_0
Note_On_60_Vel_0
Note_On_63_Vel_0
Note_On_68_Vel_0
Time_Shift_2718
Sustain_Off
Time_Shift_3977
Note_On_48_Vel_107
Time_Shift_4
Note_On_36_Vel_97
Time_Shift_28
Sustain_On
Time_Shift_108
Note_On_48_Vel_0
Time_Shift_10
Note_On_48_Vel_60
Time_Shift_158
Sustain_Off
Time_Shift_3
Note_On_36_Vel_0
Time_Shift_1
Note_On_48_Vel_0
Time_Shift_54
Note_On_48_Vel_87
Time_Shift_3
Note_On_36_Vel_74
Time_Shift_28
Note_On_48_Vel_0
Time_Shift_1
Note_On_36_Vel_0
Time_Shift_149
Note_On_48_Vel_94
Time_Shift_2
Note_On_36_Vel_85
Time_Shift_27
Note_On_48_Vel_0
Note_On_36_Vel_0
Time_Shift_136
Note_On_48_Vel_105
Time_Shift_2
Note_On_36_Vel_94
Time_Shift_29
Note_On_48_Vel_0
Note_On_36_Vel_0
Time_Shift_71
Note_On_62_Vel_85
Time_Shift_61
Note_On_62_Vel_0
Time_Shift_10
Note_On_65_Vel_75
Time_Shift_71
Note_On_48_Vel_74
Time_Shift_2
Note_On_68_Vel_74
Time_Shift_8
Note_On_65_Vel_0
Time_Shift_13
Note_On_53_Vel_58
Time_Shift_33
Note_On_56_Vel_80
Time_Shift_24
Note_On_71_Vel_80
Time_Shift_1
Note_On_62_Vel_104
Time_Shift_1
Note_On_48_Vel_0
Sustain_On
Time_Shift_6
Note_On_48_Vel_68
Time_Shift_2
Note_On_68_Vel_0
Time_Shift_62
Note_On_74_Vel_84
Time_Shift_66
Note_On_77_Vel_85
Time_Shift_61
Note_On_68_Vel_66
Time_Shift_3
Note_On_80_Vel_86
Time_Shift_49
Note_On_83_Vel_91
Time_Shift_40
Note_On_77_Vel_0
Time_Shift_1
Note_On_62_Vel_0
Note_On_71_Vel_0
Note_On_53_Vel_0
Sustain_Off
Time_Shift_1
Note_On_74_Vel_0
Time_Shift_1
Note_On_56_Vel_0
Note_On_80_Vel_0
Time_Shift_2
Note_On_83_Vel_0
Time_Shift_13
Note_On_68_Vel_0
Time_Shift_5
Note_On_51_Vel_70
Time_Shift_11
Note_On_48_Vel_0
Note_On_51_Vel_0
Time_Shift_5
Note_On_48_Vel_78
Time_Shift_6
Note_On_84_Vel_107
Time_Shift_2
Note_On_55_Vel_85
Time_Shift_4
Note_On_60_Vel_86
Time_Shift_14
Sustain_On
Time_Shift_165
Note_On_72_Vel_91
Time_Shift_90
Note_On_48_Vel_0
Note_On_60_Vel_0
Time_Shift_1
Note_On_72_Vel_0
Sustain_Off
Note_On_55_Vel_0
Note_On_84_Vel_0
Time_Shift_79
Note_On_48_Vel_88
Time_Shift_2
Note_On_36_Vel_83
Time_Shift_1
Note_On_72_Vel_78
Time_Shift_26
Note_On_48_Vel_0
Time_Shift_2
Note_On_36_Vel_0
Time_Shift_102
Note_On_72_Vel_0
Time_Shift_30
Note_On_60_Vel_88
Time_Shift_5
Note_On_48_Vel_98
Time_Shift_4
Note_On_36_Vel_81
Time_Shift_32
Note_On_48_Vel_0
Time_Shift_4
Note_On_60_Vel_0
Time_Shift_27
Note_On_63_Vel_85
Time_Shift_6
Note_On_36_Vel_0
Time_Shift_68
Note_On_63_Vel_0
Time_Shift_18
Note_On_66_Vel_91
Note_On_48_Vel_106
Time_Shift_2
Note_On_36_Vel_88
Time_Shift_34
Note_On_48_Vel_0
Time_Shift_10
Note_On_66_Vel_0
Time_Shift_21
Note_On_36_Vel_0
Time_Shift_13
Note_On_69_Vel_86
Time_Shift_54
Note_On_69_Vel_0
Time_Shift_19
Note_On_72_Vel_86
Time_Shift_50
Note_On_72_Vel_0
Time_Shift_26
Note_On_48_Vel_87
Time_Shift_2
Note_On_75_Vel_83
Time_Shift_56
Note_On_57_Vel_75
Time_Shift_32
Note_On_78_Vel_90
Time_Shift_6
Note_On_63_Vel_104
Time_Shift_19
Sustain_On
Time_Shift_45
Note_On_81_Vel_94
Time_Shift_79
Note_On_84_Vel_87
Time_Shift_2
Note_On_62_Vel_88
Time_Shift_11
Note_On_50_Vel_68
Time_Shift_48
Note_On_87_Vel_89
Time_Shift_45
Note_On_90_Vel_102
Time_Shift_35
Sustain_Off
Time_Shift_5
Note_On_59_Vel_76
Time_Shift_1
Note_On_47_Vel_73
Time_Shift_2
Note_On_81_Vel_0
Time_Shift_1
Note_On_84_Vel_0
Time_Shift_1
Note_On_78_Vel_0
Note_On_75_Vel_0
Note_On_63_Vel_0
Time_Shift_1
Note_On_57_Vel_0
Time_Shift_1
Note_On_87_Vel_0
Time_Shift_20
Note_On_55_Vel_80
Time_Shift_2
Note_On_48_Vel_0
Time_Shift_8
Note_On_62_Vel_0
Time_Shift_8
Note_On_50_Vel_0
Time_Shift_3
Note_On_62_Vel_97
Note_On_91_Vel_112
Time_Shift_12
Sustain_On
Time_Shift_135
Note_On_79_Vel_93
Time_Shift_34
Note_On_59_Vel_0
Time_Shift_9
Note_On_55_Vel_0
Note_On_47_Vel_0
Note_On_91_Vel_0
Time_Shift_1
Note_On_62_Vel_0
Time_Shift_1
Note_On_79_Vel_0
Sustain_Off
Time_Shift_4
Note_On_90_Vel_0
Time_Shift_65
Note_On_46_Vel_72
Time_Shift_66
Sustain_On
Time_Shift_13
Note_On_100_Vel_101
Time_Shift_4
Note_On_61_Vel_95
Time_Shift_69
Note_On_97_Vel_103
Time_Shift_67
Note_On_60_Vel_84
Time_Shift_14
Note_On_94_Vel_96
Time_Shift_73
Note_On_88_Vel_97
Time_Shift_28
Note_On_45_Vel_74
Time_Shift_56
Note_On_101_Vel_106
Time_Shift_14
Note_On_60_Vel_0
Time_Shift_5
Note_On_60_Vel_94
Time_Shift_4
Sustain_Off
Time_Shift_35
Note_On_61_Vel_0
Time_Shift_3
Note_On_97_Vel_0
Time_Shift_3
Note_On_46_Vel_0
Time_Shift_2
Note_On_45_Vel_0
Time_Shift_6
Note_On_60_Vel_0
Time_Shift_14
Note_On_96_Vel_95
Time_Shift_4
Note_On_88_Vel_0
Time_Shift_8
Note_On_101_Vel_0
Time_Shift_8
Note_On_100_Vel_0
Time_Shift_51
Note_On_93_Vel_93
Time_Shift_74
Note_On_89_Vel_96
Time_Shift_32
Note_On_44_Vel_66
Time_Shift_32
Note_On_51_Vel_74
Time_Shift_11
Sustain_On
Time_Shift_16
Note_On_90_Vel_99
Time_Shift_18
Note_On_60_Vel_85
Time_Shift_61
Note_On_87_Vel_92
Time_Shift_20
Note_On_44_Vel_0
Note_On_51_Vel_0
Time_Shift_8
Note_On_44_Vel_54
Time_Shift_1
Note_On_51_Vel_49
Time_Shift_44
Note_On_94_Vel_0
Time_Shift_8
Note_On_84_Vel_78
Time_Shift_73
Note_On_43_Vel_80
Time_Shift_1
Note_On_78_Vel_89
Time_Shift_72
Note_On_51_Vel_0
Time_Shift_8
Note_On_60_Vel_0
Time_Shift_3
Note_On_51_Vel_80
Time_Shift_1
Note_On_91_Vel_105
Time_Shift_5
Note_On_60_Vel_84
Time_Shift_25
Sustain_Off
Time_Shift_12
Note_On_96_Vel_0
Time_Shift_9
Note_On_78_Vel_0
Time_Shift_5
Note_On_93_Vel_0
Time_Shift_3
Note_On_44_Vel_0
Time_Shift_1
Note_On_90_Vel_0
Note_On_43_Vel_0
Note_On_89_Vel_0
Time_Shift_1
Note_On_51_Vel_0
Note_On_60_Vel_0
Note_On_84_Vel_0
Time_Shift_3
Note_On_91_Vel_0
Time_Shift_9
Note_On_87_Vel_0
Time_Shift_6
Note_On_87_Vel_94
Time_Shift_74
Note_On_84_Vel_93
Time_Shift_62
Note_On_79_Vel_90
Time_Shift_11
Sustain_On
Time_Shift_15
Note_On_44_Vel_80
Time_Shift_21
Note_On_50_Vel_71
Time_Shift_38
Note_On_78_Vel_96
Time_Shift_6
Note_On_54_Vel_85
Time_Shift_11
Note_On_60_Vel_94
Time_Shift_76
Note_On_74_Vel_82
Time_Shift_73
Note_On_72_Vel_89
Time_Shift_77
Note_On_66_Vel_92
Time_Shift_2
Note_On_43_Vel_78
Time_Shift_89
Note_On_59_Vel_100
Time_Shift_2
Note_On_67_Vel_105
Time_Shift_23
Sustain_Off
Time_Shift_3
Note_On_79_Vel_0
Note_On_84_Vel_0
Note_On_54_Vel_0
Time_Shift_1
Note_On_87_Vel_0
Time_Shift_2
Note_On_50_Vel_0
Note_On_44_Vel_0
Note_On_74_Vel_0
Note_On_72_Vel_0
Time_Shift_1
Note_On_60_Vel_0
Note_On_78_Vel_0
Time_Shift_1
Note_On_66_Vel_0
Time_Shift_2
Note_On_43_Vel_0
Time_Shift_5
Note_On_67_Vel_0
Time_Shift_3
Note_On_59_Vel_0
Time_Shift_144
Note_On_67_Vel_102
Note_On_71_Vel_97
Note_On_79_Vel_105
Note_On_43_Vel_98
Time_Shift_1
Note_On_31_Vel_90
Time_Shift_24
Note_On_71_Vel_0
Time_Shift_4
Note_On_43_Vel_0
Time_Shift_2
Note_On_79_Vel_0
Time_Shift_6
Note_On_31_Vel_0
Time_Shift_6
Note_On_67_Vel_0
Time_Shift_137
Note_On_43_Vel_101
Time_Shift_3
Note_On_31_Vel_88
Time_Shift_32
Note_On_43_Vel_0
Time_Shift_1
Note_On_31_Vel_0
Time_Shift_147
Note_On_43_Vel_105
Time_Shift_1
Note_On_31_Vel_95
Time_Shift_42
Note_On_43_Vel_0
Time_Shift_36
Note_On_31_Vel_0
Time_Shift_160
Note_On_48_Vel_109
Time_Shift_4
Note_On_36_Vel_98
Time_Shift_28
Sustain_On
Time_Shift_311
Sustain_Off
Time_Shift_12
Note_On_36_Vel_0
Note_On_48_Vel_0
Time_Shift_5
Note_On_48_Vel_87
Time_Shift_4
Note_On_36_Vel_82
Time_Shift_27
Note_On_48_Vel_0
Time_Shift_33
Note_On_36_Vel_0
Time_Shift_110
Note_On_48_Vel_92
Time_Shift_2
Note_On_36_Vel_79
Time_Shift_32
Note_On_48_Vel_0
Time_Shift_32
Note_On_36_Vel_0
Time_Shift_104
Note_On_48_Vel_99
Time_Shift_5
Note_On_36_Vel_77
Time_Shift_68
Sustain_On
Time_Shift_17
Note_On_38_Vel_77
Time_Shift_52
Note_On_48_Vel_0
Time_Shift_6
Note_On_48_Vel_82
Time_Shift_1
Note_On_41_Vel_75
Time_Shift_71
Note_On_44_Vel_89
Time_Shift_65
Note_On_47_Vel_83
Time_Shift_71
Note_On_71_Vel_97
Time_Shift_1
Note_On_41_Vel_0
Time_Shift_8
Note_On_68_Vel_85
Time_Shift_2
Note_On_41_Vel_80
Time_Shift_1
Note_On_62_Vel_87
Time_Shift_1
Note_On_65_Vel_79
Time_Shift_17
Note_On_47_Vel_0
Time_Shift_2
Sustain_Off
Time_Shift_4
Note_On_38_Vel_0
Note_On_48_Vel_0
Note_On_44_Vel_0
Time_Shift_1
Note_On_36_Vel_0
Time_Shift_39
Note_On_50_Vel_64
Time_Shift_36
Note_On_53_Vel_78
Time_Shift_27
Sustain_On
Time_Shift_23
Note_On_56_Vel_80
Time_Shift_52
Note_On_59_Vel_84
Time_Shift_48
Note_On_62_Vel_0
Time_Shift_6
Note_On_62_Vel_91
Time_Shift_63
Note_On_41_Vel_0
Note_On_50_Vel_0
Time_Shift_3
Sustain_Off
Time_Shift_2
Note_On_53_Vel_0
Note_On_59_Vel_0
Note_On_68_Vel_0
Note_On_71_Vel_0
Note_On_62_Vel_0
Note_On_65_Vel_0
Time_Shift_12
Note_On_72_Vel_93
Time_Shift_3
Note_On_60_Vel_98
Time_Shift_1
Note_On_63_Vel_88
Time_Shift_2
Note_On_56_Vel_0
Time_Shift_2
Note_On_67_Vel_74
Time_Shift_75
Sustain_On
Time_Shift_91
Note_On_48_Vel_91
Time_Shift_160
Note_On_60_Vel_0
Time_Shift_2
Note_On_72_Vel_0
Time_Shift_1
Note_On_67_Vel_0
Time_Shift_5
Sustain_Off
Time_Shift_10
Note_On_48_Vel_0
Time_Shift_6
Note_On_48_Vel_90
Time_Shift_2
Note_On_63_Vel_0
Time_Shift_2
Note_On_75_Vel_99
Time_Shift_1
Note_On_36_Vel_85
Time_Shift_1
Note_On_63_Vel_86
Note_On_69_Vel_85
Time_Shift_1
Note_On_66_Vel_76
Time_Shift_31
Note_On_36_Vel_0
Time_Shift_2
Note_On_48_Vel_0
Time_Shift_133
Note_On_48_Vel_98
Time_Shift_2
Note_On_36_Vel_81
Time_Shift_3
Note_On_63_Vel_0
Time_Shift_21
Note_On_75_Vel_0
Time_Shift_4
Note_On_48_Vel_0
Time_Shift_2
Note_On_66_Vel_0
Time_Shift_2
Note_On_36_Vel_0
Time_Shift_17
Note_On_69_Vel_0
Time_Shift_122
Note_On_48_Vel_97
Time_Shift_6
Note_On_36_Vel_85
Time_Shift_5
Note_On_69_Vel_86
Note_On_78_Vel_99
Note_On_66_Vel_89
Time_Shift_2
Note_On_75_Vel_81
Time_Shift_27
Sustain_On
Time_Shift_58
Note_On_39_Vel_82
Time_Shift_62
Note_On_42_Vel_92
Time_Shift_60
Note_On_45_Vel_80
Time_Shift_58
Note_On_48_Vel_0
Time_Shift_4
Note_On_48_Vel_83
Time_Shift_80
Note_On_69_Vel_0
Note_On_75_Vel_0
Time_Shift_4
Note_On_81_Vel_100
Time_Shift_1
Note_On_69_Vel_89
Time_Shift_1
Note_On_51_Vel_78
Time_Shift_4
Note_On_72_Vel_88
Time_Shift_1
Note_On_75_Vel_90
Time_Shift_57
Note_On_54_Vel_70
Time_Shift_3
Sustain_Off
Time_Shift_32
Note_On_36_Vel_0
Time_Shift_4
Note_On_42_Vel_0
Time_Shift_2
Note_On_57_Vel_87
Time_Shift_3
Note_On_39_Vel_0
Time_Shift_3
Note_On_48_Vel_0
Note_On_75_Vel_0
Time_Shift_2
Note_On_81_Vel_0
Time_Shift_1
Note_On_78_Vel_0
Note_On_45_Vel_0
Note_On_72_Vel_0
Time_Shift_1
Note_On_66_Vel_0
Note_On_69_Vel_0
Time_Shift_1
Note_On_54_Vel_0
Time_Shift_26
Note_On_51_Vel_0
Time_Shift_23
Note_On_60_Vel_91
Time_Shift_8
Note_On_57_Vel_0
Time_Shift_26
Note_On_60_Vel_0
Time_Shift_42
Note_On_63_Vel_87
Time_Shift_41
Note_On_66_Vel_82
Time_Shift_9
Note_On_63_Vel_0
Time_Shift_31
Note_On_66_Vel_0
Time_Shift_18
Note_On_67_Vel_102
Time_Shift_3
Note_On_79_Vel_101
Time_Shift_2
Note_On_74_Vel_92
Note_On_71_Vel_95
Time_Shift_58
Sustain_On
Time_Shift_94
Note_On_79_Vel_0
Time_Shift_1
Note_On_74_Vel_0
Sustain_Off
Time_Shift_5
Note_On_67_Vel_0
Time_Shift_8
Note_On_71_Vel_0
Time_Shift_25
Note_On_47_Vel_93
Time_Shift_2
Note_On_35_Vel_86
Time_Shift_27
Sustain_On
Time_Shift_149
Note_On_46_Vel_92
Time_Shift_1
Note_On_34_Vel_87
Time_Shift_1
Note_On_76_Vel_102
Note_On_85_Vel_96
Time_Shift_1
Note_On_88_Vel_101
Time_Shift_1
Note_On_79_Vel_96
Time_Shift_54
Note_On_47_Vel_0
Time_Shift_8
Note_On_35_Vel_0
Time_Shift_1
Note_On_34_Vel_0
Time_Shift_2
Note_On_46_Vel_0
Sustain_Off
Time_Shift_1
Note_On_79_Vel_0
Time_Shift_88
Sustain_On
Time_Shift_12
Note_On_58_Vel_100
Note_On_46_Vel_98
Time_Shift_178
Note_On_89_Vel_110
Note_On_77_Vel_107
Time_Shift_1
Note_On_57_Vel_95
Time_Shift_1
Note_On_84_Vel_102
Time_Shift_2
Note_On_45_Vel_94
Time_Shift_20
Note_On_58_Vel_0
Time_Shift_2
Note_On_46_Vel_0
Sustain_Off
Time_Shift_14
Note_On_76_Vel_0
Note_On_85_Vel_0
Time_Shift_1
Note_On_57_Vel_0
Time_Shift_2
Note_On_45_Vel_0
Time_Shift_5
Note_On_88_Vel_0
Time_Shift_77
Sustain_On
Time_Shift_42
Note_On_45_Vel_105
Note_On_33_Vel_95
Time_Shift_180
Note_On_84_Vel_0
Time_Shift_5
Note_On_84_Vel_100
Time_Shift_3
Note_On_78_Vel_110
Note_On_44_Vel_104
Time_Shift_2
Note_On_90_Vel_105
Note_On_32_Vel_94
Time_Shift_1
Note_On_87_Vel_98
Time_Shift_48
Note_On_44_Vel_0
Time_Shift_1
Note_On_32_Vel_0
Time_Shift_2
Note_On_33_Vel_0
Time_Shift_23
Sustain_Off
Note_On_45_Vel_0
Time_Shift_124
Note_On_56_Vel_109
Time_Shift_1
Note_On_44_Vel_101
Time_Shift_5
Sustain_On
Time_Shift_46
Note_On_77_Vel_0
Time_Shift_172
Note_On_91_Vel_114
Time_Shift_1
Note_On_79_Vel_111
Time_Shift_1
Note_On_43_Vel_99
Note_On_55_Vel_99
Time_Shift_49
Note_On_89_Vel_0
Time_Shift_4
Note_On_84_Vel_0
Time_Shift_1
Note_On_78_Vel_0
Note_On_44_Vel_0
Note_On_56_Vel_0
Time_Shift_3
Note_On_55_Vel_0
Time_Shift_3
Sustain_Off
Time_Shift_12
Note_On_87_Vel_0
Time_Shift_31
Note_On_90_Vel_0
Time_Shift_38
Note_On_43_Vel_0
Time_Shift_92
Note_On_79_Vel_0
Time_Shift_57
Note_On_63_Vel_99
Time_Shift_4
Note_On_55_Vel_75
Time_Shift_3
Note_On_60_Vel_79
Time_Shift_21
Sustain_On
Time_Shift_215
Note_On_55_Vel_0
Time_Shift_4
Note_On_43_Vel_102
Time_Shift_1
Note_On_31_Vel_94
Time_Shift_4
Note_On_59_Vel_86
Time_Shift_1
Note_On_53_Vel_82
Note_On_55_Vel_84
Time_Shift_62
Sustain_Off
Time_Shift_12
Note_On_91_Vel_0
Time_Shift_47
Sustain_On
Time_Shift_80
Note_On_62_Vel_97
Time_Shift_181
Note_On_43_Vel_0
Time_Shift_7
Note_On_60_Vel_0
Time_Shift_3
Note_On_43_Vel_89
Time_Shift_1
Note_On_48_Vel_97
Time_Shift_1
Note_On_60_Vel_97
Time_Shift_1
Note_On_51_Vel_91
Time_Shift_1
Note_On_36_Vel_90
Time_Shift_13
Note_On_62_Vel_0
Time_Shift_2
Note_On_53_Vel_0
Time_Shift_9
Note_On_63_Vel_0
Time_Shift_6
Sustain_Off
Time_Shift_2
Note_On_60_Vel_0
Time_Shift_1
Note_On_48_Vel_0
Time_Shift_3
Note_On_36_Vel_0
Note_On_51_Vel_0
Time_Shift_3
Note_On_31_Vel_0
Note_On_43_Vel_0
Note_On_59_Vel_0
Time_Shift_8
Note_On_55_Vel_0
Time_Shift_153
Note_On_63_Vel_76
Time_Shift_2
Note_On_51_Vel_72
Time_Shift_54
Note_On_51_Vel_0
Time_Shift_4
Note_On_63_Vel_0
Time_Shift_9
Note_On_60_Vel_79
Time_Shift_12
Note_On_54_Vel_70
Time_Shift_37
Note_On_54_Vel_0
Note_On_60_Vel_0
Time_Shift_32
Note_On_55_Vel_79
Time_Shift_2
Note_On_43_Vel_70
Note_On_59_Vel_78
Time_Shift_30
Note_On_55_Vel_0
Time_Shift_4
Note_On_43_Vel_0
Time_Shift_7
Note_On_59_Vel_0
Time_Shift_48
Note_On_62_Vel_76
Time_Shift_56
Note_On_62_Vel_0
Time_Shift_19
Note_On_67_Vel_69
Time_Shift_2
Note_On_59_Vel_86
Time_Shift_78
Note_On_65_Vel_73
Time_Shift_10
Note_On_67_Vel_0
Time_Shift_25
Note_On_65_Vel_0
Time_Shift_1
Note_On_59_Vel_0
Time_Shift_54
Note_On_48_Vel_76
Time_Shift_1
Note_On_63_Vel_84
Time_Shift_1
Note_On_60_Vel_78
Time_Shift_26
Note_On_48_Vel_0
Note_On_60_Vel_0
Time_Shift_8
Note_On_63_Vel_0
Time_Shift_48
Note_On_67_Vel_73
Time_Shift_85
Note_On_67_Vel_0
Time_Shift_8
Note_On_63_Vel_83
Time_Shift_66
Note_On_63_Vel_0
Time_Shift_11
Note_On_72_Vel_77
Time_Shift_1
Note_On_66_Vel_74
Time_Shift_40
Note_On_66_Vel_0
Time_Shift_6
Note_On_72_Vel_0
Time_Shift_39
Note_On_67_Vel_83
Time_Shift_1
Note_On_71_Vel_80
Time_Shift_1
Note_On_55_Vel_68
Time_Shift_24
Note_On_67_Vel_0
Time_Shift_31
Note_On_71_Vel_0
Time_Shift_16
Note_On_55_Vel_0
Time_Shift_12
Note_On_74_Vel_68
Time_Shift_53
Note_On_74_Vel_0
Time_Shift_29
Note_On_79_Vel_79
Note_On_71_Vel_89
Time_Shift_71
Note_On_79_Vel_0
Time_Shift_8
Note_On_77_Vel_82
Time_Shift_37
Note_On_77_Vel_0
Time_Shift_23
Note_On_71_Vel_0
Time_Shift_28
Note_On_72_Vel_88
Time_Shift_4
Note_On_75_Vel_82
Note_On_60_Vel_70
Time_Shift_22
Note_On_72_Vel_0
Time_Shift_12
Note_On_60_Vel_0
Time_Shift_19
Note_On_75_Vel_0
Time_Shift_23
Note_On_79_Vel_84
Time_Shift_80
Note_On_79_Vel_0
Time_Shift_6
Note_On_87_Vel_83
Time_Shift_1
Note_On_75_Vel_84
Time_Shift_75
Note_On_84_Vel_84
Time_Shift_1
Note_On_78_Vel_85
Time_Shift_31
Note_On_75_Vel_0
Time_Shift_4
Note_On_78_Vel_0
Time_Shift_7
Note_On_87_Vel_0
Time_Shift_3
Note_On_84_Vel_0
Time_Shift_43
Note_On_79_Vel_96
Time_Shift_3
Note_On_83_Vel_90
Note_On_67_Vel_83
Time_Shift_24
Note_On_67_Vel_0
Time_Shift_19
Note_On_79_Vel_0
Time_Shift_32
Note_On_83_Vel_0
Time_Shift_2
Note_On_86_Vel_87
Time_Shift_1
Note_On_78_Vel_68
Time_Shift_38
Note_On_78_Vel_0
Time_Shift_7
Note_On_86_Vel_0
Time_Shift_39
Note_On_91_Vel_94
Time_Shift_2
Note_On_83_Vel_100
Time_Shift_74
Note_On_89_Vel_93
Time_Shift_46
Note_On_83_Vel_0
Time_Shift_37
Note_On_87_Vel_91
Time_Shift_2
Note_On_72_Vel_80
Note_On_84_Vel_89
Time_Shift_27
Note_On_89_Vel_0
Time_Shift_11
Note_On_72_Vel_0
Time_Shift_27
Note_On_84_Vel_0
Time_Shift_8
Note_On_91_Vel_0
Time_Shift_6
Note_On_91_Vel_94
Time_Shift_78
Note_On_87_Vel_0
Time_Shift_5
Note_On_99_Vel_96
Time_Shift_3
Note_On_87_Vel_94
Time_Shift_75
Note_On_96_Vel_94
Time_Shift_3
Note_On_90_Vel_87
Time_Shift_32
Note_On_87_Vel_0
Time_Shift_5
Note_On_99_Vel_0
Time_Shift_39
Note_On_91_Vel_0
Time_Shift_2
Note_On_95_Vel_98
Time_Shift_7
Note_On_79_Vel_95
Note_On_91_Vel_99
Time_Shift_14
Note_On_90_Vel_0
Time_Shift_16
Note_On_79_Vel_0
Time_Shift_38
Note_On_91_Vel_0
Time_Shift_5
Note_On_98_Vel_108
Time_Shift_25
Note_On_95_Vel_0
Time_Shift_56
Note_On_91_Vel_102
Time_Shift_13
Note_On_96_Vel_0
Time_Shift_4
Note_On_83_Vel_82
Time_Shift_65
Note_On_89_Vel_103
Time_Shift_88
Note_On_84_Vel_85
Note_On_87_Vel_95
Time_Shift_28
Sustain_On
Time_Shift_51
Note_On_92_Vel_99
Time_Shift_3
Note_On_72_Vel_81
Time_Shift_90
Note_On_86_Vel_94
Time_Shift_28
Note_On_82_Vel_74
Time_Shift_50
Note_On_91_Vel_0
Time_Shift_12
Note_On_91_Vel_98
Time_Shift_3
Note_On_70_Vel_74
Time_Shift_70
Note_On_84_Vel_0
Time_Shift_10
Note_On_84_Vel_95
Time_Shift_9
Note_On_80_Vel_75
Time_Shift_65
Note_On_70_Vel_0
Note_On_89_Vel_0
Time_Shift_7
Note_On_89_Vel_99
Time_Shift_1
Note_On_68_Vel_65
Time_Shift_2
Note_On_70_Vel_62
Time_Shift_75
Note_On_82_Vel_0
Time_Shift_9
Note_On_79_Vel_78
Note_On_82_Vel_95
Time_Shift_75
Note_On_87_Vel_0
Time_Shift_4
Note_On_87_Vel_93
Time_Shift_1
Note_On_67_Vel_73
Time_Shift_80
Note_On_70_Vel_0
Note_On_80_Vel_0
Time_Shift_4
Note_On_80_Vel_88
Time_Shift_2
Note_On_77_Vel_78
Time_Shift_2
Note_On_70_Vel_65
Time_Shift_69
Note_On_86_Vel_0
Time_Shift_5
Note_On_86_Vel_91
Time_Shift_2
Note_On_65_Vel_74
Time_Shift_77
Note_On_79_Vel_0
Time_Shift_7
Note_On_79_Vel_91
Time_Shift_4
Note_On_75_Vel_82
Time_Shift_74
Note_On_84_Vel_0
Time_Shift_8
Note_On_63_Vel_73
Time_Shift_1
Note_On_84_Vel_93
Time_Shift_67
Note_On_77_Vel_0
Time_Shift_10
Note_On_77_Vel_88
Time_Shift_1
Note_On_74_Vel_77
Time_Shift_74
Note_On_82_Vel_0
Time_Shift_5
Note_On_62_Vel_81
Note_On_82_Vel_95
Time_Shift_79
Note_On_72_Vel_0
Note_On_75_Vel_0
Time_Shift_9
Note_On_72_Vel_80
Time_Shift_1
Note_On_75_Vel_83
Time_Shift_67
Note_On_80_Vel_0
Time_Shift_4
Note_On_80_Vel_88
Time_Shift_1
Note_On_60_Vel_77
Time_Shift_80
Note_On_74_Vel_0
Time_Shift_7
Note_On_70_Vel_0
Time_Shift_4
Note_On_74_Vel_83
Time_Shift_4
Note_On_70_Vel_77
Time_Shift_69
Note_On_79_Vel_0
Time_Shift_9
Note_On_58_Vel_78
Time_Shift_2
Note_On_79_Vel_84
Time_Shift_74
Note_On_72_Vel_0
Time_Shift_7
Note_On_68_Vel_0
Time_Shift_4
Note_On_72_Vel_83
Time_Shift_1
Note_On_68_Vel_67
Time_Shift_18
Note_On_98_Vel_0
Time_Shift_46
Note_On_77_Vel_0
Time_Shift_12
Note_On_56_Vel_66
Note_On_77_Vel_81
Time_Shift_88
Note_On_67_Vel_0
Note_On_70_Vel_0
Time_Shift_4
Note_On_70_Vel_80
Note_On_67_Vel_68
Time_Shift_3
Note_On_75_Vel_0
Time_Shift_2
Note_On_82_Vel_0
Time_Shift_1
Note_On_60_Vel_0
Note_On_84_Vel_0
Note_On_68_Vel_0
Note_On_62_Vel_0
Note_On_63_Vel_0
Note_On_80_Vel_0
Time_Shift_1
Note_On_72_Vel_0
Note_On_58_Vel_0
Note_On_79_Vel_0
Note_On_87_Vel_0
Note_On_65_Vel_0
Time_Shift_1
Note_On_86_Vel_0
Note_On_56_Vel_0
Note_On_89_Vel_0
Time_Shift_4
Note_On_83_Vel_0
Time_Shift_5
Sustain_Off
Time_Shift_2
Note_On_74_Vel_0
Note_On_91_Vel_0
Note_On_92_Vel_0
Time_Shift_23
Note_On_77_Vel_0
Time_Shift_34
Note_On_55_Vel_70
Note_On_75_Vel_80
Time_Shift_12
Note_On_67_Vel_0
Time_Shift_23
Note_On_70_Vel_0
Time_Shift_26
Note_On_55_Vel_0
Time_Shift_9
Note_On_75_Vel_0
Time_Shift_8
Note_On_68_Vel_72
Time_Shift_4
Note_On_65_Vel_70
Time_Shift_39
Note_On_65_Vel_0
Time_Shift_34
Note_On_53_Vel_76
Time_Shift_3
Note_On_68_Vel_0
Time_Shift_3
Note_On_74_Vel_77
Time_Shift_24
Note_On_53_Vel_0
Time_Shift_17
Note_On_74_Vel_0
Time_Shift_39
Note_On_67_Vel_72
Time_Shift_3
Note_On_63_Vel_78
Time_Shift_32
Note_On_67_Vel_0
Time_Shift_11
Note_On_63_Vel_0
Time_Shift_37
Note_On_51_Vel_65
Note_On_72_Vel_79
Time_Shift_46
Note_On_72_Vel_0
Time_Shift_1
Note_On_51_Vel_0
Time_Shift_30
Note_On_65_Vel_69
Note_On_62_Vel_76
Time_Shift_39
Note_On_62_Vel_0
Time_Shift_6
Note_On_65_Vel_0
Time_Shift_39
Note_On_71_Vel_75
Time_Shift_4
Note_On_50_Vel_69
Time_Shift_34
Note_On_71_Vel_0
Time_Shift_6
Note_On_50_Vel_0
Time_Shift_42
Note_On_63_Vel_75
Time_Shift_4
Note_On_60_Vel_70
Time_Shift_38
Note_On_60_Vel_0
Time_Shift_7
Note_On_63_Vel_0
Time_Shift_34
Note_On_72_Vel_76
Note_On_48_Vel_74
Time_Shift_31
Note_On_72_Vel_0
Time_Shift_1
Note_On_48_Vel_0
Time_Shift_59
Note_On_60_Vel_63
Time_Shift_1
Note_On_66_Vel_68
Note_On_56_Vel_75
Time_Shift_60
Note_On_56_Vel_0
Time_Shift_8
Note_On_66_Vel_0
Time_Shift_10
Note_On_44_Vel_73
Time_Shift_3
Note_On_74_Vel_70
Time_Shift_15
Note_On_60_Vel_0
Time_Shift_4
Note_On_74_Vel_0
Time_Shift_26
Note_On_44_Vel_0
Time_Shift_43
Note_On_59_Vel_95
Note_On_71_Vel_87
Time_Shift_2
Note_On_55_Vel_90
Time_Shift_1
Note_On_67_Vel_84
Time_Shift_2
Note_On_43_Vel_88
Time_Shift_20
Note_On_59_Vel_0
Time_Shift_25
Note_On_55_Vel_0
Note_On_67_Vel_0
Note_On_71_Vel_0
Time_Shift_4
Note_On_43_Vel_0
Time_Shift_134
Note_On_47_Vel_79
Time_Shift_1
Note_On_59_Vel_71
Time_Shift_64
Note_On_59_Vel_0
Time_Shift_8
Note_On_47_Vel_0
Time_Shift_4
Note_On_55_Vel_65
Note_On_48_Vel_77
Time_Shift_41
Note_On_48_Vel_0
Time_Shift_43
Note_On_55_Vel_0
Time_Shift_2
Note_On_50_Vel_87
Time_Shift_3
Note_On_54_Vel_75
Time_Shift_1
Note_On_38_Vel_76
Time_Shift_1
Note_On_62_Vel_73
Time_Shift_9
Note_On_62_Vel_0
Time_Shift_12
Note_On_50_Vel_0
Time_Shift_5
Note_On_38_Vel_0
Time_Shift_6
Note_On_54_Vel_0
Time_Shift_36
Note_On_57_Vel_74
Time_Shift_59
Note_On_57_Vel_0
Time_Shift_39
Note_On_54_Vel_88
Note_On_62_Vel_72
Time_Shift_5
Note_On_48_Vel_66
Time_Shift_2
Note_On_50_Vel_67
Time_Shift_58
Note_On_48_Vel_0
Time_Shift_20
Note_On_60_Vel_76
Time_Shift_30
Note_On_66_Vel_48
Time_Shift_27
Note_On_50_Vel_0
Time_Shift_5
Note_On_60_Vel_0
Time_Shift_10
Note_On_54_Vel_0
Note_On_62_Vel_0
Time_Shift_16
Note_On_66_Vel_0
Time_Shift_2
Note_On_59_Vel_82
Time_Shift_10
Note_On_55_Vel_76
Time_Shift_5
Note_On_43_Vel_70
Time_Shift_24
Note_On_59_Vel_0
Time_Shift_20
Note_On_55_Vel_0
Time_Shift_16
Note_On_43_Vel_0
Time_Shift_9
Note_On_62_Vel_72
Time_Shift_58
Note_On_62_Vel_0
Time_Shift_27
Note_On_71_Vel_74
Time_Shift_2
Note_On_59_Vel_83
Time_Shift_56
Note_On_59_Vel_0
Time_Shift_14
Note_On_67_Vel_75
Time_Shift_22
Note_On_60_Vel_82
Time_Shift_19
Note_On_71_Vel_0
Time_Shift_15
Note_On_60_Vel_0
Time_Shift_12
Note_On_67_Vel_0
Time_Shift_17
Note_On_66_Vel_84
Time_Shift_3
Note_On_62_Vel_95
Time_Shift_20
Note_On_50_Vel_60
Time_Shift_13
Note_On_62_Vel_0
Time_Shift_2
Note_On_66_Vel_0
Time_Shift_26
Note_On_50_Vel_0
Time_Shift_25
Note_On_69_Vel_80
Time_Shift_47
Note_On_69_Vel_0
Time_Shift_42
Note_On_66_Vel_92
Time_Shift_5
Note_On_62_Vel_69
Time_Shift_77
Note_On_72_Vel_82
Time_Shift_57
Note_On_62_Vel_0
Time_Shift_26
Note_On_72_Vel_0
Time_Shift_5
Note_On_66_Vel_0
Time_Shift_3
Note_On_67_Vel_85
Time_Shift_1
Note_On_71_Vel_80
Time_Shift_4
Note_On_55_Vel_71
Time_Shift_23
Note_On_67_Vel_0
Time_Shift_5
Note_On_71_Vel_0
Time_Shift_3
Note_On_55_Vel_0
Time_Shift_49
Note_On_74_Vel_66
Time_Shift_42
Note_On_74_Vel_0
Time_Shift_39
Note_On_83_Vel_87
Time_Shift_2
Note_On_71_Vel_92
Time_Shift_55
Note_On_71_Vel_0
Time_Shift_16
Note_On_79_Vel_79
Time_Shift_14
Note_On_72_Vel_79
Note_On_83_Vel_0
Time_Shift_48
Note_On_79_Vel_0
Time_Shift_8
Note_On_72_Vel_0
Time_Shift_11
Note_On_78_Vel_93
Time_Shift_3
Note_On_74_Vel_92
Time_Shift_19
Note_On_62_Vel_69
Time_Shift_4
Note_On_74_Vel_0
Time_Shift_6
Note_On_78_Vel_0
Time_Shift_29
Note_On_62_Vel_0
Time_Shift_20
Note_On_81_Vel_84
Time_Shift_50
Note_On_81_Vel_0
Time_Shift_58
Note_On_78_Vel_104
Time_Shift_1
Note_On_86_Vel_88
Time_Shift_87
Note_On_84_Vel_87
Time_Shift_18
Note_On_86_Vel_0
Time_Shift_50
Note_On_84_Vel_0
Time_Shift_18
Note_On_79_Vel_96
Time_Shift_1
Note_On_83_Vel_89
Note_On_67_Vel_82
Time_Shift_12
Note_On_78_Vel_0
Time_Shift_14
Note_On_79_Vel_0
Note_On_67_Vel_0
Time_Shift_28
Note_On_83_Vel_0
Time_Shift_18
Note_On_86_Vel_86
Time_Shift_62
Note_On_86_Vel_0
Time_Shift_20
Note_On_95_Vel_100
Time_Shift_1
Note_On_83_Vel_102
Time_Shift_72
Note_On_91_Vel_97
Time_Shift_1
Note_On_95_Vel_0
Time_Shift_9
Note_On_83_Vel_0
Time_Shift_7
Note_On_84_Vel_88
Time_Shift_47
Note_On_84_Vel_0
Time_Shift_14
Note_On_86_Vel_102
Time_Shift_2
Note_On_90_Vel_102
Time_Shift_16
Note_On_91_Vel_0
Time_Shift_42
Note_On_86_Vel_0
Time_Shift_15
Note_On_90_Vel_0
Time_Shift_5
Note_On_93_Vel_98
Time_Shift_86
Note_On_98_Vel_104
Time_Shift_2
Note_On_90_Vel_103
Time_Shift_45
Sustain_On
Time_Shift_36
Note_On_96_Vel_100
Time_Shift_18
Note_On_93_Vel_0
Time_Shift_46
Note_On_90_Vel_0
Time_Shift_20
Note_On_95_Vel_103
Note_On_79_Vel_95
Time_Shift_3
Note_On_91_Vel_96
Time_Shift_69
Note_On_98_Vel_0
Time_Shift_9
Note_On_98_Vel_106
Time_Shift_28
Sustain_Off
Time_Shift_60
Note_On_92_Vel_104
Time_Shift_1
Note_On_89_Vel_90
Time_Shift_18
Note_On_79_Vel_0
Time_Shift_53
Note_On_91_Vel_0
Time_Shift_10
Note_On_91_Vel_102
Time_Shift_3
Note_On_87_Vel_78
Time_Shift_72
Note_On_89_Vel_0
Time_Shift_8
Note_On_86_Vel_88
Time_Shift_2
Note_On_89_Vel_99
Time_Shift_59
Note_On_95_Vel_0
Time_Shift_8
Note_On_87_Vel_0
Time_Shift_10
Note_On_87_Vel_99
Time_Shift_1
Note_On_84_Vel_79
Time_Shift_1
Note_On_86_Vel_0
Time_Shift_3
Note_On_98_Vel_0
Time_Shift_75
Note_On_83_Vel_87
Note_On_86_Vel_96
Time_Shift_25
Note_On_89_Vel_0
Time_Shift_31
Sustain_On
Time_Shift_15
Note_On_84_Vel_0
Time_Shift_8
Note_On_84_Vel_95
Time_Shift_2
Note_On_80_Vel_77
Time_Shift_67
Note_On_91_Vel_0
Time_Shift_15
Note_On_83_Vel_0
Note_On_92_Vel_0
Time_Shift_4
Note_On_83_Vel_94
Time_Shift_2
Note_On_79_Vel_84
Time_Shift_13
Note_On_80_Vel_0
Time_Shift_4
Note_On_96_Vel_0
Time_Shift_1
Note_On_87_Vel_0
Time_Shift_2
Note_On_84_Vel_0
Time_Shift_11
Sustain_Off
Time_Shift_9
Note_On_86_Vel_0
Time_Shift_23
Note_On_79_Vel_0
Time_Shift_12
Note_On_67_Vel_78
Time_Shift_2
Note_On_86_Vel_85
Time_Shift_17
Note_On_83_Vel_0
Time_Shift_16
Note_On_67_Vel_0
Time_Shift_48
Note_On_80_Vel_90
Time_Shift_8
Note_On_77_Vel_78
Time_Shift_41
Note_On_77_Vel_0
Time_Shift_10
Note_On_86_Vel_0
Time_Shift_1
Note_On_80_Vel_0
Time_Shift_18
Note_On_79_Vel_96
Time_Shift_12
Note_On_75_Vel_77
Time_Shift_44
Note_On_75_Vel_0
Time_Shift_2
Sustain_On
Time_Shift_27
Note_On_77_Vel_89
Time_Shift_2
Note_On_74_Vel_81
Time_Shift_82
Note_On_75_Vel_93
Time_Shift_2
Note_On_72_Vel_81
Time_Shift_35
Sustain_Off
Time_Shift_11
Note_On_79_Vel_0
Time_Shift_13
Note_On_77_Vel_0
Time_Shift_12
Note_On_74_Vel_0
Time_Shift_9
Note_On_74_Vel_83
Time_Shift_1
Note_On_71_Vel_71
Time_Shift_3
Note_On_72_Vel_0
Time_Shift_6
Note_On_75_Vel_0
Time_Shift_29
Note_On_71_Vel_0
Time_Shift_24
Note_On_74_Vel_0
Time_Shift_8
Note_On_72_Vel_82
Time_Shift_12
Note_On_68_Vel_72
Time_Shift_40
Note_On_68_Vel_0
Time_Shift_43
Note_On_71_Vel_79
Note_On_67_Vel_73
Time_Shift_9
Note_On_72_Vel_0
Time_Shift_27
Note_On_67_Vel_0
Time_Shift_15
Note_On_71_Vel_0
Time_Shift_25
Note_On_55_Vel_78
Time_Shift_2
Note_On_74_Vel_77
Time_Shift_3
Note_On_72_Vel_72
Time_Shift_39
Note_On_55_Vel_0
Time_Shift_32
Note_On_74_Vel_0
Note_On_68_Vel_80
Time_Shift_20
Note_On_65_Vel_72
Time_Shift_41
Note_On_68_Vel_0
Time_Shift_6
Note_On_65_Vel_0
Time_Shift_5
Note_On_72_Vel_0
Time_Shift_15
Note_On_67_Vel_78
Time_Shift_4
Note_On_63_Vel_77
Time_Shift_65
Note_On_63_Vel_0
Time_Shift_14
Note_On_65_Vel_76
Time_Shift_1
Note_On_62_Vel_79
Time_Shift_61
Note_On_62_Vel_0
Time_Shift_6
Note_On_67_Vel_0
Time_Shift_16
Note_On_60_Vel_70
Time_Shift_1
Note_On_63_Vel_85
Time_Shift_34
Note_On_65_Vel_0
Time_Shift_18
Note_On_60_Vel_0
Time_Shift_30
Note_On_59_Vel_72
Note_On_62_Vel_83
Time_Shift_58
Note_On_59_Vel_0
Time_Shift_4
Note_On_62_Vel_0
Time_Shift_16
Note_On_60_Vel_78
Time_Shift_1
Note_On_56_Vel_71
Time_Shift_10
Note_On_63_Vel_0
Time_Shift_34
Note_On_56_Vel_0
Time_Shift_6
Note_On_60_Vel_0
Time_Shift_35
Note_On_55_Vel_67
Time_Shift_4
Note_On_59_Vel_74
Time_Shift_67
Note_On_55_Vel_0
Time_Shift_4
Note_On_43_Vel_71
Time_Shift_7
Note_On_62_Vel_74
Time_Shift_1
Note_On_59_Vel_0
Time_Shift_67
Note_On_43_Vel_0
Note_On_62_Vel_0
Time_Shift_17
Note_On_56_Vel_76
Time_Shift_2
Note_On_53_Vel_65
Time_Shift_50
Note_On_53_Vel_0
Time_Shift_1
Note_On_56_Vel_0
Time_Shift_29
Note_On_51_Vel_71
Time_Shift_3
Note_On_55_Vel_74
Time_Shift_5
Note_On_43_Vel_65
Time_Shift_40
Note_On_51_Vel_0
Time_Shift_27
Note_On_43_Vel_0
Time_Shift_11
Note_On_55_Vel_0
Time_Shift_9
Note_On_50_Vel_67
Time_Shift_4
Note_On_53_Vel_73
Time_Shift_56
Note_On_50_Vel_0
Time_Shift_28
Note_On_48_Vel_70
Time_Shift_10
Note_On_51_Vel_69
Time_Shift_5
Note_On_53_Vel_0
Time_Shift_67
Note_On_47_Vel_62
Time_Shift_3
Note_On_48_Vel_0
Time_Shift_5
Note_On_51_Vel_0
Time_Shift_6
Note_On_50_Vel_63
Time_Shift_77
Note_On_43_Vel_59
Time_Shift_16
Note_On_55_Vel_58
Time_Shift_2
Sustain_On
Time_Shift_102
Note_On_50_Vel_0
Time_Shift_2
Note_On_43_Vel_0
Note_On_55_Vel_0
Time_Shift_3
Sustain_Off
Time_Shift_9
Note_On_47_Vel_0
Time_Shift_11
Note_On_51_Vel_71
Time_Shift_7
Note_On_36_Vel_56
Time_Shift_58
Sustain_On
Time_Shift_36
Note_On_50_Vel_51
Time_Shift_52
Note_On_50_Vel_0
Time_Shift_1
Note_On_51_Vel_0
Sustain_Off
Time_Shift_19
Note_On_36_Vel_0
Time_Shift_35
Note_On_48_Vel_73
Time_Shift_4
Note_On_51_Vel_65
Note_On_58_Vel_70
Time_Shift_72
Note_On_51_Vel_0
Time_Shift_2
Note_On_44_Vel_63
Time_Shift_2
Note_On_56_Vel_79
Time_Shift_8
Note_On_44_Vel_0
Time_Shift_8
Note_On_58_Vel_0
Time_Shift_52
Note_On_56_Vel_0
Time_Shift_11
Note_On_47_Vel_74
Time_Shift_2
Note_On_55_Vel_67
Time_Shift_11
Note_On_48_Vel_0
Time_Shift_18
Note_On_47_Vel_0
Time_Shift_8
Note_On_55_Vel_0
Time_Shift_34
Note_On_50_Vel_80
Time_Shift_27
Note_On_50_Vel_0
Time_Shift_61
Note_On_35_Vel_84
Time_Shift_3
Note_On_50_Vel_75
Note_On_55_Vel_74
Time_Shift_46
Note_On_50_Vel_0
Time_Shift_43
Note_On_53_Vel_79
Time_Shift_6
Note_On_35_Vel_0
Time_Shift_51
Note_On_53_Vel_0
Time_Shift_14
Note_On_36_Vel_80
Time_Shift_2
Note_On_51_Vel_82
Time_Shift_2
Note_On_55_Vel_0
Time_Shift_39
Note_On_36_Vel_0
Time_Shift_3
Note_On_51_Vel_0
Time_Shift_45
Note_On_48_Vel_75
Time_Shift_31
Note_On_48_Vel_0
Time_Shift_60
Note_On_51_Vel_76
Time_Shift_2
Note_On_58_Vel_79
Time_Shift_1
Note_On_48_Vel_87
Time_Shift_40
Note_On_51_Vel_0
Time_Shift_42
Note_On_56_Vel_84
Time_Shift_14
Note_On_58_Vel_0
Time_Shift_65
Note_On_56_Vel_0
Time_Shift_2
Note_On_48_Vel_0
Note_On_47_Vel_81
Time_Shift_3
Note_On_55_Vel_77
Time_Shift_26
Note_On_47_Vel_0
Time_Shift_2
Note_On_55_Vel_0
Time_Shift_52
Note_On_50_Vel_80
Time_Shift_30
Note_On_50_Vel_0
Time_Shift_62
Note_On_35_Vel_80
Time_Shift_1
Note_On_55_Vel_79
Note_On_50_Vel_70
Time_Shift_31
Note_On_35_Vel_0
Time_Shift_54
Note_On_53_Vel_81
Time_Shift_63
Note_On_50_Vel_0
Time_Shift_3
Note_On_55_Vel_0
Time_Shift_1
Note_On_36_Vel_74
Note_On_53_Vel_0
Time_Shift_14
Note_On_51_Vel_84
Time_Shift_42
Note_On_51_Vel_0
Time_Shift_30
Note_On_48_Vel_85
Time_Shift_36
Note_On_48_Vel_0
Time_Shift_5
Note_On_36_Vel_0
Time_Shift_60
Note_On_51_Vel_81
Note_On_62_Vel_83
Time_Shift_5
Note_On_55_Vel_66
Time_Shift_73
Sustain_On
Time_Shift_5
Note_On_60_Vel_82
Time_Shift_84
Note_On_58_Vel_82
Note_On_50_Vel_77
Time_Shift_81
Note_On_53_Vel_87
Time_Shift_73
Note_On_58_Vel_0
Time_Shift_3
Note_On_60_Vel_0
Time_Shift_4
Sustain_Off
Time_Shift_3
Note_On_60_Vel_92
Time_Shift_1
Note_On_51_Vel_0
Note_On_55_Vel_0
Note_On_62_Vel_0
Time_Shift_7
Note_On_50_Vel_0
Note_On_53_Vel_0
Time_Shift_5
Note_On_53_Vel_71
Note_On_38_Vel_69
Time_Shift_2
Note_On_50_Vel_71
Time_Shift_62
Note_On_53_Vel_0
Time_Shift_12
Note_On_58_Vel_81
Time_Shift_73
Note_On_60_Vel_0
Time_Shift_14
Note_On_56_Vel_79
Time_Shift_17
Note_On_38_Vel_0
Time_Shift_5
Note_On_38_Vel_63
Time_Shift_48
Note_On_58_Vel_0
Time_Shift_9
Note_On_56_Vel_0
Time_Shift_3
Note_On_38_Vel_0
Time_Shift_8
Note_On_51_Vel_86
Time_Shift_11
Note_On_50_Vel_0
Time_Shift_29
Note_On_51_Vel_0
Time_Shift_58
Note_On_58_Vel_74
Time_Shift_1
Note_On_51_Vel_69
Time_Shift_1
Note_On_48_Vel_73
Time_Shift_49
Note_On_58_Vel_0
Time_Shift_10
Note_On_51_Vel_0
Time_Shift_13
Note_On_56_Vel_82
Time_Shift_62
Note_On_56_Vel_0
Time_Shift_19
Note_On_55_Vel_82
Time_Shift_5
Note_On_46_Vel_75
Time_Shift_7
Note_On_48_Vel_0
Time_Shift_37
Note_On_46_Vel_0
Time_Shift_5
Note_On_55_Vel_0
Time_Shift_35
Note_On_50_Vel_74
Time_Shift_32
Note_On_50_Vel_0
Time_Shift_56
Note_On_45_Vel_80
Time_Shift_2
Note_On_48_Vel_81
Time_Shift_4
Note_On_38_Vel_78
Time_Shift_27
Note_On_48_Vel_0
Time_Shift_4
Note_On_38_Vel_0
Note_On_45_Vel_0
Time_Shift_50
Note_On_54_Vel_75
Time_Shift_33
Note_On_54_Vel_0
Time_Shift_42
Note_On_46_Vel_82
Time_Shift_5
Note_On_43_Vel_83
Time_Shift_2
Note_On_31_Vel_75
Time_Shift_26
Note_On_46_Vel_0
Time_Shift_1
Note_On_43_Vel_0
Time_Shift_7
Note_On_31_Vel_0
Time_Shift_72
Note_On_58_Vel_86
Time_Shift_59
Note_On_58_Vel_0
Time_Shift_1
Note_On_65_Vel_81
Time_Shift_16
Note_On_55_Vel_68
Time_Shift_1
Note_On_46_Vel_62
Time_Shift_72
Note_On_63_Vel_84
Time_Shift_29
Note_On_65_Vel_0
Time_Shift_45
Note_On_63_Vel_0
Time_Shift_11
Note_On_62_Vel_87
Time_Shift_3
Note_On_54_Vel_80
Time_Shift_25
Note_On_54_Vel_0
Time_Shift_12
Note_On_46_Vel_0
Time_Shift_6
Note_On_62_Vel_0
Time_Shift_29
Note_On_57_Vel_79
Time_Shift_43
Note_On_57_Vel_0
Time_Shift_14
Note_On_55_Vel_0
Time_Shift_31
Note_On_54_Vel_77
Time_Shift_3
Note_On_38_Vel_68
Time_Shift_1
Note_On_62_Vel_77
Time_Shift_63
Note_On_54_Vel_0
Time_Shift_24
Note_On_60_Vel_78
Time_Shift_78
Note_On_60_Vel_0
Time_Shift_2
Note_On_43_Vel_81
Time_Shift_1
Note_On_58_Vel_81
Time_Shift_12
Note_On_62_Vel_0
Time_Shift_7
Note_On_38_Vel_0
Time_Shift_19
Note_On_58_Vel_0
Time_Shift_43
Note_On_55_Vel_79
Time_Shift_31
Note_On_43_Vel_0
Time_Shift_2
Note_On_55_Vel_0
Time_Shift_62
Note_On_58_Vel_74
Time_Shift_1
Note_On_65_Vel_84
Time_Shift_1
Note_On_55_Vel_76
Time_Shift_77
Note_On_63_Vel_87
Time_Shift_19
Note_On_58_Vel_0
Time_Shift_34
Note_On_65_Vel_0
Time_Shift_33
Note_On_63_Vel_0
Time_Shift_9
Note_On_54_Vel_85
Time_Shift_3
Note_On_62_Vel_87
Time_Shift_43
Note_On_54_Vel_0
Time_Shift_4
Note_On_62_Vel_0
Time_Shift_28
Note_On_57_Vel_82
Time_Shift_32
Note_On_57_Vel_0
Time_Shift_1
Note_On_55_Vel_0
Time_Shift_62
Note_On_54_Vel_71
Note_On_62_Vel_83
Note_On_38_Vel_72
Time_Shift_93
Note_On_60_Vel_79
Time_Shift_73
Note_On_54_Vel_0
Time_Shift_1
Note_On_58_Vel_81
Note_On_43_Vel_78
Time_Shift_3
Note_On_62_Vel_0
Time_Shift_1
Note_On_60_Vel_0
Time_Shift_1
Note_On_38_Vel_0
Time_Shift_53
Note_On_58_Vel_0
Time_Shift_28
Note_On_55_Vel_80
Time_Shift_46
Note_On_55_Vel_0
Time_Shift_27
Note_On_43_Vel_0
Time_Shift_25
Note_On_69_Vel_83
Time_Shift_2
Note_On_62_Vel_81
Time_Shift_4
Note_On_58_Vel_77
Time_Shift_81
Note_On_67_Vel_82
Time_Shift_19
Sustain_On
Time_Shift_63
Note_On_65_Vel_86
Time_Shift_4
Note_On_57_Vel_74
Time_Shift_80
Note_On_60_Vel_84
Time_Shift_62
Note_On_57_Vel_0
Time_Shift_1
Note_On_58_Vel_0
Note_On_69_Vel_0
Time_Shift_1
Note_On_65_Vel_0
Sustain_Off
Time_Shift_4
Note_On_62_Vel_0
Time_Shift_15
Note_On_67_Vel_0
Time_Shift_8
Note_On_67_Vel_71
Note_On_60_Vel_0
Time_Shift_3
Note_On_45_Vel_64
Time_Shift_2
Note_On_60_Vel_72
Time_Shift_2
Note_On_57_Vel_62
Time_Shift_35
Note_On_60_Vel_0
Time_Shift_42
Sustain_On
Time_Shift_5
Note_On_65_Vel_81
Time_Shift_86
Note_On_63_Vel_85
Time_Shift_4
Note_On_43_Vel_65
Time_Shift_88
Note_On_58_Vel_75
Time_Shift_20
Note_On_65_Vel_0
Time_Shift_1
Note_On_45_Vel_0
Time_Shift_1
Sustain_Off
Time_Shift_1
Note_On_63_Vel_0
Time_Shift_2
Note_On_57_Vel_0
Time_Shift_7
Note_On_67_Vel_0
Time_Shift_59
Note_On_65_Vel_67
Time_Shift_1
Note_On_55_Vel_68
Time_Shift_79
Note_On_58_Vel_0
Time_Shift_4
Note_On_63_Vel_78
Time_Shift_2
Note_On_58_Vel_62
Time_Shift_17
Note_On_65_Vel_0
Time_Shift_21
Note_On_55_Vel_0
Time_Shift_2
Note_On_58_Vel_0
Time_Shift_23
Note_On_43_Vel_0
Time_Shift_11
Note_On_63_Vel_0
Time_Shift_12
Note_On_53_Vel_78
Note_On_62_Vel_77
Time_Shift_34
Note_On_53_Vel_0
Time_Shift_7
Note_On_62_Vel_0
Time_Shift_38
Note_On_57_Vel_63
Time_Shift_46
Note_On_57_Vel_0
Time_Shift_39
Note_On_52_Vel_100
Time_Shift_1
Note_On_45_Vel_101
Time_Shift_3
Note_On_62_Vel_93
Note_On_55_Vel_87
Time_Shift_1
Note_On_57_Vel_86
Time_Shift_31
Note_On_52_Vel_0
Time_Shift_3
Note_On_45_Vel_0
Time_Shift_1
Note_On_55_Vel_0
Time_Shift_26
Note_On_57_Vel_0
Time_Shift_12
Note_On_62_Vel_0
Time_Shift_10
Note_On_61_Vel_88
Time_Shift_44
Note_On_61_Vel_0
Time_Shift_55
Note_On_50_Vel_109
Time_Shift_1
Note_On_38_Vel_101
Time_Shift_2
Note_On_53_Vel_101
Time_Shift_2
Note_On_62_Vel_101
Time_Shift_35
Sustain_On
Time_Shift_43
Note_On_38_Vel_0
Time_Shift_2
Note_On_50_Vel_0
Time_Shift_3
Sustain_Off
Time_Shift_8
Note_On_62_Vel_0
Time_Shift_13
Note_On_53_Vel_0
Time_Shift_271
Note_On_50_Vel_96
Note_On_53_Vel_105
Time_Shift_2
Note_On_56_Vel_97
Time_Shift_54
Note_On_56_Vel_0
Time_Shift_23
Note_On_57_Vel_88
Time_Shift_97
Note_On_62_Vel_86
Time_Shift_85
Note_On_65_Vel_83
Time_Shift_83
Note_On_50_Vel_0
Time_Shift_6
Note_On_61_Vel_90
Time_Shift_3
Note_On_50_Vel_68
Time_Shift_6
Sustain_On
Time_Shift_69
Note_On_62_Vel_0
Time_Shift_6
Note_On_62_Vel_84
Time_Shift_79
Note_On_65_Vel_0
Time_Shift_7
Note_On_65_Vel_83
Time_Shift_84
Note_On_69_Vel_76
Time_Shift_85
Note_On_53_Vel_0
Note_On_57_Vel_0
Time_Shift_7
Note_On_57_Vel_101
Time_Shift_1
Note_On_50_Vel_0
Time_Shift_3
Note_On_53_Vel_87
Time_Shift_3
Note_On_50_Vel_79
Time_Shift_20
Note_On_61_Vel_0
Time_Shift_2
Note_On_69_Vel_0
Note_On_65_Vel_0
Note_On_62_Vel_0
Time_Shift_5
Sustain_Off
Time_Shift_56
Note_On_65_Vel_88
Time_Shift_86
Note_On_69_Vel_78
Time_Shift_2
Sustain_On
Time_Shift_78
Note_On_74_Vel_77
Time_Shift_82
Note_On_68_Vel_86
Time_Shift_78
Note_On_69_Vel_0
Time_Shift_7
Note_On_69_Vel_82
Time_Shift_22
Note_On_68_Vel_0
Time_Shift_1
Note_On_74_Vel_0
Note_On_57_Vel_0
Time_Shift_1
Sustain_Off
Time_Shift_7
Note_On_50_Vel_0
Time_Shift_8
Note_On_53_Vel_0
Note_On_65_Vel_0
Time_Shift_51
Note_On_62_Vel_95
Time_Shift_2
Note_On_57_Vel_74
Time_Shift_6
Note_On_50_Vel_64
Time_Shift_1
Note_On_53_Vel_72
Time_Shift_40
Sustain_On
Time_Shift_27
Note_On_77_Vel_79
Time_Shift_83
Note_On_73_Vel_85
Time_Shift_74
Note_On_50_Vel_0
Time_Shift_7
Note_On_74_Vel_70
Time_Shift_3
Note_On_50_Vel_59
Time_Shift_40
Sustain_Off
Note_On_77_Vel_0
Time_Shift_1
Note_On_53_Vel_0
Note_On_73_Vel_0
Note_On_57_Vel_0
Note_On_62_Vel_0
Time_Shift_1
Note_On_50_Vel_0
Time_Shift_1
Note_On_74_Vel_0
Time_Shift_9
Note_On_69_Vel_0
Time_Shift_30
Note_On_77_Vel_89
Time_Shift_3
Note_On_62_Vel_98
Time_Shift_7
Note_On_53_Vel_80
Note_On_57_Vel_84
Time_Shift_2
Note_On_50_Vel_77
Time_Shift_27
Sustain_On
Time_Shift_41
Note_On_81_Vel_79
Time_Shift_74
Note_On_50_Vel_0
Note_On_57_Vel_0
Time_Shift_5
Note_On_50_Vel_64
Time_Shift_1
Note_On_57_Vel_65
Time_Shift_5
Note_On_76_Vel_83
Time_Shift_73
Note_On_77_Vel_0
Time_Shift_10
Note_On_77_Vel_82
Time_Shift_22
Sustain_Off
Time_Shift_1
Note_On_53_Vel_0
Time_Shift_1
Note_On_76_Vel_0
Note_On_57_Vel_0
Time_Shift_1
Note_On_81_Vel_0
Note_On_50_Vel_0
Note_On_62_Vel_0
Time_Shift_53
Note_On_77_Vel_0
Time_Shift_8
Note_On_81_Vel_82
Time_Shift_9
Note_On_62_Vel_90
Time_Shift_6
Note_On_57_Vel_79
Note_On_53_Vel_77
Time_Shift_1
Note_On_50_Vel_71
Time_Shift_20
Note_On_62_Vel_0
Time_Shift_4
Note_On_50_Vel_0
Note_On_53_Vel_0
Time_Shift_18
Note_On_57_Vel_0
Time_Shift_16
Note_On_81_Vel_0
Time_Shift_9
Note_On_86_Vel_80
Time_Shift_54
Note_On_86_Vel_0
Time_Shift_32
Note_On_62_Vel_100
Time_Shift_5
Note_On_57_Vel_84
Time_Shift_1
Note_On_53_Vel_83
Time_Shift_2
Note_On_50_Vel_81
Time_Shift_1
Note_On_80_Vel_81
Time_Shift_17
Note_On_62_Vel_0
Time_Shift_3
Note_On_53_Vel_0
Note_On_57_Vel_0
Time_Shift_4
Note_On_50_Vel_0
Time_Shift_27
Note_On_80_Vel_0
Time_Shift_33
Note_On_81_Vel_78
Time_Shift_76
Note_On_62_Vel_103
Note_On_81_Vel_0
Note_On_86_Vel_90
Time_Shift_2
Note_On_57_Vel_91
Time_Shift_5
Note_On_53_Vel_92
Time_Shift_1
Note_On_50_Vel_81
Time_Shift_23
Note_On_57_Vel_0
Time_Shift_4
Note_On_62_Vel_0
Note_On_53_Vel_0
Time_Shift_23
Note_On_50_Vel_0
Time_Shift_22
Note_On_89_Vel_88
Time_Shift_24
Note_On_86_Vel_0
Time_Shift_14
Note_On_89_Vel_0
Time_Shift_56
Note_On_62_Vel_100
Time_Shift_2
Note_On_57_Vel_98
Time_Shift_1
Note_On_78_Vel_108
Note_On_50_Vel_81
Time_Shift_1
Note_On_54_Vel_92
Time_Shift_4
Note_On_90_Vel_102
Time_Shift_1
Note_On_86_Vel_85
Time_Shift_2
Note_On_48_Vel_89
Time_Shift_19
Sustain_On
Time_Shift_69
Note_On_57_Vel_0
Time_Shift_8
Note_On_54_Vel_0
Time_Shift_3
Note_On_57_Vel_79
Time_Shift_1
Note_On_54_Vel_81
Time_Shift_49
Note_On_90_Vel_0
Time_Shift_1
Note_On_54_Vel_0
Time_Shift_2
Note_On_57_Vel_0
Sustain_Off
Time_Shift_1
Note_On_62_Vel_0
Time_Shift_1
Note_On_78_Vel_0
Time_Shift_3
Note_On_48_Vel_0
Note_On_50_Vel_0
Note_On_86_Vel_0
Time_Shift_91
Note_On_48_Vel_51
Time_Shift_47
Note_On_48_Vel_0
Time_Shift_64
Note_On_86_Vel_102
Time_Shift_3
Note_On_78_Vel_98
Time_Shift_1
Note_On_37_Vel_74
Note_On_81_Vel_91
Time_Shift_1
Note_On_74_Vel_100
Time_Shift_29
Note_On_37_Vel_0
Time_Shift_33
Sustain_On
Time_Shift_10
Note_On_38_Vel_67
Time_Shift_74
Sustain_Off
Time_Shift_17
Note_On_42_Vel_79
Time_Shift_68
Note_On_38_Vel_0
Time_Shift_12
Note_On_45_Vel_73
Time_Shift_1
Note_On_42_Vel_0
Time_Shift_64
Note_On_45_Vel_0
Time_Shift_19
Note_On_41_Vel_78
Time_Shift_19
Sustain_On
Time_Shift_67
Note_On_42_Vel_75
Time_Shift_89
Note_On_45_Vel_80
Time_Shift_86
Note_On_50_Vel_78
Time_Shift_81
Note_On_86_Vel_0
Time_Shift_4
Note_On_44_Vel_82
Note_On_86_Vel_100
Time_Shift_3
Note_On_74_Vel_0
Note_On_78_Vel_0
Note_On_81_Vel_0
Time_Shift_4
Note_On_74_Vel_90
Note_On_81_Vel_90
Note_On_78_Vel_91
Time_Shift_1
Note_On_42_Vel_0
Note_On_50_Vel_0
Time_Shift_2
Note_On_41_Vel_0
Time_Shift_14
Sustain_Off
Time_Shift_33
Note_On_44_Vel_0
Time_Shift_8
Note_On_45_Vel_0
Time_Shift_4
Note_On_45_Vel_77
Time_Shift_64
Note_On_45_Vel_0
Time_Shift_17
Note_On_50_Vel_77
Time_Shift_49
Note_On_50_Vel_0
Time_Shift_33
Note_On_54_Vel_81
Time_Shift_61
Note_On_54_Vel_0
Time_Shift_35
Note_On_49_Vel_81
Time_Shift_13
Sustain_On
Time_Shift_63
Note_On_50_Vel_70
Time_Shift_58
Note_On_49_Vel_0
Time_Shift_3
Sustain_Off
Time_Shift_9
Note_On_50_Vel_0
Time_Shift_10
Note_On_54_Vel_77
Time_Shift_3
Note_On_74_Vel_0
Note_On_86_Vel_0
Time_Shift_8
Note_On_78_Vel_0
Note_On_81_Vel_0
Time_Shift_2
Note_On_86_Vel_90
Time_Shift_1
Note_On_74_Vel_83
Time_Shift_2
Note_On_78_Vel_81
Time_Shift_3
Note_On_81_Vel_80
Time_Shift_34
Note_On_54_Vel_0
Time_Shift_23
Note_On_57_Vel_73
Time_Shift_77
Note_On_53_Vel_78
Time_Shift_11
Note_On_57_Vel_0
Time_Shift_31
Sustain_On
Time_Shift_52
Note_On_54_Vel_77
Time_Shift_72
Note_On_57_Vel_85
Time_Shift_5
Sustain_Off
Time_Shift_2
Note_On_74_Vel_0
Note_On_78_Vel_0
Note_On_86_Vel_0
Time_Shift_6
Note_On_86_Vel_96
Time_Shift_1
Note_On_81_Vel_0
Time_Shift_3
Note_On_78_Vel_96
Time_Shift_1
Note_On_74_Vel_94
Time_Shift_1
Note_On_81_Vel_90
Note_On_53_Vel_0
Time_Shift_12
Note_On_54_Vel_0
Time_Shift_65
Note_On_62_Vel_82
Time_Shift_41
Sustain_On
Time_Shift_36
Note_On_56_Vel_84
Time_Shift_64
Note_On_57_Vel_0
Time_Shift_6
Note_On_57_Vel_80
Time_Shift_73
Sustain_Off
Note_On_56_Vel_0
Time_Shift_1
Note_On_57_Vel_0
Time_Shift_20
Note_On_62_Vel_0
Note_On_74_Vel_0
Note_On_78_Vel_0
Note_On_81_Vel_0
Note_On_86_Vel_0
Time_Shift_4
Note_On_62_Vel_85
Note_On_86_Vel_92
Time_Shift_3
Note_On_78_Vel_93
Time_Shift_3
Note_On_74_Vel_95
Time_Shift_1
Note_On_81_Vel_87
Time_Shift_19
Note_On_78_Vel_0
Time_Shift_4
Note_On_62_Vel_0
Time_Shift_20
Note_On_74_Vel_0
Time_Shift_7
Note_On_81_Vel_0
Note_On_86_Vel_0
Time_Shift_32
Note_On_66_Vel_78
Time_Shift_39
Note_On_66_Vel_0
Time_Shift_47
Note_On_86_Vel_95
Time_Shift_1
Note_On_78_Vel_97
Time_Shift_1
Note_On_74_Vel_101
Time_Shift_1
Note_On_81_Vel_88
Time_Shift_10
Note_On_61_Vel_79
Time_Shift_12
Note_On_86_Vel_0
Time_Shift_19
Note_On_74_Vel_0
Note_On_78_Vel_0
Time_Shift_3
Note_On_61_Vel_0
Time_Shift_4
Note_On_81_Vel_0
Time_Shift_37
Note_On_62_Vel_86
Time_Shift_71
Note_On_62_Vel_0
Time_Shift_9
Note_On_66_Vel_93
Time_Shift_1
Note_On_86_Vel_99
Time_Shift_1
Note_On_78_Vel_101
Note_On_81_Vel_98
Note_On_74_Vel_98
Time_Shift_24
Note_On_78_Vel_0
Time_Shift_7
Note_On_74_Vel_0
Time_Shift_12
Note_On_66_Vel_0
Note_On_81_Vel_0
Time_Shift_15
Note_On_86_Vel_0
Time_Shift_9
Note_On_69_Vel_93
Time_Shift_50
Note_On_69_Vel_0
Time_Shift_39
Note_On_86_Vel_107
Time_Shift_3
Note_On_70_Vel_101
Note_On_74_Vel_112
Time_Shift_1
Note_On_79_Vel_107
Time_Shift_28
Note_On_70_Vel_0
Sustain_On
Time_Shift_54
Note_On_79_Vel_0
Time_Shift_62
Note_On_74_Vel_0
Note_On_86_Vel_0
Sustain_Off
Time_Shift_216
Note_On_46_Vel_102
Time_Shift_2
Note_On_49_Vel_93
Time_Shift_1
Note_On_43_Vel_93
Time_Shift_3
Note_On_34_Vel_87
Time_Shift_1
Note_On_38_Vel_89
Time_Shift_1
Note_On_31_Vel_85
Time_Shift_2
Note_On_50_Vel_93
Time_Shift_66
Note_On_50_Vel_0
Time_Shift_7
Note_On_50_Vel_63
Time_Shift_16
Note_On_31_Vel_0
Time_Shift_61
Note_On_49_Vel_0
Time_Shift_19
Note_On_58_Vel_70
Time_Shift_4
Note_On_55_Vel_66
Time_Shift_67
Note_On_62_Vel_89
Time_Shift_64
Sustain_On
Time_Shift_31
Note_On_54_Vel_82
Time_Shift_61
Note_On_55_Vel_0
Time_Shift_8
Note_On_55_Vel_87
Time_Shift_92
Note_On_62_Vel_0
Time_Shift_6
Note_On_62_Vel_85
Time_Shift_81
Note_On_67_Vel_76
Time_Shift_82
Note_On_34_Vel_0
Note_On_55_Vel_0
Note_On_58_Vel_0
Time_Shift_1
Sustain_Off
Time_Shift_6
Note_On_43_Vel_0
Note_On_46_Vel_0
Note_On_50_Vel_0
Time_Shift_3
Note_On_58_Vel_98
Note_On_55_Vel_90
Time_Shift_1
Note_On_46_Vel_86
Time_Shift_1
Note_On_50_Vel_80
Time_Shift_4
Note_On_43_Vel_78
Time_Shift_1
Note_On_67_Vel_0
Time_Shift_1
Note_On_62_Vel_0
Time_Shift_1
Note_On_54_Vel_0
Time_Shift_27
Note_On_38_Vel_0
Time_Shift_45
Note_On_62_Vel_84
Time_Shift_31
Sustain_On
Time_Shift_57
Note_On_67_Vel_72
Time_Shift_74
Note_On_55_Vel_0
Time_Shift_5
Note_On_74_Vel_78
Time_Shift_1
Note_On_55_Vel_62
Time_Shift_83
Note_On_66_Vel_80
Time_Shift_65
Note_On_67_Vel_0
Time_Shift_9
Note_On_67_Vel_81
Time_Shift_7
Note_On_66_Vel_0
Time_Shift_1
Note_On_50_Vel_0
Note_On_55_Vel_0
Note_On_62_Vel_0
Note_On_74_Vel_0
Time_Shift_1
Note_On_58_Vel_0
Sustain_Off
Note_On_46_Vel_0
Time_Shift_5
Note_On_43_Vel_0
Time_Shift_54
Note_On_67_Vel_0
Time_Shift_25
Note_On_58_Vel_93
Time_Shift_2
Note_On_74_Vel_74
Time_Shift_1
Note_On_55_Vel_76
Time_Shift_5
Note_On_50_Vel_71
Time_Shift_1
Note_On_46_Vel_73
Time_Shift_42
Sustain_On
Time_Shift_24
Note_On_79_Vel_80
Time_Shift_82
Note_On_73_Vel_82
Time_Shift_71
Note_On_74_Vel_0
Time_Shift_11
Note_On_74_Vel_80
Time_Shift_24
Note_On_55_Vel_0
Note_On_79_Vel_0
Note_On_50_Vel_0
Note_On_46_Vel_0
Time_Shift_1
Note_On_58_Vel_0
Sustain_Off
Note_On_73_Vel_0
Time_Shift_33
Note_On_74_Vel_0
Time_Shift_18
Note_On_58_Vel_85
Time_Shift_2
Note_On_55_Vel_75
Time_Shift_1
Note_On_46_Vel_71
Note_On_50_Vel_74
Time_Shift_3
Note_On_79_Vel_81
Time_Shift_37
Sustain_On
Time_Shift_41
Note_On_86_Vel_87
Time_Shift_80
Note_On_78_Vel_90
Time_Shift_64
Note_On_79_Vel_0
Time_Shift_8
Note_On_79_Vel_90
Time_Shift_67
Note_On_46_Vel_0
Time_Shift_1
Note_On_79_Vel_0
Time_Shift_2
Note_On_78_Vel_0
Time_Shift_1
Sustain_Off
Time_Shift_13
Note_On_86_Vel_0
Time_Shift_8
Note_On_50_Vel_0
Note_On_55_Vel_0
Note_On_58_Vel_0
Time_Shift_3
Note_On_86_Vel_88
Time_Shift_1
Note_On_58_Vel_94
Time_Shift_2
Note_On_55_Vel_82
Time_Shift_4
Note_On_50_Vel_76
Time_Shift_1
Note_On_43_Vel_73
Time_Shift_1
Note_On_46_Vel_78
Time_Shift_25
Note_On_58_Vel_0
Time_Shift_4
Note_On_55_Vel_0
Time_Shift_2
Note_On_50_Vel_0
Time_Shift_4
Note_On_86_Vel_0
Time_Shift_5
Note_On_46_Vel_0
Time_Shift_1
Note_On_43_Vel_0
Time_Shift_27
Note_On_91_Vel_93
Time_Shift_88
Note_On_90_Vel_95
Time_Shift_4
Note_On_58_Vel_95
Time_Shift_2
Note_On_55_Vel_82
Time_Shift_4
Note_On_50_Vel_80
Time_Shift_4
Note_On_46_Vel_76
Time_Shift_20
Note_On_55_Vel_0
Time_Shift_1
Note_On_58_Vel_0
Time_Shift_2
Note_On_50_Vel_0
Time_Shift_40
Note_On_91_Vel_0
Time_Shift_5
Note_On_91_Vel_90
Time_Shift_18
Note_On_46_Vel_0
Time_Shift_8
Note_On_90_Vel_0
Time_Shift_51
Note_On_91_Vel_0
Note_On_58_Vel_94
Time_Shift_5
Note_On_46_Vel_90
Note_On_100_Vel_103
Time_Shift_2
Note_On_50_Vel_82
Time_Shift_1
Note_On_55_Vel_86
Time_Shift_29
Note_On_58_Vel_0
Time_Shift_6
Note_On_50_Vel_0
Time_Shift_3
Note_On_46_Vel_0
Time_Shift_26
Note_On_55_Vel_0
Time_Shift_5
Note_On_98_Vel_99
Time_Shift_10
Note_On_100_Vel_0
Time_Shift_27
Note_On_98_Vel_0
Time_Shift_52
Note_On_97_Vel_108
Time_Shift_1
Note_On_88_Vel_110
Note_On_100_Vel_103
Time_Shift_1
Note_On_91_Vel_108
Time_Shift_2
Note_On_52_Vel_94
Note_On_57_Vel_97
Time_Shift_1
Note_On_93_Vel_94
Time_Shift_3
Note_On_45_Vel_93
Time_Shift_21
Sustain_On
Time_Shift_7
Note_On_57_Vel_0
Time_Shift_95
Sustain_Off
Time_Shift_2
Note_On_52_Vel_0
Note_On_45_Vel_0
Time_Shift_2
Note_On_88_Vel_0
Note_On_97_Vel_0
Time_Shift_1
Note_On_100_Vel_0
Time_Shift_2
Note_On_91_Vel_0
Time_Shift_14
Note_On_93_Vel_0
Time_Shift_210
Note_On_44_Vel_70
Time_Shift_4
Note_On_93_Vel_106
Time_Shift_1
Note_On_44_Vel_0
Time_Shift_4
Note_On_81_Vel_90
Note_On_88_Vel_92
Time_Shift_1
Note_On_91_Vel_88
Time_Shift_52
Note_On_45_Vel_61
Time_Shift_97
Note_On_49_Vel_80
Time_Shift_68
Note_On_45_Vel_0
Time_Shift_5
Note_On_49_Vel_0
Time_Shift_10
Note_On_52_Vel_70
Time_Shift_51
Note_On_52_Vel_0
Time_Shift_4
Note_On_81_Vel_0
Time_Shift_23
Note_On_48_Vel_81
Time_Shift_53
Sustain_On
Time_Shift_30
Note_On_49_Vel_74
Time_Shift_85
Note_On_52_Vel_81
Time_Shift_89
Note_On_57_Vel_77
Time_Shift_61
Note_On_48_Vel_0
Time_Shift_1
Note_On_52_Vel_0
Time_Shift_1
Note_On_57_Vel_0
Time_Shift_1
Note_On_49_Vel_0
Time_Shift_2
Sustain_Off
Time_Shift_7
Note_On_93_Vel_0
Time_Shift_6
Note_On_93_Vel_107
Time_Shift_2
Note_On_88_Vel_0
Note_On_91_Vel_0
Time_Shift_3
Note_On_51_Vel_84
Time_Shift_1
Note_On_81_Vel_94
Time_Shift_2
Note_On_88_Vel_94
Time_Shift_3
Note_On_91_Vel_97
Time_Shift_72
Note_On_51_Vel_0
Time_Shift_15
Note_On_52_Vel_77
Time_Shift_49
Note_On_52_Vel_0
Time_Shift_30
Note_On_57_Vel_76
Time_Shift_24
Note_On_93_Vel_0
Time_Shift_21
Note_On_57_Vel_0
Time_Shift_25
Note_On_81_Vel_0
Note_On_91_Vel_0
Time_Shift_11
Note_On_61_Vel_79
Time_Shift_58
Sustain_On
Time_Shift_8
Note_On_88_Vel_0
Time_Shift_13
Note_On_56_Vel_80
Time_Shift_10
Note_On_61_Vel_0
Time_Shift_83
Note_On_57_Vel_74
Time_Shift_25
Note_On_56_Vel_0
Time_Shift_5
Sustain_Off
Time_Shift_30
Note_On_93_Vel_95
Time_Shift_6
Note_On_91_Vel_84
Time_Shift_2
Note_On_81_Vel_80
Note_On_88_Vel_81
Time_Shift_3
Note_On_57_Vel_0
Time_Shift_5
Note_On_61_Vel_73
Time_Shift_53
Note_On_61_Vel_0
Time_Shift_25
Note_On_64_Vel_63
Time_Shift_44
Note_On_64_Vel_0
Time_Shift_36
Note_On_60_Vel_74
Time_Shift_29
Sustain_On
Time_Shift_20
Note_On_60_Vel_0
Time_Shift_3
Note_On_81_Vel_0
Time_Shift_20
Sustain_Off
Time_Shift_1
Note_On_61_Vel_79
Time_Shift_9
Sustain_On
Time_Shift_47
Note_On_91_Vel_0
Time_Shift_15
Note_On_88_Vel_0
Note_On_93_Vel_0
Time_Shift_6
Note_On_93_Vel_102
Time_Shift_2
Note_On_61_Vel_0
Time_Shift_1
Note_On_81_Vel_95
Time_Shift_1
Note_On_88_Vel_96
Time_Shift_3
Note_On_64_Vel_75
Time_Shift_1
Note_On_91_Vel_90
Time_Shift_17
Sustain_Off
Time_Shift_67
Note_On_69_Vel_77
Time_Shift_17
Sustain_On
Time_Shift_58
Note_On_63_Vel_85
Time_Shift_65
Note_On_64_Vel_0
Time_Shift_11
Note_On_64_Vel_84
Time_Shift_75
Note_On_64_Vel_0
Note_On_63_Vel_0
Time_Shift_2
Sustain_Off
Time_Shift_4
Note_On_69_Vel_0
Note_On_81_Vel_0
Note_On_93_Vel_0
Time_Shift_8
Note_On_88_Vel_0
Time_Shift_2
Note_On_69_Vel_85
Note_On_93_Vel_99
Time_Shift_1
Note_On_81_Vel_101
Time_Shift_1
Note_On_88_Vel_94
Time_Shift_19
Note_On_91_Vel_0
Time_Shift_6
Note_On_91_Vel_63
Time_Shift_25
Note_On_81_Vel_0
Time_Shift_7
Note_On_69_Vel_0
Time_Shift_23
Note_On_73_Vel_83
Time_Shift_39
Note_On_91_Vel_0
Time_Shift_46
Note_On_88_Vel_0
Note_On_93_Vel_0
Time_Shift_2
Note_On_69_Vel_85
Time_Shift_2
Note_On_81_Vel_105
Time_Shift_1
Note_On_93_Vel_100
Time_Shift_2
Note_On_88_Vel_102
Note_On_69_Vel_0
Time_Shift_20
Note_On_91_Vel_73
Time_Shift_42
Note_On_81_Vel_0
Time_Shift_26
Note_On_69_Vel_83
Time_Shift_28
Note_On_88_Vel_0
Note_On_91_Vel_0
Time_Shift_38
Note_On_69_Vel_0
Note_On_93_Vel_0
Time_Shift_8
Note_On_73_Vel_0
Time_Shift_3
Note_On_81_Vel_102
Note_On_69_Vel_82
Note_On_88_Vel_100
Note_On_93_Vel_101
Time_Shift_1
Note_On_73_Vel_91
Time_Shift_50
Note_On_69_Vel_0
Time_Shift_33
Note_On_76_Vel_92
Time_Shift_51
Note_On_88_Vel_0
Time_Shift_12
Note_On_76_Vel_0
Time_Shift_11
Note_On_81_Vel_0
Time_Shift_6
Note_On_86_Vel_102
Note_On_74_Vel_108
Time_Shift_2
Note_On_73_Vel_0
Time_Shift_1
Note_On_81_Vel_102
Note_On_89_Vel_103
Time_Shift_45
Sustain_On
Time_Shift_142
Sustain_Off
Time_Shift_34
Sustain_On
Time_Shift_143
Sustain_Off
Time_Shift_3
Note_On_93_Vel_0
Time_Shift_16
Note_On_86_Vel_0
Time_Shift_7
Note_On_74_Vel_0
Time_Shift_3
Note_On_86_Vel_95
Time_Shift_2
Note_On_88_Vel_92
Time_Shift_2
Note_On_82_Vel_91
Time_Shift_4
Note_On_74_Vel_82
Time_Shift_5
Note_On_89_Vel_0
Time_Shift_23
Note_On_81_Vel_0
Time_Shift_23
Sustain_On
Time_Shift_1
Note_On_77_Vel_37
Time_Shift_27
Note_On_89_Vel_97
Time_Shift_83
Note_On_94_Vel_98
Time_Shift_95
Note_On_98_Vel_96
Time_Shift_59
Sustain_Off
Time_Shift_19
Note_On_74_Vel_0
Time_Shift_4
Note_On_90_Vel_100
Time_Shift_28
Note_On_91_Vel_74
Time_Shift_1
Note_On_79_Vel_59
Time_Shift_1
Note_On_76_Vel_57
Time_Shift_43
Note_On_91_Vel_0
Time_Shift_7
Sustain_On
Time_Shift_4
Note_On_91_Vel_95
Time_Shift_4
Note_On_98_Vel_0
Time_Shift_77
Note_On_94_Vel_0
Time_Shift_9
Note_On_94_Vel_95
Time_Shift_14
Note_On_88_Vel_0
Time_Shift_72
Note_On_98_Vel_96
Time_Shift_86
Note_On_88_Vel_94
Time_Shift_2
Note_On_84_Vel_70
Time_Shift_17
Sustain_Off
Time_Shift_23
Note_On_98_Vel_0
Time_Shift_7
Note_On_77_Vel_0
Time_Shift_16
Note_On_82_Vel_0
Time_Shift_2
Note_On_94_Vel_0
Time_Shift_5
Note_On_91_Vel_0
Time_Shift_8
Note_On_86_Vel_0
Time_Shift_1
Note_On_91_Vel_98
Time_Shift_22
Sustain_On
Time_Shift_8
Note_On_89_Vel_0
Time_Shift_54
Note_On_88_Vel_0
Time_Shift_6
Note_On_96_Vel_96
Time_Shift_5
Note_On_88_Vel_72
Time_Shift_4
Note_On_90_Vel_0
Time_Shift_80
Note_On_94_Vel_97
Time_Shift_88
Note_On_89_Vel_96
Time_Shift_2
Note_On_77_Vel_65
Time_Shift_2
Note_On_81_Vel_70
Time_Shift_7
Sustain_Off
Time_Shift_44
Sustain_On
Time_Shift_15
Note_On_91_Vel_0
Time_Shift_5
Note_On_91_Vel_96
Time_Shift_92
Note_On_92_Vel_97
Time_Shift_80
Note_On_93_Vel_95
Time_Shift_53
Note_On_79_Vel_0
Time_Shift_30
Sustain_Off
Time_Shift_9
Note_On_86_Vel_92
Time_Shift_5
Note_On_79_Vel_81
Time_Shift_19
Note_On_75_Vel_63
Time_Shift_1
Note_On_67_Vel_61
Time_Shift_9
Note_On_70_Vel_54
Time_Shift_56
Note_On_87_Vel_95
Time_Shift_2
Sustain_On
Time_Shift_15
Note_On_76_Vel_0
Time_Shift_62
Note_On_91_Vel_0
Time_Shift_4
Note_On_91_Vel_97
Time_Shift_88
Note_On_94_Vel_0
Time_Shift_7
Note_On_94_Vel_96
Time_Shift_1
Note_On_88_Vel_0
Time_Shift_90
Note_On_85_Vel_94
Time_Shift_2
Note_On_75_Vel_0
Note_On_77_Vel_0
Time_Shift_5
Note_On_77_Vel_61
Time_Shift_5
Note_On_75_Vel_64
Note_On_69_Vel_50
Time_Shift_59
Note_On_86_Vel_0
Time_Shift_5
Note_On_86_Vel_89
Time_Shift_87
Note_On_89_Vel_0
Time_Shift_6
Note_On_89_Vel_97
Time_Shift_40
Note_On_81_Vel_0
Time_Shift_5
Sustain_Off
Time_Shift_3
Note_On_84_Vel_0
Note_On_96_Vel_0
Time_Shift_23
Note_On_67_Vel_0
Note_On_79_Vel_0
Note_On_92_Vel_0
Time_Shift_8
Note_On_87_Vel_0
Note_On_91_Vel_0
Time_Shift_7
Note_On_69_Vel_0
Note_On_70_Vel_0
Note_On_93_Vel_0
Time_Shift_8
Note_On_75_Vel_0
Note_On_85_Vel_0
Time_Shift_1
Note_On_77_Vel_0
Time_Shift_2
Note_On_93_Vel_93
Time_Shift_1
Note_On_86_Vel_0
Time_Shift_4
Note_On_94_Vel_0
Time_Shift_69
Note_On_89_Vel_0
Time_Shift_18
Note_On_85_Vel_87
Time_Shift_1
Note_On_79_Vel_67
Note_On_76_Vel_62
Time_Shift_4
Note_On_69_Vel_51
Time_Shift_61
Sustain_On
Time_Shift_35
Note_On_88_Vel_81
Time_Shift_73
Note_On_93_Vel_0
Time_Shift_9
Note_On_93_Vel_79
Time_Shift_93
Note_On_91_Vel_77
Time_Shift_71
Note_On_85_Vel_0
Time_Shift_6
Sustain_Off
Time_Shift_15
Note_On_77_Vel_59
Note_On_86_Vel_75
Time_Shift_8
Note_On_74_Vel_46
Time_Shift_74
Sustain_On
Time_Shift_6
Note_On_87_Vel_72
Time_Shift_48
Note_On_79_Vel_0
Time_Shift_46
Note_On_88_Vel_0
Time_Shift_4
Note_On_88_Vel_69
Time_Shift_86
Note_On_89_Vel_74
Time_Shift_2
Note_On_93_Vel_0
Time_Shift_112
Note_On_79_Vel_92
Time_Shift_12
Sustain_Off
Time_Shift_3
Note_On_81_Vel_75
Time_Shift_16
Note_On_75_Vel_59
Time_Shift_6
Note_On_67_Vel_59
Time_Shift_4
Note_On_70_Vel_47
Time_Shift_4
Note_On_69_Vel_0
Time_Shift_1
Note_On_77_Vel_0
Time_Shift_3
Note_On_86_Vel_0
Time_Shift_1
Note_On_89_Vel_0
Note_On_88_Vel_0
Time_Shift_7
Note_On_76_Vel_0
Time_Shift_15
Sustain_On
Time_Shift_31
Note_On_74_Vel_0
Time_Shift_3
Note_On_82_Vel_76
Time_Shift_74
Note_On_87_Vel_0
Time_Shift_7
Note_On_87_Vel_82
Time_Shift_77
Note_On_91_Vel_0
Time_Shift_8
Note_On_91_Vel_85
Time_Shift_87
Note_On_83_Vel_88
Time_Shift_5
Note_On_67_Vel_0
Note_On_75_Vel_0
Time_Shift_3
Note_On_72_Vel_54
Time_Shift_3
Note_On_75_Vel_51
Time_Shift_4
Note_On_67_Vel_40
Sustain_Off
Time_Shift_2
Note_On_69_Vel_53
Time_Shift_65
Sustain_On
Time_Shift_1
Note_On_84_Vel_89
Time_Shift_76
Note_On_87_Vel_0
Time_Shift_7
Note_On_87_Vel_89
Time_Shift_85
Note_On_91_Vel_0
Time_Shift_5
Note_On_91_Vel_96
Time_Shift_26
Note_On_81_Vel_0
Time_Shift_54
Note_On_72_Vel_0
Time_Shift_5
Note_On_81_Vel_92
Time_Shift_2
Note_On_77_Vel_75
Note_On_70_Vel_0
Time_Shift_2
Note_On_72_Vel_56
Time_Shift_9
Note_On_83_Vel_0
Time_Shift_1
Sustain_Off
Note_On_87_Vel_0
Time_Shift_1
Note_On_82_Vel_0
Time_Shift_49
Sustain_On
Time_Shift_7
Note_On_84_Vel_0
Time_Shift_9
Note_On_84_Vel_88
Time_Shift_89
Note_On_89_Vel_89
Time_Shift_76
Note_On_87_Vel_91
Time_Shift_98
Note_On_82_Vel_85
Time_Shift_1
Note_On_81_Vel_0
Note_On_84_Vel_0
Time_Shift_1
Note_On_69_Vel_0
Time_Shift_2
Note_On_77_Vel_0
Time_Shift_3
Note_On_74_Vel_59
Time_Shift_1
Note_On_70_Vel_50
Time_Shift_1
Note_On_79_Vel_0
Time_Shift_4
Note_On_67_Vel_0
Time_Shift_3
Sustain_Off
Time_Shift_12
Note_On_75_Vel_0
Time_Shift_31
Sustain_On
Time_Shift_28
Note_On_84_Vel_82
Time_Shift_88
Note_On_85_Vel_86
Time_Shift_14
Note_On_91_Vel_0
Time_Shift_66
Note_On_86_Vel_81
Time_Shift_49
Note_On_72_Vel_0
Time_Shift_14
Note_On_74_Vel_0
Time_Shift_1
Note_On_70_Vel_0
Time_Shift_1
Note_On_89_Vel_0
Time_Shift_3
Note_On_84_Vel_0
Sustain_Off
Note_On_82_Vel_0
Note_On_87_Vel_0
Time_Shift_1
Note_On_86_Vel_0
Note_On_85_Vel_0
Time_Shift_23
Note_On_79_Vel_77
Time_Shift_7
Note_On_72_Vel_64
Time_Shift_10
Note_On_69_Vel_51
Time_Shift_1
Note_On_60_Vel_55
Time_Shift_10
Note_On_63_Vel_56
Time_Shift_52
Sustain_On
Time_Shift_5
Note_On_81_Vel_74
Time_Shift_86
Note_On_84_Vel_81
Time_Shift_95
Note_On_87_Vel_82
Time_Shift_75
Note_On_79_Vel_0
Time_Shift_3
Note_On_69_Vel_0
Time_Shift_1
Note_On_81_Vel_0
Note_On_60_Vel_0
Note_On_84_Vel_0
Time_Shift_1
Note_On_63_Vel_0
Time_Shift_4
Note_On_79_Vel_66
Time_Shift_1
Sustain_Off
Time_Shift_3
Note_On_70_Vel_45
Time_Shift_10
Note_On_72_Vel_0
Time_Shift_3
Note_On_62_Vel_35
Time_Shift_69
Note_On_82_Vel_79
Time_Shift_13
Sustain_On
Time_Shift_15
Note_On_87_Vel_0
Time_Shift_53
Note_On_85_Vel_75
Time_Shift_91
Note_On_86_Vel_77
Time_Shift_46
Note_On_82_Vel_0
Note_On_70_Vel_0
Note_On_62_Vel_0
Note_On_85_Vel_0
Time_Shift_11
Sustain_Off
Time_Shift_14
Note_On_79_Vel_0
Time_Shift_29
Note_On_78_Vel_59
Time_Shift_12
Note_On_72_Vel_48
Time_Shift_2
Note_On_62_Vel_42
Time_Shift_5
Note_On_69_Vel_39
Time_Shift_44
Sustain_On
Time_Shift_16
Note_On_86_Vel_0
Time_Shift_20
Note_On_81_Vel_58
Time_Shift_48
Sustain_Off
Time_Shift_9
Sustain_On
Time_Shift_24
Note_On_86_Vel_69
Time_Shift_103
Note_On_84_Vel_62
Time_Shift_26
Note_On_72_Vel_0
Time_Shift_62
Note_On_78_Vel_0
Time_Shift_7
Note_On_69_Vel_0
Time_Shift_16
Sustain_Off
Time_Shift_7
Note_On_62_Vel_0
Note_On_81_Vel_0
Time_Shift_8
Note_On_86_Vel_0
Time_Shift_2
Note_On_82_Vel_57
Time_Shift_17
Note_On_63_Vel_39
Time_Shift_1
Note_On_79_Vel_40
Note_On_70_Vel_40
Time_Shift_6
Note_On_67_Vel_31
Time_Shift_5
Note_On_84_Vel_0
Time_Shift_54
Sustain_On
Time_Shift_140
Note_On_79_Vel_0
Time_Shift_1
Note_On_67_Vel_0
Time_Shift_5
Sustain_Off
Time_Shift_143
Note_On_39_Vel_68
Time_Shift_2
Note_On_51_Vel_63
Time_Shift_24
Note_On_51_Vel_0
Time_Shift_2
Note_On_39_Vel_0
Time_Shift_20
Note_On_63_Vel_0
Time_Shift_23
Note_On_70_Vel_0
Time_Shift_54
Note_On_82_Vel_0
Time_Shift_43
Note_On_51_Vel_75
Note_On_39_Vel_71
Time_Shift_25
Note_On_51_Vel_0
Time_Shift_5
Note_On_39_Vel_0
Time_Shift_146
Note_On_39_Vel_74
Time_Shift_2
Note_On_51_Vel_72
Time_Shift_7
Note_On_67_Vel_67
Time_Shift_19
Note_On_51_Vel_0
Time_Shift_1
Note_On_39_Vel_0
Time_Shift_41
Note_On_67_Vel_0
Time_Shift_23
Note_On_70_Vel_63
Time_Shift_51
Note_On_70_Vel_0
Time_Shift_27
Note_On_74_Vel_62
Time_Shift_76
Note_On_75_Vel_76
Time_Shift_84
Note_On_58_Vel_71
Time_Shift_5
Note_On_55_Vel_61
Time_Shift_2
Note_On_51_Vel_62
Time_Shift_5
Note_On_79_Vel_72
Time_Shift_23
Note_On_74_Vel_0
Time_Shift_11
Note_On_75_Vel_0
Time_Shift_3
Note_On_79_Vel_0
Time_Shift_35
Note_On_82_Vel_84
Time_Shift_78
Note_On_86_Vel_84
Time_Shift_8
Note_On_82_Vel_0
Time_Shift_53
Note_On_86_Vel_0
Time_Shift_6
Note_On_87_Vel_91
Time_Shift_26
Note_On_58_Vel_0
Time_Shift_48
Note_On_87_Vel_0
Time_Shift_34
Note_On_91_Vel_101
Note_On_59_Vel_78
Time_Shift_4
Sustain_On
Time_Shift_155
Note_On_79_Vel_83
Time_Shift_24
Note_On_91_Vel_0
Time_Shift_2
Note_On_59_Vel_0
Time_Shift_1
Note_On_79_Vel_0
Note_On_51_Vel_0
Time_Shift_1
Note_On_55_Vel_0
Time_Shift_6
Sustain_Off
Time_Shift_137
Note_On_51_Vel_86
Note_On_39_Vel_81
Time_Shift_43
Note_On_39_Vel_0
Note_On_51_Vel_0
Time_Shift_123
Note_On_51_Vel_88
Time_Shift_1
Note_On_39_Vel_77
Time_Shift_21
Note_On_51_Vel_0
Time_Shift_24
Note_On_39_Vel_0
Time_Shift_114
Note_On_51_Vel_96
Time_Shift_3
Note_On_39_Vel_85
Time_Shift_4
Note_On_67_Vel_82
Time_Shift_15
Note_On_51_Vel_0
Time_Shift_25
Note_On_39_Vel_0
Time_Shift_19
Note_On_67_Vel_0
Time_Shift_28
Note_On_71_Vel_78
Time_Shift_64
Note_On_71_Vel_0
Time_Shift_8
Note_On_74_Vel_78
Time_Shift_70
Note_On_74_Vel_0
Time_Shift_6
Note_On_75_Vel_87
Time_Shift_43
Note_On_75_Vel_0
Time_Shift_25
Note_On_59_Vel_87
Time_Shift_2
Note_On_51_Vel_83
Time_Shift_4
Note_On_55_Vel_79
Time_Shift_2
Note_On_79_Vel_91
Time_Shift_36
Sustain_On
Time_Shift_43
Note_On_83_Vel_92
Time_Shift_81
Note_On_86_Vel_93
Time_Shift_71
Note_On_87_Vel_97
Time_Shift_32
Note_On_86_Vel_0
Time_Shift_5
Note_On_83_Vel_0
Time_Shift_7
Note_On_87_Vel_0
Time_Shift_1
Sustain_Off
Time_Shift_14
Note_On_59_Vel_0
Note_On_79_Vel_0
Time_Shift_36
Note_On_60_Vel_97
Time_Shift_1
Note_On_91_Vel_108
Time_Shift_1
Sustain_On
Time_Shift_156
Note_On_79_Vel_98
Time_Shift_51
Note_On_60_Vel_0
Note_On_55_Vel_0
Time_Shift_2
Note_On_91_Vel_0
Note_On_79_Vel_0
Time_Shift_2
Sustain_Off
Time_Shift_4
Note_On_51_Vel_0
Time_Shift_105
Note_On_51_Vel_99
Note_On_39_Vel_88
Time_Shift_22
Note_On_39_Vel_0
Time_Shift_19
Note_On_51_Vel_0
Time_Shift_125
Note_On_51_Vel_92
Time_Shift_1
Note_On_39_Vel_82
Time_Shift_25
Note_On_51_Vel_0
Time_Shift_4
Note_On_39_Vel_0
Time_Shift_142
Note_On_51_Vel_97
Time_Shift_2
Note_On_67_Vel_80
Time_Shift_1
Note_On_39_Vel_82
Time_Shift_25
Note_On_51_Vel_0
Time_Shift_3
Note_On_39_Vel_0
Time_Shift_22
Note_On_67_Vel_0
Time_Shift_26
Note_On_72_Vel_79
Time_Shift_74
Note_On_74_Vel_79
Note_On_72_Vel_0
Time_Shift_70
Note_On_74_Vel_0
Time_Shift_10
Note_On_75_Vel_85
Time_Shift_27
Note_On_75_Vel_0
Time_Shift_54
Note_On_60_Vel_94
Note_On_79_Vel_87
Time_Shift_12
Note_On_55_Vel_72
Time_Shift_2
Note_On_51_Vel_81
Time_Shift_20
Sustain_On
Time_Shift_42
Note_On_84_Vel_86
Time_Shift_85
Note_On_86_Vel_92
Time_Shift_71
Note_On_87_Vel_96
Time_Shift_70
Note_On_84_Vel_0
Time_Shift_3
Note_On_79_Vel_0
Time_Shift_1
Note_On_86_Vel_0
Note_On_87_Vel_0
Time_Shift_1
Note_On_55_Vel_0
Sustain_Off
Time_Shift_1
Note_On_60_Vel_0
Time_Shift_25
Note_On_91_Vel_110
Note_On_61_Vel_101
Time_Shift_16
Sustain_On
Time_Shift_73
Note_On_87_Vel_62
Time_Shift_74
Note_On_79_Vel_94
Time_Shift_152
Sustain_Off
Time_Shift_1
Note_On_91_Vel_0
Time_Shift_1
Note_On_61_Vel_0
Time_Shift_1
Note_On_79_Vel_0
Time_Shift_5
Note_On_51_Vel_0
Note_On_87_Vel_0
Time_Shift_6
Note_On_51_Vel_103
Time_Shift_3
Note_On_39_Vel_89
Time_Shift_24
Note_On_51_Vel_0
Time_Shift_3
Note_On_39_Vel_0
Time_Shift_137
Note_On_51_Vel_99
Time_Shift_1
Note_On_39_Vel_84
Time_Shift_32
Note_On_51_Vel_0
Time_Shift_4
Note_On_39_Vel_0
Time_Shift_133
Note_On_51_Vel_104
Time_Shift_1
Note_On_39_Vel_88
Time_Shift_5
Note_On_67_Vel_83
Time_Shift_24
Note_On_51_Vel_0
Time_Shift_1
Note_On_39_Vel_0
Time_Shift_30
Note_On_67_Vel_0
Time_Shift_29
Note_On_70_Vel_84
Time_Shift_64
Note_On_73_Vel_80
Time_Shift_15
Note_On_70_Vel_0
Time_Shift_54
Note_On_73_Vel_0
Time_Shift_3
Note_On_78_Vel_86
Time_Shift_19
Note_On_51_Vel_80
Time_Shift_43
Note_On_57_Vel_76
Time_Shift_19
Note_On_79_Vel_93
Time_Shift_18
Sustain_On
Time_Shift_10
Note_On_67_Vel_97
Time_Shift_67
Note_On_85_Vel_93
Time_Shift_81
Note_On_91_Vel_102
Time_Shift_45
Note_On_50_Vel_79
Time_Shift_29
Note_On_97_Vel_102
Time_Shift_68
Note_On_57_Vel_0
Time_Shift_9
Note_On_57_Vel_64
Time_Shift_6
Note_On_98_Vel_109
Time_Shift_11
Note_On_66_Vel_92
Time_Shift_42
Sustain_Off
Time_Shift_1
Note_On_79_Vel_0
Time_Shift_1
Note_On_50_Vel_0
Time_Shift_1
Note_On_57_Vel_0
Note_On_85_Vel_0
Time_Shift_1
Note_On_67_Vel_0
Note_On_66_Vel_0
Note_On_91_Vel_0
Note_On_51_Vel_0
Note_On_97_Vel_0
Time_Shift_12
Note_On_78_Vel_0
Time_Shift_8
Note_On_98_Vel_0
Time_Shift_159
Note_On_62_Vel_81
Time_Shift_57
Note_On_62_Vel_0
Time_Shift_8
Note_On_63_Vel_83
Time_Shift_56
Note_On_63_Vel_0
Time_Shift_20
Note_On_64_Vel_85
Time_Shift_21
Note_On_50_Vel_60
Note_On_58_Vel_79
Time_Shift_2
Note_On_55_Vel_68
Time_Shift_38
Sustain_On
Time_Shift_24
Note_On_65_Vel_92
Time_Shift_79
Note_On_66_Vel_90
Time_Shift_75
Note_On_67_Vel_92
Time_Shift_79
Note_On_68_Vel_92
Time_Shift_80
Note_On_69_Vel_94
Time_Shift_82
Note_On_70_Vel_92
Time_Shift_72
Note_On_71_Vel_98
Time_Shift_77
Note_On_66_Vel_0
Note_On_58_Vel_0
Time_Shift_4
Sustain_Off
Time_Shift_4
Note_On_50_Vel_0
Note_On_55_Vel_0
Note_On_64_Vel_0
Time_Shift_2
Note_On_72_Vel_96
Time_Shift_1
Note_On_58_Vel_89
Time_Shift_3
Note_On_64_Vel_93
Note_On_50_Vel_77
Note_On_55_Vel_83
Time_Shift_40
Sustain_On
Time_Shift_35
Note_On_73_Vel_90
Time_Shift_100
Note_On_76_Vel_91
Time_Shift_84
Note_On_82_Vel_94
Time_Shift_62
Note_On_62_Vel_81
Time_Shift_1
Note_On_54_Vel_75
Time_Shift_6
Note_On_81_Vel_88
Time_Shift_44
Note_On_72_Vel_0
Note_On_73_Vel_0
Sustain_Off
Time_Shift_1
Note_On_55_Vel_0
Note_On_58_Vel_0
Note_On_76_Vel_0
Note_On_64_Vel_0
Time_Shift_1
Note_On_50_Vel_0
Note_On_82_Vel_0
Time_Shift_4
Note_On_65_Vel_0
Time_Shift_4
Note_On_62_Vel_0
Time_Shift_6
Note_On_81_Vel_0
Time_Shift_21
Note_On_67_Vel_0
Time_Shift_7
Note_On_54_Vel_0
Note_On_69_Vel_0
Note_On_71_Vel_0
Time_Shift_6
Note_On_74_Vel_84
Time_Shift_40
Note_On_68_Vel_0
Time_Shift_8
Note_On_70_Vel_0
Time_Shift_15
Note_On_74_Vel_0
Time_Shift_25
Note_On_75_Vel_90
Time_Shift_76
Note_On_74_Vel_87
Time_Shift_4
Note_On_75_Vel_0
Time_Shift_41
Note_On_74_Vel_0
Time_Shift_38
Note_On_76_Vel_101
Time_Shift_3
Note_On_62_Vel_89
Time_Shift_1
Note_On_67_Vel_72
Note_On_70_Vel_92
Time_Shift_51
Sustain_On
Time_Shift_27
Note_On_77_Vel_95
Time_Shift_84
Note_On_78_Vel_100
Time_Shift_77
Note_On_79_Vel_99
Time_Shift_84
Note_On_80_Vel_99
Time_Shift_79
Note_On_81_Vel_98
Time_Shift_85
Note_On_82_Vel_96
Time_Shift_73
Note_On_83_Vel_102
Time_Shift_88
Note_On_84_Vel_99
Time_Shift_2
Note_On_70_Vel_0
Note_On_76_Vel_0
Time_Shift_7
Note_On_78_Vel_0
Note_On_62_Vel_0
Time_Shift_1
Note_On_80_Vel_0
Note_On_70_Vel_96
Time_Shift_1
Note_On_77_Vel_0
Sustain_Off
Note_On_81_Vel_0
Note_On_82_Vel_0
Note_On_79_Vel_0
Time_Shift_1
Note_On_67_Vel_0
Note_On_76_Vel_103
Note_On_83_Vel_0
Time_Shift_5
Note_On_62_Vel_88
Time_Shift_54
Sustain_On
Time_Shift_8
Note_On_85_Vel_99
Time_Shift_90
Note_On_88_Vel_100
Time_Shift_89
Note_On_94_Vel_100
Time_Shift_71
Note_On_66_Vel_81
Note_On_74_Vel_90
Time_Shift_5
Note_On_93_Vel_96
Time_Shift_7
Note_On_69_Vel_57
Time_Shift_26
Sustain_Off
Time_Shift_10
Note_On_85_Vel_0
Time_Shift_1
Note_On_76_Vel_0
Note_On_70_Vel_0
Time_Shift_3
Note_On_62_Vel_0
Note_On_88_Vel_0
Note_On_94_Vel_0
Time_Shift_5
Note_On_84_Vel_0
Time_Shift_15
Note_On_66_Vel_0
Time_Shift_16
Note_On_86_Vel_91
Time_Shift_82
Note_On_87_Vel_91
Time_Shift_33
Note_On_69_Vel_0
Time_Shift_38
Note_On_86_Vel_0
Time_Shift_10
Note_On_86_Vel_89
Time_Shift_21
Note_On_93_Vel_0
Time_Shift_63
Note_On_82_Vel_84
Note_On_85_Vel_89
Time_Shift_1
Note_On_79_Vel_72
Time_Shift_20
Sustain_On
Time_Shift_59
Note_On_88_Vel_90
Time_Shift_86
Note_On_91_Vel_94
Time_Shift_81
Note_On_94_Vel_93
Time_Shift_82
Note_On_93_Vel_93
Time_Shift_5
Note_On_78_Vel_71
Time_Shift_1
Note_On_81_Vel_61
Time_Shift_59
Sustain_Off
Time_Shift_1
Note_On_87_Vel_0
Note_On_79_Vel_0
Time_Shift_1
Note_On_91_Vel_0
Time_Shift_2
Note_On_85_Vel_0
Note_On_88_Vel_0
Time_Shift_2
Note_On_82_Vel_0
Time_Shift_5
Note_On_74_Vel_0
Note_On_86_Vel_0
Time_Shift_8
Note_On_86_Vel_89
Time_Shift_23
Sustain_On
Time_Shift_58
Note_On_87_Vel_90
Time_Shift_65
Note_On_86_Vel_0
Time_Shift_11
Note_On_86_Vel_87
Time_Shift_58
Note_On_78_Vel_0
Note_On_94_Vel_0
Time_Shift_8
Note_On_81_Vel_0
Time_Shift_15
Note_On_93_Vel_0
Note_On_85_Vel_91
Time_Shift_3
Note_On_82_Vel_96
Time_Shift_2
Note_On_79_Vel_82
Time_Shift_5
Note_On_74_Vel_74
Time_Shift_73
Note_On_88_Vel_95
Time_Shift_87
Note_On_91_Vel_99
Time_Shift_73
Note_On_97_Vel_100
Time_Shift_88
Note_On_98_Vel_100
Time_Shift_1
Note_On_78_Vel_78
Time_Shift_1
Note_On_87_Vel_0
Time_Shift_1
Note_On_88_Vel_0
Note_On_91_Vel_0
Sustain_Off
Note_On_81_Vel_79
Note_On_82_Vel_0
Note_On_85_Vel_0
Time_Shift_1
Note_On_79_Vel_0
Time_Shift_41
Sustain_On
Time_Shift_23
Note_On_86_Vel_0
Time_Shift_10
Note_On_86_Vel_91
Time_Shift_82
Note_On_87_Vel_94
Time_Shift_2
Note_On_79_Vel_74
Time_Shift_68
Note_On_86_Vel_0
Time_Shift_4
Note_On_86_Vel_96
Time_Shift_65
Note_On_97_Vel_0
Time_Shift_6
Note_On_81_Vel_0
Time_Shift_5
Note_On_87_Vel_0
Time_Shift_4
Note_On_74_Vel_0
Note_On_79_Vel_0
Time_Shift_3
Note_On_85_Vel_94
Time_Shift_1
Note_On_82_Vel_100
Note_On_79_Vel_89
Sustain_Off
Time_Shift_4
Note_On_74_Vel_80
Time_Shift_7
Sustain_On
Time_Shift_46
Note_On_98_Vel_0
Time_Shift_17
Note_On_88_Vel_98
Time_Shift_90
Note_On_91_Vel_102
Time_Shift_76
Note_On_94_Vel_99
Time_Shift_17
Note_On_85_Vel_0
Time_Shift_5
Note_On_85_Vel_61
Time_Shift_57
Note_On_78_Vel_0
Time_Shift_3
Note_On_93_Vel_102
Time_Shift_1
Note_On_78_Vel_89
Time_Shift_1
Note_On_81_Vel_91
Sustain_Off
Time_Shift_36
Note_On_88_Vel_0
Time_Shift_1
Note_On_82_Vel_0
Time_Shift_2
Note_On_78_Vel_0
Note_On_85_Vel_0
Time_Shift_1
Note_On_94_Vel_0
Time_Shift_1
Note_On_79_Vel_0
Time_Shift_3
Note_On_74_Vel_0
Time_Shift_4
Note_On_86_Vel_0
Sustain_On
Time_Shift_8
Note_On_91_Vel_0
Time_Shift_8
Note_On_91_Vel_61
Time_Shift_25
Note_On_86_Vel_92
Time_Shift_55
Sustain_Off
Time_Shift_19
Note_On_87_Vel_93
Time_Shift_2
Note_On_78_Vel_62
Time_Shift_6
Sustain_On
Time_Shift_62
Note_On_86_Vel_0
Time_Shift_7
Note_On_86_Vel_94
Time_Shift_86
Note_On_85_Vel_94
Time_Shift_2
Note_On_79_Vel_89
Note_On_82_Vel_104
Time_Shift_1
Note_On_74_Vel_86
Time_Shift_9
Sustain_Off
Time_Shift_10
Sustain_On
Time_Shift_8
Note_On_93_Vel_0
Time_Shift_43
Note_On_88_Vel_97
Time_Shift_87
Note_On_91_Vel_0
Time_Shift_5
Note_On_91_Vel_100
Time_Shift_70
Note_On_100_Vel_101
Time_Shift_79
Note_On_78_Vel_0
Note_On_81_Vel_0
Time_Shift_7
Note_On_74_Vel_0
Time_Shift_1
Sustain_Off
Time_Shift_2
Note_On_81_Vel_101
Note_On_78_Vel_101
Time_Shift_1
Note_On_98_Vel_111
Time_Shift_4
Note_On_74_Vel_85
Note_On_82_Vel_0
Time_Shift_2
Note_On_85_Vel_0
Note_On_91_Vel_0
Time_Shift_1
Note_On_87_Vel_0
Note_On_88_Vel_0
Note_On_79_Vel_0
Time_Shift_20
Note_On_86_Vel_0
Time_Shift_15
Sustain_On
Time_Shift_208
Note_On_100_Vel_0
Time_Shift_17
Note_On_62_Vel_84
Time_Shift_44
Note_On_69_Vel_80
Time_Shift_5
Sustain_Off
Time_Shift_11
Sustain_On
Time_Shift_30
Note_On_78_Vel_0
Time_Shift_11
Note_On_78_Vel_108
Time_Shift_2
Note_On_93_Vel_107
Time_Shift_2
Note_On_90_Vel_102
Time_Shift_1
Note_On_74_Vel_0
Time_Shift_23
Note_On_98_Vel_0
Time_Shift_66
Note_On_88_Vel_96
Time_Shift_76
Note_On_86_Vel_95
Time_Shift_68
Sustain_Off
Time_Shift_15
Note_On_98_Vel_104
Time_Shift_28
Sustain_On
Time_Shift_54
Note_On_93_Vel_0
Time_Shift_8
Note_On_90_Vel_0
Time_Shift_3
Note_On_93_Vel_98
Time_Shift_1
Note_On_90_Vel_98
Time_Shift_72
Note_On_88_Vel_0
Time_Shift_10
Note_On_88_Vel_99
Time_Shift_75
Note_On_86_Vel_0
Time_Shift_11
Note_On_86_Vel_92
Time_Shift_76
Note_On_74_Vel_87
Time_Shift_74
Note_On_78_Vel_0
Note_On_81_Vel_0
Time_Shift_9
Note_On_78_Vel_89
Note_On_81_Vel_93
Time_Shift_92
Note_On_76_Vel_88
Time_Shift_60
Note_On_74_Vel_0
Time_Shift_12
Note_On_74_Vel_93
Time_Shift_30
Note_On_50_Vel_72
Time_Shift_43
Note_On_86_Vel_0
Time_Shift_8
Note_On_86_Vel_99
Time_Shift_12
Note_On_57_Vel_80
Time_Shift_7
Note_On_76_Vel_0
Note_On_88_Vel_0
Time_Shift_1
Note_On_74_Vel_0
Time_Shift_1
Note_On_69_Vel_0
Note_On_93_Vel_0
Time_Shift_1
Note_On_81_Vel_0
Time_Shift_1
Note_On_98_Vel_0
Time_Shift_1
Note_On_62_Vel_0
Note_On_78_Vel_0
Time_Shift_1
Note_On_90_Vel_0
Time_Shift_1
Note_On_50_Vel_0
Time_Shift_7
Sustain_Off
Time_Shift_20
Sustain_On
Time_Shift_36
Note_On_66_Vel_90
Time_Shift_9
Note_On_81_Vel_93
Time_Shift_1
Note_On_78_Vel_96
Time_Shift_90
Note_On_76_Vel_81
Time_Shift_83
Note_On_74_Vel_83
Time_Shift_81
Note_On_66_Vel_0
Time_Shift_4
Note_On_76_Vel_0
Note_On_74_Vel_0
Note_On_78_Vel_0
Time_Shift_1
Note_On_66_Vel_67
Time_Shift_2
Note_On_81_Vel_0
Time_Shift_1
Note_On_57_Vel_0
Time_Shift_3
Sustain_Off
Time_Shift_1
Note_On_62_Vel_91
Time_Shift_3
Note_On_86_Vel_0
Time_Shift_16
Note_On_66_Vel_0
Time_Shift_30
Note_On_62_Vel_0
Time_Shift_45
Note_On_69_Vel_84
Time_Shift_2
Note_On_66_Vel_75
Time_Shift_15
Sustain_On
Time_Shift_74
Note_On_64_Vel_74
Time_Shift_82
Note_On_62_Vel_90
Time_Shift_40
Note_On_38_Vel_77
Time_Shift_46
Note_On_74_Vel_79
Time_Shift_27
Note_On_45_Vel_78
Time_Shift_75
Note_On_50_Vel_68
Time_Shift_1
Note_On_69_Vel_0
Time_Shift_1
Note_On_54_Vel_98
Time_Shift_7
Note_On_66_Vel_0
Time_Shift_4
Note_On_69_Vel_78
Time_Shift_1
Note_On_66_Vel_81
Time_Shift_87
Note_On_64_Vel_0
Time_Shift_5
Note_On_64_Vel_74
Time_Shift_95
Note_On_62_Vel_0
Time_Shift_5
Note_On_62_Vel_82
Time_Shift_107
Sustain_Off
Time_Shift_3
Note_On_50_Vel_0
Time_Shift_2
Note_On_54_Vel_0
Time_Shift_1
Note_On_45_Vel_0
Note_On_66_Vel_0
Note_On_69_Vel_0
Time_Shift_1
Note_On_62_Vel_0
Note_On_74_Vel_0
Note_On_64_Vel_0
Note_On_38_Vel_0
Time_Shift_1
Note_On_50_Vel_73
Time_Shift_106
Note_On_54_Vel_70
Note_On_57_Vel_70
Time_Shift_74
Note_On_50_Vel_0
Time_Shift_35
Note_On_52_Vel_72
Time_Shift_134
Note_On_50_Vel_72
Time_Shift_15
Note_On_52_Vel_0
Time_Shift_61
Note_On_54_Vel_0
Time_Shift_10
Note_On_50_Vel_0
Time_Shift_6
Note_On_57_Vel_0
Time_Shift_72
Note_On_38_Vel_70
Time_Shift_35
Note_On_38_Vel_0
Time_Shift_211
Note_On_58_Vel_91
Time_Shift_9
Note_On_55_Vel_71
Time_Shift_2
Note_On_46_Vel_74
Time_Shift_1
Note_On_43_Vel_79
Time_Shift_1
Note_On_31_Vel_75
Note_On_50_Vel_75
Time_Shift_30
Sustain_On
Time_Shift_537
Note_On_55_Vel_0
Time_Shift_8
Note_On_43_Vel_0
Note_On_55_Vel_90
Time_Shift_6
Note_On_51_Vel_82
Time_Shift_3
Note_On_48_Vel_82
Time_Shift_2
Note_On_43_Vel_79
Time_Shift_1
Note_On_36_Vel_68
Time_Shift_6
Note_On_50_Vel_0
Time_Shift_2
Note_On_46_Vel_0
Time_Shift_7
Sustain_Off
Time_Shift_88
Sustain_On
Time_Shift_453
Note_On_58_Vel_0
Time_Shift_6
Note_On_58_Vel_97
Time_Shift_2
Note_On_55_Vel_0
Time_Shift_8
Note_On_31_Vel_0
Note_On_43_Vel_0
Time_Shift_2
Note_On_55_Vel_77
Time_Shift_1
Note_On_46_Vel_76
Time_Shift_2
Note_On_50_Vel_72
Note_On_43_Vel_75
Time_Shift_4
Note_On_31_Vel_72
Time_Shift_44
Note_On_36_Vel_0
Time_Shift_4
Note_On_48_Vel_0
Note_On_51_Vel_0
Time_Shift_1
Sustain_Off
Time_Shift_88
Sustain_On
Time_Shift_414
Note_On_55_Vel_0
Time_Shift_1
Note_On_60_Vel_90
Time_Shift_4
Note_On_55_Vel_74
Time_Shift_8
Note_On_52_Vel_64
Time_Shift_2
Note_On_45_Vel_68
Time_Shift_1
Note_On_48_Vel_75
Time_Shift_1
Note_On_46_Vel_0
Time_Shift_195
Sustain_Off
Time_Shift_49
Note_On_62_Vel_101
Time_Shift_8
Note_On_52_Vel_0
Time_Shift_8
Note_On_31_Vel_0
Note_On_55_Vel_0
Time_Shift_3
Note_On_46_Vel_79
Time_Shift_2
Note_On_34_Vel_78
Time_Shift_2
Note_On_55_Vel_66
Time_Shift_16
Note_On_45_Vel_0
Time_Shift_31
Sustain_On
Time_Shift_221
Note_On_63_Vel_101
Time_Shift_9
Note_On_55_Vel_0
Note_On_60_Vel_0
Time_Shift_4
Note_On_55_Vel_74
Time_Shift_4
Note_On_48_Vel_0
Time_Shift_3
Note_On_36_Vel_72
Note_On_60_Vel_68
Time_Shift_1
Note_On_48_Vel_69
Time_Shift_108
Sustain_Off
Time_Shift_3
Note_On_43_Vel_0
Note_On_58_Vel_0
Time_Shift_6
Note_On_34_Vel_0
Time_Shift_1
Note_On_62_Vel_0
Time_Shift_1
Note_On_50_Vel_0
Time_Shift_7
Note_On_46_Vel_0
Time_Shift_39
Sustain_On
Time_Shift_100
Note_On_57_Vel_71
Time_Shift_286
Note_On_54_Vel_74
Time_Shift_5
Note_On_50_Vel_67
Time_Shift_4
Note_On_38_Vel_61
Time_Shift_27
Sustain_Off
Time_Shift_15
Note_On_55_Vel_0
Time_Shift_69
Sustain_On
Time_Shift_31
Note_On_60_Vel_0
Time_Shift_173
Note_On_62_Vel_84
Time_Shift_119
Note_On_60_Vel_86
Time_Shift_153
Note_On_58_Vel_83
Time_Shift_30
Note_On_55_Vel_59
Time_Shift_9
Note_On_51_Vel_91
Time_Shift_11
Note_On_39_Vel_74
Time_Shift_58
Note_On_36_Vel_0
Time_Shift_6
Sustain_Off
Time_Shift_2
Note_On_57_Vel_0
Time_Shift_12
Note_On_63_Vel_0
Time_Shift_1
Note_On_62_Vel_0
Note_On_60_Vel_0
Time_Shift_1
Note_On_50_Vel_0
Note_On_38_Vel_0
Time_Shift_1
Note_On_54_Vel_0
Time_Shift_8
Note_On_48_Vel_0
Time_Shift_176
Sustain_On
Time_Shift_277
Note_On_57_Vel_76
Time_Shift_270
Note_On_54_Vel_69
Time_Shift_11
Note_On_50_Vel_72
Time_Shift_5
Note_On_38_Vel_67
Time_Shift_142
Note_On_48_Vel_72
Time_Shift_5
Note_On_36_Vel_66
Time_Shift_151
Note_On_55_Vel_0
Time_Shift_5
Note_On_55_Vel_85
Time_Shift_13
Note_On_46_Vel_75
Time_Shift_8
Note_On_34_Vel_72
Time_Shift_13
Sustain_Off
Time_Shift_6
Note_On_38_Vel_0
Time_Shift_1
Note_On_57_Vel_0
Note_On_54_Vel_0
Note_On_50_Vel_0
Note_On_48_Vel_0
Time_Shift_1
Note_On_58_Vel_0
Time_Shift_1
Note_On_51_Vel_0
Time_Shift_1
Note_On_39_Vel_0
Time_Shift_12
Note_On_36_Vel_0
Time_Shift_69
Sustain_On
Time_Shift_142
Note_On_43_Vel_78
Note_On_31_Vel_72
Time_Shift_8
Sustain_Off
Time_Shift_11
Sustain_On
Time_Shift_246
Note_On_55_Vel_0
Time_Shift_11
Note_On_55_Vel_90
Time_Shift_12
Note_On_43_Vel_0
Time_Shift_4
Note_On_48_Vel_78
Time_Shift_5
Note_On_51_Vel_67
Time_Shift_1
Note_On_36_Vel_65
Time_Shift_1
Note_On_43_Vel_69
Time_Shift_17
Note_On_34_Vel_0
Time_Shift_251
Note_On_57_Vel_96
Time_Shift_5
Note_On_46_Vel_0
Time_Shift_331
Note_On_58_Vel_91
Time_Shift_15
Note_On_31_Vel_0
Note_On_43_Vel_0
Note_On_55_Vel_0
Time_Shift_6
Note_On_46_Vel_63
Time_Shift_4
Note_On_43_Vel_68
Time_Shift_1
Note_On_55_Vel_61
Note_On_31_Vel_70
Time_Shift_1
Note_On_50_Vel_68
Time_Shift_103
Note_On_48_Vel_0
Time_Shift_2
Note_On_57_Vel_0
Time_Shift_1
Note_On_51_Vel_0
Time_Shift_1
Sustain_Off
Time_Shift_19
Note_On_36_Vel_0
Time_Shift_85
Sustain_On
Time_Shift_315
Note_On_55_Vel_0
Time_Shift_10
Note_On_55_Vel_64
Note_On_60_Vel_91
Time_Shift_5
Note_On_43_Vel_0
Time_Shift_10
Note_On_43_Vel_59
Time_Shift_3
Note_On_48_Vel_69
Time_Shift_1
Note_On_45_Vel_62
Time_Shift_17
Note_On_46_Vel_0
Time_Shift_14
Note_On_50_Vel_0
Time_Shift_9
Sustain_Off
Time_Shift_23
Sustain_On
Time_Shift_196
Note_On_62_Vel_101
Time_Shift_3
Note_On_55_Vel_0
Time_Shift_8
Note_On_43_Vel_0
Time_Shift_2
Note_On_55_Vel_75
Time_Shift_2
Note_On_46_Vel_74
Time_Shift_3
Note_On_34_Vel_72
Time_Shift_4
Note_On_43_Vel_62
Time_Shift_296
Note_On_63_Vel_100
Time_Shift_16
Note_On_55_Vel_0
Time_Shift_11
Note_On_55_Vel_64
Time_Shift_12
Note_On_48_Vel_0
Time_Shift_8
Note_On_48_Vel_58
Time_Shift_1
Note_On_36_Vel_56
Time_Shift_106
Note_On_58_Vel_0
Time_Shift_4
Note_On_43_Vel_0
Time_Shift_1
Sustain_Off
Note_On_34_Vel_0
Note_On_62_Vel_0
Time_Shift_1
Note_On_60_Vel_0
Time_Shift_1
Note_On_46_Vel_0
Time_Shift_31
Note_On_31_Vel_0
Time_Shift_8
Note_On_45_Vel_0
Time_Shift_38
Sustain_On
Time_Shift_51
Note_On_57_Vel_67
Time_Shift_313
Note_On_62_Vel_92
Time_Shift_8
Note_On_58_Vel_74
Time_Shift_10
Note_On_50_Vel_64
Time_Shift_6
Note_On_38_Vel_66
Time_Shift_65
Note_On_36_Vel_0
Time_Shift_1
Note_On_63_Vel_0
Time_Shift_1
Note_On_57_Vel_0
Time_Shift_1
Sustain_Off
Time_Shift_5
Note_On_48_Vel_0
Time_Shift_31
Note_On_55_Vel_0
Time_Shift_77
Sustain_On
Time_Shift_130
Note_On_58_Vel_0
Time_Shift_7
Note_On_58_Vel_53
Time_Shift_312
Note_On_67_Vel_90
Time_Shift_37
Note_On_55_Vel_66
Note_On_63_Vel_61
Time_Shift_2
Note_On_51_Vel_69
Note_On_39_Vel_71
Time_Shift_1
Note_On_27_Vel_68
Time_Shift_10
Note_On_27_Vel_0
Time_Shift_85
Note_On_62_Vel_0
Time_Shift_2
Note_On_50_Vel_0
Time_Shift_1
Sustain_Off
Note_On_58_Vel_0
Note_On_38_Vel_0
Time_Shift_50
Sustain_On
Time_Shift_173
Note_On_60_Vel_85
Time_Shift_484
Note_On_66_Vel_85
Time_Shift_15
Note_On_62_Vel_75
Time_Shift_7
Note_On_57_Vel_70
Time_Shift_2
Note_On_50_Vel_64
Time_Shift_1
Note_On_38_Vel_72
Time_Shift_243
Note_On_55_Vel_0
Time_Shift_1
Note_On_60_Vel_0
Time_Shift_1
Note_On_67_Vel_0
Time_Shift_4
Note_On_39_Vel_0
Time_Shift_1
Note_On_51_Vel_0
Time_Shift_9
Sustain_Off
Time_Shift_19
Note_On_63_Vel_0
Time_Shift_192
Sustain_On
Time_Shift_968
Note_On_66_Vel_0
Time_Shift_7
Note_On_66_Vel_50
Time_Shift_24
Note_On_38_Vel_0
Note_On_50_Vel_0
Note_On_62_Vel_0
Time_Shift_3
Note_On_54_Vel_38
Time_Shift_7
Note_On_50_Vel_35
Note_On_38_Vel_35
Note_On_62_Vel_30
Time_Shift_773
Note_On_66_Vel_0
Time_Shift_5
Note_On_66_Vel_52
Time_Shift_356
Note_On_66_Vel_0
Time_Shift_11
Note_On_66_Vel_49
Time_Shift_388
Note_On_66_Vel_0
Time_Shift_4
Note_On_66_Vel_45
Time_Shift_26
Note_On_61_Vel_45
Time_Shift_11
Note_On_55_Vel_39
Time_Shift_1
Note_On_62_Vel_0
Time_Shift_2
Note_On_45_Vel_34
Note_On_33_Vel_31
Note_On_54_Vel_0
Time_Shift_555
Note_On_50_Vel_0
Time_Shift_61
Sustain_Off
Time_Shift_8
Sustain_On
Time_Shift_47
Note_On_38_Vel_0
Time_Shift_20
Note_On_64_Vel_42
Time_Shift_87
Sustain_Off
Time_Shift_15
Note_On_57_Vel_0
Time_Shift_16
Note_On_66_Vel_0
Time_Shift_77
Sustain_On
Time_Shift_630
Note_On_62_Vel_54
Time_Shift_19
Note_On_54_Vel_45
Time_Shift_3
Note_On_57_Vel_35
Time_Shift_29
Note_On_26_Vel_38
Time_Shift_3
Note_On_38_Vel_31
Time_Shift_84
Note_On_61_Vel_0
Time_Shift_4
Sustain_Off
Time_Shift_3
Note_On_64_Vel_0
Time_Shift_8
Note_On_55_Vel_0
Time_Shift_23
Note_On_33_Vel_0
Time_Shift_54
Sustain_On
Time_Shift_537
Note_On_62_Vel_0
Time_Shift_11
Note_On_62_Vel_49
Time_Shift_14
Note_On_58_Vel_37
Time_Shift_14
Note_On_38_Vel_0
Note_On_45_Vel_0
Time_Shift_8
Note_On_55_Vel_26
Time_Shift_3
Note_On_38_Vel_25
Time_Shift_1
Note_On_50_Vel_30
Time_Shift_10
Sustain_Off
Time_Shift_8
Note_On_57_Vel_0
Time_Shift_39
Sustain_On
Time_Shift_637
Note_On_55_Vel_0
Note_On_58_Vel_0
Time_Shift_8
Note_On_55_Vel_38
Time_Shift_2
Note_On_58_Vel_37
Time_Shift_228
Note_On_26_Vel_0
Note_On_62_Vel_0
Time_Shift_8
Note_On_38_Vel_0
Note_On_54_Vel_0
Time_Shift_2
Note_On_62_Vel_42
Time_Shift_6
Note_On_54_Vel_45
Time_Shift_3
Note_On_38_Vel_34
Time_Shift_8
Note_On_57_Vel_29
Time_Shift_4
Note_On_57_Vel_0
Time_Shift_469
Note_On_55_Vel_0
Time_Shift_3
Note_On_52_Vel_35
Time_Shift_1
Note_On_55_Vel_30
Time_Shift_702
Note_On_54_Vel_0
Time_Shift_2
Note_On_57_Vel_20
Time_Shift_4
Note_On_54_Vel_29
Time_Shift_33
Note_On_55_Vel_0
Time_Shift_238
Note_On_52_Vel_0
Time_Shift_46
Note_On_50_Vel_0
Time_Shift_15
Note_On_58_Vel_0
Time_Shift_1179
Sustain_Off
Time_Shift_8
Note_On_58_Vel_57
Time_Shift_11
Note_On_57_Vel_0
Time_Shift_20
Note_On_55_Vel_36
Time_Shift_8
Note_On_31_Vel_35
Time_Shift_1
Note_On_43_Vel_37
Note_On_50_Vel_46
Time_Shift_10
Note_On_31_Vel_0
Time_Shift_69
Sustain_On
Time_Shift_53
Note_On_38_Vel_0
Time_Shift_51
Note_On_31_Vel_35
Time_Shift_138
Note_On_33_Vel_35
Time_Shift_114
Note_On_34_Vel_42
Time_Shift_104
Note_On_55_Vel_0
Time_Shift_7
Note_On_55_Vel_66
Time_Shift_24
Sustain_Off
Time_Shift_4
Note_On_33_Vel_0
Time_Shift_3
Note_On_51_Vel_55
Time_Shift_3
Note_On_62_Vel_0
Note_On_54_Vel_0
Note_On_31_Vel_0
Note_On_50_Vel_0
Note_On_34_Vel_0
Time_Shift_1
Note_On_43_Vel_0
Note_On_58_Vel_0
Note_On_48_Vel_49
Time_Shift_35
Sustain_On
Time_Shift_73
Note_On_38_Vel_56
Time_Shift_107
Note_On_39_Vel_62
Time_Shift_91
Note_On_57_Vel_76
Time_Shift_25
Note_On_42_Vel_61
Note_On_50_Vel_54
Time_Shift_125
Note_On_58_Vel_74
Time_Shift_4
Note_On_43_Vel_61
Time_Shift_1
Note_On_46_Vel_55
Time_Shift_55
Note_On_51_Vel_0
Time_Shift_4
Note_On_48_Vel_0
Time_Shift_1
Note_On_38_Vel_0
Note_On_39_Vel_0
Time_Shift_1
Sustain_Off
Time_Shift_28
Note_On_42_Vel_0
Time_Shift_43
Note_On_42_Vel_59
Time_Shift_3
Note_On_55_Vel_0
Time_Shift_84
Note_On_50_Vel_0
Time_Shift_8
Sustain_On
Time_Shift_8
Note_On_43_Vel_0
Time_Shift_6
Note_On_43_Vel_69
Note_On_55_Vel_65
Time_Shift_1
Note_On_42_Vel_0
Time_Shift_23
Note_On_57_Vel_0
Time_Shift_82
Note_On_31_Vel_64
Time_Shift_125
Note_On_60_Vel_80
Time_Shift_1
Note_On_46_Vel_0
Time_Shift_10
Note_On_48_Vel_57
Time_Shift_9
Note_On_45_Vel_57
Time_Shift_2
Note_On_58_Vel_0
Note_On_55_Vel_0
Time_Shift_4
Note_On_43_Vel_0
Time_Shift_1
Note_On_31_Vel_0
Note_On_33_Vel_60
Time_Shift_3
Sustain_Off
Time_Shift_9
Sustain_On
Time_Shift_77
Note_On_45_Vel_0
Time_Shift_8
Note_On_45_Vel_67
Time_Shift_50
Note_On_45_Vel_0
Time_Shift_26
Sustain_Off
Time_Shift_11
Note_On_62_Vel_87
Time_Shift_12
Note_On_60_Vel_0
Time_Shift_1
Note_On_33_Vel_0
Time_Shift_7
Note_On_48_Vel_0
Time_Shift_8
Note_On_58_Vel_58
Time_Shift_9
Note_On_46_Vel_69
Time_Shift_37
Sustain_On
Time_Shift_77
Note_On_34_Vel_70
Time_Shift_90
Note_On_63_Vel_88
Time_Shift_21
Sustain_Off
Time_Shift_10
Note_On_55_Vel_49
Time_Shift_5
Note_On_36_Vel_58
Time_Shift_7
Note_On_46_Vel_0
Note_On_34_Vel_0
Time_Shift_3
Note_On_58_Vel_0
Time_Shift_4
Note_On_62_Vel_0
Time_Shift_81
Note_On_48_Vel_74
Time_Shift_32
Sustain_On
Time_Shift_71
Note_On_57_Vel_62
Note_On_47_Vel_68
Time_Shift_106
Note_On_48_Vel_0
Time_Shift_7
Note_On_48_Vel_70
Time_Shift_115
Note_On_50_Vel_60
Time_Shift_6
Note_On_62_Vel_83
Time_Shift_12
Note_On_54_Vel_63
Time_Shift_15
Note_On_63_Vel_0
Time_Shift_83
Note_On_36_Vel_0
Time_Shift_1
Note_On_49_Vel_67
Time_Shift_7
Note_On_47_Vel_0
Time_Shift_7
Note_On_55_Vel_0
Time_Shift_77
Note_On_50_Vel_0
Time_Shift_9
Note_On_50_Vel_64
Time_Shift_5
Note_On_60_Vel_80
Time_Shift_52
Note_On_62_Vel_0
Time_Shift_5
Note_On_54_Vel_0
Time_Shift_1
Note_On_49_Vel_0
Time_Shift_13
Note_On_48_Vel_0
Note_On_57_Vel_0
Time_Shift_34
Note_On_38_Vel_64
Time_Shift_80
Sustain_Off
Time_Shift_73
Note_On_39_Vel_66
Time_Shift_1
Note_On_58_Vel_73
Time_Shift_17
Note_On_55_Vel_50
Time_Shift_21
Note_On_60_Vel_0
Time_Shift_1
Note_On_50_Vel_0
Time_Shift_3
Note_On_38_Vel_0
Time_Shift_74
Note_On_51_Vel_66
Time_Shift_111
Note_On_50_Vel_64
Time_Shift_70
Note_On_50_Vel_0
Time_Shift_21
Note_On_51_Vel_0
Time_Shift_12
Note_On_51_Vel_66
Time_Shift_42
Sustain_On
Time_Shift_85
Note_On_51_Vel_0
Time_Shift_7
Note_On_48_Vel_55
Note_On_57_Vel_65
Time_Shift_4
Note_On_51_Vel_47
Time_Shift_89
Sustain_Off
Time_Shift_13
Note_On_45_Vel_58
Time_Shift_36
Note_On_58_Vel_0
Time_Shift_9
Note_On_48_Vel_0
Time_Shift_9
Note_On_51_Vel_0
Time_Shift_2
Note_On_39_Vel_0
Time_Shift_30
Note_On_55_Vel_0
Time_Shift_19
Note_On_50_Vel_59
Time_Shift_23
Note_On_54_Vel_54
Time_Shift_106
Note_On_48_Vel_55
Time_Shift_29
Sustain_On
Time_Shift_61
Note_On_50_Vel_0
Time_Shift_8
Sustain_Off
Time_Shift_28
Note_On_55_Vel_63
Time_Shift_3
Note_On_46_Vel_59
Time_Shift_12
Note_On_48_Vel_0
Time_Shift_4
Note_On_54_Vel_0
Time_Shift_7
Note_On_45_Vel_0
Note_On_57_Vel_0
Time_Shift_46
Sustain_On
Time_Shift_70
Note_On_43_Vel_60
Time_Shift_122
Note_On_46_Vel_0
Note_On_55_Vel_0
Time_Shift_4
Note_On_55_Vel_66
Time_Shift_1
Note_On_46_Vel_54
Time_Shift_3
Note_On_34_Vel_52
Time_Shift_4
Note_On_50_Vel_48
Time_Shift_137
Note_On_31_Vel_48
Time_Shift_127
Note_On_55_Vel_0
Time_Shift_11
Note_On_55_Vel_72
Time_Shift_18
Note_On_51_Vel_45
Note_On_48_Vel_58
Time_Shift_69
Note_On_46_Vel_0
Time_Shift_1
Note_On_50_Vel_0
Time_Shift_17
Note_On_31_Vel_0
Time_Shift_7
Note_On_43_Vel_0
Time_Shift_22
Sustain_Off
Time_Shift_9
Sustain_On
Time_Shift_5
Note_On_38_Vel_54
Time_Shift_99
Note_On_39_Vel_65
Time_Shift_119
Note_On_42_Vel_66
Time_Shift_2
Note_On_57_Vel_83
Time_Shift_122
Note_On_43_Vel_68
Time_Shift_23
Note_On_58_Vel_83
Time_Shift_26
Note_On_50_Vel_59
Time_Shift_65
Note_On_42_Vel_0
Note_On_43_Vel_0
Time_Shift_5
Note_On_43_Vel_68
Note_On_42_Vel_73
Time_Shift_3
Note_On_57_Vel_0
Time_Shift_5
Note_On_57_Vel_63
Time_Shift_18
Note_On_34_Vel_0
Time_Shift_2
Note_On_38_Vel_0
Time_Shift_2
Note_On_48_Vel_0
Note_On_51_Vel_0
Note_On_39_Vel_0
Time_Shift_34
Note_On_55_Vel_0
Time_Shift_8
Note_On_42_Vel_0
Time_Shift_30
Note_On_43_Vel_0
Time_Shift_8
Note_On_43_Vel_70
Time_Shift_24
Note_On_55_Vel_77
Time_Shift_80
Note_On_31_Vel_74
Time_Shift_65
Note_On_43_Vel_0
Time_Shift_7
Note_On_43_Vel_63
Time_Shift_82
Note_On_60_Vel_88
Time_Shift_20
Note_On_48_Vel_68
Time_Shift_13
Sustain_Off
Time_Shift_6
Note_On_55_Vel_0
Note_On_58_Vel_0
Time_Shift_3
Note_On_31_Vel_0
Time_Shift_15
Note_On_50_Vel_0
Time_Shift_8
Note_On_57_Vel_0
Time_Shift_15
Sustain_On
Time_Shift_11
Note_On_45_Vel_76
Time_Shift_139
Note_On_46_Vel_82
Note_On_62_Vel_95
Time_Shift_116
Note_On_34_Vel_81
Time_Shift_137
Note_On_63_Vel_93
Time_Shift_12
Note_On_60_Vel_0
Time_Shift_4
Note_On_36_Vel_63
Time_Shift_7
Note_On_60_Vel_62
Time_Shift_1
Note_On_55_Vel_61
Time_Shift_55
Note_On_45_Vel_0
Time_Shift_1
Note_On_46_Vel_0
Note_On_48_Vel_0
Note_On_34_Vel_0
Time_Shift_1
Sustain_Off
Time_Shift_1
Note_On_62_Vel_0
Time_Shift_6
Note_On_43_Vel_0
Time_Shift_45
Note_On_48_Vel_71
Time_Shift_32
Sustain_On
Time_Shift_72
Note_On_47_Vel_72
Time_Shift_1
Note_On_57_Vel_75
Time_Shift_104
Note_On_48_Vel_0
Time_Shift_6
Note_On_48_Vel_72
Time_Shift_138
Note_On_50_Vel_67
Time_Shift_4
Note_On_62_Vel_83
Time_Shift_10
Note_On_54_Vel_60
Time_Shift_73
Note_On_63_Vel_0
Note_On_47_Vel_0
Time_Shift_2
Note_On_57_Vel_0
Time_Shift_1
Note_On_55_Vel_0
Time_Shift_1
Sustain_Off
Time_Shift_11
Note_On_60_Vel_0
Time_Shift_26
Note_On_49_Vel_63
Time_Shift_104
Sustain_On
Time_Shift_8
Note_On_50_Vel_0
Time_Shift_5
Note_On_50_Vel_68
Time_Shift_110
Note_On_36_Vel_0
Time_Shift_25
Note_On_38_Vel_66
Time_Shift_149
Note_On_67_Vel_84
Time_Shift_12
Note_On_39_Vel_70
Note_On_58_Vel_66
Time_Shift_4
Note_On_55_Vel_63
Time_Shift_83
Note_On_54_Vel_0
Note_On_48_Vel_0
Note_On_50_Vel_0
Time_Shift_1
Note_On_38_Vel_0
Note_On_49_Vel_0
Time_Shift_4
Sustain_Off
Time_Shift_37
Note_On_51_Vel_71
Time_Shift_46
Sustain_On
Time_Shift_69
Note_On_53_Vel_75
Time_Shift_108
Note_On_51_Vel_0
Time_Shift_7
Note_On_51_Vel_73
Time_Shift_1
Note_On_60_Vel_79
Time_Shift_93
Note_On_54_Vel_80
Time_Shift_37
Note_On_60_Vel_0
Time_Shift_10
Note_On_60_Vel_77
Time_Shift_11
Note_On_50_Vel_84
Time_Shift_49
Note_On_69_Vel_85
Time_Shift_106
Note_On_49_Vel_89
Time_Shift_154
Note_On_50_Vel_0
Time_Shift_7
Note_On_50_Vel_97
Time_Shift_143
Note_On_38_Vel_89
Time_Shift_196
Note_On_55_Vel_0
Note_On_58_Vel_0
Time_Shift_7
Note_On_50_Vel_0
Time_Shift_1
Note_On_70_Vel_93
Time_Shift_2
Note_On_55_Vel_93
Note_On_58_Vel_90
Time_Shift_1
Note_On_43_Vel_90
Note_On_50_Vel_84
Time_Shift_66
Note_On_62_Vel_0
Time_Shift_10
Note_On_62_Vel_84
Time_Shift_70
Note_On_63_Vel_84
Time_Shift_50
Note_On_50_Vel_0
Note_On_55_Vel_0
Note_On_58_Vel_0
Time_Shift_4
Note_On_65_Vel_87
Note_On_50_Vel_76
Time_Shift_6
Note_On_46_Vel_77
Note_On_55_Vel_79
Time_Shift_1
Note_On_58_Vel_81
Time_Shift_19
Note_On_60_Vel_0
Time_Shift_1
Note_On_63_Vel_0
Note_On_67_Vel_0
Note_On_62_Vel_0
Time_Shift_1
Note_On_43_Vel_0
Note_On_69_Vel_0
Time_Shift_1
Note_On_54_Vel_0
Note_On_38_Vel_0
Note_On_70_Vel_0
Time_Shift_1
Note_On_49_Vel_0
Note_On_51_Vel_0
Time_Shift_1
Note_On_53_Vel_0
Time_Shift_1
Note_On_65_Vel_0
Time_Shift_2
Sustain_Off
Time_Shift_1
Note_On_46_Vel_0
Time_Shift_3
Note_On_63_Vel_87
Time_Shift_4
Note_On_39_Vel_0
Time_Shift_16
Note_On_50_Vel_0
Time_Shift_7
Note_On_58_Vel_0
Time_Shift_8
Note_On_55_Vel_0
Time_Shift_34
Note_On_63_Vel_0
Time_Shift_3
Note_On_62_Vel_89
Time_Shift_89
Note_On_62_Vel_0
Time_Shift_2
Note_On_61_Vel_89
Note_On_55_Vel_91
Note_On_73_Vel_83
Time_Shift_2
Note_On_70_Vel_91
Time_Shift_2
Note_On_43_Vel_87
Time_Shift_26
Note_On_43_Vel_0
Time_Shift_19
Note_On_55_Vel_0
Note_On_61_Vel_0
Note_On_73_Vel_0
Time_Shift_18
Note_On_70_Vel_0
Time_Shift_28
Note_On_64_Vel_89
Time_Shift_81
Note_On_64_Vel_0
Time_Shift_7
Note_On_58_Vel_94
Time_Shift_2
Note_On_55_Vel_86
Time_Shift_3
Note_On_73_Vel_87
Time_Shift_3
Note_On_70_Vel_81
Time_Shift_19
Note_On_58_Vel_0
Time_Shift_16
Note_On_73_Vel_0
Time_Shift_7
Note_On_55_Vel_0
Time_Shift_23
Note_On_70_Vel_0
Time_Shift_21
Note_On_64_Vel_88
Time_Shift_62
Note_On_64_Vel_0
Time_Shift_32
Note_On_55_Vel_90
Note_On_43_Vel_86
Time_Shift_1
Note_On_61_Vel_88
Note_On_69_Vel_86
Time_Shift_24
Note_On_55_Vel_0
Time_Shift_21
Note_On_43_Vel_0
Note_On_61_Vel_0
Time_Shift_31
Note_On_69_Vel_0
Time_Shift_15
Note_On_64_Vel_87
Time_Shift_95
Note_On_57_Vel_92
Note_On_45_Vel_78
Time_Shift_2
Note_On_55_Vel_80
Note_On_69_Vel_92
Time_Shift_1
Note_On_73_Vel_90
Time_Shift_2
Note_On_45_Vel_0
Time_Shift_20
Note_On_57_Vel_0
Time_Shift_1
Note_On_64_Vel_0
Time_Shift_1
Note_On_55_Vel_0
Time_Shift_24
Note_On_69_Vel_0
Time_Shift_44
Note_On_64_Vel_84
Time_Shift_10
Note_On_73_Vel_0
Time_Shift_50
Note_On_64_Vel_0
Time_Shift_42
Note_On_74_Vel_101
Time_Shift_3
Note_On_62_Vel_99
Time_Shift_1
Note_On_42_Vel_97
Note_On_54_Vel_98
Time_Shift_12
Sustain_On
Time_Shift_75
Note_On_69_Vel_84
Time_Shift_89
Note_On_50_Vel_84
Time_Shift_2
Note_On_57_Vel_84
Note_On_48_Vel_80
Time_Shift_6
Note_On_63_Vel_100
Time_Shift_4
Note_On_75_Vel_100
Time_Shift_16
Note_On_62_Vel_0
Time_Shift_2
Note_On_50_Vel_0
Time_Shift_1
Note_On_69_Vel_0
Note_On_42_Vel_0
Note_On_74_Vel_0
Time_Shift_1
Note_On_54_Vel_0
Time_Shift_1
Sustain_Off
Time_Shift_6
Note_On_57_Vel_0
Time_Shift_2
Note_On_63_Vel_0
Time_Shift_2
Note_On_48_Vel_0
Time_Shift_7
Note_On_75_Vel_0
Time_Shift_50
Note_On_62_Vel_92
Time_Shift_1
Note_On_74_Vel_86
Time_Shift_32
Note_On_62_Vel_0
Time_Shift_8
Note_On_74_Vel_0
Time_Shift_47
Note_On_55_Vel_97
Time_Shift_2
Note_On_43_Vel_89
Time_Shift_2
Note_On_50_Vel_78
Note_On_70_Vel_87
Note_On_67_Vel_83
Time_Shift_12
Sustain_On
Time_Shift_71
Note_On_62_Vel_92
Time_Shift_69
Note_On_63_Vel_84
Time_Shift_17
Note_On_65_Vel_91
Time_Shift_10
Sustain_Off
Time_Shift_1
Note_On_62_Vel_0
Time_Shift_1
Note_On_43_Vel_0
Note_On_55_Vel_0
Time_Shift_2
Note_On_67_Vel_0
Time_Shift_1
Note_On_70_Vel_0
Time_Shift_1
Note_On_58_Vel_90
Note_On_50_Vel_0
Note_On_55_Vel_86
Time_Shift_6
Note_On_43_Vel_79
Time_Shift_22
Note_On_65_Vel_0
Time_Shift_2
Note_On_58_Vel_0
Time_Shift_20
Note_On_55_Vel_0
Time_Shift_8
Note_On_43_Vel_0
Time_Shift_42
Note_On_62_Vel_88
Time_Shift_27
Note_On_63_Vel_0
Time_Shift_20
Note_On_62_Vel_0
Time_Shift_44
Note_On_55_Vel_87
Time_Shift_1
Note_On_43_Vel_88
Note_On_61_Vel_84
Note_On_70_Vel_89
Time_Shift_28
Note_On_55_Vel_0
Time_Shift_2
Note_On_43_Vel_0
Time_Shift_1
Note_On_61_Vel_0
Time_Shift_29
Note_On_70_Vel_0
Time_Shift_24
Note_On_64_Vel_84
Time_Shift_76
Note_On_64_Vel_0
Time_Shift_18
Note_On_58_Vel_93
Time_Shift_1
Note_On_73_Vel_86
Time_Shift_1
Note_On_55_Vel_77
Time_Shift_3
Note_On_70_Vel_77
Time_Shift_25
Note_On_58_Vel_0
Note_On_55_Vel_0
Time_Shift_10
Note_On_73_Vel_0
Time_Shift_5
Note_On_70_Vel_0
Time_Shift_39
Note_On_64_Vel_80
Time_Shift_46
Note_On_64_Vel_0
Time_Shift_47
Note_On_43_Vel_89
Time_Shift_1
Note_On_69_Vel_86
Time_Shift_1
Note_On_55_Vel_92
Time_Shift_4
Note_On_61_Vel_88
Time_Shift_24
Note_On_43_Vel_0
Note_On_55_Vel_0
Time_Shift_6
Note_On_61_Vel_0
Time_Shift_17
Note_On_69_Vel_0
Time_Shift_45
Note_On_64_Vel_83
Time_Shift_92
Note_On_57_Vel_93
Time_Shift_2
Note_On_55_Vel_81
Note_On_73_Vel_91
Time_Shift_2
Note_On_69_Vel_88
Time_Shift_3
Note_On_43_Vel_80
Time_Shift_20
Note_On_64_Vel_0
Time_Shift_3
Note_On_57_Vel_0
Time_Shift_2
Note_On_55_Vel_0
Time_Shift_1
Note_On_69_Vel_0
Time_Shift_6
Note_On_43_Vel_0
Time_Shift_34
Note_On_73_Vel_0
Time_Shift_23
Note_On_64_Vel_79
Time_Shift_51
Note_On_64_Vel_0
Time_Shift_46
Note_On_69_Vel_83
Note_On_74_Vel_96
Note_On_62_Vel_99
Time_Shift_2
Note_On_42_Vel_96
Note_On_54_Vel_96
Time_Shift_39
Sustain_On
Time_Shift_47
Note_On_69_Vel_0
Time_Shift_5
Note_On_69_Vel_82
Time_Shift_87
Note_On_42_Vel_0
Time_Shift_1
Note_On_57_Vel_77
Time_Shift_3
Note_On_63_Vel_99
Time_Shift_1
Note_On_60_Vel_80
Note_On_42_Vel_82
Time_Shift_2
Note_On_30_Vel_77
Time_Shift_8
Note_On_30_Vel_0
Time_Shift_50
Note_On_57_Vel_0
Note_On_62_Vel_0
Note_On_63_Vel_0
Note_On_69_Vel_0
Note_On_42_Vel_0
Note_On_60_Vel_0
Time_Shift_7
Sustain_Off
Time_Shift_5
Note_On_54_Vel_0
Time_Shift_15
Note_On_74_Vel_0
Time_Shift_5
Note_On_74_Vel_90
Note_On_62_Vel_92
Time_Shift_40
Note_On_62_Vel_0
Time_Shift_1
Note_On_74_Vel_0
Time_Shift_52
Note_On_58_Vel_86
Time_Shift_1
Note_On_55_Vel_81
Time_Shift_1
Note_On_67_Vel_81
Note_On_70_Vel_90
Time_Shift_35
Note_On_55_Vel_0
Time_Shift_11
Sustain_On
Time_Shift_38
Note_On_58_Vel_0
Time_Shift_12
Note_On_62_Vel_88
Time_Shift_72
Note_On_62_Vel_0
Time_Shift_1
Note_On_70_Vel_0
Time_Shift_5
Sustain_Off
Time_Shift_18
Note_On_67_Vel_0
Time_Shift_2
Note_On_58_Vel_84
Time_Shift_79
Note_On_55_Vel_82
Time_Shift_30
Note_On_58_Vel_0
Time_Shift_4
Note_On_55_Vel_0
Time_Shift_86
Note_On_67_Vel_79
Time_Shift_2
Note_On_48_Vel_73
Time_Shift_1
Note_On_36_Vel_71
Note_On_55_Vel_71
Note_On_63_Vel_77
Time_Shift_41
Sustain_On
Time_Shift_51
Note_On_66_Vel_80
Time_Shift_88
Note_On_67_Vel_0
Time_Shift_10
Note_On_67_Vel_86
Time_Shift_93
Note_On_62_Vel_92
Time_Shift_2
Note_On_46_Vel_85
Time_Shift_5
Note_On_34_Vel_81
Time_Shift_39
Note_On_48_Vel_0
Note_On_55_Vel_0
Note_On_46_Vel_0
Note_On_67_Vel_0
Time_Shift_1
Note_On_66_Vel_0
Time_Shift_1
Note_On_34_Vel_0
Note_On_62_Vel_0
Note_On_63_Vel_0
Time_Shift_5
Sustain_Off
Time_Shift_5
Note_On_36_Vel_0
Time_Shift_48
Note_On_67_Vel_92
Time_Shift_1
Note_On_63_Vel_97
Note_On_55_Vel_93
Time_Shift_1
Note_On_48_Vel_97
Time_Shift_1
Note_On_36_Vel_89
Time_Shift_57
Sustain_On
Time_Shift_38
Note_On_66_Vel_87
Time_Shift_92
Note_On_67_Vel_0
Time_Shift_5
Note_On_67_Vel_83
Time_Shift_84
Note_On_46_Vel_91
Time_Shift_1
Note_On_62_Vel_96
Time_Shift_1
Note_On_34_Vel_84
Time_Shift_67
Note_On_46_Vel_0
Note_On_55_Vel_0
Note_On_66_Vel_0
Note_On_34_Vel_0
Note_On_63_Vel_0
Note_On_36_Vel_0
Time_Shift_1
Note_On_62_Vel_0
Time_Shift_1
Sustain_Off
Time_Shift_1
Note_On_48_Vel_0
Time_Shift_31
Note_On_67_Vel_0
Time_Shift_6
Note_On_48_Vel_102
Note_On_67_Vel_95
Time_Shift_2
Note_On_55_Vel_100
Time_Shift_1
Note_On_63_Vel_96
Time_Shift_2
Note_On_36_Vel_92
Time_Shift_35
Sustain_On
Time_Shift_50
Note_On_66_Vel_88
Time_Shift_1
Note_On_68_Vel_72
Time_Shift_11
Note_On_68_Vel_0
Time_Shift_84
Note_On_67_Vel_0
Time_Shift_10
Note_On_67_Vel_94
Time_Shift_75
Note_On_67_Vel_0
Time_Shift_7
Note_On_67_Vel_79
Time_Shift_5
Note_On_62_Vel_96
Time_Shift_6
Note_On_46_Vel_95
Time_Shift_1
Note_On_34_Vel_85
Time_Shift_82
Note_On_48_Vel_0
Time_Shift_2
Note_On_46_Vel_0
Note_On_63_Vel_0
Time_Shift_1
Note_On_66_Vel_0
Note_On_34_Vel_0
Time_Shift_1
Note_On_62_Vel_0
Time_Shift_2
Note_On_36_Vel_0
Note_On_55_Vel_0
Note_On_67_Vel_0
Time_Shift_2
Sustain_Off
Time_Shift_4
Note_On_61_Vel_105
Note_On_45_Vel_102
Note_On_33_Vel_98
Time_Shift_3
Note_On_67_Vel_101
Note_On_55_Vel_96
Time_Shift_1
Note_On_64_Vel_98
Time_Shift_36
Note_On_55_Vel_0
Time_Shift_3
Note_On_67_Vel_0
Time_Shift_2
Note_On_45_Vel_0
Note_On_61_Vel_0
Note_On_33_Vel_0
Time_Shift_34
Note_On_64_Vel_0
Time_Shift_135
Note_On_45_Vel_69
Time_Shift_1
Note_On_67_Vel_85
Time_Shift_4
Note_On_61_Vel_92
Time_Shift_72
Note_On_64_Vel_88
Time_Shift_3
Sustain_On
Time_Shift_15
Note_On_45_Vel_0
Time_Shift_8
Note_On_67_Vel_0
Time_Shift_3
Note_On_45_Vel_66
Time_Shift_4
Note_On_61_Vel_0
Note_On_67_Vel_60
Time_Shift_11
Note_On_61_Vel_57
Time_Shift_74
Note_On_45_Vel_0
Note_On_67_Vel_0
Time_Shift_4
Note_On_57_Vel_106
Time_Shift_3
Note_On_45_Vel_98
Time_Shift_1
Note_On_67_Vel_89
Time_Shift_76
Note_On_64_Vel_0
Note_On_67_Vel_0
Time_Shift_7
Note_On_64_Vel_90
Time_Shift_4
Note_On_67_Vel_60
Time_Shift_89
Note_On_67_Vel_0
Time_Shift_3
Note_On_76_Vel_93
Time_Shift_1
Note_On_69_Vel_75
Note_On_67_Vel_70
Time_Shift_8
Note_On_73_Vel_77
Time_Shift_73
Note_On_73_Vel_0
Note_On_76_Vel_0
Time_Shift_7
Note_On_73_Vel_95
Time_Shift_3
Note_On_76_Vel_79
Time_Shift_82
Note_On_45_Vel_0
Note_On_76_Vel_0
Time_Shift_5
Note_On_45_Vel_72
Time_Shift_4
Note_On_79_Vel_85
Time_Shift_1
Note_On_76_Vel_84
Time_Shift_74
Note_On_73_Vel_0
Note_On_76_Vel_0
Time_Shift_8
Note_On_73_Vel_89
Time_Shift_2
Note_On_76_Vel_74
Time_Shift_75
Note_On_76_Vel_0
Time_Shift_11
Note_On_76_Vel_90
Note_On_85_Vel_96
Time_Shift_81
Note_On_79_Vel_0
Time_Shift_10
Note_On_79_Vel_95
Time_Shift_82
Note_On_85_Vel_0
Time_Shift_10
Note_On_85_Vel_99
Note_On_88_Vel_98
Time_Shift_75
Note_On_79_Vel_0
Time_Shift_8
Note_On_79_Vel_95
Time_Shift_95
Note_On_90_Vel_106
Time_Shift_3
Note_On_50_Vel_104
Time_Shift_3
Note_On_38_Vel_100
Note_On_84_Vel_91
Time_Shift_7
Note_On_76_Vel_0
Note_On_73_Vel_0
Time_Shift_3
Note_On_57_Vel_0
Time_Shift_1
Note_On_45_Vel_0
Time_Shift_10
Note_On_61_Vel_0
Note_On_85_Vel_0
Time_Shift_11
Note_On_85_Vel_62
Time_Shift_4
Sustain_Off
Time_Shift_51
Note_On_93_Vel_101
Time_Shift_62
Note_On_50_Vel_0
Time_Shift_2
Note_On_38_Vel_0
Time_Shift_5
Note_On_93_Vel_0
Time_Shift_3
Note_On_64_Vel_0
Note_On_79_Vel_0
Note_On_84_Vel_0
Time_Shift_8
Note_On_69_Vel_0
Time_Shift_8
Note_On_90_Vel_0
Note_On_43_Vel_106
Time_Shift_2
Note_On_94_Vel_107
Time_Shift_1
Note_On_31_Vel_96
Time_Shift_4
Note_On_67_Vel_0
Note_On_85_Vel_0
Time_Shift_8
Note_On_88_Vel_0
Time_Shift_15
Sustain_On
Time_Shift_73
Note_On_82_Vel_93
Time_Shift_86
Note_On_93_Vel_103
Time_Shift_1
Note_On_45_Vel_99
Note_On_33_Vel_94
Time_Shift_1
Note_On_84_Vel_99
Time_Shift_2
Note_On_94_Vel_0
Time_Shift_1
Note_On_82_Vel_0
Note_On_43_Vel_0
Time_Shift_1
Note_On_31_Vel_0
Time_Shift_2
Sustain_Off
Time_Shift_56
Sustain_On
Time_Shift_15
Note_On_33_Vel_0
Note_On_45_Vel_0
Time_Shift_5
Note_On_43_Vel_67
Time_Shift_6
Note_On_90_Vel_104
Time_Shift_66
Note_On_84_Vel_0
Time_Shift_32
Note_On_46_Vel_102
Note_On_34_Vel_94
Time_Shift_2
Note_On_86_Vel_96
Time_Shift_3
Note_On_82_Vel_89
Time_Shift_82
Note_On_79_Vel_98
Time_Shift_94
Note_On_47_Vel_106
Note_On_35_Vel_96
Time_Shift_5
Note_On_34_Vel_0
Time_Shift_1
Note_On_43_Vel_0
Note_On_90_Vel_0
Time_Shift_1
Note_On_46_Vel_0
Sustain_Off
Time_Shift_3
Note_On_93_Vel_0
Time_Shift_1
Note_On_79_Vel_0
Time_Shift_1
Note_On_80_Vel_90
Note_On_86_Vel_0
Note_On_89_Vel_95
Time_Shift_6
Note_On_82_Vel_0
Time_Shift_20
Note_On_47_Vel_0
Note_On_35_Vel_0
Time_Shift_7
Note_On_80_Vel_0
Time_Shift_11
Note_On_89_Vel_0
Time_Shift_31
Sustain_On
Time_Shift_5
Note_On_86_Vel_95
Note_On_47_Vel_99
Time_Shift_2
Note_On_35_Vel_88
Time_Shift_51
Note_On_47_Vel_0
Time_Shift_3
Note_On_35_Vel_0
Time_Shift_3
Note_On_86_Vel_0
Time_Shift_4
Sustain_Off
Time_Shift_28
Note_On_48_Vel_106
Note_On_84_Vel_92
Time_Shift_2
Note_On_36_Vel_86
Time_Shift_3
Note_On_87_Vel_99
Time_Shift_29
Sustain_On
Time_Shift_56
Note_On_75_Vel_96
Time_Shift_56
Note_On_84_Vel_0
Note_On_87_Vel_0
Note_On_36_Vel_0
Time_Shift_1
Note_On_48_Vel_0
Time_Shift_2
Note_On_75_Vel_0
Time_Shift_5
Sustain_Off
Time_Shift_33
Note_On_86_Vel_104
Time_Shift_4
Note_On_50_Vel_103
Time_Shift_1
Note_On_38_Vel_96
Note_On_77_Vel_99
Time_Shift_27
Sustain_On
Time_Shift_57
Note_On_83_Vel_104
Time_Shift_65
Note_On_86_Vel_0
Time_Shift_1
Note_On_50_Vel_0
Time_Shift_7
Sustain_Off
Time_Shift_24
Note_On_79_Vel_95
Time_Shift_1
Note_On_51_Vel_103
Time_Shift_1
Note_On_39_Vel_96
Time_Shift_1
Note_On_84_Vel_88
Time_Shift_58
Sustain_On
Time_Shift_23
Note_On_72_Vel_96
Time_Shift_66
Note_On_83_Vel_0
Time_Shift_1
Note_On_77_Vel_0
Time_Shift_2
Note_On_84_Vel_0
Sustain_Off
Time_Shift_1
Note_On_79_Vel_0
Note_On_72_Vel_0
Time_Shift_1
Note_On_51_Vel_0
Note_On_39_Vel_0
Time_Shift_6
Note_On_38_Vel_0
Time_Shift_18
Note_On_48_Vel_99
Time_Shift_1
Note_On_82_Vel_94
Time_Shift_1
Note_On_36_Vel_86
Time_Shift_5
Note_On_75_Vel_85
Time_Shift_27
Note_On_48_Vel_0
Time_Shift_2
Note_On_36_Vel_0
Time_Shift_8
Note_On_82_Vel_0
Time_Shift_46
Note_On_81_Vel_91
Time_Shift_2
Note_On_48_Vel_96
Time_Shift_1
Note_On_36_Vel_84
Note_On_72_Vel_80
Time_Shift_31
Note_On_48_Vel_0
Note_On_36_Vel_0
Time_Shift_3
Note_On_81_Vel_0
Time_Shift_8
Note_On_75_Vel_0
Time_Shift_49
Note_On_70_Vel_94
Note_On_50_Vel_106
Time_Shift_1
Note_On_79_Vel_93
Note_On_38_Vel_89
Time_Shift_36
Note_On_50_Vel_0
Time_Shift_2
Note_On_79_Vel_0
Note_On_38_Vel_0
Time_Shift_1
Note_On_70_Vel_0
Time_Shift_11
Note_On_72_Vel_0
Time_Shift_157
Note_On_38_Vel_61
Note_On_50_Vel_65
Time_Shift_1
Note_On_73_Vel_88
Time_Shift_1
Note_On_70_Vel_77
Time_Shift_56
Sustain_On
Time_Shift_30
Note_On_67_Vel_80
Time_Shift_93
Note_On_50_Vel_0
Time_Shift_4
Note_On_50_Vel_91
Note_On_74_Vel_88
Time_Shift_1
Note_On_62_Vel_95
Time_Shift_2
Note_On_66_Vel_82
Time_Shift_21
Note_On_70_Vel_0
Note_On_67_Vel_0
Time_Shift_2
Note_On_73_Vel_0
Time_Shift_8
Sustain_Off
Time_Shift_8
Note_On_38_Vel_0
Time_Shift_35
Note_On_69_Vel_81
Time_Shift_3
Note_On_66_Vel_0
Time_Shift_54
Sustain_On
Time_Shift_39
Note_On_50_Vel_0
Time_Shift_8
Note_On_50_Vel_71
Time_Shift_3
Note_On_68_Vel_79
Note_On_71_Vel_83
Time_Shift_81
Note_On_69_Vel_0
Time_Shift_3
Note_On_65_Vel_80
Time_Shift_1
Note_On_69_Vel_69
Time_Shift_106
Note_On_72_Vel_87
Note_On_64_Vel_83
Time_Shift_7
Note_On_68_Vel_0
Time_Shift_1
Note_On_62_Vel_0
Note_On_50_Vel_0
Time_Shift_1
Note_On_65_Vel_0
Note_On_71_Vel_0
Time_Shift_1
Sustain_Off
Time_Shift_18
Note_On_74_Vel_0
Time_Shift_29
Note_On_64_Vel_0
Time_Shift_35
Note_On_67_Vel_72
Time_Shift_28
Sustain_On
Time_Shift_23
Note_On_69_Vel_0
Time_Shift_29
Note_On_67_Vel_0
Time_Shift_5
Sustain_Off
Time_Shift_12
Note_On_72_Vel_0
Time_Shift_10
Note_On_38_Vel_74
Time_Shift_1
Note_On_72_Vel_72
Note_On_50_Vel_71
Time_Shift_1
Note_On_66_Vel_69
Note_On_69_Vel_71
Time_Shift_28
Note_On_50_Vel_0
Time_Shift_10
Note_On_66_Vel_0
Time_Shift_19
Note_On_38_Vel_0
Time_Shift_29
Note_On_63_Vel_68
Time_Shift_99
Note_On_70_Vel_75
Time_Shift_2
Note_On_38_Vel_65
Time_Shift_1
Note_On_50_Vel_67
Time_Shift_3
Note_On_67_Vel_63
Note_On_72_Vel_0
Time_Shift_12
Note_On_63_Vel_0
Time_Shift_8
Note_On_69_Vel_0
Time_Shift_9
Note_On_38_Vel_0
Time_Shift_29
Note_On_50_Vel_0
Time_Shift_45
Note_On_62_Vel_66
Time_Shift_9
Note_On_67_Vel_0
Time_Shift_62
Note_On_50_Vel_75
Time_Shift_2
Note_On_38_Vel_76
Time_Shift_6
Note_On_69_Vel_71
Time_Shift_3
Note_On_66_Vel_61
Time_Shift_8
Note_On_62_Vel_0
Time_Shift_9
Note_On_70_Vel_0
Time_Shift_20
Note_On_66_Vel_0
Time_Shift_5
Note_On_50_Vel_0
Time_Shift_8
Note_On_38_Vel_0
Time_Shift_31
Note_On_69_Vel_0
Time_Shift_15
Note_On_60_Vel_75
Time_Shift_38
Note_On_60_Vel_0
Time_Shift_46
Note_On_43_Vel_79
Time_Shift_2
Note_On_31_Vel_78
Time_Shift_2
Note_On_58_Vel_74
Time_Shift_1
Note_On_67_Vel_79
Time_Shift_23
Note_On_43_Vel_0
Note_On_31_Vel_0
Time_Shift_49
Note_On_58_Vel_0
Time_Shift_19
Note_On_55_Vel_74
Time_Shift_2
Note_On_43_Vel_65
Time_Shift_23
Note_On_67_Vel_0
Time_Shift_5
Note_On_55_Vel_0
Time_Shift_20
Note_On_43_Vel_0
Time_Shift_51
Note_On_48_Vel_81
Time_Shift_3
Note_On_36_Vel_78
Time_Shift_2
Note_On_63_Vel_82
Note_On_55_Vel_75
Time_Shift_1
Note_On_67_Vel_82
Time_Shift_59
Sustain_On
Time_Shift_40
Note_On_66_Vel_81
Time_Shift_98
Note_On_67_Vel_0
Time_Shift_7
Note_On_67_Vel_88
Time_Shift_85
Note_On_66_Vel_0
Time_Shift_9
Note_On_66_Vel_81
Time_Shift_76
Note_On_67_Vel_0
Time_Shift_9
Note_On_67_Vel_82
Time_Shift_102
Note_On_62_Vel_91
Time_Shift_1
Note_On_46_Vel_90
Time_Shift_3
Note_On_34_Vel_87
Time_Shift_53
Note_On_55_Vel_0
Time_Shift_1
Note_On_67_Vel_0
Note_On_46_Vel_0
Time_Shift_2
Note_On_66_Vel_0
Note_On_34_Vel_0
Note_On_63_Vel_0
Time_Shift_1
Note_On_62_Vel_0
Time_Shift_3
Sustain_Off
Time_Shift_9
Note_On_36_Vel_0
Note_On_48_Vel_0
Time_Shift_28
Note_On_48_Vel_103
Time_Shift_2
Note_On_67_Vel_91
Time_Shift_2
Note_On_63_Vel_93
Time_Shift_1
Note_On_55_Vel_95
Time_Shift_1
Note_On_36_Vel_96
Time_Shift_50
Sustain_On
Time_Shift_36
Note_On_66_Vel_89
Time_Shift_87
Note_On_67_Vel_0
Time_Shift_8
Note_On_67_Vel_92
Time_Shift_102
Note_On_62_Vel_101
Time_Shift_1
Note_On_65_Vel_89
Time_Shift_3
Note_On_46_Vel_95
Time_Shift_4
Note_On_34_Vel_90
Time_Shift_55
Note_On_66_Vel_0
Note_On_46_Vel_0
Note_On_34_Vel_0
Time_Shift_1
Note_On_62_Vel_0
Note_On_65_Vel_0
Time_Shift_1
Sustain_Off
Time_Shift_10
Note_On_36_Vel_0
Note_On_48_Vel_0
Note_On_55_Vel_0
Time_Shift_7
Note_On_67_Vel_0
Time_Shift_8
Note_On_63_Vel_0
Time_Shift_11
Note_On_63_Vel_105
Time_Shift_1
Note_On_67_Vel_96
Note_On_55_Vel_90
Time_Shift_5
Note_On_48_Vel_107
Time_Shift_2
Note_On_36_Vel_97
Time_Shift_50
Sustain_On
Time_Shift_30
Note_On_66_Vel_94
Time_Shift_85
Note_On_67_Vel_0
Time_Shift_7
Note_On_67_Vel_92
Time_Shift_94
Note_On_62_Vel_94
Time_Shift_4
Note_On_46_Vel_96
Time_Shift_1
Note_On_34_Vel_87
Time_Shift_75
Note_On_55_Vel_0
Note_On_48_Vel_0
Note_On_46_Vel_0
Time_Shift_1
Note_On_34_Vel_0
Note_On_36_Vel_0
Note_On_63_Vel_0
Time_Shift_5
Sustain_Off
Time_Shift_13
Note_On_62_Vel_0
Note_On_66_Vel_0
Note_On_67_Vel_0
Time_Shift_2
Note_On_47_Vel_105
Time_Shift_2
Note_On_56_Vel_109
Note_On_62_Vel_95
Time_Shift_1
Note_On_68_Vel_101
Time_Shift_1
Note_On_35_Vel_98
Time_Shift_4
Note_On_66_Vel_95
Time_Shift_43
Note_On_47_Vel_0
Time_Shift_2
Note_On_35_Vel_0
Time_Shift_6
Note_On_62_Vel_0
Time_Shift_1
Note_On_56_Vel_0
Time_Shift_22
Note_On_66_Vel_0
Time_Shift_16
Note_On_68_Vel_0
Time_Shift_105
Note_On_68_Vel_95
Time_Shift_2
Note_On_62_Vel_92
Time_Shift_39
Sustain_On
Time_Shift_46
Note_On_65_Vel_98
Time_Shift_100
Note_On_68_Vel_0
Time_Shift_4
Note_On_74_Vel_99
Time_Shift_1
Note_On_68_Vel_96
Time_Shift_4
Note_On_59_Vel_107
Time_Shift_2
Note_On_47_Vel_95
Time_Shift_65
Note_On_65_Vel_0
Time_Shift_6
Note_On_65_Vel_100
Time_Shift_94
Note_On_68_Vel_0
Time_Shift_5
Note_On_68_Vel_82
Time_Shift_1
Note_On_77_Vel_97
Time_Shift_94
Note_On_74_Vel_0
Time_Shift_4
Note_On_74_Vel_99
Time_Shift_88
Note_On_77_Vel_0
Time_Shift_5
Note_On_80_Vel_93
Note_On_77_Vel_87
Time_Shift_72
Note_On_74_Vel_0
Time_Shift_11
Note_On_74_Vel_93
Time_Shift_89
Note_On_77_Vel_0
Time_Shift_4
Note_On_86_Vel_98
Time_Shift_3
Note_On_77_Vel_92
Time_Shift_77
Note_On_80_Vel_0
Time_Shift_11
Note_On_80_Vel_100
Time_Shift_74
Note_On_86_Vel_0
Time_Shift_6
Note_On_86_Vel_94
Time_Shift_2
Note_On_89_Vel_102
Time_Shift_84
Note_On_80_Vel_0
Time_Shift_11
Note_On_80_Vel_90
Time_Shift_100
Note_On_98_Vel_111
Time_Shift_4
Note_On_47_Vel_0
Note_On_89_Vel_0
Time_Shift_8
Note_On_89_Vel_99
Time_Shift_1
Note_On_35_Vel_75
Time_Shift_1
Note_On_47_Vel_77
Time_Shift_1
Note_On_74_Vel_0
Time_Shift_2
Note_On_59_Vel_0
Time_Shift_1
Sustain_Off
Time_Shift_2
Note_On_35_Vel_0
Time_Shift_23
Note_On_77_Vel_0
Sustain_On
Time_Shift_52
Note_On_92_Vel_100
Time_Shift_101
Note_On_62_Vel_0
Time_Shift_1
Note_On_47_Vel_0
Time_Shift_2
Note_On_92_Vel_0
Note_On_98_Vel_0
Time_Shift_5
Note_On_65_Vel_0
Note_On_68_Vel_0
Note_On_80_Vel_0
Note_On_86_Vel_0
Note_On_89_Vel_0
Time_Shift_1
Note_On_99_Vel_107
Sustain_Off
Time_Shift_3
Note_On_96_Vel_89
Time_Shift_25
Note_On_48_Vel_69
Time_Shift_25
Sustain_On
Time_Shift_46
Note_On_87_Vel_90
Time_Shift_97
Note_On_98_Vel_104
Time_Shift_12
Note_On_89_Vel_94
Time_Shift_3
Note_On_50_Vel_77
Time_Shift_3
Note_On_38_Vel_76
Time_Shift_76
Note_On_95_Vel_100
Time_Shift_78
Note_On_96_Vel_0
Time_Shift_9
Note_On_96_Vel_98
Time_Shift_11
Note_On_39_Vel_75
Time_Shift_3
Note_On_51_Vel_78
Time_Shift_2
Note_On_91_Vel_82
Time_Shift_76
Note_On_84_Vel_95
Time_Shift_95
Note_On_94_Vel_101
Time_Shift_7
Note_On_40_Vel_84
Time_Shift_2
Note_On_85_Vel_92
Note_On_52_Vel_84
Time_Shift_71
Note_On_91_Vel_0
Time_Shift_5
Note_On_91_Vel_100
Time_Shift_95
Note_On_89_Vel_0
Time_Shift_11
Note_On_89_Vel_95
Note_On_92_Vel_98
Time_Shift_1
Sustain_Off
Time_Shift_2
Note_On_41_Vel_78
Time_Shift_4
Note_On_53_Vel_81
Time_Shift_3
Note_On_91_Vel_0
Time_Shift_1
Note_On_40_Vel_0
Note_On_52_Vel_0
Time_Shift_3
Note_On_50_Vel_0
Note_On_84_Vel_0
Note_On_38_Vel_0
Time_Shift_4
Note_On_85_Vel_0
Time_Shift_9
Note_On_99_Vel_0
Time_Shift_8
Note_On_87_Vel_0
Sustain_On
Time_Shift_56
Note_On_80_Vel_87
Time_Shift_96
Note_On_91_Vel_102
Note_On_82_Vel_99
Time_Shift_9
Note_On_43_Vel_86
Time_Shift_3
Note_On_55_Vel_85
Time_Shift_77
Note_On_88_Vel_101
Time_Shift_89
Note_On_89_Vel_0
Time_Shift_6
Note_On_89_Vel_97
Time_Shift_3
Note_On_84_Vel_95
Time_Shift_9
Note_On_56_Vel_91
Note_On_44_Vel_81
Time_Shift_76
Note_On_77_Vel_95
Time_Shift_94
Note_On_87_Vel_95
Time_Shift_4
Note_On_98_Vel_0
Time_Shift_3
Note_On_78_Vel_90
Time_Shift_2
Note_On_57_Vel_88
Time_Shift_2
Note_On_45_Vel_81
Time_Shift_1
Note_On_39_Vel_0
Time_Shift_77
Note_On_84_Vel_0
Time_Shift_9
Note_On_84_Vel_86
Time_Shift_90
Note_On_82_Vel_0
Time_Shift_5
Note_On_85_Vel_89
Time_Shift_5
Note_On_82_Vel_96
Time_Shift_8
Note_On_46_Vel_85
Time_Shift_1
Note_On_58_Vel_87
Time_Shift_91
Note_On_73_Vel_99
Time_Shift_82
Note_On_84_Vel_0
Time_Shift_8
Note_On_84_Vel_98
Note_On_48_Vel_0
Time_Shift_4
Note_On_75_Vel_93
Time_Shift_1
Note_On_48_Vel_87
Time_Shift_2
Note_On_60_Vel_91
Time_Shift_78
Note_On_95_Vel_0
Time_Shift_4
Note_On_81_Vel_79
Time_Shift_11
Note_On_80_Vel_0
Time_Shift_6
Note_On_80_Vel_47
Time_Shift_71
Note_On_82_Vel_0
Time_Shift_7
Note_On_77_Vel_0
Time_Shift_4
Note_On_82_Vel_97
Time_Shift_1
Note_On_77_Vel_95
Time_Shift_6
Note_On_61_Vel_99
Time_Shift_1
Note_On_49_Vel_96
Time_Shift_78
Note_On_70_Vel_100
Time_Shift_87
Note_On_80_Vel_0
Time_Shift_8
Note_On_77_Vel_0
Time_Shift_4
Note_On_80_Vel_96
Time_Shift_3
Note_On_71_Vel_95
Time_Shift_2
Note_On_62_Vel_90
Time_Shift_1
Note_On_50_Vel_88
Note_On_77_Vel_87
Time_Shift_74
Note_On_77_Vel_0
Time_Shift_7
Note_On_77_Vel_76
Time_Shift_93
Note_On_78_Vel_0
Time_Shift_8
Note_On_51_Vel_0
Note_On_75_Vel_0
Time_Shift_1
Note_On_78_Vel_100
Time_Shift_1
Note_On_63_Vel_99
Time_Shift_3
Note_On_51_Vel_88
Time_Shift_1
Note_On_75_Vel_93
Time_Shift_80
Note_On_66_Vel_96
Time_Shift_98
Note_On_53_Vel_0
Note_On_77_Vel_0
Time_Shift_9
Note_On_65_Vel_93
Note_On_77_Vel_97
Time_Shift_1
Note_On_53_Vel_95
Time_Shift_5
Note_On_68_Vel_88
Time_Shift_81
Note_On_74_Vel_58
Time_Shift_87
Note_On_54_Vel_94
Time_Shift_1
Note_On_75_Vel_0
Time_Shift_7
Note_On_78_Vel_0
Time_Shift_1
Note_On_66_Vel_0
Time_Shift_4
Note_On_75_Vel_92
Note_On_66_Vel_100
Time_Shift_81
Note_On_63_Vel_0
Time_Shift_8
Note_On_63_Vel_97
Time_Shift_91
Note_On_73_Vel_0
Time_Shift_8
Note_On_55_Vel_0
Note_On_65_Vel_0
Time_Shift_4
Note_On_73_Vel_101
Time_Shift_2
Note_On_55_Vel_90
Time_Shift_2
Note_On_67_Vel_83
Time_Shift_2
Note_On_65_Vel_85
Time_Shift_82
Note_On_70_Vel_0
Time_Shift_6
Note_On_70_Vel_89
Time_Shift_48
Note_On_94_Vel_0
Time_Shift_9
Note_On_58_Vel_0
Note_On_48_Vel_0
Note_On_65_Vel_0
Note_On_77_Vel_0
Note_On_84_Vel_0
Sustain_Off
Note_On_66_Vel_0
Note_On_75_Vel_0
Time_Shift_1
Note_On_45_Vel_0
Note_On_41_Vel_0
Note_On_71_Vel_0
Note_On_57_Vel_0
Note_On_50_Vel_0
Note_On_80_Vel_0
Note_On_44_Vel_0
Note_On_81_Vel_0
Note_On_87_Vel_0
Note_On_46_Vel_0
Note_On_61_Vel_0
Note_On_62_Vel_0
Time_Shift_1
Note_On_74_Vel_0
Note_On_49_Vel_0
Note_On_60_Vel_0
Note_On_70_Vel_0
Note_On_55_Vel_0
Note_On_89_Vel_0
Note_On_85_Vel_0
Note_On_82_Vel_0
Note_On_43_Vel_0
Note_On_67_Vel_0
Note_On_88_Vel_0
Time_Shift_1
Note_On_92_Vel_0
Time_Shift_3
Note_On_91_Vel_0
Time_Shift_8
Note_On_53_Vel_0
Note_On_54_Vel_0
Note_On_96_Vel_0
Time_Shift_8
Note_On_51_Vel_0
Note_On_56_Vel_0
Note_On_63_Vel_0
Note_On_68_Vel_0
Note_On_73_Vel_0
Time_Shift_9
Note_On_68_Vel_103
Time_Shift_1
Note_On_63_Vel_98
Time_Shift_1
Note_On_56_Vel_86
Note_On_72_Vel_95
Time_Shift_19
Sustain_On
Time_Shift_73
Sustain_Off
Time_Shift_3
Note_On_72_Vel_0
Time_Shift_3
Note_On_63_Vel_0
Time_Shift_1
Note_On_68_Vel_0
Time_Shift_2
Note_On_56_Vel_0
Time_Shift_103
Note_On_72_Vel_86
Time_Shift_3
Note_On_63_Vel_75
Time_Shift_1
Note_On_56_Vel_72
Time_Shift_11
Sustain_On
Time_Shift_65
Note_On_68_Vel_72
Time_Shift_16
Note_On_54_Vel_74
Time_Shift_69
Sustain_Off
Time_Shift_16
Note_On_56_Vel_0
Time_Shift_3
Note_On_73_Vel_85
Time_Shift_2
Note_On_54_Vel_0
Time_Shift_2
Note_On_63_Vel_0
Time_Shift_2
Note_On_52_Vel_67
Time_Shift_2
Note_On_72_Vel_0
Time_Shift_4
Note_On_68_Vel_0
Time_Shift_47
Note_On_73_Vel_0
Time_Shift_21
Note_On_61_Vel_78
Time_Shift_17
Note_On_52_Vel_0
Time_Shift_15
Note_On_61_Vel_0
Note_On_51_Vel_55
Time_Shift_72
Sustain_On
Time_Shift_4
Note_On_76_Vel_93
Time_Shift_4
Note_On_68_Vel_72
Time_Shift_1
Note_On_49_Vel_72
Time_Shift_38
Note_On_51_Vel_0
Time_Shift_21
Note_On_76_Vel_0
Time_Shift_17
Sustain_Off
Time_Shift_12
Note_On_47_Vel_71
Note_On_49_Vel_0
Time_Shift_3
Note_On_72_Vel_75
Time_Shift_31
Note_On_68_Vel_0
Time_Shift_22
Note_On_72_Vel_0
Time_Shift_29
Note_On_47_Vel_0
Time_Shift_2
Note_On_78_Vel_93
Time_Shift_1
Note_On_57_Vel_73
Time_Shift_1
Note_On_45_Vel_67
Time_Shift_7
Note_On_69_Vel_69
Time_Shift_31
Note_On_69_Vel_0
Time_Shift_9
Note_On_78_Vel_0
Time_Shift_44
Note_On_57_Vel_0
Time_Shift_1
Note_On_66_Vel_71
Time_Shift_5
Note_On_45_Vel_0
Time_Shift_3
Note_On_44_Vel_69
Time_Shift_25
Note_On_66_Vel_0
Time_Shift_61
Note_On_81_Vel_92
Note_On_73_Vel_93
Time_Shift_2
Note_On_42_Vel_74
Time_Shift_84
Note_On_78_Vel_93
Time_Shift_6
Note_On_40_Vel_73
Time_Shift_3
Note_On_73_Vel_0
Time_Shift_1
Note_On_81_Vel_0
Time_Shift_4
Note_On_42_Vel_0
Time_Shift_12
Note_On_44_Vel_0
Time_Shift_17
Note_On_78_Vel_0
Time_Shift_55
Note_On_40_Vel_0
Time_Shift_1
Note_On_39_Vel_81
Time_Shift_2
Note_On_83_Vel_88
Time_Shift_2
Note_On_75_Vel_84
Time_Shift_33
Note_On_75_Vel_0
Time_Shift_8
Note_On_83_Vel_0
Time_Shift_38
Note_On_71_Vel_84
Time_Shift_7
Note_On_39_Vel_0
Time_Shift_15
Note_On_37_Vel_72
Time_Shift_10
Note_On_71_Vel_0
Time_Shift_58
Note_On_37_Vel_0
Time_Shift_13
Note_On_87_Vel_98
Time_Shift_5
Note_On_78_Vel_95
Time_Shift_2
Note_On_35_Vel_72
Time_Shift_11
Sustain_On
Time_Shift_74
Note_On_83_Vel_81
Time_Shift_83
Note_On_40_Vel_87
Time_Shift_15
Sustain_Off
Note_On_87_Vel_0
Note_On_88_Vel_90
Note_On_83_Vel_0
Time_Shift_1
Note_On_78_Vel_0
Note_On_80_Vel_83
Time_Shift_2
Note_On_35_Vel_0
Time_Shift_29
Note_On_40_Vel_0
Time_Shift_21
Note_On_88_Vel_0
Time_Shift_5
Note_On_80_Vel_0
Time_Shift_33
Note_On_76_Vel_76
Time_Shift_90
Note_On_76_Vel_0
Time_Shift_10
Note_On_92_Vel_99
Time_Shift_1
Note_On_83_Vel_95
Time_Shift_2
Note_On_52_Vel_61
Time_Shift_25
Sustain_On
Time_Shift_60
Note_On_88_Vel_94
Time_Shift_4
Note_On_62_Vel_79
Time_Shift_58
Note_On_92_Vel_0
Time_Shift_1
Note_On_88_Vel_0
Time_Shift_4
Note_On_83_Vel_0
Note_On_62_Vel_0
Time_Shift_4
Sustain_Off
Time_Shift_15
Note_On_52_Vel_0
Time_Shift_4
Note_On_61_Vel_80
Note_On_93_Vel_93
Time_Shift_1
Note_On_85_Vel_86
Time_Shift_58
Note_On_61_Vel_0
Time_Shift_29
Note_On_59_Vel_75
Note_On_81_Vel_78
Time_Shift_16
Note_On_85_Vel_0
Time_Shift_15
Note_On_81_Vel_0
Time_Shift_16
Note_On_93_Vel_0
Time_Shift_2
Note_On_59_Vel_0
Time_Shift_33
Note_On_57_Vel_72
Time_Shift_15
Note_On_97_Vel_101
Time_Shift_6
Note_On_88_Vel_94
Time_Shift_20
Sustain_On
Time_Shift_58
Note_On_95_Vel_97
Time_Shift_12
Note_On_88_Vel_0
Time_Shift_1
Note_On_56_Vel_67
Time_Shift_3
Note_On_88_Vel_78
Time_Shift_8
Note_On_89_Vel_73
Time_Shift_41
Sustain_Off
Time_Shift_11
Note_On_56_Vel_0
Time_Shift_1
Note_On_57_Vel_0
Time_Shift_16
Note_On_93_Vel_87
Time_Shift_3
Note_On_90_Vel_93
Time_Shift_2
Note_On_54_Vel_75
Time_Shift_21
Note_On_89_Vel_0
Time_Shift_31
Sustain_On
Time_Shift_23
Note_On_88_Vel_0
Time_Shift_4
Note_On_92_Vel_94
Time_Shift_5
Note_On_88_Vel_90
Time_Shift_10
Note_On_56_Vel_71
Time_Shift_73
Note_On_90_Vel_0
Time_Shift_7
Note_On_57_Vel_69
Time_Shift_4
Note_On_87_Vel_90
Note_On_90_Vel_89
Time_Shift_66
Note_On_88_Vel_0
Time_Shift_10
Note_On_88_Vel_93
Time_Shift_5
Note_On_85_Vel_86
Time_Shift_7
Note_On_55_Vel_60
Time_Shift_62
Note_On_54_Vel_0
Time_Shift_1
Note_On_93_Vel_0
Time_Shift_3
Note_On_88_Vel_0
Time_Shift_4
Note_On_95_Vel_0
Time_Shift_8
Note_On_87_Vel_0
Time_Shift_1
Sustain_Off
Time_Shift_6
Note_On_97_Vel_0
Time_Shift_1
Note_On_75_Vel_77
Time_Shift_2
Note_On_84_Vel_78
Time_Shift_1
Note_On_87_Vel_79
Time_Shift_14
Note_On_83_Vel_71
Time_Shift_36
Sustain_On
Time_Shift_23
Note_On_85_Vel_0
Time_Shift_10
Note_On_85_Vel_89
Time_Shift_1
Note_On_81_Vel_85
Time_Shift_89
Note_On_84_Vel_0
Time_Shift_9
Note_On_80_Vel_82
Note_On_84_Vel_89
Time_Shift_14
Note_On_56_Vel_0
Time_Shift_4
Note_On_56_Vel_58
Time_Shift_24
Sustain_Off
Time_Shift_1
Note_On_84_Vel_0
Time_Shift_1
Note_On_85_Vel_0
Time_Shift_3
Note_On_81_Vel_0
Time_Shift_2
Note_On_83_Vel_0
Time_Shift_2
Note_On_80_Vel_0
Time_Shift_1
Note_On_55_Vel_0
Note_On_57_Vel_0
Time_Shift_8
Note_On_92_Vel_0
Time_Shift_8
Note_On_90_Vel_0
Time_Shift_7
Note_On_75_Vel_0
Time_Shift_8
Note_On_56_Vel_0
Note_On_87_Vel_0
Time_Shift_9
Note_On_78_Vel_86
Note_On_87_Vel_84
Time_Shift_2
Note_On_56_Vel_61
Time_Shift_58
Note_On_78_Vel_0
Time_Shift_44
Note_On_85_Vel_81
Time_Shift_3
Note_On_61_Vel_64
Time_Shift_3
Note_On_76_Vel_70
Time_Shift_27
Note_On_87_Vel_0
Time_Shift_154
Note_On_85_Vel_0
Time_Shift_7
Note_On_61_Vel_0
Time_Shift_7
Note_On_77_Vel_84
Time_Shift_2
Note_On_68_Vel_71
Time_Shift_1
Note_On_61_Vel_67
Time_Shift_21
Sustain_On
Time_Shift_63
Note_On_73_Vel_73
Time_Shift_2
Note_On_59_Vel_71
Time_Shift_77
Note_On_57_Vel_72
Time_Shift_2
Note_On_78_Vel_86
Time_Shift_4
Note_On_69_Vel_73
Time_Shift_2
Note_On_77_Vel_0
Time_Shift_1
Sustain_Off
Time_Shift_3
Note_On_56_Vel_0
Time_Shift_3
Note_On_61_Vel_0
Note_On_59_Vel_0
Note_On_68_Vel_0
Time_Shift_5
Note_On_73_Vel_0
Time_Shift_22
Note_On_76_Vel_0
Time_Shift_2
Note_On_69_Vel_0
Time_Shift_3
Note_On_78_Vel_0
Time_Shift_40
Note_On_66_Vel_84
Time_Shift_22
Note_On_56_Vel_69
Time_Shift_2
Note_On_57_Vel_0
Time_Shift_5
Note_On_66_Vel_0
Time_Shift_72
Note_On_56_Vel_0
Time_Shift_5
Note_On_81_Vel_95
Note_On_54_Vel_81
Time_Shift_3
Sustain_On
Time_Shift_1
Note_On_73_Vel_86
Time_Shift_87
Note_On_78_Vel_92
Time_Shift_3
Note_On_52_Vel_76
Time_Shift_51
Note_On_81_Vel_0
Time_Shift_1
Note_On_78_Vel_0
Sustain_Off
Time_Shift_3
Note_On_54_Vel_0
Time_Shift_5
Note_On_52_Vel_0
Time_Shift_3
Note_On_73_Vel_0
Time_Shift_23
Note_On_50_Vel_75
Note_On_74_Vel_82
Time_Shift_2
Note_On_83_Vel_90
Time_Shift_37
Note_On_74_Vel_0
Time_Shift_20
Note_On_83_Vel_0
Time_Shift_23
Note_On_71_Vel_85
Time_Shift_17
Note_On_50_Vel_0
Time_Shift_5
Note_On_49_Vel_74
Time_Shift_49
Sustain_On
Time_Shift_43
Note_On_88_Vel_87
Note_On_86_Vel_84
Note_On_47_Vel_80
Time_Shift_79
Note_On_45_Vel_75
Note_On_83_Vel_91
Time_Shift_56
Sustain_Off
Time_Shift_1
Note_On_86_Vel_0
Time_Shift_1
Note_On_47_Vel_0
Note_On_45_Vel_0
Time_Shift_1
Note_On_49_Vel_0
Note_On_83_Vel_0
Time_Shift_3
Note_On_71_Vel_0
Time_Shift_24
Note_On_88_Vel_0
Time_Shift_3
Note_On_80_Vel_79
Time_Shift_2
Note_On_88_Vel_87
Time_Shift_12
Note_On_44_Vel_78
Time_Shift_23
Note_On_80_Vel_0
Time_Shift_9
Note_On_88_Vel_0
Time_Shift_27
Sustain_On
Time_Shift_3
Note_On_76_Vel_90
Time_Shift_16
Note_On_42_Vel_81
Time_Shift_84
Note_On_40_Vel_83
Time_Shift_6
Note_On_92_Vel_103
Time_Shift_3
Note_On_83_Vel_97
Time_Shift_85
Note_On_88_Vel_92
Note_On_38_Vel_76
Time_Shift_31
Note_On_42_Vel_0
Time_Shift_5
Sustain_Off
Time_Shift_1
Note_On_83_Vel_0
Time_Shift_1
Note_On_40_Vel_0
Note_On_92_Vel_0
Time_Shift_9
Note_On_88_Vel_0
Time_Shift_2
Note_On_44_Vel_0
Time_Shift_15
Note_On_38_Vel_0
Note_On_76_Vel_0
Time_Shift_27
Note_On_85_Vel_91
Note_On_93_Vel_96
Time_Shift_1
Note_On_37_Vel_75
Time_Shift_76
Note_On_81_Vel_86
Time_Shift_3
Note_On_35_Vel_61
Time_Shift_1
Note_On_37_Vel_0
Time_Shift_88
Note_On_45_Vel_64
Time_Shift_5
Note_On_33_Vel_76
Time_Shift_3
Note_On_97_Vel_99
Time_Shift_6
Note_On_88_Vel_96
Time_Shift_29
Sustain_On
Time_Shift_26
Sustain_Off
Time_Shift_23
Note_On_95_Vel_91
Time_Shift_3
Note_On_89_Vel_95
Time_Shift_1
Note_On_32_Vel_70
Time_Shift_23
Sustain_On
Time_Shift_54
Note_On_93_Vel_0
Time_Shift_4
Note_On_93_Vel_93
Time_Shift_7
Note_On_90_Vel_99
Time_Shift_1
Note_On_30_Vel_85
Time_Shift_3
Note_On_45_Vel_0
Time_Shift_12
Note_On_33_Vel_0
Time_Shift_1
Note_On_89_Vel_0
Time_Shift_3
Note_On_35_Vel_0
Time_Shift_7
Note_On_81_Vel_0
Time_Shift_3
Sustain_Off
Time_Shift_5
Note_On_85_Vel_0
Time_Shift_16
Note_On_32_Vel_0
Time_Shift_30
Note_On_88_Vel_0
Sustain_On
Time_Shift_4
Note_On_92_Vel_96
Time_Shift_2
Note_On_88_Vel_91
Time_Shift_94
Note_On_90_Vel_0
Time_Shift_3
Note_On_42_Vel_90
Time_Shift_3
Note_On_87_Vel_86
Time_Shift_4
Note_On_90_Vel_87
Time_Shift_44
Sustain_Off
Time_Shift_31
Note_On_88_Vel_0
Time_Shift_5
Note_On_85_Vel_90
Time_Shift_1
Note_On_88_Vel_89
Time_Shift_78
Note_On_93_Vel_0
Time_Shift_1
Note_On_30_Vel_0
Note_On_92_Vel_0
Note_On_88_Vel_0
Time_Shift_1
Note_On_97_Vel_0
Time_Shift_1
Note_On_87_Vel_0
Note_On_85_Vel_0
Time_Shift_1
Note_On_42_Vel_0
Note_On_90_Vel_0
Time_Shift_4
Note_On_95_Vel_0
Time_Shift_7
Note_On_56_Vel_68
Time_Shift_3
Note_On_84_Vel_82
Time_Shift_2
Note_On_75_Vel_63
Time_Shift_11
Note_On_75_Vel_0
Time_Shift_30
Sustain_On
Time_Shift_43
Note_On_85_Vel_90
Time_Shift_1
Note_On_81_Vel_80
Time_Shift_40
Sustain_Off
Time_Shift_32
Sustain_On
Time_Shift_7
Note_On_56_Vel_0
Note_On_84_Vel_0
Time_Shift_9
Note_On_84_Vel_79
Time_Shift_1
Note_On_56_Vel_73
Time_Shift_4
Note_On_80_Vel_85
Time_Shift_13
Note_On_83_Vel_74
Time_Shift_73
Note_On_81_Vel_0
Time_Shift_8
Note_On_78_Vel_83
Time_Shift_2
Note_On_81_Vel_78
Time_Shift_26
Note_On_85_Vel_0
Time_Shift_4
Sustain_Off
Time_Shift_22
Sustain_On
Time_Shift_30
Note_On_80_Vel_0
Time_Shift_12
Note_On_80_Vel_83
Note_On_76_Vel_74
Time_Shift_81
Note_On_81_Vel_0
Time_Shift_7
Note_On_78_Vel_0
Time_Shift_3
Note_On_81_Vel_75
Time_Shift_1
Note_On_78_Vel_77
Note_On_80_Vel_0
Time_Shift_3
Note_On_76_Vel_0
Time_Shift_1
Note_On_84_Vel_0
Time_Shift_2
Note_On_73_Vel_53
Time_Shift_11
Sustain_Off
Time_Shift_10
Note_On_83_Vel_0
Time_Shift_8
Note_On_56_Vel_0
Time_Shift_52
Note_On_80_Vel_78
Time_Shift_17
Note_On_76_Vel_65
Time_Shift_53
Sustain_On
Time_Shift_16
Note_On_73_Vel_0
Time_Shift_8
Note_On_78_Vel_0
Time_Shift_11
Note_On_78_Vel_77
Time_Shift_6
Note_On_75_Vel_65
Time_Shift_6
Note_On_56_Vel_56
Time_Shift_38
Sustain_Off
Time_Shift_54
Note_On_76_Vel_0
Time_Shift_4
Note_On_76_Vel_52
Time_Shift_2
Note_On_73_Vel_62
Time_Shift_4
Note_On_61_Vel_69
Time_Shift_20
Sustain_On
Time_Shift_76
Note_On_59_Vel_68
Time_Shift_24
Note_On_75_Vel_0
Time_Shift_8
Note_On_75_Vel_50
Time_Shift_15
Note_On_76_Vel_0
Time_Shift_11
Sustain_Off
Note_On_76_Vel_57
Time_Shift_1
Note_On_73_Vel_0
Time_Shift_2
Note_On_61_Vel_0
Time_Shift_2
Note_On_80_Vel_0
Time_Shift_3
Note_On_59_Vel_0
Time_Shift_4
Note_On_56_Vel_0
Time_Shift_8
Note_On_81_Vel_0
Time_Shift_15
Note_On_75_Vel_0
Time_Shift_12
Note_On_77_Vel_77
Time_Shift_4
Note_On_78_Vel_0
Note_On_58_Vel_70
Time_Shift_2
Note_On_74_Vel_69
Time_Shift_13
Note_On_76_Vel_0
Time_Shift_31
Sustain_On
Time_Shift_43
Note_On_78_Vel_90
Time_Shift_9
Note_On_75_Vel_63
Time_Shift_86
Note_On_80_Vel_81
Note_On_77_Vel_0
Time_Shift_4
Note_On_77_Vel_74
Time_Shift_70
Note_On_51_Vel_69
Time_Shift_7
Note_On_83_Vel_89
Time_Shift_3
Note_On_71_Vel_90
Time_Shift_19
Note_On_81_Vel_65
Time_Shift_78
Note_On_50_Vel_65
Time_Shift_15
Note_On_82_Vel_93
Time_Shift_2
Note_On_70_Vel_88
Time_Shift_73
Note_On_46_Vel_70
Time_Shift_6
Note_On_77_Vel_0
Time_Shift_2
Note_On_50_Vel_0
Time_Shift_2
Note_On_78_Vel_0
Time_Shift_3
Note_On_80_Vel_0
Time_Shift_2
Note_On_77_Vel_67
Time_Shift_3
Note_On_80_Vel_74
Time_Shift_8
Sustain_Off
Time_Shift_26
Note_On_74_Vel_0
Time_Shift_23
Note_On_58_Vel_0
Time_Shift_23
Sustain_On
Time_Shift_7
Note_On_75_Vel_0
Time_Shift_6
Note_On_78_Vel_80
Time_Shift_2
Note_On_51_Vel_0
Time_Shift_3
Note_On_75_Vel_72
Time_Shift_1
Note_On_51_Vel_70
Time_Shift_91
Note_On_49_Vel_82
Time_Shift_52
Note_On_70_Vel_0
Note_On_75_Vel_0
Time_Shift_1
Note_On_77_Vel_0
Note_On_83_Vel_0
Note_On_80_Vel_0
Note_On_82_Vel_0
Note_On_78_Vel_0
Time_Shift_1
Note_On_51_Vel_0
Sustain_Off
Time_Shift_5
Note_On_71_Vel_0
Note_On_81_Vel_0
Time_Shift_3
Note_On_49_Vel_0
Time_Shift_12
Note_On_46_Vel_0
Time_Shift_19
Note_On_48_Vel_85
Time_Shift_3
Note_On_79_Vel_86
Time_Shift_4
Note_On_76_Vel_79
Time_Shift_30
Note_On_76_Vel_0
Time_Shift_3
Note_On_79_Vel_0
Time_Shift_2
Sustain_On
Time_Shift_51
Note_On_80_Vel_90
Time_Shift_6
Note_On_77_Vel_75
Time_Shift_88
Note_On_79_Vel_76
Time_Shift_3
Note_On_82_Vel_90
Time_Shift_24
Note_On_80_Vel_0
Note_On_77_Vel_0
Time_Shift_4
Sustain_Off
Time_Shift_9
Note_On_48_Vel_0
Time_Shift_38
Sustain_On
Time_Shift_6
Note_On_85_Vel_93
Time_Shift_6
Note_On_73_Vel_87
Time_Shift_1
Note_On_41_Vel_69
Time_Shift_81
Note_On_84_Vel_89
Time_Shift_2
Note_On_72_Vel_87
Time_Shift_10
Note_On_40_Vel_72
Time_Shift_19
Note_On_41_Vel_0
Time_Shift_2
Note_On_85_Vel_0
Note_On_73_Vel_0
Time_Shift_1
Note_On_82_Vel_0
Time_Shift_2
Sustain_Off
Time_Shift_1
Note_On_79_Vel_0
Time_Shift_57
Note_On_82_Vel_90
Time_Shift_1
Note_On_79_Vel_83
Time_Shift_3
Note_On_36_Vel_70
Sustain_On
Time_Shift_31
Note_On_72_Vel_0
Time_Shift_57
Note_On_80_Vel_96
Time_Shift_1
Note_On_77_Vel_87
Note_On_41_Vel_83
Time_Shift_65
Note_On_36_Vel_0
Time_Shift_23
Note_On_77_Vel_0
Time_Shift_1
Note_On_82_Vel_0
Time_Shift_1
Note_On_39_Vel_83
Note_On_80_Vel_0
Time_Shift_1
Note_On_79_Vel_0
Note_On_41_Vel_0
Time_Shift_1
Sustain_Off
Time_Shift_4
Note_On_40_Vel_0
Time_Shift_7
Note_On_84_Vel_0
Time_Shift_62
Sustain_On
Time_Shift_10
Note_On_39_Vel_0
Time_Shift_1
Note_On_81_Vel_82
Note_On_78_Vel_90
Time_Shift_6
Note_On_72_Vel_79
Time_Shift_1
Note_On_38_Vel_82
Time_Shift_1
Note_On_82_Vel_78
Time_Shift_11
Note_On_82_Vel_0
Time_Shift_73
Note_On_79_Vel_87
Note_On_82_Vel_98
Time_Shift_24
Note_On_39_Vel_62
Time_Shift_49
Note_On_81_Vel_0
Time_Shift_7
Note_On_81_Vel_90
Time_Shift_5
Note_On_84_Vel_86
Time_Shift_17
Note_On_72_Vel_0
Time_Shift_6
Note_On_82_Vel_0
Time_Shift_1
Note_On_38_Vel_0
Note_On_78_Vel_0
Note_On_79_Vel_0
Time_Shift_6
Sustain_Off
Time_Shift_4
Note_On_39_Vel_0
Time_Shift_31
Note_On_81_Vel_0
Time_Shift_15
Note_On_31_Vel_76
Time_Shift_8
Sustain_On
Time_Shift_6
Note_On_75_Vel_93
Time_Shift_2
Note_On_87_Vel_89
Time_Shift_75
Note_On_86_Vel_92
Time_Shift_8
Note_On_74_Vel_89
Time_Shift_7
Note_On_30_Vel_76
Time_Shift_2
Note_On_31_Vel_0
Time_Shift_10
Note_On_31_Vel_71
Time_Shift_17
Note_On_75_Vel_0
Note_On_87_Vel_0
Time_Shift_4
Note_On_84_Vel_0
Time_Shift_3
Sustain_Off
Time_Shift_1
Note_On_86_Vel_0
Time_Shift_1
Note_On_74_Vel_0
Time_Shift_10
Note_On_30_Vel_0
Time_Shift_15
Note_On_31_Vel_0
Time_Shift_23
Sustain_On
Time_Shift_1
Note_On_81_Vel_92
Note_On_84_Vel_86
Time_Shift_94
Note_On_81_Vel_0
Time_Shift_1
Note_On_43_Vel_75
Time_Shift_1
Note_On_82_Vel_97
Time_Shift_1
Note_On_79_Vel_84
Sustain_Off
Time_Shift_8
Note_On_84_Vel_0
Time_Shift_40
Sustain_On
Time_Shift_29
Note_On_55_Vel_74
Time_Shift_99
Sustain_Off
Time_Shift_14
Note_On_81_Vel_91
Note_On_57_Vel_69
Time_Shift_2
Note_On_77_Vel_80
Time_Shift_25
Note_On_82_Vel_0
Time_Shift_4
Note_On_79_Vel_0
Note_On_55_Vel_0
Time_Shift_12
Note_On_43_Vel_0
Time_Shift_38
Sustain_On
Time_Shift_26
Note_On_69_Vel_67
Time_Shift_127
Note_On_79_Vel_83
Time_Shift_11
Note_On_58_Vel_60
Time_Shift_4
Note_On_76_Vel_62
Time_Shift_31
Note_On_77_Vel_0
Time_Shift_2
Note_On_57_Vel_0
Time_Shift_1
Note_On_81_Vel_0
Time_Shift_9
Sustain_Off
Time_Shift_50
Note_On_69_Vel_0
Time_Shift_8
Sustain_On
Time_Shift_18
Note_On_70_Vel_50
Time_Shift_130
Note_On_77_Vel_70
Time_Shift_17
Note_On_68_Vel_56
Note_On_74_Vel_51
Time_Shift_12
Note_On_76_Vel_0
Time_Shift_7
Note_On_79_Vel_0
Time_Shift_4
Sustain_Off
Time_Shift_96
Note_On_58_Vel_0
Time_Shift_15
Sustain_On
Time_Shift_26
Note_On_56_Vel_55
Time_Shift_128
Note_On_69_Vel_33
Time_Shift_8
Note_On_69_Vel_0
Time_Shift_71
Note_On_76_Vel_54
Time_Shift_8
Note_On_77_Vel_0
Note_On_74_Vel_0
Note_On_56_Vel_0
Note_On_68_Vel_0
Time_Shift_1
Note_On_73_Vel_54
Sustain_Off
Time_Shift_4
Note_On_70_Vel_0
Time_Shift_12
Note_On_57_Vel_49
Time_Shift_88
Sustain_On
Time_Shift_16
Note_On_71_Vel_61
Time_Shift_81
Note_On_69_Vel_63
Time_Shift_21
Note_On_61_Vel_58
Time_Shift_74
Note_On_64_Vel_66
Time_Shift_84
Note_On_76_Vel_0
Time_Shift_11
Note_On_76_Vel_75
Time_Shift_20
Note_On_73_Vel_0
Time_Shift_1
Note_On_52_Vel_46
Time_Shift_2
Note_On_69_Vel_0
Time_Shift_1
Note_On_57_Vel_0
Note_On_71_Vel_0
Note_On_64_Vel_0
Time_Shift_1
Note_On_61_Vel_0
Time_Shift_1
Note_On_73_Vel_52
Time_Shift_3
Note_On_45_Vel_50
Time_Shift_1
Sustain_Off
Time_Shift_67
Sustain_On
Time_Shift_18
Note_On_71_Vel_68
Time_Shift_93
Note_On_57_Vel_63
Time_Shift_1
Note_On_69_Vel_74
Time_Shift_90
Note_On_81_Vel_84
Time_Shift_77
Note_On_40_Vel_63
Time_Shift_18
Note_On_83_Vel_90
Time_Shift_4
Note_On_71_Vel_0
Time_Shift_1
Sustain_Off
Time_Shift_5
Note_On_57_Vel_0
Time_Shift_1
Note_On_73_Vel_0
Time_Shift_3
Note_On_69_Vel_0
Time_Shift_12
Note_On_81_Vel_0
Time_Shift_10
Note_On_81_Vel_49
Time_Shift_5
Note_On_45_Vel_0
Time_Shift_15
Note_On_76_Vel_0
Time_Shift_16
Note_On_52_Vel_0
Time_Shift_6
Note_On_52_Vel_57
Time_Shift_9
Sustain_On
Time_Shift_35
Note_On_78_Vel_71
Time_Shift_100
Note_On_76_Vel_65
Time_Shift_37
Note_On_59_Vel_68
Time_Shift_5
Note_On_40_Vel_0
Time_Shift_42
Note_On_85_Vel_84
Time_Shift_96
Note_On_83_Vel_0
Time_Shift_9
Note_On_83_Vel_79
Time_Shift_2
Note_On_80_Vel_69
Time_Shift_32
Note_On_62_Vel_72
Time_Shift_64
Note_On_78_Vel_0
Time_Shift_8
Note_On_78_Vel_73
Time_Shift_85
Note_On_76_Vel_0
Time_Shift_11
Note_On_76_Vel_72
Time_Shift_1
Note_On_64_Vel_61
Time_Shift_89
Note_On_88_Vel_90
Time_Shift_91
Note_On_88_Vel_0
Note_On_78_Vel_0
Note_On_59_Vel_0
Time_Shift_1
Note_On_80_Vel_0
Time_Shift_1
Note_On_64_Vel_0
Note_On_83_Vel_0
Time_Shift_2
Sustain_Off
Time_Shift_3
Note_On_81_Vel_0
Time_Shift_4
Note_On_88_Vel_86
Time_Shift_4
Note_On_52_Vel_0
Note_On_62_Vel_0
Time_Shift_3
Note_On_45_Vel_61
Time_Shift_7
Note_On_52_Vel_46
Time_Shift_5
Note_On_85_Vel_0
Time_Shift_7
Note_On_85_Vel_52
Time_Shift_16
Sustain_On
Time_Shift_13
Note_On_45_Vel_0
Time_Shift_60
Note_On_83_Vel_71
Time_Shift_76
Note_On_61_Vel_70
Time_Shift_3
Note_On_81_Vel_61
Time_Shift_86
Note_On_76_Vel_0
Time_Shift_11
Note_On_76_Vel_65
Time_Shift_64
Note_On_85_Vel_0
Note_On_83_Vel_0
Time_Shift_1
Note_On_81_Vel_0
Note_On_61_Vel_0
Time_Shift_3
Sustain_Off
Time_Shift_14
Note_On_52_Vel_0
Note_On_88_Vel_0
Time_Shift_4
Note_On_52_Vel_57
Time_Shift_1
Note_On_88_Vel_95
Time_Shift_5
Note_On_45_Vel_67
Time_Shift_20
Sustain_On
Time_Shift_4
Note_On_85_Vel_55
Time_Shift_16
Note_On_45_Vel_0
Time_Shift_49
Note_On_76_Vel_0
Time_Shift_19
Note_On_83_Vel_77
Time_Shift_66
Note_On_52_Vel_0
Time_Shift_3
Note_On_57_Vel_63
Time_Shift_2
Note_On_52_Vel_45
Time_Shift_6
Note_On_81_Vel_82
Time_Shift_94
Note_On_93_Vel_90
Time_Shift_76
Note_On_40_Vel_65
Time_Shift_13
Note_On_57_Vel_0
Note_On_81_Vel_0
Note_On_52_Vel_0
Time_Shift_1
Note_On_83_Vel_0
Note_On_88_Vel_0
Note_On_85_Vel_0
Time_Shift_3
Note_On_95_Vel_101
Time_Shift_1
Sustain_Off
Time_Shift_28
Note_On_40_Vel_0
Time_Shift_4
Note_On_92_Vel_62
Time_Shift_15
Sustain_On
Time_Shift_57
Note_On_52_Vel_46
Time_Shift_19
Note_On_52_Vel_0
Time_Shift_4
Note_On_52_Vel_56
Time_Shift_5
Note_On_90_Vel_69
Time_Shift_75
Note_On_88_Vel_76
Time_Shift_24
Note_On_59_Vel_63
Time_Shift_57
Note_On_97_Vel_93
Time_Shift_97
Note_On_95_Vel_0
Time_Shift_7
Note_On_92_Vel_0
Time_Shift_3
Note_On_95_Vel_83
Time_Shift_9
Note_On_92_Vel_74
Time_Shift_24
Note_On_62_Vel_53
Time_Shift_56
Note_On_90_Vel_0
Time_Shift_7
Note_On_90_Vel_73
Time_Shift_78
Note_On_88_Vel_0
Time_Shift_4
Note_On_88_Vel_64
Time_Shift_2
Note_On_64_Vel_61
Time_Shift_109
Note_On_64_Vel_0
Time_Shift_11
Note_On_64_Vel_63
Time_Shift_80
Sustain_Off
Time_Shift_4
Note_On_62_Vel_0
Time_Shift_1
Note_On_93_Vel_0
Note_On_95_Vel_0
Note_On_92_Vel_0
Note_On_90_Vel_0
Time_Shift_1
Note_On_88_Vel_0
Note_On_64_Vel_0
Note_On_59_Vel_0
Time_Shift_3
Note_On_52_Vel_0
Time_Shift_7
Note_On_76_Vel_65
Time_Shift_1
Note_On_97_Vel_0
Time_Shift_3
Note_On_52_Vel_46
Time_Shift_2
Note_On_72_Vel_61
Time_Shift_4
Note_On_45_Vel_50
Time_Shift_6
Sustain_On
Time_Shift_116
Note_On_71_Vel_48
Time_Shift_64
Note_On_60_Vel_60
Time_Shift_28
Note_On_69_Vel_56
Time_Shift_74
Note_On_64_Vel_62
Time_Shift_87
Note_On_76_Vel_0
Time_Shift_11
Note_On_76_Vel_72
Time_Shift_4
Note_On_72_Vel_0
Time_Shift_1
Note_On_45_Vel_0
Time_Shift_1
Note_On_64_Vel_0
Note_On_52_Vel_0
Note_On_71_Vel_0
Time_Shift_1
Note_On_69_Vel_0
Note_On_60_Vel_0
Time_Shift_3
Note_On_72_Vel_64
Time_Shift_7
Sustain_Off
Time_Shift_56
Sustain_On
Time_Shift_20
Note_On_71_Vel_69
Time_Shift_49
Note_On_72_Vel_0
Time_Shift_40
Note_On_57_Vel_60
Time_Shift_1
Note_On_69_Vel_71
Time_Shift_80
Note_On_81_Vel_89
Time_Shift_105
Note_On_55_Vel_52
Time_Shift_1
Note_On_48_Vel_55
Time_Shift_3
Note_On_82_Vel_83
Time_Shift_1
Note_On_76_Vel_0
Time_Shift_5
Note_On_76_Vel_60
Time_Shift_14
Note_On_57_Vel_0
Note_On_71_Vel_0
Note_On_81_Vel_0
Time_Shift_1
Note_On_69_Vel_0
Time_Shift_15
Sustain_Off
Time_Shift_48
Note_On_74_Vel_63
Time_Shift_24
Sustain_On
Time_Shift_74
Note_On_64_Vel_50
Time_Shift_1
Note_On_72_Vel_71
Time_Shift_4
Note_On_81_Vel_58
Time_Shift_6
Note_On_81_Vel_0
Time_Shift_86
Note_On_84_Vel_77
Time_Shift_83
Note_On_82_Vel_0
Time_Shift_9
Note_On_82_Vel_83
Time_Shift_2
Note_On_79_Vel_71
Time_Shift_3
Note_On_60_Vel_56
Time_Shift_62
Note_On_48_Vel_0
Time_Shift_16
Note_On_76_Vel_0
Time_Shift_5
Note_On_76_Vel_70
Time_Shift_79
Note_On_72_Vel_0
Time_Shift_5
Note_On_72_Vel_78
Time_Shift_5
Note_On_70_Vel_68
Time_Shift_81
Note_On_91_Vel_96
Time_Shift_91
Note_On_53_Vel_62
Time_Shift_5
Note_On_74_Vel_0
Note_On_64_Vel_0
Time_Shift_1
Note_On_55_Vel_0
Note_On_82_Vel_0
Note_On_60_Vel_0
Note_On_70_Vel_0
Note_On_72_Vel_0
Note_On_79_Vel_0
Note_On_76_Vel_0
Sustain_Off
Time_Shift_1
Note_On_91_Vel_0
Time_Shift_11
Note_On_84_Vel_0
Time_Shift_10
Note_On_84_Vel_79
Time_Shift_12
Note_On_80_Vel_65
Time_Shift_16
Sustain_On
Time_Shift_75
Note_On_79_Vel_68
Time_Shift_75
Note_On_77_Vel_78
Time_Shift_20
Note_On_56_Vel_61
Time_Shift_83
Note_On_72_Vel_72
Time_Shift_70
Note_On_84_Vel_0
Time_Shift_5
Note_On_84_Vel_92
Time_Shift_3
Note_On_80_Vel_0
Time_Shift_11
Note_On_80_Vel_71
Time_Shift_26
Note_On_60_Vel_63
Time_Shift_55
Note_On_79_Vel_0
Time_Shift_8
Note_On_79_Vel_81
Time_Shift_76
Note_On_77_Vel_0
Time_Shift_11
Note_On_77_Vel_82
Time_Shift_36
Note_On_65_Vel_56
Time_Shift_51
Note_On_89_Vel_93
Time_Shift_99
Note_On_87_Vel_87
Time_Shift_28
Note_On_55_Vel_54
Time_Shift_2
Note_On_85_Vel_64
Time_Shift_24
Note_On_72_Vel_0
Note_On_53_Vel_0
Note_On_56_Vel_0
Time_Shift_1
Note_On_84_Vel_0
Note_On_79_Vel_0
Time_Shift_1
Note_On_65_Vel_0
Note_On_77_Vel_0
Note_On_60_Vel_0
Time_Shift_1
Note_On_80_Vel_0
Time_Shift_4
Note_On_89_Vel_0
Time_Shift_2
Sustain_Off
Time_Shift_32
Sustain_On
Time_Shift_23
Note_On_82_Vel_71
Time_Shift_95
Note_On_58_Vel_50
Time_Shift_1
Note_On_75_Vel_59
Time_Shift_89
Note_On_88_Vel_84
Time_Shift_84
Note_On_87_Vel_0
Time_Shift_5
Note_On_87_Vel_82
Time_Shift_3
Note_On_85_Vel_0
Time_Shift_10
Note_On_85_Vel_73
Note_On_63_Vel_57
Time_Shift_66
Note_On_82_Vel_0
Time_Shift_10
Note_On_82_Vel_85
Time_Shift_90
Note_On_75_Vel_0
Time_Shift_4
Note_On_75_Vel_80
Time_Shift_5
Note_On_70_Vel_57
Time_Shift_69
Note_On_86_Vel_87
Time_Shift_106
Note_On_87_Vel_0
Time_Shift_8
Note_On_87_Vel_82
Time_Shift_19
Note_On_56_Vel_45
Time_Shift_1
Note_On_83_Vel_43
Time_Shift_33
Note_On_85_Vel_0
Time_Shift_1
Note_On_75_Vel_0
Sustain_Off
Note_On_55_Vel_0
Time_Shift_1
Note_On_82_Vel_0
Note_On_70_Vel_0
Time_Shift_1
Note_On_58_Vel_0
Note_On_88_Vel_0
Note_On_86_Vel_0
Time_Shift_1
Note_On_63_Vel_0
Time_Shift_35
Sustain_On
Time_Shift_12
Note_On_80_Vel_67
Time_Shift_99
Note_On_75_Vel_71
Time_Shift_7
Note_On_59_Vel_50
Time_Shift_75
Note_On_88_Vel_84
Time_Shift_91
Note_On_83_Vel_0
Note_On_87_Vel_0
Time_Shift_8
Note_On_87_Vel_84
Time_Shift_3
Note_On_83_Vel_78
Time_Shift_31
Note_On_63_Vel_69
Time_Shift_43
Note_On_80_Vel_0
Time_Shift_5
Note_On_80_Vel_87
Time_Shift_95
Note_On_75_Vel_0
Time_Shift_10
Note_On_75_Vel_84
Time_Shift_3
Note_On_68_Vel_60
Time_Shift_6
Note_On_71_Vel_52
Time_Shift_53
Note_On_86_Vel_91
Time_Shift_104
Note_On_87_Vel_0
Time_Shift_5
Note_On_87_Vel_91
Time_Shift_4
Note_On_82_Vel_82
Time_Shift_1
Note_On_58_Vel_74
Time_Shift_10
Note_On_56_Vel_0
Note_On_83_Vel_0
Time_Shift_1
Note_On_68_Vel_0
Time_Shift_1
Note_On_75_Vel_0
Note_On_63_Vel_0
Time_Shift_3
Note_On_80_Vel_0
Time_Shift_1
Note_On_86_Vel_0
Time_Shift_2
Sustain_Off
Time_Shift_3
Note_On_59_Vel_0
Time_Shift_8
Note_On_88_Vel_0
Time_Shift_8
Note_On_71_Vel_0
Sustain_On
Time_Shift_58
Note_On_78_Vel_78
Time_Shift_92
Note_On_75_Vel_81
Time_Shift_4
Note_On_70_Vel_74
Time_Shift_5
Note_On_66_Vel_59
Note_On_63_Vel_70
Time_Shift_63
Note_On_78_Vel_0
Time_Shift_10
Note_On_78_Vel_69
Time_Shift_2
Note_On_90_Vel_90
Time_Shift_88
Note_On_87_Vel_0
Time_Shift_2
Note_On_78_Vel_0
Note_On_58_Vel_0
Note_On_66_Vel_0
Note_On_75_Vel_0
Note_On_63_Vel_0
Time_Shift_1
Note_On_82_Vel_0
Note_On_70_Vel_0
Time_Shift_3
Sustain_Off
Time_Shift_3
Note_On_59_Vel_75
Note_On_81_Vel_86
Note_On_87_Vel_78
Time_Shift_37
Sustain_On
Time_Shift_49
Note_On_78_Vel_88
Time_Shift_91
Note_On_75_Vel_78
Time_Shift_2
Note_On_63_Vel_74
Time_Shift_15
Note_On_66_Vel_48
Time_Shift_15
Note_On_69_Vel_47
Time_Shift_54
Note_On_89_Vel_90
Time_Shift_33
Sustain_Off
Note_On_81_Vel_0
Time_Shift_1
Note_On_78_Vel_0
Note_On_87_Vel_0
Time_Shift_2
Note_On_69_Vel_0
Time_Shift_1
Note_On_66_Vel_0
Time_Shift_1
Note_On_75_Vel_0
Note_On_63_Vel_0
Time_Shift_5
Note_On_59_Vel_0
Note_On_90_Vel_0
Time_Shift_31
Sustain_On
Time_Shift_20
Note_On_86_Vel_84
Time_Shift_3
Note_On_82_Vel_85
Time_Shift_3
Note_On_70_Vel_77
Time_Shift_7
Note_On_58_Vel_68
Time_Shift_2
Note_On_62_Vel_67
Time_Shift_67
Note_On_70_Vel_0
Time_Shift_1
Note_On_86_Vel_0
Note_On_62_Vel_0
Note_On_58_Vel_0
Time_Shift_1
Note_On_89_Vel_0
Note_On_82_Vel_0
Time_Shift_3
Sustain_Off
Time_Shift_135
Note_On_89_Vel_64
Time_Shift_1
Note_On_86_Vel_72
Time_Shift_70
Note_On_86_Vel_0
Time_Shift_11
Note_On_94_Vel_88
Time_Shift_14
Note_On_89_Vel_0
Time_Shift_74
Note_On_90_Vel_83
Time_Shift_1
Note_On_87_Vel_81
Note_On_51_Vel_47
Time_Shift_9
Note_On_94_Vel_0
Time_Shift_28
Note_On_51_Vel_0
Time_Shift_5
Note_On_90_Vel_0
Time_Shift_1
Note_On_87_Vel_0
Time_Shift_39
Note_On_82_Vel_83
Time_Shift_45
Note_On_82_Vel_0
Time_Shift_52
Note_On_66_Vel_81
Note_On_94_Vel_95
Time_Shift_4
Note_On_90_Vel_78
Time_Shift_5
Note_On_58_Vel_79
Time_Shift_2
Note_On_63_Vel_65
Time_Shift_22
Note_On_66_Vel_0
Time_Shift_5
Note_On_58_Vel_0
Time_Shift_5
Note_On_63_Vel_0
Time_Shift_25
Note_On_90_Vel_0
Time_Shift_11
Note_On_99_Vel_94
Time_Shift_12
Note_On_94_Vel_0
Time_Shift_54
Note_On_99_Vel_0
Time_Shift_19
Note_On_44_Vel_90
Time_Shift_4
Note_On_95_Vel_89
Time_Shift_1
Note_On_92_Vel_97
Time_Shift_30
Sustain_On
Time_Shift_23
Note_On_44_Vel_0
Time_Shift_1
Sustain_Off
Time_Shift_35
Note_On_87_Vel_84
Time_Shift_18
Note_On_95_Vel_0
Time_Shift_7
Note_On_92_Vel_0
Time_Shift_54
Note_On_87_Vel_0
Time_Shift_26
Note_On_68_Vel_84
Time_Shift_5
Note_On_59_Vel_74
Note_On_63_Vel_80
Note_On_83_Vel_74
Time_Shift_21
Note_On_68_Vel_0
Time_Shift_4
Note_On_63_Vel_0
Time_Shift_2
Note_On_83_Vel_0
Time_Shift_19
Note_On_59_Vel_0
Time_Shift_33
Note_On_80_Vel_84
Time_Shift_48
Note_On_80_Vel_0
Time_Shift_47
Note_On_89_Vel_80
Time_Shift_3
Note_On_85_Vel_74
Time_Shift_3
Note_On_49_Vel_74
Time_Shift_1
Note_On_61_Vel_73
Time_Shift_25
Note_On_89_Vel_0
Time_Shift_4
Note_On_49_Vel_0
Time_Shift_1
Note_On_85_Vel_0
Time_Shift_11
Note_On_61_Vel_0
Time_Shift_38
Note_On_80_Vel_78
Time_Shift_24
Note_On_80_Vel_0
Time_Shift_68
Note_On_92_Vel_88
Time_Shift_4
Note_On_89_Vel_79
Time_Shift_3
Note_On_65_Vel_73
Time_Shift_1
Note_On_53_Vel_65
Time_Shift_4
Note_On_56_Vel_75
Note_On_61_Vel_79
Time_Shift_4
Note_On_53_Vel_0
Time_Shift_19
Note_On_65_Vel_0
Time_Shift_2
Note_On_89_Vel_0
Note_On_61_Vel_0
Time_Shift_5
Note_On_56_Vel_0
Time_Shift_46
Note_On_97_Vel_94
Time_Shift_5
Note_On_92_Vel_0
Time_Shift_29
Note_On_97_Vel_0
Time_Shift_54
Note_On_42_Vel_91
Note_On_94_Vel_102
Time_Shift_5
Note_On_90_Vel_92
Time_Shift_50
Note_On_42_Vel_0
Time_Shift_30
Note_On_85_Vel_83
Time_Shift_24
Note_On_90_Vel_0
Note_On_94_Vel_0
Time_Shift_23
Note_On_85_Vel_0
Time_Shift_59
Note_On_85_Vel_75
Time_Shift_4
Note_On_82_Vel_77
Time_Shift_2
Note_On_66_Vel_86
Note_On_58_Vel_74
Time_Shift_1
Note_On_61_Vel_68
Time_Shift_23
Note_On_85_Vel_0
Time_Shift_3
Note_On_66_Vel_0
Note_On_82_Vel_0
Time_Shift_5
Note_On_61_Vel_0
Time_Shift_1
Note_On_58_Vel_0
Time_Shift_40
Note_On_78_Vel_76
Time_Shift_50
Note_On_78_Vel_0
Time_Shift_34
Note_On_47_Vel_79
Time_Shift_9
Note_On_87_Vel_74
Time_Shift_2
Note_On_83_Vel_75
Time_Shift_19
Note_On_47_Vel_0
Time_Shift_8
Note_On_83_Vel_0
Time_Shift_3
Note_On_87_Vel_0
Time_Shift_47
Note_On_78_Vel_83
Time_Shift_32
Note_On_78_Vel_0
Time_Shift_71
Note_On_90_Vel_87
Note_On_59_Vel_73
Time_Shift_3
Note_On_63_Vel_76
Time_Shift_1
Note_On_87_Vel_79
Time_Shift_4
Note_On_54_Vel_69
Time_Shift_29
Note_On_59_Vel_0
Time_Shift_1
Note_On_63_Vel_0
Time_Shift_3
Note_On_54_Vel_0
Time_Shift_2
Note_On_87_Vel_0
Time_Shift_9
Note_On_90_Vel_0
Time_Shift_32
Note_On_95_Vel_91
Time_Shift_91
Note_On_56_Vel_72
Time_Shift_3
Note_On_92_Vel_85
Time_Shift_1
Note_On_89_Vel_80
Time_Shift_15
Sustain_On
Time_Shift_64
Note_On_83_Vel_83
Time_Shift_65
Sustain_Off
Time_Shift_1
Note_On_95_Vel_0
Time_Shift_16
Note_On_56_Vel_0
Time_Shift_4
Note_On_68_Vel_83
Time_Shift_3
Note_On_83_Vel_0
Note_On_89_Vel_0
Time_Shift_3
Note_On_56_Vel_79
Time_Shift_3
Note_On_83_Vel_74
Time_Shift_2
Note_On_89_Vel_81
Time_Shift_31
Sustain_On
Time_Shift_59
Note_On_80_Vel_85
Time_Shift_52
Note_On_68_Vel_0
Note_On_83_Vel_0
Time_Shift_1
Note_On_80_Vel_0
Note_On_89_Vel_0
Note_On_56_Vel_0
Sustain_Off
Time_Shift_3
Note_On_92_Vel_0
Time_Shift_20
Note_On_57_Vel_81
Time_Shift_5
Note_On_84_Vel_82
Note_On_45_Vel_74
Time_Shift_1
Note_On_90_Vel_89
Time_Shift_36
Sustain_On
Time_Shift_30
Note_On_57_Vel_0
Time_Shift_18
Note_On_78_Vel_85
Time_Shift_32
Sustain_Off
Time_Shift_2
Note_On_90_Vel_0
Time_Shift_10
Note_On_45_Vel_0
Note_On_84_Vel_0
Note_On_78_Vel_0
Time_Shift_40
Note_On_57_Vel_83
Time_Shift_1
Note_On_69_Vel_92
Time_Shift_5
Sustain_On
Time_Shift_3
Note_On_87_Vel_80
Time_Shift_1
Note_On_84_Vel_74
Time_Shift_79
Note_On_78_Vel_86
Time_Shift_66
Note_On_78_Vel_0
Note_On_87_Vel_0
Time_Shift_1
Note_On_69_Vel_0
Note_On_84_Vel_0
Time_Shift_1
Note_On_57_Vel_0
Time_Shift_5
Sustain_Off
Time_Shift_25
Note_On_70_Vel_103
Time_Shift_1
Note_On_58_Vel_96
Note_On_86_Vel_89
Time_Shift_2
Note_On_82_Vel_93
Time_Shift_26
Note_On_70_Vel_0
Time_Shift_20
Note_On_58_Vel_0
Time_Shift_8
Note_On_82_Vel_0
Time_Shift_8
Note_On_86_Vel_0
Time_Shift_19
Note_On_77_Vel_81
Time_Shift_25
Note_On_77_Vel_0
Time_Shift_74
Note_On_77_Vel_76
Note_On_70_Vel_81
Time_Shift_81
Note_On_70_Vel_0
Time_Shift_3
Note_On_68_Vel_73
Time_Shift_1
Note_On_70_Vel_77
Time_Shift_27
Note_On_77_Vel_0
Time_Shift_4
Note_On_70_Vel_0
Time_Shift_11
Note_On_68_Vel_0
Time_Shift_47
Note_On_78_Vel_80
Time_Shift_1
Note_On_87_Vel_80
Time_Shift_2
Note_On_75_Vel_83
Note_On_66_Vel_73
Time_Shift_27
Note_On_78_Vel_0
Time_Shift_2
Note_On_87_Vel_0
Time_Shift_1
Note_On_66_Vel_0
Time_Shift_28
Note_On_75_Vel_0
Time_Shift_27
Note_On_65_Vel_73
Note_On_70_Vel_84
Time_Shift_57
Note_On_65_Vel_0
Time_Shift_5
Note_On_70_Vel_0
Time_Shift_25
Note_On_63_Vel_83
Time_Shift_1
Note_On_82_Vel_86
Time_Shift_3
Note_On_78_Vel_72
Time_Shift_37
Note_On_78_Vel_0
Time_Shift_45
Note_On_63_Vel_0
Time_Shift_1
Note_On_61_Vel_81
Time_Shift_2
Note_On_87_Vel_85
Time_Shift_7
Note_On_82_Vel_0
Time_Shift_41
Note_On_87_Vel_0
Time_Shift_21
Note_On_61_Vel_0
Time_Shift_15
Note_On_59_Vel_83
Time_Shift_1
Note_On_83_Vel_80
Note_On_80_Vel_76
Time_Shift_46
Note_On_80_Vel_0
Time_Shift_7
Note_On_83_Vel_0
Time_Shift_16
Note_On_59_Vel_0
Time_Shift_13
Note_On_75_Vel_79
Time_Shift_1
Note_On_58_Vel_74
Time_Shift_74
Note_On_75_Vel_0
Time_Shift_4
Note_On_75_Vel_84
Time_Shift_7
Note_On_56_Vel_79
Time_Shift_1
Note_On_71_Vel_62
Time_Shift_13
Note_On_58_Vel_0
Time_Shift_39
Note_On_71_Vel_0
Note_On_75_Vel_0
Time_Shift_30
Note_On_68_Vel_83
Time_Shift_5
Note_On_76_Vel_65
Time_Shift_4
Note_On_54_Vel_81
Time_Shift_5
Note_On_76_Vel_0
Time_Shift_6
Note_On_56_Vel_0
Time_Shift_20
Note_On_68_Vel_0
Time_Shift_32
Note_On_54_Vel_0
Time_Shift_21
Note_On_73_Vel_78
Time_Shift_2
Note_On_53_Vel_83
Note_On_77_Vel_73
Time_Shift_23
Note_On_73_Vel_0
Time_Shift_26
Note_On_77_Vel_0
Time_Shift_20
Note_On_53_Vel_0
Time_Shift_10
Note_On_68_Vel_76
Time_Shift_6
Note_On_51_Vel_74
Time_Shift_56
Note_On_68_Vel_0
Time_Shift_5
Note_On_51_Vel_0
Time_Shift_23
Note_On_77_Vel_79
Note_On_80_Vel_86
Time_Shift_8
Note_On_49_Vel_78
Time_Shift_19
Note_On_77_Vel_0
Time_Shift_44
Note_On_80_Vel_0
Time_Shift_5
Note_On_49_Vel_0
Time_Shift_5
Note_On_85_Vel_86
Time_Shift_21
Note_On_47_Vel_81
Time_Shift_68
Note_On_78_Vel_86
Time_Shift_3
Note_On_82_Vel_86
Time_Shift_3
Note_On_47_Vel_0
Time_Shift_2
Note_On_85_Vel_0
Time_Shift_11
Note_On_46_Vel_80
Time_Shift_14
Note_On_78_Vel_0
Time_Shift_39
Note_On_82_Vel_0
Time_Shift_14
Note_On_73_Vel_86
Time_Shift_12
Note_On_46_Vel_0
Time_Shift_7
Note_On_44_Vel_81
Time_Shift_35
Note_On_73_Vel_0
Time_Shift_37
Note_On_44_Vel_0
Time_Shift_6
Note_On_73_Vel_74
Time_Shift_1
Note_On_42_Vel_79
Note_On_70_Vel_76
Time_Shift_33
Note_On_70_Vel_0
Time_Shift_16
Note_On_73_Vel_0
Time_Shift_20
Note_On_42_Vel_0
Time_Shift_8
Note_On_66_Vel_84
Time_Shift_7
Note_On_41_Vel_76
Time_Shift_36
Note_On_66_Vel_0
Time_Shift_33
Note_On_41_Vel_0
Time_Shift_15
Note_On_39_Vel_79
Time_Shift_5
Note_On_75_Vel_86
Time_Shift_3
Note_On_71_Vel_76
Time_Shift_31
Note_On_71_Vel_0
Time_Shift_5
Note_On_75_Vel_0
Time_Shift_43
Note_On_66_Vel_84
Time_Shift_1
Note_On_37_Vel_78
Time_Shift_12
Note_On_39_Vel_0
Time_Shift_20
Note_On_66_Vel_0
Time_Shift_6
Note_On_37_Vel_0
Time_Shift_36
Note_On_35_Vel_77
Time_Shift_14
Note_On_78_Vel_91
Time_Shift_1
Note_On_75_Vel_87
Time_Shift_23
Note_On_35_Vel_0
Time_Shift_12
Note_On_78_Vel_0
Time_Shift_3
Note_On_75_Vel_0
Time_Shift_49
Note_On_34_Vel_66
Note_On_83_Vel_97
Time_Shift_89
Note_On_80_Vel_92
Time_Shift_3
Note_On_32_Vel_67
Time_Shift_1
Note_On_77_Vel_87
Time_Shift_13
Note_On_83_Vel_0
Time_Shift_14
Note_On_77_Vel_0
Time_Shift_14
Note_On_80_Vel_0
Time_Shift_5
Note_On_34_Vel_0
Time_Shift_34
Note_On_31_Vel_72
Time_Shift_1
Note_On_71_Vel_86
Time_Shift_22
Note_On_71_Vel_0
Time_Shift_10
Note_On_32_Vel_0
Time_Shift_2
Note_On_31_Vel_0
Time_Shift_54
Note_On_77_Vel_82
Time_Shift_4
Note_On_32_Vel_76
Time_Shift_24
Note_On_77_Vel_0
Time_Shift_54
Note_On_68_Vel_83
Time_Shift_4
Note_On_71_Vel_65
Time_Shift_1
Note_On_44_Vel_71
Time_Shift_32
Note_On_68_Vel_0
Time_Shift_1
Note_On_44_Vel_0
Time_Shift_10
Note_On_32_Vel_0
Time_Shift_11
Note_On_71_Vel_0
Time_Shift_34
Note_On_78_Vel_88
Time_Shift_2
Note_On_33_Vel_69
Time_Shift_3
Note_On_72_Vel_78
Time_Shift_30
Note_On_78_Vel_0
Note_On_72_Vel_0
Time_Shift_20
Note_On_33_Vel_0
Time_Shift_40
Note_On_66_Vel_78
Note_On_32_Vel_68
Time_Shift_31
Note_On_66_Vel_0
Time_Shift_10
Note_On_32_Vel_0
Time_Shift_53
Note_On_75_Vel_80
Note_On_72_Vel_75
Time_Shift_4
Note_On_32_Vel_61
Time_Shift_27
Note_On_75_Vel_0
Note_On_72_Vel_0
Time_Shift_12
Note_On_32_Vel_0
Time_Shift_41
Note_On_45_Vel_71
Time_Shift_1
Note_On_66_Vel_76
Time_Shift_50
Note_On_66_Vel_0
Time_Shift_8
Note_On_45_Vel_0
Time_Shift_37
Note_On_74_Vel_72
Time_Shift_6
Note_On_46_Vel_64
Time_Shift_2
Note_On_65_Vel_65
Time_Shift_2
Note_On_70_Vel_68
Time_Shift_2
Note_On_72_Vel_63
Time_Shift_22
Note_On_65_Vel_0
Time_Shift_8
Note_On_46_Vel_0
Note_On_74_Vel_0
Time_Shift_1
Note_On_70_Vel_0
Time_Shift_4
Note_On_72_Vel_0
Time_Shift_82
Note_On_34_Vel_67
Time_Shift_21
Note_On_72_Vel_44
Time_Shift_86
Note_On_34_Vel_0
Time_Shift_7
Note_On_70_Vel_71
Time_Shift_34
Sustain_On
Time_Shift_9
Note_On_36_Vel_50
Time_Shift_82
Note_On_38_Vel_60
Time_Shift_94
Note_On_70_Vel_0
Time_Shift_6
Note_On_70_Vel_73
Time_Shift_5
Note_On_39_Vel_59
Time_Shift_14
Note_On_63_Vel_59
Time_Shift_1
Note_On_66_Vel_52
Time_Shift_51
Note_On_72_Vel_0
Time_Shift_10
Sustain_Off
Time_Shift_13
Note_On_36_Vel_0
Time_Shift_4
Note_On_38_Vel_0
Time_Shift_6
Note_On_39_Vel_0
Time_Shift_16
Note_On_41_Vel_66
Time_Shift_8
Note_On_60_Vel_50
Time_Shift_4
Note_On_60_Vel_0
Sustain_On
Time_Shift_76
Note_On_42_Vel_75
Time_Shift_89
Note_On_45_Vel_72
Time_Shift_1
Note_On_72_Vel_83
Time_Shift_110
Note_On_70_Vel_0
Time_Shift_3
Note_On_73_Vel_86
Time_Shift_4
Note_On_46_Vel_68
Time_Shift_4
Note_On_70_Vel_70
Time_Shift_1
Note_On_65_Vel_57
Time_Shift_7
Note_On_61_Vel_58
Time_Shift_91
Note_On_66_Vel_0
Time_Shift_1
Note_On_41_Vel_0
Note_On_46_Vel_0
Time_Shift_1
Note_On_72_Vel_0
Sustain_Off
Note_On_42_Vel_0
Time_Shift_1
Note_On_63_Vel_0
Time_Shift_3
Note_On_45_Vel_0
Time_Shift_5
Note_On_45_Vel_68
Time_Shift_56
Sustain_On
Time_Shift_63
Note_On_46_Vel_80
Time_Shift_88
Note_On_58_Vel_71
Time_Shift_18
Note_On_45_Vel_0
Time_Shift_81
Note_On_75_Vel_88
Time_Shift_7
Note_On_63_Vel_78
Time_Shift_1
Note_On_60_Vel_69
Time_Shift_1
Note_On_72_Vel_63
Time_Shift_5
Note_On_58_Vel_0
Time_Shift_3
Note_On_73_Vel_0
Time_Shift_2
Sustain_Off
Time_Shift_15
Note_On_61_Vel_0
Note_On_65_Vel_0
Time_Shift_16
Note_On_70_Vel_0
Time_Shift_7
Sustain_On
Time_Shift_43
Note_On_48_Vel_75
Time_Shift_88
Note_On_60_Vel_0
Time_Shift_4
Note_On_77_Vel_97
Time_Shift_7
Note_On_65_Vel_83
Time_Shift_1
Note_On_49_Vel_77
Time_Shift_1
Note_On_70_Vel_72
Time_Shift_5
Sustain_Off
Time_Shift_1
Note_On_75_Vel_0
Time_Shift_1
Note_On_48_Vel_0
Time_Shift_11
Note_On_63_Vel_0
Time_Shift_7
Note_On_46_Vel_0
Time_Shift_8
Note_On_72_Vel_0
Time_Shift_46
Sustain_On
Time_Shift_24
Note_On_61_Vel_76
Time_Shift_102
Note_On_78_Vel_92
Time_Shift_7
Note_On_51_Vel_70
Time_Shift_5
Note_On_70_Vel_0
Time_Shift_7
Note_On_66_Vel_71
Time_Shift_3
Note_On_70_Vel_61
Time_Shift_10
Sustain_Off
Time_Shift_2
Note_On_61_Vel_0
Time_Shift_1
Note_On_65_Vel_0
Time_Shift_2
Note_On_77_Vel_0
Note_On_49_Vel_0
Time_Shift_67
Sustain_On
Time_Shift_9
Note_On_51_Vel_0
Time_Shift_3
Note_On_63_Vel_74
Time_Shift_78
Note_On_63_Vel_0
Time_Shift_7
Note_On_66_Vel_0
Time_Shift_11
Sustain_Off
Time_Shift_3
Note_On_72_Vel_70
Time_Shift_5
Note_On_62_Vel_67
Time_Shift_76
Sustain_On
Time_Shift_17
Note_On_63_Vel_78
Time_Shift_87
Sustain_Off
Time_Shift_6
Note_On_62_Vel_0
Time_Shift_1
Note_On_78_Vel_0
Time_Shift_3
Note_On_77_Vel_83
Time_Shift_2
Note_On_72_Vel_0
Time_Shift_2
Note_On_63_Vel_0
Time_Shift_1
Note_On_65_Vel_69
Time_Shift_6
Note_On_72_Vel_59
Time_Shift_2
Note_On_69_Vel_64
Time_Shift_19
Note_On_70_Vel_0
Time_Shift_20
Note_On_65_Vel_0
Time_Shift_26
Sustain_On
Time_Shift_13
Note_On_53_Vel_72
Time_Shift_95
Note_On_70_Vel_76
Time_Shift_2
Note_On_55_Vel_67
Time_Shift_96
Note_On_57_Vel_66
Time_Shift_2
Note_On_72_Vel_0
Time_Shift_4
Note_On_65_Vel_65
Time_Shift_1
Note_On_75_Vel_74
Time_Shift_4
Note_On_72_Vel_64
Time_Shift_33
Note_On_70_Vel_0
Time_Shift_4
Note_On_69_Vel_0
Time_Shift_1
Note_On_77_Vel_0
Time_Shift_1
Note_On_55_Vel_0
Time_Shift_1
Note_On_53_Vel_0
Time_Shift_7
Sustain_Off
Time_Shift_1
Note_On_57_Vel_0
Time_Shift_27
Note_On_65_Vel_0
Time_Shift_22
Note_On_73_Vel_76
Time_Shift_8
Note_On_58_Vel_60
Time_Shift_1
Sustain_On
Time_Shift_2
Note_On_70_Vel_61
Time_Shift_7
Note_On_65_Vel_63
Time_Shift_91
Note_On_56_Vel_69
Time_Shift_8
Note_On_75_Vel_0
Time_Shift_49
Sustain_Off
Time_Shift_2
Note_On_56_Vel_0
Time_Shift_13
Note_On_65_Vel_0
Time_Shift_9
Note_On_55_Vel_65
Time_Shift_1
Note_On_64_Vel_68
Time_Shift_56
Note_On_58_Vel_0
Time_Shift_17
Note_On_55_Vel_0
Time_Shift_9
Note_On_53_Vel_74
Time_Shift_51
Note_On_72_Vel_0
Time_Shift_47
Note_On_53_Vel_0
Time_Shift_3
Note_On_52_Vel_67
Time_Shift_1
Note_On_72_Vel_76
Time_Shift_14
Note_On_67_Vel_53
Time_Shift_30
Note_On_52_Vel_0
Time_Shift_5
Note_On_73_Vel_0
Time_Shift_7
Note_On_70_Vel_0
Time_Shift_43
Note_On_48_Vel_63
Time_Shift_52
Note_On_48_Vel_0
Time_Shift_50
Note_On_40_Vel_58
Time_Shift_4
Note_On_70_Vel_73
Time_Shift_75
Note_On_40_Vel_0
Time_Shift_13
Note_On_72_Vel_0
Time_Shift_3
Note_On_36_Vel_59
Time_Shift_101
Note_On_41_Vel_62
Time_Shift_5
Note_On_68_Vel_67
Note_On_64_Vel_0
Time_Shift_8
Note_On_67_Vel_0
Time_Shift_16
Note_On_70_Vel_0
Time_Shift_76
Note_On_41_Vel_0
Time_Shift_10
Note_On_41_Vel_61
Time_Shift_13
Note_On_36_Vel_0
Time_Shift_18
Note_On_48_Vel_46
Time_Shift_24
Note_On_68_Vel_0
Time_Shift_39
Note_On_65_Vel_80
Time_Shift_6
Note_On_41_Vel_0
Time_Shift_1
Note_On_48_Vel_0
Time_Shift_16
Note_On_43_Vel_62
Time_Shift_42
Sustain_On
Time_Shift_63
Note_On_44_Vel_67
Time_Shift_103
Note_On_46_Vel_67
Time_Shift_3
Note_On_65_Vel_0
Time_Shift_3
Note_On_43_Vel_0
Time_Shift_2
Note_On_58_Vel_66
Time_Shift_5
Note_On_65_Vel_70
Time_Shift_3
Sustain_Off
Time_Shift_7
Note_On_61_Vel_64
Time_Shift_80
Sustain_On
Time_Shift_1
Note_On_48_Vel_69
Time_Shift_86
Note_On_49_Vel_71
Time_Shift_59
Note_On_44_Vel_0
Time_Shift_43
Note_On_52_Vel_71
Time_Shift_4
Note_On_67_Vel_72
Time_Shift_91
Note_On_46_Vel_0
Time_Shift_4
Note_On_48_Vel_0
Time_Shift_1
Note_On_49_Vel_0
Time_Shift_1
Note_On_52_Vel_0
Time_Shift_2
Sustain_Off
Time_Shift_3
Note_On_68_Vel_78
Time_Shift_7
Note_On_53_Vel_73
Note_On_60_Vel_62
Time_Shift_1
Note_On_56_Vel_73
Time_Shift_4
Note_On_58_Vel_0
Time_Shift_7
Note_On_61_Vel_0
Time_Shift_24
Note_On_67_Vel_0
Time_Shift_61
Sustain_On
Time_Shift_4
Note_On_52_Vel_71
Time_Shift_4
Note_On_65_Vel_0
Time_Shift_23
Note_On_53_Vel_0
Time_Shift_65
Note_On_53_Vel_76
Time_Shift_7
Note_On_65_Vel_70
Time_Shift_67
Note_On_41_Vel_76
Time_Shift_76
Note_On_52_Vel_0
Time_Shift_1
Note_On_60_Vel_0
Time_Shift_1
Note_On_53_Vel_0
Note_On_41_Vel_0
Note_On_56_Vel_0
Time_Shift_1
Note_On_68_Vel_0
Time_Shift_1
Note_On_65_Vel_0
Time_Shift_6
Sustain_Off
Time_Shift_31
Note_On_70_Vel_87
Time_Shift_4
Note_On_43_Vel_68
Time_Shift_2
Note_On_58_Vel_71
Time_Shift_37
Sustain_On
Time_Shift_51
Note_On_55_Vel_71
Time_Shift_87
Sustain_Off
Note_On_58_Vel_0
Time_Shift_2
Note_On_55_Vel_0
Time_Shift_1
Note_On_43_Vel_0
Time_Shift_1
Note_On_70_Vel_0
Time_Shift_3
Note_On_72_Vel_93
Time_Shift_5
Note_On_60_Vel_77
Time_Shift_1
Note_On_44_Vel_73
Time_Shift_2
Note_On_56_Vel_71
Time_Shift_1
Note_On_65_Vel_69
Time_Shift_7
Note_On_44_Vel_0
Time_Shift_39
Sustain_On
Time_Shift_45
Note_On_44_Vel_74
Time_Shift_104
Note_On_46_Vel_68
Time_Shift_12
Note_On_56_Vel_0
Time_Shift_5
Note_On_44_Vel_0
Time_Shift_1
Note_On_60_Vel_0
Time_Shift_1
Note_On_73_Vel_86
Time_Shift_8
Note_On_67_Vel_60
Time_Shift_2
Note_On_72_Vel_0
Time_Shift_1
Note_On_61_Vel_73
Time_Shift_1
Sustain_Off
Time_Shift_88
Note_On_58_Vel_71
Time_Shift_54
Sustain_On
Time_Shift_38
Note_On_57_Vel_67
Time_Shift_16
Note_On_46_Vel_0
Time_Shift_85
Note_On_58_Vel_0
Time_Shift_4
Note_On_58_Vel_64
Time_Shift_100
Note_On_60_Vel_70
Time_Shift_3
Note_On_65_Vel_0
Time_Shift_2
Note_On_72_Vel_79
Time_Shift_6
Note_On_64_Vel_53
Time_Shift_11
Note_On_67_Vel_0
Time_Shift_1
Note_On_58_Vel_0
Note_On_61_Vel_0
Time_Shift_1
Note_On_57_Vel_0
Time_Shift_6
Sustain_Off
Note_On_73_Vel_0
Time_Shift_73
Note_On_48_Vel_66
Time_Shift_8
Sustain_On
Time_Shift_97
Note_On_50_Vel_64
Time_Shift_6
Note_On_65_Vel_58
Time_Shift_81
Note_On_60_Vel_0
Time_Shift_3
Note_On_52_Vel_64
Time_Shift_5
Note_On_70_Vel_77
Time_Shift_3
Note_On_60_Vel_68
Time_Shift_100
Note_On_72_Vel_0
Time_Shift_2
Note_On_48_Vel_0
Time_Shift_1
Note_On_50_Vel_0
Time_Shift_1
Note_On_52_Vel_0
Time_Shift_7
Sustain_Off
Time_Shift_6
Note_On_53_Vel_67
Time_Shift_6
Note_On_68_Vel_71
Time_Shift_9
Note_On_70_Vel_0
Time_Shift_3
Note_On_65_Vel_0
Time_Shift_5
Note_On_65_Vel_51
Time_Shift_3
Note_On_64_Vel_0
Time_Shift_35
Note_On_53_Vel_0
Time_Shift_3
Sustain_On
Time_Shift_40
Note_On_51_Vel_62
Time_Shift_62
Note_On_51_Vel_0
Time_Shift_13
Sustain_Off
Time_Shift_31
Note_On_60_Vel_0
Note_On_50_Vel_63
Time_Shift_1
Note_On_59_Vel_66
Time_Shift_30
Note_On_65_Vel_0
Time_Shift_23
Sustain_On
Time_Shift_25
Note_On_48_Vel_71
Time_Shift_1
Note_On_60_Vel_65
Time_Shift_99
Note_On_48_Vel_0
Time_Shift_1
Note_On_47_Vel_66
Time_Shift_2
Note_On_67_Vel_66
Time_Shift_5
Sustain_Off
Time_Shift_5
Note_On_62_Vel_57
Note_On_68_Vel_0
Time_Shift_15
Note_On_50_Vel_0
Time_Shift_31
Note_On_59_Vel_0
Time_Shift_10
Note_On_47_Vel_0
Time_Shift_29
Note_On_43_Vel_65
Time_Shift_80
Note_On_43_Vel_0
Time_Shift_20
Note_On_35_Vel_47
Time_Shift_3
Note_On_65_Vel_72
Time_Shift_4
Note_On_62_Vel_0
Time_Shift_8
Note_On_62_Vel_43
Time_Shift_69
Note_On_35_Vel_0
Time_Shift_21
Note_On_31_Vel_55
Time_Shift_33
Sustain_On
Time_Shift_38
Note_On_60_Vel_0
Time_Shift_22
Note_On_63_Vel_74
Time_Shift_4
Note_On_36_Vel_58
Time_Shift_12
Note_On_67_Vel_0
Time_Shift_72
Note_On_65_Vel_0
Time_Shift_4
Note_On_63_Vel_0
Time_Shift_1
Note_On_31_Vel_0
Time_Shift_3
Sustain_Off
Time_Shift_5
Note_On_62_Vel_0
Time_Shift_7
Note_On_36_Vel_0
Time_Shift_12
Note_On_36_Vel_54
Time_Shift_69
Note_On_60_Vel_79
Time_Shift_22
Note_On_38_Vel_61
Time_Shift_5
Sustain_On
Time_Shift_80
Note_On_39_Vel_75
Time_Shift_97
Note_On_60_Vel_0
Time_Shift_3
Note_On_41_Vel_77
Time_Shift_1
Note_On_60_Vel_85
Time_Shift_6
Note_On_56_Vel_79
Time_Shift_1
Note_On_53_Vel_73
Time_Shift_6
Note_On_36_Vel_0
Time_Shift_2
Note_On_38_Vel_0
Time_Shift_9
Note_On_39_Vel_0
Time_Shift_1
Sustain_Off
Time_Shift_65
Note_On_43_Vel_75
Time_Shift_5
Sustain_On
Time_Shift_39
Note_On_41_Vel_0
Time_Shift_42
Note_On_44_Vel_82
Time_Shift_88
Note_On_62_Vel_85
Time_Shift_1
Note_On_47_Vel_82
Time_Shift_88
Note_On_56_Vel_0
Time_Shift_1
Note_On_63_Vel_91
Time_Shift_1
Note_On_44_Vel_0
Time_Shift_2
Note_On_53_Vel_0
Note_On_47_Vel_0
Time_Shift_1
Note_On_43_Vel_0
Time_Shift_2
Note_On_62_Vel_0
Note_On_48_Vel_89
Time_Shift_1
Note_On_51_Vel_84
Sustain_Off
Time_Shift_26
Note_On_60_Vel_0
Time_Shift_31
Sustain_On
Time_Shift_31
Note_On_48_Vel_0
Time_Shift_11
Note_On_48_Vel_85
Time_Shift_76
Note_On_51_Vel_0
Time_Shift_1
Note_On_63_Vel_0
Time_Shift_3
Sustain_Off
Time_Shift_13
Note_On_50_Vel_84
Note_On_60_Vel_93
Time_Shift_26
Sustain_On
Time_Shift_64
Note_On_51_Vel_91
Time_Shift_108
Note_On_53_Vel_90
Time_Shift_6
Note_On_72_Vel_94
Time_Shift_2
Note_On_68_Vel_91
Note_On_65_Vel_86
Time_Shift_8
Note_On_60_Vel_0
Time_Shift_2
Note_On_51_Vel_0
Note_On_50_Vel_0
Time_Shift_7
Sustain_Off
Time_Shift_11
Note_On_48_Vel_0
Time_Shift_46
Sustain_On
Time_Shift_3
Note_On_55_Vel_90
Time_Shift_95
Note_On_56_Vel_95
Time_Shift_85
Note_On_74_Vel_85
Time_Shift_3
Note_On_59_Vel_92
Time_Shift_58
Note_On_56_Vel_0
Time_Shift_1
Note_On_53_Vel_0
Note_On_55_Vel_0
Time_Shift_1
Note_On_72_Vel_0
Note_On_68_Vel_0
Time_Shift_1
Note_On_65_Vel_0
Time_Shift_4
Note_On_74_Vel_0
Time_Shift_1
Sustain_Off
Time_Shift_3
Note_On_59_Vel_0
Time_Shift_27
Note_On_75_Vel_100
Time_Shift_5
Note_On_60_Vel_103
Time_Shift_2
Note_On_67_Vel_84
Note_On_63_Vel_94
Time_Shift_41
Sustain_On
Time_Shift_67
Note_On_56_Vel_60
Time_Shift_10
Note_On_56_Vel_0
Time_Shift_34
Sustain_Off
Note_On_67_Vel_0
Time_Shift_1
Note_On_75_Vel_0
Time_Shift_1
Note_On_63_Vel_0
Time_Shift_10
Note_On_60_Vel_0
Time_Shift_21
Note_On_74_Vel_92
Time_Shift_1
Note_On_62_Vel_90
Time_Shift_3
Note_On_72_Vel_87
Time_Shift_29
Sustain_On
Time_Shift_50
Note_On_50_Vel_80
Time_Shift_2
Note_On_78_Vel_98
Time_Shift_96
Note_On_79_Vel_98
Time_Shift_5
Sustain_Off
Time_Shift_1
Note_On_71_Vel_82
Time_Shift_1
Note_On_55_Vel_80
Note_On_62_Vel_0
Time_Shift_3
Note_On_74_Vel_0
Time_Shift_3
Note_On_50_Vel_0
Note_On_72_Vel_0
Time_Shift_1
Note_On_78_Vel_0
Time_Shift_33
Note_On_71_Vel_0
Time_Shift_20
Sustain_On
Time_Shift_10
Note_On_67_Vel_77
Time_Shift_4
Note_On_74_Vel_91
Time_Shift_3
Note_On_50_Vel_66
Time_Shift_94
Note_On_60_Vel_86
Time_Shift_5
Note_On_72_Vel_88
Time_Shift_9
Note_On_70_Vel_86
Time_Shift_63
Note_On_48_Vel_80
Time_Shift_15
Note_On_76_Vel_82
Time_Shift_42
Note_On_55_Vel_0
Time_Shift_4
Note_On_50_Vel_0
Time_Shift_1
Note_On_74_Vel_0
Time_Shift_1
Note_On_72_Vel_0
Time_Shift_2
Note_On_70_Vel_0
Time_Shift_3
Note_On_79_Vel_0
Time_Shift_2
Note_On_60_Vel_0
Time_Shift_6
Note_On_48_Vel_0
Time_Shift_2
Note_On_76_Vel_0
Time_Shift_2
Note_On_67_Vel_0
Time_Shift_2
Sustain_Off
Time_Shift_23
Note_On_77_Vel_85
Time_Shift_1
Note_On_53_Vel_83
Time_Shift_1
Note_On_69_Vel_82
Time_Shift_50
Sustain_On
Time_Shift_31
Note_On_53_Vel_0
Time_Shift_4
Note_On_72_Vel_86
Time_Shift_3
Note_On_53_Vel_71
Time_Shift_85
Note_On_69_Vel_0
Time_Shift_2
Note_On_71_Vel_76
Time_Shift_1
Note_On_59_Vel_78
Time_Shift_2
Note_On_69_Vel_72
Time_Shift_72
Note_On_69_Vel_0
Time_Shift_6
Note_On_47_Vel_73
Time_Shift_2
Note_On_75_Vel_83
Time_Shift_2
Note_On_69_Vel_70
Time_Shift_82
Note_On_76_Vel_75
Time_Shift_9
Note_On_68_Vel_70
Time_Shift_25
Note_On_52_Vel_66
Time_Shift_58
Note_On_71_Vel_0
Time_Shift_5
Note_On_71_Vel_77
Time_Shift_5
Note_On_64_Vel_59
Time_Shift_6
Note_On_64_Vel_0
Note_On_72_Vel_0
Time_Shift_21
Sustain_Off
Time_Shift_63
Note_On_69_Vel_0
Time_Shift_9
Note_On_69_Vel_66
Time_Shift_1
Note_On_57_Vel_72
Note_On_67_Vel_67
Time_Shift_5
Note_On_53_Vel_0
Time_Shift_39
Note_On_59_Vel_0
Time_Shift_8
Note_On_68_Vel_0
Note_On_75_Vel_0
Note_On_77_Vel_0
Time_Shift_15
Note_On_47_Vel_0
Time_Shift_1
Note_On_67_Vel_0
Time_Shift_7
Note_On_52_Vel_0
Time_Shift_18
Note_On_45_Vel_63
Note_On_73_Vel_71
Time_Shift_66
Note_On_57_Vel_0
Time_Shift_20
Note_On_50_Vel_62
Time_Shift_5
Note_On_74_Vel_65
Time_Shift_9
Note_On_65_Vel_59
Time_Shift_4
Note_On_71_Vel_0
Time_Shift_62
Note_On_45_Vel_0
Time_Shift_15
Note_On_73_Vel_0
Time_Shift_4
Note_On_65_Vel_0
Time_Shift_7
Note_On_74_Vel_0
Time_Shift_5
Note_On_69_Vel_0
Note_On_72_Vel_55
Time_Shift_2
Note_On_38_Vel_65
Time_Shift_28
Note_On_50_Vel_0
Note_On_76_Vel_0
Time_Shift_23
Note_On_38_Vel_0
Time_Shift_16
Sustain_On
Time_Shift_12
Note_On_74_Vel_66
Time_Shift_15
Note_On_40_Vel_64
Time_Shift_75
Note_On_41_Vel_69
Time_Shift_85
Note_On_43_Vel_78
Time_Shift_12
Note_On_74_Vel_0
Time_Shift_4
Note_On_74_Vel_72
Time_Shift_24
Note_On_67_Vel_53
Time_Shift_3
Note_On_70_Vel_63
Time_Shift_13
Sustain_Off
Time_Shift_10
Note_On_40_Vel_0
Time_Shift_4
Note_On_41_Vel_0
Time_Shift_17
Note_On_43_Vel_0
Time_Shift_9
Note_On_45_Vel_66
Time_Shift_9
Note_On_72_Vel_0
Time_Shift_30
Sustain_On
Time_Shift_42
Note_On_46_Vel_83
Time_Shift_84
Note_On_49_Vel_84
Time_Shift_22
Note_On_73_Vel_66
Time_Shift_3
Note_On_76_Vel_88
Time_Shift_69
Note_On_50_Vel_84
Time_Shift_14
Note_On_77_Vel_91
Time_Shift_6
Note_On_69_Vel_76
Time_Shift_17
Note_On_65_Vel_78
Time_Shift_40
Sustain_Off
Time_Shift_3
Note_On_49_Vel_0
Time_Shift_1
Note_On_73_Vel_0
Note_On_70_Vel_0
Time_Shift_2
Note_On_67_Vel_0
Note_On_45_Vel_0
Note_On_76_Vel_0
Time_Shift_1
Note_On_46_Vel_0
Time_Shift_11
Note_On_50_Vel_0
Note_On_74_Vel_0
Time_Shift_5
Note_On_50_Vel_87
Time_Shift_34
Sustain_On
Time_Shift_58
Note_On_52_Vel_85
Time_Shift_11
Note_On_50_Vel_0
Time_Shift_2
Note_On_74_Vel_95
Time_Shift_4
Note_On_50_Vel_67
Time_Shift_82
Note_On_53_Vel_91
Time_Shift_88
Note_On_74_Vel_0
Time_Shift_5
Note_On_55_Vel_95
Time_Shift_3
Note_On_74_Vel_101
Time_Shift_6
Note_On_67_Vel_89
Time_Shift_2
Note_On_70_Vel_92
Time_Shift_23
Note_On_65_Vel_0
Time_Shift_1
Note_On_77_Vel_0
Sustain_Off
Time_Shift_1
Note_On_50_Vel_0
Note_On_52_Vel_0
Note_On_53_Vel_0
Time_Shift_13
Note_On_69_Vel_0
Time_Shift_40
Note_On_57_Vel_88
Time_Shift_6
Sustain_On
Time_Shift_82
Note_On_58_Vel_96
Time_Shift_84
Note_On_61_Vel_93
Time_Shift_5
Note_On_76_Vel_89
Time_Shift_70
Note_On_67_Vel_0
Note_On_58_Vel_0
Time_Shift_1
Note_On_57_Vel_0
Note_On_70_Vel_0
Note_On_76_Vel_0
Note_On_55_Vel_0
Time_Shift_1
Note_On_61_Vel_0
Time_Shift_1
Sustain_Off
Time_Shift_15
Note_On_77_Vel_105
Time_Shift_1
Note_On_62_Vel_100
Time_Shift_2
Note_On_69_Vel_100
Time_Shift_3
Note_On_65_Vel_97
Time_Shift_42
Sustain_On
Time_Shift_132
Note_On_69_Vel_0
Sustain_Off
Time_Shift_1
Note_On_77_Vel_0
Note_On_62_Vel_0
Time_Shift_2
Note_On_65_Vel_0
Time_Shift_11
Note_On_74_Vel_0
Time_Shift_4
Note_On_64_Vel_83
Time_Shift_1
Note_On_76_Vel_88
Note_On_74_Vel_81
Time_Shift_18
Sustain_On
Time_Shift_54
Note_On_80_Vel_97
Note_On_52_Vel_82
Time_Shift_89
Note_On_81_Vel_98
Time_Shift_4
Note_On_73_Vel_93
Time_Shift_18
Note_On_57_Vel_89
Time_Shift_3
Note_On_80_Vel_0
Time_Shift_4
Note_On_74_Vel_0
Time_Shift_9
Note_On_52_Vel_0
Time_Shift_2
Sustain_Off
Time_Shift_2
Note_On_64_Vel_0
Time_Shift_38
Note_On_76_Vel_0
Time_Shift_8
Sustain_On
Time_Shift_2
Note_On_76_Vel_89
Note_On_69_Vel_81
Time_Shift_90
Note_On_74_Vel_87
Time_Shift_4
Note_On_62_Vel_79
Time_Shift_1
Note_On_72_Vel_82
Time_Shift_72
Note_On_69_Vel_0
Time_Shift_5
Note_On_50_Vel_74
Time_Shift_1
Note_On_78_Vel_95
Time_Shift_5
Note_On_69_Vel_71
Time_Shift_94
Note_On_79_Vel_82
Time_Shift_2
Note_On_71_Vel_83
Time_Shift_4
Note_On_76_Vel_0
Time_Shift_1
Note_On_69_Vel_0
Note_On_78_Vel_0
Note_On_72_Vel_0
Note_On_74_Vel_0
Time_Shift_1
Note_On_62_Vel_0
Time_Shift_2
Note_On_57_Vel_0
Note_On_73_Vel_0
Time_Shift_4
Sustain_Off
Time_Shift_15
Note_On_55_Vel_69
Note_On_50_Vel_0
Time_Shift_4
Note_On_81_Vel_0
Time_Shift_38
Sustain_On
Time_Shift_13
Note_On_74_Vel_78
Time_Shift_3
Note_On_50_Vel_54
Time_Shift_88
Note_On_72_Vel_80
Time_Shift_1
Note_On_60_Vel_80
Time_Shift_2
Note_On_70_Vel_78
Time_Shift_67
Sustain_Off
Time_Shift_8
Note_On_79_Vel_0
Note_On_74_Vel_0
Time_Shift_3
Note_On_50_Vel_0
Note_On_72_Vel_0
Time_Shift_3
Note_On_48_Vel_69
Note_On_70_Vel_0
Time_Shift_1
Note_On_76_Vel_75
Time_Shift_3
Note_On_55_Vel_0
Time_Shift_4
Note_On_60_Vel_0
Time_Shift_28
Note_On_48_Vel_0
Time_Shift_22
Sustain_On
Time_Shift_33
Note_On_77_Vel_77
Time_Shift_2
Note_On_69_Vel_76
Time_Shift_69
Sustain_Off
Time_Shift_18
Note_On_48_Vel_50
Time_Shift_1
Note_On_72_Vel_84
Time_Shift_1
Note_On_65_Vel_64
Time_Shift_22
Sustain_On
Time_Shift_31
Note_On_71_Vel_0
Sustain_Off
Time_Shift_10
Note_On_65_Vel_0
Time_Shift_4
Note_On_77_Vel_0
Time_Shift_1
Note_On_48_Vel_0
Note_On_76_Vel_0
Time_Shift_8
Note_On_69_Vel_0
Time_Shift_2
Note_On_48_Vel_57
Time_Shift_8
Note_On_69_Vel_71
Time_Shift_3
Note_On_71_Vel_73
Time_Shift_5
Note_On_72_Vel_0
Time_Shift_9
Note_On_59_Vel_69
Time_Shift_57
Note_On_59_Vel_0
Time_Shift_14
Note_On_75_Vel_72
Time_Shift_17
Sustain_On
Time_Shift_5
Note_On_47_Vel_56
Time_Shift_10
Note_On_69_Vel_0
Time_Shift_57
Note_On_76_Vel_74
Time_Shift_7
Note_On_52_Vel_74
Time_Shift_13
Note_On_67_Vel_53
Time_Shift_42
Note_On_65_Vel_32
Time_Shift_4
Note_On_65_Vel_0
Time_Shift_20
Note_On_72_Vel_43
Time_Shift_54
Note_On_40_Vel_48
Time_Shift_19
Sustain_Off
Time_Shift_1
Note_On_48_Vel_0
Time_Shift_4
Note_On_52_Vel_0
Time_Shift_17
Note_On_71_Vel_0
Note_On_75_Vel_0
Time_Shift_16
Note_On_47_Vel_0
Note_On_76_Vel_0
Time_Shift_6
Note_On_76_Vel_77
Time_Shift_13
Note_On_42_Vel_81
Time_Shift_12
Note_On_67_Vel_0
Time_Shift_23
Sustain_On
Time_Shift_23
Note_On_40_Vel_0
Time_Shift_27
Note_On_43_Vel_83
Time_Shift_88
Note_On_76_Vel_0
Time_Shift_7
Note_On_72_Vel_0
Time_Shift_4
Note_On_76_Vel_89
Note_On_45_Vel_80
Time_Shift_7
Note_On_69_Vel_84
Time_Shift_1
Note_On_72_Vel_86
Time_Shift_45
Note_On_43_Vel_0
Time_Shift_3
Sustain_Off
Time_Shift_25
Note_On_42_Vel_0
Time_Shift_8
Sustain_On
Time_Shift_6
Note_On_47_Vel_85
Time_Shift_24
Note_On_45_Vel_0
Time_Shift_71
Note_On_48_Vel_92
Time_Shift_78
Note_On_78_Vel_96
Time_Shift_2
Note_On_51_Vel_89
Time_Shift_93
Note_On_79_Vel_100
Time_Shift_5
Note_On_67_Vel_87
Time_Shift_1
Note_On_71_Vel_86
Note_On_52_Vel_86
Time_Shift_60
Note_On_47_Vel_0
Note_On_48_Vel_0
Time_Shift_1
Note_On_78_Vel_0
Note_On_51_Vel_0
Time_Shift_1
Sustain_Off
Time_Shift_11
Note_On_72_Vel_0
Note_On_76_Vel_0
Time_Shift_15
Note_On_52_Vel_0
Note_On_69_Vel_0
Time_Shift_5
Note_On_52_Vel_81
Time_Shift_26
Sustain_On
Time_Shift_68
Note_On_54_Vel_92
Time_Shift_5
Note_On_76_Vel_104
Time_Shift_13
Note_On_72_Vel_66
Time_Shift_74
Note_On_55_Vel_88
Time_Shift_93
Note_On_72_Vel_0
Note_On_76_Vel_0
Time_Shift_4
Note_On_57_Vel_90
Time_Shift_7
Note_On_76_Vel_99
Time_Shift_1
Note_On_72_Vel_96
Time_Shift_2
Note_On_69_Vel_89
Time_Shift_19
Sustain_Off
Time_Shift_1
Note_On_54_Vel_0
Time_Shift_1
Note_On_52_Vel_0
Note_On_79_Vel_0
Note_On_71_Vel_0
Time_Shift_1
Note_On_55_Vel_0
Note_On_67_Vel_0
Time_Shift_57
Sustain_On
Time_Shift_3
Note_On_59_Vel_93
Time_Shift_95
Note_On_60_Vel_95
Time_Shift_83
Note_On_78_Vel_95
Time_Shift_1
Note_On_63_Vel_91
Time_Shift_3
Note_On_75_Vel_85
Time_Shift_49
Note_On_69_Vel_0
Time_Shift_3
Note_On_60_Vel_0
Time_Shift_2
Note_On_59_Vel_0
Note_On_63_Vel_0
Time_Shift_2
Sustain_Off
Time_Shift_4
Note_On_57_Vel_0
Note_On_76_Vel_0
Time_Shift_16
Note_On_72_Vel_0
Time_Shift_9
Note_On_64_Vel_101
Note_On_79_Vel_108
Time_Shift_1
Note_On_76_Vel_98
Note_On_67_Vel_105
Time_Shift_1
Note_On_72_Vel_99
Time_Shift_12
Sustain_On
Time_Shift_15
Note_On_75_Vel_0
Time_Shift_83
Note_On_67_Vel_0
Time_Shift_3
Note_On_79_Vel_0
Time_Shift_1
Note_On_72_Vel_0
Note_On_78_Vel_0
Time_Shift_1
Note_On_64_Vel_0
Time_Shift_9
Sustain_Off
Time_Shift_18
Note_On_76_Vel_0
Time_Shift_73
Note_On_84_Vel_102
Time_Shift_1
Note_On_91_Vel_109
Time_Shift_2
Note_On_88_Vel_95
Note_On_48_Vel_99
Time_Shift_2
Note_On_43_Vel_94
Time_Shift_3
Note_On_40_Vel_91
Time_Shift_11
Sustain_On
Time_Shift_66
Note_On_79_Vel_101
Time_Shift_1
Note_On_52_Vel_85
Time_Shift_84
Note_On_45_Vel_87
Time_Shift_5
Note_On_81_Vel_105
Time_Shift_1
Note_On_38_Vel_76
Time_Shift_1
Note_On_86_Vel_94
Note_On_89_Vel_105
Time_Shift_4
Note_On_38_Vel_0
Time_Shift_4
Note_On_40_Vel_0
Time_Shift_80
Note_On_77_Vel_98
Time_Shift_3
Note_On_53_Vel_95
Time_Shift_70
Note_On_84_Vel_0
Time_Shift_1
Note_On_52_Vel_0
Note_On_89_Vel_0
Note_On_81_Vel_0
Time_Shift_1
Note_On_53_Vel_0
Note_On_91_Vel_0
Time_Shift_1
Note_On_88_Vel_0
Note_On_48_Vel_0
Time_Shift_2
Sustain_Off
Time_Shift_7
Note_On_43_Vel_0
Note_On_45_Vel_0
Note_On_79_Vel_0
Note_On_86_Vel_0
Time_Shift_4
Note_On_86_Vel_88
Time_Shift_1
Note_On_50_Vel_78
Note_On_55_Vel_84
Time_Shift_1
Note_On_47_Vel_84
Time_Shift_2
Note_On_79_Vel_96
Note_On_83_Vel_93
Time_Shift_2
Note_On_43_Vel_85
Time_Shift_5
Note_On_55_Vel_0
Time_Shift_8
Sustain_On
Time_Shift_66
Note_On_55_Vel_83
Time_Shift_1
Note_On_74_Vel_98
Time_Shift_61
Note_On_83_Vel_0
Time_Shift_1
Note_On_86_Vel_0
Time_Shift_2
Note_On_43_Vel_0
Note_On_74_Vel_0
Note_On_47_Vel_0
Sustain_Off
Time_Shift_2
Note_On_50_Vel_0
Time_Shift_5
Note_On_77_Vel_0
Time_Shift_15
Note_On_79_Vel_0
Time_Shift_8
Note_On_55_Vel_0
Time_Shift_1
Note_On_48_Vel_90
Time_Shift_1
Note_On_88_Vel_100
Time_Shift_1
Note_On_79_Vel_95
Note_On_52_Vel_82
Time_Shift_1
Note_On_84_Vel_95
Time_Shift_4
Sustain_On
Time_Shift_1
Note_On_55_Vel_82
Time_Shift_76
Note_On_48_Vel_0
Note_On_52_Vel_0
Time_Shift_4
Note_On_76_Vel_100
Time_Shift_1
Note_On_52_Vel_74
Time_Shift_3
Note_On_60_Vel_89
Time_Shift_2
Note_On_48_Vel_78
Time_Shift_37
Note_On_88_Vel_0
Time_Shift_1
Note_On_84_Vel_0
Note_On_60_Vel_0
Note_On_76_Vel_0
Time_Shift_1
Note_On_79_Vel_0
Time_Shift_1
Sustain_Off
Time_Shift_3
Note_On_55_Vel_0
Time_Shift_31
Note_On_48_Vel_0
Note_On_52_Vel_0
Time_Shift_3
Note_On_57_Vel_90
Time_Shift_1
Note_On_81_Vel_101
Time_Shift_1
Note_On_48_Vel_91
Time_Shift_1
Note_On_84_Vel_93
Note_On_88_Vel_103
Time_Shift_2
Note_On_52_Vel_85
Time_Shift_7
Sustain_On
Time_Shift_69
Note_On_52_Vel_0
Time_Shift_7
Note_On_52_Vel_62
Time_Shift_4
Note_On_55_Vel_66
Note_On_60_Vel_93
Time_Shift_1
Note_On_76_Vel_101
Time_Shift_83
Note_On_86_Vel_100
Time_Shift_2
Note_On_50_Vel_92
Note_On_83_Vel_91
Time_Shift_1
Note_On_77_Vel_95
Time_Shift_4
Note_On_59_Vel_94
Time_Shift_2
Note_On_53_Vel_87
Time_Shift_73
Note_On_76_Vel_0
Time_Shift_8
Note_On_76_Vel_80
Time_Shift_1
Note_On_74_Vel_96
Time_Shift_4
Note_On_62_Vel_95
Time_Shift_10
Note_On_50_Vel_0
Time_Shift_4
Note_On_50_Vel_74
Time_Shift_39
Sustain_Off
Note_On_77_Vel_0
Note_On_81_Vel_0
Time_Shift_1
Note_On_50_Vel_0
Note_On_48_Vel_0
Note_On_84_Vel_0
Note_On_88_Vel_0
Note_On_62_Vel_0
Note_On_86_Vel_0
Time_Shift_1
Note_On_60_Vel_0
Note_On_74_Vel_0
Time_Shift_9
Note_On_57_Vel_0
Time_Shift_8
Note_On_53_Vel_0
Note_On_55_Vel_0
Note_On_83_Vel_0
Time_Shift_7
Note_On_52_Vel_0
Note_On_76_Vel_0
Time_Shift_3
Note_On_83_Vel_93
Time_Shift_1
Note_On_56_Vel_89
Note_On_80_Vel_87
Time_Shift_1
Note_On_52_Vel_80
Note_On_76_Vel_86
Time_Shift_1
Note_On_47_Vel_72
Time_Shift_5
Note_On_50_Vel_72
Time_Shift_5
Note_On_47_Vel_0
Time_Shift_7
Sustain_On
Time_Shift_67
Note_On_71_Vel_93
Time_Shift_2
Note_On_50_Vel_0
Time_Shift_2
Note_On_62_Vel_80
Time_Shift_3
Note_On_50_Vel_73
Time_Shift_3
Note_On_52_Vel_0
Time_Shift_4
Note_On_48_Vel_71
Note_On_52_Vel_64
Time_Shift_32
Note_On_56_Vel_0
Time_Shift_2
Note_On_80_Vel_0
Time_Shift_2
Note_On_71_Vel_0
Note_On_83_Vel_0
Time_Shift_2
Note_On_50_Vel_0
Time_Shift_7
Sustain_Off
Time_Shift_5
Note_On_59_Vel_0
Note_On_62_Vel_0
Time_Shift_23
Note_On_52_Vel_0
Note_On_76_Vel_0
Time_Shift_4
Note_On_57_Vel_86
Time_Shift_1
Note_On_81_Vel_91
Time_Shift_1
Note_On_84_Vel_90
Time_Shift_1
Note_On_60_Vel_85
Time_Shift_1
Sustain_On
Time_Shift_1
Note_On_52_Vel_75
Note_On_76_Vel_87
Time_Shift_84
Note_On_72_Vel_96
Time_Shift_53
Note_On_48_Vel_0
Time_Shift_1
Note_On_76_Vel_0
Time_Shift_1
Note_On_57_Vel_0
Note_On_60_Vel_0
Note_On_84_Vel_0
Time_Shift_1
Note_On_52_Vel_0
Note_On_81_Vel_0
Note_On_72_Vel_0
Time_Shift_1
Sustain_Off
Time_Shift_42
Sustain_On
Time_Shift_1
Note_On_41_Vel_82
Time_Shift_3
Note_On_53_Vel_82
Note_On_48_Vel_84
Note_On_77_Vel_87
Note_On_84_Vel_85
Time_Shift_1
Note_On_45_Vel_74
Note_On_81_Vel_78
Time_Shift_72
Note_On_57_Vel_86
Time_Shift_5
Note_On_72_Vel_87
Time_Shift_70
Note_On_77_Vel_0
Time_Shift_1
Note_On_84_Vel_0
Note_On_41_Vel_0
Note_On_57_Vel_0
Time_Shift_1
Note_On_81_Vel_0
Time_Shift_1
Note_On_48_Vel_0
Note_On_45_Vel_0
Note_On_72_Vel_0
Time_Shift_1
Sustain_Off
Time_Shift_12
Note_On_82_Vel_94
Time_Shift_4
Note_On_43_Vel_71
Note_On_46_Vel_82
Time_Shift_1
Note_On_74_Vel_87
Note_On_79_Vel_79
Note_On_55_Vel_79
Time_Shift_1
Note_On_50_Vel_65
Time_Shift_10
Sustain_On
Time_Shift_73
Note_On_58_Vel_93
Note_On_70_Vel_95
Time_Shift_81
Note_On_79_Vel_0
Time_Shift_3
Note_On_82_Vel_0
Sustain_Off
Note_On_50_Vel_0
Time_Shift_1
Note_On_74_Vel_0
Time_Shift_4
Note_On_55_Vel_0
Note_On_43_Vel_0
Time_Shift_3
Note_On_72_Vel_95
Note_On_79_Vel_87
Time_Shift_1
Note_On_52_Vel_82
Time_Shift_1
Note_On_76_Vel_86
Note_On_55_Vel_81
Time_Shift_1
Note_On_48_Vel_86
Time_Shift_24
Note_On_53_Vel_0
Sustain_On
Time_Shift_46
Note_On_58_Vel_0
Time_Shift_6
Note_On_67_Vel_96
Note_On_58_Vel_78
Time_Shift_10
Note_On_52_Vel_0
Time_Shift_8
Note_On_52_Vel_64
Time_Shift_9
Note_On_60_Vel_81
Time_Shift_56
Note_On_79_Vel_0
Time_Shift_9
Sustain_Off
Time_Shift_2
Note_On_72_Vel_0
Time_Shift_8
Note_On_48_Vel_0
Note_On_70_Vel_0
Time_Shift_1
Note_On_72_Vel_88
Time_Shift_2
Note_On_77_Vel_78
Time_Shift_1
Note_On_80_Vel_83
Time_Shift_1
Note_On_56_Vel_82
Time_Shift_2
Note_On_48_Vel_66
Note_On_53_Vel_69
Time_Shift_1
Sustain_On
Time_Shift_76
Note_On_77_Vel_0
Time_Shift_7
Note_On_68_Vel_90
Time_Shift_4
Note_On_77_Vel_70
Time_Shift_3
Note_On_65_Vel_70
Time_Shift_2
Note_On_46_Vel_0
Time_Shift_78
Note_On_56_Vel_0
Time_Shift_3
Sustain_Off
Time_Shift_3
Note_On_55_Vel_0
Note_On_77_Vel_0
Note_On_80_Vel_0
Time_Shift_4
Note_On_73_Vel_95
Time_Shift_4
Note_On_58_Vel_0
Time_Shift_1
Note_On_80_Vel_83
Time_Shift_2
Note_On_77_Vel_81
Time_Shift_1
Note_On_49_Vel_71
Time_Shift_7
Note_On_40_Vel_61
Time_Shift_4
Note_On_60_Vel_0
Time_Shift_5
Note_On_41_Vel_61
Time_Shift_3
Sustain_On
Time_Shift_8
Note_On_67_Vel_0
Time_Shift_53
Note_On_68_Vel_0
Time_Shift_9
Note_On_68_Vel_98
Time_Shift_7
Note_On_53_Vel_0
Time_Shift_8
Note_On_53_Vel_82
Time_Shift_93
Note_On_70_Vel_97
Sustain_Off
Time_Shift_1
Note_On_78_Vel_94
Note_On_42_Vel_94
Time_Shift_1
Note_On_75_Vel_87
Time_Shift_1
Note_On_51_Vel_90
Time_Shift_4
Note_On_46_Vel_81
Time_Shift_1
Note_On_44_Vel_85
Time_Shift_14
Note_On_65_Vel_0
Sustain_On
Time_Shift_81
Note_On_54_Vel_92
Time_Shift_2
Note_On_66_Vel_101
Time_Shift_9
Note_On_78_Vel_0
Time_Shift_11
Note_On_78_Vel_82
Time_Shift_4
Note_On_75_Vel_0
Time_Shift_4
Note_On_75_Vel_54
Time_Shift_65
Note_On_52_Vel_0
Time_Shift_8
Note_On_66_Vel_0
Note_On_72_Vel_0
Note_On_75_Vel_0
Note_On_78_Vel_0
Time_Shift_4
Note_On_78_Vel_93
Time_Shift_3
Note_On_66_Vel_95
Time_Shift_1
Note_On_48_Vel_0
Note_On_51_Vel_0
Note_On_75_Vel_92
Time_Shift_1
Note_On_72_Vel_83
Time_Shift_2
Note_On_77_Vel_0
Time_Shift_1
Note_On_48_Vel_89
Note_On_53_Vel_0
Note_On_56_Vel_84
Note_On_63_Vel_87
Note_On_49_Vel_0
Time_Shift_1
Note_On_51_Vel_94
Note_On_46_Vel_0
Time_Shift_2
Note_On_44_Vel_0
Note_On_76_Vel_0
Time_Shift_4
Note_On_68_Vel_0
Note_On_44_Vel_78
Sustain_Off
Time_Shift_4
Note_On_41_Vel_0
Time_Shift_15
Note_On_40_Vel_0
Note_On_80_Vel_0
Time_Shift_8
Note_On_73_Vel_0
Time_Shift_8
Sustain_On
Time_Shift_53
Note_On_54_Vel_0
Note_On_63_Vel_0
Time_Shift_9
Note_On_54_Vel_98
Time_Shift_2
Note_On_63_Vel_104
Time_Shift_151
Note_On_70_Vel_0
Note_On_72_Vel_0
Note_On_66_Vel_0
Time_Shift_1
Note_On_44_Vel_0
Note_On_54_Vel_0
Time_Shift_1
Sustain_Off
Time_Shift_4
Note_On_78_Vel_0
Time_Shift_1
Note_On_42_Vel_0
Note_On_56_Vel_0
Time_Shift_16
Note_On_48_Vel_0
Note_On_51_Vel_0
Note_On_63_Vel_0
Note_On_75_Vel_0
Time_Shift_3
Note_On_55_Vel_107
Note_On_60_Vel_97
Time_Shift_2
Note_On_75_Vel_104
Note_On_63_Vel_105
Note_On_67_Vel_105
Time_Shift_3
Note_On_48_Vel_93
Time_Shift_1
Note_On_51_Vel_102
Note_On_43_Vel_94
Time_Shift_21
Sustain_On
Time_Shift_166
Note_On_48_Vel_0
Note_On_67_Vel_0
Note_On_51_Vel_0
Time_Shift_1
Note_On_75_Vel_0
Note_On_63_Vel_0
Note_On_43_Vel_0
Note_On_55_Vel_0
Time_Shift_3
Sustain_Off
Time_Shift_7
Note_On_60_Vel_0
Time_Shift_77
Sustain_On
Time_Shift_54
Sustain_Off
Time_Shift_77
Note_On_43_Vel_66
Time_Shift_2
Note_On_31_Vel_58
Time_Shift_10
Note_On_67_Vel_47
Time_Shift_57
Note_On_63_Vel_57
Time_Shift_7
Note_On_31_Vel_0
Time_Shift_16
Note_On_43_Vel_0
Time_Shift_92
Note_On_63_Vel_0
Time_Shift_3
Note_On_55_Vel_71
Note_On_43_Vel_77
Time_Shift_1
Note_On_31_Vel_66
Time_Shift_6
Note_On_63_Vel_66
Time_Shift_27
Note_On_43_Vel_0
Time_Shift_5
Note_On_31_Vel_0
Time_Shift_35
Note_On_55_Vel_0
Time_Shift_25
Note_On_60_Vel_56
Time_Shift_67
Note_On_67_Vel_0
Time_Shift_15
Note_On_60_Vel_0
Note_On_63_Vel_0
Time_Shift_3
Note_On_43_Vel_91
Time_Shift_1
Note_On_63_Vel_77
Note_On_31_Vel_79
Time_Shift_2
Note_On_60_Vel_68
Time_Shift_23
Note_On_43_Vel_0
Time_Shift_25
Note_On_31_Vel_0
Note_On_60_Vel_0
Time_Shift_8
Note_On_63_Vel_0
Time_Shift_27
Note_On_67_Vel_73
Time_Shift_77
Note_On_67_Vel_0
Time_Shift_5
Note_On_43_Vel_56
Note_On_72_Vel_76
Time_Shift_62
Note_On_72_Vel_0
Time_Shift_18
Note_On_43_Vel_0
Time_Shift_11
Note_On_75_Vel_80
Time_Shift_40
Note_On_55_Vel_53
Time_Shift_2
Note_On_75_Vel_0
Time_Shift_2
Note_On_60_Vel_57
Time_Shift_31
Note_On_63_Vel_61
Time_Shift_23
Note_On_79_Vel_84
Time_Shift_1
Sustain_On
Time_Shift_4
Note_On_67_Vel_68
Time_Shift_76
Note_On_83_Vel_87
Time_Shift_78
Note_On_84_Vel_88
Time_Shift_78
Note_On_86_Vel_90
Time_Shift_17
Note_On_55_Vel_0
Time_Shift_7
Note_On_55_Vel_62
Time_Shift_1
Note_On_60_Vel_0
Time_Shift_11
Note_On_60_Vel_45
Time_Shift_18
Sustain_Off
Note_On_83_Vel_0
Time_Shift_1
Note_On_84_Vel_0
Note_On_79_Vel_0
Time_Shift_3
Note_On_67_Vel_0
Time_Shift_21
Note_On_63_Vel_0
Time_Shift_5
Note_On_63_Vel_72
Time_Shift_8
Note_On_87_Vel_101
Time_Shift_2
Note_On_55_Vel_0
Sustain_On
Time_Shift_1
Note_On_69_Vel_93
Time_Shift_166
Note_On_78_Vel_101
Time_Shift_51
Note_On_87_Vel_0
Time_Shift_1
Note_On_78_Vel_0
Note_On_69_Vel_0
Time_Shift_1
Note_On_63_Vel_0
Time_Shift_3
Note_On_86_Vel_0
Time_Shift_1
Sustain_Off
Time_Shift_7
Note_On_60_Vel_0
Time_Shift_97
Note_On_43_Vel_97
Time_Shift_2
Note_On_31_Vel_88
Time_Shift_35
Note_On_31_Vel_0
Note_On_43_Vel_0
Time_Shift_145
Note_On_43_Vel_99
Time_Shift_2
Note_On_31_Vel_88
Note_On_60_Vel_92
Time_Shift_30
Note_On_43_Vel_0
Time_Shift_1
Note_On_31_Vel_0
Time_Shift_10
Note_On_60_Vel_0
Time_Shift_28
Note_On_63_Vel_88
Time_Shift_31
Note_On_63_Vel_0
Time_Shift_56
Note_On_43_Vel_103
Time_Shift_3
Note_On_31_Vel_95
Time_Shift_1
Note_On_66_Vel_94
Time_Shift_39
Note_On_31_Vel_0
Time_Shift_2
Note_On_43_Vel_0
Time_Shift_6
Note_On_66_Vel_0
Time_Shift_44
Note_On_69_Vel_90
Time_Shift_62
Note_On_69_Vel_0
Time_Shift_11
Note_On_72_Vel_95
Time_Shift_82
Note_On_75_Vel_90
Time_Shift_4
Note_On_72_Vel_0
Time_Shift_32
Note_On_55_Vel_82
Time_Shift_4
Note_On_60_Vel_79
Time_Shift_5
Note_On_63_Vel_83
Time_Shift_20
Sustain_On
Time_Shift_20
Note_On_78_Vel_99
Time_Shift_2
Note_On_69_Vel_104
Time_Shift_73
Note_On_81_Vel_98
Time_Shift_79
Note_On_84_Vel_98
Time_Shift_69
Note_On_90_Vel_103
Time_Shift_88
Note_On_55_Vel_0
Time_Shift_6
Note_On_67_Vel_105
Note_On_91_Vel_108
Time_Shift_3
Note_On_55_Vel_95
Note_On_62_Vel_95
Time_Shift_1
Note_On_59_Vel_88
Time_Shift_24
Note_On_63_Vel_0
Note_On_60_Vel_0
Note_On_69_Vel_0
Time_Shift_1
Note_On_78_Vel_0
Note_On_84_Vel_0
Time_Shift_1
Note_On_81_Vel_0
Time_Shift_2
Note_On_75_Vel_0
Time_Shift_2
Note_On_90_Vel_0
Time_Shift_3
Note_On_55_Vel_0
Note_On_67_Vel_0
Time_Shift_4
Note_On_91_Vel_0
Time_Shift_1
Sustain_Off
Time_Shift_1
Note_On_62_Vel_0
Time_Shift_2
Note_On_59_Vel_0
Time_Shift_134
Note_On_86_Vel_95
Time_Shift_4
Note_On_83_Vel_96
Time_Shift_2
Note_On_79_Vel_94
Time_Shift_75
Note_On_82_Vel_98
Time_Shift_2
Note_On_91_Vel_95
Time_Shift_5
Note_On_76_Vel_90
Time_Shift_11
Note_On_79_Vel_0
Time_Shift_1
Note_On_83_Vel_0
Note_On_86_Vel_0
Time_Shift_58
Note_On_76_Vel_0
Time_Shift_10
Note_On_84_Vel_93
Time_Shift_1
Note_On_77_Vel_95
Note_On_81_Vel_91
Time_Shift_2
Note_On_82_Vel_0
Time_Shift_28
Note_On_91_Vel_0
Time_Shift_54
Note_On_80_Vel_95
Time_Shift_1
Note_On_74_Vel_84
Note_On_89_Vel_95
Time_Shift_49
Note_On_89_Vel_0
Time_Shift_2
Note_On_74_Vel_0
Time_Shift_6
Note_On_80_Vel_0
Time_Shift_3
Note_On_77_Vel_0
Note_On_81_Vel_0
Time_Shift_7
Note_On_84_Vel_0
Time_Shift_11
Note_On_84_Vel_86
Time_Shift_2
Note_On_79_Vel_99
Time_Shift_1
Note_On_75_Vel_83
Time_Shift_12
Note_On_82_Vel_78
Time_Shift_62
Note_On_78_Vel_99
Time_Shift_4
Note_On_87_Vel_91
Time_Shift_1
Sustain_On
Time_Shift_3
Note_On_72_Vel_83
Time_Shift_81
Note_On_79_Vel_0
Time_Shift_4
Note_On_71_Vel_88
Time_Shift_1
Note_On_74_Vel_91
Note_On_79_Vel_94
Time_Shift_57
Note_On_82_Vel_0
Time_Shift_23
Note_On_78_Vel_0
Time_Shift_3
Note_On_86_Vel_90
Time_Shift_6
Note_On_55_Vel_79
Time_Shift_2
Note_On_78_Vel_75
Time_Shift_81
Note_On_71_Vel_0
Note_On_74_Vel_0
Note_On_79_Vel_0
Time_Shift_5
Note_On_79_Vel_91
Time_Shift_1
Note_On_74_Vel_94
Note_On_71_Vel_96
Note_On_67_Vel_89
Time_Shift_13
Note_On_55_Vel_0
Time_Shift_4
Note_On_78_Vel_0
Time_Shift_3
Note_On_86_Vel_0
Note_On_72_Vel_0
Time_Shift_1
Note_On_87_Vel_0
Time_Shift_3
Note_On_75_Vel_0
Note_On_84_Vel_0
Time_Shift_12
Sustain_Off
Time_Shift_8
Note_On_67_Vel_0
Time_Shift_19
Note_On_71_Vel_0
Time_Shift_15
Note_On_79_Vel_0
Time_Shift_9
Note_On_64_Vel_77
Note_On_79_Vel_84
Time_Shift_3
Note_On_70_Vel_90
Time_Shift_81
Note_On_65_Vel_87
Time_Shift_1
Note_On_69_Vel_87
Note_On_72_Vel_92
Time_Shift_3
Note_On_71_Vel_72
Time_Shift_61
Note_On_65_Vel_0
Time_Shift_3
Note_On_64_Vel_0
Note_On_79_Vel_0
Time_Shift_3
Note_On_69_Vel_0
Note_On_70_Vel_0
Time_Shift_4
Note_On_72_Vel_0
Time_Shift_1
Note_On_71_Vel_0
Time_Shift_8
Note_On_74_Vel_0
Time_Shift_1
Note_On_68_Vel_94
Time_Shift_1
Note_On_71_Vel_70
Time_Shift_1
Note_On_62_Vel_80
Time_Shift_43
Note_On_68_Vel_0
Time_Shift_4
Note_On_62_Vel_0
Time_Shift_19
Note_On_71_Vel_0
Time_Shift_20
Note_On_72_Vel_79
Time_Shift_6
Note_On_63_Vel_84
Time_Shift_2
Note_On_67_Vel_69
Time_Shift_1
Note_On_65_Vel_68
Time_Shift_29
Note_On_63_Vel_0
Time_Shift_3
Note_On_72_Vel_0
Time_Shift_8
Note_On_65_Vel_0
Time_Shift_8
Note_On_67_Vel_0
Time_Shift_21
Note_On_60_Vel_79
Time_Shift_4
Note_On_75_Vel_88
Note_On_66_Vel_87
Time_Shift_38
Note_On_60_Vel_0
Time_Shift_4
Note_On_66_Vel_0
Time_Shift_43
Note_On_59_Vel_85
Time_Shift_1
Note_On_62_Vel_89
Time_Shift_2
Note_On_67_Vel_75
Time_Shift_4
Note_On_69_Vel_68
Time_Shift_6
Sustain_On
Time_Shift_15
Note_On_75_Vel_0
Time_Shift_57
Note_On_43_Vel_83
Time_Shift_66
Note_On_59_Vel_0
Time_Shift_21
Sustain_Off
Time_Shift_2
Note_On_67_Vel_0
Time_Shift_8
Note_On_62_Vel_0
Time_Shift_1
Note_On_43_Vel_0
Time_Shift_2
Note_On_67_Vel_70
Time_Shift_1
Note_On_62_Vel_71
Note_On_59_Vel_79
Time_Shift_19
Note_On_69_Vel_0
Time_Shift_23
Note_On_59_Vel_0
Time_Shift_9
Note_On_62_Vel_0
Time_Shift_21
Note_On_67_Vel_0
Time_Shift_7
Note_On_67_Vel_86
Time_Shift_3
Note_On_58_Vel_82
Time_Shift_1
Note_On_52_Vel_70
Time_Shift_30
Note_On_58_Vel_0
Time_Shift_1
Note_On_67_Vel_0
Time_Shift_28
Note_On_52_Vel_0
Time_Shift_26
Note_On_60_Vel_86
Note_On_53_Vel_83
Time_Shift_1
Note_On_57_Vel_79
Time_Shift_47
Note_On_60_Vel_0
Time_Shift_23
Note_On_57_Vel_0
Time_Shift_3
Note_On_53_Vel_0
Time_Shift_12
Note_On_50_Vel_76
Time_Shift_5
Note_On_65_Vel_77
Time_Shift_1
Note_On_56_Vel_80
Time_Shift_38
Note_On_65_Vel_0
Time_Shift_15
Note_On_50_Vel_0
Time_Shift_37
Note_On_51_Vel_75
Time_Shift_1
Note_On_60_Vel_66
Time_Shift_2
Note_On_55_Vel_65
Time_Shift_4
Note_On_56_Vel_0
Time_Shift_66
Note_On_51_Vel_0
Time_Shift_1
Note_On_63_Vel_84
Time_Shift_4
Note_On_55_Vel_0
Time_Shift_11
Note_On_48_Vel_71
Time_Shift_1
Note_On_54_Vel_70
Time_Shift_35
Note_On_63_Vel_0
Time_Shift_9
Note_On_48_Vel_0
Time_Shift_6
Note_On_54_Vel_0
Time_Shift_20
Note_On_60_Vel_0
Time_Shift_20
Note_On_62_Vel_69
Note_On_47_Vel_75
Time_Shift_4
Note_On_55_Vel_69
Time_Shift_68
Sustain_On
Time_Shift_12
Note_On_31_Vel_69
Time_Shift_34
Sustain_Off
Time_Shift_8
Note_On_31_Vel_0
Time_Shift_30
Note_On_62_Vel_0
Note_On_47_Vel_0
Time_Shift_24
Note_On_43_Vel_78
Time_Shift_86
Note_On_55_Vel_0
Time_Shift_4
Note_On_43_Vel_0
Time_Shift_4
Note_On_44_Vel_76
Time_Shift_77
Note_On_44_Vel_0
Time_Shift_28
Note_On_59_Vel_69
Time_Shift_2
Note_On_43_Vel_63
Note_On_50_Vel_61
Time_Shift_9
Note_On_55_Vel_54
Time_Shift_66
Sustain_On
Time_Shift_13
Note_On_41_Vel_61
Time_Shift_108
Note_On_39_Vel_65
Time_Shift_112
Note_On_38_Vel_59
Time_Shift_80
Sustain_Off
Time_Shift_6
Note_On_41_Vel_0
Time_Shift_1
Note_On_50_Vel_0
Time_Shift_6
Note_On_38_Vel_0
Time_Shift_28
Note_On_59_Vel_0
Time_Shift_7
Note_On_43_Vel_0
Time_Shift_4
Note_On_48_Vel_46
Time_Shift_2
Note_On_36_Vel_41
Time_Shift_2
Note_On_55_Vel_0
Time_Shift_203
Note_On_36_Vel_0
Time_Shift_4
Note_On_39_Vel_0
Time_Shift_54
Note_On_48_Vel_0
Time_Shift_126
Note_On_36_Vel_50
Note_On_48_Vel_52
Time_Shift_32
Note_On_48_Vel_0
Time_Shift_1
Note_On_36_Vel_0
Time_Shift_143
Note_On_48_Vel_73
Time_Shift_1
Note_On_36_Vel_62
Time_Shift_25
Note_On_36_Vel_0
Time_Shift_1
Note_On_48_Vel_0
Time_Shift_153
Note_On_48_Vel_94
Time_Shift_4
Note_On_36_Vel_82
Time_Shift_19
Note_On_48_Vel_0
Time_Shift_25
Note_On_36_Vel_0
Time_Shift_43
Note_On_62_Vel_82
Time_Shift_56
Note_On_62_Vel_0
Time_Shift_19
Note_On_65_Vel_72
Time_Shift_66
Note_On_68_Vel_77
Time_Shift_5
Note_On_65_Vel_0
Time_Shift_25
Note_On_48_Vel_77
Time_Shift_22
Note_On_53_Vel_67
Time_Shift_10
Sustain_On
Time_Shift_28
Note_On_71_Vel_81
Time_Shift_11
Note_On_56_Vel_88
Time_Shift_11
Note_On_62_Vel_99
Time_Shift_59
Note_On_74_Vel_79
Time_Shift_71
Note_On_77_Vel_83
Time_Shift_71
Note_On_80_Vel_83
Time_Shift_60
Note_On_83_Vel_85
Time_Shift_42
Note_On_48_Vel_0
Time_Shift_3
Note_On_53_Vel_0
Note_On_77_Vel_0
Note_On_62_Vel_0
Time_Shift_1
Note_On_71_Vel_0
Note_On_56_Vel_0
Note_On_80_Vel_0
Note_On_74_Vel_0
Note_On_51_Vel_64
Time_Shift_1
Note_On_48_Vel_68
Note_On_83_Vel_0
Time_Shift_3
Note_On_68_Vel_0
Time_Shift_1
Sustain_Off
Time_Shift_41
Note_On_84_Vel_103
Time_Shift_3
Note_On_55_Vel_78
Time_Shift_2
Note_On_60_Vel_75
Time_Shift_30
Sustain_On
Time_Shift_38
Note_On_60_Vel_0
Time_Shift_88
Note_On_72_Vel_91
Time_Shift_81
Note_On_72_Vel_0
Time_Shift_1
Note_On_48_Vel_0
Time_Shift_3
Sustain_Off
Time_Shift_11
Note_On_51_Vel_0
Note_On_55_Vel_0
Time_Shift_8
Note_On_84_Vel_0
Time_Shift_66
Note_On_48_Vel_88
Time_Shift_2
Note_On_36_Vel_79
Note_On_72_Vel_73
Time_Shift_20
Note_On_48_Vel_0
Time_Shift_1
Note_On_36_Vel_0
Time_Shift_95
Note_On_72_Vel_0
Time_Shift_63
Note_On_48_Vel_98
Time_Shift_2
Note_On_36_Vel_84
Time_Shift_1
Note_On_60_Vel_89
Time_Shift_25
Note_On_48_Vel_0
Time_Shift_1
Note_On_36_Vel_0
Time_Shift_3
Note_On_60_Vel_0
Time_Shift_47
Note_On_63_Vel_85
Time_Shift_62
Note_On_63_Vel_0
Time_Shift_24
Note_On_66_Vel_91
Time_Shift_4
Note_On_48_Vel_107
Time_Shift_2
Note_On_36_Vel_93
Time_Shift_36
Note_On_48_Vel_0
Time_Shift_1
Note_On_36_Vel_0
Time_Shift_2
Note_On_66_Vel_0
Time_Shift_38
Note_On_69_Vel_88
Time_Shift_64
Note_On_69_Vel_0
Time_Shift_10
Note_On_72_Vel_88
Time_Shift_75
Note_On_48_Vel_88
Time_Shift_2
Note_On_75_Vel_84
Time_Shift_4
Note_On_72_Vel_0
Time_Shift_18
Sustain_On
Time_Shift_43
Note_On_57_Vel_86
Time_Shift_30
Note_On_78_Vel_86
Time_Shift_5
Note_On_63_Vel_103
Time_Shift_74
Note_On_81_Vel_92
Time_Shift_74
Note_On_62_Vel_90
Note_On_84_Vel_88
Time_Shift_67
Note_On_87_Vel_91
Time_Shift_51
Note_On_90_Vel_96
Time_Shift_5
Note_On_47_Vel_82
Time_Shift_45
Note_On_78_Vel_0
Time_Shift_1
Note_On_84_Vel_0
Time_Shift_1
Note_On_57_Vel_0
Note_On_81_Vel_0
Time_Shift_6
Note_On_63_Vel_0
Time_Shift_5
Note_On_62_Vel_0
Note_On_75_Vel_0
Time_Shift_11
Note_On_62_Vel_99
Time_Shift_1
Note_On_91_Vel_110
Time_Shift_11
Note_On_48_Vel_0
Time_Shift_69
Note_On_87_Vel_0
Time_Shift_9
Note_On_87_Vel_67
Time_Shift_74
Note_On_79_Vel_89
Time_Shift_33
Note_On_47_Vel_0
Time_Shift_1
Note_On_90_Vel_0
Time_Shift_1
Note_On_87_Vel_0
Sustain_Off
Time_Shift_1
Note_On_91_Vel_0
Note_On_62_Vel_0
Note_On_79_Vel_0
Time_Shift_59
Note_On_46_Vel_76
Time_Shift_27
Note_On_55_Vel_52
Time_Shift_10
Sustain_On
Time_Shift_42
Note_On_61_Vel_104
Time_Shift_2
Note_On_100_Vel_100
Time_Shift_79
Note_On_97_Vel_102
Time_Shift_66
Note_On_60_Vel_85
Time_Shift_15
Note_On_94_Vel_96
Time_Shift_76
Note_On_88_Vel_95
Time_Shift_21
Note_On_45_Vel_73
Time_Shift_64
Note_On_101_Vel_107
Time_Shift_4
Note_On_60_Vel_0
Time_Shift_7
Note_On_60_Vel_98
Time_Shift_4
Note_On_46_Vel_0
Note_On_45_Vel_0
Note_On_88_Vel_0
Note_On_61_Vel_0
Time_Shift_1
Note_On_97_Vel_0
Note_On_94_Vel_0
Time_Shift_3
Sustain_Off
Time_Shift_23
Note_On_55_Vel_0
Time_Shift_8
Note_On_100_Vel_0
Time_Shift_34
Note_On_96_Vel_96
Time_Shift_27
Note_On_60_Vel_0
Time_Shift_16
Note_On_101_Vel_0
Time_Shift_37
Note_On_93_Vel_96
Time_Shift_75
Note_On_89_Vel_92
Time_Shift_26
Sustain_On
Time_Shift_20
Note_On_44_Vel_71
Time_Shift_9
Note_On_51_Vel_74
Time_Shift_37
Note_On_90_Vel_96
Time_Shift_10
Note_On_60_Vel_88
Time_Shift_64
Note_On_87_Vel_89
Time_Shift_82
Note_On_84_Vel_80
Time_Shift_83
Note_On_43_Vel_79
Note_On_78_Vel_93
Time_Shift_72
Sustain_Off
Time_Shift_7
Note_On_51_Vel_0
Time_Shift_6
Note_On_51_Vel_82
Time_Shift_2
Note_On_60_Vel_0
Time_Shift_4
Note_On_91_Vel_105
Time_Shift_4
Note_On_60_Vel_83
Time_Shift_33
Note_On_78_Vel_0
Time_Shift_1
Note_On_87_Vel_0
Time_Shift_2
Note_On_90_Vel_0
Time_Shift_2
Note_On_96_Vel_0
Note_On_43_Vel_0
Time_Shift_1
Note_On_44_Vel_0
Time_Shift_1
Note_On_93_Vel_0
Time_Shift_1
Note_On_84_Vel_0
Time_Shift_4
Note_On_60_Vel_0
Time_Shift_2
Note_On_51_Vel_0
Time_Shift_6
Note_On_89_Vel_0
Time_Shift_28
Note_On_87_Vel_93
Time_Shift_18
Note_On_91_Vel_0
Time_Shift_58
Note_On_84_Vel_93
Time_Shift_27
Sustain_On
Time_Shift_51
Note_On_79_Vel_83
Time_Shift_6
Note_On_44_Vel_77
Time_Shift_34
Note_On_50_Vel_75
Time_Shift_22
Note_On_54_Vel_84
Time_Shift_21
Note_On_78_Vel_96
Time_Shift_2
Note_On_60_Vel_93
Time_Shift_90
Note_On_74_Vel_81
Time_Shift_43
Note_On_50_Vel_0
Time_Shift_9
Note_On_50_Vel_62
Time_Shift_26
Note_On_72_Vel_85
Time_Shift_80
Note_On_43_Vel_78
Note_On_66_Vel_93
Time_Shift_66
Sustain_Off
Time_Shift_22
Note_On_59_Vel_103
Time_Shift_8
Note_On_67_Vel_101
Time_Shift_24
Note_On_79_Vel_0
Time_Shift_1
Note_On_87_Vel_0
Time_Shift_1
Note_On_78_Vel_0
Time_Shift_1
Note_On_84_Vel_0
Time_Shift_1
Note_On_60_Vel_0
Time_Shift_1
Note_On_72_Vel_0
Note_On_54_Vel_0
Note_On_74_Vel_0
Time_Shift_1
Note_On_66_Vel_0
Note_On_44_Vel_0
Time_Shift_2
Note_On_50_Vel_0
Time_Shift_2
Note_On_43_Vel_0
Time_Shift_4
Note_On_67_Vel_0
Note_On_59_Vel_0
Time_Shift_153
Note_On_79_Vel_107
Time_Shift_1
Note_On_67_Vel_102
Time_Shift_1
Note_On_74_Vel_92
Note_On_71_Vel_94
Time_Shift_4
Note_On_31_Vel_89
Time_Shift_1
Note_On_43_Vel_95
Time_Shift_20
Note_On_67_Vel_0
Time_Shift_5
Note_On_79_Vel_0
Time_Shift_6
Note_On_43_Vel_0
Time_Shift_5
Note_On_31_Vel_0
Time_Shift_8
Note_On_71_Vel_0
Time_Shift_30
Note_On_74_Vel_0
Time_Shift_102
Note_On_43_Vel_104
Time_Shift_2
Note_On_31_Vel_93
Time_Shift_34
Note_On_43_Vel_0
Time_Shift_4
Note_On_31_Vel_0
Time_Shift_154
Note_On_43_Vel_106
Time_Shift_1
Note_On_31_Vel_93
Time_Shift_30
Note_On_43_Vel_0
Time_Shift_3
Note_On_31_Vel_0
Time_Shift_210
Note_On_48_Vel_111
Time_Shift_1
Note_On_36_Vel_101
Time_Shift_35
Sustain_On
Time_Shift_323
Note_On_36_Vel_0
Note_On_48_Vel_0
Time_Shift_4
Sustain_Off
Time_Shift_6
Note_On_48_Vel_92
Time_Shift_1
Note_On_36_Vel_82
Time_Shift_32
Note_On_48_Vel_0
Time_Shift_41
Note_On_36_Vel_0
Time_Shift_112
Note_On_48_Vel_100
Time_Shift_2
Note_On_36_Vel_85
Time_Shift_41
Note_On_48_Vel_0
Time_Shift_37
Note_On_36_Vel_0
Time_Shift_90
Note_On_48_Vel_101
Time_Shift_2
Note_On_36_Vel_86
Time_Shift_31
Sustain_On
Time_Shift_76
Note_On_38_Vel_71
Time_Shift_6
Note_On_40_Vel_68
Time_Shift_54
Note_On_41_Vel_76
Time_Shift_66
Note_On_44_Vel_84
Time_Shift_64
Note_On_47_Vel_86
Time_Shift_65
Note_On_48_Vel_0
Time_Shift_1
Note_On_62_Vel_90
Time_Shift_1
Note_On_71_Vel_89
Time_Shift_1
Note_On_68_Vel_83
Note_On_44_Vel_0
Time_Shift_1
Note_On_38_Vel_0
Note_On_41_Vel_0
Sustain_Off
Time_Shift_1
Note_On_47_Vel_0
Note_On_36_Vel_0
Note_On_48_Vel_74
Time_Shift_1
Note_On_65_Vel_71
Time_Shift_1
Note_On_40_Vel_0
Time_Shift_13
Note_On_50_Vel_70
Time_Shift_14
Note_On_62_Vel_0
Time_Shift_1
Note_On_68_Vel_0
Time_Shift_2
Note_On_71_Vel_0
Time_Shift_2
Note_On_65_Vel_0
Time_Shift_14
Note_On_48_Vel_0
Note_On_50_Vel_0
Time_Shift_46
Note_On_53_Vel_74
Time_Shift_57
Note_On_56_Vel_92
Time_Shift_11
Note_On_71_Vel_91
Time_Shift_5
Note_On_68_Vel_88
Time_Shift_1
Note_On_65_Vel_82
Time_Shift_8
Note_On_59_Vel_89
Time_Shift_12
Note_On_53_Vel_0
Time_Shift_3
Note_On_56_Vel_0
Note_On_65_Vel_0
Time_Shift_34
Note_On_68_Vel_0
Note_On_71_Vel_0
Time_Shift_27
Note_On_62_Vel_94
Time_Shift_11
Note_On_59_Vel_0
Time_Shift_27
Note_On_62_Vel_0
Time_Shift_46
Note_On_72_Vel_98
Time_Shift_1
Note_On_67_Vel_92
Time_Shift_1
Note_On_60_Vel_95
Time_Shift_1
Note_On_63_Vel_96
Time_Shift_55
Sustain_On
Time_Shift_112
Note_On_48_Vel_94
Time_Shift_180
Note_On_48_Vel_0
Time_Shift_7
Note_On_63_Vel_0
Time_Shift_3
Note_On_48_Vel_92
Time_Shift_2
Note_On_75_Vel_103
Time_Shift_1
Note_On_66_Vel_91
Time_Shift_1
Note_On_36_Vel_84
Note_On_63_Vel_94
Note_On_69_Vel_87
Time_Shift_1
Note_On_72_Vel_0
Time_Shift_1
Note_On_60_Vel_0
Time_Shift_17
Sustain_Off
Time_Shift_36
Note_On_67_Vel_0
Time_Shift_8
Note_On_48_Vel_0
Time_Shift_7
Note_On_36_Vel_0
Time_Shift_105
Note_On_48_Vel_101
Time_Shift_3
Note_On_36_Vel_90
Time_Shift_29
Note_On_75_Vel_0
Time_Shift_11
Note_On_48_Vel_0
Time_Shift_1
Note_On_63_Vel_0
Time_Shift_2
Note_On_69_Vel_0
Time_Shift_5
Note_On_36_Vel_0
Time_Shift_6
Note_On_66_Vel_0
Time_Shift_121
Note_On_48_Vel_94
Time_Shift_4
Note_On_78_Vel_101
Time_Shift_1
Note_On_36_Vel_90
Note_On_66_Vel_93
Time_Shift_1
Note_On_69_Vel_84
Note_On_75_Vel_88
Time_Shift_49
Sustain_On
Time_Shift_42
Note_On_39_Vel_83
Time_Shift_50
Note_On_78_Vel_0
Time_Shift_11
Note_On_78_Vel_79
Note_On_42_Vel_90
Time_Shift_63
Note_On_45_Vel_81
Time_Shift_49
Note_On_48_Vel_0
Note_On_75_Vel_0
Time_Shift_5
Note_On_48_Vel_83
Time_Shift_5
Note_On_72_Vel_75
Time_Shift_1
Note_On_75_Vel_73
Time_Shift_66
Note_On_69_Vel_0
Note_On_72_Vel_0
Time_Shift_5
Note_On_81_Vel_101
Time_Shift_3
Note_On_69_Vel_92
Time_Shift_3
Note_On_51_Vel_83
Note_On_72_Vel_89
Time_Shift_45
Note_On_48_Vel_0
Note_On_36_Vel_0
Time_Shift_1
Note_On_39_Vel_0
Note_On_42_Vel_0
Time_Shift_1
Note_On_66_Vel_0
Time_Shift_2
Sustain_Off
Time_Shift_13
Note_On_54_Vel_79
Time_Shift_4
Note_On_78_Vel_0
Time_Shift_15
Sustain_On
Time_Shift_28
Note_On_57_Vel_90
Time_Shift_61
Note_On_60_Vel_85
Time_Shift_72
Note_On_63_Vel_90
Time_Shift_49
Note_On_66_Vel_86
Time_Shift_2
Note_On_81_Vel_0
Sustain_Off
Note_On_75_Vel_0
Time_Shift_1
Note_On_60_Vel_0
Note_On_57_Vel_0
Note_On_63_Vel_0
Time_Shift_1
Note_On_54_Vel_0
Time_Shift_9
Note_On_45_Vel_0
Note_On_51_Vel_0
Note_On_69_Vel_0
Time_Shift_8
Note_On_72_Vel_0
Time_Shift_21
Note_On_67_Vel_102
Time_Shift_1
Note_On_79_Vel_103
Note_On_71_Vel_99
Time_Shift_2
Note_On_74_Vel_94
Time_Shift_6
Note_On_66_Vel_0
Time_Shift_23
Sustain_On
Time_Shift_127
Note_On_67_Vel_0
Time_Shift_1
Note_On_79_Vel_0
Note_On_74_Vel_0
Time_Shift_3
Sustain_Off
Time_Shift_8
Note_On_71_Vel_0
Time_Shift_17
Note_On_47_Vel_94
Time_Shift_1
Note_On_35_Vel_88
Time_Shift_58
Sustain_On
Time_Shift_69
Note_On_47_Vel_0
Time_Shift_4
Sustain_Off
Time_Shift_43
Note_On_35_Vel_0
Sustain_On
Time_Shift_12
Note_On_46_Vel_98
Time_Shift_2
Note_On_76_Vel_105
Time_Shift_1
Note_On_34_Vel_91
Time_Shift_1
Note_On_88_Vel_103
Time_Shift_1
Note_On_79_Vel_101
Note_On_85_Vel_100
Time_Shift_70
Note_On_34_Vel_0
Time_Shift_1
Note_On_46_Vel_0
Time_Shift_3
Sustain_Off
Time_Shift_54
Sustain_On
Time_Shift_35
Note_On_58_Vel_105
Time_Shift_1
Note_On_46_Vel_102
Time_Shift_176
Note_On_57_Vel_99
Time_Shift_4
Note_On_89_Vel_111
Note_On_45_Vel_95
Time_Shift_1
Note_On_84_Vel_105
Time_Shift_2
Note_On_77_Vel_106
Time_Shift_19
Note_On_46_Vel_0
Time_Shift_5
Note_On_58_Vel_0
Time_Shift_4
Note_On_88_Vel_0
Time_Shift_1
Sustain_Off
Time_Shift_6
Note_On_76_Vel_0
Note_On_57_Vel_0
Time_Shift_8
Note_On_79_Vel_0
Time_Shift_7
Note_On_85_Vel_0
Time_Shift_39
Sustain_On
Time_Shift_76
Note_On_45_Vel_0
Time_Shift_5
Note_On_45_Vel_101
Time_Shift_2
Note_On_33_Vel_93
Time_Shift_185
Note_On_84_Vel_0
Time_Shift_3
Note_On_44_Vel_99
Time_Shift_1
Note_On_32_Vel_92
Note_On_84_Vel_96
Time_Shift_2
Note_On_90_Vel_106
Time_Shift_1
Note_On_78_Vel_109
Time_Shift_2
Note_On_87_Vel_90
Time_Shift_38
Sustain_Off
Time_Shift_61
Note_On_33_Vel_0
Time_Shift_9
Note_On_44_Vel_0
Time_Shift_4
Note_On_45_Vel_0
Time_Shift_2
Note_On_77_Vel_0
Time_Shift_8
Note_On_32_Vel_0
Time_Shift_8
Note_On_89_Vel_0
Time_Shift_15
Sustain_On
Time_Shift_40
Note_On_56_Vel_106
Time_Shift_2
Note_On_44_Vel_95
Time_Shift_204
Note_On_84_Vel_0
Note_On_87_Vel_0
Time_Shift_4
Note_On_91_Vel_111
Time_Shift_2
Note_On_79_Vel_111
Time_Shift_2
Note_On_84_Vel_97
Note_On_43_Vel_99
Time_Shift_1
Note_On_87_Vel_94
Time_Shift_2
Note_On_55_Vel_97
Time_Shift_74
Note_On_78_Vel_0
Time_Shift_3
Note_On_90_Vel_0
Note_On_44_Vel_0
Note_On_56_Vel_0
Note_On_84_Vel_0
Time_Shift_1
Note_On_43_Vel_0
Note_On_79_Vel_0
Time_Shift_1
Note_On_55_Vel_0
Note_On_91_Vel_0
Time_Shift_1
Note_On_87_Vel_0
Time_Shift_6
Sustain_Off
Time_Shift_172
Sustain_On
Time_Shift_21
Note_On_63_Vel_98
Time_Shift_5
Note_On_55_Vel_80
Time_Shift_2
Note_On_60_Vel_82
Time_Shift_248
Note_On_55_Vel_0
Time_Shift_4
Note_On_43_Vel_101
Note_On_31_Vel_94
Time_Shift_5
Note_On_59_Vel_88
Note_On_55_Vel_88
Time_Shift_1
Note_On_53_Vel_84
Time_Shift_196
Note_On_62_Vel_100
Time_Shift_178
Note_On_60_Vel_0
Time_Shift_4
Note_On_48_Vel_108
Note_On_51_Vel_99
Time_Shift_2
Note_On_60_Vel_101
Time_Shift_1
Note_On_36_Vel_97
Time_Shift_37
Note_On_43_Vel_0
Time_Shift_1
Note_On_55_Vel_0
Note_On_31_Vel_0
Time_Shift_2
Note_On_62_Vel_0
Time_Shift_1
Note_On_59_Vel_0
Note_On_60_Vel_0
Time_Shift_1
Note_On_51_Vel_0
Time_Shift_2
Note_On_36_Vel_0
Time_Shift_1
Note_On_48_Vel_0
Sustain_Off
Time_Shift_2
Note_On_53_Vel_0
Time_Shift_8
Note_On_63_Vel_0
Time_Shift_144
Note_On_51_Vel_87
Time_Shift_4
Note_On_63_Vel_79
Time_Shift_27
Note_On_48_Vel_52
Time_Shift_22
Note_On_51_Vel_0
Time_Shift_32
Note_On_60_Vel_70
Time_Shift_4
Note_On_54_Vel_75
Time_Shift_35
Note_On_63_Vel_0
Time_Shift_9
Note_On_54_Vel_0
Time_Shift_5
Note_On_60_Vel_0
Time_Shift_2
Note_On_48_Vel_0
Time_Shift_21
Note_On_55_Vel_67
Time_Shift_2
Note_On_59_Vel_78
Time_Shift_34
Note_On_55_Vel_0
Time_Shift_15
Note_On_59_Vel_0
Time_Shift_38
Note_On_62_Vel_76
Time_Shift_66
Note_On_62_Vel_0
Time_Shift_20
Note_On_67_Vel_72
Time_Shift_2
Note_On_59_Vel_78
Time_Shift_77
Note_On_67_Vel_0
Time_Shift_5
Note_On_65_Vel_67
Time_Shift_29
Note_On_71_Vel_49
Time_Shift_3
Note_On_65_Vel_0
Time_Shift_16
Note_On_59_Vel_0
Time_Shift_25
Note_On_71_Vel_0
Time_Shift_23
Note_On_63_Vel_83
Time_Shift_2
Note_On_48_Vel_77
Time_Shift_1
Note_On_60_Vel_81
Time_Shift_28
Note_On_60_Vel_0
Time_Shift_1
Note_On_48_Vel_0
Time_Shift_5
Note_On_63_Vel_0
Time_Shift_40
Note_On_67_Vel_69
Time_Shift_92
Note_On_67_Vel_0
Time_Shift_6
Note_On_75_Vel_74
Time_Shift_5
Note_On_63_Vel_87
Time_Shift_76
Note_On_63_Vel_0
Time_Shift_3
Note_On_72_Vel_66
Time_Shift_3
Note_On_66_Vel_77
Time_Shift_4
Note_On_75_Vel_0
Time_Shift_32
Note_On_66_Vel_0
Time_Shift_4
Note_On_72_Vel_0
Time_Shift_40
Note_On_67_Vel_86
Time_Shift_5
Note_On_71_Vel_80
Time_Shift_2
Note_On_55_Vel_70
Time_Shift_20
Note_On_67_Vel_0
Time_Shift_6
Note_On_55_Vel_0
Time_Shift_47
Note_On_71_Vel_0
Time_Shift_14
Note_On_74_Vel_75
Time_Shift_5
Note_On_72_Vel_59
Time_Shift_4
Note_On_72_Vel_0
Time_Shift_65
Note_On_74_Vel_0
Time_Shift_16
Note_On_79_Vel_82
Time_Shift_2
Note_On_71_Vel_92
Time_Shift_85
Note_On_77_Vel_77
Note_On_79_Vel_0
Time_Shift_38
Note_On_77_Vel_0
Time_Shift_14
Note_On_71_Vel_0
Time_Shift_44
Note_On_72_Vel_86
Time_Shift_2
Note_On_60_Vel_64
Time_Shift_4
Note_On_75_Vel_72
Time_Shift_26
Note_On_72_Vel_0
Time_Shift_1
Note_On_60_Vel_0
Time_Shift_32
Note_On_75_Vel_0
Time_Shift_15
Note_On_79_Vel_74
Time_Shift_85
Note_On_79_Vel_0
Time_Shift_6
Note_On_87_Vel_83
Time_Shift_6
Note_On_75_Vel_81
Time_Shift_49
Note_On_87_Vel_0
Time_Shift_17
Note_On_75_Vel_0
Time_Shift_8
Note_On_75_Vel_65
Time_Shift_2
Note_On_84_Vel_82
Time_Shift_1
Note_On_78_Vel_82
Time_Shift_40
Note_On_78_Vel_0
Time_Shift_7
Note_On_84_Vel_0
Time_Shift_35
Note_On_75_Vel_0
Time_Shift_1
Note_On_79_Vel_92
Time_Shift_2
Note_On_67_Vel_78
Note_On_83_Vel_88
Time_Shift_6
Note_On_75_Vel_63
Time_Shift_21
Note_On_67_Vel_0
Time_Shift_2
Note_On_79_Vel_0
Time_Shift_29
Note_On_75_Vel_0
Time_Shift_19
Note_On_83_Vel_0
Time_Shift_9
Note_On_86_Vel_88
Time_Shift_5
Note_On_78_Vel_65
Time_Shift_51
Note_On_78_Vel_0
Time_Shift_33
Note_On_91_Vel_93
Note_On_83_Vel_97
Time_Shift_76
Note_On_89_Vel_90
Time_Shift_8
Note_On_79_Vel_69
Time_Shift_6
Note_On_79_Vel_0
Time_Shift_35
Note_On_91_Vel_0
Time_Shift_3
Note_On_89_Vel_0
Time_Shift_1
Note_On_86_Vel_0
Time_Shift_3
Note_On_83_Vel_0
Time_Shift_31
Note_On_84_Vel_89
Time_Shift_1
Note_On_72_Vel_78
Time_Shift_5
Note_On_87_Vel_86
Time_Shift_52
Note_On_72_Vel_0
Time_Shift_8
Note_On_84_Vel_0
Time_Shift_20
Note_On_91_Vel_87
Time_Shift_79
Note_On_87_Vel_0
Time_Shift_8
Note_On_99_Vel_97
Time_Shift_1
Note_On_87_Vel_93
Time_Shift_7
Sustain_On
Time_Shift_65
Note_On_90_Vel_92
Time_Shift_2
Note_On_96_Vel_86
Time_Shift_70
Note_On_87_Vel_0
Time_Shift_1
Note_On_99_Vel_0
Time_Shift_8
Note_On_91_Vel_0
Time_Shift_5
Note_On_91_Vel_101
Time_Shift_2
Note_On_79_Vel_94
Time_Shift_3
Note_On_95_Vel_93
Time_Shift_74
Note_On_79_Vel_0
Time_Shift_15
Note_On_98_Vel_98
Time_Shift_70
Note_On_91_Vel_0
Time_Shift_5
Note_On_91_Vel_93
Time_Shift_3
Note_On_83_Vel_92
Time_Shift_77
Note_On_89_Vel_96
Time_Shift_95
Note_On_84_Vel_84
Note_On_87_Vel_88
Time_Shift_83
Note_On_92_Vel_95
Time_Shift_2
Note_On_72_Vel_73
Time_Shift_73
Note_On_91_Vel_0
Time_Shift_8
Note_On_91_Vel_94
Time_Shift_20
Note_On_70_Vel_80
Time_Shift_68
Note_On_86_Vel_91
Time_Shift_6
Note_On_82_Vel_85
Time_Shift_74
Note_On_84_Vel_0
Time_Shift_11
Note_On_84_Vel_91
Time_Shift_7
Note_On_80_Vel_85
Time_Shift_67
Note_On_89_Vel_0
Time_Shift_9
Note_On_68_Vel_82
Time_Shift_1
Note_On_89_Vel_92
Time_Shift_90
Note_On_87_Vel_0
Time_Shift_5
Note_On_87_Vel_86
Time_Shift_3
Note_On_67_Vel_76
Time_Shift_76
Note_On_82_Vel_0
Time_Shift_4
Note_On_79_Vel_76
Note_On_82_Vel_87
Time_Shift_88
Note_On_68_Vel_0
Note_On_80_Vel_0
Time_Shift_5
Note_On_80_Vel_83
Time_Shift_1
Note_On_77_Vel_77
Time_Shift_3
Note_On_68_Vel_66
Time_Shift_14
Note_On_70_Vel_0
Time_Shift_4
Note_On_70_Vel_46
Time_Shift_58
Note_On_86_Vel_0
Time_Shift_8
Note_On_86_Vel_89
Time_Shift_2
Note_On_65_Vel_67
Time_Shift_82
Note_On_84_Vel_0
Time_Shift_10
Note_On_84_Vel_86
Note_On_75_Vel_74
Time_Shift_74
Note_On_79_Vel_0
Time_Shift_3
Note_On_63_Vel_77
Time_Shift_2
Note_On_79_Vel_85
Time_Shift_80
Note_On_77_Vel_0
Time_Shift_10
Note_On_77_Vel_81
Time_Shift_1
Note_On_74_Vel_75
Time_Shift_73
Note_On_82_Vel_0
Time_Shift_11
Note_On_82_Vel_88
Time_Shift_4
Note_On_62_Vel_77
Time_Shift_85
Note_On_72_Vel_0
Note_On_80_Vel_0
Time_Shift_6
Note_On_80_Vel_85
Time_Shift_4
Note_On_72_Vel_78
Time_Shift_67
Note_On_75_Vel_0
Time_Shift_6
Note_On_60_Vel_71
Time_Shift_1
Note_On_75_Vel_79
Time_Shift_77
Note_On_74_Vel_0
Time_Shift_11
Note_On_74_Vel_81
Time_Shift_5
Note_On_70_Vel_0
Note_On_72_Vel_0
Time_Shift_4
Note_On_72_Vel_65
Time_Shift_6
Note_On_70_Vel_71
Time_Shift_67
Note_On_79_Vel_0
Time_Shift_3
Note_On_58_Vel_77
Time_Shift_1
Note_On_79_Vel_85
Time_Shift_80
Note_On_68_Vel_0
Note_On_72_Vel_0
Time_Shift_9
Note_On_68_Vel_69
Time_Shift_2
Note_On_72_Vel_83
Time_Shift_73
Note_On_90_Vel_0
Time_Shift_8
Note_On_77_Vel_0
Time_Shift_2
Note_On_56_Vel_68
Time_Shift_2
Note_On_77_Vel_75
Time_Shift_1
Note_On_70_Vel_0
Time_Shift_1
Note_On_74_Vel_0
Time_Shift_1
Note_On_89_Vel_0
Time_Shift_1
Note_On_95_Vel_0
Time_Shift_1
Note_On_79_Vel_0
Time_Shift_1
Note_On_82_Vel_0
Note_On_58_Vel_0
Note_On_62_Vel_0
Time_Shift_1
Note_On_65_Vel_0
Note_On_63_Vel_0
Note_On_86_Vel_0
Time_Shift_1
Note_On_80_Vel_0
Time_Shift_1
Note_On_68_Vel_0
Time_Shift_1
Note_On_87_Vel_0
Time_Shift_2
Note_On_98_Vel_0
Time_Shift_15
Note_On_83_Vel_0
Time_Shift_8
Note_On_75_Vel_0
Note_On_92_Vel_0
Note_On_96_Vel_0
Time_Shift_7
Note_On_60_Vel_0
Time_Shift_16
Note_On_91_Vel_0
Time_Shift_23
Note_On_67_Vel_0
Time_Shift_2
Note_On_72_Vel_0
Time_Shift_5
Note_On_84_Vel_0
Time_Shift_1
Note_On_70_Vel_80
Time_Shift_1
Sustain_Off
Time_Shift_2
Note_On_67_Vel_69
Time_Shift_65
Note_On_56_Vel_0
Time_Shift_2
Note_On_77_Vel_0
Time_Shift_1
Note_On_70_Vel_0
Time_Shift_15
Note_On_75_Vel_80
Note_On_55_Vel_67
Time_Shift_5
Note_On_67_Vel_0
Time_Shift_47
Note_On_55_Vel_0
Time_Shift_34
Note_On_68_Vel_73
Time_Shift_1
Note_On_65_Vel_68
Time_Shift_72
Note_On_75_Vel_0
Time_Shift_12
Note_On_53_Vel_70
Time_Shift_1
Note_On_74_Vel_72
Time_Shift_79
Note_On_65_Vel_0
Time_Shift_8
Note_On_53_Vel_0
Note_On_68_Vel_0
Time_Shift_8
Note_On_74_Vel_0
Time_Shift_2
Note_On_67_Vel_69
Time_Shift_2
Note_On_63_Vel_73
Time_Shift_56
Note_On_67_Vel_0
Time_Shift_11
Note_On_63_Vel_0
Time_Shift_16
Note_On_51_Vel_65
Time_Shift_2
Note_On_72_Vel_74
Time_Shift_59
Note_On_72_Vel_0
Time_Shift_29
Note_On_62_Vel_72
Time_Shift_1
Note_On_65_Vel_66
Time_Shift_6
Note_On_51_Vel_0
Time_Shift_32
Note_On_62_Vel_0
Time_Shift_17
Note_On_65_Vel_0
Time_Shift_31
Note_On_50_Vel_67
Time_Shift_2
Note_On_71_Vel_64
Time_Shift_49
Note_On_50_Vel_0
Time_Shift_6
Note_On_71_Vel_0
Time_Shift_34
Note_On_60_Vel_66
Note_On_63_Vel_74
Time_Shift_41
Note_On_60_Vel_0
Time_Shift_12
Note_On_63_Vel_0
Time_Shift_26
Note_On_48_Vel_71
Time_Shift_2
Note_On_72_Vel_70
Time_Shift_27
Note_On_48_Vel_0
Time_Shift_36
Note_On_72_Vel_0
Time_Shift_36
Note_On_66_Vel_62
Time_Shift_4
Note_On_56_Vel_70
Time_Shift_58
Note_On_56_Vel_0
Time_Shift_1
Note_On_66_Vel_0
Time_Shift_17
Note_On_44_Vel_68
Time_Shift_3
Note_On_74_Vel_69
Time_Shift_29
Note_On_74_Vel_0
Time_Shift_7
Note_On_44_Vel_0
Time_Shift_48
Note_On_71_Vel_87
Time_Shift_2
Note_On_59_Vel_90
Time_Shift_1
Note_On_43_Vel_88
Time_Shift_1
Note_On_67_Vel_79
Time_Shift_2
Note_On_55_Vel_88
Time_Shift_24
Note_On_55_Vel_0
Time_Shift_5
Note_On_43_Vel_0
Time_Shift_15
Note_On_59_Vel_0
Time_Shift_16
Note_On_67_Vel_0
Time_Shift_15
Note_On_71_Vel_0
Time_Shift_49
Note_On_43_Vel_65
Time_Shift_5
Note_On_55_Vel_58
Note_On_43_Vel_0
Time_Shift_7
Note_On_55_Vel_0
Time_Shift_59
Note_On_43_Vel_66
Time_Shift_6
Note_On_59_Vel_76
Time_Shift_61
Note_On_59_Vel_0
Time_Shift_2
Note_On_43_Vel_0
Time_Shift_7
Note_On_47_Vel_73
Time_Shift_4
Note_On_55_Vel_64
Time_Shift_43
Note_On_47_Vel_0
Time_Shift_24
Note_On_55_Vel_0
Time_Shift_14
Note_On_50_Vel_67
Time_Shift_3
Note_On_54_Vel_76
Time_Shift_30
Note_On_50_Vel_0
Time_Shift_40
Note_On_54_Vel_0
Time_Shift_12
Note_On_38_Vel_73
Time_Shift_5
Note_On_57_Vel_70
Time_Shift_40
Note_On_38_Vel_0
Time_Shift_13
Note_On_50_Vel_72
Time_Shift_33
Note_On_62_Vel_71
Time_Shift_19
Note_On_57_Vel_0
Time_Shift_3
Note_On_50_Vel_0
Time_Shift_41
Note_On_54_Vel_69
Time_Shift_11
Note_On_62_Vel_0
Time_Shift_13
Note_On_60_Vel_72
Time_Shift_36
Note_On_54_Vel_0
Time_Shift_25
Note_On_60_Vel_0
Time_Shift_13
Note_On_55_Vel_66
Time_Shift_8
Note_On_59_Vel_71
Time_Shift_46
Note_On_55_Vel_0
Time_Shift_15
Note_On_59_Vel_0
Time_Shift_23
Note_On_43_Vel_71
Time_Shift_10
Note_On_62_Vel_68
Time_Shift_54
Note_On_43_Vel_0
Time_Shift_5
Note_On_62_Vel_0
Time_Shift_6
Note_On_55_Vel_65
Time_Shift_20
Note_On_71_Vel_76
Time_Shift_7
Note_On_55_Vel_0
Time_Shift_55
Note_On_71_Vel_0
Time_Shift_15
Note_On_59_Vel_76
Time_Shift_3
Note_On_67_Vel_72
Time_Shift_57
Note_On_59_Vel_0
Time_Shift_20
Note_On_67_Vel_0
Time_Shift_12
Note_On_66_Vel_77
Note_On_62_Vel_76
Time_Shift_55
Note_On_62_Vel_0
Time_Shift_5
Note_On_66_Vel_0
Time_Shift_28
Note_On_69_Vel_82
Time_Shift_1
Note_On_50_Vel_75
Time_Shift_27
Note_On_50_Vel_0
Time_Shift_14
Note_On_69_Vel_0
Time_Shift_46
Note_On_62_Vel_76
Time_Shift_53
Note_On_62_Vel_0
Time_Shift_10
Sustain_On
Time_Shift_27
Note_On_72_Vel_85
Time_Shift_1
Note_On_66_Vel_68
Time_Shift_91
Note_On_67_Vel_76
Time_Shift_1
Note_On_71_Vel_80
Time_Shift_88
Note_On_74_Vel_82
Time_Shift_1
Note_On_55_Vel_81
Time_Shift_15
Note_On_66_Vel_0
Time_Shift_2
Note_On_71_Vel_0
Time_Shift_3
Note_On_72_Vel_0
Time_Shift_21
Sustain_Off
Time_Shift_35
Note_On_67_Vel_0
Time_Shift_3
Note_On_67_Vel_67
Time_Shift_2
Note_On_83_Vel_90
Time_Shift_2
Note_On_74_Vel_0
Time_Shift_8
Note_On_55_Vel_0
Time_Shift_28
Note_On_67_Vel_0
Time_Shift_42
Note_On_79_Vel_89
Time_Shift_3
Note_On_71_Vel_73
Time_Shift_23
Note_On_83_Vel_0
Time_Shift_12
Note_On_71_Vel_0
Time_Shift_53
Note_On_79_Vel_0
Time_Shift_3
Note_On_78_Vel_96
Time_Shift_2
Note_On_74_Vel_74
Time_Shift_38
Note_On_74_Vel_0
Time_Shift_8
Note_On_78_Vel_0
Time_Shift_35
Note_On_81_Vel_92
Time_Shift_5
Note_On_62_Vel_80
Time_Shift_36
Note_On_62_Vel_0
Time_Shift_45
Note_On_86_Vel_90
Time_Shift_7
Note_On_81_Vel_0
Time_Shift_79
Note_On_84_Vel_95
Time_Shift_1
Note_On_78_Vel_83
Time_Shift_25
Note_On_86_Vel_0
Time_Shift_13
Note_On_78_Vel_0
Time_Shift_48
Note_On_83_Vel_100
Time_Shift_3
Note_On_79_Vel_91
Time_Shift_5
Sustain_On
Time_Shift_47
Note_On_84_Vel_0
Time_Shift_27
Note_On_86_Vel_96
Time_Shift_1
Note_On_67_Vel_87
Time_Shift_41
Sustain_Off
Time_Shift_23
Note_On_67_Vel_0
Time_Shift_7
Note_On_79_Vel_0
Time_Shift_5
Note_On_79_Vel_90
Time_Shift_1
Note_On_95_Vel_100
Time_Shift_79
Note_On_83_Vel_0
Time_Shift_3
Note_On_91_Vel_100
Time_Shift_1
Note_On_83_Vel_93
Time_Shift_80
Note_On_86_Vel_0
Time_Shift_10
Note_On_90_Vel_103
Note_On_86_Vel_94
Time_Shift_21
Sustain_On
Time_Shift_31
Sustain_Off
Time_Shift_31
Note_On_90_Vel_0
Note_On_93_Vel_102
Time_Shift_1
Note_On_74_Vel_95
Time_Shift_68
Note_On_86_Vel_0
Time_Shift_7
Note_On_91_Vel_0
Sustain_On
Time_Shift_4
Note_On_86_Vel_93
Time_Shift_1
Note_On_98_Vel_105
Time_Shift_80
Note_On_79_Vel_0
Time_Shift_6
Note_On_96_Vel_99
Time_Shift_5
Note_On_90_Vel_92
Time_Shift_4
Sustain_Off
Time_Shift_69
Note_On_95_Vel_0
Time_Shift_4
Note_On_95_Vel_103
Time_Shift_9
Note_On_91_Vel_92
Time_Shift_3
Sustain_On
Time_Shift_69
Note_On_98_Vel_0
Time_Shift_11
Note_On_98_Vel_103
Time_Shift_8
Note_On_79_Vel_87
Time_Shift_1
Sustain_Off
Time_Shift_83
Note_On_92_Vel_102
Note_On_89_Vel_82
Time_Shift_66
Note_On_83_Vel_0
Time_Shift_7
Note_On_91_Vel_0
Note_On_95_Vel_0
Time_Shift_9
Note_On_95_Vel_78
Time_Shift_3
Note_On_91_Vel_97
Time_Shift_7
Note_On_87_Vel_82
Time_Shift_12
Sustain_On
Time_Shift_62
Note_On_86_Vel_0
Note_On_89_Vel_0
Time_Shift_5
Note_On_89_Vel_97
Time_Shift_3
Note_On_86_Vel_86
Time_Shift_76
Note_On_87_Vel_0
Time_Shift_5
Note_On_87_Vel_93
Time_Shift_1
Note_On_84_Vel_84
Time_Shift_79
Note_On_86_Vel_0
Time_Shift_10
Note_On_86_Vel_92
Time_Shift_3
Note_On_83_Vel_83
Time_Shift_10
Note_On_74_Vel_0
Time_Shift_69
Note_On_84_Vel_0
Time_Shift_4
Note_On_84_Vel_89
Time_Shift_6
Note_On_80_Vel_71
Time_Shift_51
Note_On_93_Vel_0
Note_On_87_Vel_0
Time_Shift_5
Note_On_92_Vel_0
Time_Shift_10
Note_On_79_Vel_0
Time_Shift_2
Sustain_Off
Time_Shift_6
Note_On_90_Vel_0
Time_Shift_6
Note_On_84_Vel_0
Time_Shift_2
Note_On_80_Vel_0
Note_On_83_Vel_0
Time_Shift_8
Note_On_98_Vel_0
Time_Shift_3
Note_On_83_Vel_88
Time_Shift_3
Note_On_79_Vel_76
Time_Shift_1
Note_On_89_Vel_0
Time_Shift_54
Note_On_96_Vel_0
Time_Shift_8
Note_On_86_Vel_0
Time_Shift_11
Note_On_86_Vel_90
Time_Shift_1
Note_On_67_Vel_74
Time_Shift_7
Note_On_83_Vel_0
Time_Shift_4
Note_On_95_Vel_0
Time_Shift_7
Sustain_On
Time_Shift_16
Note_On_79_Vel_0
Time_Shift_15
Note_On_91_Vel_0
Time_Shift_15
Note_On_67_Vel_0
Time_Shift_23
Note_On_80_Vel_93
Time_Shift_22
Note_On_77_Vel_69
Time_Shift_62
Note_On_79_Vel_95
Time_Shift_9
Note_On_75_Vel_78
Time_Shift_69
Note_On_77_Vel_0
Time_Shift_10
Note_On_77_Vel_90
Time_Shift_10
Note_On_74_Vel_78
Time_Shift_80
Note_On_75_Vel_0
Note_On_86_Vel_0
Time_Shift_6
Note_On_72_Vel_84
Note_On_75_Vel_97
Time_Shift_78
Note_On_74_Vel_0
Time_Shift_10
Note_On_74_Vel_94
Time_Shift_1
Note_On_71_Vel_66
Note_On_77_Vel_0
Time_Shift_1
Sustain_Off
Note_On_75_Vel_0
Time_Shift_1
Note_On_79_Vel_0
Time_Shift_1
Note_On_80_Vel_0
Time_Shift_5
Note_On_72_Vel_0
Time_Shift_28
Note_On_71_Vel_0
Time_Shift_27
Note_On_74_Vel_0
Time_Shift_15
Note_On_72_Vel_87
Time_Shift_1
Note_On_68_Vel_72
Time_Shift_57
Note_On_68_Vel_0
Time_Shift_42
Note_On_71_Vel_79
Note_On_67_Vel_72
Time_Shift_5
Note_On_72_Vel_0
Time_Shift_27
Note_On_71_Vel_0
Time_Shift_8
Note_On_67_Vel_0
Time_Shift_28
Note_On_55_Vel_74
Time_Shift_5
Note_On_74_Vel_74
Time_Shift_84
Note_On_55_Vel_0
Time_Shift_2
Note_On_74_Vel_0
Time_Shift_11
Note_On_68_Vel_75
Time_Shift_2
Note_On_71_Vel_59
Time_Shift_35
Note_On_65_Vel_42
Time_Shift_47
Note_On_67_Vel_71
Time_Shift_2
Note_On_63_Vel_76
Time_Shift_24
Note_On_71_Vel_0
Time_Shift_7
Note_On_65_Vel_0
Note_On_68_Vel_0
Time_Shift_24
Note_On_63_Vel_0
Time_Shift_36
Note_On_62_Vel_75
Note_On_65_Vel_73
Time_Shift_83
Note_On_62_Vel_0
Time_Shift_1
Note_On_67_Vel_0
Time_Shift_10
Note_On_60_Vel_68
Time_Shift_2
Note_On_63_Vel_82
Time_Shift_25
Note_On_65_Vel_0
Time_Shift_68
Note_On_60_Vel_0
Note_On_62_Vel_73
Note_On_63_Vel_0
Time_Shift_1
Note_On_59_Vel_65
Time_Shift_59
Note_On_62_Vel_0
Time_Shift_2
Note_On_59_Vel_0
Time_Shift_27
Note_On_60_Vel_69
Time_Shift_11
Note_On_56_Vel_61
Time_Shift_39
Note_On_60_Vel_0
Time_Shift_3
Note_On_56_Vel_0
Time_Shift_40
Note_On_55_Vel_69
Time_Shift_1
Note_On_59_Vel_68
Time_Shift_45
Note_On_55_Vel_0
Time_Shift_14
Note_On_59_Vel_0
Time_Shift_19
Note_On_62_Vel_73
Time_Shift_15
Note_On_54_Vel_69
Time_Shift_41
Note_On_62_Vel_0
Note_On_54_Vel_0
Time_Shift_19
Note_On_56_Vel_74
Time_Shift_29
Note_On_53_Vel_63
Time_Shift_49
Note_On_53_Vel_0
Time_Shift_2
Note_On_56_Vel_0
Time_Shift_11
Note_On_55_Vel_72
Time_Shift_27
Note_On_51_Vel_74
Time_Shift_56
Note_On_51_Vel_0
Time_Shift_1
Note_On_55_Vel_0
Time_Shift_22
Note_On_53_Vel_70
Time_Shift_6
Note_On_50_Vel_70
Time_Shift_62
Note_On_53_Vel_0
Time_Shift_1
Note_On_50_Vel_0
Time_Shift_27
Note_On_51_Vel_62
Time_Shift_1
Note_On_48_Vel_74
Time_Shift_63
Note_On_51_Vel_0
Time_Shift_2
Note_On_48_Vel_0
Time_Shift_17
Note_On_50_Vel_74
Time_Shift_4
Note_On_46_Vel_62
Time_Shift_87
Note_On_46_Vel_0
Time_Shift_3
Note_On_50_Vel_0
Time_Shift_2
Note_On_58_Vel_69
Time_Shift_5
Note_On_44_Vel_66
Time_Shift_72
Note_On_44_Vel_0
Time_Shift_6
Note_On_58_Vel_0
Time_Shift_12
Note_On_51_Vel_71
Time_Shift_4
Note_On_43_Vel_69
Time_Shift_68
Note_On_43_Vel_0
Time_Shift_7
Note_On_51_Vel_0
Time_Shift_17
Note_On_55_Vel_67
Time_Shift_29
Note_On_50_Vel_45
Time_Shift_21
Note_On_55_Vel_0
Time_Shift_55
Note_On_39_Vel_72
Time_Shift_7
Note_On_50_Vel_0
Time_Shift_1
Note_On_62_Vel_81
Note_On_55_Vel_70
Time_Shift_32
Note_On_39_Vel_0
Time_Shift_1
Note_On_55_Vel_0
Time_Shift_52
Note_On_60_Vel_77
Time_Shift_3
Note_On_62_Vel_0
Time_Shift_75
Note_On_60_Vel_0
Time_Shift_11
Note_On_38_Vel_78
Time_Shift_1
Note_On_58_Vel_75
Time_Shift_3
Note_On_53_Vel_64
Time_Shift_32
Note_On_58_Vel_0
Time_Shift_4
Note_On_38_Vel_0
Time_Shift_63
Note_On_46_Vel_78
Time_Shift_34
Note_On_46_Vel_0
Time_Shift_18
Note_On_53_Vel_0
Time_Shift_42
Note_On_34_Vel_72
Time_Shift_6
Note_On_58_Vel_75
Time_Shift_1
Note_On_50_Vel_81
Time_Shift_47
Note_On_34_Vel_0
Note_On_58_Vel_0
Time_Shift_34
Note_On_56_Vel_83
Time_Shift_8
Note_On_50_Vel_0
Time_Shift_81
Note_On_56_Vel_0
Time_Shift_8
Note_On_39_Vel_82
Time_Shift_3
Note_On_51_Vel_83
Time_Shift_3
Note_On_55_Vel_72
Time_Shift_92
Note_On_46_Vel_63
Time_Shift_97
Note_On_46_Vel_0
Time_Shift_8
Note_On_55_Vel_0
Time_Shift_3
Note_On_46_Vel_84
Time_Shift_1
Note_On_62_Vel_83
Time_Shift_7
Note_On_55_Vel_70
Time_Shift_20
Note_On_51_Vel_0
Time_Shift_23
Note_On_39_Vel_0
Time_Shift_52
Note_On_60_Vel_70
Time_Shift_4
Note_On_62_Vel_0
Time_Shift_36
Note_On_55_Vel_0
Time_Shift_36
Note_On_60_Vel_0
Time_Shift_5
Note_On_56_Vel_72
Time_Shift_1
Note_On_38_Vel_81
Note_On_58_Vel_72
Time_Shift_12
Note_On_46_Vel_0
Time_Shift_19
Note_On_58_Vel_0
Time_Shift_10
Note_On_56_Vel_0
Time_Shift_3
Note_On_38_Vel_0
Time_Shift_58
Note_On_46_Vel_83
Time_Shift_35
Note_On_46_Vel_0
Time_Shift_63
Note_On_50_Vel_85
Note_On_34_Vel_76
Time_Shift_1
Note_On_58_Vel_75
Time_Shift_47
Note_On_34_Vel_0
Time_Shift_14
Note_On_58_Vel_0
Time_Shift_18
Note_On_56_Vel_84
Time_Shift_16
Note_On_50_Vel_0
Time_Shift_61
Note_On_56_Vel_0
Time_Shift_21
Note_On_27_Vel_80
Time_Shift_2
Note_On_39_Vel_84
Time_Shift_4
Note_On_58_Vel_71
Time_Shift_4
Note_On_27_Vel_0
Note_On_55_Vel_66
Time_Shift_2
Note_On_51_Vel_77
Time_Shift_23
Note_On_39_Vel_0
Time_Shift_14
Note_On_55_Vel_0
Time_Shift_7
Note_On_51_Vel_0
Time_Shift_23
Note_On_58_Vel_0
Time_Shift_30
Note_On_56_Vel_60
Time_Shift_23
Note_On_51_Vel_52
Time_Shift_8
Note_On_51_Vel_0
Time_Shift_54
Note_On_56_Vel_0
Time_Shift_9
Note_On_46_Vel_88
Time_Shift_1
Note_On_56_Vel_66
Time_Shift_93
Note_On_59_Vel_76
Time_Shift_82
Note_On_56_Vel_0
Time_Shift_1
Note_On_38_Vel_74
Time_Shift_3
Note_On_56_Vel_72
Time_Shift_19
Note_On_59_Vel_0
Time_Shift_19
Note_On_38_Vel_0
Time_Shift_54
Note_On_60_Vel_69
Time_Shift_77
Note_On_46_Vel_0
Time_Shift_1
Note_On_34_Vel_79
Time_Shift_13
Note_On_60_Vel_0
Time_Shift_5
Note_On_56_Vel_0
Time_Shift_5
Note_On_56_Vel_68
Time_Shift_71
Note_On_56_Vel_0
Time_Shift_18
Note_On_62_Vel_72
Time_Shift_13
Note_On_34_Vel_0
Time_Shift_26
Note_On_62_Vel_0
Time_Shift_32
Note_On_39_Vel_82
Time_Shift_5
Note_On_58_Vel_75
Time_Shift_3
Note_On_55_Vel_77
Time_Shift_27
Note_On_39_Vel_0
Time_Shift_8
Note_On_58_Vel_0
Time_Shift_22
Note_On_55_Vel_0
Time_Shift_26
Note_On_63_Vel_82
Time_Shift_53
Note_On_63_Vel_0
Time_Shift_38
Note_On_46_Vel_87
Time_Shift_3
Note_On_56_Vel_61
Time_Shift_76
Note_On_64_Vel_79
Time_Shift_11
Sustain_On
Time_Shift_77
Note_On_56_Vel_0
Time_Shift_8
Note_On_46_Vel_0
Time_Shift_3
Note_On_56_Vel_75
Time_Shift_2
Note_On_38_Vel_78
Time_Shift_3
Note_On_58_Vel_69
Time_Shift_3
Note_On_46_Vel_67
Time_Shift_46
Note_On_38_Vel_0
Time_Shift_6
Note_On_56_Vel_0
Time_Shift_7
Sustain_Off
Time_Shift_7
Note_On_64_Vel_0
Time_Shift_7
Note_On_58_Vel_0
Time_Shift_12
Note_On_65_Vel_78
Time_Shift_49
Note_On_65_Vel_0
Time_Shift_16
Note_On_46_Vel_0
Time_Shift_15
Note_On_34_Vel_84
Time_Shift_4
Note_On_56_Vel_85
Note_On_58_Vel_79
Time_Shift_63
Note_On_56_Vel_0
Time_Shift_25
Note_On_66_Vel_83
Time_Shift_16
Note_On_34_Vel_0
Time_Shift_25
Note_On_66_Vel_0
Time_Shift_44
Note_On_58_Vel_0
Time_Shift_4
Note_On_27_Vel_83
Time_Shift_1
Note_On_39_Vel_80
Time_Shift_3
Note_On_67_Vel_91
Time_Shift_4
Note_On_58_Vel_78
Note_On_63_Vel_85
Note_On_55_Vel_81
Time_Shift_3
Note_On_27_Vel_0
Time_Shift_8
Sustain_On
Time_Shift_132
Note_On_67_Vel_0
Note_On_55_Vel_0
Note_On_58_Vel_0
Time_Shift_1
Note_On_39_Vel_0
Time_Shift_1
Note_On_63_Vel_0
Time_Shift_2
Sustain_Off
Time_Shift_60
Note_On_74_Vel_83
Time_Shift_1
Note_On_58_Vel_78
Time_Shift_1
Note_On_67_Vel_78
Time_Shift_82
Note_On_72_Vel_86
Time_Shift_75
Note_On_58_Vel_0
Time_Shift_11
Note_On_65_Vel_79
Note_On_70_Vel_84
Time_Shift_3
Note_On_67_Vel_0
Time_Shift_1
Note_On_50_Vel_73
Time_Shift_4
Note_On_72_Vel_0
Time_Shift_2
Note_On_74_Vel_0
Time_Shift_26
Note_On_50_Vel_0
Time_Shift_48
Note_On_58_Vel_83
Time_Shift_31
Note_On_58_Vel_0
Time_Shift_11
Note_On_65_Vel_0
Note_On_70_Vel_0
Time_Shift_58
Note_On_70_Vel_89
Time_Shift_5
Note_On_62_Vel_84
Time_Shift_34
Note_On_62_Vel_0
Time_Shift_24
Note_On_70_Vel_0
Time_Shift_6
Note_On_68_Vel_83
Time_Shift_89
Note_On_68_Vel_0
Time_Shift_15
Note_On_67_Vel_75
Time_Shift_1
Note_On_63_Vel_86
Time_Shift_4
Note_On_51_Vel_82
Time_Shift_51
Note_On_67_Vel_0
Time_Shift_4
Note_On_51_Vel_0
Time_Shift_36
Note_On_58_Vel_75
Time_Shift_4
Note_On_63_Vel_0
Time_Shift_32
Note_On_58_Vel_0
Time_Shift_64
Note_On_58_Vel_78
Note_On_74_Vel_82
Time_Shift_5
Note_On_67_Vel_79
Time_Shift_64
Note_On_67_Vel_0
Time_Shift_20
Note_On_74_Vel_0
Time_Shift_3
Note_On_72_Vel_84
Time_Shift_66
Note_On_58_Vel_0
Time_Shift_24
Note_On_68_Vel_71
Time_Shift_1
Note_On_70_Vel_76
Time_Shift_3
Note_On_50_Vel_71
Time_Shift_9
Note_On_72_Vel_0
Time_Shift_13
Note_On_70_Vel_0
Time_Shift_7
Note_On_68_Vel_0
Time_Shift_5
Note_On_50_Vel_0
Time_Shift_48
Note_On_58_Vel_84
Time_Shift_31
Note_On_58_Vel_0
Time_Shift_70
Note_On_70_Vel_83
Time_Shift_6
Note_On_62_Vel_78
Time_Shift_15
Note_On_46_Vel_60
Time_Shift_53
Note_On_70_Vel_0
Time_Shift_17
Note_On_68_Vel_57
Time_Shift_1
Note_On_62_Vel_0
Time_Shift_98
Note_On_68_Vel_0
Time_Shift_17
Note_On_66_Vel_62
Time_Shift_19
Note_On_63_Vel_56
Time_Shift_1
Note_On_59_Vel_53
Time_Shift_2
Note_On_47_Vel_59
Time_Shift_19
Note_On_46_Vel_0
Time_Shift_54
Sustain_On
Time_Shift_100
Note_On_66_Vel_0
Time_Shift_9
Note_On_66_Vel_67
Time_Shift_11
Note_On_47_Vel_0
Time_Shift_3
Note_On_63_Vel_0
Time_Shift_3
Note_On_54_Vel_75
Time_Shift_2
Note_On_63_Vel_71
Time_Shift_2
Sustain_Off
Time_Shift_16
Note_On_59_Vel_0
Time_Shift_44
Note_On_63_Vel_0
Time_Shift_13
Note_On_68_Vel_71
Time_Shift_92
Note_On_68_Vel_0
Time_Shift_4
Note_On_54_Vel_0
Note_On_66_Vel_0
Time_Shift_5
Note_On_42_Vel_76
Note_On_66_Vel_66
Time_Shift_2
Note_On_54_Vel_67
Time_Shift_3
Note_On_64_Vel_63
Time_Shift_6
Note_On_64_Vel_0
Time_Shift_20
Note_On_54_Vel_0
Time_Shift_34
Note_On_42_Vel_0
Note_On_66_Vel_0
Time_Shift_26
Note_On_69_Vel_74
Time_Shift_40
Note_On_69_Vel_0
Time_Shift_45
Note_On_54_Vel_81
Time_Shift_2
Note_On_66_Vel_76
Time_Shift_3
Note_On_64_Vel_66
Time_Shift_56
Note_On_66_Vel_0
Time_Shift_32
Note_On_70_Vel_76
Time_Shift_83
Note_On_47_Vel_78
Time_Shift_1
Note_On_66_Vel_75
Time_Shift_1
Note_On_70_Vel_0
Time_Shift_3
Note_On_63_Vel_72
Time_Shift_15
Note_On_64_Vel_0
Time_Shift_9
Note_On_47_Vel_0
Note_On_54_Vel_0
Time_Shift_10
Note_On_63_Vel_0
Time_Shift_19
Note_On_66_Vel_0
Time_Shift_35
Note_On_71_Vel_75
Time_Shift_35
Note_On_71_Vel_0
Time_Shift_55
Note_On_54_Vel_83
Time_Shift_4
Note_On_63_Vel_73
Time_Shift_2
Note_On_66_Vel_73
Time_Shift_71
Note_On_63_Vel_0
Time_Shift_8
Note_On_72_Vel_72
Time_Shift_63
Note_On_72_Vel_0
Time_Shift_16
Note_On_42_Vel_77
Time_Shift_3
Note_On_66_Vel_0
Time_Shift_8
Note_On_54_Vel_0
Note_On_66_Vel_72
Time_Shift_5
Note_On_64_Vel_77
Time_Shift_38
Note_On_66_Vel_0
Time_Shift_3
Note_On_42_Vel_0
Time_Shift_4
Note_On_64_Vel_0
Time_Shift_45
Note_On_73_Vel_75
Time_Shift_38
Note_On_73_Vel_0
Time_Shift_39
Note_On_54_Vel_86
Time_Shift_4
Note_On_66_Vel_80
Time_Shift_84
Note_On_74_Vel_72
Time_Shift_61
Note_On_74_Vel_0
Time_Shift_13
Note_On_54_Vel_0
Time_Shift_4
Note_On_66_Vel_0
Time_Shift_3
Note_On_47_Vel_81
Time_Shift_5
Note_On_66_Vel_78
Time_Shift_1
Note_On_63_Vel_82
Time_Shift_27
Note_On_47_Vel_0
Time_Shift_7
Note_On_63_Vel_0
Time_Shift_3
Note_On_66_Vel_0
Time_Shift_42
Note_On_75_Vel_79
Time_Shift_96
Note_On_75_Vel_0
Time_Shift_9
Note_On_78_Vel_83
Time_Shift_1
Note_On_66_Vel_73
Note_On_75_Vel_74
Time_Shift_85
Note_On_80_Vel_78
Time_Shift_20
Sustain_On
Time_Shift_62
Note_On_78_Vel_0
Time_Shift_4
Note_On_54_Vel_82
Time_Shift_2
Note_On_78_Vel_82
Time_Shift_5
Note_On_76_Vel_73
Time_Shift_91
Note_On_81_Vel_83
Time_Shift_82
Note_On_54_Vel_0
Note_On_76_Vel_0
Note_On_78_Vel_0
Time_Shift_4
Note_On_42_Vel_77
Time_Shift_2
Note_On_78_Vel_90
Time_Shift_4
Note_On_54_Vel_75
Time_Shift_1
Note_On_76_Vel_79
Time_Shift_9
Note_On_81_Vel_0
Time_Shift_1
Note_On_66_Vel_0
Time_Shift_3
Note_On_80_Vel_0
Time_Shift_7
Note_On_75_Vel_0
Time_Shift_4
Sustain_Off
Time_Shift_42
Note_On_76_Vel_0
Note_On_78_Vel_0
Time_Shift_7
Note_On_82_Vel_88
Time_Shift_54
Note_On_54_Vel_0
Sustain_On
Time_Shift_20
Note_On_47_Vel_75
Time_Shift_15
Note_On_75_Vel_79
Note_On_78_Vel_80
Time_Shift_102
Note_On_83_Vel_89
Time_Shift_78
Note_On_75_Vel_0
Note_On_78_Vel_0
Time_Shift_11
Note_On_66_Vel_83
Note_On_78_Vel_82
Time_Shift_1
Note_On_75_Vel_78
Time_Shift_25
Note_On_82_Vel_0
Time_Shift_1
Note_On_83_Vel_0
Note_On_47_Vel_0
Time_Shift_8
Sustain_Off
Time_Shift_51
Note_On_84_Vel_90
Time_Shift_11
Note_On_75_Vel_0
Time_Shift_15
Note_On_66_Vel_0
Time_Shift_8
Sustain_On
Time_Shift_7
Note_On_42_Vel_0
Time_Shift_39
Note_On_78_Vel_0
Time_Shift_7
Sustain_Off
Time_Shift_2
Note_On_78_Vel_92
Time_Shift_1
Note_On_54_Vel_83
Time_Shift_1
Note_On_76_Vel_85
Time_Shift_81
Sustain_On
Time_Shift_4
Note_On_85_Vel_97
Time_Shift_69
Sustain_Off
Time_Shift_4
Note_On_78_Vel_0
Note_On_84_Vel_0
Time_Shift_7
Note_On_54_Vel_0
Note_On_76_Vel_0
Time_Shift_4
Note_On_78_Vel_87
Time_Shift_1
Note_On_42_Vel_76
Time_Shift_1
Note_On_54_Vel_74
Time_Shift_6
Note_On_76_Vel_83
Time_Shift_78
Note_On_54_Vel_0
Note_On_85_Vel_0
Time_Shift_3
Note_On_78_Vel_0
Time_Shift_4
Note_On_86_Vel_91
Time_Shift_4
Note_On_78_Vel_73
Time_Shift_7
Note_On_76_Vel_0
Time_Shift_73
Note_On_47_Vel_73
Time_Shift_4
Note_On_78_Vel_0
Time_Shift_4
Note_On_78_Vel_87
Time_Shift_6
Note_On_75_Vel_80
Time_Shift_92
Note_On_87_Vel_78
Time_Shift_87
Note_On_75_Vel_0
Note_On_87_Vel_0
Time_Shift_2
Note_On_86_Vel_0
Note_On_78_Vel_0
Time_Shift_3
Note_On_47_Vel_0
Time_Shift_5
Note_On_42_Vel_0
Time_Shift_1
Note_On_89_Vel_92
Time_Shift_4
Note_On_81_Vel_74
Time_Shift_49
Sustain_On
Time_Shift_32
Note_On_87_Vel_86
Time_Shift_94
Note_On_82_Vel_82
Time_Shift_1
Note_On_58_Vel_64
Note_On_86_Vel_74
Time_Shift_95
Note_On_77_Vel_69
Time_Shift_6
Note_On_87_Vel_0
Time_Shift_1
Note_On_89_Vel_0
Time_Shift_3
Note_On_81_Vel_0
Note_On_86_Vel_0
Time_Shift_1
Note_On_58_Vel_0
Sustain_Off
Time_Shift_1
Note_On_82_Vel_0
Time_Shift_43
Note_On_77_Vel_0
Time_Shift_25
Note_On_86_Vel_85
Time_Shift_2
Note_On_80_Vel_77
Note_On_70_Vel_86
Time_Shift_89
Note_On_82_Vel_87
Time_Shift_94
Note_On_63_Vel_82
Time_Shift_3
Note_On_85_Vel_82
Time_Shift_3
Note_On_79_Vel_77
Time_Shift_8
Note_On_82_Vel_0
Time_Shift_6
Note_On_80_Vel_0
Note_On_70_Vel_0
Time_Shift_5
Note_On_63_Vel_0
Time_Shift_10
Note_On_86_Vel_0
Time_Shift_46
Note_On_79_Vel_0
Time_Shift_16
Note_On_73_Vel_78
Time_Shift_2
Note_On_70_Vel_59
Time_Shift_7
Note_On_85_Vel_0
Time_Shift_21
Note_On_73_Vel_0
Time_Shift_8
Note_On_70_Vel_0
Time_Shift_47
Note_On_51_Vel_94
Time_Shift_5
Note_On_79_Vel_72
Time_Shift_6
Note_On_87_Vel_78
Time_Shift_14
Note_On_51_Vel_0
Time_Shift_71
Note_On_85_Vel_84
Time_Shift_19
Note_On_79_Vel_0
Note_On_87_Vel_0
Time_Shift_78
Note_On_39_Vel_100
Time_Shift_1
Note_On_84_Vel_92
Time_Shift_36
Sustain_On
Time_Shift_7
Note_On_85_Vel_0
Time_Shift_43
Note_On_73_Vel_91
Time_Shift_34
Note_On_84_Vel_0
Time_Shift_1
Sustain_Off
Time_Shift_30
Note_On_73_Vel_0
Time_Shift_36
Note_On_85_Vel_100
Time_Shift_4
Note_On_79_Vel_97
Time_Shift_2
Note_On_51_Vel_70
Time_Shift_4
Note_On_51_Vel_0
Time_Shift_38
Note_On_79_Vel_0
Note_On_85_Vel_0
Time_Shift_128
Note_On_84_Vel_91
Time_Shift_3
Note_On_39_Vel_0
Time_Shift_2
Note_On_78_Vel_92
Time_Shift_1
Note_On_44_Vel_84
Time_Shift_17
Note_On_78_Vel_0
Time_Shift_10
Note_On_44_Vel_0
Time_Shift_16
Note_On_84_Vel_0
Time_Shift_49
Note_On_75_Vel_85
Note_On_87_Vel_76
Time_Shift_32
Note_On_79_Vel_66
Time_Shift_5
Note_On_75_Vel_0
Time_Shift_22
Note_On_87_Vel_0
Time_Shift_23
Note_On_79_Vel_0
Time_Shift_10
Note_On_85_Vel_91
Time_Shift_8
Note_On_56_Vel_69
Time_Shift_2
Note_On_44_Vel_64
Time_Shift_69
Note_On_84_Vel_82
Time_Shift_57
Note_On_44_Vel_0
Time_Shift_30
Note_On_61_Vel_77
Time_Shift_4
Note_On_83_Vel_86
Time_Shift_8
Note_On_77_Vel_71
Time_Shift_53
Note_On_61_Vel_0
Note_On_56_Vel_0
Time_Shift_1
Note_On_84_Vel_0
Note_On_77_Vel_0
Time_Shift_2
Note_On_85_Vel_0
Time_Shift_8
Note_On_83_Vel_0
Time_Shift_15
Note_On_71_Vel_80
Time_Shift_34
Note_On_71_Vel_0
Time_Shift_57
Note_On_73_Vel_86
Time_Shift_4
Note_On_83_Vel_83
Time_Shift_2
Note_On_77_Vel_77
Time_Shift_89
Note_On_80_Vel_83
Time_Shift_78
Note_On_66_Vel_84
Time_Shift_9
Note_On_82_Vel_86
Time_Shift_5
Note_On_83_Vel_0
Time_Shift_1
Note_On_76_Vel_61
Time_Shift_10
Note_On_80_Vel_0
Time_Shift_2
Note_On_73_Vel_0
Time_Shift_2
Note_On_66_Vel_0
Note_On_77_Vel_0
Time_Shift_62
Note_On_76_Vel_0
Time_Shift_8
Note_On_70_Vel_80
Time_Shift_35
Note_On_82_Vel_0
Note_On_70_Vel_0
Time_Shift_53
Note_On_54_Vel_95
Time_Shift_2
Note_On_84_Vel_87
Time_Shift_1
Note_On_76_Vel_74
Time_Shift_31
Note_On_54_Vel_0
Time_Shift_42
Note_On_84_Vel_0
Time_Shift_13
Note_On_82_Vel_89
Time_Shift_45
Note_On_76_Vel_0
Note_On_82_Vel_0
Time_Shift_67
Note_On_81_Vel_80
Time_Shift_5
Note_On_42_Vel_104
Time_Shift_84
Note_On_70_Vel_84
Time_Shift_98
Note_On_70_Vel_0
Time_Shift_4
Note_On_82_Vel_96
Time_Shift_4
Note_On_76_Vel_93
Time_Shift_15
Note_On_81_Vel_0
Time_Shift_4
Note_On_76_Vel_0
Time_Shift_3
Note_On_82_Vel_0
Time_Shift_138
Note_On_42_Vel_0
Time_Shift_19
Note_On_41_Vel_80
Note_On_81_Vel_93
Time_Shift_1
Note_On_77_Vel_85
Time_Shift_28
Note_On_81_Vel_0
Time_Shift_14
Note_On_41_Vel_0
Note_On_77_Vel_0
Time_Shift_140
Note_On_93_Vel_90
Time_Shift_2
Note_On_96_Vel_90
Time_Shift_4
Note_On_60_Vel_65
Time_Shift_1
Note_On_57_Vel_73
Time_Shift_3
Note_On_65_Vel_69
Time_Shift_14
Note_On_53_Vel_52
Time_Shift_15
Note_On_57_Vel_0
Time_Shift_1
Note_On_65_Vel_0
Time_Shift_1
Note_On_60_Vel_0
Time_Shift_19
Note_On_93_Vel_0
Time_Shift_7
Note_On_53_Vel_0
Time_Shift_6
Note_On_98_Vel_87
Time_Shift_6
Note_On_94_Vel_95
Time_Shift_27
Note_On_96_Vel_0
Note_On_98_Vel_0
Time_Shift_9
Note_On_94_Vel_0
Time_Shift_49
Note_On_48_Vel_87
Time_Shift_2
Note_On_93_Vel_84
Time_Shift_3
Note_On_96_Vel_89
Time_Shift_20
Note_On_48_Vel_0
Time_Shift_47
Note_On_93_Vel_0
Time_Shift_20
Note_On_95_Vel_92
Note_On_92_Vel_90
Time_Shift_19
Note_On_96_Vel_0
Time_Shift_64
Note_On_65_Vel_70
Time_Shift_1
Note_On_57_Vel_70
Note_On_91_Vel_89
Time_Shift_1
Note_On_94_Vel_93
Note_On_60_Vel_67
Time_Shift_18
Note_On_92_Vel_0
Time_Shift_3
Note_On_65_Vel_0
Time_Shift_1
Note_On_57_Vel_0
Time_Shift_5
Note_On_91_Vel_0
Time_Shift_22
Note_On_60_Vel_0
Note_On_95_Vel_0
Time_Shift_38
Note_On_93_Vel_85
Time_Shift_4
Note_On_89_Vel_88
Time_Shift_78
Note_On_48_Vel_76
Time_Shift_4
Note_On_91_Vel_93
Time_Shift_14
Sustain_On
Time_Shift_62
Note_On_93_Vel_0
Time_Shift_6
Note_On_93_Vel_88
Time_Shift_78
Note_On_94_Vel_0
Note_On_93_Vel_0
Time_Shift_1
Note_On_89_Vel_0
Time_Shift_1
Note_On_48_Vel_0
Time_Shift_2
Sustain_Off
Time_Shift_4
Note_On_91_Vel_0
Time_Shift_4
Note_On_58_Vel_73
Note_On_64_Vel_74
Note_On_60_Vel_71
Time_Shift_3
Note_On_88_Vel_87
Note_On_91_Vel_83
Time_Shift_29
Note_On_58_Vel_0
Time_Shift_1
Note_On_64_Vel_0
Time_Shift_32
Note_On_88_Vel_0
Time_Shift_15
Note_On_91_Vel_0
Time_Shift_12
Note_On_86_Vel_83
Time_Shift_27
Note_On_86_Vel_0
Time_Shift_7
Note_On_60_Vel_0
Time_Shift_73
Note_On_58_Vel_49
Note_On_64_Vel_61
Note_On_84_Vel_80
Time_Shift_1
Note_On_60_Vel_59
Time_Shift_23
Note_On_84_Vel_0
Note_On_60_Vel_0
Time_Shift_2
Note_On_64_Vel_0
Time_Shift_24
Note_On_58_Vel_0
Time_Shift_35
Note_On_93_Vel_71
Time_Shift_80
Note_On_93_Vel_0
Time_Shift_15
Note_On_60_Vel_65
Time_Shift_4
Note_On_58_Vel_66
Time_Shift_1
Note_On_64_Vel_69
Time_Shift_5
Note_On_82_Vel_80
Time_Shift_24
Note_On_64_Vel_0
Note_On_60_Vel_0
Time_Shift_1
Note_On_58_Vel_0
Time_Shift_1
Note_On_82_Vel_0
Time_Shift_44
Note_On_91_Vel_79
Time_Shift_54
Note_On_91_Vel_0
Time_Shift_30
Note_On_53_Vel_94
Time_Shift_8
Note_On_89_Vel_81
Note_On_81_Vel_77
Time_Shift_13
Sustain_On
Time_Shift_26
Note_On_53_Vel_0
Time_Shift_17
Sustain_Off
Time_Shift_4
Note_On_81_Vel_0
Time_Shift_68
Note_On_89_Vel_0
Time_Shift_44
Note_On_57_Vel_76
Note_On_65_Vel_79
Time_Shift_5
Note_On_84_Vel_82
Time_Shift_1
Note_On_60_Vel_69
Time_Shift_1
Note_On_81_Vel_78
Time_Shift_15
Note_On_65_Vel_0
Time_Shift_7
Note_On_57_Vel_0
Note_On_60_Vel_0
Time_Shift_35
Note_On_81_Vel_0
Time_Shift_7
Note_On_84_Vel_0
Time_Shift_13
Note_On_86_Vel_87
Time_Shift_4
Note_On_82_Vel_85
Time_Shift_41
Note_On_82_Vel_0
Time_Shift_37
Note_On_48_Vel_76
Time_Shift_1
Note_On_84_Vel_85
Time_Shift_3
Note_On_81_Vel_78
Time_Shift_2
Note_On_86_Vel_0
Time_Shift_15
Note_On_48_Vel_0
Time_Shift_70
Note_On_83_Vel_88
Time_Shift_1
Note_On_80_Vel_80
Time_Shift_13
Note_On_84_Vel_0
Time_Shift_8
Note_On_81_Vel_0
Time_Shift_23
Note_On_80_Vel_0
Time_Shift_34
Note_On_79_Vel_82
Time_Shift_2
Note_On_60_Vel_71
Time_Shift_1
Note_On_57_Vel_71
Time_Shift_1
Note_On_65_Vel_78
Time_Shift_3
Note_On_82_Vel_87
Time_Shift_13
Note_On_83_Vel_0
Time_Shift_8
Note_On_65_Vel_0
Time_Shift_1
Note_On_60_Vel_0
Time_Shift_16
Note_On_79_Vel_0
Time_Shift_5
Note_On_57_Vel_0
Time_Shift_5
Note_On_82_Vel_0
Time_Shift_32
Note_On_81_Vel_87
Time_Shift_3
Note_On_77_Vel_82
Time_Shift_83
Sustain_On
Time_Shift_5
Note_On_48_Vel_70
Note_On_79_Vel_88
Time_Shift_72
Note_On_81_Vel_0
Time_Shift_11
Note_On_81_Vel_92
Time_Shift_81
Note_On_79_Vel_0
Time_Shift_4
Note_On_77_Vel_0
Time_Shift_2
Note_On_48_Vel_0
Time_Shift_2
Sustain_Off
Time_Shift_2
Note_On_79_Vel_81
Time_Shift_2
Note_On_60_Vel_63
Time_Shift_2
Note_On_58_Vel_65
Note_On_64_Vel_64
Time_Shift_1
Note_On_76_Vel_74
Time_Shift_16
Note_On_81_Vel_0
Time_Shift_5
Note_On_60_Vel_0
Time_Shift_8
Note_On_58_Vel_0
Time_Shift_1
Note_On_64_Vel_0
Time_Shift_32
Note_On_76_Vel_0
Time_Shift_23
Note_On_74_Vel_70
Time_Shift_37
Note_On_74_Vel_0
Time_Shift_64
Note_On_64_Vel_69
Time_Shift_2
Note_On_58_Vel_57
Time_Shift_1
Note_On_60_Vel_61
Note_On_72_Vel_70
Time_Shift_27
Note_On_64_Vel_0
Time_Shift_1
Note_On_58_Vel_0
Time_Shift_22
Note_On_60_Vel_0
Time_Shift_7
Note_On_72_Vel_0
Time_Shift_23
Note_On_79_Vel_0
Time_Shift_5
Note_On_81_Vel_79
Time_Shift_80
Note_On_58_Vel_68
Time_Shift_4
Note_On_64_Vel_64
Note_On_60_Vel_59
Time_Shift_8
Note_On_70_Vel_68
Time_Shift_22
Note_On_58_Vel_0
Time_Shift_2
Note_On_60_Vel_0
Time_Shift_1
Note_On_64_Vel_0
Time_Shift_24
Note_On_81_Vel_0
Time_Shift_11
Note_On_70_Vel_0
Time_Shift_19
Note_On_79_Vel_70
Time_Shift_71
Note_On_41_Vel_64
Time_Shift_27
Note_On_79_Vel_0
Time_Shift_31
Note_On_41_Vel_0
Time_Shift_3
Note_On_77_Vel_66
Time_Shift_25
Note_On_69_Vel_45
Time_Shift_21
Sustain_On
Time_Shift_112
Sustain_Off
Time_Shift_57
Note_On_77_Vel_0
Time_Shift_2
Note_On_81_Vel_76
Time_Shift_8
Note_On_77_Vel_71
Time_Shift_8
Note_On_57_Vel_49
Time_Shift_58
Sustain_On
Time_Shift_19
Note_On_82_Vel_84
Time_Shift_35
Note_On_69_Vel_0
Time_Shift_31
Note_On_81_Vel_0
Time_Shift_9
Note_On_81_Vel_80
Time_Shift_12
Note_On_61_Vel_82
Time_Shift_68
Note_On_80_Vel_90
Time_Shift_90
Note_On_79_Vel_90
Time_Shift_2
Note_On_76_Vel_86
Time_Shift_2
Note_On_62_Vel_75
Time_Shift_78
Note_On_77_Vel_0
Time_Shift_5
Note_On_77_Vel_88
Note_On_74_Vel_78
Time_Shift_30
Note_On_57_Vel_0
Time_Shift_1
Note_On_61_Vel_0
Note_On_82_Vel_0
Time_Shift_1
Note_On_76_Vel_0
Note_On_79_Vel_0
Note_On_81_Vel_0
Note_On_80_Vel_0
Note_On_62_Vel_0
Time_Shift_3
Sustain_Off
Time_Shift_49
Note_On_45_Vel_70
Time_Shift_3
Note_On_76_Vel_83
Time_Shift_8
Note_On_77_Vel_0
Time_Shift_19
Note_On_45_Vel_0
Time_Shift_30
Note_On_76_Vel_0
Time_Shift_22
Note_On_77_Vel_81
Time_Shift_37
Note_On_74_Vel_0
Time_Shift_49
Note_On_77_Vel_0
Time_Shift_5
Note_On_57_Vel_73
Time_Shift_1
Note_On_76_Vel_79
Time_Shift_52
Sustain_On
Time_Shift_20
Note_On_60_Vel_72
Time_Shift_5
Note_On_72_Vel_68
Time_Shift_8
Note_On_74_Vel_58
Time_Shift_59
Note_On_57_Vel_0
Time_Shift_15
Note_On_74_Vel_0
Time_Shift_5
Note_On_46_Vel_81
Time_Shift_1
Note_On_74_Vel_74
Time_Shift_18
Note_On_72_Vel_0
Time_Shift_8
Sustain_Off
Time_Shift_7
Note_On_60_Vel_0
Time_Shift_15
Note_On_46_Vel_0
Time_Shift_21
Note_On_74_Vel_0
Time_Shift_17
Note_On_76_Vel_0
Time_Shift_9
Note_On_76_Vel_72
Time_Shift_84
Sustain_On
Time_Shift_11
Note_On_58_Vel_70
Note_On_74_Vel_69
Time_Shift_86
Note_On_62_Vel_60
Time_Shift_19
Note_On_70_Vel_70
Time_Shift_81
Note_On_48_Vel_68
Time_Shift_14
Note_On_72_Vel_67
Time_Shift_49
Note_On_58_Vel_0
Time_Shift_1
Note_On_74_Vel_0
Time_Shift_1
Note_On_76_Vel_0
Note_On_62_Vel_0
Time_Shift_1
Note_On_70_Vel_0
Time_Shift_2
Sustain_Off
Time_Shift_28
Note_On_72_Vel_0
Time_Shift_13
Note_On_74_Vel_65
Time_Shift_32
Sustain_On
Time_Shift_45
Note_On_72_Vel_75
Time_Shift_1
Note_On_60_Vel_73
Time_Shift_1
Note_On_53_Vel_65
Time_Shift_1
Note_On_57_Vel_66
Time_Shift_85
Note_On_77_Vel_87
Note_On_69_Vel_80
Time_Shift_91
Note_On_49_Vel_75
Time_Shift_2
Note_On_70_Vel_93
Time_Shift_81
Note_On_72_Vel_0
Time_Shift_5
Sustain_Off
Time_Shift_2
Note_On_72_Vel_89
Time_Shift_4
Note_On_48_Vel_0
Time_Shift_2
Note_On_57_Vel_0
Time_Shift_2
Note_On_60_Vel_0
Time_Shift_23
Sustain_On
Time_Shift_46
Note_On_70_Vel_0
Time_Shift_8
Note_On_70_Vel_84
Time_Shift_2
Note_On_64_Vel_84
Time_Shift_1
Note_On_58_Vel_81
Time_Shift_3
Note_On_55_Vel_74
Time_Shift_82
Note_On_76_Vel_95
Time_Shift_4
Note_On_67_Vel_80
Time_Shift_86
Sustain_Off
Time_Shift_2
Note_On_70_Vel_0
Note_On_58_Vel_0
Note_On_64_Vel_0
Time_Shift_1
Note_On_49_Vel_0
Note_On_76_Vel_0
Time_Shift_3
Note_On_55_Vel_0
Note_On_67_Vel_0
Note_On_69_Vel_0
Note_On_74_Vel_0
Note_On_77_Vel_0
Time_Shift_4
Note_On_50_Vel_82
Note_On_59_Vel_87
Note_On_77_Vel_96
Time_Shift_1
Note_On_67_Vel_90
Time_Shift_2
Note_On_55_Vel_81
Time_Shift_1
Note_On_53_Vel_0
Note_On_72_Vel_0
Time_Shift_46
Sustain_On
Time_Shift_32
Note_On_71_Vel_86
Time_Shift_89
Note_On_74_Vel_88
Time_Shift_86
Note_On_71_Vel_0
Note_On_77_Vel_0
Time_Shift_7
Note_On_77_Vel_80
Time_Shift_3
Note_On_71_Vel_75
Time_Shift_90
Note_On_67_Vel_0
Time_Shift_1
Note_On_59_Vel_0
Note_On_71_Vel_0
Note_On_74_Vel_0
Time_Shift_1
Note_On_55_Vel_0
Sustain_Off
Time_Shift_1
Note_On_50_Vel_0
Note_On_77_Vel_0
Time_Shift_1
Note_On_67_Vel_93
Time_Shift_1
Note_On_60_Vel_88
Time_Shift_1
Note_On_52_Vel_87
Note_On_70_Vel_100
Time_Shift_2
Note_On_76_Vel_89
Time_Shift_54
Sustain_On
Time_Shift_36
Note_On_72_Vel_92
Time_Shift_79
Note_On_70_Vel_0
Note_On_76_Vel_0
Time_Shift_8
Note_On_70_Vel_71
Time_Shift_1
Note_On_76_Vel_95
Time_Shift_78
Note_On_82_Vel_97
Time_Shift_89
Note_On_60_Vel_0
Note_On_72_Vel_0
Time_Shift_5
Note_On_72_Vel_92
Time_Shift_1
Note_On_77_Vel_95
Time_Shift_2
Note_On_65_Vel_99
Note_On_60_Vel_98
Time_Shift_2
Note_On_67_Vel_0
Time_Shift_1
Note_On_76_Vel_0
Note_On_53_Vel_93
Note_On_57_Vel_90
Time_Shift_1
Note_On_52_Vel_0
Note_On_82_Vel_0
Time_Shift_2
Sustain_Off
Time_Shift_10
Note_On_70_Vel_0
Time_Shift_53
Sustain_On
Time_Shift_8
Note_On_77_Vel_0
Time_Shift_10
Note_On_77_Vel_90
Time_Shift_93
Note_On_81_Vel_95
Time_Shift_85
Note_On_86_Vel_97
Time_Shift_81
Note_On_77_Vel_0
Time_Shift_10
Note_On_77_Vel_94
Time_Shift_1
Note_On_84_Vel_95
Time_Shift_26
Note_On_81_Vel_0
Time_Shift_3
Note_On_57_Vel_0
Time_Shift_1
Sustain_Off
Time_Shift_1
Note_On_65_Vel_0
Note_On_72_Vel_0
Note_On_53_Vel_0
Note_On_86_Vel_0
Time_Shift_19
Note_On_60_Vel_0
Time_Shift_37
Note_On_81_Vel_96
Time_Shift_2
Sustain_On
Time_Shift_23
Note_On_84_Vel_0
Time_Shift_54
Note_On_84_Vel_89
Time_Shift_77
Note_On_59_Vel_78
Time_Shift_1
Note_On_91_Vel_104
Time_Shift_32
Sustain_Off
Time_Shift_35
Note_On_77_Vel_0
Time_Shift_5
Note_On_68_Vel_92
Time_Shift_5
Note_On_81_Vel_0
Time_Shift_1
Note_On_65_Vel_74
Time_Shift_9
Note_On_74_Vel_99
Time_Shift_8
Note_On_80_Vel_98
Time_Shift_2
Note_On_86_Vel_90
Time_Shift_1
Note_On_89_Vel_92
Time_Shift_8
Sustain_On
Time_Shift_77
Note_On_86_Vel_0
Time_Shift_7
Note_On_86_Vel_91
Time_Shift_69
Note_On_89_Vel_0
Time_Shift_8
Note_On_89_Vel_97
Time_Shift_77
Note_On_86_Vel_0
Time_Shift_6
Note_On_86_Vel_78
Time_Shift_4
Note_On_94_Vel_91
Time_Shift_66
Sustain_Off
Time_Shift_1
Note_On_86_Vel_0
Time_Shift_7
Note_On_91_Vel_0
Time_Shift_1
Note_On_86_Vel_96
Time_Shift_2
Note_On_92_Vel_98
Time_Shift_5
Note_On_84_Vel_0
Time_Shift_1
Note_On_74_Vel_0
Time_Shift_2
Note_On_68_Vel_0
Note_On_80_Vel_0
Time_Shift_1
Note_On_89_Vel_0
Note_On_65_Vel_0
Time_Shift_4
Note_On_59_Vel_0
Time_Shift_38
Sustain_On
Time_Shift_32
Note_On_89_Vel_103
Time_Shift_68
Note_On_92_Vel_0
Time_Shift_10
Note_On_92_Vel_102
Time_Shift_73
Note_On_101_Vel_106
Time_Shift_140
Note_On_93_Vel_107
Note_On_96_Vel_104
Time_Shift_11
Note_On_72_Vel_92
Time_Shift_4
Note_On_86_Vel_0
Time_Shift_5
Note_On_60_Vel_75
Time_Shift_1
Note_On_65_Vel_80
Time_Shift_12
Sustain_Off
Time_Shift_25
Note_On_65_Vel_0
Time_Shift_11
Note_On_94_Vel_0
Time_Shift_7
Note_On_89_Vel_0
Note_On_92_Vel_0
Time_Shift_5
Note_On_95_Vel_98
Time_Shift_3
Note_On_92_Vel_97
Time_Shift_15
Note_On_60_Vel_0
Time_Shift_8
Note_On_72_Vel_0
Note_On_101_Vel_0
Time_Shift_31
Note_On_93_Vel_0
Time_Shift_20
Note_On_94_Vel_102
Time_Shift_23
Note_On_91_Vel_93
Time_Shift_18
Note_On_36_Vel_69
Time_Shift_8
Sustain_On
Time_Shift_65
Note_On_93_Vel_97
Note_On_89_Vel_101
Time_Shift_1
Note_On_41_Vel_80
Time_Shift_74
Note_On_45_Vel_83
Time_Shift_6
Note_On_91_Vel_0
Time_Shift_9
Note_On_88_Vel_94
Time_Shift_2
Note_On_91_Vel_93
Time_Shift_70
Note_On_48_Vel_85
Time_Shift_3
Note_On_89_Vel_0
Time_Shift_7
Note_On_89_Vel_94
Note_On_86_Vel_90
Time_Shift_78
Note_On_88_Vel_0
Time_Shift_9
Note_On_88_Vel_87
Time_Shift_1
Note_On_84_Vel_90
Time_Shift_1
Note_On_53_Vel_67
Time_Shift_73
Note_On_86_Vel_0
Time_Shift_11
Note_On_86_Vel_86
Time_Shift_1
Note_On_82_Vel_95
Time_Shift_6
Note_On_57_Vel_73
Time_Shift_33
Sustain_Off
Time_Shift_1
Note_On_36_Vel_0
Note_On_89_Vel_0
Note_On_91_Vel_0
Note_On_88_Vel_0
Note_On_94_Vel_0
Time_Shift_1
Note_On_92_Vel_0
Note_On_41_Vel_0
Time_Shift_1
Note_On_96_Vel_0
Note_On_45_Vel_0
Note_On_48_Vel_0
Note_On_95_Vel_0
Time_Shift_8
Note_On_93_Vel_0
Time_Shift_15
Note_On_53_Vel_0
Time_Shift_8
Note_On_84_Vel_0
Time_Shift_11
Note_On_84_Vel_88
Time_Shift_1
Note_On_81_Vel_92
Time_Shift_1
Note_On_60_Vel_89
Time_Shift_10
Note_On_82_Vel_0
Sustain_On
Time_Shift_54
Note_On_86_Vel_0
Time_Shift_21
Note_On_80_Vel_86
Time_Shift_3
Note_On_83_Vel_88
Time_Shift_75
Note_On_60_Vel_0
Time_Shift_3
Note_On_82_Vel_94
Time_Shift_1
Note_On_79_Vel_91
Time_Shift_8
Note_On_60_Vel_72
Note_On_72_Vel_80
Time_Shift_62
Note_On_79_Vel_0
Time_Shift_2
Note_On_80_Vel_0
Time_Shift_1
Note_On_81_Vel_0
Time_Shift_2
Note_On_84_Vel_0
Time_Shift_2
Note_On_83_Vel_0
Note_On_82_Vel_0
Time_Shift_3
Note_On_81_Vel_93
Time_Shift_3
Note_On_77_Vel_94
Time_Shift_6
Sustain_Off
Time_Shift_76
Note_On_72_Vel_0
Time_Shift_4
Note_On_79_Vel_87
Time_Shift_4
Sustain_On
Time_Shift_1
Note_On_72_Vel_79
Note_On_76_Vel_84
Time_Shift_61
Note_On_81_Vel_0
Time_Shift_7
Note_On_77_Vel_0
Time_Shift_10
Note_On_82_Vel_90
Note_On_77_Vel_73
Time_Shift_72
Note_On_81_Vel_83
Time_Shift_3
Note_On_72_Vel_0
Time_Shift_15
Sustain_Off
Time_Shift_15
Note_On_77_Vel_0
Time_Shift_6
Note_On_70_Vel_54
Time_Shift_48
Note_On_79_Vel_0
Time_Shift_5
Note_On_79_Vel_74
Time_Shift_11
Sustain_On
Time_Shift_38
Sustain_Off
Time_Shift_8
Note_On_82_Vel_0
Time_Shift_7
Note_On_76_Vel_0
Time_Shift_4
Note_On_79_Vel_0
Time_Shift_3
Note_On_70_Vel_0
Time_Shift_1
Note_On_81_Vel_0
Time_Shift_14
Note_On_60_Vel_0
Time_Shift_11
Note_On_77_Vel_66
Time_Shift_25
Note_On_72_Vel_39
Time_Shift_4
Note_On_69_Vel_46
Time_Shift_5
Note_On_65_Vel_33
Time_Shift_102
Sustain_On
Time_Shift_46
Note_On_57_Vel_0
Time_Shift_27
Note_On_69_Vel_0
Time_Shift_1
Note_On_65_Vel_0
Sustain_Off
Time_Shift_11
Note_On_77_Vel_0
Time_Shift_38
Note_On_72_Vel_0
Time_Shift_128
Note_On_53_Vel_107
Time_Shift_4
Note_On_48_Vel_101
Time_Shift_1
Note_On_57_Vel_91
Note_On_64_Vel_100
Time_Shift_1
Note_On_41_Vel_97
Time_Shift_27
Sustain_On
Time_Shift_47
Note_On_65_Vel_85
Time_Shift_76
Note_On_69_Vel_85
Time_Shift_103
Note_On_72_Vel_83
Time_Shift_81
Note_On_68_Vel_86
Time_Shift_62
Note_On_69_Vel_0
Time_Shift_10
Note_On_69_Vel_88
Time_Shift_82
Note_On_72_Vel_0
Time_Shift_11
Note_On_72_Vel_87
Time_Shift_93
Note_On_77_Vel_87
Time_Shift_71
Sustain_Off
Time_Shift_17
Note_On_53_Vel_0
Note_On_57_Vel_0
Note_On_65_Vel_0
Time_Shift_4
Note_On_65_Vel_103
Time_Shift_3
Note_On_60_Vel_98
Note_On_53_Vel_97
Time_Shift_3
Note_On_57_Vel_95
Note_On_71_Vel_90
Time_Shift_75
Note_On_72_Vel_0
Time_Shift_4
Note_On_72_Vel_78
Time_Shift_34
Sustain_On
Time_Shift_54
Note_On_77_Vel_0
Time_Shift_4
Note_On_77_Vel_78
Time_Shift_12
Sustain_Off
Time_Shift_22
Sustain_On
Time_Shift_58
Note_On_81_Vel_79
Time_Shift_34
Note_On_72_Vel_0
Time_Shift_4
Note_On_72_Vel_69
Time_Shift_47
Note_On_76_Vel_86
Time_Shift_56
Sustain_Off
Time_Shift_9
Note_On_41_Vel_0
Time_Shift_1
Note_On_65_Vel_0
Note_On_76_Vel_0
Note_On_53_Vel_0
Note_On_71_Vel_0
Time_Shift_1
Note_On_57_Vel_0
Note_On_72_Vel_0
Note_On_48_Vel_0
Note_On_60_Vel_0
Time_Shift_2
Note_On_81_Vel_0
Time_Shift_3
Note_On_68_Vel_0
Note_On_77_Vel_0
Time_Shift_8
Note_On_64_Vel_0
Note_On_69_Vel_0
Time_Shift_2
Note_On_77_Vel_80
Time_Shift_59
Sustain_On
Time_Shift_25
Note_On_65_Vel_88
Time_Shift_3
Note_On_81_Vel_78
Note_On_60_Vel_77
Time_Shift_1
Note_On_57_Vel_72
Time_Shift_1
Note_On_53_Vel_74
Time_Shift_63
Note_On_81_Vel_0
Time_Shift_10
Note_On_84_Vel_75
Note_On_81_Vel_67
Time_Shift_87
Note_On_80_Vel_86
Time_Shift_72
Note_On_81_Vel_0
Time_Shift_4
Note_On_81_Vel_84
Time_Shift_2
Note_On_53_Vel_0
Time_Shift_1
Note_On_65_Vel_0
Note_On_57_Vel_0
Time_Shift_1
Note_On_77_Vel_0
Time_Shift_1
Note_On_84_Vel_0
Note_On_60_Vel_0
Note_On_80_Vel_0
Sustain_Off
Time_Shift_71
Note_On_65_Vel_98
Time_Shift_4
Note_On_60_Vel_88
Time_Shift_2
Note_On_84_Vel_87
Time_Shift_1
Note_On_53_Vel_88
Note_On_57_Vel_82
Time_Shift_5
Sustain_On
Time_Shift_7
Note_On_81_Vel_0
Time_Shift_73
Note_On_89_Vel_92
Time_Shift_84
Note_On_83_Vel_92
Time_Shift_66
Note_On_84_Vel_0
Time_Shift_11
Note_On_84_Vel_87
Time_Shift_29
Sustain_Off
Time_Shift_4
Note_On_57_Vel_0
Note_On_53_Vel_0
Note_On_65_Vel_0
Note_On_60_Vel_0
Note_On_83_Vel_0
Time_Shift_41
Note_On_89_Vel_0
Time_Shift_4
Note_On_89_Vel_96
Time_Shift_9
Note_On_65_Vel_96
Time_Shift_2
Note_On_57_Vel_85
Time_Shift_1
Note_On_60_Vel_88
Time_Shift_3
Note_On_53_Vel_88
Time_Shift_20
Note_On_84_Vel_0
Time_Shift_22
Note_On_53_Vel_0
Note_On_57_Vel_0
Note_On_60_Vel_0
Note_On_65_Vel_0
Time_Shift_31
Note_On_89_Vel_0
Time_Shift_3
Note_On_93_Vel_91
Time_Shift_83
Note_On_65_Vel_101
Time_Shift_4
Note_On_57_Vel_87
Time_Shift_2
Note_On_53_Vel_89
Time_Shift_2
Note_On_60_Vel_86
Time_Shift_1
Note_On_88_Vel_90
Time_Shift_20
Note_On_93_Vel_0
Note_On_53_Vel_0
Note_On_57_Vel_0
Time_Shift_15
Note_On_65_Vel_0
Time_Shift_8
Note_On_60_Vel_0
Time_Shift_31
Note_On_88_Vel_0
Time_Shift_4
Note_On_89_Vel_98
Time_Shift_78
Note_On_93_Vel_96
Time_Shift_1
Note_On_65_Vel_101
Time_Shift_4
Note_On_53_Vel_94
Note_On_60_Vel_82
Time_Shift_1
Note_On_57_Vel_86
Time_Shift_25
Note_On_65_Vel_0
Time_Shift_3
Note_On_57_Vel_0
Time_Shift_1
Note_On_60_Vel_0
Time_Shift_2
Note_On_53_Vel_0
Time_Shift_19
Note_On_89_Vel_0
Time_Shift_15
Note_On_93_Vel_0
Time_Shift_12
Note_On_96_Vel_92
Time_Shift_100
Note_On_101_Vel_113
Time_Shift_6
Note_On_60_Vel_92
Note_On_65_Vel_104
Note_On_53_Vel_97
Time_Shift_1
Note_On_56_Vel_96
Time_Shift_20
Sustain_On
Time_Shift_90
Sustain_Off
Time_Shift_6
Note_On_56_Vel_0
Note_On_65_Vel_0
Note_On_53_Vel_0
Time_Shift_1
Note_On_60_Vel_0
Time_Shift_2
Note_On_101_Vel_0
Time_Shift_8
Note_On_96_Vel_0
Time_Shift_255
Note_On_96_Vel_108
Time_Shift_2
Note_On_92_Vel_107
Note_On_40_Vel_78
Time_Shift_2
Note_On_89_Vel_101
Time_Shift_1
Note_On_84_Vel_104
Time_Shift_58
Note_On_41_Vel_52
Time_Shift_95
Note_On_44_Vel_67
Time_Shift_40
Note_On_40_Vel_0
Time_Shift_43
Note_On_48_Vel_70
Time_Shift_84
Note_On_43_Vel_79
Time_Shift_34
Sustain_On
Time_Shift_47
Note_On_44_Vel_0
Time_Shift_7
Note_On_44_Vel_72
Time_Shift_69
Note_On_48_Vel_0
Time_Shift_6
Note_On_48_Vel_77
Time_Shift_89
Note_On_53_Vel_78
Time_Shift_82
Note_On_92_Vel_0
Time_Shift_3
Note_On_47_Vel_81
Time_Shift_5
Note_On_84_Vel_0
Note_On_89_Vel_0
Time_Shift_2
Note_On_92_Vel_109
Time_Shift_2
Note_On_84_Vel_103
Note_On_80_Vel_102
Note_On_89_Vel_98
Time_Shift_2
Note_On_48_Vel_0
Time_Shift_1
Note_On_44_Vel_0
Time_Shift_1
Note_On_53_Vel_0
Time_Shift_1
Note_On_43_Vel_0
Time_Shift_3
Sustain_Off
Time_Shift_3
Note_On_96_Vel_0
Time_Shift_8
Note_On_41_Vel_0
Time_Shift_52
Note_On_48_Vel_80
Time_Shift_12
Note_On_47_Vel_0
Time_Shift_74
Note_On_48_Vel_0
Time_Shift_1
Note_On_53_Vel_78
Time_Shift_55
Note_On_53_Vel_0
Time_Shift_38
Note_On_56_Vel_72
Time_Shift_6
Sustain_On
Time_Shift_79
Note_On_52_Vel_75
Time_Shift_95
Note_On_53_Vel_72
Time_Shift_15
Note_On_52_Vel_0
Time_Shift_6
Note_On_56_Vel_0
Note_On_80_Vel_0
Time_Shift_1
Sustain_Off
Time_Shift_34
Note_On_92_Vel_0
Time_Shift_8
Note_On_84_Vel_0
Note_On_89_Vel_0
Time_Shift_4
Note_On_89_Vel_101
Time_Shift_1
Note_On_77_Vel_91
Time_Shift_1
Note_On_84_Vel_80
Time_Shift_1
Note_On_53_Vel_0
Time_Shift_4
Note_On_80_Vel_85
Time_Shift_11
Note_On_56_Vel_80
Time_Shift_85
Sustain_On
Time_Shift_6
Note_On_60_Vel_74
Time_Shift_17
Note_On_56_Vel_0
Time_Shift_53
Note_On_55_Vel_79
Time_Shift_82
Note_On_56_Vel_78
Time_Shift_73
Note_On_60_Vel_0
Note_On_77_Vel_0
Note_On_80_Vel_0
Note_On_84_Vel_0
Time_Shift_4
Note_On_84_Vel_97
Time_Shift_1
Note_On_80_Vel_89
Time_Shift_2
Note_On_60_Vel_76
Note_On_72_Vel_91
Time_Shift_2
Note_On_77_Vel_91
Time_Shift_5
Sustain_Off
Time_Shift_5
Note_On_89_Vel_0
Time_Shift_1
Note_On_55_Vel_0
Time_Shift_2
Note_On_56_Vel_0
Time_Shift_67
Note_On_65_Vel_77
Time_Shift_3
Note_On_60_Vel_0
Time_Shift_74
Note_On_59_Vel_85
Time_Shift_3
Sustain_On
Time_Shift_79
Note_On_60_Vel_81
Time_Shift_31
Note_On_59_Vel_0
Note_On_72_Vel_0
Time_Shift_13
Note_On_65_Vel_0
Note_On_77_Vel_0
Time_Shift_1
Note_On_60_Vel_0
Time_Shift_10
Sustain_Off
Time_Shift_19
Note_On_84_Vel_0
Time_Shift_16
Note_On_80_Vel_0
Time_Shift_2
Note_On_84_Vel_89
Time_Shift_1
Note_On_65_Vel_81
Note_On_72_Vel_89
Time_Shift_1
Note_On_77_Vel_79
Time_Shift_1
Note_On_80_Vel_82
Time_Shift_29
Note_On_72_Vel_0
Time_Shift_1
Note_On_77_Vel_0
Note_On_84_Vel_0
Time_Shift_34
Note_On_65_Vel_0
Note_On_80_Vel_0
Time_Shift_22
Note_On_68_Vel_77
Time_Shift_85
Note_On_84_Vel_93
Time_Shift_1
Note_On_72_Vel_97
Time_Shift_1
Note_On_77_Vel_89
Time_Shift_1
Note_On_64_Vel_82
Time_Shift_1
Note_On_80_Vel_87
Time_Shift_12
Note_On_68_Vel_0
Time_Shift_7
Note_On_72_Vel_0
Time_Shift_23
Note_On_77_Vel_0
Time_Shift_8
Note_On_84_Vel_0
Time_Shift_8
Note_On_80_Vel_0
Time_Shift_18
Note_On_65_Vel_82
Time_Shift_51
Note_On_64_Vel_0
Time_Shift_34
Note_On_72_Vel_100
Note_On_84_Vel_93
Time_Shift_1
Note_On_77_Vel_84
Note_On_68_Vel_92
Time_Shift_3
Note_On_80_Vel_93
Time_Shift_27
Note_On_72_Vel_0
Time_Shift_2
Note_On_80_Vel_0
Time_Shift_10
Note_On_65_Vel_0
Time_Shift_7
Note_On_68_Vel_0
Note_On_77_Vel_0
Time_Shift_8
Note_On_84_Vel_0
Time_Shift_25
Note_On_72_Vel_92
Time_Shift_31
Note_On_72_Vel_0
Time_Shift_53
Note_On_80_Vel_101
Time_Shift_1
Note_On_77_Vel_94
Note_On_83_Vel_107
Time_Shift_2
Note_On_71_Vel_100
Note_On_74_Vel_102
Note_On_68_Vel_101
Time_Shift_4
Note_On_65_Vel_92
Time_Shift_15
Sustain_On
Time_Shift_96
Sustain_Off
Time_Shift_7
Note_On_68_Vel_0
Time_Shift_1
Note_On_83_Vel_0
Time_Shift_3
Note_On_65_Vel_0
Time_Shift_15
Note_On_74_Vel_0
Time_Shift_8
Note_On_77_Vel_0
Time_Shift_148
Note_On_71_Vel_0
Time_Shift_6
Note_On_80_Vel_0
Time_Shift_52
Note_On_53_Vel_101
Time_Shift_3
Note_On_50_Vel_99
Time_Shift_8
Note_On_67_Vel_90
Time_Shift_2
Note_On_62_Vel_91
Note_On_44_Vel_93
Note_On_41_Vel_96
Time_Shift_83
Note_On_68_Vel_92
Time_Shift_39
Note_On_65_Vel_50
Time_Shift_47
Note_On_71_Vel_80
Time_Shift_88
Note_On_67_Vel_0
Time_Shift_6
Note_On_74_Vel_71
Time_Shift_96
Note_On_70_Vel_87
Time_Shift_6
Sustain_On
Time_Shift_54
Note_On_71_Vel_0
Time_Shift_10
Note_On_71_Vel_80
Time_Shift_13
Sustain_Off
Time_Shift_61
Note_On_74_Vel_0
Time_Shift_6
Note_On_74_Vel_76
Time_Shift_17
Sustain_On
Time_Shift_72
Note_On_77_Vel_80
Time_Shift_74
Note_On_62_Vel_0
Note_On_65_Vel_0
Note_On_77_Vel_0
Time_Shift_6
Note_On_77_Vel_93
Time_Shift_1
Note_On_65_Vel_101
Time_Shift_1
Note_On_53_Vel_0
Note_On_41_Vel_0
Time_Shift_2
Note_On_62_Vel_94
Note_On_71_Vel_0
Note_On_74_Vel_0
Note_On_50_Vel_0
Time_Shift_1
Note_On_70_Vel_0
Note_On_44_Vel_0
Time_Shift_5
Note_On_53_Vel_80
Time_Shift_1
Note_On_59_Vel_86
Time_Shift_1
Note_On_73_Vel_86
Time_Shift_2
Note_On_56_Vel_80
Sustain_Off
Time_Shift_3
Note_On_68_Vel_0
Time_Shift_81
Note_On_74_Vel_72
Time_Shift_65
Note_On_77_Vel_0
Time_Shift_6
Note_On_77_Vel_76
Time_Shift_71
Sustain_On
Time_Shift_24
Note_On_80_Vel_77
Time_Shift_86
Note_On_76_Vel_86
Time_Shift_66
Note_On_77_Vel_0
Time_Shift_12
Note_On_77_Vel_79
Sustain_Off
Time_Shift_2
Note_On_53_Vel_0
Time_Shift_1
Note_On_65_Vel_0
Note_On_62_Vel_0
Time_Shift_1
Note_On_73_Vel_0
Note_On_80_Vel_0
Note_On_59_Vel_0
Note_On_76_Vel_0
Time_Shift_1
Note_On_74_Vel_0
Note_On_56_Vel_0
Time_Shift_70
Note_On_80_Vel_72
Time_Shift_15
Note_On_65_Vel_91
Time_Shift_4
Note_On_62_Vel_81
Time_Shift_7
Note_On_59_Vel_72
Time_Shift_6
Note_On_53_Vel_66
Time_Shift_1
Note_On_56_Vel_58
Time_Shift_26
Sustain_On
Time_Shift_12
Note_On_83_Vel_79
Time_Shift_93
Note_On_79_Vel_83
Time_Shift_72
Note_On_80_Vel_0
Time_Shift_8
Note_On_80_Vel_80
Time_Shift_62
Sustain_Off
Time_Shift_4
Note_On_79_Vel_0
Time_Shift_1
Note_On_80_Vel_0
Note_On_77_Vel_0
Time_Shift_9
Note_On_83_Vel_0
Time_Shift_8
Note_On_56_Vel_0
Note_On_59_Vel_0
Note_On_62_Vel_0
Note_On_65_Vel_0
Time_Shift_3
Note_On_83_Vel_90
Time_Shift_2
Note_On_65_Vel_93
Time_Shift_3
Note_On_53_Vel_0
Note_On_62_Vel_86
Note_On_59_Vel_83
Time_Shift_2
Note_On_56_Vel_76
Time_Shift_3
Note_On_53_Vel_75
Time_Shift_26
Sustain_On
Time_Shift_46
Note_On_86_Vel_72
Time_Shift_91
Note_On_82_Vel_89
Time_Shift_78
Note_On_83_Vel_0
Time_Shift_7
Note_On_83_Vel_77
Time_Shift_50
Note_On_56_Vel_0
Note_On_62_Vel_0
Note_On_82_Vel_0
Note_On_53_Vel_0
Time_Shift_1
Sustain_Off
Time_Shift_1
Note_On_83_Vel_0
Time_Shift_10
Note_On_59_Vel_0
Note_On_65_Vel_0
Time_Shift_15
Note_On_86_Vel_0
Time_Shift_5
Note_On_65_Vel_93
Time_Shift_1
Note_On_62_Vel_85
Time_Shift_1
Note_On_86_Vel_87
Time_Shift_4
Note_On_59_Vel_87
Time_Shift_1
Note_On_56_Vel_71
Time_Shift_17
Note_On_65_Vel_0
Time_Shift_5
Note_On_62_Vel_0
Time_Shift_1
Note_On_59_Vel_0
Time_Shift_54
Note_On_89_Vel_89
Time_Shift_19
Note_On_56_Vel_0
Note_On_86_Vel_0
Time_Shift_65
Note_On_65_Vel_100
Time_Shift_4
Note_On_62_Vel_88
Time_Shift_3
Note_On_59_Vel_85
Time_Shift_1
Note_On_53_Vel_74
Time_Shift_1
Note_On_85_Vel_92
Note_On_56_Vel_76
Time_Shift_18
Note_On_89_Vel_0
Note_On_62_Vel_0
Time_Shift_4
Note_On_53_Vel_0
Time_Shift_19
Note_On_59_Vel_0
Note_On_65_Vel_0
Time_Shift_7
Note_On_56_Vel_0
Time_Shift_36
Note_On_86_Vel_78
Time_Shift_26
Note_On_85_Vel_0
Time_Shift_44
Note_On_89_Vel_92
Note_On_65_Vel_100
Time_Shift_2
Note_On_62_Vel_80
Time_Shift_4
Note_On_56_Vel_85
Note_On_53_Vel_68
Time_Shift_2
Note_On_59_Vel_77
Time_Shift_16
Note_On_86_Vel_0
Time_Shift_19
Note_On_53_Vel_0
Time_Shift_5
Note_On_62_Vel_0
Note_On_65_Vel_0
Time_Shift_8
Note_On_59_Vel_0
Time_Shift_7
Note_On_56_Vel_0
Time_Shift_16
Note_On_89_Vel_0
Time_Shift_5
Note_On_92_Vel_96
Time_Shift_90
Note_On_91_Vel_114
Time_Shift_1
Note_On_55_Vel_93
Note_On_62_Vel_93
Time_Shift_1
Note_On_65_Vel_105
Time_Shift_3
Note_On_59_Vel_83
Time_Shift_15
Sustain_On
Time_Shift_77
Note_On_91_Vel_0
Note_On_92_Vel_0
Time_Shift_10
Note_On_59_Vel_0
Note_On_91_Vel_91
Note_On_65_Vel_0
Time_Shift_1
Note_On_55_Vel_0
Note_On_62_Vel_0
Time_Shift_10
Sustain_Off
Time_Shift_178
Note_On_91_Vel_0
Time_Shift_73
Note_On_91_Vel_110
Time_Shift_1
Note_On_83_Vel_103
Note_On_86_Vel_96
Note_On_79_Vel_106
Time_Shift_2
Note_On_89_Vel_95
Time_Shift_9
Sustain_On
Time_Shift_52
Note_On_43_Vel_79
Time_Shift_98
Note_On_47_Vel_81
Time_Shift_35
Sustain_Off
Time_Shift_2
Note_On_43_Vel_0
Time_Shift_23
Note_On_47_Vel_0
Time_Shift_16
Note_On_50_Vel_78
Time_Shift_46
Note_On_50_Vel_0
Time_Shift_42
Note_On_46_Vel_85
Time_Shift_55
Sustain_On
Time_Shift_30
Note_On_47_Vel_78
Time_Shift_1
Note_On_59_Vel_73
Time_Shift_82
Note_On_50_Vel_84
Time_Shift_72
Note_On_55_Vel_80
Time_Shift_76
Note_On_86_Vel_0
Time_Shift_7
Note_On_79_Vel_0
Note_On_83_Vel_0
Note_On_89_Vel_0
Note_On_91_Vel_0
Time_Shift_2
Note_On_49_Vel_91
Time_Shift_2
Note_On_86_Vel_96
Time_Shift_1
Note_On_83_Vel_99
Time_Shift_2
Note_On_91_Vel_108
Time_Shift_1
Note_On_89_Vel_98
Time_Shift_3
Note_On_79_Vel_102
Time_Shift_14
Note_On_47_Vel_0
Time_Shift_1
Note_On_50_Vel_0
Note_On_55_Vel_0
Time_Shift_1
Note_On_46_Vel_0
Time_Shift_1
Sustain_Off
Time_Shift_26
Note_On_59_Vel_0
Time_Shift_35
Note_On_50_Vel_84
Time_Shift_4
Note_On_49_Vel_0
Time_Shift_74
Note_On_55_Vel_75
Time_Shift_65
Note_On_55_Vel_0
Time_Shift_12
Note_On_59_Vel_82
Time_Shift_18
Note_On_50_Vel_0
Time_Shift_38
Sustain_On
Time_Shift_33
Note_On_54_Vel_84
Time_Shift_84
Note_On_55_Vel_70
Time_Shift_9
Note_On_54_Vel_0
Time_Shift_1
Sustain_Off
Time_Shift_1
Note_On_86_Vel_0
Time_Shift_1
Note_On_89_Vel_0
Time_Shift_1
Note_On_59_Vel_0
Time_Shift_8
Note_On_79_Vel_0
Time_Shift_8
Note_On_91_Vel_0
Time_Shift_8
Note_On_83_Vel_0
Time_Shift_47
Note_On_91_Vel_92
Note_On_59_Vel_79
Time_Shift_3
Note_On_86_Vel_78
Time_Shift_1
Note_On_83_Vel_78
Time_Shift_1
Note_On_89_Vel_82
Time_Shift_3
Note_On_79_Vel_81
Time_Shift_14
Note_On_55_Vel_0
Time_Shift_20
Note_On_59_Vel_0
Time_Shift_10
Sustain_On
Time_Shift_31
Note_On_62_Vel_68
Time_Shift_83
Note_On_58_Vel_77
Time_Shift_83
Note_On_59_Vel_73
Time_Shift_64
Note_On_79_Vel_0
Note_On_83_Vel_0
Note_On_86_Vel_0
Note_On_89_Vel_0
Note_On_91_Vel_0
Time_Shift_5
Note_On_83_Vel_93
Time_Shift_1
Note_On_86_Vel_97
Time_Shift_2
Note_On_62_Vel_0
Note_On_89_Vel_94
Time_Shift_1
Note_On_91_Vel_98
Time_Shift_2
Note_On_79_Vel_95
Time_Shift_4
Note_On_62_Vel_85
Sustain_Off
Time_Shift_1
Note_On_58_Vel_0
Time_Shift_1
Note_On_59_Vel_0
Time_Shift_56
Note_On_62_Vel_0
Time_Shift_24
Note_On_67_Vel_77
Time_Shift_34
Sustain_On
Time_Shift_36
Note_On_61_Vel_93
Time_Shift_81
Note_On_62_Vel_94
Time_Shift_75
Note_On_67_Vel_0
Note_On_79_Vel_0
Note_On_91_Vel_0
Time_Shift_8
Note_On_83_Vel_0
Note_On_86_Vel_0
Note_On_89_Vel_0
Time_Shift_3
Note_On_67_Vel_78
Note_On_79_Vel_101
Time_Shift_1
Note_On_91_Vel_98
Note_On_83_Vel_97
Time_Shift_1
Note_On_89_Vel_87
Time_Shift_1
Note_On_62_Vel_0
Time_Shift_1
Sustain_Off
Note_On_86_Vel_89
Time_Shift_2
Note_On_61_Vel_0
Time_Shift_37
Note_On_67_Vel_0
Note_On_79_Vel_0
Time_Shift_7
Note_On_83_Vel_0
Note_On_89_Vel_0
Note_On_91_Vel_0
Time_Shift_8
Note_On_86_Vel_0
Time_Shift_28
Note_On_71_Vel_88
Time_Shift_42
Note_On_71_Vel_0
Time_Shift_42
Note_On_79_Vel_105
Time_Shift_2
Note_On_91_Vel_101
Time_Shift_1
Note_On_83_Vel_95
Note_On_89_Vel_94
Time_Shift_3
Note_On_86_Vel_91
Time_Shift_1
Note_On_66_Vel_77
Time_Shift_23
Note_On_79_Vel_0
Note_On_83_Vel_0
Note_On_91_Vel_0
Time_Shift_3
Note_On_89_Vel_0
Time_Shift_13
Note_On_66_Vel_0
Time_Shift_11
Note_On_86_Vel_0
Time_Shift_104
Note_On_83_Vel_98
Time_Shift_1
Note_On_79_Vel_105
Note_On_71_Vel_94
Time_Shift_5
Note_On_91_Vel_103
Time_Shift_1
Note_On_86_Vel_96
Time_Shift_1
Note_On_89_Vel_85
Time_Shift_24
Note_On_71_Vel_0
Note_On_79_Vel_0
Time_Shift_1
Note_On_89_Vel_0
Note_On_83_Vel_0
Time_Shift_32
Note_On_91_Vel_0
Time_Shift_17
Note_On_74_Vel_95
Time_Shift_1
Note_On_67_Vel_72
Time_Shift_13
Note_On_86_Vel_0
Time_Shift_28
Note_On_67_Vel_0
Time_Shift_7
Note_On_74_Vel_0
Time_Shift_35
Note_On_79_Vel_108
Time_Shift_1
Note_On_84_Vel_103
Note_On_87_Vel_104
Time_Shift_1
Note_On_72_Vel_106
Time_Shift_35
Sustain_On
Time_Shift_46
Note_On_72_Vel_0
Time_Shift_93
Sustain_Off
Time_Shift_49
Note_On_72_Vel_66
Time_Shift_73
Note_On_72_Vel_0
Time_Shift_5
Note_On_72_Vel_52
Time_Shift_65
Note_On_84_Vel_0
Time_Shift_6
Note_On_84_Vel_101
Time_Shift_1
Note_On_72_Vel_0
Time_Shift_8
Note_On_72_Vel_88
Time_Shift_4
Note_On_80_Vel_83
Time_Shift_1
Note_On_86_Vel_85
Time_Shift_10
Sustain_On
Time_Shift_3
Note_On_75_Vel_69
Time_Shift_43
Note_On_79_Vel_0
Time_Shift_23
Note_On_75_Vel_0
Note_On_87_Vel_0
Time_Shift_8
Note_On_75_Vel_61
Time_Shift_1
Note_On_87_Vel_92
Time_Shift_88
Note_On_92_Vel_97
Time_Shift_84
Note_On_96_Vel_98
Time_Shift_78
Note_On_77_Vel_70
Time_Shift_9
Note_On_76_Vel_75
Time_Shift_2
Note_On_88_Vel_100
Time_Shift_3
Note_On_87_Vel_0
Note_On_74_Vel_77
Time_Shift_4
Sustain_Off
Note_On_76_Vel_0
Time_Shift_46
Note_On_86_Vel_0
Time_Shift_30
Note_On_89_Vel_101
Time_Shift_39
Sustain_On
Time_Shift_38
Note_On_92_Vel_0
Time_Shift_5
Note_On_92_Vel_98
Time_Shift_72
Note_On_88_Vel_0
Note_On_96_Vel_0
Time_Shift_9
Note_On_96_Vel_95
Time_Shift_1
Note_On_88_Vel_73
Time_Shift_59
Note_On_75_Vel_0
Time_Shift_19
Note_On_86_Vel_95
Time_Shift_30
Note_On_82_Vel_83
Time_Shift_5
Note_On_72_Vel_0
Time_Shift_5
Sustain_Off
Time_Shift_26
Note_On_80_Vel_0
Time_Shift_8
Note_On_89_Vel_0
Time_Shift_10
Note_On_89_Vel_91
Time_Shift_5
Note_On_92_Vel_0
Time_Shift_8
Note_On_96_Vel_0
Time_Shift_23
Sustain_On
Time_Shift_15
Note_On_88_Vel_0
Time_Shift_38
Note_On_84_Vel_0
Time_Shift_2
Note_On_94_Vel_96
Time_Shift_85
Note_On_92_Vel_90
Time_Shift_72
Note_On_91_Vel_61
Time_Shift_12
Note_On_79_Vel_74
Time_Shift_15
Note_On_87_Vel_86
Time_Shift_1
Note_On_75_Vel_71
Time_Shift_24
Sustain_Off
Time_Shift_43
Note_On_89_Vel_0
Sustain_On
Time_Shift_5
Note_On_89_Vel_91
Time_Shift_89
Note_On_90_Vel_94
Time_Shift_59
Note_On_91_Vel_0
Time_Shift_11
Note_On_91_Vel_95
Time_Shift_89
Note_On_74_Vel_0
Note_On_77_Vel_0
Time_Shift_12
Note_On_77_Vel_96
Time_Shift_2
Note_On_84_Vel_92
Note_On_87_Vel_0
Time_Shift_15
Note_On_74_Vel_74
Time_Shift_5
Note_On_65_Vel_62
Sustain_Off
Time_Shift_2
Note_On_68_Vel_44
Time_Shift_18
Note_On_82_Vel_0
Time_Shift_46
Note_On_86_Vel_0
Time_Shift_5
Note_On_86_Vel_87
Time_Shift_34
Sustain_On
Time_Shift_38
Note_On_89_Vel_0
Time_Shift_10
Note_On_89_Vel_96
Time_Shift_74
Note_On_92_Vel_0
Time_Shift_5
Note_On_92_Vel_92
Time_Shift_95
Note_On_75_Vel_0
Note_On_84_Vel_0
Time_Shift_4
Note_On_84_Vel_85
Time_Shift_5
Note_On_75_Vel_69
Note_On_67_Vel_52
Time_Shift_16
Note_On_86_Vel_0
Note_On_92_Vel_0
Note_On_68_Vel_0
Time_Shift_1
Note_On_74_Vel_0
Note_On_65_Vel_0
Time_Shift_1
Note_On_89_Vel_0
Note_On_77_Vel_0
Note_On_79_Vel_0
Time_Shift_1
Sustain_Off
Time_Shift_3
Note_On_90_Vel_0
Note_On_94_Vel_0
Time_Shift_8
Note_On_91_Vel_0
Time_Shift_51
Note_On_87_Vel_86
Time_Shift_25
Sustain_On
Time_Shift_52
Note_On_90_Vel_88
Time_Shift_87
Note_On_91_Vel_93
Time_Shift_98
Note_On_83_Vel_85
Time_Shift_7
Note_On_77_Vel_72
Time_Shift_15
Note_On_55_Vel_51
Time_Shift_3
Sustain_Off
Time_Shift_2
Note_On_74_Vel_50
Time_Shift_62
Note_On_86_Vel_82
Time_Shift_43
Sustain_On
Time_Shift_38
Note_On_91_Vel_0
Time_Shift_3
Note_On_92_Vel_69
Time_Shift_2
Note_On_91_Vel_77
Time_Shift_71
Note_On_89_Vel_78
Time_Shift_93
Note_On_84_Vel_0
Time_Shift_7
Note_On_84_Vel_75
Time_Shift_1
Note_On_67_Vel_0
Time_Shift_11
Note_On_67_Vel_38
Time_Shift_3
Note_On_86_Vel_0
Time_Shift_1
Note_On_75_Vel_0
Sustain_Off
Time_Shift_1
Note_On_77_Vel_0
Time_Shift_8
Note_On_75_Vel_60
Time_Shift_4
Note_On_72_Vel_53
Time_Shift_11
Note_On_92_Vel_0
Time_Shift_7
Note_On_87_Vel_0
Time_Shift_31
Note_On_55_Vel_0
Time_Shift_3
Note_On_85_Vel_78
Time_Shift_35
Sustain_On
Time_Shift_59
Note_On_86_Vel_76
Time_Shift_86
Note_On_87_Vel_80
Time_Shift_105
Note_On_77_Vel_91
Time_Shift_16
Note_On_73_Vel_70
Time_Shift_5
Note_On_79_Vel_69
Time_Shift_17
Note_On_68_Vel_52
Note_On_67_Vel_0
Time_Shift_1
Note_On_83_Vel_0
Time_Shift_1
Note_On_72_Vel_0
Note_On_65_Vel_55
Note_On_84_Vel_0
Time_Shift_2
Sustain_Off
Time_Shift_1
Note_On_85_Vel_0
Time_Shift_1
Note_On_86_Vel_0
Time_Shift_2
Note_On_75_Vel_0
Note_On_74_Vel_0
Time_Shift_1
Note_On_87_Vel_0
Time_Shift_3
Note_On_90_Vel_0
Time_Shift_15
Note_On_89_Vel_0
Note_On_91_Vel_0
Time_Shift_48
Note_On_80_Vel_73
Time_Shift_6
Note_On_79_Vel_0
Time_Shift_23
Sustain_On
Time_Shift_53
Note_On_85_Vel_84
Time_Shift_90
Note_On_89_Vel_86
Time_Shift_83
Note_On_81_Vel_89
Time_Shift_10
Note_On_67_Vel_49
Note_On_70_Vel_63
Time_Shift_26
Note_On_85_Vel_0
Time_Shift_2
Note_On_68_Vel_0
Time_Shift_1
Note_On_80_Vel_0
Time_Shift_4
Sustain_Off
Time_Shift_15
Note_On_77_Vel_0
Time_Shift_24
Note_On_82_Vel_94
Time_Shift_45
Sustain_On
Time_Shift_40
Note_On_85_Vel_94
Time_Shift_83
Note_On_89_Vel_0
Time_Shift_7
Note_On_89_Vel_90
Time_Shift_90
Note_On_79_Vel_83
Time_Shift_8
Note_On_75_Vel_73
Time_Shift_2
Sustain_Off
Time_Shift_31
Sustain_On
Time_Shift_31
Note_On_82_Vel_0
Time_Shift_7
Note_On_82_Vel_82
Time_Shift_16
Note_On_65_Vel_0
Time_Shift_66
Note_On_87_Vel_82
Time_Shift_80
Note_On_85_Vel_0
Time_Shift_6
Note_On_85_Vel_80
Time_Shift_63
Note_On_81_Vel_0
Time_Shift_26
Note_On_79_Vel_0
Note_On_85_Vel_0
Note_On_67_Vel_0
Time_Shift_1
Note_On_70_Vel_0
Note_On_82_Vel_0
Note_On_87_Vel_0
Note_On_75_Vel_0
Note_On_89_Vel_0
Note_On_80_Vel_73
Time_Shift_1
Note_On_72_Vel_61
Time_Shift_3
Note_On_68_Vel_60
Time_Shift_8
Note_On_73_Vel_0
Time_Shift_2
Sustain_Off
Time_Shift_63
Note_On_82_Vel_81
Time_Shift_42
Sustain_On
Time_Shift_42
Note_On_83_Vel_80
Time_Shift_81
Note_On_68_Vel_0
Time_Shift_4
Note_On_82_Vel_0
Time_Shift_2
Note_On_68_Vel_50
Time_Shift_3
Note_On_84_Vel_75
Time_Shift_1
Note_On_83_Vel_0
Time_Shift_17
Sustain_Off
Time_Shift_27
Note_On_80_Vel_0
Time_Shift_15
Note_On_84_Vel_0
Time_Shift_23
Note_On_72_Vel_0
Time_Shift_23
Note_On_77_Vel_65
Time_Shift_1
Note_On_70_Vel_67
Time_Shift_13
Note_On_66_Vel_48
Time_Shift_7
Note_On_58_Vel_48
Time_Shift_13
Note_On_61_Vel_53
Time_Shift_35
Sustain_On
Time_Shift_21
Note_On_78_Vel_70
Time_Shift_77
Note_On_82_Vel_79
Time_Shift_2
Note_On_68_Vel_0
Time_Shift_92
Note_On_85_Vel_77
Time_Shift_100
Note_On_77_Vel_0
Time_Shift_4
Note_On_58_Vel_0
Sustain_Off
Note_On_77_Vel_65
Time_Shift_1
Note_On_61_Vel_0
Note_On_78_Vel_0
Note_On_66_Vel_0
Note_On_68_Vel_43
Time_Shift_1
Note_On_85_Vel_0
Time_Shift_2
Note_On_82_Vel_0
Time_Shift_15
Note_On_70_Vel_0
Time_Shift_15
Note_On_60_Vel_29
Time_Shift_36
Note_On_77_Vel_0
Time_Shift_12
Note_On_80_Vel_66
Time_Shift_87
Note_On_83_Vel_69
Time_Shift_96
Note_On_84_Vel_67
Time_Shift_51
Note_On_83_Vel_0
Time_Shift_1
Note_On_80_Vel_0
Time_Shift_2
Note_On_68_Vel_0
Time_Shift_6
Note_On_84_Vel_0
Time_Shift_1
Note_On_60_Vel_0
Time_Shift_42
Note_On_76_Vel_45
Time_Shift_1
Note_On_60_Vel_42
Time_Shift_8
Note_On_70_Vel_42
Time_Shift_9
Note_On_67_Vel_36
Time_Shift_25
Sustain_On
Time_Shift_35
Note_On_79_Vel_54
Time_Shift_99
Note_On_84_Vel_63
Time_Shift_84
Note_On_82_Vel_61
Time_Shift_92
Note_On_70_Vel_0
Time_Shift_1
Note_On_67_Vel_0
Note_On_79_Vel_0
Note_On_84_Vel_0
Time_Shift_2
Note_On_82_Vel_0
Note_On_76_Vel_0
Time_Shift_3
Note_On_60_Vel_0
Sustain_Off
Time_Shift_40
Note_On_80_Vel_44
Time_Shift_9
Note_On_77_Vel_43
Note_On_68_Vel_34
Time_Shift_8
Note_On_61_Vel_40
Time_Shift_21
Note_On_65_Vel_43
Time_Shift_36
Sustain_On
Time_Shift_155
Note_On_80_Vel_0
Time_Shift_1
Note_On_68_Vel_0
Time_Shift_1
Note_On_61_Vel_0
Note_On_77_Vel_0
Time_Shift_1
Note_On_65_Vel_0
Time_Shift_4
Sustain_Off
Time_Shift_149
Note_On_49_Vel_97
Time_Shift_4
Note_On_37_Vel_81
Time_Shift_21
Note_On_49_Vel_0
Time_Shift_6
Note_On_37_Vel_0
Time_Shift_141
Note_On_49_Vel_100
Time_Shift_3
Note_On_37_Vel_88
Time_Shift_30
Note_On_49_Vel_0
Time_Shift_1
Note_On_37_Vel_0
Time_Shift_142
Note_On_49_Vel_101
Time_Shift_3
Note_On_37_Vel_91
Time_Shift_9
Note_On_65_Vel_83
Time_Shift_21
Note_On_49_Vel_0
Time_Shift_2
Note_On_37_Vel_0
Time_Shift_18
Note_On_65_Vel_0
Time_Shift_111
Note_On_72_Vel_78
Time_Shift_87
Note_On_72_Vel_0
Time_Shift_2
Note_On_73_Vel_82
Time_Shift_81
Note_On_53_Vel_69
Time_Shift_1
Note_On_56_Vel_75
Note_On_77_Vel_85
Note_On_61_Vel_74
Note_On_49_Vel_70
Time_Shift_76
Note_On_80_Vel_89
Time_Shift_5
Note_On_73_Vel_0
Time_Shift_79
Note_On_84_Vel_88
Time_Shift_52
Note_On_77_Vel_0
Time_Shift_19
Note_On_85_Vel_95
Time_Shift_17
Note_On_84_Vel_0
Time_Shift_12
Note_On_80_Vel_0
Time_Shift_1
Note_On_85_Vel_0
Time_Shift_28
Note_On_56_Vel_0
Time_Shift_15
Note_On_61_Vel_0
Time_Shift_32
Note_On_89_Vel_110
Time_Shift_2
Note_On_57_Vel_81
Time_Shift_4
Sustain_On
Time_Shift_156
Note_On_77_Vel_88
Time_Shift_25
Note_On_89_Vel_0
Note_On_77_Vel_0
Note_On_49_Vel_0
Time_Shift_1
Note_On_57_Vel_0
Time_Shift_1
Sustain_Off
Time_Shift_9
Note_On_53_Vel_0
Time_Shift_129
Note_On_49_Vel_95
Time_Shift_2
Note_On_37_Vel_90
Time_Shift_25
Note_On_49_Vel_0
Time_Shift_21
Note_On_37_Vel_0
Time_Shift_122
Note_On_49_Vel_103
Time_Shift_3
Note_On_37_Vel_85
Time_Shift_31
Note_On_37_Vel_0
Note_On_49_Vel_0
Time_Shift_150
Note_On_49_Vel_109
Time_Shift_3
Note_On_37_Vel_98
Time_Shift_4
Note_On_65_Vel_88
Time_Shift_43
Note_On_37_Vel_0
Time_Shift_3
Note_On_49_Vel_0
Time_Shift_20
Note_On_65_Vel_0
Time_Shift_13
Note_On_69_Vel_75
Time_Shift_75
Note_On_72_Vel_84
Time_Shift_46
Note_On_72_Vel_0
Time_Shift_36
Note_On_73_Vel_86
Time_Shift_83
Note_On_57_Vel_87
Time_Shift_1
Note_On_49_Vel_84
Time_Shift_2
Note_On_77_Vel_90
Note_On_53_Vel_77
Time_Shift_25
Note_On_69_Vel_0
Time_Shift_13
Note_On_73_Vel_0
Time_Shift_38
Note_On_81_Vel_88
Time_Shift_86
Note_On_84_Vel_89
Time_Shift_2
Note_On_77_Vel_0
Time_Shift_11
Note_On_81_Vel_0
Time_Shift_55
Note_On_85_Vel_97
Time_Shift_6
Note_On_84_Vel_0
Time_Shift_31
Note_On_85_Vel_0
Time_Shift_69
Note_On_58_Vel_99
Note_On_89_Vel_111
Time_Shift_12
Note_On_49_Vel_0
Note_On_57_Vel_0
Time_Shift_4
Note_On_49_Vel_50
Time_Shift_4
Sustain_On
Time_Shift_142
Note_On_77_Vel_89
Time_Shift_32
Note_On_89_Vel_0
Time_Shift_1
Note_On_49_Vel_0
Note_On_58_Vel_0
Time_Shift_2
Note_On_77_Vel_0
Sustain_Off
Time_Shift_15
Note_On_53_Vel_0
Time_Shift_112
Note_On_49_Vel_97
Time_Shift_1
Note_On_61_Vel_87
Time_Shift_2
Note_On_37_Vel_91
Time_Shift_8
Note_On_61_Vel_0
Time_Shift_18
Note_On_49_Vel_0
Time_Shift_2
Note_On_37_Vel_0
Time_Shift_153
Note_On_49_Vel_109
Time_Shift_4
Note_On_37_Vel_80
Time_Shift_30
Note_On_49_Vel_0
Time_Shift_2
Note_On_37_Vel_0
Time_Shift_144
Note_On_49_Vel_110
Time_Shift_4
Note_On_37_Vel_89
Time_Shift_2
Note_On_65_Vel_90
Time_Shift_36
Note_On_37_Vel_0
Time_Shift_1
Note_On_49_Vel_0
Time_Shift_16
Note_On_65_Vel_0
Time_Shift_29
Note_On_69_Vel_79
Time_Shift_63
Note_On_69_Vel_0
Time_Shift_18
Note_On_70_Vel_88
Time_Shift_74
Note_On_73_Vel_86
Time_Shift_7
Note_On_70_Vel_0
Time_Shift_37
Note_On_73_Vel_0
Time_Shift_39
Note_On_49_Vel_82
Note_On_58_Vel_90
Time_Shift_2
Note_On_53_Vel_83
Time_Shift_3
Note_On_77_Vel_90
Time_Shift_53
Sustain_On
Time_Shift_19
Note_On_81_Vel_94
Time_Shift_73
Note_On_53_Vel_0
Time_Shift_8
Note_On_58_Vel_0
Time_Shift_2
Note_On_53_Vel_62
Time_Shift_1
Note_On_82_Vel_97
Time_Shift_4
Note_On_58_Vel_69
Time_Shift_76
Note_On_85_Vel_96
Time_Shift_51
Sustain_Off
Time_Shift_22
Note_On_81_Vel_0
Note_On_58_Vel_0
Time_Shift_1
Note_On_82_Vel_0
Time_Shift_4
Note_On_77_Vel_0
Time_Shift_2
Note_On_85_Vel_0
Time_Shift_13
Note_On_49_Vel_0
Time_Shift_4
Note_On_89_Vel_109
Time_Shift_1
Note_On_59_Vel_102
Time_Shift_6
Note_On_49_Vel_70
Time_Shift_66
Sustain_On
Time_Shift_100
Note_On_77_Vel_95
Time_Shift_48
Note_On_89_Vel_0
Time_Shift_1
Note_On_77_Vel_0
Time_Shift_2
Note_On_59_Vel_0
Note_On_49_Vel_0
Time_Shift_1
Sustain_Off
Time_Shift_2
Note_On_53_Vel_0
Time_Shift_103
Note_On_49_Vel_104
Note_On_37_Vel_96
Time_Shift_27
Note_On_49_Vel_0
Time_Shift_3
Note_On_37_Vel_0
Time_Shift_155
Note_On_49_Vel_108
Time_Shift_1
Note_On_37_Vel_92
Time_Shift_32
Note_On_49_Vel_0
Time_Shift_2
Note_On_37_Vel_0
Time_Shift_144
Note_On_61_Vel_104
Time_Shift_1
Note_On_49_Vel_113
Time_Shift_3
Note_On_37_Vel_99
Time_Shift_34
Note_On_49_Vel_0
Time_Shift_1
Note_On_37_Vel_0
Time_Shift_5
Note_On_61_Vel_0
Time_Shift_142
Note_On_71_Vel_80
Time_Shift_48
Note_On_71_Vel_0
Time_Shift_23
Note_On_77_Vel_80
Time_Shift_79
Note_On_77_Vel_0
Note_On_80_Vel_83
Time_Shift_14
Note_On_59_Vel_66
Time_Shift_1
Note_On_56_Vel_55
Time_Shift_35
Note_On_80_Vel_0
Time_Shift_33
Note_On_83_Vel_85
Time_Shift_71
Note_On_83_Vel_0
Time_Shift_9
Note_On_89_Vel_74
Time_Shift_1
Note_On_59_Vel_0
Time_Shift_68
Note_On_97_Vel_90
Time_Shift_5
Note_On_89_Vel_0
Time_Shift_43
Note_On_56_Vel_0
Time_Shift_1
Note_On_59_Vel_47
Time_Shift_45
Note_On_97_Vel_0
Time_Shift_7
Note_On_59_Vel_0
Time_Shift_10
Note_On_94_Vel_87
Time_Shift_2
Note_On_90_Vel_86
Time_Shift_14
Note_On_58_Vel_67
Time_Shift_1
Note_On_54_Vel_59
Time_Shift_12
Sustain_On
Time_Shift_149
Note_On_58_Vel_0
Time_Shift_1
Note_On_82_Vel_84
Sustain_Off
Time_Shift_1
Note_On_54_Vel_0
Time_Shift_4
Note_On_90_Vel_0
Time_Shift_4
Note_On_94_Vel_0
Time_Shift_23
Note_On_82_Vel_0
Time_Shift_136
Note_On_49_Vel_83
Time_Shift_2
Note_On_37_Vel_71
Time_Shift_23
Note_On_49_Vel_0
Time_Shift_4
Note_On_37_Vel_0
Time_Shift_155
Note_On_49_Vel_79
Time_Shift_1
Note_On_37_Vel_60
Time_Shift_23
Note_On_49_Vel_0
Time_Shift_3
Note_On_37_Vel_0
Time_Shift_169
Note_On_49_Vel_71
Time_Shift_3
Note_On_37_Vel_61
Time_Shift_25
Note_On_49_Vel_0
Note_On_37_Vel_0
Time_Shift_150
Note_On_71_Vel_71
Time_Shift_61
Note_On_71_Vel_0
Time_Shift_22
Note_On_77_Vel_64
Time_Shift_41
Note_On_77_Vel_0
Time_Shift_27
Note_On_80_Vel_76
Time_Shift_29
Note_On_59_Vel_57
Time_Shift_1
Note_On_80_Vel_0
Time_Shift_2
Note_On_49_Vel_55
Time_Shift_1
Note_On_56_Vel_58
Time_Shift_50
Note_On_83_Vel_77
Time_Shift_42
Note_On_83_Vel_0
Time_Shift_60
Note_On_89_Vel_69
Time_Shift_40
Sustain_On
Time_Shift_12
Note_On_97_Vel_83
Time_Shift_118
Note_On_89_Vel_0
Time_Shift_19
Note_On_93_Vel_69
Time_Shift_1
Note_On_90_Vel_66
Time_Shift_14
Note_On_57_Vel_48
Time_Shift_8
Note_On_54_Vel_48
Time_Shift_192
Note_On_81_Vel_60
Time_Shift_32
Note_On_90_Vel_0
Time_Shift_11
Note_On_59_Vel_0
Time_Shift_3
Note_On_93_Vel_0
Time_Shift_2
Note_On_57_Vel_0
Time_Shift_7
Note_On_49_Vel_0
Time_Shift_3
Note_On_56_Vel_0
Time_Shift_1
Note_On_54_Vel_0
Time_Shift_2
Note_On_81_Vel_0
Time_Shift_8
Sustain_Off
Time_Shift_58
Note_On_97_Vel_0
Time_Shift_36
Note_On_49_Vel_60
Time_Shift_2
Note_On_37_Vel_57
Time_Shift_26
Note_On_49_Vel_0
Time_Shift_3
Note_On_37_Vel_0
Time_Shift_148
Note_On_49_Vel_66
Time_Shift_2
Note_On_37_Vel_59
Time_Shift_27
Note_On_49_Vel_0
Time_Shift_2
Note_On_37_Vel_0
Time_Shift_135
Note_On_50_Vel_83
Time_Shift_3
Note_On_38_Vel_72
Time_Shift_21
Note_On_50_Vel_0
Time_Shift_25
Note_On_38_Vel_0
Time_Shift_119
Note_On_72_Vel_69
Time_Shift_7
Note_On_50_Vel_45
Time_Shift_50
Note_On_50_Vel_0
Time_Shift_3
Note_On_72_Vel_0
Time_Shift_17
Note_On_78_Vel_83
Time_Shift_50
Sustain_On
Time_Shift_27
Note_On_81_Vel_84
Time_Shift_17
Note_On_57_Vel_74
Time_Shift_1
Note_On_60_Vel_74
Time_Shift_2
Note_On_50_Vel_69
Time_Shift_61
Note_On_84_Vel_88
Time_Shift_80
Note_On_90_Vel_92
Time_Shift_70
Note_On_98_Vel_86
Time_Shift_54
Note_On_81_Vel_0
Note_On_60_Vel_0
Note_On_84_Vel_0
Note_On_50_Vel_0
Note_On_57_Vel_0
Note_On_90_Vel_0
Time_Shift_3
Sustain_Off
Time_Shift_7
Note_On_78_Vel_0
Time_Shift_8
Note_On_98_Vel_0
Time_Shift_23
Note_On_94_Vel_96
Time_Shift_3
Note_On_58_Vel_78
Note_On_91_Vel_91
Time_Shift_1
Note_On_55_Vel_69
Time_Shift_50
Sustain_On
Time_Shift_127
Note_On_82_Vel_90
Time_Shift_163
Note_On_50_Vel_99
Time_Shift_3
Note_On_38_Vel_88
Time_Shift_18
Note_On_94_Vel_0
Time_Shift_8
Note_On_82_Vel_0
Note_On_55_Vel_0
Time_Shift_4
Note_On_91_Vel_0
Time_Shift_1
Sustain_Off
Time_Shift_2
Note_On_58_Vel_0
Time_Shift_1
Note_On_50_Vel_0
Time_Shift_6
Note_On_38_Vel_0
Time_Shift_132
Note_On_50_Vel_103
Time_Shift_2
Note_On_38_Vel_90
Time_Shift_28
Note_On_50_Vel_0
Time_Shift_4
Note_On_38_Vel_0
Time_Shift_142
Note_On_51_Vel_107
Time_Shift_1
Note_On_39_Vel_90
Time_Shift_25
Note_On_51_Vel_0
Time_Shift_1
Note_On_39_Vel_0
Time_Shift_159
Note_On_73_Vel_90
Time_Shift_41
Sustain_On
Time_Shift_4
Note_On_51_Vel_86
Time_Shift_27
Note_On_79_Vel_82
Time_Shift_32
Note_On_58_Vel_86
Time_Shift_39
Note_On_61_Vel_83
Time_Shift_25
Note_On_85_Vel_90
Time_Shift_6
Note_On_67_Vel_82
Time_Shift_71
Note_On_91_Vel_105
Time_Shift_86
Note_On_99_Vel_100
Time_Shift_49
Note_On_52_Vel_73
Time_Shift_29
Note_On_97_Vel_105
Time_Shift_39
Note_On_58_Vel_0
Time_Shift_6
Note_On_58_Vel_73
Time_Shift_28
Note_On_60_Vel_63
Time_Shift_37
Note_On_96_Vel_96
Time_Shift_6
Note_On_67_Vel_0
Time_Shift_4
Note_On_67_Vel_86
Time_Shift_76
Note_On_94_Vel_100
Time_Shift_73
Note_On_91_Vel_0
Time_Shift_4
Note_On_91_Vel_96
Time_Shift_78
Note_On_84_Vel_89
Time_Shift_90
Note_On_82_Vel_97
Time_Shift_74
Note_On_79_Vel_0
Time_Shift_8
Note_On_79_Vel_92
Time_Shift_84
Note_On_84_Vel_0
Time_Shift_10
Note_On_84_Vel_86
Time_Shift_59
Note_On_82_Vel_0
Time_Shift_11
Note_On_82_Vel_99
Time_Shift_16
Note_On_79_Vel_0
Note_On_60_Vel_0
Note_On_73_Vel_0
Note_On_94_Vel_0
Note_On_52_Vel_0
Note_On_67_Vel_0
Note_On_91_Vel_0
Time_Shift_1
Note_On_96_Vel_0
Time_Shift_1
Sustain_Off
Time_Shift_2
Note_On_85_Vel_0
Time_Shift_8
Note_On_51_Vel_0
Note_On_99_Vel_0
Time_Shift_7
Note_On_97_Vel_0
Time_Shift_8
Note_On_61_Vel_0
Note_On_84_Vel_0
Time_Shift_8
Note_On_58_Vel_0
Time_Shift_36
Note_On_79_Vel_82
Time_Shift_10
Note_On_82_Vel_0
Time_Shift_64
Note_On_72_Vel_87
Time_Shift_36
Sustain_On
Time_Shift_54
Note_On_70_Vel_85
Time_Shift_72
Note_On_67_Vel_84
Time_Shift_6
Note_On_70_Vel_0
Time_Shift_3
Note_On_72_Vel_0
Time_Shift_34
Sustain_Off
Time_Shift_38
Note_On_79_Vel_0
Time_Shift_15
Note_On_60_Vel_68
Time_Shift_1
Note_On_53_Vel_69
Time_Shift_2
Note_On_68_Vel_84
Time_Shift_1
Note_On_56_Vel_70
Time_Shift_1
Note_On_67_Vel_0
Time_Shift_57
Sustain_On
Time_Shift_20
Note_On_65_Vel_80
Time_Shift_78
Note_On_73_Vel_86
Time_Shift_4
Note_On_67_Vel_57
Time_Shift_72
Note_On_72_Vel_77
Time_Shift_49
Note_On_73_Vel_0
Note_On_65_Vel_0
Time_Shift_1
Note_On_56_Vel_0
Note_On_68_Vel_0
Time_Shift_1
Note_On_53_Vel_0
Note_On_60_Vel_0
Sustain_Off
Time_Shift_44
Note_On_67_Vel_0
Time_Shift_11
Note_On_67_Vel_66
Time_Shift_4
Note_On_48_Vel_54
Time_Shift_4
Note_On_64_Vel_58
Time_Shift_19
Sustain_On
Time_Shift_69
Note_On_67_Vel_0
Note_On_72_Vel_0
Time_Shift_2
Note_On_64_Vel_0
Time_Shift_3
Sustain_Off
Time_Shift_1
Note_On_48_Vel_0
Time_Shift_92
Note_On_60_Vel_67
Time_Shift_88
Note_On_60_Vel_0
Time_Shift_1
Note_On_61_Vel_71
Time_Shift_78
Note_On_62_Vel_74
Time_Shift_28
Note_On_61_Vel_0
Time_Shift_55
Note_On_62_Vel_0
Time_Shift_2
Note_On_63_Vel_80
Time_Shift_52
Note_On_63_Vel_0
Time_Shift_29
Note_On_64_Vel_75
Time_Shift_68
Sustain_On
Time_Shift_11
Note_On_65_Vel_83
Time_Shift_83
Note_On_66_Vel_83
Time_Shift_13
Note_On_64_Vel_0
Time_Shift_12
Sustain_Off
Time_Shift_12
Sustain_On
Time_Shift_39
Note_On_67_Vel_86
Time_Shift_78
Note_On_68_Vel_89
Time_Shift_55
Note_On_48_Vel_79
Time_Shift_37
Note_On_69_Vel_88
Time_Shift_33
Note_On_56_Vel_86
Time_Shift_38
Note_On_59_Vel_73
Time_Shift_19
Note_On_65_Vel_0
Time_Shift_2
Note_On_70_Vel_90
Time_Shift_3
Note_On_65_Vel_95
Time_Shift_76
Note_On_71_Vel_89
Time_Shift_78
Note_On_74_Vel_86
Time_Shift_49
Note_On_48_Vel_0
Time_Shift_8
Note_On_48_Vel_83
Time_Shift_31
Note_On_80_Vel_94
Time_Shift_41
Note_On_55_Vel_78
Time_Shift_53
Note_On_79_Vel_92
Time_Shift_1
Note_On_60_Vel_86
Time_Shift_2
Note_On_69_Vel_0
Note_On_70_Vel_0
Note_On_48_Vel_0
Time_Shift_1
Note_On_66_Vel_0
Note_On_74_Vel_0
Note_On_71_Vel_0
Time_Shift_1
Note_On_65_Vel_0
Note_On_59_Vel_0
Time_Shift_1
Note_On_68_Vel_0
Note_On_56_Vel_0
Note_On_64_Vel_88
Sustain_Off
Time_Shift_1
Note_On_80_Vel_0
Note_On_55_Vel_0
Time_Shift_29
Note_On_67_Vel_0
Time_Shift_23
Sustain_On
Time_Shift_29
Note_On_72_Vel_90
Time_Shift_40
Sustain_Off
Time_Shift_11
Note_On_79_Vel_0
Time_Shift_1
Note_On_60_Vel_0
Time_Shift_5
Note_On_64_Vel_0
Time_Shift_1
Note_On_72_Vel_0
Time_Shift_18
Note_On_73_Vel_94
Time_Shift_83
Note_On_72_Vel_92
Time_Shift_8
Note_On_73_Vel_0
Time_Shift_77
Note_On_73_Vel_88
Time_Shift_12
Note_On_71_Vel_98
Time_Shift_4
Note_On_68_Vel_84
Time_Shift_6
Note_On_65_Vel_80
Time_Shift_6
Note_On_60_Vel_62
Time_Shift_21
Note_On_72_Vel_0
Time_Shift_41
Note_On_74_Vel_90
Time_Shift_28
Sustain_On
Time_Shift_71
Note_On_75_Vel_91
Time_Shift_82
Note_On_76_Vel_95
Time_Shift_82
Note_On_77_Vel_95
Time_Shift_77
Note_On_78_Vel_100
Time_Shift_81
Note_On_79_Vel_98
Time_Shift_84
Note_On_80_Vel_96
Time_Shift_78
Note_On_81_Vel_100
Time_Shift_2
Note_On_74_Vel_0
Note_On_75_Vel_0
Note_On_73_Vel_0
Time_Shift_1
Note_On_77_Vel_0
Note_On_78_Vel_0
Note_On_79_Vel_0
Time_Shift_1
Note_On_76_Vel_0
Time_Shift_2
Note_On_65_Vel_0
Note_On_68_Vel_0
Note_On_71_Vel_0
Time_Shift_3
Sustain_Off
Time_Shift_2
Note_On_71_Vel_92
Time_Shift_2
Note_On_68_Vel_81
Time_Shift_1
Note_On_60_Vel_0
Time_Shift_3
Note_On_65_Vel_81
Time_Shift_1
Note_On_60_Vel_73
Time_Shift_34
Sustain_On
Time_Shift_38
Note_On_82_Vel_99
Time_Shift_89
Note_On_83_Vel_97
Time_Shift_88
Note_On_92_Vel_101
Time_Shift_85
Note_On_91_Vel_99
Time_Shift_3
Note_On_72_Vel_85
Note_On_67_Vel_75
Time_Shift_1
Note_On_64_Vel_73
Time_Shift_31
Sustain_Off
Time_Shift_5
Note_On_71_Vel_0
Note_On_82_Vel_0
Time_Shift_3
Note_On_65_Vel_0
Time_Shift_1
Note_On_68_Vel_0
Note_On_92_Vel_0
Time_Shift_5
Note_On_83_Vel_0
Time_Shift_1
Note_On_60_Vel_0
Time_Shift_2
Note_On_67_Vel_0
Time_Shift_6
Note_On_64_Vel_0
Time_Shift_3
Note_On_80_Vel_0
Time_Shift_8
Note_On_81_Vel_0
Time_Shift_11
Note_On_84_Vel_93
Time_Shift_27
Note_On_72_Vel_0
Time_Shift_50
Note_On_85_Vel_93
Time_Shift_73
Note_On_84_Vel_0
Time_Shift_9
Note_On_84_Vel_93
Time_Shift_17
Note_On_85_Vel_0
Time_Shift_20
Note_On_91_Vel_0
Time_Shift_56
Note_On_83_Vel_94
Time_Shift_2
Note_On_77_Vel_78
Note_On_80_Vel_78
Time_Shift_1
Note_On_72_Vel_71
Time_Shift_18
Sustain_On
Time_Shift_60
Note_On_86_Vel_93
Time_Shift_87
Note_On_89_Vel_98
Time_Shift_80
Note_On_92_Vel_96
Time_Shift_84
Note_On_79_Vel_80
Time_Shift_1
Note_On_91_Vel_99
Time_Shift_2
Note_On_76_Vel_71
Time_Shift_18
Sustain_Off
Time_Shift_2
Note_On_72_Vel_0
Note_On_80_Vel_0
Time_Shift_1
Note_On_77_Vel_0
Note_On_92_Vel_0
Time_Shift_1
Note_On_83_Vel_0
Time_Shift_2
Note_On_89_Vel_0
Time_Shift_2
Note_On_86_Vel_0
Time_Shift_6
Note_On_84_Vel_0
Time_Shift_59
Note_On_84_Vel_91
Time_Shift_74
Note_On_85_Vel_95
Time_Shift_20
Note_On_79_Vel_0
Time_Shift_23
Note_On_76_Vel_0
Time_Shift_8
Note_On_91_Vel_0
Time_Shift_15
Note_On_84_Vel_0
Time_Shift_8
Note_On_84_Vel_97
Time_Shift_8
Note_On_85_Vel_0
Time_Shift_79
Note_On_80_Vel_94
Note_On_83_Vel_101
Time_Shift_1
Note_On_77_Vel_85
Time_Shift_4
Sustain_On
Time_Shift_1
Note_On_72_Vel_80
Time_Shift_78
Note_On_86_Vel_95
Time_Shift_79
Note_On_89_Vel_103
Time_Shift_84
Note_On_95_Vel_94
Time_Shift_87
Note_On_96_Vel_102
Time_Shift_3
Note_On_79_Vel_89
Time_Shift_1
Note_On_76_Vel_77
Time_Shift_9
Sustain_Off
Time_Shift_47
Note_On_72_Vel_0
Time_Shift_1
Note_On_83_Vel_0
Note_On_80_Vel_0
Time_Shift_2
Note_On_89_Vel_0
Time_Shift_1
Note_On_86_Vel_0
Time_Shift_2
Note_On_95_Vel_0
Time_Shift_4
Note_On_77_Vel_0
Time_Shift_8
Note_On_84_Vel_0
Time_Shift_11
Note_On_84_Vel_93
Time_Shift_12
Sustain_On
Time_Shift_65
Note_On_85_Vel_95
Time_Shift_73
Note_On_84_Vel_0
Time_Shift_8
Note_On_84_Vel_96
Time_Shift_62
Note_On_79_Vel_0
Time_Shift_16
Sustain_Off
Time_Shift_4
Note_On_77_Vel_92
Time_Shift_2
Note_On_80_Vel_95
Time_Shift_1
Sustain_On
Time_Shift_2
Note_On_72_Vel_87
Time_Shift_1
Note_On_83_Vel_92
Time_Shift_84
Note_On_86_Vel_92
Time_Shift_84
Note_On_89_Vel_101
Time_Shift_13
Note_On_96_Vel_0
Time_Shift_66
Note_On_92_Vel_97
Time_Shift_80
Note_On_76_Vel_0
Time_Shift_9
Note_On_79_Vel_90
Time_Shift_1
Note_On_91_Vel_101
Time_Shift_1
Note_On_76_Vel_85
Time_Shift_71
Note_On_86_Vel_0
Time_Shift_1
Note_On_85_Vel_0
Note_On_72_Vel_0
Time_Shift_1
Note_On_77_Vel_0
Time_Shift_1
Note_On_83_Vel_0
Time_Shift_1
Note_On_80_Vel_0
Note_On_92_Vel_0
Note_On_89_Vel_0
Time_Shift_3
Sustain_Off
Time_Shift_3
Note_On_84_Vel_0
Time_Shift_7
Note_On_84_Vel_93
Time_Shift_70
Sustain_On
Time_Shift_4
Note_On_85_Vel_94
Time_Shift_73
Note_On_84_Vel_0
Time_Shift_6
Note_On_84_Vel_95
Time_Shift_1
Note_On_76_Vel_0
Time_Shift_88
Sustain_Off
Time_Shift_1
Note_On_83_Vel_93
Note_On_80_Vel_97
Time_Shift_2
Note_On_72_Vel_87
Note_On_77_Vel_85
Time_Shift_17
Sustain_On
Time_Shift_7
Note_On_91_Vel_0
Time_Shift_55
Note_On_86_Vel_97
Time_Shift_83
Note_On_89_Vel_105
Time_Shift_81
Note_On_95_Vel_95
Time_Shift_66
Note_On_79_Vel_0
Time_Shift_5
Note_On_96_Vel_106
Time_Shift_3
Note_On_79_Vel_103
Time_Shift_3
Note_On_76_Vel_98
Time_Shift_21
Note_On_72_Vel_0
Time_Shift_2
Note_On_80_Vel_0
Note_On_86_Vel_0
Note_On_95_Vel_0
Time_Shift_1
Note_On_89_Vel_0
Note_On_83_Vel_0
Sustain_Off
Time_Shift_11
Note_On_77_Vel_0
Note_On_85_Vel_0
Time_Shift_7
Note_On_84_Vel_0
Time_Shift_54
Sustain_On
Time_Shift_160
Note_On_60_Vel_76
Time_Shift_62
Note_On_67_Vel_77
Time_Shift_9
Note_On_96_Vel_0
Time_Shift_38
Note_On_76_Vel_0
Time_Shift_4
Note_On_91_Vel_105
Time_Shift_1
Note_On_76_Vel_98
Time_Shift_1
Note_On_88_Vel_100
Time_Shift_17
Sustain_Off
Time_Shift_71
Note_On_86_Vel_92
Time_Shift_13
Sustain_On
Time_Shift_63
Note_On_84_Vel_97
Time_Shift_78
Note_On_96_Vel_103
Time_Shift_90
Note_On_88_Vel_0
Note_On_91_Vel_0
Time_Shift_5
Note_On_88_Vel_94
Note_On_91_Vel_98
Time_Shift_79
Note_On_86_Vel_0
Time_Shift_5
Note_On_86_Vel_93
Time_Shift_80
Note_On_84_Vel_0
Time_Shift_5
Note_On_84_Vel_94
Time_Shift_83
Note_On_72_Vel_87
Time_Shift_73
Note_On_76_Vel_0
Note_On_79_Vel_0
Time_Shift_6
Note_On_79_Vel_93
Time_Shift_5
Note_On_76_Vel_86
Time_Shift_84
Note_On_74_Vel_88
Time_Shift_74
Note_On_72_Vel_0
Time_Shift_9
Note_On_72_Vel_87
Time_Shift_24
Note_On_48_Vel_76
Time_Shift_59
Note_On_84_Vel_0
Time_Shift_5
Note_On_84_Vel_93
Time_Shift_15
Note_On_55_Vel_75
Time_Shift_69
Note_On_64_Vel_89
Time_Shift_3
Note_On_76_Vel_0
Note_On_79_Vel_0
Time_Shift_4
Note_On_79_Vel_87
Time_Shift_1
Note_On_76_Vel_91
Time_Shift_88
Note_On_74_Vel_0
Time_Shift_5
Note_On_74_Vel_86
Time_Shift_79
Note_On_72_Vel_0
Time_Shift_7
Note_On_72_Vel_83
Time_Shift_24
Note_On_55_Vel_0
Time_Shift_10
Note_On_55_Vel_57
Time_Shift_24
Note_On_74_Vel_0
Note_On_86_Vel_0
Note_On_72_Vel_0
Note_On_88_Vel_0
Time_Shift_1
Note_On_48_Vel_0
Note_On_84_Vel_0
Note_On_91_Vel_0
Note_On_76_Vel_0
Note_On_96_Vel_0
Note_On_79_Vel_0
Sustain_Off
Note_On_55_Vel_0
Note_On_67_Vel_0
Time_Shift_1
Note_On_64_Vel_0
Time_Shift_17
Note_On_60_Vel_0
Time_Shift_9
Note_On_60_Vel_85
Time_Shift_33
Note_On_60_Vel_0
Time_Shift_60
Note_On_67_Vel_80
Time_Shift_1
Note_On_64_Vel_71
Time_Shift_5
Sustain_On
Time_Shift_86
Note_On_62_Vel_85
Time_Shift_85
Note_On_60_Vel_84
Time_Shift_59
Note_On_36_Vel_73
Time_Shift_35
Note_On_72_Vel_89
Time_Shift_31
Note_On_43_Vel_73
Time_Shift_65
Note_On_64_Vel_0
Note_On_67_Vel_0
Time_Shift_8
Note_On_67_Vel_86
Time_Shift_1
Note_On_52_Vel_88
Time_Shift_2
Note_On_64_Vel_85
Time_Shift_89
Note_On_62_Vel_0
Time_Shift_7
Note_On_62_Vel_87
Time_Shift_93
Note_On_60_Vel_0
Time_Shift_9
Note_On_60_Vel_80
Time_Shift_106
Note_On_48_Vel_82
Time_Shift_37
Note_On_43_Vel_0
Note_On_62_Vel_0
Sustain_Off
Time_Shift_2
Note_On_72_Vel_0
Time_Shift_2
Note_On_52_Vel_0
Time_Shift_1
Note_On_60_Vel_0
Note_On_36_Vel_0
Time_Shift_2
Note_On_48_Vel_0
Time_Shift_17
Note_On_64_Vel_0
Time_Shift_8
Note_On_67_Vel_0
Time_Shift_42
Note_On_55_Vel_83
Time_Shift_1
Note_On_52_Vel_68
Time_Shift_125
Note_On_50_Vel_78
Time_Shift_24
Note_On_52_Vel_0
Time_Shift_96
Note_On_50_Vel_0
Time_Shift_9
Note_On_48_Vel_79
Time_Shift_76
Note_On_48_Vel_0
Time_Shift_7
Note_On_55_Vel_0
Time_Shift_69
Note_On_36_Vel_73
Time_Shift_33
Note_On_36_Vel_0
Time_Shift_204
Note_On_56_Vel_95
Time_Shift_2
Note_On_53_Vel_75
Time_Shift_3
Note_On_48_Vel_76
Time_Shift_3
Note_On_41_Vel_73
Time_Shift_13
Sustain_On
Time_Shift_158
Note_On_29_Vel_65
Time_Shift_115
Note_On_29_Vel_0
Time_Shift_4
Note_On_41_Vel_0
Note_On_48_Vel_0
Time_Shift_4
Sustain_Off
Note_On_56_Vel_0
Time_Shift_18
Note_On_53_Vel_0
Time_Shift_45
Note_On_53_Vel_83
Time_Shift_20
Note_On_44_Vel_67
Time_Shift_4
Sustain_On
Time_Shift_2
Note_On_48_Vel_56
Time_Shift_132
Note_On_32_Vel_64
Time_Shift_120
Note_On_53_Vel_0
Time_Shift_10
Note_On_53_Vel_78
Time_Shift_10
Note_On_46_Vel_66
Note_On_49_Vel_66
Time_Shift_161
Note_On_34_Vel_59
Time_Shift_2
Note_On_36_Vel_67
Time_Shift_112
Note_On_37_Vel_74
Time_Shift_101
Note_On_55_Vel_93
Time_Shift_3
Note_On_36_Vel_0
Time_Shift_12
Note_On_40_Vel_69
Time_Shift_130
Note_On_56_Vel_90
Time_Shift_4
Note_On_48_Vel_0
Time_Shift_3
Note_On_41_Vel_72
Time_Shift_1
Note_On_48_Vel_67
Time_Shift_11
Note_On_44_Vel_0
Time_Shift_4
Note_On_44_Vel_65
Time_Shift_10
Sustain_Off
Time_Shift_43
Note_On_55_Vel_0
Time_Shift_2
Note_On_53_Vel_0
Time_Shift_1
Note_On_37_Vel_0
Note_On_34_Vel_0
Time_Shift_1
Note_On_46_Vel_0
Time_Shift_1
Note_On_49_Vel_0
Time_Shift_1
Note_On_32_Vel_0
Time_Shift_1
Note_On_41_Vel_0
Time_Shift_1
Note_On_44_Vel_0
Time_Shift_50
Note_On_40_Vel_0
Time_Shift_7
Note_On_40_Vel_74
Time_Shift_14
Note_On_52_Vel_58
Time_Shift_104
Note_On_41_Vel_68
Time_Shift_2
Note_On_53_Vel_76
Time_Shift_12
Sustain_On
Time_Shift_86
Note_On_29_Vel_74
Time_Shift_6
Note_On_52_Vel_0
Time_Shift_138
Note_On_58_Vel_93
Time_Shift_4
Note_On_31_Vel_75
Time_Shift_20
Note_On_40_Vel_0
Time_Shift_1
Note_On_41_Vel_0
Note_On_29_Vel_0
Sustain_Off
Time_Shift_1
Note_On_53_Vel_0
Note_On_56_Vel_0
Time_Shift_5
Note_On_48_Vel_0
Time_Shift_61
Sustain_On
Time_Shift_18
Note_On_43_Vel_71
Time_Shift_122
Note_On_32_Vel_73
Time_Shift_2
Note_On_44_Vel_80
Note_On_60_Vel_95
Time_Shift_11
Note_On_53_Vel_72
Time_Shift_11
Note_On_58_Vel_0
Time_Shift_1
Note_On_43_Vel_0
Time_Shift_1
Note_On_31_Vel_0
Time_Shift_3
Sustain_Off
Time_Shift_85
Sustain_On
Time_Shift_7
Note_On_32_Vel_0
Time_Shift_11
Note_On_32_Vel_71
Time_Shift_127
Note_On_61_Vel_96
Time_Shift_16
Note_On_53_Vel_0
Time_Shift_2
Note_On_34_Vel_64
Time_Shift_4
Note_On_53_Vel_68
Time_Shift_25
Note_On_44_Vel_0
Time_Shift_4
Note_On_32_Vel_0
Note_On_60_Vel_0
Time_Shift_6
Sustain_Off
Time_Shift_28
Note_On_34_Vel_0
Time_Shift_26
Note_On_46_Vel_69
Time_Shift_116
Note_On_55_Vel_64
Time_Shift_1
Note_On_45_Vel_72
Time_Shift_26
Sustain_On
Time_Shift_77
Note_On_46_Vel_0
Time_Shift_7
Note_On_46_Vel_74
Time_Shift_132
Note_On_60_Vel_90
Time_Shift_3
Note_On_48_Vel_75
Time_Shift_5
Note_On_52_Vel_54
Time_Shift_26
Note_On_45_Vel_0
Sustain_Off
Note_On_46_Vel_0
Note_On_53_Vel_0
Note_On_55_Vel_0
Time_Shift_2
Note_On_61_Vel_0
Time_Shift_71
Sustain_On
Time_Shift_15
Note_On_47_Vel_71
Time_Shift_107
Note_On_48_Vel_0
Time_Shift_10
Note_On_48_Vel_68
Time_Shift_2
Note_On_58_Vel_92
Time_Shift_115
Note_On_36_Vel_68
Time_Shift_131
Note_On_56_Vel_91
Note_On_37_Vel_64
Time_Shift_24
Sustain_Off
Time_Shift_22
Note_On_47_Vel_0
Note_On_58_Vel_0
Note_On_52_Vel_0
Time_Shift_27
Note_On_60_Vel_0
Time_Shift_38
Note_On_36_Vel_0
Time_Shift_18
Note_On_49_Vel_75
Time_Shift_5
Sustain_On
Time_Shift_100
Note_On_48_Vel_0
Time_Shift_6
Note_On_48_Vel_72
Time_Shift_102
Note_On_49_Vel_0
Time_Shift_8
Note_On_49_Vel_62
Time_Shift_84
Note_On_37_Vel_0
Time_Shift_42
Note_On_55_Vel_77
Time_Shift_7
Note_On_46_Vel_69
Time_Shift_17
Note_On_48_Vel_0
Time_Shift_1
Note_On_49_Vel_0
Time_Shift_3
Sustain_Off
Time_Shift_30
Note_On_56_Vel_0
Time_Shift_72
Note_On_46_Vel_0
Time_Shift_13
Note_On_43_Vel_60
Time_Shift_7
Sustain_On
Time_Shift_95
Note_On_52_Vel_65
Time_Shift_1
Note_On_48_Vel_61
Time_Shift_121
Note_On_46_Vel_66
Time_Shift_133
Note_On_53_Vel_76
Time_Shift_6
Note_On_44_Vel_61
Time_Shift_15
Note_On_46_Vel_0
Time_Shift_1
Note_On_43_Vel_0
Note_On_55_Vel_0
Note_On_52_Vel_0
Time_Shift_5
Sustain_Off
Time_Shift_22
Sustain_On
Time_Shift_80
Note_On_41_Vel_69
Time_Shift_127
Note_On_53_Vel_0
Time_Shift_5
Note_On_53_Vel_81
Time_Shift_10
Sustain_Off
Time_Shift_1
Note_On_44_Vel_0
Note_On_48_Vel_0
Time_Shift_4
Note_On_44_Vel_60
Time_Shift_1
Note_On_48_Vel_49
Time_Shift_41
Sustain_On
Time_Shift_83
Note_On_29_Vel_65
Time_Shift_147
Note_On_53_Vel_0
Time_Shift_5
Note_On_53_Vel_66
Time_Shift_12
Note_On_46_Vel_68
Time_Shift_2
Note_On_49_Vel_68
Time_Shift_130
Note_On_36_Vel_66
Time_Shift_49
Sustain_Off
Time_Shift_17
Sustain_On
Time_Shift_48
Note_On_37_Vel_70
Time_Shift_6
Note_On_29_Vel_0
Time_Shift_110
Note_On_55_Vel_88
Note_On_40_Vel_73
Time_Shift_132
Note_On_56_Vel_93
Time_Shift_11
Note_On_36_Vel_0
Note_On_44_Vel_0
Time_Shift_5
Note_On_36_Vel_64
Time_Shift_4
Note_On_44_Vel_62
Time_Shift_95
Sustain_Off
Time_Shift_4
Note_On_40_Vel_0
Note_On_48_Vel_0
Time_Shift_2
Note_On_55_Vel_0
Time_Shift_2
Note_On_37_Vel_0
Note_On_36_Vel_0
Note_On_46_Vel_0
Note_On_49_Vel_0
Time_Shift_1
Note_On_53_Vel_0
Time_Shift_1
Note_On_40_Vel_72
Time_Shift_3
Note_On_48_Vel_64
Time_Shift_6
Note_On_41_Vel_0
Time_Shift_54
Note_On_48_Vel_0
Time_Shift_46
Sustain_On
Time_Shift_7
Note_On_41_Vel_71
Time_Shift_3
Note_On_53_Vel_82
Time_Shift_105
Note_On_29_Vel_71
Time_Shift_30
Note_On_37_Vel_52
Time_Shift_9
Note_On_37_Vel_0
Time_Shift_93
Note_On_58_Vel_92
Time_Shift_11
Note_On_46_Vel_69
Time_Shift_1
Note_On_43_Vel_64
Time_Shift_5
Note_On_34_Vel_63
Note_On_31_Vel_64
Time_Shift_18
Note_On_29_Vel_0
Time_Shift_2
Note_On_41_Vel_0
Note_On_44_Vel_0
Time_Shift_2
Note_On_56_Vel_0
Time_Shift_2
Sustain_Off
Time_Shift_12
Note_On_40_Vel_0
Time_Shift_7
Note_On_34_Vel_0
Time_Shift_8
Sustain_On
Time_Shift_38
Note_On_43_Vel_0
Time_Shift_12
Note_On_43_Vel_73
Time_Shift_119
Note_On_53_Vel_0
Time_Shift_3
Note_On_60_Vel_93
Note_On_44_Vel_77
Time_Shift_2
Note_On_53_Vel_80
Time_Shift_21
Note_On_46_Vel_0
Note_On_43_Vel_0
Sustain_Off
Time_Shift_28
Note_On_31_Vel_0
Time_Shift_15
Sustain_On
Time_Shift_53
Note_On_32_Vel_72
Time_Shift_135
Note_On_61_Vel_96
Time_Shift_4
Note_On_53_Vel_0
Time_Shift_11
Note_On_53_Vel_68
Time_Shift_45
Sustain_Off
Time_Shift_2
Note_On_32_Vel_0
Time_Shift_3
Note_On_60_Vel_0
Time_Shift_2
Note_On_44_Vel_0
Time_Shift_50
Note_On_46_Vel_76
Time_Shift_2
Sustain_On
Time_Shift_117
Note_On_33_Vel_66
Time_Shift_4
Note_On_55_Vel_73
Time_Shift_1
Note_On_45_Vel_70
Time_Shift_1
Note_On_33_Vel_0
Time_Shift_108
Note_On_46_Vel_0
Time_Shift_9
Note_On_46_Vel_69
Time_Shift_133
Note_On_60_Vel_94
Time_Shift_9
Note_On_52_Vel_71
Time_Shift_4
Note_On_48_Vel_78
Time_Shift_32
Note_On_55_Vel_0
Note_On_46_Vel_0
Time_Shift_1
Note_On_61_Vel_0
Time_Shift_4
Note_On_58_Vel_0
Time_Shift_15
Note_On_53_Vel_0
Time_Shift_4
Sustain_Off
Time_Shift_11
Note_On_45_Vel_0
Time_Shift_8
Sustain_On
Time_Shift_36
Note_On_47_Vel_77
Time_Shift_118
Note_On_48_Vel_0
Time_Shift_8
Note_On_48_Vel_84
Time_Shift_2
Note_On_64_Vel_99
Time_Shift_17
Note_On_58_Vel_80
Time_Shift_14
Note_On_55_Vel_62
Time_Shift_86
Note_On_36_Vel_81
Time_Shift_153
Note_On_65_Vel_94
Time_Shift_12
Note_On_60_Vel_0
Time_Shift_2
Note_On_37_Vel_75
Time_Shift_4
Note_On_60_Vel_68
Time_Shift_5
Note_On_53_Vel_71
Time_Shift_5
Note_On_56_Vel_70
Time_Shift_40
Sustain_Off
Time_Shift_1
Note_On_58_Vel_0
Note_On_64_Vel_0
Note_On_55_Vel_0
Time_Shift_2
Note_On_47_Vel_0
Note_On_52_Vel_0
Time_Shift_1
Note_On_48_Vel_0
Note_On_36_Vel_0
Time_Shift_84
Note_On_49_Vel_80
Time_Shift_55
Sustain_On
Time_Shift_68
Note_On_51_Vel_73
Time_Shift_130
Note_On_58_Vel_84
Time_Shift_136
Note_On_64_Vel_83
Time_Shift_10
Note_On_55_Vel_74
Time_Shift_2
Note_On_60_Vel_0
Time_Shift_11
Note_On_60_Vel_73
Time_Shift_2
Note_On_48_Vel_71
Time_Shift_33
Note_On_37_Vel_0
Time_Shift_4
Note_On_51_Vel_0
Note_On_65_Vel_0
Time_Shift_1
Note_On_53_Vel_0
Time_Shift_1
Note_On_49_Vel_0
Note_On_56_Vel_0
Time_Shift_14
Sustain_Off
Time_Shift_81
Note_On_43_Vel_75
Time_Shift_30
Sustain_On
Time_Shift_110
Note_On_40_Vel_81
Time_Shift_178
Note_On_37_Vel_84
Time_Shift_211
Note_On_64_Vel_0
Time_Shift_10
Note_On_64_Vel_92
Time_Shift_13
Note_On_55_Vel_0
Note_On_60_Vel_0
Time_Shift_7
Note_On_60_Vel_68
Time_Shift_1
Note_On_55_Vel_72
Time_Shift_3
Note_On_52_Vel_68
Time_Shift_34
Note_On_36_Vel_49
Time_Shift_173
Sustain_Off
Time_Shift_4
Note_On_58_Vel_0
Time_Shift_8
Note_On_40_Vel_0
Time_Shift_6
Note_On_37_Vel_0
Time_Shift_3
Note_On_43_Vel_0
Time_Shift_1
Note_On_48_Vel_0
Time_Shift_1
Note_On_40_Vel_61
Time_Shift_74
Sustain_On
Time_Shift_80
Note_On_41_Vel_69
Time_Shift_137
Note_On_42_Vel_79
Time_Shift_151
Note_On_64_Vel_0
Time_Shift_6
Note_On_64_Vel_80
Time_Shift_15
Note_On_43_Vel_66
Time_Shift_151
Note_On_44_Vel_74
Time_Shift_73
Sustain_Off
Time_Shift_47
Note_On_64_Vel_0
Time_Shift_4
Note_On_64_Vel_83
Time_Shift_1
Note_On_45_Vel_65
Time_Shift_18
Sustain_On
Time_Shift_123
Note_On_43_Vel_0
Time_Shift_11
Note_On_43_Vel_67
Time_Shift_127
Note_On_64_Vel_0
Time_Shift_5
Note_On_64_Vel_72
Time_Shift_6
Note_On_59_Vel_59
Time_Shift_1
Note_On_31_Vel_69
Time_Shift_4
Note_On_31_Vel_0
Time_Shift_3
Note_On_53_Vel_64
Time_Shift_116
Note_On_44_Vel_0
Time_Shift_5
Sustain_Off
Time_Shift_6
Note_On_43_Vel_0
Time_Shift_7
Note_On_45_Vel_0
Time_Shift_1
Note_On_43_Vel_74
Time_Shift_8
Note_On_36_Vel_0
Time_Shift_7
Note_On_42_Vel_0
Time_Shift_8
Note_On_60_Vel_0
Sustain_On
Time_Shift_102
Note_On_42_Vel_68
Time_Shift_113
Note_On_43_Vel_0
Time_Shift_8
Note_On_43_Vel_67
Time_Shift_141
Note_On_62_Vel_80
Time_Shift_8
Note_On_44_Vel_67
Time_Shift_136
Note_On_45_Vel_60
Time_Shift_30
Note_On_52_Vel_0
Note_On_55_Vel_0
Note_On_64_Vel_0
Time_Shift_102
Note_On_46_Vel_69
Time_Shift_146
Note_On_47_Vel_69
Time_Shift_149
Note_On_60_Vel_69
Time_Shift_4
Note_On_48_Vel_68
Time_Shift_8
Note_On_52_Vel_55
Time_Shift_1
Note_On_55_Vel_50
Time_Shift_56
Note_On_62_Vel_0
Time_Shift_1
Note_On_44_Vel_0
Note_On_45_Vel_0
Note_On_59_Vel_0
Note_On_47_Vel_0
Time_Shift_1
Note_On_46_Vel_0
Note_On_41_Vel_0
Time_Shift_3
Note_On_42_Vel_0
Time_Shift_12
Note_On_53_Vel_0
Time_Shift_8
Note_On_43_Vel_0
Sustain_Off
Time_Shift_23
Note_On_40_Vel_0
Time_Shift_35
Note_On_47_Vel_61
Time_Shift_27
Sustain_On
Time_Shift_99
Note_On_48_Vel_0
Note_On_52_Vel_0
Time_Shift_7
Note_On_48_Vel_59
Time_Shift_2
Note_On_52_Vel_41
Time_Shift_128
Note_On_46_Vel_63
Time_Shift_134
Note_On_44_Vel_62
Time_Shift_41
Note_On_53_Vel_43
Time_Shift_31
Note_On_46_Vel_0
Note_On_47_Vel_0
Note_On_52_Vel_0
Time_Shift_12
Sustain_Off
Time_Shift_29
Sustain_On
Time_Shift_27
Note_On_40_Vel_60
Time_Shift_184
Note_On_41_Vel_57
Time_Shift_185
Note_On_37_Vel_45
Time_Shift_19
Note_On_48_Vel_0
Time_Shift_46
Note_On_53_Vel_0
Time_Shift_10
Note_On_56_Vel_60
Note_On_53_Vel_57
Time_Shift_128
Note_On_55_Vel_0
Note_On_60_Vel_0
Time_Shift_4
Note_On_36_Vel_48
Note_On_52_Vel_53
Time_Shift_4
Sustain_Off
Time_Shift_2
Note_On_55_Vel_53
Time_Shift_1
Note_On_60_Vel_52
Time_Shift_9
Note_On_41_Vel_0
Note_On_37_Vel_0
Note_On_56_Vel_0
Time_Shift_1
Note_On_40_Vel_0
Time_Shift_1
Note_On_44_Vel_0
Time_Shift_48
Sustain_On
Time_Shift_121
Note_On_35_Vel_46
Time_Shift_132
Note_On_53_Vel_0
Time_Shift_4
Note_On_53_Vel_50
Time_Shift_2
Note_On_50_Vel_50
Time_Shift_2
Note_On_36_Vel_0
Time_Shift_4
Note_On_36_Vel_42
Time_Shift_169
Note_On_37_Vel_46
Time_Shift_149
Note_On_55_Vel_0
Time_Shift_8
Note_On_36_Vel_0
Time_Shift_1
Note_On_55_Vel_46
Time_Shift_8
Note_On_36_Vel_43
Time_Shift_29
Note_On_35_Vel_0
Time_Shift_39
Note_On_52_Vel_0
Time_Shift_11
Note_On_52_Vel_41
Time_Shift_42
Note_On_50_Vel_0
Time_Shift_39
Note_On_37_Vel_0
Time_Shift_7
Note_On_34_Vel_38
Time_Shift_166
Note_On_31_Vel_38
Time_Shift_180
Note_On_36_Vel_0
Time_Shift_4
Note_On_32_Vel_37
Time_Shift_1
Note_On_52_Vel_0
Time_Shift_272
Note_On_34_Vel_0
Time_Shift_25
Note_On_41_Vel_39
Time_Shift_2
Note_On_29_Vel_40
Time_Shift_11
Note_On_53_Vel_0
Time_Shift_5
Note_On_56_Vel_39
Note_On_53_Vel_37
Time_Shift_49
Note_On_31_Vel_0
Time_Shift_176
Note_On_29_Vel_0
Note_On_41_Vel_0
Time_Shift_5
Note_On_29_Vel_38
Note_On_41_Vel_43
Time_Shift_193
Note_On_43_Vel_46
Time_Shift_158
Note_On_44_Vel_47
Time_Shift_147
Note_On_65_Vel_56
Time_Shift_38
Note_On_46_Vel_43
Note_On_61_Vel_41
Time_Shift_125
Note_On_48_Vel_54
Time_Shift_112
Note_On_49_Vel_57
Time_Shift_117
Note_On_67_Vel_65
Time_Shift_14
Note_On_52_Vel_56
Time_Shift_13
Note_On_29_Vel_0
Time_Shift_113
Note_On_68_Vel_66
Time_Shift_10
Note_On_56_Vel_0
Time_Shift_8
Note_On_53_Vel_0
Note_On_60_Vel_0
Time_Shift_3
Note_On_56_Vel_47
Time_Shift_1
Note_On_53_Vel_50
Time_Shift_6
Note_On_60_Vel_42
Time_Shift_34
Note_On_52_Vel_0
Note_On_61_Vel_0
Note_On_44_Vel_0
Note_On_48_Vel_0
Time_Shift_1
Note_On_43_Vel_0
Note_On_55_Vel_0
Note_On_41_Vel_0
Time_Shift_1
Note_On_32_Vel_0
Time_Shift_2
Note_On_49_Vel_0
Note_On_67_Vel_0
Time_Shift_4
Sustain_Off
Time_Shift_9
Sustain_On
Time_Shift_68
Note_On_52_Vel_54
Time_Shift_16
Note_On_46_Vel_0
Time_Shift_93
Note_On_53_Vel_0
Time_Shift_5
Note_On_53_Vel_63
Time_Shift_112
Note_On_41_Vel_65
Time_Shift_130
Note_On_70_Vel_70
Time_Shift_10
Note_On_58_Vel_59
Time_Shift_7
Note_On_43_Vel_65
Time_Shift_101
Note_On_55_Vel_61
Time_Shift_107
Note_On_72_Vel_80
Time_Shift_4
Note_On_56_Vel_0
Note_On_65_Vel_0
Time_Shift_4
Note_On_65_Vel_59
Note_On_56_Vel_69
Time_Shift_131
Note_On_44_Vel_66
Time_Shift_123
Note_On_73_Vel_76
Time_Shift_3
Note_On_65_Vel_0
Time_Shift_4
Note_On_46_Vel_63
Time_Shift_1
Note_On_65_Vel_65
Time_Shift_13
Note_On_58_Vel_0
Time_Shift_1
Note_On_52_Vel_0
Note_On_41_Vel_0
Note_On_55_Vel_0
Note_On_70_Vel_0
Note_On_56_Vel_0
Note_On_68_Vel_0
Time_Shift_1
Note_On_72_Vel_0
Note_On_43_Vel_0
Note_On_44_Vel_0
Time_Shift_7
Sustain_Off
Time_Shift_4
Note_On_53_Vel_0
Note_On_60_Vel_0
Time_Shift_38
Sustain_On
Time_Shift_51
Note_On_58_Vel_60
Time_Shift_123
Note_On_57_Vel_60
Time_Shift_103
Note_On_58_Vel_0
Time_Shift_10
Note_On_58_Vel_60
Time_Shift_87
Sustain_Off
Time_Shift_12
Note_On_72_Vel_77
Time_Shift_2
Note_On_58_Vel_0
Time_Shift_4
Note_On_73_Vel_0
Time_Shift_3
Note_On_57_Vel_0
Time_Shift_12
Sustain_On
Time_Shift_5
Note_On_64_Vel_54
Note_On_60_Vel_62
Time_Shift_3
Note_On_46_Vel_0
Time_Shift_46
Note_On_65_Vel_0
Time_Shift_61
Note_On_59_Vel_68
Time_Shift_100
Note_On_60_Vel_0
Time_Shift_5
Note_On_70_Vel_78
Time_Shift_3
Note_On_60_Vel_58
Time_Shift_112
Note_On_48_Vel_63
Time_Shift_112
Note_On_68_Vel_70
Time_Shift_8
Note_On_65_Vel_58
Time_Shift_9
Note_On_49_Vel_69
Time_Shift_7
Sustain_Off
Time_Shift_15
Note_On_48_Vel_0
Note_On_64_Vel_0
Note_On_72_Vel_0
Time_Shift_1
Note_On_60_Vel_0
Note_On_59_Vel_0
Time_Shift_7
Note_On_70_Vel_0
Time_Shift_90
Sustain_On
Time_Shift_1
Note_On_61_Vel_69
Time_Shift_107
Note_On_60_Vel_63
Time_Shift_122
Note_On_61_Vel_0
Time_Shift_5
Note_On_61_Vel_67
Time_Shift_91
Sustain_Off
Time_Shift_5
Note_On_65_Vel_0
Note_On_67_Vel_65
Note_On_60_Vel_0
Time_Shift_23
Note_On_58_Vel_56
Time_Shift_84
Sustain_On
Time_Shift_19
Note_On_55_Vel_55
Time_Shift_73
Note_On_68_Vel_0
Time_Shift_7
Note_On_61_Vel_0
Time_Shift_32
Note_On_60_Vel_57
Note_On_64_Vel_47
Time_Shift_114
Note_On_58_Vel_0
Time_Shift_5
Note_On_58_Vel_52
Time_Shift_81
Sustain_Off
Time_Shift_14
Note_On_49_Vel_0
Time_Shift_1
Note_On_67_Vel_0
Time_Shift_2
Note_On_64_Vel_0
Time_Shift_1
Note_On_58_Vel_0
Time_Shift_1
Note_On_55_Vel_0
Time_Shift_2
Note_On_65_Vel_60
Time_Shift_7
Note_On_56_Vel_62
Time_Shift_17
Sustain_On
Time_Shift_110
Note_On_53_Vel_60
Time_Shift_136
Note_On_65_Vel_0
Time_Shift_10
Note_On_65_Vel_69
Time_Shift_13
Note_On_56_Vel_0
Note_On_60_Vel_0
Time_Shift_4
Note_On_60_Vel_47
Time_Shift_1
Note_On_56_Vel_61
Time_Shift_92
Note_On_41_Vel_56
Time_Shift_171
Note_On_65_Vel_0
Time_Shift_4
Note_On_46_Vel_56
Time_Shift_1
Note_On_65_Vel_70
Time_Shift_5
Note_On_61_Vel_62
Time_Shift_98
Sustain_Off
Time_Shift_34
Note_On_48_Vel_59
Time_Shift_50
Sustain_On
Time_Shift_63
Note_On_49_Vel_62
Time_Shift_101
Note_On_67_Vel_70
Time_Shift_21
Note_On_52_Vel_68
Time_Shift_107
Note_On_56_Vel_0
Time_Shift_2
Note_On_68_Vel_84
Time_Shift_9
Note_On_56_Vel_69
Time_Shift_12
Note_On_53_Vel_0
Time_Shift_9
Note_On_53_Vel_64
Time_Shift_33
Note_On_48_Vel_0
Note_On_61_Vel_0
Time_Shift_1
Note_On_52_Vel_0
Time_Shift_1
Note_On_67_Vel_0
Note_On_49_Vel_0
Time_Shift_4
Sustain_Off
Time_Shift_21
Note_On_60_Vel_0
Note_On_65_Vel_0
Time_Shift_16
Note_On_46_Vel_0
Time_Shift_23
Sustain_On
Time_Shift_10
Note_On_52_Vel_69
Time_Shift_97
Note_On_53_Vel_0
Time_Shift_3
Note_On_65_Vel_81
Time_Shift_3
Note_On_53_Vel_75
Time_Shift_102
Note_On_41_Vel_0
Time_Shift_8
Note_On_41_Vel_72
Time_Shift_122
Note_On_70_Vel_87
Time_Shift_7
Note_On_58_Vel_69
Time_Shift_27
Sustain_Off
Time_Shift_13
Note_On_65_Vel_0
Time_Shift_4
Note_On_65_Vel_48
Time_Shift_6
Note_On_43_Vel_64
Time_Shift_5
Sustain_On
Time_Shift_80
Note_On_55_Vel_68
Time_Shift_104
Note_On_56_Vel_0
Note_On_65_Vel_0
Time_Shift_3
Note_On_72_Vel_93
Time_Shift_6
Note_On_56_Vel_82
Time_Shift_3
Note_On_65_Vel_67
Time_Shift_104
Note_On_44_Vel_80
Time_Shift_115
Note_On_65_Vel_0
Time_Shift_11
Note_On_65_Vel_79
Note_On_73_Vel_91
Time_Shift_1
Note_On_46_Vel_81
Time_Shift_10
Note_On_58_Vel_0
Time_Shift_1
Note_On_52_Vel_0
Time_Shift_1
Note_On_68_Vel_0
Note_On_70_Vel_0
Time_Shift_3
Note_On_41_Vel_0
Note_On_72_Vel_0
Note_On_56_Vel_0
Time_Shift_3
Note_On_55_Vel_0
Time_Shift_2
Note_On_44_Vel_0
Time_Shift_5
Note_On_43_Vel_0
Time_Shift_1
Note_On_53_Vel_0
Time_Shift_29
Sustain_Off
Time_Shift_40
Sustain_On
Time_Shift_24
Note_On_58_Vel_72
Time_Shift_94
Note_On_67_Vel_79
Time_Shift_17
Note_On_57_Vel_74
Time_Shift_103
Note_On_58_Vel_0
Time_Shift_5
Note_On_58_Vel_82
Time_Shift_118
Note_On_72_Vel_87
Time_Shift_10
Note_On_64_Vel_73
Time_Shift_1
Note_On_60_Vel_87
Time_Shift_114
Note_On_59_Vel_87
Time_Shift_105
Note_On_60_Vel_0
Time_Shift_6
Note_On_60_Vel_87
Time_Shift_100
Note_On_48_Vel_90
Time_Shift_116
Note_On_77_Vel_94
Time_Shift_9
Note_On_65_Vel_0
Time_Shift_8
Note_On_68_Vel_77
Time_Shift_3
Note_On_65_Vel_72
Time_Shift_10
Note_On_49_Vel_79
Time_Shift_76
Note_On_60_Vel_0
Time_Shift_1
Note_On_48_Vel_0
Note_On_72_Vel_0
Time_Shift_1
Note_On_59_Vel_0
Sustain_Off
Note_On_73_Vel_0
Time_Shift_1
Note_On_57_Vel_0
Note_On_46_Vel_0
Note_On_67_Vel_0
Note_On_64_Vel_0
Time_Shift_1
Note_On_58_Vel_0
Time_Shift_38
Note_On_61_Vel_89
Time_Shift_7
Sustain_On
Time_Shift_112
Note_On_63_Vel_92
Time_Shift_87
Note_On_61_Vel_0
Time_Shift_9
Note_On_61_Vel_80
Time_Shift_10
Note_On_70_Vel_76
Time_Shift_71
Note_On_64_Vel_76
Time_Shift_64
Note_On_70_Vel_0
Time_Shift_4
Note_On_70_Vel_80
Note_On_60_Vel_88
Time_Shift_30
Note_On_79_Vel_100
Time_Shift_108
Note_On_59_Vel_89
Time_Shift_127
Note_On_60_Vel_0
Time_Shift_11
Note_On_60_Vel_97
Time_Shift_112
Note_On_61_Vel_0
Time_Shift_23
Note_On_48_Vel_95
Time_Shift_176
Note_On_65_Vel_0
Time_Shift_2
Note_On_80_Vel_93
Time_Shift_5
Note_On_72_Vel_84
Note_On_65_Vel_91
Time_Shift_3
Note_On_53_Vel_90
Time_Shift_44
Note_On_72_Vel_0
Time_Shift_10
Note_On_72_Vel_79
Time_Shift_64
Note_On_73_Vel_82
Time_Shift_45
Note_On_75_Vel_86
Time_Shift_27
Note_On_65_Vel_0
Note_On_68_Vel_0
Note_On_73_Vel_0
Time_Shift_5
Note_On_68_Vel_93
Time_Shift_5
Note_On_65_Vel_91
Time_Shift_1
Note_On_73_Vel_92
Time_Shift_8
Sustain_Off
Time_Shift_4
Note_On_64_Vel_0
Time_Shift_2
Note_On_63_Vel_0
Note_On_59_Vel_0
Time_Shift_2
Note_On_80_Vel_0
Note_On_79_Vel_0
Time_Shift_1
Note_On_72_Vel_0
Note_On_53_Vel_0
Note_On_75_Vel_0
Note_On_48_Vel_0
Note_On_60_Vel_0
Time_Shift_2
Note_On_77_Vel_0
Time_Shift_5
Note_On_49_Vel_0
Time_Shift_4
Note_On_70_Vel_0
Time_Shift_23
Note_On_65_Vel_0
Note_On_68_Vel_0
Time_Shift_19
Note_On_73_Vel_0
Time_Shift_6
Note_On_72_Vel_94
Time_Shift_47
Note_On_72_Vel_0
Time_Shift_46
Note_On_71_Vel_88
Note_On_80_Vel_90
Time_Shift_8
Note_On_53_Vel_94
Time_Shift_1
Note_On_72_Vel_79
Note_On_65_Vel_91
Time_Shift_22
Note_On_71_Vel_0
Note_On_53_Vel_0
Time_Shift_1
Note_On_65_Vel_0
Time_Shift_10
Note_On_80_Vel_0
Time_Shift_9
Note_On_72_Vel_0
Time_Shift_42
Note_On_74_Vel_90
Time_Shift_56
Note_On_74_Vel_0
Time_Shift_44
Note_On_68_Vel_92
Note_On_83_Vel_87
Note_On_65_Vel_91
Time_Shift_1
Note_On_73_Vel_83
Time_Shift_4
Note_On_80_Vel_91
Time_Shift_19
Note_On_65_Vel_0
Time_Shift_2
Note_On_68_Vel_0
Time_Shift_27
Note_On_83_Vel_0
Time_Shift_4
Note_On_73_Vel_0
Note_On_80_Vel_0
Time_Shift_27
Note_On_74_Vel_88
Time_Shift_44
Note_On_74_Vel_0
Time_Shift_55
Note_On_53_Vel_99
Time_Shift_1
Note_On_79_Vel_93
Note_On_65_Vel_99
Time_Shift_7
Note_On_71_Vel_79
Time_Shift_21
Note_On_53_Vel_0
Time_Shift_9
Note_On_79_Vel_0
Time_Shift_5
Note_On_65_Vel_0
Time_Shift_8
Note_On_71_Vel_0
Time_Shift_43
Note_On_74_Vel_96
Time_Shift_44
Note_On_74_Vel_0
Time_Shift_48
Note_On_79_Vel_97
Time_Shift_3
Note_On_67_Vel_91
Note_On_83_Vel_99
Time_Shift_2
Note_On_65_Vel_92
Time_Shift_1
Note_On_53_Vel_78
Time_Shift_24
Note_On_67_Vel_0
Note_On_65_Vel_0
Time_Shift_2
Note_On_79_Vel_0
Time_Shift_17
Note_On_53_Vel_0
Time_Shift_4
Note_On_83_Vel_0
Time_Shift_40
Note_On_74_Vel_95
Time_Shift_44
Note_On_74_Vel_0
Time_Shift_54
Note_On_72_Vel_99
Time_Shift_1
Note_On_84_Vel_95
Time_Shift_1
Note_On_76_Vel_90
Time_Shift_1
Note_On_64_Vel_97
Time_Shift_3
Note_On_52_Vel_98
Time_Shift_21
Sustain_On
Time_Shift_58
Note_On_79_Vel_85
Time_Shift_96
Note_On_64_Vel_0
Time_Shift_2
Note_On_85_Vel_100
Time_Shift_1
Note_On_73_Vel_96
Time_Shift_1
Note_On_67_Vel_86
Note_On_64_Vel_79
Time_Shift_65
Note_On_72_Vel_0
Note_On_84_Vel_0
Time_Shift_10
Note_On_84_Vel_94
Note_On_72_Vel_98
Time_Shift_23
Note_On_67_Vel_0
Time_Shift_1
Note_On_73_Vel_0
Note_On_79_Vel_0
Note_On_85_Vel_0
Note_On_52_Vel_0
Time_Shift_1
Sustain_Off
Note_On_64_Vel_0
Time_Shift_2
Note_On_72_Vel_0
Time_Shift_1
Note_On_76_Vel_0
Time_Shift_31
Note_On_84_Vel_0
Time_Shift_42
Note_On_80_Vel_91
Note_On_77_Vel_85
Time_Shift_1
Note_On_53_Vel_85
Time_Shift_26
Sustain_On
Time_Shift_51
Note_On_72_Vel_88
Time_Shift_47
Note_On_73_Vel_75
Time_Shift_56
Note_On_53_Vel_0
Time_Shift_1
Note_On_75_Vel_87
Time_Shift_3
Note_On_65_Vel_76
Note_On_60_Vel_70
Time_Shift_3
Note_On_53_Vel_69
Time_Shift_13
Note_On_56_Vel_66
Time_Shift_14
Note_On_77_Vel_0
Time_Shift_6
Note_On_80_Vel_0
Time_Shift_4
Note_On_73_Vel_0
Time_Shift_6
Note_On_75_Vel_0
Time_Shift_1
Sustain_Off
Time_Shift_1
Note_On_60_Vel_0
Note_On_65_Vel_0
Time_Shift_4
Note_On_53_Vel_0
Time_Shift_8
Note_On_56_Vel_0
Time_Shift_28
Note_On_72_Vel_0
Time_Shift_4
Note_On_72_Vel_91
Time_Shift_31
Note_On_72_Vel_0
Time_Shift_64
Note_On_80_Vel_90
Time_Shift_2
Note_On_71_Vel_83
Time_Shift_1
Note_On_53_Vel_80
Time_Shift_29
Note_On_71_Vel_0
Time_Shift_9
Note_On_80_Vel_0
Time_Shift_44
Note_On_74_Vel_90
Time_Shift_48
Note_On_74_Vel_0
Time_Shift_37
Note_On_53_Vel_0
Time_Shift_5
Note_On_83_Vel_93
Time_Shift_8
Note_On_56_Vel_73
Time_Shift_3
Note_On_62_Vel_77
Time_Shift_2
Note_On_80_Vel_77
Note_On_59_Vel_74
Note_On_53_Vel_70
Time_Shift_25
Note_On_80_Vel_0
Time_Shift_24
Note_On_56_Vel_0
Note_On_83_Vel_0
Time_Shift_2
Note_On_53_Vel_0
Time_Shift_7
Note_On_59_Vel_0
Time_Shift_16
Note_On_62_Vel_0
Time_Shift_1
Note_On_74_Vel_91
Time_Shift_41
Note_On_74_Vel_0
Time_Shift_52
Note_On_53_Vel_95
Time_Shift_1
Note_On_79_Vel_94
Time_Shift_8
Note_On_71_Vel_81
Time_Shift_36
Note_On_71_Vel_0
Time_Shift_10
Note_On_79_Vel_0
Time_Shift_38
Note_On_74_Vel_92
Time_Shift_28
Sustain_On
Time_Shift_20
Note_On_74_Vel_0
Time_Shift_34
Note_On_53_Vel_0
Time_Shift_13
Note_On_62_Vel_87
Note_On_59_Vel_81
Time_Shift_2
Note_On_55_Vel_80
Time_Shift_3
Note_On_79_Vel_96
Note_On_83_Vel_92
Time_Shift_35
Sustain_Off
Time_Shift_20
Note_On_79_Vel_0
Time_Shift_13
Note_On_55_Vel_0
Time_Shift_1
Note_On_59_Vel_0
Time_Shift_1
Note_On_62_Vel_0
Time_Shift_5
Note_On_83_Vel_0
Time_Shift_16
Note_On_74_Vel_91
Time_Shift_43
Note_On_74_Vel_0
Time_Shift_45
Note_On_52_Vel_93
Time_Shift_1
Note_On_60_Vel_72
Time_Shift_3
Note_On_84_Vel_98
Time_Shift_2
Note_On_55_Vel_62
Note_On_72_Vel_99
Time_Shift_35
Sustain_On
Time_Shift_46
Note_On_52_Vel_0
Time_Shift_11
Note_On_79_Vel_90
Time_Shift_19
Note_On_60_Vel_0
Time_Shift_66
Note_On_67_Vel_79
Time_Shift_2
Note_On_60_Vel_81
Time_Shift_4
Note_On_58_Vel_78
Time_Shift_4
Note_On_85_Vel_100
Time_Shift_5
Note_On_73_Vel_94
Time_Shift_73
Note_On_72_Vel_0
Note_On_84_Vel_0
Time_Shift_9
Note_On_72_Vel_95
Note_On_84_Vel_93
Time_Shift_42
Note_On_79_Vel_0
Note_On_72_Vel_0
Note_On_73_Vel_0
Time_Shift_1
Note_On_60_Vel_0
Note_On_84_Vel_0
Time_Shift_1
Note_On_58_Vel_0
Note_On_85_Vel_0
Time_Shift_1
Sustain_Off
Time_Shift_8
Note_On_67_Vel_0
Time_Shift_7
Note_On_55_Vel_0
Time_Shift_36
Note_On_80_Vel_94
Time_Shift_2
Note_On_77_Vel_90
Time_Shift_3
Note_On_53_Vel_80
Time_Shift_1
Note_On_65_Vel_85
Time_Shift_4
Note_On_56_Vel_68
Time_Shift_3
Note_On_60_Vel_64
Time_Shift_20
Sustain_On
Time_Shift_58
Note_On_72_Vel_91
Time_Shift_96
Note_On_53_Vel_0
Time_Shift_1
Note_On_77_Vel_0
Note_On_56_Vel_0
Note_On_65_Vel_0
Time_Shift_1
Note_On_80_Vel_0
Note_On_60_Vel_0
Note_On_72_Vel_0
Time_Shift_1
Note_On_68_Vel_84
Sustain_Off
Time_Shift_86
Note_On_65_Vel_83
Time_Shift_12
Note_On_68_Vel_0
Time_Shift_27
Note_On_65_Vel_0
Time_Shift_60
Note_On_77_Vel_86
Time_Shift_7
Note_On_73_Vel_72
Time_Shift_14
Note_On_58_Vel_77
Time_Shift_2
Note_On_46_Vel_78
Time_Shift_19
Sustain_On
Time_Shift_54
Note_On_76_Vel_74
Time_Shift_92
Note_On_77_Vel_0
Time_Shift_9
Note_On_77_Vel_81
Time_Shift_90
Note_On_72_Vel_86
Time_Shift_7
Note_On_57_Vel_79
Time_Shift_2
Note_On_45_Vel_73
Time_Shift_70
Note_On_76_Vel_0
Time_Shift_2
Note_On_57_Vel_0
Time_Shift_8
Sustain_Off
Time_Shift_4
Note_On_46_Vel_0
Note_On_58_Vel_0
Note_On_73_Vel_0
Note_On_77_Vel_0
Time_Shift_5
Note_On_73_Vel_97
Time_Shift_1
Note_On_65_Vel_99
Note_On_77_Vel_95
Time_Shift_5
Note_On_58_Vel_100
Time_Shift_1
Note_On_46_Vel_95
Time_Shift_73
Note_On_72_Vel_0
Time_Shift_11
Note_On_76_Vel_89
Time_Shift_4
Sustain_On
Time_Shift_92
Note_On_77_Vel_0
Time_Shift_4
Note_On_73_Vel_0
Time_Shift_1
Note_On_77_Vel_98
Time_Shift_92
Note_On_72_Vel_92
Time_Shift_3
Note_On_45_Vel_0
Time_Shift_4
Note_On_57_Vel_95
Time_Shift_4
Note_On_45_Vel_82
Time_Shift_57
Note_On_76_Vel_0
Time_Shift_1
Note_On_58_Vel_0
Note_On_65_Vel_0
Note_On_57_Vel_0
Note_On_45_Vel_0
Time_Shift_6
Sustain_Off
Time_Shift_20
Note_On_77_Vel_0
Time_Shift_8
Note_On_46_Vel_0
Time_Shift_2
Note_On_77_Vel_103
Note_On_58_Vel_109
Time_Shift_1
Note_On_65_Vel_105
Time_Shift_1
Note_On_46_Vel_106
Note_On_73_Vel_99
Time_Shift_34
Note_On_72_Vel_0
Time_Shift_8
Sustain_On
Time_Shift_49
Note_On_76_Vel_74
Time_Shift_82
Note_On_77_Vel_0
Time_Shift_5
Note_On_77_Vel_91
Time_Shift_4
Note_On_72_Vel_71
Time_Shift_83
Note_On_72_Vel_0
Time_Shift_5
Note_On_72_Vel_92
Time_Shift_4
Note_On_56_Vel_103
Time_Shift_1
Note_On_75_Vel_86
Note_On_44_Vel_97
Time_Shift_86
Note_On_77_Vel_0
Note_On_76_Vel_0
Time_Shift_1
Note_On_58_Vel_0
Note_On_72_Vel_0
Note_On_65_Vel_0
Time_Shift_1
Note_On_56_Vel_0
Time_Shift_1
Note_On_44_Vel_0
Note_On_46_Vel_0
Time_Shift_1
Note_On_73_Vel_0
Note_On_75_Vel_0
Time_Shift_2
Sustain_Off
Time_Shift_3
Note_On_75_Vel_101
Note_On_63_Vel_108
Time_Shift_1
Note_On_55_Vel_107
Time_Shift_1
Note_On_73_Vel_101
Time_Shift_1
Note_On_43_Vel_103
Time_Shift_1
Note_On_70_Vel_87
Time_Shift_41
Note_On_55_Vel_0
Time_Shift_3
Note_On_43_Vel_0
Time_Shift_2
Note_On_63_Vel_0
Time_Shift_1
Note_On_75_Vel_0
Time_Shift_2
Note_On_70_Vel_0
Time_Shift_49
Note_On_73_Vel_0
Time_Shift_89
Note_On_63_Vel_92
Time_Shift_72
Sustain_On
Time_Shift_19
Note_On_75_Vel_86
Note_On_70_Vel_83
Time_Shift_1
Note_On_55_Vel_84
Time_Shift_7
Note_On_73_Vel_73
Time_Shift_23
Note_On_61_Vel_67
Time_Shift_43
Note_On_63_Vel_0
Time_Shift_7
Note_On_70_Vel_0
Note_On_75_Vel_0
Time_Shift_3
Note_On_63_Vel_98
Time_Shift_2
Note_On_75_Vel_95
Time_Shift_3
Note_On_73_Vel_0
Time_Shift_3
Note_On_70_Vel_92
Time_Shift_2
Note_On_73_Vel_72
Time_Shift_87
Note_On_75_Vel_0
Time_Shift_6
Note_On_82_Vel_93
Time_Shift_4
Note_On_75_Vel_86
Time_Shift_1
Note_On_85_Vel_90
Note_On_87_Vel_88
Time_Shift_81
Note_On_87_Vel_0
Time_Shift_10
Note_On_87_Vel_105
Time_Shift_83
Note_On_94_Vel_99
Time_Shift_2
Note_On_97_Vel_99
Time_Shift_2
Note_On_99_Vel_98
Time_Shift_14
Note_On_98_Vel_82
Time_Shift_4
Note_On_98_Vel_0
Time_Shift_62
Note_On_94_Vel_0
Note_On_97_Vel_0
Note_On_99_Vel_0
Time_Shift_10
Note_On_94_Vel_104
Note_On_99_Vel_99
Time_Shift_1
Note_On_97_Vel_98
Time_Shift_66
Note_On_87_Vel_0
Time_Shift_10
Note_On_87_Vel_102
Time_Shift_89
Note_On_82_Vel_0
Note_On_85_Vel_0
Time_Shift_11
Note_On_85_Vel_91
Note_On_82_Vel_96
Time_Shift_74
Note_On_75_Vel_0
Note_On_87_Vel_0
Time_Shift_9
Note_On_87_Vel_83
Time_Shift_1
Note_On_75_Vel_92
Time_Shift_97
Note_On_70_Vel_0
Time_Shift_5
Note_On_31_Vel_91
Time_Shift_1
Note_On_43_Vel_98
Time_Shift_2
Note_On_73_Vel_0
Time_Shift_1
Note_On_70_Vel_90
Time_Shift_5
Note_On_73_Vel_80
Time_Shift_4
Sustain_Off
Time_Shift_5
Note_On_87_Vel_0
Time_Shift_16
Note_On_94_Vel_0
Time_Shift_8
Note_On_99_Vel_0
Time_Shift_7
Note_On_55_Vel_0
Note_On_97_Vel_0
Time_Shift_8
Note_On_82_Vel_0
Time_Shift_23
Sustain_On
Time_Shift_8
Note_On_63_Vel_0
Time_Shift_5
Note_On_63_Vel_92
Time_Shift_64
Note_On_85_Vel_0
Time_Shift_23
Note_On_75_Vel_0
Time_Shift_7
Note_On_61_Vel_0
Time_Shift_3
Note_On_58_Vel_86
Time_Shift_4
Note_On_61_Vel_78
Time_Shift_82
Note_On_51_Vel_83
Time_Shift_21
Sustain_Off
Time_Shift_5
Note_On_43_Vel_0
Time_Shift_4
Note_On_61_Vel_0
Time_Shift_1
Note_On_31_Vel_0
Note_On_58_Vel_0
Note_On_63_Vel_0
Time_Shift_11
Note_On_70_Vel_0
Note_On_73_Vel_0
Time_Shift_2
Note_On_51_Vel_0
Time_Shift_72
Note_On_32_Vel_78
Time_Shift_1
Note_On_44_Vel_79
Time_Shift_2
Note_On_59_Vel_75
Note_On_51_Vel_85
Time_Shift_2
Note_On_63_Vel_82
Time_Shift_36
Sustain_On
Time_Shift_186
Note_On_59_Vel_0
Time_Shift_2
Note_On_51_Vel_0
Note_On_63_Vel_0
Note_On_32_Vel_0
Note_On_44_Vel_0
Time_Shift_1
Sustain_Off
Time_Shift_191
Note_On_44_Vel_77
Note_On_56_Vel_76
Time_Shift_1
Note_On_75_Vel_85
Note_On_63_Vel_78
Time_Shift_1
Note_On_71_Vel_66
Time_Shift_41
Sustain_On
Time_Shift_46
Note_On_74_Vel_78
Time_Shift_92
Note_On_75_Vel_0
Time_Shift_5
Note_On_75_Vel_83
Time_Shift_84
Note_On_43_Vel_87
Time_Shift_1
Note_On_55_Vel_83
Note_On_70_Vel_89
Time_Shift_99
Note_On_75_Vel_0
Time_Shift_2
Sustain_Off
Time_Shift_1
Note_On_44_Vel_0
Note_On_56_Vel_0
Note_On_63_Vel_0
Note_On_71_Vel_0
Time_Shift_1
Note_On_74_Vel_0
Note_On_70_Vel_0
Time_Shift_1
Note_On_55_Vel_0
Note_On_43_Vel_0
Time_Shift_2
Note_On_63_Vel_97
Time_Shift_1
Note_On_56_Vel_97
Note_On_71_Vel_86
Time_Shift_1
Note_On_44_Vel_93
Time_Shift_78
Sustain_On
Time_Shift_13
Note_On_74_Vel_82
Time_Shift_22
Note_On_70_Vel_53
Time_Shift_4
Note_On_71_Vel_0
Time_Shift_9
Note_On_71_Vel_61
Time_Shift_60
Note_On_71_Vel_0
Time_Shift_5
Note_On_71_Vel_67
Time_Shift_1
Note_On_75_Vel_90
Time_Shift_63
Note_On_70_Vel_0
Note_On_75_Vel_0
Time_Shift_4
Note_On_43_Vel_89
Time_Shift_1
Note_On_55_Vel_89
Time_Shift_1
Note_On_75_Vel_83
Time_Shift_1
Note_On_70_Vel_90
Time_Shift_96
Sustain_Off
Time_Shift_2
Note_On_74_Vel_0
Note_On_55_Vel_0
Note_On_70_Vel_0
Time_Shift_1
Note_On_43_Vel_0
Time_Shift_2
Note_On_44_Vel_0
Note_On_56_Vel_0
Note_On_63_Vel_0
Note_On_71_Vel_0
Note_On_75_Vel_0
Time_Shift_5
Note_On_63_Vel_100
Time_Shift_1
Note_On_75_Vel_96
Note_On_56_Vel_97
Time_Shift_1
Note_On_71_Vel_85
Time_Shift_3
Note_On_44_Vel_96
Time_Shift_51
Sustain_On
Time_Shift_30
Note_On_74_Vel_86
Time_Shift_7
Note_On_70_Vel_58
Time_Shift_94
Note_On_71_Vel_0
Note_On_75_Vel_0
Time_Shift_4
Note_On_71_Vel_63
Note_On_75_Vel_85
Time_Shift_80
Note_On_70_Vel_0
Time_Shift_4
Note_On_54_Vel_101
Time_Shift_1
Note_On_42_Vel_103
Note_On_76_Vel_93
Time_Shift_2
Note_On_70_Vel_91
Time_Shift_96
Note_On_53_Vel_111
Time_Shift_1
Note_On_77_Vel_106
Note_On_41_Vel_102
Time_Shift_2
Note_On_69_Vel_101
Note_On_72_Vel_89
Time_Shift_22
Sustain_Off
Time_Shift_3
Note_On_56_Vel_0
Time_Shift_1
Note_On_44_Vel_0
Time_Shift_1
Note_On_74_Vel_0
Note_On_63_Vel_0
Note_On_42_Vel_0
Time_Shift_1
Note_On_75_Vel_0
Note_On_71_Vel_0
Note_On_54_Vel_0
Time_Shift_1
Note_On_76_Vel_0
Time_Shift_15
Note_On_69_Vel_0
Time_Shift_1
Note_On_53_Vel_0
Time_Shift_2
Note_On_77_Vel_0
Time_Shift_5
Note_On_41_Vel_0
Time_Shift_3
Note_On_70_Vel_0
Time_Shift_8
Note_On_72_Vel_0
Time_Shift_128
Note_On_77_Vel_74
Note_On_65_Vel_92
Time_Shift_15
Note_On_69_Vel_55
Time_Shift_72
Note_On_77_Vel_0
Time_Shift_3
Note_On_72_Vel_87
Time_Shift_1
Note_On_77_Vel_87
Time_Shift_1
Note_On_57_Vel_93
Time_Shift_1
Note_On_75_Vel_85
Time_Shift_9
Sustain_On
Time_Shift_13
Note_On_63_Vel_69
Time_Shift_64
Note_On_72_Vel_0
Note_On_77_Vel_0
Time_Shift_8
Note_On_75_Vel_0
Time_Shift_2
Note_On_72_Vel_91
Time_Shift_1
Note_On_77_Vel_102
Time_Shift_3
Note_On_75_Vel_82
Time_Shift_91
Note_On_87_Vel_97
Time_Shift_1
Note_On_89_Vel_93
Time_Shift_2
Note_On_84_Vel_80
Time_Shift_76
Note_On_89_Vel_0
Time_Shift_11
Note_On_89_Vel_107
Time_Shift_84
Note_On_99_Vel_107
Time_Shift_2
Note_On_101_Vel_104
Time_Shift_1
Note_On_96_Vel_93
Time_Shift_79
Note_On_96_Vel_0
Note_On_99_Vel_0
Note_On_101_Vel_0
Time_Shift_5
Note_On_101_Vel_104
Time_Shift_4
Note_On_99_Vel_104
Time_Shift_2
Note_On_96_Vel_90
Time_Shift_66
Note_On_89_Vel_0
Time_Shift_10
Note_On_89_Vel_107
Time_Shift_97
Note_On_84_Vel_0
Note_On_89_Vel_0
Time_Shift_7
Note_On_89_Vel_98
Time_Shift_1
Note_On_87_Vel_0
Time_Shift_3
Note_On_84_Vel_87
Time_Shift_2
Note_On_87_Vel_79
Time_Shift_64
Note_On_77_Vel_0
Time_Shift_5
Note_On_77_Vel_93
Time_Shift_81
Note_On_45_Vel_100
Time_Shift_3
Note_On_33_Vel_94
Time_Shift_3
Note_On_72_Vel_0
Note_On_77_Vel_0
Time_Shift_8
Note_On_72_Vel_89
Note_On_77_Vel_86
Time_Shift_17
Sustain_Off
Time_Shift_4
Note_On_63_Vel_0
Time_Shift_1
Note_On_96_Vel_0
Time_Shift_3
Note_On_99_Vel_0
Note_On_75_Vel_0
Time_Shift_1
Note_On_101_Vel_0
Time_Shift_1
Note_On_57_Vel_0
Time_Shift_19
Note_On_65_Vel_0
Time_Shift_8
Note_On_69_Vel_0
Time_Shift_31
Sustain_On
Time_Shift_4
Note_On_65_Vel_97
Time_Shift_49
Note_On_33_Vel_0
Time_Shift_9
Note_On_33_Vel_65
Time_Shift_41
Note_On_60_Vel_86
Time_Shift_2
Note_On_63_Vel_73
Time_Shift_56
Note_On_89_Vel_0
Time_Shift_5
Sustain_Off
Time_Shift_3
Note_On_45_Vel_0
Note_On_84_Vel_0
Note_On_87_Vel_0
Time_Shift_7
Note_On_72_Vel_0
Time_Shift_1
Note_On_65_Vel_0
Time_Shift_1
Note_On_45_Vel_74
Note_On_63_Vel_0
Time_Shift_1
Note_On_60_Vel_0
Time_Shift_2
Note_On_53_Vel_96
Time_Shift_11
Note_On_77_Vel_0
Time_Shift_46
Sustain_On
Time_Shift_1
Note_On_34_Vel_79
Time_Shift_6
Note_On_45_Vel_0
Time_Shift_39
Note_On_33_Vel_0
Time_Shift_15
Note_On_34_Vel_0
Time_Shift_5
Note_On_58_Vel_93
Note_On_61_Vel_94
Time_Shift_3
Note_On_34_Vel_85
Time_Shift_1
Note_On_46_Vel_91
Time_Shift_96
Sustain_Off
Time_Shift_3
Note_On_34_Vel_0
Note_On_61_Vel_0
Time_Shift_1
Note_On_53_Vel_0
Note_On_46_Vel_0
Time_Shift_1
Note_On_58_Vel_0
Time_Shift_18
Note_On_57_Vel_67
Time_Shift_101
Note_On_46_Vel_86
Time_Shift_5
Note_On_57_Vel_0
Time_Shift_103
Note_On_48_Vel_78
Time_Shift_20
Note_On_46_Vel_0
Time_Shift_61
Note_On_70_Vel_92
Time_Shift_6
Note_On_48_Vel_0
Time_Shift_1
Note_On_49_Vel_78
Time_Shift_1
Note_On_65_Vel_54
Time_Shift_57
Note_On_46_Vel_30
Time_Shift_28
Note_On_49_Vel_0
Time_Shift_24
Note_On_48_Vel_72
Time_Shift_3
Note_On_46_Vel_0
Time_Shift_76
Sustain_On
Time_Shift_10
Note_On_49_Vel_79
Time_Shift_75
Note_On_51_Vel_74
Time_Shift_107
Note_On_53_Vel_80
Time_Shift_3
Note_On_60_Vel_80
Time_Shift_37
Note_On_48_Vel_0
Time_Shift_1
Note_On_51_Vel_0
Time_Shift_1
Note_On_70_Vel_0
Note_On_49_Vel_0
Time_Shift_1
Sustain_Off
Time_Shift_47
Note_On_52_Vel_78
Time_Shift_26
Note_On_53_Vel_0
Time_Shift_23
Sustain_On
Time_Shift_48
Note_On_53_Vel_86
Time_Shift_81
Note_On_55_Vel_89
Time_Shift_97
Note_On_56_Vel_89
Time_Shift_2
Note_On_68_Vel_94
Time_Shift_59
Note_On_52_Vel_0
Time_Shift_1
Sustain_Off
Time_Shift_1
Note_On_53_Vel_0
Time_Shift_26
Note_On_55_Vel_0
Note_On_65_Vel_0
Time_Shift_5
Note_On_55_Vel_76
Time_Shift_93
Note_On_53_Vel_81
Time_Shift_1
Sustain_On
Time_Shift_93
Note_On_56_Vel_0
Time_Shift_9
Note_On_56_Vel_80
Time_Shift_86
Note_On_67_Vel_90
Time_Shift_4
Note_On_60_Vel_0
Time_Shift_5
Note_On_60_Vel_81
Time_Shift_37
Note_On_53_Vel_0
Note_On_68_Vel_0
Sustain_Off
Note_On_56_Vel_0
Note_On_55_Vel_0
Time_Shift_61
Note_On_59_Vel_81
Time_Shift_82
Sustain_On
Time_Shift_104
Note_On_62_Vel_83
Time_Shift_80
Note_On_67_Vel_0
Time_Shift_2
Note_On_59_Vel_0
Time_Shift_7
Sustain_Off
Time_Shift_14
Note_On_60_Vel_0
Time_Shift_13
Note_On_72_Vel_80
Note_On_63_Vel_82
Time_Shift_12
Note_On_62_Vel_0
Time_Shift_111
Note_On_62_Vel_70
Time_Shift_25
Sustain_On
Time_Shift_8
Note_On_63_Vel_0
Time_Shift_39
Note_On_63_Vel_70
Time_Shift_95
Note_On_60_Vel_66
Time_Shift_37
Note_On_62_Vel_0
Time_Shift_1
Note_On_63_Vel_0
Note_On_72_Vel_0
Time_Shift_5
Sustain_Off
Time_Shift_50
Note_On_55_Vel_72
Note_On_62_Vel_80
Time_Shift_1
Note_On_71_Vel_79
Time_Shift_34
Note_On_62_Vel_0
Time_Shift_3
Note_On_60_Vel_0
Time_Shift_8
Note_On_71_Vel_0
Time_Shift_49
Note_On_67_Vel_75
Time_Shift_82
Note_On_71_Vel_79
Time_Shift_64
Note_On_71_Vel_0
Time_Shift_7
Note_On_67_Vel_0
Time_Shift_29
Note_On_74_Vel_80
Time_Shift_41
Sustain_On
Time_Shift_58
Note_On_79_Vel_93
Time_Shift_1
Note_On_43_Vel_79
Time_Shift_86
Note_On_83_Vel_94
Time_Shift_88
Note_On_86_Vel_94
Time_Shift_67
Note_On_55_Vel_0
Time_Shift_15
Note_On_91_Vel_106
Time_Shift_42
Note_On_36_Vel_72
Time_Shift_8
Note_On_74_Vel_0
Time_Shift_1
Note_On_86_Vel_0
Note_On_79_Vel_0
Time_Shift_1
Note_On_43_Vel_0
Note_On_83_Vel_0
Time_Shift_3
Sustain_Off
Time_Shift_41
Note_On_87_Vel_103
Note_On_79_Vel_93
Time_Shift_23
Note_On_48_Vel_83
Time_Shift_12
Note_On_91_Vel_0
Time_Shift_7
Sustain_On
Time_Shift_35
Note_On_36_Vel_0
Time_Shift_1
Sustain_Off
Time_Shift_9
Note_On_48_Vel_0
Time_Shift_17
Note_On_79_Vel_0
Time_Shift_1
Note_On_47_Vel_86
Time_Shift_92
Note_On_48_Vel_89
Time_Shift_10
Note_On_47_Vel_0
Time_Shift_70
Note_On_50_Vel_85
Time_Shift_11
Note_On_48_Vel_0
Time_Shift_23
Note_On_87_Vel_0
Time_Shift_67
Note_On_50_Vel_0
Time_Shift_6
Note_On_72_Vel_94
Time_Shift_1
Note_On_51_Vel_80
Time_Shift_5
Note_On_63_Vel_82
Time_Shift_2
Note_On_67_Vel_74
Time_Shift_56
Note_On_51_Vel_0
Time_Shift_52
Note_On_50_Vel_68
Time_Shift_26
Sustain_On
Time_Shift_57
Note_On_51_Vel_82
Time_Shift_91
Note_On_53_Vel_79
Time_Shift_98
Note_On_67_Vel_0
Time_Shift_4
Note_On_55_Vel_81
Time_Shift_1
Note_On_67_Vel_74
Time_Shift_5
Note_On_62_Vel_74
Time_Shift_17
Note_On_53_Vel_0
Note_On_50_Vel_0
Note_On_51_Vel_0
Time_Shift_2
Sustain_Off
Time_Shift_60
Note_On_54_Vel_84
Time_Shift_5
Note_On_55_Vel_0
Time_Shift_44
Sustain_On
Time_Shift_49
Note_On_55_Vel_78
Time_Shift_87
Note_On_57_Vel_88
Time_Shift_106
Note_On_58_Vel_88
Time_Shift_1
Note_On_70_Vel_93
Time_Shift_66
Sustain_Off
Time_Shift_2
Note_On_55_Vel_0
Note_On_54_Vel_0
Time_Shift_3
Note_On_58_Vel_0
Time_Shift_1
Note_On_63_Vel_0
Time_Shift_16
Note_On_57_Vel_0
Time_Shift_5
Note_On_57_Vel_74
Time_Shift_48
Sustain_On
Time_Shift_43
Note_On_55_Vel_82
Time_Shift_99
Note_On_58_Vel_88
Time_Shift_93
Note_On_69_Vel_91
Time_Shift_3
Note_On_62_Vel_0
Time_Shift_11
Note_On_62_Vel_79
Time_Shift_55
Note_On_58_Vel_0
Time_Shift_1
Sustain_Off
Note_On_57_Vel_0
Time_Shift_3
Note_On_72_Vel_0
Note_On_55_Vel_0
Time_Shift_23
Note_On_62_Vel_0
Time_Shift_15
Note_On_61_Vel_81
Time_Shift_15
Note_On_70_Vel_0
Time_Shift_31
Sustain_On
Time_Shift_42
Note_On_62_Vel_85
Time_Shift_102
Note_On_64_Vel_79
Time_Shift_109
Note_On_67_Vel_0
Time_Shift_5
Note_On_74_Vel_81
Time_Shift_5
Note_On_65_Vel_81
Time_Shift_8
Sustain_Off
Time_Shift_3
Note_On_62_Vel_0
Note_On_61_Vel_0
Note_On_69_Vel_0
Time_Shift_1
Note_On_64_Vel_0
Time_Shift_89
Note_On_65_Vel_0
Time_Shift_12
Sustain_On
Time_Shift_6
Note_On_64_Vel_61
Time_Shift_88
Note_On_65_Vel_70
Time_Shift_101
Note_On_62_Vel_62
Time_Shift_53
Note_On_65_Vel_0
Time_Shift_1
Note_On_62_Vel_0
Note_On_74_Vel_0
Sustain_Off
Time_Shift_20
Note_On_64_Vel_0
Time_Shift_4
Note_On_73_Vel_80
Note_On_64_Vel_71
Note_On_57_Vel_73
Time_Shift_32
Note_On_73_Vel_0
Note_On_64_Vel_0
Time_Shift_61
Note_On_69_Vel_71
Time_Shift_85
Note_On_73_Vel_81
Time_Shift_14
Note_On_69_Vel_0
Time_Shift_86
Note_On_76_Vel_73
Time_Shift_99
Note_On_45_Vel_66
Time_Shift_3
Note_On_81_Vel_81
Time_Shift_8
Sustain_On
Time_Shift_79
Note_On_85_Vel_89
Time_Shift_87
Note_On_88_Vel_93
Time_Shift_83
Note_On_81_Vel_0
Time_Shift_2
Note_On_93_Vel_97
Time_Shift_64
Note_On_73_Vel_0
Time_Shift_16
Note_On_50_Vel_90
Time_Shift_10
Note_On_89_Vel_106
Time_Shift_1
Note_On_86_Vel_101
Time_Shift_32
Note_On_85_Vel_0
Note_On_57_Vel_0
Time_Shift_2
Note_On_93_Vel_0
Time_Shift_1
Note_On_50_Vel_0
Time_Shift_1
Note_On_88_Vel_0
Note_On_45_Vel_0
Time_Shift_3
Sustain_Off
Time_Shift_6
Note_On_86_Vel_0
Time_Shift_4
Note_On_89_Vel_0
Note_On_76_Vel_0
Time_Shift_38
Note_On_81_Vel_84
Time_Shift_93
Note_On_81_Vel_0
Time_Shift_10
Note_On_81_Vel_71
Time_Shift_2
Note_On_53_Vel_69
Time_Shift_4
Note_On_62_Vel_72
Time_Shift_1
Note_On_57_Vel_63
Note_On_77_Vel_71
Time_Shift_19
Note_On_53_Vel_0
Time_Shift_33
Note_On_62_Vel_0
Time_Shift_8
Note_On_81_Vel_0
Time_Shift_11
Note_On_74_Vel_69
Time_Shift_20
Note_On_57_Vel_0
Time_Shift_23
Note_On_77_Vel_0
Time_Shift_61
Note_On_74_Vel_0
Time_Shift_10
Note_On_82_Vel_83
Time_Shift_1
Note_On_43_Vel_69
Time_Shift_1
Note_On_79_Vel_66
Time_Shift_23
Note_On_43_Vel_0
Time_Shift_14
Note_On_79_Vel_0
Time_Shift_23
Note_On_82_Vel_0
Time_Shift_35
Note_On_74_Vel_59
Time_Shift_70
Note_On_74_Vel_0
Time_Shift_21
Note_On_86_Vel_87
Time_Shift_4
Note_On_82_Vel_89
Time_Shift_2
Note_On_62_Vel_74
Time_Shift_2
Note_On_58_Vel_66
Time_Shift_3
Note_On_55_Vel_56
Time_Shift_29
Note_On_58_Vel_0
Time_Shift_4
Note_On_86_Vel_0
Time_Shift_1
Note_On_82_Vel_0
Time_Shift_10
Note_On_62_Vel_0
Time_Shift_16
Note_On_55_Vel_0
Time_Shift_12
Note_On_91_Vel_98
Time_Shift_92
Note_On_60_Vel_78
Time_Shift_2
Note_On_48_Vel_81
Time_Shift_4
Note_On_87_Vel_99
Time_Shift_1
Note_On_84_Vel_87
Time_Shift_4
Note_On_60_Vel_0
Time_Shift_21
Note_On_91_Vel_0
Time_Shift_8
Note_On_48_Vel_0
Time_Shift_52
Note_On_79_Vel_83
Time_Shift_11
Note_On_84_Vel_0
Time_Shift_16
Note_On_87_Vel_0
Time_Shift_9
Note_On_79_Vel_0
Time_Shift_70
Note_On_75_Vel_77
Time_Shift_4
Note_On_60_Vel_71
Time_Shift_12
Note_On_55_Vel_65
Note_On_63_Vel_72
Time_Shift_2
Note_On_48_Vel_54
Time_Shift_15
Note_On_60_Vel_0
Time_Shift_7
Note_On_63_Vel_0
Time_Shift_5
Note_On_75_Vel_0
Time_Shift_14
Note_On_55_Vel_0
Time_Shift_25
Note_On_72_Vel_76
Time_Shift_55
Note_On_72_Vel_0
Time_Shift_12
Note_On_48_Vel_0
Time_Shift_32
Note_On_81_Vel_77
Time_Shift_2
Note_On_41_Vel_69
Time_Shift_2
Note_On_77_Vel_71
Time_Shift_30
Note_On_41_Vel_0
Time_Shift_1
Note_On_81_Vel_0
Time_Shift_17
Note_On_77_Vel_0
Time_Shift_38
Note_On_72_Vel_75
Time_Shift_27
Note_On_72_Vel_0
Time_Shift_70
Note_On_84_Vel_84
Time_Shift_7
Note_On_81_Vel_78
Time_Shift_1
Note_On_53_Vel_71
Time_Shift_5
Note_On_60_Vel_73
Time_Shift_1
Note_On_63_Vel_74
Time_Shift_23
Note_On_81_Vel_0
Time_Shift_9
Note_On_53_Vel_0
Time_Shift_3
Note_On_84_Vel_0
Time_Shift_8
Note_On_60_Vel_0
Note_On_63_Vel_0
Time_Shift_34
Note_On_89_Vel_90
Time_Shift_83
Note_On_46_Vel_70
Time_Shift_10
Note_On_86_Vel_87
Time_Shift_5
Note_On_82_Vel_85
Time_Shift_30
Note_On_46_Vel_0
Time_Shift_11
Note_On_82_Vel_0
Time_Shift_12
Note_On_89_Vel_0
Time_Shift_27
Note_On_77_Vel_72
Time_Shift_42
Note_On_86_Vel_0
Time_Shift_15
Note_On_77_Vel_0
Time_Shift_42
Note_On_58_Vel_71
Time_Shift_1
Note_On_62_Vel_68
Time_Shift_1
Note_On_53_Vel_66
Time_Shift_2
Note_On_77_Vel_69
Time_Shift_24
Note_On_53_Vel_0
Time_Shift_2
Note_On_62_Vel_0
Note_On_58_Vel_0
Time_Shift_36
Note_On_77_Vel_0
Time_Shift_27
Note_On_70_Vel_75
Time_Shift_45
Note_On_70_Vel_0
Time_Shift_47
Note_On_39_Vel_61
Note_On_75_Vel_72
Note_On_79_Vel_73
Time_Shift_27
Note_On_39_Vel_0
Time_Shift_4
Note_On_75_Vel_0
Time_Shift_9
Note_On_79_Vel_0
Time_Shift_56
Note_On_70_Vel_67
Time_Shift_36
Note_On_70_Vel_0
Time_Shift_46
Note_On_63_Vel_81
Time_Shift_3
Note_On_82_Vel_89
Note_On_51_Vel_78
Time_Shift_2
Note_On_79_Vel_77
Time_Shift_1
Note_On_58_Vel_68
Time_Shift_27
Note_On_51_Vel_0
Time_Shift_4
Note_On_63_Vel_0
Time_Shift_1
Note_On_58_Vel_0
Time_Shift_1
Note_On_79_Vel_0
Time_Shift_54
Note_On_87_Vel_82
Time_Shift_5
Note_On_82_Vel_0
Time_Shift_45
Note_On_87_Vel_0
Time_Shift_40
Note_On_84_Vel_71
Time_Shift_1
Note_On_48_Vel_71
Time_Shift_2
Note_On_81_Vel_77
Time_Shift_25
Note_On_51_Vel_40
Time_Shift_60
Note_On_75_Vel_84
Time_Shift_69
Note_On_84_Vel_0
Time_Shift_8
Note_On_81_Vel_0
Time_Shift_4
Note_On_60_Vel_87
Time_Shift_4
Note_On_75_Vel_0
Time_Shift_3
Note_On_81_Vel_79
Time_Shift_2
Note_On_75_Vel_74
Time_Shift_10
Note_On_51_Vel_0
Time_Shift_69
Note_On_72_Vel_80
Time_Shift_93
Note_On_72_Vel_0
Time_Shift_3
Note_On_60_Vel_0
Time_Shift_4
Note_On_81_Vel_0
Time_Shift_1
Note_On_82_Vel_85
Time_Shift_2
Note_On_76_Vel_70
Time_Shift_15
Note_On_61_Vel_77
Time_Shift_20
Note_On_75_Vel_0
Time_Shift_23
Sustain_On
Time_Shift_33
Note_On_70_Vel_79
Time_Shift_41
Sustain_Off
Time_Shift_7
Note_On_70_Vel_0
Note_On_82_Vel_0
Time_Shift_42
Note_On_76_Vel_0
Time_Shift_2
Note_On_48_Vel_0
Time_Shift_6
Note_On_49_Vel_65
Note_On_76_Vel_63
Time_Shift_3
Note_On_79_Vel_69
Time_Shift_28
Note_On_61_Vel_0
Time_Shift_52
Note_On_70_Vel_81
Time_Shift_1
Sustain_On
Time_Shift_41
Note_On_76_Vel_0
Time_Shift_1
Note_On_49_Vel_0
Sustain_Off
Time_Shift_1
Note_On_79_Vel_0
Time_Shift_8
Note_On_70_Vel_0
Time_Shift_52
Note_On_78_Vel_81
Time_Shift_1
Note_On_50_Vel_74
Time_Shift_4
Note_On_74_Vel_65
Time_Shift_32
Note_On_74_Vel_0
Time_Shift_6
Note_On_50_Vel_0
Note_On_78_Vel_0
Time_Shift_38
Note_On_69_Vel_71
Time_Shift_33
Note_On_69_Vel_0
Time_Shift_68
Note_On_50_Vel_63
Time_Shift_2
Note_On_62_Vel_82
Time_Shift_3
Note_On_66_Vel_63
Time_Shift_25
Note_On_62_Vel_0
Time_Shift_8
Note_On_66_Vel_0
Time_Shift_15
Note_On_50_Vel_0
Time_Shift_29
Note_On_62_Vel_69
Note_On_60_Vel_80
Time_Shift_37
Note_On_62_Vel_0
Time_Shift_54
Note_On_60_Vel_0
Time_Shift_1
Note_On_58_Vel_81
Time_Shift_4
Note_On_70_Vel_82
Time_Shift_2
Note_On_67_Vel_62
Time_Shift_33
Note_On_67_Vel_0
Time_Shift_21
Note_On_70_Vel_0
Time_Shift_6
Note_On_58_Vel_0
Time_Shift_23
Note_On_57_Vel_79
Time_Shift_1
Note_On_62_Vel_70
Time_Shift_39
Note_On_62_Vel_0
Time_Shift_15
Note_On_57_Vel_0
Time_Shift_31
Note_On_55_Vel_81
Time_Shift_3
Note_On_74_Vel_73
Note_On_70_Vel_77
Time_Shift_63
Note_On_74_Vel_0
Time_Shift_3
Note_On_70_Vel_0
Time_Shift_1
Note_On_55_Vel_0
Time_Shift_22
Note_On_79_Vel_84
Note_On_53_Vel_76
Time_Shift_71
Note_On_53_Vel_0
Time_Shift_13
Note_On_79_Vel_0
Time_Shift_3
Note_On_75_Vel_83
Time_Shift_5
Note_On_72_Vel_75
Note_On_51_Vel_70
Time_Shift_29
Note_On_72_Vel_0
Time_Shift_19
Note_On_75_Vel_0
Time_Shift_7
Note_On_51_Vel_0
Time_Shift_23
Note_On_67_Vel_70
Time_Shift_7
Note_On_50_Vel_72
Time_Shift_1
Note_On_62_Vel_67
Time_Shift_41
Note_On_67_Vel_0
Time_Shift_44
Note_On_67_Vel_72
Time_Shift_3
Note_On_50_Vel_0
Time_Shift_1
Note_On_48_Vel_78
Time_Shift_1
Note_On_72_Vel_69
Time_Shift_1
Note_On_63_Vel_67
Time_Shift_4
Note_On_62_Vel_0
Time_Shift_13
Note_On_67_Vel_0
Time_Shift_12
Note_On_63_Vel_0
Time_Shift_52
Note_On_60_Vel_74
Time_Shift_8
Note_On_58_Vel_73
Time_Shift_1
Note_On_46_Vel_77
Time_Shift_19
Note_On_60_Vel_0
Time_Shift_2
Note_On_48_Vel_0
Time_Shift_8
Note_On_72_Vel_0
Time_Shift_43
Note_On_46_Vel_0
Time_Shift_2
Note_On_58_Vel_0
Time_Shift_5
Note_On_45_Vel_73
Time_Shift_3
Note_On_57_Vel_70
Time_Shift_3
Note_On_69_Vel_72
Time_Shift_1
Note_On_65_Vel_60
Time_Shift_25
Note_On_57_Vel_0
Time_Shift_2
Note_On_69_Vel_0
Time_Shift_16
Note_On_65_Vel_0
Time_Shift_15
Note_On_45_Vel_0
Time_Shift_19
Note_On_43_Vel_81
Note_On_48_Vel_67
Time_Shift_1
Note_On_60_Vel_74
Time_Shift_5
Note_On_72_Vel_69
Time_Shift_26
Note_On_60_Vel_0
Time_Shift_26
Note_On_48_Vel_0
Note_On_72_Vel_0
Time_Shift_39
Note_On_41_Vel_87
Time_Shift_3
Note_On_43_Vel_0
Time_Shift_3
Note_On_72_Vel_81
Time_Shift_2
Note_On_60_Vel_81
Time_Shift_3
Note_On_69_Vel_69
Time_Shift_27
Note_On_41_Vel_0
Time_Shift_5
Note_On_60_Vel_0
Time_Shift_16
Note_On_69_Vel_0
Note_On_72_Vel_0
Time_Shift_42
Note_On_77_Vel_79
Time_Shift_94
Note_On_34_Vel_92
Time_Shift_5
Note_On_70_Vel_73
Time_Shift_38
Note_On_34_Vel_0
Time_Shift_20
Note_On_70_Vel_0
Time_Shift_23
Note_On_65_Vel_75
Time_Shift_33
Note_On_65_Vel_0
Time_Shift_8
Note_On_77_Vel_0
Time_Shift_48
Note_On_46_Vel_87
Time_Shift_9
Note_On_58_Vel_74
Time_Shift_4
Note_On_65_Vel_75
Note_On_62_Vel_59
Note_On_58_Vel_0
Time_Shift_27
Note_On_46_Vel_0
Time_Shift_10
Note_On_65_Vel_0
Time_Shift_17
Note_On_62_Vel_0
Time_Shift_32
Note_On_58_Vel_81
Time_Shift_2
Note_On_45_Vel_70
Time_Shift_33
Note_On_58_Vel_0
Time_Shift_52
Note_On_43_Vel_81
Time_Shift_3
Note_On_67_Vel_69
Time_Shift_3
Note_On_63_Vel_72
Time_Shift_6
Note_On_45_Vel_0
Time_Shift_17
Note_On_67_Vel_0
Time_Shift_11
Note_On_63_Vel_0
Time_Shift_44
Note_On_43_Vel_0
Time_Shift_8
Note_On_41_Vel_75
Time_Shift_2
Note_On_58_Vel_74
Time_Shift_38
Note_On_58_Vel_0
Time_Shift_25
Note_On_41_Vel_0
Time_Shift_28
Note_On_70_Vel_87
Time_Shift_4
Note_On_39_Vel_76
Time_Shift_4
Note_On_67_Vel_68
Time_Shift_83
Note_On_39_Vel_0
Time_Shift_1
Note_On_75_Vel_78
Time_Shift_3
Note_On_67_Vel_0
Time_Shift_2
Note_On_38_Vel_75
Time_Shift_2
Note_On_70_Vel_0
Time_Shift_31
Note_On_75_Vel_0
Time_Shift_55
Note_On_72_Vel_77
Time_Shift_5
Note_On_69_Vel_71
Note_On_36_Vel_70
Time_Shift_1
Note_On_48_Vel_73
Time_Shift_30
Note_On_72_Vel_0
Time_Shift_1
Note_On_69_Vel_0
Time_Shift_12
Note_On_48_Vel_0
Time_Shift_7
Note_On_38_Vel_0
Time_Shift_30
Note_On_63_Vel_87
Time_Shift_16
Note_On_36_Vel_0
Time_Shift_6
Note_On_35_Vel_66
Time_Shift_2
Note_On_63_Vel_0
Time_Shift_46
Note_On_35_Vel_0
Time_Shift_22
Note_On_69_Vel_81
Time_Shift_5
Note_On_63_Vel_73
Time_Shift_3
Note_On_36_Vel_69
Time_Shift_30
Note_On_63_Vel_0
Time_Shift_3
Note_On_69_Vel_0
Time_Shift_29
Note_On_36_Vel_0
Time_Shift_20
Note_On_60_Vel_76
Time_Shift_16
Note_On_48_Vel_76
Time_Shift_21
Note_On_60_Vel_0
Time_Shift_28
Note_On_48_Vel_0
Time_Shift_35
Note_On_70_Vel_78
Time_Shift_4
Note_On_64_Vel_64
Time_Shift_10
Note_On_49_Vel_78
Time_Shift_38
Note_On_49_Vel_0
Time_Shift_1
Note_On_64_Vel_0
Note_On_70_Vel_0
Time_Shift_37
Note_On_58_Vel_76
Time_Shift_33
Note_On_58_Vel_0
Time_Shift_70
Note_On_67_Vel_70
Note_On_64_Vel_66
Time_Shift_1
Note_On_37_Vel_67
Time_Shift_34
Note_On_64_Vel_0
Time_Shift_9
Note_On_37_Vel_0
Time_Shift_1
Note_On_67_Vel_0
Time_Shift_53
Note_On_58_Vel_70
Time_Shift_33
Note_On_58_Vel_0
Time_Shift_75
Note_On_66_Vel_67
Note_On_62_Vel_68
Time_Shift_1
Note_On_38_Vel_67
Time_Shift_6
Note_On_57_Vel_61
Time_Shift_19
Note_On_62_Vel_0
Time_Shift_2
Note_On_66_Vel_0
Time_Shift_12
Note_On_57_Vel_0
Time_Shift_17
Note_On_38_Vel_0
Time_Shift_72
Note_On_38_Vel_63
Time_Shift_104
Note_On_62_Vel_61
Time_Shift_11
Note_On_54_Vel_51
Time_Shift_7
Note_On_40_Vel_55
Time_Shift_1
Note_On_58_Vel_48
Time_Shift_5
Note_On_58_Vel_0
Time_Shift_15
Sustain_On
Time_Shift_68
Note_On_42_Vel_70
Time_Shift_109
Note_On_62_Vel_0
Time_Shift_9
Note_On_62_Vel_77
Time_Shift_12
Note_On_55_Vel_59
Time_Shift_1
Note_On_43_Vel_65
Time_Shift_4
Note_On_58_Vel_56
Time_Shift_16
Note_On_40_Vel_0
Note_On_42_Vel_0
Time_Shift_12
Note_On_38_Vel_0
Note_On_54_Vel_0
Time_Shift_21
Sustain_Off
Time_Shift_33
Sustain_On
Time_Shift_20
Note_On_45_Vel_69
Time_Shift_93
Note_On_46_Vel_76
Time_Shift_86
Note_On_64_Vel_71
Time_Shift_3
Note_On_49_Vel_81
Time_Shift_80
Note_On_46_Vel_0
Time_Shift_1
Note_On_45_Vel_0
Time_Shift_1
Note_On_58_Vel_0
Note_On_43_Vel_0
Time_Shift_1
Note_On_55_Vel_0
Time_Shift_1
Note_On_49_Vel_0
Time_Shift_1
Sustain_Off
Time_Shift_7
Note_On_50_Vel_76
Time_Shift_1
Note_On_66_Vel_83
Time_Shift_6
Note_On_54_Vel_73
Time_Shift_29
Sustain_On
Time_Shift_38
Note_On_62_Vel_0
Time_Shift_8
Note_On_50_Vel_0
Time_Shift_11
Note_On_50_Vel_88
Time_Shift_44
Note_On_54_Vel_0
Time_Shift_4
Note_On_66_Vel_0
Time_Shift_2
Note_On_64_Vel_0
Time_Shift_5
Sustain_Off
Time_Shift_34
Sustain_On
Time_Shift_1
Note_On_62_Vel_89
Time_Shift_2
Note_On_52_Vel_83
Time_Shift_35
Note_On_50_Vel_0
Time_Shift_5
Note_On_50_Vel_55
Time_Shift_53
Note_On_54_Vel_89
Time_Shift_92
Note_On_55_Vel_91
Note_On_52_Vel_0
Note_On_50_Vel_0
Time_Shift_2
Note_On_67_Vel_88
Note_On_74_Vel_89
Time_Shift_1
Note_On_70_Vel_88
Time_Shift_2
Sustain_Off
Time_Shift_22
Sustain_On
Time_Shift_73
Note_On_57_Vel_88
Time_Shift_82
Note_On_58_Vel_93
Time_Shift_87
Note_On_61_Vel_93
Note_On_76_Vel_83
Time_Shift_19
Note_On_62_Vel_0
Time_Shift_15
Note_On_54_Vel_0
Time_Shift_2
Note_On_70_Vel_0
Note_On_58_Vel_0
Time_Shift_1
Note_On_74_Vel_0
Time_Shift_1
Note_On_67_Vel_0
Note_On_55_Vel_0
Time_Shift_1
Note_On_57_Vel_0
Time_Shift_1
Sustain_Off
Time_Shift_8
Note_On_61_Vel_0
Time_Shift_3
Note_On_76_Vel_0
Time_Shift_38
Note_On_62_Vel_101
Note_On_74_Vel_92
Time_Shift_1
Note_On_78_Vel_97
Time_Shift_2
Note_On_66_Vel_94
Note_On_69_Vel_84
Time_Shift_4
Sustain_On
Time_Shift_173
Note_On_69_Vel_0
Time_Shift_2
Note_On_62_Vel_0
Note_On_66_Vel_0
Time_Shift_1
Note_On_78_Vel_0
Time_Shift_8
Note_On_74_Vel_0
Time_Shift_2
Sustain_Off
Time_Shift_4
Note_On_76_Vel_91
Time_Shift_1
Note_On_64_Vel_82
Time_Shift_3
Note_On_74_Vel_85
Time_Shift_51
Sustain_On
Time_Shift_20
Note_On_52_Vel_88
Time_Shift_4
Note_On_64_Vel_0
Time_Shift_1
Note_On_80_Vel_93
Time_Shift_92
Note_On_81_Vel_95
Time_Shift_3
Note_On_73_Vel_87
Time_Shift_17
Note_On_57_Vel_91
Time_Shift_71
Note_On_76_Vel_0
Time_Shift_4
Note_On_69_Vel_87
Note_On_76_Vel_88
Time_Shift_88
Note_On_74_Vel_0
Time_Shift_7
Note_On_74_Vel_90
Time_Shift_2
Note_On_62_Vel_88
Time_Shift_2
Note_On_72_Vel_91
Time_Shift_77
Note_On_50_Vel_80
Time_Shift_2
Note_On_78_Vel_97
Time_Shift_58
Note_On_72_Vel_0
Time_Shift_1
Note_On_74_Vel_0
Note_On_81_Vel_0
Note_On_52_Vel_0
Note_On_73_Vel_0
Note_On_69_Vel_0
Note_On_76_Vel_0
Note_On_57_Vel_0
Time_Shift_1
Note_On_62_Vel_0
Note_On_50_Vel_0
Note_On_78_Vel_0
Time_Shift_4
Note_On_80_Vel_0
Time_Shift_3
Sustain_Off
Time_Shift_33
Note_On_79_Vel_92
Time_Shift_5
Note_On_55_Vel_88
Note_On_71_Vel_88
Time_Shift_28
Sustain_On
Time_Shift_58
Note_On_74_Vel_89
Time_Shift_90
Note_On_72_Vel_89
Time_Shift_2
Note_On_60_Vel_87
Time_Shift_5
Note_On_70_Vel_85
Time_Shift_80
Note_On_48_Vel_84
Time_Shift_1
Note_On_76_Vel_87
Time_Shift_72
Note_On_72_Vel_0
Time_Shift_1
Note_On_60_Vel_0
Note_On_74_Vel_0
Note_On_48_Vel_0
Time_Shift_1
Note_On_70_Vel_0
Sustain_Off
Note_On_76_Vel_0
Time_Shift_5
Note_On_71_Vel_0
Time_Shift_7
Note_On_55_Vel_0
Note_On_79_Vel_0
Time_Shift_12
Note_On_77_Vel_88
Time_Shift_2
Note_On_69_Vel_80
Time_Shift_4
Note_On_53_Vel_89
Time_Shift_13
Sustain_On
Time_Shift_73
Note_On_65_Vel_89
Note_On_72_Vel_89
Time_Shift_96
Note_On_69_Vel_0
Time_Shift_8
Note_On_71_Vel_75
Time_Shift_1
Note_On_69_Vel_77
Time_Shift_2
Note_On_59_Vel_78
Time_Shift_62
Note_On_72_Vel_0
Time_Shift_1
Note_On_65_Vel_0
Note_On_59_Vel_0
Sustain_Off
Time_Shift_1
Note_On_77_Vel_0
Note_On_53_Vel_0
Time_Shift_20
Note_On_47_Vel_73
Time_Shift_1
Note_On_75_Vel_79
Time_Shift_27
Sustain_On
Time_Shift_65
Note_On_76_Vel_81
Time_Shift_2
Note_On_52_Vel_76
Time_Shift_13
Note_On_75_Vel_0
Time_Shift_25
Sustain_Off
Time_Shift_10
Sustain_On
Time_Shift_48
Note_On_72_Vel_50
Time_Shift_31
Note_On_40_Vel_60
Time_Shift_44
Note_On_69_Vel_0
Time_Shift_8
Note_On_72_Vel_0
Time_Shift_38
Note_On_47_Vel_0
Time_Shift_8
Note_On_76_Vel_0
Time_Shift_10
Note_On_76_Vel_85
Time_Shift_1
Note_On_40_Vel_0
Time_Shift_1
Sustain_Off
Time_Shift_7
Note_On_42_Vel_74
Time_Shift_19
Note_On_52_Vel_0
Time_Shift_8
Sustain_On
Time_Shift_23
Note_On_71_Vel_0
Time_Shift_43
Note_On_43_Vel_74
Time_Shift_103
Note_On_76_Vel_0
Time_Shift_11
Note_On_76_Vel_84
Time_Shift_1
Note_On_45_Vel_69
Time_Shift_3
Note_On_72_Vel_78
Time_Shift_37
Note_On_42_Vel_0
Time_Shift_12
Sustain_Off
Time_Shift_1
Note_On_43_Vel_0
Time_Shift_42
Sustain_On
Time_Shift_12
Note_On_47_Vel_77
Time_Shift_57
Note_On_45_Vel_0
Time_Shift_32
Note_On_48_Vel_87
Time_Shift_77
Note_On_78_Vel_94
Time_Shift_5
Note_On_51_Vel_85
Time_Shift_92
Note_On_79_Vel_92
Time_Shift_5
Note_On_52_Vel_79
Time_Shift_1
Note_On_71_Vel_81
Time_Shift_1
Note_On_67_Vel_70
Time_Shift_4
Note_On_47_Vel_0
Time_Shift_1
Note_On_48_Vel_0
Note_On_51_Vel_0
Time_Shift_1
Note_On_78_Vel_0
Time_Shift_1
Sustain_Off
Time_Shift_18
Note_On_72_Vel_0
Time_Shift_8
Note_On_76_Vel_0
Time_Shift_23
Sustain_On
Time_Shift_16
Note_On_52_Vel_0
Time_Shift_6
Note_On_52_Vel_85
Time_Shift_93
Note_On_54_Vel_87
Time_Shift_14
Note_On_76_Vel_100
Time_Shift_80
Note_On_55_Vel_89
Time_Shift_98
Note_On_76_Vel_0
Time_Shift_4
Note_On_57_Vel_88
Time_Shift_1
Note_On_76_Vel_89
Note_On_72_Vel_89
Time_Shift_7
Note_On_69_Vel_79
Time_Shift_9
Note_On_54_Vel_0
Time_Shift_1
Sustain_Off
Note_On_79_Vel_0
Time_Shift_2
Note_On_71_Vel_0
Time_Shift_1
Note_On_52_Vel_0
Note_On_67_Vel_0
Time_Shift_1
Note_On_55_Vel_0
Time_Shift_51
Sustain_On
Time_Shift_20
Note_On_59_Vel_90
Time_Shift_92
Note_On_60_Vel_91
Time_Shift_71
Note_On_78_Vel_100
Time_Shift_22
Note_On_63_Vel_94
Time_Shift_27
Sustain_Off
Time_Shift_2
Note_On_72_Vel_0
Time_Shift_1
Note_On_57_Vel_0
Time_Shift_1
Note_On_69_Vel_0
Time_Shift_2
Note_On_59_Vel_0
Note_On_60_Vel_0
Time_Shift_8
Note_On_78_Vel_0
Time_Shift_8
Note_On_76_Vel_0
Time_Shift_23
Sustain_On
Time_Shift_4
Note_On_64_Vel_92
Note_On_76_Vel_91
Time_Shift_1
Note_On_79_Vel_100
Time_Shift_3
Note_On_67_Vel_89
Note_On_71_Vel_93
Time_Shift_156
Note_On_67_Vel_0
Time_Shift_1
Note_On_79_Vel_0
Note_On_64_Vel_0
Note_On_71_Vel_0
Time_Shift_3
Sustain_Off
Time_Shift_1
Note_On_63_Vel_0
Time_Shift_15
Note_On_76_Vel_0
Time_Shift_10
Note_On_78_Vel_91
Time_Shift_1
Note_On_76_Vel_87
Time_Shift_1
Note_On_66_Vel_91
Time_Shift_26
Sustain_On
Time_Shift_53
Note_On_54_Vel_89
Time_Shift_1
Note_On_82_Vel_95
Time_Shift_96
Note_On_83_Vel_100
Time_Shift_3
Note_On_75_Vel_90
Time_Shift_5
Note_On_59_Vel_91
Time_Shift_7
Note_On_66_Vel_0
Time_Shift_73
Note_On_78_Vel_0
Time_Shift_5
Note_On_78_Vel_99
Time_Shift_2
Note_On_71_Vel_78
Time_Shift_86
Note_On_76_Vel_0
Time_Shift_4
Note_On_76_Vel_95
Note_On_64_Vel_87
Time_Shift_4
Note_On_74_Vel_89
Time_Shift_82
Note_On_52_Vel_84
Time_Shift_1
Note_On_80_Vel_93
Time_Shift_89
Note_On_81_Vel_92
Time_Shift_7
Note_On_73_Vel_91
Time_Shift_6
Note_On_75_Vel_0
Note_On_59_Vel_0
Note_On_74_Vel_0
Note_On_78_Vel_0
Time_Shift_1
Note_On_83_Vel_0
Note_On_76_Vel_0
Note_On_80_Vel_0
Note_On_52_Vel_0
Note_On_64_Vel_0
Time_Shift_1
Note_On_71_Vel_0
Time_Shift_1
Note_On_57_Vel_83
Time_Shift_1
Sustain_Off
Time_Shift_2
Note_On_82_Vel_0
Time_Shift_8
Note_On_54_Vel_0
Time_Shift_31
Sustain_On
Time_Shift_36
Note_On_76_Vel_83
Time_Shift_2
Note_On_69_Vel_73
Time_Shift_93
Note_On_74_Vel_82
Time_Shift_3
Note_On_62_Vel_84
Time_Shift_6
Note_On_72_Vel_86
Time_Shift_82
Note_On_69_Vel_0
Time_Shift_4
Note_On_78_Vel_90
Time_Shift_2
Note_On_69_Vel_68
Time_Shift_96
Note_On_79_Vel_83
Time_Shift_3
Note_On_55_Vel_78
Note_On_71_Vel_80
Time_Shift_72
Note_On_74_Vel_0
Time_Shift_9
Note_On_67_Vel_74
Note_On_74_Vel_73
Time_Shift_83
Note_On_72_Vel_0
Time_Shift_11
Note_On_72_Vel_85
Time_Shift_2
Note_On_70_Vel_83
Time_Shift_2
Note_On_60_Vel_79
Time_Shift_77
Note_On_76_Vel_0
Time_Shift_9
Note_On_48_Vel_75
Time_Shift_1
Note_On_76_Vel_77
Time_Shift_6
Note_On_57_Vel_0
Note_On_73_Vel_0
Note_On_67_Vel_0
Time_Shift_1
Note_On_69_Vel_0
Note_On_71_Vel_0
Time_Shift_1
Note_On_62_Vel_0
Note_On_72_Vel_0
Time_Shift_1
Note_On_74_Vel_0
Note_On_55_Vel_0
Note_On_79_Vel_0
Time_Shift_1
Note_On_70_Vel_0
Time_Shift_2
Note_On_78_Vel_0
Note_On_60_Vel_0
Time_Shift_4
Sustain_Off
Time_Shift_5
Note_On_81_Vel_0
Time_Shift_46
Sustain_On
Time_Shift_8
Note_On_76_Vel_0
Time_Shift_12
Note_On_77_Vel_78
Time_Shift_4
Note_On_68_Vel_67
Time_Shift_93
Note_On_41_Vel_56
Time_Shift_71
Sustain_Off
Time_Shift_4
Note_On_77_Vel_0
Time_Shift_6
Note_On_77_Vel_84
Time_Shift_22
Note_On_43_Vel_71
Time_Shift_3
Note_On_48_Vel_0
Time_Shift_15
Sustain_On
Time_Shift_77
Note_On_44_Vel_72
Time_Shift_46
Note_On_68_Vel_0
Time_Shift_31
Note_On_77_Vel_0
Time_Shift_10
Note_On_77_Vel_81
Time_Shift_2
Note_On_46_Vel_78
Note_On_73_Vel_79
Time_Shift_6
Note_On_70_Vel_72
Time_Shift_39
Sustain_Off
Time_Shift_20
Sustain_On
Time_Shift_39
Note_On_48_Vel_84
Time_Shift_82
Note_On_49_Vel_88
Time_Shift_74
Note_On_79_Vel_84
Time_Shift_11
Note_On_52_Vel_85
Time_Shift_88
Note_On_80_Vel_93
Time_Shift_4
Note_On_68_Vel_80
Time_Shift_5
Note_On_53_Vel_79
Time_Shift_12
Note_On_43_Vel_0
Time_Shift_5
Note_On_52_Vel_0
Time_Shift_1
Note_On_73_Vel_0
Time_Shift_1
Note_On_46_Vel_0
Note_On_48_Vel_0
Time_Shift_1
Note_On_79_Vel_0
Time_Shift_2
Note_On_70_Vel_0
Note_On_49_Vel_0
Time_Shift_2
Sustain_Off
Time_Shift_11
Note_On_77_Vel_0
Time_Shift_7
Note_On_41_Vel_0
Time_Shift_23
Sustain_On
Time_Shift_31
Note_On_53_Vel_0
Time_Shift_4
Note_On_53_Vel_82
Time_Shift_11
Note_On_68_Vel_0
Time_Shift_73
Note_On_55_Vel_88
Time_Shift_1
Note_On_77_Vel_90
Time_Shift_111
Note_On_77_Vel_0
Time_Shift_5
Note_On_56_Vel_79
Time_Shift_4
Note_On_77_Vel_70
Time_Shift_67
Note_On_77_Vel_0
Time_Shift_11
Note_On_77_Vel_79
Time_Shift_32
Note_On_73_Vel_65
Note_On_70_Vel_70
Time_Shift_1
Note_On_68_Vel_61
Time_Shift_14
Note_On_58_Vel_77
Time_Shift_19
Note_On_44_Vel_0
Time_Shift_19
Sustain_Off
Time_Shift_1
Note_On_80_Vel_0
Time_Shift_2
Note_On_55_Vel_0
Time_Shift_70
Sustain_On
Time_Shift_21
Note_On_60_Vel_67
Time_Shift_95
Note_On_73_Vel_0
Time_Shift_10
Note_On_61_Vel_71
Time_Shift_1
Note_On_73_Vel_54
Time_Shift_78
Note_On_79_Vel_81
Time_Shift_70
Note_On_64_Vel_59
Time_Shift_91
Note_On_72_Vel_37
Time_Shift_84
Note_On_80_Vel_78
Time_Shift_42
Note_On_68_Vel_0
Note_On_73_Vel_0
Time_Shift_5
Note_On_73_Vel_44
Time_Shift_2
Note_On_65_Vel_44
Time_Shift_3
Note_On_68_Vel_46
Time_Shift_1
Note_On_61_Vel_0
Time_Shift_1
Note_On_64_Vel_0
Note_On_56_Vel_0
Time_Shift_1
Note_On_60_Vel_0
Note_On_79_Vel_0
Note_On_58_Vel_0
Time_Shift_3
Note_On_70_Vel_0
Time_Shift_11
Sustain_Off
Time_Shift_4
Note_On_77_Vel_0
Time_Shift_7
Note_On_72_Vel_0
Time_Shift_108
Sustain_On
Time_Shift_79
Note_On_75_Vel_49
Time_Shift_116
Note_On_77_Vel_45
Time_Shift_104
Note_On_68_Vel_0
Time_Shift_6
Note_On_68_Vel_39
Time_Shift_94
Note_On_80_Vel_0
Time_Shift_8
Note_On_77_Vel_0
Time_Shift_2
Note_On_80_Vel_68
Time_Shift_2
Note_On_77_Vel_56
Time_Shift_27
Note_On_75_Vel_0
Time_Shift_5
Note_On_56_Vel_41
Time_Shift_3
Note_On_61_Vel_36
Time_Shift_11
Sustain_Off
Time_Shift_11
Sustain_On
Time_Shift_23
Note_On_73_Vel_0
Time_Shift_23
Note_On_65_Vel_0
Time_Shift_13
Note_On_75_Vel_60
Time_Shift_10
Note_On_53_Vel_0
Time_Shift_85
Note_On_68_Vel_0
Time_Shift_4
Note_On_68_Vel_55
Time_Shift_6
Note_On_73_Vel_68
Time_Shift_96
Note_On_85_Vel_75
Time_Shift_89
Note_On_68_Vel_0
Time_Shift_1
Note_On_61_Vel_0
Note_On_73_Vel_0
Note_On_85_Vel_0
Note_On_77_Vel_0
Time_Shift_1
Sustain_Off
Note_On_75_Vel_0
Time_Shift_3
Note_On_56_Vel_0
Time_Shift_4
Note_On_84_Vel_70
Time_Shift_4
Note_On_56_Vel_53
Time_Shift_3
Note_On_66_Vel_52
Time_Shift_2
Note_On_87_Vel_60
Time_Shift_2
Note_On_80_Vel_0
Time_Shift_7
Note_On_63_Vel_47
Time_Shift_8
Sustain_On
Time_Shift_73
Note_On_82_Vel_72
Time_Shift_93
Note_On_68_Vel_65
Note_On_80_Vel_74
Time_Shift_98
Note_On_89_Vel_76
Time_Shift_64
Note_On_68_Vel_0
Time_Shift_1
Note_On_56_Vel_0
Time_Shift_1
Note_On_82_Vel_0
Note_On_66_Vel_0
Time_Shift_2
Sustain_Off
Time_Shift_2
Note_On_63_Vel_0
Time_Shift_4
Sustain_On
Time_Shift_7
Note_On_89_Vel_0
Time_Shift_1
Note_On_44_Vel_62
Time_Shift_8
Note_On_87_Vel_0
Time_Shift_5
Note_On_87_Vel_75
Time_Shift_2
Note_On_80_Vel_0
Note_On_84_Vel_0
Time_Shift_9
Note_On_80_Vel_56
Time_Shift_2
Note_On_84_Vel_65
Time_Shift_78
Note_On_82_Vel_79
Time_Shift_88
Note_On_80_Vel_0
Time_Shift_9
Note_On_68_Vel_69
Note_On_80_Vel_76
Time_Shift_8
Note_On_63_Vel_35
Time_Shift_78
Note_On_92_Vel_80
Time_Shift_89
Note_On_92_Vel_0
Time_Shift_3
Note_On_68_Vel_0
Time_Shift_1
Note_On_82_Vel_0
Time_Shift_1
Note_On_84_Vel_0
Note_On_63_Vel_0
Time_Shift_1
Note_On_87_Vel_0
Time_Shift_2
Note_On_92_Vel_77
Time_Shift_6
Note_On_61_Vel_60
Time_Shift_2
Note_On_44_Vel_0
Time_Shift_3
Note_On_49_Vel_66
Sustain_Off
Time_Shift_1
Note_On_89_Vel_74
Time_Shift_19
Sustain_On
Time_Shift_15
Note_On_61_Vel_0
Time_Shift_68
Note_On_87_Vel_78
Time_Shift_78
Note_On_85_Vel_76
Time_Shift_5
Note_On_68_Vel_64
Time_Shift_79
Note_On_80_Vel_0
Time_Shift_5
Note_On_80_Vel_79
Time_Shift_80
Note_On_92_Vel_0
Time_Shift_10
Note_On_92_Vel_81
Time_Shift_1
Note_On_49_Vel_0
Time_Shift_1
Note_On_68_Vel_0
Note_On_87_Vel_0
Time_Shift_3
Note_On_89_Vel_0
Time_Shift_3
Note_On_80_Vel_0
Time_Shift_3
Note_On_89_Vel_70
Time_Shift_14
Sustain_Off
Time_Shift_7
Note_On_65_Vel_51
Time_Shift_1
Note_On_61_Vel_57
Time_Shift_3
Sustain_On
Time_Shift_3
Note_On_56_Vel_57
Time_Shift_64
Note_On_87_Vel_79
Time_Shift_87
Note_On_85_Vel_0
Time_Shift_7
Note_On_85_Vel_83
Time_Shift_2
Note_On_68_Vel_57
Time_Shift_86
Note_On_97_Vel_88
Time_Shift_95
Note_On_99_Vel_83
Time_Shift_7
Note_On_96_Vel_75
Time_Shift_8
Note_On_61_Vel_0
Time_Shift_1
Note_On_85_Vel_0
Time_Shift_1
Note_On_56_Vel_0
Note_On_65_Vel_0
Time_Shift_2
Note_On_68_Vel_0
Note_On_87_Vel_0
Note_On_89_Vel_0
Time_Shift_1
Note_On_97_Vel_0
Time_Shift_1
Note_On_66_Vel_65
Note_On_56_Vel_54
Time_Shift_1
Sustain_Off
Time_Shift_3
Note_On_92_Vel_0
Time_Shift_3
Note_On_63_Vel_57
Time_Shift_27
Sustain_On
Time_Shift_58
Note_On_94_Vel_84
Time_Shift_65
Note_On_68_Vel_71
Time_Shift_21
Note_On_92_Vel_84
Time_Shift_103
Note_On_101_Vel_81
Time_Shift_60
Note_On_66_Vel_0
Time_Shift_1
Note_On_63_Vel_0
Time_Shift_2
Sustain_Off
Time_Shift_8
Note_On_63_Vel_53
Time_Shift_13
Note_On_99_Vel_0
Time_Shift_7
Note_On_96_Vel_0
Sustain_On
Time_Shift_2
Note_On_99_Vel_79
Time_Shift_9
Note_On_96_Vel_72
Time_Shift_74
Note_On_94_Vel_0
Time_Shift_11
Note_On_94_Vel_81
Time_Shift_73
Note_On_92_Vel_0
Time_Shift_6
Note_On_92_Vel_78
Time_Shift_102
Note_On_68_Vel_0
Time_Shift_9
Note_On_68_Vel_73
Time_Shift_91
Note_On_63_Vel_0
Time_Shift_7
Note_On_80_Vel_80
Time_Shift_12
Note_On_77_Vel_62
Sustain_Off
Time_Shift_1
Note_On_49_Vel_59
Time_Shift_18
Sustain_On
Time_Shift_96
Note_On_75_Vel_65
Time_Shift_81
Note_On_56_Vel_0
Time_Shift_5
Note_On_56_Vel_62
Time_Shift_1
Note_On_73_Vel_73
Time_Shift_86
Note_On_68_Vel_0
Time_Shift_4
Note_On_68_Vel_69
Time_Shift_80
Note_On_77_Vel_0
Note_On_80_Vel_0
Time_Shift_5
Note_On_80_Vel_86
Time_Shift_6
Note_On_61_Vel_75
Note_On_77_Vel_74
Time_Shift_28
Note_On_94_Vel_0
Time_Shift_65
Note_On_76_Vel_82
Time_Shift_96
Note_On_77_Vel_0
Time_Shift_4
Note_On_77_Vel_88
Time_Shift_3
Note_On_65_Vel_77
Time_Shift_24
Note_On_96_Vel_0
Time_Shift_56
Note_On_82_Vel_95
Time_Shift_82
Note_On_99_Vel_0
Time_Shift_23
Note_On_76_Vel_0
Time_Shift_2
Note_On_84_Vel_91
Time_Shift_5
Note_On_48_Vel_76
Time_Shift_1
Note_On_101_Vel_0
Time_Shift_2
Note_On_76_Vel_80
Time_Shift_21
Note_On_92_Vel_0
Time_Shift_8
Note_On_73_Vel_0
Note_On_49_Vel_0
Time_Shift_1
Note_On_65_Vel_0
Note_On_68_Vel_0
Note_On_75_Vel_0
Note_On_61_Vel_0
Note_On_80_Vel_0
Time_Shift_1
Note_On_82_Vel_0
Note_On_56_Vel_0
Time_Shift_1
Note_On_77_Vel_0
Time_Shift_10
Sustain_Off
Time_Shift_40
Note_On_76_Vel_0
Sustain_On
Time_Shift_21
Note_On_79_Vel_81
Time_Shift_83
Note_On_58_Vel_68
Time_Shift_7
Note_On_72_Vel_84
Time_Shift_101
Note_On_85_Vel_93
Time_Shift_97
Note_On_82_Vel_89
Time_Shift_2
Note_On_60_Vel_62
Time_Shift_88
Note_On_79_Vel_0
Time_Shift_11
Note_On_79_Vel_81
Time_Shift_89
Note_On_72_Vel_0
Time_Shift_6
Note_On_72_Vel_81
Time_Shift_10
Note_On_64_Vel_57
Time_Shift_88
Note_On_91_Vel_84
Time_Shift_111
Note_On_84_Vel_0
Time_Shift_8
Note_On_84_Vel_87
Time_Shift_9
Note_On_53_Vel_61
Time_Shift_4
Note_On_80_Vel_68
Time_Shift_37
Note_On_79_Vel_0
Note_On_72_Vel_0
Time_Shift_1
Note_On_91_Vel_0
Time_Shift_2
Note_On_60_Vel_0
Time_Shift_2
Note_On_58_Vel_0
Note_On_82_Vel_0
Note_On_64_Vel_0
Note_On_85_Vel_0
Time_Shift_10
Sustain_Off
Time_Shift_4
Note_On_48_Vel_0
Time_Shift_46
Note_On_79_Vel_80
Sustain_On
Time_Shift_88
Note_On_77_Vel_86
Time_Shift_1
Note_On_56_Vel_72
Time_Shift_94
Note_On_72_Vel_86
Time_Shift_78
Note_On_84_Vel_0
Time_Shift_8
Note_On_80_Vel_0
Time_Shift_3
Note_On_84_Vel_95
Time_Shift_1
Note_On_60_Vel_88
Time_Shift_7
Note_On_80_Vel_82
Time_Shift_74
Note_On_79_Vel_0
Time_Shift_10
Note_On_79_Vel_89
Time_Shift_82
Note_On_77_Vel_0
Time_Shift_10
Note_On_77_Vel_95
Time_Shift_31
Note_On_65_Vel_78
Time_Shift_60
Note_On_89_Vel_104
Time_Shift_83
Note_On_84_Vel_0
Time_Shift_10
Note_On_55_Vel_93
Note_On_84_Vel_92
Time_Shift_2
Note_On_87_Vel_88
Time_Shift_23
Note_On_77_Vel_0
Note_On_72_Vel_0
Note_On_79_Vel_0
Note_On_53_Vel_0
Time_Shift_1
Note_On_56_Vel_0
Note_On_80_Vel_0
Note_On_65_Vel_0
Time_Shift_1
Note_On_60_Vel_0
Time_Shift_1
Note_On_89_Vel_0
Time_Shift_1
Sustain_Off
Time_Shift_30
Sustain_On
Time_Shift_41
Note_On_80_Vel_96
Time_Shift_87
Note_On_79_Vel_98
Time_Shift_3
Note_On_63_Vel_97
Time_Shift_95
Note_On_91_Vel_103
Time_Shift_1
Note_On_89_Vel_100
Time_Shift_80
Note_On_87_Vel_0
Time_Shift_8
Note_On_56_Vel_100
Time_Shift_2
Note_On_87_Vel_94
Time_Shift_1
Note_On_90_Vel_98
Time_Shift_6
Note_On_80_Vel_0
Sustain_Off
Time_Shift_2
Note_On_63_Vel_0
Time_Shift_1
Note_On_79_Vel_0
Note_On_89_Vel_0
Note_On_55_Vel_0
Time_Shift_1
Note_On_91_Vel_0
Time_Shift_25
Sustain_On
Time_Shift_8
Note_On_84_Vel_0
Time_Shift_42
Note_On_86_Vel_94
Time_Shift_95
Note_On_84_Vel_97
Time_Shift_6
Note_On_60_Vel_89
Note_On_66_Vel_94
Time_Shift_85
Note_On_96_Vel_101
Time_Shift_73
Note_On_84_Vel_0
Time_Shift_1
Note_On_90_Vel_0
Note_On_56_Vel_0
Note_On_60_Vel_0
Note_On_66_Vel_0
Time_Shift_4
Sustain_Off
Time_Shift_9
Note_On_87_Vel_0
Time_Shift_8
Note_On_86_Vel_0
Time_Shift_4
Note_On_95_Vel_107
Time_Shift_2
Note_On_67_Vel_107
Time_Shift_3
Note_On_86_Vel_106
Time_Shift_2
Note_On_59_Vel_97
Time_Shift_1
Note_On_62_Vel_101
Note_On_55_Vel_94
Time_Shift_18
Sustain_On
Time_Shift_75
Note_On_91_Vel_100
Time_Shift_79
Note_On_86_Vel_0
Time_Shift_8
Note_On_86_Vel_87
Time_Shift_9
Note_On_84_Vel_80
Time_Shift_23
Note_On_95_Vel_0
Time_Shift_3
Sustain_Off
Note_On_91_Vel_0
Time_Shift_2
Note_On_62_Vel_0
Time_Shift_9
Note_On_55_Vel_0
Note_On_96_Vel_0
Time_Shift_7
Note_On_59_Vel_0
Note_On_67_Vel_0
Time_Shift_29
Note_On_83_Vel_96
Time_Shift_33
Note_On_84_Vel_0
Note_On_86_Vel_0
Time_Shift_21
Note_On_83_Vel_0
Time_Shift_57
Note_On_91_Vel_106
Time_Shift_3
Note_On_43_Vel_106
Note_On_83_Vel_93
Time_Shift_2
Note_On_31_Vel_97
Time_Shift_34
Note_On_43_Vel_0
Time_Shift_36
Note_On_31_Vel_0
Time_Shift_18
Note_On_86_Vel_92
Time_Shift_29
Note_On_83_Vel_0
Time_Shift_7
Note_On_91_Vel_0
Time_Shift_57
Note_On_43_Vel_106
Time_Shift_1
Note_On_31_Vel_94
Time_Shift_5
Note_On_83_Vel_98
Time_Shift_31
Note_On_43_Vel_0
Time_Shift_3
Note_On_31_Vel_0
Time_Shift_11
Note_On_86_Vel_0
Time_Shift_2
Note_On_83_Vel_0
Time_Shift_47
Note_On_79_Vel_96
Time_Shift_29
Note_On_79_Vel_0
Time_Shift_64
Note_On_43_Vel_103
Note_On_82_Vel_105
Note_On_91_Vel_107
Time_Shift_1
Note_On_31_Vel_93
Time_Shift_26
Sustain_On
Time_Shift_63
Note_On_85_Vel_98
Time_Shift_50
Note_On_46_Vel_88
Time_Shift_2
Note_On_82_Vel_0
Time_Shift_4
Note_On_82_Vel_88
Time_Shift_105
Note_On_49_Vel_90
Time_Shift_8
Note_On_79_Vel_96
Time_Shift_79
Note_On_52_Vel_87
Time_Shift_11
Note_On_82_Vel_0
Time_Shift_3
Note_On_88_Vel_101
Time_Shift_1
Note_On_82_Vel_95
Time_Shift_73
Note_On_85_Vel_0
Time_Shift_3
Note_On_55_Vel_83
Time_Shift_5
Note_On_43_Vel_0
Time_Shift_3
Note_On_85_Vel_99
Time_Shift_1
Note_On_43_Vel_76
Time_Shift_80
Note_On_82_Vel_0
Time_Shift_3
Note_On_58_Vel_91
Time_Shift_2
Note_On_82_Vel_93
Time_Shift_72
Note_On_49_Vel_0
Note_On_79_Vel_0
Time_Shift_5
Note_On_61_Vel_91
Time_Shift_3
Note_On_49_Vel_79
Time_Shift_1
Note_On_79_Vel_100
Time_Shift_69
Note_On_61_Vel_0
Note_On_52_Vel_0
Time_Shift_2
Note_On_58_Vel_0
Note_On_43_Vel_0
Note_On_55_Vel_0
Note_On_79_Vel_0
Note_On_85_Vel_0
Note_On_46_Vel_0
Time_Shift_1
Note_On_88_Vel_0
Note_On_49_Vel_0
Note_On_91_Vel_0
Note_On_82_Vel_0
Time_Shift_3
Sustain_Off
Time_Shift_10
Note_On_60_Vel_100
Time_Shift_3
Note_On_90_Vel_105
Note_On_81_Vel_95
Time_Shift_3
Note_On_31_Vel_0
Sustain_On
Time_Shift_100
Note_On_87_Vel_83
Time_Shift_32
Sustain_Off
Time_Shift_14
Note_On_60_Vel_0
Time_Shift_38
Note_On_81_Vel_0
Time_Shift_2
Note_On_43_Vel_106
Time_Shift_1
Note_On_31_Vel_91
Time_Shift_2
Note_On_81_Vel_87
Time_Shift_29
Note_On_31_Vel_0
Time_Shift_28
Note_On_43_Vel_0
Time_Shift_15
Note_On_90_Vel_0
Time_Shift_15
Note_On_87_Vel_0
Time_Shift_12
Note_On_78_Vel_82
Time_Shift_19
Note_On_81_Vel_0
Time_Shift_31
Note_On_78_Vel_0
Time_Shift_35
Note_On_43_Vel_98
Note_On_31_Vel_87
Note_On_87_Vel_90
Time_Shift_10
Note_On_81_Vel_77
Time_Shift_39
Note_On_31_Vel_0
Note_On_43_Vel_0
Time_Shift_23
Note_On_81_Vel_0
Time_Shift_8
Note_On_87_Vel_0
Time_Shift_16
Note_On_84_Vel_84
Time_Shift_61
Note_On_84_Vel_0
Time_Shift_23
Note_On_43_Vel_103
Time_Shift_2
Note_On_31_Vel_89
Time_Shift_4
Note_On_81_Vel_83
Time_Shift_29
Note_On_31_Vel_0
Time_Shift_26
Note_On_43_Vel_0
Time_Shift_16
Note_On_78_Vel_93
Time_Shift_15
Note_On_81_Vel_0
Time_Shift_4
Note_On_78_Vel_0
Time_Shift_79
Note_On_89_Vel_108
Time_Shift_4
Note_On_43_Vel_99
Note_On_31_Vel_87
Time_Shift_5
Note_On_80_Vel_90
Time_Shift_15
Sustain_On
Time_Shift_63
Note_On_86_Vel_91
Time_Shift_48
Note_On_44_Vel_92
Time_Shift_28
Note_On_80_Vel_0
Time_Shift_6
Note_On_80_Vel_95
Time_Shift_53
Note_On_47_Vel_86
Time_Shift_31
Note_On_77_Vel_88
Time_Shift_61
Note_On_50_Vel_90
Time_Shift_25
Note_On_80_Vel_0
Note_On_86_Vel_0
Time_Shift_5
Note_On_86_Vel_98
Time_Shift_6
Note_On_80_Vel_86
Time_Shift_54
Note_On_53_Vel_93
Time_Shift_18
Note_On_83_Vel_97
Time_Shift_69
Note_On_56_Vel_96
Time_Shift_10
Note_On_80_Vel_0
Time_Shift_10
Note_On_80_Vel_92
Time_Shift_66
Note_On_77_Vel_0
Time_Shift_4
Note_On_59_Vel_92
Time_Shift_1
Note_On_77_Vel_98
Time_Shift_47
Note_On_77_Vel_0
Time_Shift_1
Note_On_53_Vel_0
Note_On_56_Vel_0
Time_Shift_1
Note_On_80_Vel_0
Note_On_89_Vel_0
Time_Shift_1
Note_On_86_Vel_0
Note_On_44_Vel_0
Note_On_47_Vel_0
Note_On_43_Vel_0
Time_Shift_1
Note_On_83_Vel_0
Note_On_59_Vel_0
Note_On_50_Vel_0
Time_Shift_3
Sustain_Off
Time_Shift_3
Note_On_31_Vel_0
Time_Shift_31
Note_On_58_Vel_99
Time_Shift_5
Note_On_88_Vel_101
Time_Shift_6
Note_On_79_Vel_95
Time_Shift_65
Sustain_On
Time_Shift_16
Note_On_58_Vel_0
Time_Shift_15
Note_On_85_Vel_87
Time_Shift_8
Sustain_Off
Time_Shift_10
Note_On_88_Vel_0
Time_Shift_59
Note_On_79_Vel_0
Note_On_43_Vel_95
Time_Shift_3
Note_On_31_Vel_90
Time_Shift_4
Note_On_91_Vel_87
Time_Shift_4
Note_On_79_Vel_86
Time_Shift_15
Note_On_90_Vel_69
Time_Shift_5
Note_On_90_Vel_0
Time_Shift_4
Note_On_31_Vel_0
Time_Shift_1
Note_On_43_Vel_0
Time_Shift_2
Note_On_91_Vel_0
Time_Shift_10
Note_On_79_Vel_0
Time_Shift_53
Note_On_76_Vel_80
Time_Shift_22
Note_On_85_Vel_0
Time_Shift_19
Note_On_76_Vel_0
Time_Shift_47
Note_On_85_Vel_87
Time_Shift_5
Note_On_31_Vel_86
Note_On_43_Vel_92
Time_Shift_2
Note_On_79_Vel_85
Time_Shift_27
Note_On_43_Vel_0
Time_Shift_23
Note_On_31_Vel_0
Time_Shift_23
Note_On_79_Vel_0
Time_Shift_11
Note_On_82_Vel_92
Time_Shift_26
Note_On_85_Vel_0
Time_Shift_70
Note_On_82_Vel_0
Time_Shift_1
Note_On_79_Vel_86
Time_Shift_1
Note_On_43_Vel_97
Time_Shift_1
Note_On_31_Vel_85
Time_Shift_33
Note_On_31_Vel_0
Time_Shift_7
Note_On_43_Vel_0
Time_Shift_19
Note_On_79_Vel_0
Time_Shift_5
Note_On_76_Vel_92
Time_Shift_45
Note_On_76_Vel_0
Time_Shift_45
Note_On_31_Vel_80
Time_Shift_7
Note_On_87_Vel_96
Time_Shift_1
Note_On_43_Vel_83
Note_On_78_Vel_95
Time_Shift_4
Note_On_43_Vel_0
Sustain_On
Time_Shift_33
Note_On_43_Vel_59
Time_Shift_51
Note_On_84_Vel_85
Time_Shift_77
Note_On_45_Vel_73
Time_Shift_8
Note_On_78_Vel_0
Time_Shift_6
Note_On_78_Vel_100
Time_Shift_93
Note_On_75_Vel_89
Time_Shift_12
Note_On_48_Vel_72
Time_Shift_66
Note_On_78_Vel_0
Note_On_84_Vel_0
Time_Shift_9
Note_On_84_Vel_96
Time_Shift_1
Note_On_78_Vel_92
Time_Shift_39
Note_On_51_Vel_58
Time_Shift_48
Note_On_81_Vel_90
Time_Shift_79
Note_On_54_Vel_85
Note_On_78_Vel_0
Time_Shift_8
Note_On_78_Vel_95
Time_Shift_77
Note_On_75_Vel_0
Time_Shift_4
Note_On_57_Vel_87
Time_Shift_5
Note_On_75_Vel_86
Time_Shift_60
Note_On_31_Vel_0
Time_Shift_7
Note_On_75_Vel_0
Time_Shift_1
Note_On_45_Vel_0
Note_On_48_Vel_0
Time_Shift_1
Note_On_51_Vel_0
Note_On_78_Vel_0
Time_Shift_1
Note_On_57_Vel_0
Note_On_81_Vel_0
Note_On_43_Vel_0
Note_On_54_Vel_0
Note_On_84_Vel_0
Time_Shift_1
Note_On_87_Vel_0
Time_Shift_1
Sustain_Off
Time_Shift_23
Note_On_86_Vel_93
Time_Shift_1
Note_On_56_Vel_102
Time_Shift_5
Note_On_77_Vel_91
Time_Shift_36
Sustain_On
Time_Shift_60
Note_On_83_Vel_90
Time_Shift_86
Note_On_77_Vel_0
Time_Shift_6
Note_On_77_Vel_79
Time_Shift_13
Note_On_56_Vel_0
Time_Shift_1
Note_On_86_Vel_0
Time_Shift_1
Note_On_83_Vel_0
Time_Shift_6
Sustain_Off
Time_Shift_34
Note_On_77_Vel_0
Time_Shift_42
Note_On_74_Vel_63
Time_Shift_66
Note_On_74_Vel_0
Time_Shift_11
Note_On_43_Vel_93
Time_Shift_1
Note_On_31_Vel_83
Note_On_83_Vel_91
Time_Shift_23
Note_On_43_Vel_0
Time_Shift_26
Note_On_31_Vel_0
Time_Shift_23
Note_On_83_Vel_0
Time_Shift_36
Note_On_77_Vel_79
Time_Shift_69
Note_On_77_Vel_0
Time_Shift_14
Note_On_31_Vel_78
Note_On_43_Vel_89
Time_Shift_4
Note_On_74_Vel_78
Time_Shift_20
Note_On_31_Vel_0
Time_Shift_1
Note_On_43_Vel_0
Time_Shift_15
Note_On_74_Vel_0
Time_Shift_59
Note_On_71_Vel_74
Time_Shift_30
Note_On_71_Vel_0
Time_Shift_63
Note_On_77_Vel_84
Time_Shift_1
Note_On_55_Vel_91
Time_Shift_4
Note_On_43_Vel_73
Time_Shift_22
Sustain_On
Time_Shift_11
Note_On_43_Vel_0
Time_Shift_64
Note_On_74_Vel_71
Time_Shift_75
Note_On_77_Vel_0
Time_Shift_8
Sustain_Off
Time_Shift_3
Note_On_55_Vel_0
Time_Shift_31
Note_On_74_Vel_0
Time_Shift_6
Note_On_71_Vel_65
Time_Shift_44
Note_On_71_Vel_0
Time_Shift_42
Note_On_65_Vel_70
Time_Shift_28
Note_On_65_Vel_0
Time_Shift_73
Note_On_43_Vel_107
Time_Shift_2
Note_On_31_Vel_100
Time_Shift_2
Note_On_71_Vel_89
Note_On_65_Vel_82
Time_Shift_32
Note_On_43_Vel_0
Time_Shift_40
Note_On_31_Vel_0
Time_Shift_31
Note_On_71_Vel_0
Time_Shift_6
Note_On_71_Vel_68
Time_Shift_36
Note_On_65_Vel_0
Time_Shift_42
Note_On_71_Vel_0
Time_Shift_27
Note_On_43_Vel_104
Time_Shift_2
Note_On_65_Vel_85
Note_On_31_Vel_89
Time_Shift_2
Note_On_67_Vel_81
Time_Shift_1
Note_On_71_Vel_86
Time_Shift_60
Note_On_43_Vel_0
Sustain_On
Time_Shift_8
Note_On_67_Vel_0
Time_Shift_8
Note_On_31_Vel_0
Sustain_Off
Time_Shift_23
Note_On_62_Vel_79
Time_Shift_53
Note_On_71_Vel_0
Time_Shift_16
Note_On_65_Vel_0
Time_Shift_54
Note_On_62_Vel_0
Time_Shift_19
Note_On_48_Vel_108
Time_Shift_4
Note_On_36_Vel_98
Time_Shift_2
Note_On_72_Vel_96
Time_Shift_2
Note_On_63_Vel_86
Time_Shift_19
Sustain_On
Time_Shift_310
Note_On_72_Vel_0
Time_Shift_1
Note_On_63_Vel_0
Time_Shift_11
Sustain_Off
Time_Shift_23
Note_On_36_Vel_0
Note_On_48_Vel_0
Time_Shift_9
Note_On_48_Vel_99
Time_Shift_2
Note_On_36_Vel_82
Time_Shift_32
Note_On_48_Vel_0
Note_On_36_Vel_0
Time_Shift_150
Note_On_48_Vel_100
Time_Shift_2
Note_On_36_Vel_94
Time_Shift_39
Note_On_48_Vel_0
Time_Shift_1
Note_On_36_Vel_0
Time_Shift_135
Note_On_48_Vel_107
Time_Shift_3
Note_On_36_Vel_86
Time_Shift_38
Note_On_48_Vel_0
Time_Shift_27
Note_On_36_Vel_0
Time_Shift_31
Note_On_62_Vel_86
Time_Shift_61
Note_On_62_Vel_0
Time_Shift_15
Note_On_65_Vel_77
Time_Shift_70
Note_On_48_Vel_79
Time_Shift_3
Note_On_68_Vel_83
Time_Shift_4
Note_On_65_Vel_0
Time_Shift_4
Note_On_53_Vel_80
Time_Shift_61
Note_On_56_Vel_89
Time_Shift_12
Sustain_On
Time_Shift_11
Note_On_71_Vel_80
Time_Shift_6
Note_On_62_Vel_108
Time_Shift_66
Note_On_74_Vel_86
Time_Shift_74
Note_On_77_Vel_88
Time_Shift_67
Note_On_80_Vel_90
Time_Shift_61
Note_On_83_Vel_90
Time_Shift_26
Note_On_51_Vel_69
Time_Shift_12
Note_On_48_Vel_0
Time_Shift_1
Note_On_53_Vel_0
Time_Shift_1
Note_On_62_Vel_0
Note_On_77_Vel_0
Time_Shift_1
Sustain_Off
Note_On_68_Vel_0
Note_On_56_Vel_0
Note_On_71_Vel_0
Note_On_80_Vel_0
Time_Shift_1
Note_On_83_Vel_0
Time_Shift_4
Note_On_48_Vel_78
Time_Shift_15
Note_On_74_Vel_0
Time_Shift_14
Note_On_55_Vel_74
Time_Shift_2
Note_On_60_Vel_77
Time_Shift_1
Note_On_84_Vel_109
Time_Shift_6
Sustain_On
Time_Shift_174
Note_On_72_Vel_96
Time_Shift_74
Note_On_51_Vel_0
Time_Shift_1
Note_On_48_Vel_0
Note_On_55_Vel_0
Note_On_60_Vel_0
Note_On_84_Vel_0
Time_Shift_2
Note_On_72_Vel_0
Time_Shift_6
Sustain_Off
Time_Shift_91
Note_On_48_Vel_91
Time_Shift_1
Note_On_36_Vel_85
Time_Shift_23
Note_On_48_Vel_0
Time_Shift_2
Note_On_36_Vel_0
Time_Shift_144
Note_On_48_Vel_95
Time_Shift_2
Note_On_60_Vel_94
Time_Shift_26
Note_On_48_Vel_0
Time_Shift_22
Note_On_60_Vel_0
Time_Shift_36
Note_On_63_Vel_85
Time_Shift_50
Note_On_63_Vel_0
Time_Shift_34
Note_On_66_Vel_93
Note_On_48_Vel_109
Time_Shift_5
Note_On_36_Vel_98
Time_Shift_33
Note_On_48_Vel_0
Time_Shift_2
Note_On_36_Vel_0
Time_Shift_32
Note_On_66_Vel_0
Time_Shift_16
Note_On_69_Vel_88
Time_Shift_74
Note_On_72_Vel_80
Time_Shift_25
Note_On_69_Vel_0
Time_Shift_51
Note_On_48_Vel_89
Time_Shift_3
Note_On_75_Vel_87
Time_Shift_15
Note_On_72_Vel_0
Time_Shift_31
Sustain_On
Time_Shift_7
Note_On_57_Vel_72
Time_Shift_43
Note_On_78_Vel_95
Time_Shift_2
Note_On_63_Vel_102
Time_Shift_81
Note_On_81_Vel_87
Time_Shift_76
Note_On_62_Vel_93
Note_On_84_Vel_89
Time_Shift_62
Note_On_87_Vel_92
Time_Shift_47
Note_On_90_Vel_101
Time_Shift_9
Note_On_59_Vel_76
Time_Shift_2
Note_On_47_Vel_80
Time_Shift_23
Note_On_81_Vel_0
Time_Shift_3
Note_On_78_Vel_0
Time_Shift_1
Note_On_84_Vel_0
Time_Shift_1
Note_On_57_Vel_0
Note_On_75_Vel_0
Time_Shift_3
Note_On_63_Vel_0
Time_Shift_9
Sustain_Off
Time_Shift_15
Note_On_62_Vel_0
Time_Shift_9
Note_On_62_Vel_99
Time_Shift_3
Note_On_91_Vel_112
Time_Shift_3
Sustain_On
Time_Shift_31
Note_On_48_Vel_0
Time_Shift_100
Note_On_59_Vel_0
Time_Shift_21
Note_On_79_Vel_93
Time_Shift_1
Sustain_Off
Time_Shift_1
Note_On_87_Vel_0
Note_On_47_Vel_0
Time_Shift_3
Note_On_62_Vel_0
Note_On_91_Vel_0
Time_Shift_20
Note_On_90_Vel_0
Time_Shift_23
Note_On_79_Vel_0
Time_Shift_39
Sustain_On
Time_Shift_27
Note_On_46_Vel_75
Time_Shift_23
Note_On_55_Vel_46
Time_Shift_46
Note_On_100_Vel_102
Time_Shift_2
Note_On_61_Vel_101
Time_Shift_81
Note_On_97_Vel_104
Time_Shift_68
Note_On_60_Vel_86
Time_Shift_10
Note_On_94_Vel_97
Time_Shift_83
Note_On_88_Vel_95
Time_Shift_40
Note_On_45_Vel_68
Time_Shift_48
Note_On_101_Vel_106
Time_Shift_9
Note_On_60_Vel_0
Time_Shift_7
Note_On_60_Vel_97
Time_Shift_4
Sustain_Off
Note_On_88_Vel_0
Time_Shift_1
Note_On_55_Vel_0
Time_Shift_1
Note_On_61_Vel_0
Note_On_46_Vel_0
Note_On_100_Vel_0
Time_Shift_1
Note_On_45_Vel_0
Note_On_94_Vel_0
Note_On_97_Vel_0
Time_Shift_60
Note_On_96_Vel_92
Time_Shift_65
Sustain_On
Time_Shift_14
Note_On_93_Vel_95
Time_Shift_89
Note_On_89_Vel_89
Time_Shift_31
Note_On_44_Vel_67
Time_Shift_59
Note_On_90_Vel_96
Time_Shift_14
Note_On_60_Vel_0
Time_Shift_5
Note_On_60_Vel_82
Time_Shift_60
Note_On_87_Vel_86
Time_Shift_19
Note_On_101_Vel_0
Time_Shift_59
Note_On_84_Vel_86
Time_Shift_91
Note_On_78_Vel_88
Time_Shift_1
Note_On_43_Vel_75
Time_Shift_93
Note_On_91_Vel_102
Time_Shift_2
Note_On_60_Vel_0
Time_Shift_3
Note_On_51_Vel_79
Time_Shift_2
Note_On_60_Vel_88
Time_Shift_17
Sustain_Off
Time_Shift_7
Note_On_43_Vel_0
Note_On_84_Vel_0
Time_Shift_2
Note_On_90_Vel_0
Time_Shift_3
Note_On_44_Vel_0
Note_On_93_Vel_0
Time_Shift_1
Note_On_60_Vel_0
Time_Shift_4
Note_On_96_Vel_0
Time_Shift_4
Note_On_51_Vel_0
Time_Shift_3
Note_On_78_Vel_0
Note_On_89_Vel_0
Time_Shift_31
Note_On_87_Vel_0
Time_Shift_8
Note_On_87_Vel_93
Time_Shift_7
Note_On_91_Vel_0
Time_Shift_23
Sustain_On
Time_Shift_50
Note_On_84_Vel_93
Time_Shift_71
Note_On_79_Vel_84
Time_Shift_5
Note_On_44_Vel_73
Time_Shift_38
Note_On_50_Vel_79
Time_Shift_42
Note_On_78_Vel_98
Time_Shift_3
Note_On_54_Vel_88
Note_On_60_Vel_92
Time_Shift_90
Note_On_74_Vel_86
Time_Shift_70
Note_On_50_Vel_0
Time_Shift_9
Note_On_72_Vel_92
Time_Shift_1
Note_On_50_Vel_58
Time_Shift_85
Note_On_66_Vel_92
Time_Shift_5
Note_On_43_Vel_74
Time_Shift_69
Note_On_50_Vel_0
Time_Shift_6
Note_On_50_Vel_88
Time_Shift_8
Note_On_59_Vel_97
Time_Shift_6
Note_On_67_Vel_101
Time_Shift_26
Note_On_87_Vel_0
Time_Shift_5
Note_On_54_Vel_0
Time_Shift_1
Note_On_66_Vel_0
Time_Shift_1
Note_On_78_Vel_0
Note_On_84_Vel_0
Note_On_79_Vel_0
Time_Shift_1
Note_On_74_Vel_0
Time_Shift_1
Note_On_50_Vel_0
Note_On_72_Vel_0
Note_On_44_Vel_0
Time_Shift_1
Note_On_60_Vel_0
Time_Shift_2
Note_On_43_Vel_0
Time_Shift_1
Sustain_Off
Note_On_59_Vel_0
Time_Shift_2
Note_On_67_Vel_0
Time_Shift_151
Note_On_79_Vel_103
Time_Shift_1
Note_On_67_Vel_99
Time_Shift_2
Note_On_74_Vel_89
Time_Shift_1
Note_On_71_Vel_93
Time_Shift_1
Note_On_31_Vel_91
Time_Shift_1
Note_On_43_Vel_97
Time_Shift_19
Note_On_67_Vel_0
Time_Shift_3
Note_On_71_Vel_0
Time_Shift_2
Note_On_74_Vel_0
Time_Shift_1
Note_On_79_Vel_0
Time_Shift_1
Note_On_43_Vel_0
Time_Shift_5
Note_On_31_Vel_0
Time_Shift_146
Note_On_43_Vel_106
Time_Shift_2
Note_On_31_Vel_92
Time_Shift_37
Note_On_43_Vel_0
Note_On_31_Vel_0
Time_Shift_161
Note_On_43_Vel_106
Time_Shift_1
Note_On_31_Vel_91
Time_Shift_38
Note_On_43_Vel_0
Time_Shift_3
Note_On_31_Vel_0
Time_Shift_194
Note_On_48_Vel_108
Time_Shift_2
Note_On_36_Vel_99
Time_Shift_35
Sustain_On
Time_Shift_322
Sustain_Off
Time_Shift_8
Note_On_36_Vel_0
Note_On_48_Vel_0
Time_Shift_6
Note_On_48_Vel_94
Time_Shift_3
Note_On_36_Vel_85
Time_Shift_35
Note_On_36_Vel_0
Note_On_48_Vel_0
Time_Shift_139
Note_On_48_Vel_100
Time_Shift_4
Note_On_36_Vel_86
Time_Shift_35
Note_On_48_Vel_0
Time_Shift_4
Note_On_36_Vel_0
Time_Shift_124
Note_On_48_Vel_95
Time_Shift_5
Note_On_36_Vel_85
Time_Shift_44
Sustain_On
Time_Shift_38
Note_On_38_Vel_78
Time_Shift_2
Note_On_50_Vel_66
Time_Shift_65
Note_On_41_Vel_77
Time_Shift_5
Note_On_53_Vel_65
Time_Shift_6
Note_On_53_Vel_0
Time_Shift_62
Note_On_44_Vel_85
Time_Shift_61
Note_On_47_Vel_85
Time_Shift_69
Note_On_71_Vel_86
Time_Shift_2
Note_On_62_Vel_85
Time_Shift_4
Note_On_68_Vel_76
Time_Shift_1
Note_On_65_Vel_73
Time_Shift_12
Sustain_Off
Time_Shift_3
Note_On_47_Vel_0
Time_Shift_1
Note_On_41_Vel_0
Time_Shift_2
Note_On_48_Vel_0
Time_Shift_1
Note_On_38_Vel_0
Time_Shift_1
Note_On_36_Vel_0
Time_Shift_1
Note_On_44_Vel_0
Time_Shift_71
Sustain_On
Time_Shift_21
Note_On_53_Vel_76
Time_Shift_56
Note_On_71_Vel_0
Time_Shift_8
Note_On_65_Vel_0
Time_Shift_2
Note_On_56_Vel_84
Time_Shift_1
Note_On_71_Vel_91
Time_Shift_7
Note_On_65_Vel_79
Time_Shift_40
Note_On_59_Vel_86
Time_Shift_57
Note_On_62_Vel_0
Time_Shift_10
Note_On_62_Vel_88
Time_Shift_87
Note_On_72_Vel_90
Time_Shift_8
Note_On_60_Vel_91
Time_Shift_2
Note_On_63_Vel_81
Time_Shift_1
Note_On_67_Vel_68
Time_Shift_51
Note_On_53_Vel_0
Note_On_65_Vel_0
Time_Shift_1
Note_On_50_Vel_0
Time_Shift_1
Note_On_56_Vel_0
Time_Shift_1
Note_On_62_Vel_0
Sustain_Off
Note_On_59_Vel_0
Note_On_71_Vel_0
Time_Shift_1
Note_On_68_Vel_0
Time_Shift_83
Sustain_On
Time_Shift_26
Note_On_48_Vel_85
Time_Shift_28
Note_On_60_Vel_0
Time_Shift_161
Note_On_48_Vel_0
Time_Shift_6
Note_On_48_Vel_90
Time_Shift_1
Note_On_75_Vel_98
Time_Shift_1
Note_On_63_Vel_0
Time_Shift_3
Note_On_36_Vel_85
Time_Shift_1
Note_On_66_Vel_83
Time_Shift_1
Note_On_63_Vel_90
Note_On_69_Vel_79
Time_Shift_30
Note_On_72_Vel_0
Time_Shift_8
Note_On_48_Vel_0
Sustain_Off
Time_Shift_7
Note_On_36_Vel_0
Time_Shift_34
Note_On_67_Vel_0
Time_Shift_16
Note_On_63_Vel_0
Time_Shift_83
Note_On_48_Vel_94
Time_Shift_3
Note_On_36_Vel_85
Time_Shift_32
Note_On_48_Vel_0
Time_Shift_2
Note_On_36_Vel_0
Time_Shift_1
Note_On_69_Vel_0
Time_Shift_32
Note_On_66_Vel_0
Time_Shift_69
Note_On_75_Vel_0
Time_Shift_50
Note_On_78_Vel_98
Time_Shift_4
Note_On_48_Vel_82
Time_Shift_1
Note_On_66_Vel_82
Time_Shift_1
Note_On_69_Vel_80
Time_Shift_1
Note_On_36_Vel_76
Note_On_75_Vel_81
Time_Shift_97
Note_On_39_Vel_81
Time_Shift_15
Sustain_On
Time_Shift_55
Note_On_42_Vel_86
Time_Shift_89
Note_On_45_Vel_79
Time_Shift_71
Note_On_48_Vel_0
Time_Shift_6
Note_On_48_Vel_91
Time_Shift_25
Note_On_66_Vel_0
Note_On_69_Vel_0
Note_On_75_Vel_0
Note_On_78_Vel_0
Time_Shift_6
Note_On_78_Vel_103
Time_Shift_4
Note_On_75_Vel_82
Time_Shift_1
Note_On_66_Vel_103
Note_On_69_Vel_94
Time_Shift_72
Note_On_51_Vel_84
Time_Shift_66
Note_On_54_Vel_78
Time_Shift_20
Note_On_69_Vel_0
Note_On_78_Vel_0
Time_Shift_7
Note_On_78_Vel_105
Time_Shift_1
Note_On_66_Vel_0
Time_Shift_2
Note_On_69_Vel_91
Time_Shift_4
Note_On_66_Vel_107
Time_Shift_28
Note_On_59_Vel_72
Time_Shift_20
Note_On_57_Vel_72
Time_Shift_41
Note_On_60_Vel_85
Time_Shift_70
Note_On_78_Vel_0
Time_Shift_1
Sustain_Off
Time_Shift_6
Note_On_79_Vel_109
Time_Shift_1
Note_On_72_Vel_99
Time_Shift_1
Note_On_67_Vel_109
Note_On_63_Vel_97
Time_Shift_6
Note_On_71_Vel_96
Time_Shift_4
Sustain_On
Time_Shift_54
Note_On_60_Vel_0
Time_Shift_11
Note_On_60_Vel_83
Time_Shift_8
Note_On_36_Vel_0
Time_Shift_1
Note_On_79_Vel_0
Time_Shift_1
Note_On_67_Vel_0
Note_On_75_Vel_0
Note_On_72_Vel_0
Note_On_71_Vel_0
Note_On_69_Vel_0
Time_Shift_1
Note_On_42_Vel_0
Time_Shift_2
Note_On_63_Vel_0
Note_On_66_Vel_0
Time_Shift_1
Sustain_Off
Time_Shift_13
Note_On_45_Vel_0
Note_On_48_Vel_0
Time_Shift_8
Note_On_39_Vel_0
Note_On_51_Vel_0
Time_Shift_8
Note_On_54_Vel_0
Note_On_57_Vel_0
Note_On_59_Vel_0
Time_Shift_15
Note_On_60_Vel_0
Time_Shift_58
Note_On_43_Vel_84
Time_Shift_1
Note_On_55_Vel_83
Time_Shift_59
Note_On_55_Vel_0
Time_Shift_5
Note_On_43_Vel_0
Time_Shift_16
Note_On_60_Vel_79
Time_Shift_2
Note_On_48_Vel_72
Time_Shift_77
Note_On_56_Vel_77
Time_Shift_1
Note_On_44_Vel_70
Time_Shift_72
Note_On_53_Vel_77
Time_Shift_2
Note_On_41_Vel_74
Time_Shift_7
Note_On_48_Vel_0
Time_Shift_2
Note_On_56_Vel_0
Time_Shift_5
Note_On_60_Vel_0
Time_Shift_12
Note_On_44_Vel_0
Time_Shift_14
Note_On_53_Vel_0
Time_Shift_11
Note_On_41_Vel_0
Time_Shift_36
Note_On_60_Vel_73
Note_On_48_Vel_69
Time_Shift_40
Note_On_60_Vel_0
Time_Shift_33
Note_On_65_Vel_80
Time_Shift_3
Note_On_53_Vel_67
Time_Shift_5
Note_On_48_Vel_0
Time_Shift_50
Note_On_53_Vel_0
Time_Shift_9
Note_On_65_Vel_0
Time_Shift_14
Note_On_63_Vel_78
Time_Shift_1
Note_On_51_Vel_74
Time_Shift_67
Note_On_60_Vel_82
Time_Shift_17
Note_On_63_Vel_0
Time_Shift_2
Note_On_51_Vel_0
Time_Shift_11
Note_On_48_Vel_68
Time_Shift_45
Note_On_60_Vel_0
Time_Shift_9
Note_On_48_Vel_0
Time_Shift_6
Note_On_55_Vel_76
Time_Shift_3
Note_On_67_Vel_80
Time_Shift_29
Note_On_55_Vel_0
Time_Shift_49
Note_On_67_Vel_0
Time_Shift_5
Note_On_72_Vel_81
Time_Shift_2
Note_On_60_Vel_73
Time_Shift_44
Note_On_60_Vel_0
Time_Shift_32
Note_On_68_Vel_79
Time_Shift_1
Note_On_56_Vel_71
Time_Shift_2
Note_On_72_Vel_0
Time_Shift_59
Note_On_68_Vel_0
Time_Shift_6
Note_On_56_Vel_0
Time_Shift_4
Note_On_65_Vel_85
Time_Shift_13
Note_On_53_Vel_71
Time_Shift_50
Note_On_65_Vel_0
Time_Shift_1
Note_On_53_Vel_0
Time_Shift_18
Note_On_60_Vel_74
Note_On_72_Vel_82
Time_Shift_50
Note_On_60_Vel_0
Time_Shift_11
Note_On_72_Vel_0
Time_Shift_16
Note_On_65_Vel_71
Time_Shift_1
Note_On_77_Vel_76
Time_Shift_76
Note_On_77_Vel_0
Time_Shift_6
Note_On_75_Vel_85
Time_Shift_4
Note_On_63_Vel_80
Time_Shift_16
Note_On_65_Vel_0
Time_Shift_50
Note_On_63_Vel_0
Note_On_75_Vel_0
Time_Shift_5
Note_On_72_Vel_84
Time_Shift_18
Note_On_60_Vel_67
Time_Shift_54
Note_On_60_Vel_0
Time_Shift_2
Note_On_72_Vel_0
Time_Shift_8
Note_On_67_Vel_76
Time_Shift_3
Note_On_79_Vel_87
Time_Shift_40
Note_On_67_Vel_0
Time_Shift_39
Note_On_79_Vel_0
Time_Shift_8
Note_On_84_Vel_86
Time_Shift_2
Note_On_72_Vel_76
Time_Shift_10
Note_On_63_Vel_54
Time_Shift_57
Note_On_80_Vel_86
Time_Shift_5
Note_On_68_Vel_78
Time_Shift_3
Note_On_84_Vel_0
Time_Shift_1
Note_On_72_Vel_0
Time_Shift_33
Note_On_63_Vel_0
Time_Shift_28
Note_On_68_Vel_0
Time_Shift_1
Note_On_80_Vel_0
Time_Shift_11
Note_On_77_Vel_92
Time_Shift_10
Note_On_65_Vel_75
Time_Shift_47
Note_On_77_Vel_0
Time_Shift_14
Note_On_65_Vel_0
Time_Shift_8
Note_On_72_Vel_77
Time_Shift_1
Note_On_84_Vel_92
Time_Shift_1
Note_On_68_Vel_63
Time_Shift_44
Note_On_72_Vel_0
Time_Shift_4
Note_On_68_Vel_0
Time_Shift_24
Note_On_84_Vel_0
Time_Shift_7
Note_On_89_Vel_96
Time_Shift_2
Note_On_77_Vel_74
Time_Shift_69
Note_On_77_Vel_0
Time_Shift_8
Note_On_89_Vel_0
Time_Shift_2
Note_On_87_Vel_91
Time_Shift_6
Note_On_75_Vel_75
Time_Shift_70
Note_On_84_Vel_93
Note_On_87_Vel_0
Time_Shift_25
Note_On_72_Vel_69
Time_Shift_25
Note_On_75_Vel_0
Time_Shift_26
Note_On_72_Vel_0
Time_Shift_1
Note_On_84_Vel_0
Time_Shift_5
Note_On_91_Vel_96
Note_On_79_Vel_82
Time_Shift_80
Note_On_96_Vel_95
Time_Shift_2
Note_On_84_Vel_92
Time_Shift_32
Sustain_On
Time_Shift_16
Note_On_79_Vel_0
Time_Shift_28
Note_On_92_Vel_96
Time_Shift_3
Note_On_80_Vel_81
Time_Shift_15
Sustain_Off
Time_Shift_58
Note_On_89_Vel_102
Time_Shift_14
Note_On_77_Vel_83
Time_Shift_20
Sustain_On
Time_Shift_38
Note_On_96_Vel_0
Time_Shift_8
Note_On_84_Vel_0
Time_Shift_2
Note_On_96_Vel_99
Time_Shift_2
Note_On_84_Vel_86
Time_Shift_9
Note_On_80_Vel_0
Time_Shift_3
Note_On_77_Vel_0
Time_Shift_38
Note_On_91_Vel_0
Time_Shift_20
Note_On_101_Vel_101
Time_Shift_3
Note_On_89_Vel_0
Note_On_92_Vel_0
Time_Shift_10
Note_On_89_Vel_91
Note_On_92_Vel_70
Time_Shift_67
Note_On_84_Vel_0
Note_On_96_Vel_0
Time_Shift_2
Note_On_99_Vel_104
Time_Shift_6
Note_On_87_Vel_101
Time_Shift_1
Note_On_96_Vel_92
Time_Shift_1
Note_On_84_Vel_93
Time_Shift_77
Note_On_91_Vel_100
Time_Shift_89
Note_On_92_Vel_0
Note_On_96_Vel_0
Time_Shift_11
Note_On_96_Vel_95
Note_On_87_Vel_0
Note_On_92_Vel_98
Time_Shift_1
Note_On_80_Vel_95
Note_On_89_Vel_0
Time_Shift_4
Note_On_99_Vel_0
Time_Shift_3
Note_On_77_Vel_84
Time_Shift_5
Sustain_Off
Time_Shift_2
Note_On_72_Vel_79
Time_Shift_36
Sustain_On
Time_Shift_30
Note_On_101_Vel_0
Time_Shift_9
Note_On_101_Vel_100
Time_Shift_37
Note_On_84_Vel_0
Time_Shift_43
Note_On_99_Vel_103
Time_Shift_24
Note_On_79_Vel_86
Time_Shift_1
Note_On_75_Vel_85
Time_Shift_2
Note_On_72_Vel_0
Time_Shift_6
Note_On_72_Vel_63
Time_Shift_47
Note_On_91_Vel_0
Time_Shift_11
Note_On_91_Vel_98
Time_Shift_89
Note_On_77_Vel_0
Note_On_92_Vel_0
Note_On_96_Vel_0
Time_Shift_5
Note_On_96_Vel_92
Time_Shift_1
Note_On_75_Vel_0
Time_Shift_2
Note_On_72_Vel_0
Note_On_80_Vel_0
Time_Shift_1
Note_On_77_Vel_94
Time_Shift_2
Note_On_92_Vel_96
Time_Shift_1
Note_On_68_Vel_85
Time_Shift_1
Note_On_72_Vel_85
Sustain_Off
Time_Shift_33
Note_On_79_Vel_0
Time_Shift_23
Sustain_On
Time_Shift_16
Note_On_101_Vel_0
Time_Shift_8
Note_On_101_Vel_99
Time_Shift_76
Note_On_99_Vel_0
Time_Shift_4
Note_On_75_Vel_87
Note_On_67_Vel_86
Time_Shift_1
Note_On_99_Vel_100
Time_Shift_3
Note_On_72_Vel_0
Time_Shift_10
Note_On_72_Vel_75
Time_Shift_67
Note_On_91_Vel_0
Time_Shift_6
Note_On_91_Vel_93
Time_Shift_77
Note_On_72_Vel_0
Note_On_75_Vel_0
Time_Shift_1
Note_On_68_Vel_0
Time_Shift_2
Note_On_67_Vel_0
Note_On_77_Vel_0
Note_On_91_Vel_0
Time_Shift_6
Note_On_92_Vel_0
Note_On_96_Vel_0
Sustain_Off
Time_Shift_3
Note_On_68_Vel_94
Time_Shift_2
Note_On_92_Vel_98
Time_Shift_4
Note_On_96_Vel_91
Time_Shift_1
Note_On_60_Vel_84
Time_Shift_2
Note_On_65_Vel_76
Time_Shift_11
Note_On_99_Vel_0
Time_Shift_8
Note_On_101_Vel_0
Time_Shift_30
Sustain_On
Time_Shift_34
Note_On_101_Vel_96
Time_Shift_70
Note_On_99_Vel_103
Time_Shift_11
Note_On_96_Vel_0
Time_Shift_5
Note_On_96_Vel_72
Time_Shift_3
Note_On_60_Vel_0
Time_Shift_10
Note_On_67_Vel_78
Note_On_63_Vel_90
Time_Shift_1
Note_On_60_Vel_71
Time_Shift_64
Note_On_91_Vel_103
Time_Shift_79
Note_On_68_Vel_0
Time_Shift_7
Note_On_60_Vel_0
Note_On_65_Vel_0
Note_On_92_Vel_0
Note_On_96_Vel_0
Time_Shift_1
Note_On_68_Vel_93
Time_Shift_6
Note_On_92_Vel_103
Time_Shift_3
Note_On_96_Vel_89
Time_Shift_1
Note_On_65_Vel_91
Note_On_60_Vel_82
Time_Shift_2
Note_On_56_Vel_76
Time_Shift_3
Sustain_Off
Time_Shift_38
Sustain_On
Time_Shift_39
Note_On_101_Vel_0
Time_Shift_4
Note_On_101_Vel_101
Time_Shift_65
Note_On_91_Vel_0
Time_Shift_7
Note_On_99_Vel_0
Time_Shift_6
Note_On_55_Vel_84
Time_Shift_2
Note_On_60_Vel_0
Note_On_63_Vel_0
Note_On_96_Vel_0
Time_Shift_2
Note_On_99_Vel_103
Time_Shift_2
Note_On_60_Vel_77
Time_Shift_1
Note_On_63_Vel_96
Time_Shift_1
Note_On_96_Vel_94
Time_Shift_5
Sustain_Off
Time_Shift_11
Note_On_101_Vel_0
Time_Shift_4
Note_On_56_Vel_0
Time_Shift_2
Note_On_60_Vel_0
Time_Shift_3
Note_On_65_Vel_0
Note_On_68_Vel_0
Note_On_92_Vel_0
Time_Shift_11
Note_On_63_Vel_0
Time_Shift_2
Note_On_55_Vel_0
Time_Shift_17
Note_On_67_Vel_0
Time_Shift_24
Note_On_91_Vel_100
Time_Shift_23
Sustain_On
Time_Shift_70
Note_On_87_Vel_89
Time_Shift_2
Note_On_84_Vel_86
Time_Shift_78
Note_On_79_Vel_94
Time_Shift_83
Note_On_84_Vel_0
Time_Shift_1
Note_On_79_Vel_0
Time_Shift_6
Note_On_91_Vel_0
Time_Shift_1
Note_On_87_Vel_0
Time_Shift_1
Note_On_92_Vel_107
Time_Shift_3
Note_On_96_Vel_0
Note_On_99_Vel_0
Time_Shift_4
Note_On_62_Vel_99
Time_Shift_3
Note_On_53_Vel_98
Time_Shift_1
Note_On_60_Vel_97
Time_Shift_4
Sustain_Off
Time_Shift_65
Sustain_On
Time_Shift_4
Note_On_86_Vel_81
Time_Shift_12
Note_On_84_Vel_85
Time_Shift_76
Note_On_80_Vel_90
Time_Shift_90
Note_On_74_Vel_84
Time_Shift_5
Note_On_72_Vel_83
Time_Shift_64
Note_On_79_Vel_97
Time_Shift_1
Note_On_63_Vel_99
Time_Shift_1
Note_On_55_Vel_84
Time_Shift_1
Note_On_60_Vel_0
Time_Shift_4
Note_On_84_Vel_0
Note_On_86_Vel_0
Time_Shift_1
Note_On_74_Vel_0
Note_On_60_Vel_79
Time_Shift_2
Note_On_80_Vel_0
Time_Shift_8
Note_On_53_Vel_0
Time_Shift_4
Sustain_Off
Time_Shift_4
Note_On_92_Vel_0
Time_Shift_7
Note_On_62_Vel_0
Time_Shift_24
Note_On_60_Vel_0
Time_Shift_1
Note_On_63_Vel_0
Time_Shift_3
Note_On_55_Vel_0
Time_Shift_26
Note_On_72_Vel_0
Time_Shift_4
Note_On_75_Vel_94
Time_Shift_3
Note_On_72_Vel_87
Time_Shift_16
Sustain_On
Time_Shift_60
Note_On_67_Vel_87
Time_Shift_81
Note_On_63_Vel_95
Time_Shift_1
Note_On_60_Vel_84
Time_Shift_105
Note_On_55_Vel_101
Time_Shift_1
Note_On_71_Vel_100
Time_Shift_1
Note_On_43_Vel_98
Time_Shift_13
Note_On_72_Vel_0
Time_Shift_1
Note_On_75_Vel_0
Time_Shift_1
Note_On_67_Vel_0
Note_On_60_Vel_0
Time_Shift_1
Note_On_63_Vel_0
Time_Shift_2
Sustain_Off
Time_Shift_10
Note_On_79_Vel_0
Time_Shift_7
Note_On_55_Vel_0
Time_Shift_46
Sustain_On
Time_Shift_12
Note_On_68_Vel_93
Time_Shift_7
Note_On_65_Vel_82
Time_Shift_89
Note_On_71_Vel_0
Time_Shift_5
Note_On_62_Vel_97
Time_Shift_1
Note_On_71_Vel_78
Time_Shift_78
Note_On_65_Vel_0
Time_Shift_8
Note_On_65_Vel_89
Time_Shift_1
Note_On_67_Vel_82
Time_Shift_101
Note_On_72_Vel_101
Time_Shift_1
Note_On_60_Vel_99
Time_Shift_1
Note_On_63_Vel_106
Time_Shift_7
Note_On_48_Vel_103
Time_Shift_1
Note_On_36_Vel_99
Time_Shift_30
Sustain_Off
Time_Shift_5
Note_On_67_Vel_0
Time_Shift_2
Note_On_60_Vel_0
Note_On_71_Vel_0
Note_On_65_Vel_0
Time_Shift_1
Note_On_62_Vel_0
Note_On_48_Vel_0
Note_On_68_Vel_0
Time_Shift_1
Note_On_63_Vel_0
Time_Shift_3
Note_On_72_Vel_0
Time_Shift_7
Note_On_43_Vel_0
Time_Shift_37
Note_On_39_Vel_88
Time_Shift_17
Sustain_On
Time_Shift_66
Note_On_43_Vel_82
Time_Shift_85
Note_On_48_Vel_83
Time_Shift_71
Note_On_39_Vel_0
Time_Shift_8
Note_On_43_Vel_0
Time_Shift_1
Note_On_48_Vel_0
Time_Shift_11
Note_On_72_Vel_103
Time_Shift_1
Sustain_Off
Note_On_68_Vel_106
Time_Shift_1
Note_On_60_Vel_107
Time_Shift_2
Note_On_44_Vel_91
Time_Shift_1
Note_On_65_Vel_100
Time_Shift_22
Note_On_36_Vel_0
Time_Shift_31
Sustain_On
Time_Shift_49
Note_On_41_Vel_66
Time_Shift_70
Note_On_48_Vel_80
Time_Shift_89
Note_On_53_Vel_89
Time_Shift_95
Note_On_65_Vel_0
Time_Shift_1
Note_On_48_Vel_0
Note_On_53_Vel_0
Note_On_41_Vel_0
Note_On_68_Vel_0
Time_Shift_7
Sustain_Off
Time_Shift_3
Note_On_44_Vel_0
Time_Shift_8
Note_On_60_Vel_0
Note_On_72_Vel_0
Time_Shift_6
Note_On_60_Vel_105
Time_Shift_2
Note_On_63_Vel_104
Note_On_72_Vel_100
Time_Shift_2
Note_On_67_Vel_101
Time_Shift_1
Note_On_51_Vel_94
Time_Shift_43
Sustain_On
Time_Shift_74
Note_On_48_Vel_85
Time_Shift_61
Note_On_55_Vel_82
Time_Shift_88
Note_On_60_Vel_0
Note_On_63_Vel_0
Note_On_72_Vel_0
Time_Shift_4
Note_On_72_Vel_83
Time_Shift_2
Note_On_63_Vel_67
Note_On_60_Vel_78
Time_Shift_90
Note_On_56_Vel_70
Time_Shift_3
Note_On_68_Vel_74
Time_Shift_12
Note_On_55_Vel_0
Note_On_60_Vel_0
Note_On_67_Vel_0
Note_On_48_Vel_0
Time_Shift_1
Note_On_63_Vel_0
Note_On_72_Vel_0
Time_Shift_7
Sustain_Off
Time_Shift_3
Note_On_51_Vel_0
Time_Shift_54
Sustain_On
Time_Shift_10
Note_On_65_Vel_81
Time_Shift_1
Note_On_53_Vel_76
Time_Shift_70
Note_On_72_Vel_88
Time_Shift_1
Note_On_60_Vel_79
Time_Shift_72
Note_On_65_Vel_0
Time_Shift_5
Note_On_65_Vel_74
Time_Shift_4
Note_On_77_Vel_87
Time_Shift_78
Note_On_65_Vel_0
Note_On_56_Vel_0
Time_Shift_1
Note_On_53_Vel_0
Note_On_60_Vel_0
Note_On_72_Vel_0
Note_On_75_Vel_89
Time_Shift_2
Note_On_77_Vel_0
Note_On_68_Vel_0
Time_Shift_1
Note_On_63_Vel_74
Time_Shift_7
Sustain_Off
Time_Shift_55
Sustain_On
Time_Shift_11
Note_On_72_Vel_89
Time_Shift_16
Note_On_60_Vel_72
Time_Shift_20
Note_On_63_Vel_0
Time_Shift_41
Note_On_67_Vel_81
Time_Shift_3
Note_On_79_Vel_92
Time_Shift_78
Note_On_72_Vel_0
Time_Shift_8
Note_On_72_Vel_87
Note_On_84_Vel_89
Time_Shift_74
Note_On_80_Vel_93
Time_Shift_2
Note_On_68_Vel_78
Time_Shift_16
Note_On_75_Vel_0
Time_Shift_5
Note_On_75_Vel_53
Time_Shift_27
Note_On_67_Vel_0
Note_On_72_Vel_0
Time_Shift_2
Note_On_84_Vel_0
Sustain_Off
Note_On_60_Vel_0
Time_Shift_1
Note_On_79_Vel_0
Time_Shift_3
Note_On_68_Vel_0
Time_Shift_4
Note_On_80_Vel_0
Time_Shift_12
Note_On_75_Vel_0
Time_Shift_5
Note_On_77_Vel_95
Time_Shift_7
Note_On_65_Vel_80
Time_Shift_6
Note_On_72_Vel_65
Time_Shift_5
Note_On_72_Vel_0
Time_Shift_15
Sustain_On
Time_Shift_51
Note_On_84_Vel_88
Time_Shift_2
Note_On_72_Vel_80
Time_Shift_70
Note_On_77_Vel_0
Time_Shift_4
Note_On_89_Vel_100
Time_Shift_1
Note_On_77_Vel_79
Time_Shift_82
Note_On_87_Vel_96
Time_Shift_2
Note_On_75_Vel_77
Time_Shift_73
Note_On_84_Vel_0
Time_Shift_7
Note_On_84_Vel_95
Time_Shift_8
Note_On_72_Vel_0
Time_Shift_6
Note_On_72_Vel_78
Time_Shift_65
Note_On_79_Vel_85
Time_Shift_1
Note_On_91_Vel_98
Time_Shift_12
Note_On_87_Vel_0
Time_Shift_11
Note_On_87_Vel_60
Time_Shift_12
Sustain_Off
Time_Shift_39
Note_On_84_Vel_0
Time_Shift_8
Note_On_96_Vel_95
Time_Shift_3
Note_On_84_Vel_90
Time_Shift_35
Sustain_On
Time_Shift_33
Note_On_79_Vel_0
Time_Shift_9
Note_On_92_Vel_100
Time_Shift_4
Note_On_80_Vel_78
Time_Shift_15
Note_On_65_Vel_0
Time_Shift_8
Note_On_77_Vel_0
Time_Shift_46
Note_On_89_Vel_0
Time_Shift_9
Note_On_89_Vel_103
Time_Shift_6
Note_On_77_Vel_83
Time_Shift_8
Note_On_87_Vel_0
Time_Shift_54
Note_On_84_Vel_0
Note_On_96_Vel_0
Time_Shift_7
Note_On_96_Vel_98
Time_Shift_4
Note_On_84_Vel_94
Time_Shift_72
Note_On_101_Vel_104
Time_Shift_17
Note_On_89_Vel_0
Time_Shift_7
Note_On_89_Vel_98
Time_Shift_62
Note_On_91_Vel_0
Note_On_96_Vel_0
Time_Shift_6
Note_On_91_Vel_107
Time_Shift_4
Note_On_96_Vel_92
Time_Shift_1
Note_On_99_Vel_107
Time_Shift_73
Note_On_91_Vel_0
Time_Shift_6
Note_On_91_Vel_100
Time_Shift_34
Note_On_89_Vel_0
Time_Shift_9
Note_On_101_Vel_0
Time_Shift_1
Note_On_96_Vel_0
Time_Shift_1
Note_On_84_Vel_0
Time_Shift_3
Note_On_72_Vel_0
Time_Shift_8
Note_On_75_Vel_0
Time_Shift_7
Note_On_77_Vel_0
Time_Shift_16
Note_On_80_Vel_0
Time_Shift_18
Note_On_72_Vel_105
Time_Shift_1
Note_On_60_Vel_96
Note_On_90_Vel_96
Note_On_87_Vel_90
Time_Shift_21
Sustain_Off
Time_Shift_21
Note_On_91_Vel_0
Note_On_92_Vel_0
Time_Shift_8
Note_On_60_Vel_0
Time_Shift_23
Note_On_72_Vel_0
Time_Shift_10
Note_On_81_Vel_93
Time_Shift_44
Note_On_99_Vel_0
Time_Shift_50
Note_On_78_Vel_92
Note_On_60_Vel_107
Time_Shift_3
Note_On_48_Vel_106
Time_Shift_3
Note_On_75_Vel_93
Time_Shift_34
Note_On_48_Vel_0
Time_Shift_10
Note_On_81_Vel_0
Time_Shift_5
Note_On_78_Vel_0
Time_Shift_2
Note_On_90_Vel_0
Time_Shift_16
Note_On_60_Vel_0
Note_On_87_Vel_0
Time_Shift_14
Note_On_69_Vel_88
Time_Shift_32
Note_On_75_Vel_0
Time_Shift_30
Note_On_69_Vel_0
Time_Shift_33
Note_On_54_Vel_111
Time_Shift_2
Note_On_42_Vel_106
Note_On_63_Vel_86
Time_Shift_4
Note_On_69_Vel_89
Time_Shift_15
Sustain_On
Time_Shift_69
Note_On_69_Vel_0
Time_Shift_5
Note_On_69_Vel_69
Time_Shift_3
Note_On_57_Vel_98
Time_Shift_84
Note_On_63_Vel_0
Time_Shift_4
Note_On_55_Vel_103
Time_Shift_1
Note_On_43_Vel_94
Time_Shift_1
Note_On_67_Vel_90
Time_Shift_1
Note_On_63_Vel_92
Time_Shift_15
Sustain_Off
Time_Shift_9
Note_On_54_Vel_0
Time_Shift_1
Note_On_57_Vel_0
Time_Shift_2
Note_On_69_Vel_0
Time_Shift_26
Note_On_55_Vel_0
Time_Shift_2
Note_On_42_Vel_0
Time_Shift_9
Note_On_43_Vel_0
Time_Shift_37
Note_On_60_Vel_95
Time_Shift_23
Note_On_63_Vel_0
Time_Shift_59
Note_On_63_Vel_97
Time_Shift_56
Sustain_On
Time_Shift_47
Note_On_55_Vel_86
Time_Shift_97
Note_On_59_Vel_100
Note_On_43_Vel_105
Sustain_Off
Time_Shift_2
Note_On_31_Vel_98
Note_On_62_Vel_97
Time_Shift_39
Note_On_60_Vel_0
Time_Shift_23
Note_On_63_Vel_0
Note_On_67_Vel_0
Sustain_On
Time_Shift_36
Note_On_53_Vel_95
Time_Shift_25
Note_On_43_Vel_0
Time_Shift_11
Note_On_43_Vel_46
Time_Shift_35
Note_On_43_Vel_0
Time_Shift_8
Note_On_43_Vel_72
Time_Shift_15
Note_On_59_Vel_0
Time_Shift_9
Note_On_59_Vel_84
Time_Shift_68
Note_On_31_Vel_0
Note_On_53_Vel_0
Time_Shift_4
Note_On_53_Vel_90
Time_Shift_7
Note_On_31_Vel_69
Time_Shift_74
Sustain_Off
Time_Shift_4
Note_On_43_Vel_0
Note_On_53_Vel_0
Note_On_59_Vel_0
Time_Shift_1
Note_On_31_Vel_0
Time_Shift_2
Note_On_55_Vel_0
Time_Shift_8
Note_On_62_Vel_0
Time_Shift_10
Note_On_48_Vel_97
Time_Shift_1
Note_On_36_Vel_97
Time_Shift_66
Sustain_On
Time_Shift_25
Note_On_50_Vel_80
Time_Shift_67
Note_On_48_Vel_0
Time_Shift_9
Note_On_48_Vel_91
Time_Shift_88
Note_On_51_Vel_90
Time_Shift_21
Note_On_39_Vel_74
Time_Shift_74
Note_On_55_Vel_78
Time_Shift_4
Note_On_43_Vel_71
Time_Shift_73
Note_On_48_Vel_0
Time_Shift_9
Note_On_48_Vel_87
Time_Shift_2
Note_On_60_Vel_87
Time_Shift_73
Note_On_51_Vel_0
Time_Shift_3
Note_On_63_Vel_99
Time_Shift_2
Note_On_51_Vel_85
Time_Shift_80
Note_On_55_Vel_0
Time_Shift_8
Note_On_67_Vel_89
Time_Shift_1
Note_On_55_Vel_80
Time_Shift_75
Note_On_50_Vel_0
Note_On_60_Vel_0
Time_Shift_5
Note_On_60_Vel_80
Note_On_72_Vel_89
Time_Shift_72
Note_On_63_Vel_0
Time_Shift_10
Note_On_75_Vel_93
Time_Shift_1
Note_On_63_Vel_86
Time_Shift_66
Note_On_67_Vel_0
Time_Shift_10
Note_On_79_Vel_94
Time_Shift_1
Note_On_67_Vel_83
Time_Shift_73
Note_On_72_Vel_0
Time_Shift_7
Note_On_84_Vel_91
Time_Shift_1
Note_On_72_Vel_81
Time_Shift_69
Note_On_75_Vel_0
Time_Shift_6
Note_On_87_Vel_96
Time_Shift_3
Note_On_75_Vel_91
Time_Shift_68
Note_On_79_Vel_0
Time_Shift_10
Note_On_79_Vel_79
Note_On_91_Vel_102
Time_Shift_66
Note_On_84_Vel_0
Time_Shift_7
Note_On_96_Vel_96
Time_Shift_1
Note_On_87_Vel_0
Time_Shift_1
Note_On_84_Vel_95
Time_Shift_6
Note_On_87_Vel_76
Time_Shift_76
Note_On_101_Vel_105
Time_Shift_4
Note_On_89_Vel_92
Time_Shift_59
Note_On_87_Vel_0
Time_Shift_10
Note_On_99_Vel_104
Note_On_87_Vel_89
Time_Shift_67
Note_On_84_Vel_0
Note_On_96_Vel_0
Time_Shift_10
Note_On_96_Vel_96
Note_On_84_Vel_92
Time_Shift_74
Note_On_79_Vel_0
Note_On_91_Vel_0
Time_Shift_6
Note_On_91_Vel_89
Time_Shift_4
Note_On_79_Vel_80
Time_Shift_59
Note_On_87_Vel_0
Time_Shift_8
Note_On_75_Vel_0
Time_Shift_3
Note_On_87_Vel_96
Time_Shift_1
Note_On_75_Vel_77
Time_Shift_73
Note_On_72_Vel_0
Note_On_84_Vel_0
Time_Shift_8
Note_On_84_Vel_86
Note_On_72_Vel_81
Time_Shift_61
Note_On_89_Vel_0
Time_Shift_10
Note_On_89_Vel_103
Note_On_77_Vel_84
Time_Shift_67
Note_On_75_Vel_0
Note_On_87_Vel_0
Time_Shift_10
Note_On_87_Vel_93
Note_On_75_Vel_87
Time_Shift_67
Note_On_72_Vel_0
Note_On_84_Vel_0
Time_Shift_8
Note_On_84_Vel_88
Time_Shift_2
Note_On_72_Vel_81
Time_Shift_66
Note_On_79_Vel_0
Time_Shift_11
Note_On_79_Vel_87
Time_Shift_5
Note_On_67_Vel_0
Time_Shift_7
Note_On_67_Vel_72
Time_Shift_62
Note_On_63_Vel_0
Note_On_75_Vel_0
Time_Shift_6
Note_On_75_Vel_94
Time_Shift_3
Note_On_63_Vel_81
Time_Shift_68
Note_On_72_Vel_0
Time_Shift_7
Note_On_60_Vel_0
Time_Shift_2
Note_On_72_Vel_89
Time_Shift_9
Note_On_60_Vel_74
Time_Shift_59
Note_On_77_Vel_0
Time_Shift_10
Note_On_65_Vel_82
Note_On_77_Vel_93
Time_Shift_66
Note_On_63_Vel_0
Note_On_75_Vel_0
Time_Shift_10
Note_On_63_Vel_87
Note_On_75_Vel_89
Time_Shift_5
Sustain_Off
Time_Shift_4
Note_On_96_Vel_0
Note_On_60_Vel_0
Note_On_72_Vel_0
Note_On_89_Vel_0
Time_Shift_1
Note_On_84_Vel_0
Note_On_87_Vel_0
Note_On_48_Vel_0
Note_On_91_Vel_0
Note_On_99_Vel_0
Note_On_43_Vel_0
Note_On_67_Vel_0
Time_Shift_1
Note_On_39_Vel_0
Note_On_51_Vel_0
Note_On_77_Vel_0
Note_On_79_Vel_0
Time_Shift_1
Note_On_55_Vel_0
Time_Shift_17
Note_On_65_Vel_0
Note_On_101_Vel_0
Time_Shift_7
Note_On_36_Vel_0
Time_Shift_16
Note_On_63_Vel_0
Note_On_75_Vel_0
Time_Shift_22
Note_On_72_Vel_79
Time_Shift_2
Note_On_60_Vel_85
Time_Shift_51
Note_On_60_Vel_0
Time_Shift_4
Note_On_72_Vel_0
Time_Shift_18
Note_On_67_Vel_80
Time_Shift_7
Note_On_55_Vel_77
Time_Shift_33
Note_On_67_Vel_0
Time_Shift_14
Note_On_55_Vel_0
Time_Shift_18
Note_On_63_Vel_90
Time_Shift_2
Note_On_51_Vel_78
Time_Shift_31
Note_On_51_Vel_0
Time_Shift_1
Note_On_63_Vel_0
Time_Shift_61
Note_On_48_Vel_103
Time_Shift_2
Note_On_60_Vel_97
Time_Shift_6
Note_On_59_Vel_77
Time_Shift_20
Note_On_60_Vel_0
Time_Shift_5
Note_On_48_Vel_0
Time_Shift_33
Note_On_59_Vel_0
Time_Shift_115
Note_On_55_Vel_102
Time_Shift_2
Note_On_67_Vel_85
Time_Shift_1
Note_On_74_Vel_92
Note_On_62_Vel_94
Time_Shift_1
Note_On_43_Vel_89
Time_Shift_1
Note_On_71_Vel_77
Time_Shift_32
Note_On_67_Vel_0
Time_Shift_1
Note_On_55_Vel_0
Note_On_62_Vel_0
Time_Shift_5
Note_On_43_Vel_0
Time_Shift_2
Note_On_71_Vel_0
Time_Shift_2
Note_On_74_Vel_0
Time_Shift_126
Note_On_75_Vel_99
Note_On_67_Vel_93
Time_Shift_1
Note_On_60_Vel_102
Note_On_63_Vel_98
Note_On_72_Vel_93
Time_Shift_1
Note_On_48_Vel_98
Time_Shift_32
Note_On_60_Vel_0
Time_Shift_3
Note_On_48_Vel_0
Note_On_63_Vel_0
Time_Shift_1
Note_On_67_Vel_0
Time_Shift_8
Note_On_75_Vel_0
Note_On_72_Vel_0
Time_Shift_138
Note_On_79_Vel_103
Note_On_67_Vel_102
Time_Shift_1
Note_On_74_Vel_93
Note_On_71_Vel_92
Note_On_55_Vel_93
Time_Shift_6
Note_On_43_Vel_89
Time_Shift_25
Note_On_71_Vel_0
Time_Shift_1
Note_On_67_Vel_0
Time_Shift_3
Note_On_74_Vel_0
Time_Shift_2
Note_On_55_Vel_0
Time_Shift_2
Note_On_79_Vel_0
Time_Shift_3
Note_On_43_Vel_0
Time_Shift_174
Note_On_48_Vel_101
Time_Shift_1
Note_On_72_Vel_109
Time_Shift_1
Note_On_79_Vel_104
Time_Shift_1
Note_On_84_Vel_102
Time_Shift_2
Note_On_75_Vel_102
Note_On_36_Vel_93
Time_Shift_3
Note_On_39_Vel_73
Time_Shift_10
Sustain_On
Time_Shift_138
Note_On_39_Vel_0
Time_Shift_4
Note_On_36_Vel_0
Time_Shift_1
Note_On_48_Vel_0
Time_Shift_2
Note_On_75_Vel_0
Note_On_84_Vel_0
Time_Shift_1
Note_On_72_Vel_0
Note_On_79_Vel_0
Time_Shift_1
Sustain_Off
Time_Shift_226
Note_On_72_Vel_106
Time_Shift_1
Note_On_87_Vel_107
Time_Shift_3
Note_On_60_Vel_95
Note_On_91_Vel_107
Time_Shift_2
Note_On_96_Vel_101
Time_Shift_1
Note_On_67_Vel_94
Time_Shift_5
Note_On_63_Vel_95
Time_Shift_29
Sustain_On
Time_Shift_357
Note_On_96_Vel_0
Time_Shift_1
Note_On_67_Vel_0
Note_On_91_Vel_0
Note_On_60_Vel_0
Note_On_72_Vel_0
Time_Shift_1
Note_On_63_Vel_0
Time_Shift_6
Sustain_Off
Time_Shift_12
Note_On_87_Vel_0
Time_Shift_68
Note_On_60_Vel_104
Time_Shift_38
Note_On_60_Vel_0
Time_Shift_84
Note_On_60_Vel_105
Time_Shift_5
Note_On_48_Vel_108
Time_Shift_2
Note_On_36_Vel_100
Time_Shift_33
Sustain_On
Time_Shift_2319
Note_On_48_Vel_0
Time_Shift_12
Note_On_48_Vel_35
Time_Shift_7
Sustain_Off
Time_Shift_27
Note_On_36_Vel_0
Note_On_60_Vel_0
Time_Shift_24
Note_On_48_Vel_0
