Ticks_Per_Beat_384
Tempo_500000
Time_Shift_860
Note_On_69_Vel_101
Time_Shift_38
Sustain_On
Time_Shift_84
Note_On_69_Vel_0
Time_Shift_16
Sustain_Off
Time_Shift_85
Note_On_69_Vel_97
Time_Shift_14
Note_On_50_Vel_91
Time_Shift_2
Note_On_38_Vel_86
Time_Shift_1
Note_On_66_Vel_94
Time_Shift_5
Sustain_On
Time_Shift_200
Note_On_50_Vel_0
Note_On_66_Vel_0
Time_Shift_7
Note_On_62_Vel_85
Note_On_66_Vel_97
Time_Shift_3
Note_On_74_Vel_93
Note_On_78_Vel_90
Note_On_50_Vel_72
Time_Shift_2
Note_On_57_Vel_80
Time_Shift_3
Note_On_78_Vel_0
Time_Shift_60
Sustain_Off
Time_Shift_2
Note_On_66_Vel_0
Time_Shift_3
Note_On_78_Vel_107
Time_Shift_2
Note_On_66_Vel_104
Time_Shift_3
Note_On_50_Vel_0
Note_On_57_Vel_0
Note_On_62_Vel_0
Time_Shift_7
Note_On_50_Vel_86
Note_On_74_Vel_0
Time_Shift_2
Note_On_57_Vel_87
Time_Shift_1
Note_On_62_Vel_86
Time_Shift_1
Note_On_74_Vel_75
Time_Shift_19
Sustain_On
Time_Shift_231
Note_On_50_Vel_0
Time_Shift_7
Note_On_50_Vel_79
Time_Shift_2
Note_On_59_Vel_94
Time_Shift_1
Note_On_79_Vel_106
Time_Shift_1
Note_On_71_Vel_98
Time_Shift_1
Note_On_52_Vel_76
Time_Shift_2
Note_On_67_Vel_103
Time_Shift_3
Note_On_76_Vel_100
Time_Shift_253
Sustain_Off
Time_Shift_4
Note_On_59_Vel_0
Note_On_78_Vel_0
Note_On_71_Vel_0
Time_Shift_2
Note_On_52_Vel_0
Note_On_57_Vel_0
Note_On_69_Vel_0
Note_On_76_Vel_0
Note_On_74_Vel_0
Note_On_66_Vel_0
Note_On_50_Vel_0
Time_Shift_2
Note_On_79_Vel_0
Time_Shift_1
Note_On_67_Vel_0
Time_Shift_1
Note_On_61_Vel_93
Note_On_81_Vel_101
Note_On_57_Vel_78
Time_Shift_1
Note_On_49_Vel_84
Time_Shift_1
Note_On_52_Vel_78
Time_Shift_2
Note_On_38_Vel_0
Note_On_62_Vel_0
Time_Shift_1
Note_On_69_Vel_95
Time_Shift_2
Note_On_76_Vel_93
Time_Shift_30
Note_On_69_Vel_0
Time_Shift_2
Note_On_61_Vel_0
Time_Shift_1
Note_On_81_Vel_0
Time_Shift_1
Note_On_52_Vel_0
Time_Shift_9
Note_On_49_Vel_0
Note_On_57_Vel_0
Time_Shift_8
Note_On_76_Vel_0
Time_Shift_249
Note_On_81_Vel_107
Time_Shift_1
Note_On_61_Vel_94
Note_On_57_Vel_96
Time_Shift_1
Note_On_49_Vel_89
Time_Shift_1
Note_On_69_Vel_100
Time_Shift_3
Note_On_76_Vel_102
Note_On_52_Vel_77
Time_Shift_29
Sustain_On
Time_Shift_318
Note_On_76_Vel_0
Note_On_81_Vel_0
Time_Shift_3
Sustain_Off
Time_Shift_1
Note_On_57_Vel_0
Time_Shift_8
Note_On_49_Vel_0
Note_On_52_Vel_0
Note_On_61_Vel_0
Time_Shift_8
Note_On_69_Vel_0
Time_Shift_37
Note_On_48_Vel_67
Time_Shift_6
Note_On_69_Vel_71
Time_Shift_3
Note_On_78_Vel_78
Time_Shift_3
Note_On_54_Vel_57
Time_Shift_1
Note_On_57_Vel_57
Time_Shift_4
Note_On_75_Vel_72
Time_Shift_30
Sustain_On
Time_Shift_214
Note_On_48_Vel_0
Sustain_Off
Time_Shift_1
Note_On_69_Vel_0
Time_Shift_20
Note_On_86_Vel_96
Time_Shift_3
Note_On_57_Vel_0
Note_On_78_Vel_0
Sustain_On
Time_Shift_4
Note_On_81_Vel_79
Time_Shift_1
Note_On_74_Vel_85
Time_Shift_1
Note_On_78_Vel_81
Time_Shift_2
Note_On_54_Vel_0
Time_Shift_1
Note_On_57_Vel_79
Time_Shift_3
Note_On_47_Vel_72
Note_On_54_Vel_70
Time_Shift_2
Note_On_50_Vel_67
Time_Shift_171
Note_On_86_Vel_0
Time_Shift_4
Note_On_86_Vel_93
Time_Shift_13
Note_On_50_Vel_0
Note_On_47_Vel_0
Note_On_54_Vel_0
Time_Shift_1
Note_On_81_Vel_0
Sustain_Off
Note_On_74_Vel_0
Note_On_57_Vel_0
Note_On_78_Vel_0
Time_Shift_5
Note_On_75_Vel_0
Time_Shift_23
Note_On_86_Vel_0
Time_Shift_26
Note_On_59_Vel_89
Time_Shift_3
Note_On_55_Vel_80
Time_Shift_3
Note_On_86_Vel_94
Note_On_47_Vel_74
Time_Shift_2
Note_On_79_Vel_92
Note_On_50_Vel_70
Time_Shift_4
Note_On_74_Vel_98
Time_Shift_31
Sustain_On
Time_Shift_192
Note_On_55_Vel_0
Note_On_59_Vel_0
Note_On_74_Vel_0
Time_Shift_5
Note_On_67_Vel_87
Note_On_74_Vel_95
Time_Shift_2
Note_On_47_Vel_0
Note_On_50_Vel_0
Time_Shift_1
Note_On_59_Vel_88
Time_Shift_3
Note_On_55_Vel_84
Time_Shift_5
Note_On_50_Vel_73
Time_Shift_1
Note_On_47_Vel_78
Time_Shift_49
Sustain_Off
Time_Shift_7
Note_On_55_Vel_0
Time_Shift_1
Note_On_47_Vel_0
Note_On_86_Vel_0
Note_On_50_Vel_0
Note_On_79_Vel_0
Time_Shift_1
Note_On_67_Vel_0
Note_On_59_Vel_0
Note_On_74_Vel_0
Time_Shift_43
Note_On_76_Vel_100
Time_Shift_45
Note_On_76_Vel_0
Time_Shift_78
Note_On_58_Vel_104
Time_Shift_2
Note_On_54_Vel_92
Time_Shift_1
Note_On_46_Vel_94
Note_On_78_Vel_105
Time_Shift_1
Note_On_49_Vel_77
Note_On_66_Vel_109
Note_On_73_Vel_101
Time_Shift_26
Note_On_58_Vel_0
Time_Shift_3
Note_On_54_Vel_0
Note_On_66_Vel_0
Time_Shift_1
Note_On_73_Vel_0
Time_Shift_6
Note_On_49_Vel_0
Time_Shift_4
Note_On_46_Vel_0
Note_On_78_Vel_0
Time_Shift_266
Note_On_58_Vel_106
Time_Shift_3
Note_On_54_Vel_89
Time_Shift_2
Note_On_49_Vel_84
Time_Shift_1
Note_On_46_Vel_97
Time_Shift_1
Note_On_78_Vel_105
Time_Shift_1
Note_On_66_Vel_109
Time_Shift_2
Note_On_73_Vel_99
Time_Shift_30
Sustain_On
Time_Shift_607
Note_On_58_Vel_0
Time_Shift_1
Note_On_78_Vel_0
Note_On_49_Vel_0
Time_Shift_1
Note_On_66_Vel_0
Note_On_46_Vel_0
Note_On_54_Vel_0
Time_Shift_2
Sustain_Off
Time_Shift_11
Note_On_73_Vel_0
Time_Shift_4
Note_On_81_Vel_102
Note_On_76_Vel_97
Time_Shift_1
Note_On_52_Vel_95
Note_On_57_Vel_99
Time_Shift_4
Note_On_73_Vel_106
Time_Shift_2
Note_On_67_Vel_94
Note_On_45_Vel_94
Time_Shift_97
Sustain_On
Time_Shift_269
Note_On_45_Vel_0
Time_Shift_7
Note_On_57_Vel_0
Note_On_67_Vel_0
Time_Shift_3
Note_On_79_Vel_102
Time_Shift_2
Note_On_67_Vel_90
Time_Shift_3
Note_On_57_Vel_83
Time_Shift_246
Note_On_67_Vel_0
Time_Shift_7
Note_On_57_Vel_0
Time_Shift_3
Note_On_67_Vel_73
Time_Shift_1
Note_On_57_Vel_80
Time_Shift_2
Note_On_69_Vel_74
Time_Shift_3
Note_On_61_Vel_69
Note_On_78_Vel_92
Time_Shift_99
Note_On_76_Vel_0
Time_Shift_10
Note_On_76_Vel_99
Time_Shift_82
Note_On_57_Vel_0
Time_Shift_8
Note_On_61_Vel_0
Note_On_75_Vel_98
Time_Shift_3
Note_On_57_Vel_69
Note_On_73_Vel_0
Time_Shift_1
Note_On_81_Vel_0
Sustain_Off
Note_On_52_Vel_0
Note_On_78_Vel_0
Time_Shift_1
Note_On_79_Vel_0
Note_On_66_Vel_76
Note_On_67_Vel_0
Time_Shift_1
Note_On_76_Vel_0
Time_Shift_2
Note_On_61_Vel_69
Time_Shift_22
Note_On_69_Vel_0
Time_Shift_5
Note_On_66_Vel_0
Time_Shift_8
Note_On_75_Vel_0
Time_Shift_10
Note_On_57_Vel_0
Time_Shift_8
Note_On_61_Vel_0
Time_Shift_143
Note_On_69_Vel_80
Time_Shift_22
Note_On_66_Vel_59
Note_On_60_Vel_51
Time_Shift_1
Note_On_57_Vel_68
Time_Shift_16
Note_On_69_Vel_0
Time_Shift_6
Note_On_75_Vel_97
Time_Shift_16
Note_On_66_Vel_0
Time_Shift_3
Note_On_60_Vel_0
Time_Shift_8
Note_On_57_Vel_0
Time_Shift_62
Sustain_On
Time_Shift_143
Note_On_76_Vel_104
Time_Shift_5
Note_On_67_Vel_91
Time_Shift_1
Note_On_57_Vel_89
Time_Shift_2
Note_On_69_Vel_92
Time_Shift_1
Note_On_61_Vel_79
Time_Shift_201
Note_On_75_Vel_0
Time_Shift_8
Note_On_67_Vel_0
Note_On_69_Vel_0
Time_Shift_5
Note_On_81_Vel_99
Time_Shift_2
Note_On_57_Vel_0
Note_On_61_Vel_0
Time_Shift_2
Note_On_69_Vel_93
Time_Shift_2
Note_On_67_Vel_88
Note_On_57_Vel_88
Time_Shift_1
Note_On_61_Vel_74
Time_Shift_132
Note_On_83_Vel_89
Time_Shift_55
Note_On_57_Vel_0
Note_On_61_Vel_0
Note_On_67_Vel_0
Time_Shift_1
Sustain_Off
Time_Shift_3
Note_On_79_Vel_91
Note_On_76_Vel_0
Time_Shift_8
Note_On_67_Vel_83
Note_On_61_Vel_64
Note_On_57_Vel_72
Time_Shift_11
Sustain_On
Time_Shift_32
Note_On_79_Vel_0
Time_Shift_7
Note_On_81_Vel_0
Time_Shift_5
Note_On_81_Vel_88
Time_Shift_2
Note_On_83_Vel_0
Time_Shift_8
Note_On_67_Vel_0
Sustain_Off
Time_Shift_8
Note_On_57_Vel_0
Note_On_61_Vel_0
Time_Shift_46
Note_On_69_Vel_0
Time_Shift_12
Note_On_79_Vel_81
Time_Shift_21
Note_On_81_Vel_0
Time_Shift_56
Note_On_67_Vel_76
Time_Shift_5
Note_On_57_Vel_73
Time_Shift_3
Note_On_78_Vel_83
Note_On_61_Vel_54
Time_Shift_14
Note_On_79_Vel_0
Time_Shift_15
Note_On_67_Vel_0
Time_Shift_1
Note_On_57_Vel_0
Time_Shift_4
Note_On_61_Vel_0
Time_Shift_18
Note_On_78_Vel_0
Time_Shift_31
Note_On_57_Vel_65
Time_Shift_3
Note_On_76_Vel_84
Time_Shift_47
Note_On_76_Vel_0
Time_Shift_31
Note_On_57_Vel_0
Time_Shift_11
Note_On_57_Vel_73
Time_Shift_1
Note_On_75_Vel_92
Time_Shift_6
Note_On_66_Vel_73
Time_Shift_2
Note_On_60_Vel_55
Time_Shift_21
Note_On_75_Vel_0
Note_On_57_Vel_0
Time_Shift_20
Note_On_66_Vel_0
Time_Shift_46
Note_On_60_Vel_0
Time_Shift_90
Note_On_69_Vel_82
Time_Shift_47
Note_On_60_Vel_60
Time_Shift_2
Note_On_66_Vel_80
Time_Shift_1
Note_On_57_Vel_71
Time_Shift_3
Note_On_75_Vel_103
Time_Shift_34
Sustain_On
Time_Shift_251
Note_On_67_Vel_81
Note_On_61_Vel_65
Time_Shift_3
Note_On_57_Vel_0
Note_On_69_Vel_0
Note_On_76_Vel_98
Time_Shift_5
Note_On_57_Vel_61
Time_Shift_2
Note_On_60_Vel_0
Time_Shift_69
Note_On_66_Vel_0
Time_Shift_172
Note_On_57_Vel_0
Time_Shift_4
Note_On_61_Vel_0
Note_On_67_Vel_0
Time_Shift_9
Note_On_75_Vel_0
Time_Shift_8
Sustain_Off
Time_Shift_102
Note_On_66_Vel_57
Time_Shift_1
Note_On_58_Vel_61
Time_Shift_16
Note_On_79_Vel_82
Time_Shift_1
Note_On_67_Vel_61
Time_Shift_14
Note_On_66_Vel_0
Time_Shift_7
Note_On_76_Vel_0
Time_Shift_6
Note_On_58_Vel_0
Time_Shift_9
Note_On_79_Vel_0
Time_Shift_5
Note_On_67_Vel_0
Time_Shift_116
Note_On_78_Vel_73
Time_Shift_45
Note_On_78_Vel_0
Time_Shift_31
Note_On_58_Vel_64
Time_Shift_2
Note_On_66_Vel_67
Time_Shift_8
Note_On_64_Vel_56
Note_On_73_Vel_88
Time_Shift_13
Note_On_66_Vel_0
Time_Shift_6
Note_On_58_Vel_0
Time_Shift_11
Note_On_74_Vel_70
Time_Shift_13
Note_On_64_Vel_0
Note_On_73_Vel_0
Time_Shift_23
Note_On_74_Vel_0
Time_Shift_38
Note_On_73_Vel_81
Time_Shift_37
Note_On_73_Vel_0
Time_Shift_54
Note_On_72_Vel_75
Time_Shift_9
Note_On_58_Vel_63
Time_Shift_13
Note_On_64_Vel_45
Time_Shift_3
Note_On_66_Vel_57
Time_Shift_6
Note_On_72_Vel_0
Time_Shift_15
Note_On_66_Vel_0
Time_Shift_7
Note_On_58_Vel_0
Time_Shift_45
Note_On_73_Vel_78
Time_Shift_12
Note_On_64_Vel_0
Time_Shift_20
Note_On_73_Vel_0
Time_Shift_83
Note_On_76_Vel_75
Time_Shift_9
Note_On_66_Vel_56
Time_Shift_1
Note_On_62_Vel_49
Time_Shift_3
Note_On_59_Vel_51
Time_Shift_21
Note_On_66_Vel_0
Time_Shift_2
Note_On_76_Vel_0
Time_Shift_3
Note_On_62_Vel_0
Time_Shift_2
Note_On_59_Vel_0
Time_Shift_153
Note_On_74_Vel_76
Time_Shift_29
Note_On_74_Vel_0
Time_Shift_31
Note_On_71_Vel_79
Time_Shift_2
Note_On_62_Vel_49
Time_Shift_2
Note_On_66_Vel_60
Time_Shift_1
Note_On_59_Vel_44
Time_Shift_28
Note_On_66_Vel_0
Time_Shift_4
Note_On_62_Vel_0
Time_Shift_7
Note_On_59_Vel_0
Time_Shift_127
Note_On_71_Vel_0
Time_Shift_77
Note_On_65_Vel_47
Time_Shift_5
Note_On_56_Vel_63
Time_Shift_5
Note_On_62_Vel_42
Time_Shift_7
Note_On_73_Vel_84
Time_Shift_19
Note_On_65_Vel_0
Time_Shift_8
Note_On_56_Vel_0
Note_On_62_Vel_0
Time_Shift_46
Note_On_71_Vel_77
Time_Shift_22
Note_On_73_Vel_0
Time_Shift_13
Note_On_71_Vel_0
Time_Shift_30
Note_On_69_Vel_76
Time_Shift_27
Note_On_71_Vel_77
Time_Shift_22
Note_On_62_Vel_51
Time_Shift_28
Note_On_69_Vel_0
Time_Shift_5
Note_On_57_Vel_67
Time_Shift_6
Note_On_69_Vel_82
Time_Shift_4
Note_On_64_Vel_59
Time_Shift_3
Note_On_71_Vel_0
Time_Shift_16
Note_On_62_Vel_0
Time_Shift_1
Note_On_57_Vel_0
Time_Shift_57
Note_On_69_Vel_0
Time_Shift_23
Note_On_64_Vel_0
Time_Shift_26
Note_On_68_Vel_82
Time_Shift_56
Note_On_68_Vel_0
Time_Shift_38
Note_On_57_Vel_63
Note_On_69_Vel_81
Time_Shift_3
Note_On_64_Vel_55
Time_Shift_1
Note_On_61_Vel_56
Time_Shift_23
Note_On_57_Vel_0
Time_Shift_3
Note_On_64_Vel_0
Note_On_61_Vel_0
Time_Shift_5
Note_On_69_Vel_0
Time_Shift_80
Note_On_83_Vel_92
Time_Shift_69
Note_On_67_Vel_81
Time_Shift_6
Note_On_57_Vel_68
Note_On_61_Vel_61
Time_Shift_24
Note_On_81_Vel_92
Time_Shift_5
Note_On_67_Vel_0
Time_Shift_2
Note_On_61_Vel_0
Time_Shift_1
Note_On_57_Vel_0
Time_Shift_89
Note_On_76_Vel_87
Time_Shift_20
Note_On_81_Vel_0
Time_Shift_25
Note_On_83_Vel_0
Time_Shift_11
Note_On_76_Vel_0
Time_Shift_56
Note_On_50_Vel_61
Time_Shift_5
Note_On_79_Vel_85
Time_Shift_43
Sustain_On
Time_Shift_76
Note_On_76_Vel_53
Time_Shift_16
Note_On_79_Vel_0
Time_Shift_6
Note_On_79_Vel_61
Time_Shift_79
Sustain_Off
Time_Shift_14
Note_On_50_Vel_0
Time_Shift_2
Note_On_79_Vel_0
Time_Shift_2
Note_On_76_Vel_0
Time_Shift_12
Note_On_78_Vel_76
Time_Shift_44
Note_On_78_Vel_0
Time_Shift_29
Note_On_66_Vel_71
Time_Shift_1
Note_On_57_Vel_66
Time_Shift_2
Note_On_74_Vel_80
Time_Shift_17
Sustain_On
Time_Shift_249
Note_On_66_Vel_0
Note_On_78_Vel_94
Note_On_74_Vel_0
Time_Shift_1
Note_On_57_Vel_0
Time_Shift_9
Sustain_Off
Time_Shift_77
Note_On_78_Vel_0
Time_Shift_40
Sustain_On
Note_On_83_Vel_89
Time_Shift_69
Note_On_45_Vel_88
Time_Shift_1
Note_On_57_Vel_99
Time_Shift_1
Note_On_81_Vel_98
Time_Shift_282
Note_On_57_Vel_0
Time_Shift_3
Note_On_76_Vel_107
Time_Shift_6
Note_On_67_Vel_90
Time_Shift_2
Note_On_57_Vel_88
Time_Shift_1
Note_On_61_Vel_70
Time_Shift_3
Sustain_Off
Time_Shift_24
Sustain_On
Time_Shift_199
Note_On_57_Vel_0
Note_On_67_Vel_0
Time_Shift_5
Note_On_67_Vel_81
Time_Shift_3
Note_On_61_Vel_0
Time_Shift_3
Note_On_57_Vel_80
Time_Shift_1
Note_On_61_Vel_62
Note_On_78_Vel_93
Time_Shift_16
Sustain_Off
Time_Shift_18
Note_On_83_Vel_0
Time_Shift_77
Note_On_76_Vel_0
Time_Shift_8
Note_On_76_Vel_95
Time_Shift_31
Note_On_45_Vel_0
Time_Shift_1
Note_On_67_Vel_0
Time_Shift_8
Note_On_78_Vel_0
Time_Shift_29
Note_On_57_Vel_0
Note_On_61_Vel_0
Time_Shift_4
Note_On_75_Vel_96
Time_Shift_2
Note_On_66_Vel_82
Note_On_57_Vel_75
Time_Shift_2
Note_On_60_Vel_65
Time_Shift_2
Note_On_76_Vel_0
Time_Shift_5
Note_On_81_Vel_0
Time_Shift_35
Note_On_75_Vel_0
Time_Shift_4
Note_On_66_Vel_0
Time_Shift_8
Note_On_57_Vel_0
Time_Shift_38
Note_On_60_Vel_0
Time_Shift_109
Note_On_69_Vel_78
Time_Shift_30
Note_On_66_Vel_77
Time_Shift_7
Note_On_57_Vel_78
Time_Shift_2
Note_On_60_Vel_58
Time_Shift_7
Note_On_75_Vel_101
Time_Shift_14
Sustain_On
Time_Shift_215
Note_On_57_Vel_0
Time_Shift_5
Note_On_76_Vel_105
Time_Shift_3
Note_On_69_Vel_0
Note_On_67_Vel_92
Time_Shift_3
Note_On_57_Vel_90
Time_Shift_1
Note_On_61_Vel_80
Note_On_69_Vel_95
Time_Shift_211
Note_On_69_Vel_0
Time_Shift_6
Note_On_81_Vel_98
Time_Shift_1
Note_On_57_Vel_0
Note_On_61_Vel_0
Time_Shift_4
Note_On_69_Vel_95
Time_Shift_5
Note_On_57_Vel_87
Time_Shift_2
Note_On_61_Vel_74
Time_Shift_8
Note_On_75_Vel_0
Note_On_76_Vel_0
Time_Shift_1
Note_On_60_Vel_0
Note_On_66_Vel_0
Time_Shift_5
Note_On_67_Vel_0
Time_Shift_5
Sustain_Off
Time_Shift_24
Note_On_61_Vel_0
Time_Shift_8
Note_On_57_Vel_0
Time_Shift_61
Note_On_69_Vel_0
Time_Shift_26
Note_On_83_Vel_84
Time_Shift_7
Note_On_81_Vel_0
Time_Shift_25
Note_On_83_Vel_0
Time_Shift_18
Note_On_79_Vel_95
Time_Shift_5
Note_On_61_Vel_64
Time_Shift_1
Note_On_67_Vel_90
Time_Shift_4
Note_On_57_Vel_72
Time_Shift_28
Note_On_61_Vel_0
Time_Shift_2
Note_On_67_Vel_0
Time_Shift_9
Note_On_79_Vel_0
Time_Shift_11
Note_On_81_Vel_88
Time_Shift_10
Note_On_57_Vel_0
Time_Shift_69
Note_On_79_Vel_88
Time_Shift_12
Note_On_81_Vel_0
Time_Shift_56
Note_On_67_Vel_79
Time_Shift_5
Note_On_57_Vel_72
Time_Shift_1
Note_On_61_Vel_57
Time_Shift_18
Note_On_78_Vel_82
Time_Shift_13
Note_On_67_Vel_0
Note_On_79_Vel_0
Time_Shift_1
Note_On_57_Vel_0
Time_Shift_5
Note_On_61_Vel_0
Time_Shift_47
Note_On_78_Vel_0
Time_Shift_15
Note_On_76_Vel_84
Time_Shift_32
Note_On_76_Vel_0
Time_Shift_58
Note_On_57_Vel_73
Time_Shift_1
Note_On_75_Vel_93
Time_Shift_2
Note_On_66_Vel_80
Time_Shift_1
Note_On_60_Vel_64
Time_Shift_22
Note_On_66_Vel_0
Time_Shift_1
Note_On_75_Vel_0
Time_Shift_7
Note_On_60_Vel_0
Time_Shift_3
Note_On_57_Vel_0
Time_Shift_141
Note_On_69_Vel_83
Time_Shift_31
Note_On_57_Vel_69
Note_On_66_Vel_64
Time_Shift_2
Note_On_60_Vel_41
Time_Shift_11
Note_On_75_Vel_101
Time_Shift_15
Note_On_66_Vel_0
Time_Shift_15
Note_On_69_Vel_0
Time_Shift_7
Note_On_57_Vel_0
Time_Shift_8
Note_On_60_Vel_0
Time_Shift_226
Note_On_57_Vel_71
Time_Shift_6
Note_On_67_Vel_86
Time_Shift_2
Note_On_61_Vel_74
Note_On_76_Vel_103
Time_Shift_43
Sustain_On
Time_Shift_92
Note_On_57_Vel_0
Time_Shift_218
Note_On_66_Vel_70
Time_Shift_1
Note_On_58_Vel_72
Time_Shift_1
Note_On_64_Vel_49
Time_Shift_5
Note_On_79_Vel_86
Time_Shift_11
Note_On_76_Vel_0
Time_Shift_2
Note_On_75_Vel_0
Time_Shift_1
Sustain_Off
Time_Shift_12
Note_On_66_Vel_0
Time_Shift_2
Note_On_61_Vel_0
Time_Shift_2
Note_On_79_Vel_0
Time_Shift_1
Note_On_58_Vel_0
Time_Shift_13
Note_On_64_Vel_0
Note_On_67_Vel_0
Time_Shift_112
Note_On_78_Vel_82
Time_Shift_31
Note_On_78_Vel_0
Time_Shift_57
Note_On_66_Vel_70
Time_Shift_3
Note_On_64_Vel_51
Note_On_73_Vel_93
Note_On_58_Vel_64
Time_Shift_24
Note_On_73_Vel_0
Note_On_66_Vel_0
Time_Shift_1
Note_On_64_Vel_0
Time_Shift_4
Note_On_58_Vel_0
Time_Shift_9
Note_On_74_Vel_77
Time_Shift_63
Note_On_74_Vel_0
Time_Shift_10
Note_On_73_Vel_86
Time_Shift_35
Note_On_73_Vel_0
Time_Shift_51
Note_On_58_Vel_63
Time_Shift_1
Note_On_72_Vel_81
Time_Shift_7
Note_On_64_Vel_45
Time_Shift_10
Note_On_66_Vel_51
Time_Shift_11
Note_On_72_Vel_0
Time_Shift_14
Note_On_58_Vel_0
Time_Shift_17
Note_On_66_Vel_0
Time_Shift_23
Note_On_64_Vel_0
Time_Shift_2
Note_On_73_Vel_78
Time_Shift_38
Note_On_73_Vel_0
Time_Shift_95
Note_On_76_Vel_82
Time_Shift_1
Note_On_66_Vel_67
Note_On_59_Vel_57
Time_Shift_3
Note_On_62_Vel_50
Time_Shift_27
Note_On_76_Vel_0
Time_Shift_2
Note_On_59_Vel_0
Time_Shift_4
Note_On_62_Vel_0
Time_Shift_13
Note_On_66_Vel_0
Time_Shift_148
Note_On_74_Vel_78
Time_Shift_33
Note_On_74_Vel_0
Time_Shift_16
Note_On_66_Vel_59
Time_Shift_1
Note_On_71_Vel_86
Time_Shift_2
Note_On_59_Vel_46
Time_Shift_2
Note_On_62_Vel_48
Time_Shift_24
Note_On_66_Vel_0
Time_Shift_7
Note_On_62_Vel_0
Time_Shift_74
Note_On_59_Vel_0
Time_Shift_55
Note_On_71_Vel_0
Time_Shift_79
Note_On_65_Vel_50
Time_Shift_9
Note_On_56_Vel_63
Time_Shift_4
Note_On_73_Vel_81
Time_Shift_3
Note_On_62_Vel_38
Time_Shift_24
Note_On_65_Vel_0
Time_Shift_11
Note_On_56_Vel_0
Time_Shift_4
Note_On_62_Vel_0
Time_Shift_30
Note_On_71_Vel_70
Time_Shift_24
Note_On_73_Vel_0
Time_Shift_12
Note_On_71_Vel_0
Time_Shift_24
Note_On_69_Vel_79
Time_Shift_31
Note_On_69_Vel_0
Time_Shift_3
Note_On_71_Vel_79
Time_Shift_27
Note_On_62_Vel_59
Time_Shift_11
Note_On_57_Vel_64
Time_Shift_6
Note_On_64_Vel_58
Time_Shift_20
Note_On_71_Vel_0
Time_Shift_2
Note_On_69_Vel_74
Time_Shift_4
Note_On_62_Vel_0
Time_Shift_10
Note_On_57_Vel_0
Time_Shift_18
Note_On_69_Vel_0
Time_Shift_50
Note_On_64_Vel_0
Time_Shift_28
Note_On_68_Vel_87
Time_Shift_60
Note_On_68_Vel_0
Time_Shift_40
Note_On_69_Vel_84
Time_Shift_8
Note_On_61_Vel_69
Time_Shift_1
Note_On_57_Vel_70
Time_Shift_4
Note_On_64_Vel_62
Time_Shift_18
Note_On_69_Vel_0
Time_Shift_1
Note_On_57_Vel_0
Time_Shift_1
Note_On_61_Vel_0
Time_Shift_5
Note_On_64_Vel_0
Time_Shift_81
Note_On_83_Vel_87
Time_Shift_74
Note_On_83_Vel_0
Time_Shift_28
Note_On_67_Vel_74
Time_Shift_3
Note_On_81_Vel_84
Note_On_61_Vel_66
Time_Shift_2
Note_On_57_Vel_69
Time_Shift_21
Note_On_67_Vel_0
Time_Shift_5
Note_On_57_Vel_0
Time_Shift_19
Note_On_61_Vel_0
Time_Shift_34
Note_On_81_Vel_0
Time_Shift_19
Note_On_76_Vel_81
Time_Shift_51
Note_On_76_Vel_0
Time_Shift_79
Note_On_50_Vel_64
Time_Shift_11
Note_On_79_Vel_79
Time_Shift_37
Sustain_On
Time_Shift_59
Note_On_76_Vel_52
Time_Shift_129
Note_On_78_Vel_79
Time_Shift_39
Note_On_57_Vel_74
Time_Shift_15
Note_On_66_Vel_77
Time_Shift_6
Note_On_74_Vel_89
Time_Shift_220
Note_On_50_Vel_0
Time_Shift_11
Note_On_50_Vel_84
Time_Shift_4
Note_On_78_Vel_0
Time_Shift_7
Note_On_90_Vel_108
Time_Shift_2
Note_On_78_Vel_106
Time_Shift_241
Note_On_90_Vel_0
Note_On_74_Vel_0
Time_Shift_1
Note_On_78_Vel_0
Note_On_79_Vel_0
Note_On_50_Vel_0
Note_On_66_Vel_0
Time_Shift_1
Sustain_Off
Time_Shift_9
Note_On_76_Vel_0
Time_Shift_4
Note_On_52_Vel_73
Note_On_56_Vel_76
Time_Shift_4
Note_On_83_Vel_103
Note_On_57_Vel_0
Time_Shift_2
Note_On_88_Vel_104
Note_On_76_Vel_109
Time_Shift_41
Note_On_83_Vel_0
Time_Shift_1
Note_On_56_Vel_0
Time_Shift_4
Note_On_52_Vel_0
Time_Shift_6
Note_On_76_Vel_0
Time_Shift_15
Note_On_88_Vel_0
Time_Shift_134
Note_On_61_Vel_89
Time_Shift_16
Note_On_62_Vel_71
Time_Shift_4
Note_On_62_Vel_0
Note_On_82_Vel_96
Time_Shift_3
Note_On_52_Vel_57
Note_On_56_Vel_58
Time_Shift_1
Note_On_88_Vel_93
Time_Shift_4
Note_On_56_Vel_0
Time_Shift_1
Note_On_76_Vel_101
Time_Shift_12
Note_On_61_Vel_0
Time_Shift_6
Note_On_82_Vel_0
Time_Shift_19
Note_On_52_Vel_0
Note_On_76_Vel_0
Note_On_88_Vel_0
Time_Shift_28
Note_On_56_Vel_91
Note_On_64_Vel_100
Time_Shift_3
Sustain_On
Time_Shift_1
Note_On_88_Vel_109
Note_On_83_Vel_110
Time_Shift_2
Note_On_62_Vel_89
Note_On_76_Vel_113
Note_On_52_Vel_93
Time_Shift_519
Note_On_76_Vel_0
Time_Shift_5
Note_On_76_Vel_101
Time_Shift_5
Note_On_73_Vel_82
Time_Shift_110
Note_On_62_Vel_0
Sustain_Off
Time_Shift_2
Note_On_64_Vel_0
Time_Shift_1
Note_On_83_Vel_0
Note_On_56_Vel_0
Time_Shift_2
Note_On_88_Vel_0
Time_Shift_1
Note_On_52_Vel_0
Time_Shift_1
Note_On_76_Vel_0
Note_On_73_Vel_0
Note_On_78_Vel_93
Time_Shift_6
Note_On_74_Vel_85
Time_Shift_8
Note_On_45_Vel_66
Time_Shift_18
Note_On_74_Vel_0
Time_Shift_4
Note_On_78_Vel_0
Time_Shift_4
Note_On_45_Vel_0
Time_Shift_188
Note_On_76_Vel_76
Time_Shift_68
Note_On_76_Vel_0
Time_Shift_7
Note_On_75_Vel_83
Time_Shift_2
Note_On_72_Vel_74
Time_Shift_2
Note_On_57_Vel_60
Time_Shift_6
Note_On_64_Vel_52
Time_Shift_9
Note_On_61_Vel_42
Time_Shift_15
Note_On_57_Vel_0
Time_Shift_1
Note_On_61_Vel_0
Time_Shift_238
Note_On_57_Vel_66
Time_Shift_6
Note_On_72_Vel_0
Time_Shift_9
Note_On_75_Vel_0
Time_Shift_14
Note_On_76_Vel_79
Note_On_73_Vel_82
Time_Shift_9
Note_On_57_Vel_0
Time_Shift_9
Note_On_64_Vel_0
Time_Shift_208
Note_On_76_Vel_0
Time_Shift_6
Note_On_78_Vel_79
Time_Shift_6
Note_On_50_Vel_62
Time_Shift_3
Note_On_74_Vel_63
Time_Shift_10
Note_On_73_Vel_0
Time_Shift_14
Note_On_74_Vel_0
Time_Shift_4
Note_On_50_Vel_0
Time_Shift_8
Note_On_78_Vel_0
Time_Shift_131
Note_On_80_Vel_80
Time_Shift_28
Note_On_80_Vel_0
Time_Shift_45
Note_On_81_Vel_86
Time_Shift_19
Note_On_57_Vel_65
Note_On_78_Vel_76
Time_Shift_5
Note_On_62_Vel_58
Time_Shift_1
Note_On_66_Vel_70
Time_Shift_27
Note_On_62_Vel_0
Time_Shift_3
Note_On_57_Vel_0
Time_Shift_10
Note_On_81_Vel_0
Time_Shift_4
Note_On_66_Vel_0
Time_Shift_8
Note_On_83_Vel_84
Time_Shift_82
Note_On_81_Vel_81
Time_Shift_33
Note_On_78_Vel_0
Time_Shift_26
Note_On_83_Vel_0
Time_Shift_4
Note_On_80_Vel_80
Time_Shift_4
Note_On_57_Vel_72
Note_On_66_Vel_68
Time_Shift_2
Note_On_76_Vel_74
Time_Shift_23
Note_On_81_Vel_0
Time_Shift_7
Note_On_57_Vel_0
Note_On_80_Vel_0
Time_Shift_11
Note_On_66_Vel_0
Time_Shift_5
Note_On_76_Vel_0
Time_Shift_82
Note_On_78_Vel_84
Time_Shift_1
Note_On_74_Vel_78
Time_Shift_36
Note_On_74_Vel_0
Time_Shift_21
Note_On_78_Vel_0
Time_Shift_39
Sustain_On
Time_Shift_12
Note_On_76_Vel_87
Note_On_73_Vel_91
Note_On_45_Vel_73
Time_Shift_1
Note_On_57_Vel_74
Time_Shift_164
Note_On_81_Vel_87
Time_Shift_54
Note_On_57_Vel_0
Time_Shift_4
Note_On_64_Vel_70
Time_Shift_4
Note_On_81_Vel_0
Time_Shift_2
Note_On_57_Vel_70
Time_Shift_1
Note_On_52_Vel_59
Time_Shift_1
Note_On_85_Vel_92
Time_Shift_1
Note_On_61_Vel_59
Time_Shift_4
Note_On_81_Vel_89
Time_Shift_144
Note_On_46_Vel_54
Time_Shift_54
Note_On_57_Vel_0
Time_Shift_5
Note_On_85_Vel_0
Note_On_61_Vel_0
Note_On_73_Vel_0
Time_Shift_1
Note_On_81_Vel_0
Sustain_Off
Time_Shift_1
Note_On_76_Vel_0
Time_Shift_1
Note_On_45_Vel_0
Note_On_57_Vel_64
Time_Shift_5
Note_On_45_Vel_73
Time_Shift_2
Note_On_52_Vel_0
Time_Shift_8
Note_On_46_Vel_0
Note_On_64_Vel_0
Time_Shift_15
Sustain_On
Time_Shift_13
Note_On_90_Vel_105
Time_Shift_4
Note_On_78_Vel_101
Time_Shift_225
Note_On_90_Vel_0
Time_Shift_2
Note_On_78_Vel_0
Time_Shift_5
Note_On_45_Vel_0
Sustain_Off
Time_Shift_11
Note_On_88_Vel_104
Time_Shift_1
Note_On_57_Vel_0
Time_Shift_1
Note_On_52_Vel_70
Time_Shift_2
Note_On_56_Vel_82
Time_Shift_1
Note_On_83_Vel_101
Note_On_62_Vel_77
Note_On_76_Vel_105
Time_Shift_30
Note_On_52_Vel_0
Time_Shift_1
Note_On_83_Vel_0
Note_On_88_Vel_0
Note_On_76_Vel_0
Time_Shift_1
Note_On_56_Vel_0
Time_Shift_2
Note_On_62_Vel_0
Time_Shift_181
Note_On_61_Vel_89
Time_Shift_16
Note_On_52_Vel_56
Time_Shift_1
Note_On_62_Vel_67
Time_Shift_5
Note_On_82_Vel_100
Time_Shift_4
Note_On_88_Vel_96
Time_Shift_1
Note_On_56_Vel_39
Note_On_62_Vel_0
Time_Shift_1
Note_On_76_Vel_101
Time_Shift_7
Note_On_56_Vel_0
Time_Shift_4
Note_On_61_Vel_0
Time_Shift_19
Note_On_52_Vel_0
Time_Shift_8
Note_On_76_Vel_0
Note_On_82_Vel_0
Note_On_88_Vel_0
Time_Shift_32
Note_On_88_Vel_109
Time_Shift_1
Note_On_64_Vel_105
Note_On_83_Vel_107
Time_Shift_1
Note_On_62_Vel_99
Note_On_76_Vel_115
Time_Shift_1
Note_On_52_Vel_95
Note_On_56_Vel_90
Time_Shift_26
Sustain_On
Time_Shift_415
Note_On_76_Vel_0
Time_Shift_5
Note_On_76_Vel_96
Time_Shift_40
Sustain_Off
Time_Shift_4
Note_On_83_Vel_0
Time_Shift_1
Note_On_56_Vel_0
Note_On_62_Vel_0
Note_On_52_Vel_0
Time_Shift_1
Note_On_88_Vel_0
Time_Shift_1
Note_On_64_Vel_0
Time_Shift_3
Note_On_76_Vel_0
Time_Shift_18
Note_On_45_Vel_74
Time_Shift_1
Note_On_78_Vel_89
Time_Shift_5
Note_On_86_Vel_78
Time_Shift_1
Note_On_74_Vel_86
Time_Shift_27
Note_On_78_Vel_0
Time_Shift_3
Note_On_74_Vel_0
Time_Shift_6
Note_On_45_Vel_0
Time_Shift_2
Note_On_86_Vel_0
Time_Shift_140
Note_On_76_Vel_92
Time_Shift_6
Note_On_73_Vel_78
Time_Shift_62
Note_On_57_Vel_74
Time_Shift_4
Note_On_75_Vel_98
Time_Shift_3
Note_On_72_Vel_91
Time_Shift_4
Note_On_61_Vel_65
Time_Shift_8
Note_On_61_Vel_0
Time_Shift_17
Note_On_76_Vel_0
Time_Shift_2
Note_On_57_Vel_0
Time_Shift_20
Note_On_73_Vel_0
Time_Shift_186
Note_On_57_Vel_64
Note_On_64_Vel_67
Time_Shift_7
Note_On_76_Vel_82
Time_Shift_4
Note_On_61_Vel_56
Time_Shift_2
Note_On_73_Vel_79
Time_Shift_23
Note_On_72_Vel_0
Time_Shift_4
Note_On_57_Vel_0
Note_On_75_Vel_0
Time_Shift_204
Note_On_61_Vel_0
Time_Shift_10
Note_On_45_Vel_56
Time_Shift_42
Note_On_78_Vel_79
Time_Shift_2
Note_On_64_Vel_0
Note_On_73_Vel_0
Time_Shift_2
Note_On_45_Vel_0
Time_Shift_8
Note_On_73_Vel_68
Time_Shift_51
Note_On_76_Vel_0
Time_Shift_67
Note_On_78_Vel_0
Time_Shift_15
Note_On_80_Vel_79
Time_Shift_30
Note_On_57_Vel_71
Time_Shift_21
Note_On_66_Vel_49
Time_Shift_5
Note_On_73_Vel_0
Time_Shift_5
Note_On_80_Vel_0
Time_Shift_4
Note_On_81_Vel_73
Time_Shift_15
Note_On_69_Vel_43
Time_Shift_7
Note_On_69_Vel_0
Time_Shift_3
Note_On_66_Vel_0
Time_Shift_5
Note_On_57_Vel_0
Time_Shift_16
Note_On_81_Vel_0
Time_Shift_19
Note_On_83_Vel_63
Time_Shift_59
Note_On_83_Vel_0
Time_Shift_1
Note_On_81_Vel_76
Time_Shift_84
Note_On_47_Vel_66
Time_Shift_9
Note_On_81_Vel_0
Time_Shift_4
Note_On_80_Vel_82
Time_Shift_11
Note_On_75_Vel_73
Time_Shift_1
Note_On_47_Vel_0
Time_Shift_31
Note_On_75_Vel_0
Time_Shift_7
Note_On_80_Vel_0
Time_Shift_54
Note_On_78_Vel_81
Time_Shift_35
Note_On_78_Vel_0
Time_Shift_43
Note_On_40_Vel_66
Time_Shift_7
Note_On_80_Vel_87
Time_Shift_7
Note_On_76_Vel_74
Time_Shift_1
Note_On_52_Vel_72
Time_Shift_18
Sustain_On
Time_Shift_138
Note_On_80_Vel_0
Time_Shift_11
Note_On_80_Vel_77
Time_Shift_4
Note_On_83_Vel_79
Time_Shift_51
Note_On_64_Vel_78
Time_Shift_3
Note_On_52_Vel_0
Note_On_83_Vel_0
Time_Shift_4
Note_On_56_Vel_78
Time_Shift_2
Note_On_59_Vel_77
Time_Shift_4
Note_On_52_Vel_65
Note_On_83_Vel_103
Time_Shift_1
Note_On_88_Vel_96
Time_Shift_266
Note_On_56_Vel_0
Note_On_59_Vel_0
Note_On_88_Vel_0
Time_Shift_1
Note_On_92_Vel_113
Time_Shift_5
Note_On_56_Vel_95
Note_On_88_Vel_98
Time_Shift_1
Note_On_52_Vel_0
Time_Shift_3
Note_On_59_Vel_89
Time_Shift_2
Note_On_52_Vel_70
Time_Shift_203
Note_On_40_Vel_0
Time_Shift_46
Note_On_52_Vel_0
Note_On_56_Vel_0
Note_On_76_Vel_0
Note_On_83_Vel_0
Note_On_88_Vel_0
Time_Shift_4
Note_On_74_Vel_106
Time_Shift_3
Note_On_86_Vel_105
Note_On_56_Vel_88
Time_Shift_1
Note_On_83_Vel_108
Note_On_88_Vel_105
Time_Shift_2
Sustain_Off
Note_On_76_Vel_112
Time_Shift_1
Note_On_52_Vel_86
Time_Shift_1
Note_On_92_Vel_0
Time_Shift_3
Note_On_62_Vel_78
Time_Shift_1
Note_On_59_Vel_0
Time_Shift_14
Sustain_On
Time_Shift_23
Note_On_74_Vel_0
Time_Shift_214
Note_On_61_Vel_82
Time_Shift_1
Note_On_62_Vel_0
Time_Shift_5
Note_On_62_Vel_72
Time_Shift_3
Note_On_52_Vel_0
Time_Shift_5
Note_On_52_Vel_71
Time_Shift_3
Note_On_76_Vel_0
Note_On_88_Vel_0
Time_Shift_4
Note_On_82_Vel_85
Note_On_85_Vel_87
Time_Shift_5
Note_On_76_Vel_96
Time_Shift_1
Note_On_88_Vel_88
Time_Shift_59
Note_On_80_Vel_0
Time_Shift_8
Note_On_52_Vel_0
Note_On_56_Vel_0
Note_On_62_Vel_0
Note_On_64_Vel_0
Note_On_76_Vel_0
Note_On_83_Vel_0
Note_On_88_Vel_0
Time_Shift_1
Note_On_86_Vel_0
Time_Shift_1
Note_On_82_Vel_0
Time_Shift_3
Note_On_61_Vel_0
Time_Shift_1
Note_On_64_Vel_101
Note_On_88_Vel_106
Time_Shift_1
Note_On_83_Vel_109
Note_On_52_Vel_97
Note_On_85_Vel_0
Sustain_Off
Time_Shift_2
Note_On_76_Vel_114
Time_Shift_1
Note_On_62_Vel_92
Time_Shift_1
Note_On_56_Vel_84
Time_Shift_150
Sustain_On
Time_Shift_341
Sustain_Off
Time_Shift_5
Note_On_64_Vel_0
Note_On_88_Vel_0
Time_Shift_2
Note_On_83_Vel_0
Time_Shift_5
Note_On_76_Vel_0
Time_Shift_2
Note_On_88_Vel_83
Time_Shift_3
Note_On_76_Vel_94
Time_Shift_3
Note_On_73_Vel_94
Time_Shift_1
Note_On_85_Vel_83
Time_Shift_2
Note_On_56_Vel_0
Time_Shift_12
Note_On_62_Vel_0
Time_Shift_8
Note_On_52_Vel_0
Time_Shift_23
Note_On_88_Vel_0
Time_Shift_2
Note_On_73_Vel_0
Time_Shift_13
Note_On_85_Vel_0
Time_Shift_69
Note_On_78_Vel_94
Time_Shift_3
Note_On_74_Vel_86
Time_Shift_8
Note_On_45_Vel_73
Time_Shift_3
Note_On_52_Vel_58
Time_Shift_9
Note_On_52_Vel_0
Time_Shift_8
Note_On_76_Vel_0
Time_Shift_2
Note_On_74_Vel_0
Time_Shift_4
Note_On_78_Vel_0
Time_Shift_5
Note_On_45_Vel_0
Time_Shift_215
Note_On_73_Vel_66
Note_On_76_Vel_70
Time_Shift_37
Note_On_73_Vel_0
Time_Shift_5
Note_On_76_Vel_0
Time_Shift_11
Note_On_57_Vel_69
Time_Shift_3
Note_On_72_Vel_72
Time_Shift_2
Note_On_61_Vel_51
Note_On_75_Vel_84
Time_Shift_1
Note_On_52_Vel_51
Time_Shift_29
Note_On_57_Vel_0
Time_Shift_6
Note_On_52_Vel_0
Time_Shift_26
Note_On_61_Vel_0
Time_Shift_244
Note_On_57_Vel_63
Time_Shift_9
Note_On_76_Vel_77
Time_Shift_4
Note_On_73_Vel_81
Time_Shift_3
Note_On_72_Vel_0
Time_Shift_4
Note_On_75_Vel_0
Time_Shift_22
Note_On_57_Vel_0
Time_Shift_193
Note_On_78_Vel_79
Time_Shift_1
Note_On_73_Vel_0
Time_Shift_12
Note_On_50_Vel_66
Time_Shift_2
Note_On_74_Vel_65
Time_Shift_9
Note_On_76_Vel_0
Time_Shift_18
Note_On_74_Vel_0
Note_On_50_Vel_0
Time_Shift_9
Note_On_78_Vel_0
Time_Shift_126
Note_On_80_Vel_84
Time_Shift_5
Note_On_76_Vel_44
Time_Shift_7
Note_On_76_Vel_0
Time_Shift_12
Note_On_80_Vel_0
Time_Shift_61
Note_On_81_Vel_85
Time_Shift_1
Note_On_78_Vel_82
Time_Shift_6
Note_On_57_Vel_67
Time_Shift_7
Note_On_74_Vel_63
Time_Shift_7
Note_On_62_Vel_59
Time_Shift_2
Note_On_66_Vel_65
Time_Shift_28
Note_On_57_Vel_0
Note_On_62_Vel_0
Time_Shift_2
Note_On_66_Vel_0
Time_Shift_10
Note_On_83_Vel_86
Note_On_81_Vel_0
Time_Shift_18
Note_On_74_Vel_0
Time_Shift_65
Note_On_81_Vel_75
Time_Shift_57
Note_On_78_Vel_0
Time_Shift_12
Note_On_83_Vel_0
Time_Shift_3
Note_On_80_Vel_81
Time_Shift_4
Note_On_66_Vel_69
Time_Shift_4
Note_On_81_Vel_0
Time_Shift_2
Note_On_57_Vel_65
Time_Shift_4
Note_On_74_Vel_59
Time_Shift_8
Note_On_62_Vel_45
Time_Shift_7
Note_On_80_Vel_0
Time_Shift_5
Note_On_66_Vel_0
Time_Shift_9
Note_On_57_Vel_0
Time_Shift_4
Note_On_74_Vel_0
Time_Shift_5
Note_On_62_Vel_0
Time_Shift_79
Note_On_74_Vel_73
Time_Shift_1
Note_On_78_Vel_78
Time_Shift_22
Note_On_74_Vel_0
Time_Shift_54
Sustain_On
Time_Shift_7
Note_On_76_Vel_82
Time_Shift_3
Note_On_73_Vel_87
Time_Shift_1
Note_On_45_Vel_70
Time_Shift_28
Note_On_78_Vel_0
Time_Shift_138
Note_On_76_Vel_0
Time_Shift_4
Note_On_81_Vel_85
Time_Shift_6
Note_On_76_Vel_74
Time_Shift_18
Sustain_Off
Time_Shift_30
Note_On_57_Vel_85
Time_Shift_9
Note_On_61_Vel_70
Time_Shift_2
Note_On_81_Vel_0
Sustain_On
Time_Shift_6
Note_On_85_Vel_97
Time_Shift_2
Note_On_81_Vel_86
Time_Shift_215
Note_On_45_Vel_0
Time_Shift_2
Note_On_85_Vel_0
Note_On_81_Vel_0
Time_Shift_1
Note_On_57_Vel_0
Note_On_61_Vel_0
Time_Shift_4
Note_On_73_Vel_0
Time_Shift_4
Note_On_45_Vel_88
Time_Shift_1
Note_On_90_Vel_104
Time_Shift_3
Note_On_76_Vel_0
Time_Shift_3
Note_On_78_Vel_103
Time_Shift_223
Note_On_90_Vel_0
Time_Shift_2
Note_On_78_Vel_0
Time_Shift_4
Note_On_45_Vel_0
Time_Shift_4
Note_On_56_Vel_80
Time_Shift_1
Note_On_62_Vel_82
Time_Shift_1
Note_On_88_Vel_102
Time_Shift_1
Sustain_Off
Time_Shift_1
Note_On_52_Vel_75
Time_Shift_1
Note_On_83_Vel_101
Time_Shift_1
Note_On_76_Vel_103
Time_Shift_30
Note_On_62_Vel_0
Time_Shift_1
Note_On_76_Vel_0
Time_Shift_5
Note_On_56_Vel_0
Time_Shift_2
Note_On_83_Vel_0
Note_On_52_Vel_0
Time_Shift_43
Note_On_88_Vel_0
Time_Shift_124
Note_On_61_Vel_86
Time_Shift_11
Note_On_52_Vel_64
Time_Shift_8
Note_On_82_Vel_91
Time_Shift_2
Note_On_85_Vel_86
Time_Shift_4
Note_On_76_Vel_94
Time_Shift_2
Note_On_88_Vel_83
Time_Shift_6
Note_On_61_Vel_0
Time_Shift_27
Note_On_52_Vel_0
Note_On_76_Vel_0
Time_Shift_8
Note_On_82_Vel_0
Note_On_85_Vel_0
Time_Shift_15
Note_On_88_Vel_0
Time_Shift_10
Note_On_88_Vel_109
Note_On_62_Vel_93
Time_Shift_1
Note_On_86_Vel_99
Time_Shift_1
Note_On_76_Vel_112
Note_On_52_Vel_92
Note_On_83_Vel_103
Time_Shift_2
Note_On_56_Vel_87
Time_Shift_9
Sustain_On
Time_Shift_200
Note_On_52_Vel_0
Time_Shift_9
Note_On_52_Vel_65
Time_Shift_198
Note_On_76_Vel_0
Time_Shift_5
Note_On_76_Vel_86
Time_Shift_1
Note_On_73_Vel_92
Time_Shift_71
Note_On_86_Vel_0
Time_Shift_1
Note_On_62_Vel_0
Note_On_56_Vel_0
Time_Shift_2
Note_On_88_Vel_0
Note_On_83_Vel_0
Time_Shift_1
Note_On_52_Vel_0
Note_On_78_Vel_99
Time_Shift_1
Note_On_76_Vel_0
Time_Shift_1
Note_On_73_Vel_0
Time_Shift_2
Note_On_86_Vel_80
Time_Shift_2
Sustain_Off
Note_On_45_Vel_75
Time_Shift_1
Note_On_74_Vel_90
Time_Shift_33
Note_On_45_Vel_0
Time_Shift_3
Note_On_74_Vel_0
Time_Shift_1
Note_On_78_Vel_0
Time_Shift_13
Note_On_86_Vel_0
Time_Shift_143
Note_On_73_Vel_86
Note_On_85_Vel_77
Note_On_76_Vel_87
Time_Shift_11
Note_On_85_Vel_0
Time_Shift_38
Note_On_73_Vel_0
Time_Shift_8
Note_On_76_Vel_0
Time_Shift_10
Note_On_75_Vel_99
Time_Shift_1
Note_On_84_Vel_85
Note_On_72_Vel_94
Time_Shift_6
Note_On_57_Vel_75
Time_Shift_1
Note_On_64_Vel_70
Time_Shift_6
Note_On_61_Vel_70
Time_Shift_19
Note_On_57_Vel_0
Time_Shift_26
Note_On_64_Vel_0
Time_Shift_8
Note_On_61_Vel_0
Time_Shift_213
Note_On_72_Vel_0
Time_Shift_4
Note_On_75_Vel_0
Time_Shift_1
Note_On_57_Vel_69
Time_Shift_5
Note_On_76_Vel_84
Time_Shift_2
Note_On_73_Vel_90
Time_Shift_5
Note_On_84_Vel_0
Time_Shift_18
Note_On_57_Vel_0
Time_Shift_13
Sustain_On
Time_Shift_184
Note_On_76_Vel_0
Time_Shift_2
Note_On_40_Vel_63
Time_Shift_3
Note_On_80_Vel_90
Sustain_Off
Time_Shift_6
Note_On_76_Vel_81
Time_Shift_4
Note_On_73_Vel_0
Time_Shift_16
Note_On_40_Vel_0
Time_Shift_4
Note_On_76_Vel_0
Time_Shift_2
Note_On_80_Vel_0
Time_Shift_123
Note_On_78_Vel_79
Time_Shift_21
Note_On_74_Vel_57
Time_Shift_9
Note_On_78_Vel_0
Time_Shift_33
Note_On_74_Vel_0
Time_Shift_52
Note_On_76_Vel_82
Time_Shift_5
Note_On_73_Vel_78
Time_Shift_9
Note_On_56_Vel_53
Time_Shift_2
Note_On_52_Vel_46
Time_Shift_12
Note_On_73_Vel_0
Note_On_62_Vel_44
Time_Shift_4
Note_On_76_Vel_0
Time_Shift_15
Note_On_78_Vel_68
Time_Shift_62
Note_On_76_Vel_76
Time_Shift_9
Note_On_73_Vel_58
Time_Shift_6
Note_On_73_Vel_0
Time_Shift_20
Note_On_78_Vel_0
Time_Shift_20
Note_On_76_Vel_0
Time_Shift_62
Note_On_52_Vel_0
Time_Shift_3
Note_On_56_Vel_0
Time_Shift_11
Note_On_62_Vel_0
Time_Shift_26
Note_On_74_Vel_75
Time_Shift_1
Note_On_71_Vel_75
Time_Shift_24
Note_On_71_Vel_0
Time_Shift_8
Note_On_74_Vel_0
Time_Shift_83
Note_On_71_Vel_67
Time_Shift_60
Note_On_61_Vel_66
Time_Shift_10
Note_On_71_Vel_0
Time_Shift_49
Note_On_61_Vel_0
Time_Shift_19
Note_On_69_Vel_80
Time_Shift_3
Note_On_57_Vel_72
Time_Shift_3
Note_On_45_Vel_76
Time_Shift_29
Sustain_On
Time_Shift_122
Note_On_69_Vel_0
Time_Shift_10
Note_On_69_Vel_66
Time_Shift_87
Note_On_83_Vel_78
Time_Shift_78
Note_On_71_Vel_40
Time_Shift_60
Sustain_Off
Time_Shift_21
Note_On_81_Vel_85
Time_Shift_6
Note_On_69_Vel_0
Sustain_On
Time_Shift_5
Note_On_69_Vel_73
Time_Shift_5
Note_On_52_Vel_56
Time_Shift_5
Note_On_61_Vel_54
Time_Shift_177
Note_On_80_Vel_94
Time_Shift_159
Note_On_79_Vel_96
Time_Shift_131
Note_On_78_Vel_99
Time_Shift_35
Sustain_Off
Time_Shift_28
Note_On_83_Vel_0
Time_Shift_11
Note_On_79_Vel_0
Time_Shift_1
Note_On_61_Vel_0
Time_Shift_4
Note_On_80_Vel_0
Time_Shift_2
Note_On_52_Vel_0
Time_Shift_1
Note_On_69_Vel_0
Time_Shift_2
Note_On_78_Vel_0
Time_Shift_2
Note_On_71_Vel_0
Time_Shift_8
Note_On_45_Vel_0
Note_On_57_Vel_0
Note_On_81_Vel_0
Time_Shift_10
Note_On_57_Vel_87
Note_On_81_Vel_100
Time_Shift_1
Note_On_45_Vel_91
Time_Shift_12
Sustain_On
Time_Shift_330
Note_On_57_Vel_0
Time_Shift_5
Note_On_67_Vel_94
Note_On_57_Vel_91
Note_On_76_Vel_109
Time_Shift_3
Note_On_45_Vel_0
Time_Shift_1
Note_On_61_Vel_81
Time_Shift_239
Sustain_Off
Time_Shift_41
Note_On_78_Vel_95
Time_Shift_3
Note_On_57_Vel_0
Note_On_67_Vel_0
Time_Shift_7
Note_On_67_Vel_77
Note_On_61_Vel_0
Time_Shift_3
Note_On_57_Vel_79
Time_Shift_1
Note_On_61_Vel_70
Time_Shift_104
Note_On_76_Vel_0
Time_Shift_4
Note_On_57_Vel_0
Time_Shift_1
Note_On_67_Vel_0
Time_Shift_3
Note_On_81_Vel_0
Sustain_On
Note_On_76_Vel_91
Time_Shift_46
Sustain_Off
Time_Shift_15
Note_On_61_Vel_0
Time_Shift_3
Note_On_78_Vel_0
Time_Shift_15
Note_On_76_Vel_0
Note_On_75_Vel_94
Time_Shift_9
Note_On_57_Vel_71
Time_Shift_2
Note_On_66_Vel_80
Time_Shift_5
Note_On_60_Vel_67
Time_Shift_20
Note_On_66_Vel_0
Time_Shift_3
Note_On_75_Vel_0
Time_Shift_20
Note_On_57_Vel_0
Time_Shift_15
Note_On_60_Vel_0
Time_Shift_130
Note_On_69_Vel_81
Time_Shift_44
Note_On_60_Vel_51
Time_Shift_1
Note_On_66_Vel_82
Note_On_57_Vel_74
Time_Shift_6
Note_On_75_Vel_101
Time_Shift_19
Sustain_On
Time_Shift_57
Note_On_60_Vel_0
Time_Shift_2
Note_On_57_Vel_0
Time_Shift_13
Note_On_66_Vel_0
Time_Shift_5
Sustain_Off
Time_Shift_7
Note_On_69_Vel_0
Time_Shift_50
Note_On_75_Vel_0
Time_Shift_68
Note_On_67_Vel_90
Time_Shift_9
Note_On_61_Vel_70
Time_Shift_1
Note_On_76_Vel_103
Time_Shift_3
Note_On_69_Vel_84
Time_Shift_1
Note_On_57_Vel_73
Time_Shift_18
Note_On_67_Vel_0
Time_Shift_4
Sustain_On
Time_Shift_38
Note_On_61_Vel_0
Time_Shift_16
Note_On_57_Vel_0
Time_Shift_30
Sustain_Off
Time_Shift_54
Note_On_69_Vel_0
Time_Shift_53
Note_On_45_Vel_89
Time_Shift_4
Note_On_81_Vel_98
Time_Shift_1
Note_On_69_Vel_92
Time_Shift_4
Sustain_On
Time_Shift_131
Note_On_83_Vel_86
Time_Shift_63
Note_On_79_Vel_96
Time_Shift_2
Note_On_57_Vel_82
Time_Shift_5
Note_On_67_Vel_89
Time_Shift_2
Note_On_61_Vel_59
Time_Shift_35
Note_On_81_Vel_0
Time_Shift_6
Note_On_81_Vel_85
Time_Shift_78
Note_On_79_Vel_0
Time_Shift_5
Note_On_79_Vel_93
Time_Shift_60
Note_On_45_Vel_0
Time_Shift_2
Note_On_83_Vel_0
Time_Shift_2
Note_On_76_Vel_0
Time_Shift_3
Note_On_81_Vel_0
Sustain_Off
Time_Shift_5
Note_On_69_Vel_0
Time_Shift_15
Note_On_57_Vel_0
Note_On_61_Vel_0
Note_On_67_Vel_0
Time_Shift_5
Note_On_57_Vel_71
Note_On_67_Vel_74
Time_Shift_1
Note_On_78_Vel_92
Time_Shift_3
Note_On_61_Vel_67
Time_Shift_14
Note_On_79_Vel_0
Time_Shift_13
Note_On_57_Vel_0
Time_Shift_1
Note_On_61_Vel_0
Time_Shift_17
Note_On_67_Vel_0
Time_Shift_27
Note_On_78_Vel_0
Time_Shift_14
Note_On_76_Vel_93
Time_Shift_38
Note_On_76_Vel_0
Time_Shift_50
Note_On_57_Vel_77
Time_Shift_1
Note_On_75_Vel_92
Time_Shift_6
Note_On_66_Vel_78
Time_Shift_1
Note_On_60_Vel_63
Time_Shift_25
Note_On_75_Vel_0
Note_On_66_Vel_0
Time_Shift_2
Note_On_57_Vel_0
Time_Shift_43
Note_On_60_Vel_0
Time_Shift_119
Note_On_69_Vel_81
Time_Shift_47
Note_On_57_Vel_68
Time_Shift_3
Note_On_66_Vel_79
Time_Shift_4
Note_On_75_Vel_105
Time_Shift_1
Note_On_60_Vel_53
Time_Shift_30
Note_On_66_Vel_0
Time_Shift_7
Note_On_57_Vel_0
Time_Shift_28
Note_On_69_Vel_0
Time_Shift_225
Note_On_76_Vel_100
Time_Shift_8
Note_On_67_Vel_71
Time_Shift_1
Note_On_61_Vel_59
Time_Shift_4
Sustain_On
Time_Shift_15
Note_On_60_Vel_0
Time_Shift_275
Sustain_Off
Time_Shift_10
Note_On_76_Vel_0
Time_Shift_9
Note_On_73_Vel_84
Time_Shift_13
Note_On_61_Vel_0
Note_On_75_Vel_0
Time_Shift_8
Note_On_67_Vel_0
Time_Shift_5
Note_On_67_Vel_68
Time_Shift_7
Note_On_64_Vel_34
Time_Shift_2
Note_On_58_Vel_62
Time_Shift_9
Note_On_64_Vel_0
Time_Shift_3
Note_On_79_Vel_72
Time_Shift_2
Note_On_73_Vel_0
Time_Shift_7
Note_On_67_Vel_0
Time_Shift_9
Note_On_58_Vel_0
Time_Shift_56
Note_On_79_Vel_0
Time_Shift_74
Note_On_78_Vel_77
Time_Shift_30
Note_On_78_Vel_0
Time_Shift_54
Note_On_58_Vel_72
Time_Shift_13
Note_On_66_Vel_72
Time_Shift_1
Note_On_73_Vel_92
Time_Shift_14
Note_On_64_Vel_47
Time_Shift_4
Note_On_58_Vel_0
Time_Shift_2
Note_On_64_Vel_0
Time_Shift_4
Note_On_73_Vel_0
Time_Shift_6
Note_On_67_Vel_55
Time_Shift_5
Note_On_67_Vel_0
Time_Shift_4
Note_On_74_Vel_69
Time_Shift_4
Note_On_66_Vel_0
Time_Shift_58
Note_On_73_Vel_89
Time_Shift_3
Note_On_74_Vel_0
Time_Shift_44
Note_On_73_Vel_0
Time_Shift_53
Note_On_72_Vel_85
Time_Shift_13
Note_On_58_Vel_60
Time_Shift_3
Note_On_64_Vel_45
Time_Shift_4
Note_On_66_Vel_63
Time_Shift_10
Note_On_72_Vel_0
Time_Shift_9
Note_On_66_Vel_0
Time_Shift_1
Note_On_58_Vel_0
Time_Shift_40
Note_On_64_Vel_0
Time_Shift_100
Note_On_73_Vel_84
Time_Shift_27
Note_On_73_Vel_0
Time_Shift_23
Note_On_76_Vel_81
Time_Shift_5
Note_On_66_Vel_62
Time_Shift_2
Note_On_62_Vel_46
Time_Shift_1
Note_On_59_Vel_52
Time_Shift_20
Note_On_76_Vel_0
Time_Shift_10
Note_On_62_Vel_0
Time_Shift_3
Note_On_59_Vel_0
Time_Shift_8
Note_On_66_Vel_0
Time_Shift_144
Note_On_74_Vel_75
Time_Shift_36
Note_On_74_Vel_0
Time_Shift_15
Note_On_66_Vel_77
Time_Shift_1
Note_On_71_Vel_84
Time_Shift_19
Note_On_59_Vel_46
Time_Shift_5
Note_On_66_Vel_0
Time_Shift_29
Note_On_71_Vel_0
Time_Shift_20
Note_On_59_Vel_0
Time_Shift_189
Note_On_56_Vel_63
Time_Shift_6
Note_On_65_Vel_47
Time_Shift_1
Note_On_73_Vel_80
Time_Shift_7
Note_On_62_Vel_37
Time_Shift_24
Note_On_65_Vel_0
Time_Shift_6
Note_On_56_Vel_0
Time_Shift_7
Note_On_62_Vel_0
Time_Shift_24
Note_On_73_Vel_0
Time_Shift_22
Note_On_71_Vel_77
Time_Shift_34
Note_On_71_Vel_0
Time_Shift_31
Note_On_69_Vel_78
Time_Shift_35
Note_On_71_Vel_86
Time_Shift_29
Note_On_69_Vel_0
Time_Shift_4
Note_On_57_Vel_62
Time_Shift_2
Note_On_62_Vel_54
Time_Shift_4
Note_On_64_Vel_58
Time_Shift_23
Note_On_71_Vel_0
Time_Shift_6
Note_On_69_Vel_66
Time_Shift_1
Note_On_62_Vel_0
Time_Shift_1
Note_On_57_Vel_0
Time_Shift_100
Note_On_68_Vel_84
Time_Shift_13
Note_On_69_Vel_0
Time_Shift_30
Note_On_64_Vel_0
Time_Shift_20
Note_On_68_Vel_0
Time_Shift_30
Note_On_69_Vel_76
Time_Shift_7
Note_On_57_Vel_64
Time_Shift_11
Note_On_64_Vel_55
Time_Shift_19
Note_On_69_Vel_0
Time_Shift_2
Note_On_57_Vel_0
Time_Shift_8
Note_On_64_Vel_0
Time_Shift_68
Note_On_83_Vel_87
Time_Shift_100
Note_On_83_Vel_0
Time_Shift_17
Note_On_67_Vel_70
Time_Shift_3
Note_On_81_Vel_80
Time_Shift_2
Note_On_57_Vel_62
Note_On_61_Vel_63
Time_Shift_25
Note_On_67_Vel_0
Time_Shift_1
Note_On_61_Vel_0
Note_On_57_Vel_0
Time_Shift_83
Note_On_76_Vel_71
Time_Shift_68
Note_On_76_Vel_0
Time_Shift_59
Note_On_81_Vel_0
Time_Shift_21
Note_On_50_Vel_48
Time_Shift_2
Note_On_79_Vel_70
Time_Shift_46
Sustain_On
Time_Shift_41
Note_On_76_Vel_44
Time_Shift_210
Note_On_78_Vel_73
Time_Shift_29
Sustain_Off
Time_Shift_7
Note_On_79_Vel_0
Note_On_50_Vel_0
Note_On_76_Vel_0
Time_Shift_6
Note_On_78_Vel_0
Time_Shift_52
Note_On_66_Vel_56
Time_Shift_2
Note_On_74_Vel_64
Time_Shift_6
Note_On_57_Vel_47
Time_Shift_61
Sustain_On
Time_Shift_458
Note_On_74_Vel_0
Note_On_66_Vel_0
Time_Shift_1
Note_On_57_Vel_0
Time_Shift_7
Sustain_Off
Time_Shift_392
Note_On_74_Vel_42
Time_Shift_218
Sustain_On
Time_Shift_136
Note_On_86_Vel_57
Time_Shift_2
Note_On_74_Vel_0
Time_Shift_4
Note_On_43_Vel_32
Time_Shift_7
Note_On_83_Vel_49
Time_Shift_275
Note_On_88_Vel_70
Time_Shift_1
Note_On_84_Vel_67
Time_Shift_74
Note_On_83_Vel_0
Time_Shift_4
Note_On_83_Vel_77
Time_Shift_14
Note_On_79_Vel_69
Time_Shift_10
Note_On_50_Vel_47
Time_Shift_3
Note_On_43_Vel_0
Time_Shift_7
Note_On_43_Vel_36
Time_Shift_25
Sustain_Off
Time_Shift_83
Sustain_On
Time_Shift_212
Note_On_59_Vel_39
Time_Shift_10
Note_On_50_Vel_0
Time_Shift_5
Note_On_50_Vel_41
Time_Shift_118
Note_On_84_Vel_0
Time_Shift_9
Note_On_84_Vel_62
Time_Shift_1
Note_On_81_Vel_61
Time_Shift_113
Sustain_Off
Time_Shift_3
Note_On_86_Vel_0
Time_Shift_1
Note_On_83_Vel_0
Note_On_79_Vel_0
Note_On_81_Vel_0
Time_Shift_4
Note_On_50_Vel_0
Time_Shift_8
Note_On_59_Vel_0
Time_Shift_7
Note_On_84_Vel_0
Note_On_88_Vel_0
Time_Shift_6
Note_On_88_Vel_73
Note_On_84_Vel_72
Time_Shift_2
Note_On_43_Vel_0
Time_Shift_6
Note_On_43_Vel_48
Time_Shift_214
Note_On_62_Vel_42
Time_Shift_3
Note_On_50_Vel_35
Time_Shift_26
Note_On_86_Vel_80
Time_Shift_2
Note_On_83_Vel_75
Time_Shift_35
Note_On_86_Vel_0
Time_Shift_6
Note_On_84_Vel_0
Time_Shift_23
Note_On_88_Vel_0
Time_Shift_7
Note_On_50_Vel_0
Note_On_83_Vel_0
Time_Shift_5
Note_On_83_Vel_90
Time_Shift_1
Note_On_50_Vel_46
Time_Shift_2
Note_On_43_Vel_0
Time_Shift_3
Note_On_79_Vel_79
Time_Shift_1
Note_On_59_Vel_49
Time_Shift_4
Note_On_59_Vel_0
Time_Shift_3
Note_On_43_Vel_43
Time_Shift_43
Note_On_62_Vel_0
Time_Shift_61
Sustain_On
Time_Shift_166
Note_On_59_Vel_49
Time_Shift_3
Note_On_50_Vel_0
Time_Shift_6
Note_On_50_Vel_49
Time_Shift_248
Note_On_83_Vel_0
Time_Shift_7
Note_On_43_Vel_0
Time_Shift_3
Note_On_86_Vel_90
Note_On_83_Vel_93
Time_Shift_3
Note_On_43_Vel_53
Time_Shift_183
Note_On_88_Vel_81
Time_Shift_10
Note_On_84_Vel_85
Time_Shift_21
Sustain_Off
Time_Shift_42
Sustain_On
Time_Shift_7
Note_On_79_Vel_0
Note_On_83_Vel_0
Time_Shift_8
Note_On_50_Vel_0
Note_On_59_Vel_0
Time_Shift_3
Note_On_86_Vel_0
Note_On_83_Vel_97
Note_On_79_Vel_82
Time_Shift_1
Note_On_50_Vel_58
Time_Shift_6
Note_On_59_Vel_62
Time_Shift_59
Sustain_Off
Time_Shift_85
Sustain_On
Time_Shift_107
Note_On_50_Vel_0
Note_On_59_Vel_0
Time_Shift_6
Note_On_59_Vel_66
Time_Shift_1
Note_On_50_Vel_62
Time_Shift_131
Note_On_84_Vel_0
Time_Shift_11
Note_On_84_Vel_89
Time_Shift_1
Note_On_81_Vel_79
Time_Shift_103
Note_On_43_Vel_0
Note_On_84_Vel_0
Note_On_88_Vel_0
Time_Shift_10
Note_On_88_Vel_97
Note_On_84_Vel_91
Time_Shift_1
Note_On_43_Vel_68
Time_Shift_197
Note_On_83_Vel_0
Time_Shift_6
Note_On_86_Vel_96
Time_Shift_3
Note_On_83_Vel_85
Time_Shift_83
Note_On_83_Vel_0
Time_Shift_3
Note_On_91_Vel_106
Time_Shift_2
Note_On_83_Vel_95
Time_Shift_10
Note_On_43_Vel_0
Note_On_59_Vel_0
Time_Shift_7
Note_On_43_Vel_63
Time_Shift_2
Note_On_59_Vel_68
Time_Shift_45
Note_On_81_Vel_0
Time_Shift_54
Note_On_84_Vel_0
Time_Shift_445
Note_On_91_Vel_0
Time_Shift_8
Note_On_83_Vel_0
Time_Shift_2
Note_On_91_Vel_109
Time_Shift_3
Note_On_83_Vel_91
Time_Shift_202
Note_On_88_Vel_0
Time_Shift_20
Note_On_83_Vel_0
Note_On_43_Vel_0
Sustain_Off
Time_Shift_1
Note_On_79_Vel_0
Note_On_59_Vel_0
Time_Shift_2
Note_On_50_Vel_0
Note_On_86_Vel_0
Time_Shift_23
Note_On_91_Vel_0
Time_Shift_5
Note_On_91_Vel_94
Time_Shift_6
Note_On_47_Vel_70
Time_Shift_1
Note_On_81_Vel_84
Time_Shift_19
Sustain_On
Time_Shift_146
Note_On_81_Vel_0
Time_Shift_8
Note_On_90_Vel_95
Time_Shift_3
Note_On_81_Vel_86
Time_Shift_76
Sustain_Off
Time_Shift_5
Note_On_81_Vel_0
Time_Shift_4
Note_On_63_Vel_81
Time_Shift_3
Note_On_81_Vel_94
Note_On_54_Vel_68
Time_Shift_1
Note_On_59_Vel_72
Time_Shift_2
Note_On_91_Vel_0
Time_Shift_2
Note_On_83_Vel_98
Time_Shift_34
Note_On_47_Vel_0
Time_Shift_1
Note_On_54_Vel_0
Time_Shift_4
Note_On_63_Vel_0
Time_Shift_1
Note_On_59_Vel_0
Time_Shift_33
Sustain_On
Time_Shift_202
Sustain_Off
Time_Shift_23
Note_On_63_Vel_64
Note_On_54_Vel_63
Time_Shift_3
Note_On_59_Vel_51
Time_Shift_71
Sustain_On
Time_Shift_54
Note_On_90_Vel_0
Time_Shift_6
Note_On_90_Vel_89
Time_Shift_2
Note_On_81_Vel_0
Time_Shift_4
Note_On_81_Vel_76
Time_Shift_142
Note_On_90_Vel_0
Time_Shift_3
Note_On_90_Vel_94
Time_Shift_7
Note_On_52_Vel_73
Time_Shift_3
Note_On_78_Vel_58
Time_Shift_10
Note_On_78_Vel_0
Time_Shift_157
Note_On_88_Vel_98
Time_Shift_6
Note_On_79_Vel_81
Time_Shift_1
Note_On_54_Vel_0
Time_Shift_5
Note_On_63_Vel_0
Time_Shift_2
Note_On_90_Vel_0
Sustain_Off
Note_On_81_Vel_0
Time_Shift_5
Note_On_59_Vel_0
Time_Shift_8
Note_On_83_Vel_0
Time_Shift_23
Note_On_79_Vel_0
Time_Shift_34
Note_On_83_Vel_99
Time_Shift_1
Note_On_79_Vel_91
Time_Shift_1
Note_On_55_Vel_70
Time_Shift_10
Note_On_52_Vel_0
Time_Shift_8
Note_On_52_Vel_62
Time_Shift_7
Sustain_On
Time_Shift_8
Note_On_88_Vel_0
Time_Shift_277
Note_On_55_Vel_0
Time_Shift_5
Note_On_64_Vel_59
Time_Shift_1
Note_On_55_Vel_51
Time_Shift_201
Note_On_79_Vel_0
Time_Shift_4
Note_On_88_Vel_96
Time_Shift_7
Note_On_79_Vel_82
Time_Shift_199
Note_On_55_Vel_0
Note_On_79_Vel_0
Note_On_88_Vel_0
Note_On_83_Vel_0
Time_Shift_1
Note_On_64_Vel_0
Sustain_Off
Time_Shift_4
Note_On_52_Vel_0
Time_Shift_49
Note_On_88_Vel_93
Time_Shift_1
Note_On_38_Vel_50
Time_Shift_6
Note_On_50_Vel_56
Time_Shift_5
Note_On_38_Vel_0
Time_Shift_3
Note_On_79_Vel_81
Time_Shift_44
Sustain_On
Time_Shift_297
Note_On_66_Vel_55
Note_On_57_Vel_41
Time_Shift_16
Note_On_60_Vel_29
Time_Shift_82
Note_On_86_Vel_80
Time_Shift_2
Note_On_78_Vel_78
Time_Shift_23
Note_On_50_Vel_0
Time_Shift_2
Note_On_57_Vel_0
Time_Shift_2
Note_On_60_Vel_0
Note_On_88_Vel_0
Time_Shift_2
Note_On_66_Vel_0
Time_Shift_1
Note_On_79_Vel_0
Time_Shift_5
Sustain_Off
Time_Shift_3
Note_On_78_Vel_0
Time_Shift_83
Note_On_84_Vel_82
Note_On_66_Vel_71
Note_On_57_Vel_63
Time_Shift_3
Note_On_76_Vel_72
Time_Shift_21
Note_On_86_Vel_0
Time_Shift_7
Note_On_66_Vel_0
Time_Shift_6
Note_On_57_Vel_0
Time_Shift_1
Note_On_76_Vel_0
Time_Shift_78
Note_On_81_Vel_85
Time_Shift_7
Note_On_72_Vel_74
Time_Shift_32
Note_On_72_Vel_0
Time_Shift_95
Note_On_84_Vel_0
Sustain_On
Time_Shift_6
Note_On_76_Vel_85
Note_On_43_Vel_67
Note_On_55_Vel_65
Time_Shift_4
Note_On_84_Vel_86
Time_Shift_216
Note_On_83_Vel_86
Time_Shift_1
Note_On_74_Vel_76
Time_Shift_13
Sustain_Off
Time_Shift_1
Note_On_55_Vel_0
Note_On_43_Vel_0
Time_Shift_2
Note_On_76_Vel_0
Time_Shift_2
Note_On_84_Vel_0
Time_Shift_16
Note_On_81_Vel_0
Time_Shift_20
Note_On_67_Vel_74
Time_Shift_7
Note_On_59_Vel_60
Time_Shift_1
Note_On_79_Vel_85
Time_Shift_6
Note_On_71_Vel_76
Note_On_55_Vel_55
Time_Shift_1
Note_On_83_Vel_0
Time_Shift_2
Note_On_62_Vel_49
Time_Shift_9
Note_On_74_Vel_0
Time_Shift_30
Note_On_55_Vel_0
Note_On_59_Vel_0
Time_Shift_4
Note_On_62_Vel_0
Time_Shift_104
Sustain_On
Time_Shift_31
Note_On_67_Vel_0
Time_Shift_53
Sustain_Off
Time_Shift_8
Sustain_On
Time_Shift_15
Sustain_Off
Time_Shift_58
Note_On_67_Vel_63
Time_Shift_2
Note_On_59_Vel_57
Time_Shift_6
Note_On_55_Vel_45
Time_Shift_4
Note_On_55_Vel_0
Note_On_62_Vel_44
Time_Shift_15
Sustain_On
Time_Shift_387
Note_On_71_Vel_0
Time_Shift_1
Note_On_59_Vel_0
Note_On_62_Vel_0
Note_On_79_Vel_0
Note_On_67_Vel_0
Time_Shift_4
Sustain_Off
Time_Shift_54
Note_On_74_Vel_53
Time_Shift_3
Note_On_71_Vel_49
Time_Shift_1
Note_On_43_Vel_36
Time_Shift_23
Note_On_50_Vel_14
Time_Shift_145
Note_On_74_Vel_0
Time_Shift_4
Note_On_71_Vel_0
Time_Shift_12
Note_On_76_Vel_54
Time_Shift_1
Note_On_72_Vel_58
Time_Shift_48
Note_On_76_Vel_0
Time_Shift_8
Note_On_72_Vel_0
Time_Shift_8
Note_On_50_Vel_0
Time_Shift_6
Note_On_71_Vel_81
Time_Shift_4
Note_On_50_Vel_42
Time_Shift_2
Note_On_67_Vel_54
Time_Shift_6
Note_On_59_Vel_41
Time_Shift_82
Note_On_59_Vel_0
Time_Shift_23
Note_On_50_Vel_0
Time_Shift_141
Note_On_59_Vel_51
Time_Shift_26
Note_On_50_Vel_40
Time_Shift_5
Note_On_55_Vel_25
Time_Shift_11
Note_On_71_Vel_0
Time_Shift_4
Note_On_59_Vel_0
Time_Shift_5
Note_On_67_Vel_0
Time_Shift_30
Note_On_43_Vel_0
Time_Shift_49
Note_On_72_Vel_67
Time_Shift_1
Note_On_69_Vel_56
Time_Shift_30
Note_On_72_Vel_0
Time_Shift_7
Note_On_69_Vel_0
Time_Shift_65
Note_On_76_Vel_70
Time_Shift_2
Note_On_43_Vel_46
Time_Shift_3
Note_On_72_Vel_74
Time_Shift_24
Note_On_72_Vel_0
Time_Shift_7
Note_On_76_Vel_0
Time_Shift_147
Note_On_74_Vel_69
Time_Shift_1
Note_On_71_Vel_71
Time_Shift_48
Note_On_71_Vel_0
Note_On_74_Vel_0
Time_Shift_16
Note_On_50_Vel_0
Time_Shift_10
Note_On_50_Vel_53
Note_On_71_Vel_97
Time_Shift_8
Note_On_67_Vel_69
Time_Shift_43
Note_On_55_Vel_0
Time_Shift_23
Note_On_50_Vel_0
Time_Shift_179
Note_On_59_Vel_52
Time_Shift_3
Note_On_67_Vel_0
Time_Shift_4
Note_On_55_Vel_43
Time_Shift_2
Note_On_50_Vel_53
Time_Shift_23
Note_On_71_Vel_0
Time_Shift_84
Note_On_74_Vel_82
Time_Shift_3
Note_On_71_Vel_62
Time_Shift_48
Note_On_43_Vel_0
Note_On_74_Vel_0
Time_Shift_13
Note_On_76_Vel_85
Time_Shift_10
Note_On_59_Vel_0
Time_Shift_8
Note_On_71_Vel_0
Time_Shift_4
Note_On_71_Vel_80
Time_Shift_3
Note_On_55_Vel_0
Time_Shift_2
Note_On_43_Vel_73
Note_On_74_Vel_83
Time_Shift_5
Note_On_55_Vel_68
Time_Shift_36
Note_On_76_Vel_0
Note_On_71_Vel_0
Time_Shift_73
Note_On_70_Vel_81
Note_On_73_Vel_88
Time_Shift_16
Note_On_74_Vel_0
Time_Shift_14
Note_On_50_Vel_0
Time_Shift_13
Note_On_70_Vel_0
Time_Shift_12
Note_On_73_Vel_0
Time_Shift_52
Note_On_55_Vel_0
Time_Shift_7
Note_On_74_Vel_90
Time_Shift_3
Note_On_71_Vel_84
Time_Shift_1
Note_On_55_Vel_61
Note_On_50_Vel_62
Time_Shift_30
Note_On_71_Vel_0
Time_Shift_79
Note_On_76_Vel_83
Time_Shift_4
Note_On_72_Vel_85
Time_Shift_27
Note_On_74_Vel_0
Time_Shift_24
Note_On_76_Vel_0
Time_Shift_5
Note_On_72_Vel_0
Time_Shift_43
Note_On_55_Vel_0
Time_Shift_3
Note_On_71_Vel_88
Time_Shift_4
Note_On_50_Vel_0
Time_Shift_2
Note_On_67_Vel_77
Time_Shift_2
Note_On_55_Vel_66
Time_Shift_1
Note_On_59_Vel_66
Time_Shift_5
Note_On_50_Vel_62
Time_Shift_22
Note_On_67_Vel_0
Time_Shift_4
Note_On_71_Vel_0
Time_Shift_34
Note_On_59_Vel_0
Time_Shift_37
Note_On_72_Vel_92
Time_Shift_12
Note_On_69_Vel_71
Time_Shift_25
Note_On_72_Vel_0
Time_Shift_25
Note_On_43_Vel_0
Time_Shift_8
Note_On_69_Vel_0
Time_Shift_8
Note_On_55_Vel_0
Time_Shift_38
Note_On_43_Vel_81
Time_Shift_3
Note_On_55_Vel_82
Time_Shift_3
Note_On_72_Vel_92
Time_Shift_1
Note_On_76_Vel_98
Time_Shift_22
Note_On_72_Vel_0
Time_Shift_10
Note_On_76_Vel_0
Time_Shift_154
Note_On_74_Vel_89
Time_Shift_2
Note_On_72_Vel_74
Time_Shift_59
Note_On_50_Vel_0
Time_Shift_10
Note_On_50_Vel_83
Time_Shift_1
Note_On_59_Vel_88
Time_Shift_1
Note_On_79_Vel_99
Time_Shift_5
Note_On_71_Vel_98
Time_Shift_17
Note_On_67_Vel_70
Time_Shift_96
Sustain_On
Time_Shift_150
Note_On_71_Vel_0
Time_Shift_196
Note_On_67_Vel_0
Note_On_59_Vel_0
Time_Shift_1
Note_On_79_Vel_0
Time_Shift_1
Note_On_43_Vel_0
Time_Shift_2
Sustain_Off
Time_Shift_3
Note_On_74_Vel_0
Time_Shift_8
Note_On_50_Vel_0
Note_On_55_Vel_0
Note_On_72_Vel_0
Time_Shift_19
Note_On_42_Vel_92
Time_Shift_7
Note_On_35_Vel_88
Time_Shift_1
Note_On_47_Vel_90
Note_On_83_Vel_106
Time_Shift_3
Note_On_75_Vel_105
Time_Shift_1
Note_On_78_Vel_100
Time_Shift_2
Note_On_71_Vel_97
Time_Shift_2
Note_On_69_Vel_92
Time_Shift_34
Sustain_On
Time_Shift_166
Note_On_72_Vel_89
Time_Shift_19
Note_On_35_Vel_0
Time_Shift_19
Note_On_74_Vel_85
Time_Shift_4
Note_On_69_Vel_0
Time_Shift_8
Note_On_69_Vel_82
Time_Shift_1
Note_On_59_Vel_91
Time_Shift_5
Note_On_63_Vel_79
Time_Shift_9
Note_On_42_Vel_0
Note_On_72_Vel_0
Time_Shift_1
Note_On_75_Vel_0
Time_Shift_2
Note_On_78_Vel_0
Time_Shift_1
Note_On_71_Vel_0
Time_Shift_1
Note_On_83_Vel_0
Time_Shift_5
Sustain_Off
Time_Shift_1
Note_On_74_Vel_0
Time_Shift_12
Note_On_47_Vel_0
Time_Shift_23
Note_On_69_Vel_0
Time_Shift_7
Note_On_63_Vel_0
Time_Shift_8
Note_On_59_Vel_0
Time_Shift_64
Note_On_71_Vel_94
Time_Shift_115
Note_On_73_Vel_96
Time_Shift_13
Note_On_71_Vel_0
Time_Shift_94
Note_On_75_Vel_86
Time_Shift_9
Note_On_73_Vel_0
Time_Shift_72
Note_On_78_Vel_89
Time_Shift_1
Note_On_75_Vel_0
Time_Shift_13
Note_On_52_Vel_69
Time_Shift_19
Note_On_78_Vel_0
Time_Shift_126
Note_On_76_Vel_88
Time_Shift_39
Note_On_76_Vel_0
Time_Shift_15
Note_On_79_Vel_87
Time_Shift_4
Note_On_64_Vel_68
Time_Shift_2
Note_On_55_Vel_69
Time_Shift_1
Note_On_59_Vel_66
Time_Shift_19
Note_On_52_Vel_0
Time_Shift_7
Note_On_79_Vel_0
Time_Shift_11
Note_On_59_Vel_0
Time_Shift_29
Note_On_55_Vel_0
Note_On_64_Vel_0
Time_Shift_49
Note_On_82_Vel_88
Time_Shift_44
Note_On_82_Vel_0
Time_Shift_50
Note_On_51_Vel_70
Time_Shift_7
Note_On_83_Vel_92
Note_On_60_Vel_56
Time_Shift_29
Note_On_83_Vel_0
Time_Shift_6
Note_On_51_Vel_0
Time_Shift_30
Note_On_60_Vel_0
Time_Shift_41
Note_On_84_Vel_90
Time_Shift_30
Note_On_84_Vel_0
Time_Shift_60
Note_On_50_Vel_73
Time_Shift_4
Note_On_85_Vel_94
Time_Shift_30
Note_On_50_Vel_0
Time_Shift_10
Note_On_85_Vel_0
Time_Shift_68
Note_On_86_Vel_91
Time_Shift_44
Note_On_86_Vel_0
Time_Shift_39
Note_On_66_Vel_83
Note_On_57_Vel_70
Time_Shift_9
Note_On_87_Vel_90
Time_Shift_20
Note_On_66_Vel_0
Time_Shift_1
Note_On_57_Vel_0
Time_Shift_14
Note_On_87_Vel_0
Time_Shift_81
Note_On_88_Vel_87
Time_Shift_56
Note_On_88_Vel_0
Time_Shift_30
Note_On_50_Vel_65
Time_Shift_3
Note_On_89_Vel_81
Time_Shift_42
Note_On_89_Vel_0
Time_Shift_1
Note_On_50_Vel_0
Time_Shift_57
Note_On_90_Vel_84
Time_Shift_72
Note_On_43_Vel_78
Note_On_93_Vel_99
Time_Shift_56
Note_On_43_Vel_0
Time_Shift_166
Note_On_91_Vel_91
Time_Shift_4
Note_On_62_Vel_72
Time_Shift_37
Sustain_On
Time_Shift_8
Note_On_90_Vel_0
Time_Shift_18
Note_On_79_Vel_100
Time_Shift_2
Note_On_71_Vel_95
Time_Shift_18
Note_On_93_Vel_0
Time_Shift_273
Note_On_91_Vel_0
Time_Shift_1
Note_On_71_Vel_0
Time_Shift_1
Note_On_79_Vel_0
Sustain_Off
Time_Shift_9
Note_On_62_Vel_0
Time_Shift_11
Note_On_78_Vel_101
Time_Shift_32
Note_On_78_Vel_0
Time_Shift_83
Note_On_79_Vel_96
Time_Shift_34
Note_On_79_Vel_0
Time_Shift_73
Note_On_45_Vel_95
Time_Shift_1
Note_On_57_Vel_102
Time_Shift_2
Note_On_81_Vel_104
Time_Shift_14
Note_On_73_Vel_106
Note_On_67_Vel_89
Time_Shift_27
Sustain_On
Time_Shift_315
Note_On_57_Vel_0
Time_Shift_4
Note_On_76_Vel_110
Time_Shift_4
Note_On_67_Vel_0
Time_Shift_2
Note_On_69_Vel_95
Time_Shift_1
Note_On_57_Vel_91
Time_Shift_1
Note_On_67_Vel_94
Note_On_73_Vel_0
Time_Shift_2
Note_On_61_Vel_72
Time_Shift_155
Note_On_57_Vel_0
Time_Shift_6
Note_On_57_Vel_67
Time_Shift_85
Sustain_Off
Time_Shift_32
Note_On_67_Vel_0
Note_On_69_Vel_0
Time_Shift_4
Note_On_67_Vel_88
Time_Shift_3
Note_On_57_Vel_0
Time_Shift_3
Note_On_69_Vel_80
Time_Shift_2
Note_On_57_Vel_86
Note_On_78_Vel_92
Time_Shift_9
Note_On_81_Vel_0
Time_Shift_2
Note_On_45_Vel_0
Time_Shift_9
Note_On_76_Vel_0
Time_Shift_14
Note_On_61_Vel_0
Time_Shift_15
Note_On_57_Vel_0
Time_Shift_87
Note_On_76_Vel_87
Time_Shift_71
Note_On_57_Vel_75
Time_Shift_1
Note_On_75_Vel_96
Time_Shift_4
Note_On_60_Vel_61
Time_Shift_1
Note_On_66_Vel_76
Time_Shift_3
Note_On_78_Vel_0
Time_Shift_5
Note_On_76_Vel_0
Time_Shift_5
Note_On_67_Vel_0
Time_Shift_17
Note_On_60_Vel_0
Time_Shift_13
Note_On_57_Vel_0
Note_On_69_Vel_0
Note_On_75_Vel_0
Time_Shift_8
Note_On_66_Vel_0
Time_Shift_164
Note_On_69_Vel_82
Time_Shift_18
Note_On_60_Vel_49
Time_Shift_1
Note_On_57_Vel_74
Time_Shift_5
Note_On_66_Vel_79
Time_Shift_16
Note_On_75_Vel_99
Time_Shift_21
Note_On_69_Vel_0
Time_Shift_16
Note_On_60_Vel_0
Time_Shift_66
Note_On_66_Vel_0
Time_Shift_54
Note_On_57_Vel_0
Time_Shift_10
Note_On_75_Vel_0
Time_Shift_45
Note_On_67_Vel_85
Time_Shift_11
Note_On_61_Vel_66
Time_Shift_7
Note_On_57_Vel_68
Note_On_76_Vel_104
Time_Shift_5
Note_On_69_Vel_81
Time_Shift_18
Note_On_67_Vel_0
Time_Shift_9
Note_On_61_Vel_0
Time_Shift_6
Note_On_57_Vel_0
Time_Shift_53
Note_On_69_Vel_0
Time_Shift_120
Note_On_76_Vel_0
Time_Shift_4
Note_On_81_Vel_100
Note_On_45_Vel_81
Time_Shift_3
Note_On_69_Vel_93
Time_Shift_5
Note_On_76_Vel_75
Time_Shift_19
Sustain_On
Time_Shift_109
Note_On_83_Vel_91
Time_Shift_65
Note_On_79_Vel_96
Time_Shift_9
Note_On_67_Vel_89
Time_Shift_4
Note_On_57_Vel_86
Time_Shift_2
Note_On_61_Vel_63
Time_Shift_26
Note_On_81_Vel_0
Time_Shift_7
Note_On_81_Vel_85
Time_Shift_76
Sustain_Off
Time_Shift_9
Note_On_79_Vel_0
Time_Shift_7
Note_On_57_Vel_0
Time_Shift_3
Note_On_79_Vel_96
Note_On_83_Vel_0
Time_Shift_9
Note_On_81_Vel_0
Time_Shift_4
Note_On_45_Vel_0
Time_Shift_8
Note_On_69_Vel_0
Time_Shift_31
Note_On_76_Vel_0
Time_Shift_23
Note_On_67_Vel_0
Time_Shift_7
Note_On_67_Vel_81
Time_Shift_2
Note_On_78_Vel_91
Time_Shift_2
Note_On_57_Vel_78
Time_Shift_23
Note_On_79_Vel_0
Time_Shift_1
Note_On_67_Vel_0
Time_Shift_1
Note_On_57_Vel_0
Time_Shift_10
Note_On_61_Vel_0
Time_Shift_28
Note_On_78_Vel_0
Time_Shift_22
Note_On_76_Vel_88
Time_Shift_34
Note_On_76_Vel_0
Time_Shift_58
Note_On_75_Vel_90
Note_On_57_Vel_71
Time_Shift_4
Note_On_66_Vel_77
Time_Shift_1
Note_On_60_Vel_70
Time_Shift_1
Note_On_69_Vel_75
Time_Shift_24
Note_On_75_Vel_0
Time_Shift_20
Note_On_57_Vel_0
Note_On_60_Vel_0
Note_On_66_Vel_0
Time_Shift_7
Note_On_69_Vel_0
Time_Shift_141
Note_On_69_Vel_75
Time_Shift_31
Note_On_57_Vel_73
Time_Shift_1
Note_On_60_Vel_60
Time_Shift_1
Note_On_75_Vel_105
Note_On_66_Vel_79
Time_Shift_22
Note_On_69_Vel_0
Time_Shift_21
Note_On_66_Vel_0
Time_Shift_2
Note_On_57_Vel_0
Time_Shift_1
Note_On_60_Vel_0
Time_Shift_236
Note_On_76_Vel_97
Time_Shift_3
Note_On_73_Vel_76
Time_Shift_3
Note_On_57_Vel_64
Time_Shift_3
Note_On_69_Vel_69
Note_On_67_Vel_64
Time_Shift_1
Note_On_61_Vel_59
Time_Shift_4
Note_On_75_Vel_0
Time_Shift_29
Note_On_57_Vel_0
Time_Shift_47
Sustain_On
Time_Shift_230
Note_On_73_Vel_0
Time_Shift_4
Note_On_73_Vel_87
Time_Shift_9
Note_On_76_Vel_0
Time_Shift_8
Sustain_Off
Time_Shift_2
Note_On_67_Vel_0
Time_Shift_10
Note_On_67_Vel_62
Time_Shift_4
Note_On_58_Vel_69
Time_Shift_2
Note_On_61_Vel_0
Note_On_69_Vel_0
Time_Shift_1
Note_On_79_Vel_89
Time_Shift_39
Note_On_58_Vel_0
Time_Shift_2
Note_On_79_Vel_0
Time_Shift_4
Note_On_67_Vel_0
Note_On_73_Vel_0
Time_Shift_119
Note_On_78_Vel_72
Time_Shift_50
Note_On_78_Vel_0
Time_Shift_32
Note_On_58_Vel_69
Note_On_66_Vel_73
Time_Shift_3
Note_On_73_Vel_97
Time_Shift_2
Note_On_64_Vel_53
Time_Shift_24
Note_On_66_Vel_0
Note_On_58_Vel_0
Time_Shift_4
Note_On_73_Vel_0
Time_Shift_15
Note_On_74_Vel_64
Time_Shift_27
Note_On_64_Vel_0
Time_Shift_35
Note_On_73_Vel_81
Time_Shift_32
Note_On_73_Vel_0
Time_Shift_2
Note_On_74_Vel_0
Time_Shift_66
Note_On_72_Vel_85
Time_Shift_6
Note_On_58_Vel_66
Time_Shift_2
Note_On_66_Vel_61
Time_Shift_1
Note_On_64_Vel_45
Time_Shift_21
Note_On_72_Vel_0
Time_Shift_1
Note_On_66_Vel_0
Time_Shift_6
Note_On_58_Vel_0
Time_Shift_28
Note_On_64_Vel_0
Time_Shift_112
Note_On_73_Vel_90
Time_Shift_29
Note_On_73_Vel_0
Time_Shift_17
Note_On_59_Vel_53
Note_On_66_Vel_52
Time_Shift_6
Note_On_62_Vel_43
Time_Shift_1
Note_On_76_Vel_65
Time_Shift_28
Note_On_59_Vel_0
Time_Shift_3
Note_On_62_Vel_0
Time_Shift_11
Note_On_66_Vel_0
Time_Shift_8
Note_On_76_Vel_0
Time_Shift_145
Note_On_74_Vel_75
Time_Shift_33
Note_On_74_Vel_0
Time_Shift_7
Note_On_66_Vel_62
Time_Shift_3
Note_On_59_Vel_47
Note_On_71_Vel_78
Time_Shift_2
Note_On_62_Vel_46
Time_Shift_21
Note_On_66_Vel_0
Time_Shift_6
Note_On_71_Vel_0
Time_Shift_21
Note_On_62_Vel_0
Time_Shift_8
Note_On_59_Vel_0
Time_Shift_188
Note_On_73_Vel_73
Time_Shift_1
Note_On_56_Vel_62
Time_Shift_6
Note_On_65_Vel_47
Time_Shift_36
Note_On_56_Vel_0
Time_Shift_22
Note_On_65_Vel_0
Time_Shift_4
Note_On_71_Vel_81
Time_Shift_23
Note_On_73_Vel_0
Time_Shift_27
Note_On_71_Vel_0
Time_Shift_16
Note_On_69_Vel_78
Time_Shift_28
Note_On_71_Vel_85
Time_Shift_33
Note_On_69_Vel_0
Time_Shift_4
Note_On_62_Vel_45
Time_Shift_2
Note_On_57_Vel_70
Time_Shift_5
Note_On_64_Vel_52
Time_Shift_27
Note_On_69_Vel_87
Time_Shift_1
Note_On_71_Vel_0
Time_Shift_9
Note_On_62_Vel_0
Note_On_57_Vel_0
Time_Shift_40
Note_On_69_Vel_0
Time_Shift_19
Note_On_64_Vel_0
Time_Shift_50
Note_On_68_Vel_81
Time_Shift_56
Note_On_68_Vel_0
Time_Shift_46
Note_On_69_Vel_76
Time_Shift_6
Note_On_57_Vel_58
Time_Shift_1
Note_On_61_Vel_61
Time_Shift_1
Note_On_64_Vel_49
Time_Shift_28
Note_On_69_Vel_0
Time_Shift_2
Note_On_57_Vel_0
Time_Shift_1
Note_On_61_Vel_0
Time_Shift_3
Note_On_64_Vel_0
Time_Shift_94
Note_On_83_Vel_73
Time_Shift_83
Note_On_83_Vel_0
Time_Shift_48
Note_On_61_Vel_58
Time_Shift_1
Note_On_81_Vel_69
Time_Shift_2
Note_On_57_Vel_49
Time_Shift_4
Note_On_69_Vel_60
Time_Shift_24
Note_On_61_Vel_0
Time_Shift_1
Note_On_57_Vel_0
Time_Shift_43
Note_On_81_Vel_0
Time_Shift_5
Note_On_69_Vel_0
Time_Shift_37
Note_On_76_Vel_71
Time_Shift_36
Note_On_76_Vel_0
Time_Shift_145
Note_On_79_Vel_78
Time_Shift_2
Note_On_50_Vel_53
Time_Shift_34
Note_On_50_Vel_0
Time_Shift_7
Note_On_79_Vel_0
Time_Shift_13
Note_On_76_Vel_46
Time_Shift_41
Note_On_76_Vel_0
Time_Shift_312
Note_On_78_Vel_59
Time_Shift_52
Note_On_78_Vel_0
Time_Shift_29
Note_On_74_Vel_54
Time_Shift_12
Note_On_66_Vel_34
Time_Shift_2
Note_On_57_Vel_29
Time_Shift_69
Sustain_On
Time_Shift_957
Note_On_74_Vel_0
Time_Shift_26
Sustain_Off
Time_Shift_177
Note_On_66_Vel_0
Time_Shift_23
Note_On_57_Vel_0
