Time_Shift_442
Note_On_65_Vel_47
Time_Shift_22
Note_On_53_Vel_37
Time_Shift_135
Sustain_On
Time_Shift_652
Note_On_65_Vel_0
Time_Shift_8
Note_On_53_Vel_0
Time_Shift_4
Note_On_65_Vel_37
Time_Shift_6
Note_On_53_Vel_34
Time_Shift_17
Sustain_Off
Time_Shift_34
Note_On_65_Vel_0
Time_Shift_8
Note_On_53_Vel_0
Time_Shift_228
Note_On_65_Vel_55
Time_Shift_9
Note_On_53_Vel_47
Time_Shift_178
Sustain_On
Time_Shift_476
Note_On_53_Vel_0
Note_On_65_Vel_0
Time_Shift_6
Note_On_65_Vel_70
Time_Shift_4
Note_On_53_Vel_63
Time_Shift_44
Sustain_Off
Time_Shift_123
Sustain_On
Time_Shift_384
Note_On_53_Vel_0
Note_On_65_Vel_0
Time_Shift_4
Note_On_53_Vel_55
Time_Shift_3
Note_On_65_Vel_52
Time_Shift_35
Note_On_65_Vel_0
Time_Shift_1
Note_On_53_Vel_0
Time_Shift_6
Sustain_Off
Time_Shift_223
Note_On_65_Vel_63
Time_Shift_4
Note_On_53_Vel_59
Time_Shift_35
Note_On_53_Vel_0
Time_Shift_5
Note_On_65_Vel_0
Time_Shift_209
Note_On_65_Vel_73
Time_Shift_1
Note_On_53_Vel_67
Time_Shift_58
Note_On_53_Vel_0
Time_Shift_5
Note_On_65_Vel_0
Time_Shift_215
Note_On_65_Vel_80
Time_Shift_2
Note_On_53_Vel_78
Time_Shift_66
Note_On_65_Vel_0
Time_Shift_77
Note_On_53_Vel_0
Time_Shift_140
Note_On_65_Vel_87
Time_Shift_10
Note_On_46_Vel_62
Time_Shift_11
Note_On_62_Vel_40
Time_Shift_3
Sustain_On
Time_Shift_231
Note_On_62_Vel_0
Time_Shift_9
Note_On_62_Vel_60
Time_Shift_2
Note_On_58_Vel_55
Time_Shift_34
Sustain_Off
Note_On_46_Vel_0
Note_On_65_Vel_0
Time_Shift_3
Note_On_58_Vel_0
Time_Shift_2
Note_On_62_Vel_0
Time_Shift_206
Note_On_62_Vel_47
Time_Shift_1
Note_On_53_Vel_44
Time_Shift_13
Note_On_70_Vel_70
Time_Shift_16
Note_On_62_Vel_0
Time_Shift_6
Note_On_53_Vel_0
Time_Shift_50
Note_On_70_Vel_0
Time_Shift_23
Note_On_72_Vel_67
Time_Shift_75
Note_On_72_Vel_0
Time_Shift_28
Note_On_74_Vel_62
Time_Shift_13
Note_On_46_Vel_46
Time_Shift_41
Sustain_On
Time_Shift_21
Note_On_72_Vel_70
Time_Shift_68
Note_On_70_Vel_76
Time_Shift_70
Note_On_65_Vel_67
Time_Shift_6
Note_On_62_Vel_54
Time_Shift_22
Note_On_58_Vel_40
Time_Shift_8
Note_On_53_Vel_49
Time_Shift_243
Note_On_53_Vel_0
Note_On_62_Vel_0
Time_Shift_6
Note_On_53_Vel_54
Time_Shift_1
Note_On_58_Vel_0
Time_Shift_2
Note_On_62_Vel_89
Time_Shift_2
Note_On_58_Vel_51
Time_Shift_232
Note_On_58_Vel_0
Time_Shift_1
Note_On_70_Vel_0
Time_Shift_1
Note_On_74_Vel_0
Time_Shift_3
Sustain_Off
Time_Shift_1
Note_On_72_Vel_0
Time_Shift_12
Note_On_46_Vel_0
Note_On_53_Vel_0
Note_On_62_Vel_0
Note_On_65_Vel_0
Time_Shift_8
Note_On_65_Vel_82
Time_Shift_2
Note_On_46_Vel_60
Time_Shift_74
Sustain_On
Time_Shift_23
Note_On_46_Vel_0
Time_Shift_143
Note_On_62_Vel_55
Time_Shift_11
Note_On_53_Vel_52
Note_On_58_Vel_43
Time_Shift_261
Note_On_53_Vel_0
Time_Shift_6
Note_On_53_Vel_59
Time_Shift_18
Note_On_70_Vel_76
Time_Shift_6
Sustain_Off
Time_Shift_1
Note_On_62_Vel_0
Time_Shift_1
Note_On_58_Vel_0
Time_Shift_2
Note_On_65_Vel_0
Time_Shift_27
Note_On_53_Vel_0
Time_Shift_42
Note_On_70_Vel_0
Time_Shift_14
Note_On_72_Vel_77
Time_Shift_71
Note_On_72_Vel_0
Time_Shift_33
Note_On_46_Vel_53
Time_Shift_4
Note_On_74_Vel_75
Time_Shift_28
Sustain_On
Time_Shift_42
Note_On_72_Vel_80
Time_Shift_69
Note_On_70_Vel_86
Time_Shift_66
Note_On_74_Vel_0
Time_Shift_7
Note_On_74_Vel_84
Time_Shift_20
Note_On_62_Vel_58
Time_Shift_9
Note_On_53_Vel_57
Time_Shift_2
Note_On_58_Vel_47
Time_Shift_266
Note_On_72_Vel_0
Time_Shift_1
Note_On_70_Vel_0
Note_On_46_Vel_0
Note_On_62_Vel_0
Note_On_74_Vel_0
Time_Shift_5
Sustain_Off
Time_Shift_24
Note_On_79_Vel_94
Time_Shift_12
Note_On_53_Vel_0
Note_On_58_Vel_0
Time_Shift_4
Note_On_53_Vel_56
Time_Shift_6
Note_On_58_Vel_49
Time_Shift_7
Note_On_62_Vel_45
Time_Shift_13
Sustain_On
Time_Shift_229
Note_On_58_Vel_0
Time_Shift_1
Note_On_62_Vel_0
Note_On_53_Vel_0
Time_Shift_2
Sustain_Off
Note_On_79_Vel_0
Time_Shift_25
Note_On_77_Vel_88
Time_Shift_12
Note_On_41_Vel_68
Time_Shift_54
Sustain_On
Time_Shift_54
Note_On_41_Vel_0
Time_Shift_170
Note_On_57_Vel_49
Note_On_63_Vel_56
Time_Shift_7
Note_On_53_Vel_42
Time_Shift_119
Note_On_72_Vel_80
Time_Shift_97
Note_On_74_Vel_84
Time_Shift_14
Note_On_53_Vel_0
Note_On_63_Vel_0
Time_Shift_7
Note_On_57_Vel_0
Time_Shift_1
Note_On_63_Vel_39
Time_Shift_1
Note_On_53_Vel_54
Time_Shift_3
Note_On_57_Vel_53
Time_Shift_149
Note_On_53_Vel_0
Time_Shift_4
Note_On_65_Vel_75
Time_Shift_1
Note_On_53_Vel_52
Time_Shift_22
Note_On_58_Vel_39
Time_Shift_6
Sustain_Off
Time_Shift_2
Note_On_74_Vel_0
Time_Shift_2
Note_On_57_Vel_0
Time_Shift_1
Note_On_63_Vel_0
Time_Shift_4
Note_On_72_Vel_0
Time_Shift_6
Note_On_77_Vel_0
Time_Shift_29
Note_On_46_Vel_67
Note_On_53_Vel_0
Time_Shift_4
Note_On_70_Vel_84
Time_Shift_10
Note_On_65_Vel_0
Time_Shift_47
Sustain_On
Time_Shift_17
Note_On_72_Vel_81
Time_Shift_29
Note_On_46_Vel_0
Time_Shift_48
Note_On_74_Vel_82
Time_Shift_68
Note_On_70_Vel_0
Time_Shift_4
Note_On_70_Vel_96
Time_Shift_3
Note_On_58_Vel_0
Time_Shift_3
Note_On_53_Vel_67
Time_Shift_1
Note_On_58_Vel_59
Time_Shift_2
Note_On_62_Vel_62
Time_Shift_298
Note_On_79_Vel_97
Time_Shift_19
Note_On_53_Vel_0
Note_On_58_Vel_0
Time_Shift_6
Note_On_53_Vel_57
Time_Shift_2
Note_On_62_Vel_0
Time_Shift_1
Note_On_58_Vel_52
Time_Shift_6
Note_On_62_Vel_46
Time_Shift_225
Note_On_62_Vel_0
Note_On_58_Vel_0
Note_On_74_Vel_0
Time_Shift_1
Note_On_79_Vel_0
Note_On_70_Vel_0
Time_Shift_1
Sustain_Off
Time_Shift_11
Note_On_53_Vel_0
Note_On_77_Vel_90
Time_Shift_10
Note_On_41_Vel_67
Time_Shift_6
Note_On_72_Vel_0
Time_Shift_69
Sustain_On
Time_Shift_192
Note_On_41_Vel_0
Time_Shift_4
Note_On_63_Vel_62
Time_Shift_2
Note_On_57_Vel_52
Time_Shift_1
Note_On_53_Vel_56
Time_Shift_104
Note_On_72_Vel_84
Time_Shift_94
Note_On_74_Vel_91
Time_Shift_17
Note_On_53_Vel_0
Note_On_57_Vel_0
Note_On_63_Vel_0
Time_Shift_5
Note_On_53_Vel_65
Time_Shift_4
Note_On_63_Vel_50
Time_Shift_3
Note_On_57_Vel_54
Time_Shift_150
Note_On_53_Vel_0
Note_On_57_Vel_0
Time_Shift_8
Note_On_65_Vel_80
Time_Shift_3
Note_On_57_Vel_55
Note_On_53_Vel_57
Time_Shift_13
Note_On_74_Vel_0
Time_Shift_2
Note_On_77_Vel_0
Note_On_72_Vel_0
Note_On_63_Vel_0
Time_Shift_1
Sustain_Off
Time_Shift_34
Note_On_53_Vel_0
Note_On_57_Vel_0
Time_Shift_28
Note_On_46_Vel_78
Time_Shift_2
Note_On_70_Vel_95
Time_Shift_12
Note_On_65_Vel_0
Time_Shift_20
Sustain_On
Time_Shift_123
Note_On_46_Vel_0
Time_Shift_8
Note_On_46_Vel_65
Time_Shift_15
Note_On_70_Vel_0
Time_Shift_11
Note_On_70_Vel_75
Time_Shift_23
Note_On_53_Vel_65
Time_Shift_28
Note_On_74_Vel_88
Time_Shift_17
Note_On_62_Vel_90
Note_On_82_Vel_96
Time_Shift_32
Note_On_58_Vel_46
Time_Shift_181
Sustain_Off
Time_Shift_7
Note_On_82_Vel_0
Note_On_53_Vel_0
Note_On_62_Vel_0
Time_Shift_1
Note_On_74_Vel_0
Note_On_70_Vel_0
Time_Shift_7
Note_On_53_Vel_53
Time_Shift_2
Note_On_62_Vel_62
Time_Shift_2
Note_On_65_Vel_83
Time_Shift_3
Note_On_46_Vel_0
Time_Shift_8
Note_On_58_Vel_0
Time_Shift_8
Note_On_53_Vel_0
Time_Shift_15
Note_On_62_Vel_0
Time_Shift_13
Note_On_65_Vel_0
Time_Shift_234
Note_On_65_Vel_85
Time_Shift_24
Note_On_46_Vel_67
Time_Shift_6
Sustain_On
Time_Shift_228
Note_On_62_Vel_65
Time_Shift_7
Note_On_58_Vel_51
Time_Shift_6
Note_On_41_Vel_42
Time_Shift_26
Note_On_65_Vel_0
Time_Shift_1
Note_On_46_Vel_0
Time_Shift_2
Note_On_58_Vel_0
Time_Shift_1
Sustain_Off
Time_Shift_6
Note_On_41_Vel_0
Time_Shift_168
Note_On_62_Vel_0
Time_Shift_59
Note_On_70_Vel_75
Time_Shift_3
Note_On_53_Vel_55
Time_Shift_9
Note_On_58_Vel_46
Time_Shift_1
Note_On_62_Vel_44
Time_Shift_26
Note_On_53_Vel_0
Time_Shift_7
Note_On_58_Vel_0
Time_Shift_18
Note_On_62_Vel_0
Time_Shift_32
Note_On_70_Vel_0
Time_Shift_1
Note_On_72_Vel_75
Time_Shift_86
Note_On_72_Vel_0
Time_Shift_15
Note_On_74_Vel_73
Time_Shift_16
Note_On_46_Vel_52
Time_Shift_34
Sustain_On
Time_Shift_25
Note_On_72_Vel_72
Time_Shift_63
Note_On_70_Vel_82
Time_Shift_68
Note_On_65_Vel_76
Time_Shift_18
Note_On_62_Vel_58
Time_Shift_3
Note_On_46_Vel_0
Time_Shift_9
Note_On_58_Vel_48
Time_Shift_2
Note_On_46_Vel_49
Time_Shift_1
Note_On_53_Vel_57
Time_Shift_209
Note_On_46_Vel_0
Note_On_72_Vel_0
Note_On_58_Vel_0
Note_On_74_Vel_0
Time_Shift_1
Note_On_70_Vel_0
Time_Shift_1
Note_On_65_Vel_0
Time_Shift_1
Sustain_Off
Time_Shift_22
Note_On_62_Vel_0
Time_Shift_4
Note_On_62_Vel_90
Time_Shift_5
Note_On_58_Vel_55
Time_Shift_14
Note_On_53_Vel_0
Time_Shift_4
Note_On_53_Vel_43
Time_Shift_30
Note_On_62_Vel_0
Time_Shift_1
Note_On_53_Vel_0
Time_Shift_18
Note_On_58_Vel_0
Time_Shift_236
Note_On_65_Vel_66
Time_Shift_29
Note_On_46_Vel_41
Time_Shift_27
Sustain_On
Time_Shift_186
Note_On_62_Vel_55
Time_Shift_24
Note_On_58_Vel_42
Time_Shift_2
Note_On_53_Vel_44
Time_Shift_36
Note_On_65_Vel_0
Time_Shift_1
Note_On_58_Vel_0
Time_Shift_1
Note_On_62_Vel_0
Note_On_53_Vel_0
Time_Shift_4
Note_On_46_Vel_0
Sustain_Off
Time_Shift_182
Note_On_70_Vel_64
Time_Shift_22
Note_On_53_Vel_45
Time_Shift_45
Note_On_70_Vel_0
Time_Shift_20
Note_On_53_Vel_0
Time_Shift_10
Note_On_72_Vel_59
Time_Shift_54
Note_On_72_Vel_0
Time_Shift_39
Note_On_74_Vel_60
Time_Shift_25
Note_On_46_Vel_43
Time_Shift_43
Note_On_74_Vel_0
Time_Shift_5
Note_On_46_Vel_0
Time_Shift_5
Note_On_72_Vel_63
Time_Shift_41
Sustain_On
Time_Shift_32
Note_On_70_Vel_64
Time_Shift_76
Note_On_74_Vel_69
Time_Shift_39
Note_On_53_Vel_48
Time_Shift_3
Note_On_58_Vel_33
Time_Shift_8
Note_On_62_Vel_28
Time_Shift_214
Sustain_Off
Note_On_74_Vel_0
Note_On_62_Vel_0
Note_On_70_Vel_0
Note_On_58_Vel_0
Time_Shift_1
Note_On_53_Vel_0
Time_Shift_4
Note_On_72_Vel_0
Time_Shift_61
Note_On_79_Vel_91
Time_Shift_35
Note_On_53_Vel_51
Time_Shift_7
Note_On_62_Vel_51
Note_On_58_Vel_41
Time_Shift_19
Sustain_On
Time_Shift_238
Note_On_62_Vel_0
Note_On_58_Vel_0
Time_Shift_1
Note_On_53_Vel_0
Time_Shift_1
Note_On_79_Vel_0
Sustain_Off
Time_Shift_8
Note_On_77_Vel_76
Time_Shift_23
Note_On_41_Vel_52
Time_Shift_52
Sustain_On
Time_Shift_38
Note_On_41_Vel_0
Time_Shift_177
Note_On_77_Vel_0
Time_Shift_1
Note_On_63_Vel_47
Note_On_57_Vel_48
Note_On_53_Vel_49
Time_Shift_11
Sustain_Off
Time_Shift_27
Note_On_63_Vel_0
Time_Shift_1
Note_On_57_Vel_0
Time_Shift_8
Note_On_53_Vel_0
Time_Shift_78
Note_On_72_Vel_62
Time_Shift_86
Note_On_74_Vel_66
Time_Shift_9
Note_On_72_Vel_0
Time_Shift_13
Note_On_63_Vel_26
Time_Shift_3
Note_On_53_Vel_36
Time_Shift_1
Note_On_63_Vel_0
Time_Shift_4
Note_On_57_Vel_22
Time_Shift_33
Note_On_53_Vel_0
Time_Shift_55
Note_On_57_Vel_0
Time_Shift_18
Note_On_74_Vel_0
Time_Shift_47
Note_On_65_Vel_53
Time_Shift_61
Note_On_65_Vel_0
Time_Shift_20
Note_On_46_Vel_48
Time_Shift_3
Note_On_70_Vel_67
Time_Shift_49
Note_On_46_Vel_0
Time_Shift_10
Note_On_70_Vel_0
Time_Shift_10
Note_On_72_Vel_65
Time_Shift_13
Sustain_On
Time_Shift_68
Note_On_74_Vel_62
Time_Shift_56
Note_On_70_Vel_64
Time_Shift_2
Note_On_62_Vel_52
Time_Shift_2
Note_On_58_Vel_47
Time_Shift_2
Note_On_53_Vel_50
Time_Shift_308
Note_On_79_Vel_96
Time_Shift_23
Note_On_53_Vel_0
Note_On_58_Vel_0
Time_Shift_7
Note_On_62_Vel_0
Note_On_74_Vel_0
Time_Shift_4
Note_On_53_Vel_41
Note_On_58_Vel_44
Time_Shift_2
Note_On_74_Vel_38
Time_Shift_5
Note_On_62_Vel_36
Time_Shift_262
Note_On_62_Vel_0
Note_On_74_Vel_0
Note_On_70_Vel_0
Time_Shift_1
Note_On_79_Vel_0
Time_Shift_1
Sustain_Off
Time_Shift_17
Note_On_58_Vel_0
Time_Shift_2
Note_On_77_Vel_71
Time_Shift_6
Note_On_53_Vel_0
Note_On_72_Vel_0
Time_Shift_13
Note_On_41_Vel_31
Time_Shift_51
Note_On_41_Vel_0
Time_Shift_5
Sustain_On
Time_Shift_242
Note_On_63_Vel_54
Time_Shift_16
Note_On_53_Vel_47
Note_On_57_Vel_42
Time_Shift_110
Note_On_72_Vel_65
Time_Shift_13
Note_On_77_Vel_0
Note_On_57_Vel_0
Note_On_53_Vel_0
Time_Shift_1
Note_On_63_Vel_0
Time_Shift_5
Sustain_Off
Time_Shift_81
Note_On_72_Vel_0
Time_Shift_5
Note_On_74_Vel_60
Time_Shift_169
Note_On_74_Vel_0
Time_Shift_21
Note_On_65_Vel_63
Time_Shift_51
Sustain_On
Time_Shift_49
Note_On_70_Vel_82
Time_Shift_17
Note_On_46_Vel_45
Time_Shift_188
Note_On_46_Vel_0
Time_Shift_9
Note_On_46_Vel_58
Time_Shift_83
Note_On_70_Vel_0
Time_Shift_3
Note_On_53_Vel_70
Time_Shift_8
Note_On_70_Vel_73
Time_Shift_46
Note_On_74_Vel_79
Time_Shift_14
Note_On_62_Vel_82
Time_Shift_13
Note_On_53_Vel_0
Time_Shift_4
Note_On_82_Vel_97
Time_Shift_2
Note_On_53_Vel_60
Time_Shift_203
Note_On_62_Vel_0
Note_On_65_Vel_0
Sustain_Off
Time_Shift_1
Note_On_46_Vel_0
Note_On_53_Vel_0
Note_On_82_Vel_0
Note_On_70_Vel_0
Note_On_74_Vel_0
Time_Shift_411
Note_On_69_Vel_65
Time_Shift_121
Note_On_70_Vel_64
Time_Shift_13
Note_On_69_Vel_0
Time_Shift_33
Note_On_70_Vel_0
Time_Shift_110
Note_On_72_Vel_67
Time_Shift_4
Note_On_41_Vel_45
Note_On_69_Vel_54
Time_Shift_54
Note_On_41_Vel_0
Note_On_72_Vel_0
Time_Shift_43
Note_On_69_Vel_0
Time_Shift_14
Note_On_74_Vel_62
Time_Shift_6
Note_On_69_Vel_53
Time_Shift_15
Note_On_74_Vel_0
Time_Shift_34
Note_On_69_Vel_0
Time_Shift_66
Note_On_69_Vel_66
Time_Shift_2
Note_On_76_Vel_70
Time_Shift_19
Note_On_60_Vel_37
Time_Shift_1
Note_On_53_Vel_45
Time_Shift_13
Note_On_69_Vel_0
Time_Shift_22
Sustain_On
Time_Shift_161
Note_On_76_Vel_0
Time_Shift_4
Note_On_60_Vel_0
Time_Shift_1
Note_On_53_Vel_0
Time_Shift_3
Sustain_Off
Time_Shift_37
Note_On_77_Vel_65
Time_Shift_5
Note_On_53_Vel_46
Note_On_69_Vel_47
Time_Shift_1
Note_On_60_Vel_44
Time_Shift_30
Note_On_53_Vel_0
Note_On_60_Vel_0
Time_Shift_3
Note_On_77_Vel_0
Time_Shift_16
Note_On_69_Vel_0
Time_Shift_60
Note_On_79_Vel_72
Time_Shift_5
Note_On_69_Vel_50
Time_Shift_39
Note_On_79_Vel_0
Time_Shift_19
Note_On_69_Vel_0
Time_Shift_50
Note_On_69_Vel_72
Time_Shift_6
Note_On_53_Vel_50
Time_Shift_3
Note_On_81_Vel_76
Time_Shift_3
Note_On_60_Vel_46
Time_Shift_24
Note_On_69_Vel_0
Time_Shift_2
Note_On_81_Vel_0
Time_Shift_5
Note_On_53_Vel_0
Time_Shift_2
Note_On_60_Vel_0
Time_Shift_73
Note_On_71_Vel_78
Time_Shift_2
Note_On_83_Vel_80
Time_Shift_23
Note_On_71_Vel_0
Time_Shift_3
Note_On_83_Vel_0
Time_Shift_96
Note_On_84_Vel_87
Time_Shift_4
Note_On_72_Vel_72
Time_Shift_7
Note_On_53_Vel_55
Time_Shift_5
Note_On_60_Vel_48
Time_Shift_19
Note_On_72_Vel_0
Time_Shift_4
Note_On_84_Vel_0
Time_Shift_22
Note_On_60_Vel_0
Time_Shift_8
Sustain_On
Time_Shift_138
Sustain_Off
Time_Shift_38
Note_On_53_Vel_0
Time_Shift_14
Note_On_86_Vel_86
Time_Shift_6
Note_On_74_Vel_70
Time_Shift_17
Note_On_53_Vel_58
Time_Shift_4
Note_On_60_Vel_45
Time_Shift_28
Sustain_On
Time_Shift_209
Note_On_72_Vel_72
Time_Shift_2
Note_On_84_Vel_72
Time_Shift_11
Note_On_74_Vel_0
Time_Shift_1
Note_On_53_Vel_0
Time_Shift_1
Note_On_86_Vel_0
Time_Shift_2
Note_On_60_Vel_0
Time_Shift_1
Note_On_55_Vel_49
Time_Shift_7
Note_On_53_Vel_47
Time_Shift_1
Note_On_62_Vel_40
Time_Shift_1
Sustain_Off
Time_Shift_6
Note_On_84_Vel_0
Time_Shift_1
Note_On_72_Vel_0
Time_Shift_34
Note_On_55_Vel_0
Note_On_62_Vel_0
Time_Shift_38
Note_On_53_Vel_0
Time_Shift_14
Note_On_83_Vel_78
Time_Shift_4
Note_On_71_Vel_63
Time_Shift_32
Note_On_71_Vel_0
Time_Shift_8
Note_On_83_Vel_0
Time_Shift_72
Note_On_71_Vel_71
Note_On_81_Vel_85
Time_Shift_28
Note_On_53_Vel_43
Time_Shift_1
Note_On_55_Vel_48
Time_Shift_1
Note_On_71_Vel_0
Time_Shift_6
Note_On_62_Vel_35
Time_Shift_9
Note_On_81_Vel_0
Time_Shift_25
Sustain_On
Time_Shift_136
Sustain_Off
Time_Shift_10
Note_On_53_Vel_0
Note_On_55_Vel_0
Note_On_62_Vel_0
Time_Shift_49
Note_On_83_Vel_73
Time_Shift_8
Note_On_71_Vel_48
Time_Shift_5
Note_On_58_Vel_34
Time_Shift_3
Note_On_55_Vel_45
Time_Shift_2
Note_On_62_Vel_33
Time_Shift_2
Note_On_58_Vel_0
Time_Shift_21
Note_On_83_Vel_0
Time_Shift_2
Note_On_55_Vel_0
Time_Shift_23
Note_On_71_Vel_0
Time_Shift_8
Note_On_62_Vel_0
Time_Shift_27
Note_On_79_Vel_77
Time_Shift_1
Note_On_71_Vel_66
Time_Shift_30
Note_On_71_Vel_0
Time_Shift_9
Note_On_79_Vel_0
Time_Shift_85
Note_On_84_Vel_87
Time_Shift_6
Note_On_72_Vel_72
Time_Shift_14
Note_On_58_Vel_50
Note_On_53_Vel_48
Time_Shift_3
Note_On_64_Vel_47
Time_Shift_32
Sustain_On
Time_Shift_146
Note_On_84_Vel_0
Time_Shift_8
Note_On_72_Vel_0
Time_Shift_1
Note_On_84_Vel_76
Time_Shift_6
Note_On_83_Vel_79
Time_Shift_4
Note_On_72_Vel_66
Time_Shift_54
Note_On_84_Vel_0
Time_Shift_4
Note_On_53_Vel_0
Note_On_58_Vel_0
Note_On_64_Vel_0
Time_Shift_4
Note_On_58_Vel_56
Time_Shift_1
Note_On_79_Vel_86
Time_Shift_1
Note_On_53_Vel_53
Time_Shift_3
Note_On_64_Vel_57
Time_Shift_9
Note_On_83_Vel_0
Time_Shift_10
Sustain_Off
Time_Shift_14
Note_On_64_Vel_0
Note_On_58_Vel_0
Note_On_79_Vel_0
Time_Shift_5
Note_On_53_Vel_0
Time_Shift_6
Note_On_72_Vel_0
Time_Shift_281
Note_On_77_Vel_77
Time_Shift_5
Note_On_72_Vel_68
Time_Shift_19
Note_On_57_Vel_51
Note_On_53_Vel_56
Note_On_65_Vel_49
Time_Shift_33
Sustain_On
Time_Shift_172
Note_On_57_Vel_0
Note_On_77_Vel_0
Sustain_Off
Time_Shift_1
Note_On_72_Vel_0
Note_On_53_Vel_0
Time_Shift_12
Note_On_65_Vel_0
Time_Shift_126
Note_On_72_Vel_62
Time_Shift_1
Note_On_69_Vel_49
Time_Shift_5
Note_On_60_Vel_38
Time_Shift_2
Note_On_41_Vel_44
Time_Shift_24
Note_On_69_Vel_0
Time_Shift_38
Note_On_41_Vel_0
Time_Shift_3
Note_On_72_Vel_0
Time_Shift_8
Note_On_60_Vel_0
Time_Shift_24
Note_On_74_Vel_65
Time_Shift_2
Note_On_69_Vel_52
Time_Shift_21
Note_On_74_Vel_0
Time_Shift_22
Note_On_69_Vel_0
Time_Shift_79
Note_On_69_Vel_54
Time_Shift_2
Note_On_76_Vel_66
Time_Shift_24
Note_On_60_Vel_43
Time_Shift_6
Note_On_53_Vel_45
Time_Shift_27
Sustain_On
Time_Shift_156
Note_On_76_Vel_0
Time_Shift_1
Sustain_Off
Time_Shift_1
Note_On_53_Vel_0
Note_On_69_Vel_0
Time_Shift_11
Note_On_60_Vel_0
Time_Shift_31
Note_On_77_Vel_68
Time_Shift_19
Note_On_69_Vel_45
Time_Shift_4
Note_On_53_Vel_40
Time_Shift_4
Note_On_60_Vel_36
Time_Shift_8
Note_On_77_Vel_0
Time_Shift_27
Note_On_69_Vel_0
Time_Shift_23
Note_On_60_Vel_0
Time_Shift_15
Note_On_53_Vel_0
Time_Shift_12
Note_On_79_Vel_73
Time_Shift_6
Note_On_70_Vel_61
Time_Shift_25
Note_On_79_Vel_0
Time_Shift_18
Note_On_70_Vel_0
Time_Shift_56
Note_On_69_Vel_69
Time_Shift_16
Note_On_81_Vel_70
Time_Shift_8
Note_On_60_Vel_31
Time_Shift_2
Note_On_53_Vel_42
Time_Shift_5
Note_On_69_Vel_0
Time_Shift_29
Note_On_81_Vel_0
Time_Shift_15
Note_On_60_Vel_0
Time_Shift_8
Note_On_53_Vel_0
Time_Shift_44
Note_On_71_Vel_75
Time_Shift_2
Note_On_83_Vel_77
Time_Shift_22
Note_On_71_Vel_0
Time_Shift_3
Note_On_83_Vel_0
Time_Shift_91
Note_On_84_Vel_78
Note_On_72_Vel_71
Time_Shift_27
Note_On_53_Vel_44
Time_Shift_3
Note_On_60_Vel_37
Time_Shift_10
Note_On_72_Vel_0
Time_Shift_4
Note_On_84_Vel_0
Time_Shift_32
Note_On_60_Vel_0
Time_Shift_138
Note_On_53_Vel_0
Time_Shift_45
Note_On_86_Vel_74
Time_Shift_6
Note_On_74_Vel_63
Time_Shift_14
Note_On_53_Vel_49
Time_Shift_6
Note_On_60_Vel_40
Time_Shift_29
Sustain_On
Time_Shift_188
Sustain_Off
Note_On_60_Vel_0
Time_Shift_1
Note_On_74_Vel_0
Note_On_86_Vel_0
Time_Shift_20
Note_On_72_Vel_61
Time_Shift_2
Note_On_84_Vel_64
Time_Shift_12
Note_On_53_Vel_0
Time_Shift_4
Note_On_53_Vel_33
Time_Shift_2
Note_On_55_Vel_37
Time_Shift_5
Note_On_62_Vel_35
Time_Shift_1
Note_On_72_Vel_0
Note_On_84_Vel_0
Time_Shift_23
Note_On_53_Vel_0
Time_Shift_1
Note_On_55_Vel_0
Time_Shift_25
Note_On_62_Vel_0
Time_Shift_29
Note_On_83_Vel_81
Time_Shift_13
Note_On_71_Vel_50
Time_Shift_28
Note_On_71_Vel_0
Time_Shift_2
Note_On_83_Vel_0
Time_Shift_72
Note_On_81_Vel_80
Time_Shift_2
Note_On_71_Vel_67
Time_Shift_35
Note_On_55_Vel_40
Time_Shift_6
Note_On_53_Vel_39
Time_Shift_3
Note_On_71_Vel_0
Time_Shift_9
Note_On_62_Vel_38
Time_Shift_39
Sustain_On
Time_Shift_158
Sustain_Off
Time_Shift_5
Note_On_81_Vel_0
Time_Shift_18
Note_On_83_Vel_68
Time_Shift_3
Note_On_53_Vel_0
Note_On_55_Vel_0
Note_On_62_Vel_0
Time_Shift_3
Note_On_71_Vel_52
Time_Shift_2
Note_On_62_Vel_43
Time_Shift_1
Note_On_53_Vel_36
Time_Shift_6
Note_On_55_Vel_38
Time_Shift_16
Note_On_83_Vel_0
Time_Shift_10
Note_On_53_Vel_0
Time_Shift_8
Note_On_71_Vel_0
Time_Shift_8
Note_On_62_Vel_0
Time_Shift_8
Note_On_55_Vel_0
Time_Shift_39
Note_On_79_Vel_77
Time_Shift_3
Note_On_71_Vel_63
Time_Shift_27
Note_On_71_Vel_0
Time_Shift_4
Note_On_79_Vel_0
Time_Shift_115
Note_On_84_Vel_86
Time_Shift_6
Note_On_72_Vel_68
Time_Shift_10
Note_On_53_Vel_42
Time_Shift_7
Note_On_58_Vel_40
Time_Shift_8
Note_On_72_Vel_0
Time_Shift_2
Note_On_84_Vel_0
Time_Shift_11
Note_On_64_Vel_29
Time_Shift_75
Sustain_On
Time_Shift_15
Note_On_64_Vel_0
Time_Shift_116
Note_On_53_Vel_0
Time_Shift_3
Note_On_83_Vel_77
Time_Shift_7
Note_On_53_Vel_37
Time_Shift_2
Note_On_72_Vel_48
Time_Shift_4
Note_On_58_Vel_0
Time_Shift_3
Sustain_Off
Time_Shift_30
Note_On_83_Vel_0
Time_Shift_30
Note_On_79_Vel_88
Time_Shift_5
Note_On_53_Vel_0
Note_On_72_Vel_0
Time_Shift_1
Note_On_58_Vel_47
Time_Shift_4
Note_On_72_Vel_59
Time_Shift_1
Note_On_53_Vel_42
Time_Shift_3
Note_On_64_Vel_42
Time_Shift_60
Note_On_64_Vel_0
Time_Shift_46
Sustain_On
Time_Shift_278
Sustain_Off
Time_Shift_3
Note_On_79_Vel_0
Time_Shift_2
Note_On_77_Vel_75
Time_Shift_1
Note_On_58_Vel_0
Time_Shift_16
Note_On_72_Vel_0
Time_Shift_6
Note_On_72_Vel_48
Time_Shift_9
Note_On_65_Vel_40
Note_On_53_Vel_0
Time_Shift_4
Note_On_57_Vel_37
Time_Shift_1
Note_On_53_Vel_38
Time_Shift_95
Sustain_On
Time_Shift_430
Note_On_65_Vel_0
Time_Shift_11
Note_On_65_Vel_42
Time_Shift_1
Note_On_53_Vel_0
Note_On_72_Vel_0
Note_On_77_Vel_0
Time_Shift_1
Sustain_Off
Note_On_57_Vel_0
Time_Shift_21
Note_On_46_Vel_35
Time_Shift_104
Sustain_On
Time_Shift_212
Sustain_Off
Time_Shift_6
Note_On_46_Vel_0
Time_Shift_1
Note_On_62_Vel_43
Time_Shift_8
Note_On_53_Vel_41
Time_Shift_7
Note_On_58_Vel_32
Time_Shift_30
Note_On_62_Vel_0
Time_Shift_1
Note_On_53_Vel_0
Time_Shift_8
Note_On_58_Vel_0
Time_Shift_217
Note_On_70_Vel_57
Time_Shift_15
Note_On_53_Vel_29
Time_Shift_5
Note_On_58_Vel_23
Time_Shift_30
Note_On_53_Vel_0
Time_Shift_6
Note_On_65_Vel_0
Time_Shift_5
Note_On_70_Vel_0
Time_Shift_45
Note_On_72_Vel_56
Time_Shift_34
Note_On_58_Vel_0
Time_Shift_17
Note_On_72_Vel_0
Time_Shift_48
Note_On_74_Vel_48
Time_Shift_17
Note_On_46_Vel_36
Time_Shift_35
Note_On_74_Vel_0
Time_Shift_10
Note_On_72_Vel_60
Time_Shift_57
Sustain_On
Time_Shift_27
Note_On_70_Vel_57
Time_Shift_10
Note_On_72_Vel_0
Time_Shift_6
Note_On_46_Vel_0
Time_Shift_13
Note_On_70_Vel_0
Time_Shift_2
Sustain_Off
Time_Shift_43
Note_On_65_Vel_53
Time_Shift_11
Note_On_62_Vel_35
Time_Shift_5
Note_On_58_Vel_37
Time_Shift_2
Note_On_53_Vel_23
Time_Shift_16
Note_On_65_Vel_0
Time_Shift_27
Note_On_62_Vel_0
Time_Shift_7
Note_On_58_Vel_0
Time_Shift_8
Note_On_53_Vel_0
Time_Shift_211
Note_On_62_Vel_65
Time_Shift_15
Note_On_58_Vel_50
Time_Shift_4
Note_On_53_Vel_45
Time_Shift_28
Note_On_53_Vel_0
Note_On_58_Vel_0
Time_Shift_45
Note_On_62_Vel_0
Time_Shift_184
Note_On_65_Vel_54
Time_Shift_25
Note_On_46_Vel_39
Time_Shift_49
Sustain_On
Time_Shift_148
Sustain_Off
Time_Shift_13
Note_On_46_Vel_0
Time_Shift_17
Note_On_62_Vel_41
Time_Shift_2
Note_On_58_Vel_35
Note_On_53_Vel_43
Time_Shift_33
Note_On_53_Vel_0
Note_On_62_Vel_0
Time_Shift_5
Note_On_58_Vel_0
Time_Shift_213
Note_On_70_Vel_63
Time_Shift_14
Note_On_65_Vel_0
Time_Shift_5
Note_On_53_Vel_43
Time_Shift_5
Note_On_58_Vel_43
Time_Shift_8
Note_On_62_Vel_25
Time_Shift_33
Note_On_62_Vel_0
Time_Shift_2
Note_On_53_Vel_0
Note_On_58_Vel_0
Time_Shift_6
Note_On_65_Vel_19
Time_Shift_79
Note_On_65_Vel_0
Time_Shift_41
Note_On_70_Vel_0
Time_Shift_4
Note_On_72_Vel_60
Time_Shift_35
Note_On_72_Vel_0
Time_Shift_39
Note_On_74_Vel_55
Time_Shift_17
Note_On_46_Vel_33
Time_Shift_46
Note_On_74_Vel_0
Time_Shift_5
Note_On_46_Vel_0
Time_Shift_3
Note_On_72_Vel_62
Time_Shift_32
Note_On_72_Vel_0
Time_Shift_35
Note_On_70_Vel_60
Time_Shift_78
Note_On_74_Vel_64
Time_Shift_15
Note_On_62_Vel_40
Time_Shift_8
Note_On_53_Vel_40
Time_Shift_1
Note_On_58_Vel_33
Time_Shift_18
Note_On_70_Vel_0
Time_Shift_10
Note_On_62_Vel_0
Time_Shift_1
Note_On_74_Vel_0
Time_Shift_1
Note_On_53_Vel_0
Time_Shift_1
Note_On_58_Vel_0
Time_Shift_274
Note_On_79_Vel_81
Time_Shift_24
Note_On_53_Vel_41
Time_Shift_1
Note_On_58_Vel_35
Time_Shift_10
Note_On_62_Vel_32
Time_Shift_35
Note_On_53_Vel_0
Time_Shift_5
Note_On_62_Vel_0
Time_Shift_3
Note_On_58_Vel_0
Time_Shift_215
Note_On_77_Vel_66
Time_Shift_15
Note_On_41_Vel_46
Time_Shift_73
Sustain_On
Time_Shift_130
Note_On_79_Vel_0
Time_Shift_31
Note_On_41_Vel_0
Time_Shift_2
Note_On_77_Vel_0
Time_Shift_2
Sustain_Off
Time_Shift_25
Note_On_57_Vel_36
Note_On_63_Vel_48
Time_Shift_4
Note_On_53_Vel_42
Time_Shift_33
Note_On_63_Vel_0
Time_Shift_2
Note_On_57_Vel_0
Time_Shift_2
Note_On_53_Vel_0
Time_Shift_84
Note_On_72_Vel_61
Time_Shift_88
Note_On_72_Vel_0
Time_Shift_1
Note_On_74_Vel_61
Time_Shift_28
Note_On_53_Vel_36
Time_Shift_2
Note_On_63_Vel_28
Time_Shift_6
Note_On_57_Vel_20
Time_Shift_24
Note_On_53_Vel_0
Time_Shift_8
Note_On_63_Vel_0
Time_Shift_27
Note_On_57_Vel_0
Time_Shift_2
Note_On_74_Vel_0
Time_Shift_27
Note_On_65_Vel_67
Time_Shift_123
Note_On_65_Vel_0
Time_Shift_14
Note_On_46_Vel_50
Time_Shift_1
Note_On_70_Vel_69
Time_Shift_38
Note_On_46_Vel_0
Time_Shift_23
Note_On_70_Vel_0
Time_Shift_14
Note_On_72_Vel_67
Time_Shift_75
Note_On_72_Vel_0
Time_Shift_2
Note_On_74_Vel_60
Time_Shift_66
Note_On_70_Vel_68
Time_Shift_1
Note_On_58_Vel_45
Time_Shift_2
Note_On_62_Vel_42
Time_Shift_3
Note_On_74_Vel_0
Time_Shift_5
Note_On_53_Vel_37
Time_Shift_23
Note_On_62_Vel_0
Time_Shift_1
Note_On_58_Vel_0
Time_Shift_9
Note_On_53_Vel_0
Time_Shift_12
Note_On_70_Vel_0
Time_Shift_295
Note_On_79_Vel_83
Time_Shift_36
Note_On_74_Vel_40
Time_Shift_1
Note_On_62_Vel_44
Time_Shift_2
Note_On_58_Vel_38
Time_Shift_1
Note_On_74_Vel_0
Time_Shift_2
Note_On_53_Vel_44
Time_Shift_5
Sustain_On
Time_Shift_272
Note_On_53_Vel_0
Note_On_62_Vel_0
Time_Shift_1
Note_On_58_Vel_0
Note_On_79_Vel_0
Time_Shift_1
Sustain_Off
Time_Shift_15
Note_On_77_Vel_68
Time_Shift_15
Note_On_41_Vel_48
Time_Shift_57
Sustain_On
Time_Shift_108
Note_On_41_Vel_0
Time_Shift_102
Note_On_75_Vel_49
Time_Shift_2
Note_On_63_Vel_52
Time_Shift_5
Note_On_53_Vel_37
Note_On_57_Vel_40
Time_Shift_2
Sustain_Off
Time_Shift_31
Note_On_63_Vel_0
Time_Shift_1
Note_On_57_Vel_0
Time_Shift_3
Note_On_53_Vel_0
Time_Shift_118
Note_On_72_Vel_59
Time_Shift_79
Note_On_72_Vel_0
Time_Shift_11
Note_On_74_Vel_62
Time_Shift_24
Note_On_53_Vel_44
Time_Shift_9
Note_On_57_Vel_32
Time_Shift_17
Note_On_63_Vel_23
Time_Shift_8
Note_On_53_Vel_0
Note_On_57_Vel_0
Time_Shift_18
Note_On_77_Vel_0
Time_Shift_31
Note_On_63_Vel_0
Time_Shift_53
Note_On_75_Vel_0
Time_Shift_43
Note_On_74_Vel_0
Time_Shift_23
Note_On_65_Vel_62
Time_Shift_85
Note_On_46_Vel_57
Time_Shift_3
Note_On_70_Vel_78
Time_Shift_15
Sustain_On
Time_Shift_215
Note_On_46_Vel_0
Time_Shift_5
Note_On_46_Vel_54
Time_Shift_26
Note_On_70_Vel_0
Time_Shift_8
Note_On_70_Vel_66
Time_Shift_37
Note_On_53_Vel_69
Time_Shift_4
Note_On_74_Vel_72
Time_Shift_35
Note_On_82_Vel_97
Time_Shift_5
Note_On_62_Vel_81
Time_Shift_203
Note_On_65_Vel_0
Time_Shift_7
Note_On_62_Vel_0
Note_On_74_Vel_0
Time_Shift_1
Note_On_46_Vel_0
Time_Shift_1
Sustain_Off
Note_On_82_Vel_0
Note_On_70_Vel_0
Time_Shift_14
Note_On_53_Vel_0
Time_Shift_520
Note_On_82_Vel_74
Time_Shift_441
Note_On_87_Vel_85
Time_Shift_14
Sustain_On
Time_Shift_29
Note_On_39_Vel_31
Time_Shift_371
Note_On_86_Vel_74
Time_Shift_61
Note_On_82_Vel_0
Time_Shift_4
Note_On_82_Vel_79
Time_Shift_35
Note_On_67_Vel_40
Time_Shift_4
Note_On_51_Vel_32
Time_Shift_18
Note_On_58_Vel_38
Time_Shift_2
Note_On_39_Vel_0
Time_Shift_6
Sustain_Off
Time_Shift_69
Sustain_On
Time_Shift_255
Note_On_84_Vel_82
Time_Shift_22
Note_On_58_Vel_0
Time_Shift_8
Note_On_51_Vel_0
Time_Shift_3
Note_On_58_Vel_29
Note_On_55_Vel_28
Time_Shift_4
Note_On_55_Vel_0
Time_Shift_3
Note_On_51_Vel_29
Time_Shift_1
Note_On_63_Vel_34
Time_Shift_96
Note_On_86_Vel_0
Time_Shift_6
Note_On_86_Vel_85
Time_Shift_94
Note_On_84_Vel_0
Time_Shift_6
Note_On_84_Vel_85
Time_Shift_40
Note_On_86_Vel_0
Time_Shift_5
Note_On_86_Vel_76
Time_Shift_1
Sustain_Off
Time_Shift_25
Note_On_51_Vel_0
Time_Shift_5
Note_On_51_Vel_49
Time_Shift_2
Note_On_84_Vel_0
Time_Shift_5
Note_On_84_Vel_88
Time_Shift_25
Note_On_82_Vel_0
Time_Shift_1
Note_On_67_Vel_0
Note_On_87_Vel_0
Time_Shift_3
Note_On_86_Vel_0
Time_Shift_2
Note_On_58_Vel_0
Time_Shift_2
Note_On_63_Vel_0
Time_Shift_32
Sustain_On
Time_Shift_189
Note_On_80_Vel_84
Time_Shift_68
Note_On_77_Vel_86
Time_Shift_8
Note_On_68_Vel_53
Time_Shift_11
Note_On_51_Vel_0
Time_Shift_1
Note_On_58_Vel_48
Time_Shift_4
Note_On_51_Vel_36
Time_Shift_7
Note_On_62_Vel_37
Time_Shift_257
Note_On_51_Vel_0
Time_Shift_1
Note_On_82_Vel_83
Time_Shift_8
Note_On_51_Vel_36
Time_Shift_6
Note_On_58_Vel_0
Time_Shift_1
Note_On_62_Vel_0
Time_Shift_9
Note_On_58_Vel_54
Time_Shift_4
Note_On_70_Vel_51
Time_Shift_170
Note_On_82_Vel_0
Time_Shift_11
Note_On_82_Vel_76
Time_Shift_22
Note_On_80_Vel_0
Time_Shift_1
Note_On_77_Vel_0
Note_On_68_Vel_0
Time_Shift_1
Note_On_58_Vel_0
Time_Shift_2
Sustain_Off
Time_Shift_10
Note_On_84_Vel_0
Time_Shift_7
Note_On_70_Vel_0
Time_Shift_16
Note_On_87_Vel_88
Time_Shift_3
Note_On_39_Vel_50
Time_Shift_4
Note_On_51_Vel_0
Time_Shift_23
Sustain_On
Time_Shift_218
Note_On_86_Vel_85
Time_Shift_51
Note_On_82_Vel_0
Time_Shift_11
Note_On_82_Vel_87
Time_Shift_18
Note_On_67_Vel_50
Time_Shift_1
Note_On_58_Vel_43
Time_Shift_5
Note_On_51_Vel_44
Time_Shift_5
Note_On_63_Vel_44
Time_Shift_214
Note_On_58_Vel_0
Time_Shift_4
Note_On_84_Vel_81
Time_Shift_3
Note_On_58_Vel_46
Time_Shift_8
Note_On_63_Vel_0
Time_Shift_8
Note_On_51_Vel_0
Time_Shift_2
Note_On_63_Vel_43
Time_Shift_2
Note_On_51_Vel_36
Time_Shift_57
Note_On_86_Vel_0
Time_Shift_5
Note_On_86_Vel_79
Time_Shift_64
Note_On_84_Vel_0
Time_Shift_6
Note_On_84_Vel_81
Time_Shift_30
Sustain_Off
Time_Shift_6
Note_On_87_Vel_0
Time_Shift_4
Note_On_86_Vel_0
Time_Shift_1
Note_On_67_Vel_0
Time_Shift_3
Note_On_82_Vel_0
Note_On_86_Vel_79
Time_Shift_4
Note_On_39_Vel_0
Time_Shift_8
Note_On_51_Vel_0
Time_Shift_6
Note_On_51_Vel_60
Time_Shift_1
Note_On_63_Vel_0
Time_Shift_8
Note_On_58_Vel_0
Time_Shift_8
Note_On_84_Vel_0
Time_Shift_5
Note_On_84_Vel_75
Time_Shift_18
Sustain_On
Time_Shift_218
Note_On_80_Vel_82
Time_Shift_70
Note_On_77_Vel_83
Time_Shift_13
Note_On_68_Vel_64
Time_Shift_17
Note_On_62_Vel_46
Time_Shift_1
Note_On_58_Vel_49
Time_Shift_368
Note_On_75_Vel_88
Time_Shift_16
Sustain_Off
Time_Shift_9
Note_On_84_Vel_0
Time_Shift_2
Note_On_86_Vel_0
Time_Shift_2
Note_On_58_Vel_0
Time_Shift_1
Note_On_62_Vel_0
Note_On_77_Vel_0
Note_On_80_Vel_0
Note_On_68_Vel_0
Note_On_67_Vel_49
Time_Shift_12
Note_On_51_Vel_0
Time_Shift_6
Note_On_63_Vel_38
Time_Shift_5
Note_On_51_Vel_35
Time_Shift_74
Sustain_On
Time_Shift_234
Note_On_67_Vel_0
Note_On_63_Vel_0
Time_Shift_1
Sustain_Off
Note_On_75_Vel_0
Time_Shift_18
Note_On_51_Vel_0
Time_Shift_65
Note_On_87_Vel_63
Time_Shift_9
Note_On_75_Vel_44
Time_Shift_3
Note_On_39_Vel_31
Time_Shift_15
Sustain_On
Time_Shift_100
Note_On_75_Vel_0
Time_Shift_5
Note_On_86_Vel_76
Note_On_75_Vel_61
Time_Shift_74
Note_On_39_Vel_0
Time_Shift_1
Note_On_87_Vel_0
Note_On_86_Vel_0
Note_On_75_Vel_0
Time_Shift_7
Sustain_Off
Time_Shift_58
Note_On_82_Vel_72
Time_Shift_5
Note_On_75_Vel_60
Time_Shift_9
Note_On_67_Vel_48
Time_Shift_10
Note_On_58_Vel_47
Time_Shift_8
Sustain_On
Time_Shift_222
Note_On_67_Vel_0
Time_Shift_3
Note_On_58_Vel_0
Note_On_82_Vel_0
Time_Shift_1
Sustain_Off
Note_On_75_Vel_0
Time_Shift_9
Note_On_84_Vel_63
Time_Shift_15
Note_On_51_Vel_39
Time_Shift_19
Sustain_On
Time_Shift_99
Note_On_86_Vel_68
Time_Shift_3
Note_On_75_Vel_51
Time_Shift_47
Note_On_84_Vel_0
Time_Shift_1
Note_On_86_Vel_0
Note_On_51_Vel_0
Time_Shift_1
Note_On_75_Vel_0
Time_Shift_4
Sustain_Off
Time_Shift_60
Sustain_On
Time_Shift_17
Note_On_84_Vel_71
Time_Shift_10
Note_On_74_Vel_54
Time_Shift_21
Note_On_39_Vel_31
Time_Shift_90
Note_On_74_Vel_0
Time_Shift_8
Note_On_80_Vel_72
Time_Shift_1
Note_On_74_Vel_56
Time_Shift_85
Sustain_Off
Time_Shift_2
Note_On_74_Vel_0
Time_Shift_1
Note_On_39_Vel_0
Time_Shift_2
Note_On_80_Vel_0
Time_Shift_8
Note_On_84_Vel_0
Time_Shift_39
Note_On_68_Vel_45
Time_Shift_2
Note_On_77_Vel_59
Time_Shift_1
Note_On_74_Vel_54
Time_Shift_5
Sustain_On
Time_Shift_2
Note_On_58_Vel_47
Time_Shift_242
Note_On_77_Vel_0
Time_Shift_1
Note_On_68_Vel_0
Note_On_58_Vel_0
Time_Shift_1
Note_On_74_Vel_0
Sustain_Off
Time_Shift_19
Note_On_82_Vel_65
Time_Shift_7
Note_On_70_Vel_56
Time_Shift_11
Note_On_51_Vel_41
Time_Shift_31
Sustain_On
Time_Shift_185
Note_On_70_Vel_0
Time_Shift_4
Sustain_Off
Time_Shift_26
Sustain_On
Time_Shift_25
Note_On_39_Vel_36
Time_Shift_1
Note_On_87_Vel_63
Time_Shift_18
Note_On_75_Vel_23
Time_Shift_108
Note_On_86_Vel_69
Time_Shift_20
Note_On_77_Vel_39
Time_Shift_108
Note_On_87_Vel_0
Note_On_77_Vel_0
Time_Shift_1
Note_On_86_Vel_0
Note_On_39_Vel_0
Note_On_82_Vel_0
Time_Shift_3
Sustain_Off
Time_Shift_1
Note_On_51_Vel_0
Time_Shift_15
Note_On_75_Vel_0
Time_Shift_19
Note_On_82_Vel_58
Time_Shift_4
Note_On_79_Vel_56
Time_Shift_3
Note_On_70_Vel_47
Time_Shift_9
Note_On_67_Vel_37
Time_Shift_1
Note_On_58_Vel_44
Time_Shift_18
Sustain_On
Time_Shift_265
Note_On_67_Vel_0
Time_Shift_1
Note_On_82_Vel_0
Note_On_70_Vel_0
Note_On_58_Vel_0
Time_Shift_2
Note_On_84_Vel_64
Time_Shift_3
Sustain_Off
Time_Shift_5
Note_On_79_Vel_0
Time_Shift_8
Note_On_79_Vel_42
Time_Shift_21
Note_On_51_Vel_30
Time_Shift_10
Sustain_On
Time_Shift_84
Note_On_79_Vel_0
Time_Shift_11
Note_On_79_Vel_59
Time_Shift_1
Note_On_86_Vel_62
Time_Shift_159
Note_On_84_Vel_0
Note_On_86_Vel_0
Time_Shift_1
Note_On_51_Vel_0
Note_On_79_Vel_0
Time_Shift_7
Sustain_Off
Time_Shift_28
Note_On_84_Vel_53
Time_Shift_28
Note_On_39_Vel_32
Time_Shift_5
Note_On_80_Vel_44
Time_Shift_21
Sustain_On
Time_Shift_315
Note_On_80_Vel_0
Time_Shift_5
Note_On_80_Vel_62
Time_Shift_4
Note_On_77_Vel_49
Time_Shift_83
Note_On_84_Vel_0
Time_Shift_46
Note_On_77_Vel_0
Time_Shift_5
Note_On_77_Vel_44
Time_Shift_26
Note_On_68_Vel_33
Time_Shift_4
Note_On_74_Vel_39
Time_Shift_4
Note_On_58_Vel_33
Time_Shift_33
Note_On_80_Vel_0
Time_Shift_1
Note_On_39_Vel_0
Time_Shift_1
Sustain_Off
Time_Shift_88
Sustain_On
Time_Shift_184
Note_On_77_Vel_0
Time_Shift_334
Note_On_75_Vel_49
Time_Shift_25
Note_On_67_Vel_29
Time_Shift_6
Note_On_63_Vel_25
Time_Shift_23
Note_On_74_Vel_0
Time_Shift_1
Note_On_68_Vel_0
Note_On_58_Vel_0
Time_Shift_1
Sustain_Off
Time_Shift_124
Sustain_On
Time_Shift_314
Note_On_67_Vel_0
Time_Shift_5
Sustain_Off
Note_On_63_Vel_0
Time_Shift_1
Note_On_75_Vel_0
Time_Shift_413
Note_On_65_Vel_71
Time_Shift_32
Note_On_62_Vel_23
Time_Shift_3
Sustain_On
Time_Shift_5
Note_On_46_Vel_42
Time_Shift_3
Note_On_62_Vel_0
Time_Shift_330
Note_On_65_Vel_0
Time_Shift_11
Note_On_62_Vel_40
Time_Shift_1
Note_On_65_Vel_35
Time_Shift_1
Note_On_58_Vel_39
Time_Shift_3
Note_On_46_Vel_0
Time_Shift_4
Sustain_Off
Time_Shift_8
Note_On_53_Vel_35
Time_Shift_35
Note_On_53_Vel_0
Time_Shift_2
Note_On_58_Vel_0
Time_Shift_127
Note_On_62_Vel_0
Time_Shift_190
Note_On_70_Vel_67
Time_Shift_24
Note_On_53_Vel_40
Time_Shift_5
Note_On_58_Vel_30
Time_Shift_4
Note_On_65_Vel_0
Time_Shift_2
Note_On_62_Vel_30
Time_Shift_4
Note_On_65_Vel_29
Time_Shift_36
Note_On_62_Vel_0
Time_Shift_3
Note_On_53_Vel_0
Note_On_58_Vel_0
Time_Shift_51
Note_On_72_Vel_68
Time_Shift_1
Note_On_70_Vel_0
Time_Shift_49
Note_On_65_Vel_0
Time_Shift_43
Note_On_72_Vel_0
Time_Shift_31
Note_On_74_Vel_63
Time_Shift_23
Note_On_46_Vel_44
Time_Shift_53
Note_On_46_Vel_0
Time_Shift_3
Note_On_72_Vel_72
Time_Shift_4
Note_On_74_Vel_0
Time_Shift_63
Note_On_72_Vel_0
Time_Shift_6
Note_On_70_Vel_72
Time_Shift_35
Sustain_On
Time_Shift_48
Note_On_65_Vel_64
Time_Shift_17
Note_On_58_Vel_34
Time_Shift_6
Note_On_62_Vel_39
Time_Shift_10
Note_On_53_Vel_48
Time_Shift_154
Note_On_62_Vel_0
Note_On_65_Vel_0
Note_On_53_Vel_0
Note_On_58_Vel_0
Time_Shift_1
Sustain_Off
Time_Shift_1
Note_On_70_Vel_0
Time_Shift_112
Note_On_62_Vel_83
Time_Shift_4
Note_On_58_Vel_53
Time_Shift_1
Note_On_53_Vel_41
Time_Shift_46
Sustain_On
Time_Shift_241
Note_On_58_Vel_0
Note_On_62_Vel_0
Time_Shift_1
Sustain_Off
Time_Shift_12
Note_On_65_Vel_80
Time_Shift_14
Note_On_53_Vel_0
Time_Shift_1
Note_On_62_Vel_47
Time_Shift_3
Note_On_46_Vel_58
Time_Shift_73
Sustain_On
Time_Shift_192
Note_On_62_Vel_0
Time_Shift_8
Note_On_62_Vel_58
Time_Shift_10
Note_On_58_Vel_50
Time_Shift_1
Note_On_53_Vel_57
Time_Shift_193
Note_On_53_Vel_0
Note_On_58_Vel_0
Note_On_65_Vel_0
Time_Shift_1
Note_On_62_Vel_0
Note_On_46_Vel_0
Time_Shift_3
Sustain_Off
Time_Shift_119
Note_On_70_Vel_82
Time_Shift_19
Note_On_53_Vel_47
Time_Shift_9
Note_On_62_Vel_26
Time_Shift_33
Note_On_53_Vel_0
Time_Shift_19
Note_On_62_Vel_0
Time_Shift_35
Note_On_70_Vel_0
Time_Shift_4
Note_On_72_Vel_82
Time_Shift_86
Note_On_72_Vel_0
Time_Shift_32
Note_On_74_Vel_76
Time_Shift_12
Note_On_46_Vel_45
Time_Shift_46
Sustain_On
Time_Shift_17
Note_On_72_Vel_81
Time_Shift_78
Note_On_70_Vel_88
Time_Shift_82
Note_On_74_Vel_0
Time_Shift_5
Note_On_74_Vel_84
Time_Shift_6
Note_On_53_Vel_60
Time_Shift_1
Note_On_58_Vel_49
Note_On_62_Vel_51
Time_Shift_26
Note_On_46_Vel_0
Time_Shift_26
Note_On_72_Vel_0
Time_Shift_7
Sustain_Off
Note_On_70_Vel_0
Time_Shift_54
Note_On_62_Vel_0
Time_Shift_2
Note_On_58_Vel_0
Time_Shift_11
Note_On_74_Vel_0
Time_Shift_15
Note_On_53_Vel_0
Time_Shift_237
Note_On_79_Vel_96
Time_Shift_17
Sustain_On
Time_Shift_2
Note_On_53_Vel_45
Time_Shift_10
Note_On_58_Vel_44
Note_On_62_Vel_47
Time_Shift_274
Note_On_77_Vel_87
Time_Shift_19
Note_On_79_Vel_0
Note_On_62_Vel_0
Note_On_53_Vel_0
Note_On_58_Vel_0
Time_Shift_6
Sustain_Off
Time_Shift_1
Note_On_41_Vel_57
Time_Shift_74
Note_On_41_Vel_0
Time_Shift_5
Sustain_On
Time_Shift_210
Note_On_63_Vel_65
Time_Shift_6
Note_On_57_Vel_53
Time_Shift_8
Note_On_53_Vel_51
Time_Shift_110
Note_On_72_Vel_83
Time_Shift_121
Note_On_74_Vel_90
Time_Shift_21
Note_On_53_Vel_0
Note_On_57_Vel_0
Note_On_63_Vel_0
Time_Shift_5
Note_On_63_Vel_42
Note_On_53_Vel_55
Time_Shift_2
Note_On_57_Vel_55
Time_Shift_5
Note_On_72_Vel_0
Note_On_77_Vel_0
Time_Shift_1
Sustain_Off
Time_Shift_49
Note_On_53_Vel_0
Note_On_63_Vel_0
Time_Shift_8
Note_On_57_Vel_0
Time_Shift_87
Note_On_74_Vel_0
Time_Shift_43
Note_On_65_Vel_75
Time_Shift_89
Note_On_70_Vel_83
Time_Shift_2
Note_On_65_Vel_0
Time_Shift_3
Note_On_46_Vel_59
Time_Shift_37
Sustain_On
Time_Shift_37
Note_On_72_Vel_69
Time_Shift_75
Note_On_74_Vel_84
Time_Shift_72
Note_On_70_Vel_0
Time_Shift_8
Note_On_70_Vel_97
Time_Shift_15
Note_On_46_Vel_0
Time_Shift_10
Note_On_62_Vel_63
Time_Shift_1
Note_On_53_Vel_66
Note_On_58_Vel_56
Time_Shift_348
Note_On_72_Vel_0
Time_Shift_1
Note_On_74_Vel_0
Time_Shift_1
Note_On_70_Vel_0
Time_Shift_3
Sustain_Off
Time_Shift_11
Note_On_79_Vel_101
Time_Shift_9
Note_On_53_Vel_0
Note_On_58_Vel_0
Note_On_62_Vel_0
Time_Shift_11
Note_On_62_Vel_68
Note_On_53_Vel_59
Note_On_58_Vel_63
Time_Shift_66
Note_On_62_Vel_0
Time_Shift_4
Note_On_53_Vel_0
Time_Shift_2
Note_On_58_Vel_0
Time_Shift_266
Note_On_41_Vel_78
Note_On_77_Vel_96
Time_Shift_50
Sustain_On
Time_Shift_271
Note_On_63_Vel_69
Time_Shift_2
Note_On_53_Vel_67
Note_On_57_Vel_56
Time_Shift_123
Note_On_72_Vel_86
Time_Shift_153
Note_On_74_Vel_88
Time_Shift_12
Note_On_53_Vel_0
Note_On_57_Vel_0
Note_On_63_Vel_0
Time_Shift_6
Note_On_63_Vel_70
Time_Shift_4
Note_On_53_Vel_66
Note_On_57_Vel_67
Time_Shift_36
Note_On_79_Vel_0
Time_Shift_20
Note_On_57_Vel_0
Time_Shift_1
Note_On_77_Vel_0
Note_On_41_Vel_0
Sustain_Off
Time_Shift_1
Note_On_53_Vel_0
Note_On_63_Vel_0
Note_On_72_Vel_0
Time_Shift_208
Note_On_65_Vel_86
Time_Shift_110
Note_On_70_Vel_94
Time_Shift_2
Note_On_46_Vel_85
Time_Shift_42
Sustain_On
Time_Shift_31
Note_On_65_Vel_0
Time_Shift_322
Note_On_46_Vel_0
Time_Shift_12
Note_On_46_Vel_72
Time_Shift_68
Note_On_53_Vel_78
Time_Shift_82
Note_On_70_Vel_0
Note_On_74_Vel_0
Time_Shift_4
Note_On_62_Vel_85
Note_On_82_Vel_97
Time_Shift_1
Note_On_70_Vel_98
Time_Shift_1
Note_On_74_Vel_89
Time_Shift_612
Note_On_62_Vel_0
Note_On_53_Vel_0
Note_On_70_Vel_0
Note_On_74_Vel_0
Note_On_82_Vel_0
Sustain_Off
Time_Shift_19
Note_On_46_Vel_0
