Time_Shift_61
Sustain_On
Time_Shift_532
Note_On_59_Vel_47
Time_Shift_676
Sustain_Off
Time_Shift_6
Note_On_66_Vel_52
Time_Shift_22
Note_On_59_Vel_0
Time_Shift_5
Note_On_59_Vel_21
Time_Shift_16
Note_On_54_Vel_29
Time_Shift_17
Note_On_47_Vel_28
Time_Shift_4
Note_On_35_Vel_39
Time_Shift_97
Sustain_On
Time_Shift_476
Note_On_63_Vel_41
Time_Shift_15
Note_On_35_Vel_0
Note_On_47_Vel_0
Time_Shift_6
Note_On_35_Vel_36
Note_On_57_Vel_35
Time_Shift_2
Note_On_59_Vel_0
Time_Shift_3
Note_On_47_Vel_39
Time_Shift_3
Note_On_59_Vel_41
Time_Shift_526
Note_On_47_Vel_0
Note_On_35_Vel_0
Time_Shift_1
Note_On_57_Vel_0
Time_Shift_4
Note_On_63_Vel_0
Note_On_54_Vel_0
Time_Shift_7
Sustain_Off
Time_Shift_15
Note_On_64_Vel_39
Time_Shift_2
Note_On_59_Vel_0
Note_On_66_Vel_0
Time_Shift_9
Note_On_59_Vel_33
Time_Shift_31
Note_On_40_Vel_40
Time_Shift_75
Sustain_On
Time_Shift_519
Note_On_68_Vel_51
Time_Shift_7
Sustain_Off
Time_Shift_1
Note_On_64_Vel_0
Time_Shift_10
Note_On_59_Vel_0
Time_Shift_8
Note_On_40_Vel_0
Time_Shift_2
Note_On_59_Vel_34
Time_Shift_2
Note_On_40_Vel_28
Time_Shift_3
Note_On_56_Vel_23
Time_Shift_9
Note_On_52_Vel_29
Time_Shift_130
Sustain_On
Time_Shift_241
Note_On_69_Vel_54
Time_Shift_52
Sustain_Off
Time_Shift_2
Note_On_68_Vel_0
Note_On_59_Vel_0
Note_On_40_Vel_0
Time_Shift_1
Note_On_52_Vel_0
Note_On_56_Vel_0
Time_Shift_6
Note_On_69_Vel_0
Time_Shift_52
Note_On_70_Vel_57
Time_Shift_34
Note_On_39_Vel_40
Time_Shift_5
Note_On_51_Vel_33
Time_Shift_14
Sustain_On
Time_Shift_239
Note_On_71_Vel_65
Time_Shift_107
Note_On_71_Vel_0
Time_Shift_5
Note_On_71_Vel_69
Time_Shift_25
Note_On_51_Vel_0
Time_Shift_5
Note_On_51_Vel_46
Time_Shift_52
Note_On_59_Vel_44
Time_Shift_1
Note_On_75_Vel_67
Time_Shift_4
Sustain_Off
Time_Shift_3
Note_On_39_Vel_0
Time_Shift_27
Note_On_70_Vel_0
Time_Shift_8
Sustain_On
Time_Shift_13
Note_On_73_Vel_79
Time_Shift_55
Note_On_66_Vel_50
Time_Shift_55
Note_On_71_Vel_0
Time_Shift_228
Note_On_71_Vel_80
Time_Shift_110
Note_On_75_Vel_0
Time_Shift_51
Note_On_59_Vel_0
Time_Shift_2
Note_On_51_Vel_0
Time_Shift_1
Note_On_73_Vel_0
Time_Shift_1
Note_On_71_Vel_0
Time_Shift_1
Note_On_66_Vel_0
Time_Shift_4
Sustain_Off
Time_Shift_13
Note_On_68_Vel_73
Time_Shift_62
Note_On_37_Vel_43
Time_Shift_157
Sustain_On
Time_Shift_417
Note_On_76_Vel_72
Time_Shift_33
Note_On_64_Vel_49
Time_Shift_61
Note_On_49_Vel_38
Time_Shift_16
Note_On_56_Vel_36
Time_Shift_861
Note_On_66_Vel_55
Time_Shift_47
Note_On_49_Vel_0
Time_Shift_1
Note_On_37_Vel_0
Time_Shift_2
Note_On_64_Vel_0
Note_On_56_Vel_0
Time_Shift_1
Note_On_68_Vel_0
Time_Shift_2
Note_On_76_Vel_0
Time_Shift_1
Sustain_Off
Time_Shift_148
Sustain_On
Time_Shift_222
Note_On_66_Vel_0
Time_Shift_147
Note_On_66_Vel_64
Time_Shift_27
Note_On_64_Vel_43
Time_Shift_25
Sustain_Off
Time_Shift_5
Note_On_49_Vel_37
Note_On_58_Vel_35
Time_Shift_88
Sustain_On
Time_Shift_254
Note_On_66_Vel_0
Time_Shift_5
Note_On_66_Vel_58
Time_Shift_163
Note_On_66_Vel_0
Time_Shift_10
Note_On_66_Vel_65
Time_Shift_14
Note_On_64_Vel_0
Time_Shift_9
Note_On_64_Vel_44
Time_Shift_11
Sustain_Off
Note_On_58_Vel_0
Time_Shift_1
Note_On_49_Vel_0
Time_Shift_5
Note_On_47_Vel_42
Time_Shift_2
Note_On_59_Vel_36
Time_Shift_64
Sustain_On
Time_Shift_407
Note_On_66_Vel_0
Time_Shift_7
Sustain_Off
Time_Shift_4
Note_On_66_Vel_60
Note_On_59_Vel_0
Note_On_47_Vel_0
Time_Shift_4
Note_On_64_Vel_0
Time_Shift_11
Note_On_64_Vel_45
Time_Shift_11
Note_On_61_Vel_42
Time_Shift_1
Note_On_46_Vel_41
Time_Shift_8
Sustain_On
Time_Shift_238
Sustain_Off
Time_Shift_267
Note_On_68_Vel_58
Time_Shift_6
Note_On_46_Vel_0
Time_Shift_5
Note_On_61_Vel_0
Time_Shift_3
Note_On_64_Vel_0
Time_Shift_3
Note_On_66_Vel_0
Time_Shift_266
Note_On_66_Vel_54
Time_Shift_64
Sustain_On
Time_Shift_181
Note_On_68_Vel_0
Sustain_Off
Time_Shift_4
Note_On_66_Vel_0
Time_Shift_11
Note_On_64_Vel_48
Time_Shift_23
Note_On_61_Vel_38
Time_Shift_28
Note_On_47_Vel_33
Time_Shift_2
Note_On_57_Vel_26
Time_Shift_66
Sustain_On
Time_Shift_160
Note_On_66_Vel_57
Time_Shift_16
Note_On_54_Vel_37
Time_Shift_7
Note_On_63_Vel_53
Time_Shift_312
Note_On_47_Vel_0
Time_Shift_1
Note_On_61_Vel_0
Note_On_64_Vel_0
Sustain_Off
Note_On_57_Vel_0
Time_Shift_4
Note_On_54_Vel_0
Note_On_66_Vel_0
Time_Shift_1
Note_On_63_Vel_0
Time_Shift_16
Note_On_68_Vel_58
Time_Shift_54
Note_On_40_Vel_43
Time_Shift_97
Sustain_On
Time_Shift_210
Note_On_56_Vel_63
Time_Shift_136
Note_On_56_Vel_0
Time_Shift_6
Note_On_56_Vel_58
Time_Shift_26
Note_On_52_Vel_44
Time_Shift_107
Note_On_64_Vel_70
Time_Shift_230
Note_On_56_Vel_0
Time_Shift_6
Note_On_73_Vel_73
Time_Shift_3
Note_On_56_Vel_46
Time_Shift_3
Note_On_59_Vel_49
Time_Shift_7
Note_On_68_Vel_0
Time_Shift_2
Note_On_40_Vel_0
Time_Shift_4
Sustain_Off
Time_Shift_82
Sustain_On
Time_Shift_333
Note_On_71_Vel_77
Time_Shift_239
Note_On_66_Vel_69
Time_Shift_17
Sustain_Off
Time_Shift_5
Note_On_73_Vel_0
Note_On_64_Vel_0
Time_Shift_1
Note_On_71_Vel_0
Time_Shift_4
Note_On_56_Vel_0
Time_Shift_8
Note_On_59_Vel_0
Time_Shift_15
Note_On_52_Vel_0
Time_Shift_27
Note_On_35_Vel_43
Time_Shift_242
Sustain_On
Time_Shift_54
Note_On_35_Vel_0
Time_Shift_256
Note_On_63_Vel_46
Note_On_59_Vel_44
Time_Shift_4
Note_On_57_Vel_38
Time_Shift_2
Note_On_47_Vel_41
Time_Shift_1
Note_On_35_Vel_35
Time_Shift_524
Note_On_57_Vel_0
Note_On_35_Vel_0
Time_Shift_2
Note_On_47_Vel_0
Note_On_63_Vel_0
Note_On_66_Vel_0
Note_On_59_Vel_0
Time_Shift_5
Sustain_Off
Time_Shift_38
Note_On_64_Vel_54
Time_Shift_32
Note_On_40_Vel_41
Time_Shift_103
Sustain_On
Time_Shift_449
Sustain_Off
Time_Shift_8
Note_On_68_Vel_54
Time_Shift_20
Note_On_40_Vel_0
Note_On_64_Vel_0
Time_Shift_8
Note_On_40_Vel_32
Time_Shift_1
Note_On_59_Vel_37
Time_Shift_1
Note_On_64_Vel_35
Time_Shift_3
Note_On_56_Vel_31
Time_Shift_2
Sustain_On
Time_Shift_1
Note_On_52_Vel_43
Time_Shift_371
Note_On_69_Vel_65
Time_Shift_105
Note_On_52_Vel_0
Time_Shift_1
Note_On_40_Vel_0
Note_On_68_Vel_0
Note_On_59_Vel_0
Time_Shift_1
Note_On_56_Vel_0
Time_Shift_3
Note_On_69_Vel_0
Time_Shift_7
Sustain_Off
Time_Shift_2
Note_On_64_Vel_0
Time_Shift_27
Note_On_70_Vel_65
Time_Shift_45
Note_On_39_Vel_44
Time_Shift_13
Sustain_On
Time_Shift_268
Note_On_71_Vel_72
Time_Shift_93
Note_On_71_Vel_0
Time_Shift_11
Note_On_71_Vel_62
Time_Shift_36
Note_On_51_Vel_45
Time_Shift_53
Note_On_59_Vel_52
Time_Shift_3
Note_On_75_Vel_77
Time_Shift_38
Sustain_Off
Time_Shift_20
Sustain_On
Time_Shift_8
Note_On_73_Vel_80
Time_Shift_68
Note_On_66_Vel_58
Time_Shift_285
Note_On_71_Vel_0
Time_Shift_10
Note_On_71_Vel_82
Time_Shift_232
Note_On_68_Vel_76
Time_Shift_42
Note_On_39_Vel_0
Time_Shift_3
Note_On_73_Vel_0
Note_On_59_Vel_0
Time_Shift_1
Sustain_Off
Note_On_75_Vel_0
Note_On_71_Vel_0
Note_On_66_Vel_0
Time_Shift_1
Note_On_51_Vel_0
Time_Shift_3
Note_On_70_Vel_0
Time_Shift_41
Note_On_37_Vel_45
Time_Shift_251
Sustain_On
Time_Shift_415
Note_On_76_Vel_68
Time_Shift_60
Note_On_64_Vel_30
Time_Shift_30
Note_On_56_Vel_37
Time_Shift_8
Note_On_61_Vel_29
Time_Shift_5
Note_On_49_Vel_35
Time_Shift_1353
Note_On_56_Vel_0
Time_Shift_1
Note_On_37_Vel_0
Note_On_49_Vel_0
Note_On_61_Vel_0
Note_On_68_Vel_0
Time_Shift_1
Note_On_64_Vel_0
Time_Shift_2
Note_On_76_Vel_0
Sustain_Off
Time_Shift_26
Note_On_66_Vel_42
Time_Shift_218
Sustain_On
Time_Shift_146
Note_On_66_Vel_0
Time_Shift_222
Note_On_66_Vel_35
Time_Shift_29
Note_On_64_Vel_28
Time_Shift_30
Note_On_58_Vel_28
Time_Shift_5
Note_On_48_Vel_29
Time_Shift_383
Note_On_66_Vel_0
Time_Shift_10
Note_On_66_Vel_41
Time_Shift_189
Note_On_66_Vel_0
Time_Shift_12
Note_On_66_Vel_30
Time_Shift_16
Note_On_58_Vel_0
Time_Shift_11
Note_On_64_Vel_0
Time_Shift_9
Note_On_64_Vel_36
Time_Shift_2
Note_On_63_Vel_32
Time_Shift_2
Note_On_59_Vel_43
Time_Shift_2
Note_On_48_Vel_0
Time_Shift_2
Note_On_47_Vel_39
Time_Shift_6
Note_On_63_Vel_0
Time_Shift_5
Sustain_Off
Time_Shift_41
Sustain_On
Time_Shift_246
Note_On_66_Vel_0
Time_Shift_310
Note_On_47_Vel_0
Note_On_46_Vel_41
Note_On_59_Vel_0
Time_Shift_2
Note_On_66_Vel_32
Time_Shift_2
Note_On_64_Vel_0
Time_Shift_6
Note_On_54_Vel_27
Time_Shift_1
Note_On_61_Vel_30
Time_Shift_3
Note_On_64_Vel_30
Time_Shift_5
Sustain_Off
Time_Shift_47
Sustain_On
Time_Shift_445
Note_On_66_Vel_0
Time_Shift_10
Note_On_66_Vel_40
Time_Shift_94
Note_On_68_Vel_29
Time_Shift_81
Note_On_66_Vel_0
Time_Shift_6
Note_On_66_Vel_39
Time_Shift_3
Note_On_64_Vel_0
Time_Shift_2
Note_On_46_Vel_0
Sustain_Off
Time_Shift_2
Note_On_61_Vel_0
Time_Shift_1
Note_On_68_Vel_0
Time_Shift_9
Note_On_54_Vel_0
Time_Shift_12
Note_On_35_Vel_25
Time_Shift_180
Sustain_On
Time_Shift_295
Note_On_63_Vel_21
Note_On_65_Vel_35
Time_Shift_4
Note_On_63_Vel_0
Time_Shift_3
Note_On_59_Vel_23
Time_Shift_174
Note_On_66_Vel_0
Time_Shift_11
Note_On_66_Vel_44
Time_Shift_12
Note_On_59_Vel_0
Time_Shift_6
Note_On_59_Vel_36
Time_Shift_6
Note_On_47_Vel_39
Time_Shift_3
Note_On_63_Vel_37
Time_Shift_19
Sustain_Off
Time_Shift_73
Note_On_35_Vel_0
Time_Shift_46
Sustain_On
Time_Shift_315
Note_On_47_Vel_0
Note_On_59_Vel_0
Time_Shift_4
Note_On_68_Vel_49
Time_Shift_1
Note_On_47_Vel_25
Time_Shift_7
Note_On_59_Vel_29
Time_Shift_211
Note_On_68_Vel_0
Time_Shift_5
Note_On_68_Vel_27
Time_Shift_10
Note_On_59_Vel_0
Time_Shift_3
Note_On_47_Vel_0
Time_Shift_3
Note_On_63_Vel_0
Time_Shift_7
Sustain_Off
Time_Shift_7
Note_On_64_Vel_38
Time_Shift_3
Note_On_65_Vel_0
Note_On_66_Vel_0
Time_Shift_19
Note_On_40_Vel_33
Time_Shift_158
Sustain_On
Time_Shift_519
Note_On_56_Vel_24
Time_Shift_3
Note_On_59_Vel_27
Time_Shift_10
Note_On_52_Vel_20
Time_Shift_641
Note_On_71_Vel_76
Time_Shift_22
Note_On_52_Vel_0
Time_Shift_3
Note_On_56_Vel_0
Time_Shift_3
Note_On_40_Vel_0
Time_Shift_3
Note_On_59_Vel_0
Time_Shift_13
Sustain_Off
Time_Shift_20
Note_On_64_Vel_0
Time_Shift_24
Note_On_44_Vel_42
Time_Shift_6
Sustain_On
Time_Shift_131
Note_On_68_Vel_0
Time_Shift_398
Note_On_73_Vel_88
Time_Shift_82
Note_On_63_Vel_24
Time_Shift_11
Note_On_63_Vel_0
Time_Shift_11
Note_On_59_Vel_34
Time_Shift_258
Note_On_75_Vel_84
Time_Shift_154
Note_On_75_Vel_0
Time_Shift_10
Note_On_75_Vel_77
Time_Shift_86
Note_On_78_Vel_82
Time_Shift_45
Note_On_73_Vel_0
Note_On_71_Vel_0
Time_Shift_1
Note_On_59_Vel_0
Time_Shift_3
Note_On_44_Vel_0
Time_Shift_4
Sustain_Off
Time_Shift_19
Note_On_76_Vel_78
Time_Shift_8
Note_On_75_Vel_0
Time_Shift_10
Note_On_44_Vel_36
Time_Shift_25
Note_On_78_Vel_0
Time_Shift_81
Sustain_On
Time_Shift_448
Note_On_70_Vel_47
Time_Shift_24
Note_On_61_Vel_37
Time_Shift_5
Note_On_51_Vel_37
Time_Shift_264
Note_On_75_Vel_77
Time_Shift_336
Note_On_68_Vel_58
Time_Shift_29
Note_On_44_Vel_0
Time_Shift_4
Note_On_51_Vel_0
Time_Shift_4
Note_On_75_Vel_0
Time_Shift_2
Note_On_76_Vel_0
Sustain_Off
Time_Shift_1
Note_On_44_Vel_35
Time_Shift_4
Note_On_61_Vel_0
Note_On_70_Vel_0
Time_Shift_161
Sustain_On
Time_Shift_251
Note_On_51_Vel_40
Time_Shift_102
Note_On_70_Vel_58
Time_Shift_21
Note_On_59_Vel_40
Time_Shift_6
Note_On_63_Vel_45
Time_Shift_373
Note_On_59_Vel_0
Time_Shift_3
Note_On_71_Vel_68
Time_Shift_6
Note_On_59_Vel_38
Time_Shift_153
Sustain_Off
Time_Shift_3
Note_On_68_Vel_0
Note_On_51_Vel_0
Time_Shift_2
Note_On_63_Vel_0
Note_On_59_Vel_0
Time_Shift_4
Note_On_73_Vel_71
Time_Shift_1
Note_On_71_Vel_0
Time_Shift_20
Note_On_44_Vel_0
Time_Shift_21
Note_On_39_Vel_40
Time_Shift_94
Sustain_On
Time_Shift_318
Note_On_75_Vel_64
Time_Shift_174
Note_On_73_Vel_0
Time_Shift_11
Note_On_73_Vel_69
Time_Shift_16
Note_On_39_Vel_0
Time_Shift_6
Note_On_75_Vel_0
Time_Shift_16
Note_On_67_Vel_33
Time_Shift_10
Note_On_58_Vel_28
Time_Shift_1
Note_On_51_Vel_34
Time_Shift_1
Note_On_61_Vel_26
Time_Shift_15
Note_On_70_Vel_0
Time_Shift_627
Note_On_71_Vel_77
Time_Shift_30
Note_On_67_Vel_0
Time_Shift_1
Note_On_61_Vel_0
Time_Shift_2
Note_On_51_Vel_0
Time_Shift_1
Note_On_58_Vel_0
Time_Shift_15
Note_On_73_Vel_0
Time_Shift_29
Note_On_44_Vel_43
Time_Shift_3
Sustain_Off
Time_Shift_114
Sustain_On
Time_Shift_226
Note_On_51_Vel_47
Time_Shift_157
Note_On_73_Vel_82
Time_Shift_24
Note_On_51_Vel_0
Time_Shift_1
Note_On_68_Vel_56
Time_Shift_4
Note_On_59_Vel_45
Time_Shift_3
Note_On_51_Vel_41
Time_Shift_322
Note_On_75_Vel_84
Time_Shift_154
Note_On_75_Vel_0
Time_Shift_4
Note_On_75_Vel_69
Time_Shift_75
Note_On_78_Vel_78
Time_Shift_76
Note_On_76_Vel_82
Time_Shift_36
Sustain_Off
Time_Shift_2
Note_On_59_Vel_0
Time_Shift_1
Note_On_71_Vel_0
Time_Shift_1
Note_On_68_Vel_0
Note_On_44_Vel_0
Note_On_78_Vel_0
Note_On_75_Vel_0
Time_Shift_1
Note_On_73_Vel_0
Note_On_51_Vel_0
Note_On_43_Vel_41
Time_Shift_157
Sustain_On
Time_Shift_355
Note_On_70_Vel_57
Time_Shift_40
Note_On_61_Vel_40
Time_Shift_1
Note_On_51_Vel_41
Time_Shift_267
Note_On_75_Vel_80
Time_Shift_419
Note_On_68_Vel_58
Time_Shift_76
Note_On_76_Vel_0
Note_On_51_Vel_0
Note_On_70_Vel_0
Time_Shift_1
Note_On_61_Vel_0
Note_On_43_Vel_0
Time_Shift_2
Note_On_44_Vel_36
Time_Shift_1
Note_On_75_Vel_0
Time_Shift_3
Sustain_Off
Time_Shift_210
Sustain_On
Time_Shift_388
Note_On_70_Vel_55
Time_Shift_49
Note_On_63_Vel_36
Time_Shift_16
Note_On_68_Vel_0
Time_Shift_3
Note_On_59_Vel_31
Time_Shift_5
Note_On_44_Vel_0
Time_Shift_2
Note_On_68_Vel_22
Time_Shift_2
Note_On_44_Vel_24
Time_Shift_1
Note_On_51_Vel_26
Time_Shift_495
Note_On_71_Vel_55
Time_Shift_310
Note_On_69_Vel_36
Time_Shift_1
Note_On_73_Vel_47
Time_Shift_22
Note_On_59_Vel_0
Note_On_68_Vel_0
Time_Shift_1
Note_On_51_Vel_0
Note_On_71_Vel_0
Note_On_44_Vel_0
Time_Shift_1
Note_On_63_Vel_0
Time_Shift_5
Note_On_47_Vel_23
Time_Shift_2
Sustain_Off
Note_On_35_Vel_29
Time_Shift_18
Note_On_70_Vel_0
Time_Shift_100
Sustain_On
Time_Shift_19
Note_On_35_Vel_0
Time_Shift_525
Note_On_75_Vel_47
Time_Shift_385
Note_On_73_Vel_0
Time_Shift_12
Note_On_73_Vel_42
Time_Shift_19
Note_On_47_Vel_0
Time_Shift_11
Note_On_57_Vel_16
Note_On_47_Vel_28
Time_Shift_8
Note_On_63_Vel_20
Time_Shift_908
Note_On_57_Vel_0
Time_Shift_4
Note_On_75_Vel_0
Note_On_63_Vel_0
Time_Shift_2
Note_On_73_Vel_0
Time_Shift_8
Sustain_Off
Time_Shift_19
Note_On_69_Vel_0
Time_Shift_1
Note_On_66_Vel_59
Time_Shift_14
Note_On_47_Vel_0
Time_Shift_4
Note_On_47_Vel_19
Time_Shift_73
Note_On_47_Vel_0
Time_Shift_61
Sustain_On
Time_Shift_447
Sustain_Off
Time_Shift_17
Note_On_57_Vel_34
Note_On_63_Vel_36
Time_Shift_18
Note_On_47_Vel_32
Time_Shift_5
Note_On_51_Vel_26
Time_Shift_43
Sustain_On
Time_Shift_561
Note_On_51_Vel_0
Time_Shift_10
Note_On_64_Vel_38
Note_On_57_Vel_0
Time_Shift_1
Note_On_47_Vel_0
Sustain_Off
Time_Shift_1
Note_On_66_Vel_0
Note_On_63_Vel_0
Time_Shift_22
Note_On_59_Vel_33
Time_Shift_4
Note_On_40_Vel_33
Time_Shift_62
Sustain_On
Time_Shift_540
Note_On_68_Vel_47
Time_Shift_24
Sustain_Off
Time_Shift_12
Note_On_64_Vel_0
Time_Shift_7
Note_On_64_Vel_29
Note_On_59_Vel_0
Time_Shift_4
Note_On_52_Vel_35
Note_On_56_Vel_26
Time_Shift_1
Note_On_59_Vel_30
Time_Shift_18
Sustain_On
Time_Shift_323
Note_On_40_Vel_0
Time_Shift_58
Note_On_69_Vel_52
Time_Shift_53
Note_On_68_Vel_0
Note_On_52_Vel_0
Note_On_56_Vel_0
Time_Shift_1
Note_On_59_Vel_0
Note_On_64_Vel_0
Time_Shift_7
Note_On_69_Vel_0
Time_Shift_15
Sustain_Off
Time_Shift_48
Note_On_70_Vel_62
Time_Shift_37
Note_On_39_Vel_37
Time_Shift_11
Sustain_On
Time_Shift_256
Note_On_71_Vel_55
Time_Shift_98
Note_On_71_Vel_0
Time_Shift_7
Note_On_71_Vel_63
Time_Shift_74
Note_On_59_Vel_45
Time_Shift_1
Note_On_75_Vel_68
Time_Shift_72
Note_On_73_Vel_76
Time_Shift_51
Note_On_66_Vel_41
Time_Shift_286
Note_On_71_Vel_0
Time_Shift_6
Note_On_71_Vel_71
Time_Shift_216
Note_On_68_Vel_68
Time_Shift_41
Sustain_Off
Time_Shift_3
Note_On_59_Vel_0
Time_Shift_1
Note_On_71_Vel_0
Time_Shift_1
Note_On_75_Vel_0
Note_On_73_Vel_0
Note_On_66_Vel_0
Time_Shift_2
Note_On_39_Vel_0
Time_Shift_14
Note_On_70_Vel_0
Time_Shift_4
Note_On_37_Vel_42
Time_Shift_150
Sustain_On
Time_Shift_381
Note_On_76_Vel_73
Time_Shift_49
Note_On_68_Vel_0
Time_Shift_2
Note_On_64_Vel_41
Time_Shift_9
Note_On_68_Vel_41
Time_Shift_2
Note_On_56_Vel_37
Time_Shift_7
Note_On_61_Vel_32
Time_Shift_1
Note_On_49_Vel_35
Time_Shift_588
Note_On_66_Vel_58
Time_Shift_32
Note_On_56_Vel_0
Note_On_49_Vel_0
Note_On_37_Vel_0
Sustain_Off
Note_On_64_Vel_0
Note_On_76_Vel_0
Note_On_61_Vel_0
Time_Shift_1
Note_On_68_Vel_0
Time_Shift_180
Sustain_On
Time_Shift_315
Note_On_66_Vel_0
Time_Shift_8
Note_On_66_Vel_49
Time_Shift_11
Note_On_64_Vel_53
Time_Shift_27
Sustain_Off
Time_Shift_4
Note_On_58_Vel_40
Time_Shift_1
Note_On_49_Vel_36
Time_Shift_79
Sustain_On
Time_Shift_269
Note_On_66_Vel_0
Time_Shift_11
Note_On_66_Vel_62
Time_Shift_196
Note_On_64_Vel_0
Note_On_66_Vel_0
Time_Shift_4
Note_On_58_Vel_0
Time_Shift_1
Note_On_49_Vel_0
Time_Shift_3
Note_On_66_Vel_59
Time_Shift_4
Note_On_64_Vel_51
Time_Shift_21
Note_On_59_Vel_44
Time_Shift_1
Note_On_47_Vel_41
Time_Shift_15
Sustain_Off
Time_Shift_13
Sustain_On
Time_Shift_484
Note_On_66_Vel_0
Time_Shift_11
Note_On_66_Vel_62
Time_Shift_19
Note_On_64_Vel_0
Time_Shift_7
Note_On_64_Vel_45
Note_On_61_Vel_40
Time_Shift_20
Sustain_Off
Time_Shift_1
Note_On_46_Vel_38
Time_Shift_1
Note_On_59_Vel_0
Time_Shift_1
Note_On_47_Vel_0
Time_Shift_124
Sustain_On
Time_Shift_472
Note_On_68_Vel_61
Time_Shift_150
Sustain_Off
Time_Shift_138
Note_On_66_Vel_0
Time_Shift_8
Note_On_66_Vel_60
Time_Shift_54
Note_On_61_Vel_0
Note_On_64_Vel_0
Time_Shift_7
Note_On_46_Vel_0
Time_Shift_31
Note_On_68_Vel_0
Time_Shift_46
Note_On_47_Vel_43
Time_Shift_58
Note_On_54_Vel_28
Time_Shift_59
Note_On_64_Vel_57
Time_Shift_31
Note_On_61_Vel_44
Time_Shift_2
Note_On_66_Vel_0
Time_Shift_6
Note_On_57_Vel_31
Time_Shift_144
Sustain_On
Time_Shift_102
Note_On_66_Vel_61
Time_Shift_24
Note_On_63_Vel_51
Time_Shift_353
Note_On_68_Vel_51
Time_Shift_5
Sustain_Off
Time_Shift_4
Note_On_47_Vel_0
Time_Shift_1
Note_On_54_Vel_0
Note_On_61_Vel_0
Note_On_57_Vel_0
Time_Shift_1
Note_On_63_Vel_0
Time_Shift_1
Note_On_66_Vel_0
Time_Shift_22
Note_On_40_Vel_38
Time_Shift_186
Sustain_On
Time_Shift_207
Note_On_56_Vel_57
Time_Shift_146
Note_On_56_Vel_0
Time_Shift_6
Note_On_56_Vel_50
Time_Shift_4
Note_On_52_Vel_39
Time_Shift_113
Note_On_64_Vel_0
Time_Shift_10
Note_On_64_Vel_62
Time_Shift_262
Note_On_73_Vel_68
Time_Shift_139
Note_On_59_Vel_42
Time_Shift_476
Note_On_71_Vel_61
Time_Shift_372
Note_On_59_Vel_0
Time_Shift_4
Note_On_66_Vel_57
Time_Shift_7
Note_On_59_Vel_35
Time_Shift_111
Note_On_56_Vel_0
Note_On_59_Vel_0
Time_Shift_1
Note_On_52_Vel_0
Time_Shift_1
Note_On_40_Vel_0
Time_Shift_2
Note_On_68_Vel_0
Note_On_64_Vel_0
Time_Shift_1
Sustain_Off
Note_On_71_Vel_0
Time_Shift_1
Note_On_73_Vel_0
Time_Shift_14
Note_On_35_Vel_38
Note_On_47_Vel_29
Time_Shift_158
Sustain_On
Time_Shift_123
Note_On_35_Vel_0
Time_Shift_294
Note_On_63_Vel_35
Note_On_57_Vel_32
Time_Shift_21
Note_On_47_Vel_0
Time_Shift_10
Note_On_47_Vel_32
Time_Shift_9
Note_On_59_Vel_38
Time_Shift_603
Note_On_47_Vel_0
Time_Shift_2
Note_On_57_Vel_0
Time_Shift_2
Note_On_64_Vel_41
Time_Shift_1
Sustain_Off
Time_Shift_4
Note_On_45_Vel_21
Time_Shift_6
Note_On_45_Vel_0
Time_Shift_42
Note_On_40_Vel_29
Time_Shift_12
Note_On_63_Vel_0
Time_Shift_8
Note_On_66_Vel_0
Time_Shift_69
Sustain_On
Time_Shift_580
Note_On_68_Vel_39
Time_Shift_49
Note_On_40_Vel_0
Note_On_59_Vel_0
Time_Shift_6
Note_On_59_Vel_33
Time_Shift_4
Note_On_40_Vel_29
Time_Shift_1
Note_On_56_Vel_21
Time_Shift_8
Note_On_52_Vel_27
Time_Shift_58
Note_On_68_Vel_0
Time_Shift_11
Note_On_68_Vel_21
Time_Shift_372
Note_On_69_Vel_55
Time_Shift_120
Sustain_Off
Time_Shift_7
Note_On_56_Vel_0
Note_On_59_Vel_0
Note_On_52_Vel_0
Time_Shift_1
Note_On_40_Vel_0
Note_On_69_Vel_0
Note_On_64_Vel_0
Note_On_68_Vel_0
Time_Shift_38
Note_On_70_Vel_50
Time_Shift_8
Note_On_39_Vel_37
Time_Shift_58
Sustain_On
Time_Shift_295
Note_On_71_Vel_58
Time_Shift_104
Note_On_71_Vel_0
Time_Shift_6
Note_On_71_Vel_60
Time_Shift_11
Note_On_51_Vel_42
Time_Shift_86
Note_On_59_Vel_44
Time_Shift_1
Note_On_75_Vel_65
Time_Shift_91
Note_On_73_Vel_58
Time_Shift_71
Note_On_66_Vel_45
Time_Shift_379
Note_On_71_Vel_0
Time_Shift_6
Note_On_71_Vel_62
Time_Shift_17
Note_On_59_Vel_0
Time_Shift_5
Note_On_59_Vel_29
Time_Shift_283
Note_On_68_Vel_58
Time_Shift_93
Note_On_37_Vel_32
Time_Shift_10
Note_On_59_Vel_0
Time_Shift_1
Note_On_39_Vel_0
Time_Shift_2
Note_On_66_Vel_0
Time_Shift_1
Note_On_71_Vel_0
Time_Shift_1
Sustain_Off
Note_On_75_Vel_0
Note_On_51_Vel_0
Time_Shift_2
Note_On_73_Vel_0
Time_Shift_9
Note_On_70_Vel_0
Time_Shift_238
Sustain_On
Time_Shift_744
Note_On_76_Vel_50
Time_Shift_28
Note_On_64_Vel_29
Time_Shift_35
Note_On_37_Vel_0
Time_Shift_4
Note_On_37_Vel_23
Time_Shift_3
Note_On_49_Vel_25
Time_Shift_1890
Note_On_64_Vel_0
Time_Shift_1
Note_On_37_Vel_0
Time_Shift_1
Note_On_76_Vel_0
Note_On_49_Vel_0
Note_On_68_Vel_0
Time_Shift_11
Note_On_66_Vel_29
Time_Shift_10
Sustain_Off
Time_Shift_140
Note_On_66_Vel_0
Time_Shift_75
Sustain_On
Time_Shift_546
Note_On_66_Vel_31
Time_Shift_18
Note_On_48_Vel_27
Time_Shift_4
Note_On_58_Vel_32
Time_Shift_2
Note_On_64_Vel_20
Time_Shift_443
Note_On_66_Vel_0
Time_Shift_10
Note_On_66_Vel_39
Time_Shift_2
Note_On_63_Vel_19
Time_Shift_4
Note_On_63_Vel_0
Time_Shift_199
Note_On_66_Vel_0
Time_Shift_9
Note_On_66_Vel_45
Time_Shift_30
Note_On_64_Vel_0
Time_Shift_4
Note_On_64_Vel_40
Time_Shift_2
Note_On_47_Vel_42
Time_Shift_1
Note_On_59_Vel_44
Time_Shift_42
Note_On_58_Vel_0
Time_Shift_12
Note_On_48_Vel_0
Time_Shift_16
Sustain_Off
Time_Shift_30
Sustain_On
Time_Shift_515
Note_On_66_Vel_0
Time_Shift_8
Note_On_64_Vel_0
Time_Shift_1
Note_On_66_Vel_41
Note_On_54_Vel_30
Time_Shift_4
Note_On_64_Vel_38
Time_Shift_2
Note_On_54_Vel_0
Time_Shift_3
Note_On_47_Vel_0
Note_On_59_Vel_0
Time_Shift_18
Note_On_61_Vel_30
Time_Shift_4
Note_On_46_Vel_36
Time_Shift_48
Sustain_Off
Time_Shift_12
Sustain_On
Time_Shift_430
Note_On_66_Vel_0
Time_Shift_8
Note_On_66_Vel_39
Time_Shift_99
Note_On_68_Vel_45
Time_Shift_31
Sustain_Off
Time_Shift_65
Note_On_66_Vel_0
Time_Shift_3
Note_On_61_Vel_0
Time_Shift_1
Note_On_46_Vel_0
Note_On_64_Vel_0
Time_Shift_162
Sustain_On
Time_Shift_394
Note_On_65_Vel_37
Time_Shift_7
Note_On_63_Vel_19
Time_Shift_6
Note_On_63_Vel_0
Time_Shift_241
Note_On_66_Vel_36
Time_Shift_25
Note_On_63_Vel_16
Time_Shift_16
Note_On_47_Vel_30
Time_Shift_40
Sustain_Off
Time_Shift_15
Note_On_65_Vel_0
Time_Shift_108
Sustain_On
Time_Shift_31
Note_On_68_Vel_0
Time_Shift_405
Note_On_68_Vel_35
Time_Shift_2
Note_On_58_Vel_25
Time_Shift_7
Note_On_58_Vel_0
Time_Shift_308
Sustain_Off
Time_Shift_50
Note_On_64_Vel_31
Time_Shift_29
Note_On_59_Vel_20
Time_Shift_30
Note_On_56_Vel_22
Time_Shift_8
Note_On_52_Vel_20
Time_Shift_59
Note_On_63_Vel_0
Time_Shift_35
Note_On_47_Vel_0
Time_Shift_19
Note_On_66_Vel_0
Time_Shift_207
Note_On_68_Vel_0
Time_Shift_1011
Note_On_59_Vel_0
Note_On_52_Vel_0
Note_On_64_Vel_0
Time_Shift_5
Note_On_56_Vel_0
