Ticks_Per_Beat_384
Tempo_500000
Time_Shift_929
Sustain_On
Time_Shift_1841
Sustain_Off
Time_Shift_145
Note_On_37_Vel_72
Time_Shift_341
Sustain_On
Time_Shift_86
Note_On_44_Vel_64
Time_Shift_263
Note_On_49_Vel_70
Time_Shift_207
Note_On_56_Vel_74
Time_Shift_217
Note_On_59_Vel_78
Time_Shift_250
Note_On_64_Vel_78
Time_Shift_292
Note_On_68_Vel_78
Time_Shift_423
Note_On_76_Vel_75
Time_Shift_766
Note_On_37_Vel_0
Note_On_44_Vel_0
Note_On_49_Vel_0
Time_Shift_1810
Note_On_73_Vel_42
Time_Shift_2
Note_On_64_Vel_0
Time_Shift_3
Sustain_Off
Time_Shift_3
Note_On_64_Vel_39
Note_On_58_Vel_34
Time_Shift_5
Note_On_68_Vel_0
Time_Shift_1
Note_On_56_Vel_0
Note_On_42_Vel_25
Time_Shift_1
Note_On_59_Vel_0
Note_On_76_Vel_0
Time_Shift_1
Note_On_66_Vel_30
Time_Shift_5
Note_On_54_Vel_25
Time_Shift_1118
Sustain_On
Time_Shift_76
Sustain_Off
Time_Shift_123
Sustain_On
Time_Shift_676
Note_On_54_Vel_0
Time_Shift_16
Note_On_42_Vel_0
Note_On_58_Vel_0
Note_On_66_Vel_0
Note_On_73_Vel_0
Time_Shift_714
Sustain_Off
Time_Shift_345
Note_On_64_Vel_0
Time_Shift_879
Note_On_71_Vel_29
Time_Shift_363
Note_On_70_Vel_38
Time_Shift_52
Note_On_71_Vel_0
Time_Shift_249
Note_On_68_Vel_31
Time_Shift_43
Note_On_70_Vel_0
Time_Shift_252
Note_On_68_Vel_0
Time_Shift_2
Note_On_66_Vel_29
Time_Shift_369
Note_On_66_Vel_0
Time_Shift_39
Note_On_75_Vel_42
Time_Shift_10
Note_On_35_Vel_19
Time_Shift_13
Note_On_63_Vel_19
Time_Shift_87
Sustain_On
Time_Shift_305
Note_On_54_Vel_27
Time_Shift_294
Note_On_63_Vel_0
Time_Shift_6
Note_On_73_Vel_53
Time_Shift_2
Note_On_59_Vel_35
Time_Shift_3
Note_On_63_Vel_35
Time_Shift_312
Note_On_54_Vel_0
Note_On_71_Vel_66
Time_Shift_4
Note_On_54_Vel_34
Time_Shift_272
Note_On_61_Vel_35
Note_On_71_Vel_0
Time_Shift_10
Note_On_71_Vel_60
Time_Shift_6
Note_On_64_Vel_46
Time_Shift_9
Note_On_54_Vel_0
Time_Shift_1
Note_On_59_Vel_0
Time_Shift_1
Note_On_35_Vel_0
Note_On_75_Vel_0
Time_Shift_1
Note_On_73_Vel_0
Sustain_Off
Time_Shift_18
Note_On_63_Vel_0
Time_Shift_131
Sustain_On
Time_Shift_166
Note_On_70_Vel_65
Time_Shift_3
Note_On_54_Vel_39
Time_Shift_146
Note_On_70_Vel_0
Time_Shift_7
Note_On_70_Vel_54
Time_Shift_70
Note_On_64_Vel_0
Time_Shift_6
Note_On_64_Vel_44
Time_Shift_13
Sustain_Off
Time_Shift_7
Note_On_59_Vel_40
Time_Shift_1
Note_On_68_Vel_58
Time_Shift_16
Note_On_70_Vel_0
Time_Shift_2
Note_On_61_Vel_0
Time_Shift_8
Note_On_71_Vel_0
Time_Shift_100
Sustain_On
Time_Shift_200
Note_On_66_Vel_60
Time_Shift_2
Note_On_58_Vel_44
Time_Shift_304
Sustain_Off
Time_Shift_2
Note_On_58_Vel_0
Time_Shift_1
Note_On_68_Vel_0
Time_Shift_1
Note_On_59_Vel_0
Note_On_54_Vel_0
Note_On_66_Vel_0
Time_Shift_12
Note_On_64_Vel_0
Time_Shift_2
Note_On_78_Vel_61
Time_Shift_9
Note_On_69_Vel_41
Time_Shift_2
Note_On_47_Vel_26
Time_Shift_9
Note_On_63_Vel_38
Time_Shift_132
Sustain_On
Time_Shift_220
Note_On_54_Vel_38
Time_Shift_233
Note_On_78_Vel_0
Time_Shift_7
Note_On_78_Vel_71
Time_Shift_24
Note_On_59_Vel_42
Time_Shift_318
Note_On_60_Vel_52
Time_Shift_335
Note_On_78_Vel_0
Time_Shift_10
Note_On_78_Vel_68
Time_Shift_1
Note_On_47_Vel_0
Sustain_Off
Note_On_60_Vel_0
Note_On_59_Vel_0
Note_On_54_Vel_0
Time_Shift_4
Note_On_63_Vel_0
Note_On_69_Vel_0
Time_Shift_4
Note_On_69_Vel_38
Time_Shift_7
Note_On_63_Vel_38
Time_Shift_150
Sustain_On
Time_Shift_316
Note_On_48_Vel_31
Time_Shift_334
Note_On_76_Vel_56
Time_Shift_37
Note_On_64_Vel_34
Time_Shift_1
Note_On_78_Vel_0
Note_On_49_Vel_28
Note_On_48_Vel_0
Note_On_68_Vel_38
Note_On_69_Vel_0
Time_Shift_2
Sustain_Off
Note_On_63_Vel_0
Time_Shift_101
Sustain_On
Time_Shift_250
Note_On_75_Vel_72
Time_Shift_16
Note_On_51_Vel_34
Time_Shift_5
Note_On_59_Vel_37
Time_Shift_2
Note_On_66_Vel_38
Time_Shift_242
Note_On_75_Vel_0
Time_Shift_6
Note_On_75_Vel_68
Time_Shift_15
Note_On_51_Vel_0
Time_Shift_2
Note_On_64_Vel_0
Note_On_66_Vel_0
Note_On_68_Vel_0
Note_On_49_Vel_0
Note_On_59_Vel_0
Time_Shift_1
Note_On_76_Vel_0
Time_Shift_2
Sustain_Off
Time_Shift_1
Note_On_52_Vel_35
Time_Shift_1
Note_On_68_Vel_47
Time_Shift_102
Sustain_On
Time_Shift_162
Note_On_52_Vel_0
Time_Shift_5
Note_On_73_Vel_73
Time_Shift_1
Note_On_52_Vel_35
Time_Shift_4
Note_On_59_Vel_41
Time_Shift_248
Note_On_76_Vel_66
Time_Shift_8
Sustain_Off
Time_Shift_10
Note_On_52_Vel_0
Time_Shift_4
Note_On_52_Vel_35
Time_Shift_27
Note_On_75_Vel_0
Time_Shift_54
Sustain_On
Time_Shift_207
Note_On_68_Vel_0
Time_Shift_8
Note_On_59_Vel_0
Time_Shift_1
Note_On_68_Vel_48
Time_Shift_10
Note_On_59_Vel_25
Time_Shift_1
Note_On_53_Vel_35
Time_Shift_132
Note_On_75_Vel_74
Time_Shift_171
Note_On_75_Vel_0
Time_Shift_4
Note_On_75_Vel_70
Time_Shift_3
Note_On_59_Vel_0
Time_Shift_10
Note_On_59_Vel_37
Time_Shift_6
Note_On_68_Vel_0
Note_On_76_Vel_0
Time_Shift_3
Note_On_52_Vel_0
Time_Shift_1
Note_On_53_Vel_0
Time_Shift_1
Note_On_64_Vel_40
Time_Shift_5
Note_On_68_Vel_43
Time_Shift_10
Sustain_Off
Time_Shift_3
Note_On_73_Vel_0
Time_Shift_123
Sustain_On
Time_Shift_133
Note_On_66_Vel_42
Time_Shift_257
Note_On_73_Vel_60
Time_Shift_1
Note_On_64_Vel_0
Time_Shift_4
Note_On_58_Vel_40
Time_Shift_8
Note_On_64_Vel_25
Time_Shift_1
Note_On_68_Vel_0
Time_Shift_10
Sustain_Off
Time_Shift_23
Note_On_59_Vel_0
Time_Shift_69
Note_On_75_Vel_0
Time_Shift_31
Sustain_On
Time_Shift_324
Note_On_63_Vel_38
Time_Shift_129
Note_On_71_Vel_56
Time_Shift_154
Note_On_71_Vel_0
Time_Shift_7
Note_On_71_Vel_44
Time_Shift_2
Note_On_61_Vel_33
Time_Shift_9
Note_On_58_Vel_0
Time_Shift_2
Sustain_Off
Note_On_66_Vel_0
Time_Shift_3
Note_On_73_Vel_0
Time_Shift_115
Sustain_On
Time_Shift_193
Note_On_70_Vel_47
Time_Shift_5
Note_On_54_Vel_27
Time_Shift_301
Note_On_68_Vel_38
Time_Shift_16
Note_On_64_Vel_0
Time_Shift_4
Note_On_59_Vel_29
Time_Shift_1
Note_On_64_Vel_35
Time_Shift_4
Note_On_63_Vel_0
Time_Shift_2
Note_On_61_Vel_0
Time_Shift_1
Note_On_70_Vel_0
Time_Shift_3
Sustain_Off
Time_Shift_23
Note_On_71_Vel_0
Time_Shift_131
Sustain_On
Time_Shift_252
Note_On_66_Vel_30
Time_Shift_28
Note_On_58_Vel_26
Time_Shift_491
Note_On_75_Vel_46
Time_Shift_20
Note_On_66_Vel_0
Time_Shift_4
Note_On_66_Vel_23
Time_Shift_8
Note_On_63_Vel_21
Time_Shift_5
Note_On_35_Vel_20
Time_Shift_1
Note_On_59_Vel_0
Time_Shift_1
Sustain_Off
Time_Shift_1
Note_On_68_Vel_0
Note_On_58_Vel_0
Time_Shift_10
Note_On_54_Vel_0
Note_On_64_Vel_0
Time_Shift_146
Sustain_On
Time_Shift_62
Note_On_35_Vel_0
Time_Shift_200
Note_On_54_Vel_39
Time_Shift_268
Note_On_54_Vel_0
Time_Shift_9
Note_On_73_Vel_64
Time_Shift_2
Note_On_54_Vel_30
Time_Shift_4
Note_On_59_Vel_36
Time_Shift_1
Note_On_63_Vel_0
Time_Shift_10
Note_On_63_Vel_31
Time_Shift_283
Note_On_71_Vel_70
Time_Shift_267
Note_On_71_Vel_0
Time_Shift_9
Note_On_71_Vel_63
Time_Shift_1
Note_On_61_Vel_38
Time_Shift_15
Sustain_Off
Time_Shift_1
Note_On_64_Vel_46
Time_Shift_3
Note_On_63_Vel_0
Time_Shift_3
Note_On_59_Vel_0
Note_On_73_Vel_0
Time_Shift_1
Note_On_54_Vel_0
Time_Shift_1
Note_On_75_Vel_0
Time_Shift_20
Note_On_66_Vel_0
Time_Shift_154
Sustain_On
Time_Shift_152
Note_On_54_Vel_35
Time_Shift_3
Note_On_70_Vel_64
Time_Shift_229
Note_On_70_Vel_0
Time_Shift_10
Note_On_70_Vel_64
Time_Shift_13
Note_On_64_Vel_0
Time_Shift_4
Note_On_64_Vel_38
Time_Shift_6
Note_On_59_Vel_31
Time_Shift_17
Sustain_Off
Time_Shift_2
Note_On_61_Vel_0
Time_Shift_24
Note_On_71_Vel_0
Time_Shift_85
Sustain_On
Time_Shift_89
Note_On_68_Vel_64
Time_Shift_90
Note_On_58_Vel_44
Time_Shift_118
Note_On_66_Vel_59
Time_Shift_147
Note_On_63_Vel_62
Time_Shift_101
Note_On_63_Vel_0
Time_Shift_4
Note_On_63_Vel_57
Time_Shift_33
Note_On_59_Vel_0
Time_Shift_1
Sustain_Off
Time_Shift_1
Note_On_54_Vel_0
Time_Shift_1
Note_On_66_Vel_0
Note_On_68_Vel_0
Time_Shift_1
Note_On_58_Vel_0
Time_Shift_5
Note_On_64_Vel_0
Time_Shift_16
Note_On_70_Vel_0
Time_Shift_30
Note_On_78_Vel_61
Note_On_69_Vel_41
Time_Shift_2
Note_On_35_Vel_31
Time_Shift_144
Sustain_On
Time_Shift_242
Note_On_47_Vel_35
Note_On_75_Vel_34
Time_Shift_8
Note_On_71_Vel_29
Time_Shift_4
Note_On_71_Vel_0
Time_Shift_215
Note_On_78_Vel_0
Time_Shift_4
Note_On_78_Vel_73
Time_Shift_11
Note_On_69_Vel_0
Time_Shift_4
Note_On_69_Vel_37
Time_Shift_3
Note_On_54_Vel_38
Time_Shift_318
Note_On_59_Vel_53
Time_Shift_305
Note_On_78_Vel_0
Time_Shift_10
Note_On_78_Vel_64
Time_Shift_5
Note_On_35_Vel_0
Note_On_69_Vel_0
Time_Shift_8
Note_On_63_Vel_0
Time_Shift_1
Note_On_69_Vel_45
Time_Shift_1
Note_On_40_Vel_33
Time_Shift_2
Note_On_63_Vel_40
Time_Shift_1
Sustain_Off
Time_Shift_2
Note_On_54_Vel_0
Time_Shift_2
Note_On_59_Vel_0
Time_Shift_1
Note_On_47_Vel_0
Time_Shift_82
Note_On_75_Vel_0
Time_Shift_15
Sustain_On
Time_Shift_62
Note_On_40_Vel_0
Time_Shift_273
Note_On_60_Vel_48
Time_Shift_410
Note_On_76_Vel_62
Time_Shift_25
Note_On_64_Vel_38
Note_On_61_Vel_37
Time_Shift_7
Note_On_68_Vel_41
Time_Shift_364
Note_On_75_Vel_77
Time_Shift_7
Note_On_56_Vel_48
Time_Shift_258
Note_On_75_Vel_0
Time_Shift_1
Note_On_61_Vel_0
Note_On_63_Vel_0
Time_Shift_1
Note_On_69_Vel_0
Note_On_60_Vel_0
Time_Shift_1
Note_On_64_Vel_0
Note_On_56_Vel_0
Note_On_76_Vel_0
Time_Shift_8
Note_On_75_Vel_78
Time_Shift_6
Note_On_59_Vel_41
Time_Shift_6
Note_On_68_Vel_0
Note_On_78_Vel_0
Time_Shift_6
Note_On_68_Vel_51
Time_Shift_6
Sustain_Off
Time_Shift_35
Note_On_52_Vel_32
Time_Shift_83
Sustain_On
Time_Shift_194
Note_On_73_Vel_74
Time_Shift_6
Note_On_52_Vel_0
Time_Shift_7
Note_On_53_Vel_39
Time_Shift_1
Note_On_68_Vel_0
Time_Shift_1
Note_On_52_Vel_37
Time_Shift_3
Note_On_68_Vel_42
Time_Shift_260
Note_On_52_Vel_0
Time_Shift_1
Note_On_59_Vel_0
Time_Shift_1
Note_On_53_Vel_0
Time_Shift_3
Sustain_Off
Time_Shift_7
Note_On_75_Vel_0
Time_Shift_10
Note_On_75_Vel_69
Time_Shift_17
Note_On_54_Vel_39
Time_Shift_22
Note_On_73_Vel_0
Time_Shift_74
Sustain_On
Time_Shift_220
Note_On_71_Vel_58
Time_Shift_12
Sustain_Off
Time_Shift_1
Note_On_59_Vel_32
Time_Shift_1
Note_On_64_Vel_40
Time_Shift_1
Note_On_56_Vel_33
Time_Shift_7
Note_On_54_Vel_0
Time_Shift_2
Note_On_75_Vel_0
Time_Shift_86
Sustain_On
Time_Shift_245
Sustain_Off
Time_Shift_19
Note_On_63_Vel_43
Time_Shift_1
Note_On_64_Vel_0
Time_Shift_2
Note_On_59_Vel_0
Time_Shift_14
Note_On_54_Vel_28
Time_Shift_11
Note_On_68_Vel_0
Time_Shift_8
Note_On_56_Vel_0
Time_Shift_20
Note_On_71_Vel_0
Time_Shift_133
Sustain_On
Time_Shift_254
Note_On_54_Vel_0
Time_Shift_4
Note_On_68_Vel_44
Time_Shift_1
Note_On_60_Vel_29
Time_Shift_3
Note_On_54_Vel_20
Time_Shift_332
Sustain_Off
Time_Shift_1
Note_On_54_Vel_0
Time_Shift_1
Note_On_63_Vel_0
Time_Shift_1
Note_On_60_Vel_0
Time_Shift_27
Note_On_64_Vel_39
Time_Shift_27
Note_On_42_Vel_32
Time_Shift_117
Sustain_On
Time_Shift_326
Note_On_70_Vel_45
Time_Shift_20
Note_On_42_Vel_0
Time_Shift_6
Note_On_61_Vel_23
Time_Shift_4
Note_On_54_Vel_19
Note_On_42_Vel_23
Time_Shift_33
Note_On_68_Vel_0
Time_Shift_1
Note_On_64_Vel_0
Sustain_Off
Time_Shift_48
Note_On_54_Vel_0
Time_Shift_39
Sustain_On
Note_On_35_Vel_32
Time_Shift_146
Note_On_42_Vel_0
Time_Shift_5
Note_On_42_Vel_36
Time_Shift_166
Note_On_66_Vel_36
Time_Shift_6
Note_On_54_Vel_39
Time_Shift_514
Note_On_42_Vel_0
Time_Shift_11
Note_On_71_Vel_50
Note_On_42_Vel_22
Time_Shift_14
Note_On_63_Vel_33
Time_Shift_453
Note_On_35_Vel_0
Time_Shift_2
Note_On_42_Vel_0
Time_Shift_1
Sustain_Off
Note_On_54_Vel_0
Time_Shift_18
Note_On_66_Vel_0
Time_Shift_57
Note_On_39_Vel_27
Time_Shift_227
Sustain_On
Time_Shift_8
Note_On_61_Vel_0
Time_Shift_391
Note_On_70_Vel_0
Time_Shift_11
Note_On_70_Vel_44
Time_Shift_23
Note_On_55_Vel_20
Time_Shift_1
Note_On_61_Vel_19
Time_Shift_403
Note_On_70_Vel_0
Time_Shift_4
Note_On_70_Vel_45
Time_Shift_16
Note_On_44_Vel_29
Time_Shift_3
Note_On_63_Vel_0
Time_Shift_2
Sustain_Off
Note_On_59_Vel_27
Time_Shift_2
Note_On_63_Vel_19
Time_Shift_8
Note_On_55_Vel_0
Time_Shift_1
Note_On_39_Vel_0
Time_Shift_3
Note_On_61_Vel_0
Time_Shift_2
Note_On_71_Vel_0
Time_Shift_213
Sustain_On
Time_Shift_296
Note_On_68_Vel_41
Time_Shift_24
Note_On_51_Vel_20
Time_Shift_300
Note_On_58_Vel_37
Time_Shift_3
Note_On_67_Vel_37
Time_Shift_344
Note_On_75_Vel_57
Time_Shift_10
Note_On_60_Vel_26
Time_Shift_11
Note_On_66_Vel_27
Note_On_56_Vel_32
Time_Shift_267
Sustain_Off
Time_Shift_4
Note_On_75_Vel_0
Time_Shift_3
Note_On_44_Vel_0
Time_Shift_1
Note_On_59_Vel_0
Note_On_66_Vel_0
Note_On_58_Vel_0
Note_On_60_Vel_0
Note_On_68_Vel_0
Note_On_51_Vel_0
Note_On_67_Vel_0
Time_Shift_6
Note_On_75_Vel_63
Time_Shift_2
Note_On_49_Vel_26
Time_Shift_4
Note_On_63_Vel_0
Time_Shift_7
Note_On_56_Vel_0
Time_Shift_8
Note_On_70_Vel_0
Time_Shift_11
Note_On_64_Vel_32
Time_Shift_173
Sustain_On
Time_Shift_173
Note_On_56_Vel_31
Time_Shift_7
Note_On_68_Vel_32
Time_Shift_269
Note_On_76_Vel_53
Time_Shift_4
Note_On_61_Vel_31
Time_Shift_331
Note_On_56_Vel_0
Time_Shift_9
Note_On_70_Vel_45
Time_Shift_1
Note_On_56_Vel_32
Time_Shift_309
Sustain_Off
Note_On_68_Vel_0
Time_Shift_1
Note_On_56_Vel_0
Note_On_76_Vel_0
Time_Shift_1
Note_On_75_Vel_0
Note_On_64_Vel_0
Time_Shift_1
Note_On_49_Vel_0
Time_Shift_2
Note_On_61_Vel_0
Time_Shift_3
Note_On_70_Vel_0
Time_Shift_28
Note_On_73_Vel_56
Time_Shift_5
Note_On_44_Vel_30
Time_Shift_154
Sustain_On
Time_Shift_115
Note_On_71_Vel_53
Time_Shift_111
Note_On_51_Vel_34
Time_Shift_195
Note_On_75_Vel_64
Time_Shift_22
Note_On_70_Vel_49
Time_Shift_132
Note_On_59_Vel_34
Time_Shift_1
Note_On_70_Vel_0
Note_On_75_Vel_0
Time_Shift_7
Note_On_75_Vel_55
Time_Shift_2
Note_On_70_Vel_52
Time_Shift_255
Note_On_68_Vel_51
Time_Shift_59
Note_On_44_Vel_0
Time_Shift_9
Note_On_44_Vel_30
Time_Shift_175
Note_On_75_Vel_0
Time_Shift_11
Note_On_75_Vel_62
Time_Shift_24
Note_On_66_Vel_36
Time_Shift_133
Sustain_Off
Time_Shift_3
Note_On_73_Vel_0
Note_On_59_Vel_0
Time_Shift_1
Note_On_66_Vel_0
Note_On_71_Vel_0
Note_On_68_Vel_0
Note_On_51_Vel_0
Note_On_70_Vel_0
Time_Shift_12
Note_On_44_Vel_0
Time_Shift_8
Note_On_75_Vel_0
Time_Shift_3
Note_On_49_Vel_31
Time_Shift_1
Note_On_75_Vel_54
Time_Shift_7
Note_On_64_Vel_50
Time_Shift_112
Sustain_On
Time_Shift_164
Note_On_56_Vel_35
Time_Shift_56
Note_On_76_Vel_58
Time_Shift_15
Note_On_68_Vel_47
Time_Shift_103
Note_On_75_Vel_0
Time_Shift_5
Note_On_75_Vel_66
Time_Shift_93
Note_On_73_Vel_63
Time_Shift_71
Note_On_75_Vel_0
Time_Shift_8
Note_On_75_Vel_70
Time_Shift_69
Sustain_Off
Time_Shift_3
Note_On_68_Vel_0
Time_Shift_1
Note_On_49_Vel_0
Time_Shift_1
Note_On_76_Vel_0
Time_Shift_1
Note_On_75_Vel_0
Time_Shift_2
Note_On_73_Vel_0
Time_Shift_22
Note_On_64_Vel_0
Time_Shift_5
Note_On_64_Vel_33
Time_Shift_5
Note_On_78_Vel_61
Time_Shift_9
Note_On_68_Vel_36
Time_Shift_150
Sustain_On
Time_Shift_260
Note_On_49_Vel_22
Time_Shift_1
Note_On_70_Vel_45
Time_Shift_174
Note_On_76_Vel_60
Time_Shift_180
Note_On_68_Vel_0
Time_Shift_3
Sustain_Off
Note_On_78_Vel_0
Note_On_70_Vel_0
Note_On_49_Vel_0
Time_Shift_1
Note_On_64_Vel_0
Time_Shift_3
Note_On_56_Vel_0
Time_Shift_1
Note_On_75_Vel_59
Time_Shift_2
Note_On_44_Vel_35
Time_Shift_1
Note_On_76_Vel_0
Time_Shift_1
Note_On_73_Vel_57
Time_Shift_180
Sustain_On
Time_Shift_182
Note_On_51_Vel_33
Time_Shift_1
Note_On_71_Vel_61
Time_Shift_301
Note_On_75_Vel_0
Time_Shift_2
Sustain_Off
Time_Shift_3
Note_On_73_Vel_0
Note_On_44_Vel_0
Time_Shift_2
Note_On_51_Vel_0
Time_Shift_3
Note_On_75_Vel_68
Time_Shift_6
Note_On_70_Vel_51
Time_Shift_7
Note_On_71_Vel_0
Time_Shift_8
Note_On_71_Vel_43
Note_On_49_Vel_32
Time_Shift_161
Sustain_On
Time_Shift_165
Note_On_68_Vel_61
Time_Shift_5
Note_On_59_Vel_46
Time_Shift_157
Note_On_77_Vel_78
Time_Shift_179
Note_On_77_Vel_0
Time_Shift_9
Note_On_77_Vel_66
Time_Shift_7
Note_On_68_Vel_0
Time_Shift_4
Note_On_73_Vel_49
Time_Shift_4
Note_On_68_Vel_37
Time_Shift_3
Note_On_58_Vel_36
Time_Shift_2
Note_On_46_Vel_36
Time_Shift_2
Note_On_58_Vel_0
Time_Shift_4
Sustain_Off
Time_Shift_6
Note_On_59_Vel_0
Time_Shift_1
Note_On_49_Vel_0
Time_Shift_2
Note_On_75_Vel_0
Time_Shift_2
Note_On_71_Vel_0
Time_Shift_8
Note_On_70_Vel_0
Time_Shift_154
Note_On_68_Vel_0
Time_Shift_7
Sustain_On
Time_Shift_285
Note_On_73_Vel_0
Time_Shift_4
Note_On_78_Vel_56
Time_Shift_2
Note_On_73_Vel_42
Time_Shift_8
Note_On_61_Vel_32
Time_Shift_2
Sustain_Off
Time_Shift_7
Note_On_77_Vel_0
Time_Shift_8
Note_On_66_Vel_26
Time_Shift_115
Sustain_On
Time_Shift_355
Note_On_67_Vel_50
Time_Shift_16
Note_On_47_Vel_28
Time_Shift_7
Sustain_Off
Time_Shift_16
Note_On_46_Vel_0
Time_Shift_8
Note_On_66_Vel_0
Time_Shift_97
Sustain_On
Time_Shift_7
Note_On_78_Vel_0
Time_Shift_80
Note_On_68_Vel_65
Time_Shift_166
Note_On_73_Vel_0
Time_Shift_5
Note_On_73_Vel_65
Time_Shift_16
Note_On_63_Vel_44
Time_Shift_13
Note_On_54_Vel_37
Time_Shift_153
Note_On_71_Vel_68
Time_Shift_182
Note_On_67_Vel_0
Note_On_61_Vel_0
Note_On_73_Vel_0
Time_Shift_1
Note_On_68_Vel_0
Note_On_47_Vel_0
Note_On_54_Vel_0
Time_Shift_3
Note_On_70_Vel_62
Time_Shift_2
Sustain_Off
Time_Shift_9
Note_On_63_Vel_0
Time_Shift_9
Note_On_59_Vel_34
Time_Shift_2
Note_On_63_Vel_35
Time_Shift_8
Note_On_66_Vel_39
Time_Shift_4
Note_On_71_Vel_0
Time_Shift_123
Sustain_On
Time_Shift_296
Note_On_75_Vel_66
Time_Shift_42
Note_On_37_Vel_25
Time_Shift_3
Note_On_49_Vel_27
Time_Shift_175
Note_On_73_Vel_65
Time_Shift_175
Note_On_70_Vel_0
Time_Shift_11
Note_On_70_Vel_60
Time_Shift_8
Note_On_63_Vel_0
Note_On_65_Vel_39
Time_Shift_1
Note_On_37_Vel_0
Time_Shift_1
Note_On_49_Vel_0
Time_Shift_2
Note_On_59_Vel_0
Time_Shift_1
Note_On_66_Vel_0
Time_Shift_1
Note_On_75_Vel_0
Time_Shift_3
Note_On_59_Vel_38
Time_Shift_12
Sustain_Off
Time_Shift_6
Note_On_73_Vel_0
Time_Shift_123
Sustain_On
Time_Shift_45
Note_On_73_Vel_55
Time_Shift_207
Note_On_68_Vel_44
Time_Shift_2
Note_On_59_Vel_0
Time_Shift_5
Note_On_63_Vel_34
Time_Shift_4
Note_On_59_Vel_36
Time_Shift_10
Note_On_49_Vel_31
Time_Shift_20
Note_On_65_Vel_0
Sustain_Off
Time_Shift_4
Note_On_73_Vel_0
Time_Shift_10
Note_On_70_Vel_0
Time_Shift_55
Note_On_59_Vel_0
Time_Shift_68
Sustain_On
Time_Shift_57
Note_On_73_Vel_51
Time_Shift_225
Sustain_Off
Time_Shift_10
Note_On_63_Vel_0
Time_Shift_1
Note_On_49_Vel_0
Time_Shift_1
Note_On_68_Vel_0
Time_Shift_1
Note_On_73_Vel_0
Time_Shift_1
Note_On_66_Vel_35
Time_Shift_1
Note_On_63_Vel_28
Time_Shift_4
Note_On_59_Vel_31
Time_Shift_12
Note_On_42_Vel_21
Time_Shift_117
Sustain_On
Time_Shift_394
Note_On_61_Vel_27
Time_Shift_3
Note_On_58_Vel_28
Time_Shift_3
Note_On_42_Vel_0
Time_Shift_4
Note_On_54_Vel_20
Time_Shift_7
Note_On_42_Vel_20
Time_Shift_21
Sustain_Off
Time_Shift_3
Note_On_59_Vel_0
Time_Shift_5
Note_On_63_Vel_0
Time_Shift_121
Sustain_On
Time_Shift_238
Note_On_42_Vel_0
Time_Shift_248
Sustain_Off
Time_Shift_11
Note_On_70_Vel_42
Time_Shift_10
Note_On_58_Vel_0
Time_Shift_8
Note_On_61_Vel_0
Note_On_66_Vel_0
Time_Shift_4
Note_On_66_Vel_20
Time_Shift_2
Note_On_61_Vel_19
Time_Shift_29
Note_On_51_Vel_18
Time_Shift_95
Sustain_On
Time_Shift_277
Note_On_54_Vel_0
Time_Shift_22
Note_On_72_Vel_49
Time_Shift_31
Note_On_66_Vel_0
Time_Shift_4
Note_On_63_Vel_30
Time_Shift_3
Note_On_56_Vel_29
Time_Shift_4
Note_On_66_Vel_21
Time_Shift_307
Note_On_51_Vel_0
Time_Shift_3
Note_On_70_Vel_0
Time_Shift_2
Sustain_Off
Time_Shift_4
Note_On_73_Vel_54
Time_Shift_23
Note_On_37_Vel_25
Time_Shift_3
Note_On_64_Vel_35
Time_Shift_70
Sustain_On
Time_Shift_299
Note_On_56_Vel_0
Time_Shift_5
Note_On_56_Vel_35
Time_Shift_1
Note_On_68_Vel_45
Time_Shift_156
Note_On_68_Vel_0
Time_Shift_4
Note_On_68_Vel_43
Time_Shift_165
Note_On_64_Vel_0
Time_Shift_6
Note_On_64_Vel_37
Note_On_80_Vel_66
Time_Shift_1
Note_On_63_Vel_0
Time_Shift_307
Note_On_56_Vel_0
Time_Shift_9
Note_On_56_Vel_47
Time_Shift_22
Note_On_68_Vel_0
Time_Shift_9
Note_On_68_Vel_29
Time_Shift_245
Note_On_66_Vel_0
Time_Shift_5
Note_On_66_Vel_44
Time_Shift_3
Note_On_44_Vel_37
Time_Shift_18
Note_On_37_Vel_0
Time_Shift_1
Sustain_Off
Time_Shift_3
Note_On_68_Vel_0
Note_On_73_Vel_0
Note_On_61_Vel_0
Time_Shift_1
Note_On_56_Vel_0
Note_On_64_Vel_0
Time_Shift_99
Sustain_On
Time_Shift_8
Note_On_72_Vel_0
Time_Shift_193
Note_On_75_Vel_69
Time_Shift_19
Note_On_68_Vel_46
Time_Shift_3
Note_On_56_Vel_41
Time_Shift_257
Note_On_76_Vel_67
Time_Shift_2
Note_On_54_Vel_35
Time_Shift_10
Note_On_54_Vel_0
Time_Shift_7
Note_On_66_Vel_0
Time_Shift_12
Note_On_66_Vel_37
Note_On_72_Vel_51
Time_Shift_2
Note_On_63_Vel_41
Time_Shift_125
Note_On_80_Vel_0
Time_Shift_137
Note_On_78_Vel_74
Time_Shift_9
Note_On_44_Vel_0
Note_On_56_Vel_0
Time_Shift_4
Note_On_56_Vel_44
Time_Shift_3
Note_On_68_Vel_0
Time_Shift_8
Note_On_68_Vel_45
Time_Shift_223
Note_On_76_Vel_0
Time_Shift_11
Note_On_76_Vel_64
Time_Shift_16
Note_On_49_Vel_32
Sustain_Off
Time_Shift_1
Note_On_75_Vel_0
Time_Shift_1
Note_On_56_Vel_0
Time_Shift_1
Note_On_68_Vel_0
Time_Shift_1
Note_On_72_Vel_0
Note_On_63_Vel_0
Note_On_78_Vel_0
Time_Shift_3
Note_On_73_Vel_38
Note_On_68_Vel_32
Time_Shift_12
Note_On_66_Vel_0
Time_Shift_107
Sustain_On
Time_Shift_198
Note_On_56_Vel_41
Time_Shift_2
Note_On_68_Vel_0
Time_Shift_6
Note_On_68_Vel_47
Time_Shift_263
Note_On_44_Vel_38
Time_Shift_11
Note_On_75_Vel_65
Time_Shift_15
Note_On_66_Vel_36
Time_Shift_15
Note_On_60_Vel_34
Time_Shift_9
Note_On_56_Vel_0
Note_On_68_Vel_0
Note_On_49_Vel_0
Sustain_Off
Time_Shift_19
Note_On_73_Vel_0
Note_On_76_Vel_0
Time_Shift_77
Sustain_On
Time_Shift_15
Note_On_44_Vel_0
Time_Shift_214
Note_On_76_Vel_60
Time_Shift_29
Note_On_44_Vel_33
Time_Shift_4
Note_On_56_Vel_40
Time_Shift_2
Note_On_68_Vel_43
Time_Shift_246
Note_On_73_Vel_60
Time_Shift_9
Sustain_Off
Time_Shift_2
Note_On_44_Vel_0
Time_Shift_1
Note_On_66_Vel_0
Time_Shift_2
Note_On_68_Vel_0
Note_On_56_Vel_0
Note_On_75_Vel_0
Time_Shift_1
Note_On_60_Vel_0
Time_Shift_14
Note_On_64_Vel_36
Time_Shift_2
Note_On_49_Vel_26
Time_Shift_3
Note_On_61_Vel_24
Time_Shift_139
Sustain_On
Time_Shift_147
Note_On_68_Vel_37
Time_Shift_35
Note_On_56_Vel_25
Time_Shift_118
Note_On_76_Vel_0
Time_Shift_142
Note_On_76_Vel_49
Time_Shift_19
Note_On_64_Vel_0
Note_On_68_Vel_0
Time_Shift_6
Note_On_68_Vel_19
Time_Shift_2
Note_On_46_Vel_24
Time_Shift_2
Note_On_64_Vel_15
Time_Shift_1
Sustain_Off
Note_On_73_Vel_0
Time_Shift_1
Note_On_56_Vel_0
Note_On_49_Vel_0
Time_Shift_1
Note_On_61_Vel_0
Time_Shift_133
Sustain_On
Time_Shift_225
Note_On_61_Vel_26
Time_Shift_13
Note_On_68_Vel_0
Time_Shift_7
Note_On_68_Vel_27
Time_Shift_357
Note_On_75_Vel_58
Time_Shift_20
Note_On_61_Vel_0
Time_Shift_9
Note_On_61_Vel_24
Time_Shift_2
Note_On_46_Vel_0
Note_On_68_Vel_0
Time_Shift_1
Note_On_76_Vel_0
Note_On_67_Vel_19
Time_Shift_1
Note_On_39_Vel_27
Note_On_51_Vel_23
Time_Shift_6
Sustain_Off
Time_Shift_4
Note_On_64_Vel_0
Time_Shift_123
Sustain_On
Time_Shift_276
Note_On_75_Vel_0
Time_Shift_6
Note_On_63_Vel_43
Time_Shift_4
Note_On_75_Vel_37
Time_Shift_6
Note_On_51_Vel_0
Time_Shift_4
Note_On_51_Vel_28
Time_Shift_3
Note_On_39_Vel_0
Time_Shift_5
Note_On_39_Vel_22
Time_Shift_264
Note_On_67_Vel_0
Time_Shift_10
Note_On_67_Vel_48
Time_Shift_2
Note_On_58_Vel_35
Time_Shift_287
Note_On_73_Vel_68
Time_Shift_16
Note_On_51_Vel_0
Note_On_63_Vel_0
Time_Shift_6
Note_On_51_Vel_37
Time_Shift_4
Note_On_63_Vel_43
Time_Shift_247
Note_On_71_Vel_64
Time_Shift_9
Note_On_68_Vel_52
Time_Shift_22
Note_On_44_Vel_31
Time_Shift_7
Sustain_Off
Time_Shift_3
Note_On_58_Vel_0
Note_On_67_Vel_0
Note_On_63_Vel_0
Note_On_39_Vel_0
Time_Shift_1
Note_On_51_Vel_0
Note_On_75_Vel_0
Time_Shift_1
Note_On_61_Vel_0
Time_Shift_2
Note_On_73_Vel_0
Time_Shift_167
Sustain_On
Time_Shift_88
Note_On_70_Vel_64
Time_Shift_31
Note_On_63_Vel_39
Time_Shift_7
Note_On_51_Vel_33
Time_Shift_234
Note_On_68_Vel_0
Time_Shift_9
Note_On_68_Vel_63
Time_Shift_19
Note_On_59_Vel_41
Time_Shift_4
Note_On_56_Vel_33
Time_Shift_260
Note_On_71_Vel_0
Time_Shift_10
Note_On_71_Vel_64
Time_Shift_13
Note_On_51_Vel_0
Time_Shift_7
Note_On_51_Vel_33
Time_Shift_1
Note_On_63_Vel_0
Time_Shift_10
Note_On_63_Vel_43
Time_Shift_234
Sustain_Off
Time_Shift_3
Note_On_59_Vel_0
Time_Shift_1
Note_On_56_Vel_0
Note_On_44_Vel_0
Note_On_63_Vel_0
Time_Shift_1
Note_On_71_Vel_0
Time_Shift_12
Note_On_70_Vel_0
Time_Shift_5
Note_On_70_Vel_62
Time_Shift_3
Note_On_51_Vel_0
Note_On_68_Vel_0
Time_Shift_8
Note_On_51_Vel_24
Time_Shift_4
Note_On_39_Vel_26
Time_Shift_6
Note_On_67_Vel_40
Time_Shift_11
Note_On_58_Vel_26
Time_Shift_101
Sustain_On
Time_Shift_275
Note_On_73_Vel_62
Time_Shift_25
Note_On_67_Vel_0
Note_On_63_Vel_41
Time_Shift_8
Note_On_39_Vel_0
Note_On_51_Vel_0
Time_Shift_3
Note_On_67_Vel_30
Time_Shift_7
Note_On_39_Vel_22
Time_Shift_1
Note_On_51_Vel_27
Time_Shift_250
Note_On_70_Vel_0
Time_Shift_6
Note_On_70_Vel_65
Time_Shift_9
Note_On_51_Vel_0
Time_Shift_4
Note_On_51_Vel_26
Time_Shift_6
Note_On_55_Vel_32
Time_Shift_5
Note_On_61_Vel_34
Time_Shift_246
Note_On_51_Vel_0
Note_On_71_Vel_66
Time_Shift_10
Note_On_51_Vel_39
Time_Shift_13
Note_On_63_Vel_0
Time_Shift_5
Note_On_63_Vel_43
Time_Shift_213
Note_On_67_Vel_0
Time_Shift_1
Note_On_55_Vel_0
Note_On_63_Vel_0
Note_On_73_Vel_0
Note_On_70_Vel_0
Note_On_58_Vel_0
Sustain_Off
Note_On_61_Vel_0
Time_Shift_2
Note_On_71_Vel_0
Time_Shift_2
Note_On_68_Vel_69
Time_Shift_15
Note_On_39_Vel_0
Note_On_51_Vel_0
Time_Shift_4
Note_On_39_Vel_34
Time_Shift_2
Note_On_51_Vel_28
Time_Shift_63
Sustain_On
Time_Shift_243
Note_On_64_Vel_43
Time_Shift_14
Note_On_50_Vel_39
Time_Shift_261
Note_On_71_Vel_63
Time_Shift_16
Note_On_56_Vel_38
Time_Shift_10
Note_On_59_Vel_38
Time_Shift_347
Note_On_50_Vel_0
Note_On_64_Vel_0
Time_Shift_10
Note_On_64_Vel_37
Note_On_50_Vel_29
Time_Shift_394
Note_On_51_Vel_0
Note_On_50_Vel_0
Note_On_59_Vel_0
Time_Shift_1
Note_On_68_Vel_0
Note_On_64_Vel_0
Time_Shift_1
Note_On_56_Vel_0
Time_Shift_1
Note_On_39_Vel_0
Time_Shift_2
Sustain_Off
Time_Shift_3
Note_On_67_Vel_34
Time_Shift_1
Note_On_39_Vel_25
Time_Shift_133
Sustain_On
Time_Shift_340
Note_On_70_Vel_52
Time_Shift_9
Note_On_63_Vel_33
Time_Shift_9
Note_On_51_Vel_34
Time_Shift_3
Note_On_39_Vel_0
Time_Shift_11
Note_On_39_Vel_24
Time_Shift_347
Note_On_75_Vel_50
Time_Shift_11
Note_On_67_Vel_0
Time_Shift_1
Note_On_70_Vel_0
Time_Shift_1
Note_On_39_Vel_0
Note_On_51_Vel_0
Time_Shift_2
Sustain_Off
Time_Shift_4
Note_On_61_Vel_28
Note_On_55_Vel_26
Time_Shift_7
Note_On_71_Vel_0
Time_Shift_115
Sustain_On
Time_Shift_191
Note_On_73_Vel_57
Time_Shift_31
Note_On_63_Vel_0
Time_Shift_4
Note_On_51_Vel_32
Time_Shift_1
Note_On_63_Vel_34
Time_Shift_254
Note_On_71_Vel_57
Time_Shift_39
Sustain_Off
Time_Shift_2
Note_On_75_Vel_0
Time_Shift_1
Note_On_51_Vel_0
Note_On_55_Vel_0
Note_On_61_Vel_0
Time_Shift_2
Note_On_73_Vel_0
Time_Shift_1
Note_On_44_Vel_32
Time_Shift_134
Sustain_On
Time_Shift_119
Note_On_70_Vel_53
Time_Shift_12
Note_On_63_Vel_0
Time_Shift_6
Note_On_63_Vel_33
Time_Shift_19
Note_On_51_Vel_32
Time_Shift_261
Note_On_68_Vel_44
Time_Shift_18
Note_On_59_Vel_29
Time_Shift_7
Note_On_56_Vel_30
Time_Shift_9
Note_On_63_Vel_0
Note_On_71_Vel_0
Sustain_Off
Note_On_51_Vel_0
Time_Shift_1
Note_On_70_Vel_0
Time_Shift_132
Sustain_On
Time_Shift_183
Note_On_71_Vel_47
Time_Shift_21
Note_On_63_Vel_31
Time_Shift_6
Note_On_53_Vel_25
Time_Shift_351
Note_On_44_Vel_0
Time_Shift_2
Note_On_70_Vel_50
Time_Shift_24
Note_On_39_Vel_31
Note_On_59_Vel_0
Note_On_63_Vel_0
Time_Shift_1
Sustain_Off
Note_On_56_Vel_0
Note_On_68_Vel_0
Time_Shift_1
Note_On_53_Vel_0
Time_Shift_4
Note_On_71_Vel_0
Note_On_58_Vel_29
Time_Shift_6
Note_On_66_Vel_29
Time_Shift_169
Sustain_On
Time_Shift_247
Note_On_68_Vel_40
Time_Shift_12
Note_On_51_Vel_24
Time_Shift_4
Note_On_63_Vel_27
Time_Shift_305
Note_On_70_Vel_0
Time_Shift_5
Note_On_70_Vel_46
Time_Shift_6
Note_On_54_Vel_23
Time_Shift_12
Note_On_58_Vel_0
Time_Shift_5
Note_On_58_Vel_29
Time_Shift_313
Note_On_71_Vel_44
Time_Shift_20
Note_On_51_Vel_0
Time_Shift_8
Note_On_51_Vel_24
Time_Shift_266
Sustain_Off
Time_Shift_2
Note_On_54_Vel_0
Time_Shift_1
Note_On_66_Vel_0
Note_On_63_Vel_0
Note_On_58_Vel_0
Time_Shift_2
Note_On_70_Vel_0
Time_Shift_1
Note_On_71_Vel_0
Time_Shift_4
Note_On_68_Vel_0
Time_Shift_9
Note_On_68_Vel_40
Time_Shift_7
Note_On_39_Vel_0
Note_On_51_Vel_0
Time_Shift_4
Note_On_65_Vel_29
Note_On_51_Vel_18
Time_Shift_3
Note_On_39_Vel_21
Time_Shift_116
Sustain_On
Time_Shift_69
Note_On_39_Vel_0
Time_Shift_176
Note_On_51_Vel_0
Time_Shift_8
Note_On_63_Vel_25
Time_Shift_3
Note_On_51_Vel_26
Time_Shift_285
Note_On_71_Vel_40
Time_Shift_8
Note_On_59_Vel_28
Note_On_56_Vel_25
Time_Shift_357
Note_On_63_Vel_0
Time_Shift_8
Note_On_51_Vel_0
Time_Shift_2
Note_On_63_Vel_25
Time_Shift_8
Note_On_51_Vel_25
Time_Shift_353
Sustain_Off
Time_Shift_4
Note_On_56_Vel_0
Note_On_59_Vel_0
Time_Shift_1
Note_On_65_Vel_0
Note_On_68_Vel_0
Note_On_51_Vel_0
Time_Shift_2
Note_On_71_Vel_0
Time_Shift_14
Note_On_63_Vel_0
Time_Shift_10
Note_On_70_Vel_43
Time_Shift_9
Note_On_51_Vel_13
Time_Shift_1
Note_On_66_Vel_23
Time_Shift_3
Note_On_58_Vel_25
Time_Shift_2
Note_On_39_Vel_20
Time_Shift_74
Sustain_On
Time_Shift_461
Note_On_58_Vel_0
Note_On_70_Vel_0
Time_Shift_4
Note_On_58_Vel_49
Time_Shift_4
Note_On_70_Vel_46
Time_Shift_447
Note_On_82_Vel_64
Time_Shift_467
Note_On_58_Vel_0
Time_Shift_7
Note_On_58_Vel_34
Time_Shift_239
Note_On_39_Vel_0
Note_On_51_Vel_0
Time_Shift_169
Note_On_62_Vel_35
Time_Shift_53
Note_On_51_Vel_24
Note_On_53_Vel_17
Time_Shift_438
Note_On_58_Vel_0
Time_Shift_5
Note_On_58_Vel_40
Time_Shift_6
Note_On_70_Vel_0
Time_Shift_326
Note_On_80_Vel_61
Time_Shift_193
Note_On_78_Vel_65
Time_Shift_156
Note_On_77_Vel_65
Time_Shift_13
Note_On_58_Vel_0
Time_Shift_4
Note_On_58_Vel_34
Time_Shift_126
Note_On_80_Vel_0
Time_Shift_6
Note_On_80_Vel_65
Time_Shift_140
Note_On_78_Vel_0
Time_Shift_4
Sustain_Off
Time_Shift_2
Note_On_78_Vel_60
Time_Shift_5
Note_On_77_Vel_0
Note_On_62_Vel_0
Time_Shift_1
Note_On_82_Vel_0
Note_On_58_Vel_0
Note_On_80_Vel_0
Time_Shift_1
Note_On_66_Vel_0
Time_Shift_4
Note_On_63_Vel_28
Time_Shift_6
Note_On_51_Vel_0
Time_Shift_4
Note_On_51_Vel_27
Time_Shift_4
Note_On_53_Vel_0
Time_Shift_1
Note_On_54_Vel_22
Time_Shift_15
Note_On_66_Vel_19
Time_Shift_86
Note_On_78_Vel_0
Time_Shift_10
Note_On_77_Vel_54
Time_Shift_19
Sustain_On
Time_Shift_111
Note_On_75_Vel_57
Time_Shift_7
Note_On_58_Vel_37
Time_Shift_125
Note_On_78_Vel_59
Time_Shift_133
Note_On_77_Vel_0
Time_Shift_7
Note_On_77_Vel_59
Time_Shift_131
Note_On_75_Vel_0
Time_Shift_7
Note_On_75_Vel_59
Time_Shift_131
Note_On_58_Vel_0
Time_Shift_4
Note_On_73_Vel_58
Time_Shift_1
Note_On_58_Vel_38
Time_Shift_118
Note_On_77_Vel_0
Time_Shift_7
Note_On_77_Vel_59
Time_Shift_139
Note_On_51_Vel_0
Note_On_75_Vel_0
Time_Shift_5
Sustain_Off
Note_On_63_Vel_0
Note_On_66_Vel_0
Note_On_75_Vel_59
Time_Shift_1
Note_On_54_Vel_0
Note_On_78_Vel_0
Note_On_73_Vel_0
Time_Shift_2
Note_On_77_Vel_0
Time_Shift_3
Note_On_51_Vel_29
Time_Shift_12
Note_On_58_Vel_0
Time_Shift_2
Note_On_56_Vel_31
Time_Shift_116
Note_On_73_Vel_52
Time_Shift_28
Sustain_On
Time_Shift_125
Note_On_59_Vel_42
Time_Shift_1
Note_On_71_Vel_54
Time_Shift_147
Note_On_70_Vel_53
Time_Shift_134
Note_On_71_Vel_0
Time_Shift_8
Note_On_71_Vel_52
Time_Shift_154
Note_On_73_Vel_0
Time_Shift_9
Note_On_73_Vel_50
Time_Shift_17
Sustain_Off
Time_Shift_2
Note_On_56_Vel_0
Time_Shift_2
Note_On_59_Vel_0
Time_Shift_2
Note_On_75_Vel_0
Time_Shift_1
Note_On_71_Vel_0
Note_On_70_Vel_0
Time_Shift_155
Note_On_75_Vel_46
Time_Shift_8
Note_On_59_Vel_29
Time_Shift_7
Note_On_71_Vel_32
Time_Shift_4
Sustain_On
Time_Shift_8
Note_On_71_Vel_0
Time_Shift_170
Note_On_68_Vel_41
Time_Shift_194
Note_On_70_Vel_43
Sustain_Off
Time_Shift_1
Note_On_63_Vel_24
Time_Shift_4
Note_On_59_Vel_0
Time_Shift_3
Note_On_75_Vel_0
Time_Shift_1
Note_On_68_Vel_0
Time_Shift_1
Note_On_73_Vel_0
Time_Shift_5
Note_On_54_Vel_24
Time_Shift_135
Sustain_On
Time_Shift_277
Note_On_70_Vel_0
Time_Shift_5
Note_On_58_Vel_42
Time_Shift_3
Note_On_70_Vel_39
Time_Shift_309
Note_On_82_Vel_67
Time_Shift_351
Note_On_58_Vel_0
Note_On_70_Vel_0
Time_Shift_4
Note_On_58_Vel_48
Time_Shift_3
Note_On_70_Vel_45
Time_Shift_393
Note_On_62_Vel_38
Time_Shift_22
Note_On_51_Vel_0
Time_Shift_4
Note_On_53_Vel_30
Time_Shift_1
Note_On_51_Vel_34
Time_Shift_9
Sustain_Off
Time_Shift_2
Note_On_63_Vel_0
Time_Shift_2
Note_On_54_Vel_0
Time_Shift_1
Note_On_70_Vel_0
Note_On_58_Vel_0
Time_Shift_165
Sustain_On
Time_Shift_146
Note_On_83_Vel_62
Time_Shift_286
Note_On_58_Vel_38
Time_Shift_290
Note_On_82_Vel_0
Time_Shift_11
Note_On_82_Vel_52
Time_Shift_192
Note_On_80_Vel_51
Time_Shift_199
Note_On_78_Vel_49
Time_Shift_159
Note_On_80_Vel_0
Time_Shift_9
Note_On_80_Vel_49
Time_Shift_76
Note_On_58_Vel_0
Time_Shift_4
Note_On_58_Vel_34
Time_Shift_72
Note_On_82_Vel_0
Time_Shift_10
Note_On_82_Vel_48
Time_Shift_152
Note_On_77_Vel_44
Time_Shift_153
Note_On_80_Vel_0
Time_Shift_4
Note_On_63_Vel_26
Time_Shift_1
Note_On_80_Vel_51
Time_Shift_12
Sustain_Off
Time_Shift_2
Note_On_78_Vel_0
Note_On_62_Vel_0
Note_On_77_Vel_0
Note_On_83_Vel_0
Time_Shift_1
Note_On_53_Vel_0
Note_On_58_Vel_0
Note_On_82_Vel_0
Time_Shift_3
Note_On_51_Vel_0
Time_Shift_4
Note_On_54_Vel_19
Time_Shift_5
Note_On_51_Vel_24
Time_Shift_145
Sustain_On
Time_Shift_4
Note_On_78_Vel_50
Time_Shift_154
Note_On_58_Vel_35
Time_Shift_3
Note_On_80_Vel_0
Time_Shift_10
Note_On_80_Vel_46
Time_Shift_154
Note_On_75_Vel_51
Time_Shift_136
Note_On_78_Vel_0
Time_Shift_5
Note_On_78_Vel_48
Time_Shift_5
Note_On_70_Vel_29
Time_Shift_5
Note_On_70_Vel_0
Time_Shift_142
Note_On_77_Vel_41
Time_Shift_127
Note_On_58_Vel_0
Note_On_78_Vel_0
Time_Shift_6
Note_On_78_Vel_46
Time_Shift_4
Note_On_58_Vel_28
Time_Shift_147
Note_On_73_Vel_47
Time_Shift_135
Note_On_77_Vel_0
Time_Shift_7
Note_On_51_Vel_0
Time_Shift_1
Note_On_77_Vel_42
Time_Shift_6
Note_On_51_Vel_27
Time_Shift_12
Note_On_80_Vel_0
Note_On_54_Vel_0
Note_On_75_Vel_0
Note_On_58_Vel_0
Note_On_78_Vel_0
Time_Shift_1
Sustain_Off
Note_On_56_Vel_26
Time_Shift_2
Note_On_73_Vel_0
Time_Shift_70
Note_On_63_Vel_0
Time_Shift_68
Note_On_75_Vel_44
Time_Shift_17
Note_On_77_Vel_0
Time_Shift_38
Sustain_On
Time_Shift_109
Note_On_77_Vel_40
Time_Shift_3
Note_On_59_Vel_31
Time_Shift_6
Note_On_71_Vel_33
Time_Shift_2
Note_On_68_Vel_15
Time_Shift_3
Note_On_71_Vel_0
Time_Shift_8
Note_On_68_Vel_0
Time_Shift_163
Note_On_68_Vel_25
Note_On_71_Vel_34
Time_Shift_167
Note_On_71_Vel_0
Note_On_75_Vel_0
Time_Shift_5
Note_On_75_Vel_39
Time_Shift_5
Note_On_71_Vel_26
Time_Shift_174
Note_On_68_Vel_0
Time_Shift_2
Note_On_70_Vel_32
Time_Shift_3
Note_On_68_Vel_23
Time_Shift_180
Note_On_59_Vel_0
Note_On_75_Vel_0
Time_Shift_9
Note_On_59_Vel_25
Time_Shift_1
Note_On_75_Vel_38
Time_Shift_4
Sustain_Off
Time_Shift_63
Sustain_On
Time_Shift_99
Note_On_68_Vel_0
Time_Shift_11
Note_On_68_Vel_32
Time_Shift_204
Note_On_70_Vel_0
Time_Shift_8
Note_On_70_Vel_41
Time_Shift_2
Note_On_63_Vel_30
Time_Shift_9
Note_On_77_Vel_0
Note_On_59_Vel_0
Time_Shift_1
Note_On_68_Vel_0
Time_Shift_1
Note_On_75_Vel_0
Note_On_56_Vel_0
Time_Shift_11
Sustain_Off
Time_Shift_7
Note_On_51_Vel_0
Note_On_71_Vel_0
Time_Shift_6
Note_On_51_Vel_23
Time_Shift_2
Note_On_54_Vel_16
Time_Shift_138
Sustain_On
Time_Shift_252
Note_On_58_Vel_36
Time_Shift_577
Note_On_58_Vel_0
Note_On_70_Vel_0
Time_Shift_5
Note_On_58_Vel_38
Time_Shift_2
Note_On_70_Vel_36
Time_Shift_331
Note_On_63_Vel_0
Time_Shift_7
Note_On_63_Vel_26
Time_Shift_1
Note_On_51_Vel_0
Time_Shift_3
Note_On_56_Vel_29
Time_Shift_2
Note_On_51_Vel_24
Time_Shift_3
Note_On_54_Vel_0
Time_Shift_1
Note_On_58_Vel_0
Time_Shift_1
Sustain_Off
Note_On_70_Vel_0
Time_Shift_190
Sustain_On
Time_Shift_280
Note_On_78_Vel_42
Time_Shift_14
Note_On_59_Vel_32
Time_Shift_238
Note_On_77_Vel_40
Time_Shift_197
Note_On_75_Vel_36
Time_Shift_155
Note_On_70_Vel_33
Time_Shift_168
Note_On_59_Vel_0
Time_Shift_6
Note_On_59_Vel_28
Time_Shift_1
Note_On_75_Vel_0
Time_Shift_8
Note_On_75_Vel_34
Time_Shift_186
Note_On_68_Vel_38
Time_Shift_229
Note_On_51_Vel_0
Note_On_63_Vel_0
Note_On_70_Vel_0
Time_Shift_8
Note_On_51_Vel_33
Time_Shift_1
Note_On_70_Vel_34
Time_Shift_1
Note_On_63_Vel_29
Time_Shift_2
Note_On_78_Vel_0
Note_On_75_Vel_0
Time_Shift_1
Note_On_59_Vel_0
Sustain_Off
Note_On_77_Vel_0
Note_On_56_Vel_0
Time_Shift_1
Note_On_68_Vel_0
Time_Shift_34
Note_On_54_Vel_26
Time_Shift_167
Sustain_On
Time_Shift_295
Note_On_58_Vel_35
Time_Shift_864
Note_On_58_Vel_0
Time_Shift_5
Note_On_58_Vel_46
Time_Shift_441
Note_On_63_Vel_0
Time_Shift_7
Note_On_71_Vel_58
Time_Shift_4
Note_On_63_Vel_66
Time_Shift_20
Note_On_51_Vel_0
Time_Shift_6
Note_On_56_Vel_50
Time_Shift_3
Note_On_51_Vel_46
Time_Shift_20
Note_On_58_Vel_0
Time_Shift_2
Sustain_Off
Time_Shift_1
Note_On_54_Vel_0
Time_Shift_6
Note_On_70_Vel_0
Time_Shift_72
Note_On_73_Vel_57
Time_Shift_20
Sustain_On
Time_Shift_46
Note_On_75_Vel_63
Time_Shift_88
Note_On_77_Vel_53
Time_Shift_61
Note_On_78_Vel_67
Time_Shift_44
Note_On_80_Vel_64
Time_Shift_65
Note_On_82_Vel_63
Time_Shift_57
Note_On_65_Vel_73
Time_Shift_5
Note_On_83_Vel_70
Time_Shift_71
Note_On_85_Vel_64
Time_Shift_51
Note_On_87_Vel_68
Time_Shift_70
Note_On_88_Vel_72
Time_Shift_60
Note_On_90_Vel_77
Time_Shift_38
Note_On_92_Vel_79
Time_Shift_36
Note_On_94_Vel_68
Time_Shift_57
Note_On_95_Vel_78
Time_Shift_10
Note_On_96_Vel_74
Time_Shift_52
Note_On_97_Vel_83
Time_Shift_63
Note_On_101_Vel_85
Time_Shift_23
Note_On_66_Vel_74
Time_Shift_47
Note_On_99_Vel_78
Time_Shift_39
Note_On_97_Vel_0
Time_Shift_10
Note_On_97_Vel_78
Time_Shift_36
Note_On_95_Vel_0
Time_Shift_10
Note_On_95_Vel_72
Time_Shift_67
Note_On_94_Vel_0
Time_Shift_9
Note_On_94_Vel_73
Time_Shift_45
Note_On_92_Vel_0
Time_Shift_11
Note_On_92_Vel_70
Time_Shift_35
Note_On_90_Vel_0
Time_Shift_4
Note_On_90_Vel_73
Time_Shift_55
Note_On_89_Vel_60
Time_Shift_56
Note_On_87_Vel_0
Time_Shift_11
Note_On_87_Vel_71
Time_Shift_51
Note_On_85_Vel_0
Time_Shift_3
Note_On_85_Vel_60
Time_Shift_58
Note_On_83_Vel_0
Time_Shift_10
Note_On_83_Vel_62
Time_Shift_51
Note_On_82_Vel_0
Time_Shift_8
Note_On_82_Vel_67
Time_Shift_39
Note_On_80_Vel_0
Time_Shift_6
Note_On_80_Vel_65
Time_Shift_4
Note_On_59_Vel_76
Time_Shift_43
Note_On_78_Vel_0
Time_Shift_4
Note_On_78_Vel_64
Time_Shift_58
Note_On_76_Vel_51
Time_Shift_46
Note_On_75_Vel_0
Time_Shift_11
Note_On_75_Vel_66
Time_Shift_50
Note_On_73_Vel_0
Time_Shift_9
Note_On_73_Vel_60
Time_Shift_45
Note_On_71_Vel_0
Time_Shift_10
Note_On_71_Vel_61
Time_Shift_56
Note_On_70_Vel_62
Time_Shift_45
Note_On_68_Vel_65
Time_Shift_35
Note_On_66_Vel_0
Time_Shift_10
Note_On_66_Vel_60
Time_Shift_44
Note_On_65_Vel_0
Time_Shift_10
Note_On_65_Vel_55
Time_Shift_59
Note_On_63_Vel_0
Time_Shift_4
Note_On_63_Vel_68
Time_Shift_65
Note_On_61_Vel_64
Time_Shift_61
Note_On_59_Vel_0
Time_Shift_6
Note_On_59_Vel_74
Time_Shift_82
Note_On_58_Vel_81
Time_Shift_24
Note_On_54_Vel_75
Time_Shift_11
Note_On_46_Vel_54
Time_Shift_2
Note_On_39_Vel_53
Time_Shift_6
Note_On_96_Vel_0
Time_Shift_4
Note_On_82_Vel_0
Note_On_78_Vel_0
Time_Shift_1
Note_On_94_Vel_0
Note_On_66_Vel_0
Note_On_87_Vel_0
Note_On_85_Vel_0
Note_On_83_Vel_0
Note_On_95_Vel_0
Note_On_73_Vel_0
Note_On_80_Vel_0
Note_On_65_Vel_0
Note_On_59_Vel_0
Note_On_70_Vel_0
Note_On_77_Vel_0
Note_On_71_Vel_0
Note_On_97_Vel_0
Time_Shift_1
Note_On_99_Vel_0
Note_On_90_Vel_0
Note_On_68_Vel_0
Sustain_Off
Note_On_88_Vel_0
Note_On_61_Vel_0
Time_Shift_1
Note_On_63_Vel_0
Time_Shift_1
Note_On_89_Vel_0
Note_On_56_Vel_0
Time_Shift_7
Note_On_76_Vel_0
Note_On_101_Vel_0
Time_Shift_8
Note_On_75_Vel_0
Note_On_92_Vel_0
Time_Shift_207
Note_On_51_Vel_0
Time_Shift_31
Sustain_On
Time_Shift_177
Note_On_39_Vel_0
Time_Shift_1320
Note_On_63_Vel_66
Time_Shift_286
Sustain_Off
Time_Shift_2
Note_On_58_Vel_0
Time_Shift_1
Note_On_46_Vel_0
Time_Shift_5
Note_On_63_Vel_0
Time_Shift_12
Note_On_66_Vel_64
Time_Shift_25
Note_On_54_Vel_0
Time_Shift_658
Note_On_75_Vel_64
Time_Shift_5
Note_On_66_Vel_0
Time_Shift_97
Sustain_On
Time_Shift_154
Note_On_75_Vel_0
Time_Shift_4
Note_On_75_Vel_60
Time_Shift_77
Sustain_Off
Time_Shift_433
Sustain_On
Time_Shift_1584
Note_On_73_Vel_37
Time_Shift_393
Note_On_71_Vel_42
Time_Shift_13
Note_On_75_Vel_0
Time_Shift_294
Note_On_64_Vel_42
Time_Shift_5
Note_On_42_Vel_27
Time_Shift_10
Sustain_Off
Time_Shift_9
Note_On_73_Vel_0
Time_Shift_158
Sustain_On
Time_Shift_314
Note_On_54_Vel_36
Time_Shift_2
Note_On_70_Vel_46
Time_Shift_275
Note_On_54_Vel_0
Time_Shift_7
Note_On_54_Vel_12
Time_Shift_116
Note_On_68_Vel_37
Time_Shift_40
Sustain_Off
Time_Shift_13
Note_On_70_Vel_0
Time_Shift_1
Note_On_64_Vel_0
Time_Shift_4
Note_On_64_Vel_16
Time_Shift_1
Note_On_59_Vel_31
Time_Shift_48
Note_On_71_Vel_0
Time_Shift_116
Sustain_On
Time_Shift_310
Note_On_58_Vel_34
Time_Shift_1
Note_On_66_Vel_26
Time_Shift_13
Sustain_Off
Time_Shift_2
Note_On_59_Vel_0
Time_Shift_14
Note_On_68_Vel_0
Time_Shift_167
Sustain_On
Time_Shift_405
Note_On_75_Vel_48
Time_Shift_29
Note_On_58_Vel_0
Sustain_Off
Note_On_66_Vel_0
Note_On_64_Vel_0
Time_Shift_4
Note_On_63_Vel_23
Time_Shift_3
Note_On_47_Vel_20
Time_Shift_4
Note_On_42_Vel_0
Note_On_54_Vel_0
Time_Shift_192
Sustain_On
Time_Shift_195
Note_On_54_Vel_33
Time_Shift_258
Note_On_63_Vel_0
Time_Shift_1
Note_On_73_Vel_61
Time_Shift_3
Note_On_63_Vel_32
Note_On_59_Vel_33
Time_Shift_338
Note_On_71_Vel_66
Time_Shift_11
Note_On_54_Vel_0
Time_Shift_11
Note_On_54_Vel_36
Time_Shift_243
Note_On_71_Vel_0
Time_Shift_10
Note_On_71_Vel_59
Time_Shift_19
Note_On_61_Vel_31
Time_Shift_4
Note_On_64_Vel_44
Time_Shift_9
Sustain_Off
Time_Shift_6
Note_On_63_Vel_0
Note_On_47_Vel_0
Time_Shift_1
Note_On_59_Vel_0
Note_On_54_Vel_0
Note_On_75_Vel_0
Time_Shift_1
Note_On_73_Vel_0
Time_Shift_173
Sustain_On
Time_Shift_95
Note_On_70_Vel_66
Time_Shift_29
Note_On_54_Vel_30
Time_Shift_121
Note_On_70_Vel_0
Time_Shift_12
Note_On_70_Vel_55
Time_Shift_119
Note_On_64_Vel_0
Time_Shift_8
Note_On_59_Vel_39
Note_On_68_Vel_54
Time_Shift_3
Note_On_64_Vel_44
Time_Shift_24
Sustain_Off
Time_Shift_4
Note_On_61_Vel_0
Time_Shift_22
Note_On_71_Vel_0
Time_Shift_8
Note_On_70_Vel_0
Time_Shift_84
Sustain_On
Time_Shift_221
Note_On_66_Vel_53
Time_Shift_5
Note_On_58_Vel_42
Time_Shift_336
Sustain_Off
Time_Shift_1
Note_On_58_Vel_0
Note_On_59_Vel_0
Note_On_68_Vel_0
Note_On_66_Vel_0
Time_Shift_13
Note_On_54_Vel_0
Note_On_64_Vel_0
Time_Shift_1
Note_On_78_Vel_64
Time_Shift_4
Note_On_69_Vel_45
Time_Shift_7
Note_On_35_Vel_33
Time_Shift_15
Note_On_63_Vel_30
Time_Shift_96
Sustain_On
Time_Shift_16
Note_On_35_Vel_0
Time_Shift_266
Note_On_54_Vel_40
Time_Shift_287
Note_On_78_Vel_0
Time_Shift_8
Note_On_78_Vel_74
Time_Shift_1
Note_On_59_Vel_44
Time_Shift_21
Note_On_69_Vel_0
Time_Shift_4
Note_On_69_Vel_25
Time_Shift_294
Note_On_60_Vel_57
Time_Shift_355
Note_On_78_Vel_0
Time_Shift_8
Note_On_69_Vel_0
Time_Shift_2
Note_On_78_Vel_68
Time_Shift_6
Note_On_63_Vel_0
Time_Shift_3
Note_On_69_Vel_41
Time_Shift_3
Note_On_63_Vel_46
Time_Shift_21
Sustain_Off
Time_Shift_1
Note_On_59_Vel_0
Time_Shift_1
Note_On_54_Vel_0
Time_Shift_1
Note_On_60_Vel_0
Time_Shift_154
Sustain_On
Time_Shift_288
Note_On_48_Vel_40
Time_Shift_355
Note_On_76_Vel_59
Time_Shift_28
Note_On_49_Vel_33
Note_On_64_Vel_36
Time_Shift_2
Note_On_68_Vel_39
Time_Shift_2
Sustain_Off
Time_Shift_4
Note_On_48_Vel_0
Time_Shift_12
Note_On_63_Vel_0
Time_Shift_8
Note_On_78_Vel_0
Time_Shift_23
Note_On_69_Vel_0
Time_Shift_84
Sustain_On
Time_Shift_222
Note_On_75_Vel_72
Time_Shift_4
Note_On_59_Vel_42
Time_Shift_10
Note_On_51_Vel_34
Time_Shift_5
Note_On_66_Vel_44
Time_Shift_266
Note_On_75_Vel_0
Time_Shift_7
Note_On_75_Vel_70
Time_Shift_1
Note_On_68_Vel_0
Time_Shift_11
Note_On_68_Vel_57
Time_Shift_42
Sustain_Off
Time_Shift_3
Note_On_49_Vel_0
Time_Shift_1
Note_On_64_Vel_0
Note_On_76_Vel_0
Note_On_66_Vel_0
Time_Shift_1
Note_On_51_Vel_0
Note_On_59_Vel_0
Time_Shift_13
Note_On_56_Vel_40
Time_Shift_113
Sustain_On
Time_Shift_154
Note_On_68_Vel_0
Time_Shift_5
Note_On_73_Vel_75
Time_Shift_2
Note_On_59_Vel_43
Time_Shift_3
Note_On_68_Vel_51
Time_Shift_266
Note_On_76_Vel_65
Time_Shift_16
Note_On_68_Vel_0
Time_Shift_8
Note_On_52_Vel_31
Time_Shift_3
Note_On_68_Vel_43
Time_Shift_5
Sustain_Off
Time_Shift_3
Note_On_56_Vel_0
Note_On_73_Vel_0
Time_Shift_19
Note_On_75_Vel_0
Time_Shift_131
Sustain_On
Time_Shift_192
Note_On_53_Vel_39
Time_Shift_178
Note_On_75_Vel_74
Time_Shift_198
Note_On_75_Vel_0
Time_Shift_6
Note_On_75_Vel_65
Time_Shift_2
Note_On_59_Vel_0
Time_Shift_7
Note_On_68_Vel_0
Time_Shift_3
Note_On_59_Vel_40
Time_Shift_1
Note_On_68_Vel_47
Note_On_64_Vel_40
Time_Shift_3
Note_On_52_Vel_0
Note_On_76_Vel_0
Time_Shift_4
Note_On_53_Vel_0
Note_On_54_Vel_38
Time_Shift_6
Sustain_Off
Time_Shift_144
Sustain_On
Time_Shift_188
Note_On_66_Vel_34
Time_Shift_261
Note_On_73_Vel_56
Time_Shift_20
Note_On_68_Vel_0
Time_Shift_3
Sustain_Off
Time_Shift_5
Note_On_64_Vel_0
Time_Shift_4
Note_On_64_Vel_18
Time_Shift_3
Note_On_58_Vel_35
Note_On_59_Vel_0
Time_Shift_116
Sustain_On
Time_Shift_38
Note_On_75_Vel_0
Time_Shift_297
Note_On_63_Vel_36
Time_Shift_129
Note_On_71_Vel_58
Time_Shift_173
Note_On_71_Vel_0
Time_Shift_6
Note_On_71_Vel_52
Time_Shift_5
Note_On_61_Vel_35
Time_Shift_2
Note_On_58_Vel_0
Time_Shift_2
Sustain_Off
Note_On_73_Vel_0
Time_Shift_16
Note_On_54_Vel_0
Time_Shift_76
Sustain_On
Time_Shift_220
Note_On_54_Vel_31
Time_Shift_31
Note_On_70_Vel_57
Time_Shift_316
Note_On_59_Vel_36
Time_Shift_1
Note_On_68_Vel_43
Time_Shift_8
Note_On_64_Vel_0
Time_Shift_12
Note_On_64_Vel_31
Time_Shift_4
Sustain_Off
Time_Shift_4
Note_On_70_Vel_0
Note_On_61_Vel_0
Time_Shift_4
Note_On_63_Vel_0
Note_On_66_Vel_0
Time_Shift_15
Note_On_71_Vel_0
Time_Shift_146
Sustain_On
Time_Shift_112
Note_On_70_Vel_45
Time_Shift_108
Note_On_58_Vel_35
Time_Shift_173
Note_On_66_Vel_43
Time_Shift_291
Note_On_35_Vel_30
Time_Shift_4
Note_On_75_Vel_60
Time_Shift_9
Note_On_66_Vel_0
Time_Shift_1
Note_On_58_Vel_0
Note_On_70_Vel_0
Note_On_59_Vel_0
Note_On_68_Vel_0
Time_Shift_7
Sustain_Off
Time_Shift_9
Note_On_54_Vel_0
Note_On_64_Vel_0
Time_Shift_12
Note_On_63_Vel_36
Time_Shift_142
Sustain_On
Time_Shift_345
Note_On_54_Vel_47
Time_Shift_305
Note_On_73_Vel_69
Time_Shift_2
Note_On_63_Vel_0
Time_Shift_8
Note_On_59_Vel_43
Time_Shift_3
Note_On_63_Vel_48
Time_Shift_327
Note_On_54_Vel_0
Time_Shift_8
Note_On_71_Vel_72
Time_Shift_3
Note_On_54_Vel_44
Time_Shift_281
Note_On_71_Vel_0
Time_Shift_12
Note_On_71_Vel_66
Time_Shift_1
Sustain_Off
Time_Shift_7
Note_On_61_Vel_41
Time_Shift_7
Note_On_63_Vel_0
Time_Shift_1
Note_On_73_Vel_0
Note_On_59_Vel_0
Time_Shift_1
Note_On_75_Vel_0
Time_Shift_3
Note_On_35_Vel_0
Time_Shift_1
Note_On_64_Vel_51
Note_On_54_Vel_0
Time_Shift_136
Sustain_On
Time_Shift_98
Note_On_70_Vel_73
Time_Shift_137
Note_On_54_Vel_43
Time_Shift_30
Note_On_75_Vel_81
Time_Shift_158
Note_On_73_Vel_78
Time_Shift_148
Note_On_70_Vel_0
Note_On_75_Vel_0
Sustain_Off
Time_Shift_1
Note_On_59_Vel_45
Note_On_61_Vel_0
Time_Shift_2
Note_On_68_Vel_69
Time_Shift_18
Note_On_64_Vel_0
Note_On_71_Vel_0
Time_Shift_9
Note_On_64_Vel_48
Time_Shift_113
Sustain_On
Time_Shift_20
Note_On_70_Vel_74
Time_Shift_11
Note_On_73_Vel_0
Time_Shift_154
Note_On_68_Vel_0
Time_Shift_10
Note_On_68_Vel_74
Time_Shift_1
Note_On_58_Vel_54
Time_Shift_153
Note_On_66_Vel_71
Time_Shift_113
Note_On_63_Vel_73
Time_Shift_105
Sustain_Off
Time_Shift_2
Note_On_70_Vel_0
Note_On_68_Vel_0
Time_Shift_1
Note_On_64_Vel_0
Note_On_58_Vel_0
Note_On_66_Vel_0
Note_On_59_Vel_0
Time_Shift_14
Note_On_54_Vel_0
Time_Shift_19
Note_On_35_Vel_49
Time_Shift_3
Note_On_78_Vel_75
Time_Shift_132
Sustain_On
Time_Shift_217
Note_On_47_Vel_60
Time_Shift_305
Note_On_78_Vel_0
Time_Shift_3
Note_On_54_Vel_56
Time_Shift_6
Note_On_78_Vel_79
Time_Shift_336
Note_On_59_Vel_74
Time_Shift_484
Note_On_63_Vel_0
Note_On_78_Vel_0
Time_Shift_7
Note_On_78_Vel_77
Time_Shift_3
Note_On_63_Vel_60
Time_Shift_3
Note_On_69_Vel_60
Time_Shift_2074
Sustain_Off
Time_Shift_28
Note_On_54_Vel_0
Time_Shift_2
Note_On_69_Vel_0
Time_Shift_34
Note_On_35_Vel_0
Time_Shift_23
Note_On_63_Vel_0
Time_Shift_7
Note_On_47_Vel_0
Time_Shift_8
Note_On_59_Vel_0
Time_Shift_85
Note_On_78_Vel_0
Time_Shift_488
Note_On_78_Vel_73
Time_Shift_6
Note_On_69_Vel_60
Time_Shift_15
Note_On_63_Vel_52
Time_Shift_159
Sustain_On
Time_Shift_386
Note_On_48_Vel_68
Time_Shift_479
Note_On_76_Vel_73
Time_Shift_7
Note_On_64_Vel_55
Note_On_49_Vel_50
Time_Shift_1
Note_On_68_Vel_59
Time_Shift_24
Sustain_Off
Time_Shift_6
Note_On_48_Vel_0
Note_On_69_Vel_0
Note_On_78_Vel_0
Time_Shift_1
Note_On_63_Vel_0
Time_Shift_140
Sustain_On
Time_Shift_227
Note_On_75_Vel_78
Time_Shift_3
Note_On_59_Vel_55
Time_Shift_7
Note_On_66_Vel_57
Time_Shift_5
Note_On_51_Vel_51
Time_Shift_39
Sustain_Off
Time_Shift_11
Sustain_On
Time_Shift_261
Note_On_75_Vel_0
Time_Shift_6
Note_On_75_Vel_81
Time_Shift_10
Note_On_68_Vel_0
Time_Shift_7
Note_On_68_Vel_63
Note_On_59_Vel_0
Time_Shift_6
Note_On_59_Vel_53
Time_Shift_13
Note_On_52_Vel_51
Time_Shift_8
Sustain_Off
Time_Shift_3
Note_On_51_Vel_0
Note_On_66_Vel_0
Note_On_76_Vel_0
Time_Shift_1
Note_On_64_Vel_0
Note_On_49_Vel_0
Time_Shift_115
Sustain_On
Time_Shift_218
Note_On_73_Vel_84
Time_Shift_343
Note_On_75_Vel_0
Time_Shift_9
Note_On_75_Vel_80
Time_Shift_1
Note_On_51_Vel_45
Time_Shift_6
Note_On_66_Vel_56
Time_Shift_27
Note_On_52_Vel_0
Note_On_73_Vel_0
Time_Shift_2
Sustain_Off
Time_Shift_16
Note_On_68_Vel_0
Time_Shift_131
Sustain_On
Time_Shift_227
Note_On_56_Vel_68
Time_Shift_203
Note_On_59_Vel_0
Time_Shift_25
Note_On_71_Vel_77
Time_Shift_205
Note_On_71_Vel_0
Time_Shift_11
Note_On_71_Vel_77
Time_Shift_11
Note_On_64_Vel_60
Time_Shift_5
Note_On_51_Vel_0
Time_Shift_4
Note_On_66_Vel_0
Time_Shift_1
Sustain_Off
Time_Shift_3
Note_On_49_Vel_41
Time_Shift_150
Sustain_On
Time_Shift_123
Note_On_75_Vel_0
Time_Shift_111
Note_On_70_Vel_75
Time_Shift_395
Note_On_71_Vel_0
Time_Shift_4
Sustain_Off
Time_Shift_6
Note_On_71_Vel_66
Time_Shift_32
Note_On_70_Vel_0
Time_Shift_112
Sustain_On
Time_Shift_259
Note_On_68_Vel_62
Time_Shift_6
Note_On_59_Vel_44
Time_Shift_26
Note_On_50_Vel_31
Time_Shift_5
Sustain_Off
Time_Shift_4
Note_On_49_Vel_0
Time_Shift_53
Sustain_On
Time_Shift_39
Note_On_56_Vel_0
Time_Shift_161
Note_On_64_Vel_0
Time_Shift_207
Note_On_71_Vel_0
Time_Shift_28
Note_On_63_Vel_52
Time_Shift_2
Note_On_60_Vel_42
Time_Shift_28
Note_On_51_Vel_30
Time_Shift_3
Note_On_59_Vel_0
Time_Shift_1
Sustain_Off
Time_Shift_9
Note_On_50_Vel_0
Time_Shift_25
Note_On_68_Vel_0
Time_Shift_273
Sustain_On
Time_Shift_594
Note_On_58_Vel_41
Time_Shift_156
Note_On_67_Vel_49
Time_Shift_28
Sustain_Off
Time_Shift_3
Note_On_60_Vel_0
Time_Shift_25
Sustain_On
Time_Shift_69
Note_On_39_Vel_28
Time_Shift_128
Note_On_73_Vel_64
Time_Shift_1048
Note_On_51_Vel_0
Note_On_63_Vel_0
Time_Shift_538
Note_On_72_Vel_46
Time_Shift_25
Sustain_Off
Time_Shift_18
Note_On_73_Vel_0
Time_Shift_194
Sustain_On
Time_Shift_473
Note_On_61_Vel_20
Time_Shift_17
Note_On_55_Vel_15
Time_Shift_724
Note_On_61_Vel_0
Time_Shift_4
Note_On_61_Vel_18
Time_Shift_11
Note_On_55_Vel_0
Time_Shift_7
Note_On_55_Vel_13
Time_Shift_317
Note_On_70_Vel_47
Time_Shift_311
Note_On_51_Vel_30
Time_Shift_509
Note_On_58_Vel_0
Time_Shift_162
Note_On_67_Vel_0
Time_Shift_61
Note_On_39_Vel_0
Time_Shift_11
Note_On_39_Vel_23
Time_Shift_250
Note_On_72_Vel_0
Time_Shift_5
Note_On_72_Vel_43
Time_Shift_190
Note_On_51_Vel_0
Note_On_39_Vel_0
Note_On_70_Vel_0
Time_Shift_1
Note_On_55_Vel_0
Note_On_61_Vel_0
Note_On_72_Vel_0
Sustain_Off
Time_Shift_31
Note_On_68_Vel_38
Time_Shift_28
Note_On_32_Vel_18
Time_Shift_121
Sustain_On
Time_Shift_383
Note_On_60_Vel_25
Time_Shift_27
Note_On_56_Vel_29
Time_Shift_550
Note_On_60_Vel_0
Time_Shift_8
Note_On_56_Vel_0
Time_Shift_4
Note_On_60_Vel_26
Time_Shift_1
Note_On_56_Vel_24
Time_Shift_1
Note_On_51_Vel_23
Time_Shift_286
Note_On_68_Vel_0
Time_Shift_8
Note_On_68_Vel_53
Time_Shift_341
Note_On_52_Vel_30
Time_Shift_12
Note_On_56_Vel_0
Note_On_60_Vel_0
Time_Shift_4
Note_On_56_Vel_28
Note_On_60_Vel_22
Time_Shift_15
Sustain_Off
Time_Shift_19
Note_On_51_Vel_0
Time_Shift_185
Sustain_On
Time_Shift_365
Note_On_44_Vel_33
Time_Shift_205
Note_On_67_Vel_55
Time_Shift_193
Note_On_60_Vel_0
Note_On_68_Vel_0
Time_Shift_1
Sustain_Off
Note_On_52_Vel_0
Note_On_56_Vel_0
Time_Shift_11
Note_On_32_Vel_0
Time_Shift_7
Note_On_32_Vel_23
Time_Shift_1
Note_On_67_Vel_0
Time_Shift_5
Note_On_67_Vel_55
Time_Shift_126
Sustain_On
Time_Shift_92
Note_On_32_Vel_0
Time_Shift_254
Note_On_61_Vel_30
Time_Shift_2
Note_On_53_Vel_27
Time_Shift_31
Note_On_58_Vel_31
Time_Shift_535
Note_On_61_Vel_0
Time_Shift_5
Note_On_61_Vel_29
Time_Shift_2
Note_On_58_Vel_0
Time_Shift_8
Note_On_53_Vel_0
Time_Shift_4
Note_On_58_Vel_31
Time_Shift_7
Note_On_53_Vel_22
Time_Shift_302
Note_On_65_Vel_45
Time_Shift_409
Note_On_44_Vel_0
Time_Shift_6
Note_On_44_Vel_35
Time_Shift_155
Note_On_44_Vel_0
Time_Shift_10
Note_On_69_Vel_60
Time_Shift_2
Note_On_44_Vel_29
Time_Shift_146
Note_On_70_Vel_64
Time_Shift_280
Note_On_44_Vel_0
Time_Shift_3
Note_On_37_Vel_31
Time_Shift_1
Note_On_44_Vel_31
Time_Shift_4
Note_On_37_Vel_0
Time_Shift_3
Note_On_72_Vel_71
Time_Shift_268
Note_On_65_Vel_0
Note_On_70_Vel_0
Time_Shift_1
Note_On_69_Vel_0
Note_On_67_Vel_0
Note_On_58_Vel_0
Note_On_61_Vel_0
Note_On_53_Vel_0
Time_Shift_1
Sustain_Off
Time_Shift_2
Note_On_44_Vel_0
Time_Shift_42
Note_On_73_Vel_68
Time_Shift_3
Note_On_32_Vel_30
Time_Shift_21
Note_On_72_Vel_0
Time_Shift_89
Sustain_On
Time_Shift_297
Note_On_61_Vel_32
Time_Shift_22
Note_On_53_Vel_29
Time_Shift_2
Note_On_58_Vel_32
Time_Shift_554
Note_On_58_Vel_0
Note_On_61_Vel_0
Time_Shift_10
Note_On_58_Vel_33
Note_On_61_Vel_24
Time_Shift_21
Note_On_53_Vel_0
Time_Shift_4
Note_On_53_Vel_24
Time_Shift_375
Note_On_77_Vel_63
Time_Shift_1
Note_On_44_Vel_26
Time_Shift_372
Note_On_44_Vel_0
Time_Shift_6
Note_On_44_Vel_31
Time_Shift_402
Note_On_32_Vel_0
Note_On_73_Vel_0
Time_Shift_453
Note_On_37_Vel_23
Time_Shift_471
Sustain_Off
Time_Shift_2
Note_On_58_Vel_0
Time_Shift_1
Note_On_53_Vel_0
Note_On_44_Vel_0
Note_On_77_Vel_0
Time_Shift_2
Note_On_61_Vel_0
Note_On_37_Vel_0
Time_Shift_47
Note_On_63_Vel_43
Time_Shift_3
Note_On_31_Vel_26
Time_Shift_173
Sustain_On
Time_Shift_7
Note_On_31_Vel_0
Time_Shift_370
Note_On_61_Vel_30
Time_Shift_12
Note_On_58_Vel_33
Time_Shift_7
Note_On_51_Vel_26
Time_Shift_479
Note_On_61_Vel_0
Time_Shift_5
Note_On_61_Vel_27
Time_Shift_3
Note_On_58_Vel_0
Time_Shift_7
Note_On_51_Vel_0
Time_Shift_4
Note_On_58_Vel_30
Time_Shift_1
Note_On_51_Vel_27
Time_Shift_299
Note_On_73_Vel_56
Time_Shift_426
Note_On_51_Vel_0
Time_Shift_4
Note_On_72_Vel_56
Note_On_51_Vel_34
Time_Shift_47
Sustain_Off
Time_Shift_8
Note_On_63_Vel_0
Time_Shift_1
Note_On_58_Vel_0
Note_On_61_Vel_0
Time_Shift_3
Note_On_73_Vel_0
Time_Shift_167
Sustain_On
Time_Shift_88
Note_On_70_Vel_53
Time_Shift_258
Note_On_51_Vel_0
Time_Shift_11
Note_On_51_Vel_32
Time_Shift_12
Note_On_72_Vel_0
Time_Shift_11
Note_On_72_Vel_51
Time_Shift_266
Note_On_70_Vel_0
Time_Shift_1
Note_On_72_Vel_0
Time_Shift_1
Sustain_Off
Time_Shift_43
Note_On_68_Vel_48
Time_Shift_12
Note_On_44_Vel_31
Time_Shift_111
Sustain_On
Time_Shift_287
Note_On_53_Vel_31
Time_Shift_25
Note_On_60_Vel_27
Time_Shift_44
Note_On_56_Vel_27
Time_Shift_520
Note_On_60_Vel_0
Time_Shift_8
Note_On_56_Vel_0
Time_Shift_3
Note_On_60_Vel_28
Time_Shift_8
Note_On_56_Vel_24
Time_Shift_4
Note_On_51_Vel_0
Time_Shift_11
Note_On_51_Vel_23
Time_Shift_302
Note_On_65_Vel_37
Time_Shift_3
Sustain_Off
Time_Shift_21
Note_On_60_Vel_0
Time_Shift_5
Note_On_53_Vel_0
Time_Shift_7
Note_On_68_Vel_0
Time_Shift_12
Note_On_44_Vel_0
Time_Shift_31
Sustain_On
Time_Shift_292
Note_On_56_Vel_0
Time_Shift_3
Note_On_60_Vel_33
Note_On_50_Vel_28
Time_Shift_2
Note_On_56_Vel_24
Time_Shift_68
Sustain_Off
Time_Shift_19
Note_On_51_Vel_0
Time_Shift_169
Sustain_On
Time_Shift_437
Note_On_60_Vel_0
Time_Shift_10
Note_On_60_Vel_30
Time_Shift_6
Note_On_56_Vel_0
Time_Shift_4
Note_On_51_Vel_26
Time_Shift_1
Note_On_56_Vel_22
Time_Shift_355
Note_On_63_Vel_53
Time_Shift_77
Sustain_Off
Time_Shift_9
Note_On_50_Vel_0
Time_Shift_2
Note_On_56_Vel_0
Note_On_65_Vel_0
Time_Shift_1
Note_On_51_Vel_0
Note_On_60_Vel_0
Time_Shift_165
Sustain_On
Time_Shift_80
Note_On_39_Vel_37
Time_Shift_535
Note_On_39_Vel_0
Time_Shift_92
Note_On_60_Vel_36
Time_Shift_6
Note_On_51_Vel_34
Time_Shift_350
Note_On_68_Vel_56
Time_Shift_24
Note_On_62_Vel_36
Time_Shift_4
Note_On_51_Vel_0
Time_Shift_4
Note_On_51_Vel_30
Time_Shift_9
Sustain_Off
Time_Shift_7
Note_On_58_Vel_33
Time_Shift_8
Note_On_63_Vel_0
Note_On_60_Vel_0
Time_Shift_125
Sustain_On
Time_Shift_195
Note_On_70_Vel_57
Time_Shift_20
Note_On_51_Vel_0
Time_Shift_7
Note_On_51_Vel_37
Time_Shift_1
Note_On_58_Vel_0
Time_Shift_4
Note_On_58_Vel_20
Time_Shift_326
Note_On_79_Vel_63
Time_Shift_361
Note_On_51_Vel_0
Time_Shift_3
Note_On_77_Vel_65
Time_Shift_8
Note_On_51_Vel_37
Time_Shift_273
Note_On_58_Vel_0
Time_Shift_5
Note_On_63_Vel_51
Time_Shift_3
Note_On_51_Vel_0
Time_Shift_1
Note_On_58_Vel_44
Time_Shift_6
Note_On_51_Vel_33
Sustain_Off
Time_Shift_5
Note_On_79_Vel_0
Time_Shift_2
Note_On_62_Vel_0
Time_Shift_1
Note_On_70_Vel_0
Time_Shift_2
Note_On_68_Vel_0
Time_Shift_129
Sustain_On
Time_Shift_192
Note_On_51_Vel_0
Time_Shift_6
Note_On_67_Vel_59
Time_Shift_1
Note_On_51_Vel_36
Time_Shift_16
Note_On_58_Vel_0
Time_Shift_4
Note_On_58_Vel_24
Time_Shift_334
Note_On_77_Vel_0
Time_Shift_5
Note_On_77_Vel_64
Time_Shift_256
Note_On_51_Vel_0
Time_Shift_6
Note_On_51_Vel_45
Time_Shift_324
Note_On_51_Vel_0
Time_Shift_3
Note_On_61_Vel_33
Time_Shift_2
Note_On_51_Vel_37
Time_Shift_6
Note_On_55_Vel_30
Time_Shift_27
Sustain_Off
Time_Shift_9
Note_On_67_Vel_0
Note_On_58_Vel_0
Time_Shift_2
Note_On_77_Vel_0
Time_Shift_113
Note_On_63_Vel_0
Time_Shift_30
Sustain_On
Time_Shift_254
Note_On_51_Vel_0
Time_Shift_10
Note_On_51_Vel_36
Time_Shift_406
Note_On_75_Vel_45
Time_Shift_524
Note_On_73_Vel_48
Time_Shift_7
Note_On_67_Vel_23
Time_Shift_2
Note_On_39_Vel_30
Time_Shift_31
Note_On_61_Vel_0
Time_Shift_1
Note_On_51_Vel_0
Time_Shift_3
Note_On_55_Vel_0
Time_Shift_2
Note_On_75_Vel_0
Time_Shift_2
Sustain_Off
Time_Shift_87
Sustain_On
Time_Shift_357
Note_On_72_Vel_44
Time_Shift_7
Sustain_Off
Time_Shift_8
Note_On_67_Vel_0
Time_Shift_1
Note_On_73_Vel_0
Note_On_40_Vel_17
Time_Shift_19
Note_On_39_Vel_0
Time_Shift_123
Sustain_On
Time_Shift_379
Note_On_58_Vel_30
Time_Shift_18
Note_On_48_Vel_23
Time_Shift_12
Note_On_55_Vel_26
Time_Shift_589
Note_On_58_Vel_0
Time_Shift_11
Note_On_58_Vel_36
Time_Shift_4
Note_On_48_Vel_0
Note_On_55_Vel_0
Time_Shift_4
Note_On_48_Vel_27
Note_On_55_Vel_27
Time_Shift_280
Note_On_58_Vel_0
Time_Shift_11
Note_On_58_Vel_38
Time_Shift_10
Note_On_55_Vel_0
Time_Shift_2
Sustain_Off
Time_Shift_1
Note_On_40_Vel_0
Time_Shift_13
Note_On_53_Vel_27
Time_Shift_2
Note_On_48_Vel_0
Time_Shift_7
Note_On_48_Vel_29
Time_Shift_39
Sustain_On
Time_Shift_346
Note_On_58_Vel_0
Time_Shift_4
Note_On_58_Vel_34
Note_On_73_Vel_56
Time_Shift_26
Note_On_53_Vel_0
Time_Shift_8
Note_On_48_Vel_0
Time_Shift_2
Note_On_53_Vel_23
Time_Shift_5
Note_On_48_Vel_14
Time_Shift_313
Note_On_65_Vel_53
Time_Shift_18
Note_On_48_Vel_0
Time_Shift_5
Note_On_48_Vel_16
Time_Shift_246
Note_On_41_Vel_37
Time_Shift_18
Note_On_73_Vel_0
Time_Shift_4
Note_On_73_Vel_66
Time_Shift_248
Sustain_Off
Time_Shift_2
Note_On_41_Vel_0
Time_Shift_1
Note_On_48_Vel_0
Note_On_72_Vel_0
Note_On_65_Vel_0
Time_Shift_1
Note_On_58_Vel_0
Time_Shift_5
Note_On_53_Vel_0
Time_Shift_41
Note_On_64_Vel_61
Time_Shift_2
Note_On_43_Vel_44
Time_Shift_95
Sustain_On
Time_Shift_307
Note_On_73_Vel_0
Time_Shift_10
Note_On_73_Vel_61
Time_Shift_12
Note_On_55_Vel_35
Time_Shift_18
Note_On_58_Vel_42
Time_Shift_15
Note_On_48_Vel_26
Time_Shift_316
Note_On_72_Vel_61
Time_Shift_274
Note_On_58_Vel_0
Time_Shift_11
Note_On_58_Vel_43
Time_Shift_12
Note_On_55_Vel_0
Time_Shift_8
Note_On_48_Vel_0
Time_Shift_4
Note_On_55_Vel_35
Note_On_48_Vel_33
Time_Shift_259
Note_On_63_Vel_60
Time_Shift_12
Note_On_57_Vel_45
Time_Shift_9
Note_On_48_Vel_0
Time_Shift_6
Note_On_48_Vel_30
Time_Shift_5
Note_On_43_Vel_0
Time_Shift_1
Note_On_73_Vel_0
Note_On_72_Vel_0
Note_On_55_Vel_0
Sustain_Off
Time_Shift_1
Note_On_64_Vel_0
Time_Shift_10
Note_On_58_Vel_0
Time_Shift_108
Sustain_On
Time_Shift_153
Note_On_48_Vel_0
Time_Shift_6
Note_On_48_Vel_33
Time_Shift_21
Note_On_55_Vel_39
Time_Shift_27
Note_On_57_Vel_0
Time_Shift_10
Note_On_57_Vel_47
Time_Shift_4
Note_On_69_Vel_68
Time_Shift_279
Note_On_72_Vel_72
Time_Shift_303
Note_On_43_Vel_45
Time_Shift_9
Note_On_75_Vel_77
Time_Shift_335
Sustain_Off
Time_Shift_5
Note_On_55_Vel_0
Time_Shift_1
Note_On_63_Vel_0
Note_On_69_Vel_0
Time_Shift_1
Note_On_48_Vel_0
Note_On_43_Vel_0
Note_On_72_Vel_0
Time_Shift_1
Note_On_75_Vel_0
Time_Shift_12
Note_On_57_Vel_0
Time_Shift_25
Note_On_42_Vel_38
Time_Shift_1
Note_On_74_Vel_68
Time_Shift_97
Sustain_On
Time_Shift_390
Note_On_60_Vel_47
Time_Shift_4
Note_On_57_Vel_46
Time_Shift_26
Note_On_50_Vel_38
Time_Shift_463
Note_On_50_Vel_0
Note_On_57_Vel_0
Note_On_60_Vel_0
Time_Shift_4
Note_On_60_Vel_53
Time_Shift_2
Note_On_57_Vel_52
Time_Shift_1
Note_On_50_Vel_44
Time_Shift_300
Note_On_60_Vel_0
Time_Shift_5
Note_On_60_Vel_58
Time_Shift_3
Note_On_50_Vel_0
Time_Shift_3
Sustain_Off
Time_Shift_1
Note_On_57_Vel_0
Time_Shift_2
Note_On_42_Vel_0
Time_Shift_5
Note_On_55_Vel_44
Note_On_50_Vel_41
Time_Shift_28
Note_On_74_Vel_0
Time_Shift_53
Sustain_On
Time_Shift_302
Note_On_75_Vel_73
Time_Shift_5
Note_On_60_Vel_0
Time_Shift_7
Note_On_60_Vel_50
Time_Shift_9
Note_On_55_Vel_0
Time_Shift_4
Note_On_55_Vel_43
Time_Shift_11
Note_On_50_Vel_0
Time_Shift_11
Note_On_50_Vel_45
Time_Shift_253
Note_On_67_Vel_68
Time_Shift_266
Note_On_75_Vel_0
Time_Shift_7
Note_On_43_Vel_52
Time_Shift_2
Note_On_75_Vel_80
Time_Shift_1
Note_On_55_Vel_0
Time_Shift_263
Sustain_Off
Time_Shift_3
Note_On_50_Vel_0
Note_On_43_Vel_0
Time_Shift_2
Note_On_67_Vel_0
Time_Shift_22
Note_On_60_Vel_0
Time_Shift_3
Note_On_66_Vel_65
Time_Shift_7
Note_On_45_Vel_54
Time_Shift_105
Sustain_On
Time_Shift_269
Note_On_75_Vel_0
Time_Shift_6
Note_On_75_Vel_76
Time_Shift_12
Note_On_57_Vel_53
Note_On_60_Vel_53
Time_Shift_16
Note_On_50_Vel_41
Time_Shift_291
Note_On_74_Vel_78
Time_Shift_220
Note_On_60_Vel_0
Time_Shift_4
Note_On_60_Vel_53
Time_Shift_11
Note_On_57_Vel_0
Time_Shift_5
Note_On_57_Vel_50
Time_Shift_3
Note_On_50_Vel_0
Time_Shift_6
Note_On_50_Vel_40
Time_Shift_249
Note_On_65_Vel_68
Time_Shift_17
Sustain_Off
Note_On_74_Vel_0
Time_Shift_3
Note_On_75_Vel_0
Time_Shift_1
Note_On_57_Vel_0
Time_Shift_1
Note_On_66_Vel_0
Note_On_60_Vel_0
Time_Shift_7
Note_On_59_Vel_52
Time_Shift_2
Note_On_57_Vel_45
Time_Shift_13
Note_On_50_Vel_0
Time_Shift_6
Note_On_50_Vel_43
Time_Shift_64
Sustain_On
Time_Shift_234
Note_On_71_Vel_78
Time_Shift_19
Note_On_50_Vel_0
Note_On_57_Vel_0
Note_On_59_Vel_0
Time_Shift_4
Note_On_57_Vel_47
Note_On_59_Vel_48
Time_Shift_2
Note_On_50_Vel_41
Time_Shift_259
Note_On_74_Vel_80
Time_Shift_273
Note_On_45_Vel_0
Time_Shift_6
Note_On_45_Vel_49
Time_Shift_1
Note_On_57_Vel_0
Time_Shift_10
Note_On_77_Vel_80
Time_Shift_341
Note_On_45_Vel_0
Note_On_74_Vel_0
Note_On_77_Vel_0
Note_On_59_Vel_0
Note_On_71_Vel_0
Note_On_65_Vel_0
Note_On_50_Vel_0
Time_Shift_1
Sustain_Off
Time_Shift_5
Note_On_76_Vel_74
Time_Shift_1
Note_On_44_Vel_52
Time_Shift_172
Sustain_On
Time_Shift_265
Note_On_62_Vel_54
Time_Shift_13
Note_On_52_Vel_47
Time_Shift_529
Note_On_62_Vel_0
Time_Shift_7
Note_On_52_Vel_0
Time_Shift_4
Note_On_62_Vel_48
Time_Shift_3
Note_On_52_Vel_35
Time_Shift_280
Note_On_45_Vel_58
Time_Shift_32
Note_On_44_Vel_0
Time_Shift_2
Note_On_52_Vel_0
Time_Shift_1
Sustain_Off
Time_Shift_16
Note_On_62_Vel_0
Time_Shift_115
Sustain_On
Time_Shift_200
Note_On_77_Vel_69
Time_Shift_12
Note_On_52_Vel_40
Time_Shift_8
Note_On_60_Vel_44
Time_Shift_377
Note_On_72_Vel_72
Time_Shift_271
Note_On_60_Vel_0
Time_Shift_11
Note_On_60_Vel_42
Note_On_74_Vel_70
Time_Shift_5
Note_On_52_Vel_0
Time_Shift_4
Note_On_52_Vel_38
Time_Shift_236
Sustain_Off
Note_On_74_Vel_0
Note_On_45_Vel_0
Note_On_72_Vel_0
Time_Shift_1
Note_On_52_Vel_0
Note_On_77_Vel_0
Time_Shift_12
Note_On_60_Vel_0
Time_Shift_15
Note_On_76_Vel_0
Time_Shift_8
Note_On_76_Vel_71
Time_Shift_13
Note_On_44_Vel_45
Time_Shift_102
Sustain_On
Time_Shift_329
Note_On_64_Vel_45
Time_Shift_2
Note_On_59_Vel_42
Time_Shift_36
Note_On_52_Vel_23
Time_Shift_297
Note_On_71_Vel_64
Time_Shift_342
Note_On_59_Vel_0
Note_On_64_Vel_0
Time_Shift_8
Note_On_52_Vel_0
Time_Shift_3
Note_On_59_Vel_36
Note_On_64_Vel_37
Time_Shift_7
Note_On_52_Vel_28
Time_Shift_414
Sustain_Off
Time_Shift_2
Note_On_64_Vel_0
Note_On_59_Vel_0
Time_Shift_1
Note_On_52_Vel_0
Note_On_71_Vel_0
Note_On_44_Vel_0
Time_Shift_1
Note_On_76_Vel_0
Time_Shift_21
Note_On_73_Vel_57
Time_Shift_5
Note_On_43_Vel_29
Time_Shift_18
Note_On_62_Vel_16
Time_Shift_4
Note_On_62_Vel_0
Time_Shift_92
Sustain_On
Time_Shift_142
Note_On_74_Vel_37
Time_Shift_50
Note_On_73_Vel_0
Time_Shift_12
Note_On_73_Vel_41
Time_Shift_50
Note_On_74_Vel_0
Time_Shift_8
Note_On_74_Vel_45
Time_Shift_69
Note_On_73_Vel_0
Time_Shift_10
Note_On_73_Vel_36
Time_Shift_28
Note_On_64_Vel_38
Time_Shift_10
Note_On_58_Vel_37
Time_Shift_8
Note_On_52_Vel_36
Time_Shift_20
Note_On_73_Vel_0
Time_Shift_12
Note_On_73_Vel_58
Time_Shift_65
Note_On_74_Vel_0
Time_Shift_5
Note_On_74_Vel_54
Time_Shift_49
Note_On_73_Vel_0
Time_Shift_6
Note_On_73_Vel_56
Time_Shift_55
Note_On_74_Vel_0
Time_Shift_5
Note_On_74_Vel_53
Time_Shift_34
Note_On_73_Vel_0
Time_Shift_3
Note_On_70_Vel_42
Time_Shift_1
Note_On_73_Vel_62
Time_Shift_50
Note_On_74_Vel_0
Time_Shift_6
Note_On_74_Vel_67
Time_Shift_63
Note_On_73_Vel_0
Time_Shift_4
Note_On_73_Vel_52
Time_Shift_34
Note_On_74_Vel_0
Time_Shift_11
Note_On_74_Vel_56
Time_Shift_43
Note_On_73_Vel_0
Time_Shift_9
Note_On_73_Vel_62
Time_Shift_60
Note_On_74_Vel_0
Time_Shift_4
Note_On_74_Vel_70
Time_Shift_50
Note_On_73_Vel_0
Time_Shift_11
Note_On_73_Vel_61
Time_Shift_50
Note_On_74_Vel_0
Time_Shift_10
Note_On_74_Vel_62
Time_Shift_36
Note_On_73_Vel_0
Time_Shift_11
Note_On_73_Vel_67
Time_Shift_66
Note_On_74_Vel_0
Time_Shift_5
Note_On_74_Vel_60
Time_Shift_41
Note_On_52_Vel_0
Time_Shift_7
Note_On_52_Vel_29
Time_Shift_1
Note_On_58_Vel_0
Time_Shift_8
Note_On_73_Vel_0
Time_Shift_3
Note_On_58_Vel_32
Time_Shift_1
Note_On_73_Vel_63
Time_Shift_72
Note_On_74_Vel_0
Time_Shift_10
Note_On_74_Vel_46
Time_Shift_67
Note_On_73_Vel_0
Time_Shift_6
Note_On_73_Vel_58
Time_Shift_139
Note_On_72_Vel_55
Time_Shift_170
Note_On_73_Vel_0
Time_Shift_8
Note_On_73_Vel_51
Time_Shift_190
Sustain_Off
Time_Shift_7
Note_On_73_Vel_0
Time_Shift_1
Note_On_64_Vel_0
Note_On_70_Vel_0
Time_Shift_1
Note_On_74_Vel_0
Note_On_72_Vel_0
Note_On_43_Vel_0
Time_Shift_16
Note_On_52_Vel_0
Note_On_58_Vel_0
Time_Shift_43
Note_On_74_Vel_45
Time_Shift_15
Note_On_41_Vel_23
Time_Shift_118
Sustain_On
Time_Shift_392
Note_On_75_Vel_44
Time_Shift_22
Note_On_65_Vel_23
Time_Shift_5
Note_On_53_Vel_21
Time_Shift_13
Note_On_58_Vel_22
Time_Shift_324
Note_On_79_Vel_51
Time_Shift_300
Note_On_77_Vel_47
Time_Shift_12
Note_On_53_Vel_0
Time_Shift_6
Note_On_53_Vel_17
Time_Shift_2
Note_On_58_Vel_0
Note_On_65_Vel_0
Time_Shift_3
Note_On_65_Vel_20
Time_Shift_7
Note_On_58_Vel_18
Time_Shift_289
Note_On_74_Vel_0
Time_Shift_7
Note_On_74_Vel_50
Time_Shift_327
Note_On_57_Vel_30
Time_Shift_1
Note_On_63_Vel_32
Time_Shift_3
Note_On_53_Vel_0
Note_On_75_Vel_0
Time_Shift_5
Note_On_75_Vel_45
Time_Shift_3
Note_On_53_Vel_23
Time_Shift_26
Sustain_Off
Time_Shift_2
Note_On_58_Vel_0
Time_Shift_2
Note_On_79_Vel_0
Time_Shift_2
Note_On_74_Vel_0
Time_Shift_1
Note_On_77_Vel_0
Time_Shift_1
Note_On_65_Vel_0
Time_Shift_12
Note_On_41_Vel_0
Time_Shift_130
Sustain_On
Time_Shift_134
Note_On_70_Vel_51
Time_Shift_296
Note_On_53_Vel_0
Time_Shift_6
Note_On_53_Vel_20
Time_Shift_2
Note_On_63_Vel_0
Time_Shift_7
Note_On_63_Vel_26
Time_Shift_26
Note_On_72_Vel_55
Time_Shift_319
Sustain_Off
Time_Shift_1
Note_On_70_Vel_0
Time_Shift_2
Note_On_74_Vel_46
Time_Shift_2
Note_On_53_Vel_0
Note_On_57_Vel_0
Time_Shift_4
Note_On_72_Vel_0
Time_Shift_15
Note_On_63_Vel_0
Note_On_75_Vel_0
Time_Shift_6
Note_On_41_Vel_26
Time_Shift_110
Sustain_On
Time_Shift_332
Note_On_57_Vel_33
Time_Shift_8
Note_On_62_Vel_28
Time_Shift_22
Note_On_53_Vel_18
Time_Shift_318
Note_On_69_Vel_47
Time_Shift_349
Note_On_57_Vel_0
Note_On_62_Vel_0
Time_Shift_9
Note_On_62_Vel_30
Time_Shift_2
Note_On_57_Vel_28
Time_Shift_19
Note_On_53_Vel_0
Time_Shift_8
Note_On_53_Vel_20
Time_Shift_399
Note_On_62_Vel_0
Time_Shift_7
Note_On_71_Vel_45
Note_On_62_Vel_37
Time_Shift_1
Note_On_53_Vel_0
Time_Shift_7
Note_On_56_Vel_34
Time_Shift_5
Note_On_53_Vel_21
Time_Shift_20
Note_On_74_Vel_0
Time_Shift_3
Sustain_Off
Note_On_69_Vel_0
Time_Shift_11
Note_On_57_Vel_0
Time_Shift_8
Note_On_41_Vel_0
Time_Shift_146
Sustain_On
Time_Shift_63
Note_On_73_Vel_41
Time_Shift_75
Note_On_71_Vel_0
Time_Shift_5
Note_On_71_Vel_41
Time_Shift_49
Note_On_73_Vel_0
Time_Shift_11
Note_On_73_Vel_49
Time_Shift_73
Note_On_71_Vel_0
Time_Shift_10
Note_On_71_Vel_45
Time_Shift_44
Note_On_56_Vel_0
Note_On_62_Vel_0
Time_Shift_4
Note_On_62_Vel_28
Time_Shift_1
Note_On_56_Vel_36
Time_Shift_3
Note_On_73_Vel_0
Time_Shift_5
Note_On_73_Vel_47
Time_Shift_49
Note_On_71_Vel_0
Time_Shift_4
Note_On_71_Vel_50
Time_Shift_57
Note_On_73_Vel_0
Time_Shift_8
Note_On_73_Vel_60
Time_Shift_61
Note_On_71_Vel_0
Time_Shift_5
Note_On_71_Vel_51
Time_Shift_49
Note_On_73_Vel_0
Time_Shift_9
Note_On_73_Vel_50
Time_Shift_45
Note_On_71_Vel_0
Time_Shift_4
Note_On_71_Vel_57
Time_Shift_57
Note_On_73_Vel_0
Time_Shift_9
Note_On_73_Vel_64
Time_Shift_45
Note_On_71_Vel_0
Time_Shift_11
Note_On_71_Vel_58
Time_Shift_73
Note_On_73_Vel_0
Time_Shift_6
Note_On_73_Vel_51
Time_Shift_17
Note_On_71_Vel_0
Time_Shift_4
Note_On_71_Vel_54
Time_Shift_65
Note_On_73_Vel_0
Time_Shift_9
Note_On_73_Vel_68
Time_Shift_61
Note_On_71_Vel_0
Time_Shift_6
Note_On_71_Vel_59
Time_Shift_63
Note_On_73_Vel_0
Time_Shift_6
Note_On_73_Vel_51
Time_Shift_40
Note_On_71_Vel_0
Time_Shift_4
Note_On_71_Vel_60
Time_Shift_57
Note_On_73_Vel_0
Time_Shift_7
Note_On_73_Vel_71
Time_Shift_47
Note_On_71_Vel_0
Time_Shift_10
Note_On_71_Vel_64
Time_Shift_59
Note_On_73_Vel_0
Time_Shift_11
Note_On_73_Vel_60
Time_Shift_35
Note_On_71_Vel_0
Time_Shift_8
Note_On_71_Vel_55
Time_Shift_46
Note_On_73_Vel_0
Time_Shift_10
Note_On_73_Vel_70
Time_Shift_59
Note_On_62_Vel_0
Time_Shift_8
Note_On_56_Vel_0
Note_On_71_Vel_0
Time_Shift_3
Note_On_62_Vel_50
Note_On_52_Vel_45
Time_Shift_3
Note_On_71_Vel_56
Time_Shift_4
Note_On_56_Vel_47
Time_Shift_43
Note_On_73_Vel_0
Time_Shift_11
Note_On_73_Vel_63
Time_Shift_43
Note_On_71_Vel_0
Time_Shift_5
Note_On_71_Vel_59
Time_Shift_64
Note_On_73_Vel_0
Time_Shift_7
Note_On_73_Vel_73
Time_Shift_55
Note_On_71_Vel_0
Time_Shift_7
Note_On_71_Vel_67
Time_Shift_54
Note_On_73_Vel_0
Time_Shift_11
Note_On_73_Vel_78
Time_Shift_66
Note_On_71_Vel_0
Time_Shift_7
Note_On_71_Vel_68
Time_Shift_101
Note_On_73_Vel_0
Time_Shift_7
Note_On_70_Vel_75
Time_Shift_4
Note_On_73_Vel_61
Time_Shift_119
Note_On_71_Vel_0
Time_Shift_5
Note_On_71_Vel_80
Time_Shift_189
Note_On_70_Vel_0
Time_Shift_1
Note_On_62_Vel_0
Note_On_52_Vel_0
Note_On_56_Vel_0
Note_On_71_Vel_0
Time_Shift_1
Note_On_73_Vel_0
Time_Shift_1
Sustain_Off
Time_Shift_10
Note_On_53_Vel_0
Time_Shift_25
Note_On_39_Vel_49
Time_Shift_2
Note_On_72_Vel_79
Time_Shift_135
Sustain_On
Time_Shift_396
Note_On_63_Vel_61
Time_Shift_23
Note_On_51_Vel_41
Time_Shift_13
Note_On_56_Vel_36
Time_Shift_610
Note_On_62_Vel_65
Time_Shift_25
Note_On_51_Vel_0
Note_On_56_Vel_0
Time_Shift_7
Note_On_56_Vel_42
Time_Shift_4
Note_On_51_Vel_35
Time_Shift_375
Note_On_70_Vel_72
Time_Shift_8
Note_On_61_Vel_50
Time_Shift_21
Note_On_51_Vel_0
Time_Shift_8
Note_On_56_Vel_0
Time_Shift_3
Note_On_51_Vel_41
Time_Shift_5
Note_On_56_Vel_40
Time_Shift_3
Note_On_63_Vel_0
Time_Shift_1
Sustain_Off
Note_On_72_Vel_0
Note_On_62_Vel_0
Time_Shift_149
Note_On_39_Vel_0
Sustain_On
Time_Shift_272
Note_On_55_Vel_45
Time_Shift_18
Note_On_52_Vel_39
Time_Shift_43
Sustain_Off
Time_Shift_13
Note_On_56_Vel_0
Time_Shift_23
Note_On_51_Vel_0
Time_Shift_76
Sustain_On
Time_Shift_453
Note_On_40_Vel_47
Time_Shift_186
Note_On_72_Vel_75
Time_Shift_204
Sustain_Off
Time_Shift_18
Note_On_70_Vel_0
Time_Shift_10
Note_On_70_Vel_70
Time_Shift_3
Note_On_41_Vel_45
Time_Shift_4
Note_On_61_Vel_0
Time_Shift_3
Note_On_40_Vel_0
Time_Shift_1
Note_On_52_Vel_0
Time_Shift_1
Note_On_55_Vel_0
Time_Shift_27
Note_On_72_Vel_0
Time_Shift_96
Sustain_On
Time_Shift_348
Note_On_69_Vel_72
Time_Shift_2
Note_On_60_Vel_46
Time_Shift_4
Note_On_48_Vel_44
Time_Shift_3
Note_On_53_Vel_39
Time_Shift_353
Note_On_68_Vel_74
Time_Shift_284
Note_On_59_Vel_61
Time_Shift_13
Note_On_48_Vel_0
Note_On_53_Vel_0
Time_Shift_4
Note_On_48_Vel_42
Time_Shift_1
Note_On_53_Vel_40
Time_Shift_323
Note_On_58_Vel_55
Time_Shift_1
Note_On_67_Vel_65
Time_Shift_1
Note_On_48_Vel_0
Note_On_53_Vel_0
Time_Shift_4
Note_On_48_Vel_44
Note_On_53_Vel_40
Time_Shift_25
Sustain_Off
Time_Shift_3
Note_On_41_Vel_0
Time_Shift_2
Note_On_60_Vel_0
Note_On_69_Vel_0
Note_On_59_Vel_0
Time_Shift_2
Note_On_68_Vel_0
Time_Shift_10
Note_On_70_Vel_0
Time_Shift_107
Sustain_On
Time_Shift_246
Note_On_48_Vel_0
Time_Shift_5
Note_On_70_Vel_67
Note_On_48_Vel_33
Time_Shift_6
Note_On_52_Vel_44
Time_Shift_54
Sustain_Off
Time_Shift_18
Note_On_67_Vel_0
Time_Shift_17
Note_On_53_Vel_0
Time_Shift_84
Sustain_On
Time_Shift_119
Note_On_68_Vel_74
Time_Shift_283
Note_On_36_Vel_42
Time_Shift_1
Note_On_67_Vel_70
Time_Shift_245
Note_On_70_Vel_0
Time_Shift_1
Note_On_68_Vel_0
Note_On_58_Vel_0
Note_On_52_Vel_0
Note_On_36_Vel_0
Time_Shift_1
Note_On_48_Vel_0
Time_Shift_4
Sustain_Off
Time_Shift_2
Note_On_67_Vel_0
Time_Shift_40
Note_On_64_Vel_71
Time_Shift_8
Note_On_37_Vel_50
Time_Shift_95
Sustain_On
Time_Shift_301
Note_On_56_Vel_60
Time_Shift_3
Note_On_53_Vel_48
Time_Shift_487
Note_On_53_Vel_0
Time_Shift_1
Note_On_63_Vel_60
Time_Shift_3
Note_On_57_Vel_52
Time_Shift_1
Note_On_53_Vel_40
Time_Shift_275
Note_On_37_Vel_0
Time_Shift_1
Note_On_63_Vel_0
Time_Shift_1
Note_On_56_Vel_0
Note_On_57_Vel_0
Note_On_64_Vel_0
Time_Shift_2
Sustain_Off
Time_Shift_29
Note_On_65_Vel_62
Time_Shift_10
Note_On_53_Vel_0
Time_Shift_2
Note_On_61_Vel_42
Time_Shift_7
Note_On_53_Vel_34
Time_Shift_2
Note_On_58_Vel_39
Time_Shift_73
Sustain_On
Time_Shift_274
Note_On_69_Vel_72
Time_Shift_6
Note_On_37_Vel_47
Time_Shift_234
Sustain_Off
Time_Shift_48
Note_On_70_Vel_72
Time_Shift_32
Note_On_58_Vel_0
Time_Shift_1
Note_On_69_Vel_0
Note_On_65_Vel_0
Time_Shift_1
Note_On_53_Vel_0
Time_Shift_88
Sustain_On
Time_Shift_249
Note_On_36_Vel_53
Time_Shift_190
Note_On_72_Vel_76
Time_Shift_181
Note_On_37_Vel_0
Note_On_70_Vel_0
Time_Shift_2
Note_On_36_Vel_0
Time_Shift_5
Sustain_Off
Time_Shift_20
Note_On_73_Vel_74
Time_Shift_2
Note_On_34_Vel_45
Time_Shift_4
Note_On_61_Vel_0
Time_Shift_15
Note_On_72_Vel_0
Time_Shift_115
Sustain_On
Time_Shift_304
Note_On_53_Vel_59
Time_Shift_652
Note_On_60_Vel_64
Time_Shift_12
Note_On_53_Vel_0
Time_Shift_4
Note_On_53_Vel_38
Time_Shift_20
Note_On_49_Vel_39
Time_Shift_346
Note_On_60_Vel_0
Note_On_34_Vel_0
Note_On_73_Vel_0
Time_Shift_2
Sustain_Off
Time_Shift_14
Note_On_77_Vel_68
Time_Shift_2
Note_On_58_Vel_46
Time_Shift_11
Note_On_49_Vel_0
Note_On_53_Vel_0
Time_Shift_5
Note_On_49_Vel_36
Time_Shift_1
Note_On_53_Vel_31
Time_Shift_94
Sustain_On
Time_Shift_333
Note_On_34_Vel_31
Time_Shift_785
Note_On_32_Vel_31
Time_Shift_595
Note_On_49_Vel_0
Note_On_58_Vel_0
Time_Shift_1
Note_On_34_Vel_0
Time_Shift_1
Note_On_53_Vel_0
Note_On_77_Vel_0
Time_Shift_1
Sustain_Off
Time_Shift_16
Note_On_63_Vel_51
Time_Shift_19
Note_On_31_Vel_31
Note_On_32_Vel_0
Time_Shift_192
Sustain_On
Time_Shift_23
Note_On_31_Vel_0
Time_Shift_266
Note_On_61_Vel_33
Time_Shift_14
Note_On_58_Vel_37
Time_Shift_5
Note_On_51_Vel_26
Time_Shift_568
Note_On_61_Vel_0
Time_Shift_10
Note_On_61_Vel_33
Time_Shift_13
Note_On_51_Vel_0
Note_On_58_Vel_0
Time_Shift_7
Note_On_58_Vel_29
Time_Shift_2
Note_On_51_Vel_25
Time_Shift_364
Note_On_73_Vel_55
Time_Shift_424
Note_On_72_Vel_54
Time_Shift_17
Note_On_51_Vel_0
Time_Shift_10
Note_On_51_Vel_30
Time_Shift_30
Sustain_Off
Time_Shift_4
Note_On_58_Vel_0
Time_Shift_1
Note_On_63_Vel_0
Time_Shift_3
Note_On_73_Vel_0
Time_Shift_21
Note_On_61_Vel_0
Time_Shift_184
Sustain_On
Time_Shift_59
Note_On_70_Vel_50
Time_Shift_317
Note_On_72_Vel_0
Time_Shift_12
Note_On_72_Vel_50
Time_Shift_4
Note_On_51_Vel_0
Time_Shift_10
Note_On_51_Vel_27
Time_Shift_250
Note_On_70_Vel_0
Time_Shift_4
Sustain_Off
Time_Shift_31
Note_On_68_Vel_48
Time_Shift_20
Note_On_51_Vel_0
Time_Shift_6
Note_On_51_Vel_21
Time_Shift_1
Note_On_72_Vel_0
Time_Shift_5
Note_On_44_Vel_32
Time_Shift_111
Sustain_On
Time_Shift_294
Note_On_60_Vel_38
Time_Shift_573
Note_On_60_Vel_0
Time_Shift_10
Note_On_60_Vel_28
Time_Shift_11
Note_On_56_Vel_25
Time_Shift_2
Note_On_51_Vel_0
Time_Shift_5
Note_On_51_Vel_23
Time_Shift_328
Note_On_65_Vel_45
Time_Shift_312
Note_On_36_Vel_32
Time_Shift_101
Note_On_56_Vel_0
Time_Shift_1
Note_On_68_Vel_0
Time_Shift_1
Note_On_51_Vel_0
Sustain_Off
Note_On_60_Vel_0
Note_On_44_Vel_0
Time_Shift_182
Sustain_On
Time_Shift_429
Note_On_37_Vel_34
Time_Shift_293
Note_On_36_Vel_0
Time_Shift_43
Note_On_37_Vel_0
Time_Shift_5
Sustain_Off
Time_Shift_56
Note_On_39_Vel_27
Time_Shift_5
Note_On_63_Vel_43
Time_Shift_33
Note_On_65_Vel_0
Time_Shift_134
Sustain_On
Time_Shift_330
Note_On_60_Vel_34
Time_Shift_11
Note_On_56_Vel_28
Time_Shift_15
Note_On_51_Vel_28
Time_Shift_719
Note_On_60_Vel_0
Time_Shift_5
Note_On_60_Vel_26
Time_Shift_11
Note_On_51_Vel_0
Note_On_56_Vel_0
Time_Shift_10
Note_On_56_Vel_21
Note_On_53_Vel_27
Time_Shift_1
Note_On_51_Vel_21
Time_Shift_373
Note_On_39_Vel_0
Time_Shift_41
Note_On_73_Vel_40
Time_Shift_7
Sustain_Off
Time_Shift_2
Note_On_61_Vel_24
Time_Shift_3
Note_On_51_Vel_0
Time_Shift_2
Note_On_55_Vel_22
Note_On_60_Vel_0
Time_Shift_1
Note_On_56_Vel_0
Note_On_53_Vel_0
Note_On_63_Vel_0
Time_Shift_6
Note_On_51_Vel_23
Time_Shift_145
Sustain_On
Time_Shift_369
Note_On_51_Vel_0
Time_Shift_2
Note_On_72_Vel_47
Time_Shift_3
Note_On_51_Vel_24
Time_Shift_42
Sustain_Off
Time_Shift_137
Sustain_On
Time_Shift_198
Note_On_70_Vel_47
Time_Shift_324
Note_On_72_Vel_0
Time_Shift_8
Note_On_72_Vel_48
Time_Shift_15
Note_On_51_Vel_0
Time_Shift_5
Note_On_51_Vel_22
Time_Shift_314
Note_On_68_Vel_42
Time_Shift_15
Sustain_Off
Note_On_72_Vel_0
Time_Shift_1
Note_On_70_Vel_0
Time_Shift_1
Note_On_60_Vel_25
Time_Shift_2
Note_On_51_Vel_0
Note_On_55_Vel_0
Time_Shift_1
Note_On_56_Vel_29
Time_Shift_5
Note_On_51_Vel_18
Time_Shift_2
Note_On_61_Vel_0
Note_On_73_Vel_0
Time_Shift_130
Sustain_On
Time_Shift_239
Note_On_51_Vel_0
Time_Shift_6
Note_On_51_Vel_41
Time_Shift_808
Note_On_51_Vel_0
Time_Shift_4
Note_On_51_Vel_26
Time_Shift_446
Note_On_59_Vel_25
Time_Shift_3
Note_On_51_Vel_0
Note_On_56_Vel_0
Time_Shift_5
Note_On_74_Vel_44
Note_On_51_Vel_25
Time_Shift_2
Note_On_56_Vel_22
Time_Shift_31
Sustain_Off
Time_Shift_8
Note_On_60_Vel_0
Time_Shift_15
Sustain_On
Time_Shift_146
Note_On_68_Vel_0
Time_Shift_300
Note_On_51_Vel_0
Time_Shift_4
Note_On_51_Vel_31
Time_Shift_902
Note_On_51_Vel_0
Time_Shift_6
Note_On_51_Vel_25
Time_Shift_616
Note_On_74_Vel_0
Time_Shift_11
Note_On_74_Vel_44
Time_Shift_4
Note_On_56_Vel_0
Time_Shift_2
Note_On_39_Vel_25
Time_Shift_5
Sustain_Off
Time_Shift_1
Note_On_67_Vel_19
Time_Shift_4
Note_On_51_Vel_0
Time_Shift_19
Note_On_59_Vel_0
Time_Shift_146
Sustain_On
Time_Shift_261
Note_On_39_Vel_0
Time_Shift_171
Note_On_46_Vel_25
Time_Shift_397
Note_On_55_Vel_23
Time_Shift_407
Note_On_59_Vel_27
Time_Shift_363
Note_On_58_Vel_35
Time_Shift_403
Note_On_75_Vel_47
Time_Shift_10
Note_On_55_Vel_0
Time_Shift_5
Note_On_55_Vel_22
Time_Shift_428
Note_On_63_Vel_32
Time_Shift_473
Note_On_75_Vel_0
Time_Shift_5
Note_On_75_Vel_53
Time_Shift_550
Note_On_77_Vel_50
Time_Shift_18
Note_On_39_Vel_27
Note_On_51_Vel_24
Time_Shift_16
Sustain_Off
Time_Shift_15
Note_On_46_Vel_0
Note_On_67_Vel_0
Note_On_58_Vel_0
Time_Shift_1
Note_On_51_Vel_0
Time_Shift_2
Note_On_55_Vel_0
Time_Shift_5
Note_On_63_Vel_0
Time_Shift_3
Note_On_59_Vel_0
Time_Shift_23
Note_On_74_Vel_0
Time_Shift_46
Sustain_On
Time_Shift_391
Note_On_46_Vel_26
Time_Shift_298
Note_On_73_Vel_47
Time_Shift_24
Note_On_53_Vel_21
Time_Shift_232
Note_On_75_Vel_0
Time_Shift_84
Note_On_58_Vel_34
Time_Shift_361
Note_On_82_Vel_51
Time_Shift_4
Note_On_56_Vel_29
Note_On_70_Vel_33
Time_Shift_380
Note_On_53_Vel_0
Time_Shift_11
Note_On_53_Vel_24
Time_Shift_408
Note_On_68_Vel_36
Time_Shift_3
Note_On_61_Vel_30
Time_Shift_453
Note_On_82_Vel_0
Time_Shift_8
Note_On_70_Vel_0
Time_Shift_3
Note_On_82_Vel_61
Time_Shift_3
Note_On_70_Vel_32
Time_Shift_513
Note_On_68_Vel_0
Time_Shift_1
Note_On_46_Vel_0
Time_Shift_1
Note_On_58_Vel_0
Note_On_61_Vel_0
Note_On_56_Vel_0
Time_Shift_1
Note_On_73_Vel_0
Note_On_70_Vel_0
Time_Shift_1
Note_On_77_Vel_0
Sustain_Off
Time_Shift_2
Note_On_82_Vel_0
Time_Shift_8
Note_On_84_Vel_51
Time_Shift_5
Note_On_39_Vel_0
Note_On_53_Vel_0
Time_Shift_11
Note_On_39_Vel_29
Time_Shift_89
Sustain_On
Time_Shift_401
Note_On_82_Vel_51
Time_Shift_25
Note_On_70_Vel_20
Time_Shift_11
Note_On_70_Vel_0
Time_Shift_12
Note_On_46_Vel_21
Time_Shift_1
Note_On_51_Vel_14
Time_Shift_322
Note_On_79_Vel_48
Time_Shift_26
Note_On_51_Vel_0
Time_Shift_10
Note_On_51_Vel_24
Time_Shift_307
Note_On_75_Vel_47
Time_Shift_24
Note_On_53_Vel_23
Time_Shift_305
Note_On_73_Vel_50
Time_Shift_19
Note_On_55_Vel_29
Time_Shift_7
Note_On_70_Vel_25
Time_Shift_373
Note_On_51_Vel_0
Time_Shift_8
Note_On_51_Vel_24
Time_Shift_407
Note_On_51_Vel_0
Time_Shift_4
Note_On_58_Vel_28
Time_Shift_7
Note_On_51_Vel_15
Time_Shift_1
Note_On_67_Vel_26
Time_Shift_525
Note_On_73_Vel_0
Time_Shift_6
Note_On_73_Vel_58
Time_Shift_2
Note_On_51_Vel_0
Note_On_55_Vel_0
Time_Shift_4
Note_On_51_Vel_19
Time_Shift_3
Note_On_55_Vel_19
Time_Shift_377
Note_On_73_Vel_0
Time_Shift_7
Note_On_39_Vel_0
Note_On_51_Vel_0
Note_On_58_Vel_0
Time_Shift_4
Note_On_73_Vel_54
Time_Shift_2
Note_On_39_Vel_26
Time_Shift_4
Note_On_58_Vel_29
Time_Shift_2
Note_On_51_Vel_21
Time_Shift_27
Note_On_70_Vel_0
Time_Shift_9
Note_On_53_Vel_0
Time_Shift_1
Sustain_Off
Time_Shift_1
Note_On_84_Vel_0
Note_On_46_Vel_0
Note_On_67_Vel_0
Time_Shift_1
Note_On_55_Vel_0
Note_On_82_Vel_0
Note_On_79_Vel_0
Time_Shift_1
Note_On_75_Vel_0
Time_Shift_125
Sustain_On
Time_Shift_8
Note_On_58_Vel_0
Time_Shift_313
Note_On_44_Vel_34
Time_Shift_383
Note_On_72_Vel_47
Time_Shift_18
Note_On_51_Vel_0
Time_Shift_5
Note_On_51_Vel_18
Time_Shift_3
Note_On_44_Vel_0
Time_Shift_4
Note_On_44_Vel_19
Time_Shift_7
Sustain_Off
Time_Shift_89
Sustain_On
Time_Shift_115
Note_On_73_Vel_0
Time_Shift_137
Note_On_56_Vel_30
Time_Shift_331
Note_On_44_Vel_0
Time_Shift_8
Note_On_54_Vel_27
Time_Shift_3
Note_On_44_Vel_20
Time_Shift_504
Note_On_80_Vel_51
Time_Shift_15
Note_On_44_Vel_0
Note_On_51_Vel_0
Note_On_56_Vel_0
Time_Shift_5
Note_On_56_Vel_15
Time_Shift_3
Note_On_51_Vel_24
Time_Shift_2
Note_On_44_Vel_20
Time_Shift_6
Note_On_39_Vel_0
Time_Shift_486
Note_On_66_Vel_28
Time_Shift_1
Note_On_60_Vel_29
Time_Shift_4
Note_On_51_Vel_0
Time_Shift_11
Note_On_51_Vel_15
Time_Shift_4
Note_On_54_Vel_0
Time_Shift_7
Note_On_54_Vel_22
Time_Shift_1
Note_On_56_Vel_0
Time_Shift_10
Note_On_56_Vel_18
Time_Shift_121
Note_On_60_Vel_0
Time_Shift_10
Note_On_60_Vel_14
Time_Shift_397
Note_On_80_Vel_0
Time_Shift_4
Note_On_80_Vel_56
Time_Shift_541
Note_On_80_Vel_0
Time_Shift_8
Note_On_80_Vel_47
Time_Shift_1
Note_On_39_Vel_26
Time_Shift_25
Sustain_Off
Time_Shift_6
Note_On_66_Vel_0
Time_Shift_1
Note_On_72_Vel_0
Note_On_56_Vel_0
Note_On_51_Vel_0
Note_On_44_Vel_0
Time_Shift_13
Note_On_60_Vel_0
Time_Shift_7
Note_On_54_Vel_0
Time_Shift_169
Sustain_On
Time_Shift_328
Note_On_44_Vel_28
Time_Shift_405
Note_On_68_Vel_23
Time_Shift_4
Note_On_71_Vel_39
Time_Shift_1
Note_On_68_Vel_0
Time_Shift_9
Note_On_51_Vel_25
Time_Shift_333
Note_On_53_Vel_26
Time_Shift_326
Note_On_54_Vel_27
Time_Shift_391
Note_On_51_Vel_0
Time_Shift_7
Note_On_51_Vel_23
Time_Shift_209
Note_On_39_Vel_0
Note_On_80_Vel_0
Time_Shift_245
Note_On_71_Vel_0
Time_Shift_11
Note_On_71_Vel_43
Time_Shift_22
Note_On_59_Vel_34
Time_Shift_1
Note_On_66_Vel_27
Time_Shift_20
Note_On_54_Vel_0
Time_Shift_8
Note_On_54_Vel_18
Time_Shift_798
Note_On_71_Vel_0
Time_Shift_12
Note_On_71_Vel_48
Time_Shift_27
Note_On_66_Vel_0
Time_Shift_8
Note_On_66_Vel_14
Time_Shift_355
Note_On_39_Vel_33
Time_Shift_329
Note_On_59_Vel_0
Time_Shift_1
Note_On_53_Vel_0
Note_On_51_Vel_0
Note_On_54_Vel_0
Sustain_Off
Note_On_44_Vel_0
Time_Shift_70
Note_On_51_Vel_33
Time_Shift_43
Sustain_On
Time_Shift_131
Note_On_39_Vel_0
Time_Shift_208
Note_On_56_Vel_36
Time_Shift_458
Note_On_70_Vel_52
Time_Shift_22
Note_On_54_Vel_29
Time_Shift_2
Sustain_Off
Time_Shift_16
Note_On_66_Vel_0
Time_Shift_4
Note_On_56_Vel_0
Note_On_51_Vel_0
Time_Shift_27
Note_On_71_Vel_0
Time_Shift_100
Sustain_On
Time_Shift_234
Note_On_51_Vel_34
Time_Shift_530
Note_On_62_Vel_32
Time_Shift_2
Note_On_58_Vel_20
Time_Shift_5
Note_On_53_Vel_21
Time_Shift_1
Sustain_Off
Time_Shift_15
Note_On_54_Vel_0
Time_Shift_1
Note_On_51_Vel_0
Time_Shift_80
Sustain_On
Time_Shift_664
Note_On_65_Vel_34
Time_Shift_672
Note_On_58_Vel_0
Time_Shift_1
Note_On_67_Vel_37
Time_Shift_10
Note_On_58_Vel_21
Time_Shift_22
Note_On_51_Vel_20
Time_Shift_5
Sustain_Off
Time_Shift_11
Note_On_70_Vel_0
Time_Shift_2
Note_On_53_Vel_0
Note_On_62_Vel_0
Time_Shift_2
Note_On_65_Vel_0
Time_Shift_346
Sustain_On
Time_Shift_1303
Note_On_75_Vel_46
Time_Shift_656
Note_On_75_Vel_0
Time_Shift_11
Note_On_75_Vel_51
Time_Shift_78
Sustain_Off
Time_Shift_6
Note_On_67_Vel_0
Time_Shift_1
Note_On_51_Vel_0
Time_Shift_11
Note_On_58_Vel_0
Time_Shift_220
Note_On_76_Vel_42
Time_Shift_41
Sustain_On
Time_Shift_123
Note_On_75_Vel_0
Time_Shift_29
Note_On_75_Vel_50
Time_Shift_125
Note_On_76_Vel_0
Time_Shift_7
Note_On_76_Vel_48
Time_Shift_108
Note_On_75_Vel_0
Time_Shift_9
Note_On_75_Vel_50
Time_Shift_91
Note_On_76_Vel_0
Time_Shift_6
Note_On_76_Vel_47
Time_Shift_109
Note_On_75_Vel_0
Time_Shift_9
Note_On_75_Vel_50
Time_Shift_91
Note_On_76_Vel_0
Time_Shift_10
Note_On_76_Vel_44
Time_Shift_82
Note_On_75_Vel_0
Time_Shift_10
Note_On_75_Vel_47
Time_Shift_67
Note_On_76_Vel_0
Time_Shift_11
Note_On_76_Vel_44
Time_Shift_66
Note_On_75_Vel_0
Time_Shift_9
Note_On_75_Vel_45
Time_Shift_52
Note_On_76_Vel_0
Time_Shift_6
Note_On_76_Vel_48
Time_Shift_56
Note_On_75_Vel_0
Time_Shift_6
Note_On_75_Vel_50
Time_Shift_70
Note_On_76_Vel_0
Time_Shift_5
Note_On_76_Vel_41
Time_Shift_42
Note_On_75_Vel_0
Time_Shift_4
Note_On_75_Vel_50
Time_Shift_65
Note_On_76_Vel_0
Time_Shift_6
Note_On_76_Vel_42
Time_Shift_47
Note_On_75_Vel_0
Time_Shift_10
Note_On_75_Vel_49
Time_Shift_60
Note_On_76_Vel_0
Time_Shift_5
Note_On_76_Vel_43
Time_Shift_48
Note_On_75_Vel_0
Time_Shift_10
Note_On_75_Vel_42
Time_Shift_36
Note_On_76_Vel_0
Time_Shift_9
Note_On_76_Vel_49
Time_Shift_61
Note_On_75_Vel_0
Time_Shift_8
Note_On_75_Vel_50
Time_Shift_53
Note_On_76_Vel_0
Time_Shift_11
Note_On_76_Vel_47
Time_Shift_43
Note_On_75_Vel_0
Time_Shift_5
Note_On_75_Vel_56
Time_Shift_56
Note_On_76_Vel_0
Time_Shift_9
Note_On_76_Vel_49
Time_Shift_53
Note_On_75_Vel_0
Time_Shift_10
Note_On_75_Vel_54
Time_Shift_51
Note_On_76_Vel_0
Time_Shift_10
Note_On_76_Vel_47
Time_Shift_44
Note_On_75_Vel_0
Time_Shift_10
Note_On_75_Vel_56
Time_Shift_59
Note_On_76_Vel_0
Time_Shift_4
Note_On_76_Vel_50
Time_Shift_65
Note_On_75_Vel_0
Time_Shift_5
Note_On_75_Vel_51
Time_Shift_56
Note_On_76_Vel_0
Time_Shift_5
Note_On_76_Vel_42
Time_Shift_42
Note_On_75_Vel_0
Time_Shift_4
Note_On_75_Vel_50
Time_Shift_49
Note_On_76_Vel_0
Time_Shift_11
Note_On_76_Vel_46
Time_Shift_58
Note_On_75_Vel_0
Time_Shift_4
Note_On_75_Vel_51
Time_Shift_73
Note_On_76_Vel_0
Time_Shift_5
Note_On_76_Vel_40
Time_Shift_34
Note_On_75_Vel_0
Time_Shift_10
Note_On_75_Vel_46
Time_Shift_66
Note_On_76_Vel_0
Time_Shift_5
Note_On_76_Vel_31
Time_Shift_42
Note_On_75_Vel_0
Time_Shift_8
Note_On_75_Vel_48
Time_Shift_68
Note_On_76_Vel_0
Time_Shift_6
Note_On_76_Vel_39
Time_Shift_40
Note_On_75_Vel_0
Time_Shift_5
Note_On_75_Vel_52
Time_Shift_38
Note_On_66_Vel_47
Time_Shift_27
Note_On_76_Vel_0
Time_Shift_3
Sustain_Off
Time_Shift_2
Note_On_75_Vel_0
Time_Shift_6
Note_On_76_Vel_45
Time_Shift_61
Note_On_75_Vel_43
Time_Shift_50
Note_On_76_Vel_0
Time_Shift_12
Note_On_76_Vel_41
Time_Shift_19
Sustain_On
Time_Shift_23
Note_On_75_Vel_0
Time_Shift_4
Note_On_75_Vel_50
Time_Shift_50
Note_On_76_Vel_0
Time_Shift_5
Note_On_76_Vel_46
Time_Shift_64
Note_On_75_Vel_0
Time_Shift_7
Note_On_75_Vel_43
Time_Shift_39
Note_On_76_Vel_0
Time_Shift_4
Note_On_76_Vel_34
Time_Shift_42
Note_On_75_Vel_0
Time_Shift_4
Note_On_75_Vel_46
Time_Shift_58
Note_On_76_Vel_0
Time_Shift_6
Note_On_76_Vel_46
Time_Shift_55
Note_On_75_Vel_0
Time_Shift_5
Note_On_75_Vel_48
Time_Shift_64
Note_On_76_Vel_0
Time_Shift_6
Note_On_76_Vel_33
Time_Shift_48
Note_On_75_Vel_0
Time_Shift_6
Note_On_75_Vel_51
Time_Shift_55
Note_On_76_Vel_0
Time_Shift_5
Note_On_76_Vel_39
Time_Shift_49
Note_On_75_Vel_0
Time_Shift_11
Note_On_75_Vel_52
Time_Shift_58
Note_On_76_Vel_0
Time_Shift_5
Note_On_76_Vel_39
Time_Shift_95
Note_On_75_Vel_0
Time_Shift_6
Note_On_75_Vel_39
Time_Shift_137
Note_On_73_Vel_57
Time_Shift_80
Note_On_73_Vel_0
Time_Shift_10
Note_On_73_Vel_60
Time_Shift_48
Note_On_64_Vel_38
Time_Shift_11
Sustain_Off
Time_Shift_45
Note_On_76_Vel_0
Note_On_66_Vel_0
Time_Shift_9
Note_On_75_Vel_0
Time_Shift_7
Note_On_75_Vel_44
Time_Shift_46
Note_On_73_Vel_0
Time_Shift_6
Note_On_73_Vel_50
Time_Shift_2
Sustain_On
Time_Shift_62
Note_On_75_Vel_0
Time_Shift_10
Note_On_75_Vel_46
Time_Shift_51
Note_On_73_Vel_0
Time_Shift_6
Note_On_73_Vel_47
Time_Shift_63
Note_On_75_Vel_0
Time_Shift_6
Note_On_75_Vel_43
Time_Shift_63
Note_On_73_Vel_0
Time_Shift_4
Note_On_73_Vel_14
Time_Shift_35
Note_On_75_Vel_0
Time_Shift_5
Note_On_75_Vel_51
Time_Shift_125
Note_On_73_Vel_0
Time_Shift_7
Note_On_73_Vel_20
Time_Shift_49
Note_On_71_Vel_50
Time_Shift_59
Note_On_71_Vel_0
Time_Shift_4
Note_On_63_Vel_38
Note_On_71_Vel_53
Time_Shift_15
Note_On_64_Vel_0
Note_On_75_Vel_0
Note_On_73_Vel_0
Time_Shift_4
Sustain_Off
Time_Shift_76
Note_On_73_Vel_48
Time_Shift_17
Sustain_On
Time_Shift_23
Note_On_71_Vel_0
Time_Shift_10
Note_On_71_Vel_48
Time_Shift_51
Note_On_73_Vel_0
Time_Shift_6
Note_On_73_Vel_58
Time_Shift_56
Note_On_71_Vel_0
Time_Shift_3
Note_On_71_Vel_49
Time_Shift_73
Note_On_73_Vel_0
Time_Shift_6
Note_On_73_Vel_54
Time_Shift_71
Note_On_71_Vel_0
Time_Shift_7
Note_On_71_Vel_52
Time_Shift_108
Note_On_71_Vel_0
Time_Shift_8
Note_On_71_Vel_62
Time_Shift_22
Note_On_64_Vel_43
Time_Shift_27
Note_On_30_Vel_40
Time_Shift_32
Sustain_Off
Time_Shift_11
Note_On_63_Vel_0
Note_On_73_Vel_0
Time_Shift_4
Note_On_73_Vel_50
Time_Shift_42
Note_On_71_Vel_0
Sustain_On
Time_Shift_10
Note_On_71_Vel_46
Time_Shift_67
Note_On_73_Vel_0
Time_Shift_10
Note_On_73_Vel_38
Time_Shift_44
Note_On_71_Vel_0
Time_Shift_8
Note_On_71_Vel_48
Time_Shift_61
Note_On_73_Vel_0
Time_Shift_11
Note_On_73_Vel_45
Time_Shift_35
Note_On_71_Vel_0
Time_Shift_7
Note_On_71_Vel_52
Time_Shift_70
Note_On_73_Vel_0
Time_Shift_11
Note_On_73_Vel_24
Time_Shift_55
Note_On_70_Vel_57
Time_Shift_95
Note_On_70_Vel_0
Time_Shift_4
Note_On_70_Vel_55
Time_Shift_4
Note_On_54_Vel_33
Time_Shift_61
Note_On_71_Vel_0
Time_Shift_6
Note_On_71_Vel_52
Time_Shift_56
Note_On_70_Vel_0
Time_Shift_9
Note_On_70_Vel_47
Time_Shift_37
Note_On_71_Vel_0
Time_Shift_10
Note_On_71_Vel_52
Time_Shift_67
Note_On_70_Vel_0
Time_Shift_7
Note_On_70_Vel_51
Time_Shift_39
Note_On_71_Vel_0
Time_Shift_8
Note_On_71_Vel_40
Time_Shift_45
Note_On_70_Vel_0
Time_Shift_5
Note_On_70_Vel_59
Time_Shift_129
Note_On_68_Vel_46
Time_Shift_43
Note_On_64_Vel_0
Time_Shift_11
Note_On_64_Vel_35
Time_Shift_1
Note_On_59_Vel_38
Time_Shift_3
Note_On_30_Vel_0
Time_Shift_4
Note_On_70_Vel_0
Note_On_73_Vel_0
Note_On_71_Vel_0
Time_Shift_5
Sustain_Off
Time_Shift_7
Note_On_68_Vel_0
Time_Shift_4
Note_On_68_Vel_45
Time_Shift_53
Note_On_68_Vel_0
Time_Shift_31
Note_On_70_Vel_39
Time_Shift_63
Note_On_68_Vel_37
Time_Shift_25
Sustain_On
Time_Shift_16
Note_On_70_Vel_0
Time_Shift_4
Note_On_70_Vel_39
Time_Shift_42
Note_On_68_Vel_0
Time_Shift_6
Note_On_68_Vel_47
Time_Shift_71
Note_On_70_Vel_0
Time_Shift_10
Note_On_70_Vel_41
Time_Shift_43
Note_On_68_Vel_0
Time_Shift_7
Note_On_68_Vel_49
Time_Shift_136
Note_On_66_Vel_41
Time_Shift_65
Note_On_66_Vel_0
Time_Shift_4
Note_On_66_Vel_32
Time_Shift_38
Note_On_59_Vel_0
Note_On_70_Vel_0
Time_Shift_2
Sustain_Off
Time_Shift_5
Note_On_58_Vel_38
Time_Shift_5
Note_On_66_Vel_0
Time_Shift_15
Note_On_64_Vel_0
Time_Shift_8
Note_On_68_Vel_0
Time_Shift_5
Note_On_68_Vel_41
Time_Shift_25
Sustain_On
Time_Shift_22
Note_On_66_Vel_40
Time_Shift_63
Note_On_68_Vel_0
Time_Shift_4
Note_On_68_Vel_47
Time_Shift_42
Note_On_66_Vel_0
Time_Shift_8
Note_On_66_Vel_39
Time_Shift_92
Note_On_68_Vel_0
Time_Shift_4
Note_On_68_Vel_38
Time_Shift_42
Note_On_66_Vel_0
Time_Shift_11
Note_On_66_Vel_32
Time_Shift_58
Note_On_68_Vel_0
Time_Shift_4
Note_On_68_Vel_43
Time_Shift_50
Note_On_66_Vel_0
Time_Shift_5
Note_On_66_Vel_36
Time_Shift_173
Note_On_63_Vel_45
Time_Shift_23
Sustain_Off
Note_On_54_Vel_0
Time_Shift_2
Note_On_58_Vel_0
Note_On_66_Vel_0
Note_On_68_Vel_0
Time_Shift_13
Note_On_35_Vel_26
Time_Shift_137
Sustain_On
Time_Shift_34
Note_On_75_Vel_45
Time_Shift_135
Note_On_75_Vel_0
Time_Shift_9
Note_On_75_Vel_47
Time_Shift_119
Note_On_76_Vel_31
Time_Shift_25
Note_On_75_Vel_0
Time_Shift_7
Note_On_75_Vel_50
Time_Shift_70
Note_On_76_Vel_0
Time_Shift_5
Note_On_76_Vel_49
Time_Shift_57
Note_On_75_Vel_0
Time_Shift_6
Note_On_75_Vel_50
Time_Shift_40
Note_On_76_Vel_0
Time_Shift_11
Note_On_76_Vel_51
Time_Shift_66
Note_On_75_Vel_0
Time_Shift_5
Note_On_66_Vel_47
Time_Shift_6
Note_On_75_Vel_53
Time_Shift_21
Note_On_54_Vel_43
Time_Shift_37
Note_On_76_Vel_0
Time_Shift_5
Note_On_76_Vel_31
Time_Shift_56
Note_On_75_Vel_0
Time_Shift_11
Note_On_75_Vel_57
Time_Shift_43
Note_On_76_Vel_0
Time_Shift_5
Note_On_76_Vel_46
Time_Shift_56
Note_On_75_Vel_0
Time_Shift_6
Note_On_75_Vel_57
Time_Shift_33
Note_On_76_Vel_0
Time_Shift_8
Note_On_76_Vel_54
Time_Shift_61
Note_On_75_Vel_0
Time_Shift_5
Note_On_75_Vel_64
Time_Shift_107
Note_On_64_Vel_50
Time_Shift_3
Note_On_73_Vel_60
Time_Shift_18
Note_On_66_Vel_0
Note_On_63_Vel_0
Note_On_76_Vel_0
Time_Shift_2
Sustain_Off
Time_Shift_11
Note_On_35_Vel_0
Time_Shift_3
Note_On_58_Vel_42
Time_Shift_4
Note_On_75_Vel_0
Time_Shift_11
Note_On_75_Vel_60
Time_Shift_51
Note_On_75_Vel_0
Time_Shift_9
Note_On_75_Vel_52
Time_Shift_37
Sustain_On
Time_Shift_15
Note_On_75_Vel_0
Time_Shift_8
Note_On_75_Vel_48
Time_Shift_31
Note_On_73_Vel_0
Time_Shift_11
Note_On_73_Vel_61
Time_Shift_43
Note_On_75_Vel_0
Time_Shift_7
Note_On_75_Vel_59
Time_Shift_54
Note_On_73_Vel_0
Time_Shift_5
Note_On_73_Vel_63
Time_Shift_122
Note_On_71_Vel_64
Time_Shift_40
Note_On_63_Vel_52
Time_Shift_6
Note_On_59_Vel_47
Time_Shift_4
Note_On_73_Vel_0
Time_Shift_3
Note_On_73_Vel_63
Time_Shift_8
Note_On_58_Vel_0
Sustain_Off
Time_Shift_2
Note_On_64_Vel_0
Time_Shift_1
Note_On_75_Vel_0
Time_Shift_39
Sustain_On
Time_Shift_8
Note_On_71_Vel_0
Time_Shift_9
Note_On_71_Vel_54
Time_Shift_60
Note_On_73_Vel_0
Time_Shift_4
Note_On_73_Vel_49
Time_Shift_19
Note_On_71_Vel_0
Time_Shift_8
Note_On_71_Vel_60
Time_Shift_54
Note_On_73_Vel_0
Time_Shift_6
Note_On_73_Vel_67
Time_Shift_55
Note_On_71_Vel_0
Time_Shift_8
Note_On_71_Vel_63
Time_Shift_107
Note_On_71_Vel_0
Time_Shift_7
Note_On_71_Vel_64
Time_Shift_48
Note_On_64_Vel_52
Time_Shift_9
Note_On_61_Vel_48
Time_Shift_13
Note_On_73_Vel_0
Time_Shift_4
Note_On_63_Vel_0
Time_Shift_1
Note_On_59_Vel_0
Sustain_Off
Time_Shift_2
Note_On_73_Vel_59
Time_Shift_47
Note_On_71_Vel_0
Time_Shift_5
Note_On_71_Vel_55
Time_Shift_33
Note_On_73_Vel_0
Time_Shift_23
Sustain_On
Time_Shift_10
Note_On_73_Vel_54
Time_Shift_29
Note_On_71_Vel_0
Time_Shift_8
Note_On_71_Vel_52
Time_Shift_53
Note_On_54_Vel_0
Time_Shift_23
Note_On_73_Vel_0
Time_Shift_5
Note_On_73_Vel_64
Time_Shift_49
Note_On_71_Vel_0
Time_Shift_4
Note_On_71_Vel_50
Time_Shift_96
Note_On_73_Vel_0
Time_Shift_5
Note_On_70_Vel_63
Time_Shift_4
Note_On_73_Vel_49
Time_Shift_46
Sustain_Off
Time_Shift_3
Note_On_71_Vel_0
Time_Shift_1
Note_On_73_Vel_0
Time_Shift_23
Note_On_54_Vel_41
Time_Shift_2
Note_On_70_Vel_0
Time_Shift_11
Note_On_70_Vel_57
Time_Shift_51
Sustain_On
Time_Shift_19
Note_On_71_Vel_50
Time_Shift_65
Note_On_70_Vel_0
Time_Shift_11
Note_On_70_Vel_47
Time_Shift_43
Note_On_71_Vel_0
Time_Shift_8
Note_On_71_Vel_52
Time_Shift_53
Note_On_70_Vel_0
Time_Shift_7
Note_On_70_Vel_62
Time_Shift_115
Note_On_68_Vel_46
Time_Shift_61
Sustain_Off
Time_Shift_2
Note_On_64_Vel_0
Note_On_68_Vel_0
Note_On_71_Vel_0
Time_Shift_1
Note_On_70_Vel_0
Time_Shift_6
Note_On_59_Vel_42
Time_Shift_1
Note_On_64_Vel_44
Time_Shift_2
Note_On_68_Vel_51
Time_Shift_5
Note_On_61_Vel_0
Time_Shift_57
Note_On_70_Vel_49
Time_Shift_35
Sustain_On
Time_Shift_8
Note_On_68_Vel_0
Time_Shift_10
Note_On_68_Vel_50
Time_Shift_51
Note_On_70_Vel_0
Time_Shift_5
Note_On_70_Vel_50
Time_Shift_57
Note_On_68_Vel_0
Time_Shift_9
Note_On_68_Vel_39
Time_Shift_52
Note_On_70_Vel_0
Time_Shift_4
Note_On_70_Vel_48
Time_Shift_139
Note_On_66_Vel_43
Time_Shift_61
Note_On_66_Vel_0
Sustain_Off
Time_Shift_1
Note_On_70_Vel_0
Note_On_59_Vel_0
Time_Shift_14
Note_On_58_Vel_40
Time_Shift_19
Note_On_68_Vel_0
Time_Shift_10
Note_On_68_Vel_45
Time_Shift_44
Sustain_On
Time_Shift_20
Note_On_66_Vel_29
Time_Shift_49
Note_On_68_Vel_0
Time_Shift_9
Note_On_68_Vel_50
Time_Shift_68
Note_On_66_Vel_0
Time_Shift_6
Note_On_66_Vel_44
Time_Shift_135
Note_On_63_Vel_45
Time_Shift_68
Note_On_69_Vel_46
Time_Shift_74
Note_On_68_Vel_0
Sustain_Off
Note_On_58_Vel_0
Time_Shift_1
Note_On_66_Vel_0
Note_On_54_Vel_0
Time_Shift_8
Note_On_64_Vel_0
Time_Shift_53
Note_On_78_Vel_52
Time_Shift_2
Note_On_35_Vel_30
Time_Shift_52
Note_On_63_Vel_0
Time_Shift_23
Sustain_On
Time_Shift_175
Note_On_80_Vel_47
Time_Shift_102
Note_On_80_Vel_0
Time_Shift_8
Note_On_80_Vel_51
Time_Shift_120
Note_On_59_Vel_42
Time_Shift_48
Note_On_78_Vel_0
Time_Shift_11
Note_On_78_Vel_50
Time_Shift_51
Note_On_80_Vel_0
Time_Shift_10
Note_On_80_Vel_41
Time_Shift_51
Note_On_78_Vel_0
Time_Shift_4
Note_On_69_Vel_0
Time_Shift_2
Note_On_78_Vel_45
Time_Shift_48
Note_On_80_Vel_0
Time_Shift_11
Note_On_80_Vel_48
Time_Shift_58
Note_On_78_Vel_0
Time_Shift_6
Note_On_78_Vel_51
Time_Shift_40
Note_On_80_Vel_0
Time_Shift_8
Note_On_80_Vel_58
Time_Shift_54
Note_On_78_Vel_0
Time_Shift_9
Note_On_78_Vel_57
Time_Shift_2
Note_On_69_Vel_50
Time_Shift_29
Note_On_63_Vel_42
Time_Shift_44
Note_On_80_Vel_0
Time_Shift_5
Note_On_80_Vel_53
Time_Shift_41
Note_On_78_Vel_0
Time_Shift_11
Note_On_78_Vel_50
Time_Shift_51
Note_On_69_Vel_0
Note_On_80_Vel_0
Time_Shift_9
Note_On_80_Vel_51
Note_On_69_Vel_35
Time_Shift_45
Note_On_78_Vel_0
Time_Shift_4
Note_On_78_Vel_52
Time_Shift_57
Note_On_80_Vel_0
Time_Shift_10
Note_On_80_Vel_52
Time_Shift_36
Note_On_78_Vel_0
Time_Shift_9
Note_On_78_Vel_51
Time_Shift_60
Note_On_80_Vel_0
Time_Shift_8
Note_On_80_Vel_52
Time_Shift_38
Note_On_59_Vel_0
Note_On_78_Vel_0
Time_Shift_9
Note_On_59_Vel_40
Time_Shift_2
Note_On_78_Vel_46
Time_Shift_51
Note_On_80_Vel_0
Time_Shift_6
Note_On_80_Vel_57
Time_Shift_55
Note_On_78_Vel_0
Time_Shift_5
Note_On_78_Vel_40
Time_Shift_49
Note_On_80_Vel_0
Time_Shift_4
Note_On_80_Vel_56
Time_Shift_42
Note_On_78_Vel_0
Time_Shift_6
Note_On_78_Vel_50
Time_Shift_48
Note_On_80_Vel_0
Time_Shift_5
Note_On_80_Vel_61
Time_Shift_48
Note_On_78_Vel_0
Time_Shift_9
Note_On_78_Vel_45
Time_Shift_68
Note_On_80_Vel_0
Time_Shift_5
Note_On_59_Vel_0
Note_On_63_Vel_0
Note_On_69_Vel_0
Sustain_Off
Time_Shift_2
Note_On_80_Vel_53
Time_Shift_16
Note_On_35_Vel_0
Time_Shift_16
Note_On_78_Vel_0
Time_Shift_4
Note_On_78_Vel_56
Time_Shift_12
Note_On_69_Vel_41
Time_Shift_14
Note_On_80_Vel_0
Time_Shift_11
Note_On_63_Vel_37
Time_Shift_2
Note_On_60_Vel_34
Time_Shift_32
Note_On_80_Vel_56
Time_Shift_40
Sustain_On
Time_Shift_15
Note_On_78_Vel_0
Time_Shift_5
Note_On_78_Vel_46
Time_Shift_57
Note_On_80_Vel_0
Time_Shift_4
Note_On_80_Vel_34
Time_Shift_42
Note_On_78_Vel_0
Time_Shift_6
Note_On_78_Vel_51
Time_Shift_55
Note_On_80_Vel_0
Time_Shift_8
Note_On_80_Vel_52
Time_Shift_46
Note_On_78_Vel_0
Time_Shift_7
Note_On_78_Vel_50
Time_Shift_77
Note_On_80_Vel_0
Time_Shift_12
Note_On_80_Vel_42
Time_Shift_35
Note_On_78_Vel_0
Time_Shift_10
Note_On_78_Vel_46
Time_Shift_59
Note_On_80_Vel_0
Time_Shift_5
Note_On_80_Vel_47
Time_Shift_48
Note_On_78_Vel_0
Time_Shift_5
Note_On_48_Vel_25
Time_Shift_7
Note_On_78_Vel_47
Time_Shift_73
Note_On_80_Vel_0
Time_Shift_5
Note_On_80_Vel_38
Time_Shift_49
Note_On_78_Vel_0
Time_Shift_8
Note_On_78_Vel_46
Time_Shift_68
Note_On_80_Vel_0
Time_Shift_8
Note_On_80_Vel_41
Time_Shift_31
Note_On_78_Vel_0
Time_Shift_10
Note_On_78_Vel_47
Time_Shift_93
Note_On_68_Vel_48
Time_Shift_80
Note_On_76_Vel_47
Time_Shift_54
Note_On_49_Vel_31
Time_Shift_51
Note_On_56_Vel_35
Time_Shift_19
Note_On_76_Vel_0
Time_Shift_11
Sustain_Off
Note_On_76_Vel_42
Note_On_48_Vel_0
Time_Shift_1
Note_On_63_Vel_0
Note_On_78_Vel_0
Time_Shift_1
Note_On_80_Vel_0
Note_On_69_Vel_0
Note_On_64_Vel_43
Note_On_60_Vel_0
Time_Shift_1
Note_On_68_Vel_0
Time_Shift_101
Sustain_On
Time_Shift_19
Note_On_78_Vel_52
Time_Shift_43
Note_On_76_Vel_0
Time_Shift_11
Note_On_76_Vel_40
Time_Shift_65
Note_On_78_Vel_0
Time_Shift_9
Note_On_78_Vel_52
Time_Shift_30
Note_On_76_Vel_0
Time_Shift_5
Note_On_76_Vel_54
Time_Shift_56
Note_On_78_Vel_0
Time_Shift_6
Note_On_78_Vel_58
Time_Shift_33
Note_On_76_Vel_0
Time_Shift_4
Note_On_76_Vel_50
Time_Shift_65
Note_On_78_Vel_0
Time_Shift_8
Note_On_78_Vel_68
Time_Shift_69
Note_On_76_Vel_0
Time_Shift_4
Note_On_76_Vel_54
Time_Shift_84
Note_On_75_Vel_63
Time_Shift_32
Note_On_66_Vel_34
Time_Shift_1
Note_On_60_Vel_33
Time_Shift_4
Note_On_49_Vel_0
Sustain_Off
Time_Shift_2
Note_On_78_Vel_0
Note_On_64_Vel_0
Time_Shift_1
Note_On_76_Vel_0
Time_Shift_35
Note_On_51_Vel_27
Time_Shift_50
Note_On_75_Vel_0
Time_Shift_21
Note_On_76_Vel_44
Time_Shift_19
Sustain_On
Time_Shift_43
Note_On_75_Vel_52
Time_Shift_49
Note_On_76_Vel_0
Time_Shift_7
Note_On_76_Vel_56
Time_Shift_62
Note_On_75_Vel_0
Time_Shift_11
Note_On_75_Vel_57
Time_Shift_43
Note_On_76_Vel_0
Time_Shift_4
Note_On_76_Vel_51
Time_Shift_58
Note_On_75_Vel_0
Time_Shift_6
Note_On_75_Vel_50
Time_Shift_40
Note_On_76_Vel_0
Time_Shift_7
Note_On_76_Vel_55
Time_Shift_62
Note_On_75_Vel_0
Time_Shift_6
Note_On_75_Vel_60
Time_Shift_124
Note_On_75_Vel_0
Time_Shift_5
Note_On_75_Vel_60
Time_Shift_20
Note_On_40_Vel_31
Time_Shift_6
Note_On_56_Vel_0
Time_Shift_9
Note_On_51_Vel_0
Time_Shift_2
Note_On_60_Vel_0
Note_On_76_Vel_0
Time_Shift_1
Note_On_66_Vel_0
Sustain_Off
Time_Shift_88
Note_On_75_Vel_0
Sustain_On
Time_Shift_17
Note_On_67_Vel_41
Time_Shift_65
Note_On_68_Vel_49
Time_Shift_68
Note_On_70_Vel_54
Time_Shift_73
Note_On_68_Vel_0
Time_Shift_5
Note_On_68_Vel_62
Time_Shift_64
Note_On_67_Vel_0
Time_Shift_9
Note_On_67_Vel_44
Time_Shift_44
Note_On_68_Vel_0
Time_Shift_5
Note_On_68_Vel_59
Time_Shift_65
Note_On_70_Vel_0
Time_Shift_8
Note_On_70_Vel_51
Time_Shift_63
Note_On_61_Vel_48
Time_Shift_10
Note_On_71_Vel_50
Time_Shift_1
Note_On_52_Vel_43
Time_Shift_3
Note_On_56_Vel_46
Time_Shift_35
Sustain_Off
Note_On_67_Vel_0
Time_Shift_1
Note_On_70_Vel_0
Time_Shift_1
Note_On_40_Vel_0
Time_Shift_3
Note_On_68_Vel_0
Time_Shift_41
Note_On_73_Vel_54
Time_Shift_41
Sustain_On
Time_Shift_20
Note_On_75_Vel_59
Time_Shift_71
Note_On_76_Vel_48
Time_Shift_76
Note_On_78_Vel_56
Time_Shift_58
Note_On_80_Vel_56
Time_Shift_61
Note_On_82_Vel_57
Time_Shift_73
Note_On_83_Vel_49
Time_Shift_74
Note_On_85_Vel_53
Time_Shift_13
Note_On_64_Vel_51
Time_Shift_5
Note_On_68_Vel_38
Time_Shift_64
Note_On_87_Vel_51
Time_Shift_76
Note_On_88_Vel_54
Time_Shift_90
Note_On_90_Vel_55
Time_Shift_95
Note_On_92_Vel_56
Time_Shift_74
Note_On_94_Vel_51
Time_Shift_110
Note_On_56_Vel_0
Time_Shift_6
Note_On_95_Vel_57
Time_Shift_2
Note_On_64_Vel_0
Time_Shift_1
Note_On_56_Vel_37
Time_Shift_3
Note_On_64_Vel_30
Sustain_Off
Time_Shift_6
Note_On_52_Vel_0
Note_On_68_Vel_0
Note_On_75_Vel_0
Note_On_61_Vel_0
Note_On_80_Vel_0
Note_On_92_Vel_0
Note_On_73_Vel_0
Note_On_83_Vel_0
Note_On_87_Vel_0
Time_Shift_1
Note_On_85_Vel_0
Note_On_88_Vel_0
Note_On_76_Vel_0
Note_On_82_Vel_0
Note_On_78_Vel_0
Note_On_90_Vel_0
Time_Shift_1
Note_On_94_Vel_0
Time_Shift_3
Note_On_71_Vel_0
Time_Shift_92
Sustain_On
Time_Shift_35
Note_On_92_Vel_51
Time_Shift_78
Note_On_88_Vel_53
Time_Shift_114
Note_On_85_Vel_44
Time_Shift_94
Note_On_83_Vel_38
Time_Shift_103
Note_On_80_Vel_46
Time_Shift_105
Note_On_76_Vel_43
Time_Shift_105
Note_On_75_Vel_46
Time_Shift_129
Note_On_73_Vel_48
Time_Shift_31
Note_On_42_Vel_35
Time_Shift_4
Sustain_Off
Time_Shift_2
Note_On_76_Vel_0
Note_On_88_Vel_0
Time_Shift_1
Note_On_92_Vel_0
Note_On_85_Vel_0
Time_Shift_1
Note_On_80_Vel_0
Note_On_83_Vel_0
Note_On_95_Vel_0
Time_Shift_1
Note_On_64_Vel_0
Time_Shift_11
Note_On_56_Vel_0
Note_On_75_Vel_0
Time_Shift_92
Sustain_On
Time_Shift_21
Note_On_75_Vel_40
Time_Shift_33
Note_On_73_Vel_0
Time_Shift_11
Note_On_73_Vel_32
Time_Shift_66
Note_On_75_Vel_0
Time_Shift_10
Note_On_75_Vel_50
Time_Shift_59
Note_On_73_Vel_0
Time_Shift_10
Note_On_73_Vel_46
Time_Shift_59
Note_On_75_Vel_0
Time_Shift_7
Note_On_75_Vel_50
Time_Shift_24
Note_On_73_Vel_0
Time_Shift_9
Note_On_73_Vel_48
Time_Shift_60
Note_On_75_Vel_0
Time_Shift_11
Note_On_75_Vel_50
Time_Shift_16
Note_On_54_Vel_38
Time_Shift_42
Note_On_73_Vel_0
Time_Shift_11
Note_On_73_Vel_56
Time_Shift_51
Note_On_75_Vel_0
Time_Shift_3
Note_On_75_Vel_53
Time_Shift_50
Note_On_73_Vel_0
Time_Shift_5
Note_On_73_Vel_58
Time_Shift_57
Note_On_75_Vel_0
Time_Shift_4
Note_On_75_Vel_61
Time_Shift_42
Note_On_73_Vel_0
Time_Shift_9
Note_On_73_Vel_57
Time_Shift_68
Note_On_75_Vel_0
Time_Shift_10
Note_On_75_Vel_56
Time_Shift_28
Note_On_73_Vel_0
Time_Shift_6
Note_On_73_Vel_50
Time_Shift_35
Note_On_64_Vel_42
Time_Shift_9
Note_On_58_Vel_50
Time_Shift_35
Note_On_75_Vel_0
Time_Shift_9
Note_On_75_Vel_56
Time_Shift_44
Note_On_73_Vel_0
Time_Shift_11
Note_On_73_Vel_50
Time_Shift_51
Note_On_75_Vel_0
Time_Shift_6
Note_On_75_Vel_54
Time_Shift_86
Note_On_73_Vel_0
Time_Shift_4
Note_On_73_Vel_51
Time_Shift_73
Note_On_75_Vel_0
Time_Shift_6
Note_On_75_Vel_47
Time_Shift_55
Note_On_73_Vel_0
Time_Shift_6
Note_On_73_Vel_48
Time_Shift_129
Note_On_59_Vel_48
Time_Shift_5
Note_On_71_Vel_42
Time_Shift_68
Note_On_73_Vel_0
Note_On_75_Vel_0
Time_Shift_4
Note_On_73_Vel_61
Time_Shift_17
Sustain_Off
Time_Shift_40
Note_On_71_Vel_0
Time_Shift_8
Sustain_On
Time_Shift_2
Note_On_71_Vel_48
Time_Shift_59
Note_On_73_Vel_0
Time_Shift_5
Note_On_73_Vel_47
Time_Shift_41
Note_On_71_Vel_0
Time_Shift_10
Note_On_71_Vel_45
Time_Shift_44
Note_On_73_Vel_0
Time_Shift_9
Note_On_73_Vel_65
Time_Shift_121
Note_On_64_Vel_0
Time_Shift_5
Note_On_64_Vel_49
Time_Shift_11
Note_On_73_Vel_0
Time_Shift_7
Note_On_73_Vel_58
Time_Shift_5
Note_On_61_Vel_46
Time_Shift_7
Note_On_58_Vel_0
Note_On_71_Vel_0
Time_Shift_2
Sustain_Off
Time_Shift_4
Note_On_59_Vel_0
Time_Shift_1
Note_On_54_Vel_0
Time_Shift_5
Note_On_42_Vel_0
Time_Shift_69
Note_On_73_Vel_0
Time_Shift_6
Note_On_73_Vel_60
Time_Shift_32
Sustain_On
Time_Shift_77
Note_On_73_Vel_0
Time_Shift_6
Note_On_73_Vel_62
Time_Shift_52
Note_On_71_Vel_40
Time_Shift_116
Note_On_70_Vel_56
Time_Shift_20
Note_On_54_Vel_43
Time_Shift_13
Note_On_71_Vel_0
Time_Shift_9
Note_On_71_Vel_55
Time_Shift_6
Sustain_Off
Time_Shift_18
Note_On_73_Vel_0
Time_Shift_29
Sustain_On
Time_Shift_7
Note_On_70_Vel_0
Time_Shift_8
Note_On_70_Vel_58
Time_Shift_46
Note_On_71_Vel_0
Time_Shift_4
Note_On_71_Vel_33
Time_Shift_50
Note_On_70_Vel_0
Time_Shift_9
Note_On_70_Vel_48
Time_Shift_29
Note_On_71_Vel_0
Time_Shift_10
Note_On_71_Vel_38
Time_Shift_52
Note_On_70_Vel_0
Time_Shift_11
Note_On_70_Vel_54
Time_Shift_131
Note_On_68_Vel_58
Time_Shift_9
Note_On_59_Vel_44
Time_Shift_25
Note_On_70_Vel_0
Time_Shift_4
Note_On_70_Vel_49
Time_Shift_5
Note_On_71_Vel_0
Time_Shift_6
Sustain_Off
Time_Shift_16
Note_On_61_Vel_0
Time_Shift_31
Note_On_64_Vel_0
Time_Shift_7
Note_On_68_Vel_0
Time_Shift_4
Note_On_68_Vel_41
Time_Shift_66
Sustain_On
Time_Shift_30
Note_On_68_Vel_0
Time_Shift_7
Note_On_68_Vel_48
Time_Shift_55
Note_On_70_Vel_0
Time_Shift_5
Note_On_70_Vel_35
Time_Shift_56
Note_On_68_Vel_0
Time_Shift_11
Note_On_68_Vel_45
Time_Shift_106
Note_On_66_Vel_52
Time_Shift_79
Sustain_Off
Note_On_70_Vel_0
Time_Shift_14
Note_On_68_Vel_0
Time_Shift_16
Note_On_59_Vel_0
Time_Shift_9
Note_On_58_Vel_41
Time_Shift_26
Note_On_66_Vel_0
Time_Shift_9
Note_On_66_Vel_26
Time_Shift_25
Note_On_68_Vel_35
Time_Shift_35
Note_On_66_Vel_0
Time_Shift_12
Note_On_66_Vel_28
Time_Shift_19
Sustain_On
Time_Shift_39
Note_On_68_Vel_0
Time_Shift_11
Note_On_68_Vel_43
Time_Shift_42
Note_On_66_Vel_0
Time_Shift_8
Note_On_66_Vel_40
Time_Shift_188
Note_On_63_Vel_48
Time_Shift_104
Note_On_63_Vel_0
Time_Shift_11
Note_On_63_Vel_43
Time_Shift_30
Note_On_66_Vel_0
Sustain_Off
Time_Shift_1
Note_On_68_Vel_0
Note_On_58_Vel_0
Time_Shift_12
Note_On_54_Vel_0
Time_Shift_20
Note_On_35_Vel_30
Time_Shift_95
Sustain_On
Time_Shift_6
Note_On_75_Vel_53
Time_Shift_124
Note_On_75_Vel_0
Time_Shift_7
Note_On_75_Vel_50
Time_Shift_71
Note_On_76_Vel_50
Time_Shift_45
Note_On_75_Vel_0
Time_Shift_7
Note_On_75_Vel_57
Time_Shift_55
Note_On_76_Vel_0
Time_Shift_10
Note_On_76_Vel_49
Time_Shift_59
Note_On_75_Vel_0
Time_Shift_9
Note_On_75_Vel_56
Time_Shift_82
Note_On_74_Vel_52
Time_Shift_21
Note_On_66_Vel_33
Time_Shift_13
Note_On_54_Vel_29
Time_Shift_18
Sustain_Off
Time_Shift_26
Note_On_75_Vel_0
Time_Shift_7
Note_On_75_Vel_60
Time_Shift_23
Sustain_On
Time_Shift_62
Note_On_76_Vel_0
Time_Shift_6
Note_On_76_Vel_49
Time_Shift_63
Note_On_75_Vel_0
Time_Shift_5
Note_On_75_Vel_58
Time_Shift_69
Note_On_80_Vel_60
Time_Shift_64
Note_On_78_Vel_54
Time_Shift_57
Note_On_72_Vel_57
Time_Shift_30
Note_On_64_Vel_47
Time_Shift_17
Note_On_35_Vel_0
Sustain_Off
Note_On_76_Vel_0
Time_Shift_3
Note_On_66_Vel_0
Time_Shift_3
Note_On_74_Vel_0
Time_Shift_1
Note_On_78_Vel_0
Note_On_80_Vel_0
Time_Shift_2
Note_On_75_Vel_0
Time_Shift_10
Note_On_73_Vel_61
Note_On_63_Vel_0
Time_Shift_74
Note_On_75_Vel_58
Time_Shift_18
Note_On_72_Vel_0
Time_Shift_16
Sustain_On
Time_Shift_46
Note_On_73_Vel_0
Time_Shift_8
Note_On_73_Vel_57
Time_Shift_67
Note_On_80_Vel_54
Time_Shift_51
Note_On_78_Vel_52
Time_Shift_70
Note_On_70_Vel_51
Time_Shift_52
Note_On_63_Vel_41
Time_Shift_39
Note_On_71_Vel_49
Time_Shift_4
Sustain_Off
Time_Shift_2
Note_On_64_Vel_0
Time_Shift_45
Note_On_73_Vel_0
Time_Shift_4
Note_On_73_Vel_57
Time_Shift_19
Sustain_On
Time_Shift_46
Note_On_71_Vel_0
Time_Shift_5
Note_On_71_Vel_50
Time_Shift_64
Note_On_80_Vel_0
Time_Shift_9
Note_On_80_Vel_53
Time_Shift_45
Note_On_78_Vel_0
Time_Shift_5
Note_On_78_Vel_47
Time_Shift_48
Note_On_71_Vel_0
Time_Shift_11
Note_On_71_Vel_59
Time_Shift_66
Note_On_71_Vel_0
Time_Shift_11
Note_On_71_Vel_67
Time_Shift_46
Note_On_61_Vel_39
Note_On_64_Vel_42
Time_Shift_17
Sustain_Off
Time_Shift_6
Note_On_80_Vel_0
Time_Shift_4
Note_On_73_Vel_0
Time_Shift_1
Note_On_75_Vel_0
Time_Shift_23
Sustain_On
Time_Shift_42
Note_On_73_Vel_49
Time_Shift_50
Note_On_71_Vel_0
Time_Shift_6
Note_On_71_Vel_53
Time_Shift_55
Note_On_73_Vel_0
Time_Shift_11
Note_On_73_Vel_49
Time_Shift_35
Note_On_71_Vel_0
Time_Shift_11
Note_On_71_Vel_57
Time_Shift_43
Note_On_73_Vel_0
Time_Shift_10
Note_On_73_Vel_51
Time_Shift_29
Note_On_71_Vel_0
Time_Shift_10
Note_On_71_Vel_52
Time_Shift_66
Note_On_70_Vel_0
Time_Shift_5
Note_On_70_Vel_55
Time_Shift_72
Note_On_54_Vel_0
Note_On_70_Vel_0
Time_Shift_5
Note_On_54_Vel_42
Note_On_70_Vel_60
Time_Shift_8
Sustain_Off
Time_Shift_18
Sustain_On
Time_Shift_8
Note_On_63_Vel_0
Time_Shift_38
Note_On_71_Vel_0
Time_Shift_10
Note_On_71_Vel_54
Time_Shift_59
Note_On_70_Vel_0
Time_Shift_6
Note_On_70_Vel_55
Time_Shift_48
Note_On_71_Vel_0
Note_On_78_Vel_0
Time_Shift_4
Note_On_71_Vel_55
Time_Shift_57
Note_On_70_Vel_0
Time_Shift_6
Note_On_70_Vel_58
Time_Shift_84
Note_On_68_Vel_66
Time_Shift_72
Note_On_68_Vel_0
Time_Shift_6
Note_On_68_Vel_57
Time_Shift_4
Note_On_59_Vel_44
Time_Shift_19
Note_On_71_Vel_0
Time_Shift_6
Note_On_64_Vel_0
Time_Shift_2
Note_On_61_Vel_0
Time_Shift_10
Sustain_Off
Time_Shift_22
Note_On_70_Vel_0
Time_Shift_11
Note_On_70_Vel_53
Time_Shift_35
Note_On_73_Vel_0
Time_Shift_7
Note_On_68_Vel_0
Time_Shift_8
Sustain_On
Time_Shift_3
Note_On_68_Vel_61
Time_Shift_59
Note_On_70_Vel_0
Time_Shift_6
Note_On_70_Vel_54
Time_Shift_40
Note_On_68_Vel_0
Time_Shift_9
Note_On_68_Vel_61
Time_Shift_60
Note_On_70_Vel_0
Time_Shift_7
Note_On_70_Vel_57
Time_Shift_47
Note_On_68_Vel_0
Time_Shift_6
Note_On_68_Vel_59
Time_Shift_87
Note_On_66_Vel_57
Time_Shift_37
Sustain_Off
Time_Shift_3
Note_On_58_Vel_48
Note_On_59_Vel_0
Time_Shift_89
Sustain_On
Time_Shift_77
Note_On_68_Vel_0
Time_Shift_7
Note_On_68_Vel_48
Time_Shift_70
Note_On_66_Vel_0
Time_Shift_4
Note_On_66_Vel_60
Time_Shift_104
Note_On_63_Vel_61
Time_Shift_96
Note_On_69_Vel_64
Time_Shift_102
Note_On_68_Vel_0
Time_Shift_1
Note_On_66_Vel_0
Time_Shift_1
Note_On_63_Vel_0
Note_On_58_Vel_0
Time_Shift_2
Sustain_Off
Time_Shift_12
Note_On_54_Vel_0
Note_On_70_Vel_0
Time_Shift_36
Note_On_78_Vel_69
Time_Shift_3
Note_On_35_Vel_36
Time_Shift_69
Sustain_On
Time_Shift_160
Note_On_80_Vel_62
Time_Shift_86
Note_On_78_Vel_0
Time_Shift_6
Note_On_78_Vel_58
Time_Shift_55
Note_On_80_Vel_0
Time_Shift_10
Note_On_80_Vel_59
Time_Shift_59
Note_On_78_Vel_0
Time_Shift_7
Note_On_78_Vel_58
Time_Shift_62
Note_On_80_Vel_0
Time_Shift_10
Note_On_80_Vel_60
Time_Shift_75
Note_On_78_Vel_0
Time_Shift_6
Note_On_78_Vel_63
Time_Shift_63
Note_On_80_Vel_0
Time_Shift_4
Note_On_59_Vel_48
Note_On_80_Vel_60
Time_Shift_80
Note_On_78_Vel_0
Time_Shift_4
Note_On_78_Vel_60
Time_Shift_43
Note_On_80_Vel_0
Time_Shift_6
Note_On_80_Vel_63
Time_Shift_55
Note_On_78_Vel_0
Time_Shift_10
Note_On_78_Vel_64
Time_Shift_67
Note_On_80_Vel_0
Time_Shift_7
Note_On_80_Vel_68
Time_Shift_39
Note_On_78_Vel_0
Time_Shift_10
Note_On_78_Vel_61
Time_Shift_51
Note_On_80_Vel_0
Time_Shift_10
Note_On_80_Vel_65
Time_Shift_36
Note_On_69_Vel_0
Note_On_78_Vel_0
Time_Shift_11
Note_On_69_Vel_56
Note_On_78_Vel_58
Time_Shift_16
Sustain_Off
Time_Shift_5
Note_On_63_Vel_46
Time_Shift_53
Note_On_80_Vel_0
Time_Shift_7
Note_On_80_Vel_58
Time_Shift_31
Note_On_78_Vel_0
Sustain_On
Time_Shift_11
Note_On_78_Vel_60
Time_Shift_66
Note_On_80_Vel_0
Time_Shift_5
Note_On_80_Vel_61
Time_Shift_41
Note_On_78_Vel_0
Time_Shift_5
Note_On_78_Vel_61
Time_Shift_57
Note_On_80_Vel_0
Time_Shift_5
Note_On_80_Vel_68
Time_Shift_33
Note_On_78_Vel_0
Time_Shift_11
Note_On_78_Vel_65
Time_Shift_50
Note_On_80_Vel_0
Time_Shift_7
Note_On_80_Vel_65
Time_Shift_47
Note_On_59_Vel_0
Note_On_78_Vel_0
Time_Shift_5
Note_On_59_Vel_40
Note_On_78_Vel_58
Time_Shift_64
Note_On_80_Vel_0
Time_Shift_6
Note_On_80_Vel_65
Time_Shift_33
Note_On_78_Vel_0
Time_Shift_6
Note_On_78_Vel_58
Time_Shift_71
Note_On_80_Vel_0
Time_Shift_3
Note_On_80_Vel_50
Time_Shift_27
Note_On_78_Vel_0
Time_Shift_9
Note_On_78_Vel_49
Time_Shift_60
Note_On_80_Vel_0
Time_Shift_5
Note_On_80_Vel_64
Time_Shift_41
Note_On_78_Vel_0
Time_Shift_11
Note_On_78_Vel_54
Time_Shift_51
Note_On_80_Vel_0
Time_Shift_7
Note_On_80_Vel_54
Time_Shift_31
Note_On_78_Vel_0
Time_Shift_10
Note_On_78_Vel_48
Time_Shift_36
Note_On_69_Vel_0
Time_Shift_8
Note_On_63_Vel_0
Time_Shift_4
Note_On_69_Vel_36
Time_Shift_1
Sustain_Off
Time_Shift_1
Note_On_63_Vel_36
Time_Shift_25
Note_On_80_Vel_0
Time_Shift_10
Note_On_80_Vel_54
Time_Shift_44
Note_On_78_Vel_0
Time_Shift_6
Note_On_78_Vel_36
Time_Shift_32
Sustain_On
Time_Shift_15
Note_On_80_Vel_0
Time_Shift_11
Note_On_80_Vel_51
Time_Shift_51
Note_On_78_Vel_0
Time_Shift_5
Note_On_78_Vel_52
Time_Shift_56
Note_On_80_Vel_0
Time_Shift_10
Note_On_80_Vel_52
Time_Shift_44
Note_On_78_Vel_0
Time_Shift_4
Note_On_78_Vel_40
Time_Shift_57
Note_On_80_Vel_0
Time_Shift_11
Note_On_80_Vel_42
Time_Shift_20
Note_On_78_Vel_0
Time_Shift_11
Note_On_78_Vel_49
Time_Shift_81
Note_On_80_Vel_0
Time_Shift_7
Note_On_80_Vel_46
Time_Shift_32
Note_On_78_Vel_0
Time_Shift_11
Note_On_78_Vel_50
Time_Shift_50
Note_On_80_Vel_0
Time_Shift_9
Note_On_80_Vel_52
Time_Shift_45
Note_On_78_Vel_0
Time_Shift_4
Note_On_78_Vel_54
Time_Shift_57
Note_On_80_Vel_0
Time_Shift_5
Note_On_80_Vel_53
Time_Shift_49
Note_On_78_Vel_0
Time_Shift_9
Note_On_78_Vel_47
Time_Shift_37
Note_On_80_Vel_0
Time_Shift_10
Note_On_80_Vel_52
Time_Shift_52
Note_On_78_Vel_0
Time_Shift_7
Note_On_78_Vel_56
Time_Shift_62
Note_On_80_Vel_0
Time_Shift_6
Note_On_80_Vel_51
Time_Shift_40
Note_On_78_Vel_0
Time_Shift_11
Note_On_78_Vel_51
Time_Shift_73
Note_On_80_Vel_0
Time_Shift_4
Note_On_80_Vel_47
Time_Shift_8
Note_On_68_Vel_28
Time_Shift_11
Note_On_68_Vel_0
Note_On_78_Vel_0
Time_Shift_9
Note_On_78_Vel_49
Time_Shift_60
Note_On_80_Vel_0
Time_Shift_10
Note_On_80_Vel_59
Time_Shift_52
Note_On_78_Vel_0
Time_Shift_5
Note_On_78_Vel_53
Time_Shift_72
Note_On_80_Vel_0
Time_Shift_4
Note_On_92_Vel_45
Time_Shift_6
Note_On_80_Vel_39
Time_Shift_5
Note_On_92_Vel_0
Time_Shift_23
Note_On_78_Vel_0
Time_Shift_9
Note_On_78_Vel_48
Time_Shift_52
Note_On_80_Vel_0
Time_Shift_11
Note_On_80_Vel_56
Time_Shift_66
Note_On_78_Vel_0
Time_Shift_6
Note_On_78_Vel_48
Time_Shift_63
Note_On_80_Vel_0
Time_Shift_6
Note_On_80_Vel_45
Time_Shift_17
Note_On_78_Vel_0
Time_Shift_6
Note_On_78_Vel_45
Time_Shift_71
Note_On_80_Vel_0
Time_Shift_5
Note_On_80_Vel_51
Time_Shift_57
Note_On_78_Vel_0
Time_Shift_10
Note_On_78_Vel_45
Time_Shift_51
Note_On_80_Vel_0
Time_Shift_10
Note_On_80_Vel_47
Time_Shift_36
Note_On_78_Vel_0
Time_Shift_6
Note_On_78_Vel_52
Time_Shift_48
Note_On_80_Vel_0
Time_Shift_10
Note_On_80_Vel_56
Time_Shift_44
Note_On_78_Vel_0
Time_Shift_4
Note_On_78_Vel_53
Time_Shift_49
Note_On_80_Vel_0
Time_Shift_11
Note_On_80_Vel_58
Time_Shift_13
Note_On_35_Vel_0
Note_On_59_Vel_0
Note_On_63_Vel_0
Note_On_69_Vel_0
Time_Shift_46
Note_On_78_Vel_0
Time_Shift_5
Note_On_78_Vel_53
Time_Shift_21
Note_On_60_Vel_37
Time_Shift_1
Note_On_69_Vel_33
Time_Shift_6
Note_On_62_Vel_35
Time_Shift_11
Sustain_Off
Time_Shift_15
Note_On_78_Vel_0
Time_Shift_4
Note_On_80_Vel_0
Time_Shift_34
Note_On_79_Vel_42
Time_Shift_24
Note_On_79_Vel_0
Time_Shift_21
Note_On_78_Vel_47
Time_Shift_39
Note_On_78_Vel_0
Time_Shift_22
Note_On_79_Vel_39
Time_Shift_45
Note_On_78_Vel_53
Time_Shift_13
Sustain_On
Time_Shift_30
Note_On_79_Vel_0
Time_Shift_7
Note_On_79_Vel_48
Time_Shift_55
Note_On_78_Vel_0
Time_Shift_11
Note_On_78_Vel_46
Time_Shift_43
Note_On_79_Vel_0
Time_Shift_4
Note_On_79_Vel_44
Time_Shift_57
Note_On_78_Vel_0
Time_Shift_5
Note_On_78_Vel_52
Time_Shift_57
Note_On_79_Vel_0
Time_Shift_7
Note_On_79_Vel_44
Time_Shift_39
Note_On_78_Vel_0
Time_Shift_6
Note_On_78_Vel_56
Time_Shift_63
Note_On_79_Vel_0
Time_Shift_8
Note_On_79_Vel_49
Time_Shift_45
Note_On_78_Vel_0
Time_Shift_11
Note_On_78_Vel_53
Time_Shift_43
Note_On_79_Vel_0
Time_Shift_5
Note_On_79_Vel_54
Time_Shift_49
Note_On_78_Vel_0
Time_Shift_11
Note_On_78_Vel_44
Time_Shift_43
Note_On_79_Vel_0
Time_Shift_9
Note_On_79_Vel_51
Time_Shift_60
Note_On_78_Vel_0
Time_Shift_7
Note_On_78_Vel_48
Time_Shift_54
Note_On_79_Vel_0
Time_Shift_4
Note_On_79_Vel_48
Time_Shift_35
Note_On_78_Vel_0
Time_Shift_10
Note_On_78_Vel_54
Time_Shift_59
Note_On_79_Vel_0
Time_Shift_4
Note_On_79_Vel_49
Time_Shift_57
Note_On_78_Vel_0
Time_Shift_5
Note_On_78_Vel_51
Time_Shift_57
Note_On_79_Vel_0
Time_Shift_8
Note_On_79_Vel_38
Time_Shift_38
Note_On_78_Vel_0
Time_Shift_11
Note_On_78_Vel_47
Time_Shift_43
Note_On_79_Vel_0
Time_Shift_4
Note_On_79_Vel_55
Time_Shift_57
Note_On_78_Vel_0
Time_Shift_6
Note_On_78_Vel_47
Time_Shift_40
Note_On_60_Vel_0
Note_On_69_Vel_0
Time_Shift_6
Note_On_69_Vel_34
Time_Shift_5
Note_On_60_Vel_35
Time_Shift_4
Note_On_62_Vel_0
Note_On_79_Vel_0
Time_Shift_4
Note_On_62_Vel_31
Time_Shift_1
Note_On_79_Vel_42
Time_Shift_57
Note_On_78_Vel_0
Time_Shift_6
Note_On_78_Vel_49
Time_Shift_40
Note_On_79_Vel_0
Time_Shift_11
Note_On_79_Vel_49
Time_Shift_66
Note_On_78_Vel_0
Time_Shift_10
Note_On_78_Vel_52
Time_Shift_51
Note_On_79_Vel_0
Time_Shift_4
Note_On_79_Vel_45
Time_Shift_50
Note_On_78_Vel_0
Time_Shift_10
Note_On_78_Vel_52
Time_Shift_51
Note_On_79_Vel_0
Time_Shift_6
Note_On_79_Vel_45
Time_Shift_48
Note_On_78_Vel_0
Time_Shift_4
Note_On_78_Vel_50
Time_Shift_65
Note_On_79_Vel_0
Time_Shift_11
Note_On_79_Vel_43
Time_Shift_51
Note_On_78_Vel_0
Time_Shift_6
Note_On_78_Vel_52
Time_Shift_101
Note_On_78_Vel_0
Time_Shift_10
Note_On_78_Vel_51
Time_Shift_68
Note_On_77_Vel_53
Time_Shift_160
Note_On_78_Vel_0
Time_Shift_5
Note_On_78_Vel_57
Time_Shift_72
Sustain_Off
Time_Shift_46
Note_On_79_Vel_0
Time_Shift_5
Note_On_79_Vel_51
Time_Shift_75
Note_On_77_Vel_0
Time_Shift_51
Note_On_78_Vel_0
Time_Shift_5
Note_On_78_Vel_53
Time_Shift_147
Note_On_79_Vel_0
Time_Shift_5
Note_On_78_Vel_0
Time_Shift_2
Note_On_81_Vel_47
Time_Shift_176
Note_On_79_Vel_43
Time_Shift_209
Note_On_78_Vel_46
Time_Shift_24
Sustain_On
Time_Shift_284
Note_On_60_Vel_0
Note_On_78_Vel_0
Time_Shift_7
Note_On_78_Vel_38
Time_Shift_1
Note_On_62_Vel_0
Time_Shift_1
Note_On_60_Vel_21
Time_Shift_9
Note_On_62_Vel_27
Time_Shift_47
Sustain_Off
Time_Shift_11
Note_On_79_Vel_0
Time_Shift_1
Note_On_81_Vel_0
Time_Shift_215
Sustain_On
Time_Shift_1691
Note_On_69_Vel_0
Time_Shift_3
Note_On_62_Vel_0
Time_Shift_1
Note_On_60_Vel_0
Time_Shift_5
Sustain_Off
Time_Shift_51
Note_On_78_Vel_0
Time_Shift_481
Note_On_78_Vel_60
Time_Shift_16
Note_On_69_Vel_35
Time_Shift_1
Note_On_62_Vel_31
Time_Shift_12
Note_On_60_Vel_24
Time_Shift_105
Sustain_On
Time_Shift_444
Note_On_79_Vel_63
Time_Shift_7
Note_On_59_Vel_42
Time_Shift_12
Note_On_67_Vel_41
Time_Shift_37
Sustain_Off
Time_Shift_22
Note_On_60_Vel_0
Time_Shift_46
Note_On_69_Vel_0
Time_Shift_38
Sustain_On
Time_Shift_254
Note_On_67_Vel_0
Time_Shift_4
Note_On_76_Vel_66
Time_Shift_6
Note_On_67_Vel_42
Note_On_60_Vel_50
Time_Shift_1
Note_On_58_Vel_46
Time_Shift_19
Note_On_78_Vel_0
Time_Shift_24
Note_On_59_Vel_0
Time_Shift_3
Note_On_79_Vel_0
Time_Shift_4
Note_On_62_Vel_0
Time_Shift_5
Sustain_Off
Time_Shift_164
Sustain_On
Time_Shift_213
Note_On_77_Vel_64
Time_Shift_6
Note_On_65_Vel_45
Time_Shift_3
Note_On_57_Vel_43
Time_Shift_47
Sustain_Off
Time_Shift_5
Note_On_58_Vel_0
Time_Shift_2
Note_On_67_Vel_0
Time_Shift_4
Note_On_76_Vel_0
Time_Shift_119
Sustain_On
Time_Shift_204
Note_On_72_Vel_63
Time_Shift_7
Note_On_56_Vel_42
Time_Shift_30
Note_On_57_Vel_0
Time_Shift_3
Sustain_Off
Time_Shift_117
Sustain_On
Time_Shift_262
Note_On_65_Vel_0
Time_Shift_1
Note_On_74_Vel_66
Time_Shift_1
Note_On_59_Vel_43
Time_Shift_6
Note_On_65_Vel_38
Time_Shift_2
Note_On_55_Vel_39
Time_Shift_56
Note_On_56_Vel_0
Sustain_Off
Time_Shift_10
Note_On_60_Vel_0
Time_Shift_39
Note_On_72_Vel_0
Time_Shift_7
Note_On_77_Vel_0
Time_Shift_23
Sustain_On
Time_Shift_229
Note_On_75_Vel_65
Time_Shift_13
Note_On_54_Vel_40
Time_Shift_15
Note_On_66_Vel_40
Time_Shift_39
Note_On_65_Vel_0
Note_On_74_Vel_0
Time_Shift_4
Sustain_Off
Time_Shift_3
Note_On_55_Vel_0
Time_Shift_1
Note_On_59_Vel_0
Time_Shift_203
Sustain_On
Time_Shift_209
Note_On_59_Vel_26
Time_Shift_19
Note_On_71_Vel_47
Time_Shift_6
Note_On_64_Vel_34
Time_Shift_27
Sustain_Off
Time_Shift_2
Note_On_56_Vel_26
Time_Shift_18
Note_On_66_Vel_0
Note_On_54_Vel_0
Time_Shift_195
Sustain_On
Time_Shift_281
Note_On_63_Vel_51
Time_Shift_24
Note_On_54_Vel_30
Time_Shift_13
Note_On_56_Vel_0
Time_Shift_1
Note_On_64_Vel_0
Time_Shift_1
Note_On_59_Vel_0
Time_Shift_5
Sustain_Off
Time_Shift_236
Sustain_On
Time_Shift_281
Note_On_68_Vel_56
Time_Shift_5
Note_On_60_Vel_39
Time_Shift_183
Note_On_71_Vel_0
Time_Shift_214
Note_On_64_Vel_60
Time_Shift_13
Sustain_Off
Time_Shift_8
Note_On_63_Vel_0
Time_Shift_10
Note_On_75_Vel_0
Time_Shift_23
Note_On_54_Vel_0
Time_Shift_139
Sustain_On
Time_Shift_210
Note_On_70_Vel_64
Time_Shift_16
Note_On_61_Vel_44
Time_Shift_23
Sustain_Off
Time_Shift_12
Note_On_60_Vel_0
Time_Shift_10
Note_On_68_Vel_0
Time_Shift_3
Note_On_64_Vel_0
Time_Shift_117
Sustain_On
Time_Shift_166
Note_On_66_Vel_57
Time_Shift_49
Sustain_Off
Time_Shift_85
Sustain_On
Time_Shift_272
Note_On_71_Vel_69
Time_Shift_23
Note_On_63_Vel_53
Time_Shift_17
Note_On_70_Vel_0
Time_Shift_3
Sustain_Off
Time_Shift_1
Note_On_61_Vel_0
Time_Shift_2
Note_On_66_Vel_0
Time_Shift_158
Sustain_On
Time_Shift_143
Note_On_75_Vel_77
Time_Shift_15
Note_On_64_Vel_54
Time_Shift_19
Sustain_Off
Time_Shift_5
Note_On_63_Vel_0
Time_Shift_2
Note_On_71_Vel_0
Time_Shift_146
Sustain_On
Time_Shift_169
Sustain_Off
Time_Shift_18
Note_On_73_Vel_69
Time_Shift_42
Note_On_68_Vel_43
Time_Shift_63
Sustain_On
Time_Shift_312
Note_On_70_Vel_70
Time_Shift_32
Note_On_66_Vel_39
Time_Shift_16
Note_On_68_Vel_0
Time_Shift_4
Sustain_Off
Note_On_73_Vel_0
Time_Shift_1
Note_On_64_Vel_0
Time_Shift_4
Note_On_75_Vel_0
Time_Shift_146
Sustain_On
Time_Shift_255
Note_On_71_Vel_71
Time_Shift_41
Note_On_70_Vel_0
Time_Shift_3
Note_On_66_Vel_0
Time_Shift_1
Note_On_63_Vel_37
Time_Shift_11
Sustain_Off
Time_Shift_269
Note_On_68_Vel_70
Time_Shift_72
Sustain_On
Time_Shift_276
Note_On_73_Vel_76
Time_Shift_20
Note_On_64_Vel_58
Time_Shift_34
Sustain_Off
Time_Shift_101
Note_On_63_Vel_0
Time_Shift_53
Sustain_On
Time_Shift_8
Note_On_71_Vel_0
Time_Shift_100
Note_On_70_Vel_74
Time_Shift_46
Sustain_Off
Time_Shift_5
Note_On_68_Vel_0
Time_Shift_133
Sustain_On
Time_Shift_173
Note_On_75_Vel_78
Time_Shift_7
Note_On_66_Vel_57
Time_Shift_47
Note_On_64_Vel_0
Note_On_70_Vel_0
Time_Shift_15
Sustain_Off
Time_Shift_111
Sustain_On
Time_Shift_16
Note_On_73_Vel_0
Time_Shift_194
Note_On_78_Vel_76
Time_Shift_10
Note_On_68_Vel_57
Time_Shift_42
Sustain_Off
Time_Shift_3
Note_On_66_Vel_0
Time_Shift_1
Note_On_75_Vel_0
Time_Shift_188
Sustain_On
Time_Shift_188
Note_On_76_Vel_67
Time_Shift_8
Note_On_71_Vel_58
Time_Shift_331
Note_On_71_Vel_0
Time_Shift_2
Sustain_Off
Note_On_78_Vel_0
Time_Shift_2
Note_On_76_Vel_0
Time_Shift_13
Note_On_73_Vel_70
Time_Shift_8
Note_On_70_Vel_61
Time_Shift_162
Sustain_On
Time_Shift_221
Note_On_75_Vel_78
Time_Shift_4
Note_On_66_Vel_60
Time_Shift_332
Note_On_71_Vel_65
Time_Shift_4
Note_On_56_Vel_63
Time_Shift_12
Note_On_70_Vel_0
Time_Shift_2
Note_On_66_Vel_0
Time_Shift_2
Note_On_73_Vel_0
Time_Shift_2
Sustain_Off
Time_Shift_12
Note_On_68_Vel_0
Time_Shift_108
Sustain_On
Time_Shift_261
Note_On_76_Vel_73
Time_Shift_4
Note_On_61_Vel_63
Note_On_64_Vel_63
Time_Shift_17
Note_On_49_Vel_56
Time_Shift_386
Note_On_75_Vel_0
Time_Shift_5
Note_On_75_Vel_76
Time_Shift_5
Note_On_70_Vel_69
Time_Shift_2
Note_On_55_Vel_61
Time_Shift_32
Note_On_56_Vel_0
Note_On_71_Vel_0
Time_Shift_1
Note_On_76_Vel_0
Time_Shift_1
Note_On_61_Vel_0
Note_On_49_Vel_0
Time_Shift_1
Note_On_64_Vel_0
Time_Shift_4
Sustain_Off
Time_Shift_125
Sustain_On
Time_Shift_303
Note_On_79_Vel_79
Time_Shift_2
Note_On_51_Vel_56
Note_On_73_Vel_66
Time_Shift_3
Note_On_70_Vel_0
Time_Shift_2
Note_On_63_Vel_63
Time_Shift_2
Note_On_70_Vel_60
Time_Shift_6
Note_On_67_Vel_57
Time_Shift_394
Note_On_68_Vel_80
Time_Shift_87
Note_On_68_Vel_0
Time_Shift_5
Note_On_68_Vel_74
Time_Shift_151
Note_On_71_Vel_76
Time_Shift_2
Note_On_82_Vel_76
Time_Shift_2
Note_On_62_Vel_75
Time_Shift_3
Note_On_83_Vel_73
Time_Shift_2
Note_On_52_Vel_70
Time_Shift_4
Note_On_83_Vel_0
Time_Shift_11
Sustain_Off
Time_Shift_6
Note_On_79_Vel_0
Time_Shift_1
Note_On_75_Vel_0
Time_Shift_1
Note_On_63_Vel_0
Note_On_67_Vel_0
Note_On_70_Vel_0
Note_On_73_Vel_0
Time_Shift_1
Note_On_51_Vel_0
Time_Shift_11
Note_On_55_Vel_0
Time_Shift_169
Sustain_On
Time_Shift_84
Note_On_68_Vel_0
Time_Shift_360
Note_On_80_Vel_81
Note_On_74_Vel_67
Time_Shift_1
Note_On_71_Vel_0
Time_Shift_6
Note_On_71_Vel_58
Time_Shift_8
Note_On_59_Vel_56
Time_Shift_5
Note_On_53_Vel_48
Time_Shift_459
Note_On_73_Vel_72
Time_Shift_6
Note_On_70_Vel_66
Time_Shift_4
Note_On_66_Vel_53
Time_Shift_4
Note_On_54_Vel_54
Time_Shift_7
Note_On_74_Vel_0
Time_Shift_4
Note_On_62_Vel_0
Note_On_71_Vel_0
Note_On_80_Vel_0
Note_On_59_Vel_0
Time_Shift_2
Note_On_53_Vel_0
Note_On_52_Vel_0
Time_Shift_7
Sustain_Off
Time_Shift_10
Note_On_82_Vel_0
Time_Shift_100
Sustain_On
Time_Shift_336
Note_On_75_Vel_75
Time_Shift_5
Note_On_69_Vel_64
Time_Shift_3
Note_On_59_Vel_53
Time_Shift_29
Sustain_Off
Time_Shift_12
Note_On_70_Vel_0
Time_Shift_4
Note_On_73_Vel_0
Time_Shift_1
Note_On_66_Vel_0
Time_Shift_79
Sustain_On
Time_Shift_287
Note_On_76_Vel_72
Time_Shift_1
Note_On_52_Vel_41
Time_Shift_2
Note_On_68_Vel_56
Time_Shift_23
Note_On_69_Vel_0
Time_Shift_4
Note_On_75_Vel_0
Sustain_Off
Time_Shift_5
Note_On_54_Vel_0
Time_Shift_58
Note_On_59_Vel_0
Time_Shift_119
Sustain_On
Time_Shift_247
Note_On_61_Vel_42
Time_Shift_2
Note_On_70_Vel_70
Time_Shift_39
Sustain_Off
Time_Shift_8
Note_On_76_Vel_0
Time_Shift_4
Note_On_68_Vel_0
Time_Shift_2
Note_On_52_Vel_0
Time_Shift_143
Sustain_On
Time_Shift_283
Note_On_67_Vel_51
Time_Shift_4
Note_On_63_Vel_44
Time_Shift_20
Note_On_51_Vel_30
Time_Shift_19
Sustain_Off
Time_Shift_3
Note_On_61_Vel_0
Time_Shift_140
Sustain_On
Time_Shift_364
Note_On_72_Vel_63
Time_Shift_6
Note_On_66_Vel_46
Time_Shift_18
Note_On_56_Vel_43
Time_Shift_30
Sustain_Off
Time_Shift_12
Note_On_63_Vel_0
Time_Shift_2
Note_On_67_Vel_0
Time_Shift_1
Note_On_70_Vel_0
Note_On_51_Vel_0
Time_Shift_120
Sustain_On
Time_Shift_458
Note_On_75_Vel_61
Note_On_65_Vel_33
Time_Shift_6
Note_On_49_Vel_30
Time_Shift_7
Note_On_56_Vel_0
Note_On_66_Vel_0
Time_Shift_4
Note_On_72_Vel_0
Time_Shift_3
Sustain_Off
Time_Shift_221
Sustain_On
Time_Shift_565
Note_On_73_Vel_39
Time_Shift_2
Note_On_64_Vel_37
Time_Shift_8
Note_On_49_Vel_0
Time_Shift_4
Note_On_58_Vel_25
Time_Shift_1
Note_On_75_Vel_0
Note_On_65_Vel_0
Time_Shift_1
Sustain_Off
Time_Shift_22
Note_On_42_Vel_24
Time_Shift_149
Sustain_On
Time_Shift_818
Note_On_71_Vel_38
Time_Shift_7
Note_On_63_Vel_29
Time_Shift_1
Note_On_54_Vel_23
Time_Shift_5
Note_On_59_Vel_27
Time_Shift_29
Note_On_47_Vel_20
Time_Shift_12
Note_On_58_Vel_0
Time_Shift_1
Note_On_42_Vel_0
Note_On_64_Vel_0
Time_Shift_4
Note_On_73_Vel_0
Time_Shift_8
Sustain_Off
Time_Shift_206
Sustain_On
Time_Shift_407
Note_On_54_Vel_0
Time_Shift_5
Note_On_54_Vel_34
Time_Shift_476
Note_On_83_Vel_60
Time_Shift_556
Note_On_54_Vel_0
Time_Shift_8
Note_On_54_Vel_24
Time_Shift_240
Note_On_82_Vel_49
Time_Shift_204
Note_On_81_Vel_48
Time_Shift_16
Note_On_63_Vel_0
Time_Shift_8
Note_On_59_Vel_0
Time_Shift_2
Note_On_66_Vel_19
Note_On_63_Vel_26
Time_Shift_2
Note_On_59_Vel_29
Time_Shift_127
Note_On_47_Vel_0
Note_On_71_Vel_0
Time_Shift_51
Note_On_80_Vel_59
Time_Shift_169
Note_On_78_Vel_59
Time_Shift_148
Note_On_81_Vel_0
Time_Shift_5
Note_On_81_Vel_54
Time_Shift_149
Note_On_80_Vel_0
Time_Shift_8
Note_On_80_Vel_55
Time_Shift_153
Note_On_78_Vel_0
Time_Shift_10
Note_On_78_Vel_54
Time_Shift_144
Note_On_54_Vel_0
Time_Shift_10
Note_On_76_Vel_48
Time_Shift_1
Note_On_54_Vel_30
Time_Shift_158
Note_On_80_Vel_0
Time_Shift_7
Note_On_80_Vel_52
Time_Shift_131
Note_On_78_Vel_0
Time_Shift_9
Note_On_78_Vel_48
Time_Shift_24
Sustain_Off
Time_Shift_2
Note_On_54_Vel_0
Time_Shift_2
Note_On_35_Vel_32
Note_On_59_Vel_0
Time_Shift_1
Note_On_63_Vel_0
Time_Shift_2
Note_On_81_Vel_0
Note_On_76_Vel_0
Time_Shift_1
Note_On_83_Vel_0
Note_On_82_Vel_0
Time_Shift_1
Note_On_80_Vel_0
Time_Shift_12
Note_On_66_Vel_0
Time_Shift_99
Sustain_On
Time_Shift_32
Note_On_76_Vel_48
Time_Shift_163
Note_On_75_Vel_54
Time_Shift_18
Note_On_54_Vel_34
Time_Shift_133
Note_On_78_Vel_0
Time_Shift_7
Note_On_78_Vel_55
Time_Shift_147
Note_On_76_Vel_0
Time_Shift_5
Note_On_76_Vel_52
Time_Shift_133
Note_On_75_Vel_0
Time_Shift_11
Note_On_75_Vel_59
Time_Shift_159
Note_On_73_Vel_59
Time_Shift_14
Note_On_54_Vel_0
Time_Shift_4
Note_On_54_Vel_32
Time_Shift_142
Note_On_76_Vel_0
Time_Shift_4
Note_On_76_Vel_53
Time_Shift_142
Note_On_75_Vel_0
Time_Shift_9
Note_On_75_Vel_56
Time_Shift_1
Sustain_Off
Time_Shift_4
Note_On_59_Vel_33
Time_Shift_4
Note_On_63_Vel_36
Time_Shift_4
Note_On_35_Vel_0
Note_On_78_Vel_0
Time_Shift_5
Note_On_73_Vel_0
Time_Shift_4
Note_On_76_Vel_0
Time_Shift_115
Sustain_On
Time_Shift_35
Note_On_73_Vel_56
Time_Shift_149
Note_On_54_Vel_0
Time_Shift_5
Note_On_71_Vel_55
Time_Shift_4
Note_On_54_Vel_31
Time_Shift_170
Note_On_69_Vel_55
Time_Shift_159
Note_On_71_Vel_0
Time_Shift_5
Note_On_71_Vel_57
Time_Shift_149
Note_On_73_Vel_0
Time_Shift_4
Note_On_73_Vel_64
Time_Shift_172
Note_On_54_Vel_0
Note_On_75_Vel_0
Time_Shift_6
Note_On_75_Vel_59
Time_Shift_4
Note_On_54_Vel_36
Time_Shift_159
Note_On_69_Vel_0
Time_Shift_6
Note_On_69_Vel_55
Time_Shift_154
Note_On_75_Vel_0
Note_On_54_Vel_0
Note_On_73_Vel_0
Note_On_71_Vel_0
Note_On_63_Vel_0
Note_On_59_Vel_0
Note_On_69_Vel_0
Time_Shift_5
Sustain_Off
Time_Shift_27
Note_On_68_Vel_56
Time_Shift_6
Note_On_47_Vel_35
Time_Shift_102
Sustain_On
Time_Shift_129
Note_On_69_Vel_59
Time_Shift_156
Note_On_56_Vel_53
Time_Shift_3
Note_On_71_Vel_62
Time_Shift_150
Note_On_69_Vel_0
Time_Shift_5
Note_On_73_Vel_67
Time_Shift_6
Note_On_69_Vel_45
Time_Shift_148
Note_On_75_Vel_73
Time_Shift_146
Note_On_76_Vel_68
Time_Shift_140
Note_On_56_Vel_0
Time_Shift_8
Note_On_56_Vel_46
Time_Shift_1
Note_On_78_Vel_71
Time_Shift_150
Note_On_79_Vel_74
Time_Shift_164
Note_On_68_Vel_0
Time_Shift_2
Note_On_80_Vel_69
Time_Shift_4
Note_On_64_Vel_47
Note_On_68_Vel_46
Time_Shift_16
Note_On_59_Vel_44
Time_Shift_6
Note_On_71_Vel_0
Sustain_Off
Time_Shift_1
Note_On_78_Vel_0
Note_On_75_Vel_0
Note_On_47_Vel_0
Note_On_79_Vel_0
Time_Shift_1
Note_On_76_Vel_0
Note_On_69_Vel_0
Time_Shift_1
Note_On_73_Vel_0
Time_Shift_99
Sustain_On
Time_Shift_33
Note_On_85_Vel_69
Time_Shift_144
Note_On_56_Vel_0
Time_Shift_10
Note_On_56_Vel_55
Time_Shift_2
Note_On_83_Vel_69
Time_Shift_166
Note_On_87_Vel_77
Time_Shift_175
Note_On_88_Vel_77
Time_Shift_173
Note_On_90_Vel_81
Time_Shift_176
Note_On_92_Vel_82
Time_Shift_1
Note_On_58_Vel_51
Time_Shift_194
Note_On_94_Vel_78
Time_Shift_182
Note_On_95_Vel_77
Time_Shift_13
Note_On_35_Vel_49
Time_Shift_4
Sustain_Off
Time_Shift_3
Note_On_90_Vel_0
Time_Shift_1
Note_On_59_Vel_0
Note_On_85_Vel_0
Time_Shift_1
Note_On_87_Vel_0
Note_On_64_Vel_0
Note_On_56_Vel_0
Note_On_83_Vel_0
Note_On_92_Vel_0
Note_On_80_Vel_0
Time_Shift_1
Note_On_88_Vel_0
Time_Shift_4
Note_On_58_Vel_0
Note_On_68_Vel_0
Time_Shift_38
Note_On_94_Vel_0
Time_Shift_69
Sustain_On
Time_Shift_113
Note_On_99_Vel_85
Time_Shift_189
Note_On_97_Vel_83
Time_Shift_9
Note_On_54_Vel_51
Time_Shift_150
Note_On_95_Vel_0
Time_Shift_10
Note_On_95_Vel_78
Time_Shift_162
Note_On_92_Vel_80
Time_Shift_164
Note_On_88_Vel_59
Time_Shift_152
Note_On_85_Vel_63
Time_Shift_4
Note_On_54_Vel_0
Time_Shift_6
Note_On_54_Vel_38
Time_Shift_158
Note_On_83_Vel_61
Time_Shift_174
Note_On_99_Vel_0
Time_Shift_2
Note_On_80_Vel_58
Time_Shift_19
Note_On_64_Vel_42
Time_Shift_40
Note_On_35_Vel_0
Time_Shift_6
Sustain_Off
Time_Shift_6
Note_On_95_Vel_0
Time_Shift_3
Note_On_85_Vel_0
Time_Shift_62
Note_On_88_Vel_0
Time_Shift_7
Sustain_On
Time_Shift_43
Note_On_76_Vel_46
Time_Shift_157
Note_On_83_Vel_0
Time_Shift_13
Note_On_73_Vel_50
Time_Shift_33
Note_On_54_Vel_0
Time_Shift_10
Note_On_54_Vel_29
Time_Shift_145
Note_On_71_Vel_51
Time_Shift_211
Note_On_68_Vel_50
Time_Shift_210
Note_On_64_Vel_0
Time_Shift_11
Note_On_64_Vel_41
Time_Shift_227
Note_On_54_Vel_0
Time_Shift_10
Note_On_54_Vel_31
Time_Shift_1
Note_On_61_Vel_41
Time_Shift_28
Note_On_97_Vel_0
Time_Shift_284
Note_On_56_Vel_39
Time_Shift_276
Note_On_54_Vel_0
Note_On_92_Vel_0
Time_Shift_9
Note_On_54_Vel_35
Time_Shift_28
Note_On_80_Vel_0
Note_On_71_Vel_0
Time_Shift_1
Note_On_76_Vel_0
Note_On_68_Vel_0
Note_On_73_Vel_0
Sustain_Off
Note_On_61_Vel_0
Time_Shift_1
Note_On_56_Vel_0
Time_Shift_9
Note_On_35_Vel_29
Time_Shift_6
Note_On_64_Vel_0
Time_Shift_131
Sustain_On
Time_Shift_126
Note_On_63_Vel_37
Time_Shift_247
Note_On_66_Vel_36
Time_Shift_80
Note_On_54_Vel_0
Time_Shift_9
Note_On_54_Vel_26
Time_Shift_182
Note_On_75_Vel_39
Time_Shift_296
Note_On_83_Vel_50
Time_Shift_519
Note_On_54_Vel_0
Time_Shift_4
Note_On_54_Vel_25
Time_Shift_252
Note_On_82_Vel_50
Time_Shift_239
Note_On_81_Vel_43
Time_Shift_16
Note_On_59_Vel_27
Time_Shift_11
Note_On_63_Vel_0
Time_Shift_6
Note_On_63_Vel_23
Time_Shift_4
Sustain_Off
Time_Shift_10
Note_On_82_Vel_0
Time_Shift_1
Note_On_35_Vel_0
Note_On_66_Vel_0
Note_On_75_Vel_0
Note_On_83_Vel_0
Time_Shift_117
Sustain_On
Time_Shift_64
Note_On_79_Vel_41
Time_Shift_183
Note_On_78_Vel_42
Time_Shift_7
Note_On_54_Vel_0
Time_Shift_9
Note_On_54_Vel_25
Time_Shift_160
Note_On_81_Vel_0
Time_Shift_11
Note_On_81_Vel_43
Time_Shift_165
Note_On_79_Vel_0
Time_Shift_12
Note_On_79_Vel_45
Time_Shift_173
Note_On_78_Vel_0
Time_Shift_4
Note_On_78_Vel_47
Time_Shift_149
Note_On_76_Vel_41
Time_Shift_16
Note_On_54_Vel_0
Time_Shift_4
Note_On_54_Vel_27
Time_Shift_157
Note_On_79_Vel_0
Time_Shift_4
Note_On_79_Vel_47
Time_Shift_153
Sustain_Off
Time_Shift_5
Note_On_81_Vel_0
Time_Shift_3
Note_On_76_Vel_0
Note_On_59_Vel_0
Note_On_79_Vel_0
Time_Shift_4
Note_On_78_Vel_0
Time_Shift_8
Note_On_63_Vel_0
Time_Shift_1
Note_On_78_Vel_48
Time_Shift_10
Note_On_47_Vel_22
Time_Shift_104
Sustain_On
Time_Shift_103
Note_On_76_Vel_43
Time_Shift_112
Note_On_54_Vel_0
Time_Shift_59
Note_On_54_Vel_33
Time_Shift_6
Note_On_75_Vel_45
Time_Shift_171
Note_On_79_Vel_48
Time_Shift_156
Note_On_78_Vel_0
Time_Shift_8
Note_On_78_Vel_53
Time_Shift_153
Note_On_76_Vel_0
Time_Shift_4
Note_On_76_Vel_48
Time_Shift_149
Note_On_54_Vel_0
Time_Shift_8
Note_On_75_Vel_0
Time_Shift_3
Note_On_54_Vel_24
Time_Shift_2
Note_On_75_Vel_55
Time_Shift_164
Note_On_76_Vel_0
Time_Shift_10
Note_On_76_Vel_54
Time_Shift_151
Note_On_75_Vel_0
Time_Shift_7
Note_On_66_Vel_33
Time_Shift_4
Note_On_75_Vel_55
Time_Shift_5
Note_On_59_Vel_29
Time_Shift_2
Note_On_63_Vel_29
Time_Shift_8
Sustain_Off
Time_Shift_5
Note_On_47_Vel_0
Time_Shift_5
Note_On_78_Vel_0
Time_Shift_4
Note_On_79_Vel_0
Time_Shift_22
Note_On_76_Vel_0
Time_Shift_119
Note_On_72_Vel_56
Time_Shift_42
Sustain_On
Time_Shift_115
Note_On_75_Vel_0
Time_Shift_22
Note_On_71_Vel_54
Time_Shift_9
Note_On_54_Vel_0
Time_Shift_7
Note_On_54_Vel_26
Time_Shift_166
Note_On_69_Vel_51
Time_Shift_146
Note_On_59_Vel_0
Time_Shift_4
Note_On_71_Vel_0
Time_Shift_1
Sustain_Off
Time_Shift_1
Note_On_72_Vel_0
Time_Shift_1
Note_On_63_Vel_0
Time_Shift_51
Note_On_69_Vel_0
Time_Shift_1
Note_On_71_Vel_48
Time_Shift_137
Sustain_On
Time_Shift_73
Note_On_72_Vel_45
Time_Shift_57
Note_On_66_Vel_0
Time_Shift_150
Note_On_66_Vel_38
Time_Shift_11
Note_On_54_Vel_0
Time_Shift_5
Note_On_54_Vel_27
Time_Shift_203
Note_On_71_Vel_0
Time_Shift_6
Note_On_71_Vel_44
Time_Shift_227
Sustain_Off
Time_Shift_1
Note_On_67_Vel_42
Time_Shift_2
Note_On_71_Vel_0
Time_Shift_1
Note_On_66_Vel_0
Note_On_54_Vel_0
Note_On_72_Vel_0
Time_Shift_5
Note_On_35_Vel_41
Time_Shift_126
Sustain_On
Time_Shift_160
Note_On_70_Vel_51
Time_Shift_212
Note_On_71_Vel_52
Time_Shift_1
Note_On_55_Vel_36
Time_Shift_176
Note_On_73_Vel_60
Time_Shift_178
Note_On_75_Vel_61
Time_Shift_158
Note_On_76_Vel_56
Time_Shift_168
Note_On_55_Vel_0
Time_Shift_4
Note_On_78_Vel_62
Time_Shift_7
Note_On_55_Vel_33
Time_Shift_176
Note_On_79_Vel_64
Time_Shift_177
Note_On_82_Vel_62
Time_Shift_6
Note_On_70_Vel_0
Note_On_75_Vel_0
Time_Shift_1
Note_On_78_Vel_0
Note_On_73_Vel_0
Note_On_67_Vel_0
Note_On_71_Vel_0
Note_On_76_Vel_0
Time_Shift_1
Note_On_79_Vel_0
Time_Shift_1
Note_On_64_Vel_40
Time_Shift_3
Note_On_55_Vel_0
Sustain_Off
Time_Shift_8
Note_On_35_Vel_0
Time_Shift_3
Note_On_55_Vel_26
Time_Shift_2
Note_On_59_Vel_32
Time_Shift_117
Sustain_On
Time_Shift_59
Note_On_84_Vel_54
Time_Shift_172
Note_On_55_Vel_0
Time_Shift_10
Note_On_83_Vel_55
Time_Shift_1
Note_On_55_Vel_33
Time_Shift_182
Note_On_87_Vel_58
Time_Shift_189
Note_On_88_Vel_63
Time_Shift_191
Note_On_90_Vel_64
Time_Shift_195
Note_On_55_Vel_0
Time_Shift_2
Note_On_91_Vel_50
Time_Shift_2
Note_On_55_Vel_28
Time_Shift_223
Note_On_94_Vel_55
Time_Shift_240
Note_On_47_Vel_34
Note_On_96_Vel_60
Time_Shift_17
Sustain_Off
Time_Shift_3
Note_On_87_Vel_0
Note_On_90_Vel_0
Note_On_59_Vel_0
Note_On_55_Vel_0
Note_On_82_Vel_0
Note_On_91_Vel_0
Time_Shift_1
Note_On_64_Vel_0
Note_On_83_Vel_0
Note_On_84_Vel_0
Note_On_88_Vel_0
Time_Shift_165
Note_On_94_Vel_0
Time_Shift_30
Sustain_On
Time_Shift_91
Note_On_99_Vel_64
Time_Shift_243
Note_On_97_Vel_56
Time_Shift_15
Note_On_54_Vel_30
Time_Shift_20
Note_On_96_Vel_0
Time_Shift_169
Note_On_47_Vel_0
Time_Shift_11
Note_On_95_Vel_61
Time_Shift_202
Note_On_92_Vel_59
Time_Shift_190
Note_On_88_Vel_46
Time_Shift_179
Note_On_85_Vel_40
Time_Shift_17
Note_On_54_Vel_0
Time_Shift_8
Note_On_54_Vel_22
Time_Shift_179
Note_On_83_Vel_45
Time_Shift_192
Note_On_80_Vel_49
Time_Shift_13
Note_On_99_Vel_0
Time_Shift_15
Note_On_64_Vel_30
Time_Shift_202
Note_On_76_Vel_37
Time_Shift_186
Note_On_73_Vel_47
Time_Shift_42
Note_On_54_Vel_0
Time_Shift_8
Note_On_54_Vel_26
Time_Shift_172
Note_On_71_Vel_48
Time_Shift_208
Note_On_68_Vel_43
Time_Shift_242
Note_On_64_Vel_0
Time_Shift_9
Note_On_64_Vel_43
Time_Shift_275
Note_On_54_Vel_0
Time_Shift_11
Note_On_54_Vel_25
Note_On_61_Vel_33
Time_Shift_4
Note_On_73_Vel_0
Time_Shift_1
Note_On_97_Vel_0
Time_Shift_1
Note_On_80_Vel_0
Note_On_85_Vel_0
Note_On_95_Vel_0
Note_On_88_Vel_0
Note_On_76_Vel_0
Time_Shift_1
Note_On_92_Vel_0
Note_On_64_Vel_0
Note_On_68_Vel_0
Time_Shift_1
Note_On_83_Vel_0
Note_On_71_Vel_0
Time_Shift_4
Sustain_Off
Time_Shift_215
Sustain_On
Time_Shift_131
Note_On_54_Vel_0
Time_Shift_10
Note_On_54_Vel_32
Time_Shift_423
Note_On_54_Vel_0
Note_On_61_Vel_0
Time_Shift_1
Note_On_75_Vel_43
Time_Shift_1
Sustain_Off
Time_Shift_16
Note_On_35_Vel_23
Time_Shift_171
Sustain_On
Time_Shift_100
Note_On_35_Vel_0
Time_Shift_257
Note_On_54_Vel_37
Time_Shift_764
Note_On_54_Vel_0
Time_Shift_4
Note_On_54_Vel_22
Time_Shift_343
Note_On_66_Vel_26
Time_Shift_3
Note_On_59_Vel_35
Time_Shift_2
Note_On_63_Vel_24
Time_Shift_1
Note_On_54_Vel_0
Time_Shift_9
Note_On_54_Vel_24
Time_Shift_214
Note_On_76_Vel_43
Time_Shift_177
Note_On_75_Vel_0
Time_Shift_5
Note_On_75_Vel_48
Time_Shift_18
Note_On_54_Vel_0
Time_Shift_4
Note_On_54_Vel_23
Time_Shift_175
Note_On_73_Vel_56
Time_Shift_174
Note_On_75_Vel_0
Time_Shift_8
Note_On_54_Vel_0
Note_On_75_Vel_51
Time_Shift_11
Note_On_54_Vel_19
Time_Shift_204
Note_On_76_Vel_0
Time_Shift_5
Note_On_76_Vel_48
Time_Shift_210
Note_On_54_Vel_0
Time_Shift_8
Note_On_78_Vel_43
Note_On_54_Vel_27
Time_Shift_23
Note_On_63_Vel_0
Note_On_59_Vel_0
Time_Shift_1
Note_On_76_Vel_0
Note_On_75_Vel_0
Time_Shift_1
Note_On_73_Vel_0
Sustain_Off
Time_Shift_113
Sustain_On
Time_Shift_123
Note_On_66_Vel_0
Time_Shift_7
Note_On_66_Vel_33
Time_Shift_287
Sustain_Off
Note_On_66_Vel_0
Time_Shift_3
Note_On_78_Vel_0
Time_Shift_6
Note_On_75_Vel_42
Time_Shift_4
Note_On_54_Vel_0
Time_Shift_2
Note_On_47_Vel_25
Time_Shift_128
Sustain_On
Time_Shift_403
Note_On_54_Vel_33
Time_Shift_857
Note_On_54_Vel_0
Time_Shift_10
Note_On_54_Vel_31
Time_Shift_492
Note_On_66_Vel_32
Time_Shift_17
Note_On_59_Vel_29
Time_Shift_12
Note_On_63_Vel_23
Note_On_71_Vel_29
Time_Shift_277
Note_On_76_Vel_43
Time_Shift_259
Note_On_54_Vel_0
Note_On_75_Vel_0
Time_Shift_8
Note_On_75_Vel_42
Time_Shift_3
Note_On_68_Vel_40
Time_Shift_1
Note_On_54_Vel_21
Time_Shift_272
Note_On_73_Vel_45
Time_Shift_246
Note_On_75_Vel_0
Time_Shift_5
Note_On_75_Vel_44
Time_Shift_218
Note_On_76_Vel_0
Time_Shift_11
Note_On_76_Vel_44
Time_Shift_242
Note_On_66_Vel_0
Time_Shift_5
Note_On_66_Vel_30
Time_Shift_2
Note_On_78_Vel_40
Time_Shift_9
Note_On_76_Vel_0
Time_Shift_9
Note_On_76_Vel_28
Time_Shift_15
Sustain_Off
Time_Shift_10
Note_On_47_Vel_0
Note_On_63_Vel_0
Note_On_54_Vel_0
Note_On_59_Vel_0
Note_On_73_Vel_0
Note_On_75_Vel_0
Time_Shift_1
Note_On_68_Vel_0
Time_Shift_19
Note_On_71_Vel_0
Time_Shift_76
Sustain_On
Time_Shift_8
Note_On_76_Vel_0
Time_Shift_135
Note_On_71_Vel_33
Time_Shift_318
Note_On_71_Vel_0
Time_Shift_1
Note_On_83_Vel_43
Time_Shift_3
Note_On_63_Vel_26
Time_Shift_1
Note_On_71_Vel_31
Time_Shift_14
Note_On_59_Vel_27
Time_Shift_9
Note_On_54_Vel_16
Time_Shift_44
Sustain_Off
Time_Shift_5
Note_On_66_Vel_0
Time_Shift_230
Sustain_On
Time_Shift_1316
Sustain_Off
Time_Shift_20
Note_On_59_Vel_0
Time_Shift_6
Note_On_54_Vel_0
Time_Shift_10
Note_On_78_Vel_0
Time_Shift_31
Note_On_71_Vel_0
Time_Shift_7
Note_On_83_Vel_0
Time_Shift_8
Note_On_63_Vel_0
Time_Shift_592
Note_On_63_Vel_47
Time_Shift_6
Note_On_59_Vel_39
Time_Shift_6
Note_On_54_Vel_30
Time_Shift_2
Note_On_47_Vel_28
Time_Shift_224
Sustain_On
Time_Shift_806
Note_On_54_Vel_0
Note_On_63_Vel_0
Time_Shift_4
Note_On_63_Vel_55
Note_On_54_Vel_40
Time_Shift_7
Note_On_42_Vel_38
Time_Shift_1
Note_On_58_Vel_45
Time_Shift_116
Sustain_Off
Time_Shift_17
Note_On_59_Vel_0
Time_Shift_32
Note_On_47_Vel_0
Time_Shift_164
Note_On_66_Vel_55
Time_Shift_38
Note_On_63_Vel_0
Time_Shift_230
Note_On_64_Vel_57
Time_Shift_151
Sustain_On
Time_Shift_441
Note_On_63_Vel_52
Time_Shift_204
Note_On_63_Vel_0
Time_Shift_4
Note_On_63_Vel_39
Time_Shift_19
Note_On_54_Vel_0
Time_Shift_3
Note_On_47_Vel_28
Time_Shift_2
Note_On_59_Vel_34
Time_Shift_2
Note_On_54_Vel_26
Time_Shift_37
Note_On_66_Vel_0
Time_Shift_2
Note_On_64_Vel_0
Time_Shift_4
Note_On_42_Vel_0
Sustain_Off
Time_Shift_4
Note_On_58_Vel_0
Time_Shift_315
Sustain_On
Time_Shift_1210
Sustain_Off
Time_Shift_4
Note_On_59_Vel_0
Time_Shift_3
Note_On_63_Vel_0
Time_Shift_1
Note_On_47_Vel_0
Time_Shift_42
Note_On_54_Vel_0
Time_Shift_404
Note_On_63_Vel_33
Time_Shift_21
Note_On_59_Vel_28
Note_On_47_Vel_23
Time_Shift_1
Note_On_54_Vel_21
Time_Shift_342
Sustain_On
Time_Shift_1006
Note_On_63_Vel_0
Time_Shift_7
Note_On_59_Vel_0
Time_Shift_2
Note_On_63_Vel_38
Time_Shift_2
Note_On_56_Vel_28
Time_Shift_3
Note_On_59_Vel_33
Time_Shift_25
Note_On_52_Vel_22
Time_Shift_8
Note_On_40_Vel_16
Time_Shift_26
Sustain_Off
Time_Shift_4
Note_On_54_Vel_0
Time_Shift_283
Note_On_66_Vel_37
Time_Shift_49
Note_On_63_Vel_0
Time_Shift_239
Note_On_64_Vel_38
Time_Shift_16
Note_On_66_Vel_0
Time_Shift_196
Sustain_On
Time_Shift_446
Note_On_63_Vel_42
Time_Shift_199
Note_On_63_Vel_0
Time_Shift_6
Note_On_63_Vel_27
Time_Shift_2
Note_On_59_Vel_0
Time_Shift_4
Note_On_59_Vel_33
Time_Shift_19
Note_On_47_Vel_0
Time_Shift_11
Note_On_47_Vel_25
Time_Shift_6
Note_On_54_Vel_25
Time_Shift_2
Sustain_Off
Time_Shift_20
Note_On_52_Vel_0
Time_Shift_1
Note_On_40_Vel_0
Note_On_64_Vel_0
Time_Shift_2
Note_On_56_Vel_0
Time_Shift_280
Sustain_On
Time_Shift_953
Note_On_63_Vel_0
Time_Shift_5
Note_On_63_Vel_39
Time_Shift_111
Sustain_Off
Time_Shift_37
Note_On_59_Vel_0
Time_Shift_54
Note_On_47_Vel_0
Note_On_54_Vel_0
Time_Shift_167
Note_On_71_Vel_44
Time_Shift_61
Note_On_63_Vel_0
Time_Shift_328
Note_On_66_Vel_30
Time_Shift_16
Note_On_71_Vel_0
Time_Shift_227
Sustain_On
Time_Shift_583
Note_On_63_Vel_37
Time_Shift_215
Note_On_63_Vel_0
Time_Shift_6
Note_On_59_Vel_35
Time_Shift_4
Note_On_63_Vel_27
Time_Shift_40
Note_On_42_Vel_21
Note_On_54_Vel_18
Time_Shift_31
Sustain_Off
Time_Shift_296
Sustain_On
Time_Shift_1018
Note_On_61_Vel_24
Time_Shift_10
Note_On_58_Vel_25
Time_Shift_1
Note_On_54_Vel_0
Time_Shift_7
Sustain_Off
Time_Shift_3
Note_On_54_Vel_14
Time_Shift_14
Note_On_59_Vel_0
Time_Shift_3
Note_On_63_Vel_0
Time_Shift_3
Note_On_42_Vel_0
Time_Shift_6
Note_On_42_Vel_17
Time_Shift_2
Note_On_30_Vel_20
Time_Shift_346
Sustain_On
Time_Shift_368
Note_On_66_Vel_0
Time_Shift_1114
Note_On_54_Vel_0
Time_Shift_2
Note_On_63_Vel_32
Time_Shift_2
Note_On_35_Vel_21
Time_Shift_1
Note_On_59_Vel_23
Time_Shift_2
Note_On_47_Vel_19
Time_Shift_3
Note_On_54_Vel_17
Time_Shift_11
Note_On_30_Vel_0
Time_Shift_3
Sustain_Off
Time_Shift_3
Note_On_58_Vel_0
Note_On_42_Vel_0
Time_Shift_1
Note_On_61_Vel_0
Time_Shift_1396
Note_On_35_Vel_0
Note_On_47_Vel_0
Time_Shift_1
Note_On_59_Vel_0
Time_Shift_1
Note_On_54_Vel_0
Time_Shift_1
Note_On_63_Vel_0
