Ticks_Per_Beat_384
Tempo_500000
Time_Shift_7
Sustain_On
Time_Shift_2865
Sustain_Off
Time_Shift_42
Note_On_74_Vel_69
Time_Shift_250
Sustain_On
Time_Shift_593
Note_On_43_Vel_42
Time_Shift_52
Sustain_Off
Time_Shift_153
Sustain_On
Time_Shift_475
Note_On_72_Vel_61
Time_Shift_23
Note_On_62_Vel_34
Time_Shift_8
Note_On_50_Vel_33
Time_Shift_294
Note_On_70_Vel_73
Time_Shift_134
Note_On_69_Vel_65
Time_Shift_72
Note_On_70_Vel_0
Time_Shift_9
Note_On_70_Vel_65
Time_Shift_61
Note_On_72_Vel_0
Time_Shift_4
Note_On_72_Vel_63
Time_Shift_18
Sustain_Off
Time_Shift_4
Note_On_69_Vel_0
Note_On_43_Vel_0
Time_Shift_1
Note_On_50_Vel_0
Note_On_62_Vel_0
Time_Shift_34
Note_On_70_Vel_0
Note_On_74_Vel_0
Time_Shift_10
Note_On_63_Vel_44
Time_Shift_1
Note_On_60_Vel_44
Note_On_70_Vel_60
Time_Shift_3
Note_On_54_Vel_34
Time_Shift_23
Note_On_72_Vel_0
Time_Shift_147
Sustain_On
Time_Shift_286
Note_On_69_Vel_53
Time_Shift_244
Note_On_50_Vel_28
Time_Shift_7
Note_On_62_Vel_43
Time_Shift_24
Sustain_Off
Time_Shift_2
Note_On_60_Vel_0
Note_On_69_Vel_0
Note_On_54_Vel_0
Note_On_63_Vel_0
Time_Shift_1
Note_On_70_Vel_0
Time_Shift_105
Sustain_On
Time_Shift_500
Note_On_63_Vel_50
Time_Shift_14
Note_On_50_Vel_0
Time_Shift_11
Note_On_62_Vel_0
Time_Shift_7
Sustain_Off
Time_Shift_11
Note_On_58_Vel_30
Time_Shift_32
Note_On_55_Vel_29
Time_Shift_116
Sustain_On
Time_Shift_257
Note_On_70_Vel_66
Time_Shift_211
Note_On_70_Vel_0
Time_Shift_6
Note_On_70_Vel_60
Time_Shift_36
Sustain_Off
Note_On_50_Vel_32
Time_Shift_3
Note_On_62_Vel_37
Time_Shift_1
Sustain_On
Time_Shift_190
Note_On_69_Vel_65
Time_Shift_183
Note_On_67_Vel_61
Time_Shift_180
Note_On_63_Vel_0
Time_Shift_3
Note_On_69_Vel_0
Time_Shift_1
Note_On_50_Vel_0
Time_Shift_1
Note_On_70_Vel_0
Time_Shift_1
Note_On_62_Vel_0
Note_On_58_Vel_0
Note_On_55_Vel_0
Time_Shift_1
Sustain_Off
Time_Shift_3
Note_On_67_Vel_0
Time_Shift_1
Note_On_63_Vel_40
Time_Shift_2
Note_On_66_Vel_45
Time_Shift_22
Note_On_60_Vel_36
Time_Shift_15
Note_On_57_Vel_33
Time_Shift_196
Sustain_On
Time_Shift_433
Note_On_62_Vel_35
Note_On_50_Vel_27
Time_Shift_7
Sustain_Off
Time_Shift_4
Note_On_60_Vel_0
Time_Shift_1
Note_On_63_Vel_0
Note_On_57_Vel_0
Time_Shift_215
Sustain_On
Time_Shift_469
Note_On_67_Vel_61
Note_On_43_Vel_28
Time_Shift_17
Note_On_62_Vel_0
Time_Shift_3
Note_On_50_Vel_0
Time_Shift_11
Note_On_66_Vel_0
Sustain_Off
Time_Shift_146
Sustain_On
Time_Shift_417
Note_On_69_Vel_59
Time_Shift_10
Note_On_62_Vel_36
Time_Shift_8
Note_On_58_Vel_30
Time_Shift_2
Note_On_55_Vel_28
Time_Shift_259
Note_On_70_Vel_68
Time_Shift_247
Note_On_67_Vel_0
Time_Shift_1
Note_On_58_Vel_0
Time_Shift_1
Note_On_62_Vel_0
Note_On_69_Vel_0
Note_On_55_Vel_0
Time_Shift_1
Note_On_70_Vel_0
Note_On_43_Vel_0
Time_Shift_5
Sustain_Off
Time_Shift_19
Note_On_72_Vel_64
Time_Shift_9
Note_On_36_Vel_26
Time_Shift_119
Sustain_On
Time_Shift_407
Note_On_74_Vel_72
Time_Shift_12
Note_On_63_Vel_39
Time_Shift_12
Note_On_55_Vel_32
Time_Shift_20
Note_On_60_Vel_26
Time_Shift_242
Note_On_75_Vel_82
Time_Shift_286
Note_On_55_Vel_0
Time_Shift_3
Note_On_60_Vel_0
Note_On_74_Vel_0
Note_On_69_Vel_73
Time_Shift_1
Note_On_63_Vel_0
Time_Shift_2
Note_On_72_Vel_0
Time_Shift_1
Note_On_75_Vel_0
Time_Shift_5
Note_On_36_Vel_0
Time_Shift_12
Note_On_41_Vel_42
Sustain_Off
Time_Shift_141
Sustain_On
Time_Shift_131
Note_On_41_Vel_0
Time_Shift_313
Note_On_67_Vel_53
Time_Shift_13
Note_On_63_Vel_48
Time_Shift_488
Note_On_69_Vel_0
Time_Shift_6
Note_On_69_Vel_21
Time_Shift_43
Note_On_65_Vel_34
Time_Shift_45
Note_On_62_Vel_42
Time_Shift_12
Sustain_Off
Time_Shift_2
Note_On_67_Vel_0
Note_On_63_Vel_0
Time_Shift_168
Sustain_On
Time_Shift_427
Note_On_79_Vel_58
Time_Shift_211
Note_On_79_Vel_0
Time_Shift_6
Note_On_79_Vel_52
Time_Shift_10
Note_On_63_Vel_31
Time_Shift_10
Sustain_Off
Time_Shift_9
Note_On_62_Vel_0
Time_Shift_1
Note_On_65_Vel_0
Time_Shift_6
Note_On_60_Vel_24
Time_Shift_19
Note_On_69_Vel_0
Time_Shift_131
Sustain_On
Time_Shift_65
Note_On_77_Vel_54
Time_Shift_215
Note_On_75_Vel_58
Time_Shift_198
Sustain_Off
Time_Shift_1
Note_On_77_Vel_0
Note_On_60_Vel_0
Note_On_63_Vel_0
Time_Shift_3
Note_On_75_Vel_0
Time_Shift_6
Note_On_74_Vel_48
Time_Shift_3
Note_On_79_Vel_0
Time_Shift_25
Note_On_58_Vel_16
Time_Shift_1
Note_On_46_Vel_13
Time_Shift_166
Sustain_On
Time_Shift_434
Note_On_62_Vel_53
Time_Shift_88
Note_On_62_Vel_0
Time_Shift_11
Note_On_62_Vel_60
Time_Shift_94
Note_On_65_Vel_52
Time_Shift_93
Note_On_70_Vel_68
Time_Shift_133
Note_On_74_Vel_0
Time_Shift_7
Note_On_74_Vel_72
Time_Shift_2
Note_On_53_Vel_43
Time_Shift_257
Note_On_72_Vel_71
Time_Shift_179
Note_On_70_Vel_0
Time_Shift_11
Note_On_70_Vel_69
Time_Shift_127
Note_On_60_Vel_57
Time_Shift_46
Note_On_62_Vel_0
Time_Shift_12
Note_On_62_Vel_60
Time_Shift_63
Note_On_66_Vel_53
Time_Shift_20
Sustain_Off
Time_Shift_1
Note_On_65_Vel_0
Time_Shift_35
Note_On_53_Vel_0
Time_Shift_23
Note_On_70_Vel_0
Time_Shift_9
Note_On_70_Vel_64
Time_Shift_106
Sustain_On
Time_Shift_324
Note_On_69_Vel_57
Time_Shift_257
Note_On_50_Vel_47
Time_Shift_541
Note_On_58_Vel_0
Time_Shift_7
Note_On_72_Vel_0
Note_On_58_Vel_39
Time_Shift_23
Note_On_62_Vel_0
Time_Shift_11
Note_On_62_Vel_39
Time_Shift_52
Note_On_67_Vel_38
Time_Shift_12
Note_On_69_Vel_0
Note_On_66_Vel_0
Time_Shift_2
Note_On_74_Vel_0
Time_Shift_2
Sustain_Off
Note_On_60_Vel_0
Time_Shift_1
Note_On_70_Vel_0
Time_Shift_51
Note_On_46_Vel_0
Time_Shift_6
Note_On_43_Vel_28
Time_Shift_7
Note_On_70_Vel_54
Time_Shift_133
Sustain_On
Time_Shift_445
Note_On_70_Vel_0
Time_Shift_6
Note_On_70_Vel_56
Time_Shift_179
Note_On_70_Vel_0
Time_Shift_3
Note_On_70_Vel_46
Time_Shift_57
Note_On_72_Vel_54
Time_Shift_55
Note_On_70_Vel_0
Time_Shift_9
Note_On_70_Vel_61
Time_Shift_14
Note_On_50_Vel_0
Time_Shift_5
Sustain_Off
Time_Shift_6
Note_On_50_Vel_27
Time_Shift_1
Note_On_58_Vel_0
Note_On_67_Vel_0
Time_Shift_6
Note_On_72_Vel_0
Time_Shift_143
Sustain_On
Time_Shift_92
Note_On_62_Vel_0
Time_Shift_21
Note_On_69_Vel_60
Time_Shift_205
Note_On_67_Vel_63
Time_Shift_189
Note_On_66_Vel_51
Time_Shift_13
Sustain_Off
Time_Shift_7
Note_On_69_Vel_0
Note_On_60_Vel_31
Time_Shift_2
Note_On_57_Vel_32
Time_Shift_3
Note_On_63_Vel_29
Time_Shift_4
Note_On_67_Vel_0
Time_Shift_2
Note_On_70_Vel_0
Time_Shift_15
Note_On_43_Vel_0
Time_Shift_23
Note_On_50_Vel_0
Time_Shift_161
Sustain_On
Time_Shift_452
Note_On_62_Vel_36
Time_Shift_11
Note_On_50_Vel_23
Time_Shift_23
Sustain_Off
Time_Shift_2
Note_On_57_Vel_0
Time_Shift_1
Note_On_63_Vel_0
Note_On_60_Vel_0
Time_Shift_226
Sustain_On
Time_Shift_466
Note_On_66_Vel_0
Time_Shift_1
Note_On_62_Vel_0
Time_Shift_4
Note_On_50_Vel_0
Time_Shift_2
Sustain_Off
Time_Shift_15
Note_On_67_Vel_50
Time_Shift_24
Note_On_63_Vel_34
Time_Shift_3
Note_On_58_Vel_24
Time_Shift_2
Note_On_51_Vel_26
Time_Shift_174
Sustain_On
Time_Shift_408
Note_On_69_Vel_47
Time_Shift_7
Note_On_62_Vel_37
Time_Shift_2
Note_On_58_Vel_0
Time_Shift_1
Note_On_63_Vel_0
Sustain_Off
Time_Shift_1
Note_On_51_Vel_0
Time_Shift_2
Note_On_67_Vel_0
Time_Shift_11
Note_On_46_Vel_20
Time_Shift_159
Sustain_On
Time_Shift_332
Note_On_70_Vel_57
Time_Shift_179
Note_On_72_Vel_55
Time_Shift_7
Note_On_62_Vel_0
Note_On_46_Vel_0
Note_On_70_Vel_0
Time_Shift_1
Note_On_69_Vel_0
Sustain_Off
Time_Shift_9
Note_On_60_Vel_32
Time_Shift_13
Note_On_45_Vel_31
Time_Shift_1
Note_On_51_Vel_25
Time_Shift_6
Note_On_67_Vel_29
Time_Shift_136
Sustain_On
Time_Shift_497
Note_On_74_Vel_45
Time_Shift_10
Note_On_60_Vel_0
Time_Shift_3
Note_On_67_Vel_0
Note_On_72_Vel_0
Note_On_45_Vel_0
Note_On_50_Vel_22
Note_On_51_Vel_0
Time_Shift_1
Sustain_Off
Time_Shift_12
Note_On_38_Vel_19
Time_Shift_2
Note_On_66_Vel_17
Time_Shift_1
Note_On_62_Vel_19
Time_Shift_180
Sustain_On
Time_Shift_565
Note_On_67_Vel_45
Time_Shift_23
Sustain_Off
Time_Shift_7
Note_On_66_Vel_0
Note_On_74_Vel_0
Time_Shift_1
Note_On_38_Vel_0
Time_Shift_2
Note_On_50_Vel_0
Time_Shift_1
Note_On_62_Vel_0
Time_Shift_10
Note_On_43_Vel_26
Time_Shift_259
Sustain_On
Time_Shift_369
Note_On_58_Vel_32
Time_Shift_2
Note_On_62_Vel_23
Time_Shift_10
Note_On_55_Vel_23
Time_Shift_541
Note_On_67_Vel_0
Time_Shift_5
Note_On_67_Vel_49
Time_Shift_202
Note_On_67_Vel_0
Time_Shift_11
Note_On_67_Vel_39
Note_On_58_Vel_0
Time_Shift_1
Note_On_62_Vel_0
Sustain_Off
Note_On_55_Vel_0
Time_Shift_1
Note_On_43_Vel_0
Time_Shift_12
Note_On_41_Vel_23
Time_Shift_90
Sustain_On
Time_Shift_105
Note_On_69_Vel_47
Time_Shift_110
Note_On_69_Vel_0
Time_Shift_4
Note_On_69_Vel_54
Time_Shift_58
Note_On_70_Vel_39
Time_Shift_53
Note_On_69_Vel_0
Time_Shift_8
Note_On_69_Vel_58
Time_Shift_62
Note_On_70_Vel_0
Time_Shift_6
Note_On_70_Vel_43
Time_Shift_32
Note_On_69_Vel_0
Time_Shift_11
Note_On_69_Vel_58
Time_Shift_50
Note_On_70_Vel_0
Time_Shift_12
Note_On_70_Vel_59
Time_Shift_42
Note_On_69_Vel_0
Time_Shift_4
Note_On_69_Vel_56
Time_Shift_58
Note_On_70_Vel_0
Time_Shift_8
Note_On_70_Vel_42
Time_Shift_31
Note_On_63_Vel_38
Time_Shift_7
Note_On_69_Vel_0
Time_Shift_4
Note_On_60_Vel_28
Time_Shift_1
Note_On_69_Vel_59
Time_Shift_10
Note_On_53_Vel_27
Time_Shift_54
Note_On_70_Vel_0
Time_Shift_10
Note_On_70_Vel_57
Time_Shift_51
Note_On_69_Vel_0
Time_Shift_11
Note_On_69_Vel_53
Time_Shift_35
Note_On_70_Vel_0
Time_Shift_11
Note_On_70_Vel_40
Time_Shift_43
Note_On_69_Vel_0
Time_Shift_5
Note_On_69_Vel_57
Time_Shift_49
Note_On_70_Vel_0
Time_Shift_11
Note_On_70_Vel_62
Time_Shift_81
Note_On_69_Vel_0
Time_Shift_4
Note_On_69_Vel_54
Time_Shift_111
Note_On_67_Vel_0
Time_Shift_10
Note_On_67_Vel_57
Time_Shift_105
Note_On_69_Vel_0
Time_Shift_11
Note_On_69_Vel_68
Time_Shift_157
Note_On_41_Vel_0
Time_Shift_2
Note_On_70_Vel_0
Note_On_63_Vel_0
Time_Shift_2
Note_On_60_Vel_0
Note_On_67_Vel_0
Time_Shift_1
Sustain_Off
Time_Shift_58
Note_On_69_Vel_0
Time_Shift_10
Note_On_62_Vel_40
Note_On_70_Vel_63
Time_Shift_17
Note_On_58_Vel_28
Time_Shift_180
Sustain_On
Time_Shift_451
Note_On_71_Vel_58
Time_Shift_17
Sustain_Off
Time_Shift_13
Note_On_70_Vel_0
Time_Shift_72
Sustain_On
Time_Shift_519
Sustain_Off
Time_Shift_3
Note_On_58_Vel_0
Time_Shift_4
Note_On_63_Vel_41
Time_Shift_13
Note_On_57_Vel_39
Time_Shift_6
Note_On_53_Vel_0
Time_Shift_16
Note_On_62_Vel_0
Time_Shift_169
Sustain_On
Time_Shift_95
Note_On_72_Vel_66
Time_Shift_58
Note_On_71_Vel_0
Time_Shift_210
Note_On_65_Vel_48
Time_Shift_11
Note_On_53_Vel_39
Time_Shift_313
Note_On_73_Vel_69
Time_Shift_201
Note_On_62_Vel_46
Time_Shift_7
Note_On_58_Vel_44
Time_Shift_3
Note_On_65_Vel_0
Time_Shift_2
Note_On_72_Vel_0
Time_Shift_1
Sustain_Off
Note_On_63_Vel_0
Time_Shift_1
Note_On_57_Vel_0
Time_Shift_4
Note_On_70_Vel_43
Time_Shift_36
Note_On_74_Vel_67
Time_Shift_29
Note_On_73_Vel_0
Time_Shift_89
Sustain_On
Time_Shift_92
Note_On_74_Vel_0
Time_Shift_4
Note_On_74_Vel_56
Time_Shift_73
Note_On_70_Vel_0
Time_Shift_38
Note_On_74_Vel_0
Time_Shift_6
Note_On_74_Vel_34
Time_Shift_83
Note_On_75_Vel_71
Time_Shift_80
Note_On_74_Vel_0
Time_Shift_9
Note_On_74_Vel_61
Time_Shift_67
Note_On_73_Vel_64
Time_Shift_77
Note_On_74_Vel_0
Time_Shift_4
Note_On_74_Vel_71
Time_Shift_74
Note_On_75_Vel_0
Time_Shift_2
Sustain_Off
Time_Shift_13
Note_On_73_Vel_0
Time_Shift_21
Note_On_79_Vel_64
Time_Shift_13
Note_On_74_Vel_0
Time_Shift_27
Note_On_65_Vel_24
Time_Shift_115
Sustain_On
Time_Shift_303
Note_On_77_Vel_66
Time_Shift_158
Note_On_63_Vel_40
Note_On_77_Vel_0
Time_Shift_4
Note_On_77_Vel_56
Time_Shift_8
Note_On_57_Vel_36
Time_Shift_11
Note_On_58_Vel_0
Time_Shift_2
Note_On_79_Vel_0
Time_Shift_1
Note_On_62_Vel_0
Time_Shift_6
Sustain_Off
Time_Shift_191
Sustain_On
Time_Shift_61
Note_On_53_Vel_0
Time_Shift_156
Note_On_72_Vel_63
Time_Shift_244
Note_On_65_Vel_0
Time_Shift_4
Note_On_53_Vel_39
Time_Shift_1
Note_On_65_Vel_36
Time_Shift_462
Note_On_73_Vel_65
Time_Shift_255
Note_On_74_Vel_67
Time_Shift_15
Note_On_65_Vel_0
Time_Shift_2
Note_On_53_Vel_0
Time_Shift_2
Note_On_58_Vel_36
Note_On_65_Vel_33
Note_On_62_Vel_33
Note_On_72_Vel_0
Time_Shift_1
Note_On_63_Vel_0
Time_Shift_1
Note_On_57_Vel_0
Time_Shift_5
Note_On_73_Vel_0
Time_Shift_12
Note_On_77_Vel_0
Time_Shift_2
Sustain_Off
Time_Shift_182
Sustain_On
Time_Shift_458
Note_On_75_Vel_59
Time_Shift_1
Note_On_67_Vel_39
Time_Shift_22
Sustain_Off
Time_Shift_1
Note_On_74_Vel_0
Time_Shift_10
Note_On_65_Vel_0
Time_Shift_100
Sustain_On
Time_Shift_484
Note_On_61_Vel_43
Time_Shift_8
Note_On_57_Vel_42
Time_Shift_24
Sustain_Off
Time_Shift_3
Note_On_58_Vel_0
Time_Shift_4
Note_On_62_Vel_0
Time_Shift_8
Note_On_75_Vel_0
Time_Shift_175
Sustain_On
Time_Shift_376
Note_On_67_Vel_0
Time_Shift_5
Note_On_76_Vel_71
Time_Shift_6
Note_On_67_Vel_50
Time_Shift_521
Note_On_57_Vel_0
Time_Shift_1
Note_On_67_Vel_0
Time_Shift_1
Note_On_61_Vel_0
Time_Shift_1
Note_On_76_Vel_0
Time_Shift_4
Sustain_Off
Time_Shift_3
Note_On_77_Vel_70
Time_Shift_4
Note_On_65_Vel_50
Time_Shift_3
Note_On_62_Vel_44
Time_Shift_143
Sustain_On
Time_Shift_123
Note_On_77_Vel_0
Time_Shift_5
Note_On_77_Vel_74
Time_Shift_103
Note_On_79_Vel_76
Time_Shift_76
Note_On_77_Vel_0
Time_Shift_9
Note_On_77_Vel_78
Time_Shift_82
Note_On_76_Vel_66
Time_Shift_70
Note_On_77_Vel_0
Time_Shift_5
Note_On_77_Vel_75
Time_Shift_1
Sustain_Off
Time_Shift_86
Note_On_77_Vel_0
Time_Shift_8
Note_On_79_Vel_0
Time_Shift_2
Note_On_77_Vel_51
Time_Shift_2
Note_On_62_Vel_0
Note_On_76_Vel_0
Time_Shift_1
Note_On_65_Vel_0
Time_Shift_27
Note_On_82_Vel_73
Time_Shift_6
Note_On_77_Vel_0
Time_Shift_5
Note_On_69_Vel_43
Time_Shift_1
Note_On_57_Vel_42
Time_Shift_171
Sustain_On
Time_Shift_317
Note_On_81_Vel_79
Time_Shift_159
Note_On_81_Vel_0
Time_Shift_3
Sustain_Off
Time_Shift_3
Note_On_81_Vel_69
Time_Shift_4
Note_On_82_Vel_0
Time_Shift_1
Note_On_67_Vel_47
Time_Shift_28
Note_On_61_Vel_34
Time_Shift_84
Note_On_69_Vel_0
Time_Shift_62
Sustain_On
Time_Shift_172
Note_On_75_Vel_78
Time_Shift_242
Note_On_57_Vel_0
Time_Shift_1
Note_On_69_Vel_62
Time_Shift_10
Note_On_57_Vel_52
Time_Shift_345
Note_On_76_Vel_71
Time_Shift_367
Note_On_77_Vel_72
Time_Shift_4
Note_On_75_Vel_0
Time_Shift_1
Note_On_67_Vel_0
Note_On_61_Vel_0
Time_Shift_1
Note_On_69_Vel_0
Time_Shift_1
Note_On_76_Vel_0
Note_On_81_Vel_0
Time_Shift_1
Note_On_57_Vel_0
Time_Shift_3
Note_On_50_Vel_46
Time_Shift_7
Sustain_Off
Time_Shift_204
Sustain_On
Time_Shift_460
Note_On_79_Vel_69
Time_Shift_3
Note_On_65_Vel_38
Time_Shift_9
Note_On_62_Vel_39
Time_Shift_1
Note_On_57_Vel_37
Time_Shift_556
Note_On_77_Vel_0
Time_Shift_6
Note_On_77_Vel_74
Time_Shift_163
Note_On_62_Vel_0
Note_On_65_Vel_0
Note_On_57_Vel_0
Time_Shift_1
Note_On_77_Vel_0
Note_On_79_Vel_0
Time_Shift_1
Note_On_50_Vel_0
Time_Shift_1
Sustain_Off
Time_Shift_15
Note_On_75_Vel_70
Time_Shift_5
Note_On_51_Vel_38
Time_Shift_215
Sustain_On
Time_Shift_404
Note_On_70_Vel_61
Time_Shift_12
Note_On_39_Vel_25
Time_Shift_3
Note_On_58_Vel_31
Note_On_67_Vel_35
Time_Shift_3
Note_On_39_Vel_0
Time_Shift_4
Note_On_55_Vel_30
Time_Shift_582
Note_On_72_Vel_61
Time_Shift_179
Sustain_Off
Note_On_70_Vel_0
Time_Shift_1
Note_On_58_Vel_0
Note_On_55_Vel_0
Time_Shift_1
Note_On_51_Vel_0
Note_On_67_Vel_0
Time_Shift_3
Note_On_75_Vel_0
Time_Shift_33
Note_On_74_Vel_58
Time_Shift_4
Note_On_72_Vel_0
Time_Shift_3
Note_On_46_Vel_25
Time_Shift_4
Note_On_58_Vel_24
Time_Shift_8
Note_On_58_Vel_0
Time_Shift_138
Sustain_On
Time_Shift_400
Note_On_74_Vel_0
Time_Shift_10
Note_On_74_Vel_60
Time_Shift_105
Note_On_74_Vel_0
Time_Shift_6
Note_On_74_Vel_60
Time_Shift_124
Note_On_77_Vel_53
Time_Shift_51
Note_On_53_Vel_25
Note_On_75_Vel_61
Time_Shift_22
Note_On_62_Vel_26
Time_Shift_1
Note_On_58_Vel_30
Time_Shift_556
Note_On_74_Vel_0
Time_Shift_5
Note_On_74_Vel_58
Time_Shift_155
Note_On_77_Vel_0
Note_On_58_Vel_0
Time_Shift_1
Note_On_53_Vel_0
Note_On_62_Vel_0
Sustain_Off
Note_On_46_Vel_0
Note_On_75_Vel_0
Time_Shift_3
Note_On_74_Vel_0
Time_Shift_15
Note_On_48_Vel_26
Time_Shift_2
Note_On_72_Vel_54
Time_Shift_4
Note_On_60_Vel_20
Time_Shift_138
Sustain_On
Time_Shift_549
Note_On_63_Vel_27
Note_On_67_Vel_47
Time_Shift_12
Note_On_60_Vel_0
Note_On_55_Vel_21
Time_Shift_17
Note_On_51_Vel_22
Time_Shift_10
Sustain_Off
Time_Shift_2
Note_On_72_Vel_0
Time_Shift_24
Note_On_48_Vel_0
Time_Shift_100
Sustain_On
Time_Shift_456
Note_On_69_Vel_50
Time_Shift_170
Note_On_63_Vel_0
Time_Shift_1
Note_On_55_Vel_0
Note_On_67_Vel_0
Time_Shift_1
Note_On_51_Vel_0
Time_Shift_2
Sustain_Off
Time_Shift_4
Note_On_69_Vel_0
Time_Shift_22
Note_On_43_Vel_26
Time_Shift_1
Note_On_70_Vel_48
Time_Shift_150
Sustain_On
Time_Shift_569
Note_On_69_Vel_51
Time_Shift_19
Note_On_58_Vel_28
Time_Shift_1
Note_On_62_Vel_26
Time_Shift_7
Note_On_55_Vel_22
Time_Shift_640
Note_On_70_Vel_0
Time_Shift_7
Note_On_70_Vel_53
Time_Shift_194
Sustain_Off
Time_Shift_9
Note_On_69_Vel_0
Note_On_58_Vel_0
Note_On_70_Vel_0
Time_Shift_1
Note_On_62_Vel_0
Note_On_55_Vel_0
Time_Shift_1
Note_On_72_Vel_50
Time_Shift_2
Note_On_39_Vel_23
Time_Shift_1
Note_On_43_Vel_0
Time_Shift_146
Sustain_On
Time_Shift_553
Note_On_72_Vel_0
Time_Shift_7
Note_On_72_Vel_43
Time_Shift_144
Note_On_74_Vel_45
Time_Shift_102
Note_On_72_Vel_0
Time_Shift_5
Note_On_72_Vel_46
Time_Shift_108
Note_On_60_Vel_19
Time_Shift_5
Sustain_Off
Time_Shift_9
Note_On_71_Vel_40
Time_Shift_2
Note_On_72_Vel_0
Time_Shift_1
Note_On_67_Vel_24
Note_On_74_Vel_0
Note_On_55_Vel_25
Time_Shift_24
Note_On_39_Vel_0
Time_Shift_184
Sustain_On
Time_Shift_2
Note_On_72_Vel_53
Time_Shift_186
Note_On_74_Vel_53
Time_Shift_167
Note_On_77_Vel_51
Time_Shift_58
Note_On_75_Vel_53
Time_Shift_107
Sustain_Off
Time_Shift_8
Note_On_71_Vel_0
Time_Shift_3
Note_On_60_Vel_0
Note_On_72_Vel_0
Time_Shift_1
Note_On_74_Vel_0
Time_Shift_1
Note_On_55_Vel_0
Time_Shift_1
Note_On_77_Vel_0
Time_Shift_4
Note_On_75_Vel_0
Time_Shift_8
Note_On_67_Vel_0
Time_Shift_26
Note_On_38_Vel_22
Time_Shift_3
Note_On_74_Vel_50
Time_Shift_147
Sustain_On
Time_Shift_387
Note_On_62_Vel_52
Time_Shift_43
Sustain_Off
Time_Shift_85
Sustain_On
Time_Shift_94
Note_On_66_Vel_39
Time_Shift_33
Note_On_69_Vel_35
Note_On_57_Vel_39
Time_Shift_633
Note_On_74_Vel_0
Time_Shift_6
Note_On_74_Vel_62
Time_Shift_228
Note_On_58_Vel_50
Time_Shift_1
Note_On_67_Vel_53
Time_Shift_41
Sustain_Off
Time_Shift_6
Note_On_66_Vel_0
Time_Shift_1
Note_On_57_Vel_0
Time_Shift_1
Note_On_62_Vel_0
Note_On_69_Vel_0
Time_Shift_1
Note_On_38_Vel_0
Time_Shift_114
Sustain_On
Time_Shift_177
Note_On_74_Vel_0
Time_Shift_86
Note_On_74_Vel_75
Time_Shift_385
Note_On_68_Vel_60
Time_Shift_1
Note_On_59_Vel_55
Time_Shift_4
Note_On_74_Vel_0
Time_Shift_5
Note_On_74_Vel_81
Time_Shift_19
Sustain_Off
Time_Shift_3
Note_On_58_Vel_0
Time_Shift_3
Note_On_67_Vel_0
Time_Shift_170
Sustain_On
Time_Shift_146
Note_On_74_Vel_0
Time_Shift_5
Note_On_74_Vel_82
Time_Shift_125
Note_On_69_Vel_62
Time_Shift_9
Note_On_60_Vel_57
Time_Shift_145
Note_On_74_Vel_0
Time_Shift_7
Note_On_74_Vel_85
Time_Shift_339
Note_On_74_Vel_0
Time_Shift_2
Note_On_31_Vel_75
Time_Shift_3
Note_On_74_Vel_80
Time_Shift_2
Note_On_43_Vel_67
Time_Shift_27
Sustain_Off
Time_Shift_7
Note_On_59_Vel_0
Note_On_69_Vel_0
Note_On_68_Vel_0
Time_Shift_1
Note_On_60_Vel_0
Time_Shift_173
Sustain_On
Time_Shift_431
Note_On_62_Vel_63
Time_Shift_2
Note_On_72_Vel_78
Time_Shift_1
Note_On_50_Vel_56
Time_Shift_527
Note_On_70_Vel_76
Time_Shift_106
Note_On_69_Vel_72
Time_Shift_62
Note_On_70_Vel_0
Time_Shift_9
Note_On_70_Vel_68
Time_Shift_67
Note_On_72_Vel_0
Time_Shift_7
Note_On_72_Vel_67
Time_Shift_70
Note_On_31_Vel_0
Note_On_70_Vel_0
Time_Shift_11
Note_On_70_Vel_70
Time_Shift_30
Note_On_69_Vel_0
Time_Shift_2
Note_On_63_Vel_66
Time_Shift_2
Note_On_62_Vel_0
Note_On_72_Vel_0
Time_Shift_5
Sustain_Off
Note_On_60_Vel_55
Time_Shift_12
Note_On_74_Vel_0
Time_Shift_38
Note_On_50_Vel_0
Time_Shift_115
Sustain_On
Time_Shift_253
Note_On_69_Vel_76
Time_Shift_260
Note_On_62_Vel_67
Time_Shift_5
Note_On_50_Vel_53
Time_Shift_220
Note_On_43_Vel_0
Time_Shift_422
Note_On_63_Vel_0
Time_Shift_4
Note_On_63_Vel_66
Time_Shift_6
Note_On_58_Vel_50
Time_Shift_24
Note_On_55_Vel_49
Time_Shift_25
Note_On_60_Vel_0
Note_On_62_Vel_0
Note_On_69_Vel_0
Time_Shift_1
Note_On_50_Vel_0
Time_Shift_5
Sustain_Off
Time_Shift_19
Note_On_70_Vel_0
Time_Shift_146
Sustain_On
Time_Shift_358
Note_On_70_Vel_68
Time_Shift_188
Note_On_70_Vel_0
Time_Shift_5
Note_On_70_Vel_54
Time_Shift_66
Note_On_72_Vel_63
Time_Shift_51
Note_On_70_Vel_0
Time_Shift_12
Note_On_70_Vel_58
Time_Shift_4
Note_On_50_Vel_41
Time_Shift_20
Note_On_62_Vel_50
Time_Shift_7
Sustain_Off
Time_Shift_2
Note_On_58_Vel_0
Time_Shift_5
Note_On_55_Vel_0
Time_Shift_5
Note_On_72_Vel_0
Time_Shift_7
Note_On_63_Vel_0
Time_Shift_146
Sustain_On
Time_Shift_122
Note_On_69_Vel_66
Time_Shift_205
Note_On_67_Vel_65
Time_Shift_221
Note_On_60_Vel_45
Time_Shift_1
Note_On_66_Vel_49
Time_Shift_4
Note_On_69_Vel_0
Time_Shift_2
Note_On_63_Vel_45
Time_Shift_8
Note_On_69_Vel_45
Note_On_57_Vel_42
Time_Shift_9
Sustain_Off
Time_Shift_7
Note_On_50_Vel_0
Note_On_62_Vel_0
Note_On_67_Vel_0
Time_Shift_12
Note_On_70_Vel_0
Time_Shift_200
Sustain_On
Time_Shift_488
Note_On_62_Vel_40
Time_Shift_25
Sustain_Off
Time_Shift_2
Note_On_50_Vel_18
Time_Shift_3
Note_On_57_Vel_0
Time_Shift_1
Note_On_60_Vel_0
Note_On_66_Vel_0
Time_Shift_1
Note_On_63_Vel_0
Time_Shift_41
Note_On_69_Vel_0
Time_Shift_99
Sustain_On
Time_Shift_484
Note_On_50_Vel_0
Time_Shift_1
Note_On_67_Vel_58
Time_Shift_6
Note_On_50_Vel_19
Time_Shift_4
Note_On_43_Vel_27
Time_Shift_19
Note_On_62_Vel_0
Time_Shift_2
Sustain_Off
Time_Shift_153
Sustain_On
Time_Shift_99
Note_On_50_Vel_0
Time_Shift_313
Note_On_69_Vel_60
Time_Shift_2
Note_On_43_Vel_0
Time_Shift_2
Note_On_50_Vel_30
Time_Shift_3
Note_On_58_Vel_32
Time_Shift_6
Note_On_43_Vel_23
Time_Shift_308
Note_On_70_Vel_66
Time_Shift_224
Note_On_67_Vel_0
Time_Shift_1
Note_On_50_Vel_0
Time_Shift_1
Note_On_69_Vel_0
Time_Shift_1
Note_On_58_Vel_0
Sustain_Off
Time_Shift_1
Note_On_70_Vel_0
Note_On_43_Vel_0
Time_Shift_21
Note_On_72_Vel_64
Time_Shift_4
Note_On_36_Vel_27
Time_Shift_58
Sustain_On
Time_Shift_169
Note_On_72_Vel_0
Time_Shift_11
Note_On_72_Vel_70
Time_Shift_112
Note_On_72_Vel_0
Time_Shift_4
Note_On_72_Vel_72
Time_Shift_121
Note_On_74_Vel_67
Time_Shift_59
Note_On_72_Vel_0
Time_Shift_6
Note_On_72_Vel_79
Time_Shift_84
Note_On_71_Vel_65
Time_Shift_64
Note_On_72_Vel_0
Time_Shift_8
Note_On_72_Vel_80
Time_Shift_69
Note_On_36_Vel_0
Time_Shift_4
Note_On_71_Vel_0
Time_Shift_2
Sustain_Off
Time_Shift_2
Note_On_72_Vel_0
Time_Shift_22
Note_On_74_Vel_0
Time_Shift_5
Note_On_74_Vel_73
Time_Shift_10
Note_On_63_Vel_33
Time_Shift_3
Note_On_55_Vel_27
Time_Shift_24
Note_On_60_Vel_23
Time_Shift_143
Sustain_On
Time_Shift_277
Note_On_75_Vel_81
Time_Shift_202
Note_On_55_Vel_0
Time_Shift_1
Note_On_60_Vel_0
Note_On_63_Vel_0
Note_On_74_Vel_0
Time_Shift_8
Note_On_69_Vel_72
Time_Shift_3
Note_On_41_Vel_38
Sustain_Off
Time_Shift_31
Note_On_75_Vel_0
Time_Shift_115
Sustain_On
Time_Shift_470
Note_On_67_Vel_39
Time_Shift_4
Note_On_81_Vel_71
Time_Shift_5
Note_On_63_Vel_38
Time_Shift_13
Note_On_41_Vel_0
Time_Shift_635
Note_On_65_Vel_30
Time_Shift_20
Note_On_62_Vel_35
Time_Shift_568
Note_On_79_Vel_61
Time_Shift_228
Note_On_79_Vel_0
Time_Shift_5
Note_On_79_Vel_54
Time_Shift_26
Note_On_63_Vel_0
Time_Shift_2
Sustain_Off
Time_Shift_1
Note_On_81_Vel_0
Time_Shift_1
Note_On_69_Vel_0
Note_On_65_Vel_0
Time_Shift_1
Note_On_62_Vel_0
Note_On_63_Vel_25
Note_On_67_Vel_0
Time_Shift_2
Note_On_60_Vel_26
Time_Shift_131
Sustain_On
Time_Shift_140
Note_On_77_Vel_57
Time_Shift_234
Note_On_75_Vel_67
Time_Shift_305
Note_On_74_Vel_64
Time_Shift_16
Note_On_34_Vel_28
Time_Shift_1
Note_On_60_Vel_0
Note_On_63_Vel_0
Note_On_46_Vel_25
Time_Shift_2
Note_On_77_Vel_0
Time_Shift_2
Note_On_75_Vel_0
Sustain_Off
Time_Shift_14
Note_On_79_Vel_0
Time_Shift_131
Sustain_On
Time_Shift_535
Note_On_62_Vel_75
Time_Shift_87
Note_On_62_Vel_0
Time_Shift_9
Note_On_62_Vel_65
Time_Shift_29
Sustain_Off
Time_Shift_60
Note_On_65_Vel_70
Time_Shift_25
Sustain_On
Time_Shift_64
Note_On_70_Vel_76
Time_Shift_97
Note_On_74_Vel_0
Time_Shift_10
Note_On_74_Vel_86
Time_Shift_280
Note_On_72_Vel_82
Time_Shift_209
Note_On_70_Vel_0
Time_Shift_11
Note_On_70_Vel_83
Time_Shift_116
Note_On_60_Vel_66
Time_Shift_50
Note_On_62_Vel_0
Time_Shift_4
Note_On_62_Vel_72
Time_Shift_54
Note_On_66_Vel_63
Time_Shift_57
Note_On_70_Vel_0
Time_Shift_11
Note_On_70_Vel_77
Time_Shift_40
Note_On_38_Vel_53
Time_Shift_3
Note_On_46_Vel_0
Note_On_65_Vel_0
Note_On_74_Vel_0
Time_Shift_1
Note_On_72_Vel_0
Time_Shift_1
Sustain_Off
Time_Shift_6
Note_On_34_Vel_0
Time_Shift_122
Sustain_On
Time_Shift_365
Note_On_69_Vel_73
Time_Shift_238
Note_On_50_Vel_62
Time_Shift_452
Note_On_58_Vel_70
Time_Shift_67
Note_On_62_Vel_0
Time_Shift_6
Note_On_62_Vel_63
Time_Shift_46
Note_On_67_Vel_64
Time_Shift_101
Note_On_70_Vel_0
Time_Shift_9
Note_On_70_Vel_77
Time_Shift_8
Note_On_43_Vel_56
Time_Shift_26
Sustain_Off
Time_Shift_30
Note_On_69_Vel_0
Time_Shift_1
Note_On_66_Vel_0
Time_Shift_18
Note_On_60_Vel_0
Time_Shift_62
Sustain_On
Time_Shift_430
Note_On_70_Vel_0
Time_Shift_7
Note_On_70_Vel_80
Time_Shift_147
Note_On_70_Vel_0
Time_Shift_4
Note_On_70_Vel_73
Time_Shift_62
Note_On_72_Vel_68
Time_Shift_56
Note_On_70_Vel_0
Time_Shift_10
Note_On_70_Vel_71
Time_Shift_14
Note_On_62_Vel_0
Time_Shift_7
Note_On_50_Vel_0
Time_Shift_2
Note_On_62_Vel_62
Time_Shift_2
Note_On_50_Vel_52
Time_Shift_4
Note_On_67_Vel_0
Time_Shift_259
Note_On_69_Vel_80
Time_Shift_196
Note_On_67_Vel_74
Time_Shift_212
Note_On_66_Vel_62
Time_Shift_3
Note_On_63_Vel_48
Time_Shift_18
Note_On_50_Vel_0
Time_Shift_1
Note_On_60_Vel_47
Time_Shift_1
Note_On_70_Vel_0
Time_Shift_2
Note_On_43_Vel_0
Note_On_62_Vel_0
Note_On_72_Vel_0
Time_Shift_1
Note_On_58_Vel_0
Time_Shift_2
Note_On_69_Vel_0
Time_Shift_6
Sustain_Off
Time_Shift_1
Note_On_57_Vel_48
Time_Shift_1
Note_On_67_Vel_0
Time_Shift_80
Note_On_38_Vel_0
Time_Shift_69
Sustain_On
Time_Shift_623
Note_On_62_Vel_42
Time_Shift_3
Note_On_50_Vel_35
Time_Shift_31
Sustain_Off
Time_Shift_2
Note_On_60_Vel_0
Note_On_57_Vel_0
Time_Shift_1
Note_On_63_Vel_0
Time_Shift_162
Sustain_On
Time_Shift_726
Note_On_67_Vel_46
Time_Shift_1
Note_On_58_Vel_31
Time_Shift_7
Note_On_62_Vel_0
Time_Shift_3
Note_On_50_Vel_0
Time_Shift_1
Sustain_Off
Time_Shift_1
Note_On_51_Vel_29
Time_Shift_1
Note_On_63_Vel_40
Time_Shift_13
Note_On_66_Vel_0
Time_Shift_192
Sustain_On
Time_Shift_458
Note_On_69_Vel_41
Time_Shift_3
Note_On_55_Vel_25
Time_Shift_1
Note_On_62_Vel_39
Time_Shift_12
Sustain_Off
Note_On_58_Vel_0
Time_Shift_1
Note_On_67_Vel_0
Time_Shift_1
Note_On_63_Vel_0
Time_Shift_1
Note_On_51_Vel_0
Time_Shift_12
Note_On_46_Vel_21
Time_Shift_187
Sustain_On
Time_Shift_351
Note_On_70_Vel_53
Time_Shift_182
Sustain_Off
Time_Shift_1
Note_On_69_Vel_0
Note_On_72_Vel_47
Note_On_46_Vel_0
Time_Shift_2
Note_On_70_Vel_0
Note_On_62_Vel_0
Note_On_55_Vel_0
Time_Shift_12
Note_On_60_Vel_30
Time_Shift_2
Note_On_67_Vel_31
Time_Shift_13
Note_On_45_Vel_25
Time_Shift_4
Note_On_51_Vel_23
Time_Shift_185
Sustain_On
Time_Shift_479
Note_On_74_Vel_49
Time_Shift_5
Sustain_Off
Time_Shift_3
Note_On_72_Vel_0
Note_On_45_Vel_0
Note_On_60_Vel_0
Note_On_67_Vel_0
Time_Shift_1
Note_On_51_Vel_0
Time_Shift_24
Note_On_50_Vel_26
Time_Shift_1
Note_On_62_Vel_21
Time_Shift_4
Note_On_66_Vel_20
Time_Shift_190
Sustain_On
Time_Shift_649
Note_On_67_Vel_41
Time_Shift_4
Note_On_66_Vel_0
Time_Shift_2
Note_On_43_Vel_25
Note_On_74_Vel_0
Time_Shift_1
Note_On_50_Vel_0
Time_Shift_8
Sustain_Off
Time_Shift_12
Note_On_62_Vel_0
Time_Shift_207
Sustain_On
Time_Shift_472
Note_On_58_Vel_30
Time_Shift_26
Note_On_62_Vel_21
Time_Shift_4
Note_On_55_Vel_16
Time_Shift_573
Note_On_67_Vel_0
Time_Shift_5
Note_On_67_Vel_47
Time_Shift_233
Note_On_67_Vel_0
Time_Shift_5
Note_On_67_Vel_52
Time_Shift_34
Note_On_43_Vel_0
Time_Shift_1
Sustain_Off
Time_Shift_4
Note_On_58_Vel_0
Time_Shift_2
Note_On_62_Vel_0
Time_Shift_20
Note_On_41_Vel_14
Time_Shift_134
Sustain_On
Time_Shift_1
Note_On_69_Vel_54
Time_Shift_22
Note_On_67_Vel_0
Time_Shift_115
Note_On_69_Vel_0
Time_Shift_6
Note_On_69_Vel_50
Time_Shift_82
Note_On_70_Vel_54
Time_Shift_58
Note_On_69_Vel_0
Time_Shift_11
Note_On_69_Vel_49
Time_Shift_51
Note_On_70_Vel_0
Time_Shift_4
Note_On_70_Vel_55
Time_Shift_34
Note_On_69_Vel_0
Time_Shift_11
Note_On_69_Vel_63
Time_Shift_66
Note_On_70_Vel_0
Time_Shift_4
Note_On_70_Vel_54
Time_Shift_42
Note_On_69_Vel_0
Time_Shift_11
Note_On_69_Vel_58
Time_Shift_58
Note_On_70_Vel_0
Time_Shift_11
Note_On_70_Vel_51
Time_Shift_35
Note_On_69_Vel_0
Time_Shift_8
Note_On_69_Vel_58
Time_Shift_53
Note_On_70_Vel_0
Time_Shift_8
Note_On_70_Vel_60
Time_Shift_34
Note_On_63_Vel_37
Time_Shift_15
Note_On_60_Vel_31
Time_Shift_5
Note_On_69_Vel_0
Time_Shift_1
Note_On_53_Vel_33
Time_Shift_4
Note_On_69_Vel_59
Time_Shift_56
Note_On_70_Vel_0
Time_Shift_4
Note_On_70_Vel_52
Time_Shift_35
Note_On_69_Vel_0
Time_Shift_6
Note_On_69_Vel_58
Time_Shift_63
Note_On_70_Vel_0
Time_Shift_8
Note_On_70_Vel_56
Time_Shift_38
Note_On_69_Vel_0
Time_Shift_10
Note_On_69_Vel_57
Time_Shift_74
Note_On_70_Vel_0
Time_Shift_10
Note_On_70_Vel_54
Time_Shift_67
Note_On_69_Vel_0
Time_Shift_7
Note_On_69_Vel_58
Time_Shift_149
Note_On_67_Vel_51
Time_Shift_159
Note_On_69_Vel_0
Time_Shift_10
Note_On_69_Vel_58
Time_Shift_197
Note_On_70_Vel_0
Time_Shift_7
Sustain_Off
Time_Shift_1
Note_On_55_Vel_0
Time_Shift_1
Note_On_70_Vel_55
Time_Shift_2
Note_On_63_Vel_0
Note_On_62_Vel_37
Time_Shift_1
Note_On_67_Vel_0
Note_On_69_Vel_0
Note_On_60_Vel_0
Note_On_41_Vel_0
Time_Shift_1
Note_On_53_Vel_0
Time_Shift_8
Note_On_58_Vel_31
Time_Shift_171
Sustain_On
Time_Shift_450
Note_On_71_Vel_47
Time_Shift_31
Note_On_53_Vel_24
Time_Shift_3
Sustain_Off
Time_Shift_1
Note_On_62_Vel_0
Time_Shift_1
Note_On_65_Vel_26
Time_Shift_1
Note_On_58_Vel_0
Time_Shift_1
Note_On_70_Vel_0
Time_Shift_88
Sustain_On
Time_Shift_443
Note_On_63_Vel_49
Time_Shift_24
Sustain_Off
Time_Shift_7
Note_On_57_Vel_37
Time_Shift_126
Note_On_71_Vel_0
Time_Shift_15
Sustain_On
Time_Shift_117
Note_On_72_Vel_65
Time_Shift_205
Note_On_65_Vel_0
Time_Shift_77
Note_On_53_Vel_0
Time_Shift_6
Note_On_65_Vel_44
Time_Shift_3
Note_On_53_Vel_41
Time_Shift_274
Note_On_73_Vel_73
Time_Shift_226
Note_On_57_Vel_0
Time_Shift_1
Note_On_63_Vel_0
Sustain_Off
Note_On_65_Vel_0
Time_Shift_2
Note_On_72_Vel_0
Time_Shift_12
Note_On_62_Vel_47
Time_Shift_2
Note_On_74_Vel_67
Time_Shift_7
Note_On_58_Vel_36
Time_Shift_5
Note_On_73_Vel_0
Time_Shift_115
Sustain_On
Time_Shift_131
Note_On_74_Vel_0
Time_Shift_4
Note_On_74_Vel_58
Time_Shift_116
Note_On_75_Vel_70
Time_Shift_87
Note_On_74_Vel_0
Time_Shift_4
Note_On_74_Vel_56
Time_Shift_72
Note_On_73_Vel_63
Time_Shift_93
Note_On_74_Vel_0
Time_Shift_4
Note_On_74_Vel_69
Time_Shift_73
Note_On_74_Vel_0
Time_Shift_7
Note_On_74_Vel_75
Time_Shift_41
Sustain_Off
Time_Shift_17
Note_On_73_Vel_0
Note_On_75_Vel_0
Time_Shift_23
Note_On_74_Vel_0
Time_Shift_16
Note_On_79_Vel_59
Time_Shift_19
Note_On_53_Vel_0
Time_Shift_7
Note_On_53_Vel_23
Time_Shift_154
Sustain_On
Time_Shift_320
Note_On_77_Vel_60
Time_Shift_156
Note_On_77_Vel_0
Time_Shift_7
Note_On_63_Vel_40
Note_On_77_Vel_52
Time_Shift_36
Note_On_57_Vel_36
Time_Shift_7
Sustain_Off
Time_Shift_1
Note_On_79_Vel_0
Time_Shift_1
Note_On_62_Vel_0
Time_Shift_1
Note_On_53_Vel_0
Time_Shift_16
Note_On_58_Vel_0
Time_Shift_184
Sustain_On
Time_Shift_193
Note_On_72_Vel_55
Time_Shift_257
Note_On_53_Vel_36
Time_Shift_2
Note_On_65_Vel_29
Time_Shift_353
Note_On_73_Vel_56
Time_Shift_318
Sustain_Off
Time_Shift_1
Note_On_53_Vel_0
Time_Shift_1
Note_On_74_Vel_61
Note_On_63_Vel_0
Note_On_72_Vel_0
Note_On_57_Vel_0
Time_Shift_1
Note_On_77_Vel_0
Note_On_73_Vel_0
Time_Shift_3
Note_On_65_Vel_0
Time_Shift_7
Note_On_58_Vel_30
Time_Shift_4
Note_On_62_Vel_32
Note_On_65_Vel_32
Time_Shift_212
Sustain_On
Time_Shift_454
Note_On_75_Vel_55
Time_Shift_16
Sustain_Off
Time_Shift_11
Note_On_74_Vel_0
Time_Shift_5
Note_On_65_Vel_0
Time_Shift_7
Note_On_67_Vel_34
Time_Shift_152
Sustain_On
Time_Shift_513
Note_On_69_Vel_39
Time_Shift_1
Note_On_57_Vel_46
Time_Shift_4
Note_On_61_Vel_42
Time_Shift_53
Note_On_58_Vel_0
Time_Shift_1
Note_On_67_Vel_0
Time_Shift_1
Sustain_Off
Time_Shift_3
Note_On_62_Vel_0
Time_Shift_169
Sustain_On
Time_Shift_23
Note_On_69_Vel_0
Time_Shift_357
Note_On_76_Vel_69
Time_Shift_39
Note_On_67_Vel_48
Time_Shift_655
Note_On_77_Vel_70
Time_Shift_21
Note_On_65_Vel_40
Time_Shift_4
Note_On_62_Vel_41
Time_Shift_17
Note_On_67_Vel_0
Time_Shift_1
Note_On_76_Vel_0
Time_Shift_1
Note_On_57_Vel_0
Note_On_61_Vel_0
Time_Shift_4
Note_On_75_Vel_0
Time_Shift_19
Sustain_Off
Time_Shift_103
Sustain_On
Time_Shift_162
Note_On_77_Vel_0
Time_Shift_6
Note_On_77_Vel_74
Time_Shift_94
Note_On_77_Vel_0
Time_Shift_5
Note_On_77_Vel_60
Time_Shift_93
Note_On_79_Vel_73
Time_Shift_55
Note_On_77_Vel_0
Time_Shift_8
Note_On_77_Vel_74
Time_Shift_84
Note_On_76_Vel_66
Time_Shift_62
Note_On_77_Vel_0
Time_Shift_10
Note_On_77_Vel_77
Time_Shift_101
Note_On_82_Vel_71
Time_Shift_3
Sustain_Off
Time_Shift_5
Note_On_79_Vel_0
Time_Shift_2
Note_On_76_Vel_0
Time_Shift_1
Note_On_62_Vel_0
Time_Shift_1
Note_On_65_Vel_0
Time_Shift_3
Note_On_77_Vel_0
Time_Shift_9
Note_On_69_Vel_43
Note_On_57_Vel_43
Time_Shift_172
Sustain_On
Time_Shift_282
Note_On_81_Vel_76
Time_Shift_163
Note_On_81_Vel_0
Time_Shift_6
Note_On_81_Vel_67
Time_Shift_23
Sustain_Off
Time_Shift_2
Note_On_69_Vel_0
Time_Shift_1
Note_On_67_Vel_38
Time_Shift_5
Note_On_69_Vel_34
Time_Shift_3
Note_On_61_Vel_34
Time_Shift_17
Note_On_82_Vel_0
Time_Shift_128
Sustain_On
Time_Shift_210
Note_On_75_Vel_74
Time_Shift_266
Note_On_57_Vel_0
Note_On_69_Vel_0
Time_Shift_4
Note_On_69_Vel_59
Time_Shift_3
Note_On_57_Vel_52
Time_Shift_378
Note_On_76_Vel_75
Time_Shift_407
Note_On_77_Vel_76
Time_Shift_3
Note_On_50_Vel_59
Time_Shift_21
Note_On_76_Vel_0
Note_On_61_Vel_0
Note_On_75_Vel_0
Note_On_67_Vel_0
Time_Shift_1
Note_On_57_Vel_0
Note_On_69_Vel_0
Time_Shift_7
Sustain_Off
Time_Shift_13
Note_On_81_Vel_0
Time_Shift_192
Sustain_On
Time_Shift_61
Note_On_50_Vel_0
Time_Shift_322
Note_On_79_Vel_74
Time_Shift_4
Note_On_65_Vel_50
Time_Shift_10
Note_On_62_Vel_47
Time_Shift_1
Note_On_57_Vel_47
Time_Shift_547
Note_On_77_Vel_0
Time_Shift_8
Note_On_77_Vel_78
Time_Shift_185
Note_On_75_Vel_72
Time_Shift_1
Note_On_51_Vel_57
Time_Shift_9
Sustain_Off
Time_Shift_6
Note_On_62_Vel_0
Time_Shift_1
Note_On_57_Vel_0
Note_On_77_Vel_0
Note_On_79_Vel_0
Note_On_65_Vel_0
Time_Shift_181
Sustain_On
Time_Shift_502
Note_On_70_Vel_62
Time_Shift_13
Note_On_51_Vel_0
Time_Shift_3
Note_On_67_Vel_42
Time_Shift_1
Note_On_58_Vel_36
Time_Shift_5
Note_On_51_Vel_28
Time_Shift_1
Note_On_55_Vel_36
Time_Shift_15
Sustain_Off
Time_Shift_9
Note_On_75_Vel_0
Time_Shift_135
Sustain_On
Time_Shift_380
Note_On_72_Vel_62
Time_Shift_185
Note_On_70_Vel_0
Note_On_58_Vel_0
Sustain_Off
Time_Shift_1
Note_On_55_Vel_0
Time_Shift_1
Note_On_67_Vel_0
Time_Shift_9
Note_On_51_Vel_0
Time_Shift_24
Note_On_72_Vel_0
Time_Shift_4
Note_On_74_Vel_60
Time_Shift_2
Note_On_46_Vel_33
Time_Shift_6
Note_On_58_Vel_28
Time_Shift_10
Note_On_58_Vel_0
Time_Shift_153
Sustain_On
Time_Shift_369
Note_On_74_Vel_0
Time_Shift_11
Note_On_74_Vel_59
Time_Shift_135
Note_On_74_Vel_0
Time_Shift_6
Note_On_74_Vel_38
Time_Shift_63
Note_On_74_Vel_0
Time_Shift_7
Note_On_74_Vel_60
Time_Shift_64
Note_On_77_Vel_56
Time_Shift_65
Note_On_62_Vel_35
Time_Shift_8
Note_On_53_Vel_25
Time_Shift_3
Note_On_75_Vel_60
Time_Shift_8
Note_On_58_Vel_40
Time_Shift_629
Note_On_74_Vel_0
Time_Shift_10
Note_On_74_Vel_51
Time_Shift_170
Note_On_72_Vel_47
Time_Shift_2
Sustain_Off
Note_On_58_Vel_0
Note_On_74_Vel_0
Note_On_62_Vel_0
Time_Shift_1
Note_On_77_Vel_0
Time_Shift_1
Note_On_75_Vel_0
Time_Shift_1
Note_On_46_Vel_0
Note_On_53_Vel_0
Time_Shift_9
Note_On_48_Vel_24
Time_Shift_3
Note_On_60_Vel_20
Time_Shift_202
Sustain_On
Time_Shift_487
Note_On_67_Vel_44
Note_On_63_Vel_30
Time_Shift_8
Note_On_55_Vel_26
Time_Shift_1
Note_On_72_Vel_0
Time_Shift_6
Note_On_51_Vel_23
Time_Shift_16
Sustain_Off
Time_Shift_4
Note_On_60_Vel_0
Time_Shift_184
Sustain_On
Time_Shift_407
Note_On_69_Vel_53
Time_Shift_137
Sustain_Off
Note_On_67_Vel_0
Note_On_55_Vel_0
Time_Shift_1
Note_On_63_Vel_0
Time_Shift_1
Note_On_51_Vel_0
Time_Shift_2
Note_On_48_Vel_0
Time_Shift_9
Note_On_69_Vel_0
Time_Shift_20
Note_On_70_Vel_50
Time_Shift_11
Note_On_43_Vel_28
Time_Shift_157
Sustain_On
Time_Shift_573
Note_On_69_Vel_56
Time_Shift_26
Note_On_62_Vel_32
Time_Shift_9
Note_On_58_Vel_33
Time_Shift_3
Note_On_55_Vel_25
Time_Shift_603
Note_On_70_Vel_0
Time_Shift_9
Note_On_70_Vel_63
Time_Shift_179
Note_On_39_Vel_34
Time_Shift_27
Sustain_Off
Time_Shift_81
Note_On_72_Vel_64
Time_Shift_11
Note_On_43_Vel_0
Time_Shift_20
Note_On_58_Vel_0
Time_Shift_1
Note_On_70_Vel_0
Time_Shift_17
Note_On_62_Vel_0
Time_Shift_8
Note_On_55_Vel_0
Time_Shift_77
Sustain_On
Time_Shift_31
Note_On_69_Vel_0
Time_Shift_245
Note_On_72_Vel_0
Time_Shift_5
Note_On_72_Vel_67
Time_Shift_134
Note_On_72_Vel_0
Time_Shift_6
Note_On_72_Vel_72
Time_Shift_134
Note_On_74_Vel_71
Time_Shift_90
Note_On_72_Vel_0
Time_Shift_9
Note_On_72_Vel_81
Time_Shift_120
Note_On_71_Vel_72
Time_Shift_23
Note_On_67_Vel_41
Time_Shift_5
Note_On_55_Vel_34
Time_Shift_27
Note_On_60_Vel_41
Time_Shift_100
Note_On_72_Vel_0
Time_Shift_12
Note_On_72_Vel_79
Time_Shift_146
Note_On_73_Vel_80
Time_Shift_126
Note_On_74_Vel_0
Time_Shift_5
Note_On_74_Vel_77
Time_Shift_135
Note_On_77_Vel_78
Time_Shift_110
Note_On_75_Vel_82
Time_Shift_115
Note_On_73_Vel_0
Note_On_55_Vel_0
Note_On_67_Vel_0
Time_Shift_1
Note_On_71_Vel_0
Note_On_60_Vel_0
Note_On_77_Vel_0
Time_Shift_1
Note_On_75_Vel_0
Time_Shift_2
Note_On_74_Vel_0
Sustain_Off
Time_Shift_1
Note_On_39_Vel_0
Time_Shift_5
Note_On_74_Vel_74
Time_Shift_2
Note_On_72_Vel_0
Time_Shift_29
Note_On_50_Vel_24
Time_Shift_3
Note_On_38_Vel_30
Time_Shift_121
Sustain_On
Time_Shift_329
Note_On_62_Vel_66
Time_Shift_361
Note_On_66_Vel_57
Time_Shift_3
Note_On_57_Vel_56
Time_Shift_306
Note_On_74_Vel_0
Time_Shift_10
Note_On_74_Vel_81
Time_Shift_390
Note_On_67_Vel_71
Time_Shift_3
Note_On_58_Vel_62
Time_Shift_426
Note_On_74_Vel_0
Time_Shift_11
Note_On_74_Vel_84
Time_Shift_419
Note_On_74_Vel_0
Time_Shift_9
Note_On_68_Vel_67
Note_On_74_Vel_78
Time_Shift_15
Note_On_59_Vel_58
Time_Shift_44
Note_On_58_Vel_0
Note_On_57_Vel_0
Note_On_67_Vel_0
Note_On_38_Vel_0
Time_Shift_2
Note_On_62_Vel_0
Note_On_66_Vel_0
Time_Shift_7
Note_On_50_Vel_0
Time_Shift_2
Sustain_Off
Time_Shift_121
Sustain_On
Time_Shift_192
Note_On_74_Vel_0
Time_Shift_6
Note_On_74_Vel_77
Time_Shift_182
Note_On_69_Vel_51
Time_Shift_8
Note_On_60_Vel_46
Time_Shift_203
Note_On_74_Vel_0
Time_Shift_6
Note_On_74_Vel_64
Time_Shift_616
Note_On_74_Vel_0
Time_Shift_3
Note_On_31_Vel_28
Time_Shift_2
Note_On_43_Vel_25
Time_Shift_6
Note_On_74_Vel_53
Time_Shift_2
Note_On_59_Vel_0
Time_Shift_2
Sustain_Off
Note_On_69_Vel_0
Note_On_60_Vel_0
Time_Shift_2
Note_On_68_Vel_0
Time_Shift_3
Note_On_62_Vel_23
Time_Shift_11
Note_On_62_Vel_0
Time_Shift_230
Sustain_On
Time_Shift_573
Note_On_72_Vel_47
Time_Shift_31
Note_On_50_Vel_22
Time_Shift_2
Note_On_62_Vel_29
Time_Shift_9
Note_On_31_Vel_0
Time_Shift_499
Note_On_74_Vel_0
Time_Shift_8
Note_On_74_Vel_20
Time_Shift_121
Note_On_70_Vel_49
Time_Shift_134
Note_On_69_Vel_40
Time_Shift_75
Note_On_70_Vel_0
Time_Shift_9
Note_On_70_Vel_45
Time_Shift_75
Note_On_72_Vel_0
Time_Shift_7
Note_On_72_Vel_50
Time_Shift_63
Note_On_43_Vel_0
Time_Shift_44
Note_On_63_Vel_34
Time_Shift_2
Note_On_70_Vel_0
Time_Shift_11
Note_On_70_Vel_43
Note_On_60_Vel_29
Time_Shift_5
Sustain_Off
Time_Shift_10
Note_On_62_Vel_0
Note_On_69_Vel_0
Note_On_72_Vel_0
Time_Shift_1
Note_On_74_Vel_0
Time_Shift_7
Note_On_54_Vel_25
Time_Shift_27
Note_On_50_Vel_0
Time_Shift_161
Sustain_On
Time_Shift_289
Note_On_69_Vel_36
Time_Shift_286
Note_On_62_Vel_42
Time_Shift_3
Note_On_50_Vel_30
Time_Shift_33
Sustain_Off
Time_Shift_2
Note_On_69_Vel_0
Time_Shift_1
Note_On_60_Vel_0
Note_On_54_Vel_0
Time_Shift_1
Note_On_63_Vel_0
Time_Shift_30
Note_On_70_Vel_0
Time_Shift_116
Sustain_On
Time_Shift_569
Note_On_63_Vel_47
Time_Shift_4
Note_On_58_Vel_33
Time_Shift_24
Note_On_55_Vel_32
Time_Shift_23
Sustain_Off
Time_Shift_8
Note_On_62_Vel_0
Time_Shift_1
Note_On_50_Vel_0
Time_Shift_177
Sustain_On
Time_Shift_364
Note_On_70_Vel_53
Time_Shift_212
Note_On_70_Vel_0
Time_Shift_5
Note_On_70_Vel_51
Time_Shift_52
Note_On_72_Vel_46
Time_Shift_33
Sustain_Off
Time_Shift_18
Note_On_70_Vel_0
Time_Shift_5
Note_On_70_Vel_49
Time_Shift_12
Note_On_58_Vel_0
Time_Shift_1
Note_On_63_Vel_0
Time_Shift_1
Note_On_55_Vel_0
Time_Shift_7
Note_On_50_Vel_35
Time_Shift_2
Note_On_62_Vel_33
Time_Shift_1
Note_On_72_Vel_0
Time_Shift_163
Sustain_On
Time_Shift_105
Note_On_69_Vel_47
Time_Shift_216
Note_On_67_Vel_48
Time_Shift_214
Note_On_66_Vel_35
Time_Shift_2
Note_On_63_Vel_31
Time_Shift_4
Note_On_60_Vel_26
Time_Shift_6
Sustain_Off
Time_Shift_11
Note_On_67_Vel_0
Note_On_69_Vel_0
Note_On_62_Vel_0
Note_On_70_Vel_0
Time_Shift_2
Note_On_50_Vel_0
Time_Shift_34
Note_On_57_Vel_18
Time_Shift_189
Sustain_On
Time_Shift_458
Note_On_62_Vel_40
Time_Shift_23
Note_On_50_Vel_19
Time_Shift_12
Sustain_Off
Time_Shift_5
Note_On_63_Vel_0
Note_On_57_Vel_0
Note_On_66_Vel_0
Time_Shift_1
Note_On_60_Vel_0
Time_Shift_123
Sustain_On
Time_Shift_508
Note_On_67_Vel_60
Time_Shift_6
Note_On_62_Vel_0
Time_Shift_7
Note_On_50_Vel_0
Time_Shift_6
Note_On_43_Vel_25
Time_Shift_1
Sustain_Off
Time_Shift_163
Sustain_On
Time_Shift_426
Note_On_69_Vel_65
Time_Shift_18
Note_On_62_Vel_30
Time_Shift_2
Note_On_58_Vel_32
Time_Shift_4
Note_On_50_Vel_28
Note_On_55_Vel_27
Time_Shift_458
Note_On_70_Vel_71
Time_Shift_140
Note_On_58_Vel_0
Note_On_43_Vel_0
Sustain_Off
Time_Shift_1
Note_On_50_Vel_0
Note_On_62_Vel_0
Note_On_67_Vel_0
Note_On_69_Vel_0
Note_On_55_Vel_0
Time_Shift_38
Note_On_36_Vel_27
Time_Shift_1
Note_On_72_Vel_68
Time_Shift_15
Note_On_70_Vel_0
Time_Shift_164
Sustain_On
Time_Shift_370
Note_On_74_Vel_71
Time_Shift_29
Note_On_55_Vel_29
Time_Shift_5
Note_On_67_Vel_35
Note_On_60_Vel_30
Time_Shift_1
Note_On_63_Vel_36
Time_Shift_497
Note_On_75_Vel_76
Time_Shift_181
Note_On_75_Vel_0
Time_Shift_4
Note_On_36_Vel_0
Note_On_41_Vel_40
Time_Shift_1
Sustain_Off
Note_On_55_Vel_0
Time_Shift_1
Note_On_75_Vel_74
Time_Shift_1
Note_On_60_Vel_0
Note_On_63_Vel_0
Note_On_67_Vel_0
Time_Shift_1
Note_On_72_Vel_0
Note_On_74_Vel_0
Time_Shift_131
Sustain_On
Time_Shift_53
Note_On_41_Vel_0
Time_Shift_311
Note_On_69_Vel_59
Time_Shift_318
Note_On_63_Vel_47
Time_Shift_2
Note_On_67_Vel_46
Time_Shift_344
Note_On_81_Vel_63
Time_Shift_505
Note_On_62_Vel_33
Time_Shift_1
Note_On_65_Vel_31
Time_Shift_81
Note_On_63_Vel_0
Time_Shift_1
Note_On_67_Vel_0
Note_On_69_Vel_0
Note_On_75_Vel_0
Time_Shift_1
Sustain_Off
Time_Shift_103
Sustain_On
Time_Shift_146
Note_On_80_Vel_55
Time_Shift_133
Note_On_79_Vel_49
Time_Shift_105
Note_On_78_Vel_47
Time_Shift_88
Note_On_77_Vel_46
Time_Shift_92
Note_On_76_Vel_45
Time_Shift_123
Note_On_75_Vel_45
Time_Shift_2
Sustain_Off
Time_Shift_6
Note_On_79_Vel_0
Time_Shift_1
Note_On_78_Vel_0
Time_Shift_1
Note_On_80_Vel_0
Note_On_62_Vel_0
Time_Shift_3
Note_On_65_Vel_0
Note_On_77_Vel_0
Time_Shift_2
Note_On_76_Vel_0
Time_Shift_4
Note_On_81_Vel_0
Time_Shift_5
Note_On_63_Vel_31
Time_Shift_16
Note_On_60_Vel_24
Time_Shift_53
Note_On_72_Vel_48
Time_Shift_26
Note_On_75_Vel_0
Time_Shift_23
Sustain_On
Time_Shift_51
Note_On_69_Vel_43
Time_Shift_102
Note_On_66_Vel_32
Time_Shift_95
Note_On_64_Vel_47
Time_Shift_111
Note_On_65_Vel_44
Time_Shift_46
Sustain_Off
Time_Shift_26
Note_On_64_Vel_0
Time_Shift_2
Note_On_63_Vel_0
Time_Shift_11
Note_On_72_Vel_0
Time_Shift_4
Note_On_66_Vel_0
Time_Shift_11
Note_On_69_Vel_0
Time_Shift_6
Note_On_65_Vel_0
Time_Shift_6
Note_On_67_Vel_49
Time_Shift_5
Note_On_60_Vel_0
Time_Shift_96
Note_On_67_Vel_0
Time_Shift_5
Note_On_69_Vel_49
Time_Shift_106
Note_On_69_Vel_0
Time_Shift_4
Note_On_70_Vel_46
Time_Shift_122
Note_On_72_Vel_53
Time_Shift_163
Note_On_72_Vel_0
Time_Shift_4
Note_On_70_Vel_0
Time_Shift_16
Note_On_74_Vel_45
Time_Shift_1
Note_On_46_Vel_15
Time_Shift_2
Note_On_70_Vel_29
Time_Shift_157
Sustain_On
Time_Shift_486
Note_On_61_Vel_41
Time_Shift_104
Note_On_62_Vel_38
Time_Shift_94
Note_On_65_Vel_37
Time_Shift_69
Note_On_70_Vel_0
Time_Shift_11
Note_On_70_Vel_49
Time_Shift_48
Sustain_Off
Time_Shift_4
Note_On_61_Vel_0
Time_Shift_52
Note_On_74_Vel_0
Time_Shift_11
Note_On_74_Vel_49
Note_On_53_Vel_23
Time_Shift_66
Sustain_On
Time_Shift_221
Note_On_72_Vel_51
Time_Shift_186
Note_On_70_Vel_0
Time_Shift_5
Note_On_70_Vel_47
Time_Shift_124
Note_On_60_Vel_41
Time_Shift_78
Note_On_62_Vel_0
Time_Shift_7
Note_On_62_Vel_32
Time_Shift_50
Note_On_66_Vel_39
Time_Shift_1
Sustain_Off
Time_Shift_3
Note_On_72_Vel_0
Time_Shift_1
Note_On_65_Vel_0
Time_Shift_15
Note_On_46_Vel_0
Time_Shift_6
Note_On_38_Vel_21
Time_Shift_10
Note_On_53_Vel_0
Time_Shift_15
Note_On_70_Vel_0
Note_On_74_Vel_0
Time_Shift_6
Note_On_70_Vel_47
Time_Shift_40
Sustain_On
Time_Shift_420
Note_On_69_Vel_44
Time_Shift_245
Note_On_50_Vel_39
Time_Shift_451
Note_On_58_Vel_46
Time_Shift_44
Note_On_62_Vel_0
Time_Shift_8
Note_On_62_Vel_47
Time_Shift_55
Note_On_67_Vel_44
Time_Shift_17
Note_On_69_Vel_0
Note_On_66_Vel_0
Time_Shift_7
Note_On_60_Vel_0
Time_Shift_6
Sustain_Off
Time_Shift_34
Note_On_43_Vel_31
Time_Shift_3
Note_On_38_Vel_0
Time_Shift_16
Note_On_70_Vel_0
Time_Shift_11
Note_On_70_Vel_59
Time_Shift_150
Sustain_On
Time_Shift_491
Note_On_62_Vel_0
Time_Shift_4
Note_On_69_Vel_55
Time_Shift_2
Note_On_62_Vel_38
Time_Shift_2
Note_On_50_Vel_0
Time_Shift_5
Note_On_50_Vel_32
Time_Shift_571
Note_On_67_Vel_0
Time_Shift_5
Note_On_67_Vel_52
Time_Shift_124
Sustain_Off
Time_Shift_4
Note_On_58_Vel_0
Time_Shift_1
Note_On_70_Vel_0
Note_On_62_Vel_0
Time_Shift_1
Note_On_50_Vel_0
Time_Shift_1
Note_On_69_Vel_0
Time_Shift_25
Note_On_43_Vel_0
Time_Shift_7
Note_On_66_Vel_43
Time_Shift_6
Note_On_67_Vel_0
Time_Shift_24
Note_On_60_Vel_27
Time_Shift_2
Note_On_57_Vel_27
Note_On_63_Vel_29
Time_Shift_207
Sustain_On
Time_Shift_506
Note_On_62_Vel_37
Time_Shift_20
Note_On_50_Vel_34
Sustain_Off
Time_Shift_6
Note_On_57_Vel_0
Time_Shift_1
Note_On_63_Vel_0
Time_Shift_1
Note_On_60_Vel_0
Time_Shift_142
Sustain_On
Time_Shift_616
Sustain_Off
Time_Shift_2
Note_On_62_Vel_0
Note_On_50_Vel_0
Time_Shift_12
Note_On_66_Vel_0
Note_On_67_Vel_43
Time_Shift_3
Note_On_51_Vel_24
Time_Shift_1
Note_On_58_Vel_29
Time_Shift_17
Note_On_63_Vel_31
Time_Shift_94
Sustain_On
Time_Shift_541
Note_On_55_Vel_25
Time_Shift_2
Note_On_69_Vel_42
Time_Shift_4
Note_On_62_Vel_40
Time_Shift_6
Note_On_46_Vel_23
Time_Shift_4
Note_On_58_Vel_0
Note_On_63_Vel_0
Time_Shift_1
Sustain_Off
Note_On_67_Vel_0
Note_On_50_Vel_21
Time_Shift_2
Note_On_51_Vel_0
Time_Shift_8
Note_On_50_Vel_0
Time_Shift_154
Sustain_On
Time_Shift_400
Note_On_70_Vel_52
Time_Shift_170
Note_On_72_Vel_52
Time_Shift_19
Sustain_Off
Time_Shift_5
Note_On_69_Vel_0
Note_On_62_Vel_0
Time_Shift_1
Note_On_70_Vel_0
Note_On_55_Vel_0
Note_On_60_Vel_26
Time_Shift_1
Note_On_46_Vel_0
Time_Shift_6
Note_On_67_Vel_29
Time_Shift_6
Note_On_45_Vel_29
Time_Shift_2
Note_On_51_Vel_22
Time_Shift_119
Sustain_On
Time_Shift_682
Note_On_74_Vel_41
Time_Shift_17
Note_On_72_Vel_0
Note_On_60_Vel_0
Time_Shift_2
Note_On_67_Vel_0
Time_Shift_3
Note_On_51_Vel_0
Time_Shift_2
Note_On_45_Vel_0
Time_Shift_1
Sustain_Off
Time_Shift_4
Note_On_66_Vel_22
Time_Shift_3
Note_On_62_Vel_20
Note_On_50_Vel_26
Time_Shift_4
Note_On_38_Vel_20
Time_Shift_189
Sustain_On
Time_Shift_704
Note_On_67_Vel_39
Time_Shift_2
Note_On_50_Vel_0
Time_Shift_10
Note_On_43_Vel_22
Time_Shift_1
Note_On_50_Vel_13
Time_Shift_30
Sustain_Off
Time_Shift_8
Note_On_66_Vel_0
Note_On_38_Vel_0
Time_Shift_1
Note_On_50_Vel_0
Note_On_74_Vel_0
Time_Shift_12
Note_On_62_Vel_0
Time_Shift_84
Sustain_On
Time_Shift_536
Note_On_58_Vel_35
Time_Shift_1
Note_On_50_Vel_26
Time_Shift_3
Note_On_38_Vel_24
Time_Shift_5
Note_On_38_Vel_0
Time_Shift_669
Note_On_58_Vel_0
Time_Shift_6
Note_On_58_Vel_52
Time_Shift_9
Note_On_50_Vel_0
Time_Shift_4
Note_On_50_Vel_33
Time_Shift_16
Note_On_55_Vel_18
Time_Shift_902
Note_On_58_Vel_0
Time_Shift_5
Note_On_58_Vel_49
Time_Shift_4
Note_On_56_Vel_43
Time_Shift_14
Note_On_50_Vel_0
Time_Shift_5
Note_On_50_Vel_34
Time_Shift_5
Note_On_41_Vel_28
Time_Shift_47
Sustain_Off
Time_Shift_42
Note_On_55_Vel_0
Time_Shift_16
Note_On_43_Vel_0
Time_Shift_138
Sustain_On
Time_Shift_384
Note_On_67_Vel_0
Time_Shift_545
Note_On_58_Vel_0
Time_Shift_5
Note_On_58_Vel_41
Time_Shift_12
Note_On_55_Vel_31
Time_Shift_17
Note_On_51_Vel_31
Time_Shift_4
Note_On_39_Vel_27
Time_Shift_6
Note_On_56_Vel_0
Time_Shift_4
Sustain_Off
Time_Shift_21
Note_On_41_Vel_0
Note_On_50_Vel_0
Time_Shift_146
Sustain_On
Time_Shift_488
Note_On_60_Vel_43
Time_Shift_12
Note_On_51_Vel_0
Time_Shift_1
Note_On_56_Vel_36
Time_Shift_5
Note_On_51_Vel_28
Time_Shift_3
Note_On_44_Vel_33
Time_Shift_18
Note_On_39_Vel_0
Time_Shift_3
Note_On_55_Vel_0
Time_Shift_5
Sustain_Off
Time_Shift_18
Note_On_58_Vel_0
Time_Shift_123
Sustain_On
Time_Shift_384
Note_On_60_Vel_0
Time_Shift_8
Note_On_51_Vel_0
Note_On_56_Vel_0
Time_Shift_3
Note_On_60_Vel_44
Time_Shift_5
Note_On_44_Vel_0
Note_On_51_Vel_32
Time_Shift_2
Note_On_56_Vel_34
Time_Shift_7
Note_On_44_Vel_32
Time_Shift_31
Sustain_Off
Time_Shift_144
Sustain_On
Time_Shift_403
Note_On_58_Vel_40
Time_Shift_4
Note_On_51_Vel_0
Time_Shift_1
Note_On_55_Vel_31
Time_Shift_8
Note_On_51_Vel_28
Time_Shift_3
Note_On_39_Vel_28
Time_Shift_14
Sustain_Off
Time_Shift_20
Note_On_44_Vel_0
Note_On_56_Vel_0
Note_On_60_Vel_0
Time_Shift_131
Sustain_On
Time_Shift_391
Note_On_51_Vel_0
Time_Shift_10
Note_On_60_Vel_42
Time_Shift_1
Note_On_51_Vel_27
Time_Shift_1
Note_On_44_Vel_32
Time_Shift_2
Note_On_56_Vel_33
Time_Shift_13
Sustain_Off
Note_On_58_Vel_0
Time_Shift_1
Note_On_55_Vel_0
Time_Shift_103
Note_On_39_Vel_0
Time_Shift_61
Sustain_On
Time_Shift_405
Note_On_63_Vel_42
Time_Shift_14
Note_On_55_Vel_28
Time_Shift_4
Note_On_51_Vel_0
Time_Shift_5
Note_On_58_Vel_34
Time_Shift_1
Note_On_51_Vel_27
Note_On_39_Vel_28
Time_Shift_7
Note_On_60_Vel_0
Sustain_Off
Time_Shift_1
Note_On_56_Vel_0
Time_Shift_1
Note_On_44_Vel_0
Time_Shift_131
Sustain_On
Time_Shift_441
Note_On_46_Vel_30
Time_Shift_4
Note_On_58_Vel_0
Time_Shift_6
Note_On_53_Vel_29
Time_Shift_2
Note_On_58_Vel_31
Time_Shift_4
Note_On_62_Vel_41
Time_Shift_17
Note_On_63_Vel_0
Time_Shift_3
Note_On_39_Vel_0
Time_Shift_1
Note_On_55_Vel_0
Time_Shift_2
Sustain_Off
Time_Shift_11
Note_On_51_Vel_0
Time_Shift_115
Sustain_On
Time_Shift_445
Note_On_63_Vel_41
Time_Shift_24
Note_On_58_Vel_0
Time_Shift_4
Note_On_55_Vel_26
Time_Shift_1
Note_On_39_Vel_28
Time_Shift_3
Note_On_58_Vel_31
Time_Shift_3
Note_On_46_Vel_0
Note_On_53_Vel_0
Note_On_62_Vel_0
Time_Shift_5
Sustain_Off
Time_Shift_191
Sustain_On
Time_Shift_415
Note_On_58_Vel_0
Time_Shift_2
Note_On_65_Vel_40
Time_Shift_3
Note_On_62_Vel_38
Time_Shift_4
Note_On_58_Vel_31
Time_Shift_3
Note_On_46_Vel_31
Time_Shift_28
Sustain_Off
Note_On_63_Vel_0
Time_Shift_2
Note_On_55_Vel_0
Time_Shift_4
Note_On_39_Vel_0
Time_Shift_92
Sustain_On
Time_Shift_433
Note_On_67_Vel_43
Time_Shift_20
Note_On_58_Vel_0
Time_Shift_4
Note_On_63_Vel_33
Note_On_58_Vel_29
Time_Shift_1
Note_On_51_Vel_33
Time_Shift_6
Note_On_39_Vel_27
Time_Shift_17
Sustain_Off
Time_Shift_4
Note_On_65_Vel_0
Time_Shift_1
Note_On_46_Vel_0
Time_Shift_1
Note_On_62_Vel_0
Time_Shift_112
Sustain_On
Time_Shift_425
Note_On_68_Vel_44
Time_Shift_13
Note_On_63_Vel_0
Time_Shift_6
Note_On_60_Vel_29
Time_Shift_2
Note_On_63_Vel_31
Time_Shift_4
Note_On_44_Vel_28
Time_Shift_11
Note_On_39_Vel_0
Time_Shift_1
Note_On_51_Vel_0
Note_On_67_Vel_0
Sustain_Off
Time_Shift_7
Note_On_58_Vel_0
Time_Shift_138
Sustain_On
Time_Shift_403
Note_On_67_Vel_41
Time_Shift_19
Note_On_63_Vel_0
Time_Shift_4
Note_On_63_Vel_31
Time_Shift_7
Note_On_51_Vel_29
Time_Shift_1
Note_On_58_Vel_23
Time_Shift_27
Sustain_Off
Time_Shift_9
Note_On_60_Vel_0
Time_Shift_1
Note_On_68_Vel_0
Note_On_44_Vel_0
Time_Shift_166
Sustain_On
Time_Shift_369
Note_On_58_Vel_0
Time_Shift_4
Note_On_65_Vel_41
Note_On_58_Vel_33
Time_Shift_7
Note_On_62_Vel_35
Time_Shift_23
Note_On_46_Vel_29
Time_Shift_16
Sustain_Off
Time_Shift_6
Note_On_67_Vel_0
Time_Shift_1
Note_On_51_Vel_0
Time_Shift_20
Note_On_63_Vel_0
Time_Shift_92
Sustain_On
Time_Shift_477
Note_On_63_Vel_32
Time_Shift_9
Note_On_55_Vel_23
Time_Shift_1
Note_On_48_Vel_33
Sustain_Off
Time_Shift_2
Note_On_60_Vel_26
Time_Shift_13
Note_On_58_Vel_0
Note_On_46_Vel_0
Time_Shift_1
Note_On_62_Vel_0
Note_On_65_Vel_0
Time_Shift_119
Sustain_On
Time_Shift_46
Note_On_55_Vel_0
Time_Shift_336
Note_On_56_Vel_34
Time_Shift_68
Note_On_62_Vel_36
Time_Shift_85
Note_On_67_Vel_33
Time_Shift_58
Sustain_Off
Time_Shift_12
Note_On_63_Vel_0
Time_Shift_54
Note_On_65_Vel_32
Time_Shift_12
Note_On_48_Vel_0
Time_Shift_2
Note_On_46_Vel_31
Time_Shift_7
Note_On_58_Vel_20
Time_Shift_11
Note_On_58_Vel_0
Note_On_60_Vel_0
Time_Shift_85
Note_On_67_Vel_0
Sustain_On
Time_Shift_567
Note_On_63_Vel_29
Time_Shift_2
Note_On_55_Vel_23
Time_Shift_19
Note_On_51_Vel_22
Time_Shift_1
Note_On_58_Vel_19
Time_Shift_2
Note_On_39_Vel_22
Time_Shift_8
Note_On_51_Vel_0
Time_Shift_2
Sustain_Off
Time_Shift_6
Note_On_56_Vel_0
Time_Shift_2
Note_On_46_Vel_0
Note_On_62_Vel_0
Time_Shift_1
Note_On_65_Vel_0
Time_Shift_227
Sustain_On
Time_Shift_622
Note_On_58_Vel_0
Time_Shift_7
Note_On_55_Vel_0
Time_Shift_4
Note_On_58_Vel_37
Time_Shift_1
Note_On_51_Vel_29
Time_Shift_2
Note_On_55_Vel_26
Time_Shift_30
Sustain_Off
Time_Shift_109
Sustain_On
Time_Shift_496
Note_On_60_Vel_40
Time_Shift_4
Note_On_51_Vel_0
Time_Shift_7
Note_On_51_Vel_33
Note_On_56_Vel_32
Time_Shift_11
Note_On_44_Vel_33
Time_Shift_15
Sustain_Off
Time_Shift_17
Note_On_63_Vel_0
Note_On_58_Vel_0
Time_Shift_3
Note_On_55_Vel_0
Time_Shift_23
Note_On_39_Vel_0
Time_Shift_116
Sustain_On
Time_Shift_376
Note_On_60_Vel_0
Time_Shift_4
Note_On_60_Vel_35
Time_Shift_11
Note_On_56_Vel_0
Time_Shift_7
Note_On_56_Vel_29
Time_Shift_9
Note_On_44_Vel_0
Note_On_51_Vel_0
Time_Shift_4
Note_On_51_Vel_25
Time_Shift_7
Note_On_44_Vel_36
Time_Shift_579
Note_On_58_Vel_42
Time_Shift_14
Note_On_55_Vel_27
Time_Shift_2
Note_On_51_Vel_0
Time_Shift_5
Note_On_51_Vel_29
Time_Shift_5
Note_On_39_Vel_30
Time_Shift_10
Sustain_Off
Time_Shift_5
Note_On_60_Vel_0
Time_Shift_1
Note_On_56_Vel_0
Time_Shift_1
Note_On_44_Vel_0
Time_Shift_219
Sustain_On
Time_Shift_320
Note_On_60_Vel_42
Time_Shift_3
Note_On_51_Vel_0
Time_Shift_11
Note_On_44_Vel_35
Note_On_56_Vel_33
Note_On_51_Vel_28
Time_Shift_35
Sustain_Off
Time_Shift_10
Note_On_58_Vel_0
Time_Shift_1
Note_On_39_Vel_0
Note_On_55_Vel_0
Time_Shift_188
Sustain_On
Time_Shift_342
Note_On_63_Vel_39
Time_Shift_4
Note_On_51_Vel_0
Time_Shift_5
Note_On_58_Vel_35
Time_Shift_6
Note_On_51_Vel_30
Note_On_39_Vel_29
Time_Shift_1
Note_On_55_Vel_25
Time_Shift_26
Sustain_Off
Time_Shift_2
Note_On_60_Vel_0
Note_On_56_Vel_0
Note_On_44_Vel_0
Time_Shift_167
Sustain_On
Time_Shift_391
Note_On_62_Vel_35
Time_Shift_5
Note_On_46_Vel_28
Time_Shift_6
Note_On_53_Vel_25
Time_Shift_5
Note_On_58_Vel_0
Time_Shift_3
Note_On_70_Vel_31
Time_Shift_3
Note_On_58_Vel_28
Time_Shift_12
Note_On_63_Vel_0
Time_Shift_6
Note_On_39_Vel_0
Time_Shift_7
Sustain_Off
Time_Shift_31
Note_On_51_Vel_0
Note_On_55_Vel_0
Time_Shift_153
Sustain_On
Time_Shift_415
Note_On_58_Vel_0
Time_Shift_1
Note_On_39_Vel_30
Time_Shift_2
Note_On_51_Vel_31
Time_Shift_1
Note_On_58_Vel_36
Time_Shift_9
Note_On_63_Vel_31
Time_Shift_28
Note_On_46_Vel_0
Time_Shift_6
Note_On_53_Vel_0
Time_Shift_10
Sustain_Off
Time_Shift_17
Note_On_62_Vel_0
Time_Shift_11
Note_On_70_Vel_0
Time_Shift_130
Sustain_On
Time_Shift_446
Note_On_58_Vel_0
Time_Shift_4
Note_On_46_Vel_32
Time_Shift_1
Note_On_62_Vel_31
Time_Shift_1
Note_On_65_Vel_41
Time_Shift_1
Note_On_58_Vel_32
Time_Shift_30
Note_On_63_Vel_0
Time_Shift_2
Sustain_Off
Time_Shift_2
Note_On_51_Vel_0
Time_Shift_1
Note_On_39_Vel_0
Time_Shift_134
Sustain_On
Time_Shift_422
Note_On_67_Vel_48
Time_Shift_8
Note_On_58_Vel_0
Time_Shift_4
Note_On_51_Vel_36
Note_On_58_Vel_31
Time_Shift_5
Note_On_63_Vel_37
Time_Shift_26
Note_On_65_Vel_0
Time_Shift_1
Note_On_62_Vel_0
Note_On_46_Vel_0
Time_Shift_14
Sustain_Off
Time_Shift_127
Sustain_On
Time_Shift_396
Note_On_68_Vel_54
Time_Shift_19
Note_On_63_Vel_0
Time_Shift_6
Note_On_63_Vel_38
Time_Shift_2
Note_On_60_Vel_32
Time_Shift_4
Note_On_44_Vel_31
Time_Shift_20
Note_On_67_Vel_0
Time_Shift_1
Note_On_51_Vel_0
Time_Shift_1
Sustain_Off
Time_Shift_20
Note_On_58_Vel_0
Time_Shift_145
Sustain_On
Time_Shift_396
Note_On_67_Vel_47
Time_Shift_11
Note_On_63_Vel_0
Time_Shift_2
Note_On_58_Vel_35
Time_Shift_3
Note_On_63_Vel_31
Time_Shift_4
Note_On_51_Vel_29
Time_Shift_20
Sustain_Off
Time_Shift_1
Note_On_60_Vel_0
Time_Shift_4
Note_On_44_Vel_0
Note_On_68_Vel_0
Time_Shift_151
Sustain_On
Time_Shift_432
Note_On_65_Vel_44
Time_Shift_6
Note_On_58_Vel_0
Time_Shift_3
Note_On_62_Vel_36
Time_Shift_7
Note_On_58_Vel_31
Time_Shift_15
Note_On_46_Vel_32
Time_Shift_8
Note_On_67_Vel_0
Time_Shift_1
Sustain_Off
Time_Shift_3
Note_On_51_Vel_0
Time_Shift_16
Note_On_63_Vel_0
Time_Shift_139
Sustain_On
Time_Shift_484
Note_On_63_Vel_38
Time_Shift_3
Note_On_60_Vel_29
Time_Shift_15
Note_On_48_Vel_33
Time_Shift_1
Note_On_55_Vel_25
Time_Shift_8
Sustain_Off
Time_Shift_7
Note_On_46_Vel_0
Note_On_62_Vel_0
Note_On_65_Vel_0
Time_Shift_11
Note_On_58_Vel_0
Time_Shift_192
Sustain_On
Time_Shift_54
Note_On_55_Vel_0
Time_Shift_276
Note_On_56_Vel_36
Time_Shift_118
Note_On_62_Vel_39
Time_Shift_77
Note_On_67_Vel_36
Time_Shift_122
Note_On_65_Vel_39
Time_Shift_1
Sustain_Off
Time_Shift_13
Note_On_46_Vel_33
Time_Shift_3
Note_On_58_Vel_25
Note_On_67_Vel_0
Time_Shift_2
Note_On_48_Vel_0
Time_Shift_3
Note_On_58_Vel_0
Time_Shift_15
Note_On_60_Vel_0
Time_Shift_8
Note_On_63_Vel_0
Time_Shift_69
Sustain_On
Time_Shift_593
Note_On_63_Vel_33
Time_Shift_4
Sustain_Off
Time_Shift_7
Note_On_39_Vel_22
Note_On_55_Vel_20
Time_Shift_4
Note_On_46_Vel_0
Note_On_62_Vel_0
Time_Shift_2
Note_On_65_Vel_0
Time_Shift_1
Note_On_58_Vel_19
Time_Shift_11
Note_On_56_Vel_0
Time_Shift_192
Sustain_On
Time_Shift_609
Note_On_67_Vel_46
Time_Shift_5
Note_On_58_Vel_0
Time_Shift_8
Note_On_63_Vel_0
Time_Shift_1
Note_On_58_Vel_29
Time_Shift_5
Note_On_63_Vel_32
Note_On_51_Vel_29
Time_Shift_52
Sustain_Off
Time_Shift_49
Note_On_55_Vel_0
Time_Shift_70
Sustain_On
Time_Shift_522
Note_On_67_Vel_0
Time_Shift_6
Note_On_67_Vel_48
Time_Shift_5
Note_On_34_Vel_33
Time_Shift_1
Note_On_62_Vel_43
Note_On_46_Vel_30
Time_Shift_48
Sustain_Off
Time_Shift_5
Note_On_63_Vel_0
Time_Shift_4
Note_On_51_Vel_0
Note_On_39_Vel_0
Time_Shift_38
Sustain_On
Time_Shift_515
Note_On_67_Vel_0
Time_Shift_7
Note_On_67_Vel_50
Time_Shift_9
Note_On_60_Vel_38
Time_Shift_7
Note_On_63_Vel_42
Time_Shift_2
Note_On_48_Vel_43
Time_Shift_5
Note_On_36_Vel_34
Time_Shift_43
Sustain_Off
Time_Shift_16
Note_On_34_Vel_0
Time_Shift_3
Note_On_58_Vel_0
Time_Shift_3
Note_On_46_Vel_0
Time_Shift_8
Note_On_62_Vel_0
Time_Shift_104
Sustain_On
Time_Shift_404
Note_On_66_Vel_48
Time_Shift_22
Note_On_62_Vel_40
Note_On_57_Vel_38
Time_Shift_9
Note_On_38_Vel_33
Time_Shift_2
Note_On_50_Vel_33
Time_Shift_29
Note_On_36_Vel_0
Time_Shift_1
Note_On_60_Vel_0
Sustain_Off
Note_On_48_Vel_0
Note_On_63_Vel_0
Time_Shift_25
Note_On_67_Vel_0
Time_Shift_130
Sustain_On
Time_Shift_391
Note_On_65_Vel_53
Time_Shift_8
Note_On_60_Vel_44
Time_Shift_5
Note_On_45_Vel_33
Time_Shift_3
Note_On_33_Vel_36
Time_Shift_42
Note_On_62_Vel_0
Note_On_66_Vel_0
Time_Shift_1
Note_On_38_Vel_0
Time_Shift_1
Sustain_Off
Time_Shift_2
Note_On_50_Vel_0
Time_Shift_162
Sustain_On
Time_Shift_384
Note_On_65_Vel_0
Time_Shift_11
Note_On_65_Vel_60
Time_Shift_15
Note_On_46_Vel_42
Note_On_62_Vel_52
Time_Shift_1
Note_On_34_Vel_39
Time_Shift_39
Sustain_Off
Time_Shift_1
Note_On_60_Vel_0
Note_On_33_Vel_0
Time_Shift_1
Note_On_45_Vel_0
Time_Shift_9
Note_On_57_Vel_0
Time_Shift_145
Sustain_On
Time_Shift_408
Note_On_62_Vel_0
Time_Shift_3
Note_On_70_Vel_59
Time_Shift_4
Note_On_58_Vel_47
Time_Shift_1
Note_On_62_Vel_50
Time_Shift_4
Note_On_31_Vel_41
Time_Shift_1
Note_On_43_Vel_37
Time_Shift_52
Sustain_Off
Note_On_46_Vel_0
Note_On_34_Vel_0
Time_Shift_119
Note_On_65_Vel_0
Time_Shift_23
Sustain_On
Time_Shift_433
Note_On_67_Vel_54
Time_Shift_2
Note_On_64_Vel_53
Time_Shift_3
Note_On_60_Vel_49
Time_Shift_3
Note_On_48_Vel_48
Time_Shift_4
Note_On_36_Vel_41
Time_Shift_43
Sustain_Off
Time_Shift_5
Note_On_31_Vel_0
Note_On_70_Vel_0
Time_Shift_2
Note_On_58_Vel_0
Time_Shift_12
Note_On_62_Vel_0
Time_Shift_7
Note_On_43_Vel_0
Time_Shift_108
Sustain_On
Time_Shift_499
Note_On_48_Vel_0
Time_Shift_16
Note_On_60_Vel_0
Time_Shift_3
Note_On_68_Vel_58
Time_Shift_1
Note_On_65_Vel_45
Note_On_41_Vel_45
Time_Shift_1
Note_On_60_Vel_47
Time_Shift_4
Note_On_29_Vel_51
Time_Shift_49
Note_On_36_Vel_0
Time_Shift_5
Note_On_64_Vel_0
Time_Shift_1
Note_On_67_Vel_0
Time_Shift_9
Sustain_Off
Time_Shift_111
Sustain_On
Time_Shift_497
Note_On_70_Vel_54
Time_Shift_2
Note_On_65_Vel_0
Time_Shift_3
Note_On_46_Vel_41
Time_Shift_1
Note_On_34_Vel_37
Time_Shift_6
Note_On_61_Vel_40
Note_On_65_Vel_42
Time_Shift_2
Note_On_58_Vel_39
Time_Shift_34
Note_On_29_Vel_0
Time_Shift_1
Sustain_Off
Time_Shift_9
Note_On_68_Vel_0
Note_On_41_Vel_0
Time_Shift_5
Note_On_60_Vel_0
Time_Shift_154
Sustain_On
Time_Shift_415
Note_On_58_Vel_0
Note_On_70_Vel_0
Time_Shift_4
Note_On_70_Vel_46
Time_Shift_1
Note_On_58_Vel_39
Time_Shift_1
Note_On_64_Vel_46
Time_Shift_4
Note_On_67_Vel_48
Time_Shift_13
Note_On_34_Vel_0
Time_Shift_6
Note_On_48_Vel_34
Time_Shift_2
Note_On_36_Vel_33
Time_Shift_4
Sustain_Off
Time_Shift_6
Note_On_61_Vel_0
Time_Shift_1
Note_On_46_Vel_0
Time_Shift_19
Note_On_65_Vel_0
Time_Shift_208
Sustain_On
Time_Shift_456
Note_On_68_Vel_38
Time_Shift_1
Note_On_65_Vel_33
Time_Shift_1
Note_On_41_Vel_28
Note_On_56_Vel_37
Time_Shift_22
Sustain_Off
Time_Shift_3
Note_On_36_Vel_0
Note_On_64_Vel_0
Time_Shift_1
Note_On_48_Vel_0
Note_On_67_Vel_0
Time_Shift_15
Note_On_58_Vel_0
Note_On_70_Vel_0
Time_Shift_153
Sustain_On
Time_Shift_615
Note_On_65_Vel_0
Note_On_68_Vel_0
Time_Shift_4
Note_On_68_Vel_43
Time_Shift_5
Note_On_65_Vel_31
Time_Shift_14
Note_On_41_Vel_0
Time_Shift_10
Note_On_41_Vel_32
Time_Shift_5
Note_On_29_Vel_33
Time_Shift_24
Note_On_60_Vel_32
Time_Shift_14
Sustain_Off
Time_Shift_77
Sustain_On
Time_Shift_308
Note_On_56_Vel_0
Time_Shift_234
Note_On_61_Vel_37
Time_Shift_104
Note_On_65_Vel_0
Time_Shift_4
Note_On_65_Vel_29
Time_Shift_93
Note_On_72_Vel_46
Time_Shift_97
Sustain_Off
Time_Shift_17
Note_On_46_Vel_23
Note_On_34_Vel_22
Time_Shift_1
Note_On_70_Vel_43
Time_Shift_20
Note_On_29_Vel_0
Time_Shift_2
Note_On_41_Vel_0
Note_On_68_Vel_0
Time_Shift_1
Note_On_60_Vel_0
Time_Shift_4
Note_On_72_Vel_0
Time_Shift_244
Sustain_On
Time_Shift_357
Note_On_67_Vel_36
Time_Shift_20
Note_On_58_Vel_25
Time_Shift_3
Note_On_64_Vel_31
Note_On_48_Vel_25
Note_On_36_Vel_26
Time_Shift_1
Sustain_Off
Time_Shift_56
Note_On_46_Vel_0
Time_Shift_1
Note_On_34_Vel_0
Time_Shift_1
Note_On_61_Vel_0
Time_Shift_3
Note_On_70_Vel_0
Time_Shift_19
Note_On_65_Vel_0
Time_Shift_261
Sustain_On
Time_Shift_457
Note_On_56_Vel_26
Note_On_65_Vel_24
Time_Shift_20
Note_On_41_Vel_22
Time_Shift_25
Sustain_Off
Time_Shift_3
Note_On_58_Vel_0
Time_Shift_6
Note_On_67_Vel_0
Time_Shift_1
Note_On_48_Vel_0
Time_Shift_3
Note_On_36_Vel_0
Time_Shift_3
Note_On_64_Vel_0
Time_Shift_235
Sustain_On
Time_Shift_676
Note_On_63_Vel_39
Time_Shift_9
Note_On_60_Vel_29
Time_Shift_13
Note_On_32_Vel_23
Time_Shift_2
Note_On_44_Vel_26
Time_Shift_9
Sustain_Off
Time_Shift_11
Note_On_56_Vel_0
Time_Shift_1
Note_On_65_Vel_0
Time_Shift_3
Note_On_41_Vel_0
Time_Shift_190
Sustain_On
Time_Shift_499
Note_On_63_Vel_0
Time_Shift_8
Note_On_60_Vel_0
Time_Shift_3
Note_On_63_Vel_43
Time_Shift_2
Note_On_60_Vel_32
Time_Shift_6
Note_On_39_Vel_27
Time_Shift_6
Note_On_55_Vel_25
Time_Shift_27
Note_On_32_Vel_0
Time_Shift_1
Note_On_44_Vel_0
Time_Shift_4
Sustain_Off
Time_Shift_173
Sustain_On
Time_Shift_384
Note_On_63_Vel_0
Time_Shift_10
Note_On_63_Vel_48
Time_Shift_10
Note_On_43_Vel_32
Time_Shift_1
Note_On_58_Vel_44
Time_Shift_6
Note_On_31_Vel_32
Time_Shift_30
Sustain_Off
Time_Shift_3
Note_On_39_Vel_0
Time_Shift_17
Note_On_60_Vel_0
Time_Shift_169
Sustain_On
Time_Shift_410
Note_On_62_Vel_52
Time_Shift_5
Note_On_58_Vel_0
Time_Shift_2
Note_On_46_Vel_34
Time_Shift_1
Note_On_34_Vel_33
Note_On_53_Vel_36
Time_Shift_2
Note_On_58_Vel_42
Time_Shift_32
Sustain_Off
Time_Shift_13
Note_On_31_Vel_0
Time_Shift_1
Note_On_43_Vel_0
Time_Shift_18
Note_On_63_Vel_0
Time_Shift_15
Note_On_55_Vel_0
Time_Shift_146
Sustain_On
Time_Shift_415
Note_On_62_Vel_0
Time_Shift_10
Note_On_62_Vel_45
Time_Shift_8
Note_On_57_Vel_45
Time_Shift_5
Note_On_29_Vel_41
Time_Shift_1
Note_On_41_Vel_34
Time_Shift_22
Note_On_46_Vel_0
Time_Shift_19
Sustain_Off
Time_Shift_6
Note_On_53_Vel_0
Time_Shift_6
Note_On_34_Vel_0
Time_Shift_31
Note_On_58_Vel_0
Time_Shift_92
Sustain_On
Time_Shift_437
Note_On_62_Vel_0
Time_Shift_5
Note_On_62_Vel_46
Time_Shift_6
Note_On_58_Vel_50
Time_Shift_2
Note_On_43_Vel_43
Time_Shift_4
Note_On_31_Vel_42
Time_Shift_36
Note_On_29_Vel_0
Time_Shift_3
Note_On_41_Vel_0
Note_On_57_Vel_0
Time_Shift_11
Sustain_Off
Time_Shift_156
Sustain_On
Time_Shift_452
Note_On_67_Vel_44
Time_Shift_1
Note_On_58_Vel_0
Note_On_62_Vel_0
Time_Shift_7
Note_On_58_Vel_43
Time_Shift_3
Note_On_40_Vel_35
Time_Shift_1
Note_On_28_Vel_41
Note_On_62_Vel_40
Time_Shift_1
Note_On_55_Vel_40
Time_Shift_27
Note_On_43_Vel_0
Time_Shift_3
Note_On_31_Vel_0
Time_Shift_10
Sustain_Off
Time_Shift_102
Sustain_On
Time_Shift_532
Note_On_61_Vel_48
Time_Shift_9
Note_On_57_Vel_47
Time_Shift_9
Note_On_52_Vel_38
Time_Shift_5
Note_On_45_Vel_40
Time_Shift_8
Note_On_33_Vel_36
Time_Shift_23
Sustain_Off
Time_Shift_1
Note_On_67_Vel_0
Time_Shift_1
Note_On_40_Vel_0
Note_On_55_Vel_0
Time_Shift_26
Note_On_28_Vel_0
Note_On_58_Vel_0
Note_On_62_Vel_0
Time_Shift_139
Sustain_On
Time_Shift_487
Note_On_62_Vel_57
Time_Shift_4
Note_On_57_Vel_0
Time_Shift_4
Note_On_57_Vel_49
Time_Shift_7
Note_On_26_Vel_39
Time_Shift_3
Note_On_38_Vel_37
Time_Shift_37
Sustain_Off
Time_Shift_13
Note_On_45_Vel_0
Note_On_33_Vel_0
Note_On_52_Vel_0
Time_Shift_2
Note_On_61_Vel_0
Time_Shift_157
Sustain_On
Time_Shift_430
Note_On_63_Vel_60
Time_Shift_13
Note_On_60_Vel_49
Time_Shift_4
Note_On_24_Vel_42
Time_Shift_1
Note_On_43_Vel_36
Note_On_55_Vel_47
Time_Shift_1
Note_On_36_Vel_38
Time_Shift_1
Note_On_31_Vel_38
Time_Shift_3
Note_On_43_Vel_0
Time_Shift_73
Sustain_Off
Time_Shift_1
Note_On_62_Vel_0
Time_Shift_1
Note_On_26_Vel_0
Time_Shift_1
Note_On_38_Vel_0
Time_Shift_1
Note_On_57_Vel_0
Time_Shift_146
Sustain_On
Time_Shift_399
Note_On_24_Vel_0
Note_On_36_Vel_0
Note_On_63_Vel_0
Time_Shift_4
Note_On_24_Vel_45
Time_Shift_2
Note_On_63_Vel_59
Time_Shift_2
Note_On_55_Vel_0
Note_On_60_Vel_0
Time_Shift_1
Note_On_36_Vel_41
Time_Shift_3
Note_On_60_Vel_39
Time_Shift_5
Note_On_55_Vel_41
Time_Shift_47
Sustain_Off
Time_Shift_67
Sustain_On
Time_Shift_517
Note_On_62_Vel_61
Time_Shift_11
Note_On_54_Vel_44
Time_Shift_3
Note_On_57_Vel_53
Time_Shift_8
Note_On_26_Vel_40
Time_Shift_3
Note_On_38_Vel_38
Time_Shift_26
Sustain_Off
Time_Shift_7
Note_On_63_Vel_0
Time_Shift_8
Note_On_24_Vel_0
Note_On_31_Vel_0
Note_On_55_Vel_0
Time_Shift_8
Note_On_36_Vel_0
Time_Shift_15
Note_On_60_Vel_0
Time_Shift_131
Sustain_On
Time_Shift_407
Note_On_62_Vel_0
Time_Shift_8
Note_On_54_Vel_0
Note_On_57_Vel_0
Time_Shift_3
Note_On_62_Vel_64
Time_Shift_4
Note_On_26_Vel_0
Note_On_38_Vel_0
Time_Shift_2
Note_On_54_Vel_45
Note_On_57_Vel_55
Time_Shift_3
Note_On_26_Vel_44
Time_Shift_3
Note_On_38_Vel_42
Time_Shift_50
Sustain_Off
Time_Shift_119
Sustain_On
Time_Shift_570
Note_On_63_Vel_50
Time_Shift_7
Note_On_31_Vel_34
Time_Shift_3
Note_On_43_Vel_31
Time_Shift_1
Note_On_36_Vel_35
Time_Shift_1
Note_On_55_Vel_40
Time_Shift_3
Note_On_60_Vel_41
Sustain_Off
Time_Shift_3
Note_On_26_Vel_0
Note_On_38_Vel_0
Time_Shift_11
Note_On_57_Vel_0
Time_Shift_8
Note_On_54_Vel_0
Note_On_62_Vel_0
Time_Shift_222
Sustain_On
Time_Shift_530
Note_On_31_Vel_0
Note_On_60_Vel_0
Time_Shift_7
Note_On_60_Vel_31
Time_Shift_3
Note_On_41_Vel_31
Time_Shift_12
Note_On_29_Vel_34
Time_Shift_9
Note_On_56_Vel_36
Time_Shift_22
Sustain_Off
Time_Shift_1
Note_On_43_Vel_0
Time_Shift_5
Note_On_36_Vel_0
Time_Shift_4
Note_On_63_Vel_0
Time_Shift_1
Note_On_55_Vel_0
Time_Shift_174
Sustain_On
Time_Shift_738
Note_On_58_Vel_38
Time_Shift_25
Note_On_53_Vel_26
Time_Shift_5
Note_On_46_Vel_23
Time_Shift_1
Note_On_50_Vel_26
Time_Shift_3
Note_On_38_Vel_21
Note_On_34_Vel_23
Time_Shift_12
Note_On_38_Vel_0
Time_Shift_3
Sustain_Off
Time_Shift_15
Note_On_29_Vel_0
Time_Shift_1
Note_On_56_Vel_0
Time_Shift_19
Note_On_60_Vel_0
Time_Shift_238
Sustain_On
Time_Shift_876
Note_On_58_Vel_0
Time_Shift_7
Note_On_41_Vel_0
Time_Shift_3
Note_On_58_Vel_39
Time_Shift_5
Note_On_50_Vel_0
Time_Shift_4
Note_On_46_Vel_0
Time_Shift_1
Note_On_55_Vel_33
Time_Shift_2
Note_On_51_Vel_29
Time_Shift_1
Note_On_53_Vel_0
Time_Shift_3
Note_On_39_Vel_31
Time_Shift_39
Sustain_Off
Time_Shift_35
Note_On_34_Vel_0
Time_Shift_99
Sustain_On
Time_Shift_509
Note_On_60_Vel_52
Time_Shift_21
Note_On_51_Vel_0
Time_Shift_4
Note_On_32_Vel_29
Time_Shift_4
Note_On_51_Vel_27
Time_Shift_3
Note_On_44_Vel_32
Note_On_56_Vel_37
Time_Shift_16
Note_On_55_Vel_0
Time_Shift_1
Note_On_39_Vel_0
Time_Shift_4
Sustain_Off
Time_Shift_22
Note_On_58_Vel_0
Time_Shift_177
Sustain_On
Time_Shift_361
Note_On_60_Vel_0
Time_Shift_6
Note_On_60_Vel_52
Time_Shift_9
Note_On_32_Vel_0
Time_Shift_8
Note_On_44_Vel_0
Note_On_51_Vel_0
Note_On_56_Vel_0
Time_Shift_3
Note_On_32_Vel_30
Time_Shift_2
Note_On_56_Vel_38
Time_Shift_2
Note_On_51_Vel_26
Time_Shift_3
Note_On_44_Vel_33
Time_Shift_627
Note_On_51_Vel_0
Time_Shift_3
Note_On_58_Vel_44
Time_Shift_2
Sustain_Off
Time_Shift_1
Note_On_51_Vel_30
Time_Shift_2
Note_On_55_Vel_32
Time_Shift_6
Note_On_32_Vel_0
Time_Shift_3
Note_On_56_Vel_0
Time_Shift_1
Note_On_44_Vel_0
Time_Shift_21
Note_On_60_Vel_0
Time_Shift_199
Sustain_On
Time_Shift_415
Note_On_51_Vel_0
Note_On_60_Vel_45
Time_Shift_3
Note_On_44_Vel_35
Time_Shift_5
Note_On_56_Vel_37
Note_On_51_Vel_28
Time_Shift_52
Sustain_Off
Time_Shift_5
Note_On_58_Vel_0
Time_Shift_4
Note_On_55_Vel_0
Time_Shift_169
Sustain_On
Time_Shift_421
Note_On_63_Vel_46
Time_Shift_5
Note_On_58_Vel_38
Time_Shift_6
Note_On_55_Vel_34
Time_Shift_15
Note_On_39_Vel_27
Time_Shift_18
Note_On_60_Vel_0
Note_On_56_Vel_0
Note_On_44_Vel_0
Time_Shift_1
Sustain_Off
Time_Shift_187
Sustain_On
Time_Shift_418
Note_On_62_Vel_54
Note_On_53_Vel_37
Time_Shift_5
Note_On_46_Vel_38
Time_Shift_1
Note_On_34_Vel_35
Time_Shift_14
Note_On_58_Vel_0
Time_Shift_4
Note_On_58_Vel_47
Time_Shift_27
Note_On_55_Vel_0
Time_Shift_1
Sustain_Off
Time_Shift_1
Note_On_63_Vel_0
Time_Shift_13
Note_On_39_Vel_0
Note_On_51_Vel_0
Time_Shift_92
Sustain_On
Time_Shift_481
Note_On_63_Vel_56
Time_Shift_18
Note_On_58_Vel_0
Time_Shift_9
Note_On_39_Vel_31
Time_Shift_2
Note_On_58_Vel_38
Time_Shift_2
Note_On_55_Vel_40
Time_Shift_5
Note_On_53_Vel_0
Time_Shift_1
Note_On_46_Vel_0
Note_On_62_Vel_0
Time_Shift_18
Sustain_Off
Time_Shift_1
Note_On_34_Vel_0
Time_Shift_139
Sustain_On
Time_Shift_466
Note_On_65_Vel_53
Time_Shift_10
Note_On_58_Vel_0
Time_Shift_4
Note_On_58_Vel_42
Note_On_62_Vel_52
Time_Shift_2
Note_On_46_Vel_45
Time_Shift_35
Note_On_63_Vel_0
Time_Shift_1
Note_On_55_Vel_0
Sustain_Off
Note_On_39_Vel_0
Time_Shift_157
Sustain_On
Time_Shift_431
Note_On_58_Vel_0
Time_Shift_2
Note_On_67_Vel_59
Time_Shift_6
Note_On_58_Vel_50
Time_Shift_12
Note_On_63_Vel_40
Note_On_51_Vel_43
Time_Shift_27
Sustain_Off
Time_Shift_9
Note_On_46_Vel_0
Note_On_65_Vel_0
Note_On_62_Vel_0
Time_Shift_166
Sustain_On
Time_Shift_414
Note_On_68_Vel_63
Time_Shift_1
Note_On_63_Vel_0
Time_Shift_8
Note_On_60_Vel_46
Time_Shift_2
Note_On_63_Vel_47
Time_Shift_3
Note_On_44_Vel_41
Time_Shift_22
Sustain_Off
Time_Shift_4
Note_On_51_Vel_0
Note_On_67_Vel_0
Time_Shift_22
Note_On_58_Vel_0
Time_Shift_139
Sustain_On
Time_Shift_453
Note_On_63_Vel_0
Time_Shift_2
Note_On_67_Vel_46
Time_Shift_1
Note_On_58_Vel_40
Time_Shift_6
Note_On_51_Vel_37
Time_Shift_1
Note_On_63_Vel_38
Time_Shift_38
Sustain_Off
Time_Shift_14
Note_On_68_Vel_0
Time_Shift_1
Note_On_60_Vel_0
Time_Shift_2
Note_On_44_Vel_0
Time_Shift_158
Sustain_On
Time_Shift_441
Note_On_65_Vel_48
Time_Shift_4
Note_On_58_Vel_0
Time_Shift_3
Note_On_62_Vel_43
Time_Shift_1
Note_On_58_Vel_37
Time_Shift_18
Note_On_46_Vel_35
Time_Shift_19
Sustain_Off
Time_Shift_5
Note_On_67_Vel_0
Time_Shift_3
Note_On_51_Vel_0
Time_Shift_20
Note_On_63_Vel_0
Time_Shift_169
Sustain_On
Time_Shift_432
Note_On_63_Vel_54
Time_Shift_25
Note_On_60_Vel_43
Note_On_55_Vel_33
Note_On_48_Vel_42
Time_Shift_21
Sustain_Off
Time_Shift_1
Note_On_46_Vel_0
Note_On_65_Vel_0
Note_On_62_Vel_0
Time_Shift_20
Note_On_58_Vel_0
Time_Shift_177
Sustain_On
Time_Shift_311
Note_On_56_Vel_44
Time_Shift_79
Note_On_62_Vel_50
Time_Shift_119
Note_On_67_Vel_41
Time_Shift_22
Note_On_60_Vel_0
Time_Shift_1
Note_On_55_Vel_0
Time_Shift_2
Note_On_63_Vel_0
Time_Shift_5
Sustain_Off
Time_Shift_29
Note_On_48_Vel_0
Note_On_56_Vel_0
Time_Shift_5
Note_On_56_Vel_9
Time_Shift_54
Note_On_65_Vel_47
Time_Shift_13
Note_On_46_Vel_38
Time_Shift_3
Note_On_58_Vel_31
Time_Shift_20
Note_On_67_Vel_0
Time_Shift_235
Sustain_On
Time_Shift_464
Note_On_63_Vel_43
Time_Shift_1
Note_On_39_Vel_30
Time_Shift_1
Note_On_55_Vel_35
Time_Shift_15
Sustain_Off
Time_Shift_8
Note_On_56_Vel_0
Time_Shift_3
Note_On_62_Vel_0
Note_On_46_Vel_0
Time_Shift_2
Note_On_65_Vel_0
Time_Shift_267
Sustain_On
Time_Shift_606
Note_On_58_Vel_0
Time_Shift_8
Note_On_58_Vel_39
Time_Shift_16
Note_On_55_Vel_0
Time_Shift_9
Note_On_51_Vel_36
Time_Shift_1
Note_On_55_Vel_25
Time_Shift_22
Sustain_Off
Time_Shift_136
Sustain_On
Time_Shift_611
Note_On_60_Vel_49
Time_Shift_19
Note_On_51_Vel_0
Time_Shift_7
Note_On_32_Vel_29
Time_Shift_1
Note_On_56_Vel_31
Time_Shift_1
Note_On_51_Vel_30
Time_Shift_1
Sustain_Off
Time_Shift_3
Note_On_44_Vel_31
Time_Shift_5
Note_On_63_Vel_0
Time_Shift_1
Note_On_55_Vel_0
Time_Shift_1
Note_On_39_Vel_0
Time_Shift_26
Note_On_58_Vel_0
Time_Shift_162
Sustain_On
Time_Shift_491
Note_On_56_Vel_0
Note_On_60_Vel_0
Time_Shift_5
Note_On_60_Vel_43
Time_Shift_1
Note_On_56_Vel_35
Time_Shift_9
Note_On_32_Vel_0
Note_On_44_Vel_0
Note_On_51_Vel_0
Time_Shift_10
Note_On_32_Vel_28
Time_Shift_2
Note_On_51_Vel_31
Note_On_44_Vel_32
Time_Shift_764
Note_On_51_Vel_0
Time_Shift_2
Note_On_58_Vel_40
Time_Shift_5
Note_On_39_Vel_33
Note_On_55_Vel_29
Time_Shift_3
Note_On_51_Vel_28
Time_Shift_45
Sustain_Off
Time_Shift_1
Note_On_32_Vel_0
Time_Shift_2
Note_On_44_Vel_0
Note_On_56_Vel_0
Time_Shift_19
Note_On_60_Vel_0
Time_Shift_545
Sustain_On
Time_Shift_956
Sustain_Off
Time_Shift_50
Note_On_51_Vel_0
Time_Shift_39
Note_On_55_Vel_0
Time_Shift_15
Note_On_39_Vel_0
Note_On_58_Vel_0
Time_Shift_457
Note_On_60_Vel_45
Time_Shift_7
Note_On_56_Vel_36
Time_Shift_6
Note_On_51_Vel_30
Time_Shift_1
Note_On_44_Vel_33
Time_Shift_190
Sustain_On
Time_Shift_560
Note_On_51_Vel_0
Time_Shift_3
Note_On_63_Vel_51
Time_Shift_1
Note_On_58_Vel_44
Time_Shift_1
Note_On_55_Vel_38
Time_Shift_6
Note_On_51_Vel_34
Time_Shift_1
Note_On_39_Vel_33
Time_Shift_31
Sustain_Off
Time_Shift_10
Note_On_60_Vel_0
Note_On_56_Vel_0
Time_Shift_1
Note_On_44_Vel_0
Time_Shift_184
Sustain_On
Time_Shift_558
Note_On_62_Vel_47
Time_Shift_11
Note_On_58_Vel_0
Time_Shift_4
Note_On_53_Vel_28
Time_Shift_2
Note_On_46_Vel_31
Time_Shift_2
Note_On_58_Vel_39
Time_Shift_38
Sustain_Off
Time_Shift_5
Note_On_63_Vel_0
Note_On_55_Vel_0
Time_Shift_1
Note_On_39_Vel_0
Time_Shift_24
Note_On_51_Vel_0
Time_Shift_162
Sustain_On
Time_Shift_791
Note_On_58_Vel_0
Time_Shift_3
Note_On_39_Vel_24
Time_Shift_1
Note_On_51_Vel_28
Time_Shift_2
Note_On_58_Vel_27
Time_Shift_6
Note_On_63_Vel_32
Time_Shift_11
Note_On_55_Vel_23
Time_Shift_3
Sustain_Off
Time_Shift_2
Note_On_62_Vel_0
Time_Shift_3
Note_On_53_Vel_0
Note_On_46_Vel_0
Time_Shift_483
Sustain_On
Time_Shift_1330
Note_On_63_Vel_0
Time_Shift_3
Sustain_Off
Note_On_55_Vel_0
Time_Shift_27
Note_On_51_Vel_0
Time_Shift_23
Note_On_39_Vel_0
Note_On_58_Vel_0
Time_Shift_44
Note_On_65_Vel_51
Time_Shift_10
Note_On_62_Vel_46
Time_Shift_3
Note_On_58_Vel_41
Time_Shift_3
Note_On_46_Vel_41
Time_Shift_262
Sustain_On
Time_Shift_530
Note_On_58_Vel_0
Time_Shift_9
Note_On_67_Vel_61
Time_Shift_2
Note_On_61_Vel_55
Note_On_58_Vel_54
Time_Shift_3
Note_On_63_Vel_59
Time_Shift_4
Note_On_51_Vel_50
Time_Shift_1
Note_On_39_Vel_48
Time_Shift_4
Note_On_39_Vel_0
Time_Shift_38
Sustain_Off
Time_Shift_1
Note_On_46_Vel_0
Time_Shift_1
Note_On_62_Vel_0
Note_On_65_Vel_0
Time_Shift_229
Sustain_On
Time_Shift_365
Note_On_60_Vel_59
Time_Shift_50
Note_On_63_Vel_0
Time_Shift_4
Note_On_63_Vel_57
Time_Shift_113
Note_On_70_Vel_62
Time_Shift_90
Note_On_68_Vel_67
Time_Shift_27
Note_On_44_Vel_49
Sustain_Off
Time_Shift_6
Note_On_61_Vel_0
Note_On_67_Vel_0
Note_On_70_Vel_0
Time_Shift_1
Note_On_51_Vel_0
Time_Shift_12
Note_On_58_Vel_0
Time_Shift_208
Sustain_On
Time_Shift_803
Note_On_58_Vel_43
Time_Shift_3
Note_On_64_Vel_47
Time_Shift_4
Note_On_48_Vel_42
Note_On_67_Vel_48
Time_Shift_115
Note_On_68_Vel_0
Time_Shift_1
Note_On_44_Vel_0
Time_Shift_3
Note_On_60_Vel_0
Note_On_63_Vel_0
Time_Shift_5
Sustain_Off
Time_Shift_801
Sustain_On
Time_Shift_1253
Note_On_67_Vel_0
Time_Shift_32
Sustain_Off
Time_Shift_3
Note_On_65_Vel_36
Time_Shift_18
Note_On_48_Vel_0
Time_Shift_6
Note_On_60_Vel_34
Time_Shift_3
Note_On_56_Vel_32
Time_Shift_1
Note_On_48_Vel_30
Time_Shift_1
Note_On_41_Vel_28
Time_Shift_20
Note_On_58_Vel_0
Time_Shift_7
Note_On_64_Vel_0
Time_Shift_223
Sustain_On
Time_Shift_579
Note_On_63_Vel_40
Time_Shift_2
Note_On_55_Vel_31
Time_Shift_3
Note_On_48_Vel_0
Note_On_60_Vel_0
Time_Shift_4
Note_On_60_Vel_31
Time_Shift_1
Note_On_48_Vel_32
Time_Shift_4
Note_On_36_Vel_28
Time_Shift_26
Sustain_Off
Time_Shift_12
Note_On_41_Vel_0
Time_Shift_1
Note_On_56_Vel_0
Note_On_65_Vel_0
Time_Shift_197
Sustain_On
Time_Shift_581
Note_On_56_Vel_31
Time_Shift_88
Note_On_60_Vel_0
Time_Shift_8
Note_On_60_Vel_35
Time_Shift_124
Note_On_67_Vel_28
Time_Shift_113
Note_On_48_Vel_0
Time_Shift_4
Note_On_48_Vel_22
Time_Shift_1
Note_On_65_Vel_37
Note_On_41_Vel_22
Time_Shift_41
Note_On_36_Vel_0
Time_Shift_3
Sustain_Off
Time_Shift_9
Note_On_55_Vel_0
Time_Shift_1
Note_On_63_Vel_0
Time_Shift_164
Sustain_On
Time_Shift_23
Note_On_67_Vel_0
Time_Shift_832
Note_On_63_Vel_35
Time_Shift_5
Note_On_60_Vel_0
Time_Shift_8
Note_On_48_Vel_0
Time_Shift_3
Note_On_60_Vel_29
Time_Shift_2
Note_On_48_Vel_23
Note_On_36_Vel_19
Time_Shift_3
Note_On_55_Vel_18
Time_Shift_18
Note_On_56_Vel_0
Time_Shift_1
Sustain_Off
Note_On_65_Vel_0
Time_Shift_5
Note_On_41_Vel_0
Time_Shift_221
Sustain_On
Time_Shift_1360
Note_On_55_Vel_0
Time_Shift_1
Note_On_60_Vel_0
Time_Shift_1
Note_On_48_Vel_0
Time_Shift_1
Note_On_63_Vel_0
Time_Shift_1
Sustain_Off
Time_Shift_19
Note_On_36_Vel_0
Time_Shift_27
Note_On_30_Vel_44
Time_Shift_157
Note_On_30_Vel_0
Time_Shift_23
Sustain_On
Time_Shift_73
Note_On_42_Vel_46
Time_Shift_193
Note_On_50_Vel_50
Time_Shift_217
Note_On_57_Vel_57
Time_Shift_419
Note_On_62_Vel_67
Time_Shift_1924
Note_On_74_Vel_62
Time_Shift_722
Note_On_74_Vel_0
Time_Shift_5
Note_On_74_Vel_60
Time_Shift_756
Note_On_42_Vel_0
Note_On_50_Vel_0
Note_On_57_Vel_0
Note_On_62_Vel_0
Time_Shift_176
Note_On_74_Vel_0
Time_Shift_8
Note_On_74_Vel_50
Time_Shift_31
Sustain_Off
Time_Shift_122
Sustain_On
Time_Shift_384
Note_On_74_Vel_0
Time_Shift_5
Note_On_74_Vel_41
Time_Shift_610
Note_On_74_Vel_0
Time_Shift_4
Note_On_74_Vel_38
Time_Shift_22
Note_On_31_Vel_18
Time_Shift_16
Sustain_Off
Time_Shift_150
Sustain_On
Time_Shift_586
Note_On_72_Vel_45
Time_Shift_66
Note_On_50_Vel_22
Time_Shift_39
Note_On_31_Vel_0
Time_Shift_334
Note_On_70_Vel_46
Time_Shift_145
Note_On_69_Vel_45
Time_Shift_97
Note_On_70_Vel_0
Time_Shift_9
Note_On_70_Vel_43
Time_Shift_68
Note_On_72_Vel_0
Time_Shift_10
Note_On_72_Vel_52
Time_Shift_109
Sustain_Off
Time_Shift_11
Note_On_70_Vel_0
Time_Shift_4
Note_On_50_Vel_0
Note_On_72_Vel_0
Time_Shift_1
Note_On_69_Vel_0
Note_On_70_Vel_42
Time_Shift_1
Note_On_74_Vel_0
Time_Shift_3
Note_On_63_Vel_33
Time_Shift_2
Note_On_60_Vel_31
Time_Shift_166
Sustain_On
Time_Shift_295
Note_On_69_Vel_35
Time_Shift_291
Note_On_50_Vel_24
Time_Shift_1
Note_On_62_Vel_35
Time_Shift_28
Sustain_Off
Time_Shift_18
Note_On_63_Vel_0
Note_On_70_Vel_0
Time_Shift_1
Note_On_60_Vel_0
Time_Shift_219
Sustain_On
Time_Shift_284
Note_On_69_Vel_0
Time_Shift_150
Note_On_63_Vel_42
Time_Shift_1
Note_On_58_Vel_34
Time_Shift_30
Note_On_55_Vel_13
Time_Shift_6
Sustain_Off
Time_Shift_8
Note_On_50_Vel_0
Note_On_62_Vel_0
Time_Shift_173
Sustain_On
Time_Shift_228
Sustain_Off
Time_Shift_22
Note_On_70_Vel_53
Time_Shift_34
Sustain_On
Time_Shift_262
Note_On_70_Vel_0
Time_Shift_11
Note_On_70_Vel_49
Time_Shift_15
Note_On_50_Vel_34
Time_Shift_1
Note_On_62_Vel_30
Time_Shift_13
Sustain_Off
Time_Shift_18
Note_On_63_Vel_0
Time_Shift_1
Note_On_58_Vel_0
Time_Shift_3
Note_On_55_Vel_0
Time_Shift_183
Sustain_On
Time_Shift_13
Note_On_69_Vel_47
Time_Shift_223
Note_On_67_Vel_45
Time_Shift_219
Note_On_66_Vel_40
Time_Shift_2
Note_On_63_Vel_34
Sustain_Off
Time_Shift_3
Note_On_67_Vel_0
Time_Shift_8
Note_On_69_Vel_0
Time_Shift_1
Note_On_62_Vel_0
Time_Shift_15
Note_On_70_Vel_0
Time_Shift_6
Note_On_60_Vel_28
Time_Shift_4
Note_On_57_Vel_29
Time_Shift_198
Sustain_On
Time_Shift_437
Note_On_50_Vel_0
Time_Shift_2
Note_On_62_Vel_37
Time_Shift_8
Note_On_50_Vel_27
Time_Shift_17
Sustain_Off
Time_Shift_17
Note_On_66_Vel_0
Note_On_57_Vel_0
Time_Shift_1
Note_On_60_Vel_0
Note_On_63_Vel_0
Time_Shift_132
Sustain_On
Time_Shift_451
Note_On_43_Vel_28
Time_Shift_2
Note_On_67_Vel_56
Time_Shift_25
Sustain_Off
Time_Shift_7
Note_On_50_Vel_0
Time_Shift_11
Note_On_62_Vel_0
Time_Shift_164
Sustain_On
Time_Shift_420
Note_On_69_Vel_59
Time_Shift_3
Note_On_43_Vel_0
Time_Shift_10
Note_On_62_Vel_32
Time_Shift_1
Note_On_43_Vel_25
Time_Shift_7
Note_On_55_Vel_24
Time_Shift_1
Note_On_58_Vel_26
Time_Shift_4
Sustain_Off
Time_Shift_29
Note_On_67_Vel_0
Time_Shift_124
Sustain_On
Time_Shift_146
Note_On_70_Vel_63
Time_Shift_235
Note_On_69_Vel_0
Time_Shift_2
Note_On_62_Vel_0
Time_Shift_17
Note_On_55_Vel_0
Time_Shift_1
Sustain_Off
Time_Shift_14
Note_On_58_Vel_0
Time_Shift_11
Note_On_72_Vel_63
Time_Shift_1
Note_On_36_Vel_28
Time_Shift_11
Note_On_43_Vel_0
Time_Shift_6
Note_On_70_Vel_0
Time_Shift_156
Sustain_On
Time_Shift_425
Note_On_74_Vel_67
Time_Shift_4
Note_On_63_Vel_31
Time_Shift_4
Note_On_55_Vel_29
Time_Shift_15
Note_On_60_Vel_27
Time_Shift_306
Note_On_75_Vel_76
Time_Shift_301
Sustain_Off
Time_Shift_2
Note_On_74_Vel_0
Note_On_72_Vel_0
Time_Shift_1
Note_On_36_Vel_0
Note_On_63_Vel_0
Note_On_75_Vel_0
Note_On_60_Vel_0
Time_Shift_1
Note_On_55_Vel_0
Time_Shift_25
Note_On_69_Vel_58
Time_Shift_18
Note_On_41_Vel_32
Time_Shift_9
Note_On_53_Vel_23
Time_Shift_10
Note_On_53_Vel_0
Time_Shift_123
Sustain_On
Time_Shift_146
Note_On_41_Vel_0
Time_Shift_444
Note_On_63_Vel_35
Time_Shift_1
Note_On_67_Vel_40
Time_Shift_628
Note_On_65_Vel_36
Time_Shift_35
Note_On_62_Vel_37
Time_Shift_27
Note_On_63_Vel_0
Time_Shift_2
Note_On_69_Vel_0
Time_Shift_10
Sustain_Off
Time_Shift_166
Sustain_On
Time_Shift_434
Note_On_79_Vel_61
Time_Shift_234
Note_On_79_Vel_0
Time_Shift_4
Note_On_79_Vel_55
Time_Shift_28
Note_On_63_Vel_27
Time_Shift_3
Note_On_60_Vel_24
Time_Shift_24
Sustain_Off
Time_Shift_7
Note_On_62_Vel_0
Note_On_65_Vel_0
Time_Shift_134
Sustain_On
Time_Shift_107
Note_On_67_Vel_0
Time_Shift_11
Note_On_77_Vel_69
Time_Shift_48
Sustain_Off
Time_Shift_33
Sustain_On
Time_Shift_165
Note_On_75_Vel_79
Time_Shift_232
Note_On_74_Vel_70
Time_Shift_29
Note_On_46_Vel_25
Note_On_34_Vel_28
Time_Shift_3
Sustain_Off
Time_Shift_6
Note_On_77_Vel_0
Time_Shift_1
Note_On_63_Vel_0
Time_Shift_1
Note_On_60_Vel_0
Note_On_75_Vel_0
Time_Shift_9
Note_On_79_Vel_0
Time_Shift_130
Sustain_On
Time_Shift_64
Note_On_76_Vel_24
Time_Shift_435
Note_On_62_Vel_77
Time_Shift_77
Note_On_62_Vel_0
Time_Shift_9
Note_On_62_Vel_63
Time_Shift_80
Note_On_65_Vel_71
Time_Shift_73
Note_On_70_Vel_79
Time_Shift_100
Note_On_74_Vel_0
Time_Shift_9
Note_On_74_Vel_89
Time_Shift_308
Note_On_72_Vel_83
Time_Shift_205
Note_On_70_Vel_0
Time_Shift_4
Note_On_70_Vel_83
Time_Shift_107
Note_On_60_Vel_75
Time_Shift_50
Note_On_62_Vel_0
Time_Shift_4
Note_On_62_Vel_69
Time_Shift_73
Note_On_66_Vel_65
Time_Shift_84
Note_On_70_Vel_0
Time_Shift_5
Note_On_70_Vel_78
Time_Shift_4
Sustain_Off
Time_Shift_145
Sustain_On
Time_Shift_370
Note_On_69_Vel_76
Time_Shift_168
Note_On_34_Vel_0
Note_On_46_Vel_0
Note_On_76_Vel_0
Time_Shift_95
Note_On_50_Vel_68
Time_Shift_509
Note_On_58_Vel_70
Time_Shift_56
Note_On_62_Vel_0
Time_Shift_10
Note_On_62_Vel_63
Time_Shift_49
Note_On_67_Vel_61
Time_Shift_133
Note_On_70_Vel_0
Time_Shift_8
Note_On_70_Vel_84
Note_On_65_Vel_0
Time_Shift_15
Note_On_43_Vel_55
Time_Shift_10
Note_On_69_Vel_0
Time_Shift_2
Note_On_60_Vel_0
Time_Shift_1
Note_On_66_Vel_0
Time_Shift_1
Sustain_Off
Time_Shift_17
Note_On_72_Vel_0
Time_Shift_15
Note_On_74_Vel_0
Time_Shift_54
Sustain_On
Time_Shift_292
Note_On_67_Vel_0
Time_Shift_161
Note_On_70_Vel_0
Time_Shift_11
Note_On_70_Vel_84
Time_Shift_181
Note_On_70_Vel_0
Time_Shift_11
Note_On_70_Vel_71
Time_Shift_62
Note_On_72_Vel_71
Time_Shift_58
Note_On_70_Vel_0
Time_Shift_9
Note_On_70_Vel_72
Time_Shift_21
Note_On_62_Vel_0
Time_Shift_8
Note_On_50_Vel_0
Time_Shift_3
Note_On_62_Vel_56
Time_Shift_2
Note_On_50_Vel_51
Time_Shift_285
Note_On_69_Vel_83
Time_Shift_201
Note_On_67_Vel_84
Time_Shift_205
Note_On_66_Vel_70
Time_Shift_15
Note_On_63_Vel_55
Time_Shift_1
Note_On_60_Vel_46
Time_Shift_6
Note_On_57_Vel_46
Time_Shift_14
Note_On_72_Vel_0
Time_Shift_1
Note_On_69_Vel_0
Note_On_62_Vel_0
Note_On_43_Vel_0
Time_Shift_1
Note_On_67_Vel_0
Time_Shift_6
Sustain_Off
Time_Shift_5
Note_On_58_Vel_0
Time_Shift_8
Note_On_70_Vel_0
Time_Shift_169
Sustain_On
Time_Shift_729
Note_On_50_Vel_0
Time_Shift_4
Note_On_62_Vel_46
Time_Shift_1
Note_On_50_Vel_35
Time_Shift_60
Sustain_Off
Time_Shift_2
Note_On_63_Vel_0
Time_Shift_2
Note_On_60_Vel_0
Time_Shift_54
Note_On_57_Vel_0
Time_Shift_177
Sustain_On
Time_Shift_837
Note_On_67_Vel_41
Time_Shift_4
Note_On_63_Vel_37
Time_Shift_21
Note_On_58_Vel_35
Time_Shift_3
Note_On_51_Vel_26
Time_Shift_6
Sustain_Off
Note_On_66_Vel_0
Note_On_50_Vel_0
Note_On_62_Vel_0
Time_Shift_219
Sustain_On
Time_Shift_448
Note_On_69_Vel_43
Time_Shift_1
Note_On_62_Vel_38
Time_Shift_8
Note_On_55_Vel_25
Time_Shift_7
Note_On_46_Vel_23
Time_Shift_3
Note_On_58_Vel_0
Time_Shift_1
Note_On_67_Vel_0
Note_On_63_Vel_0
Time_Shift_3
Note_On_51_Vel_0
Time_Shift_1
Sustain_Off
Time_Shift_189
Sustain_On
Time_Shift_398
Note_On_70_Vel_50
Time_Shift_168
Note_On_72_Vel_51
Time_Shift_21
Note_On_60_Vel_30
Time_Shift_1
Note_On_69_Vel_0
Note_On_46_Vel_0
Note_On_70_Vel_0
Note_On_55_Vel_0
Time_Shift_1
Note_On_62_Vel_0
Time_Shift_5
Sustain_Off
Time_Shift_1
Note_On_67_Vel_31
Time_Shift_7
Note_On_45_Vel_28
Time_Shift_9
Note_On_51_Vel_20
Time_Shift_226
Sustain_On
Time_Shift_518
Note_On_74_Vel_52
Time_Shift_23
Note_On_72_Vel_0
Time_Shift_4
Note_On_50_Vel_27
Time_Shift_3
Note_On_67_Vel_0
Time_Shift_1
Note_On_51_Vel_0
Note_On_62_Vel_20
Note_On_66_Vel_24
Time_Shift_1
Note_On_45_Vel_0
Time_Shift_13
Sustain_Off
Time_Shift_182
Note_On_60_Vel_0
Time_Shift_38
Sustain_On
Time_Shift_602
Note_On_67_Vel_43
Time_Shift_5
Note_On_50_Vel_0
Time_Shift_4
Note_On_50_Vel_14
Note_On_43_Vel_24
Time_Shift_6
Note_On_74_Vel_0
Time_Shift_2
Note_On_66_Vel_0
Time_Shift_12
Sustain_Off
Time_Shift_153
Sustain_On
Time_Shift_145
Note_On_62_Vel_0
Time_Shift_464
Note_On_58_Vel_34
Time_Shift_8
Note_On_55_Vel_25
Time_Shift_12
Sustain_Off
Time_Shift_4
Note_On_62_Vel_26
Time_Shift_19
Sustain_On
Time_Shift_592
Note_On_67_Vel_0
Time_Shift_6
Note_On_67_Vel_49
Time_Shift_224
Note_On_67_Vel_0
Time_Shift_4
Sustain_Off
Time_Shift_7
Note_On_67_Vel_54
Time_Shift_8
Note_On_58_Vel_0
Time_Shift_1
Note_On_62_Vel_0
Time_Shift_15
Note_On_43_Vel_0
Time_Shift_4
Note_On_55_Vel_0
Note_On_41_Vel_22
Time_Shift_15
Note_On_50_Vel_0
Time_Shift_123
Sustain_On
Time_Shift_55
Note_On_69_Vel_58
Time_Shift_137
Note_On_69_Vel_0
Time_Shift_11
Note_On_69_Vel_55
Time_Shift_103
Note_On_70_Vel_54
Time_Shift_62
Note_On_69_Vel_0
Time_Shift_7
Note_On_69_Vel_55
Time_Shift_63
Note_On_70_Vel_0
Time_Shift_6
Note_On_70_Vel_51
Time_Shift_32
Note_On_69_Vel_0
Time_Shift_4
Note_On_69_Vel_61
Time_Shift_57
Note_On_70_Vel_0
Time_Shift_9
Note_On_70_Vel_63
Time_Shift_53
Note_On_69_Vel_0
Time_Shift_4
Note_On_69_Vel_61
Time_Shift_65
Note_On_70_Vel_0
Time_Shift_4
Note_On_70_Vel_41
Time_Shift_34
Note_On_69_Vel_0
Time_Shift_10
Note_On_63_Vel_42
Time_Shift_1
Note_On_69_Vel_50
Time_Shift_9
Note_On_60_Vel_37
Time_Shift_5
Note_On_53_Vel_36
Time_Shift_52
Note_On_70_Vel_0
Time_Shift_5
Note_On_70_Vel_62
Time_Shift_49
Note_On_69_Vel_0
Time_Shift_5
Note_On_69_Vel_55
Time_Shift_56
Note_On_70_Vel_0
Time_Shift_10
Note_On_70_Vel_56
Time_Shift_21
Note_On_67_Vel_0
Time_Shift_15
Note_On_69_Vel_0
Time_Shift_8
Note_On_69_Vel_58
Time_Shift_54
Note_On_70_Vel_0
Time_Shift_4
Note_On_70_Vel_59
Time_Shift_50
Note_On_69_Vel_0
Time_Shift_11
Note_On_69_Vel_61
Time_Shift_112
Note_On_67_Vel_55
Time_Shift_122
Note_On_69_Vel_0
Time_Shift_10
Note_On_69_Vel_64
Time_Shift_155
Sustain_Off
Time_Shift_5
Note_On_60_Vel_0
Note_On_53_Vel_0
Note_On_63_Vel_0
Time_Shift_1
Note_On_67_Vel_0
Note_On_41_Vel_0
Time_Shift_2
Note_On_69_Vel_0
Time_Shift_27
Note_On_70_Vel_0
Time_Shift_7
Note_On_70_Vel_63
Time_Shift_2
Note_On_62_Vel_39
Time_Shift_2
Note_On_58_Vel_33
Time_Shift_173
Sustain_On
Time_Shift_463
Note_On_71_Vel_55
Time_Shift_11
Note_On_53_Vel_29
Time_Shift_28
Sustain_Off
Time_Shift_14
Note_On_70_Vel_0
Time_Shift_153
Sustain_On
Time_Shift_466
Note_On_57_Vel_36
Time_Shift_1
Note_On_63_Vel_42
Time_Shift_4
Sustain_Off
Time_Shift_20
Note_On_58_Vel_0
Time_Shift_15
Note_On_62_Vel_0
Time_Shift_169
Sustain_On
Time_Shift_108
Note_On_71_Vel_0
Time_Shift_39
Note_On_72_Vel_65
Time_Shift_259
Note_On_65_Vel_49
Time_Shift_1
Note_On_53_Vel_0
Time_Shift_4
Note_On_53_Vel_44
Time_Shift_4
Note_On_57_Vel_0
Time_Shift_6
Note_On_57_Vel_26
Time_Shift_361
Note_On_73_Vel_67
Time_Shift_206
Note_On_62_Vel_38
Time_Shift_10
Note_On_58_Vel_37
Time_Shift_14
Sustain_Off
Time_Shift_5
Note_On_72_Vel_0
Time_Shift_1
Note_On_57_Vel_0
Time_Shift_5
Note_On_63_Vel_0
Time_Shift_35
Note_On_74_Vel_70
Time_Shift_13
Note_On_73_Vel_0
Time_Shift_166
Sustain_On
Time_Shift_61
Note_On_74_Vel_0
Time_Shift_7
Note_On_74_Vel_56
Time_Shift_96
Note_On_75_Vel_69
Time_Shift_82
Note_On_74_Vel_0
Time_Shift_9
Note_On_74_Vel_66
Time_Shift_74
Note_On_73_Vel_69
Time_Shift_93
Note_On_74_Vel_0
Time_Shift_4
Note_On_74_Vel_72
Time_Shift_81
Note_On_74_Vel_0
Time_Shift_7
Note_On_74_Vel_67
Time_Shift_82
Sustain_Off
Time_Shift_9
Note_On_75_Vel_0
Time_Shift_3
Note_On_73_Vel_0
Time_Shift_1
Note_On_74_Vel_0
Time_Shift_5
Note_On_53_Vel_0
Time_Shift_6
Note_On_53_Vel_31
Note_On_79_Vel_63
Time_Shift_94
Note_On_65_Vel_0
Time_Shift_28
Note_On_58_Vel_0
Time_Shift_41
Sustain_On
Time_Shift_272
Note_On_77_Vel_73
Time_Shift_158
Note_On_77_Vel_0
Time_Shift_4
Note_On_77_Vel_60
Time_Shift_17
Note_On_63_Vel_41
Time_Shift_6
Note_On_57_Vel_36
Time_Shift_7
Note_On_79_Vel_0
Time_Shift_1
Note_On_62_Vel_0
Time_Shift_6
Sustain_Off
Time_Shift_174
Sustain_On
Time_Shift_242
Note_On_72_Vel_63
Time_Shift_273
Note_On_53_Vel_0
Time_Shift_4
Note_On_65_Vel_40
Note_On_53_Vel_38
Time_Shift_302
Note_On_73_Vel_71
Time_Shift_366
Note_On_74_Vel_69
Time_Shift_4
Note_On_65_Vel_0
Time_Shift_11
Note_On_65_Vel_41
Time_Shift_10
Note_On_62_Vel_41
Time_Shift_4
Note_On_58_Vel_36
Time_Shift_8
Sustain_Off
Time_Shift_2
Note_On_53_Vel_0
Note_On_72_Vel_0
Note_On_63_Vel_0
Time_Shift_2
Note_On_73_Vel_0
Note_On_57_Vel_0
Time_Shift_9
Note_On_77_Vel_0
Time_Shift_246
Sustain_On
Time_Shift_477
Note_On_75_Vel_62
Time_Shift_1
Note_On_67_Vel_40
Time_Shift_49
Sustain_Off
Time_Shift_6
Note_On_74_Vel_0
Time_Shift_173
Sustain_On
Time_Shift_427
Note_On_57_Vel_51
Note_On_61_Vel_43
Time_Shift_22
Sustain_Off
Time_Shift_8
Note_On_62_Vel_0
Time_Shift_12
Note_On_65_Vel_0
Time_Shift_30
Note_On_58_Vel_0
Time_Shift_154
Sustain_On
Time_Shift_364
Note_On_76_Vel_74
Time_Shift_20
Note_On_67_Vel_0
Time_Shift_5
Note_On_67_Vel_50
Time_Shift_655
Note_On_75_Vel_0
Time_Shift_17
Note_On_77_Vel_76
Time_Shift_9
Note_On_65_Vel_45
Time_Shift_9
Note_On_62_Vel_43
Time_Shift_13
Note_On_57_Vel_0
Time_Shift_2
Note_On_67_Vel_0
Note_On_61_Vel_0
Note_On_76_Vel_0
Time_Shift_6
Sustain_Off
Time_Shift_152
Sustain_On
Time_Shift_123
Note_On_77_Vel_0
Time_Shift_4
Note_On_77_Vel_78
Time_Shift_113
Note_On_79_Vel_77
Time_Shift_75
Note_On_77_Vel_0
Time_Shift_8
Note_On_77_Vel_79
Time_Shift_79
Note_On_76_Vel_69
Time_Shift_82
Note_On_77_Vel_0
Time_Shift_5
Note_On_77_Vel_72
Time_Shift_64
Note_On_77_Vel_0
Time_Shift_10
Note_On_77_Vel_77
Time_Shift_46
Sustain_Off
Time_Shift_7
Note_On_76_Vel_0
Note_On_62_Vel_0
Time_Shift_1
Note_On_79_Vel_0
Note_On_65_Vel_0
Time_Shift_3
Note_On_57_Vel_48
Time_Shift_13
Note_On_82_Vel_78
Time_Shift_87
Note_On_69_Vel_56
Time_Shift_117
Sustain_On
Time_Shift_138
Note_On_77_Vel_0
Time_Shift_105
Note_On_81_Vel_84
Time_Shift_156
Note_On_81_Vel_0
Time_Shift_7
Note_On_81_Vel_71
Time_Shift_4
Note_On_67_Vel_49
Time_Shift_15
Note_On_61_Vel_47
Time_Shift_27
Sustain_Off
Time_Shift_4
Note_On_82_Vel_0
Time_Shift_81
Sustain_On
Time_Shift_240
Note_On_75_Vel_84
Time_Shift_244
Note_On_69_Vel_0
Time_Shift_11
Note_On_69_Vel_69
Time_Shift_20
Note_On_57_Vel_0
Time_Shift_4
Note_On_57_Vel_48
Time_Shift_25
Sustain_Off
Time_Shift_1
Note_On_67_Vel_0
Time_Shift_3
Note_On_61_Vel_0
Time_Shift_151
Sustain_On
Time_Shift_117
Note_On_76_Vel_80
Time_Shift_344
Note_On_77_Vel_78
Time_Shift_2
Note_On_62_Vel_51
Time_Shift_1
Note_On_50_Vel_57
Time_Shift_18
Sustain_Off
Time_Shift_3
Note_On_69_Vel_0
Time_Shift_1
Note_On_76_Vel_0
Time_Shift_6
Note_On_75_Vel_0
Time_Shift_23
Note_On_57_Vel_0
Note_On_81_Vel_0
Time_Shift_146
Sustain_On
Time_Shift_100
Note_On_62_Vel_0
Time_Shift_387
Note_On_79_Vel_78
Time_Shift_2
Note_On_65_Vel_51
Time_Shift_13
Note_On_57_Vel_48
Time_Shift_1
Note_On_62_Vel_48
Time_Shift_572
Note_On_77_Vel_0
Time_Shift_6
Note_On_77_Vel_81
Time_Shift_151
Sustain_Off
Note_On_57_Vel_0
Note_On_65_Vel_0
Note_On_79_Vel_0
Note_On_50_Vel_0
Note_On_62_Vel_0
Time_Shift_1
Note_On_77_Vel_0
Time_Shift_21
Note_On_75_Vel_73
Note_On_51_Vel_56
Time_Shift_197
Sustain_On
Time_Shift_492
Note_On_70_Vel_61
Time_Shift_19
Note_On_58_Vel_39
Time_Shift_1
Note_On_67_Vel_43
Time_Shift_7
Note_On_55_Vel_37
Time_Shift_10
Sustain_Off
Time_Shift_178
Sustain_On
Time_Shift_408
Note_On_72_Vel_59
Time_Shift_173
Note_On_58_Vel_0
Note_On_70_Vel_0
Time_Shift_2
Note_On_55_Vel_0
Time_Shift_1
Note_On_67_Vel_0
Time_Shift_2
Sustain_Off
Time_Shift_5
Note_On_75_Vel_0
Time_Shift_8
Note_On_51_Vel_0
Time_Shift_11
Note_On_46_Vel_31
Time_Shift_1
Note_On_74_Vel_57
Note_On_72_Vel_0
Time_Shift_165
Sustain_On
Time_Shift_399
Note_On_74_Vel_0
Time_Shift_5
Note_On_74_Vel_56
Time_Shift_118
Note_On_74_Vel_0
Time_Shift_10
Note_On_74_Vel_52
Time_Shift_125
Note_On_77_Vel_59
Time_Shift_81
Note_On_75_Vel_58
Time_Shift_1
Note_On_62_Vel_36
Time_Shift_16
Note_On_53_Vel_28
Time_Shift_8
Note_On_58_Vel_35
Time_Shift_6
Note_On_70_Vel_37
Time_Shift_582
Note_On_74_Vel_0
Time_Shift_7
Note_On_74_Vel_54
Time_Shift_158
Note_On_70_Vel_0
Note_On_46_Vel_0
Note_On_53_Vel_0
Note_On_77_Vel_0
Note_On_58_Vel_0
Note_On_75_Vel_0
Time_Shift_1
Note_On_74_Vel_0
Note_On_62_Vel_0
Sustain_Off
Time_Shift_24
Note_On_72_Vel_47
Time_Shift_5
Note_On_48_Vel_29
Time_Shift_2
Note_On_60_Vel_23
Time_Shift_203
Sustain_On
Time_Shift_535
Note_On_67_Vel_44
Time_Shift_16
Note_On_55_Vel_22
Time_Shift_4
Note_On_63_Vel_29
Time_Shift_4
Note_On_51_Vel_21
Time_Shift_9
Note_On_72_Vel_0
Time_Shift_2
Sustain_Off
Time_Shift_13
Note_On_60_Vel_0
Time_Shift_31
Note_On_48_Vel_0
Time_Shift_108
Sustain_On
Time_Shift_387
Note_On_69_Vel_52
Time_Shift_160
Sustain_Off
Time_Shift_7
Note_On_63_Vel_0
Time_Shift_2
Note_On_51_Vel_0
Note_On_55_Vel_0
Note_On_67_Vel_0
Time_Shift_7
Note_On_69_Vel_0
Time_Shift_16
Note_On_43_Vel_30
Time_Shift_1
Note_On_70_Vel_49
Time_Shift_180
Sustain_On
Time_Shift_494
Note_On_69_Vel_52
Time_Shift_17
Note_On_62_Vel_26
Time_Shift_15
Note_On_58_Vel_30
Time_Shift_4
Note_On_55_Vel_21
Time_Shift_553
Note_On_70_Vel_0
Time_Shift_6
Note_On_70_Vel_59
Time_Shift_199
Note_On_58_Vel_0
Note_On_69_Vel_0
Time_Shift_1
Note_On_62_Vel_0
Sustain_Off
Time_Shift_1
Note_On_43_Vel_0
Time_Shift_2
Note_On_55_Vel_0
Time_Shift_9
Note_On_39_Vel_26
Time_Shift_38
Note_On_72_Vel_60
Time_Shift_2
Note_On_70_Vel_0
Time_Shift_156
Sustain_On
Time_Shift_338
Note_On_72_Vel_0
Time_Shift_10
Note_On_72_Vel_60
Time_Shift_154
Note_On_74_Vel_59
Time_Shift_105
Note_On_72_Vel_0
Time_Shift_7
Note_On_72_Vel_63
Time_Shift_116
Note_On_55_Vel_33
Time_Shift_6
Note_On_60_Vel_30
Time_Shift_6
Sustain_Off
Time_Shift_20
Note_On_71_Vel_61
Time_Shift_10
Note_On_74_Vel_0
Time_Shift_4
Note_On_72_Vel_0
Time_Shift_31
Note_On_39_Vel_0
Time_Shift_92
Sustain_On
Time_Shift_61
Note_On_72_Vel_70
Time_Shift_196
Note_On_74_Vel_69
Time_Shift_20
Note_On_71_Vel_0
Time_Shift_141
Note_On_77_Vel_61
Time_Shift_31
Note_On_75_Vel_67
Time_Shift_196
Note_On_74_Vel_0
Time_Shift_3
Sustain_Off
Time_Shift_2
Note_On_77_Vel_0
Time_Shift_1
Note_On_60_Vel_0
Time_Shift_1
Note_On_55_Vel_0
Note_On_72_Vel_0
Time_Shift_3
Note_On_75_Vel_0
Time_Shift_1
Note_On_74_Vel_58
Time_Shift_24
Note_On_38_Vel_22
Time_Shift_165
Sustain_On
Time_Shift_307
Note_On_62_Vel_67
Time_Shift_357
Note_On_66_Vel_61
Time_Shift_17
Note_On_57_Vel_56
Time_Shift_325
Note_On_74_Vel_0
Time_Shift_10
Note_On_74_Vel_82
Time_Shift_313
Note_On_67_Vel_74
Time_Shift_4
Note_On_58_Vel_69
Time_Shift_341
Note_On_74_Vel_0
Time_Shift_6
Note_On_74_Vel_87
Time_Shift_340
Note_On_74_Vel_0
Time_Shift_8
Note_On_74_Vel_80
Time_Shift_10
Note_On_68_Vel_74
Time_Shift_6
Note_On_59_Vel_68
Time_Shift_39
Note_On_58_Vel_0
Time_Shift_1
Note_On_38_Vel_0
Time_Shift_1
Note_On_57_Vel_0
Time_Shift_1
Note_On_62_Vel_0
Time_Shift_1
Note_On_66_Vel_0
Note_On_67_Vel_0
Time_Shift_1
Sustain_Off
Time_Shift_101
Sustain_On
Time_Shift_169
Note_On_74_Vel_0
Time_Shift_11
Note_On_74_Vel_85
Time_Shift_159
Note_On_69_Vel_71
Time_Shift_3
Note_On_60_Vel_59
Time_Shift_165
Note_On_74_Vel_0
Time_Shift_7
Note_On_74_Vel_81
Time_Shift_515
Note_On_74_Vel_0
Time_Shift_11
Note_On_74_Vel_65
Time_Shift_9
Note_On_31_Vel_54
Time_Shift_3
Note_On_43_Vel_47
Time_Shift_13
Sustain_Off
Time_Shift_7
Note_On_59_Vel_0
Note_On_68_Vel_0
Time_Shift_1
Note_On_60_Vel_0
Time_Shift_1
Note_On_69_Vel_0
Time_Shift_247
Sustain_On
Time_Shift_153
Note_On_31_Vel_0
Time_Shift_513
Note_On_62_Vel_40
Note_On_72_Vel_52
Time_Shift_1
Note_On_50_Vel_33
Time_Shift_37
Sustain_Off
Time_Shift_41
Note_On_74_Vel_0
Time_Shift_30
Note_On_43_Vel_0
Time_Shift_131
Sustain_On
Time_Shift_410
Note_On_70_Vel_50
Time_Shift_154
Note_On_69_Vel_45
Time_Shift_89
Note_On_70_Vel_0
Time_Shift_11
Note_On_70_Vel_46
Time_Shift_96
Note_On_72_Vel_0
Time_Shift_8
Note_On_72_Vel_50
Time_Shift_84
Note_On_70_Vel_0
Time_Shift_7
Note_On_63_Vel_33
Time_Shift_2
Sustain_Off
Time_Shift_1
Note_On_60_Vel_23
Note_On_70_Vel_49
Time_Shift_12
Note_On_54_Vel_23
Time_Shift_4
Note_On_69_Vel_0
Note_On_62_Vel_0
Time_Shift_2
Note_On_72_Vel_0
Time_Shift_203
Sustain_On
Time_Shift_265
Note_On_69_Vel_44
Time_Shift_295
Note_On_50_Vel_0
Time_Shift_6
Note_On_50_Vel_31
Time_Shift_6
Note_On_62_Vel_44
Time_Shift_41
Sustain_Off
Time_Shift_4
Note_On_60_Vel_0
Time_Shift_1
Note_On_63_Vel_0
Note_On_54_Vel_0
Time_Shift_27
Note_On_70_Vel_0
Time_Shift_130
Sustain_On
Time_Shift_563
Note_On_63_Vel_47
Time_Shift_5
Note_On_70_Vel_40
Time_Shift_1
Note_On_58_Vel_36
Time_Shift_8
Note_On_55_Vel_33
Time_Shift_2
Sustain_Off
Time_Shift_5
Note_On_69_Vel_0
Time_Shift_2
Note_On_62_Vel_0
Time_Shift_2
Note_On_50_Vel_0
Time_Shift_157
Sustain_On
Time_Shift_400
Note_On_70_Vel_0
Time_Shift_6
Note_On_70_Vel_54
Time_Shift_170
Note_On_70_Vel_0
Time_Shift_11
Note_On_70_Vel_47
Time_Shift_53
Note_On_72_Vel_54
Time_Shift_75
Note_On_70_Vel_0
Time_Shift_3
Note_On_50_Vel_34
Note_On_62_Vel_41
Note_On_70_Vel_52
Time_Shift_7
Sustain_Off
Time_Shift_1
Note_On_58_Vel_0
Time_Shift_1
Note_On_63_Vel_0
Time_Shift_1
Note_On_72_Vel_0
Note_On_55_Vel_0
Time_Shift_209
Sustain_On
Time_Shift_110
Note_On_69_Vel_47
Time_Shift_232
Note_On_67_Vel_44
Time_Shift_228
Note_On_66_Vel_37
Time_Shift_16
Note_On_60_Vel_30
Time_Shift_2
Note_On_63_Vel_30
Sustain_Off
Time_Shift_5
Note_On_57_Vel_31
Time_Shift_4
Note_On_50_Vel_0
Time_Shift_1
Note_On_67_Vel_0
Note_On_69_Vel_0
Time_Shift_3
Note_On_62_Vel_0
Time_Shift_6
Note_On_70_Vel_0
Time_Shift_230
Sustain_On
Time_Shift_480
Note_On_62_Vel_33
Time_Shift_15
Note_On_50_Vel_24
Time_Shift_28
Sustain_Off
Time_Shift_11
Note_On_57_Vel_0
Time_Shift_1
Note_On_63_Vel_0
Note_On_66_Vel_0
Note_On_60_Vel_0
Time_Shift_187
Sustain_On
Time_Shift_449
Sustain_Off
Time_Shift_1
Note_On_62_Vel_0
Time_Shift_4
Note_On_50_Vel_0
Time_Shift_19
Note_On_43_Vel_26
Time_Shift_2
Note_On_67_Vel_59
Time_Shift_186
Sustain_On
Time_Shift_444
Note_On_69_Vel_62
Time_Shift_1
Note_On_43_Vel_0
Time_Shift_8
Note_On_43_Vel_27
Time_Shift_3
Note_On_62_Vel_29
Time_Shift_1
Note_On_58_Vel_33
Time_Shift_8
Note_On_55_Vel_26
Time_Shift_340
Note_On_70_Vel_66
Time_Shift_280
Note_On_58_Vel_0
Note_On_69_Vel_0
Note_On_62_Vel_0
Note_On_55_Vel_0
Note_On_43_Vel_0
Note_On_70_Vel_0
Time_Shift_1
Note_On_67_Vel_0
Time_Shift_1
Sustain_Off
Time_Shift_42
Note_On_36_Vel_25
Time_Shift_7
Note_On_72_Vel_56
Time_Shift_162
Sustain_On
Time_Shift_207
Note_On_72_Vel_0
Time_Shift_8
Note_On_72_Vel_63
Time_Shift_100
Note_On_72_Vel_0
Time_Shift_11
Note_On_72_Vel_59
Time_Shift_126
Note_On_74_Vel_61
Time_Shift_62
Note_On_72_Vel_0
Time_Shift_6
Note_On_72_Vel_64
Time_Shift_92
Note_On_71_Vel_61
Time_Shift_71
Note_On_72_Vel_0
Time_Shift_12
Note_On_72_Vel_72
Time_Shift_98
Sustain_Off
Time_Shift_5
Note_On_74_Vel_0
Time_Shift_5
Note_On_36_Vel_0
Time_Shift_4
Note_On_55_Vel_28
Note_On_74_Vel_68
Time_Shift_1
Note_On_71_Vel_0
Time_Shift_2
Note_On_63_Vel_32
Time_Shift_19
Note_On_72_Vel_0
Time_Shift_13
Note_On_60_Vel_34
Time_Shift_179
Sustain_On
Time_Shift_411
Note_On_75_Vel_74
Time_Shift_188
Note_On_75_Vel_0
Time_Shift_11
Note_On_75_Vel_59
Time_Shift_21
Sustain_Off
Time_Shift_3
Note_On_74_Vel_0
Time_Shift_1
Note_On_55_Vel_0
Time_Shift_4
Note_On_60_Vel_0
Time_Shift_3
Note_On_41_Vel_28
Time_Shift_26
Note_On_63_Vel_0
Time_Shift_108
Sustain_On
Time_Shift_435
Note_On_69_Vel_55
Time_Shift_314
Note_On_67_Vel_49
Time_Shift_15
Note_On_63_Vel_47
Time_Shift_322
Note_On_81_Vel_75
Time_Shift_493
Note_On_65_Vel_44
Time_Shift_8
Note_On_62_Vel_44
Time_Shift_60
Sustain_Off
Time_Shift_1
Note_On_63_Vel_0
Note_On_67_Vel_0
Note_On_69_Vel_0
Time_Shift_3
Note_On_41_Vel_0
Time_Shift_15
Note_On_75_Vel_0
Time_Shift_297
Note_On_80_Vel_65
Time_Shift_11
Sustain_On
Time_Shift_165
Note_On_79_Vel_63
Time_Shift_125
Note_On_78_Vel_64
Time_Shift_110
Note_On_77_Vel_65
Time_Shift_102
Note_On_76_Vel_63
Time_Shift_123
Note_On_75_Vel_66
Time_Shift_89
Note_On_60_Vel_42
Time_Shift_1
Note_On_63_Vel_51
Time_Shift_35
Note_On_72_Vel_66
Time_Shift_119
Note_On_69_Vel_59
Time_Shift_112
Note_On_66_Vel_53
Time_Shift_107
Note_On_64_Vel_59
Time_Shift_87
Note_On_65_Vel_0
Time_Shift_5
Note_On_65_Vel_59
Time_Shift_89
Note_On_67_Vel_66
Time_Shift_75
Note_On_69_Vel_0
Time_Shift_10
Note_On_69_Vel_71
Time_Shift_85
Note_On_70_Vel_66
Time_Shift_81
Note_On_72_Vel_0
Time_Shift_10
Note_On_72_Vel_77
Time_Shift_98
Note_On_62_Vel_0
Time_Shift_4
Note_On_70_Vel_0
Note_On_64_Vel_0
Note_On_69_Vel_0
Time_Shift_1
Note_On_76_Vel_0
Note_On_65_Vel_0
Note_On_60_Vel_0
Note_On_66_Vel_0
Note_On_77_Vel_0
Note_On_80_Vel_0
Note_On_67_Vel_0
Note_On_79_Vel_0
Note_On_63_Vel_0
Note_On_75_Vel_0
Time_Shift_1
Note_On_78_Vel_0
Time_Shift_1
Sustain_Off
Note_On_72_Vel_0
Time_Shift_16
Note_On_81_Vel_0
Time_Shift_21
Note_On_74_Vel_73
Time_Shift_20
Note_On_34_Vel_30
Time_Shift_1
Note_On_46_Vel_29
Time_Shift_165
Sustain_On
Time_Shift_256
Note_On_61_Vel_58
Time_Shift_112
Note_On_62_Vel_72
Time_Shift_88
Note_On_65_Vel_63
Time_Shift_92
Note_On_70_Vel_72
Time_Shift_136
Note_On_74_Vel_0
Time_Shift_4
Note_On_74_Vel_76
Time_Shift_3
Sustain_Off
Time_Shift_14
Note_On_61_Vel_0
Time_Shift_1
Note_On_46_Vel_0
Time_Shift_2
Note_On_65_Vel_0
Time_Shift_145
Sustain_On
Time_Shift_136
Note_On_72_Vel_76
Time_Shift_10
Note_On_34_Vel_0
Time_Shift_184
Note_On_70_Vel_0
Time_Shift_8
Note_On_62_Vel_0
Time_Shift_2
Note_On_70_Vel_73
Time_Shift_116
Note_On_60_Vel_59
Time_Shift_56
Note_On_62_Vel_63
Time_Shift_50
Note_On_66_Vel_55
Time_Shift_60
Note_On_70_Vel_0
Time_Shift_8
Note_On_70_Vel_72
Time_Shift_19
Note_On_38_Vel_40
Time_Shift_7
Sustain_Off
Time_Shift_204
Sustain_On
Time_Shift_302
Note_On_69_Vel_68
Time_Shift_243
Note_On_50_Vel_58
Time_Shift_15
Note_On_72_Vel_0
Time_Shift_8
Note_On_74_Vel_0
Time_Shift_27
Sustain_Off
Time_Shift_2
Note_On_62_Vel_0
Time_Shift_1
Note_On_60_Vel_0
Note_On_66_Vel_0
Time_Shift_24
Note_On_70_Vel_0
Time_Shift_100
Note_On_38_Vel_0
Time_Shift_23
Sustain_On
Time_Shift_348
Note_On_58_Vel_63
Time_Shift_54
Note_On_62_Vel_58
Time_Shift_41
Note_On_67_Vel_62
Time_Shift_101
Sustain_Off
Time_Shift_18
Note_On_70_Vel_74
Note_On_43_Vel_43
Time_Shift_68
Note_On_69_Vel_0
Time_Shift_53
Sustain_On
Time_Shift_215
Note_On_67_Vel_0
Time_Shift_426
Note_On_69_Vel_71
Time_Shift_12
Note_On_50_Vel_0
Note_On_62_Vel_0
Time_Shift_5
Note_On_50_Vel_44
Time_Shift_2
Note_On_62_Vel_50
Time_Shift_744
Note_On_67_Vel_67
Time_Shift_216
Note_On_66_Vel_54
Time_Shift_5
Note_On_63_Vel_45
Time_Shift_7
Note_On_50_Vel_0
Note_On_69_Vel_0
Note_On_70_Vel_0
Time_Shift_1
Note_On_62_Vel_0
Note_On_67_Vel_0
Sustain_Off
Note_On_58_Vel_0
Time_Shift_2
Note_On_43_Vel_0
Time_Shift_9
Note_On_60_Vel_35
Time_Shift_7
Note_On_57_Vel_36
Time_Shift_208
Sustain_On
Time_Shift_623
Note_On_62_Vel_39
Time_Shift_3
Note_On_50_Vel_29
Time_Shift_28
Sustain_Off
Time_Shift_3
Note_On_63_Vel_0
Time_Shift_1
Note_On_60_Vel_0
Time_Shift_2
Note_On_57_Vel_0
Time_Shift_208
Sustain_On
Time_Shift_770
Note_On_58_Vel_47
Time_Shift_1
Note_On_67_Vel_60
Time_Shift_1
Note_On_63_Vel_53
Time_Shift_1
Note_On_51_Vel_40
Time_Shift_38
Note_On_62_Vel_0
Time_Shift_2
Note_On_50_Vel_0
Time_Shift_2
Sustain_Off
Time_Shift_6
Note_On_66_Vel_0
Time_Shift_200
Sustain_On
Time_Shift_579
Note_On_69_Vel_64
Time_Shift_7
Note_On_55_Vel_36
Time_Shift_1
Note_On_62_Vel_52
Time_Shift_2
Note_On_46_Vel_38
Time_Shift_25
Note_On_58_Vel_0
Note_On_63_Vel_0
Time_Shift_3
Note_On_51_Vel_0
Note_On_67_Vel_0
Time_Shift_1
Sustain_Off
Time_Shift_334
Sustain_On
Time_Shift_246
Note_On_70_Vel_70
Time_Shift_193
Note_On_72_Vel_70
Time_Shift_15
Note_On_60_Vel_49
Time_Shift_11
Note_On_57_Vel_42
Time_Shift_1
Note_On_67_Vel_45
Time_Shift_8
Sustain_Off
Time_Shift_1
Note_On_51_Vel_39
Time_Shift_2
Note_On_45_Vel_34
Note_On_69_Vel_0
Time_Shift_1
Note_On_62_Vel_0
Time_Shift_1
Note_On_70_Vel_0
Time_Shift_1
Note_On_46_Vel_0
Note_On_55_Vel_0
Time_Shift_204
Sustain_On
Time_Shift_192
Note_On_57_Vel_0
Time_Shift_472
Note_On_74_Vel_57
Time_Shift_12
Note_On_60_Vel_0
Time_Shift_4
Note_On_66_Vel_36
Time_Shift_4
Note_On_50_Vel_34
Time_Shift_1
Note_On_62_Vel_29
Time_Shift_2
Note_On_60_Vel_24
Time_Shift_1
Note_On_69_Vel_30
Time_Shift_5
Note_On_67_Vel_0
Note_On_72_Vel_0
Time_Shift_1
Note_On_51_Vel_0
Time_Shift_3
Note_On_45_Vel_0
Time_Shift_3
Sustain_Off
Time_Shift_275
Sustain_On
Time_Shift_710
Note_On_67_Vel_61
Time_Shift_6
Note_On_43_Vel_45
Time_Shift_2
Note_On_55_Vel_37
Time_Shift_39
Note_On_66_Vel_0
Note_On_74_Vel_0
Time_Shift_1
Note_On_50_Vel_0
Time_Shift_5
Sustain_Off
Time_Shift_13
Note_On_69_Vel_0
Time_Shift_8
Note_On_62_Vel_0
Time_Shift_7
Note_On_60_Vel_0
Time_Shift_361
Sustain_On
Time_Shift_753
Note_On_55_Vel_0
Time_Shift_2
Note_On_65_Vel_49
Time_Shift_3
Note_On_59_Vel_44
Time_Shift_6
Note_On_55_Vel_36
Time_Shift_61
Sustain_Off
Time_Shift_343
Sustain_On
Time_Shift_814
Note_On_64_Vel_55
Time_Shift_7
Note_On_55_Vel_0
Time_Shift_1
Note_On_60_Vel_41
Time_Shift_11
Note_On_55_Vel_26
Time_Shift_1
Note_On_48_Vel_26
Time_Shift_22
Sustain_Off
Time_Shift_2
Note_On_59_Vel_0
Note_On_67_Vel_0
Time_Shift_1
Note_On_43_Vel_0
Note_On_65_Vel_0
Time_Shift_231
Sustain_On
Time_Shift_1368
Note_On_72_Vel_49
Time_Shift_9
Note_On_63_Vel_42
Time_Shift_13
Note_On_48_Vel_0
Note_On_55_Vel_0
Time_Shift_5
Note_On_48_Vel_25
Time_Shift_5
Note_On_55_Vel_26
Time_Shift_32
Sustain_Off
Time_Shift_8
Note_On_64_Vel_0
Note_On_60_Vel_0
Time_Shift_350
Sustain_On
Time_Shift_1452
Note_On_71_Vel_48
Time_Shift_545
Note_On_48_Vel_0
Note_On_55_Vel_0
Note_On_63_Vel_0
Note_On_72_Vel_0
Time_Shift_69
Note_On_71_Vel_0
Time_Shift_4
Note_On_43_Vel_29
Time_Shift_3
Note_On_71_Vel_43
Time_Shift_4
Note_On_67_Vel_24
Time_Shift_14
Note_On_62_Vel_19
Time_Shift_5
Note_On_62_Vel_0
Time_Shift_19
Sustain_Off
Time_Shift_319
Sustain_On
Time_Shift_229
Note_On_50_Vel_31
Time_Shift_498
Note_On_55_Vel_29
Time_Shift_460
Note_On_59_Vel_40
Time_Shift_486
Note_On_62_Vel_39
Time_Shift_516
Note_On_71_Vel_0
Time_Shift_9
Note_On_71_Vel_46
Time_Shift_582
Note_On_71_Vel_0
Time_Shift_12
Note_On_71_Vel_41
Time_Shift_611
Note_On_43_Vel_0
Note_On_50_Vel_0
Note_On_55_Vel_0
Note_On_59_Vel_0
Note_On_67_Vel_0
Time_Shift_2
Note_On_74_Vel_41
Time_Shift_775
Note_On_83_Vel_42
Time_Shift_1173
Note_On_83_Vel_0
Time_Shift_7
Note_On_83_Vel_44
Time_Shift_923
Note_On_62_Vel_0
Time_Shift_960
Note_On_71_Vel_0
Note_On_74_Vel_0
Time_Shift_2415
Sustain_Off
Time_Shift_50
Note_On_83_Vel_0
