Ticks_Per_Beat_384
Tempo_500000
Time_Shift_2572
Sustain_On
Time_Shift_126
Note_On_40_Vel_30
Time_Shift_311
Note_On_47_Vel_34
Time_Shift_251
Note_On_55_Vel_33
Time_Shift_236
Note_On_52_Vel_35
Time_Shift_211
Sustain_Off
Time_Shift_13
Note_On_47_Vel_0
Time_Shift_44
Note_On_60_Vel_37
Time_Shift_14
Sustain_On
Time_Shift_259
Note_On_59_Vel_46
Time_Shift_286
Note_On_40_Vel_0
Time_Shift_5
Note_On_40_Vel_31
Time_Shift_37
Sustain_Off
Time_Shift_10
Note_On_52_Vel_0
Note_On_59_Vel_0
Time_Shift_3
Note_On_60_Vel_0
Time_Shift_7
Note_On_55_Vel_0
Time_Shift_130
Sustain_On
Time_Shift_88
Note_On_47_Vel_36
Time_Shift_256
Note_On_55_Vel_29
Time_Shift_230
Note_On_52_Vel_32
Time_Shift_261
Note_On_60_Vel_38
Time_Shift_332
Note_On_59_Vel_45
Time_Shift_78
Note_On_40_Vel_0
Time_Shift_119
Note_On_71_Vel_57
Time_Shift_160
Sustain_Off
Time_Shift_1
Note_On_47_Vel_0
Time_Shift_1
Note_On_52_Vel_0
Note_On_60_Vel_0
Note_On_55_Vel_0
Time_Shift_3
Note_On_59_Vel_0
Time_Shift_50
Note_On_40_Vel_26
Time_Shift_57
Sustain_On
Time_Shift_19
Note_On_79_Vel_66
Time_Shift_298
Note_On_47_Vel_35
Time_Shift_240
Note_On_55_Vel_39
Time_Shift_239
Note_On_52_Vel_28
Time_Shift_278
Note_On_60_Vel_42
Time_Shift_242
Note_On_59_Vel_47
Time_Shift_236
Note_On_40_Vel_0
Time_Shift_7
Note_On_40_Vel_37
Time_Shift_36
Sustain_Off
Time_Shift_7
Note_On_52_Vel_0
Note_On_47_Vel_0
Time_Shift_1
Note_On_59_Vel_0
Note_On_60_Vel_0
Time_Shift_1
Note_On_55_Vel_0
Time_Shift_1
Note_On_79_Vel_0
Time_Shift_23
Note_On_71_Vel_0
Time_Shift_77
Sustain_On
Time_Shift_110
Note_On_47_Vel_40
Time_Shift_241
Note_On_55_Vel_40
Time_Shift_211
Sustain_Off
Time_Shift_11
Note_On_78_Vel_60
Time_Shift_42
Sustain_On
Time_Shift_240
Note_On_60_Vel_27
Time_Shift_128
Note_On_40_Vel_0
Time_Shift_6
Note_On_76_Vel_62
Time_Shift_1
Note_On_40_Vel_24
Time_Shift_126
Note_On_59_Vel_39
Time_Shift_274
Note_On_59_Vel_0
Sustain_Off
Time_Shift_1
Note_On_60_Vel_0
Note_On_47_Vel_0
Time_Shift_1
Note_On_40_Vel_0
Time_Shift_1
Note_On_78_Vel_0
Note_On_76_Vel_0
Time_Shift_2
Note_On_42_Vel_28
Note_On_75_Vel_57
Time_Shift_11
Note_On_55_Vel_0
Time_Shift_122
Sustain_On
Time_Shift_189
Note_On_47_Vel_28
Time_Shift_269
Note_On_57_Vel_40
Time_Shift_207
Note_On_54_Vel_41
Time_Shift_256
Note_On_60_Vel_43
Time_Shift_284
Note_On_59_Vel_48
Time_Shift_279
Note_On_43_Vel_46
Time_Shift_31
Sustain_Off
Time_Shift_2
Note_On_59_Vel_0
Note_On_47_Vel_0
Note_On_54_Vel_0
Note_On_60_Vel_0
Time_Shift_1
Note_On_57_Vel_0
Time_Shift_11
Note_On_42_Vel_0
Time_Shift_146
Sustain_On
Time_Shift_118
Note_On_47_Vel_42
Time_Shift_241
Note_On_55_Vel_52
Time_Shift_217
Note_On_76_Vel_66
Time_Shift_25
Note_On_52_Vel_37
Time_Shift_302
Note_On_60_Vel_51
Time_Shift_414
Note_On_59_Vel_39
Time_Shift_138
Note_On_72_Vel_64
Time_Shift_200
Sustain_Off
Note_On_52_Vel_0
Time_Shift_2
Note_On_76_Vel_0
Note_On_60_Vel_0
Time_Shift_2
Note_On_55_Vel_0
Time_Shift_1
Note_On_43_Vel_0
Note_On_47_Vel_0
Note_On_75_Vel_0
Time_Shift_1
Note_On_71_Vel_62
Time_Shift_6
Note_On_39_Vel_34
Time_Shift_3
Note_On_72_Vel_0
Time_Shift_58
Note_On_59_Vel_0
Time_Shift_115
Sustain_On
Time_Shift_112
Note_On_47_Vel_33
Time_Shift_205
Note_On_57_Vel_45
Time_Shift_210
Note_On_54_Vel_34
Time_Shift_274
Note_On_60_Vel_32
Time_Shift_171
Note_On_66_Vel_60
Time_Shift_116
Note_On_59_Vel_45
Time_Shift_245
Note_On_72_Vel_65
Time_Shift_9
Note_On_40_Vel_34
Time_Shift_13
Note_On_69_Vel_52
Time_Shift_33
Sustain_Off
Time_Shift_8
Note_On_57_Vel_0
Note_On_60_Vel_0
Note_On_54_Vel_0
Note_On_47_Vel_0
Time_Shift_2
Note_On_66_Vel_0
Time_Shift_1
Note_On_71_Vel_0
Note_On_39_Vel_0
Time_Shift_1
Note_On_59_Vel_0
Time_Shift_128
Sustain_On
Time_Shift_110
Note_On_47_Vel_35
Time_Shift_95
Note_On_71_Vel_74
Time_Shift_23
Note_On_67_Vel_48
Time_Shift_124
Note_On_55_Vel_30
Time_Shift_194
Note_On_69_Vel_0
Time_Shift_10
Note_On_69_Vel_59
Time_Shift_16
Note_On_52_Vel_34
Time_Shift_10
Note_On_66_Vel_41
Time_Shift_8
Note_On_67_Vel_0
Time_Shift_1
Note_On_47_Vel_0
Time_Shift_2
Note_On_72_Vel_0
Time_Shift_1
Sustain_Off
Note_On_55_Vel_0
Time_Shift_2
Note_On_71_Vel_0
Time_Shift_11
Note_On_40_Vel_0
Time_Shift_154
Sustain_On
Time_Shift_70
Note_On_60_Vel_36
Time_Shift_145
Note_On_64_Vel_49
Time_Shift_3
Note_On_67_Vel_54
Time_Shift_130
Note_On_59_Vel_38
Time_Shift_274
Note_On_66_Vel_0
Time_Shift_7
Note_On_66_Vel_46
Time_Shift_6
Sustain_Off
Time_Shift_6
Note_On_52_Vel_0
Note_On_60_Vel_0
Note_On_64_Vel_0
Time_Shift_4
Note_On_63_Vel_42
Time_Shift_12
Note_On_35_Vel_33
Time_Shift_18
Note_On_69_Vel_0
Time_Shift_23
Note_On_67_Vel_0
Time_Shift_169
Sustain_On
Time_Shift_62
Note_On_35_Vel_0
Time_Shift_82
Note_On_47_Vel_37
Time_Shift_263
Note_On_59_Vel_0
Time_Shift_5
Note_On_59_Vel_40
Time_Shift_294
Note_On_67_Vel_44
Time_Shift_10
Note_On_64_Vel_36
Time_Shift_2
Note_On_58_Vel_36
Time_Shift_29
Sustain_Off
Time_Shift_6
Note_On_47_Vel_0
Time_Shift_1
Note_On_59_Vel_0
Time_Shift_2
Note_On_63_Vel_0
Time_Shift_12
Note_On_66_Vel_0
Time_Shift_177
Sustain_On
Time_Shift_95
Note_On_55_Vel_29
Time_Shift_338
Note_On_46_Vel_30
Time_Shift_308
Note_On_47_Vel_28
Time_Shift_15
Note_On_66_Vel_32
Time_Shift_12
Note_On_63_Vel_28
Time_Shift_26
Sustain_Off
Note_On_58_Vel_0
Time_Shift_1
Note_On_64_Vel_0
Note_On_67_Vel_0
Note_On_55_Vel_0
Note_On_46_Vel_0
Time_Shift_211
Sustain_On
Time_Shift_46
Note_On_35_Vel_23
Time_Shift_284
Note_On_47_Vel_0
Time_Shift_4
Note_On_47_Vel_22
Time_Shift_268
Note_On_51_Vel_32
Time_Shift_332
Note_On_54_Vel_31
Time_Shift_417
Note_On_59_Vel_33
Time_Shift_470
Note_On_51_Vel_0
Time_Shift_1
Note_On_66_Vel_0
Note_On_63_Vel_0
Note_On_35_Vel_0
Note_On_59_Vel_0
Time_Shift_1
Note_On_47_Vel_0
Note_On_54_Vel_0
Time_Shift_13
Sustain_Off
Time_Shift_23
Note_On_71_Vel_60
Time_Shift_27
Note_On_43_Vel_26
Time_Shift_8
Note_On_62_Vel_36
Time_Shift_164
Sustain_On
Time_Shift_144
Note_On_50_Vel_30
Time_Shift_255
Note_On_59_Vel_47
Time_Shift_246
Note_On_71_Vel_0
Time_Shift_10
Note_On_71_Vel_60
Time_Shift_10
Note_On_55_Vel_36
Time_Shift_8
Note_On_65_Vel_44
Time_Shift_251
Note_On_64_Vel_47
Time_Shift_305
Note_On_62_Vel_0
Time_Shift_9
Note_On_62_Vel_45
Time_Shift_241
Note_On_66_Vel_47
Time_Shift_15
Note_On_42_Vel_35
Time_Shift_3
Note_On_43_Vel_0
Time_Shift_1
Note_On_55_Vel_0
Time_Shift_1
Note_On_64_Vel_0
Note_On_65_Vel_0
Note_On_59_Vel_0
Time_Shift_1
Note_On_50_Vel_0
Note_On_62_Vel_0
Time_Shift_2
Sustain_Off
Time_Shift_119
Sustain_On
Time_Shift_125
Note_On_54_Vel_46
Time_Shift_219
Note_On_61_Vel_45
Time_Shift_9
Note_On_42_Vel_0
Time_Shift_224
Note_On_73_Vel_65
Time_Shift_12
Note_On_70_Vel_53
Time_Shift_6
Note_On_64_Vel_46
Time_Shift_234
Note_On_61_Vel_0
Time_Shift_5
Note_On_61_Vel_41
Time_Shift_287
Note_On_54_Vel_0
Time_Shift_9
Note_On_54_Vel_39
Time_Shift_230
Note_On_74_Vel_67
Time_Shift_15
Note_On_71_Vel_0
Time_Shift_7
Note_On_71_Vel_49
Time_Shift_5
Note_On_54_Vel_0
Note_On_66_Vel_0
Note_On_64_Vel_0
Note_On_61_Vel_0
Time_Shift_1
Note_On_73_Vel_0
Time_Shift_1
Note_On_70_Vel_0
Time_Shift_6
Sustain_Off
Time_Shift_22
Note_On_47_Vel_37
Time_Shift_234
Sustain_On
Time_Shift_40
Note_On_54_Vel_37
Time_Shift_232
Note_On_62_Vel_42
Time_Shift_232
Note_On_59_Vel_42
Time_Shift_268
Note_On_67_Vel_39
Time_Shift_244
Note_On_66_Vel_45
Time_Shift_244
Note_On_47_Vel_0
Time_Shift_7
Note_On_74_Vel_0
Time_Shift_8
Note_On_71_Vel_0
Time_Shift_3
Note_On_74_Vel_63
Time_Shift_3
Note_On_71_Vel_50
Time_Shift_6
Note_On_65_Vel_39
Time_Shift_22
Note_On_59_Vel_0
Time_Shift_1
Note_On_62_Vel_0
Time_Shift_1
Note_On_54_Vel_0
Note_On_67_Vel_0
Note_On_66_Vel_0
Time_Shift_4
Sustain_Off
Time_Shift_152
Sustain_On
Time_Shift_156
Note_On_62_Vel_46
Time_Shift_253
Note_On_59_Vel_44
Time_Shift_190
Note_On_74_Vel_0
Time_Shift_11
Note_On_74_Vel_65
Time_Shift_4
Note_On_56_Vel_40
Time_Shift_253
Note_On_53_Vel_32
Time_Shift_280
Note_On_41_Vel_36
Time_Shift_297
Note_On_71_Vel_0
Time_Shift_3
Note_On_73_Vel_65
Time_Shift_2
Note_On_42_Vel_35
Time_Shift_1
Note_On_71_Vel_44
Time_Shift_24
Sustain_Off
Time_Shift_3
Note_On_65_Vel_0
Note_On_56_Vel_0
Note_On_41_Vel_0
Time_Shift_1
Note_On_59_Vel_0
Note_On_62_Vel_0
Note_On_53_Vel_0
Time_Shift_20
Note_On_74_Vel_0
Time_Shift_115
Sustain_On
Time_Shift_126
Note_On_54_Vel_33
Time_Shift_243
Note_On_61_Vel_42
Time_Shift_268
Note_On_64_Vel_42
Time_Shift_257
Note_On_67_Vel_32
Time_Shift_279
Note_On_66_Vel_30
Time_Shift_253
Note_On_70_Vel_49
Time_Shift_18
Note_On_64_Vel_0
Time_Shift_7
Note_On_64_Vel_41
Time_Shift_29
Sustain_Off
Time_Shift_2
Note_On_67_Vel_0
Time_Shift_1
Note_On_66_Vel_0
Note_On_54_Vel_0
Note_On_73_Vel_0
Note_On_61_Vel_0
Time_Shift_1
Note_On_42_Vel_0
Time_Shift_6
Note_On_71_Vel_0
Time_Shift_146
Sustain_On
Time_Shift_86
Note_On_61_Vel_33
Time_Shift_295
Note_On_58_Vel_37
Time_Shift_268
Note_On_54_Vel_34
Time_Shift_317
Note_On_42_Vel_33
Time_Shift_344
Note_On_30_Vel_35
Time_Shift_412
Note_On_71_Vel_44
Time_Shift_2
Note_On_35_Vel_27
Time_Shift_14
Sustain_Off
Time_Shift_2
Note_On_61_Vel_0
Note_On_58_Vel_0
Note_On_54_Vel_0
Time_Shift_2
Note_On_70_Vel_0
Time_Shift_1
Note_On_42_Vel_0
Note_On_30_Vel_0
Time_Shift_8
Note_On_64_Vel_0
Time_Shift_230
Sustain_On
Time_Shift_134
Note_On_47_Vel_25
Time_Shift_333
Note_On_54_Vel_26
Time_Shift_374
Note_On_63_Vel_50
Time_Shift_27
Note_On_57_Vel_36
Time_Shift_283
Note_On_60_Vel_38
Time_Shift_234
Note_On_59_Vel_47
Time_Shift_225
Sustain_Off
Time_Shift_2
Note_On_60_Vel_0
Note_On_64_Vel_64
Time_Shift_1
Note_On_59_Vel_0
Time_Shift_1
Note_On_63_Vel_0
Note_On_57_Vel_0
Note_On_71_Vel_0
Note_On_47_Vel_0
Note_On_54_Vel_0
Time_Shift_1
Note_On_35_Vel_0
Time_Shift_1
Note_On_43_Vel_36
Time_Shift_2
Note_On_55_Vel_35
Time_Shift_2
Note_On_43_Vel_0
Time_Shift_85
Sustain_On
Time_Shift_187
Note_On_60_Vel_54
Time_Shift_249
Note_On_59_Vel_56
Time_Shift_271
Note_On_66_Vel_62
Time_Shift_2
Note_On_54_Vel_41
Time_Shift_33
Sustain_Off
Time_Shift_1
Note_On_60_Vel_0
Time_Shift_2
Note_On_59_Vel_0
Time_Shift_1
Note_On_55_Vel_0
Time_Shift_9
Note_On_64_Vel_0
Time_Shift_220
Sustain_On
Time_Shift_56
Note_On_60_Vel_52
Time_Shift_366
Note_On_59_Vel_52
Time_Shift_501
Sustain_Off
Time_Shift_1
Note_On_60_Vel_0
Time_Shift_1
Note_On_54_Vel_0
Note_On_66_Vel_0
Note_On_59_Vel_0
Time_Shift_9
Note_On_79_Vel_69
Time_Shift_2
Note_On_40_Vel_29
Time_Shift_28
Note_On_67_Vel_41
Time_Shift_112
Sustain_On
Time_Shift_350
Note_On_47_Vel_35
Time_Shift_302
Note_On_55_Vel_39
Time_Shift_211
Note_On_52_Vel_38
Time_Shift_266
Note_On_60_Vel_44
Time_Shift_250
Note_On_59_Vel_45
Time_Shift_241
Note_On_40_Vel_0
Time_Shift_5
Note_On_40_Vel_42
Time_Shift_46
Note_On_60_Vel_0
Sustain_Off
Note_On_52_Vel_0
Note_On_47_Vel_0
Note_On_59_Vel_0
Time_Shift_1
Note_On_55_Vel_0
Time_Shift_2
Note_On_67_Vel_0
Time_Shift_1
Note_On_79_Vel_0
Time_Shift_99
Sustain_On
Time_Shift_126
Note_On_47_Vel_40
Time_Shift_246
Note_On_55_Vel_40
Time_Shift_225
Note_On_78_Vel_70
Time_Shift_13
Note_On_52_Vel_37
Time_Shift_3
Note_On_66_Vel_41
Time_Shift_279
Note_On_60_Vel_41
Time_Shift_114
Note_On_52_Vel_0
Note_On_76_Vel_68
Time_Shift_8
Note_On_52_Vel_35
Time_Shift_9
Note_On_64_Vel_50
Time_Shift_117
Note_On_59_Vel_49
Time_Shift_210
Note_On_75_Vel_66
Time_Shift_13
Note_On_63_Vel_40
Time_Shift_6
Sustain_Off
Note_On_59_Vel_0
Note_On_78_Vel_0
Time_Shift_1
Note_On_66_Vel_0
Note_On_60_Vel_0
Note_On_52_Vel_0
Note_On_64_Vel_0
Time_Shift_1
Note_On_47_Vel_0
Note_On_55_Vel_0
Time_Shift_1
Note_On_42_Vel_32
Note_On_76_Vel_0
Time_Shift_10
Note_On_40_Vel_0
Time_Shift_207
Sustain_On
Time_Shift_88
Note_On_47_Vel_32
Time_Shift_217
Note_On_57_Vel_42
Time_Shift_204
Note_On_54_Vel_39
Time_Shift_253
Note_On_60_Vel_39
Time_Shift_228
Note_On_59_Vel_47
Time_Shift_269
Note_On_43_Vel_50
Time_Shift_42
Sustain_Off
Time_Shift_1
Note_On_59_Vel_0
Note_On_63_Vel_0
Note_On_54_Vel_0
Note_On_60_Vel_0
Time_Shift_1
Note_On_75_Vel_0
Note_On_47_Vel_0
Note_On_57_Vel_0
Time_Shift_3
Note_On_42_Vel_0
Time_Shift_161
Sustain_On
Time_Shift_140
Note_On_76_Vel_62
Time_Shift_27
Note_On_64_Vel_40
Time_Shift_12
Note_On_47_Vel_31
Time_Shift_21
Note_On_43_Vel_0
Time_Shift_264
Note_On_78_Vel_75
Time_Shift_3
Note_On_43_Vel_38
Time_Shift_13
Note_On_66_Vel_50
Time_Shift_204
Note_On_66_Vel_0
Note_On_78_Vel_0
Time_Shift_6
Note_On_78_Vel_63
Time_Shift_3
Note_On_66_Vel_51
Time_Shift_4
Note_On_52_Vel_39
Time_Shift_266
Note_On_60_Vel_47
Note_On_79_Vel_77
Time_Shift_14
Note_On_67_Vel_49
Time_Shift_225
Note_On_81_Vel_77
Time_Shift_1
Note_On_59_Vel_52
Time_Shift_7
Note_On_69_Vel_58
Time_Shift_277
Note_On_83_Vel_78
Time_Shift_13
Note_On_71_Vel_60
Time_Shift_17
Sustain_Off
Time_Shift_1
Note_On_59_Vel_0
Note_On_52_Vel_0
Note_On_60_Vel_0
Note_On_64_Vel_0
Note_On_81_Vel_0
Note_On_69_Vel_0
Note_On_76_Vel_0
Note_On_47_Vel_0
Time_Shift_1
Note_On_43_Vel_0
Note_On_79_Vel_0
Note_On_78_Vel_0
Time_Shift_1
Note_On_67_Vel_0
Note_On_66_Vel_0
Time_Shift_170
Sustain_On
Time_Shift_141
Note_On_47_Vel_36
Time_Shift_276
Note_On_57_Vel_47
Time_Shift_252
Note_On_54_Vel_40
Time_Shift_287
Note_On_60_Vel_49
Time_Shift_273
Note_On_71_Vel_0
Time_Shift_9
Note_On_71_Vel_68
Time_Shift_13
Note_On_59_Vel_44
Time_Shift_8
Note_On_69_Vel_53
Time_Shift_277
Note_On_71_Vel_0
Time_Shift_8
Note_On_69_Vel_0
Time_Shift_1
Note_On_71_Vel_66
Time_Shift_10
Note_On_69_Vel_59
Time_Shift_3
Note_On_40_Vel_39
Time_Shift_26
Sustain_Off
Time_Shift_3
Note_On_83_Vel_0
Time_Shift_3
Note_On_47_Vel_0
Time_Shift_1
Note_On_60_Vel_0
Time_Shift_1
Note_On_57_Vel_0
Note_On_54_Vel_0
Time_Shift_2
Note_On_59_Vel_0
Time_Shift_111
Sustain_On
Time_Shift_195
Note_On_68_Vel_70
Time_Shift_24
Note_On_47_Vel_38
Time_Shift_261
Note_On_67_Vel_68
Time_Shift_5
Note_On_55_Vel_41
Time_Shift_244
Note_On_71_Vel_0
Time_Shift_5
Note_On_71_Vel_66
Time_Shift_8
Note_On_52_Vel_38
Time_Shift_3
Note_On_67_Vel_0
Time_Shift_11
Note_On_67_Vel_53
Time_Shift_8
Sustain_Off
Time_Shift_6
Note_On_40_Vel_0
Note_On_47_Vel_0
Time_Shift_1
Note_On_55_Vel_0
Time_Shift_1
Note_On_68_Vel_0
Time_Shift_11
Note_On_69_Vel_0
Time_Shift_115
Sustain_On
Time_Shift_149
Note_On_69_Vel_64
Time_Shift_3
Note_On_60_Vel_44
Time_Shift_4
Note_On_66_Vel_46
Time_Shift_272
Note_On_59_Vel_48
Time_Shift_10
Note_On_67_Vel_0
Time_Shift_12
Note_On_67_Vel_60
Note_On_64_Vel_49
Time_Shift_285
Sustain_Off
Time_Shift_2
Note_On_59_Vel_0
Time_Shift_1
Note_On_64_Vel_0
Note_On_60_Vel_0
Time_Shift_1
Note_On_52_Vel_0
Note_On_69_Vel_0
Time_Shift_6
Note_On_71_Vel_0
Time_Shift_8
Note_On_66_Vel_0
Time_Shift_8
Note_On_67_Vel_0
Time_Shift_3
Note_On_66_Vel_55
Time_Shift_16
Note_On_35_Vel_31
Time_Shift_1
Note_On_63_Vel_51
Time_Shift_126
Sustain_On
Time_Shift_187
Note_On_47_Vel_45
Time_Shift_248
Note_On_59_Vel_56
Time_Shift_281
Note_On_67_Vel_59
Time_Shift_18
Note_On_64_Vel_48
Time_Shift_5
Note_On_58_Vel_45
Time_Shift_5
Sustain_Off
Time_Shift_2
Note_On_47_Vel_0
Time_Shift_1
Note_On_59_Vel_0
Note_On_66_Vel_0
Note_On_35_Vel_0
Time_Shift_1
Note_On_63_Vel_0
Time_Shift_135
Sustain_On
Time_Shift_239
Note_On_47_Vel_32
Time_Shift_3
Note_On_76_Vel_64
Time_Shift_11
Note_On_67_Vel_0
Time_Shift_5
Note_On_67_Vel_45
Time_Shift_364
Note_On_76_Vel_0
Time_Shift_9
Note_On_76_Vel_64
Time_Shift_1
Note_On_35_Vel_30
Time_Shift_13
Note_On_67_Vel_0
Time_Shift_5
Note_On_67_Vel_38
Time_Shift_345
Note_On_64_Vel_0
Note_On_58_Vel_0
Note_On_67_Vel_0
Time_Shift_2
Note_On_76_Vel_0
Sustain_Off
Time_Shift_6
Note_On_75_Vel_57
Time_Shift_3
Note_On_47_Vel_0
Time_Shift_6
Note_On_47_Vel_25
Note_On_66_Vel_35
Time_Shift_63
Note_On_35_Vel_0
Time_Shift_161
Sustain_On
Time_Shift_93
Note_On_35_Vel_28
Time_Shift_245
Note_On_47_Vel_0
Time_Shift_12
Note_On_47_Vel_26
Time_Shift_256
Note_On_51_Vel_35
Time_Shift_334
Note_On_54_Vel_30
Time_Shift_430
Note_On_59_Vel_31
Time_Shift_497
Note_On_47_Vel_0
Time_Shift_4
Note_On_47_Vel_34
Time_Shift_11
Note_On_66_Vel_0
Note_On_74_Vel_52
Time_Shift_11
Note_On_66_Vel_32
Time_Shift_69
Note_On_35_Vel_0
Time_Shift_1
Note_On_54_Vel_0
Time_Shift_1
Note_On_59_Vel_0
Note_On_51_Vel_0
Time_Shift_3
Sustain_Off
Time_Shift_1
Note_On_75_Vel_0
Time_Shift_206
Sustain_On
Time_Shift_68
Note_On_35_Vel_31
Time_Shift_262
Note_On_47_Vel_0
Time_Shift_8
Note_On_47_Vel_30
Time_Shift_243
Note_On_67_Vel_50
Time_Shift_28
Note_On_50_Vel_32
Time_Shift_285
Note_On_55_Vel_29
Time_Shift_119
Note_On_65_Vel_57
Time_Shift_156
Note_On_59_Vel_43
Time_Shift_206
Note_On_64_Vel_63
Time_Shift_22
Note_On_35_Vel_0
Time_Shift_11
Sustain_Off
Time_Shift_7
Note_On_67_Vel_0
Time_Shift_1
Note_On_74_Vel_0
Note_On_55_Vel_0
Time_Shift_1
Note_On_50_Vel_0
Note_On_47_Vel_0
Note_On_60_Vel_41
Time_Shift_1
Note_On_59_Vel_0
Time_Shift_3
Note_On_65_Vel_0
Time_Shift_30
Note_On_66_Vel_0
Time_Shift_169
Sustain_On
Time_Shift_103
Note_On_59_Vel_50
Time_Shift_266
Note_On_60_Vel_0
Time_Shift_6
Note_On_60_Vel_45
Time_Shift_296
Note_On_72_Vel_58
Time_Shift_4
Note_On_55_Vel_33
Time_Shift_9
Note_On_64_Vel_0
Time_Shift_11
Note_On_64_Vel_24
Time_Shift_48
Note_On_59_Vel_0
Time_Shift_2
Note_On_60_Vel_0
Time_Shift_1
Sustain_Off
Time_Shift_145
Sustain_On
Time_Shift_61
Note_On_52_Vel_34
Time_Shift_247
Note_On_48_Vel_41
Time_Shift_226
Note_On_65_Vel_52
Time_Shift_32
Note_On_43_Vel_37
Time_Shift_33
Sustain_Off
Time_Shift_4
Note_On_48_Vel_0
Time_Shift_1
Note_On_55_Vel_0
Note_On_52_Vel_0
Time_Shift_26
Note_On_64_Vel_0
Time_Shift_130
Sustain_On
Time_Shift_92
Note_On_50_Vel_36
Time_Shift_178
Note_On_71_Vel_65
Time_Shift_57
Note_On_55_Vel_34
Time_Shift_291
Note_On_59_Vel_38
Time_Shift_2
Note_On_69_Vel_65
Time_Shift_118
Note_On_71_Vel_0
Time_Shift_10
Note_On_71_Vel_58
Time_Shift_51
Note_On_69_Vel_0
Time_Shift_6
Note_On_69_Vel_53
Time_Shift_56
Note_On_71_Vel_0
Time_Shift_8
Note_On_71_Vel_49
Time_Shift_40
Note_On_64_Vel_45
Time_Shift_44
Note_On_71_Vel_0
Time_Shift_8
Note_On_71_Vel_57
Time_Shift_45
Note_On_69_Vel_0
Time_Shift_5
Note_On_69_Vel_71
Time_Shift_101
Note_On_67_Vel_70
Time_Shift_112
Note_On_62_Vel_44
Time_Shift_236
Note_On_67_Vel_0
Time_Shift_4
Note_On_67_Vel_62
Time_Shift_11
Note_On_64_Vel_0
Time_Shift_6
Note_On_64_Vel_49
Time_Shift_8
Note_On_60_Vel_38
Time_Shift_33
Note_On_65_Vel_0
Note_On_55_Vel_0
Note_On_72_Vel_0
Note_On_43_Vel_0
Time_Shift_1
Note_On_50_Vel_0
Note_On_71_Vel_0
Note_On_69_Vel_0
Note_On_62_Vel_0
Time_Shift_1
Note_On_59_Vel_0
Time_Shift_1
Sustain_Off
Time_Shift_165
Sustain_On
Time_Shift_73
Note_On_48_Vel_38
Time_Shift_224
Note_On_52_Vel_48
Time_Shift_241
Note_On_67_Vel_0
Time_Shift_7
Note_On_67_Vel_65
Time_Shift_28
Note_On_55_Vel_38
Time_Shift_241
Note_On_60_Vel_0
Time_Shift_4
Note_On_60_Vel_36
Time_Shift_188
Note_On_67_Vel_0
Time_Shift_10
Note_On_67_Vel_71
Time_Shift_159
Note_On_64_Vel_0
Time_Shift_5
Note_On_64_Vel_53
Time_Shift_402
Note_On_67_Vel_0
Time_Shift_4
Note_On_69_Vel_57
Time_Shift_7
Note_On_67_Vel_56
Time_Shift_4
Note_On_64_Vel_0
Time_Shift_8
Note_On_64_Vel_46
Time_Shift_2
Note_On_61_Vel_39
Time_Shift_14
Note_On_60_Vel_0
Time_Shift_1
Note_On_48_Vel_0
Time_Shift_1
Note_On_55_Vel_0
Time_Shift_1
Note_On_52_Vel_0
Sustain_Off
Time_Shift_142
Sustain_On
Time_Shift_211
Note_On_49_Vel_33
Time_Shift_246
Note_On_52_Vel_46
Time_Shift_265
Note_On_69_Vel_0
Time_Shift_5
Note_On_69_Vel_59
Time_Shift_4
Note_On_57_Vel_46
Time_Shift_264
Note_On_65_Vel_46
Time_Shift_188
Note_On_69_Vel_0
Time_Shift_4
Note_On_69_Vel_67
Time_Shift_134
Note_On_64_Vel_0
Time_Shift_10
Note_On_64_Vel_53
Time_Shift_267
Note_On_69_Vel_0
Time_Shift_7
Note_On_69_Vel_63
Time_Shift_8
Note_On_65_Vel_0
Time_Shift_5
Note_On_65_Vel_45
Note_On_38_Vel_31
Time_Shift_8
Note_On_61_Vel_0
Time_Shift_1
Note_On_64_Vel_0
Time_Shift_1
Note_On_52_Vel_0
Sustain_Off
Time_Shift_1
Note_On_57_Vel_0
Note_On_49_Vel_0
Time_Shift_23
Note_On_67_Vel_0
Time_Shift_107
Sustain_On
Time_Shift_101
Note_On_50_Vel_38
Time_Shift_176
Note_On_38_Vel_0
Time_Shift_64
Note_On_53_Vel_44
Time_Shift_243
Note_On_69_Vel_0
Time_Shift_5
Note_On_57_Vel_45
Time_Shift_2
Note_On_69_Vel_66
Time_Shift_257
Note_On_64_Vel_57
Time_Shift_112
Note_On_69_Vel_0
Time_Shift_9
Note_On_69_Vel_65
Time_Shift_165
Note_On_62_Vel_54
Time_Shift_272
Note_On_69_Vel_0
Time_Shift_1
Note_On_71_Vel_66
Time_Shift_3
Note_On_69_Vel_55
Time_Shift_15
Note_On_66_Vel_43
Time_Shift_8
Note_On_39_Vel_38
Time_Shift_23
Note_On_65_Vel_0
Note_On_64_Vel_0
Time_Shift_2
Note_On_57_Vel_0
Note_On_62_Vel_0
Time_Shift_1
Note_On_50_Vel_0
Time_Shift_1
Note_On_53_Vel_0
Time_Shift_1
Sustain_Off
Time_Shift_90
Sustain_On
Time_Shift_137
Note_On_51_Vel_46
Time_Shift_234
Note_On_54_Vel_51
Time_Shift_236
Note_On_71_Vel_0
Time_Shift_8
Note_On_69_Vel_0
Time_Shift_2
Note_On_71_Vel_65
Time_Shift_2
Note_On_69_Vel_51
Time_Shift_27
Note_On_59_Vel_51
Time_Shift_265
Note_On_67_Vel_51
Time_Shift_103
Note_On_71_Vel_0
Time_Shift_12
Note_On_71_Vel_72
Time_Shift_142
Note_On_66_Vel_0
Time_Shift_5
Note_On_66_Vel_54
Time_Shift_264
Note_On_67_Vel_0
Note_On_71_Vel_0
Time_Shift_4
Note_On_71_Vel_68
Time_Shift_6
Note_On_67_Vel_56
Time_Shift_48
Note_On_40_Vel_40
Time_Shift_9
Sustain_Off
Time_Shift_4
Note_On_59_Vel_0
Note_On_39_Vel_0
Note_On_51_Vel_0
Time_Shift_1
Note_On_66_Vel_0
Note_On_54_Vel_0
Time_Shift_12
Note_On_69_Vel_0
Time_Shift_85
Sustain_On
Time_Shift_113
Note_On_52_Vel_43
Time_Shift_40
Note_On_40_Vel_0
Time_Shift_231
Note_On_55_Vel_49
Time_Shift_258
Note_On_73_Vel_68
Time_Shift_3
Note_On_71_Vel_0
Time_Shift_2
Note_On_59_Vel_46
Time_Shift_2
Note_On_71_Vel_59
Time_Shift_265
Note_On_67_Vel_0
Time_Shift_6
Note_On_67_Vel_51
Time_Shift_314
Note_On_64_Vel_58
Time_Shift_370
Note_On_74_Vel_70
Time_Shift_1
Note_On_71_Vel_0
Time_Shift_8
Note_On_42_Vel_42
Time_Shift_2
Note_On_71_Vel_60
Time_Shift_2
Note_On_66_Vel_50
Time_Shift_15
Sustain_Off
Time_Shift_2
Note_On_55_Vel_0
Time_Shift_3
Note_On_59_Vel_0
Note_On_64_Vel_0
Note_On_73_Vel_0
Time_Shift_1
Note_On_52_Vel_0
Note_On_67_Vel_0
Time_Shift_105
Sustain_On
Time_Shift_202
Note_On_54_Vel_51
Time_Shift_287
Note_On_62_Vel_55
Time_Shift_275
Note_On_59_Vel_57
Time_Shift_294
Note_On_67_Vel_47
Time_Shift_294
Note_On_66_Vel_0
Time_Shift_10
Note_On_66_Vel_49
Time_Shift_281
Note_On_71_Vel_0
Time_Shift_4
Note_On_73_Vel_71
Time_Shift_1
Note_On_71_Vel_59
Time_Shift_43
Note_On_66_Vel_0
Note_On_62_Vel_0
Time_Shift_1
Note_On_59_Vel_0
Note_On_67_Vel_0
Note_On_54_Vel_0
Note_On_42_Vel_0
Time_Shift_1
Note_On_74_Vel_0
Time_Shift_2
Sustain_Off
Time_Shift_133
Sustain_On
Time_Shift_112
Note_On_54_Vel_45
Time_Shift_283
Note_On_62_Vel_53
Time_Shift_303
Note_On_61_Vel_39
Time_Shift_1
Note_On_70_Vel_53
Time_Shift_20
Sustain_Off
Time_Shift_6
Note_On_54_Vel_0
Time_Shift_2
Note_On_62_Vel_0
Time_Shift_10
Note_On_71_Vel_0
Time_Shift_115
Sustain_On
Time_Shift_159
Note_On_67_Vel_46
Time_Shift_353
Note_On_66_Vel_48
Time_Shift_420
Note_On_75_Vel_76
Time_Shift_9
Note_On_35_Vel_39
Time_Shift_3
Note_On_69_Vel_55
Time_Shift_20
Sustain_Off
Time_Shift_1
Note_On_70_Vel_0
Time_Shift_1
Note_On_67_Vel_0
Note_On_66_Vel_0
Time_Shift_1
Note_On_61_Vel_0
Time_Shift_9
Note_On_73_Vel_0
Time_Shift_123
Sustain_On
Time_Shift_92
Note_On_35_Vel_0
Time_Shift_134
Note_On_47_Vel_43
Time_Shift_261
Note_On_54_Vel_45
Time_Shift_324
Note_On_59_Vel_52
Time_Shift_318
Note_On_67_Vel_48
Time_Shift_346
Note_On_66_Vel_46
Time_Shift_348
Note_On_76_Vel_63
Time_Shift_4
Note_On_67_Vel_0
Time_Shift_5
Note_On_67_Vel_47
Time_Shift_12
Note_On_40_Vel_32
Time_Shift_1
Sustain_Off
Time_Shift_3
Note_On_75_Vel_0
Time_Shift_1
Note_On_47_Vel_0
Time_Shift_1
Note_On_59_Vel_0
Note_On_54_Vel_0
Note_On_69_Vel_0
Time_Shift_2
Note_On_66_Vel_0
Time_Shift_121
Sustain_On
Time_Shift_217
Note_On_47_Vel_36
Time_Shift_273
Note_On_55_Vel_37
Time_Shift_289
Note_On_71_Vel_63
Time_Shift_325
Note_On_66_Vel_40
Time_Shift_337
Note_On_64_Vel_44
Time_Shift_326
Note_On_67_Vel_0
Time_Shift_5
Note_On_70_Vel_60
Time_Shift_5
Note_On_67_Vel_40
Time_Shift_2
Note_On_42_Vel_35
Time_Shift_31
Note_On_55_Vel_0
Time_Shift_1
Sustain_Off
Note_On_64_Vel_0
Time_Shift_1
Note_On_47_Vel_0
Note_On_40_Vel_0
Time_Shift_1
Note_On_66_Vel_0
Note_On_76_Vel_0
Note_On_71_Vel_0
Time_Shift_138
Sustain_On
Time_Shift_158
Note_On_49_Vel_37
Time_Shift_280
Note_On_52_Vel_37
Time_Shift_255
Note_On_66_Vel_51
Time_Shift_293
Note_On_62_Vel_44
Time_Shift_179
Note_On_64_Vel_58
Time_Shift_146
Note_On_61_Vel_50
Time_Shift_267
Note_On_71_Vel_56
Time_Shift_4
Note_On_62_Vel_0
Time_Shift_10
Note_On_62_Vel_50
Time_Shift_5
Note_On_42_Vel_0
Time_Shift_5
Note_On_42_Vel_37
Time_Shift_32
Sustain_Off
Note_On_64_Vel_0
Time_Shift_2
Note_On_49_Vel_0
Note_On_66_Vel_0
Note_On_52_Vel_0
Time_Shift_1
Note_On_70_Vel_0
Note_On_61_Vel_0
Time_Shift_7
Note_On_67_Vel_0
Time_Shift_130
Sustain_On
Time_Shift_145
Note_On_50_Vel_43
Time_Shift_306
Note_On_54_Vel_46
Time_Shift_299
Note_On_59_Vel_49
Time_Shift_311
Note_On_58_Vel_49
Time_Shift_329
Note_On_59_Vel_0
Time_Shift_10
Note_On_59_Vel_49
Time_Shift_366
Note_On_59_Vel_0
Time_Shift_10
Note_On_59_Vel_40
Time_Shift_14
Note_On_71_Vel_0
Time_Shift_6
Note_On_71_Vel_61
Time_Shift_9
Note_On_42_Vel_0
Time_Shift_9
Note_On_61_Vel_39
Time_Shift_1
Note_On_42_Vel_43
Time_Shift_33
Note_On_59_Vel_0
Note_On_54_Vel_0
Note_On_50_Vel_0
Note_On_58_Vel_0
Time_Shift_3
Sustain_Off
Time_Shift_8
Note_On_62_Vel_0
Time_Shift_92
Sustain_On
Time_Shift_188
Note_On_49_Vel_41
Time_Shift_305
Note_On_53_Vel_44
Time_Shift_281
Note_On_54_Vel_45
Time_Shift_308
Note_On_57_Vel_48
Time_Shift_350
Note_On_55_Vel_37
Time_Shift_350
Note_On_42_Vel_0
Time_Shift_10
Note_On_42_Vel_32
Time_Shift_7
Note_On_70_Vel_51
Time_Shift_38
Note_On_54_Vel_0
Time_Shift_2
Note_On_49_Vel_0
Time_Shift_1
Note_On_57_Vel_0
Note_On_55_Vel_0
Note_On_61_Vel_0
Time_Shift_2
Note_On_53_Vel_0
Time_Shift_3
Sustain_Off
Time_Shift_21
Note_On_71_Vel_0
Time_Shift_154
Sustain_On
Time_Shift_138
Note_On_49_Vel_34
Time_Shift_340
Note_On_53_Vel_30
Time_Shift_380
Note_On_64_Vel_46
Time_Shift_21
Note_On_54_Vel_28
Time_Shift_31
Note_On_49_Vel_0
Time_Shift_2
Sustain_Off
Time_Shift_2
Note_On_53_Vel_0
Time_Shift_145
Sustain_On
Time_Shift_264
Note_On_53_Vel_29
Time_Shift_481
Note_On_54_Vel_0
Time_Shift_7
Note_On_54_Vel_25
Time_Shift_641
Note_On_71_Vel_36
Note_On_63_Vel_29
Time_Shift_2
Note_On_35_Vel_30
Time_Shift_29
Note_On_54_Vel_0
Sustain_Off
Time_Shift_1
Note_On_64_Vel_0
Note_On_53_Vel_0
Time_Shift_12
Note_On_42_Vel_0
Note_On_70_Vel_0
Time_Shift_268
Sustain_On
Time_Shift_210
Note_On_42_Vel_26
Time_Shift_366
Note_On_35_Vel_0
Time_Shift_2
Note_On_54_Vel_35
Time_Shift_334
Note_On_51_Vel_33
Time_Shift_313
Note_On_49_Vel_31
Time_Shift_270
Note_On_47_Vel_28
Time_Shift_283
Note_On_35_Vel_38
Time_Shift_39
Note_On_54_Vel_0
Time_Shift_6
Note_On_49_Vel_0
Time_Shift_1
Note_On_51_Vel_0
Sustain_Off
Time_Shift_212
Sustain_On
Time_Shift_53
Note_On_42_Vel_0
Time_Shift_11
Note_On_42_Vel_33
Time_Shift_277
Note_On_54_Vel_28
Time_Shift_272
Note_On_51_Vel_32
Time_Shift_332
Note_On_49_Vel_32
Time_Shift_322
Note_On_47_Vel_0
Time_Shift_4
Note_On_47_Vel_20
Time_Shift_502
Note_On_75_Vel_61
Sustain_Off
Time_Shift_1
Note_On_54_Vel_0
Note_On_71_Vel_0
Note_On_47_Vel_0
Note_On_51_Vel_0
Note_On_49_Vel_0
Time_Shift_1
Note_On_42_Vel_0
Time_Shift_6
Note_On_63_Vel_0
Time_Shift_1
Note_On_71_Vel_40
Time_Shift_7
Note_On_35_Vel_0
Time_Shift_4
Note_On_35_Vel_22
Time_Shift_219
Sustain_On
Time_Shift_239
Note_On_42_Vel_25
Time_Shift_311
Note_On_54_Vel_22
Time_Shift_262
Note_On_51_Vel_27
Time_Shift_308
Note_On_49_Vel_27
Time_Shift_315
Note_On_47_Vel_19
Time_Shift_320
Note_On_69_Vel_37
Time_Shift_1
Note_On_73_Vel_51
Time_Shift_218
Note_On_35_Vel_0
Note_On_69_Vel_0
Note_On_73_Vel_0
Time_Shift_5
Note_On_73_Vel_42
Time_Shift_1
Note_On_35_Vel_22
Time_Shift_3
Note_On_69_Vel_38
Time_Shift_10
Sustain_Off
Time_Shift_15
Note_On_47_Vel_0
Time_Shift_1
Note_On_71_Vel_0
Note_On_49_Vel_0
Time_Shift_1
Note_On_54_Vel_0
Time_Shift_1
Note_On_42_Vel_0
Time_Shift_4
Note_On_75_Vel_0
Time_Shift_1
Note_On_51_Vel_0
Time_Shift_165
Sustain_On
Time_Shift_172
Note_On_42_Vel_30
Time_Shift_292
Note_On_54_Vel_29
Time_Shift_162
Sustain_Off
Time_Shift_50
Sustain_On
Time_Shift_58
Note_On_51_Vel_22
Time_Shift_288
Note_On_49_Vel_28
Time_Shift_21
Sustain_Off
Time_Shift_40
Sustain_On
Time_Shift_249
Note_On_47_Vel_23
Time_Shift_243
Note_On_71_Vel_48
Time_Shift_3
Note_On_68_Vel_39
Time_Shift_227
Note_On_71_Vel_0
Time_Shift_7
Note_On_35_Vel_0
Time_Shift_1
Note_On_71_Vel_41
Time_Shift_4
Note_On_35_Vel_25
Time_Shift_3
Note_On_68_Vel_0
Time_Shift_9
Sustain_Off
Time_Shift_2
Note_On_68_Vel_37
Time_Shift_13
Note_On_42_Vel_0
Time_Shift_38
Note_On_49_Vel_0
Sustain_On
Time_Shift_284
Note_On_47_Vel_0
Time_Shift_4
Note_On_47_Vel_25
Time_Shift_276
Note_On_56_Vel_29
Time_Shift_12
Note_On_51_Vel_0
Note_On_54_Vel_0
Note_On_69_Vel_0
Note_On_73_Vel_0
Time_Shift_241
Note_On_52_Vel_31
Time_Shift_279
Note_On_49_Vel_25
Time_Shift_255
Note_On_47_Vel_0
Time_Shift_6
Note_On_47_Vel_29
Time_Shift_263
Note_On_35_Vel_0
Time_Shift_11
Note_On_35_Vel_27
Time_Shift_39
Sustain_Off
Time_Shift_3
Note_On_47_Vel_0
Time_Shift_2
Note_On_49_Vel_0
Note_On_52_Vel_0
Time_Shift_1
Note_On_56_Vel_0
Time_Shift_113
Sustain_On
Time_Shift_84
Note_On_68_Vel_0
Time_Shift_51
Note_On_47_Vel_31
Time_Shift_253
Note_On_56_Vel_37
Time_Shift_256
Note_On_72_Vel_51
Time_Shift_6
Note_On_69_Vel_34
Time_Shift_9
Note_On_52_Vel_30
Time_Shift_263
Note_On_49_Vel_26
Time_Shift_261
Note_On_47_Vel_0
Time_Shift_5
Note_On_47_Vel_27
Time_Shift_271
Note_On_35_Vel_0
Time_Shift_6
Note_On_73_Vel_60
Time_Shift_4
Note_On_35_Vel_28
Time_Shift_15
Note_On_70_Vel_46
Time_Shift_39
Sustain_Off
Note_On_49_Vel_0
Time_Shift_1
Note_On_52_Vel_0
Note_On_56_Vel_0
Note_On_69_Vel_0
Time_Shift_4
Note_On_71_Vel_0
Time_Shift_8
Note_On_72_Vel_0
Time_Shift_8
Note_On_47_Vel_0
Time_Shift_123
Sustain_On
Time_Shift_103
Note_On_47_Vel_28
Time_Shift_222
Note_On_55_Vel_31
Time_Shift_105
Sustain_Off
Time_Shift_84
Sustain_On
Time_Shift_43
Note_On_52_Vel_32
Time_Shift_281
Note_On_49_Vel_35
Time_Shift_14
Note_On_35_Vel_0
Time_Shift_143
Note_On_75_Vel_56
Time_Shift_26
Note_On_52_Vel_0
Time_Shift_10
Note_On_52_Vel_23
Time_Shift_1
Note_On_71_Vel_32
Time_Shift_96
Note_On_47_Vel_0
Time_Shift_6
Note_On_47_Vel_31
Time_Shift_241
Note_On_76_Vel_54
Time_Shift_15
Note_On_73_Vel_0
Time_Shift_4
Note_On_35_Vel_22
Time_Shift_7
Note_On_73_Vel_49
Time_Shift_34
Note_On_49_Vel_0
Sustain_Off
Note_On_55_Vel_0
Time_Shift_3
Note_On_52_Vel_0
Note_On_75_Vel_0
Note_On_71_Vel_0
Time_Shift_36
Note_On_70_Vel_0
Time_Shift_54
Sustain_On
Time_Shift_138
Note_On_47_Vel_0
Time_Shift_6
Note_On_47_Vel_29
Time_Shift_113
Note_On_78_Vel_62
Time_Shift_32
Note_On_75_Vel_43
Time_Shift_137
Note_On_55_Vel_31
Time_Shift_180
Note_On_76_Vel_0
Time_Shift_1
Note_On_75_Vel_0
Time_Shift_3
Note_On_78_Vel_0
Note_On_47_Vel_0
Time_Shift_6
Sustain_Off
Time_Shift_21
Note_On_73_Vel_0
Time_Shift_8
Sustain_On
Time_Shift_30
Note_On_79_Vel_52
Time_Shift_7
Note_On_70_Vel_37
Time_Shift_2
Note_On_76_Vel_42
Time_Shift_22
Note_On_35_Vel_0
Sustain_Off
Time_Shift_3
Note_On_52_Vel_27
Time_Shift_13
Note_On_55_Vel_0
Time_Shift_153
Sustain_On
Time_Shift_142
Note_On_49_Vel_28
Time_Shift_166
Note_On_79_Vel_0
Time_Shift_7
Note_On_76_Vel_0
Time_Shift_4
Note_On_79_Vel_54
Time_Shift_3
Note_On_76_Vel_43
Time_Shift_188
Note_On_47_Vel_27
Time_Shift_312
Note_On_79_Vel_0
Time_Shift_10
Note_On_79_Vel_49
Time_Shift_13
Note_On_76_Vel_0
Time_Shift_7
Note_On_76_Vel_41
Time_Shift_1
Note_On_35_Vel_28
Time_Shift_6
Note_On_71_Vel_36
Time_Shift_44
Note_On_49_Vel_0
Time_Shift_1
Note_On_47_Vel_0
Sustain_Off
Note_On_52_Vel_0
Time_Shift_164
Sustain_On
Time_Shift_173
Note_On_47_Vel_24
Time_Shift_288
Note_On_54_Vel_29
Time_Shift_274
Note_On_78_Vel_41
Time_Shift_2
Note_On_75_Vel_34
Time_Shift_27
Note_On_51_Vel_24
Time_Shift_17
Note_On_47_Vel_0
Note_On_35_Vel_0
Time_Shift_3
Note_On_54_Vel_0
Time_Shift_3
Sustain_Off
Time_Shift_4
Note_On_79_Vel_0
Time_Shift_15
Note_On_76_Vel_0
Time_Shift_139
Sustain_On
Time_Shift_96
Note_On_49_Vel_28
Time_Shift_160
Sustain_Off
Time_Shift_7
Note_On_51_Vel_0
Time_Shift_36
Sustain_On
Time_Shift_55
Note_On_47_Vel_19
Time_Shift_30
Note_On_70_Vel_0
Time_Shift_253
Note_On_35_Vel_26
Time_Shift_17
Sustain_Off
Time_Shift_9
Note_On_47_Vel_0
Time_Shift_12
Note_On_49_Vel_0
Time_Shift_154
Sustain_On
Time_Shift_102
Note_On_42_Vel_24
Time_Shift_278
Note_On_54_Vel_30
Time_Shift_261
Note_On_51_Vel_23
Time_Shift_292
Note_On_49_Vel_28
Time_Shift_12
Note_On_71_Vel_0
Time_Shift_258
Note_On_47_Vel_26
Time_Shift_417
Note_On_75_Vel_0
Time_Shift_8
Note_On_75_Vel_72
Time_Shift_8
Note_On_35_Vel_0
Time_Shift_6
Note_On_63_Vel_51
Time_Shift_5
Note_On_35_Vel_32
Time_Shift_2
Note_On_71_Vel_49
Time_Shift_36
Sustain_Off
Time_Shift_10
Note_On_51_Vel_0
Time_Shift_1
Note_On_49_Vel_0
Note_On_47_Vel_0
Note_On_42_Vel_0
Time_Shift_1
Note_On_54_Vel_0
Time_Shift_1
Note_On_78_Vel_0
Time_Shift_214
Sustain_On
Time_Shift_191
Note_On_42_Vel_35
Time_Shift_289
Note_On_54_Vel_37
Time_Shift_261
Note_On_51_Vel_34
Time_Shift_262
Note_On_49_Vel_34
Time_Shift_280
Note_On_47_Vel_33
Time_Shift_310
Note_On_73_Vel_65
Time_Shift_12
Note_On_35_Vel_0
Note_On_63_Vel_0
Time_Shift_2
Note_On_69_Vel_47
Time_Shift_8
Note_On_35_Vel_33
Time_Shift_1
Note_On_63_Vel_36
Time_Shift_26
Sustain_Off
Time_Shift_18
Note_On_49_Vel_0
Time_Shift_2
Note_On_54_Vel_0
Time_Shift_1
Note_On_42_Vel_0
Note_On_51_Vel_0
Time_Shift_2
Note_On_47_Vel_0
Time_Shift_25
Note_On_71_Vel_0
Time_Shift_115
Sustain_On
Time_Shift_69
Note_On_75_Vel_0
Time_Shift_49
Note_On_42_Vel_34
Time_Shift_279
Note_On_54_Vel_35
Time_Shift_269
Note_On_51_Vel_35
Time_Shift_322
Note_On_49_Vel_33
Time_Shift_318
Note_On_63_Vel_0
Time_Shift_5
Note_On_71_Vel_60
Time_Shift_2
Note_On_69_Vel_0
Time_Shift_4
Note_On_63_Vel_47
Time_Shift_1
Note_On_69_Vel_51
Time_Shift_364
Note_On_73_Vel_0
Time_Shift_5
Note_On_64_Vel_42
Time_Shift_6
Note_On_73_Vel_57
Time_Shift_12
Note_On_35_Vel_0
Time_Shift_3
Note_On_68_Vel_49
Note_On_63_Vel_0
Note_On_49_Vel_0
Time_Shift_1
Note_On_54_Vel_0
Note_On_42_Vel_0
Time_Shift_1
Note_On_71_Vel_0
Time_Shift_1
Note_On_69_Vel_0
Note_On_51_Vel_0
Time_Shift_1
Sustain_Off
Time_Shift_3
Note_On_35_Vel_32
Time_Shift_197
Sustain_On
Time_Shift_138
Note_On_47_Vel_32
Time_Shift_285
Note_On_56_Vel_41
Time_Shift_245
Note_On_71_Vel_50
Time_Shift_16
Note_On_64_Vel_0
Time_Shift_4
Note_On_64_Vel_30
Time_Shift_1
Note_On_52_Vel_32
Time_Shift_4
Sustain_Off
Time_Shift_8
Note_On_47_Vel_0
Time_Shift_6
Note_On_35_Vel_0
Time_Shift_38
Note_On_73_Vel_0
Time_Shift_146
Sustain_On
Time_Shift_51
Note_On_49_Vel_29
Time_Shift_275
Note_On_47_Vel_26
Time_Shift_97
Note_On_52_Vel_0
Time_Shift_157
Note_On_35_Vel_37
Time_Shift_280
Note_On_47_Vel_0
Time_Shift_12
Note_On_47_Vel_31
Time_Shift_242
Note_On_56_Vel_0
Time_Shift_4
Note_On_56_Vel_41
Time_Shift_211
Note_On_71_Vel_0
Time_Shift_11
Note_On_71_Vel_67
Time_Shift_7
Note_On_52_Vel_31
Time_Shift_5
Note_On_64_Vel_0
Time_Shift_11
Note_On_64_Vel_36
Time_Shift_235
Note_On_49_Vel_0
Time_Shift_9
Note_On_49_Vel_35
Time_Shift_244
Note_On_47_Vel_0
Time_Shift_8
Note_On_47_Vel_36
Time_Shift_282
Note_On_67_Vel_50
Time_Shift_1
Note_On_70_Vel_62
Time_Shift_9
Note_On_64_Vel_0
Time_Shift_5
Note_On_64_Vel_45
Time_Shift_34
Sustain_Off
Time_Shift_10
Note_On_49_Vel_0
Time_Shift_1
Note_On_52_Vel_0
Note_On_47_Vel_0
Note_On_56_Vel_0
Time_Shift_3
Note_On_68_Vel_0
Time_Shift_62
Note_On_71_Vel_0
Time_Shift_77
Sustain_On
Time_Shift_101
Note_On_47_Vel_37
Time_Shift_264
Note_On_55_Vel_45
Time_Shift_256
Note_On_52_Vel_44
Time_Shift_291
Note_On_49_Vel_45
Time_Shift_196
Note_On_66_Vel_50
Time_Shift_15
Note_On_63_Vel_43
Time_Shift_121
Note_On_47_Vel_0
Time_Shift_8
Note_On_47_Vel_36
Time_Shift_261
Note_On_67_Vel_0
Time_Shift_4
Note_On_67_Vel_56
Time_Shift_11
Note_On_64_Vel_0
Time_Shift_7
Note_On_64_Vel_43
Time_Shift_11
Note_On_63_Vel_0
Note_On_55_Vel_0
Note_On_49_Vel_0
Time_Shift_1
Note_On_52_Vel_0
Note_On_70_Vel_0
Note_On_66_Vel_0
Note_On_47_Vel_0
Time_Shift_4
Sustain_Off
Time_Shift_169
Sustain_On
Time_Shift_95
Note_On_47_Vel_34
Time_Shift_162
Note_On_66_Vel_45
Time_Shift_1
Note_On_63_Vel_39
Time_Shift_146
Note_On_55_Vel_32
Time_Shift_241
Note_On_64_Vel_0
Note_On_67_Vel_0
Time_Shift_6
Note_On_67_Vel_45
Time_Shift_3
Note_On_64_Vel_45
Time_Shift_32
Sustain_Off
Time_Shift_1
Note_On_66_Vel_0
Time_Shift_1
Note_On_55_Vel_0
Note_On_63_Vel_0
Time_Shift_3
Note_On_35_Vel_0
Time_Shift_4
Note_On_52_Vel_26
Time_Shift_219
Sustain_On
Time_Shift_165
Note_On_49_Vel_25
Time_Shift_165
Note_On_67_Vel_0
Time_Shift_8
Note_On_64_Vel_0
Time_Shift_2
Note_On_67_Vel_40
Time_Shift_9
Note_On_64_Vel_38
Time_Shift_189
Note_On_47_Vel_0
Time_Shift_5
Note_On_47_Vel_26
Time_Shift_379
Note_On_64_Vel_0
Time_Shift_4
Note_On_69_Vel_41
Time_Shift_3
Note_On_64_Vel_41
Time_Shift_4
Note_On_35_Vel_28
Time_Shift_39
Note_On_47_Vel_0
Time_Shift_1
Sustain_Off
Note_On_52_Vel_0
Note_On_49_Vel_0
Time_Shift_18
Note_On_67_Vel_0
Time_Shift_115
Sustain_On
Time_Shift_242
Note_On_47_Vel_25
Time_Shift_304
Note_On_54_Vel_32
Time_Shift_364
Note_On_63_Vel_40
Time_Shift_28
Note_On_57_Vel_32
Time_Shift_28
Note_On_35_Vel_0
Time_Shift_4
Note_On_47_Vel_0
Time_Shift_2
Sustain_Off
Time_Shift_19
Note_On_64_Vel_0
Time_Shift_169
Sustain_On
Time_Shift_123
Note_On_60_Vel_32
Time_Shift_305
Note_On_59_Vel_44
Time_Shift_247
Note_On_57_Vel_0
Time_Shift_11
Note_On_57_Vel_42
Time_Shift_51
Note_On_57_Vel_0
Time_Shift_7
Note_On_54_Vel_0
Time_Shift_2
Note_On_57_Vel_24
Time_Shift_2
Sustain_Off
Time_Shift_3
Note_On_60_Vel_0
Time_Shift_1
Note_On_63_Vel_0
Time_Shift_1
Note_On_59_Vel_0
Time_Shift_130
Sustain_On
Time_Shift_80
Note_On_54_Vel_37
Time_Shift_189
Note_On_69_Vel_0
Time_Shift_131
Note_On_51_Vel_41
Time_Shift_337
Note_On_48_Vel_40
Time_Shift_49
Sustain_Off
Time_Shift_9
Note_On_54_Vel_0
Time_Shift_9
Note_On_51_Vel_0
Time_Shift_25
Note_On_57_Vel_0
Time_Shift_275
Note_On_48_Vel_0
Time_Shift_11
Note_On_47_Vel_35
Time_Shift_421
Sustain_On
Time_Shift_11
Note_On_35_Vel_35
Time_Shift_515
Note_On_71_Vel_63
Time_Shift_216
Note_On_40_Vel_37
Time_Shift_24
Sustain_Off
Time_Shift_17
Sustain_On
Time_Shift_8
Note_On_47_Vel_0
Time_Shift_30
Note_On_35_Vel_0
Time_Shift_6
Note_On_79_Vel_74
Time_Shift_356
Note_On_47_Vel_49
Time_Shift_294
Note_On_55_Vel_54
Time_Shift_214
Note_On_52_Vel_54
Time_Shift_234
Note_On_60_Vel_61
Time_Shift_220
Note_On_59_Vel_66
Time_Shift_205
Note_On_40_Vel_0
Time_Shift_6
Note_On_40_Vel_61
Time_Shift_59
Note_On_52_Vel_0
Note_On_47_Vel_0
Note_On_59_Vel_0
Note_On_55_Vel_0
Note_On_60_Vel_0
Time_Shift_1
Note_On_71_Vel_0
Time_Shift_7
Sustain_Off
Time_Shift_119
Sustain_On
Time_Shift_102
Note_On_47_Vel_55
Time_Shift_228
Note_On_55_Vel_57
Time_Shift_256
Note_On_71_Vel_64
Time_Shift_1
Note_On_52_Vel_41
Time_Shift_7
Note_On_64_Vel_46
Time_Shift_33
Note_On_72_Vel_62
Time_Shift_41
Note_On_71_Vel_0
Time_Shift_11
Note_On_71_Vel_52
Time_Shift_43
Note_On_72_Vel_0
Time_Shift_11
Note_On_72_Vel_59
Time_Shift_42
Note_On_71_Vel_0
Time_Shift_8
Note_On_71_Vel_60
Time_Shift_46
Note_On_72_Vel_0
Time_Shift_9
Note_On_72_Vel_59
Time_Shift_68
Note_On_71_Vel_0
Time_Shift_7
Note_On_71_Vel_60
Time_Shift_12
Note_On_60_Vel_49
Time_Shift_27
Note_On_72_Vel_0
Time_Shift_11
Note_On_72_Vel_60
Time_Shift_51
Note_On_71_Vel_0
Time_Shift_10
Note_On_71_Vel_42
Time_Shift_88
Note_On_70_Vel_72
Time_Shift_109
Note_On_59_Vel_54
Time_Shift_31
Note_On_71_Vel_0
Time_Shift_5
Note_On_71_Vel_74
Time_Shift_128
Note_On_76_Vel_71
Time_Shift_124
Note_On_71_Vel_0
Note_On_47_Vel_0
Note_On_60_Vel_0
Note_On_70_Vel_0
Time_Shift_1
Note_On_59_Vel_0
Note_On_52_Vel_0
Note_On_55_Vel_0
Time_Shift_3
Sustain_Off
Note_On_40_Vel_0
Note_On_79_Vel_0
Time_Shift_15
Note_On_72_Vel_0
Time_Shift_4
Note_On_75_Vel_75
Note_On_42_Vel_47
Time_Shift_4
Note_On_64_Vel_0
Time_Shift_7
Note_On_76_Vel_0
Time_Shift_146
Sustain_On
Time_Shift_152
Note_On_47_Vel_42
Time_Shift_249
Note_On_57_Vel_51
Time_Shift_204
Note_On_54_Vel_46
Time_Shift_227
Note_On_60_Vel_57
Time_Shift_226
Note_On_59_Vel_64
Time_Shift_235
Note_On_43_Vel_66
Time_Shift_39
Sustain_Off
Note_On_42_Vel_0
Time_Shift_1
Note_On_47_Vel_0
Note_On_59_Vel_0
Time_Shift_1
Note_On_54_Vel_0
Note_On_60_Vel_0
Note_On_57_Vel_0
Note_On_75_Vel_0
Time_Shift_210
Sustain_On
Time_Shift_35
Note_On_47_Vel_54
Time_Shift_222
Note_On_55_Vel_61
Time_Shift_95
Note_On_76_Vel_59
Time_Shift_42
Note_On_78_Vel_66
Time_Shift_44
Note_On_76_Vel_0
Time_Shift_9
Note_On_76_Vel_63
Time_Shift_28
Note_On_52_Vel_50
Time_Shift_165
Note_On_75_Vel_83
Time_Shift_120
Note_On_76_Vel_0
Time_Shift_6
Note_On_60_Vel_56
Time_Shift_4
Note_On_76_Vel_76
Time_Shift_106
Note_On_78_Vel_0
Time_Shift_9
Note_On_78_Vel_81
Time_Shift_44
Note_On_59_Vel_56
Time_Shift_66
Note_On_79_Vel_76
Time_Shift_109
Note_On_81_Vel_82
Time_Shift_119
Note_On_60_Vel_0
Time_Shift_2
Note_On_59_Vel_0
Note_On_75_Vel_0
Note_On_52_Vel_0
Note_On_43_Vel_0
Time_Shift_1
Note_On_47_Vel_0
Sustain_Off
Note_On_78_Vel_0
Note_On_76_Vel_0
Note_On_55_Vel_0
Time_Shift_2
Note_On_79_Vel_0
Time_Shift_5
Note_On_81_Vel_0
Time_Shift_5
Note_On_83_Vel_78
Time_Shift_12
Note_On_39_Vel_57
Time_Shift_171
Sustain_On
Time_Shift_142
Note_On_47_Vel_52
Time_Shift_258
Note_On_57_Vel_57
Time_Shift_234
Note_On_54_Vel_52
Time_Shift_254
Note_On_60_Vel_58
Time_Shift_266
Note_On_59_Vel_65
Time_Shift_257
Note_On_40_Vel_59
Time_Shift_38
Note_On_47_Vel_0
Time_Shift_1
Note_On_54_Vel_0
Note_On_57_Vel_0
Note_On_39_Vel_0
Time_Shift_1
Note_On_83_Vel_0
Sustain_Off
Time_Shift_1
Note_On_59_Vel_0
Time_Shift_1
Note_On_60_Vel_0
Time_Shift_167
Sustain_On
Time_Shift_109
Note_On_47_Vel_55
Time_Shift_183
Note_On_40_Vel_0
Time_Shift_42
Note_On_55_Vel_63
Time_Shift_106
Note_On_83_Vel_72
Time_Shift_50
Note_On_84_Vel_67
Time_Shift_71
Note_On_83_Vel_0
Time_Shift_5
Note_On_83_Vel_77
Time_Shift_18
Note_On_52_Vel_57
Time_Shift_255
Note_On_85_Vel_83
Time_Shift_149
Note_On_60_Vel_63
Time_Shift_2
Note_On_87_Vel_83
Time_Shift_135
Note_On_88_Vel_82
Time_Shift_129
Note_On_90_Vel_85
Time_Shift_10
Note_On_59_Vel_60
Time_Shift_135
Note_On_91_Vel_77
Time_Shift_131
Note_On_75_Vel_80
Time_Shift_114
Note_On_90_Vel_0
Time_Shift_5
Note_On_90_Vel_89
Note_On_35_Vel_75
Time_Shift_30
Sustain_Off
Time_Shift_6
Note_On_60_Vel_0
Note_On_91_Vel_0
Note_On_52_Vel_0
Time_Shift_1
Note_On_55_Vel_0
Note_On_83_Vel_0
Note_On_87_Vel_0
Note_On_47_Vel_0
Note_On_84_Vel_0
Note_On_85_Vel_0
Time_Shift_1
Note_On_88_Vel_0
Note_On_59_Vel_0
Time_Shift_118
Sustain_On
Time_Shift_169
Note_On_47_Vel_68
Time_Shift_269
Note_On_54_Vel_72
Time_Shift_290
Note_On_88_Vel_84
Time_Shift_2
Note_On_55_Vel_74
Time_Shift_23
Note_On_75_Vel_0
Time_Shift_17
Sustain_Off
Time_Shift_1
Note_On_54_Vel_0
Time_Shift_1
Note_On_35_Vel_0
Note_On_47_Vel_0
Time_Shift_19
Note_On_90_Vel_0
Time_Shift_123
Sustain_On
Time_Shift_159
Note_On_85_Vel_74
Time_Shift_36
Note_On_47_Vel_63
Time_Shift_108
Note_On_82_Vel_77
Time_Shift_108
Note_On_79_Vel_77
Time_Shift_108
Note_On_76_Vel_64
Time_Shift_55
Note_On_58_Vel_74
Time_Shift_45
Note_On_73_Vel_67
Time_Shift_91
Note_On_70_Vel_71
Time_Shift_82
Note_On_64_Vel_71
Time_Shift_123
Note_On_71_Vel_75
Time_Shift_3
Note_On_63_Vel_68
Time_Shift_4
Note_On_47_Vel_0
Time_Shift_5
Note_On_59_Vel_69
Time_Shift_2
Note_On_47_Vel_52
Time_Shift_27
Sustain_Off
Time_Shift_1
Note_On_82_Vel_0
Time_Shift_5
Note_On_70_Vel_0
Time_Shift_1
Note_On_58_Vel_0
Note_On_79_Vel_0
Time_Shift_1
Note_On_85_Vel_0
Time_Shift_1
Note_On_73_Vel_0
Note_On_55_Vel_0
Note_On_76_Vel_0
Note_On_88_Vel_0
Time_Shift_1
Note_On_64_Vel_0
Time_Shift_194
Sustain_On
Time_Shift_138
Note_On_47_Vel_0
Time_Shift_8
Note_On_47_Vel_55
Time_Shift_371
Note_On_46_Vel_49
Time_Shift_281
Note_On_47_Vel_0
Time_Shift_7
Note_On_47_Vel_41
Time_Shift_38
Sustain_Off
Time_Shift_3
Note_On_46_Vel_0
Time_Shift_244
Sustain_On
Time_Shift_66
Note_On_51_Vel_40
Time_Shift_406
Note_On_54_Vel_38
Time_Shift_519
Note_On_59_Vel_0
Time_Shift_2
Note_On_43_Vel_37
Time_Shift_3
Note_On_62_Vel_50
Time_Shift_6
Note_On_59_Vel_35
Time_Shift_40
Note_On_54_Vel_0
Note_On_63_Vel_0
Time_Shift_2
Note_On_51_Vel_0
Time_Shift_5
Sustain_Off
Time_Shift_11
Note_On_47_Vel_0
Time_Shift_100
Note_On_71_Vel_0
Time_Shift_169
Sustain_On
Time_Shift_102
Note_On_50_Vel_36
Time_Shift_221
Note_On_59_Vel_0
Time_Shift_8
Note_On_59_Vel_43
Time_Shift_4
Note_On_64_Vel_53
Time_Shift_101
Note_On_66_Vel_57
Time_Shift_99
Note_On_67_Vel_60
Time_Shift_91
Note_On_69_Vel_67
Time_Shift_108
Sustain_Off
Time_Shift_1
Note_On_59_Vel_0
Time_Shift_1
Note_On_62_Vel_0
Note_On_66_Vel_0
Time_Shift_1
Note_On_67_Vel_0
Note_On_50_Vel_0
Note_On_43_Vel_0
Time_Shift_1
Note_On_64_Vel_0
Time_Shift_1
Note_On_69_Vel_0
Time_Shift_11
Note_On_55_Vel_36
Note_On_71_Vel_66
Time_Shift_156
Sustain_On
Time_Shift_235
Note_On_64_Vel_36
Time_Shift_49
Note_On_71_Vel_0
Time_Shift_5
Note_On_71_Vel_67
Time_Shift_264
Note_On_62_Vel_45
Time_Shift_31
Note_On_71_Vel_0
Time_Shift_6
Note_On_71_Vel_66
Time_Shift_270
Note_On_71_Vel_0
Time_Shift_4
Note_On_42_Vel_36
Time_Shift_7
Note_On_71_Vel_53
Time_Shift_10
Note_On_64_Vel_0
Time_Shift_1
Note_On_55_Vel_0
Note_On_62_Vel_0
Time_Shift_6
Sustain_Off
Time_Shift_118
Sustain_On
Time_Shift_183
Note_On_54_Vel_42
Time_Shift_291
Note_On_62_Vel_45
Time_Shift_312
Note_On_64_Vel_40
Time_Shift_6
Note_On_70_Vel_51
Time_Shift_14
Sustain_Off
Time_Shift_8
Note_On_62_Vel_0
Time_Shift_16
Note_On_71_Vel_0
Time_Shift_46
Sustain_On
Time_Shift_86
Note_On_71_Vel_49
Time_Shift_67
Note_On_70_Vel_0
Time_Shift_7
Note_On_70_Vel_46
Time_Shift_39
Note_On_71_Vel_0
Time_Shift_7
Note_On_71_Vel_57
Time_Shift_55
Note_On_70_Vel_0
Time_Shift_5
Note_On_70_Vel_58
Time_Shift_41
Note_On_71_Vel_0
Time_Shift_10
Note_On_71_Vel_54
Time_Shift_40
Note_On_61_Vel_33
Time_Shift_19
Note_On_70_Vel_0
Time_Shift_4
Note_On_70_Vel_57
Time_Shift_50
Note_On_71_Vel_0
Time_Shift_6
Note_On_71_Vel_58
Time_Shift_55
Note_On_70_Vel_0
Time_Shift_10
Note_On_70_Vel_60
Time_Shift_86
Note_On_68_Vel_51
Time_Shift_66
Note_On_70_Vel_0
Time_Shift_9
Note_On_70_Vel_53
Time_Shift_67
Note_On_71_Vel_0
Time_Shift_2
Note_On_70_Vel_0
Time_Shift_6
Note_On_71_Vel_57
Time_Shift_4
Sustain_Off
Time_Shift_27
Note_On_42_Vel_0
Time_Shift_15
Note_On_71_Vel_0
Time_Shift_16
Note_On_54_Vel_0
Time_Shift_5
Note_On_73_Vel_59
Time_Shift_6
Note_On_54_Vel_30
Time_Shift_42
Sustain_On
Time_Shift_23
Note_On_74_Vel_58
Time_Shift_80
Note_On_76_Vel_56
Time_Shift_73
Note_On_78_Vel_57
Time_Shift_59
Note_On_80_Vel_59
Time_Shift_74
Note_On_82_Vel_66
Time_Shift_108
Note_On_83_Vel_66
Time_Shift_13
Note_On_64_Vel_0
Time_Shift_1
Note_On_68_Vel_0
Note_On_54_Vel_0
Time_Shift_1
Note_On_74_Vel_0
Time_Shift_1
Note_On_73_Vel_0
Note_On_76_Vel_0
Note_On_80_Vel_0
Time_Shift_1
Note_On_82_Vel_0
Note_On_78_Vel_0
Time_Shift_2
Sustain_Off
Time_Shift_10
Note_On_61_Vel_0
Time_Shift_7
Note_On_47_Vel_31
Time_Shift_146
Sustain_On
Time_Shift_172
Note_On_54_Vel_37
Time_Shift_226
Note_On_62_Vel_40
Time_Shift_228
Note_On_59_Vel_46
Time_Shift_254
Note_On_67_Vel_44
Time_Shift_276
Note_On_66_Vel_48
Time_Shift_227
Note_On_66_Vel_0
Time_Shift_10
Note_On_66_Vel_46
Time_Shift_8
Note_On_54_Vel_0
Note_On_67_Vel_0
Note_On_59_Vel_0
Note_On_62_Vel_0
Time_Shift_1
Note_On_47_Vel_0
Time_Shift_4
Note_On_83_Vel_0
Time_Shift_2
Sustain_Off
Time_Shift_5
Note_On_83_Vel_69
Time_Shift_8
Note_On_66_Vel_0
Time_Shift_4
Note_On_65_Vel_47
Time_Shift_88
Sustain_On
Time_Shift_103
Note_On_85_Vel_60
Time_Shift_51
Note_On_83_Vel_0
Time_Shift_9
Note_On_83_Vel_55
Time_Shift_60
Note_On_85_Vel_0
Time_Shift_10
Note_On_85_Vel_56
Time_Shift_10
Note_On_62_Vel_44
Time_Shift_18
Note_On_83_Vel_0
Time_Shift_12
Note_On_83_Vel_60
Time_Shift_42
Note_On_85_Vel_0
Time_Shift_5
Note_On_85_Vel_69
Time_Shift_49
Note_On_83_Vel_0
Time_Shift_11
Note_On_83_Vel_62
Time_Shift_50
Note_On_85_Vel_0
Time_Shift_5
Note_On_85_Vel_68
Time_Shift_30
Note_On_59_Vel_48
Time_Shift_27
Note_On_83_Vel_0
Time_Shift_6
Note_On_83_Vel_59
Time_Shift_48
Note_On_85_Vel_0
Time_Shift_6
Note_On_85_Vel_68
Time_Shift_32
Note_On_83_Vel_0
Time_Shift_9
Note_On_83_Vel_55
Time_Shift_52
Note_On_85_Vel_0
Time_Shift_11
Note_On_85_Vel_67
Time_Shift_22
Note_On_53_Vel_45
Time_Shift_29
Note_On_83_Vel_0
Time_Shift_10
Note_On_83_Vel_60
Time_Shift_44
Note_On_85_Vel_0
Time_Shift_8
Note_On_85_Vel_66
Time_Shift_61
Note_On_83_Vel_0
Time_Shift_4
Note_On_83_Vel_60
Time_Shift_49
Note_On_85_Vel_0
Time_Shift_5
Note_On_85_Vel_64
Time_Shift_42
Note_On_83_Vel_0
Time_Shift_8
Note_On_83_Vel_59
Time_Shift_7
Note_On_50_Vel_40
Time_Shift_61
Note_On_85_Vel_0
Time_Shift_11
Note_On_85_Vel_59
Time_Shift_35
Note_On_83_Vel_0
Time_Shift_10
Note_On_83_Vel_57
Time_Shift_52
Note_On_85_Vel_0
Time_Shift_5
Note_On_85_Vel_63
Time_Shift_56
Note_On_83_Vel_0
Time_Shift_5
Note_On_83_Vel_58
Time_Shift_41
Note_On_85_Vel_0
Time_Shift_9
Note_On_85_Vel_62
Time_Shift_23
Note_On_41_Vel_37
Time_Shift_30
Note_On_83_Vel_0
Time_Shift_10
Note_On_83_Vel_61
Time_Shift_85
Note_On_82_Vel_72
Time_Shift_66
Note_On_83_Vel_0
Time_Shift_6
Note_On_83_Vel_72
Time_Shift_71
Note_On_85_Vel_0
Time_Shift_6
Note_On_85_Vel_73
Time_Shift_56
Note_On_62_Vel_0
Time_Shift_1
Note_On_65_Vel_0
Time_Shift_1
Note_On_59_Vel_0
Time_Shift_1
Note_On_82_Vel_0
Note_On_53_Vel_0
Note_On_50_Vel_0
Time_Shift_3
Sustain_Off
Time_Shift_1
Note_On_83_Vel_0
Note_On_85_Vel_0
Time_Shift_4
Note_On_85_Vel_64
Time_Shift_4
Note_On_41_Vel_0
Time_Shift_2
Note_On_83_Vel_64
Time_Shift_3
Note_On_42_Vel_47
Time_Shift_79
Sustain_On
Time_Shift_47
Note_On_86_Vel_70
Time_Shift_84
Note_On_85_Vel_0
Time_Shift_4
Note_On_85_Vel_60
Time_Shift_42
Note_On_86_Vel_0
Time_Shift_11
Note_On_86_Vel_68
Time_Shift_21
Note_On_54_Vel_48
Time_Shift_60
Note_On_85_Vel_0
Time_Shift_11
Note_On_85_Vel_59
Time_Shift_35
Note_On_86_Vel_0
Time_Shift_6
Note_On_86_Vel_68
Time_Shift_63
Note_On_85_Vel_0
Time_Shift_9
Note_On_85_Vel_62
Time_Shift_34
Note_On_61_Vel_58
Time_Shift_11
Note_On_86_Vel_0
Time_Shift_6
Note_On_86_Vel_61
Time_Shift_63
Note_On_85_Vel_0
Time_Shift_8
Note_On_85_Vel_60
Time_Shift_38
Note_On_86_Vel_0
Time_Shift_11
Note_On_86_Vel_60
Time_Shift_66
Note_On_85_Vel_0
Time_Shift_8
Note_On_85_Vel_62
Time_Shift_30
Note_On_86_Vel_0
Time_Shift_12
Note_On_86_Vel_60
Note_On_64_Vel_65
Time_Shift_57
Note_On_85_Vel_0
Time_Shift_12
Note_On_85_Vel_61
Time_Shift_42
Note_On_86_Vel_0
Time_Shift_5
Note_On_86_Vel_65
Time_Shift_64
Note_On_85_Vel_0
Time_Shift_11
Note_On_85_Vel_60
Time_Shift_35
Note_On_86_Vel_0
Time_Shift_8
Note_On_86_Vel_68
Time_Shift_29
Note_On_67_Vel_62
Time_Shift_63
Note_On_86_Vel_0
Time_Shift_10
Note_On_86_Vel_66
Time_Shift_52
Note_On_85_Vel_0
Time_Shift_10
Note_On_85_Vel_51
Time_Shift_51
Note_On_86_Vel_0
Time_Shift_10
Note_On_86_Vel_72
Time_Shift_39
Note_On_66_Vel_60
Time_Shift_5
Note_On_85_Vel_0
Time_Shift_5
Note_On_85_Vel_56
Time_Shift_64
Note_On_86_Vel_0
Time_Shift_10
Note_On_86_Vel_72
Time_Shift_75
Note_On_83_Vel_0
Note_On_85_Vel_0
Time_Shift_3
Note_On_85_Vel_86
Time_Shift_17
Note_On_82_Vel_83
Time_Shift_33
Note_On_64_Vel_0
Time_Shift_3
Note_On_67_Vel_0
Sustain_Off
Time_Shift_1
Note_On_66_Vel_0
Note_On_54_Vel_0
Note_On_42_Vel_0
Note_On_61_Vel_0
Note_On_86_Vel_0
Time_Shift_3
Note_On_64_Vel_72
Time_Shift_89
Note_On_86_Vel_64
Time_Shift_4
Sustain_On
Time_Shift_54
Note_On_85_Vel_0
Time_Shift_5
Note_On_85_Vel_62
Time_Shift_49
Note_On_86_Vel_0
Time_Shift_7
Note_On_86_Vel_64
Time_Shift_77
Note_On_85_Vel_0
Time_Shift_6
Note_On_85_Vel_64
Time_Shift_7
Note_On_61_Vel_67
Time_Shift_41
Note_On_86_Vel_0
Time_Shift_10
Note_On_86_Vel_65
Time_Shift_67
Note_On_85_Vel_0
Time_Shift_8
Note_On_85_Vel_63
Time_Shift_61
Note_On_86_Vel_0
Time_Shift_6
Note_On_86_Vel_70
Time_Shift_63
Note_On_85_Vel_0
Time_Shift_5
Note_On_58_Vel_71
Note_On_85_Vel_66
Time_Shift_41
Note_On_86_Vel_0
Time_Shift_6
Note_On_86_Vel_65
Time_Shift_71
Note_On_85_Vel_0
Time_Shift_8
Note_On_85_Vel_67
Time_Shift_38
Note_On_86_Vel_0
Time_Shift_6
Note_On_86_Vel_66
Time_Shift_63
Note_On_85_Vel_0
Time_Shift_11
Note_On_85_Vel_74
Time_Shift_49
Note_On_54_Vel_70
Time_Shift_42
Note_On_84_Vel_75
Time_Shift_82
Note_On_85_Vel_0
Time_Shift_8
Note_On_85_Vel_76
Time_Shift_77
Note_On_86_Vel_0
Time_Shift_11
Note_On_86_Vel_72
Time_Shift_44
Note_On_42_Vel_62
Time_Shift_26
Note_On_87_Vel_79
Time_Shift_78
Note_On_88_Vel_83
Time_Shift_71
Note_On_89_Vel_82
Time_Shift_61
Note_On_90_Vel_84
Time_Shift_70
Note_On_42_Vel_0
Time_Shift_6
Note_On_42_Vel_63
Time_Shift_2
Note_On_91_Vel_79
Time_Shift_72
Note_On_92_Vel_83
Time_Shift_20
Note_On_82_Vel_0
Time_Shift_50
Note_On_93_Vel_83
Time_Shift_68
Note_On_94_Vel_90
Time_Shift_96
Note_On_95_Vel_90
Time_Shift_14
Note_On_83_Vel_78
Time_Shift_11
Note_On_35_Vel_78
Time_Shift_53
Note_On_87_Vel_0
Time_Shift_1
Note_On_86_Vel_0
Time_Shift_1
Note_On_58_Vel_0
Note_On_94_Vel_0
Note_On_85_Vel_0
Sustain_Off
Note_On_93_Vel_0
Note_On_90_Vel_0
Note_On_92_Vel_0
Note_On_89_Vel_0
Note_On_91_Vel_0
Time_Shift_1
Note_On_88_Vel_0
Note_On_84_Vel_0
Note_On_64_Vel_0
Note_On_54_Vel_0
Note_On_61_Vel_0
Time_Shift_2
Note_On_42_Vel_0
Time_Shift_156
Sustain_On
Time_Shift_186
Note_On_42_Vel_63
Time_Shift_277
Note_On_54_Vel_53
Time_Shift_278
Note_On_63_Vel_68
Time_Shift_45
Note_On_57_Vel_56
Time_Shift_251
Note_On_95_Vel_0
Time_Shift_5
Note_On_60_Vel_56
Time_Shift_259
Note_On_59_Vel_59
Time_Shift_224
Note_On_64_Vel_66
Time_Shift_29
Note_On_55_Vel_40
Time_Shift_1
Sustain_Off
Time_Shift_6
Note_On_54_Vel_0
Note_On_60_Vel_0
Time_Shift_1
Note_On_57_Vel_0
Note_On_42_Vel_0
Note_On_63_Vel_0
Time_Shift_2
Note_On_35_Vel_0
Note_On_59_Vel_0
Time_Shift_148
Sustain_On
Time_Shift_110
Note_On_60_Vel_51
Time_Shift_288
Note_On_59_Vel_48
Time_Shift_278
Note_On_83_Vel_0
Time_Shift_13
Note_On_66_Vel_50
Time_Shift_46
Sustain_Off
Time_Shift_2
Note_On_60_Vel_0
Time_Shift_1
Note_On_59_Vel_0
Time_Shift_1
Note_On_55_Vel_0
Time_Shift_3
Note_On_64_Vel_0
Time_Shift_165
Sustain_On
Time_Shift_118
Note_On_60_Vel_36
Time_Shift_409
Note_On_59_Vel_39
Time_Shift_485
Note_On_79_Vel_78
Time_Shift_26
Note_On_67_Vel_49
Time_Shift_8
Sustain_Off
Time_Shift_2
Note_On_40_Vel_27
Time_Shift_19
Note_On_60_Vel_0
Time_Shift_3
Note_On_66_Vel_0
Time_Shift_43
Note_On_59_Vel_0
Time_Shift_39
Sustain_On
Time_Shift_276
Note_On_47_Vel_42
Time_Shift_246
Note_On_55_Vel_54
Time_Shift_219
Note_On_52_Vel_51
Time_Shift_262
Note_On_60_Vel_60
Time_Shift_236
Note_On_59_Vel_66
Time_Shift_220
Note_On_40_Vel_0
Time_Shift_5
Note_On_40_Vel_66
Time_Shift_47
Note_On_47_Vel_0
Note_On_59_Vel_0
Note_On_55_Vel_0
Time_Shift_1
Note_On_52_Vel_0
Time_Shift_1
Sustain_Off
Note_On_67_Vel_0
Time_Shift_1
Note_On_60_Vel_0
Time_Shift_1
Note_On_79_Vel_0
Time_Shift_113
Sustain_On
Time_Shift_109
Note_On_47_Vel_55
Time_Shift_204
Note_On_55_Vel_61
Time_Shift_223
Note_On_78_Vel_76
Time_Shift_3
Note_On_52_Vel_50
Time_Shift_2
Note_On_66_Vel_63
Time_Shift_286
Note_On_60_Vel_59
Time_Shift_143
Note_On_76_Vel_79
Time_Shift_4
Note_On_64_Vel_67
Time_Shift_119
Note_On_59_Vel_57
Time_Shift_247
Note_On_75_Vel_77
Time_Shift_7
Note_On_63_Vel_60
Time_Shift_8
Note_On_42_Vel_49
Time_Shift_13
Sustain_Off
Time_Shift_2
Note_On_59_Vel_0
Note_On_52_Vel_0
Time_Shift_1
Note_On_60_Vel_0
Note_On_66_Vel_0
Note_On_64_Vel_0
Note_On_55_Vel_0
Note_On_47_Vel_0
Time_Shift_1
Note_On_78_Vel_0
Time_Shift_2
Note_On_76_Vel_0
Time_Shift_16
Note_On_40_Vel_0
Time_Shift_146
Sustain_On
Time_Shift_104
Note_On_47_Vel_40
Time_Shift_261
Note_On_57_Vel_49
Time_Shift_201
Note_On_54_Vel_45
Time_Shift_243
Note_On_60_Vel_47
Time_Shift_226
Note_On_59_Vel_56
Time_Shift_236
Note_On_40_Vel_60
Time_Shift_44
Note_On_54_Vel_0
Time_Shift_1
Note_On_42_Vel_0
Note_On_47_Vel_0
Note_On_57_Vel_0
Note_On_60_Vel_0
Note_On_63_Vel_0
Time_Shift_1
Note_On_59_Vel_0
Time_Shift_1
Note_On_75_Vel_0
Time_Shift_1
Sustain_Off
Time_Shift_71
Sustain_On
Time_Shift_147
Note_On_76_Vel_73
Time_Shift_4
Note_On_64_Vel_61
Time_Shift_11
Note_On_47_Vel_45
Time_Shift_215
Note_On_55_Vel_50
Time_Shift_2
Note_On_78_Vel_79
Time_Shift_3
Note_On_66_Vel_62
Time_Shift_205
Note_On_52_Vel_50
Time_Shift_1
Note_On_79_Vel_80
Time_Shift_6
Note_On_67_Vel_68
Time_Shift_53
Note_On_55_Vel_0
Note_On_78_Vel_0
Note_On_66_Vel_0
Note_On_47_Vel_0
Note_On_64_Vel_0
Time_Shift_1
Note_On_40_Vel_0
Note_On_76_Vel_0
Sustain_Off
Time_Shift_43
Sustain_On
Time_Shift_98
Note_On_81_Vel_83
Time_Shift_5
Note_On_69_Vel_70
Time_Shift_28
Note_On_60_Vel_54
Time_Shift_287
Note_On_59_Vel_63
Time_Shift_150
Note_On_83_Vel_86
Time_Shift_2
Note_On_71_Vel_81
Time_Shift_137
Note_On_71_Vel_0
Note_On_83_Vel_0
Time_Shift_7
Note_On_83_Vel_75
Time_Shift_3
Note_On_71_Vel_70
Time_Shift_20
Note_On_39_Vel_68
Time_Shift_12
Sustain_Off
Time_Shift_6
Note_On_67_Vel_0
Note_On_79_Vel_0
Time_Shift_1
Note_On_60_Vel_0
Note_On_59_Vel_0
Note_On_52_Vel_0
Note_On_69_Vel_0
Note_On_81_Vel_0
Time_Shift_58
Sustain_On
Time_Shift_300
Note_On_71_Vel_0
Note_On_83_Vel_0
Time_Shift_4
Note_On_83_Vel_77
Time_Shift_3
Note_On_71_Vel_76
Time_Shift_22
Note_On_59_Vel_45
Time_Shift_3
Note_On_47_Vel_51
Time_Shift_6
Note_On_59_Vel_0
Time_Shift_284
Note_On_83_Vel_0
Time_Shift_8
Note_On_47_Vel_0
Note_On_71_Vel_0
Time_Shift_3
Note_On_83_Vel_80
Time_Shift_1
Note_On_71_Vel_79
Time_Shift_1
Note_On_47_Vel_48
Time_Shift_1
Note_On_59_Vel_60
Time_Shift_224
Note_On_71_Vel_0
Note_On_83_Vel_0
Time_Shift_9
Note_On_54_Vel_63
Note_On_83_Vel_72
Time_Shift_1
Note_On_71_Vel_74
Time_Shift_228
Note_On_71_Vel_0
Time_Shift_8
Note_On_71_Vel_76
Time_Shift_4
Note_On_60_Vel_60
Time_Shift_226
Note_On_71_Vel_0
Time_Shift_8
Note_On_59_Vel_0
Time_Shift_3
Note_On_71_Vel_75
Time_Shift_2
Note_On_81_Vel_70
Note_On_69_Vel_69
Time_Shift_2
Note_On_59_Vel_58
Time_Shift_231
Note_On_69_Vel_0
Note_On_71_Vel_0
Time_Shift_5
Note_On_69_Vel_76
Time_Shift_1
Note_On_71_Vel_72
Time_Shift_2
Note_On_81_Vel_0
Time_Shift_9
Note_On_81_Vel_70
Time_Shift_7
Note_On_40_Vel_55
Time_Shift_11
Note_On_83_Vel_0
Time_Shift_1
Note_On_47_Vel_0
Note_On_39_Vel_0
Sustain_Off
Time_Shift_1
Note_On_60_Vel_0
Note_On_54_Vel_0
Time_Shift_1
Note_On_59_Vel_0
Time_Shift_93
Sustain_On
Time_Shift_61
Note_On_81_Vel_0
Time_Shift_85
Note_On_71_Vel_0
Time_Shift_4
Note_On_68_Vel_75
Note_On_71_Vel_70
Time_Shift_27
Note_On_47_Vel_50
Time_Shift_245
Note_On_71_Vel_0
Time_Shift_7
Note_On_71_Vel_75
Time_Shift_5
Note_On_67_Vel_65
Time_Shift_7
Note_On_55_Vel_53
Time_Shift_242
Note_On_71_Vel_0
Time_Shift_4
Note_On_71_Vel_63
Time_Shift_4
Note_On_67_Vel_0
Time_Shift_7
Note_On_52_Vel_43
Time_Shift_1
Note_On_67_Vel_59
Time_Shift_30
Note_On_40_Vel_0
Time_Shift_1
Note_On_55_Vel_0
Time_Shift_1
Note_On_47_Vel_0
Note_On_68_Vel_0
Time_Shift_1
Sustain_Off
Time_Shift_13
Note_On_69_Vel_0
Time_Shift_115
Sustain_On
Time_Shift_150
Note_On_66_Vel_52
Note_On_69_Vel_64
Time_Shift_1
Note_On_60_Vel_43
Time_Shift_275
Note_On_59_Vel_51
Time_Shift_27
Note_On_67_Vel_0
Time_Shift_4
Note_On_67_Vel_62
Time_Shift_9
Note_On_64_Vel_50
Time_Shift_273
Note_On_64_Vel_0
Note_On_59_Vel_0
Note_On_60_Vel_0
Time_Shift_1
Note_On_52_Vel_0
Note_On_69_Vel_0
Note_On_67_Vel_0
Time_Shift_3
Sustain_Off
Time_Shift_2
Note_On_66_Vel_0
Time_Shift_6
Note_On_66_Vel_62
Time_Shift_2
Note_On_71_Vel_0
Time_Shift_12
Note_On_35_Vel_37
Time_Shift_5
Note_On_63_Vel_53
Time_Shift_98
Sustain_On
Time_Shift_138
Note_On_35_Vel_0
Time_Shift_66
Note_On_47_Vel_52
Time_Shift_331
Note_On_59_Vel_62
Time_Shift_314
Note_On_67_Vel_64
Time_Shift_12
Note_On_64_Vel_55
Time_Shift_4
Note_On_58_Vel_53
Time_Shift_28
Note_On_59_Vel_0
Note_On_63_Vel_0
Time_Shift_1
Note_On_66_Vel_0
Time_Shift_8
Sustain_Off
Time_Shift_112
Sustain_On
Time_Shift_285
Note_On_76_Vel_65
Time_Shift_22
Note_On_47_Vel_0
Time_Shift_5
Note_On_47_Vel_34
Time_Shift_402
Note_On_76_Vel_0
Time_Shift_10
Note_On_76_Vel_59
Time_Shift_2
Note_On_35_Vel_30
Time_Shift_362
Note_On_75_Vel_58
Time_Shift_17
Note_On_35_Vel_0
Note_On_47_Vel_0
Time_Shift_4
Note_On_66_Vel_31
Time_Shift_1
Note_On_35_Vel_31
Sustain_Off
Time_Shift_6
Note_On_47_Vel_33
Time_Shift_1
Note_On_64_Vel_0
Note_On_58_Vel_0
Time_Shift_1
Note_On_67_Vel_0
Note_On_76_Vel_0
Time_Shift_226
Sustain_On
Time_Shift_61
Note_On_35_Vel_0
Time_Shift_40
Note_On_35_Vel_31
Time_Shift_283
Note_On_47_Vel_0
Time_Shift_4
Note_On_47_Vel_32
Time_Shift_287
Note_On_51_Vel_35
Time_Shift_345
Note_On_54_Vel_33
Time_Shift_433
Note_On_59_Vel_40
Time_Shift_582
Note_On_75_Vel_0
Time_Shift_10
Note_On_75_Vel_58
Time_Shift_13
Note_On_66_Vel_0
Time_Shift_9
Note_On_69_Vel_38
Time_Shift_2
Note_On_66_Vel_31
Time_Shift_17
Note_On_60_Vel_38
Time_Shift_15
Note_On_59_Vel_0
Note_On_54_Vel_0
Time_Shift_2
Sustain_Off
Note_On_47_Vel_0
Time_Shift_2
Note_On_51_Vel_0
Time_Shift_68
Note_On_35_Vel_0
Time_Shift_46
Sustain_On
Time_Shift_309
Note_On_48_Vel_37
Time_Shift_305
Note_On_47_Vel_40
Time_Shift_215
Note_On_48_Vel_0
Time_Shift_11
Note_On_48_Vel_45
Time_Shift_262
Note_On_50_Vel_42
Time_Shift_242
Note_On_48_Vel_0
Time_Shift_7
Note_On_48_Vel_38
Time_Shift_254
Note_On_47_Vel_0
Time_Shift_11
Note_On_47_Vel_43
Time_Shift_30
Note_On_50_Vel_0
Time_Shift_2
Sustain_Off
Note_On_48_Vel_0
Time_Shift_26
Note_On_60_Vel_0
Time_Shift_139
Sustain_On
Time_Shift_103
Note_On_35_Vel_41
Time_Shift_273
Note_On_47_Vel_0
Time_Shift_11
Note_On_47_Vel_47
Time_Shift_242
Note_On_75_Vel_0
Time_Shift_6
Note_On_54_Vel_45
Time_Shift_4
Note_On_75_Vel_73
Time_Shift_259
Note_On_60_Vel_54
Time_Shift_244
Note_On_59_Vel_61
Time_Shift_304
Note_On_76_Vel_71
Time_Shift_16
Note_On_64_Vel_46
Time_Shift_4
Note_On_47_Vel_0
Time_Shift_4
Note_On_67_Vel_40
Time_Shift_2
Note_On_47_Vel_39
Time_Shift_9
Note_On_54_Vel_0
Time_Shift_2
Note_On_69_Vel_0
Note_On_60_Vel_0
Note_On_59_Vel_0
Time_Shift_1
Note_On_75_Vel_0
Note_On_66_Vel_0
Note_On_35_Vel_0
Time_Shift_1
Sustain_Off
Time_Shift_189
Sustain_On
Time_Shift_98
Note_On_35_Vel_40
Time_Shift_217
Note_On_47_Vel_0
Time_Shift_11
Note_On_47_Vel_40
Time_Shift_223
Note_On_52_Vel_43
Time_Shift_249
Note_On_60_Vel_54
Time_Shift_248
Note_On_59_Vel_65
Time_Shift_252
Note_On_76_Vel_0
Time_Shift_5
Note_On_76_Vel_71
Note_On_58_Vel_49
Time_Shift_42
Note_On_60_Vel_0
Time_Shift_1
Note_On_64_Vel_0
Note_On_59_Vel_0
Time_Shift_1
Note_On_47_Vel_0
Note_On_52_Vel_0
Time_Shift_7
Sustain_Off
Time_Shift_5
Note_On_35_Vel_0
Time_Shift_123
Sustain_On
Time_Shift_76
Note_On_55_Vel_54
Time_Shift_93
Note_On_58_Vel_0
Time_Shift_135
Note_On_52_Vel_55
Time_Shift_241
Note_On_76_Vel_0
Time_Shift_5
Note_On_76_Vel_67
Time_Shift_7
Note_On_46_Vel_40
Time_Shift_270
Note_On_43_Vel_52
Time_Shift_319
Note_On_34_Vel_45
Time_Shift_340
Note_On_79_Vel_69
Time_Shift_9
Note_On_35_Vel_42
Time_Shift_7
Note_On_71_Vel_44
Time_Shift_22
Note_On_34_Vel_0
Time_Shift_1
Note_On_76_Vel_0
Note_On_46_Vel_0
Note_On_43_Vel_0
Time_Shift_1
Note_On_52_Vel_0
Time_Shift_1
Note_On_55_Vel_0
Time_Shift_2
Sustain_Off
Time_Shift_38
Note_On_67_Vel_0
Time_Shift_77
Note_On_35_Vel_0
Time_Shift_46
Sustain_On
Time_Shift_104
Note_On_47_Vel_42
Time_Shift_276
Note_On_52_Vel_42
Time_Shift_297
Note_On_55_Vel_35
Time_Shift_357
Note_On_60_Vel_46
Time_Shift_391
Note_On_78_Vel_62
Time_Shift_1
Note_On_59_Vel_45
Time_Shift_229
Note_On_76_Vel_67
Time_Shift_211
Note_On_76_Vel_0
Time_Shift_8
Note_On_76_Vel_64
Time_Shift_14
Note_On_66_Vel_43
Time_Shift_1
Note_On_47_Vel_0
Note_On_71_Vel_0
Time_Shift_5
Note_On_47_Vel_36
Time_Shift_1
Note_On_69_Vel_40
Time_Shift_5
Note_On_71_Vel_48
Time_Shift_10
Note_On_78_Vel_0
Note_On_60_Vel_0
Time_Shift_1
Note_On_52_Vel_0
Time_Shift_1
Note_On_55_Vel_0
Time_Shift_1
Sustain_Off
Time_Shift_1
Note_On_59_Vel_0
Note_On_79_Vel_0
Time_Shift_152
Sustain_On
Time_Shift_195
Note_On_46_Vel_39
Time_Shift_319
Note_On_47_Vel_0
Time_Shift_8
Note_On_47_Vel_36
Time_Shift_345
Note_On_75_Vel_62
Time_Shift_28
Note_On_35_Vel_27
Time_Shift_1
Note_On_47_Vel_0
Time_Shift_2
Sustain_Off
Time_Shift_3
Note_On_46_Vel_0
Note_On_66_Vel_0
Time_Shift_1
Note_On_69_Vel_0
Time_Shift_34
Note_On_76_Vel_0
Time_Shift_100
Sustain_On
Time_Shift_169
Note_On_71_Vel_0
Time_Shift_35
Note_On_34_Vel_30
Time_Shift_388
Note_On_35_Vel_0
Time_Shift_5
Note_On_35_Vel_31
Time_Shift_448
Note_On_34_Vel_0
Time_Shift_20
Note_On_76_Vel_50
Time_Shift_23
Note_On_40_Vel_32
Time_Shift_2
Note_On_68_Vel_36
Time_Shift_26
Note_On_35_Vel_0
Time_Shift_1
Note_On_75_Vel_0
Time_Shift_7
Sustain_Off
Time_Shift_182
Sustain_On
Time_Shift_234
Note_On_47_Vel_30
Time_Shift_354
Note_On_59_Vel_39
Time_Shift_308
Note_On_56_Vel_34
Time_Shift_289
Note_On_54_Vel_31
Time_Shift_278
Note_On_52_Vel_31
Time_Shift_296
Note_On_40_Vel_0
Time_Shift_9
Note_On_40_Vel_30
Time_Shift_41
Sustain_Off
Time_Shift_6
Note_On_47_Vel_0
Note_On_56_Vel_0
Note_On_59_Vel_0
Time_Shift_1
Note_On_52_Vel_0
Note_On_54_Vel_0
Note_On_68_Vel_0
Time_Shift_165
Sustain_On
Time_Shift_110
Note_On_47_Vel_29
Time_Shift_279
Note_On_59_Vel_41
Time_Shift_299
Note_On_56_Vel_33
Time_Shift_333
Note_On_54_Vel_31
Time_Shift_345
Note_On_52_Vel_32
Time_Shift_309
Sustain_Off
Time_Shift_130
Note_On_54_Vel_0
Time_Shift_23
Note_On_56_Vel_0
Time_Shift_31
Note_On_52_Vel_0
Time_Shift_4
Note_On_52_Vel_33
Time_Shift_4
Note_On_40_Vel_0
Time_Shift_9
Note_On_40_Vel_28
Time_Shift_3
Note_On_80_Vel_54
Time_Shift_18
Note_On_76_Vel_0
Time_Shift_5
Note_On_76_Vel_39
Time_Shift_34
Note_On_47_Vel_0
Time_Shift_15
Note_On_59_Vel_0
Time_Shift_108
Sustain_On
Time_Shift_297
Note_On_47_Vel_28
Time_Shift_335
Note_On_59_Vel_37
Time_Shift_288
Note_On_56_Vel_29
Time_Shift_338
Note_On_54_Vel_22
Time_Shift_354
Note_On_52_Vel_0
Time_Shift_6
Note_On_52_Vel_26
Time_Shift_234
Note_On_78_Vel_47
Time_Shift_3
Note_On_74_Vel_39
Time_Shift_164
Note_On_40_Vel_0
Time_Shift_10
Note_On_40_Vel_27
Time_Shift_37
Note_On_78_Vel_0
Time_Shift_9
Note_On_78_Vel_52
Time_Shift_14
Note_On_74_Vel_0
Time_Shift_6
Note_On_74_Vel_44
Time_Shift_21
Note_On_52_Vel_0
Sustain_Off
Note_On_54_Vel_0
Note_On_47_Vel_0
Note_On_56_Vel_0
Note_On_59_Vel_0
Note_On_80_Vel_0
Time_Shift_1
Note_On_76_Vel_0
Time_Shift_79
Sustain_On
Time_Shift_242
Note_On_47_Vel_27
Time_Shift_254
Note_On_59_Vel_40
Time_Shift_282
Note_On_56_Vel_33
Time_Shift_340
Note_On_54_Vel_24
Time_Shift_330
Note_On_52_Vel_24
Time_Shift_334
Note_On_76_Vel_49
Time_Shift_2
Note_On_73_Vel_42
Time_Shift_228
Note_On_76_Vel_0
Time_Shift_8
Note_On_40_Vel_0
Note_On_73_Vel_0
Time_Shift_4
Note_On_76_Vel_50
Time_Shift_1
Note_On_73_Vel_37
Time_Shift_6
Note_On_40_Vel_23
Time_Shift_41
Sustain_Off
Time_Shift_5
Note_On_47_Vel_0
Note_On_56_Vel_0
Note_On_54_Vel_0
Note_On_52_Vel_0
Time_Shift_1
Note_On_59_Vel_0
Time_Shift_3
Note_On_74_Vel_0
Time_Shift_8
Note_On_78_Vel_0
Time_Shift_138
Sustain_On
Time_Shift_201
Note_On_52_Vel_35
Time_Shift_284
Note_On_61_Vel_30
Time_Shift_230
Note_On_40_Vel_0
Time_Shift_56
Note_On_57_Vel_35
Time_Shift_281
Note_On_54_Vel_24
Time_Shift_277
Note_On_52_Vel_0
Time_Shift_4
Note_On_52_Vel_29
Time_Shift_312
Note_On_40_Vel_30
Time_Shift_33
Sustain_Off
Time_Shift_1
Note_On_54_Vel_0
Time_Shift_4
Note_On_57_Vel_0
Time_Shift_1
Note_On_52_Vel_0
Note_On_61_Vel_0
Time_Shift_75
Sustain_On
Time_Shift_196
Note_On_52_Vel_36
Time_Shift_276
Note_On_61_Vel_39
Time_Shift_315
Note_On_57_Vel_37
Time_Shift_7
Note_On_77_Vel_57
Time_Shift_1
Note_On_74_Vel_47
Time_Shift_265
Note_On_40_Vel_0
Time_Shift_13
Note_On_54_Vel_35
Time_Shift_248
Note_On_52_Vel_0
Time_Shift_7
Note_On_52_Vel_36
Time_Shift_260
Note_On_40_Vel_33
Time_Shift_1
Note_On_78_Vel_63
Time_Shift_25
Note_On_75_Vel_52
Time_Shift_19
Note_On_54_Vel_0
Time_Shift_1
Note_On_57_Vel_0
Time_Shift_1
Note_On_52_Vel_0
Note_On_74_Vel_0
Note_On_61_Vel_0
Time_Shift_2
Note_On_77_Vel_0
Time_Shift_2
Sustain_Off
Time_Shift_5
Note_On_73_Vel_0
Note_On_76_Vel_0
Time_Shift_122
Sustain_On
Time_Shift_203
Note_On_52_Vel_36
Time_Shift_256
Note_On_60_Vel_36
Time_Shift_87
Note_On_40_Vel_0
Time_Shift_183
Note_On_57_Vel_40
Time_Shift_275
Note_On_54_Vel_26
Time_Shift_152
Note_On_80_Vel_66
Time_Shift_8
Note_On_76_Vel_46
Time_Shift_134
Note_On_52_Vel_0
Time_Shift_9
Note_On_52_Vel_33
Time_Shift_260
Note_On_81_Vel_63
Time_Shift_8
Note_On_78_Vel_0
Time_Shift_4
Note_On_40_Vel_31
Time_Shift_6
Note_On_78_Vel_52
Time_Shift_9
Note_On_69_Vel_26
Time_Shift_10
Note_On_60_Vel_0
Time_Shift_1
Note_On_57_Vel_0
Note_On_75_Vel_0
Note_On_54_Vel_0
Note_On_52_Vel_0
Sustain_Off
Time_Shift_2
Note_On_76_Vel_0
Note_On_80_Vel_0
Time_Shift_129
Sustain_On
Time_Shift_23
Note_On_69_Vel_0
Time_Shift_81
Note_On_52_Vel_37
Time_Shift_111
Note_On_83_Vel_70
Time_Shift_7
Note_On_71_Vel_45
Time_Shift_1
Note_On_78_Vel_0
Time_Shift_3
Note_On_80_Vel_61
Time_Shift_4
Note_On_71_Vel_0
Time_Shift_157
Note_On_60_Vel_36
Time_Shift_233
Note_On_84_Vel_62
Time_Shift_18
Note_On_81_Vel_0
Time_Shift_2
Note_On_52_Vel_0
Time_Shift_1
Note_On_60_Vel_0
Note_On_80_Vel_0
Note_On_83_Vel_0
Time_Shift_1
Note_On_81_Vel_48
Time_Shift_3
Note_On_57_Vel_37
Time_Shift_1
Sustain_Off
Time_Shift_4
Note_On_75_Vel_41
Time_Shift_3
Note_On_40_Vel_0
Time_Shift_77
Sustain_On
Time_Shift_245
Note_On_54_Vel_37
Time_Shift_185
Note_On_84_Vel_0
Time_Shift_7
Note_On_81_Vel_0
Time_Shift_4
Note_On_84_Vel_65
Time_Shift_4
Note_On_81_Vel_58
Time_Shift_16
Note_On_69_Vel_27
Time_Shift_7
Note_On_69_Vel_0
Time_Shift_138
Note_On_52_Vel_35
Time_Shift_323
Note_On_84_Vel_0
Time_Shift_5
Note_On_84_Vel_50
Time_Shift_10
Note_On_81_Vel_0
Time_Shift_10
Note_On_81_Vel_52
Time_Shift_3
Note_On_76_Vel_40
Time_Shift_6
Note_On_69_Vel_28
Time_Shift_26
Sustain_Off
Time_Shift_1
Note_On_75_Vel_0
Time_Shift_2
Note_On_54_Vel_0
Note_On_57_Vel_0
Note_On_52_Vel_0
Time_Shift_91
Sustain_On
Time_Shift_256
Note_On_52_Vel_32
Time_Shift_354
Note_On_59_Vel_37
Time_Shift_284
Note_On_83_Vel_46
Time_Shift_8
Note_On_80_Vel_42
Time_Shift_23
Note_On_56_Vel_29
Time_Shift_12
Note_On_69_Vel_0
Time_Shift_11
Note_On_52_Vel_0
Time_Shift_2
Note_On_76_Vel_0
Time_Shift_7
Sustain_Off
Time_Shift_10
Note_On_81_Vel_0
Time_Shift_39
Note_On_84_Vel_0
Time_Shift_61
Sustain_On
Time_Shift_85
Note_On_59_Vel_0
Time_Shift_53
Note_On_54_Vel_26
Time_Shift_290
Note_On_52_Vel_28
Time_Shift_292
Note_On_40_Vel_34
Time_Shift_42
Note_On_56_Vel_0
Time_Shift_3
Note_On_54_Vel_0
Time_Shift_3
Sustain_Off
Time_Shift_38
Sustain_On
Time_Shift_235
Note_On_47_Vel_28
Time_Shift_277
Note_On_59_Vel_41
Time_Shift_291
Note_On_56_Vel_33
Time_Shift_299
Note_On_54_Vel_31
Time_Shift_350
Note_On_52_Vel_0
Time_Shift_7
Note_On_52_Vel_30
Time_Shift_444
Note_On_56_Vel_0
Time_Shift_1
Note_On_47_Vel_0
Note_On_83_Vel_0
Time_Shift_1
Note_On_54_Vel_0
Note_On_80_Vel_0
Time_Shift_1
Note_On_59_Vel_0
Time_Shift_6
Sustain_Off
Time_Shift_1
Note_On_80_Vel_52
Note_On_40_Vel_0
Time_Shift_5
Note_On_40_Vel_22
Time_Shift_9
Note_On_76_Vel_39
Time_Shift_170
Sustain_On
Time_Shift_206
Note_On_47_Vel_23
Time_Shift_303
Note_On_59_Vel_41
Time_Shift_339
Note_On_68_Vel_41
Time_Shift_9
Note_On_56_Vel_33
Time_Shift_430
Note_On_54_Vel_24
Time_Shift_19
Note_On_80_Vel_0
Time_Shift_11
Note_On_80_Vel_45
Time_Shift_12
Note_On_76_Vel_0
Time_Shift_6
Note_On_76_Vel_34
Time_Shift_401
Note_On_52_Vel_0
Time_Shift_10
Note_On_52_Vel_26
Time_Shift_51
Note_On_80_Vel_0
Time_Shift_7
Note_On_80_Vel_49
Time_Shift_1
Note_On_76_Vel_0
Time_Shift_6
Note_On_76_Vel_43
Time_Shift_316
Note_On_80_Vel_0
Time_Shift_12
Note_On_80_Vel_51
Time_Shift_7
Note_On_74_Vel_43
Time_Shift_5
Note_On_40_Vel_0
Time_Shift_11
Note_On_40_Vel_27
Time_Shift_6
Sustain_Off
Time_Shift_11
Note_On_76_Vel_0
Note_On_47_Vel_0
Note_On_54_Vel_0
Time_Shift_3
Note_On_56_Vel_0
Note_On_59_Vel_0
Time_Shift_2
Note_On_68_Vel_0
Time_Shift_120
Sustain_On
Time_Shift_305
Note_On_47_Vel_20
Time_Shift_8
Note_On_78_Vel_49
Time_Shift_318
Note_On_59_Vel_31
Time_Shift_270
Note_On_68_Vel_39
Time_Shift_24
Note_On_56_Vel_31
Time_Shift_365
Note_On_78_Vel_0
Time_Shift_5
Note_On_78_Vel_48
Time_Shift_2
Note_On_54_Vel_26
Time_Shift_32
Note_On_74_Vel_0
Time_Shift_10
Note_On_74_Vel_30
Time_Shift_366
Note_On_52_Vel_0
Time_Shift_7
Note_On_52_Vel_29
Time_Shift_47
Note_On_78_Vel_0
Time_Shift_10
Note_On_78_Vel_50
Time_Shift_13
Note_On_74_Vel_0
Time_Shift_10
Note_On_74_Vel_38
Time_Shift_359
Note_On_78_Vel_0
Time_Shift_4
Note_On_78_Vel_46
Time_Shift_11
Note_On_40_Vel_0
Time_Shift_9
Note_On_40_Vel_34
Time_Shift_6
Note_On_69_Vel_27
Time_Shift_4
Note_On_73_Vel_37
Time_Shift_22
Note_On_47_Vel_0
Time_Shift_2
Note_On_52_Vel_0
Time_Shift_2
Note_On_59_Vel_0
Sustain_Off
Time_Shift_3
Note_On_56_Vel_0
Note_On_74_Vel_0
Time_Shift_1
Note_On_68_Vel_0
Time_Shift_12
Note_On_54_Vel_0
Note_On_80_Vel_0
Time_Shift_85
Sustain_On
Time_Shift_390
Note_On_76_Vel_43
Time_Shift_39
Note_On_52_Vel_28
Time_Shift_320
Note_On_61_Vel_33
Time_Shift_283
Note_On_57_Vel_39
Time_Shift_28
Note_On_40_Vel_0
Time_Shift_242
Note_On_54_Vel_34
Time_Shift_303
Note_On_52_Vel_0
Time_Shift_10
Note_On_52_Vel_28
Time_Shift_295
Note_On_40_Vel_26
Time_Shift_45
Sustain_Off
Note_On_54_Vel_0
Note_On_52_Vel_0
Note_On_61_Vel_0
Note_On_73_Vel_0
Time_Shift_1
Note_On_57_Vel_0
Time_Shift_10
Note_On_78_Vel_0
Time_Shift_130
Sustain_On
Time_Shift_146
Note_On_52_Vel_36
Time_Shift_69
Note_On_40_Vel_0
Time_Shift_229
Note_On_61_Vel_37
Time_Shift_308
Note_On_57_Vel_39
Time_Shift_287
Note_On_54_Vel_29
Time_Shift_352
Note_On_52_Vel_0
Time_Shift_9
Note_On_52_Vel_29
Time_Shift_421
Note_On_40_Vel_26
Time_Shift_4
Note_On_72_Vel_53
Time_Shift_3
Note_On_69_Vel_0
Time_Shift_3
Note_On_75_Vel_52
Time_Shift_9
Note_On_69_Vel_35
Time_Shift_16
Note_On_54_Vel_0
Time_Shift_1
Sustain_Off
Time_Shift_2
Note_On_52_Vel_0
Time_Shift_1
Note_On_57_Vel_0
Time_Shift_1
Note_On_61_Vel_0
Time_Shift_13
Note_On_76_Vel_0
Time_Shift_93
Sustain_On
Time_Shift_99
Note_On_40_Vel_0
Time_Shift_145
Note_On_52_Vel_30
Time_Shift_255
Note_On_60_Vel_33
Time_Shift_169
Note_On_75_Vel_0
Time_Shift_4
Note_On_75_Vel_28
Time_Shift_107
Note_On_57_Vel_40
Time_Shift_317
Note_On_54_Vel_27
Time_Shift_172
Note_On_71_Vel_53
Time_Shift_31
Note_On_68_Vel_41
Time_Shift_98
Note_On_52_Vel_0
Time_Shift_6
Note_On_52_Vel_32
Time_Shift_248
Note_On_72_Vel_0
Time_Shift_7
Note_On_69_Vel_0
Time_Shift_4
Note_On_72_Vel_60
Time_Shift_1
Note_On_40_Vel_29
Time_Shift_6
Note_On_69_Vel_42
Time_Shift_31
Sustain_Off
Note_On_54_Vel_0
Time_Shift_2
Note_On_57_Vel_0
Time_Shift_1
Note_On_75_Vel_0
Note_On_60_Vel_0
Time_Shift_4
Note_On_71_Vel_0
Note_On_68_Vel_0
Note_On_52_Vel_0
Time_Shift_74
Sustain_On
Time_Shift_193
Note_On_52_Vel_33
Time_Shift_108
Note_On_71_Vel_62
Time_Shift_15
Note_On_68_Vel_47
Time_Shift_143
Note_On_60_Vel_34
Time_Shift_225
Note_On_69_Vel_0
Note_On_72_Vel_0
Time_Shift_4
Note_On_72_Vel_63
Time_Shift_2
Note_On_69_Vel_47
Time_Shift_43
Note_On_57_Vel_36
Time_Shift_5
Note_On_68_Vel_0
Time_Shift_1
Note_On_60_Vel_0
Time_Shift_1
Sustain_Off
Note_On_71_Vel_0
Time_Shift_1
Note_On_52_Vel_0
Time_Shift_104
Sustain_On
Time_Shift_191
Note_On_54_Vel_29
Time_Shift_147
Note_On_72_Vel_0
Time_Shift_8
Note_On_69_Vel_0
Time_Shift_2
Note_On_72_Vel_57
Time_Shift_5
Note_On_69_Vel_41
Time_Shift_151
Note_On_52_Vel_31
Time_Shift_309
Note_On_71_Vel_50
Time_Shift_12
Note_On_76_Vel_41
Time_Shift_14
Sustain_Off
Time_Shift_1
Note_On_68_Vel_34
Note_On_57_Vel_0
Time_Shift_1
Note_On_54_Vel_0
Note_On_52_Vel_0
Note_On_69_Vel_0
Time_Shift_4
Note_On_40_Vel_0
Time_Shift_5
Note_On_40_Vel_27
Time_Shift_10
Note_On_72_Vel_0
Time_Shift_231
Sustain_On
Time_Shift_119
Note_On_47_Vel_26
Time_Shift_262
Note_On_59_Vel_36
Time_Shift_290
Note_On_56_Vel_31
Time_Shift_282
Note_On_54_Vel_28
Time_Shift_308
Note_On_52_Vel_30
Time_Shift_313
Note_On_40_Vel_0
Time_Shift_5
Note_On_40_Vel_29
Time_Shift_38
Note_On_59_Vel_0
Note_On_56_Vel_0
Time_Shift_1
Note_On_47_Vel_0
Sustain_Off
Note_On_54_Vel_0
Time_Shift_4
Note_On_76_Vel_0
Time_Shift_106
Sustain_On
Time_Shift_181
Note_On_47_Vel_25
Time_Shift_274
Note_On_59_Vel_40
Time_Shift_301
Note_On_56_Vel_31
Time_Shift_328
Note_On_54_Vel_20
Time_Shift_352
Note_On_52_Vel_0
Time_Shift_7
Note_On_52_Vel_24
Time_Shift_485
Note_On_63_Vel_36
Time_Shift_1
Note_On_69_Vel_36
Time_Shift_10
Note_On_66_Vel_33
Time_Shift_4
Note_On_40_Vel_0
Time_Shift_4
Note_On_40_Vel_24
Time_Shift_9
Note_On_59_Vel_0
Time_Shift_6
Sustain_Off
Time_Shift_119
Note_On_68_Vel_0
Time_Shift_31
Note_On_54_Vel_0
Time_Shift_7
Note_On_52_Vel_0
Time_Shift_31
Sustain_On
Time_Shift_69
Note_On_56_Vel_0
Time_Shift_152
Note_On_52_Vel_30
Time_Shift_56
Note_On_47_Vel_0
Note_On_71_Vel_0
Time_Shift_286
Note_On_60_Vel_31
Time_Shift_349
Note_On_57_Vel_23
Time_Shift_310
Note_On_54_Vel_25
Time_Shift_322
Note_On_52_Vel_0
Time_Shift_11
Note_On_52_Vel_26
Time_Shift_42
Note_On_40_Vel_0
Time_Shift_300
Note_On_52_Vel_0
Time_Shift_4
Note_On_40_Vel_24
Time_Shift_1
Note_On_52_Vel_23
Time_Shift_31
Sustain_Off
Time_Shift_3
Note_On_60_Vel_0
Time_Shift_2
Note_On_57_Vel_0
Note_On_54_Vel_0
Time_Shift_90
Sustain_On
Time_Shift_46
Note_On_52_Vel_0
Time_Shift_172
Note_On_52_Vel_32
Time_Shift_362
Note_On_60_Vel_36
Time_Shift_341
Note_On_40_Vel_0
Time_Shift_8
Note_On_69_Vel_0
Time_Shift_5
Note_On_69_Vel_41
Time_Shift_18
Note_On_63_Vel_0
Note_On_66_Vel_0
Time_Shift_4
Note_On_66_Vel_31
Time_Shift_2
Note_On_63_Vel_35
Time_Shift_9
Note_On_57_Vel_35
Time_Shift_381
Note_On_54_Vel_18
Time_Shift_449
Note_On_52_Vel_0
Time_Shift_4
Note_On_52_Vel_29
Time_Shift_491
Note_On_68_Vel_46
Time_Shift_12
Note_On_52_Vel_0
Time_Shift_6
Note_On_64_Vel_38
Time_Shift_4
Note_On_52_Vel_33
Time_Shift_2
Note_On_40_Vel_25
Time_Shift_2
Sustain_Off
Time_Shift_11
Note_On_60_Vel_0
Time_Shift_1
Note_On_63_Vel_0
Time_Shift_1
Note_On_57_Vel_0
Note_On_69_Vel_0
Note_On_66_Vel_0
Time_Shift_1
Note_On_54_Vel_0
Time_Shift_187
Sustain_On
Time_Shift_326
Note_On_47_Vel_28
Time_Shift_446
Note_On_59_Vel_31
Time_Shift_389
Note_On_56_Vel_34
Time_Shift_410
Note_On_54_Vel_16
Time_Shift_418
Note_On_52_Vel_0
Time_Shift_5
Note_On_52_Vel_23
Time_Shift_440
Note_On_54_Vel_0
Time_Shift_16
Note_On_40_Vel_0
Time_Shift_11
Note_On_40_Vel_31
Time_Shift_32
Sustain_Off
Time_Shift_16
Note_On_56_Vel_0
Time_Shift_10
Note_On_47_Vel_0
Time_Shift_107
Note_On_59_Vel_0
Time_Shift_23
Sustain_On
Time_Shift_292
Note_On_47_Vel_26
Time_Shift_469
Note_On_64_Vel_0
Note_On_68_Vel_0
Time_Shift_44
Note_On_59_Vel_31
Time_Shift_558
Note_On_56_Vel_27
Time_Shift_668
Note_On_54_Vel_14
Time_Shift_880
Note_On_52_Vel_0
Time_Shift_4
Note_On_52_Vel_33
Time_Shift_1394
Note_On_40_Vel_0
Time_Shift_7
Note_On_52_Vel_0
Time_Shift_4
Note_On_40_Vel_25
Time_Shift_1
Note_On_68_Vel_33
Time_Shift_3
Note_On_54_Vel_0
Note_On_56_Vel_0
Note_On_59_Vel_0
Time_Shift_2
Note_On_52_Vel_30
Time_Shift_2
Note_On_64_Vel_27
Note_On_59_Vel_23
Time_Shift_7
Note_On_56_Vel_26
Time_Shift_266
Note_On_47_Vel_0
Time_Shift_3840
Note_On_40_Vel_0
Note_On_52_Vel_0
Note_On_56_Vel_0
Note_On_59_Vel_0
Note_On_64_Vel_0
Note_On_68_Vel_0
Time_Shift_780
Sustain_Off
