Ticks_Per_Beat_384
Tempo_500000
Time_Shift_299
Sustain_On
Time_Shift_13
Note_On_65_Vel_68
Time_Shift_7
Note_On_46_Vel_67
Note_On_61_Vel_69
Time_Shift_218
Note_On_46_Vel_0
Time_Shift_10
Note_On_46_Vel_56
Time_Shift_17
Sustain_Off
Time_Shift_42
Note_On_61_Vel_0
Time_Shift_5
Note_On_61_Vel_76
Time_Shift_1
Note_On_49_Vel_76
Time_Shift_2
Note_On_37_Vel_78
Note_On_47_Vel_79
Time_Shift_8
Note_On_37_Vel_0
Note_On_49_Vel_0
Time_Shift_7
Sustain_On
Time_Shift_284
Note_On_61_Vel_0
Time_Shift_23
Note_On_65_Vel_0
Time_Shift_12
Sustain_Off
Time_Shift_4
Note_On_46_Vel_0
Note_On_47_Vel_0
Time_Shift_25
Note_On_37_Vel_78
Time_Shift_1
Note_On_49_Vel_76
Time_Shift_3
Note_On_65_Vel_69
Note_On_61_Vel_77
Time_Shift_2
Note_On_37_Vel_0
Note_On_49_Vel_0
Time_Shift_38
Sustain_On
Time_Shift_23
Note_On_61_Vel_0
Time_Shift_236
Note_On_37_Vel_68
Note_On_32_Vel_67
Time_Shift_10
Note_On_32_Vel_0
Note_On_37_Vel_0
Time_Shift_225
Note_On_37_Vel_63
Time_Shift_4
Note_On_65_Vel_0
Time_Shift_1
Note_On_37_Vel_0
Time_Shift_35
Sustain_Off
Time_Shift_38
Note_On_32_Vel_78
Note_On_61_Vel_84
Note_On_49_Vel_76
Time_Shift_1
Note_On_44_Vel_74
Time_Shift_3
Note_On_32_Vel_0
Time_Shift_8
Note_On_49_Vel_0
Time_Shift_23
Sustain_On
Time_Shift_153
Note_On_61_Vel_0
Time_Shift_80
Sustain_Off
Time_Shift_43
Note_On_44_Vel_0
Time_Shift_131
Sustain_On
Time_Shift_9
Note_On_48_Vel_46
Time_Shift_294
Note_On_72_Vel_49
Time_Shift_4
Note_On_72_Vel_0
Time_Shift_49
Note_On_48_Vel_0
Time_Shift_10
Sustain_Off
Time_Shift_133
Note_On_48_Vel_44
Note_On_36_Vel_45
Time_Shift_8
Note_On_36_Vel_0
Time_Shift_30
Sustain_On
Time_Shift_38
Note_On_73_Vel_56
Time_Shift_47
Note_On_48_Vel_0
Time_Shift_6
Sustain_Off
Time_Shift_29
Note_On_75_Vel_55
Time_Shift_11
Note_On_73_Vel_0
Time_Shift_31
Sustain_On
Time_Shift_38
Note_On_73_Vel_57
Time_Shift_46
Note_On_75_Vel_0
Time_Shift_35
Note_On_71_Vel_50
Time_Shift_1
Note_On_72_Vel_52
Time_Shift_10
Note_On_73_Vel_0
Time_Shift_23
Note_On_71_Vel_0
Time_Shift_16
Note_On_73_Vel_62
Time_Shift_42
Note_On_73_Vel_0
Time_Shift_4
Note_On_72_Vel_0
Time_Shift_23
Sustain_Off
Time_Shift_13
Note_On_61_Vel_50
Time_Shift_3
Note_On_71_Vel_53
Time_Shift_2
Note_On_83_Vel_63
Time_Shift_30
Note_On_83_Vel_0
Time_Shift_13
Note_On_71_Vel_0
Time_Shift_23
Sustain_On
Time_Shift_154
Note_On_61_Vel_0
Time_Shift_105
Note_On_81_Vel_61
Time_Shift_48
Sustain_Off
Time_Shift_8
Note_On_81_Vel_0
Time_Shift_41
Note_On_71_Vel_64
Time_Shift_36
Sustain_On
Time_Shift_217
Note_On_81_Vel_64
Time_Shift_7
Sustain_Off
Time_Shift_22
Note_On_71_Vel_0
Time_Shift_50
Note_On_73_Vel_67
Note_On_77_Vel_71
Time_Shift_6
Note_On_41_Vel_50
Time_Shift_5
Note_On_41_Vel_0
Note_On_73_Vel_0
Time_Shift_61
Note_On_81_Vel_0
Time_Shift_8
Sustain_On
Time_Shift_108
Sustain_Off
Time_Shift_53
Note_On_77_Vel_0
Time_Shift_14
Note_On_83_Vel_65
Time_Shift_40
Note_On_83_Vel_0
Time_Shift_41
Note_On_78_Vel_76
Time_Shift_5
Note_On_78_Vel_0
Time_Shift_20
Note_On_60_Vel_44
Time_Shift_6
Note_On_61_Vel_44
Time_Shift_5
Note_On_61_Vel_0
Time_Shift_84
Sustain_On
Time_Shift_174
Note_On_87_Vel_71
Time_Shift_72
Note_On_87_Vel_0
Time_Shift_23
Sustain_Off
Time_Shift_12
Note_On_85_Vel_65
Time_Shift_11
Note_On_68_Vel_49
Time_Shift_3
Note_On_77_Vel_49
Time_Shift_5
Note_On_68_Vel_0
Time_Shift_4
Note_On_61_Vel_40
Time_Shift_73
Sustain_On
Time_Shift_15
Note_On_60_Vel_0
Time_Shift_108
Note_On_77_Vel_0
Time_Shift_30
Note_On_85_Vel_0
Time_Shift_99
Note_On_89_Vel_63
Time_Shift_55
Note_On_89_Vel_0
Time_Shift_174
Sustain_Off
Time_Shift_10
Note_On_61_Vel_0
Time_Shift_36
Note_On_46_Vel_77
Note_On_44_Vel_73
Time_Shift_2
Note_On_34_Vel_73
Time_Shift_8
Note_On_34_Vel_0
Time_Shift_31
Note_On_44_Vel_0
Time_Shift_8
Sustain_On
Time_Shift_210
Sustain_Off
Time_Shift_7
Note_On_47_Vel_66
Note_On_35_Vel_63
Time_Shift_1
Note_On_37_Vel_65
Time_Shift_5
Note_On_35_Vel_0
Note_On_37_Vel_0
Note_On_47_Vel_0
Time_Shift_71
Note_On_47_Vel_77
Time_Shift_1
Note_On_35_Vel_74
Note_On_37_Vel_78
Time_Shift_4
Note_On_35_Vel_0
Note_On_37_Vel_0
Note_On_47_Vel_0
Time_Shift_16
Sustain_On
Time_Shift_292
Note_On_46_Vel_0
Time_Shift_37
Sustain_Off
Time_Shift_74
Note_On_37_Vel_76
Note_On_65_Vel_68
Time_Shift_1
Note_On_72_Vel_78
Time_Shift_1
Note_On_68_Vel_74
Time_Shift_2
Note_On_37_Vel_0
Time_Shift_5
Note_On_61_Vel_70
Time_Shift_41
Sustain_On
Time_Shift_23
Note_On_68_Vel_0
Time_Shift_197
Sustain_Off
Time_Shift_18
Sustain_On
Time_Shift_61
Note_On_72_Vel_0
Time_Shift_100
Note_On_61_Vel_0
Time_Shift_117
Sustain_Off
Time_Shift_28
Note_On_65_Vel_0
Time_Shift_15
Note_On_44_Vel_73
Time_Shift_1
Note_On_32_Vel_77
Time_Shift_4
Note_On_68_Vel_82
Time_Shift_4
Note_On_32_Vel_0
Note_On_44_Vel_0
Time_Shift_39
Sustain_On
Time_Shift_153
Note_On_68_Vel_0
Time_Shift_88
Sustain_Off
Time_Shift_126
Note_On_73_Vel_87
Time_Shift_5
Note_On_72_Vel_83
Time_Shift_1
Note_On_68_Vel_76
Time_Shift_1
Note_On_65_Vel_74
Time_Shift_2
Note_On_73_Vel_0
Time_Shift_8
Sustain_On
Time_Shift_23
Note_On_68_Vel_0
Time_Shift_15
Note_On_65_Vel_0
Time_Shift_107
Note_On_72_Vel_0
Time_Shift_146
Note_On_72_Vel_48
Time_Shift_80
Sustain_Off
Time_Shift_112
Note_On_72_Vel_0
Time_Shift_49
Note_On_37_Vel_50
Note_On_61_Vel_48
Time_Shift_5
Note_On_61_Vel_0
Sustain_On
Time_Shift_134
Note_On_73_Vel_65
Time_Shift_4
Note_On_73_Vel_0
Time_Shift_96
Note_On_75_Vel_50
Time_Shift_69
Note_On_73_Vel_59
Time_Shift_50
Note_On_73_Vel_0
Time_Shift_19
Note_On_71_Vel_55
Time_Shift_4
Note_On_71_Vel_0
Time_Shift_8
Note_On_37_Vel_0
Note_On_75_Vel_0
Time_Shift_22
Note_On_73_Vel_66
Time_Shift_68
Note_On_65_Vel_51
Time_Shift_2
Note_On_71_Vel_67
Time_Shift_7
Note_On_61_Vel_58
Time_Shift_9
Note_On_73_Vel_0
Time_Shift_30
Sustain_Off
Time_Shift_8
Note_On_61_Vel_0
Time_Shift_8
Note_On_71_Vel_0
Time_Shift_69
Sustain_On
Time_Shift_84
Note_On_65_Vel_0
Time_Shift_66
Sustain_Off
Time_Shift_43
Note_On_65_Vel_61
Time_Shift_2
Note_On_80_Vel_80
Time_Shift_2
Note_On_73_Vel_62
Time_Shift_1
Note_On_61_Vel_61
Time_Shift_2
Note_On_80_Vel_0
Time_Shift_2
Note_On_68_Vel_54
Time_Shift_5
Note_On_68_Vel_0
Time_Shift_123
Note_On_73_Vel_0
Time_Shift_38
Note_On_61_Vel_0
Time_Shift_31
Note_On_65_Vel_0
Time_Shift_60
Note_On_81_Vel_66
Time_Shift_96
Note_On_78_Vel_72
Time_Shift_2
Note_On_73_Vel_44
Time_Shift_11
Note_On_73_Vel_0
Time_Shift_21
Note_On_42_Vel_40
Time_Shift_10
Note_On_42_Vel_0
Note_On_81_Vel_0
Time_Shift_23
Sustain_On
Time_Shift_373
Note_On_58_Vel_40
Note_On_61_Vel_36
Time_Shift_11
Note_On_58_Vel_0
Time_Shift_107
Note_On_61_Vel_0
Time_Shift_357
Note_On_58_Vel_39
Time_Shift_4
Note_On_61_Vel_31
Time_Shift_70
Note_On_58_Vel_0
Time_Shift_15
Note_On_61_Vel_0
Time_Shift_251
Note_On_61_Vel_7
Time_Shift_33
Note_On_61_Vel_0
Time_Shift_103
Sustain_Off
Time_Shift_54
Note_On_73_Vel_70
Time_Shift_81
Sustain_On
Time_Shift_8
Note_On_73_Vel_0
Time_Shift_4
Note_On_47_Vel_21
Note_On_45_Vel_24
Time_Shift_3
Note_On_47_Vel_0
Time_Shift_123
Note_On_78_Vel_0
Time_Shift_352
Note_On_56_Vel_35
Time_Shift_4
Note_On_65_Vel_32
Note_On_59_Vel_36
Time_Shift_1
Note_On_61_Vel_33
Time_Shift_4
Note_On_56_Vel_0
Note_On_59_Vel_0
Time_Shift_62
Note_On_61_Vel_0
Time_Shift_92
Note_On_65_Vel_0
Time_Shift_130
Note_On_75_Vel_67
Time_Shift_28
Note_On_65_Vel_40
Time_Shift_5
Note_On_59_Vel_38
Time_Shift_1
Note_On_61_Vel_37
Time_Shift_5
Note_On_59_Vel_0
Time_Shift_184
Note_On_61_Vel_0
Time_Shift_92
Note_On_65_Vel_0
Time_Shift_16
Note_On_75_Vel_0
Time_Shift_18
Sustain_Off
Time_Shift_40
Note_On_73_Vel_75
Time_Shift_11
Note_On_73_Vel_0
Time_Shift_4
Note_On_61_Vel_38
Time_Shift_4
Note_On_61_Vel_0
Sustain_On
Time_Shift_19
Note_On_31_Vel_38
Time_Shift_11
Note_On_31_Vel_0
Time_Shift_296
Sustain_Off
Time_Shift_24
Note_On_65_Vel_48
Time_Shift_10
Note_On_63_Vel_44
Time_Shift_2
Note_On_55_Vel_41
Time_Shift_2
Note_On_61_Vel_36
Time_Shift_4
Note_On_63_Vel_0
Time_Shift_85
Sustain_On
Time_Shift_15
Note_On_65_Vel_0
Time_Shift_8
Note_On_55_Vel_0
Time_Shift_107
Note_On_61_Vel_0
Time_Shift_165
Sustain_Off
Time_Shift_29
Note_On_71_Vel_59
Time_Shift_5
Note_On_61_Vel_34
Time_Shift_1
Note_On_71_Vel_0
Time_Shift_2
Note_On_65_Vel_37
Time_Shift_2
Note_On_56_Vel_44
Note_On_55_Vel_40
Time_Shift_4
Note_On_55_Vel_0
Note_On_56_Vel_0
Sustain_On
Time_Shift_207
Note_On_65_Vel_0
Time_Shift_92
Note_On_61_Vel_0
Time_Shift_23
Sustain_Off
Time_Shift_27
Note_On_71_Vel_64
Time_Shift_81
Note_On_48_Vel_37
Time_Shift_1
Note_On_49_Vel_38
Time_Shift_6
Note_On_48_Vel_0
Time_Shift_92
Note_On_45_Vel_0
Time_Shift_44
Note_On_73_Vel_66
Time_Shift_49
Note_On_71_Vel_0
Time_Shift_42
Note_On_70_Vel_65
Time_Shift_4
Note_On_71_Vel_64
Note_On_70_Vel_0
Time_Shift_77
Note_On_73_Vel_0
Time_Shift_30
Note_On_49_Vel_0
Time_Shift_46
Note_On_71_Vel_0
Time_Shift_90
Note_On_64_Vel_54
Time_Shift_5
Note_On_65_Vel_51
Time_Shift_5
Note_On_61_Vel_52
Note_On_64_Vel_0
Time_Shift_5
Note_On_55_Vel_47
Time_Shift_7
Note_On_56_Vel_52
Time_Shift_4
Note_On_56_Vel_0
Time_Shift_145
Sustain_On
Time_Shift_8
Note_On_65_Vel_0
Time_Shift_39
Note_On_55_Vel_0
Time_Shift_123
Note_On_79_Vel_77
Time_Shift_69
Note_On_61_Vel_0
Time_Shift_8
Note_On_64_Vel_58
Time_Shift_9
Note_On_68_Vel_61
Time_Shift_1
Note_On_61_Vel_55
Time_Shift_5
Note_On_68_Vel_0
Time_Shift_1
Note_On_77_Vel_80
Time_Shift_2
Note_On_76_Vel_74
Time_Shift_81
Note_On_79_Vel_0
Time_Shift_157
Sustain_Off
Time_Shift_27
Note_On_73_Vel_75
Time_Shift_8
Note_On_73_Vel_0
Time_Shift_154
Note_On_61_Vel_0
Time_Shift_71
Note_On_71_Vel_71
Time_Shift_8
Note_On_61_Vel_54
Time_Shift_7
Note_On_49_Vel_48
Time_Shift_6
Note_On_77_Vel_0
Time_Shift_31
Note_On_49_Vel_0
Time_Shift_122
Note_On_61_Vel_0
Time_Shift_23
Note_On_76_Vel_0
Time_Shift_208
Note_On_71_Vel_0
Time_Shift_73
Note_On_68_Vel_49
Note_On_57_Vel_45
Time_Shift_6
Note_On_61_Vel_33
Time_Shift_44
Sustain_On
Time_Shift_92
Note_On_57_Vel_0
Time_Shift_8
Note_On_64_Vel_0
Time_Shift_92
Note_On_68_Vel_0
Time_Shift_30
Note_On_61_Vel_0
Time_Shift_100
Sustain_Off
Time_Shift_20
Note_On_68_Vel_47
Time_Shift_2
Note_On_57_Vel_43
Time_Shift_1
Note_On_65_Vel_34
Time_Shift_5
Note_On_61_Vel_30
Time_Shift_80
Sustain_On
Time_Shift_100
Note_On_65_Vel_0
Time_Shift_99
Note_On_57_Vel_0
Time_Shift_116
Sustain_Off
Time_Shift_207
Note_On_68_Vel_0
Time_Shift_31
Note_On_61_Vel_0
Time_Shift_24
Note_On_71_Vel_62
Time_Shift_245
Note_On_71_Vel_0
Time_Shift_18
Note_On_65_Vel_44
Time_Shift_1
Note_On_57_Vel_46
Note_On_63_Vel_47
Time_Shift_103
Note_On_65_Vel_0
Time_Shift_8
Note_On_63_Vel_0
Time_Shift_15
Note_On_57_Vel_0
Time_Shift_228
Note_On_80_Vel_79
Time_Shift_11
Note_On_68_Vel_49
Time_Shift_2
Note_On_65_Vel_45
Note_On_62_Vel_47
Time_Shift_1
Note_On_58_Vel_58
Time_Shift_4
Note_On_58_Vel_0
Time_Shift_62
Note_On_80_Vel_0
Time_Shift_123
Note_On_65_Vel_0
Time_Shift_53
Note_On_62_Vel_0
Time_Shift_161
Note_On_47_Vel_44
Time_Shift_73
Note_On_77_Vel_63
Time_Shift_4
Note_On_77_Vel_0
Time_Shift_46
Note_On_68_Vel_0
Time_Shift_166
Note_On_68_Vel_56
Time_Shift_199
Note_On_66_Vel_73
Time_Shift_4
Note_On_67_Vel_73
Time_Shift_8
Note_On_67_Vel_0
Time_Shift_2
Note_On_63_Vel_52
Time_Shift_82
Sustain_On
Time_Shift_8
Note_On_68_Vel_0
Time_Shift_9
Note_On_68_Vel_80
Time_Shift_98
Sustain_Off
Time_Shift_47
Note_On_66_Vel_0
Note_On_68_Vel_0
Time_Shift_49
Note_On_55_Vel_67
Time_Shift_1
Note_On_76_Vel_76
Time_Shift_3
Note_On_55_Vel_0
Time_Shift_2
Note_On_67_Vel_69
Time_Shift_2
Note_On_65_Vel_52
Time_Shift_12
Sustain_On
Time_Shift_159
Note_On_75_Vel_79
Time_Shift_109
Note_On_63_Vel_0
Time_Shift_9
Sustain_Off
Time_Shift_7
Note_On_67_Vel_0
Time_Shift_24
Note_On_60_Vel_56
Note_On_61_Vel_58
Time_Shift_7
Note_On_61_Vel_0
Time_Shift_7
Note_On_65_Vel_0
Time_Shift_77
Note_On_76_Vel_0
Time_Shift_8
Sustain_On
Time_Shift_61
Note_On_75_Vel_0
Time_Shift_154
Sustain_Off
Time_Shift_23
Note_On_60_Vel_0
Time_Shift_4
Note_On_65_Vel_56
Time_Shift_2
Note_On_67_Vel_54
Time_Shift_1
Note_On_60_Vel_57
Time_Shift_5
Note_On_55_Vel_54
Time_Shift_3
Note_On_67_Vel_0
Time_Shift_8
Note_On_55_Vel_0
Time_Shift_38
Sustain_On
Time_Shift_92
Note_On_65_Vel_0
Time_Shift_69
Note_On_60_Vel_0
Time_Shift_76
Note_On_65_Vel_65
Time_Shift_4
Note_On_61_Vel_64
Time_Shift_4
Note_On_60_Vel_65
Time_Shift_1
Note_On_61_Vel_0
Time_Shift_146
Note_On_65_Vel_0
Time_Shift_69
Note_On_60_Vel_0
Time_Shift_106
Sustain_Off
Time_Shift_357
Note_On_65_Vel_46
Time_Shift_1
Note_On_61_Vel_48
Time_Shift_12
Sustain_On
Time_Shift_138
Note_On_65_Vel_0
Time_Shift_192
Note_On_47_Vel_0
Time_Shift_54
Note_On_61_Vel_0
Time_Shift_36
Sustain_Off
Time_Shift_21
Note_On_61_Vel_34
Time_Shift_12
Note_On_61_Vel_0
Time_Shift_7
Note_On_65_Vel_31
Time_Shift_1
Note_On_60_Vel_40
Time_Shift_115
Sustain_On
Time_Shift_62
Note_On_65_Vel_0
Time_Shift_338
Sustain_Off
Time_Shift_7
Note_On_60_Vel_0
Time_Shift_13
Note_On_73_Vel_56
Time_Shift_56
Note_On_73_Vel_0
Time_Shift_21
Note_On_46_Vel_33
Time_Shift_1
Note_On_45_Vel_33
Time_Shift_9
Note_On_45_Vel_0
Time_Shift_61
Sustain_On
Time_Shift_162
Note_On_46_Vel_0
Time_Shift_32
Note_On_75_Vel_51
Time_Shift_148
Note_On_73_Vel_62
Time_Shift_45
Note_On_61_Vel_35
Time_Shift_4
Note_On_60_Vel_37
Time_Shift_9
Note_On_60_Vel_0
Time_Shift_75
Note_On_72_Vel_67
Time_Shift_94
Note_On_73_Vel_0
Time_Shift_5
Note_On_73_Vel_78
Time_Shift_87
Note_On_73_Vel_0
Time_Shift_6
Note_On_73_Vel_80
Time_Shift_125
Sustain_Off
Time_Shift_3
Note_On_78_Vel_80
Time_Shift_20
Note_On_72_Vel_0
Time_Shift_4
Note_On_72_Vel_50
Time_Shift_13
Note_On_57_Vel_47
Time_Shift_1
Note_On_60_Vel_49
Time_Shift_5
Note_On_57_Vel_0
Time_Shift_15
Note_On_75_Vel_0
Time_Shift_46
Sustain_On
Time_Shift_81
Note_On_75_Vel_64
Time_Shift_4
Note_On_60_Vel_0
Note_On_72_Vel_0
Time_Shift_268
Note_On_73_Vel_0
Time_Shift_8
Sustain_Off
Note_On_61_Vel_0
Time_Shift_3
Note_On_73_Vel_64
Time_Shift_23
Note_On_61_Vel_29
Time_Shift_2
Note_On_55_Vel_30
Time_Shift_2
Note_On_59_Vel_31
Time_Shift_24
Note_On_61_Vel_0
Time_Shift_69
Note_On_75_Vel_0
Time_Shift_31
Note_On_59_Vel_0
Note_On_78_Vel_0
Sustain_On
Time_Shift_46
Note_On_55_Vel_0
Time_Shift_241
Note_On_55_Vel_42
Time_Shift_1
Note_On_65_Vel_38
Time_Shift_6
Note_On_61_Vel_33
Time_Shift_113
Note_On_55_Vel_0
Time_Shift_9
Note_On_71_Vel_53
Time_Shift_6
Note_On_61_Vel_0
Note_On_71_Vel_0
Time_Shift_100
Note_On_65_Vel_0
Time_Shift_57
Note_On_71_Vel_60
Time_Shift_12
Note_On_73_Vel_0
Time_Shift_41
Sustain_Off
Time_Shift_6
Note_On_56_Vel_46
Time_Shift_3
Note_On_59_Vel_33
Note_On_61_Vel_32
Time_Shift_1
Note_On_65_Vel_31
Time_Shift_1
Note_On_55_Vel_39
Time_Shift_2
Note_On_56_Vel_0
Note_On_59_Vel_0
Time_Shift_7
Note_On_71_Vel_0
Time_Shift_46
Note_On_65_Vel_0
Time_Shift_16
Sustain_On
Time_Shift_15
Note_On_55_Vel_0
Time_Shift_85
Note_On_61_Vel_0
Time_Shift_135
Note_On_71_Vel_69
Time_Shift_108
Sustain_Off
Time_Shift_1
Note_On_61_Vel_41
Time_Shift_1
Note_On_49_Vel_43
Time_Shift_8
Note_On_49_Vel_0
Time_Shift_46
Sustain_On
Time_Shift_8
Note_On_61_Vel_0
Time_Shift_54
Note_On_71_Vel_0
Time_Shift_61
Note_On_83_Vel_69
Time_Shift_8
Note_On_83_Vel_0
Time_Shift_120
Note_On_79_Vel_80
Time_Shift_49
Sustain_Off
Time_Shift_34
Note_On_64_Vel_57
Time_Shift_3
Note_On_65_Vel_54
Time_Shift_1
Note_On_64_Vel_0
Time_Shift_5
Note_On_67_Vel_44
Time_Shift_3
Note_On_65_Vel_0
Time_Shift_4
Note_On_61_Vel_50
Time_Shift_1
Note_On_55_Vel_48
Time_Shift_1
Note_On_59_Vel_51
Time_Shift_1
Note_On_67_Vel_0
Time_Shift_47
Note_On_79_Vel_0
Time_Shift_9
Note_On_79_Vel_79
Time_Shift_6
Note_On_61_Vel_0
Time_Shift_105
Note_On_76_Vel_76
Time_Shift_10
Note_On_76_Vel_0
Time_Shift_77
Note_On_59_Vel_0
Time_Shift_31
Sustain_On
Note_On_77_Vel_72
Time_Shift_7
Note_On_77_Vel_0
Time_Shift_62
Sustain_Off
Time_Shift_7
Note_On_55_Vel_0
Time_Shift_95
Note_On_64_Vel_50
Time_Shift_2
Note_On_77_Vel_68
Time_Shift_4
Note_On_61_Vel_45
Time_Shift_1
Note_On_76_Vel_60
Time_Shift_5
Note_On_55_Vel_37
Time_Shift_3
Note_On_59_Vel_42
Time_Shift_59
Note_On_79_Vel_0
Time_Shift_77
Note_On_59_Vel_0
Time_Shift_22
Note_On_71_Vel_59
Time_Shift_138
Note_On_75_Vel_56
Time_Shift_17
Note_On_76_Vel_0
Time_Shift_15
Note_On_61_Vel_0
Time_Shift_16
Note_On_71_Vel_0
Time_Shift_46
Note_On_77_Vel_0
Time_Shift_34
Note_On_73_Vel_61
Time_Shift_12
Note_On_55_Vel_0
Time_Shift_84
Note_On_75_Vel_0
Time_Shift_23
Note_On_49_Vel_32
Time_Shift_8
Note_On_49_Vel_0
Time_Shift_54
Note_On_64_Vel_0
Time_Shift_15
Note_On_73_Vel_0
Time_Shift_58
Note_On_71_Vel_57
Time_Shift_134
Sustain_On
Time_Shift_184
Note_On_71_Vel_0
Time_Shift_8
Sustain_Off
Time_Shift_12
Note_On_67_Vel_38
Time_Shift_6
Note_On_57_Vel_41
Time_Shift_1
Note_On_64_Vel_40
Time_Shift_3
Note_On_69_Vel_39
Time_Shift_1
Note_On_61_Vel_31
Time_Shift_8
Note_On_69_Vel_0
Time_Shift_69
Sustain_On
Time_Shift_23
Note_On_61_Vel_0
Note_On_67_Vel_0
Time_Shift_13
Note_On_70_Vel_52
Time_Shift_3
Note_On_73_Vel_35
Time_Shift_3
Note_On_69_Vel_44
Time_Shift_4
Note_On_70_Vel_0
Note_On_73_Vel_0
Time_Shift_38
Note_On_57_Vel_0
Time_Shift_111
Note_On_73_Vel_58
Time_Shift_58
Note_On_73_Vel_0
Time_Shift_8
Note_On_69_Vel_0
Time_Shift_108
Note_On_64_Vel_0
Time_Shift_118
Sustain_Off
Time_Shift_3
Note_On_67_Vel_33
Time_Shift_5
Note_On_57_Vel_39
Time_Shift_2
Note_On_61_Vel_30
Time_Shift_140
Note_On_57_Vel_0
Note_On_61_Vel_0
Time_Shift_54
Sustain_On
Time_Shift_75
Note_On_73_Vel_20
Time_Shift_10
Note_On_73_Vel_0
Time_Shift_260
Note_On_69_Vel_49
Time_Shift_98
Note_On_61_Vel_23
Time_Shift_3
Sustain_Off
Time_Shift_2
Note_On_51_Vel_26
Time_Shift_2
Note_On_57_Vel_21
Time_Shift_149
Note_On_69_Vel_0
Time_Shift_63
Note_On_71_Vel_62
Time_Shift_37
Note_On_51_Vel_0
Time_Shift_31
Note_On_57_Vel_0
Time_Shift_49
Note_On_69_Vel_53
Time_Shift_97
Note_On_69_Vel_0
Time_Shift_7
Sustain_On
Time_Shift_3
Note_On_69_Vel_59
Time_Shift_66
Note_On_71_Vel_0
Time_Shift_8
Note_On_61_Vel_0
Time_Shift_8
Note_On_67_Vel_0
Time_Shift_15
Note_On_69_Vel_0
Sustain_Off
Time_Shift_7
Note_On_57_Vel_46
Time_Shift_2
Note_On_69_Vel_51
Time_Shift_2
Note_On_63_Vel_46
Time_Shift_74
Sustain_On
Time_Shift_43
Note_On_72_Vel_62
Time_Shift_91
Note_On_73_Vel_73
Time_Shift_133
Sustain_Off
Time_Shift_46
Note_On_58_Vel_59
Time_Shift_3
Note_On_62_Vel_53
Time_Shift_1
Note_On_67_Vel_48
Time_Shift_4
Note_On_74_Vel_59
Time_Shift_17
Note_On_72_Vel_0
Note_On_73_Vel_0
Time_Shift_15
Note_On_63_Vel_0
Time_Shift_46
Note_On_69_Vel_0
Time_Shift_27
Note_On_76_Vel_65
Time_Shift_11
Sustain_On
Time_Shift_80
Note_On_79_Vel_76
Time_Shift_2
Note_On_80_Vel_80
Time_Shift_3
Note_On_74_Vel_0
Note_On_79_Vel_0
Time_Shift_8
Note_On_80_Vel_0
Time_Shift_88
Note_On_77_Vel_75
Time_Shift_11
Note_On_77_Vel_0
Time_Shift_23
Note_On_67_Vel_0
Time_Shift_39
Note_On_62_Vel_0
Time_Shift_7
Note_On_57_Vel_0
Time_Shift_47
Note_On_46_Vel_57
Time_Shift_3
Note_On_68_Vel_43
Note_On_72_Vel_52
Time_Shift_4
Note_On_68_Vel_0
Time_Shift_6
Sustain_Off
Time_Shift_79
Note_On_58_Vel_0
Time_Shift_15
Note_On_76_Vel_0
Time_Shift_11
Note_On_77_Vel_75
Time_Shift_51
Sustain_On
Time_Shift_30
Note_On_72_Vel_0
Time_Shift_54
Note_On_77_Vel_0
Time_Shift_176
Note_On_68_Vel_77
Time_Shift_47
Note_On_68_Vel_0
Time_Shift_77
Sustain_Off
Time_Shift_12
Note_On_55_Vel_51
Time_Shift_4
Note_On_60_Vel_43
Note_On_65_Vel_47
Time_Shift_1
Note_On_63_Vel_52
Time_Shift_4
Note_On_68_Vel_51
Time_Shift_2
Note_On_60_Vel_0
Note_On_63_Vel_0
Time_Shift_35
Note_On_67_Vel_74
Time_Shift_11
Note_On_67_Vel_0
Time_Shift_30
Note_On_46_Vel_0
Time_Shift_8
Sustain_On
Time_Shift_46
Sustain_Off
Time_Shift_8
Note_On_55_Vel_0
Note_On_65_Vel_0
Time_Shift_35
Note_On_67_Vel_78
Time_Shift_11
Note_On_67_Vel_0
Time_Shift_61
Note_On_68_Vel_0
Time_Shift_57
Note_On_76_Vel_75
Time_Shift_2
Note_On_55_Vel_65
Time_Shift_1
Note_On_67_Vel_70
Note_On_77_Vel_78
Time_Shift_2
Note_On_76_Vel_0
Note_On_60_Vel_55
Time_Shift_7
Note_On_77_Vel_0
Time_Shift_23
Note_On_55_Vel_0
Time_Shift_47
Note_On_67_Vel_0
Time_Shift_30
Note_On_60_Vel_0
Time_Shift_14
Note_On_75_Vel_81
Time_Shift_2
Sustain_On
Time_Shift_123
Note_On_75_Vel_0
Time_Shift_42
Sustain_Off
Time_Shift_39
Note_On_74_Vel_68
Time_Shift_1
Note_On_75_Vel_74
Time_Shift_24
Note_On_60_Vel_53
Time_Shift_5
Note_On_67_Vel_37
Time_Shift_165
Note_On_60_Vel_0
Time_Shift_15
Note_On_67_Vel_0
Time_Shift_115
Note_On_64_Vel_55
Time_Shift_1
Note_On_65_Vel_52
Time_Shift_3
Note_On_60_Vel_47
Time_Shift_4
Note_On_64_Vel_0
Note_On_74_Vel_0
Time_Shift_4
Note_On_55_Vel_43
Time_Shift_1
Note_On_61_Vel_44
Time_Shift_11
Note_On_61_Vel_0
Time_Shift_69
Note_On_60_Vel_0
Time_Shift_77
Note_On_55_Vel_0
Note_On_75_Vel_0
Sustain_On
Time_Shift_23
Note_On_73_Vel_64
Time_Shift_30
Note_On_65_Vel_0
Time_Shift_131
Note_On_73_Vel_0
Time_Shift_73
Note_On_71_Vel_60
Time_Shift_4
Note_On_71_Vel_0
Sustain_Off
Time_Shift_19
Note_On_65_Vel_38
Time_Shift_8
Note_On_59_Vel_33
Time_Shift_1
Note_On_61_Vel_34
Time_Shift_3
Note_On_67_Vel_35
Time_Shift_7
Note_On_61_Vel_0
Time_Shift_38
Note_On_67_Vel_0
Time_Shift_47
Note_On_65_Vel_0
Time_Shift_30
Note_On_59_Vel_0
Time_Shift_138
Sustain_On
Time_Shift_222
Sustain_Off
Time_Shift_60
Note_On_65_Vel_55
Time_Shift_25
Note_On_57_Vel_46
Time_Shift_2
Note_On_61_Vel_32
Time_Shift_2
Note_On_53_Vel_42
Time_Shift_4
Note_On_61_Vel_0
Time_Shift_8
Sustain_On
Time_Shift_69
Note_On_57_Vel_0
Time_Shift_77
Note_On_65_Vel_0
Time_Shift_61
Note_On_57_Vel_60
Time_Shift_9
Note_On_61_Vel_43
Time_Shift_4
Sustain_Off
Time_Shift_2
Note_On_65_Vel_59
Time_Shift_1
Note_On_61_Vel_0
Time_Shift_7
Sustain_On
Time_Shift_23
Sustain_Off
Time_Shift_39
Note_On_65_Vel_0
Time_Shift_7
Note_On_68_Vel_85
Time_Shift_3
Note_On_65_Vel_72
Time_Shift_36
Sustain_On
Time_Shift_77
Note_On_53_Vel_0
Time_Shift_15
Note_On_65_Vel_0
Time_Shift_108
Note_On_68_Vel_0
Time_Shift_88
Sustain_Off
Time_Shift_44
Note_On_67_Vel_67
Time_Shift_1
Note_On_65_Vel_60
Note_On_61_Vel_67
Time_Shift_5
Note_On_61_Vel_0
Time_Shift_15
Note_On_57_Vel_0
Time_Shift_31
Note_On_65_Vel_0
Sustain_On
Time_Shift_31
Note_On_67_Vel_0
Time_Shift_139
Sustain_Off
Time_Shift_42
Note_On_61_Vel_67
Time_Shift_4
Note_On_65_Vel_63
Time_Shift_1
Note_On_63_Vel_69
Time_Shift_6
Note_On_63_Vel_0
Time_Shift_30
Sustain_On
Time_Shift_31
Note_On_61_Vel_0
Time_Shift_46
Note_On_65_Vel_0
Time_Shift_112
Note_On_70_Vel_72
Time_Shift_1
Note_On_63_Vel_67
Time_Shift_5
Note_On_65_Vel_56
Time_Shift_7
Sustain_Off
Time_Shift_29
Note_On_63_Vel_0
Time_Shift_23
Note_On_70_Vel_0
Time_Shift_19
Note_On_60_Vel_64
Time_Shift_4
Note_On_60_Vel_0
Time_Shift_8
Note_On_65_Vel_0
Time_Shift_46
Sustain_On
Time_Shift_357
Sustain_Off
Time_Shift_30
Note_On_65_Vel_62
Time_Shift_1
Note_On_63_Vel_54
Note_On_47_Vel_61
Time_Shift_2
Note_On_35_Vel_56
Time_Shift_4
Note_On_59_Vel_59
Time_Shift_5
Note_On_35_Vel_0
Note_On_63_Vel_0
Time_Shift_61
Note_On_47_Vel_0
Time_Shift_8
Note_On_59_Vel_0
Time_Shift_39
Sustain_On
Time_Shift_199
Note_On_65_Vel_0
Time_Shift_72
Sustain_Off
Time_Shift_106
Note_On_72_Vel_58
Time_Shift_7
Note_On_72_Vel_0
Time_Shift_24
Note_On_36_Vel_36
Time_Shift_45
Sustain_On
Time_Shift_142
Note_On_75_Vel_53
Time_Shift_93
Note_On_72_Vel_57
Time_Shift_77
Note_On_71_Vel_58
Time_Shift_18
Note_On_75_Vel_0
Time_Shift_40
Note_On_73_Vel_71
Time_Shift_6
Note_On_71_Vel_0
Time_Shift_23
Note_On_36_Vel_0
Time_Shift_15
Sustain_Off
Time_Shift_27
Note_On_71_Vel_64
Time_Shift_4
Note_On_73_Vel_0
Time_Shift_3
Note_On_61_Vel_52
Time_Shift_5
Note_On_61_Vel_0
Time_Shift_4
Note_On_65_Vel_37
Time_Shift_11
Note_On_72_Vel_0
Time_Shift_23
Note_On_71_Vel_0
Time_Shift_8
Sustain_On
Time_Shift_159
Note_On_81_Vel_59
Time_Shift_30
Sustain_Off
Time_Shift_7
Note_On_81_Vel_0
Time_Shift_4
Note_On_65_Vel_0
Time_Shift_25
Note_On_72_Vel_68
Time_Shift_5
Note_On_72_Vel_0
Time_Shift_3
Note_On_61_Vel_61
Time_Shift_1
Note_On_79_Vel_69
Note_On_65_Vel_51
Time_Shift_3
Note_On_71_Vel_63
Time_Shift_1
Note_On_61_Vel_0
Note_On_79_Vel_0
Time_Shift_15
Note_On_65_Vel_0
Time_Shift_62
Note_On_71_Vel_0
Time_Shift_229
Note_On_77_Vel_65
Time_Shift_16
Note_On_41_Vel_42
Time_Shift_31
Note_On_77_Vel_0
Time_Shift_8
Sustain_On
Time_Shift_90
Note_On_77_Vel_45
Time_Shift_71
Note_On_77_Vel_0
Time_Shift_13
Note_On_83_Vel_64
Time_Shift_26
Sustain_Off
Time_Shift_10
Note_On_83_Vel_0
Time_Shift_5
Note_On_41_Vel_0
Time_Shift_33
Note_On_77_Vel_63
Note_On_65_Vel_53
Time_Shift_2
Note_On_61_Vel_55
Time_Shift_3
Note_On_60_Vel_53
Note_On_65_Vel_0
Time_Shift_8
Note_On_60_Vel_0
Time_Shift_31
Sustain_On
Time_Shift_215
Note_On_61_Vel_0
Time_Shift_3
Note_On_87_Vel_72
Time_Shift_67
Sustain_Off
Time_Shift_14
Note_On_77_Vel_0
Time_Shift_4
Note_On_85_Vel_77
Time_Shift_7
Note_On_77_Vel_67
Time_Shift_1
Note_On_65_Vel_50
Time_Shift_4
Note_On_61_Vel_46
Time_Shift_2
Note_On_59_Vel_47
Time_Shift_5
Note_On_59_Vel_0
Time_Shift_31
Note_On_87_Vel_0
Time_Shift_8
Note_On_85_Vel_0
Time_Shift_7
Note_On_61_Vel_0
Time_Shift_46
Sustain_On
Time_Shift_23
Note_On_77_Vel_0
Time_Shift_150
Note_On_61_Vel_31
Time_Shift_1
Note_On_90_Vel_72
Note_On_89_Vel_68
Time_Shift_11
Note_On_61_Vel_0
Time_Shift_115
Note_On_90_Vel_0
Time_Shift_77
Note_On_89_Vel_0
Time_Shift_12
Sustain_Off
Time_Shift_3
Note_On_65_Vel_0
Time_Shift_30
Note_On_65_Vel_75
Time_Shift_2
Note_On_61_Vel_74
Time_Shift_2
Note_On_46_Vel_74
Time_Shift_35
Sustain_On
Time_Shift_69
Note_On_61_Vel_0
Time_Shift_54
Note_On_46_Vel_0
Time_Shift_77
Note_On_65_Vel_0
Time_Shift_10
Note_On_65_Vel_58
Time_Shift_7
Note_On_61_Vel_49
Time_Shift_1
Sustain_Off
Time_Shift_1
Note_On_59_Vel_55
Time_Shift_4
Note_On_59_Vel_0
Time_Shift_31
Note_On_61_Vel_0
Time_Shift_7
Note_On_65_Vel_0
Time_Shift_11
Note_On_47_Vel_77
Time_Shift_2
Note_On_61_Vel_70
Time_Shift_1
Note_On_49_Vel_74
Time_Shift_2
Note_On_47_Vel_0
Time_Shift_7
Note_On_49_Vel_0
Time_Shift_31
Note_On_61_Vel_0
Time_Shift_8
Sustain_On
Time_Shift_242
Sustain_Off
Time_Shift_21
Note_On_37_Vel_77
Time_Shift_4
Note_On_61_Vel_76
Time_Shift_1
Note_On_67_Vel_74
Note_On_65_Vel_71
Time_Shift_1
Note_On_37_Vel_0
Time_Shift_46
Note_On_65_Vel_0
Time_Shift_15
Note_On_61_Vel_0
Time_Shift_15
Sustain_On
Time_Shift_54
Note_On_67_Vel_0
Time_Shift_160
Note_On_70_Vel_81
Time_Shift_3
Note_On_65_Vel_68
Time_Shift_2
Note_On_67_Vel_64
Time_Shift_2
Note_On_61_Vel_60
Time_Shift_2
Sustain_Off
Time_Shift_2
Note_On_63_Vel_65
Time_Shift_6
Note_On_63_Vel_0
Time_Shift_77
Sustain_On
Time_Shift_7
Note_On_65_Vel_0
Time_Shift_39
Note_On_61_Vel_0
Time_Shift_30
Note_On_67_Vel_0
Time_Shift_54
Note_On_70_Vel_0
Time_Shift_4
Note_On_70_Vel_65
Time_Shift_2
Note_On_65_Vel_57
Note_On_61_Vel_49
Time_Shift_8
Sustain_Off
Time_Shift_55
Note_On_65_Vel_0
Time_Shift_6
Note_On_65_Vel_76
Time_Shift_2
Note_On_61_Vel_0
Time_Shift_4
Note_On_71_Vel_81
Time_Shift_1
Note_On_61_Vel_80
Time_Shift_56
Sustain_On
Time_Shift_85
Note_On_65_Vel_0
Time_Shift_15
Note_On_70_Vel_0
Time_Shift_92
Note_On_61_Vel_0
Time_Shift_8
Note_On_71_Vel_0
Time_Shift_82
Sustain_Off
Time_Shift_67
Note_On_71_Vel_67
Note_On_73_Vel_71
Time_Shift_5
Note_On_73_Vel_0
Time_Shift_2
Note_On_67_Vel_61
Time_Shift_1
Note_On_37_Vel_70
Time_Shift_66
Note_On_67_Vel_0
Sustain_On
Time_Shift_107
Note_On_71_Vel_0
Time_Shift_238
Note_On_37_Vel_0
Time_Shift_50
Sustain_Off
Time_Shift_79
Note_On_73_Vel_67
Time_Shift_37
Note_On_65_Vel_27
Time_Shift_7
Note_On_36_Vel_39
Note_On_67_Vel_28
Time_Shift_2
Note_On_61_Vel_34
Time_Shift_2
Note_On_36_Vel_0
Time_Shift_8
Note_On_61_Vel_0
Time_Shift_23
Note_On_73_Vel_0
Sustain_On
Time_Shift_54
Note_On_65_Vel_0
Time_Shift_103
Note_On_75_Vel_58
Time_Shift_65
Note_On_67_Vel_0
Time_Shift_44
Note_On_73_Vel_65
Time_Shift_91
Note_On_72_Vel_63
Time_Shift_2
Note_On_71_Vel_60
Time_Shift_2
Note_On_72_Vel_0
Time_Shift_7
Note_On_71_Vel_0
Time_Shift_62
Note_On_73_Vel_0
Time_Shift_6
Note_On_73_Vel_72
Time_Shift_17
Note_On_75_Vel_0
Time_Shift_96
Sustain_Off
Time_Shift_36
Note_On_81_Vel_72
Time_Shift_33
Note_On_41_Vel_42
Time_Shift_3
Note_On_61_Vel_43
Time_Shift_9
Note_On_41_Vel_0
Sustain_On
Time_Shift_92
Note_On_73_Vel_0
Note_On_81_Vel_0
Time_Shift_7
Note_On_61_Vel_0
Time_Shift_120
Note_On_83_Vel_67
Time_Shift_11
Note_On_83_Vel_0
Time_Shift_14
Sustain_Off
Time_Shift_45
Note_On_65_Vel_62
Time_Shift_3
Note_On_80_Vel_84
Time_Shift_2
Note_On_61_Vel_62
Time_Shift_4
Note_On_71_Vel_68
Time_Shift_1
Note_On_80_Vel_0
Time_Shift_38
Sustain_On
Time_Shift_160
Sustain_Off
Time_Shift_2
Note_On_71_Vel_0
Time_Shift_38
Note_On_61_Vel_0
Time_Shift_8
Note_On_65_Vel_0
Time_Shift_119
Note_On_77_Vel_76
Time_Shift_16
Note_On_41_Vel_47
Time_Shift_1
Note_On_29_Vel_46
Time_Shift_10
Note_On_29_Vel_0
Time_Shift_46
Sustain_On
Time_Shift_438
Note_On_77_Vel_0
Time_Shift_20
Note_On_90_Vel_86
Time_Shift_5
Note_On_78_Vel_72
Time_Shift_2
Note_On_89_Vel_77
Time_Shift_6
Note_On_77_Vel_70
Time_Shift_23
Note_On_37_Vel_48
Time_Shift_5
Note_On_37_Vel_0
Time_Shift_737
Note_On_78_Vel_0
Time_Shift_69
Note_On_41_Vel_0
Note_On_77_Vel_0
Time_Shift_16
Sustain_Off
Time_Shift_7
Note_On_89_Vel_0
Time_Shift_54
Note_On_90_Vel_0
