Time_Shift_391
Sustain_On
Time_Shift_50
Note_On_58_Vel_47
Note_On_67_Vel_56
Time_Shift_20
Note_On_55_Vel_38
Time_Shift_509
Note_On_62_Vel_48
Time_Shift_343
Note_On_74_Vel_63
Time_Shift_15
Note_On_67_Vel_0
Time_Shift_10
Note_On_67_Vel_35
Time_Shift_337
Note_On_72_Vel_70
Time_Shift_19
Note_On_57_Vel_40
Time_Shift_20
Sustain_Off
Time_Shift_1
Note_On_55_Vel_0
Time_Shift_1
Note_On_58_Vel_0
Note_On_67_Vel_0
Time_Shift_1
Note_On_74_Vel_0
Time_Shift_18
Note_On_62_Vel_0
Time_Shift_154
Sustain_On
Time_Shift_159
Note_On_62_Vel_51
Time_Shift_352
Note_On_74_Vel_65
Time_Shift_7
Note_On_66_Vel_44
Time_Shift_421
Note_On_70_Vel_70
Time_Shift_17
Note_On_58_Vel_40
Time_Shift_6
Note_On_55_Vel_34
Time_Shift_8
Note_On_72_Vel_0
Note_On_62_Vel_0
Time_Shift_1
Note_On_74_Vel_0
Note_On_57_Vel_0
Note_On_66_Vel_0
Time_Shift_7
Sustain_Off
Time_Shift_228
Sustain_On
Time_Shift_119
Note_On_62_Vel_46
Time_Shift_340
Note_On_67_Vel_41
Time_Shift_351
Note_On_69_Vel_50
Time_Shift_23
Note_On_60_Vel_27
Time_Shift_13
Note_On_58_Vel_0
Note_On_67_Vel_0
Time_Shift_1
Note_On_62_Vel_0
Note_On_70_Vel_0
Time_Shift_2
Sustain_Off
Time_Shift_233
Sustain_On
Time_Shift_133
Note_On_62_Vel_43
Time_Shift_392
Note_On_66_Vel_45
Time_Shift_443
Note_On_55_Vel_0
Time_Shift_1
Note_On_58_Vel_42
Time_Shift_1
Note_On_67_Vel_54
Time_Shift_8
Note_On_55_Vel_34
Time_Shift_25
Note_On_69_Vel_0
Note_On_62_Vel_0
Note_On_66_Vel_0
Note_On_60_Vel_0
Time_Shift_5
Sustain_Off
Time_Shift_283
Sustain_On
Time_Shift_220
Note_On_62_Vel_45
Time_Shift_161
Note_On_69_Vel_60
Time_Shift_159
Note_On_70_Vel_72
Time_Shift_382
Note_On_72_Vel_69
Time_Shift_20
Note_On_57_Vel_42
Time_Shift_32
Sustain_Off
Time_Shift_5
Note_On_69_Vel_0
Time_Shift_1
Note_On_58_Vel_0
Note_On_62_Vel_0
Note_On_67_Vel_0
Time_Shift_1
Note_On_70_Vel_0
Time_Shift_25
Note_On_55_Vel_0
Time_Shift_276
Sustain_On
Time_Shift_155
Note_On_62_Vel_44
Time_Shift_147
Note_On_74_Vel_59
Time_Shift_174
Note_On_72_Vel_0
Time_Shift_7
Note_On_72_Vel_65
Time_Shift_28
Note_On_66_Vel_39
Time_Shift_362
Note_On_70_Vel_62
Time_Shift_12
Note_On_58_Vel_35
Time_Shift_10
Note_On_55_Vel_35
Time_Shift_3
Sustain_Off
Time_Shift_5
Note_On_74_Vel_0
Note_On_62_Vel_0
Note_On_57_Vel_0
Time_Shift_1
Note_On_66_Vel_0
Time_Shift_1
Note_On_72_Vel_0
Time_Shift_255
Sustain_On
Time_Shift_124
Note_On_62_Vel_38
Time_Shift_396
Note_On_67_Vel_35
Time_Shift_407
Note_On_60_Vel_38
Time_Shift_1
Note_On_69_Vel_51
Time_Shift_20
Sustain_Off
Note_On_58_Vel_0
Time_Shift_1
Note_On_67_Vel_0
Note_On_70_Vel_0
Time_Shift_19
Note_On_62_Vel_0
Time_Shift_261
Sustain_On
Time_Shift_135
Note_On_62_Vel_43
Time_Shift_468
Note_On_66_Vel_38
Time_Shift_537
Note_On_58_Vel_39
Time_Shift_3
Note_On_67_Vel_44
Time_Shift_1
Note_On_55_Vel_0
Time_Shift_11
Note_On_55_Vel_32
Time_Shift_31
Note_On_62_Vel_0
Note_On_66_Vel_0
Note_On_69_Vel_0
Note_On_60_Vel_0
Time_Shift_5
Sustain_Off
Time_Shift_268
Sustain_On
Time_Shift_175
Note_On_62_Vel_44
Time_Shift_370
Note_On_74_Vel_52
Time_Shift_8
Note_On_67_Vel_0
Time_Shift_10
Note_On_67_Vel_36
Time_Shift_349
Note_On_72_Vel_61
Time_Shift_21
Note_On_57_Vel_34
Time_Shift_1
Sustain_Off
Time_Shift_11
Note_On_62_Vel_0
Time_Shift_1
Note_On_58_Vel_0
Time_Shift_1
Note_On_67_Vel_0
Time_Shift_1
Note_On_74_Vel_0
Time_Shift_27
Note_On_55_Vel_0
Time_Shift_85
Sustain_On
Time_Shift_211
Note_On_62_Vel_49
Time_Shift_366
Note_On_74_Vel_58
Time_Shift_4
Note_On_66_Vel_41
Time_Shift_17
Sustain_Off
Time_Shift_39
Sustain_On
Time_Shift_357
Note_On_70_Vel_59
Time_Shift_17
Note_On_58_Vel_37
Time_Shift_7
Note_On_55_Vel_36
Time_Shift_29
Sustain_Off
Time_Shift_7
Note_On_74_Vel_0
Note_On_72_Vel_0
Note_On_62_Vel_0
Note_On_57_Vel_0
Time_Shift_1
Note_On_66_Vel_0
Time_Shift_250
Sustain_On
Time_Shift_112
Note_On_62_Vel_42
Time_Shift_371
Note_On_67_Vel_48
Time_Shift_394
Note_On_69_Vel_51
Time_Shift_4
Note_On_60_Vel_36
Time_Shift_34
Sustain_Off
Time_Shift_3
Note_On_67_Vel_0
Note_On_62_Vel_0
Note_On_55_Vel_0
Note_On_58_Vel_0
Time_Shift_1
Note_On_70_Vel_0
Time_Shift_118
Sustain_On
Time_Shift_239
Note_On_62_Vel_46
Time_Shift_404
Note_On_66_Vel_41
Time_Shift_451
Note_On_67_Vel_49
Time_Shift_6
Note_On_58_Vel_37
Time_Shift_2
Note_On_55_Vel_29
Time_Shift_17
Sustain_Off
Time_Shift_2
Note_On_62_Vel_0
Time_Shift_1
Note_On_69_Vel_0
Time_Shift_1
Note_On_60_Vel_0
Note_On_66_Vel_0
Time_Shift_183
Sustain_On
Time_Shift_304
Note_On_62_Vel_51
Time_Shift_132
Note_On_69_Vel_58
Time_Shift_175
Note_On_70_Vel_70
Time_Shift_26
Note_On_67_Vel_0
Time_Shift_4
Note_On_67_Vel_30
Time_Shift_358
Note_On_72_Vel_68
Time_Shift_20
Note_On_57_Vel_42
Time_Shift_43
Note_On_69_Vel_0
Sustain_Off
Note_On_58_Vel_0
Time_Shift_1
Note_On_62_Vel_0
Note_On_67_Vel_0
Note_On_70_Vel_0
Time_Shift_20
Note_On_55_Vel_0
Time_Shift_291
Sustain_On
Time_Shift_136
Note_On_62_Vel_45
Time_Shift_175
Note_On_74_Vel_58
Time_Shift_173
Note_On_72_Vel_0
Time_Shift_7
Note_On_72_Vel_64
Time_Shift_31
Note_On_66_Vel_39
Time_Shift_416
Note_On_70_Vel_57
Time_Shift_6
Note_On_58_Vel_39
Time_Shift_26
Note_On_55_Vel_34
Time_Shift_26
Sustain_Off
Time_Shift_2
Note_On_72_Vel_0
Note_On_74_Vel_0
Note_On_62_Vel_0
Note_On_66_Vel_0
Note_On_57_Vel_0
Time_Shift_247
Sustain_On
Time_Shift_102
Note_On_62_Vel_43
Time_Shift_417
Note_On_67_Vel_36
Time_Shift_514
Note_On_69_Vel_47
Time_Shift_15
Note_On_60_Vel_29
Time_Shift_5
Note_On_53_Vel_32
Time_Shift_16
Note_On_67_Vel_0
Time_Shift_1
Note_On_62_Vel_0
Note_On_55_Vel_0
Note_On_58_Vel_0
Time_Shift_1
Note_On_70_Vel_0
Time_Shift_1
Sustain_Off
Time_Shift_264
Sustain_On
Time_Shift_188
Note_On_63_Vel_58
Time_Shift_476
Note_On_65_Vel_59
Time_Shift_580
Note_On_70_Vel_75
Time_Shift_23
Note_On_58_Vel_37
Time_Shift_4
Note_On_62_Vel_45
Time_Shift_22
Sustain_Off
Time_Shift_39
Note_On_63_Vel_0
Time_Shift_1
Note_On_69_Vel_0
Note_On_60_Vel_0
Note_On_53_Vel_0
Time_Shift_6
Note_On_65_Vel_0
Time_Shift_159
Sustain_On
Time_Shift_272
Note_On_65_Vel_60
Time_Shift_378
Note_On_77_Vel_72
Time_Shift_18
Note_On_70_Vel_0
Time_Shift_11
Note_On_70_Vel_50
Time_Shift_367
Note_On_76_Vel_76
Time_Shift_15
Note_On_72_Vel_59
Time_Shift_1
Note_On_60_Vel_46
Time_Shift_24
Sustain_Off
Time_Shift_10
Note_On_70_Vel_0
Time_Shift_2
Note_On_58_Vel_0
Time_Shift_1
Note_On_62_Vel_0
Time_Shift_2
Note_On_65_Vel_0
Note_On_77_Vel_0
Time_Shift_220
Sustain_On
Time_Shift_190
Note_On_65_Vel_55
Time_Shift_356
Note_On_77_Vel_76
Time_Shift_35
Note_On_69_Vel_45
Time_Shift_335
Note_On_74_Vel_73
Time_Shift_32
Note_On_58_Vel_41
Note_On_70_Vel_45
Time_Shift_1
Note_On_62_Vel_45
Time_Shift_7
Sustain_Off
Time_Shift_4
Note_On_69_Vel_0
Time_Shift_1
Note_On_60_Vel_0
Note_On_65_Vel_0
Time_Shift_1
Note_On_76_Vel_0
Note_On_77_Vel_0
Time_Shift_1
Note_On_72_Vel_0
Time_Shift_196
Sustain_On
Time_Shift_126
Note_On_65_Vel_57
Time_Shift_373
Note_On_70_Vel_0
Time_Shift_5
Note_On_70_Vel_59
Time_Shift_389
Note_On_72_Vel_67
Time_Shift_17
Note_On_63_Vel_49
Time_Shift_16
Sustain_Off
Time_Shift_16
Note_On_74_Vel_0
Note_On_65_Vel_0
Time_Shift_1
Note_On_58_Vel_0
Note_On_70_Vel_0
Note_On_62_Vel_0
Time_Shift_225
Sustain_On
Time_Shift_108
Note_On_65_Vel_46
Time_Shift_418
Note_On_69_Vel_43
Time_Shift_403
Note_On_63_Vel_0
Time_Shift_1
Note_On_69_Vel_0
Time_Shift_1
Note_On_65_Vel_0
Sustain_Off
Time_Shift_2
Note_On_72_Vel_0
Time_Shift_18
Note_On_70_Vel_61
Time_Shift_21
Note_On_58_Vel_28
Time_Shift_5
Note_On_62_Vel_42
Time_Shift_198
Sustain_On
Time_Shift_223
Note_On_65_Vel_50
Time_Shift_129
Note_On_72_Vel_71
Time_Shift_152
Note_On_74_Vel_72
Time_Shift_2
Note_On_70_Vel_0
Time_Shift_11
Note_On_70_Vel_56
Time_Shift_346
Note_On_75_Vel_82
Time_Shift_5
Note_On_60_Vel_45
Time_Shift_7
Note_On_70_Vel_0
Time_Shift_9
Note_On_70_Vel_41
Time_Shift_44
Sustain_Off
Time_Shift_5
Note_On_62_Vel_0
Time_Shift_4
Note_On_58_Vel_0
Time_Shift_1
Note_On_72_Vel_0
Time_Shift_1
Note_On_65_Vel_0
Time_Shift_1
Note_On_74_Vel_0
Time_Shift_96
Note_On_70_Vel_0
Time_Shift_46
Sustain_On
Time_Shift_169
Note_On_65_Vel_60
Time_Shift_153
Note_On_77_Vel_75
Time_Shift_155
Note_On_75_Vel_0
Time_Shift_9
Note_On_75_Vel_79
Time_Shift_38
Note_On_69_Vel_45
Time_Shift_342
Note_On_74_Vel_71
Time_Shift_23
Note_On_58_Vel_39
Time_Shift_3
Note_On_70_Vel_48
Time_Shift_1
Sustain_Off
Time_Shift_5
Note_On_69_Vel_0
Time_Shift_1
Note_On_65_Vel_0
Time_Shift_1
Note_On_75_Vel_0
Time_Shift_1
Note_On_77_Vel_0
Time_Shift_2
Note_On_62_Vel_47
Time_Shift_11
Note_On_60_Vel_0
Time_Shift_200
Sustain_On
Time_Shift_124
Note_On_65_Vel_61
Time_Shift_352
Note_On_70_Vel_0
Time_Shift_8
Note_On_70_Vel_64
Time_Shift_386
Note_On_72_Vel_75
Time_Shift_18
Note_On_63_Vel_62
Time_Shift_6
Sustain_Off
Time_Shift_11
Note_On_65_Vel_0
Time_Shift_2
Note_On_74_Vel_0
Note_On_70_Vel_0
Time_Shift_1
Note_On_62_Vel_0
Note_On_58_Vel_0
Time_Shift_167
Sustain_On
Time_Shift_155
Note_On_65_Vel_62
Time_Shift_351
Note_On_69_Vel_64
Time_Shift_402
Note_On_70_Vel_78
Time_Shift_24
Sustain_Off
Note_On_58_Vel_45
Time_Shift_2
Note_On_65_Vel_0
Note_On_69_Vel_0
Time_Shift_1
Note_On_62_Vel_55
Note_On_63_Vel_0
Time_Shift_2
Note_On_72_Vel_0
Time_Shift_231
Sustain_On
Time_Shift_175
Note_On_65_Vel_72
Time_Shift_347
Note_On_70_Vel_0
Time_Shift_1
Note_On_77_Vel_83
Time_Shift_7
Note_On_70_Vel_70
Time_Shift_372
Note_On_76_Vel_86
Time_Shift_10
Note_On_60_Vel_58
Note_On_72_Vel_67
Time_Shift_21
Sustain_Off
Time_Shift_18
Note_On_65_Vel_0
Time_Shift_2
Note_On_62_Vel_0
Time_Shift_1
Note_On_70_Vel_0
Note_On_58_Vel_0
Time_Shift_1
Note_On_77_Vel_0
Time_Shift_235
Sustain_On
Time_Shift_103
Note_On_65_Vel_71
Time_Shift_363
Note_On_77_Vel_86
Time_Shift_16
Note_On_69_Vel_64
Time_Shift_278
Note_On_72_Vel_0
Time_Shift_145
Note_On_74_Vel_82
Time_Shift_26
Note_On_58_Vel_47
Time_Shift_1
Note_On_62_Vel_53
Time_Shift_17
Sustain_Off
Time_Shift_8
Note_On_69_Vel_0
Time_Shift_2
Note_On_60_Vel_0
Time_Shift_2
Note_On_76_Vel_0
Time_Shift_2
Note_On_65_Vel_0
Time_Shift_2
Note_On_77_Vel_0
Time_Shift_210
Sustain_On
Time_Shift_149
Note_On_65_Vel_63
Time_Shift_354
Note_On_70_Vel_68
Time_Shift_368
Note_On_72_Vel_74
Time_Shift_5
Note_On_63_Vel_61
Time_Shift_5
Sustain_Off
Time_Shift_5
Note_On_65_Vel_0
Note_On_74_Vel_0
Time_Shift_1
Note_On_70_Vel_0
Time_Shift_1
Note_On_58_Vel_0
Time_Shift_18
Note_On_62_Vel_0
Time_Shift_185
Sustain_On
Time_Shift_134
Note_On_65_Vel_58
Time_Shift_367
Note_On_69_Vel_51
Time_Shift_383
Note_On_70_Vel_70
Time_Shift_3
Note_On_58_Vel_44
Time_Shift_5
Note_On_65_Vel_0
Sustain_Off
Time_Shift_1
Note_On_63_Vel_0
Time_Shift_1
Note_On_69_Vel_0
Time_Shift_1
Note_On_72_Vel_0
Time_Shift_12
Note_On_62_Vel_50
Time_Shift_291
Sustain_On
Time_Shift_121
Note_On_65_Vel_57
Time_Shift_118
Note_On_72_Vel_67
Time_Shift_203
Note_On_74_Vel_64
Time_Shift_19
Note_On_70_Vel_0
Time_Shift_6
Note_On_70_Vel_52
Time_Shift_388
Note_On_75_Vel_68
Time_Shift_17
Note_On_60_Vel_33
Time_Shift_8
Sustain_Off
Time_Shift_5
Note_On_72_Vel_0
Time_Shift_1
Note_On_65_Vel_0
Note_On_70_Vel_0
Note_On_62_Vel_0
Note_On_58_Vel_0
Time_Shift_1
Note_On_74_Vel_0
Time_Shift_219
Sustain_On
Time_Shift_203
Note_On_65_Vel_45
Time_Shift_160
Note_On_77_Vel_62
Time_Shift_167
Note_On_75_Vel_0
Time_Shift_4
Note_On_75_Vel_72
Time_Shift_39
Note_On_69_Vel_43
Time_Shift_371
Note_On_74_Vel_63
Time_Shift_27
Note_On_58_Vel_27
Note_On_70_Vel_38
Time_Shift_5
Note_On_62_Vel_44
Time_Shift_11
Sustain_Off
Time_Shift_2
Note_On_69_Vel_0
Time_Shift_1
Note_On_65_Vel_0
Note_On_60_Vel_0
Time_Shift_1
Note_On_77_Vel_0
Time_Shift_3
Note_On_75_Vel_0
Time_Shift_242
Sustain_On
Time_Shift_153
Note_On_65_Vel_45
Time_Shift_438
Note_On_74_Vel_0
Time_Shift_9
Note_On_74_Vel_55
Time_Shift_15
Note_On_70_Vel_0
Time_Shift_4
Note_On_70_Vel_39
Time_Shift_483
Note_On_72_Vel_44
Note_On_60_Vel_35
Time_Shift_4
Note_On_69_Vel_35
Time_Shift_13
Note_On_57_Vel_37
Time_Shift_10
Sustain_Off
Note_On_65_Vel_0
Time_Shift_1
Note_On_58_Vel_0
Note_On_70_Vel_0
Time_Shift_1
Note_On_62_Vel_0
Time_Shift_298
Sustain_On
Time_Shift_157
Note_On_62_Vel_43
Time_Shift_518
Note_On_74_Vel_0
Time_Shift_59
Note_On_74_Vel_51
Time_Shift_3
Note_On_69_Vel_0
Time_Shift_3
Note_On_66_Vel_33
Time_Shift_3
Note_On_69_Vel_26
Time_Shift_671
Note_On_55_Vel_31
Time_Shift_1
Note_On_58_Vel_36
Time_Shift_77
Note_On_57_Vel_0
Time_Shift_1
Note_On_66_Vel_0
Note_On_60_Vel_0
Time_Shift_1
Note_On_62_Vel_0
Time_Shift_4
Sustain_Off
Time_Shift_15
Note_On_72_Vel_0
Time_Shift_192
Sustain_On
Time_Shift_249
Note_On_62_Vel_48
Time_Shift_73
Note_On_69_Vel_0
Time_Shift_307
Note_On_74_Vel_0
Time_Shift_4
Note_On_74_Vel_58
Time_Shift_21
Note_On_67_Vel_32
Time_Shift_387
Note_On_57_Vel_42
Note_On_72_Vel_57
Time_Shift_66
Note_On_55_Vel_0
Time_Shift_1
Note_On_58_Vel_0
Time_Shift_1
Note_On_62_Vel_0
Time_Shift_1
Note_On_67_Vel_0
Time_Shift_3
Sustain_Off
Time_Shift_6
Note_On_74_Vel_0
Time_Shift_248
Sustain_On
Time_Shift_93
Note_On_62_Vel_50
Time_Shift_363
Note_On_50_Vel_29
Note_On_74_Vel_62
Time_Shift_4
Note_On_50_Vel_0
Time_Shift_14
Note_On_66_Vel_38
Time_Shift_10
Note_On_72_Vel_0
Time_Shift_393
Note_On_70_Vel_64
Time_Shift_2
Note_On_58_Vel_37
Time_Shift_1
Note_On_55_Vel_38
Time_Shift_39
Note_On_57_Vel_0
Note_On_66_Vel_0
Time_Shift_3
Note_On_62_Vel_0
Sustain_Off
Time_Shift_2
Note_On_74_Vel_0
Time_Shift_235
Sustain_On
Time_Shift_157
Note_On_62_Vel_40
Time_Shift_370
Note_On_67_Vel_44
Time_Shift_380
Note_On_69_Vel_50
Time_Shift_1
Note_On_60_Vel_36
Time_Shift_32
Note_On_58_Vel_0
Note_On_67_Vel_0
Time_Shift_1
Note_On_62_Vel_0
Note_On_70_Vel_0
Time_Shift_1
Sustain_Off
Time_Shift_241
Sustain_On
Time_Shift_143
Note_On_62_Vel_49
Time_Shift_5
Note_On_74_Vel_38
Time_Shift_401
Note_On_66_Vel_42
Time_Shift_459
Note_On_58_Vel_42
Time_Shift_1
Note_On_43_Vel_31
Note_On_67_Vel_54
Time_Shift_26
Sustain_Off
Time_Shift_2
Note_On_74_Vel_0
Time_Shift_2
Note_On_60_Vel_0
Time_Shift_1
Note_On_62_Vel_0
Note_On_69_Vel_0
Note_On_66_Vel_0
Time_Shift_220
Sustain_On
Time_Shift_233
Note_On_62_Vel_43
Time_Shift_151
Note_On_69_Vel_57
Time_Shift_122
Note_On_43_Vel_0
Time_Shift_46
Note_On_67_Vel_0
Time_Shift_3
Note_On_70_Vel_70
Time_Shift_3
Note_On_67_Vel_37
Time_Shift_372
Note_On_72_Vel_68
Time_Shift_13
Note_On_57_Vel_41
Time_Shift_38
Sustain_Off
Time_Shift_8
Note_On_69_Vel_0
Time_Shift_2
Note_On_58_Vel_0
Note_On_62_Vel_0
Time_Shift_1
Note_On_67_Vel_0
Time_Shift_1
Note_On_70_Vel_0
Time_Shift_5
Note_On_55_Vel_0
Time_Shift_230
Sustain_On
Time_Shift_137
Note_On_62_Vel_52
Time_Shift_156
Note_On_74_Vel_65
Time_Shift_153
Note_On_72_Vel_0
Time_Shift_10
Note_On_72_Vel_72
Time_Shift_33
Note_On_66_Vel_37
Time_Shift_10
Sustain_Off
Time_Shift_16
Sustain_On
Time_Shift_339
Note_On_70_Vel_63
Time_Shift_18
Note_On_58_Vel_37
Time_Shift_8
Note_On_55_Vel_36
Time_Shift_47
Sustain_Off
Time_Shift_5
Note_On_74_Vel_0
Note_On_57_Vel_0
Note_On_62_Vel_0
Note_On_66_Vel_0
Time_Shift_21
Note_On_72_Vel_0
Time_Shift_176
Sustain_On
Time_Shift_140
Note_On_62_Vel_40
Time_Shift_388
Note_On_67_Vel_42
Time_Shift_390
Note_On_69_Vel_50
Time_Shift_2
Note_On_60_Vel_36
Time_Shift_42
Note_On_67_Vel_0
Note_On_58_Vel_0
Time_Shift_1
Note_On_70_Vel_0
Note_On_62_Vel_0
Time_Shift_9
Sustain_Off
Time_Shift_203
Sustain_On
Time_Shift_147
Note_On_62_Vel_43
Time_Shift_434
Note_On_66_Vel_38
Time_Shift_524
Note_On_67_Vel_47
Note_On_58_Vel_36
Time_Shift_1
Note_On_55_Vel_0
Time_Shift_7
Note_On_55_Vel_28
Time_Shift_93
Sustain_Off
Time_Shift_4
Note_On_60_Vel_0
Time_Shift_1
Note_On_62_Vel_0
Time_Shift_1
Note_On_69_Vel_0
Note_On_66_Vel_0
Time_Shift_217
Sustain_On
Time_Shift_150
Note_On_62_Vel_30
Time_Shift_370
Note_On_74_Vel_53
Time_Shift_17
Note_On_67_Vel_0
Time_Shift_11
Note_On_67_Vel_32
Time_Shift_392
Note_On_72_Vel_58
Time_Shift_1
Note_On_57_Vel_37
Time_Shift_51
Note_On_58_Vel_0
Note_On_62_Vel_0
Note_On_67_Vel_0
Time_Shift_1
Sustain_Off
Note_On_74_Vel_0
Time_Shift_21
Note_On_55_Vel_0
Time_Shift_176
Sustain_On
Time_Shift_174
Note_On_62_Vel_39
Time_Shift_374
Note_On_74_Vel_56
Time_Shift_16
Note_On_66_Vel_39
Time_Shift_423
Note_On_70_Vel_59
Time_Shift_7
Note_On_58_Vel_42
Time_Shift_1
Note_On_55_Vel_38
Time_Shift_44
Sustain_Off
Time_Shift_9
Note_On_74_Vel_0
Time_Shift_1
Note_On_57_Vel_0
Note_On_62_Vel_0
Note_On_66_Vel_0
Time_Shift_19
Note_On_72_Vel_0
Time_Shift_238
Sustain_On
Time_Shift_125
Note_On_62_Vel_48
Time_Shift_381
Note_On_67_Vel_42
Time_Shift_394
Note_On_69_Vel_47
Time_Shift_1
Note_On_60_Vel_34
Time_Shift_39
Sustain_Off
Time_Shift_1
Note_On_67_Vel_0
Time_Shift_1
Note_On_58_Vel_0
Note_On_70_Vel_0
Time_Shift_10
Note_On_62_Vel_0
Time_Shift_307
Sustain_On
Time_Shift_82
Note_On_62_Vel_38
Time_Shift_434
Note_On_66_Vel_44
Time_Shift_479
Note_On_67_Vel_51
Time_Shift_16
Note_On_58_Vel_37
Time_Shift_3
Note_On_55_Vel_0
Time_Shift_5
Note_On_55_Vel_26
Time_Shift_55
Sustain_Off
Time_Shift_4
Note_On_66_Vel_0
Note_On_62_Vel_0
Time_Shift_1
Note_On_69_Vel_0
Note_On_60_Vel_0
Time_Shift_235
Sustain_On
Time_Shift_242
Note_On_62_Vel_32
Time_Shift_178
Note_On_69_Vel_45
Time_Shift_198
Note_On_70_Vel_54
Time_Shift_19
Note_On_67_Vel_0
Time_Shift_6
Note_On_67_Vel_34
Time_Shift_482
Note_On_72_Vel_59
Time_Shift_4
Note_On_69_Vel_0
Time_Shift_3
Note_On_57_Vel_44
Time_Shift_1
Note_On_69_Vel_41
Time_Shift_63
Sustain_Off
Time_Shift_5
Note_On_67_Vel_0
Time_Shift_1
Note_On_62_Vel_0
Note_On_58_Vel_0
Note_On_55_Vel_0
Note_On_70_Vel_0
Time_Shift_443
Note_On_74_Vel_55
Time_Shift_28
Note_On_62_Vel_32
Time_Shift_101
Sustain_On
Time_Shift_176
Note_On_69_Vel_0
Time_Shift_280
Note_On_66_Vel_43
Time_Shift_761
Note_On_67_Vel_46
Time_Shift_11
Note_On_62_Vel_0
Time_Shift_7
Note_On_58_Vel_33
Time_Shift_5
Note_On_62_Vel_43
Time_Shift_115
Sustain_Off
Time_Shift_2
Note_On_74_Vel_0
Note_On_72_Vel_0
Time_Shift_1
Note_On_66_Vel_0
Note_On_57_Vel_0
Time_Shift_247
Sustain_On
Time_Shift_872
Sustain_Off
Time_Shift_2031
Note_On_58_Vel_0
Note_On_62_Vel_0
Note_On_67_Vel_0
