Time_Shift_69
Sustain_On
Time_Shift_483
Note_On_74_Vel_45
Time_Shift_51
Note_On_46_Vel_23
Time_Shift_326
Note_On_46_Vel_0
Time_Shift_180
Note_On_62_Vel_32
Time_Shift_7
Note_On_46_Vel_24
Time_Shift_2
Note_On_53_Vel_23
Time_Shift_3
Note_On_58_Vel_24
Time_Shift_422
Note_On_58_Vel_0
Note_On_62_Vel_0
Time_Shift_5
Note_On_68_Vel_45
Time_Shift_6
Note_On_58_Vel_37
Time_Shift_1
Note_On_62_Vel_37
Time_Shift_449
Note_On_74_Vel_0
Time_Shift_7
Note_On_74_Vel_63
Time_Shift_60
Note_On_68_Vel_0
Note_On_58_Vel_0
Time_Shift_2
Note_On_53_Vel_0
Time_Shift_1
Note_On_46_Vel_0
Time_Shift_5
Sustain_Off
Time_Shift_6
Note_On_39_Vel_29
Time_Shift_3
Note_On_62_Vel_0
Time_Shift_54
Sustain_On
Time_Shift_185
Note_On_39_Vel_0
Time_Shift_134
Note_On_60_Vel_43
Time_Shift_1
Note_On_67_Vel_28
Time_Shift_7
Note_On_55_Vel_30
Time_Shift_387
Note_On_72_Vel_67
Time_Shift_31
Note_On_55_Vel_0
Note_On_60_Vel_0
Note_On_67_Vel_0
Time_Shift_4
Note_On_55_Vel_37
Time_Shift_1
Note_On_60_Vel_48
Time_Shift_1
Note_On_67_Vel_45
Time_Shift_45
Sustain_Off
Time_Shift_34
Sustain_On
Time_Shift_162
Note_On_69_Vel_58
Time_Shift_65
Note_On_70_Vel_61
Time_Shift_57
Note_On_69_Vel_0
Time_Shift_6
Note_On_69_Vel_60
Time_Shift_17
Sustain_Off
Note_On_72_Vel_0
Time_Shift_1
Note_On_70_Vel_0
Time_Shift_1
Note_On_60_Vel_0
Time_Shift_2
Note_On_55_Vel_0
Time_Shift_22
Note_On_41_Vel_37
Time_Shift_5
Note_On_67_Vel_0
Time_Shift_99
Sustain_On
Time_Shift_239
Note_On_41_Vel_0
Time_Shift_18
Note_On_67_Vel_55
Time_Shift_20
Note_On_60_Vel_33
Time_Shift_10
Note_On_53_Vel_31
Time_Shift_3
Note_On_63_Vel_39
Time_Shift_333
Note_On_69_Vel_0
Time_Shift_7
Note_On_69_Vel_62
Time_Shift_31
Note_On_60_Vel_0
Note_On_63_Vel_0
Time_Shift_7
Note_On_60_Vel_38
Note_On_63_Vel_35
Time_Shift_1
Note_On_53_Vel_0
Time_Shift_4
Note_On_53_Vel_33
Time_Shift_432
Note_On_60_Vel_0
Note_On_63_Vel_0
Time_Shift_1
Note_On_67_Vel_0
Time_Shift_2
Note_On_53_Vel_0
Time_Shift_2
Note_On_70_Vel_54
Sustain_Off
Time_Shift_4
Note_On_74_Vel_0
Time_Shift_15
Note_On_69_Vel_0
Time_Shift_17
Note_On_46_Vel_34
Time_Shift_122
Sustain_On
Time_Shift_348
Note_On_62_Vel_31
Time_Shift_5
Note_On_46_Vel_0
Time_Shift_4
Note_On_65_Vel_26
Time_Shift_4
Note_On_46_Vel_29
Time_Shift_4
Note_On_58_Vel_28
Note_On_53_Vel_28
Time_Shift_236
Note_On_82_Vel_59
Time_Shift_240
Note_On_81_Vel_64
Time_Shift_19
Note_On_65_Vel_0
Time_Shift_6
Note_On_65_Vel_36
Time_Shift_1
Note_On_62_Vel_0
Time_Shift_8
Note_On_58_Vel_0
Time_Shift_2
Note_On_62_Vel_29
Time_Shift_3
Note_On_58_Vel_43
Time_Shift_167
Note_On_79_Vel_78
Time_Shift_304
Note_On_79_Vel_0
Time_Shift_11
Note_On_79_Vel_68
Time_Shift_38
Note_On_58_Vel_0
Time_Shift_1
Note_On_62_Vel_0
Note_On_46_Vel_0
Time_Shift_1
Note_On_81_Vel_0
Time_Shift_1
Note_On_82_Vel_0
Time_Shift_5
Sustain_Off
Note_On_45_Vel_37
Time_Shift_5
Note_On_53_Vel_0
Note_On_70_Vel_0
Time_Shift_7
Note_On_65_Vel_0
Time_Shift_100
Sustain_On
Time_Shift_368
Note_On_63_Vel_42
Time_Shift_7
Note_On_60_Vel_35
Time_Shift_2
Note_On_53_Vel_34
Time_Shift_7
Note_On_45_Vel_0
Time_Shift_204
Note_On_77_Vel_60
Time_Shift_203
Note_On_53_Vel_0
Time_Shift_8
Note_On_53_Vel_42
Time_Shift_1
Note_On_71_Vel_59
Time_Shift_3
Note_On_65_Vel_46
Time_Shift_16
Note_On_57_Vel_22
Time_Shift_3
Note_On_63_Vel_0
Time_Shift_10
Note_On_63_Vel_31
Time_Shift_145
Note_On_72_Vel_71
Time_Shift_321
Note_On_72_Vel_0
Time_Shift_2
Note_On_75_Vel_68
Time_Shift_8
Note_On_72_Vel_50
Time_Shift_9
Sustain_Off
Time_Shift_2
Note_On_71_Vel_0
Time_Shift_2
Note_On_63_Vel_0
Time_Shift_3
Note_On_53_Vel_0
Note_On_57_Vel_0
Time_Shift_3
Note_On_77_Vel_0
Time_Shift_9
Note_On_46_Vel_36
Time_Shift_1
Note_On_60_Vel_0
Time_Shift_7
Note_On_65_Vel_0
Note_On_79_Vel_0
Time_Shift_12
Note_On_72_Vel_0
Time_Shift_111
Sustain_On
Time_Shift_328
Note_On_62_Vel_36
Time_Shift_14
Note_On_58_Vel_41
Time_Shift_1
Note_On_53_Vel_31
Time_Shift_165
Note_On_74_Vel_61
Time_Shift_151
Note_On_66_Vel_55
Time_Shift_237
Note_On_67_Vel_51
Time_Shift_36
Note_On_66_Vel_0
Note_On_54_Vel_28
Time_Shift_2
Note_On_62_Vel_0
Note_On_58_Vel_0
Time_Shift_1
Sustain_Off
Time_Shift_1
Note_On_46_Vel_0
Note_On_53_Vel_0
Time_Shift_1
Note_On_54_Vel_0
Note_On_75_Vel_0
Time_Shift_1
Note_On_60_Vel_27
Time_Shift_2
Note_On_51_Vel_33
Time_Shift_59
Sustain_On
Time_Shift_104
Note_On_77_Vel_61
Time_Shift_158
Note_On_75_Vel_70
Time_Shift_75
Note_On_74_Vel_0
Time_Shift_228
Note_On_72_Vel_65
Time_Shift_44
Note_On_41_Vel_32
Time_Shift_10
Sustain_Off
Time_Shift_8
Note_On_60_Vel_0
Time_Shift_1
Note_On_67_Vel_0
Note_On_51_Vel_0
Time_Shift_1
Note_On_77_Vel_0
Time_Shift_2
Note_On_75_Vel_0
Time_Shift_190
Sustain_On
Time_Shift_185
Note_On_41_Vel_0
Time_Shift_180
Note_On_69_Vel_47
Time_Shift_60
Note_On_60_Vel_30
Time_Shift_395
Note_On_67_Vel_40
Time_Shift_36
Note_On_58_Vel_30
Time_Shift_409
Note_On_65_Vel_39
Time_Shift_3
Note_On_60_Vel_0
Time_Shift_5
Note_On_63_Vel_25
Time_Shift_3
Note_On_60_Vel_26
Time_Shift_7
Note_On_63_Vel_0
Time_Shift_33
Note_On_57_Vel_22
Time_Shift_409
Note_On_63_Vel_24
Note_On_58_Vel_0
Time_Shift_3
Note_On_65_Vel_0
Time_Shift_2
Note_On_55_Vel_24
Time_Shift_3
Sustain_Off
Note_On_65_Vel_21
Time_Shift_80
Sustain_On
Time_Shift_430
Note_On_65_Vel_0
Time_Shift_10
Note_On_65_Vel_42
Time_Shift_13
Note_On_63_Vel_0
Time_Shift_8
Note_On_60_Vel_0
Time_Shift_2
Note_On_63_Vel_24
Time_Shift_2
Note_On_60_Vel_29
Time_Shift_3
Note_On_57_Vel_0
Time_Shift_10
Note_On_57_Vel_20
Time_Shift_18
Sustain_Off
Time_Shift_72
Sustain_On
Time_Shift_524
Note_On_74_Vel_50
Time_Shift_4
Note_On_65_Vel_0
Time_Shift_2
Note_On_57_Vel_0
Time_Shift_3
Note_On_60_Vel_0
Time_Shift_5
Note_On_67_Vel_0
Time_Shift_7
Note_On_55_Vel_0
Time_Shift_28
Note_On_46_Vel_30
Time_Shift_10
Sustain_Off
Time_Shift_1
Note_On_72_Vel_0
Time_Shift_7
Note_On_69_Vel_0
Time_Shift_24
Note_On_63_Vel_0
Time_Shift_161
Sustain_On
Time_Shift_54
Note_On_46_Vel_0
Time_Shift_276
Note_On_34_Vel_19
Time_Shift_3
Note_On_62_Vel_23
Time_Shift_5
Note_On_34_Vel_0
Time_Shift_5
Note_On_58_Vel_31
Time_Shift_396
Note_On_68_Vel_39
Time_Shift_6
Note_On_58_Vel_0
Note_On_62_Vel_0
Time_Shift_8
Note_On_62_Vel_27
Time_Shift_2
Note_On_58_Vel_39
Time_Shift_489
Note_On_74_Vel_0
Time_Shift_4
Note_On_74_Vel_55
Time_Shift_59
Note_On_58_Vel_0
Time_Shift_2
Note_On_68_Vel_0
Note_On_62_Vel_0
Time_Shift_7
Note_On_39_Vel_29
Sustain_Off
Time_Shift_51
Sustain_On
Time_Shift_409
Note_On_60_Vel_37
Time_Shift_8
Note_On_55_Vel_33
Time_Shift_433
Note_On_72_Vel_58
Time_Shift_25
Note_On_55_Vel_0
Time_Shift_8
Note_On_60_Vel_0
Time_Shift_3
Note_On_55_Vel_29
Time_Shift_3
Note_On_67_Vel_34
Time_Shift_1
Note_On_60_Vel_38
Time_Shift_290
Note_On_70_Vel_51
Time_Shift_139
Note_On_69_Vel_52
Time_Shift_26
Sustain_Off
Time_Shift_2
Note_On_70_Vel_0
Time_Shift_1
Note_On_67_Vel_0
Note_On_72_Vel_0
Note_On_60_Vel_0
Time_Shift_1
Note_On_55_Vel_0
Time_Shift_10
Note_On_74_Vel_0
Time_Shift_16
Note_On_39_Vel_0
Time_Shift_6
Note_On_42_Vel_26
Time_Shift_63
Sustain_On
Time_Shift_303
Note_On_68_Vel_62
Time_Shift_32
Note_On_60_Vel_37
Time_Shift_6
Note_On_51_Vel_31
Time_Shift_311
Note_On_69_Vel_0
Time_Shift_9
Note_On_69_Vel_65
Time_Shift_22
Note_On_60_Vel_0
Time_Shift_5
Note_On_60_Vel_31
Time_Shift_3
Note_On_63_Vel_43
Time_Shift_3
Note_On_54_Vel_39
Time_Shift_384
Note_On_70_Vel_71
Time_Shift_24
Sustain_Off
Time_Shift_12
Note_On_60_Vel_0
Time_Shift_2
Note_On_51_Vel_0
Note_On_54_Vel_0
Note_On_63_Vel_0
Time_Shift_3
Note_On_68_Vel_0
Time_Shift_2
Note_On_42_Vel_0
Time_Shift_3
Note_On_43_Vel_36
Time_Shift_12
Note_On_69_Vel_0
Time_Shift_77
Sustain_On
Time_Shift_258
Note_On_60_Vel_62
Time_Shift_37
Note_On_52_Vel_46
Time_Shift_370
Note_On_72_Vel_83
Time_Shift_11
Note_On_60_Vel_0
Time_Shift_8
Note_On_52_Vel_0
Time_Shift_2
Note_On_60_Vel_55
Time_Shift_8
Note_On_52_Vel_43
Time_Shift_47
Note_On_58_Vel_50
Time_Shift_524
Note_On_65_Vel_71
Time_Shift_30
Note_On_52_Vel_0
Time_Shift_1
Note_On_58_Vel_0
Note_On_60_Vel_0
Note_On_72_Vel_0
Time_Shift_1
Sustain_Off
Note_On_41_Vel_44
Time_Shift_4
Note_On_43_Vel_0
Time_Shift_89
Sustain_On
Time_Shift_518
Note_On_79_Vel_63
Time_Shift_25
Note_On_62_Vel_32
Time_Shift_7
Note_On_58_Vel_26
Time_Shift_2
Note_On_53_Vel_34
Time_Shift_24
Note_On_70_Vel_0
Time_Shift_177
Note_On_77_Vel_67
Time_Shift_184
Note_On_65_Vel_0
Time_Shift_8
Note_On_65_Vel_51
Time_Shift_10
Note_On_81_Vel_62
Time_Shift_193
Note_On_82_Vel_66
Time_Shift_278
Note_On_74_Vel_55
Time_Shift_18
Note_On_41_Vel_0
Time_Shift_5
Note_On_41_Vel_38
Time_Shift_28
Note_On_82_Vel_0
Note_On_79_Vel_0
Time_Shift_1
Note_On_58_Vel_0
Note_On_77_Vel_0
Note_On_53_Vel_0
Note_On_65_Vel_0
Time_Shift_1
Note_On_81_Vel_0
Time_Shift_1
Sustain_Off
Time_Shift_10
Note_On_62_Vel_0
Time_Shift_177
Note_On_41_Vel_0
Time_Shift_7
Sustain_On
Time_Shift_235
Note_On_65_Vel_20
Time_Shift_18
Note_On_63_Vel_22
Time_Shift_13
Note_On_57_Vel_23
Time_Shift_172
Note_On_77_Vel_67
Time_Shift_238
Note_On_65_Vel_0
Time_Shift_2
Note_On_72_Vel_58
Time_Shift_10
Note_On_65_Vel_38
Time_Shift_11
Note_On_63_Vel_0
Time_Shift_12
Note_On_63_Vel_22
Time_Shift_2
Note_On_60_Vel_19
Time_Shift_2
Note_On_57_Vel_0
Time_Shift_10
Note_On_57_Vel_25
Time_Shift_136
Note_On_72_Vel_0
Time_Shift_5
Note_On_72_Vel_35
Time_Shift_18
Note_On_77_Vel_0
Time_Shift_5
Note_On_77_Vel_71
Time_Shift_374
Note_On_70_Vel_56
Time_Shift_87
Note_On_46_Vel_38
Time_Shift_12
Sustain_Off
Time_Shift_5
Note_On_60_Vel_0
Note_On_63_Vel_0
Time_Shift_8
Note_On_57_Vel_0
Note_On_74_Vel_0
Time_Shift_2
Note_On_72_Vel_0
Time_Shift_2
Note_On_77_Vel_0
Time_Shift_19
Note_On_65_Vel_0
Time_Shift_138
Sustain_On
Time_Shift_246
Note_On_46_Vel_0
Time_Shift_150
Note_On_65_Vel_30
Time_Shift_12
Note_On_56_Vel_26
Time_Shift_9
Note_On_58_Vel_31
Time_Shift_381
Note_On_46_Vel_27
Time_Shift_1
Note_On_58_Vel_0
Time_Shift_10
Note_On_58_Vel_31
Note_On_64_Vel_33
Time_Shift_24
Note_On_55_Vel_26
Time_Shift_381
Note_On_58_Vel_0
Time_Shift_11
Note_On_58_Vel_29
Time_Shift_6
Note_On_54_Vel_31
Time_Shift_4
Note_On_46_Vel_0
Time_Shift_5
Note_On_56_Vel_0
Time_Shift_1
Note_On_65_Vel_0
Time_Shift_1
Note_On_55_Vel_0
Time_Shift_6
Note_On_64_Vel_0
Time_Shift_2
Note_On_63_Vel_27
Time_Shift_394
Note_On_58_Vel_0
Note_On_63_Vel_0
Time_Shift_4
Note_On_63_Vel_40
Time_Shift_4
Note_On_54_Vel_0
Time_Shift_3
Note_On_58_Vel_35
Time_Shift_7
Note_On_54_Vel_23
Time_Shift_444
Note_On_54_Vel_0
Time_Shift_5
Note_On_62_Vel_29
Time_Shift_1
Note_On_58_Vel_0
Note_On_63_Vel_0
Time_Shift_9
Sustain_Off
Time_Shift_2
Note_On_63_Vel_31
Time_Shift_1
Note_On_34_Vel_29
Note_On_58_Vel_33
Time_Shift_4
Note_On_34_Vel_0
Note_On_53_Vel_34
Time_Shift_31
Sustain_On
Time_Shift_660
Note_On_58_Vel_0
Time_Shift_6
Note_On_58_Vel_36
Time_Shift_2
Note_On_72_Vel_51
Time_Shift_3
Note_On_53_Vel_0
Time_Shift_3
Sustain_Off
Time_Shift_1
Note_On_63_Vel_0
Time_Shift_1
Note_On_62_Vel_0
Time_Shift_16
Note_On_46_Vel_29
Time_Shift_129
Sustain_On
Time_Shift_139
Note_On_70_Vel_0
Time_Shift_292
Note_On_55_Vel_28
Time_Shift_1
Note_On_48_Vel_22
Time_Shift_6
Note_On_48_Vel_0
Time_Shift_4
Note_On_60_Vel_24
Time_Shift_9
Note_On_52_Vel_23
Time_Shift_33
Note_On_58_Vel_0
Time_Shift_369
Note_On_55_Vel_0
Time_Shift_6
Note_On_55_Vel_25
Time_Shift_1
Note_On_60_Vel_0
Time_Shift_5
Note_On_60_Vel_26
Time_Shift_7
Note_On_64_Vel_18
Time_Shift_417
Note_On_55_Vel_0
Note_On_60_Vel_0
Time_Shift_2
Note_On_52_Vel_0
Time_Shift_1
Note_On_72_Vel_0
Time_Shift_9
Sustain_Off
Time_Shift_13
Note_On_46_Vel_0
Time_Shift_7
Sustain_On
Time_Shift_4
Note_On_46_Vel_24
Note_On_34_Vel_21
Time_Shift_12
Note_On_34_Vel_0
Time_Shift_122
Note_On_64_Vel_0
Time_Shift_271
Note_On_74_Vel_52
Time_Shift_38
Note_On_53_Vel_19
Time_Shift_11
Note_On_51_Vel_21
Time_Shift_4
Note_On_57_Vel_21
Time_Shift_148
Note_On_72_Vel_56
Time_Shift_202
Note_On_65_Vel_41
Time_Shift_2
Note_On_77_Vel_64
Time_Shift_13
Note_On_63_Vel_22
Time_Shift_3
Note_On_57_Vel_0
Time_Shift_8
Note_On_57_Vel_26
Time_Shift_138
Note_On_74_Vel_0
Time_Shift_7
Note_On_74_Vel_60
Time_Shift_284
Note_On_72_Vel_0
Time_Shift_5
Note_On_72_Vel_60
Time_Shift_36
Note_On_63_Vel_0
Note_On_57_Vel_0
Time_Shift_2
Note_On_74_Vel_0
Note_On_65_Vel_0
Note_On_53_Vel_0
Time_Shift_1
Note_On_77_Vel_0
Time_Shift_10
Note_On_46_Vel_0
Time_Shift_3
Sustain_Off
Time_Shift_2
Note_On_46_Vel_38
Time_Shift_3
Note_On_51_Vel_0
Time_Shift_107
Sustain_On
Time_Shift_93
Note_On_46_Vel_0
Time_Shift_241
Note_On_70_Vel_57
Time_Shift_33
Note_On_65_Vel_36
Time_Shift_13
Note_On_46_Vel_27
Time_Shift_18
Note_On_56_Vel_38
Time_Shift_3
Note_On_58_Vel_31
Time_Shift_337
Note_On_46_Vel_0
Note_On_65_Vel_0
Note_On_64_Vel_37
Time_Shift_5
Note_On_65_Vel_39
Time_Shift_1
Note_On_46_Vel_29
Time_Shift_1
Note_On_58_Vel_0
Time_Shift_5
Note_On_58_Vel_31
Time_Shift_2
Note_On_56_Vel_0
Time_Shift_33
Note_On_55_Vel_34
Time_Shift_365
Note_On_63_Vel_33
Time_Shift_2
Note_On_46_Vel_0
Note_On_58_Vel_0
Time_Shift_4
Note_On_58_Vel_26
Time_Shift_4
Note_On_65_Vel_0
Time_Shift_2
Note_On_54_Vel_30
Time_Shift_1
Note_On_55_Vel_0
Time_Shift_1
Sustain_Off
Time_Shift_1
Note_On_64_Vel_0
Time_Shift_133
Sustain_On
Time_Shift_92
Note_On_72_Vel_0
Time_Shift_185
Note_On_58_Vel_0
Note_On_63_Vel_0
Time_Shift_5
Note_On_58_Vel_35
Note_On_63_Vel_31
Time_Shift_2
Note_On_54_Vel_0
Time_Shift_10
Note_On_54_Vel_23
Time_Shift_432
Note_On_54_Vel_0
Time_Shift_1
Note_On_63_Vel_0
Time_Shift_3
Note_On_58_Vel_0
Time_Shift_5
Note_On_62_Vel_27
Time_Shift_5
Sustain_Off
Time_Shift_1
Note_On_58_Vel_26
Time_Shift_12
Note_On_53_Vel_29
Time_Shift_61
Sustain_On
Time_Shift_509
Note_On_72_Vel_49
Note_On_53_Vel_0
Note_On_58_Vel_0
Time_Shift_4
Note_On_62_Vel_0
Time_Shift_5
Sustain_Off
Time_Shift_51
Note_On_70_Vel_0
Time_Shift_1
Note_On_46_Vel_25
Time_Shift_37
Sustain_On
Time_Shift_517
Note_On_60_Vel_28
Time_Shift_8
Note_On_55_Vel_20
Time_Shift_9
Note_On_52_Vel_23
Time_Shift_457
Note_On_55_Vel_0
Time_Shift_5
Note_On_55_Vel_28
Time_Shift_10
Note_On_52_Vel_0
Note_On_60_Vel_0
Time_Shift_4
Note_On_60_Vel_35
Time_Shift_1
Note_On_52_Vel_28
Time_Shift_2
Note_On_64_Vel_27
Time_Shift_562
Note_On_46_Vel_0
Time_Shift_8
Note_On_46_Vel_31
Time_Shift_19
Note_On_52_Vel_0
Time_Shift_1
Note_On_60_Vel_0
Time_Shift_25
Note_On_55_Vel_0
Time_Shift_5
Sustain_Off
Time_Shift_3
Note_On_64_Vel_0
Time_Shift_15
Sustain_On
Time_Shift_446
Note_On_74_Vel_37
Time_Shift_28
Note_On_53_Vel_22
Time_Shift_16
Note_On_63_Vel_23
Time_Shift_13
Note_On_57_Vel_18
Time_Shift_227
Note_On_72_Vel_0
Time_Shift_5
Note_On_72_Vel_53
Time_Shift_283
Note_On_77_Vel_60
Time_Shift_34
Note_On_53_Vel_0
Time_Shift_12
Note_On_53_Vel_25
Time_Shift_4
Note_On_45_Vel_19
Note_On_57_Vel_0
Time_Shift_6
Note_On_57_Vel_22
Time_Shift_2
Note_On_45_Vel_0
Time_Shift_184
Note_On_74_Vel_0
Time_Shift_4
Note_On_74_Vel_57
Time_Shift_472
Note_On_72_Vel_0
Time_Shift_8
Note_On_72_Vel_49
Time_Shift_7
Note_On_46_Vel_0
Time_Shift_86
Note_On_46_Vel_30
Time_Shift_6
Note_On_57_Vel_0
Time_Shift_24
Note_On_63_Vel_0
Time_Shift_7
Note_On_53_Vel_0
Time_Shift_34
Note_On_74_Vel_0
Time_Shift_158
Note_On_46_Vel_0
Time_Shift_24
Note_On_34_Vel_19
Time_Shift_7
Note_On_34_Vel_0
Time_Shift_427
Note_On_67_Vel_33
Time_Shift_16
Note_On_62_Vel_24
Time_Shift_2
Note_On_58_Vel_21
Time_Shift_632
Note_On_65_Vel_23
Time_Shift_4
Note_On_66_Vel_21
Time_Shift_2
Note_On_58_Vel_0
Time_Shift_9
Note_On_46_Vel_24
Time_Shift_1
Note_On_58_Vel_26
Time_Shift_5
Note_On_62_Vel_0
Time_Shift_11
Note_On_62_Vel_18
Time_Shift_593
Note_On_70_Vel_35
Time_Shift_614
Note_On_63_Vel_19
Note_On_53_Vel_19
Time_Shift_19
Note_On_58_Vel_0
Time_Shift_5
Note_On_58_Vel_16
Time_Shift_617
Note_On_62_Vel_0
Time_Shift_6
Note_On_62_Vel_23
Time_Shift_48
Note_On_65_Vel_0
Note_On_66_Vel_0
Note_On_72_Vel_0
Note_On_77_Vel_0
Time_Shift_1114
Note_On_72_Vel_44
Time_Shift_22
Note_On_62_Vel_0
Time_Shift_5
Note_On_62_Vel_25
Time_Shift_3
Note_On_46_Vel_0
Note_On_53_Vel_0
Time_Shift_5
Note_On_53_Vel_17
Note_On_46_Vel_24
Time_Shift_632
Note_On_70_Vel_0
Time_Shift_11
Note_On_70_Vel_34
Time_Shift_28
Note_On_62_Vel_0
Time_Shift_7
Note_On_46_Vel_0
Time_Shift_3
Note_On_62_Vel_17
Time_Shift_9
Note_On_46_Vel_20
Time_Shift_188
Note_On_67_Vel_0
Time_Shift_1006
Note_On_72_Vel_0
Time_Shift_10
Note_On_72_Vel_30
Time_Shift_5
Note_On_62_Vel_0
Time_Shift_5
Note_On_62_Vel_25
Time_Shift_26
Note_On_53_Vel_0
Time_Shift_8
Note_On_46_Vel_0
Time_Shift_4
Note_On_53_Vel_16
Note_On_46_Vel_22
Time_Shift_749
Note_On_58_Vel_0
Note_On_63_Vel_0
Note_On_70_Vel_0
Time_Shift_27
Note_On_70_Vel_22
Time_Shift_3
Note_On_46_Vel_0
Note_On_62_Vel_0
Time_Shift_2
Note_On_58_Vel_19
Time_Shift_2
Note_On_34_Vel_18
Time_Shift_1
Note_On_62_Vel_17
Time_Shift_1
Note_On_46_Vel_19
Time_Shift_140
Sustain_Off
Time_Shift_100
Sustain_On
Time_Shift_1213
Note_On_34_Vel_0
Time_Shift_4
Note_On_34_Vel_18
Time_Shift_2316
Note_On_72_Vel_0
Time_Shift_31
Note_On_34_Vel_0
Note_On_46_Vel_0
Note_On_53_Vel_0
Note_On_58_Vel_0
Note_On_62_Vel_0
Note_On_70_Vel_0
Time_Shift_3840
Sustain_Off
