Time_Shift_7
Sustain_On
Time_Shift_3310
Sustain_Off
Time_Shift_51
Note_On_64_Vel_55
Time_Shift_41
Sustain_On
Time_Shift_459
Note_On_69_Vel_65
Time_Shift_7
Note_On_33_Vel_43
Time_Shift_8
Sustain_Off
Time_Shift_41
Sustain_On
Time_Shift_196
Note_On_71_Vel_71
Time_Shift_203
Note_On_64_Vel_0
Note_On_69_Vel_0
Time_Shift_4
Note_On_60_Vel_56
Time_Shift_1
Note_On_64_Vel_51
Time_Shift_1
Note_On_72_Vel_72
Time_Shift_1
Note_On_57_Vel_49
Time_Shift_2
Note_On_69_Vel_60
Time_Shift_29
Note_On_71_Vel_0
Time_Shift_4
Sustain_Off
Time_Shift_4
Note_On_33_Vel_0
Time_Shift_8
Sustain_On
Time_Shift_384
Note_On_64_Vel_0
Note_On_72_Vel_0
Time_Shift_8
Note_On_57_Vel_0
Note_On_60_Vel_0
Time_Shift_1
Note_On_72_Vel_73
Time_Shift_2
Note_On_64_Vel_44
Time_Shift_3
Note_On_57_Vel_44
Time_Shift_1
Note_On_60_Vel_44
Time_Shift_1
Sustain_Off
Time_Shift_30
Sustain_On
Time_Shift_401
Note_On_74_Vel_77
Time_Shift_1
Note_On_38_Vel_52
Time_Shift_2
Note_On_60_Vel_0
Time_Shift_1
Note_On_57_Vel_0
Sustain_Off
Time_Shift_18
Note_On_64_Vel_0
Note_On_69_Vel_0
Note_On_72_Vel_0
Time_Shift_69
Sustain_On
Time_Shift_104
Note_On_76_Vel_77
Time_Shift_213
Note_On_62_Vel_52
Time_Shift_4
Note_On_57_Vel_49
Time_Shift_5
Sustain_Off
Time_Shift_3
Note_On_65_Vel_49
Time_Shift_1
Note_On_77_Vel_78
Time_Shift_23
Sustain_On
Time_Shift_8
Note_On_38_Vel_0
Time_Shift_61
Note_On_74_Vel_0
Time_Shift_69
Note_On_76_Vel_0
Time_Shift_269
Note_On_62_Vel_0
Note_On_65_Vel_0
Time_Shift_8
Note_On_57_Vel_0
Time_Shift_3
Note_On_65_Vel_35
Note_On_62_Vel_41
Time_Shift_2
Note_On_69_Vel_37
Time_Shift_5
Note_On_57_Vel_37
Time_Shift_5
Note_On_69_Vel_0
Time_Shift_478
Note_On_43_Vel_47
Time_Shift_2
Note_On_71_Vel_62
Time_Shift_16
Note_On_62_Vel_0
Note_On_57_Vel_0
Time_Shift_1
Sustain_Off
Note_On_77_Vel_0
Time_Shift_18
Note_On_65_Vel_0
Time_Shift_196
Note_On_72_Vel_64
Time_Shift_6
Note_On_71_Vel_0
Time_Shift_28
Sustain_On
Time_Shift_181
Note_On_59_Vel_47
Time_Shift_5
Note_On_74_Vel_65
Time_Shift_3
Note_On_55_Vel_42
Time_Shift_4
Note_On_65_Vel_39
Time_Shift_217
Note_On_81_Vel_72
Time_Shift_207
Sustain_Off
Time_Shift_2
Note_On_79_Vel_63
Time_Shift_3
Note_On_55_Vel_0
Note_On_59_Vel_0
Note_On_65_Vel_0
Time_Shift_4
Note_On_55_Vel_37
Time_Shift_2
Note_On_59_Vel_42
Time_Shift_5
Note_On_65_Vel_30
Time_Shift_20
Sustain_On
Time_Shift_171
Note_On_77_Vel_67
Time_Shift_105
Note_On_76_Vel_58
Time_Shift_46
Note_On_77_Vel_0
Time_Shift_5
Note_On_77_Vel_55
Time_Shift_41
Note_On_76_Vel_0
Time_Shift_10
Note_On_48_Vel_39
Time_Shift_1
Note_On_76_Vel_59
Time_Shift_9
Sustain_Off
Time_Shift_4
Note_On_43_Vel_0
Note_On_74_Vel_0
Time_Shift_1
Note_On_72_Vel_0
Time_Shift_1
Note_On_55_Vel_0
Note_On_59_Vel_0
Note_On_81_Vel_0
Note_On_65_Vel_0
Note_On_79_Vel_0
Time_Shift_1
Note_On_77_Vel_0
Time_Shift_150
Sustain_On
Time_Shift_30
Note_On_75_Vel_64
Time_Shift_208
Note_On_76_Vel_0
Time_Shift_3
Note_On_55_Vel_45
Time_Shift_2
Note_On_64_Vel_45
Time_Shift_2
Note_On_60_Vel_41
Time_Shift_3
Note_On_76_Vel_61
Time_Shift_23
Sustain_Off
Time_Shift_21
Sustain_On
Time_Shift_384
Note_On_60_Vel_0
Time_Shift_8
Note_On_55_Vel_0
Note_On_64_Vel_0
Time_Shift_3
Note_On_60_Vel_39
Time_Shift_2
Note_On_64_Vel_39
Time_Shift_4
Note_On_55_Vel_36
Time_Shift_450
Note_On_45_Vel_39
Time_Shift_23
Sustain_Off
Time_Shift_3
Note_On_69_Vel_59
Time_Shift_2
Note_On_64_Vel_0
Note_On_55_Vel_0
Note_On_76_Vel_0
Time_Shift_1
Note_On_75_Vel_0
Time_Shift_11
Note_On_48_Vel_0
Time_Shift_15
Note_On_60_Vel_0
Time_Shift_66
Note_On_45_Vel_0
Time_Shift_95
Sustain_On
Time_Shift_14
Note_On_71_Vel_65
Time_Shift_208
Note_On_64_Vel_47
Time_Shift_3
Note_On_57_Vel_45
Time_Shift_1
Note_On_60_Vel_46
Time_Shift_1
Note_On_72_Vel_65
Time_Shift_55
Note_On_71_Vel_0
Time_Shift_3
Note_On_69_Vel_0
Time_Shift_3
Sustain_Off
Time_Shift_20
Sustain_On
Time_Shift_330
Note_On_60_Vel_0
Time_Shift_8
Note_On_57_Vel_0
Note_On_64_Vel_0
Note_On_72_Vel_0
Note_On_60_Vel_41
Time_Shift_4
Note_On_57_Vel_39
Time_Shift_1
Note_On_72_Vel_67
Time_Shift_3
Note_On_64_Vel_38
Time_Shift_19
Sustain_Off
Time_Shift_57
Sustain_On
Time_Shift_335
Note_On_74_Vel_68
Note_On_38_Vel_46
Time_Shift_6
Sustain_Off
Time_Shift_5
Note_On_60_Vel_0
Time_Shift_7
Note_On_57_Vel_0
Note_On_64_Vel_0
Note_On_72_Vel_0
Time_Shift_108
Sustain_On
Time_Shift_15
Sustain_Off
Time_Shift_65
Note_On_76_Vel_69
Note_On_74_Vel_0
Time_Shift_89
Sustain_On
Time_Shift_77
Sustain_Off
Time_Shift_47
Note_On_65_Vel_41
Time_Shift_8
Note_On_62_Vel_43
Time_Shift_3
Note_On_57_Vel_39
Time_Shift_6
Note_On_77_Vel_69
Time_Shift_20
Sustain_On
Time_Shift_23
Note_On_38_Vel_0
Time_Shift_31
Note_On_76_Vel_0
Time_Shift_353
Note_On_57_Vel_0
Note_On_62_Vel_0
Note_On_65_Vel_0
Time_Shift_4
Note_On_57_Vel_38
Time_Shift_6
Note_On_69_Vel_36
Time_Shift_1
Note_On_62_Vel_39
Time_Shift_1
Note_On_65_Vel_33
Time_Shift_4
Note_On_69_Vel_0
Time_Shift_456
Note_On_43_Vel_47
Time_Shift_8
Note_On_71_Vel_67
Time_Shift_15
Note_On_57_Vel_0
Note_On_62_Vel_0
Time_Shift_1
Sustain_Off
Note_On_77_Vel_0
Time_Shift_19
Note_On_65_Vel_0
Time_Shift_30
Sustain_On
Time_Shift_166
Note_On_72_Vel_67
Time_Shift_12
Note_On_71_Vel_0
Time_Shift_2
Sustain_Off
Time_Shift_112
Sustain_On
Time_Shift_89
Note_On_59_Vel_49
Time_Shift_7
Note_On_55_Vel_48
Time_Shift_1
Note_On_74_Vel_70
Time_Shift_14
Note_On_65_Vel_42
Time_Shift_207
Note_On_81_Vel_75
Time_Shift_208
Note_On_79_Vel_67
Time_Shift_4
Note_On_55_Vel_0
Note_On_65_Vel_0
Time_Shift_4
Note_On_55_Vel_38
Time_Shift_1
Note_On_62_Vel_44
Time_Shift_1
Note_On_65_Vel_33
Time_Shift_11
Sustain_Off
Time_Shift_2
Note_On_59_Vel_0
Time_Shift_35
Sustain_On
Time_Shift_46
Note_On_72_Vel_0
Time_Shift_104
Note_On_71_Vel_66
Time_Shift_229
Note_On_48_Vel_50
Time_Shift_2
Note_On_72_Vel_65
Time_Shift_11
Note_On_81_Vel_0
Time_Shift_2
Sustain_Off
Time_Shift_1
Note_On_62_Vel_0
Time_Shift_1
Note_On_71_Vel_0
Note_On_65_Vel_0
Note_On_79_Vel_0
Time_Shift_11
Note_On_43_Vel_0
Note_On_74_Vel_0
Time_Shift_8
Note_On_55_Vel_0
Time_Shift_268
Sustain_On
Time_Shift_188
Note_On_64_Vel_44
Time_Shift_3
Note_On_55_Vel_40
Time_Shift_10
Note_On_60_Vel_37
Time_Shift_21
Sustain_Off
Time_Shift_32
Sustain_On
Time_Shift_476
Note_On_64_Vel_0
Time_Shift_4
Note_On_64_Vel_55
Time_Shift_15
Sustain_Off
Time_Shift_35
Sustain_On
Time_Shift_445
Note_On_48_Vel_0
Time_Shift_29
Note_On_33_Vel_40
Time_Shift_1
Note_On_69_Vel_65
Time_Shift_9
Note_On_60_Vel_0
Time_Shift_2
Note_On_55_Vel_0
Note_On_64_Vel_0
Note_On_72_Vel_0
Time_Shift_4
Sustain_Off
Time_Shift_70
Sustain_On
Time_Shift_150
Note_On_69_Vel_0
Time_Shift_4
Sustain_Off
Time_Shift_1
Note_On_71_Vel_68
Time_Shift_7
Note_On_33_Vel_0
Time_Shift_115
Sustain_On
Time_Shift_31
Sustain_Off
Time_Shift_59
Note_On_64_Vel_45
Time_Shift_3
Note_On_57_Vel_41
Time_Shift_2
Note_On_72_Vel_67
Time_Shift_2
Note_On_60_Vel_45
Time_Shift_18
Sustain_On
Time_Shift_407
Note_On_57_Vel_0
Note_On_64_Vel_0
Note_On_72_Vel_0
Time_Shift_8
Note_On_60_Vel_0
Time_Shift_1
Note_On_72_Vel_68
Time_Shift_3
Note_On_64_Vel_43
Note_On_57_Vel_39
Note_On_60_Vel_44
Time_Shift_12
Sustain_Off
Time_Shift_15
Note_On_71_Vel_0
Time_Shift_30
Sustain_On
Time_Shift_387
Note_On_74_Vel_72
Note_On_38_Vel_45
Time_Shift_2
Note_On_72_Vel_0
Note_On_60_Vel_0
Time_Shift_4
Sustain_Off
Time_Shift_7
Note_On_64_Vel_0
Time_Shift_15
Note_On_57_Vel_0
Time_Shift_54
Sustain_On
Time_Shift_133
Note_On_76_Vel_73
Time_Shift_195
Note_On_62_Vel_46
Time_Shift_4
Note_On_57_Vel_44
Time_Shift_2
Note_On_65_Vel_42
Time_Shift_1
Note_On_77_Vel_73
Time_Shift_7
Sustain_Off
Time_Shift_2
Note_On_76_Vel_0
Note_On_74_Vel_0
Time_Shift_63
Sustain_On
Time_Shift_15
Note_On_38_Vel_0
Time_Shift_330
Note_On_62_Vel_0
Time_Shift_8
Note_On_65_Vel_0
Time_Shift_3
Note_On_62_Vel_43
Time_Shift_2
Note_On_65_Vel_35
Time_Shift_18
Note_On_57_Vel_0
Time_Shift_6
Note_On_57_Vel_38
Time_Shift_474
Note_On_43_Vel_50
Time_Shift_6
Note_On_71_Vel_66
Time_Shift_17
Sustain_Off
Note_On_57_Vel_0
Time_Shift_1
Note_On_65_Vel_0
Time_Shift_1
Note_On_77_Vel_0
Time_Shift_10
Note_On_62_Vel_0
Time_Shift_195
Note_On_71_Vel_0
Time_Shift_4
Note_On_72_Vel_67
Time_Shift_100
Sustain_On
Time_Shift_120
Note_On_59_Vel_49
Time_Shift_1
Note_On_55_Vel_46
Time_Shift_2
Note_On_65_Vel_41
Time_Shift_1
Note_On_74_Vel_70
Time_Shift_220
Note_On_81_Vel_75
Time_Shift_202
Note_On_55_Vel_0
Time_Shift_7
Note_On_59_Vel_0
Note_On_65_Vel_0
Time_Shift_3
Note_On_55_Vel_43
Time_Shift_1
Note_On_79_Vel_65
Note_On_59_Vel_44
Time_Shift_4
Note_On_65_Vel_36
Time_Shift_203
Note_On_77_Vel_71
Time_Shift_104
Note_On_76_Vel_63
Time_Shift_46
Note_On_77_Vel_0
Time_Shift_4
Note_On_77_Vel_58
Time_Shift_42
Note_On_76_Vel_0
Time_Shift_11
Note_On_76_Vel_64
Sustain_Off
Time_Shift_1
Note_On_72_Vel_0
Note_On_81_Vel_0
Time_Shift_1
Note_On_55_Vel_0
Note_On_74_Vel_0
Note_On_48_Vel_45
Note_On_59_Vel_0
Time_Shift_1
Note_On_65_Vel_0
Note_On_79_Vel_0
Time_Shift_1
Note_On_77_Vel_0
Time_Shift_8
Note_On_43_Vel_0
Time_Shift_100
Sustain_On
Time_Shift_78
Note_On_75_Vel_68
Time_Shift_212
Note_On_64_Vel_52
Time_Shift_2
Note_On_76_Vel_0
Time_Shift_4
Note_On_60_Vel_44
Time_Shift_2
Note_On_55_Vel_45
Time_Shift_2
Note_On_76_Vel_65
Time_Shift_6
Sustain_Off
Time_Shift_47
Sustain_On
Time_Shift_361
Note_On_60_Vel_0
Time_Shift_8
Note_On_64_Vel_0
Time_Shift_4
Note_On_60_Vel_39
Time_Shift_3
Note_On_64_Vel_39
Time_Shift_1
Note_On_55_Vel_0
Time_Shift_11
Note_On_55_Vel_35
Time_Shift_452
Note_On_45_Vel_44
Time_Shift_1
Note_On_72_Vel_68
Time_Shift_12
Note_On_48_Vel_0
Time_Shift_13
Sustain_Off
Time_Shift_4
Note_On_76_Vel_0
Note_On_55_Vel_0
Time_Shift_1
Note_On_75_Vel_0
Time_Shift_20
Note_On_60_Vel_0
Note_On_64_Vel_0
Time_Shift_195
Note_On_74_Vel_71
Time_Shift_13
Sustain_On
Time_Shift_179
Note_On_57_Vel_42
Time_Shift_1
Note_On_60_Vel_44
Time_Shift_2
Note_On_64_Vel_46
Time_Shift_2
Note_On_45_Vel_0
Time_Shift_2
Note_On_76_Vel_70
Time_Shift_413
Note_On_57_Vel_0
Note_On_60_Vel_0
Note_On_64_Vel_0
Note_On_76_Vel_0
Time_Shift_4
Note_On_64_Vel_39
Time_Shift_3
Note_On_76_Vel_70
Note_On_57_Vel_35
Time_Shift_4
Note_On_60_Vel_39
Time_Shift_1
Note_On_72_Vel_0
Time_Shift_1
Note_On_74_Vel_0
Time_Shift_13
Sustain_Off
Time_Shift_43
Sustain_On
Time_Shift_341
Note_On_38_Vel_45
Time_Shift_23
Note_On_77_Vel_66
Time_Shift_5
Note_On_76_Vel_0
Time_Shift_2
Sustain_Off
Time_Shift_13
Note_On_60_Vel_0
Note_On_64_Vel_0
Time_Shift_7
Note_On_57_Vel_0
Time_Shift_93
Sustain_On
Time_Shift_75
Note_On_79_Vel_66
Time_Shift_1
Note_On_38_Vel_0
Time_Shift_214
Note_On_57_Vel_43
Time_Shift_7
Note_On_65_Vel_35
Time_Shift_5
Note_On_81_Vel_68
Time_Shift_1
Note_On_62_Vel_45
Time_Shift_419
Note_On_62_Vel_0
Time_Shift_7
Note_On_57_Vel_0
Note_On_65_Vel_0
Time_Shift_4
Note_On_62_Vel_44
Time_Shift_5
Note_On_69_Vel_35
Time_Shift_1
Note_On_57_Vel_38
Time_Shift_1
Note_On_65_Vel_36
Time_Shift_481
Note_On_79_Vel_0
Time_Shift_11
Note_On_79_Vel_61
Note_On_43_Vel_41
Time_Shift_4
Note_On_77_Vel_0
Sustain_Off
Time_Shift_3
Note_On_57_Vel_0
Time_Shift_1
Note_On_65_Vel_0
Time_Shift_1
Note_On_81_Vel_0
Time_Shift_18
Note_On_62_Vel_0
Time_Shift_23
Note_On_69_Vel_0
Time_Shift_185
Sustain_On
Time_Shift_202
Note_On_55_Vel_45
Note_On_59_Vel_48
Note_On_78_Vel_70
Time_Shift_10
Note_On_65_Vel_38
Time_Shift_21
Note_On_71_Vel_34
Time_Shift_5
Note_On_71_Vel_0
Time_Shift_176
Note_On_79_Vel_0
Time_Shift_4
Note_On_79_Vel_66
Time_Shift_204
Note_On_59_Vel_0
Note_On_86_Vel_73
Time_Shift_7
Note_On_55_Vel_0
Time_Shift_4
Note_On_59_Vel_41
Note_On_55_Vel_38
Time_Shift_4
Note_On_65_Vel_0
Time_Shift_4
Note_On_65_Vel_29
Time_Shift_209
Note_On_77_Vel_69
Time_Shift_229
Note_On_48_Vel_43
Note_On_76_Vel_60
Time_Shift_19
Sustain_Off
Time_Shift_5
Note_On_78_Vel_0
Note_On_77_Vel_0
Time_Shift_1
Note_On_79_Vel_0
Time_Shift_1
Note_On_86_Vel_0
Time_Shift_1
Note_On_55_Vel_0
Note_On_65_Vel_0
Time_Shift_7
Note_On_43_Vel_0
Time_Shift_8
Note_On_59_Vel_0
Time_Shift_215
Sustain_On
Time_Shift_172
Note_On_55_Vel_43
Time_Shift_12
Note_On_64_Vel_40
Time_Shift_4
Note_On_60_Vel_38
Time_Shift_434
Note_On_55_Vel_0
Note_On_60_Vel_0
Time_Shift_5
Note_On_60_Vel_35
Time_Shift_3
Note_On_55_Vel_36
Time_Shift_15
Note_On_64_Vel_0
Time_Shift_1
Sustain_Off
Time_Shift_4
Note_On_64_Vel_34
Time_Shift_79
Sustain_On
Time_Shift_384
Note_On_76_Vel_0
Time_Shift_4
Note_On_40_Vel_42
Time_Shift_5
Note_On_76_Vel_62
Time_Shift_4
Note_On_64_Vel_0
Time_Shift_6
Note_On_48_Vel_0
Time_Shift_12
Note_On_60_Vel_0
Time_Shift_16
Note_On_55_Vel_0
Time_Shift_2
Sustain_Off
Time_Shift_186
Note_On_78_Vel_65
Time_Shift_34
Note_On_40_Vel_0
Time_Shift_8
Note_On_76_Vel_0
Time_Shift_15
Sustain_On
Time_Shift_131
Note_On_80_Vel_67
Time_Shift_7
Note_On_62_Vel_49
Time_Shift_4
Note_On_52_Vel_44
Time_Shift_1
Note_On_59_Vel_47
Time_Shift_176
Note_On_81_Vel_67
Time_Shift_173
Note_On_62_Vel_0
Time_Shift_6
Note_On_62_Vel_47
Time_Shift_1
Note_On_52_Vel_0
Note_On_59_Vel_0
Time_Shift_1
Note_On_83_Vel_72
Time_Shift_3
Note_On_56_Vel_42
Time_Shift_1
Note_On_52_Vel_39
Time_Shift_1
Note_On_59_Vel_40
Time_Shift_167
Note_On_84_Vel_73
Time_Shift_96
Note_On_83_Vel_0
Time_Shift_10
Note_On_83_Vel_62
Time_Shift_52
Note_On_84_Vel_0
Time_Shift_4
Note_On_84_Vel_59
Time_Shift_42
Note_On_83_Vel_0
Time_Shift_2
Note_On_45_Vel_39
Time_Shift_2
Note_On_83_Vel_70
Time_Shift_4
Sustain_Off
Time_Shift_3
Note_On_59_Vel_0
Note_On_62_Vel_0
Note_On_84_Vel_0
Time_Shift_1
Note_On_80_Vel_0
Note_On_56_Vel_0
Note_On_81_Vel_0
Time_Shift_3
Note_On_78_Vel_0
Time_Shift_16
Note_On_52_Vel_0
Time_Shift_164
Note_On_81_Vel_67
Time_Shift_20
Sustain_On
Time_Shift_146
Note_On_52_Vel_38
Time_Shift_4
Note_On_60_Vel_44
Note_On_57_Vel_36
Time_Shift_6
Note_On_76_Vel_62
Time_Shift_97
Note_On_83_Vel_0
Time_Shift_87
Note_On_83_Vel_67
Time_Shift_159
Note_On_52_Vel_0
Time_Shift_7
Note_On_52_Vel_34
Time_Shift_8
Note_On_57_Vel_0
Note_On_60_Vel_0
Note_On_81_Vel_0
Time_Shift_5
Note_On_57_Vel_34
Time_Shift_6
Note_On_60_Vel_36
Note_On_81_Vel_59
Time_Shift_266
Note_On_81_Vel_0
Time_Shift_9
Note_On_81_Vel_59
Time_Shift_37
Note_On_83_Vel_0
Time_Shift_10
Note_On_83_Vel_61
Time_Shift_36
Note_On_81_Vel_0
Time_Shift_3
Sustain_Off
Time_Shift_8
Note_On_81_Vel_67
Time_Shift_2
Note_On_40_Vel_38
Time_Shift_1
Note_On_60_Vel_0
Time_Shift_1
Note_On_57_Vel_0
Time_Shift_2
Note_On_45_Vel_0
Note_On_83_Vel_0
Time_Shift_1
Note_On_76_Vel_0
Time_Shift_28
Note_On_52_Vel_0
Time_Shift_147
Note_On_80_Vel_65
Time_Shift_84
Sustain_On
Time_Shift_91
Note_On_59_Vel_45
Note_On_76_Vel_63
Time_Shift_1
Note_On_62_Vel_46
Note_On_52_Vel_40
Time_Shift_183
Note_On_77_Vel_63
Time_Shift_170
Note_On_59_Vel_0
Note_On_76_Vel_0
Time_Shift_8
Note_On_52_Vel_0
Note_On_62_Vel_0
Time_Shift_3
Note_On_76_Vel_62
Note_On_59_Vel_40
Time_Shift_1
Note_On_62_Vel_42
Time_Shift_1
Note_On_52_Vel_36
Time_Shift_2
Note_On_81_Vel_0
Time_Shift_254
Note_On_76_Vel_0
Time_Shift_8
Note_On_76_Vel_56
Time_Shift_38
Note_On_77_Vel_0
Time_Shift_10
Note_On_77_Vel_55
Time_Shift_44
Note_On_76_Vel_0
Time_Shift_3
Sustain_Off
Note_On_76_Vel_64
Time_Shift_5
Note_On_45_Vel_37
Time_Shift_1
Note_On_62_Vel_0
Note_On_59_Vel_0
Time_Shift_1
Note_On_77_Vel_0
Note_On_80_Vel_0
Time_Shift_1
Note_On_40_Vel_0
Note_On_52_Vel_0
Time_Shift_165
Sustain_On
Time_Shift_4
Note_On_72_Vel_65
Time_Shift_178
Note_On_52_Vel_41
Time_Shift_5
Note_On_57_Vel_43
Time_Shift_2
Note_On_69_Vel_62
Time_Shift_3
Note_On_60_Vel_41
Time_Shift_180
Note_On_71_Vel_62
Time_Shift_181
Note_On_52_Vel_0
Note_On_57_Vel_0
Note_On_60_Vel_0
Note_On_69_Vel_0
Time_Shift_6
Note_On_57_Vel_35
Note_On_52_Vel_36
Time_Shift_1
Note_On_69_Vel_54
Time_Shift_4
Note_On_72_Vel_0
Note_On_60_Vel_33
Time_Shift_377
Note_On_64_Vel_54
Note_On_40_Vel_42
Time_Shift_6
Sustain_Off
Time_Shift_2
Note_On_76_Vel_0
Note_On_71_Vel_0
Note_On_57_Vel_0
Note_On_69_Vel_0
Note_On_52_Vel_0
Time_Shift_1
Note_On_60_Vel_0
Note_On_45_Vel_0
Time_Shift_137
Note_On_68_Vel_58
Time_Shift_10
Note_On_64_Vel_0
Time_Shift_101
Sustain_On
Time_Shift_29
Note_On_71_Vel_61
Time_Shift_112
Note_On_76_Vel_61
Time_Shift_1
Note_On_62_Vel_46
Time_Shift_8
Note_On_52_Vel_40
Time_Shift_1
Note_On_59_Vel_39
Time_Shift_65
Note_On_80_Vel_62
Time_Shift_92
Note_On_83_Vel_67
Time_Shift_73
Note_On_88_Vel_65
Time_Shift_62
Note_On_92_Vel_74
Time_Shift_64
Note_On_52_Vel_0
Note_On_62_Vel_0
Time_Shift_5
Note_On_62_Vel_37
Note_On_52_Vel_38
Time_Shift_13
Note_On_56_Vel_40
Time_Shift_4
Note_On_64_Vel_31
Time_Shift_5
Note_On_95_Vel_79
Time_Shift_220
Note_On_96_Vel_68
Time_Shift_68
Note_On_95_Vel_0
Time_Shift_9
Note_On_95_Vel_67
Time_Shift_53
Note_On_96_Vel_0
Time_Shift_4
Note_On_96_Vel_67
Time_Shift_42
Note_On_95_Vel_0
Time_Shift_9
Note_On_95_Vel_75
Time_Shift_3
Note_On_45_Vel_42
Time_Shift_1
Note_On_59_Vel_0
Time_Shift_3
Note_On_62_Vel_0
Time_Shift_1
Note_On_83_Vel_0
Note_On_80_Vel_0
Note_On_76_Vel_0
Note_On_68_Vel_0
Note_On_64_Vel_0
Note_On_92_Vel_0
Note_On_52_Vel_0
Time_Shift_1
Note_On_40_Vel_0
Note_On_56_Vel_0
Note_On_88_Vel_0
Time_Shift_1
Sustain_Off
Time_Shift_11
Note_On_71_Vel_0
Time_Shift_123
Sustain_On
Time_Shift_21
Note_On_93_Vel_75
Time_Shift_94
Note_On_96_Vel_0
Time_Shift_96
Note_On_57_Vel_40
Note_On_88_Vel_60
Note_On_60_Vel_41
Time_Shift_2
Sustain_Off
Time_Shift_7
Note_On_52_Vel_36
Time_Shift_11
Note_On_95_Vel_0
Time_Shift_23
Sustain_On
Time_Shift_141
Note_On_95_Vel_77
Time_Shift_174
Note_On_60_Vel_0
Time_Shift_7
Note_On_52_Vel_0
Time_Shift_2
Sustain_Off
Time_Shift_1
Note_On_60_Vel_37
Time_Shift_5
Note_On_93_Vel_0
Note_On_52_Vel_36
Time_Shift_4
Note_On_93_Vel_68
Time_Shift_2
Note_On_45_Vel_0
Time_Shift_2
Note_On_57_Vel_0
Time_Shift_4
Note_On_57_Vel_30
Time_Shift_5
Note_On_81_Vel_45
Time_Shift_14
Sustain_On
Time_Shift_245
Note_On_93_Vel_0
Time_Shift_10
Note_On_84_Vel_52
Time_Shift_1
Note_On_93_Vel_68
Time_Shift_35
Note_On_95_Vel_0
Time_Shift_12
Note_On_95_Vel_71
Time_Shift_39
Note_On_40_Vel_37
Time_Shift_2
Sustain_Off
Time_Shift_1
Note_On_93_Vel_0
Time_Shift_5
Note_On_93_Vel_72
Time_Shift_3
Note_On_60_Vel_0
Time_Shift_6
Note_On_57_Vel_0
Time_Shift_2
Note_On_84_Vel_0
Note_On_88_Vel_0
Note_On_81_Vel_0
Time_Shift_1
Note_On_52_Vel_0
Time_Shift_98
Sustain_On
Time_Shift_79
Note_On_92_Vel_74
Time_Shift_173
Note_On_88_Vel_63
Time_Shift_5
Note_On_59_Vel_43
Time_Shift_1
Note_On_64_Vel_36
Time_Shift_1
Note_On_62_Vel_44
Time_Shift_3
Note_On_52_Vel_38
Time_Shift_7
Note_On_64_Vel_0
Time_Shift_192
Note_On_92_Vel_0
Time_Shift_4
Note_On_100_Vel_69
Time_Shift_2
Note_On_92_Vel_55
Time_Shift_202
Note_On_62_Vel_0
Time_Shift_6
Note_On_62_Vel_41
Time_Shift_1
Note_On_59_Vel_0
Time_Shift_8
Note_On_52_Vel_0
Note_On_100_Vel_0
Time_Shift_3
Note_On_59_Vel_38
Time_Shift_2
Note_On_52_Vel_37
Time_Shift_2
Note_On_100_Vel_62
Time_Shift_4
Note_On_83_Vel_51
Time_Shift_50
Note_On_93_Vel_0
Time_Shift_16
Note_On_83_Vel_0
Time_Shift_15
Note_On_95_Vel_0
Time_Shift_383
Note_On_45_Vel_41
Time_Shift_1
Note_On_92_Vel_0
Time_Shift_14
Note_On_93_Vel_66
Time_Shift_9
Note_On_40_Vel_0
Time_Shift_6
Sustain_Off
Time_Shift_5
Note_On_62_Vel_0
Note_On_100_Vel_0
Time_Shift_1
Note_On_88_Vel_0
Note_On_52_Vel_0
Time_Shift_3
Note_On_59_Vel_0
Time_Shift_192
Sustain_On
Time_Shift_186
Note_On_57_Vel_38
Time_Shift_2
Note_On_81_Vel_38
Time_Shift_1
Note_On_52_Vel_35
Time_Shift_1
Note_On_60_Vel_37
Time_Shift_6
Note_On_72_Vel_38
Time_Shift_36
Sustain_Off
Time_Shift_30
Sustain_On
Time_Shift_345
Note_On_57_Vel_0
Note_On_81_Vel_0
Time_Shift_5
Note_On_81_Vel_35
Time_Shift_2
Note_On_57_Vel_35
Time_Shift_1
Note_On_52_Vel_0
Time_Shift_8
Note_On_60_Vel_0
Time_Shift_1
Note_On_52_Vel_33
Time_Shift_6
Note_On_60_Vel_36
Time_Shift_547
Note_On_40_Vel_39
Time_Shift_6
Note_On_76_Vel_58
Time_Shift_13
Note_On_57_Vel_0
Note_On_60_Vel_0
Time_Shift_2
Note_On_52_Vel_0
Note_On_72_Vel_0
Time_Shift_2
Note_On_81_Vel_0
Time_Shift_1
Note_On_45_Vel_0
Time_Shift_2
Sustain_Off
Time_Shift_3
Note_On_93_Vel_0
Time_Shift_203
Note_On_78_Vel_63
Time_Shift_5
Sustain_On
Time_Shift_30
Note_On_40_Vel_0
Time_Shift_139
Note_On_76_Vel_0
Time_Shift_11
Note_On_80_Vel_64
Time_Shift_9
Note_On_52_Vel_38
Time_Shift_1
Note_On_59_Vel_45
Note_On_62_Vel_46
Time_Shift_180
Note_On_81_Vel_67
Time_Shift_175
Note_On_52_Vel_0
Note_On_62_Vel_0
Time_Shift_5
Note_On_83_Vel_70
Note_On_62_Vel_43
Time_Shift_4
Note_On_56_Vel_40
Time_Shift_2
Note_On_52_Vel_34
Time_Shift_168
Note_On_84_Vel_71
Time_Shift_97
Note_On_83_Vel_0
Time_Shift_6
Note_On_83_Vel_61
Time_Shift_56
Note_On_84_Vel_0
Time_Shift_4
Note_On_84_Vel_59
Time_Shift_34
Note_On_83_Vel_0
Time_Shift_10
Note_On_45_Vel_38
Time_Shift_1
Note_On_83_Vel_71
Time_Shift_5
Sustain_Off
Time_Shift_4
Note_On_62_Vel_0
Note_On_78_Vel_0
Time_Shift_1
Note_On_80_Vel_0
Note_On_52_Vel_0
Note_On_56_Vel_0
Time_Shift_1
Note_On_81_Vel_0
Time_Shift_9
Note_On_59_Vel_0
Time_Shift_46
Note_On_84_Vel_0
Time_Shift_123
Sustain_On
Time_Shift_2
Note_On_81_Vel_65
Time_Shift_164
Note_On_52_Vel_37
Time_Shift_2
Note_On_60_Vel_43
Time_Shift_2
Note_On_57_Vel_40
Time_Shift_8
Note_On_76_Vel_60
Time_Shift_22
Note_On_83_Vel_0
Time_Shift_159
Note_On_83_Vel_67
Time_Shift_163
Note_On_52_Vel_0
Time_Shift_8
Note_On_57_Vel_0
Time_Shift_1
Note_On_52_Vel_36
Time_Shift_6
Note_On_60_Vel_0
Note_On_81_Vel_0
Time_Shift_3
Note_On_57_Vel_33
Time_Shift_2
Note_On_60_Vel_37
Time_Shift_1
Note_On_81_Vel_60
Time_Shift_271
Note_On_81_Vel_0
Time_Shift_7
Note_On_81_Vel_58
Time_Shift_39
Note_On_83_Vel_0
Time_Shift_7
Note_On_83_Vel_60
Time_Shift_39
Note_On_81_Vel_0
Time_Shift_6
Sustain_Off
Time_Shift_5
Note_On_81_Vel_64
Time_Shift_1
Note_On_60_Vel_0
Note_On_57_Vel_0
Time_Shift_1
Note_On_40_Vel_38
Note_On_76_Vel_0
Note_On_83_Vel_0
Time_Shift_1
Note_On_52_Vel_0
Note_On_45_Vel_0
Time_Shift_177
Note_On_80_Vel_65
Time_Shift_40
Sustain_On
Time_Shift_134
Note_On_76_Vel_62
Time_Shift_1
Note_On_59_Vel_43
Note_On_62_Vel_44
Time_Shift_2
Note_On_52_Vel_38
Time_Shift_181
Note_On_77_Vel_63
Time_Shift_173
Note_On_52_Vel_0
Note_On_59_Vel_0
Note_On_62_Vel_0
Note_On_76_Vel_0
Time_Shift_5
Note_On_76_Vel_60
Time_Shift_3
Note_On_59_Vel_36
Note_On_52_Vel_37
Time_Shift_2
Note_On_62_Vel_41
Time_Shift_75
Note_On_81_Vel_0
Time_Shift_184
Note_On_76_Vel_0
Time_Shift_9
Note_On_76_Vel_55
Time_Shift_37
Note_On_77_Vel_0
Time_Shift_9
Note_On_77_Vel_55
Time_Shift_37
Note_On_76_Vel_0
Time_Shift_10
Note_On_76_Vel_61
Time_Shift_3
Note_On_45_Vel_36
Time_Shift_1
Sustain_Off
Time_Shift_6
Note_On_77_Vel_0
Note_On_80_Vel_0
Note_On_62_Vel_0
Note_On_59_Vel_0
Time_Shift_3
Note_On_40_Vel_0
Time_Shift_23
Note_On_52_Vel_0
Time_Shift_138
Sustain_On
Time_Shift_1
Note_On_72_Vel_62
Time_Shift_179
Note_On_52_Vel_38
Time_Shift_2
Note_On_57_Vel_42
Time_Shift_6
Note_On_69_Vel_62
Time_Shift_2
Note_On_60_Vel_42
Time_Shift_181
Note_On_71_Vel_60
Time_Shift_175
Note_On_57_Vel_0
Time_Shift_7
Note_On_52_Vel_0
Note_On_60_Vel_0
Note_On_69_Vel_0
Time_Shift_4
Note_On_57_Vel_41
Time_Shift_1
Note_On_69_Vel_55
Time_Shift_4
Note_On_60_Vel_36
Note_On_52_Vel_36
Time_Shift_378
Note_On_64_Vel_52
Note_On_40_Vel_39
Time_Shift_9
Sustain_Off
Time_Shift_1
Note_On_71_Vel_0
Note_On_76_Vel_0
Note_On_57_Vel_0
Note_On_52_Vel_0
Note_On_45_Vel_0
Note_On_60_Vel_0
Time_Shift_1
Note_On_69_Vel_0
Time_Shift_1
Note_On_72_Vel_0
Time_Shift_134
Note_On_68_Vel_59
Time_Shift_18
Note_On_64_Vel_0
Time_Shift_123
Note_On_71_Vel_60
Time_Shift_2
Sustain_On
Time_Shift_110
Note_On_76_Vel_60
Time_Shift_1
Note_On_62_Vel_47
Time_Shift_6
Note_On_52_Vel_39
Time_Shift_2
Note_On_59_Vel_43
Time_Shift_63
Note_On_80_Vel_62
Time_Shift_93
Note_On_83_Vel_67
Time_Shift_74
Note_On_88_Vel_64
Time_Shift_62
Note_On_92_Vel_74
Time_Shift_73
Note_On_52_Vel_0
Note_On_62_Vel_0
Time_Shift_4
Note_On_62_Vel_41
Time_Shift_7
Note_On_56_Vel_41
Note_On_52_Vel_38
Time_Shift_7
Note_On_64_Vel_32
Time_Shift_1
Note_On_95_Vel_80
Time_Shift_217
Note_On_96_Vel_68
Time_Shift_7
Note_On_84_Vel_44
Time_Shift_64
Note_On_95_Vel_0
Time_Shift_6
Note_On_95_Vel_67
Time_Shift_48
Note_On_96_Vel_0
Time_Shift_11
Note_On_96_Vel_67
Time_Shift_43
Note_On_95_Vel_0
Time_Shift_6
Note_On_95_Vel_76
Time_Shift_6
Note_On_45_Vel_45
Time_Shift_3
Sustain_Off
Time_Shift_3
Note_On_59_Vel_0
Time_Shift_1
Note_On_62_Vel_0
Note_On_80_Vel_0
Note_On_83_Vel_0
Note_On_68_Vel_0
Note_On_84_Vel_0
Note_On_64_Vel_0
Time_Shift_1
Note_On_40_Vel_0
Note_On_56_Vel_0
Note_On_52_Vel_0
Note_On_76_Vel_0
Note_On_92_Vel_0
Note_On_88_Vel_0
Time_Shift_10
Note_On_71_Vel_0
Time_Shift_143
Note_On_93_Vel_78
Time_Shift_189
Note_On_57_Vel_43
Time_Shift_1
Note_On_88_Vel_64
Time_Shift_2
Note_On_60_Vel_46
Note_On_81_Vel_54
Time_Shift_1
Note_On_64_Vel_35
Time_Shift_6
Note_On_52_Vel_41
Time_Shift_4
Note_On_81_Vel_0
Note_On_95_Vel_0
Time_Shift_38
Sustain_On
Time_Shift_132
Note_On_95_Vel_78
Time_Shift_5
Note_On_83_Vel_54
Time_Shift_178
Note_On_52_Vel_0
Note_On_60_Vel_0
Note_On_93_Vel_0
Time_Shift_5
Note_On_60_Vel_42
Note_On_52_Vel_42
Time_Shift_1
Sustain_Off
Time_Shift_2
Note_On_57_Vel_0
Time_Shift_3
Note_On_93_Vel_70
Note_On_45_Vel_0
Time_Shift_6
Note_On_57_Vel_34
Time_Shift_3
Note_On_81_Vel_46
Time_Shift_19
Note_On_96_Vel_0
Time_Shift_7
Note_On_83_Vel_0
Sustain_On
Time_Shift_238
Note_On_93_Vel_0
Time_Shift_7
Note_On_93_Vel_69
Note_On_84_Vel_51
Time_Shift_40
Note_On_95_Vel_0
Time_Shift_10
Note_On_95_Vel_74
Time_Shift_36
Note_On_60_Vel_0
Note_On_64_Vel_0
Note_On_81_Vel_0
Note_On_93_Vel_0
Time_Shift_1
Sustain_Off
Time_Shift_2
Note_On_40_Vel_39
Time_Shift_1
Note_On_84_Vel_0
Note_On_57_Vel_0
Note_On_88_Vel_0
Time_Shift_1
Note_On_52_Vel_0
Time_Shift_5
Note_On_93_Vel_73
Time_Shift_120
Sustain_On
Time_Shift_71
Note_On_92_Vel_74
Time_Shift_171
Note_On_88_Vel_67
Time_Shift_6
Note_On_62_Vel_48
Time_Shift_3
Note_On_59_Vel_45
Note_On_64_Vel_40
Time_Shift_5
Note_On_71_Vel_46
Time_Shift_1
Note_On_52_Vel_39
Time_Shift_198
Note_On_100_Vel_71
Time_Shift_198
Note_On_62_Vel_0
Time_Shift_10
Note_On_62_Vel_41
Time_Shift_5
Note_On_40_Vel_0
Note_On_100_Vel_0
Time_Shift_8
Note_On_52_Vel_0
Note_On_59_Vel_0
Note_On_40_Vel_35
Time_Shift_2
Note_On_100_Vel_64
Time_Shift_2
Note_On_59_Vel_37
Time_Shift_1
Note_On_52_Vel_35
Time_Shift_3
Note_On_88_Vel_0
Time_Shift_4
Note_On_88_Vel_43
Time_Shift_463
Note_On_45_Vel_43
Time_Shift_1
Note_On_93_Vel_0
Time_Shift_11
Note_On_93_Vel_66
Time_Shift_11
Sustain_Off
Time_Shift_1
Note_On_92_Vel_0
Time_Shift_3
Note_On_59_Vel_0
Time_Shift_1
Note_On_62_Vel_0
Note_On_100_Vel_0
Note_On_88_Vel_0
Time_Shift_1
Note_On_52_Vel_0
Note_On_64_Vel_0
Time_Shift_2
Note_On_40_Vel_0
Time_Shift_1
Note_On_71_Vel_0
Note_On_95_Vel_0
Time_Shift_54
Sustain_On
Time_Shift_322
Note_On_45_Vel_0
Time_Shift_5
Note_On_57_Vel_38
Time_Shift_3
Note_On_45_Vel_38
Time_Shift_3
Note_On_52_Vel_37
Note_On_69_Vel_40
Time_Shift_1
Note_On_60_Vel_40
Time_Shift_2
Note_On_64_Vel_35
Time_Shift_2
Note_On_69_Vel_0
Time_Shift_26
Sustain_Off
Time_Shift_35
Sustain_On
Time_Shift_353
Note_On_57_Vel_0
Time_Shift_4
Note_On_57_Vel_38
Time_Shift_4
Note_On_45_Vel_0
Note_On_52_Vel_0
Time_Shift_6
Note_On_52_Vel_34
Time_Shift_2
Note_On_60_Vel_0
Time_Shift_1
Note_On_45_Vel_34
Time_Shift_4
Note_On_60_Vel_35
Time_Shift_519
Note_On_69_Vel_60
Time_Shift_21
Note_On_45_Vel_0
Time_Shift_3
Note_On_33_Vel_37
Time_Shift_2
Note_On_45_Vel_30
Time_Shift_8
Note_On_60_Vel_0
Note_On_52_Vel_0
Time_Shift_10
Note_On_64_Vel_0
Note_On_93_Vel_0
Time_Shift_2
Sustain_Off
Time_Shift_6
Note_On_57_Vel_0
Time_Shift_184
Note_On_71_Vel_61
Time_Shift_19
Note_On_69_Vel_0
Time_Shift_12
Note_On_33_Vel_0
Time_Shift_188
Note_On_57_Vel_41
Time_Shift_1
Note_On_64_Vel_43
Time_Shift_4
Note_On_60_Vel_47
Time_Shift_1
Note_On_72_Vel_66
Time_Shift_90
Sustain_On
Time_Shift_299
Note_On_57_Vel_0
Note_On_60_Vel_0
Note_On_72_Vel_0
Time_Shift_7
Note_On_57_Vel_40
Time_Shift_1
Note_On_60_Vel_43
Note_On_64_Vel_0
Time_Shift_2
Note_On_72_Vel_65
Time_Shift_2
Note_On_64_Vel_38
Time_Shift_25
Sustain_Off
Time_Shift_40
Note_On_71_Vel_0
Time_Shift_31
Sustain_On
Time_Shift_331
Note_On_38_Vel_47
Time_Shift_3
Note_On_74_Vel_66
Time_Shift_1
Sustain_Off
Time_Shift_5
Note_On_72_Vel_0
Time_Shift_1
Note_On_64_Vel_0
Note_On_45_Vel_0
Time_Shift_12
Note_On_60_Vel_0
Time_Shift_8
Note_On_57_Vel_0
Time_Shift_159
Note_On_76_Vel_68
Time_Shift_14
Note_On_74_Vel_0
Time_Shift_34
Sustain_On
Time_Shift_160
Note_On_77_Vel_68
Time_Shift_3
Note_On_62_Vel_41
Time_Shift_1
Note_On_57_Vel_37
Time_Shift_1
Note_On_65_Vel_40
Time_Shift_28
Note_On_76_Vel_0
Time_Shift_7
Sustain_Off
Time_Shift_84
Sustain_On
Time_Shift_285
Note_On_57_Vel_0
Time_Shift_7
Note_On_62_Vel_0
Note_On_65_Vel_0
Time_Shift_4
Note_On_57_Vel_38
Time_Shift_4
Note_On_62_Vel_37
Time_Shift_1
Note_On_65_Vel_34
Time_Shift_18
Sustain_Off
Time_Shift_50
Sustain_On
Time_Shift_395
Note_On_43_Vel_46
Time_Shift_3
Note_On_71_Vel_62
Time_Shift_13
Note_On_62_Vel_0
Time_Shift_2
Note_On_77_Vel_0
Time_Shift_1
Sustain_Off
Time_Shift_1
Note_On_38_Vel_0
Time_Shift_7
Note_On_57_Vel_0
Time_Shift_8
Note_On_65_Vel_0
Time_Shift_163
Note_On_72_Vel_66
Time_Shift_10
Note_On_71_Vel_0
Time_Shift_65
Sustain_On
Time_Shift_127
Note_On_59_Vel_47
Time_Shift_4
Note_On_74_Vel_68
Time_Shift_3
Note_On_55_Vel_44
Time_Shift_6
Sustain_Off
Time_Shift_2
Note_On_65_Vel_40
Time_Shift_35
Note_On_72_Vel_0
Sustain_On
Time_Shift_149
Note_On_81_Vel_74
Time_Shift_196
Note_On_59_Vel_0
Time_Shift_6
Note_On_59_Vel_46
Time_Shift_2
Note_On_79_Vel_66
Note_On_55_Vel_0
Note_On_65_Vel_0
Time_Shift_4
Note_On_55_Vel_40
Time_Shift_6
Sustain_Off
Time_Shift_1
Note_On_65_Vel_37
Note_On_74_Vel_0
Time_Shift_43
Sustain_On
Time_Shift_134
Note_On_77_Vel_68
Time_Shift_102
Note_On_76_Vel_67
Time_Shift_40
Note_On_77_Vel_0
Time_Shift_11
Note_On_77_Vel_64
Time_Shift_35
Note_On_76_Vel_0
Time_Shift_7
Note_On_48_Vel_44
Time_Shift_4
Sustain_Off
Time_Shift_1
Note_On_76_Vel_62
Time_Shift_1
Note_On_43_Vel_0
Time_Shift_1
Note_On_55_Vel_0
Note_On_65_Vel_0
Time_Shift_1
Note_On_81_Vel_0
Time_Shift_1
Note_On_79_Vel_0
Time_Shift_1
Note_On_77_Vel_0
Time_Shift_14
Note_On_59_Vel_0
Time_Shift_154
Sustain_On
Time_Shift_27
Note_On_75_Vel_62
Time_Shift_188
Note_On_76_Vel_0
Time_Shift_3
Note_On_64_Vel_46
Time_Shift_6
Note_On_76_Vel_61
Time_Shift_1
Note_On_60_Vel_43
Note_On_55_Vel_45
Time_Shift_397
Note_On_64_Vel_0
Time_Shift_7
Note_On_60_Vel_0
Time_Shift_2
Note_On_64_Vel_39
Time_Shift_5
Note_On_60_Vel_37
Time_Shift_1
Note_On_55_Vel_0
Time_Shift_6
Note_On_55_Vel_33
Time_Shift_429
Note_On_45_Vel_43
Time_Shift_1
Note_On_72_Vel_63
Time_Shift_25
Note_On_48_Vel_0
Time_Shift_4
Note_On_60_Vel_0
Time_Shift_1
Note_On_76_Vel_0
Note_On_64_Vel_0
Time_Shift_1
Sustain_Off
Note_On_55_Vel_0
Time_Shift_9
Note_On_75_Vel_0
Time_Shift_167
Note_On_74_Vel_65
Time_Shift_9
Note_On_72_Vel_0
Time_Shift_116
Sustain_On
Time_Shift_74
Note_On_76_Vel_66
Time_Shift_12
Note_On_64_Vel_41
Time_Shift_3
Note_On_60_Vel_40
Time_Shift_3
Note_On_57_Vel_35
Time_Shift_308
Note_On_74_Vel_0
Time_Shift_69
Note_On_57_Vel_0
Note_On_60_Vel_0
Note_On_76_Vel_0
Time_Shift_7
Note_On_64_Vel_0
Time_Shift_2
Note_On_57_Vel_31
Time_Shift_1
Note_On_76_Vel_65
Time_Shift_1
Note_On_60_Vel_36
Time_Shift_1
Note_On_64_Vel_34
Time_Shift_9
Sustain_Off
Time_Shift_55
Sustain_On
Time_Shift_77
Note_On_45_Vel_0
Time_Shift_235
Note_On_77_Vel_65
Time_Shift_15
Sustain_Off
Note_On_64_Vel_0
Time_Shift_6
Note_On_38_Vel_40
Time_Shift_13
Note_On_57_Vel_0
Note_On_60_Vel_0
Time_Shift_15
Note_On_76_Vel_0
Time_Shift_39
Sustain_On
Time_Shift_108
Note_On_79_Vel_65
Time_Shift_27
Note_On_77_Vel_0
Time_Shift_12
Sustain_Off
Time_Shift_37
Sustain_On
Time_Shift_115
Note_On_38_Vel_0
Time_Shift_1
Note_On_62_Vel_45
Time_Shift_2
Note_On_65_Vel_38
Time_Shift_1
Note_On_81_Vel_67
Time_Shift_1
Note_On_57_Vel_37
Time_Shift_16
Sustain_Off
Time_Shift_79
Sustain_On
Time_Shift_307
Note_On_62_Vel_0
Note_On_65_Vel_0
Time_Shift_9
Note_On_62_Vel_43
Time_Shift_2
Note_On_65_Vel_33
Time_Shift_5
Note_On_57_Vel_0
Time_Shift_9
Note_On_57_Vel_33
Time_Shift_5
Sustain_Off
Time_Shift_39
Sustain_On
Time_Shift_373
Note_On_35_Vel_45
Time_Shift_3
Note_On_75_Vel_62
Time_Shift_9
Sustain_Off
Note_On_57_Vel_0
Time_Shift_3
Note_On_81_Vel_0
Time_Shift_4
Note_On_62_Vel_0
Note_On_79_Vel_0
Time_Shift_8
Note_On_65_Vel_0
Time_Shift_193
Note_On_76_Vel_65
Time_Shift_7
Sustain_On
Time_Shift_172
Note_On_57_Vel_42
Time_Shift_10
Note_On_63_Vel_47
Time_Shift_13
Note_On_59_Vel_44
Time_Shift_4
Note_On_78_Vel_67
Time_Shift_415
Note_On_59_Vel_0
Time_Shift_5
Note_On_59_Vel_41
Time_Shift_3
Note_On_57_Vel_0
Note_On_63_Vel_0
Note_On_78_Vel_0
Time_Shift_4
Note_On_57_Vel_37
Note_On_78_Vel_67
Time_Shift_2
Note_On_63_Vel_40
Time_Shift_20
Note_On_69_Vel_36
Time_Shift_4
Note_On_69_Vel_0
Time_Shift_437
Note_On_80_Vel_68
Time_Shift_7
Note_On_40_Vel_42
Time_Shift_7
Sustain_Off
Time_Shift_10
Note_On_75_Vel_0
Time_Shift_2
Note_On_76_Vel_0
Time_Shift_1
Note_On_78_Vel_0
Time_Shift_12
Note_On_57_Vel_0
Note_On_63_Vel_0
Time_Shift_8
Note_On_35_Vel_0
Note_On_59_Vel_0
Time_Shift_131
Sustain_On
Time_Shift_100
Note_On_81_Vel_70
Time_Shift_280
Note_On_62_Vel_47
Note_On_83_Vel_73
Time_Shift_21
Note_On_52_Vel_40
Time_Shift_4
Note_On_59_Vel_40
Time_Shift_2
Note_On_71_Vel_40
Time_Shift_1014
Note_On_40_Vel_0
Note_On_83_Vel_0
Time_Shift_5
Note_On_83_Vel_70
Time_Shift_6
Note_On_40_Vel_37
Time_Shift_15
Note_On_59_Vel_0
Time_Shift_1
Note_On_52_Vel_0
Note_On_81_Vel_0
Note_On_62_Vel_0
Time_Shift_1
Note_On_80_Vel_0
Time_Shift_2
Note_On_71_Vel_0
Time_Shift_4
Sustain_Off
Time_Shift_88
Sustain_On
Time_Shift_85
Note_On_85_Vel_73
Time_Shift_209
Note_On_86_Vel_77
Time_Shift_3
Note_On_56_Vel_44
Time_Shift_3
Note_On_52_Vel_41
Time_Shift_5
Note_On_62_Vel_47
Time_Shift_186
Note_On_90_Vel_75
Time_Shift_32
Note_On_83_Vel_0
Time_Shift_138
Note_On_52_Vel_0
Time_Shift_8
Note_On_62_Vel_0
Time_Shift_3
Note_On_52_Vel_40
Time_Shift_4
Note_On_56_Vel_0
Note_On_85_Vel_0
Time_Shift_1
Note_On_62_Vel_43
Time_Shift_3
Note_On_88_Vel_75
Note_On_56_Vel_43
Time_Shift_158
Note_On_86_Vel_0
Time_Shift_9
Note_On_86_Vel_79
Time_Shift_199
Note_On_45_Vel_42
Time_Shift_4
Note_On_85_Vel_69
Time_Shift_14
Sustain_Off
Time_Shift_5
Note_On_90_Vel_0
Time_Shift_1
Note_On_88_Vel_0
Note_On_62_Vel_0
Time_Shift_1
Note_On_56_Vel_0
Note_On_52_Vel_0
Time_Shift_4
Note_On_40_Vel_0
Time_Shift_24
Note_On_86_Vel_0
Time_Shift_9
Note_On_86_Vel_67
Time_Shift_44
Note_On_85_Vel_0
Time_Shift_5
Note_On_81_Vel_52
Time_Shift_1
Note_On_85_Vel_65
Time_Shift_40
Sustain_On
Time_Shift_26
Note_On_83_Vel_75
Time_Shift_21
Sustain_Off
Time_Shift_159
Note_On_61_Vel_43
Time_Shift_2
Note_On_81_Vel_0
Note_On_85_Vel_0
Time_Shift_3
Note_On_52_Vel_41
Time_Shift_2
Note_On_57_Vel_41
Note_On_85_Vel_74
Time_Shift_3
Sustain_On
Time_Shift_3
Note_On_81_Vel_59
Time_Shift_5
Note_On_86_Vel_0
Time_Shift_160
Note_On_45_Vel_0
Time_Shift_13
Note_On_80_Vel_69
Time_Shift_172
Note_On_57_Vel_0
Note_On_61_Vel_0
Note_On_81_Vel_0
Time_Shift_6
Note_On_57_Vel_36
Note_On_81_Vel_68
Sustain_Off
Time_Shift_1
Note_On_52_Vel_0
Time_Shift_4
Note_On_61_Vel_40
Note_On_52_Vel_37
Time_Shift_27
Sustain_On
Time_Shift_161
Note_On_78_Vel_72
Time_Shift_97
Note_On_76_Vel_58
Time_Shift_34
Note_On_78_Vel_0
Time_Shift_11
Note_On_78_Vel_56
Time_Shift_12
Note_On_83_Vel_0
Time_Shift_27
Sustain_Off
Time_Shift_3
Note_On_40_Vel_46
Time_Shift_1
Note_On_76_Vel_0
Time_Shift_2
Note_On_80_Vel_0
Time_Shift_1
Note_On_52_Vel_0
Note_On_78_Vel_0
Note_On_57_Vel_0
Note_On_81_Vel_0
Time_Shift_2
Note_On_76_Vel_65
Time_Shift_2
Note_On_85_Vel_0
Time_Shift_16
Note_On_61_Vel_0
Time_Shift_159
Note_On_74_Vel_66
Time_Shift_10
Sustain_On
Time_Shift_169
Note_On_59_Vel_50
Time_Shift_1
Note_On_68_Vel_67
Time_Shift_1
Note_On_52_Vel_38
Time_Shift_1
Note_On_62_Vel_45
Time_Shift_185
Note_On_78_Vel_67
Time_Shift_165
Note_On_52_Vel_0
Note_On_59_Vel_0
Note_On_62_Vel_0
Note_On_76_Vel_0
Time_Shift_7
Note_On_76_Vel_63
Time_Shift_1
Note_On_62_Vel_41
Time_Shift_1
Note_On_52_Vel_37
Time_Shift_2
Note_On_59_Vel_38
Time_Shift_258
Note_On_76_Vel_0
Time_Shift_11
Note_On_76_Vel_58
Time_Shift_35
Note_On_78_Vel_0
Time_Shift_11
Note_On_78_Vel_58
Time_Shift_35
Note_On_76_Vel_0
Time_Shift_3
Note_On_45_Vel_43
Time_Shift_6
Note_On_76_Vel_61
Time_Shift_1
Sustain_Off
Time_Shift_4
Note_On_59_Vel_0
Note_On_74_Vel_0
Note_On_68_Vel_0
Time_Shift_2
Note_On_52_Vel_0
Time_Shift_1
Note_On_40_Vel_0
Time_Shift_14
Note_On_62_Vel_0
Time_Shift_123
Sustain_On
Time_Shift_35
Note_On_73_Vel_61
Time_Shift_26
Note_On_78_Vel_0
Time_Shift_154
Note_On_61_Vel_44
Time_Shift_3
Note_On_57_Vel_40
Note_On_69_Vel_60
Time_Shift_5
Note_On_52_Vel_39
Time_Shift_184
Note_On_78_Vel_63
Time_Shift_161
Note_On_45_Vel_0
Time_Shift_6
Note_On_45_Vel_33
Time_Shift_2
Note_On_61_Vel_0
Time_Shift_7
Note_On_57_Vel_0
Time_Shift_4
Note_On_61_Vel_42
Note_On_57_Vel_32
Time_Shift_4
Note_On_52_Vel_0
Note_On_76_Vel_0
Time_Shift_10
Note_On_52_Vel_33
Time_Shift_1
Note_On_76_Vel_58
Time_Shift_364
Note_On_83_Vel_66
Time_Shift_21
Note_On_40_Vel_37
Time_Shift_7
Note_On_57_Vel_0
Time_Shift_1
Note_On_61_Vel_0
Note_On_76_Vel_0
Sustain_Off
Note_On_52_Vel_0
Note_On_73_Vel_0
Time_Shift_1
Note_On_78_Vel_0
Note_On_45_Vel_0
Time_Shift_10
Note_On_69_Vel_0
Time_Shift_107
Sustain_On
Time_Shift_81
Note_On_85_Vel_67
Time_Shift_177
Note_On_52_Vel_43
Time_Shift_7
Note_On_62_Vel_47
Time_Shift_1
Note_On_86_Vel_68
Time_Shift_4
Note_On_56_Vel_42
Time_Shift_30
Sustain_Off
Time_Shift_15
Sustain_On
Time_Shift_120
Note_On_90_Vel_73
Time_Shift_118
Note_On_40_Vel_0
Time_Shift_62
Note_On_62_Vel_0
Time_Shift_7
Note_On_52_Vel_0
Note_On_56_Vel_0
Time_Shift_2
Note_On_62_Vel_42
Time_Shift_2
Note_On_88_Vel_67
Note_On_52_Vel_42
Time_Shift_7
Note_On_56_Vel_43
Time_Shift_1
Sustain_Off
Time_Shift_57
Sustain_On
Time_Shift_100
Note_On_86_Vel_0
Time_Shift_9
Note_On_86_Vel_71
Time_Shift_199
Note_On_85_Vel_0
Time_Shift_1
Note_On_45_Vel_44
Time_Shift_5
Note_On_85_Vel_66
Time_Shift_16
Sustain_Off
Time_Shift_5
Note_On_88_Vel_0
Time_Shift_1
Note_On_52_Vel_0
Note_On_56_Vel_0
Time_Shift_2
Note_On_90_Vel_0
Time_Shift_8
Note_On_62_Vel_0
Note_On_83_Vel_0
Time_Shift_15
Note_On_86_Vel_0
Time_Shift_12
Note_On_86_Vel_67
Time_Shift_50
Note_On_85_Vel_0
Time_Shift_4
Note_On_85_Vel_67
Time_Shift_50
Sustain_On
Time_Shift_34
Note_On_83_Vel_70
Time_Shift_158
Note_On_85_Vel_0
Time_Shift_2
Note_On_61_Vel_43
Time_Shift_3
Note_On_85_Vel_68
Time_Shift_2
Note_On_45_Vel_0
Time_Shift_5
Note_On_52_Vel_41
Time_Shift_3
Note_On_57_Vel_41
Time_Shift_3
Note_On_45_Vel_42
Time_Shift_3
Note_On_73_Vel_38
Time_Shift_7
Note_On_86_Vel_0
Time_Shift_2
Note_On_73_Vel_0
Time_Shift_4
Note_On_83_Vel_0
Time_Shift_9
Sustain_Off
Time_Shift_56
Sustain_On
Time_Shift_107
Note_On_80_Vel_65
Time_Shift_162
Note_On_57_Vel_0
Time_Shift_8
Note_On_52_Vel_0
Time_Shift_1
Note_On_57_Vel_38
Time_Shift_3
Note_On_52_Vel_44
Time_Shift_4
Note_On_61_Vel_0
Time_Shift_3
Note_On_81_Vel_63
Time_Shift_1
Note_On_61_Vel_39
Time_Shift_2
Sustain_Off
Time_Shift_7
Note_On_69_Vel_39
Time_Shift_17
Sustain_On
Time_Shift_2
Note_On_73_Vel_34
Time_Shift_157
Note_On_78_Vel_67
Time_Shift_93
Note_On_76_Vel_59
Time_Shift_40
Note_On_78_Vel_0
Time_Shift_5
Note_On_78_Vel_56
Time_Shift_41
Note_On_76_Vel_0
Time_Shift_4
Sustain_Off
Time_Shift_4
Note_On_45_Vel_0
Time_Shift_1
Note_On_85_Vel_0
Note_On_80_Vel_0
Time_Shift_2
Note_On_61_Vel_0
Note_On_52_Vel_0
Note_On_78_Vel_0
Note_On_57_Vel_0
Time_Shift_1
Note_On_76_Vel_64
Note_On_73_Vel_0
Note_On_81_Vel_0
Time_Shift_2
Note_On_40_Vel_43
Time_Shift_17
Note_On_69_Vel_0
Time_Shift_84
Sustain_On
Time_Shift_66
Note_On_74_Vel_66
Time_Shift_191
Note_On_59_Vel_50
Time_Shift_10
Note_On_52_Vel_37
Time_Shift_5
Note_On_62_Vel_46
Note_On_68_Vel_64
Time_Shift_196
Note_On_78_Vel_66
Time_Shift_201
Note_On_76_Vel_0
Time_Shift_6
Note_On_76_Vel_63
Time_Shift_1
Note_On_62_Vel_0
Time_Shift_8
Note_On_52_Vel_0
Note_On_59_Vel_0
Time_Shift_3
Note_On_62_Vel_44
Time_Shift_1
Note_On_59_Vel_41
Time_Shift_6
Note_On_52_Vel_34
Time_Shift_228
Note_On_68_Vel_0
Time_Shift_10
Note_On_68_Vel_63
Time_Shift_318
Note_On_69_Vel_61
Time_Shift_11
Note_On_45_Vel_37
Time_Shift_19
Sustain_Off
Time_Shift_8
Note_On_59_Vel_0
Time_Shift_1
Note_On_62_Vel_0
Time_Shift_3
Note_On_68_Vel_0
Note_On_52_Vel_0
Note_On_78_Vel_0
Time_Shift_1
Note_On_40_Vel_0
Note_On_76_Vel_0
Time_Shift_13
Note_On_74_Vel_0
Time_Shift_184
Sustain_On
Time_Shift_187
Note_On_61_Vel_42
Time_Shift_5
Note_On_52_Vel_36
Time_Shift_426
Note_On_64_Vel_58
Time_Shift_511
Note_On_69_Vel_0
Time_Shift_7
Note_On_69_Vel_61
Time_Shift_25
Note_On_33_Vel_38
Time_Shift_10
Sustain_Off
Time_Shift_2
Note_On_61_Vel_0
Note_On_45_Vel_0
Note_On_64_Vel_0
Time_Shift_4
Note_On_52_Vel_0
Time_Shift_198
Note_On_71_Vel_63
Time_Shift_31
Note_On_69_Vel_0
Time_Shift_38
Sustain_On
Time_Shift_131
Sustain_Off
Time_Shift_19
Note_On_57_Vel_42
Note_On_45_Vel_38
Time_Shift_2
Note_On_64_Vel_45
Time_Shift_3
Note_On_60_Vel_45
Time_Shift_1
Note_On_72_Vel_66
Time_Shift_59
Sustain_On
Time_Shift_330
Note_On_57_Vel_0
Note_On_60_Vel_0
Note_On_72_Vel_0
Time_Shift_8
Note_On_64_Vel_0
Time_Shift_3
Note_On_72_Vel_67
Note_On_57_Vel_39
Time_Shift_1
Note_On_60_Vel_44
Time_Shift_2
Note_On_64_Vel_42
Time_Shift_20
Sustain_Off
Time_Shift_5
Note_On_33_Vel_0
Time_Shift_77
Sustain_On
Time_Shift_107
Note_On_71_Vel_0
Time_Shift_215
Note_On_38_Vel_49
Time_Shift_3
Note_On_74_Vel_69
Time_Shift_1
Note_On_45_Vel_0
Time_Shift_2
Sustain_Off
Time_Shift_2
Note_On_64_Vel_0
Time_Shift_3
Note_On_72_Vel_0
Time_Shift_12
Note_On_60_Vel_0
Time_Shift_8
Note_On_57_Vel_0
Time_Shift_159
Note_On_76_Vel_70
Time_Shift_24
Note_On_74_Vel_0
Time_Shift_40
Sustain_On
Time_Shift_143
Note_On_77_Vel_71
Time_Shift_3
Note_On_57_Vel_42
Time_Shift_3
Note_On_65_Vel_40
Note_On_62_Vel_45
Time_Shift_16
Note_On_76_Vel_0
Time_Shift_19
Sustain_Off
Time_Shift_84
Sustain_On
Time_Shift_285
Note_On_57_Vel_0
Time_Shift_7
Note_On_62_Vel_0
Note_On_65_Vel_0
Time_Shift_4
Note_On_57_Vel_41
Time_Shift_3
Note_On_62_Vel_40
Time_Shift_3
Note_On_65_Vel_34
Time_Shift_17
Sustain_Off
Time_Shift_50
Sustain_On
Time_Shift_394
Note_On_43_Vel_47
Time_Shift_4
Note_On_71_Vel_66
Time_Shift_14
Note_On_62_Vel_0
Time_Shift_1
Sustain_Off
Time_Shift_2
Note_On_38_Vel_0
Time_Shift_1
Note_On_77_Vel_0
Note_On_65_Vel_0
Time_Shift_6
Note_On_57_Vel_0
Time_Shift_171
Note_On_72_Vel_69
Time_Shift_10
Note_On_71_Vel_0
Time_Shift_191
Note_On_59_Vel_49
Time_Shift_3
Note_On_74_Vel_69
Time_Shift_5
Note_On_55_Vel_45
Time_Shift_6
Note_On_65_Vel_43
Time_Shift_60
Sustain_On
Time_Shift_126
Note_On_81_Vel_77
Time_Shift_196
Note_On_55_Vel_0
Note_On_59_Vel_0
Time_Shift_6
Note_On_59_Vel_41
Note_On_79_Vel_65
Time_Shift_2
Note_On_65_Vel_0
Time_Shift_1
Note_On_55_Vel_39
Time_Shift_6
Note_On_65_Vel_30
Time_Shift_5
Sustain_Off
Time_Shift_42
Sustain_On
Time_Shift_133
Note_On_77_Vel_69
Time_Shift_103
Note_On_76_Vel_66
Time_Shift_40
Note_On_77_Vel_0
Time_Shift_11
Note_On_77_Vel_67
Time_Shift_34
Sustain_Off
Time_Shift_1
Note_On_76_Vel_0
Time_Shift_4
Note_On_48_Vel_44
Time_Shift_6
Note_On_76_Vel_60
Time_Shift_2
Note_On_72_Vel_0
Note_On_74_Vel_0
Time_Shift_1
Note_On_55_Vel_0
Note_On_59_Vel_0
Note_On_43_Vel_0
Note_On_81_Vel_0
Note_On_77_Vel_0
Time_Shift_1
Note_On_79_Vel_0
Note_On_65_Vel_0
Time_Shift_178
Sustain_On
Time_Shift_19
Note_On_75_Vel_66
Time_Shift_189
Note_On_76_Vel_0
Time_Shift_1
Note_On_64_Vel_47
Time_Shift_6
Note_On_55_Vel_45
Time_Shift_1
Note_On_60_Vel_42
Note_On_76_Vel_63
Time_Shift_41
Sustain_Off
Time_Shift_5
Sustain_On
Time_Shift_353
Note_On_64_Vel_0
Time_Shift_6
Note_On_64_Vel_41
Time_Shift_2
Note_On_60_Vel_0
Time_Shift_7
Note_On_60_Vel_35
Note_On_55_Vel_0
Time_Shift_5
Note_On_55_Vel_35
Time_Shift_429
Note_On_45_Vel_44
Time_Shift_1
Note_On_72_Vel_64
Time_Shift_21
Sustain_Off
Time_Shift_1
Note_On_48_Vel_0
Note_On_60_Vel_0
Time_Shift_1
Note_On_64_Vel_0
Note_On_55_Vel_0
Note_On_76_Vel_0
Time_Shift_2
Note_On_75_Vel_0
Time_Shift_86
Sustain_On
Time_Shift_53
Sustain_Off
Time_Shift_44
Note_On_74_Vel_66
Time_Shift_9
Note_On_72_Vel_0
Time_Shift_189
Note_On_76_Vel_66
Time_Shift_12
Sustain_On
Time_Shift_3
Note_On_64_Vel_41
Time_Shift_3
Note_On_60_Vel_41
Time_Shift_1
Note_On_57_Vel_38
Time_Shift_146
Note_On_74_Vel_0
Time_Shift_231
Note_On_57_Vel_0
Note_On_76_Vel_0
Time_Shift_7
Note_On_60_Vel_0
Note_On_64_Vel_0
Time_Shift_2
Note_On_57_Vel_34
Time_Shift_1
Note_On_76_Vel_66
Time_Shift_2
Note_On_60_Vel_36
Time_Shift_2
Note_On_64_Vel_37
Time_Shift_9
Sustain_Off
Time_Shift_54
Sustain_On
Time_Shift_311
Note_On_77_Vel_67
Time_Shift_17
Note_On_38_Vel_39
Time_Shift_4
Sustain_Off
Time_Shift_4
Note_On_76_Vel_0
Time_Shift_12
Note_On_64_Vel_0
Time_Shift_2
Note_On_60_Vel_0
Time_Shift_18
Note_On_45_Vel_0
Note_On_57_Vel_0
Time_Shift_31
Sustain_On
Time_Shift_108
Note_On_79_Vel_65
Time_Shift_193
Note_On_62_Vel_43
Time_Shift_2
Note_On_65_Vel_42
Note_On_57_Vel_39
Time_Shift_2
Note_On_81_Vel_69
Time_Shift_2
Note_On_77_Vel_0
Time_Shift_2
Sustain_Off
Time_Shift_36
Note_On_38_Vel_0
Time_Shift_24
Sustain_On
Time_Shift_337
Note_On_62_Vel_0
Time_Shift_8
Note_On_65_Vel_0
Time_Shift_2
Note_On_62_Vel_43
Time_Shift_6
Note_On_57_Vel_0
Time_Shift_1
Note_On_65_Vel_34
Time_Shift_5
Sustain_Off
Note_On_69_Vel_34
Time_Shift_3
Note_On_57_Vel_35
Time_Shift_29
Sustain_On
Time_Shift_388
Note_On_35_Vel_47
Time_Shift_2
Note_On_75_Vel_59
Time_Shift_6
Sustain_Off
Time_Shift_3
Note_On_57_Vel_0
Time_Shift_1
Note_On_79_Vel_0
Time_Shift_1
Note_On_65_Vel_0
Time_Shift_1
Note_On_81_Vel_0
Time_Shift_5
Note_On_62_Vel_0
Time_Shift_62
Sustain_On
Time_Shift_15
Note_On_69_Vel_0
Time_Shift_124
Note_On_76_Vel_62
Time_Shift_179
Note_On_57_Vel_41
Time_Shift_13
Note_On_63_Vel_46
Time_Shift_10
Note_On_59_Vel_44
Time_Shift_1
Note_On_78_Vel_67
Time_Shift_418
Note_On_59_Vel_0
Note_On_78_Vel_0
Time_Shift_6
Note_On_59_Vel_45
Time_Shift_2
Note_On_57_Vel_0
Time_Shift_3
Note_On_78_Vel_67
Time_Shift_4
Note_On_63_Vel_0
Time_Shift_3
Note_On_57_Vel_39
Time_Shift_2
Note_On_63_Vel_38
Time_Shift_26
Sustain_Off
Time_Shift_85
Sustain_On
Time_Shift_169
Note_On_78_Vel_0
Time_Shift_8
Note_On_78_Vel_35
Time_Shift_166
Note_On_80_Vel_66
Time_Shift_7
Note_On_40_Vel_44
Time_Shift_15
Sustain_Off
Time_Shift_5
Note_On_59_Vel_0
Time_Shift_2
Note_On_78_Vel_0
Note_On_63_Vel_0
Note_On_76_Vel_0
Time_Shift_12
Note_On_35_Vel_0
Note_On_57_Vel_0
Note_On_75_Vel_0
Time_Shift_92
Sustain_On
Time_Shift_146
Note_On_81_Vel_69
Time_Shift_279
Note_On_62_Vel_47
Time_Shift_2
Note_On_83_Vel_72
Time_Shift_17
Note_On_59_Vel_41
Time_Shift_5
Note_On_52_Vel_40
Time_Shift_7
Note_On_71_Vel_41
Time_Shift_1011
Note_On_40_Vel_0
Note_On_83_Vel_0
Time_Shift_4
Note_On_83_Vel_69
Time_Shift_5
Note_On_40_Vel_34
Time_Shift_18
Note_On_59_Vel_0
Time_Shift_2
Note_On_62_Vel_0
Time_Shift_1
Note_On_81_Vel_0
Note_On_71_Vel_0
Time_Shift_2
Note_On_80_Vel_0
Time_Shift_1
Sustain_Off
Time_Shift_175
Note_On_85_Vel_71
Time_Shift_53
Sustain_On
Time_Shift_153
Note_On_52_Vel_0
Time_Shift_3
Note_On_86_Vel_77
Time_Shift_2
Note_On_56_Vel_43
Time_Shift_7
Note_On_52_Vel_43
Time_Shift_6
Sustain_Off
Time_Shift_1
Note_On_62_Vel_44
Time_Shift_12
Sustain_On
Time_Shift_167
Note_On_90_Vel_72
Time_Shift_179
Note_On_52_Vel_0
Note_On_56_Vel_0
Note_On_62_Vel_0
Time_Shift_4
Note_On_52_Vel_39
Note_On_62_Vel_39
Time_Shift_7
Note_On_56_Vel_43
Note_On_88_Vel_70
Time_Shift_158
Note_On_86_Vel_0
Time_Shift_8
Note_On_86_Vel_76
Time_Shift_198
Note_On_45_Vel_42
Time_Shift_1
Note_On_85_Vel_0
Time_Shift_5
Note_On_85_Vel_67
Time_Shift_4
Note_On_57_Vel_37
Time_Shift_6
Note_On_86_Vel_0
Time_Shift_1
Sustain_Off
Time_Shift_1
Note_On_88_Vel_0
Note_On_62_Vel_0
Note_On_52_Vel_0
Time_Shift_1
Note_On_56_Vel_0
Time_Shift_2
Note_On_40_Vel_0
Time_Shift_3
Note_On_83_Vel_0
Note_On_90_Vel_0
Time_Shift_31
Note_On_57_Vel_0
Time_Shift_7
Note_On_86_Vel_64
Time_Shift_46
Note_On_85_Vel_0
Time_Shift_6
Note_On_85_Vel_65
Time_Shift_67
Note_On_83_Vel_74
Time_Shift_181
Note_On_61_Vel_45
Note_On_85_Vel_0
Time_Shift_3
Note_On_52_Vel_41
Time_Shift_2
Note_On_85_Vel_75
Time_Shift_3
Sustain_On
Time_Shift_1
Note_On_57_Vel_41
Time_Shift_181
Note_On_80_Vel_68
Time_Shift_171
Note_On_57_Vel_0
Time_Shift_4
Note_On_81_Vel_66
Note_On_57_Vel_36
Time_Shift_4
Note_On_52_Vel_0
Note_On_61_Vel_0
Time_Shift_4
Note_On_52_Vel_34
Note_On_61_Vel_34
Time_Shift_186
Note_On_78_Vel_69
Time_Shift_40
Note_On_86_Vel_0
Time_Shift_58
Note_On_76_Vel_56
Time_Shift_34
Note_On_78_Vel_0
Time_Shift_9
Note_On_78_Vel_53
Time_Shift_45
Note_On_40_Vel_45
Note_On_76_Vel_0
Note_On_83_Vel_0
Time_Shift_1
Sustain_Off
Note_On_80_Vel_0
Time_Shift_1
Note_On_78_Vel_0
Time_Shift_1
Note_On_61_Vel_0
Note_On_81_Vel_0
Note_On_52_Vel_0
Note_On_45_Vel_0
Note_On_57_Vel_0
Time_Shift_3
Note_On_76_Vel_63
Time_Shift_2
Note_On_85_Vel_0
Time_Shift_175
Note_On_74_Vel_66
Time_Shift_17
Sustain_On
Time_Shift_162
Note_On_59_Vel_46
Note_On_68_Vel_64
Time_Shift_1
Note_On_62_Vel_45
Time_Shift_1
Note_On_52_Vel_38
Time_Shift_185
Note_On_78_Vel_66
Time_Shift_157
Note_On_62_Vel_0
Time_Shift_6
Note_On_62_Vel_42
Time_Shift_2
Note_On_52_Vel_0
Note_On_59_Vel_0
Note_On_76_Vel_0
Time_Shift_4
Note_On_52_Vel_37
Time_Shift_4
Note_On_76_Vel_62
Time_Shift_2
Note_On_59_Vel_40
Time_Shift_259
Note_On_76_Vel_0
Time_Shift_11
Note_On_76_Vel_55
Time_Shift_35
Note_On_78_Vel_0
Time_Shift_11
Note_On_78_Vel_58
Time_Shift_35
Note_On_76_Vel_0
Time_Shift_4
Note_On_45_Vel_41
Time_Shift_5
Note_On_76_Vel_60
Time_Shift_9
Sustain_Off
Note_On_62_Vel_0
Note_On_59_Vel_0
Note_On_68_Vel_0
Note_On_74_Vel_0
Time_Shift_1
Note_On_40_Vel_0
Note_On_52_Vel_0
Time_Shift_127
Sustain_On
Time_Shift_44
Note_On_73_Vel_63
Time_Shift_10
Note_On_78_Vel_0
Time_Shift_167
Note_On_61_Vel_45
Time_Shift_4
Note_On_69_Vel_62
Time_Shift_1
Note_On_57_Vel_40
Time_Shift_1
Note_On_52_Vel_38
Time_Shift_187
Note_On_78_Vel_64
Time_Shift_177
Note_On_57_Vel_0
Note_On_61_Vel_0
Time_Shift_5
Note_On_57_Vel_32
Time_Shift_3
Note_On_52_Vel_0
Note_On_76_Vel_0
Time_Shift_1
Note_On_61_Vel_42
Time_Shift_3
Note_On_52_Vel_34
Time_Shift_6
Note_On_76_Vel_59
Time_Shift_105
Note_On_45_Vel_0
Time_Shift_260
Note_On_83_Vel_68
Time_Shift_26
Note_On_40_Vel_38
Time_Shift_3
Note_On_57_Vel_0
Time_Shift_1
Note_On_52_Vel_0
Note_On_61_Vel_0
Note_On_76_Vel_0
Time_Shift_1
Note_On_73_Vel_0
Note_On_78_Vel_0
Time_Shift_8
Sustain_Off
Time_Shift_1
Note_On_69_Vel_0
Time_Shift_100
Sustain_On
Time_Shift_88
Note_On_85_Vel_69
Time_Shift_176
Note_On_52_Vel_44
Time_Shift_8
Note_On_62_Vel_48
Note_On_56_Vel_45
Note_On_86_Vel_67
Time_Shift_171
Note_On_90_Vel_72
Time_Shift_179
Note_On_52_Vel_0
Note_On_62_Vel_0
Time_Shift_7
Note_On_62_Vel_43
Time_Shift_4
Note_On_52_Vel_39
Note_On_88_Vel_68
Time_Shift_4
Note_On_56_Vel_0
Time_Shift_5
Note_On_56_Vel_43
Time_Shift_32
Sustain_Off
Time_Shift_9
Sustain_On
Time_Shift_115
Note_On_86_Vel_0
Time_Shift_6
Note_On_86_Vel_71
Time_Shift_179
Note_On_40_Vel_0
Time_Shift_19
Note_On_45_Vel_43
Time_Shift_4
Note_On_85_Vel_0
Time_Shift_5
Note_On_85_Vel_68
Time_Shift_16
Sustain_Off
Time_Shift_4
Note_On_88_Vel_0
Time_Shift_1
Note_On_83_Vel_0
Time_Shift_1
Note_On_90_Vel_0
Note_On_56_Vel_0
Time_Shift_19
Note_On_52_Vel_0
Note_On_62_Vel_0
Time_Shift_7
Note_On_86_Vel_0
Time_Shift_11
Note_On_86_Vel_68
Time_Shift_43
Note_On_85_Vel_0
Time_Shift_10
Note_On_85_Vel_67
Time_Shift_21
Sustain_On
Time_Shift_64
Note_On_83_Vel_70
Time_Shift_159
Note_On_85_Vel_0
Time_Shift_4
Note_On_61_Vel_47
Time_Shift_2
Note_On_85_Vel_70
Note_On_81_Vel_55
Time_Shift_11
Note_On_52_Vel_41
Time_Shift_2
Note_On_57_Vel_42
Time_Shift_18
Sustain_Off
Time_Shift_16
Note_On_86_Vel_0
Time_Shift_16
Note_On_81_Vel_0
Time_Shift_23
Sustain_On
Time_Shift_114
Note_On_80_Vel_65
Time_Shift_162
Note_On_52_Vel_0
Note_On_57_Vel_0
Time_Shift_8
Note_On_57_Vel_41
Note_On_61_Vel_0
Time_Shift_4
Note_On_52_Vel_41
Time_Shift_7
Note_On_81_Vel_63
Note_On_61_Vel_42
Time_Shift_4
Sustain_Off
Time_Shift_16
Sustain_On
Time_Shift_167
Note_On_78_Vel_67
Time_Shift_93
Note_On_76_Vel_59
Time_Shift_39
Note_On_78_Vel_0
Time_Shift_5
Note_On_78_Vel_53
Time_Shift_34
Note_On_83_Vel_0
Time_Shift_7
Sustain_Off
Note_On_76_Vel_0
Time_Shift_2
Note_On_80_Vel_0
Note_On_45_Vel_0
Time_Shift_1
Note_On_78_Vel_0
Time_Shift_1
Note_On_61_Vel_0
Note_On_52_Vel_0
Note_On_57_Vel_0
Note_On_81_Vel_0
Time_Shift_4
Note_On_85_Vel_0
Time_Shift_2
Note_On_76_Vel_63
Time_Shift_3
Note_On_40_Vel_44
Time_Shift_95
Sustain_On
Time_Shift_23
Note_On_40_Vel_0
Time_Shift_50
Note_On_74_Vel_66
Time_Shift_192
Note_On_59_Vel_51
Time_Shift_12
Note_On_52_Vel_41
Time_Shift_3
Note_On_62_Vel_49
Note_On_68_Vel_63
Time_Shift_195
Note_On_78_Vel_68
Time_Shift_201
Note_On_76_Vel_0
Time_Shift_6
Note_On_76_Vel_65
Time_Shift_1
Note_On_59_Vel_0
Note_On_62_Vel_0
Time_Shift_5
Note_On_62_Vel_44
Time_Shift_1
Note_On_59_Vel_44
Time_Shift_2
Note_On_52_Vel_0
Time_Shift_4
Note_On_52_Vel_37
Time_Shift_15
Sustain_Off
Time_Shift_27
Sustain_On
Time_Shift_192
Note_On_68_Vel_0
Time_Shift_10
Note_On_68_Vel_64
Time_Shift_317
Note_On_69_Vel_62
Time_Shift_8
Note_On_45_Vel_40
Time_Shift_21
Sustain_Off
Time_Shift_3
Note_On_59_Vel_0
Note_On_62_Vel_0
Time_Shift_2
Note_On_68_Vel_0
Time_Shift_1
Note_On_74_Vel_0
Time_Shift_1
Note_On_52_Vel_0
Note_On_76_Vel_0
Note_On_78_Vel_0
Time_Shift_198
Sustain_On
Time_Shift_194
Note_On_61_Vel_44
Time_Shift_3
Note_On_52_Vel_40
Time_Shift_428
Note_On_64_Vel_58
Time_Shift_511
Note_On_69_Vel_0
Time_Shift_6
Note_On_69_Vel_61
Time_Shift_42
Note_On_33_Vel_35
Time_Shift_2
Sustain_Off
Time_Shift_1
Note_On_61_Vel_0
Time_Shift_2
Note_On_64_Vel_0
Time_Shift_1
Note_On_52_Vel_0
Time_Shift_31
Sustain_On
Time_Shift_38
Note_On_45_Vel_0
Time_Shift_137
Note_On_71_Vel_66
Time_Shift_25
Note_On_33_Vel_0
Time_Shift_174
Note_On_64_Vel_44
Note_On_57_Vel_41
Time_Shift_2
Note_On_72_Vel_66
Time_Shift_2
Note_On_60_Vel_46
Time_Shift_413
Note_On_57_Vel_0
Note_On_72_Vel_0
Time_Shift_8
Note_On_60_Vel_0
Note_On_64_Vel_0
Time_Shift_3
Note_On_72_Vel_65
Note_On_57_Vel_38
Time_Shift_1
Note_On_60_Vel_44
Time_Shift_1
Note_On_64_Vel_37
Time_Shift_23
Sustain_Off
Time_Shift_3
Note_On_71_Vel_0
Time_Shift_22
Note_On_69_Vel_0
Time_Shift_8
Sustain_On
Time_Shift_348
Note_On_74_Vel_69
Time_Shift_1
Note_On_38_Vel_44
Time_Shift_8
Sustain_Off
Time_Shift_19
Note_On_57_Vel_0
Note_On_60_Vel_0
Note_On_64_Vel_0
Time_Shift_8
Note_On_72_Vel_0
Time_Shift_61
Sustain_On
Time_Shift_103
Note_On_76_Vel_68
Time_Shift_6
Note_On_74_Vel_0
Time_Shift_193
Note_On_65_Vel_43
Time_Shift_11
Note_On_77_Vel_69
Note_On_62_Vel_40
Time_Shift_1
Note_On_57_Vel_38
Time_Shift_19
Note_On_76_Vel_0
Time_Shift_67
Note_On_38_Vel_0
Time_Shift_322
Note_On_57_Vel_0
Note_On_62_Vel_0
Note_On_65_Vel_0
Time_Shift_4
Note_On_62_Vel_39
Note_On_57_Vel_35
Time_Shift_2
Note_On_69_Vel_37
Time_Shift_6
Note_On_65_Vel_36
Sustain_Off
Time_Shift_4
Note_On_69_Vel_0
Time_Shift_53
Sustain_On
Time_Shift_411
Note_On_43_Vel_44
Time_Shift_2
Note_On_71_Vel_62
Time_Shift_6
Note_On_62_Vel_0
Note_On_57_Vel_0
Time_Shift_1
Note_On_65_Vel_0
Note_On_77_Vel_0
Time_Shift_5
Sustain_Off
Time_Shift_75
Sustain_On
Time_Shift_99
Note_On_72_Vel_67
Time_Shift_14
Sustain_Off
Time_Shift_6
Note_On_71_Vel_0
Time_Shift_142
Sustain_On
Time_Shift_41
Note_On_55_Vel_47
Note_On_59_Vel_48
Time_Shift_1
Note_On_65_Vel_42
Time_Shift_1
Note_On_74_Vel_69
Time_Shift_198
Note_On_81_Vel_74
Time_Shift_204
Note_On_55_Vel_0
Time_Shift_8
Note_On_59_Vel_0
Note_On_65_Vel_0
Time_Shift_2
Note_On_79_Vel_67
Note_On_55_Vel_39
Time_Shift_2
Note_On_59_Vel_42
Time_Shift_1
Note_On_65_Vel_35
Time_Shift_14
Sustain_Off
Time_Shift_12
Sustain_On
Time_Shift_160
Note_On_77_Vel_68
Time_Shift_91
Note_On_76_Vel_61
Time_Shift_40
Note_On_77_Vel_0
Time_Shift_9
Note_On_77_Vel_58
Time_Shift_38
Note_On_76_Vel_0
Time_Shift_3
Sustain_Off
Time_Shift_6
Note_On_48_Vel_45
Time_Shift_1
Note_On_72_Vel_0
Note_On_74_Vel_0
Note_On_59_Vel_0
Note_On_43_Vel_0
Note_On_55_Vel_0
Note_On_81_Vel_0
Note_On_76_Vel_62
Time_Shift_1
Note_On_77_Vel_0
Note_On_65_Vel_0
Note_On_79_Vel_0
Time_Shift_81
Sustain_On
Time_Shift_124
Note_On_75_Vel_66
Time_Shift_168
Note_On_76_Vel_0
Time_Shift_11
Note_On_76_Vel_64
Time_Shift_2
Note_On_64_Vel_46
Time_Shift_5
Note_On_55_Vel_44
Time_Shift_8
Note_On_60_Vel_40
Sustain_Off
Time_Shift_43
Sustain_On
Time_Shift_345
Note_On_55_Vel_0
Time_Shift_8
Note_On_64_Vel_0
Time_Shift_4
Note_On_55_Vel_37
Time_Shift_3
Note_On_64_Vel_39
Time_Shift_1
Note_On_60_Vel_0
Time_Shift_4
Note_On_60_Vel_33
Time_Shift_9
Sustain_Off
Time_Shift_17
Sustain_On
Time_Shift_426
Note_On_45_Vel_41
Time_Shift_1
Note_On_69_Vel_61
Time_Shift_14
Sustain_Off
Time_Shift_1
Note_On_76_Vel_0
Note_On_60_Vel_0
Note_On_64_Vel_0
Time_Shift_11
Note_On_48_Vel_0
Time_Shift_16
Note_On_55_Vel_0
Note_On_75_Vel_0
Time_Shift_84
Sustain_On
Time_Shift_67
Note_On_71_Vel_64
Time_Shift_2
Sustain_Off
Time_Shift_16
Note_On_69_Vel_0
Time_Shift_69
Sustain_On
Time_Shift_122
Note_On_57_Vel_42
Note_On_72_Vel_67
Time_Shift_5
Note_On_60_Vel_40
Time_Shift_1
Note_On_64_Vel_45
Time_Shift_187
Note_On_71_Vel_0
Time_Shift_192
Note_On_57_Vel_0
Note_On_64_Vel_0
Time_Shift_7
Note_On_60_Vel_0
Time_Shift_2
Note_On_57_Vel_38
Time_Shift_2
Note_On_64_Vel_39
Time_Shift_3
Note_On_60_Vel_39
Time_Shift_9
Note_On_72_Vel_0
Time_Shift_11
Note_On_72_Vel_66
Time_Shift_3
Sustain_Off
Time_Shift_40
Sustain_On
Time_Shift_53
Note_On_45_Vel_0
Time_Shift_282
Note_On_74_Vel_69
Time_Shift_13
Note_On_60_Vel_0
Time_Shift_1
Note_On_72_Vel_0
Time_Shift_2
Sustain_Off
Time_Shift_6
Note_On_38_Vel_43
Time_Shift_4
Note_On_57_Vel_0
Note_On_64_Vel_0
Time_Shift_61
Sustain_On
Time_Shift_127
Note_On_76_Vel_70
Time_Shift_4
Note_On_74_Vel_0
Time_Shift_191
Note_On_62_Vel_47
Time_Shift_2
Note_On_65_Vel_46
Time_Shift_2
Note_On_77_Vel_72
Time_Shift_5
Note_On_57_Vel_40
Time_Shift_1
Note_On_69_Vel_48
Time_Shift_83
Note_On_38_Vel_0
Time_Shift_30
Note_On_76_Vel_0
Time_Shift_292
Note_On_62_Vel_0
Note_On_65_Vel_0
Time_Shift_5
Note_On_62_Vel_42
Time_Shift_2
Note_On_65_Vel_34
Time_Shift_1
Note_On_57_Vel_0
Note_On_69_Vel_0
Time_Shift_4
Note_On_57_Vel_36
Note_On_69_Vel_35
Time_Shift_26
Sustain_Off
Time_Shift_39
Sustain_On
Time_Shift_389
Note_On_43_Vel_48
Time_Shift_16
Note_On_62_Vel_0
Time_Shift_1
Note_On_71_Vel_65
Note_On_57_Vel_0
Time_Shift_2
Sustain_Off
Time_Shift_1
Note_On_65_Vel_0
Time_Shift_1
Note_On_77_Vel_0
Time_Shift_43
Note_On_69_Vel_0
Time_Shift_186
Note_On_72_Vel_69
Time_Shift_29
Note_On_43_Vel_0
Time_Shift_85
Sustain_On
Time_Shift_82
Note_On_74_Vel_70
Time_Shift_3
Note_On_59_Vel_50
Time_Shift_2
Note_On_65_Vel_43
Time_Shift_1
Note_On_55_Vel_48
Time_Shift_224
Note_On_81_Vel_77
Time_Shift_187
Note_On_55_Vel_0
Note_On_59_Vel_0
Note_On_65_Vel_0
Time_Shift_5
Note_On_62_Vel_44
Time_Shift_2
Note_On_65_Vel_40
Time_Shift_1
Note_On_79_Vel_65
Time_Shift_2
Note_On_55_Vel_43
Note_On_59_Vel_39
Time_Shift_8
Sustain_Off
Time_Shift_20
Sustain_On
Time_Shift_177
Note_On_71_Vel_0
Time_Shift_9
Note_On_71_Vel_67
Time_Shift_252
Note_On_72_Vel_0
Time_Shift_4
Note_On_48_Vel_53
Time_Shift_3
Note_On_72_Vel_65
Time_Shift_13
Sustain_Off
Time_Shift_1
Note_On_62_Vel_0
Time_Shift_2
Note_On_59_Vel_0
Note_On_74_Vel_0
Note_On_55_Vel_0
Note_On_65_Vel_0
Time_Shift_1
Note_On_71_Vel_0
Note_On_81_Vel_0
Note_On_79_Vel_0
Time_Shift_199
Sustain_On
Time_Shift_256
Note_On_64_Vel_43
Note_On_55_Vel_40
Time_Shift_496
Note_On_64_Vel_0
Time_Shift_12
Note_On_64_Vel_62
Time_Shift_419
Note_On_48_Vel_0
Time_Shift_119
Note_On_33_Vel_40
Time_Shift_6
Note_On_69_Vel_61
Time_Shift_2
Note_On_72_Vel_0
Note_On_55_Vel_0
Time_Shift_16
Sustain_Off
Time_Shift_10
Note_On_64_Vel_0
Time_Shift_23
Sustain_On
Time_Shift_188
Note_On_71_Vel_66
Time_Shift_81
Note_On_33_Vel_0
Time_Shift_123
Note_On_64_Vel_45
Time_Shift_3
Note_On_60_Vel_48
Note_On_72_Vel_65
Time_Shift_1
Note_On_57_Vel_41
Time_Shift_411
Note_On_57_Vel_0
Note_On_60_Vel_0
Note_On_64_Vel_0
Time_Shift_7
Note_On_57_Vel_36
Note_On_72_Vel_0
Time_Shift_1
Note_On_64_Vel_38
Time_Shift_3
Note_On_60_Vel_40
Note_On_72_Vel_66
Time_Shift_426
Note_On_74_Vel_67
Time_Shift_2
Note_On_38_Vel_45
Time_Shift_1
Note_On_71_Vel_0
Note_On_57_Vel_0
Time_Shift_1
Sustain_Off
Note_On_64_Vel_0
Note_On_69_Vel_0
Note_On_72_Vel_0
Time_Shift_12
Note_On_60_Vel_0
Time_Shift_185
Note_On_74_Vel_0
Note_On_76_Vel_68
Time_Shift_30
Sustain_On
Time_Shift_125
Sustain_Off
Time_Shift_53
Note_On_57_Vel_42
Time_Shift_11
Note_On_62_Vel_43
Note_On_77_Vel_68
Time_Shift_3
Note_On_65_Vel_38
Time_Shift_7
Sustain_On
Time_Shift_23
Sustain_Off
Time_Shift_85
Sustain_On
Time_Shift_8
Note_On_38_Vel_0
Time_Shift_53
Note_On_76_Vel_0
Time_Shift_254
Note_On_62_Vel_0
Time_Shift_7
Note_On_65_Vel_0
Time_Shift_4
Note_On_62_Vel_41
Note_On_65_Vel_35
Time_Shift_4
Note_On_57_Vel_0
Time_Shift_7
Note_On_57_Vel_37
Time_Shift_473
Note_On_40_Vel_50
Time_Shift_24
Note_On_57_Vel_0
Time_Shift_1
Note_On_65_Vel_0
Time_Shift_5
Note_On_77_Vel_0
Time_Shift_1
Sustain_Off
Time_Shift_4
Note_On_62_Vel_0
Time_Shift_184
Note_On_40_Vel_0
Time_Shift_18
Note_On_76_Vel_68
Time_Shift_66
Note_On_77_Vel_68
Time_Shift_1
Sustain_On
Time_Shift_53
Note_On_76_Vel_0
Time_Shift_11
Note_On_76_Vel_67
Time_Shift_86
Note_On_75_Vel_66
Time_Shift_4
Note_On_52_Vel_41
Time_Shift_1
Note_On_59_Vel_40
Time_Shift_6
Note_On_59_Vel_0
Time_Shift_4
Note_On_62_Vel_42
Note_On_56_Vel_45
Time_Shift_203
Note_On_76_Vel_0
Time_Shift_4
Note_On_76_Vel_67
Time_Shift_204
Note_On_52_Vel_0
Time_Shift_2
Note_On_83_Vel_78
Time_Shift_5
Note_On_62_Vel_0
Time_Shift_1
Note_On_52_Vel_40
Time_Shift_7
Note_On_56_Vel_0
Time_Shift_2
Note_On_62_Vel_39
Time_Shift_3
Note_On_56_Vel_41
Time_Shift_190
Note_On_74_Vel_67
Time_Shift_209
Sustain_Off
Time_Shift_3
Note_On_45_Vel_44
Time_Shift_3
Note_On_72_Vel_64
Time_Shift_21
Note_On_75_Vel_0
Time_Shift_1
Note_On_76_Vel_0
Note_On_77_Vel_0
Note_On_74_Vel_0
Time_Shift_1
Note_On_56_Vel_0
Note_On_83_Vel_0
Note_On_52_Vel_0
Time_Shift_12
Note_On_62_Vel_0
Time_Shift_415
Sustain_On
Time_Shift_53
Note_On_52_Vel_42
Time_Shift_3
Note_On_60_Vel_45
Time_Shift_1
Note_On_57_Vel_43
Time_Shift_557
Note_On_60_Vel_0
Time_Shift_11
Note_On_60_Vel_41
Time_Shift_5
Note_On_52_Vel_0
Time_Shift_6
Note_On_52_Vel_35
Time_Shift_17
Note_On_57_Vel_0
Time_Shift_7
Note_On_57_Vel_30
Time_Shift_17
Sustain_Off
Time_Shift_30
Sustain_On
Time_Shift_92
Note_On_45_Vel_0
Time_Shift_511
Note_On_48_Vel_47
Time_Shift_12
Sustain_Off
Time_Shift_10
Note_On_57_Vel_0
Time_Shift_3
Note_On_72_Vel_0
Time_Shift_9
Note_On_52_Vel_0
Time_Shift_8
Note_On_60_Vel_0
Time_Shift_219
Note_On_84_Vel_72
Time_Shift_142
Sustain_On
Time_Shift_15
Sustain_Off
Time_Shift_85
Sustain_On
Time_Shift_27
Note_On_83_Vel_73
Time_Shift_4
Note_On_52_Vel_43
Time_Shift_3
Note_On_57_Vel_39
Time_Shift_246
Note_On_81_Vel_69
Time_Shift_224
Note_On_79_Vel_64
Time_Shift_243
Note_On_77_Vel_68
Time_Shift_229
Note_On_76_Vel_66
Time_Shift_9
Sustain_Off
Time_Shift_1
Note_On_79_Vel_0
Note_On_48_Vel_0
Time_Shift_1
Note_On_52_Vel_0
Note_On_57_Vel_0
Time_Shift_1
Note_On_83_Vel_0
Note_On_84_Vel_0
Note_On_81_Vel_0
Time_Shift_2
Note_On_50_Vel_43
Time_Shift_1
Note_On_77_Vel_0
Time_Shift_223
Note_On_74_Vel_68
Time_Shift_11
Note_On_76_Vel_0
Time_Shift_195
Sustain_On
Time_Shift_5
Note_On_57_Vel_41
Time_Shift_6
Note_On_73_Vel_66
Time_Shift_1
Note_On_59_Vel_46
Time_Shift_196
Note_On_74_Vel_0
Time_Shift_11
Note_On_74_Vel_71
Time_Shift_242
Note_On_73_Vel_0
Time_Shift_12
Note_On_76_Vel_70
Time_Shift_243
Note_On_77_Vel_72
Time_Shift_329
Note_On_76_Vel_0
Time_Shift_11
Note_On_76_Vel_67
Time_Shift_12
Note_On_59_Vel_0
Time_Shift_2
Note_On_57_Vel_0
Time_Shift_1
Note_On_50_Vel_0
Time_Shift_1
Note_On_77_Vel_0
Time_Shift_1
Sustain_Off
Time_Shift_3
Note_On_40_Vel_42
Time_Shift_7
Note_On_74_Vel_0
Time_Shift_101
Note_On_77_Vel_68
Time_Shift_14
Note_On_76_Vel_0
Time_Shift_80
Note_On_77_Vel_0
Time_Shift_8
Note_On_76_Vel_69
Time_Shift_81
Note_On_77_Vel_69
Time_Shift_69
Note_On_76_Vel_0
Time_Shift_8
Note_On_76_Vel_67
Time_Shift_69
Note_On_77_Vel_0
Time_Shift_8
Note_On_77_Vel_69
Time_Shift_61
Note_On_76_Vel_0
Time_Shift_10
Note_On_76_Vel_68
Time_Shift_44
Sustain_On
Time_Shift_16
Note_On_77_Vel_0
Time_Shift_10
Note_On_77_Vel_72
Time_Shift_53
Note_On_60_Vel_48
Time_Shift_7
Note_On_52_Vel_42
Time_Shift_10
Note_On_75_Vel_71
Time_Shift_296
Note_On_76_Vel_0
Time_Shift_5
Note_On_76_Vel_70
Time_Shift_287
Note_On_52_Vel_0
Note_On_77_Vel_0
Time_Shift_8
Note_On_77_Vel_71
Time_Shift_3
Note_On_52_Vel_39
Time_Shift_6
Note_On_59_Vel_45
Time_Shift_16
Note_On_62_Vel_46
Time_Shift_413
Note_On_68_Vel_70
Time_Shift_620
Note_On_45_Vel_43
Time_Shift_16
Note_On_69_Vel_66
Time_Shift_18
Sustain_Off
Time_Shift_9
Note_On_76_Vel_0
Note_On_62_Vel_0
Note_On_59_Vel_0
Note_On_77_Vel_0
Note_On_68_Vel_0
Note_On_75_Vel_0
Note_On_60_Vel_0
Time_Shift_1
Note_On_52_Vel_0
Time_Shift_1
Note_On_40_Vel_0
Time_Shift_179
Sustain_On
Time_Shift_722
Note_On_45_Vel_0
Time_Shift_3
Note_On_60_Vel_52
Time_Shift_2
Note_On_52_Vel_49
Time_Shift_3
Note_On_45_Vel_36
Time_Shift_2746
Note_On_69_Vel_0
Note_On_60_Vel_0
Time_Shift_2
Note_On_52_Vel_0
Time_Shift_1
Note_On_45_Vel_0
Time_Shift_9
Sustain_Off
