Ticks_Per_Beat_384
Tempo_500000
Time_Shift_360
Sustain_On
Time_Shift_1288
Note_On_63_Vel_33
Time_Shift_172
Note_On_65_Vel_40
Time_Shift_138
Note_On_65_Vel_0
Time_Shift_10
Note_On_65_Vel_48
Time_Shift_59
Note_On_63_Vel_0
Time_Shift_10
Note_On_63_Vel_18
Time_Shift_51
Note_On_65_Vel_0
Time_Shift_8
Note_On_65_Vel_41
Time_Shift_62
Note_On_63_Vel_0
Time_Shift_6
Note_On_63_Vel_41
Time_Shift_47
Note_On_65_Vel_0
Time_Shift_12
Note_On_65_Vel_47
Time_Shift_34
Note_On_63_Vel_0
Time_Shift_9
Note_On_63_Vel_45
Time_Shift_61
Note_On_65_Vel_0
Time_Shift_4
Note_On_65_Vel_43
Time_Shift_49
Note_On_63_Vel_0
Time_Shift_5
Note_On_63_Vel_43
Time_Shift_41
Note_On_65_Vel_0
Time_Shift_6
Note_On_65_Vel_64
Time_Shift_56
Note_On_63_Vel_0
Time_Shift_9
Note_On_63_Vel_34
Time_Shift_29
Note_On_65_Vel_0
Time_Shift_10
Note_On_65_Vel_63
Time_Shift_52
Note_On_63_Vel_0
Time_Shift_9
Note_On_63_Vel_41
Time_Shift_37
Note_On_65_Vel_0
Time_Shift_4
Note_On_65_Vel_62
Time_Shift_50
Note_On_63_Vel_0
Time_Shift_6
Note_On_63_Vel_48
Time_Shift_47
Note_On_65_Vel_0
Time_Shift_6
Note_On_65_Vel_62
Time_Shift_48
Note_On_63_Vel_0
Time_Shift_10
Note_On_63_Vel_59
Time_Shift_44
Note_On_65_Vel_0
Time_Shift_9
Note_On_65_Vel_63
Time_Shift_52
Note_On_63_Vel_0
Time_Shift_8
Note_On_63_Vel_55
Time_Shift_38
Note_On_65_Vel_0
Time_Shift_10
Note_On_65_Vel_62
Time_Shift_52
Note_On_63_Vel_0
Time_Shift_4
Note_On_63_Vel_62
Time_Shift_42
Note_On_65_Vel_0
Time_Shift_9
Note_On_65_Vel_69
Time_Shift_52
Note_On_63_Vel_0
Time_Shift_5
Note_On_63_Vel_55
Time_Shift_41
Note_On_65_Vel_0
Time_Shift_4
Note_On_65_Vel_66
Time_Shift_50
Note_On_63_Vel_0
Time_Shift_11
Note_On_63_Vel_60
Time_Shift_35
Note_On_65_Vel_0
Time_Shift_10
Note_On_65_Vel_53
Time_Shift_52
Note_On_63_Vel_0
Time_Shift_9
Note_On_63_Vel_59
Time_Shift_37
Note_On_65_Vel_0
Time_Shift_9
Note_On_65_Vel_61
Time_Shift_52
Note_On_63_Vel_0
Time_Shift_11
Note_On_63_Vel_61
Time_Shift_35
Note_On_65_Vel_0
Time_Shift_8
Note_On_65_Vel_81
Time_Shift_61
Note_On_63_Vel_0
Time_Shift_5
Note_On_63_Vel_69
Time_Shift_34
Note_On_65_Vel_0
Time_Shift_8
Note_On_65_Vel_71
Time_Shift_53
Note_On_63_Vel_0
Time_Shift_10
Note_On_63_Vel_67
Time_Shift_36
Note_On_65_Vel_0
Time_Shift_7
Note_On_65_Vel_61
Time_Shift_55
Note_On_63_Vel_0
Time_Shift_10
Note_On_63_Vel_61
Time_Shift_36
Note_On_65_Vel_0
Time_Shift_7
Note_On_65_Vel_73
Time_Shift_54
Note_On_63_Vel_0
Time_Shift_6
Note_On_63_Vel_66
Time_Shift_48
Note_On_65_Vel_0
Time_Shift_5
Note_On_65_Vel_77
Time_Shift_49
Note_On_63_Vel_0
Time_Shift_11
Note_On_63_Vel_56
Time_Shift_43
Note_On_65_Vel_0
Time_Shift_7
Note_On_65_Vel_66
Time_Shift_46
Note_On_63_Vel_0
Time_Shift_11
Note_On_63_Vel_66
Time_Shift_43
Note_On_65_Vel_0
Time_Shift_8
Note_On_65_Vel_65
Time_Shift_46
Note_On_63_Vel_0
Time_Shift_7
Note_On_63_Vel_59
Time_Shift_54
Note_On_65_Vel_0
Time_Shift_6
Note_On_65_Vel_61
Time_Shift_48
Note_On_63_Vel_0
Time_Shift_11
Note_On_63_Vel_64
Time_Shift_6
Note_On_61_Vel_73
Time_Shift_27
Note_On_53_Vel_60
Time_Shift_25
Note_On_65_Vel_0
Time_Shift_8
Note_On_65_Vel_71
Time_Shift_46
Note_On_63_Vel_0
Time_Shift_9
Note_On_63_Vel_50
Time_Shift_52
Note_On_65_Vel_0
Time_Shift_6
Note_On_65_Vel_62
Time_Shift_56
Note_On_63_Vel_0
Time_Shift_4
Note_On_63_Vel_59
Time_Shift_38
Note_On_58_Vel_67
Time_Shift_15
Note_On_49_Vel_56
Time_Shift_4
Note_On_65_Vel_0
Time_Shift_7
Note_On_65_Vel_68
Time_Shift_55
Note_On_63_Vel_0
Time_Shift_6
Note_On_63_Vel_59
Time_Shift_5
Sustain_Off
Time_Shift_7
Note_On_61_Vel_0
Time_Shift_1
Note_On_53_Vel_0
Time_Shift_34
Note_On_65_Vel_0
Time_Shift_7
Note_On_65_Vel_71
Time_Shift_55
Sustain_On
Time_Shift_8
Note_On_63_Vel_0
Time_Shift_3
Note_On_63_Vel_54
Time_Shift_50
Note_On_65_Vel_0
Time_Shift_10
Note_On_65_Vel_69
Time_Shift_52
Note_On_63_Vel_0
Time_Shift_11
Note_On_63_Vel_60
Time_Shift_50
Note_On_65_Vel_0
Time_Shift_5
Note_On_65_Vel_63
Time_Shift_57
Note_On_63_Vel_0
Time_Shift_5
Note_On_63_Vel_61
Time_Shift_56
Note_On_65_Vel_0
Time_Shift_5
Note_On_65_Vel_58
Time_Shift_49
Note_On_63_Vel_0
Time_Shift_4
Note_On_63_Vel_53
Time_Shift_34
Note_On_65_Vel_0
Time_Shift_11
Note_On_65_Vel_62
Time_Shift_74
Note_On_63_Vel_0
Time_Shift_6
Note_On_63_Vel_53
Time_Shift_55
Note_On_65_Vel_0
Time_Shift_5
Note_On_65_Vel_58
Time_Shift_49
Note_On_63_Vel_0
Time_Shift_10
Note_On_63_Vel_55
Time_Shift_36
Note_On_65_Vel_0
Time_Shift_7
Note_On_60_Vel_61
Time_Shift_4
Note_On_65_Vel_67
Time_Shift_9
Note_On_51_Vel_55
Time_Shift_41
Note_On_60_Vel_0
Time_Shift_12
Note_On_60_Vel_45
Time_Shift_19
Note_On_63_Vel_0
Time_Shift_5
Note_On_63_Vel_57
Time_Shift_41
Note_On_65_Vel_0
Time_Shift_11
Note_On_65_Vel_61
Time_Shift_51
Note_On_63_Vel_0
Time_Shift_4
Note_On_63_Vel_62
Time_Shift_57
Note_On_65_Vel_0
Time_Shift_4
Note_On_65_Vel_59
Time_Shift_23
Note_On_56_Vel_48
Time_Shift_12
Note_On_48_Vel_57
Time_Shift_12
Note_On_49_Vel_0
Time_Shift_3
Note_On_58_Vel_0
Time_Shift_1
Sustain_Off
Time_Shift_2
Note_On_65_Vel_0
Time_Shift_5
Note_On_63_Vel_0
Time_Shift_4
Note_On_63_Vel_60
Time_Shift_3
Note_On_60_Vel_0
Time_Shift_49
Note_On_65_Vel_64
Time_Shift_41
Note_On_65_Vel_0
Time_Shift_18
Note_On_63_Vel_0
Time_Shift_7
Note_On_63_Vel_59
Time_Shift_58
Note_On_65_Vel_56
Time_Shift_38
Note_On_65_Vel_0
Time_Shift_12
Note_On_63_Vel_0
Time_Shift_10
Note_On_63_Vel_56
Time_Shift_54
Note_On_65_Vel_61
Time_Shift_41
Note_On_65_Vel_0
Time_Shift_18
Note_On_63_Vel_0
Time_Shift_7
Note_On_63_Vel_50
Time_Shift_54
Sustain_On
Time_Shift_3
Note_On_65_Vel_57
Time_Shift_59
Note_On_63_Vel_0
Time_Shift_9
Note_On_63_Vel_48
Time_Shift_37
Note_On_65_Vel_0
Time_Shift_9
Note_On_65_Vel_63
Time_Shift_60
Note_On_63_Vel_0
Time_Shift_7
Note_On_63_Vel_46
Time_Shift_62
Note_On_65_Vel_0
Time_Shift_9
Note_On_65_Vel_54
Time_Shift_37
Note_On_63_Vel_0
Time_Shift_9
Note_On_63_Vel_42
Time_Shift_68
Note_On_65_Vel_0
Time_Shift_10
Note_On_65_Vel_54
Time_Shift_36
Note_On_63_Vel_0
Time_Shift_10
Note_On_63_Vel_38
Time_Shift_59
Note_On_65_Vel_0
Time_Shift_4
Note_On_65_Vel_54
Time_Shift_50
Note_On_63_Vel_0
Time_Shift_8
Note_On_63_Vel_39
Time_Shift_46
Note_On_65_Vel_0
Time_Shift_5
Note_On_65_Vel_64
Time_Shift_5
Note_On_55_Vel_44
Time_Shift_30
Note_On_46_Vel_38
Time_Shift_9
Note_On_48_Vel_0
Time_Shift_5
Sustain_Off
Time_Shift_22
Note_On_51_Vel_0
Note_On_63_Vel_0
Time_Shift_8
Note_On_56_Vel_0
Time_Shift_4
Note_On_63_Vel_51
Time_Shift_42
Note_On_65_Vel_0
Time_Shift_5
Note_On_65_Vel_55
Time_Shift_51
Note_On_65_Vel_0
Time_Shift_13
Note_On_63_Vel_0
Time_Shift_8
Note_On_63_Vel_52
Time_Shift_57
Note_On_65_Vel_51
Time_Shift_20
Note_On_63_Vel_0
Time_Shift_41
Note_On_63_Vel_53
Time_Shift_28
Note_On_63_Vel_0
Time_Shift_15
Note_On_65_Vel_0
Time_Shift_4
Note_On_65_Vel_59
Time_Shift_71
Note_On_63_Vel_53
Time_Shift_25
Note_On_65_Vel_0
Time_Shift_38
Note_On_63_Vel_0
Time_Shift_6
Note_On_65_Vel_47
Time_Shift_57
Note_On_63_Vel_54
Time_Shift_60
Note_On_63_Vel_0
Note_On_65_Vel_0
Time_Shift_9
Note_On_65_Vel_56
Time_Shift_51
Note_On_63_Vel_58
Time_Shift_25
Note_On_65_Vel_0
Time_Shift_16
Note_On_63_Vel_0
Time_Shift_56
Note_On_65_Vel_32
Time_Shift_69
Note_On_63_Vel_48
Time_Shift_94
Note_On_62_Vel_47
Time_Shift_3
Sustain_On
Time_Shift_77
Note_On_63_Vel_0
Time_Shift_4
Note_On_63_Vel_36
Time_Shift_88
Note_On_63_Vel_0
Time_Shift_11
Note_On_63_Vel_56
Time_Shift_253
Note_On_44_Vel_40
Time_Shift_118
Note_On_72_Vel_67
Time_Shift_29
Note_On_62_Vel_0
Note_On_63_Vel_0
Time_Shift_1
Note_On_46_Vel_0
Note_On_55_Vel_0
Time_Shift_1
Sustain_Off
Time_Shift_9
Note_On_65_Vel_0
Time_Shift_77
Sustain_On
Time_Shift_119
Note_On_62_Vel_46
Time_Shift_113
Note_On_63_Vel_49
Time_Shift_9
Note_On_60_Vel_37
Time_Shift_8
Note_On_51_Vel_38
Time_Shift_16
Note_On_56_Vel_38
Time_Shift_91
Note_On_73_Vel_80
Time_Shift_105
Note_On_51_Vel_0
Time_Shift_9
Note_On_51_Vel_41
Time_Shift_8
Note_On_64_Vel_55
Time_Shift_81
Note_On_65_Vel_60
Time_Shift_102
Note_On_72_Vel_0
Time_Shift_4
Note_On_72_Vel_73
Time_Shift_8
Note_On_39_Vel_45
Time_Shift_2
Note_On_73_Vel_0
Time_Shift_2
Note_On_56_Vel_0
Note_On_63_Vel_0
Note_On_62_Vel_0
Note_On_64_Vel_0
Time_Shift_1
Note_On_51_Vel_0
Note_On_65_Vel_0
Time_Shift_16
Sustain_Off
Time_Shift_5
Note_On_44_Vel_0
Time_Shift_15
Sustain_On
Time_Shift_110
Note_On_61_Vel_31
Time_Shift_6
Note_On_61_Vel_0
Time_Shift_87
Note_On_55_Vel_49
Note_On_61_Vel_27
Time_Shift_1
Note_On_51_Vel_33
Time_Shift_78
Note_On_70_Vel_78
Time_Shift_79
Note_On_60_Vel_0
Time_Shift_5
Note_On_60_Vel_58
Time_Shift_3
Note_On_51_Vel_0
Note_On_55_Vel_0
Time_Shift_4
Note_On_51_Vel_48
Time_Shift_6
Note_On_55_Vel_45
Time_Shift_59
Note_On_61_Vel_0
Time_Shift_11
Note_On_61_Vel_62
Time_Shift_81
Note_On_70_Vel_0
Time_Shift_8
Note_On_70_Vel_84
Time_Shift_7
Note_On_40_Vel_51
Time_Shift_3
Note_On_60_Vel_0
Time_Shift_1
Note_On_51_Vel_0
Note_On_55_Vel_0
Time_Shift_1
Note_On_39_Vel_0
Time_Shift_1
Note_On_61_Vel_0
Time_Shift_6
Sustain_Off
Time_Shift_12
Note_On_72_Vel_0
Time_Shift_53
Sustain_On
Time_Shift_21
Note_On_60_Vel_63
Time_Shift_91
Note_On_61_Vel_69
Time_Shift_19
Note_On_40_Vel_0
Time_Shift_4
Note_On_55_Vel_51
Time_Shift_1
Note_On_40_Vel_46
Note_On_49_Vel_54
Time_Shift_10
Note_On_49_Vel_0
Time_Shift_41
Note_On_72_Vel_90
Time_Shift_82
Note_On_61_Vel_0
Time_Shift_1
Note_On_62_Vel_70
Time_Shift_9
Note_On_61_Vel_57
Time_Shift_78
Note_On_63_Vel_68
Time_Shift_73
Note_On_70_Vel_0
Time_Shift_8
Note_On_70_Vel_86
Time_Shift_17
Note_On_41_Vel_47
Time_Shift_10
Sustain_Off
Time_Shift_1
Note_On_60_Vel_0
Time_Shift_1
Note_On_40_Vel_0
Note_On_61_Vel_0
Time_Shift_1
Note_On_63_Vel_0
Note_On_72_Vel_0
Time_Shift_2
Note_On_62_Vel_0
Time_Shift_14
Note_On_55_Vel_0
Time_Shift_34
Note_On_63_Vel_49
Time_Shift_22
Note_On_60_Vel_59
Time_Shift_13
Sustain_On
Time_Shift_78
Note_On_61_Vel_65
Time_Shift_2
Note_On_48_Vel_63
Time_Shift_8
Note_On_56_Vel_59
Time_Shift_58
Note_On_41_Vel_0
Time_Shift_14
Note_On_68_Vel_85
Time_Shift_88
Note_On_59_Vel_64
Time_Shift_21
Note_On_48_Vel_0
Time_Shift_6
Note_On_48_Vel_59
Time_Shift_33
Note_On_60_Vel_0
Time_Shift_10
Note_On_60_Vel_61
Time_Shift_84
Note_On_48_Vel_0
Note_On_61_Vel_0
Time_Shift_1
Note_On_56_Vel_0
Note_On_68_Vel_0
Time_Shift_1
Note_On_67_Vel_85
Sustain_Off
Note_On_59_Vel_0
Time_Shift_11
Note_On_70_Vel_0
Time_Shift_8
Note_On_60_Vel_0
Time_Shift_84
Sustain_On
Time_Shift_5
Note_On_58_Vel_59
Time_Shift_86
Note_On_59_Vel_66
Time_Shift_5
Note_On_56_Vel_59
Time_Shift_14
Note_On_50_Vel_49
Time_Shift_65
Note_On_65_Vel_75
Time_Shift_63
Note_On_58_Vel_0
Time_Shift_8
Note_On_50_Vel_0
Time_Shift_3
Note_On_58_Vel_69
Time_Shift_7
Note_On_50_Vel_59
Time_Shift_13
Note_On_63_Vel_0
Time_Shift_46
Note_On_59_Vel_0
Time_Shift_6
Note_On_59_Vel_78
Time_Shift_83
Note_On_39_Vel_61
Time_Shift_1
Note_On_63_Vel_75
Time_Shift_23
Note_On_56_Vel_0
Note_On_65_Vel_0
Note_On_59_Vel_0
Time_Shift_1
Note_On_67_Vel_0
Note_On_50_Vel_0
Time_Shift_3
Sustain_Off
Time_Shift_14
Note_On_58_Vel_0
Time_Shift_38
Note_On_39_Vel_0
Time_Shift_22
Note_On_59_Vel_60
Time_Shift_60
Note_On_51_Vel_55
Time_Shift_13
Note_On_60_Vel_63
Time_Shift_77
Note_On_60_Vel_0
Time_Shift_1
Note_On_68_Vel_73
Time_Shift_2
Note_On_51_Vel_0
Time_Shift_4
Note_On_63_Vel_0
Time_Shift_13
Note_On_59_Vel_0
Time_Shift_46
Note_On_51_Vel_55
Time_Shift_6
Note_On_59_Vel_53
Time_Shift_5
Note_On_56_Vel_51
Time_Shift_66
Note_On_59_Vel_0
Time_Shift_4
Note_On_60_Vel_58
Time_Shift_3
Note_On_59_Vel_56
Time_Shift_80
Note_On_63_Vel_75
Time_Shift_1
Note_On_39_Vel_59
Time_Shift_2
Note_On_51_Vel_0
Note_On_60_Vel_0
Time_Shift_37
Note_On_39_Vel_0
Time_Shift_4
Note_On_59_Vel_0
Time_Shift_5
Note_On_68_Vel_0
Time_Shift_2
Note_On_56_Vel_0
Time_Shift_42
Note_On_60_Vel_51
Time_Shift_22
Note_On_51_Vel_33
Time_Shift_54
Note_On_61_Vel_71
Time_Shift_2
Note_On_60_Vel_0
Time_Shift_1
Note_On_55_Vel_55
Time_Shift_9
Note_On_51_Vel_0
Note_On_63_Vel_0
Time_Shift_55
Note_On_55_Vel_0
Time_Shift_1
Note_On_61_Vel_0
Time_Shift_14
Note_On_70_Vel_75
Time_Shift_78
Note_On_60_Vel_58
Time_Shift_2
Note_On_55_Vel_51
Time_Shift_7
Note_On_51_Vel_46
Time_Shift_24
Note_On_60_Vel_0
Time_Shift_1
Note_On_55_Vel_0
Time_Shift_28
Note_On_61_Vel_67
Time_Shift_21
Note_On_51_Vel_0
Time_Shift_19
Note_On_61_Vel_0
Time_Shift_62
Note_On_63_Vel_74
Note_On_44_Vel_50
Time_Shift_27
Sustain_On
Time_Shift_60
Note_On_59_Vel_59
Time_Shift_83
Note_On_60_Vel_63
Note_On_56_Vel_62
Time_Shift_4
Note_On_51_Vel_50
Time_Shift_73
Sustain_Off
Time_Shift_4
Note_On_72_Vel_85
Time_Shift_6
Sustain_On
Time_Shift_77
Note_On_56_Vel_0
Time_Shift_7
Note_On_62_Vel_70
Time_Shift_4
Note_On_56_Vel_52
Time_Shift_73
Note_On_63_Vel_0
Time_Shift_7
Note_On_63_Vel_73
Time_Shift_78
Note_On_44_Vel_0
Note_On_72_Vel_0
Time_Shift_5
Note_On_44_Vel_58
Time_Shift_2
Note_On_72_Vel_92
Time_Shift_118
Note_On_64_Vel_52
Time_Shift_67
Note_On_60_Vel_0
Time_Shift_6
Note_On_65_Vel_64
Time_Shift_3
Note_On_60_Vel_58
Time_Shift_1
Note_On_53_Vel_57
Time_Shift_71
Note_On_73_Vel_92
Time_Shift_88
Note_On_64_Vel_0
Time_Shift_7
Note_On_60_Vel_0
Time_Shift_4
Note_On_64_Vel_66
Time_Shift_4
Note_On_60_Vel_44
Time_Shift_69
Note_On_65_Vel_0
Time_Shift_8
Note_On_65_Vel_67
Time_Shift_69
Note_On_72_Vel_0
Time_Shift_4
Note_On_43_Vel_53
Note_On_31_Vel_53
Time_Shift_1
Note_On_72_Vel_88
Time_Shift_3
Note_On_31_Vel_0
Time_Shift_10
Note_On_51_Vel_0
Time_Shift_1
Note_On_65_Vel_0
Note_On_70_Vel_0
Note_On_60_Vel_0
Note_On_59_Vel_0
Note_On_73_Vel_0
Note_On_56_Vel_0
Note_On_53_Vel_0
Note_On_44_Vel_0
Note_On_63_Vel_0
Time_Shift_1
Note_On_62_Vel_0
Time_Shift_1
Sustain_Off
Time_Shift_17
Note_On_64_Vel_0
Time_Shift_39
Sustain_On
Time_Shift_42
Note_On_64_Vel_55
Time_Shift_4
Note_On_43_Vel_0
Time_Shift_63
Note_On_58_Vel_50
Time_Shift_3
Note_On_49_Vel_54
Time_Shift_28
Note_On_65_Vel_59
Time_Shift_61
Note_On_70_Vel_83
Time_Shift_52
Note_On_49_Vel_0
Time_Shift_11
Note_On_49_Vel_72
Time_Shift_12
Note_On_64_Vel_0
Time_Shift_6
Note_On_64_Vel_52
Time_Shift_71
Note_On_65_Vel_0
Time_Shift_11
Note_On_65_Vel_62
Time_Shift_67
Note_On_36_Vel_59
Time_Shift_7
Note_On_70_Vel_0
Time_Shift_3
Note_On_58_Vel_0
Time_Shift_1
Note_On_64_Vel_0
Sustain_Off
Time_Shift_2
Note_On_65_Vel_0
Time_Shift_1
Note_On_70_Vel_76
Time_Shift_8
Note_On_49_Vel_0
Time_Shift_8
Note_On_72_Vel_0
Time_Shift_38
Sustain_On
Time_Shift_69
Note_On_63_Vel_61
Time_Shift_51
Note_On_48_Vel_60
Time_Shift_2
Note_On_67_Vel_61
Note_On_58_Vel_58
Time_Shift_5
Note_On_64_Vel_62
Time_Shift_77
Note_On_72_Vel_82
Time_Shift_73
Note_On_63_Vel_0
Time_Shift_10
Note_On_63_Vel_59
Time_Shift_1
Note_On_55_Vel_44
Time_Shift_81
Note_On_64_Vel_0
Time_Shift_9
Note_On_64_Vel_46
Time_Shift_83
Note_On_70_Vel_0
Time_Shift_2
Note_On_41_Vel_45
Time_Shift_9
Note_On_70_Vel_81
Time_Shift_10
Note_On_67_Vel_0
Time_Shift_1
Note_On_64_Vel_0
Note_On_58_Vel_0
Note_On_63_Vel_0
Time_Shift_1
Note_On_48_Vel_0
Note_On_36_Vel_0
Note_On_72_Vel_0
Time_Shift_3
Sustain_Off
Time_Shift_12
Note_On_55_Vel_0
Time_Shift_39
Sustain_On
Time_Shift_25
Note_On_64_Vel_48
Time_Shift_93
Note_On_48_Vel_61
Time_Shift_1
Note_On_56_Vel_60
Note_On_65_Vel_67
Time_Shift_80
Note_On_68_Vel_81
Time_Shift_54
Note_On_64_Vel_0
Time_Shift_9
Note_On_64_Vel_50
Time_Shift_12
Note_On_63_Vel_51
Time_Shift_3
Note_On_60_Vel_52
Time_Shift_7
Note_On_63_Vel_0
Time_Shift_8
Note_On_56_Vel_0
Time_Shift_4
Note_On_56_Vel_53
Time_Shift_3
Note_On_48_Vel_0
Time_Shift_6
Note_On_48_Vel_61
Time_Shift_40
Note_On_65_Vel_0
Time_Shift_7
Note_On_65_Vel_64
Time_Shift_80
Note_On_56_Vel_0
Time_Shift_1
Note_On_65_Vel_0
Note_On_60_Vel_0
Note_On_68_Vel_0
Time_Shift_3
Note_On_67_Vel_82
Time_Shift_3
Note_On_38_Vel_50
Time_Shift_2
Sustain_Off
Time_Shift_4
Note_On_41_Vel_0
Note_On_64_Vel_0
Note_On_70_Vel_0
Time_Shift_8
Note_On_48_Vel_0
Time_Shift_46
Sustain_On
Time_Shift_12
Note_On_60_Vel_42
Time_Shift_39
Note_On_58_Vel_54
Time_Shift_76
Note_On_51_Vel_45
Note_On_56_Vel_55
Time_Shift_4
Note_On_59_Vel_57
Time_Shift_30
Note_On_38_Vel_0
Time_Shift_44
Note_On_65_Vel_79
Time_Shift_71
Note_On_59_Vel_0
Time_Shift_6
Note_On_59_Vel_54
Time_Shift_2
Note_On_56_Vel_0
Time_Shift_6
Note_On_56_Vel_42
Time_Shift_2
Note_On_51_Vel_0
Time_Shift_9
Note_On_51_Vel_26
Time_Shift_68
Note_On_59_Vel_0
Time_Shift_10
Note_On_59_Vel_59
Time_Shift_77
Note_On_63_Vel_74
Note_On_56_Vel_0
Note_On_58_Vel_0
Time_Shift_1
Note_On_65_Vel_0
Note_On_67_Vel_0
Time_Shift_1
Note_On_51_Vel_0
Time_Shift_2
Sustain_Off
Time_Shift_1
Note_On_60_Vel_0
Time_Shift_3
Note_On_39_Vel_57
Time_Shift_35
Sustain_On
Time_Shift_38
Note_On_59_Vel_0
Time_Shift_11
Note_On_59_Vel_56
Time_Shift_89
Note_On_63_Vel_0
Time_Shift_4
Note_On_60_Vel_56
Time_Shift_1
Note_On_63_Vel_52
Time_Shift_17
Note_On_51_Vel_41
Time_Shift_11
Note_On_56_Vel_37
Time_Shift_50
Note_On_68_Vel_81
Time_Shift_50
Sustain_Off
Time_Shift_29
Sustain_On
Time_Shift_23
Note_On_68_Vel_0
Time_Shift_4
Note_On_62_Vel_54
Note_On_68_Vel_60
Time_Shift_72
Note_On_63_Vel_0
Time_Shift_10
Note_On_63_Vel_66
Time_Shift_113
Note_On_68_Vel_0
Time_Shift_3
Note_On_72_Vel_72
Time_Shift_7
Note_On_68_Vel_56
Time_Shift_6
Note_On_39_Vel_0
Time_Shift_5
Note_On_56_Vel_0
Time_Shift_1
Note_On_63_Vel_0
Note_On_60_Vel_0
Note_On_59_Vel_0
Time_Shift_3
Note_On_62_Vel_0
Note_On_39_Vel_44
Time_Shift_1
Note_On_51_Vel_0
Time_Shift_1
Sustain_Off
Time_Shift_73
Sustain_On
Time_Shift_39
Note_On_39_Vel_0
Time_Shift_10
Note_On_62_Vel_53
Time_Shift_93
Note_On_55_Vel_49
Time_Shift_5
Note_On_63_Vel_47
Time_Shift_1
Note_On_51_Vel_39
Time_Shift_1
Note_On_60_Vel_37
Time_Shift_66
Note_On_70_Vel_70
Time_Shift_77
Note_On_55_Vel_0
Time_Shift_11
Note_On_55_Vel_45
Time_Shift_27
Note_On_63_Vel_0
Time_Shift_8
Note_On_60_Vel_0
Time_Shift_2
Note_On_63_Vel_44
Time_Shift_2
Note_On_60_Vel_41
Time_Shift_77
Note_On_61_Vel_57
Time_Shift_96
Note_On_72_Vel_0
Time_Shift_8
Note_On_72_Vel_49
Time_Shift_4
Note_On_44_Vel_43
Time_Shift_3
Note_On_63_Vel_0
Note_On_60_Vel_0
Time_Shift_1
Note_On_62_Vel_0
Note_On_61_Vel_0
Time_Shift_1
Note_On_70_Vel_0
Note_On_32_Vel_38
Time_Shift_6
Note_On_32_Vel_0
Time_Shift_4
Sustain_Off
Time_Shift_3
Note_On_68_Vel_0
Time_Shift_8
Note_On_55_Vel_0
Time_Shift_2
Note_On_68_Vel_57
Time_Shift_52
Sustain_On
Time_Shift_31
Note_On_51_Vel_0
Time_Shift_31
Note_On_60_Vel_52
Time_Shift_89
Note_On_63_Vel_55
Time_Shift_6
Note_On_56_Vel_38
Time_Shift_50
Note_On_68_Vel_0
Time_Shift_11
Note_On_68_Vel_71
Time_Shift_89
Note_On_72_Vel_0
Time_Shift_5
Note_On_72_Vel_72
Time_Shift_80
Note_On_75_Vel_73
Time_Shift_31
Sustain_Off
Time_Shift_1
Note_On_63_Vel_0
Note_On_44_Vel_0
Time_Shift_1
Note_On_72_Vel_0
Time_Shift_1
Note_On_60_Vel_0
Time_Shift_3
Note_On_75_Vel_0
Time_Shift_16
Note_On_56_Vel_0
Note_On_68_Vel_0
Time_Shift_34
Note_On_84_Vel_80
Time_Shift_2
Note_On_56_Vel_60
Time_Shift_26
Sustain_On
Time_Shift_6
Note_On_56_Vel_0
Time_Shift_67
Note_On_74_Vel_51
Time_Shift_61
Note_On_75_Vel_60
Time_Shift_14
Note_On_72_Vel_66
Time_Shift_23
Note_On_68_Vel_53
Time_Shift_5
Note_On_75_Vel_0
Time_Shift_4
Note_On_72_Vel_0
Time_Shift_3
Sustain_Off
Time_Shift_1
Note_On_74_Vel_0
Time_Shift_31
Note_On_68_Vel_0
Note_On_84_Vel_0
Time_Shift_7
Sustain_On
Time_Shift_10
Note_On_85_Vel_84
Time_Shift_64
Note_On_63_Vel_60
Time_Shift_4
Note_On_68_Vel_60
Time_Shift_24
Note_On_76_Vel_67
Time_Shift_70
Note_On_77_Vel_71
Time_Shift_39
Note_On_85_Vel_0
Note_On_76_Vel_0
Time_Shift_2
Note_On_68_Vel_0
Note_On_77_Vel_0
Time_Shift_1
Note_On_63_Vel_0
Time_Shift_2
Sustain_Off
Time_Shift_31
Note_On_84_Vel_85
Note_On_51_Vel_64
Time_Shift_26
Note_On_51_Vel_0
Time_Shift_61
Note_On_74_Vel_58
Time_Shift_41
Note_On_74_Vel_0
Time_Shift_27
Note_On_75_Vel_75
Time_Shift_1
Note_On_67_Vel_65
Time_Shift_24
Note_On_67_Vel_0
Time_Shift_4
Note_On_75_Vel_0
Time_Shift_48
Note_On_82_Vel_84
Time_Shift_28
Note_On_84_Vel_0
Time_Shift_39
Sustain_On
Time_Shift_5
Note_On_72_Vel_67
Time_Shift_3
Note_On_58_Vel_62
Time_Shift_5
Note_On_67_Vel_47
Time_Shift_63
Note_On_73_Vel_72
Time_Shift_62
Note_On_82_Vel_0
Time_Shift_11
Note_On_82_Vel_89
Time_Shift_7
Sustain_Off
Time_Shift_1
Note_On_67_Vel_0
Note_On_73_Vel_0
Note_On_52_Vel_62
Note_On_58_Vel_0
Note_On_72_Vel_0
Time_Shift_38
Note_On_52_Vel_0
Time_Shift_31
Note_On_72_Vel_72
Time_Shift_66
Note_On_72_Vel_0
Time_Shift_6
Note_On_73_Vel_74
Time_Shift_20
Note_On_67_Vel_64
Time_Shift_1
Note_On_58_Vel_56
Note_On_61_Vel_51
Time_Shift_19
Note_On_82_Vel_0
Time_Shift_4
Note_On_73_Vel_0
Note_On_67_Vel_0
Time_Shift_6
Note_On_61_Vel_0
Time_Shift_1
Note_On_58_Vel_0
Time_Shift_28
Note_On_84_Vel_92
Time_Shift_45
Sustain_On
Time_Shift_30
Note_On_74_Vel_74
Time_Shift_2
Note_On_58_Vel_55
Time_Shift_3
Note_On_67_Vel_67
Time_Shift_77
Note_On_75_Vel_75
Time_Shift_60
Note_On_82_Vel_90
Time_Shift_3
Note_On_75_Vel_0
Time_Shift_1
Note_On_67_Vel_0
Time_Shift_3
Note_On_84_Vel_0
Note_On_74_Vel_0
Time_Shift_2
Note_On_53_Vel_66
Note_On_58_Vel_0
Sustain_Off
Time_Shift_32
Note_On_53_Vel_0
Time_Shift_45
Note_On_72_Vel_69
Time_Shift_67
Note_On_72_Vel_0
Time_Shift_3
Note_On_68_Vel_72
Time_Shift_2
Note_On_73_Vel_75
Time_Shift_8
Note_On_60_Vel_43
Time_Shift_2
Note_On_56_Vel_59
Time_Shift_16
Note_On_68_Vel_0
Time_Shift_28
Note_On_56_Vel_0
Note_On_60_Vel_0
Note_On_73_Vel_0
Time_Shift_16
Sustain_On
Time_Shift_11
Note_On_80_Vel_86
Time_Shift_68
Note_On_71_Vel_69
Time_Shift_3
Note_On_60_Vel_57
Time_Shift_2
Note_On_68_Vel_67
Time_Shift_2
Note_On_56_Vel_63
Time_Shift_72
Note_On_72_Vel_69
Time_Shift_41
Note_On_82_Vel_0
Time_Shift_9
Note_On_71_Vel_0
Time_Shift_2
Note_On_56_Vel_0
Note_On_72_Vel_0
Note_On_80_Vel_0
Time_Shift_1
Note_On_60_Vel_0
Sustain_Off
Note_On_68_Vel_0
Time_Shift_15
Note_On_50_Vel_60
Note_On_79_Vel_90
Time_Shift_36
Note_On_50_Vel_0
Time_Shift_51
Note_On_70_Vel_72
Time_Shift_33
Note_On_70_Vel_0
Time_Shift_38
Note_On_71_Vel_71
Time_Shift_2
Note_On_65_Vel_57
Time_Shift_5
Note_On_56_Vel_52
Note_On_68_Vel_55
Time_Shift_27
Note_On_65_Vel_0
Time_Shift_29
Note_On_71_Vel_0
Time_Shift_6
Note_On_56_Vel_0
Time_Shift_8
Note_On_77_Vel_83
Time_Shift_8
Note_On_79_Vel_0
Time_Shift_55
Note_On_56_Vel_59
Note_On_65_Vel_53
Time_Shift_9
Note_On_70_Vel_70
Time_Shift_23
Note_On_65_Vel_0
Time_Shift_8
Note_On_56_Vel_0
Time_Shift_4
Note_On_68_Vel_0
Time_Shift_5
Note_On_70_Vel_0
Time_Shift_21
Note_On_71_Vel_72
Time_Shift_87
Note_On_51_Vel_57
Time_Shift_1
Note_On_75_Vel_83
Time_Shift_5
Note_On_71_Vel_0
Time_Shift_27
Note_On_77_Vel_0
Time_Shift_5
Note_On_51_Vel_0
Time_Shift_33
Sustain_On
Time_Shift_10
Note_On_71_Vel_53
Time_Shift_69
Note_On_72_Vel_71
Time_Shift_3
Note_On_56_Vel_60
Time_Shift_6
Note_On_68_Vel_59
Note_On_63_Vel_57
Time_Shift_2
Note_On_60_Vel_50
Time_Shift_2
Note_On_68_Vel_0
Time_Shift_6
Note_On_75_Vel_0
Time_Shift_7
Sustain_Off
Time_Shift_7
Note_On_63_Vel_0
Note_On_56_Vel_0
Time_Shift_11
Note_On_71_Vel_0
Time_Shift_1
Note_On_60_Vel_0
Time_Shift_11
Note_On_72_Vel_0
Time_Shift_20
Note_On_80_Vel_77
Time_Shift_66
Note_On_71_Vel_61
Time_Shift_5
Note_On_56_Vel_59
Time_Shift_3
Note_On_60_Vel_40
Time_Shift_32
Note_On_56_Vel_0
Time_Shift_4
Note_On_80_Vel_0
Time_Shift_6
Note_On_71_Vel_0
Time_Shift_8
Note_On_72_Vel_71
Time_Shift_13
Note_On_60_Vel_0
Time_Shift_63
Note_On_72_Vel_0
Time_Shift_8
Note_On_75_Vel_81
Time_Shift_4
Note_On_51_Vel_48
Time_Shift_32
Note_On_51_Vel_0
Time_Shift_46
Note_On_72_Vel_66
Time_Shift_58
Note_On_75_Vel_0
Note_On_72_Vel_0
Time_Shift_4
Note_On_73_Vel_74
Time_Shift_3
Note_On_67_Vel_64
Time_Shift_8
Note_On_63_Vel_46
Time_Shift_4
Note_On_63_Vel_0
Time_Shift_19
Note_On_67_Vel_0
Time_Shift_15
Note_On_73_Vel_0
Time_Shift_31
Note_On_82_Vel_82
Time_Shift_70
Note_On_72_Vel_64
Time_Shift_2
Note_On_67_Vel_58
Time_Shift_3
Note_On_58_Vel_51
Time_Shift_30
Note_On_58_Vel_0
Time_Shift_4
Note_On_72_Vel_0
Time_Shift_11
Note_On_67_Vel_0
Time_Shift_1
Note_On_73_Vel_76
Time_Shift_60
Note_On_82_Vel_0
Time_Shift_23
Sustain_On
Time_Shift_8
Note_On_75_Vel_80
Time_Shift_2
Note_On_56_Vel_61
Time_Shift_5
Note_On_68_Vel_58
Time_Shift_8
Note_On_68_Vel_0
Time_Shift_13
Note_On_72_Vel_40
Time_Shift_52
Note_On_71_Vel_69
Time_Shift_59
Note_On_68_Vel_70
Time_Shift_4
Sustain_Off
Time_Shift_10
Note_On_72_Vel_0
Time_Shift_6
Note_On_72_Vel_67
Time_Shift_5
Note_On_63_Vel_58
Time_Shift_28
Sustain_On
Time_Shift_37
Note_On_84_Vel_91
Time_Shift_86
Note_On_63_Vel_0
Note_On_68_Vel_0
Time_Shift_3
Note_On_74_Vel_62
Time_Shift_6
Note_On_68_Vel_63
Time_Shift_1
Note_On_63_Vel_51
Time_Shift_59
Note_On_75_Vel_0
Time_Shift_10
Note_On_75_Vel_75
Time_Shift_59
Note_On_73_Vel_0
Time_Shift_8
Note_On_56_Vel_0
Note_On_68_Vel_0
Note_On_84_Vel_0
Time_Shift_2
Note_On_74_Vel_0
Time_Shift_1
Note_On_71_Vel_0
Time_Shift_1
Note_On_72_Vel_0
Note_On_75_Vel_0
Time_Shift_1
Note_On_63_Vel_0
Note_On_68_Vel_66
Note_On_56_Vel_73
Time_Shift_1
Note_On_84_Vel_90
Time_Shift_5
Sustain_Off
Time_Shift_42
Note_On_68_Vel_0
Sustain_On
Time_Shift_52
Note_On_76_Vel_73
Time_Shift_77
Note_On_77_Vel_72
Time_Shift_2
Note_On_65_Vel_67
Time_Shift_2
Note_On_60_Vel_65
Time_Shift_1
Note_On_68_Vel_70
Time_Shift_70
Note_On_85_Vel_93
Time_Shift_73
Note_On_68_Vel_0
Time_Shift_6
Note_On_68_Vel_73
Time_Shift_2
Note_On_60_Vel_0
Note_On_76_Vel_0
Time_Shift_4
Note_On_60_Vel_43
Time_Shift_2
Note_On_76_Vel_71
Time_Shift_70
Note_On_77_Vel_0
Time_Shift_6
Note_On_77_Vel_70
Time_Shift_38
Note_On_85_Vel_0
Time_Shift_1
Note_On_76_Vel_0
Note_On_65_Vel_0
Note_On_56_Vel_0
Time_Shift_1
Note_On_60_Vel_0
Note_On_77_Vel_0
Time_Shift_3
Sustain_Off
Time_Shift_13
Note_On_68_Vel_0
Time_Shift_2
Note_On_67_Vel_68
Time_Shift_2
Note_On_55_Vel_67
Time_Shift_4
Note_On_84_Vel_0
Time_Shift_3
Note_On_84_Vel_90
Time_Shift_28
Note_On_55_Vel_0
Time_Shift_15
Note_On_67_Vel_0
Sustain_On
Time_Shift_45
Note_On_76_Vel_76
Time_Shift_73
Note_On_77_Vel_72
Note_On_70_Vel_66
Time_Shift_8
Note_On_61_Vel_64
Note_On_65_Vel_46
Time_Shift_71
Note_On_82_Vel_87
Time_Shift_56
Note_On_61_Vel_0
Time_Shift_8
Note_On_70_Vel_0
Note_On_76_Vel_0
Time_Shift_3
Note_On_61_Vel_65
Time_Shift_3
Note_On_76_Vel_73
Time_Shift_2
Note_On_70_Vel_57
Time_Shift_53
Note_On_77_Vel_0
Time_Shift_7
Note_On_77_Vel_73
Time_Shift_44
Note_On_70_Vel_0
Sustain_Off
Note_On_76_Vel_0
Note_On_61_Vel_0
Note_On_84_Vel_0
Time_Shift_1
Note_On_77_Vel_0
Time_Shift_25
Note_On_65_Vel_0
Note_On_82_Vel_0
Time_Shift_5
Note_On_48_Vel_64
Time_Shift_6
Note_On_82_Vel_88
Time_Shift_25
Note_On_48_Vel_0
Time_Shift_60
Note_On_75_Vel_72
Time_Shift_39
Note_On_82_Vel_0
Time_Shift_1
Note_On_75_Vel_0
Time_Shift_21
Note_On_67_Vel_70
Time_Shift_2
Note_On_76_Vel_70
Time_Shift_17
Note_On_58_Vel_41
Time_Shift_13
Note_On_67_Vel_0
Time_Shift_18
Note_On_58_Vel_0
Time_Shift_23
Note_On_76_Vel_0
Time_Shift_9
Note_On_84_Vel_87
Time_Shift_37
Sustain_On
Time_Shift_28
Note_On_58_Vel_47
Time_Shift_4
Note_On_67_Vel_56
Time_Shift_1
Note_On_75_Vel_68
Time_Shift_1
Note_On_60_Vel_47
Time_Shift_63
Note_On_76_Vel_72
Time_Shift_75
Note_On_82_Vel_84
Time_Shift_3
Note_On_53_Vel_62
Time_Shift_36
Note_On_84_Vel_0
Time_Shift_1
Note_On_67_Vel_0
Note_On_76_Vel_0
Note_On_75_Vel_0
Time_Shift_2
Sustain_Off
Time_Shift_5
Note_On_53_Vel_0
Time_Shift_4
Note_On_58_Vel_0
Note_On_60_Vel_0
Time_Shift_53
Note_On_76_Vel_71
Time_Shift_9
Sustain_On
Time_Shift_49
Note_On_77_Vel_70
Time_Shift_3
Note_On_65_Vel_60
Time_Shift_6
Note_On_56_Vel_59
Time_Shift_6
Note_On_60_Vel_42
Time_Shift_63
Note_On_80_Vel_77
Time_Shift_49
Note_On_76_Vel_0
Time_Shift_5
Note_On_76_Vel_74
Time_Shift_26
Note_On_56_Vel_0
Note_On_60_Vel_0
Time_Shift_9
Note_On_60_Vel_41
Time_Shift_2
Note_On_56_Vel_54
Time_Shift_27
Note_On_77_Vel_0
Time_Shift_10
Note_On_77_Vel_74
Time_Shift_62
Note_On_82_Vel_0
Time_Shift_1
Note_On_60_Vel_0
Note_On_65_Vel_0
Note_On_56_Vel_0
Sustain_Off
Note_On_76_Vel_0
Note_On_80_Vel_0
Time_Shift_1
Note_On_77_Vel_0
Time_Shift_21
Note_On_79_Vel_79
Time_Shift_2
Note_On_50_Vel_54
Time_Shift_37
Note_On_50_Vel_0
Time_Shift_35
Note_On_70_Vel_66
Time_Shift_74
Note_On_68_Vel_53
Time_Shift_22
Note_On_56_Vel_53
Time_Shift_1
Note_On_65_Vel_47
Time_Shift_8
Note_On_60_Vel_43
Time_Shift_34
Note_On_70_Vel_0
Time_Shift_25
Note_On_77_Vel_72
Time_Shift_59
Note_On_56_Vel_0
Note_On_65_Vel_0
Time_Shift_8
Note_On_70_Vel_63
Time_Shift_2
Note_On_56_Vel_49
Note_On_65_Vel_47
Time_Shift_13
Note_On_60_Vel_0
Time_Shift_12
Note_On_65_Vel_0
Time_Shift_3
Note_On_68_Vel_0
Time_Shift_4
Note_On_56_Vel_0
Time_Shift_12
Note_On_70_Vel_0
Time_Shift_23
Note_On_71_Vel_59
Time_Shift_65
Note_On_71_Vel_0
Time_Shift_4
Note_On_79_Vel_0
Time_Shift_16
Note_On_75_Vel_73
Time_Shift_10
Note_On_51_Vel_48
Time_Shift_8
Note_On_56_Vel_39
Time_Shift_4
Sustain_On
Time_Shift_23
Note_On_77_Vel_0
Time_Shift_35
Note_On_71_Vel_56
Time_Shift_81
Note_On_56_Vel_0
Time_Shift_4
Note_On_72_Vel_66
Time_Shift_7
Note_On_56_Vel_64
Time_Shift_9
Note_On_63_Vel_47
Time_Shift_20
Note_On_60_Vel_28
Time_Shift_60
Note_On_80_Vel_71
Time_Shift_82
Note_On_74_Vel_56
Time_Shift_2
Note_On_56_Vel_0
Note_On_60_Vel_0
Time_Shift_7
Note_On_56_Vel_65
Time_Shift_1
Note_On_68_Vel_56
Time_Shift_3
Note_On_60_Vel_27
Time_Shift_66
Note_On_75_Vel_0
Time_Shift_6
Note_On_75_Vel_71
Time_Shift_53
Note_On_71_Vel_0
Time_Shift_1
Note_On_74_Vel_0
Time_Shift_1
Note_On_80_Vel_0
Sustain_Off
Note_On_51_Vel_0
Time_Shift_1
Note_On_72_Vel_0
Note_On_56_Vel_0
Note_On_75_Vel_0
Time_Shift_7
Note_On_68_Vel_0
Time_Shift_8
Note_On_60_Vel_0
Note_On_63_Vel_0
Time_Shift_14
Note_On_39_Vel_57
Time_Shift_4
Note_On_84_Vel_77
Time_Shift_29
Note_On_39_Vel_0
Time_Shift_14
Sustain_On
Time_Shift_52
Note_On_74_Vel_61
Time_Shift_108
Note_On_75_Vel_59
Time_Shift_10
Note_On_63_Vel_57
Time_Shift_3
Note_On_61_Vel_52
Note_On_55_Vel_49
Time_Shift_21
Note_On_74_Vel_0
Sustain_Off
Time_Shift_9
Note_On_63_Vel_0
Note_On_61_Vel_0
Time_Shift_3
Note_On_55_Vel_0
Time_Shift_39
Note_On_82_Vel_69
Time_Shift_8
Sustain_On
Time_Shift_23
Note_On_84_Vel_0
Time_Shift_77
Note_On_61_Vel_40
Time_Shift_8
Note_On_61_Vel_0
Time_Shift_5
Note_On_72_Vel_54
Time_Shift_6
Note_On_63_Vel_38
Time_Shift_1
Note_On_73_Vel_52
Time_Shift_1
Note_On_55_Vel_49
Time_Shift_71
Note_On_73_Vel_0
Time_Shift_5
Note_On_73_Vel_62
Time_Shift_166
Sustain_Off
Time_Shift_1
Note_On_73_Vel_0
Note_On_55_Vel_0
Time_Shift_1
Note_On_82_Vel_0
Time_Shift_12
Note_On_72_Vel_0
Note_On_75_Vel_0
Time_Shift_3
Note_On_80_Vel_56
Time_Shift_3
Note_On_44_Vel_41
Time_Shift_5
Note_On_72_Vel_53
Time_Shift_50
Sustain_On
Time_Shift_46
Note_On_63_Vel_0
Time_Shift_294
Sustain_Off
Time_Shift_9
Note_On_60_Vel_48
Time_Shift_1
Note_On_51_Vel_44
Time_Shift_19
Sustain_On
Time_Shift_350
Note_On_68_Vel_73
Time_Shift_59
Note_On_70_Vel_75
Time_Shift_6
Note_On_80_Vel_0
Time_Shift_53
Note_On_68_Vel_0
Time_Shift_7
Note_On_68_Vel_72
Time_Shift_24
Note_On_70_Vel_0
Time_Shift_11
Note_On_70_Vel_75
Time_Shift_43
Note_On_68_Vel_0
Time_Shift_5
Note_On_68_Vel_74
Time_Shift_10
Note_On_72_Vel_0
Time_Shift_23
Note_On_70_Vel_0
Time_Shift_7
Note_On_70_Vel_67
Time_Shift_39
Note_On_68_Vel_0
Time_Shift_10
Note_On_68_Vel_80
Time_Shift_6
Note_On_51_Vel_0
Time_Shift_1
Note_On_70_Vel_0
Time_Shift_1
Note_On_60_Vel_0
Time_Shift_1
Sustain_Off
Time_Shift_4
Note_On_44_Vel_0
Time_Shift_31
Note_On_68_Vel_0
Time_Shift_28
Note_On_67_Vel_73
Time_Shift_4
Note_On_39_Vel_58
Time_Shift_22
Sustain_On
Time_Shift_20
Note_On_67_Vel_0
Time_Shift_13
Sustain_Off
Time_Shift_28
Note_On_39_Vel_0
Time_Shift_11
Note_On_73_Vel_71
Time_Shift_46
Note_On_73_Vel_0
Time_Shift_38
Note_On_75_Vel_69
Time_Shift_8
Note_On_67_Vel_59
Time_Shift_14
Note_On_61_Vel_56
Time_Shift_3
Note_On_75_Vel_0
Time_Shift_24
Note_On_61_Vel_0
Time_Shift_2
Note_On_67_Vel_0
Time_Shift_26
Note_On_70_Vel_59
Time_Shift_3
Note_On_79_Vel_75
Time_Shift_50
Note_On_79_Vel_0
Time_Shift_2
Note_On_70_Vel_0
Time_Shift_15
Note_On_61_Vel_54
Time_Shift_1
Note_On_85_Vel_78
Time_Shift_8
Note_On_67_Vel_47
Time_Shift_24
Note_On_61_Vel_0
Time_Shift_10
Note_On_67_Vel_0
Time_Shift_2
Note_On_85_Vel_0
Time_Shift_30
Note_On_89_Vel_77
Time_Shift_45
Note_On_89_Vel_0
Time_Shift_32
Note_On_70_Vel_57
Time_Shift_5
Note_On_86_Vel_78
Time_Shift_1
Note_On_70_Vel_0
Note_On_68_Vel_59
Time_Shift_1
Note_On_56_Vel_59
Time_Shift_4
Note_On_61_Vel_38
Time_Shift_10
Note_On_61_Vel_0
Sustain_On
Time_Shift_45
Note_On_87_Vel_77
Time_Shift_42
Note_On_86_Vel_0
Time_Shift_2
Note_On_56_Vel_0
Time_Shift_1
Note_On_68_Vel_0
Sustain_Off
Time_Shift_5
Note_On_87_Vel_0
Time_Shift_32
Note_On_89_Vel_75
Time_Shift_3
Note_On_60_Vel_57
Time_Shift_1
Note_On_68_Vel_71
Time_Shift_27
Note_On_60_Vel_0
Time_Shift_6
Note_On_89_Vel_0
Time_Shift_13
Note_On_68_Vel_0
Time_Shift_19
Note_On_87_Vel_77
Time_Shift_54
Note_On_87_Vel_0
Time_Shift_17
Note_On_92_Vel_80
Time_Shift_1
Note_On_68_Vel_71
Time_Shift_4
Note_On_60_Vel_47
Time_Shift_9
Note_On_63_Vel_41
Time_Shift_20
Note_On_68_Vel_0
Time_Shift_1
Note_On_60_Vel_0
Time_Shift_28
Note_On_63_Vel_0
Time_Shift_18
Note_On_80_Vel_73
Time_Shift_21
Note_On_92_Vel_0
Time_Shift_9
Note_On_80_Vel_0
Time_Shift_32
Note_On_51_Vel_66
Time_Shift_1
Note_On_89_Vel_84
Time_Shift_9
Note_On_60_Vel_45
Time_Shift_10
Sustain_On
Time_Shift_58
Note_On_87_Vel_83
Time_Shift_31
Sustain_Off
Time_Shift_7
Note_On_89_Vel_0
Note_On_51_Vel_0
Time_Shift_12
Note_On_60_Vel_0
Time_Shift_24
Note_On_87_Vel_0
Time_Shift_3
Note_On_85_Vel_78
Time_Shift_3
Note_On_67_Vel_59
Time_Shift_4
Note_On_61_Vel_57
Time_Shift_23
Note_On_67_Vel_0
Time_Shift_3
Note_On_61_Vel_0
Time_Shift_16
Note_On_85_Vel_0
Time_Shift_22
Note_On_79_Vel_77
Time_Shift_31
Note_On_79_Vel_0
Time_Shift_20
Note_On_67_Vel_62
Time_Shift_6
Note_On_61_Vel_65
Time_Shift_2
Note_On_68_Vel_62
Time_Shift_7
Note_On_77_Vel_76
Time_Shift_4
Note_On_68_Vel_0
Time_Shift_13
Note_On_67_Vel_0
Time_Shift_3
Note_On_61_Vel_0
Time_Shift_36
Note_On_77_Vel_0
Time_Shift_20
Note_On_75_Vel_78
Time_Shift_31
Note_On_75_Vel_0
Time_Shift_35
Note_On_74_Vel_71
Time_Shift_12
Note_On_44_Vel_56
Time_Shift_27
Sustain_On
Time_Shift_4
Note_On_74_Vel_0
Time_Shift_29
Note_On_75_Vel_78
Time_Shift_20
Sustain_Off
Time_Shift_1
Note_On_44_Vel_0
Time_Shift_19
Note_On_75_Vel_0
Time_Shift_39
Note_On_77_Vel_71
Time_Shift_1
Note_On_63_Vel_68
Time_Shift_3
Note_On_60_Vel_61
Time_Shift_27
Note_On_63_Vel_0
Note_On_60_Vel_0
Time_Shift_1
Note_On_77_Vel_0
Time_Shift_38
Note_On_75_Vel_78
Time_Shift_33
Note_On_75_Vel_0
Time_Shift_35
Note_On_60_Vel_58
Note_On_80_Vel_74
Time_Shift_50
Note_On_60_Vel_0
Time_Shift_6
Note_On_68_Vel_72
Time_Shift_59
Note_On_80_Vel_0
Time_Shift_1
Note_On_68_Vel_0
Time_Shift_18
Note_On_67_Vel_76
Time_Shift_8
Note_On_39_Vel_69
Time_Shift_23
Sustain_On
Time_Shift_5
Note_On_67_Vel_0
Time_Shift_5
Note_On_39_Vel_0
Time_Shift_2
Sustain_Off
Time_Shift_28
Note_On_73_Vel_80
Time_Shift_61
Note_On_73_Vel_0
Time_Shift_17
Note_On_75_Vel_70
Time_Shift_21
Note_On_67_Vel_62
Time_Shift_11
Note_On_75_Vel_0
Time_Shift_26
Note_On_67_Vel_0
Time_Shift_20
Note_On_79_Vel_82
Time_Shift_54
Note_On_79_Vel_0
Time_Shift_7
Note_On_67_Vel_68
Time_Shift_1
Note_On_85_Vel_85
Time_Shift_4
Note_On_63_Vel_58
Time_Shift_1
Note_On_61_Vel_63
Time_Shift_26
Note_On_67_Vel_0
Time_Shift_6
Note_On_61_Vel_0
Note_On_63_Vel_0
Time_Shift_30
Note_On_85_Vel_0
Time_Shift_8
Note_On_89_Vel_80
Time_Shift_44
Note_On_89_Vel_0
Time_Shift_24
Note_On_86_Vel_90
Time_Shift_1
Note_On_56_Vel_68
Time_Shift_28
Sustain_On
Time_Shift_28
Note_On_56_Vel_0
Time_Shift_7
Note_On_87_Vel_88
Time_Shift_1
Note_On_86_Vel_0
Time_Shift_3
Sustain_Off
Time_Shift_64
Note_On_87_Vel_0
Time_Shift_1
Note_On_89_Vel_87
Time_Shift_4
Note_On_72_Vel_83
Time_Shift_14
Note_On_63_Vel_52
Time_Shift_19
Note_On_72_Vel_0
Time_Shift_1
Note_On_63_Vel_0
Time_Shift_32
Note_On_87_Vel_92
Time_Shift_20
Note_On_89_Vel_0
Time_Shift_48
Note_On_87_Vel_0
Time_Shift_2
Note_On_96_Vel_97
Time_Shift_5
Note_On_57_Vel_72
Time_Shift_36
Note_On_57_Vel_0
Time_Shift_20
Note_On_84_Vel_87
Time_Shift_5
Note_On_87_Vel_63
Time_Shift_59
Note_On_96_Vel_0
Time_Shift_3
Note_On_89_Vel_95
Time_Shift_1
Note_On_58_Vel_63
Time_Shift_19
Note_On_87_Vel_0
Time_Shift_7
Sustain_On
Time_Shift_16
Note_On_84_Vel_0
Time_Shift_29
Note_On_87_Vel_93
Time_Shift_20
Sustain_Off
Time_Shift_27
Note_On_58_Vel_0
Time_Shift_1
Note_On_89_Vel_0
Time_Shift_27
Note_On_87_Vel_0
Time_Shift_5
Note_On_73_Vel_69
Time_Shift_1
Note_On_85_Vel_87
Time_Shift_9
Note_On_63_Vel_52
Time_Shift_15
Note_On_73_Vel_0
Time_Shift_35
Note_On_63_Vel_0
Note_On_85_Vel_0
Time_Shift_1
Note_On_79_Vel_87
Time_Shift_31
Note_On_79_Vel_0
Time_Shift_35
Note_On_77_Vel_88
Time_Shift_2
Note_On_51_Vel_79
Time_Shift_53
Sustain_On
Time_Shift_9
Note_On_75_Vel_89
Time_Shift_22
Sustain_Off
Time_Shift_12
Note_On_77_Vel_0
Time_Shift_15
Note_On_51_Vel_0
Time_Shift_18
Note_On_75_Vel_0
Time_Shift_3
Note_On_73_Vel_92
Time_Shift_1
Note_On_56_Vel_77
Time_Shift_29
Note_On_56_Vel_0
Time_Shift_28
Note_On_73_Vel_0
Time_Shift_6
Note_On_72_Vel_73
Time_Shift_39
Note_On_72_Vel_0
Time_Shift_34
Note_On_70_Vel_74
Time_Shift_15
Note_On_63_Vel_49
Time_Shift_11
Note_On_51_Vel_48
Time_Shift_24
Note_On_70_Vel_0
Time_Shift_15
Note_On_51_Vel_0
Note_On_68_Vel_76
Time_Shift_19
Note_On_63_Vel_0
Time_Shift_29
Note_On_68_Vel_0
Time_Shift_21
Note_On_67_Vel_78
Time_Shift_5
Note_On_59_Vel_76
Time_Shift_2
Note_On_50_Vel_69
Time_Shift_19
Note_On_67_Vel_0
Time_Shift_5
Note_On_59_Vel_0
Time_Shift_2
Note_On_50_Vel_0
Time_Shift_41
Note_On_65_Vel_71
Time_Shift_35
Note_On_65_Vel_0
Time_Shift_30
Note_On_63_Vel_76
Note_On_51_Vel_80
Time_Shift_49
Sustain_On
Time_Shift_13
Note_On_67_Vel_75
Time_Shift_25
Note_On_63_Vel_0
Time_Shift_4
Sustain_Off
Time_Shift_4
Note_On_51_Vel_0
Time_Shift_4
Note_On_67_Vel_0
Time_Shift_52
Note_On_73_Vel_76
Time_Shift_3
Note_On_61_Vel_69
Time_Shift_33
Note_On_73_Vel_0
Time_Shift_1
Note_On_61_Vel_0
Time_Shift_22
Note_On_75_Vel_74
Time_Shift_35
Note_On_75_Vel_0
Time_Shift_3
Note_On_63_Vel_52
Time_Shift_2
Note_On_67_Vel_56
Time_Shift_14
Note_On_63_Vel_0
Time_Shift_15
Note_On_67_Vel_0
Time_Shift_9
Note_On_79_Vel_77
Time_Shift_1
Note_On_67_Vel_62
Time_Shift_5
Note_On_61_Vel_60
Time_Shift_23
Note_On_67_Vel_0
Time_Shift_4
Note_On_79_Vel_0
Time_Shift_20
Note_On_61_Vel_0
Time_Shift_17
Note_On_89_Vel_72
Time_Shift_48
Note_On_89_Vel_0
Time_Shift_18
Note_On_60_Vel_43
Time_Shift_6
Note_On_56_Vel_62
Time_Shift_1
Note_On_86_Vel_70
Time_Shift_2
Note_On_60_Vel_0
Time_Shift_61
Note_On_87_Vel_75
Time_Shift_8
Note_On_86_Vel_0
Time_Shift_5
Note_On_56_Vel_0
Time_Shift_22
Note_On_87_Vel_0
Time_Shift_37
Note_On_60_Vel_58
Time_Shift_1
Note_On_68_Vel_69
Time_Shift_1
Note_On_89_Vel_73
Time_Shift_23
Note_On_60_Vel_0
Time_Shift_19
Note_On_68_Vel_0
Time_Shift_22
Note_On_87_Vel_70
Time_Shift_8
Note_On_89_Vel_0
Time_Shift_42
Note_On_87_Vel_0
Time_Shift_15
Note_On_92_Vel_78
Time_Shift_2
Note_On_68_Vel_62
Note_On_60_Vel_47
Time_Shift_39
Note_On_92_Vel_0
Time_Shift_10
Note_On_68_Vel_0
Time_Shift_8
Note_On_60_Vel_0
Time_Shift_12
Note_On_80_Vel_75
Time_Shift_29
Note_On_80_Vel_0
Time_Shift_39
Note_On_89_Vel_84
Note_On_51_Vel_71
Time_Shift_35
Sustain_On
Time_Shift_35
Note_On_87_Vel_81
Time_Shift_5
Sustain_Off
Time_Shift_6
Note_On_51_Vel_0
Time_Shift_1
Note_On_89_Vel_0
Time_Shift_64
Note_On_67_Vel_74
Note_On_85_Vel_78
Time_Shift_4
Note_On_61_Vel_64
Time_Shift_9
Note_On_87_Vel_0
Time_Shift_12
Note_On_67_Vel_0
Time_Shift_25
Note_On_61_Vel_0
Time_Shift_8
Note_On_85_Vel_0
Time_Shift_9
Note_On_79_Vel_79
Time_Shift_35
Note_On_79_Vel_0
Time_Shift_28
Note_On_61_Vel_67
Time_Shift_1
Note_On_63_Vel_53
Time_Shift_3
Note_On_67_Vel_63
Time_Shift_4
Note_On_77_Vel_77
Time_Shift_4
Note_On_63_Vel_0
Time_Shift_14
Note_On_61_Vel_0
Time_Shift_25
Note_On_67_Vel_0
Time_Shift_8
Note_On_77_Vel_0
Time_Shift_20
Note_On_75_Vel_77
Time_Shift_34
Note_On_75_Vel_0
Time_Shift_27
Note_On_74_Vel_75
Time_Shift_10
Note_On_44_Vel_66
Time_Shift_40
Note_On_74_Vel_0
Time_Shift_3
Note_On_44_Vel_0
Time_Shift_15
Note_On_75_Vel_73
Time_Shift_58
Note_On_75_Vel_0
Time_Shift_22
Note_On_77_Vel_67
Time_Shift_6
Note_On_60_Vel_68
Note_On_63_Vel_63
Time_Shift_29
Note_On_77_Vel_0
Time_Shift_2
Note_On_63_Vel_0
Time_Shift_18
Note_On_60_Vel_0
Time_Shift_19
Note_On_75_Vel_75
Time_Shift_39
Note_On_75_Vel_0
Time_Shift_27
Note_On_63_Vel_48
Note_On_60_Vel_58
Time_Shift_4
Note_On_80_Vel_72
Time_Shift_3
Note_On_63_Vel_0
Time_Shift_22
Note_On_60_Vel_0
Time_Shift_13
Note_On_80_Vel_0
Time_Shift_30
Note_On_68_Vel_71
Time_Shift_65
Sustain_On
Time_Shift_4
Note_On_67_Vel_71
Time_Shift_6
Note_On_39_Vel_74
Time_Shift_31
Sustain_Off
Time_Shift_2
Note_On_68_Vel_0
Note_On_67_Vel_0
Note_On_39_Vel_0
Time_Shift_30
Note_On_73_Vel_77
Time_Shift_61
Note_On_73_Vel_0
Time_Shift_8
Note_On_75_Vel_75
Time_Shift_18
Note_On_61_Vel_61
Time_Shift_6
Note_On_67_Vel_58
Time_Shift_10
Note_On_75_Vel_0
Time_Shift_15
Note_On_61_Vel_0
Time_Shift_24
Note_On_67_Vel_0
Time_Shift_4
Note_On_79_Vel_82
Time_Shift_57
Note_On_79_Vel_0
Time_Shift_11
Note_On_85_Vel_80
Time_Shift_1
Note_On_67_Vel_70
Time_Shift_1
Note_On_61_Vel_66
Time_Shift_6
Note_On_63_Vel_58
Time_Shift_32
Note_On_67_Vel_0
Time_Shift_7
Note_On_63_Vel_0
Note_On_61_Vel_0
Time_Shift_21
Note_On_85_Vel_0
Time_Shift_10
Note_On_89_Vel_76
Time_Shift_77
Note_On_86_Vel_75
Time_Shift_2
Note_On_61_Vel_43
Note_On_56_Vel_59
Time_Shift_9
Note_On_61_Vel_0
Time_Shift_51
Note_On_87_Vel_81
Time_Shift_3
Sustain_On
Time_Shift_69
Note_On_89_Vel_0
Time_Shift_4
Note_On_72_Vel_74
Note_On_89_Vel_79
Time_Shift_23
Note_On_63_Vel_44
Time_Shift_42
Note_On_87_Vel_0
Time_Shift_5
Note_On_87_Vel_90
Time_Shift_78
Note_On_96_Vel_93
Time_Shift_13
Note_On_57_Vel_64
Time_Shift_85
Note_On_84_Vel_81
Time_Shift_73
Note_On_87_Vel_0
Time_Shift_3
Note_On_58_Vel_56
Time_Shift_1
Note_On_87_Vel_68
Time_Shift_71
Note_On_57_Vel_0
Time_Shift_1
Note_On_72_Vel_0
Time_Shift_2
Note_On_56_Vel_0
Note_On_84_Vel_0
Note_On_63_Vel_0
Note_On_87_Vel_0
Sustain_Off
Time_Shift_1
Note_On_96_Vel_0
Time_Shift_5
Note_On_86_Vel_0
Time_Shift_8
Note_On_89_Vel_0
Time_Shift_9
Note_On_89_Vel_71
Time_Shift_14
Note_On_58_Vel_0
Time_Shift_58
Note_On_84_Vel_53
Time_Shift_11
Sustain_On
Time_Shift_31
Note_On_88_Vel_77
Time_Shift_88
Note_On_87_Vel_81
Time_Shift_4
Note_On_73_Vel_65
Time_Shift_27
Note_On_67_Vel_53
Time_Shift_1
Note_On_63_Vel_47
Time_Shift_53
Note_On_85_Vel_79
Time_Shift_11
Note_On_89_Vel_0
Time_Shift_65
Note_On_79_Vel_84
Time_Shift_66
Note_On_77_Vel_81
Time_Shift_85
Note_On_76_Vel_89
Time_Shift_65
Note_On_75_Vel_93
Time_Shift_88
Note_On_73_Vel_0
Time_Shift_4
Note_On_73_Vel_94
Time_Shift_65
Note_On_67_Vel_0
Time_Shift_10
Note_On_67_Vel_86
Time_Shift_87
Note_On_65_Vel_86
Time_Shift_91
Note_On_64_Vel_90
Time_Shift_145
Note_On_44_Vel_57
Time_Shift_59
Note_On_63_Vel_0
Time_Shift_4
Note_On_63_Vel_87
Time_Shift_23
Note_On_84_Vel_0
Time_Shift_1
Note_On_87_Vel_0
Time_Shift_1
Note_On_88_Vel_0
Note_On_76_Vel_0
Note_On_77_Vel_0
Note_On_75_Vel_0
Note_On_65_Vel_0
Note_On_85_Vel_0
Time_Shift_1
Note_On_64_Vel_0
Time_Shift_1
Note_On_73_Vel_0
Time_Shift_1
Note_On_67_Vel_0
Note_On_79_Vel_0
Time_Shift_2
Sustain_Off
Time_Shift_96
Sustain_On
Time_Shift_39
Note_On_44_Vel_0
Time_Shift_160
Note_On_56_Vel_52
Time_Shift_3
Note_On_60_Vel_61
Time_Shift_1
Note_On_44_Vel_48
Time_Shift_235
Note_On_60_Vel_0
Time_Shift_4
Note_On_51_Vel_54
Time_Shift_2
Note_On_60_Vel_45
Time_Shift_31
Note_On_68_Vel_80
Time_Shift_52
Note_On_70_Vel_80
Time_Shift_49
Note_On_68_Vel_0
Time_Shift_10
Note_On_68_Vel_87
Time_Shift_60
Note_On_67_Vel_89
Time_Shift_23
Note_On_39_Vel_55
Time_Shift_2
Sustain_Off
Note_On_56_Vel_0
Time_Shift_1
Note_On_51_Vel_0
Note_On_60_Vel_0
Note_On_44_Vel_0
Note_On_68_Vel_0
Note_On_70_Vel_0
Time_Shift_12
Note_On_63_Vel_0
Time_Shift_69
Note_On_39_Vel_0
Time_Shift_165
Note_On_61_Vel_59
Time_Shift_1
Note_On_58_Vel_46
Time_Shift_36
Note_On_61_Vel_0
Time_Shift_3
Note_On_58_Vel_0
Time_Shift_199
Note_On_67_Vel_0
Time_Shift_20
Note_On_77_Vel_84
Time_Shift_2
Note_On_51_Vel_52
Note_On_73_Vel_72
Time_Shift_4
Sustain_On
Time_Shift_194
Note_On_77_Vel_0
Time_Shift_1
Note_On_51_Vel_0
Time_Shift_1
Note_On_73_Vel_0
Time_Shift_3
Sustain_Off
Time_Shift_4
Note_On_67_Vel_73
Time_Shift_25
Note_On_39_Vel_54
Time_Shift_23
Note_On_39_Vel_0
Time_Shift_173
Note_On_61_Vel_60
Time_Shift_2
Note_On_58_Vel_52
Time_Shift_29
Note_On_61_Vel_0
Time_Shift_2
Note_On_58_Vel_0
Time_Shift_173
Note_On_75_Vel_84
Time_Shift_12
Note_On_51_Vel_51
Time_Shift_3
Note_On_72_Vel_73
Time_Shift_46
Sustain_On
Time_Shift_154
Note_On_67_Vel_0
Time_Shift_4
Note_On_44_Vel_56
Time_Shift_6
Note_On_67_Vel_76
Time_Shift_81
Note_On_72_Vel_0
Time_Shift_2
Sustain_Off
Note_On_67_Vel_0
Note_On_51_Vel_0
Time_Shift_3
Note_On_75_Vel_0
Time_Shift_1
Note_On_60_Vel_79
Time_Shift_65
Note_On_60_Vel_0
Time_Shift_18
Note_On_67_Vel_85
Time_Shift_4
Note_On_56_Vel_58
Time_Shift_31
Note_On_44_Vel_0
Time_Shift_15
Note_On_56_Vel_0
Time_Shift_32
Note_On_68_Vel_88
Time_Shift_4
Note_On_67_Vel_0
Time_Shift_62
Note_On_68_Vel_0
Time_Shift_14
Note_On_72_Vel_87
Time_Shift_1
Note_On_51_Vel_63
Time_Shift_30
Note_On_51_Vel_0
Time_Shift_49
Note_On_68_Vel_87
Time_Shift_20
Note_On_72_Vel_0
Time_Shift_77
Note_On_44_Vel_69
Time_Shift_1
Note_On_63_Vel_88
Time_Shift_7
Note_On_68_Vel_0
Time_Shift_102
Sustain_On
Time_Shift_81
Note_On_44_Vel_0
Note_On_63_Vel_0
Time_Shift_9
Note_On_56_Vel_86
Time_Shift_1
Note_On_60_Vel_83
Time_Shift_124
Note_On_44_Vel_64
Time_Shift_73
Note_On_53_Vel_71
Time_Shift_1
Note_On_68_Vel_87
Time_Shift_60
Note_On_70_Vel_81
Time_Shift_51
Note_On_68_Vel_0
Time_Shift_7
Note_On_68_Vel_87
Note_On_60_Vel_0
Time_Shift_5
Note_On_60_Vel_63
Time_Shift_38
Note_On_56_Vel_0
Time_Shift_1
Note_On_53_Vel_0
Note_On_44_Vel_0
Sustain_Off
Note_On_60_Vel_0
Time_Shift_2
Note_On_68_Vel_0
Time_Shift_3
Note_On_70_Vel_0
Time_Shift_8
Note_On_67_Vel_90
Time_Shift_3
Note_On_39_Vel_69
Time_Shift_37
Note_On_39_Vel_0
Time_Shift_179
Note_On_58_Vel_67
Time_Shift_1
Note_On_61_Vel_66
Time_Shift_28
Note_On_58_Vel_0
Time_Shift_4
Note_On_61_Vel_0
Time_Shift_170
Note_On_67_Vel_0
Time_Shift_10
Note_On_77_Vel_89
Time_Shift_6
Note_On_73_Vel_81
Time_Shift_1
Note_On_51_Vel_55
Time_Shift_19
Sustain_On
Time_Shift_150
Note_On_51_Vel_0
Time_Shift_1
Note_On_73_Vel_0
Time_Shift_4
Note_On_77_Vel_0
Time_Shift_3
Sustain_Off
Time_Shift_16
Note_On_67_Vel_78
Time_Shift_8
Note_On_39_Vel_59
Time_Shift_148
Note_On_39_Vel_0
Time_Shift_40
Note_On_58_Vel_55
Time_Shift_2
Note_On_61_Vel_58
Time_Shift_30
Note_On_58_Vel_0
Time_Shift_1
Note_On_61_Vel_0
Time_Shift_177
Note_On_75_Vel_79
Time_Shift_6
Note_On_51_Vel_47
Time_Shift_9
Note_On_72_Vel_71
Time_Shift_12
Sustain_On
Time_Shift_206
Note_On_44_Vel_38
Time_Shift_20
Note_On_68_Vel_69
Time_Shift_23
Note_On_75_Vel_0
Note_On_72_Vel_0
Note_On_67_Vel_0
Time_Shift_1
Sustain_Off
Time_Shift_1
Note_On_51_Vel_0
Time_Shift_4
Note_On_60_Vel_45
Time_Shift_113
Sustain_On
Time_Shift_106
Note_On_56_Vel_53
Time_Shift_108
Note_On_48_Vel_26
Time_Shift_63
Note_On_60_Vel_0
Time_Shift_11
Note_On_60_Vel_24
Time_Shift_89
Note_On_56_Vel_0
Time_Shift_10
Note_On_49_Vel_46
Note_On_56_Vel_31
Time_Shift_59
Note_On_48_Vel_0
Time_Shift_19
Note_On_65_Vel_66
Time_Shift_51
Note_On_61_Vel_38
Time_Shift_229
Note_On_44_Vel_0
Time_Shift_5
Note_On_44_Vel_36
Time_Shift_60
Note_On_56_Vel_0
Time_Shift_1
Note_On_49_Vel_0
Time_Shift_1
Note_On_61_Vel_0
Sustain_Off
Time_Shift_1
Note_On_68_Vel_0
Time_Shift_40
Note_On_60_Vel_0
Time_Shift_11
Note_On_60_Vel_39
Time_Shift_50
Sustain_On
Time_Shift_116
Note_On_44_Vel_0
Time_Shift_9
Note_On_44_Vel_32
Time_Shift_118
Note_On_56_Vel_28
Time_Shift_5
Note_On_63_Vel_44
Time_Shift_136
Note_On_63_Vel_0
Time_Shift_5
Note_On_63_Vel_35
Time_Shift_75
Note_On_51_Vel_35
Time_Shift_56
Note_On_68_Vel_62
Time_Shift_52
Note_On_70_Vel_64
Time_Shift_50
Note_On_68_Vel_0
Time_Shift_9
Note_On_68_Vel_75
Time_Shift_2
Sustain_Off
Time_Shift_8
Note_On_56_Vel_0
Time_Shift_1
Note_On_51_Vel_0
Note_On_63_Vel_0
Time_Shift_1
Note_On_44_Vel_0
Time_Shift_2
Note_On_65_Vel_0
Time_Shift_3
Note_On_70_Vel_0
Time_Shift_13
Note_On_60_Vel_0
Time_Shift_20
Note_On_39_Vel_41
Time_Shift_1
Note_On_67_Vel_59
Time_Shift_10
Note_On_68_Vel_0
Time_Shift_61
Note_On_39_Vel_0
Time_Shift_167
Note_On_58_Vel_42
Time_Shift_5
Note_On_61_Vel_44
Time_Shift_27
Note_On_58_Vel_0
Time_Shift_3
Note_On_61_Vel_0
Time_Shift_2
Note_On_67_Vel_0
Time_Shift_222
Note_On_77_Vel_72
Time_Shift_6
Note_On_73_Vel_67
Time_Shift_2
Note_On_51_Vel_42
Time_Shift_27
Sustain_On
Time_Shift_149
Note_On_77_Vel_0
Time_Shift_1
Note_On_73_Vel_0
Time_Shift_1
Note_On_51_Vel_0
Time_Shift_2
Sustain_Off
Time_Shift_12
Note_On_67_Vel_69
Time_Shift_9
Note_On_39_Vel_52
Time_Shift_34
Note_On_39_Vel_0
Time_Shift_168
Note_On_61_Vel_53
Time_Shift_11
Note_On_58_Vel_38
Time_Shift_1
Note_On_39_Vel_27
Time_Shift_17
Note_On_61_Vel_0
Time_Shift_5
Note_On_58_Vel_0
Time_Shift_15
Note_On_39_Vel_0
Time_Shift_158
Note_On_51_Vel_40
Sustain_On
Time_Shift_5
Note_On_75_Vel_76
Time_Shift_21
Note_On_72_Vel_64
Time_Shift_193
Note_On_44_Vel_58
Time_Shift_20
Note_On_67_Vel_0
Time_Shift_9
Note_On_67_Vel_65
Time_Shift_83
Note_On_60_Vel_70
Time_Shift_41
Sustain_Off
Note_On_67_Vel_0
Note_On_75_Vel_0
Time_Shift_1
Note_On_51_Vel_0
Note_On_44_Vel_0
Note_On_72_Vel_0
Time_Shift_43
Note_On_67_Vel_82
Time_Shift_3
Note_On_56_Vel_64
Time_Shift_12
Note_On_60_Vel_0
Time_Shift_10
Note_On_60_Vel_43
Time_Shift_10
Note_On_56_Vel_0
Time_Shift_18
Note_On_60_Vel_0
Time_Shift_9
Note_On_67_Vel_0
Time_Shift_15
Note_On_68_Vel_86
Time_Shift_65
Note_On_68_Vel_0
Time_Shift_18
Note_On_72_Vel_84
Time_Shift_11
Note_On_51_Vel_60
Time_Shift_30
Note_On_51_Vel_0
Time_Shift_29
Note_On_72_Vel_0
Time_Shift_2
Note_On_68_Vel_79
Time_Shift_90
Note_On_68_Vel_0
Time_Shift_10
Note_On_63_Vel_81
Time_Shift_1
Note_On_68_Vel_63
Time_Shift_8
Note_On_44_Vel_65
Time_Shift_34
Sustain_On
Time_Shift_166
Note_On_56_Vel_80
Time_Shift_7
Note_On_60_Vel_81
Time_Shift_89
Note_On_56_Vel_0
Time_Shift_7
Note_On_56_Vel_62
Time_Shift_85
Note_On_68_Vel_0
Time_Shift_11
Note_On_68_Vel_84
Note_On_53_Vel_72
Time_Shift_55
Note_On_70_Vel_75
Time_Shift_3
Note_On_44_Vel_0
Time_Shift_35
Note_On_56_Vel_0
Time_Shift_2
Note_On_53_Vel_0
Note_On_63_Vel_0
Time_Shift_4
Sustain_Off
Time_Shift_1
Note_On_70_Vel_0
Time_Shift_4
Note_On_68_Vel_0
Time_Shift_8
Note_On_60_Vel_0
Time_Shift_3
Note_On_68_Vel_82
Time_Shift_57
Note_On_68_Vel_0
Time_Shift_7
Note_On_67_Vel_80
Time_Shift_2
Note_On_39_Vel_58
Time_Shift_27
Note_On_39_Vel_0
Time_Shift_42
Sustain_On
Time_Shift_149
Sustain_Off
Time_Shift_11
Note_On_61_Vel_57
Time_Shift_4
Note_On_58_Vel_51
Time_Shift_31
Note_On_61_Vel_0
Time_Shift_3
Note_On_67_Vel_0
Time_Shift_25
Note_On_58_Vel_0
Time_Shift_109
Note_On_68_Vel_45
Time_Shift_85
Note_On_77_Vel_72
Time_Shift_4
Note_On_73_Vel_61
Time_Shift_6
Note_On_51_Vel_43
Time_Shift_11
Sustain_On
Time_Shift_146
Note_On_68_Vel_0
Time_Shift_5
Note_On_77_Vel_0
Note_On_51_Vel_0
Time_Shift_3
Note_On_73_Vel_0
Time_Shift_3
Sustain_Off
Time_Shift_23
Note_On_67_Vel_63
Time_Shift_8
Note_On_61_Vel_37
Note_On_39_Vel_41
Time_Shift_11
Note_On_61_Vel_0
Time_Shift_22
Note_On_39_Vel_0
Time_Shift_168
Note_On_58_Vel_43
Time_Shift_6
Note_On_68_Vel_44
Note_On_61_Vel_45
Note_On_39_Vel_28
Time_Shift_1
Note_On_51_Vel_24
Time_Shift_3
Note_On_68_Vel_0
Time_Shift_8
Note_On_39_Vel_0
Time_Shift_26
Note_On_58_Vel_0
Time_Shift_1
Note_On_61_Vel_0
Time_Shift_19
Note_On_51_Vel_0
Time_Shift_46
Sustain_On
Time_Shift_139
Note_On_51_Vel_40
Time_Shift_58
Note_On_75_Vel_67
Time_Shift_26
Note_On_67_Vel_0
Time_Shift_7
Note_On_67_Vel_35
Note_On_72_Vel_56
Time_Shift_271
Note_On_44_Vel_39
Time_Shift_34
Note_On_67_Vel_0
Time_Shift_1
Note_On_75_Vel_0
Time_Shift_1
Note_On_51_Vel_0
Time_Shift_1
Note_On_72_Vel_0
Time_Shift_3
Sustain_Off
Time_Shift_21
Note_On_68_Vel_49
Time_Shift_11
Note_On_63_Vel_25
Time_Shift_5
Note_On_60_Vel_30
Time_Shift_67
Sustain_On
Time_Shift_384
Note_On_60_Vel_0
Note_On_63_Vel_0
Note_On_68_Vel_0
Time_Shift_4
Note_On_63_Vel_30
Time_Shift_1
Note_On_68_Vel_36
Time_Shift_6
Note_On_60_Vel_25
Note_On_56_Vel_33
Time_Shift_2
Note_On_51_Vel_29
Time_Shift_402
Note_On_68_Vel_0
Time_Shift_4
Note_On_68_Vel_61
Time_Shift_6
Sustain_Off
Time_Shift_28
Sustain_On
Time_Shift_21
Note_On_70_Vel_62
Time_Shift_41
Note_On_68_Vel_0
Time_Shift_7
Note_On_68_Vel_61
Time_Shift_39
Note_On_70_Vel_0
Time_Shift_8
Note_On_70_Vel_68
Time_Shift_45
Note_On_68_Vel_0
Time_Shift_5
Note_On_68_Vel_59
Time_Shift_34
Note_On_70_Vel_0
Time_Shift_6
Note_On_70_Vel_62
Time_Shift_48
Note_On_68_Vel_0
Time_Shift_7
Note_On_44_Vel_0
Time_Shift_3
Note_On_68_Vel_62
Time_Shift_6
Note_On_51_Vel_0
Time_Shift_2
Sustain_Off
Time_Shift_1
Note_On_60_Vel_0
Time_Shift_2
Note_On_56_Vel_0
Time_Shift_2
Note_On_63_Vel_0
Time_Shift_3
Note_On_70_Vel_0
Time_Shift_35
Note_On_68_Vel_0
Time_Shift_17
Note_On_39_Vel_51
Time_Shift_3
Note_On_67_Vel_58
Time_Shift_30
Note_On_39_Vel_0
Time_Shift_9
Note_On_67_Vel_0
Time_Shift_44
Note_On_73_Vel_69
Time_Shift_33
Note_On_73_Vel_0
Time_Shift_52
Note_On_75_Vel_69
Note_On_70_Vel_53
Time_Shift_2
Note_On_67_Vel_57
Time_Shift_5
Note_On_61_Vel_54
Time_Shift_22
Note_On_67_Vel_0
Time_Shift_5
Note_On_61_Vel_0
Time_Shift_1
Note_On_70_Vel_0
Time_Shift_7
Note_On_75_Vel_0
Time_Shift_28
Note_On_79_Vel_76
Time_Shift_53
Note_On_79_Vel_0
Time_Shift_21
Note_On_85_Vel_80
Time_Shift_1
Note_On_70_Vel_49
Note_On_67_Vel_51
Note_On_61_Vel_54
Time_Shift_5
Note_On_70_Vel_0
Time_Shift_27
Note_On_67_Vel_0
Time_Shift_4
Note_On_61_Vel_0
Time_Shift_11
Note_On_85_Vel_0
Time_Shift_33
Note_On_89_Vel_74
Time_Shift_44
Note_On_89_Vel_0
Time_Shift_23
Note_On_56_Vel_60
Time_Shift_3
Note_On_68_Vel_57
Time_Shift_3
Note_On_86_Vel_74
Time_Shift_44
Sustain_On
Time_Shift_20
Note_On_87_Vel_76
Time_Shift_28
Note_On_86_Vel_0
Time_Shift_3
Note_On_56_Vel_0
Time_Shift_4
Sustain_Off
Time_Shift_4
Note_On_87_Vel_0
Time_Shift_2
Note_On_68_Vel_0
Time_Shift_37
Note_On_89_Vel_76
Note_On_68_Vel_69
Time_Shift_1
Note_On_60_Vel_55
Time_Shift_24
Note_On_68_Vel_0
Time_Shift_3
Note_On_60_Vel_0
Time_Shift_6
Note_On_89_Vel_0
Time_Shift_33
Note_On_87_Vel_80
Time_Shift_53
Note_On_87_Vel_0
Time_Shift_18
Note_On_92_Vel_81
Time_Shift_3
Note_On_60_Vel_46
Note_On_68_Vel_63
Time_Shift_45
Note_On_60_Vel_0
Note_On_68_Vel_0
Time_Shift_23
Note_On_92_Vel_0
Time_Shift_10
Note_On_80_Vel_76
Time_Shift_25
Note_On_80_Vel_0
Time_Shift_39
Note_On_51_Vel_68
Time_Shift_1
Note_On_89_Vel_81
Time_Shift_17
Sustain_On
Time_Shift_59
Note_On_87_Vel_80
Time_Shift_14
Sustain_Off
Note_On_51_Vel_0
Time_Shift_3
Note_On_89_Vel_0
Time_Shift_52
Note_On_85_Vel_80
Time_Shift_4
Note_On_87_Vel_0
Time_Shift_1
Note_On_67_Vel_66
Time_Shift_2
Note_On_61_Vel_63
Time_Shift_22
Note_On_63_Vel_43
Time_Shift_1
Note_On_67_Vel_0
Time_Shift_4
Note_On_63_Vel_0
Time_Shift_1
Note_On_61_Vel_0
Time_Shift_22
Note_On_85_Vel_0
Time_Shift_17
Note_On_79_Vel_81
Time_Shift_34
Note_On_79_Vel_0
Time_Shift_30
Note_On_61_Vel_62
Time_Shift_8
Note_On_67_Vel_64
Time_Shift_1
Note_On_68_Vel_63
Time_Shift_2
Note_On_77_Vel_75
Time_Shift_19
Note_On_61_Vel_0
Time_Shift_4
Note_On_68_Vel_0
Time_Shift_15
Note_On_67_Vel_0
Time_Shift_12
Note_On_77_Vel_0
Time_Shift_18
Note_On_75_Vel_81
Time_Shift_33
Note_On_75_Vel_0
Time_Shift_33
Note_On_74_Vel_74
Time_Shift_16
Note_On_44_Vel_60
Time_Shift_34
Sustain_On
Time_Shift_22
Note_On_75_Vel_83
Time_Shift_9
Note_On_74_Vel_0
Time_Shift_23
Note_On_44_Vel_0
Time_Shift_8
Sustain_Off
Time_Shift_3
Note_On_75_Vel_0
Time_Shift_38
Note_On_77_Vel_73
Time_Shift_2
Note_On_60_Vel_66
Time_Shift_6
Note_On_63_Vel_58
Time_Shift_18
Note_On_60_Vel_0
Time_Shift_5
Note_On_77_Vel_0
Time_Shift_2
Note_On_63_Vel_0
Time_Shift_47
Note_On_75_Vel_75
Time_Shift_36
Note_On_75_Vel_0
Time_Shift_24
Note_On_60_Vel_48
Note_On_63_Vel_49
Note_On_80_Vel_73
Time_Shift_31
Note_On_60_Vel_0
Time_Shift_1
Note_On_63_Vel_0
Time_Shift_34
Note_On_68_Vel_69
Time_Shift_49
Note_On_68_Vel_0
Time_Shift_5
Note_On_80_Vel_0
Time_Shift_12
Note_On_67_Vel_71
Time_Shift_8
Note_On_39_Vel_70
Time_Shift_16
Sustain_On
Time_Shift_18
Note_On_39_Vel_0
Time_Shift_9
Note_On_67_Vel_0
Time_Shift_1
Sustain_Off
Time_Shift_17
Note_On_73_Vel_82
Time_Shift_64
Note_On_73_Vel_0
Time_Shift_17
Note_On_75_Vel_75
Time_Shift_10
Note_On_61_Vel_60
Time_Shift_1
Note_On_67_Vel_64
Time_Shift_6
Note_On_63_Vel_54
Time_Shift_10
Note_On_75_Vel_0
Time_Shift_1
Note_On_63_Vel_0
Time_Shift_7
Note_On_67_Vel_0
Time_Shift_5
Note_On_61_Vel_0
Time_Shift_33
Note_On_79_Vel_84
Time_Shift_60
Note_On_67_Vel_69
Time_Shift_3
Note_On_61_Vel_67
Time_Shift_1
Note_On_85_Vel_86
Time_Shift_1
Note_On_63_Vel_57
Time_Shift_2
Note_On_79_Vel_0
Time_Shift_25
Note_On_67_Vel_0
Time_Shift_3
Note_On_61_Vel_0
Time_Shift_2
Note_On_63_Vel_0
Time_Shift_36
Note_On_85_Vel_0
Time_Shift_10
Note_On_89_Vel_88
Time_Shift_47
Note_On_89_Vel_0
Time_Shift_13
Note_On_56_Vel_71
Time_Shift_4
Note_On_86_Vel_88
Time_Shift_32
Sustain_On
Time_Shift_29
Note_On_87_Vel_88
Time_Shift_11
Note_On_86_Vel_0
Time_Shift_2
Note_On_56_Vel_0
Time_Shift_10
Sustain_Off
Time_Shift_43
Note_On_72_Vel_87
Time_Shift_2
Note_On_87_Vel_0
Time_Shift_7
Note_On_89_Vel_82
Time_Shift_8
Note_On_63_Vel_55
Time_Shift_2
Note_On_66_Vel_57
Time_Shift_12
Note_On_72_Vel_0
Time_Shift_28
Note_On_63_Vel_0
Note_On_66_Vel_0
Time_Shift_18
Note_On_87_Vel_92
Time_Shift_17
Note_On_89_Vel_0
Time_Shift_44
Note_On_57_Vel_75
Time_Shift_2
Note_On_96_Vel_97
Note_On_87_Vel_0
Time_Shift_16
Note_On_63_Vel_41
Time_Shift_20
Note_On_57_Vel_0
Time_Shift_2
Note_On_63_Vel_0
Time_Shift_29
Note_On_84_Vel_88
Time_Shift_44
Note_On_96_Vel_0
Time_Shift_19
Note_On_58_Vel_66
Time_Shift_4
Note_On_89_Vel_94
Time_Shift_4
Note_On_84_Vel_0
Time_Shift_57
Sustain_On
Time_Shift_13
Note_On_87_Vel_94
Time_Shift_26
Note_On_89_Vel_0
Time_Shift_6
Note_On_89_Vel_66
Time_Shift_15
Sustain_Off
Time_Shift_17
Note_On_58_Vel_0
Time_Shift_9
Note_On_85_Vel_87
Time_Shift_1
Note_On_73_Vel_73
Time_Shift_5
Note_On_89_Vel_0
Time_Shift_4
Note_On_63_Vel_60
Time_Shift_1
Note_On_87_Vel_0
Time_Shift_17
Note_On_73_Vel_0
Time_Shift_10
Note_On_63_Vel_0
Time_Shift_4
Note_On_85_Vel_0
Time_Shift_19
Note_On_79_Vel_89
Time_Shift_30
Note_On_79_Vel_0
Time_Shift_34
Note_On_51_Vel_86
Time_Shift_2
Note_On_77_Vel_89
Time_Shift_56
Sustain_On
Time_Shift_10
Note_On_75_Vel_91
Time_Shift_23
Note_On_77_Vel_0
Time_Shift_32
Note_On_51_Vel_0
Time_Shift_7
Sustain_Off
Time_Shift_8
Note_On_73_Vel_92
Time_Shift_1
Note_On_56_Vel_81
Time_Shift_16
Note_On_75_Vel_0
Time_Shift_34
Note_On_56_Vel_0
Time_Shift_2
Note_On_73_Vel_0
Time_Shift_15
Note_On_72_Vel_79
Time_Shift_34
Note_On_72_Vel_0
Time_Shift_36
Note_On_70_Vel_81
Time_Shift_15
Note_On_63_Vel_58
Time_Shift_1
Note_On_60_Vel_57
Time_Shift_33
Note_On_63_Vel_0
Time_Shift_7
Note_On_70_Vel_0
Time_Shift_7
Note_On_68_Vel_84
Time_Shift_11
Note_On_60_Vel_0
Time_Shift_55
Note_On_68_Vel_0
Time_Shift_10
Note_On_67_Vel_82
Time_Shift_7
Note_On_50_Vel_66
Note_On_59_Vel_69
Time_Shift_1
Note_On_62_Vel_62
Time_Shift_24
Note_On_67_Vel_0
Time_Shift_1
Note_On_59_Vel_0
Time_Shift_5
Note_On_50_Vel_0
Time_Shift_34
Note_On_65_Vel_74
Time_Shift_1
Note_On_62_Vel_0
Time_Shift_34
Note_On_65_Vel_0
Time_Shift_29
Note_On_63_Vel_85
Time_Shift_2
Note_On_51_Vel_74
Time_Shift_35
Sustain_On
Time_Shift_30
Note_On_67_Vel_77
Time_Shift_7
Note_On_63_Vel_0
Time_Shift_5
Note_On_51_Vel_0
Sustain_Off
Time_Shift_40
Note_On_67_Vel_0
Time_Shift_28
Note_On_73_Vel_75
Time_Shift_7
Note_On_61_Vel_61
Time_Shift_39
Note_On_73_Vel_0
Time_Shift_3
Note_On_61_Vel_0
Time_Shift_14
Note_On_75_Vel_74
Time_Shift_38
Note_On_75_Vel_0
Time_Shift_37
Note_On_79_Vel_79
Time_Shift_2
Note_On_61_Vel_58
Time_Shift_2
Note_On_67_Vel_63
Time_Shift_21
Note_On_58_Vel_31
Time_Shift_3
Note_On_67_Vel_0
Time_Shift_5
Note_On_61_Vel_0
Time_Shift_2
Note_On_79_Vel_0
Time_Shift_16
Note_On_58_Vel_0
Time_Shift_26
Note_On_89_Vel_73
Time_Shift_48
Note_On_89_Vel_0
Time_Shift_17
Note_On_61_Vel_50
Time_Shift_1
Note_On_56_Vel_65
Time_Shift_3
Note_On_86_Vel_74
Time_Shift_5
Note_On_61_Vel_0
Time_Shift_46
Sustain_On
Time_Shift_12
Note_On_87_Vel_75
Time_Shift_6
Note_On_86_Vel_0
Time_Shift_13
Note_On_56_Vel_0
Time_Shift_9
Sustain_Off
Time_Shift_7
Note_On_87_Vel_0
Time_Shift_37
Note_On_89_Vel_73
Time_Shift_4
Note_On_68_Vel_71
Time_Shift_1
Note_On_60_Vel_62
Time_Shift_23
Note_On_68_Vel_0
Time_Shift_2
Note_On_89_Vel_0
Note_On_60_Vel_0
Time_Shift_37
Note_On_87_Vel_77
Time_Shift_54
Note_On_87_Vel_0
Time_Shift_8
Note_On_92_Vel_79
Time_Shift_5
Note_On_60_Vel_47
Time_Shift_2
Note_On_68_Vel_69
Time_Shift_34
Note_On_60_Vel_0
Time_Shift_11
Note_On_92_Vel_0
Time_Shift_23
Note_On_80_Vel_77
Time_Shift_27
Note_On_68_Vel_0
Time_Shift_3
Note_On_80_Vel_0
Time_Shift_44
Note_On_89_Vel_82
Time_Shift_3
Note_On_51_Vel_64
Time_Shift_67
Note_On_87_Vel_83
Time_Shift_16
Note_On_51_Vel_0
Time_Shift_2
Note_On_89_Vel_0
Time_Shift_54
Note_On_67_Vel_74
Time_Shift_3
Note_On_85_Vel_78
Note_On_87_Vel_0
Time_Shift_3
Note_On_61_Vel_71
Time_Shift_5
Note_On_56_Vel_58
Time_Shift_1
Note_On_63_Vel_53
Time_Shift_7
Note_On_63_Vel_0
Time_Shift_10
Note_On_67_Vel_0
Time_Shift_3
Note_On_61_Vel_0
Time_Shift_1
Note_On_85_Vel_0
Time_Shift_7
Note_On_56_Vel_0
Time_Shift_32
Note_On_79_Vel_78
Time_Shift_36
Note_On_79_Vel_0
Time_Shift_31
Note_On_77_Vel_71
Note_On_61_Vel_69
Note_On_68_Vel_66
Note_On_67_Vel_62
Time_Shift_4
Note_On_63_Vel_57
Time_Shift_6
Note_On_68_Vel_0
Time_Shift_20
Note_On_61_Vel_0
Time_Shift_7
Note_On_63_Vel_0
Time_Shift_12
Note_On_67_Vel_0
Time_Shift_3
Note_On_77_Vel_0
Time_Shift_19
Note_On_75_Vel_78
Time_Shift_34
Note_On_75_Vel_0
Time_Shift_32
Note_On_74_Vel_71
Time_Shift_6
Note_On_44_Vel_67
Time_Shift_52
Note_On_44_Vel_0
Time_Shift_4
Note_On_75_Vel_82
Time_Shift_14
Note_On_74_Vel_0
Time_Shift_45
Note_On_75_Vel_0
Time_Shift_27
Note_On_63_Vel_63
Time_Shift_2
Note_On_77_Vel_64
Note_On_60_Vel_63
Time_Shift_9
Note_On_56_Vel_47
Time_Shift_18
Note_On_60_Vel_0
Time_Shift_1
Note_On_63_Vel_0
Time_Shift_15
Note_On_77_Vel_0
Time_Shift_10
Note_On_56_Vel_0
Time_Shift_20
Note_On_75_Vel_70
Time_Shift_40
Note_On_75_Vel_0
Time_Shift_21
Note_On_60_Vel_59
Time_Shift_1
Note_On_80_Vel_73
Time_Shift_7
Note_On_63_Vel_49
Time_Shift_23
Note_On_60_Vel_0
Time_Shift_6
Note_On_63_Vel_0
Time_Shift_32
Note_On_68_Vel_66
Time_Shift_38
Note_On_68_Vel_0
Time_Shift_4
Note_On_80_Vel_0
Time_Shift_12
Note_On_67_Vel_72
Time_Shift_16
Note_On_39_Vel_69
Time_Shift_34
Note_On_39_Vel_0
Time_Shift_25
Note_On_67_Vel_0
Time_Shift_10
Note_On_73_Vel_73
Time_Shift_55
Note_On_73_Vel_0
Time_Shift_13
Note_On_75_Vel_76
Time_Shift_22
Note_On_61_Vel_58
Time_Shift_2
Note_On_67_Vel_60
Time_Shift_7
Note_On_75_Vel_0
Time_Shift_35
Note_On_61_Vel_0
Note_On_67_Vel_0
Time_Shift_13
Note_On_79_Vel_78
Time_Shift_57
Note_On_79_Vel_0
Time_Shift_5
Note_On_85_Vel_82
Time_Shift_4
Note_On_67_Vel_65
Note_On_61_Vel_65
Time_Shift_8
Note_On_63_Vel_59
Time_Shift_22
Note_On_67_Vel_0
Time_Shift_8
Note_On_61_Vel_0
Note_On_63_Vel_0
Time_Shift_25
Note_On_85_Vel_0
Time_Shift_16
Note_On_89_Vel_75
Time_Shift_61
Note_On_56_Vel_61
Note_On_61_Vel_44
Time_Shift_11
Note_On_61_Vel_0
Time_Shift_2
Note_On_86_Vel_79
Time_Shift_6
Sustain_On
Time_Shift_59
Note_On_87_Vel_81
Time_Shift_54
Note_On_72_Vel_75
Time_Shift_10
Note_On_89_Vel_0
Time_Shift_8
Note_On_89_Vel_80
Time_Shift_61
Note_On_87_Vel_0
Time_Shift_9
Note_On_87_Vel_85
Time_Shift_80
Note_On_96_Vel_87
Time_Shift_14
Note_On_57_Vel_58
Time_Shift_7
Note_On_63_Vel_44
Time_Shift_81
Note_On_84_Vel_86
Time_Shift_88
Note_On_58_Vel_49
Time_Shift_43
Note_On_57_Vel_0
Time_Shift_2
Note_On_87_Vel_0
Note_On_72_Vel_0
Note_On_56_Vel_0
Note_On_63_Vel_0
Time_Shift_1
Note_On_84_Vel_0
Time_Shift_1
Note_On_96_Vel_0
Note_On_86_Vel_0
Time_Shift_1
Sustain_Off
Time_Shift_3
Note_On_89_Vel_0
Time_Shift_10
Note_On_89_Vel_72
Time_Shift_82
Sustain_On
Time_Shift_34
Note_On_88_Vel_78
Time_Shift_89
Note_On_87_Vel_81
Time_Shift_5
Note_On_73_Vel_62
Note_On_67_Vel_58
Time_Shift_9
Note_On_63_Vel_53
Time_Shift_63
Note_On_85_Vel_83
Time_Shift_83
Note_On_79_Vel_87
Time_Shift_9
Note_On_89_Vel_0
Time_Shift_16
Note_On_58_Vel_0
Time_Shift_40
Note_On_77_Vel_88
Time_Shift_85
Note_On_76_Vel_89
Time_Shift_76
Note_On_75_Vel_92
Time_Shift_75
Note_On_73_Vel_0
Time_Shift_11
Note_On_73_Vel_94
Time_Shift_73
Note_On_67_Vel_0
Time_Shift_10
Note_On_67_Vel_86
Time_Shift_86
Note_On_65_Vel_83
Time_Shift_43
Note_On_67_Vel_0
Time_Shift_8
Note_On_67_Vel_41
Time_Shift_47
Note_On_64_Vel_90
Time_Shift_214
Note_On_63_Vel_0
Time_Shift_9
Note_On_63_Vel_96
Time_Shift_30
Note_On_56_Vel_64
Time_Shift_2
Note_On_44_Vel_58
Time_Shift_12
Note_On_88_Vel_0
Time_Shift_4
Note_On_87_Vel_0
Time_Shift_1
Note_On_65_Vel_0
Note_On_75_Vel_0
Note_On_77_Vel_0
Note_On_67_Vel_0
Note_On_85_Vel_0
Note_On_73_Vel_0
Note_On_64_Vel_0
Note_On_76_Vel_0
Time_Shift_2
Sustain_Off
Time_Shift_1
Note_On_79_Vel_0
Time_Shift_92
Sustain_On
Time_Shift_243
Note_On_60_Vel_65
Time_Shift_3
Note_On_54_Vel_62
Time_Shift_238
Note_On_60_Vel_0
Time_Shift_7
Note_On_60_Vel_70
Time_Shift_1
Note_On_54_Vel_0
Time_Shift_5
Note_On_54_Vel_69
Time_Shift_144
Note_On_54_Vel_0
Time_Shift_77
Note_On_65_Vel_91
Time_Shift_13
Note_On_37_Vel_67
Time_Shift_6
Note_On_61_Vel_76
Time_Shift_11
Note_On_44_Vel_0
Note_On_60_Vel_0
Note_On_56_Vel_0
Time_Shift_2
Sustain_Off
Time_Shift_10
Note_On_63_Vel_0
Time_Shift_54
Sustain_On
Time_Shift_77
Note_On_61_Vel_0
Time_Shift_6
Note_On_61_Vel_60
Time_Shift_109
Note_On_37_Vel_0
Time_Shift_5
Note_On_56_Vel_70
Time_Shift_3
Note_On_49_Vel_66
Time_Shift_2
Note_On_37_Vel_64
Time_Shift_101
Note_On_63_Vel_83
Time_Shift_4
Note_On_56_Vel_0
Time_Shift_6
Note_On_56_Vel_69
Time_Shift_8
Note_On_65_Vel_0
Time_Shift_2
Note_On_49_Vel_0
Time_Shift_3
Sustain_Off
Time_Shift_6
Note_On_49_Vel_53
Time_Shift_14
Sustain_On
Time_Shift_61
Note_On_61_Vel_0
Time_Shift_8
Note_On_49_Vel_0
Time_Shift_2
Note_On_53_Vel_78
Note_On_61_Vel_81
Time_Shift_2
Note_On_49_Vel_66
Time_Shift_86
Note_On_60_Vel_76
Time_Shift_2
Note_On_56_Vel_0
Time_Shift_5
Note_On_49_Vel_0
Time_Shift_1
Note_On_56_Vel_71
Note_On_53_Vel_0
Note_On_63_Vel_0
Time_Shift_1
Note_On_61_Vel_0
Time_Shift_1
Note_On_37_Vel_0
Time_Shift_11
Sustain_Off
Time_Shift_66
Note_On_56_Vel_0
Time_Shift_5
Note_On_60_Vel_0
Time_Shift_27
Note_On_58_Vel_76
Time_Shift_5
Note_On_55_Vel_64
Time_Shift_26
Note_On_39_Vel_57
Time_Shift_52
Sustain_On
Time_Shift_199
Note_On_55_Vel_0
Note_On_58_Vel_0
Time_Shift_6
Note_On_61_Vel_61
Time_Shift_4
Note_On_55_Vel_51
Time_Shift_1
Note_On_58_Vel_52
Time_Shift_1
Note_On_51_Vel_47
Time_Shift_6
Sustain_Off
Time_Shift_7
Note_On_39_Vel_0
Time_Shift_52
Note_On_61_Vel_0
Time_Shift_8
Note_On_58_Vel_0
Time_Shift_20
Note_On_77_Vel_67
Time_Shift_2
Note_On_67_Vel_69
Time_Shift_24
Note_On_51_Vel_0
Time_Shift_18
Note_On_77_Vel_0
Time_Shift_5
Note_On_67_Vel_0
Time_Shift_8
Note_On_55_Vel_0
Time_Shift_33
Note_On_75_Vel_75
Time_Shift_10
Note_On_70_Vel_63
Time_Shift_7
Note_On_51_Vel_46
Time_Shift_3
Note_On_58_Vel_52
Time_Shift_18
Note_On_75_Vel_0
Time_Shift_20
Note_On_58_Vel_0
Time_Shift_1
Note_On_70_Vel_0
Time_Shift_38
Note_On_51_Vel_0
Time_Shift_127
Note_On_73_Vel_72
Time_Shift_61
Note_On_72_Vel_70
Time_Shift_4
Sustain_On
Time_Shift_9
Note_On_56_Vel_60
Time_Shift_2
Note_On_68_Vel_60
Time_Shift_1
Note_On_44_Vel_56
Time_Shift_65
Note_On_44_Vel_0
Time_Shift_10
Note_On_44_Vel_59
Time_Shift_124
Note_On_51_Vel_69
Time_Shift_4
Note_On_72_Vel_0
Note_On_44_Vel_0
Note_On_56_Vel_0
Time_Shift_3
Note_On_73_Vel_0
Time_Shift_2
Note_On_68_Vel_0
Time_Shift_1
Note_On_56_Vel_52
Note_On_44_Vel_48
Sustain_Off
Time_Shift_20
Note_On_51_Vel_0
Time_Shift_28
Note_On_44_Vel_0
Note_On_56_Vel_0
Time_Shift_36
Note_On_60_Vel_65
Time_Shift_1
Note_On_70_Vel_78
Time_Shift_23
Note_On_60_Vel_0
Time_Shift_54
Note_On_68_Vel_83
Time_Shift_2
Note_On_70_Vel_0
Time_Shift_5
Note_On_51_Vel_65
Time_Shift_4
Note_On_44_Vel_56
Note_On_63_Vel_73
Time_Shift_2
Note_On_60_Vel_51
Time_Shift_1
Note_On_56_Vel_51
Time_Shift_23
Note_On_51_Vel_0
Time_Shift_10
Note_On_68_Vel_0
Time_Shift_4
Note_On_44_Vel_0
Time_Shift_4
Note_On_63_Vel_0
Time_Shift_15
Note_On_56_Vel_0
Time_Shift_39
Note_On_60_Vel_0
Time_Shift_68
Note_On_65_Vel_88
Time_Shift_57
Note_On_44_Vel_78
Time_Shift_7
Note_On_63_Vel_93
Note_On_56_Vel_90
Time_Shift_8
Note_On_65_Vel_0
Time_Shift_29
Sustain_On
Time_Shift_210
Note_On_60_Vel_81
Time_Shift_2
Note_On_54_Vel_73
Time_Shift_18
Note_On_44_Vel_0
Time_Shift_4
Note_On_44_Vel_49
Time_Shift_180
Note_On_54_Vel_0
Note_On_60_Vel_0
Time_Shift_7
Note_On_60_Vel_75
Time_Shift_1
Note_On_56_Vel_0
Time_Shift_2
Note_On_54_Vel_78
Time_Shift_8
Note_On_56_Vel_69
Time_Shift_180
Note_On_37_Vel_76
Time_Shift_31
Note_On_56_Vel_0
Time_Shift_2
Note_On_44_Vel_0
Note_On_54_Vel_0
Time_Shift_1
Note_On_63_Vel_0
Time_Shift_2
Note_On_60_Vel_0
Time_Shift_4
Sustain_Off
Time_Shift_5
Note_On_65_Vel_89
Time_Shift_8
Note_On_61_Vel_79
Time_Shift_49
Sustain_On
Time_Shift_181
Note_On_56_Vel_73
Time_Shift_3
Note_On_49_Vel_71
Time_Shift_92
Note_On_56_Vel_0
Time_Shift_5
Note_On_63_Vel_83
Time_Shift_4
Note_On_56_Vel_76
Time_Shift_7
Note_On_65_Vel_0
Time_Shift_84
Note_On_61_Vel_0
Time_Shift_4
Note_On_53_Vel_80
Note_On_61_Vel_82
Time_Shift_2
Note_On_46_Vel_69
Time_Shift_79
Note_On_56_Vel_0
Time_Shift_2
Note_On_60_Vel_85
Time_Shift_5
Note_On_56_Vel_77
Time_Shift_1
Note_On_46_Vel_0
Time_Shift_1
Note_On_53_Vel_0
Note_On_63_Vel_0
Time_Shift_1
Note_On_37_Vel_0
Note_On_61_Vel_0
Note_On_49_Vel_0
Time_Shift_2
Sustain_Off
Time_Shift_49
Note_On_60_Vel_0
Time_Shift_23
Note_On_56_Vel_0
Time_Shift_24
Note_On_58_Vel_86
Time_Shift_5
Note_On_55_Vel_82
Time_Shift_4
Note_On_39_Vel_73
Time_Shift_21
Sustain_On
Time_Shift_200
Note_On_55_Vel_0
Time_Shift_6
Note_On_55_Vel_70
Time_Shift_8
Note_On_61_Vel_81
Time_Shift_1
Note_On_58_Vel_0
Time_Shift_3
Note_On_51_Vel_72
Time_Shift_77
Note_On_64_Vel_90
Time_Shift_1
Note_On_76_Vel_91
Time_Shift_1
Note_On_73_Vel_86
Time_Shift_1
Note_On_70_Vel_74
Time_Shift_71
Note_On_76_Vel_0
Time_Shift_7
Note_On_61_Vel_0
Note_On_64_Vel_0
Note_On_70_Vel_0
Note_On_73_Vel_0
Time_Shift_3
Note_On_76_Vel_99
Time_Shift_3
Note_On_70_Vel_77
Time_Shift_1
Note_On_73_Vel_88
Time_Shift_3
Note_On_64_Vel_85
Time_Shift_2
Note_On_61_Vel_79
Time_Shift_6
Note_On_56_Vel_70
Time_Shift_182
Note_On_39_Vel_0
Time_Shift_31
Note_On_55_Vel_0
Time_Shift_13
Note_On_64_Vel_0
Time_Shift_1
Note_On_56_Vel_0
Time_Shift_2
Sustain_Off
Time_Shift_14
Note_On_76_Vel_0
Time_Shift_3
Note_On_75_Vel_89
Time_Shift_2
Note_On_63_Vel_80
Time_Shift_3
Note_On_61_Vel_0
Note_On_70_Vel_0
Note_On_73_Vel_0
Time_Shift_5
Note_On_61_Vel_71
Note_On_73_Vel_71
Time_Shift_2
Note_On_70_Vel_69
Time_Shift_1
Note_On_55_Vel_61
Time_Shift_38
Sustain_On
Time_Shift_200
Note_On_61_Vel_0
Time_Shift_3
Note_On_75_Vel_0
Note_On_63_Vel_0
Note_On_55_Vel_0
Time_Shift_1
Note_On_70_Vel_0
Time_Shift_4
Sustain_Off
Time_Shift_1
Note_On_61_Vel_74
Time_Shift_6
Note_On_51_Vel_0
Time_Shift_2
Note_On_58_Vel_54
Note_On_56_Vel_63
Time_Shift_2
Note_On_52_Vel_48
Time_Shift_19
Note_On_73_Vel_0
Time_Shift_13
Note_On_58_Vel_0
Time_Shift_1
Note_On_56_Vel_0
Time_Shift_9
Note_On_61_Vel_0
Time_Shift_8
Note_On_52_Vel_0
Time_Shift_51
Note_On_76_Vel_89
Time_Shift_7
Note_On_73_Vel_74
Time_Shift_1
Note_On_64_Vel_78
Time_Shift_3
Note_On_70_Vel_69
Time_Shift_2
Note_On_61_Vel_61
Time_Shift_15
Note_On_56_Vel_48
Time_Shift_18
Note_On_73_Vel_0
Note_On_64_Vel_0
Note_On_70_Vel_0
Time_Shift_2
Note_On_76_Vel_0
Time_Shift_32
Note_On_61_Vel_0
Time_Shift_109
Note_On_75_Vel_84
Time_Shift_3
Note_On_55_Vel_55
Time_Shift_2
Note_On_63_Vel_64
Time_Shift_6
Note_On_70_Vel_58
Note_On_61_Vel_58
Time_Shift_13
Note_On_73_Vel_56
Time_Shift_5
Note_On_56_Vel_0
Time_Shift_2
Note_On_58_Vel_45
Time_Shift_21
Sustain_On
Time_Shift_326
Note_On_44_Vel_60
Time_Shift_35
Note_On_75_Vel_0
Time_Shift_11
Note_On_75_Vel_92
Time_Shift_15
Note_On_68_Vel_74
Time_Shift_156
Note_On_55_Vel_0
Note_On_63_Vel_0
Time_Shift_1
Note_On_61_Vel_0
Time_Shift_1
Note_On_70_Vel_0
Time_Shift_6
Sustain_Off
Time_Shift_17
Note_On_58_Vel_0
Time_Shift_16
Note_On_73_Vel_0
Time_Shift_36
Note_On_66_Vel_74
Time_Shift_6
Note_On_56_Vel_59
Time_Shift_2
Note_On_60_Vel_53
Time_Shift_55
Note_On_60_Vel_0
Note_On_66_Vel_0
Time_Shift_77
Sustain_On
Time_Shift_115
Note_On_44_Vel_0
Time_Shift_21
Note_On_66_Vel_69
Time_Shift_6
Note_On_60_Vel_62
Time_Shift_4
Note_On_56_Vel_0
Sustain_Off
Time_Shift_9
Note_On_56_Vel_61
Time_Shift_76
Sustain_On
Time_Shift_127
Note_On_49_Vel_63
Time_Shift_54
Note_On_60_Vel_0
Note_On_66_Vel_0
Note_On_56_Vel_0
Note_On_68_Vel_0
Time_Shift_1
Note_On_75_Vel_0
Time_Shift_1
Sustain_Off
Time_Shift_20
Note_On_77_Vel_82
Time_Shift_6
Note_On_73_Vel_77
Time_Shift_29
Sustain_On
Time_Shift_53
Note_On_49_Vel_0
Time_Shift_143
Note_On_65_Vel_61
Time_Shift_6
Note_On_56_Vel_62
Time_Shift_9
Note_On_61_Vel_53
Time_Shift_79
Note_On_75_Vel_88
Time_Shift_4
Note_On_68_Vel_84
Time_Shift_4
Sustain_Off
Time_Shift_9
Sustain_On
Time_Shift_84
Note_On_61_Vel_0
Note_On_65_Vel_0
Note_On_73_Vel_0
Time_Shift_9
Note_On_73_Vel_90
Time_Shift_1
Note_On_65_Vel_76
Time_Shift_1
Note_On_61_Vel_73
Time_Shift_3
Note_On_58_Vel_65
Time_Shift_86
Note_On_68_Vel_0
Time_Shift_4
Note_On_72_Vel_89
Time_Shift_6
Note_On_68_Vel_81
Time_Shift_55
Note_On_56_Vel_0
Time_Shift_1
Note_On_65_Vel_0
Note_On_61_Vel_0
Note_On_58_Vel_0
Time_Shift_1
Note_On_75_Vel_0
Note_On_77_Vel_0
Time_Shift_1
Note_On_68_Vel_0
Note_On_73_Vel_0
Time_Shift_12
Sustain_Off
Time_Shift_51
Sustain_On
Time_Shift_12
Note_On_67_Vel_69
Time_Shift_2
Note_On_70_Vel_76
Time_Shift_12
Note_On_39_Vel_66
Time_Shift_1
Note_On_51_Vel_63
Time_Shift_242
Note_On_70_Vel_0
Time_Shift_6
Note_On_70_Vel_68
Time_Shift_1
Note_On_67_Vel_0
Time_Shift_9
Note_On_67_Vel_50
Time_Shift_4
Note_On_61_Vel_58
Time_Shift_17
Sustain_Off
Time_Shift_1
Note_On_72_Vel_0
Time_Shift_5
Note_On_70_Vel_0
Time_Shift_1
Note_On_67_Vel_0
Time_Shift_2
Note_On_51_Vel_0
Time_Shift_5
Note_On_61_Vel_0
Time_Shift_2
Note_On_39_Vel_0
Time_Shift_28
Note_On_89_Vel_75
Time_Shift_4
Note_On_79_Vel_75
Time_Shift_33
Note_On_79_Vel_0
Time_Shift_51
Note_On_61_Vel_70
Time_Shift_2
Note_On_87_Vel_80
Time_Shift_2
Note_On_82_Vel_74
Time_Shift_11
Note_On_89_Vel_0
Time_Shift_19
Note_On_61_Vel_0
Note_On_87_Vel_0
Time_Shift_27
Note_On_82_Vel_0
Time_Shift_120
Note_On_85_Vel_77
Time_Shift_1
Note_On_75_Vel_71
Time_Shift_35
Note_On_75_Vel_0
Time_Shift_28
Note_On_84_Vel_88
Time_Shift_8
Note_On_80_Vel_78
Time_Shift_3
Note_On_56_Vel_61
Time_Shift_5
Note_On_85_Vel_0
Sustain_On
Time_Shift_196
Note_On_60_Vel_70
Note_On_63_Vel_72
Time_Shift_44
Note_On_56_Vel_0
Note_On_80_Vel_0
Note_On_84_Vel_0
Time_Shift_1
Note_On_60_Vel_0
Time_Shift_2
Note_On_63_Vel_0
Time_Shift_5
Sustain_Off
Time_Shift_15
Note_On_82_Vel_89
Note_On_72_Vel_81
Time_Shift_21
Sustain_On
Time_Shift_66
Note_On_80_Vel_90
Time_Shift_2
Note_On_77_Vel_80
Time_Shift_10
Note_On_61_Vel_73
Time_Shift_2
Note_On_65_Vel_52
Time_Shift_1
Note_On_68_Vel_65
Time_Shift_149
Note_On_77_Vel_0
Time_Shift_10
Note_On_73_Vel_89
Time_Shift_1
Note_On_77_Vel_92
Time_Shift_6
Note_On_72_Vel_0
Time_Shift_1
Note_On_61_Vel_0
Time_Shift_1
Note_On_80_Vel_0
Time_Shift_1
Note_On_82_Vel_0
Time_Shift_26
Note_On_65_Vel_0
Time_Shift_16
Note_On_68_Vel_0
Time_Shift_4
Note_On_75_Vel_88
Time_Shift_3
Note_On_56_Vel_85
Time_Shift_2
Note_On_68_Vel_83
Note_On_44_Vel_71
Time_Shift_27
Sustain_Off
Time_Shift_25
Note_On_56_Vel_0
Time_Shift_8
Note_On_44_Vel_0
Time_Shift_147
Note_On_66_Vel_84
Time_Shift_3
Note_On_56_Vel_77
Time_Shift_1
Note_On_60_Vel_53
Time_Shift_56
Note_On_56_Vel_0
Note_On_66_Vel_0
Time_Shift_154
Note_On_60_Vel_0
Time_Shift_3
Note_On_66_Vel_86
Time_Shift_4
Note_On_60_Vel_56
Time_Shift_4
Note_On_56_Vel_70
Time_Shift_4
Note_On_77_Vel_0
Time_Shift_13
Note_On_66_Vel_0
Time_Shift_3
Note_On_75_Vel_0
Time_Shift_7
Note_On_68_Vel_0
Time_Shift_15
Note_On_60_Vel_0
Time_Shift_8
Note_On_56_Vel_0
Time_Shift_77
Note_On_73_Vel_0
Time_Shift_69
Note_On_49_Vel_90
Time_Shift_2
Note_On_77_Vel_88
Time_Shift_1
Note_On_73_Vel_87
Time_Shift_28
Sustain_On
Time_Shift_166
Note_On_65_Vel_76
Time_Shift_11
Note_On_56_Vel_75
Time_Shift_2
Note_On_61_Vel_65
Time_Shift_49
Note_On_75_Vel_86
Time_Shift_4
Note_On_68_Vel_73
Time_Shift_67
Note_On_68_Vel_0
Note_On_75_Vel_0
Time_Shift_9
Note_On_75_Vel_82
Time_Shift_2
Note_On_68_Vel_82
Time_Shift_5
Note_On_56_Vel_0
Time_Shift_10
Note_On_56_Vel_64
Time_Shift_51
Note_On_61_Vel_0
Note_On_73_Vel_0
Time_Shift_7
Note_On_61_Vel_83
Time_Shift_1
Note_On_65_Vel_0
Time_Shift_1
Note_On_73_Vel_94
Time_Shift_4
Note_On_58_Vel_77
Time_Shift_1
Note_On_65_Vel_82
Time_Shift_94
Note_On_68_Vel_0
Time_Shift_2
Note_On_72_Vel_95
Time_Shift_7
Note_On_68_Vel_86
Time_Shift_131
Note_On_56_Vel_0
Time_Shift_1
Note_On_65_Vel_0
Note_On_72_Vel_0
Note_On_73_Vel_0
Note_On_68_Vel_0
Note_On_58_Vel_0
Note_On_75_Vel_0
Note_On_77_Vel_0
Time_Shift_3
Sustain_Off
Time_Shift_9
Note_On_49_Vel_0
Note_On_61_Vel_0
Time_Shift_27
Note_On_63_Vel_95
Note_On_70_Vel_93
Time_Shift_1
Note_On_51_Vel_96
Time_Shift_1
Note_On_39_Vel_78
Time_Shift_33
Sustain_On
Time_Shift_176
Note_On_51_Vel_0
Time_Shift_4
Note_On_51_Vel_57
Time_Shift_62
Note_On_64_Vel_80
Time_Shift_3
Note_On_56_Vel_70
Time_Shift_5
Note_On_61_Vel_72
Time_Shift_1
Note_On_58_Vel_66
Time_Shift_69
Note_On_76_Vel_98
Time_Shift_5
Note_On_85_Vel_81
Note_On_88_Vel_88
Note_On_82_Vel_82
Time_Shift_66
Note_On_56_Vel_0
Note_On_76_Vel_0
Note_On_88_Vel_0
Time_Shift_8
Note_On_88_Vel_96
Note_On_58_Vel_0
Note_On_61_Vel_0
Note_On_64_Vel_0
Note_On_82_Vel_0
Note_On_85_Vel_0
Note_On_76_Vel_96
Time_Shift_4
Note_On_56_Vel_63
Note_On_64_Vel_80
Time_Shift_2
Note_On_61_Vel_63
Note_On_82_Vel_84
Time_Shift_5
Note_On_85_Vel_78
Note_On_58_Vel_67
Time_Shift_174
Note_On_70_Vel_0
Note_On_76_Vel_0
Time_Shift_1
Note_On_85_Vel_0
Note_On_88_Vel_0
Note_On_51_Vel_0
Note_On_64_Vel_0
Note_On_58_Vel_0
Time_Shift_1
Sustain_Off
Note_On_63_Vel_0
Time_Shift_13
Note_On_39_Vel_0
Time_Shift_7
Note_On_56_Vel_0
Time_Shift_4
Note_On_87_Vel_93
Time_Shift_1
Note_On_75_Vel_98
Time_Shift_3
Note_On_61_Vel_0
Note_On_82_Vel_0
Time_Shift_4
Note_On_82_Vel_82
Note_On_63_Vel_87
Time_Shift_1
Note_On_61_Vel_67
Time_Shift_6
Note_On_55_Vel_65
Time_Shift_7
Note_On_58_Vel_58
Time_Shift_20
Sustain_On
Time_Shift_246
Note_On_61_Vel_0
Time_Shift_6
Note_On_64_Vel_88
Time_Shift_2
Note_On_58_Vel_0
Time_Shift_3
Note_On_61_Vel_74
Time_Shift_1
Note_On_56_Vel_78
Note_On_58_Vel_70
Time_Shift_103
Note_On_82_Vel_0
Time_Shift_4
Note_On_88_Vel_94
Time_Shift_1
Note_On_76_Vel_99
Note_On_82_Vel_89
Time_Shift_4
Note_On_85_Vel_83
Time_Shift_34
Sustain_Off
Note_On_55_Vel_0
Note_On_58_Vel_0
Note_On_82_Vel_0
Note_On_76_Vel_0
Note_On_63_Vel_0
Note_On_75_Vel_0
Note_On_88_Vel_0
Time_Shift_1
Note_On_56_Vel_0
Note_On_87_Vel_0
Time_Shift_3
Note_On_85_Vel_0
Time_Shift_7
Note_On_61_Vel_0
Time_Shift_8
Note_On_64_Vel_0
Time_Shift_29
Note_On_76_Vel_101
Time_Shift_4
Note_On_88_Vel_95
Time_Shift_2
Note_On_64_Vel_77
Note_On_82_Vel_89
Time_Shift_6
Note_On_56_Vel_62
Time_Shift_1
Note_On_85_Vel_85
Note_On_61_Vel_61
Time_Shift_4
Sustain_On
Time_Shift_305
Note_On_88_Vel_0
Time_Shift_2
Note_On_76_Vel_0
Note_On_82_Vel_0
Note_On_64_Vel_0
Time_Shift_1
Note_On_61_Vel_0
Time_Shift_1
Note_On_56_Vel_0
Time_Shift_1
Note_On_85_Vel_0
Time_Shift_9
Sustain_Off
Time_Shift_111
Sustain_On
Time_Shift_54
Sustain_Off
Time_Shift_159
Note_On_39_Vel_34
Time_Shift_10
Note_On_39_Vel_0
Time_Shift_21
Note_On_67_Vel_48
Time_Shift_76
Note_On_73_Vel_70
Time_Shift_32
Note_On_67_Vel_0
Time_Shift_10
Note_On_73_Vel_0
Time_Shift_40
Note_On_75_Vel_67
Time_Shift_9
Note_On_67_Vel_51
Time_Shift_8
Note_On_61_Vel_49
Time_Shift_12
Note_On_75_Vel_0
Time_Shift_3
Note_On_67_Vel_0
Time_Shift_8
Note_On_61_Vel_0
Time_Shift_37
Note_On_79_Vel_74
Time_Shift_51
Note_On_79_Vel_0
Time_Shift_19
Note_On_85_Vel_75
Time_Shift_3
Note_On_67_Vel_52
Time_Shift_4
Note_On_61_Vel_51
Time_Shift_11
Note_On_64_Vel_27
Time_Shift_9
Note_On_64_Vel_0
Time_Shift_4
Note_On_67_Vel_0
Time_Shift_7
Note_On_61_Vel_0
Time_Shift_24
Note_On_85_Vel_0
Time_Shift_21
Note_On_89_Vel_71
Time_Shift_42
Note_On_89_Vel_0
Time_Shift_34
Note_On_86_Vel_72
Time_Shift_1
Note_On_61_Vel_33
Time_Shift_1
Note_On_56_Vel_60
Time_Shift_4
Note_On_61_Vel_0
Time_Shift_60
Note_On_87_Vel_77
Time_Shift_20
Note_On_86_Vel_0
Time_Shift_4
Note_On_56_Vel_0
Time_Shift_27
Note_On_87_Vel_0
Time_Shift_33
Note_On_60_Vel_54
Note_On_68_Vel_69
Time_Shift_2
Note_On_89_Vel_76
Time_Shift_20
Note_On_68_Vel_0
Note_On_63_Vel_37
Time_Shift_3
Note_On_60_Vel_0
Time_Shift_6
Note_On_89_Vel_0
Time_Shift_17
Note_On_63_Vel_0
Time_Shift_20
Note_On_87_Vel_75
Time_Shift_53
Note_On_87_Vel_0
Time_Shift_17
Note_On_68_Vel_65
Time_Shift_1
Note_On_92_Vel_77
Time_Shift_4
Note_On_60_Vel_47
Time_Shift_6
Note_On_63_Vel_45
Time_Shift_24
Note_On_60_Vel_0
Time_Shift_14
Note_On_68_Vel_0
Time_Shift_7
Note_On_63_Vel_0
Time_Shift_8
Note_On_92_Vel_0
Time_Shift_15
Note_On_80_Vel_73
Time_Shift_28
Note_On_80_Vel_0
Time_Shift_37
Note_On_51_Vel_69
Time_Shift_3
Note_On_89_Vel_80
Time_Shift_17
Sustain_On
Time_Shift_62
Note_On_87_Vel_80
Time_Shift_3
Note_On_51_Vel_0
Time_Shift_8
Sustain_Off
Time_Shift_9
Note_On_89_Vel_0
Time_Shift_51
Note_On_67_Vel_71
Note_On_87_Vel_0
Time_Shift_1
Note_On_85_Vel_75
Note_On_61_Vel_66
Time_Shift_5
Note_On_63_Vel_51
Time_Shift_7
Note_On_63_Vel_0
Time_Shift_12
Note_On_67_Vel_0
Time_Shift_5
Note_On_85_Vel_0
Time_Shift_1
Note_On_61_Vel_0
Time_Shift_37
Note_On_79_Vel_81
Time_Shift_34
Note_On_79_Vel_0
Time_Shift_36
Note_On_61_Vel_61
Time_Shift_5
Note_On_77_Vel_68
Time_Shift_3
Note_On_68_Vel_57
Time_Shift_6
Note_On_67_Vel_48
Time_Shift_14
Note_On_61_Vel_0
Time_Shift_16
Note_On_68_Vel_0
Time_Shift_7
Note_On_67_Vel_0
Time_Shift_6
Note_On_77_Vel_0
Time_Shift_19
Note_On_75_Vel_75
Time_Shift_33
Note_On_75_Vel_0
Time_Shift_36
Note_On_74_Vel_70
Time_Shift_5
Note_On_44_Vel_62
Time_Shift_32
Sustain_On
Time_Shift_32
Note_On_75_Vel_81
Time_Shift_20
Note_On_44_Vel_0
Time_Shift_4
Note_On_74_Vel_0
Time_Shift_3
Sustain_Off
Time_Shift_22
Note_On_75_Vel_0
Time_Shift_20
Note_On_61_Vel_79
Time_Shift_26
Note_On_77_Vel_58
Time_Shift_5
Note_On_67_Vel_36
Time_Shift_1
Note_On_61_Vel_0
Time_Shift_20
Note_On_67_Vel_0
Time_Shift_19
Note_On_77_Vel_0
Time_Shift_17
Note_On_75_Vel_71
Time_Shift_38
Note_On_75_Vel_0
Time_Shift_26
Note_On_63_Vel_48
Time_Shift_4
Note_On_80_Vel_78
Time_Shift_1
Note_On_60_Vel_59
Time_Shift_3
Note_On_63_Vel_0
Time_Shift_27
Note_On_60_Vel_0
Time_Shift_8
Note_On_80_Vel_0
Time_Shift_28
Note_On_68_Vel_68
Time_Shift_39
Note_On_68_Vel_0
Time_Shift_25
Note_On_67_Vel_73
Time_Shift_12
Note_On_39_Vel_71
Time_Shift_40
Note_On_39_Vel_0
Time_Shift_3
Note_On_67_Vel_0
Time_Shift_23
Note_On_73_Vel_80
Time_Shift_58
Note_On_73_Vel_0
Time_Shift_10
Note_On_75_Vel_79
Time_Shift_23
Note_On_67_Vel_61
Note_On_61_Vel_58
Time_Shift_2
Note_On_63_Vel_55
Time_Shift_9
Note_On_75_Vel_0
Time_Shift_21
Note_On_63_Vel_0
Time_Shift_10
Note_On_67_Vel_0
Time_Shift_8
Note_On_61_Vel_0
Time_Shift_6
Note_On_79_Vel_82
Time_Shift_54
Note_On_79_Vel_0
Time_Shift_8
Note_On_85_Vel_83
Time_Shift_4
Note_On_67_Vel_67
Time_Shift_1
Note_On_61_Vel_67
Time_Shift_10
Note_On_63_Vel_56
Time_Shift_22
Note_On_67_Vel_0
Time_Shift_5
Note_On_61_Vel_0
Time_Shift_20
Note_On_63_Vel_0
Time_Shift_4
Note_On_85_Vel_0
Time_Shift_12
Note_On_89_Vel_84
Time_Shift_44
Note_On_89_Vel_0
Time_Shift_28
Note_On_86_Vel_84
Note_On_56_Vel_70
Time_Shift_27
Sustain_On
Time_Shift_37
Note_On_87_Vel_88
Time_Shift_5
Note_On_56_Vel_0
Time_Shift_1
Note_On_86_Vel_0
Time_Shift_14
Sustain_Off
Time_Shift_53
Note_On_87_Vel_0
Note_On_89_Vel_86
Time_Shift_2
Note_On_72_Vel_80
Time_Shift_7
Note_On_63_Vel_61
Time_Shift_7
Note_On_68_Vel_57
Time_Shift_5
Note_On_68_Vel_0
Time_Shift_13
Note_On_72_Vel_0
Time_Shift_25
Note_On_63_Vel_0
Time_Shift_6
Note_On_87_Vel_89
Time_Shift_54
Note_On_89_Vel_0
Time_Shift_6
Note_On_87_Vel_0
Time_Shift_7
Note_On_96_Vel_95
Time_Shift_9
Note_On_57_Vel_71
Time_Shift_31
Note_On_57_Vel_0
Time_Shift_23
Note_On_84_Vel_87
Time_Shift_71
Note_On_89_Vel_95
Time_Shift_4
Note_On_58_Vel_66
Time_Shift_70
Note_On_87_Vel_89
Time_Shift_19
Note_On_58_Vel_0
Time_Shift_5
Note_On_58_Vel_51
Time_Shift_33
Note_On_58_Vel_0
Time_Shift_4
Note_On_89_Vel_0
Time_Shift_3
Note_On_84_Vel_0
Time_Shift_1
Note_On_96_Vel_0
Time_Shift_5
Note_On_85_Vel_92
Time_Shift_2
Note_On_87_Vel_0
Time_Shift_6
Note_On_73_Vel_70
Time_Shift_5
Note_On_63_Vel_61
Time_Shift_51
Note_On_63_Vel_0
Note_On_73_Vel_0
Time_Shift_1
Note_On_79_Vel_86
Time_Shift_7
Note_On_85_Vel_0
Time_Shift_26
Note_On_79_Vel_0
Time_Shift_33
Note_On_77_Vel_91
Time_Shift_1
Note_On_51_Vel_78
Time_Shift_68
Note_On_75_Vel_91
Time_Shift_70
Note_On_73_Vel_94
Note_On_77_Vel_0
Time_Shift_3
Note_On_56_Vel_80
Time_Shift_8
Note_On_51_Vel_0
Time_Shift_1
Note_On_75_Vel_0
Time_Shift_17
Note_On_56_Vel_0
Time_Shift_18
Note_On_73_Vel_0
Time_Shift_20
Note_On_72_Vel_81
Time_Shift_41
Note_On_72_Vel_0
Time_Shift_35
Note_On_60_Vel_63
Note_On_70_Vel_81
Time_Shift_6
Note_On_63_Vel_68
Time_Shift_25
Note_On_60_Vel_0
Time_Shift_17
Note_On_70_Vel_0
Time_Shift_7
Note_On_68_Vel_85
Time_Shift_11
Note_On_63_Vel_0
Time_Shift_57
Note_On_68_Vel_0
Time_Shift_5
Note_On_67_Vel_81
Time_Shift_11
Note_On_50_Vel_63
Time_Shift_8
Note_On_59_Vel_57
Time_Shift_13
Note_On_67_Vel_0
Time_Shift_29
Note_On_50_Vel_0
Time_Shift_7
Note_On_59_Vel_0
Time_Shift_5
Note_On_65_Vel_75
Time_Shift_32
Note_On_65_Vel_0
Time_Shift_35
Note_On_51_Vel_75
Note_On_63_Vel_89
Time_Shift_36
Sustain_On
Time_Shift_29
Note_On_67_Vel_74
Time_Shift_5
Sustain_Off
Time_Shift_2
Note_On_63_Vel_0
Time_Shift_2
Note_On_51_Vel_0
Time_Shift_33
Note_On_67_Vel_0
Time_Shift_34
Note_On_73_Vel_75
Time_Shift_7
Note_On_61_Vel_67
Time_Shift_37
Note_On_61_Vel_0
Time_Shift_13
Note_On_73_Vel_0
Time_Shift_16
Note_On_75_Vel_73
Time_Shift_34
Note_On_67_Vel_52
Time_Shift_11
Note_On_75_Vel_0
Time_Shift_42
Note_On_61_Vel_57
Note_On_79_Vel_62
Time_Shift_3
Note_On_63_Vel_52
Time_Shift_1
Note_On_67_Vel_0
Time_Shift_30
Note_On_63_Vel_0
Time_Shift_8
Note_On_61_Vel_0
Time_Shift_15
Note_On_79_Vel_0
Time_Shift_10
Note_On_89_Vel_70
Time_Shift_36
Note_On_89_Vel_0
Time_Shift_32
Note_On_56_Vel_61
Time_Shift_2
Note_On_63_Vel_48
Time_Shift_1
Note_On_86_Vel_65
Time_Shift_4
Note_On_63_Vel_0
Time_Shift_55
Note_On_86_Vel_0
Time_Shift_2
Note_On_87_Vel_71
Time_Shift_12
Note_On_56_Vel_0
Time_Shift_23
Note_On_87_Vel_0
Time_Shift_35
Note_On_68_Vel_62
Time_Shift_2
Note_On_60_Vel_53
Time_Shift_5
Note_On_89_Vel_69
Time_Shift_16
Note_On_68_Vel_0
Time_Shift_1
Note_On_60_Vel_0
Time_Shift_41
Note_On_89_Vel_0
Time_Shift_5
Note_On_87_Vel_65
Time_Shift_34
Note_On_87_Vel_0
Time_Shift_29
Note_On_60_Vel_50
Time_Shift_1
Note_On_68_Vel_62
Time_Shift_1
Note_On_92_Vel_70
Time_Shift_22
Note_On_60_Vel_0
Time_Shift_4
Note_On_68_Vel_0
Time_Shift_5
Note_On_92_Vel_0
Time_Shift_40
Note_On_80_Vel_73
Time_Shift_33
Note_On_80_Vel_0
Time_Shift_33
Note_On_51_Vel_70
Time_Shift_4
Note_On_89_Vel_78
Time_Shift_27
Sustain_On
Time_Shift_44
Note_On_87_Vel_77
Time_Shift_4
Note_On_51_Vel_0
Time_Shift_1
Sustain_Off
Time_Shift_5
Note_On_89_Vel_0
Time_Shift_57
Note_On_87_Vel_0
Time_Shift_1
Note_On_67_Vel_73
Time_Shift_3
Note_On_85_Vel_75
Time_Shift_2
Note_On_61_Vel_65
Time_Shift_9
Note_On_63_Vel_53
Time_Shift_4
Note_On_63_Vel_0
Time_Shift_12
Note_On_67_Vel_0
Time_Shift_1
Note_On_61_Vel_0
Time_Shift_6
Note_On_85_Vel_0
Time_Shift_38
Note_On_79_Vel_75
Time_Shift_36
Note_On_79_Vel_0
Time_Shift_29
Note_On_61_Vel_62
Time_Shift_6
Note_On_67_Vel_61
Time_Shift_8
Note_On_77_Vel_68
Time_Shift_21
Note_On_61_Vel_0
Time_Shift_2
Note_On_67_Vel_0
Time_Shift_22
Note_On_77_Vel_0
Time_Shift_21
Note_On_75_Vel_77
Time_Shift_30
Note_On_75_Vel_0
Time_Shift_42
Note_On_74_Vel_68
Time_Shift_6
Note_On_44_Vel_63
Time_Shift_30
Note_On_74_Vel_0
Time_Shift_6
Note_On_44_Vel_0
Time_Shift_27
Note_On_75_Vel_78
Time_Shift_46
Note_On_75_Vel_0
Time_Shift_34
Note_On_60_Vel_66
Time_Shift_1
Note_On_77_Vel_70
Time_Shift_1
Note_On_63_Vel_65
Time_Shift_26
Note_On_63_Vel_0
Time_Shift_2
Note_On_77_Vel_0
Time_Shift_16
Note_On_60_Vel_0
Time_Shift_21
Note_On_75_Vel_75
Time_Shift_37
Note_On_75_Vel_0
Time_Shift_32
Note_On_68_Vel_61
Time_Shift_2
Note_On_80_Vel_75
Time_Shift_1
Note_On_60_Vel_57
Note_On_63_Vel_48
Time_Shift_38
Note_On_63_Vel_0
Time_Shift_7
Note_On_60_Vel_0
Time_Shift_16
Note_On_68_Vel_0
Time_Shift_8
Note_On_68_Vel_69
Time_Shift_43
Note_On_68_Vel_0
Time_Shift_5
Note_On_80_Vel_0
Time_Shift_19
Note_On_67_Vel_70
Time_Shift_5
Note_On_39_Vel_72
Time_Shift_4
Sustain_On
Time_Shift_27
Note_On_39_Vel_0
Time_Shift_6
Note_On_67_Vel_0
Time_Shift_11
Sustain_Off
Time_Shift_16
Note_On_73_Vel_78
Time_Shift_68
Note_On_73_Vel_0
Time_Shift_12
Note_On_75_Vel_71
Time_Shift_11
Note_On_61_Vel_66
Time_Shift_1
Note_On_67_Vel_63
Time_Shift_6
Note_On_63_Vel_59
Time_Shift_8
Note_On_75_Vel_0
Time_Shift_16
Note_On_61_Vel_0
Time_Shift_5
Note_On_63_Vel_0
Time_Shift_13
Note_On_67_Vel_0
Time_Shift_26
Note_On_79_Vel_64
Time_Shift_38
Note_On_79_Vel_0
Time_Shift_18
Note_On_67_Vel_63
Note_On_85_Vel_78
Time_Shift_4
Note_On_61_Vel_64
Time_Shift_5
Note_On_63_Vel_52
Time_Shift_28
Note_On_67_Vel_0
Time_Shift_1
Note_On_61_Vel_0
Time_Shift_13
Note_On_85_Vel_0
Time_Shift_30
Note_On_89_Vel_77
Time_Shift_13
Note_On_63_Vel_0
Time_Shift_31
Sustain_On
Time_Shift_27
Note_On_56_Vel_57
Time_Shift_8
Note_On_86_Vel_78
Time_Shift_70
Note_On_87_Vel_75
Time_Shift_56
Note_On_89_Vel_0
Time_Shift_3
Note_On_72_Vel_69
Time_Shift_8
Note_On_89_Vel_75
Time_Shift_18
Note_On_67_Vel_44
Time_Shift_14
Note_On_63_Vel_47
Time_Shift_42
Note_On_87_Vel_0
Time_Shift_11
Note_On_87_Vel_82
Time_Shift_72
Note_On_96_Vel_85
Time_Shift_12
Note_On_57_Vel_60
Time_Shift_88
Note_On_84_Vel_78
Time_Shift_87
Note_On_58_Vel_49
Time_Shift_31
Note_On_63_Vel_0
Note_On_57_Vel_0
Time_Shift_1
Note_On_56_Vel_0
Time_Shift_1
Note_On_84_Vel_0
Note_On_86_Vel_0
Note_On_87_Vel_0
Time_Shift_1
Note_On_96_Vel_0
Note_On_72_Vel_0
Time_Shift_4
Note_On_67_Vel_0
Time_Shift_3
Sustain_Off
Time_Shift_11
Note_On_89_Vel_0
Time_Shift_35
Note_On_89_Vel_66
Time_Shift_4
Sustain_On
Time_Shift_117
Note_On_88_Vel_71
Time_Shift_89
Note_On_87_Vel_78
Time_Shift_16
Note_On_63_Vel_56
Time_Shift_3
Note_On_67_Vel_56
Time_Shift_64
Note_On_85_Vel_77
Time_Shift_89
Note_On_79_Vel_85
Time_Shift_69
Note_On_77_Vel_83
Time_Shift_87
Note_On_76_Vel_88
Time_Shift_84
Note_On_75_Vel_85
Time_Shift_96
Note_On_73_Vel_88
Time_Shift_92
Note_On_67_Vel_0
Time_Shift_6
Note_On_67_Vel_80
Time_Shift_91
Note_On_65_Vel_85
Time_Shift_123
Note_On_64_Vel_88
Time_Shift_157
Note_On_67_Vel_0
Time_Shift_8
Note_On_67_Vel_41
Time_Shift_101
Note_On_44_Vel_49
Time_Shift_75
Note_On_63_Vel_0
Time_Shift_11
Note_On_63_Vel_85
Time_Shift_53
Note_On_87_Vel_0
Note_On_65_Vel_0
Time_Shift_1
Note_On_88_Vel_0
Note_On_76_Vel_0
Note_On_75_Vel_0
Note_On_85_Vel_0
Note_On_64_Vel_0
Note_On_73_Vel_0
Note_On_67_Vel_0
Note_On_77_Vel_0
Note_On_89_Vel_0
Note_On_79_Vel_0
Time_Shift_3
Sustain_Off
Time_Shift_1
Note_On_58_Vel_0
Time_Shift_69
Sustain_On
Time_Shift_402
Note_On_60_Vel_51
Time_Shift_3
Note_On_48_Vel_52
Time_Shift_5
Note_On_54_Vel_48
Time_Shift_289
Note_On_48_Vel_0
Note_On_54_Vel_0
Note_On_60_Vel_0
Time_Shift_4
Note_On_60_Vel_60
Time_Shift_2
Note_On_48_Vel_62
Note_On_54_Vel_52
Time_Shift_217
Note_On_60_Vel_0
Time_Shift_3
Note_On_43_Vel_58
Time_Shift_5
Note_On_60_Vel_49
Time_Shift_39
Note_On_44_Vel_0
Time_Shift_1
Note_On_54_Vel_0
Time_Shift_2
Sustain_Off
Time_Shift_26
Note_On_63_Vel_0
Time_Shift_16
Sustain_On
Time_Shift_64
Note_On_62_Vel_83
Time_Shift_151
Note_On_60_Vel_0
Time_Shift_6
Note_On_50_Vel_53
Time_Shift_5
Note_On_60_Vel_61
Time_Shift_23
Note_On_55_Vel_42
Time_Shift_69
Note_On_61_Vel_76
Time_Shift_104
Note_On_62_Vel_0
Time_Shift_10
Note_On_62_Vel_82
Time_Shift_102
Note_On_53_Vel_55
Time_Shift_3
Note_On_65_Vel_71
Time_Shift_97
Note_On_63_Vel_79
Time_Shift_19
Note_On_50_Vel_0
Time_Shift_4
Note_On_50_Vel_52
Time_Shift_116
Note_On_60_Vel_0
Time_Shift_1
Note_On_61_Vel_0
Note_On_43_Vel_0
Note_On_50_Vel_0
Time_Shift_1
Note_On_53_Vel_0
Note_On_65_Vel_0
Note_On_55_Vel_0
Time_Shift_3
Sustain_Off
Time_Shift_5
Note_On_48_Vel_0
Time_Shift_8
Note_On_62_Vel_0
Time_Shift_5
Note_On_36_Vel_45
Time_Shift_3
Note_On_62_Vel_66
Time_Shift_84
Sustain_On
Time_Shift_161
Note_On_63_Vel_0
Time_Shift_127
Note_On_55_Vel_45
Time_Shift_17
Note_On_51_Vel_43
Time_Shift_254
Note_On_60_Vel_59
Time_Shift_2
Note_On_51_Vel_0
Note_On_55_Vel_0
Time_Shift_4
Note_On_55_Vel_42
Time_Shift_6
Note_On_51_Vel_45
Time_Shift_179
Note_On_51_Vel_0
Time_Shift_1
Note_On_55_Vel_0
Note_On_60_Vel_0
Note_On_62_Vel_0
Time_Shift_1
Note_On_36_Vel_0
Time_Shift_2
Sustain_Off
Time_Shift_19
Note_On_41_Vel_59
Time_Shift_41
Sustain_On
Time_Shift_203
Note_On_63_Vel_58
Note_On_53_Vel_52
Time_Shift_9
Note_On_57_Vel_52
Time_Shift_198
Note_On_67_Vel_86
Time_Shift_13
Note_On_53_Vel_0
Note_On_63_Vel_0
Time_Shift_9
Note_On_53_Vel_49
Time_Shift_1
Note_On_63_Vel_48
Time_Shift_255
Note_On_46_Vel_59
Time_Shift_34
Note_On_67_Vel_0
Time_Shift_6
Note_On_67_Vel_77
Time_Shift_8
Sustain_Off
Time_Shift_12
Note_On_53_Vel_0
Time_Shift_1
Note_On_57_Vel_0
Time_Shift_34
Note_On_41_Vel_0
Time_Shift_31
Sustain_On
Time_Shift_161
Note_On_63_Vel_0
Time_Shift_10
Note_On_63_Vel_58
Time_Shift_2
Note_On_53_Vel_60
Time_Shift_2
Note_On_58_Vel_53
Time_Shift_202
Note_On_58_Vel_0
Note_On_63_Vel_0
Time_Shift_6
Note_On_63_Vel_59
Time_Shift_1
Note_On_58_Vel_58
Time_Shift_8
Note_On_53_Vel_0
Time_Shift_8
Note_On_53_Vel_51
Time_Shift_207
Note_On_46_Vel_0
Time_Shift_4
Note_On_46_Vel_56
Time_Shift_42
Note_On_65_Vel_80
Time_Shift_21
Note_On_63_Vel_0
Time_Shift_1
Note_On_53_Vel_0
Note_On_58_Vel_0
Time_Shift_1
Sustain_Off
Time_Shift_15
Note_On_67_Vel_0
Time_Shift_39
Sustain_On
Time_Shift_211
Note_On_67_Vel_86
Time_Shift_40
Note_On_56_Vel_45
Time_Shift_1
Note_On_62_Vel_44
Time_Shift_3
Note_On_58_Vel_37
Time_Shift_162
Note_On_68_Vel_91
Time_Shift_21
Note_On_56_Vel_0
Note_On_58_Vel_0
Note_On_62_Vel_0
Time_Shift_3
Note_On_56_Vel_54
Time_Shift_2
Note_On_58_Vel_43
Time_Shift_1
Note_On_62_Vel_40
Time_Shift_244
Note_On_70_Vel_73
Time_Shift_10
Note_On_39_Vel_50
Time_Shift_17
Note_On_62_Vel_0
Time_Shift_1
Note_On_56_Vel_0
Note_On_65_Vel_0
Note_On_67_Vel_0
Note_On_68_Vel_0
Time_Shift_1
Sustain_Off
Note_On_58_Vel_0
Time_Shift_12
Note_On_46_Vel_0
Time_Shift_48
Note_On_39_Vel_0
Time_Shift_22
Sustain_On
Time_Shift_183
Note_On_61_Vel_46
Time_Shift_5
Note_On_63_Vel_44
Note_On_56_Vel_45
Time_Shift_1
Note_On_51_Vel_43
Time_Shift_194
Note_On_68_Vel_51
Time_Shift_1
Note_On_51_Vel_0
Note_On_56_Vel_0
Note_On_61_Vel_0
Note_On_63_Vel_0
Time_Shift_9
Note_On_56_Vel_45
Time_Shift_1
Note_On_63_Vel_47
Note_On_61_Vel_43
Note_On_51_Vel_47
Time_Shift_235
Note_On_63_Vel_0
Time_Shift_7
Note_On_56_Vel_0
Time_Shift_1
Note_On_51_Vel_0
Time_Shift_1
Note_On_63_Vel_46
Time_Shift_3
Note_On_39_Vel_41
Time_Shift_4
Sustain_Off
Time_Shift_46
Sustain_On
Time_Shift_38
Note_On_39_Vel_0
Time_Shift_154
Note_On_61_Vel_0
Note_On_63_Vel_0
Time_Shift_4
Note_On_55_Vel_51
Time_Shift_2
Note_On_51_Vel_40
Time_Shift_1
Note_On_63_Vel_40
Time_Shift_1
Note_On_61_Vel_46
Time_Shift_199
Note_On_55_Vel_0
Note_On_63_Vel_0
Time_Shift_4
Note_On_63_Vel_41
Time_Shift_4
Note_On_61_Vel_0
Time_Shift_2
Note_On_55_Vel_46
Time_Shift_5
Note_On_61_Vel_39
Note_On_51_Vel_0
Time_Shift_12
Note_On_51_Vel_42
Time_Shift_288
Note_On_44_Vel_46
Time_Shift_86
Note_On_51_Vel_0
Time_Shift_2
Sustain_Off
Time_Shift_2
Note_On_72_Vel_78
Time_Shift_2
Note_On_68_Vel_0
Time_Shift_8
Note_On_70_Vel_0
Time_Shift_7
Note_On_55_Vel_0
Note_On_61_Vel_0
Time_Shift_8
Note_On_63_Vel_0
Time_Shift_39
Sustain_On
Time_Shift_232
Note_On_60_Vel_48
Time_Shift_17
Note_On_51_Vel_41
Time_Shift_1
Note_On_56_Vel_47
Time_Shift_210
Note_On_51_Vel_0
Note_On_56_Vel_0
Note_On_60_Vel_0
Time_Shift_5
Note_On_51_Vel_46
Note_On_60_Vel_41
Time_Shift_4
Note_On_56_Vel_44
Time_Shift_195
Note_On_70_Vel_86
Time_Shift_6
Note_On_48_Vel_57
Time_Shift_25
Note_On_51_Vel_0
Note_On_56_Vel_0
Note_On_60_Vel_0
Note_On_72_Vel_0
Time_Shift_2
Sustain_Off
Time_Shift_1
Note_On_44_Vel_0
Time_Shift_77
Sustain_On
Time_Shift_123
Note_On_70_Vel_0
Time_Shift_1
Note_On_60_Vel_50
Time_Shift_2
Note_On_55_Vel_52
Time_Shift_3
Note_On_70_Vel_59
Time_Shift_1
Note_On_64_Vel_52
Time_Shift_189
Note_On_72_Vel_91
Time_Shift_58
Note_On_48_Vel_0
Time_Shift_187
Note_On_68_Vel_87
Time_Shift_12
Note_On_60_Vel_0
Time_Shift_4
Note_On_65_Vel_52
Time_Shift_3
Note_On_60_Vel_42
Time_Shift_4
Note_On_53_Vel_46
Time_Shift_1
Note_On_56_Vel_42
Time_Shift_37
Note_On_64_Vel_0
Time_Shift_1
Note_On_72_Vel_0
Note_On_55_Vel_0
Note_On_70_Vel_0
Time_Shift_5
Sustain_Off
Time_Shift_68
Sustain_On
Time_Shift_54
Note_On_68_Vel_0
Time_Shift_9
Note_On_68_Vel_53
Time_Shift_6
Note_On_65_Vel_0
Time_Shift_8
Note_On_56_Vel_0
Time_Shift_4
Note_On_65_Vel_51
Time_Shift_3
Note_On_56_Vel_53
Time_Shift_1
Note_On_60_Vel_0
Time_Shift_4
Note_On_60_Vel_33
Time_Shift_211
Note_On_56_Vel_0
Note_On_60_Vel_0
Note_On_65_Vel_0
Time_Shift_10
Note_On_56_Vel_67
Note_On_60_Vel_49
Time_Shift_1
Note_On_65_Vel_46
Time_Shift_150
Note_On_60_Vel_0
Time_Shift_9
Note_On_60_Vel_35
Time_Shift_6
Note_On_56_Vel_0
Time_Shift_12
Note_On_56_Vel_37
Time_Shift_65
Note_On_65_Vel_0
Time_Shift_11
Note_On_65_Vel_75
Time_Shift_40
Note_On_50_Vel_67
Time_Shift_96
Note_On_56_Vel_0
Note_On_68_Vel_0
Note_On_53_Vel_0
Note_On_60_Vel_0
Time_Shift_1
Sustain_Off
Time_Shift_98
Sustain_On
Time_Shift_70
Note_On_59_Vel_51
Time_Shift_3
Note_On_56_Vel_52
Time_Shift_181
Note_On_67_Vel_79
Time_Shift_15
Note_On_56_Vel_0
Time_Shift_7
Note_On_59_Vel_0
Time_Shift_3
Note_On_56_Vel_45
Time_Shift_2
Note_On_59_Vel_54
Time_Shift_200
Note_On_63_Vel_68
Time_Shift_16
Note_On_51_Vel_41
Time_Shift_21
Note_On_50_Vel_0
Note_On_59_Vel_0
Time_Shift_1
Note_On_56_Vel_0
Note_On_67_Vel_0
Time_Shift_10
Sustain_Off
Time_Shift_1
Note_On_65_Vel_0
Time_Shift_161
Sustain_On
Time_Shift_45
Note_On_60_Vel_43
Time_Shift_1
Note_On_51_Vel_0
Time_Shift_3
Note_On_56_Vel_44
Time_Shift_2
Note_On_51_Vel_34
Time_Shift_233
Note_On_60_Vel_0
Time_Shift_8
Note_On_56_Vel_0
Time_Shift_1
Note_On_60_Vel_42
Time_Shift_8
Note_On_56_Vel_49
Time_Shift_14
Note_On_51_Vel_0
Time_Shift_9
Note_On_51_Vel_22
Time_Shift_239
Note_On_65_Vel_64
Time_Shift_41
Note_On_39_Vel_45
Time_Shift_15
Note_On_56_Vel_0
Note_On_60_Vel_0
Note_On_51_Vel_0
Time_Shift_1
Note_On_63_Vel_0
Time_Shift_6
Sustain_Off
Time_Shift_58
Sustain_On
Time_Shift_216
Note_On_63_Vel_76
Time_Shift_28
Note_On_55_Vel_45
Time_Shift_14
Note_On_51_Vel_36
Time_Shift_2
Note_On_61_Vel_47
Time_Shift_185
Note_On_55_Vel_0
Time_Shift_2
Note_On_58_Vel_71
Time_Shift_4
Note_On_55_Vel_47
Time_Shift_17
Note_On_51_Vel_0
Time_Shift_4
Note_On_51_Vel_32
Time_Shift_4
Note_On_39_Vel_0
Time_Shift_11
Note_On_39_Vel_33
Time_Shift_181
Note_On_60_Vel_58
Time_Shift_20
Note_On_63_Vel_0
Time_Shift_1
Note_On_61_Vel_0
Time_Shift_1
Note_On_58_Vel_0
Note_On_39_Vel_0
Time_Shift_2
Note_On_65_Vel_0
Time_Shift_1
Sustain_Off
Time_Shift_5
Note_On_51_Vel_0
Note_On_55_Vel_0
Time_Shift_2
Note_On_44_Vel_35
Time_Shift_10
Note_On_51_Vel_22
Time_Shift_73
Sustain_On
Time_Shift_123
Note_On_51_Vel_0
Time_Shift_10
Note_On_51_Vel_39
Time_Shift_13
Note_On_44_Vel_0
Time_Shift_7
Note_On_56_Vel_38
Time_Shift_4
Note_On_44_Vel_34
Time_Shift_135
Note_On_60_Vel_0
Time_Shift_4
Note_On_60_Vel_33
Time_Shift_57
Note_On_51_Vel_0
Time_Shift_8
Note_On_56_Vel_0
Time_Shift_2
Note_On_51_Vel_41
Time_Shift_3
Note_On_56_Vel_35
Time_Shift_276
Note_On_42_Vel_37
Time_Shift_64
Note_On_60_Vel_0
Time_Shift_8
Note_On_63_Vel_64
Time_Shift_4
Note_On_60_Vel_38
Time_Shift_24
Sustain_Off
Time_Shift_4
Note_On_44_Vel_0
Time_Shift_1
Note_On_56_Vel_0
Time_Shift_75
Sustain_On
Time_Shift_138
Note_On_51_Vel_0
Time_Shift_92
Note_On_60_Vel_0
Time_Shift_35
Note_On_51_Vel_30
Time_Shift_15
Note_On_56_Vel_41
Time_Shift_188
Note_On_63_Vel_0
Time_Shift_10
Note_On_63_Vel_68
Time_Shift_6
Note_On_51_Vel_0
Note_On_56_Vel_0
Time_Shift_4
Note_On_60_Vel_33
Time_Shift_4
Note_On_56_Vel_30
Time_Shift_1
Note_On_51_Vel_40
Time_Shift_206
Note_On_60_Vel_0
Note_On_63_Vel_0
Time_Shift_5
Note_On_63_Vel_57
Time_Shift_1
Note_On_43_Vel_44
Time_Shift_4
Note_On_60_Vel_44
Time_Shift_9
Note_On_56_Vel_0
Note_On_51_Vel_0
Time_Shift_1
Note_On_42_Vel_0
Time_Shift_16
Sustain_Off
Time_Shift_36
Note_On_43_Vel_0
Time_Shift_131
Note_On_48_Vel_58
Note_On_55_Vel_43
Time_Shift_38
Note_On_48_Vel_0
Time_Shift_215
Note_On_48_Vel_58
Time_Shift_12
Sustain_On
Time_Shift_215
Note_On_31_Vel_40
Time_Shift_50
Note_On_48_Vel_0
Time_Shift_5
Note_On_55_Vel_0
Time_Shift_1
Note_On_62_Vel_60
Time_Shift_1
Sustain_Off
Time_Shift_7
Note_On_59_Vel_38
Time_Shift_5
Note_On_60_Vel_0
Note_On_63_Vel_0
Time_Shift_16
Sustain_On
Time_Shift_48
Note_On_63_Vel_75
Time_Shift_36
Note_On_62_Vel_0
Time_Shift_11
Note_On_62_Vel_70
Time_Shift_68
Note_On_61_Vel_76
Time_Shift_32
Note_On_53_Vel_59
Time_Shift_7
Note_On_58_Vel_44
Time_Shift_1
Note_On_63_Vel_0
Time_Shift_4
Note_On_58_Vel_0
Time_Shift_8
Note_On_31_Vel_0
Time_Shift_53
Note_On_59_Vel_0
Note_On_62_Vel_0
Time_Shift_6
Note_On_62_Vel_72
Time_Shift_5
Note_On_59_Vel_61
Time_Shift_74
Note_On_53_Vel_0
Time_Shift_1
Note_On_61_Vel_0
Time_Shift_1
Note_On_62_Vel_0
Note_On_59_Vel_0
Time_Shift_2
Sustain_Off
Time_Shift_28
Note_On_65_Vel_67
Time_Shift_6
Note_On_56_Vel_65
Time_Shift_8
Sustain_On
Note_On_50_Vel_59
Time_Shift_79
Note_On_63_Vel_80
Time_Shift_28
Note_On_55_Vel_60
Time_Shift_144
Note_On_36_Vel_54
Time_Shift_3
Note_On_62_Vel_67
Time_Shift_3
Note_On_65_Vel_0
Note_On_50_Vel_0
Time_Shift_1
Note_On_55_Vel_0
Note_On_63_Vel_0
Time_Shift_5
Sustain_Off
Time_Shift_13
Note_On_56_Vel_0
Time_Shift_5
Note_On_53_Vel_56
Time_Shift_6
Note_On_56_Vel_50
Time_Shift_74
Sustain_On
Time_Shift_150
Note_On_48_Vel_57
Time_Shift_19
Note_On_53_Vel_0
Note_On_56_Vel_0
Time_Shift_5
Note_On_53_Vel_32
Time_Shift_6
Note_On_56_Vel_38
Time_Shift_200
Note_On_60_Vel_62
Time_Shift_19
Note_On_48_Vel_0
Time_Shift_3
Note_On_51_Vel_55
Time_Shift_1
Note_On_55_Vel_49
Note_On_48_Vel_67
Time_Shift_176
Note_On_48_Vel_0
Note_On_53_Vel_0
Note_On_55_Vel_0
Note_On_51_Vel_0
Time_Shift_2
Sustain_Off
Time_Shift_3
Note_On_36_Vel_0
Time_Shift_7
Note_On_62_Vel_0
Time_Shift_5
Note_On_41_Vel_70
Time_Shift_3
Note_On_56_Vel_0
Time_Shift_46
Sustain_On
Time_Shift_154
Note_On_60_Vel_0
Time_Shift_7
Note_On_53_Vel_66
Time_Shift_1
Note_On_60_Vel_71
Time_Shift_207
Note_On_60_Vel_0
Time_Shift_4
Note_On_67_Vel_84
Time_Shift_3
Note_On_53_Vel_0
Time_Shift_3
Note_On_60_Vel_68
Time_Shift_1
Note_On_53_Vel_71
Time_Shift_3
Note_On_57_Vel_74
Time_Shift_3
Note_On_63_Vel_70
Time_Shift_27
Sustain_Off
Time_Shift_17
Sustain_On
Time_Shift_211
Note_On_34_Vel_67
Time_Shift_54
Note_On_56_Vel_78
Time_Shift_22
Note_On_41_Vel_0
Time_Shift_1
Note_On_57_Vel_0
Note_On_63_Vel_0
Time_Shift_2
Note_On_53_Vel_0
Time_Shift_4
Sustain_Off
Time_Shift_13
Note_On_60_Vel_0
Time_Shift_16
Note_On_67_Vel_0
Time_Shift_11
Note_On_67_Vel_79
Time_Shift_17
Note_On_63_Vel_71
Time_Shift_18
Sustain_On
Time_Shift_226
Note_On_46_Vel_60
Time_Shift_281
Note_On_65_Vel_84
Time_Shift_15
Note_On_46_Vel_0
Note_On_62_Vel_56
Time_Shift_8
Note_On_56_Vel_0
Time_Shift_3
Note_On_46_Vel_48
Time_Shift_1
Note_On_56_Vel_51
Time_Shift_20
Sustain_Off
Time_Shift_23
Note_On_67_Vel_0
Time_Shift_2
Note_On_34_Vel_0
Note_On_63_Vel_0
Time_Shift_66
Sustain_On
Time_Shift_336
Note_On_67_Vel_87
Time_Shift_27
Sustain_Off
Time_Shift_4
Note_On_65_Vel_0
Time_Shift_1
Note_On_63_Vel_66
Note_On_46_Vel_0
Time_Shift_1
Note_On_62_Vel_0
Time_Shift_3
Note_On_55_Vel_46
Time_Shift_2
Note_On_46_Vel_44
Time_Shift_18
Note_On_56_Vel_0
Time_Shift_23
Note_On_46_Vel_0
Time_Shift_4
Note_On_46_Vel_26
Time_Shift_26
Sustain_On
Time_Shift_125
Note_On_68_Vel_91
Time_Shift_20
Note_On_62_Vel_71
Time_Shift_9
Note_On_46_Vel_0
Time_Shift_3
Note_On_53_Vel_41
Time_Shift_2
Note_On_46_Vel_48
Time_Shift_244
Note_On_39_Vel_45
Time_Shift_2
Note_On_46_Vel_0
Time_Shift_1
Note_On_63_Vel_0
Time_Shift_1
Note_On_53_Vel_0
Note_On_62_Vel_0
Time_Shift_1
Note_On_68_Vel_0
Note_On_55_Vel_0
Note_On_67_Vel_0
Time_Shift_1
Sustain_Off
Time_Shift_20
Note_On_70_Vel_77
Time_Shift_13
Note_On_61_Vel_59
Time_Shift_42
Sustain_On
Time_Shift_200
Note_On_61_Vel_0
Time_Shift_3
Note_On_55_Vel_52
Time_Shift_3
Note_On_61_Vel_49
Time_Shift_9
Note_On_51_Vel_41
Time_Shift_192
Note_On_61_Vel_0
Time_Shift_6
Note_On_61_Vel_44
Time_Shift_2
Note_On_51_Vel_0
Note_On_55_Vel_0
Time_Shift_6
Note_On_51_Vel_45
Note_On_55_Vel_44
Time_Shift_201
Note_On_61_Vel_0
Time_Shift_3
Note_On_63_Vel_65
Time_Shift_8
Note_On_61_Vel_51
Time_Shift_5
Note_On_39_Vel_0
Time_Shift_10
Note_On_39_Vel_43
Time_Shift_2
Sustain_Off
Time_Shift_49
Sustain_On
Time_Shift_84
Note_On_39_Vel_0
Time_Shift_70
Note_On_61_Vel_0
Time_Shift_6
Note_On_61_Vel_67
Time_Shift_32
Note_On_51_Vel_0
Note_On_55_Vel_0
Time_Shift_5
Note_On_51_Vel_28
Time_Shift_2
Note_On_55_Vel_45
Time_Shift_162
Note_On_51_Vel_0
Note_On_61_Vel_0
Time_Shift_5
Note_On_61_Vel_63
Time_Shift_3
Note_On_55_Vel_0
Time_Shift_3
Note_On_51_Vel_43
Time_Shift_1
Note_On_55_Vel_48
Time_Shift_88
Note_On_63_Vel_0
Time_Shift_6
Note_On_63_Vel_90
Time_Shift_350
Note_On_44_Vel_47
Time_Shift_75
Note_On_72_Vel_85
Time_Shift_40
Note_On_68_Vel_58
Time_Shift_39
Sustain_Off
Note_On_51_Vel_0
Note_On_61_Vel_0
Note_On_55_Vel_0
Time_Shift_12
Note_On_70_Vel_0
Time_Shift_54
Sustain_On
Time_Shift_202
Note_On_60_Vel_54
Time_Shift_9
Note_On_56_Vel_51
Time_Shift_13
Note_On_51_Vel_41
Time_Shift_221
Note_On_51_Vel_0
Note_On_56_Vel_0
Note_On_60_Vel_0
Time_Shift_6
Note_On_60_Vel_52
Time_Shift_1
Note_On_56_Vel_52
Time_Shift_2
Note_On_51_Vel_57
Time_Shift_254
Note_On_70_Vel_85
Time_Shift_25
Note_On_64_Vel_65
Note_On_36_Vel_55
Time_Shift_13
Note_On_44_Vel_0
Note_On_51_Vel_0
Time_Shift_1
Note_On_68_Vel_0
Note_On_72_Vel_0
Note_On_60_Vel_0
Note_On_56_Vel_0
Time_Shift_4
Sustain_Off
Time_Shift_1
Note_On_63_Vel_0
Time_Shift_54
Sustain_On
Time_Shift_123
Note_On_36_Vel_0
Time_Shift_52
Note_On_48_Vel_68
Time_Shift_202
Note_On_64_Vel_0
Time_Shift_2
Note_On_72_Vel_90
Time_Shift_9
Note_On_64_Vel_74
Time_Shift_4
Note_On_48_Vel_0
Time_Shift_5
Note_On_60_Vel_61
Time_Shift_4
Note_On_48_Vel_61
Note_On_55_Vel_55
Time_Shift_220
Note_On_68_Vel_87
Time_Shift_12
Note_On_65_Vel_70
Time_Shift_5
Note_On_60_Vel_0
Time_Shift_7
Note_On_70_Vel_0
Time_Shift_2
Note_On_60_Vel_50
Time_Shift_1
Note_On_72_Vel_0
Note_On_48_Vel_0
Note_On_41_Vel_52
Time_Shift_1
Sustain_Off
Time_Shift_4
Note_On_55_Vel_0
Time_Shift_8
Note_On_64_Vel_0
Time_Shift_61
Sustain_On
Time_Shift_131
Note_On_60_Vel_0
Time_Shift_4
Note_On_60_Vel_51
Note_On_53_Vel_62
Time_Shift_211
Note_On_53_Vel_0
Note_On_60_Vel_0
Time_Shift_7
Note_On_60_Vel_48
Time_Shift_1
Note_On_53_Vel_64
Time_Shift_207
Note_On_65_Vel_0
Time_Shift_6
Note_On_53_Vel_0
Note_On_41_Vel_0
Time_Shift_1
Note_On_60_Vel_0
Time_Shift_4
Note_On_65_Vel_71
Time_Shift_1
Sustain_Off
Time_Shift_6
Note_On_38_Vel_54
Time_Shift_11
Note_On_59_Vel_54
Time_Shift_55
Sustain_On
Time_Shift_165
Note_On_50_Vel_50
Time_Shift_10
Note_On_56_Vel_49
Time_Shift_201
Note_On_67_Vel_79
Time_Shift_1
Note_On_50_Vel_0
Note_On_59_Vel_0
Time_Shift_5
Note_On_59_Vel_70
Time_Shift_2
Note_On_50_Vel_48
Time_Shift_214
Note_On_39_Vel_50
Note_On_56_Vel_0
Time_Shift_1
Note_On_50_Vel_0
Time_Shift_1
Note_On_38_Vel_0
Time_Shift_1
Note_On_59_Vel_0
Note_On_65_Vel_0
Time_Shift_6
Note_On_68_Vel_0
Time_Shift_4
Sustain_Off
Time_Shift_7
Note_On_63_Vel_72
Time_Shift_5
Note_On_60_Vel_52
Time_Shift_22
Sustain_On
Time_Shift_195
Note_On_68_Vel_88
Time_Shift_20
Note_On_63_Vel_0
Time_Shift_10
Note_On_63_Vel_53
Time_Shift_9
Note_On_56_Vel_46
Note_On_51_Vel_49
Time_Shift_158
Note_On_56_Vel_0
Time_Shift_8
Note_On_68_Vel_0
Time_Shift_3
Note_On_56_Vel_51
Note_On_72_Vel_86
Time_Shift_6
Note_On_68_Vel_75
Time_Shift_14
Note_On_51_Vel_0
Time_Shift_4
Note_On_51_Vel_43
Time_Shift_203
Note_On_39_Vel_0
Time_Shift_7
Note_On_39_Vel_51
Time_Shift_34
Note_On_60_Vel_0
Note_On_63_Vel_0
Time_Shift_1
Note_On_51_Vel_0
Note_On_68_Vel_0
Note_On_72_Vel_0
Time_Shift_1
Sustain_Off
Time_Shift_3
Note_On_67_Vel_0
Time_Shift_16
Note_On_56_Vel_0
Time_Shift_12
Note_On_77_Vel_66
Time_Shift_17
Note_On_73_Vel_58
Time_Shift_17
Sustain_On
Time_Shift_234
Sustain_Off
Time_Shift_2
Note_On_77_Vel_0
Time_Shift_13
Note_On_75_Vel_70
Time_Shift_8
Note_On_70_Vel_60
Time_Shift_11
Sustain_On
Time_Shift_6
Note_On_67_Vel_42
Time_Shift_5
Note_On_55_Vel_38
Time_Shift_5
Note_On_67_Vel_0
Note_On_63_Vel_36
Time_Shift_3
Note_On_61_Vel_40
Time_Shift_9
Note_On_51_Vel_34
Time_Shift_146
Sustain_Off
Time_Shift_11
Note_On_70_Vel_0
Sustain_On
Time_Shift_7
Note_On_70_Vel_64
Note_On_61_Vel_0
Time_Shift_8
Note_On_55_Vel_0
Note_On_63_Vel_0
Time_Shift_3
Note_On_61_Vel_39
Time_Shift_1
Note_On_55_Vel_41
Time_Shift_3
Note_On_63_Vel_52
Time_Shift_1
Note_On_51_Vel_0
Time_Shift_5
Note_On_51_Vel_44
Time_Shift_146
Sustain_Off
Time_Shift_3
Note_On_63_Vel_0
Note_On_51_Vel_0
Note_On_55_Vel_0
Time_Shift_1
Note_On_70_Vel_0
Note_On_61_Vel_0
Note_On_75_Vel_0
Time_Shift_6
Note_On_39_Vel_0
Note_On_73_Vel_0
Time_Shift_22
Note_On_44_Vel_50
Time_Shift_8
Note_On_72_Vel_68
Time_Shift_15
Note_On_68_Vel_61
Time_Shift_5
Note_On_63_Vel_41
Time_Shift_35
Sustain_On
Time_Shift_30
Note_On_44_Vel_0
Time_Shift_123
Note_On_63_Vel_0
Time_Shift_3
Note_On_51_Vel_50
Note_On_60_Vel_45
Time_Shift_2
Note_On_63_Vel_48
Time_Shift_7
Note_On_56_Vel_32
Time_Shift_57
Note_On_60_Vel_0
Time_Shift_100
Sustain_Off
Time_Shift_39
Note_On_51_Vel_0
Note_On_56_Vel_0
Note_On_63_Vel_0
Time_Shift_2
Note_On_60_Vel_53
Time_Shift_2
Note_On_63_Vel_49
Time_Shift_2
Note_On_56_Vel_42
Time_Shift_3
Note_On_51_Vel_48
Time_Shift_37
Sustain_On
Time_Shift_161
Note_On_63_Vel_0
Time_Shift_8
Note_On_60_Vel_0
Time_Shift_2
Note_On_63_Vel_68
Time_Shift_2
Sustain_Off
Note_On_44_Vel_52
Time_Shift_2
Note_On_60_Vel_47
Time_Shift_5
Note_On_68_Vel_0
Time_Shift_35
Sustain_On
Time_Shift_38
Note_On_72_Vel_0
Time_Shift_115
Note_On_51_Vel_0
Note_On_56_Vel_0
Note_On_60_Vel_0
Note_On_63_Vel_0
Time_Shift_4
Note_On_63_Vel_56
Time_Shift_1
Note_On_51_Vel_60
Time_Shift_3
Note_On_56_Vel_64
Time_Shift_2
Note_On_60_Vel_46
Time_Shift_205
Note_On_51_Vel_0
Note_On_60_Vel_0
Note_On_63_Vel_0
Time_Shift_5
Note_On_63_Vel_86
Time_Shift_3
Note_On_56_Vel_0
Time_Shift_3
Note_On_60_Vel_70
Note_On_51_Vel_53
Time_Shift_2
Note_On_56_Vel_60
Time_Shift_202
Note_On_44_Vel_0
Time_Shift_11
Note_On_44_Vel_63
Time_Shift_55
Sustain_Off
Time_Shift_1
Note_On_72_Vel_89
Time_Shift_21
Note_On_60_Vel_0
Time_Shift_3
Note_On_56_Vel_0
Time_Shift_10
Note_On_68_Vel_69
Time_Shift_22
Sustain_On
Time_Shift_8
Note_On_51_Vel_0
Time_Shift_169
Note_On_63_Vel_0
Time_Shift_1
Note_On_51_Vel_62
Time_Shift_3
Note_On_63_Vel_66
Note_On_56_Vel_66
Time_Shift_1
Note_On_60_Vel_49
Time_Shift_195
Note_On_56_Vel_0
Note_On_63_Vel_0
Time_Shift_7
Note_On_51_Vel_0
Time_Shift_3
Note_On_56_Vel_68
Note_On_63_Vel_67
Time_Shift_4
Note_On_51_Vel_53
Time_Shift_213
Note_On_36_Vel_67
Time_Shift_12
Note_On_51_Vel_0
Note_On_72_Vel_0
Note_On_56_Vel_0
Note_On_68_Vel_0
Note_On_44_Vel_0
Time_Shift_1
Note_On_63_Vel_0
Time_Shift_1
Sustain_Off
Time_Shift_20
Note_On_60_Vel_0
Time_Shift_10
Note_On_70_Vel_86
Time_Shift_19
Note_On_64_Vel_72
Time_Shift_20
Note_On_36_Vel_0
Time_Shift_4
Sustain_On
Time_Shift_165
Note_On_60_Vel_69
Note_On_55_Vel_65
Time_Shift_7
Note_On_48_Vel_71
Time_Shift_205
Note_On_48_Vel_0
Note_On_64_Vel_0
Time_Shift_1
Note_On_72_Vel_91
Time_Shift_3
Note_On_48_Vel_66
Time_Shift_6
Note_On_64_Vel_82
Time_Shift_208
Sustain_Off
Time_Shift_1
Note_On_68_Vel_85
Note_On_64_Vel_0
Note_On_48_Vel_0
Time_Shift_1
Note_On_70_Vel_0
Note_On_72_Vel_0
Time_Shift_2
Note_On_65_Vel_73
Note_On_41_Vel_60
Time_Shift_16
Note_On_55_Vel_0
Note_On_60_Vel_0
Time_Shift_61
Sustain_On
Time_Shift_133
Note_On_60_Vel_67
Note_On_53_Vel_60
Time_Shift_205
Note_On_53_Vel_0
Note_On_60_Vel_0
Note_On_65_Vel_0
Time_Shift_4
Note_On_53_Vel_62
Time_Shift_1
Note_On_60_Vel_60
Time_Shift_3
Note_On_65_Vel_58
Time_Shift_207
Note_On_65_Vel_0
Time_Shift_3
Note_On_38_Vel_67
Time_Shift_2
Note_On_65_Vel_71
Time_Shift_16
Note_On_59_Vel_54
Time_Shift_7
Note_On_53_Vel_0
Note_On_60_Vel_0
Time_Shift_3
Sustain_Off
Time_Shift_1
Note_On_41_Vel_0
Time_Shift_68
Sustain_On
Time_Shift_92
Note_On_38_Vel_0
Time_Shift_31
Note_On_59_Vel_0
Note_On_65_Vel_0
Note_On_68_Vel_0
Time_Shift_5
Note_On_50_Vel_56
Time_Shift_4
Note_On_65_Vel_47
Time_Shift_1
Note_On_59_Vel_48
Note_On_56_Vel_59
Time_Shift_1
Note_On_68_Vel_60
Time_Shift_204
Note_On_50_Vel_0
Note_On_59_Vel_0
Time_Shift_3
Note_On_67_Vel_77
Time_Shift_7
Note_On_50_Vel_55
Time_Shift_1
Note_On_59_Vel_53
Time_Shift_192
Note_On_39_Vel_53
Time_Shift_22
Note_On_50_Vel_0
Time_Shift_1
Note_On_68_Vel_0
Note_On_56_Vel_0
Note_On_59_Vel_0
Time_Shift_1
Sustain_Off
Note_On_67_Vel_0
Note_On_65_Vel_0
Time_Shift_9
Note_On_63_Vel_79
Time_Shift_5
Note_On_60_Vel_55
Time_Shift_51
Sustain_On
Time_Shift_169
Note_On_63_Vel_0
Time_Shift_4
Note_On_68_Vel_86
Time_Shift_4
Note_On_63_Vel_78
Time_Shift_4
Note_On_56_Vel_65
Time_Shift_8
Note_On_51_Vel_59
Time_Shift_173
Note_On_72_Vel_88
Time_Shift_6
Note_On_51_Vel_0
Note_On_56_Vel_0
Note_On_60_Vel_0
Note_On_68_Vel_0
Time_Shift_5
Note_On_68_Vel_88
Note_On_60_Vel_62
Time_Shift_1
Note_On_56_Vel_55
Time_Shift_1
Note_On_51_Vel_62
Time_Shift_120
Note_On_75_Vel_92
Time_Shift_104
Note_On_68_Vel_0
Time_Shift_3
Note_On_73_Vel_86
Time_Shift_8
Note_On_68_Vel_69
Note_On_72_Vel_0
Time_Shift_2
Note_On_75_Vel_0
Time_Shift_2
Note_On_63_Vel_0
Time_Shift_3
Sustain_Off
Time_Shift_3
Note_On_63_Vel_66
Time_Shift_3
Note_On_66_Vel_71
Time_Shift_7
Note_On_51_Vel_0
Note_On_56_Vel_0
Note_On_60_Vel_0
Time_Shift_7
Note_On_51_Vel_46
Time_Shift_16
Note_On_39_Vel_0
Time_Shift_15
Sustain_On
Time_Shift_84
Note_On_68_Vel_0
Time_Shift_93
Note_On_51_Vel_0
Note_On_63_Vel_0
Time_Shift_3
Note_On_60_Vel_73
Time_Shift_2
Note_On_57_Vel_70
Time_Shift_2
Note_On_63_Vel_63
Time_Shift_4
Note_On_51_Vel_57
Time_Shift_173
Note_On_66_Vel_0
Time_Shift_3
Note_On_72_Vel_96
Time_Shift_5
Note_On_57_Vel_0
Note_On_60_Vel_0
Note_On_63_Vel_0
Time_Shift_3
Note_On_66_Vel_85
Time_Shift_2
Note_On_63_Vel_87
Time_Shift_2
Note_On_51_Vel_0
Time_Shift_1
Note_On_73_Vel_0
Time_Shift_1
Note_On_57_Vel_72
Time_Shift_1
Note_On_60_Vel_80
Time_Shift_2
Note_On_51_Vel_73
Time_Shift_5
Sustain_Off
Time_Shift_36
Sustain_On
Time_Shift_151
Note_On_57_Vel_0
Note_On_60_Vel_0
Note_On_63_Vel_0
Time_Shift_1
Sustain_Off
Time_Shift_1
Note_On_51_Vel_0
Time_Shift_9
Note_On_72_Vel_0
Time_Shift_7
Note_On_66_Vel_0
Time_Shift_3
Note_On_72_Vel_91
Time_Shift_1
Note_On_39_Vel_73
Time_Shift_10
Note_On_65_Vel_87
Time_Shift_2
Note_On_61_Vel_79
Time_Shift_46
Sustain_On
Time_Shift_153
Note_On_61_Vel_0
Time_Shift_12
Note_On_61_Vel_84
Time_Shift_2
Note_On_58_Vel_73
Time_Shift_9
Note_On_51_Vel_65
Time_Shift_131
Note_On_61_Vel_0
Time_Shift_6
Note_On_61_Vel_80
Time_Shift_2
Note_On_51_Vel_0
Note_On_65_Vel_0
Time_Shift_3
Note_On_70_Vel_87
Time_Shift_1
Note_On_65_Vel_61
Time_Shift_3
Note_On_58_Vel_0
Time_Shift_4
Note_On_51_Vel_64
Time_Shift_1
Note_On_58_Vel_65
Time_Shift_103
Note_On_51_Vel_0
Note_On_65_Vel_0
Time_Shift_7
Note_On_51_Vel_58
Time_Shift_2
Note_On_65_Vel_87
Time_Shift_48
Note_On_71_Vel_87
Time_Shift_30
Note_On_65_Vel_0
Note_On_70_Vel_0
Time_Shift_1
Note_On_58_Vel_0
Note_On_72_Vel_0
Note_On_77_Vel_81
Note_On_51_Vel_0
Note_On_61_Vel_0
Time_Shift_5
Sustain_Off
Time_Shift_30
Note_On_39_Vel_0
Time_Shift_10
Note_On_39_Vel_75
Time_Shift_3
Note_On_75_Vel_95
Time_Shift_25
Sustain_On
Time_Shift_184
Note_On_39_Vel_0
Time_Shift_4
Note_On_62_Vel_89
Time_Shift_2
Note_On_39_Vel_64
Time_Shift_2
Note_On_51_Vel_73
Time_Shift_3
Note_On_59_Vel_76
Time_Shift_174
Note_On_62_Vel_0
Note_On_71_Vel_0
Time_Shift_3
Note_On_74_Vel_96
Time_Shift_1
Note_On_71_Vel_90
Time_Shift_3
Note_On_51_Vel_0
Time_Shift_1
Note_On_62_Vel_84
Time_Shift_1
Note_On_65_Vel_86
Time_Shift_3
Note_On_51_Vel_71
Note_On_75_Vel_0
Time_Shift_18
Note_On_77_Vel_0
Time_Shift_196
Note_On_71_Vel_0
Note_On_51_Vel_0
Time_Shift_1
Note_On_62_Vel_0
Note_On_59_Vel_0
Sustain_Off
Time_Shift_3
Note_On_74_Vel_0
Time_Shift_4
Note_On_74_Vel_91
Time_Shift_10
Note_On_67_Vel_84
Time_Shift_2
Note_On_39_Vel_0
Note_On_65_Vel_0
Time_Shift_1
Note_On_63_Vel_91
Time_Shift_5
Note_On_39_Vel_75
Time_Shift_55
Sustain_On
Time_Shift_154
Note_On_39_Vel_0
Time_Shift_5
Note_On_60_Vel_76
Time_Shift_6
Note_On_51_Vel_69
Note_On_39_Vel_58
Time_Shift_173
Note_On_60_Vel_0
Note_On_63_Vel_0
Time_Shift_5
Note_On_72_Vel_87
Time_Shift_3
Note_On_51_Vel_0
Note_On_67_Vel_0
Time_Shift_2
Note_On_60_Vel_64
Note_On_63_Vel_79
Time_Shift_1
Note_On_67_Vel_73
Time_Shift_1
Note_On_51_Vel_72
Time_Shift_173
Note_On_67_Vel_0
Time_Shift_1
Note_On_63_Vel_0
Time_Shift_1
Note_On_60_Vel_0
Note_On_72_Vel_0
Note_On_51_Vel_0
Time_Shift_5
Note_On_39_Vel_0
Note_On_74_Vel_0
Sustain_Off
Time_Shift_57
Note_On_75_Vel_93
Time_Shift_1
Note_On_67_Vel_85
Time_Shift_1
Note_On_39_Vel_80
Time_Shift_5
Note_On_73_Vel_83
Time_Shift_7
Note_On_51_Vel_72
Time_Shift_13
Sustain_On
Time_Shift_100
Note_On_73_Vel_0
Time_Shift_5
Note_On_73_Vel_64
Time_Shift_100
Note_On_63_Vel_80
Time_Shift_14
Note_On_61_Vel_65
Time_Shift_4
Note_On_51_Vel_0
Time_Shift_4
Note_On_58_Vel_59
Time_Shift_1
Note_On_51_Vel_63
Time_Shift_7
Note_On_75_Vel_0
Time_Shift_7
Note_On_63_Vel_0
Time_Shift_4
Note_On_39_Vel_0
Time_Shift_4
Sustain_Off
Time_Shift_4
Note_On_67_Vel_0
Time_Shift_5
Note_On_61_Vel_0
Time_Shift_2
Note_On_51_Vel_0
Note_On_73_Vel_0
Time_Shift_2
Note_On_67_Vel_86
Time_Shift_6
Note_On_73_Vel_86
Note_On_76_Vel_89
Time_Shift_23
Note_On_58_Vel_0
Time_Shift_3
Note_On_67_Vel_0
Time_Shift_20
Note_On_73_Vel_0
Note_On_76_Vel_0
Time_Shift_23
Sustain_On
Time_Shift_9
Note_On_76_Vel_97
Time_Shift_3
Note_On_67_Vel_90
Time_Shift_1
Note_On_61_Vel_75
Note_On_73_Vel_91
Time_Shift_3
Note_On_58_Vel_68
Time_Shift_1
Note_On_64_Vel_78
Time_Shift_163
Note_On_64_Vel_0
Time_Shift_1
Note_On_76_Vel_0
Note_On_58_Vel_0
Time_Shift_1
Note_On_61_Vel_0
Time_Shift_3
Sustain_Off
Time_Shift_15
Note_On_67_Vel_0
Note_On_73_Vel_0
Time_Shift_10
Note_On_51_Vel_92
Time_Shift_1
Note_On_67_Vel_88
Note_On_73_Vel_88
Note_On_39_Vel_84
Note_On_77_Vel_83
Time_Shift_43
Sustain_On
Time_Shift_164
Note_On_65_Vel_86
Time_Shift_11
Note_On_58_Vel_67
Time_Shift_1
Note_On_61_Vel_71
Time_Shift_15
Note_On_67_Vel_0
Time_Shift_1
Note_On_77_Vel_0
Time_Shift_1
Note_On_73_Vel_0
Note_On_65_Vel_0
Time_Shift_1
Sustain_Off
Time_Shift_5
Note_On_39_Vel_0
Note_On_51_Vel_0
Time_Shift_29
Note_On_75_Vel_82
Note_On_72_Vel_85
Time_Shift_2
Note_On_58_Vel_0
Note_On_61_Vel_0
Note_On_78_Vel_85
Time_Shift_21
Note_On_72_Vel_0
Time_Shift_1
Note_On_78_Vel_0
Time_Shift_2
Note_On_75_Vel_0
Time_Shift_53
Sustain_On
Time_Shift_1
Note_On_66_Vel_91
Time_Shift_2
Note_On_78_Vel_97
Note_On_72_Vel_92
Time_Shift_1
Note_On_75_Vel_88
Time_Shift_5
Note_On_61_Vel_56
Time_Shift_146
Note_On_78_Vel_0
Time_Shift_1
Note_On_66_Vel_0
Time_Shift_2
Sustain_Off
Time_Shift_26
Note_On_61_Vel_0
Note_On_72_Vel_0
Note_On_75_Vel_0
Time_Shift_8
Note_On_79_Vel_94
Time_Shift_1
Note_On_51_Vel_93
Time_Shift_1
Note_On_39_Vel_81
Note_On_72_Vel_91
Note_On_75_Vel_90
Time_Shift_29
Sustain_On
Time_Shift_209
Note_On_67_Vel_86
Time_Shift_1
Note_On_60_Vel_76
Time_Shift_1
Note_On_63_Vel_71
Note_On_72_Vel_0
Time_Shift_6
Sustain_Off
Time_Shift_16
Note_On_79_Vel_0
Time_Shift_12
Note_On_39_Vel_0
Time_Shift_8
Note_On_51_Vel_0
Time_Shift_3
Note_On_67_Vel_0
Time_Shift_9
Note_On_63_Vel_0
Note_On_60_Vel_0
Time_Shift_19
Note_On_75_Vel_0
Time_Shift_7
Note_On_80_Vel_92
Time_Shift_1
Note_On_75_Vel_90
Time_Shift_1
Note_On_72_Vel_89
Time_Shift_26
Note_On_75_Vel_0
Time_Shift_1
Note_On_80_Vel_0
Time_Shift_18
Note_On_72_Vel_0
Time_Shift_44
Note_On_72_Vel_94
Time_Shift_3
Note_On_80_Vel_95
Time_Shift_1
Note_On_75_Vel_88
Time_Shift_1
Note_On_68_Vel_92
Time_Shift_1
Note_On_60_Vel_69
Time_Shift_1
Note_On_63_Vel_74
Time_Shift_10
Sustain_On
Time_Shift_279
Note_On_75_Vel_0
Note_On_72_Vel_0
Note_On_68_Vel_0
Note_On_80_Vel_0
Time_Shift_2
Note_On_63_Vel_0
Time_Shift_5
Sustain_Off
Time_Shift_14
Note_On_60_Vel_0
Time_Shift_144
Note_On_39_Vel_26
Time_Shift_86
Note_On_39_Vel_0
Sustain_On
Time_Shift_249
Note_On_67_Vel_47
Time_Shift_2
Note_On_39_Vel_33
Time_Shift_6
Note_On_51_Vel_23
Time_Shift_86
Note_On_73_Vel_62
Time_Shift_43
Sustain_Off
Time_Shift_8
Note_On_39_Vel_0
Time_Shift_2
Note_On_73_Vel_0
Time_Shift_22
Note_On_75_Vel_66
Time_Shift_4
Note_On_51_Vel_0
Time_Shift_8
Note_On_67_Vel_0
Time_Shift_6
Note_On_67_Vel_50
Time_Shift_4
Note_On_61_Vel_48
Time_Shift_8
Note_On_75_Vel_0
Time_Shift_17
Note_On_61_Vel_0
Time_Shift_19
Note_On_67_Vel_0
Time_Shift_14
Note_On_79_Vel_71
Time_Shift_48
Note_On_79_Vel_0
Time_Shift_19
Note_On_85_Vel_78
Time_Shift_9
Note_On_61_Vel_55
Time_Shift_3
Note_On_68_Vel_43
Time_Shift_7
Note_On_68_Vel_0
Time_Shift_27
Note_On_61_Vel_0
Time_Shift_7
Note_On_85_Vel_0
Time_Shift_30
Note_On_89_Vel_73
Time_Shift_42
Note_On_89_Vel_0
Time_Shift_24
Sustain_On
Time_Shift_12
Note_On_86_Vel_75
Note_On_56_Vel_60
Time_Shift_2
Note_On_61_Vel_28
Time_Shift_9
Note_On_61_Vel_0
Time_Shift_54
Note_On_87_Vel_79
Time_Shift_5
Note_On_86_Vel_0
Time_Shift_15
Note_On_56_Vel_0
Time_Shift_9
Sustain_Off
Time_Shift_19
Note_On_87_Vel_0
Time_Shift_33
Note_On_89_Vel_78
Time_Shift_1
Note_On_60_Vel_55
Note_On_68_Vel_66
Time_Shift_24
Note_On_68_Vel_0
Time_Shift_3
Note_On_60_Vel_0
Time_Shift_37
Note_On_87_Vel_78
Time_Shift_15
Note_On_89_Vel_0
Time_Shift_43
Note_On_87_Vel_0
Time_Shift_11
Note_On_60_Vel_52
Time_Shift_2
Note_On_92_Vel_75
Time_Shift_1
Note_On_68_Vel_55
Time_Shift_29
Note_On_60_Vel_0
Time_Shift_2
Note_On_68_Vel_0
Time_Shift_41
Note_On_80_Vel_75
Time_Shift_25
Note_On_92_Vel_0
Time_Shift_10
Note_On_80_Vel_0
Time_Shift_39
Note_On_89_Vel_82
Time_Shift_1
Note_On_51_Vel_60
Time_Shift_11
Sustain_On
Time_Shift_66
Note_On_87_Vel_81
Time_Shift_9
Note_On_51_Vel_0
Time_Shift_6
Sustain_Off
Note_On_89_Vel_0
Time_Shift_51
Note_On_87_Vel_0
Time_Shift_4
Note_On_85_Vel_81
Time_Shift_1
Note_On_67_Vel_64
Time_Shift_3
Note_On_61_Vel_62
Time_Shift_22
Note_On_67_Vel_0
Time_Shift_23
Note_On_61_Vel_0
Note_On_85_Vel_0
Time_Shift_19
Note_On_79_Vel_77
Time_Shift_36
Note_On_79_Vel_0
Time_Shift_26
Note_On_61_Vel_66
Time_Shift_2
Note_On_63_Vel_61
Time_Shift_1
Note_On_67_Vel_61
Time_Shift_2
Note_On_77_Vel_70
Time_Shift_25
Note_On_61_Vel_0
Time_Shift_4
Note_On_63_Vel_0
Time_Shift_15
Note_On_67_Vel_0
Time_Shift_16
Note_On_77_Vel_0
Time_Shift_14
Note_On_75_Vel_75
Time_Shift_30
Note_On_75_Vel_0
Time_Shift_36
Note_On_74_Vel_67
Time_Shift_14
Note_On_44_Vel_57
Time_Shift_13
Sustain_On
Time_Shift_22
Note_On_74_Vel_0
Time_Shift_21
Note_On_75_Vel_80
Time_Shift_31
Note_On_44_Vel_0
Time_Shift_9
Note_On_75_Vel_0
Time_Shift_4
Sustain_Off
Time_Shift_36
Note_On_77_Vel_70
Time_Shift_4
Note_On_68_Vel_55
Note_On_60_Vel_63
Time_Shift_7
Note_On_63_Vel_61
Time_Shift_23
Note_On_60_Vel_0
Time_Shift_1
Note_On_77_Vel_0
Time_Shift_3
Note_On_68_Vel_0
Time_Shift_3
Note_On_63_Vel_0
Time_Shift_33
Note_On_75_Vel_80
Time_Shift_37
Note_On_75_Vel_0
Time_Shift_39
Note_On_60_Vel_48
Time_Shift_2
Note_On_63_Vel_46
Time_Shift_4
Note_On_80_Vel_75
Time_Shift_24
Note_On_60_Vel_0
Time_Shift_8
Note_On_80_Vel_0
Time_Shift_12
Note_On_63_Vel_0
Time_Shift_16
Note_On_68_Vel_68
Time_Shift_41
Note_On_68_Vel_0
Time_Shift_17
Note_On_67_Vel_72
Time_Shift_27
Note_On_39_Vel_65
Time_Shift_14
Sustain_On
Time_Shift_33
Note_On_39_Vel_0
Time_Shift_2
Note_On_67_Vel_0
Time_Shift_6
Sustain_Off
Time_Shift_4
Note_On_73_Vel_77
Time_Shift_59
Note_On_73_Vel_0
Time_Shift_14
Note_On_75_Vel_73
Time_Shift_11
Note_On_61_Vel_60
Note_On_67_Vel_57
Time_Shift_6
Note_On_63_Vel_58
Time_Shift_12
Note_On_75_Vel_0
Time_Shift_7
Note_On_67_Vel_0
Time_Shift_3
Note_On_61_Vel_0
Time_Shift_5
Note_On_63_Vel_0
Time_Shift_23
Note_On_79_Vel_87
Time_Shift_65
Note_On_79_Vel_0
Time_Shift_7
Note_On_67_Vel_66
Time_Shift_1
Note_On_61_Vel_64
Note_On_85_Vel_80
Time_Shift_6
Note_On_63_Vel_57
Time_Shift_16
Note_On_58_Vel_36
Time_Shift_8
Note_On_67_Vel_0
Time_Shift_1
Note_On_61_Vel_0
Time_Shift_7
Note_On_58_Vel_0
Time_Shift_11
Note_On_63_Vel_0
Time_Shift_9
Note_On_85_Vel_0
Time_Shift_18
Note_On_89_Vel_83
Time_Shift_44
Note_On_89_Vel_0
Time_Shift_24
Note_On_56_Vel_67
Time_Shift_1
Note_On_86_Vel_86
Time_Shift_27
Sustain_On
Time_Shift_41
Note_On_87_Vel_82
Time_Shift_2
Note_On_86_Vel_0
Time_Shift_7
Note_On_56_Vel_0
Time_Shift_21
Sustain_Off
Time_Shift_31
Note_On_87_Vel_0
Time_Shift_10
Note_On_72_Vel_79
Time_Shift_2
Note_On_89_Vel_85
Time_Shift_5
Note_On_66_Vel_52
Note_On_63_Vel_56
Time_Shift_24
Note_On_72_Vel_0
Time_Shift_6
Note_On_63_Vel_0
Time_Shift_20
Note_On_66_Vel_0
Time_Shift_11
Note_On_87_Vel_87
Time_Shift_21
Note_On_89_Vel_0
Time_Shift_40
Note_On_87_Vel_0
Time_Shift_4
Note_On_96_Vel_96
Time_Shift_10
Note_On_57_Vel_67
Time_Shift_18
Note_On_63_Vel_23
Time_Shift_13
Note_On_57_Vel_0
Time_Shift_13
Note_On_63_Vel_0
Time_Shift_7
Note_On_96_Vel_0
Time_Shift_3
Note_On_84_Vel_86
Time_Shift_46
Note_On_84_Vel_0
Time_Shift_25
Note_On_89_Vel_92
Time_Shift_7
Note_On_58_Vel_65
Time_Shift_35
Sustain_On
Time_Shift_33
Note_On_87_Vel_91
Time_Shift_29
Note_On_58_Vel_0
Time_Shift_21
Note_On_89_Vel_0
Time_Shift_22
Note_On_85_Vel_91
Note_On_73_Vel_72
Time_Shift_7
Note_On_63_Vel_60
Time_Shift_3
Sustain_Off
Time_Shift_12
Note_On_87_Vel_0
Time_Shift_27
Note_On_63_Vel_0
Note_On_73_Vel_0
Time_Shift_5
Note_On_85_Vel_0
Time_Shift_7
Note_On_79_Vel_87
Time_Shift_37
Note_On_79_Vel_0
Time_Shift_31
Note_On_77_Vel_88
Note_On_51_Vel_76
Time_Shift_68
Note_On_75_Vel_88
Time_Shift_52
Note_On_77_Vel_0
Time_Shift_16
Note_On_73_Vel_90
Time_Shift_3
Note_On_56_Vel_73
Time_Shift_4
Note_On_51_Vel_0
Time_Shift_8
Note_On_75_Vel_0
Time_Shift_38
Note_On_56_Vel_0
Time_Shift_3
Note_On_73_Vel_0
Time_Shift_8
Note_On_72_Vel_77
Time_Shift_32
Note_On_72_Vel_0
Time_Shift_43
Note_On_70_Vel_78
Time_Shift_3
Note_On_63_Vel_69
Time_Shift_1
Note_On_60_Vel_60
Time_Shift_30
Note_On_60_Vel_0
Time_Shift_2
Note_On_63_Vel_0
Time_Shift_15
Note_On_70_Vel_0
Time_Shift_20
Note_On_68_Vel_77
Time_Shift_46
Note_On_68_Vel_0
Time_Shift_20
Note_On_67_Vel_81
Time_Shift_3
Note_On_59_Vel_72
Time_Shift_1
Note_On_50_Vel_63
Time_Shift_22
Note_On_67_Vel_0
Time_Shift_6
Note_On_59_Vel_0
Time_Shift_5
Note_On_50_Vel_0
Time_Shift_38
Note_On_65_Vel_75
Time_Shift_35
Note_On_65_Vel_0
Time_Shift_35
Note_On_63_Vel_80
Time_Shift_2
Note_On_51_Vel_81
Time_Shift_21
Sustain_On
Time_Shift_43
Note_On_67_Vel_81
Time_Shift_4
Note_On_51_Vel_0
Time_Shift_4
Note_On_63_Vel_0
Time_Shift_12
Sustain_Off
Time_Shift_26
Note_On_67_Vel_0
Time_Shift_30
Note_On_73_Vel_79
Time_Shift_5
Note_On_61_Vel_67
Time_Shift_35
Note_On_61_Vel_0
Time_Shift_2
Note_On_73_Vel_0
Time_Shift_30
Note_On_75_Vel_72
Time_Shift_29
Note_On_75_Vel_0
Time_Shift_12
Note_On_67_Vel_60
Time_Shift_31
Note_On_79_Vel_81
Time_Shift_30
Note_On_79_Vel_0
Time_Shift_3
Note_On_67_Vel_0
Time_Shift_40
Note_On_89_Vel_77
Time_Shift_52
Note_On_61_Vel_45
Time_Shift_1
Note_On_89_Vel_0
Time_Shift_3
Note_On_61_Vel_0
Time_Shift_13
Note_On_56_Vel_57
Note_On_67_Vel_56
Time_Shift_4
Note_On_86_Vel_66
Time_Shift_6
Note_On_67_Vel_0
Time_Shift_55
Note_On_87_Vel_72
Time_Shift_3
Note_On_86_Vel_0
Time_Shift_7
Note_On_56_Vel_0
Time_Shift_22
Note_On_87_Vel_0
Time_Shift_33
Note_On_60_Vel_60
Time_Shift_5
Note_On_68_Vel_65
Time_Shift_17
Note_On_89_Vel_61
Time_Shift_4
Note_On_89_Vel_0
Time_Shift_4
Note_On_60_Vel_0
Note_On_68_Vel_0
Time_Shift_38
Note_On_87_Vel_68
Time_Shift_39
Note_On_87_Vel_0
Time_Shift_32
Note_On_92_Vel_72
Time_Shift_2
Note_On_60_Vel_44
Time_Shift_4
Note_On_68_Vel_58
Time_Shift_31
Note_On_60_Vel_0
Time_Shift_2
Note_On_68_Vel_0
Time_Shift_24
Note_On_92_Vel_0
Time_Shift_5
Note_On_80_Vel_71
Time_Shift_34
Note_On_80_Vel_0
Time_Shift_44
Note_On_89_Vel_68
Time_Shift_4
Note_On_51_Vel_58
Time_Shift_1
Note_On_61_Vel_48
Time_Shift_28
Sustain_On
Time_Shift_15
Note_On_61_Vel_0
Time_Shift_20
Note_On_87_Vel_80
Time_Shift_48
Note_On_89_Vel_0
Sustain_Off
Time_Shift_3
Note_On_51_Vel_0
Time_Shift_20
Note_On_87_Vel_0
Time_Shift_5
Note_On_85_Vel_79
Time_Shift_1
Note_On_67_Vel_67
Time_Shift_2
Note_On_61_Vel_58
Time_Shift_24
Note_On_85_Vel_0
Time_Shift_4
Note_On_61_Vel_0
Time_Shift_19
Note_On_67_Vel_0
Time_Shift_15
Note_On_79_Vel_78
Time_Shift_62
Note_On_79_Vel_0
Time_Shift_1
Note_On_61_Vel_58
Time_Shift_2
Note_On_68_Vel_64
Time_Shift_1
Note_On_77_Vel_74
Time_Shift_4
Note_On_68_Vel_0
Time_Shift_21
Note_On_61_Vel_0
Time_Shift_21
Note_On_77_Vel_0
Time_Shift_26
Note_On_75_Vel_77
Time_Shift_33
Note_On_75_Vel_0
Time_Shift_40
Note_On_74_Vel_71
Time_Shift_17
Note_On_44_Vel_57
Time_Shift_19
Note_On_74_Vel_0
Time_Shift_29
Note_On_75_Vel_82
Time_Shift_16
Note_On_44_Vel_0
Time_Shift_39
Note_On_75_Vel_0
Time_Shift_36
Note_On_68_Vel_54
Time_Shift_1
Note_On_60_Vel_59
Time_Shift_2
Note_On_63_Vel_60
Time_Shift_7
Note_On_68_Vel_0
Time_Shift_19
Note_On_60_Vel_0
Time_Shift_5
Note_On_63_Vel_0
Time_Shift_25
Note_On_75_Vel_78
Time_Shift_46
Note_On_75_Vel_0
Time_Shift_20
Note_On_60_Vel_58
Time_Shift_7
Note_On_63_Vel_48
Time_Shift_5
Note_On_80_Vel_76
Time_Shift_16
Note_On_60_Vel_0
Time_Shift_11
Note_On_63_Vel_0
Time_Shift_33
Note_On_68_Vel_71
Time_Shift_37
Note_On_68_Vel_0
Time_Shift_5
Note_On_80_Vel_0
Time_Shift_22
Note_On_67_Vel_68
Time_Shift_22
Note_On_39_Vel_55
Time_Shift_38
Note_On_67_Vel_0
Time_Shift_5
Note_On_39_Vel_0
Time_Shift_11
Note_On_73_Vel_80
Time_Shift_65
Note_On_73_Vel_0
Time_Shift_6
Note_On_75_Vel_77
Time_Shift_22
Note_On_61_Vel_58
Time_Shift_2
Note_On_67_Vel_61
Time_Shift_6
Note_On_63_Vel_53
Time_Shift_17
Note_On_75_Vel_0
Time_Shift_10
Note_On_61_Vel_0
Time_Shift_1
Note_On_63_Vel_0
Time_Shift_12
Note_On_67_Vel_0
Time_Shift_11
Note_On_79_Vel_78
Time_Shift_55
Note_On_79_Vel_0
Time_Shift_9
Note_On_67_Vel_64
Time_Shift_3
Note_On_85_Vel_75
Time_Shift_3
Note_On_61_Vel_60
Time_Shift_14
Note_On_63_Vel_49
Time_Shift_10
Note_On_67_Vel_0
Time_Shift_12
Note_On_61_Vel_0
Time_Shift_20
Note_On_85_Vel_0
Time_Shift_2
Note_On_63_Vel_0
Time_Shift_16
Note_On_89_Vel_78
Time_Shift_22
Sustain_On
Time_Shift_50
Note_On_56_Vel_55
Time_Shift_4
Note_On_86_Vel_75
Time_Shift_80
Note_On_87_Vel_72
Time_Shift_56
Note_On_72_Vel_67
Time_Shift_17
Note_On_89_Vel_0
Time_Shift_11
Note_On_89_Vel_71
Time_Shift_58
Note_On_87_Vel_0
Time_Shift_8
Note_On_87_Vel_74
Time_Shift_85
Note_On_96_Vel_76
Time_Shift_17
Note_On_57_Vel_50
Time_Shift_78
Note_On_84_Vel_68
Time_Shift_104
Note_On_58_Vel_44
Time_Shift_3
Note_On_67_Vel_37
Time_Shift_55
Note_On_84_Vel_0
Time_Shift_1
Note_On_72_Vel_0
Note_On_56_Vel_0
Note_On_57_Vel_0
Time_Shift_1
Note_On_87_Vel_0
Time_Shift_3
Note_On_86_Vel_0
Time_Shift_2
Note_On_96_Vel_0
Time_Shift_2
Sustain_Off
Time_Shift_10
Note_On_89_Vel_0
Time_Shift_11
Note_On_89_Vel_61
Time_Shift_4
Sustain_On
Time_Shift_119
Note_On_88_Vel_65
Time_Shift_94
Note_On_87_Vel_70
Time_Shift_2
Note_On_67_Vel_0
Time_Shift_4
Note_On_63_Vel_45
Time_Shift_3
Note_On_67_Vel_47
Time_Shift_73
Note_On_85_Vel_72
Time_Shift_79
Note_On_79_Vel_73
Time_Shift_79
Note_On_77_Vel_71
Time_Shift_88
Note_On_76_Vel_69
Time_Shift_93
Note_On_75_Vel_72
Time_Shift_105
Note_On_73_Vel_69
Time_Shift_106
Note_On_67_Vel_0
Time_Shift_5
Note_On_67_Vel_62
Time_Shift_110
Note_On_67_Vel_0
Time_Shift_3
Note_On_65_Vel_56
Time_Shift_6
Note_On_67_Vel_45
Time_Shift_158
Note_On_64_Vel_49
Time_Shift_307
Note_On_44_Vel_33
Time_Shift_127
Note_On_72_Vel_60
Time_Shift_37
Note_On_63_Vel_0
Time_Shift_6
Note_On_65_Vel_0
Time_Shift_1
Note_On_58_Vel_0
Time_Shift_1
Note_On_87_Vel_0
Note_On_88_Vel_0
Note_On_89_Vel_0
Note_On_64_Vel_0
Note_On_73_Vel_0
Time_Shift_1
Note_On_76_Vel_0
Note_On_67_Vel_0
Time_Shift_2
Note_On_85_Vel_0
Time_Shift_1
Sustain_Off
Time_Shift_3
Note_On_75_Vel_0
Note_On_77_Vel_0
Note_On_79_Vel_0
Time_Shift_23
Sustain_On
Time_Shift_194
Note_On_62_Vel_40
Time_Shift_163
Note_On_51_Vel_24
Time_Shift_2
Note_On_56_Vel_30
Time_Shift_109
Note_On_73_Vel_74
Time_Shift_85
Note_On_51_Vel_0
Time_Shift_11
Note_On_51_Vel_44
Time_Shift_34
Note_On_64_Vel_49
Time_Shift_76
Note_On_65_Vel_51
Time_Shift_110
Note_On_72_Vel_0
Time_Shift_6
Note_On_72_Vel_70
Time_Shift_4
Note_On_39_Vel_43
Time_Shift_3
Note_On_56_Vel_0
Note_On_73_Vel_0
Note_On_62_Vel_0
Time_Shift_1
Note_On_44_Vel_0
Time_Shift_1
Note_On_65_Vel_0
Note_On_64_Vel_0
Time_Shift_6
Sustain_Off
Time_Shift_25
Sustain_On
Time_Shift_47
Note_On_65_Vel_16
Time_Shift_22
Note_On_51_Vel_0
Time_Shift_50
Note_On_62_Vel_42
Time_Shift_108
Note_On_55_Vel_47
Time_Shift_6
Note_On_63_Vel_45
Time_Shift_1
Note_On_51_Vel_42
Time_Shift_62
Note_On_70_Vel_71
Time_Shift_88
Note_On_51_Vel_0
Time_Shift_7
Note_On_55_Vel_0
Time_Shift_2
Note_On_60_Vel_53
Time_Shift_2
Note_On_51_Vel_51
Time_Shift_2
Note_On_55_Vel_49
Time_Shift_71
Note_On_63_Vel_0
Time_Shift_6
Note_On_63_Vel_50
Time_Shift_1
Note_On_61_Vel_55
Time_Shift_62
Note_On_70_Vel_0
Time_Shift_8
Note_On_39_Vel_0
Time_Shift_3
Note_On_70_Vel_78
Time_Shift_7
Note_On_39_Vel_47
Time_Shift_5
Note_On_65_Vel_0
Time_Shift_1
Note_On_60_Vel_0
Time_Shift_1
Note_On_63_Vel_0
Note_On_51_Vel_0
Note_On_62_Vel_0
Note_On_61_Vel_0
Note_On_55_Vel_0
Time_Shift_4
Sustain_Off
Time_Shift_4
Note_On_40_Vel_47
Time_Shift_6
Note_On_72_Vel_0
Time_Shift_46
Sustain_On
Time_Shift_22
Note_On_60_Vel_61
Time_Shift_89
Note_On_61_Vel_68
Time_Shift_38
Note_On_49_Vel_55
Time_Shift_3
Note_On_55_Vel_52
Time_Shift_44
Note_On_72_Vel_85
Time_Shift_85
Note_On_62_Vel_68
Time_Shift_90
Note_On_63_Vel_66
Time_Shift_74
Note_On_39_Vel_0
Note_On_40_Vel_0
Note_On_70_Vel_0
Time_Shift_11
Note_On_70_Vel_78
Time_Shift_17
Note_On_72_Vel_0
Note_On_63_Vel_0
Time_Shift_1
Note_On_61_Vel_0
Note_On_55_Vel_0
Time_Shift_1
Sustain_Off
Note_On_62_Vel_0
Time_Shift_2
Note_On_49_Vel_0
Time_Shift_6
Note_On_41_Vel_42
Time_Shift_1
Note_On_60_Vel_0
Time_Shift_46
Sustain_On
Time_Shift_10
Note_On_63_Vel_43
Time_Shift_17
Note_On_60_Vel_55
Time_Shift_99
Note_On_61_Vel_61
Note_On_48_Vel_61
Time_Shift_5
Note_On_56_Vel_60
Time_Shift_63
Note_On_68_Vel_85
Time_Shift_82
Note_On_56_Vel_0
Time_Shift_7
Note_On_59_Vel_58
Time_Shift_4
Note_On_56_Vel_49
Time_Shift_5
Note_On_48_Vel_0
Time_Shift_11
Note_On_48_Vel_65
Time_Shift_50
Note_On_60_Vel_0
Time_Shift_6
Note_On_60_Vel_63
Time_Shift_71
Note_On_61_Vel_0
Time_Shift_1
Note_On_60_Vel_0
Time_Shift_1
Note_On_56_Vel_0
Note_On_48_Vel_0
Time_Shift_1
Note_On_68_Vel_0
Time_Shift_1
Sustain_Off
Time_Shift_1
Note_On_67_Vel_79
Time_Shift_2
Note_On_41_Vel_0
Time_Shift_8
Note_On_59_Vel_0
Note_On_63_Vel_0
Note_On_70_Vel_0
Time_Shift_11
Note_On_38_Vel_42
Time_Shift_43
Sustain_On
Time_Shift_37
Note_On_58_Vel_68
Time_Shift_31
Note_On_51_Vel_34
Time_Shift_2
Note_On_56_Vel_43
Time_Shift_60
Note_On_56_Vel_0
Time_Shift_1
Note_On_50_Vel_58
Time_Shift_3
Note_On_59_Vel_70
Time_Shift_4
Note_On_56_Vel_58
Time_Shift_68
Note_On_65_Vel_77
Time_Shift_70
Note_On_56_Vel_0
Note_On_58_Vel_0
Time_Shift_12
Note_On_58_Vel_63
Note_On_56_Vel_57
Time_Shift_19
Note_On_50_Vel_0
Time_Shift_4
Note_On_50_Vel_43
Time_Shift_27
Note_On_59_Vel_0
Time_Shift_9
Note_On_59_Vel_75
Time_Shift_66
Note_On_56_Vel_0
Time_Shift_2
Note_On_59_Vel_0
Note_On_50_Vel_0
Note_On_67_Vel_0
Note_On_65_Vel_0
Time_Shift_1
Note_On_38_Vel_0
Sustain_Off
Time_Shift_14
Note_On_58_Vel_0
Time_Shift_3
Note_On_39_Vel_61
Note_On_63_Vel_79
Time_Shift_20
Sustain_On
Time_Shift_8
Note_On_51_Vel_0
Time_Shift_57
Note_On_59_Vel_63
Time_Shift_24
Note_On_56_Vel_38
Time_Shift_15
Note_On_51_Vel_45
Time_Shift_52
Note_On_60_Vel_67
Time_Shift_21
Note_On_51_Vel_0
Time_Shift_4
Note_On_51_Vel_39
Time_Shift_47
Note_On_68_Vel_78
Time_Shift_64
Note_On_51_Vel_0
Time_Shift_9
Note_On_51_Vel_41
Time_Shift_14
Note_On_59_Vel_0
Time_Shift_5
Note_On_59_Vel_65
Time_Shift_6
Sustain_Off
Time_Shift_1
Note_On_39_Vel_0
Time_Shift_19
Note_On_63_Vel_0
Time_Shift_23
Note_On_60_Vel_0
Time_Shift_7
Note_On_59_Vel_0
Time_Shift_4
Note_On_60_Vel_60
Time_Shift_69
Note_On_60_Vel_0
Time_Shift_1
Note_On_39_Vel_50
Time_Shift_3
Note_On_63_Vel_74
Time_Shift_23
Note_On_56_Vel_0
Time_Shift_8
Note_On_51_Vel_0
Time_Shift_49
Note_On_68_Vel_0
Time_Shift_16
Note_On_60_Vel_53
Time_Shift_19
Note_On_39_Vel_0
Time_Shift_42
Note_On_60_Vel_0
Time_Shift_1
Note_On_55_Vel_55
Time_Shift_2
Note_On_61_Vel_65
Time_Shift_3
Note_On_51_Vel_46
Time_Shift_2
Note_On_63_Vel_0
Time_Shift_25
Note_On_51_Vel_0
Time_Shift_5
Note_On_55_Vel_0
Time_Shift_8
Note_On_61_Vel_0
Time_Shift_42
Note_On_70_Vel_72
Time_Shift_47
Sustain_On
Time_Shift_13
Note_On_55_Vel_57
Time_Shift_6
Note_On_60_Vel_56
Time_Shift_1
Note_On_51_Vel_46
Time_Shift_3
Sustain_Off
Time_Shift_30
Note_On_55_Vel_0
Time_Shift_4
Note_On_51_Vel_0
Time_Shift_24
Note_On_61_Vel_67
Time_Shift_3
Note_On_60_Vel_0
Time_Shift_89
Note_On_61_Vel_0
Time_Shift_1
Note_On_63_Vel_71
Time_Shift_5
Note_On_44_Vel_58
Time_Shift_44
Sustain_On
Time_Shift_31
Note_On_59_Vel_65
Time_Shift_2
Note_On_51_Vel_48
Time_Shift_74
Note_On_51_Vel_0
Time_Shift_6
Note_On_51_Vel_51
Time_Shift_5
Note_On_60_Vel_65
Time_Shift_5
Note_On_44_Vel_0
Time_Shift_2
Note_On_56_Vel_60
Time_Shift_6
Note_On_44_Vel_52
Time_Shift_70
Note_On_72_Vel_76
Time_Shift_16
Note_On_71_Vel_66
Time_Shift_75
Note_On_56_Vel_0
Time_Shift_3
Note_On_62_Vel_70
Time_Shift_4
Note_On_51_Vel_0
Time_Shift_4
Note_On_56_Vel_50
Time_Shift_1
Note_On_51_Vel_50
Time_Shift_64
Note_On_63_Vel_0
Time_Shift_11
Note_On_63_Vel_68
Time_Shift_66
Note_On_44_Vel_0
Note_On_72_Vel_0
Time_Shift_6
Note_On_72_Vel_87
Time_Shift_2
Note_On_59_Vel_0
Time_Shift_1
Note_On_71_Vel_0
Time_Shift_1
Note_On_63_Vel_0
Note_On_44_Vel_57
Note_On_56_Vel_0
Note_On_51_Vel_0
Time_Shift_1
Note_On_62_Vel_0
Note_On_60_Vel_0
Time_Shift_2
Sustain_Off
Time_Shift_10
Note_On_70_Vel_0
Time_Shift_23
Sustain_On
Time_Shift_73
Note_On_64_Vel_62
Time_Shift_76
Note_On_53_Vel_62
Time_Shift_2
Note_On_65_Vel_69
Time_Shift_6
Note_On_60_Vel_47
Time_Shift_65
Note_On_73_Vel_91
Time_Shift_78
Note_On_60_Vel_0
Time_Shift_7
Note_On_64_Vel_0
Time_Shift_3
Note_On_60_Vel_49
Time_Shift_3
Note_On_56_Vel_47
Time_Shift_4
Note_On_64_Vel_59
Time_Shift_83
Note_On_65_Vel_0
Time_Shift_6
Note_On_65_Vel_68
Time_Shift_63
Note_On_72_Vel_0
Time_Shift_2
Note_On_43_Vel_53
Time_Shift_1
Note_On_64_Vel_0
Note_On_44_Vel_0
Note_On_53_Vel_0
Note_On_73_Vel_0
Time_Shift_1
Note_On_65_Vel_0
Sustain_Off
Time_Shift_4
Note_On_72_Vel_84
Time_Shift_15
Note_On_56_Vel_0
Time_Shift_7
Note_On_60_Vel_0
Time_Shift_23
Sustain_On
Time_Shift_39
Note_On_43_Vel_0
Time_Shift_26
Note_On_64_Vel_60
Time_Shift_62
Note_On_58_Vel_47
Note_On_49_Vel_58
Time_Shift_25
Note_On_65_Vel_65
Time_Shift_65
Note_On_70_Vel_85
Time_Shift_45
Note_On_49_Vel_0
Time_Shift_5
Note_On_49_Vel_66
Time_Shift_18
Note_On_64_Vel_0
Time_Shift_4
Note_On_64_Vel_53
Time_Shift_72
Note_On_65_Vel_0
Time_Shift_6
Note_On_65_Vel_69
Time_Shift_17
Note_On_58_Vel_0
Time_Shift_9
Note_On_58_Vel_47
Time_Shift_48
Note_On_58_Vel_0
Time_Shift_1
Note_On_72_Vel_0
Note_On_64_Vel_0
Time_Shift_1
Note_On_65_Vel_0
Sustain_Off
Time_Shift_11
Note_On_49_Vel_0
Note_On_70_Vel_0
Time_Shift_5
Note_On_70_Vel_80
Time_Shift_1
Note_On_49_Vel_45
Time_Shift_47
Sustain_On
Time_Shift_23
Note_On_49_Vel_0
Time_Shift_28
Note_On_63_Vel_65
Time_Shift_71
Note_On_58_Vel_62
Note_On_48_Vel_56
Time_Shift_4
Note_On_64_Vel_61
Time_Shift_78
Note_On_72_Vel_80
Time_Shift_57
Note_On_48_Vel_0
Note_On_58_Vel_0
Time_Shift_10
Note_On_48_Vel_51
Time_Shift_1
Note_On_58_Vel_55
Time_Shift_5
Note_On_64_Vel_0
Time_Shift_4
Note_On_55_Vel_49
Time_Shift_4
Note_On_64_Vel_49
Time_Shift_92
Note_On_64_Vel_0
Note_On_70_Vel_0
Time_Shift_4
Note_On_70_Vel_55
Time_Shift_2
Note_On_64_Vel_52
Time_Shift_80
Note_On_63_Vel_0
Note_On_58_Vel_0
Time_Shift_1
Note_On_48_Vel_0
Note_On_64_Vel_0
Note_On_72_Vel_0
Time_Shift_1
Note_On_55_Vel_0
Time_Shift_2
Sustain_Off
Time_Shift_2
Note_On_70_Vel_0
Time_Shift_4
Note_On_70_Vel_74
Time_Shift_32
Note_On_41_Vel_44
Time_Shift_10
Sustain_On
Time_Shift_55
Note_On_64_Vel_55
Time_Shift_73
Note_On_48_Vel_58
Time_Shift_13
Note_On_56_Vel_54
Time_Shift_1
Note_On_65_Vel_62
Time_Shift_75
Note_On_68_Vel_77
Time_Shift_82
Note_On_48_Vel_0
Note_On_56_Vel_0
Time_Shift_6
Note_On_48_Vel_57
Time_Shift_5
Note_On_56_Vel_59
Time_Shift_51
Note_On_65_Vel_0
Time_Shift_9
Note_On_65_Vel_62
Time_Shift_62
Note_On_41_Vel_0
Time_Shift_1
Note_On_64_Vel_0
Note_On_48_Vel_0
Note_On_56_Vel_0
Note_On_65_Vel_0
Time_Shift_1
Note_On_68_Vel_0
Note_On_70_Vel_0
Time_Shift_6
Sustain_Off
Time_Shift_16
Note_On_67_Vel_77
Time_Shift_7
Note_On_38_Vel_51
Time_Shift_51
Sustain_On
Time_Shift_28
Note_On_58_Vel_62
Time_Shift_23
Note_On_51_Vel_35
Time_Shift_68
Note_On_50_Vel_51
Time_Shift_3
Note_On_59_Vel_61
Time_Shift_5
Note_On_56_Vel_49
Time_Shift_79
Note_On_65_Vel_75
Time_Shift_71
Note_On_50_Vel_0
Note_On_56_Vel_0
Note_On_58_Vel_0
Time_Shift_4
Note_On_56_Vel_50
Time_Shift_5
Note_On_50_Vel_50
Time_Shift_1
Note_On_58_Vel_59
Time_Shift_4
Note_On_67_Vel_0
Time_Shift_63
Note_On_59_Vel_0
Time_Shift_5
Note_On_59_Vel_69
Time_Shift_76
Note_On_56_Vel_0
Time_Shift_1
Note_On_58_Vel_0
Note_On_59_Vel_0
Note_On_50_Vel_0
Time_Shift_1
Note_On_65_Vel_0
Time_Shift_1
Note_On_38_Vel_0
Time_Shift_6
Sustain_Off
Time_Shift_7
Note_On_63_Vel_66
Time_Shift_5
Note_On_39_Vel_47
Time_Shift_59
Note_On_51_Vel_0
Sustain_On
Time_Shift_16
Note_On_59_Vel_56
Time_Shift_10
Note_On_67_Vel_44
Time_Shift_92
Note_On_60_Vel_56
Time_Shift_26
Note_On_51_Vel_42
Time_Shift_45
Note_On_68_Vel_76
Time_Shift_107
Note_On_62_Vel_61
Time_Shift_4
Note_On_51_Vel_0
Time_Shift_7
Note_On_59_Vel_0
Note_On_51_Vel_40
Time_Shift_5
Note_On_59_Vel_34
Time_Shift_64
Note_On_63_Vel_0
Time_Shift_12
Note_On_63_Vel_61
Time_Shift_102
Note_On_63_Vel_0
Note_On_59_Vel_0
Note_On_60_Vel_0
Note_On_62_Vel_0
Time_Shift_2
Note_On_39_Vel_0
Time_Shift_6
Note_On_72_Vel_67
Time_Shift_1
Note_On_68_Vel_0
Time_Shift_2
Sustain_Off
Time_Shift_2
Note_On_39_Vel_42
Note_On_68_Vel_48
Time_Shift_4
Note_On_67_Vel_0
Time_Shift_54
Sustain_On
Time_Shift_87
Note_On_62_Vel_53
Time_Shift_28
Note_On_39_Vel_0
Time_Shift_69
Note_On_51_Vel_0
Time_Shift_10
Note_On_51_Vel_41
Time_Shift_1
Note_On_60_Vel_33
Time_Shift_8
Note_On_67_Vel_48
Time_Shift_1
Note_On_55_Vel_40
Time_Shift_41
Note_On_70_Vel_63
Time_Shift_108
Note_On_55_Vel_0
Note_On_60_Vel_0
Time_Shift_8
Note_On_60_Vel_46
Time_Shift_3
Note_On_55_Vel_46
Time_Shift_69
Note_On_61_Vel_57
Time_Shift_117
Note_On_62_Vel_0
Note_On_61_Vel_0
Note_On_67_Vel_0
Time_Shift_1
Note_On_72_Vel_0
Note_On_70_Vel_0
Time_Shift_3
Sustain_Off
Time_Shift_14
Note_On_51_Vel_0
Note_On_55_Vel_0
Note_On_60_Vel_0
Note_On_68_Vel_0
Time_Shift_4
Note_On_68_Vel_56
Time_Shift_65
Sustain_On
Time_Shift_34
Note_On_51_Vel_36
Time_Shift_15
Note_On_60_Vel_51
Time_Shift_100
Note_On_63_Vel_52
Time_Shift_58
Note_On_68_Vel_0
Time_Shift_12
Note_On_68_Vel_57
Time_Shift_101
Note_On_72_Vel_65
Time_Shift_83
Note_On_75_Vel_67
Time_Shift_96
Note_On_60_Vel_0
Time_Shift_3
Note_On_56_Vel_60
Time_Shift_2
Note_On_60_Vel_35
Time_Shift_25
Sustain_Off
Time_Shift_1
Note_On_68_Vel_0
Note_On_63_Vel_0
Note_On_72_Vel_0
Note_On_60_Vel_0
Time_Shift_1
Note_On_51_Vel_0
Note_On_75_Vel_0
Time_Shift_3
Note_On_84_Vel_73
Time_Shift_57
Sustain_On
Time_Shift_17
Note_On_68_Vel_30
Time_Shift_59
Note_On_74_Vel_45
Time_Shift_78
Note_On_56_Vel_0
Time_Shift_5
Note_On_63_Vel_59
Time_Shift_6
Note_On_56_Vel_48
Time_Shift_4
Note_On_72_Vel_51
Note_On_68_Vel_0
Time_Shift_11
Note_On_68_Vel_52
Time_Shift_63
Note_On_85_Vel_80
Time_Shift_80
Note_On_68_Vel_0
Time_Shift_8
Note_On_63_Vel_0
Time_Shift_3
Note_On_68_Vel_57
Time_Shift_3
Note_On_63_Vel_52
Time_Shift_4
Note_On_60_Vel_33
Time_Shift_2
Note_On_76_Vel_54
Time_Shift_3
Note_On_60_Vel_0
Time_Shift_73
Note_On_77_Vel_63
Time_Shift_42
Note_On_85_Vel_0
Time_Shift_8
Note_On_85_Vel_55
Time_Shift_40
Note_On_51_Vel_75
Time_Shift_29
Note_On_84_Vel_0
Note_On_76_Vel_0
Time_Shift_1
Note_On_72_Vel_0
Time_Shift_1
Note_On_85_Vel_0
Note_On_63_Vel_0
Note_On_77_Vel_0
Time_Shift_1
Sustain_Off
Time_Shift_1
Note_On_74_Vel_0
Time_Shift_1
Note_On_84_Vel_78
Time_Shift_3
Note_On_56_Vel_0
Time_Shift_7
Note_On_68_Vel_0
Time_Shift_39
Sustain_On
Time_Shift_75
Note_On_74_Vel_47
Time_Shift_74
Note_On_75_Vel_69
Time_Shift_2
Note_On_67_Vel_52
Time_Shift_22
Note_On_58_Vel_37
Time_Shift_9
Note_On_61_Vel_38
Time_Shift_42
Note_On_82_Vel_81
Time_Shift_68
Note_On_67_Vel_0
Time_Shift_3
Note_On_72_Vel_68
Time_Shift_2
Note_On_67_Vel_64
Time_Shift_2
Note_On_58_Vel_0
Time_Shift_6
Note_On_58_Vel_57
Time_Shift_2
Note_On_61_Vel_0
Time_Shift_11
Note_On_61_Vel_56
Time_Shift_52
Note_On_73_Vel_75
Time_Shift_74
Note_On_52_Vel_76
Time_Shift_1
Note_On_82_Vel_0
Time_Shift_10
Note_On_82_Vel_82
Time_Shift_9
Note_On_75_Vel_0
Note_On_84_Vel_0
Note_On_72_Vel_0
Note_On_74_Vel_0
Note_On_67_Vel_0
Note_On_58_Vel_0
Time_Shift_1
Note_On_73_Vel_0
Time_Shift_5
Sustain_Off
Time_Shift_6
Note_On_51_Vel_0
Time_Shift_8
Note_On_61_Vel_0
Time_Shift_46
Sustain_On
Time_Shift_22
Note_On_72_Vel_67
Time_Shift_77
Note_On_73_Vel_71
Time_Shift_35
Note_On_67_Vel_58
Time_Shift_6
Note_On_58_Vel_51
Time_Shift_34
Note_On_84_Vel_88
Time_Shift_79
Note_On_58_Vel_0
Note_On_67_Vel_0
Note_On_73_Vel_0
Time_Shift_4
Note_On_74_Vel_66
Time_Shift_3
Note_On_67_Vel_67
Time_Shift_1
Note_On_58_Vel_61
Time_Shift_3
Note_On_73_Vel_60
Time_Shift_26
Note_On_61_Vel_52
Time_Shift_45
Note_On_75_Vel_71
Time_Shift_64
Note_On_82_Vel_0
Time_Shift_3
Note_On_53_Vel_73
Time_Shift_4
Note_On_82_Vel_84
Time_Shift_10
Note_On_73_Vel_0
Time_Shift_1
Note_On_72_Vel_0
Note_On_58_Vel_0
Note_On_61_Vel_0
Note_On_75_Vel_0
Note_On_67_Vel_0
Time_Shift_1
Note_On_84_Vel_0
Time_Shift_1
Sustain_Off
Time_Shift_11
Note_On_52_Vel_0
Note_On_74_Vel_0
Time_Shift_46
Sustain_On
Time_Shift_27
Note_On_72_Vel_66
Time_Shift_75
Note_On_73_Vel_71
Time_Shift_3
Note_On_68_Vel_64
Time_Shift_6
Note_On_60_Vel_43
Note_On_56_Vel_56
Time_Shift_72
Note_On_80_Vel_80
Time_Shift_63
Note_On_56_Vel_0
Note_On_68_Vel_0
Time_Shift_7
Note_On_71_Vel_64
Time_Shift_3
Note_On_56_Vel_56
Note_On_68_Vel_63
Time_Shift_20
Note_On_60_Vel_0
Time_Shift_6
Note_On_60_Vel_29
Time_Shift_40
Note_On_72_Vel_0
Time_Shift_5
Note_On_72_Vel_66
Time_Shift_77
Note_On_73_Vel_0
Time_Shift_4
Note_On_80_Vel_0
Time_Shift_1
Note_On_72_Vel_0
Time_Shift_1
Note_On_71_Vel_0
Note_On_60_Vel_0
Note_On_53_Vel_0
Time_Shift_1
Sustain_Off
Time_Shift_1
Note_On_50_Vel_68
Note_On_79_Vel_82
Time_Shift_3
Note_On_82_Vel_0
Time_Shift_7
Note_On_68_Vel_0
Time_Shift_8
Note_On_56_Vel_0
Time_Shift_31
Sustain_On
Time_Shift_40
Note_On_70_Vel_66
Time_Shift_85
Note_On_71_Vel_69
Note_On_56_Vel_55
Note_On_65_Vel_45
Time_Shift_87
Note_On_77_Vel_77
Time_Shift_49
Note_On_65_Vel_0
Time_Shift_8
Note_On_65_Vel_51
Time_Shift_7
Note_On_56_Vel_0
Note_On_70_Vel_0
Time_Shift_4
Note_On_56_Vel_49
Time_Shift_2
Note_On_58_Vel_53
Time_Shift_3
Note_On_70_Vel_63
Time_Shift_7
Note_On_58_Vel_0
Time_Shift_53
Note_On_71_Vel_0
Time_Shift_6
Note_On_71_Vel_63
Time_Shift_25
Note_On_68_Vel_40
Time_Shift_46
Note_On_50_Vel_0
Time_Shift_4
Note_On_51_Vel_57
Time_Shift_14
Note_On_75_Vel_77
Time_Shift_5
Note_On_71_Vel_0
Time_Shift_1
Note_On_56_Vel_0
Time_Shift_1
Note_On_79_Vel_0
Note_On_77_Vel_0
Sustain_Off
Time_Shift_2
Note_On_70_Vel_0
Time_Shift_4
Note_On_68_Vel_0
Time_Shift_7
Note_On_65_Vel_0
Time_Shift_39
Sustain_On
Time_Shift_30
Note_On_71_Vel_61
Time_Shift_59
Note_On_63_Vel_57
Time_Shift_3
Note_On_51_Vel_0
Time_Shift_4
Note_On_56_Vel_59
Time_Shift_1
Note_On_60_Vel_48
Note_On_51_Vel_47
Time_Shift_5
Note_On_72_Vel_69
Time_Shift_72
Note_On_80_Vel_76
Time_Shift_72
Note_On_60_Vel_0
Note_On_63_Vel_0
Note_On_71_Vel_0
Time_Shift_5
Note_On_71_Vel_64
Time_Shift_1
Note_On_60_Vel_51
Time_Shift_1
Note_On_56_Vel_0
Time_Shift_3
Note_On_63_Vel_53
Time_Shift_1
Note_On_56_Vel_58
Time_Shift_58
Note_On_72_Vel_0
Time_Shift_4
Note_On_72_Vel_72
Time_Shift_80
Note_On_75_Vel_0
Time_Shift_4
Note_On_56_Vel_0
Time_Shift_1
Note_On_71_Vel_0
Note_On_63_Vel_0
Note_On_80_Vel_0
Note_On_72_Vel_0
Note_On_60_Vel_0
Time_Shift_1
Sustain_Off
Time_Shift_2
Note_On_51_Vel_0
Time_Shift_3
Note_On_75_Vel_77
Time_Shift_3
Note_On_51_Vel_53
Time_Shift_40
Sustain_On
Time_Shift_40
Note_On_72_Vel_68
Time_Shift_69
Note_On_73_Vel_74
Time_Shift_18
Note_On_67_Vel_57
Time_Shift_4
Note_On_63_Vel_42
Time_Shift_2
Note_On_58_Vel_46
Time_Shift_47
Note_On_82_Vel_85
Time_Shift_66
Note_On_58_Vel_0
Note_On_72_Vel_0
Time_Shift_7
Note_On_67_Vel_0
Time_Shift_2
Note_On_58_Vel_57
Time_Shift_2
Note_On_72_Vel_74
Time_Shift_4
Note_On_63_Vel_0
Time_Shift_2
Note_On_67_Vel_68
Time_Shift_4
Note_On_63_Vel_51
Time_Shift_40
Note_On_73_Vel_0
Time_Shift_7
Note_On_73_Vel_73
Time_Shift_78
Note_On_75_Vel_0
Time_Shift_5
Note_On_56_Vel_75
Time_Shift_5
Note_On_75_Vel_80
Time_Shift_1
Note_On_68_Vel_66
Time_Shift_15
Note_On_82_Vel_0
Time_Shift_1
Note_On_51_Vel_0
Note_On_67_Vel_0
Note_On_73_Vel_0
Time_Shift_5
Sustain_Off
Time_Shift_6
Note_On_58_Vel_0
Time_Shift_8
Note_On_72_Vel_0
Time_Shift_30
Sustain_On
Time_Shift_12
Note_On_71_Vel_71
Time_Shift_73
Note_On_63_Vel_0
Note_On_68_Vel_0
Time_Shift_4
Note_On_72_Vel_77
Time_Shift_1
Note_On_68_Vel_71
Time_Shift_6
Note_On_63_Vel_63
Time_Shift_71
Note_On_84_Vel_88
Time_Shift_83
Note_On_74_Vel_68
Time_Shift_4
Note_On_63_Vel_0
Note_On_68_Vel_0
Time_Shift_5
Note_On_68_Vel_66
Note_On_63_Vel_62
Time_Shift_72
Note_On_75_Vel_0
Time_Shift_4
Note_On_75_Vel_76
Time_Shift_49
Note_On_56_Vel_0
Time_Shift_12
Note_On_56_Vel_85
Time_Shift_4
Note_On_84_Vel_0
Time_Shift_11
Note_On_84_Vel_86
Time_Shift_14
Note_On_72_Vel_0
Time_Shift_1
Note_On_74_Vel_0
Note_On_68_Vel_0
Note_On_71_Vel_0
Note_On_63_Vel_0
Time_Shift_1
Note_On_75_Vel_0
Sustain_Off
Time_Shift_65
Sustain_On
Time_Shift_15
Note_On_56_Vel_0
Time_Shift_4
Note_On_76_Vel_68
Time_Shift_82
Note_On_65_Vel_59
Time_Shift_1
Note_On_77_Vel_71
Time_Shift_1
Note_On_56_Vel_56
Time_Shift_5
Note_On_68_Vel_62
Time_Shift_9
Note_On_60_Vel_47
Time_Shift_62
Note_On_85_Vel_82
Time_Shift_67
Note_On_68_Vel_0
Time_Shift_7
Note_On_76_Vel_0
Time_Shift_3
Note_On_68_Vel_69
Time_Shift_1
Note_On_76_Vel_68
Time_Shift_73
Note_On_77_Vel_0
Time_Shift_12
Note_On_77_Vel_62
Time_Shift_57
Note_On_84_Vel_0
Time_Shift_4
Note_On_67_Vel_64
Note_On_55_Vel_63
Time_Shift_1
Note_On_84_Vel_80
Time_Shift_1
Note_On_76_Vel_0
Note_On_68_Vel_0
Note_On_60_Vel_0
Note_On_65_Vel_0
Time_Shift_1
Note_On_56_Vel_0
Note_On_77_Vel_0
Note_On_85_Vel_0
Time_Shift_4
Sustain_Off
Time_Shift_58
Sustain_On
Time_Shift_22
Note_On_76_Vel_62
Time_Shift_89
Note_On_70_Vel_64
Time_Shift_1
Note_On_77_Vel_58
Note_On_61_Vel_55
Time_Shift_4
Note_On_65_Vel_49
Time_Shift_57
Note_On_82_Vel_77
Time_Shift_66
Note_On_76_Vel_0
Time_Shift_10
Note_On_76_Vel_63
Time_Shift_5
Note_On_61_Vel_0
Note_On_70_Vel_0
Time_Shift_10
Note_On_61_Vel_61
Time_Shift_1
Note_On_70_Vel_55
Time_Shift_58
Note_On_77_Vel_0
Time_Shift_4
Note_On_77_Vel_62
Time_Shift_72
Note_On_84_Vel_0
Note_On_76_Vel_0
Note_On_77_Vel_0
Note_On_65_Vel_0
Time_Shift_1
Sustain_Off
Note_On_82_Vel_0
Note_On_61_Vel_0
Time_Shift_3
Note_On_55_Vel_0
Time_Shift_5
Note_On_67_Vel_0
Time_Shift_2
Note_On_82_Vel_76
Time_Shift_6
Note_On_48_Vel_56
Time_Shift_7
Note_On_70_Vel_0
Time_Shift_46
Sustain_On
Time_Shift_50
Note_On_75_Vel_57
Time_Shift_68
Note_On_67_Vel_60
Time_Shift_7
Note_On_58_Vel_49
Note_On_61_Vel_46
Time_Shift_2
Note_On_76_Vel_65
Time_Shift_4
Note_On_61_Vel_0
Time_Shift_15
Note_On_48_Vel_0
Time_Shift_58
Note_On_84_Vel_74
Time_Shift_57
Note_On_67_Vel_0
Time_Shift_5
Note_On_67_Vel_52
Time_Shift_3
Note_On_58_Vel_0
Time_Shift_5
Note_On_60_Vel_37
Time_Shift_2
Note_On_75_Vel_0
Time_Shift_2
Note_On_58_Vel_41
Time_Shift_3
Note_On_75_Vel_64
Time_Shift_65
Note_On_76_Vel_0
Time_Shift_11
Note_On_76_Vel_54
Time_Shift_58
Note_On_60_Vel_0
Time_Shift_11
Note_On_60_Vel_44
Note_On_76_Vel_0
Sustain_Off
Time_Shift_1
Note_On_67_Vel_0
Note_On_58_Vel_0
Note_On_75_Vel_0
Time_Shift_1
Note_On_84_Vel_0
Time_Shift_2
Note_On_82_Vel_0
Time_Shift_2
Note_On_65_Vel_41
Time_Shift_2
Note_On_53_Vel_45
Time_Shift_4
Note_On_82_Vel_76
Time_Shift_46
Sustain_On
Time_Shift_31
Note_On_65_Vel_0
Time_Shift_23
Note_On_60_Vel_0
Time_Shift_10
Note_On_76_Vel_64
Time_Shift_52
Note_On_56_Vel_55
Time_Shift_3
Note_On_60_Vel_39
Note_On_65_Vel_39
Time_Shift_25
Note_On_77_Vel_61
Time_Shift_77
Note_On_80_Vel_70
Time_Shift_55
Note_On_60_Vel_0
Time_Shift_9
Note_On_60_Vel_36
Time_Shift_7
Note_On_76_Vel_0
Time_Shift_7
Note_On_56_Vel_0
Time_Shift_3
Note_On_76_Vel_62
Time_Shift_5
Note_On_65_Vel_0
Time_Shift_1
Note_On_56_Vel_46
Time_Shift_4
Note_On_65_Vel_35
Time_Shift_103
Note_On_77_Vel_0
Time_Shift_4
Note_On_77_Vel_57
Time_Shift_75
Note_On_50_Vel_54
Time_Shift_27
Note_On_76_Vel_0
Note_On_56_Vel_0
Time_Shift_2
Note_On_53_Vel_0
Note_On_77_Vel_0
Note_On_82_Vel_0
Time_Shift_1
Note_On_65_Vel_0
Note_On_80_Vel_0
Time_Shift_1
Sustain_Off
Time_Shift_12
Note_On_60_Vel_0
Time_Shift_29
Note_On_79_Vel_66
Time_Shift_25
Sustain_On
Time_Shift_108
Note_On_50_Vel_0
Time_Shift_15
Note_On_70_Vel_48
Time_Shift_104
Note_On_65_Vel_30
Time_Shift_8
Note_On_56_Vel_40
Time_Shift_3
Note_On_71_Vel_51
Time_Shift_4
Note_On_59_Vel_35
Time_Shift_97
Note_On_77_Vel_56
Time_Shift_107
Note_On_70_Vel_0
Time_Shift_9
Note_On_70_Vel_50
Time_Shift_15
Note_On_58_Vel_33
Time_Shift_6
Note_On_58_Vel_0
Time_Shift_85
Note_On_71_Vel_0
Time_Shift_11
Note_On_71_Vel_52
Time_Shift_380
Note_On_67_Vel_57
Time_Shift_54
Note_On_70_Vel_0
Time_Shift_10
Note_On_55_Vel_37
Time_Shift_1
Note_On_70_Vel_42
Time_Shift_27
Sustain_Off
Time_Shift_8
Note_On_79_Vel_0
Time_Shift_2
Note_On_77_Vel_0
Note_On_65_Vel_0
Time_Shift_2
Note_On_56_Vel_0
Note_On_70_Vel_0
Time_Shift_1
Note_On_71_Vel_0
Time_Shift_26
Note_On_59_Vel_0
Time_Shift_146
Sustain_On
Time_Shift_328
Note_On_65_Vel_54
Time_Shift_30
Sustain_Off
Time_Shift_7
Note_On_67_Vel_0
Note_On_53_Vel_42
Time_Shift_2
Note_On_55_Vel_0
Time_Shift_231
Note_On_65_Vel_0
Time_Shift_14
Note_On_67_Vel_55
Time_Shift_27
Note_On_55_Vel_44
Time_Shift_91
Sustain_On
Time_Shift_433
Note_On_65_Vel_48
Time_Shift_4
Note_On_67_Vel_0
Time_Shift_8
Note_On_53_Vel_0
Time_Shift_1
Note_On_67_Vel_40
Time_Shift_7
Note_On_55_Vel_0
Time_Shift_2
Note_On_53_Vel_37
Time_Shift_2
Note_On_55_Vel_30
Time_Shift_5
Sustain_Off
Time_Shift_206
Sustain_On
Time_Shift_38
Note_On_67_Vel_0
Time_Shift_7
Sustain_Off
Time_Shift_14
Note_On_65_Vel_0
Time_Shift_2
Note_On_55_Vel_0
Time_Shift_3
Note_On_53_Vel_0
Time_Shift_24
Note_On_67_Vel_47
Time_Shift_6
Note_On_55_Vel_41
Time_Shift_82
Sustain_On
Time_Shift_553
Note_On_67_Vel_0
Time_Shift_10
Note_On_58_Vel_31
Time_Shift_1
Note_On_67_Vel_23
Time_Shift_55
Note_On_70_Vel_53
Time_Shift_33
Sustain_Off
Time_Shift_28
Note_On_55_Vel_0
Note_On_67_Vel_0
Time_Shift_6
Note_On_58_Vel_0
Time_Shift_4
Note_On_70_Vel_0
Time_Shift_20
Note_On_56_Vel_44
Time_Shift_7
Note_On_68_Vel_50
Time_Shift_67
Sustain_On
Time_Shift_391
Note_On_56_Vel_0
Time_Shift_3
Note_On_51_Vel_33
Time_Shift_31
Note_On_67_Vel_45
Time_Shift_112
Note_On_73_Vel_68
Time_Shift_28
Note_On_67_Vel_0
Time_Shift_1
Note_On_51_Vel_0
Time_Shift_3
Note_On_68_Vel_0
Time_Shift_10
Sustain_Off
Time_Shift_5
Note_On_73_Vel_0
Time_Shift_54
Note_On_75_Vel_65
Time_Shift_2
Note_On_70_Vel_54
Time_Shift_2
Note_On_61_Vel_43
Time_Shift_11
Note_On_67_Vel_31
Time_Shift_9
Note_On_75_Vel_0
Time_Shift_17
Note_On_61_Vel_0
Time_Shift_1
Note_On_67_Vel_0
Time_Shift_3
Note_On_70_Vel_0
Time_Shift_51
Note_On_79_Vel_67
Time_Shift_53
Note_On_79_Vel_0
Time_Shift_18
Note_On_85_Vel_75
Time_Shift_11
Note_On_67_Vel_27
Note_On_70_Vel_43
Time_Shift_1
Note_On_61_Vel_48
Time_Shift_4
Note_On_67_Vel_0
Time_Shift_11
Note_On_75_Vel_31
Time_Shift_22
Note_On_70_Vel_0
Note_On_61_Vel_0
Time_Shift_12
Note_On_85_Vel_0
Time_Shift_9
Note_On_75_Vel_0
Time_Shift_19
Note_On_89_Vel_70
Time_Shift_60
Note_On_89_Vel_0
Time_Shift_32
Note_On_86_Vel_73
Time_Shift_3
Note_On_56_Vel_63
Time_Shift_1
Note_On_68_Vel_57
Time_Shift_16
Sustain_On
Time_Shift_51
Note_On_87_Vel_76
Time_Shift_56
Note_On_68_Vel_0
Time_Shift_5
Note_On_56_Vel_0
Time_Shift_1
Note_On_86_Vel_0
Note_On_87_Vel_0
Time_Shift_5
Sustain_Off
Time_Shift_26
Note_On_68_Vel_73
Time_Shift_2
Note_On_89_Vel_71
Time_Shift_3
Note_On_60_Vel_64
Time_Shift_20
Note_On_68_Vel_0
Time_Shift_3
Note_On_60_Vel_0
Time_Shift_47
Note_On_87_Vel_77
Time_Shift_4
Note_On_89_Vel_0
Time_Shift_65
Note_On_87_Vel_0
Time_Shift_4
Note_On_92_Vel_78
Time_Shift_5
Note_On_60_Vel_53
Time_Shift_2
Note_On_68_Vel_65
Time_Shift_28
Note_On_68_Vel_0
Time_Shift_5
Note_On_60_Vel_0
Time_Shift_37
Note_On_80_Vel_73
Time_Shift_7
Note_On_92_Vel_0
Time_Shift_26
Note_On_80_Vel_0
Time_Shift_48
Note_On_89_Vel_80
Time_Shift_2
Note_On_51_Vel_66
Time_Shift_9
Sustain_On
Time_Shift_60
Note_On_87_Vel_86
Time_Shift_26
Note_On_51_Vel_0
Time_Shift_2
Note_On_89_Vel_0
Time_Shift_7
Sustain_Off
Time_Shift_48
Note_On_85_Vel_79
Time_Shift_1
Note_On_87_Vel_0
Time_Shift_2
Note_On_67_Vel_71
Time_Shift_3
Note_On_61_Vel_65
Time_Shift_7
Note_On_63_Vel_56
Time_Shift_22
Note_On_61_Vel_0
Time_Shift_4
Note_On_63_Vel_0
Time_Shift_10
Note_On_67_Vel_0
Time_Shift_15
Note_On_85_Vel_0
Time_Shift_6
Note_On_79_Vel_76
Time_Shift_35
Note_On_79_Vel_0
Time_Shift_32
Note_On_61_Vel_70
Time_Shift_3
Note_On_67_Vel_63
Note_On_77_Vel_76
Time_Shift_3
Note_On_63_Vel_57
Time_Shift_26
Note_On_61_Vel_0
Time_Shift_3
Note_On_67_Vel_0
Time_Shift_9
Note_On_63_Vel_0
Time_Shift_5
Note_On_77_Vel_0
Time_Shift_28
Note_On_75_Vel_80
Time_Shift_38
Note_On_75_Vel_0
Time_Shift_36
Note_On_74_Vel_75
Time_Shift_2
Note_On_44_Vel_70
Time_Shift_20
Sustain_On
Time_Shift_14
Note_On_44_Vel_0
Time_Shift_26
Note_On_74_Vel_0
Time_Shift_9
Note_On_75_Vel_82
Time_Shift_1
Sustain_Off
Time_Shift_54
Note_On_75_Vel_0
Time_Shift_21
Note_On_77_Vel_77
Time_Shift_9
Note_On_60_Vel_71
Note_On_63_Vel_72
Time_Shift_29
Note_On_60_Vel_0
Time_Shift_1
Note_On_63_Vel_0
Time_Shift_1
Note_On_77_Vel_0
Time_Shift_37
Note_On_75_Vel_81
Time_Shift_48
Note_On_75_Vel_0
Time_Shift_23
Note_On_80_Vel_76
Time_Shift_3
Note_On_63_Vel_58
Time_Shift_4
Note_On_60_Vel_54
Time_Shift_30
Note_On_60_Vel_0
Note_On_63_Vel_0
Time_Shift_21
Note_On_80_Vel_0
Time_Shift_7
Note_On_68_Vel_63
Time_Shift_24
Note_On_68_Vel_0
Time_Shift_49
Note_On_69_Vel_75
Time_Shift_5
Note_On_51_Vel_64
Time_Shift_2
Note_On_60_Vel_49
Time_Shift_35
Sustain_On
Time_Shift_42
Note_On_75_Vel_83
Time_Shift_49
Note_On_51_Vel_0
Time_Shift_1
Note_On_60_Vel_0
Time_Shift_2
Note_On_75_Vel_0
Time_Shift_2
Sustain_Off
Time_Shift_4
Note_On_69_Vel_0
Time_Shift_8
Note_On_78_Vel_72
Time_Shift_2
Note_On_69_Vel_74
Time_Shift_7
Note_On_63_Vel_44
Time_Shift_5
Note_On_60_Vel_44
Time_Shift_1
Note_On_63_Vel_0
Time_Shift_11
Note_On_78_Vel_0
Time_Shift_12
Note_On_69_Vel_0
Time_Shift_23
Note_On_60_Vel_0
Time_Shift_4
Note_On_81_Vel_85
Time_Shift_66
Note_On_81_Vel_0
Note_On_69_Vel_78
Time_Shift_1
Note_On_63_Vel_63
Time_Shift_1
Note_On_87_Vel_84
Note_On_60_Vel_73
Time_Shift_22
Note_On_69_Vel_0
Time_Shift_8
Note_On_60_Vel_0
Time_Shift_6
Note_On_63_Vel_0
Time_Shift_24
Note_On_87_Vel_0
Time_Shift_4
Note_On_90_Vel_85
Time_Shift_39
Note_On_90_Vel_0
Time_Shift_31
Note_On_58_Vel_86
Time_Shift_3
Note_On_88_Vel_93
Time_Shift_37
Sustain_On
Time_Shift_29
Note_On_89_Vel_87
Time_Shift_63
Note_On_88_Vel_0
Time_Shift_9
Note_On_70_Vel_83
Note_On_61_Vel_73
Time_Shift_1
Note_On_90_Vel_94
Time_Shift_2
Sustain_Off
Time_Shift_3
Note_On_58_Vel_0
Time_Shift_2
Note_On_65_Vel_56
Time_Shift_20
Note_On_70_Vel_0
Time_Shift_4
Note_On_65_Vel_0
Time_Shift_1
Note_On_61_Vel_0
Time_Shift_19
Note_On_89_Vel_0
Time_Shift_9
Note_On_89_Vel_83
Time_Shift_4
Note_On_90_Vel_0
Time_Shift_66
Note_On_70_Vel_91
Time_Shift_6
Note_On_89_Vel_0
Note_On_61_Vel_79
Time_Shift_3
Note_On_94_Vel_96
Time_Shift_6
Note_On_58_Vel_59
Time_Shift_6
Note_On_58_Vel_0
Time_Shift_4
Note_On_70_Vel_0
Time_Shift_8
Note_On_61_Vel_0
Time_Shift_42
Note_On_82_Vel_92
Time_Shift_30
Note_On_94_Vel_0
Time_Shift_20
Note_On_82_Vel_0
Time_Shift_15
Note_On_90_Vel_96
Time_Shift_1
Note_On_51_Vel_93
Time_Shift_26
Sustain_On
Time_Shift_44
Note_On_89_Vel_88
Time_Shift_36
Note_On_51_Vel_0
Time_Shift_3
Sustain_Off
Time_Shift_21
Note_On_89_Vel_0
Time_Shift_1
Note_On_87_Vel_91
Time_Shift_9
Note_On_69_Vel_88
Time_Shift_6
Note_On_63_Vel_69
Time_Shift_1
Note_On_60_Vel_73
Time_Shift_17
Note_On_69_Vel_0
Note_On_90_Vel_0
Time_Shift_13
Note_On_63_Vel_0
Time_Shift_18
Note_On_60_Vel_0
Time_Shift_3
Note_On_81_Vel_88
Time_Shift_5
Note_On_87_Vel_0
Time_Shift_48
Note_On_81_Vel_0
Time_Shift_14
Note_On_63_Vel_71
Time_Shift_1
Note_On_69_Vel_87
Note_On_60_Vel_78
Time_Shift_7
Note_On_78_Vel_87
Time_Shift_19
Note_On_60_Vel_0
Time_Shift_6
Note_On_63_Vel_0
Time_Shift_12
Note_On_69_Vel_0
Time_Shift_24
Note_On_78_Vel_0
Time_Shift_2
Note_On_77_Vel_88
Time_Shift_47
Note_On_77_Vel_0
Time_Shift_25
Note_On_76_Vel_95
Time_Shift_4
Note_On_39_Vel_94
Time_Shift_29
Sustain_On
Time_Shift_40
Note_On_77_Vel_88
Time_Shift_84
Note_On_78_Vel_94
Time_Shift_9
Note_On_65_Vel_85
Time_Shift_9
Note_On_61_Vel_70
Time_Shift_4
Note_On_58_Vel_58
Time_Shift_46
Note_On_77_Vel_0
Time_Shift_6
Note_On_77_Vel_92
Time_Shift_70
Note_On_58_Vel_0
Time_Shift_8
Note_On_61_Vel_0
Note_On_65_Vel_0
Time_Shift_3
Note_On_58_Vel_80
Time_Shift_1
Note_On_82_Vel_97
Time_Shift_1
Note_On_65_Vel_79
Time_Shift_4
Note_On_61_Vel_75
Time_Shift_68
Note_On_39_Vel_0
Time_Shift_19
Note_On_70_Vel_89
Time_Shift_145
Note_On_76_Vel_0
Note_On_61_Vel_0
Time_Shift_1
Note_On_77_Vel_0
Note_On_65_Vel_0
Note_On_82_Vel_0
Note_On_78_Vel_0
Note_On_70_Vel_0
Time_Shift_2
Sustain_Off
Time_Shift_10
Note_On_58_Vel_0
Time_Shift_9
Note_On_71_Vel_95
Time_Shift_3
Note_On_39_Vel_87
Time_Shift_6
Note_On_27_Vel_85
Time_Shift_35
Note_On_27_Vel_0
Sustain_On
Time_Shift_30
Note_On_74_Vel_87
Time_Shift_69
Note_On_77_Vel_86
Time_Shift_32
Note_On_39_Vel_0
Time_Shift_32
Note_On_80_Vel_87
Time_Shift_67
Note_On_83_Vel_93
Time_Shift_75
Note_On_95_Vel_94
Time_Shift_60
Note_On_94_Vel_93
Time_Shift_8
Note_On_77_Vel_0
Time_Shift_6
Note_On_83_Vel_0
Time_Shift_5
Note_On_71_Vel_0
Time_Shift_4
Sustain_Off
Time_Shift_1
Note_On_71_Vel_85
Time_Shift_8
Note_On_66_Vel_72
Time_Shift_2
Note_On_68_Vel_80
Time_Shift_23
Note_On_92_Vel_92
Time_Shift_31
Sustain_On
Time_Shift_39
Note_On_94_Vel_0
Time_Shift_6
Note_On_94_Vel_78
Time_Shift_55
Note_On_92_Vel_0
Time_Shift_4
Note_On_92_Vel_93
Time_Shift_71
Note_On_91_Vel_89
Time_Shift_2
Note_On_80_Vel_0
Time_Shift_51
Note_On_89_Vel_86
Time_Shift_41
Note_On_74_Vel_0
Time_Shift_7
Note_On_71_Vel_0
Time_Shift_3
Note_On_68_Vel_0
Time_Shift_1
Note_On_94_Vel_0
Time_Shift_1
Note_On_92_Vel_0
Time_Shift_1
Note_On_89_Vel_0
Time_Shift_3
Note_On_66_Vel_0
Note_On_91_Vel_0
Note_On_95_Vel_0
Time_Shift_1
Sustain_Off
Time_Shift_4
Note_On_79_Vel_87
Time_Shift_2
Note_On_91_Vel_89
Time_Shift_23
Sustain_On
Time_Shift_20
Note_On_77_Vel_78
Time_Shift_24
Note_On_89_Vel_83
Time_Shift_64
Note_On_91_Vel_0
Time_Shift_6
Note_On_91_Vel_82
Time_Shift_48
Note_On_89_Vel_0
Time_Shift_8
Note_On_89_Vel_85
Time_Shift_66
Note_On_87_Vel_88
Time_Shift_55
Note_On_86_Vel_88
Time_Shift_29
Note_On_89_Vel_0
Time_Shift_3
Note_On_79_Vel_0
Time_Shift_4
Note_On_91_Vel_0
Time_Shift_2
Sustain_Off
Time_Shift_2
Note_On_77_Vel_0
Time_Shift_5
Note_On_86_Vel_0
Time_Shift_2
Note_On_87_Vel_0
Time_Shift_4
Note_On_75_Vel_90
Time_Shift_6
Note_On_87_Vel_82
Time_Shift_21
Sustain_On
Time_Shift_37
Note_On_74_Vel_79
Time_Shift_2
Note_On_86_Vel_83
Time_Shift_61
Note_On_87_Vel_0
Time_Shift_6
Note_On_87_Vel_81
Time_Shift_48
Note_On_86_Vel_0
Time_Shift_9
Note_On_86_Vel_80
Time_Shift_67
Note_On_75_Vel_0
Time_Shift_5
Note_On_85_Vel_80
Note_On_75_Vel_61
Time_Shift_59
Note_On_83_Vel_78
Time_Shift_40
Note_On_87_Vel_0
Time_Shift_1
Note_On_86_Vel_0
Note_On_74_Vel_0
Note_On_75_Vel_0
Time_Shift_3
Note_On_85_Vel_0
Time_Shift_1
Note_On_83_Vel_0
Sustain_Off
Time_Shift_9
Note_On_85_Vel_79
Note_On_73_Vel_86
Time_Shift_59
Sustain_On
Time_Shift_4
Note_On_83_Vel_74
Time_Shift_4
Note_On_71_Vel_71
Time_Shift_53
Note_On_85_Vel_0
Time_Shift_7
Note_On_85_Vel_79
Time_Shift_55
Note_On_83_Vel_0
Time_Shift_10
Note_On_83_Vel_73
Time_Shift_70
Note_On_82_Vel_80
Time_Shift_48
Note_On_80_Vel_73
Time_Shift_43
Sustain_Off
Time_Shift_10
Note_On_73_Vel_0
Note_On_85_Vel_0
Time_Shift_1
Note_On_83_Vel_0
Time_Shift_4
Note_On_80_Vel_0
Note_On_71_Vel_0
Time_Shift_14
Note_On_82_Vel_0
Time_Shift_8
Note_On_82_Vel_80
Time_Shift_6
Note_On_70_Vel_73
Time_Shift_32
Sustain_On
Time_Shift_25
Note_On_80_Vel_70
Time_Shift_28
Note_On_68_Vel_49
Time_Shift_31
Note_On_82_Vel_0
Time_Shift_9
Note_On_82_Vel_73
Time_Shift_53
Note_On_80_Vel_0
Time_Shift_11
Note_On_80_Vel_80
Time_Shift_68
Note_On_79_Vel_73
Time_Shift_57
Note_On_77_Vel_72
Time_Shift_15
Note_On_79_Vel_0
Time_Shift_1
Note_On_80_Vel_0
Time_Shift_4
Note_On_82_Vel_0
Time_Shift_1
Note_On_68_Vel_0
Time_Shift_2
Sustain_Off
Time_Shift_16
Note_On_77_Vel_0
Time_Shift_1
Note_On_70_Vel_0
Time_Shift_35
Note_On_79_Vel_77
Time_Shift_1
Note_On_67_Vel_57
Time_Shift_44
Note_On_67_Vel_0
Time_Shift_5
Sustain_On
Time_Shift_19
Note_On_77_Vel_74
Time_Shift_7
Note_On_65_Vel_46
Time_Shift_73
Note_On_75_Vel_76
Time_Shift_76
Note_On_74_Vel_61
Time_Shift_78
Note_On_75_Vel_0
Time_Shift_5
Note_On_75_Vel_67
Time_Shift_87
Note_On_74_Vel_0
Time_Shift_5
Note_On_74_Vel_70
Time_Shift_11
Note_On_79_Vel_0
Time_Shift_30
Note_On_77_Vel_0
Time_Shift_1
Note_On_65_Vel_0
Time_Shift_2
Sustain_Off
Time_Shift_1
Note_On_75_Vel_0
Time_Shift_37
Note_On_73_Vel_72
Time_Shift_13
Note_On_74_Vel_0
Time_Shift_35
Note_On_73_Vel_0
Time_Shift_53
Note_On_71_Vel_65
Time_Shift_29
Note_On_71_Vel_0
Time_Shift_75
Note_On_73_Vel_72
Time_Shift_39
Note_On_73_Vel_0
Time_Shift_79
Note_On_71_Vel_64
Time_Shift_39
Note_On_71_Vel_0
Time_Shift_88
Note_On_70_Vel_66
Time_Shift_2
Note_On_73_Vel_50
Time_Shift_28
Note_On_70_Vel_0
Time_Shift_25
Note_On_73_Vel_0
Time_Shift_97
Note_On_68_Vel_60
Time_Shift_22
Note_On_68_Vel_0
Time_Shift_149
Sustain_On
Time_Shift_48
Note_On_70_Vel_69
Time_Shift_3
Note_On_63_Vel_55
Time_Shift_8
Note_On_39_Vel_42
Time_Shift_239
Sustain_Off
Time_Shift_4
Note_On_39_Vel_0
Time_Shift_2
Note_On_63_Vel_0
Time_Shift_29
Note_On_61_Vel_58
Time_Shift_1
Note_On_51_Vel_55
Time_Shift_7
Note_On_55_Vel_42
Time_Shift_17
Note_On_61_Vel_0
Time_Shift_3
Note_On_51_Vel_0
Time_Shift_5
Note_On_55_Vel_0
Time_Shift_244
Note_On_61_Vel_57
Note_On_51_Vel_53
Time_Shift_2
Note_On_55_Vel_46
Time_Shift_27
Note_On_61_Vel_0
Time_Shift_3
Note_On_55_Vel_0
Time_Shift_27
Note_On_51_Vel_0
Time_Shift_194
Note_On_72_Vel_75
Time_Shift_8
Note_On_44_Vel_52
Time_Shift_4
Note_On_68_Vel_70
Time_Shift_16
Sustain_On
Time_Shift_235
Note_On_60_Vel_58
Time_Shift_5
Note_On_51_Vel_52
Time_Shift_6
Note_On_56_Vel_52
Time_Shift_77
Note_On_51_Vel_0
Note_On_70_Vel_0
Time_Shift_10
Note_On_70_Vel_77
Note_On_51_Vel_58
Time_Shift_1
Note_On_63_Vel_72
Time_Shift_89
Note_On_68_Vel_0
Time_Shift_10
Note_On_68_Vel_81
Time_Shift_5
Note_On_56_Vel_0
Note_On_60_Vel_0
Time_Shift_8
Note_On_51_Vel_0
Note_On_60_Vel_69
Time_Shift_3
Note_On_56_Vel_63
Time_Shift_1
Note_On_51_Vel_63
Time_Shift_124
Note_On_60_Vel_0
Time_Shift_91
Note_On_51_Vel_0
Note_On_70_Vel_0
Note_On_56_Vel_0
Time_Shift_1
Note_On_72_Vel_0
Time_Shift_5
Sustain_Off
Time_Shift_5
Note_On_44_Vel_0
Time_Shift_8
Note_On_63_Vel_0
Note_On_68_Vel_0
Time_Shift_3
Note_On_65_Vel_74
Time_Shift_1
Note_On_61_Vel_70
Time_Shift_45
Note_On_61_Vel_0
Time_Shift_28
Sustain_On
Time_Shift_2
Note_On_63_Vel_76
Time_Shift_2
Note_On_39_Vel_64
Time_Shift_3
Note_On_55_Vel_67
Time_Shift_6
Note_On_61_Vel_57
Time_Shift_48
Note_On_65_Vel_0
Time_Shift_182
Note_On_63_Vel_0
Time_Shift_2
Note_On_39_Vel_0
Time_Shift_5
Sustain_Off
Time_Shift_3
Note_On_55_Vel_0
Time_Shift_8
Note_On_61_Vel_0
Time_Shift_1
Note_On_51_Vel_63
Time_Shift_2
Note_On_55_Vel_50
Time_Shift_1
Note_On_61_Vel_66
Time_Shift_2
Note_On_58_Vel_52
Time_Shift_32
Note_On_51_Vel_0
Time_Shift_2
Note_On_61_Vel_0
Time_Shift_14
Note_On_55_Vel_0
Time_Shift_7
Note_On_58_Vel_0
Time_Shift_28
Note_On_77_Vel_76
Note_On_67_Vel_78
Time_Shift_36
Note_On_67_Vel_0
Time_Shift_51
Note_On_77_Vel_0
Time_Shift_2
Note_On_75_Vel_85
Time_Shift_15
Note_On_70_Vel_68
Time_Shift_9
Note_On_63_Vel_58
Time_Shift_2
Note_On_55_Vel_53
Time_Shift_1
Note_On_75_Vel_0
Time_Shift_1
Note_On_61_Vel_50
Time_Shift_2
Note_On_51_Vel_57
Time_Shift_28
Note_On_51_Vel_0
Time_Shift_2
Note_On_70_Vel_0
Time_Shift_10
Note_On_61_Vel_0
Time_Shift_1
Note_On_55_Vel_0
Time_Shift_12
Note_On_63_Vel_0
Time_Shift_136
Note_On_73_Vel_79
Time_Shift_6
Note_On_63_Vel_63
Time_Shift_37
Note_On_63_Vel_0
Time_Shift_19
Note_On_72_Vel_79
Time_Shift_6
Note_On_44_Vel_55
Time_Shift_1
Note_On_68_Vel_76
Time_Shift_25
Note_On_73_Vel_0
Sustain_On
Time_Shift_6
Note_On_51_Vel_23
Time_Shift_179
Note_On_51_Vel_0
Time_Shift_2
Note_On_63_Vel_63
Time_Shift_2
Note_On_51_Vel_71
Time_Shift_2
Note_On_56_Vel_69
Time_Shift_75
Note_On_60_Vel_80
Note_On_70_Vel_84
Time_Shift_80
Note_On_63_Vel_0
Note_On_68_Vel_0
Time_Shift_4
Note_On_68_Vel_87
Time_Shift_3
Note_On_63_Vel_82
Time_Shift_1
Note_On_51_Vel_0
Note_On_56_Vel_0
Note_On_60_Vel_0
Time_Shift_4
Note_On_56_Vel_72
Note_On_51_Vel_74
Time_Shift_1
Note_On_60_Vel_65
Time_Shift_185
Note_On_65_Vel_90
Time_Shift_25
Note_On_72_Vel_0
Time_Shift_1
Note_On_51_Vel_0
Note_On_68_Vel_0
Time_Shift_1
Note_On_56_Vel_0
Time_Shift_1
Sustain_Off
Time_Shift_4
Note_On_44_Vel_0
Time_Shift_16
Note_On_70_Vel_0
Time_Shift_7
Note_On_60_Vel_0
Note_On_63_Vel_0
Time_Shift_4
Note_On_70_Vel_90
Note_On_65_Vel_0
Time_Shift_1
Note_On_60_Vel_69
Note_On_39_Vel_65
Time_Shift_1
Note_On_63_Vel_80
Time_Shift_48
Note_On_39_Vel_0
Note_On_60_Vel_0
Time_Shift_173
Note_On_51_Vel_72
Time_Shift_2
Note_On_61_Vel_66
Time_Shift_4
Note_On_67_Vel_62
Time_Shift_1
Note_On_65_Vel_59
Time_Shift_18
Note_On_63_Vel_0
Time_Shift_25
Note_On_51_Vel_0
Time_Shift_7
Note_On_61_Vel_0
Time_Shift_8
Note_On_67_Vel_0
Time_Shift_169
Note_On_65_Vel_0
Time_Shift_14
Note_On_51_Vel_75
Time_Shift_5
Note_On_61_Vel_69
Time_Shift_27
Note_On_51_Vel_0
Time_Shift_1
Note_On_61_Vel_0
Time_Shift_30
Note_On_70_Vel_0
Time_Shift_148
Note_On_72_Vel_88
Time_Shift_3
Note_On_68_Vel_89
Note_On_44_Vel_74
Time_Shift_10
Sustain_On
Time_Shift_211
Note_On_60_Vel_74
Time_Shift_1
Note_On_51_Vel_68
Time_Shift_5
Note_On_56_Vel_64
Time_Shift_71
Note_On_70_Vel_86
Time_Shift_2
Note_On_63_Vel_81
Time_Shift_79
Note_On_56_Vel_0
Note_On_60_Vel_0
Note_On_68_Vel_0
Time_Shift_8
Note_On_51_Vel_0
Time_Shift_1
Note_On_60_Vel_80
Note_On_68_Vel_87
Time_Shift_2
Note_On_56_Vel_79
Time_Shift_7
Note_On_51_Vel_80
Time_Shift_186
Note_On_61_Vel_80
Note_On_65_Vel_85
Time_Shift_6
Note_On_44_Vel_0
Time_Shift_1
Note_On_56_Vel_0
Note_On_51_Vel_0
Note_On_60_Vel_0
Note_On_70_Vel_0
Note_On_72_Vel_0
Note_On_68_Vel_0
Time_Shift_1
Sustain_Off
Time_Shift_18
Note_On_63_Vel_0
Time_Shift_39
Sustain_On
Time_Shift_3
Note_On_63_Vel_91
Time_Shift_1
Note_On_39_Vel_75
Time_Shift_1
Note_On_55_Vel_80
Time_Shift_210
Note_On_55_Vel_0
Note_On_61_Vel_0
Time_Shift_6
Note_On_67_Vel_87
Time_Shift_3
Note_On_61_Vel_76
Time_Shift_2
Note_On_55_Vel_73
Time_Shift_1
Note_On_58_Vel_72
Time_Shift_7
Note_On_51_Vel_57
Time_Shift_56
Note_On_39_Vel_0
Time_Shift_1
Note_On_61_Vel_0
Note_On_58_Vel_0
Time_Shift_1
Note_On_55_Vel_0
Note_On_65_Vel_0
Note_On_63_Vel_0
Time_Shift_1
Note_On_67_Vel_0
Time_Shift_2
Sustain_Off
Time_Shift_7
Note_On_89_Vel_88
Time_Shift_1
Note_On_79_Vel_82
Time_Shift_12
Note_On_51_Vel_0
Time_Shift_38
Note_On_79_Vel_0
Time_Shift_19
Note_On_87_Vel_88
Time_Shift_7
Note_On_82_Vel_90
Time_Shift_3
Note_On_58_Vel_71
Time_Shift_3
Note_On_67_Vel_78
Time_Shift_2
Note_On_61_Vel_72
Note_On_89_Vel_0
Time_Shift_7
Note_On_55_Vel_65
Time_Shift_10
Note_On_87_Vel_0
Note_On_82_Vel_0
Note_On_51_Vel_42
Time_Shift_7
Note_On_58_Vel_0
Time_Shift_1
Note_On_67_Vel_0
Time_Shift_7
Note_On_55_Vel_0
Time_Shift_11
Note_On_61_Vel_0
Time_Shift_7
Note_On_51_Vel_0
Time_Shift_102
Note_On_75_Vel_90
Time_Shift_1
Note_On_85_Vel_79
Time_Shift_56
Note_On_84_Vel_90
Time_Shift_1
Note_On_44_Vel_81
Note_On_32_Vel_69
Time_Shift_9
Note_On_80_Vel_86
Time_Shift_8
Sustain_On
Time_Shift_154
Note_On_32_Vel_0
Time_Shift_26
Note_On_68_Vel_90
Time_Shift_4
Note_On_63_Vel_77
Note_On_60_Vel_77
Time_Shift_4
Note_On_56_Vel_71
Time_Shift_58
Note_On_82_Vel_92
Time_Shift_2
Note_On_72_Vel_90
Time_Shift_67
Note_On_75_Vel_0
Time_Shift_8
Note_On_80_Vel_0
Time_Shift_3
Note_On_75_Vel_94
Time_Shift_1
Note_On_80_Vel_95
Time_Shift_11
Note_On_56_Vel_0
Note_On_60_Vel_0
Note_On_68_Vel_0
Time_Shift_4
Note_On_68_Vel_95
Time_Shift_5
Note_On_56_Vel_70
Time_Shift_2
Note_On_60_Vel_73
Time_Shift_158
Note_On_85_Vel_0
Time_Shift_46
Note_On_63_Vel_0
Note_On_75_Vel_0
Time_Shift_5
Note_On_63_Vel_89
Note_On_75_Vel_84
Time_Shift_64
Note_On_44_Vel_0
Time_Shift_2
Note_On_84_Vel_0
Note_On_82_Vel_0
Note_On_68_Vel_0
Time_Shift_1
Note_On_75_Vel_0
Note_On_72_Vel_0
Note_On_80_Vel_0
Note_On_60_Vel_0
Note_On_63_Vel_0
Time_Shift_2
Sustain_Off
Time_Shift_18
Note_On_56_Vel_0
Note_On_50_Vel_93
Time_Shift_1
Note_On_76_Vel_99
Time_Shift_2
Note_On_71_Vel_91
Note_On_38_Vel_82
Time_Shift_1
Note_On_64_Vel_93
Time_Shift_42
Sustain_On
Time_Shift_118
Note_On_56_Vel_49
Time_Shift_82
Note_On_50_Vel_0
Note_On_56_Vel_0
Time_Shift_4
Note_On_59_Vel_82
Time_Shift_7
Note_On_56_Vel_72
Note_On_50_Vel_72
Time_Shift_3
Note_On_52_Vel_65
Time_Shift_63
Note_On_76_Vel_0
Time_Shift_7
Note_On_76_Vel_94
Time_Shift_4
Note_On_88_Vel_88
Note_On_84_Vel_72
Time_Shift_58
Note_On_50_Vel_0
Note_On_56_Vel_0
Note_On_59_Vel_0
Note_On_76_Vel_0
Note_On_88_Vel_0
Time_Shift_5
Note_On_71_Vel_0
Note_On_59_Vel_93
Time_Shift_3
Note_On_56_Vel_67
Time_Shift_2
Note_On_88_Vel_90
Note_On_76_Vel_94
Time_Shift_1
Note_On_83_Vel_89
Note_On_50_Vel_80
Time_Shift_158
Note_On_38_Vel_0
Time_Shift_5
Note_On_50_Vel_0
Sustain_Off
Note_On_59_Vel_0
Time_Shift_1
Note_On_76_Vel_0
Time_Shift_9
Note_On_64_Vel_0
Time_Shift_16
Note_On_52_Vel_0
Note_On_84_Vel_0
Time_Shift_7
Note_On_56_Vel_0
Note_On_83_Vel_0
Note_On_88_Vel_0
Time_Shift_5
Note_On_88_Vel_98
Time_Shift_1
Note_On_83_Vel_84
Time_Shift_1
Note_On_76_Vel_99
Time_Shift_4
Note_On_56_Vel_80
Time_Shift_1
Note_On_59_Vel_83
Note_On_52_Vel_77
Time_Shift_1
Note_On_50_Vel_80
Time_Shift_18
Sustain_On
Time_Shift_146
Note_On_52_Vel_0
Time_Shift_10
Note_On_52_Vel_42
Time_Shift_5
Note_On_59_Vel_0
Time_Shift_4
Note_On_59_Vel_44
Time_Shift_45
Sustain_Off
Time_Shift_1
Note_On_50_Vel_0
Note_On_52_Vel_0
Time_Shift_1
Note_On_59_Vel_0
Time_Shift_11
Note_On_76_Vel_0
Note_On_88_Vel_0
Time_Shift_4
Note_On_85_Vel_89
Time_Shift_2
Note_On_61_Vel_85
Time_Shift_1
Note_On_49_Vel_68
Note_On_56_Vel_0
Note_On_76_Vel_88
Note_On_88_Vel_82
Time_Shift_10
Note_On_56_Vel_63
Time_Shift_13
Sustain_On
Time_Shift_39
Note_On_49_Vel_0
Time_Shift_7
Note_On_83_Vel_0
Time_Shift_8
Note_On_76_Vel_0
Note_On_88_Vel_0
Time_Shift_3
Note_On_83_Vel_92
Time_Shift_1
Note_On_88_Vel_84
Time_Shift_1
Note_On_76_Vel_86
Time_Shift_1
Note_On_59_Vel_92
Note_On_80_Vel_77
Time_Shift_5
Note_On_52_Vel_68
Time_Shift_14
Note_On_50_Vel_68
Time_Shift_61
Note_On_61_Vel_0
Time_Shift_1
Note_On_85_Vel_0
Note_On_76_Vel_0
Note_On_59_Vel_0
Note_On_80_Vel_0
Note_On_56_Vel_0
Note_On_88_Vel_0
Note_On_83_Vel_0
Time_Shift_1
Sustain_Off
Time_Shift_4
Note_On_50_Vel_0
Time_Shift_8
Note_On_52_Vel_0
Time_Shift_59
Note_On_56_Vel_40
Time_Shift_8
Note_On_59_Vel_50
Time_Shift_4
Note_On_52_Vel_42
Time_Shift_60
Note_On_59_Vel_0
Time_Shift_30
Note_On_52_Vel_0
Note_On_56_Vel_0
Time_Shift_3
Note_On_88_Vel_98
Time_Shift_3
Note_On_56_Vel_79
Note_On_59_Vel_80
Note_On_52_Vel_69
Time_Shift_1
Note_On_76_Vel_97
Note_On_83_Vel_83
Time_Shift_2
Note_On_50_Vel_77
Time_Shift_3
Note_On_80_Vel_74
Time_Shift_4
Sustain_On
Time_Shift_367
Note_On_83_Vel_0
Time_Shift_2
Note_On_52_Vel_0
Note_On_88_Vel_0
Note_On_50_Vel_0
Time_Shift_2
Note_On_76_Vel_0
Time_Shift_1
Note_On_59_Vel_0
Time_Shift_1
Note_On_56_Vel_0
Time_Shift_11
Note_On_80_Vel_0
Time_Shift_9
Sustain_Off
Time_Shift_26
Note_On_51_Vel_55
Time_Shift_46
Note_On_51_Vel_0
Time_Shift_18
Note_On_52_Vel_72
Time_Shift_69
Note_On_52_Vel_0
Time_Shift_3
Note_On_54_Vel_73
Time_Shift_61
Note_On_56_Vel_78
Time_Shift_1
Note_On_54_Vel_0
Time_Shift_63
Note_On_56_Vel_0
Time_Shift_5
Note_On_57_Vel_77
Time_Shift_64
Note_On_59_Vel_77
Time_Shift_2
Note_On_57_Vel_0
Time_Shift_31
Note_On_59_Vel_0
Time_Shift_21
Note_On_61_Vel_75
Time_Shift_38
Note_On_61_Vel_0
Time_Shift_17
Note_On_62_Vel_77
Time_Shift_46
Note_On_62_Vel_0
Time_Shift_16
Note_On_63_Vel_73
Time_Shift_44
Note_On_63_Vel_0
Time_Shift_17
Note_On_64_Vel_78
Time_Shift_48
Note_On_64_Vel_0
Time_Shift_6
Note_On_66_Vel_82
Time_Shift_45
Note_On_66_Vel_0
Time_Shift_18
Note_On_68_Vel_80
Time_Shift_30
Note_On_68_Vel_0
Time_Shift_32
Note_On_69_Vel_76
Time_Shift_45
Note_On_69_Vel_0
Time_Shift_11
Note_On_71_Vel_73
Time_Shift_39
Note_On_71_Vel_0
Time_Shift_16
Note_On_73_Vel_71
Time_Shift_46
Note_On_74_Vel_76
Time_Shift_4
Note_On_73_Vel_0
Time_Shift_37
Note_On_74_Vel_0
Time_Shift_24
Note_On_75_Vel_72
Time_Shift_32
Note_On_75_Vel_0
Time_Shift_29
Note_On_76_Vel_70
Time_Shift_29
Note_On_76_Vel_0
Time_Shift_23
Note_On_78_Vel_72
Time_Shift_41
Note_On_78_Vel_0
Time_Shift_11
Note_On_80_Vel_73
Time_Shift_38
Note_On_80_Vel_0
Time_Shift_26
Note_On_81_Vel_73
Time_Shift_50
Note_On_81_Vel_0
Time_Shift_6
Note_On_83_Vel_68
Time_Shift_34
Note_On_83_Vel_0
Time_Shift_21
Note_On_85_Vel_59
Time_Shift_50
Note_On_86_Vel_71
Time_Shift_48
Note_On_86_Vel_0
Time_Shift_22
Note_On_87_Vel_65
Time_Shift_1
Note_On_85_Vel_0
Time_Shift_84
Sustain_On
Time_Shift_16
Note_On_87_Vel_0
Time_Shift_18
Note_On_49_Vel_35
Time_Shift_39
Note_On_57_Vel_42
Time_Shift_52
Note_On_93_Vel_67
Time_Shift_448
Sustain_Off
Time_Shift_6
Note_On_93_Vel_0
Time_Shift_1
Note_On_49_Vel_0
Time_Shift_19
Note_On_57_Vel_0
Time_Shift_243
Note_On_80_Vel_68
Time_Shift_11
Sustain_On
Time_Shift_27
Note_On_68_Vel_54
Time_Shift_15
Note_On_50_Vel_41
Time_Shift_7
Note_On_59_Vel_38
Time_Shift_5
Note_On_53_Vel_40
Time_Shift_61
Note_On_80_Vel_0
Time_Shift_199
Note_On_70_Vel_71
Time_Shift_22
Note_On_63_Vel_47
Time_Shift_6
Note_On_39_Vel_43
Time_Shift_1
Note_On_68_Vel_0
Time_Shift_94
Sustain_Off
Time_Shift_16
Note_On_50_Vel_0
Time_Shift_23
Note_On_59_Vel_0
Time_Shift_69
Note_On_53_Vel_0
Time_Shift_40
Note_On_61_Vel_60
Time_Shift_1
Note_On_51_Vel_54
Time_Shift_19
Note_On_63_Vel_0
Time_Shift_1
Note_On_39_Vel_0
Time_Shift_5
Note_On_51_Vel_0
Time_Shift_26
Note_On_61_Vel_0
Time_Shift_215
Note_On_70_Vel_0
Time_Shift_11
Note_On_70_Vel_54
Time_Shift_1
Note_On_61_Vel_54
Time_Shift_1
Note_On_51_Vel_50
Time_Shift_4
Note_On_55_Vel_35
Time_Shift_28
Note_On_55_Vel_0
Time_Shift_17
Note_On_61_Vel_0
Time_Shift_15
Note_On_51_Vel_0
Time_Shift_166
Note_On_44_Vel_51
Time_Shift_2
Note_On_72_Vel_69
Time_Shift_9
Note_On_68_Vel_61
Time_Shift_15
Sustain_On
Time_Shift_233
Note_On_60_Vel_54
Time_Shift_15
Note_On_56_Vel_50
Time_Shift_2
Note_On_51_Vel_42
Time_Shift_80
Note_On_70_Vel_0
Time_Shift_7
Note_On_70_Vel_71
Time_Shift_2
Note_On_63_Vel_70
Time_Shift_83
Note_On_68_Vel_0
Time_Shift_8
Note_On_68_Vel_75
Note_On_51_Vel_0
Note_On_56_Vel_0
Note_On_60_Vel_0
Time_Shift_11
Note_On_60_Vel_55
Note_On_56_Vel_66
Note_On_51_Vel_61
Time_Shift_158
Note_On_51_Vel_0
Note_On_68_Vel_0
Time_Shift_4
Note_On_51_Vel_45
Time_Shift_4
Note_On_68_Vel_55
Note_On_56_Vel_0
Note_On_60_Vel_0
Time_Shift_6
Note_On_56_Vel_49
Time_Shift_4
Note_On_60_Vel_42
Time_Shift_70
Note_On_44_Vel_0
Note_On_56_Vel_0
Note_On_51_Vel_0
Note_On_68_Vel_0
Note_On_72_Vel_0
Time_Shift_1
Note_On_70_Vel_0
Note_On_60_Vel_0
Time_Shift_6
Sustain_Off
Time_Shift_1
Note_On_65_Vel_68
Time_Shift_4
Note_On_63_Vel_0
Time_Shift_1
Note_On_61_Vel_63
Time_Shift_58
Note_On_63_Vel_69
Time_Shift_2
Sustain_On
Time_Shift_3
Note_On_39_Vel_56
Time_Shift_6
Note_On_55_Vel_65
Time_Shift_103
Note_On_51_Vel_48
Time_Shift_11
Note_On_63_Vel_0
Time_Shift_6
Note_On_63_Vel_50
Time_Shift_40
Note_On_61_Vel_0
Time_Shift_8
Note_On_61_Vel_52
Time_Shift_8
Note_On_55_Vel_0
Time_Shift_4
Note_On_55_Vel_43
Time_Shift_57
Note_On_65_Vel_0
Note_On_39_Vel_0
Time_Shift_1
Note_On_63_Vel_0
Time_Shift_5
Sustain_Off
Time_Shift_2
Note_On_51_Vel_0
Note_On_55_Vel_0
Note_On_61_Vel_0
Time_Shift_3
Note_On_39_Vel_46
Time_Shift_1
Note_On_55_Vel_46
Time_Shift_1
Note_On_61_Vel_57
Time_Shift_1
Note_On_51_Vel_52
Note_On_58_Vel_48
Time_Shift_35
Note_On_51_Vel_0
Time_Shift_5
Note_On_39_Vel_0
Time_Shift_8
Note_On_58_Vel_0
Note_On_61_Vel_0
Time_Shift_35
Note_On_77_Vel_73
Time_Shift_1
Note_On_67_Vel_70
Time_Shift_31
Note_On_67_Vel_0
Time_Shift_2
Note_On_55_Vel_0
Time_Shift_40
Note_On_77_Vel_0
Time_Shift_18
Note_On_75_Vel_77
Time_Shift_2
Note_On_61_Vel_45
Time_Shift_9
Note_On_61_Vel_0
Note_On_70_Vel_60
Time_Shift_2
Note_On_63_Vel_54
Time_Shift_5
Note_On_51_Vel_53
Time_Shift_11
Note_On_75_Vel_0
Time_Shift_28
Note_On_63_Vel_0
Note_On_70_Vel_0
Time_Shift_15
Note_On_51_Vel_0
Time_Shift_101
Note_On_56_Vel_33
Time_Shift_3
Note_On_67_Vel_34
Time_Shift_11
Note_On_51_Vel_31
Time_Shift_11
Note_On_61_Vel_35
Time_Shift_5
Note_On_61_Vel_0
Time_Shift_24
Note_On_73_Vel_71
Time_Shift_2
Note_On_63_Vel_55
Time_Shift_43
Note_On_67_Vel_0
Sustain_On
Time_Shift_15
Note_On_44_Vel_56
Time_Shift_12
Note_On_72_Vel_74
Note_On_68_Vel_65
Time_Shift_103
Note_On_44_Vel_0
Time_Shift_9
Note_On_44_Vel_46
Time_Shift_99
Note_On_44_Vel_0
Note_On_51_Vel_0
Time_Shift_5
Note_On_44_Vel_56
Time_Shift_2
Note_On_51_Vel_61
Time_Shift_1
Note_On_56_Vel_0
Time_Shift_4
Note_On_56_Vel_62
Time_Shift_83
Note_On_60_Vel_61
Time_Shift_1
Note_On_70_Vel_72
Time_Shift_73
Note_On_68_Vel_0
Time_Shift_10
Note_On_68_Vel_73
Time_Shift_5
Note_On_63_Vel_0
Time_Shift_7
Note_On_63_Vel_57
Time_Shift_16
Note_On_51_Vel_0
Note_On_56_Vel_0
Note_On_60_Vel_0
Time_Shift_4
Note_On_60_Vel_52
Time_Shift_8
Note_On_51_Vel_55
Note_On_56_Vel_35
Time_Shift_219
Note_On_68_Vel_0
Time_Shift_2
Note_On_65_Vel_75
Time_Shift_2
Note_On_68_Vel_55
Time_Shift_8
Note_On_56_Vel_0
Time_Shift_72
Note_On_70_Vel_0
Time_Shift_2
Note_On_73_Vel_0
Note_On_68_Vel_0
Note_On_60_Vel_0
Note_On_72_Vel_0
Note_On_44_Vel_0
Time_Shift_1
Note_On_65_Vel_0
Time_Shift_2
Note_On_70_Vel_74
Time_Shift_2
Sustain_Off
Time_Shift_1
Note_On_51_Vel_0
Note_On_63_Vel_0
Time_Shift_3
Note_On_37_Vel_67
Time_Shift_1
Note_On_63_Vel_64
Time_Shift_1
Note_On_61_Vel_58
Time_Shift_5
Note_On_49_Vel_66
Time_Shift_67
Sustain_On
Time_Shift_184
Note_On_37_Vel_0
Time_Shift_23
Note_On_63_Vel_0
Time_Shift_5
Note_On_51_Vel_57
Time_Shift_4
Note_On_63_Vel_55
Time_Shift_1
Note_On_55_Vel_59
Time_Shift_205
Note_On_63_Vel_0
Time_Shift_8
Note_On_51_Vel_0
Note_On_55_Vel_0
Time_Shift_3
Note_On_63_Vel_73
Time_Shift_5
Note_On_49_Vel_0
Note_On_51_Vel_56
Note_On_55_Vel_61
Time_Shift_225
Note_On_55_Vel_0
Time_Shift_1
Note_On_63_Vel_0
Note_On_70_Vel_0
Note_On_51_Vel_0
Time_Shift_6
Sustain_Off
Time_Shift_3
Note_On_72_Vel_80
Time_Shift_9
Note_On_68_Vel_74
Time_Shift_1
Note_On_61_Vel_0
Time_Shift_4
Note_On_36_Vel_68
Time_Shift_1
Note_On_48_Vel_72
Time_Shift_30
Note_On_36_Vel_0
Time_Shift_19
Sustain_On
Time_Shift_23
Note_On_48_Vel_0
Time_Shift_86
Note_On_36_Vel_47
Time_Shift_3
Note_On_48_Vel_49
Time_Shift_71
Note_On_63_Vel_73
Time_Shift_4
Note_On_56_Vel_63
Time_Shift_2
Note_On_51_Vel_57
Time_Shift_61
Note_On_70_Vel_79
Time_Shift_11
Note_On_36_Vel_0
Note_On_63_Vel_0
Time_Shift_8
Note_On_63_Vel_76
Time_Shift_69
Note_On_51_Vel_0
Note_On_63_Vel_0
Note_On_68_Vel_0
Time_Shift_5
Note_On_68_Vel_88
Time_Shift_1
Note_On_51_Vel_76
Time_Shift_2
Note_On_56_Vel_0
Time_Shift_3
Note_On_63_Vel_80
Time_Shift_1
Note_On_60_Vel_70
Time_Shift_2
Note_On_56_Vel_72
Time_Shift_203
Note_On_65_Vel_84
Time_Shift_1
Note_On_61_Vel_74
Time_Shift_1
Note_On_56_Vel_0
Note_On_70_Vel_0
Note_On_68_Vel_0
Time_Shift_1
Note_On_60_Vel_0
Note_On_72_Vel_0
Sustain_Off
Time_Shift_3
Note_On_48_Vel_0
Time_Shift_7
Note_On_51_Vel_0
Note_On_63_Vel_0
Time_Shift_46
Sustain_On
Time_Shift_4
Note_On_46_Vel_87
Time_Shift_1
Note_On_63_Vel_84
Time_Shift_1
Note_On_34_Vel_78
Time_Shift_6
Note_On_55_Vel_73
Time_Shift_242
Note_On_63_Vel_0
Time_Shift_5
Note_On_63_Vel_84
Time_Shift_8
Note_On_51_Vel_63
Time_Shift_2
Note_On_55_Vel_0
Note_On_61_Vel_0
Time_Shift_6
Note_On_55_Vel_55
Time_Shift_1
Note_On_61_Vel_71
Time_Shift_60
Note_On_89_Vel_90
Time_Shift_3
Note_On_79_Vel_86
Time_Shift_75
Note_On_87_Vel_88
Time_Shift_1
Note_On_61_Vel_0
Note_On_63_Vel_0
Time_Shift_3
Note_On_82_Vel_84
Time_Shift_4
Note_On_63_Vel_79
Time_Shift_1
Note_On_51_Vel_0
Time_Shift_2
Note_On_61_Vel_71
Time_Shift_8
Note_On_51_Vel_62
Time_Shift_97
Note_On_51_Vel_0
Note_On_63_Vel_0
Time_Shift_4
Note_On_63_Vel_63
Time_Shift_4
Note_On_51_Vel_50
Time_Shift_58
Note_On_75_Vel_90
Time_Shift_2
Note_On_85_Vel_77
Time_Shift_16
Sustain_Off
Time_Shift_2
Note_On_55_Vel_0
Time_Shift_1
Note_On_87_Vel_0
Time_Shift_1
Note_On_61_Vel_0
Note_On_51_Vel_0
Note_On_63_Vel_0
Time_Shift_4
Note_On_46_Vel_0
Note_On_65_Vel_0
Time_Shift_8
Note_On_34_Vel_0
Note_On_79_Vel_0
Time_Shift_8
Note_On_82_Vel_0
Note_On_89_Vel_0
Time_Shift_19
Note_On_84_Vel_92
Note_On_44_Vel_87
Time_Shift_1
Note_On_32_Vel_73
Time_Shift_3
Note_On_80_Vel_89
Time_Shift_8
Sustain_On
Time_Shift_210
Note_On_63_Vel_86
Time_Shift_1
Note_On_56_Vel_68
Time_Shift_3
Note_On_51_Vel_67
Time_Shift_54
Note_On_72_Vel_87
Time_Shift_2
Note_On_82_Vel_89
Time_Shift_75
Note_On_75_Vel_0
Note_On_80_Vel_0
Time_Shift_5
Note_On_80_Vel_92
Time_Shift_1
Note_On_75_Vel_91
Time_Shift_2
Note_On_63_Vel_0
Time_Shift_8
Note_On_51_Vel_0
Note_On_56_Vel_0
Time_Shift_2
Note_On_63_Vel_90
Time_Shift_2
Note_On_51_Vel_73
Note_On_56_Vel_54
Time_Shift_215
Note_On_77_Vel_85
Time_Shift_53
Note_On_44_Vel_0
Time_Shift_1
Note_On_51_Vel_0
Note_On_82_Vel_0
Time_Shift_1
Note_On_84_Vel_0
Note_On_63_Vel_0
Time_Shift_1
Note_On_56_Vel_0
Time_Shift_1
Note_On_85_Vel_0
Time_Shift_1
Note_On_72_Vel_0
Time_Shift_1
Note_On_32_Vel_0
Time_Shift_1
Sustain_Off
Time_Shift_3
Note_On_77_Vel_0
Time_Shift_2
Note_On_80_Vel_0
Time_Shift_6
Note_On_42_Vel_86
Time_Shift_1
Note_On_75_Vel_0
Time_Shift_3
Note_On_68_Vel_97
Note_On_30_Vel_73
Time_Shift_1
Note_On_80_Vel_93
Note_On_75_Vel_84
Time_Shift_65
Sustain_On
Time_Shift_47
Note_On_30_Vel_0
Time_Shift_144
Note_On_63_Vel_77
Time_Shift_10
Note_On_54_Vel_53
Note_On_56_Vel_68
Time_Shift_2
Note_On_60_Vel_69
Time_Shift_181
Note_On_56_Vel_0
Note_On_63_Vel_0
Note_On_68_Vel_0
Time_Shift_6
Note_On_63_Vel_86
Time_Shift_2
Note_On_54_Vel_0
Note_On_60_Vel_0
Time_Shift_1
Note_On_68_Vel_71
Time_Shift_1
Note_On_56_Vel_66
Time_Shift_5
Note_On_60_Vel_55
Time_Shift_3
Note_On_54_Vel_60
Time_Shift_156
Note_On_56_Vel_0
Time_Shift_1
Note_On_54_Vel_0
Note_On_80_Vel_0
Note_On_68_Vel_0
Note_On_63_Vel_0
Time_Shift_1
Note_On_60_Vel_0
Note_On_75_Vel_0
Time_Shift_3
Sustain_Off
Time_Shift_6
Note_On_42_Vel_0
Time_Shift_45
Note_On_68_Vel_97
Time_Shift_2
Note_On_41_Vel_85
Note_On_80_Vel_93
Time_Shift_1
Note_On_77_Vel_82
Time_Shift_29
Sustain_On
Time_Shift_187
Note_On_65_Vel_81
Time_Shift_3
Note_On_53_Vel_62
Time_Shift_3
Note_On_56_Vel_72
Time_Shift_2
Note_On_61_Vel_61
Time_Shift_43
Note_On_68_Vel_0
Time_Shift_6
Note_On_68_Vel_95
Time_Shift_3
Note_On_75_Vel_82
Time_Shift_83
Note_On_65_Vel_0
Note_On_80_Vel_0
Time_Shift_6
Note_On_80_Vel_95
Time_Shift_2
Note_On_56_Vel_0
Note_On_61_Vel_0
Note_On_68_Vel_0
Time_Shift_3
Note_On_65_Vel_74
Time_Shift_1
Note_On_73_Vel_77
Note_On_68_Vel_85
Note_On_61_Vel_71
Time_Shift_3
Note_On_56_Vel_74
Time_Shift_176
Note_On_70_Vel_79
Time_Shift_4
Note_On_78_Vel_63
Time_Shift_35
Note_On_41_Vel_0
Time_Shift_5
Note_On_80_Vel_0
Note_On_61_Vel_0
Note_On_73_Vel_0
Time_Shift_1
Note_On_75_Vel_0
Note_On_77_Vel_0
Note_On_53_Vel_0
Note_On_56_Vel_0
Note_On_70_Vel_0
Time_Shift_2
Sustain_Off
Time_Shift_15
Note_On_65_Vel_0
Time_Shift_8
Note_On_68_Vel_0
Time_Shift_4
Note_On_27_Vel_91
Note_On_68_Vel_95
Time_Shift_2
Note_On_80_Vel_91
Time_Shift_1
Note_On_39_Vel_96
Time_Shift_1
Note_On_78_Vel_0
Time_Shift_4
Note_On_72_Vel_85
Note_On_78_Vel_85
Time_Shift_42
Sustain_On
Time_Shift_146
Note_On_27_Vel_0
Time_Shift_34
Note_On_66_Vel_89
Time_Shift_8
Note_On_56_Vel_68
Time_Shift_1
Note_On_60_Vel_63
Time_Shift_60
Note_On_94_Vel_90
Note_On_84_Vel_89
Time_Shift_58
Note_On_66_Vel_0
Note_On_68_Vel_0
Time_Shift_8
Note_On_56_Vel_0
Note_On_68_Vel_89
Time_Shift_1
Note_On_66_Vel_92
Time_Shift_2
Note_On_92_Vel_91
Time_Shift_7
Note_On_56_Vel_75
Time_Shift_2
Note_On_87_Vel_79
Time_Shift_149
Note_On_80_Vel_0
Time_Shift_9
Note_On_80_Vel_79
Time_Shift_5
Note_On_90_Vel_81
Time_Shift_7
Note_On_72_Vel_0
Note_On_87_Vel_0
Note_On_56_Vel_0
Note_On_68_Vel_0
Time_Shift_1
Note_On_94_Vel_0
Note_On_60_Vel_0
Note_On_84_Vel_0
Note_On_92_Vel_0
Time_Shift_1
Note_On_66_Vel_0
Note_On_78_Vel_0
Time_Shift_1
Sustain_Off
Time_Shift_7
Note_On_39_Vel_0
Time_Shift_26
Note_On_37_Vel_97
Time_Shift_1
Note_On_89_Vel_87
Time_Shift_2
Note_On_25_Vel_85
Time_Shift_24
Sustain_On
Time_Shift_23
Note_On_25_Vel_0
Time_Shift_147
Note_On_65_Vel_88
Time_Shift_6
Note_On_61_Vel_55
Time_Shift_2
Note_On_53_Vel_65
Time_Shift_1
Note_On_56_Vel_61
Time_Shift_13
Note_On_90_Vel_0
Time_Shift_47
Note_On_87_Vel_88
Time_Shift_1
Note_On_77_Vel_83
Time_Shift_68
Note_On_80_Vel_0
Time_Shift_3
Note_On_85_Vel_91
Time_Shift_4
Note_On_61_Vel_0
Time_Shift_3
Note_On_80_Vel_92
Time_Shift_5
Note_On_65_Vel_0
Time_Shift_4
Note_On_61_Vel_67
Time_Shift_4
Note_On_53_Vel_0
Note_On_56_Vel_0
Note_On_65_Vel_77
Time_Shift_8
Note_On_53_Vel_63
Time_Shift_2
Note_On_56_Vel_67
Time_Shift_174
Note_On_80_Vel_0
Time_Shift_4
Note_On_68_Vel_95
Time_Shift_3
Note_On_80_Vel_77
Time_Shift_25
Note_On_87_Vel_0
Time_Shift_1
Note_On_89_Vel_0
Note_On_56_Vel_0
Note_On_85_Vel_0
Time_Shift_1
Note_On_53_Vel_0
Note_On_61_Vel_0
Note_On_77_Vel_0
Note_On_68_Vel_0
Time_Shift_3
Sustain_Off
Time_Shift_9
Note_On_37_Vel_0
Time_Shift_8
Note_On_65_Vel_0
Note_On_80_Vel_0
Time_Shift_33
Note_On_81_Vel_94
Time_Shift_1
Note_On_69_Vel_90
Note_On_76_Vel_88
Time_Shift_1
Note_On_43_Vel_68
Time_Shift_5
Note_On_31_Vel_68
Time_Shift_13
Sustain_On
Time_Shift_227
Note_On_61_Vel_60
Time_Shift_1
Note_On_67_Vel_48
Time_Shift_1
Note_On_64_Vel_65
Time_Shift_1
Note_On_55_Vel_52
Time_Shift_4
Note_On_57_Vel_59
Time_Shift_158
Note_On_55_Vel_0
Note_On_57_Vel_0
Note_On_61_Vel_0
Note_On_64_Vel_0
Note_On_67_Vel_0
Note_On_69_Vel_0
Time_Shift_5
Note_On_67_Vel_71
Time_Shift_1
Note_On_64_Vel_66
Time_Shift_4
Note_On_69_Vel_68
Note_On_57_Vel_70
Note_On_55_Vel_69
Time_Shift_1
Note_On_61_Vel_66
Time_Shift_204
Sustain_Off
Note_On_81_Vel_0
Time_Shift_1
Note_On_64_Vel_0
Note_On_57_Vel_0
Note_On_61_Vel_0
Note_On_55_Vel_0
Time_Shift_1
Note_On_76_Vel_0
Time_Shift_6
Note_On_31_Vel_0
Note_On_69_Vel_0
Time_Shift_4
Note_On_81_Vel_86
Time_Shift_2
Note_On_69_Vel_75
Time_Shift_2
Note_On_43_Vel_0
Note_On_67_Vel_0
Time_Shift_3
Note_On_42_Vel_67
Note_On_78_Vel_76
Time_Shift_1
Note_On_30_Vel_59
Time_Shift_42
Note_On_30_Vel_0
Time_Shift_30
Sustain_On
Time_Shift_139
Note_On_66_Vel_77
Time_Shift_19
Note_On_57_Vel_57
Time_Shift_5
Note_On_62_Vel_47
Time_Shift_29
Note_On_69_Vel_0
Note_On_81_Vel_0
Time_Shift_5
Note_On_69_Vel_85
Note_On_76_Vel_81
Time_Shift_1
Note_On_81_Vel_86
Time_Shift_94
Note_On_66_Vel_0
Note_On_69_Vel_0
Note_On_81_Vel_0
Time_Shift_5
Note_On_66_Vel_74
Note_On_69_Vel_75
Time_Shift_1
Note_On_81_Vel_76
Time_Shift_2
Note_On_57_Vel_0
Time_Shift_3
Note_On_54_Vel_67
Note_On_74_Vel_70
Time_Shift_1
Note_On_57_Vel_56
Time_Shift_134
Note_On_74_Vel_0
Time_Shift_6
Note_On_82_Vel_92
Time_Shift_2
Note_On_70_Vel_82
Time_Shift_3
Note_On_74_Vel_79
Note_On_77_Vel_62
Time_Shift_11
Note_On_69_Vel_0
Time_Shift_4
Note_On_81_Vel_0
Note_On_66_Vel_0
Note_On_54_Vel_0
Time_Shift_1
Note_On_76_Vel_0
Time_Shift_1
Note_On_78_Vel_0
Sustain_Off
Time_Shift_3
Note_On_42_Vel_0
Time_Shift_1
Note_On_70_Vel_0
Time_Shift_6
Note_On_57_Vel_0
Note_On_62_Vel_0
Time_Shift_16
Note_On_74_Vel_0
Note_On_77_Vel_0
Note_On_82_Vel_0
Time_Shift_35
Note_On_82_Vel_93
Time_Shift_2
Note_On_70_Vel_92
Time_Shift_4
Note_On_32_Vel_71
Time_Shift_1
Note_On_44_Vel_84
Note_On_77_Vel_74
Time_Shift_1
Note_On_74_Vel_70
Time_Shift_11
Sustain_On
Time_Shift_189
Note_On_65_Vel_86
Time_Shift_5
Note_On_56_Vel_78
Time_Shift_2
Note_On_62_Vel_58
Time_Shift_57
Note_On_74_Vel_0
Time_Shift_8
Note_On_83_Vel_92
Time_Shift_2
Note_On_71_Vel_91
Note_On_74_Vel_76
Time_Shift_50
Note_On_62_Vel_0
Time_Shift_1
Note_On_82_Vel_0
Note_On_56_Vel_0
Note_On_65_Vel_0
Time_Shift_1
Sustain_Off
Note_On_70_Vel_0
Time_Shift_2
Note_On_77_Vel_0
Time_Shift_1
Note_On_83_Vel_0
Note_On_74_Vel_0
Time_Shift_4
Note_On_32_Vel_0
Time_Shift_8
Note_On_44_Vel_0
Time_Shift_23
Note_On_71_Vel_0
Time_Shift_5
Note_On_71_Vel_96
Note_On_83_Vel_88
Time_Shift_3
Note_On_78_Vel_82
Time_Shift_1
Note_On_42_Vel_91
Time_Shift_1
Note_On_30_Vel_83
Time_Shift_5
Sustain_On
Time_Shift_115
Note_On_30_Vel_0
Time_Shift_19
Note_On_71_Vel_0
Note_On_83_Vel_0
Time_Shift_1
Note_On_78_Vel_0
Time_Shift_2
Sustain_Off
Time_Shift_9
Note_On_42_Vel_0
Time_Shift_42
Note_On_41_Vel_99
Time_Shift_2
Note_On_83_Vel_96
Time_Shift_2
Note_On_71_Vel_98
Note_On_29_Vel_79
Time_Shift_2
Note_On_75_Vel_85
Time_Shift_2
Note_On_79_Vel_85
Time_Shift_19
Sustain_On
Time_Shift_16
Note_On_29_Vel_0
Time_Shift_179
Note_On_63_Vel_92
Time_Shift_1
Note_On_67_Vel_90
Time_Shift_1
Note_On_60_Vel_69
Time_Shift_4
Note_On_55_Vel_76
Time_Shift_83
Note_On_71_Vel_0
Note_On_83_Vel_0
Time_Shift_6
Note_On_83_Vel_90
Time_Shift_2
Note_On_75_Vel_0
Note_On_79_Vel_0
Note_On_71_Vel_83
Time_Shift_8
Note_On_79_Vel_75
Time_Shift_3
Note_On_75_Vel_76
Note_On_74_Vel_73
Time_Shift_104
Note_On_83_Vel_0
Time_Shift_4
Note_On_67_Vel_0
Time_Shift_1
Sustain_Off
Time_Shift_2
Note_On_79_Vel_0
Note_On_75_Vel_0
Time_Shift_1
Note_On_71_Vel_0
Time_Shift_1
Note_On_60_Vel_0
Time_Shift_2
Note_On_83_Vel_93
Time_Shift_1
Note_On_28_Vel_92
Note_On_40_Vel_92
Time_Shift_1
Note_On_71_Vel_94
Time_Shift_6
Note_On_80_Vel_92
Time_Shift_4
Note_On_41_Vel_0
Time_Shift_8
Note_On_55_Vel_0
Note_On_63_Vel_0
Time_Shift_12
Note_On_40_Vel_0
Time_Shift_11
Note_On_74_Vel_0
Note_On_83_Vel_0
Time_Shift_23
Note_On_71_Vel_0
Time_Shift_39
Note_On_28_Vel_0
Time_Shift_176
Note_On_80_Vel_0
Time_Shift_51
Note_On_87_Vel_92
Time_Shift_2
Note_On_75_Vel_98
Time_Shift_1
Note_On_39_Vel_90
Time_Shift_4
Note_On_27_Vel_85
Time_Shift_27
Sustain_On
Time_Shift_249
Note_On_67_Vel_75
Time_Shift_1
Note_On_75_Vel_0
Note_On_61_Vel_61
Time_Shift_3
Note_On_87_Vel_0
Time_Shift_3
Sustain_Off
Time_Shift_74
Note_On_73_Vel_78
Time_Shift_38
Note_On_27_Vel_0
Time_Shift_23
Sustain_On
Time_Shift_27
Note_On_63_Vel_49
Time_Shift_1
Note_On_79_Vel_84
Time_Shift_52
Note_On_73_Vel_0
Time_Shift_9
Note_On_79_Vel_0
Time_Shift_3
Note_On_67_Vel_0
Time_Shift_8
Note_On_61_Vel_0
Time_Shift_4
Sustain_Off
Time_Shift_15
Note_On_89_Vel_78
Time_Shift_20
Note_On_63_Vel_0
Time_Shift_18
Note_On_89_Vel_0
Time_Shift_48
Note_On_86_Vel_73
Time_Shift_3
Note_On_63_Vel_49
Time_Shift_51
Note_On_86_Vel_0
Time_Shift_8
Note_On_87_Vel_81
Time_Shift_17
Note_On_39_Vel_0
Time_Shift_20
Note_On_87_Vel_0
Time_Shift_19
Note_On_63_Vel_0
Time_Shift_31
Note_On_89_Vel_71
Time_Shift_3
Note_On_68_Vel_69
Note_On_61_Vel_58
Time_Shift_17
Note_On_68_Vel_0
Time_Shift_8
Note_On_89_Vel_0
Time_Shift_18
Note_On_61_Vel_0
Time_Shift_19
Note_On_87_Vel_78
Time_Shift_46
Note_On_87_Vel_0
Time_Shift_19
Note_On_92_Vel_76
Time_Shift_20
Note_On_60_Vel_54
Time_Shift_7
Note_On_68_Vel_59
Time_Shift_32
Note_On_68_Vel_0
Time_Shift_4
Note_On_82_Vel_60
Time_Shift_6
Note_On_60_Vel_0
Note_On_82_Vel_0
Time_Shift_9
Note_On_80_Vel_71
Time_Shift_22
Note_On_92_Vel_0
Time_Shift_4
Note_On_80_Vel_0
Time_Shift_34
Note_On_90_Vel_65
Time_Shift_27
Note_On_89_Vel_69
Time_Shift_1
Note_On_51_Vel_57
Time_Shift_3
Sustain_On
Time_Shift_50
Note_On_87_Vel_82
Time_Shift_8
Sustain_Off
Time_Shift_14
Note_On_89_Vel_0
Time_Shift_13
Note_On_51_Vel_0
Note_On_90_Vel_0
Time_Shift_43
Note_On_85_Vel_79
Time_Shift_6
Note_On_87_Vel_0
Time_Shift_16
Note_On_61_Vel_57
Time_Shift_1
Note_On_67_Vel_50
Time_Shift_15
Note_On_85_Vel_0
Time_Shift_31
Note_On_79_Vel_84
Time_Shift_3
Note_On_61_Vel_0
Note_On_67_Vel_0
Time_Shift_34
Note_On_79_Vel_0
Time_Shift_29
Note_On_77_Vel_78
Time_Shift_9
Note_On_61_Vel_66
Time_Shift_12
Note_On_68_Vel_50
Note_On_67_Vel_50
Time_Shift_8
Note_On_68_Vel_0
Time_Shift_16
Note_On_61_Vel_0
Time_Shift_3
Note_On_77_Vel_0
Time_Shift_25
Note_On_75_Vel_76
Time_Shift_10
Note_On_67_Vel_0
Time_Shift_22
Note_On_75_Vel_0
Time_Shift_36
Note_On_74_Vel_78
Time_Shift_22
Note_On_60_Vel_48
Time_Shift_6
Note_On_63_Vel_51
Time_Shift_1
Note_On_51_Vel_57
Time_Shift_5
Note_On_63_Vel_0
Time_Shift_28
Note_On_75_Vel_88
Time_Shift_3
Note_On_74_Vel_0
Time_Shift_15
Note_On_60_Vel_0
Time_Shift_23
Note_On_51_Vel_0
Time_Shift_16
Note_On_75_Vel_0
Time_Shift_16
Note_On_77_Vel_76
Time_Shift_20
Note_On_63_Vel_65
Time_Shift_2
Note_On_60_Vel_62
Time_Shift_19
Note_On_77_Vel_0
Time_Shift_12
Note_On_63_Vel_0
Time_Shift_15
Note_On_60_Vel_0
Time_Shift_4
Note_On_75_Vel_80
Time_Shift_40
Note_On_75_Vel_0
Time_Shift_34
Note_On_80_Vel_76
Time_Shift_3
Note_On_60_Vel_70
Time_Shift_30
Note_On_60_Vel_0
Time_Shift_26
Note_On_68_Vel_73
Time_Shift_12
Note_On_80_Vel_0
Time_Shift_9
Note_On_68_Vel_0
Time_Shift_53
Note_On_51_Vel_73
Note_On_67_Vel_80
Time_Shift_4
Sustain_On
Time_Shift_65
Note_On_73_Vel_83
Time_Shift_8
Note_On_67_Vel_0
Time_Shift_2
Note_On_51_Vel_0
Time_Shift_6
Sustain_Off
Time_Shift_46
Note_On_73_Vel_0
Time_Shift_8
Note_On_75_Vel_82
Time_Shift_8
Note_On_61_Vel_65
Time_Shift_3
Note_On_67_Vel_66
Time_Shift_21
Note_On_75_Vel_0
Time_Shift_6
Note_On_61_Vel_0
Time_Shift_19
Note_On_67_Vel_0
Time_Shift_17
Note_On_79_Vel_86
Time_Shift_43
Note_On_79_Vel_0
Time_Shift_18
Note_On_61_Vel_71
Time_Shift_1
Note_On_67_Vel_70
Time_Shift_1
Note_On_63_Vel_66
Time_Shift_1
Note_On_85_Vel_84
Time_Shift_23
Note_On_67_Vel_0
Time_Shift_4
Note_On_61_Vel_0
Time_Shift_3
Note_On_63_Vel_0
Time_Shift_39
Note_On_85_Vel_0
Time_Shift_8
Note_On_89_Vel_83
Time_Shift_49
Sustain_On
Time_Shift_8
Sustain_Off
Time_Shift_5
Note_On_51_Vel_75
Time_Shift_9
Note_On_86_Vel_86
Time_Shift_5
Note_On_89_Vel_0
Time_Shift_59
Note_On_87_Vel_89
Time_Shift_3
Note_On_86_Vel_0
Time_Shift_3
Note_On_51_Vel_0
Time_Shift_53
Note_On_87_Vel_0
Time_Shift_11
Note_On_89_Vel_86
Note_On_72_Vel_83
Time_Shift_6
Note_On_63_Vel_68
Time_Shift_28
Note_On_72_Vel_0
Time_Shift_18
Note_On_63_Vel_0
Time_Shift_16
Note_On_87_Vel_87
Time_Shift_30
Note_On_89_Vel_0
Time_Shift_26
Note_On_87_Vel_0
Time_Shift_10
Note_On_96_Vel_98
Time_Shift_13
Note_On_57_Vel_71
Time_Shift_28
Note_On_57_Vel_0
Time_Shift_15
Sustain_On
Time_Shift_10
Note_On_84_Vel_87
Time_Shift_57
Note_On_84_Vel_0
Time_Shift_9
Note_On_89_Vel_95
Time_Shift_9
Note_On_58_Vel_66
Time_Shift_65
Note_On_87_Vel_96
Time_Shift_33
Note_On_89_Vel_0
Time_Shift_1
Note_On_96_Vel_0
Time_Shift_14
Sustain_Off
Time_Shift_9
Note_On_58_Vel_0
Time_Shift_16
Note_On_85_Vel_91
Time_Shift_2
Note_On_63_Vel_66
Time_Shift_13
Note_On_87_Vel_0
Time_Shift_1
Note_On_58_Vel_40
Time_Shift_11
Note_On_63_Vel_0
Time_Shift_7
Note_On_85_Vel_0
Time_Shift_19
Note_On_58_Vel_0
Time_Shift_8
Note_On_79_Vel_92
Time_Shift_34
Note_On_79_Vel_0
Time_Shift_36
Note_On_77_Vel_88
Time_Shift_2
Note_On_51_Vel_88
Time_Shift_66
Note_On_75_Vel_94
Time_Shift_8
Sustain_On
Time_Shift_12
Sustain_Off
Time_Shift_46
Note_On_77_Vel_0
Time_Shift_3
Note_On_51_Vel_0
Time_Shift_3
Note_On_73_Vel_98
Note_On_56_Vel_83
Time_Shift_1
Note_On_51_Vel_60
Time_Shift_8
Note_On_75_Vel_0
Time_Shift_22
Note_On_56_Vel_0
Time_Shift_16
Note_On_73_Vel_0
Time_Shift_4
Note_On_51_Vel_0
Time_Shift_12
Note_On_72_Vel_84
Time_Shift_47
Note_On_72_Vel_0
Time_Shift_29
Note_On_70_Vel_84
Note_On_60_Vel_66
Time_Shift_1
Note_On_63_Vel_70
Time_Shift_29
Note_On_60_Vel_0
Time_Shift_20
Note_On_63_Vel_0
Time_Shift_11
Note_On_70_Vel_0
Note_On_68_Vel_87
Time_Shift_64
Note_On_68_Vel_0
Time_Shift_7
Note_On_67_Vel_87
Time_Shift_1
Note_On_59_Vel_69
Time_Shift_12
Note_On_50_Vel_62
Time_Shift_17
Note_On_59_Vel_0
Time_Shift_6
Note_On_67_Vel_0
Time_Shift_8
Note_On_50_Vel_0
Time_Shift_23
Note_On_65_Vel_82
Time_Shift_46
Note_On_65_Vel_0
Time_Shift_24
Note_On_63_Vel_96
Time_Shift_1
Note_On_51_Vel_89
Time_Shift_34
Sustain_On
Time_Shift_32
Note_On_67_Vel_86
Time_Shift_15
Note_On_63_Vel_0
Time_Shift_9
Sustain_Off
Time_Shift_5
Note_On_51_Vel_0
Time_Shift_18
Note_On_67_Vel_0
Time_Shift_25
Note_On_73_Vel_88
Time_Shift_4
Note_On_61_Vel_79
Time_Shift_37
Note_On_61_Vel_0
Time_Shift_13
Note_On_73_Vel_0
Time_Shift_22
Note_On_75_Vel_77
Time_Shift_43
Note_On_75_Vel_0
Time_Shift_21
Note_On_63_Vel_65
Time_Shift_4
Note_On_61_Vel_69
Time_Shift_1
Note_On_79_Vel_86
Time_Shift_3
Note_On_67_Vel_63
Time_Shift_24
Note_On_63_Vel_0
Time_Shift_3
Note_On_67_Vel_0
Time_Shift_2
Note_On_79_Vel_0
Time_Shift_11
Note_On_61_Vel_0
Time_Shift_26
Note_On_89_Vel_81
Time_Shift_55
Note_On_89_Vel_0
Time_Shift_1
Note_On_39_Vel_68
Time_Shift_1
Note_On_51_Vel_82
Time_Shift_5
Note_On_86_Vel_93
Time_Shift_4
Note_On_39_Vel_0
Time_Shift_31
Sustain_On
Time_Shift_22
Note_On_87_Vel_92
Time_Shift_11
Note_On_86_Vel_0
Time_Shift_13
Note_On_51_Vel_0
Time_Shift_3
Sustain_Off
Time_Shift_35
Note_On_87_Vel_0
Time_Shift_12
Note_On_68_Vel_89
Note_On_89_Vel_83
Note_On_60_Vel_79
Time_Shift_23
Note_On_68_Vel_0
Time_Shift_2
Note_On_60_Vel_0
Time_Shift_25
Note_On_89_Vel_0
Time_Shift_9
Note_On_87_Vel_82
Time_Shift_71
Note_On_92_Vel_91
Time_Shift_4
Note_On_87_Vel_0
Time_Shift_1
Note_On_68_Vel_80
Time_Shift_10
Note_On_60_Vel_60
Time_Shift_16
Note_On_68_Vel_0
Time_Shift_32
Note_On_80_Vel_87
Time_Shift_18
Note_On_60_Vel_0
Note_On_92_Vel_0
Time_Shift_6
Note_On_80_Vel_0
Time_Shift_43
Note_On_51_Vel_90
Time_Shift_2
Note_On_89_Vel_96
Time_Shift_10
Sustain_On
Time_Shift_63
Note_On_87_Vel_93
Time_Shift_18
Sustain_Off
Time_Shift_1
Note_On_51_Vel_0
Time_Shift_3
Note_On_89_Vel_0
Time_Shift_45
Note_On_67_Vel_87
Time_Shift_3
Note_On_85_Vel_81
Time_Shift_2
Note_On_61_Vel_79
Time_Shift_5
Note_On_63_Vel_67
Time_Shift_6
Note_On_87_Vel_0
Time_Shift_12
Note_On_67_Vel_0
Time_Shift_2
Note_On_61_Vel_0
Time_Shift_12
Note_On_85_Vel_0
Time_Shift_12
Note_On_63_Vel_0
Time_Shift_17
Note_On_79_Vel_84
Time_Shift_36
Note_On_79_Vel_0
Time_Shift_24
Note_On_67_Vel_77
Time_Shift_1
Note_On_77_Vel_89
Time_Shift_2
Note_On_63_Vel_70
Note_On_61_Vel_79
Time_Shift_5
Note_On_63_Vel_0
Time_Shift_21
Note_On_67_Vel_0
Time_Shift_4
Note_On_61_Vel_0
Time_Shift_4
Note_On_77_Vel_0
Time_Shift_23
Note_On_75_Vel_88
Time_Shift_44
Note_On_75_Vel_0
Time_Shift_13
Note_On_74_Vel_91
Time_Shift_10
Note_On_51_Vel_87
Time_Shift_19
Note_On_74_Vel_0
Time_Shift_16
Sustain_On
Time_Shift_24
Note_On_75_Vel_85
Time_Shift_65
Note_On_77_Vel_85
Time_Shift_5
Note_On_68_Vel_91
Time_Shift_1
Note_On_63_Vel_78
Note_On_60_Vel_79
Time_Shift_66
Note_On_75_Vel_0
Time_Shift_6
Note_On_75_Vel_86
Time_Shift_48
Note_On_68_Vel_0
Time_Shift_6
Note_On_80_Vel_89
Time_Shift_5
Note_On_68_Vel_83
Time_Shift_4
Note_On_60_Vel_0
Note_On_63_Vel_0
Time_Shift_9
Note_On_60_Vel_54
Time_Shift_2
Note_On_63_Vel_62
Time_Shift_50
Note_On_68_Vel_0
Time_Shift_6
Note_On_68_Vel_87
Time_Shift_48
Note_On_63_Vel_0
Time_Shift_1
Note_On_60_Vel_0
Note_On_68_Vel_0
Note_On_77_Vel_0
Time_Shift_1
Note_On_80_Vel_0
Note_On_75_Vel_0
Time_Shift_2
Sustain_Off
Time_Shift_12
Note_On_51_Vel_0
Time_Shift_26
Note_On_67_Vel_95
Time_Shift_2
Note_On_51_Vel_98
Time_Shift_5
Note_On_39_Vel_91
Time_Shift_28
Sustain_On
Time_Shift_25
Note_On_73_Vel_88
Time_Shift_63
Note_On_77_Vel_83
Time_Shift_61
Note_On_75_Vel_92
Time_Shift_70
Note_On_79_Vel_87
Time_Shift_62
Note_On_85_Vel_86
Time_Shift_3
Note_On_58_Vel_73
Time_Shift_46
Note_On_67_Vel_0
Time_Shift_10
Note_On_89_Vel_92
Time_Shift_2
Note_On_67_Vel_71
Time_Shift_27
Note_On_73_Vel_0
Time_Shift_10
Note_On_73_Vel_94
Time_Shift_16
Note_On_87_Vel_83
Time_Shift_76
Note_On_91_Vel_90
Time_Shift_63
Note_On_97_Vel_95
Time_Shift_62
Note_On_101_Vel_96
Time_Shift_59
Note_On_99_Vel_93
Time_Shift_52
Note_On_97_Vel_0
Time_Shift_10
Note_On_97_Vel_96
Time_Shift_43
Note_On_91_Vel_0
Time_Shift_10
Note_On_91_Vel_88
Time_Shift_52
Note_On_89_Vel_0
Time_Shift_5
Note_On_89_Vel_89
Time_Shift_56
Note_On_87_Vel_0
Time_Shift_6
Note_On_87_Vel_86
Time_Shift_56
Note_On_85_Vel_0
Time_Shift_10
Note_On_85_Vel_85
Time_Shift_36
Note_On_39_Vel_0
Time_Shift_7
Note_On_79_Vel_0
Time_Shift_4
Note_On_39_Vel_46
Time_Shift_1
Note_On_79_Vel_84
Time_Shift_49
Note_On_77_Vel_0
Time_Shift_12
Note_On_77_Vel_81
Time_Shift_19
Note_On_39_Vel_0
Time_Shift_4
Note_On_39_Vel_56
Time_Shift_27
Note_On_75_Vel_0
Time_Shift_5
Note_On_75_Vel_86
Time_Shift_56
Note_On_73_Vel_0
Time_Shift_5
Note_On_73_Vel_83
Time_Shift_49
Note_On_67_Vel_0
Time_Shift_11
Note_On_67_Vel_69
Time_Shift_52
Note_On_65_Vel_74
Time_Shift_75
Note_On_63_Vel_76
Time_Shift_10
Note_On_51_Vel_0
Note_On_85_Vel_0
Note_On_87_Vel_0
Time_Shift_1
Note_On_65_Vel_0
Note_On_39_Vel_0
Note_On_73_Vel_0
Note_On_58_Vel_0
Note_On_75_Vel_0
Note_On_99_Vel_0
Note_On_89_Vel_0
Time_Shift_1
Note_On_91_Vel_0
Note_On_79_Vel_0
Note_On_101_Vel_0
Sustain_Off
Time_Shift_16
Note_On_63_Vel_0
Time_Shift_3
Note_On_67_Vel_0
Note_On_77_Vel_0
Note_On_97_Vel_0
Time_Shift_49
Note_On_72_Vel_76
Time_Shift_7
Note_On_44_Vel_56
Time_Shift_13
Note_On_68_Vel_48
Time_Shift_39
Note_On_72_Vel_0
Time_Shift_5
Note_On_62_Vel_68
Time_Shift_17
Note_On_44_Vel_0
Time_Shift_16
Note_On_68_Vel_0
Time_Shift_19
Note_On_62_Vel_0
Time_Shift_9
Note_On_63_Vel_69
Time_Shift_7
Note_On_60_Vel_59
Time_Shift_8
Note_On_51_Vel_52
Time_Shift_21
Note_On_63_Vel_0
Time_Shift_20
Note_On_60_Vel_0
Time_Shift_8
Note_On_51_Vel_0
Time_Shift_7
Note_On_72_Vel_71
Time_Shift_3
Note_On_68_Vel_63
Time_Shift_48
Note_On_72_Vel_0
Time_Shift_2
Note_On_52_Vel_73
Time_Shift_5
Note_On_60_Vel_66
Time_Shift_1
Note_On_68_Vel_0
Time_Shift_9
Note_On_63_Vel_75
Time_Shift_21
Note_On_60_Vel_0
Time_Shift_11
Sustain_On
Time_Shift_20
Note_On_64_Vel_77
Time_Shift_61
Note_On_44_Vel_70
Time_Shift_8
Sustain_Off
Time_Shift_2
Note_On_64_Vel_0
Time_Shift_2
Note_On_72_Vel_77
Time_Shift_1
Note_On_68_Vel_75
Time_Shift_2
Note_On_63_Vel_0
Time_Shift_4
Note_On_52_Vel_0
Time_Shift_36
Note_On_44_Vel_0
Time_Shift_4
Note_On_68_Vel_0
Time_Shift_3
Note_On_72_Vel_0
Time_Shift_31
Note_On_62_Vel_71
Time_Shift_37
Note_On_60_Vel_68
Time_Shift_8
Note_On_62_Vel_0
Note_On_51_Vel_59
Time_Shift_1
Note_On_63_Vel_76
Time_Shift_6
Note_On_56_Vel_59
Time_Shift_10
Note_On_60_Vel_0
Time_Shift_29
Note_On_63_Vel_0
Time_Shift_12
Note_On_51_Vel_0
Time_Shift_12
Note_On_72_Vel_75
Time_Shift_7
Note_On_68_Vel_69
Time_Shift_49
Note_On_71_Vel_76
Time_Shift_1
Note_On_56_Vel_0
Time_Shift_1
Note_On_52_Vel_80
Time_Shift_3
Note_On_56_Vel_67
Time_Shift_6
Note_On_63_Vel_80
Time_Shift_2
Note_On_72_Vel_0
Time_Shift_4
Note_On_68_Vel_0
Time_Shift_38
Sustain_On
Time_Shift_7
Note_On_56_Vel_0
Time_Shift_3
Note_On_64_Vel_80
Time_Shift_59
Note_On_52_Vel_0
Time_Shift_5
Note_On_64_Vel_0
Time_Shift_1
Sustain_Off
Time_Shift_1
Note_On_71_Vel_0
Time_Shift_8
Note_On_63_Vel_0
Time_Shift_3
Note_On_68_Vel_77
Time_Shift_2
Note_On_72_Vel_78
Time_Shift_45
Note_On_68_Vel_0
Time_Shift_12
Note_On_72_Vel_0
Time_Shift_19
Note_On_62_Vel_78
Time_Shift_51
Note_On_62_Vel_0
Note_On_63_Vel_77
Time_Shift_2
Note_On_60_Vel_68
Note_On_51_Vel_63
Time_Shift_8
Note_On_56_Vel_65
Time_Shift_22
Note_On_60_Vel_0
Time_Shift_3
Note_On_51_Vel_0
Time_Shift_12
Note_On_63_Vel_0
Time_Shift_23
Note_On_72_Vel_75
Time_Shift_2
Note_On_68_Vel_72
Time_Shift_50
Note_On_56_Vel_0
Time_Shift_1
Note_On_52_Vel_88
Time_Shift_3
Note_On_63_Vel_89
Time_Shift_4
Note_On_56_Vel_68
Time_Shift_30
Sustain_On
Time_Shift_20
Note_On_64_Vel_81
Time_Shift_60
Note_On_52_Vel_0
Time_Shift_1
Note_On_64_Vel_0
Time_Shift_1
Note_On_63_Vel_0
Time_Shift_4
Sustain_Off
Time_Shift_6
Note_On_56_Vel_0
Note_On_68_Vel_0
Note_On_72_Vel_0
Time_Shift_8
Note_On_68_Vel_74
Time_Shift_1
Note_On_56_Vel_67
Note_On_72_Vel_83
Time_Shift_59
Note_On_68_Vel_0
Time_Shift_6
Note_On_72_Vel_0
Time_Shift_5
Note_On_62_Vel_74
Time_Shift_13
Note_On_56_Vel_0
Time_Shift_42
Note_On_63_Vel_77
Note_On_60_Vel_73
Time_Shift_4
Note_On_62_Vel_0
Time_Shift_4
Note_On_56_Vel_67
Note_On_51_Vel_65
Time_Shift_22
Note_On_60_Vel_0
Time_Shift_15
Note_On_51_Vel_0
Note_On_63_Vel_0
Time_Shift_19
Note_On_72_Vel_80
Time_Shift_5
Note_On_68_Vel_80
Time_Shift_20
Note_On_56_Vel_0
Time_Shift_27
Note_On_52_Vel_74
Time_Shift_6
Note_On_71_Vel_71
Time_Shift_2
Note_On_56_Vel_66
Time_Shift_3
Note_On_63_Vel_78
Sustain_On
Time_Shift_2
Note_On_44_Vel_70
Time_Shift_56
Note_On_64_Vel_74
Time_Shift_39
Note_On_68_Vel_0
Note_On_72_Vel_0
Time_Shift_1
Note_On_44_Vel_0
Note_On_52_Vel_0
Note_On_63_Vel_0
Note_On_71_Vel_0
Time_Shift_1
Sustain_Off
Time_Shift_2
Note_On_56_Vel_0
Time_Shift_2
Note_On_64_Vel_0
Time_Shift_33
Note_On_56_Vel_71
Time_Shift_2
Note_On_68_Vel_80
Time_Shift_1
Note_On_72_Vel_76
Time_Shift_2
Note_On_51_Vel_49
Time_Shift_2
Note_On_44_Vel_65
Time_Shift_57
Sustain_On
Time_Shift_6
Note_On_62_Vel_80
Time_Shift_66
Note_On_63_Vel_80
Time_Shift_5
Note_On_51_Vel_0
Note_On_56_Vel_0
Time_Shift_2
Note_On_60_Vel_64
Time_Shift_6
Note_On_56_Vel_57
Time_Shift_2
Note_On_51_Vel_55
Time_Shift_44
Note_On_68_Vel_0
Note_On_72_Vel_0
Time_Shift_9
Note_On_72_Vel_80
Time_Shift_1
Note_On_68_Vel_79
Time_Shift_66
Note_On_51_Vel_0
Note_On_56_Vel_0
Note_On_60_Vel_0
Time_Shift_4
Note_On_60_Vel_77
Note_On_74_Vel_84
Time_Shift_5
Note_On_51_Vel_69
Time_Shift_2
Note_On_56_Vel_67
Time_Shift_47
Note_On_75_Vel_89
Time_Shift_65
Note_On_51_Vel_0
Note_On_56_Vel_0
Note_On_60_Vel_0
Time_Shift_8
Note_On_60_Vel_76
Note_On_84_Vel_89
Time_Shift_3
Note_On_51_Vel_75
Note_On_56_Vel_75
Time_Shift_7
Note_On_80_Vel_80
Time_Shift_44
Note_On_74_Vel_0
Time_Shift_10
Note_On_74_Vel_85
Time_Shift_43
Note_On_75_Vel_0
Time_Shift_5
Note_On_75_Vel_83
Time_Shift_11
Note_On_60_Vel_0
Note_On_63_Vel_0
Time_Shift_5
Note_On_63_Vel_77
Time_Shift_2
Note_On_56_Vel_0
Time_Shift_3
Note_On_60_Vel_83
Time_Shift_5
Note_On_51_Vel_0
Time_Shift_4
Note_On_56_Vel_80
Note_On_51_Vel_63
Time_Shift_35
Note_On_84_Vel_0
Time_Shift_4
Note_On_84_Vel_83
Time_Shift_3
Note_On_80_Vel_0
Time_Shift_9
Note_On_80_Vel_76
Time_Shift_60
Note_On_60_Vel_0
Note_On_74_Vel_0
Time_Shift_5
Note_On_74_Vel_85
Note_On_86_Vel_96
Time_Shift_3
Note_On_51_Vel_0
Note_On_56_Vel_0
Time_Shift_3
Note_On_60_Vel_85
Time_Shift_2
Note_On_56_Vel_74
Time_Shift_4
Note_On_51_Vel_72
Time_Shift_41
Note_On_87_Vel_90
Time_Shift_8
Note_On_56_Vel_0
Note_On_74_Vel_0
Note_On_75_Vel_0
Time_Shift_1
Note_On_84_Vel_0
Time_Shift_1
Note_On_51_Vel_0
Time_Shift_2
Note_On_72_Vel_0
Time_Shift_1
Note_On_60_Vel_0
Note_On_86_Vel_0
Time_Shift_1
Note_On_63_Vel_0
Sustain_Off
Time_Shift_5
Note_On_44_Vel_0
Note_On_62_Vel_0
Note_On_80_Vel_0
Time_Shift_8
Note_On_68_Vel_0
Time_Shift_23
Note_On_87_Vel_0
Time_Shift_11
Note_On_96_Vel_95
Time_Shift_6
Note_On_51_Vel_80
Time_Shift_1
Note_On_68_Vel_88
Time_Shift_1
Note_On_60_Vel_81
Time_Shift_1
Note_On_92_Vel_87
Time_Shift_1
Note_On_63_Vel_80
Note_On_56_Vel_72
Time_Shift_25
Sustain_On
Time_Shift_34
Note_On_87_Vel_85
Time_Shift_62
Note_On_84_Vel_74
Time_Shift_4
Note_On_60_Vel_0
Note_On_72_Vel_70
Time_Shift_4
Note_On_60_Vel_65
Time_Shift_3
Note_On_63_Vel_0
Time_Shift_11
Note_On_63_Vel_66
Time_Shift_55
Note_On_75_Vel_91
Time_Shift_34
Note_On_84_Vel_0
Time_Shift_10
Note_On_84_Vel_75
Time_Shift_18
Note_On_80_Vel_79
Time_Shift_41
Note_On_75_Vel_0
Time_Shift_6
Note_On_75_Vel_80
Time_Shift_56
Note_On_72_Vel_0
Time_Shift_5
Note_On_72_Vel_79
Time_Shift_56
Note_On_63_Vel_0
Time_Shift_7
Note_On_63_Vel_88
Time_Shift_39
Note_On_72_Vel_0
Time_Shift_10
Note_On_72_Vel_82
Time_Shift_13
Note_On_68_Vel_0
Time_Shift_4
Note_On_68_Vel_80
Time_Shift_66
Note_On_63_Vel_0
Time_Shift_5
Note_On_63_Vel_85
Time_Shift_41
Note_On_60_Vel_0
Time_Shift_9
Note_On_60_Vel_82
Time_Shift_75
Note_On_51_Vel_0
Time_Shift_4
Note_On_51_Vel_87
Time_Shift_45
Note_On_56_Vel_0
Time_Shift_1
Note_On_80_Vel_0
Note_On_51_Vel_0
Note_On_63_Vel_0
Note_On_87_Vel_0
Note_On_68_Vel_0
Note_On_75_Vel_0
Time_Shift_1
Sustain_Off
Note_On_92_Vel_0
Time_Shift_3
Note_On_96_Vel_0
Time_Shift_8
Note_On_60_Vel_0
Time_Shift_7
Note_On_72_Vel_0
Note_On_84_Vel_0
Time_Shift_20
Note_On_32_Vel_103
Time_Shift_34
Sustain_On
Time_Shift_161
Note_On_32_Vel_0
Time_Shift_183
Sustain_Off
Time_Shift_105
Note_On_92_Vel_104
Time_Shift_1
Note_On_87_Vel_92
Note_On_72_Vel_96
Time_Shift_1
Note_On_80_Vel_102
Time_Shift_2
Note_On_68_Vel_96
Time_Shift_4
Note_On_60_Vel_86
Time_Shift_2
Note_On_63_Vel_85
Time_Shift_32
Sustain_On
Time_Shift_277
Note_On_72_Vel_0
Time_Shift_10
Note_On_92_Vel_0
Time_Shift_1
Note_On_63_Vel_0
Note_On_80_Vel_0
Time_Shift_3
Sustain_Off
Time_Shift_1
Note_On_60_Vel_0
Note_On_68_Vel_0
Time_Shift_16
Note_On_87_Vel_0
Time_Shift_134
Note_On_72_Vel_95
Time_Shift_1
Note_On_60_Vel_96
Time_Shift_1
Note_On_68_Vel_95
Time_Shift_1
Note_On_56_Vel_97
Time_Shift_2
Note_On_63_Vel_89
Time_Shift_1
Note_On_44_Vel_84
Time_Shift_1
Note_On_51_Vel_85
Time_Shift_28
Sustain_On
Time_Shift_445
Note_On_72_Vel_0
Time_Shift_1
Note_On_68_Vel_0
Note_On_44_Vel_0
Time_Shift_1
Note_On_63_Vel_0
Note_On_51_Vel_0
Time_Shift_2
Sustain_Off
Time_Shift_4
Note_On_60_Vel_0
Time_Shift_7
Note_On_56_Vel_0
Time_Shift_39
Note_On_50_Vel_88
Time_Shift_2
Note_On_38_Vel_76
Time_Shift_59
Note_On_50_Vel_0
Time_Shift_16
Note_On_38_Vel_0
Note_On_53_Vel_85
Time_Shift_1
Note_On_41_Vel_76
Time_Shift_79
Note_On_39_Vel_66
Time_Shift_1
Note_On_51_Vel_72
Time_Shift_5
Note_On_41_Vel_0
Time_Shift_1
Note_On_53_Vel_0
Time_Shift_30
Note_On_39_Vel_0
Time_Shift_2
Note_On_51_Vel_0
Time_Shift_30
Note_On_47_Vel_81
Time_Shift_2
Note_On_35_Vel_62
Time_Shift_55
Note_On_47_Vel_0
Time_Shift_16
Note_On_35_Vel_0
Time_Shift_4
Note_On_49_Vel_76
Time_Shift_1
Note_On_37_Vel_59
Time_Shift_47
Note_On_37_Vel_0
Time_Shift_3
Note_On_49_Vel_0
Time_Shift_26
Note_On_48_Vel_72
Time_Shift_2
Note_On_36_Vel_60
Time_Shift_100
Note_On_36_Vel_0
Time_Shift_5
Note_On_48_Vel_0
Time_Shift_29
Note_On_32_Vel_56
Time_Shift_1
Note_On_44_Vel_68
Time_Shift_558
Note_On_32_Vel_0
Time_Shift_31
Note_On_44_Vel_0
Time_Shift_591
Sustain_On
Time_Shift_423
Sustain_Off
