Time_Shift_803
Note_On_59_Vel_52
Time_Shift_260
Note_On_60_Vel_58
Time_Shift_97
Note_On_59_Vel_0
Time_Shift_163
Note_On_61_Vel_57
Time_Shift_35
Note_On_60_Vel_0
Time_Shift_227
Note_On_58_Vel_59
Time_Shift_61
Note_On_61_Vel_0
Time_Shift_205
Note_On_65_Vel_49
Time_Shift_56
Note_On_58_Vel_0
Time_Shift_244
Note_On_64_Vel_47
Time_Shift_27
Note_On_65_Vel_0
Time_Shift_281
Note_On_59_Vel_61
Time_Shift_64
Note_On_64_Vel_0
Time_Shift_174
Note_On_60_Vel_61
Time_Shift_73
Note_On_59_Vel_0
Time_Shift_151
Note_On_61_Vel_64
Time_Shift_37
Note_On_60_Vel_0
Time_Shift_178
Note_On_58_Vel_66
Time_Shift_59
Note_On_61_Vel_0
Time_Shift_155
Note_On_65_Vel_55
Time_Shift_72
Note_On_58_Vel_0
Time_Shift_149
Note_On_64_Vel_60
Time_Shift_35
Note_On_65_Vel_0
Time_Shift_176
Note_On_59_Vel_68
Time_Shift_60
Note_On_64_Vel_0
Time_Shift_163
Note_On_60_Vel_69
Time_Shift_48
Note_On_59_Vel_0
Time_Shift_174
Note_On_61_Vel_58
Time_Shift_23
Note_On_60_Vel_0
Time_Shift_194
Note_On_60_Vel_67
Time_Shift_46
Note_On_61_Vel_0
Time_Shift_177
Note_On_62_Vel_60
Time_Shift_49
Note_On_60_Vel_0
Time_Shift_181
Note_On_65_Vel_57
Time_Shift_29
Note_On_62_Vel_0
Time_Shift_224
Note_On_64_Vel_58
Time_Shift_39
Note_On_65_Vel_0
Time_Shift_207
Note_On_65_Vel_55
Time_Shift_35
Note_On_64_Vel_0
Time_Shift_253
Note_On_68_Vel_57
Time_Shift_24
Note_On_65_Vel_0
Time_Shift_113
Sustain_On
Time_Shift_169
Sustain_Off
Time_Shift_4
Note_On_67_Vel_48
Time_Shift_79
Note_On_68_Vel_0
Time_Shift_40
Sustain_On
Time_Shift_258
Note_On_68_Vel_42
Time_Shift_18
Sustain_Off
Time_Shift_24
Note_On_67_Vel_0
Time_Shift_68
Sustain_On
Time_Shift_280
Note_On_65_Vel_40
Time_Shift_25
Note_On_41_Vel_24
Time_Shift_8
Sustain_Off
Time_Shift_4
Note_On_68_Vel_0
Time_Shift_121
Sustain_On
Time_Shift_124
Note_On_48_Vel_32
Time_Shift_164
Note_On_53_Vel_34
Time_Shift_145
Note_On_56_Vel_40
Time_Shift_133
Note_On_60_Vel_39
Time_Shift_102
Note_On_56_Vel_0
Time_Shift_5
Note_On_56_Vel_39
Time_Shift_126
Note_On_53_Vel_0
Time_Shift_6
Note_On_53_Vel_31
Time_Shift_109
Note_On_48_Vel_0
Time_Shift_4
Note_On_48_Vel_44
Time_Shift_134
Note_On_41_Vel_0
Time_Shift_5
Note_On_41_Vel_37
Time_Shift_111
Note_On_48_Vel_0
Time_Shift_5
Note_On_48_Vel_40
Time_Shift_110
Note_On_53_Vel_0
Time_Shift_11
Note_On_53_Vel_35
Time_Shift_112
Note_On_56_Vel_0
Time_Shift_4
Note_On_56_Vel_49
Time_Shift_119
Note_On_60_Vel_0
Time_Shift_10
Note_On_60_Vel_50
Time_Shift_97
Note_On_56_Vel_0
Time_Shift_6
Note_On_56_Vel_45
Time_Shift_125
Note_On_53_Vel_0
Time_Shift_7
Note_On_53_Vel_35
Time_Shift_108
Note_On_48_Vel_0
Time_Shift_11
Note_On_48_Vel_42
Time_Shift_119
Note_On_41_Vel_0
Time_Shift_5
Note_On_41_Vel_38
Time_Shift_88
Sustain_Off
Time_Shift_30
Note_On_48_Vel_0
Time_Shift_9
Note_On_48_Vel_42
Time_Shift_45
Sustain_On
Time_Shift_69
Note_On_53_Vel_0
Time_Shift_10
Note_On_53_Vel_34
Time_Shift_113
Note_On_56_Vel_0
Time_Shift_7
Note_On_56_Vel_40
Time_Shift_93
Note_On_60_Vel_0
Time_Shift_10
Note_On_60_Vel_46
Time_Shift_105
Note_On_56_Vel_0
Time_Shift_10
Note_On_56_Vel_38
Time_Shift_75
Note_On_65_Vel_0
Time_Shift_61
Note_On_53_Vel_0
Time_Shift_9
Note_On_53_Vel_25
Time_Shift_106
Note_On_48_Vel_0
Time_Shift_6
Note_On_48_Vel_38
Time_Shift_84
Note_On_56_Vel_0
Time_Shift_1
Note_On_53_Vel_0
Time_Shift_2
Sustain_Off
Time_Shift_22
Note_On_41_Vel_0
Time_Shift_7
Note_On_41_Vel_33
Time_Shift_55
Sustain_On
Time_Shift_61
Note_On_48_Vel_0
Time_Shift_10
Note_On_48_Vel_39
Time_Shift_121
Note_On_53_Vel_28
Time_Shift_135
Note_On_56_Vel_36
Time_Shift_126
Note_On_60_Vel_0
Time_Shift_6
Note_On_60_Vel_31
Time_Shift_109
Note_On_56_Vel_0
Time_Shift_7
Note_On_56_Vel_31
Time_Shift_131
Note_On_53_Vel_0
Time_Shift_7
Note_On_53_Vel_29
Time_Shift_139
Note_On_48_Vel_0
Time_Shift_4
Note_On_48_Vel_30
Time_Shift_165
Note_On_41_Vel_0
Time_Shift_6
Note_On_41_Vel_27
Time_Shift_27
Sustain_Off
Time_Shift_1
Note_On_56_Vel_0
Note_On_53_Vel_0
Note_On_60_Vel_0
Note_On_48_Vel_0
Time_Shift_128
Sustain_On
Time_Shift_67
Note_On_48_Vel_27
Time_Shift_122
Note_On_60_Vel_50
Time_Shift_84
Note_On_53_Vel_29
Time_Shift_190
Note_On_68_Vel_57
Time_Shift_27
Note_On_56_Vel_25
Time_Shift_162
Note_On_60_Vel_0
Time_Shift_9
Note_On_60_Vel_39
Time_Shift_20
Note_On_67_Vel_60
Time_Shift_133
Note_On_56_Vel_0
Time_Shift_6
Note_On_56_Vel_46
Time_Shift_64
Note_On_65_Vel_57
Time_Shift_68
Note_On_53_Vel_0
Time_Shift_4
Note_On_53_Vel_39
Time_Shift_126
Note_On_48_Vel_0
Time_Shift_4
Note_On_71_Vel_67
Time_Shift_3
Note_On_48_Vel_36
Time_Shift_133
Note_On_68_Vel_0
Time_Shift_1
Note_On_67_Vel_0
Note_On_56_Vel_0
Time_Shift_1
Note_On_53_Vel_0
Sustain_Off
Note_On_60_Vel_0
Time_Shift_2
Note_On_65_Vel_0
Time_Shift_4
Note_On_71_Vel_0
Time_Shift_6
Note_On_41_Vel_0
Time_Shift_15
Note_On_48_Vel_0
Time_Shift_11
Note_On_40_Vel_34
Time_Shift_19
Note_On_72_Vel_63
Time_Shift_93
Sustain_On
Time_Shift_58
Note_On_48_Vel_33
Time_Shift_63
Note_On_73_Vel_58
Time_Shift_97
Note_On_55_Vel_33
Time_Shift_109
Note_On_71_Vel_65
Time_Shift_7
Note_On_58_Vel_45
Time_Shift_181
Note_On_72_Vel_0
Time_Shift_7
Note_On_60_Vel_45
Time_Shift_3
Note_On_72_Vel_61
Time_Shift_105
Note_On_58_Vel_0
Time_Shift_11
Note_On_58_Vel_40
Note_On_70_Vel_46
Time_Shift_143
Note_On_60_Vel_0
Time_Shift_7
Note_On_72_Vel_0
Time_Shift_4
Note_On_60_Vel_62
Time_Shift_5
Note_On_72_Vel_52
Time_Shift_60
Note_On_55_Vel_0
Time_Shift_5
Note_On_55_Vel_32
Time_Shift_111
Note_On_48_Vel_0
Time_Shift_11
Note_On_48_Vel_34
Time_Shift_19
Note_On_70_Vel_0
Time_Shift_11
Note_On_70_Vel_63
Time_Shift_149
Note_On_41_Vel_33
Time_Shift_22
Note_On_58_Vel_0
Note_On_40_Vel_0
Note_On_72_Vel_0
Note_On_55_Vel_0
Time_Shift_1
Sustain_Off
Time_Shift_1
Note_On_71_Vel_0
Note_On_73_Vel_0
Note_On_70_Vel_0
Time_Shift_16
Note_On_60_Vel_0
Time_Shift_8
Note_On_69_Vel_60
Time_Shift_7
Note_On_48_Vel_0
Time_Shift_39
Sustain_On
Time_Shift_104
Note_On_48_Vel_33
Time_Shift_50
Note_On_68_Vel_68
Time_Shift_88
Note_On_53_Vel_35
Time_Shift_122
Note_On_67_Vel_65
Time_Shift_25
Note_On_56_Vel_38
Time_Shift_161
Note_On_60_Vel_49
Time_Shift_5
Note_On_65_Vel_56
Time_Shift_128
Note_On_56_Vel_0
Time_Shift_7
Note_On_56_Vel_41
Time_Shift_89
Note_On_77_Vel_71
Time_Shift_89
Note_On_53_Vel_0
Time_Shift_10
Note_On_53_Vel_31
Time_Shift_112
Note_On_48_Vel_0
Time_Shift_6
Note_On_71_Vel_71
Time_Shift_5
Note_On_48_Vel_35
Time_Shift_156
Note_On_41_Vel_0
Note_On_68_Vel_0
Time_Shift_1
Sustain_Off
Note_On_53_Vel_0
Note_On_67_Vel_0
Note_On_65_Vel_0
Note_On_56_Vel_0
Time_Shift_1
Note_On_69_Vel_0
Note_On_60_Vel_0
Time_Shift_4
Note_On_77_Vel_0
Time_Shift_19
Note_On_48_Vel_0
Time_Shift_6
Note_On_72_Vel_60
Time_Shift_1
Note_On_40_Vel_32
Time_Shift_24
Note_On_71_Vel_0
Time_Shift_69
Sustain_On
Time_Shift_80
Note_On_48_Vel_38
Time_Shift_52
Note_On_75_Vel_56
Time_Shift_95
Note_On_55_Vel_33
Time_Shift_110
Note_On_73_Vel_57
Time_Shift_42
Note_On_58_Vel_42
Time_Shift_151
Note_On_72_Vel_0
Time_Shift_11
Note_On_72_Vel_54
Time_Shift_2
Note_On_60_Vel_40
Time_Shift_118
Note_On_58_Vel_0
Time_Shift_5
Note_On_58_Vel_38
Time_Shift_26
Note_On_40_Vel_0
Time_Shift_73
Note_On_65_Vel_54
Time_Shift_195
Note_On_48_Vel_0
Time_Shift_1
Note_On_67_Vel_61
Time_Shift_9
Note_On_48_Vel_39
Time_Shift_131
Sustain_Off
Time_Shift_1
Note_On_73_Vel_0
Note_On_55_Vel_0
Note_On_58_Vel_0
Time_Shift_1
Note_On_75_Vel_0
Note_On_48_Vel_0
Note_On_72_Vel_0
Note_On_60_Vel_0
Note_On_65_Vel_0
Time_Shift_32
Note_On_41_Vel_31
Time_Shift_9
Note_On_68_Vel_62
Time_Shift_1
Note_On_67_Vel_0
Time_Shift_92
Sustain_On
Time_Shift_48
Note_On_48_Vel_36
Time_Shift_64
Note_On_64_Vel_57
Time_Shift_76
Note_On_53_Vel_34
Time_Shift_114
Note_On_65_Vel_60
Time_Shift_16
Note_On_56_Vel_41
Time_Shift_164
Note_On_60_Vel_50
Time_Shift_2
Note_On_68_Vel_0
Time_Shift_10
Note_On_68_Vel_69
Time_Shift_105
Note_On_56_Vel_0
Time_Shift_8
Note_On_56_Vel_47
Time_Shift_80
Note_On_71_Vel_72
Time_Shift_73
Note_On_53_Vel_0
Time_Shift_5
Note_On_53_Vel_39
Time_Shift_113
Note_On_72_Vel_77
Time_Shift_5
Note_On_48_Vel_0
Time_Shift_7
Note_On_48_Vel_33
Time_Shift_143
Note_On_64_Vel_0
Note_On_56_Vel_0
Note_On_41_Vel_0
Time_Shift_1
Note_On_60_Vel_0
Note_On_48_Vel_0
Note_On_65_Vel_0
Note_On_53_Vel_0
Time_Shift_1
Note_On_71_Vel_0
Time_Shift_3
Sustain_Off
Time_Shift_14
Note_On_68_Vel_0
Time_Shift_1
Note_On_43_Vel_36
Time_Shift_2
Note_On_73_Vel_65
Time_Shift_51
Note_On_72_Vel_0
Time_Shift_15
Sustain_On
Time_Shift_126
Note_On_51_Vel_47
Time_Shift_39
Note_On_74_Vel_67
Time_Shift_108
Note_On_58_Vel_47
Time_Shift_85
Note_On_77_Vel_72
Time_Shift_61
Note_On_61_Vel_39
Time_Shift_130
Note_On_75_Vel_67
Time_Shift_7
Note_On_63_Vel_50
Time_Shift_89
Note_On_61_Vel_0
Time_Shift_8
Note_On_61_Vel_40
Time_Shift_96
Note_On_68_Vel_71
Time_Shift_50
Note_On_58_Vel_0
Time_Shift_11
Note_On_58_Vel_48
Time_Shift_127
Note_On_51_Vel_0
Time_Shift_4
Note_On_70_Vel_70
Time_Shift_6
Note_On_51_Vel_43
Time_Shift_154
Sustain_Off
Time_Shift_1
Note_On_73_Vel_0
Note_On_74_Vel_0
Note_On_68_Vel_0
Note_On_75_Vel_0
Time_Shift_1
Note_On_51_Vel_0
Note_On_61_Vel_0
Note_On_77_Vel_0
Note_On_43_Vel_0
Time_Shift_1
Note_On_63_Vel_0
Time_Shift_1
Note_On_70_Vel_0
Time_Shift_9
Note_On_58_Vel_0
Time_Shift_16
Note_On_44_Vel_47
Time_Shift_3
Note_On_72_Vel_66
Time_Shift_65
Sustain_On
Time_Shift_114
Note_On_51_Vel_45
Time_Shift_30
Note_On_67_Vel_62
Time_Shift_108
Note_On_56_Vel_51
Time_Shift_80
Note_On_68_Vel_70
Time_Shift_71
Note_On_60_Vel_49
Time_Shift_111
Note_On_71_Vel_71
Time_Shift_3
Note_On_63_Vel_54
Time_Shift_136
Note_On_60_Vel_0
Time_Shift_10
Note_On_60_Vel_52
Time_Shift_36
Note_On_72_Vel_0
Time_Shift_9
Note_On_72_Vel_75
Time_Shift_91
Note_On_56_Vel_0
Time_Shift_5
Note_On_56_Vel_44
Time_Shift_75
Note_On_75_Vel_74
Time_Shift_43
Note_On_51_Vel_0
Time_Shift_5
Note_On_51_Vel_43
Time_Shift_130
Note_On_47_Vel_50
Time_Shift_4
Note_On_76_Vel_70
Time_Shift_18
Note_On_71_Vel_0
Note_On_67_Vel_0
Note_On_44_Vel_0
Note_On_63_Vel_0
Sustain_Off
Time_Shift_1
Note_On_75_Vel_0
Note_On_56_Vel_0
Note_On_68_Vel_0
Note_On_51_Vel_0
Note_On_72_Vel_0
Time_Shift_11
Note_On_60_Vel_0
Time_Shift_69
Sustain_On
Time_Shift_84
Note_On_53_Vel_53
Time_Shift_17
Note_On_77_Vel_77
Time_Shift_124
Note_On_55_Vel_50
Time_Shift_58
Note_On_78_Vel_77
Time_Shift_64
Note_On_62_Vel_47
Time_Shift_145
Note_On_79_Vel_70
Time_Shift_19
Note_On_65_Vel_44
Time_Shift_149
Note_On_62_Vel_0
Time_Shift_5
Note_On_62_Vel_39
Time_Shift_38
Note_On_74_Vel_70
Time_Shift_95
Note_On_56_Vel_44
Time_Shift_139
Note_On_77_Vel_0
Time_Shift_10
Note_On_77_Vel_76
Time_Shift_21
Note_On_55_Vel_0
Time_Shift_6
Note_On_55_Vel_52
Time_Shift_186
Note_On_76_Vel_0
Note_On_53_Vel_0
Sustain_Off
Time_Shift_1
Note_On_48_Vel_45
Time_Shift_1
Note_On_65_Vel_0
Note_On_55_Vel_0
Note_On_62_Vel_0
Note_On_56_Vel_0
Note_On_74_Vel_0
Note_On_47_Vel_0
Time_Shift_1
Note_On_79_Vel_0
Note_On_77_Vel_0
Note_On_78_Vel_0
Time_Shift_7
Note_On_76_Vel_66
Time_Shift_82
Sustain_On
Time_Shift_109
Note_On_55_Vel_45
Time_Shift_86
Note_On_71_Vel_72
Time_Shift_104
Note_On_58_Vel_49
Time_Shift_100
Note_On_72_Vel_74
Time_Shift_58
Note_On_60_Vel_51
Time_Shift_140
Note_On_73_Vel_65
Time_Shift_5
Note_On_64_Vel_56
Time_Shift_143
Note_On_60_Vel_0
Time_Shift_9
Note_On_60_Vel_50
Time_Shift_64
Note_On_70_Vel_70
Time_Shift_57
Note_On_58_Vel_0
Time_Shift_11
Note_On_58_Vel_47
Time_Shift_130
Note_On_77_Vel_78
Time_Shift_36
Note_On_55_Vel_0
Time_Shift_5
Note_On_55_Vel_50
Time_Shift_162
Sustain_Off
Time_Shift_2
Note_On_76_Vel_0
Note_On_73_Vel_0
Note_On_55_Vel_0
Note_On_71_Vel_0
Note_On_60_Vel_0
Time_Shift_1
Note_On_72_Vel_0
Note_On_64_Vel_0
Time_Shift_1
Note_On_70_Vel_0
Time_Shift_3
Note_On_76_Vel_70
Time_Shift_10
Note_On_48_Vel_0
Note_On_58_Vel_0
Time_Shift_7
Note_On_48_Vel_42
Time_Shift_47
Sustain_On
Time_Shift_115
Note_On_55_Vel_38
Time_Shift_46
Note_On_71_Vel_73
Time_Shift_129
Note_On_58_Vel_46
Time_Shift_97
Note_On_72_Vel_70
Time_Shift_79
Note_On_60_Vel_44
Time_Shift_129
Note_On_73_Vel_63
Time_Shift_4
Note_On_64_Vel_48
Time_Shift_177
Note_On_60_Vel_0
Time_Shift_4
Note_On_60_Vel_39
Time_Shift_40
Note_On_70_Vel_66
Time_Shift_240
Note_On_77_Vel_0
Time_Shift_4
Note_On_77_Vel_64
Time_Shift_19
Note_On_55_Vel_0
Time_Shift_11
Note_On_55_Vel_35
Time_Shift_220
Note_On_73_Vel_0
Time_Shift_1
Note_On_60_Vel_0
Note_On_58_Vel_0
Note_On_70_Vel_0
Note_On_55_Vel_0
Time_Shift_1
Note_On_71_Vel_0
Note_On_64_Vel_0
Note_On_72_Vel_0
Time_Shift_1
Note_On_77_Vel_0
Time_Shift_1
Sustain_Off
Time_Shift_3
Note_On_48_Vel_0
Note_On_76_Vel_0
Time_Shift_5
Note_On_48_Vel_35
Time_Shift_6
Note_On_76_Vel_53
Time_Shift_81
Sustain_On
Time_Shift_150
Note_On_55_Vel_27
Time_Shift_53
Note_On_71_Vel_62
Time_Shift_131
Note_On_58_Vel_45
Time_Shift_85
Note_On_72_Vel_70
Time_Shift_78
Note_On_60_Vel_41
Time_Shift_144
Note_On_73_Vel_63
Time_Shift_16
Note_On_64_Vel_44
Time_Shift_180
Note_On_60_Vel_0
Time_Shift_6
Note_On_60_Vel_39
Time_Shift_33
Note_On_72_Vel_0
Time_Shift_11
Note_On_72_Vel_70
Time_Shift_96
Note_On_58_Vel_0
Time_Shift_7
Note_On_58_Vel_35
Time_Shift_105
Note_On_74_Vel_68
Time_Shift_42
Note_On_55_Vel_0
Time_Shift_11
Note_On_55_Vel_42
Time_Shift_155
Note_On_55_Vel_0
Note_On_73_Vel_0
Note_On_72_Vel_0
Note_On_64_Vel_0
Note_On_58_Vel_0
Time_Shift_1
Note_On_71_Vel_0
Note_On_60_Vel_0
Time_Shift_1
Note_On_76_Vel_0
Sustain_Off
Time_Shift_2
Note_On_74_Vel_0
Time_Shift_22
Note_On_48_Vel_0
Time_Shift_6
Note_On_77_Vel_72
Time_Shift_5
Note_On_48_Vel_34
Time_Shift_96
Sustain_On
Time_Shift_122
Note_On_55_Vel_39
Time_Shift_36
Note_On_76_Vel_62
Time_Shift_158
Note_On_58_Vel_44
Time_Shift_91
Note_On_77_Vel_0
Time_Shift_10
Note_On_77_Vel_68
Time_Shift_109
Note_On_60_Vel_47
Time_Shift_185
Note_On_58_Vel_0
Note_On_55_Vel_0
Sustain_Off
Time_Shift_2
Note_On_77_Vel_0
Note_On_60_Vel_0
Note_On_76_Vel_0
Time_Shift_4
Note_On_64_Vel_41
Time_Shift_1
Note_On_80_Vel_60
Time_Shift_127
Sustain_On
Time_Shift_117
Note_On_60_Vel_36
Time_Shift_82
Note_On_79_Vel_55
Time_Shift_158
Note_On_58_Vel_38
Time_Shift_234
Note_On_80_Vel_0
Time_Shift_5
Note_On_80_Vel_51
Time_Shift_91
Note_On_55_Vel_25
Time_Shift_258
Note_On_48_Vel_0
Time_Shift_3
Note_On_60_Vel_0
Note_On_64_Vel_0
Note_On_58_Vel_0
Note_On_79_Vel_0
Sustain_Off
Time_Shift_1
Note_On_55_Vel_0
Time_Shift_17
Note_On_77_Vel_49
Time_Shift_14
Note_On_41_Vel_32
Time_Shift_134
Sustain_On
Time_Shift_74
Note_On_48_Vel_23
Time_Shift_168
Note_On_53_Vel_32
Time_Shift_145
Note_On_56_Vel_38
Time_Shift_198
Note_On_65_Vel_36
Time_Shift_141
Note_On_60_Vel_44
Time_Shift_157
Note_On_56_Vel_0
Time_Shift_6
Note_On_56_Vel_39
Time_Shift_140
Note_On_53_Vel_0
Time_Shift_4
Note_On_53_Vel_33
Time_Shift_149
Note_On_80_Vel_0
Time_Shift_5
Note_On_48_Vel_0
Time_Shift_2
Note_On_53_Vel_0
Note_On_56_Vel_0
Note_On_60_Vel_0
Sustain_Off
Time_Shift_1
Note_On_65_Vel_0
Time_Shift_2
Note_On_77_Vel_0
Time_Shift_17
Note_On_75_Vel_55
Time_Shift_19
Note_On_41_Vel_0
Time_Shift_11
Note_On_41_Vel_36
Time_Shift_51
Sustain_On
Time_Shift_150
Note_On_48_Vel_34
Time_Shift_84
Note_On_77_Vel_63
Time_Shift_94
Note_On_53_Vel_37
Time_Shift_125
Note_On_75_Vel_0
Time_Shift_6
Note_On_75_Vel_63
Time_Shift_28
Note_On_56_Vel_47
Time_Shift_189
Note_On_77_Vel_0
Time_Shift_10
Note_On_77_Vel_63
Time_Shift_1
Note_On_63_Vel_49
Time_Shift_159
Note_On_60_Vel_46
Time_Shift_60
Note_On_75_Vel_0
Time_Shift_6
Note_On_75_Vel_62
Time_Shift_86
Note_On_56_Vel_0
Time_Shift_7
Note_On_56_Vel_44
Time_Shift_139
Note_On_77_Vel_0
Time_Shift_5
Note_On_77_Vel_68
Time_Shift_26
Note_On_53_Vel_0
Time_Shift_11
Note_On_68_Vel_41
Note_On_53_Vel_36
Time_Shift_4
Note_On_68_Vel_0
Time_Shift_143
Sustain_Off
Time_Shift_1
Note_On_60_Vel_0
Note_On_63_Vel_0
Note_On_48_Vel_0
Note_On_56_Vel_0
Time_Shift_1
Note_On_77_Vel_0
Time_Shift_1
Note_On_75_Vel_0
Time_Shift_23
Note_On_41_Vel_0
Note_On_53_Vel_0
Time_Shift_3
Note_On_73_Vel_60
Time_Shift_2
Note_On_41_Vel_33
Time_Shift_80
Sustain_On
Time_Shift_117
Note_On_49_Vel_35
Time_Shift_46
Note_On_75_Vel_62
Time_Shift_127
Note_On_53_Vel_36
Time_Shift_78
Note_On_73_Vel_0
Time_Shift_7
Note_On_73_Vel_65
Time_Shift_67
Note_On_56_Vel_41
Time_Shift_141
Note_On_75_Vel_0
Time_Shift_6
Note_On_75_Vel_61
Time_Shift_27
Note_On_61_Vel_41
Time_Shift_136
Note_On_56_Vel_0
Time_Shift_4
Note_On_56_Vel_42
Time_Shift_50
Note_On_73_Vel_0
Time_Shift_4
Note_On_73_Vel_68
Time_Shift_119
Note_On_53_Vel_0
Time_Shift_6
Note_On_53_Vel_34
Time_Shift_86
Note_On_75_Vel_0
Time_Shift_7
Note_On_75_Vel_64
Time_Shift_55
Note_On_49_Vel_0
Time_Shift_8
Note_On_49_Vel_29
Time_Shift_155
Note_On_73_Vel_0
Time_Shift_1
Note_On_49_Vel_0
Note_On_53_Vel_0
Note_On_56_Vel_0
Note_On_75_Vel_0
Note_On_61_Vel_0
Time_Shift_1
Sustain_Off
Time_Shift_27
Note_On_41_Vel_0
Time_Shift_3
Note_On_72_Vel_60
Time_Shift_8
Note_On_41_Vel_34
Time_Shift_73
Sustain_On
Time_Shift_112
Note_On_49_Vel_31
Time_Shift_61
Note_On_73_Vel_57
Time_Shift_99
Note_On_53_Vel_34
Time_Shift_112
Note_On_72_Vel_0
Time_Shift_10
Note_On_72_Vel_56
Time_Shift_51
Note_On_49_Vel_0
Time_Shift_3
Note_On_56_Vel_33
Time_Shift_3
Note_On_49_Vel_25
Time_Shift_163
Note_On_73_Vel_0
Time_Shift_12
Note_On_73_Vel_54
Time_Shift_5
Note_On_61_Vel_33
Time_Shift_160
Note_On_56_Vel_0
Time_Shift_9
Note_On_56_Vel_32
Time_Shift_60
Note_On_72_Vel_0
Time_Shift_6
Note_On_72_Vel_50
Time_Shift_102
Note_On_53_Vel_0
Time_Shift_10
Note_On_53_Vel_31
Time_Shift_136
Note_On_73_Vel_0
Time_Shift_7
Note_On_53_Vel_0
Time_Shift_4
Note_On_73_Vel_52
Time_Shift_5
Note_On_53_Vel_25
Time_Shift_45
Note_On_49_Vel_0
Time_Shift_5
Note_On_49_Vel_27
Time_Shift_221
Note_On_72_Vel_0
Time_Shift_1
Sustain_Off
Time_Shift_1
Note_On_41_Vel_0
Note_On_53_Vel_0
Note_On_73_Vel_0
Note_On_61_Vel_0
Note_On_49_Vel_0
Time_Shift_1
Note_On_71_Vel_47
Note_On_56_Vel_0
Time_Shift_49
Note_On_43_Vel_23
Time_Shift_106
Sustain_On
Time_Shift_143
Note_On_50_Vel_28
Time_Shift_92
Note_On_66_Vel_35
Time_Shift_169
Note_On_53_Vel_29
Time_Shift_85
Note_On_67_Vel_45
Time_Shift_89
Note_On_55_Vel_34
Time_Shift_146
Note_On_68_Vel_49
Time_Shift_18
Note_On_59_Vel_39
Time_Shift_141
Note_On_55_Vel_0
Time_Shift_6
Note_On_55_Vel_34
Time_Shift_36
Note_On_65_Vel_47
Time_Shift_20
Note_On_59_Vel_0
Time_Shift_9
Note_On_59_Vel_26
Time_Shift_129
Note_On_53_Vel_0
Time_Shift_5
Note_On_53_Vel_28
Time_Shift_56
Note_On_72_Vel_60
Time_Shift_54
Note_On_50_Vel_0
Time_Shift_6
Note_On_50_Vel_34
Time_Shift_90
Note_On_66_Vel_0
Note_On_59_Vel_0
Note_On_67_Vel_0
Time_Shift_1
Note_On_53_Vel_0
Time_Shift_1
Note_On_55_Vel_0
Note_On_65_Vel_0
Time_Shift_1
Note_On_50_Vel_0
Note_On_71_Vel_0
Sustain_Off
Time_Shift_1
Note_On_43_Vel_0
Time_Shift_2
Note_On_68_Vel_0
Time_Shift_68
Note_On_71_Vel_59
Time_Shift_2
Note_On_43_Vel_35
Time_Shift_32
Note_On_72_Vel_0
Time_Shift_65
Sustain_On
Time_Shift_59
Note_On_50_Vel_32
Time_Shift_60
Note_On_66_Vel_56
Time_Shift_131
Note_On_53_Vel_36
Time_Shift_69
Note_On_67_Vel_60
Time_Shift_83
Note_On_55_Vel_36
Time_Shift_133
Note_On_68_Vel_63
Time_Shift_8
Note_On_59_Vel_42
Time_Shift_133
Note_On_55_Vel_0
Time_Shift_7
Note_On_55_Vel_44
Time_Shift_53
Note_On_65_Vel_59
Time_Shift_147
Note_On_53_Vel_0
Time_Shift_11
Note_On_53_Vel_34
Time_Shift_56
Note_On_72_Vel_66
Time_Shift_48
Note_On_50_Vel_0
Time_Shift_10
Note_On_50_Vel_37
Time_Shift_153
Note_On_55_Vel_0
Time_Shift_1
Sustain_Off
Note_On_50_Vel_0
Note_On_59_Vel_0
Note_On_53_Vel_0
Note_On_65_Vel_0
Note_On_68_Vel_0
Time_Shift_1
Note_On_66_Vel_0
Note_On_67_Vel_0
Time_Shift_2
Note_On_72_Vel_0
Time_Shift_2
Note_On_43_Vel_0
Note_On_71_Vel_0
Time_Shift_11
Note_On_43_Vel_38
Note_On_71_Vel_61
Time_Shift_89
Sustain_On
Time_Shift_83
Note_On_50_Vel_33
Time_Shift_59
Note_On_66_Vel_57
Time_Shift_100
Note_On_53_Vel_42
Time_Shift_113
Note_On_67_Vel_62
Time_Shift_33
Note_On_55_Vel_41
Time_Shift_177
Note_On_59_Vel_40
Time_Shift_5
Note_On_68_Vel_65
Time_Shift_137
Note_On_55_Vel_0
Time_Shift_4
Note_On_55_Vel_41
Time_Shift_88
Note_On_67_Vel_0
Time_Shift_6
Note_On_67_Vel_68
Time_Shift_217
Note_On_50_Vel_0
Time_Shift_2
Note_On_69_Vel_62
Time_Shift_8
Note_On_50_Vel_38
Time_Shift_144
Note_On_55_Vel_0
Note_On_59_Vel_0
Time_Shift_1
Note_On_53_Vel_0
Time_Shift_1
Note_On_50_Vel_0
Note_On_67_Vel_0
Note_On_71_Vel_0
Note_On_68_Vel_0
Time_Shift_1
Note_On_66_Vel_0
Time_Shift_2
Sustain_Off
Time_Shift_17
Note_On_43_Vel_0
Time_Shift_11
Note_On_43_Vel_40
Time_Shift_40
Note_On_72_Vel_65
Time_Shift_80
Sustain_On
Time_Shift_81
Note_On_50_Vel_41
Time_Shift_19
Note_On_69_Vel_0
Time_Shift_80
Note_On_71_Vel_67
Time_Shift_77
Note_On_53_Vel_40
Time_Shift_150
Note_On_72_Vel_0
Time_Shift_6
Note_On_72_Vel_71
Time_Shift_32
Note_On_55_Vel_38
Time_Shift_217
Note_On_59_Vel_41
Time_Shift_12
Note_On_72_Vel_0
Note_On_53_Vel_0
Note_On_43_Vel_0
Time_Shift_1
Note_On_55_Vel_0
Note_On_50_Vel_0
Time_Shift_1
Note_On_71_Vel_0
Time_Shift_3
Sustain_Off
Time_Shift_11
Note_On_75_Vel_58
Time_Shift_124
Sustain_On
Time_Shift_104
Note_On_55_Vel_35
Time_Shift_101
Note_On_74_Vel_55
Time_Shift_164
Note_On_74_Vel_0
Time_Shift_2
Note_On_53_Vel_31
Time_Shift_9
Note_On_74_Vel_34
Time_Shift_134
Note_On_55_Vel_0
Time_Shift_5
Note_On_55_Vel_12
Time_Shift_95
Note_On_75_Vel_0
Time_Shift_3
Note_On_50_Vel_25
Time_Shift_7
Note_On_75_Vel_48
Time_Shift_287
Note_On_53_Vel_0
Note_On_55_Vel_0
Note_On_59_Vel_0
Note_On_75_Vel_0
Time_Shift_1
Note_On_50_Vel_0
Time_Shift_5
Sustain_Off
Time_Shift_12
Note_On_74_Vel_0
Time_Shift_10
Note_On_72_Vel_51
Time_Shift_1
Note_On_36_Vel_31
Time_Shift_89
Sustain_On
Time_Shift_129
Note_On_43_Vel_30
Time_Shift_40
Note_On_36_Vel_0
Time_Shift_101
Note_On_48_Vel_36
Time_Shift_146
Note_On_51_Vel_31
Time_Shift_155
Note_On_60_Vel_43
Time_Shift_148
Note_On_55_Vel_38
Time_Shift_203
Note_On_51_Vel_0
Time_Shift_5
Note_On_51_Vel_21
Time_Shift_171
Note_On_48_Vel_0
Time_Shift_6
Note_On_48_Vel_31
Time_Shift_222
Note_On_70_Vel_42
Time_Shift_9
Sustain_Off
Time_Shift_4
Note_On_48_Vel_0
Note_On_55_Vel_0
Time_Shift_1
Note_On_51_Vel_0
Note_On_60_Vel_0
Note_On_43_Vel_0
Note_On_72_Vel_0
Time_Shift_8
Note_On_36_Vel_19
Time_Shift_119
Sustain_On
Time_Shift_117
Note_On_43_Vel_22
Time_Shift_107
Note_On_72_Vel_47
Time_Shift_74
Note_On_48_Vel_25
Time_Shift_163
Note_On_70_Vel_0
Time_Shift_9
Note_On_70_Vel_52
Time_Shift_9
Note_On_51_Vel_33
Time_Shift_170
Note_On_55_Vel_33
Time_Shift_50
Note_On_72_Vel_0
Time_Shift_4
Note_On_72_Vel_53
Time_Shift_203
Note_On_70_Vel_0
Time_Shift_11
Note_On_70_Vel_54
Time_Shift_20
Note_On_51_Vel_0
Time_Shift_5
Note_On_51_Vel_17
Time_Shift_56
Note_On_48_Vel_0
Time_Shift_6
Note_On_48_Vel_26
Time_Shift_140
Note_On_72_Vel_0
Time_Shift_8
Note_On_72_Vel_54
Time_Shift_15
Note_On_43_Vel_0
Time_Shift_6
Note_On_43_Vel_32
Time_Shift_171
Note_On_36_Vel_0
Time_Shift_5
Note_On_36_Vel_32
Time_Shift_5
Sustain_Off
Time_Shift_1
Note_On_68_Vel_58
Time_Shift_4
Note_On_72_Vel_0
Note_On_55_Vel_0
Time_Shift_1
Note_On_43_Vel_0
Time_Shift_1
Note_On_51_Vel_0
Time_Shift_1
Note_On_70_Vel_0
Time_Shift_97
Sustain_On
Time_Shift_92
Note_On_44_Vel_39
Time_Shift_38
Note_On_70_Vel_60
Time_Shift_100
Note_On_48_Vel_0
Time_Shift_5
Note_On_48_Vel_37
Time_Shift_103
Note_On_68_Vel_0
Time_Shift_7
Note_On_68_Vel_64
Time_Shift_33
Note_On_51_Vel_34
Time_Shift_175
Note_On_70_Vel_0
Time_Shift_11
Note_On_70_Vel_60
Note_On_56_Vel_42
Time_Shift_158
Note_On_51_Vel_0
Time_Shift_9
Note_On_51_Vel_41
Time_Shift_14
Note_On_68_Vel_0
Time_Shift_11
Note_On_68_Vel_57
Time_Shift_127
Note_On_48_Vel_0
Time_Shift_5
Note_On_48_Vel_34
Time_Shift_64
Note_On_70_Vel_0
Time_Shift_7
Note_On_70_Vel_61
Time_Shift_193
Note_On_36_Vel_0
Time_Shift_10
Note_On_66_Vel_56
Time_Shift_1
Note_On_36_Vel_37
Time_Shift_3
Sustain_Off
Time_Shift_4
Note_On_51_Vel_0
Note_On_56_Vel_0
Note_On_44_Vel_0
Time_Shift_1
Note_On_48_Vel_0
Note_On_68_Vel_0
Time_Shift_43
Note_On_70_Vel_0
Time_Shift_69
Sustain_On
Time_Shift_59
Note_On_44_Vel_43
Time_Shift_54
Note_On_68_Vel_65
Time_Shift_91
Note_On_48_Vel_41
Time_Shift_95
Note_On_66_Vel_0
Time_Shift_5
Note_On_66_Vel_64
Time_Shift_44
Note_On_51_Vel_44
Time_Shift_151
Note_On_68_Vel_0
Time_Shift_4
Note_On_56_Vel_45
Time_Shift_1
Note_On_68_Vel_59
Time_Shift_3
Note_On_44_Vel_0
Time_Shift_5
Note_On_44_Vel_36
Time_Shift_133
Note_On_51_Vel_0
Time_Shift_10
Note_On_51_Vel_37
Time_Shift_59
Note_On_66_Vel_0
Time_Shift_4
Note_On_66_Vel_52
Time_Shift_111
Note_On_48_Vel_0
Time_Shift_10
Note_On_48_Vel_26
Time_Shift_90
Note_On_68_Vel_0
Time_Shift_4
Note_On_68_Vel_65
Time_Shift_50
Note_On_44_Vel_0
Time_Shift_10
Note_On_44_Vel_37
Time_Shift_136
Sustain_Off
Time_Shift_1
Note_On_51_Vel_0
Note_On_56_Vel_0
Note_On_48_Vel_0
Time_Shift_1
Note_On_44_Vel_0
Note_On_66_Vel_0
Note_On_68_Vel_0
Time_Shift_13
Note_On_36_Vel_0
Time_Shift_13
Note_On_37_Vel_38
Time_Shift_3
Note_On_65_Vel_55
Time_Shift_91
Sustain_On
Time_Shift_147
Note_On_44_Vel_38
Time_Shift_64
Note_On_77_Vel_60
Time_Shift_123
Note_On_49_Vel_45
Time_Shift_152
Note_On_75_Vel_60
Time_Shift_34
Note_On_53_Vel_33
Time_Shift_153
Note_On_56_Vel_42
Time_Shift_11
Note_On_73_Vel_59
Time_Shift_169
Note_On_53_Vel_0
Time_Shift_11
Note_On_53_Vel_37
Time_Shift_39
Note_On_68_Vel_65
Time_Shift_73
Note_On_49_Vel_0
Time_Shift_10
Note_On_49_Vel_40
Time_Shift_112
Note_On_70_Vel_71
Time_Shift_24
Note_On_44_Vel_0
Time_Shift_4
Note_On_44_Vel_46
Time_Shift_146
Note_On_75_Vel_0
Note_On_68_Vel_0
Sustain_Off
Note_On_53_Vel_0
Time_Shift_1
Note_On_73_Vel_0
Note_On_44_Vel_0
Time_Shift_1
Note_On_56_Vel_0
Note_On_65_Vel_0
Note_On_49_Vel_0
Time_Shift_3
Note_On_77_Vel_0
Time_Shift_4
Note_On_70_Vel_0
Time_Shift_10
Note_On_37_Vel_0
Time_Shift_6
Note_On_71_Vel_72
Note_On_37_Vel_44
Time_Shift_47
Sustain_On
Time_Shift_138
Note_On_44_Vel_41
Time_Shift_51
Note_On_82_Vel_76
Time_Shift_124
Note_On_49_Vel_45
Time_Shift_95
Note_On_80_Vel_76
Time_Shift_72
Note_On_53_Vel_41
Time_Shift_125
Note_On_78_Vel_73
Time_Shift_5
Note_On_56_Vel_46
Time_Shift_151
Note_On_53_Vel_0
Time_Shift_6
Note_On_53_Vel_40
Time_Shift_40
Note_On_75_Vel_76
Time_Shift_100
Note_On_49_Vel_0
Time_Shift_4
Note_On_49_Vel_40
Time_Shift_96
Note_On_78_Vel_0
Time_Shift_9
Note_On_78_Vel_76
Time_Shift_37
Note_On_44_Vel_0
Time_Shift_6
Note_On_44_Vel_45
Time_Shift_170
Note_On_37_Vel_0
Time_Shift_1
Sustain_Off
Time_Shift_3
Note_On_44_Vel_0
Note_On_56_Vel_0
Note_On_68_Vel_72
Note_On_53_Vel_0
Note_On_49_Vel_0
Note_On_82_Vel_0
Time_Shift_1
Note_On_75_Vel_0
Note_On_80_Vel_0
Note_On_71_Vel_0
Time_Shift_3
Note_On_37_Vel_42
Time_Shift_61
Sustain_On
Time_Shift_124
Note_On_44_Vel_39
Time_Shift_38
Note_On_78_Vel_0
Time_Shift_4
Note_On_78_Vel_71
Time_Shift_112
Note_On_49_Vel_46
Time_Shift_86
Note_On_77_Vel_77
Time_Shift_59
Note_On_49_Vel_0
Time_Shift_5
Note_On_53_Vel_41
Time_Shift_4
Note_On_49_Vel_34
Time_Shift_130
Note_On_75_Vel_69
Time_Shift_6
Note_On_56_Vel_45
Time_Shift_154
Note_On_53_Vel_0
Time_Shift_9
Note_On_53_Vel_33
Time_Shift_62
Note_On_71_Vel_69
Time_Shift_98
Note_On_49_Vel_0
Time_Shift_6
Note_On_49_Vel_37
Time_Shift_94
Note_On_75_Vel_0
Time_Shift_10
Note_On_75_Vel_57
Time_Shift_59
Note_On_37_Vel_0
Note_On_44_Vel_0
Time_Shift_6
Note_On_37_Vel_35
Time_Shift_2
Note_On_44_Vel_39
Time_Shift_131
Note_On_65_Vel_52
Time_Shift_5
Note_On_68_Vel_0
Note_On_71_Vel_0
Note_On_56_Vel_0
Note_On_49_Vel_0
Sustain_Off
Note_On_44_Vel_0
Time_Shift_1
Note_On_75_Vel_0
Note_On_77_Vel_0
Note_On_78_Vel_0
Time_Shift_1
Note_On_53_Vel_0
Time_Shift_31
Note_On_37_Vel_0
Time_Shift_4
Note_On_37_Vel_30
Time_Shift_42
Sustain_On
Time_Shift_136
Note_On_44_Vel_35
Time_Shift_8
Note_On_75_Vel_55
Time_Shift_157
Note_On_49_Vel_37
Time_Shift_59
Note_On_73_Vel_57
Time_Shift_103
Note_On_53_Vel_32
Time_Shift_117
Note_On_71_Vel_51
Time_Shift_16
Note_On_56_Vel_36
Time_Shift_172
Note_On_53_Vel_0
Time_Shift_5
Note_On_53_Vel_29
Time_Shift_41
Note_On_68_Vel_54
Time_Shift_108
Note_On_49_Vel_0
Time_Shift_3
Note_On_49_Vel_28
Time_Shift_119
Note_On_71_Vel_0
Time_Shift_8
Note_On_71_Vel_52
Time_Shift_69
Note_On_44_Vel_0
Time_Shift_5
Note_On_44_Vel_38
Time_Shift_205
Note_On_58_Vel_52
Time_Shift_1
Note_On_56_Vel_0
Note_On_75_Vel_0
Time_Shift_1
Note_On_68_Vel_0
Note_On_49_Vel_0
Note_On_73_Vel_0
Note_On_71_Vel_0
Time_Shift_1
Note_On_53_Vel_0
Note_On_37_Vel_0
Note_On_65_Vel_0
Sustain_Off
Note_On_44_Vel_0
Time_Shift_9
Note_On_38_Vel_32
Time_Shift_78
Sustain_On
Time_Shift_205
Note_On_44_Vel_33
Time_Shift_93
Note_On_65_Vel_44
Time_Shift_137
Note_On_46_Vel_35
Time_Shift_123
Note_On_64_Vel_54
Time_Shift_73
Note_On_53_Vel_32
Time_Shift_152
Note_On_63_Vel_55
Time_Shift_4
Note_On_56_Vel_38
Time_Shift_165
Note_On_53_Vel_0
Time_Shift_11
Note_On_53_Vel_28
Time_Shift_54
Note_On_62_Vel_63
Time_Shift_119
Note_On_46_Vel_0
Time_Shift_11
Note_On_46_Vel_43
Time_Shift_66
Note_On_65_Vel_0
Time_Shift_6
Note_On_65_Vel_62
Time_Shift_71
Note_On_44_Vel_0
Time_Shift_4
Note_On_44_Vel_51
Time_Shift_134
Note_On_58_Vel_0
Time_Shift_8
Note_On_38_Vel_0
Time_Shift_4
Note_On_58_Vel_68
Time_Shift_7
Note_On_38_Vel_56
Time_Shift_20
Sustain_Off
Time_Shift_12
Note_On_64_Vel_0
Time_Shift_3
Note_On_62_Vel_0
Time_Shift_4
Note_On_46_Vel_0
Time_Shift_2
Note_On_63_Vel_0
Note_On_44_Vel_0
Time_Shift_3
Note_On_56_Vel_0
Time_Shift_2
Note_On_53_Vel_0
Time_Shift_3
Note_On_65_Vel_0
Time_Shift_55
Sustain_On
Time_Shift_95
Note_On_46_Vel_45
Time_Shift_63
Note_On_71_Vel_71
Time_Shift_119
Note_On_53_Vel_42
Time_Shift_93
Note_On_70_Vel_72
Time_Shift_29
Note_On_56_Vel_53
Time_Shift_139
Note_On_58_Vel_0
Time_Shift_9
Note_On_58_Vel_60
Time_Shift_3
Note_On_69_Vel_67
Time_Shift_149
Note_On_56_Vel_0
Time_Shift_7
Note_On_56_Vel_56
Time_Shift_65
Note_On_68_Vel_76
Time_Shift_74
Note_On_53_Vel_0
Time_Shift_8
Note_On_53_Vel_48
Time_Shift_128
Note_On_77_Vel_73
Time_Shift_25
Note_On_46_Vel_0
Time_Shift_8
Note_On_46_Vel_53
Time_Shift_179
Note_On_75_Vel_74
Time_Shift_1
Note_On_34_Vel_60
Time_Shift_9
Sustain_Off
Time_Shift_2
Note_On_46_Vel_0
Note_On_53_Vel_0
Time_Shift_1
Note_On_70_Vel_0
Time_Shift_1
Note_On_58_Vel_0
Time_Shift_1
Note_On_71_Vel_0
Note_On_56_Vel_0
Note_On_68_Vel_0
Time_Shift_1
Note_On_77_Vel_0
Time_Shift_12
Note_On_69_Vel_0
Time_Shift_8
Note_On_38_Vel_0
Time_Shift_31
Sustain_On
Time_Shift_116
Note_On_46_Vel_59
Time_Shift_44
Note_On_74_Vel_74
Time_Shift_92
Note_On_53_Vel_60
Time_Shift_110
Note_On_83_Vel_79
Time_Shift_24
Note_On_56_Vel_65
Time_Shift_172
Note_On_58_Vel_63
Time_Shift_13
Note_On_82_Vel_75
Time_Shift_135
Note_On_56_Vel_0
Time_Shift_8
Note_On_56_Vel_57
Time_Shift_55
Note_On_81_Vel_76
Time_Shift_75
Note_On_53_Vel_0
Time_Shift_6
Note_On_53_Vel_55
Time_Shift_107
Note_On_80_Vel_77
Time_Shift_33
Note_On_58_Vel_0
Time_Shift_6
Note_On_58_Vel_35
Time_Shift_2
Note_On_46_Vel_0
Time_Shift_9
Note_On_46_Vel_43
Time_Shift_160
Note_On_77_Vel_71
Time_Shift_43
Note_On_38_Vel_42
Time_Shift_172
Note_On_46_Vel_0
Time_Shift_11
Note_On_46_Vel_58
Time_Shift_2
Note_On_73_Vel_58
Time_Shift_133
Note_On_53_Vel_0
Time_Shift_5
Note_On_53_Vel_40
Time_Shift_69
Note_On_71_Vel_71
Time_Shift_57
Note_On_56_Vel_0
Time_Shift_3
Note_On_56_Vel_56
Time_Shift_158
Note_On_70_Vel_65
Time_Shift_15
Note_On_58_Vel_0
Time_Shift_11
Note_On_58_Vel_53
Time_Shift_150
Note_On_56_Vel_0
Time_Shift_9
Note_On_56_Vel_50
Time_Shift_74
Note_On_61_Vel_62
Time_Shift_156
Note_On_46_Vel_0
Note_On_53_Vel_0
Time_Shift_7
Note_On_53_Vel_35
Time_Shift_3
Note_On_46_Vel_31
Time_Shift_124
Note_On_59_Vel_72
Time_Shift_280
Note_On_58_Vel_0
Time_Shift_4
Note_On_39_Vel_49
Time_Shift_1
Note_On_58_Vel_66
Time_Shift_2
Note_On_73_Vel_0
Time_Shift_3
Note_On_82_Vel_0
Note_On_61_Vel_0
Note_On_70_Vel_0
Time_Shift_1
Note_On_46_Vel_0
Note_On_38_Vel_0
Time_Shift_1
Note_On_53_Vel_0
Note_On_77_Vel_0
Sustain_Off
Note_On_75_Vel_0
Note_On_56_Vel_0
Note_On_80_Vel_0
Time_Shift_1
Note_On_74_Vel_0
Note_On_83_Vel_0
Time_Shift_5
Note_On_81_Vel_0
Time_Shift_8
Note_On_71_Vel_0
Time_Shift_3
Note_On_59_Vel_0
Time_Shift_2
Note_On_34_Vel_0
Time_Shift_161
Sustain_On
Time_Shift_79
Note_On_46_Vel_44
Time_Shift_89
Note_On_62_Vel_64
Time_Shift_118
Note_On_51_Vel_49
Time_Shift_120
Note_On_63_Vel_67
Time_Shift_38
Note_On_54_Vel_45
Time_Shift_140
Note_On_58_Vel_0
Time_Shift_7
Note_On_58_Vel_58
Time_Shift_14
Note_On_65_Vel_65
Time_Shift_140
Note_On_54_Vel_0
Time_Shift_11
Note_On_54_Vel_49
Time_Shift_48
Note_On_66_Vel_68
Time_Shift_64
Note_On_51_Vel_0
Time_Shift_6
Note_On_51_Vel_44
Time_Shift_123
Note_On_69_Vel_72
Time_Shift_17
Note_On_46_Vel_0
Time_Shift_4
Note_On_46_Vel_39
Time_Shift_157
Note_On_46_Vel_0
Time_Shift_1
Note_On_58_Vel_0
Note_On_54_Vel_0
Time_Shift_1
Note_On_51_Vel_0
Note_On_65_Vel_0
Sustain_Off
Note_On_39_Vel_0
Time_Shift_1
Note_On_66_Vel_0
Note_On_63_Vel_0
Note_On_62_Vel_0
Time_Shift_6
Note_On_69_Vel_0
Time_Shift_4
Note_On_38_Vel_47
Time_Shift_6
Note_On_70_Vel_70
Time_Shift_73
Sustain_On
Time_Shift_103
Note_On_46_Vel_49
Time_Shift_40
Note_On_71_Vel_70
Time_Shift_100
Note_On_53_Vel_45
Time_Shift_102
Note_On_69_Vel_66
Time_Shift_30
Note_On_56_Vel_55
Time_Shift_178
Note_On_70_Vel_0
Time_Shift_4
Note_On_70_Vel_68
Time_Shift_7
Note_On_58_Vel_54
Time_Shift_143
Note_On_56_Vel_0
Time_Shift_5
Note_On_56_Vel_51
Time_Shift_65
Note_On_61_Vel_67
Time_Shift_61
Note_On_70_Vel_0
Time_Shift_10
Note_On_70_Vel_48
Time_Shift_59
Note_On_53_Vel_0
Time_Shift_4
Note_On_53_Vel_42
Time_Shift_5
Note_On_45_Vel_35
Time_Shift_6
Note_On_45_Vel_0
Time_Shift_92
Note_On_71_Vel_0
Time_Shift_4
Note_On_59_Vel_73
Note_On_71_Vel_59
Time_Shift_169
Note_On_46_Vel_0
Time_Shift_1
Note_On_53_Vel_0
Note_On_61_Vel_0
Note_On_56_Vel_0
Note_On_71_Vel_0
Time_Shift_4
Sustain_Off
Time_Shift_22
Note_On_38_Vel_0
Note_On_69_Vel_0
Note_On_70_Vel_0
Time_Shift_8
Note_On_58_Vel_0
Time_Shift_3
Note_On_70_Vel_61
Note_On_58_Vel_70
Time_Shift_1
Note_On_39_Vel_53
Time_Shift_32
Note_On_59_Vel_0
Time_Shift_140
Sustain_On
Time_Shift_55
Note_On_46_Vel_49
Time_Shift_27
Note_On_62_Vel_70
Time_Shift_127
Note_On_51_Vel_46
Time_Shift_53
Note_On_65_Vel_71
Time_Shift_82
Note_On_54_Vel_51
Time_Shift_114
Note_On_63_Vel_73
Time_Shift_11
Note_On_58_Vel_0
Time_Shift_6
Note_On_58_Vel_58
Time_Shift_147
Note_On_54_Vel_0
Time_Shift_5
Note_On_54_Vel_48
Time_Shift_44
Note_On_75_Vel_77
Time_Shift_82
Note_On_51_Vel_0
Time_Shift_7
Note_On_51_Vel_41
Time_Shift_105
Note_On_69_Vel_75
Time_Shift_26
Note_On_46_Vel_0
Time_Shift_6
Note_On_46_Vel_49
Time_Shift_121
Sustain_Off
Note_On_46_Vel_0
Time_Shift_2
Note_On_54_Vel_0
Note_On_51_Vel_0
Time_Shift_1
Note_On_62_Vel_0
Note_On_39_Vel_0
Note_On_63_Vel_0
Time_Shift_1
Note_On_65_Vel_0
Time_Shift_1
Note_On_75_Vel_0
Time_Shift_19
Note_On_38_Vel_46
Time_Shift_3
Note_On_58_Vel_0
Note_On_70_Vel_0
Time_Shift_4
Note_On_70_Vel_71
Time_Shift_11
Note_On_69_Vel_0
Time_Shift_69
Sustain_On
Time_Shift_73
Note_On_46_Vel_50
Time_Shift_46
Note_On_73_Vel_72
Time_Shift_94
Note_On_53_Vel_44
Time_Shift_98
Note_On_71_Vel_75
Time_Shift_23
Note_On_56_Vel_58
Time_Shift_173
Note_On_70_Vel_0
Time_Shift_6
Note_On_58_Vel_54
Time_Shift_5
Note_On_70_Vel_71
Time_Shift_104
Note_On_56_Vel_0
Time_Shift_9
Note_On_56_Vel_53
Time_Shift_91
Note_On_63_Vel_74
Time_Shift_77
Note_On_53_Vel_0
Time_Shift_5
Note_On_53_Vel_50
Time_Shift_90
Note_On_65_Vel_70
Time_Shift_35
Note_On_46_Vel_0
Time_Shift_8
Note_On_58_Vel_0
Time_Shift_3
Note_On_46_Vel_59
Time_Shift_8
Note_On_58_Vel_57
Time_Shift_115
Note_On_38_Vel_0
Note_On_71_Vel_0
Note_On_58_Vel_0
Note_On_56_Vel_0
Note_On_73_Vel_0
Time_Shift_1
Note_On_53_Vel_0
Note_On_63_Vel_0
Time_Shift_1
Note_On_65_Vel_0
Time_Shift_1
Sustain_Off
Time_Shift_20
Note_On_66_Vel_69
Time_Shift_5
Note_On_46_Vel_0
Note_On_39_Vel_57
Time_Shift_7
Note_On_70_Vel_0
Time_Shift_93
Sustain_On
Time_Shift_65
Note_On_46_Vel_56
Time_Shift_58
Note_On_62_Vel_73
Time_Shift_95
Note_On_51_Vel_58
Time_Shift_100
Note_On_63_Vel_73
Time_Shift_31
Note_On_54_Vel_52
Time_Shift_142
Note_On_66_Vel_0
Time_Shift_4
Note_On_58_Vel_56
Time_Shift_2
Note_On_66_Vel_63
Time_Shift_155
Note_On_54_Vel_0
Time_Shift_8
Note_On_54_Vel_51
Time_Shift_14
Note_On_70_Vel_69
Time_Shift_86
Note_On_51_Vel_0
Time_Shift_5
Note_On_51_Vel_47
Time_Shift_99
Note_On_71_Vel_74
Time_Shift_19
Note_On_46_Vel_0
Time_Shift_10
Note_On_46_Vel_51
Time_Shift_144
Note_On_46_Vel_0
Time_Shift_1
Note_On_39_Vel_0
Note_On_51_Vel_0
Note_On_54_Vel_0
Note_On_63_Vel_0
Sustain_Off
Note_On_58_Vel_0
Time_Shift_1
Note_On_70_Vel_0
Note_On_66_Vel_0
Time_Shift_1
Note_On_62_Vel_0
Time_Shift_9
Note_On_40_Vel_50
Time_Shift_6
Note_On_72_Vel_72
Time_Shift_12
Note_On_71_Vel_0
Time_Shift_77
Sustain_On
Time_Shift_82
Note_On_48_Vel_55
Time_Shift_38
Note_On_73_Vel_69
Time_Shift_83
Note_On_55_Vel_52
Time_Shift_100
Note_On_71_Vel_77
Time_Shift_24
Note_On_58_Vel_60
Time_Shift_172
Note_On_72_Vel_0
Time_Shift_4
Note_On_72_Vel_72
Time_Shift_4
Note_On_60_Vel_66
Time_Shift_123
Note_On_58_Vel_0
Time_Shift_9
Note_On_58_Vel_52
Time_Shift_58
Note_On_63_Vel_71
Time_Shift_109
Note_On_55_Vel_0
Time_Shift_11
Note_On_55_Vel_49
Time_Shift_77
Note_On_61_Vel_75
Time_Shift_20
Note_On_48_Vel_0
Time_Shift_11
Note_On_48_Vel_52
Time_Shift_150
Note_On_60_Vel_0
Time_Shift_2
Sustain_Off
Time_Shift_1
Note_On_63_Vel_0
Note_On_55_Vel_0
Note_On_73_Vel_0
Note_On_71_Vel_0
Note_On_48_Vel_0
Note_On_61_Vel_0
Note_On_72_Vel_0
Time_Shift_1
Note_On_58_Vel_0
Time_Shift_3
Note_On_60_Vel_78
Note_On_41_Vel_63
Time_Shift_8
Note_On_40_Vel_0
Time_Shift_100
Sustain_On
Time_Shift_96
Note_On_48_Vel_48
Time_Shift_47
Note_On_64_Vel_72
Time_Shift_86
Note_On_53_Vel_55
Time_Shift_97
Note_On_67_Vel_74
Time_Shift_33
Note_On_56_Vel_58
Time_Shift_148
Note_On_60_Vel_0
Time_Shift_8
Note_On_65_Vel_73
Time_Shift_4
Note_On_60_Vel_66
Time_Shift_14
Note_On_41_Vel_0
Sustain_Off
Note_On_53_Vel_0
Note_On_56_Vel_0
Note_On_64_Vel_0
Time_Shift_1
Note_On_67_Vel_0
Time_Shift_88
Sustain_On
Time_Shift_37
Note_On_56_Vel_54
Time_Shift_85
Note_On_77_Vel_79
Time_Shift_75
Note_On_53_Vel_56
Time_Shift_118
Note_On_48_Vel_0
Time_Shift_10
Note_On_71_Vel_81
Time_Shift_1
Note_On_48_Vel_50
Time_Shift_184
Note_On_40_Vel_60
Time_Shift_1
Note_On_72_Vel_74
Time_Shift_1
Note_On_48_Vel_0
Note_On_53_Vel_0
Note_On_56_Vel_0
Time_Shift_1
Note_On_65_Vel_0
Time_Shift_2
Note_On_77_Vel_0
Time_Shift_2
Note_On_71_Vel_0
Time_Shift_3
Sustain_Off
Time_Shift_3
Note_On_60_Vel_0
Time_Shift_69
Sustain_On
Time_Shift_131
Note_On_48_Vel_56
Time_Shift_34
Note_On_75_Vel_74
Time_Shift_169
Note_On_55_Vel_59
Time_Shift_98
Note_On_73_Vel_72
Time_Shift_72
Note_On_58_Vel_60
Time_Shift_156
Note_On_72_Vel_0
Time_Shift_4
Note_On_72_Vel_73
Time_Shift_23
Note_On_60_Vel_58
Time_Shift_127
Note_On_58_Vel_0
Time_Shift_4
Note_On_58_Vel_53
Time_Shift_62
Note_On_67_Vel_73
Time_Shift_126
Note_On_55_Vel_0
Time_Shift_4
Note_On_55_Vel_48
Time_Shift_92
Note_On_70_Vel_73
Time_Shift_65
Note_On_48_Vel_0
Time_Shift_10
Note_On_48_Vel_59
Time_Shift_169
Note_On_69_Vel_65
Time_Shift_7
Note_On_41_Vel_63
Time_Shift_21
Note_On_40_Vel_0
Time_Shift_1
Sustain_Off
Time_Shift_3
Note_On_55_Vel_0
Note_On_58_Vel_0
Note_On_73_Vel_0
Note_On_75_Vel_0
Time_Shift_1
Note_On_67_Vel_0
Note_On_70_Vel_0
Note_On_72_Vel_0
Time_Shift_1
Note_On_48_Vel_0
Note_On_60_Vel_0
Time_Shift_64
Sustain_On
Time_Shift_116
Note_On_48_Vel_57
Time_Shift_60
Note_On_64_Vel_70
Time_Shift_117
Note_On_51_Vel_55
Time_Shift_91
Note_On_65_Vel_72
Time_Shift_80
Note_On_57_Vel_52
Time_Shift_116
Note_On_66_Vel_71
Time_Shift_27
Note_On_60_Vel_59
Time_Shift_145
Note_On_57_Vel_0
Time_Shift_12
Note_On_57_Vel_60
Time_Shift_76
Note_On_63_Vel_72
Time_Shift_58
Note_On_51_Vel_0
Time_Shift_5
Note_On_51_Vel_53
Time_Shift_150
Note_On_70_Vel_70
Time_Shift_14
Note_On_48_Vel_0
Time_Shift_5
Note_On_48_Vel_53
Time_Shift_179
Note_On_41_Vel_0
Note_On_69_Vel_0
Time_Shift_3
Note_On_64_Vel_0
Note_On_63_Vel_0
Note_On_51_Vel_0
Note_On_60_Vel_0
Note_On_66_Vel_0
Note_On_65_Vel_0
Time_Shift_1
Note_On_57_Vel_0
Note_On_70_Vel_0
Time_Shift_1
Note_On_69_Vel_69
Time_Shift_3
Note_On_41_Vel_58
Time_Shift_1
Sustain_Off
Time_Shift_14
Note_On_48_Vel_0
Time_Shift_47
Sustain_On
Time_Shift_103
Note_On_48_Vel_52
Time_Shift_43
Note_On_64_Vel_72
Time_Shift_118
Note_On_51_Vel_60
Time_Shift_83
Note_On_65_Vel_74
Time_Shift_55
Note_On_57_Vel_63
Time_Shift_134
Note_On_66_Vel_71
Time_Shift_5
Note_On_60_Vel_66
Time_Shift_142
Note_On_57_Vel_0
Time_Shift_4
Note_On_57_Vel_46
Time_Shift_55
Note_On_63_Vel_79
Time_Shift_64
Note_On_51_Vel_0
Time_Shift_4
Note_On_51_Vel_45
Time_Shift_132
Note_On_72_Vel_80
Time_Shift_33
Note_On_48_Vel_0
Time_Shift_11
Note_On_48_Vel_61
Time_Shift_158
Note_On_41_Vel_0
Time_Shift_2
Sustain_Off
Note_On_51_Vel_0
Note_On_63_Vel_0
Time_Shift_1
Note_On_60_Vel_0
Note_On_65_Vel_0
Note_On_48_Vel_0
Note_On_57_Vel_0
Note_On_64_Vel_0
Note_On_69_Vel_0
Time_Shift_2
Note_On_66_Vel_0
Time_Shift_3
Note_On_72_Vel_0
Time_Shift_3
Note_On_71_Vel_75
Note_On_41_Vel_64
Time_Shift_73
Sustain_On
Time_Shift_163
Note_On_50_Vel_59
Time_Shift_34
Note_On_66_Vel_71
Time_Shift_125
Note_On_53_Vel_56
Time_Shift_72
Note_On_67_Vel_77
Time_Shift_73
Note_On_59_Vel_66
Time_Shift_121
Note_On_68_Vel_78
Time_Shift_21
Note_On_62_Vel_61
Time_Shift_129
Note_On_71_Vel_0
Time_Shift_7
Note_On_71_Vel_58
Time_Shift_49
Note_On_65_Vel_75
Time_Shift_113
Note_On_53_Vel_0
Time_Shift_9
Note_On_53_Vel_55
Time_Shift_75
Note_On_72_Vel_84
Time_Shift_38
Note_On_50_Vel_0
Time_Shift_10
Note_On_50_Vel_61
Time_Shift_152
Note_On_41_Vel_0
Note_On_71_Vel_0
Time_Shift_2
Note_On_66_Vel_0
Note_On_62_Vel_0
Time_Shift_1
Note_On_53_Vel_0
Note_On_67_Vel_0
Note_On_68_Vel_0
Note_On_65_Vel_0
Note_On_50_Vel_0
Time_Shift_1
Sustain_Off
Note_On_41_Vel_61
Time_Shift_2
Note_On_72_Vel_0
Time_Shift_4
Note_On_71_Vel_73
Time_Shift_20
Note_On_59_Vel_0
Time_Shift_47
Sustain_On
Time_Shift_140
Note_On_50_Vel_59
Time_Shift_31
Note_On_66_Vel_74
Time_Shift_162
Note_On_53_Vel_50
Time_Shift_61
Note_On_67_Vel_76
Time_Shift_66
Note_On_55_Vel_55
Time_Shift_170
Note_On_68_Vel_81
Note_On_59_Vel_61
Time_Shift_130
Note_On_55_Vel_0
Time_Shift_9
Note_On_55_Vel_51
Time_Shift_102
Note_On_65_Vel_79
Time_Shift_89
Note_On_53_Vel_0
Time_Shift_4
Note_On_53_Vel_44
Time_Shift_215
Note_On_80_Vel_86
Time_Shift_34
Note_On_50_Vel_0
Time_Shift_10
Note_On_50_Vel_54
Time_Shift_228
Note_On_41_Vel_0
Time_Shift_4
Note_On_79_Vel_75
Time_Shift_2
Note_On_41_Vel_65
Time_Shift_34
Sustain_Off
Time_Shift_1
Note_On_59_Vel_0
Note_On_65_Vel_0
Note_On_53_Vel_0
Note_On_50_Vel_0
Time_Shift_1
Note_On_55_Vel_0
Note_On_71_Vel_0
Note_On_68_Vel_0
Time_Shift_3
Note_On_67_Vel_0
Time_Shift_3
Note_On_66_Vel_0
Time_Shift_75
Sustain_On
Time_Shift_204
Note_On_49_Vel_60
Time_Shift_49
Note_On_80_Vel_0
Time_Shift_23
Note_On_77_Vel_80
Time_Shift_165
Note_On_53_Vel_56
Time_Shift_89
Note_On_76_Vel_77
Time_Shift_77
Note_On_58_Vel_65
Time_Shift_153
Note_On_77_Vel_0
Time_Shift_6
Note_On_77_Vel_80
Time_Shift_13
Note_On_61_Vel_64
Time_Shift_173
Note_On_58_Vel_0
Time_Shift_8
Note_On_58_Vel_53
Time_Shift_52
Note_On_75_Vel_81
Time_Shift_125
Note_On_53_Vel_0
Time_Shift_10
Note_On_53_Vel_51
Time_Shift_83
Note_On_73_Vel_77
Time_Shift_37
Note_On_49_Vel_0
Time_Shift_5
Note_On_49_Vel_52
Time_Shift_164
Note_On_41_Vel_0
Time_Shift_8
Note_On_41_Vel_53
Note_On_75_Vel_0
Time_Shift_10
Note_On_75_Vel_78
Time_Shift_2
Sustain_Off
Time_Shift_3
Note_On_53_Vel_0
Time_Shift_1
Note_On_73_Vel_0
Note_On_61_Vel_0
Time_Shift_1
Note_On_58_Vel_0
Note_On_79_Vel_0
Time_Shift_1
Note_On_76_Vel_0
Note_On_77_Vel_0
Note_On_49_Vel_0
Time_Shift_82
Sustain_On
Time_Shift_111
Note_On_49_Vel_47
Time_Shift_65
Note_On_73_Vel_70
Time_Shift_119
Note_On_53_Vel_38
Time_Shift_122
Note_On_72_Vel_76
Time_Shift_53
Note_On_58_Vel_47
Time_Shift_175
Note_On_61_Vel_45
Time_Shift_1
Note_On_70_Vel_66
Time_Shift_183
Note_On_58_Vel_0
Time_Shift_5
Note_On_58_Vel_36
Time_Shift_56
Note_On_53_Vel_0
Time_Shift_7
Note_On_53_Vel_36
Time_Shift_22
Note_On_68_Vel_68
Time_Shift_125
Note_On_53_Vel_0
Time_Shift_7
Note_On_53_Vel_36
Time_Shift_138
Note_On_66_Vel_63
Time_Shift_62
Note_On_49_Vel_0
Time_Shift_5
Note_On_49_Vel_39
Time_Shift_234
Note_On_41_Vel_0
Time_Shift_1
Note_On_65_Vel_57
Time_Shift_9
Note_On_41_Vel_35
Time_Shift_8
Note_On_49_Vel_0
Note_On_58_Vel_0
Note_On_53_Vel_0
Note_On_61_Vel_0
Note_On_72_Vel_0
Note_On_73_Vel_0
Note_On_70_Vel_0
Note_On_68_Vel_0
Sustain_Off
Time_Shift_12
Note_On_75_Vel_0
Time_Shift_8
Note_On_66_Vel_0
Time_Shift_84
Sustain_On
Time_Shift_144
Note_On_48_Vel_34
Time_Shift_160
Note_On_64_Vel_59
Time_Shift_170
Note_On_55_Vel_46
Time_Shift_135
Note_On_71_Vel_69
Time_Shift_89
Note_On_58_Vel_43
Time_Shift_212
Note_On_73_Vel_64
Time_Shift_2
Note_On_60_Vel_43
Time_Shift_217
Note_On_58_Vel_0
Time_Shift_10
Note_On_58_Vel_46
Time_Shift_52
Note_On_72_Vel_73
Time_Shift_130
Note_On_55_Vel_0
Time_Shift_10
Note_On_55_Vel_42
Time_Shift_114
Note_On_74_Vel_67
Time_Shift_53
Note_On_48_Vel_0
Time_Shift_12
Note_On_48_Vel_33
Time_Shift_182
Note_On_73_Vel_0
Time_Shift_1
Note_On_60_Vel_0
Note_On_55_Vel_0
Note_On_65_Vel_0
Note_On_58_Vel_0
Note_On_64_Vel_0
Note_On_72_Vel_0
Note_On_71_Vel_0
Time_Shift_1
Note_On_48_Vel_0
Sustain_Off
Note_On_74_Vel_0
Time_Shift_19
Note_On_41_Vel_0
Time_Shift_10
Note_On_77_Vel_60
Time_Shift_1
Note_On_41_Vel_38
Time_Shift_89
Sustain_On
Time_Shift_111
Note_On_48_Vel_35
Time_Shift_110
Note_On_76_Vel_56
Time_Shift_106
Note_On_55_Vel_32
Time_Shift_172
Note_On_77_Vel_0
Time_Shift_9
Note_On_77_Vel_62
Time_Shift_57
Note_On_58_Vel_41
Time_Shift_292
Sustain_Off
Time_Shift_7
Note_On_58_Vel_0
Time_Shift_8
Note_On_80_Vel_59
Time_Shift_7
Note_On_76_Vel_0
Time_Shift_1
Note_On_60_Vel_38
Time_Shift_3
Sustain_On
Time_Shift_77
Note_On_55_Vel_0
Time_Shift_208
Note_On_58_Vel_38
Time_Shift_57
Note_On_79_Vel_51
Time_Shift_226
Note_On_55_Vel_30
Time_Shift_223
Note_On_80_Vel_0
Time_Shift_5
Note_On_80_Vel_48
Time_Shift_80
Note_On_48_Vel_0
Time_Shift_4
Note_On_48_Vel_29
Time_Shift_287
Note_On_77_Vel_0
Time_Shift_4
Note_On_48_Vel_0
Note_On_58_Vel_0
Time_Shift_1
Note_On_60_Vel_0
Note_On_55_Vel_0
Note_On_80_Vel_0
Note_On_79_Vel_0
Time_Shift_1
Sustain_Off
Time_Shift_5
Note_On_77_Vel_48
Time_Shift_5
Note_On_41_Vel_0
Time_Shift_4
Note_On_41_Vel_27
Time_Shift_119
Sustain_On
Time_Shift_141
Note_On_48_Vel_33
Time_Shift_180
Note_On_53_Vel_29
Time_Shift_153
Note_On_56_Vel_38
Time_Shift_145
Note_On_60_Vel_43
Time_Shift_164
Note_On_56_Vel_0
Time_Shift_11
Note_On_56_Vel_35
Time_Shift_166
Note_On_53_Vel_0
Time_Shift_10
Note_On_53_Vel_31
Time_Shift_159
Note_On_48_Vel_0
Time_Shift_8
Note_On_48_Vel_36
Time_Shift_207
Note_On_41_Vel_0
Time_Shift_4
Note_On_75_Vel_40
Time_Shift_5
Note_On_41_Vel_28
Time_Shift_27
Sustain_Off
Time_Shift_4
Note_On_53_Vel_0
Time_Shift_1
Note_On_48_Vel_0
Note_On_60_Vel_0
Time_Shift_1
Note_On_56_Vel_0
Time_Shift_1
Note_On_77_Vel_0
Time_Shift_133
Sustain_On
Time_Shift_110
Note_On_48_Vel_29
Time_Shift_124
Note_On_77_Vel_49
Time_Shift_123
Note_On_53_Vel_29
Time_Shift_135
Note_On_75_Vel_0
Time_Shift_11
Note_On_75_Vel_41
Time_Shift_58
Note_On_56_Vel_38
Time_Shift_184
Note_On_77_Vel_0
Time_Shift_5
Note_On_77_Vel_47
Time_Shift_6
Note_On_60_Vel_36
Time_Shift_189
Note_On_56_Vel_0
Time_Shift_9
Note_On_56_Vel_34
Time_Shift_45
Note_On_75_Vel_0
Time_Shift_4
Note_On_75_Vel_41
Time_Shift_126
Note_On_53_Vel_0
Time_Shift_4
Note_On_53_Vel_26
Time_Shift_104
Note_On_77_Vel_0
Time_Shift_5
Note_On_77_Vel_53
Time_Shift_41
Note_On_48_Vel_0
Time_Shift_6
Note_On_48_Vel_33
Time_Shift_193
Note_On_73_Vel_48
Time_Shift_1
Note_On_41_Vel_0
Time_Shift_6
Note_On_60_Vel_0
Note_On_75_Vel_0
Time_Shift_2
Note_On_56_Vel_0
Note_On_48_Vel_0
Note_On_53_Vel_0
Note_On_41_Vel_33
Time_Shift_2
Note_On_77_Vel_0
Time_Shift_3
Sustain_Off
Time_Shift_117
Sustain_On
Time_Shift_95
Note_On_49_Vel_32
Time_Shift_42
Note_On_75_Vel_47
Time_Shift_113
Note_On_53_Vel_28
Time_Shift_103
Note_On_73_Vel_0
Time_Shift_6
Note_On_73_Vel_49
Time_Shift_83
Note_On_56_Vel_31
Time_Shift_119
Note_On_75_Vel_0
Time_Shift_11
Note_On_75_Vel_46
Time_Shift_26
Note_On_61_Vel_39
Time_Shift_170
Note_On_56_Vel_0
Time_Shift_6
Note_On_56_Vel_36
Time_Shift_25
Note_On_73_Vel_0
Time_Shift_11
Note_On_73_Vel_48
Time_Shift_150
Note_On_53_Vel_0
Time_Shift_4
Note_On_53_Vel_25
Time_Shift_73
Note_On_75_Vel_0
Time_Shift_7
Note_On_75_Vel_45
Time_Shift_70
Note_On_49_Vel_0
Time_Shift_11
Note_On_49_Vel_30
Time_Shift_165
Note_On_41_Vel_0
Time_Shift_10
Note_On_71_Vel_57
Time_Shift_1
Note_On_41_Vel_28
Time_Shift_2
Sustain_Off
Time_Shift_3
Note_On_49_Vel_0
Time_Shift_1
Note_On_53_Vel_0
Time_Shift_1
Note_On_56_Vel_0
Note_On_75_Vel_0
Time_Shift_1
Note_On_61_Vel_0
Time_Shift_1
Note_On_73_Vel_0
Time_Shift_111
Sustain_On
Time_Shift_106
Note_On_49_Vel_29
Time_Shift_114
Note_On_73_Vel_53
Time_Shift_107
Note_On_53_Vel_30
Time_Shift_157
Note_On_71_Vel_0
Time_Shift_11
Note_On_71_Vel_57
Time_Shift_25
Note_On_56_Vel_29
Time_Shift_174
Note_On_61_Vel_32
Time_Shift_43
Note_On_73_Vel_0
Time_Shift_5
Note_On_73_Vel_51
Time_Shift_156
Note_On_56_Vel_0
Time_Shift_4
Note_On_56_Vel_34
Time_Shift_73
Note_On_71_Vel_0
Time_Shift_4
Note_On_71_Vel_54
Time_Shift_127
Note_On_53_Vel_0
Time_Shift_8
Note_On_53_Vel_33
Time_Shift_115
Note_On_73_Vel_0
Time_Shift_4
Note_On_73_Vel_52
Time_Shift_49
Note_On_49_Vel_0
Time_Shift_11
Note_On_49_Vel_27
Time_Shift_155
Note_On_61_Vel_0
Note_On_73_Vel_0
Note_On_56_Vel_0
Note_On_53_Vel_0
Note_On_71_Vel_0
Time_Shift_2
Sustain_Off
Time_Shift_1
Note_On_41_Vel_0
Time_Shift_11
Note_On_70_Vel_54
Time_Shift_5
Note_On_49_Vel_0
Time_Shift_2
Note_On_42_Vel_32
Time_Shift_59
Sustain_On
Time_Shift_164
Note_On_49_Vel_29
Time_Shift_31
Note_On_72_Vel_51
Time_Shift_134
Note_On_54_Vel_33
Time_Shift_86
Note_On_70_Vel_0
Time_Shift_6
Note_On_70_Vel_51
Time_Shift_79
Note_On_58_Vel_34
Time_Shift_138
Note_On_72_Vel_0
Time_Shift_4
Note_On_61_Vel_36
Time_Shift_1
Note_On_72_Vel_57
Time_Shift_179
Note_On_58_Vel_0
Time_Shift_5
Note_On_58_Vel_37
Time_Shift_56
Note_On_70_Vel_0
Time_Shift_12
Note_On_70_Vel_51
Time_Shift_104
Note_On_54_Vel_0
Time_Shift_5
Note_On_54_Vel_34
Time_Shift_118
Note_On_72_Vel_0
Time_Shift_4
Note_On_72_Vel_57
Time_Shift_19
Note_On_49_Vel_0
Time_Shift_11
Note_On_49_Vel_29
Time_Shift_223
Note_On_42_Vel_0
Note_On_54_Vel_0
Time_Shift_1
Note_On_58_Vel_0
Note_On_49_Vel_0
Time_Shift_1
Note_On_72_Vel_0
Time_Shift_1
Note_On_61_Vel_0
Time_Shift_1
Sustain_Off
Time_Shift_15
Note_On_70_Vel_0
Time_Shift_9
Note_On_43_Vel_35
Time_Shift_2
Note_On_70_Vel_48
Time_Shift_104
Sustain_On
Time_Shift_161
Note_On_48_Vel_30
Time_Shift_39
Note_On_72_Vel_51
Time_Shift_135
Note_On_52_Vel_39
Time_Shift_118
Note_On_70_Vel_0
Time_Shift_10
Note_On_70_Vel_49
Time_Shift_64
Note_On_58_Vel_32
Time_Shift_180
Note_On_72_Vel_0
Time_Shift_4
Note_On_72_Vel_48
Time_Shift_234
Note_On_52_Vel_0
Time_Shift_4
Sustain_Off
Note_On_43_Vel_0
Time_Shift_4
Note_On_70_Vel_0
Time_Shift_1
Note_On_58_Vel_0
Time_Shift_7
Note_On_70_Vel_53
Time_Shift_45
Note_On_48_Vel_0
Time_Shift_14
Note_On_72_Vel_0
Time_Shift_191
Note_On_65_Vel_46
Time_Shift_53
Note_On_70_Vel_0
Time_Shift_200
Note_On_67_Vel_53
Time_Shift_35
Note_On_65_Vel_0
Time_Shift_114
Sustain_On
Time_Shift_31
Sustain_Off
Time_Shift_83
Note_On_68_Vel_55
Time_Shift_39
Note_On_67_Vel_0
Time_Shift_31
Sustain_On
Time_Shift_191
Note_On_67_Vel_47
Time_Shift_10
Note_On_68_Vel_0
Time_Shift_14
Sustain_Off
Time_Shift_249
Note_On_68_Vel_50
Time_Shift_21
Note_On_67_Vel_0
Time_Shift_53
Sustain_On
Time_Shift_217
Note_On_67_Vel_44
Time_Shift_40
Note_On_68_Vel_0
Time_Shift_227
Sustain_Off
Time_Shift_57
Note_On_58_Vel_47
Time_Shift_70
Note_On_67_Vel_0
Time_Shift_313
Note_On_61_Vel_36
Time_Shift_6
Note_On_58_Vel_0
Time_Shift_268
Sustain_On
Time_Shift_768
Note_On_60_Vel_28
Time_Shift_22
Note_On_64_Vel_30
Time_Shift_5
Note_On_48_Vel_22
Time_Shift_1
Note_On_55_Vel_26
Time_Shift_2
Note_On_36_Vel_22
Time_Shift_3
Note_On_61_Vel_0
Time_Shift_44
Sustain_Off
Time_Shift_84
Sustain_On
Time_Shift_879
Note_On_65_Vel_22
Time_Shift_14
Note_On_64_Vel_0
Time_Shift_1
Note_On_55_Vel_0
Sustain_Off
Time_Shift_2
Note_On_36_Vel_0
Time_Shift_3
Note_On_60_Vel_0
Time_Shift_5
Note_On_60_Vel_25
Time_Shift_6
Note_On_56_Vel_23
Note_On_41_Vel_18
Time_Shift_4
Note_On_48_Vel_0
Time_Shift_338
Sustain_On
Time_Shift_1582
Note_On_56_Vel_0
Time_Shift_7
Note_On_56_Vel_30
Time_Shift_4
Note_On_53_Vel_24
Time_Shift_12
Note_On_41_Vel_0
Time_Shift_4
Note_On_48_Vel_17
Note_On_41_Vel_18
Time_Shift_326
Note_On_65_Vel_0
Time_Shift_722
Note_On_56_Vel_0
Time_Shift_7
Note_On_56_Vel_34
Time_Shift_1
Note_On_53_Vel_0
Time_Shift_4
Note_On_53_Vel_24
Time_Shift_4
Note_On_41_Vel_0
Note_On_48_Vel_0
Time_Shift_7
Note_On_60_Vel_0
Time_Shift_3
Note_On_48_Vel_18
Note_On_41_Vel_20
Time_Shift_1641
Note_On_56_Vel_0
Time_Shift_9
Note_On_56_Vel_31
Time_Shift_6
Note_On_53_Vel_0
Time_Shift_11
Note_On_53_Vel_22
Time_Shift_5
Note_On_41_Vel_0
Note_On_48_Vel_0
Time_Shift_4
Note_On_48_Vel_16
Time_Shift_4
Note_On_41_Vel_19
Time_Shift_2588
Note_On_41_Vel_0
Note_On_48_Vel_0
Note_On_53_Vel_0
Note_On_56_Vel_0
Time_Shift_1485
Sustain_Off
Time_Shift_2128
Note_On_44_Vel_31
Time_Shift_42
Sustain_On
Time_Shift_174
Note_On_72_Vel_46
Time_Shift_26
Note_On_44_Vel_0
Time_Shift_4
Note_On_68_Vel_28
Note_On_63_Vel_23
Note_On_44_Vel_23
Time_Shift_114
Note_On_51_Vel_22
Time_Shift_59
Note_On_72_Vel_0
Time_Shift_5
Note_On_72_Vel_51
Time_Shift_10
Note_On_63_Vel_0
Time_Shift_5
Note_On_44_Vel_0
Time_Shift_3
Note_On_68_Vel_0
Time_Shift_3
Note_On_63_Vel_36
Time_Shift_1
Note_On_68_Vel_39
Time_Shift_130
Sustain_Off
Note_On_68_Vel_0
Time_Shift_1
Note_On_63_Vel_0
Time_Shift_10
Note_On_51_Vel_0
Time_Shift_16
Note_On_72_Vel_0
Time_Shift_5
Note_On_72_Vel_49
Time_Shift_22
Note_On_63_Vel_27
Time_Shift_1
Note_On_68_Vel_37
Time_Shift_19
Note_On_39_Vel_28
Time_Shift_2
Note_On_51_Vel_24
Time_Shift_12
Sustain_On
Time_Shift_62
Note_On_68_Vel_0
Time_Shift_76
Note_On_70_Vel_48
Time_Shift_3
Note_On_61_Vel_38
Time_Shift_21
Note_On_51_Vel_0
Note_On_63_Vel_0
Time_Shift_4
Note_On_63_Vel_41
Time_Shift_3
Note_On_51_Vel_26
Time_Shift_146
Note_On_70_Vel_0
Time_Shift_8
Note_On_39_Vel_0
Note_On_51_Vel_0
Time_Shift_2
Note_On_70_Vel_51
Time_Shift_3
Note_On_51_Vel_36
Time_Shift_1
Note_On_39_Vel_28
Time_Shift_2
Note_On_61_Vel_0
Note_On_63_Vel_0
Time_Shift_3
Note_On_61_Vel_34
Time_Shift_2
Note_On_63_Vel_38
Time_Shift_111
Sustain_Off
Time_Shift_2
Note_On_72_Vel_0
Time_Shift_1
Note_On_63_Vel_0
Note_On_51_Vel_0
Note_On_70_Vel_0
Note_On_39_Vel_0
Note_On_61_Vel_0
Time_Shift_39
Note_On_70_Vel_48
Time_Shift_10
Note_On_61_Vel_39
Time_Shift_3
Note_On_32_Vel_33
Time_Shift_1
Note_On_63_Vel_39
Time_Shift_35
Sustain_On
Time_Shift_138
Note_On_63_Vel_0
Time_Shift_9
Note_On_68_Vel_48
Time_Shift_2
Note_On_63_Vel_38
Time_Shift_4
Note_On_61_Vel_0
Time_Shift_15
Note_On_60_Vel_39
Time_Shift_147
Note_On_60_Vel_0
Time_Shift_7
Note_On_63_Vel_0
Note_On_68_Vel_0
Time_Shift_1
Note_On_60_Vel_46
Time_Shift_5
Note_On_68_Vel_53
Time_Shift_4
Note_On_63_Vel_44
Time_Shift_8
Note_On_51_Vel_36
Time_Shift_117
Sustain_Off
Time_Shift_1
Note_On_51_Vel_0
Time_Shift_10
Note_On_70_Vel_0
Time_Shift_16
Note_On_32_Vel_0
Note_On_63_Vel_0
Note_On_68_Vel_0
Time_Shift_5
Note_On_68_Vel_52
Time_Shift_2
Note_On_60_Vel_0
Time_Shift_2
Note_On_63_Vel_35
Time_Shift_3
Note_On_60_Vel_41
Time_Shift_8
Note_On_39_Vel_25
Time_Shift_64
Sustain_On
Time_Shift_23
Note_On_60_Vel_0
Time_Shift_85
Note_On_63_Vel_0
Time_Shift_1
Note_On_60_Vel_47
Time_Shift_3
Note_On_63_Vel_53
Time_Shift_142
Note_On_39_Vel_0
Time_Shift_5
Note_On_39_Vel_24
Time_Shift_33
Note_On_39_Vel_0
Note_On_63_Vel_0
Time_Shift_6
Note_On_61_Vel_42
Time_Shift_3
Note_On_39_Vel_32
Time_Shift_1
Note_On_60_Vel_0
Time_Shift_1
Note_On_63_Vel_50
Time_Shift_1
Note_On_58_Vel_39
Time_Shift_110
Sustain_Off
Time_Shift_1
Note_On_39_Vel_0
Time_Shift_2
Note_On_63_Vel_0
Time_Shift_1
Note_On_68_Vel_0
Time_Shift_3
Note_On_58_Vel_0
Time_Shift_63
Note_On_61_Vel_0
Time_Shift_1
Note_On_32_Vel_35
Time_Shift_3
Note_On_63_Vel_48
Time_Shift_6
Note_On_61_Vel_38
Time_Shift_36
Sustain_On
Time_Shift_131
Note_On_63_Vel_0
Time_Shift_10
Note_On_63_Vel_49
Note_On_68_Vel_45
Time_Shift_3
Note_On_60_Vel_27
Time_Shift_114
Note_On_51_Vel_32
Time_Shift_57
Note_On_60_Vel_0
Note_On_63_Vel_0
Note_On_68_Vel_0
Time_Shift_4
Note_On_68_Vel_50
Time_Shift_2
Note_On_63_Vel_45
Time_Shift_1
Note_On_60_Vel_42
Time_Shift_137
Note_On_61_Vel_0
Time_Shift_3
Note_On_32_Vel_0
Sustain_Off
Time_Shift_22
Note_On_51_Vel_0
Note_On_60_Vel_0
Note_On_63_Vel_0
Note_On_68_Vel_0
Time_Shift_6
Note_On_68_Vel_58
Time_Shift_4
Note_On_60_Vel_43
Note_On_63_Vel_46
Time_Shift_30
Note_On_39_Vel_25
Time_Shift_18
Note_On_60_Vel_0
Time_Shift_35
Note_On_63_Vel_0
Time_Shift_30
Sustain_On
Time_Shift_69
Note_On_68_Vel_0
Time_Shift_1
Note_On_70_Vel_54
Time_Shift_6
Note_On_68_Vel_46
Time_Shift_13
Note_On_63_Vel_45
Time_Shift_106
Note_On_51_Vel_37
Time_Shift_43
Note_On_70_Vel_0
Time_Shift_11
Note_On_70_Vel_56
Time_Shift_4
Note_On_63_Vel_0
Time_Shift_11
Note_On_63_Vel_48
Time_Shift_9
Note_On_67_Vel_42
Time_Shift_142
Note_On_67_Vel_0
Time_Shift_1
Sustain_Off
Time_Shift_1
Note_On_39_Vel_0
Note_On_68_Vel_0
Time_Shift_21
Note_On_51_Vel_0
Note_On_70_Vel_0
Time_Shift_7
Note_On_63_Vel_0
Time_Shift_3
Note_On_70_Vel_56
Time_Shift_5
Note_On_67_Vel_39
Time_Shift_2
Note_On_63_Vel_47
Time_Shift_9
Note_On_44_Vel_43
Time_Shift_66
Sustain_On
Time_Shift_107
Note_On_70_Vel_0
Time_Shift_5
Note_On_70_Vel_48
Time_Shift_3
Note_On_63_Vel_0
Time_Shift_4
Note_On_72_Vel_52
Time_Shift_4
Note_On_67_Vel_0
Time_Shift_3
Note_On_63_Vel_40
Time_Shift_5
Note_On_68_Vel_35
Time_Shift_133
Note_On_51_Vel_33
Time_Shift_35
Note_On_72_Vel_0
Time_Shift_4
Note_On_72_Vel_56
Time_Shift_4
Note_On_68_Vel_0
Time_Shift_8
Note_On_63_Vel_0
Time_Shift_3
Note_On_68_Vel_46
Time_Shift_1
Note_On_63_Vel_44
Time_Shift_163
Sustain_Off
Note_On_70_Vel_0
Note_On_63_Vel_0
Time_Shift_1
Note_On_51_Vel_0
Note_On_44_Vel_0
Time_Shift_8
Note_On_72_Vel_0
Time_Shift_8
Note_On_72_Vel_54
Time_Shift_8
Note_On_68_Vel_0
Time_Shift_10
Note_On_68_Vel_42
Time_Shift_2
Note_On_44_Vel_34
Note_On_66_Vel_34
Note_On_56_Vel_35
Time_Shift_72
Sustain_On
Time_Shift_8
Note_On_66_Vel_0
Time_Shift_31
Note_On_44_Vel_0
Time_Shift_82
Note_On_73_Vel_44
Time_Shift_10
Note_On_56_Vel_0
Note_On_68_Vel_0
Time_Shift_8
Note_On_68_Vel_39
Time_Shift_3
Note_On_56_Vel_31
Time_Shift_1
Note_On_66_Vel_24
Time_Shift_68
Note_On_72_Vel_0
Time_Shift_2
Note_On_68_Vel_0
Time_Shift_4
Sustain_Off
Time_Shift_32
Note_On_63_Vel_30
Time_Shift_35
Note_On_66_Vel_0
Time_Shift_16
Sustain_On
Time_Shift_32
Note_On_75_Vel_48
Time_Shift_2
Note_On_66_Vel_29
Time_Shift_1
Note_On_68_Vel_37
Time_Shift_14
Note_On_44_Vel_25
Time_Shift_173
Note_On_73_Vel_0
Time_Shift_5
Note_On_66_Vel_0
Note_On_68_Vel_0
Note_On_63_Vel_0
Time_Shift_1
Sustain_Off
Note_On_44_Vel_0
Time_Shift_10
Note_On_56_Vel_0
Time_Shift_7
Note_On_75_Vel_0
Time_Shift_10
Note_On_75_Vel_44
Time_Shift_6
Note_On_68_Vel_43
Time_Shift_12
Note_On_49_Vel_25
Time_Shift_42
Sustain_On
Time_Shift_130
Note_On_68_Vel_0
Time_Shift_9
Note_On_68_Vel_28
Time_Shift_4
Sustain_Off
Time_Shift_46
Note_On_77_Vel_53
Time_Shift_3
Note_On_68_Vel_0
Time_Shift_4
Note_On_68_Vel_31
Time_Shift_3
Note_On_49_Vel_0
Time_Shift_2
Note_On_65_Vel_32
Time_Shift_3
Note_On_75_Vel_0
Time_Shift_1
Note_On_49_Vel_25
Time_Shift_2
Sustain_On
Time_Shift_104
Note_On_56_Vel_29
Time_Shift_119
Note_On_77_Vel_0
Time_Shift_3
Note_On_77_Vel_58
Time_Shift_12
Note_On_65_Vel_0
Time_Shift_4
Note_On_65_Vel_32
Note_On_70_Vel_38
Time_Shift_147
Sustain_Off
Note_On_65_Vel_0
Time_Shift_1
Note_On_70_Vel_0
Note_On_49_Vel_0
Note_On_68_Vel_0
Time_Shift_17
Note_On_56_Vel_0
Time_Shift_8
Note_On_77_Vel_0
Time_Shift_6
Note_On_77_Vel_53
Time_Shift_9
Note_On_65_Vel_35
Time_Shift_5
Note_On_44_Vel_36
Time_Shift_3
Note_On_70_Vel_44
Time_Shift_69
Sustain_On
Time_Shift_128
Note_On_75_Vel_46
Time_Shift_2
Note_On_70_Vel_0
Time_Shift_11
Note_On_66_Vel_33
Time_Shift_1
Note_On_70_Vel_40
Time_Shift_86
Note_On_56_Vel_35
Time_Shift_79
Note_On_66_Vel_0
Time_Shift_8
Note_On_75_Vel_0
Time_Shift_3
Note_On_66_Vel_37
Time_Shift_1
Note_On_75_Vel_46
Time_Shift_7
Note_On_68_Vel_44
Time_Shift_154
Sustain_Off
Time_Shift_2
Note_On_56_Vel_0
Note_On_70_Vel_0
Time_Shift_1
Note_On_77_Vel_0
Note_On_68_Vel_0
Time_Shift_1
Note_On_66_Vel_0
Time_Shift_1
Note_On_65_Vel_0
Note_On_44_Vel_0
Time_Shift_6
Note_On_75_Vel_0
Time_Shift_8
Note_On_75_Vel_46
Time_Shift_12
Note_On_37_Vel_28
Time_Shift_14
Note_On_66_Vel_35
Time_Shift_1
Note_On_68_Vel_34
Time_Shift_65
Sustain_On
Time_Shift_100
Note_On_66_Vel_0
Time_Shift_8
Note_On_66_Vel_40
Time_Shift_7
Note_On_73_Vel_46
Note_On_68_Vel_0
Time_Shift_9
Note_On_49_Vel_23
Note_On_68_Vel_38
Time_Shift_96
Note_On_56_Vel_35
Time_Shift_64
Note_On_73_Vel_0
Time_Shift_12
Note_On_73_Vel_48
Time_Shift_4
Note_On_68_Vel_0
Time_Shift_5
Note_On_68_Vel_34
Time_Shift_4
Note_On_65_Vel_34
Time_Shift_91
Note_On_75_Vel_0
Time_Shift_2
Note_On_66_Vel_0
Time_Shift_1
Note_On_68_Vel_0
Note_On_37_Vel_0
Note_On_49_Vel_0
Time_Shift_1
Note_On_73_Vel_0
Sustain_Off
Note_On_65_Vel_0
Time_Shift_11
Note_On_56_Vel_0
Time_Shift_63
Note_On_73_Vel_48
Time_Shift_1
Note_On_68_Vel_44
Time_Shift_2
Note_On_65_Vel_32
Time_Shift_9
Note_On_32_Vel_32
Time_Shift_32
Sustain_On
Time_Shift_139
Note_On_65_Vel_0
Note_On_68_Vel_0
Time_Shift_5
Note_On_65_Vel_32
Time_Shift_3
Note_On_68_Vel_52
Time_Shift_112
Note_On_56_Vel_34
Time_Shift_72
Note_On_68_Vel_0
Time_Shift_5
Note_On_68_Vel_51
Time_Shift_8
Note_On_63_Vel_39
Time_Shift_3
Note_On_66_Vel_40
Time_Shift_7
Note_On_66_Vel_0
Time_Shift_110
Note_On_32_Vel_0
Note_On_73_Vel_0
Note_On_68_Vel_0
Sustain_Off
Time_Shift_1
Note_On_65_Vel_0
Note_On_63_Vel_0
Time_Shift_19
Note_On_56_Vel_0
Time_Shift_30
Note_On_37_Vel_40
Time_Shift_12
Note_On_66_Vel_39
Note_On_68_Vel_43
Time_Shift_1
Note_On_63_Vel_42
Time_Shift_34
Sustain_On
Time_Shift_146
Note_On_68_Vel_0
Time_Shift_10
Note_On_68_Vel_50
Time_Shift_7
Note_On_73_Vel_42
Time_Shift_96
Note_On_56_Vel_42
Time_Shift_79
Note_On_73_Vel_0
Time_Shift_4
Note_On_73_Vel_51
Time_Shift_4
Note_On_68_Vel_0
Time_Shift_7
Note_On_68_Vel_45
Note_On_56_Vel_0
Time_Shift_4
Note_On_65_Vel_33
Note_On_56_Vel_41
Time_Shift_134
Note_On_56_Vel_0
Time_Shift_3
Note_On_37_Vel_0
Time_Shift_2
Sustain_Off
Time_Shift_3
Note_On_66_Vel_0
Time_Shift_16
Note_On_65_Vel_0
Note_On_73_Vel_0
Time_Shift_5
Note_On_73_Vel_48
Time_Shift_2
Note_On_63_Vel_0
Note_On_68_Vel_0
Time_Shift_1
Note_On_72_Vel_46
Time_Shift_3
Note_On_68_Vel_43
Note_On_44_Vel_49
Time_Shift_1
Note_On_63_Vel_41
Time_Shift_49
Sustain_On
Time_Shift_149
Note_On_75_Vel_51
Time_Shift_5
Note_On_73_Vel_0
Time_Shift_7
Note_On_63_Vel_0
Note_On_72_Vel_0
Time_Shift_4
Note_On_73_Vel_44
Time_Shift_4
Note_On_68_Vel_0
Time_Shift_3
Note_On_63_Vel_42
Note_On_72_Vel_37
Time_Shift_7
Note_On_68_Vel_36
Time_Shift_103
Note_On_56_Vel_41
Time_Shift_3
Note_On_44_Vel_0
Time_Shift_53
Note_On_75_Vel_0
Time_Shift_9
Note_On_75_Vel_55
Time_Shift_14
Note_On_68_Vel_0
Note_On_72_Vel_0
Time_Shift_4
Note_On_72_Vel_45
Time_Shift_2
Note_On_68_Vel_39
Time_Shift_139
Sustain_Off
Time_Shift_3
Note_On_68_Vel_0
Note_On_72_Vel_0
Time_Shift_1
Note_On_63_Vel_0
Note_On_56_Vel_0
Time_Shift_5
Note_On_75_Vel_0
Time_Shift_7
Note_On_73_Vel_0
Time_Shift_3
Note_On_75_Vel_49
Time_Shift_22
Note_On_49_Vel_40
Time_Shift_2
Note_On_72_Vel_41
Time_Shift_9
Note_On_68_Vel_35
Time_Shift_41
Sustain_On
Time_Shift_164
Note_On_77_Vel_56
Time_Shift_17
Note_On_73_Vel_33
Time_Shift_3
Note_On_68_Vel_0
Time_Shift_4
Note_On_65_Vel_31
Time_Shift_1
Note_On_68_Vel_25
Time_Shift_100
Note_On_56_Vel_38
Time_Shift_103
Note_On_77_Vel_0
Time_Shift_7
Note_On_73_Vel_0
Time_Shift_1
Note_On_77_Vel_49
Time_Shift_7
Note_On_68_Vel_0
Time_Shift_3
Note_On_73_Vel_44
Time_Shift_5
Note_On_65_Vel_0
Time_Shift_3
Note_On_68_Vel_31
Time_Shift_2
Note_On_65_Vel_24
Time_Shift_217
Note_On_77_Vel_0
Time_Shift_1
Sustain_Off
Time_Shift_1
Note_On_49_Vel_0
Time_Shift_1
Note_On_72_Vel_0
Note_On_65_Vel_0
Note_On_56_Vel_0
Time_Shift_1
Note_On_75_Vel_0
Time_Shift_4
Note_On_77_Vel_50
Time_Shift_8
Note_On_68_Vel_0
Time_Shift_5
Note_On_68_Vel_36
Time_Shift_3
Note_On_73_Vel_0
Time_Shift_8
Note_On_73_Vel_38
Time_Shift_1
Note_On_46_Vel_33
Time_Shift_67
Sustain_On
Time_Shift_157
Sustain_Off
Time_Shift_28
Note_On_68_Vel_0
Time_Shift_6
Note_On_77_Vel_0
Time_Shift_1
Note_On_73_Vel_0
Time_Shift_1
Note_On_68_Vel_36
Time_Shift_2
Note_On_79_Vel_44
Time_Shift_3
Note_On_73_Vel_34
Time_Shift_10
Note_On_46_Vel_0
Time_Shift_38
Sustain_On
Time_Shift_74
Note_On_61_Vel_23
Time_Shift_164
Note_On_68_Vel_0
Note_On_73_Vel_0
Time_Shift_2
Note_On_77_Vel_48
Time_Shift_3
Note_On_68_Vel_27
Time_Shift_5
Note_On_73_Vel_28
Time_Shift_231
Sustain_Off
Time_Shift_1
Note_On_73_Vel_0
Note_On_79_Vel_0
Note_On_61_Vel_0
Time_Shift_2
Note_On_77_Vel_0
Time_Shift_10
Note_On_68_Vel_0
Time_Shift_3
Note_On_75_Vel_43
Note_On_72_Vel_33
Time_Shift_1
Note_On_68_Vel_38
Time_Shift_3
Note_On_72_Vel_0
Time_Shift_22
Note_On_39_Vel_32
Time_Shift_47
Sustain_On
Time_Shift_208
Note_On_75_Vel_0
Time_Shift_10
Note_On_75_Vel_48
Time_Shift_15
Sustain_Off
Time_Shift_2
Note_On_73_Vel_38
Time_Shift_9
Note_On_67_Vel_31
Time_Shift_25
Sustain_On
Time_Shift_59
Note_On_51_Vel_38
Time_Shift_87
Note_On_75_Vel_0
Time_Shift_11
Note_On_75_Vel_57
Time_Shift_4
Note_On_67_Vel_0
Note_On_73_Vel_0
Time_Shift_5
Note_On_73_Vel_46
Time_Shift_6
Note_On_67_Vel_37
Time_Shift_133
Note_On_73_Vel_0
Note_On_67_Vel_0
Time_Shift_2
Sustain_Off
Note_On_68_Vel_0
Time_Shift_31
Note_On_39_Vel_0
Note_On_75_Vel_0
Time_Shift_8
Note_On_75_Vel_50
Time_Shift_12
Note_On_60_Vel_43
Note_On_72_Vel_41
Time_Shift_10
Note_On_67_Vel_34
Time_Shift_39
Sustain_On
Time_Shift_138
Note_On_67_Vel_0
Time_Shift_4
Note_On_77_Vel_57
Time_Shift_8
Note_On_67_Vel_39
Time_Shift_13
Note_On_73_Vel_41
Time_Shift_93
Note_On_58_Vel_40
Time_Shift_67
Note_On_77_Vel_0
Time_Shift_7
Note_On_67_Vel_0
Note_On_73_Vel_0
Time_Shift_3
Note_On_77_Vel_59
Time_Shift_2
Note_On_67_Vel_44
Time_Shift_1
Note_On_73_Vel_48
Time_Shift_140
Sustain_Off
Time_Shift_3
Note_On_73_Vel_0
Time_Shift_1
Note_On_67_Vel_0
Note_On_58_Vel_0
Note_On_60_Vel_0
Time_Shift_1
Note_On_75_Vel_0
Time_Shift_3
Note_On_72_Vel_0
Time_Shift_8
Note_On_51_Vel_0
Time_Shift_15
Note_On_77_Vel_0
Time_Shift_5
Note_On_77_Vel_60
Time_Shift_10
Note_On_44_Vel_43
Time_Shift_5
Note_On_72_Vel_47
Time_Shift_49
Sustain_On
Time_Shift_134
Note_On_75_Vel_55
Time_Shift_4
Note_On_72_Vel_0
Time_Shift_8
Note_On_72_Vel_35
Time_Shift_6
Note_On_68_Vel_44
Time_Shift_113
Note_On_51_Vel_39
Time_Shift_42
Note_On_75_Vel_0
Time_Shift_10
Note_On_75_Vel_62
Time_Shift_13
Note_On_68_Vel_0
Note_On_72_Vel_0
Time_Shift_5
Note_On_72_Vel_39
Time_Shift_1
Note_On_68_Vel_47
Time_Shift_136
Sustain_Off
Time_Shift_3
Note_On_77_Vel_0
Time_Shift_3
Note_On_44_Vel_0
Time_Shift_29
Note_On_72_Vel_0
Note_On_75_Vel_0
Time_Shift_4
Note_On_75_Vel_55
Time_Shift_4
Note_On_68_Vel_0
Time_Shift_3
Note_On_72_Vel_51
Time_Shift_3
Note_On_68_Vel_42
Time_Shift_5
Note_On_60_Vel_39
Time_Shift_47
Note_On_72_Vel_0
Time_Shift_11
Sustain_On
Time_Shift_107
Note_On_60_Vel_0
Time_Shift_8
Note_On_68_Vel_0
Time_Shift_3
Note_On_73_Vel_52
Time_Shift_8
Note_On_68_Vel_46
Time_Shift_11
Note_On_63_Vel_41
Time_Shift_73
Note_On_63_Vel_0
Time_Shift_2
Note_On_75_Vel_0
Time_Shift_1
Note_On_68_Vel_0
Time_Shift_2
Note_On_51_Vel_0
Note_On_73_Vel_0
Time_Shift_4
Sustain_Off
Time_Shift_51
Note_On_44_Vel_40
Time_Shift_29
Sustain_On
Time_Shift_15
Note_On_72_Vel_59
Time_Shift_27
Note_On_63_Vel_37
Time_Shift_1
Note_On_68_Vel_33
Time_Shift_181
Note_On_68_Vel_0
Time_Shift_1
Sustain_Off
Note_On_44_Vel_0
Time_Shift_1
Note_On_63_Vel_0
Time_Shift_13
Note_On_72_Vel_0
Time_Shift_3
Note_On_72_Vel_49
Time_Shift_9
Note_On_70_Vel_46
Time_Shift_6
Note_On_65_Vel_31
Time_Shift_23
Note_On_36_Vel_31
Time_Shift_28
Sustain_On
Time_Shift_161
Note_On_72_Vel_0
Time_Shift_6
Note_On_72_Vel_52
Time_Shift_9
Note_On_65_Vel_0
Time_Shift_7
Note_On_64_Vel_40
Time_Shift_1
Note_On_70_Vel_0
Time_Shift_5
Note_On_70_Vel_44
Time_Shift_86
Note_On_48_Vel_37
Time_Shift_86
Note_On_72_Vel_0
Time_Shift_7
Note_On_70_Vel_0
Time_Shift_3
Note_On_72_Vel_56
Time_Shift_5
Note_On_64_Vel_0
Time_Shift_3
Note_On_70_Vel_46
Time_Shift_1
Note_On_64_Vel_40
Time_Shift_5
Note_On_67_Vel_31
Time_Shift_6
Note_On_67_Vel_0
Time_Shift_142
Sustain_Off
Note_On_64_Vel_0
Note_On_48_Vel_0
Time_Shift_5
Note_On_56_Vel_40
Time_Shift_15
Note_On_36_Vel_0
Note_On_72_Vel_0
Time_Shift_5
Note_On_72_Vel_46
Time_Shift_2
Note_On_70_Vel_0
Time_Shift_10
Note_On_70_Vel_46
Time_Shift_8
Note_On_64_Vel_26
Time_Shift_21
Sustain_On
Time_Shift_196
Note_On_73_Vel_48
Time_Shift_3
Note_On_64_Vel_0
Note_On_70_Vel_0
Time_Shift_8
Note_On_64_Vel_32
Time_Shift_3
Note_On_70_Vel_43
Time_Shift_57
Note_On_55_Vel_31
Time_Shift_124
Note_On_73_Vel_0
Time_Shift_4
Note_On_73_Vel_46
Time_Shift_4
Note_On_70_Vel_0
Note_On_72_Vel_0
Time_Shift_4
Note_On_72_Vel_42
Time_Shift_2
Note_On_70_Vel_43
Time_Shift_2
Note_On_64_Vel_0
Time_Shift_6
Note_On_64_Vel_31
Time_Shift_180
Note_On_72_Vel_0
Note_On_56_Vel_0
Time_Shift_1
Note_On_64_Vel_0
Note_On_55_Vel_0
Time_Shift_6
Sustain_Off
Time_Shift_6
Note_On_73_Vel_0
Time_Shift_8
Note_On_70_Vel_0
Time_Shift_4
Note_On_73_Vel_44
Time_Shift_3
Note_On_70_Vel_34
Time_Shift_30
Note_On_41_Vel_28
Time_Shift_11
Note_On_68_Vel_26
Time_Shift_7
Note_On_64_Vel_21
Time_Shift_60
Sustain_On
Time_Shift_46
Note_On_64_Vel_0
Time_Shift_136
Note_On_72_Vel_46
Time_Shift_10
Note_On_68_Vel_0
Time_Shift_2
Note_On_65_Vel_29
Time_Shift_3
Note_On_68_Vel_31
Time_Shift_79
Note_On_56_Vel_33
Time_Shift_124
Note_On_72_Vel_0
Time_Shift_10
Note_On_72_Vel_52
Time_Shift_13
Note_On_68_Vel_0
Time_Shift_4
Note_On_68_Vel_32
Time_Shift_3
Note_On_65_Vel_0
Time_Shift_5
Note_On_65_Vel_28
Time_Shift_182
Note_On_41_Vel_0
Sustain_Off
Time_Shift_2
Note_On_73_Vel_0
Note_On_68_Vel_0
Time_Shift_1
Note_On_65_Vel_0
Time_Shift_2
Note_On_70_Vel_0
Note_On_72_Vel_0
Time_Shift_12
Note_On_72_Vel_51
Time_Shift_4
Note_On_56_Vel_0
Time_Shift_16
Note_On_38_Vel_31
Time_Shift_7
Note_On_65_Vel_12
Time_Shift_30
Sustain_On
Time_Shift_231
Note_On_65_Vel_0
Time_Shift_6
Note_On_70_Vel_43
Time_Shift_1
Note_On_65_Vel_29
Time_Shift_26
Note_On_60_Vel_22
Time_Shift_127
Note_On_56_Vel_31
Time_Shift_147
Note_On_60_Vel_0
Note_On_65_Vel_0
Time_Shift_3
Note_On_68_Vel_43
Time_Shift_1
Note_On_60_Vel_34
Time_Shift_6
Note_On_65_Vel_23
Time_Shift_21
Note_On_72_Vel_0
Time_Shift_7
Note_On_72_Vel_20
Time_Shift_271
Sustain_Off
Time_Shift_2
Note_On_56_Vel_0
Note_On_68_Vel_0
Note_On_60_Vel_0
Note_On_70_Vel_0
Time_Shift_1
Note_On_65_Vel_0
Time_Shift_11
Note_On_38_Vel_0
Time_Shift_7
Note_On_72_Vel_0
Time_Shift_9
Note_On_72_Vel_45
Time_Shift_12
Note_On_63_Vel_34
Time_Shift_1
Note_On_39_Vel_31
Time_Shift_109
Sustain_On
Time_Shift_196
Note_On_70_Vel_43
Time_Shift_8
Note_On_61_Vel_30
Note_On_65_Vel_25
Time_Shift_130
Note_On_51_Vel_37
Time_Shift_65
Note_On_63_Vel_0
Note_On_65_Vel_0
Note_On_70_Vel_0
Time_Shift_4
Note_On_70_Vel_43
Time_Shift_1
Note_On_65_Vel_28
Time_Shift_3
Note_On_61_Vel_0
Time_Shift_1
Note_On_63_Vel_28
Time_Shift_5
Note_On_61_Vel_24
Time_Shift_132
Note_On_55_Vel_34
Time_Shift_35
Note_On_72_Vel_0
Time_Shift_1
Note_On_39_Vel_0
Time_Shift_3
Note_On_63_Vel_0
Time_Shift_4
Sustain_Off
Time_Shift_3
Note_On_61_Vel_0
Note_On_65_Vel_0
Time_Shift_4
Note_On_63_Vel_32
Time_Shift_4
Note_On_61_Vel_33
Note_On_51_Vel_0
Note_On_70_Vel_0
Time_Shift_2
Note_On_65_Vel_35
Time_Shift_4
Note_On_70_Vel_44
Time_Shift_2
Note_On_53_Vel_40
Time_Shift_138
Sustain_On
Time_Shift_65
Note_On_72_Vel_44
Time_Shift_12
Note_On_63_Vel_0
Time_Shift_9
Note_On_63_Vel_35
Time_Shift_2
Note_On_67_Vel_28
Time_Shift_65
Note_On_51_Vel_42
Time_Shift_100
Note_On_72_Vel_0
Time_Shift_12
Note_On_72_Vel_45
Time_Shift_11
Note_On_63_Vel_0
Time_Shift_6
Note_On_63_Vel_27
Time_Shift_134
Note_On_51_Vel_0
Note_On_61_Vel_0
Note_On_53_Vel_0
Note_On_65_Vel_0
Time_Shift_1
Note_On_63_Vel_0
Note_On_55_Vel_0
Time_Shift_1
Note_On_70_Vel_0
Sustain_Off
Time_Shift_27
Note_On_67_Vel_0
Time_Shift_8
Note_On_72_Vel_0
Time_Shift_9
Note_On_72_Vel_42
Time_Shift_3
Note_On_44_Vel_45
Time_Shift_1
Note_On_63_Vel_30
Time_Shift_56
Sustain_On
Time_Shift_154
Note_On_63_Vel_0
Time_Shift_5
Note_On_68_Vel_44
Time_Shift_1
Note_On_63_Vel_27
Time_Shift_3
Note_On_60_Vel_34
Time_Shift_86
Note_On_51_Vel_38
Time_Shift_104
Note_On_60_Vel_0
Note_On_68_Vel_0
Time_Shift_7
Note_On_60_Vel_39
Time_Shift_1
Note_On_63_Vel_0
Time_Shift_1
Note_On_68_Vel_48
Time_Shift_3
Note_On_63_Vel_25
Time_Shift_146
Note_On_51_Vel_0
Time_Shift_1
Note_On_60_Vel_0
Note_On_72_Vel_0
Note_On_63_Vel_0
Time_Shift_2
Sustain_Off
Time_Shift_16
Note_On_44_Vel_0
Time_Shift_15
Note_On_68_Vel_0
Time_Shift_4
Note_On_37_Vel_51
Time_Shift_4
Note_On_68_Vel_41
Note_On_61_Vel_35
Time_Shift_2
Note_On_65_Vel_30
Time_Shift_90
Sustain_On
Time_Shift_111
Note_On_72_Vel_49
Time_Shift_12
Note_On_65_Vel_0
Note_On_68_Vel_0
Time_Shift_5
Note_On_68_Vel_35
Time_Shift_3
Note_On_61_Vel_0
Time_Shift_2
Note_On_65_Vel_29
Time_Shift_7
Note_On_61_Vel_26
Time_Shift_108
Note_On_56_Vel_41
Time_Shift_59
Note_On_72_Vel_0
Time_Shift_7
Note_On_72_Vel_55
Time_Shift_39
Note_On_65_Vel_0
Time_Shift_4
Note_On_65_Vel_24
Time_Shift_4
Note_On_61_Vel_0
Note_On_68_Vel_0
Time_Shift_4
Note_On_68_Vel_27
Time_Shift_4
Note_On_61_Vel_16
Time_Shift_122
Note_On_56_Vel_0
Time_Shift_1
Note_On_68_Vel_0
Note_On_37_Vel_0
Note_On_61_Vel_0
Time_Shift_1
Note_On_65_Vel_0
Time_Shift_3
Sustain_Off
Time_Shift_34
Note_On_72_Vel_0
Time_Shift_11
Note_On_72_Vel_47
Time_Shift_9
Note_On_34_Vel_40
Time_Shift_3
Note_On_65_Vel_27
Time_Shift_100
Sustain_On
Time_Shift_138
Note_On_65_Vel_0
Time_Shift_7
Note_On_65_Vel_23
Note_On_70_Vel_39
Time_Shift_6
Note_On_61_Vel_29
Time_Shift_114
Note_On_56_Vel_37
Time_Shift_88
Note_On_70_Vel_0
Time_Shift_7
Note_On_70_Vel_40
Time_Shift_9
Note_On_34_Vel_0
Note_On_65_Vel_0
Time_Shift_7
Note_On_61_Vel_0
Time_Shift_1
Note_On_68_Vel_34
Time_Shift_1
Note_On_65_Vel_23
Time_Shift_4
Note_On_61_Vel_24
Time_Shift_183
Note_On_56_Vel_0
Note_On_72_Vel_0
Note_On_68_Vel_0
Time_Shift_4
Note_On_65_Vel_0
Sustain_Off
Time_Shift_7
Note_On_70_Vel_0
Time_Shift_9
Note_On_70_Vel_45
Time_Shift_6
Note_On_61_Vel_0
Time_Shift_8
Note_On_39_Vel_36
Time_Shift_2
Note_On_63_Vel_25
Time_Shift_1
Note_On_61_Vel_27
Time_Shift_1
Note_On_51_Vel_30
Time_Shift_104
Sustain_On
Time_Shift_171
Note_On_72_Vel_46
Time_Shift_28
Note_On_63_Vel_0
Time_Shift_4
Note_On_63_Vel_23
Time_Shift_1
Note_On_67_Vel_21
Time_Shift_6
Note_On_60_Vel_17
Time_Shift_5
Note_On_60_Vel_0
Time_Shift_46
Note_On_51_Vel_0
Time_Shift_8
Note_On_51_Vel_29
Time_Shift_161
Note_On_51_Vel_0
Note_On_67_Vel_0
Note_On_72_Vel_0
Time_Shift_5
Note_On_72_Vel_47
Time_Shift_2
Note_On_63_Vel_0
Time_Shift_4
Note_On_67_Vel_32
Note_On_51_Vel_28
Time_Shift_5
Note_On_63_Vel_29
Time_Shift_214
Note_On_72_Vel_0
Time_Shift_3
Sustain_Off
Note_On_67_Vel_0
Note_On_51_Vel_0
Time_Shift_4
Note_On_72_Vel_49
Time_Shift_1
Note_On_61_Vel_0
Note_On_70_Vel_0
Time_Shift_15
Note_On_39_Vel_0
Note_On_63_Vel_0
Time_Shift_5
Note_On_63_Vel_26
Time_Shift_13
Note_On_32_Vel_31
Time_Shift_3
Note_On_44_Vel_27
Time_Shift_94
Sustain_On
Time_Shift_185
Note_On_44_Vel_0
Note_On_68_Vel_38
Time_Shift_6
Note_On_60_Vel_25
Time_Shift_1
Note_On_63_Vel_0
Time_Shift_3
Note_On_44_Vel_22
Time_Shift_8
Note_On_63_Vel_12
Time_Shift_147
Note_On_51_Vel_27
Time_Shift_50
Note_On_68_Vel_0
Time_Shift_7
Note_On_60_Vel_0
Note_On_63_Vel_0
Time_Shift_3
Note_On_68_Vel_39
Time_Shift_1
Note_On_60_Vel_34
Time_Shift_2
Note_On_63_Vel_20
Time_Shift_237
Sustain_Off
Time_Shift_4
Note_On_72_Vel_0
Time_Shift_1
Note_On_32_Vel_0
Note_On_60_Vel_0
Time_Shift_6
Note_On_68_Vel_0
Time_Shift_4
Note_On_68_Vel_46
Time_Shift_11
Note_On_44_Vel_0
Note_On_51_Vel_0
Note_On_63_Vel_0
Time_Shift_4
Note_On_56_Vel_39
Time_Shift_5
Note_On_63_Vel_22
Time_Shift_1
Note_On_44_Vel_34
Time_Shift_5
Note_On_60_Vel_23
Time_Shift_85
Sustain_On
Time_Shift_177
Note_On_56_Vel_0
Note_On_68_Vel_0
Time_Shift_7
Note_On_63_Vel_0
Time_Shift_3
Note_On_68_Vel_45
Note_On_56_Vel_44
Time_Shift_8
Note_On_63_Vel_20
Time_Shift_123
Note_On_42_Vel_33
Time_Shift_120
Note_On_68_Vel_0
Time_Shift_8
Note_On_68_Vel_47
Time_Shift_22
Note_On_56_Vel_0
Time_Shift_5
Note_On_56_Vel_37
Time_Shift_264
Note_On_56_Vel_0
Note_On_68_Vel_0
Time_Shift_6
Note_On_68_Vel_50
Time_Shift_4
Note_On_56_Vel_37
Time_Shift_6
Note_On_63_Vel_0
Time_Shift_10
Note_On_42_Vel_0
Time_Shift_5
Sustain_Off
Time_Shift_4
Note_On_64_Vel_26
Note_On_40_Vel_44
Time_Shift_34
Note_On_44_Vel_0
Note_On_60_Vel_0
Time_Shift_54
Sustain_On
Time_Shift_207
Note_On_56_Vel_0
Time_Shift_8
Note_On_68_Vel_0
Time_Shift_4
Note_On_56_Vel_42
Note_On_68_Vel_41
Time_Shift_106
Note_On_47_Vel_45
Time_Shift_9
Note_On_59_Vel_40
Time_Shift_4
Note_On_56_Vel_0
Time_Shift_11
Note_On_56_Vel_27
Time_Shift_120
Note_On_64_Vel_0
Note_On_68_Vel_0
Time_Shift_4
Note_On_64_Vel_34
Note_On_57_Vel_45
Time_Shift_2
Note_On_68_Vel_51
Time_Shift_152
Note_On_57_Vel_0
Time_Shift_2
Note_On_47_Vel_0
Note_On_59_Vel_0
Sustain_Off
Time_Shift_3
Note_On_40_Vel_0
Time_Shift_13
Note_On_56_Vel_0
Time_Shift_16
Note_On_64_Vel_0
Note_On_68_Vel_0
Time_Shift_10
Note_On_68_Vel_55
Time_Shift_6
Note_On_52_Vel_45
Time_Shift_2
Note_On_58_Vel_51
Time_Shift_7
Note_On_64_Vel_42
Time_Shift_44
Sustain_On
Time_Shift_161
Note_On_68_Vel_0
Time_Shift_5
Note_On_68_Vel_57
Time_Shift_1
Note_On_59_Vel_48
Time_Shift_2
Note_On_64_Vel_0
Time_Shift_11
Note_On_64_Vel_49
Time_Shift_67
Note_On_54_Vel_36
Time_Shift_123
Note_On_69_Vel_64
Time_Shift_6
Note_On_58_Vel_0
Note_On_59_Vel_0
Time_Shift_5
Note_On_59_Vel_44
Time_Shift_4
Note_On_47_Vel_40
Time_Shift_2
Note_On_63_Vel_51
Time_Shift_185
Note_On_52_Vel_0
Note_On_63_Vel_0
Note_On_69_Vel_0
Sustain_Off
Note_On_47_Vel_0
Note_On_68_Vel_0
Note_On_54_Vel_0
Time_Shift_22
Note_On_71_Vel_62
Time_Shift_5
Note_On_64_Vel_0
Time_Shift_7
Note_On_59_Vel_0
Time_Shift_2
Note_On_64_Vel_49
Time_Shift_2
Note_On_56_Vel_41
Note_On_59_Vel_32
Time_Shift_119
Sustain_On
Time_Shift_192
Note_On_56_Vel_0
Time_Shift_6
Note_On_76_Vel_53
Time_Shift_4
Note_On_56_Vel_33
Time_Shift_9
Note_On_68_Vel_35
Time_Shift_125
Note_On_47_Vel_35
Time_Shift_87
Note_On_68_Vel_0
Time_Shift_7
Note_On_59_Vel_0
Note_On_64_Vel_0
Time_Shift_3
Note_On_68_Vel_56
Time_Shift_3
Note_On_64_Vel_48
Time_Shift_6
Note_On_59_Vel_30
Time_Shift_198
Sustain_Off
Time_Shift_2
Note_On_56_Vel_0
Time_Shift_1
Note_On_71_Vel_0
Time_Shift_2
Note_On_59_Vel_0
Note_On_64_Vel_0
Note_On_68_Vel_0
Time_Shift_4
Note_On_68_Vel_57
Note_On_59_Vel_32
Time_Shift_8
Note_On_64_Vel_42
Time_Shift_4
Note_On_76_Vel_0
Time_Shift_6
Note_On_76_Vel_44
Time_Shift_55
Sustain_On
Time_Shift_162
Note_On_75_Vel_63
Time_Shift_15
Note_On_59_Vel_0
Note_On_64_Vel_0
Note_On_68_Vel_0
Time_Shift_9
Note_On_59_Vel_26
Note_On_68_Vel_43
Time_Shift_2
Note_On_64_Vel_41
Time_Shift_89
Note_On_47_Vel_0
Time_Shift_35
Note_On_47_Vel_35
Time_Shift_60
Note_On_73_Vel_61
Time_Shift_20
Note_On_59_Vel_0
Note_On_68_Vel_0
Time_Shift_6
Note_On_68_Vel_42
Note_On_59_Vel_34
Time_Shift_2
Note_On_64_Vel_0
Time_Shift_3
Note_On_64_Vel_42
Time_Shift_167
Note_On_73_Vel_0
Time_Shift_1
Note_On_75_Vel_0
Note_On_68_Vel_0
Note_On_59_Vel_0
Note_On_76_Vel_0
Time_Shift_2
Sustain_Off
Time_Shift_12
Note_On_71_Vel_58
Time_Shift_2
Note_On_35_Vel_35
Time_Shift_5
Note_On_47_Vel_0
Note_On_64_Vel_0
Time_Shift_8
Note_On_64_Vel_41
Time_Shift_2
Note_On_66_Vel_41
Time_Shift_89
Sustain_On
Time_Shift_139
Note_On_71_Vel_0
Time_Shift_7
Note_On_64_Vel_0
Note_On_66_Vel_0
Time_Shift_1
Note_On_57_Vel_32
Time_Shift_2
Note_On_71_Vel_58
Time_Shift_1
Note_On_64_Vel_43
Time_Shift_4
Note_On_66_Vel_44
Note_On_57_Vel_0
Time_Shift_96
Note_On_42_Vel_41
Time_Shift_81
Note_On_71_Vel_0
Time_Shift_9
Note_On_71_Vel_58
Time_Shift_14
Note_On_64_Vel_0
Time_Shift_5
Note_On_64_Vel_45
Time_Shift_2
Note_On_66_Vel_0
Time_Shift_5
Note_On_66_Vel_43
Time_Shift_149
Note_On_71_Vel_0
Time_Shift_8
Note_On_66_Vel_0
Time_Shift_3
Note_On_71_Vel_55
Time_Shift_3
Note_On_66_Vel_41
Time_Shift_1
Note_On_64_Vel_0
Time_Shift_4
Note_On_64_Vel_41
Time_Shift_7
Note_On_54_Vel_46
Time_Shift_166
Note_On_64_Vel_0
Note_On_71_Vel_0
Time_Shift_8
Note_On_66_Vel_0
Time_Shift_3
Note_On_64_Vel_46
Note_On_71_Vel_57
Time_Shift_6
Note_On_66_Vel_43
Time_Shift_102
Note_On_56_Vel_48
Time_Shift_73
Note_On_64_Vel_0
Note_On_71_Vel_0
Time_Shift_10
Note_On_64_Vel_50
Time_Shift_1
Note_On_71_Vel_54
Time_Shift_3
Note_On_54_Vel_0
Time_Shift_1
Note_On_66_Vel_0
Time_Shift_7
Note_On_66_Vel_48
Time_Shift_161
Sustain_Off
Time_Shift_1
Note_On_71_Vel_0
Time_Shift_2
Note_On_56_Vel_0
Time_Shift_5
Note_On_71_Vel_52
Time_Shift_1
Note_On_35_Vel_0
Time_Shift_8
Note_On_42_Vel_0
Note_On_64_Vel_0
Time_Shift_6
Note_On_69_Vel_48
Time_Shift_1
Note_On_64_Vel_43
Note_On_66_Vel_0
Time_Shift_2
Note_On_57_Vel_52
Time_Shift_2
Note_On_66_Vel_38
Time_Shift_112
Sustain_On
Time_Shift_84
Note_On_71_Vel_0
Time_Shift_8
Note_On_66_Vel_0
Note_On_71_Vel_55
Time_Shift_5
Note_On_63_Vel_45
Time_Shift_3
Note_On_66_Vel_45
Time_Shift_93
Note_On_54_Vel_45
Time_Shift_91
Note_On_71_Vel_0
Time_Shift_11
Note_On_71_Vel_57
Time_Shift_12
Note_On_57_Vel_0
Note_On_63_Vel_0
Note_On_66_Vel_0
Time_Shift_4
Note_On_63_Vel_48
Time_Shift_1
Note_On_66_Vel_45
Time_Shift_6
Note_On_57_Vel_33
Time_Shift_19
Note_On_54_Vel_0
Time_Shift_10
Note_On_54_Vel_20
Time_Shift_132
Note_On_54_Vel_0
Note_On_66_Vel_0
Note_On_57_Vel_0
Time_Shift_1
Note_On_63_Vel_0
Time_Shift_2
Sustain_Off
Time_Shift_9
Note_On_64_Vel_0
Note_On_69_Vel_0
Note_On_71_Vel_0
Time_Shift_4
Note_On_71_Vel_55
Time_Shift_22
Note_On_66_Vel_43
Note_On_47_Vel_45
Time_Shift_8
Note_On_61_Vel_44
Time_Shift_89
Sustain_On
Time_Shift_131
Note_On_66_Vel_0
Time_Shift_3
Note_On_69_Vel_53
Time_Shift_1
Note_On_66_Vel_42
Time_Shift_27
Note_On_63_Vel_33
Time_Shift_127
Note_On_54_Vel_30
Time_Shift_72
Note_On_69_Vel_0
Time_Shift_8
Note_On_66_Vel_0
Time_Shift_2
Note_On_69_Vel_50
Time_Shift_8
Note_On_66_Vel_39
Time_Shift_1
Note_On_47_Vel_0
Time_Shift_2
Note_On_59_Vel_31
Time_Shift_2
Note_On_63_Vel_0
Time_Shift_4
Note_On_63_Vel_38
Time_Shift_232
Sustain_Off
Time_Shift_5
Note_On_66_Vel_0
Note_On_63_Vel_0
Note_On_69_Vel_0
Note_On_54_Vel_0
Time_Shift_1
Note_On_71_Vel_0
Note_On_59_Vel_0
Time_Shift_4
Note_On_61_Vel_0
Time_Shift_10
Note_On_67_Vel_43
Time_Shift_15
Note_On_64_Vel_36
Time_Shift_14
Note_On_36_Vel_29
Note_On_60_Vel_23
Time_Shift_91
Sustain_On
Time_Shift_254
Note_On_67_Vel_0
Time_Shift_8
Note_On_67_Vel_41
Time_Shift_7
Note_On_64_Vel_0
Time_Shift_8
Note_On_36_Vel_0
Note_On_60_Vel_0
Time_Shift_1
Note_On_64_Vel_38
Time_Shift_6
Note_On_36_Vel_28
Note_On_55_Vel_31
Time_Shift_4
Note_On_60_Vel_21
Time_Shift_87
Note_On_43_Vel_34
Time_Shift_140
Note_On_67_Vel_0
Time_Shift_5
Note_On_67_Vel_50
Time_Shift_18
Note_On_64_Vel_0
Time_Shift_4
Note_On_64_Vel_37
Time_Shift_1
Note_On_59_Vel_36
Time_Shift_172
Note_On_67_Vel_0
Time_Shift_9
Note_On_67_Vel_56
Time_Shift_12
Note_On_48_Vel_39
Time_Shift_9
Note_On_64_Vel_0
Time_Shift_6
Note_On_64_Vel_37
Time_Shift_4
Note_On_62_Vel_37
Time_Shift_159
Note_On_67_Vel_0
Time_Shift_9
Note_On_67_Vel_58
Time_Shift_14
Note_On_60_Vel_0
Note_On_64_Vel_0
Time_Shift_4
Note_On_64_Vel_39
Time_Shift_4
Note_On_60_Vel_41
Time_Shift_72
Note_On_50_Vel_27
Time_Shift_97
Note_On_67_Vel_0
Time_Shift_6
Note_On_67_Vel_58
Time_Shift_2
Note_On_59_Vel_0
Time_Shift_2
Note_On_65_Vel_42
Time_Shift_3
Note_On_59_Vel_42
Time_Shift_138
Sustain_Off
Time_Shift_13
Note_On_38_Vel_35
Time_Shift_9
Note_On_55_Vel_0
Note_On_64_Vel_0
Note_On_59_Vel_0
Time_Shift_1
Note_On_43_Vel_0
Note_On_48_Vel_0
Note_On_62_Vel_0
Time_Shift_1
Note_On_50_Vel_0
Note_On_65_Vel_0
Time_Shift_25
Note_On_36_Vel_0
Note_On_38_Vel_0
Note_On_67_Vel_0
Time_Shift_7
Note_On_60_Vel_0
Note_On_67_Vel_44
Time_Shift_5
Note_On_64_Vel_41
Time_Shift_4
Note_On_60_Vel_49
Time_Shift_12
Note_On_52_Vel_38
Time_Shift_83
Note_On_60_Vel_0
Time_Shift_42
Sustain_On
Time_Shift_85
Note_On_64_Vel_0
Time_Shift_2
Note_On_72_Vel_50
Time_Shift_9
Note_On_64_Vel_37
Time_Shift_4
Note_On_67_Vel_0
Time_Shift_3
Note_On_60_Vel_43
Time_Shift_1
Note_On_67_Vel_23
Time_Shift_110
Note_On_43_Vel_26
Time_Shift_101
Note_On_64_Vel_0
Time_Shift_10
Note_On_64_Vel_50
Time_Shift_5
Note_On_60_Vel_0
Time_Shift_7
Note_On_60_Vel_36
Time_Shift_156
Note_On_52_Vel_0
Note_On_64_Vel_0
Note_On_72_Vel_0
Time_Shift_1
Note_On_60_Vel_0
Note_On_43_Vel_0
Note_On_67_Vel_0
Time_Shift_2
Sustain_Off
Time_Shift_38
Note_On_64_Vel_41
Time_Shift_2
Note_On_67_Vel_28
Time_Shift_2
Note_On_60_Vel_37
Note_On_55_Vel_28
Time_Shift_30
Sustain_On
Time_Shift_187
Note_On_71_Vel_47
Time_Shift_1
Sustain_Off
Time_Shift_4
Note_On_60_Vel_0
Time_Shift_8
Note_On_64_Vel_0
Note_On_67_Vel_0
Time_Shift_3
Note_On_60_Vel_38
Time_Shift_1
Note_On_64_Vel_37
Time_Shift_6
Note_On_67_Vel_25
Time_Shift_36
Sustain_On
Time_Shift_90
Note_On_43_Vel_32
Time_Shift_102
Note_On_64_Vel_0
Time_Shift_1
Note_On_69_Vel_45
Time_Shift_7
Note_On_60_Vel_0
Time_Shift_3
Note_On_64_Vel_35
Time_Shift_1
Note_On_60_Vel_39
Time_Shift_169
Note_On_71_Vel_0
Note_On_67_Vel_0
Note_On_64_Vel_0
Time_Shift_1
Note_On_43_Vel_0
Note_On_60_Vel_0
Note_On_55_Vel_0
Time_Shift_1
Sustain_Off
Time_Shift_3
Note_On_69_Vel_0
Time_Shift_41
Note_On_67_Vel_44
Time_Shift_14
Note_On_31_Vel_35
Time_Shift_2
Note_On_65_Vel_32
Time_Shift_3
Note_On_60_Vel_31
Time_Shift_69
Sustain_On
Time_Shift_192
Note_On_67_Vel_0
Time_Shift_8
Note_On_60_Vel_0
Note_On_65_Vel_0
Time_Shift_1
Note_On_67_Vel_48
Time_Shift_10
Note_On_65_Vel_40
Note_On_60_Vel_42
Time_Shift_35
Note_On_31_Vel_0
Time_Shift_8
Note_On_31_Vel_32
Time_Shift_10
Note_On_43_Vel_34
Time_Shift_128
Note_On_67_Vel_0
Time_Shift_7
Note_On_67_Vel_47
Note_On_60_Vel_0
Note_On_65_Vel_0
Time_Shift_9
Note_On_65_Vel_41
Time_Shift_2
Note_On_60_Vel_43
Time_Shift_174
Note_On_67_Vel_0
Time_Shift_1
Note_On_50_Vel_35
Time_Shift_6
Note_On_65_Vel_0
Time_Shift_2
Note_On_67_Vel_49
Time_Shift_3
Note_On_65_Vel_35
Time_Shift_11
Note_On_60_Vel_0
Time_Shift_4
Note_On_60_Vel_38
Time_Shift_180
Note_On_60_Vel_0
Note_On_65_Vel_0
Note_On_67_Vel_0
Time_Shift_5
Note_On_60_Vel_44
Time_Shift_1
Note_On_65_Vel_43
Note_On_67_Vel_40
Time_Shift_105
Note_On_57_Vel_34
Time_Shift_81
Note_On_67_Vel_0
Time_Shift_8
Note_On_60_Vel_0
Note_On_65_Vel_0
Time_Shift_2
Note_On_67_Vel_53
Time_Shift_2
Note_On_65_Vel_42
Time_Shift_1
Note_On_60_Vel_46
Time_Shift_3
Note_On_50_Vel_0
Time_Shift_8
Note_On_50_Vel_26
Time_Shift_118
Sustain_Off
Time_Shift_1
Note_On_31_Vel_0
Note_On_43_Vel_0
Note_On_50_Vel_0
Note_On_67_Vel_0
Time_Shift_1
Note_On_57_Vel_0
Note_On_60_Vel_0
Time_Shift_1
Note_On_65_Vel_0
Time_Shift_52
Note_On_67_Vel_44
Time_Shift_7
Note_On_65_Vel_40
Time_Shift_5
Note_On_60_Vel_40
Note_On_55_Vel_37
Time_Shift_52
Sustain_On
Time_Shift_123
Note_On_65_Vel_0
Note_On_67_Vel_0
Time_Shift_11
Note_On_67_Vel_42
Time_Shift_1
Note_On_65_Vel_34
Time_Shift_6
Note_On_59_Vel_42
Time_Shift_98
Note_On_50_Vel_33
Time_Shift_84
Note_On_55_Vel_0
Note_On_59_Vel_0
Note_On_65_Vel_0
Note_On_67_Vel_0
Time_Shift_7
Note_On_67_Vel_45
Time_Shift_1
Note_On_59_Vel_48
Time_Shift_1
Note_On_65_Vel_42
Time_Shift_2
Note_On_55_Vel_33
Time_Shift_154
Note_On_31_Vel_34
Time_Shift_16
Sustain_Off
Time_Shift_1
Note_On_50_Vel_0
Time_Shift_4
Note_On_55_Vel_0
Time_Shift_1
Note_On_65_Vel_0
Time_Shift_5
Note_On_59_Vel_0
Note_On_67_Vel_0
Time_Shift_4
Note_On_67_Vel_45
Time_Shift_4
Note_On_60_Vel_0
Note_On_59_Vel_37
Time_Shift_1
Note_On_64_Vel_43
Time_Shift_83
Sustain_On
Time_Shift_115
Note_On_59_Vel_0
Time_Shift_6
Note_On_65_Vel_37
Time_Shift_6
Note_On_59_Vel_29
Time_Shift_11
Note_On_62_Vel_27
Time_Shift_31
Note_On_64_Vel_0
Time_Shift_46
Note_On_31_Vel_0
Time_Shift_9
Note_On_31_Vel_34
Time_Shift_99
Note_On_62_Vel_0
Time_Shift_6
Note_On_62_Vel_38
Time_Shift_1
Note_On_59_Vel_0
Note_On_65_Vel_0
Time_Shift_11
Note_On_59_Vel_32
Note_On_65_Vel_42
Time_Shift_171
Note_On_31_Vel_0
Time_Shift_3
Note_On_59_Vel_0
Time_Shift_1
Note_On_62_Vel_0
Sustain_Off
Note_On_67_Vel_0
Time_Shift_41
Note_On_63_Vel_43
Time_Shift_4
Note_On_65_Vel_0
Time_Shift_4
Note_On_32_Vel_33
Time_Shift_3
Note_On_60_Vel_39
Time_Shift_69
Sustain_On
Time_Shift_180
Note_On_72_Vel_47
Time_Shift_29
Note_On_68_Vel_39
Time_Shift_6
Note_On_60_Vel_0
Time_Shift_7
Note_On_60_Vel_18
Time_Shift_73
Note_On_44_Vel_37
Time_Shift_89
Note_On_72_Vel_0
Time_Shift_7
Note_On_72_Vel_55
Time_Shift_9
Note_On_68_Vel_0
Time_Shift_10
Note_On_68_Vel_47
Time_Shift_159
Note_On_72_Vel_0
Time_Shift_7
Note_On_68_Vel_0
Time_Shift_4
Note_On_72_Vel_57
Note_On_64_Vel_44
Time_Shift_6
Note_On_68_Vel_47
Time_Shift_2
Note_On_52_Vel_46
Time_Shift_165
Note_On_60_Vel_0
Note_On_64_Vel_0
Time_Shift_4
Note_On_60_Vel_48
Time_Shift_1
Note_On_64_Vel_49
Time_Shift_117
Note_On_56_Vel_46
Time_Shift_9
Note_On_52_Vel_0
Time_Shift_9
Note_On_52_Vel_30
Time_Shift_37
Note_On_60_Vel_0
Note_On_64_Vel_0
Time_Shift_3
Note_On_72_Vel_0
Time_Shift_1
Note_On_60_Vel_47
Time_Shift_1
Note_On_64_Vel_46
Time_Shift_125
Note_On_32_Vel_0
Time_Shift_5
Note_On_52_Vel_0
Note_On_68_Vel_0
Note_On_60_Vel_0
Note_On_56_Vel_0
Time_Shift_1
Sustain_Off
Time_Shift_2
Note_On_63_Vel_0
Time_Shift_23
Note_On_44_Vel_0
Time_Shift_8
Note_On_64_Vel_0
Time_Shift_7
Note_On_64_Vel_47
Time_Shift_5
Note_On_61_Vel_47
Time_Shift_1
Note_On_57_Vel_48
Note_On_69_Vel_48
Time_Shift_87
Sustain_On
Time_Shift_92
Note_On_69_Vel_0
Time_Shift_4
Note_On_73_Vel_55
Time_Shift_4
Note_On_69_Vel_44
Time_Shift_89
Note_On_52_Vel_49
Time_Shift_79
Note_On_69_Vel_0
Note_On_73_Vel_0
Time_Shift_6
Note_On_73_Vel_59
Time_Shift_3
Note_On_69_Vel_53
Time_Shift_160
Note_On_69_Vel_0
Note_On_73_Vel_0
Time_Shift_3
Note_On_45_Vel_53
Time_Shift_1
Note_On_73_Vel_51
Time_Shift_6
Note_On_69_Vel_43
Time_Shift_18
Note_On_57_Vel_0
Sustain_Off
Time_Shift_1
Note_On_64_Vel_0
Time_Shift_1
Note_On_61_Vel_0
Time_Shift_2
Note_On_52_Vel_0
Time_Shift_91
Sustain_On
Time_Shift_52
Note_On_61_Vel_55
Time_Shift_1
Note_On_65_Vel_51
Time_Shift_89
Note_On_33_Vel_54
Time_Shift_89
Note_On_61_Vel_0
Note_On_65_Vel_0
Note_On_73_Vel_0
Time_Shift_4
Note_On_61_Vel_54
Time_Shift_4
Note_On_73_Vel_53
Time_Shift_3
Note_On_65_Vel_57
Time_Shift_146
Note_On_73_Vel_0
Note_On_61_Vel_0
Note_On_33_Vel_0
Sustain_Off
Time_Shift_4
Note_On_45_Vel_0
Note_On_34_Vel_55
Time_Shift_8
Note_On_69_Vel_0
Time_Shift_15
Note_On_65_Vel_0
Time_Shift_4
Note_On_65_Vel_59
Time_Shift_6
Note_On_62_Vel_49
Time_Shift_82
Sustain_On
Time_Shift_46
Note_On_34_Vel_0
Time_Shift_57
Note_On_74_Vel_62
Time_Shift_13
Note_On_70_Vel_57
Time_Shift_96
Note_On_46_Vel_63
Time_Shift_72
Note_On_70_Vel_0
Note_On_74_Vel_0
Time_Shift_6
Note_On_74_Vel_62
Time_Shift_5
Note_On_70_Vel_59
Time_Shift_150
Note_On_74_Vel_0
Time_Shift_8
Note_On_70_Vel_0
Time_Shift_4
Note_On_74_Vel_63
Time_Shift_2
Note_On_54_Vel_52
Time_Shift_3
Note_On_70_Vel_59
Time_Shift_2
Note_On_66_Vel_51
Time_Shift_166
Note_On_62_Vel_0
Note_On_66_Vel_0
Time_Shift_6
Note_On_66_Vel_62
Time_Shift_1
Note_On_62_Vel_59
Time_Shift_87
Note_On_58_Vel_62
Time_Shift_82
Note_On_62_Vel_0
Note_On_66_Vel_0
Time_Shift_6
Note_On_62_Vel_58
Time_Shift_3
Note_On_66_Vel_63
Time_Shift_153
Note_On_66_Vel_0
Sustain_Off
Time_Shift_1
Note_On_65_Vel_0
Time_Shift_1
Note_On_74_Vel_0
Note_On_58_Vel_0
Note_On_62_Vel_0
Note_On_70_Vel_0
Note_On_46_Vel_0
Time_Shift_8
Note_On_66_Vel_64
Time_Shift_1
Note_On_63_Vel_59
Time_Shift_1
Note_On_59_Vel_54
Time_Shift_11
Note_On_54_Vel_0
Time_Shift_69
Sustain_On
Time_Shift_89
Note_On_75_Vel_64
Time_Shift_3
Note_On_71_Vel_59
Time_Shift_89
Note_On_54_Vel_55
Time_Shift_72
Note_On_71_Vel_0
Note_On_75_Vel_0
Time_Shift_5
Note_On_71_Vel_58
Time_Shift_2
Note_On_75_Vel_66
Time_Shift_1
Note_On_66_Vel_0
Time_Shift_5
Note_On_66_Vel_41
Time_Shift_149
Note_On_71_Vel_0
Note_On_75_Vel_0
Time_Shift_9
Note_On_71_Vel_62
Time_Shift_1
Note_On_47_Vel_65
Note_On_75_Vel_69
Time_Shift_159
Note_On_63_Vel_0
Time_Shift_5
Note_On_63_Vel_59
Time_Shift_1
Note_On_67_Vel_56
Time_Shift_90
Note_On_35_Vel_55
Time_Shift_88
Note_On_63_Vel_0
Note_On_67_Vel_0
Time_Shift_8
Note_On_59_Vel_0
Note_On_63_Vel_62
Time_Shift_1
Note_On_67_Vel_63
Time_Shift_2
Note_On_59_Vel_48
Time_Shift_145
Note_On_71_Vel_0
Note_On_47_Vel_0
Note_On_54_Vel_0
Note_On_59_Vel_0
Note_On_66_Vel_0
Time_Shift_1
Note_On_75_Vel_0
Sustain_Off
Time_Shift_20
Note_On_35_Vel_0
Time_Shift_7
Note_On_63_Vel_0
Note_On_67_Vel_0
Time_Shift_3
Note_On_36_Vel_66
Time_Shift_5
Note_On_67_Vel_62
Time_Shift_1
Note_On_63_Vel_59
Time_Shift_76
Sustain_On
Time_Shift_161
Note_On_63_Vel_0
Note_On_67_Vel_0
Time_Shift_1
Note_On_75_Vel_70
Time_Shift_2
Note_On_48_Vel_48
Time_Shift_5
Note_On_63_Vel_58
Time_Shift_1
Note_On_67_Vel_54
Time_Shift_120
Note_On_55_Vel_58
Time_Shift_63
Note_On_75_Vel_0
Time_Shift_8
Note_On_63_Vel_0
Note_On_67_Vel_0
Time_Shift_3
Note_On_75_Vel_71
Time_Shift_7
Note_On_63_Vel_57
Note_On_67_Vel_61
Time_Shift_140
Note_On_36_Vel_0
Note_On_67_Vel_0
Time_Shift_1
Note_On_55_Vel_0
Time_Shift_2
Note_On_48_Vel_0
Time_Shift_3
Sustain_Off
Time_Shift_5
Note_On_75_Vel_0
Time_Shift_9
Note_On_75_Vel_69
Time_Shift_6
Note_On_63_Vel_0
Time_Shift_4
Note_On_39_Vel_55
Time_Shift_4
Note_On_66_Vel_58
Time_Shift_4
Note_On_63_Vel_57
Time_Shift_1
Note_On_58_Vel_51
Time_Shift_43
Note_On_63_Vel_0
Time_Shift_13
Sustain_On
Time_Shift_8
Note_On_58_Vel_0
Time_Shift_104
Note_On_70_Vel_67
Time_Shift_2
Note_On_63_Vel_55
Time_Shift_2
Note_On_66_Vel_0
Time_Shift_7
Note_On_66_Vel_55
Time_Shift_4
Note_On_58_Vel_48
Time_Shift_63
Note_On_54_Vel_53
Time_Shift_87
Note_On_70_Vel_0
Time_Shift_8
Note_On_58_Vel_0
Note_On_63_Vel_0
Note_On_66_Vel_0
Time_Shift_2
Note_On_70_Vel_69
Time_Shift_2
Note_On_58_Vel_50
Time_Shift_1
Note_On_63_Vel_60
Time_Shift_1
Note_On_66_Vel_59
Time_Shift_161
Sustain_Off
Time_Shift_2
Note_On_63_Vel_0
Note_On_70_Vel_0
Time_Shift_1
Note_On_66_Vel_0
Time_Shift_3
Note_On_70_Vel_64
Time_Shift_2
Note_On_39_Vel_0
Time_Shift_5
Note_On_63_Vel_63
Note_On_46_Vel_65
Time_Shift_6
Note_On_65_Vel_55
Time_Shift_6
Note_On_54_Vel_0
Time_Shift_30
Note_On_75_Vel_0
Time_Shift_31
Sustain_On
Time_Shift_27
Note_On_63_Vel_0
Time_Shift_81
Note_On_65_Vel_0
Time_Shift_3
Note_On_74_Vel_68
Time_Shift_7
Note_On_65_Vel_57
Time_Shift_7
Note_On_62_Vel_53
Time_Shift_79
Note_On_53_Vel_57
Time_Shift_80
Note_On_74_Vel_0
Time_Shift_9
Note_On_74_Vel_71
Time_Shift_14
Note_On_62_Vel_0
Note_On_65_Vel_0
Time_Shift_1
Note_On_70_Vel_0
Time_Shift_3
Note_On_65_Vel_57
Time_Shift_1
Note_On_62_Vel_48
Time_Shift_149
Note_On_74_Vel_0
Time_Shift_4
Note_On_74_Vel_67
Time_Shift_3
Note_On_65_Vel_0
Time_Shift_8
Note_On_58_Vel_0
Note_On_62_Vel_0
Time_Shift_3
Note_On_65_Vel_51
Time_Shift_3
Note_On_69_Vel_48
Note_On_38_Vel_54
Time_Shift_2
Note_On_62_Vel_51
Time_Shift_1
Note_On_46_Vel_0
Time_Shift_2
Note_On_53_Vel_0
Time_Shift_2
Sustain_Off
Time_Shift_26
Sustain_On
Time_Shift_138
Note_On_69_Vel_0
Time_Shift_7
Note_On_69_Vel_64
Note_On_65_Vel_0
Time_Shift_8
Note_On_62_Vel_0
Time_Shift_3
Note_On_65_Vel_49
Time_Shift_6
Note_On_62_Vel_49
Time_Shift_107
Note_On_57_Vel_49
Time_Shift_53
Note_On_62_Vel_0
Note_On_65_Vel_0
Note_On_69_Vel_0
Time_Shift_5
Note_On_69_Vel_67
Time_Shift_4
Note_On_65_Vel_58
Time_Shift_1
Note_On_62_Vel_60
Time_Shift_182
Note_On_69_Vel_0
Time_Shift_5
Note_On_69_Vel_62
Time_Shift_3
Note_On_65_Vel_0
Time_Shift_7
Note_On_64_Vel_54
Note_On_65_Vel_46
Note_On_62_Vel_0
Time_Shift_5
Note_On_62_Vel_46
Time_Shift_9
Note_On_40_Vel_52
Time_Shift_14
Sustain_Off
Time_Shift_4
Note_On_74_Vel_0
Note_On_57_Vel_0
Time_Shift_1
Note_On_38_Vel_0
Time_Shift_52
Note_On_65_Vel_0
Time_Shift_15
Note_On_62_Vel_0
Time_Shift_16
Note_On_64_Vel_0
Time_Shift_15
Sustain_On
Time_Shift_52
Note_On_72_Vel_69
Time_Shift_14
Note_On_64_Vel_52
Time_Shift_3
Note_On_69_Vel_0
Time_Shift_5
Note_On_60_Vel_53
Time_Shift_3
Note_On_69_Vel_46
Time_Shift_95
Note_On_52_Vel_46
Time_Shift_74
Note_On_72_Vel_0
Time_Shift_5
Note_On_72_Vel_66
Time_Shift_2
Note_On_60_Vel_0
Note_On_64_Vel_0
Time_Shift_5
Note_On_40_Vel_0
Time_Shift_2
Note_On_60_Vel_51
Time_Shift_2
Note_On_64_Vel_51
Time_Shift_168
Note_On_52_Vel_0
Note_On_60_Vel_0
Note_On_64_Vel_0
Note_On_72_Vel_0
Time_Shift_4
Note_On_56_Vel_49
Note_On_69_Vel_0
Note_On_72_Vel_72
Time_Shift_1
Note_On_64_Vel_54
Time_Shift_1
Note_On_52_Vel_40
Time_Shift_5
Note_On_60_Vel_45
Sustain_Off
Time_Shift_81
Sustain_On
Time_Shift_69
Note_On_60_Vel_0
Time_Shift_8
Note_On_56_Vel_0
Time_Shift_7
Note_On_71_Vel_65
Time_Shift_4
Note_On_56_Vel_47
Time_Shift_1
Note_On_62_Vel_52
Time_Shift_11
Note_On_64_Vel_0
Time_Shift_5
Note_On_68_Vel_45
Time_Shift_1
Note_On_64_Vel_34
Time_Shift_71
Note_On_52_Vel_0
Time_Shift_4
Note_On_52_Vel_47
Time_Shift_73
Note_On_71_Vel_0
Time_Shift_6
Note_On_71_Vel_58
Time_Shift_1
Note_On_52_Vel_0
Note_On_62_Vel_0
Note_On_64_Vel_0
Time_Shift_6
Note_On_64_Vel_52
Time_Shift_1
Note_On_62_Vel_55
Time_Shift_5
Note_On_52_Vel_46
Time_Shift_165
Note_On_71_Vel_0
Time_Shift_8
Note_On_62_Vel_0
Time_Shift_3
Note_On_71_Vel_63
Time_Shift_1
Note_On_62_Vel_53
Time_Shift_3
Note_On_64_Vel_0
Time_Shift_5
Note_On_64_Vel_45
Time_Shift_2
Note_On_57_Vel_45
Time_Shift_4
Sustain_Off
Time_Shift_1
Note_On_45_Vel_44
Time_Shift_4
Note_On_57_Vel_0
Time_Shift_1
Note_On_72_Vel_0
Time_Shift_14
Note_On_56_Vel_0
Time_Shift_8
Note_On_68_Vel_0
Time_Shift_38
Note_On_62_Vel_0
Time_Shift_46
Sustain_On
Time_Shift_57
Note_On_72_Vel_66
Time_Shift_12
Note_On_64_Vel_0
Time_Shift_6
Note_On_60_Vel_49
Time_Shift_2
Note_On_64_Vel_40
Time_Shift_108
Note_On_52_Vel_0
Time_Shift_4
Note_On_52_Vel_44
Time_Shift_49
Note_On_72_Vel_0
Time_Shift_8
Note_On_60_Vel_0
Note_On_64_Vel_0
Time_Shift_2
Note_On_72_Vel_69
Time_Shift_3
Note_On_64_Vel_55
Time_Shift_3
Note_On_60_Vel_41
Time_Shift_179
Sustain_Off
Time_Shift_1
Note_On_45_Vel_0
Time_Shift_4
Note_On_72_Vel_0
Time_Shift_5
Note_On_72_Vel_68
Time_Shift_3
Note_On_64_Vel_0
Note_On_71_Vel_0
Note_On_69_Vel_56
Time_Shift_4
Note_On_57_Vel_38
Time_Shift_6
Note_On_64_Vel_37
Time_Shift_5
Note_On_52_Vel_0
Note_On_60_Vel_0
Time_Shift_4
Note_On_60_Vel_28
Time_Shift_50
Sustain_On
Time_Shift_123
Note_On_60_Vel_0
Note_On_64_Vel_0
Note_On_69_Vel_0
Time_Shift_2
Note_On_74_Vel_58
Time_Shift_2
Note_On_69_Vel_55
Time_Shift_1
Note_On_64_Vel_48
Time_Shift_4
Note_On_60_Vel_35
Time_Shift_1
Note_On_52_Vel_40
Time_Shift_113
Note_On_60_Vel_0
Time_Shift_3
Note_On_60_Vel_43
Time_Shift_58
Note_On_69_Vel_0
Time_Shift_7
Note_On_76_Vel_68
Time_Shift_1
Note_On_64_Vel_0
Note_On_72_Vel_0
Time_Shift_2
Note_On_57_Vel_0
Time_Shift_1
Note_On_69_Vel_60
Time_Shift_6
Note_On_72_Vel_46
Time_Shift_1
Note_On_64_Vel_52
Time_Shift_157
Note_On_74_Vel_0
Note_On_64_Vel_0
Note_On_72_Vel_0
Time_Shift_1
Note_On_60_Vel_0
Time_Shift_1
Note_On_52_Vel_0
Time_Shift_3
Sustain_Off
Time_Shift_12
Note_On_69_Vel_0
Time_Shift_8
Note_On_76_Vel_0
Time_Shift_11
Note_On_76_Vel_65
Time_Shift_3
Note_On_72_Vel_53
Time_Shift_6
Note_On_68_Vel_54
Note_On_64_Vel_44
Time_Shift_57
Sustain_On
Time_Shift_168
Note_On_68_Vel_0
Time_Shift_5
Note_On_77_Vel_64
Time_Shift_3
Note_On_72_Vel_0
Time_Shift_1
Note_On_41_Vel_44
Time_Shift_2
Note_On_68_Vel_55
Time_Shift_1
Note_On_72_Vel_60
Time_Shift_1
Note_On_65_Vel_45
Time_Shift_11
Note_On_64_Vel_0
Time_Shift_149
Note_On_60_Vel_42
Time_Shift_43
Note_On_77_Vel_0
Time_Shift_7
Note_On_65_Vel_0
Note_On_72_Vel_0
Time_Shift_4
Note_On_77_Vel_70
Time_Shift_4
Note_On_68_Vel_0
Time_Shift_2
Note_On_72_Vel_59
Time_Shift_1
Note_On_65_Vel_43
Time_Shift_3
Note_On_68_Vel_53
Time_Shift_164
Note_On_60_Vel_0
Time_Shift_1
Note_On_41_Vel_0
Time_Shift_1
Note_On_76_Vel_0
Time_Shift_1
Sustain_Off
Time_Shift_11
Note_On_77_Vel_0
Time_Shift_5
Note_On_77_Vel_63
Time_Shift_3
Note_On_65_Vel_0
Note_On_72_Vel_0
Time_Shift_8
Note_On_68_Vel_0
Time_Shift_2
Note_On_72_Vel_58
Time_Shift_1
Note_On_65_Vel_43
Note_On_44_Vel_47
Time_Shift_1
Note_On_68_Vel_47
Time_Shift_34
Sustain_On
Time_Shift_169
Note_On_65_Vel_0
Note_On_68_Vel_0
Note_On_72_Vel_0
Time_Shift_5
Note_On_72_Vel_66
Time_Shift_5
Note_On_65_Vel_48
Time_Shift_1
Note_On_68_Vel_51
Time_Shift_111
Note_On_60_Vel_37
Time_Shift_55
Note_On_72_Vel_0
Time_Shift_8
Note_On_72_Vel_70
Time_Shift_7
Note_On_65_Vel_0
Note_On_68_Vel_0
Time_Shift_4
Note_On_65_Vel_46
Time_Shift_1
Note_On_68_Vel_52
Time_Shift_169
Sustain_Off
Time_Shift_1
Note_On_68_Vel_0
Time_Shift_1
Note_On_60_Vel_0
Time_Shift_1
Note_On_65_Vel_0
Note_On_72_Vel_0
Note_On_77_Vel_0
Time_Shift_6
Note_On_65_Vel_43
Time_Shift_1
Note_On_44_Vel_0
Note_On_72_Vel_66
Time_Shift_5
Note_On_48_Vel_35
Time_Shift_3
Note_On_67_Vel_51
Time_Shift_46
Sustain_On
Time_Shift_31
Note_On_65_Vel_0
Time_Shift_104
Note_On_75_Vel_68
Time_Shift_11
Note_On_67_Vel_0
Time_Shift_7
Note_On_67_Vel_47
Time_Shift_14
Note_On_63_Vel_39
Time_Shift_66
Note_On_55_Vel_43
Time_Shift_90
Note_On_75_Vel_0
Time_Shift_7
Note_On_75_Vel_68
Note_On_63_Vel_0
Time_Shift_8
Note_On_67_Vel_0
Time_Shift_1
Note_On_63_Vel_50
Time_Shift_5
Note_On_60_Vel_27
Time_Shift_1
Note_On_67_Vel_47
Time_Shift_154
Note_On_75_Vel_0
Time_Shift_1
Sustain_Off
Time_Shift_2
Note_On_72_Vel_0
Time_Shift_1
Note_On_48_Vel_0
Note_On_67_Vel_0
Time_Shift_7
Note_On_75_Vel_60
Time_Shift_5
Note_On_55_Vel_0
Note_On_60_Vel_0
Note_On_63_Vel_0
Time_Shift_6
Note_On_63_Vel_51
Time_Shift_7
Note_On_58_Vel_37
Note_On_39_Vel_38
Time_Shift_1
Note_On_66_Vel_47
Time_Shift_9
Note_On_58_Vel_0
Time_Shift_23
Sustain_On
Time_Shift_146
Note_On_63_Vel_0
Time_Shift_1
Note_On_70_Vel_65
Time_Shift_6
Note_On_66_Vel_0
Time_Shift_1
Note_On_63_Vel_53
Time_Shift_2
Note_On_58_Vel_47
Time_Shift_3
Note_On_66_Vel_49
Time_Shift_94
Note_On_58_Vel_0
Time_Shift_5
Note_On_58_Vel_51
Time_Shift_87
Note_On_66_Vel_0
Note_On_70_Vel_0
Time_Shift_6
Note_On_70_Vel_61
Time_Shift_2
Note_On_63_Vel_0
Time_Shift_3
Note_On_66_Vel_51
Time_Shift_1
Note_On_63_Vel_48
Time_Shift_165
Note_On_70_Vel_0
Time_Shift_3
Note_On_66_Vel_0
Time_Shift_1
Note_On_39_Vel_0
Time_Shift_1
Note_On_75_Vel_0
Time_Shift_3
Note_On_63_Vel_0
Sustain_Off
Time_Shift_2
Note_On_70_Vel_60
Time_Shift_5
Note_On_58_Vel_0
Time_Shift_3
Note_On_63_Vel_53
Time_Shift_1
Note_On_65_Vel_53
Time_Shift_24
Note_On_41_Vel_34
Time_Shift_34
Sustain_On
Time_Shift_38
Note_On_63_Vel_0
Time_Shift_105
Note_On_73_Vel_58
Time_Shift_10
Note_On_65_Vel_0
Time_Shift_5
Note_On_65_Vel_43
Time_Shift_11
Note_On_61_Vel_45
Time_Shift_97
Note_On_53_Vel_40
Time_Shift_79
Note_On_73_Vel_0
Time_Shift_5
Note_On_73_Vel_63
Time_Shift_3
Note_On_61_Vel_0
Note_On_65_Vel_0
Time_Shift_6
Note_On_61_Vel_53
Time_Shift_2
Note_On_65_Vel_48
Time_Shift_180
Sustain_Off
Time_Shift_4
Note_On_73_Vel_0
Time_Shift_4
Note_On_73_Vel_63
Time_Shift_1
Note_On_70_Vel_0
Note_On_61_Vel_0
Time_Shift_3
Note_On_65_Vel_0
Time_Shift_4
Note_On_65_Vel_41
Time_Shift_8
Note_On_57_Vel_40
Time_Shift_1
Note_On_69_Vel_38
Time_Shift_17
Note_On_41_Vel_0
Time_Shift_16
Sustain_On
Time_Shift_168
Note_On_72_Vel_62
Time_Shift_8
Note_On_65_Vel_0
Time_Shift_3
Note_On_63_Vel_48
Time_Shift_1
Note_On_65_Vel_36
Time_Shift_4
Note_On_57_Vel_0
Time_Shift_4
Note_On_57_Vel_30
Time_Shift_81
Note_On_53_Vel_0
Time_Shift_11
Note_On_53_Vel_40
Time_Shift_81
Note_On_72_Vel_0
Time_Shift_10
Note_On_72_Vel_64
Time_Shift_5
Note_On_63_Vel_0
Note_On_65_Vel_0
Time_Shift_9
Note_On_65_Vel_39
Time_Shift_2
Note_On_63_Vel_45
Time_Shift_171
Note_On_73_Vel_0
Time_Shift_2
Note_On_69_Vel_0
Time_Shift_5
Sustain_Off
Time_Shift_3
Note_On_57_Vel_0
Time_Shift_8
Note_On_72_Vel_0
Time_Shift_5
Note_On_72_Vel_59
Time_Shift_2
Note_On_53_Vel_0
Time_Shift_8
Note_On_63_Vel_0
Note_On_65_Vel_0
Time_Shift_2
Note_On_46_Vel_45
Time_Shift_4
Note_On_63_Vel_42
Time_Shift_5
Note_On_65_Vel_41
Time_Shift_51
Sustain_On
Time_Shift_196
Note_On_73_Vel_57
Time_Shift_11
Note_On_65_Vel_0
Time_Shift_5
Note_On_65_Vel_36
Time_Shift_3
Sustain_Off
Time_Shift_2
Note_On_58_Vel_33
Time_Shift_2
Note_On_61_Vel_36
Time_Shift_7
Note_On_63_Vel_0
Time_Shift_8
Note_On_72_Vel_0
Time_Shift_54
Note_On_53_Vel_29
Time_Shift_11
Sustain_On
Time_Shift_177
Note_On_65_Vel_0
Time_Shift_3
Note_On_70_Vel_63
Time_Shift_2
Note_On_65_Vel_52
Time_Shift_2
Note_On_61_Vel_0
Time_Shift_9
Note_On_61_Vel_36
Time_Shift_206
Note_On_46_Vel_0
Note_On_61_Vel_0
Note_On_70_Vel_0
Time_Shift_8
Note_On_65_Vel_0
Time_Shift_4
Note_On_70_Vel_62
Note_On_61_Vel_40
Note_On_46_Vel_41
Note_On_65_Vel_46
Time_Shift_234
Note_On_72_Vel_68
Note_On_61_Vel_0
Note_On_65_Vel_0
Time_Shift_4
Note_On_61_Vel_47
Time_Shift_1
Note_On_65_Vel_46
Time_Shift_179
Note_On_70_Vel_0
Time_Shift_5
Note_On_43_Vel_42
Time_Shift_2
Note_On_70_Vel_42
Time_Shift_63
Note_On_73_Vel_0
Time_Shift_7
Note_On_65_Vel_0
Note_On_70_Vel_0
Time_Shift_2
Note_On_73_Vel_62
Time_Shift_5
Note_On_65_Vel_50
Time_Shift_1
Note_On_70_Vel_58
Time_Shift_246
Note_On_73_Vel_0
Time_Shift_5
Note_On_73_Vel_59
Time_Shift_2
Note_On_65_Vel_0
Time_Shift_11
Note_On_65_Vel_39
Time_Shift_5
Note_On_70_Vel_0
Time_Shift_4
Note_On_70_Vel_46
Time_Shift_5
Sustain_Off
Time_Shift_1
Note_On_72_Vel_0
Time_Shift_1
Note_On_61_Vel_0
Note_On_53_Vel_0
Note_On_43_Vel_0
Time_Shift_4
Note_On_58_Vel_0
Time_Shift_2
Note_On_36_Vel_37
Time_Shift_6
Note_On_46_Vel_0
Time_Shift_77
Sustain_On
Time_Shift_199
Note_On_70_Vel_0
Time_Shift_2
Note_On_72_Vel_63
Time_Shift_7
Note_On_70_Vel_56
Note_On_64_Vel_48
Time_Shift_124
Note_On_48_Vel_43
Time_Shift_75
Note_On_72_Vel_0
Time_Shift_5
Note_On_72_Vel_57
Time_Shift_10
Note_On_64_Vel_0
Note_On_70_Vel_0
Time_Shift_7
Note_On_70_Vel_62
Time_Shift_4
Note_On_64_Vel_53
Time_Shift_189
Note_On_72_Vel_0
Time_Shift_4
Sustain_Off
Time_Shift_3
Note_On_64_Vel_0
Note_On_70_Vel_0
Time_Shift_3
Note_On_72_Vel_66
Time_Shift_2
Note_On_56_Vel_52
Time_Shift_3
Note_On_65_Vel_0
Time_Shift_2
Note_On_70_Vel_60
Time_Shift_1
Note_On_64_Vel_51
Time_Shift_43
Sustain_On
Time_Shift_131
Note_On_73_Vel_0
Time_Shift_7
Note_On_64_Vel_0
Time_Shift_3
Note_On_73_Vel_61
Time_Shift_8
Note_On_64_Vel_52
Time_Shift_12
Note_On_70_Vel_0
Time_Shift_5
Note_On_70_Vel_50
Time_Shift_99
Note_On_55_Vel_53
Time_Shift_73
Note_On_73_Vel_0
Time_Shift_8
Note_On_70_Vel_0
Time_Shift_3
Note_On_73_Vel_67
Time_Shift_3
Note_On_70_Vel_63
Time_Shift_9
Note_On_64_Vel_0
Time_Shift_5
Note_On_64_Vel_55
Time_Shift_3
Note_On_48_Vel_0
Time_Shift_9
Note_On_48_Vel_39
Time_Shift_167
Note_On_73_Vel_0
Time_Shift_6
Note_On_73_Vel_61
Sustain_Off
Time_Shift_2
Note_On_64_Vel_0
Note_On_72_Vel_0
Time_Shift_3
Note_On_48_Vel_0
Time_Shift_1
Note_On_56_Vel_0
Time_Shift_1
Note_On_70_Vel_0
Time_Shift_1
Note_On_55_Vel_0
Note_On_72_Vel_54
Time_Shift_5
Note_On_64_Vel_50
Time_Shift_1
Note_On_68_Vel_54
Time_Shift_3
Note_On_36_Vel_0
Time_Shift_4
Note_On_36_Vel_42
Time_Shift_58
Sustain_On
Time_Shift_28
Note_On_68_Vel_0
Time_Shift_18
Note_On_64_Vel_0
Time_Shift_8
Note_On_72_Vel_0
Time_Shift_91
Note_On_72_Vel_68
Time_Shift_11
Note_On_68_Vel_60
Time_Shift_2
Note_On_65_Vel_47
Time_Shift_63
Note_On_48_Vel_41
Time_Shift_109
Note_On_72_Vel_0
Time_Shift_4
Note_On_72_Vel_64
Time_Shift_4
Note_On_68_Vel_0
Time_Shift_7
Note_On_65_Vel_0
Time_Shift_3
Note_On_68_Vel_61
Time_Shift_4
Note_On_65_Vel_42
Time_Shift_178
Note_On_72_Vel_0
Note_On_73_Vel_0
Time_Shift_7
Note_On_65_Vel_0
Note_On_68_Vel_0
Time_Shift_3
Note_On_72_Vel_68
Time_Shift_5
Sustain_Off
Time_Shift_2
Note_On_56_Vel_55
Time_Shift_2
Note_On_65_Vel_44
Note_On_68_Vel_53
Time_Shift_6
Note_On_36_Vel_0
Time_Shift_52
Sustain_On
Time_Shift_146
Note_On_65_Vel_0
Note_On_68_Vel_0
Time_Shift_4
Note_On_73_Vel_63
Time_Shift_6
Note_On_65_Vel_47
Note_On_68_Vel_47
Time_Shift_91
Note_On_61_Vel_58
Time_Shift_106
Note_On_73_Vel_0
Time_Shift_8
Note_On_56_Vel_0
Note_On_65_Vel_0
Note_On_68_Vel_0
Time_Shift_2
Note_On_73_Vel_64
Time_Shift_2
Note_On_68_Vel_55
Note_On_65_Vel_53
Time_Shift_1
Note_On_56_Vel_46
Time_Shift_194
Note_On_65_Vel_0
Note_On_73_Vel_0
Time_Shift_4
Note_On_65_Vel_52
Time_Shift_2
Note_On_73_Vel_65
Time_Shift_10
Note_On_48_Vel_0
Note_On_68_Vel_0
Time_Shift_3
Note_On_60_Vel_47
Time_Shift_1
Note_On_68_Vel_51
Time_Shift_2
Note_On_48_Vel_56
Time_Shift_3
Sustain_Off
Time_Shift_52
Sustain_On
Time_Shift_182
Note_On_77_Vel_68
Time_Shift_2
Note_On_68_Vel_0
Note_On_73_Vel_0
Time_Shift_5
Note_On_73_Vel_58
Time_Shift_2
Note_On_68_Vel_54
Time_Shift_109
Note_On_65_Vel_0
Time_Shift_11
Note_On_65_Vel_50
Time_Shift_12
Note_On_56_Vel_0
Time_Shift_5
Note_On_56_Vel_44
Time_Shift_71
Note_On_68_Vel_0
Note_On_72_Vel_0
Note_On_77_Vel_0
Time_Shift_4
Note_On_77_Vel_70
Time_Shift_6
Note_On_68_Vel_62
Time_Shift_1
Note_On_72_Vel_51
Time_Shift_212
Note_On_77_Vel_0
Time_Shift_4
Note_On_77_Vel_70
Time_Shift_4
Note_On_73_Vel_0
Time_Shift_4
Note_On_73_Vel_52
Time_Shift_1
Note_On_65_Vel_0
Sustain_Off
Time_Shift_1
Note_On_56_Vel_0
Time_Shift_1
Note_On_61_Vel_0
Note_On_68_Vel_0
Time_Shift_11
Note_On_68_Vel_47
Time_Shift_5
Note_On_48_Vel_0
Time_Shift_5
Note_On_48_Vel_42
Time_Shift_10
Note_On_72_Vel_0
Time_Shift_31
Note_On_60_Vel_0
Time_Shift_8
Sustain_On
Time_Shift_189
Note_On_68_Vel_0
Time_Shift_2
Note_On_73_Vel_0
Time_Shift_2
Note_On_72_Vel_60
Note_On_76_Vel_65
Time_Shift_4
Sustain_Off
Time_Shift_2
Note_On_48_Vel_0
Time_Shift_3
Note_On_67_Vel_51
Time_Shift_4
Note_On_48_Vel_37
Time_Shift_39
Sustain_On
Time_Shift_52
Note_On_64_Vel_40
Time_Shift_10
Note_On_77_Vel_0
Time_Shift_16
Note_On_55_Vel_39
Time_Shift_99
Note_On_76_Vel_0
Time_Shift_5
Note_On_76_Vel_65
Time_Shift_3
Note_On_67_Vel_0
Note_On_72_Vel_0
Time_Shift_8
Note_On_72_Vel_57
Time_Shift_2
Note_On_67_Vel_53
Time_Shift_1
Sustain_Off
Time_Shift_50
Sustain_On
Time_Shift_138
Note_On_48_Vel_0
Time_Shift_8
Note_On_48_Vel_37
Time_Shift_31
Note_On_72_Vel_0
Time_Shift_5
Note_On_72_Vel_59
Time_Shift_2
Note_On_67_Vel_0
Time_Shift_7
Sustain_Off
Time_Shift_1
Note_On_67_Vel_41
Time_Shift_18
Note_On_55_Vel_0
Time_Shift_21
Sustain_On
Time_Shift_215
Note_On_72_Vel_0
Time_Shift_6
Note_On_72_Vel_59
Time_Shift_1
Note_On_67_Vel_0
Time_Shift_8
Note_On_64_Vel_0
Time_Shift_3
Note_On_67_Vel_42
Time_Shift_1
Sustain_Off
Time_Shift_5
Note_On_64_Vel_42
Time_Shift_14
Sustain_On
Time_Shift_125
Note_On_60_Vel_29
Time_Shift_6
Note_On_76_Vel_0
Time_Shift_1
Note_On_55_Vel_28
Time_Shift_114
Note_On_72_Vel_0
Time_Shift_4
Note_On_72_Vel_62
Time_Shift_3
Note_On_64_Vel_0
Note_On_67_Vel_0
Time_Shift_6
Sustain_Off
Note_On_64_Vel_45
Time_Shift_5
Note_On_67_Vel_42
Time_Shift_66
Sustain_On
Time_Shift_215
Note_On_67_Vel_0
Time_Shift_1
Note_On_73_Vel_53
Time_Shift_7
Note_On_63_Vel_45
Time_Shift_3
Note_On_67_Vel_38
Time_Shift_1
Sustain_Off
Time_Shift_8
Note_On_46_Vel_36
Time_Shift_7
Note_On_55_Vel_0
Time_Shift_1
Note_On_64_Vel_0
Time_Shift_1
Note_On_72_Vel_0
Time_Shift_10
Note_On_48_Vel_0
Time_Shift_7
Note_On_60_Vel_0
Time_Shift_92
Sustain_On
Time_Shift_238
Note_On_75_Vel_48
Time_Shift_8
Note_On_63_Vel_0
Note_On_67_Vel_0
Time_Shift_4
Sustain_Off
Time_Shift_1
Note_On_67_Vel_29
Time_Shift_5
Note_On_63_Vel_37
Time_Shift_71
Note_On_73_Vel_0
Time_Shift_19
Note_On_46_Vel_0
Time_Shift_4
Note_On_46_Vel_23
Time_Shift_5
Note_On_51_Vel_23
Time_Shift_6
Sustain_On
Time_Shift_239
Note_On_63_Vel_0
Time_Shift_2
Note_On_70_Vel_48
Time_Shift_5
Note_On_46_Vel_0
Note_On_67_Vel_0
Time_Shift_3
Note_On_63_Vel_29
Time_Shift_2
Note_On_58_Vel_29
Time_Shift_4
Note_On_46_Vel_22
Time_Shift_2
Note_On_67_Vel_32
Time_Shift_368
Note_On_51_Vel_0
Sustain_Off
Note_On_70_Vel_0
Time_Shift_1
Note_On_67_Vel_0
Note_On_75_Vel_0
Note_On_46_Vel_0
Time_Shift_12
Note_On_58_Vel_0
Time_Shift_15
Note_On_63_Vel_0
Time_Shift_1
Note_On_72_Vel_47
Time_Shift_4
Note_On_68_Vel_34
Time_Shift_4
Note_On_63_Vel_25
Time_Shift_2
Note_On_44_Vel_29
Time_Shift_43
Sustain_On
Time_Shift_346
Note_On_63_Vel_0
Note_On_72_Vel_0
Time_Shift_7
Note_On_72_Vel_52
Note_On_44_Vel_0
Time_Shift_4
Note_On_63_Vel_37
Time_Shift_2
Note_On_44_Vel_31
Time_Shift_17
Note_On_68_Vel_0
Time_Shift_5
Note_On_68_Vel_35
Time_Shift_51
Note_On_51_Vel_18
Time_Shift_190
Note_On_72_Vel_0
Time_Shift_10
Note_On_72_Vel_50
Time_Shift_13
Note_On_68_Vel_0
Time_Shift_8
Note_On_63_Vel_0
Time_Shift_1
Note_On_68_Vel_38
Time_Shift_6
Note_On_51_Vel_0
Time_Shift_2
Note_On_63_Vel_26
Time_Shift_3
Note_On_60_Vel_14
Time_Shift_3
Note_On_51_Vel_20
Time_Shift_8
Note_On_60_Vel_0
Time_Shift_161
Note_On_51_Vel_0
Sustain_Off
Time_Shift_1
Note_On_63_Vel_0
Note_On_68_Vel_0
Time_Shift_22
Note_On_44_Vel_0
Note_On_72_Vel_0
Time_Shift_8
Note_On_72_Vel_52
Time_Shift_17
Note_On_68_Vel_36
Note_On_39_Vel_25
Time_Shift_3
Note_On_51_Vel_22
Note_On_63_Vel_21
Time_Shift_34
Sustain_On
Time_Shift_69
Note_On_68_Vel_0
Time_Shift_109
Note_On_70_Vel_46
Time_Shift_6
Note_On_51_Vel_0
Time_Shift_8
Note_On_63_Vel_0
Time_Shift_3
Note_On_51_Vel_31
Time_Shift_2
Note_On_61_Vel_35
Time_Shift_6
Note_On_63_Vel_37
Time_Shift_181
Note_On_70_Vel_0
Time_Shift_3
Note_On_70_Vel_50
Time_Shift_4
Note_On_51_Vel_0
Time_Shift_5
Note_On_51_Vel_33
Time_Shift_11
Note_On_61_Vel_0
Time_Shift_4
Note_On_61_Vel_27
Time_Shift_3
Note_On_63_Vel_0
Time_Shift_8
Note_On_63_Vel_24
Time_Shift_132
Note_On_39_Vel_0
Time_Shift_1
Note_On_61_Vel_0
Time_Shift_1
Note_On_72_Vel_0
Time_Shift_1
Sustain_Off
Time_Shift_19
Note_On_51_Vel_0
Note_On_70_Vel_0
Time_Shift_7
Note_On_63_Vel_0
Time_Shift_3
Note_On_70_Vel_49
Time_Shift_3
Note_On_63_Vel_36
Time_Shift_1
Note_On_32_Vel_33
Time_Shift_26
Note_On_61_Vel_24
Time_Shift_29
Sustain_On
Time_Shift_153
Note_On_63_Vel_0
Time_Shift_2
Note_On_68_Vel_45
Time_Shift_8
Note_On_63_Vel_34
Time_Shift_8
Note_On_60_Vel_20
Time_Shift_1
Note_On_44_Vel_26
Time_Shift_91
Note_On_51_Vel_30
Time_Shift_67
Note_On_68_Vel_0
Time_Shift_8
Note_On_63_Vel_0
Note_On_68_Vel_46
Time_Shift_7
Note_On_60_Vel_0
Time_Shift_3
Note_On_63_Vel_25
Time_Shift_2
Note_On_60_Vel_42
Time_Shift_163
Sustain_Off
Time_Shift_9
Note_On_60_Vel_0
Note_On_61_Vel_0
Note_On_68_Vel_0
Note_On_70_Vel_0
Time_Shift_1
Note_On_44_Vel_0
Time_Shift_7
Note_On_63_Vel_0
Time_Shift_3
Note_On_60_Vel_43
Note_On_68_Vel_47
Note_On_39_Vel_34
Time_Shift_7
Note_On_63_Vel_35
Time_Shift_51
Note_On_51_Vel_0
Time_Shift_23
Sustain_On
Time_Shift_123
Note_On_60_Vel_0
Note_On_63_Vel_0
Time_Shift_5
Note_On_63_Vel_51
Time_Shift_2
Note_On_60_Vel_44
Time_Shift_120
Note_On_39_Vel_0
Time_Shift_2
Note_On_51_Vel_34
Time_Shift_71
Note_On_63_Vel_0
Time_Shift_10
Note_On_63_Vel_55
Time_Shift_3
Note_On_70_Vel_45
Time_Shift_3
Note_On_61_Vel_41
Time_Shift_1
Note_On_58_Vel_42
Time_Shift_126
Note_On_63_Vel_0
Note_On_60_Vel_0
Note_On_68_Vel_0
Note_On_58_Vel_0
Time_Shift_2
Sustain_Off
Time_Shift_1
Note_On_61_Vel_0
Time_Shift_7
Note_On_70_Vel_0
Time_Shift_8
Note_On_32_Vel_0
Note_On_51_Vel_0
Time_Shift_5
Note_On_32_Vel_48
Time_Shift_28
Note_On_58_Vel_46
Time_Shift_4
Note_On_61_Vel_36
Note_On_63_Vel_43
Time_Shift_40
Sustain_On
Time_Shift_153
Note_On_63_Vel_0
Time_Shift_12
Note_On_63_Vel_55
Note_On_44_Vel_38
Time_Shift_2
Note_On_68_Vel_46
Time_Shift_5
Note_On_60_Vel_32
Time_Shift_90
Note_On_51_Vel_43
Time_Shift_83
Note_On_60_Vel_0
Note_On_63_Vel_0
Note_On_68_Vel_0
Time_Shift_6
Note_On_68_Vel_55
Time_Shift_1
Note_On_63_Vel_55
Time_Shift_4
Note_On_60_Vel_51
Time_Shift_164
Note_On_61_Vel_0
Sustain_Off
Time_Shift_1
Note_On_58_Vel_0
Time_Shift_1
Note_On_44_Vel_0
Time_Shift_1
Note_On_32_Vel_0
Time_Shift_14
Note_On_68_Vel_0
Time_Shift_8
Note_On_60_Vel_0
Note_On_63_Vel_0
Time_Shift_1
Note_On_68_Vel_60
Time_Shift_1
Note_On_39_Vel_54
Time_Shift_2
Note_On_60_Vel_40
Time_Shift_4
Note_On_63_Vel_43
Time_Shift_7
Note_On_51_Vel_0
Time_Shift_39
Sustain_On
Time_Shift_38
Note_On_60_Vel_0
Time_Shift_100
Note_On_68_Vel_0
Time_Shift_7
Note_On_70_Vel_52
Time_Shift_1
Note_On_63_Vel_0
Time_Shift_1
Note_On_68_Vel_47
Note_On_51_Vel_45
Time_Shift_3
Note_On_63_Vel_38
Time_Shift_119
Note_On_51_Vel_0
Time_Shift_5
Note_On_51_Vel_49
Time_Shift_64
Note_On_63_Vel_0
Note_On_70_Vel_0
Time_Shift_8
Note_On_70_Vel_57
Time_Shift_3
Note_On_63_Vel_46
Time_Shift_6
Note_On_67_Vel_48
Time_Shift_182
Note_On_63_Vel_0
Note_On_67_Vel_0
Note_On_70_Vel_0
Time_Shift_3
Sustain_Off
Time_Shift_1
Note_On_68_Vel_0
Note_On_70_Vel_53
Time_Shift_1
Note_On_44_Vel_52
Time_Shift_5
Note_On_67_Vel_42
Note_On_63_Vel_46
Time_Shift_21
Note_On_39_Vel_0
Note_On_51_Vel_0
Time_Shift_54
Sustain_On
Time_Shift_107
Note_On_67_Vel_0
Time_Shift_16
Note_On_63_Vel_0
Note_On_70_Vel_0
Time_Shift_6
Note_On_72_Vel_55
Note_On_70_Vel_54
Time_Shift_1
Note_On_44_Vel_0
Time_Shift_4
Note_On_63_Vel_44
Time_Shift_1
Note_On_44_Vel_41
Time_Shift_7
Note_On_68_Vel_40
Time_Shift_4
Note_On_68_Vel_0
Time_Shift_81
Note_On_51_Vel_44
Time_Shift_67
Sustain_Off
Time_Shift_4
Note_On_72_Vel_0
Time_Shift_1
Note_On_63_Vel_0
Note_On_70_Vel_0
Time_Shift_44
Note_On_72_Vel_52
Time_Shift_4
Note_On_63_Vel_45
Time_Shift_2
Note_On_68_Vel_48
Time_Shift_50
Sustain_On
Time_Shift_125
Note_On_56_Vel_46
Time_Shift_6
Note_On_72_Vel_0
Time_Shift_6
Note_On_72_Vel_54
Time_Shift_16
Note_On_66_Vel_36
Time_Shift_1
Note_On_68_Vel_0
Time_Shift_4
Note_On_68_Vel_43
Time_Shift_203
Note_On_66_Vel_0
Time_Shift_4
Note_On_73_Vel_49
Time_Shift_4
Note_On_51_Vel_0
Note_On_68_Vel_0
Time_Shift_3
Note_On_66_Vel_40
Time_Shift_3
Note_On_68_Vel_42
Time_Shift_4
Note_On_51_Vel_32
Time_Shift_90
Note_On_63_Vel_0
Time_Shift_11
Note_On_63_Vel_43
Time_Shift_104
Note_On_66_Vel_0
Time_Shift_8
Note_On_68_Vel_0
Time_Shift_3
Note_On_75_Vel_52
Note_On_66_Vel_39
Time_Shift_6
Note_On_68_Vel_43
Time_Shift_14
Note_On_56_Vel_0
Time_Shift_5
Note_On_56_Vel_31
Time_Shift_164
Note_On_44_Vel_0
Time_Shift_11
Sustain_Off
Note_On_56_Vel_0
Note_On_63_Vel_0
Note_On_51_Vel_0
Time_Shift_1
Note_On_73_Vel_0
Time_Shift_11
Note_On_72_Vel_0
Time_Shift_7
Note_On_66_Vel_0
Note_On_68_Vel_0
Note_On_75_Vel_0
Time_Shift_5
Note_On_75_Vel_52
Time_Shift_2
Note_On_68_Vel_43
Note_On_66_Vel_35
Time_Shift_13
Note_On_49_Vel_30
Time_Shift_42
Sustain_On
Time_Shift_222
Note_On_68_Vel_0
Time_Shift_5
Note_On_77_Vel_56
Time_Shift_1
Sustain_Off
Time_Shift_5
Note_On_68_Vel_43
Time_Shift_4
Note_On_65_Vel_31
Time_Shift_9
Note_On_66_Vel_0
Time_Shift_1
Note_On_75_Vel_0
Time_Shift_60
Sustain_On
Time_Shift_73
Note_On_56_Vel_33
Time_Shift_81
Sustain_Off
Time_Shift_38
Note_On_56_Vel_0
Note_On_65_Vel_0
Note_On_77_Vel_0
Time_Shift_5
Note_On_77_Vel_59
Time_Shift_3
Note_On_68_Vel_0
Time_Shift_2
Note_On_56_Vel_35
Note_On_65_Vel_40
Time_Shift_3
Note_On_70_Vel_45
Time_Shift_2
Note_On_68_Vel_36
Time_Shift_31
Sustain_On
Time_Shift_169
Note_On_77_Vel_0
Time_Shift_11
Note_On_77_Vel_58
Time_Shift_1
Sustain_Off
Time_Shift_11
Note_On_49_Vel_0
Note_On_70_Vel_0
Time_Shift_4
Note_On_65_Vel_0
Note_On_70_Vel_45
Time_Shift_8
Note_On_32_Vel_32
Time_Shift_6
Note_On_44_Vel_35
Note_On_66_Vel_38
Time_Shift_5
Note_On_32_Vel_0
Time_Shift_31
Sustain_On
Time_Shift_169
Note_On_44_Vel_0
Time_Shift_4
Note_On_75_Vel_55
Time_Shift_3
Note_On_70_Vel_0
Time_Shift_4
Note_On_44_Vel_35
Time_Shift_1
Note_On_70_Vel_48
Time_Shift_3
Note_On_66_Vel_0
Time_Shift_6
Note_On_66_Vel_33
Time_Shift_86
Note_On_56_Vel_0
Time_Shift_9
Note_On_56_Vel_40
Time_Shift_83
Note_On_66_Vel_0
Note_On_75_Vel_0
Time_Shift_4
Note_On_66_Vel_48
Time_Shift_1
Note_On_75_Vel_62
Time_Shift_11
Note_On_68_Vel_0
Time_Shift_4
Note_On_68_Vel_47
Time_Shift_134
Note_On_70_Vel_0
Time_Shift_7
Note_On_70_Vel_41
Time_Shift_11
Sustain_Off
Time_Shift_1
Note_On_44_Vel_0
Time_Shift_4
Note_On_75_Vel_0
Time_Shift_11
Note_On_75_Vel_54
Time_Shift_4
Note_On_56_Vel_0
Note_On_66_Vel_0
Note_On_77_Vel_0
Time_Shift_6
Note_On_66_Vel_43
Time_Shift_10
Note_On_68_Vel_0
Time_Shift_6
Note_On_68_Vel_45
Time_Shift_7
Note_On_37_Vel_38
Time_Shift_18
Sustain_On
Time_Shift_153
Note_On_66_Vel_0
Note_On_68_Vel_0
Time_Shift_4
Note_On_66_Vel_47
Time_Shift_1
Note_On_73_Vel_53
Time_Shift_6
Note_On_68_Vel_51
Time_Shift_122
Note_On_56_Vel_44
Time_Shift_67
Note_On_73_Vel_0
Time_Shift_6
Note_On_73_Vel_64
Time_Shift_1
Note_On_68_Vel_0
Time_Shift_5
Note_On_68_Vel_47
Note_On_65_Vel_41
Time_Shift_3
Note_On_56_Vel_0
Time_Shift_9
Note_On_56_Vel_42
Time_Shift_122
Note_On_70_Vel_0
Time_Shift_5
Note_On_56_Vel_0
Time_Shift_1
Note_On_75_Vel_0
Note_On_66_Vel_0
Time_Shift_1
Note_On_37_Vel_0
Time_Shift_2
Note_On_65_Vel_0
Time_Shift_3
Sustain_Off
Time_Shift_26
Note_On_68_Vel_0
Note_On_73_Vel_0
Time_Shift_9
Note_On_73_Vel_56
Time_Shift_2
Note_On_68_Vel_45
Time_Shift_2
Note_On_65_Vel_38
Time_Shift_9
Note_On_32_Vel_35
Time_Shift_32
Sustain_On
Time_Shift_138
Note_On_68_Vel_0
Time_Shift_8
Note_On_65_Vel_0
Time_Shift_4
Note_On_68_Vel_56
Note_On_65_Vel_39
Time_Shift_109
Note_On_56_Vel_46
Time_Shift_79
Note_On_68_Vel_0
Time_Shift_5
Note_On_68_Vel_66
Time_Shift_5
Note_On_63_Vel_51
Note_On_66_Vel_51
Time_Shift_5
Note_On_56_Vel_0
Time_Shift_6
Note_On_56_Vel_42
Time_Shift_132
Note_On_73_Vel_0
Time_Shift_1
Note_On_56_Vel_0
Time_Shift_1
Note_On_65_Vel_0
Note_On_63_Vel_0
Time_Shift_1
Note_On_66_Vel_0
Sustain_Off
Time_Shift_5
Note_On_32_Vel_0
Time_Shift_23
Note_On_68_Vel_0
Time_Shift_7
Note_On_68_Vel_57
Time_Shift_3
Note_On_37_Vel_48
Time_Shift_1
Note_On_66_Vel_48
Time_Shift_1
Note_On_63_Vel_47
Time_Shift_34
Sustain_On
Time_Shift_154
Note_On_37_Vel_0
Note_On_68_Vel_0
Time_Shift_2
Note_On_73_Vel_63
Time_Shift_8
Note_On_37_Vel_41
Time_Shift_1
Note_On_68_Vel_56
Time_Shift_2
Note_On_65_Vel_32
Time_Shift_108
Note_On_56_Vel_42
Time_Shift_55
Note_On_73_Vel_0
Time_Shift_8
Note_On_68_Vel_0
Time_Shift_3
Note_On_73_Vel_69
Time_Shift_5
Note_On_65_Vel_0
Time_Shift_3
Note_On_68_Vel_58
Time_Shift_2
Note_On_65_Vel_41
Time_Shift_2
Note_On_56_Vel_0
Time_Shift_10
Note_On_61_Vel_36
Time_Shift_1
Note_On_56_Vel_43
Time_Shift_142
Note_On_56_Vel_0
Note_On_68_Vel_0
Time_Shift_1
Note_On_66_Vel_0
Time_Shift_1
Note_On_37_Vel_0
Time_Shift_1
Note_On_63_Vel_0
Note_On_65_Vel_0
Time_Shift_2
Sustain_Off
Time_Shift_19
Note_On_61_Vel_0
Time_Shift_8
Note_On_73_Vel_0
Time_Shift_4
Note_On_73_Vel_62
Time_Shift_8
Note_On_65_Vel_41
Time_Shift_3
Note_On_44_Vel_40
Time_Shift_1
Note_On_68_Vel_45
Time_Shift_22
Sustain_On
Time_Shift_69
Note_On_65_Vel_0
Time_Shift_100
Note_On_75_Vel_60
Note_On_73_Vel_0
Time_Shift_8
Note_On_68_Vel_0
Time_Shift_2
Note_On_73_Vel_58
Time_Shift_2
Note_On_63_Vel_54
Time_Shift_5
Sustain_Off
Note_On_68_Vel_48
Time_Shift_37
Sustain_On
Time_Shift_72
Note_On_56_Vel_40
Time_Shift_58
Note_On_75_Vel_0
Time_Shift_12
Note_On_75_Vel_65
Time_Shift_4
Note_On_68_Vel_0
Time_Shift_5
Note_On_68_Vel_56
Time_Shift_4
Note_On_72_Vel_57
Time_Shift_13
Note_On_66_Vel_43
Time_Shift_149
Note_On_63_Vel_0
Note_On_68_Vel_0
Time_Shift_1
Note_On_56_Vel_0
Note_On_66_Vel_0
Time_Shift_1
Sustain_Off
Time_Shift_11
Note_On_73_Vel_0
Note_On_75_Vel_0
Time_Shift_6
Note_On_75_Vel_62
Time_Shift_2
Note_On_44_Vel_0
Time_Shift_8
Note_On_72_Vel_0
Time_Shift_6
Note_On_66_Vel_52
Time_Shift_4
Note_On_72_Vel_60
Time_Shift_12
Note_On_68_Vel_51
Time_Shift_2
Note_On_49_Vel_36
Time_Shift_22
Sustain_On
Time_Shift_23
Note_On_66_Vel_0
Time_Shift_149
Note_On_77_Vel_68
Time_Shift_7
Note_On_73_Vel_59
Time_Shift_5
Note_On_68_Vel_0
Time_Shift_5
Note_On_65_Vel_43
Time_Shift_5
Note_On_68_Vel_35
Time_Shift_124
Note_On_56_Vel_45
Time_Shift_66
Note_On_65_Vel_0
Note_On_73_Vel_0
Note_On_77_Vel_0
Time_Shift_4
Note_On_77_Vel_61
Time_Shift_1
Note_On_73_Vel_63
Time_Shift_5
Note_On_65_Vel_55
Time_Shift_197
Note_On_77_Vel_0
Time_Shift_6
Note_On_72_Vel_0
Note_On_75_Vel_0
Time_Shift_1
Note_On_49_Vel_0
Time_Shift_1
Note_On_68_Vel_0
Note_On_73_Vel_0
Time_Shift_1
Note_On_56_Vel_0
Note_On_65_Vel_0
Time_Shift_1
Note_On_77_Vel_64
Time_Shift_7
Note_On_68_Vel_54
Time_Shift_1
Note_On_73_Vel_57
Time_Shift_2
Sustain_Off
Time_Shift_16
Note_On_46_Vel_39
Time_Shift_56
Sustain_On
Time_Shift_200
Note_On_68_Vel_0
Note_On_77_Vel_0
Time_Shift_2
Note_On_79_Vel_60
Time_Shift_2
Note_On_68_Vel_58
Sustain_Off
Time_Shift_3
Note_On_73_Vel_0
Time_Shift_4
Note_On_77_Vel_53
Time_Shift_4
Note_On_73_Vel_47
Time_Shift_54
Sustain_On
Time_Shift_64
Note_On_61_Vel_27
Time_Shift_105
Note_On_77_Vel_0
Time_Shift_11
Note_On_77_Vel_63
Time_Shift_4
Note_On_68_Vel_0
Note_On_73_Vel_0
Time_Shift_6
Note_On_68_Vel_44
Time_Shift_1
Note_On_73_Vel_47
Time_Shift_218
Sustain_Off
Note_On_73_Vel_0
Time_Shift_1
Note_On_61_Vel_0
Note_On_79_Vel_0
Time_Shift_20
Note_On_46_Vel_0
Time_Shift_8
Note_On_68_Vel_0
Note_On_75_Vel_58
Time_Shift_7
Note_On_68_Vel_48
Note_On_77_Vel_0
Time_Shift_25
Note_On_39_Vel_42
Time_Shift_21
Sustain_On
Time_Shift_231
Note_On_75_Vel_0
Time_Shift_11
Note_On_75_Vel_58
Time_Shift_9
Note_On_73_Vel_54
Time_Shift_1
Note_On_67_Vel_41
Time_Shift_135
Note_On_51_Vel_40
Time_Shift_59
Note_On_75_Vel_0
Time_Shift_6
Note_On_75_Vel_65
Time_Shift_2
Note_On_39_Vel_0
Time_Shift_7
Note_On_67_Vel_0
Note_On_73_Vel_0
Time_Shift_4
Note_On_39_Vel_41
Time_Shift_2
Note_On_73_Vel_52
Time_Shift_5
Note_On_67_Vel_43
Time_Shift_188
Sustain_Off
Time_Shift_1
Note_On_75_Vel_0
Time_Shift_4
Note_On_68_Vel_0
Time_Shift_4
Note_On_73_Vel_0
Time_Shift_2
Note_On_75_Vel_63
Time_Shift_13
Note_On_67_Vel_0
Time_Shift_5
Note_On_67_Vel_42
Time_Shift_6
Note_On_72_Vel_43
Time_Shift_7
Note_On_60_Vel_40
Time_Shift_43
Sustain_On
Time_Shift_159
Note_On_77_Vel_62
Time_Shift_3
Note_On_67_Vel_0
Time_Shift_5
Note_On_67_Vel_45
Time_Shift_6
Note_On_73_Vel_46
Time_Shift_113
Note_On_58_Vel_38
Time_Shift_75
Note_On_77_Vel_0
Time_Shift_11
Note_On_77_Vel_61
Time_Shift_12
Note_On_67_Vel_0
Note_On_73_Vel_0
Time_Shift_6
Note_On_73_Vel_47
Time_Shift_6
Note_On_67_Vel_36
Time_Shift_196
Note_On_77_Vel_0
Time_Shift_4
Note_On_77_Vel_56
Time_Shift_2
Sustain_Off
Time_Shift_12
Note_On_60_Vel_0
Note_On_58_Vel_0
Time_Shift_2
Note_On_73_Vel_0
Note_On_75_Vel_0
Time_Shift_1
Note_On_44_Vel_40
Time_Shift_2
Note_On_39_Vel_0
Note_On_67_Vel_0
Note_On_72_Vel_0
Time_Shift_5
Note_On_67_Vel_37
Time_Shift_2
Note_On_72_Vel_39
Time_Shift_8
Note_On_51_Vel_0
Time_Shift_69
Note_On_67_Vel_0
Sustain_On
Time_Shift_154
Note_On_72_Vel_0
Time_Shift_3
Note_On_75_Vel_57
Time_Shift_8
Note_On_72_Vel_38
Time_Shift_16
Note_On_68_Vel_38
Time_Shift_142
Note_On_51_Vel_28
Time_Shift_38
Note_On_75_Vel_0
Time_Shift_7
Note_On_75_Vel_57
Time_Shift_9
Note_On_68_Vel_0
Time_Shift_7
Note_On_72_Vel_0
Time_Shift_4
Note_On_68_Vel_42
Time_Shift_1
Note_On_72_Vel_38
Time_Shift_187
Note_On_75_Vel_0
Time_Shift_5
Note_On_77_Vel_0
Note_On_75_Vel_48
Time_Shift_4
Sustain_Off
Time_Shift_7
Note_On_72_Vel_0
Time_Shift_7
Note_On_68_Vel_0
Time_Shift_2
Note_On_72_Vel_40
Time_Shift_5
Note_On_68_Vel_34
Time_Shift_3
Note_On_60_Vel_36
Time_Shift_52
Sustain_On
Time_Shift_148
Note_On_73_Vel_51
Time_Shift_13
Note_On_60_Vel_0
Note_On_68_Vel_0
Time_Shift_5
Note_On_60_Vel_23
Note_On_68_Vel_38
Time_Shift_8
Note_On_63_Vel_23
Time_Shift_118
Note_On_44_Vel_0
Time_Shift_9
Note_On_44_Vel_33
Time_Shift_60
Note_On_72_Vel_0
Time_Shift_4
Note_On_72_Vel_63
Time_Shift_19
Note_On_63_Vel_0
Time_Shift_7
Note_On_68_Vel_0
Time_Shift_4
Note_On_63_Vel_36
Time_Shift_1
Note_On_68_Vel_40
Time_Shift_173
Sustain_Off
Time_Shift_1
Note_On_73_Vel_0
Time_Shift_1
Note_On_75_Vel_0
Note_On_60_Vel_0
Note_On_63_Vel_0
Note_On_68_Vel_0
Time_Shift_5
Note_On_51_Vel_0
Time_Shift_15
Note_On_44_Vel_0
Note_On_72_Vel_0
Time_Shift_4
Note_On_72_Vel_58
Time_Shift_21
Note_On_36_Vel_36
Time_Shift_5
Note_On_65_Vel_36
Time_Shift_1
Note_On_70_Vel_45
Time_Shift_54
Sustain_On
Time_Shift_161
Note_On_36_Vel_0
Note_On_72_Vel_0
Time_Shift_4
Note_On_72_Vel_63
Note_On_36_Vel_37
Time_Shift_11
Note_On_70_Vel_0
Time_Shift_5
Note_On_70_Vel_50
Time_Shift_2
Note_On_64_Vel_43
Time_Shift_118
Note_On_48_Vel_36
Time_Shift_52
Note_On_72_Vel_0
Time_Shift_4
Note_On_72_Vel_68
Time_Shift_19
Note_On_64_Vel_0
Note_On_70_Vel_0
Time_Shift_5
Note_On_64_Vel_39
Time_Shift_1
Note_On_70_Vel_50
Time_Shift_3
Note_On_67_Vel_32
Time_Shift_6
Note_On_67_Vel_0
Time_Shift_154
Note_On_72_Vel_0
Time_Shift_8
Sustain_Off
Time_Shift_3
Note_On_72_Vel_69
Time_Shift_4
Note_On_64_Vel_0
Time_Shift_6
Note_On_65_Vel_0
Time_Shift_5
Note_On_64_Vel_41
Time_Shift_1
Note_On_56_Vel_40
Time_Shift_4
Note_On_70_Vel_0
Time_Shift_4
Note_On_70_Vel_45
Time_Shift_7
Note_On_68_Vel_33
Time_Shift_12
Note_On_68_Vel_0
Time_Shift_7
Sustain_On
Time_Shift_154
Note_On_72_Vel_0
Time_Shift_6
Note_On_73_Vel_59
Time_Shift_2
Note_On_64_Vel_0
Note_On_70_Vel_0
Time_Shift_1
Note_On_72_Vel_54
Time_Shift_9
Note_On_70_Vel_47
Note_On_64_Vel_35
Time_Shift_125
Note_On_55_Vel_32
Time_Shift_49
Note_On_72_Vel_0
Note_On_73_Vel_0
Time_Shift_8
Note_On_70_Vel_0
Time_Shift_2
Note_On_73_Vel_58
Time_Shift_1
Note_On_72_Vel_53
Time_Shift_7
Note_On_70_Vel_48
Time_Shift_5
Note_On_36_Vel_0
Time_Shift_8
Note_On_64_Vel_0
Time_Shift_10
Note_On_64_Vel_27
Time_Shift_158
Sustain_Off
Time_Shift_3
Note_On_64_Vel_0
Note_On_70_Vel_0
Note_On_56_Vel_0
Time_Shift_1
Note_On_55_Vel_0
Time_Shift_12
Note_On_48_Vel_0
Note_On_72_Vel_0
Note_On_73_Vel_0
Time_Shift_7
Note_On_73_Vel_53
Time_Shift_1
Note_On_72_Vel_49
Time_Shift_26
Note_On_68_Vel_33
Time_Shift_1
Note_On_41_Vel_28
Time_Shift_5
Note_On_64_Vel_24
Time_Shift_6
Note_On_64_Vel_0
Time_Shift_3
Note_On_60_Vel_17
Time_Shift_35
Sustain_On
Time_Shift_85
Note_On_72_Vel_0
Time_Shift_133
Note_On_72_Vel_52
Time_Shift_4
Note_On_73_Vel_0
Time_Shift_17
Note_On_68_Vel_0
Time_Shift_5
Note_On_68_Vel_27
Time_Shift_3
Note_On_65_Vel_23
Time_Shift_7
Note_On_60_Vel_0
Time_Shift_5
Note_On_60_Vel_12
Time_Shift_91
Note_On_56_Vel_29
Time_Shift_127
Note_On_72_Vel_0
Time_Shift_4
Note_On_72_Vel_57
Time_Shift_11
Note_On_65_Vel_0
Note_On_68_Vel_0
Time_Shift_5
Note_On_68_Vel_37
Time_Shift_1
Note_On_65_Vel_30
Time_Shift_199
Sustain_Off
Time_Shift_2
Note_On_41_Vel_0
Note_On_72_Vel_0
Time_Shift_7
Note_On_72_Vel_56
Time_Shift_16
Note_On_56_Vel_0
Note_On_60_Vel_0
Time_Shift_8
Note_On_65_Vel_0
Time_Shift_1
Note_On_60_Vel_32
Time_Shift_3
Note_On_38_Vel_30
Time_Shift_1
Note_On_65_Vel_22
Time_Shift_26
Sustain_On
Time_Shift_212
Note_On_70_Vel_55
Time_Shift_18
Note_On_60_Vel_0
Note_On_65_Vel_0
Time_Shift_7
Note_On_65_Vel_29
Time_Shift_2
Note_On_60_Vel_28
Time_Shift_143
Note_On_56_Vel_30
Time_Shift_94
Note_On_68_Vel_0
Time_Shift_10
Note_On_68_Vel_50
Time_Shift_21
Note_On_60_Vel_0
Note_On_65_Vel_0
Time_Shift_5
Note_On_65_Vel_19
Time_Shift_1
Note_On_60_Vel_30
Time_Shift_239
Note_On_70_Vel_0
Time_Shift_9
Note_On_56_Vel_0
Note_On_60_Vel_0
Time_Shift_1
Note_On_38_Vel_0
Time_Shift_1
Note_On_65_Vel_0
Note_On_70_Vel_40
Time_Shift_2
Sustain_Off
Time_Shift_3
Note_On_72_Vel_0
Time_Shift_11
Note_On_72_Vel_50
Time_Shift_4
Note_On_68_Vel_0
Time_Shift_7
Note_On_68_Vel_38
Time_Shift_13
Note_On_39_Vel_28
Time_Shift_4
Note_On_63_Vel_28
Time_Shift_76
Note_On_70_Vel_0
Time_Shift_23
Sustain_On
Time_Shift_189
Note_On_70_Vel_46
Time_Shift_22
Note_On_65_Vel_25
Time_Shift_12
Note_On_61_Vel_22
Time_Shift_192
Note_On_70_Vel_0
Time_Shift_7
Note_On_70_Vel_50
Note_On_65_Vel_0
Time_Shift_8
Note_On_61_Vel_0
Time_Shift_3
Note_On_65_Vel_37
Note_On_58_Vel_32
Time_Shift_3
Note_On_61_Vel_30
Time_Shift_129
Note_On_55_Vel_33
Time_Shift_46
Note_On_72_Vel_0
Sustain_Off
Time_Shift_1
Note_On_68_Vel_0
Note_On_63_Vel_0
Time_Shift_2
Note_On_39_Vel_0
Note_On_65_Vel_0
Time_Shift_8
Note_On_70_Vel_0
Time_Shift_3
Note_On_65_Vel_35
Time_Shift_3
Note_On_70_Vel_48
Time_Shift_2
Note_On_58_Vel_0
Time_Shift_15
Note_On_61_Vel_0
Time_Shift_10
Note_On_53_Vel_30
Time_Shift_1
Note_On_61_Vel_25
Time_Shift_58
Note_On_55_Vel_0
Time_Shift_23
Sustain_On
Time_Shift_104
Note_On_72_Vel_55
Time_Shift_32
Note_On_63_Vel_42
Note_On_67_Vel_35
Time_Shift_4
Note_On_60_Vel_25
Time_Shift_6
Note_On_60_Vel_0
Time_Shift_58
Note_On_51_Vel_19
Time_Shift_111
Note_On_72_Vel_0
Time_Shift_5
Note_On_72_Vel_53
Time_Shift_26
Note_On_51_Vel_0
Note_On_63_Vel_0
Note_On_67_Vel_0
Time_Shift_5
Note_On_67_Vel_39
Time_Shift_1
Note_On_63_Vel_26
Time_Shift_5
Note_On_51_Vel_26
Time_Shift_147
Note_On_65_Vel_0
Note_On_51_Vel_0
Note_On_61_Vel_0
Note_On_67_Vel_0
Note_On_53_Vel_0
Sustain_Off
Note_On_70_Vel_0
Time_Shift_19
Note_On_72_Vel_0
Time_Shift_7
Note_On_72_Vel_46
Time_Shift_1
Note_On_44_Vel_34
Time_Shift_7
Note_On_63_Vel_0
Time_Shift_5
Note_On_63_Vel_27
Time_Shift_8
Note_On_67_Vel_31
Time_Shift_79
Sustain_On
Time_Shift_46
Note_On_67_Vel_0
Time_Shift_88
Note_On_68_Vel_45
Time_Shift_7
Note_On_60_Vel_35
Time_Shift_5
Note_On_63_Vel_0
Time_Shift_11
Note_On_63_Vel_28
Time_Shift_70
Note_On_51_Vel_21
Time_Shift_119
Note_On_63_Vel_0
Note_On_68_Vel_0
Time_Shift_7
Note_On_68_Vel_48
Note_On_60_Vel_0
Time_Shift_4
Note_On_63_Vel_29
Time_Shift_2
Note_On_60_Vel_25
Time_Shift_178
Sustain_Off
Note_On_51_Vel_0
Time_Shift_1
Note_On_44_Vel_0
Note_On_60_Vel_0
Time_Shift_1
Note_On_63_Vel_0
Note_On_72_Vel_0
Time_Shift_14
Note_On_68_Vel_0
Time_Shift_7
Note_On_68_Vel_48
Time_Shift_20
Note_On_37_Vel_30
Time_Shift_1
Note_On_65_Vel_23
Time_Shift_5
Note_On_61_Vel_24
Time_Shift_51
Sustain_On
Time_Shift_150
Note_On_72_Vel_53
Time_Shift_19
Note_On_65_Vel_0
Time_Shift_8
Note_On_61_Vel_0
Note_On_68_Vel_0
Note_On_65_Vel_24
Time_Shift_5
Note_On_68_Vel_26
Time_Shift_2
Note_On_61_Vel_26
Time_Shift_86
Note_On_56_Vel_32
Time_Shift_99
Note_On_72_Vel_0
Time_Shift_4
Note_On_72_Vel_54
Time_Shift_19
Note_On_65_Vel_0
Note_On_68_Vel_0
Time_Shift_4
Note_On_65_Vel_23
Time_Shift_4
Note_On_68_Vel_24
Time_Shift_187
Sustain_Off
Time_Shift_1
Note_On_68_Vel_0
Time_Shift_4
Note_On_72_Vel_0
Time_Shift_4
Note_On_72_Vel_52
Time_Shift_11
Note_On_37_Vel_0
Note_On_56_Vel_0
Note_On_65_Vel_0
Time_Shift_8
Note_On_61_Vel_0
Time_Shift_2
Note_On_34_Vel_30
Time_Shift_1
Note_On_65_Vel_25
Time_Shift_8
Note_On_61_Vel_25
Time_Shift_81
Sustain_On
Time_Shift_168
Note_On_70_Vel_49
Time_Shift_9
Note_On_65_Vel_0
Time_Shift_7
Note_On_65_Vel_18
Time_Shift_8
Note_On_61_Vel_0
Time_Shift_1
Note_On_46_Vel_18
Time_Shift_5
Note_On_61_Vel_21
Time_Shift_113
Note_On_56_Vel_30
Time_Shift_73
Note_On_70_Vel_0
Time_Shift_9
Note_On_70_Vel_46
Time_Shift_22
Note_On_65_Vel_0
Time_Shift_6
Note_On_65_Vel_23
Time_Shift_1
Note_On_61_Vel_0
Time_Shift_4
Note_On_61_Vel_25
Time_Shift_207
Sustain_Off
Note_On_46_Vel_0
Note_On_72_Vel_0
Time_Shift_4
Note_On_34_Vel_0
Note_On_65_Vel_0
Note_On_70_Vel_0
Time_Shift_11
Note_On_65_Vel_28
Note_On_70_Vel_47
Time_Shift_5
Note_On_56_Vel_0
Time_Shift_4
Note_On_63_Vel_25
Time_Shift_11
Note_On_63_Vel_0
Time_Shift_2
Note_On_39_Vel_27
Time_Shift_90
Sustain_On
Time_Shift_209
Note_On_72_Vel_46
Time_Shift_6
Note_On_70_Vel_0
Time_Shift_12
Note_On_65_Vel_0
Note_On_70_Vel_35
Note_On_67_Vel_29
Time_Shift_6
Note_On_63_Vel_30
Time_Shift_5
Sustain_Off
Time_Shift_8
Note_On_61_Vel_0
Time_Shift_77
Sustain_On
Time_Shift_161
Note_On_72_Vel_0
Time_Shift_11
Note_On_72_Vel_43
Time_Shift_20
Note_On_63_Vel_0
Note_On_67_Vel_0
Time_Shift_4
Note_On_63_Vel_24
Note_On_67_Vel_27
Time_Shift_211
Note_On_72_Vel_0
Time_Shift_4
Note_On_72_Vel_45
Time_Shift_11
Note_On_67_Vel_0
Time_Shift_8
Note_On_63_Vel_0
Time_Shift_1
Note_On_67_Vel_30
Time_Shift_3
Note_On_63_Vel_24
Time_Shift_10
Note_On_60_Vel_13
Time_Shift_9
Note_On_60_Vel_0
Time_Shift_192
Note_On_72_Vel_0
Time_Shift_9
Note_On_72_Vel_46
Time_Shift_22
Note_On_63_Vel_0
Note_On_67_Vel_0
Time_Shift_4
Note_On_67_Vel_24
Time_Shift_6
Note_On_63_Vel_26
Time_Shift_220
Note_On_72_Vel_0
Time_Shift_9
Note_On_72_Vel_45
Time_Shift_22
Note_On_63_Vel_0
Note_On_67_Vel_0
Time_Shift_4
Note_On_67_Vel_14
Time_Shift_7
Note_On_63_Vel_25
Time_Shift_227
Note_On_72_Vel_0
Time_Shift_11
Note_On_72_Vel_43
Time_Shift_27
Note_On_63_Vel_0
Note_On_67_Vel_0
Time_Shift_9
Note_On_67_Vel_14
Time_Shift_1
Note_On_63_Vel_28
Time_Shift_67
Note_On_70_Vel_0
Time_Shift_177
Note_On_72_Vel_0
Time_Shift_4
Note_On_72_Vel_43
Time_Shift_5
Sustain_Off
Time_Shift_15
Note_On_67_Vel_0
Time_Shift_7
Note_On_63_Vel_0
Time_Shift_1
Note_On_68_Vel_34
Time_Shift_3
Note_On_63_Vel_21
Time_Shift_65
Sustain_On
Time_Shift_207
Note_On_72_Vel_0
Time_Shift_6
Note_On_72_Vel_40
Time_Shift_2
Note_On_68_Vel_0
Time_Shift_10
Note_On_68_Vel_32
Time_Shift_13
Note_On_63_Vel_0
Time_Shift_4
Note_On_63_Vel_20
Time_Shift_249
Note_On_39_Vel_0
Time_Shift_39
Note_On_63_Vel_0
Time_Shift_2
Sustain_Off
Time_Shift_16
Note_On_75_Vel_45
Time_Shift_20
Note_On_68_Vel_0
Note_On_72_Vel_0
Time_Shift_4
Note_On_72_Vel_28
Time_Shift_1
Note_On_68_Vel_23
Time_Shift_3
Note_On_44_Vel_28
Time_Shift_6
Note_On_63_Vel_24
Time_Shift_40
Sustain_On
Time_Shift_307
Note_On_72_Vel_0
Time_Shift_8
Note_On_63_Vel_0
Note_On_68_Vel_0
Time_Shift_2
Note_On_72_Vel_42
Time_Shift_1
Note_On_63_Vel_32
Time_Shift_6
Note_On_68_Vel_31
Time_Shift_175
Note_On_51_Vel_23
Time_Shift_84
Note_On_72_Vel_0
Time_Shift_11
Note_On_72_Vel_46
Time_Shift_5
Note_On_68_Vel_0
Time_Shift_4
Note_On_68_Vel_33
Time_Shift_3
Note_On_63_Vel_0
Time_Shift_4
Note_On_63_Vel_18
Time_Shift_235
Note_On_68_Vel_0
Note_On_72_Vel_0
Time_Shift_4
Note_On_72_Vel_42
Time_Shift_3
Note_On_63_Vel_0
Time_Shift_3
Note_On_68_Vel_34
Time_Shift_1
Note_On_63_Vel_28
Time_Shift_265
Note_On_68_Vel_0
Time_Shift_8
Note_On_63_Vel_0
Note_On_72_Vel_0
Time_Shift_1
Note_On_68_Vel_35
Time_Shift_3
Note_On_63_Vel_26
Note_On_72_Vel_27
Time_Shift_7
Note_On_60_Vel_23
Time_Shift_227
Note_On_68_Vel_0
Time_Shift_9
Note_On_68_Vel_38
Time_Shift_21
Note_On_60_Vel_0
Note_On_63_Vel_0
Time_Shift_4
Note_On_63_Vel_13
Time_Shift_5
Note_On_60_Vel_11
Time_Shift_237
Note_On_68_Vel_0
Time_Shift_4
Note_On_68_Vel_38
Time_Shift_19
Note_On_60_Vel_0
Note_On_63_Vel_0
Time_Shift_4
Note_On_63_Vel_30
Time_Shift_2
Note_On_60_Vel_29
Time_Shift_286
Note_On_63_Vel_0
Note_On_72_Vel_0
Time_Shift_8
Note_On_68_Vel_0
Time_Shift_2
Note_On_72_Vel_39
Note_On_63_Vel_28
Time_Shift_9
Note_On_68_Vel_35
Time_Shift_327
Note_On_72_Vel_0
Time_Shift_10
Note_On_72_Vel_35
Time_Shift_13
Note_On_63_Vel_0
Time_Shift_11
Note_On_63_Vel_32
Time_Shift_35
Note_On_68_Vel_0
Time_Shift_5
Note_On_68_Vel_18
Time_Shift_137
Note_On_50_Vel_32
Time_Shift_58
Note_On_51_Vel_0
Time_Shift_10
Note_On_51_Vel_34
Time_Shift_69
Note_On_53_Vel_33
Time_Shift_59
Note_On_72_Vel_0
Time_Shift_5
Note_On_72_Vel_39
Time_Shift_2
Note_On_51_Vel_0
Note_On_63_Vel_0
Note_On_68_Vel_0
Time_Shift_6
Note_On_68_Vel_38
Time_Shift_6
Note_On_63_Vel_35
Note_On_51_Vel_33
Time_Shift_65
Note_On_53_Vel_0
Time_Shift_9
Note_On_53_Vel_30
Time_Shift_53
Note_On_51_Vel_0
Time_Shift_6
Note_On_51_Vel_34
Time_Shift_55
Note_On_53_Vel_0
Time_Shift_5
Note_On_53_Vel_26
Time_Shift_34
Note_On_51_Vel_0
Time_Shift_7
Note_On_51_Vel_29
Time_Shift_85
Note_On_53_Vel_0
Time_Shift_5
Note_On_53_Vel_28
Time_Shift_41
Note_On_51_Vel_0
Note_On_63_Vel_0
Time_Shift_5
Sustain_Off
Time_Shift_4
Note_On_51_Vel_41
Time_Shift_2
Note_On_53_Vel_0
Note_On_63_Vel_31
Note_On_72_Vel_0
Note_On_60_Vel_0
Time_Shift_1
Note_On_68_Vel_0
Note_On_50_Vel_0
Time_Shift_1
Note_On_75_Vel_0
Time_Shift_6
Note_On_70_Vel_43
Note_On_65_Vel_28
Time_Shift_9
Note_On_61_Vel_30
Time_Shift_2
Note_On_44_Vel_0
Time_Shift_16
Note_On_63_Vel_0
Time_Shift_69
Note_On_51_Vel_0
Time_Shift_10
Note_On_51_Vel_37
Time_Shift_1
Note_On_63_Vel_31
Time_Shift_12
Sustain_On
Time_Shift_100
Note_On_51_Vel_0
Time_Shift_11
Note_On_51_Vel_38
Time_Shift_77
Note_On_53_Vel_30
Time_Shift_135
Note_On_53_Vel_0
Time_Shift_5
Note_On_53_Vel_25
Time_Shift_18
Note_On_70_Vel_0
Time_Shift_9
Note_On_70_Vel_40
Time_Shift_21
Note_On_51_Vel_0
Note_On_61_Vel_0
Time_Shift_4
Note_On_51_Vel_35
Time_Shift_1
Note_On_67_Vel_30
Time_Shift_3
Note_On_61_Vel_24
Time_Shift_31
Note_On_65_Vel_0
Time_Shift_107
Note_On_51_Vel_0
Time_Shift_6
Note_On_51_Vel_32
Time_Shift_136
Note_On_50_Vel_38
Time_Shift_150
Note_On_51_Vel_0
Time_Shift_6
Note_On_51_Vel_36
Time_Shift_217
Note_On_70_Vel_0
Time_Shift_6
Note_On_58_Vel_32
Time_Shift_1
Note_On_51_Vel_0
Note_On_61_Vel_0
Note_On_67_Vel_0
Time_Shift_3
Note_On_70_Vel_36
Time_Shift_2
Note_On_61_Vel_23
Time_Shift_3
Note_On_51_Vel_29
Time_Shift_2
Note_On_67_Vel_27
Time_Shift_1
Note_On_39_Vel_30
Time_Shift_3
Note_On_53_Vel_0
Time_Shift_12
Note_On_50_Vel_0
Time_Shift_2
Sustain_Off
Time_Shift_95
Note_On_63_Vel_0
Time_Shift_192
Sustain_On
Time_Shift_446
Note_On_67_Vel_0
Time_Shift_1344
Note_On_58_Vel_0
Time_Shift_138
Note_On_51_Vel_0
Time_Shift_3
Sustain_Off
Time_Shift_1
Note_On_61_Vel_0
Time_Shift_1
Note_On_44_Vel_23
Time_Shift_3
Note_On_68_Vel_25
Note_On_51_Vel_15
Time_Shift_4
Note_On_60_Vel_26
Time_Shift_226
Note_On_39_Vel_0
Time_Shift_8
Note_On_70_Vel_0
Time_Shift_169
Sustain_On
Time_Shift_1577
Sustain_Off
Time_Shift_44
Note_On_51_Vel_0
Time_Shift_2
Note_On_60_Vel_0
Time_Shift_5
Note_On_44_Vel_0
Time_Shift_23
Note_On_68_Vel_0
Time_Shift_3228
Note_On_68_Vel_69
Time_Shift_56
Note_On_68_Vel_0
Time_Shift_116
Note_On_70_Vel_69
Time_Shift_73
Note_On_70_Vel_0
Time_Shift_100
Note_On_68_Vel_66
Time_Shift_32
Note_On_68_Vel_0
Time_Shift_128
Note_On_70_Vel_63
Time_Shift_37
Note_On_70_Vel_0
Time_Shift_112
Note_On_68_Vel_67
Time_Shift_32
Note_On_68_Vel_0
Time_Shift_121
Note_On_70_Vel_65
Time_Shift_38
Note_On_70_Vel_0
Time_Shift_123
Note_On_68_Vel_64
Time_Shift_36
Note_On_68_Vel_0
Time_Shift_120
Note_On_67_Vel_54
Time_Shift_38
Note_On_67_Vel_0
Time_Shift_116
Note_On_68_Vel_62
Time_Shift_37
Note_On_68_Vel_0
Time_Shift_138
Note_On_67_Vel_53
Time_Shift_39
Note_On_67_Vel_0
Time_Shift_125
Note_On_68_Vel_54
Time_Shift_35
Note_On_68_Vel_0
Time_Shift_140
Note_On_66_Vel_53
Time_Shift_45
Note_On_66_Vel_0
Time_Shift_140
Note_On_68_Vel_57
Time_Shift_35
Note_On_68_Vel_0
Time_Shift_168
Note_On_77_Vel_70
Time_Shift_21
Note_On_65_Vel_43
Time_Shift_2
Note_On_37_Vel_32
Time_Shift_68
Sustain_On
Time_Shift_149
Note_On_68_Vel_48
Time_Shift_135
Note_On_77_Vel_0
Time_Shift_8
Note_On_77_Vel_76
Time_Shift_7
Note_On_65_Vel_0
Time_Shift_7
Note_On_65_Vel_51
Time_Shift_9
Note_On_61_Vel_36
Sustain_Off
Time_Shift_4
Note_On_56_Vel_41
Time_Shift_3
Note_On_49_Vel_35
Time_Shift_46
Sustain_On
Time_Shift_111
Note_On_73_Vel_73
Time_Shift_20
Note_On_68_Vel_0
Time_Shift_9
Note_On_68_Vel_58
Time_Shift_107
Sustain_Off
Time_Shift_3
Note_On_49_Vel_0
Note_On_68_Vel_0
Note_On_56_Vel_0
Note_On_65_Vel_0
Note_On_61_Vel_0
Note_On_77_Vel_0
Time_Shift_2
Note_On_73_Vel_0
Time_Shift_10
Note_On_37_Vel_0
Time_Shift_12
Note_On_70_Vel_70
Time_Shift_15
Note_On_42_Vel_45
Time_Shift_2
Note_On_61_Vel_47
Time_Shift_47
Sustain_On
Time_Shift_92
Note_On_72_Vel_75
Time_Shift_11
Note_On_66_Vel_53
Time_Shift_33
Note_On_42_Vel_0
Time_Shift_2
Note_On_61_Vel_0
Time_Shift_5
Note_On_70_Vel_0
Time_Shift_8
Note_On_66_Vel_0
Time_Shift_7
Sustain_Off
Time_Shift_40
Note_On_72_Vel_0
Time_Shift_39
Note_On_70_Vel_66
Time_Shift_5
Note_On_60_Vel_58
Time_Shift_23
Note_On_56_Vel_38
Time_Shift_1
Note_On_44_Vel_39
Time_Shift_57
Sustain_On
Time_Shift_50
Note_On_68_Vel_67
Time_Shift_42
Note_On_70_Vel_0
Time_Shift_6
Note_On_70_Vel_54
Time_Shift_48
Note_On_68_Vel_0
Time_Shift_5
Note_On_68_Vel_65
Time_Shift_55
Sustain_Off
Note_On_60_Vel_0
Time_Shift_2
Note_On_44_Vel_0
Note_On_70_Vel_0
Time_Shift_1
Note_On_56_Vel_0
Time_Shift_2
Note_On_68_Vel_0
Time_Shift_42
Note_On_67_Vel_72
Time_Shift_4
Note_On_63_Vel_55
Time_Shift_4
Note_On_60_Vel_60
Time_Shift_3
Note_On_56_Vel_49
Time_Shift_38
Note_On_63_Vel_0
Time_Shift_36
Note_On_56_Vel_0
Time_Shift_8
Sustain_On
Time_Shift_49
Note_On_68_Vel_73
Time_Shift_112
Note_On_67_Vel_0
Time_Shift_32
Sustain_Off
Time_Shift_2
Note_On_70_Vel_76
Time_Shift_4
Note_On_60_Vel_0
Time_Shift_6
Note_On_60_Vel_53
Time_Shift_5
Note_On_63_Vel_39
Time_Shift_2
Note_On_68_Vel_0
Time_Shift_5
Note_On_56_Vel_42
Time_Shift_8
Note_On_44_Vel_41
Time_Shift_43
Note_On_56_Vel_0
Time_Shift_18
Note_On_70_Vel_0
Time_Shift_5
Note_On_60_Vel_0
Time_Shift_8
Sustain_On
Time_Shift_43
Note_On_72_Vel_77
Time_Shift_7
Note_On_66_Vel_54
Time_Shift_111
Note_On_44_Vel_0
Note_On_63_Vel_0
Time_Shift_5
Note_On_72_Vel_0
Time_Shift_2
Sustain_Off
Time_Shift_1
Note_On_66_Vel_0
Time_Shift_20
Note_On_75_Vel_76
Time_Shift_15
Note_On_65_Vel_46
Time_Shift_15
Note_On_46_Vel_40
Time_Shift_6
Note_On_68_Vel_30
Time_Shift_25
Note_On_75_Vel_0
Time_Shift_34
Sustain_On
Time_Shift_22
Note_On_73_Vel_64
Time_Shift_66
Note_On_75_Vel_67
Time_Shift_35
Note_On_73_Vel_0
Time_Shift_5
Note_On_73_Vel_58
Time_Shift_70
Sustain_Off
Time_Shift_10
Note_On_75_Vel_0
Time_Shift_1
Note_On_72_Vel_76
Time_Shift_14
Note_On_65_Vel_0
Time_Shift_5
Note_On_61_Vel_43
Time_Shift_1
Note_On_65_Vel_44
Time_Shift_4
Note_On_58_Vel_48
Time_Shift_2
Note_On_53_Vel_47
Time_Shift_34
Note_On_46_Vel_0
Note_On_68_Vel_0
Time_Shift_4
Note_On_58_Vel_0
Time_Shift_1
Note_On_61_Vel_0
Time_Shift_10
Note_On_73_Vel_0
Time_Shift_23
Sustain_On
Time_Shift_57
Note_On_73_Vel_76
Time_Shift_31
Note_On_68_Vel_43
Time_Shift_109
Sustain_Off
Time_Shift_3
Note_On_72_Vel_0
Time_Shift_2
Note_On_73_Vel_0
Note_On_65_Vel_0
Note_On_53_Vel_0
Time_Shift_17
Note_On_77_Vel_76
Time_Shift_4
Note_On_68_Vel_0
Time_Shift_2
Note_On_67_Vel_55
Time_Shift_8
Note_On_51_Vel_40
Time_Shift_2
Note_On_61_Vel_37
Time_Shift_3
Note_On_58_Vel_38
Time_Shift_29
Note_On_67_Vel_0
Time_Shift_2
Note_On_58_Vel_0
Time_Shift_9
Note_On_51_Vel_0
Time_Shift_14
Note_On_61_Vel_0
Time_Shift_16
Sustain_On
Time_Shift_57
Note_On_75_Vel_75
Time_Shift_31
Note_On_70_Vel_62
Time_Shift_70
Sustain_Off
Note_On_70_Vel_0
Time_Shift_47
Note_On_73_Vel_68
Time_Shift_10
Note_On_75_Vel_0
Time_Shift_9
Note_On_75_Vel_55
Time_Shift_2
Note_On_44_Vel_43
Time_Shift_2
Note_On_63_Vel_50
Time_Shift_4
Note_On_56_Vel_40
Time_Shift_13
Note_On_77_Vel_0
Time_Shift_23
Sustain_On
Time_Shift_99
Note_On_72_Vel_72
Time_Shift_24
Note_On_68_Vel_47
Time_Shift_80
Note_On_63_Vel_0
Time_Shift_2
Note_On_68_Vel_0
Time_Shift_1
Note_On_73_Vel_0
Sustain_Off
Time_Shift_9
Note_On_56_Vel_0
Time_Shift_8
Note_On_44_Vel_0
Time_Shift_5
Note_On_72_Vel_0
Time_Shift_3
Note_On_75_Vel_0
Time_Shift_28
Note_On_63_Vel_47
Note_On_74_Vel_56
Time_Shift_13
Note_On_60_Vel_42
Time_Shift_1
Note_On_68_Vel_45
Time_Shift_8
Note_On_56_Vel_27
Time_Shift_2
Note_On_51_Vel_29
Time_Shift_26
Note_On_63_Vel_0
Time_Shift_29
Sustain_On
Time_Shift_8
Note_On_51_Vel_0
Time_Shift_78
Note_On_75_Vel_72
Time_Shift_22
Note_On_68_Vel_0
Time_Shift_3
Note_On_72_Vel_40
Time_Shift_3
Note_On_63_Vel_29
Time_Shift_3
Note_On_68_Vel_39
Time_Shift_152
Note_On_75_Vel_0
Time_Shift_3
Note_On_56_Vel_0
Time_Shift_2
Note_On_75_Vel_49
Time_Shift_1
Sustain_Off
Time_Shift_1
Note_On_82_Vel_61
Time_Shift_1
Note_On_74_Vel_0
Time_Shift_15
Note_On_68_Vel_0
Note_On_72_Vel_0
Time_Shift_6
Note_On_72_Vel_42
Note_On_68_Vel_29
Time_Shift_2
Note_On_60_Vel_0
Time_Shift_6
Note_On_60_Vel_32
Time_Shift_2
Note_On_63_Vel_0
Time_Shift_5
Note_On_63_Vel_27
Time_Shift_53
Note_On_63_Vel_0
Time_Shift_18
Sustain_On
Time_Shift_127
Note_On_80_Vel_58
Time_Shift_35
Note_On_75_Vel_0
Time_Shift_8
Note_On_75_Vel_43
Time_Shift_161
Note_On_68_Vel_0
Time_Shift_2
Note_On_60_Vel_0
Note_On_72_Vel_0
Note_On_82_Vel_0
Time_Shift_1
Note_On_80_Vel_0
Note_On_75_Vel_0
Time_Shift_2
Sustain_Off
Time_Shift_22
Note_On_78_Vel_63
Time_Shift_37
Note_On_39_Vel_30
Time_Shift_1
Note_On_66_Vel_29
Note_On_51_Vel_28
Time_Shift_57
Sustain_On
Time_Shift_119
Note_On_74_Vel_53
Time_Shift_19
Note_On_70_Vel_47
Time_Shift_137
Note_On_77_Vel_67
Time_Shift_12
Note_On_74_Vel_0
Time_Shift_1
Sustain_Off
Time_Shift_2
Note_On_63_Vel_43
Time_Shift_2
Note_On_66_Vel_0
Time_Shift_8
Note_On_70_Vel_0
Time_Shift_3
Note_On_66_Vel_39
Time_Shift_3
Note_On_70_Vel_40
Time_Shift_2
Note_On_58_Vel_35
Time_Shift_7
Note_On_39_Vel_0
Time_Shift_15
Note_On_66_Vel_0
Note_On_78_Vel_0
Time_Shift_1
Note_On_63_Vel_0
Time_Shift_8
Note_On_58_Vel_0
Time_Shift_7
Note_On_51_Vel_0
Time_Shift_8
Note_On_70_Vel_0
Time_Shift_30
Sustain_On
Time_Shift_49
Note_On_75_Vel_69
Time_Shift_16
Sustain_Off
Note_On_70_Vel_62
Time_Shift_28
Sustain_On
Time_Shift_99
Sustain_Off
Time_Shift_8
Note_On_71_Vel_70
Time_Shift_17
Note_On_70_Vel_0
Time_Shift_2
Note_On_75_Vel_0
Time_Shift_1
Note_On_63_Vel_49
Time_Shift_2
Note_On_59_Vel_39
Time_Shift_17
Note_On_77_Vel_0
Time_Shift_5
Note_On_44_Vel_41
Time_Shift_3
Note_On_56_Vel_38
Time_Shift_16
Note_On_63_Vel_0
Time_Shift_8
Note_On_59_Vel_0
Time_Shift_29
Note_On_56_Vel_0
Sustain_On
Time_Shift_55
Note_On_73_Vel_67
Time_Shift_91
Note_On_44_Vel_0
Time_Shift_7
Note_On_71_Vel_0
Sustain_Off
Time_Shift_2
Note_On_73_Vel_0
Time_Shift_38
Note_On_71_Vel_73
Time_Shift_4
Note_On_62_Vel_52
Time_Shift_14
Note_On_34_Vel_40
Time_Shift_42
Sustain_On
Time_Shift_57
Note_On_70_Vel_69
Time_Shift_20
Note_On_71_Vel_0
Time_Shift_11
Note_On_71_Vel_57
Time_Shift_5
Note_On_68_Vel_38
Time_Shift_53
Note_On_70_Vel_0
Time_Shift_8
Note_On_70_Vel_75
Time_Shift_43
Note_On_62_Vel_0
Sustain_Off
Time_Shift_2
Note_On_71_Vel_0
Time_Shift_9
Note_On_34_Vel_0
Time_Shift_15
Note_On_68_Vel_0
Time_Shift_1
Note_On_70_Vel_0
Time_Shift_17
Note_On_69_Vel_70
Time_Shift_7
Note_On_62_Vel_59
Time_Shift_14
Note_On_65_Vel_47
Time_Shift_4
Note_On_58_Vel_50
Time_Shift_22
Note_On_69_Vel_0
Time_Shift_27
Sustain_On
Time_Shift_73
Note_On_70_Vel_75
Time_Shift_138
Note_On_72_Vel_76
Time_Shift_17
Sustain_Off
Time_Shift_3
Note_On_58_Vel_0
Note_On_62_Vel_0
Time_Shift_2
Note_On_70_Vel_0
Note_On_65_Vel_0
Time_Shift_4
Note_On_53_Vel_46
Time_Shift_5
Note_On_58_Vel_46
Note_On_62_Vel_46
Time_Shift_26
Note_On_53_Vel_0
Time_Shift_16
Note_On_62_Vel_0
Time_Shift_16
Note_On_58_Vel_0
Time_Shift_38
Sustain_On
Time_Shift_18
Note_On_74_Vel_70
Time_Shift_3
Note_On_68_Vel_62
Time_Shift_129
Sustain_Off
Time_Shift_1
Note_On_74_Vel_0
Time_Shift_1
Note_On_68_Vel_0
Time_Shift_1
Note_On_72_Vel_0
Time_Shift_5
Note_On_77_Vel_74
Time_Shift_22
Note_On_66_Vel_52
Time_Shift_14
Note_On_39_Vel_33
Time_Shift_23
Note_On_66_Vel_0
Time_Shift_11
Note_On_39_Vel_0
Time_Shift_18
Sustain_On
Time_Shift_46
Note_On_75_Vel_67
Time_Shift_15
Note_On_77_Vel_0
Time_Shift_11
Note_On_77_Vel_69
Time_Shift_59
Note_On_75_Vel_0
Time_Shift_7
Note_On_75_Vel_59
Time_Shift_28
Sustain_Off
Time_Shift_52
Note_On_77_Vel_0
Time_Shift_2
Note_On_74_Vel_62
Time_Shift_1
Note_On_66_Vel_43
Time_Shift_21
Note_On_58_Vel_38
Time_Shift_1
Note_On_51_Vel_38
Time_Shift_10
Note_On_75_Vel_0
Time_Shift_13
Note_On_66_Vel_0
Time_Shift_6
Note_On_58_Vel_0
Time_Shift_12
Sustain_On
Time_Shift_16
Note_On_51_Vel_0
Time_Shift_65
Note_On_75_Vel_78
Time_Shift_107
Sustain_Off
Time_Shift_1
Note_On_74_Vel_0
Time_Shift_3
Note_On_75_Vel_0
Time_Shift_33
Note_On_78_Vel_70
Time_Shift_7
Note_On_66_Vel_49
Note_On_56_Vel_41
Time_Shift_2
Note_On_44_Vel_41
Time_Shift_40
Note_On_56_Vel_0
Time_Shift_26
Sustain_On
Time_Shift_7
Note_On_44_Vel_0
Time_Shift_69
Note_On_72_Vel_72
Time_Shift_28
Note_On_68_Vel_47
Time_Shift_55
Sustain_Off
Time_Shift_1
Note_On_78_Vel_0
Time_Shift_9
Note_On_66_Vel_0
Time_Shift_60
Note_On_75_Vel_61
Time_Shift_14
Note_On_49_Vel_34
Note_On_65_Vel_40
Time_Shift_49
Sustain_On
Time_Shift_103
Note_On_74_Vel_55
Time_Shift_19
Note_On_68_Vel_0
Time_Shift_5
Note_On_68_Vel_46
Time_Shift_93
Note_On_65_Vel_0
Time_Shift_2
Note_On_68_Vel_0
Time_Shift_1
Note_On_72_Vel_0
Time_Shift_2
Note_On_75_Vel_0
Time_Shift_1
Sustain_Off
Note_On_74_Vel_0
Time_Shift_4
Note_On_49_Vel_0
Time_Shift_37
Note_On_73_Vel_57
Time_Shift_3
Note_On_61_Vel_44
Time_Shift_3
Note_On_65_Vel_41
Time_Shift_6
Note_On_56_Vel_40
Time_Shift_31
Note_On_61_Vel_0
Time_Shift_6
Note_On_56_Vel_0
Time_Shift_29
Sustain_On
Time_Shift_79
Note_On_72_Vel_65
Time_Shift_24
Note_On_68_Vel_44
Time_Shift_141
Note_On_65_Vel_0
Note_On_73_Vel_0
Time_Shift_1
Note_On_68_Vel_0
Time_Shift_4
Note_On_72_Vel_0
Sustain_Off
Time_Shift_13
Note_On_75_Vel_58
Time_Shift_6
Note_On_65_Vel_35
Time_Shift_24
Note_On_34_Vel_36
Time_Shift_84
Sustain_On
Time_Shift_71
Note_On_73_Vel_54
Time_Shift_25
Note_On_68_Vel_40
Time_Shift_187
Note_On_73_Vel_0
Time_Shift_2
Note_On_68_Vel_0
Time_Shift_2
Note_On_75_Vel_0
Note_On_65_Vel_0
Time_Shift_1
Sustain_Off
Time_Shift_6
Note_On_72_Vel_58
Time_Shift_6
Note_On_34_Vel_0
Time_Shift_4
Note_On_51_Vel_37
Time_Shift_1
Note_On_39_Vel_39
Time_Shift_5
Note_On_61_Vel_37
Time_Shift_113
Sustain_On
Time_Shift_72
Note_On_70_Vel_54
Time_Shift_25
Note_On_63_Vel_41
Time_Shift_136
Note_On_72_Vel_0
Time_Shift_1
Sustain_Off
Note_On_63_Vel_0
Time_Shift_1
Note_On_70_Vel_0
Time_Shift_1
Note_On_69_Vel_61
Time_Shift_2
Note_On_61_Vel_0
Time_Shift_6
Note_On_61_Vel_44
Time_Shift_2
Note_On_39_Vel_0
Time_Shift_4
Note_On_39_Vel_35
Time_Shift_7
Note_On_55_Vel_44
Time_Shift_27
Note_On_51_Vel_0
Time_Shift_27
Note_On_55_Vel_0
Time_Shift_6
Note_On_61_Vel_0
Time_Shift_1
Note_On_69_Vel_0
Time_Shift_27
Sustain_On
Time_Shift_39
Note_On_70_Vel_64
Time_Shift_20
Note_On_63_Vel_55
Time_Shift_99
Sustain_Off
Time_Shift_6
Note_On_63_Vel_0
Note_On_70_Vel_0
Time_Shift_5
Note_On_39_Vel_0
Time_Shift_21
Note_On_72_Vel_74
Time_Shift_21
Note_On_51_Vel_45
Time_Shift_1
Note_On_39_Vel_43
Time_Shift_2
Note_On_61_Vel_51
Time_Shift_35
Note_On_39_Vel_0
Time_Shift_4
Note_On_61_Vel_0
Time_Shift_9
Note_On_51_Vel_0
Time_Shift_15
Sustain_On
Time_Shift_70
Note_On_67_Vel_57
Time_Shift_3
Note_On_63_Vel_56
Time_Shift_1
Note_On_51_Vel_42
Time_Shift_82
Sustain_Off
Time_Shift_1
Note_On_72_Vel_0
Time_Shift_4
Note_On_67_Vel_0
Time_Shift_3
Note_On_63_Vel_0
Time_Shift_28
Note_On_51_Vel_0
Time_Shift_27
Note_On_70_Vel_65
Time_Shift_6
Note_On_60_Vel_57
Note_On_44_Vel_46
Time_Shift_51
Sustain_On
Time_Shift_96
Note_On_68_Vel_65
Time_Shift_25
Note_On_63_Vel_50
Time_Shift_50
Sustain_Off
Time_Shift_2
Note_On_60_Vel_0
Time_Shift_4
Note_On_70_Vel_0
Time_Shift_1
Note_On_63_Vel_0
Time_Shift_7
Note_On_44_Vel_0
Time_Shift_60
Note_On_67_Vel_63
Time_Shift_14
Note_On_60_Vel_53
Time_Shift_5
Note_On_56_Vel_46
Time_Shift_1
Note_On_44_Vel_44
Note_On_51_Vel_43
Time_Shift_4
Sustain_On
Time_Shift_115
Note_On_68_Vel_0
Time_Shift_9
Note_On_68_Vel_67
Time_Shift_15
Note_On_63_Vel_58
Time_Shift_43
Note_On_56_Vel_0
Time_Shift_1
Note_On_60_Vel_0
Time_Shift_1
Note_On_51_Vel_0
Note_On_67_Vel_0
Time_Shift_3
Sustain_Off
Time_Shift_16
Note_On_63_Vel_0
Time_Shift_12
Note_On_44_Vel_0
Time_Shift_31
Note_On_68_Vel_0
Time_Shift_21
Note_On_72_Vel_76
Time_Shift_6
Note_On_60_Vel_53
Time_Shift_4
Sustain_On
Time_Shift_4
Note_On_56_Vel_45
Note_On_44_Vel_45
Time_Shift_137
Note_On_77_Vel_78
Time_Shift_136
Note_On_56_Vel_0
Note_On_60_Vel_0
Note_On_72_Vel_0
Time_Shift_1
Note_On_44_Vel_0
Time_Shift_1
Note_On_77_Vel_0
Sustain_Off
Time_Shift_34
Note_On_75_Vel_67
Time_Shift_19
Note_On_66_Vel_46
Note_On_54_Vel_40
Time_Shift_11
Note_On_39_Vel_36
Time_Shift_8
Note_On_58_Vel_32
Time_Shift_56
Sustain_On
Time_Shift_119
Note_On_70_Vel_51
Time_Shift_27
Note_On_58_Vel_0
Time_Shift_4
Note_On_58_Vel_20
Time_Shift_3
Note_On_54_Vel_0
Time_Shift_11
Note_On_54_Vel_24
Time_Shift_103
Note_On_73_Vel_66
Time_Shift_17
Note_On_58_Vel_0
Time_Shift_8
Note_On_54_Vel_0
Note_On_63_Vel_44
Time_Shift_2
Note_On_58_Vel_41
Time_Shift_2
Note_On_54_Vel_34
Sustain_Off
Time_Shift_9
Note_On_70_Vel_0
Note_On_66_Vel_0
Time_Shift_1
Note_On_39_Vel_0
Time_Shift_1
Note_On_75_Vel_0
Time_Shift_69
Sustain_On
Time_Shift_138
Note_On_54_Vel_0
Time_Shift_4
Note_On_72_Vel_67
Time_Shift_7
Note_On_54_Vel_35
Time_Shift_1
Note_On_66_Vel_44
Time_Shift_127
Note_On_54_Vel_0
Time_Shift_1
Note_On_58_Vel_0
Time_Shift_1
Note_On_63_Vel_0
Sustain_Off
Note_On_73_Vel_0
Time_Shift_21
Note_On_66_Vel_0
Time_Shift_28
Note_On_70_Vel_62
Time_Shift_10
Note_On_63_Vel_39
Time_Shift_4
Note_On_41_Vel_34
Time_Shift_15
Note_On_60_Vel_24
Note_On_72_Vel_0
Time_Shift_8
Note_On_57_Vel_25
Time_Shift_34
Sustain_On
Time_Shift_70
Note_On_57_Vel_0
Time_Shift_17
Note_On_72_Vel_65
Time_Shift_29
Note_On_65_Vel_40
Time_Shift_130
Note_On_63_Vel_0
Time_Shift_2
Sustain_Off
Time_Shift_4
Note_On_41_Vel_0
Note_On_72_Vel_0
Time_Shift_1
Note_On_70_Vel_0
Time_Shift_4
Note_On_65_Vel_0
Time_Shift_5
Note_On_60_Vel_0
Time_Shift_3
Note_On_73_Vel_61
Time_Shift_8
Note_On_46_Vel_39
Time_Shift_3
Note_On_61_Vel_34
Time_Shift_72
Note_On_46_Vel_0
Time_Shift_29
Sustain_On
Time_Shift_72
Note_On_65_Vel_43
Time_Shift_69
Note_On_65_Vel_0
Time_Shift_5
Sustain_Off
Time_Shift_7
Note_On_61_Vel_0
Time_Shift_73
Note_On_61_Vel_51
Time_Shift_4
Note_On_73_Vel_0
Time_Shift_3
Note_On_58_Vel_41
Time_Shift_6
Note_On_73_Vel_42
Time_Shift_6
Note_On_53_Vel_31
Time_Shift_37
Note_On_61_Vel_0
Time_Shift_4
Note_On_53_Vel_0
Time_Shift_2
Note_On_58_Vel_0
Time_Shift_115
Note_On_64_Vel_50
Time_Shift_40
Note_On_64_Vel_0
Time_Shift_134
Note_On_65_Vel_46
Time_Shift_4
Note_On_43_Vel_32
Time_Shift_32
Note_On_65_Vel_0
Time_Shift_11
Note_On_43_Vel_0
Time_Shift_142
Note_On_70_Vel_48
Time_Shift_74
Note_On_70_Vel_0
Time_Shift_116
Note_On_48_Vel_36
Time_Shift_4
Note_On_64_Vel_50
Time_Shift_55
Note_On_64_Vel_0
Time_Shift_33
Note_On_48_Vel_0
Time_Shift_19
Note_On_73_Vel_0
Time_Shift_31
Sustain_On
Time_Shift_40
Sustain_Off
Time_Shift_39
Note_On_72_Vel_70
Time_Shift_11
Note_On_70_Vel_58
Time_Shift_2
Sustain_On
Time_Shift_129
Note_On_73_Vel_61
Time_Shift_16
Sustain_Off
Time_Shift_1
Note_On_70_Vel_0
Note_On_72_Vel_0
Time_Shift_8
Note_On_72_Vel_73
Time_Shift_15
Note_On_64_Vel_45
Time_Shift_3
Note_On_60_Vel_44
Time_Shift_3
Note_On_55_Vel_40
Time_Shift_44
Note_On_60_Vel_0
Note_On_55_Vel_0
Time_Shift_1
Note_On_64_Vel_0
Time_Shift_57
Sustain_On
Time_Shift_19
Note_On_71_Vel_76
Time_Shift_11
Note_On_73_Vel_0
Time_Shift_126
Note_On_72_Vel_0
Time_Shift_2
Sustain_Off
Time_Shift_21
Note_On_71_Vel_0
Time_Shift_10
Note_On_76_Vel_49
Time_Shift_3
Note_On_73_Vel_64
Time_Shift_7
Note_On_76_Vel_0
Time_Shift_11
Note_On_64_Vel_46
Time_Shift_26
Note_On_36_Vel_28
Time_Shift_40
Sustain_On
Time_Shift_128
Note_On_70_Vel_56
Time_Shift_62
Note_On_64_Vel_0
Time_Shift_6
Sustain_Off
Time_Shift_4
Note_On_36_Vel_0
Time_Shift_80
Note_On_70_Vel_0
Note_On_65_Vel_41
Time_Shift_4
Note_On_73_Vel_0
Time_Shift_5
Note_On_48_Vel_37
Time_Shift_53
Note_On_65_Vel_0
Time_Shift_11
Sustain_On
Time_Shift_82
Note_On_72_Vel_73
Time_Shift_9
Note_On_68_Vel_63
Time_Shift_92
Sustain_Off
Time_Shift_8
Note_On_68_Vel_0
Note_On_72_Vel_0
Time_Shift_4
Note_On_48_Vel_0
Time_Shift_10
Note_On_73_Vel_61
Time_Shift_36
Note_On_72_Vel_72
Time_Shift_2
Note_On_60_Vel_43
Note_On_65_Vel_42
Time_Shift_5
Note_On_56_Vel_45
Time_Shift_39
Note_On_60_Vel_0
Time_Shift_2
Note_On_56_Vel_0
Time_Shift_1
Note_On_65_Vel_0
Time_Shift_41
Sustain_On
Time_Shift_31
Note_On_71_Vel_78
Time_Shift_99
Note_On_73_Vel_0
Time_Shift_6
Note_On_72_Vel_0
Time_Shift_6
Sustain_Off
Time_Shift_38
Note_On_73_Vel_70
Time_Shift_16
Note_On_65_Vel_53
Time_Shift_16
Note_On_71_Vel_0
Time_Shift_41
Sustain_On
Time_Shift_86
Note_On_72_Vel_78
Time_Shift_17
Note_On_68_Vel_62
Time_Shift_74
Note_On_65_Vel_0
Time_Shift_1
Note_On_73_Vel_0
Time_Shift_2
Note_On_68_Vel_0
Time_Shift_5
Sustain_Off
Time_Shift_49
Note_On_71_Vel_77
Time_Shift_3
Note_On_64_Vel_59
Time_Shift_22
Note_On_72_Vel_0
Time_Shift_4
Note_On_50_Vel_32
Time_Shift_1
Note_On_48_Vel_34
Time_Shift_36
Note_On_50_Vel_0
Time_Shift_7
Sustain_On
Time_Shift_31
Note_On_48_Vel_0
Time_Shift_36
Note_On_72_Vel_77
Time_Shift_25
Note_On_70_Vel_66
Time_Shift_84
Note_On_64_Vel_0
Time_Shift_1
Note_On_71_Vel_0
Time_Shift_2
Note_On_70_Vel_0
Time_Shift_4
Sustain_Off
Time_Shift_44
Note_On_73_Vel_75
Time_Shift_5
Note_On_58_Vel_44
Note_On_55_Vel_51
Time_Shift_2
Note_On_64_Vel_59
Time_Shift_6
Note_On_72_Vel_0
Time_Shift_28
Note_On_64_Vel_0
Time_Shift_32
Sustain_On
Time_Shift_82
Note_On_72_Vel_81
Time_Shift_102
Note_On_73_Vel_0
Time_Shift_3
Note_On_55_Vel_0
Time_Shift_1
Note_On_58_Vel_0
Time_Shift_1
Sustain_Off
Time_Shift_43
Note_On_77_Vel_80
Time_Shift_10
Note_On_70_Vel_68
Time_Shift_7
Note_On_64_Vel_51
Time_Shift_20
Note_On_72_Vel_0
Time_Shift_9
Note_On_64_Vel_0
Time_Shift_2
Note_On_48_Vel_39
Time_Shift_19
Sustain_On
Time_Shift_105
Note_On_79_Vel_76
Time_Shift_5
Note_On_72_Vel_65
Time_Shift_154
Sustain_Off
Time_Shift_4
Note_On_72_Vel_0
Note_On_70_Vel_0
Time_Shift_2
Note_On_77_Vel_0
Time_Shift_1
Note_On_79_Vel_0
Time_Shift_1
Note_On_48_Vel_0
Time_Shift_17
Note_On_80_Vel_76
Time_Shift_15
Note_On_68_Vel_52
Time_Shift_1
Note_On_41_Vel_38
Time_Shift_87
Sustain_On
Time_Shift_97
Note_On_73_Vel_59
Time_Shift_148
Sustain_Off
Time_Shift_16
Note_On_68_Vel_0
Time_Shift_2
Note_On_80_Vel_0
Time_Shift_2
Note_On_68_Vel_51
Note_On_73_Vel_0
Time_Shift_6
Note_On_61_Vel_47
Time_Shift_2
Note_On_53_Vel_35
Time_Shift_25
Note_On_49_Vel_21
Time_Shift_48
Sustain_On
Time_Shift_151
Note_On_71_Vel_50
Time_Shift_18
Note_On_49_Vel_0
Time_Shift_174
Note_On_53_Vel_0
Note_On_41_Vel_0
Note_On_61_Vel_0
Sustain_Off
Time_Shift_1
Note_On_71_Vel_0
Note_On_68_Vel_0
Time_Shift_20
Note_On_79_Vel_48
Time_Shift_7
Note_On_60_Vel_38
Time_Shift_1
Note_On_67_Vel_33
Time_Shift_2
Note_On_52_Vel_28
Time_Shift_130
Note_On_60_Vel_0
Time_Shift_2
Sustain_On
Time_Shift_151
Note_On_72_Vel_39
Time_Shift_210
Note_On_52_Vel_0
Time_Shift_5
Note_On_72_Vel_0
Note_On_67_Vel_0
Note_On_79_Vel_0
Time_Shift_3
Sustain_Off
Note_On_78_Vel_53
Time_Shift_35
Note_On_66_Vel_23
Time_Shift_6
Note_On_51_Vel_19
Note_On_39_Vel_24
Time_Shift_136
Sustain_On
Time_Shift_121
Note_On_71_Vel_56
Note_On_68_Vel_37
Time_Shift_9
Note_On_68_Vel_0
Time_Shift_161
Note_On_73_Vel_52
Time_Shift_16
Note_On_66_Vel_0
Time_Shift_5
Note_On_66_Vel_32
Time_Shift_5
Sustain_Off
Time_Shift_5
Note_On_59_Vel_35
Note_On_51_Vel_0
Note_On_71_Vel_0
Time_Shift_6
Note_On_71_Vel_58
Time_Shift_5
Note_On_51_Vel_28
Time_Shift_4
Note_On_78_Vel_0
Time_Shift_39
Note_On_39_Vel_0
Time_Shift_38
Sustain_On
Time_Shift_86
Note_On_70_Vel_49
Time_Shift_108
Note_On_59_Vel_0
Time_Shift_1
Note_On_51_Vel_0
Sustain_Off
Time_Shift_1
Note_On_70_Vel_0
Time_Shift_12
Note_On_66_Vel_0
Time_Shift_15
Note_On_71_Vel_0
Time_Shift_6
Note_On_71_Vel_60
Time_Shift_6
Note_On_66_Vel_45
Time_Shift_10
Note_On_59_Vel_35
Time_Shift_10
Note_On_51_Vel_25
Time_Shift_37
Note_On_73_Vel_0
Time_Shift_39
Sustain_On
Time_Shift_81
Note_On_68_Vel_50
Time_Shift_114
Sustain_Off
Time_Shift_3
Note_On_51_Vel_0
Time_Shift_1
Note_On_66_Vel_0
Note_On_59_Vel_0
Time_Shift_3
Note_On_68_Vel_0
Time_Shift_33
Note_On_37_Vel_34
Time_Shift_2
Note_On_64_Vel_47
Time_Shift_1
Note_On_49_Vel_30
Time_Shift_40
Note_On_37_Vel_0
Time_Shift_2
Note_On_64_Vel_0
Time_Shift_12
Note_On_49_Vel_0
Time_Shift_38
Sustain_On
Time_Shift_59
Note_On_68_Vel_53
Time_Shift_121
Sustain_Off
Time_Shift_6
Note_On_68_Vel_0
Time_Shift_29
Note_On_71_Vel_0
Time_Shift_4
Note_On_70_Vel_55
Time_Shift_6
Note_On_64_Vel_44
Time_Shift_8
Note_On_54_Vel_39
Time_Shift_1
Note_On_49_Vel_35
Time_Shift_58
Note_On_49_Vel_0
Time_Shift_2
Note_On_54_Vel_0
Time_Shift_28
Sustain_On
Time_Shift_68
Note_On_66_Vel_48
Time_Shift_108
Note_On_64_Vel_0
Note_On_66_Vel_0
Time_Shift_2
Sustain_Off
Note_On_70_Vel_0
Time_Shift_35
Note_On_76_Vel_62
Time_Shift_13
Note_On_64_Vel_45
Time_Shift_4
Note_On_55_Vel_37
Time_Shift_4
Note_On_49_Vel_36
Time_Shift_33
Note_On_55_Vel_0
Time_Shift_9
Note_On_49_Vel_0
Time_Shift_24
Sustain_On
Time_Shift_79
Note_On_67_Vel_50
Time_Shift_98
Sustain_Off
Time_Shift_1
Note_On_64_Vel_0
Time_Shift_2
Note_On_67_Vel_0
Note_On_76_Vel_0
Time_Shift_40
Note_On_75_Vel_63
Time_Shift_15
Note_On_35_Vel_33
Time_Shift_7
Note_On_47_Vel_24
Time_Shift_21
Note_On_63_Vel_30
Time_Shift_37
Sustain_On
Time_Shift_107
Note_On_68_Vel_63
Time_Shift_8
Note_On_63_Vel_0
Time_Shift_9
Note_On_63_Vel_33
Time_Shift_110
Note_On_70_Vel_52
Time_Shift_7
Sustain_Off
Time_Shift_12
Note_On_47_Vel_0
Time_Shift_3
Note_On_75_Vel_0
Time_Shift_7
Note_On_47_Vel_31
Time_Shift_4
Note_On_56_Vel_41
Time_Shift_1
Note_On_68_Vel_0
Time_Shift_5
Note_On_68_Vel_67
Time_Shift_3
Note_On_63_Vel_0
Time_Shift_11
Note_On_63_Vel_36
Time_Shift_59
Note_On_63_Vel_0
Time_Shift_14
Sustain_On
Time_Shift_39
Note_On_47_Vel_0
Time_Shift_2
Note_On_67_Vel_68
Time_Shift_4
Note_On_47_Vel_34
Time_Shift_48
Note_On_70_Vel_0
Time_Shift_68
Sustain_Off
Time_Shift_1
Note_On_56_Vel_0
Time_Shift_4
Note_On_67_Vel_0
Time_Shift_1
Note_On_68_Vel_0
Time_Shift_2
Note_On_35_Vel_0
Time_Shift_33
Note_On_68_Vel_66
Time_Shift_14
Note_On_47_Vel_0
Time_Shift_4
Note_On_47_Vel_35
Time_Shift_2
Note_On_63_Vel_48
Time_Shift_4
Note_On_56_Vel_38
Time_Shift_34
Note_On_56_Vel_0
Time_Shift_5
Note_On_47_Vel_0
Time_Shift_8
Note_On_63_Vel_0
Time_Shift_78
Note_On_64_Vel_57
Time_Shift_65
Note_On_64_Vel_0
Time_Shift_89
Note_On_61_Vel_53
Time_Shift_1
Note_On_34_Vel_39
Time_Shift_15
Note_On_53_Vel_33
Time_Shift_9
Note_On_53_Vel_0
Time_Shift_20
Note_On_34_Vel_0
Note_On_61_Vel_0
Time_Shift_102
Note_On_64_Vel_58
Time_Shift_49
Note_On_64_Vel_0
Time_Shift_99
Note_On_67_Vel_63
Time_Shift_10
Note_On_61_Vel_51
Time_Shift_2
Note_On_46_Vel_44
Time_Shift_1
Note_On_51_Vel_39
Time_Shift_4
Note_On_39_Vel_35
Time_Shift_33
Note_On_51_Vel_0
Time_Shift_5
Note_On_46_Vel_0
Note_On_61_Vel_0
Time_Shift_6
Note_On_39_Vel_0
Time_Shift_17
Note_On_68_Vel_0
Time_Shift_106
Note_On_63_Vel_58
Time_Shift_67
Note_On_63_Vel_0
Time_Shift_98
Note_On_73_Vel_64
Time_Shift_16
Note_On_51_Vel_32
Time_Shift_1
Note_On_61_Vel_45
Time_Shift_2
Note_On_39_Vel_35
Time_Shift_38
Sustain_On
Time_Shift_146
Note_On_67_Vel_0
Time_Shift_7
Note_On_67_Vel_47
Time_Shift_130
Note_On_67_Vel_0
Sustain_Off
Time_Shift_4
Note_On_61_Vel_0
Time_Shift_2
Note_On_51_Vel_0
Note_On_39_Vel_0
Time_Shift_41
Note_On_60_Vel_52
Time_Shift_10
Note_On_44_Vel_38
Time_Shift_6
Sustain_On
Time_Shift_194
Note_On_72_Vel_70
Time_Shift_1
Note_On_68_Vel_59
Time_Shift_166
Note_On_60_Vel_0
Time_Shift_7
Note_On_60_Vel_60
Time_Shift_1
Note_On_68_Vel_0
Sustain_Off
Time_Shift_1
Note_On_70_Vel_66
Time_Shift_2
Note_On_72_Vel_0
Time_Shift_1
Note_On_56_Vel_45
Time_Shift_3
Note_On_73_Vel_0
Time_Shift_1
Note_On_44_Vel_0
Time_Shift_10
Note_On_51_Vel_45
Time_Shift_24
Note_On_56_Vel_0
Note_On_60_Vel_0
Time_Shift_34
Note_On_51_Vel_0
Time_Shift_84
Note_On_68_Vel_64
Time_Shift_4
Note_On_63_Vel_61
Time_Shift_125
Note_On_70_Vel_0
Time_Shift_4
Note_On_63_Vel_0
Time_Shift_2
Note_On_68_Vel_0
Time_Shift_3
Note_On_72_Vel_74
Time_Shift_15
Note_On_37_Vel_49
Time_Shift_2
Note_On_61_Vel_54
Time_Shift_48
Note_On_61_Vel_0
Time_Shift_17
Note_On_37_Vel_0
Time_Shift_70
Note_On_70_Vel_67
Time_Shift_5
Note_On_65_Vel_60
Time_Shift_27
Note_On_72_Vel_0
Time_Shift_31
Note_On_65_Vel_0
Time_Shift_100
Note_On_58_Vel_52
Time_Shift_1
Note_On_39_Vel_47
Time_Shift_3
Note_On_68_Vel_62
Time_Shift_4
Note_On_51_Vel_38
Time_Shift_36
Note_On_70_Vel_0
Time_Shift_4
Note_On_58_Vel_0
Time_Shift_45
Sustain_On
Time_Shift_77
Note_On_65_Vel_52
Time_Shift_176
Note_On_39_Vel_0
Note_On_51_Vel_0
Time_Shift_1
Note_On_58_Vel_51
Time_Shift_4
Note_On_51_Vel_40
Time_Shift_2
Note_On_39_Vel_39
Time_Shift_6
Note_On_63_Vel_34
Time_Shift_11
Note_On_63_Vel_0
Time_Shift_160
Note_On_60_Vel_51
Time_Shift_185
Note_On_39_Vel_0
Note_On_51_Vel_0
Time_Shift_3
Note_On_67_Vel_49
Sustain_Off
Time_Shift_4
Note_On_39_Vel_31
Time_Shift_2
Note_On_65_Vel_0
Time_Shift_1
Note_On_61_Vel_44
Time_Shift_1
Note_On_51_Vel_30
Note_On_58_Vel_0
Note_On_68_Vel_0
Time_Shift_4
Note_On_60_Vel_0
Time_Shift_100
Sustain_On
Time_Shift_83
Note_On_63_Vel_38
Time_Shift_202
Sustain_Off
Time_Shift_3
Note_On_63_Vel_0
Note_On_67_Vel_0
Time_Shift_1
Note_On_61_Vel_0
Time_Shift_17
Note_On_68_Vel_48
Time_Shift_2
Note_On_51_Vel_0
Time_Shift_3
Note_On_60_Vel_44
Time_Shift_1
Note_On_51_Vel_27
Time_Shift_6
Note_On_56_Vel_32
Time_Shift_4
Note_On_44_Vel_29
Time_Shift_9
Note_On_39_Vel_0
Time_Shift_92
Sustain_On
Time_Shift_343
Note_On_72_Vel_49
Time_Shift_25
Note_On_60_Vel_0
Time_Shift_5
Note_On_60_Vel_27
Time_Shift_215
Note_On_70_Vel_53
Time_Shift_126
Note_On_72_Vel_0
Time_Shift_10
Note_On_72_Vel_49
Time_Shift_11
Sustain_Off
Time_Shift_5
Note_On_44_Vel_0
Note_On_51_Vel_0
Time_Shift_5
Note_On_70_Vel_0
Time_Shift_7
Note_On_60_Vel_0
Time_Shift_4
Note_On_70_Vel_55
Time_Shift_4
Note_On_56_Vel_0
Time_Shift_3
Note_On_60_Vel_38
Time_Shift_2
Note_On_56_Vel_37
Time_Shift_3
Note_On_63_Vel_22
Time_Shift_53
Sustain_On
Time_Shift_93
Note_On_68_Vel_0
Time_Shift_5
Note_On_68_Vel_54
Time_Shift_79
Note_On_63_Vel_0
Time_Shift_28
Sustain_Off
Time_Shift_7
Note_On_60_Vel_0
Note_On_56_Vel_0
Time_Shift_1
Note_On_70_Vel_0
Note_On_68_Vel_0
Time_Shift_10
Note_On_72_Vel_0
Time_Shift_16
Note_On_72_Vel_55
Time_Shift_18
Note_On_61_Vel_42
Time_Shift_1
Note_On_56_Vel_39
Time_Shift_103
Sustain_On
Time_Shift_48
Note_On_70_Vel_52
Time_Shift_4
Note_On_65_Vel_38
Time_Shift_83
Sustain_Off
Time_Shift_27
Note_On_72_Vel_0
Time_Shift_5
Note_On_72_Vel_57
Time_Shift_25
Sustain_On
Time_Shift_8
Note_On_61_Vel_0
Note_On_70_Vel_0
Time_Shift_7
Note_On_70_Vel_53
Time_Shift_1
Note_On_65_Vel_0
Note_On_61_Vel_38
Time_Shift_3
Note_On_68_Vel_43
Time_Shift_3
Note_On_65_Vel_26
Time_Shift_124
Note_On_65_Vel_0
Note_On_68_Vel_0
Time_Shift_5
Note_On_65_Vel_39
Note_On_68_Vel_52
Time_Shift_88
Note_On_70_Vel_0
Time_Shift_5
Note_On_70_Vel_39
Time_Shift_12
Sustain_Off
Time_Shift_2
Note_On_61_Vel_0
Time_Shift_2
Note_On_65_Vel_0
Time_Shift_1
Note_On_56_Vel_0
Time_Shift_16
Note_On_70_Vel_0
Note_On_72_Vel_0
Time_Shift_7
Note_On_72_Vel_53
Time_Shift_1
Note_On_68_Vel_0
Time_Shift_10
Note_On_68_Vel_43
Time_Shift_12
Note_On_44_Vel_39
Time_Shift_5
Note_On_61_Vel_42
Time_Shift_57
Sustain_On
Time_Shift_87
Note_On_70_Vel_57
Time_Shift_92
Sustain_Off
Time_Shift_4
Note_On_61_Vel_0
Note_On_72_Vel_0
Time_Shift_24
Note_On_68_Vel_0
Time_Shift_8
Note_On_70_Vel_0
Time_Shift_7
Note_On_70_Vel_59
Time_Shift_4
Note_On_60_Vel_49
Time_Shift_20
Note_On_44_Vel_0
Time_Shift_10
Note_On_44_Vel_31
Time_Shift_28
Sustain_On
Time_Shift_110
Note_On_68_Vel_49
Time_Shift_2
Note_On_63_Vel_47
Time_Shift_137
Note_On_72_Vel_62
Time_Shift_20
Note_On_60_Vel_0
Time_Shift_4
Note_On_60_Vel_48
Time_Shift_119
Note_On_63_Vel_0
Note_On_70_Vel_0
Time_Shift_10
Note_On_70_Vel_61
Time_Shift_1
Note_On_63_Vel_51
Time_Shift_119
Note_On_72_Vel_0
Time_Shift_4
Note_On_72_Vel_63
Time_Shift_3
Note_On_56_Vel_51
Time_Shift_9
Note_On_60_Vel_0
Time_Shift_8
Note_On_70_Vel_0
Time_Shift_2
Note_On_60_Vel_47
Time_Shift_7
Note_On_70_Vel_53
Time_Shift_144
Note_On_60_Vel_0
Note_On_68_Vel_0
Time_Shift_6
Note_On_60_Vel_47
Time_Shift_1
Note_On_68_Vel_55
Time_Shift_101
Note_On_56_Vel_0
Note_On_68_Vel_0
Time_Shift_7
Note_On_56_Vel_59
Time_Shift_1
Note_On_68_Vel_54
Time_Shift_56
Sustain_Off
Time_Shift_5
Note_On_72_Vel_0
Time_Shift_2
Note_On_70_Vel_0
Time_Shift_1
Note_On_63_Vel_0
Note_On_60_Vel_0
Note_On_44_Vel_0
Time_Shift_4
Note_On_56_Vel_0
Time_Shift_2
Note_On_72_Vel_64
Time_Shift_5
Note_On_56_Vel_56
Time_Shift_33
Note_On_61_Vel_49
Time_Shift_99
Sustain_On
Time_Shift_35
Note_On_70_Vel_63
Time_Shift_21
Note_On_65_Vel_40
Time_Shift_97
Note_On_72_Vel_0
Time_Shift_8
Note_On_65_Vel_0
Time_Shift_2
Note_On_72_Vel_66
Time_Shift_4
Note_On_65_Vel_41
Time_Shift_9
Note_On_70_Vel_0
Time_Shift_8
Note_On_61_Vel_0
Time_Shift_3
Note_On_70_Vel_59
Time_Shift_2
Note_On_61_Vel_48
Time_Shift_141
Note_On_65_Vel_0
Note_On_68_Vel_0
Time_Shift_5
Note_On_68_Vel_54
Time_Shift_3
Note_On_56_Vel_0
Time_Shift_2
Note_On_65_Vel_40
Time_Shift_6
Note_On_56_Vel_40
Time_Shift_96
Sustain_Off
Time_Shift_6
Note_On_65_Vel_0
Time_Shift_1
Note_On_70_Vel_0
Note_On_68_Vel_0
Time_Shift_11
Note_On_72_Vel_0
Time_Shift_7
Note_On_72_Vel_57
Time_Shift_17
Note_On_56_Vel_0
Note_On_61_Vel_0
Time_Shift_3
Note_On_61_Vel_44
Time_Shift_5
Note_On_56_Vel_45
Time_Shift_5
Note_On_44_Vel_40
Time_Shift_86
Sustain_On
Time_Shift_51
Note_On_70_Vel_63
Time_Shift_67
Sustain_Off
Time_Shift_9
Note_On_72_Vel_0
Time_Shift_19
Note_On_56_Vel_0
Time_Shift_46
Note_On_61_Vel_0
Time_Shift_19
Note_On_68_Vel_59
Time_Shift_8
Note_On_60_Vel_53
Time_Shift_7
Note_On_56_Vel_40
Time_Shift_59
Sustain_On
Time_Shift_103
Note_On_63_Vel_51
Time_Shift_84
Sustain_Off
Time_Shift_5
Note_On_68_Vel_0
Time_Shift_7
Note_On_68_Vel_34
Time_Shift_3
Note_On_60_Vel_0
Time_Shift_5
Note_On_70_Vel_0
Time_Shift_3
Note_On_63_Vel_0
Time_Shift_25
Note_On_69_Vel_54
Time_Shift_4
Note_On_66_Vel_47
Time_Shift_24
Note_On_56_Vel_0
Time_Shift_2
Note_On_44_Vel_0
Time_Shift_11
Note_On_68_Vel_0
Time_Shift_54
Sustain_On
Time_Shift_75
Note_On_60_Vel_49
Time_Shift_74
Note_On_69_Vel_0
Time_Shift_1
Note_On_66_Vel_0
Note_On_60_Vel_0
Sustain_Off
Time_Shift_78
Note_On_61_Vel_55
Time_Shift_4
Note_On_70_Vel_67
Time_Shift_60
Sustain_On
Time_Shift_95
Note_On_67_Vel_46
Time_Shift_93
Sustain_Off
Time_Shift_9
Note_On_61_Vel_0
Time_Shift_1
Note_On_67_Vel_0
Time_Shift_5
Note_On_70_Vel_0
Time_Shift_37
Note_On_71_Vel_72
Time_Shift_10
Note_On_68_Vel_61
Time_Shift_49
Sustain_On
Time_Shift_106
Note_On_62_Vel_55
Time_Shift_105
Sustain_Off
Time_Shift_3
Note_On_62_Vel_0
Time_Shift_4
Note_On_68_Vel_0
Time_Shift_9
Note_On_71_Vel_0
Time_Shift_17
Note_On_72_Vel_77
Time_Shift_10
Note_On_63_Vel_58
Time_Shift_64
Note_On_63_Vel_0
Time_Shift_58
Sustain_On
Time_Shift_28
Note_On_69_Vel_56
Time_Shift_36
Note_On_69_Vel_0
Time_Shift_2
Sustain_Off
Time_Shift_108
Note_On_73_Vel_71
Time_Shift_16
Note_On_70_Vel_64
Time_Shift_1
Note_On_72_Vel_0
Time_Shift_48
Sustain_On
Time_Shift_94
Note_On_64_Vel_55
Time_Shift_72
Note_On_70_Vel_0
Time_Shift_1
Note_On_64_Vel_0
Time_Shift_2
Sustain_Off
Time_Shift_93
Note_On_65_Vel_61
Time_Shift_60
Sustain_On
Time_Shift_101
Sustain_Off
Note_On_65_Vel_0
Time_Shift_6
Note_On_74_Vel_70
Time_Shift_16
Note_On_73_Vel_0
Note_On_71_Vel_71
Time_Shift_89
Note_On_71_Vel_0
Time_Shift_42
Sustain_On
Time_Shift_27
Note_On_66_Vel_57
Time_Shift_149
Sustain_Off
Time_Shift_4
Note_On_66_Vel_0
Time_Shift_28
Note_On_75_Vel_74
Time_Shift_1
Note_On_72_Vel_69
Time_Shift_15
Note_On_74_Vel_0
Time_Shift_61
Note_On_72_Vel_0
Time_Shift_52
Sustain_On
Time_Shift_33
Note_On_67_Vel_59
Time_Shift_165
Note_On_76_Vel_74
Time_Shift_13
Note_On_73_Vel_62
Time_Shift_44
Note_On_67_Vel_0
Time_Shift_2
Note_On_75_Vel_0
Time_Shift_4
Sustain_Off
Time_Shift_59
Note_On_73_Vel_0
Time_Shift_54
Note_On_68_Vel_65
Time_Shift_3
Sustain_On
Time_Shift_205
Note_On_77_Vel_77
Time_Shift_22
Note_On_69_Vel_59
Time_Shift_10
Note_On_68_Vel_0
Time_Shift_137
Sustain_Off
Time_Shift_9
Note_On_69_Vel_0
Time_Shift_18
Note_On_77_Vel_0
Time_Shift_11
Note_On_78_Vel_75
Time_Shift_13
Note_On_70_Vel_54
Time_Shift_89
Sustain_On
Time_Shift_108
Note_On_76_Vel_0
Time_Shift_11
Note_On_79_Vel_74
Sustain_Off
Time_Shift_7
Note_On_70_Vel_0
Time_Shift_16
Note_On_71_Vel_56
Time_Shift_3
Note_On_78_Vel_0
Time_Shift_202
Note_On_71_Vel_0
Time_Shift_17
Note_On_79_Vel_0
Time_Shift_4
Note_On_80_Vel_66
Time_Shift_21
Note_On_72_Vel_50
Time_Shift_72
Sustain_On
Time_Shift_288
Note_On_78_Vel_59
Time_Shift_32
Note_On_75_Vel_38
Time_Shift_248
Sustain_Off
Time_Shift_2
Note_On_75_Vel_0
Note_On_72_Vel_0
Note_On_78_Vel_0
Time_Shift_1
Note_On_80_Vel_0
Note_On_77_Vel_57
Time_Shift_11
Note_On_65_Vel_30
Time_Shift_15
Note_On_37_Vel_21
Time_Shift_117
Sustain_On
Time_Shift_155
Note_On_68_Vel_38
Time_Shift_137
Note_On_77_Vel_0
Time_Shift_8
Sustain_Off
Time_Shift_2
Note_On_77_Vel_58
Time_Shift_3
Note_On_68_Vel_0
Time_Shift_26
Note_On_65_Vel_0
Time_Shift_2
Note_On_49_Vel_34
Time_Shift_2
Note_On_65_Vel_26
Time_Shift_5
Note_On_56_Vel_37
Time_Shift_60
Note_On_37_Vel_0
Time_Shift_38
Note_On_56_Vel_0
Sustain_On
Time_Shift_72
Note_On_73_Vel_57
Time_Shift_15
Note_On_68_Vel_45
Time_Shift_5
Note_On_65_Vel_0
Time_Shift_9
Note_On_65_Vel_21
Time_Shift_106
Note_On_65_Vel_0
Time_Shift_6
Sustain_Off
Time_Shift_5
Note_On_65_Vel_23
Time_Shift_1
Note_On_68_Vel_0
Time_Shift_1
Note_On_73_Vel_0
Time_Shift_11
Note_On_77_Vel_0
Time_Shift_11
Note_On_70_Vel_56
Time_Shift_12
Note_On_65_Vel_0
Time_Shift_7
Note_On_42_Vel_34
Time_Shift_5
Note_On_61_Vel_42
Time_Shift_34
Note_On_49_Vel_0
Sustain_On
Time_Shift_110
Note_On_72_Vel_65
Time_Shift_23
Note_On_61_Vel_0
Time_Shift_1
Sustain_Off
Time_Shift_1
Note_On_70_Vel_0
Note_On_66_Vel_37
Time_Shift_18
Note_On_42_Vel_0
Time_Shift_17
Note_On_66_Vel_0
Time_Shift_56
Note_On_72_Vel_0
Time_Shift_31
Note_On_70_Vel_60
Time_Shift_4
Sustain_On
Time_Shift_2
Note_On_60_Vel_56
Time_Shift_13
Note_On_44_Vel_37
Time_Shift_119
Note_On_68_Vel_58
Time_Shift_7
Note_On_66_Vel_42
Time_Shift_5
Note_On_66_Vel_0
Time_Shift_30
Note_On_70_Vel_0
Time_Shift_8
Note_On_70_Vel_61
Time_Shift_54
Note_On_68_Vel_0
Time_Shift_4
Note_On_68_Vel_69
Time_Shift_5
Note_On_44_Vel_0
Time_Shift_2
Note_On_60_Vel_0
Time_Shift_4
Sustain_Off
Time_Shift_3
Note_On_70_Vel_0
Time_Shift_54
Note_On_68_Vel_0
Time_Shift_23
Note_On_67_Vel_66
Time_Shift_4
Note_On_63_Vel_48
Time_Shift_5
Note_On_56_Vel_45
Time_Shift_6
Note_On_51_Vel_44
Note_On_60_Vel_54
Time_Shift_27
Note_On_63_Vel_0
Time_Shift_3
Note_On_56_Vel_0
Time_Shift_29
Note_On_51_Vel_0
Time_Shift_7
Sustain_On
Time_Shift_67
Note_On_68_Vel_68
Time_Shift_131
Sustain_Off
Time_Shift_2
Note_On_67_Vel_0
Time_Shift_5
Note_On_68_Vel_0
Time_Shift_4
Note_On_70_Vel_70
Time_Shift_7
Note_On_60_Vel_0
Time_Shift_4
Note_On_63_Vel_39
Time_Shift_2
Note_On_60_Vel_50
Time_Shift_13
Note_On_56_Vel_40
Time_Shift_4
Note_On_44_Vel_43
Time_Shift_30
Note_On_60_Vel_0
Time_Shift_3
Note_On_56_Vel_0
Time_Shift_18
Note_On_44_Vel_0
Time_Shift_6
Note_On_70_Vel_0
Time_Shift_19
Note_On_63_Vel_0
Time_Shift_8
Sustain_On
Time_Shift_34
Note_On_72_Vel_73
Time_Shift_8
Note_On_66_Vel_49
Time_Shift_91
Sustain_Off
Time_Shift_3
Note_On_66_Vel_0
Note_On_72_Vel_0
Time_Shift_36
Note_On_75_Vel_73
Time_Shift_19
Note_On_65_Vel_43
Time_Shift_6
Note_On_46_Vel_46
Time_Shift_7
Note_On_68_Vel_28
Time_Shift_11
Note_On_68_Vel_0
Time_Shift_11
Note_On_75_Vel_0
Time_Shift_20
Note_On_46_Vel_0
Time_Shift_23
Sustain_On
Time_Shift_27
Note_On_73_Vel_67
Time_Shift_34
Note_On_65_Vel_0
Time_Shift_27
Note_On_75_Vel_58
Time_Shift_35
Note_On_73_Vel_0
Time_Shift_10
Note_On_73_Vel_63
Time_Shift_42
Sustain_Off
Time_Shift_22
Note_On_75_Vel_0
Time_Shift_2
Note_On_73_Vel_0
Time_Shift_4
Note_On_72_Vel_70
Time_Shift_24
Note_On_58_Vel_49
Time_Shift_5
Note_On_53_Vel_43
Time_Shift_3
Note_On_61_Vel_35
Time_Shift_36
Note_On_58_Vel_0
Note_On_61_Vel_0
Time_Shift_5
Note_On_53_Vel_0
Time_Shift_46
Sustain_On
Time_Shift_37
Note_On_73_Vel_73
Time_Shift_37
Note_On_68_Vel_35
Time_Shift_79
Sustain_Off
Time_Shift_12
Note_On_73_Vel_0
Time_Shift_4
Note_On_72_Vel_0
Time_Shift_22
Note_On_77_Vel_66
Time_Shift_1
Note_On_68_Vel_0
Time_Shift_22
Note_On_60_Vel_33
Time_Shift_2
Note_On_67_Vel_40
Time_Shift_1
Note_On_51_Vel_37
Time_Shift_4
Note_On_61_Vel_32
Time_Shift_9
Note_On_63_Vel_28
Time_Shift_22
Note_On_51_Vel_0
Time_Shift_2
Note_On_61_Vel_0
Time_Shift_8
Note_On_63_Vel_0
Time_Shift_7
Note_On_60_Vel_0
Time_Shift_16
Note_On_67_Vel_0
Time_Shift_7
Sustain_On
Time_Shift_41
Note_On_75_Vel_66
Time_Shift_22
Note_On_70_Vel_59
Time_Shift_96
Sustain_Off
Time_Shift_6
Note_On_70_Vel_0
Time_Shift_1
Note_On_77_Vel_0
Time_Shift_3
Note_On_75_Vel_0
Time_Shift_29
Note_On_73_Vel_66
Time_Shift_20
Note_On_44_Vel_44
Note_On_63_Vel_54
Time_Shift_1
Note_On_56_Vel_42
Time_Shift_50
Sustain_On
Time_Shift_87
Note_On_72_Vel_66
Time_Shift_17
Note_On_68_Vel_50
Time_Shift_84
Note_On_63_Vel_0
Time_Shift_1
Note_On_68_Vel_0
Note_On_73_Vel_0
Time_Shift_1
Note_On_72_Vel_0
Time_Shift_1
Sustain_Off
Time_Shift_1
Note_On_44_Vel_0
Time_Shift_8
Note_On_56_Vel_0
Time_Shift_43
Note_On_74_Vel_61
Time_Shift_7
Note_On_63_Vel_47
Time_Shift_5
Note_On_68_Vel_46
Time_Shift_2
Note_On_60_Vel_42
Time_Shift_7
Note_On_56_Vel_39
Time_Shift_35
Note_On_63_Vel_0
Time_Shift_3
Note_On_56_Vel_0
Time_Shift_1
Note_On_60_Vel_0
Time_Shift_20
Note_On_68_Vel_0
Time_Shift_15
Sustain_On
Time_Shift_64
Note_On_75_Vel_73
Time_Shift_26
Note_On_68_Vel_40
Time_Shift_140
Note_On_75_Vel_0
Time_Shift_4
Note_On_74_Vel_0
Note_On_75_Vel_53
Time_Shift_1
Sustain_Off
Time_Shift_2
Note_On_82_Vel_68
Time_Shift_8
Note_On_72_Vel_57
Time_Shift_8
Note_On_68_Vel_0
Time_Shift_7
Note_On_68_Vel_34
Time_Shift_10
Note_On_60_Vel_40
Time_Shift_2
Note_On_63_Vel_37
Time_Shift_46
Note_On_63_Vel_0
Note_On_60_Vel_0
Time_Shift_51
Sustain_On
Time_Shift_7
Note_On_68_Vel_0
Time_Shift_81
Note_On_80_Vel_63
Time_Shift_19
Note_On_75_Vel_0
Time_Shift_10
Note_On_75_Vel_53
Time_Shift_161
Note_On_78_Vel_71
Time_Shift_2
Sustain_Off
Time_Shift_1
Note_On_72_Vel_0
Time_Shift_1
Note_On_82_Vel_0
Time_Shift_1
Note_On_80_Vel_0
Time_Shift_8
Note_On_75_Vel_0
Time_Shift_8
Note_On_75_Vel_39
Time_Shift_17
Note_On_39_Vel_35
Time_Shift_1
Note_On_66_Vel_34
Note_On_51_Vel_29
Time_Shift_34
Note_On_39_Vel_0
Time_Shift_33
Note_On_51_Vel_0
Time_Shift_23
Sustain_On
Time_Shift_38
Note_On_66_Vel_0
Time_Shift_19
Note_On_74_Vel_62
Time_Shift_19
Note_On_70_Vel_57
Time_Shift_126
Sustain_Off
Time_Shift_10
Note_On_77_Vel_72
Time_Shift_10
Note_On_63_Vel_46
Time_Shift_4
Note_On_78_Vel_0
Time_Shift_3
Note_On_70_Vel_0
Time_Shift_5
Note_On_51_Vel_42
Time_Shift_4
Note_On_74_Vel_0
Note_On_66_Vel_44
Time_Shift_3
Note_On_58_Vel_40
Time_Shift_1
Note_On_74_Vel_39
Time_Shift_16
Note_On_63_Vel_0
Time_Shift_3
Note_On_75_Vel_0
Time_Shift_23
Note_On_51_Vel_0
Note_On_58_Vel_0
Note_On_66_Vel_0
Time_Shift_38
Sustain_On
Time_Shift_37
Note_On_75_Vel_68
Time_Shift_8
Note_On_70_Vel_62
Time_Shift_130
Sustain_Off
Time_Shift_12
Note_On_71_Vel_69
Time_Shift_9
Note_On_59_Vel_44
Time_Shift_4
Note_On_70_Vel_0
Time_Shift_3
Note_On_77_Vel_0
Time_Shift_4
Note_On_63_Vel_46
Time_Shift_1
Note_On_75_Vel_0
Time_Shift_2
Note_On_44_Vel_43
Time_Shift_8
Note_On_56_Vel_39
Time_Shift_10
Note_On_59_Vel_0
Time_Shift_21
Note_On_56_Vel_0
Time_Shift_8
Note_On_44_Vel_0
Time_Shift_4
Note_On_74_Vel_0
Time_Shift_23
Sustain_On
Time_Shift_57
Note_On_73_Vel_63
Time_Shift_59
Note_On_63_Vel_0
Time_Shift_5
Note_On_71_Vel_0
Time_Shift_1
Note_On_73_Vel_0
Time_Shift_5
Sustain_Off
Time_Shift_63
Note_On_71_Vel_69
Time_Shift_15
Note_On_34_Vel_43
Time_Shift_2
Note_On_62_Vel_45
Time_Shift_4
Note_On_65_Vel_37
Time_Shift_1
Note_On_46_Vel_36
Time_Shift_19
Sustain_On
Time_Shift_86
Note_On_70_Vel_62
Time_Shift_14
Note_On_71_Vel_0
Time_Shift_10
Note_On_71_Vel_69
Time_Shift_1
Note_On_68_Vel_46
Time_Shift_4
Note_On_68_Vel_0
Time_Shift_54
Note_On_70_Vel_0
Time_Shift_4
Note_On_70_Vel_65
Time_Shift_69
Note_On_71_Vel_0
Note_On_70_Vel_0
Note_On_34_Vel_0
Time_Shift_1
Note_On_46_Vel_0
Time_Shift_5
Sustain_Off
Time_Shift_18
Note_On_69_Vel_66
Time_Shift_3
Note_On_62_Vel_0
Time_Shift_5
Note_On_62_Vel_54
Time_Shift_2
Note_On_65_Vel_0
Time_Shift_11
Note_On_58_Vel_52
Note_On_65_Vel_44
Time_Shift_32
Note_On_69_Vel_0
Time_Shift_34
Sustain_On
Time_Shift_66
Note_On_70_Vel_70
Time_Shift_143
Note_On_72_Vel_74
Time_Shift_1
Note_On_70_Vel_0
Time_Shift_1
Note_On_65_Vel_0
Time_Shift_1
Sustain_Off
Time_Shift_3
Note_On_62_Vel_0
Time_Shift_4
Note_On_62_Vel_49
Time_Shift_4
Note_On_58_Vel_0
Time_Shift_7
Note_On_58_Vel_39
Time_Shift_4
Note_On_53_Vel_38
Time_Shift_27
Note_On_53_Vel_0
Time_Shift_12
Note_On_72_Vel_0
Time_Shift_4
Note_On_62_Vel_0
Time_Shift_7
Note_On_58_Vel_0
Time_Shift_31
Sustain_On
Time_Shift_33
Note_On_74_Vel_67
Time_Shift_6
Note_On_68_Vel_59
Time_Shift_134
Sustain_Off
Time_Shift_4
Note_On_74_Vel_0
Time_Shift_1
Note_On_77_Vel_72
Time_Shift_6
Note_On_68_Vel_0
Time_Shift_4
Note_On_66_Vel_56
Time_Shift_13
Note_On_51_Vel_48
Time_Shift_1
Note_On_39_Vel_53
Time_Shift_33
Note_On_39_Vel_0
Time_Shift_26
Sustain_On
Time_Shift_60
Note_On_75_Vel_65
Time_Shift_9
Note_On_77_Vel_0
Time_Shift_9
Note_On_77_Vel_60
Time_Shift_13
Note_On_70_Vel_46
Time_Shift_101
Note_On_51_Vel_0
Time_Shift_2
Note_On_66_Vel_0
Time_Shift_2
Sustain_Off
Time_Shift_1
Note_On_75_Vel_0
Time_Shift_1
Note_On_77_Vel_0
Time_Shift_21
Note_On_51_Vel_56
Time_Shift_1
Note_On_58_Vel_55
Time_Shift_5
Note_On_66_Vel_54
Time_Shift_1
Note_On_74_Vel_58
Time_Shift_1
Note_On_63_Vel_51
Note_On_39_Vel_47
Time_Shift_33
Note_On_58_Vel_0
Time_Shift_1
Note_On_63_Vel_0
Time_Shift_2
Note_On_51_Vel_0
Time_Shift_6
Note_On_39_Vel_0
Time_Shift_23
Sustain_On
Time_Shift_64
Note_On_75_Vel_72
Time_Shift_131
Sustain_Off
Time_Shift_5
Note_On_66_Vel_0
Time_Shift_2
Note_On_78_Vel_69
Time_Shift_5
Note_On_74_Vel_0
Note_On_75_Vel_0
Time_Shift_4
Note_On_66_Vel_58
Time_Shift_8
Note_On_75_Vel_48
Time_Shift_2
Note_On_44_Vel_48
Time_Shift_4
Note_On_32_Vel_43
Time_Shift_28
Note_On_70_Vel_0
Time_Shift_46
Sustain_On
Time_Shift_57
Note_On_72_Vel_70
Time_Shift_10
Note_On_68_Vel_60
Time_Shift_76
Note_On_32_Vel_0
Time_Shift_1
Note_On_66_Vel_0
Note_On_44_Vel_0
Time_Shift_4
Note_On_68_Vel_0
Time_Shift_2
Note_On_78_Vel_0
Sustain_Off
Time_Shift_19
Note_On_75_Vel_0
Time_Shift_36
Note_On_75_Vel_65
Time_Shift_3
Note_On_72_Vel_0
Time_Shift_3
Note_On_65_Vel_52
Time_Shift_8
Note_On_32_Vel_61
Time_Shift_2
Note_On_44_Vel_51
Time_Shift_56
Sustain_On
Time_Shift_100
Note_On_65_Vel_0
Time_Shift_2
Note_On_74_Vel_62
Time_Shift_5
Note_On_68_Vel_54
Time_Shift_3
Note_On_65_Vel_41
Time_Shift_124
Note_On_75_Vel_0
Note_On_74_Vel_0
Time_Shift_1
Sustain_Off
Note_On_44_Vel_0
Time_Shift_11
Note_On_32_Vel_0
Time_Shift_6
Note_On_73_Vel_63
Time_Shift_1
Note_On_65_Vel_0
Note_On_68_Vel_0
Time_Shift_6
Note_On_65_Vel_52
Time_Shift_5
Note_On_61_Vel_50
Note_On_68_Vel_50
Time_Shift_2
Note_On_53_Vel_49
Time_Shift_1
Note_On_56_Vel_49
Time_Shift_35
Note_On_65_Vel_0
Note_On_56_Vel_0
Time_Shift_36
Note_On_53_Vel_0
Time_Shift_7
Note_On_68_Vel_0
Sustain_On
Time_Shift_47
Note_On_61_Vel_0
Time_Shift_14
Note_On_72_Vel_69
Time_Shift_5
Note_On_68_Vel_57
Time_Shift_138
Note_On_68_Vel_0
Note_On_72_Vel_0
Time_Shift_2
Sustain_Off
Time_Shift_2
Note_On_73_Vel_0
Time_Shift_9
Note_On_75_Vel_70
Time_Shift_2
Note_On_65_Vel_56
Time_Shift_7
Note_On_44_Vel_59
Time_Shift_6
Note_On_56_Vel_52
Time_Shift_45
Sustain_On
Time_Shift_89
Note_On_73_Vel_69
Time_Shift_11
Note_On_68_Vel_58
Time_Shift_156
Note_On_73_Vel_0
Sustain_Off
Time_Shift_1
Note_On_65_Vel_0
Note_On_75_Vel_0
Time_Shift_1
Note_On_68_Vel_0
Time_Shift_3
Note_On_44_Vel_0
Time_Shift_1
Note_On_78_Vel_77
Time_Shift_7
Note_On_56_Vel_0
Time_Shift_3
Note_On_44_Vel_64
Time_Shift_8
Note_On_32_Vel_69
Time_Shift_6
Note_On_72_Vel_59
Time_Shift_37
Sustain_On
Time_Shift_108
Note_On_77_Vel_59
Time_Shift_45
Note_On_72_Vel_0
Note_On_78_Vel_0
Time_Shift_7
Note_On_72_Vel_50
Time_Shift_4
Note_On_78_Vel_62
Time_Shift_66
Note_On_77_Vel_0
Time_Shift_7
Note_On_77_Vel_65
Time_Shift_66
Note_On_62_Vel_67
Time_Shift_2
Note_On_53_Vel_63
Time_Shift_1
Note_On_58_Vel_63
Note_On_70_Vel_69
Time_Shift_3
Note_On_76_Vel_68
Time_Shift_151
Note_On_77_Vel_0
Time_Shift_6
Note_On_77_Vel_77
Time_Shift_108
Note_On_44_Vel_0
Note_On_53_Vel_0
Note_On_58_Vel_0
Note_On_70_Vel_0
Time_Shift_1
Note_On_77_Vel_0
Note_On_62_Vel_0
Time_Shift_2
Note_On_76_Vel_0
Time_Shift_2
Sustain_Off
Time_Shift_4
Note_On_32_Vel_0
Note_On_72_Vel_0
Time_Shift_16
Note_On_78_Vel_0
Time_Shift_7
Note_On_78_Vel_76
Time_Shift_20
Note_On_44_Vel_65
Note_On_75_Vel_53
Time_Shift_2
Note_On_32_Vel_56
Time_Shift_24
Sustain_On
Time_Shift_121
Note_On_74_Vel_70
Time_Shift_6
Note_On_70_Vel_62
Time_Shift_3
Note_On_71_Vel_66
Time_Shift_154
Note_On_75_Vel_0
Time_Shift_10
Note_On_44_Vel_0
Time_Shift_3
Note_On_32_Vel_0
Note_On_71_Vel_0
Time_Shift_1
Note_On_74_Vel_0
Time_Shift_3
Sustain_Off
Time_Shift_3
Note_On_77_Vel_82
Time_Shift_4
Note_On_70_Vel_0
Time_Shift_3
Note_On_75_Vel_69
Note_On_63_Vel_72
Time_Shift_1
Note_On_70_Vel_59
Note_On_30_Vel_75
Time_Shift_1
Note_On_42_Vel_78
Time_Shift_2
Note_On_78_Vel_0
Time_Shift_77
Sustain_On
Time_Shift_154
Note_On_75_Vel_0
Time_Shift_11
Note_On_75_Vel_74
Time_Shift_4
Note_On_70_Vel_0
Time_Shift_11
Note_On_70_Vel_63
Time_Shift_196
Note_On_77_Vel_0
Time_Shift_4
Note_On_90_Vel_85
Time_Shift_4
Note_On_75_Vel_0
Time_Shift_9
Note_On_75_Vel_82
Time_Shift_14
Note_On_63_Vel_0
Note_On_70_Vel_0
Time_Shift_3
Note_On_66_Vel_62
Time_Shift_1
Note_On_58_Vel_64
Note_On_70_Vel_69
Time_Shift_6
Note_On_63_Vel_60
Time_Shift_200
Note_On_89_Vel_82
Time_Shift_17
Note_On_82_Vel_68
Time_Shift_145
Note_On_87_Vel_76
Time_Shift_6
Note_On_78_Vel_73
Time_Shift_3
Note_On_73_Vel_61
Time_Shift_11
Note_On_63_Vel_0
Note_On_70_Vel_0
Time_Shift_4
Note_On_70_Vel_55
Note_On_63_Vel_56
Time_Shift_3
Note_On_66_Vel_0
Time_Shift_7
Note_On_66_Vel_41
Time_Shift_115
Note_On_85_Vel_78
Time_Shift_1
Note_On_78_Vel_0
Time_Shift_8
Note_On_82_Vel_0
Time_Shift_3
Note_On_78_Vel_64
Time_Shift_7
Note_On_82_Vel_73
Time_Shift_140
Note_On_83_Vel_79
Time_Shift_4
Note_On_75_Vel_0
Time_Shift_5
Note_On_44_Vel_73
Note_On_75_Vel_71
Time_Shift_6
Note_On_58_Vel_0
Note_On_78_Vel_0
Note_On_87_Vel_0
Note_On_42_Vel_0
Note_On_63_Vel_0
Note_On_66_Vel_0
Note_On_89_Vel_0
Note_On_30_Vel_0
Note_On_82_Vel_0
Time_Shift_1
Sustain_Off
Note_On_90_Vel_0
Note_On_73_Vel_0
Note_On_85_Vel_0
Time_Shift_18
Note_On_70_Vel_0
Time_Shift_62
Sustain_On
Time_Shift_57
Note_On_84_Vel_72
Time_Shift_155
Note_On_81_Vel_79
Time_Shift_8
Note_On_56_Vel_63
Note_On_72_Vel_63
Time_Shift_1
Note_On_73_Vel_66
Time_Shift_2
Note_On_68_Vel_67
Time_Shift_8
Note_On_63_Vel_50
Time_Shift_123
Note_On_82_Vel_77
Time_Shift_7
Note_On_78_Vel_66
Time_Shift_100
Note_On_83_Vel_0
Time_Shift_38
Note_On_75_Vel_0
Time_Shift_8
Note_On_68_Vel_0
Note_On_72_Vel_0
Time_Shift_2
Note_On_75_Vel_58
Time_Shift_1
Note_On_79_Vel_73
Time_Shift_1
Note_On_72_Vel_66
Note_On_68_Vel_59
Time_Shift_134
Note_On_75_Vel_0
Time_Shift_3
Note_On_80_Vel_76
Time_Shift_1
Note_On_75_Vel_72
Time_Shift_146
Note_On_77_Vel_73
Time_Shift_3
Note_On_68_Vel_0
Time_Shift_6
Note_On_68_Vel_58
Time_Shift_2
Note_On_70_Vel_67
Time_Shift_8
Note_On_75_Vel_0
Time_Shift_4
Note_On_75_Vel_46
Time_Shift_126
Note_On_73_Vel_0
Note_On_78_Vel_0
Time_Shift_5
Note_On_78_Vel_68
Time_Shift_6
Note_On_73_Vel_60
Time_Shift_144
Note_On_76_Vel_70
Time_Shift_10
Note_On_69_Vel_59
Time_Shift_127
Note_On_72_Vel_0
Note_On_77_Vel_0
Time_Shift_5
Note_On_77_Vel_74
Time_Shift_6
Note_On_72_Vel_68
Time_Shift_142
Note_On_69_Vel_0
Time_Shift_1
Note_On_73_Vel_0
Note_On_56_Vel_0
Note_On_82_Vel_0
Note_On_76_Vel_0
Time_Shift_1
Note_On_75_Vel_0
Note_On_81_Vel_0
Note_On_68_Vel_0
Note_On_79_Vel_0
Note_On_78_Vel_0
Note_On_77_Vel_0
Time_Shift_1
Note_On_84_Vel_0
Sustain_Off
Time_Shift_1
Note_On_44_Vel_0
Time_Shift_3
Note_On_74_Vel_66
Time_Shift_1
Note_On_63_Vel_0
Note_On_70_Vel_0
Time_Shift_9
Note_On_70_Vel_54
Time_Shift_2
Note_On_63_Vel_61
Time_Shift_1
Note_On_58_Vel_53
Note_On_54_Vel_46
Time_Shift_4
Note_On_72_Vel_0
Note_On_80_Vel_0
Time_Shift_61
Sustain_On
Time_Shift_5
Note_On_63_Vel_0
Time_Shift_18
Note_On_70_Vel_0
Time_Shift_51
Note_On_75_Vel_71
Time_Shift_6
Note_On_70_Vel_62
Time_Shift_145
Note_On_76_Vel_70
Time_Shift_19
Note_On_69_Vel_58
Time_Shift_7
Sustain_Off
Time_Shift_1
Note_On_74_Vel_0
Time_Shift_2
Note_On_60_Vel_59
Time_Shift_2
Note_On_54_Vel_0
Note_On_58_Vel_0
Time_Shift_1
Note_On_70_Vel_0
Time_Shift_1
Note_On_53_Vel_53
Note_On_75_Vel_0
Time_Shift_49
Sustain_On
Time_Shift_60
Note_On_77_Vel_73
Time_Shift_5
Note_On_72_Vel_69
Time_Shift_140
Note_On_74_Vel_66
Time_Shift_1
Note_On_70_Vel_60
Time_Shift_1
Note_On_58_Vel_58
Time_Shift_1
Note_On_63_Vel_65
Time_Shift_17
Note_On_54_Vel_44
Time_Shift_6
Note_On_54_Vel_0
Time_Shift_9
Note_On_53_Vel_0
Time_Shift_1
Note_On_60_Vel_0
Time_Shift_1
Note_On_72_Vel_0
Note_On_77_Vel_0
Note_On_76_Vel_0
Time_Shift_3
Sustain_Off
Time_Shift_24
Note_On_69_Vel_0
Time_Shift_25
Note_On_63_Vel_0
Time_Shift_37
Sustain_On
Time_Shift_23
Note_On_70_Vel_0
Time_Shift_7
Note_On_75_Vel_71
Time_Shift_2
Note_On_70_Vel_66
Time_Shift_145
Note_On_76_Vel_69
Time_Shift_8
Note_On_69_Vel_62
Time_Shift_5
Note_On_60_Vel_50
Time_Shift_4
Note_On_58_Vel_0
Time_Shift_1
Note_On_74_Vel_0
Note_On_70_Vel_0
Time_Shift_1
Note_On_53_Vel_48
Time_Shift_1
Sustain_Off
Note_On_75_Vel_0
Time_Shift_44
Note_On_69_Vel_0
Time_Shift_28
Sustain_On
Time_Shift_56
Note_On_77_Vel_75
Time_Shift_16
Note_On_72_Vel_67
Time_Shift_151
Note_On_74_Vel_62
Time_Shift_5
Note_On_70_Vel_51
Time_Shift_4
Note_On_63_Vel_56
Time_Shift_1
Note_On_58_Vel_49
Time_Shift_15
Note_On_53_Vel_0
Note_On_72_Vel_0
Note_On_76_Vel_0
Time_Shift_1
Note_On_77_Vel_0
Note_On_60_Vel_0
Time_Shift_1
Sustain_Off
Time_Shift_64
Sustain_On
Time_Shift_76
Note_On_75_Vel_75
Time_Shift_24
Note_On_70_Vel_0
Time_Shift_12
Note_On_70_Vel_57
Time_Shift_145
Note_On_77_Vel_68
Time_Shift_12
Note_On_70_Vel_0
Time_Shift_3
Note_On_66_Vel_47
Time_Shift_5
Note_On_75_Vel_0
Time_Shift_3
Note_On_70_Vel_47
Time_Shift_2
Note_On_75_Vel_49
Time_Shift_17
Note_On_63_Vel_0
Note_On_74_Vel_0
Time_Shift_1
Sustain_Off
Time_Shift_2
Note_On_58_Vel_0
Time_Shift_52
Note_On_75_Vel_0
Time_Shift_15
Sustain_On
Time_Shift_94
Note_On_75_Vel_62
Time_Shift_14
Note_On_70_Vel_0
Time_Shift_8
Note_On_70_Vel_51
Time_Shift_181
Note_On_73_Vel_55
Time_Shift_14
Note_On_63_Vel_39
Time_Shift_47
Note_On_77_Vel_0
Note_On_75_Vel_0
Time_Shift_1
Note_On_70_Vel_0
Note_On_66_Vel_0
Time_Shift_4
Sustain_Off
Time_Shift_98
Sustain_On
Time_Shift_65
Note_On_70_Vel_50
Time_Shift_22
Note_On_66_Vel_32
Time_Shift_238
Note_On_72_Vel_55
Time_Shift_14
Note_On_60_Vel_32
Time_Shift_16
Sustain_Off
Time_Shift_4
Note_On_63_Vel_0
Time_Shift_3
Note_On_73_Vel_0
Time_Shift_2
Note_On_66_Vel_0
Time_Shift_1
Note_On_44_Vel_25
Time_Shift_1
Note_On_56_Vel_24
Time_Shift_6
Note_On_70_Vel_0
Time_Shift_58
Sustain_On
Time_Shift_206
Note_On_70_Vel_51
Time_Shift_4
Note_On_66_Vel_36
Time_Shift_143
Note_On_72_Vel_0
Time_Shift_7
Note_On_72_Vel_52
Time_Shift_1
Note_On_60_Vel_0
Time_Shift_11
Note_On_60_Vel_44
Time_Shift_27
Note_On_70_Vel_0
Time_Shift_5
Note_On_70_Vel_46
Time_Shift_157
Note_On_66_Vel_0
Time_Shift_4
Note_On_68_Vel_54
Time_Shift_6
Note_On_66_Vel_38
Time_Shift_143
Note_On_72_Vel_0
Time_Shift_6
Sustain_Off
Time_Shift_3
Note_On_72_Vel_52
Time_Shift_7
Note_On_56_Vel_0
Time_Shift_3
Note_On_66_Vel_0
Time_Shift_1
Note_On_70_Vel_0
Time_Shift_3
Note_On_60_Vel_0
Time_Shift_2
Note_On_56_Vel_43
Time_Shift_9
Note_On_60_Vel_35
Time_Shift_12
Sustain_On
Time_Shift_138
Note_On_44_Vel_0
Time_Shift_11
Note_On_44_Vel_32
Note_On_70_Vel_57
Time_Shift_120
Note_On_72_Vel_0
Time_Shift_7
Note_On_60_Vel_0
Time_Shift_1
Note_On_72_Vel_64
Time_Shift_3
Sustain_Off
Time_Shift_4
Note_On_68_Vel_0
Time_Shift_16
Note_On_56_Vel_0
Time_Shift_5
Note_On_56_Vel_45
Time_Shift_4
Note_On_61_Vel_41
Time_Shift_6
Note_On_70_Vel_0
Time_Shift_9
Note_On_70_Vel_58
Time_Shift_14
Sustain_On
Time_Shift_140
Note_On_68_Vel_58
Time_Shift_4
Note_On_65_Vel_37
Time_Shift_14
Note_On_53_Vel_32
Time_Shift_11
Note_On_53_Vel_0
Time_Shift_108
Note_On_72_Vel_0
Time_Shift_5
Note_On_72_Vel_64
Time_Shift_18
Note_On_61_Vel_0
Time_Shift_10
Note_On_61_Vel_38
Time_Shift_136
Note_On_70_Vel_0
Time_Shift_4
Note_On_70_Vel_66
Time_Shift_126
Note_On_72_Vel_0
Time_Shift_5
Note_On_72_Vel_68
Time_Shift_11
Note_On_61_Vel_0
Time_Shift_3
Note_On_60_Vel_47
Time_Shift_3
Note_On_61_Vel_48
Time_Shift_1
Note_On_60_Vel_0
Time_Shift_8
Note_On_56_Vel_0
Note_On_70_Vel_0
Time_Shift_2
Sustain_Off
Time_Shift_4
Note_On_56_Vel_41
Time_Shift_2
Note_On_70_Vel_60
Time_Shift_12
Note_On_65_Vel_0
Time_Shift_49
Sustain_On
Time_Shift_108
Note_On_68_Vel_0
Time_Shift_4
Note_On_68_Vel_63
Time_Shift_22
Note_On_66_Vel_48
Time_Shift_3
Note_On_54_Vel_38
Time_Shift_9
Note_On_54_Vel_0
Time_Shift_121
Note_On_67_Vel_63
Time_Shift_9
Note_On_56_Vel_0
Time_Shift_2
Sustain_Off
Time_Shift_2
Note_On_60_Vel_54
Time_Shift_2
Note_On_72_Vel_0
Time_Shift_1
Note_On_56_Vel_42
Time_Shift_1
Note_On_66_Vel_0
Time_Shift_2
Note_On_70_Vel_0
Time_Shift_2
Note_On_68_Vel_0
Note_On_44_Vel_0
Time_Shift_19
Note_On_61_Vel_0
Time_Shift_62
Sustain_On
Time_Shift_103
Note_On_68_Vel_60
Time_Shift_17
Note_On_66_Vel_49
Time_Shift_169
Sustain_Off
Time_Shift_9
Note_On_66_Vel_0
Note_On_67_Vel_0
Time_Shift_1
Note_On_60_Vel_0
Note_On_68_Vel_0
Time_Shift_1
Note_On_70_Vel_65
Time_Shift_7
Note_On_60_Vel_45
Time_Shift_3
Note_On_68_Vel_53
Time_Shift_97
Sustain_On
Time_Shift_100
Note_On_68_Vel_0
Time_Shift_7
Note_On_68_Vel_65
Time_Shift_25
Note_On_66_Vel_47
Time_Shift_195
Note_On_73_Vel_62
Time_Shift_11
Note_On_56_Vel_0
Time_Shift_1
Sustain_Off
Time_Shift_4
Note_On_56_Vel_39
Time_Shift_1
Note_On_70_Vel_0
Time_Shift_1
Note_On_60_Vel_0
Note_On_68_Vel_0
Time_Shift_1
Note_On_63_Vel_21
Time_Shift_4
Note_On_68_Vel_38
Time_Shift_3
Note_On_63_Vel_0
Time_Shift_107
Sustain_On
Time_Shift_192
Note_On_68_Vel_0
Time_Shift_11
Note_On_68_Vel_48
Time_Shift_116
Note_On_75_Vel_63
Time_Shift_172
Note_On_56_Vel_0
Time_Shift_1
Note_On_73_Vel_0
Note_On_68_Vel_0
Time_Shift_1
Note_On_66_Vel_0
Time_Shift_3
Sustain_Off
Time_Shift_15
Note_On_77_Vel_63
Time_Shift_12
Note_On_75_Vel_0
Time_Shift_5
Note_On_75_Vel_50
Note_On_63_Vel_43
Time_Shift_1
Note_On_59_Vel_35
Time_Shift_86
Sustain_On
Time_Shift_215
Note_On_68_Vel_44
Time_Shift_169
Note_On_63_Vel_0
Time_Shift_8
Note_On_63_Vel_37
Time_Shift_15
Note_On_59_Vel_0
Time_Shift_4
Note_On_59_Vel_17
Time_Shift_150
Note_On_68_Vel_0
Time_Shift_10
Note_On_68_Vel_45
Time_Shift_133
Note_On_59_Vel_0
Note_On_75_Vel_0
Note_On_68_Vel_0
Note_On_77_Vel_0
Time_Shift_6
Sustain_Off
Time_Shift_19
Note_On_63_Vel_0
Time_Shift_11
Note_On_63_Vel_43
Time_Shift_13
Note_On_47_Vel_29
Time_Shift_7
Sustain_On
Time_Shift_159
Note_On_68_Vel_45
Time_Shift_142
Sustain_Off
Time_Shift_2
Note_On_63_Vel_0
Time_Shift_4
Note_On_68_Vel_0
Time_Shift_4
Note_On_47_Vel_0
Time_Shift_23
Note_On_62_Vel_44
Time_Shift_31
Note_On_46_Vel_37
Time_Shift_3
Note_On_58_Vel_30
Time_Shift_47
Sustain_On
Time_Shift_119
Note_On_68_Vel_55
Time_Shift_150
Note_On_74_Vel_60
Time_Shift_18
Note_On_62_Vel_0
Time_Shift_1
Note_On_68_Vel_0
Time_Shift_1
Sustain_Off
Note_On_67_Vel_47
Time_Shift_3
Note_On_46_Vel_0
Time_Shift_3
Note_On_58_Vel_0
Note_On_61_Vel_42
Time_Shift_32
Note_On_67_Vel_0
Time_Shift_6
Note_On_51_Vel_29
Time_Shift_59
Sustain_On
Time_Shift_101
Note_On_75_Vel_74
Time_Shift_25
Note_On_70_Vel_58
Time_Shift_121
Note_On_44_Vel_48
Time_Shift_28
Note_On_80_Vel_74
Time_Shift_1
Note_On_75_Vel_0
Time_Shift_5
Note_On_75_Vel_60
Time_Shift_13
Note_On_60_Vel_50
Time_Shift_3
Note_On_51_Vel_0
Time_Shift_1
Note_On_70_Vel_0
Time_Shift_5
Note_On_66_Vel_42
Time_Shift_1
Sustain_Off
Time_Shift_3
Note_On_61_Vel_0
Time_Shift_7
Note_On_74_Vel_0
Time_Shift_11
Note_On_44_Vel_0
Time_Shift_9
Note_On_66_Vel_0
Time_Shift_50
Sustain_On
Time_Shift_21
Note_On_60_Vel_0
Time_Shift_40
Note_On_75_Vel_0
Time_Shift_6
Note_On_75_Vel_76
Time_Shift_14
Note_On_68_Vel_56
Time_Shift_138
Note_On_77_Vel_76
Time_Shift_7
Sustain_Off
Time_Shift_4
Note_On_68_Vel_0
Time_Shift_4
Note_On_61_Vel_49
Time_Shift_2
Note_On_49_Vel_46
Time_Shift_1
Note_On_68_Vel_55
Time_Shift_2
Note_On_56_Vel_50
Time_Shift_3
Note_On_75_Vel_0
Time_Shift_1
Note_On_65_Vel_46
Time_Shift_25
Note_On_80_Vel_0
Time_Shift_5
Note_On_68_Vel_0
Time_Shift_4
Note_On_61_Vel_0
Time_Shift_5
Note_On_56_Vel_0
Time_Shift_8
Note_On_49_Vel_0
Time_Shift_32
Sustain_On
Time_Shift_46
Note_On_65_Vel_0
Time_Shift_26
Note_On_75_Vel_56
Note_On_73_Vel_73
Time_Shift_5
Note_On_75_Vel_0
Time_Shift_10
Note_On_68_Vel_56
Time_Shift_145
Note_On_72_Vel_73
Time_Shift_13
Note_On_58_Vel_50
Time_Shift_5
Note_On_42_Vel_50
Time_Shift_2
Note_On_61_Vel_55
Time_Shift_2
Note_On_68_Vel_0
Time_Shift_3
Sustain_Off
Time_Shift_1
Note_On_68_Vel_46
Time_Shift_1
Note_On_77_Vel_0
Note_On_73_Vel_0
Time_Shift_41
Note_On_58_Vel_0
Time_Shift_23
Note_On_68_Vel_0
Time_Shift_30
Sustain_On
Time_Shift_58
Note_On_70_Vel_71
Time_Shift_7
Note_On_66_Vel_56
Time_Shift_20
Note_On_61_Vel_0
Time_Shift_11
Note_On_61_Vel_22
Time_Shift_112
Note_On_72_Vel_0
Time_Shift_10
Note_On_72_Vel_65
Time_Shift_5
Note_On_66_Vel_0
Time_Shift_3
Sustain_Off
Time_Shift_6
Note_On_66_Vel_44
Time_Shift_7
Note_On_61_Vel_0
Time_Shift_2
Note_On_51_Vel_39
Time_Shift_2
Note_On_61_Vel_47
Note_On_39_Vel_42
Time_Shift_3
Note_On_42_Vel_0
Time_Shift_43
Note_On_70_Vel_0
Time_Shift_3
Note_On_66_Vel_0
Time_Shift_16
Note_On_51_Vel_0
Time_Shift_15
Sustain_On
Time_Shift_51
Note_On_75_Vel_66
Time_Shift_37
Note_On_66_Vel_47
Time_Shift_5
Note_On_73_Vel_66
Time_Shift_7
Note_On_39_Vel_0
Time_Shift_130
Note_On_72_Vel_0
Time_Shift_12
Note_On_66_Vel_0
Sustain_Off
Note_On_73_Vel_0
Time_Shift_1
Note_On_75_Vel_0
Time_Shift_6
Note_On_68_Vel_64
Time_Shift_4
Note_On_61_Vel_0
Time_Shift_6
Note_On_61_Vel_43
Time_Shift_15
Note_On_56_Vel_36
Time_Shift_5
Note_On_51_Vel_27
Time_Shift_3
Note_On_44_Vel_33
Time_Shift_79
Sustain_On
Time_Shift_95
Note_On_66_Vel_50
Time_Shift_174
Note_On_56_Vel_0
Time_Shift_2
Note_On_66_Vel_0
Time_Shift_1
Sustain_Off
Note_On_61_Vel_0
Time_Shift_1
Note_On_68_Vel_0
Time_Shift_1
Note_On_67_Vel_56
Time_Shift_6
Note_On_56_Vel_36
Time_Shift_4
Note_On_60_Vel_49
Time_Shift_115
Sustain_On
Time_Shift_77
Note_On_51_Vel_0
Time_Shift_6
Note_On_51_Vel_34
Time_Shift_4
Note_On_68_Vel_58
Time_Shift_2
Note_On_66_Vel_51
Time_Shift_159
Note_On_60_Vel_0
Time_Shift_1
Note_On_51_Vel_0
Note_On_66_Vel_0
Time_Shift_1
Note_On_67_Vel_0
Sustain_Off
Time_Shift_2
Note_On_56_Vel_0
Time_Shift_48
Note_On_68_Vel_0
Time_Shift_3
Note_On_70_Vel_55
Time_Shift_8
Note_On_68_Vel_44
Time_Shift_6
Note_On_60_Vel_43
Time_Shift_8
Note_On_56_Vel_34
Time_Shift_25
Note_On_68_Vel_0
Time_Shift_103
Sustain_On
Time_Shift_178
Note_On_66_Vel_40
Time_Shift_144
Note_On_68_Vel_57
Time_Shift_155
Note_On_68_Vel_0
Time_Shift_8
Note_On_61_Vel_39
Time_Shift_1
Note_On_68_Vel_49
Time_Shift_6
Note_On_56_Vel_0
Note_On_66_Vel_0
Time_Shift_1
Sustain_Off
Time_Shift_2
Note_On_60_Vel_0
Time_Shift_1
Note_On_70_Vel_0
Time_Shift_7
Note_On_56_Vel_31
Time_Shift_4
Note_On_44_Vel_0
Time_Shift_4
Note_On_49_Vel_25
Time_Shift_127
Sustain_On
Time_Shift_79
Note_On_65_Vel_39
Time_Shift_189
Note_On_60_Vel_35
Time_Shift_177
Note_On_65_Vel_0
Note_On_68_Vel_0
Time_Shift_9
Note_On_65_Vel_35
Time_Shift_1
Note_On_68_Vel_28
Time_Shift_164
Sustain_Off
Time_Shift_8
Note_On_61_Vel_0
Time_Shift_1
Note_On_60_Vel_0
Time_Shift_2
Note_On_56_Vel_0
Time_Shift_3
Note_On_65_Vel_0
Time_Shift_3
Note_On_58_Vel_45
Time_Shift_101
Sustain_On
Time_Shift_120
Note_On_65_Vel_37
Time_Shift_108
Sustain_Off
Time_Shift_5
Note_On_58_Vel_0
Time_Shift_4
Note_On_65_Vel_0
Time_Shift_86
Note_On_49_Vel_0
Time_Shift_1
Note_On_60_Vel_45
Time_Shift_10
Note_On_32_Vel_25
Time_Shift_4
Note_On_32_Vel_0
Sustain_On
Time_Shift_247
Note_On_66_Vel_39
Time_Shift_7
Note_On_68_Vel_0
Time_Shift_207
Note_On_72_Vel_52
Time_Shift_8
Note_On_60_Vel_0
Time_Shift_5
Note_On_60_Vel_41
Time_Shift_243
Note_On_70_Vel_54
Time_Shift_28
Note_On_66_Vel_0
Time_Shift_4
Note_On_66_Vel_35
Time_Shift_104
Note_On_72_Vel_0
Time_Shift_7
Sustain_Off
Time_Shift_1
Note_On_72_Vel_51
Time_Shift_8
Note_On_66_Vel_0
Time_Shift_22
Note_On_70_Vel_0
Time_Shift_8
Note_On_60_Vel_0
Time_Shift_1
Note_On_70_Vel_52
Time_Shift_2
Note_On_68_Vel_45
Time_Shift_1
Note_On_60_Vel_38
Time_Shift_3
Note_On_68_Vel_0
Time_Shift_14
Note_On_56_Vel_30
Time_Shift_48
Sustain_On
Time_Shift_108
Note_On_68_Vel_58
Time_Shift_138
Note_On_72_Vel_0
Time_Shift_3
Note_On_72_Vel_61
Time_Shift_16
Sustain_Off
Time_Shift_5
Note_On_70_Vel_0
Time_Shift_1
Note_On_68_Vel_0
Time_Shift_5
Note_On_56_Vel_0
Time_Shift_5
Note_On_61_Vel_32
Note_On_56_Vel_35
Time_Shift_18
Note_On_60_Vel_0
Time_Shift_62
Sustain_On
Time_Shift_80
Note_On_70_Vel_56
Time_Shift_6
Note_On_65_Vel_41
Time_Shift_113
Note_On_72_Vel_0
Time_Shift_11
Note_On_72_Vel_57
Time_Shift_34
Sustain_Off
Time_Shift_1
Note_On_70_Vel_0
Time_Shift_8
Note_On_65_Vel_0
Time_Shift_3
Note_On_70_Vel_52
Time_Shift_1
Note_On_65_Vel_27
Time_Shift_50
Sustain_On
Time_Shift_84
Note_On_65_Vel_0
Time_Shift_9
Note_On_68_Vel_54
Time_Shift_3
Note_On_65_Vel_36
Time_Shift_134
Note_On_72_Vel_0
Time_Shift_8
Note_On_68_Vel_0
Time_Shift_4
Note_On_72_Vel_61
Time_Shift_7
Sustain_Off
Note_On_68_Vel_47
Time_Shift_12
Note_On_61_Vel_0
Time_Shift_6
Note_On_61_Vel_38
Time_Shift_2
Note_On_56_Vel_0
Note_On_44_Vel_37
Time_Shift_4
Note_On_56_Vel_33
Time_Shift_4
Note_On_70_Vel_0
Time_Shift_30
Note_On_65_Vel_0
Time_Shift_62
Sustain_On
Time_Shift_63
Note_On_65_Vel_51
Time_Shift_1
Note_On_70_Vel_60
Time_Shift_12
Note_On_61_Vel_0
Time_Shift_162
Note_On_44_Vel_0
Note_On_70_Vel_0
Time_Shift_4
Note_On_44_Vel_40
Time_Shift_1
Note_On_70_Vel_56
Time_Shift_8
Note_On_60_Vel_48
Time_Shift_12
Note_On_72_Vel_0
Time_Shift_2
Note_On_65_Vel_0
Time_Shift_3
Note_On_68_Vel_0
Time_Shift_3
Sustain_Off
Time_Shift_97
Sustain_On
Time_Shift_81
Note_On_68_Vel_63
Time_Shift_31
Note_On_66_Vel_41
Time_Shift_88
Note_On_70_Vel_0
Time_Shift_8
Note_On_70_Vel_39
Time_Shift_2
Sustain_Off
Time_Shift_2
Note_On_60_Vel_0
Time_Shift_26
Note_On_56_Vel_0
Sustain_On
Time_Shift_28
Note_On_67_Vel_63
Time_Shift_30
Note_On_60_Vel_50
Time_Shift_157
Note_On_68_Vel_0
Time_Shift_7
Note_On_68_Vel_68
Time_Shift_1
Note_On_66_Vel_0
Time_Shift_11
Note_On_66_Vel_53
Time_Shift_166
Note_On_70_Vel_0
Sustain_Off
Time_Shift_3
Note_On_60_Vel_0
Time_Shift_1
Note_On_67_Vel_0
Time_Shift_19
Note_On_44_Vel_0
Note_On_68_Vel_0
Time_Shift_2
Note_On_73_Vel_64
Time_Shift_5
Note_On_66_Vel_0
Time_Shift_4
Note_On_68_Vel_52
Time_Shift_1
Note_On_56_Vel_41
Time_Shift_7
Note_On_66_Vel_44
Note_On_63_Vel_21
Time_Shift_11
Note_On_63_Vel_0
Time_Shift_70
Sustain_On
Time_Shift_115
Note_On_68_Vel_0
Time_Shift_80
Note_On_68_Vel_46
Time_Shift_163
Note_On_75_Vel_59
Time_Shift_156
Sustain_Off
Time_Shift_1
Note_On_66_Vel_0
Note_On_56_Vel_0
Time_Shift_1
Note_On_68_Vel_0
Note_On_73_Vel_0
Time_Shift_2
Note_On_75_Vel_0
Time_Shift_53
Note_On_77_Vel_58
Time_Shift_2
Note_On_68_Vel_31
Time_Shift_2
Note_On_59_Vel_33
Time_Shift_5
Note_On_63_Vel_31
Time_Shift_95
Sustain_On
Time_Shift_93
Note_On_68_Vel_0
Time_Shift_113
Note_On_68_Vel_48
Time_Shift_201
Note_On_63_Vel_0
Time_Shift_8
Note_On_63_Vel_40
Time_Shift_169
Note_On_68_Vel_0
Time_Shift_9
Note_On_68_Vel_48
Time_Shift_175
Note_On_63_Vel_0
Time_Shift_7
Note_On_63_Vel_38
Note_On_47_Vel_26
Time_Shift_185
Note_On_68_Vel_0
Time_Shift_6
Note_On_68_Vel_43
Time_Shift_175
Sustain_Off
Note_On_59_Vel_0
Time_Shift_1
Note_On_63_Vel_0
Note_On_68_Vel_0
Note_On_77_Vel_0
Note_On_47_Vel_0
Time_Shift_21
Note_On_62_Vel_39
Time_Shift_18
Note_On_46_Vel_36
Time_Shift_56
Sustain_On
Time_Shift_165
Note_On_68_Vel_49
Time_Shift_184
Note_On_62_Vel_0
Time_Shift_1
Note_On_46_Vel_0
Time_Shift_1
Sustain_Off
Time_Shift_2
Note_On_68_Vel_0
Time_Shift_1
Note_On_74_Vel_54
Time_Shift_11
Note_On_67_Vel_44
Time_Shift_6
Note_On_61_Vel_34
Time_Shift_5
Note_On_51_Vel_27
Time_Shift_28
Note_On_67_Vel_0
Time_Shift_41
Sustain_On
Time_Shift_118
Note_On_75_Vel_65
Time_Shift_25
Note_On_70_Vel_45
Time_Shift_3
Note_On_61_Vel_0
Time_Shift_4
Note_On_61_Vel_22
Time_Shift_138
Note_On_61_Vel_0
Note_On_51_Vel_0
Time_Shift_1
Note_On_44_Vel_51
Note_On_70_Vel_0
Sustain_Off
Time_Shift_6
Note_On_80_Vel_67
Time_Shift_3
Note_On_56_Vel_49
Time_Shift_2
Note_On_74_Vel_0
Time_Shift_15
Note_On_60_Vel_46
Time_Shift_11
Note_On_66_Vel_39
Time_Shift_3
Note_On_68_Vel_33
Time_Shift_5
Note_On_63_Vel_28
Time_Shift_34
Note_On_60_Vel_0
Time_Shift_9
Note_On_44_Vel_0
Time_Shift_23
Note_On_66_Vel_0
Time_Shift_15
Sustain_On
Time_Shift_61
Note_On_75_Vel_0
Time_Shift_4
Note_On_75_Vel_68
Time_Shift_12
Note_On_68_Vel_0
Time_Shift_4
Note_On_68_Vel_47
Time_Shift_134
Note_On_63_Vel_0
Time_Shift_3
Sustain_Off
Time_Shift_5
Note_On_56_Vel_0
Note_On_68_Vel_0
Note_On_80_Vel_0
Time_Shift_3
Note_On_77_Vel_71
Note_On_75_Vel_0
Time_Shift_6
Note_On_68_Vel_48
Time_Shift_10
Note_On_61_Vel_43
Time_Shift_3
Note_On_49_Vel_41
Time_Shift_1
Note_On_65_Vel_46
Time_Shift_46
Note_On_49_Vel_0
Time_Shift_23
Note_On_61_Vel_0
Time_Shift_8
Sustain_On
Time_Shift_15
Note_On_68_Vel_0
Time_Shift_67
Note_On_68_Vel_57
Note_On_73_Vel_59
Time_Shift_139
Note_On_44_Vel_45
Time_Shift_21
Note_On_80_Vel_66
Time_Shift_7
Sustain_Off
Time_Shift_10
Note_On_66_Vel_40
Note_On_75_Vel_39
Time_Shift_1
Note_On_60_Vel_44
Time_Shift_1
Note_On_68_Vel_0
Time_Shift_1
Note_On_65_Vel_0
Time_Shift_7
Note_On_73_Vel_0
Time_Shift_1
Note_On_68_Vel_38
Time_Shift_11
Note_On_77_Vel_0
Time_Shift_12
Note_On_66_Vel_0
Time_Shift_44
Note_On_68_Vel_0
Time_Shift_8
Note_On_60_Vel_0
Time_Shift_4
Note_On_44_Vel_0
Time_Shift_19
Sustain_On
Time_Shift_39
Note_On_80_Vel_0
Time_Shift_15
Note_On_75_Vel_0
Time_Shift_11
Note_On_75_Vel_66
Time_Shift_18
Note_On_68_Vel_48
Time_Shift_151
Note_On_77_Vel_68
Time_Shift_4
Note_On_68_Vel_0
Time_Shift_5
Note_On_68_Vel_48
Time_Shift_4
Note_On_56_Vel_42
Time_Shift_2
Note_On_65_Vel_44
Time_Shift_1
Note_On_49_Vel_44
Time_Shift_2
Sustain_Off
Time_Shift_8
Note_On_75_Vel_0
Time_Shift_35
Note_On_56_Vel_0
Time_Shift_8
Note_On_49_Vel_0
Time_Shift_4
Note_On_68_Vel_0
Time_Shift_11
Note_On_65_Vel_0
Time_Shift_20
Sustain_On
Time_Shift_87
Note_On_68_Vel_57
Note_On_73_Vel_61
Time_Shift_132
Note_On_44_Vel_44
Time_Shift_57
Sustain_Off
Time_Shift_1
Note_On_77_Vel_0
Time_Shift_2
Note_On_73_Vel_0
Time_Shift_1
Note_On_80_Vel_66
Time_Shift_12
Note_On_68_Vel_0
Time_Shift_4
Note_On_68_Vel_39
Time_Shift_7
Note_On_60_Vel_51
Time_Shift_1
Note_On_66_Vel_32
Time_Shift_2
Note_On_75_Vel_29
Time_Shift_55
Note_On_66_Vel_0
Time_Shift_8
Sustain_On
Time_Shift_107
Note_On_75_Vel_0
Time_Shift_10
Note_On_75_Vel_71
Time_Shift_13
Note_On_68_Vel_0
Time_Shift_5
Note_On_68_Vel_50
Time_Shift_80
Note_On_44_Vel_0
Time_Shift_5
Note_On_44_Vel_43
Time_Shift_30
Note_On_60_Vel_0
Time_Shift_1
Note_On_68_Vel_0
Time_Shift_3
Note_On_80_Vel_0
Time_Shift_2
Sustain_Off
Note_On_75_Vel_0
Time_Shift_5
Note_On_44_Vel_0
Time_Shift_12
Note_On_46_Vel_49
Time_Shift_2
Note_On_81_Vel_73
Time_Shift_11
Note_On_67_Vel_51
Time_Shift_8
Note_On_61_Vel_54
Time_Shift_21
Note_On_67_Vel_0
Time_Shift_30
Sustain_On
Time_Shift_97
Note_On_76_Vel_70
Time_Shift_16
Note_On_69_Vel_54
Time_Shift_58
Note_On_56_Vel_39
Time_Shift_2
Note_On_44_Vel_45
Time_Shift_4
Note_On_56_Vel_0
Time_Shift_55
Sustain_Off
Time_Shift_2
Note_On_69_Vel_0
Time_Shift_1
Note_On_82_Vel_78
Note_On_61_Vel_0
Time_Shift_1
Note_On_76_Vel_0
Time_Shift_1
Note_On_46_Vel_0
Note_On_44_Vel_0
Time_Shift_3
Note_On_81_Vel_0
Time_Shift_23
Note_On_68_Vel_58
Time_Shift_2
Note_On_62_Vel_64
Time_Shift_35
Sustain_On
Time_Shift_103
Note_On_77_Vel_71
Time_Shift_13
Note_On_70_Vel_61
Time_Shift_50
Note_On_56_Vel_48
Time_Shift_4
Note_On_44_Vel_57
Time_Shift_57
Note_On_62_Vel_0
Time_Shift_1
Note_On_70_Vel_0
Time_Shift_1
Note_On_77_Vel_0
Note_On_68_Vel_0
Time_Shift_1
Note_On_82_Vel_0
Time_Shift_1
Note_On_44_Vel_0
Time_Shift_3
Sustain_Off
Time_Shift_19
Note_On_56_Vel_0
Time_Shift_4
Note_On_83_Vel_82
Time_Shift_17
Note_On_69_Vel_56
Time_Shift_5
Note_On_71_Vel_66
Time_Shift_1
Note_On_75_Vel_59
Note_On_63_Vel_67
Time_Shift_27
Sustain_On
Time_Shift_23
Note_On_69_Vel_0
Time_Shift_85
Note_On_71_Vel_0
Time_Shift_3
Note_On_78_Vel_74
Time_Shift_1
Note_On_71_Vel_66
Time_Shift_39
Note_On_44_Vel_49
Note_On_56_Vel_46
Time_Shift_66
Note_On_83_Vel_0
Time_Shift_1
Note_On_56_Vel_0
Note_On_63_Vel_0
Note_On_71_Vel_0
Time_Shift_1
Note_On_44_Vel_0
Sustain_Off
Time_Shift_41
Note_On_84_Vel_73
Time_Shift_5
Note_On_70_Vel_73
Note_On_64_Vel_62
Time_Shift_19
Sustain_On
Time_Shift_136
Note_On_79_Vel_64
Note_On_72_Vel_67
Time_Shift_51
Note_On_44_Vel_59
Time_Shift_2
Note_On_56_Vel_51
Time_Shift_11
Note_On_78_Vel_0
Time_Shift_4
Note_On_64_Vel_0
Time_Shift_1
Note_On_84_Vel_0
Note_On_72_Vel_0
Time_Shift_1
Note_On_70_Vel_0
Note_On_79_Vel_0
Time_Shift_3
Sustain_Off
Note_On_75_Vel_0
Time_Shift_18
Note_On_56_Vel_0
Time_Shift_11
Note_On_44_Vel_0
Time_Shift_23
Sustain_On
Time_Shift_13
Note_On_85_Vel_82
Time_Shift_12
Note_On_71_Vel_76
Time_Shift_14
Note_On_65_Vel_62
Time_Shift_134
Note_On_80_Vel_76
Time_Shift_1
Note_On_73_Vel_72
Time_Shift_40
Note_On_44_Vel_69
Note_On_56_Vel_63
Time_Shift_71
Sustain_Off
Time_Shift_1
Note_On_85_Vel_0
Time_Shift_1
Note_On_71_Vel_0
Note_On_65_Vel_0
Note_On_73_Vel_0
Time_Shift_1
Note_On_80_Vel_0
Note_On_44_Vel_0
Time_Shift_1
Note_On_56_Vel_0
Time_Shift_61
Note_On_86_Vel_79
Time_Shift_6
Note_On_84_Vel_82
Time_Shift_1
Note_On_72_Vel_85
Time_Shift_7
Note_On_66_Vel_69
Time_Shift_13
Sustain_On
Time_Shift_150
Note_On_80_Vel_75
Time_Shift_42
Note_On_72_Vel_0
Time_Shift_6
Note_On_72_Vel_50
Time_Shift_82
Note_On_87_Vel_83
Time_Shift_6
Note_On_78_Vel_72
Time_Shift_136
Note_On_86_Vel_0
Time_Shift_4
Note_On_86_Vel_73
Time_Shift_4
Note_On_80_Vel_0
Note_On_84_Vel_0
Time_Shift_7
Note_On_80_Vel_74
Time_Shift_2
Note_On_84_Vel_60
Time_Shift_137
Note_On_78_Vel_0
Time_Shift_2
Note_On_89_Vel_77
Time_Shift_5
Note_On_90_Vel_69
Time_Shift_3
Note_On_78_Vel_68
Time_Shift_1
Note_On_44_Vel_66
Time_Shift_127
Note_On_80_Vel_0
Note_On_87_Vel_0
Time_Shift_5
Note_On_87_Vel_74
Time_Shift_6
Note_On_80_Vel_71
Time_Shift_143
Note_On_78_Vel_0
Time_Shift_3
Note_On_92_Vel_80
Time_Shift_4
Note_On_90_Vel_0
Time_Shift_1
Note_On_78_Vel_75
Time_Shift_3
Note_On_90_Vel_68
Time_Shift_5
Note_On_68_Vel_62
Time_Shift_8
Note_On_56_Vel_62
Time_Shift_129
Note_On_80_Vel_0
Note_On_92_Vel_0
Time_Shift_4
Note_On_80_Vel_74
Time_Shift_3
Note_On_92_Vel_65
Time_Shift_124
Note_On_87_Vel_0
Time_Shift_7
Note_On_78_Vel_0
Time_Shift_1
Note_On_87_Vel_83
Time_Shift_2
Note_On_99_Vel_73
Time_Shift_1
Note_On_78_Vel_73
Time_Shift_4
Note_On_99_Vel_0
Time_Shift_131
Note_On_86_Vel_0
Time_Shift_5
Note_On_86_Vel_79
Time_Shift_2
Note_On_80_Vel_0
Time_Shift_9
Note_On_80_Vel_75
Time_Shift_122
Note_On_89_Vel_0
Time_Shift_8
Note_On_89_Vel_78
Time_Shift_7
Note_On_72_Vel_0
Note_On_78_Vel_0
Time_Shift_5
Note_On_78_Vel_71
Time_Shift_5
Note_On_72_Vel_59
Time_Shift_113
Note_On_80_Vel_0
Note_On_87_Vel_0
Time_Shift_8
Note_On_87_Vel_75
Time_Shift_4
Note_On_80_Vel_74
Time_Shift_142
Note_On_87_Vel_0
Time_Shift_7
Note_On_87_Vel_82
Note_On_78_Vel_0
Time_Shift_6
Note_On_82_Vel_79
Time_Shift_6
Note_On_78_Vel_64
Time_Shift_4
Note_On_72_Vel_0
Time_Shift_3
Note_On_75_Vel_61
Time_Shift_5
Note_On_72_Vel_60
Time_Shift_145
Note_On_80_Vel_0
Time_Shift_4
Note_On_80_Vel_72
Time_Shift_135
Note_On_82_Vel_0
Time_Shift_4
Note_On_82_Vel_75
Time_Shift_149
Note_On_80_Vel_0
Time_Shift_5
Note_On_80_Vel_65
Time_Shift_149
Note_On_82_Vel_0
Time_Shift_4
Note_On_82_Vel_66
Time_Shift_134
Note_On_80_Vel_0
Time_Shift_5
Note_On_80_Vel_66
Time_Shift_103
Note_On_44_Vel_0
Note_On_66_Vel_0
Time_Shift_50
Note_On_79_Vel_60
Time_Shift_19
Note_On_84_Vel_0
Time_Shift_130
Note_On_80_Vel_0
Time_Shift_5
Note_On_80_Vel_56
Time_Shift_11
Note_On_72_Vel_0
Time_Shift_4
Note_On_72_Vel_25
Time_Shift_157
Note_On_79_Vel_0
Time_Shift_4
Note_On_79_Vel_46
Time_Shift_172
Note_On_80_Vel_0
Time_Shift_8
Note_On_80_Vel_51
Time_Shift_184
Note_On_78_Vel_0
Time_Shift_7
Note_On_78_Vel_51
Time_Shift_209
Note_On_80_Vel_0
Time_Shift_4
Note_On_80_Vel_46
Time_Shift_257
Note_On_68_Vel_0
Time_Shift_1
Note_On_72_Vel_0
Note_On_87_Vel_0
Time_Shift_1
Note_On_75_Vel_0
Note_On_79_Vel_0
Note_On_80_Vel_0
Note_On_78_Vel_0
Note_On_82_Vel_0
Time_Shift_1
Sustain_Off
Note_On_92_Vel_0
Note_On_56_Vel_0
Time_Shift_1
Note_On_68_Vel_23
Time_Shift_3
Note_On_90_Vel_0
Time_Shift_2
Note_On_77_Vel_51
Time_Shift_6
Note_On_86_Vel_0
Note_On_89_Vel_0
Time_Shift_23
Note_On_61_Vel_30
Time_Shift_46
Sustain_On
Time_Shift_143
Note_On_80_Vel_50
Time_Shift_148
Note_On_82_Vel_45
Time_Shift_136
Note_On_84_Vel_45
Time_Shift_138
Note_On_85_Vel_56
Time_Shift_147
Note_On_87_Vel_61
Time_Shift_145
Note_On_89_Vel_69
Time_Shift_5
Note_On_84_Vel_0
Note_On_80_Vel_0
Time_Shift_1
Note_On_85_Vel_0
Sustain_Off
Time_Shift_1
Note_On_82_Vel_0
Time_Shift_35
Note_On_77_Vel_0
Time_Shift_23
Sustain_On
Time_Shift_88
Note_On_92_Vel_58
Time_Shift_137
Note_On_94_Vel_58
Time_Shift_59
Note_On_61_Vel_0
Time_Shift_73
Note_On_96_Vel_68
Time_Shift_139
Note_On_97_Vel_72
Time_Shift_126
Note_On_94_Vel_0
Time_Shift_9
Note_On_94_Vel_74
Time_Shift_129
Note_On_92_Vel_0
Time_Shift_7
Note_On_92_Vel_66
Time_Shift_116
Note_On_87_Vel_0
Time_Shift_11
Note_On_87_Vel_70
Time_Shift_133
Note_On_85_Vel_68
Time_Shift_138
Note_On_82_Vel_69
Time_Shift_133
Note_On_80_Vel_69
Time_Shift_122
Note_On_75_Vel_71
Time_Shift_77
Note_On_96_Vel_0
Time_Shift_16
Note_On_97_Vel_0
Time_Shift_49
Note_On_73_Vel_64
Time_Shift_51
Note_On_68_Vel_0
Time_Shift_74
Note_On_70_Vel_74
Time_Shift_102
Note_On_89_Vel_0
Time_Shift_35
Note_On_68_Vel_67
Time_Shift_116
Note_On_63_Vel_68
Time_Shift_127
Note_On_61_Vel_71
Time_Shift_118
Note_On_56_Vel_77
Time_Shift_134
Note_On_56_Vel_0
Time_Shift_3
Note_On_44_Vel_84
Time_Shift_1
Note_On_56_Vel_69
Time_Shift_19
Note_On_94_Vel_0
Time_Shift_2
Sustain_Off
Time_Shift_1
Note_On_82_Vel_0
Time_Shift_1
Note_On_70_Vel_0
Note_On_85_Vel_0
Note_On_87_Vel_0
Note_On_73_Vel_0
Note_On_75_Vel_0
Note_On_61_Vel_0
Time_Shift_1
Note_On_68_Vel_0
Note_On_63_Vel_0
Time_Shift_1
Note_On_80_Vel_0
Time_Shift_1
Note_On_92_Vel_0
Time_Shift_139
Note_On_56_Vel_0
Sustain_On
Time_Shift_642
Note_On_68_Vel_90
Time_Shift_1
Note_On_54_Vel_85
Note_On_56_Vel_79
Time_Shift_2
Note_On_44_Vel_0
Time_Shift_1
Note_On_63_Vel_79
Time_Shift_2
Note_On_60_Vel_81
Time_Shift_2
Note_On_44_Vel_82
Time_Shift_5
Note_On_32_Vel_79
Time_Shift_42
Sustain_Off
Time_Shift_109
Sustain_On
Time_Shift_751
Note_On_65_Vel_86
Time_Shift_2
Note_On_32_Vel_0
Note_On_44_Vel_0
Note_On_56_Vel_0
Time_Shift_2
Note_On_53_Vel_85
Note_On_61_Vel_87
Time_Shift_3
Note_On_44_Vel_80
Note_On_37_Vel_75
Time_Shift_1
Note_On_56_Vel_78
Time_Shift_2
Note_On_32_Vel_76
Time_Shift_39
Note_On_54_Vel_0
Time_Shift_11
Note_On_63_Vel_0
Time_Shift_7
Sustain_Off
Time_Shift_12
Note_On_60_Vel_0
Time_Shift_153
Note_On_68_Vel_0
Time_Shift_24
Sustain_On
Time_Shift_1451
Note_On_32_Vel_0
Time_Shift_4
Note_On_56_Vel_0
Note_On_61_Vel_0
Time_Shift_3
Note_On_65_Vel_0
Time_Shift_3
Note_On_53_Vel_0
Time_Shift_2
Note_On_44_Vel_0
Time_Shift_8
Sustain_Off
Time_Shift_18
Note_On_37_Vel_0
Time_Shift_653
Sustain_On
Time_Shift_23
Sustain_Off
