Time_Shift_7
Sustain_On
Time_Shift_5607
Sustain_Off
Time_Shift_5
Note_On_52_Vel_77
Time_Shift_174
Note_On_52_Vel_0
Time_Shift_13
Note_On_57_Vel_80
Time_Shift_146
Sustain_On
Time_Shift_422
Note_On_57_Vel_0
Time_Shift_8
Note_On_57_Vel_80
Time_Shift_69
Sustain_Off
Time_Shift_107
Note_On_57_Vel_0
Time_Shift_17
Note_On_56_Vel_86
Time_Shift_367
Note_On_56_Vel_0
Time_Shift_401
Note_On_59_Vel_87
Time_Shift_183
Note_On_59_Vel_0
Time_Shift_10
Note_On_60_Vel_86
Time_Shift_1
Note_On_72_Vel_70
Time_Shift_177
Note_On_60_Vel_0
Time_Shift_15
Note_On_62_Vel_83
Time_Shift_1
Note_On_74_Vel_71
Time_Shift_34
Note_On_72_Vel_0
Time_Shift_84
Sustain_On
Time_Shift_54
Sustain_Off
Time_Shift_21
Note_On_65_Vel_85
Time_Shift_48
Note_On_74_Vel_0
Time_Shift_23
Note_On_62_Vel_0
Time_Shift_110
Note_On_65_Vel_0
Time_Shift_8
Note_On_64_Vel_82
Note_On_76_Vel_73
Time_Shift_174
Note_On_76_Vel_0
Time_Shift_11
Note_On_64_Vel_0
Time_Shift_8
Note_On_60_Vel_86
Time_Shift_1
Note_On_72_Vel_73
Time_Shift_170
Note_On_60_Vel_0
Time_Shift_19
Note_On_57_Vel_80
Time_Shift_114
Sustain_On
Time_Shift_176
Sustain_Off
Time_Shift_54
Note_On_72_Vel_0
Time_Shift_39
Note_On_57_Vel_0
Time_Shift_1
Note_On_54_Vel_80
Time_Shift_192
Note_On_55_Vel_80
Time_Shift_2
Note_On_54_Vel_0
Time_Shift_119
Sustain_On
Time_Shift_54
Sustain_Off
Time_Shift_13
Note_On_55_Vel_0
Time_Shift_5
Note_On_57_Vel_81
Time_Shift_184
Note_On_57_Vel_0
Time_Shift_9
Note_On_60_Vel_89
Note_On_72_Vel_76
Time_Shift_177
Note_On_60_Vel_0
Time_Shift_14
Note_On_59_Vel_88
Time_Shift_1
Note_On_71_Vel_75
Time_Shift_12
Note_On_72_Vel_0
Time_Shift_179
Note_On_55_Vel_82
Time_Shift_5
Note_On_59_Vel_0
Time_Shift_100
Note_On_71_Vel_0
Time_Shift_73
Note_On_55_Vel_0
Time_Shift_14
Note_On_52_Vel_77
Time_Shift_383
Note_On_57_Vel_82
Time_Shift_160
Sustain_On
Time_Shift_8
Note_On_52_Vel_0
Time_Shift_76
Sustain_Off
Time_Shift_140
Note_On_55_Vel_80
Time_Shift_180
Note_On_55_Vel_0
Time_Shift_12
Note_On_54_Vel_81
Time_Shift_60
Sustain_On
Time_Shift_100
Sustain_Off
Time_Shift_23
Note_On_54_Vel_0
Time_Shift_8
Note_On_57_Vel_0
Time_Shift_1
Note_On_54_Vel_80
Time_Shift_182
Note_On_54_Vel_0
Time_Shift_12
Note_On_59_Vel_89
Note_On_71_Vel_79
Time_Shift_178
Note_On_59_Vel_0
Time_Shift_12
Note_On_55_Vel_82
Time_Shift_60
Note_On_71_Vel_0
Time_Shift_126
Note_On_55_Vel_0
Time_Shift_7
Note_On_59_Vel_87
Time_Shift_1
Note_On_71_Vel_77
Time_Shift_178
Note_On_59_Vel_0
Time_Shift_14
Note_On_72_Vel_73
Note_On_60_Vel_88
Time_Shift_12
Note_On_71_Vel_0
Time_Shift_138
Sustain_On
Time_Shift_203
Note_On_60_Vel_0
Time_Shift_28
Sustain_Off
Time_Shift_3
Note_On_59_Vel_87
Note_On_71_Vel_76
Time_Shift_4
Note_On_72_Vel_0
Time_Shift_181
Note_On_59_Vel_0
Time_Shift_7
Note_On_58_Vel_86
Time_Shift_89
Note_On_71_Vel_0
Sustain_On
Time_Shift_77
Sustain_Off
Time_Shift_15
Note_On_58_Vel_0
Time_Shift_11
Note_On_58_Vel_82
Time_Shift_172
Note_On_58_Vel_0
Time_Shift_21
Note_On_62_Vel_85
Note_On_74_Vel_74
Time_Shift_181
Note_On_62_Vel_0
Time_Shift_10
Note_On_59_Vel_86
Note_On_71_Vel_76
Time_Shift_12
Note_On_74_Vel_0
Time_Shift_170
Note_On_59_Vel_0
Time_Shift_10
Note_On_62_Vel_86
Time_Shift_1
Note_On_74_Vel_75
Time_Shift_95
Note_On_71_Vel_0
Time_Shift_91
Note_On_62_Vel_0
Time_Shift_4
Note_On_56_Vel_83
Time_Shift_193
Note_On_64_Vel_83
Note_On_76_Vel_72
Note_On_56_Vel_0
Time_Shift_96
Note_On_74_Vel_0
Time_Shift_81
Note_On_64_Vel_0
Time_Shift_13
Note_On_57_Vel_79
Time_Shift_178
Note_On_57_Vel_0
Time_Shift_16
Note_On_60_Vel_88
Note_On_72_Vel_72
Time_Shift_174
Note_On_60_Vel_0
Time_Shift_18
Note_On_71_Vel_75
Note_On_59_Vel_85
Time_Shift_4
Note_On_72_Vel_0
Time_Shift_69
Note_On_76_Vel_0
Time_Shift_111
Note_On_59_Vel_0
Time_Shift_6
Note_On_57_Vel_79
Time_Shift_14
Note_On_71_Vel_0
Time_Shift_160
Note_On_57_Vel_0
Time_Shift_17
Note_On_54_Vel_79
Time_Shift_182
Note_On_54_Vel_0
Time_Shift_13
Note_On_59_Vel_86
Note_On_71_Vel_77
Time_Shift_180
Note_On_59_Vel_0
Time_Shift_11
Note_On_64_Vel_82
Time_Shift_1
Note_On_76_Vel_72
Time_Shift_4
Note_On_71_Vel_0
Time_Shift_92
Sustain_On
Time_Shift_93
Note_On_55_Vel_77
Time_Shift_192
Sustain_Off
Time_Shift_2
Note_On_55_Vel_0
Time_Shift_1
Note_On_60_Vel_86
Note_On_72_Vel_70
Time_Shift_7
Note_On_64_Vel_0
Time_Shift_36
Sustain_On
Time_Shift_138
Note_On_76_Vel_0
Time_Shift_10
Note_On_64_Vel_81
Time_Shift_1
Note_On_76_Vel_72
Time_Shift_12
Sustain_Off
Time_Shift_84
Sustain_On
Time_Shift_74
Sustain_Off
Time_Shift_9
Note_On_64_Vel_0
Time_Shift_11
Note_On_75_Vel_73
Time_Shift_2
Note_On_63_Vel_80
Time_Shift_66
Note_On_76_Vel_0
Time_Shift_118
Note_On_60_Vel_0
Time_Shift_6
Note_On_57_Vel_78
Time_Shift_22
Note_On_72_Vel_0
Time_Shift_84
Sustain_On
Time_Shift_52
Note_On_63_Vel_0
Time_Shift_6
Sustain_Off
Time_Shift_12
Note_On_57_Vel_0
Time_Shift_16
Note_On_54_Vel_78
Time_Shift_186
Note_On_54_Vel_0
Time_Shift_8
Note_On_59_Vel_85
Note_On_71_Vel_75
Time_Shift_81
Sustain_On
Time_Shift_84
Sustain_Off
Time_Shift_8
Note_On_75_Vel_0
Time_Shift_4
Note_On_59_Vel_0
Time_Shift_15
Note_On_51_Vel_79
Time_Shift_3
Note_On_66_Vel_84
Time_Shift_24
Note_On_71_Vel_0
Time_Shift_13
Note_On_51_Vel_0
Time_Shift_8
Note_On_52_Vel_74
Time_Shift_10
Sustain_On
Time_Shift_35
Note_On_51_Vel_73
Time_Shift_42
Note_On_52_Vel_0
Time_Shift_9
Note_On_52_Vel_76
Time_Shift_11
Sustain_Off
Time_Shift_26
Note_On_51_Vel_0
Time_Shift_8
Sustain_On
Time_Shift_1
Note_On_51_Vel_78
Time_Shift_2
Note_On_67_Vel_82
Time_Shift_40
Note_On_51_Vel_0
Time_Shift_3
Note_On_52_Vel_0
Time_Shift_4
Note_On_52_Vel_79
Time_Shift_11
Note_On_66_Vel_0
Time_Shift_36
Note_On_51_Vel_74
Time_Shift_41
Note_On_52_Vel_0
Time_Shift_9
Note_On_52_Vel_78
Time_Shift_4
Sustain_Off
Time_Shift_33
Note_On_51_Vel_0
Time_Shift_10
Note_On_51_Vel_77
Time_Shift_2
Note_On_69_Vel_79
Time_Shift_11
Sustain_On
Time_Shift_31
Note_On_52_Vel_0
Time_Shift_5
Note_On_52_Vel_78
Time_Shift_41
Note_On_51_Vel_0
Time_Shift_4
Note_On_51_Vel_73
Time_Shift_42
Note_On_52_Vel_0
Note_On_67_Vel_0
Time_Shift_10
Note_On_52_Vel_74
Time_Shift_1
Note_On_51_Vel_0
Time_Shift_8
Sustain_Off
Time_Shift_35
Note_On_69_Vel_0
Time_Shift_3
Note_On_72_Vel_85
Note_On_51_Vel_78
Time_Shift_4
Sustain_On
Time_Shift_39
Note_On_52_Vel_0
Time_Shift_4
Note_On_52_Vel_77
Time_Shift_19
Note_On_51_Vel_0
Time_Shift_28
Note_On_51_Vel_75
Time_Shift_41
Note_On_52_Vel_0
Time_Shift_9
Note_On_52_Vel_75
Time_Shift_9
Sustain_Off
Time_Shift_28
Note_On_51_Vel_0
Time_Shift_4
Note_On_72_Vel_0
Time_Shift_6
Note_On_71_Vel_83
Time_Shift_1
Note_On_51_Vel_76
Time_Shift_12
Note_On_52_Vel_0
Time_Shift_174
Note_On_51_Vel_0
Time_Shift_5
Note_On_71_Vel_0
Time_Shift_3
Note_On_52_Vel_80
Time_Shift_1
Note_On_79_Vel_80
Note_On_67_Vel_85
Time_Shift_9
Note_On_79_Vel_0
Time_Shift_92
Sustain_On
Time_Shift_54
Sustain_Off
Time_Shift_23
Note_On_52_Vel_0
Time_Shift_4
Note_On_67_Vel_0
Time_Shift_7
Note_On_76_Vel_72
Note_On_64_Vel_86
Note_On_55_Vel_79
Time_Shift_50
Sustain_On
Time_Shift_142
Note_On_43_Vel_83
Time_Shift_171
Note_On_43_Vel_0
Time_Shift_2
Note_On_76_Vel_0
Time_Shift_3
Note_On_55_Vel_0
Time_Shift_6
Note_On_64_Vel_0
Sustain_Off
Time_Shift_9
Note_On_59_Vel_83
Time_Shift_1
Note_On_44_Vel_81
Time_Shift_47
Note_On_45_Vel_80
Time_Shift_3
Sustain_On
Time_Shift_39
Note_On_44_Vel_0
Time_Shift_6
Note_On_44_Vel_77
Time_Shift_40
Note_On_45_Vel_0
Time_Shift_10
Note_On_45_Vel_75
Time_Shift_36
Sustain_Off
Note_On_44_Vel_0
Time_Shift_9
Note_On_44_Vel_80
Time_Shift_3
Note_On_60_Vel_86
Note_On_72_Vel_77
Time_Shift_6
Note_On_59_Vel_0
Time_Shift_28
Note_On_45_Vel_0
Time_Shift_8
Sustain_On
Time_Shift_3
Note_On_45_Vel_75
Time_Shift_43
Note_On_44_Vel_0
Time_Shift_5
Note_On_44_Vel_75
Time_Shift_41
Note_On_45_Vel_0
Time_Shift_9
Note_On_45_Vel_75
Time_Shift_25
Sustain_Off
Time_Shift_18
Note_On_60_Vel_0
Time_Shift_2
Note_On_44_Vel_0
Time_Shift_4
Note_On_62_Vel_87
Note_On_44_Vel_77
Time_Shift_19
Note_On_72_Vel_0
Sustain_On
Time_Shift_23
Note_On_45_Vel_0
Time_Shift_4
Note_On_45_Vel_77
Time_Shift_42
Note_On_44_Vel_0
Time_Shift_7
Note_On_44_Vel_76
Time_Shift_39
Note_On_45_Vel_0
Time_Shift_8
Note_On_45_Vel_76
Time_Shift_37
Sustain_Off
Time_Shift_1
Note_On_44_Vel_0
Time_Shift_11
Note_On_44_Vel_78
Time_Shift_2
Note_On_65_Vel_81
Time_Shift_18
Sustain_On
Time_Shift_23
Note_On_45_Vel_0
Time_Shift_5
Note_On_45_Vel_77
Time_Shift_41
Note_On_44_Vel_0
Time_Shift_4
Note_On_44_Vel_75
Time_Shift_42
Note_On_45_Vel_0
Time_Shift_7
Note_On_45_Vel_74
Time_Shift_19
Sustain_Off
Time_Shift_20
Note_On_44_Vel_0
Time_Shift_9
Note_On_44_Vel_80
Time_Shift_1
Note_On_64_Vel_85
Time_Shift_1
Note_On_45_Vel_0
Time_Shift_12
Note_On_62_Vel_0
Note_On_65_Vel_0
Time_Shift_180
Note_On_72_Vel_77
Note_On_44_Vel_0
Note_On_45_Vel_78
Note_On_64_Vel_0
Note_On_60_Vel_83
Time_Shift_189
Note_On_48_Vel_80
Time_Shift_1
Note_On_57_Vel_79
Note_On_45_Vel_0
Time_Shift_114
Note_On_60_Vel_0
Sustain_On
Time_Shift_57
Sustain_Off
Time_Shift_16
Note_On_48_Vel_0
Time_Shift_5
Note_On_53_Vel_80
Time_Shift_16
Note_On_57_Vel_0
Time_Shift_6
Note_On_72_Vel_0
Time_Shift_69
Sustain_On
Time_Shift_90
Sustain_Off
Time_Shift_11
Note_On_53_Vel_0
Time_Shift_2
Note_On_47_Vel_81
Time_Shift_1
Note_On_62_Vel_85
Note_On_74_Vel_75
Time_Shift_176
Note_On_47_Vel_0
Time_Shift_13
Note_On_50_Vel_83
Time_Shift_75
Sustain_On
Time_Shift_95
Sustain_Off
Time_Shift_6
Note_On_50_Vel_0
Time_Shift_5
Note_On_62_Vel_0
Time_Shift_13
Note_On_52_Vel_76
Note_On_60_Vel_89
Time_Shift_1
Note_On_72_Vel_77
Time_Shift_11
Note_On_74_Vel_0
Time_Shift_54
Sustain_On
Time_Shift_104
Sustain_Off
Time_Shift_1
Note_On_52_Vel_0
Time_Shift_2
Note_On_60_Vel_0
Time_Shift_18
Note_On_68_Vel_77
Time_Shift_1
Note_On_56_Vel_81
Note_On_59_Vel_85
Time_Shift_1
Note_On_71_Vel_76
Time_Shift_3
Note_On_68_Vel_0
Time_Shift_23
Note_On_72_Vel_0
Time_Shift_29
Note_On_56_Vel_0
Time_Shift_2
Sustain_On
Time_Shift_123
Note_On_71_Vel_0
Time_Shift_8
Note_On_59_Vel_0
Time_Shift_2
Note_On_68_Vel_74
Time_Shift_1
Note_On_71_Vel_77
Note_On_56_Vel_77
Time_Shift_1
Note_On_59_Vel_82
Time_Shift_15
Sustain_Off
Time_Shift_27
Sustain_On
Time_Shift_134
Sustain_Off
Time_Shift_11
Note_On_59_Vel_0
Time_Shift_4
Note_On_52_Vel_75
Note_On_56_Vel_0
Time_Shift_1
Note_On_64_Vel_84
Note_On_76_Vel_78
Time_Shift_11
Note_On_76_Vel_0
Time_Shift_15
Note_On_68_Vel_0
Time_Shift_54
Sustain_On
Time_Shift_88
Sustain_Off
Time_Shift_5
Note_On_52_Vel_0
Time_Shift_7
Note_On_71_Vel_0
Time_Shift_11
Note_On_57_Vel_81
Time_Shift_1
Note_On_60_Vel_85
Note_On_72_Vel_78
Time_Shift_65
Sustain_On
Time_Shift_106
Sustain_Off
Time_Shift_9
Note_On_64_Vel_0
Note_On_57_Vel_0
Time_Shift_3
Note_On_60_Vel_0
Time_Shift_7
Note_On_48_Vel_79
Time_Shift_1
Note_On_64_Vel_83
Time_Shift_35
Sustain_On
Time_Shift_147
Sustain_Off
Time_Shift_8
Note_On_48_Vel_0
Time_Shift_2
Note_On_64_Vel_0
Time_Shift_1
Note_On_50_Vel_81
Time_Shift_3
Note_On_65_Vel_83
Time_Shift_187
Note_On_53_Vel_79
Time_Shift_1
Note_On_50_Vel_0
Time_Shift_10
Note_On_65_Vel_0
Time_Shift_25
Sustain_On
Time_Shift_133
Sustain_Off
Time_Shift_13
Note_On_53_Vel_0
Time_Shift_11
Note_On_76_Vel_75
Note_On_64_Vel_86
Note_On_55_Vel_80
Time_Shift_58
Note_On_72_Vel_0
Time_Shift_126
Note_On_64_Vel_0
Time_Shift_6
Note_On_76_Vel_0
Time_Shift_2
Note_On_55_Vel_0
Note_On_59_Vel_86
Note_On_75_Vel_79
Time_Shift_1
Note_On_63_Vel_86
Note_On_71_Vel_78
Time_Shift_111
Sustain_On
Time_Shift_66
Sustain_Off
Time_Shift_3
Note_On_59_Vel_0
Note_On_75_Vel_0
Time_Shift_8
Note_On_63_Vel_0
Note_On_71_Vel_0
Time_Shift_3
Note_On_59_Vel_81
Note_On_75_Vel_77
Time_Shift_1
Note_On_63_Vel_77
Note_On_71_Vel_73
Time_Shift_57
Sustain_On
Time_Shift_127
Sustain_Off
Time_Shift_3
Note_On_63_Vel_0
Time_Shift_2
Note_On_71_Vel_0
Time_Shift_1
Note_On_59_Vel_0
Time_Shift_2
Note_On_55_Vel_82
Note_On_79_Vel_79
Time_Shift_1
Note_On_67_Vel_85
Time_Shift_25
Note_On_75_Vel_0
Time_Shift_166
Note_On_64_Vel_88
Note_On_60_Vel_88
Note_On_76_Vel_78
Note_On_55_Vel_0
Time_Shift_1
Note_On_72_Vel_73
Time_Shift_33
Note_On_67_Vel_0
Sustain_On
Time_Shift_15
Note_On_79_Vel_0
Time_Shift_141
Sustain_Off
Time_Shift_2
Note_On_52_Vel_80
Note_On_79_Vel_81
Time_Shift_1
Note_On_60_Vel_0
Note_On_64_Vel_0
Note_On_67_Vel_86
Time_Shift_94
Sustain_On
Time_Shift_83
Sustain_Off
Time_Shift_13
Note_On_61_Vel_87
Note_On_52_Vel_0
Note_On_57_Vel_80
Note_On_73_Vel_81
Time_Shift_12
Note_On_76_Vel_0
Time_Shift_31
Note_On_72_Vel_0
Time_Shift_15
Sustain_On
Time_Shift_15
Note_On_79_Vel_0
Time_Shift_105
Sustain_Off
Time_Shift_3
Note_On_57_Vel_0
Time_Shift_1
Note_On_61_Vel_0
Time_Shift_11
Note_On_53_Vel_78
Note_On_69_Vel_83
Time_Shift_3
Note_On_67_Vel_0
Time_Shift_62
Sustain_On
Time_Shift_126
Note_On_58_Vel_87
Time_Shift_1
Note_On_62_Vel_83
Note_On_74_Vel_79
Time_Shift_1
Note_On_70_Vel_75
Time_Shift_6
Note_On_53_Vel_0
Time_Shift_1
Note_On_69_Vel_0
Time_Shift_1
Sustain_Off
Time_Shift_177
Note_On_58_Vel_0
Time_Shift_3
Note_On_62_Vel_0
Time_Shift_3
Note_On_57_Vel_85
Time_Shift_1
Note_On_65_Vel_83
Time_Shift_71
Note_On_73_Vel_0
Time_Shift_23
Sustain_On
Time_Shift_69
Sustain_Off
Time_Shift_8
Note_On_70_Vel_0
Time_Shift_12
Note_On_57_Vel_0
Note_On_65_Vel_0
Time_Shift_4
Note_On_74_Vel_0
Time_Shift_3
Note_On_59_Vel_85
Time_Shift_1
Note_On_62_Vel_87
Note_On_71_Vel_80
Note_On_74_Vel_78
Time_Shift_180
Note_On_71_Vel_0
Time_Shift_7
Note_On_59_Vel_0
Note_On_56_Vel_80
Time_Shift_1
Note_On_71_Vel_85
Time_Shift_12
Note_On_62_Vel_0
Time_Shift_2
Note_On_74_Vel_0
Time_Shift_181
Note_On_76_Vel_78
Note_On_60_Vel_86
Note_On_64_Vel_87
Time_Shift_1
Note_On_71_Vel_0
Note_On_72_Vel_74
Time_Shift_4
Note_On_56_Vel_0
Time_Shift_30
Sustain_On
Time_Shift_151
Note_On_60_Vel_0
Time_Shift_1
Note_On_64_Vel_0
Time_Shift_1
Note_On_76_Vel_0
Time_Shift_1
Note_On_72_Vel_0
Sustain_Off
Time_Shift_3
Note_On_80_Vel_76
Note_On_59_Vel_84
Time_Shift_1
Note_On_68_Vel_85
Note_On_71_Vel_78
Time_Shift_3
Note_On_80_Vel_0
Time_Shift_173
Note_On_68_Vel_0
Time_Shift_3
Note_On_59_Vel_0
Time_Shift_13
Note_On_64_Vel_85
Note_On_60_Vel_86
Note_On_76_Vel_78
Time_Shift_1
Note_On_72_Vel_74
Time_Shift_18
Note_On_71_Vel_0
Time_Shift_61
Sustain_On
Time_Shift_95
Note_On_60_Vel_0
Time_Shift_5
Note_On_72_Vel_0
Time_Shift_4
Sustain_Off
Time_Shift_1
Note_On_64_Vel_0
Time_Shift_5
Note_On_57_Vel_79
Note_On_72_Vel_86
Time_Shift_59
Sustain_On
Time_Shift_118
Sustain_Off
Note_On_72_Vel_0
Time_Shift_1
Note_On_57_Vel_0
Time_Shift_17
Note_On_62_Vel_87
Note_On_74_Vel_78
Note_On_77_Vel_79
Note_On_65_Vel_85
Time_Shift_110
Note_On_76_Vel_0
Time_Shift_69
Note_On_65_Vel_0
Time_Shift_11
Note_On_62_Vel_0
Note_On_72_Vel_80
Note_On_60_Vel_87
Time_Shift_1
Note_On_69_Vel_84
Time_Shift_3
Note_On_77_Vel_0
Time_Shift_1
Note_On_74_Vel_0
Time_Shift_84
Sustain_On
Time_Shift_48
Sustain_Off
Time_Shift_39
Note_On_60_Vel_0
Time_Shift_4
Note_On_69_Vel_0
Note_On_72_Vel_0
Time_Shift_11
Note_On_74_Vel_85
Time_Shift_1
Note_On_59_Vel_88
Time_Shift_112
Sustain_On
Time_Shift_82
Note_On_69_Vel_82
Time_Shift_25
Note_On_59_Vel_0
Time_Shift_8
Sustain_Off
Time_Shift_128
Note_On_69_Vel_0
Time_Shift_31
Note_On_67_Vel_87
Time_Shift_1
Note_On_79_Vel_81
Time_Shift_175
Note_On_67_Vel_0
Time_Shift_14
Note_On_59_Vel_87
Time_Shift_1
Note_On_65_Vel_86
Time_Shift_172
Note_On_79_Vel_0
Time_Shift_9
Note_On_65_Vel_0
Time_Shift_2
Note_On_59_Vel_0
Time_Shift_8
Note_On_76_Vel_80
Time_Shift_1
Note_On_60_Vel_87
Note_On_64_Vel_86
Note_On_72_Vel_73
Time_Shift_19
Note_On_74_Vel_0
Time_Shift_165
Note_On_60_Vel_0
Time_Shift_6
Note_On_64_Vel_0
Time_Shift_2
Note_On_57_Vel_84
Time_Shift_1
Note_On_65_Vel_84
Time_Shift_8
Note_On_76_Vel_0
Time_Shift_182
Note_On_65_Vel_0
Time_Shift_1
Note_On_52_Vel_82
Note_On_79_Vel_83
Note_On_67_Vel_86
Time_Shift_6
Note_On_57_Vel_0
Time_Shift_51
Note_On_72_Vel_0
Time_Shift_115
Note_On_79_Vel_0
Time_Shift_13
Note_On_67_Vel_0
Time_Shift_4
Note_On_72_Vel_86
Time_Shift_144
Note_On_52_Vel_0
Time_Shift_32
Note_On_72_Vel_0
Time_Shift_18
Note_On_59_Vel_86
Time_Shift_1
Note_On_62_Vel_86
Note_On_71_Vel_81
Time_Shift_2
Note_On_74_Vel_75
Time_Shift_188
Note_On_55_Vel_78
Note_On_64_Vel_87
Note_On_59_Vel_0
Time_Shift_1
Note_On_76_Vel_75
Time_Shift_9
Note_On_62_Vel_0
Time_Shift_110
Note_On_74_Vel_0
Time_Shift_74
Note_On_50_Vel_84
Note_On_64_Vel_0
Time_Shift_4
Note_On_65_Vel_85
Time_Shift_3
Note_On_55_Vel_0
Time_Shift_4
Note_On_76_Vel_0
Time_Shift_162
Note_On_65_Vel_0
Time_Shift_7
Note_On_71_Vel_0
Time_Shift_9
Note_On_71_Vel_87
Time_Shift_184
Note_On_71_Vel_0
Time_Shift_10
Note_On_48_Vel_81
Note_On_50_Vel_0
Note_On_64_Vel_84
Time_Shift_1
Note_On_76_Vel_73
Time_Shift_179
Note_On_48_Vel_0
Time_Shift_1
Note_On_64_Vel_0
Time_Shift_11
Note_On_50_Vel_84
Note_On_62_Vel_89
Time_Shift_1
Note_On_74_Vel_74
Time_Shift_177
Note_On_50_Vel_0
Time_Shift_12
Note_On_62_Vel_0
Time_Shift_2
Note_On_72_Vel_78
Note_On_60_Vel_87
Note_On_52_Vel_77
Time_Shift_81
Note_On_76_Vel_0
Time_Shift_89
Note_On_52_Vel_0
Time_Shift_9
Note_On_60_Vel_0
Time_Shift_13
Note_On_57_Vel_83
Time_Shift_2
Note_On_65_Vel_84
Time_Shift_164
Note_On_74_Vel_0
Time_Shift_26
Note_On_59_Vel_86
Note_On_71_Vel_73
Time_Shift_4
Note_On_57_Vel_0
Time_Shift_31
Note_On_72_Vel_0
Time_Shift_156
Note_On_56_Vel_80
Time_Shift_163
Note_On_59_Vel_0
Time_Shift_7
Note_On_56_Vel_0
Time_Shift_12
Note_On_65_Vel_0
Time_Shift_11
Note_On_74_Vel_76
Note_On_62_Vel_86
Time_Shift_191
Note_On_64_Vel_84
Time_Shift_1
Note_On_76_Vel_75
Time_Shift_181
Note_On_71_Vel_0
Time_Shift_9
Note_On_64_Vel_0
Time_Shift_3
Note_On_69_Vel_82
Time_Shift_19
Note_On_76_Vel_0
Time_Shift_99
Note_On_74_Vel_0
Time_Shift_73
Note_On_60_Vel_88
Note_On_72_Vel_75
Time_Shift_7
Note_On_62_Vel_0
Time_Shift_28
Sustain_On
Time_Shift_38
Sustain_Off
Time_Shift_105
Note_On_60_Vel_0
Time_Shift_18
Note_On_65_Vel_86
Time_Shift_39
Note_On_69_Vel_0
Time_Shift_150
Note_On_81_Vel_75
Time_Shift_1
Note_On_69_Vel_80
Time_Shift_10
Note_On_81_Vel_0
Time_Shift_156
Note_On_69_Vel_0
Time_Shift_13
Note_On_72_Vel_0
Time_Shift_13
Note_On_80_Vel_78
Time_Shift_1
Note_On_68_Vel_86
Time_Shift_9
Note_On_80_Vel_0
Time_Shift_180
Note_On_62_Vel_86
Time_Shift_1
Note_On_74_Vel_75
Time_Shift_10
Note_On_65_Vel_0
Time_Shift_171
Note_On_62_Vel_0
Time_Shift_10
Note_On_59_Vel_86
Note_On_71_Vel_77
Time_Shift_186
Note_On_59_Vel_0
Time_Shift_5
Note_On_64_Vel_83
Note_On_76_Vel_73
Time_Shift_59
Note_On_71_Vel_0
Time_Shift_61
Note_On_74_Vel_0
Time_Shift_69
Note_On_56_Vel_80
Time_Shift_1
Note_On_71_Vel_84
Time_Shift_50
Note_On_57_Vel_77
Time_Shift_34
Sustain_On
Time_Shift_8
Note_On_56_Vel_0
Time_Shift_5
Note_On_56_Vel_80
Time_Shift_41
Note_On_57_Vel_0
Time_Shift_6
Note_On_57_Vel_77
Time_Shift_48
Note_On_56_Vel_0
Note_On_72_Vel_83
Time_Shift_4
Note_On_56_Vel_77
Time_Shift_11
Note_On_68_Vel_0
Time_Shift_23
Note_On_57_Vel_0
Time_Shift_11
Note_On_57_Vel_78
Time_Shift_43
Note_On_56_Vel_0
Time_Shift_4
Note_On_56_Vel_78
Time_Shift_42
Note_On_57_Vel_0
Time_Shift_6
Note_On_57_Vel_76
Time_Shift_40
Note_On_56_Vel_0
Time_Shift_10
Note_On_74_Vel_86
Time_Shift_1
Note_On_56_Vel_78
Time_Shift_43
Note_On_57_Vel_0
Time_Shift_4
Note_On_57_Vel_81
Time_Shift_34
Note_On_72_Vel_0
Time_Shift_8
Note_On_56_Vel_0
Time_Shift_2
Note_On_72_Vel_66
Time_Shift_3
Note_On_56_Vel_77
Time_Shift_41
Note_On_57_Vel_0
Time_Shift_6
Note_On_57_Vel_74
Time_Shift_40
Note_On_56_Vel_0
Time_Shift_8
Note_On_77_Vel_85
Time_Shift_3
Note_On_56_Vel_77
Time_Shift_43
Note_On_57_Vel_0
Time_Shift_4
Note_On_57_Vel_76
Time_Shift_42
Note_On_56_Vel_0
Note_On_72_Vel_0
Time_Shift_4
Note_On_72_Vel_61
Note_On_56_Vel_76
Time_Shift_42
Note_On_57_Vel_0
Time_Shift_7
Note_On_57_Vel_77
Time_Shift_39
Note_On_56_Vel_0
Note_On_76_Vel_0
Time_Shift_9
Note_On_76_Vel_85
Time_Shift_2
Note_On_56_Vel_79
Time_Shift_16
Sustain_Off
Time_Shift_42
Note_On_57_Vel_0
Time_Shift_108
Note_On_74_Vel_0
Time_Shift_15
Note_On_72_Vel_0
Time_Shift_10
Note_On_72_Vel_86
Note_On_57_Vel_79
Time_Shift_13
Note_On_56_Vel_0
Time_Shift_8
Note_On_71_Vel_0
Time_Shift_160
Note_On_57_Vel_0
Time_Shift_9
Note_On_72_Vel_0
Time_Shift_4
Note_On_60_Vel_85
Note_On_72_Vel_77
Note_On_69_Vel_84
Time_Shift_19
Note_On_77_Vel_0
Time_Shift_61
Note_On_64_Vel_0
Time_Shift_31
Note_On_76_Vel_0
Time_Shift_58
Note_On_60_Vel_0
Time_Shift_23
Note_On_52_Vel_76
Time_Shift_26
Sustain_On
Time_Shift_152
Sustain_Off
Time_Shift_13
Note_On_51_Vel_81
Time_Shift_3
Note_On_66_Vel_85
Time_Shift_32
Sustain_On
Time_Shift_8
Note_On_52_Vel_0
Time_Shift_4
Note_On_52_Vel_77
Time_Shift_42
Note_On_51_Vel_0
Time_Shift_5
Note_On_51_Vel_74
Time_Shift_10
Note_On_69_Vel_0
Time_Shift_31
Note_On_52_Vel_0
Time_Shift_9
Note_On_52_Vel_76
Time_Shift_19
Sustain_Off
Time_Shift_18
Note_On_51_Vel_0
Time_Shift_8
Note_On_51_Vel_79
Time_Shift_3
Note_On_67_Vel_84
Time_Shift_4
Sustain_On
Time_Shift_31
Note_On_72_Vel_0
Time_Shift_8
Note_On_52_Vel_0
Time_Shift_4
Note_On_52_Vel_77
Time_Shift_42
Note_On_51_Vel_0
Time_Shift_5
Note_On_51_Vel_75
Time_Shift_41
Note_On_52_Vel_0
Time_Shift_10
Note_On_52_Vel_78
Time_Shift_7
Sustain_Off
Time_Shift_29
Note_On_51_Vel_0
Time_Shift_8
Sustain_On
Time_Shift_1
Note_On_51_Vel_77
Time_Shift_3
Note_On_69_Vel_80
Time_Shift_42
Note_On_52_Vel_0
Time_Shift_4
Note_On_52_Vel_78
Time_Shift_42
Note_On_51_Vel_0
Time_Shift_4
Note_On_51_Vel_75
Time_Shift_42
Note_On_52_Vel_0
Time_Shift_10
Note_On_52_Vel_73
Time_Shift_5
Sustain_Off
Time_Shift_8
Note_On_66_Vel_0
Time_Shift_23
Note_On_51_Vel_0
Time_Shift_6
Note_On_69_Vel_0
Time_Shift_2
Sustain_On
Time_Shift_3
Note_On_72_Vel_87
Note_On_51_Vel_78
Time_Shift_20
Note_On_67_Vel_0
Time_Shift_15
Note_On_52_Vel_0
Time_Shift_11
Note_On_52_Vel_77
Time_Shift_12
Note_On_51_Vel_0
Time_Shift_35
Note_On_51_Vel_76
Time_Shift_42
Note_On_52_Vel_0
Time_Shift_9
Note_On_52_Vel_75
Time_Shift_12
Sustain_Off
Time_Shift_25
Note_On_51_Vel_0
Time_Shift_6
Note_On_72_Vel_0
Time_Shift_4
Note_On_71_Vel_84
Time_Shift_1
Note_On_51_Vel_78
Time_Shift_20
Note_On_52_Vel_0
Time_Shift_167
Note_On_51_Vel_0
Time_Shift_6
Note_On_52_Vel_79
Time_Shift_1
Note_On_79_Vel_82
Note_On_67_Vel_86
Time_Shift_164
Note_On_79_Vel_0
Time_Shift_25
Note_On_64_Vel_87
Time_Shift_1
Note_On_76_Vel_74
Note_On_55_Vel_77
Time_Shift_12
Note_On_71_Vel_0
Time_Shift_181
Note_On_72_Vel_72
Note_On_60_Vel_86
Time_Shift_12
Note_On_55_Vel_0
Time_Shift_37
Sustain_On
Time_Shift_77
Note_On_67_Vel_0
Time_Shift_38
Note_On_64_Vel_0
Time_Shift_4
Note_On_60_Vel_0
Time_Shift_4
Sustain_Off
Time_Shift_16
Note_On_52_Vel_0
Note_On_76_Vel_0
Time_Shift_4
Note_On_54_Vel_78
Note_On_69_Vel_84
Time_Shift_174
Note_On_54_Vel_0
Time_Shift_15
Note_On_57_Vel_79
Time_Shift_179
Note_On_57_Vel_0
Time_Shift_16
Note_On_59_Vel_89
Note_On_67_Vel_86
Time_Shift_19
Note_On_69_Vel_0
Time_Shift_84
Note_On_72_Vel_0
Time_Shift_73
Note_On_59_Vel_0
Note_On_67_Vel_0
Time_Shift_16
Note_On_66_Vel_85
Note_On_63_Vel_85
Time_Shift_1
Note_On_75_Vel_75
Time_Shift_3
Note_On_78_Vel_78
Time_Shift_7
Note_On_78_Vel_0
Time_Shift_61
Sustain_On
Time_Shift_116
Note_On_63_Vel_0
Note_On_66_Vel_0
Note_On_75_Vel_0
Time_Shift_5
Note_On_66_Vel_81
Note_On_75_Vel_78
Note_On_63_Vel_77
Time_Shift_1
Note_On_78_Vel_78
Time_Shift_9
Note_On_78_Vel_0
Time_Shift_1
Sustain_Off
Time_Shift_178
Note_On_59_Vel_87
Time_Shift_1
Note_On_71_Vel_81
Time_Shift_2
Note_On_66_Vel_0
Time_Shift_1
Note_On_63_Vel_0
Time_Shift_189
Note_On_79_Vel_81
Note_On_59_Vel_0
Time_Shift_1
Note_On_64_Vel_85
Note_On_76_Vel_80
Note_On_67_Vel_82
Time_Shift_1
Note_On_71_Vel_0
Time_Shift_33
Note_On_75_Vel_0
Time_Shift_147
Note_On_67_Vel_0
Time_Shift_2
Note_On_64_Vel_0
Time_Shift_3
Note_On_76_Vel_0
Time_Shift_5
Note_On_59_Vel_85
Note_On_71_Vel_82
Time_Shift_185
Note_On_59_Vel_0
Time_Shift_5
Note_On_57_Vel_77
Note_On_72_Vel_85
Time_Shift_4
Note_On_71_Vel_0
Time_Shift_110
Note_On_79_Vel_0
Time_Shift_58
Note_On_57_Vel_0
Time_Shift_19
Note_On_72_Vel_0
Time_Shift_4
Note_On_60_Vel_86
Note_On_72_Vel_72
Time_Shift_183
Note_On_72_Vel_0
Time_Shift_1
Note_On_60_Vel_0
Time_Shift_7
Note_On_71_Vel_87
Note_On_74_Vel_75
Note_On_62_Vel_84
Time_Shift_104
Sustain_On
Time_Shift_89
Note_On_70_Vel_89
Note_On_78_Vel_77
Time_Shift_1
Note_On_71_Vel_0
Note_On_66_Vel_84
Time_Shift_4
Sustain_Off
Time_Shift_1
Note_On_62_Vel_0
Time_Shift_36
Sustain_On
Time_Shift_7
Note_On_78_Vel_0
Time_Shift_116
Note_On_74_Vel_0
Time_Shift_23
Note_On_66_Vel_0
Note_On_70_Vel_0
Time_Shift_4
Note_On_70_Vel_85
Note_On_78_Vel_76
Time_Shift_1
Note_On_66_Vel_82
Time_Shift_46
Sustain_Off
Time_Shift_137
Note_On_70_Vel_0
Time_Shift_2
Note_On_66_Vel_0
Time_Shift_5
Note_On_62_Vel_83
Note_On_74_Vel_82
Time_Shift_12
Note_On_78_Vel_0
Time_Shift_175
Note_On_62_Vel_0
Time_Shift_5
Note_On_71_Vel_84
Time_Shift_1
Note_On_67_Vel_84
Note_On_79_Vel_78
Time_Shift_180
Note_On_74_Vel_0
Time_Shift_8
Note_On_71_Vel_0
Time_Shift_2
Note_On_74_Vel_85
Note_On_59_Vel_87
Time_Shift_2
Note_On_71_Vel_77
Time_Shift_72
Note_On_79_Vel_0
Time_Shift_108
Note_On_67_Vel_0
Time_Shift_8
Note_On_59_Vel_0
Time_Shift_1
Note_On_74_Vel_0
Time_Shift_2
Note_On_64_Vel_80
Time_Shift_1
Note_On_80_Vel_78
Note_On_76_Vel_77
Time_Shift_1
Note_On_68_Vel_82
Time_Shift_64
Sustain_On
Time_Shift_113
Note_On_64_Vel_0
Time_Shift_2
Note_On_76_Vel_0
Time_Shift_4
Note_On_68_Vel_0
Time_Shift_4
Note_On_71_Vel_0
Time_Shift_1
Sustain_Off
Time_Shift_2
Note_On_76_Vel_83
Note_On_60_Vel_84
Time_Shift_1
Note_On_72_Vel_71
Time_Shift_134
Note_On_80_Vel_0
Time_Shift_40
Note_On_60_Vel_0
Time_Shift_19
Note_On_69_Vel_83
Time_Shift_1
Note_On_65_Vel_81
Time_Shift_2
Note_On_77_Vel_77
Time_Shift_30
Note_On_76_Vel_0
Time_Shift_143
Note_On_65_Vel_0
Time_Shift_2
Note_On_69_Vel_0
Time_Shift_1
Note_On_72_Vel_0
Time_Shift_10
Note_On_64_Vel_84
Note_On_72_Vel_86
Time_Shift_1
Note_On_76_Vel_79
Time_Shift_4
Note_On_77_Vel_0
Time_Shift_172
Note_On_64_Vel_0
Time_Shift_1
Note_On_72_Vel_0
Time_Shift_13
Note_On_63_Vel_80
Note_On_75_Vel_78
Time_Shift_1
Note_On_71_Vel_86
Time_Shift_194
Note_On_71_Vel_0
Time_Shift_1
Note_On_81_Vel_75
Time_Shift_1
Note_On_69_Vel_78
Time_Shift_2
Note_On_63_Vel_0
Time_Shift_45
Sustain_On
Time_Shift_145
Note_On_69_Vel_0
Time_Shift_1
Note_On_66_Vel_86
Note_On_78_Vel_76
Note_On_81_Vel_0
Time_Shift_131
Note_On_76_Vel_0
Time_Shift_8
Sustain_Off
Time_Shift_47
Note_On_47_Vel_81
Time_Shift_187
Note_On_47_Vel_0
Time_Shift_6
Note_On_52_Vel_78
Time_Shift_120
Note_On_78_Vel_0
Time_Shift_39
Sustain_On
Time_Shift_37
Note_On_79_Vel_80
Time_Shift_1
Note_On_67_Vel_88
Time_Shift_8
Note_On_66_Vel_0
Note_On_75_Vel_0
Time_Shift_84
Note_On_79_Vel_0
Time_Shift_94
Note_On_72_Vel_85
Time_Shift_2
Note_On_67_Vel_0
Time_Shift_89
Sustain_Off
Time_Shift_38
Note_On_52_Vel_0
Time_Shift_64
Note_On_52_Vel_77
Time_Shift_185
Note_On_52_Vel_0
Time_Shift_6
Note_On_51_Vel_81
Time_Shift_196
Note_On_81_Vel_78
Note_On_69_Vel_82
Time_Shift_125
Sustain_On
Time_Shift_39
Sustain_Off
Time_Shift_9
Note_On_69_Vel_0
Time_Shift_4
Note_On_51_Vel_0
Time_Shift_8
Note_On_72_Vel_0
Time_Shift_2
Note_On_81_Vel_0
Time_Shift_6
Note_On_78_Vel_77
Time_Shift_2
Note_On_66_Vel_86
Time_Shift_61
Sustain_On
Time_Shift_120
Note_On_66_Vel_0
Time_Shift_4
Note_On_71_Vel_84
Time_Shift_22
Note_On_78_Vel_0
Time_Shift_169
Note_On_54_Vel_76
Time_Shift_1
Note_On_63_Vel_82
Note_On_75_Vel_75
Time_Shift_50
Note_On_64_Vel_79
Time_Shift_1
Note_On_76_Vel_73
Time_Shift_40
Note_On_63_Vel_0
Note_On_75_Vel_0
Time_Shift_5
Note_On_75_Vel_73
Note_On_63_Vel_73
Time_Shift_41
Note_On_64_Vel_0
Note_On_76_Vel_0
Time_Shift_7
Note_On_76_Vel_70
Time_Shift_1
Note_On_64_Vel_75
Time_Shift_38
Note_On_63_Vel_0
Note_On_75_Vel_0
Time_Shift_7
Note_On_75_Vel_74
Time_Shift_2
Note_On_55_Vel_77
Time_Shift_1
Note_On_63_Vel_73
Time_Shift_44
Note_On_64_Vel_0
Note_On_76_Vel_0
Time_Shift_4
Note_On_76_Vel_73
Note_On_64_Vel_76
Time_Shift_26
Note_On_71_Vel_0
Time_Shift_16
Note_On_63_Vel_0
Note_On_75_Vel_0
Time_Shift_4
Note_On_75_Vel_70
Time_Shift_1
Note_On_63_Vel_72
Time_Shift_33
Note_On_54_Vel_0
Time_Shift_8
Note_On_64_Vel_0
Note_On_76_Vel_0
Time_Shift_7
Note_On_64_Vel_77
Note_On_76_Vel_73
Time_Shift_39
Note_On_63_Vel_0
Note_On_75_Vel_0
Time_Shift_9
Note_On_75_Vel_73
Note_On_57_Vel_80
Time_Shift_2
Note_On_63_Vel_76
Time_Shift_43
Note_On_64_Vel_0
Note_On_76_Vel_0
Time_Shift_4
Note_On_76_Vel_76
Note_On_64_Vel_76
Time_Shift_42
Note_On_63_Vel_0
Note_On_75_Vel_0
Time_Shift_4
Note_On_75_Vel_74
Time_Shift_1
Note_On_63_Vel_75
Time_Shift_41
Note_On_64_Vel_0
Note_On_76_Vel_0
Time_Shift_9
Note_On_64_Vel_74
Time_Shift_1
Note_On_76_Vel_72
Time_Shift_44
Note_On_63_Vel_0
Note_On_75_Vel_0
Time_Shift_2
Note_On_72_Vel_81
Time_Shift_2
Note_On_60_Vel_86
Note_On_63_Vel_80
Note_On_75_Vel_80
Time_Shift_42
Note_On_64_Vel_0
Note_On_76_Vel_0
Time_Shift_4
Note_On_64_Vel_74
Time_Shift_1
Note_On_76_Vel_76
Time_Shift_33
Note_On_55_Vel_0
Note_On_57_Vel_0
Time_Shift_8
Note_On_63_Vel_0
Note_On_75_Vel_0
Time_Shift_4
Note_On_75_Vel_79
Note_On_63_Vel_71
Time_Shift_39
Sustain_Off
Time_Shift_3
Note_On_64_Vel_0
Note_On_76_Vel_0
Time_Shift_7
Note_On_76_Vel_74
Note_On_64_Vel_78
Time_Shift_39
Note_On_75_Vel_0
Time_Shift_8
Note_On_63_Vel_0
Time_Shift_2
Note_On_60_Vel_0
Time_Shift_1
Note_On_75_Vel_79
Time_Shift_1
Note_On_59_Vel_84
Note_On_63_Vel_80
Time_Shift_1
Note_On_71_Vel_79
Time_Shift_2
Note_On_72_Vel_0
Note_On_76_Vel_0
Time_Shift_8
Note_On_64_Vel_0
Time_Shift_179
Note_On_64_Vel_86
Note_On_55_Vel_76
Time_Shift_1
Note_On_76_Vel_75
Time_Shift_8
Note_On_63_Vel_0
Time_Shift_1
Note_On_75_Vel_0
Time_Shift_4
Note_On_59_Vel_0
Time_Shift_180
Note_On_52_Vel_80
Time_Shift_1
Note_On_79_Vel_82
Time_Shift_1
Note_On_67_Vel_86
Time_Shift_13
Note_On_55_Vel_0
Time_Shift_19
Note_On_76_Vel_0
Note_On_79_Vel_0
Time_Shift_156
Note_On_55_Vel_79
Time_Shift_97
Sustain_On
Time_Shift_31
Sustain_Off
Time_Shift_15
Note_On_52_Vel_0
Time_Shift_16
Note_On_64_Vel_0
Time_Shift_28
Note_On_55_Vel_0
Time_Shift_5
Note_On_47_Vel_81
Time_Shift_1
Note_On_56_Vel_80
Time_Shift_35
Note_On_71_Vel_0
Time_Shift_13
Note_On_57_Vel_78
Time_Shift_33
Note_On_56_Vel_0
Time_Shift_11
Note_On_56_Vel_79
Time_Shift_43
Note_On_57_Vel_0
Time_Shift_9
Note_On_57_Vel_78
Time_Shift_37
Note_On_56_Vel_0
Time_Shift_9
Note_On_56_Vel_79
Time_Shift_1
Note_On_48_Vel_82
Time_Shift_21
Note_On_47_Vel_0
Time_Shift_23
Note_On_57_Vel_0
Time_Shift_4
Note_On_57_Vel_78
Time_Shift_34
Note_On_56_Vel_0
Time_Shift_10
Note_On_56_Vel_78
Time_Shift_44
Note_On_57_Vel_0
Time_Shift_5
Note_On_57_Vel_75
Time_Shift_41
Note_On_56_Vel_0
Time_Shift_7
Note_On_50_Vel_85
Time_Shift_3
Note_On_56_Vel_81
Time_Shift_44
Note_On_57_Vel_0
Time_Shift_4
Note_On_57_Vel_78
Time_Shift_42
Note_On_56_Vel_0
Time_Shift_4
Note_On_56_Vel_79
Time_Shift_42
Note_On_57_Vel_0
Time_Shift_6
Note_On_57_Vel_77
Time_Shift_51
Note_On_53_Vel_77
Time_Shift_43
Note_On_57_Vel_0
Time_Shift_4
Note_On_57_Vel_77
Time_Shift_42
Note_On_56_Vel_0
Time_Shift_4
Note_On_56_Vel_77
Time_Shift_42
Note_On_57_Vel_0
Time_Shift_6
Note_On_57_Vel_75
Time_Shift_25
Note_On_48_Vel_0
Time_Shift_15
Note_On_56_Vel_0
Time_Shift_4
Note_On_53_Vel_0
Time_Shift_7
Note_On_52_Vel_77
Note_On_56_Vel_81
Time_Shift_27
Note_On_57_Vel_0
Time_Shift_116
Note_On_67_Vel_0
Time_Shift_23
Note_On_50_Vel_0
Time_Shift_17
Note_On_52_Vel_0
Time_Shift_7
Note_On_48_Vel_80
Note_On_57_Vel_78
Time_Shift_14
Note_On_56_Vel_0
Time_Shift_161
Note_On_48_Vel_0
Time_Shift_19
Note_On_72_Vel_76
Note_On_45_Vel_77
Time_Shift_1
Note_On_60_Vel_86
Time_Shift_193
Note_On_65_Vel_85
Time_Shift_6
Note_On_60_Vel_0
Time_Shift_65
Sustain_On
Time_Shift_76
Sustain_Off
Time_Shift_32
Note_On_57_Vel_0
Time_Shift_11
Note_On_57_Vel_82
Note_On_53_Vel_74
Time_Shift_2
Note_On_45_Vel_0
Time_Shift_6
Note_On_65_Vel_0
Time_Shift_96
Note_On_72_Vel_0
Time_Shift_67
Note_On_53_Vel_0
Time_Shift_3
Note_On_57_Vel_0
Time_Shift_16
Note_On_50_Vel_83
Time_Shift_2
Note_On_71_Vel_79
Note_On_59_Vel_88
Time_Shift_4
Note_On_71_Vel_0
Time_Shift_92
Sustain_On
Time_Shift_47
Sustain_Off
Time_Shift_44
Note_On_59_Vel_0
Time_Shift_4
Note_On_47_Vel_79
Time_Shift_1
Note_On_62_Vel_85
Note_On_74_Vel_76
Time_Shift_73
Sustain_On
Time_Shift_121
Note_On_67_Vel_87
Time_Shift_1
Note_On_79_Vel_81
Time_Shift_47
Note_On_50_Vel_0
Time_Shift_31
Note_On_79_Vel_0
Time_Shift_77
Note_On_47_Vel_0
Note_On_74_Vel_0
Time_Shift_4
Sustain_Off
Time_Shift_22
Note_On_67_Vel_0
Time_Shift_8
Note_On_59_Vel_88
Time_Shift_1
Note_On_71_Vel_80
Time_Shift_1
Note_On_55_Vel_77
Time_Shift_18
Note_On_62_Vel_0
Time_Shift_171
Note_On_59_Vel_0
Time_Shift_1
Note_On_55_Vel_0
Time_Shift_1
Note_On_52_Vel_76
Note_On_60_Vel_87
Note_On_72_Vel_75
Time_Shift_57
Sustain_On
Time_Shift_98
Sustain_Off
Time_Shift_21
Note_On_52_Vel_0
Time_Shift_15
Note_On_48_Vel_80
Note_On_64_Vel_83
Time_Shift_20
Note_On_71_Vel_0
Time_Shift_173
Note_On_64_Vel_0
Time_Shift_2
Note_On_69_Vel_83
Time_Shift_179
Note_On_69_Vel_0
Time_Shift_11
Note_On_64_Vel_81
Note_On_76_Vel_73
Time_Shift_72
Note_On_72_Vel_0
Time_Shift_110
Note_On_48_Vel_0
Time_Shift_3
Note_On_64_Vel_0
Time_Shift_7
Note_On_76_Vel_0
Note_On_50_Vel_84
Time_Shift_3
Note_On_65_Vel_82
Time_Shift_174
Note_On_50_Vel_0
Time_Shift_6
Note_On_65_Vel_0
Time_Shift_8
Note_On_53_Vel_75
Time_Shift_1
Note_On_62_Vel_86
Note_On_74_Vel_73
Time_Shift_172
Note_On_60_Vel_0
Time_Shift_19
Note_On_71_Vel_81
Note_On_59_Vel_86
Time_Shift_4
Note_On_53_Vel_0
Time_Shift_189
Note_On_50_Vel_81
Time_Shift_3
Note_On_65_Vel_84
Time_Shift_4
Note_On_59_Vel_0
Time_Shift_173
Note_On_71_Vel_0
Time_Shift_2
Note_On_50_Vel_0
Time_Shift_3
Note_On_65_Vel_0
Time_Shift_7
Note_On_52_Vel_81
Time_Shift_1
Note_On_67_Vel_87
Time_Shift_25
Note_On_62_Vel_0
Time_Shift_141
Note_On_52_Vel_0
Time_Shift_10
Note_On_67_Vel_0
Time_Shift_14
Note_On_55_Vel_78
Note_On_76_Vel_76
Time_Shift_1
Note_On_64_Vel_88
Time_Shift_26
Note_On_74_Vel_0
Time_Shift_31
Sustain_On
Time_Shift_46
Sustain_Off
Time_Shift_89
Note_On_72_Vel_74
Note_On_60_Vel_88
Time_Shift_5
Note_On_55_Vel_0
Time_Shift_106
Sustain_On
Time_Shift_56
Sustain_Off
Time_Shift_1
Note_On_64_Vel_0
Time_Shift_7
Note_On_60_Vel_0
Time_Shift_17
Note_On_52_Vel_80
Note_On_79_Vel_83
Time_Shift_1
Note_On_67_Vel_88
Time_Shift_2
Note_On_76_Vel_0
Time_Shift_69
Note_On_79_Vel_0
Time_Shift_105
Note_On_67_Vel_0
Time_Shift_6
Note_On_52_Vel_0
Time_Shift_9
Note_On_54_Vel_79
Note_On_69_Vel_84
Time_Shift_169
Note_On_69_Vel_0
Time_Shift_12
Note_On_54_Vel_0
Time_Shift_10
Note_On_57_Vel_81
Time_Shift_2
Note_On_66_Vel_86
Time_Shift_171
Note_On_72_Vel_0
Time_Shift_17
Note_On_57_Vel_0
Time_Shift_2
Note_On_62_Vel_85
Note_On_74_Vel_75
Time_Shift_191
Note_On_57_Vel_82
Time_Shift_151
Note_On_62_Vel_0
Time_Shift_31
Note_On_74_Vel_0
Time_Shift_6
Note_On_57_Vel_0
Time_Shift_4
Note_On_74_Vel_86
Time_Shift_1
Note_On_59_Vel_88
Time_Shift_158
Note_On_66_Vel_0
Time_Shift_30
Note_On_59_Vel_0
Time_Shift_2
Note_On_56_Vel_81
Note_On_71_Vel_86
Time_Shift_7
Note_On_74_Vel_0
Time_Shift_185
Note_On_76_Vel_83
Time_Shift_9
Note_On_71_Vel_0
Time_Shift_28
Sustain_On
Time_Shift_131
Sustain_Off
Time_Shift_15
Note_On_76_Vel_0
Time_Shift_10
Note_On_64_Vel_83
Time_Shift_1
Note_On_76_Vel_74
Time_Shift_182
Note_On_64_Vel_0
Time_Shift_3
Note_On_56_Vel_0
Time_Shift_5
Note_On_76_Vel_0
Time_Shift_1
Note_On_57_Vel_81
Note_On_72_Vel_86
Time_Shift_171
Note_On_72_Vel_0
Time_Shift_5
Note_On_57_Vel_0
Time_Shift_18
Note_On_54_Vel_78
Note_On_69_Vel_85
Time_Shift_149
Sustain_On
Time_Shift_18
Note_On_69_Vel_0
Time_Shift_22
Note_On_74_Vel_85
Time_Shift_156
Sustain_Off
Time_Shift_27
Note_On_74_Vel_0
Time_Shift_11
Note_On_62_Vel_85
Note_On_74_Vel_75
Time_Shift_20
Note_On_54_Vel_0
Time_Shift_170
Note_On_71_Vel_85
Note_On_55_Vel_79
Time_Shift_10
Note_On_74_Vel_0
Time_Shift_96
Sustain_On
Time_Shift_31
Sustain_Off
Time_Shift_58
Note_On_52_Vel_78
Note_On_67_Vel_87
Note_On_79_Vel_83
Time_Shift_8
Note_On_55_Vel_0
Time_Shift_3
Note_On_79_Vel_0
Time_Shift_8
Note_On_71_Vel_0
Time_Shift_69
Note_On_62_Vel_0
Time_Shift_100
Note_On_72_Vel_84
Note_On_67_Vel_0
Time_Shift_176
Note_On_72_Vel_0
Time_Shift_18
Note_On_61_Vel_87
Time_Shift_1
Note_On_73_Vel_77
Time_Shift_188
Note_On_52_Vel_0
Time_Shift_2
Note_On_61_Vel_0
Time_Shift_1
Note_On_70_Vel_92
Note_On_54_Vel_78
Time_Shift_171
Note_On_54_Vel_0
Time_Shift_18
Note_On_51_Vel_80
Time_Shift_2
Note_On_71_Vel_80
Time_Shift_68
Note_On_70_Vel_0
Time_Shift_124
Note_On_57_Vel_81
Time_Shift_29
Note_On_71_Vel_0
Time_Shift_123
Note_On_73_Vel_0
Time_Shift_29
Note_On_57_Vel_0
Time_Shift_12
Note_On_56_Vel_82
Time_Shift_105
Note_On_51_Vel_0
Time_Shift_77
Note_On_56_Vel_0
Time_Shift_9
Note_On_55_Vel_80
Time_Shift_178
Note_On_55_Vel_0
Time_Shift_13
Note_On_54_Vel_80
Time_Shift_177
Note_On_54_Vel_0
Time_Shift_18
Note_On_59_Vel_86
Note_On_71_Vel_77
Time_Shift_186
Note_On_59_Vel_0
Time_Shift_5
Note_On_64_Vel_83
Time_Shift_1
Note_On_76_Vel_73
Time_Shift_20
Note_On_71_Vel_0
Time_Shift_99
Sustain_On
Time_Shift_71
Note_On_55_Vel_78
Time_Shift_183
Sustain_Off
Time_Shift_8
Note_On_55_Vel_0
Time_Shift_3
Note_On_60_Vel_87
Time_Shift_1
Note_On_72_Vel_71
Time_Shift_8
Note_On_64_Vel_0
Time_Shift_41
Note_On_76_Vel_0
Time_Shift_39
Sustain_On
Time_Shift_38
Sustain_Off
Time_Shift_65
Note_On_64_Vel_83
Note_On_76_Vel_73
Time_Shift_179
Note_On_64_Vel_0
Time_Shift_11
Note_On_75_Vel_75
Time_Shift_1
Note_On_63_Vel_81
Time_Shift_97
Note_On_76_Vel_0
Time_Shift_89
Note_On_60_Vel_0
Time_Shift_5
Note_On_57_Vel_78
Time_Shift_14
Note_On_72_Vel_0
Time_Shift_150
Note_On_63_Vel_0
Time_Shift_13
Note_On_57_Vel_0
Time_Shift_17
Note_On_54_Vel_80
Time_Shift_81
Sustain_On
Time_Shift_77
Sustain_Off
Time_Shift_25
Note_On_54_Vel_0
Time_Shift_9
Note_On_59_Vel_85
Time_Shift_73
Sustain_On
Time_Shift_101
Note_On_59_Vel_0
Time_Shift_7
Sustain_Off
Time_Shift_10
Note_On_51_Vel_80
Time_Shift_3
Note_On_66_Vel_83
Time_Shift_43
Note_On_51_Vel_0
Time_Shift_3
Note_On_52_Vel_74
Time_Shift_25
Note_On_75_Vel_0
Sustain_On
Time_Shift_21
Note_On_51_Vel_74
Time_Shift_41
Note_On_52_Vel_0
Time_Shift_4
Note_On_51_Vel_0
Time_Shift_6
Note_On_52_Vel_76
Time_Shift_28
Sustain_Off
Time_Shift_19
Note_On_51_Vel_79
Time_Shift_1
Note_On_67_Vel_83
Time_Shift_40
Note_On_51_Vel_0
Time_Shift_2
Note_On_52_Vel_0
Time_Shift_4
Note_On_52_Vel_80
Time_Shift_19
Note_On_66_Vel_0
Sustain_On
Time_Shift_29
Note_On_51_Vel_75
Time_Shift_40
Note_On_52_Vel_0
Time_Shift_7
Note_On_52_Vel_75
Time_Shift_39
Note_On_51_Vel_0
Sustain_Off
Time_Shift_10
Note_On_51_Vel_78
Time_Shift_2
Note_On_69_Vel_79
Time_Shift_42
Note_On_52_Vel_0
Time_Shift_7
Note_On_52_Vel_77
Time_Shift_8
Note_On_51_Vel_0
Time_Shift_15
Sustain_On
Time_Shift_20
Note_On_51_Vel_74
Time_Shift_42
Note_On_52_Vel_0
Note_On_67_Vel_0
Time_Shift_10
Note_On_52_Vel_74
Time_Shift_21
Note_On_51_Vel_0
Time_Shift_26
Note_On_69_Vel_0
Note_On_72_Vel_86
Note_On_51_Vel_77
Time_Shift_43
Note_On_52_Vel_0
Time_Shift_4
Note_On_52_Vel_79
Time_Shift_3
Note_On_51_Vel_0
Time_Shift_44
Note_On_51_Vel_77
Time_Shift_41
Note_On_52_Vel_0
Time_Shift_10
Note_On_52_Vel_77
Time_Shift_13
Sustain_Off
Time_Shift_23
Note_On_51_Vel_0
Time_Shift_10
Note_On_71_Vel_84
Time_Shift_1
Note_On_51_Vel_78
Note_On_72_Vel_0
Time_Shift_20
Note_On_52_Vel_0
Time_Shift_168
Note_On_51_Vel_0
Time_Shift_5
Note_On_80_Vel_79
Note_On_52_Vel_74
Time_Shift_1
Note_On_68_Vel_84
Time_Shift_1
Note_On_71_Vel_0
Time_Shift_9
Note_On_80_Vel_0
Time_Shift_180
Note_On_56_Vel_88
Note_On_64_Vel_81
Time_Shift_1
Note_On_76_Vel_77
Time_Shift_11
Note_On_52_Vel_0
Time_Shift_167
Note_On_56_Vel_0
Time_Shift_2
Note_On_64_Vel_0
Note_On_68_Vel_0
Time_Shift_11
Note_On_52_Vel_76
Time_Shift_66
Note_On_76_Vel_0
Time_Shift_104
Note_On_52_Vel_0
Time_Shift_21
Note_On_57_Vel_78
Time_Shift_113
Sustain_On
Time_Shift_54
Sustain_Off
Time_Shift_24
Note_On_72_Vel_85
Time_Shift_42
Note_On_57_Vel_0
Time_Shift_18
Sustain_On
Time_Shift_104
Note_On_72_Vel_0
Time_Shift_28
Note_On_77_Vel_84
Time_Shift_137
Sustain_Off
Time_Shift_56
Note_On_57_Vel_80
Time_Shift_178
Note_On_57_Vel_0
Time_Shift_14
Note_On_56_Vel_82
Time_Shift_191
Note_On_74_Vel_85
Time_Shift_37
Note_On_77_Vel_0
Time_Shift_138
Note_On_56_Vel_0
Time_Shift_16
Note_On_71_Vel_85
Time_Shift_191
Note_On_76_Vel_80
Time_Shift_8
Sustain_On
Time_Shift_1
Note_On_71_Vel_0
Time_Shift_30
Note_On_74_Vel_0
Time_Shift_131
Sustain_Off
Time_Shift_26
Note_On_59_Vel_82
Time_Shift_1
Note_On_68_Vel_85
Time_Shift_49
Note_On_69_Vel_78
Time_Shift_16
Sustain_On
Time_Shift_23
Note_On_68_Vel_0
Time_Shift_9
Note_On_68_Vel_83
Time_Shift_37
Note_On_69_Vel_0
Time_Shift_8
Note_On_69_Vel_77
Time_Shift_29
Sustain_Off
Time_Shift_3
Note_On_59_Vel_0
Time_Shift_14
Note_On_68_Vel_0
Time_Shift_4
Note_On_60_Vel_85
Note_On_68_Vel_85
Note_On_72_Vel_76
Time_Shift_11
Note_On_69_Vel_0
Note_On_72_Vel_0
Time_Shift_37
Note_On_69_Vel_74
Time_Shift_1
Sustain_On
Time_Shift_39
Note_On_68_Vel_0
Time_Shift_9
Note_On_68_Vel_81
Time_Shift_37
Note_On_69_Vel_0
Time_Shift_9
Note_On_69_Vel_75
Time_Shift_20
Sustain_Off
Time_Shift_12
Note_On_60_Vel_0
Time_Shift_5
Note_On_68_Vel_0
Time_Shift_10
Note_On_62_Vel_85
Time_Shift_1
Note_On_68_Vel_88
Time_Shift_12
Note_On_69_Vel_0
Time_Shift_36
Note_On_69_Vel_80
Time_Shift_41
Note_On_68_Vel_0
Time_Shift_9
Note_On_68_Vel_81
Time_Shift_37
Note_On_69_Vel_0
Time_Shift_10
Note_On_69_Vel_79
Time_Shift_36
Note_On_76_Vel_0
Time_Shift_8
Note_On_68_Vel_0
Time_Shift_4
Note_On_68_Vel_85
Time_Shift_1
Note_On_65_Vel_83
Time_Shift_41
Note_On_69_Vel_0
Time_Shift_6
Note_On_69_Vel_76
Time_Shift_40
Note_On_68_Vel_0
Sustain_On
Time_Shift_8
Note_On_68_Vel_79
Time_Shift_38
Note_On_69_Vel_0
Time_Shift_9
Note_On_69_Vel_77
Time_Shift_18
Sustain_Off
Time_Shift_17
Note_On_69_Vel_0
Note_On_65_Vel_0
Time_Shift_10
Note_On_68_Vel_0
Time_Shift_3
Note_On_64_Vel_78
Note_On_68_Vel_79
Time_Shift_4
Note_On_62_Vel_0
Time_Shift_179
Note_On_68_Vel_0
Time_Shift_1
Note_On_64_Vel_0
Time_Shift_8
Note_On_72_Vel_78
Time_Shift_1
Note_On_60_Vel_84
Note_On_69_Vel_82
Time_Shift_174
Note_On_60_Vel_0
Time_Shift_3
Note_On_69_Vel_0
Time_Shift_3
Note_On_72_Vel_0
Time_Shift_8
Note_On_72_Vel_84
Note_On_57_Vel_78
Time_Shift_84
Sustain_On
Time_Shift_100
Note_On_72_Vel_0
Time_Shift_10
Note_On_60_Vel_85
Time_Shift_1
Note_On_72_Vel_71
Time_Shift_23
Note_On_57_Vel_0
Time_Shift_1
Sustain_Off
Time_Shift_163
Note_On_60_Vel_0
Time_Shift_4
Note_On_71_Vel_85
Note_On_62_Vel_82
Note_On_74_Vel_76
Time_Shift_5
Note_On_74_Vel_0
Time_Shift_31
Note_On_72_Vel_0
Time_Shift_10
Note_On_72_Vel_79
Time_Shift_36
Note_On_71_Vel_0
Time_Shift_11
Note_On_71_Vel_79
Time_Shift_43
Note_On_72_Vel_0
Time_Shift_5
Note_On_72_Vel_76
Time_Shift_41
Note_On_71_Vel_0
Time_Shift_7
Note_On_64_Vel_79
Time_Shift_1
Note_On_71_Vel_80
Time_Shift_5
Note_On_62_Vel_0
Time_Shift_26
Note_On_71_Vel_0
Time_Shift_15
Note_On_72_Vel_0
Time_Shift_4
Note_On_72_Vel_80
Time_Shift_45
Note_On_71_Vel_79
Time_Shift_43
Note_On_72_Vel_0
Time_Shift_6
Note_On_72_Vel_79
Time_Shift_40
Note_On_71_Vel_0
Time_Shift_9
Note_On_71_Vel_81
Time_Shift_2
Note_On_65_Vel_79
Note_On_64_Vel_0
Time_Shift_27
Note_On_71_Vel_0
Time_Shift_16
Note_On_72_Vel_0
Time_Shift_4
Note_On_72_Vel_79
Time_Shift_46
Note_On_71_Vel_79
Time_Shift_42
Note_On_72_Vel_0
Time_Shift_6
Note_On_72_Vel_78
Time_Shift_40
Note_On_71_Vel_0
Time_Shift_9
Note_On_71_Vel_79
Note_On_69_Vel_80
Time_Shift_6
Note_On_65_Vel_0
Time_Shift_31
Note_On_72_Vel_0
Time_Shift_10
Note_On_72_Vel_80
Time_Shift_44
Note_On_71_Vel_0
Time_Shift_4
Note_On_71_Vel_80
Time_Shift_42
Note_On_72_Vel_0
Time_Shift_5
Note_On_72_Vel_78
Time_Shift_41
Note_On_69_Vel_0
Note_On_71_Vel_0
Time_Shift_1
Note_On_72_Vel_0
Time_Shift_10
Note_On_71_Vel_83
Time_Shift_1
Note_On_67_Vel_83
Time_Shift_175
Note_On_67_Vel_0
Time_Shift_13
Note_On_64_Vel_82
Time_Shift_1
Note_On_72_Vel_84
Time_Shift_6
Note_On_71_Vel_0
Time_Shift_175
Note_On_64_Vel_0
Time_Shift_10
Note_On_72_Vel_0
Time_Shift_1
Note_On_76_Vel_83
Time_Shift_1
Note_On_60_Vel_84
Time_Shift_1
Note_On_72_Vel_72
Time_Shift_27
Sustain_On
Time_Shift_154
Note_On_76_Vel_0
Time_Shift_10
Note_On_64_Vel_79
Time_Shift_1
Note_On_76_Vel_71
Time_Shift_156
Note_On_60_Vel_0
Time_Shift_6
Sustain_Off
Time_Shift_11
Note_On_72_Vel_0
Time_Shift_3
Note_On_64_Vel_0
Time_Shift_5
Note_On_76_Vel_0
Time_Shift_9
Note_On_61_Vel_83
Time_Shift_1
Note_On_76_Vel_81
Note_On_73_Vel_78
Time_Shift_48
Note_On_62_Vel_80
Time_Shift_2
Note_On_74_Vel_72
Time_Shift_1
Sustain_On
Time_Shift_39
Note_On_61_Vel_0
Note_On_73_Vel_0
Time_Shift_6
Note_On_61_Vel_77
Time_Shift_3
Note_On_73_Vel_72
Time_Shift_37
Note_On_62_Vel_0
Note_On_74_Vel_0
Time_Shift_8
Note_On_62_Vel_77
Time_Shift_2
Note_On_74_Vel_73
Time_Shift_36
Note_On_61_Vel_0
Time_Shift_9
Note_On_77_Vel_84
Time_Shift_2
Note_On_61_Vel_75
Time_Shift_43
Note_On_62_Vel_0
Note_On_74_Vel_0
Time_Shift_4
Note_On_74_Vel_75
Time_Shift_1
Note_On_62_Vel_78
Time_Shift_41
Note_On_61_Vel_0
Note_On_73_Vel_0
Time_Shift_6
Note_On_73_Vel_74
Time_Shift_1
Note_On_61_Vel_76
Time_Shift_39
Note_On_62_Vel_0
Note_On_74_Vel_0
Time_Shift_8
Note_On_62_Vel_78
Time_Shift_3
Note_On_74_Vel_72
Time_Shift_35
Note_On_61_Vel_0
Note_On_73_Vel_0
Time_Shift_6
Note_On_79_Vel_83
Time_Shift_3
Note_On_61_Vel_77
Time_Shift_1
Note_On_73_Vel_75
Time_Shift_44
Note_On_62_Vel_0
Note_On_74_Vel_0
Time_Shift_4
Note_On_62_Vel_76
Time_Shift_2
Note_On_74_Vel_70
Time_Shift_40
Note_On_61_Vel_0
Note_On_73_Vel_0
Time_Shift_5
Note_On_73_Vel_73
Time_Shift_1
Note_On_61_Vel_75
Time_Shift_40
Note_On_62_Vel_0
Time_Shift_7
Note_On_62_Vel_76
Time_Shift_39
Note_On_61_Vel_0
Time_Shift_8
Note_On_82_Vel_88
Time_Shift_2
Note_On_61_Vel_77
Time_Shift_44
Note_On_62_Vel_0
Note_On_74_Vel_0
Time_Shift_4
Note_On_74_Vel_72
Note_On_62_Vel_78
Time_Shift_42
Note_On_61_Vel_0
Note_On_73_Vel_0
Time_Shift_5
Note_On_73_Vel_69
Time_Shift_1
Note_On_61_Vel_75
Time_Shift_40
Note_On_62_Vel_0
Time_Shift_8
Note_On_62_Vel_75
Time_Shift_26
Sustain_Off
Time_Shift_12
Note_On_61_Vel_0
Note_On_73_Vel_0
Time_Shift_9
Note_On_73_Vel_74
Time_Shift_1
Note_On_81_Vel_85
Time_Shift_1
Note_On_61_Vel_78
Note_On_74_Vel_0
Time_Shift_12
Note_On_62_Vel_0
Time_Shift_38
Sustain_On
Time_Shift_108
Note_On_76_Vel_0
Time_Shift_23
Note_On_77_Vel_0
Time_Shift_8
Note_On_82_Vel_0
Time_Shift_1
Note_On_81_Vel_0
Time_Shift_2
Note_On_62_Vel_83
Note_On_77_Vel_84
Note_On_74_Vel_72
Time_Shift_4
Sustain_Off
Time_Shift_23
Note_On_73_Vel_0
Time_Shift_8
Note_On_61_Vel_0
Time_Shift_92
Sustain_On
Time_Shift_46
Note_On_79_Vel_0
Time_Shift_8
Note_On_74_Vel_0
Sustain_Off
Time_Shift_11
Note_On_74_Vel_86
Time_Shift_1
Note_On_65_Vel_82
Time_Shift_1
Note_On_62_Vel_0
Time_Shift_2
Note_On_77_Vel_0
Time_Shift_77
Sustain_On
Time_Shift_108
Note_On_53_Vel_74
Time_Shift_115
Note_On_65_Vel_0
Time_Shift_55
Note_On_53_Vel_0
Time_Shift_4
Sustain_Off
Time_Shift_2
Note_On_74_Vel_0
Time_Shift_18
Note_On_59_Vel_84
Time_Shift_1
Note_On_71_Vel_77
Time_Shift_4
Note_On_71_Vel_0
Time_Shift_36
Note_On_59_Vel_0
Time_Shift_8
Note_On_60_Vel_84
Time_Shift_1
Note_On_72_Vel_70
Time_Shift_40
Sustain_On
Time_Shift_7
Note_On_59_Vel_77
Time_Shift_39
Note_On_60_Vel_0
Note_On_72_Vel_0
Time_Shift_10
Note_On_60_Vel_80
Note_On_72_Vel_71
Time_Shift_36
Note_On_59_Vel_0
Time_Shift_10
Note_On_75_Vel_83
Time_Shift_1
Note_On_59_Vel_82
Time_Shift_43
Note_On_60_Vel_0
Time_Shift_4
Note_On_60_Vel_81
Time_Shift_42
Note_On_59_Vel_0
Time_Shift_5
Note_On_59_Vel_77
Time_Shift_41
Note_On_60_Vel_0
Time_Shift_9
Note_On_60_Vel_82
Time_Shift_27
Note_On_60_Vel_0
Time_Shift_10
Note_On_59_Vel_0
Time_Shift_7
Note_On_77_Vel_81
Time_Shift_3
Note_On_59_Vel_81
Time_Shift_36
Note_On_72_Vel_0
Time_Shift_10
Note_On_72_Vel_70
Time_Shift_2
Note_On_60_Vel_81
Time_Shift_11
Note_On_75_Vel_0
Time_Shift_31
Note_On_59_Vel_0
Time_Shift_6
Note_On_59_Vel_79
Time_Shift_40
Note_On_60_Vel_0
Time_Shift_10
Note_On_60_Vel_82
Time_Shift_36
Note_On_59_Vel_0
Time_Shift_10
Note_On_80_Vel_87
Time_Shift_1
Note_On_59_Vel_79
Time_Shift_43
Note_On_60_Vel_0
Time_Shift_5
Note_On_60_Vel_82
Time_Shift_41
Note_On_59_Vel_0
Time_Shift_9
Note_On_59_Vel_79
Time_Shift_37
Note_On_60_Vel_0
Note_On_72_Vel_0
Time_Shift_9
Note_On_72_Vel_73
Note_On_60_Vel_84
Time_Shift_45
Note_On_59_Vel_0
Time_Shift_3
Note_On_79_Vel_85
Time_Shift_2
Note_On_59_Vel_81
Note_On_60_Vel_0
Time_Shift_25
Note_On_77_Vel_0
Time_Shift_23
Sustain_Off
Time_Shift_54
Note_On_72_Vel_0
Time_Shift_77
Note_On_80_Vel_0
Time_Shift_3
Note_On_59_Vel_0
Time_Shift_8
Note_On_72_Vel_75
Note_On_60_Vel_86
Note_On_75_Vel_85
Time_Shift_181
Note_On_72_Vel_0
Time_Shift_11
Note_On_60_Vel_0
Note_On_72_Vel_86
Note_On_63_Vel_79
Time_Shift_96
Note_On_79_Vel_0
Time_Shift_88
Note_On_63_Vel_0
Time_Shift_6
Note_On_51_Vel_80
Time_Shift_114
Note_On_75_Vel_0
Time_Shift_81
Note_On_53_Vel_77
Note_On_69_Vel_83
Time_Shift_2
Note_On_51_Vel_0
Time_Shift_183
Note_On_53_Vel_0
Note_On_69_Vel_0
Time_Shift_4
Note_On_55_Vel_80
Time_Shift_1
Note_On_70_Vel_88
Time_Shift_97
Note_On_72_Vel_0
Time_Shift_87
Note_On_55_Vel_0
Time_Shift_8
Note_On_75_Vel_87
Note_On_60_Vel_87
Time_Shift_190
Note_On_75_Vel_0
Time_Shift_3
Note_On_60_Vel_0
Time_Shift_1
Note_On_63_Vel_80
Time_Shift_1
Note_On_75_Vel_75
Note_On_79_Vel_84
Note_On_67_Vel_83
Time_Shift_179
Sustain_On
Time_Shift_10
Note_On_51_Vel_80
Time_Shift_179
Sustain_Off
Time_Shift_15
Note_On_53_Vel_77
Note_On_69_Vel_84
Time_Shift_2
Note_On_51_Vel_0
Time_Shift_3
Note_On_67_Vel_0
Time_Shift_1
Note_On_63_Vel_0
Time_Shift_13
Note_On_70_Vel_0
Time_Shift_30
Note_On_75_Vel_0
Time_Shift_16
Note_On_79_Vel_0
Time_Shift_120
Note_On_53_Vel_0
Time_Shift_5
Note_On_74_Vel_86
Time_Shift_1
Note_On_58_Vel_88
Time_Shift_2
Note_On_69_Vel_0
Time_Shift_87
Sustain_On
Time_Shift_92
Note_On_58_Vel_0
Sustain_Off
Time_Shift_8
Note_On_74_Vel_0
Time_Shift_5
Note_On_62_Vel_87
Note_On_65_Vel_82
Time_Shift_1
Note_On_74_Vel_80
Time_Shift_86
Sustain_On
Time_Shift_77
Sustain_Off
Time_Shift_13
Note_On_65_Vel_0
Time_Shift_13
Note_On_76_Vel_73
Note_On_55_Vel_80
Note_On_64_Vel_86
Time_Shift_1
Note_On_62_Vel_0
Time_Shift_57
Sustain_On
Time_Shift_137
Note_On_79_Vel_78
Note_On_67_Vel_87
Time_Shift_178
Note_On_64_Vel_0
Time_Shift_3
Note_On_67_Vel_0
Time_Shift_4
Note_On_55_Vel_0
Time_Shift_1
Note_On_74_Vel_0
Sustain_Off
Time_Shift_4
Note_On_53_Vel_77
Time_Shift_1
Note_On_69_Vel_84
Time_Shift_186
Note_On_53_Vel_0
Time_Shift_3
Note_On_73_Vel_85
Time_Shift_1
Note_On_52_Vel_78
Time_Shift_143
Note_On_76_Vel_0
Time_Shift_40
Note_On_52_Vel_0
Time_Shift_10
Note_On_57_Vel_80
Time_Shift_2
Note_On_65_Vel_83
Time_Shift_47
Note_On_69_Vel_0
Time_Shift_39
Note_On_79_Vel_0
Time_Shift_92
Note_On_73_Vel_0
Time_Shift_7
Note_On_45_Vel_81
Time_Shift_2
Note_On_73_Vel_86
Time_Shift_16
Note_On_65_Vel_0
Time_Shift_167
Note_On_45_Vel_0
Time_Shift_11
Note_On_64_Vel_86
Note_On_55_Vel_77
Time_Shift_4
Note_On_57_Vel_0
Time_Shift_39
Sustain_On
Time_Shift_123
Sustain_Off
Time_Shift_15
Note_On_73_Vel_0
Time_Shift_7
Note_On_45_Vel_81
Time_Shift_1
Note_On_64_Vel_0
Time_Shift_2
Note_On_73_Vel_84
Note_On_55_Vel_0
Time_Shift_186
Note_On_45_Vel_0
Time_Shift_6
Note_On_50_Vel_82
Time_Shift_1
Note_On_74_Vel_85
Time_Shift_81
Note_On_73_Vel_0
Time_Shift_8
Sustain_On
Time_Shift_107
Note_On_65_Vel_85
Time_Shift_187
Note_On_70_Vel_89
Note_On_65_Vel_0
Time_Shift_167
Sustain_Off
Time_Shift_15
Note_On_50_Vel_0
Time_Shift_10
Note_On_50_Vel_83
Time_Shift_186
Note_On_50_Vel_0
Time_Shift_7
Note_On_49_Vel_80
Time_Shift_12
Note_On_74_Vel_0
Time_Shift_169
Sustain_On
Time_Shift_13
Note_On_67_Vel_86
Time_Shift_10
Note_On_70_Vel_0
Time_Shift_46
Sustain_Off
Time_Shift_102
Note_On_49_Vel_0
Time_Shift_19
Note_On_67_Vel_0
Time_Shift_13
Note_On_76_Vel_75
Note_On_64_Vel_85
Time_Shift_58
Sustain_On
Time_Shift_134
Note_On_64_Vel_0
Time_Shift_1
Note_On_69_Vel_80
Time_Shift_7
Sustain_Off
Time_Shift_27
Note_On_76_Vel_0
Time_Shift_61
Sustain_On
Time_Shift_81
Note_On_69_Vel_0
Time_Shift_13
Note_On_52_Vel_78
Time_Shift_1
Note_On_61_Vel_85
Note_On_73_Vel_78
Time_Shift_49
Note_On_74_Vel_75
Time_Shift_1
Note_On_62_Vel_83
Sustain_Off
Time_Shift_9
Sustain_On
Time_Shift_31
Note_On_52_Vel_0
Note_On_61_Vel_0
Time_Shift_7
Note_On_61_Vel_78
Time_Shift_39
Note_On_62_Vel_0
Note_On_74_Vel_0
Time_Shift_9
Note_On_62_Vel_78
Time_Shift_2
Note_On_74_Vel_72
Time_Shift_35
Note_On_61_Vel_0
Time_Shift_10
Note_On_61_Vel_79
Time_Shift_1
Note_On_53_Vel_76
Time_Shift_27
Note_On_73_Vel_0
Time_Shift_16
Note_On_62_Vel_0
Time_Shift_5
Note_On_62_Vel_77
Time_Shift_2
Note_On_61_Vel_0
Time_Shift_8
Note_On_74_Vel_0
Time_Shift_35
Note_On_61_Vel_76
Time_Shift_1
Note_On_73_Vel_74
Time_Shift_41
Note_On_62_Vel_0
Time_Shift_9
Note_On_62_Vel_75
Time_Shift_1
Note_On_74_Vel_73
Time_Shift_28
Note_On_53_Vel_0
Time_Shift_8
Note_On_61_Vel_0
Time_Shift_11
Note_On_55_Vel_78
Note_On_61_Vel_80
Time_Shift_12
Note_On_73_Vel_0
Time_Shift_31
Note_On_62_Vel_0
Time_Shift_5
Note_On_62_Vel_79
Time_Shift_41
Note_On_61_Vel_0
Time_Shift_4
Note_On_61_Vel_75
Time_Shift_42
Note_On_62_Vel_0
Time_Shift_8
Note_On_62_Vel_78
Time_Shift_38
Note_On_61_Vel_0
Time_Shift_8
Note_On_70_Vel_83
Time_Shift_3
Note_On_61_Vel_78
Note_On_58_Vel_84
Time_Shift_4
Note_On_70_Vel_0
Time_Shift_3
Note_On_55_Vel_0
Time_Shift_36
Note_On_62_Vel_0
Time_Shift_5
Note_On_62_Vel_78
Time_Shift_41
Note_On_61_Vel_0
Time_Shift_6
Note_On_73_Vel_76
Time_Shift_1
Note_On_61_Vel_76
Time_Shift_39
Note_On_62_Vel_0
Time_Shift_8
Note_On_62_Vel_77
Time_Shift_36
Note_On_62_Vel_0
Time_Shift_2
Note_On_61_Vel_0
Note_On_73_Vel_0
Note_On_74_Vel_0
Time_Shift_3
Note_On_58_Vel_0
Time_Shift_5
Sustain_Off
Time_Shift_2
Note_On_73_Vel_78
Time_Shift_1
Note_On_61_Vel_86
Note_On_57_Vel_78
Time_Shift_184
Note_On_61_Vel_0
Note_On_57_Vel_0
Time_Shift_2
Note_On_73_Vel_0
Time_Shift_6
Note_On_53_Vel_76
Time_Shift_1
Note_On_62_Vel_85
Time_Shift_111
Sustain_On
Time_Shift_61
Sustain_Off
Time_Shift_20
Note_On_50_Vel_81
Time_Shift_2
Note_On_65_Vel_84
Time_Shift_10
Note_On_53_Vel_0
Time_Shift_177
Note_On_57_Vel_81
Time_Shift_29
Sustain_On
Time_Shift_116
Note_On_62_Vel_0
Time_Shift_15
Note_On_65_Vel_0
Time_Shift_5
Sustain_Off
Time_Shift_4
Note_On_57_Vel_0
Time_Shift_22
Note_On_47_Vel_79
Time_Shift_2
Note_On_56_Vel_81
Time_Shift_5
Note_On_50_Vel_0
Time_Shift_45
Note_On_57_Vel_78
Time_Shift_40
Note_On_56_Vel_0
Time_Shift_7
Note_On_56_Vel_80
Time_Shift_39
Note_On_57_Vel_0
Time_Shift_6
Note_On_57_Vel_77
Time_Shift_50
Note_On_48_Vel_84
Time_Shift_13
Note_On_47_Vel_0
Time_Shift_8
Sustain_On
Time_Shift_23
Note_On_57_Vel_0
Time_Shift_5
Note_On_57_Vel_79
Time_Shift_41
Note_On_56_Vel_0
Time_Shift_4
Note_On_56_Vel_82
Time_Shift_42
Note_On_57_Vel_0
Time_Shift_7
Note_On_57_Vel_76
Time_Shift_35
Sustain_Off
Time_Shift_4
Note_On_56_Vel_0
Time_Shift_8
Note_On_50_Vel_85
Time_Shift_2
Note_On_56_Vel_81
Time_Shift_44
Note_On_57_Vel_0
Time_Shift_4
Note_On_57_Vel_79
Time_Shift_42
Note_On_56_Vel_0
Time_Shift_5
Note_On_56_Vel_80
Time_Shift_41
Note_On_57_Vel_0
Time_Shift_6
Note_On_57_Vel_78
Time_Shift_40
Note_On_56_Vel_0
Time_Shift_8
Note_On_56_Vel_77
Time_Shift_3
Note_On_53_Vel_78
Time_Shift_43
Note_On_57_Vel_0
Time_Shift_4
Note_On_57_Vel_77
Time_Shift_11
Sustain_On
Time_Shift_31
Note_On_56_Vel_0
Time_Shift_4
Note_On_56_Vel_75
Time_Shift_42
Note_On_57_Vel_0
Time_Shift_6
Note_On_57_Vel_76
Time_Shift_25
Note_On_48_Vel_0
Time_Shift_2
Sustain_Off
Time_Shift_13
Note_On_56_Vel_0
Time_Shift_3
Note_On_50_Vel_0
Time_Shift_1
Note_On_57_Vel_0
Time_Shift_1
Note_On_53_Vel_0
Time_Shift_6
Note_On_52_Vel_79
Note_On_56_Vel_82
Time_Shift_73
Sustain_On
Time_Shift_96
Sustain_Off
Time_Shift_8
Note_On_52_Vel_0
Time_Shift_9
Note_On_56_Vel_0
Time_Shift_4
Note_On_57_Vel_78
Note_On_48_Vel_81
Time_Shift_177
Note_On_48_Vel_0
Time_Shift_17
Note_On_45_Vel_79
Note_On_72_Vel_76
Note_On_60_Vel_88
Time_Shift_89
Sustain_On
Time_Shift_105
Note_On_60_Vel_0
Time_Shift_1
Note_On_65_Vel_86
Time_Shift_161
Sustain_Off
Time_Shift_2
Note_On_57_Vel_0
Time_Shift_12
Note_On_45_Vel_0
Time_Shift_5
Note_On_65_Vel_0
Time_Shift_7
Note_On_50_Vel_83
Time_Shift_1
Note_On_59_Vel_87
Time_Shift_1
Note_On_71_Vel_80
Time_Shift_173
Note_On_72_Vel_0
Time_Shift_12
Note_On_59_Vel_0
Time_Shift_8
Note_On_62_Vel_84
Note_On_74_Vel_73
Time_Shift_42
Sustain_On
Time_Shift_110
Sustain_Off
Time_Shift_36
Note_On_50_Vel_0
Time_Shift_2
Note_On_48_Vel_82
Time_Shift_1
Note_On_64_Vel_85
Note_On_76_Vel_74
Note_On_62_Vel_0
Time_Shift_175
Note_On_64_Vel_0
Time_Shift_5
Note_On_48_Vel_0
Time_Shift_11
Note_On_47_Vel_80
Time_Shift_2
Note_On_68_Vel_87
Time_Shift_2
Note_On_80_Vel_78
Time_Shift_9
Note_On_76_Vel_0
Note_On_80_Vel_0
Time_Shift_15
Note_On_74_Vel_0
Time_Shift_39
Sustain_On
Time_Shift_115
Note_On_47_Vel_0
Note_On_71_Vel_0
Time_Shift_8
Note_On_68_Vel_0
Time_Shift_2
Note_On_47_Vel_81
Time_Shift_2
Note_On_68_Vel_84
Time_Shift_1
Note_On_80_Vel_78
Time_Shift_5
Sustain_Off
Time_Shift_5
Note_On_80_Vel_0
Time_Shift_171
Note_On_68_Vel_0
Time_Shift_9
Note_On_76_Vel_78
Note_On_52_Vel_77
Time_Shift_2
Note_On_64_Vel_85
Time_Shift_2
Note_On_47_Vel_0
Time_Shift_167
Note_On_52_Vel_0
Time_Shift_20
Note_On_48_Vel_80
Time_Shift_1
Note_On_69_Vel_82
Time_Shift_183
Note_On_48_Vel_0
Time_Shift_6
Note_On_57_Vel_81
Time_Shift_3
Note_On_52_Vel_78
Time_Shift_4
Note_On_64_Vel_0
Time_Shift_175
Note_On_52_Vel_0
Time_Shift_5
Note_On_57_Vel_0
Time_Shift_8
Note_On_62_Vel_86
Time_Shift_1
Note_On_53_Vel_77
Time_Shift_1
Note_On_74_Vel_74
Time_Shift_2
Note_On_76_Vel_0
Time_Shift_23
Note_On_69_Vel_0
Time_Shift_69
Sustain_On
Time_Shift_99
Note_On_65_Vel_86
Time_Shift_50
Note_On_53_Vel_0
Time_Shift_100
Sustain_Off
Time_Shift_24
Note_On_65_Vel_0
Time_Shift_4
Note_On_62_Vel_0
Time_Shift_12
Note_On_52_Vel_79
Note_On_79_Vel_83
Note_On_67_Vel_87
Time_Shift_11
Note_On_74_Vel_0
Time_Shift_163
Note_On_67_Vel_0
Time_Shift_1
Note_On_52_Vel_0
Time_Shift_12
Note_On_51_Vel_82
Time_Shift_2
Note_On_71_Vel_82
Time_Shift_14
Sustain_On
Time_Shift_169
Note_On_51_Vel_0
Note_On_71_Vel_0
Time_Shift_7
Note_On_51_Vel_78
Time_Shift_1
Note_On_71_Vel_77
Time_Shift_159
Sustain_Off
Time_Shift_28
Note_On_51_Vel_0
Time_Shift_5
Note_On_79_Vel_0
Note_On_71_Vel_0
Time_Shift_4
Note_On_55_Vel_81
Note_On_79_Vel_80
Note_On_67_Vel_86
Time_Shift_188
Note_On_73_Vel_86
Time_Shift_2
Note_On_55_Vel_0
Note_On_52_Vel_79
Time_Shift_59
Note_On_67_Vel_0
Time_Shift_15
Sustain_On
Time_Shift_77
Note_On_73_Vel_0
Time_Shift_12
Sustain_Off
Time_Shift_29
Note_On_64_Vel_84
Time_Shift_1
Note_On_52_Vel_0
Note_On_61_Vel_85
Note_On_76_Vel_82
Note_On_73_Vel_82
Time_Shift_96
Note_On_79_Vel_0
Time_Shift_88
Note_On_64_Vel_0
Time_Shift_7
Note_On_76_Vel_0
Time_Shift_4
Note_On_81_Vel_75
Note_On_69_Vel_80
Time_Shift_63
Sustain_On
Time_Shift_125
Note_On_53_Vel_75
Time_Shift_1
Sustain_Off
Time_Shift_3
Note_On_69_Vel_0
Time_Shift_4
Note_On_61_Vel_0
Time_Shift_105
Note_On_81_Vel_0
Time_Shift_80
Note_On_62_Vel_84
Note_On_74_Vel_76
Time_Shift_1
Note_On_53_Vel_0
Time_Shift_193
Note_On_81_Vel_75
Note_On_69_Vel_79
Time_Shift_148
Note_On_73_Vel_0
Time_Shift_8
Note_On_81_Vel_0
Time_Shift_26
Note_On_69_Vel_0
Time_Shift_7
Note_On_70_Vel_88
Time_Shift_193
Note_On_58_Vel_84
Time_Shift_1
Note_On_62_Vel_0
Time_Shift_174
Note_On_58_Vel_0
Time_Shift_15
Note_On_55_Vel_80
Time_Shift_194
Note_On_75_Vel_74
Note_On_63_Vel_80
Time_Shift_5
Note_On_55_Vel_0
Time_Shift_38
Note_On_74_Vel_0
Time_Shift_107
Note_On_70_Vel_0
Time_Shift_40
Note_On_70_Vel_88
Time_Shift_191
Note_On_55_Vel_76
Time_Shift_3
Note_On_63_Vel_0
Time_Shift_181
Note_On_75_Vel_0
Time_Shift_10
Note_On_75_Vel_75
Time_Shift_1
Note_On_63_Vel_77
Time_Shift_2
Note_On_55_Vel_0
Time_Shift_64
Note_On_70_Vel_0
Time_Shift_124
Note_On_70_Vel_88
Time_Shift_177
Note_On_70_Vel_0
Time_Shift_6
Note_On_63_Vel_0
Note_On_75_Vel_0
Time_Shift_10
Note_On_75_Vel_75
Time_Shift_1
Note_On_71_Vel_81
Note_On_63_Vel_79
Time_Shift_192
Note_On_59_Vel_83
Time_Shift_2
Note_On_63_Vel_0
Time_Shift_187
Note_On_59_Vel_0
Time_Shift_1
Note_On_56_Vel_81
Time_Shift_194
Note_On_64_Vel_81
Note_On_76_Vel_75
Time_Shift_1
Note_On_56_Vel_0
Time_Shift_19
Note_On_75_Vel_0
Time_Shift_7
Note_On_71_Vel_0
Time_Shift_150
Note_On_64_Vel_0
Time_Shift_13
Note_On_57_Vel_77
Time_Shift_192
Note_On_72_Vel_84
Time_Shift_14
Sustain_On
Time_Shift_123
Sustain_Off
Time_Shift_37
Note_On_72_Vel_0
Time_Shift_23
Note_On_66_Vel_85
Time_Shift_2
Note_On_78_Vel_74
Time_Shift_7
Note_On_78_Vel_0
Time_Shift_61
Sustain_On
Time_Shift_108
Note_On_57_Vel_0
Time_Shift_10
Note_On_57_Vel_78
Time_Shift_128
Note_On_76_Vel_0
Time_Shift_36
Sustain_Off
Time_Shift_21
Note_On_57_Vel_0
Time_Shift_9
Note_On_58_Vel_86
Time_Shift_190
Note_On_70_Vel_88
Time_Shift_74
Sustain_On
Time_Shift_77
Note_On_66_Vel_0
Time_Shift_18
Sustain_Off
Time_Shift_2
Note_On_58_Vel_0
Time_Shift_20
Note_On_74_Vel_82
Time_Shift_29
Sustain_On
Time_Shift_123
Sustain_Off
Time_Shift_44
Note_On_67_Vel_84
Time_Shift_10
Note_On_70_Vel_0
Time_Shift_180
Note_On_58_Vel_87
Time_Shift_173
Note_On_74_Vel_0
Time_Shift_16
Sustain_On
Time_Shift_1
Note_On_75_Vel_84
Time_Shift_1
Note_On_67_Vel_0
Time_Shift_196
Note_On_67_Vel_84
Time_Shift_13
Note_On_75_Vel_0
Time_Shift_173
Note_On_58_Vel_0
Time_Shift_3
Note_On_58_Vel_83
Time_Shift_35
Sustain_Off
Time_Shift_149
Note_On_58_Vel_0
Time_Shift_9
Note_On_59_Vel_84
Time_Shift_189
Note_On_74_Vel_81
Note_On_67_Vel_0
Time_Shift_146
Note_On_59_Vel_0
Time_Shift_46
Note_On_77_Vel_81
Time_Shift_195
Note_On_80_Vel_76
Time_Shift_2
Note_On_68_Vel_83
Time_Shift_9
Note_On_80_Vel_0
Time_Shift_100
Sustain_On
Time_Shift_76
Note_On_44_Vel_78
Note_On_71_Vel_83
Time_Shift_1
Sustain_Off
Time_Shift_7
Sustain_On
Time_Shift_44
Note_On_45_Vel_79
Time_Shift_41
Note_On_44_Vel_0
Time_Shift_6
Note_On_44_Vel_75
Time_Shift_40
Note_On_45_Vel_0
Time_Shift_10
Note_On_45_Vel_75
Time_Shift_36
Note_On_44_Vel_0
Time_Shift_11
Note_On_73_Vel_84
Note_On_44_Vel_77
Time_Shift_43
Note_On_45_Vel_0
Time_Shift_8
Note_On_45_Vel_75
Time_Shift_15
Note_On_74_Vel_0
Time_Shift_23
Note_On_44_Vel_0
Time_Shift_6
Note_On_44_Vel_74
Time_Shift_40
Note_On_45_Vel_0
Time_Shift_10
Note_On_45_Vel_73
Time_Shift_44
Note_On_44_Vel_0
Time_Shift_2
Note_On_74_Vel_84
Time_Shift_2
Note_On_44_Vel_75
Time_Shift_42
Note_On_45_Vel_0
Time_Shift_6
Note_On_45_Vel_76
Time_Shift_40
Note_On_44_Vel_0
Time_Shift_8
Note_On_44_Vel_75
Time_Shift_38
Note_On_45_Vel_0
Time_Shift_8
Note_On_45_Vel_76
Time_Shift_38
Note_On_44_Vel_0
Note_On_77_Vel_0
Time_Shift_10
Note_On_77_Vel_82
Note_On_44_Vel_77
Time_Shift_44
Note_On_45_Vel_0
Time_Shift_5
Note_On_45_Vel_76
Time_Shift_41
Note_On_44_Vel_0
Time_Shift_4
Note_On_44_Vel_74
Time_Shift_42
Note_On_45_Vel_0
Time_Shift_8
Note_On_45_Vel_74
Time_Shift_38
Note_On_44_Vel_0
Time_Shift_9
Note_On_44_Vel_78
Time_Shift_1
Sustain_Off
Time_Shift_1
Note_On_45_Vel_0
Time_Shift_8
Note_On_74_Vel_0
Time_Shift_12
Note_On_71_Vel_0
Time_Shift_153
Note_On_73_Vel_0
Time_Shift_18
Note_On_45_Vel_77
Note_On_72_Vel_85
Time_Shift_8
Note_On_44_Vel_0
Time_Shift_20
Note_On_68_Vel_0
Time_Shift_39
Note_On_77_Vel_0
Time_Shift_103
Note_On_45_Vel_0
Time_Shift_24
Note_On_52_Vel_80
Note_On_79_Vel_83
Time_Shift_1
Note_On_67_Vel_86
Time_Shift_117
Note_On_72_Vel_0
Time_Shift_72
Note_On_64_Vel_82
Time_Shift_1
Note_On_76_Vel_73
Time_Shift_20
Note_On_52_Vel_0
Sustain_On
Time_Shift_156
Sustain_Off
Time_Shift_5
Note_On_79_Vel_0
Time_Shift_4
Note_On_67_Vel_0
Time_Shift_1
Note_On_64_Vel_0
Time_Shift_1
Note_On_76_Vel_0
Time_Shift_5
Note_On_62_Vel_88
Time_Shift_2
Note_On_66_Vel_86
Time_Shift_47
Note_On_67_Vel_85
Time_Shift_32
Sustain_On
Time_Shift_8
Note_On_66_Vel_0
Time_Shift_9
Note_On_66_Vel_85
Time_Shift_37
Note_On_67_Vel_0
Time_Shift_11
Note_On_67_Vel_85
Time_Shift_6
Sustain_Off
Time_Shift_29
Note_On_66_Vel_0
Time_Shift_11
Note_On_57_Vel_82
Note_On_66_Vel_84
Time_Shift_20
Sustain_On
Time_Shift_15
Note_On_62_Vel_0
Time_Shift_8
Note_On_67_Vel_0
Time_Shift_6
Note_On_67_Vel_80
Time_Shift_40
Note_On_66_Vel_0
Time_Shift_9
Note_On_66_Vel_85
Time_Shift_37
Note_On_67_Vel_0
Time_Shift_10
Note_On_67_Vel_85
Time_Shift_36
Note_On_66_Vel_0
Time_Shift_9
Note_On_50_Vel_82
Time_Shift_2
Note_On_66_Vel_80
Time_Shift_15
Sustain_Off
Time_Shift_5
Sustain_On
Time_Shift_23
Note_On_67_Vel_0
Time_Shift_6
Note_On_67_Vel_83
Time_Shift_40
Note_On_66_Vel_0
Time_Shift_9
Note_On_66_Vel_85
Time_Shift_37
Note_On_67_Vel_0
Time_Shift_11
Note_On_67_Vel_84
Time_Shift_43
Note_On_66_Vel_0
Time_Shift_5
Note_On_66_Vel_80
Time_Shift_41
Note_On_67_Vel_0
Time_Shift_6
Note_On_67_Vel_84
Time_Shift_40
Note_On_66_Vel_0
Time_Shift_9
Note_On_66_Vel_81
Time_Shift_37
Note_On_67_Vel_0
Time_Shift_10
Note_On_67_Vel_82
Time_Shift_36
Note_On_66_Vel_0
Time_Shift_5
Note_On_51_Vel_83
Time_Shift_6
Note_On_66_Vel_83
Time_Shift_2
Sustain_Off
Time_Shift_8
Note_On_67_Vel_0
Time_Shift_11
Note_On_57_Vel_0
Time_Shift_2
Note_On_50_Vel_0
Time_Shift_23
Note_On_52_Vel_77
Time_Shift_12
Sustain_On
Time_Shift_31
Note_On_51_Vel_0
Time_Shift_4
Note_On_51_Vel_76
Time_Shift_42
Note_On_52_Vel_0
Time_Shift_4
Note_On_52_Vel_76
Time_Shift_2
Sustain_Off
Time_Shift_40
Note_On_51_Vel_0
Time_Shift_6
Note_On_51_Vel_79
Time_Shift_2
Sustain_On
Time_Shift_3
Note_On_69_Vel_79
Time_Shift_27
Note_On_66_Vel_0
Time_Shift_16
Note_On_52_Vel_0
Time_Shift_5
Note_On_52_Vel_79
Time_Shift_41
Note_On_51_Vel_0
Time_Shift_4
Note_On_51_Vel_76
Time_Shift_42
Note_On_52_Vel_0
Time_Shift_7
Note_On_52_Vel_75
Time_Shift_39
Note_On_51_Vel_0
Time_Shift_9
Note_On_71_Vel_83
Time_Shift_1
Note_On_51_Vel_76
Time_Shift_3
Sustain_Off
Time_Shift_10
Sustain_On
Time_Shift_31
Note_On_52_Vel_0
Time_Shift_4
Note_On_52_Vel_80
Time_Shift_42
Note_On_51_Vel_0
Time_Shift_4
Note_On_51_Vel_78
Time_Shift_42
Note_On_52_Vel_0
Time_Shift_6
Note_On_52_Vel_79
Time_Shift_40
Note_On_51_Vel_0
Time_Shift_6
Note_On_78_Vel_84
Time_Shift_2
Note_On_51_Vel_83
Time_Shift_46
Note_On_52_Vel_0
Time_Shift_4
Note_On_52_Vel_79
Time_Shift_42
Note_On_51_Vel_0
Time_Shift_4
Note_On_51_Vel_78
Time_Shift_42
Note_On_52_Vel_0
Time_Shift_8
Note_On_52_Vel_76
Time_Shift_19
Note_On_51_Vel_0
Time_Shift_10
Sustain_Off
Time_Shift_5
Note_On_71_Vel_0
Time_Shift_8
Note_On_69_Vel_0
Time_Shift_4
Note_On_80_Vel_86
Time_Shift_15
Note_On_78_Vel_0
Time_Shift_179
Note_On_76_Vel_81
Time_Shift_21
Sustain_On
Time_Shift_170
Note_On_71_Vel_85
Time_Shift_34
Note_On_76_Vel_0
Time_Shift_149
Sustain_Off
Time_Shift_14
Note_On_69_Vel_81
Time_Shift_1
Note_On_71_Vel_0
Note_On_80_Vel_0
Time_Shift_69
Sustain_On
Time_Shift_62
Sustain_Off
Time_Shift_41
Note_On_69_Vel_0
Time_Shift_19
Note_On_68_Vel_86
Time_Shift_124
Sustain_On
Time_Shift_225
Sustain_Off
Time_Shift_67
Note_On_52_Vel_0
Time_Shift_156
Note_On_52_Vel_77
Time_Shift_174
Note_On_52_Vel_0
Time_Shift_18
Note_On_57_Vel_79
Time_Shift_136
Sustain_On
Time_Shift_353
Sustain_Off
Time_Shift_77
Note_On_57_Vel_0
Time_Shift_9
Note_On_57_Vel_80
Time_Shift_6
Note_On_68_Vel_0
Time_Shift_175
Note_On_57_Vel_0
Time_Shift_12
Note_On_56_Vel_84
Time_Shift_374
Note_On_56_Vel_0
Time_Shift_394
Note_On_59_Vel_86
Time_Shift_182
Note_On_59_Vel_0
Time_Shift_11
Note_On_60_Vel_87
Note_On_72_Vel_70
Time_Shift_186
Note_On_60_Vel_0
Time_Shift_6
Note_On_62_Vel_84
Time_Shift_1
Note_On_74_Vel_71
Time_Shift_126
Note_On_72_Vel_0
Time_Shift_65
Note_On_59_Vel_86
Time_Shift_1
Note_On_65_Vel_84
Time_Shift_1
Note_On_71_Vel_77
Time_Shift_7
Note_On_62_Vel_0
Time_Shift_157
Note_On_74_Vel_0
Time_Shift_12
Note_On_65_Vel_0
Time_Shift_5
Note_On_59_Vel_0
Time_Shift_8
Note_On_76_Vel_81
Note_On_64_Vel_90
Time_Shift_74
Note_On_71_Vel_0
Time_Shift_114
Note_On_64_Vel_0
Time_Shift_6
Note_On_60_Vel_84
Note_On_72_Vel_71
Time_Shift_165
Note_On_76_Vel_0
Time_Shift_11
Note_On_60_Vel_0
Time_Shift_13
Note_On_57_Vel_78
Time_Shift_193
Note_On_64_Vel_80
Note_On_76_Vel_73
Time_Shift_167
Note_On_72_Vel_0
Time_Shift_18
Note_On_64_Vel_0
Time_Shift_3
Note_On_57_Vel_0
Time_Shift_4
Note_On_75_Vel_72
Note_On_63_Vel_84
Note_On_54_Vel_75
Time_Shift_90
Note_On_76_Vel_0
Time_Shift_101
Note_On_55_Vel_76
Time_Shift_37
Note_On_54_Vel_0
Time_Shift_143
Note_On_55_Vel_0
Time_Shift_13
Note_On_57_Vel_79
Time_Shift_28
Sustain_On
Time_Shift_158
Note_On_57_Vel_0
Time_Shift_1
Sustain_Off
Time_Shift_7
Note_On_60_Vel_87
Note_On_72_Vel_74
Time_Shift_19
Note_On_63_Vel_0
Time_Shift_30
Sustain_On
Time_Shift_133
Note_On_60_Vel_0
Time_Shift_2
Sustain_Off
Time_Shift_5
Note_On_51_Vel_78
Time_Shift_3
Note_On_72_Vel_0
Time_Shift_2
Note_On_66_Vel_84
Time_Shift_40
Note_On_75_Vel_0
Time_Shift_5
Note_On_52_Vel_73
Time_Shift_2
Sustain_On
Time_Shift_39
Note_On_51_Vel_0
Time_Shift_4
Note_On_51_Vel_70
Time_Shift_42
Note_On_52_Vel_0
Time_Shift_9
Note_On_52_Vel_74
Time_Shift_18
Sustain_Off
Time_Shift_19
Note_On_51_Vel_0
Time_Shift_8
Sustain_On
Time_Shift_2
Note_On_51_Vel_79
Time_Shift_2
Note_On_67_Vel_82
Time_Shift_37
Note_On_66_Vel_0
Time_Shift_5
Note_On_52_Vel_0
Time_Shift_4
Note_On_52_Vel_76
Time_Shift_11
Sustain_Off
Time_Shift_15
Sustain_On
Time_Shift_16
Note_On_51_Vel_0
Time_Shift_5
Note_On_51_Vel_75
Time_Shift_41
Note_On_52_Vel_0
Time_Shift_9
Note_On_52_Vel_76
Time_Shift_25
Sustain_Off
Time_Shift_12
Note_On_51_Vel_0
Time_Shift_11
Note_On_51_Vel_78
Time_Shift_1
Note_On_69_Vel_77
Time_Shift_11
Sustain_On
Time_Shift_31
Note_On_52_Vel_0
Time_Shift_5
Note_On_52_Vel_77
Time_Shift_41
Note_On_51_Vel_0
Time_Shift_5
Note_On_51_Vel_75
Time_Shift_41
Note_On_52_Vel_0
Time_Shift_10
Note_On_52_Vel_74
Time_Shift_36
Note_On_51_Vel_0
Time_Shift_11
Note_On_72_Vel_84
Note_On_51_Vel_76
Time_Shift_9
Note_On_69_Vel_0
Time_Shift_26
Note_On_52_Vel_0
Time_Shift_11
Note_On_52_Vel_76
Time_Shift_27
Note_On_67_Vel_0
Time_Shift_16
Note_On_51_Vel_0
Time_Shift_5
Note_On_51_Vel_78
Time_Shift_41
Note_On_52_Vel_0
Time_Shift_10
Note_On_52_Vel_74
Time_Shift_2
Note_On_51_Vel_0
Time_Shift_14
Sustain_Off
Time_Shift_29
Note_On_71_Vel_85
Time_Shift_1
Note_On_50_Vel_83
Time_Shift_8
Note_On_72_Vel_0
Time_Shift_13
Note_On_52_Vel_0
Time_Shift_152
Note_On_71_Vel_0
Time_Shift_9
Note_On_50_Vel_0
Time_Shift_13
Note_On_52_Vel_81
Time_Shift_1
Note_On_79_Vel_81
Note_On_67_Vel_86
Time_Shift_9
Note_On_79_Vel_0
Time_Shift_31
Sustain_On
Time_Shift_133
Sustain_Off
Time_Shift_1
Note_On_52_Vel_0
Time_Shift_7
Note_On_67_Vel_0
Time_Shift_9
Note_On_76_Vel_73
Note_On_55_Vel_78
Note_On_64_Vel_86
Time_Shift_72
Sustain_On
Time_Shift_114
Sustain_Off
Time_Shift_6
Note_On_43_Vel_81
Time_Shift_11
Sustain_On
Time_Shift_163
Note_On_43_Vel_0
Time_Shift_2
Note_On_55_Vel_0
Time_Shift_2
Note_On_64_Vel_0
Time_Shift_2
Note_On_76_Vel_0
Time_Shift_3
Sustain_Off
Time_Shift_8
Note_On_44_Vel_81
Note_On_59_Vel_83
Time_Shift_46
Note_On_45_Vel_81
Time_Shift_4
Sustain_On
Time_Shift_39
Note_On_44_Vel_0
Time_Shift_5
Note_On_44_Vel_78
Time_Shift_41
Note_On_45_Vel_0
Time_Shift_11
Note_On_45_Vel_77
Time_Shift_35
Note_On_44_Vel_0
Time_Shift_3
Sustain_Off
Time_Shift_7
Note_On_44_Vel_79
Time_Shift_2
Note_On_59_Vel_0
Note_On_60_Vel_86
Time_Shift_42
Note_On_45_Vel_0
Time_Shift_4
Note_On_45_Vel_73
Time_Shift_11
Sustain_On
Time_Shift_31
Note_On_44_Vel_0
Time_Shift_6
Note_On_44_Vel_77
Time_Shift_40
Note_On_45_Vel_0
Time_Shift_10
Note_On_45_Vel_76
Time_Shift_33
Sustain_Off
Time_Shift_11
Note_On_44_Vel_0
Time_Shift_3
Note_On_60_Vel_0
Time_Shift_1
Note_On_62_Vel_88
Note_On_44_Vel_78
Time_Shift_11
Sustain_On
Time_Shift_31
Note_On_45_Vel_0
Time_Shift_5
Note_On_45_Vel_77
Time_Shift_41
Note_On_44_Vel_0
Time_Shift_6
Note_On_44_Vel_78
Time_Shift_40
Note_On_45_Vel_0
Time_Shift_7
Note_On_45_Vel_76
Time_Shift_47
Note_On_44_Vel_0
Time_Shift_4
Note_On_44_Vel_79
Time_Shift_2
Note_On_65_Vel_83
Time_Shift_40
Note_On_45_Vel_0
Time_Shift_8
Note_On_45_Vel_78
Time_Shift_38
Note_On_44_Vel_0
Time_Shift_5
Note_On_44_Vel_77
Time_Shift_41
Note_On_45_Vel_0
Time_Shift_7
Note_On_45_Vel_75
Time_Shift_10
Note_On_44_Vel_0
Time_Shift_8
Note_On_65_Vel_0
Time_Shift_10
Sustain_Off
Time_Shift_7
Note_On_62_Vel_0
Time_Shift_14
Note_On_72_Vel_78
Time_Shift_1
Note_On_52_Vel_80
Note_On_60_Vel_89
Time_Shift_81
Note_On_45_Vel_0
Time_Shift_93
Note_On_52_Vel_0
Time_Shift_16
Note_On_48_Vel_82
Note_On_64_Vel_86
Time_Shift_37
Sustain_On
Time_Shift_148
Note_On_48_Vel_0
Time_Shift_1
Sustain_Off
Time_Shift_8
Note_On_45_Vel_83
Time_Shift_2
Note_On_64_Vel_0
Time_Shift_1
Note_On_65_Vel_85
Time_Shift_9
Note_On_60_Vel_0
Time_Shift_169
Note_On_72_Vel_0
Time_Shift_8
Sustain_On
Note_On_72_Vel_86
Time_Shift_11
Note_On_65_Vel_0
Time_Shift_156
Note_On_45_Vel_0
Time_Shift_3
Sustain_Off
Time_Shift_1
Note_On_72_Vel_0
Time_Shift_24
Note_On_53_Vel_78
Time_Shift_1
Note_On_62_Vel_85
Time_Shift_192
Note_On_50_Vel_83
Time_Shift_2
Note_On_65_Vel_84
Time_Shift_182
Note_On_50_Vel_0
Time_Shift_6
Note_On_47_Vel_83
Time_Shift_2
Note_On_68_Vel_86
Time_Shift_1
Note_On_65_Vel_0
Time_Shift_10
Note_On_53_Vel_0
Time_Shift_61
Note_On_62_Vel_0
Time_Shift_108
Sustain_On
Time_Shift_4
Note_On_68_Vel_0
Time_Shift_5
Note_On_74_Vel_85
Time_Shift_138
Sustain_Off
Time_Shift_19
Note_On_47_Vel_0
Time_Shift_26
Note_On_74_Vel_0
Time_Shift_10
Note_On_56_Vel_86
Time_Shift_1
Note_On_64_Vel_83
Time_Shift_1
Note_On_76_Vel_79
Time_Shift_184
Note_On_64_Vel_0
Time_Shift_4
Note_On_56_Vel_0
Time_Shift_4
Note_On_52_Vel_75
Note_On_68_Vel_86
Time_Shift_188
Note_On_52_Vel_0
Time_Shift_3
Note_On_48_Vel_81
Time_Shift_1
Note_On_68_Vel_0
Note_On_69_Vel_84
Time_Shift_180
Note_On_76_Vel_0
Time_Shift_1
Note_On_69_Vel_0
Time_Shift_9
Note_On_76_Vel_84
Time_Shift_21
Sustain_On
Time_Shift_119
Sustain_Off
Time_Shift_23
Note_On_48_Vel_0
Time_Shift_30
Note_On_50_Vel_82
Time_Shift_3
Note_On_65_Vel_86
Time_Shift_24
Note_On_76_Vel_0
Time_Shift_153
Note_On_65_Vel_0
Time_Shift_14
Note_On_69_Vel_82
Time_Shift_167
Note_On_50_Vel_0
Time_Shift_6
Note_On_69_Vel_0
Time_Shift_15
Note_On_74_Vel_85
Time_Shift_193
Note_On_77_Vel_85
Note_On_50_Vel_82
Time_Shift_36
Note_On_74_Vel_0
Time_Shift_147
Note_On_50_Vel_0
Time_Shift_7
Note_On_76_Vel_83
Note_On_57_Vel_75
Time_Shift_38
Note_On_77_Vel_0
Time_Shift_11
Note_On_77_Vel_81
Time_Shift_35
Note_On_76_Vel_0
Time_Shift_12
Note_On_76_Vel_79
Time_Shift_42
Note_On_77_Vel_0
Time_Shift_6
Note_On_77_Vel_79
Time_Shift_40
Note_On_76_Vel_0
Time_Shift_7
Note_On_76_Vel_78
Time_Shift_39
Note_On_77_Vel_0
Time_Shift_10
Note_On_77_Vel_76
Time_Shift_44
Note_On_76_Vel_0
Time_Shift_4
Note_On_76_Vel_78
Time_Shift_42
Note_On_77_Vel_0
Time_Shift_7
Note_On_77_Vel_77
Time_Shift_39
Note_On_76_Vel_0
Time_Shift_7
Note_On_76_Vel_77
Time_Shift_47
Note_On_77_Vel_0
Time_Shift_4
Note_On_77_Vel_78
Time_Shift_42
Note_On_76_Vel_0
Time_Shift_4
Note_On_76_Vel_77
Time_Shift_42
Note_On_77_Vel_0
Time_Shift_6
Note_On_77_Vel_78
Time_Shift_40
Note_On_57_Vel_0
Note_On_76_Vel_0
Time_Shift_8
Note_On_57_Vel_77
Note_On_76_Vel_83
Time_Shift_38
Note_On_77_Vel_0
Time_Shift_11
Note_On_77_Vel_79
Time_Shift_35
Note_On_76_Vel_0
Time_Shift_11
Note_On_76_Vel_79
Time_Shift_43
Note_On_77_Vel_0
Time_Shift_6
Note_On_77_Vel_82
Time_Shift_40
Note_On_76_Vel_0
Time_Shift_3
Note_On_57_Vel_0
Time_Shift_6
Note_On_76_Vel_82
Note_On_56_Vel_81
Time_Shift_37
Note_On_77_Vel_0
Time_Shift_11
Note_On_77_Vel_78
Time_Shift_35
Note_On_76_Vel_0
Time_Shift_11
Note_On_76_Vel_79
Time_Shift_43
Note_On_77_Vel_0
Time_Shift_6
Note_On_77_Vel_75
Time_Shift_40
Note_On_76_Vel_0
Time_Shift_8
Note_On_76_Vel_77
Time_Shift_38
Note_On_77_Vel_0
Time_Shift_11
Note_On_77_Vel_78
Time_Shift_35
Note_On_76_Vel_0
Time_Shift_11
Note_On_76_Vel_78
Time_Shift_43
Note_On_77_Vel_0
Time_Shift_6
Note_On_77_Vel_77
Time_Shift_40
Note_On_76_Vel_0
Time_Shift_7
Note_On_76_Vel_77
Time_Shift_47
Note_On_77_Vel_0
Time_Shift_4
Note_On_77_Vel_78
Time_Shift_34
Note_On_76_Vel_0
Time_Shift_11
Note_On_76_Vel_76
Time_Shift_43
Note_On_77_Vel_0
Time_Shift_5
Note_On_77_Vel_78
Time_Shift_41
Note_On_56_Vel_0
Note_On_76_Vel_0
Time_Shift_8
Note_On_56_Vel_80
Time_Shift_1
Note_On_76_Vel_81
Time_Shift_37
Note_On_77_Vel_0
Time_Shift_11
Note_On_77_Vel_77
Time_Shift_35
Note_On_76_Vel_0
Time_Shift_11
Note_On_76_Vel_80
Time_Shift_43
Note_On_77_Vel_0
Time_Shift_6
Note_On_77_Vel_80
Time_Shift_40
Note_On_76_Vel_0
Time_Shift_8
Note_On_76_Vel_79
Time_Shift_1
Note_On_55_Vel_78
Time_Shift_37
Note_On_56_Vel_0
Note_On_77_Vel_0
Time_Shift_11
Note_On_77_Vel_78
Time_Shift_35
Note_On_76_Vel_0
Time_Shift_11
Note_On_76_Vel_77
Time_Shift_43
Note_On_77_Vel_0
Time_Shift_5
Note_On_77_Vel_80
Time_Shift_41
Note_On_76_Vel_0
Time_Shift_6
Note_On_57_Vel_77
Note_On_76_Vel_81
Time_Shift_4
Note_On_55_Vel_0
Time_Shift_36
Note_On_77_Vel_0
Time_Shift_11
Note_On_77_Vel_78
Time_Shift_35
Note_On_76_Vel_0
Time_Shift_11
Note_On_76_Vel_80
Time_Shift_43
Note_On_77_Vel_0
Time_Shift_4
Note_On_77_Vel_79
Time_Shift_42
Note_On_76_Vel_0
Time_Shift_3
Note_On_57_Vel_0
Time_Shift_6
Note_On_76_Vel_81
Note_On_58_Vel_86
Time_Shift_34
Note_On_76_Vel_0
Time_Shift_3
Note_On_77_Vel_0
Time_Shift_11
Note_On_77_Vel_79
Time_Shift_45
Note_On_76_Vel_79
Time_Shift_44
Note_On_77_Vel_0
Time_Shift_4
Note_On_77_Vel_79
Time_Shift_31
Note_On_58_Vel_0
Time_Shift_11
Note_On_76_Vel_0
Time_Shift_7
Note_On_74_Vel_78
Time_Shift_1
Note_On_76_Vel_82
Time_Shift_1
Note_On_62_Vel_80
Time_Shift_45
Note_On_77_Vel_0
Time_Shift_4
Note_On_77_Vel_80
Time_Shift_34
Note_On_76_Vel_0
Time_Shift_10
Note_On_76_Vel_78
Time_Shift_36
Note_On_74_Vel_0
Time_Shift_8
Note_On_77_Vel_0
Time_Shift_4
Note_On_77_Vel_78
Time_Shift_11
Note_On_76_Vel_0
Time_Shift_27
Note_On_62_Vel_0
Time_Shift_13
Note_On_76_Vel_79
Note_On_61_Vel_84
Time_Shift_1
Note_On_73_Vel_80
Time_Shift_36
Note_On_77_Vel_0
Time_Shift_9
Note_On_77_Vel_80
Time_Shift_22
Note_On_76_Vel_0
Time_Shift_7
Note_On_73_Vel_0
Time_Shift_19
Note_On_76_Vel_79
Time_Shift_43
Note_On_77_Vel_0
Time_Shift_4
Note_On_77_Vel_76
Time_Shift_42
Note_On_76_Vel_0
Time_Shift_8
Note_On_58_Vel_85
Time_Shift_1
Note_On_76_Vel_78
Time_Shift_3
Note_On_61_Vel_0
Time_Shift_35
Note_On_76_Vel_0
Time_Shift_7
Note_On_77_Vel_0
Time_Shift_4
Note_On_77_Vel_77
Time_Shift_44
Note_On_76_Vel_78
Time_Shift_13
Note_On_77_Vel_0
Time_Shift_26
Note_On_76_Vel_0
Time_Shift_9
Note_On_77_Vel_75
Time_Shift_39
Note_On_58_Vel_0
Time_Shift_10
Note_On_76_Vel_79
Time_Shift_1
Note_On_55_Vel_79
Time_Shift_5
Note_On_77_Vel_0
Time_Shift_30
Note_On_76_Vel_0
Time_Shift_13
Note_On_77_Vel_77
Time_Shift_47
Note_On_76_Vel_75
Time_Shift_34
Note_On_76_Vel_0
Time_Shift_9
Note_On_77_Vel_0
Time_Shift_5
Note_On_77_Vel_75
Time_Shift_47
Note_On_76_Vel_76
Time_Shift_40
Note_On_77_Vel_0
Time_Shift_11
Note_On_77_Vel_77
Time_Shift_35
Note_On_76_Vel_0
Time_Shift_11
Note_On_76_Vel_75
Time_Shift_42
Note_On_76_Vel_0
Time_Shift_1
Note_On_77_Vel_0
Time_Shift_4
Note_On_77_Vel_77
Time_Shift_9
Note_On_55_Vel_0
Time_Shift_40
Note_On_61_Vel_84
Time_Shift_2
Note_On_76_Vel_77
Time_Shift_1
Note_On_73_Vel_81
Time_Shift_37
Note_On_76_Vel_0
Time_Shift_7
Note_On_77_Vel_0
Time_Shift_4
Note_On_77_Vel_76
Time_Shift_34
Note_On_73_Vel_0
Time_Shift_10
Note_On_76_Vel_76
Time_Shift_42
Note_On_76_Vel_0
Time_Shift_2
Note_On_77_Vel_0
Time_Shift_5
Note_On_77_Vel_75
Time_Shift_45
Note_On_77_Vel_0
Time_Shift_3
Note_On_57_Vel_77
Note_On_76_Vel_81
Time_Shift_2
Note_On_61_Vel_0
Time_Shift_37
Note_On_76_Vel_0
Time_Shift_12
Note_On_77_Vel_78
Time_Shift_43
Note_On_76_Vel_77
Time_Shift_45
Note_On_77_Vel_0
Time_Shift_4
Note_On_77_Vel_77
Time_Shift_40
Note_On_57_Vel_0
Time_Shift_2
Note_On_76_Vel_0
Time_Shift_5
Note_On_76_Vel_80
Time_Shift_2
Note_On_54_Vel_78
Time_Shift_35
Note_On_76_Vel_0
Time_Shift_4
Note_On_77_Vel_0
Time_Shift_11
Note_On_77_Vel_77
Time_Shift_46
Note_On_76_Vel_76
Time_Shift_20
Note_On_77_Vel_0
Time_Shift_19
Note_On_76_Vel_0
Time_Shift_9
Note_On_77_Vel_77
Time_Shift_40
Note_On_54_Vel_0
Time_Shift_7
Note_On_77_Vel_0
Time_Shift_2
Note_On_76_Vel_82
Note_On_57_Vel_77
Time_Shift_34
Note_On_76_Vel_0
Time_Shift_15
Note_On_77_Vel_79
Time_Shift_46
Note_On_76_Vel_80
Time_Shift_20
Note_On_77_Vel_0
Time_Shift_23
Note_On_76_Vel_0
Time_Shift_4
Note_On_77_Vel_77
Time_Shift_51
Note_On_74_Vel_87
Time_Shift_1
Note_On_53_Vel_80
Time_Shift_1
Note_On_57_Vel_0
Time_Shift_2
Note_On_77_Vel_0
Time_Shift_171
Note_On_53_Vel_0
Time_Shift_19
Note_On_76_Vel_67
Note_On_57_Vel_77
Time_Shift_1
Note_On_69_Vel_81
Time_Shift_11
Note_On_74_Vel_0
Time_Shift_138
Note_On_76_Vel_0
Time_Shift_28
Note_On_57_Vel_0
Time_Shift_12
Note_On_74_Vel_83
Time_Shift_1
Note_On_53_Vel_79
Time_Shift_13
Note_On_69_Vel_0
Time_Shift_162
Note_On_53_Vel_0
Time_Shift_18
Note_On_59_Vel_83
Time_Shift_1
Note_On_80_Vel_79
Note_On_68_Vel_86
Time_Shift_165
Note_On_74_Vel_0
Time_Shift_10
Note_On_59_Vel_0
Time_Shift_4
Note_On_68_Vel_0
Time_Shift_11
Note_On_72_Vel_87
Time_Shift_1
Note_On_52_Vel_78
Time_Shift_173
Note_On_80_Vel_0
Time_Shift_2
Note_On_52_Vel_0
Time_Shift_14
Note_On_72_Vel_0
Time_Shift_4
Note_On_60_Vel_86
Note_On_72_Vel_73
Time_Shift_1
Note_On_68_Vel_87
Time_Shift_174
Note_On_60_Vel_0
Time_Shift_3
Note_On_68_Vel_0
Time_Shift_2
Note_On_72_Vel_0
Time_Shift_11
Note_On_72_Vel_86
Note_On_52_Vel_78
Time_Shift_175
Note_On_52_Vel_0
Time_Shift_14
Note_On_72_Vel_0
Time_Shift_4
Note_On_72_Vel_77
Note_On_60_Vel_84
Time_Shift_1
Note_On_69_Vel_83
Time_Shift_179
Note_On_60_Vel_0
Time_Shift_9
Note_On_50_Vel_82
Time_Shift_1
Note_On_71_Vel_84
Time_Shift_36
Note_On_69_Vel_0
Time_Shift_15
Sustain_On
Time_Shift_31
Note_On_72_Vel_0
Time_Shift_53
Note_On_71_Vel_0
Time_Shift_27
Sustain_Off
Time_Shift_10
Note_On_50_Vel_0
Time_Shift_22
Note_On_57_Vel_82
Time_Shift_1
Note_On_65_Vel_83
Time_Shift_87
Sustain_On
Time_Shift_77
Sustain_Off
Time_Shift_20
Note_On_65_Vel_0
Time_Shift_1
Note_On_57_Vel_0
Time_Shift_5
Note_On_72_Vel_78
Time_Shift_1
Note_On_60_Vel_84
Note_On_69_Vel_84
Time_Shift_80
Sustain_On
Time_Shift_62
Sustain_Off
Time_Shift_28
Note_On_60_Vel_0
Note_On_69_Vel_0
Time_Shift_6
Note_On_72_Vel_0
Time_Shift_13
Note_On_81_Vel_85
Time_Shift_2
Note_On_53_Vel_78
Time_Shift_81
Sustain_On
Time_Shift_93
Note_On_53_Vel_0
Time_Shift_17
Note_On_52_Vel_75
Time_Shift_3
Sustain_Off
Time_Shift_18
Note_On_81_Vel_0
Time_Shift_15
Sustain_On
Time_Shift_12
Note_On_53_Vel_73
Time_Shift_42
Note_On_52_Vel_0
Time_Shift_6
Note_On_52_Vel_73
Time_Shift_40
Note_On_53_Vel_0
Time_Shift_7
Note_On_53_Vel_72
Time_Shift_39
Note_On_52_Vel_0
Time_Shift_11
Note_On_52_Vel_74
Note_On_76_Vel_74
Time_Shift_43
Note_On_53_Vel_0
Time_Shift_5
Note_On_53_Vel_72
Time_Shift_41
Note_On_52_Vel_0
Time_Shift_5
Note_On_52_Vel_72
Time_Shift_33
Note_On_76_Vel_0
Time_Shift_8
Note_On_53_Vel_0
Time_Shift_8
Note_On_53_Vel_72
Time_Shift_36
Sustain_Off
Time_Shift_2
Note_On_52_Vel_0
Time_Shift_9
Note_On_72_Vel_84
Time_Shift_2
Note_On_52_Vel_73
Time_Shift_43
Note_On_53_Vel_0
Sustain_On
Time_Shift_4
Note_On_53_Vel_72
Time_Shift_42
Note_On_52_Vel_0
Time_Shift_7
Note_On_52_Vel_73
Time_Shift_39
Note_On_53_Vel_0
Time_Shift_7
Note_On_53_Vel_73
Time_Shift_39
Note_On_52_Vel_0
Time_Shift_9
Note_On_52_Vel_72
Time_Shift_45
Note_On_53_Vel_0
Time_Shift_4
Note_On_53_Vel_71
Time_Shift_42
Note_On_52_Vel_0
Time_Shift_7
Note_On_52_Vel_71
Time_Shift_39
Note_On_53_Vel_0
Time_Shift_7
Note_On_53_Vel_71
Time_Shift_39
Note_On_52_Vel_0
Time_Shift_11
Note_On_52_Vel_71
Time_Shift_35
Note_On_53_Vel_0
Time_Shift_11
Note_On_53_Vel_71
Time_Shift_43
Note_On_52_Vel_0
Time_Shift_5
Note_On_52_Vel_71
Time_Shift_41
Note_On_53_Vel_0
Time_Shift_8
Note_On_53_Vel_71
Time_Shift_38
Note_On_52_Vel_0
Time_Shift_11
Note_On_52_Vel_74
Time_Shift_1
Note_On_69_Vel_77
Time_Shift_42
Note_On_53_Vel_0
Time_Shift_5
Note_On_53_Vel_70
Time_Shift_41
Note_On_52_Vel_0
Time_Shift_6
Note_On_52_Vel_70
Time_Shift_40
Note_On_53_Vel_0
Time_Shift_6
Note_On_53_Vel_69
Time_Shift_40
Note_On_72_Vel_0
Time_Shift_5
Sustain_Off
Time_Shift_3
Note_On_52_Vel_0
Time_Shift_4
Note_On_52_Vel_75
Time_Shift_2
Note_On_65_Vel_85
Time_Shift_9
Sustain_On
Time_Shift_31
Note_On_53_Vel_0
Time_Shift_4
Note_On_53_Vel_72
Time_Shift_42
Note_On_52_Vel_0
Time_Shift_6
Note_On_52_Vel_72
Time_Shift_40
Note_On_53_Vel_0
Time_Shift_8
Note_On_53_Vel_73
Time_Shift_30
Note_On_69_Vel_0
Time_Shift_8
Note_On_52_Vel_0
Time_Shift_8
Sustain_Off
Time_Shift_1
Note_On_74_Vel_84
Time_Shift_1
Note_On_52_Vel_74
Time_Shift_28
Sustain_On
Time_Shift_16
Note_On_53_Vel_0
Time_Shift_4
Note_On_53_Vel_74
Time_Shift_42
Note_On_52_Vel_0
Time_Shift_5
Note_On_52_Vel_72
Time_Shift_41
Note_On_53_Vel_0
Time_Shift_7
Note_On_53_Vel_72
Time_Shift_39
Note_On_52_Vel_0
Time_Shift_10
Note_On_52_Vel_71
Time_Shift_36
Note_On_53_Vel_0
Time_Shift_11
Note_On_53_Vel_71
Time_Shift_43
Note_On_52_Vel_0
Time_Shift_6
Note_On_52_Vel_71
Time_Shift_40
Note_On_53_Vel_0
Time_Shift_6
Note_On_53_Vel_72
Time_Shift_40
Note_On_52_Vel_0
Time_Shift_10
Note_On_52_Vel_78
Time_Shift_1
Note_On_62_Vel_85
Time_Shift_27
Note_On_65_Vel_0
Time_Shift_16
Note_On_53_Vel_0
Time_Shift_5
Note_On_53_Vel_73
Time_Shift_33
Note_On_52_Vel_0
Time_Shift_12
Note_On_52_Vel_74
Time_Shift_42
Note_On_53_Vel_0
Time_Shift_9
Note_On_53_Vel_70
Time_Shift_37
Note_On_52_Vel_0
Time_Shift_8
Note_On_71_Vel_82
Note_On_52_Vel_74
Time_Shift_14
Sustain_Off
Time_Shift_16
Note_On_74_Vel_0
Time_Shift_16
Note_On_53_Vel_0
Sustain_On
Time_Shift_4
Note_On_53_Vel_72
Time_Shift_42
Note_On_52_Vel_0
Time_Shift_5
Note_On_52_Vel_73
Time_Shift_10
Note_On_62_Vel_0
Time_Shift_31
Note_On_53_Vel_0
Time_Shift_8
Note_On_53_Vel_73
Time_Shift_38
Note_On_52_Vel_0
Time_Shift_10
Note_On_52_Vel_70
Time_Shift_36
Note_On_53_Vel_0
Time_Shift_11
Note_On_53_Vel_73
Time_Shift_43
Note_On_52_Vel_0
Time_Shift_6
Note_On_52_Vel_72
Time_Shift_40
Note_On_53_Vel_0
Time_Shift_8
Note_On_53_Vel_71
Time_Shift_38
Note_On_52_Vel_0
Time_Shift_10
Note_On_52_Vel_72
Time_Shift_36
Note_On_53_Vel_0
Time_Shift_11
Note_On_53_Vel_71
Time_Shift_43
Note_On_52_Vel_0
Time_Shift_6
Note_On_52_Vel_70
Time_Shift_40
Note_On_53_Vel_0
Time_Shift_7
Note_On_53_Vel_71
Time_Shift_47
Note_On_52_Vel_0
Time_Shift_4
Note_On_52_Vel_71
Note_On_68_Vel_83
Time_Shift_19
Note_On_71_Vel_0
Time_Shift_23
Note_On_53_Vel_0
Time_Shift_4
Note_On_53_Vel_74
Time_Shift_42
Note_On_52_Vel_0
Time_Shift_5
Note_On_52_Vel_72
Time_Shift_41
Note_On_53_Vel_0
Time_Shift_7
Note_On_53_Vel_71
Time_Shift_39
Note_On_52_Vel_0
Time_Shift_10
Note_On_52_Vel_74
Time_Shift_28
Note_On_68_Vel_0
Time_Shift_16
Note_On_53_Vel_0
Time_Shift_4
Note_On_53_Vel_71
Time_Shift_42
Note_On_52_Vel_0
Time_Shift_5
Note_On_52_Vel_72
Time_Shift_41
Note_On_53_Vel_0
Time_Shift_8
Note_On_53_Vel_74
Time_Shift_38
Note_On_52_Vel_0
Time_Shift_8
Note_On_72_Vel_84
Time_Shift_2
Note_On_52_Vel_74
Time_Shift_7
Sustain_Off
Time_Shift_29
Note_On_53_Vel_0
Time_Shift_8
Sustain_On
Time_Shift_3
Note_On_53_Vel_76
Time_Shift_43
Note_On_52_Vel_0
Time_Shift_5
Note_On_52_Vel_74
Time_Shift_41
Note_On_53_Vel_0
Time_Shift_6
Note_On_53_Vel_75
Time_Shift_40
Note_On_52_Vel_0
Time_Shift_10
Note_On_52_Vel_72
Time_Shift_36
Note_On_53_Vel_0
Time_Shift_11
Note_On_53_Vel_74
Time_Shift_43
Note_On_52_Vel_0
Time_Shift_5
Note_On_52_Vel_72
Time_Shift_41
Note_On_53_Vel_0
Time_Shift_7
Note_On_53_Vel_70
Time_Shift_39
Note_On_52_Vel_0
Note_On_72_Vel_0
Time_Shift_10
Note_On_72_Vel_76
Time_Shift_1
Note_On_52_Vel_74
Note_On_60_Vel_83
Time_Shift_43
Note_On_53_Vel_0
Time_Shift_5
Note_On_53_Vel_72
Time_Shift_41
Note_On_52_Vel_0
Time_Shift_6
Note_On_52_Vel_73
Time_Shift_40
Note_On_53_Vel_0
Time_Shift_6
Note_On_53_Vel_70
Time_Shift_36
Sustain_Off
Time_Shift_4
Note_On_72_Vel_0
Time_Shift_8
Note_On_52_Vel_0
Note_On_60_Vel_0
Time_Shift_3
Note_On_52_Vel_74
Time_Shift_1
Note_On_69_Vel_77
Time_Shift_34
Sustain_On
Time_Shift_8
Note_On_53_Vel_0
Time_Shift_5
Note_On_53_Vel_69
Time_Shift_2
Note_On_52_Vel_0
Time_Shift_45
Note_On_52_Vel_73
Time_Shift_40
Note_On_53_Vel_0
Time_Shift_9
Note_On_53_Vel_66
Time_Shift_37
Note_On_52_Vel_0
Time_Shift_11
Note_On_52_Vel_70
Time_Shift_43
Note_On_53_Vel_0
Time_Shift_4
Note_On_53_Vel_68
Time_Shift_8
Sustain_Off
Time_Shift_34
Note_On_52_Vel_0
Sustain_On
Time_Shift_5
Note_On_52_Vel_71
Time_Shift_41
Note_On_53_Vel_0
Time_Shift_7
Note_On_53_Vel_72
Time_Shift_39
Note_On_52_Vel_0
Time_Shift_10
Note_On_52_Vel_73
Time_Shift_21
Note_On_69_Vel_0
Time_Shift_23
Note_On_53_Vel_0
Time_Shift_4
Note_On_53_Vel_72
Time_Shift_42
Note_On_52_Vel_0
Time_Shift_5
Note_On_52_Vel_71
Time_Shift_41
Note_On_53_Vel_0
Time_Shift_7
Note_On_53_Vel_71
Time_Shift_39
Note_On_52_Vel_0
Time_Shift_10
Sustain_Off
Time_Shift_1
Note_On_52_Vel_77
Time_Shift_3
Note_On_65_Vel_85
Time_Shift_40
Note_On_53_Vel_0
Time_Shift_4
Note_On_53_Vel_76
Time_Shift_26
Sustain_On
Time_Shift_16
Note_On_52_Vel_0
Time_Shift_5
Note_On_52_Vel_71
Time_Shift_41
Note_On_53_Vel_0
Time_Shift_5
Note_On_53_Vel_74
Time_Shift_38
Sustain_Off
Time_Shift_3
Note_On_52_Vel_0
Time_Shift_10
Note_On_52_Vel_78
Time_Shift_1
Note_On_62_Vel_87
Time_Shift_12
Sustain_On
Time_Shift_15
Note_On_65_Vel_0
Time_Shift_8
Note_On_53_Vel_0
Time_Shift_11
Note_On_53_Vel_78
Time_Shift_43
Note_On_52_Vel_0
Time_Shift_5
Note_On_52_Vel_75
Time_Shift_41
Note_On_53_Vel_0
Time_Shift_9
Note_On_53_Vel_74
Time_Shift_37
Note_On_52_Vel_0
Time_Shift_7
Sustain_Off
Time_Shift_4
Note_On_52_Vel_71
Time_Shift_1
Note_On_68_Vel_84
Time_Shift_11
Note_On_62_Vel_0
Time_Shift_15
Sustain_On
Time_Shift_16
Note_On_53_Vel_0
Time_Shift_4
Note_On_53_Vel_76
Time_Shift_42
Note_On_52_Vel_0
Time_Shift_4
Note_On_52_Vel_73
Time_Shift_42
Note_On_53_Vel_0
Time_Shift_6
Note_On_53_Vel_72
Time_Shift_37
Sustain_Off
Time_Shift_3
Note_On_52_Vel_0
Time_Shift_7
Note_On_52_Vel_75
Time_Shift_2
Note_On_71_Vel_84
Time_Shift_6
Sustain_On
Time_Shift_16
Note_On_68_Vel_0
Time_Shift_23
Note_On_53_Vel_0
Time_Shift_4
Note_On_53_Vel_76
Time_Shift_42
Note_On_52_Vel_0
Time_Shift_6
Note_On_52_Vel_74
Time_Shift_40
Note_On_53_Vel_0
Time_Shift_6
Note_On_53_Vel_74
Time_Shift_32
Note_On_71_Vel_0
Time_Shift_14
Sustain_Off
Time_Shift_2
Note_On_52_Vel_0
Time_Shift_4
Note_On_52_Vel_80
Time_Shift_1
Note_On_67_Vel_86
Time_Shift_25
Sustain_On
Time_Shift_16
Note_On_53_Vel_0
Time_Shift_4
Note_On_53_Vel_77
Time_Shift_42
Note_On_52_Vel_0
Time_Shift_4
Note_On_52_Vel_77
Time_Shift_42
Note_On_53_Vel_0
Time_Shift_7
Note_On_53_Vel_71
Time_Shift_37
Sustain_Off
Time_Shift_2
Note_On_52_Vel_0
Time_Shift_10
Note_On_52_Vel_74
Note_On_61_Vel_84
Time_Shift_1
Note_On_73_Vel_80
Time_Shift_12
Sustain_On
Time_Shift_31
Note_On_53_Vel_0
Time_Shift_4
Note_On_53_Vel_75
Time_Shift_42
Note_On_52_Vel_0
Time_Shift_6
Note_On_52_Vel_74
Time_Shift_40
Note_On_53_Vel_0
Time_Shift_7
Note_On_53_Vel_74
Time_Shift_31
Note_On_61_Vel_0
Time_Shift_8
Note_On_52_Vel_0
Time_Shift_6
Sustain_Off
Time_Shift_3
Note_On_70_Vel_86
Note_On_52_Vel_75
Time_Shift_14
Sustain_On
Time_Shift_23
Note_On_67_Vel_0
Time_Shift_8
Note_On_53_Vel_0
Time_Shift_5
Note_On_53_Vel_74
Time_Shift_41
Note_On_52_Vel_0
Note_On_73_Vel_0
Time_Shift_6
Note_On_52_Vel_73
Time_Shift_40
Note_On_53_Vel_0
Time_Shift_10
Note_On_53_Vel_75
Time_Shift_26
Sustain_Off
Time_Shift_18
Note_On_52_Vel_0
Time_Shift_3
Note_On_69_Vel_79
Time_Shift_1
Note_On_52_Vel_74
Time_Shift_3
Sustain_On
Time_Shift_39
Note_On_53_Vel_0
Time_Shift_4
Note_On_53_Vel_74
Time_Shift_42
Note_On_52_Vel_0
Time_Shift_5
Note_On_52_Vel_74
Time_Shift_41
Note_On_53_Vel_0
Note_On_70_Vel_0
Time_Shift_6
Note_On_53_Vel_70
Time_Shift_48
Note_On_52_Vel_0
Time_Shift_4
Note_On_52_Vel_77
Time_Shift_1
Sustain_Off
Time_Shift_1
Note_On_65_Vel_85
Time_Shift_9
Note_On_69_Vel_0
Time_Shift_8
Sustain_On
Time_Shift_23
Note_On_53_Vel_0
Time_Shift_4
Note_On_53_Vel_77
Time_Shift_42
Note_On_52_Vel_0
Time_Shift_5
Note_On_52_Vel_74
Time_Shift_41
Note_On_53_Vel_0
Time_Shift_6
Note_On_53_Vel_74
Time_Shift_40
Note_On_52_Vel_0
Time_Shift_10
Sustain_Off
Note_On_52_Vel_80
Time_Shift_1
Note_On_62_Vel_86
Time_Shift_12
Sustain_On
Time_Shift_31
Note_On_53_Vel_0
Time_Shift_5
Note_On_53_Vel_78
Time_Shift_10
Note_On_65_Vel_0
Time_Shift_31
Note_On_52_Vel_0
Time_Shift_5
Note_On_52_Vel_75
Time_Shift_41
Note_On_53_Vel_0
Time_Shift_9
Note_On_53_Vel_74
Time_Shift_37
Note_On_52_Vel_0
Time_Shift_8
Note_On_74_Vel_85
Time_Shift_1
Note_On_52_Vel_77
Time_Shift_6
Sustain_Off
Time_Shift_16
Sustain_On
Time_Shift_15
Note_On_53_Vel_0
Time_Shift_11
Note_On_53_Vel_75
Time_Shift_43
Note_On_52_Vel_0
Time_Shift_4
Note_On_52_Vel_73
Time_Shift_42
Note_On_53_Vel_0
Time_Shift_8
Note_On_53_Vel_74
Time_Shift_38
Note_On_52_Vel_0
Time_Shift_9
Note_On_73_Vel_87
Time_Shift_1
Note_On_52_Vel_75
Time_Shift_4
Sustain_Off
Time_Shift_9
Note_On_62_Vel_0
Time_Shift_23
Note_On_53_Vel_0
Sustain_On
Time_Shift_11
Note_On_53_Vel_72
Time_Shift_43
Note_On_52_Vel_0
Time_Shift_6
Note_On_52_Vel_75
Time_Shift_32
Note_On_74_Vel_0
Time_Shift_8
Note_On_53_Vel_0
Time_Shift_9
Note_On_53_Vel_75
Time_Shift_42
Sustain_Off
Time_Shift_3
Note_On_52_Vel_0
Time_Shift_4
Note_On_52_Vel_74
Note_On_69_Vel_80
Time_Shift_3
Sustain_On
Time_Shift_39
Note_On_53_Vel_0
Time_Shift_5
Note_On_53_Vel_74
Time_Shift_25
Note_On_73_Vel_0
Time_Shift_16
Note_On_52_Vel_0
Time_Shift_6
Note_On_52_Vel_74
Time_Shift_40
Note_On_53_Vel_0
Time_Shift_7
Note_On_53_Vel_70
Time_Shift_31
Note_On_69_Vel_0
Time_Shift_7
Sustain_Off
Time_Shift_1
Note_On_52_Vel_0
Time_Shift_10
Note_On_75_Vel_78
Note_On_63_Vel_80
Time_Shift_1
Note_On_52_Vel_73
Time_Shift_4
Sustain_On
Time_Shift_39
Note_On_53_Vel_0
Time_Shift_4
Note_On_53_Vel_73
Time_Shift_42
Note_On_52_Vel_0
Time_Shift_6
Note_On_52_Vel_73
Time_Shift_40
Note_On_53_Vel_0
Time_Shift_5
Note_On_53_Vel_74
Time_Shift_41
Note_On_52_Vel_0
Note_On_75_Vel_0
Time_Shift_9
Note_On_72_Vel_85
Time_Shift_2
Note_On_52_Vel_76
Time_Shift_6
Sustain_Off
Time_Shift_6
Sustain_On
Time_Shift_23
Note_On_53_Vel_0
Time_Shift_8
Note_On_63_Vel_0
Time_Shift_3
Note_On_53_Vel_75
Time_Shift_43
Note_On_52_Vel_0
Time_Shift_6
Note_On_52_Vel_75
Time_Shift_40
Note_On_53_Vel_0
Time_Shift_9
Note_On_53_Vel_73
Time_Shift_37
Note_On_52_Vel_0
Time_Shift_4
Sustain_Off
Time_Shift_3
Note_On_52_Vel_78
Time_Shift_1
Note_On_71_Vel_85
Time_Shift_30
Note_On_72_Vel_0
Time_Shift_16
Note_On_53_Vel_0
Time_Shift_4
Note_On_53_Vel_75
Time_Shift_3
Sustain_On
Time_Shift_39
Note_On_52_Vel_0
Time_Shift_4
Note_On_52_Vel_74
Time_Shift_42
Note_On_53_Vel_0
Time_Shift_6
Note_On_53_Vel_76
Time_Shift_48
Note_On_52_Vel_0
Time_Shift_4
Note_On_52_Vel_75
Time_Shift_1
Note_On_68_Vel_85
Time_Shift_2
Note_On_71_Vel_0
Time_Shift_3
Sustain_Off
Time_Shift_20
Sustain_On
Time_Shift_16
Note_On_53_Vel_0
Time_Shift_4
Note_On_53_Vel_77
Time_Shift_42
Note_On_52_Vel_0
Time_Shift_7
Note_On_52_Vel_74
Time_Shift_39
Note_On_53_Vel_0
Time_Shift_5
Note_On_53_Vel_75
Time_Shift_33
Sustain_Off
Time_Shift_8
Note_On_52_Vel_0
Time_Shift_11
Note_On_52_Vel_77
Time_Shift_4
Sustain_On
Time_Shift_31
Note_On_68_Vel_0
Time_Shift_8
Note_On_53_Vel_0
Time_Shift_4
Note_On_53_Vel_75
Time_Shift_42
Note_On_52_Vel_0
Time_Shift_5
Note_On_52_Vel_75
Time_Shift_41
Note_On_53_Vel_0
Time_Shift_7
Note_On_53_Vel_76
Time_Shift_39
Note_On_52_Vel_0
Time_Shift_9
Note_On_52_Vel_75
Time_Shift_3
Sustain_Off
Time_Shift_34
Note_On_53_Vel_0
Time_Shift_11
Note_On_53_Vel_75
Time_Shift_43
Note_On_52_Vel_0
Time_Shift_5
Note_On_52_Vel_75
Time_Shift_41
Note_On_53_Vel_0
Time_Shift_5
Note_On_53_Vel_75
Time_Shift_47
Note_On_75_Vel_87
Time_Shift_1
Note_On_57_Vel_83
Time_Shift_24
Note_On_52_Vel_0
Time_Shift_268
Note_On_53_Vel_0
Time_Shift_369
Note_On_57_Vel_0
Time_Shift_23
Note_On_75_Vel_0
Time_Shift_8
Note_On_75_Vel_87
Time_Shift_1
Note_On_57_Vel_82
Time_Shift_76
Sustain_On
Time_Shift_105
Sustain_Off
Time_Shift_35
Note_On_57_Vel_0
Time_Shift_15
Note_On_76_Vel_83
Note_On_56_Vel_84
Time_Shift_2
Note_On_75_Vel_0
Time_Shift_257
Sustain_On
Time_Shift_85
Sustain_Off
Time_Shift_15
Note_On_56_Vel_0
Time_Shift_409
Note_On_77_Vel_84
Time_Shift_1
Note_On_59_Vel_88
Time_Shift_1
Note_On_71_Vel_77
Time_Shift_180
Note_On_59_Vel_0
Time_Shift_1
Note_On_76_Vel_0
Time_Shift_10
Note_On_76_Vel_84
Time_Shift_1
Note_On_60_Vel_87
Time_Shift_184
Note_On_60_Vel_0
Time_Shift_7
Note_On_74_Vel_84
Time_Shift_1
Note_On_62_Vel_87
Time_Shift_96
Note_On_77_Vel_0
Time_Shift_85
Note_On_71_Vel_0
Time_Shift_11
Note_On_71_Vel_87
Time_Shift_1
Note_On_65_Vel_85
Time_Shift_5
Note_On_62_Vel_0
Time_Shift_12
Note_On_74_Vel_0
Time_Shift_162
Note_On_65_Vel_0
Time_Shift_3
Note_On_71_Vel_0
Time_Shift_7
Note_On_72_Vel_86
Note_On_64_Vel_86
Time_Shift_183
Note_On_76_Vel_0
Time_Shift_2
Note_On_64_Vel_0
Time_Shift_8
Note_On_76_Vel_86
Note_On_60_Vel_88
Time_Shift_20
Sustain_On
Time_Shift_162
Sustain_Off
Time_Shift_1
Note_On_60_Vel_0
Time_Shift_8
Note_On_81_Vel_89
Note_On_57_Vel_80
Time_Shift_29
Note_On_72_Vel_0
Time_Shift_46
Sustain_On
Time_Shift_84
Sustain_Off
Time_Shift_26
Note_On_57_Vel_0
Time_Shift_9
Note_On_60_Vel_88
Note_On_72_Vel_74
Time_Shift_182
Note_On_60_Vel_0
Time_Shift_9
Note_On_51_Vel_82
Time_Shift_193
Note_On_59_Vel_87
Time_Shift_1
Note_On_71_Vel_78
Time_Shift_3
Note_On_76_Vel_0
Time_Shift_100
Note_On_72_Vel_0
Sustain_On
Time_Shift_61
Sustain_Off
Time_Shift_10
Note_On_59_Vel_0
Time_Shift_18
Note_On_69_Vel_83
Time_Shift_57
Sustain_On
Time_Shift_92
Sustain_Off
Time_Shift_31
Note_On_51_Vel_0
Time_Shift_9
Note_On_51_Vel_81
Time_Shift_106
Sustain_On
Time_Shift_51
Sustain_Off
Time_Shift_23
Note_On_51_Vel_0
Time_Shift_13
Note_On_52_Vel_76
Time_Shift_120
Sustain_On
Time_Shift_69
Note_On_71_Vel_0
Time_Shift_4
Note_On_59_Vel_86
Time_Shift_2
Note_On_71_Vel_77
Time_Shift_86
Note_On_81_Vel_0
Time_Shift_87
Note_On_59_Vel_0
Time_Shift_13
Note_On_69_Vel_0
Time_Shift_6
Note_On_69_Vel_82
Note_On_81_Vel_76
Time_Shift_2
Sustain_Off
Time_Shift_215
Note_On_71_Vel_0
Time_Shift_8
Note_On_52_Vel_0
Time_Shift_4
Note_On_52_Vel_77
Note_On_80_Vel_81
Note_On_68_Vel_87
Time_Shift_11
Note_On_81_Vel_0
Time_Shift_23
Sustain_On
Time_Shift_175
Note_On_52_Vel_0
Time_Shift_4
Sustain_Off
Note_On_68_Vel_0
Time_Shift_13
Note_On_69_Vel_0
Time_Shift_3
Note_On_45_Vel_81
Time_Shift_2
Note_On_81_Vel_78
Note_On_69_Vel_83
Time_Shift_1
Note_On_76_Vel_67
Time_Shift_32
Note_On_80_Vel_0
Time_Shift_1122
Sustain_On
Time_Shift_46
Sustain_Off
Time_Shift_84
Sustain_On
Time_Shift_108
Sustain_Off
Time_Shift_92
Sustain_On
Time_Shift_46
Sustain_Off
Time_Shift_822
Note_On_45_Vel_0
Note_On_81_Vel_0
Time_Shift_23
Note_On_69_Vel_0
Time_Shift_453
Note_On_76_Vel_0
