Ticks_Per_Beat_384
Tempo_500000
Time_Shift_241
Note_On_76_Vel_101
Time_Shift_1
Note_On_57_Vel_77
Note_On_45_Vel_66
Time_Shift_5
Note_On_52_Vel_66
Time_Shift_1
Note_On_49_Vel_67
Time_Shift_2
Note_On_69_Vel_76
Time_Shift_2
Note_On_64_Vel_72
Time_Shift_1
Note_On_73_Vel_67
Time_Shift_29
Note_On_57_Vel_0
Time_Shift_3
Note_On_52_Vel_0
Time_Shift_3
Note_On_76_Vel_0
Note_On_45_Vel_0
Note_On_49_Vel_0
Time_Shift_3
Note_On_64_Vel_0
Time_Shift_23
Note_On_73_Vel_0
Time_Shift_123
Note_On_76_Vel_90
Time_Shift_40
Note_On_76_Vel_0
Time_Shift_14
Note_On_69_Vel_0
Time_Shift_6
Note_On_64_Vel_84
Time_Shift_44
Note_On_64_Vel_0
Time_Shift_15
Note_On_76_Vel_99
Time_Shift_1
Note_On_57_Vel_80
Time_Shift_6
Note_On_45_Vel_71
Time_Shift_4
Note_On_52_Vel_64
Time_Shift_1
Note_On_73_Vel_73
Time_Shift_1
Note_On_49_Vel_65
Time_Shift_20
Note_On_76_Vel_0
Time_Shift_12
Note_On_52_Vel_0
Time_Shift_2
Note_On_49_Vel_0
Time_Shift_80
Note_On_73_Vel_0
Time_Shift_59
Note_On_76_Vel_88
Time_Shift_10
Note_On_45_Vel_0
Time_Shift_3
Note_On_57_Vel_0
Time_Shift_24
Note_On_76_Vel_0
Time_Shift_24
Note_On_64_Vel_85
Time_Shift_54
Note_On_64_Vel_0
Time_Shift_12
Note_On_57_Vel_83
Time_Shift_2
Note_On_76_Vel_103
Time_Shift_1
Note_On_45_Vel_66
Time_Shift_4
Note_On_52_Vel_65
Note_On_49_Vel_72
Time_Shift_25
Note_On_57_Vel_0
Time_Shift_4
Note_On_52_Vel_0
Time_Shift_1
Note_On_45_Vel_0
Time_Shift_4
Note_On_49_Vel_0
Time_Shift_50
Note_On_76_Vel_0
Time_Shift_250
Note_On_57_Vel_82
Time_Shift_6
Note_On_49_Vel_72
Time_Shift_2
Note_On_52_Vel_65
Time_Shift_30
Note_On_52_Vel_0
Time_Shift_5
Note_On_49_Vel_0
Time_Shift_7
Note_On_45_Vel_65
Time_Shift_14
Note_On_57_Vel_0
Time_Shift_82
Note_On_76_Vel_92
Time_Shift_10
Note_On_45_Vel_0
Time_Shift_39
Note_On_76_Vel_0
Time_Shift_80
Note_On_74_Vel_85
Time_Shift_31
Note_On_76_Vel_81
Time_Shift_23
Note_On_56_Vel_85
Time_Shift_3
Note_On_45_Vel_67
Time_Shift_1
Note_On_74_Vel_0
Time_Shift_11
Note_On_52_Vel_63
Note_On_50_Vel_63
Note_On_74_Vel_94
Time_Shift_14
Note_On_76_Vel_0
Time_Shift_16
Note_On_56_Vel_0
Time_Shift_2
Note_On_52_Vel_0
Time_Shift_3
Note_On_45_Vel_0
Time_Shift_6
Note_On_50_Vel_0
Time_Shift_118
Note_On_74_Vel_0
Time_Shift_2
Note_On_73_Vel_93
Time_Shift_148
Note_On_74_Vel_93
Time_Shift_6
Note_On_56_Vel_74
Note_On_50_Vel_64
Note_On_45_Vel_64
Time_Shift_2
Note_On_52_Vel_62
Time_Shift_1
Note_On_73_Vel_0
Time_Shift_28
Note_On_52_Vel_0
Time_Shift_8
Note_On_50_Vel_0
Time_Shift_4
Note_On_45_Vel_0
Time_Shift_23
Note_On_56_Vel_0
Time_Shift_93
Note_On_76_Vel_98
Time_Shift_11
Note_On_74_Vel_0
Time_Shift_149
Note_On_73_Vel_89
Time_Shift_12
Note_On_57_Vel_68
Time_Shift_4
Note_On_49_Vel_56
Note_On_52_Vel_54
Time_Shift_3
Note_On_45_Vel_60
Time_Shift_27
Note_On_76_Vel_0
Time_Shift_2
Note_On_49_Vel_0
Time_Shift_3
Note_On_45_Vel_0
Time_Shift_11
Note_On_57_Vel_0
Time_Shift_15
Note_On_52_Vel_0
Time_Shift_254
Note_On_69_Vel_78
Time_Shift_3
Note_On_57_Vel_68
Time_Shift_2
Note_On_49_Vel_53
Time_Shift_4
Note_On_45_Vel_53
Time_Shift_2
Note_On_52_Vel_50
Time_Shift_23
Note_On_69_Vel_0
Time_Shift_6
Note_On_52_Vel_0
Note_On_49_Vel_0
Time_Shift_11
Note_On_45_Vel_0
Time_Shift_2
Note_On_57_Vel_0
Time_Shift_31
Note_On_73_Vel_0
Time_Shift_257
Note_On_76_Vel_103
Time_Shift_12
Note_On_57_Vel_72
Time_Shift_5
Note_On_52_Vel_59
Time_Shift_1
Note_On_49_Vel_59
Note_On_45_Vel_60
Time_Shift_34
Note_On_76_Vel_0
Time_Shift_2
Note_On_52_Vel_0
Time_Shift_1
Note_On_57_Vel_0
Note_On_45_Vel_0
Time_Shift_4
Note_On_49_Vel_0
Time_Shift_132
Note_On_76_Vel_94
Time_Shift_49
Note_On_76_Vel_0
Time_Shift_23
Note_On_64_Vel_85
Time_Shift_46
Note_On_64_Vel_0
Time_Shift_6
Note_On_57_Vel_73
Time_Shift_2
Note_On_52_Vel_55
Time_Shift_1
Note_On_76_Vel_96
Note_On_45_Vel_66
Time_Shift_3
Note_On_49_Vel_61
Time_Shift_25
Note_On_57_Vel_0
Time_Shift_1
Note_On_52_Vel_0
Time_Shift_4
Note_On_76_Vel_0
Time_Shift_2
Note_On_49_Vel_0
Time_Shift_12
Note_On_45_Vel_0
Time_Shift_128
Note_On_76_Vel_96
Time_Shift_35
Note_On_76_Vel_0
Time_Shift_26
Note_On_64_Vel_83
Time_Shift_44
Note_On_64_Vel_0
Time_Shift_17
Note_On_57_Vel_81
Time_Shift_1
Note_On_76_Vel_102
Time_Shift_6
Note_On_45_Vel_65
Time_Shift_1
Note_On_49_Vel_61
Time_Shift_4
Note_On_52_Vel_59
Time_Shift_22
Note_On_57_Vel_0
Time_Shift_10
Note_On_45_Vel_0
Note_On_52_Vel_0
Time_Shift_4
Note_On_49_Vel_0
Time_Shift_32
Note_On_76_Vel_0
Time_Shift_260
Note_On_57_Vel_73
Time_Shift_5
Note_On_52_Vel_56
Time_Shift_4
Note_On_49_Vel_59
Note_On_45_Vel_59
Time_Shift_26
Note_On_57_Vel_0
Time_Shift_4
Note_On_52_Vel_0
Time_Shift_4
Note_On_49_Vel_0
Time_Shift_28
Note_On_45_Vel_0
Time_Shift_75
Note_On_76_Vel_85
Time_Shift_29
Note_On_76_Vel_0
Time_Shift_87
Note_On_74_Vel_88
Time_Shift_3
Note_On_45_Vel_54
Time_Shift_5
Note_On_45_Vel_0
Time_Shift_1
Note_On_57_Vel_59
Time_Shift_7
Note_On_57_Vel_0
Time_Shift_32
Note_On_76_Vel_84
Time_Shift_19
Note_On_57_Vel_74
Time_Shift_1
Note_On_56_Vel_74
Time_Shift_5
Note_On_45_Vel_71
Note_On_52_Vel_61
Time_Shift_1
Note_On_50_Vel_64
Time_Shift_3
Note_On_56_Vel_0
Note_On_74_Vel_0
Time_Shift_4
Note_On_74_Vel_96
Time_Shift_18
Note_On_76_Vel_0
Time_Shift_10
Note_On_52_Vel_0
Time_Shift_1
Note_On_45_Vel_0
Time_Shift_21
Note_On_50_Vel_0
Time_Shift_16
Note_On_57_Vel_0
Time_Shift_86
Note_On_74_Vel_0
Time_Shift_4
Note_On_73_Vel_88
Time_Shift_157
Note_On_56_Vel_75
Time_Shift_2
Note_On_74_Vel_94
Time_Shift_1
Note_On_45_Vel_63
Note_On_50_Vel_66
Time_Shift_6
Note_On_52_Vel_63
Time_Shift_7
Note_On_73_Vel_0
Time_Shift_28
Note_On_50_Vel_0
Time_Shift_4
Note_On_52_Vel_0
Time_Shift_9
Note_On_45_Vel_0
Time_Shift_7
Note_On_56_Vel_0
Time_Shift_97
Note_On_76_Vel_94
Time_Shift_5
Note_On_74_Vel_0
Time_Shift_93
Note_On_76_Vel_0
Time_Shift_111
Note_On_73_Vel_83
Time_Shift_15
Note_On_57_Vel_56
Time_Shift_6
Note_On_49_Vel_41
Time_Shift_1
Note_On_45_Vel_52
Time_Shift_1
Note_On_52_Vel_42
Time_Shift_340
Note_On_45_Vel_0
Time_Shift_1
Note_On_73_Vel_0
Note_On_57_Vel_0
Time_Shift_4
Note_On_52_Vel_0
Time_Shift_1
Note_On_49_Vel_0
Time_Shift_149
Note_On_73_Vel_88
Time_Shift_29
Note_On_73_Vel_0
Time_Shift_176
Note_On_76_Vel_101
Time_Shift_4
Note_On_57_Vel_79
Time_Shift_10
Note_On_52_Vel_59
Time_Shift_5
Note_On_45_Vel_65
Time_Shift_3
Note_On_49_Vel_56
Time_Shift_9
Note_On_76_Vel_0
Time_Shift_4
Note_On_57_Vel_0
Time_Shift_5
Note_On_52_Vel_0
Time_Shift_13
Note_On_49_Vel_0
Time_Shift_20
Note_On_45_Vel_0
Time_Shift_135
Note_On_76_Vel_88
Time_Shift_39
Note_On_76_Vel_0
Time_Shift_23
Note_On_64_Vel_80
Time_Shift_34
Note_On_64_Vel_0
Time_Shift_25
Note_On_76_Vel_98
Time_Shift_2
Note_On_57_Vel_74
Time_Shift_7
Note_On_49_Vel_63
Note_On_45_Vel_61
Time_Shift_4
Note_On_52_Vel_56
Time_Shift_25
Note_On_76_Vel_0
Time_Shift_9
Note_On_52_Vel_0
Note_On_57_Vel_0
Time_Shift_2
Note_On_49_Vel_0
Time_Shift_25
Note_On_45_Vel_0
Time_Shift_101
Note_On_76_Vel_90
Time_Shift_26
Note_On_76_Vel_0
Time_Shift_32
Note_On_64_Vel_84
Time_Shift_30
Note_On_64_Vel_0
Time_Shift_41
Note_On_76_Vel_106
Time_Shift_14
Note_On_57_Vel_76
Time_Shift_13
Note_On_45_Vel_59
Time_Shift_1
Note_On_52_Vel_51
Time_Shift_5
Note_On_49_Vel_56
Time_Shift_13
Note_On_57_Vel_0
Time_Shift_5
Note_On_45_Vel_0
Time_Shift_8
Note_On_49_Vel_0
Time_Shift_18
Note_On_52_Vel_0
Time_Shift_269
Note_On_57_Vel_82
Time_Shift_4
Note_On_45_Vel_73
Time_Shift_4
Note_On_49_Vel_71
Note_On_52_Vel_68
Time_Shift_29
Note_On_57_Vel_0
Time_Shift_6
Note_On_52_Vel_0
Time_Shift_2
Note_On_49_Vel_0
Time_Shift_108
Note_On_76_Vel_0
Time_Shift_10
Note_On_76_Vel_92
Time_Shift_6
Note_On_45_Vel_0
Time_Shift_38
Note_On_76_Vel_0
Time_Shift_85
Note_On_74_Vel_84
Time_Shift_28
Note_On_76_Vel_81
Time_Shift_24
Note_On_56_Vel_84
Time_Shift_6
Note_On_45_Vel_67
Time_Shift_3
Note_On_74_Vel_0
Time_Shift_2
Note_On_50_Vel_65
Time_Shift_2
Note_On_52_Vel_65
Time_Shift_1
Note_On_74_Vel_93
Time_Shift_13
Note_On_76_Vel_0
Time_Shift_13
Note_On_56_Vel_0
Time_Shift_4
Note_On_52_Vel_0
Time_Shift_4
Note_On_50_Vel_0
Time_Shift_7
Note_On_45_Vel_0
Time_Shift_116
Note_On_74_Vel_0
Time_Shift_6
Note_On_73_Vel_91
Time_Shift_148
Note_On_74_Vel_91
Time_Shift_7
Note_On_56_Vel_72
Time_Shift_1
Note_On_50_Vel_61
Time_Shift_2
Note_On_45_Vel_64
Time_Shift_9
Note_On_57_Vel_67
Time_Shift_4
Note_On_73_Vel_0
Time_Shift_20
Note_On_50_Vel_0
Time_Shift_6
Note_On_45_Vel_0
Time_Shift_19
Note_On_56_Vel_0
Time_Shift_8
Note_On_57_Vel_0
Time_Shift_88
Note_On_76_Vel_98
Time_Shift_7
Note_On_74_Vel_0
Time_Shift_81
Note_On_76_Vel_0
Time_Shift_75
Note_On_73_Vel_88
Time_Shift_11
Note_On_57_Vel_67
Time_Shift_3
Note_On_49_Vel_55
Note_On_52_Vel_52
Time_Shift_3
Note_On_45_Vel_60
Time_Shift_28
Note_On_57_Vel_0
Time_Shift_4
Note_On_49_Vel_0
Time_Shift_4
Note_On_45_Vel_0
Time_Shift_26
Note_On_52_Vel_0
Time_Shift_250
Note_On_69_Vel_75
Time_Shift_2
Note_On_57_Vel_66
Time_Shift_4
Note_On_49_Vel_53
Time_Shift_1
Note_On_45_Vel_53
Time_Shift_3
Note_On_52_Vel_49
Time_Shift_28
Note_On_69_Vel_0
Time_Shift_1
Note_On_49_Vel_0
Time_Shift_9
Note_On_45_Vel_0
Time_Shift_2
Note_On_57_Vel_0
Time_Shift_7
Note_On_52_Vel_0
Time_Shift_8
Note_On_73_Vel_0
Time_Shift_267
Note_On_76_Vel_100
Time_Shift_4
Note_On_57_Vel_77
Time_Shift_3
Note_On_52_Vel_64
Time_Shift_6
Note_On_49_Vel_63
Note_On_45_Vel_64
Time_Shift_21
Note_On_76_Vel_0
Time_Shift_2
Note_On_57_Vel_0
Time_Shift_8
Note_On_52_Vel_0
Time_Shift_111
Note_On_49_Vel_0
Time_Shift_23
Note_On_45_Vel_0
Time_Shift_21
Note_On_76_Vel_92
Time_Shift_45
Note_On_76_Vel_0
Time_Shift_26
Note_On_64_Vel_78
Time_Shift_51
Note_On_64_Vel_0
Time_Shift_6
Note_On_76_Vel_97
Time_Shift_3
Note_On_57_Vel_86
Time_Shift_8
Note_On_52_Vel_69
Time_Shift_2
Note_On_49_Vel_72
Time_Shift_2
Note_On_45_Vel_73
Time_Shift_23
Note_On_76_Vel_0
Note_On_52_Vel_0
Time_Shift_2
Note_On_49_Vel_0
Time_Shift_111
Note_On_45_Vel_0
Time_Shift_27
Note_On_76_Vel_92
Time_Shift_27
Note_On_57_Vel_0
Time_Shift_11
Note_On_76_Vel_0
Time_Shift_21
Note_On_64_Vel_80
Time_Shift_44
Note_On_64_Vel_0
Time_Shift_27
Note_On_76_Vel_105
Time_Shift_1
Note_On_57_Vel_79
Time_Shift_10
Note_On_52_Vel_65
Time_Shift_5
Note_On_49_Vel_62
Time_Shift_2
Note_On_45_Vel_64
Time_Shift_20
Note_On_57_Vel_0
Time_Shift_1
Note_On_52_Vel_0
Time_Shift_2
Note_On_76_Vel_0
Time_Shift_6
Note_On_49_Vel_0
Time_Shift_118
Note_On_45_Vel_0
Time_Shift_175
Note_On_57_Vel_83
Time_Shift_6
Note_On_45_Vel_76
Time_Shift_1
Note_On_52_Vel_69
Time_Shift_4
Note_On_49_Vel_67
Time_Shift_24
Note_On_57_Vel_0
Time_Shift_8
Note_On_52_Vel_0
Time_Shift_2
Note_On_49_Vel_0
Time_Shift_112
Note_On_76_Vel_87
Time_Shift_9
Note_On_45_Vel_0
Time_Shift_18
Note_On_76_Vel_0
Time_Shift_88
Note_On_74_Vel_85
Time_Shift_45
Note_On_74_Vel_0
Time_Shift_4
Note_On_76_Vel_86
Time_Shift_16
Note_On_49_Vel_59
Time_Shift_6
Note_On_56_Vel_73
Time_Shift_2
Note_On_45_Vel_73
Time_Shift_1
Note_On_52_Vel_67
Time_Shift_2
Note_On_49_Vel_0
Note_On_56_Vel_0
Note_On_50_Vel_69
Note_On_57_Vel_74
Time_Shift_7
Note_On_57_Vel_0
Time_Shift_3
Note_On_74_Vel_96
Time_Shift_16
Note_On_76_Vel_0
Time_Shift_9
Note_On_50_Vel_0
Note_On_52_Vel_0
Time_Shift_2
Note_On_45_Vel_0
Time_Shift_127
Note_On_73_Vel_91
Time_Shift_1
Note_On_74_Vel_0
Time_Shift_155
Note_On_74_Vel_94
Time_Shift_1
Note_On_56_Vel_73
Time_Shift_5
Note_On_50_Vel_67
Note_On_45_Vel_64
Time_Shift_6
Note_On_52_Vel_63
Time_Shift_4
Note_On_73_Vel_0
Time_Shift_30
Note_On_50_Vel_0
Time_Shift_4
Note_On_52_Vel_0
Time_Shift_7
Note_On_45_Vel_0
Time_Shift_22
Note_On_56_Vel_0
Time_Shift_82
Note_On_76_Vel_94
Note_On_74_Vel_0
Time_Shift_118
Note_On_76_Vel_0
Time_Shift_92
Note_On_73_Vel_85
Time_Shift_13
Note_On_57_Vel_59
Time_Shift_7
Note_On_49_Vel_41
Note_On_45_Vel_54
Time_Shift_1
Note_On_52_Vel_45
Time_Shift_344
Note_On_45_Vel_0
Note_On_57_Vel_0
Time_Shift_2
Note_On_73_Vel_0
Time_Shift_2
Note_On_52_Vel_0
Time_Shift_3
Note_On_49_Vel_0
Time_Shift_139
Note_On_73_Vel_84
Time_Shift_30
Note_On_73_Vel_0
Time_Shift_172
Note_On_73_Vel_85
Time_Shift_5
Note_On_45_Vel_67
Note_On_57_Vel_65
Time_Shift_58
Sustain_On
Time_Shift_53
Sustain_Off
Time_Shift_59
Note_On_71_Vel_92
Time_Shift_3
Note_On_57_Vel_0
Time_Shift_7
Note_On_61_Vel_65
Time_Shift_3
Note_On_57_Vel_64
Time_Shift_7
Note_On_73_Vel_0
Time_Shift_20
Note_On_57_Vel_0
Time_Shift_2
Note_On_61_Vel_0
Time_Shift_4
Note_On_45_Vel_0
Time_Shift_87
Note_On_71_Vel_0
Time_Shift_25
Note_On_69_Vel_90
Time_Shift_9
Note_On_57_Vel_70
Time_Shift_1
Note_On_61_Vel_61
Time_Shift_3
Note_On_49_Vel_48
Time_Shift_28
Note_On_49_Vel_0
Time_Shift_19
Note_On_57_Vel_0
Note_On_61_Vel_0
Time_Shift_90
Note_On_71_Vel_95
Time_Shift_10
Note_On_69_Vel_0
Note_On_61_Vel_63
Time_Shift_1
Note_On_57_Vel_60
Time_Shift_35
Note_On_57_Vel_0
Time_Shift_48
Note_On_61_Vel_0
Time_Shift_84
Note_On_73_Vel_93
Time_Shift_2
Note_On_45_Vel_62
Time_Shift_1
Note_On_61_Vel_66
Time_Shift_1
Note_On_57_Vel_66
Time_Shift_22
Note_On_71_Vel_0
Time_Shift_44
Note_On_45_Vel_0
Time_Shift_7
Sustain_On
Time_Shift_197
Note_On_61_Vel_0
Time_Shift_1
Note_On_73_Vel_0
Time_Shift_1
Note_On_57_Vel_0
Time_Shift_9
Sustain_Off
Time_Shift_176
Note_On_76_Vel_90
Time_Shift_1
Note_On_45_Vel_42
Time_Shift_7
Note_On_45_Vel_0
Time_Shift_21
Note_On_76_Vel_0
Time_Shift_145
Note_On_76_Vel_96
Time_Shift_2
Note_On_52_Vel_62
Time_Shift_31
Note_On_52_Vel_0
Time_Shift_121
Note_On_74_Vel_85
Time_Shift_14
Note_On_62_Vel_72
Time_Shift_3
Note_On_64_Vel_69
Time_Shift_9
Note_On_76_Vel_0
Time_Shift_4
Note_On_52_Vel_50
Time_Shift_6
Note_On_56_Vel_59
Time_Shift_6
Note_On_62_Vel_0
Time_Shift_9
Note_On_74_Vel_0
Time_Shift_4
Note_On_73_Vel_85
Time_Shift_17
Note_On_64_Vel_0
Time_Shift_7
Note_On_52_Vel_0
Note_On_56_Vel_0
Time_Shift_59
Note_On_73_Vel_0
Time_Shift_2
Note_On_64_Vel_70
Note_On_71_Vel_88
Time_Shift_6
Note_On_52_Vel_63
Time_Shift_1
Note_On_62_Vel_67
Time_Shift_5
Note_On_56_Vel_70
Time_Shift_22
Note_On_71_Vel_0
Time_Shift_21
Note_On_52_Vel_0
Note_On_56_Vel_0
Note_On_62_Vel_0
Time_Shift_7
Note_On_64_Vel_0
Time_Shift_111
Note_On_45_Vel_60
Note_On_74_Vel_92
Time_Shift_5
Note_On_45_Vel_0
Time_Shift_2
Note_On_56_Vel_66
Time_Shift_3
Note_On_62_Vel_62
Time_Shift_6
Note_On_52_Vel_58
Note_On_64_Vel_65
Time_Shift_13
Note_On_74_Vel_0
Time_Shift_5
Note_On_64_Vel_0
Time_Shift_4
Note_On_56_Vel_0
Time_Shift_3
Note_On_62_Vel_0
Time_Shift_17
Note_On_52_Vel_0
Time_Shift_130
Note_On_73_Vel_90
Time_Shift_8
Note_On_64_Vel_71
Time_Shift_3
Note_On_61_Vel_71
Note_On_57_Vel_73
Time_Shift_51
Sustain_On
Time_Shift_173
Note_On_64_Vel_0
Note_On_73_Vel_0
Time_Shift_1
Note_On_61_Vel_0
Time_Shift_1
Note_On_57_Vel_0
Time_Shift_3
Sustain_Off
Time_Shift_97
Note_On_69_Vel_73
Time_Shift_3
Note_On_61_Vel_44
Time_Shift_68
Note_On_61_Vel_0
Time_Shift_71
Note_On_69_Vel_0
Time_Shift_4
Note_On_71_Vel_82
Time_Shift_34
Note_On_71_Vel_0
Time_Shift_148
Note_On_45_Vel_51
Note_On_73_Vel_69
Time_Shift_2
Note_On_57_Vel_48
Time_Shift_45
Note_On_45_Vel_0
Time_Shift_91
Note_On_61_Vel_59
Time_Shift_4
Note_On_57_Vel_0
Time_Shift_4
Note_On_71_Vel_80
Time_Shift_6
Note_On_57_Vel_56
Time_Shift_24
Note_On_73_Vel_0
Time_Shift_1
Note_On_61_Vel_0
Time_Shift_7
Note_On_57_Vel_0
Time_Shift_104
Note_On_71_Vel_0
Time_Shift_29
Note_On_57_Vel_61
Time_Shift_1
Note_On_61_Vel_56
Time_Shift_3
Note_On_69_Vel_75
Time_Shift_25
Note_On_57_Vel_0
Time_Shift_3
Note_On_61_Vel_0
Time_Shift_127
Note_On_71_Vel_82
Time_Shift_6
Note_On_61_Vel_61
Time_Shift_3
Note_On_57_Vel_55
Time_Shift_8
Note_On_69_Vel_0
Time_Shift_33
Note_On_57_Vel_0
Note_On_61_Vel_0
Time_Shift_154
Note_On_73_Vel_75
Time_Shift_3
Note_On_61_Vel_55
Time_Shift_6
Note_On_57_Vel_50
Time_Shift_37
Sustain_On
Time_Shift_235
Note_On_73_Vel_0
Time_Shift_2
Sustain_Off
Time_Shift_1
Note_On_71_Vel_0
Time_Shift_8
Note_On_57_Vel_0
Note_On_61_Vel_0
Time_Shift_168
Note_On_76_Vel_67
Time_Shift_33
Note_On_76_Vel_0
Note_On_43_Vel_21
Time_Shift_6
Note_On_43_Vel_0
Time_Shift_125
Note_On_76_Vel_76
Time_Shift_9
Note_On_52_Vel_50
Time_Shift_31
Note_On_52_Vel_0
Time_Shift_133
Note_On_74_Vel_74
Time_Shift_13
Note_On_62_Vel_58
Note_On_64_Vel_61
Time_Shift_13
Note_On_76_Vel_0
Time_Shift_1
Note_On_56_Vel_54
Time_Shift_10
Note_On_64_Vel_0
Time_Shift_1
Note_On_62_Vel_0
Time_Shift_3
Note_On_74_Vel_0
Time_Shift_16
Note_On_73_Vel_80
Time_Shift_21
Note_On_56_Vel_0
Time_Shift_51
Note_On_73_Vel_0
Time_Shift_8
Note_On_71_Vel_81
Time_Shift_1
Note_On_64_Vel_65
Time_Shift_10
Note_On_62_Vel_58
Time_Shift_2
Note_On_56_Vel_60
Time_Shift_15
Note_On_64_Vel_0
Note_On_71_Vel_0
Time_Shift_29
Note_On_62_Vel_0
Time_Shift_7
Note_On_56_Vel_0
Time_Shift_112
Note_On_73_Vel_75
Time_Shift_4
Note_On_64_Vel_59
Time_Shift_3
Note_On_56_Vel_50
Time_Shift_24
Note_On_73_Vel_0
Time_Shift_1
Note_On_64_Vel_0
Time_Shift_33
Note_On_56_Vel_0
Time_Shift_160
Note_On_69_Vel_74
Time_Shift_2
Note_On_61_Vel_55
Time_Shift_3
Note_On_64_Vel_53
Time_Shift_1
Note_On_57_Vel_49
Time_Shift_4
Note_On_52_Vel_39
Time_Shift_37
Sustain_On
Time_Shift_23
Note_On_57_Vel_0
Time_Shift_192
Note_On_52_Vel_0
Time_Shift_87
Note_On_61_Vel_0
Time_Shift_2
Sustain_Off
Time_Shift_3
Note_On_64_Vel_0
Note_On_69_Vel_0
Time_Shift_157
Note_On_73_Vel_93
Time_Shift_38
Note_On_73_Vel_0
Time_Shift_128
Note_On_73_Vel_98
Time_Shift_2
Note_On_45_Vel_78
Time_Shift_2
Note_On_57_Vel_76
Time_Shift_34
Sustain_On
Time_Shift_110
Note_On_71_Vel_97
Time_Shift_8
Note_On_61_Vel_72
Time_Shift_5
Note_On_57_Vel_0
Time_Shift_7
Note_On_57_Vel_62
Time_Shift_21
Sustain_Off
Time_Shift_8
Note_On_73_Vel_0
Time_Shift_1
Note_On_61_Vel_0
Time_Shift_2
Note_On_45_Vel_0
Time_Shift_6
Note_On_57_Vel_0
Time_Shift_90
Note_On_71_Vel_0
Time_Shift_15
Note_On_69_Vel_92
Time_Shift_2
Note_On_61_Vel_71
Time_Shift_1
Note_On_57_Vel_69
Time_Shift_28
Note_On_57_Vel_0
Time_Shift_1
Note_On_61_Vel_0
Time_Shift_111
Note_On_71_Vel_100
Time_Shift_5
Note_On_61_Vel_73
Time_Shift_7
Note_On_57_Vel_72
Time_Shift_7
Note_On_69_Vel_0
Time_Shift_21
Note_On_61_Vel_0
Time_Shift_2
Note_On_57_Vel_0
Time_Shift_143
Note_On_73_Vel_100
Time_Shift_3
Note_On_61_Vel_75
Time_Shift_2
Note_On_57_Vel_75
Time_Shift_3
Note_On_52_Vel_55
Time_Shift_6
Note_On_52_Vel_0
Time_Shift_13
Note_On_71_Vel_0
Time_Shift_41
Note_On_57_Vel_0
Time_Shift_15
Sustain_On
Time_Shift_214
Note_On_73_Vel_0
Time_Shift_2
Note_On_61_Vel_0
Time_Shift_1
Sustain_Off
Time_Shift_174
Note_On_76_Vel_93
Time_Shift_28
Note_On_76_Vel_0
Time_Shift_135
Note_On_76_Vel_102
Time_Shift_3
Note_On_64_Vel_69
Note_On_52_Vel_64
Time_Shift_36
Note_On_52_Vel_0
Time_Shift_21
Note_On_64_Vel_0
Time_Shift_77
Note_On_76_Vel_0
Time_Shift_29
Note_On_74_Vel_84
Time_Shift_18
Note_On_52_Vel_56
Time_Shift_1
Note_On_62_Vel_64
Note_On_64_Vel_67
Time_Shift_3
Note_On_56_Vel_62
Time_Shift_22
Note_On_74_Vel_0
Time_Shift_7
Note_On_73_Vel_90
Time_Shift_1
Note_On_62_Vel_0
Time_Shift_1
Note_On_56_Vel_0
Time_Shift_18
Note_On_52_Vel_0
Time_Shift_8
Note_On_64_Vel_0
Time_Shift_50
Note_On_71_Vel_88
Time_Shift_12
Note_On_64_Vel_62
Time_Shift_1
Note_On_62_Vel_63
Note_On_73_Vel_0
Time_Shift_1
Note_On_52_Vel_61
Time_Shift_2
Note_On_56_Vel_61
Time_Shift_22
Note_On_71_Vel_0
Time_Shift_2
Note_On_64_Vel_0
Time_Shift_5
Note_On_52_Vel_0
Note_On_62_Vel_0
Time_Shift_20
Note_On_56_Vel_0
Time_Shift_98
Note_On_74_Vel_95
Time_Shift_6
Note_On_52_Vel_56
Note_On_56_Vel_59
Time_Shift_5
Note_On_62_Vel_59
Time_Shift_23
Note_On_74_Vel_0
Time_Shift_9
Note_On_56_Vel_0
Time_Shift_3
Note_On_62_Vel_0
Time_Shift_9
Note_On_52_Vel_0
Time_Shift_127
Note_On_73_Vel_91
Time_Shift_7
Note_On_64_Vel_68
Time_Shift_1
Note_On_52_Vel_51
Note_On_57_Vel_67
Time_Shift_1
Note_On_61_Vel_69
Time_Shift_87
Note_On_52_Vel_0
Time_Shift_120
Note_On_61_Vel_0
Note_On_73_Vel_0
Time_Shift_1
Note_On_64_Vel_0
Time_Shift_4
Note_On_57_Vel_0
Time_Shift_99
Note_On_73_Vel_62
Time_Shift_1
Note_On_69_Vel_82
Time_Shift_2
Note_On_45_Vel_46
Time_Shift_50
Note_On_45_Vel_0
Time_Shift_61
Note_On_73_Vel_0
Time_Shift_39
Note_On_71_Vel_91
Time_Shift_4
Note_On_69_Vel_0
Time_Shift_36
Note_On_71_Vel_0
Time_Shift_134
Note_On_45_Vel_55
Time_Shift_4
Note_On_57_Vel_52
Time_Shift_1
Note_On_73_Vel_71
Time_Shift_44
Note_On_45_Vel_0
Time_Shift_76
Note_On_57_Vel_0
Time_Shift_44
Note_On_71_Vel_76
Time_Shift_10
Note_On_57_Vel_59
Time_Shift_34
Note_On_57_Vel_0
Time_Shift_1
Note_On_73_Vel_0
Time_Shift_98
Note_On_71_Vel_0
Time_Shift_22
Note_On_57_Vel_54
Note_On_61_Vel_55
Time_Shift_1
Note_On_69_Vel_74
Time_Shift_31
Note_On_57_Vel_0
Time_Shift_1
Note_On_61_Vel_0
Time_Shift_122
Note_On_61_Vel_62
Time_Shift_1
Note_On_71_Vel_74
Note_On_57_Vel_66
Time_Shift_6
Note_On_69_Vel_0
Time_Shift_25
Note_On_57_Vel_0
Time_Shift_10
Note_On_61_Vel_0
Time_Shift_163
Note_On_73_Vel_74
Time_Shift_3
Note_On_61_Vel_62
Time_Shift_15
Note_On_57_Vel_58
Time_Shift_25
Note_On_71_Vel_0
Time_Shift_237
Note_On_73_Vel_0
Time_Shift_4
Note_On_57_Vel_0
Time_Shift_7
Note_On_61_Vel_0
Time_Shift_227
Note_On_76_Vel_76
Time_Shift_23
Note_On_43_Vel_26
Time_Shift_12
Note_On_76_Vel_0
Time_Shift_30
Note_On_43_Vel_0
Time_Shift_99
Note_On_76_Vel_73
Time_Shift_4
Note_On_64_Vel_56
Time_Shift_1
Note_On_52_Vel_53
Time_Shift_29
Note_On_52_Vel_0
Time_Shift_147
Note_On_74_Vel_74
Time_Shift_12
Note_On_64_Vel_0
Time_Shift_2
Note_On_56_Vel_57
Time_Shift_1
Note_On_45_Vel_55
Time_Shift_1
Note_On_62_Vel_60
Note_On_64_Vel_59
Time_Shift_4
Note_On_45_Vel_0
Time_Shift_13
Note_On_76_Vel_0
Time_Shift_6
Note_On_62_Vel_0
Time_Shift_11
Note_On_56_Vel_0
Time_Shift_5
Note_On_74_Vel_0
Time_Shift_11
Note_On_64_Vel_0
Note_On_73_Vel_77
Time_Shift_80
Note_On_52_Vel_57
Time_Shift_2
Note_On_73_Vel_0
Time_Shift_4
Note_On_64_Vel_63
Time_Shift_3
Note_On_56_Vel_63
Note_On_62_Vel_65
Time_Shift_1
Note_On_71_Vel_82
Time_Shift_24
Note_On_64_Vel_0
Time_Shift_5
Note_On_62_Vel_0
Time_Shift_4
Note_On_52_Vel_0
Time_Shift_2
Note_On_56_Vel_0
Time_Shift_1
Note_On_71_Vel_0
Time_Shift_158
Note_On_73_Vel_74
Time_Shift_11
Note_On_52_Vel_43
Time_Shift_1
Note_On_64_Vel_51
Time_Shift_3
Note_On_56_Vel_50
Time_Shift_2
Note_On_62_Vel_46
Time_Shift_17
Note_On_73_Vel_0
Time_Shift_27
Note_On_64_Vel_0
Time_Shift_4
Note_On_56_Vel_0
Time_Shift_1
Note_On_62_Vel_0
Time_Shift_5
Note_On_52_Vel_0
Time_Shift_217
Note_On_69_Vel_69
Time_Shift_2
Note_On_57_Vel_45
Time_Shift_3
Note_On_61_Vel_53
Time_Shift_1
Note_On_64_Vel_57
Time_Shift_535
Sustain_On
Time_Shift_70
Note_On_64_Vel_0
Time_Shift_2
Note_On_57_Vel_0
Time_Shift_2
Note_On_61_Vel_0
Time_Shift_3
Note_On_69_Vel_0
Sustain_Off
