Time_Shift_1187
Note_On_42_Vel_60
Note_On_54_Vel_49
Time_Shift_68
Note_On_57_Vel_63
Time_Shift_1
Note_On_45_Vel_55
Time_Shift_1
Note_On_54_Vel_0
Time_Shift_3
Note_On_42_Vel_0
Time_Shift_55
Note_On_52_Vel_56
Time_Shift_2
Note_On_57_Vel_0
Time_Shift_6
Note_On_40_Vel_58
Time_Shift_3
Note_On_45_Vel_0
Time_Shift_71
Note_On_53_Vel_54
Time_Shift_8
Note_On_41_Vel_55
Time_Shift_8
Note_On_40_Vel_0
Note_On_52_Vel_0
Time_Shift_27
Note_On_53_Vel_0
Time_Shift_8
Note_On_41_Vel_0
Time_Shift_40
Note_On_62_Vel_54
Time_Shift_19
Note_On_50_Vel_51
Time_Shift_17
Note_On_38_Vel_28
Time_Shift_122
Note_On_62_Vel_0
Note_On_50_Vel_0
Time_Shift_12
Note_On_38_Vel_0
Time_Shift_482
Note_On_41_Vel_53
Time_Shift_1
Note_On_53_Vel_46
Time_Shift_81
Note_On_56_Vel_72
Time_Shift_1
Note_On_53_Vel_0
Note_On_44_Vel_72
Time_Shift_1
Note_On_41_Vel_0
Time_Shift_68
Note_On_51_Vel_75
Time_Shift_4
Note_On_39_Vel_61
Time_Shift_22
Note_On_44_Vel_0
Time_Shift_4
Note_On_56_Vel_0
Time_Shift_47
Note_On_52_Vel_71
Note_On_40_Vel_75
Time_Shift_19
Note_On_39_Vel_0
Note_On_51_Vel_0
Time_Shift_80
Note_On_61_Vel_86
Note_On_49_Vel_82
Time_Shift_8
Note_On_52_Vel_0
Time_Shift_3
Note_On_40_Vel_0
Time_Shift_171
Note_On_61_Vel_0
Time_Shift_22
Note_On_49_Vel_0
Time_Shift_208
Sustain_On
Time_Shift_92
Note_On_60_Vel_88
Time_Shift_10
Note_On_48_Vel_89
Time_Shift_143
Note_On_60_Vel_0
Time_Shift_8
Note_On_48_Vel_0
Note_On_60_Vel_93
Time_Shift_5
Note_On_48_Vel_85
Time_Shift_110
Note_On_55_Vel_81
Time_Shift_4
Note_On_43_Vel_86
Time_Shift_104
Note_On_50_Vel_83
Time_Shift_1
Note_On_38_Vel_88
Time_Shift_89
Note_On_51_Vel_95
Time_Shift_1
Note_On_39_Vel_85
Time_Shift_106
Note_On_59_Vel_99
Time_Shift_1
Note_On_47_Vel_100
Time_Shift_2
Sustain_Off
Time_Shift_13
Note_On_60_Vel_0
Note_On_48_Vel_0
Time_Shift_1
Note_On_43_Vel_0
Time_Shift_1
Note_On_38_Vel_0
Time_Shift_1
Note_On_51_Vel_0
Note_On_50_Vel_0
Time_Shift_1
Note_On_39_Vel_0
Time_Shift_1
Note_On_55_Vel_0
Time_Shift_239
Note_On_47_Vel_0
Time_Shift_3
Note_On_59_Vel_0
Time_Shift_185
Sustain_On
Time_Shift_418
Note_On_90_Vel_108
Time_Shift_2
Note_On_66_Vel_96
Note_On_78_Vel_101
Time_Shift_1
Note_On_59_Vel_89
Time_Shift_1
Note_On_63_Vel_88
Time_Shift_4
Note_On_54_Vel_82
Note_On_51_Vel_84
Time_Shift_58
Note_On_59_Vel_0
Note_On_66_Vel_0
Note_On_78_Vel_0
Note_On_90_Vel_0
Time_Shift_7
Note_On_51_Vel_0
Note_On_54_Vel_0
Note_On_63_Vel_0
Time_Shift_1
Note_On_90_Vel_107
Time_Shift_1
Note_On_78_Vel_106
Time_Shift_2
Note_On_59_Vel_93
Note_On_66_Vel_101
Time_Shift_1
Note_On_63_Vel_94
Time_Shift_1
Note_On_51_Vel_91
Time_Shift_1
Note_On_54_Vel_84
Time_Shift_78
Sustain_Off
Time_Shift_153
Sustain_On
Time_Shift_1835
Note_On_90_Vel_0
Note_On_78_Vel_0
Time_Shift_1
Note_On_54_Vel_0
Time_Shift_1
Note_On_66_Vel_0
Sustain_Off
Note_On_59_Vel_0
Note_On_63_Vel_0
Time_Shift_22
Note_On_51_Vel_0
Time_Shift_9
Note_On_51_Vel_64
Note_On_39_Vel_60
Time_Shift_55
Note_On_39_Vel_0
Time_Shift_3
Note_On_51_Vel_0
Time_Shift_6
Note_On_54_Vel_66
Time_Shift_9
Note_On_42_Vel_58
Time_Shift_48
Note_On_54_Vel_0
Time_Shift_2
Note_On_42_Vel_0
Time_Shift_28
Note_On_38_Vel_54
Time_Shift_1
Note_On_50_Vel_51
Time_Shift_44
Note_On_50_Vel_0
Time_Shift_5
Note_On_38_Vel_0
Time_Shift_17
Note_On_39_Vel_51
Time_Shift_3
Note_On_51_Vel_54
Time_Shift_42
Note_On_51_Vel_0
Time_Shift_41
Note_On_59_Vel_62
Time_Shift_16
Note_On_47_Vel_42
Time_Shift_135
Note_On_59_Vel_0
Time_Shift_7
Note_On_47_Vel_0
Time_Shift_28
Note_On_39_Vel_0
Time_Shift_360
Note_On_50_Vel_72
Time_Shift_4
Note_On_38_Vel_60
Time_Shift_34
Note_On_50_Vel_0
Time_Shift_32
Note_On_54_Vel_82
Time_Shift_6
Note_On_42_Vel_77
Time_Shift_17
Note_On_38_Vel_0
Time_Shift_50
Note_On_49_Vel_74
Time_Shift_2
Note_On_37_Vel_65
Time_Shift_13
Note_On_42_Vel_0
Time_Shift_4
Note_On_54_Vel_0
Time_Shift_28
Note_On_49_Vel_0
Time_Shift_10
Note_On_37_Vel_0
Time_Shift_23
Note_On_50_Vel_75
Time_Shift_3
Note_On_38_Vel_69
Time_Shift_77
Note_On_50_Vel_0
Time_Shift_2
Note_On_38_Vel_0
Time_Shift_14
Note_On_59_Vel_85
Time_Shift_5
Note_On_47_Vel_80
Time_Shift_146
Sustain_On
Time_Shift_352
Note_On_59_Vel_0
Time_Shift_2
Note_On_47_Vel_0
Time_Shift_1
Note_On_58_Vel_96
Time_Shift_2
Sustain_Off
Time_Shift_1
Note_On_46_Vel_99
Time_Shift_56
Sustain_On
Time_Shift_116
Note_On_46_Vel_0
Note_On_58_Vel_0
Time_Shift_5
Note_On_58_Vel_96
Time_Shift_6
Note_On_46_Vel_95
Time_Shift_2
Sustain_Off
Time_Shift_63
Sustain_On
Time_Shift_52
Note_On_51_Vel_91
Time_Shift_2
Note_On_39_Vel_86
Time_Shift_105
Note_On_47_Vel_86
Note_On_35_Vel_91
Time_Shift_101
Note_On_48_Vel_97
Time_Shift_1
Note_On_36_Vel_91
Time_Shift_103
Note_On_57_Vel_104
Time_Shift_1
Note_On_45_Vel_108
Time_Shift_67
Note_On_48_Vel_0
Time_Shift_1
Note_On_36_Vel_0
Note_On_47_Vel_0
Note_On_51_Vel_0
Note_On_39_Vel_0
Time_Shift_1
Note_On_35_Vel_0
Time_Shift_4
Note_On_46_Vel_0
Time_Shift_1
Sustain_Off
Time_Shift_14
Note_On_58_Vel_0
Time_Shift_154
Note_On_45_Vel_0
Note_On_57_Vel_0
Time_Shift_177
Sustain_On
Time_Shift_352
Note_On_90_Vel_108
Time_Shift_3
Note_On_78_Vel_101
Time_Shift_1
Note_On_57_Vel_88
Note_On_66_Vel_93
Time_Shift_2
Note_On_54_Vel_84
Time_Shift_6
Note_On_63_Vel_81
Note_On_51_Vel_83
Time_Shift_58
Note_On_78_Vel_0
Note_On_90_Vel_0
Time_Shift_6
Note_On_90_Vel_108
Time_Shift_2
Note_On_51_Vel_0
Note_On_54_Vel_0
Note_On_57_Vel_0
Note_On_63_Vel_0
Note_On_66_Vel_0
Time_Shift_3
Note_On_78_Vel_101
Time_Shift_1
Note_On_66_Vel_95
Time_Shift_1
Note_On_51_Vel_96
Note_On_57_Vel_89
Time_Shift_1
Note_On_54_Vel_92
Time_Shift_4
Note_On_63_Vel_88
Time_Shift_97
Sustain_Off
Time_Shift_108
Sustain_On
Time_Shift_123
Sustain_Off
Time_Shift_84
Sustain_On
Time_Shift_1217
Note_On_48_Vel_115
Time_Shift_3
Note_On_36_Vel_97
Time_Shift_44
Sustain_Off
Time_Shift_15
Note_On_51_Vel_0
Note_On_78_Vel_0
Time_Shift_1
Note_On_54_Vel_0
Time_Shift_1
Note_On_90_Vel_0
Time_Shift_1
Note_On_57_Vel_0
Time_Shift_1
Note_On_63_Vel_0
Note_On_66_Vel_0
Time_Shift_4
Note_On_48_Vel_0
Time_Shift_100
Note_On_42_Vel_98
Time_Shift_4
Note_On_30_Vel_80
Time_Shift_30
Note_On_36_Vel_0
Time_Shift_19
Note_On_42_Vel_0
Time_Shift_12
Note_On_30_Vel_0
Time_Shift_70
Note_On_45_Vel_92
Time_Shift_1
Note_On_33_Vel_90
Time_Shift_55
Note_On_45_Vel_0
Time_Shift_50
Note_On_33_Vel_0
Time_Shift_27
Note_On_57_Vel_114
Time_Shift_2
Note_On_45_Vel_114
Time_Shift_5
Note_On_33_Vel_101
Time_Shift_51
Sustain_On
Time_Shift_115
Note_On_33_Vel_0
Time_Shift_9
Sustain_Off
Time_Shift_5
Note_On_57_Vel_0
Time_Shift_9
Note_On_45_Vel_0
Time_Shift_77
Sustain_On
Time_Shift_284
Sustain_Off
Time_Shift_100
Sustain_On
Time_Shift_42
Note_On_78_Vel_105
Note_On_66_Vel_103
Note_On_90_Vel_110
Time_Shift_1
Note_On_62_Vel_93
Time_Shift_1
Note_On_57_Vel_88
Time_Shift_56
Note_On_57_Vel_0
Note_On_78_Vel_0
Note_On_90_Vel_0
Time_Shift_7
Note_On_62_Vel_0
Note_On_66_Vel_0
Time_Shift_3
Note_On_78_Vel_105
Note_On_90_Vel_110
Time_Shift_1
Note_On_57_Vel_98
Time_Shift_1
Note_On_66_Vel_99
Note_On_62_Vel_95
Time_Shift_1593
Note_On_45_Vel_112
Time_Shift_1
Note_On_33_Vel_106
Time_Shift_16
Note_On_78_Vel_0
Time_Shift_5
Note_On_90_Vel_0
Time_Shift_1
Note_On_66_Vel_0
Time_Shift_2
Note_On_62_Vel_0
Time_Shift_17
Sustain_Off
Time_Shift_818
Sustain_On
Time_Shift_736
Sustain_Off
Time_Shift_17
Note_On_45_Vel_0
Time_Shift_38
Note_On_33_Vel_0
Time_Shift_8
Note_On_57_Vel_0
Time_Shift_126
Note_On_30_Vel_97
Note_On_42_Vel_97
Time_Shift_48
Note_On_42_Vel_0
Time_Shift_5
Note_On_30_Vel_0
Time_Shift_61
Note_On_43_Vel_96
Time_Shift_1
Note_On_31_Vel_92
Time_Shift_49
Note_On_31_Vel_0
Time_Shift_2
Note_On_43_Vel_0
Time_Shift_63
Note_On_33_Vel_94
Time_Shift_1
Note_On_45_Vel_105
Time_Shift_40
Note_On_45_Vel_0
Time_Shift_34
Note_On_33_Vel_0
Time_Shift_52
Note_On_36_Vel_106
Time_Shift_3
Note_On_24_Vel_101
Time_Shift_198
Sustain_On
Time_Shift_165
Sustain_Off
Time_Shift_9
Note_On_73_Vel_112
Note_On_85_Vel_102
Time_Shift_7
Note_On_25_Vel_102
Note_On_37_Vel_103
Time_Shift_27
Note_On_36_Vel_0
Time_Shift_84
Sustain_On
Time_Shift_146
Note_On_24_Vel_0
Time_Shift_66
Note_On_85_Vel_0
Time_Shift_2
Note_On_73_Vel_0
Time_Shift_6
Sustain_Off
Time_Shift_3
Note_On_25_Vel_0
Time_Shift_15
Note_On_37_Vel_0
Time_Shift_10
Note_On_57_Vel_113
Note_On_69_Vel_107
Time_Shift_1
Note_On_81_Vel_102
Time_Shift_2
Note_On_45_Vel_100
Time_Shift_95
Sustain_On
Time_Shift_263
Note_On_56_Vel_95
Time_Shift_1
Note_On_68_Vel_90
Note_On_44_Vel_93
Time_Shift_1
Note_On_80_Vel_84
Time_Shift_19
Note_On_81_Vel_0
Time_Shift_13
Note_On_69_Vel_0
Time_Shift_1
Sustain_Off
Time_Shift_1
Note_On_45_Vel_0
Note_On_57_Vel_0
Note_On_80_Vel_0
Time_Shift_4
Note_On_68_Vel_0
Note_On_56_Vel_0
Time_Shift_3
Note_On_44_Vel_0
Time_Shift_67
Note_On_54_Vel_86
Note_On_78_Vel_84
Note_On_42_Vel_93
Note_On_66_Vel_86
Time_Shift_33
Note_On_66_Vel_0
Note_On_54_Vel_0
Time_Shift_5
Note_On_42_Vel_0
Time_Shift_3
Note_On_78_Vel_0
Time_Shift_64
Note_On_64_Vel_87
Note_On_52_Vel_86
Time_Shift_1
Note_On_76_Vel_87
Note_On_40_Vel_95
Time_Shift_24
Note_On_52_Vel_0
Time_Shift_2
Note_On_64_Vel_0
Time_Shift_3
Note_On_40_Vel_0
Time_Shift_4
Note_On_76_Vel_0
Time_Shift_82
Note_On_57_Vel_96
Time_Shift_1
Note_On_81_Vel_95
Note_On_69_Vel_93
Note_On_45_Vel_81
Time_Shift_23
Note_On_69_Vel_0
Time_Shift_1
Note_On_57_Vel_0
Time_Shift_3
Note_On_81_Vel_0
Time_Shift_23
Note_On_45_Vel_0
Time_Shift_50
Note_On_56_Vel_99
Note_On_44_Vel_96
Note_On_80_Vel_90
Time_Shift_1
Note_On_68_Vel_92
Time_Shift_27
Note_On_56_Vel_0
Time_Shift_2
Note_On_68_Vel_0
Time_Shift_2
Note_On_80_Vel_0
Note_On_44_Vel_0
Time_Shift_74
Note_On_55_Vel_99
Time_Shift_1
Note_On_43_Vel_89
Time_Shift_2
Note_On_79_Vel_87
Note_On_67_Vel_85
Time_Shift_30
Note_On_55_Vel_0
Time_Shift_4
Note_On_43_Vel_0
Time_Shift_14
Note_On_67_Vel_0
Time_Shift_8
Note_On_79_Vel_0
Time_Shift_48
Note_On_56_Vel_108
Note_On_80_Vel_101
Time_Shift_1
Note_On_68_Vel_99
Time_Shift_1
Note_On_44_Vel_102
Time_Shift_36
Note_On_56_Vel_0
Note_On_68_Vel_0
Time_Shift_2
Note_On_80_Vel_0
Time_Shift_8
Note_On_44_Vel_0
Time_Shift_55
Note_On_78_Vel_94
Time_Shift_3
Note_On_54_Vel_95
Note_On_66_Vel_93
Time_Shift_1
Note_On_42_Vel_98
Time_Shift_33
Note_On_66_Vel_0
Time_Shift_2
Note_On_54_Vel_0
Time_Shift_5
Note_On_78_Vel_0
Time_Shift_2
Note_On_42_Vel_0
Time_Shift_66
Note_On_52_Vel_90
Note_On_76_Vel_94
Time_Shift_2
Note_On_64_Vel_85
Note_On_40_Vel_99
Time_Shift_25
Note_On_52_Vel_0
Time_Shift_1
Note_On_64_Vel_0
Time_Shift_4
Note_On_76_Vel_0
Note_On_40_Vel_0
Time_Shift_83
Note_On_57_Vel_101
Time_Shift_2
Note_On_81_Vel_94
Note_On_45_Vel_87
Time_Shift_1
Note_On_69_Vel_89
Time_Shift_23
Note_On_69_Vel_0
Time_Shift_6
Note_On_81_Vel_0
Note_On_57_Vel_0
Time_Shift_6
Note_On_45_Vel_0
Time_Shift_63
Note_On_80_Vel_94
Note_On_56_Vel_101
Note_On_44_Vel_99
Time_Shift_1
Note_On_68_Vel_91
Time_Shift_25
Note_On_56_Vel_0
Time_Shift_6
Note_On_44_Vel_0
Time_Shift_1
Note_On_68_Vel_0
Time_Shift_9
Note_On_80_Vel_0
Time_Shift_64
Note_On_55_Vel_99
Time_Shift_1
Note_On_79_Vel_94
Note_On_67_Vel_86
Time_Shift_1
Note_On_43_Vel_89
Time_Shift_32
Note_On_55_Vel_0
Time_Shift_1
Note_On_67_Vel_0
Time_Shift_1
Note_On_79_Vel_0
Time_Shift_3
Note_On_43_Vel_0
Time_Shift_63
Note_On_80_Vel_109
Note_On_68_Vel_109
Time_Shift_2
Note_On_56_Vel_112
Note_On_44_Vel_107
Time_Shift_17
Sustain_On
Time_Shift_86
Note_On_44_Vel_0
Time_Shift_2
Note_On_80_Vel_0
Time_Shift_1
Note_On_68_Vel_0
Sustain_Off
Time_Shift_19
Note_On_56_Vel_0
Time_Shift_41
Note_On_52_Vel_88
Time_Shift_1
Note_On_76_Vel_80
Note_On_64_Vel_78
Time_Shift_2
Note_On_40_Vel_82
Time_Shift_21
Note_On_52_Vel_0
Time_Shift_2
Note_On_76_Vel_0
Time_Shift_33
Note_On_64_Vel_0
Time_Shift_7
Note_On_40_Vel_0
Time_Shift_42
Note_On_51_Vel_94
Note_On_75_Vel_96
Note_On_39_Vel_88
Time_Shift_1
Note_On_63_Vel_82
Time_Shift_25
Note_On_51_Vel_0
Time_Shift_3
Note_On_75_Vel_0
Time_Shift_29
Note_On_39_Vel_0
Time_Shift_8
Note_On_63_Vel_0
Time_Shift_34
Note_On_73_Vel_87
Note_On_49_Vel_87
Time_Shift_1
Note_On_61_Vel_83
Time_Shift_1
Note_On_37_Vel_91
Time_Shift_30
Note_On_61_Vel_0
Note_On_73_Vel_0
Time_Shift_1
Note_On_49_Vel_0
Time_Shift_4
Note_On_37_Vel_0
Time_Shift_72
Note_On_71_Vel_82
Time_Shift_3
Note_On_47_Vel_77
Time_Shift_2
Note_On_59_Vel_89
Time_Shift_1
Note_On_35_Vel_79
Time_Shift_24
Note_On_47_Vel_0
Time_Shift_19
Note_On_59_Vel_0
Note_On_71_Vel_0
Time_Shift_15
Note_On_35_Vel_0
Time_Shift_45
Note_On_69_Vel_87
Note_On_57_Vel_84
Time_Shift_4
Note_On_45_Vel_77
Time_Shift_2
Note_On_33_Vel_72
Time_Shift_17
Note_On_69_Vel_0
Time_Shift_24
Note_On_57_Vel_0
Time_Shift_8
Note_On_45_Vel_0
Time_Shift_8
Note_On_33_Vel_0
Time_Shift_51
Note_On_68_Vel_96
Time_Shift_2
Note_On_56_Vel_87
Time_Shift_4
Note_On_32_Vel_78
Note_On_44_Vel_83
Time_Shift_334
Sustain_On
Time_Shift_423
Note_On_56_Vel_0
Time_Shift_5
Note_On_56_Vel_88
Time_Shift_456
Note_On_64_Vel_88
Time_Shift_8
Sustain_Off
Time_Shift_12
Note_On_61_Vel_71
Time_Shift_13
Note_On_68_Vel_0
Time_Shift_2
Note_On_56_Vel_0
Time_Shift_1
Note_On_32_Vel_0
Time_Shift_117
Sustain_On
Time_Shift_174
Note_On_58_Vel_75
Time_Shift_104
Note_On_58_Vel_0
Note_On_61_Vel_0
Time_Shift_2
Sustain_Off
Note_On_64_Vel_0
Time_Shift_12
Note_On_44_Vel_0
Time_Shift_3
Note_On_63_Vel_92
Time_Shift_2
Note_On_60_Vel_69
Time_Shift_2
Note_On_44_Vel_79
Time_Shift_11
Note_On_32_Vel_64
Time_Shift_5
Note_On_32_Vel_0
Time_Shift_54
Note_On_60_Vel_0
Time_Shift_36
Note_On_58_Vel_78
Time_Shift_84
Note_On_58_Vel_0
Time_Shift_24
Note_On_56_Vel_72
Time_Shift_36
Note_On_63_Vel_0
Time_Shift_1
Note_On_56_Vel_0
Time_Shift_84
Note_On_64_Vel_85
Time_Shift_6
Note_On_61_Vel_77
Time_Shift_1
Note_On_55_Vel_70
Time_Shift_63
Note_On_61_Vel_0
Time_Shift_45
Note_On_60_Vel_74
Time_Shift_63
Note_On_60_Vel_0
Time_Shift_33
Note_On_44_Vel_0
Time_Shift_4
Note_On_55_Vel_0
Time_Shift_10
Note_On_58_Vel_78
Time_Shift_24
Sustain_On
Time_Shift_67
Note_On_60_Vel_63
Time_Shift_4
Note_On_72_Vel_67
Time_Shift_2
Note_On_63_Vel_69
Time_Shift_15
Note_On_68_Vel_64
Time_Shift_8
Note_On_56_Vel_65
Time_Shift_1
Note_On_44_Vel_67
Time_Shift_103
Note_On_44_Vel_0
Note_On_56_Vel_0
Note_On_68_Vel_0
Time_Shift_7
Note_On_44_Vel_79
Time_Shift_2
Note_On_56_Vel_81
Time_Shift_1
Note_On_80_Vel_90
Time_Shift_1
Note_On_68_Vel_80
Time_Shift_12
Note_On_64_Vel_0
Time_Shift_19
Note_On_60_Vel_0
Note_On_58_Vel_0
Time_Shift_1
Note_On_56_Vel_0
Note_On_63_Vel_0
Note_On_44_Vel_0
Note_On_68_Vel_0
Time_Shift_3
Note_On_80_Vel_0
Note_On_72_Vel_0
Time_Shift_1
Sustain_Off
Time_Shift_60
Note_On_57_Vel_87
Time_Shift_3
Note_On_45_Vel_80
Time_Shift_1
Note_On_81_Vel_89
Note_On_69_Vel_89
Time_Shift_21
Note_On_69_Vel_0
Time_Shift_2
Note_On_81_Vel_0
Note_On_57_Vel_0
Time_Shift_1
Note_On_45_Vel_0
Time_Shift_83
Note_On_53_Vel_87
Time_Shift_1
Note_On_41_Vel_78
Time_Shift_5
Note_On_77_Vel_83
Time_Shift_3
Note_On_65_Vel_80
Time_Shift_16
Note_On_53_Vel_0
Time_Shift_6
Note_On_77_Vel_0
Time_Shift_20
Note_On_41_Vel_0
Note_On_65_Vel_0
Time_Shift_52
Note_On_54_Vel_92
Note_On_78_Vel_94
Note_On_42_Vel_93
Time_Shift_5
Note_On_66_Vel_86
Time_Shift_23
Note_On_54_Vel_0
Time_Shift_1
Note_On_78_Vel_0
Time_Shift_1
Note_On_42_Vel_0
Time_Shift_25
Note_On_66_Vel_0
Time_Shift_69
Note_On_64_Vel_103
Note_On_88_Vel_103
Note_On_76_Vel_105
Time_Shift_4
Note_On_52_Vel_89
Time_Shift_23
Note_On_64_Vel_0
Time_Shift_1
Note_On_76_Vel_0
Time_Shift_1
Note_On_52_Vel_0
Time_Shift_2
Note_On_88_Vel_0
Time_Shift_65
Note_On_73_Vel_113
Note_On_85_Vel_101
Note_On_61_Vel_110
Time_Shift_1
Note_On_49_Vel_99
Time_Shift_19
Sustain_On
Time_Shift_334
Note_On_69_Vel_107
Note_On_57_Vel_107
Time_Shift_1
Note_On_81_Vel_100
Time_Shift_6
Note_On_45_Vel_90
Time_Shift_38
Sustain_Off
Time_Shift_2
Note_On_73_Vel_0
Note_On_85_Vel_0
Note_On_61_Vel_0
Time_Shift_1
Note_On_49_Vel_0
Time_Shift_25
Sustain_On
Time_Shift_274
Note_On_56_Vel_85
Note_On_68_Vel_84
Note_On_80_Vel_78
Time_Shift_2
Note_On_44_Vel_82
Time_Shift_16
Note_On_45_Vel_0
Time_Shift_1
Note_On_57_Vel_0
Time_Shift_9
Sustain_Off
Time_Shift_1
Note_On_56_Vel_0
Time_Shift_4
Note_On_69_Vel_0
Note_On_81_Vel_0
Time_Shift_3
Note_On_44_Vel_0
Time_Shift_5
Note_On_80_Vel_0
Time_Shift_7
Note_On_68_Vel_0
Time_Shift_63
Note_On_54_Vel_82
Time_Shift_1
Note_On_42_Vel_90
Time_Shift_1
Note_On_66_Vel_82
Time_Shift_1
Note_On_78_Vel_78
Time_Shift_26
Note_On_54_Vel_0
Time_Shift_1
Note_On_78_Vel_0
Time_Shift_4
Note_On_66_Vel_0
Time_Shift_26
Note_On_42_Vel_0
Time_Shift_41
Note_On_52_Vel_83
Time_Shift_1
Note_On_64_Vel_87
Note_On_76_Vel_89
Time_Shift_1
Note_On_40_Vel_90
Time_Shift_26
Note_On_52_Vel_0
Time_Shift_2
Note_On_64_Vel_0
Time_Shift_3
Note_On_40_Vel_0
Note_On_76_Vel_0
Time_Shift_83
Note_On_81_Vel_95
Time_Shift_1
Note_On_69_Vel_89
Note_On_57_Vel_86
Time_Shift_2
Note_On_45_Vel_77
Time_Shift_28
Note_On_69_Vel_0
Time_Shift_1
Note_On_57_Vel_0
Note_On_81_Vel_0
Time_Shift_8
Note_On_45_Vel_0
Time_Shift_61
Note_On_56_Vel_97
Note_On_80_Vel_94
Note_On_44_Vel_96
Time_Shift_1
Note_On_68_Vel_92
Time_Shift_27
Note_On_56_Vel_0
Time_Shift_3
Note_On_68_Vel_0
Time_Shift_4
Note_On_44_Vel_0
Time_Shift_14
Note_On_80_Vel_0
Time_Shift_51
Note_On_55_Vel_98
Time_Shift_1
Note_On_43_Vel_91
Time_Shift_3
Note_On_79_Vel_88
Note_On_67_Vel_82
Time_Shift_30
Note_On_55_Vel_0
Time_Shift_2
Note_On_43_Vel_0
Time_Shift_5
Note_On_79_Vel_0
Time_Shift_16
Note_On_67_Vel_0
Time_Shift_46
Note_On_56_Vel_103
Time_Shift_2
Note_On_80_Vel_97
Note_On_44_Vel_96
Time_Shift_1
Note_On_68_Vel_96
Time_Shift_32
Note_On_56_Vel_0
Time_Shift_3
Note_On_68_Vel_0
Time_Shift_1
Note_On_80_Vel_0
Time_Shift_2
Note_On_44_Vel_0
Time_Shift_64
Note_On_54_Vel_96
Time_Shift_3
Note_On_42_Vel_99
Time_Shift_1
Note_On_78_Vel_90
Time_Shift_2
Note_On_66_Vel_89
Time_Shift_26
Note_On_66_Vel_0
Time_Shift_3
Note_On_54_Vel_0
Note_On_78_Vel_0
Time_Shift_3
Note_On_42_Vel_0
Time_Shift_66
Note_On_40_Vel_98
Time_Shift_1
Note_On_52_Vel_85
Time_Shift_1
Note_On_64_Vel_85
Note_On_76_Vel_93
Time_Shift_1
Note_On_68_Vel_85
Time_Shift_30
Note_On_52_Vel_0
Time_Shift_1
Note_On_64_Vel_0
Time_Shift_3
Note_On_40_Vel_0
Time_Shift_2
Note_On_76_Vel_0
Time_Shift_21
Note_On_68_Vel_0
Time_Shift_57
Note_On_57_Vel_103
Time_Shift_1
Note_On_45_Vel_92
Time_Shift_1
Note_On_81_Vel_98
Time_Shift_1
Note_On_69_Vel_91
Time_Shift_29
Note_On_57_Vel_0
Note_On_81_Vel_0
Time_Shift_4
Note_On_45_Vel_0
Time_Shift_14
Note_On_69_Vel_0
Time_Shift_50
Note_On_56_Vel_99
Time_Shift_1
Note_On_44_Vel_95
Note_On_80_Vel_96
Time_Shift_1
Note_On_68_Vel_95
Time_Shift_32
Note_On_68_Vel_0
Time_Shift_3
Note_On_44_Vel_0
Time_Shift_4
Note_On_80_Vel_0
Time_Shift_9
Note_On_56_Vel_0
Time_Shift_51
Note_On_55_Vel_99
Note_On_43_Vel_93
Time_Shift_2
Note_On_79_Vel_98
Note_On_67_Vel_88
Time_Shift_33
Note_On_55_Vel_0
Time_Shift_2
Note_On_43_Vel_0
Note_On_67_Vel_0
Note_On_79_Vel_0
Time_Shift_69
Note_On_80_Vel_109
Note_On_56_Vel_111
Note_On_68_Vel_109
Time_Shift_1
Note_On_44_Vel_104
Time_Shift_34
Sustain_On
Time_Shift_43
Note_On_44_Vel_0
Note_On_56_Vel_0
Time_Shift_11
Note_On_68_Vel_0
Time_Shift_4
Sustain_Off
Time_Shift_4
Note_On_80_Vel_0
Time_Shift_58
Note_On_52_Vel_85
Time_Shift_5
Note_On_64_Vel_76
Time_Shift_1
Note_On_76_Vel_88
Time_Shift_1
Note_On_40_Vel_79
Time_Shift_24
Note_On_40_Vel_0
Time_Shift_1
Note_On_76_Vel_0
Time_Shift_17
Note_On_52_Vel_0
Time_Shift_16
Note_On_64_Vel_0
Time_Shift_46
Note_On_51_Vel_89
Time_Shift_2
Note_On_63_Vel_85
Note_On_75_Vel_86
Time_Shift_1
Note_On_39_Vel_83
Time_Shift_29
Note_On_63_Vel_0
Time_Shift_3
Note_On_75_Vel_0
Time_Shift_11
Note_On_51_Vel_0
Time_Shift_15
Note_On_39_Vel_0
Time_Shift_43
Note_On_73_Vel_78
Time_Shift_4
Note_On_61_Vel_79
Time_Shift_2
Note_On_49_Vel_82
Time_Shift_1
Note_On_37_Vel_87
Time_Shift_25
Note_On_49_Vel_0
Note_On_61_Vel_0
Time_Shift_5
Note_On_73_Vel_0
Time_Shift_1
Note_On_37_Vel_0
Time_Shift_75
Note_On_47_Vel_76
Time_Shift_1
Note_On_59_Vel_80
Note_On_71_Vel_76
Note_On_35_Vel_79
Time_Shift_24
Note_On_59_Vel_0
Time_Shift_2
Note_On_47_Vel_0
Time_Shift_3
Note_On_71_Vel_0
Time_Shift_6
Note_On_35_Vel_0
Time_Shift_73
Note_On_69_Vel_89
Time_Shift_1
Note_On_57_Vel_80
Time_Shift_4
Note_On_45_Vel_72
Time_Shift_2
Note_On_33_Vel_71
Time_Shift_26
Note_On_57_Vel_0
Time_Shift_1
Note_On_69_Vel_0
Time_Shift_4
Note_On_45_Vel_0
Time_Shift_1
Note_On_33_Vel_0
Time_Shift_83
Note_On_68_Vel_92
Note_On_56_Vel_84
Time_Shift_3
Note_On_32_Vel_61
Note_On_44_Vel_74
Time_Shift_739
Sustain_On
Time_Shift_32
Note_On_68_Vel_0
Time_Shift_6
Note_On_32_Vel_0
Note_On_44_Vel_0
Time_Shift_6
Sustain_Off
Time_Shift_6
Note_On_59_Vel_71
Time_Shift_15
Note_On_40_Vel_50
Time_Shift_9
Note_On_28_Vel_46
Time_Shift_149
Sustain_On
Time_Shift_211
Note_On_59_Vel_0
Note_On_40_Vel_0
Time_Shift_4
Note_On_28_Vel_0
Note_On_56_Vel_0
Time_Shift_11
Sustain_Off
Time_Shift_6
Note_On_64_Vel_60
Time_Shift_6
Note_On_61_Vel_60
Time_Shift_4
Note_On_57_Vel_48
Time_Shift_2
Note_On_45_Vel_48
Time_Shift_6
Note_On_33_Vel_38
Time_Shift_95
Sustain_On
Time_Shift_238
Note_On_33_Vel_0
Time_Shift_19
Note_On_68_Vel_66
Note_On_59_Vel_60
Time_Shift_2
Note_On_56_Vel_61
Time_Shift_2
Note_On_61_Vel_0
Note_On_64_Vel_0
Time_Shift_1
Note_On_45_Vel_0
Note_On_57_Vel_0
Time_Shift_3
Sustain_Off
Time_Shift_10
Note_On_47_Vel_35
Time_Shift_4
Note_On_40_Vel_42
Time_Shift_2
Note_On_52_Vel_38
Time_Shift_88
Sustain_On
Time_Shift_2
Note_On_66_Vel_70
Time_Shift_88
Note_On_64_Vel_71
Time_Shift_99
Note_On_66_Vel_0
Note_On_68_Vel_0
Note_On_56_Vel_0
Time_Shift_1
Note_On_59_Vel_0
Note_On_47_Vel_0
Note_On_40_Vel_0
Time_Shift_5
Sustain_Off
Time_Shift_20
Note_On_52_Vel_0
Note_On_64_Vel_0
Time_Shift_6
Note_On_64_Vel_78
Time_Shift_2
Note_On_61_Vel_76
Time_Shift_2
Note_On_52_Vel_54
Note_On_45_Vel_61
Time_Shift_1
Note_On_33_Vel_53
Time_Shift_4
Note_On_33_Vel_0
Time_Shift_100
Sustain_On
Note_On_59_Vel_72
Time_Shift_124
Note_On_57_Vel_66
Time_Shift_102
Sustain_Off
Note_On_52_Vel_0
Note_On_59_Vel_0
Time_Shift_1
Note_On_64_Vel_0
Note_On_45_Vel_0
Note_On_61_Vel_0
Time_Shift_57
Note_On_57_Vel_0
Time_Shift_5
Note_On_66_Vel_59
Time_Shift_5
Note_On_57_Vel_43
Time_Shift_1
Note_On_51_Vel_41
Note_On_59_Vel_44
Time_Shift_1
Note_On_47_Vel_42
Time_Shift_173
Sustain_On
Time_Shift_392
Note_On_51_Vel_0
Time_Shift_2
Note_On_66_Vel_0
Note_On_57_Vel_0
Note_On_64_Vel_47
Time_Shift_1
Sustain_Off
Note_On_47_Vel_0
Time_Shift_7
Note_On_56_Vel_43
Time_Shift_7
Note_On_40_Vel_39
Note_On_52_Vel_42
Time_Shift_174
Sustain_On
Time_Shift_16
Note_On_59_Vel_0
Time_Shift_255
Note_On_56_Vel_0
Note_On_64_Vel_0
Time_Shift_1
Note_On_52_Vel_0
Note_On_40_Vel_0
Time_Shift_1
Sustain_Off
Time_Shift_155
Note_On_54_Vel_74
Time_Shift_32
Note_On_54_Vel_0
Time_Shift_68
Note_On_56_Vel_69
Time_Shift_32
Note_On_56_Vel_0
Time_Shift_74
Note_On_52_Vel_70
Time_Shift_39
Note_On_52_Vel_0
Time_Shift_78
Note_On_51_Vel_63
Time_Shift_36
Note_On_51_Vel_0
Time_Shift_70
Note_On_52_Vel_59
Time_Shift_39
Note_On_52_Vel_0
Time_Shift_70
Note_On_49_Vel_67
Time_Shift_38
Note_On_49_Vel_0
Time_Shift_75
Note_On_68_Vel_77
Note_On_48_Vel_62
Note_On_63_Vel_76
Time_Shift_1
Note_On_56_Vel_70
Time_Shift_38
Note_On_48_Vel_0
Time_Shift_76
Note_On_46_Vel_59
Time_Shift_42
Note_On_46_Vel_0
Time_Shift_60
Note_On_68_Vel_0
Time_Shift_2
Note_On_63_Vel_0
Time_Shift_6
Note_On_44_Vel_61
Time_Shift_10
Note_On_56_Vel_0
Time_Shift_36
Note_On_44_Vel_0
Time_Shift_60
Note_On_67_Vel_74
Note_On_52_Vel_70
Time_Shift_2
Note_On_58_Vel_75
Time_Shift_53
Note_On_52_Vel_0
Time_Shift_63
Note_On_51_Vel_68
Time_Shift_35
Note_On_51_Vel_0
Time_Shift_1
Note_On_67_Vel_0
Time_Shift_78
Note_On_49_Vel_67
Time_Shift_3
Note_On_64_Vel_69
Time_Shift_34
Note_On_58_Vel_0
Time_Shift_1
Note_On_49_Vel_0
Time_Shift_25
Note_On_64_Vel_0
Time_Shift_50
Note_On_68_Vel_90
Time_Shift_1
Note_On_48_Vel_69
Time_Shift_1
Note_On_56_Vel_80
Time_Shift_1
Note_On_63_Vel_77
Time_Shift_37
Note_On_48_Vel_0
Time_Shift_78
Note_On_46_Vel_65
Time_Shift_37
Note_On_46_Vel_0
Time_Shift_68
Note_On_44_Vel_81
Time_Shift_11
Note_On_56_Vel_0
Time_Shift_5
Note_On_63_Vel_0
Time_Shift_7
Note_On_68_Vel_0
Time_Shift_14
Note_On_44_Vel_0
Time_Shift_92
Note_On_52_Vel_69
Time_Shift_1
Note_On_58_Vel_79
Time_Shift_1
Note_On_67_Vel_74
Time_Shift_30
Note_On_52_Vel_0
Time_Shift_8
Note_On_58_Vel_0
Time_Shift_7
Note_On_67_Vel_0
Time_Shift_62
Note_On_66_Vel_81
Time_Shift_9
Note_On_51_Vel_64
Time_Shift_37
Note_On_66_Vel_0
Time_Shift_1
Note_On_51_Vel_0
Time_Shift_46
Note_On_64_Vel_72
Time_Shift_10
Note_On_49_Vel_79
Time_Shift_32
Note_On_64_Vel_0
Time_Shift_3
Note_On_49_Vel_0
Time_Shift_71
Note_On_68_Vel_93
Time_Shift_1
Note_On_63_Vel_88
Time_Shift_4
Note_On_56_Vel_82
Time_Shift_1
Note_On_48_Vel_73
Time_Shift_50
Note_On_48_Vel_0
Time_Shift_66
Note_On_46_Vel_71
Time_Shift_41
Note_On_46_Vel_0
Time_Shift_12
Note_On_63_Vel_0
Time_Shift_54
Note_On_44_Vel_76
Time_Shift_44
Note_On_44_Vel_0
Time_Shift_86
Note_On_64_Vel_72
Note_On_49_Vel_76
Time_Shift_1
Note_On_61_Vel_76
Time_Shift_28
Note_On_49_Vel_0
Time_Shift_14
Note_On_56_Vel_0
Time_Shift_7
Note_On_61_Vel_0
Time_Shift_8
Note_On_64_Vel_0
Time_Shift_23
Note_On_68_Vel_0
Time_Shift_29
Note_On_51_Vel_67
Time_Shift_32
Note_On_51_Vel_0
Time_Shift_84
Note_On_61_Vel_86
Time_Shift_4
Note_On_52_Vel_67
Time_Shift_29
Note_On_52_Vel_0
Time_Shift_14
Note_On_61_Vel_0
Time_Shift_64
Note_On_69_Vel_95
Note_On_57_Vel_92
Time_Shift_2
Note_On_60_Vel_86
Time_Shift_5
Note_On_54_Vel_79
Time_Shift_90
Note_On_54_Vel_0
Time_Shift_23
Note_On_56_Vel_77
Time_Shift_117
Note_On_54_Vel_70
Time_Shift_18
Note_On_69_Vel_0
Time_Shift_1
Note_On_60_Vel_0
Time_Shift_3
Note_On_56_Vel_0
Time_Shift_7
Note_On_57_Vel_0
Time_Shift_16
Note_On_54_Vel_0
Time_Shift_82
Note_On_52_Vel_61
Note_On_68_Vel_81
Time_Shift_3
Note_On_56_Vel_73
Note_On_61_Vel_77
Time_Shift_30
Note_On_52_Vel_0
Time_Shift_84
Note_On_51_Vel_67
Time_Shift_35
Note_On_51_Vel_0
Time_Shift_76
Note_On_49_Vel_69
Time_Shift_112
Note_On_56_Vel_0
Note_On_68_Vel_0
Time_Shift_2
Note_On_63_Vel_68
Time_Shift_2
Note_On_48_Vel_65
Time_Shift_1
Note_On_68_Vel_63
Time_Shift_1
Note_On_60_Vel_49
Time_Shift_2
Note_On_56_Vel_59
Time_Shift_7
Note_On_49_Vel_0
Time_Shift_5
Note_On_61_Vel_0
Time_Shift_29
Note_On_48_Vel_0
Time_Shift_75
Note_On_46_Vel_67
Time_Shift_29
Note_On_49_Vel_40
Time_Shift_9
Note_On_46_Vel_0
Time_Shift_38
Note_On_49_Vel_0
Time_Shift_15
Note_On_56_Vel_0
Time_Shift_6
Note_On_44_Vel_74
Time_Shift_4
Note_On_56_Vel_63
Time_Shift_33
Note_On_44_Vel_0
Time_Shift_26
Note_On_56_Vel_0
Time_Shift_8
Note_On_68_Vel_0
Time_Shift_8
Note_On_60_Vel_0
Time_Shift_34
Note_On_52_Vel_76
Time_Shift_9
Note_On_40_Vel_74
Time_Shift_2
Note_On_58_Vel_83
Time_Shift_3
Note_On_67_Vel_70
Time_Shift_21
Note_On_52_Vel_0
Time_Shift_2
Note_On_40_Vel_0
Time_Shift_5
Note_On_63_Vel_0
Time_Shift_77
Note_On_39_Vel_74
Time_Shift_1
Note_On_51_Vel_68
Time_Shift_48
Note_On_67_Vel_0
Time_Shift_2
Note_On_39_Vel_0
Time_Shift_41
Note_On_58_Vel_0
Time_Shift_24
Note_On_64_Vel_67
Time_Shift_2
Note_On_61_Vel_60
Time_Shift_2
Note_On_37_Vel_73
Time_Shift_1
Note_On_49_Vel_67
Time_Shift_17
Note_On_51_Vel_0
Time_Shift_10
Note_On_64_Vel_0
Time_Shift_1
Note_On_61_Vel_0
Time_Shift_1
Note_On_37_Vel_0
Time_Shift_19
Note_On_49_Vel_0
Time_Shift_52
Note_On_68_Vel_93
Time_Shift_1
Note_On_48_Vel_77
Time_Shift_3
Note_On_63_Vel_87
Time_Shift_1
Note_On_36_Vel_74
Note_On_56_Vel_84
Time_Shift_32
Note_On_48_Vel_0
Time_Shift_2
Note_On_36_Vel_0
Time_Shift_69
Note_On_46_Vel_74
Time_Shift_1
Note_On_34_Vel_78
Time_Shift_36
Note_On_46_Vel_0
Note_On_34_Vel_0
Time_Shift_72
Note_On_44_Vel_76
Time_Shift_1
Note_On_32_Vel_80
Time_Shift_26
Note_On_68_Vel_0
Time_Shift_3
Note_On_63_Vel_0
Time_Shift_4
Note_On_32_Vel_0
Time_Shift_4
Note_On_56_Vel_0
Time_Shift_23
Note_On_44_Vel_0
Time_Shift_67
Note_On_67_Vel_83
Time_Shift_2
Note_On_58_Vel_81
Time_Shift_3
Note_On_40_Vel_80
Time_Shift_1
Note_On_53_Vel_73
Time_Shift_1
Note_On_64_Vel_67
Time_Shift_28
Note_On_40_Vel_0
Time_Shift_3
Note_On_53_Vel_0
Time_Shift_26
Note_On_64_Vel_0
Time_Shift_49
Note_On_51_Vel_82
Time_Shift_1
Note_On_39_Vel_81
Time_Shift_34
Note_On_51_Vel_0
Time_Shift_26
Note_On_54_Vel_41
Time_Shift_2
Note_On_66_Vel_76
Time_Shift_3
Note_On_54_Vel_0
Time_Shift_43
Note_On_64_Vel_65
Note_On_37_Vel_84
Time_Shift_1
Note_On_49_Vel_79
Note_On_61_Vel_70
Time_Shift_28
Note_On_66_Vel_0
Time_Shift_1
Note_On_67_Vel_0
Time_Shift_4
Note_On_39_Vel_0
Note_On_58_Vel_0
Time_Shift_7
Note_On_61_Vel_0
Time_Shift_3
Note_On_37_Vel_0
Time_Shift_1
Note_On_49_Vel_0
Note_On_64_Vel_0
Time_Shift_59
Note_On_48_Vel_93
Time_Shift_3
Note_On_36_Vel_88
Time_Shift_1
Note_On_68_Vel_89
Time_Shift_3
Note_On_56_Vel_86
Time_Shift_1
Note_On_63_Vel_88
Time_Shift_3
Note_On_66_Vel_73
Time_Shift_33
Note_On_48_Vel_0
Time_Shift_4
Note_On_36_Vel_0
Time_Shift_1
Note_On_56_Vel_0
Time_Shift_65
Note_On_46_Vel_87
Note_On_34_Vel_89
Time_Shift_36
Note_On_46_Vel_0
Time_Shift_1
Note_On_34_Vel_0
Time_Shift_72
Note_On_56_Vel_84
Time_Shift_1
Note_On_32_Vel_90
Note_On_44_Vel_88
Time_Shift_26
Note_On_63_Vel_0
Time_Shift_1
Note_On_32_Vel_0
Time_Shift_17
Note_On_66_Vel_0
Time_Shift_8
Note_On_44_Vel_0
Time_Shift_7
Note_On_56_Vel_0
Time_Shift_16
Note_On_68_Vel_0
Time_Shift_34
Note_On_61_Vel_93
Time_Shift_1
Note_On_37_Vel_100
Note_On_49_Vel_100
Time_Shift_38
Note_On_49_Vel_0
Time_Shift_26
Note_On_37_Vel_0
Time_Shift_16
Note_On_61_Vel_0
Time_Shift_35
Note_On_51_Vel_93
Note_On_39_Vel_89
Time_Shift_41
Note_On_51_Vel_0
Time_Shift_21
Note_On_61_Vel_97
Time_Shift_26
Note_On_39_Vel_0
Time_Shift_23
Note_On_61_Vel_0
Time_Shift_5
Note_On_52_Vel_91
Time_Shift_2
Note_On_40_Vel_82
Time_Shift_3
Note_On_61_Vel_82
Time_Shift_26
Note_On_52_Vel_0
Time_Shift_6
Note_On_40_Vel_0
Time_Shift_10
Note_On_61_Vel_0
Time_Shift_68
Note_On_42_Vel_89
Note_On_60_Vel_98
Time_Shift_1
Note_On_54_Vel_91
Time_Shift_1
Note_On_57_Vel_96
Time_Shift_1
Note_On_69_Vel_95
Time_Shift_32
Note_On_54_Vel_0
Time_Shift_8
Note_On_42_Vel_0
Time_Shift_71
Note_On_44_Vel_87
Time_Shift_1
Note_On_56_Vel_90
Note_On_68_Vel_84
Time_Shift_1
Note_On_32_Vel_74
Time_Shift_9
Note_On_32_Vel_0
Time_Shift_20
Note_On_56_Vel_0
Time_Shift_5
Note_On_44_Vel_0
Time_Shift_37
Note_On_68_Vel_0
Time_Shift_23
Note_On_57_Vel_0
Time_Shift_2
Note_On_60_Vel_0
Time_Shift_13
Note_On_69_Vel_0
Time_Shift_5
Note_On_42_Vel_85
Note_On_30_Vel_77
Time_Shift_3
Note_On_61_Vel_73
Time_Shift_4
Note_On_56_Vel_70
Time_Shift_4
Note_On_30_Vel_0
Note_On_56_Vel_0
Time_Shift_20
Note_On_42_Vel_0
Time_Shift_26
Note_On_61_Vel_0
Time_Shift_57
Note_On_56_Vel_78
Note_On_61_Vel_82
Time_Shift_4
Note_On_52_Vel_78
Note_On_40_Vel_77
Time_Shift_4
Note_On_49_Vel_66
Time_Shift_23
Note_On_56_Vel_0
Time_Shift_2
Note_On_52_Vel_0
Time_Shift_3
Note_On_61_Vel_0
Time_Shift_2
Note_On_40_Vel_0
Time_Shift_20
Note_On_49_Vel_0
Time_Shift_54
Note_On_51_Vel_75
Note_On_39_Vel_77
Time_Shift_35
Note_On_39_Vel_0
Time_Shift_1
Note_On_51_Vel_0
Time_Shift_78
Note_On_49_Vel_92
Time_Shift_1
Note_On_37_Vel_84
Time_Shift_4
Note_On_61_Vel_87
Time_Shift_29
Note_On_49_Vel_0
Time_Shift_2
Note_On_37_Vel_0
Time_Shift_26
Note_On_61_Vel_0
Time_Shift_53
Note_On_65_Vel_79
Time_Shift_2
Note_On_71_Vel_77
Time_Shift_1
Note_On_56_Vel_87
Time_Shift_1
Note_On_37_Vel_77
Note_On_49_Vel_75
Time_Shift_66
Note_On_65_Vel_0
Time_Shift_31
Note_On_63_Vel_81
Time_Shift_38
Note_On_37_Vel_0
Time_Shift_11
Note_On_63_Vel_0
Time_Shift_69
Note_On_61_Vel_80
Time_Shift_12
Note_On_56_Vel_0
Time_Shift_9
Note_On_56_Vel_56
Time_Shift_3
Note_On_61_Vel_0
Time_Shift_2
Note_On_49_Vel_0
Time_Shift_2
Note_On_71_Vel_0
Time_Shift_31
Note_On_56_Vel_0
Time_Shift_67
Note_On_73_Vel_82
Time_Shift_4
Note_On_69_Vel_83
Time_Shift_8
Note_On_57_Vel_72
Time_Shift_7
Note_On_54_Vel_64
Time_Shift_19
Note_On_69_Vel_0
Time_Shift_25
Note_On_73_Vel_0
Time_Shift_59
Note_On_68_Vel_75
Time_Shift_47
Note_On_68_Vel_0
Time_Shift_13
Note_On_54_Vel_0
Time_Shift_19
Note_On_57_Vel_0
Time_Shift_25
Note_On_66_Vel_78
Time_Shift_5
Note_On_57_Vel_47
Time_Shift_9
Note_On_57_Vel_0
Time_Shift_12
Note_On_66_Vel_0
Time_Shift_87
Note_On_73_Vel_87
Note_On_56_Vel_83
Time_Shift_3
Note_On_65_Vel_81
Time_Shift_1
Note_On_49_Vel_81
Time_Shift_6
Note_On_71_Vel_78
Time_Shift_26
Note_On_65_Vel_0
Note_On_73_Vel_0
Time_Shift_1
Note_On_71_Vel_0
Time_Shift_2
Note_On_56_Vel_0
Time_Shift_66
Note_On_63_Vel_74
Time_Shift_7
Note_On_73_Vel_67
Time_Shift_5
Note_On_57_Vel_78
Time_Shift_2
Note_On_71_Vel_65
Time_Shift_4
Note_On_71_Vel_0
Time_Shift_48
Note_On_63_Vel_0
Time_Shift_37
Note_On_49_Vel_0
Note_On_73_Vel_0
Time_Shift_8
Note_On_57_Vel_0
Time_Shift_5
Note_On_61_Vel_74
Time_Shift_5
Note_On_71_Vel_70
Time_Shift_1
Note_On_68_Vel_63
Time_Shift_1
Note_On_59_Vel_74
Time_Shift_3
Note_On_68_Vel_0
Time_Shift_17
Note_On_61_Vel_0
Time_Shift_3
Note_On_71_Vel_0
Time_Shift_8
Note_On_59_Vel_0
Time_Shift_74
Note_On_69_Vel_94
Time_Shift_2
Note_On_73_Vel_83
Time_Shift_4
Note_On_57_Vel_86
Time_Shift_3
Note_On_54_Vel_85
Time_Shift_37
Note_On_69_Vel_0
Time_Shift_1
Note_On_73_Vel_0
Time_Shift_3
Note_On_57_Vel_0
Time_Shift_73
Note_On_71_Vel_69
Time_Shift_1
Note_On_68_Vel_80
Note_On_59_Vel_79
Time_Shift_4
Note_On_71_Vel_0
Time_Shift_34
Note_On_68_Vel_0
Time_Shift_3
Note_On_59_Vel_0
Time_Shift_33
Note_On_54_Vel_0
Time_Shift_36
Note_On_57_Vel_82
Time_Shift_2
Note_On_66_Vel_78
Time_Shift_28
Note_On_66_Vel_0
Note_On_57_Vel_0
Time_Shift_76
Note_On_73_Vel_97
Note_On_56_Vel_95
Time_Shift_1
Note_On_65_Vel_87
Time_Shift_1
Note_On_49_Vel_88
Time_Shift_4
Note_On_71_Vel_89
Time_Shift_33
Note_On_71_Vel_0
Note_On_73_Vel_0
Time_Shift_3
Note_On_65_Vel_0
Time_Shift_7
Note_On_56_Vel_0
Time_Shift_57
Note_On_63_Vel_84
Time_Shift_6
Note_On_73_Vel_72
Time_Shift_3
Note_On_57_Vel_86
Time_Shift_6
Note_On_71_Vel_67
Time_Shift_5
Note_On_71_Vel_0
Time_Shift_28
Note_On_63_Vel_0
Time_Shift_15
Note_On_57_Vel_0
Time_Shift_46
Note_On_71_Vel_70
Note_On_61_Vel_81
Time_Shift_4
Note_On_59_Vel_81
Time_Shift_30
Note_On_61_Vel_0
Time_Shift_5
Note_On_59_Vel_0
Time_Shift_3
Note_On_73_Vel_0
Time_Shift_10
Note_On_49_Vel_0
Time_Shift_36
Note_On_71_Vel_0
Time_Shift_34
Note_On_73_Vel_87
Time_Shift_1
Note_On_66_Vel_91
Time_Shift_1
Note_On_57_Vel_94
Time_Shift_1
Note_On_54_Vel_87
Time_Shift_101
Note_On_66_Vel_0
Time_Shift_10
Note_On_68_Vel_83
Time_Shift_21
Note_On_73_Vel_0
Time_Shift_4
Note_On_57_Vel_0
Time_Shift_19
Note_On_54_Vel_0
Note_On_68_Vel_0
Time_Shift_75
Note_On_69_Vel_87
Time_Shift_2
Note_On_61_Vel_91
Note_On_78_Vel_92
Time_Shift_1
Note_On_54_Vel_76
Time_Shift_26
Note_On_69_Vel_0
Time_Shift_4
Note_On_61_Vel_0
Time_Shift_7
Note_On_54_Vel_0
Time_Shift_8
Note_On_78_Vel_0
Time_Shift_56
Note_On_77_Vel_101
Time_Shift_1
Note_On_62_Vel_98
Time_Shift_1
Note_On_71_Vel_92
Note_On_54_Vel_92
Time_Shift_45
Note_On_71_Vel_0
Time_Shift_73
Sustain_On
Time_Shift_16
Note_On_77_Vel_0
Time_Shift_2
Note_On_73_Vel_77
Time_Shift_2
Note_On_77_Vel_64
Time_Shift_2
Note_On_61_Vel_71
Time_Shift_23
Note_On_71_Vel_60
Time_Shift_17
Note_On_62_Vel_0
Time_Shift_15
Note_On_61_Vel_0
Time_Shift_39
Note_On_71_Vel_0
Time_Shift_7
Note_On_71_Vel_77
Time_Shift_7
Note_On_78_Vel_61
Time_Shift_16
Note_On_73_Vel_0
Time_Shift_63
Note_On_61_Vel_83
Time_Shift_14
Note_On_77_Vel_0
Note_On_78_Vel_0
Time_Shift_5
Note_On_73_Vel_71
Time_Shift_1
Note_On_78_Vel_90
Time_Shift_2
Note_On_69_Vel_88
Time_Shift_18
Sustain_Off
Time_Shift_3
Note_On_61_Vel_0
Time_Shift_2
Note_On_71_Vel_0
Time_Shift_4
Note_On_54_Vel_0
Time_Shift_7
Note_On_69_Vel_0
Time_Shift_35
Note_On_73_Vel_0
Time_Shift_15
Note_On_78_Vel_0
Time_Shift_20
Note_On_68_Vel_87
Time_Shift_1
Note_On_56_Vel_85
Time_Shift_2
Note_On_44_Vel_83
Time_Shift_28
Note_On_56_Vel_0
Time_Shift_1
Note_On_68_Vel_0
Time_Shift_2
Note_On_44_Vel_0
Time_Shift_66
Note_On_66_Vel_88
Time_Shift_12
Note_On_57_Vel_89
Time_Shift_10
Note_On_45_Vel_68
Time_Shift_4
Note_On_45_Vel_0
Time_Shift_9
Note_On_57_Vel_0
Time_Shift_2
Note_On_66_Vel_0
Time_Shift_80
Note_On_72_Vel_92
Time_Shift_1
Note_On_80_Vel_99
Time_Shift_3
Note_On_44_Vel_96
Note_On_56_Vel_106
Time_Shift_37
Note_On_56_Vel_0
Time_Shift_2
Note_On_44_Vel_0
Time_Shift_1
Note_On_80_Vel_0
Time_Shift_73
Sustain_On
Time_Shift_2
Note_On_70_Vel_84
Time_Shift_119
Note_On_68_Vel_86
Time_Shift_2
Note_On_56_Vel_74
Time_Shift_46
Note_On_70_Vel_0
Time_Shift_58
Note_On_80_Vel_95
Time_Shift_3
Note_On_76_Vel_98
Note_On_56_Vel_0
Time_Shift_3
Sustain_Off
Time_Shift_1
Note_On_73_Vel_84
Note_On_70_Vel_75
Time_Shift_2
Note_On_56_Vel_80
Note_On_61_Vel_85
Time_Shift_9
Note_On_72_Vel_0
Time_Shift_19
Note_On_68_Vel_0
Time_Shift_8
Note_On_61_Vel_0
Time_Shift_4
Note_On_73_Vel_0
Note_On_70_Vel_0
Time_Shift_31
Note_On_76_Vel_0
Time_Shift_35
Note_On_75_Vel_87
Time_Shift_3
Note_On_63_Vel_84
Time_Shift_40
Note_On_80_Vel_0
Time_Shift_4
Note_On_75_Vel_0
Time_Shift_6
Note_On_63_Vel_0
Time_Shift_12
Note_On_56_Vel_0
Time_Shift_43
Note_On_73_Vel_94
Note_On_64_Vel_86
Time_Shift_3
Note_On_61_Vel_73
Time_Shift_32
Note_On_73_Vel_0
Time_Shift_2
Note_On_64_Vel_0
Time_Shift_20
Note_On_61_Vel_0
Time_Shift_51
Note_On_80_Vel_101
Time_Shift_3
Note_On_63_Vel_95
Time_Shift_1
Note_On_72_Vel_92
Time_Shift_1
Note_On_78_Vel_92
Time_Shift_2
Note_On_56_Vel_84
Time_Shift_37
Note_On_72_Vel_0
Time_Shift_3
Note_On_63_Vel_0
Time_Shift_1
Note_On_78_Vel_0
Time_Shift_64
Note_On_70_Vel_84
Time_Shift_1
Note_On_64_Vel_83
Time_Shift_34
Note_On_64_Vel_0
Time_Shift_4
Note_On_80_Vel_0
Time_Shift_2
Note_On_70_Vel_0
Time_Shift_68
Note_On_68_Vel_91
Time_Shift_3
Note_On_66_Vel_88
Time_Shift_34
Note_On_68_Vel_0
Time_Shift_8
Note_On_66_Vel_0
Time_Shift_13
Note_On_56_Vel_0
Time_Shift_56
Note_On_80_Vel_94
Time_Shift_1
Note_On_76_Vel_104
Note_On_61_Vel_90
Time_Shift_3
Note_On_70_Vel_83
Time_Shift_34
Note_On_61_Vel_0
Time_Shift_3
Note_On_76_Vel_0
Time_Shift_5
Note_On_80_Vel_0
Time_Shift_21
Note_On_70_Vel_0
Time_Shift_44
Note_On_63_Vel_88
Time_Shift_3
Note_On_75_Vel_92
Time_Shift_5
Note_On_51_Vel_80
Time_Shift_27
Note_On_63_Vel_0
Time_Shift_3
Note_On_51_Vel_0
Time_Shift_5
Note_On_75_Vel_0
Time_Shift_70
Note_On_73_Vel_93
Note_On_64_Vel_80
Time_Shift_8
Note_On_52_Vel_70
Time_Shift_24
Note_On_73_Vel_0
Time_Shift_3
Note_On_64_Vel_0
Time_Shift_3
Note_On_52_Vel_0
Time_Shift_72
Note_On_80_Vel_105
Time_Shift_2
Note_On_72_Vel_99
Time_Shift_3
Note_On_44_Vel_98
Note_On_56_Vel_106
Time_Shift_7
Note_On_78_Vel_91
Time_Shift_30
Note_On_72_Vel_0
Time_Shift_1
Note_On_56_Vel_0
Time_Shift_2
Note_On_44_Vel_0
Time_Shift_5
Note_On_80_Vel_0
Time_Shift_28
Note_On_78_Vel_0
Time_Shift_35
Note_On_70_Vel_84
Time_Shift_113
Note_On_68_Vel_86
Time_Shift_4
Note_On_66_Vel_92
Time_Shift_2
Note_On_70_Vel_0
Time_Shift_24
Note_On_68_Vel_0
Time_Shift_9
Note_On_66_Vel_0
Time_Shift_75
Note_On_73_Vel_98
Time_Shift_3
Note_On_80_Vel_98
Time_Shift_1
Note_On_61_Vel_92
Time_Shift_1
Note_On_64_Vel_86
Time_Shift_6
Note_On_70_Vel_85
Time_Shift_4
Note_On_70_Vel_0
Time_Shift_35
Note_On_73_Vel_0
Time_Shift_6
Note_On_64_Vel_0
Time_Shift_1
Note_On_80_Vel_0
Time_Shift_56
Note_On_75_Vel_96
Time_Shift_9
Note_On_61_Vel_0
Time_Shift_21
Note_On_75_Vel_0
Time_Shift_90
Note_On_85_Vel_97
Time_Shift_1
Note_On_68_Vel_98
Note_On_76_Vel_88
Time_Shift_25
Note_On_68_Vel_0
Time_Shift_5
Note_On_76_Vel_0
Time_Shift_3
Note_On_85_Vel_0
Time_Shift_74
Note_On_84_Vel_106
Note_On_78_Vel_104
Time_Shift_1
Note_On_69_Vel_99
Note_On_61_Vel_98
Time_Shift_103
Sustain_On
Time_Shift_21
Note_On_80_Vel_89
Time_Shift_102
Note_On_78_Vel_0
Note_On_84_Vel_0
Time_Shift_4
Note_On_78_Vel_81
Time_Shift_1
Note_On_84_Vel_75
Time_Shift_83
Note_On_84_Vel_0
Time_Shift_6
Note_On_61_Vel_0
Note_On_80_Vel_0
Time_Shift_1
Note_On_78_Vel_0
Time_Shift_2
Sustain_Off
Time_Shift_3
Note_On_69_Vel_0
Time_Shift_16
Note_On_85_Vel_101
Time_Shift_3
Note_On_76_Vel_102
Note_On_68_Vel_102
Time_Shift_35
Note_On_76_Vel_0
Time_Shift_38
Sustain_On
Time_Shift_34
Note_On_75_Vel_87
Time_Shift_55
Note_On_76_Vel_73
Time_Shift_57
Note_On_68_Vel_0
Note_On_76_Vel_0
Time_Shift_4
Note_On_73_Vel_92
Time_Shift_6
Note_On_76_Vel_70
Note_On_68_Vel_69
Time_Shift_96
Note_On_75_Vel_0
Time_Shift_4
Note_On_68_Vel_0
Note_On_76_Vel_0
Time_Shift_1
Note_On_73_Vel_0
Time_Shift_3
Sustain_Off
Time_Shift_1
Note_On_85_Vel_0
Time_Shift_4
Note_On_37_Vel_81
Note_On_49_Vel_81
Time_Shift_1
Note_On_80_Vel_97
Time_Shift_1
Note_On_85_Vel_93
Time_Shift_2
Note_On_88_Vel_97
Time_Shift_28
Note_On_37_Vel_0
Time_Shift_8
Note_On_85_Vel_0
Time_Shift_5
Note_On_80_Vel_0
Time_Shift_5
Note_On_49_Vel_0
Time_Shift_63
Note_On_52_Vel_82
Time_Shift_2
Note_On_40_Vel_89
Note_On_78_Vel_88
Time_Shift_29
Note_On_52_Vel_0
Time_Shift_2
Note_On_40_Vel_0
Time_Shift_1
Note_On_78_Vel_0
Time_Shift_18
Note_On_88_Vel_0
Time_Shift_51
Note_On_42_Vel_91
Note_On_54_Vel_89
Time_Shift_4
Note_On_76_Vel_89
Time_Shift_33
Note_On_76_Vel_0
Time_Shift_1
Note_On_54_Vel_0
Time_Shift_2
Note_On_42_Vel_0
Time_Shift_68
Note_On_56_Vel_110
Time_Shift_1
Note_On_44_Vel_104
Time_Shift_2
Note_On_80_Vel_103
Time_Shift_1
Note_On_83_Vel_94
Time_Shift_2
Note_On_87_Vel_87
Time_Shift_34
Sustain_On
Time_Shift_83
Note_On_76_Vel_85
Time_Shift_2
Note_On_88_Vel_67
Time_Shift_15
Note_On_83_Vel_0
Time_Shift_11
Note_On_82_Vel_38
Time_Shift_1
Note_On_83_Vel_72
Time_Shift_45
Sustain_Off
Time_Shift_1
Note_On_88_Vel_0
Time_Shift_1
Note_On_76_Vel_0
Note_On_44_Vel_0
Note_On_56_Vel_0
Time_Shift_1
Note_On_80_Vel_0
Note_On_83_Vel_0
Note_On_87_Vel_0
Time_Shift_17
Note_On_82_Vel_0
Time_Shift_27
Note_On_75_Vel_88
Time_Shift_3
Note_On_87_Vel_68
Time_Shift_39
Note_On_87_Vel_0
Time_Shift_8
Note_On_75_Vel_0
Time_Shift_51
Note_On_35_Vel_84
Time_Shift_4
Note_On_47_Vel_82
Time_Shift_2
Note_On_83_Vel_95
Note_On_78_Vel_92
Time_Shift_24
Note_On_47_Vel_0
Time_Shift_34
Note_On_35_Vel_0
Time_Shift_46
Note_On_83_Vel_0
Time_Shift_10
Note_On_51_Vel_86
Time_Shift_2
Note_On_39_Vel_79
Time_Shift_1
Note_On_76_Vel_88
Time_Shift_29
Note_On_39_Vel_0
Time_Shift_1
Note_On_78_Vel_0
Note_On_76_Vel_0
Time_Shift_1
Note_On_51_Vel_0
Time_Shift_71
Note_On_52_Vel_89
Time_Shift_3
Note_On_40_Vel_91
Time_Shift_6
Note_On_75_Vel_82
Time_Shift_25
Note_On_52_Vel_0
Time_Shift_2
Note_On_40_Vel_0
Time_Shift_7
Note_On_75_Vel_0
Time_Shift_67
Note_On_54_Vel_104
Time_Shift_1
Note_On_78_Vel_96
Time_Shift_1
Note_On_42_Vel_101
Note_On_85_Vel_92
Time_Shift_1
Note_On_82_Vel_100
Time_Shift_26
Sustain_On
Time_Shift_84
Note_On_78_Vel_0
Note_On_82_Vel_0
Time_Shift_4
Note_On_78_Vel_81
Time_Shift_4
Note_On_82_Vel_71
Time_Shift_1
Note_On_75_Vel_83
Time_Shift_27
Note_On_54_Vel_0
Time_Shift_2
Note_On_85_Vel_0
Time_Shift_1
Note_On_42_Vel_0
Time_Shift_3
Note_On_75_Vel_0
Time_Shift_1
Sustain_Off
Time_Shift_72
Note_On_82_Vel_0
Time_Shift_4
Note_On_73_Vel_93
Time_Shift_2
Note_On_82_Vel_69
Time_Shift_36
Note_On_73_Vel_0
Time_Shift_4
Note_On_78_Vel_0
Time_Shift_31
Note_On_82_Vel_0
Time_Shift_30
Note_On_33_Vel_89
Time_Shift_2
Note_On_45_Vel_91
Time_Shift_2
Note_On_85_Vel_84
Time_Shift_1
Note_On_76_Vel_85
Note_On_81_Vel_81
Time_Shift_33
Note_On_33_Vel_0
Time_Shift_3
Note_On_45_Vel_0
Time_Shift_5
Note_On_76_Vel_0
Time_Shift_3
Note_On_85_Vel_0
Time_Shift_2
Note_On_81_Vel_0
Time_Shift_61
Note_On_49_Vel_95
Note_On_37_Vel_94
Time_Shift_5
Note_On_74_Vel_85
Time_Shift_32
Note_On_49_Vel_0
Time_Shift_2
Note_On_37_Vel_0
Time_Shift_5
Note_On_74_Vel_0
Time_Shift_67
Note_On_50_Vel_97
Time_Shift_4
Note_On_38_Vel_90
Note_On_73_Vel_90
Time_Shift_31
Note_On_50_Vel_0
Time_Shift_6
Note_On_38_Vel_0
Time_Shift_3
Note_On_73_Vel_0
Time_Shift_61
Note_On_80_Vel_100
Time_Shift_1
Note_On_83_Vel_95
Time_Shift_3
Note_On_76_Vel_95
Time_Shift_1
Note_On_52_Vel_102
Time_Shift_1
Note_On_40_Vel_98
Time_Shift_43
Sustain_On
Time_Shift_72
Note_On_73_Vel_90
Time_Shift_41
Sustain_Off
Time_Shift_3
Note_On_83_Vel_0
Time_Shift_2
Note_On_80_Vel_0
Note_On_73_Vel_0
Time_Shift_5
Note_On_52_Vel_0
Time_Shift_8
Note_On_40_Vel_0
Note_On_76_Vel_0
Time_Shift_58
Note_On_71_Vel_84
Time_Shift_24
Note_On_71_Vel_0
Time_Shift_74
Note_On_76_Vel_97
Time_Shift_1
Note_On_61_Vel_104
Note_On_73_Vel_100
Note_On_82_Vel_85
Note_On_49_Vel_100
Time_Shift_50
Sustain_On
Time_Shift_61
Note_On_76_Vel_0
Time_Shift_4
Note_On_70_Vel_91
Time_Shift_6
Note_On_76_Vel_71
Time_Shift_93
Note_On_82_Vel_0
Time_Shift_1
Note_On_70_Vel_0
Note_On_73_Vel_0
Time_Shift_1
Note_On_76_Vel_0
Time_Shift_1
Note_On_61_Vel_0
Time_Shift_5
Sustain_Off
Time_Shift_5
Note_On_49_Vel_0
Time_Shift_4
Note_On_80_Vel_94
Time_Shift_3
Note_On_68_Vel_99
Time_Shift_3
Note_On_62_Vel_96
Note_On_71_Vel_87
Time_Shift_1
Note_On_77_Vel_89
Note_On_50_Vel_100
Time_Shift_38
Note_On_50_Vel_0
Note_On_68_Vel_0
Time_Shift_1
Note_On_71_Vel_0
Note_On_77_Vel_0
Time_Shift_1
Note_On_80_Vel_0
Time_Shift_25
Note_On_62_Vel_0
Time_Shift_56
Note_On_63_Vel_109
Note_On_51_Vel_111
Time_Shift_1
Note_On_79_Vel_106
Time_Shift_1
Note_On_67_Vel_108
Note_On_75_Vel_104
Time_Shift_65
Sustain_On
Time_Shift_53
Note_On_63_Vel_0
Note_On_67_Vel_0
Time_Shift_3
Note_On_51_Vel_0
Time_Shift_1
Sustain_Off
Note_On_75_Vel_0
Time_Shift_28
Note_On_79_Vel_0
Time_Shift_123
Sustain_On
Time_Shift_115
Sustain_Off
Time_Shift_73
Note_On_92_Vel_106
Note_On_80_Vel_109
Time_Shift_5
Note_On_48_Vel_91
Time_Shift_1
Note_On_36_Vel_93
Note_On_87_Vel_95
Time_Shift_41
Note_On_48_Vel_0
Time_Shift_41
Sustain_On
Time_Shift_42
Note_On_37_Vel_94
Note_On_49_Vel_92
Time_Shift_101
Note_On_51_Vel_96
Time_Shift_4
Note_On_39_Vel_89
Time_Shift_62
Note_On_49_Vel_0
Time_Shift_2
Note_On_87_Vel_0
Note_On_37_Vel_0
Note_On_51_Vel_0
Time_Shift_2
Note_On_39_Vel_0
Time_Shift_2
Note_On_36_Vel_0
Time_Shift_1
Sustain_Off
Time_Shift_30
Note_On_80_Vel_0
Time_Shift_4
Note_On_88_Vel_104
Note_On_80_Vel_99
Note_On_85_Vel_100
Time_Shift_1
Note_On_76_Vel_112
Time_Shift_6
Note_On_40_Vel_94
Note_On_52_Vel_96
Time_Shift_50
Note_On_92_Vel_0
Time_Shift_8
Sustain_On
Time_Shift_31
Note_On_40_Vel_0
Time_Shift_26
Note_On_54_Vel_96
Note_On_42_Vel_98
Time_Shift_106
Note_On_56_Vel_100
Time_Shift_1
Note_On_44_Vel_92
Time_Shift_51
Sustain_Off
Time_Shift_3
Note_On_54_Vel_0
Time_Shift_3
Note_On_56_Vel_0
Note_On_44_Vel_0
Time_Shift_9
Note_On_52_Vel_0
Note_On_76_Vel_0
Note_On_88_Vel_0
Time_Shift_8
Note_On_42_Vel_0
Note_On_80_Vel_0
Note_On_85_Vel_0
Time_Shift_29
Note_On_85_Vel_97
Note_On_73_Vel_102
Time_Shift_3
Note_On_76_Vel_99
Time_Shift_1
Note_On_57_Vel_104
Time_Shift_1
Note_On_81_Vel_89
Time_Shift_1
Note_On_45_Vel_93
Time_Shift_57
Sustain_On
Time_Shift_58
Note_On_59_Vel_100
Time_Shift_1
Note_On_47_Vel_85
Time_Shift_116
Note_On_49_Vel_100
Time_Shift_3
Note_On_61_Vel_95
Time_Shift_99
Note_On_73_Vel_0
Note_On_81_Vel_0
Time_Shift_4
Note_On_69_Vel_103
Time_Shift_1
Note_On_63_Vel_101
Note_On_81_Vel_103
Time_Shift_1
Note_On_51_Vel_104
Time_Shift_1
Note_On_73_Vel_96
Time_Shift_1
Note_On_59_Vel_0
Time_Shift_2
Note_On_78_Vel_92
Note_On_47_Vel_0
Time_Shift_6
Note_On_49_Vel_0
Time_Shift_5
Sustain_Off
Time_Shift_6
Note_On_61_Vel_0
Time_Shift_4
Note_On_45_Vel_0
Note_On_76_Vel_0
Note_On_85_Vel_0
Time_Shift_7
Note_On_57_Vel_0
Time_Shift_4
Note_On_63_Vel_0
Time_Shift_1
Note_On_51_Vel_0
Time_Shift_78
Note_On_64_Vel_105
Time_Shift_2
Note_On_52_Vel_97
Time_Shift_61
Note_On_69_Vel_0
Time_Shift_15
Note_On_52_Vel_0
Time_Shift_16
Note_On_64_Vel_0
Time_Shift_12
Note_On_66_Vel_109
Time_Shift_1
Note_On_54_Vel_99
Time_Shift_18
Note_On_81_Vel_0
Time_Shift_12
Note_On_54_Vel_0
Time_Shift_3
Note_On_73_Vel_0
Note_On_66_Vel_0
Time_Shift_14
Note_On_78_Vel_0
Time_Shift_63
Note_On_80_Vel_108
Time_Shift_1
Note_On_75_Vel_104
Note_On_68_Vel_115
Time_Shift_1
Note_On_72_Vel_98
Time_Shift_1
Note_On_56_Vel_106
Time_Shift_66
Sustain_On
Time_Shift_8
Note_On_72_Vel_0
Time_Shift_15
Note_On_80_Vel_0
Time_Shift_307
Note_On_56_Vel_0
Note_On_68_Vel_0
Time_Shift_10
Note_On_57_Vel_107
Time_Shift_2
Note_On_69_Vel_101
Note_On_61_Vel_95
Time_Shift_4
Note_On_39_Vel_96
Time_Shift_3
Note_On_27_Vel_99
Time_Shift_33
Sustain_Off
Time_Shift_10
Sustain_On
Time_Shift_38
Note_On_75_Vel_0
Time_Shift_23
Note_On_40_Vel_81
Time_Shift_1
Note_On_28_Vel_76
Time_Shift_45
Note_On_39_Vel_0
Time_Shift_4
Sustain_Off
Time_Shift_7
Note_On_69_Vel_0
Time_Shift_1
Note_On_28_Vel_0
Note_On_40_Vel_0
Time_Shift_1
Note_On_61_Vel_0
Time_Shift_2
Note_On_27_Vel_0
Time_Shift_8
Note_On_57_Vel_0
Time_Shift_42
Note_On_42_Vel_102
Note_On_30_Vel_99
Time_Shift_46
Note_On_42_Vel_0
Time_Shift_1
Note_On_30_Vel_0
Time_Shift_69
Note_On_60_Vel_101
Note_On_68_Vel_106
Note_On_63_Vel_90
Time_Shift_1
Note_On_56_Vel_108
Time_Shift_1
Note_On_44_Vel_111
Note_On_32_Vel_101
Time_Shift_32
Sustain_On
Time_Shift_131
Note_On_60_Vel_0
Time_Shift_18
Sustain_Off
Time_Shift_20
Note_On_56_Vel_0
Time_Shift_23
Note_On_63_Vel_0
Time_Shift_8
Note_On_32_Vel_0
Note_On_44_Vel_0
Note_On_68_Vel_0
Time_Shift_238
Note_On_68_Vel_113
Time_Shift_2
Note_On_80_Vel_109
Time_Shift_2
Note_On_56_Vel_112
Time_Shift_1
Note_On_44_Vel_107
Time_Shift_18
Sustain_On
Time_Shift_407
Note_On_56_Vel_0
Time_Shift_5
Sustain_Off
Time_Shift_1
Note_On_68_Vel_0
Note_On_80_Vel_0
Time_Shift_5
Note_On_56_Vel_78
Time_Shift_4
Note_On_44_Vel_0
Time_Shift_3
Note_On_85_Vel_101
Time_Shift_1
Note_On_73_Vel_111
Time_Shift_1
Note_On_61_Vel_108
Time_Shift_1
Note_On_49_Vel_103
Time_Shift_10
Note_On_56_Vel_0
Time_Shift_46
Sustain_On
Time_Shift_414
Note_On_73_Vel_0
Time_Shift_2
Note_On_81_Vel_101
Time_Shift_1
Note_On_69_Vel_105
Note_On_57_Vel_103
Time_Shift_3
Note_On_73_Vel_80
Note_On_45_Vel_89
Time_Shift_14
Sustain_Off
Time_Shift_27
Note_On_85_Vel_0
Time_Shift_7
Note_On_61_Vel_0
Time_Shift_8
Sustain_On
Time_Shift_8
Note_On_49_Vel_0
Time_Shift_407
Note_On_44_Vel_83
Time_Shift_1
Note_On_56_Vel_81
Note_On_68_Vel_80
Time_Shift_1
Note_On_80_Vel_80
Time_Shift_19
Note_On_57_Vel_0
Time_Shift_2
Note_On_45_Vel_0
Note_On_73_Vel_0
Time_Shift_3
Note_On_69_Vel_0
Time_Shift_1
Note_On_68_Vel_0
Time_Shift_1
Note_On_81_Vel_0
Time_Shift_1
Note_On_44_Vel_0
Time_Shift_2
Sustain_Off
Time_Shift_3
Note_On_80_Vel_0
Time_Shift_12
Note_On_56_Vel_0
Time_Shift_58
Note_On_78_Vel_82
Note_On_42_Vel_91
Time_Shift_1
Note_On_54_Vel_84
Time_Shift_1
Note_On_66_Vel_83
Time_Shift_37
Note_On_78_Vel_0
Note_On_66_Vel_0
Time_Shift_3
Note_On_42_Vel_0
Time_Shift_4
Note_On_54_Vel_0
Time_Shift_62
Note_On_52_Vel_81
Time_Shift_2
Note_On_40_Vel_89
Time_Shift_1
Note_On_76_Vel_83
Time_Shift_1
Note_On_64_Vel_81
Time_Shift_24
Note_On_52_Vel_0
Time_Shift_3
Note_On_40_Vel_0
Time_Shift_3
Note_On_64_Vel_0
Time_Shift_2
Note_On_76_Vel_0
Time_Shift_85
Note_On_57_Vel_90
Note_On_81_Vel_92
Time_Shift_1
Note_On_45_Vel_84
Note_On_69_Vel_86
Time_Shift_23
Note_On_69_Vel_0
Note_On_57_Vel_0
Time_Shift_4
Note_On_81_Vel_0
Time_Shift_3
Note_On_45_Vel_0
Time_Shift_78
Note_On_80_Vel_84
Note_On_56_Vel_85
Note_On_68_Vel_85
Note_On_44_Vel_84
Time_Shift_29
Note_On_68_Vel_0
Time_Shift_1
Note_On_80_Vel_0
Time_Shift_6
Note_On_44_Vel_0
Time_Shift_13
Note_On_56_Vel_0
Time_Shift_60
Note_On_79_Vel_82
Time_Shift_1
Note_On_55_Vel_83
Time_Shift_2
Note_On_43_Vel_81
Note_On_67_Vel_74
Time_Shift_26
Note_On_55_Vel_0
Time_Shift_1
Note_On_79_Vel_0
Time_Shift_3
Note_On_43_Vel_0
Time_Shift_15
Note_On_67_Vel_0
Time_Shift_58
Note_On_44_Vel_91
Note_On_56_Vel_90
Time_Shift_6
Note_On_68_Vel_84
Note_On_80_Vel_88
Time_Shift_19
Note_On_56_Vel_0
Time_Shift_5
Note_On_68_Vel_0
Time_Shift_6
Note_On_80_Vel_0
Time_Shift_13
Note_On_44_Vel_0
Time_Shift_56
Note_On_54_Vel_87
Note_On_42_Vel_95
Time_Shift_4
Note_On_66_Vel_81
Time_Shift_3
Note_On_78_Vel_81
Time_Shift_35
Note_On_54_Vel_0
Time_Shift_2
Note_On_66_Vel_0
Time_Shift_3
Note_On_42_Vel_0
Time_Shift_20
Note_On_78_Vel_0
Time_Shift_42
Note_On_52_Vel_84
Note_On_40_Vel_91
Time_Shift_1
Note_On_76_Vel_83
Time_Shift_1
Note_On_64_Vel_74
Time_Shift_24
Note_On_52_Vel_0
Time_Shift_5
Note_On_64_Vel_0
Time_Shift_3
Note_On_76_Vel_0
Time_Shift_16
Note_On_40_Vel_0
Time_Shift_66
Note_On_57_Vel_90
Time_Shift_1
Note_On_81_Vel_94
Time_Shift_1
Note_On_45_Vel_86
Time_Shift_1
Note_On_69_Vel_91
Time_Shift_27
Note_On_57_Vel_0
Note_On_69_Vel_0
Time_Shift_5
Note_On_81_Vel_0
Time_Shift_3
Note_On_45_Vel_0
Time_Shift_68
Note_On_56_Vel_93
Note_On_80_Vel_90
Note_On_44_Vel_89
Time_Shift_1
Note_On_68_Vel_82
Time_Shift_31
Note_On_56_Vel_0
Note_On_68_Vel_0
Time_Shift_3
Note_On_80_Vel_0
Time_Shift_4
Note_On_44_Vel_0
Time_Shift_62
Note_On_43_Vel_87
Note_On_55_Vel_92
Time_Shift_3
Note_On_79_Vel_82
Time_Shift_3
Note_On_67_Vel_76
Time_Shift_27
Note_On_55_Vel_0
Time_Shift_4
Note_On_79_Vel_0
Note_On_43_Vel_0
Time_Shift_13
Note_On_67_Vel_0
Time_Shift_62
Note_On_80_Vel_97
Time_Shift_1
Note_On_44_Vel_98
Note_On_68_Vel_95
Note_On_56_Vel_102
Time_Shift_126
Note_On_44_Vel_0
Time_Shift_10
Note_On_56_Vel_0
Time_Shift_23
Note_On_68_Vel_0
Note_On_80_Vel_0
Time_Shift_5
Note_On_52_Vel_73
Time_Shift_1
Note_On_40_Vel_76
Note_On_76_Vel_80
Time_Shift_2
Note_On_64_Vel_71
Time_Shift_28
Note_On_64_Vel_0
Time_Shift_1
Note_On_40_Vel_0
Time_Shift_2
Note_On_76_Vel_0
Time_Shift_15
Note_On_52_Vel_0
Time_Shift_49
Note_On_51_Vel_88
Time_Shift_1
Note_On_39_Vel_85
Time_Shift_1
Note_On_75_Vel_92
Note_On_63_Vel_81
Time_Shift_30
Note_On_51_Vel_0
Time_Shift_1
Note_On_75_Vel_0
Time_Shift_2
Note_On_39_Vel_0
Time_Shift_24
Note_On_63_Vel_0
Time_Shift_53
Note_On_49_Vel_85
Time_Shift_1
Note_On_37_Vel_90
Time_Shift_3
Note_On_61_Vel_78
Note_On_73_Vel_80
Time_Shift_28
Note_On_49_Vel_0
Time_Shift_3
Note_On_37_Vel_0
Note_On_61_Vel_0
Time_Shift_2
Note_On_73_Vel_0
Time_Shift_81
Note_On_47_Vel_78
Time_Shift_1
Note_On_35_Vel_85
Note_On_71_Vel_82
Time_Shift_1
Note_On_59_Vel_76
Time_Shift_26
Note_On_71_Vel_0
Time_Shift_3
Note_On_47_Vel_0
Time_Shift_1
Note_On_35_Vel_0
Note_On_59_Vel_0
Time_Shift_78
Note_On_69_Vel_87
Time_Shift_2
Note_On_45_Vel_80
Time_Shift_2
Note_On_57_Vel_82
Time_Shift_1
Note_On_33_Vel_82
Time_Shift_28
Note_On_69_Vel_0
Time_Shift_2
Note_On_45_Vel_0
Note_On_57_Vel_0
Time_Shift_3
Note_On_33_Vel_0
Time_Shift_73
Note_On_68_Vel_93
Time_Shift_3
Note_On_56_Vel_88
Time_Shift_7
Note_On_32_Vel_88
Note_On_44_Vel_92
Time_Shift_527
Sustain_On
Time_Shift_253
Note_On_56_Vel_0
Time_Shift_7
Note_On_56_Vel_89
Time_Shift_24
Sustain_Off
Time_Shift_85
Sustain_On
Time_Shift_284
Note_On_32_Vel_0
Time_Shift_11
Note_On_64_Vel_75
Time_Shift_7
Note_On_61_Vel_77
Time_Shift_13
Sustain_Off
Time_Shift_13
Note_On_37_Vel_50
Time_Shift_94
Sustain_On
Time_Shift_171
Note_On_58_Vel_64
Time_Shift_94
Note_On_37_Vel_0
Time_Shift_1
Note_On_58_Vel_0
Time_Shift_1
Note_On_64_Vel_0
Note_On_61_Vel_0
Time_Shift_7
Sustain_Off
Time_Shift_3
Note_On_44_Vel_0
Time_Shift_7
Note_On_56_Vel_0
Note_On_44_Vel_90
Time_Shift_4
Note_On_63_Vel_79
Time_Shift_2
Note_On_32_Vel_69
Note_On_60_Vel_66
Time_Shift_6
Note_On_56_Vel_72
Time_Shift_4
Note_On_32_Vel_0
Time_Shift_33
Note_On_60_Vel_0
Time_Shift_13
Note_On_56_Vel_0
Time_Shift_7
Note_On_68_Vel_0
Time_Shift_31
Sustain_On
Time_Shift_17
Note_On_58_Vel_76
Time_Shift_87
Note_On_58_Vel_0
Time_Shift_22
Note_On_56_Vel_70
Time_Shift_5
Note_On_63_Vel_0
Time_Shift_103
Note_On_55_Vel_91
Time_Shift_7
Note_On_61_Vel_77
Time_Shift_1
Note_On_64_Vel_68
Time_Shift_58
Note_On_56_Vel_0
Time_Shift_27
Note_On_61_Vel_0
Time_Shift_3
Sustain_Off
Time_Shift_23
Note_On_60_Vel_70
Time_Shift_62
Sustain_On
Time_Shift_50
Note_On_58_Vel_71
Time_Shift_103
Note_On_60_Vel_0
Time_Shift_4
Note_On_60_Vel_65
Time_Shift_12
Note_On_44_Vel_0
Time_Shift_1
Note_On_72_Vel_66
Time_Shift_1
Note_On_63_Vel_70
Time_Shift_2
Note_On_56_Vel_72
Note_On_68_Vel_65
Time_Shift_2
Note_On_44_Vel_80
Time_Shift_9
Note_On_55_Vel_0
Note_On_68_Vel_0
Time_Shift_92
Note_On_44_Vel_0
Note_On_56_Vel_0
Time_Shift_6
Note_On_44_Vel_84
Time_Shift_5
Note_On_56_Vel_78
Time_Shift_7
Note_On_68_Vel_78
Time_Shift_2
Note_On_80_Vel_82
Time_Shift_11
Note_On_80_Vel_0
Time_Shift_4
Note_On_58_Vel_0
Time_Shift_1
Sustain_Off
Time_Shift_5
Note_On_60_Vel_0
Time_Shift_2
Note_On_63_Vel_0
Time_Shift_1
Note_On_56_Vel_0
Time_Shift_2
Note_On_44_Vel_0
Note_On_64_Vel_0
Time_Shift_5
Note_On_68_Vel_0
Time_Shift_3
Note_On_72_Vel_0
Time_Shift_58
Note_On_57_Vel_90
Time_Shift_6
Note_On_45_Vel_78
Time_Shift_2
Note_On_69_Vel_79
Note_On_81_Vel_83
Time_Shift_24
Note_On_57_Vel_0
Time_Shift_3
Note_On_69_Vel_0
Time_Shift_2
Note_On_81_Vel_0
Time_Shift_1
Note_On_45_Vel_0
Time_Shift_74
Note_On_53_Vel_91
Time_Shift_4
Note_On_41_Vel_82
Time_Shift_5
Note_On_77_Vel_83
Time_Shift_1
Note_On_65_Vel_85
Time_Shift_18
Note_On_53_Vel_0
Time_Shift_6
Note_On_41_Vel_0
Time_Shift_1
Note_On_77_Vel_0
Time_Shift_18
Note_On_65_Vel_0
Time_Shift_50
Note_On_78_Vel_93
Note_On_66_Vel_92
Note_On_54_Vel_96
Time_Shift_1
Note_On_42_Vel_95
Time_Shift_39
Note_On_66_Vel_0
Note_On_54_Vel_0
Time_Shift_5
Note_On_78_Vel_0
Note_On_42_Vel_0
Time_Shift_74
Note_On_88_Vel_101
Time_Shift_2
Note_On_76_Vel_104
Time_Shift_1
Note_On_64_Vel_101
Time_Shift_1
Note_On_52_Vel_92
Time_Shift_27
Note_On_64_Vel_0
Time_Shift_1
Note_On_52_Vel_0
Time_Shift_1
Note_On_76_Vel_0
Time_Shift_28
Note_On_88_Vel_0
Time_Shift_37
Note_On_73_Vel_113
Time_Shift_1
Note_On_85_Vel_106
Time_Shift_1
Note_On_61_Vel_108
Time_Shift_2
Note_On_49_Vel_103
Time_Shift_59
Sustain_On
Time_Shift_287
Sustain_Off
Time_Shift_8
Note_On_81_Vel_97
Time_Shift_1
Note_On_69_Vel_108
Time_Shift_1
Note_On_57_Vel_106
Time_Shift_4
Note_On_45_Vel_91
Time_Shift_22
Note_On_61_Vel_0
Time_Shift_15
Note_On_73_Vel_0
Note_On_85_Vel_0
Time_Shift_23
Sustain_On
Time_Shift_280
Note_On_56_Vel_88
Time_Shift_1
Note_On_80_Vel_84
Time_Shift_1
Note_On_68_Vel_83
Time_Shift_4
Note_On_44_Vel_84
Time_Shift_13
Note_On_49_Vel_0
Time_Shift_4
Note_On_57_Vel_0
Time_Shift_3
Note_On_45_Vel_0
Time_Shift_2
Note_On_69_Vel_0
Sustain_Off
Time_Shift_3
Note_On_81_Vel_0
Time_Shift_2
Note_On_68_Vel_0
Time_Shift_6
Note_On_44_Vel_0
Note_On_80_Vel_0
Time_Shift_19
Note_On_56_Vel_0
Time_Shift_50
Note_On_66_Vel_85
Note_On_54_Vel_73
Time_Shift_2
Note_On_42_Vel_81
Time_Shift_2
Note_On_78_Vel_77
Time_Shift_33
Note_On_54_Vel_0
Note_On_66_Vel_0
Time_Shift_1
Note_On_42_Vel_0
Time_Shift_6
Note_On_78_Vel_0
Time_Shift_56
Note_On_64_Vel_88
Time_Shift_1
Note_On_40_Vel_86
Note_On_52_Vel_81
Time_Shift_1
Note_On_76_Vel_86
Time_Shift_24
Note_On_64_Vel_0
Time_Shift_4
Note_On_40_Vel_0
Time_Shift_1
Note_On_76_Vel_0
Time_Shift_19
Note_On_52_Vel_0
Time_Shift_68
Note_On_81_Vel_91
Time_Shift_3
Note_On_57_Vel_87
Note_On_69_Vel_87
Time_Shift_1
Note_On_45_Vel_78
Time_Shift_24
Note_On_69_Vel_0
Time_Shift_1
Note_On_57_Vel_0
Note_On_81_Vel_0
Time_Shift_9
Note_On_45_Vel_0
Time_Shift_69
Note_On_56_Vel_89
Time_Shift_1
Note_On_44_Vel_86
Time_Shift_1
Note_On_80_Vel_93
Time_Shift_1
Note_On_68_Vel_86
Time_Shift_25
Note_On_68_Vel_0
Time_Shift_5
Note_On_80_Vel_0
Time_Shift_3
Note_On_44_Vel_0
Time_Shift_11
Note_On_56_Vel_0
Time_Shift_59
Note_On_79_Vel_88
Note_On_55_Vel_90
Time_Shift_1
Note_On_67_Vel_81
Note_On_43_Vel_84
Time_Shift_36
Note_On_67_Vel_0
Note_On_55_Vel_0
Time_Shift_3
Note_On_79_Vel_0
Time_Shift_1
Note_On_43_Vel_0
Time_Shift_66
Note_On_56_Vel_99
Time_Shift_1
Note_On_44_Vel_95
Note_On_68_Vel_99
Note_On_80_Vel_96
Time_Shift_36
Note_On_56_Vel_0
Time_Shift_1
Note_On_68_Vel_0
Time_Shift_2
Note_On_44_Vel_0
Time_Shift_3
Note_On_80_Vel_0
Time_Shift_64
Note_On_78_Vel_90
Note_On_54_Vel_86
Time_Shift_1
Note_On_66_Vel_88
Time_Shift_1
Note_On_42_Vel_93
Time_Shift_29
Note_On_66_Vel_0
Note_On_78_Vel_0
Time_Shift_8
Note_On_42_Vel_0
Note_On_54_Vel_0
Time_Shift_68
Note_On_64_Vel_88
Time_Shift_1
Note_On_76_Vel_90
Time_Shift_1
Note_On_52_Vel_81
Time_Shift_1
Note_On_40_Vel_88
Time_Shift_6
Note_On_68_Vel_77
Time_Shift_16
Note_On_64_Vel_0
Time_Shift_4
Note_On_76_Vel_0
Time_Shift_3
Note_On_40_Vel_0
Time_Shift_11
Note_On_68_Vel_0
Time_Shift_7
Note_On_52_Vel_0
Time_Shift_67
Note_On_81_Vel_92
Time_Shift_2
Note_On_69_Vel_91
Note_On_57_Vel_87
Time_Shift_2
Note_On_45_Vel_82
Time_Shift_23
Note_On_69_Vel_0
Time_Shift_2
Note_On_81_Vel_0
Note_On_57_Vel_0
Time_Shift_35
Note_On_45_Vel_0
Time_Shift_42
Note_On_56_Vel_94
Note_On_44_Vel_95
Note_On_80_Vel_92
Note_On_68_Vel_89
Time_Shift_28
Note_On_68_Vel_0
Time_Shift_1
Note_On_56_Vel_0
Time_Shift_1
Note_On_80_Vel_0
Time_Shift_7
Note_On_44_Vel_0
Time_Shift_69
Note_On_55_Vel_96
Time_Shift_1
Note_On_43_Vel_84
Time_Shift_2
Note_On_67_Vel_79
Time_Shift_5
Note_On_79_Vel_79
Time_Shift_26
Note_On_55_Vel_0
Time_Shift_3
Note_On_43_Vel_0
Time_Shift_22
Note_On_67_Vel_0
Note_On_79_Vel_0
Time_Shift_43
Note_On_80_Vel_105
Note_On_44_Vel_103
Note_On_56_Vel_105
Note_On_68_Vel_102
Time_Shift_19
Sustain_On
Time_Shift_26
Note_On_56_Vel_0
Note_On_68_Vel_0
Time_Shift_1
Note_On_80_Vel_0
Sustain_Off
Time_Shift_3
Note_On_44_Vel_0
Time_Shift_116
Note_On_64_Vel_75
Time_Shift_1
Note_On_76_Vel_78
Time_Shift_1
Note_On_52_Vel_77
Time_Shift_1
Note_On_40_Vel_73
Time_Shift_26
Note_On_64_Vel_0
Note_On_52_Vel_0
Time_Shift_6
Note_On_40_Vel_0
Time_Shift_26
Note_On_76_Vel_0
Time_Shift_44
Note_On_75_Vel_83
Time_Shift_4
Note_On_63_Vel_75
Time_Shift_1
Note_On_51_Vel_79
Note_On_39_Vel_76
Time_Shift_29
Note_On_51_Vel_0
Time_Shift_4
Note_On_75_Vel_0
Time_Shift_26
Note_On_39_Vel_0
Note_On_63_Vel_0
Time_Shift_42
Note_On_73_Vel_77
Note_On_61_Vel_74
Time_Shift_1
Note_On_49_Vel_76
Time_Shift_3
Note_On_37_Vel_81
Time_Shift_19
Note_On_73_Vel_0
Time_Shift_1
Note_On_49_Vel_0
Time_Shift_7
Note_On_37_Vel_0
Time_Shift_19
Note_On_61_Vel_0
Time_Shift_56
Note_On_47_Vel_72
Time_Shift_1
Note_On_35_Vel_76
Time_Shift_1
Note_On_71_Vel_66
Note_On_59_Vel_73
Time_Shift_7
Note_On_68_Vel_72
Time_Shift_23
Note_On_47_Vel_0
Time_Shift_6
Note_On_35_Vel_0
Time_Shift_2
Note_On_71_Vel_0
Time_Shift_19
Note_On_59_Vel_0
Time_Shift_15
Note_On_68_Vel_0
Time_Shift_36
Note_On_68_Vel_77
Time_Shift_5
Note_On_56_Vel_78
Time_Shift_6
Note_On_32_Vel_65
Time_Shift_2
Note_On_44_Vel_66
Time_Shift_24
Note_On_56_Vel_0
Time_Shift_1
Note_On_68_Vel_0
Time_Shift_7
Note_On_44_Vel_0
Time_Shift_1
Note_On_32_Vel_0
Time_Shift_66
Note_On_54_Vel_82
Note_On_66_Vel_79
Time_Shift_6
Note_On_42_Vel_73
Time_Shift_4
Note_On_30_Vel_71
Time_Shift_400
Note_On_64_Vel_69
Time_Shift_5
Note_On_58_Vel_68
Time_Shift_67
Sustain_On
Time_Shift_343
Note_On_63_Vel_70
Time_Shift_19
Note_On_30_Vel_0
Time_Shift_2
Note_On_58_Vel_0
Time_Shift_1
Sustain_Off
Note_On_64_Vel_0
Time_Shift_1
Note_On_54_Vel_0
Note_On_59_Vel_54
Time_Shift_5
Note_On_66_Vel_0
Time_Shift_5
Note_On_35_Vel_51
Time_Shift_62
Note_On_59_Vel_0
Time_Shift_21
Note_On_58_Vel_69
Time_Shift_55
Note_On_63_Vel_0
Time_Shift_53
Note_On_56_Vel_72
Time_Shift_12
Note_On_58_Vel_0
Time_Shift_20
Note_On_56_Vel_0
Time_Shift_88
Note_On_58_Vel_70
Time_Shift_1
Note_On_64_Vel_68
Time_Shift_29
Note_On_30_Vel_41
Time_Shift_66
Note_On_58_Vel_0
Time_Shift_5
Note_On_64_Vel_0
Time_Shift_4
Note_On_56_Vel_69
Time_Shift_61
Note_On_56_Vel_0
Time_Shift_63
Note_On_54_Vel_68
Time_Shift_13
Note_On_30_Vel_0
Time_Shift_145
Note_On_63_Vel_65
Time_Shift_1
Note_On_35_Vel_0
Time_Shift_2
Note_On_59_Vel_57
Time_Shift_4
Note_On_35_Vel_44
Time_Shift_163
Sustain_On
Time_Shift_231
Note_On_54_Vel_0
Time_Shift_3
Note_On_59_Vel_0
Note_On_35_Vel_0
Time_Shift_1
Note_On_63_Vel_0
Time_Shift_1
Note_On_68_Vel_71
Sustain_Off
Time_Shift_5
Note_On_56_Vel_69
Time_Shift_5
Note_On_42_Vel_0
Time_Shift_3
Note_On_44_Vel_46
Time_Shift_8
Note_On_32_Vel_34
Time_Shift_112
Sustain_On
Time_Shift_249
Note_On_66_Vel_89
Time_Shift_10
Note_On_54_Vel_62
Time_Shift_3
Note_On_44_Vel_0
Time_Shift_2
Note_On_56_Vel_0
Time_Shift_1
Note_On_68_Vel_0
Time_Shift_4
Sustain_Off
Time_Shift_4
Note_On_42_Vel_43
Time_Shift_1
Note_On_30_Vel_39
Time_Shift_10
Note_On_32_Vel_0
Time_Shift_85
Sustain_On
Time_Shift_278
Note_On_68_Vel_87
Time_Shift_6
Note_On_56_Vel_71
Time_Shift_28
Sustain_Off
Time_Shift_5
Note_On_44_Vel_46
Time_Shift_1
Note_On_32_Vel_36
Time_Shift_6
Note_On_42_Vel_0
Note_On_66_Vel_0
Time_Shift_1
Note_On_30_Vel_0
Note_On_54_Vel_0
Time_Shift_74
Sustain_On
Time_Shift_337
Note_On_66_Vel_73
Time_Shift_3
Note_On_54_Vel_60
Time_Shift_7
Note_On_42_Vel_49
Time_Shift_2
Note_On_30_Vel_43
Time_Shift_6
Note_On_32_Vel_0
Time_Shift_3
Note_On_44_Vel_0
Note_On_56_Vel_0
Time_Shift_1
Note_On_68_Vel_0
Time_Shift_6
Sustain_Off
Time_Shift_390
Note_On_64_Vel_59
Time_Shift_20
Note_On_58_Vel_57
Time_Shift_85
Sustain_On
Time_Shift_250
Sustain_Off
Time_Shift_1
Note_On_58_Vel_0
Time_Shift_1
Note_On_64_Vel_0
Time_Shift_17
Note_On_66_Vel_0
Time_Shift_8
Note_On_54_Vel_0
Time_Shift_10
Note_On_63_Vel_67
Time_Shift_8
Note_On_59_Vel_55
Time_Shift_7
Note_On_35_Vel_41
Note_On_47_Vel_41
Time_Shift_28
Note_On_30_Vel_0
Time_Shift_7
Note_On_59_Vel_0
Time_Shift_35
Note_On_63_Vel_0
Time_Shift_44
Note_On_58_Vel_63
Time_Shift_48
Note_On_58_Vel_0
Time_Shift_46
Note_On_56_Vel_71
Time_Shift_32
Note_On_56_Vel_0
Time_Shift_86
Note_On_58_Vel_68
Time_Shift_5
Note_On_64_Vel_62
Time_Shift_4
Note_On_42_Vel_0
Time_Shift_3
Note_On_30_Vel_46
Time_Shift_2
Note_On_42_Vel_41
Time_Shift_3
Note_On_30_Vel_0
Time_Shift_34
Note_On_58_Vel_0
Time_Shift_54
Note_On_56_Vel_66
Time_Shift_21
Note_On_64_Vel_0
Time_Shift_9
Note_On_56_Vel_0
Time_Shift_13
Note_On_47_Vel_0
Time_Shift_61
Note_On_42_Vel_0
Time_Shift_6
Note_On_54_Vel_78
Note_On_42_Vel_49
Time_Shift_5
Note_On_66_Vel_58
Time_Shift_5
Note_On_66_Vel_0
Time_Shift_40
Note_On_54_Vel_0
Time_Shift_52
Note_On_35_Vel_0
Time_Shift_7
Note_On_63_Vel_61
Time_Shift_1
Note_On_59_Vel_56
Note_On_71_Vel_59
Time_Shift_1
Note_On_47_Vel_55
Note_On_35_Vel_59
Time_Shift_25
Note_On_59_Vel_0
Time_Shift_1
Note_On_63_Vel_0
Time_Shift_3
Note_On_42_Vel_0
Time_Shift_23
Note_On_71_Vel_0
Time_Shift_15
Note_On_35_Vel_0
Note_On_47_Vel_0
Time_Shift_58
Note_On_51_Vel_71
Time_Shift_1
Note_On_63_Vel_68
Note_On_75_Vel_77
Note_On_39_Vel_63
Time_Shift_24
Note_On_63_Vel_0
Time_Shift_6
Note_On_75_Vel_0
Time_Shift_5
Note_On_39_Vel_0
Time_Shift_14
Note_On_51_Vel_0
Time_Shift_51
Note_On_61_Vel_74
Note_On_49_Vel_74
Note_On_37_Vel_76
Time_Shift_2
Note_On_73_Vel_68
Time_Shift_25
Note_On_61_Vel_0
Time_Shift_22
Note_On_37_Vel_0
Note_On_49_Vel_0
Note_On_73_Vel_0
Time_Shift_49
Note_On_71_Vel_83
Time_Shift_1
Note_On_59_Vel_81
Time_Shift_1
Note_On_47_Vel_68
Time_Shift_3
Note_On_35_Vel_66
Time_Shift_22
Note_On_59_Vel_0
Time_Shift_3
Note_On_71_Vel_0
Time_Shift_3
Note_On_35_Vel_0
Time_Shift_18
Note_On_47_Vel_0
Time_Shift_50
Note_On_46_Vel_82
Time_Shift_3
Note_On_34_Vel_82
Time_Shift_4
Note_On_58_Vel_78
Time_Shift_1
Note_On_70_Vel_74
Time_Shift_24
Note_On_34_Vel_0
Time_Shift_18
Note_On_46_Vel_0
Time_Shift_23
Note_On_58_Vel_0
Note_On_70_Vel_0
Time_Shift_44
Note_On_66_Vel_79
Time_Shift_1
Note_On_42_Vel_72
Time_Shift_1
Note_On_30_Vel_78
Time_Shift_27
Note_On_66_Vel_0
Time_Shift_1
Note_On_42_Vel_0
Time_Shift_41
Note_On_30_Vel_0
Time_Shift_36
Note_On_41_Vel_68
Note_On_65_Vel_78
Time_Shift_2
Note_On_28_Vel_70
Time_Shift_1
Note_On_40_Vel_67
Time_Shift_1
Note_On_29_Vel_71
Time_Shift_1
Note_On_53_Vel_74
Time_Shift_5
Note_On_28_Vel_0
Note_On_40_Vel_0
Time_Shift_3
Note_On_59_Vel_63
Time_Shift_12
Note_On_41_Vel_0
Time_Shift_7
Note_On_29_Vel_0
Time_Shift_16
Note_On_65_Vel_0
Time_Shift_8
Note_On_53_Vel_0
Note_On_59_Vel_0
Time_Shift_65
Note_On_37_Vel_79
Note_On_49_Vel_87
Time_Shift_1
Note_On_61_Vel_77
Time_Shift_28
Note_On_49_Vel_0
Time_Shift_1
Note_On_37_Vel_0
Time_Shift_2
Note_On_61_Vel_0
Time_Shift_76
Note_On_60_Vel_79
Time_Shift_5
Note_On_48_Vel_74
Time_Shift_2
Note_On_36_Vel_74
Time_Shift_27
Note_On_48_Vel_0
Time_Shift_16
Note_On_60_Vel_0
Time_Shift_15
Note_On_36_Vel_0
Time_Shift_56
Note_On_46_Vel_79
Time_Shift_1
Note_On_34_Vel_78
Time_Shift_3
Note_On_58_Vel_75
Time_Shift_25
Note_On_46_Vel_0
Time_Shift_4
Note_On_58_Vel_0
Time_Shift_26
Note_On_34_Vel_0
Time_Shift_58
Note_On_56_Vel_75
Time_Shift_8
Note_On_32_Vel_69
Time_Shift_2
Note_On_44_Vel_66
Time_Shift_40
Note_On_56_Vel_0
Time_Shift_7
Note_On_44_Vel_0
Time_Shift_8
Note_On_32_Vel_0
Time_Shift_71
Note_On_40_Vel_69
Time_Shift_1
Note_On_52_Vel_67
Time_Shift_1
Note_On_28_Vel_66
Time_Shift_31
Note_On_40_Vel_0
Time_Shift_27
Note_On_52_Vel_0
Time_Shift_7
Note_On_28_Vel_0
Time_Shift_107
Note_On_63_Vel_64
Time_Shift_4
Note_On_51_Vel_57
Time_Shift_17
Note_On_27_Vel_46
Time_Shift_425
Sustain_On
Time_Shift_15
Note_On_61_Vel_59
Time_Shift_11
Note_On_55_Vel_39
Time_Shift_5
Sustain_Off
Time_Shift_84
Sustain_On
Time_Shift_346
Note_On_55_Vel_0
Time_Shift_1
Note_On_61_Vel_0
Time_Shift_2
Note_On_51_Vel_0
Time_Shift_2
Sustain_Off
Time_Shift_3
Note_On_60_Vel_57
Time_Shift_4
Note_On_56_Vel_53
Time_Shift_119
Sustain_On
Time_Shift_33
Note_On_55_Vel_57
Time_Shift_126
Note_On_53_Vel_63
Time_Shift_148
Note_On_56_Vel_0
Time_Shift_4
Note_On_60_Vel_0
Note_On_53_Vel_0
Time_Shift_6
Sustain_Off
Time_Shift_5
Note_On_55_Vel_0
Time_Shift_9
Note_On_61_Vel_63
Note_On_55_Vel_49
Time_Shift_140
Note_On_53_Vel_52
Time_Shift_43
Note_On_63_Vel_0
Time_Shift_31
Note_On_53_Vel_0
Time_Shift_15
Sustain_On
Time_Shift_96
Note_On_51_Vel_49
Time_Shift_281
Note_On_55_Vel_0
Time_Shift_23
Note_On_27_Vel_0
Time_Shift_12
Note_On_51_Vel_0
Time_Shift_2
Note_On_61_Vel_0
Time_Shift_4
Sustain_Off
Time_Shift_10
Note_On_60_Vel_47
Time_Shift_7
Note_On_32_Vel_31
Note_On_56_Vel_41
Time_Shift_7
Note_On_44_Vel_36
Time_Shift_219
Sustain_On
Time_Shift_146
Note_On_60_Vel_0
Time_Shift_453
Note_On_56_Vel_0
Time_Shift_5
Note_On_56_Vel_88
Time_Shift_26
Sustain_Off
Time_Shift_23
Note_On_44_Vel_0
Time_Shift_61
Sustain_On
Time_Shift_100
Note_On_32_Vel_0
Time_Shift_468
Note_On_56_Vel_0
Time_Shift_5
Note_On_56_Vel_93
Time_Shift_902
Note_On_56_Vel_0
Time_Shift_4
Note_On_56_Vel_87
Time_Shift_35
Note_On_53_Vel_47
Time_Shift_180
Note_On_51_Vel_79
Time_Shift_57
Sustain_Off
Time_Shift_131
Note_On_49_Vel_85
Time_Shift_69
Sustain_On
Time_Shift_192
Note_On_49_Vel_0
Time_Shift_9
Note_On_44_Vel_84
Time_Shift_1
Note_On_49_Vel_59
Time_Shift_49
Sustain_Off
Time_Shift_4
Note_On_51_Vel_0
Time_Shift_21
Note_On_53_Vel_0
Time_Shift_131
Sustain_On
Time_Shift_453
Note_On_49_Vel_0
Time_Shift_4
Note_On_53_Vel_54
Time_Shift_4
Note_On_44_Vel_0
Time_Shift_3
Note_On_49_Vel_56
Time_Shift_2
Note_On_37_Vel_57
Time_Shift_3
Note_On_44_Vel_49
Time_Shift_771
Note_On_61_Vel_87
Time_Shift_4
Note_On_53_Vel_0
Time_Shift_11
Note_On_53_Vel_67
Time_Shift_9
Note_On_46_Vel_57
Time_Shift_3
Note_On_34_Vel_62
Time_Shift_27
Sustain_Off
Time_Shift_21
Note_On_37_Vel_0
Note_On_44_Vel_0
Time_Shift_2
Note_On_49_Vel_0
Time_Shift_11
Note_On_56_Vel_0
Time_Shift_77
Sustain_On
Time_Shift_651
Note_On_63_Vel_81
Time_Shift_13
Note_On_60_Vel_71
Note_On_51_Vel_74
Time_Shift_5
Note_On_56_Vel_71
Time_Shift_4
Note_On_44_Vel_76
Time_Shift_4
Note_On_32_Vel_72
Time_Shift_40
Note_On_34_Vel_0
Time_Shift_1
Note_On_46_Vel_0
Note_On_61_Vel_0
Time_Shift_6
Sustain_Off
Time_Shift_21
Note_On_53_Vel_0
Time_Shift_108
Sustain_On
Time_Shift_909
Note_On_65_Vel_81
Time_Shift_5
Note_On_53_Vel_65
Time_Shift_2
Note_On_37_Vel_52
Note_On_61_Vel_69
Time_Shift_3
Note_On_25_Vel_56
Time_Shift_51
Note_On_44_Vel_0
Time_Shift_1
Note_On_60_Vel_0
Note_On_32_Vel_0
Note_On_51_Vel_0
Note_On_63_Vel_0
Time_Shift_1
Sustain_Off
Time_Shift_226
Sustain_On
Time_Shift_740
Note_On_94_Vel_61
Time_Shift_85
Note_On_89_Vel_56
Time_Shift_14
Note_On_77_Vel_60
Time_Shift_62
Note_On_92_Vel_67
Time_Shift_15
Note_On_80_Vel_63
Time_Shift_68
Note_On_73_Vel_64
Time_Shift_1
Note_On_85_Vel_68
Time_Shift_75
Note_On_80_Vel_0
Time_Shift_4
Note_On_80_Vel_60
Time_Shift_3
Note_On_78_Vel_54
Time_Shift_2
Note_On_90_Vel_66
Time_Shift_6
Note_On_78_Vel_0
Time_Shift_15
Note_On_77_Vel_0
Time_Shift_10
Note_On_77_Vel_32
Time_Shift_21
Note_On_73_Vel_0
Time_Shift_8
Note_On_85_Vel_0
Time_Shift_3
Note_On_73_Vel_69
Time_Shift_4
Note_On_85_Vel_75
Time_Shift_54
Note_On_77_Vel_0
Time_Shift_11
Note_On_77_Vel_72
Time_Shift_5
Note_On_89_Vel_0
Time_Shift_9
Note_On_89_Vel_73
Time_Shift_60
Note_On_80_Vel_0
Time_Shift_4
Note_On_80_Vel_70
Note_On_68_Vel_66
Time_Shift_65
Note_On_77_Vel_0
Note_On_85_Vel_0
Time_Shift_5
Note_On_85_Vel_64
Time_Shift_5
Note_On_77_Vel_71
Time_Shift_2
Note_On_87_Vel_68
Time_Shift_65
Note_On_68_Vel_0
Time_Shift_4
Note_On_68_Vel_64
Time_Shift_19
Note_On_87_Vel_0
Time_Shift_4
Note_On_87_Vel_61
Time_Shift_19
Note_On_73_Vel_0
Time_Shift_11
Note_On_73_Vel_68
Time_Shift_4
Note_On_85_Vel_0
Time_Shift_8
Note_On_85_Vel_70
Time_Shift_46
Note_On_65_Vel_0
Time_Shift_5
Note_On_65_Vel_59
Time_Shift_2
Note_On_53_Vel_0
Time_Shift_8
Note_On_77_Vel_0
Time_Shift_1
Note_On_53_Vel_48
Time_Shift_5
Note_On_77_Vel_66
Time_Shift_79
Note_On_73_Vel_0
Time_Shift_4
Note_On_73_Vel_71
Time_Shift_14
Note_On_82_Vel_67
Time_Shift_51
Note_On_65_Vel_0
Note_On_77_Vel_0
Time_Shift_10
Note_On_65_Vel_55
Time_Shift_1
Note_On_77_Vel_65
Time_Shift_50
Note_On_68_Vel_0
Note_On_80_Vel_0
Time_Shift_8
Note_On_68_Vel_69
Time_Shift_1
Note_On_80_Vel_65
Time_Shift_83
Note_On_61_Vel_0
Note_On_73_Vel_0
Time_Shift_5
Note_On_73_Vel_62
Time_Shift_6
Note_On_61_Vel_67
Time_Shift_43
Note_On_68_Vel_0
Time_Shift_6
Note_On_68_Vel_61
Time_Shift_17
Note_On_77_Vel_0
Time_Shift_8
Note_On_77_Vel_60
Time_Shift_1
Note_On_78_Vel_56
Time_Shift_53
Note_On_61_Vel_0
Time_Shift_4
Note_On_61_Vel_64
Time_Shift_11
Note_On_73_Vel_0
Time_Shift_4
Note_On_73_Vel_58
Time_Shift_50
Note_On_65_Vel_0
Time_Shift_4
Note_On_65_Vel_62
Time_Shift_3
Note_On_25_Vel_0
Time_Shift_8
Note_On_77_Vel_0
Time_Shift_8
Note_On_77_Vel_66
Time_Shift_69
Note_On_56_Vel_0
Time_Shift_8
Note_On_68_Vel_0
Note_On_56_Vel_61
Time_Shift_4
Note_On_68_Vel_62
Time_Shift_88
Note_On_65_Vel_0
Time_Shift_5
Note_On_75_Vel_57
Time_Shift_4
Note_On_65_Vel_41
Time_Shift_37
Note_On_61_Vel_0
Time_Shift_6
Note_On_61_Vel_33
Time_Shift_24
Note_On_56_Vel_0
Time_Shift_5
Note_On_56_Vel_56
Time_Shift_19
Note_On_68_Vel_0
Time_Shift_11
Note_On_68_Vel_60
Time_Shift_69
Sustain_Off
Time_Shift_88
Note_On_73_Vel_0
Time_Shift_5
Note_On_73_Vel_49
Time_Shift_3
Note_On_68_Vel_0
Time_Shift_8
Note_On_61_Vel_0
Note_On_65_Vel_0
Time_Shift_3
Note_On_68_Vel_44
Time_Shift_6
Note_On_65_Vel_41
Time_Shift_2
Note_On_61_Vel_37
Time_Shift_2
Note_On_49_Vel_37
Time_Shift_13
Note_On_77_Vel_0
Time_Shift_12
Note_On_80_Vel_0
Time_Shift_16
Note_On_78_Vel_0
Note_On_90_Vel_0
Time_Shift_7
Note_On_75_Vel_0
Note_On_92_Vel_0
Time_Shift_8
Note_On_56_Vel_0
Note_On_82_Vel_0
Time_Shift_8
Note_On_94_Vel_0
Time_Shift_7
Note_On_87_Vel_0
Note_On_89_Vel_0
Time_Shift_8
Note_On_85_Vel_0
Time_Shift_15
Note_On_53_Vel_0
Time_Shift_31
Note_On_37_Vel_0
Time_Shift_38
Sustain_On
Time_Shift_16
Note_On_73_Vel_0
Time_Shift_307
Note_On_68_Vel_0
Time_Shift_230
Note_On_65_Vel_0
Time_Shift_12
Note_On_65_Vel_88
Time_Shift_14
Note_On_60_Vel_68
Time_Shift_3
Note_On_57_Vel_74
Time_Shift_5
Note_On_53_Vel_56
Time_Shift_112
Note_On_49_Vel_0
Time_Shift_39
Note_On_61_Vel_0
Time_Shift_484
Note_On_65_Vel_0
Time_Shift_4
Note_On_65_Vel_95
Time_Shift_3
Note_On_53_Vel_0
Time_Shift_2
Note_On_58_Vel_83
Time_Shift_1
Note_On_61_Vel_86
Time_Shift_4
Note_On_53_Vel_64
Time_Shift_3
Note_On_46_Vel_72
Time_Shift_48
Note_On_60_Vel_0
Time_Shift_1
Note_On_57_Vel_0
Time_Shift_677
Note_On_68_Vel_94
Time_Shift_2
Note_On_61_Vel_0
Time_Shift_8
Note_On_61_Vel_79
Time_Shift_3
Note_On_54_Vel_80
Time_Shift_12
Note_On_46_Vel_0
Time_Shift_6
Note_On_39_Vel_63
Time_Shift_1
Note_On_46_Vel_65
Time_Shift_28
Sustain_Off
Time_Shift_11
Note_On_53_Vel_0
Time_Shift_38
Sustain_On
Time_Shift_453
Note_On_54_Vel_0
Time_Shift_4
Note_On_66_Vel_84
Time_Shift_4
Note_On_46_Vel_0
Note_On_61_Vel_0
Time_Shift_2
Note_On_54_Vel_84
Time_Shift_3
Note_On_61_Vel_74
Time_Shift_3
Note_On_39_Vel_0
Time_Shift_1
Note_On_46_Vel_73
Time_Shift_7
Note_On_39_Vel_68
Time_Shift_137
Note_On_61_Vel_0
Note_On_65_Vel_0
Time_Shift_8
Note_On_46_Vel_0
Note_On_65_Vel_90
Time_Shift_4
Note_On_61_Vel_82
Time_Shift_4
Note_On_39_Vel_0
Note_On_54_Vel_0
Time_Shift_3
Note_On_46_Vel_75
Time_Shift_1
Note_On_39_Vel_63
Note_On_51_Vel_65
Time_Shift_1
Note_On_54_Vel_71
Time_Shift_549
Note_On_63_Vel_84
Time_Shift_6
Note_On_54_Vel_0
Time_Shift_8
Note_On_51_Vel_0
Time_Shift_3
Note_On_60_Vel_66
Time_Shift_1
Note_On_54_Vel_52
Time_Shift_2
Sustain_Off
Time_Shift_2
Note_On_51_Vel_56
Note_On_44_Vel_61
Time_Shift_2
Note_On_56_Vel_53
Time_Shift_1
Note_On_32_Vel_55
Time_Shift_1
Note_On_68_Vel_0
Note_On_65_Vel_0
Time_Shift_1
Note_On_39_Vel_0
Time_Shift_1
Note_On_46_Vel_0
Time_Shift_2
Note_On_32_Vel_0
Time_Shift_7
Note_On_58_Vel_0
Note_On_66_Vel_0
Time_Shift_8
Note_On_61_Vel_0
Time_Shift_8
Note_On_54_Vel_0
Time_Shift_207
Sustain_On
Time_Shift_230
Note_On_56_Vel_0
Time_Shift_167
Sustain_Off
Time_Shift_25
Sustain_On
Time_Shift_151
Note_On_101_Vel_66
Time_Shift_7
Sustain_Off
Time_Shift_65
Sustain_On
Time_Shift_29
Note_On_96_Vel_63
Time_Shift_6
Note_On_84_Vel_55
Time_Shift_85
Note_On_99_Vel_72
Time_Shift_14
Note_On_87_Vel_55
Time_Shift_78
Note_On_92_Vel_60
Note_On_80_Vel_68
Time_Shift_80
Note_On_60_Vel_0
Time_Shift_3
Note_On_97_Vel_70
Time_Shift_1
Note_On_85_Vel_60
Time_Shift_65
Note_On_80_Vel_0
Note_On_92_Vel_0
Time_Shift_7
Note_On_92_Vel_67
Time_Shift_2
Note_On_80_Vel_65
Time_Shift_68
Note_On_84_Vel_0
Note_On_96_Vel_0
Time_Shift_10
Note_On_96_Vel_66
Note_On_84_Vel_66
Time_Shift_67
Note_On_87_Vel_0
Time_Shift_4
Note_On_75_Vel_62
Note_On_87_Vel_62
Time_Shift_64
Note_On_94_Vel_74
Time_Shift_16
Note_On_84_Vel_0
Time_Shift_4
Note_On_84_Vel_62
Time_Shift_65
Note_On_87_Vel_0
Time_Shift_4
Note_On_87_Vel_58
Time_Shift_4
Note_On_75_Vel_0
Time_Shift_5
Note_On_75_Vel_56
Time_Shift_41
Note_On_80_Vel_0
Time_Shift_8
Note_On_84_Vel_0
Note_On_92_Vel_0
Time_Shift_2
Note_On_80_Vel_70
Time_Shift_7
Note_On_92_Vel_70
Time_Shift_1
Note_On_84_Vel_51
Time_Shift_74
Note_On_84_Vel_0
Time_Shift_4
Note_On_72_Vel_65
Time_Shift_5
Note_On_84_Vel_71
Time_Shift_68
Note_On_80_Vel_0
Time_Shift_11
Note_On_89_Vel_70
Note_On_80_Vel_68
Time_Shift_66
Note_On_84_Vel_0
Note_On_96_Vel_0
Time_Shift_9
Note_On_84_Vel_65
Time_Shift_1
Note_On_96_Vel_55
Time_Shift_5
Note_On_72_Vel_0
Time_Shift_4
Note_On_72_Vel_63
Time_Shift_65
Note_On_75_Vel_0
Note_On_87_Vel_0
Time_Shift_9
Note_On_87_Vel_64
Time_Shift_1
Note_On_75_Vel_64
Time_Shift_59
Note_On_80_Vel_0
Time_Shift_11
Note_On_80_Vel_66
Time_Shift_8
Note_On_68_Vel_69
Time_Shift_66
Note_On_85_Vel_0
Time_Shift_7
Note_On_75_Vel_0
Time_Shift_3
Note_On_85_Vel_69
Time_Shift_2
Note_On_75_Vel_50
Time_Shift_65
Note_On_68_Vel_0
Note_On_80_Vel_0
Time_Shift_10
Note_On_80_Vel_67
Time_Shift_1
Note_On_68_Vel_69
Time_Shift_73
Note_On_72_Vel_0
Note_On_84_Vel_0
Time_Shift_10
Note_On_84_Vel_63
Note_On_72_Vel_53
Time_Shift_52
Note_On_63_Vel_0
Time_Shift_6
Note_On_63_Vel_57
Time_Shift_1
Note_On_68_Vel_0
Time_Shift_6
Note_On_68_Vel_49
Time_Shift_100
Note_On_82_Vel_64
Time_Shift_2
Note_On_72_Vel_0
Time_Shift_11
Note_On_72_Vel_52
Time_Shift_81
Note_On_63_Vel_0
Note_On_68_Vel_0
Note_On_72_Vel_0
Time_Shift_4
Note_On_68_Vel_46
Note_On_72_Vel_41
Time_Shift_1
Note_On_63_Vel_52
Time_Shift_172
Note_On_80_Vel_0
Time_Shift_7
Note_On_72_Vel_0
Time_Shift_4
Note_On_80_Vel_57
Time_Shift_1
Note_On_72_Vel_51
Time_Shift_3
Note_On_68_Vel_0
Time_Shift_6
Note_On_68_Vel_42
Time_Shift_24
Note_On_56_Vel_43
Time_Shift_5
Note_On_97_Vel_0
Note_On_96_Vel_0
Note_On_94_Vel_0
Note_On_82_Vel_0
Time_Shift_1
Note_On_84_Vel_0
Time_Shift_1
Note_On_99_Vel_0
Note_On_51_Vel_0
Time_Shift_1
Note_On_63_Vel_0
Note_On_44_Vel_0
Time_Shift_2
Note_On_85_Vel_0
Note_On_75_Vel_0
Sustain_Off
Note_On_87_Vel_0
Time_Shift_1
Note_On_92_Vel_0
Time_Shift_5
Note_On_89_Vel_0
Note_On_101_Vel_0
Time_Shift_169
Sustain_On
Time_Shift_261
Note_On_80_Vel_0
Time_Shift_77
Note_On_68_Vel_0
Time_Shift_354
Note_On_63_Vel_89
Time_Shift_7
Note_On_56_Vel_0
Time_Shift_6
Note_On_60_Vel_73
Time_Shift_5
Note_On_56_Vel_73
Time_Shift_2
Note_On_51_Vel_69
Time_Shift_2
Note_On_72_Vel_0
Time_Shift_4
Note_On_44_Vel_79
Time_Shift_1
Note_On_32_Vel_73
Time_Shift_60
Sustain_Off
Time_Shift_4
Sustain_On
Time_Shift_638
Note_On_63_Vel_0
Time_Shift_7
Note_On_51_Vel_0
Time_Shift_1
Note_On_63_Vel_96
Time_Shift_3
Note_On_59_Vel_83
Time_Shift_1
Note_On_51_Vel_91
Time_Shift_3
Note_On_44_Vel_0
Time_Shift_8
Note_On_32_Vel_0
Time_Shift_2
Note_On_44_Vel_90
Time_Shift_2
Note_On_32_Vel_83
Time_Shift_48
Sustain_Off
Time_Shift_19
Note_On_60_Vel_0
Time_Shift_144
Sustain_On
Time_Shift_468
Note_On_59_Vel_0
Time_Shift_3
Note_On_61_Vel_98
Time_Shift_3
Note_On_59_Vel_88
Time_Shift_4
Note_On_53_Vel_85
Time_Shift_6
Note_On_44_Vel_0
Note_On_49_Vel_85
Time_Shift_5
Note_On_37_Vel_80
Time_Shift_2
Note_On_44_Vel_79
Time_Shift_20
Sustain_Off
Time_Shift_80
Note_On_51_Vel_0
Time_Shift_85
Sustain_On
Time_Shift_722
Note_On_61_Vel_0
Time_Shift_5
Note_On_70_Vel_89
Time_Shift_5
Note_On_66_Vel_87
Time_Shift_1
Note_On_61_Vel_82
Note_On_58_Vel_86
Time_Shift_21
Note_On_42_Vel_87
Time_Shift_1
Note_On_30_Vel_84
Time_Shift_27
Note_On_53_Vel_0
Time_Shift_2
Note_On_44_Vel_0
Time_Shift_1
Note_On_59_Vel_0
Note_On_37_Vel_0
Time_Shift_1
Note_On_49_Vel_0
Time_Shift_2
Sustain_Off
Time_Shift_3
Note_On_32_Vel_0
Time_Shift_7
Note_On_56_Vel_0
Note_On_63_Vel_0
Time_Shift_116
Sustain_On
Time_Shift_725
Note_On_99_Vel_74
Time_Shift_5
Note_On_90_Vel_56
Time_Shift_90
Note_On_94_Vel_71
Time_Shift_4
Note_On_82_Vel_66
Time_Shift_78
Note_On_85_Vel_74
Time_Shift_2
Note_On_97_Vel_70
Time_Shift_71
Note_On_90_Vel_0
Time_Shift_3
Note_On_78_Vel_68
Time_Shift_6
Note_On_90_Vel_71
Time_Shift_52
Note_On_85_Vel_0
Time_Shift_4
Note_On_85_Vel_62
Time_Shift_26
Note_On_95_Vel_76
Time_Shift_63
Note_On_78_Vel_0
Note_On_90_Vel_0
Time_Shift_5
Note_On_90_Vel_68
Note_On_78_Vel_64
Time_Shift_64
Note_On_82_Vel_0
Note_On_94_Vel_0
Time_Shift_7
Note_On_94_Vel_81
Time_Shift_3
Note_On_82_Vel_70
Time_Shift_59
Note_On_85_Vel_0
Time_Shift_10
Note_On_85_Vel_71
Time_Shift_5
Note_On_73_Vel_64
Time_Shift_62
Note_On_82_Vel_0
Time_Shift_5
Note_On_92_Vel_67
Time_Shift_5
Note_On_82_Vel_64
Time_Shift_59
Note_On_85_Vel_0
Time_Shift_5
Note_On_85_Vel_74
Time_Shift_10
Note_On_73_Vel_0
Time_Shift_8
Note_On_94_Vel_0
Time_Shift_4
Note_On_73_Vel_65
Note_On_94_Vel_52
Time_Shift_49
Note_On_78_Vel_0
Note_On_90_Vel_0
Time_Shift_10
Note_On_90_Vel_68
Time_Shift_1
Note_On_78_Vel_69
Time_Shift_59
Note_On_82_Vel_0
Time_Shift_7
Note_On_70_Vel_0
Time_Shift_4
Note_On_82_Vel_71
Time_Shift_5
Note_On_70_Vel_53
Time_Shift_76
Note_On_78_Vel_0
Time_Shift_5
Note_On_78_Vel_62
Time_Shift_2
Note_On_87_Vel_66
Time_Shift_70
Note_On_70_Vel_0
Note_On_82_Vel_0
Time_Shift_8
Note_On_70_Vel_58
Time_Shift_1
Note_On_82_Vel_67
Time_Shift_60
Note_On_73_Vel_0
Time_Shift_7
Note_On_85_Vel_0
Time_Shift_3
Note_On_73_Vel_67
Time_Shift_1
Note_On_85_Vel_70
Time_Shift_65
Note_On_66_Vel_0
Time_Shift_8
Note_On_78_Vel_0
Time_Shift_4
Note_On_66_Vel_60
Note_On_58_Vel_0
Time_Shift_3
Note_On_78_Vel_59
Time_Shift_78
Note_On_73_Vel_0
Time_Shift_9
Note_On_73_Vel_63
Time_Shift_2
Note_On_83_Vel_58
Time_Shift_65
Note_On_66_Vel_0
Note_On_78_Vel_0
Time_Shift_12
Note_On_78_Vel_61
Note_On_66_Vel_46
Time_Shift_73
Note_On_70_Vel_0
Time_Shift_8
Note_On_82_Vel_0
Time_Shift_1
Note_On_70_Vel_53
Time_Shift_2
Note_On_82_Vel_67
Time_Shift_27
Note_On_78_Vel_0
Time_Shift_5
Note_On_78_Vel_46
Time_Shift_49
Note_On_61_Vel_0
Note_On_73_Vel_0
Time_Shift_4
Note_On_61_Vel_57
Time_Shift_8
Note_On_73_Vel_57
Time_Shift_80
Note_On_70_Vel_0
Time_Shift_4
Note_On_80_Vel_52
Time_Shift_1
Note_On_70_Vel_57
Time_Shift_72
Note_On_61_Vel_0
Time_Shift_8
Note_On_73_Vel_0
Time_Shift_3
Note_On_61_Vel_63
Time_Shift_3
Note_On_73_Vel_58
Time_Shift_193
Note_On_70_Vel_0
Note_On_78_Vel_0
Time_Shift_7
Note_On_70_Vel_49
Time_Shift_1
Note_On_66_Vel_0
Note_On_73_Vel_0
Time_Shift_4
Note_On_78_Vel_48
Note_On_73_Vel_46
Time_Shift_1
Note_On_66_Vel_45
Time_Shift_28
Note_On_99_Vel_0
Note_On_95_Vel_0
Time_Shift_1
Note_On_87_Vel_0
Note_On_83_Vel_0
Note_On_97_Vel_0
Time_Shift_1
Note_On_30_Vel_0
Note_On_90_Vel_0
Note_On_92_Vel_0
Note_On_94_Vel_0
Note_On_80_Vel_0
Note_On_42_Vel_0
Sustain_Off
Note_On_82_Vel_0
Time_Shift_1
Note_On_85_Vel_0
Time_Shift_95
Sustain_On
Time_Shift_637
Note_On_78_Vel_0
Time_Shift_161
Note_On_70_Vel_0
Time_Shift_3
Sustain_Off
Time_Shift_4
Note_On_70_Vel_93
Time_Shift_1
Note_On_61_Vel_0
Time_Shift_11
Note_On_61_Vel_71
Time_Shift_5
Note_On_58_Vel_68
Time_Shift_35
Note_On_30_Vel_40
Time_Shift_1
Note_On_42_Vel_36
Time_Shift_2
Note_On_73_Vel_0
Time_Shift_77
Sustain_On
Time_Shift_23
Note_On_61_Vel_0
Time_Shift_7
Note_On_58_Vel_0
Time_Shift_1
Note_On_61_Vel_46
Time_Shift_3
Note_On_58_Vel_55
Time_Shift_58
Note_On_66_Vel_0
Time_Shift_484
Note_On_61_Vel_0
Time_Shift_4
Note_On_63_Vel_89
Time_Shift_7
Note_On_61_Vel_70
Time_Shift_12
Note_On_54_Vel_57
Time_Shift_23
Note_On_46_Vel_44
Time_Shift_2
Note_On_58_Vel_0
Time_Shift_2
Note_On_30_Vel_0
Time_Shift_2
Note_On_70_Vel_0
Time_Shift_2
Note_On_34_Vel_48
Time_Shift_1
Sustain_Off
Time_Shift_75
Sustain_On
Time_Shift_742
Note_On_66_Vel_72
Time_Shift_3
Note_On_61_Vel_0
Time_Shift_9
Note_On_61_Vel_54
Time_Shift_2
Note_On_58_Vel_53
Time_Shift_10
Note_On_32_Vel_42
Time_Shift_5
Note_On_44_Vel_43
Time_Shift_17
Sustain_Off
Time_Shift_9
Note_On_34_Vel_0
Note_On_54_Vel_0
Note_On_63_Vel_0
Time_Shift_10
Note_On_42_Vel_0
Note_On_46_Vel_0
Time_Shift_115
Sustain_On
Time_Shift_625
Note_On_65_Vel_61
Time_Shift_5
Note_On_44_Vel_0
Note_On_56_Vel_56
Time_Shift_4
Note_On_60_Vel_51
Time_Shift_3
Note_On_44_Vel_51
Time_Shift_103
Sustain_Off
Time_Shift_9
Note_On_66_Vel_0
Time_Shift_6
Note_On_32_Vel_0
Time_Shift_5
Note_On_58_Vel_0
Time_Shift_7
Note_On_63_Vel_59
Time_Shift_1
Note_On_61_Vel_0
Time_Shift_7
Note_On_60_Vel_0
Time_Shift_5
Note_On_60_Vel_45
Time_Shift_3
Note_On_56_Vel_0
Time_Shift_7
Note_On_56_Vel_40
Time_Shift_8
Note_On_54_Vel_44
Note_On_44_Vel_0
Time_Shift_4
Note_On_44_Vel_38
Time_Shift_158
Sustain_On
Time_Shift_349
Sustain_Off
Time_Shift_8
Note_On_54_Vel_0
Time_Shift_1
Note_On_63_Vel_0
Time_Shift_7
Note_On_61_Vel_61
Time_Shift_11
Note_On_60_Vel_0
Time_Shift_1
Note_On_53_Vel_45
Time_Shift_3
Note_On_37_Vel_37
Time_Shift_27
Note_On_65_Vel_0
Time_Shift_138
Note_On_56_Vel_0
Sustain_On
Time_Shift_627
Note_On_85_Vel_50
Time_Shift_3
Note_On_94_Vel_57
Time_Shift_96
Note_On_89_Vel_58
Time_Shift_3
Note_On_77_Vel_62
Time_Shift_82
Note_On_92_Vel_66
Time_Shift_4
Note_On_80_Vel_66
Time_Shift_76
Note_On_85_Vel_0
Time_Shift_10
Note_On_85_Vel_67
Time_Shift_2
Note_On_73_Vel_64
Time_Shift_72
Note_On_80_Vel_0
Time_Shift_6
Note_On_90_Vel_65
Time_Shift_5
Note_On_80_Vel_66
Time_Shift_59
Note_On_73_Vel_0
Note_On_85_Vel_0
Time_Shift_3
Note_On_85_Vel_73
Time_Shift_5
Note_On_73_Vel_65
Time_Shift_61
Note_On_77_Vel_0
Time_Shift_6
Note_On_77_Vel_74
Time_Shift_1
Note_On_89_Vel_0
Time_Shift_5
Note_On_89_Vel_69
Time_Shift_61
Note_On_68_Vel_68
Time_Shift_11
Note_On_80_Vel_0
Time_Shift_4
Note_On_80_Vel_67
Time_Shift_71
Note_On_87_Vel_73
Time_Shift_2
Note_On_77_Vel_0
Time_Shift_4
Note_On_77_Vel_69
Time_Shift_65
Note_On_68_Vel_0
Note_On_80_Vel_0
Time_Shift_7
Note_On_68_Vel_78
Time_Shift_4
Note_On_80_Vel_69
Time_Shift_43
Note_On_73_Vel_0
Time_Shift_4
Note_On_73_Vel_69
Time_Shift_3
Note_On_85_Vel_0
Time_Shift_12
Note_On_85_Vel_75
Time_Shift_71
Note_On_65_Vel_66
Time_Shift_10
Note_On_68_Vel_0
Note_On_77_Vel_0
Time_Shift_4
Note_On_77_Vel_64
Time_Shift_1
Note_On_68_Vel_60
Time_Shift_71
Note_On_73_Vel_0
Time_Shift_6
Note_On_73_Vel_69
Time_Shift_11
Note_On_82_Vel_67
Time_Shift_68
Note_On_65_Vel_0
Note_On_77_Vel_0
Time_Shift_7
Note_On_65_Vel_61
Time_Shift_4
Note_On_77_Vel_60
Time_Shift_50
Note_On_73_Vel_0
Note_On_80_Vel_0
Time_Shift_7
Note_On_80_Vel_69
Time_Shift_5
Note_On_73_Vel_55
Time_Shift_11
Note_On_68_Vel_0
Time_Shift_6
Note_On_68_Vel_73
Time_Shift_64
Note_On_53_Vel_0
Note_On_61_Vel_0
Time_Shift_7
Note_On_73_Vel_0
Time_Shift_8
Note_On_73_Vel_65
Time_Shift_9
Note_On_61_Vel_63
Time_Shift_68
Note_On_77_Vel_0
Time_Shift_7
Note_On_68_Vel_0
Time_Shift_4
Note_On_77_Vel_43
Time_Shift_3
Note_On_68_Vel_48
Time_Shift_1
Note_On_65_Vel_0
Time_Shift_7
Note_On_65_Vel_38
Time_Shift_97
Note_On_78_Vel_58
Time_Shift_4
Note_On_73_Vel_0
Time_Shift_4
Note_On_73_Vel_63
Note_On_70_Vel_69
Time_Shift_14
Note_On_56_Vel_61
Time_Shift_58
Note_On_44_Vel_0
Time_Shift_2
Sustain_Off
Time_Shift_1
Note_On_65_Vel_0
Note_On_56_Vel_0
Note_On_87_Vel_0
Note_On_68_Vel_0
Time_Shift_1
Note_On_61_Vel_0
Note_On_85_Vel_0
Note_On_77_Vel_0
Note_On_89_Vel_0
Note_On_73_Vel_0
Note_On_82_Vel_0
Note_On_92_Vel_0
Note_On_70_Vel_0
Note_On_78_Vel_0
Note_On_94_Vel_0
Time_Shift_1
Note_On_37_Vel_0
Time_Shift_11
Note_On_80_Vel_0
Time_Shift_7
Note_On_90_Vel_0
Time_Shift_128
Note_On_68_Vel_58
Time_Shift_12
Note_On_77_Vel_59
Time_Shift_3
Note_On_56_Vel_65
Time_Shift_3
Note_On_70_Vel_53
Note_On_72_Vel_49
Time_Shift_20
Note_On_68_Vel_0
Time_Shift_19
Note_On_77_Vel_0
Time_Shift_36
Note_On_66_Vel_76
Time_Shift_2
Note_On_56_Vel_0
Note_On_70_Vel_0
Note_On_72_Vel_0
Time_Shift_4
Note_On_72_Vel_59
Note_On_56_Vel_69
Time_Shift_8
Note_On_75_Vel_53
Time_Shift_19
Note_On_66_Vel_0
Time_Shift_4
Note_On_75_Vel_0
Time_Shift_27
Note_On_56_Vel_0
Time_Shift_7
Note_On_72_Vel_0
Time_Shift_135
Note_On_73_Vel_65
Time_Shift_1
Note_On_65_Vel_60
Time_Shift_5
Note_On_49_Vel_61
Time_Shift_13
Sustain_On
Time_Shift_164
Sustain_Off
Time_Shift_28
Note_On_49_Vel_0
Note_On_65_Vel_0
Time_Shift_8
Note_On_73_Vel_0
Time_Shift_1
Note_On_49_Vel_44
Time_Shift_1
Note_On_65_Vel_45
Time_Shift_2
Note_On_73_Vel_59
Time_Shift_16
Note_On_82_Vel_57
Time_Shift_56
Note_On_65_Vel_0
Time_Shift_12
Note_On_65_Vel_54
Note_On_77_Vel_61
Time_Shift_59
Note_On_80_Vel_64
Time_Shift_9
Note_On_68_Vel_67
Time_Shift_43
Sustain_On
Time_Shift_16
Note_On_73_Vel_0
Time_Shift_10
Note_On_73_Vel_65
Time_Shift_2
Note_On_61_Vel_64
Time_Shift_72
Note_On_68_Vel_0
Time_Shift_3
Note_On_78_Vel_65
Time_Shift_4
Note_On_68_Vel_63
Time_Shift_16
Sustain_Off
Time_Shift_31
Note_On_73_Vel_0
Time_Shift_7
Note_On_61_Vel_0
Time_Shift_3
Note_On_73_Vel_73
Time_Shift_2
Note_On_61_Vel_64
Time_Shift_65
Note_On_65_Vel_0
Note_On_77_Vel_0
Time_Shift_6
Note_On_77_Vel_70
Time_Shift_4
Note_On_65_Vel_61
Time_Shift_20
Note_On_73_Vel_0
Sustain_On
Time_Shift_6
Note_On_73_Vel_44
Time_Shift_25
Note_On_68_Vel_0
Time_Shift_11
Note_On_68_Vel_67
Time_Shift_1
Note_On_56_Vel_74
Time_Shift_69
Note_On_75_Vel_68
Time_Shift_19
Note_On_65_Vel_0
Time_Shift_8
Sustain_Off
Time_Shift_2
Note_On_65_Vel_59
Time_Shift_44
Note_On_56_Vel_0
Note_On_68_Vel_0
Time_Shift_5
Note_On_68_Vel_71
Time_Shift_6
Note_On_56_Vel_64
Time_Shift_27
Sustain_On
Time_Shift_15
Note_On_61_Vel_0
Time_Shift_5
Note_On_61_Vel_74
Time_Shift_65
Note_On_65_Vel_0
Time_Shift_10
Note_On_65_Vel_68
Time_Shift_1
Note_On_53_Vel_68
Time_Shift_19
Note_On_82_Vel_0
Time_Shift_3
Note_On_78_Vel_0
Time_Shift_2
Note_On_61_Vel_0
Sustain_Off
Time_Shift_1
Note_On_80_Vel_0
Time_Shift_2
Note_On_75_Vel_0
Note_On_68_Vel_0
Time_Shift_1
Note_On_73_Vel_0
Note_On_77_Vel_0
Time_Shift_3
Note_On_65_Vel_0
Time_Shift_2
Note_On_53_Vel_0
Time_Shift_2
Note_On_49_Vel_0
Note_On_56_Vel_0
Time_Shift_34
Note_On_61_Vel_69
Time_Shift_7
Note_On_70_Vel_57
Time_Shift_67
Note_On_65_Vel_57
Time_Shift_2
Note_On_53_Vel_56
Time_Shift_28
Sustain_On
Time_Shift_27
Note_On_68_Vel_67
Time_Shift_7
Note_On_56_Vel_68
Time_Shift_66
Note_On_61_Vel_0
Time_Shift_9
Note_On_61_Vel_66
Time_Shift_3
Note_On_49_Vel_64
Time_Shift_90
Note_On_66_Vel_73
Time_Shift_5
Note_On_49_Vel_0
Time_Shift_1
Note_On_56_Vel_0
Time_Shift_1
Sustain_Off
Note_On_53_Vel_0
Time_Shift_3
Note_On_65_Vel_0
Note_On_68_Vel_0
Time_Shift_3
Note_On_61_Vel_0
Time_Shift_3
Note_On_58_Vel_65
Time_Shift_3
Note_On_61_Vel_53
Time_Shift_3
Note_On_70_Vel_0
Time_Shift_2
Note_On_44_Vel_67
Time_Shift_17
Note_On_58_Vel_0
Time_Shift_5
Note_On_66_Vel_0
Time_Shift_3
Note_On_44_Vel_0
Time_Shift_10
Note_On_61_Vel_0
Time_Shift_205
Note_On_56_Vel_68
Time_Shift_5
Note_On_60_Vel_59
Time_Shift_1
Note_On_65_Vel_58
Time_Shift_1
Note_On_44_Vel_67
Time_Shift_26
Note_On_65_Vel_0
Time_Shift_15
Note_On_56_Vel_0
Time_Shift_8
Note_On_60_Vel_0
Time_Shift_23
Note_On_44_Vel_0
Time_Shift_5
Note_On_44_Vel_75
Time_Shift_2
Note_On_54_Vel_71
Time_Shift_2
Note_On_63_Vel_74
Time_Shift_3
Note_On_60_Vel_63
Time_Shift_25
Note_On_54_Vel_0
Note_On_44_Vel_0
Time_Shift_5
Note_On_63_Vel_0
Time_Shift_20
Note_On_60_Vel_0
Time_Shift_204
Note_On_44_Vel_42
Time_Shift_60
Note_On_61_Vel_50
Time_Shift_1
Note_On_53_Vel_37
Time_Shift_7
Note_On_56_Vel_38
Time_Shift_12
Note_On_44_Vel_0
Time_Shift_7
Note_On_44_Vel_39
Note_On_37_Vel_38
Time_Shift_85
Sustain_On
Time_Shift_626
Note_On_49_Vel_44
Time_Shift_19
Note_On_37_Vel_0
Time_Shift_5
Note_On_37_Vel_32
Time_Shift_4
Note_On_25_Vel_39
Time_Shift_2
Sustain_Off
Time_Shift_1
Note_On_53_Vel_0
Time_Shift_1
Note_On_61_Vel_0
Time_Shift_25
Note_On_44_Vel_0
Time_Shift_85
Sustain_On
Time_Shift_453
Note_On_49_Vel_0
Time_Shift_4
Note_On_49_Vel_57
Time_Shift_11
Note_On_37_Vel_0
Time_Shift_10
Note_On_37_Vel_35
Time_Shift_6
Note_On_25_Vel_0
Sustain_Off
Time_Shift_4
Note_On_25_Vel_35
Time_Shift_103
Sustain_On
Time_Shift_507
Note_On_49_Vel_0
Time_Shift_5
Note_On_49_Vel_67
Time_Shift_909
Note_On_56_Vel_0
Time_Shift_15
Note_On_49_Vel_0
Time_Shift_5
Note_On_49_Vel_38
Time_Shift_3
Note_On_25_Vel_0
Note_On_37_Vel_0
Time_Shift_7
Note_On_37_Vel_29
Time_Shift_4
Note_On_25_Vel_30
Sustain_Off
Time_Shift_281
Sustain_On
Time_Shift_1352
Note_On_25_Vel_0
Time_Shift_8
Note_On_37_Vel_0
Time_Shift_4
Note_On_49_Vel_0
Time_Shift_1
Sustain_Off
Time_Shift_5
Note_On_46_Vel_48
Time_Shift_2
Note_On_34_Vel_40
Time_Shift_256
Sustain_On
Time_Shift_467
Note_On_51_Vel_38
Time_Shift_12
Note_On_39_Vel_26
Time_Shift_3
Note_On_27_Vel_27
Time_Shift_12
Note_On_34_Vel_0
Time_Shift_2
Note_On_46_Vel_0
Time_Shift_19
Sustain_Off
Time_Shift_199
Sustain_On
Time_Shift_667
Note_On_49_Vel_32
Time_Shift_11
Note_On_37_Vel_24
Time_Shift_11
Note_On_25_Vel_27
Time_Shift_30
Note_On_51_Vel_0
Time_Shift_3
Note_On_39_Vel_0
Time_Shift_33
Sustain_Off
Time_Shift_21
Note_On_27_Vel_0
Time_Shift_192
Sustain_On
Time_Shift_863
Note_On_68_Vel_61
Time_Shift_20
Note_On_65_Vel_40
Time_Shift_1
Note_On_61_Vel_36
Time_Shift_7
Note_On_37_Vel_0
Time_Shift_1
Note_On_56_Vel_33
Time_Shift_7
Note_On_49_Vel_0
Time_Shift_3
Note_On_37_Vel_29
Time_Shift_1
Note_On_49_Vel_30
Time_Shift_782
Note_On_73_Vel_77
Time_Shift_5
Note_On_61_Vel_0
Time_Shift_7
Note_On_65_Vel_0
Time_Shift_1
Note_On_70_Vel_66
Time_Shift_2
Note_On_61_Vel_56
Time_Shift_2
Note_On_65_Vel_55
Time_Shift_14
Note_On_58_Vel_52
Time_Shift_5
Note_On_53_Vel_42
Time_Shift_4
Note_On_46_Vel_48
Time_Shift_80
Sustain_Off
Time_Shift_115
Sustain_On
Time_Shift_300
Note_On_25_Vel_0
Note_On_37_Vel_0
Time_Shift_226
Note_On_75_Vel_86
Time_Shift_4
Note_On_68_Vel_0
Time_Shift_4
Note_On_72_Vel_74
Note_On_63_Vel_75
Time_Shift_4
Note_On_56_Vel_0
Time_Shift_1
Note_On_68_Vel_71
Time_Shift_9
Note_On_56_Vel_74
Note_On_44_Vel_68
Time_Shift_33
Note_On_53_Vel_0
Time_Shift_1
Note_On_46_Vel_0
Time_Shift_1
Note_On_70_Vel_0
Time_Shift_3
Note_On_73_Vel_0
Time_Shift_1
Note_On_58_Vel_0
Time_Shift_1
Sustain_Off
Time_Shift_11
Note_On_61_Vel_0
Time_Shift_8
Note_On_49_Vel_0
Note_On_65_Vel_0
Time_Shift_130
Sustain_On
Time_Shift_756
Note_On_77_Vel_87
Time_Shift_3
Note_On_73_Vel_73
Time_Shift_4
Note_On_65_Vel_65
Time_Shift_26
Note_On_37_Vel_48
Time_Shift_21
Note_On_72_Vel_0
Time_Shift_1
Sustain_Off
Note_On_75_Vel_0
Note_On_68_Vel_0
Time_Shift_1
Note_On_63_Vel_0
Time_Shift_1
Note_On_44_Vel_0
Time_Shift_9
Note_On_56_Vel_0
Time_Shift_115
Sustain_On
Time_Shift_266
Sustain_Off
Time_Shift_80
Sustain_On
Time_Shift_412
Note_On_94_Vel_56
Time_Shift_8
Note_On_85_Vel_45
Time_Shift_94
Note_On_77_Vel_0
Time_Shift_4
Note_On_89_Vel_52
Time_Shift_5
Note_On_77_Vel_53
Time_Shift_77
Note_On_92_Vel_66
Time_Shift_19
Note_On_80_Vel_60
Time_Shift_80
Note_On_73_Vel_0
Note_On_85_Vel_0
Time_Shift_10
Note_On_85_Vel_64
Note_On_73_Vel_61
Time_Shift_74
Note_On_80_Vel_0
Time_Shift_4
Note_On_90_Vel_62
Note_On_78_Vel_48
Time_Shift_7
Note_On_80_Vel_58
Time_Shift_5
Note_On_78_Vel_0
Time_Shift_53
Note_On_85_Vel_0
Time_Shift_8
Note_On_73_Vel_0
Time_Shift_1
Note_On_85_Vel_75
Time_Shift_3
Note_On_73_Vel_68
Time_Shift_73
Note_On_77_Vel_0
Note_On_89_Vel_0
Time_Shift_7
Note_On_77_Vel_67
Time_Shift_1
Note_On_89_Vel_75
Time_Shift_65
Note_On_68_Vel_70
Time_Shift_4
Note_On_80_Vel_0
Time_Shift_10
Note_On_80_Vel_73
Time_Shift_70
Note_On_87_Vel_75
Time_Shift_4
Note_On_77_Vel_0
Time_Shift_7
Note_On_77_Vel_69
Time_Shift_62
Note_On_68_Vel_0
Note_On_80_Vel_0
Time_Shift_5
Note_On_68_Vel_67
Time_Shift_1
Note_On_80_Vel_62
Time_Shift_56
Note_On_73_Vel_0
Note_On_85_Vel_0
Time_Shift_4
Note_On_73_Vel_69
Time_Shift_6
Note_On_85_Vel_74
Time_Shift_59
Note_On_65_Vel_0
Time_Shift_4
Note_On_65_Vel_60
Time_Shift_11
Note_On_68_Vel_0
Time_Shift_6
Note_On_68_Vel_53
Time_Shift_2
Note_On_77_Vel_0
Time_Shift_4
Note_On_77_Vel_65
Time_Shift_57
Note_On_73_Vel_0
Time_Shift_12
Note_On_73_Vel_69
Time_Shift_16
Note_On_82_Vel_68
Time_Shift_64
Note_On_65_Vel_0
Note_On_77_Vel_0
Time_Shift_11
Note_On_65_Vel_62
Time_Shift_1
Note_On_77_Vel_65
Time_Shift_58
Note_On_80_Vel_0
Time_Shift_5
Note_On_80_Vel_66
Time_Shift_2
Note_On_68_Vel_0
Time_Shift_6
Note_On_68_Vel_65
Time_Shift_79
Note_On_73_Vel_0
Time_Shift_4
Note_On_73_Vel_62
Time_Shift_6
Note_On_61_Vel_65
Time_Shift_74
Note_On_68_Vel_0
Time_Shift_6
Note_On_68_Vel_70
Note_On_78_Vel_54
Time_Shift_22
Note_On_66_Vel_44
Time_Shift_49
Note_On_73_Vel_0
Time_Shift_8
Note_On_61_Vel_0
Time_Shift_2
Note_On_73_Vel_71
Time_Shift_2
Note_On_61_Vel_63
Time_Shift_72
Note_On_65_Vel_0
Note_On_77_Vel_0
Time_Shift_9
Note_On_65_Vel_54
Time_Shift_2
Note_On_77_Vel_68
Time_Shift_66
Note_On_68_Vel_0
Time_Shift_5
Note_On_56_Vel_64
Note_On_68_Vel_70
Time_Shift_95
Note_On_73_Vel_0
Time_Shift_7
Note_On_75_Vel_62
Time_Shift_1
Note_On_65_Vel_0
Time_Shift_2
Note_On_73_Vel_57
Time_Shift_3
Note_On_65_Vel_59
Time_Shift_49
Note_On_37_Vel_0
Time_Shift_38
Note_On_56_Vel_0
Note_On_68_Vel_0
Time_Shift_10
Note_On_68_Vel_67
Note_On_56_Vel_61
Time_Shift_144
Note_On_65_Vel_0
Time_Shift_8
Note_On_65_Vel_45
Time_Shift_45
Note_On_73_Vel_0
Time_Shift_4
Note_On_73_Vel_54
Time_Shift_4
Note_On_61_Vel_0
Time_Shift_5
Note_On_61_Vel_43
Time_Shift_12
Note_On_49_Vel_41
Time_Shift_23
Sustain_Off
Time_Shift_2
Note_On_77_Vel_0
Time_Shift_1
Note_On_89_Vel_0
Note_On_56_Vel_0
Time_Shift_1
Note_On_80_Vel_0
Note_On_82_Vel_0
Note_On_85_Vel_0
Time_Shift_2
Note_On_68_Vel_0
Time_Shift_1
Note_On_92_Vel_0
Note_On_94_Vel_0
Time_Shift_1
Note_On_90_Vel_0
Time_Shift_1
Note_On_87_Vel_0
Time_Shift_5
Note_On_66_Vel_0
Time_Shift_7
Note_On_75_Vel_0
Note_On_78_Vel_0
Time_Shift_16
Note_On_49_Vel_0
Time_Shift_153
Sustain_On
Time_Shift_93
Note_On_61_Vel_0
Time_Shift_476
Note_On_65_Vel_0
Time_Shift_6
Note_On_77_Vel_95
Time_Shift_4
Note_On_65_Vel_79
Time_Shift_3
Note_On_72_Vel_75
Time_Shift_5
Note_On_69_Vel_81
Time_Shift_1
Note_On_53_Vel_65
Time_Shift_1
Note_On_41_Vel_66
Time_Shift_49
Sustain_Off
Time_Shift_77
Sustain_On
Time_Shift_514
Note_On_65_Vel_0
Note_On_73_Vel_0
Note_On_77_Vel_0
Time_Shift_6
Note_On_77_Vel_95
Time_Shift_5
Note_On_65_Vel_93
Time_Shift_1
Note_On_73_Vel_87
Note_On_70_Vel_90
Time_Shift_4
Note_On_41_Vel_0
Note_On_53_Vel_0
Time_Shift_4
Note_On_61_Vel_83
Time_Shift_6
Note_On_53_Vel_66
Time_Shift_1
Note_On_41_Vel_60
Note_On_46_Vel_72
Time_Shift_42
Sustain_Off
Time_Shift_7
Note_On_41_Vel_0
Time_Shift_1
Note_On_69_Vel_0
Note_On_72_Vel_0
Time_Shift_69
Sustain_On
Time_Shift_630
Note_On_73_Vel_0
Time_Shift_7
Note_On_80_Vel_95
Time_Shift_1
Note_On_70_Vel_0
Time_Shift_3
Note_On_68_Vel_94
Note_On_73_Vel_84
Time_Shift_1
Note_On_70_Vel_88
Time_Shift_33
Note_On_39_Vel_80
Note_On_51_Vel_83
Time_Shift_29
Note_On_61_Vel_0
Time_Shift_1
Note_On_53_Vel_0
Note_On_46_Vel_0
Time_Shift_8
Sustain_Off
Time_Shift_24
Note_On_65_Vel_0
Time_Shift_93
Sustain_On
Time_Shift_498
Note_On_78_Vel_85
Time_Shift_1
Note_On_51_Vel_0
Note_On_73_Vel_0
Time_Shift_3
Note_On_66_Vel_84
Time_Shift_1
Note_On_63_Vel_78
Time_Shift_5
Note_On_73_Vel_74
Time_Shift_1
Note_On_58_Vel_78
Time_Shift_1
Note_On_51_Vel_72
Time_Shift_150
Note_On_66_Vel_0
Note_On_77_Vel_0
Time_Shift_7
Note_On_77_Vel_84
Time_Shift_1
Note_On_73_Vel_0
Time_Shift_1
Note_On_66_Vel_88
Time_Shift_6
Note_On_51_Vel_0
Note_On_63_Vel_0
Time_Shift_1
Note_On_73_Vel_77
Time_Shift_4
Note_On_63_Vel_85
Time_Shift_6
Note_On_51_Vel_80
Time_Shift_35
Sustain_Off
Time_Shift_27
Note_On_80_Vel_0
Time_Shift_1
Note_On_78_Vel_0
Note_On_68_Vel_0
Time_Shift_1
Note_On_58_Vel_0
Note_On_39_Vel_0
Time_Shift_25
Note_On_70_Vel_0
Time_Shift_69
Sustain_On
Time_Shift_400
Note_On_63_Vel_0
Time_Shift_2
Note_On_72_Vel_82
Note_On_75_Vel_87
Time_Shift_5
Note_On_63_Vel_76
Time_Shift_4
Note_On_68_Vel_68
Time_Shift_10
Note_On_56_Vel_67
Time_Shift_5
Sustain_Off
Time_Shift_12
Note_On_51_Vel_0
Note_On_73_Vel_0
Time_Shift_8
Note_On_77_Vel_0
Time_Shift_15
Note_On_66_Vel_0
Time_Shift_77
Sustain_On
Time_Shift_578
Note_On_101_Vel_80
Time_Shift_6
Note_On_92_Vel_59
Time_Shift_98
Note_On_96_Vel_68
Time_Shift_8
Note_On_84_Vel_62
Time_Shift_84
Note_On_99_Vel_79
Time_Shift_5
Note_On_87_Vel_63
Time_Shift_73
Note_On_92_Vel_0
Time_Shift_10
Note_On_92_Vel_68
Time_Shift_1
Note_On_80_Vel_68
Time_Shift_81
Note_On_97_Vel_76
Time_Shift_70
Note_On_80_Vel_0
Note_On_92_Vel_0
Time_Shift_6
Note_On_92_Vel_78
Time_Shift_4
Note_On_80_Vel_75
Time_Shift_74
Note_On_84_Vel_0
Note_On_96_Vel_0
Time_Shift_4
Note_On_84_Vel_69
Time_Shift_1
Note_On_96_Vel_76
Time_Shift_64
Note_On_75_Vel_0
Note_On_87_Vel_0
Time_Shift_5
Note_On_75_Vel_71
Time_Shift_2
Note_On_87_Vel_75
Time_Shift_62
Note_On_94_Vel_85
Time_Shift_23
Note_On_84_Vel_0
Time_Shift_8
Note_On_84_Vel_67
Time_Shift_54
Note_On_75_Vel_0
Note_On_87_Vel_0
Time_Shift_6
Note_On_87_Vel_75
Time_Shift_5
Note_On_75_Vel_63
Time_Shift_43
Note_On_80_Vel_0
Time_Shift_7
Note_On_92_Vel_0
Time_Shift_4
Note_On_80_Vel_75
Time_Shift_5
Note_On_92_Vel_75
Time_Shift_68
Note_On_72_Vel_0
Note_On_84_Vel_0
Time_Shift_5
Note_On_72_Vel_62
Note_On_84_Vel_75
Time_Shift_80
Note_On_80_Vel_0
Time_Shift_6
Note_On_80_Vel_76
Time_Shift_4
Note_On_89_Vel_72
Time_Shift_66
Note_On_84_Vel_0
Time_Shift_8
Note_On_72_Vel_0
Time_Shift_3
Note_On_84_Vel_71
Time_Shift_7
Note_On_72_Vel_63
Time_Shift_59
Note_On_87_Vel_0
Time_Shift_8
Note_On_75_Vel_0
Time_Shift_3
Note_On_87_Vel_72
Time_Shift_1
Note_On_75_Vel_69
Time_Shift_65
Note_On_68_Vel_0
Note_On_80_Vel_0
Time_Shift_4
Note_On_80_Vel_68
Time_Shift_4
Note_On_72_Vel_0
Note_On_84_Vel_0
Time_Shift_3
Note_On_68_Vel_68
Time_Shift_1
Note_On_84_Vel_55
Time_Shift_4
Note_On_72_Vel_51
Time_Shift_71
Note_On_85_Vel_73
Time_Shift_74
Note_On_68_Vel_0
Note_On_80_Vel_0
Time_Shift_4
Note_On_80_Vel_72
Note_On_68_Vel_60
Time_Shift_81
Note_On_72_Vel_0
Note_On_84_Vel_0
Time_Shift_7
Note_On_72_Vel_67
Time_Shift_2
Note_On_84_Vel_69
Time_Shift_37
Note_On_63_Vel_0
Time_Shift_7
Note_On_63_Vel_59
Time_Shift_24
Note_On_75_Vel_0
Time_Shift_5
Note_On_75_Vel_57
Time_Shift_20
Note_On_80_Vel_0
Note_On_96_Vel_0
Time_Shift_1
Note_On_99_Vel_0
Note_On_87_Vel_0
Time_Shift_1
Note_On_85_Vel_0
Time_Shift_1
Note_On_92_Vel_0
Time_Shift_25
Note_On_89_Vel_0
Note_On_94_Vel_0
Time_Shift_35
Note_On_82_Vel_71
Time_Shift_4
Note_On_101_Vel_0
Time_Shift_7
Note_On_72_Vel_0
Time_Shift_5
Note_On_72_Vel_59
Time_Shift_34
Note_On_97_Vel_0
Time_Shift_31
Note_On_72_Vel_0
Note_On_75_Vel_0
Time_Shift_7
Note_On_63_Vel_0
Time_Shift_2
Note_On_75_Vel_70
Time_Shift_1
Note_On_72_Vel_56
Time_Shift_1
Note_On_63_Vel_57
Time_Shift_163
Note_On_80_Vel_64
Time_Shift_2
Note_On_68_Vel_0
Note_On_72_Vel_0
Time_Shift_8
Note_On_72_Vel_56
Time_Shift_3
Note_On_68_Vel_56
Time_Shift_5
Note_On_56_Vel_0
Time_Shift_10
Note_On_56_Vel_53
Time_Shift_39
Note_On_63_Vel_0
Time_Shift_1
Note_On_75_Vel_0
Note_On_84_Vel_0
Note_On_82_Vel_0
Time_Shift_3
Sustain_Off
Time_Shift_123
Sustain_On
Time_Shift_568
Note_On_80_Vel_0
Time_Shift_62
Note_On_68_Vel_0
Time_Shift_38
Note_On_72_Vel_0
Time_Shift_12
Note_On_75_Vel_93
Time_Shift_3
Note_On_71_Vel_84
Time_Shift_1
Note_On_68_Vel_87
Time_Shift_2
Note_On_63_Vel_90
Time_Shift_5
Note_On_56_Vel_0
Time_Shift_10
Note_On_56_Vel_89
Time_Shift_8
Note_On_44_Vel_81
Time_Shift_7
Note_On_51_Vel_82
Time_Shift_71
Sustain_Off
Time_Shift_58
Sustain_On
Time_Shift_515
Note_On_63_Vel_0
Note_On_68_Vel_0
Note_On_75_Vel_0
Time_Shift_2
Note_On_66_Vel_93
Time_Shift_2
Note_On_75_Vel_94
Time_Shift_1
Note_On_68_Vel_92
Time_Shift_1
Note_On_63_Vel_92
Time_Shift_1
Note_On_51_Vel_0
Note_On_56_Vel_0
Time_Shift_4
Note_On_59_Vel_88
Note_On_56_Vel_85
Time_Shift_5
Note_On_51_Vel_79
Time_Shift_1
Note_On_47_Vel_79
Time_Shift_643
Note_On_56_Vel_0
Note_On_68_Vel_0
Note_On_71_Vel_0
Time_Shift_4
Note_On_73_Vel_92
Time_Shift_4
Note_On_59_Vel_0
Note_On_61_Vel_95
Time_Shift_3
Note_On_68_Vel_85
Note_On_71_Vel_83
Note_On_65_Vel_80
Note_On_56_Vel_88
Time_Shift_1
Note_On_59_Vel_86
Time_Shift_4
Note_On_49_Vel_84
Note_On_53_Vel_72
Time_Shift_49
Sustain_Off
Time_Shift_11
Note_On_63_Vel_0
Time_Shift_1
Note_On_66_Vel_0
Note_On_47_Vel_0
Time_Shift_1
Note_On_75_Vel_0
Time_Shift_2
Note_On_44_Vel_0
Time_Shift_12
Note_On_53_Vel_0
Time_Shift_8
Note_On_51_Vel_0
Time_Shift_100
Sustain_On
Time_Shift_422
Note_On_56_Vel_0
Time_Shift_11
Note_On_42_Vel_77
Time_Shift_81
Note_On_49_Vel_0
Time_Shift_1
Sustain_Off
Time_Shift_11
Note_On_49_Vel_79
Time_Shift_4
Note_On_59_Vel_0
Time_Shift_15
Note_On_68_Vel_0
Time_Shift_15
Note_On_65_Vel_0
Time_Shift_8
Note_On_71_Vel_0
Sustain_On
Time_Shift_8
Note_On_61_Vel_0
Time_Shift_84
Note_On_73_Vel_0
Time_Shift_38
Note_On_82_Vel_100
Time_Shift_3
Note_On_73_Vel_95
Note_On_70_Vel_97
Time_Shift_2
Note_On_78_Vel_89
Time_Shift_7
Note_On_58_Vel_95
Time_Shift_731
Note_On_99_Vel_71
Time_Shift_87
Note_On_82_Vel_0
Time_Shift_7
Note_On_94_Vel_73
Time_Shift_2
Note_On_82_Vel_67
Time_Shift_80
Note_On_85_Vel_77
Note_On_97_Vel_76
Time_Shift_72
Note_On_78_Vel_0
Time_Shift_10
Note_On_78_Vel_70
Note_On_90_Vel_71
Time_Shift_67
Note_On_85_Vel_0
Time_Shift_8
Note_On_85_Vel_69
Time_Shift_2
Note_On_95_Vel_80
Time_Shift_67
Note_On_78_Vel_0
Note_On_90_Vel_0
Time_Shift_6
Note_On_90_Vel_79
Time_Shift_2
Note_On_70_Vel_0
Time_Shift_3
Note_On_78_Vel_76
Time_Shift_2
Note_On_70_Vel_48
Time_Shift_56
Note_On_94_Vel_0
Time_Shift_8
Note_On_82_Vel_0
Time_Shift_3
Note_On_94_Vel_85
Time_Shift_2
Note_On_82_Vel_73
Time_Shift_56
Note_On_85_Vel_0
Time_Shift_8
Note_On_73_Vel_0
Time_Shift_3
Note_On_85_Vel_77
Time_Shift_8
Note_On_73_Vel_71
Time_Shift_65
Note_On_92_Vel_81
Time_Shift_1
Note_On_82_Vel_0
Time_Shift_9
Note_On_82_Vel_71
Time_Shift_60
Note_On_85_Vel_0
Time_Shift_7
Note_On_73_Vel_0
Time_Shift_3
Note_On_85_Vel_81
Time_Shift_3
Note_On_73_Vel_72
Time_Shift_64
Note_On_78_Vel_0
Note_On_90_Vel_0
Time_Shift_5
Note_On_90_Vel_72
Time_Shift_3
Note_On_78_Vel_72
Time_Shift_61
Note_On_70_Vel_0
Time_Shift_7
Note_On_82_Vel_0
Time_Shift_4
Note_On_70_Vel_67
Note_On_82_Vel_77
Time_Shift_73
Note_On_78_Vel_0
Time_Shift_8
Note_On_78_Vel_69
Time_Shift_2
Note_On_87_Vel_76
Time_Shift_67
Note_On_70_Vel_0
Note_On_82_Vel_0
Time_Shift_5
Note_On_82_Vel_79
Time_Shift_4
Note_On_70_Vel_60
Time_Shift_68
Note_On_73_Vel_0
Note_On_85_Vel_0
Time_Shift_5
Note_On_85_Vel_81
Note_On_73_Vel_73
Time_Shift_64
Note_On_78_Vel_0
Time_Shift_5
Note_On_78_Vel_75
Time_Shift_3
Note_On_42_Vel_0
Time_Shift_2
Note_On_66_Vel_68
Time_Shift_82
Note_On_73_Vel_0
Time_Shift_7
Note_On_83_Vel_66
Time_Shift_1
Note_On_78_Vel_0
Time_Shift_3
Note_On_73_Vel_60
Time_Shift_5
Note_On_78_Vel_60
Time_Shift_68
Note_On_66_Vel_0
Note_On_78_Vel_0
Time_Shift_4
Note_On_78_Vel_71
Time_Shift_5
Note_On_66_Vel_67
Time_Shift_68
Note_On_70_Vel_0
Time_Shift_8
Note_On_82_Vel_0
Time_Shift_4
Note_On_70_Vel_62
Time_Shift_2
Note_On_82_Vel_73
Time_Shift_63
Note_On_66_Vel_0
Time_Shift_3
Note_On_61_Vel_66
Time_Shift_7
Note_On_66_Vel_53
Time_Shift_5
Note_On_73_Vel_0
Time_Shift_8
Note_On_70_Vel_0
Time_Shift_1
Note_On_73_Vel_63
Time_Shift_4
Note_On_70_Vel_52
Time_Shift_80
Note_On_66_Vel_0
Time_Shift_2
Note_On_80_Vel_63
Time_Shift_5
Note_On_70_Vel_0
Time_Shift_2
Note_On_66_Vel_46
Time_Shift_3
Note_On_70_Vel_51
Time_Shift_72
Note_On_70_Vel_0
Note_On_73_Vel_0
Time_Shift_6
Note_On_70_Vel_49
Time_Shift_1
Note_On_73_Vel_57
Time_Shift_1
Note_On_61_Vel_0
Note_On_66_Vel_0
Time_Shift_5
Note_On_61_Vel_53
Time_Shift_5
Note_On_66_Vel_42
Time_Shift_197
Note_On_66_Vel_0
Note_On_70_Vel_0
Note_On_73_Vel_0
Note_On_78_Vel_0
Time_Shift_4
Note_On_78_Vel_58
Time_Shift_1
Note_On_70_Vel_52
Time_Shift_3
Note_On_73_Vel_42
Time_Shift_2
Note_On_66_Vel_47
Time_Shift_33
Note_On_85_Vel_0
Note_On_87_Vel_0
Note_On_97_Vel_0
Note_On_61_Vel_0
Note_On_49_Vel_0
Note_On_82_Vel_0
Note_On_90_Vel_0
Time_Shift_1
Note_On_83_Vel_0
Time_Shift_1
Note_On_92_Vel_0
Note_On_58_Vel_0
Note_On_99_Vel_0
Time_Shift_1
Sustain_Off
Time_Shift_8
Note_On_94_Vel_0
Time_Shift_8
Note_On_95_Vel_0
Time_Shift_122
Sustain_On
Time_Shift_8
Note_On_80_Vel_0
Time_Shift_726
Note_On_82_Vel_102
Time_Shift_4
Note_On_70_Vel_0
Note_On_73_Vel_0
Time_Shift_4
Note_On_70_Vel_82
Note_On_73_Vel_78
Time_Shift_1
Note_On_75_Vel_86
Time_Shift_11
Note_On_61_Vel_56
Time_Shift_7
Note_On_54_Vel_57
Time_Shift_998
Note_On_75_Vel_0
Time_Shift_8
Note_On_73_Vel_0
Time_Shift_2
Note_On_75_Vel_87
Time_Shift_6
Note_On_70_Vel_0
Time_Shift_2
Note_On_73_Vel_69
Time_Shift_8
Note_On_70_Vel_63
Note_On_63_Vel_66
Time_Shift_19
Note_On_42_Vel_39
Time_Shift_4
Sustain_Off
Time_Shift_10
Note_On_82_Vel_0
Time_Shift_3
Note_On_54_Vel_0
Time_Shift_7
Note_On_78_Vel_0
Time_Shift_8
Note_On_66_Vel_0
Time_Shift_8
Sustain_On
Time_Shift_668
Note_On_61_Vel_0
Time_Shift_35
Note_On_78_Vel_73
Time_Shift_11
Note_On_63_Vel_0
Note_On_70_Vel_0
Note_On_73_Vel_0
Time_Shift_2
Sustain_Off
Time_Shift_4
Note_On_63_Vel_55
Time_Shift_2
Note_On_73_Vel_50
Time_Shift_1
Note_On_70_Vel_52
Time_Shift_16
Note_On_44_Vel_47
Time_Shift_4
Note_On_56_Vel_44
Time_Shift_2
Note_On_42_Vel_0
Time_Shift_138
Sustain_On
Time_Shift_200
Note_On_75_Vel_0
Time_Shift_268
Note_On_56_Vel_0
Time_Shift_8
Note_On_63_Vel_0
Time_Shift_2
Note_On_77_Vel_73
Note_On_56_Vel_67
Time_Shift_2
Note_On_68_Vel_67
Note_On_44_Vel_0
Time_Shift_1
Note_On_63_Vel_58
Time_Shift_2
Note_On_72_Vel_57
Time_Shift_69
Note_On_56_Vel_0
Time_Shift_1
Note_On_70_Vel_0
Note_On_78_Vel_0
Time_Shift_1
Note_On_63_Vel_0
Note_On_77_Vel_0
Note_On_72_Vel_0
Time_Shift_1
Note_On_68_Vel_0
Time_Shift_1
Sustain_Off
Time_Shift_12
Note_On_73_Vel_0
Time_Shift_37
Note_On_75_Vel_65
Time_Shift_3
Note_On_72_Vel_63
Time_Shift_1
Note_On_56_Vel_61
Note_On_66_Vel_65
Time_Shift_2
Note_On_63_Vel_57
Time_Shift_6
Note_On_44_Vel_51
Time_Shift_13
Sustain_On
Time_Shift_449
Note_On_56_Vel_0
Time_Shift_1
Sustain_Off
Note_On_72_Vel_0
Note_On_75_Vel_0
Time_Shift_1
Note_On_63_Vel_0
Note_On_66_Vel_0
Time_Shift_9
Note_On_44_Vel_0
Time_Shift_13
Note_On_73_Vel_62
Time_Shift_7
Note_On_65_Vel_51
Time_Shift_6
Note_On_68_Vel_50
Time_Shift_4
Note_On_61_Vel_44
Time_Shift_5
Note_On_49_Vel_43
Time_Shift_2
Note_On_56_Vel_40
Time_Shift_102
Sustain_On
Time_Shift_479
Note_On_94_Vel_64
Time_Shift_1
Note_On_85_Vel_51
Time_Shift_92
Note_On_89_Vel_59
Time_Shift_1
Note_On_77_Vel_54
Time_Shift_71
Note_On_80_Vel_62
Time_Shift_1
Note_On_92_Vel_61
Time_Shift_69
Note_On_85_Vel_0
Time_Shift_8
Note_On_73_Vel_0
Time_Shift_2
Note_On_85_Vel_67
Time_Shift_2
Note_On_73_Vel_61
Time_Shift_72
Note_On_80_Vel_0
Time_Shift_4
Note_On_78_Vel_58
Time_Shift_1
Note_On_90_Vel_64
Time_Shift_1
Note_On_80_Vel_68
Time_Shift_10
Note_On_78_Vel_0
Time_Shift_46
Note_On_73_Vel_0
Note_On_85_Vel_0
Time_Shift_4
Note_On_85_Vel_71
Time_Shift_5
Note_On_73_Vel_67
Time_Shift_68
Note_On_77_Vel_0
Note_On_89_Vel_0
Time_Shift_10
Note_On_77_Vel_69
Time_Shift_1
Note_On_89_Vel_71
Time_Shift_58
Note_On_68_Vel_0
Note_On_80_Vel_0
Time_Shift_4
Note_On_80_Vel_66
Note_On_68_Vel_65
Time_Shift_71
Note_On_87_Vel_72
Time_Shift_9
Note_On_77_Vel_0
Time_Shift_4
Note_On_77_Vel_64
Time_Shift_65
Note_On_68_Vel_0
Note_On_80_Vel_0
Time_Shift_8
Note_On_77_Vel_0
Time_Shift_2
Note_On_68_Vel_60
Time_Shift_1
Note_On_80_Vel_66
Time_Shift_1
Note_On_77_Vel_54
Time_Shift_42
Note_On_73_Vel_0
Time_Shift_8
Note_On_85_Vel_0
Time_Shift_1
Note_On_73_Vel_69
Time_Shift_5
Note_On_85_Vel_73
Time_Shift_49
Sustain_Off
Time_Shift_2
Note_On_49_Vel_0
Note_On_87_Vel_0
Note_On_56_Vel_0
Time_Shift_1
Note_On_92_Vel_0
Time_Shift_1
Note_On_89_Vel_0
Note_On_68_Vel_0
Time_Shift_2
Note_On_65_Vel_0
Time_Shift_8
Note_On_65_Vel_58
Time_Shift_8
Note_On_77_Vel_0
Sustain_On
Time_Shift_5
Note_On_77_Vel_67
Time_Shift_2
Note_On_90_Vel_0
Time_Shift_62
Note_On_73_Vel_0
Time_Shift_11
Note_On_73_Vel_58
Note_On_68_Vel_52
Time_Shift_7
Note_On_82_Vel_70
Time_Shift_74
Note_On_65_Vel_0
Note_On_77_Vel_0
Time_Shift_5
Note_On_77_Vel_63
Note_On_65_Vel_61
Time_Shift_33
Note_On_80_Vel_0
Time_Shift_12
Note_On_80_Vel_67
Time_Shift_19
Note_On_68_Vel_0
Time_Shift_4
Note_On_68_Vel_63
Time_Shift_65
Note_On_61_Vel_0
Note_On_73_Vel_0
Time_Shift_4
Note_On_73_Vel_63
Time_Shift_1
Note_On_61_Vel_64
Time_Shift_92
Note_On_78_Vel_73
Time_Shift_3
Note_On_73_Vel_0
Time_Shift_11
Note_On_73_Vel_61
Time_Shift_2
Note_On_70_Vel_64
Time_Shift_8
Sustain_Off
Time_Shift_6
Note_On_56_Vel_66
Note_On_82_Vel_0
Time_Shift_1
Note_On_77_Vel_0
Time_Shift_5
Note_On_68_Vel_0
Note_On_61_Vel_0
Note_On_65_Vel_0
Time_Shift_2
Note_On_80_Vel_0
Time_Shift_3
Note_On_94_Vel_0
Time_Shift_4
Note_On_78_Vel_0
Time_Shift_4
Note_On_85_Vel_0
Time_Shift_3
Note_On_70_Vel_0
Time_Shift_1
Note_On_56_Vel_0
Time_Shift_19
Note_On_73_Vel_0
Time_Shift_172
Note_On_68_Vel_71
Time_Shift_6
Note_On_77_Vel_65
Time_Shift_5
Note_On_73_Vel_52
Time_Shift_11
Note_On_56_Vel_70
Time_Shift_10
Note_On_68_Vel_0
Time_Shift_4
Note_On_77_Vel_0
Time_Shift_59
Note_On_75_Vel_73
Time_Shift_5
Note_On_66_Vel_64
Time_Shift_1
Note_On_72_Vel_60
Time_Shift_46
Note_On_66_Vel_0
Time_Shift_4
Note_On_75_Vel_0
Time_Shift_2
Note_On_72_Vel_0
Time_Shift_5
Note_On_73_Vel_0
Time_Shift_8
Note_On_56_Vel_0
Time_Shift_166
Note_On_73_Vel_62
Note_On_65_Vel_54
Time_Shift_2
Note_On_68_Vel_55
Time_Shift_1
Sustain_On
Note_On_49_Vel_58
Time_Shift_246
Note_On_73_Vel_0
Time_Shift_10
Note_On_73_Vel_55
Time_Shift_11
Note_On_82_Vel_57
Time_Shift_5
Note_On_56_Vel_35
Time_Shift_50
Note_On_65_Vel_0
Sustain_Off
Time_Shift_11
Note_On_65_Vel_58
Time_Shift_1
Note_On_77_Vel_61
Time_Shift_58
Note_On_68_Vel_0
Time_Shift_3
Note_On_80_Vel_65
Time_Shift_7
Note_On_68_Vel_67
Time_Shift_5
Sustain_On
Time_Shift_54
Note_On_73_Vel_0
Time_Shift_9
Note_On_73_Vel_65
Time_Shift_2
Note_On_61_Vel_65
Time_Shift_66
Sustain_Off
Time_Shift_7
Note_On_68_Vel_0
Time_Shift_2
Note_On_78_Vel_62
Time_Shift_3
Note_On_68_Vel_62
Time_Shift_49
Note_On_73_Vel_0
Time_Shift_8
Note_On_61_Vel_0
Time_Shift_2
Note_On_73_Vel_73
Time_Shift_2
Note_On_61_Vel_63
Time_Shift_65
Note_On_65_Vel_0
Note_On_77_Vel_0
Time_Shift_7
Note_On_77_Vel_67
Time_Shift_2
Note_On_65_Vel_59
Time_Shift_14
Note_On_73_Vel_0
Time_Shift_11
Note_On_73_Vel_43
Time_Shift_35
Note_On_56_Vel_0
Note_On_68_Vel_0
Time_Shift_4
Note_On_56_Vel_72
Note_On_68_Vel_64
Time_Shift_68
Note_On_75_Vel_65
Time_Shift_20
Note_On_65_Vel_0
Time_Shift_7
Note_On_65_Vel_56
Time_Shift_47
Note_On_56_Vel_0
Note_On_68_Vel_0
Time_Shift_4
Note_On_68_Vel_69
Time_Shift_7
Note_On_56_Vel_61
Time_Shift_35
Note_On_61_Vel_0
Time_Shift_8
Note_On_73_Vel_0
Time_Shift_3
Note_On_61_Vel_73
Time_Shift_7
Note_On_73_Vel_64
Time_Shift_59
Note_On_65_Vel_0
Time_Shift_8
Note_On_65_Vel_64
Time_Shift_3
Note_On_53_Vel_67
Time_Shift_33
Note_On_78_Vel_0
Time_Shift_1
Note_On_61_Vel_0
Time_Shift_1
Note_On_82_Vel_0
Note_On_80_Vel_0
Note_On_75_Vel_0
Time_Shift_3
Note_On_68_Vel_0
Note_On_77_Vel_0
Note_On_73_Vel_0
Time_Shift_1
Note_On_53_Vel_0
Time_Shift_3
Note_On_65_Vel_0
Note_On_49_Vel_0
Note_On_56_Vel_0
Time_Shift_28
Note_On_61_Vel_67
Time_Shift_6
Note_On_70_Vel_58
Time_Shift_63
Note_On_65_Vel_55
Time_Shift_1
Note_On_53_Vel_53
Time_Shift_41
Sustain_On
Time_Shift_20
Note_On_68_Vel_66
Time_Shift_6
Note_On_56_Vel_64
Time_Shift_66
Note_On_61_Vel_0
Time_Shift_9
Note_On_61_Vel_64
Time_Shift_3
Note_On_49_Vel_63
Time_Shift_82
Sustain_Off
Time_Shift_5
Note_On_66_Vel_71
Time_Shift_4
Note_On_49_Vel_0
Note_On_56_Vel_0
Note_On_65_Vel_0
Time_Shift_1
Note_On_53_Vel_0
Note_On_68_Vel_0
Time_Shift_11
Note_On_61_Vel_0
Note_On_58_Vel_67
Time_Shift_6
Note_On_61_Vel_58
Time_Shift_2
Note_On_70_Vel_0
Time_Shift_3
Note_On_44_Vel_63
Time_Shift_31
Note_On_58_Vel_0
Time_Shift_8
Note_On_44_Vel_0
Note_On_66_Vel_0
Time_Shift_2
Note_On_61_Vel_0
Time_Shift_226
Note_On_65_Vel_60
Time_Shift_2
Note_On_56_Vel_66
Time_Shift_7
Note_On_44_Vel_70
Time_Shift_6
Note_On_61_Vel_45
Time_Shift_19
Note_On_65_Vel_0
Time_Shift_8
Note_On_61_Vel_0
Time_Shift_10
Note_On_56_Vel_0
Time_Shift_39
Note_On_44_Vel_0
Time_Shift_4
Note_On_63_Vel_69
Note_On_44_Vel_71
Time_Shift_1
Note_On_54_Vel_71
Time_Shift_2
Note_On_60_Vel_58
Time_Shift_28
Note_On_60_Vel_0
Time_Shift_1
Note_On_54_Vel_0
Time_Shift_1
Note_On_44_Vel_0
Time_Shift_1
Note_On_63_Vel_0
Time_Shift_130
Note_On_44_Vel_45
Time_Shift_139
Note_On_44_Vel_0
Time_Shift_40
Note_On_61_Vel_50
Time_Shift_3
Note_On_53_Vel_34
Time_Shift_4
Note_On_56_Vel_33
Time_Shift_9
Note_On_49_Vel_30
Time_Shift_2
Note_On_37_Vel_31
Time_Shift_3
Note_On_49_Vel_0
Time_Shift_92
Sustain_On
Time_Shift_550
Note_On_53_Vel_0
Time_Shift_3
Note_On_61_Vel_0
Time_Shift_4
Sustain_Off
Time_Shift_8
Note_On_49_Vel_48
Time_Shift_4
Note_On_37_Vel_0
Time_Shift_5
Note_On_37_Vel_33
Time_Shift_6
Note_On_25_Vel_32
Time_Shift_127
Sustain_On
Time_Shift_422
Note_On_49_Vel_0
Time_Shift_12
Note_On_49_Vel_50
Time_Shift_4
Note_On_37_Vel_0
Time_Shift_9
Note_On_37_Vel_34
Time_Shift_6
Note_On_25_Vel_0
Time_Shift_11
Note_On_25_Vel_28
Time_Shift_557
Note_On_49_Vel_0
Time_Shift_5
Note_On_49_Vel_37
Time_Shift_11
Note_On_37_Vel_0
Time_Shift_4
Note_On_37_Vel_26
Time_Shift_4
Note_On_25_Vel_0
Time_Shift_10
Note_On_25_Vel_28
Time_Shift_374
Note_On_56_Vel_0
Time_Shift_305
Note_On_61_Vel_24
Time_Shift_2
Note_On_49_Vel_0
Time_Shift_7
Note_On_25_Vel_0
Note_On_37_Vel_0
Note_On_49_Vel_30
Time_Shift_6
Note_On_37_Vel_30
Note_On_25_Vel_35
Time_Shift_86
Sustain_Off
Time_Shift_146
Sustain_On
Time_Shift_1102
Note_On_46_Vel_50
Time_Shift_9
Note_On_34_Vel_46
Time_Shift_3
Note_On_25_Vel_0
Time_Shift_30
Note_On_37_Vel_0
Time_Shift_24
Sustain_Off
Time_Shift_276
Sustain_On
Time_Shift_443
Note_On_52_Vel_56
Time_Shift_31
Note_On_40_Vel_38
Time_Shift_2
Note_On_34_Vel_0
Time_Shift_1
Note_On_28_Vel_37
Time_Shift_23
Sustain_Off
Time_Shift_99
Note_On_61_Vel_0
Time_Shift_23
Note_On_46_Vel_0
Note_On_49_Vel_0
Time_Shift_85
Sustain_On
Time_Shift_651
Note_On_40_Vel_0
Time_Shift_4
Note_On_52_Vel_0
Time_Shift_9
Sustain_Off
Time_Shift_4
Note_On_28_Vel_0
Time_Shift_70
Note_On_51_Vel_97
Time_Shift_10
Note_On_39_Vel_53
Time_Shift_112
Sustain_On
Time_Shift_215
Note_On_51_Vel_0
Time_Shift_246
Note_On_39_Vel_0
Time_Shift_10
Note_On_39_Vel_40
Time_Shift_85
Note_On_55_Vel_51
Time_Shift_52
Note_On_46_Vel_53
Time_Shift_31
Note_On_61_Vel_64
Time_Shift_41
Note_On_49_Vel_53
Time_Shift_55
Note_On_63_Vel_64
Time_Shift_33
Note_On_55_Vel_0
Time_Shift_4
Note_On_55_Vel_54
Time_Shift_55
Note_On_67_Vel_66
Time_Shift_69
Note_On_58_Vel_61
Time_Shift_5
Note_On_73_Vel_64
Time_Shift_44
Note_On_61_Vel_0
Time_Shift_8
Note_On_61_Vel_61
Time_Shift_4
Note_On_75_Vel_74
Time_Shift_49
Note_On_67_Vel_0
Time_Shift_5
Note_On_67_Vel_69
Time_Shift_33
Note_On_79_Vel_72
Time_Shift_65
Note_On_85_Vel_78
Time_Shift_16
Note_On_70_Vel_54
Time_Shift_27
Note_On_73_Vel_0
Time_Shift_5
Note_On_73_Vel_71
Time_Shift_5
Note_On_87_Vel_77
Time_Shift_51
Note_On_94_Vel_90
Note_On_75_Vel_0
Note_On_79_Vel_0
Time_Shift_4
Note_On_75_Vel_71
Time_Shift_7
Note_On_79_Vel_71
Time_Shift_51
Note_On_73_Vel_0
Note_On_87_Vel_0
Time_Shift_5
Note_On_87_Vel_75
Time_Shift_4
Note_On_73_Vel_74
Time_Shift_29
Note_On_85_Vel_0
Time_Shift_7
Note_On_85_Vel_78
Time_Shift_9
Note_On_87_Vel_0
Time_Shift_9
Note_On_87_Vel_61
Time_Shift_29
Note_On_79_Vel_0
Time_Shift_8
Note_On_70_Vel_0
Note_On_79_Vel_72
Time_Shift_5
Note_On_70_Vel_46
Time_Shift_25
Note_On_63_Vel_0
Time_Shift_5
Note_On_63_Vel_61
Time_Shift_42
Note_On_85_Vel_0
Time_Shift_4
Note_On_85_Vel_74
Time_Shift_19
Note_On_70_Vel_0
Time_Shift_5
Note_On_70_Vel_66
Time_Shift_10
Note_On_87_Vel_0
Time_Shift_8
Note_On_87_Vel_75
Time_Shift_7
Note_On_73_Vel_0
Time_Shift_5
Note_On_73_Vel_70
Time_Shift_39
Note_On_96_Vel_96
Time_Shift_15
Note_On_80_Vel_81
Time_Shift_33
Note_On_46_Vel_0
Time_Shift_2
Note_On_58_Vel_0
Time_Shift_1
Sustain_Off
Note_On_85_Vel_0
Note_On_73_Vel_0
Note_On_39_Vel_0
Note_On_55_Vel_0
Time_Shift_1
Note_On_70_Vel_0
Note_On_94_Vel_0
Note_On_49_Vel_0
Note_On_63_Vel_0
Note_On_61_Vel_0
Time_Shift_9
Note_On_80_Vel_0
Time_Shift_3
Note_On_67_Vel_0
Note_On_87_Vel_0
Time_Shift_8
Note_On_79_Vel_0
Time_Shift_1
Note_On_87_Vel_85
Time_Shift_1
Note_On_99_Vel_78
Time_Shift_5
Note_On_75_Vel_0
Note_On_99_Vel_0
Time_Shift_14
Note_On_73_Vel_62
Time_Shift_2
Note_On_96_Vel_0
Time_Shift_35
Note_On_85_Vel_72
Note_On_73_Vel_0
Note_On_70_Vel_63
Time_Shift_4
Note_On_87_Vel_0
Time_Shift_45
Note_On_70_Vel_0
Time_Shift_2
Note_On_80_Vel_79
Time_Shift_8
Note_On_70_Vel_61
Time_Shift_11
Note_On_63_Vel_65
Time_Shift_34
Note_On_80_Vel_0
Time_Shift_14
Note_On_85_Vel_0
Time_Shift_5
Note_On_85_Vel_78
Time_Shift_18
Note_On_70_Vel_0
Time_Shift_5
Note_On_70_Vel_66
Time_Shift_2
Note_On_63_Vel_0
Time_Shift_21
Note_On_87_Vel_70
Time_Shift_5
Note_On_73_Vel_72
Time_Shift_25
Note_On_73_Vel_0
Time_Shift_11
Note_On_70_Vel_0
Note_On_85_Vel_0
Time_Shift_7
Note_On_94_Vel_94
Time_Shift_9
Note_On_75_Vel_59
Time_Shift_2
Note_On_79_Vel_64
Time_Shift_36
Note_On_75_Vel_0
Note_On_87_Vel_0
Time_Shift_11
Note_On_87_Vel_70
Time_Shift_24
Note_On_73_Vel_68
Time_Shift_29
Note_On_85_Vel_83
Time_Shift_2
Note_On_70_Vel_59
Time_Shift_26
Note_On_94_Vel_0
Time_Shift_16
Note_On_79_Vel_0
Time_Shift_9
Note_On_79_Vel_71
Time_Shift_14
Note_On_70_Vel_0
Note_On_73_Vel_0
Time_Shift_8
Note_On_70_Vel_57
Time_Shift_2
Note_On_73_Vel_47
Time_Shift_7
Note_On_63_Vel_63
Time_Shift_44
Note_On_85_Vel_0
Time_Shift_6
Note_On_79_Vel_0
Time_Shift_4
Note_On_85_Vel_72
Time_Shift_3
Note_On_63_Vel_0
Time_Shift_10
Note_On_70_Vel_0
Time_Shift_8
Note_On_87_Vel_0
Time_Shift_3
Note_On_70_Vel_62
Time_Shift_5
Note_On_87_Vel_69
Time_Shift_3
Note_On_75_Vel_58
Time_Shift_4
Note_On_73_Vel_0
Note_On_75_Vel_0
Time_Shift_7
Note_On_73_Vel_67
Time_Shift_24
Note_On_85_Vel_0
Time_Shift_8
Note_On_87_Vel_0
Time_Shift_15
Note_On_73_Vel_0
Time_Shift_2
Note_On_92_Vel_81
Time_Shift_2
Note_On_80_Vel_68
Note_On_77_Vel_68
Time_Shift_38
Note_On_77_Vel_0
Time_Shift_14
Note_On_87_Vel_77
Time_Shift_12
Note_On_73_Vel_67
Time_Shift_9
Note_On_70_Vel_0
Note_On_80_Vel_0
Time_Shift_34
Note_On_85_Vel_72
Time_Shift_19
Note_On_92_Vel_0
Time_Shift_2
Note_On_70_Vel_56
Time_Shift_14
Note_On_87_Vel_0
Time_Shift_8
Note_On_73_Vel_0
Time_Shift_11
Note_On_77_Vel_70
Time_Shift_5
Note_On_63_Vel_66
Time_Shift_45
Note_On_77_Vel_0
Note_On_85_Vel_0
Time_Shift_5
Note_On_85_Vel_77
Time_Shift_6
Note_On_75_Vel_56
Time_Shift_4
Note_On_75_Vel_0
Time_Shift_19
Note_On_63_Vel_0
Time_Shift_11
Note_On_68_Vel_58
Time_Shift_1
Note_On_67_Vel_48
Time_Shift_3
Note_On_73_Vel_69
Time_Shift_1
Note_On_87_Vel_68
Time_Shift_4
Note_On_67_Vel_0
Note_On_68_Vel_0
Time_Shift_26
Note_On_73_Vel_0
Time_Shift_4
Note_On_70_Vel_0
Note_On_85_Vel_0
Time_Shift_12
Note_On_91_Vel_78
Time_Shift_2
Note_On_75_Vel_67
Time_Shift_17
Note_On_87_Vel_0
Time_Shift_42
Note_On_87_Vel_82
Time_Shift_4
Note_On_73_Vel_71
Time_Shift_22
Note_On_70_Vel_62
Time_Shift_9
Note_On_91_Vel_0
Time_Shift_2
Note_On_85_Vel_78
Time_Shift_3
Note_On_75_Vel_0
Time_Shift_1
Note_On_73_Vel_0
Time_Shift_4
Note_On_87_Vel_0
Time_Shift_17
Note_On_63_Vel_65
Time_Shift_11
Note_On_70_Vel_0
Time_Shift_16
Note_On_85_Vel_0
Time_Shift_17
Note_On_75_Vel_72
Time_Shift_17
Note_On_73_Vel_53
Time_Shift_12
Note_On_63_Vel_0
Time_Shift_11
Note_On_70_Vel_64
Time_Shift_11
Note_On_85_Vel_77
Time_Shift_5
Note_On_75_Vel_0
Time_Shift_14
Note_On_70_Vel_0
Time_Shift_10
Note_On_85_Vel_0
Time_Shift_10
Note_On_73_Vel_0
Time_Shift_30
Note_On_56_Vel_62
Time_Shift_3
Note_On_75_Vel_52
Time_Shift_6
Note_On_75_Vel_0
Time_Shift_64
Note_On_63_Vel_74
Time_Shift_5
Note_On_92_Vel_86
Time_Shift_2
Note_On_68_Vel_63
Note_On_72_Vel_78
Time_Shift_1
Note_On_84_Vel_77
Time_Shift_19
Note_On_56_Vel_0
Time_Shift_5
Note_On_72_Vel_0
Note_On_63_Vel_0
Time_Shift_6
Note_On_84_Vel_0
Time_Shift_21
Note_On_68_Vel_0
Time_Shift_7
Note_On_92_Vel_0
Time_Shift_554
Note_On_39_Vel_84
Time_Shift_2
Note_On_27_Vel_99
Time_Shift_51
Sustain_On
Time_Shift_315
Note_On_39_Vel_0
Time_Shift_8
Note_On_39_Vel_58
Time_Shift_84
Note_On_55_Vel_57
Time_Shift_29
Note_On_46_Vel_61
Time_Shift_1
Note_On_58_Vel_61
Time_Shift_44
Note_On_61_Vel_69
Time_Shift_21
Note_On_49_Vel_61
Time_Shift_82
Note_On_55_Vel_0
Time_Shift_5
Note_On_63_Vel_68
Time_Shift_3
Note_On_55_Vel_61
Time_Shift_80
Note_On_67_Vel_73
Time_Shift_27
Note_On_58_Vel_0
Time_Shift_6
Note_On_58_Vel_72
Time_Shift_48
Note_On_61_Vel_0
Time_Shift_5
Note_On_61_Vel_76
Time_Shift_52
Note_On_75_Vel_79
Time_Shift_19
Note_On_67_Vel_0
Time_Shift_4
Note_On_67_Vel_69
Time_Shift_55
Note_On_79_Vel_79
Time_Shift_49
Note_On_70_Vel_69
Time_Shift_10
Note_On_85_Vel_88
Time_Shift_11
Note_On_67_Vel_0
Note_On_75_Vel_0
Sustain_Off
Time_Shift_1
Note_On_58_Vel_0
Time_Shift_1
Note_On_46_Vel_0
Note_On_27_Vel_0
Note_On_63_Vel_0
Time_Shift_1
Note_On_55_Vel_0
Note_On_61_Vel_0
Time_Shift_1
Note_On_79_Vel_0
Note_On_49_Vel_0
Note_On_39_Vel_0
Time_Shift_15
Note_On_73_Vel_84
Time_Shift_22
Note_On_87_Vel_80
Time_Shift_7
Sustain_On
Time_Shift_41
Note_On_79_Vel_77
Time_Shift_5
Note_On_94_Vel_97
Time_Shift_54
Note_On_73_Vel_0
Time_Shift_5
Note_On_73_Vel_88
Time_Shift_56
Note_On_70_Vel_0
Note_On_85_Vel_0
Time_Shift_5
Note_On_85_Vel_84
Time_Shift_1
Note_On_70_Vel_68
Time_Shift_56
Note_On_79_Vel_0
Time_Shift_5
Note_On_79_Vel_68
Time_Shift_1
Note_On_63_Vel_73
Time_Shift_63
Note_On_70_Vel_0
Note_On_85_Vel_0
Time_Shift_4
Note_On_85_Vel_81
Note_On_70_Vel_69
Time_Shift_34
Note_On_73_Vel_0
Note_On_87_Vel_0
Time_Shift_4
Note_On_87_Vel_73
Time_Shift_2
Note_On_73_Vel_78
Time_Shift_29
Sustain_Off
Time_Shift_19
Sustain_On
Time_Shift_7
Note_On_96_Vel_88
Time_Shift_3
Note_On_80_Vel_86
Time_Shift_13
Note_On_70_Vel_0
Time_Shift_7
Note_On_70_Vel_59
Time_Shift_36
Note_On_99_Vel_78
Time_Shift_18
Note_On_73_Vel_0
Time_Shift_5
Note_On_73_Vel_74
Time_Shift_26
Note_On_70_Vel_0
Time_Shift_7
Note_On_70_Vel_60
Time_Shift_1
Note_On_85_Vel_0
Time_Shift_4
Note_On_85_Vel_82
Time_Shift_42
Note_On_87_Vel_0
Time_Shift_4
Note_On_87_Vel_67
Time_Shift_4
Note_On_80_Vel_0
Time_Shift_3
Note_On_86_Vel_66
Time_Shift_2
Note_On_80_Vel_73
Time_Shift_2
Note_On_86_Vel_0
Note_On_99_Vel_0
Time_Shift_16
Note_On_63_Vel_0
Time_Shift_4
Note_On_63_Vel_71
Time_Shift_19
Note_On_70_Vel_0
Time_Shift_4
Note_On_70_Vel_50
Time_Shift_26
Note_On_85_Vel_0
Time_Shift_4
Note_On_85_Vel_83
Time_Shift_50
Note_On_73_Vel_0
Note_On_87_Vel_0
Time_Shift_5
Note_On_87_Vel_68
Note_On_73_Vel_77
Time_Shift_38
Sustain_Off
Time_Shift_3
Note_On_94_Vel_0
Time_Shift_8
Note_On_79_Vel_0
Sustain_On
Time_Shift_3
Note_On_94_Vel_98
Time_Shift_5
Note_On_87_Vel_0
Time_Shift_1
Note_On_75_Vel_65
Time_Shift_2
Note_On_79_Vel_68
Time_Shift_3
Note_On_87_Vel_77
Time_Shift_17
Note_On_96_Vel_0
Time_Shift_23
Note_On_87_Vel_0
Time_Shift_4
Note_On_87_Vel_80
Time_Shift_49
Note_On_85_Vel_0
Time_Shift_4
Note_On_85_Vel_84
Time_Shift_12
Note_On_70_Vel_0
Time_Shift_8
Note_On_80_Vel_0
Time_Shift_3
Note_On_70_Vel_57
Time_Shift_43
Note_On_79_Vel_0
Time_Shift_4
Note_On_79_Vel_63
Time_Shift_3
Note_On_63_Vel_0
Note_On_87_Vel_0
Time_Shift_5
Note_On_63_Vel_66
Time_Shift_1
Note_On_87_Vel_61
Time_Shift_48
Note_On_75_Vel_0
Time_Shift_8
Note_On_70_Vel_0
Note_On_85_Vel_0
Sustain_Off
Time_Shift_3
Note_On_87_Vel_0
Time_Shift_3
Note_On_85_Vel_76
Time_Shift_4
Note_On_63_Vel_0
Note_On_79_Vel_0
Time_Shift_1
Note_On_70_Vel_55
Time_Shift_5
Note_On_73_Vel_0
Time_Shift_3
Note_On_94_Vel_0
Time_Shift_34
Note_On_70_Vel_0
Time_Shift_4
Note_On_87_Vel_72
Note_On_70_Vel_62
Time_Shift_1
Note_On_73_Vel_72
Time_Shift_26
Note_On_85_Vel_0
Time_Shift_23
Note_On_73_Vel_0
Time_Shift_4
Note_On_92_Vel_84
Time_Shift_10
Note_On_77_Vel_67
Time_Shift_9
Note_On_70_Vel_0
Time_Shift_23
Note_On_87_Vel_0
Time_Shift_20
Note_On_85_Vel_75
Time_Shift_6
Note_On_73_Vel_69
Time_Shift_28
Note_On_85_Vel_0
Time_Shift_4
Note_On_70_Vel_52
Time_Shift_2
Note_On_85_Vel_77
Time_Shift_16
Note_On_73_Vel_0
Time_Shift_24
Note_On_92_Vel_0
Time_Shift_16
Note_On_70_Vel_0
Note_On_77_Vel_0
Time_Shift_6
Note_On_70_Vel_53
Time_Shift_2
Note_On_77_Vel_68
Time_Shift_6
Note_On_63_Vel_67
Time_Shift_24
Note_On_85_Vel_0
Time_Shift_3
Note_On_77_Vel_0
Time_Shift_28
Note_On_70_Vel_0
Time_Shift_6
Note_On_85_Vel_77
Time_Shift_3
Note_On_70_Vel_57
Time_Shift_21
Note_On_63_Vel_0
Time_Shift_21
Note_On_73_Vel_74
Note_On_87_Vel_68
Time_Shift_47
Note_On_91_Vel_80
Time_Shift_1
Note_On_70_Vel_0
Note_On_85_Vel_0
Time_Shift_8
Note_On_73_Vel_0
Time_Shift_3
Note_On_75_Vel_62
Time_Shift_28
Note_On_87_Vel_0
Time_Shift_15
Note_On_75_Vel_0
Time_Shift_8
Note_On_75_Vel_75
Time_Shift_3
Note_On_87_Vel_81
Time_Shift_6
Note_On_73_Vel_70
Time_Shift_6
Note_On_91_Vel_0
Time_Shift_24
Note_On_85_Vel_78
Time_Shift_4
Note_On_73_Vel_0
Note_On_87_Vel_0
Note_On_70_Vel_65
Time_Shift_26
Note_On_75_Vel_0
Time_Shift_21
Note_On_63_Vel_67
Time_Shift_2
Note_On_85_Vel_0
Time_Shift_15
Note_On_75_Vel_70
Time_Shift_31
Note_On_63_Vel_0
Time_Shift_16
Note_On_70_Vel_0
Time_Shift_3
Note_On_85_Vel_77
Time_Shift_1
Note_On_70_Vel_62
Time_Shift_26
Note_On_75_Vel_0
Time_Shift_14
Note_On_70_Vel_0
Time_Shift_2
Note_On_85_Vel_0
Time_Shift_45
Note_On_56_Vel_63
Time_Shift_92
Note_On_63_Vel_64
Time_Shift_2
Note_On_92_Vel_83
Time_Shift_1
Note_On_83_Vel_75
Time_Shift_1
Note_On_71_Vel_78
Time_Shift_1
Note_On_68_Vel_63
Time_Shift_25
Note_On_71_Vel_0
Note_On_83_Vel_0
Time_Shift_2
Note_On_56_Vel_0
Time_Shift_5
Note_On_92_Vel_0
Time_Shift_3
Note_On_63_Vel_0
Time_Shift_30
Note_On_68_Vel_0
Time_Shift_511
Note_On_25_Vel_94
Time_Shift_34
Sustain_On
Time_Shift_337
Note_On_37_Vel_58
Time_Shift_28
Note_On_53_Vel_54
Time_Shift_62
Note_On_44_Vel_66
Time_Shift_7
Note_On_59_Vel_70
Time_Shift_54
Note_On_49_Vel_73
Time_Shift_40
Note_On_61_Vel_74
Time_Shift_25
Note_On_53_Vel_0
Time_Shift_5
Note_On_53_Vel_66
Time_Shift_62
Note_On_65_Vel_73
Time_Shift_56
Note_On_59_Vel_0
Time_Shift_4
Note_On_56_Vel_68
Time_Shift_4
Note_On_59_Vel_70
Time_Shift_2
Note_On_71_Vel_77
Time_Shift_52
Note_On_61_Vel_0
Time_Shift_8
Note_On_61_Vel_74
Time_Shift_10
Note_On_73_Vel_80
Time_Shift_51
Note_On_65_Vel_0
Time_Shift_11
Note_On_65_Vel_73
Time_Shift_23
Note_On_77_Vel_76
Time_Shift_54
Note_On_68_Vel_71
Time_Shift_7
Note_On_83_Vel_77
Time_Shift_15
Note_On_81_Vel_64
Time_Shift_35
Note_On_85_Vel_84
Time_Shift_16
Note_On_73_Vel_0
Time_Shift_4
Note_On_73_Vel_64
Time_Shift_27
Note_On_77_Vel_0
Time_Shift_5
Note_On_77_Vel_82
Time_Shift_10
Note_On_92_Vel_79
Note_On_73_Vel_0
Time_Shift_4
Note_On_73_Vel_70
Time_Shift_50
Note_On_71_Vel_0
Time_Shift_7
Note_On_85_Vel_0
Time_Shift_1
Note_On_71_Vel_84
Time_Shift_3
Note_On_85_Vel_78
Time_Shift_27
Note_On_83_Vel_0
Time_Shift_10
Note_On_83_Vel_83
Time_Shift_13
Note_On_68_Vel_0
Time_Shift_6
Note_On_68_Vel_83
Time_Shift_40
Note_On_77_Vel_0
Time_Shift_7
Note_On_77_Vel_83
Time_Shift_9
Note_On_61_Vel_0
Time_Shift_9
Note_On_61_Vel_80
Time_Shift_37
Note_On_68_Vel_0
Time_Shift_7
Note_On_83_Vel_0
Time_Shift_3
Note_On_68_Vel_76
Time_Shift_1
Note_On_83_Vel_85
Time_Shift_42
Note_On_71_Vel_0
Note_On_85_Vel_0
Time_Shift_6
Note_On_71_Vel_81
Time_Shift_1
Note_On_85_Vel_90
Time_Shift_65
Note_On_78_Vel_85
Time_Shift_2
Note_On_94_Vel_97
Time_Shift_42
Note_On_85_Vel_0
Time_Shift_7
Note_On_71_Vel_0
Time_Shift_3
Note_On_85_Vel_82
Time_Shift_1
Note_On_71_Vel_73
Time_Shift_9
Note_On_81_Vel_0
Time_Shift_1
Note_On_78_Vel_0
Note_On_53_Vel_0
Note_On_56_Vel_0
Note_On_44_Vel_0
Sustain_Off
Note_On_92_Vel_0
Time_Shift_1
Note_On_77_Vel_0
Note_On_37_Vel_0
Note_On_49_Vel_0
Time_Shift_2
Note_On_61_Vel_0
Note_On_73_Vel_0
Time_Shift_6
Note_On_25_Vel_0
Note_On_94_Vel_0
Time_Shift_8
Note_On_59_Vel_0
Note_On_68_Vel_0
Time_Shift_8
Note_On_65_Vel_0
Time_Shift_7
Note_On_83_Vel_0
Time_Shift_8
Note_On_71_Vel_0
Note_On_85_Vel_0
Time_Shift_1
Note_On_83_Vel_83
Time_Shift_25
Note_On_68_Vel_83
Time_Shift_33
Note_On_68_Vel_0
Time_Shift_3
Note_On_71_Vel_59
Time_Shift_1
Note_On_83_Vel_0
Time_Shift_7
Note_On_78_Vel_73
Time_Shift_19
Note_On_61_Vel_81
Time_Shift_48
Note_On_68_Vel_71
Time_Shift_4
Note_On_83_Vel_78
Time_Shift_9
Note_On_61_Vel_0
Time_Shift_27
Note_On_71_Vel_0
Time_Shift_4
Note_On_71_Vel_73
Time_Shift_4
Note_On_85_Vel_80
Time_Shift_15
Note_On_78_Vel_0
Time_Shift_44
Note_On_77_Vel_77
Time_Shift_4
Note_On_92_Vel_89
Time_Shift_21
Note_On_83_Vel_0
Time_Shift_15
Note_On_68_Vel_0
Time_Shift_13
Note_On_77_Vel_0
Time_Shift_3
Note_On_71_Vel_0
Note_On_85_Vel_0
Time_Shift_4
Note_On_85_Vel_76
Time_Shift_7
Note_On_71_Vel_78
Time_Shift_27
Note_On_92_Vel_0
Time_Shift_1
Note_On_83_Vel_85
Time_Shift_14
Note_On_71_Vel_0
Time_Shift_11
Note_On_83_Vel_0
Time_Shift_9
Note_On_68_Vel_77
Time_Shift_11
Note_On_85_Vel_0
Time_Shift_43
Note_On_77_Vel_65
Time_Shift_6
Note_On_61_Vel_74
Time_Shift_26
Note_On_77_Vel_0
Time_Shift_3
Note_On_61_Vel_0
Time_Shift_7
Note_On_68_Vel_0
Time_Shift_5
Note_On_68_Vel_73
Time_Shift_5
Note_On_83_Vel_78
Time_Shift_28
Note_On_71_Vel_77
Time_Shift_20
Note_On_85_Vel_77
Time_Shift_3
Note_On_73_Vel_63
Time_Shift_8
Note_On_73_Vel_0
Time_Shift_7
Note_On_68_Vel_0
Time_Shift_8
Note_On_83_Vel_0
Time_Shift_15
Note_On_71_Vel_0
Time_Shift_1
Note_On_85_Vel_0
Time_Shift_20
Note_On_75_Vel_74
Time_Shift_1
Note_On_90_Vel_83
Time_Shift_28
Note_On_71_Vel_62
Time_Shift_21
Note_On_85_Vel_76
Time_Shift_1
Note_On_73_Vel_66
Time_Shift_13
Note_On_71_Vel_0
Time_Shift_10
Note_On_71_Vel_65
Time_Shift_21
Note_On_90_Vel_0
Note_On_83_Vel_74
Time_Shift_21
Note_On_68_Vel_73
Time_Shift_13
Note_On_71_Vel_0
Time_Shift_4
Note_On_73_Vel_0
Time_Shift_9
Note_On_85_Vel_0
Time_Shift_4
Note_On_83_Vel_0
Time_Shift_10
Note_On_75_Vel_0
Time_Shift_11
Note_On_75_Vel_72
Time_Shift_4
Note_On_71_Vel_64
Time_Shift_15
Note_On_61_Vel_69
Time_Shift_39
Note_On_68_Vel_0
Time_Shift_1
Note_On_75_Vel_0
Time_Shift_16
Note_On_61_Vel_0
Time_Shift_7
Note_On_83_Vel_71
Time_Shift_12
Note_On_68_Vel_64
Time_Shift_3
Note_On_71_Vel_0
Time_Shift_6
Note_On_71_Vel_71
Time_Shift_21
Note_On_83_Vel_0
Time_Shift_6
Note_On_85_Vel_76
Time_Shift_8
Note_On_71_Vel_0
Time_Shift_5
Note_On_68_Vel_0
Time_Shift_33
Note_On_73_Vel_75
Time_Shift_5
Note_On_89_Vel_81
Time_Shift_32
Note_On_73_Vel_0
Time_Shift_6
Note_On_85_Vel_0
Time_Shift_5
Note_On_83_Vel_67
Note_On_85_Vel_76
Time_Shift_8
Note_On_89_Vel_0
Time_Shift_41
Note_On_83_Vel_0
Note_On_85_Vel_0
Time_Shift_2
Note_On_68_Vel_74
Time_Shift_5
Note_On_83_Vel_77
Time_Shift_28
Note_On_83_Vel_0
Time_Shift_34
Note_On_61_Vel_72
Note_On_68_Vel_0
Time_Shift_10
Note_On_68_Vel_63
Time_Shift_2
Note_On_73_Vel_68
Time_Shift_23
Note_On_61_Vel_0
Time_Shift_34
Note_On_68_Vel_0
Time_Shift_7
Note_On_83_Vel_69
Time_Shift_1
Note_On_73_Vel_0
Time_Shift_1
Note_On_68_Vel_65
Time_Shift_10
Note_On_71_Vel_52
Time_Shift_19
Note_On_68_Vel_0
Time_Shift_5
Note_On_83_Vel_0
Note_On_71_Vel_0
Time_Shift_40
Note_On_54_Vel_63
Time_Shift_74
Note_On_54_Vel_0
Time_Shift_17
Note_On_90_Vel_84
Time_Shift_5
Note_On_61_Vel_65
Time_Shift_2
Note_On_70_Vel_75
Note_On_82_Vel_78
Time_Shift_25
Note_On_70_Vel_0
Time_Shift_1
Note_On_61_Vel_0
Time_Shift_11
Note_On_82_Vel_0
Time_Shift_4
Note_On_90_Vel_0
Time_Shift_197
Note_On_70_Vel_50
Time_Shift_43
Note_On_70_Vel_0
Time_Shift_274
Note_On_25_Vel_99
Time_Shift_117
Sustain_On
Time_Shift_204
Note_On_37_Vel_70
Time_Shift_52
Note_On_53_Vel_63
Time_Shift_45
Note_On_44_Vel_72
Time_Shift_24
Note_On_59_Vel_69
Time_Shift_40
Note_On_68_Vel_66
Time_Shift_3
Note_On_49_Vel_70
Time_Shift_36
Note_On_61_Vel_70
Time_Shift_18
Note_On_53_Vel_0
Time_Shift_9
Note_On_53_Vel_61
Time_Shift_7
Note_On_59_Vel_0
Time_Shift_6
Note_On_59_Vel_67
Time_Shift_54
Note_On_65_Vel_72
Time_Shift_55
Note_On_59_Vel_0
Time_Shift_4
Note_On_56_Vel_69
Time_Shift_6
Note_On_71_Vel_78
Note_On_59_Vel_70
Time_Shift_59
Note_On_61_Vel_0
Time_Shift_6
Note_On_61_Vel_73
Time_Shift_7
Note_On_73_Vel_79
Time_Shift_56
Note_On_65_Vel_0
Time_Shift_6
Note_On_65_Vel_75
Time_Shift_25
Note_On_71_Vel_0
Time_Shift_4
Note_On_77_Vel_78
Time_Shift_7
Note_On_71_Vel_67
Time_Shift_43
Note_On_68_Vel_0
Time_Shift_6
Note_On_68_Vel_75
Time_Shift_6
Note_On_83_Vel_81
Time_Shift_26
Note_On_71_Vel_0
Time_Shift_10
Note_On_71_Vel_72
Time_Shift_21
Note_On_73_Vel_0
Time_Shift_2
Note_On_85_Vel_87
Time_Shift_3
Note_On_73_Vel_76
Time_Shift_41
Note_On_77_Vel_0
Time_Shift_8
Note_On_73_Vel_0
Time_Shift_2
Note_On_77_Vel_85
Time_Shift_2
Note_On_92_Vel_90
Time_Shift_6
Note_On_73_Vel_73
Time_Shift_51
Note_On_71_Vel_0
Note_On_85_Vel_0
Time_Shift_7
Note_On_71_Vel_80
Time_Shift_4
Note_On_85_Vel_80
Time_Shift_27
Note_On_83_Vel_0
Time_Shift_11
Note_On_83_Vel_78
Time_Shift_20
Note_On_68_Vel_0
Time_Shift_6
Note_On_68_Vel_82
Time_Shift_25
Note_On_77_Vel_0
Time_Shift_6
Note_On_77_Vel_77
Time_Shift_32
Note_On_61_Vel_0
Time_Shift_4
Note_On_61_Vel_80
Time_Shift_35
Note_On_68_Vel_0
Note_On_83_Vel_0
Time_Shift_4
Note_On_68_Vel_75
Time_Shift_2
Note_On_83_Vel_84
Time_Shift_40
Note_On_85_Vel_0
Time_Shift_7
Note_On_71_Vel_0
Note_On_73_Vel_0
Time_Shift_3
Note_On_85_Vel_84
Time_Shift_2
Note_On_73_Vel_68
Time_Shift_4
Note_On_71_Vel_66
Time_Shift_48
Note_On_78_Vel_85
Time_Shift_5
Note_On_94_Vel_92
Time_Shift_46
Note_On_71_Vel_0
Time_Shift_8
Note_On_85_Vel_0
Time_Shift_3
Note_On_71_Vel_76
Time_Shift_5
Note_On_85_Vel_79
Time_Shift_30
Note_On_83_Vel_0
Time_Shift_8
Note_On_83_Vel_76
Time_Shift_15
Note_On_68_Vel_0
Time_Shift_4
Note_On_68_Vel_80
Time_Shift_34
Note_On_71_Vel_0
Time_Shift_8
Note_On_78_Vel_0
Note_On_71_Vel_65
Time_Shift_6
Note_On_78_Vel_79
Time_Shift_9
Note_On_61_Vel_0
Time_Shift_8
Note_On_83_Vel_0
Time_Shift_1
Note_On_61_Vel_81
Time_Shift_6
Note_On_83_Vel_65
Time_Shift_39
Note_On_68_Vel_0
Note_On_83_Vel_0
Time_Shift_8
Note_On_83_Vel_82
Note_On_71_Vel_0
Time_Shift_3
Note_On_68_Vel_75
Time_Shift_8
Note_On_71_Vel_73
Time_Shift_35
Note_On_71_Vel_0
Time_Shift_8
Note_On_85_Vel_0
Time_Shift_3
Note_On_71_Vel_70
Time_Shift_1
Note_On_85_Vel_75
Time_Shift_34
Note_On_77_Vel_0
Time_Shift_10
Note_On_77_Vel_76
Time_Shift_13
Note_On_92_Vel_0
Time_Shift_4
Note_On_92_Vel_83
Time_Shift_19
Note_On_73_Vel_0
Time_Shift_4
Note_On_73_Vel_62
Time_Shift_19
Note_On_71_Vel_0
Note_On_85_Vel_0
Time_Shift_4
Note_On_85_Vel_71
Note_On_71_Vel_64
Time_Shift_19
Note_On_83_Vel_0
Time_Shift_10
Note_On_83_Vel_71
Time_Shift_21
Note_On_68_Vel_0
Time_Shift_4
Note_On_68_Vel_78
Time_Shift_50
Note_On_73_Vel_0
Note_On_77_Vel_0
Time_Shift_4
Note_On_61_Vel_0
Time_Shift_3
Note_On_83_Vel_0
Time_Shift_3
Note_On_73_Vel_72
Note_On_77_Vel_73
Time_Shift_7
Note_On_83_Vel_68
Time_Shift_44
Note_On_83_Vel_0
Time_Shift_11
Note_On_83_Vel_81
Time_Shift_10
Note_On_67_Vel_69
Time_Shift_33
Note_On_70_Vel_63
Time_Shift_5
Note_On_84_Vel_82
Time_Shift_20
Note_On_82_Vel_66
Time_Shift_26
Note_On_91_Vel_92
Time_Shift_7
Note_On_78_Vel_0
Note_On_49_Vel_0
Note_On_56_Vel_0
Note_On_71_Vel_0
Note_On_44_Vel_0
Time_Shift_1
Note_On_37_Vel_0
Note_On_65_Vel_0
Note_On_82_Vel_0
Note_On_77_Vel_0
Time_Shift_1
Sustain_Off
Note_On_83_Vel_0
Note_On_73_Vel_0
Note_On_68_Vel_0
Time_Shift_1
Note_On_67_Vel_0
Note_On_94_Vel_0
Note_On_70_Vel_0
Time_Shift_2
Note_On_84_Vel_0
Note_On_85_Vel_0
Time_Shift_1
Note_On_92_Vel_0
Time_Shift_5
Note_On_59_Vel_0
Time_Shift_3
Note_On_70_Vel_70
Time_Shift_3
Note_On_76_Vel_72
Time_Shift_2
Note_On_25_Vel_0
Note_On_53_Vel_0
Time_Shift_44
Note_On_71_Vel_61
Time_Shift_1
Note_On_84_Vel_81
Time_Shift_16
Note_On_91_Vel_0
Time_Shift_27
Note_On_67_Vel_70
Time_Shift_15
Note_On_82_Vel_81
Time_Shift_5
Note_On_84_Vel_0
Time_Shift_15
Note_On_71_Vel_0
Time_Shift_7
Note_On_76_Vel_0
Note_On_67_Vel_0
Time_Shift_4
Note_On_70_Vel_0
Time_Shift_23
Note_On_60_Vel_73
Time_Shift_8
Note_On_76_Vel_64
Time_Shift_45
Note_On_60_Vel_0
Time_Shift_5
Note_On_82_Vel_0
Time_Shift_4
Note_On_66_Vel_78
Time_Shift_1
Note_On_82_Vel_81
Time_Shift_45
Note_On_83_Vel_77
Time_Shift_2
Note_On_69_Vel_68
Time_Shift_12
Note_On_66_Vel_0
Time_Shift_20
Note_On_76_Vel_0
Time_Shift_4
Note_On_83_Vel_0
Time_Shift_10
Note_On_75_Vel_76
Time_Shift_2
Note_On_82_Vel_0
Time_Shift_2
Note_On_90_Vel_86
Time_Shift_52
Note_On_83_Vel_71
Time_Shift_3
Note_On_82_Vel_70
Time_Shift_19
Note_On_82_Vel_0
Time_Shift_8
Note_On_69_Vel_0
Time_Shift_12
Note_On_66_Vel_72
Time_Shift_3
Note_On_75_Vel_0
Time_Shift_2
Note_On_81_Vel_80
Time_Shift_51
Note_On_66_Vel_0
Time_Shift_6
Note_On_75_Vel_67
Note_On_81_Vel_0
Time_Shift_3
Note_On_83_Vel_0
Time_Shift_4
Note_On_71_Vel_66
Time_Shift_6
Note_On_59_Vel_78
Time_Shift_28
Note_On_90_Vel_0
Time_Shift_8
Note_On_71_Vel_0
Time_Shift_4
Note_On_59_Vel_0
Time_Shift_15
Note_On_65_Vel_76
Note_On_81_Vel_75
Time_Shift_12
Note_On_75_Vel_0
Time_Shift_36
Note_On_82_Vel_79
Time_Shift_5
Note_On_68_Vel_79
Time_Shift_13
Note_On_65_Vel_0
Time_Shift_15
Note_On_81_Vel_0
Time_Shift_23
Note_On_74_Vel_78
Time_Shift_3
Note_On_89_Vel_88
Time_Shift_4
Note_On_68_Vel_0
Note_On_82_Vel_0
Time_Shift_35
Note_On_74_Vel_0
Time_Shift_14
Note_On_82_Vel_87
Time_Shift_1
Note_On_89_Vel_0
Note_On_68_Vel_75
Time_Shift_44
Note_On_82_Vel_0
Time_Shift_3
Note_On_65_Vel_61
Time_Shift_5
Note_On_80_Vel_78
Time_Shift_21
Note_On_68_Vel_0
Time_Shift_13
Note_On_80_Vel_0
Time_Shift_20
Note_On_74_Vel_68
Time_Shift_15
Note_On_58_Vel_81
Time_Shift_6
Note_On_65_Vel_0
Time_Shift_26
Note_On_74_Vel_0
Time_Shift_11
Note_On_64_Vel_72
Time_Shift_5
Note_On_80_Vel_77
Time_Shift_9
Note_On_58_Vel_0
Time_Shift_29
Note_On_64_Vel_0
Time_Shift_14
Note_On_67_Vel_68
Time_Shift_1
Note_On_81_Vel_83
Time_Shift_1
Note_On_80_Vel_0
Time_Shift_40
Note_On_81_Vel_0
Time_Shift_4
Note_On_67_Vel_0
Time_Shift_2
Note_On_73_Vel_82
Time_Shift_1
Note_On_88_Vel_84
Time_Shift_36
Note_On_73_Vel_0
Time_Shift_12
Note_On_67_Vel_69
Note_On_81_Vel_83
Time_Shift_4
Note_On_88_Vel_0
Time_Shift_25
Note_On_67_Vel_0
Time_Shift_18
Note_On_81_Vel_0
Time_Shift_1
Note_On_64_Vel_70
Time_Shift_2
Note_On_79_Vel_81
Time_Shift_39
Note_On_64_Vel_0
Time_Shift_6
Note_On_79_Vel_0
Time_Shift_22
Note_On_73_Vel_73
Time_Shift_4
Note_On_57_Vel_74
Time_Shift_42
Note_On_73_Vel_0
Time_Shift_17
Note_On_57_Vel_0
Time_Shift_6
Note_On_63_Vel_84
Time_Shift_47
Note_On_66_Vel_80
Time_Shift_1
Note_On_80_Vel_82
Time_Shift_23
Note_On_63_Vel_0
Time_Shift_16
Note_On_87_Vel_82
Note_On_72_Vel_76
Time_Shift_43
Note_On_66_Vel_0
Note_On_80_Vel_0
Time_Shift_9
Note_On_80_Vel_85
Time_Shift_1
Note_On_66_Vel_68
Time_Shift_13
Note_On_72_Vel_0
Time_Shift_8
Note_On_66_Vel_0
Time_Shift_5
Note_On_66_Vel_72
Time_Shift_2
Note_On_87_Vel_0
Time_Shift_27
Note_On_63_Vel_79
Time_Shift_1
Note_On_78_Vel_74
Time_Shift_8
Note_On_80_Vel_0
Time_Shift_21
Note_On_66_Vel_0
Time_Shift_4
Note_On_78_Vel_0
Time_Shift_28
Note_On_72_Vel_66
Note_On_63_Vel_0
Time_Shift_16
Note_On_56_Vel_75
Time_Shift_54
Note_On_78_Vel_78
Time_Shift_12
Note_On_63_Vel_60
Time_Shift_14
Note_On_56_Vel_0
Note_On_72_Vel_0
Time_Shift_19
Note_On_66_Vel_80
Time_Shift_9
Note_On_80_Vel_79
Time_Shift_25
Note_On_78_Vel_0
Time_Shift_4
Note_On_66_Vel_0
Note_On_63_Vel_0
Time_Shift_4
Note_On_72_Vel_78
Note_On_80_Vel_0
Time_Shift_4
Note_On_87_Vel_90
Time_Shift_42
Note_On_72_Vel_0
Time_Shift_9
Note_On_87_Vel_0
Time_Shift_15
Note_On_66_Vel_70
Time_Shift_1
Note_On_80_Vel_90
Time_Shift_49
Note_On_63_Vel_70
Time_Shift_5
Note_On_78_Vel_74
Time_Shift_5
Note_On_80_Vel_0
Time_Shift_16
Note_On_66_Vel_0
Time_Shift_4
Note_On_78_Vel_0
Time_Shift_21
Note_On_63_Vel_0
Time_Shift_19
Note_On_72_Vel_70
Note_On_56_Vel_71
Time_Shift_62
Note_On_63_Vel_67
Time_Shift_3
Note_On_78_Vel_65
Time_Shift_6
Note_On_78_Vel_0
Time_Shift_8
Note_On_56_Vel_0
Time_Shift_15
Note_On_72_Vel_0
Note_On_66_Vel_73
Time_Shift_18
Note_On_63_Vel_0
Time_Shift_2
Note_On_80_Vel_75
Time_Shift_34
Note_On_66_Vel_0
Time_Shift_12
Note_On_72_Vel_67
Time_Shift_8
Note_On_87_Vel_79
Time_Shift_18
Note_On_80_Vel_0
Time_Shift_18
Note_On_72_Vel_0
Time_Shift_1
Note_On_87_Vel_0
Time_Shift_16
Note_On_80_Vel_72
Time_Shift_3
Note_On_66_Vel_66
Time_Shift_43
Note_On_66_Vel_0
Time_Shift_2
Note_On_63_Vel_69
Time_Shift_1
Note_On_78_Vel_75
Time_Shift_6
Note_On_80_Vel_0
Time_Shift_36
Note_On_78_Vel_0
Time_Shift_2
Note_On_63_Vel_0
Time_Shift_20
Note_On_72_Vel_61
Time_Shift_1
Note_On_56_Vel_66
Time_Shift_53
Note_On_56_Vel_0
Time_Shift_14
Note_On_72_Vel_0
Time_Shift_4
Note_On_78_Vel_63
Time_Shift_4
Note_On_63_Vel_76
Time_Shift_67
Note_On_72_Vel_68
Time_Shift_3
Note_On_56_Vel_83
Time_Shift_14
Note_On_78_Vel_0
Sustain_On
Time_Shift_37
Note_On_78_Vel_73
Time_Shift_55
Note_On_80_Vel_78
Time_Shift_23
Note_On_56_Vel_0
Time_Shift_6
Note_On_56_Vel_65
Time_Shift_60
Note_On_84_Vel_80
Time_Shift_74
Note_On_90_Vel_74
Time_Shift_56
Note_On_92_Vel_77
Time_Shift_69
Sustain_Off
Time_Shift_7
Note_On_56_Vel_0
Note_On_84_Vel_0
Note_On_80_Vel_0
Note_On_78_Vel_0
Note_On_72_Vel_0
Time_Shift_1
Note_On_92_Vel_0
Note_On_63_Vel_0
Note_On_90_Vel_0
Time_Shift_22
Note_On_101_Vel_109
Time_Shift_23
Note_On_32_Vel_74
Time_Shift_27
Sustain_On
Time_Shift_31
Note_On_32_Vel_0
Time_Shift_74
Note_On_99_Vel_86
Time_Shift_69
Note_On_97_Vel_81
Time_Shift_49
Note_On_96_Vel_85
Time_Shift_74
Note_On_94_Vel_88
Time_Shift_55
Note_On_93_Vel_86
Time_Shift_71
Note_On_94_Vel_0
Time_Shift_5
Note_On_94_Vel_91
Time_Shift_7
Note_On_60_Vel_65
Time_Shift_2
Note_On_51_Vel_65
Time_Shift_61
Note_On_92_Vel_89
Time_Shift_51
Note_On_90_Vel_82
Time_Shift_56
Note_On_89_Vel_79
Time_Shift_70
Note_On_87_Vel_72
Time_Shift_38
Note_On_86_Vel_76
Time_Shift_48
Note_On_89_Vel_0
Time_Shift_5
Note_On_89_Vel_86
Time_Shift_33
Note_On_60_Vel_0
Time_Shift_1
Note_On_66_Vel_72
Time_Shift_4
Note_On_60_Vel_63
Time_Shift_18
Note_On_87_Vel_0
Time_Shift_10
Note_On_87_Vel_89
Time_Shift_42
Note_On_85_Vel_80
Time_Shift_58
Note_On_84_Vel_83
Time_Shift_66
Note_On_82_Vel_79
Time_Shift_51
Note_On_81_Vel_81
Time_Shift_57
Note_On_66_Vel_0
Note_On_82_Vel_0
Time_Shift_3
Note_On_75_Vel_98
Time_Shift_6
Note_On_66_Vel_79
Time_Shift_2
Note_On_82_Vel_89
Time_Shift_61
Note_On_80_Vel_88
Time_Shift_52
Note_On_78_Vel_81
Time_Shift_64
Note_On_77_Vel_81
Time_Shift_58
Note_On_75_Vel_0
Time_Shift_6
Note_On_75_Vel_67
Time_Shift_54
Note_On_74_Vel_80
Time_Shift_48
Note_On_77_Vel_0
Time_Shift_10
Note_On_77_Vel_82
Time_Shift_51
Note_On_75_Vel_0
Time_Shift_6
Note_On_75_Vel_86
Time_Shift_44
Note_On_73_Vel_84
Time_Shift_62
Note_On_72_Vel_81
Time_Shift_67
Note_On_70_Vel_78
Time_Shift_48
Note_On_69_Vel_83
Time_Shift_57
Note_On_70_Vel_0
Time_Shift_6
Note_On_70_Vel_84
Time_Shift_6
Sustain_Off
Time_Shift_23
Note_On_96_Vel_0
Time_Shift_1
Note_On_77_Vel_0
Note_On_94_Vel_0
Note_On_84_Vel_0
Note_On_72_Vel_0
Time_Shift_1
Note_On_97_Vel_0
Note_On_101_Vel_0
Time_Shift_1
Note_On_92_Vel_0
Note_On_85_Vel_0
Note_On_93_Vel_0
Note_On_81_Vel_0
Note_On_75_Vel_0
Note_On_99_Vel_0
Time_Shift_1
Note_On_87_Vel_0
Time_Shift_1
Note_On_69_Vel_0
Note_On_73_Vel_0
Note_On_78_Vel_0
Note_On_86_Vel_0
Time_Shift_1
Note_On_89_Vel_0
Note_On_60_Vel_0
Time_Shift_1
Note_On_90_Vel_0
Note_On_74_Vel_0
Time_Shift_10
Note_On_70_Vel_0
Time_Shift_2
Note_On_80_Vel_0
Time_Shift_8
Note_On_82_Vel_0
Time_Shift_10
Note_On_68_Vel_89
Time_Shift_5
Note_On_51_Vel_0
Time_Shift_23
Note_On_66_Vel_0
Time_Shift_7
Note_On_66_Vel_86
Time_Shift_52
Note_On_66_Vel_0
Time_Shift_10
Note_On_68_Vel_0
Time_Shift_12
Note_On_65_Vel_81
Time_Shift_52
Note_On_65_Vel_0
Time_Shift_3
Note_On_63_Vel_87
Time_Shift_54
Note_On_62_Vel_79
Time_Shift_20
Note_On_63_Vel_0
Time_Shift_21
Note_On_62_Vel_0
Time_Shift_22
Note_On_65_Vel_75
Time_Shift_67
Note_On_63_Vel_88
Time_Shift_13
Note_On_65_Vel_0
Time_Shift_31
Note_On_61_Vel_84
Time_Shift_18
Note_On_63_Vel_0
Time_Shift_44
Note_On_60_Vel_77
Time_Shift_6
Note_On_61_Vel_0
Time_Shift_22
Note_On_60_Vel_0
Time_Shift_50
Note_On_58_Vel_86
Time_Shift_62
Note_On_57_Vel_88
Time_Shift_7
Note_On_58_Vel_0
Time_Shift_63
Note_On_56_Vel_103
Time_Shift_14
Note_On_57_Vel_0
Time_Shift_492
Note_On_49_Vel_91
Time_Shift_2
Sustain_On
Time_Shift_2
Note_On_53_Vel_86
Time_Shift_2
Note_On_37_Vel_86
Time_Shift_1
Note_On_44_Vel_91
Time_Shift_594
Note_On_53_Vel_0
Time_Shift_4
Note_On_61_Vel_97
Time_Shift_6
Note_On_46_Vel_100
Time_Shift_1
Note_On_53_Vel_89
Time_Shift_1
Note_On_34_Vel_95
Time_Shift_23
Note_On_37_Vel_0
Time_Shift_1
Note_On_44_Vel_0
Time_Shift_7
Sustain_Off
Time_Shift_96
Sustain_On
Time_Shift_629
Note_On_49_Vel_0
Time_Shift_26
Note_On_63_Vel_92
Time_Shift_5
Note_On_56_Vel_0
Time_Shift_1
Note_On_51_Vel_92
Time_Shift_2
Note_On_60_Vel_88
Time_Shift_1
Note_On_56_Vel_95
Time_Shift_2
Note_On_44_Vel_106
Time_Shift_2
Note_On_32_Vel_101
Time_Shift_40
Sustain_Off
Time_Shift_24
Note_On_34_Vel_0
Note_On_46_Vel_0
Time_Shift_1
Note_On_61_Vel_0
Time_Shift_12
Note_On_53_Vel_0
Time_Shift_123
Sustain_On
Time_Shift_721
Note_On_56_Vel_0
Time_Shift_1
Note_On_53_Vel_92
Note_On_65_Vel_95
Time_Shift_3
Note_On_61_Vel_92
Time_Shift_4
Note_On_25_Vel_101
Time_Shift_1
Note_On_56_Vel_87
Time_Shift_1
Note_On_37_Vel_102
Note_On_49_Vel_96
Time_Shift_6
Note_On_49_Vel_0
Time_Shift_61
Sustain_Off
Time_Shift_5
Note_On_32_Vel_0
Time_Shift_2
Note_On_60_Vel_0
Note_On_63_Vel_0
Time_Shift_1
Note_On_44_Vel_0
Note_On_51_Vel_0
Time_Shift_192
Sustain_On
Time_Shift_672
Note_On_94_Vel_68
Time_Shift_6
Note_On_85_Vel_63
Time_Shift_68
Note_On_89_Vel_74
Time_Shift_6
Note_On_77_Vel_72
Time_Shift_71
Note_On_92_Vel_69
Time_Shift_7
Note_On_80_Vel_76
Time_Shift_53
Note_On_85_Vel_0
Time_Shift_4
Note_On_85_Vel_80
Time_Shift_9
Note_On_73_Vel_72
Time_Shift_78
Note_On_78_Vel_70
Time_Shift_1
Note_On_80_Vel_0
Time_Shift_3
Note_On_90_Vel_77
Time_Shift_1
Note_On_80_Vel_72
Time_Shift_50
Note_On_73_Vel_0
Time_Shift_8
Note_On_85_Vel_0
Time_Shift_2
Note_On_73_Vel_78
Time_Shift_9
Note_On_85_Vel_76
Time_Shift_58
Note_On_77_Vel_0
Note_On_89_Vel_0
Time_Shift_6
Note_On_77_Vel_81
Time_Shift_4
Note_On_89_Vel_80
Time_Shift_51
Note_On_80_Vel_0
Time_Shift_4
Note_On_68_Vel_78
Time_Shift_6
Note_On_80_Vel_76
Time_Shift_59
Note_On_68_Vel_0
Note_On_77_Vel_0
Time_Shift_5
Note_On_87_Vel_81
Note_On_68_Vel_67
Time_Shift_1
Note_On_77_Vel_68
Time_Shift_56
Note_On_68_Vel_0
Note_On_80_Vel_0
Time_Shift_5
Note_On_68_Vel_74
Time_Shift_3
Note_On_80_Vel_79
Time_Shift_38
Note_On_73_Vel_0
Time_Shift_8
Note_On_85_Vel_0
Time_Shift_2
Note_On_73_Vel_81
Time_Shift_9
Note_On_85_Vel_77
Time_Shift_58
Note_On_53_Vel_0
Note_On_65_Vel_0
Note_On_77_Vel_0
Time_Shift_5
Note_On_77_Vel_80
Time_Shift_1
Note_On_53_Vel_63
Time_Shift_4
Note_On_65_Vel_63
Time_Shift_51
Note_On_73_Vel_0
Time_Shift_5
Note_On_73_Vel_81
Time_Shift_15
Note_On_82_Vel_82
Time_Shift_57
Note_On_65_Vel_0
Note_On_77_Vel_0
Time_Shift_5
Note_On_77_Vel_80
Time_Shift_5
Note_On_65_Vel_53
Time_Shift_36
Note_On_68_Vel_0
Note_On_80_Vel_0
Time_Shift_4
Note_On_68_Vel_80
Time_Shift_7
Note_On_80_Vel_70
Time_Shift_66
Note_On_61_Vel_0
Note_On_73_Vel_0
Time_Shift_4
Note_On_73_Vel_77
Time_Shift_4
Note_On_61_Vel_75
Time_Shift_53
Note_On_68_Vel_0
Time_Shift_5
Note_On_68_Vel_76
Time_Shift_3
Note_On_78_Vel_0
Time_Shift_4
Note_On_78_Vel_77
Time_Shift_65
Note_On_61_Vel_0
Time_Shift_7
Note_On_61_Vel_73
Time_Shift_1
Note_On_73_Vel_0
Time_Shift_4
Note_On_73_Vel_84
Time_Shift_57
Note_On_65_Vel_0
Note_On_77_Vel_0
Time_Shift_4
Note_On_65_Vel_71
Time_Shift_7
Note_On_77_Vel_80
Time_Shift_51
Note_On_56_Vel_0
Time_Shift_6
Note_On_56_Vel_76
Time_Shift_1
Note_On_68_Vel_0
Time_Shift_5
Note_On_68_Vel_85
Time_Shift_72
Note_On_65_Vel_0
Time_Shift_5
Note_On_75_Vel_85
Time_Shift_6
Note_On_65_Vel_68
Time_Shift_66
Note_On_56_Vel_0
Time_Shift_8
Note_On_68_Vel_0
Time_Shift_3
Note_On_56_Vel_73
Time_Shift_1
Note_On_68_Vel_81
Time_Shift_103
Note_On_65_Vel_0
Note_On_73_Vel_0
Time_Shift_3
Note_On_49_Vel_79
Time_Shift_1
Note_On_73_Vel_84
Time_Shift_8
Note_On_65_Vel_78
Time_Shift_26
Sustain_Off
Time_Shift_2
Note_On_37_Vel_0
Note_On_53_Vel_0
Time_Shift_2
Note_On_92_Vel_0
Note_On_87_Vel_0
Note_On_77_Vel_0
Note_On_90_Vel_0
Note_On_75_Vel_0
Note_On_89_Vel_0
Note_On_78_Vel_0
Time_Shift_1
Note_On_82_Vel_0
Note_On_80_Vel_0
Time_Shift_11
Note_On_25_Vel_0
Time_Shift_8
Note_On_94_Vel_0
Time_Shift_46
Note_On_85_Vel_0
Time_Shift_100
Sustain_On
Time_Shift_460
Note_On_49_Vel_0
Note_On_61_Vel_0
Note_On_65_Vel_0
Time_Shift_5
Note_On_53_Vel_94
Note_On_59_Vel_92
Time_Shift_1
Note_On_65_Vel_94
Time_Shift_1
Note_On_61_Vel_99
Time_Shift_4
Note_On_49_Vel_98
Time_Shift_5
Note_On_37_Vel_90
Time_Shift_6
Note_On_44_Vel_87
Time_Shift_20
Sustain_Off
Time_Shift_20
Note_On_73_Vel_0
Time_Shift_30
Note_On_68_Vel_0
Time_Shift_70
Sustain_On
Time_Shift_399
Note_On_49_Vel_0
Note_On_61_Vel_0
Note_On_65_Vel_0
Time_Shift_8
Note_On_54_Vel_102
Note_On_65_Vel_91
Time_Shift_1
Note_On_61_Vel_95
Time_Shift_1
Note_On_49_Vel_95
Time_Shift_1
Note_On_58_Vel_97
Time_Shift_1
Note_On_42_Vel_92
Note_On_70_Vel_93
Time_Shift_11
Note_On_70_Vel_0
Time_Shift_12
Sustain_Off
Time_Shift_30
Note_On_37_Vel_0
Note_On_53_Vel_0
Time_Shift_1
Note_On_59_Vel_0
Time_Shift_18
Note_On_44_Vel_0
Note_On_56_Vel_0
Time_Shift_70
Sustain_On
Time_Shift_544
Note_On_68_Vel_101
Time_Shift_1
Note_On_58_Vel_0
Note_On_61_Vel_0
Time_Shift_6
Note_On_61_Vel_96
Time_Shift_2
Note_On_54_Vel_0
Note_On_58_Vel_98
Time_Shift_3
Note_On_46_Vel_90
Note_On_51_Vel_99
Time_Shift_1
Note_On_54_Vel_87
Time_Shift_1
Note_On_39_Vel_93
Time_Shift_38
Sustain_Off
Time_Shift_41
Sustain_On
Time_Shift_468
Note_On_58_Vel_0
Time_Shift_7
Note_On_66_Vel_95
Time_Shift_1
Note_On_39_Vel_0
Note_On_46_Vel_0
Note_On_51_Vel_0
Note_On_54_Vel_0
Note_On_61_Vel_0
Time_Shift_2
Note_On_58_Vel_93
Time_Shift_2
Note_On_42_Vel_0
Time_Shift_1
Note_On_46_Vel_83
Time_Shift_1
Note_On_61_Vel_84
Time_Shift_1
Note_On_51_Vel_92
Time_Shift_1
Note_On_39_Vel_83
Time_Shift_1
Note_On_54_Vel_83
Time_Shift_7
Note_On_49_Vel_0
Time_Shift_153
Note_On_46_Vel_0
Note_On_54_Vel_0
Note_On_61_Vel_0
Note_On_65_Vel_0
Time_Shift_8
Note_On_65_Vel_90
Note_On_39_Vel_0
Note_On_51_Vel_0
Note_On_58_Vel_0
Time_Shift_2
Note_On_54_Vel_93
Note_On_61_Vel_83
Time_Shift_1
Note_On_46_Vel_83
Time_Shift_1
Note_On_58_Vel_83
Note_On_70_Vel_87
Time_Shift_1
Note_On_51_Vel_88
Time_Shift_2
Note_On_39_Vel_81
Time_Shift_10
Note_On_68_Vel_0
Time_Shift_8
Sustain_Off
Time_Shift_75
Sustain_On
Time_Shift_338
Note_On_66_Vel_0
Time_Shift_7
Note_On_65_Vel_0
Note_On_51_Vel_0
Time_Shift_1
Sustain_Off
Time_Shift_2
Note_On_58_Vel_0
Time_Shift_2
Note_On_63_Vel_91
Note_On_60_Vel_80
Time_Shift_3
Note_On_54_Vel_0
Time_Shift_1
Note_On_51_Vel_83
Time_Shift_7
Note_On_46_Vel_0
Note_On_61_Vel_0
Time_Shift_2
Note_On_44_Vel_79
Note_On_56_Vel_74
Time_Shift_4
Note_On_32_Vel_66
Time_Shift_9
Note_On_32_Vel_0
Time_Shift_161
Note_On_70_Vel_0
Time_Shift_8
Sustain_On
Time_Shift_438
Note_On_39_Vel_0
Time_Shift_11
Note_On_101_Vel_87
Time_Shift_7
Note_On_92_Vel_63
Time_Shift_78
Note_On_96_Vel_68
Time_Shift_1
Note_On_84_Vel_70
Time_Shift_74
Note_On_99_Vel_79
Time_Shift_29
Note_On_87_Vel_73
Time_Shift_30
Note_On_92_Vel_0
Time_Shift_11
Note_On_92_Vel_66
Note_On_80_Vel_70
Time_Shift_76
Note_On_97_Vel_86
Time_Shift_67
Note_On_80_Vel_0
Note_On_92_Vel_0
Time_Shift_9
Note_On_92_Vel_75
Time_Shift_2
Note_On_80_Vel_72
Time_Shift_58
Note_On_84_Vel_0
Note_On_96_Vel_0
Time_Shift_4
Note_On_96_Vel_75
Time_Shift_1
Note_On_84_Vel_67
Time_Shift_60
Note_On_75_Vel_78
Time_Shift_57
Note_On_94_Vel_89
Time_Shift_24
Note_On_84_Vel_0
Time_Shift_4
Note_On_84_Vel_62
Time_Shift_42
Note_On_75_Vel_0
Note_On_87_Vel_0
Time_Shift_7
Note_On_75_Vel_71
Time_Shift_4
Note_On_87_Vel_76
Time_Shift_50
Note_On_80_Vel_0
Note_On_92_Vel_0
Time_Shift_10
Note_On_80_Vel_75
Time_Shift_1
Note_On_92_Vel_77
Time_Shift_51
Note_On_84_Vel_0
Time_Shift_4
Note_On_72_Vel_74
Note_On_84_Vel_81
Time_Shift_72
Note_On_80_Vel_0
Time_Shift_9
Note_On_80_Vel_78
Time_Shift_2
Note_On_89_Vel_84
Time_Shift_43
Note_On_72_Vel_0
Note_On_84_Vel_0
Time_Shift_5
Note_On_72_Vel_67
Note_On_84_Vel_71
Time_Shift_57
Note_On_75_Vel_0
Note_On_87_Vel_0
Time_Shift_11
Note_On_75_Vel_79
Note_On_87_Vel_80
Time_Shift_58
Note_On_80_Vel_0
Time_Shift_6
Note_On_80_Vel_80
Time_Shift_9
Note_On_68_Vel_76
Time_Shift_62
Note_On_85_Vel_79
Note_On_75_Vel_0
Time_Shift_4
Note_On_75_Vel_56
Time_Shift_57
Note_On_68_Vel_0
Note_On_80_Vel_0
Time_Shift_5
Note_On_68_Vel_73
Time_Shift_5
Note_On_80_Vel_77
Time_Shift_59
Note_On_72_Vel_0
Note_On_84_Vel_0
Time_Shift_6
Note_On_72_Vel_64
Time_Shift_6
Note_On_84_Vel_75
Time_Shift_57
Note_On_63_Vel_0
Note_On_75_Vel_0
Time_Shift_9
Note_On_63_Vel_72
Time_Shift_3
Note_On_75_Vel_79
Time_Shift_62
Note_On_82_Vel_83
Time_Shift_26
Note_On_72_Vel_0
Time_Shift_9
Note_On_72_Vel_74
Time_Shift_53
Note_On_63_Vel_0
Note_On_72_Vel_0
Note_On_75_Vel_0
Time_Shift_9
Note_On_63_Vel_81
Time_Shift_1
Note_On_75_Vel_76
Note_On_72_Vel_66
Time_Shift_97
Note_On_101_Vel_0
Time_Shift_7
Note_On_68_Vel_0
Time_Shift_1
Note_On_80_Vel_0
Note_On_94_Vel_0
Time_Shift_1
Note_On_63_Vel_0
Note_On_75_Vel_0
Time_Shift_2
Sustain_Off
Time_Shift_4
Note_On_44_Vel_0
Note_On_72_Vel_0
Note_On_85_Vel_0
Note_On_89_Vel_0
Note_On_96_Vel_0
Time_Shift_2
Note_On_80_Vel_80
Time_Shift_6
Note_On_60_Vel_0
Note_On_82_Vel_0
Note_On_92_Vel_0
Note_On_97_Vel_0
Note_On_99_Vel_0
Time_Shift_3
Note_On_72_Vel_67
Time_Shift_5
Note_On_51_Vel_0
Note_On_56_Vel_0
Note_On_84_Vel_0
Note_On_87_Vel_0
Time_Shift_5
Note_On_56_Vel_60
Time_Shift_133
Sustain_On
Time_Shift_522
Note_On_72_Vel_0
Time_Shift_35
Note_On_63_Vel_88
Time_Shift_1
Note_On_51_Vel_98
Note_On_59_Vel_85
Time_Shift_27
Note_On_44_Vel_99
Time_Shift_1
Note_On_32_Vel_92
Time_Shift_566
Note_On_44_Vel_0
Note_On_56_Vel_0
Note_On_63_Vel_0
Time_Shift_9
Note_On_56_Vel_100
Time_Shift_2
Note_On_63_Vel_94
Note_On_44_Vel_97
Note_On_68_Vel_98
Time_Shift_1
Note_On_47_Vel_99
Note_On_35_Vel_100
Time_Shift_37
Sustain_Off
Time_Shift_8
Note_On_32_Vel_0
Time_Shift_1
Note_On_51_Vel_0
Time_Shift_11
Note_On_80_Vel_0
Time_Shift_100
Sustain_On
Time_Shift_438
Note_On_59_Vel_0
Note_On_68_Vel_0
Time_Shift_2
Note_On_71_Vel_93
Time_Shift_4
Note_On_61_Vel_104
Time_Shift_1
Note_On_59_Vel_99
Time_Shift_1
Note_On_65_Vel_91
Note_On_68_Vel_94
Time_Shift_3
Note_On_53_Vel_92
Time_Shift_1
Note_On_49_Vel_102
Time_Shift_3
Note_On_44_Vel_0
Note_On_37_Vel_93
Time_Shift_4
Note_On_44_Vel_88
Time_Shift_15
Sustain_Off
Time_Shift_27
Note_On_47_Vel_0
Time_Shift_2
Note_On_35_Vel_0
Time_Shift_29
Note_On_63_Vel_0
Time_Shift_107
Sustain_On
Time_Shift_315
Note_On_56_Vel_0
Time_Shift_284
Note_On_61_Vel_0
Time_Shift_8
Note_On_61_Vel_103
Note_On_58_Vel_106
Time_Shift_2
Note_On_70_Vel_102
Time_Shift_2
Note_On_66_Vel_101
Time_Shift_11
Note_On_42_Vel_107
Time_Shift_3
Note_On_30_Vel_104
Time_Shift_23
Note_On_37_Vel_0
Note_On_49_Vel_0
Note_On_44_Vel_0
Note_On_53_Vel_0
Time_Shift_3
Sustain_Off
Time_Shift_2
Note_On_68_Vel_0
Time_Shift_8
Note_On_71_Vel_0
Time_Shift_8
Note_On_59_Vel_0
Time_Shift_7
Note_On_65_Vel_0
Time_Shift_254
Sustain_On
Time_Shift_430
Note_On_99_Vel_76
Time_Shift_83
Note_On_82_Vel_74
Time_Shift_4
Note_On_94_Vel_74
Time_Shift_79
Note_On_85_Vel_80
Time_Shift_1
Note_On_97_Vel_81
Time_Shift_74
Note_On_90_Vel_83
Time_Shift_1
Note_On_78_Vel_71
Time_Shift_57
Note_On_85_Vel_0
Time_Shift_11
Note_On_85_Vel_75
Time_Shift_7
Note_On_95_Vel_86
Time_Shift_67
Note_On_78_Vel_0
Note_On_90_Vel_0
Time_Shift_11
Note_On_78_Vel_81
Note_On_90_Vel_74
Time_Shift_12
Sustain_Off
Time_Shift_46
Note_On_82_Vel_0
Note_On_94_Vel_0
Time_Shift_5
Note_On_94_Vel_89
Time_Shift_3
Note_On_82_Vel_82
Time_Shift_30
Sustain_On
Time_Shift_23
Note_On_85_Vel_0
Time_Shift_6
Note_On_85_Vel_78
Time_Shift_7
Note_On_73_Vel_74
Time_Shift_64
Note_On_82_Vel_0
Time_Shift_2
Note_On_92_Vel_87
Time_Shift_9
Note_On_82_Vel_76
Time_Shift_58
Note_On_73_Vel_0
Note_On_85_Vel_0
Time_Shift_9
Note_On_85_Vel_77
Time_Shift_1
Note_On_73_Vel_76
Time_Shift_52
Note_On_78_Vel_0
Note_On_90_Vel_0
Time_Shift_4
Note_On_90_Vel_83
Time_Shift_3
Note_On_78_Vel_71
Time_Shift_62
Note_On_70_Vel_0
Note_On_82_Vel_0
Time_Shift_7
Note_On_82_Vel_84
Note_On_70_Vel_75
Time_Shift_62
Note_On_78_Vel_0
Time_Shift_5
Note_On_78_Vel_59
Time_Shift_6
Note_On_87_Vel_87
Time_Shift_58
Note_On_70_Vel_0
Time_Shift_8
Note_On_82_Vel_0
Time_Shift_2
Note_On_70_Vel_64
Time_Shift_2
Note_On_82_Vel_77
Time_Shift_50
Note_On_85_Vel_0
Time_Shift_7
Note_On_73_Vel_0
Time_Shift_2
Note_On_85_Vel_78
Time_Shift_7
Note_On_73_Vel_75
Time_Shift_22
Note_On_70_Vel_0
Time_Shift_8
Note_On_70_Vel_50
Time_Shift_15
Note_On_78_Vel_0
Time_Shift_8
Note_On_66_Vel_0
Time_Shift_2
Note_On_78_Vel_77
Time_Shift_3
Note_On_66_Vel_78
Time_Shift_71
Note_On_73_Vel_0
Time_Shift_12
Note_On_73_Vel_70
Time_Shift_1
Note_On_83_Vel_76
Time_Shift_57
Note_On_66_Vel_0
Time_Shift_10
Note_On_66_Vel_74
Time_Shift_59
Note_On_70_Vel_0
Note_On_82_Vel_0
Time_Shift_5
Note_On_82_Vel_82
Time_Shift_3
Note_On_70_Vel_67
Time_Shift_61
Note_On_61_Vel_0
Time_Shift_7
Note_On_73_Vel_0
Time_Shift_4
Note_On_61_Vel_67
Note_On_73_Vel_81
Time_Shift_66
Note_On_70_Vel_0
Note_On_80_Vel_79
Time_Shift_7
Note_On_66_Vel_0
Time_Shift_4
Note_On_70_Vel_69
Time_Shift_3
Note_On_66_Vel_51
Time_Shift_62
Note_On_73_Vel_0
Time_Shift_7
Note_On_73_Vel_71
Time_Shift_9
Note_On_61_Vel_0
Note_On_66_Vel_0
Time_Shift_4
Note_On_66_Vel_48
Time_Shift_2
Note_On_61_Vel_71
Time_Shift_101
Note_On_70_Vel_0
Note_On_78_Vel_0
Time_Shift_7
Note_On_78_Vel_83
Time_Shift_1
Note_On_70_Vel_78
Note_On_54_Vel_67
Time_Shift_38
Sustain_Off
Time_Shift_23
Note_On_58_Vel_0
Time_Shift_8
Note_On_30_Vel_0
Time_Shift_8
Note_On_83_Vel_0
Time_Shift_7
Note_On_80_Vel_0
Note_On_99_Vel_0
Time_Shift_16
Note_On_95_Vel_0
Time_Shift_38
Note_On_92_Vel_0
Time_Shift_8
Note_On_42_Vel_0
Sustain_On
Time_Shift_15
Note_On_87_Vel_0
Time_Shift_46
Note_On_82_Vel_0
Time_Shift_16
Note_On_73_Vel_0
Time_Shift_230
Note_On_94_Vel_0
Time_Shift_15
Note_On_97_Vel_0
Time_Shift_16
Note_On_61_Vel_0
Time_Shift_7
Note_On_85_Vel_0
Time_Shift_31
Note_On_90_Vel_0
Time_Shift_54
Note_On_70_Vel_0
Time_Shift_5
Sustain_Off
Time_Shift_3
Note_On_78_Vel_0
Time_Shift_7
Note_On_66_Vel_0
Time_Shift_8
Note_On_54_Vel_0
Time_Shift_51
Note_On_70_Vel_101
Note_On_63_Vel_97
Time_Shift_6
Note_On_58_Vel_99
Time_Shift_17
Note_On_30_Vel_100
Note_On_42_Vel_104
Time_Shift_149
Sustain_On
Time_Shift_414
Note_On_58_Vel_0
Note_On_70_Vel_0
Time_Shift_4
Note_On_61_Vel_96
Time_Shift_2
Note_On_58_Vel_106
Time_Shift_3
Note_On_70_Vel_99
Time_Shift_12
Note_On_29_Vel_102
Time_Shift_4
Note_On_41_Vel_97
Time_Shift_3
Note_On_42_Vel_0
Time_Shift_1
Note_On_30_Vel_0
Time_Shift_16
Sustain_Off
Time_Shift_17
Sustain_On
Time_Shift_540
Note_On_57_Vel_107
Time_Shift_3
Note_On_60_Vel_103
Time_Shift_1
Note_On_65_Vel_97
Time_Shift_1
Note_On_41_Vel_0
Note_On_69_Vel_103
Time_Shift_3
Note_On_48_Vel_99
Note_On_53_Vel_105
Time_Shift_1
Note_On_58_Vel_0
Note_On_41_Vel_100
Time_Shift_1
Note_On_63_Vel_0
Time_Shift_5
Sustain_Off
Time_Shift_29
Sustain_On
Time_Shift_61
Note_On_70_Vel_0
Time_Shift_730
Note_On_29_Vel_0
Time_Shift_7
Note_On_61_Vel_0
Time_Shift_8
Note_On_65_Vel_0
Time_Shift_3
Note_On_73_Vel_101
Note_On_61_Vel_104
Time_Shift_1
Note_On_70_Vel_96
Time_Shift_3
Note_On_65_Vel_100
Time_Shift_4
Note_On_46_Vel_106
Time_Shift_8
Note_On_34_Vel_102
Time_Shift_17
Sustain_Off
Time_Shift_10
Note_On_60_Vel_0
Time_Shift_3
Note_On_48_Vel_0
Time_Shift_1
Note_On_69_Vel_0
Note_On_57_Vel_0
Note_On_53_Vel_0
Time_Shift_27
Note_On_41_Vel_0
Time_Shift_153
Sustain_On
Time_Shift_644
Note_On_101_Vel_115
Time_Shift_135
Note_On_94_Vel_105
Time_Shift_108
Note_On_99_Vel_105
Time_Shift_36
Note_On_89_Vel_75
Time_Shift_60
Note_On_94_Vel_0
Time_Shift_10
Note_On_94_Vel_98
Time_Shift_9
Note_On_82_Vel_83
Time_Shift_84
Note_On_97_Vel_95
Time_Shift_1
Note_On_85_Vel_88
Time_Shift_88
Note_On_89_Vel_0
Time_Shift_4
Note_On_89_Vel_84
Time_Shift_1
Note_On_77_Vel_73
Time_Shift_80
Note_On_85_Vel_0
Note_On_97_Vel_0
Time_Shift_1
Note_On_96_Vel_88
Time_Shift_3
Note_On_97_Vel_74
Time_Shift_1
Note_On_85_Vel_73
Time_Shift_72
Note_On_77_Vel_0
Note_On_89_Vel_0
Time_Shift_10
Note_On_89_Vel_82
Time_Shift_1
Note_On_77_Vel_73
Time_Shift_73
Note_On_94_Vel_0
Time_Shift_10
Note_On_94_Vel_87
Time_Shift_13
Note_On_82_Vel_0
Time_Shift_4
Note_On_82_Vel_72
Time_Shift_50
Note_On_85_Vel_0
Time_Shift_9
Note_On_85_Vel_74
Time_Shift_14
Note_On_73_Vel_0
Time_Shift_7
Note_On_73_Vel_59
Time_Shift_70
Note_On_82_Vel_0
Time_Shift_1
Note_On_90_Vel_73
Time_Shift_5
Note_On_82_Vel_73
Time_Shift_63
Note_On_85_Vel_0
Time_Shift_4
Note_On_85_Vel_79
Time_Shift_11
Note_On_73_Vel_0
Time_Shift_8
Note_On_73_Vel_62
Time_Shift_8
Note_On_89_Vel_0
Time_Shift_4
Note_On_89_Vel_58
Time_Shift_49
Note_On_77_Vel_0
Time_Shift_8
Note_On_89_Vel_0
Time_Shift_3
Note_On_77_Vel_70
Time_Shift_2
Note_On_89_Vel_72
Time_Shift_80
Note_On_70_Vel_0
Note_On_82_Vel_0
Time_Shift_8
Note_On_82_Vel_71
Time_Shift_3
Note_On_70_Vel_57
Time_Shift_77
Note_On_87_Vel_70
Time_Shift_19
Note_On_77_Vel_0
Time_Shift_5
Note_On_77_Vel_63
Time_Shift_64
Note_On_82_Vel_0
Time_Shift_8
Note_On_70_Vel_0
Note_On_73_Vel_0
Time_Shift_3
Note_On_82_Vel_66
Time_Shift_3
Note_On_70_Vel_51
Note_On_73_Vel_50
Time_Shift_63
Note_On_73_Vel_0
Time_Shift_8
Note_On_85_Vel_0
Time_Shift_3
Note_On_73_Vel_61
Time_Shift_1
Note_On_85_Vel_70
Time_Shift_96
Note_On_34_Vel_0
Note_On_46_Vel_0
Note_On_61_Vel_0
Note_On_65_Vel_0
Note_On_96_Vel_0
Time_Shift_5
Note_On_53_Vel_43
Note_On_65_Vel_56
Time_Shift_2
Note_On_77_Vel_0
Time_Shift_8
Note_On_53_Vel_0
Note_On_90_Vel_0
Time_Shift_2
Note_On_77_Vel_56
Time_Shift_44
Sustain_Off
Time_Shift_34
Note_On_77_Vel_0
Time_Shift_4
Note_On_101_Vel_0
Time_Shift_8
Note_On_73_Vel_0
Note_On_99_Vel_0
Time_Shift_3
Note_On_65_Vel_0
Time_Shift_1
Note_On_89_Vel_0
Note_On_82_Vel_0
Note_On_97_Vel_0
Time_Shift_5
Note_On_84_Vel_60
Note_On_85_Vel_0
Time_Shift_1
Note_On_70_Vel_0
Time_Shift_1
Note_On_73_Vel_51
Time_Shift_4
Note_On_87_Vel_0
Note_On_94_Vel_0
Time_Shift_46
Note_On_73_Vel_0
Time_Shift_59
Note_On_77_Vel_52
Time_Shift_13
Note_On_73_Vel_34
Time_Shift_14
Note_On_65_Vel_45
Time_Shift_291
Note_On_73_Vel_0
Time_Shift_3
Note_On_82_Vel_50
Time_Shift_3
Note_On_73_Vel_40
Time_Shift_4
Note_On_58_Vel_42
Time_Shift_1
Note_On_77_Vel_0
Time_Shift_12
Note_On_84_Vel_0
Time_Shift_392
Note_On_65_Vel_0
Time_Shift_53
Note_On_82_Vel_0
Time_Shift_21
Note_On_58_Vel_0
Time_Shift_18
Note_On_73_Vel_0
Time_Shift_568
Sustain_On
Time_Shift_234
Note_On_73_Vel_48
Time_Shift_12
Note_On_61_Vel_40
Time_Shift_3
Note_On_65_Vel_31
Time_Shift_6
Note_On_46_Vel_30
Time_Shift_9
Note_On_34_Vel_28
Time_Shift_1005
Note_On_67_Vel_56
Time_Shift_14
Note_On_65_Vel_0
Time_Shift_4
Note_On_65_Vel_45
Time_Shift_7
Note_On_49_Vel_36
Time_Shift_1
Note_On_37_Vel_35
Note_On_58_Vel_45
Time_Shift_32
Note_On_61_Vel_0
Time_Shift_1
Note_On_73_Vel_0
Time_Shift_1
Note_On_46_Vel_0
Time_Shift_2
Note_On_34_Vel_0
Sustain_Off
Time_Shift_97
Sustain_On
Time_Shift_617
Note_On_70_Vel_58
Time_Shift_13
Note_On_58_Vel_0
Time_Shift_6
Note_On_64_Vel_45
Time_Shift_3
Note_On_58_Vel_47
Time_Shift_9
Note_On_67_Vel_0
Time_Shift_1
Note_On_37_Vel_0
Time_Shift_1
Note_On_49_Vel_0
Sustain_Off
Time_Shift_13
Note_On_48_Vel_29
Time_Shift_6
Note_On_65_Vel_0
Time_Shift_84
Sustain_On
Time_Shift_492
Note_On_58_Vel_0
Time_Shift_3
Note_On_68_Vel_64
Time_Shift_4
Note_On_70_Vel_0
Note_On_48_Vel_0
Note_On_64_Vel_0
Time_Shift_2
Note_On_58_Vel_63
Time_Shift_3
Note_On_36_Vel_50
Note_On_48_Vel_48
Time_Shift_3
Note_On_64_Vel_55
Time_Shift_90
Note_On_68_Vel_0
Time_Shift_6
Sustain_Off
Time_Shift_4
Note_On_48_Vel_0
Note_On_58_Vel_0
Note_On_64_Vel_0
Time_Shift_7
Note_On_58_Vel_78
Time_Shift_1
Note_On_36_Vel_0
Time_Shift_1
Note_On_67_Vel_73
Time_Shift_2
Note_On_48_Vel_56
Note_On_64_Vel_63
Time_Shift_2
Note_On_36_Vel_50
Time_Shift_94
Sustain_On
Time_Shift_16
Note_On_36_Vel_0
Time_Shift_5
Note_On_36_Vel_39
Time_Shift_259
Note_On_72_Vel_66
Note_On_48_Vel_0
Note_On_58_Vel_0
Time_Shift_1
Note_On_36_Vel_0
Time_Shift_4
Note_On_64_Vel_0
Note_On_67_Vel_0
Time_Shift_2
Sustain_Off
Time_Shift_2
Note_On_60_Vel_53
Time_Shift_1
Note_On_67_Vel_59
Time_Shift_4
Note_On_64_Vel_54
Time_Shift_8
Note_On_45_Vel_46
Time_Shift_6
Note_On_33_Vel_43
Time_Shift_176
Sustain_On
Time_Shift_722
Note_On_72_Vel_0
Time_Shift_10
Note_On_72_Vel_85
Time_Shift_13
Note_On_60_Vel_0
Time_Shift_4
Note_On_60_Vel_56
Time_Shift_2
Note_On_66_Vel_65
Time_Shift_6
Note_On_63_Vel_57
Time_Shift_5
Note_On_57_Vel_52
Time_Shift_14
Note_On_45_Vel_0
Time_Shift_4
Note_On_45_Vel_47
Time_Shift_22
Note_On_67_Vel_0
Time_Shift_5
Note_On_64_Vel_0
Time_Shift_53
Note_On_33_Vel_0
Time_Shift_592
Note_On_57_Vel_0
Note_On_63_Vel_0
Note_On_66_Vel_0
Time_Shift_7
Note_On_66_Vel_76
Time_Shift_3
Note_On_63_Vel_67
Time_Shift_1
Note_On_57_Vel_60
Time_Shift_24
Note_On_48_Vel_43
Time_Shift_8
Note_On_36_Vel_44
Time_Shift_23
Note_On_60_Vel_0
Time_Shift_7
Sustain_Off
Time_Shift_11
Note_On_45_Vel_0
Note_On_72_Vel_0
Time_Shift_185
Sustain_On
Time_Shift_503
Note_On_69_Vel_72
Time_Shift_3
Note_On_57_Vel_0
Note_On_63_Vel_0
Time_Shift_5
Note_On_63_Vel_57
Time_Shift_7
Note_On_57_Vel_48
Time_Shift_8
Note_On_47_Vel_33
Time_Shift_17
Note_On_35_Vel_31
Time_Shift_15
Note_On_36_Vel_0
Time_Shift_1
Sustain_Off
Time_Shift_9
Note_On_48_Vel_0
Time_Shift_146
Sustain_On
Time_Shift_38
Note_On_66_Vel_0
Time_Shift_397
Note_On_68_Vel_74
Time_Shift_3
Note_On_57_Vel_0
Time_Shift_7
Note_On_47_Vel_0
Note_On_63_Vel_0
Time_Shift_3
Note_On_57_Vel_57
Time_Shift_2
Note_On_59_Vel_49
Time_Shift_3
Note_On_35_Vel_0
Note_On_63_Vel_58
Time_Shift_1
Note_On_47_Vel_44
Time_Shift_6
Note_On_35_Vel_43
Time_Shift_100
Note_On_66_Vel_78
Note_On_57_Vel_0
Note_On_63_Vel_0
Time_Shift_5
Note_On_63_Vel_66
Note_On_57_Vel_61
Time_Shift_5
Sustain_Off
Time_Shift_5
Note_On_69_Vel_0
Time_Shift_1
Note_On_35_Vel_0
Note_On_47_Vel_0
Time_Shift_5
Note_On_47_Vel_51
Time_Shift_5
Note_On_35_Vel_53
Time_Shift_97
Sustain_On
Time_Shift_23
Note_On_68_Vel_0
Time_Shift_346
Note_On_71_Vel_83
Time_Shift_9
Sustain_Off
Time_Shift_6
Note_On_59_Vel_0
Note_On_63_Vel_0
Note_On_66_Vel_0
Time_Shift_4
Note_On_44_Vel_50
Time_Shift_3
Note_On_59_Vel_53
Time_Shift_2
Note_On_66_Vel_68
Time_Shift_1
Note_On_63_Vel_55
Time_Shift_6
Note_On_47_Vel_0
Note_On_57_Vel_0
Time_Shift_61
Note_On_35_Vel_0
Time_Shift_169
Sustain_On
Time_Shift_1006
Note_On_71_Vel_0
Time_Shift_2
Sustain_Off
Time_Shift_7
Note_On_71_Vel_60
Time_Shift_6
Note_On_59_Vel_0
Note_On_66_Vel_0
Time_Shift_8
Note_On_66_Vel_48
Note_On_44_Vel_0
Time_Shift_2
Note_On_59_Vel_35
Time_Shift_2
Note_On_62_Vel_30
Time_Shift_2
Note_On_44_Vel_39
Time_Shift_202
Sustain_On
Time_Shift_860
Note_On_62_Vel_0
Time_Shift_10
Note_On_62_Vel_44
Time_Shift_5
Note_On_59_Vel_0
Time_Shift_4
Note_On_59_Vel_36
Time_Shift_4
Note_On_44_Vel_0
Time_Shift_5
Note_On_44_Vel_36
Time_Shift_3
Note_On_54_Vel_33
Time_Shift_1
Note_On_66_Vel_0
Time_Shift_1
Note_On_63_Vel_0
Time_Shift_1
Note_On_71_Vel_0
Time_Shift_2
Sustain_Off
Time_Shift_1
Note_On_32_Vel_30
Time_Shift_155
Sustain_On
Time_Shift_230
Note_On_32_Vel_0
Time_Shift_353
Note_On_44_Vel_0
Time_Shift_5
Note_On_44_Vel_44
Time_Shift_87
Note_On_66_Vel_51
Time_Shift_1
Note_On_54_Vel_0
Note_On_59_Vel_0
Time_Shift_4
Note_On_54_Vel_36
Time_Shift_6
Note_On_59_Vel_41
Time_Shift_13
Sustain_Off
Time_Shift_78
Note_On_35_Vel_48
Time_Shift_6
Sustain_On
Time_Shift_110
Note_On_32_Vel_51
Time_Shift_67
Note_On_54_Vel_0
Time_Shift_11
Note_On_54_Vel_58
Time_Shift_4
Note_On_59_Vel_0
Time_Shift_4
Note_On_64_Vel_59
Note_On_59_Vel_57
Time_Shift_19
Note_On_62_Vel_0
Time_Shift_11
Note_On_66_Vel_0
Time_Shift_2
Note_On_59_Vel_0
Time_Shift_2
Note_On_32_Vel_0
Note_On_44_Vel_0
Time_Shift_5
Note_On_44_Vel_55
Time_Shift_4
Sustain_Off
Time_Shift_11
Note_On_64_Vel_0
Time_Shift_27
Note_On_54_Vel_0
Time_Shift_37
Note_On_62_Vel_63
Time_Shift_12
Note_On_59_Vel_56
Time_Shift_4
Note_On_44_Vel_0
Time_Shift_5
Note_On_44_Vel_41
Time_Shift_141
Note_On_44_Vel_0
Note_On_59_Vel_0
Time_Shift_8
Note_On_62_Vel_0
Time_Shift_2
Note_On_59_Vel_37
Time_Shift_2
Note_On_44_Vel_35
Note_On_62_Vel_45
Time_Shift_6
Note_On_32_Vel_37
Time_Shift_5
Note_On_35_Vel_0
Time_Shift_292
Note_On_62_Vel_0
Time_Shift_8
Note_On_59_Vel_0
Time_Shift_3
Note_On_62_Vel_39
Time_Shift_2
Note_On_59_Vel_39
Time_Shift_2
Note_On_44_Vel_0
Time_Shift_10
Note_On_44_Vel_43
Note_On_54_Vel_33
Time_Shift_194
Note_On_32_Vel_0
Time_Shift_5
Note_On_44_Vel_0
Time_Shift_2
Note_On_54_Vel_0
Time_Shift_1
Note_On_59_Vel_0
Time_Shift_2
Note_On_62_Vel_0
Time_Shift_478
Sustain_On
Time_Shift_464
Note_On_59_Vel_41
Time_Shift_3
Note_On_62_Vel_35
Time_Shift_4
Note_On_44_Vel_36
Time_Shift_5
Note_On_53_Vel_31
Time_Shift_898
Note_On_62_Vel_0
Time_Shift_5
Note_On_62_Vel_33
Time_Shift_3
Note_On_59_Vel_0
Time_Shift_4
Note_On_59_Vel_36
Time_Shift_11
Note_On_44_Vel_0
Note_On_53_Vel_0
Time_Shift_6
Note_On_53_Vel_23
Time_Shift_3
Note_On_44_Vel_33
Time_Shift_4
Note_On_32_Vel_27
Time_Shift_7
Sustain_Off
Time_Shift_96
Sustain_On
Time_Shift_783
Note_On_44_Vel_0
Time_Shift_6
Note_On_44_Vel_39
Time_Shift_86
Sustain_Off
Time_Shift_8
Note_On_53_Vel_0
Note_On_65_Vel_35
Time_Shift_11
Note_On_53_Vel_31
Time_Shift_6
Note_On_58_Vel_37
Time_Shift_83
Note_On_32_Vel_0
Time_Shift_23
Sustain_On
Time_Shift_21
Note_On_34_Vel_35
Time_Shift_79
Note_On_59_Vel_0
Time_Shift_42
Note_On_32_Vel_35
Time_Shift_65
Note_On_53_Vel_0
Time_Shift_4
Note_On_63_Vel_65
Time_Shift_4
Note_On_58_Vel_0
Time_Shift_3
Note_On_53_Vel_42
Time_Shift_4
Note_On_58_Vel_53
Time_Shift_23
Note_On_62_Vel_0
Sustain_Off
Time_Shift_6
Note_On_58_Vel_0
Time_Shift_1
Note_On_53_Vel_0
Time_Shift_1
Note_On_63_Vel_0
Time_Shift_3
Note_On_34_Vel_0
Note_On_32_Vel_0
Time_Shift_20
Note_On_44_Vel_0
Time_Shift_6
Note_On_44_Vel_44
Time_Shift_2
Note_On_65_Vel_0
Time_Shift_48
Note_On_53_Vel_59
Time_Shift_2
Note_On_62_Vel_56
Time_Shift_6
Note_On_34_Vel_52
Time_Shift_1
Note_On_58_Vel_56
Time_Shift_122
Note_On_32_Vel_40
Time_Shift_59
Sustain_On
Time_Shift_397
Note_On_53_Vel_0
Time_Shift_4
Note_On_62_Vel_0
Time_Shift_17
Sustain_Off
Time_Shift_4
Note_On_32_Vel_0
Note_On_58_Vel_0
Time_Shift_3
Note_On_61_Vel_54
Time_Shift_5
Note_On_58_Vel_42
Note_On_34_Vel_0
Note_On_44_Vel_0
Time_Shift_3
Note_On_32_Vel_43
Time_Shift_1
Note_On_52_Vel_46
Time_Shift_1
Note_On_44_Vel_42
Time_Shift_264
Sustain_On
Time_Shift_496
Note_On_58_Vel_0
Time_Shift_1
Note_On_61_Vel_0
Time_Shift_2
Note_On_32_Vel_0
Time_Shift_4
Sustain_Off
Time_Shift_19
Note_On_52_Vel_0
Time_Shift_5
Note_On_52_Vel_52
Time_Shift_10
Note_On_44_Vel_0
Time_Shift_2
Note_On_55_Vel_61
Time_Shift_8
Note_On_44_Vel_55
Time_Shift_18
Note_On_58_Vel_58
Time_Shift_2
Note_On_52_Vel_0
Time_Shift_5
Note_On_55_Vel_0
Time_Shift_19
Note_On_44_Vel_0
Time_Shift_49
Note_On_60_Vel_55
Time_Shift_10
Note_On_58_Vel_0
Time_Shift_21
Note_On_60_Vel_0
Time_Shift_24
Note_On_63_Vel_64
Time_Shift_47
Note_On_63_Vel_0
Time_Shift_21
Note_On_61_Vel_61
Time_Shift_33
Note_On_61_Vel_0
Time_Shift_46
Note_On_64_Vel_58
Time_Shift_30
Note_On_64_Vel_0
Time_Shift_45
Note_On_70_Vel_63
Time_Shift_6
Note_On_67_Vel_73
Time_Shift_19
Note_On_56_Vel_61
Time_Shift_14
Note_On_58_Vel_50
Time_Shift_1
Note_On_67_Vel_0
Time_Shift_3
Note_On_58_Vel_0
Note_On_61_Vel_44
Time_Shift_4
Note_On_70_Vel_0
Note_On_56_Vel_0
Time_Shift_3
Note_On_61_Vel_0
Time_Shift_4
Note_On_72_Vel_55
Time_Shift_1
Note_On_73_Vel_47
Time_Shift_11
Note_On_73_Vel_0
Time_Shift_44
Note_On_75_Vel_73
Time_Shift_2
Note_On_72_Vel_0
Time_Shift_47
Note_On_75_Vel_0
Time_Shift_11
Note_On_73_Vel_70
Time_Shift_28
Note_On_73_Vel_0
Time_Shift_3
Note_On_64_Vel_36
Time_Shift_11
Note_On_64_Vel_0
Time_Shift_27
Note_On_67_Vel_47
Note_On_76_Vel_65
Time_Shift_7
Note_On_70_Vel_54
Time_Shift_24
Note_On_76_Vel_0
Time_Shift_19
Note_On_67_Vel_0
Time_Shift_18
Note_On_82_Vel_67
Time_Shift_28
Note_On_70_Vel_0
Time_Shift_6
Note_On_82_Vel_0
Time_Shift_5
Note_On_84_Vel_72
Time_Shift_28
Note_On_79_Vel_44
Time_Shift_2
Note_On_68_Vel_55
Time_Shift_13
Note_On_84_Vel_0
Time_Shift_24
Note_On_87_Vel_80
Time_Shift_14
Note_On_68_Vel_0
Time_Shift_15
Note_On_79_Vel_0
Time_Shift_19
Note_On_85_Vel_72
Note_On_87_Vel_0
Time_Shift_43
Note_On_85_Vel_0
Time_Shift_33
Note_On_88_Vel_73
Time_Shift_27
Note_On_88_Vel_0
Time_Shift_29
Note_On_94_Vel_78
Time_Shift_31
Note_On_96_Vel_81
Time_Shift_46
Note_On_97_Vel_92
Time_Shift_3
Sustain_On
Time_Shift_3
Note_On_91_Vel_90
Time_Shift_7
Note_On_88_Vel_70
Time_Shift_9
Note_On_80_Vel_68
Time_Shift_27
Note_On_94_Vel_0
Time_Shift_38
Note_On_96_Vel_0
Time_Shift_92
Note_On_80_Vel_0
Time_Shift_108
Note_On_97_Vel_0
Time_Shift_276
Sustain_Off
Time_Shift_14
Note_On_64_Vel_58
Time_Shift_6
Note_On_58_Vel_50
Time_Shift_9
Note_On_52_Vel_46
Time_Shift_23
Note_On_32_Vel_41
Note_On_44_Vel_40
Time_Shift_33
Sustain_On
Time_Shift_798
Note_On_58_Vel_0
Time_Shift_2
Note_On_61_Vel_58
Time_Shift_9
Note_On_58_Vel_49
Time_Shift_5
Note_On_32_Vel_0
Note_On_44_Vel_0
Note_On_52_Vel_0
Time_Shift_5
Note_On_52_Vel_47
Time_Shift_5
Note_On_44_Vel_48
Time_Shift_1
Note_On_32_Vel_45
Time_Shift_27
Note_On_88_Vel_0
Time_Shift_8
Sustain_Off
Time_Shift_123
Sustain_On
Time_Shift_92
Note_On_91_Vel_0
Time_Shift_441
Note_On_61_Vel_0
Time_Shift_2
Sustain_Off
Time_Shift_18
Note_On_58_Vel_0
Note_On_64_Vel_0
Time_Shift_7
Note_On_44_Vel_0
Note_On_52_Vel_0
Time_Shift_1
Note_On_64_Vel_59
Time_Shift_3
Note_On_58_Vel_53
Time_Shift_1
Note_On_44_Vel_49
Time_Shift_2
Note_On_52_Vel_47
Time_Shift_70
Note_On_32_Vel_0
Time_Shift_19
Note_On_34_Vel_57
Time_Shift_85
Note_On_32_Vel_54
Time_Shift_21
Note_On_52_Vel_0
Time_Shift_1
Note_On_34_Vel_0
Time_Shift_1
Note_On_64_Vel_0
Note_On_58_Vel_0
Time_Shift_19
Note_On_44_Vel_0
Time_Shift_45
Note_On_58_Vel_73
Time_Shift_4
Note_On_44_Vel_65
Note_On_63_Vel_69
Time_Shift_1
Note_On_52_Vel_66
Time_Shift_22
Note_On_58_Vel_0
Time_Shift_6
Note_On_63_Vel_0
Time_Shift_1
Note_On_52_Vel_0
Time_Shift_13
Note_On_32_Vel_0
Time_Shift_16
Note_On_44_Vel_0
Time_Shift_34
Note_On_61_Vel_72
Note_On_58_Vel_74
Time_Shift_5
Note_On_52_Vel_69
Time_Shift_6
Note_On_34_Vel_60
Time_Shift_143
Note_On_58_Vel_0
Time_Shift_1
Note_On_61_Vel_0
Time_Shift_7
Note_On_52_Vel_0
Time_Shift_11
Note_On_34_Vel_0
Time_Shift_278
Note_On_64_Vel_54
Time_Shift_3
Note_On_70_Vel_59
Note_On_61_Vel_55
Time_Shift_4
Note_On_56_Vel_40
Time_Shift_2
Note_On_58_Vel_45
Note_On_52_Vel_42
Time_Shift_3
Note_On_44_Vel_40
Time_Shift_2
Note_On_58_Vel_0
Time_Shift_84
Sustain_On
Time_Shift_354
Note_On_52_Vel_0
Time_Shift_53
Note_On_61_Vel_0
Note_On_64_Vel_0
Time_Shift_4
Note_On_64_Vel_61
Time_Shift_3
Note_On_61_Vel_52
Time_Shift_1
Note_On_44_Vel_0
Time_Shift_1
Note_On_52_Vel_61
Time_Shift_2
Note_On_55_Vel_66
Note_On_58_Vel_61
Time_Shift_2
Note_On_44_Vel_60
Time_Shift_14
Note_On_70_Vel_0
Time_Shift_2
Sustain_Off
Time_Shift_7
Note_On_64_Vel_0
Time_Shift_10
Note_On_56_Vel_0
Time_Shift_1
Note_On_52_Vel_0
Time_Shift_1
Note_On_44_Vel_0
Time_Shift_3
Note_On_55_Vel_0
Time_Shift_18
Note_On_61_Vel_0
Time_Shift_33
Note_On_60_Vel_60
Time_Shift_34
Note_On_60_Vel_0
Note_On_58_Vel_0
Time_Shift_34
Note_On_63_Vel_64
Time_Shift_38
Note_On_63_Vel_0
Time_Shift_5
Note_On_61_Vel_71
Time_Shift_20
Note_On_55_Vel_39
Time_Shift_15
Note_On_61_Vel_0
Time_Shift_29
Note_On_55_Vel_0
Time_Shift_16
Note_On_64_Vel_70
Time_Shift_18
Note_On_70_Vel_42
Time_Shift_11
Note_On_64_Vel_0
Time_Shift_42
Note_On_67_Vel_78
Time_Shift_13
Note_On_70_Vel_0
Time_Shift_1
Note_On_56_Vel_65
Time_Shift_3
Note_On_58_Vel_53
Time_Shift_6
Note_On_70_Vel_56
Time_Shift_17
Note_On_67_Vel_0
Time_Shift_3
Note_On_70_Vel_0
Time_Shift_4
Note_On_56_Vel_0
Time_Shift_7
Note_On_70_Vel_50
Time_Shift_2
Note_On_72_Vel_57
Time_Shift_18
Note_On_58_Vel_0
Time_Shift_15
Note_On_70_Vel_0
Time_Shift_17
Note_On_75_Vel_72
Time_Shift_6
Note_On_72_Vel_0
Time_Shift_36
Note_On_75_Vel_0
Time_Shift_13
Note_On_73_Vel_76
Time_Shift_29
Note_On_73_Vel_0
Time_Shift_40
Note_On_76_Vel_67
Time_Shift_23
Note_On_70_Vel_46
Time_Shift_1
Note_On_72_Vel_47
Time_Shift_8
Note_On_76_Vel_0
Time_Shift_34
Note_On_82_Vel_71
Time_Shift_24
Note_On_72_Vel_0
Time_Shift_8
Note_On_70_Vel_0
Time_Shift_5
Note_On_82_Vel_0
Time_Shift_3
Note_On_84_Vel_82
Time_Shift_8
Note_On_79_Vel_83
Time_Shift_6
Note_On_68_Vel_75
Time_Shift_28
Note_On_84_Vel_0
Time_Shift_11
Note_On_79_Vel_0
Time_Shift_8
Note_On_87_Vel_79
Note_On_68_Vel_0
Time_Shift_49
Note_On_85_Vel_82
Time_Shift_16
Note_On_87_Vel_0
Time_Shift_8
Note_On_85_Vel_0
Time_Shift_49
Note_On_88_Vel_74
Time_Shift_47
Note_On_88_Vel_0
Time_Shift_8
Note_On_94_Vel_76
Time_Shift_25
Note_On_96_Vel_88
Time_Shift_50
Note_On_97_Vel_96
Time_Shift_4
Note_On_91_Vel_99
Time_Shift_2
Note_On_88_Vel_72
Time_Shift_18
Note_On_94_Vel_0
Time_Shift_15
Note_On_96_Vel_0
Time_Shift_16
Sustain_On
Time_Shift_473
Note_On_61_Vel_62
Note_On_70_Vel_60
Time_Shift_2
Note_On_64_Vel_50
Note_On_56_Vel_61
Time_Shift_5
Note_On_44_Vel_56
Time_Shift_580
Note_On_56_Vel_0
Note_On_70_Vel_0
Note_On_91_Vel_0
Note_On_97_Vel_0
Time_Shift_7
Note_On_61_Vel_0
Note_On_64_Vel_0
Time_Shift_1
Note_On_56_Vel_84
Time_Shift_3
Note_On_70_Vel_85
Time_Shift_5
Note_On_68_Vel_77
Time_Shift_1
Note_On_64_Vel_72
Note_On_61_Vel_81
Time_Shift_2
Note_On_49_Vel_90
Time_Shift_3
Note_On_37_Vel_79
Time_Shift_446
Note_On_88_Vel_0
Time_Shift_100
Note_On_61_Vel_0
Time_Shift_8
Note_On_44_Vel_0
Note_On_56_Vel_0
Note_On_64_Vel_0
Note_On_68_Vel_0
Time_Shift_1
Note_On_73_Vel_83
Time_Shift_2
Note_On_61_Vel_88
Time_Shift_1
Note_On_37_Vel_0
Note_On_64_Vel_79
Note_On_49_Vel_0
Time_Shift_1
Sustain_Off
Time_Shift_2
Note_On_56_Vel_85
Time_Shift_2
Note_On_44_Vel_94
Time_Shift_1
Note_On_68_Vel_78
Note_On_32_Vel_90
Time_Shift_52
Note_On_44_Vel_0
Time_Shift_14
Note_On_56_Vel_0
Note_On_68_Vel_0
Time_Shift_8
Sustain_On
Time_Shift_62
Note_On_32_Vel_0
Time_Shift_92
Note_On_70_Vel_0
Note_On_73_Vel_0
Time_Shift_23
Note_On_63_Vel_80
Time_Shift_1
Note_On_72_Vel_75
Time_Shift_2
Note_On_60_Vel_73
Time_Shift_1
Note_On_68_Vel_59
Note_On_44_Vel_66
Time_Shift_61
Note_On_60_Vel_0
Note_On_63_Vel_0
Time_Shift_4
Sustain_Off
Note_On_61_Vel_0
Time_Shift_8
Note_On_44_Vel_0
Note_On_64_Vel_0
Note_On_72_Vel_0
Time_Shift_3
Note_On_61_Vel_86
Time_Shift_1
Note_On_70_Vel_88
Time_Shift_1
Note_On_64_Vel_74
Time_Shift_5
Note_On_44_Vel_70
Time_Shift_13
Note_On_68_Vel_0
Time_Shift_16
Note_On_70_Vel_0
Time_Shift_1
Note_On_61_Vel_0
Time_Shift_29
Note_On_64_Vel_0
Time_Shift_7
Note_On_44_Vel_0
Time_Shift_125
Note_On_68_Vel_102
Time_Shift_1
Note_On_60_Vel_92
Time_Shift_1
Note_On_56_Vel_101
Time_Shift_1
Note_On_63_Vel_79
Time_Shift_3
Note_On_44_Vel_95
Time_Shift_28
Note_On_56_Vel_0
Time_Shift_3
Sustain_On
Time_Shift_46
Note_On_60_Vel_0
Time_Shift_368
Note_On_68_Vel_0
Time_Shift_10
Note_On_64_Vel_90
Time_Shift_1
Note_On_56_Vel_93
Note_On_52_Vel_106
Time_Shift_1
Note_On_61_Vel_91
Note_On_68_Vel_94
Time_Shift_1
Note_On_40_Vel_99
Time_Shift_15
Sustain_Off
Time_Shift_11
Note_On_63_Vel_0
Time_Shift_15
Note_On_44_Vel_0
Time_Shift_23
Sustain_On
Time_Shift_346
Note_On_56_Vel_0
Note_On_68_Vel_0
Time_Shift_6
Note_On_68_Vel_83
Time_Shift_3
Note_On_51_Vel_84
Note_On_56_Vel_83
Time_Shift_1
Note_On_66_Vel_81
Time_Shift_1
Note_On_60_Vel_77
Note_On_39_Vel_81
Time_Shift_17
Note_On_61_Vel_0
Time_Shift_3
Sustain_Off
Time_Shift_2
Note_On_52_Vel_0
Time_Shift_1
Note_On_40_Vel_0
Time_Shift_27
Note_On_39_Vel_0
Note_On_64_Vel_0
Time_Shift_60
Note_On_49_Vel_79
Time_Shift_2
Note_On_37_Vel_77
Time_Shift_7
Note_On_60_Vel_0
Time_Shift_23
Note_On_51_Vel_0
Time_Shift_22
Note_On_49_Vel_0
Time_Shift_5
Note_On_37_Vel_0
Time_Shift_3
Note_On_56_Vel_0
Time_Shift_59
Note_On_48_Vel_71
Time_Shift_1
Note_On_36_Vel_79
Time_Shift_32
Note_On_48_Vel_0
Time_Shift_1
Note_On_66_Vel_0
Time_Shift_1
Note_On_36_Vel_0
Time_Shift_5
Note_On_68_Vel_0
Time_Shift_83
Note_On_49_Vel_89
Time_Shift_2
Note_On_37_Vel_86
Time_Shift_4
Note_On_56_Vel_83
Time_Shift_1
Note_On_68_Vel_78
Time_Shift_1
Note_On_61_Vel_77
Time_Shift_1
Note_On_70_Vel_75
Time_Shift_1
Note_On_64_Vel_75
Time_Shift_16
Sustain_On
Time_Shift_67
Sustain_Off
Time_Shift_4
Note_On_37_Vel_0
Time_Shift_10
Note_On_56_Vel_0
Time_Shift_2
Note_On_64_Vel_0
Time_Shift_7
Note_On_48_Vel_85
Time_Shift_1
Note_On_36_Vel_86
Time_Shift_2
Note_On_49_Vel_0
Time_Shift_13
Note_On_61_Vel_0
Time_Shift_6
Note_On_68_Vel_0
Time_Shift_11
Note_On_70_Vel_0
Time_Shift_3
Note_On_48_Vel_0
Time_Shift_1
Note_On_36_Vel_0
Time_Shift_80
Note_On_46_Vel_85
Time_Shift_3
Note_On_34_Vel_85
Time_Shift_27
Note_On_46_Vel_0
Time_Shift_4
Note_On_34_Vel_0
Time_Shift_78
Note_On_60_Vel_91
Time_Shift_1
Note_On_72_Vel_89
Note_On_68_Vel_90
Time_Shift_2
Note_On_44_Vel_99
Time_Shift_2
Note_On_63_Vel_83
Note_On_32_Vel_94
Time_Shift_91
Sustain_On
Time_Shift_277
Note_On_68_Vel_0
Time_Shift_2
Note_On_52_Vel_103
Time_Shift_1
Note_On_40_Vel_97
Time_Shift_1
Note_On_61_Vel_94
Note_On_64_Vel_89
Note_On_68_Vel_92
Time_Shift_1
Note_On_73_Vel_96
Time_Shift_11
Sustain_Off
Time_Shift_27
Note_On_60_Vel_0
Time_Shift_10
Note_On_32_Vel_0
Note_On_72_Vel_0
Time_Shift_8
Note_On_44_Vel_0
Note_On_63_Vel_0
Time_Shift_69
Sustain_On
Time_Shift_228
Sustain_Off
Note_On_61_Vel_0
Note_On_73_Vel_0
Time_Shift_1
Note_On_52_Vel_0
Time_Shift_1
Note_On_40_Vel_0
Time_Shift_8
Note_On_68_Vel_0
Time_Shift_6
Note_On_72_Vel_82
Time_Shift_1
Note_On_51_Vel_88
Time_Shift_4
Note_On_66_Vel_92
Note_On_39_Vel_84
Time_Shift_1
Note_On_69_Vel_73
Time_Shift_39
Note_On_51_Vel_0
Time_Shift_7
Note_On_39_Vel_0
Time_Shift_4
Note_On_64_Vel_0
Time_Shift_62
Note_On_49_Vel_81
Time_Shift_1
Note_On_37_Vel_86
Time_Shift_21
Sustain_On
Time_Shift_73
Note_On_49_Vel_0
Note_On_37_Vel_0
Time_Shift_3
Note_On_48_Vel_81
Time_Shift_1
Note_On_36_Vel_89
Time_Shift_12
Sustain_Off
Time_Shift_38
Note_On_48_Vel_0
Time_Shift_1
Note_On_36_Vel_0
Time_Shift_1
Note_On_66_Vel_0
Time_Shift_6
Note_On_72_Vel_0
Time_Shift_11
Note_On_69_Vel_0
Time_Shift_56
Note_On_79_Vel_96
Time_Shift_2
Note_On_67_Vel_93
Time_Shift_1
Note_On_49_Vel_91
Time_Shift_2
Note_On_70_Vel_83
Time_Shift_3
Note_On_76_Vel_82
Note_On_37_Vel_90
Time_Shift_34
Note_On_49_Vel_0
Time_Shift_60
Note_On_48_Vel_92
Time_Shift_2
Note_On_36_Vel_89
Time_Shift_46
Note_On_48_Vel_0
Time_Shift_2
Note_On_37_Vel_0
Time_Shift_15
Note_On_70_Vel_0
Time_Shift_8
Note_On_67_Vel_0
Time_Shift_7
Note_On_36_Vel_0
Time_Shift_8
Note_On_76_Vel_0
Time_Shift_27
Note_On_46_Vel_100
Note_On_34_Vel_90
Time_Shift_11
Note_On_79_Vel_0
Time_Shift_30
Note_On_46_Vel_0
Time_Shift_1
Note_On_34_Vel_0
Time_Shift_72
Note_On_72_Vel_94
Note_On_68_Vel_107
Note_On_80_Vel_103
Time_Shift_1
Note_On_44_Vel_109
Time_Shift_1
Note_On_32_Vel_99
Note_On_75_Vel_88
Time_Shift_41
Sustain_On
Time_Shift_329
Sustain_Off
Time_Shift_13
Note_On_81_Vel_106
Time_Shift_1
Note_On_69_Vel_107
Note_On_57_Vel_109
Time_Shift_5
Note_On_45_Vel_103
Time_Shift_10
Note_On_68_Vel_0
Time_Shift_1
Note_On_80_Vel_0
Time_Shift_2
Note_On_32_Vel_0
Time_Shift_16
Sustain_On
Time_Shift_38
Note_On_72_Vel_0
Note_On_75_Vel_0
Time_Shift_299
Note_On_44_Vel_0
Time_Shift_4
Note_On_68_Vel_103
Time_Shift_2
Note_On_66_Vel_96
Note_On_63_Vel_91
Time_Shift_1
Note_On_60_Vel_95
Note_On_56_Vel_103
Time_Shift_3
Note_On_44_Vel_108
Time_Shift_3
Note_On_32_Vel_102
Time_Shift_10
Note_On_69_Vel_0
Sustain_Off
Time_Shift_6
Note_On_57_Vel_0
Time_Shift_10
Note_On_45_Vel_0
Note_On_81_Vel_0
Time_Shift_69
Sustain_On
Time_Shift_8
Note_On_56_Vel_0
Time_Shift_281
Sustain_Off
Note_On_60_Vel_0
Time_Shift_1
Note_On_66_Vel_0
Note_On_63_Vel_0
Time_Shift_8
Note_On_69_Vel_108
Note_On_57_Vel_110
Time_Shift_2
Note_On_32_Vel_0
Time_Shift_2
Note_On_45_Vel_104
Time_Shift_5
Note_On_68_Vel_0
Time_Shift_8
Note_On_44_Vel_0
Time_Shift_23
Sustain_On
Time_Shift_349
Note_On_56_Vel_109
Note_On_60_Vel_99
Note_On_63_Vel_93
Time_Shift_1
Note_On_68_Vel_103
Note_On_44_Vel_113
Time_Shift_2
Note_On_54_Vel_103
Time_Shift_1
Note_On_32_Vel_102
Time_Shift_2
Note_On_66_Vel_96
Time_Shift_5
Note_On_69_Vel_0
Time_Shift_1
Note_On_45_Vel_0
Time_Shift_1
Note_On_57_Vel_0
Time_Shift_3
Sustain_Off
Time_Shift_96
Sustain_On
Time_Shift_341
Note_On_60_Vel_0
Note_On_66_Vel_0
Note_On_54_Vel_0
Note_On_68_Vel_0
Note_On_63_Vel_0
Note_On_56_Vel_0
Time_Shift_1
Sustain_Off
Time_Shift_11
Note_On_32_Vel_0
Note_On_44_Vel_0
Time_Shift_5
Note_On_69_Vel_107
Time_Shift_3
Note_On_57_Vel_110
Time_Shift_2
Note_On_45_Vel_104
Time_Shift_1
Note_On_33_Vel_89
Time_Shift_58
Sustain_On
Time_Shift_8
Note_On_33_Vel_0
Time_Shift_269
Note_On_57_Vel_0
Note_On_69_Vel_0
Time_Shift_7
Note_On_45_Vel_0
Time_Shift_3
Note_On_69_Vel_106
Time_Shift_1
Note_On_57_Vel_110
Time_Shift_1
Note_On_45_Vel_95
Time_Shift_288
Note_On_68_Vel_103
Time_Shift_2
Note_On_56_Vel_105
Time_Shift_4
Note_On_60_Vel_91
Time_Shift_1
Note_On_44_Vel_108
Time_Shift_2
Note_On_32_Vel_103
Time_Shift_1
Note_On_66_Vel_95
Time_Shift_5
Sustain_Off
Time_Shift_30
Note_On_45_Vel_0
Time_Shift_8
Note_On_57_Vel_0
Time_Shift_23
Note_On_69_Vel_0
Sustain_On
Time_Shift_438
Note_On_32_Vel_0
Time_Shift_3
Note_On_68_Vel_0
Time_Shift_1
Note_On_66_Vel_0
Note_On_60_Vel_0
Sustain_Off
Time_Shift_1
Note_On_56_Vel_0
Time_Shift_10
Note_On_44_Vel_0
Time_Shift_52
Note_On_57_Vel_89
Time_Shift_2
Note_On_45_Vel_84
Time_Shift_1
Note_On_81_Vel_88
Time_Shift_2
Note_On_69_Vel_80
Time_Shift_39
Note_On_57_Vel_0
Time_Shift_1
Note_On_69_Vel_0
Time_Shift_2
Note_On_81_Vel_0
Time_Shift_2
Note_On_45_Vel_0
Time_Shift_45
Sustain_On
Time_Shift_17
Note_On_81_Vel_97
Time_Shift_1
Note_On_57_Vel_99
Time_Shift_1
Note_On_45_Vel_88
Note_On_69_Vel_97
Time_Shift_96
Note_On_57_Vel_0
Note_On_69_Vel_0
Note_On_81_Vel_0
Time_Shift_8
Note_On_45_Vel_0
Time_Shift_3
Note_On_81_Vel_96
Time_Shift_1
Note_On_57_Vel_93
Note_On_69_Vel_97
Note_On_45_Vel_86
Time_Shift_103
Note_On_45_Vel_0
Note_On_57_Vel_0
Note_On_69_Vel_0
Note_On_81_Vel_0
Time_Shift_5
Note_On_57_Vel_102
Time_Shift_1
Note_On_81_Vel_99
Time_Shift_1
Note_On_45_Vel_91
Time_Shift_2
Note_On_69_Vel_101
Time_Shift_168
Note_On_73_Vel_111
Note_On_85_Vel_103
Time_Shift_3
Note_On_61_Vel_108
Note_On_49_Vel_107
Time_Shift_34
Sustain_Off
Time_Shift_6
Note_On_57_Vel_0
Time_Shift_2
Note_On_69_Vel_0
Time_Shift_3
Note_On_45_Vel_0
Note_On_81_Vel_0
Note_On_49_Vel_0
Time_Shift_1
Note_On_61_Vel_0
Time_Shift_51
Sustain_On
Time_Shift_84
Note_On_85_Vel_0
Time_Shift_174
Note_On_81_Vel_99
Note_On_69_Vel_104
Time_Shift_5
Note_On_57_Vel_104
Time_Shift_4
Note_On_45_Vel_93
Time_Shift_345
Note_On_56_Vel_89
Time_Shift_1
Note_On_68_Vel_90
Time_Shift_2
Note_On_80_Vel_83
Time_Shift_2
Note_On_44_Vel_86
Time_Shift_29
Note_On_69_Vel_0
Time_Shift_1
Note_On_68_Vel_0
Time_Shift_1
Note_On_57_Vel_0
Time_Shift_2
Note_On_56_Vel_0
Note_On_45_Vel_0
Note_On_81_Vel_0
Time_Shift_1
Note_On_44_Vel_0
Time_Shift_2
Note_On_73_Vel_0
Time_Shift_2
Note_On_80_Vel_0
Sustain_Off
Time_Shift_65
Note_On_54_Vel_84
Note_On_42_Vel_90
Note_On_78_Vel_85
Time_Shift_2
Note_On_66_Vel_84
Time_Shift_25
Note_On_54_Vel_0
Time_Shift_3
Note_On_66_Vel_0
Time_Shift_1
Note_On_42_Vel_0
Time_Shift_1
Note_On_78_Vel_0
Time_Shift_71
Note_On_52_Vel_86
Time_Shift_2
Note_On_64_Vel_82
Time_Shift_1
Note_On_40_Vel_90
Note_On_76_Vel_80
Time_Shift_28
Note_On_52_Vel_0
Time_Shift_2
Note_On_64_Vel_0
Time_Shift_3
Note_On_40_Vel_0
Time_Shift_8
Note_On_76_Vel_0
Time_Shift_75
Note_On_81_Vel_91
Time_Shift_1
Note_On_57_Vel_90
Time_Shift_2
Note_On_69_Vel_86
Time_Shift_2
Note_On_45_Vel_82
Time_Shift_24
Note_On_69_Vel_0
Time_Shift_1
Note_On_57_Vel_0
Note_On_81_Vel_0
Time_Shift_6
Note_On_45_Vel_0
Time_Shift_67
Note_On_56_Vel_93
Time_Shift_1
Note_On_80_Vel_87
Note_On_44_Vel_89
Time_Shift_1
Note_On_68_Vel_87
Time_Shift_25
Note_On_56_Vel_0
Time_Shift_4
Note_On_68_Vel_0
Time_Shift_3
Note_On_44_Vel_0
Note_On_80_Vel_0
Time_Shift_65
Note_On_55_Vel_92
Time_Shift_3
Note_On_43_Vel_86
Time_Shift_2
Note_On_79_Vel_82
Time_Shift_2
Note_On_67_Vel_79
Time_Shift_33
Note_On_55_Vel_0
Time_Shift_3
Note_On_43_Vel_0
Time_Shift_4
Note_On_67_Vel_0
Time_Shift_30
Note_On_79_Vel_0
Time_Shift_33
Note_On_56_Vel_103
Time_Shift_1
Note_On_44_Vel_99
Time_Shift_1
Note_On_80_Vel_98
Note_On_68_Vel_94
Time_Shift_26
Note_On_56_Vel_0
Time_Shift_5
Note_On_44_Vel_0
Time_Shift_5
Note_On_80_Vel_0
Time_Shift_13
Note_On_68_Vel_0
Time_Shift_57
Note_On_78_Vel_92
Time_Shift_1
Note_On_54_Vel_90
Note_On_42_Vel_94
Note_On_66_Vel_85
Time_Shift_32
Note_On_66_Vel_0
Time_Shift_4
Note_On_78_Vel_0
Time_Shift_3
Note_On_54_Vel_0
Time_Shift_1
Note_On_42_Vel_0
Time_Shift_65
Note_On_52_Vel_83
Time_Shift_1
Note_On_76_Vel_88
Time_Shift_1
Note_On_40_Vel_92
Note_On_64_Vel_81
Time_Shift_25
Note_On_52_Vel_0
Note_On_64_Vel_0
Time_Shift_4
Note_On_40_Vel_0
Time_Shift_1
Note_On_76_Vel_0
Time_Shift_80
Note_On_57_Vel_90
Note_On_81_Vel_92
Time_Shift_3
Note_On_69_Vel_87
Note_On_45_Vel_83
Time_Shift_20
Note_On_69_Vel_0
Time_Shift_3
Note_On_81_Vel_0
Note_On_57_Vel_0
Time_Shift_3
Note_On_45_Vel_0
Time_Shift_71
Note_On_80_Vel_94
Time_Shift_1
Note_On_56_Vel_95
Note_On_68_Vel_86
Time_Shift_2
Note_On_44_Vel_90
Time_Shift_29
Note_On_56_Vel_0
Note_On_68_Vel_0
Time_Shift_6
Note_On_44_Vel_0
Time_Shift_3
Note_On_80_Vel_0
Time_Shift_59
Note_On_79_Vel_94
Time_Shift_5
Note_On_67_Vel_78
Note_On_55_Vel_87
Note_On_43_Vel_82
Time_Shift_29
Note_On_79_Vel_0
Time_Shift_1
Note_On_55_Vel_0
Time_Shift_5
Note_On_43_Vel_0
Time_Shift_15
Note_On_67_Vel_0
Time_Shift_45
Note_On_68_Vel_103
Note_On_80_Vel_103
Time_Shift_3
Note_On_56_Vel_107
Time_Shift_1
Note_On_44_Vel_99
Time_Shift_51
Sustain_On
Time_Shift_46
Note_On_56_Vel_0
Time_Shift_5
Note_On_68_Vel_0
Time_Shift_3
Note_On_80_Vel_0
Time_Shift_3
Sustain_Off
Time_Shift_5
Note_On_44_Vel_0
Time_Shift_39
Note_On_52_Vel_85
Time_Shift_3
Note_On_40_Vel_79
Note_On_76_Vel_86
Note_On_64_Vel_80
Time_Shift_30
Note_On_52_Vel_0
Time_Shift_1
Note_On_76_Vel_0
Time_Shift_1
Note_On_40_Vel_0
Time_Shift_25
Note_On_64_Vel_0
Time_Shift_36
Note_On_51_Vel_99
Time_Shift_1
Note_On_39_Vel_92
Time_Shift_1
Note_On_75_Vel_92
Time_Shift_2
Note_On_63_Vel_90
Time_Shift_35
Note_On_51_Vel_0
Time_Shift_3
Note_On_39_Vel_0
Time_Shift_2
Note_On_63_Vel_0
Time_Shift_28
Note_On_75_Vel_0
Time_Shift_34
Note_On_73_Vel_88
Time_Shift_1
Note_On_61_Vel_85
Note_On_49_Vel_90
Time_Shift_2
Note_On_37_Vel_95
Time_Shift_33
Note_On_49_Vel_0
Time_Shift_1
Note_On_61_Vel_0
Time_Shift_1
Note_On_37_Vel_0
Note_On_73_Vel_0
Time_Shift_71
Note_On_47_Vel_84
Time_Shift_1
Note_On_35_Vel_83
Time_Shift_2
Note_On_71_Vel_82
Note_On_59_Vel_83
Time_Shift_28
Note_On_59_Vel_0
Time_Shift_1
Note_On_47_Vel_0
Time_Shift_32
Note_On_35_Vel_0
Note_On_71_Vel_0
Time_Shift_42
Note_On_69_Vel_86
Time_Shift_2
Note_On_57_Vel_80
Note_On_45_Vel_75
Note_On_33_Vel_76
Time_Shift_30
Note_On_69_Vel_0
Note_On_57_Vel_0
Time_Shift_14
Note_On_33_Vel_0
Time_Shift_20
Note_On_45_Vel_0
Time_Shift_46
Note_On_68_Vel_91
Time_Shift_3
Note_On_56_Vel_87
Time_Shift_11
Note_On_44_Vel_82
Time_Shift_4
Note_On_32_Vel_80
Time_Shift_381
Sustain_On
Time_Shift_331
Note_On_56_Vel_0
Time_Shift_8
Note_On_56_Vel_78
Time_Shift_433
Note_On_64_Vel_90
Time_Shift_15
Note_On_61_Vel_71
Time_Shift_14
Sustain_Off
Time_Shift_18
Note_On_56_Vel_0
Time_Shift_2
Note_On_68_Vel_0
Time_Shift_24
Note_On_32_Vel_0
Time_Shift_92
Sustain_On
Time_Shift_23
Note_On_64_Vel_0
Time_Shift_5
Note_On_64_Vel_39
Time_Shift_129
Note_On_58_Vel_67
Time_Shift_94
Note_On_58_Vel_0
Time_Shift_1
Note_On_64_Vel_0
Note_On_61_Vel_0
Time_Shift_7
Sustain_Off
Time_Shift_7
Note_On_63_Vel_92
Time_Shift_3
Note_On_44_Vel_0
Time_Shift_4
Note_On_60_Vel_67
Time_Shift_3
Note_On_44_Vel_74
Time_Shift_3
Note_On_32_Vel_64
Time_Shift_32
Note_On_60_Vel_0
Time_Shift_43
Note_On_32_Vel_0
Time_Shift_7
Sustain_On
Time_Shift_26
Note_On_58_Vel_77
Time_Shift_97
Note_On_44_Vel_0
Time_Shift_11
Note_On_44_Vel_65
Note_On_56_Vel_75
Time_Shift_93
Note_On_58_Vel_0
Note_On_56_Vel_0
Time_Shift_1
Note_On_44_Vel_0
Time_Shift_1
Note_On_63_Vel_0
Time_Shift_2
Sustain_Off
Time_Shift_28
Note_On_64_Vel_85
Time_Shift_4
Note_On_61_Vel_81
Time_Shift_5
Note_On_55_Vel_82
Time_Shift_61
Note_On_61_Vel_0
Time_Shift_40
Note_On_60_Vel_77
Time_Shift_15
Sustain_On
Time_Shift_95
Note_On_58_Vel_79
Time_Shift_94
Note_On_72_Vel_65
Note_On_63_Vel_78
Time_Shift_15
Note_On_68_Vel_67
Time_Shift_11
Note_On_56_Vel_75
Time_Shift_2
Note_On_44_Vel_73
Time_Shift_98
Note_On_44_Vel_0
Note_On_56_Vel_0
Time_Shift_5
Note_On_44_Vel_79
Time_Shift_6
Note_On_56_Vel_76
Time_Shift_4
Note_On_68_Vel_0
Time_Shift_6
Note_On_68_Vel_73
Time_Shift_1
Note_On_80_Vel_90
Time_Shift_39
Note_On_58_Vel_0
Time_Shift_3
Note_On_63_Vel_0
Note_On_60_Vel_0
Note_On_68_Vel_0
Note_On_44_Vel_0
Time_Shift_1
Note_On_56_Vel_0
Time_Shift_3
Note_On_80_Vel_0
Time_Shift_1
Note_On_55_Vel_0
Note_On_64_Vel_0
Note_On_72_Vel_0
Time_Shift_4
Sustain_Off
Time_Shift_42
Note_On_57_Vel_90
Time_Shift_4
Note_On_69_Vel_87
Note_On_45_Vel_79
Note_On_81_Vel_88
Time_Shift_24
Note_On_57_Vel_0
Time_Shift_3
Note_On_81_Vel_0
Time_Shift_4
Note_On_45_Vel_0
Note_On_75_Vel_53
Time_Shift_11
Note_On_69_Vel_0
Note_On_75_Vel_0
Time_Shift_67
Note_On_53_Vel_89
Note_On_41_Vel_81
Time_Shift_4
Note_On_65_Vel_81
Time_Shift_21
Note_On_53_Vel_0
Time_Shift_24
Note_On_65_Vel_0
Time_Shift_7
Note_On_41_Vel_0
Time_Shift_37
Note_On_42_Vel_96
Time_Shift_1
Note_On_54_Vel_96
Time_Shift_1
Sustain_On
Time_Shift_3
Note_On_66_Vel_88
Time_Shift_124
Note_On_88_Vel_105
Note_On_64_Vel_102
Note_On_76_Vel_108
Time_Shift_3
Note_On_42_Vel_0
Time_Shift_1
Note_On_52_Vel_93
Time_Shift_1
Note_On_54_Vel_0
Time_Shift_12
Sustain_Off
Time_Shift_6
Note_On_64_Vel_0
Time_Shift_3
Note_On_76_Vel_0
Note_On_66_Vel_0
Time_Shift_2
Note_On_88_Vel_0
Time_Shift_21
Note_On_52_Vel_0
Time_Shift_48
Note_On_73_Vel_113
Note_On_61_Vel_111
Time_Shift_1
Note_On_85_Vel_105
Time_Shift_1
Note_On_49_Vel_103
Time_Shift_19
Sustain_On
Time_Shift_344
Note_On_69_Vel_105
Time_Shift_2
Note_On_81_Vel_99
Note_On_57_Vel_104
Time_Shift_6
Note_On_45_Vel_89
Time_Shift_34
Note_On_85_Vel_0
Time_Shift_6
Note_On_61_Vel_0
Time_Shift_306
Note_On_68_Vel_87
Time_Shift_3
Note_On_56_Vel_81
Time_Shift_1
Note_On_80_Vel_81
Time_Shift_1
Note_On_44_Vel_82
Time_Shift_4
Note_On_73_Vel_0
Time_Shift_6
Note_On_57_Vel_0
Time_Shift_2
Note_On_49_Vel_0
Time_Shift_9
Note_On_81_Vel_0
Sustain_Off
Time_Shift_1
Note_On_69_Vel_0
Time_Shift_8
Note_On_80_Vel_0
Time_Shift_5
Note_On_45_Vel_0
Time_Shift_7
Note_On_56_Vel_0
Note_On_68_Vel_0
Time_Shift_8
Note_On_44_Vel_0
Time_Shift_58
Note_On_78_Vel_85
Time_Shift_1
Note_On_42_Vel_84
Time_Shift_1
Note_On_54_Vel_77
Note_On_66_Vel_78
Time_Shift_22
Note_On_78_Vel_0
Time_Shift_1
Note_On_54_Vel_0
Time_Shift_25
Note_On_66_Vel_0
Time_Shift_7
Note_On_42_Vel_0
Time_Shift_43
Note_On_52_Vel_80
Time_Shift_1
Note_On_40_Vel_88
Time_Shift_2
Note_On_76_Vel_87
Time_Shift_1
Note_On_64_Vel_82
Time_Shift_23
Note_On_64_Vel_0
Note_On_52_Vel_0
Time_Shift_3
Note_On_40_Vel_0
Time_Shift_2
Note_On_76_Vel_0
Time_Shift_83
Note_On_57_Vel_89
Note_On_45_Vel_83
Time_Shift_2
Note_On_81_Vel_91
Time_Shift_3
Note_On_69_Vel_82
Time_Shift_22
Note_On_69_Vel_0
Time_Shift_1
Note_On_57_Vel_0
Time_Shift_3
Note_On_81_Vel_0
Time_Shift_3
Note_On_45_Vel_0
Time_Shift_68
Note_On_56_Vel_91
Note_On_44_Vel_88
Time_Shift_3
Note_On_80_Vel_89
Note_On_68_Vel_86
Time_Shift_25
Note_On_68_Vel_0
Time_Shift_1
Note_On_56_Vel_0
Time_Shift_1
Note_On_80_Vel_0
Time_Shift_6
Note_On_44_Vel_0
Time_Shift_70
Note_On_43_Vel_84
Note_On_55_Vel_90
Time_Shift_3
Note_On_79_Vel_84
Time_Shift_3
Note_On_67_Vel_78
Time_Shift_23
Note_On_55_Vel_0
Time_Shift_1
Note_On_79_Vel_0
Time_Shift_1
Note_On_43_Vel_0
Time_Shift_5
Note_On_67_Vel_0
Time_Shift_70
Note_On_44_Vel_98
Note_On_56_Vel_103
Note_On_68_Vel_93
Time_Shift_2
Note_On_80_Vel_93
Time_Shift_30
Note_On_56_Vel_0
Time_Shift_4
Note_On_68_Vel_0
Time_Shift_2
Note_On_44_Vel_0
Time_Shift_3
Note_On_80_Vel_0
Time_Shift_66
Note_On_78_Vel_92
Time_Shift_1
Note_On_54_Vel_86
Note_On_66_Vel_88
Note_On_42_Vel_95
Time_Shift_38
Note_On_66_Vel_0
Time_Shift_1
Note_On_78_Vel_0
Note_On_54_Vel_0
Time_Shift_3
Note_On_42_Vel_0
Time_Shift_61
Note_On_64_Vel_83
Time_Shift_2
Note_On_76_Vel_89
Time_Shift_2
Note_On_40_Vel_90
Time_Shift_1
Note_On_52_Vel_77
Time_Shift_23
Note_On_64_Vel_0
Time_Shift_1
Note_On_76_Vel_0
Time_Shift_5
Note_On_40_Vel_0
Time_Shift_28
Note_On_52_Vel_0
Time_Shift_57
Note_On_57_Vel_96
Note_On_81_Vel_96
Note_On_69_Vel_95
Time_Shift_2
Note_On_45_Vel_85
Time_Shift_23
Note_On_69_Vel_0
Time_Shift_4
Note_On_57_Vel_0
Time_Shift_2
Note_On_81_Vel_0
Time_Shift_6
Note_On_45_Vel_0
Time_Shift_67
Note_On_80_Vel_96
Time_Shift_2
Note_On_56_Vel_94
Note_On_44_Vel_88
Time_Shift_1
Note_On_68_Vel_93
Time_Shift_26
Note_On_56_Vel_0
Note_On_68_Vel_0
Time_Shift_4
Note_On_80_Vel_0
Time_Shift_4
Note_On_44_Vel_0
Time_Shift_67
Note_On_55_Vel_96
Note_On_43_Vel_87
Time_Shift_1
Note_On_67_Vel_82
Time_Shift_1
Note_On_79_Vel_84
Time_Shift_30
Note_On_55_Vel_0
Note_On_67_Vel_0
Time_Shift_4
Note_On_43_Vel_0
Note_On_79_Vel_0
Time_Shift_71
Note_On_56_Vel_104
Note_On_44_Vel_103
Note_On_68_Vel_99
Time_Shift_1
Note_On_80_Vel_103
Time_Shift_50
Sustain_On
Time_Shift_32
Sustain_Off
Time_Shift_2
Note_On_44_Vel_0
Time_Shift_19
Note_On_56_Vel_0
Time_Shift_51
Note_On_52_Vel_80
Time_Shift_3
Note_On_68_Vel_0
Time_Shift_2
Note_On_40_Vel_84
Time_Shift_1
Note_On_64_Vel_71
Time_Shift_1
Note_On_76_Vel_84
Time_Shift_4
Note_On_68_Vel_75
Time_Shift_20
Note_On_40_Vel_0
Note_On_76_Vel_0
Time_Shift_11
Note_On_80_Vel_0
Time_Shift_7
Note_On_52_Vel_0
Time_Shift_8
Note_On_64_Vel_0
Time_Shift_15
Note_On_68_Vel_0
Time_Shift_31
Note_On_51_Vel_92
Time_Shift_1
Note_On_39_Vel_89
Note_On_75_Vel_93
Time_Shift_2
Note_On_63_Vel_86
Time_Shift_28
Note_On_51_Vel_0
Time_Shift_2
Note_On_39_Vel_0
Time_Shift_2
Note_On_75_Vel_0
Time_Shift_26
Note_On_63_Vel_0
Time_Shift_49
Note_On_73_Vel_88
Note_On_61_Vel_84
Note_On_49_Vel_86
Time_Shift_1
Note_On_37_Vel_92
Time_Shift_31
Note_On_49_Vel_0
Time_Shift_1
Note_On_73_Vel_0
Time_Shift_1
Note_On_61_Vel_0
Time_Shift_4
Note_On_37_Vel_0
Time_Shift_70
Note_On_47_Vel_79
Time_Shift_1
Note_On_35_Vel_82
Note_On_71_Vel_85
Note_On_59_Vel_85
Time_Shift_30
Note_On_47_Vel_0
Time_Shift_4
Note_On_35_Vel_0
Time_Shift_16
Note_On_59_Vel_0
Note_On_71_Vel_0
Time_Shift_57
Note_On_69_Vel_89
Time_Shift_1
Note_On_57_Vel_84
Time_Shift_2
Note_On_45_Vel_78
Time_Shift_3
Note_On_33_Vel_82
Time_Shift_25
Note_On_69_Vel_0
Time_Shift_27
Note_On_45_Vel_0
Note_On_57_Vel_0
Time_Shift_8
Note_On_33_Vel_0
Time_Shift_51
Note_On_56_Vel_91
Time_Shift_2
Note_On_68_Vel_90
Time_Shift_3
Note_On_44_Vel_82
Note_On_32_Vel_76
Time_Shift_343
Sustain_On
Time_Shift_393
Note_On_32_Vel_0
Time_Shift_6
Note_On_44_Vel_0
Time_Shift_3
Sustain_Off
Time_Shift_16
Note_On_59_Vel_66
Time_Shift_7
Note_On_40_Vel_59
Time_Shift_9
Note_On_28_Vel_57
Time_Shift_104
Sustain_On
Time_Shift_253
Note_On_28_Vel_0
Time_Shift_17
Note_On_40_Vel_0
Time_Shift_2
Note_On_59_Vel_0
Sustain_Off
Time_Shift_4
Note_On_56_Vel_0
Time_Shift_3
Note_On_64_Vel_64
Time_Shift_8
Note_On_57_Vel_63
Note_On_61_Vel_66
Time_Shift_4
Note_On_68_Vel_0
Time_Shift_4
Note_On_45_Vel_53
Note_On_33_Vel_48
Time_Shift_96
Sustain_On
Time_Shift_254
Note_On_33_Vel_0
Time_Shift_17
Note_On_57_Vel_0
Note_On_45_Vel_0
Time_Shift_2
Note_On_64_Vel_0
Note_On_68_Vel_74
Sustain_Off
Note_On_61_Vel_0
Time_Shift_3
Note_On_59_Vel_62
Time_Shift_5
Note_On_56_Vel_60
Time_Shift_7
Note_On_40_Vel_49
Time_Shift_2
Note_On_28_Vel_53
Time_Shift_10
Note_On_28_Vel_0
Time_Shift_69
Sustain_On
Time_Shift_19
Note_On_66_Vel_70
Time_Shift_90
Note_On_64_Vel_67
Time_Shift_110
Note_On_66_Vel_0
Note_On_59_Vel_0
Note_On_68_Vel_0
Time_Shift_1
Sustain_Off
Time_Shift_1
Note_On_56_Vel_0
Time_Shift_9
Note_On_64_Vel_0
Time_Shift_11
Note_On_64_Vel_77
Time_Shift_1
Note_On_61_Vel_75
Time_Shift_5
Note_On_45_Vel_52
Time_Shift_1
Note_On_33_Vel_45
Time_Shift_1
Note_On_52_Vel_48
Time_Shift_4
Note_On_33_Vel_0
Time_Shift_100
Sustain_On
Time_Shift_2
Note_On_59_Vel_76
Time_Shift_119
Note_On_57_Vel_73
Time_Shift_121
Note_On_59_Vel_0
Time_Shift_1
Note_On_52_Vel_0
Time_Shift_2
Sustain_Off
Note_On_61_Vel_0
Note_On_64_Vel_0
Time_Shift_39
Note_On_40_Vel_0
Time_Shift_10
Note_On_66_Vel_68
Time_Shift_2
Note_On_51_Vel_46
Note_On_59_Vel_46
Time_Shift_2
Note_On_47_Vel_41
Time_Shift_1
Note_On_39_Vel_39
Time_Shift_147
Sustain_On
Time_Shift_380
Note_On_66_Vel_0
Time_Shift_1
Note_On_47_Vel_0
Note_On_51_Vel_0
Time_Shift_2
Note_On_57_Vel_0
Time_Shift_3
Note_On_64_Vel_45
Time_Shift_2
Sustain_Off
Note_On_56_Vel_47
Time_Shift_4
Note_On_52_Vel_41
Note_On_40_Vel_37
Time_Shift_7
Note_On_45_Vel_0
Time_Shift_8
Note_On_39_Vel_0
Time_Shift_46
Note_On_59_Vel_0
Time_Shift_138
Sustain_On
Time_Shift_342
Sustain_Off
Time_Shift_2
Note_On_52_Vel_0
Time_Shift_1
Note_On_56_Vel_0
Note_On_64_Vel_0
Note_On_40_Vel_0
Time_Shift_59
Note_On_54_Vel_75
Time_Shift_32
Note_On_54_Vel_0
Time_Shift_77
Note_On_56_Vel_69
Time_Shift_36
Note_On_56_Vel_0
Time_Shift_69
Note_On_52_Vel_70
Time_Shift_39
Note_On_52_Vel_0
Time_Shift_79
Note_On_51_Vel_63
Time_Shift_36
Note_On_51_Vel_0
Time_Shift_69
Note_On_52_Vel_59
Time_Shift_39
Note_On_52_Vel_0
Time_Shift_70
Note_On_49_Vel_68
Time_Shift_41
Note_On_49_Vel_0
Time_Shift_72
Note_On_68_Vel_79
Note_On_48_Vel_64
Note_On_63_Vel_78
Time_Shift_1
Note_On_56_Vel_71
Time_Shift_37
Note_On_48_Vel_0
Time_Shift_79
Note_On_46_Vel_62
Time_Shift_42
Note_On_46_Vel_0
Time_Shift_53
Note_On_56_Vel_0
Time_Shift_4
Note_On_63_Vel_0
Note_On_68_Vel_0
Time_Shift_9
Note_On_44_Vel_62
Time_Shift_49
Note_On_44_Vel_0
Time_Shift_57
Note_On_52_Vel_73
Note_On_67_Vel_75
Time_Shift_2
Note_On_58_Vel_76
Time_Shift_52
Note_On_52_Vel_0
Time_Shift_66
Note_On_51_Vel_66
Time_Shift_40
Note_On_51_Vel_0
Time_Shift_1
Note_On_67_Vel_0
Time_Shift_71
Note_On_49_Vel_67
Time_Shift_4
Note_On_64_Vel_69
Time_Shift_33
Note_On_49_Vel_0
Time_Shift_1
Note_On_58_Vel_0
Time_Shift_26
Note_On_64_Vel_0
Time_Shift_49
Note_On_68_Vel_93
Time_Shift_2
Note_On_48_Vel_71
Note_On_56_Vel_80
Time_Shift_2
Note_On_63_Vel_78
Time_Shift_42
Note_On_48_Vel_0
Time_Shift_70
Note_On_46_Vel_64
Time_Shift_44
Note_On_46_Vel_0
Time_Shift_64
Note_On_44_Vel_82
Time_Shift_8
Note_On_56_Vel_0
Time_Shift_6
Note_On_63_Vel_0
Time_Shift_9
Note_On_68_Vel_0
Time_Shift_14
Note_On_44_Vel_0
Time_Shift_91
Note_On_52_Vel_71
Time_Shift_2
Note_On_58_Vel_81
Note_On_67_Vel_76
Time_Shift_32
Note_On_52_Vel_0
Time_Shift_9
Note_On_58_Vel_0
Time_Shift_4
Note_On_67_Vel_0
Time_Shift_62
Note_On_66_Vel_82
Time_Shift_9
Note_On_51_Vel_63
Time_Shift_37
Note_On_66_Vel_0
Time_Shift_1
Note_On_51_Vel_0
Time_Shift_46
Note_On_64_Vel_73
Time_Shift_10
Note_On_49_Vel_78
Time_Shift_35
Note_On_64_Vel_0
Time_Shift_1
Note_On_49_Vel_0
Time_Shift_70
Note_On_68_Vel_94
Time_Shift_1
Note_On_63_Vel_88
Time_Shift_5
Note_On_56_Vel_84
Time_Shift_1
Note_On_48_Vel_73
Time_Shift_46
Note_On_48_Vel_0
Time_Shift_69
Note_On_46_Vel_72
Time_Shift_43
Note_On_46_Vel_0
Time_Shift_10
Note_On_63_Vel_0
Time_Shift_55
Note_On_44_Vel_78
Time_Shift_41
Note_On_44_Vel_0
Time_Shift_88
Note_On_64_Vel_72
Note_On_49_Vel_75
Time_Shift_1
Note_On_61_Vel_76
Time_Shift_21
Note_On_68_Vel_0
Time_Shift_9
Note_On_61_Vel_0
Note_On_49_Vel_0
Time_Shift_12
Note_On_56_Vel_0
Time_Shift_15
Note_On_64_Vel_0
Time_Shift_55
Note_On_51_Vel_67
Time_Shift_30
Note_On_51_Vel_0
Time_Shift_83
Note_On_61_Vel_88
Time_Shift_5
Note_On_52_Vel_68
Time_Shift_29
Note_On_52_Vel_0
Time_Shift_13
Note_On_61_Vel_0
Time_Shift_65
Note_On_57_Vel_94
Note_On_69_Vel_97
Time_Shift_1
Note_On_60_Vel_88
Time_Shift_6
Note_On_54_Vel_80
Time_Shift_36
Note_On_54_Vel_0
Time_Shift_73
Note_On_56_Vel_79
Time_Shift_11
Note_On_57_Vel_0
Time_Shift_8
Note_On_57_Vel_65
Time_Shift_100
Note_On_56_Vel_0
Time_Shift_2
Note_On_54_Vel_70
Time_Shift_24
Note_On_57_Vel_0
Time_Shift_5
Note_On_60_Vel_0
Time_Shift_15
Note_On_54_Vel_0
Note_On_69_Vel_0
Time_Shift_81
Note_On_52_Vel_60
Time_Shift_1
Note_On_68_Vel_80
Time_Shift_3
Note_On_56_Vel_74
Time_Shift_1
Note_On_61_Vel_76
Time_Shift_32
Note_On_52_Vel_0
Time_Shift_82
Note_On_51_Vel_69
Time_Shift_35
Note_On_51_Vel_0
Time_Shift_73
Note_On_49_Vel_68
Time_Shift_39
Note_On_49_Vel_0
Time_Shift_75
Note_On_56_Vel_0
Note_On_68_Vel_0
Time_Shift_2
Note_On_63_Vel_69
Time_Shift_1
Note_On_48_Vel_63
Time_Shift_2
Note_On_68_Vel_64
Time_Shift_1
Note_On_60_Vel_47
Time_Shift_2
Note_On_56_Vel_58
Time_Shift_16
Note_On_61_Vel_0
Time_Shift_26
Note_On_48_Vel_0
Time_Shift_73
Note_On_46_Vel_66
Time_Shift_15
Note_On_49_Vel_46
Time_Shift_22
Note_On_46_Vel_0
Time_Shift_25
Note_On_49_Vel_0
Time_Shift_30
Note_On_56_Vel_0
Time_Shift_5
Note_On_44_Vel_74
Time_Shift_3
Note_On_56_Vel_65
Time_Shift_33
Note_On_63_Vel_0
Time_Shift_2
Note_On_44_Vel_0
Time_Shift_26
Note_On_56_Vel_0
Time_Shift_8
Note_On_60_Vel_0
Note_On_68_Vel_0
Time_Shift_42
Note_On_52_Vel_76
Time_Shift_9
Note_On_40_Vel_72
Time_Shift_2
Note_On_58_Vel_84
Time_Shift_4
Note_On_67_Vel_72
Time_Shift_21
Note_On_52_Vel_0
Time_Shift_2
Note_On_40_Vel_0
Time_Shift_82
Note_On_39_Vel_74
Time_Shift_1
Note_On_51_Vel_71
Time_Shift_44
Note_On_67_Vel_0
Time_Shift_4
Note_On_39_Vel_0
Time_Shift_30
Note_On_58_Vel_0
Time_Shift_20
Note_On_51_Vel_0
Time_Shift_17
Note_On_64_Vel_68
Time_Shift_2
Note_On_61_Vel_61
Time_Shift_2
Note_On_49_Vel_67
Time_Shift_1
Note_On_37_Vel_76
Time_Shift_25
Note_On_64_Vel_0
Time_Shift_1
Note_On_61_Vel_0
Time_Shift_21
Note_On_37_Vel_0
Note_On_49_Vel_0
Time_Shift_51
Note_On_68_Vel_94
Time_Shift_1
Note_On_48_Vel_78
Time_Shift_3
Note_On_63_Vel_88
Time_Shift_1
Note_On_36_Vel_75
Time_Shift_1
Note_On_56_Vel_85
Time_Shift_31
Note_On_48_Vel_0
Time_Shift_4
Note_On_36_Vel_0
Time_Shift_67
Note_On_46_Vel_75
Note_On_34_Vel_79
Time_Shift_37
Note_On_34_Vel_0
Note_On_46_Vel_0
Time_Shift_71
Note_On_32_Vel_82
Note_On_44_Vel_76
Time_Shift_30
Note_On_63_Vel_0
Time_Shift_11
Note_On_56_Vel_0
Time_Shift_15
Note_On_68_Vel_0
Time_Shift_8
Note_On_32_Vel_0
Note_On_44_Vel_0
Time_Shift_65
Note_On_67_Vel_83
Time_Shift_3
Note_On_58_Vel_82
Time_Shift_2
Note_On_40_Vel_81
Time_Shift_3
Note_On_65_Vel_62
Time_Shift_2
Note_On_52_Vel_73
Time_Shift_1
Note_On_53_Vel_74
Time_Shift_26
Note_On_40_Vel_0
Time_Shift_2
Note_On_53_Vel_0
Time_Shift_11
Note_On_52_Vel_0
Time_Shift_15
Note_On_65_Vel_0
Time_Shift_50
Note_On_51_Vel_82
Time_Shift_1
Note_On_39_Vel_81
Time_Shift_57
Note_On_67_Vel_0
Note_On_54_Vel_36
Time_Shift_4
Note_On_66_Vel_74
Time_Shift_3
Note_On_51_Vel_0
Note_On_54_Vel_0
Time_Shift_23
Note_On_39_Vel_0
Time_Shift_21
Note_On_61_Vel_69
Note_On_64_Vel_67
Note_On_56_Vel_71
Time_Shift_1
Note_On_37_Vel_85
Note_On_49_Vel_80
Time_Shift_9
Note_On_56_Vel_0
Time_Shift_16
Note_On_66_Vel_0
Time_Shift_15
Note_On_58_Vel_0
Time_Shift_2
Note_On_37_Vel_0
Note_On_61_Vel_0
Time_Shift_1
Note_On_49_Vel_0
Time_Shift_8
Note_On_64_Vel_0
Time_Shift_52
Note_On_48_Vel_91
Time_Shift_2
Note_On_36_Vel_85
Time_Shift_1
Note_On_68_Vel_91
Time_Shift_2
Note_On_56_Vel_86
Note_On_63_Vel_88
Time_Shift_2
Note_On_66_Vel_78
Time_Shift_7
Note_On_66_Vel_0
Time_Shift_31
Note_On_48_Vel_0
Time_Shift_2
Note_On_36_Vel_0
Time_Shift_64
Note_On_46_Vel_89
Time_Shift_2
Note_On_34_Vel_90
Time_Shift_36
Note_On_46_Vel_0
Time_Shift_2
Note_On_34_Vel_0
Time_Shift_32
Note_On_56_Vel_0
Time_Shift_38
Note_On_56_Vel_87
Time_Shift_1
Note_On_44_Vel_87
Note_On_32_Vel_90
Time_Shift_25
Note_On_63_Vel_0
Time_Shift_5
Note_On_32_Vel_0
Time_Shift_15
Note_On_56_Vel_0
Time_Shift_8
Note_On_44_Vel_0
Time_Shift_23
Note_On_68_Vel_0
Time_Shift_34
Note_On_61_Vel_94
Time_Shift_1
Note_On_37_Vel_101
Note_On_49_Vel_100
Time_Shift_36
Note_On_37_Vel_0
Time_Shift_2
Note_On_49_Vel_0
Time_Shift_8
Note_On_61_Vel_0
Time_Shift_69
Note_On_51_Vel_91
Note_On_39_Vel_89
Time_Shift_41
Note_On_51_Vel_0
Time_Shift_21
Note_On_61_Vel_96
Time_Shift_18
Note_On_39_Vel_0
Time_Shift_31
Note_On_61_Vel_0
Time_Shift_7
Note_On_52_Vel_88
Time_Shift_3
Note_On_40_Vel_82
Time_Shift_1
Note_On_61_Vel_83
Time_Shift_26
Note_On_52_Vel_0
Time_Shift_5
Note_On_40_Vel_0
Time_Shift_9
Note_On_61_Vel_0
Time_Shift_70
Note_On_60_Vel_98
Note_On_42_Vel_92
Note_On_54_Vel_92
Time_Shift_2
Note_On_57_Vel_98
Note_On_69_Vel_95
Time_Shift_30
Note_On_54_Vel_0
Time_Shift_11
Note_On_42_Vel_0
Time_Shift_68
Note_On_44_Vel_88
Time_Shift_1
Note_On_68_Vel_79
Note_On_56_Vel_90
Time_Shift_1
Note_On_32_Vel_75
Time_Shift_4
Note_On_32_Vel_0
Note_On_68_Vel_0
Time_Shift_28
Note_On_56_Vel_0
Time_Shift_6
Note_On_44_Vel_0
Time_Shift_51
Note_On_60_Vel_0
Time_Shift_15
Note_On_57_Vel_0
Time_Shift_8
Note_On_69_Vel_0
Time_Shift_5
Note_On_42_Vel_87
Time_Shift_1
Note_On_30_Vel_75
Note_On_61_Vel_71
Time_Shift_9
Note_On_30_Vel_0
Time_Shift_23
Note_On_42_Vel_0
Time_Shift_23
Note_On_61_Vel_0
Time_Shift_57
Note_On_68_Vel_77
Time_Shift_1
Note_On_56_Vel_78
Note_On_61_Vel_81
Time_Shift_3
Note_On_40_Vel_77
Time_Shift_1
Note_On_52_Vel_78
Time_Shift_27
Note_On_56_Vel_0
Time_Shift_1
Note_On_52_Vel_0
Time_Shift_1
Note_On_61_Vel_0
Time_Shift_2
Note_On_68_Vel_0
Time_Shift_3
Note_On_40_Vel_0
Time_Shift_71
Note_On_39_Vel_80
Time_Shift_5
Note_On_51_Vel_75
Time_Shift_18
Note_On_56_Vel_56
Time_Shift_15
Note_On_39_Vel_0
Time_Shift_5
Note_On_51_Vel_0
Time_Shift_10
Note_On_56_Vel_0
Time_Shift_64
Note_On_49_Vel_92
Time_Shift_1
Note_On_37_Vel_81
Time_Shift_3
Note_On_61_Vel_89
Time_Shift_28
Note_On_49_Vel_0
Time_Shift_3
Note_On_37_Vel_0
Time_Shift_27
Note_On_61_Vel_0
Time_Shift_52
Note_On_65_Vel_76
Time_Shift_3
Note_On_56_Vel_85
Time_Shift_1
Note_On_71_Vel_73
Note_On_49_Vel_70
Note_On_37_Vel_73
Time_Shift_68
Note_On_65_Vel_0
Time_Shift_29
Note_On_63_Vel_80
Time_Shift_39
Note_On_37_Vel_0
Time_Shift_11
Note_On_63_Vel_0
Time_Shift_69
Note_On_61_Vel_79
Time_Shift_5
Note_On_71_Vel_0
Time_Shift_20
Note_On_49_Vel_0
Time_Shift_4
Note_On_56_Vel_0
Time_Shift_13
Note_On_61_Vel_0
Time_Shift_86
Note_On_73_Vel_81
Time_Shift_2
Note_On_69_Vel_82
Time_Shift_6
Note_On_57_Vel_72
Time_Shift_4
Note_On_54_Vel_61
Time_Shift_24
Note_On_69_Vel_0
Time_Shift_40
Note_On_73_Vel_0
Time_Shift_43
Note_On_68_Vel_75
Time_Shift_49
Note_On_68_Vel_0
Time_Shift_21
Note_On_54_Vel_0
Time_Shift_25
Note_On_57_Vel_0
Time_Shift_10
Note_On_66_Vel_79
Time_Shift_27
Note_On_66_Vel_0
Time_Shift_86
Note_On_73_Vel_87
Time_Shift_1
Note_On_56_Vel_83
Time_Shift_2
Note_On_65_Vel_79
Time_Shift_1
Note_On_49_Vel_77
Time_Shift_3
Note_On_71_Vel_77
Time_Shift_25
Note_On_73_Vel_0
Time_Shift_3
Note_On_65_Vel_0
Note_On_56_Vel_0
Time_Shift_26
Note_On_71_Vel_0
Time_Shift_42
Note_On_63_Vel_73
Time_Shift_7
Note_On_73_Vel_67
Time_Shift_6
Note_On_57_Vel_77
Time_Shift_52
Note_On_63_Vel_0
Time_Shift_14
Note_On_57_Vel_0
Time_Shift_38
Note_On_61_Vel_75
Time_Shift_7
Note_On_59_Vel_75
Time_Shift_11
Note_On_73_Vel_0
Time_Shift_5
Note_On_61_Vel_0
Time_Shift_16
Note_On_59_Vel_0
Time_Shift_6
Note_On_49_Vel_0
Time_Shift_68
Note_On_69_Vel_93
Time_Shift_2
Note_On_73_Vel_86
Time_Shift_3
Note_On_57_Vel_86
Time_Shift_3
Note_On_54_Vel_84
Time_Shift_36
Note_On_69_Vel_0
Time_Shift_1
Note_On_73_Vel_0
Time_Shift_5
Note_On_57_Vel_0
Time_Shift_74
Note_On_68_Vel_79
Note_On_59_Vel_79
Time_Shift_1
Note_On_71_Vel_67
Time_Shift_42
Note_On_68_Vel_0
Time_Shift_3
Note_On_59_Vel_0
Time_Shift_19
Note_On_54_Vel_0
Time_Shift_8
Note_On_71_Vel_0
Time_Shift_37
Note_On_57_Vel_82
Time_Shift_1
Note_On_66_Vel_78
Time_Shift_28
Note_On_57_Vel_0
Note_On_66_Vel_0
Time_Shift_76
Note_On_73_Vel_96
Time_Shift_1
Note_On_56_Vel_96
Time_Shift_1
Note_On_65_Vel_87
Note_On_49_Vel_88
Time_Shift_6
Note_On_71_Vel_91
Time_Shift_32
Note_On_71_Vel_0
Time_Shift_1
Note_On_73_Vel_0
Time_Shift_1
Note_On_65_Vel_0
Time_Shift_9
Note_On_56_Vel_0
Time_Shift_55
Note_On_63_Vel_84
Time_Shift_7
Note_On_57_Vel_86
Time_Shift_2
Note_On_71_Vel_68
Time_Shift_40
Note_On_63_Vel_0
Time_Shift_8
Note_On_57_Vel_0
Time_Shift_2
Note_On_71_Vel_0
Time_Shift_4
Note_On_71_Vel_68
Time_Shift_1
Note_On_69_Vel_71
Time_Shift_26
Note_On_49_Vel_0
Time_Shift_23
Note_On_61_Vel_80
Time_Shift_2
Note_On_59_Vel_81
Time_Shift_32
Note_On_61_Vel_0
Time_Shift_2
Note_On_71_Vel_0
Note_On_59_Vel_0
Time_Shift_33
Note_On_69_Vel_0
Time_Shift_49
Note_On_73_Vel_87
Time_Shift_1
Note_On_66_Vel_93
Note_On_57_Vel_95
Time_Shift_2
Note_On_54_Vel_90
Time_Shift_94
Note_On_66_Vel_0
Time_Shift_19
Note_On_68_Vel_81
Time_Shift_23
Note_On_57_Vel_0
Time_Shift_4
Note_On_73_Vel_0
Time_Shift_15
Note_On_68_Vel_0
Time_Shift_8
Note_On_54_Vel_0
Time_Shift_69
Note_On_69_Vel_88
Time_Shift_2
Note_On_78_Vel_92
Note_On_61_Vel_93
Time_Shift_1
Note_On_54_Vel_74
Time_Shift_24
Note_On_78_Vel_0
Time_Shift_1
Note_On_69_Vel_0
Time_Shift_5
Note_On_61_Vel_0
Time_Shift_5
Note_On_54_Vel_0
Time_Shift_64
Note_On_77_Vel_102
Time_Shift_1
Note_On_62_Vel_99
Time_Shift_1
Note_On_71_Vel_95
Note_On_54_Vel_93
Time_Shift_39
Note_On_71_Vel_0
Time_Shift_96
Note_On_73_Vel_78
Time_Shift_4
Note_On_61_Vel_75
Time_Shift_26
Sustain_On
Time_Shift_15
Note_On_61_Vel_0
Time_Shift_8
Note_On_62_Vel_0
Note_On_77_Vel_0
Time_Shift_38
Note_On_73_Vel_0
Time_Shift_14
Note_On_71_Vel_75
Time_Shift_4
Note_On_78_Vel_61
Time_Shift_13
Note_On_54_Vel_0
Time_Shift_5
Note_On_54_Vel_48
Time_Shift_69
Note_On_61_Vel_88
Time_Shift_10
Note_On_78_Vel_0
Time_Shift_5
Note_On_78_Vel_92
Time_Shift_1
Note_On_73_Vel_75
Time_Shift_1
Note_On_69_Vel_91
Time_Shift_24
Note_On_61_Vel_0
Sustain_Off
Time_Shift_6
Note_On_54_Vel_0
Note_On_69_Vel_0
Time_Shift_2
Note_On_71_Vel_0
Time_Shift_23
Note_On_73_Vel_0
Time_Shift_8
Note_On_78_Vel_0
Time_Shift_42
Note_On_68_Vel_88
Time_Shift_2
Note_On_56_Vel_85
Time_Shift_3
Note_On_44_Vel_83
Time_Shift_29
Note_On_56_Vel_0
Time_Shift_2
Note_On_68_Vel_0
Time_Shift_1
Note_On_44_Vel_0
Time_Shift_63
Note_On_66_Vel_86
Time_Shift_10
Note_On_57_Vel_88
Time_Shift_11
Note_On_45_Vel_67
Time_Shift_16
Note_On_57_Vel_0
Time_Shift_2
Note_On_66_Vel_0
Time_Shift_41
Note_On_45_Vel_0
Time_Shift_36
Note_On_72_Vel_92
Time_Shift_1
Note_On_80_Vel_100
Time_Shift_2
Note_On_44_Vel_96
Time_Shift_2
Note_On_56_Vel_107
Time_Shift_36
Note_On_56_Vel_0
Time_Shift_3
Note_On_44_Vel_0
Time_Shift_1
Note_On_80_Vel_0
Time_Shift_35
Note_On_72_Vel_0
Time_Shift_40
Note_On_70_Vel_84
Time_Shift_21
Sustain_On
Time_Shift_20
Note_On_70_Vel_0
Time_Shift_78
Note_On_68_Vel_87
Time_Shift_1
Note_On_56_Vel_75
Time_Shift_106
Note_On_80_Vel_95
Time_Shift_2
Note_On_76_Vel_99
Note_On_56_Vel_0
Time_Shift_5
Note_On_61_Vel_86
Note_On_70_Vel_80
Time_Shift_2
Note_On_56_Vel_81
Time_Shift_6
Sustain_Off
Time_Shift_21
Note_On_68_Vel_0
Time_Shift_5
Note_On_76_Vel_0
Time_Shift_4
Note_On_61_Vel_0
Time_Shift_1
Note_On_70_Vel_0
Time_Shift_33
Note_On_80_Vel_0
Time_Shift_35
Note_On_75_Vel_87
Time_Shift_2
Note_On_63_Vel_86
Time_Shift_47
Note_On_75_Vel_0
Time_Shift_17
Note_On_63_Vel_0
Time_Shift_30
Note_On_56_Vel_0
Time_Shift_12
Note_On_64_Vel_87
Time_Shift_1
Note_On_73_Vel_93
Time_Shift_38
Note_On_64_Vel_0
Note_On_73_Vel_0
Time_Shift_69
Note_On_80_Vel_100
Time_Shift_3
Note_On_63_Vel_95
Time_Shift_1
Note_On_72_Vel_95
Time_Shift_1
Note_On_78_Vel_97
Time_Shift_2
Note_On_56_Vel_84
Time_Shift_36
Note_On_72_Vel_0
Time_Shift_4
Note_On_63_Vel_0
Time_Shift_66
Note_On_70_Vel_88
Note_On_64_Vel_83
Time_Shift_36
Note_On_70_Vel_0
Time_Shift_7
Note_On_80_Vel_0
Time_Shift_8
Note_On_78_Vel_0
Time_Shift_8
Note_On_64_Vel_0
Time_Shift_49
Note_On_68_Vel_94
Time_Shift_3
Note_On_66_Vel_88
Time_Shift_1
Note_On_56_Vel_0
Time_Shift_4
Note_On_56_Vel_69
Time_Shift_31
Note_On_68_Vel_0
Time_Shift_4
Note_On_66_Vel_0
Time_Shift_46
Note_On_56_Vel_0
Time_Shift_27
Note_On_61_Vel_89
Note_On_80_Vel_93
Note_On_76_Vel_103
Time_Shift_3
Note_On_70_Vel_85
Time_Shift_2
Note_On_68_Vel_88
Time_Shift_27
Note_On_61_Vel_0
Time_Shift_6
Note_On_76_Vel_0
Note_On_80_Vel_0
Time_Shift_1
Note_On_68_Vel_0
Time_Shift_34
Note_On_70_Vel_0
Time_Shift_38
Note_On_63_Vel_86
Time_Shift_2
Note_On_75_Vel_93
Time_Shift_8
Note_On_51_Vel_78
Time_Shift_25
Note_On_63_Vel_0
Time_Shift_4
Note_On_51_Vel_0
Time_Shift_2
Note_On_75_Vel_0
Time_Shift_70
Note_On_73_Vel_92
Time_Shift_1
Note_On_64_Vel_79
Time_Shift_7
Note_On_52_Vel_73
Time_Shift_23
Note_On_73_Vel_0
Note_On_64_Vel_0
Time_Shift_6
Note_On_52_Vel_0
Time_Shift_75
Note_On_80_Vel_103
Time_Shift_2
Note_On_72_Vel_98
Time_Shift_2
Note_On_56_Vel_103
Note_On_44_Vel_95
Time_Shift_2
Note_On_78_Vel_91
Time_Shift_33
Note_On_56_Vel_0
Time_Shift_1
Note_On_72_Vel_0
Time_Shift_3
Note_On_44_Vel_0
Time_Shift_6
Note_On_80_Vel_0
Time_Shift_62
Note_On_70_Vel_77
Time_Shift_114
Note_On_68_Vel_88
Time_Shift_7
Note_On_66_Vel_89
Time_Shift_21
Note_On_70_Vel_0
Time_Shift_1
Note_On_68_Vel_0
Time_Shift_9
Note_On_66_Vel_0
Time_Shift_13
Note_On_78_Vel_0
Time_Shift_63
Note_On_73_Vel_99
Time_Shift_2
Note_On_80_Vel_96
Time_Shift_2
Note_On_61_Vel_89
Time_Shift_1
Note_On_64_Vel_87
Time_Shift_6
Note_On_70_Vel_72
Time_Shift_35
Note_On_73_Vel_0
Time_Shift_4
Note_On_64_Vel_0
Time_Shift_4
Note_On_80_Vel_0
Time_Shift_44
Note_On_61_Vel_0
Time_Shift_14
Note_On_75_Vel_89
Time_Shift_15
Note_On_73_Vel_62
Time_Shift_21
Note_On_75_Vel_0
Time_Shift_4
Note_On_70_Vel_0
Time_Shift_81
Note_On_85_Vel_98
Note_On_68_Vel_95
Time_Shift_1
Note_On_76_Vel_90
Time_Shift_25
Note_On_68_Vel_0
Time_Shift_2
Note_On_85_Vel_0
Time_Shift_6
Note_On_73_Vel_0
Time_Shift_16
Note_On_76_Vel_0
Time_Shift_57
Note_On_84_Vel_106
Time_Shift_1
Note_On_78_Vel_103
Time_Shift_1
Note_On_69_Vel_96
Time_Shift_1
Note_On_61_Vel_97
Time_Shift_126
Note_On_80_Vel_88
Time_Shift_13
Sustain_On
Time_Shift_85
Note_On_78_Vel_0
Time_Shift_8
Note_On_78_Vel_77
Time_Shift_92
Sustain_Off
Time_Shift_19
Note_On_85_Vel_101
Time_Shift_2
Note_On_76_Vel_95
Time_Shift_3
Note_On_68_Vel_100
Time_Shift_2
Note_On_80_Vel_0
Time_Shift_32
Note_On_76_Vel_0
Time_Shift_3
Note_On_69_Vel_0
Time_Shift_8
Note_On_84_Vel_0
Time_Shift_31
Note_On_78_Vel_0
Time_Shift_40
Note_On_75_Vel_71
Time_Shift_6
Sustain_On
Time_Shift_54
Note_On_76_Vel_61
Time_Shift_38
Note_On_76_Vel_0
Time_Shift_8
Note_On_73_Vel_85
Time_Shift_3
Note_On_76_Vel_57
Time_Shift_25
Note_On_75_Vel_0
Time_Shift_6
Note_On_68_Vel_0
Time_Shift_1
Note_On_73_Vel_0
Time_Shift_11
Note_On_85_Vel_0
Sustain_Off
Time_Shift_7
Note_On_61_Vel_0
Time_Shift_8
Note_On_76_Vel_0
Time_Shift_57
Note_On_45_Vel_84
Note_On_33_Vel_83
Time_Shift_6
Note_On_85_Vel_96
Time_Shift_1
Note_On_76_Vel_100
Time_Shift_1
Note_On_81_Vel_90
Time_Shift_24
Note_On_45_Vel_0
Time_Shift_2
Note_On_33_Vel_0
Time_Shift_13
Note_On_76_Vel_0
Note_On_81_Vel_0
Time_Shift_42
Note_On_85_Vel_0
Time_Shift_26
Note_On_37_Vel_91
Note_On_49_Vel_88
Time_Shift_5
Note_On_74_Vel_90
Time_Shift_27
Note_On_49_Vel_0
Time_Shift_4
Note_On_37_Vel_0
Time_Shift_10
Note_On_74_Vel_0
Time_Shift_54
Note_On_50_Vel_95
Time_Shift_3
Note_On_38_Vel_87
Time_Shift_17
Note_On_73_Vel_95
Time_Shift_3
Note_On_76_Vel_71
Time_Shift_12
Note_On_50_Vel_0
Time_Shift_4
Note_On_38_Vel_0
Time_Shift_12
Note_On_73_Vel_0
Time_Shift_15
Note_On_76_Vel_0
Time_Shift_51
Note_On_52_Vel_102
Time_Shift_5
Note_On_40_Vel_95
Time_Shift_1
Note_On_83_Vel_96
Note_On_80_Vel_98
Note_On_76_Vel_104
Time_Shift_58
Sustain_On
Time_Shift_58
Note_On_73_Vel_91
Time_Shift_115
Note_On_71_Vel_89
Time_Shift_46
Sustain_Off
Time_Shift_7
Note_On_80_Vel_0
Note_On_76_Vel_0
Time_Shift_1
Note_On_71_Vel_0
Note_On_73_Vel_0
Time_Shift_11
Note_On_52_Vel_0
Time_Shift_8
Note_On_40_Vel_0
Time_Shift_15
Sustain_On
Time_Shift_16
Note_On_83_Vel_0
Time_Shift_4
Note_On_83_Vel_94
Note_On_79_Vel_89
Time_Shift_1
Note_On_74_Vel_98
Note_On_31_Vel_95
Time_Shift_1
Note_On_43_Vel_96
Time_Shift_32
Sustain_Off
Time_Shift_9
Note_On_31_Vel_0
Time_Shift_2
Note_On_43_Vel_0
Time_Shift_1
Note_On_74_Vel_0
Note_On_79_Vel_0
Time_Shift_61
Note_On_47_Vel_90
Time_Shift_2
Note_On_35_Vel_92
Time_Shift_2
Note_On_72_Vel_92
Time_Shift_36
Note_On_47_Vel_0
Time_Shift_6
Note_On_35_Vel_0
Time_Shift_2
Note_On_72_Vel_0
Time_Shift_10
Note_On_83_Vel_0
Time_Shift_53
Note_On_48_Vel_95
Time_Shift_2
Note_On_36_Vel_91
Time_Shift_1
Note_On_71_Vel_92
Time_Shift_48
Note_On_48_Vel_0
Time_Shift_2
Note_On_36_Vel_0
Time_Shift_4
Note_On_71_Vel_0
Time_Shift_55
Note_On_74_Vel_103
Time_Shift_1
Note_On_78_Vel_98
Time_Shift_1
Note_On_50_Vel_104
Time_Shift_2
Note_On_81_Vel_93
Time_Shift_1
Note_On_38_Vel_96
Time_Shift_83
Sustain_On
Time_Shift_20
Note_On_71_Vel_79
Time_Shift_138
Note_On_69_Vel_87
Time_Shift_103
Note_On_81_Vel_0
Time_Shift_9
Note_On_72_Vel_92
Note_On_81_Vel_95
Time_Shift_2
Note_On_77_Vel_87
Note_On_41_Vel_94
Time_Shift_1
Note_On_29_Vel_97
Time_Shift_19
Note_On_50_Vel_0
Time_Shift_95
Note_On_45_Vel_92
Time_Shift_1
Note_On_33_Vel_95
Time_Shift_2
Note_On_70_Vel_92
Time_Shift_101
Note_On_34_Vel_94
Time_Shift_1
Note_On_69_Vel_0
Time_Shift_1
Note_On_46_Vel_96
Time_Shift_2
Note_On_69_Vel_93
Time_Shift_40
Note_On_33_Vel_0
Time_Shift_2
Note_On_45_Vel_0
Time_Shift_1
Note_On_29_Vel_0
Time_Shift_1
Note_On_71_Vel_0
Time_Shift_1
Note_On_41_Vel_0
Note_On_70_Vel_0
Time_Shift_1
Note_On_81_Vel_0
Note_On_69_Vel_0
Note_On_77_Vel_0
Note_On_72_Vel_0
Time_Shift_2
Note_On_34_Vel_0
Time_Shift_2
Sustain_Off
Note_On_74_Vel_0
Time_Shift_8
Note_On_38_Vel_0
Note_On_78_Vel_0
Time_Shift_8
Note_On_46_Vel_0
Time_Shift_36
Note_On_72_Vel_100
Time_Shift_1
Note_On_79_Vel_99
Time_Shift_3
Note_On_76_Vel_101
Time_Shift_1
Note_On_48_Vel_102
Note_On_36_Vel_98
Time_Shift_74
Sustain_On
Time_Shift_45
Note_On_69_Vel_94
Time_Shift_116
Note_On_72_Vel_0
Note_On_76_Vel_0
Time_Shift_2
Note_On_67_Vel_89
Time_Shift_3
Note_On_76_Vel_73
Time_Shift_2
Note_On_72_Vel_72
Time_Shift_108
Note_On_72_Vel_0
Time_Shift_4
Note_On_67_Vel_0
Time_Shift_2
Note_On_48_Vel_0
Note_On_72_Vel_92
Time_Shift_1
Note_On_79_Vel_0
Time_Shift_2
Note_On_57_Vel_107
Note_On_76_Vel_0
Time_Shift_1
Sustain_Off
Time_Shift_2
Note_On_45_Vel_98
Note_On_75_Vel_86
Time_Shift_11
Note_On_36_Vel_0
Time_Shift_8
Sustain_On
Time_Shift_88
Note_On_66_Vel_87
Time_Shift_127
Note_On_64_Vel_92
Time_Shift_2
Note_On_67_Vel_94
Time_Shift_1
Note_On_58_Vel_103
Time_Shift_2
Note_On_46_Vel_95
Time_Shift_87
Note_On_69_Vel_0
Time_Shift_4
Note_On_57_Vel_0
Sustain_Off
Note_On_45_Vel_0
Note_On_67_Vel_0
Note_On_58_Vel_0
Note_On_46_Vel_0
Time_Shift_1
Note_On_64_Vel_0
Note_On_72_Vel_0
Time_Shift_18
Note_On_66_Vel_0
Note_On_75_Vel_0
Time_Shift_5
Note_On_63_Vel_107
Time_Shift_1
Note_On_59_Vel_107
Time_Shift_2
Note_On_71_Vel_99
Note_On_75_Vel_104
Time_Shift_1
Note_On_47_Vel_100
Time_Shift_1
Note_On_66_Vel_101
Time_Shift_31
Note_On_59_Vel_0
Time_Shift_7
Note_On_63_Vel_0
Time_Shift_44
Sustain_On
Time_Shift_31
Note_On_66_Vel_0
Time_Shift_140
Sustain_Off
Time_Shift_6
Note_On_47_Vel_0
Note_On_71_Vel_0
Note_On_75_Vel_0
Time_Shift_209
Note_On_95_Vel_110
Time_Shift_1
Note_On_83_Vel_107
Time_Shift_2
Note_On_81_Vel_97
Note_On_90_Vel_102
Time_Shift_4
Note_On_39_Vel_88
Time_Shift_7
Note_On_51_Vel_87
Time_Shift_2
Note_On_93_Vel_91
Time_Shift_90
Note_On_39_Vel_0
Time_Shift_8
Note_On_51_Vel_0
Time_Shift_5
Note_On_40_Vel_78
Time_Shift_1
Note_On_52_Vel_79
Time_Shift_32
Note_On_81_Vel_0
Time_Shift_10
Note_On_52_Vel_0
Time_Shift_1
Note_On_40_Vel_0
Time_Shift_2
Note_On_83_Vel_0
Time_Shift_10
Note_On_95_Vel_0
Time_Shift_52
Note_On_42_Vel_93
Time_Shift_2
Note_On_54_Vel_92
Time_Shift_35
Note_On_54_Vel_0
Time_Shift_3
Note_On_93_Vel_0
Time_Shift_2
Note_On_42_Vel_0
Time_Shift_14
Note_On_90_Vel_0
Time_Shift_68
Note_On_55_Vel_93
Time_Shift_2
Note_On_43_Vel_95
Time_Shift_1
Note_On_91_Vel_111
Time_Shift_1
Note_On_79_Vel_108
Time_Shift_1
Note_On_83_Vel_96
Note_On_88_Vel_97
Time_Shift_32
Note_On_55_Vel_0
Time_Shift_1
Note_On_43_Vel_0
Time_Shift_71
Note_On_57_Vel_96
Time_Shift_1
Note_On_45_Vel_92
Time_Shift_37
Note_On_57_Vel_0
Time_Shift_3
Note_On_45_Vel_0
Time_Shift_64
Note_On_59_Vel_97
Note_On_47_Vel_88
Time_Shift_40
Note_On_59_Vel_0
Note_On_88_Vel_0
Time_Shift_1
Note_On_47_Vel_0
Time_Shift_2
Note_On_79_Vel_0
Time_Shift_2
Note_On_91_Vel_0
Note_On_83_Vel_0
Time_Shift_78
Note_On_48_Vel_97
Time_Shift_1
Note_On_88_Vel_105
Time_Shift_1
Note_On_60_Vel_100
Note_On_79_Vel_106
Time_Shift_1
Note_On_84_Vel_106
Time_Shift_1
Note_On_76_Vel_109
Time_Shift_32
Note_On_60_Vel_0
Note_On_48_Vel_0
Time_Shift_72
Note_On_50_Vel_98
Time_Shift_4
Note_On_62_Vel_95
Time_Shift_2
Note_On_48_Vel_87
Time_Shift_62
Note_On_62_Vel_0
Time_Shift_2
Note_On_50_Vel_0
Time_Shift_3
Note_On_48_Vel_0
Time_Shift_13
Note_On_76_Vel_0
Time_Shift_26
Note_On_52_Vel_98
Note_On_64_Vel_98
Time_Shift_4
Note_On_88_Vel_0
Time_Shift_31
Note_On_84_Vel_0
Time_Shift_9
Note_On_52_Vel_0
Note_On_64_Vel_0
Time_Shift_10
Note_On_79_Vel_0
Time_Shift_68
Note_On_54_Vel_93
Time_Shift_3
Note_On_72_Vel_106
Note_On_66_Vel_99
Note_On_84_Vel_101
Note_On_76_Vel_109
Time_Shift_2
Note_On_88_Vel_105
Time_Shift_1
Note_On_81_Vel_105
Time_Shift_7
Note_On_66_Vel_0
Time_Shift_21
Note_On_54_Vel_0
Time_Shift_75
Note_On_67_Vel_92
Time_Shift_1
Note_On_55_Vel_98
Time_Shift_3
Sustain_On
Time_Shift_102
Note_On_69_Vel_99
Time_Shift_1
Note_On_57_Vel_100
Time_Shift_46
Note_On_69_Vel_0
Note_On_55_Vel_0
Time_Shift_1
Note_On_57_Vel_0
Note_On_84_Vel_0
Time_Shift_3
Note_On_72_Vel_0
Time_Shift_8
Note_On_76_Vel_0
Note_On_88_Vel_0
Time_Shift_8
Note_On_67_Vel_0
Note_On_81_Vel_0
Time_Shift_3
Sustain_Off
Time_Shift_45
Note_On_78_Vel_102
Time_Shift_1
Note_On_83_Vel_102
Time_Shift_1
Note_On_71_Vel_109
Note_On_75_Vel_105
Time_Shift_2
Note_On_67_Vel_94
Time_Shift_1
Note_On_59_Vel_104
Time_Shift_4
Note_On_69_Vel_85
Time_Shift_73
Sustain_On
Time_Shift_331
Note_On_83_Vel_0
Time_Shift_3
Note_On_75_Vel_0
Time_Shift_4
Note_On_69_Vel_0
Note_On_78_Vel_0
Time_Shift_3
Note_On_42_Vel_104
Time_Shift_2
Note_On_60_Vel_97
Time_Shift_1
Note_On_72_Vel_100
Note_On_30_Vel_101
Time_Shift_2
Note_On_59_Vel_0
Time_Shift_1
Note_On_69_Vel_93
Time_Shift_22
Note_On_67_Vel_0
Time_Shift_4
Sustain_Off
Time_Shift_19
Note_On_71_Vel_0
Time_Shift_3
Note_On_30_Vel_0
Time_Shift_1
Note_On_69_Vel_0
Note_On_42_Vel_0
Time_Shift_1
Note_On_60_Vel_0
Time_Shift_6
Note_On_72_Vel_0
Time_Shift_58
Note_On_43_Vel_90
Time_Shift_2
Note_On_31_Vel_86
Time_Shift_48
Note_On_43_Vel_0
Time_Shift_53
Note_On_45_Vel_105
Time_Shift_2
Note_On_33_Vel_95
Time_Shift_38
Note_On_33_Vel_0
Note_On_45_Vel_0
Time_Shift_11
Note_On_31_Vel_0
Time_Shift_73
Note_On_71_Vel_103
Note_On_57_Vel_105
Time_Shift_1
Note_On_63_Vel_101
Note_On_47_Vel_107
Note_On_59_Vel_106
Time_Shift_3
Note_On_35_Vel_103
Note_On_66_Vel_103
Time_Shift_61
Sustain_On
Time_Shift_288
Sustain_Off
Note_On_71_Vel_0
Note_On_63_Vel_0
Note_On_66_Vel_0
Note_On_47_Vel_0
Time_Shift_1
Note_On_59_Vel_0
Time_Shift_3
Note_On_57_Vel_0
Time_Shift_15
Note_On_35_Vel_0
Time_Shift_289
Note_On_59_Vel_112
Time_Shift_203
Sustain_On
Time_Shift_409
Note_On_47_Vel_104
Time_Shift_604
Note_On_52_Vel_82
Time_Shift_1
Note_On_56_Vel_84
Time_Shift_2
Note_On_40_Vel_84
Time_Shift_818
Note_On_64_Vel_94
Time_Shift_1
Note_On_52_Vel_0
Note_On_56_Vel_0
Time_Shift_4
Note_On_56_Vel_90
Note_On_52_Vel_94
Time_Shift_6
Note_On_49_Vel_99
Time_Shift_5
Note_On_37_Vel_95
Time_Shift_71
Note_On_47_Vel_0
Time_Shift_2
Note_On_40_Vel_0
Note_On_59_Vel_0
Time_Shift_755
Note_On_66_Vel_99
Time_Shift_2
Note_On_54_Vel_94
Note_On_59_Vel_94
Time_Shift_2
Note_On_63_Vel_90
Time_Shift_3
Note_On_47_Vel_103
Time_Shift_5
Note_On_35_Vel_103
Time_Shift_6
Sustain_Off
Time_Shift_11
Note_On_64_Vel_0
Time_Shift_1
Note_On_37_Vel_0
Time_Shift_1
Note_On_49_Vel_0
Time_Shift_17
Note_On_52_Vel_0
Sustain_On
Time_Shift_23
Note_On_56_Vel_0
Time_Shift_1060
Note_On_59_Vel_0
Time_Shift_3
Note_On_68_Vel_98
Time_Shift_2
Note_On_56_Vel_93
Note_On_59_Vel_91
Time_Shift_6
Note_On_64_Vel_84
Time_Shift_9
Note_On_40_Vel_97
Time_Shift_3
Note_On_28_Vel_102
Time_Shift_37
Note_On_66_Vel_0
Note_On_63_Vel_0
Time_Shift_3
Note_On_47_Vel_0
Time_Shift_1
Note_On_35_Vel_0
Time_Shift_1
Sustain_Off
Time_Shift_19
Note_On_54_Vel_0
Time_Shift_208
Sustain_On
Time_Shift_700
Note_On_97_Vel_74
Time_Shift_5
Note_On_88_Vel_50
Time_Shift_58
Note_On_92_Vel_60
Time_Shift_1
Note_On_80_Vel_64
Time_Shift_59
Note_On_95_Vel_71
Time_Shift_2
Note_On_83_Vel_74
Time_Shift_66
Note_On_88_Vel_0
Time_Shift_4
Note_On_76_Vel_65
Time_Shift_1
Note_On_88_Vel_66
Time_Shift_64
Note_On_83_Vel_0
Time_Shift_5
Note_On_83_Vel_69
Time_Shift_6
Note_On_93_Vel_71
Time_Shift_58
Note_On_88_Vel_0
Time_Shift_6
Note_On_88_Vel_65
Time_Shift_2
Note_On_76_Vel_0
Time_Shift_5
Note_On_76_Vel_66
Time_Shift_41
Note_On_92_Vel_0
Time_Shift_7
Note_On_92_Vel_76
Time_Shift_8
Note_On_80_Vel_0
Time_Shift_4
Note_On_80_Vel_68
Time_Shift_57
Note_On_83_Vel_0
Time_Shift_10
Note_On_83_Vel_68
Time_Shift_1
Note_On_71_Vel_64
Time_Shift_59
Note_On_80_Vel_0
Time_Shift_6
Note_On_80_Vel_74
Time_Shift_4
Note_On_90_Vel_71
Time_Shift_51
Note_On_71_Vel_0
Time_Shift_5
Note_On_71_Vel_76
Time_Shift_56
Note_On_88_Vel_0
Time_Shift_6
Note_On_88_Vel_75
Time_Shift_10
Note_On_76_Vel_0
Time_Shift_10
Note_On_76_Vel_70
Time_Shift_59
Note_On_80_Vel_0
Time_Shift_8
Note_On_68_Vel_0
Time_Shift_1
Note_On_80_Vel_78
Time_Shift_6
Note_On_68_Vel_73
Time_Shift_62
Note_On_76_Vel_0
Time_Shift_3
Note_On_85_Vel_79
Time_Shift_6
Note_On_76_Vel_70
Time_Shift_52
Note_On_68_Vel_0
Note_On_80_Vel_0
Time_Shift_4
Note_On_68_Vel_68
Time_Shift_1
Note_On_80_Vel_73
Time_Shift_49
Note_On_71_Vel_0
Note_On_83_Vel_0
Time_Shift_10
Note_On_83_Vel_74
Note_On_71_Vel_69
Time_Shift_59
Note_On_64_Vel_0
Note_On_76_Vel_0
Time_Shift_6
Note_On_76_Vel_82
Time_Shift_2
Note_On_64_Vel_58
Time_Shift_69
Note_On_71_Vel_0
Time_Shift_10
Note_On_71_Vel_63
Time_Shift_3
Note_On_81_Vel_69
Time_Shift_41
Note_On_76_Vel_0
Time_Shift_6
Note_On_76_Vel_61
Time_Shift_9
Note_On_64_Vel_0
Time_Shift_10
Note_On_64_Vel_59
Time_Shift_36
Note_On_80_Vel_0
Time_Shift_8
Note_On_68_Vel_0
Time_Shift_4
Note_On_80_Vel_71
Time_Shift_6
Note_On_68_Vel_65
Time_Shift_67
Note_On_59_Vel_0
Note_On_71_Vel_0
Time_Shift_6
Note_On_71_Vel_75
Note_On_59_Vel_63
Time_Shift_78
Note_On_68_Vel_0
Time_Shift_7
Note_On_68_Vel_70
Time_Shift_6
Note_On_78_Vel_64
Time_Shift_71
Note_On_59_Vel_0
Time_Shift_8
Note_On_71_Vel_0
Time_Shift_4
Note_On_59_Vel_68
Note_On_71_Vel_69
Time_Shift_150
Note_On_68_Vel_0
Note_On_76_Vel_0
Time_Shift_9
Note_On_68_Vel_75
Time_Shift_2
Note_On_76_Vel_62
Time_Shift_10
Note_On_52_Vel_58
Time_Shift_44
Note_On_28_Vel_0
Sustain_Off
Time_Shift_1
Note_On_95_Vel_0
Note_On_93_Vel_0
Time_Shift_1
Note_On_97_Vel_0
Note_On_90_Vel_0
Note_On_56_Vel_0
Note_On_40_Vel_0
Note_On_59_Vel_0
Note_On_81_Vel_0
Time_Shift_1
Note_On_92_Vel_0
Note_On_64_Vel_0
Note_On_71_Vel_0
Note_On_88_Vel_0
Note_On_85_Vel_0
Note_On_83_Vel_0
Note_On_80_Vel_0
Time_Shift_9
Note_On_78_Vel_0
Time_Shift_130
Sustain_On
Time_Shift_154
Note_On_76_Vel_0
Time_Shift_384
Note_On_68_Vel_0
Time_Shift_10
Note_On_68_Vel_98
Time_Shift_1
Note_On_63_Vel_87
Note_On_60_Vel_89
Time_Shift_1
Note_On_56_Vel_97
Time_Shift_6
Note_On_44_Vel_98
Time_Shift_2
Note_On_32_Vel_88
Time_Shift_49
Note_On_52_Vel_0
Time_Shift_16
Sustain_Off
Time_Shift_153
Sustain_On
Time_Shift_368
Note_On_56_Vel_0
Note_On_68_Vel_0
Time_Shift_9
Note_On_56_Vel_97
Time_Shift_1
Note_On_68_Vel_101
Time_Shift_3
Note_On_64_Vel_84
Time_Shift_1
Note_On_61_Vel_100
Time_Shift_10
Note_On_49_Vel_106
Time_Shift_1
Note_On_37_Vel_96
Time_Shift_12
Sustain_Off
Time_Shift_117
Sustain_On
Time_Shift_261
Note_On_32_Vel_0
Time_Shift_92
Note_On_44_Vel_0
Time_Shift_192
Note_On_61_Vel_0
Note_On_64_Vel_0
Time_Shift_4
Note_On_71_Vel_100
Note_On_59_Vel_105
Time_Shift_1
Note_On_61_Vel_102
Note_On_64_Vel_94
Time_Shift_3
Note_On_60_Vel_0
Time_Shift_6
Note_On_66_Vel_88
Time_Shift_6
Note_On_30_Vel_101
Time_Shift_2
Note_On_42_Vel_106
Time_Shift_14
Note_On_37_Vel_0
Time_Shift_6
Note_On_49_Vel_0
Time_Shift_20
Note_On_56_Vel_0
Note_On_63_Vel_0
Time_Shift_3
Sustain_Off
Time_Shift_127
Sustain_On
Time_Shift_453
Note_On_64_Vel_0
Time_Shift_9
Note_On_57_Vel_96
Time_Shift_1
Note_On_69_Vel_89
Time_Shift_1
Note_On_64_Vel_83
Time_Shift_5
Note_On_30_Vel_0
Note_On_42_Vel_0
Time_Shift_4
Note_On_54_Vel_93
Note_On_49_Vel_85
Time_Shift_1
Note_On_42_Vel_87
Time_Shift_5
Note_On_30_Vel_89
Time_Shift_143
Note_On_42_Vel_0
Note_On_54_Vel_0
Note_On_57_Vel_0
Note_On_68_Vel_0
Time_Shift_7
Note_On_42_Vel_99
Time_Shift_1
Note_On_57_Vel_96
Note_On_30_Vel_0
Time_Shift_1
Note_On_54_Vel_94
Note_On_68_Vel_102
Time_Shift_4
Note_On_30_Vel_83
Time_Shift_5
Note_On_71_Vel_0
Note_On_59_Vel_0
Time_Shift_5
Sustain_Off
Time_Shift_16
Note_On_66_Vel_0
Time_Shift_15
Note_On_49_Vel_0
Time_Shift_138
Note_On_30_Vel_0
Time_Shift_16
Sustain_On
Time_Shift_207
Note_On_69_Vel_0
Time_Shift_100
Note_On_68_Vel_0
Time_Shift_4
Sustain_Off
Time_Shift_4
Note_On_61_Vel_0
Note_On_64_Vel_0
Time_Shift_7
Note_On_42_Vel_0
Note_On_57_Vel_0
Time_Shift_8
Note_On_54_Vel_0
Time_Shift_3
Note_On_66_Vel_95
Time_Shift_1
Note_On_63_Vel_92
Time_Shift_1
Note_On_54_Vel_95
Time_Shift_5
Note_On_59_Vel_83
Time_Shift_1
Note_On_47_Vel_77
Time_Shift_227
Sustain_On
Time_Shift_488
Note_On_83_Vel_62
Time_Shift_7
Note_On_92_Vel_66
Time_Shift_78
Note_On_75_Vel_65
Time_Shift_1
Note_On_87_Vel_67
Time_Shift_56
Note_On_75_Vel_0
Time_Shift_4
Note_On_90_Vel_67
Time_Shift_1
Note_On_78_Vel_70
Time_Shift_1
Note_On_75_Vel_53
Time_Shift_68
Note_On_71_Vel_63
Time_Shift_3
Note_On_83_Vel_0
Time_Shift_4
Note_On_83_Vel_61
Time_Shift_65
Note_On_78_Vel_0
Time_Shift_10
Note_On_78_Vel_72
Time_Shift_1
Note_On_88_Vel_70
Note_On_76_Vel_61
Time_Shift_50
Note_On_83_Vel_0
Time_Shift_6
Note_On_83_Vel_64
Time_Shift_2
Note_On_71_Vel_0
Time_Shift_10
Note_On_71_Vel_55
Time_Shift_51
Note_On_87_Vel_0
Time_Shift_5
Note_On_87_Vel_74
Time_Shift_3
Note_On_75_Vel_0
Time_Shift_4
Note_On_75_Vel_63
Time_Shift_50
Note_On_78_Vel_0
Time_Shift_7
Note_On_75_Vel_0
Note_On_78_Vel_78
Time_Shift_5
Note_On_75_Vel_61
Time_Shift_3
Note_On_66_Vel_0
Time_Shift_6
Note_On_66_Vel_67
Time_Shift_56
Note_On_75_Vel_0
Time_Shift_7
Note_On_75_Vel_67
Time_Shift_1
Note_On_85_Vel_70
Time_Shift_30
Note_On_66_Vel_0
Time_Shift_10
Note_On_66_Vel_50
Time_Shift_59
Note_On_71_Vel_0
Note_On_83_Vel_0
Time_Shift_11
Note_On_83_Vel_67
Note_On_71_Vel_70
Time_Shift_66
Note_On_63_Vel_0
Note_On_75_Vel_0
Time_Shift_6
Note_On_75_Vel_70
Time_Shift_2
Note_On_66_Vel_0
Time_Shift_3
Note_On_63_Vel_70
Time_Shift_1
Note_On_66_Vel_54
Time_Shift_65
Note_On_71_Vel_0
Time_Shift_7
Note_On_80_Vel_74
Time_Shift_2
Note_On_71_Vel_72
Time_Shift_60
Note_On_63_Vel_0
Note_On_75_Vel_0
Time_Shift_6
Note_On_63_Vel_68
Time_Shift_2
Note_On_75_Vel_76
Time_Shift_61
Note_On_66_Vel_0
Note_On_78_Vel_0
Time_Shift_5
Note_On_66_Vel_75
Time_Shift_1
Note_On_78_Vel_67
Time_Shift_48
Note_On_59_Vel_0
Note_On_71_Vel_0
Time_Shift_9
Note_On_59_Vel_70
Time_Shift_1
Note_On_71_Vel_72
Time_Shift_66
Note_On_66_Vel_0
Time_Shift_5
Note_On_66_Vel_75
Time_Shift_3
Note_On_76_Vel_0
Time_Shift_5
Note_On_76_Vel_66
Time_Shift_49
Note_On_59_Vel_0
Note_On_71_Vel_0
Note_On_78_Vel_0
Time_Shift_10
Note_On_78_Vel_70
Note_On_71_Vel_63
Note_On_59_Vel_53
Time_Shift_59
Note_On_63_Vel_0
Time_Shift_5
Note_On_63_Vel_76
Time_Shift_3
Note_On_75_Vel_0
Time_Shift_4
Note_On_75_Vel_69
Time_Shift_73
Note_On_54_Vel_0
Note_On_66_Vel_0
Time_Shift_6
Note_On_54_Vel_60
Time_Shift_1
Note_On_66_Vel_71
Time_Shift_46
Note_On_63_Vel_0
Note_On_75_Vel_0
Time_Shift_6
Note_On_75_Vel_63
Time_Shift_1
Note_On_63_Vel_59
Time_Shift_27
Note_On_73_Vel_56
Time_Shift_51
Note_On_54_Vel_0
Note_On_66_Vel_0
Time_Shift_9
Note_On_54_Vel_56
Time_Shift_2
Note_On_66_Vel_64
Time_Shift_112
Note_On_71_Vel_0
Time_Shift_7
Note_On_54_Vel_0
Note_On_59_Vel_0
Note_On_63_Vel_0
Note_On_66_Vel_0
Time_Shift_4
Note_On_71_Vel_70
Time_Shift_1
Note_On_66_Vel_59
Note_On_63_Vel_57
Time_Shift_3
Note_On_47_Vel_0
Time_Shift_2
Note_On_54_Vel_49
Time_Shift_1
Note_On_59_Vel_57
Time_Shift_5
Note_On_47_Vel_45
Time_Shift_42
Sustain_Off
Time_Shift_5
Note_On_88_Vel_0
Time_Shift_1
Note_On_78_Vel_0
Note_On_87_Vel_0
Note_On_85_Vel_0
Note_On_76_Vel_0
Note_On_90_Vel_0
Note_On_80_Vel_0
Time_Shift_1
Note_On_73_Vel_0
Note_On_75_Vel_0
Note_On_92_Vel_0
Time_Shift_20
Note_On_83_Vel_0
Time_Shift_61
Sustain_On
Time_Shift_546
Note_On_66_Vel_0
Time_Shift_7
Note_On_59_Vel_0
Note_On_63_Vel_0
Time_Shift_3
Note_On_66_Vel_102
Time_Shift_7
Note_On_63_Vel_78
Time_Shift_1
Note_On_59_Vel_87
Time_Shift_5
Note_On_47_Vel_0
Time_Shift_10
Note_On_47_Vel_75
Time_Shift_3
Note_On_35_Vel_71
Time_Shift_601
Note_On_35_Vel_0
Note_On_47_Vel_0
Note_On_54_Vel_0
Note_On_59_Vel_0
Note_On_66_Vel_0
Time_Shift_6
Note_On_54_Vel_98
Note_On_66_Vel_94
Time_Shift_4
Note_On_47_Vel_89
Time_Shift_1
Note_On_59_Vel_87
Note_On_62_Vel_83
Note_On_35_Vel_82
Time_Shift_642
Note_On_47_Vel_0
Note_On_62_Vel_0
Time_Shift_2
Note_On_64_Vel_95
Time_Shift_1
Note_On_56_Vel_101
Time_Shift_2
Note_On_47_Vel_85
Time_Shift_1
Note_On_62_Vel_86
Time_Shift_1
Note_On_52_Vel_92
Time_Shift_3
Note_On_40_Vel_80
Time_Shift_17
Note_On_54_Vel_0
Time_Shift_3
Sustain_Off
Time_Shift_24
Note_On_35_Vel_0
Note_On_71_Vel_0
Time_Shift_46
Sustain_On
Time_Shift_745
Note_On_63_Vel_0
Time_Shift_30
Note_On_64_Vel_0
Time_Shift_10
Note_On_73_Vel_92
Time_Shift_1
Note_On_64_Vel_86
Note_On_61_Vel_99
Time_Shift_12
Note_On_45_Vel_96
Time_Shift_2
Note_On_33_Vel_97
Note_On_69_Vel_73
Time_Shift_19
Sustain_Off
Time_Shift_7
Note_On_52_Vel_0
Note_On_56_Vel_0
Note_On_40_Vel_0
Time_Shift_18
Note_On_47_Vel_0
Note_On_59_Vel_0
Note_On_62_Vel_0
Time_Shift_8
Note_On_66_Vel_0
Time_Shift_85
Sustain_On
Time_Shift_537
Note_On_88_Vel_54
Time_Shift_4
Note_On_76_Vel_44
Time_Shift_118
Note_On_90_Vel_71
Time_Shift_1
Note_On_69_Vel_0
Time_Shift_7
Note_On_69_Vel_50
Time_Shift_1
Note_On_81_Vel_65
Time_Shift_53
Note_On_73_Vel_0
Time_Shift_11
Note_On_73_Vel_65
Time_Shift_1
Note_On_85_Vel_64
Time_Shift_50
Note_On_76_Vel_0
Note_On_88_Vel_0
Time_Shift_11
Note_On_88_Vel_74
Note_On_76_Vel_63
Time_Shift_66
Note_On_69_Vel_0
Note_On_81_Vel_0
Time_Shift_6
Note_On_81_Vel_67
Time_Shift_4
Note_On_69_Vel_59
Time_Shift_51
Note_On_76_Vel_0
Time_Shift_5
Note_On_76_Vel_63
Time_Shift_16
Note_On_86_Vel_66
Time_Shift_56
Note_On_69_Vel_0
Note_On_81_Vel_0
Time_Shift_5
Note_On_81_Vel_75
Time_Shift_6
Note_On_69_Vel_69
Time_Shift_43
Note_On_73_Vel_0
Note_On_85_Vel_0
Time_Shift_7
Note_On_85_Vel_79
Time_Shift_3
Note_On_73_Vel_70
Time_Shift_51
Note_On_64_Vel_0
Time_Shift_8
Note_On_76_Vel_0
Time_Shift_1
Note_On_64_Vel_65
Time_Shift_9
Note_On_76_Vel_74
Time_Shift_44
Note_On_73_Vel_0
Time_Shift_5
Note_On_73_Vel_72
Time_Shift_10
Note_On_81_Vel_0
Time_Shift_8
Note_On_81_Vel_61
Time_Shift_10
Note_On_83_Vel_67
Time_Shift_36
Note_On_64_Vel_0
Note_On_76_Vel_0
Time_Shift_5
Note_On_76_Vel_75
Time_Shift_3
Note_On_64_Vel_61
Time_Shift_61
Note_On_69_Vel_0
Note_On_81_Vel_0
Time_Shift_10
Note_On_81_Vel_78
Note_On_69_Vel_71
Time_Shift_74
Note_On_61_Vel_0
Note_On_73_Vel_0
Time_Shift_7
Note_On_61_Vel_70
Note_On_73_Vel_68
Time_Shift_70
Note_On_64_Vel_0
Time_Shift_2
Note_On_78_Vel_73
Time_Shift_5
Note_On_64_Vel_49
Time_Shift_47
Note_On_73_Vel_0
Time_Shift_8
Note_On_61_Vel_0
Time_Shift_3
Note_On_73_Vel_70
Time_Shift_7
Note_On_61_Vel_61
Time_Shift_51
Note_On_64_Vel_0
Note_On_76_Vel_0
Time_Shift_6
Note_On_64_Vel_64
Note_On_76_Vel_69
Time_Shift_63
Note_On_69_Vel_0
Note_On_81_Vel_0
Time_Shift_4
Note_On_57_Vel_70
Time_Shift_6
Note_On_69_Vel_66
Note_On_81_Vel_64
Time_Shift_67
Note_On_64_Vel_0
Time_Shift_8
Note_On_76_Vel_0
Time_Shift_2
Note_On_64_Vel_65
Time_Shift_3
Note_On_76_Vel_54
Time_Shift_4
Note_On_74_Vel_58
Time_Shift_52
Note_On_57_Vel_0
Note_On_69_Vel_0
Time_Shift_4
Note_On_69_Vel_72
Time_Shift_7
Note_On_57_Vel_61
Time_Shift_50
Note_On_73_Vel_0
Time_Shift_5
Note_On_73_Vel_63
Time_Shift_3
Note_On_61_Vel_0
Time_Shift_9
Note_On_61_Vel_63
Time_Shift_53
Note_On_64_Vel_0
Time_Shift_11
Note_On_64_Vel_68
Time_Shift_10
Note_On_52_Vel_57
Time_Shift_86
Note_On_61_Vel_0
Time_Shift_8
Note_On_52_Vel_0
Note_On_61_Vel_66
Time_Shift_11
Note_On_52_Vel_54
Time_Shift_35
Note_On_64_Vel_0
Time_Shift_9
Note_On_64_Vel_64
Time_Shift_165
Note_On_78_Vel_0
Note_On_83_Vel_0
Note_On_74_Vel_0
Time_Shift_1
Note_On_52_Vel_0
Note_On_86_Vel_0
Time_Shift_2
Note_On_81_Vel_0
Note_On_73_Vel_0
Time_Shift_1
Note_On_85_Vel_0
Note_On_88_Vel_0
Note_On_64_Vel_0
Time_Shift_1
Note_On_76_Vel_0
Time_Shift_1
Sustain_Off
Time_Shift_4
Note_On_61_Vel_0
Note_On_90_Vel_0
Time_Shift_8
Note_On_33_Vel_0
Note_On_69_Vel_0
Time_Shift_3
Note_On_61_Vel_61
Time_Shift_1
Note_On_33_Vel_42
Note_On_69_Vel_62
Time_Shift_19
Note_On_45_Vel_0
Time_Shift_4
Note_On_45_Vel_43
Time_Shift_157
Sustain_On
Time_Shift_338
Note_On_57_Vel_0
Time_Shift_317
Note_On_73_Vel_100
Time_Shift_13
Note_On_33_Vel_0
Note_On_61_Vel_0
Time_Shift_3
Sustain_Off
Time_Shift_2
Note_On_61_Vel_70
Time_Shift_5
Note_On_33_Vel_53
Time_Shift_1
Note_On_64_Vel_60
Time_Shift_5
Note_On_45_Vel_0
Time_Shift_8
Note_On_45_Vel_49
Time_Shift_61
Sustain_On
Time_Shift_526
Note_On_61_Vel_0
Time_Shift_1
Note_On_73_Vel_0
Note_On_69_Vel_0
Time_Shift_6
Sustain_Off
Time_Shift_20
Note_On_33_Vel_0
Note_On_64_Vel_0
Time_Shift_3
Note_On_66_Vel_92
Time_Shift_2
Note_On_64_Vel_72
Time_Shift_2
Note_On_54_Vel_79
Time_Shift_7
Note_On_61_Vel_65
Time_Shift_1
Note_On_45_Vel_0
Time_Shift_4
Note_On_57_Vel_69
Time_Shift_4
Note_On_57_Vel_0
Note_On_45_Vel_58
Time_Shift_15
Sustain_On
Time_Shift_780
Note_On_69_Vel_84
Time_Shift_4
Note_On_61_Vel_0
Note_On_64_Vel_0
Time_Shift_3
Note_On_61_Vel_64
Time_Shift_5
Note_On_64_Vel_65
Time_Shift_3
Sustain_Off
Time_Shift_12
Note_On_35_Vel_47
Time_Shift_2
Note_On_47_Vel_44
Time_Shift_1
Note_On_45_Vel_0
Time_Shift_2
Note_On_54_Vel_0
Note_On_66_Vel_0
Time_Shift_187
Sustain_On
Time_Shift_622
Note_On_35_Vel_0
Note_On_47_Vel_0
Time_Shift_4
Note_On_59_Vel_70
Time_Shift_1
Note_On_68_Vel_69
Note_On_47_Vel_56
Time_Shift_3
Note_On_35_Vel_53
Time_Shift_3
Note_On_63_Vel_64
Time_Shift_69
Note_On_69_Vel_0
Time_Shift_1
Note_On_47_Vel_0
Note_On_59_Vel_0
Note_On_68_Vel_0
Note_On_63_Vel_0
Sustain_Off
Time_Shift_11
Note_On_61_Vel_0
Note_On_64_Vel_0
Time_Shift_30
Note_On_66_Vel_79
Time_Shift_3
Note_On_63_Vel_65
Time_Shift_1
Note_On_57_Vel_66
Time_Shift_9
Note_On_47_Vel_59
Time_Shift_3
Note_On_35_Vel_0
Time_Shift_8
Note_On_35_Vel_57
Time_Shift_23
Sustain_On
Time_Shift_350
Note_On_57_Vel_0
Time_Shift_1
Note_On_35_Vel_0
Time_Shift_4
Note_On_47_Vel_0
Time_Shift_1
Note_On_66_Vel_0
Note_On_63_Vel_0
Time_Shift_2
Sustain_Off
Time_Shift_62
Note_On_64_Vel_62
Time_Shift_5
Note_On_56_Vel_55
Time_Shift_15
Note_On_52_Vel_40
Time_Shift_3
Note_On_47_Vel_37
Time_Shift_5
Note_On_40_Vel_36
Time_Shift_59
Sustain_On
Time_Shift_819
Note_On_97_Vel_66
Time_Shift_4
Note_On_88_Vel_47
Time_Shift_74
Note_On_80_Vel_53
Time_Shift_58
Note_On_83_Vel_65
Time_Shift_2
Note_On_95_Vel_68
Time_Shift_56
Note_On_88_Vel_0
Time_Shift_4
Note_On_76_Vel_57
Time_Shift_1
Note_On_88_Vel_65
Time_Shift_72
Note_On_83_Vel_0
Time_Shift_4
Note_On_83_Vel_74
Time_Shift_9
Note_On_93_Vel_64
Time_Shift_56
Note_On_76_Vel_0
Note_On_88_Vel_0
Time_Shift_4
Note_On_88_Vel_63
Time_Shift_1
Note_On_76_Vel_58
Time_Shift_44
Note_On_92_Vel_73
Time_Shift_5
Note_On_80_Vel_0
Time_Shift_5
Note_On_80_Vel_65
Time_Shift_56
Note_On_83_Vel_0
Time_Shift_11
Note_On_71_Vel_64
Note_On_83_Vel_64
Time_Shift_66
Note_On_80_Vel_0
Time_Shift_5
Note_On_80_Vel_72
Time_Shift_5
Note_On_90_Vel_67
Time_Shift_36
Note_On_83_Vel_0
Time_Shift_6
Note_On_83_Vel_64
Time_Shift_10
Note_On_71_Vel_0
Time_Shift_4
Note_On_71_Vel_58
Time_Shift_49
Note_On_88_Vel_0
Time_Shift_8
Note_On_76_Vel_0
Time_Shift_3
Note_On_88_Vel_75
Time_Shift_5
Note_On_76_Vel_59
Time_Shift_69
Note_On_80_Vel_0
Time_Shift_4
Note_On_80_Vel_80
Time_Shift_7
Note_On_68_Vel_69
Time_Shift_58
Note_On_76_Vel_0
Note_On_88_Vel_0
Time_Shift_4
Note_On_88_Vel_67
Time_Shift_1
Note_On_76_Vel_68
Time_Shift_2
Note_On_85_Vel_75
Time_Shift_54
Note_On_68_Vel_0
Note_On_80_Vel_0
Time_Shift_5
Note_On_80_Vel_66
Time_Shift_3
Note_On_68_Vel_70
Time_Shift_46
Note_On_71_Vel_0
Note_On_83_Vel_0
Time_Shift_5
Note_On_83_Vel_73
Time_Shift_6
Note_On_71_Vel_63
Time_Shift_51
Note_On_64_Vel_0
Note_On_76_Vel_0
Time_Shift_5
Note_On_76_Vel_71
Time_Shift_4
Note_On_64_Vel_64
Time_Shift_114
Note_On_40_Vel_0
Note_On_47_Vel_0
Note_On_52_Vel_0
Note_On_56_Vel_0
Time_Shift_37
Note_On_81_Vel_83
Time_Shift_1
Note_On_76_Vel_0
Time_Shift_4
Note_On_76_Vel_71
Time_Shift_2
Note_On_73_Vel_74
Time_Shift_9
Note_On_59_Vel_84
Time_Shift_5
Sustain_Off
Time_Shift_11
Note_On_97_Vel_0
Time_Shift_3
Note_On_88_Vel_0
Time_Shift_1
Note_On_95_Vel_0
Note_On_85_Vel_0
Time_Shift_1
Note_On_83_Vel_0
Time_Shift_1
Note_On_93_Vel_0
Time_Shift_1
Note_On_71_Vel_0
Note_On_81_Vel_0
Time_Shift_1
Note_On_80_Vel_0
Time_Shift_1
Note_On_76_Vel_0
Time_Shift_2
Note_On_73_Vel_0
Time_Shift_4
Note_On_90_Vel_0
Time_Shift_4
Note_On_59_Vel_0
Time_Shift_4
Note_On_64_Vel_0
Note_On_68_Vel_0
Note_On_92_Vel_0
Time_Shift_179
Note_On_80_Vel_70
Time_Shift_1
Note_On_71_Vel_77
Time_Shift_1
Note_On_75_Vel_62
Time_Shift_1
Note_On_59_Vel_74
Time_Shift_27
Note_On_71_Vel_0
Time_Shift_4
Note_On_80_Vel_0
Time_Shift_25
Note_On_59_Vel_0
Time_Shift_15
Note_On_75_Vel_0
Time_Shift_4
Note_On_78_Vel_82
Time_Shift_2
Note_On_75_Vel_81
Note_On_59_Vel_80
Time_Shift_2
Note_On_69_Vel_78
Time_Shift_26
Note_On_78_Vel_0
Time_Shift_1
Note_On_69_Vel_0
Note_On_75_Vel_0
Note_On_59_Vel_0
Time_Shift_208
Note_On_68_Vel_68
Note_On_76_Vel_62
Time_Shift_8
Note_On_71_Vel_47
Time_Shift_5
Note_On_52_Vel_58
Time_Shift_28
Sustain_On
Time_Shift_307
Note_On_85_Vel_56
Note_On_76_Vel_0
Time_Shift_4
Note_On_88_Vel_49
Time_Shift_4
Note_On_76_Vel_42
Time_Shift_41
Note_On_80_Vel_55
Time_Shift_5
Note_On_68_Vel_0
Time_Shift_6
Note_On_68_Vel_59
Time_Shift_56
Note_On_71_Vel_0
Time_Shift_4
Note_On_83_Vel_64
Time_Shift_1
Note_On_71_Vel_58
Time_Shift_63
Note_On_64_Vel_60
Time_Shift_1
Note_On_76_Vel_0
Time_Shift_8
Note_On_76_Vel_67
Time_Shift_69
Note_On_71_Vel_0
Time_Shift_10
Note_On_71_Vel_69
Time_Shift_8
Note_On_81_Vel_63
Time_Shift_51
Note_On_64_Vel_0
Note_On_76_Vel_0
Time_Shift_4
Note_On_76_Vel_67
Time_Shift_6
Note_On_64_Vel_53
Time_Shift_2
Sustain_Off
Time_Shift_26
Note_On_80_Vel_0
Time_Shift_8
Sustain_On
Time_Shift_3
Note_On_80_Vel_75
Time_Shift_12
Note_On_68_Vel_0
Time_Shift_9
Note_On_68_Vel_70
Time_Shift_53
Note_On_71_Vel_0
Time_Shift_7
Note_On_71_Vel_73
Note_On_76_Vel_0
Time_Shift_5
Note_On_76_Vel_53
Note_On_59_Vel_67
Time_Shift_64
Note_On_68_Vel_0
Time_Shift_10
Note_On_68_Vel_81
Time_Shift_8
Note_On_78_Vel_55
Time_Shift_36
Note_On_59_Vel_0
Note_On_71_Vel_0
Time_Shift_7
Note_On_71_Vel_71
Time_Shift_4
Note_On_59_Vel_75
Time_Shift_51
Note_On_76_Vel_0
Time_Shift_11
Note_On_76_Vel_67
Time_Shift_12
Note_On_52_Vel_0
Note_On_64_Vel_0
Time_Shift_4
Note_On_64_Vel_67
Time_Shift_7
Note_On_52_Vel_54
Time_Shift_58
Note_On_68_Vel_0
Time_Shift_7
Note_On_68_Vel_71
Time_Shift_4
Note_On_56_Vel_71
Time_Shift_35
Note_On_59_Vel_0
Time_Shift_9
Note_On_59_Vel_45
Time_Shift_29
Note_On_64_Vel_0
Time_Shift_1
Note_On_73_Vel_73
Time_Shift_3
Note_On_64_Vel_67
Time_Shift_50
Note_On_56_Vel_0
Note_On_68_Vel_0
Time_Shift_11
Note_On_68_Vel_73
Note_On_56_Vel_66
Time_Shift_43
Note_On_71_Vel_0
Time_Shift_7
Note_On_59_Vel_0
Time_Shift_4
Note_On_71_Vel_70
Time_Shift_4
Note_On_59_Vel_72
Time_Shift_46
Note_On_64_Vel_0
Time_Shift_8
Note_On_64_Vel_69
Time_Shift_23
Note_On_52_Vel_0
Time_Shift_4
Note_On_52_Vel_65
Time_Shift_147
Note_On_52_Vel_0
Time_Shift_1
Note_On_81_Vel_0
Note_On_56_Vel_0
Note_On_83_Vel_0
Time_Shift_1
Note_On_88_Vel_0
Note_On_73_Vel_0
Note_On_59_Vel_0
Time_Shift_1
Sustain_Off
Note_On_76_Vel_0
Note_On_85_Vel_0
Time_Shift_7
Note_On_64_Vel_0
Note_On_78_Vel_0
Note_On_80_Vel_0
Time_Shift_5
Note_On_69_Vel_76
Time_Shift_1
Note_On_61_Vel_70
Time_Shift_2
Note_On_68_Vel_0
Note_On_71_Vel_0
Time_Shift_1
Note_On_64_Vel_57
Time_Shift_2
Note_On_47_Vel_74
Time_Shift_30
Note_On_69_Vel_0
Time_Shift_2
Note_On_61_Vel_0
Time_Shift_2
Note_On_47_Vel_0
Time_Shift_9
Note_On_64_Vel_0
Time_Shift_203
Note_On_59_Vel_74
Time_Shift_1
Note_On_68_Vel_72
Note_On_63_Vel_71
Time_Shift_6
Note_On_47_Vel_68
Time_Shift_19
Note_On_59_Vel_0
Note_On_68_Vel_0
Time_Shift_3
Note_On_63_Vel_0
Time_Shift_6
Note_On_47_Vel_0
Time_Shift_55
Note_On_66_Vel_84
Time_Shift_2
Note_On_47_Vel_69
Time_Shift_1
Note_On_57_Vel_76
Note_On_63_Vel_69
Time_Shift_33
Note_On_63_Vel_0
Note_On_66_Vel_0
Time_Shift_1
Note_On_47_Vel_0
Time_Shift_2
Note_On_57_Vel_0
Time_Shift_161
Note_On_47_Vel_46
Time_Shift_68
Note_On_47_Vel_0
Time_Shift_59
Note_On_64_Vel_54
Time_Shift_8
Note_On_56_Vel_46
Time_Shift_6
Note_On_59_Vel_42
Time_Shift_12
Note_On_52_Vel_37
Time_Shift_3
Note_On_40_Vel_41
Time_Shift_311
Sustain_On
Time_Shift_269
Note_On_40_Vel_0
Note_On_52_Vel_0
Note_On_64_Vel_0
Time_Shift_5
Note_On_64_Vel_42
Time_Shift_2
Note_On_40_Vel_38
Time_Shift_1
Note_On_52_Vel_42
Time_Shift_1
Note_On_28_Vel_40
Time_Shift_2
Sustain_Off
Time_Shift_127
Sustain_On
Time_Shift_422
Note_On_52_Vel_0
Time_Shift_8
Note_On_52_Vel_60
Time_Shift_23
Note_On_40_Vel_0
Time_Shift_6
Note_On_40_Vel_34
Time_Shift_2
Note_On_28_Vel_0
Time_Shift_4
Note_On_28_Vel_37
Time_Shift_14
Sustain_Off
Time_Shift_66
Note_On_64_Vel_0
Time_Shift_46
Sustain_On
Time_Shift_461
Note_On_52_Vel_0
Time_Shift_9
Note_On_52_Vel_60
Time_Shift_30
Note_On_28_Vel_0
Note_On_40_Vel_0
Time_Shift_9
Note_On_28_Vel_31
Time_Shift_1
Note_On_40_Vel_29
Time_Shift_781
Note_On_52_Vel_0
Time_Shift_10
Note_On_52_Vel_36
Time_Shift_43
Note_On_28_Vel_0
Note_On_40_Vel_0
Time_Shift_5
Note_On_40_Vel_18
Time_Shift_4
Note_On_28_Vel_21
Time_Shift_32
Sustain_Off
Time_Shift_36
Note_On_56_Vel_0
Time_Shift_100
Note_On_59_Vel_0
Time_Shift_123
Sustain_On
Time_Shift_1025
Note_On_49_Vel_36
Time_Shift_20
Note_On_52_Vel_0
Note_On_40_Vel_0
Note_On_37_Vel_27
Time_Shift_3
Sustain_Off
Time_Shift_204
Sustain_On
Time_Shift_384
Note_On_28_Vel_0
Time_Shift_8
Note_On_54_Vel_35
Time_Shift_5
Note_On_42_Vel_33
Time_Shift_5
Note_On_30_Vel_31
Time_Shift_7
Note_On_37_Vel_0
Note_On_49_Vel_0
Time_Shift_7
Sustain_Off
Time_Shift_183
Sustain_On
Time_Shift_569
Note_On_52_Vel_37
Time_Shift_16
Note_On_30_Vel_0
Time_Shift_1
Note_On_54_Vel_0
Time_Shift_1
Note_On_42_Vel_0
Sustain_Off
Time_Shift_8
Note_On_40_Vel_26
Time_Shift_2
Note_On_28_Vel_28
Time_Shift_232
Sustain_On
Time_Shift_661
Note_On_28_Vel_0
Time_Shift_17
Note_On_47_Vel_46
Time_Shift_16
Note_On_40_Vel_0
Time_Shift_1
Note_On_52_Vel_0
Time_Shift_4
Sustain_Off
Time_Shift_177
Sustain_On
Time_Shift_525
Note_On_52_Vel_52
Time_Shift_33
Note_On_36_Vel_56
Time_Shift_37
Sustain_Off
Time_Shift_42
Note_On_47_Vel_0
Time_Shift_115
Sustain_On
Time_Shift_93
Sustain_Off
Time_Shift_84
Sustain_On
Time_Shift_455
Note_On_54_Vel_57
Time_Shift_14
Note_On_35_Vel_60
Time_Shift_41
Note_On_36_Vel_0
Time_Shift_2
Note_On_52_Vel_0
Time_Shift_8
Sustain_Off
Time_Shift_325
Sustain_On
Time_Shift_780
Note_On_55_Vel_61
Time_Shift_22
Note_On_52_Vel_44
Time_Shift_3
Note_On_40_Vel_35
Note_On_28_Vel_43
Time_Shift_21
Sustain_Off
Time_Shift_1
Note_On_54_Vel_0
Time_Shift_25
Note_On_35_Vel_0
Time_Shift_223
Sustain_On
Time_Shift_836
Note_On_88_Vel_47
Note_On_96_Vel_46
Time_Shift_106
Note_On_79_Vel_53
Time_Shift_7
Note_On_91_Vel_53
Time_Shift_3
Note_On_88_Vel_0
Time_Shift_9
Note_On_88_Vel_39
Time_Shift_78
Note_On_95_Vel_61
Time_Shift_1
Note_On_83_Vel_61
Time_Shift_34
Note_On_76_Vel_51
Time_Shift_32
Note_On_88_Vel_0
Time_Shift_11
Note_On_88_Vel_62
Time_Shift_58
Note_On_83_Vel_0
Time_Shift_8
Note_On_83_Vel_67
Time_Shift_18
Note_On_93_Vel_70
Time_Shift_66
Note_On_76_Vel_0
Time_Shift_4
Note_On_76_Vel_66
Time_Shift_4
Note_On_88_Vel_0
Time_Shift_4
Note_On_88_Vel_58
Time_Shift_42
Note_On_91_Vel_0
Time_Shift_8
Note_On_79_Vel_0
Note_On_83_Vel_0
Time_Shift_2
Note_On_91_Vel_73
Time_Shift_2
Note_On_83_Vel_58
Time_Shift_2
Note_On_79_Vel_56
Time_Shift_63
Note_On_83_Vel_0
Time_Shift_8
Note_On_83_Vel_61
Time_Shift_2
Note_On_71_Vel_55
Time_Shift_67
Note_On_79_Vel_0
Time_Shift_7
Note_On_78_Vel_56
Time_Shift_2
Note_On_79_Vel_59
Time_Shift_2
Note_On_90_Vel_68
Time_Shift_4
Note_On_78_Vel_0
Note_On_83_Vel_0
Time_Shift_10
Note_On_83_Vel_50
Time_Shift_51
Note_On_71_Vel_0
Time_Shift_7
Note_On_71_Vel_66
Time_Shift_1
Note_On_83_Vel_0
Time_Shift_4
Note_On_83_Vel_60
Time_Shift_50
Note_On_76_Vel_0
Note_On_88_Vel_0
Time_Shift_8
Note_On_88_Vel_63
Time_Shift_2
Note_On_76_Vel_64
Time_Shift_67
Note_On_79_Vel_0
Note_On_67_Vel_56
Time_Shift_9
Note_On_79_Vel_56
Time_Shift_6
Note_On_83_Vel_0
Time_Shift_9
Note_On_83_Vel_48
Time_Shift_45
Note_On_76_Vel_0
Time_Shift_6
Note_On_76_Vel_61
Time_Shift_15
Note_On_84_Vel_67
Time_Shift_56
Note_On_67_Vel_0
Time_Shift_5
Note_On_67_Vel_59
Time_Shift_56
Note_On_71_Vel_0
Note_On_83_Vel_0
Time_Shift_5
Note_On_83_Vel_65
Time_Shift_6
Note_On_71_Vel_56
Time_Shift_58
Note_On_76_Vel_0
Time_Shift_10
Note_On_64_Vel_57
Time_Shift_1
Note_On_76_Vel_63
Time_Shift_74
Note_On_71_Vel_0
Time_Shift_9
Note_On_71_Vel_65
Time_Shift_1
Note_On_81_Vel_66
Time_Shift_66
Note_On_64_Vel_0
Time_Shift_8
Note_On_76_Vel_0
Time_Shift_4
Note_On_64_Vel_67
Time_Shift_2
Note_On_76_Vel_51
Time_Shift_40
Note_On_79_Vel_0
Time_Shift_8
Note_On_67_Vel_0
Time_Shift_3
Note_On_79_Vel_61
Time_Shift_6
Note_On_67_Vel_61
Time_Shift_37
Note_On_76_Vel_0
Time_Shift_4
Note_On_76_Vel_41
Time_Shift_34
Note_On_71_Vel_0
Time_Shift_8
Note_On_59_Vel_58
Time_Shift_1
Note_On_71_Vel_57
Time_Shift_76
Note_On_79_Vel_0
Time_Shift_7
Note_On_67_Vel_0
Time_Shift_4
Note_On_79_Vel_57
Time_Shift_6
Note_On_67_Vel_56
Time_Shift_83
Note_On_59_Vel_0
Note_On_71_Vel_0
Time_Shift_4
Note_On_59_Vel_59
Time_Shift_5
Note_On_71_Vel_55
Time_Shift_172
Sustain_Off
Time_Shift_11
Note_On_90_Vel_0
Time_Shift_3
Note_On_84_Vel_0
Time_Shift_2
Note_On_81_Vel_0
Time_Shift_1
Note_On_79_Vel_0
Time_Shift_1
Note_On_88_Vel_0
Note_On_76_Vel_0
Note_On_93_Vel_0
Note_On_96_Vel_0
Time_Shift_1
Note_On_83_Vel_0
Time_Shift_1
Note_On_59_Vel_0
Time_Shift_6
Note_On_28_Vel_0
Time_Shift_4
Note_On_76_Vel_53
Time_Shift_4
Note_On_55_Vel_0
Note_On_91_Vel_0
Note_On_95_Vel_0
Note_On_64_Vel_0
Time_Shift_7
Note_On_67_Vel_0
Time_Shift_8
Note_On_52_Vel_0
Note_On_71_Vel_0
Time_Shift_1
Note_On_67_Vel_45
Time_Shift_6
Note_On_52_Vel_44
Time_Shift_1
Note_On_71_Vel_35
Time_Shift_146
Sustain_On
Time_Shift_338
Note_On_40_Vel_0
Time_Shift_338
Note_On_55_Vel_73
Time_Shift_41
Note_On_28_Vel_38
Time_Shift_2
Note_On_40_Vel_36
Time_Shift_3
Note_On_28_Vel_0
Note_On_47_Vel_38
Time_Shift_583
Note_On_76_Vel_0
Time_Shift_8
Note_On_71_Vel_0
Time_Shift_8
Note_On_55_Vel_0
Time_Shift_4
Note_On_55_Vel_88
Time_Shift_19
Note_On_40_Vel_0
Note_On_47_Vel_0
Time_Shift_2
Note_On_28_Vel_49
Time_Shift_2
Note_On_40_Vel_48
Time_Shift_3
Note_On_28_Vel_0
Time_Shift_1
Note_On_47_Vel_51
Time_Shift_702
Note_On_33_Vel_43
Time_Shift_102
Note_On_59_Vel_75
Time_Shift_26
Note_On_48_Vel_49
Time_Shift_71
Sustain_Off
Time_Shift_2
Note_On_67_Vel_0
Time_Shift_1
Note_On_55_Vel_0
Time_Shift_2
Note_On_52_Vel_0
Time_Shift_2
Note_On_47_Vel_0
Time_Shift_163
Note_On_57_Vel_79
Time_Shift_73
Note_On_59_Vel_0
Time_Shift_23
Sustain_On
Time_Shift_177
Note_On_52_Vel_75
Time_Shift_507
Note_On_54_Vel_77
Time_Shift_4
Sustain_Off
Time_Shift_15
Note_On_48_Vel_0
Time_Shift_3
Note_On_57_Vel_0
Time_Shift_1
Note_On_38_Vel_41
Time_Shift_1
Note_On_45_Vel_40
Time_Shift_2
Note_On_52_Vel_0
Time_Shift_19
Note_On_40_Vel_0
Time_Shift_200
Sustain_On
Time_Shift_38
Note_On_33_Vel_0
Time_Shift_654
Note_On_95_Vel_48
Time_Shift_3
Note_On_86_Vel_43
Time_Shift_86
Note_On_78_Vel_55
Time_Shift_6
Note_On_90_Vel_57
Time_Shift_78
Note_On_93_Vel_65
Time_Shift_1
Note_On_81_Vel_64
Time_Shift_70
Note_On_74_Vel_60
Time_Shift_1
Note_On_86_Vel_0
Time_Shift_11
Note_On_86_Vel_58
Time_Shift_66
Note_On_81_Vel_0
Time_Shift_6
Note_On_81_Vel_65
Time_Shift_5
Note_On_91_Vel_68
Time_Shift_65
Note_On_74_Vel_0
Note_On_86_Vel_0
Time_Shift_7
Note_On_74_Vel_69
Time_Shift_5
Note_On_86_Vel_65
Time_Shift_50
Note_On_78_Vel_0
Note_On_90_Vel_0
Time_Shift_7
Note_On_78_Vel_65
Time_Shift_3
Note_On_90_Vel_70
Time_Shift_59
Note_On_81_Vel_0
Time_Shift_5
Note_On_81_Vel_72
Time_Shift_2
Note_On_69_Vel_56
Time_Shift_62
Note_On_78_Vel_0
Time_Shift_7
Note_On_78_Vel_69
Time_Shift_11
Note_On_88_Vel_73
Time_Shift_67
Note_On_81_Vel_0
Time_Shift_6
Note_On_81_Vel_60
Time_Shift_9
Note_On_69_Vel_0
Time_Shift_9
Note_On_69_Vel_44
Time_Shift_22
Note_On_74_Vel_0
Note_On_86_Vel_0
Time_Shift_9
Note_On_86_Vel_65
Time_Shift_2
Note_On_74_Vel_70
Time_Shift_66
Note_On_78_Vel_0
Note_On_81_Vel_0
Time_Shift_10
Note_On_78_Vel_65
Note_On_81_Vel_60
Time_Shift_3
Note_On_66_Vel_64
Time_Shift_71
Note_On_74_Vel_0
Time_Shift_8
Note_On_74_Vel_60
Time_Shift_4
Note_On_83_Vel_64
Time_Shift_49
Note_On_66_Vel_0
Time_Shift_7
Note_On_66_Vel_66
Time_Shift_1
Note_On_78_Vel_0
Time_Shift_11
Note_On_78_Vel_63
Time_Shift_43
Note_On_69_Vel_0
Time_Shift_6
Note_On_69_Vel_64
Time_Shift_2
Note_On_81_Vel_0
Time_Shift_8
Note_On_81_Vel_67
Time_Shift_17
Note_On_71_Vel_39
Time_Shift_5
Note_On_71_Vel_0
Time_Shift_46
Note_On_74_Vel_0
Time_Shift_8
Note_On_62_Vel_54
Time_Shift_2
Note_On_74_Vel_61
Time_Shift_67
Note_On_69_Vel_0
Time_Shift_5
Note_On_69_Vel_67
Time_Shift_64
Note_On_62_Vel_0
Time_Shift_8
Note_On_74_Vel_0
Time_Shift_3
Note_On_62_Vel_54
Time_Shift_2
Note_On_74_Vel_62
Time_Shift_64
Note_On_66_Vel_0
Note_On_78_Vel_0
Time_Shift_9
Note_On_66_Vel_66
Time_Shift_2
Note_On_78_Vel_60
Time_Shift_74
Note_On_69_Vel_0
Time_Shift_10
Note_On_69_Vel_59
Note_On_57_Vel_59
Time_Shift_82
Note_On_66_Vel_0
Note_On_78_Vel_0
Time_Shift_8
Note_On_66_Vel_59
Time_Shift_1
Note_On_78_Vel_54
Time_Shift_83
Note_On_69_Vel_0
Time_Shift_8
Note_On_74_Vel_0
Time_Shift_3
Note_On_69_Vel_49
Note_On_74_Vel_35
Time_Shift_12
Note_On_57_Vel_0
Time_Shift_9
Note_On_57_Vel_41
Time_Shift_98
Sustain_Off
Time_Shift_100
Note_On_74_Vel_0
Time_Shift_6
Note_On_74_Vel_46
Time_Shift_17
Note_On_62_Vel_0
Time_Shift_4
Note_On_81_Vel_0
Time_Shift_5
Note_On_62_Vel_25
Time_Shift_9
Note_On_50_Vel_30
Time_Shift_13
Note_On_54_Vel_0
Time_Shift_215
Sustain_On
Time_Shift_353
Note_On_57_Vel_0
Time_Shift_162
Note_On_91_Vel_0
Time_Shift_7
Note_On_78_Vel_0
Time_Shift_39
Note_On_95_Vel_0
Time_Shift_14
Note_On_54_Vel_71
Time_Shift_24
Note_On_45_Vel_0
Time_Shift_8
Note_On_38_Vel_0
Time_Shift_2
Note_On_45_Vel_32
Time_Shift_2
Note_On_38_Vel_32
Time_Shift_11
Note_On_66_Vel_0
Time_Shift_16
Note_On_88_Vel_0
Time_Shift_15
Sustain_Off
Time_Shift_8
Note_On_69_Vel_0
Time_Shift_61
Note_On_83_Vel_0
Time_Shift_15
Sustain_On
Time_Shift_39
Note_On_93_Vel_0
Time_Shift_23
Note_On_90_Vel_0
Time_Shift_69
Note_On_86_Vel_0
Time_Shift_399
Note_On_54_Vel_0
Time_Shift_8
Note_On_54_Vel_77
Time_Shift_31
Note_On_45_Vel_0
Time_Shift_4
Note_On_45_Vel_30
Time_Shift_2
Note_On_37_Vel_30
Time_Shift_94
Note_On_74_Vel_0
Time_Shift_384
Note_On_50_Vel_0
Note_On_62_Vel_0
Time_Shift_253
Note_On_38_Vel_0
Time_Shift_4
Note_On_53_Vel_71
Time_Shift_34
Note_On_37_Vel_0
Time_Shift_3
Note_On_44_Vel_37
Time_Shift_4
Note_On_37_Vel_31
Time_Shift_23
Note_On_54_Vel_0
Time_Shift_6
Sustain_Off
Time_Shift_18
Note_On_45_Vel_0
Time_Shift_146
Sustain_On
Time_Shift_912
Note_On_57_Vel_51
Time_Shift_12
Note_On_49_Vel_37
Time_Shift_5
Note_On_53_Vel_0
Time_Shift_5
Note_On_53_Vel_30
Time_Shift_1
Note_On_44_Vel_0
Time_Shift_4
Sustain_Off
Note_On_30_Vel_38
Note_On_42_Vel_34
Time_Shift_21
Note_On_53_Vel_0
Time_Shift_169
Sustain_On
Time_Shift_84
Note_On_37_Vel_0
Time_Shift_643
Note_On_98_Vel_45
Time_Shift_5
Note_On_97_Vel_39
Time_Shift_20
Note_On_90_Vel_30
Time_Shift_100
Note_On_93_Vel_51
Time_Shift_21
Note_On_81_Vel_51
Time_Shift_72
Note_On_97_Vel_0
Time_Shift_8
Note_On_97_Vel_63
Time_Shift_21
Note_On_85_Vel_63
Time_Shift_63
Note_On_90_Vel_0
Time_Shift_8
Note_On_90_Vel_55
Time_Shift_2
Note_On_78_Vel_59
Time_Shift_82
Note_On_85_Vel_0
Time_Shift_7
Note_On_85_Vel_60
Note_On_95_Vel_64
Time_Shift_70
Note_On_78_Vel_0
Note_On_90_Vel_0
Time_Shift_8
Note_On_78_Vel_64
Time_Shift_2
Note_On_90_Vel_59
Time_Shift_51
Note_On_81_Vel_0
Time_Shift_8
Note_On_93_Vel_0
Time_Shift_2
Note_On_81_Vel_69
Time_Shift_6
Note_On_93_Vel_63
Time_Shift_76
Note_On_85_Vel_0
Time_Shift_5
Note_On_85_Vel_65
Time_Shift_1
Note_On_73_Vel_63
Time_Shift_77
Note_On_92_Vel_63
Time_Shift_17
Note_On_81_Vel_0
Time_Shift_6
Note_On_81_Vel_48
Time_Shift_56
Note_On_73_Vel_0
Note_On_85_Vel_0
Time_Shift_5
Note_On_85_Vel_62
Time_Shift_1
Note_On_73_Vel_59
Time_Shift_47
Note_On_78_Vel_0
Note_On_90_Vel_0
Time_Shift_5
Note_On_90_Vel_63
Note_On_78_Vel_58
Time_Shift_72
Note_On_81_Vel_0
Time_Shift_9
Note_On_69_Vel_64
Time_Shift_2
Note_On_81_Vel_61
Time_Shift_81
Note_On_78_Vel_0
Time_Shift_8
Note_On_90_Vel_0
Time_Shift_3
Note_On_78_Vel_68
Time_Shift_2
Note_On_90_Vel_56
Time_Shift_7
Note_On_86_Vel_56
Time_Shift_49
Note_On_69_Vel_0
Note_On_81_Vel_0
Time_Shift_4
Note_On_81_Vel_62
Time_Shift_6
Note_On_69_Vel_57
Time_Shift_75
Note_On_73_Vel_0
Note_On_85_Vel_0
Time_Shift_10
Note_On_85_Vel_61
Time_Shift_1
Note_On_73_Vel_63
Time_Shift_50
Note_On_78_Vel_0
Time_Shift_6
Note_On_78_Vel_63
Time_Shift_44
Note_On_66_Vel_57
Time_Shift_56
Note_On_83_Vel_60
Time_Shift_79
Note_On_66_Vel_0
Time_Shift_10
Note_On_66_Vel_58
Time_Shift_51
Note_On_69_Vel_0
Note_On_81_Vel_0
Time_Shift_5
Note_On_81_Vel_60
Time_Shift_1
Note_On_69_Vel_55
Time_Shift_10
Note_On_30_Vel_0
Note_On_42_Vel_0
Note_On_49_Vel_0
Note_On_57_Vel_0
Time_Shift_69
Note_On_73_Vel_0
Time_Shift_11
Note_On_73_Vel_56
Time_Shift_10
Note_On_61_Vel_51
Time_Shift_88
Note_On_80_Vel_50
Time_Shift_14
Note_On_69_Vel_0
Time_Shift_10
Note_On_69_Vel_52
Time_Shift_74
Note_On_73_Vel_0
Time_Shift_8
Note_On_61_Vel_0
Time_Shift_3
Note_On_73_Vel_50
Time_Shift_8
Note_On_61_Vel_45
Time_Shift_219
Note_On_78_Vel_0
Time_Shift_7
Note_On_78_Vel_46
Time_Shift_8
Note_On_69_Vel_0
Time_Shift_5
Note_On_69_Vel_40
Time_Shift_3
Note_On_66_Vel_0
Time_Shift_4
Note_On_93_Vel_0
Note_On_95_Vel_0
Time_Shift_1
Note_On_92_Vel_0
Note_On_97_Vel_0
Note_On_90_Vel_0
Note_On_81_Vel_0
Time_Shift_1
Note_On_83_Vel_0
Note_On_85_Vel_0
Time_Shift_1
Note_On_61_Vel_0
Note_On_80_Vel_0
Note_On_73_Vel_0
Time_Shift_4
Note_On_66_Vel_36
Time_Shift_4
Note_On_86_Vel_0
Time_Shift_6
Note_On_54_Vel_30
Time_Shift_2
Note_On_98_Vel_0
Time_Shift_17
Sustain_Off
Time_Shift_137
Sustain_On
Time_Shift_529
Note_On_57_Vel_42
Time_Shift_1
Note_On_61_Vel_48
Time_Shift_15
Note_On_54_Vel_0
Time_Shift_8
Note_On_54_Vel_26
Time_Shift_1
Note_On_49_Vel_30
Time_Shift_14
Sustain_Off
Note_On_78_Vel_0
Time_Shift_77
Sustain_On
Time_Shift_537
Note_On_69_Vel_0
Time_Shift_7
Note_On_69_Vel_60
Time_Shift_17
Note_On_66_Vel_0
Time_Shift_11
Note_On_66_Vel_43
Time_Shift_1
Sustain_Off
Time_Shift_3
Note_On_54_Vel_0
Time_Shift_7
Note_On_54_Vel_33
Time_Shift_1
Note_On_61_Vel_0
Time_Shift_2
Note_On_42_Vel_30
Time_Shift_7
Note_On_61_Vel_25
Time_Shift_6
Sustain_On
Time_Shift_891
Note_On_57_Vel_0
Note_On_61_Vel_0
Time_Shift_8
Note_On_57_Vel_33
Time_Shift_2
Note_On_61_Vel_40
Time_Shift_13
Note_On_49_Vel_0
Note_On_54_Vel_0
Time_Shift_10
Note_On_54_Vel_26
Time_Shift_1
Note_On_49_Vel_30
Time_Shift_826
Note_On_54_Vel_0
Note_On_66_Vel_0
Note_On_69_Vel_0
Time_Shift_11
Note_On_54_Vel_32
Note_On_69_Vel_43
Note_On_66_Vel_36
Time_Shift_27
Note_On_42_Vel_0
Time_Shift_5
Note_On_42_Vel_28
Sustain_Off
Time_Shift_34
Sustain_On
Time_Shift_54
Sustain_Off
Time_Shift_84
Sustain_On
Time_Shift_407
Note_On_66_Vel_0
Time_Shift_5
Note_On_66_Vel_11
Time_Shift_190
Note_On_86_Vel_45
Time_Shift_46
Note_On_78_Vel_38
Time_Shift_112
Note_On_69_Vel_0
Time_Shift_6
Note_On_81_Vel_45
Time_Shift_5
Note_On_69_Vel_39
Time_Shift_94
Note_On_85_Vel_56
Time_Shift_21
Note_On_73_Vel_48
Time_Shift_74
Note_On_78_Vel_0
Time_Shift_8
Note_On_66_Vel_0
Time_Shift_3
Note_On_78_Vel_56
Time_Shift_8
Note_On_66_Vel_43
Time_Shift_65
Note_On_73_Vel_0
Time_Shift_12
Note_On_73_Vel_57
Time_Shift_1
Note_On_83_Vel_61
Time_Shift_57
Note_On_66_Vel_0
Time_Shift_11
Note_On_66_Vel_52
Time_Shift_12
Note_On_78_Vel_0
Time_Shift_5
Note_On_78_Vel_52
Time_Shift_48
Note_On_69_Vel_0
Time_Shift_6
Note_On_69_Vel_49
Time_Shift_10
Note_On_81_Vel_0
Time_Shift_3
Note_On_42_Vel_0
Time_Shift_1
Note_On_81_Vel_57
Time_Shift_1
Note_On_49_Vel_0
Time_Shift_72
Note_On_61_Vel_0
Note_On_73_Vel_0
Time_Shift_5
Note_On_61_Vel_57
Time_Shift_5
Note_On_73_Vel_58
Time_Shift_83
Note_On_80_Vel_57
Time_Shift_6
Note_On_69_Vel_0
Time_Shift_11
Note_On_69_Vel_46
Time_Shift_12
Note_On_83_Vel_0
Time_Shift_47
Note_On_61_Vel_0
Time_Shift_7
Note_On_73_Vel_0
Time_Shift_3
Note_On_61_Vel_50
Time_Shift_1
Note_On_73_Vel_52
Time_Shift_50
Note_On_66_Vel_0
Note_On_78_Vel_0
Time_Shift_6
Note_On_66_Vel_56
Time_Shift_3
Note_On_78_Vel_55
Time_Shift_68
Note_On_57_Vel_0
Time_Shift_7
Note_On_57_Vel_58
Time_Shift_8
Sustain_Off
Time_Shift_77
Note_On_66_Vel_0
Time_Shift_8
Sustain_On
Time_Shift_2
Note_On_66_Vel_59
Time_Shift_1
Note_On_74_Vel_55
Time_Shift_58
Note_On_57_Vel_0
Time_Shift_6
Note_On_57_Vel_61
Time_Shift_48
Note_On_85_Vel_0
Time_Shift_31
Note_On_61_Vel_0
Note_On_73_Vel_0
Time_Shift_8
Note_On_61_Vel_63
Time_Shift_2
Note_On_73_Vel_53
Time_Shift_66
Note_On_66_Vel_0
Time_Shift_6
Note_On_66_Vel_62
Time_Shift_2
Note_On_54_Vel_0
Time_Shift_10
Note_On_54_Vel_52
Time_Shift_67
Note_On_80_Vel_0
Time_Shift_7
Note_On_61_Vel_0
Time_Shift_5
Note_On_61_Vel_44
Time_Shift_6
Note_On_71_Vel_57
Time_Shift_13
Note_On_86_Vel_0
Time_Shift_7
Note_On_81_Vel_0
Time_Shift_8
Note_On_69_Vel_0
Time_Shift_38
Note_On_54_Vel_0
Note_On_66_Vel_0
Time_Shift_10
Note_On_54_Vel_53
Note_On_66_Vel_55
Time_Shift_6
Sustain_Off
Time_Shift_7
Note_On_71_Vel_0
Note_On_74_Vel_0
Note_On_78_Vel_0
Time_Shift_8
Note_On_57_Vel_0
Time_Shift_12
Note_On_61_Vel_0
Time_Shift_19
Note_On_73_Vel_0
Time_Shift_4
Note_On_57_Vel_60
Time_Shift_22
Note_On_69_Vel_53
Time_Shift_20
Sustain_On
Time_Shift_42
Note_On_57_Vel_0
Time_Shift_30
Note_On_49_Vel_50
Time_Shift_2
Note_On_61_Vel_54
Time_Shift_26
Note_On_66_Vel_0
Time_Shift_7
Note_On_54_Vel_0
Time_Shift_74
Note_On_68_Vel_56
Time_Shift_2
Note_On_57_Vel_48
Time_Shift_1
Note_On_49_Vel_0
Time_Shift_39
Note_On_69_Vel_0
Time_Shift_53
Note_On_61_Vel_0
Time_Shift_4
Note_On_49_Vel_43
Note_On_61_Vel_49
Time_Shift_142
Sustain_Off
Time_Shift_16
Note_On_57_Vel_0
Time_Shift_4
Note_On_49_Vel_0
Time_Shift_19
Note_On_68_Vel_0
Time_Shift_24
Note_On_66_Vel_46
Time_Shift_7
Note_On_57_Vel_45
Time_Shift_18
Note_On_42_Vel_35
Time_Shift_212
Sustain_On
Time_Shift_625
Note_On_63_Vel_49
Time_Shift_12
Note_On_57_Vel_0
Note_On_61_Vel_0
Sustain_Off
Time_Shift_2
Note_On_66_Vel_0
Time_Shift_6
Note_On_61_Vel_39
Time_Shift_3
Note_On_54_Vel_28
Note_On_57_Vel_33
Time_Shift_158
Sustain_On
Time_Shift_536
Note_On_73_Vel_52
Time_Shift_20
Note_On_66_Vel_36
Time_Shift_5
Note_On_54_Vel_0
Time_Shift_9
Note_On_54_Vel_28
Time_Shift_19
Note_On_51_Vel_31
Note_On_45_Vel_30
Time_Shift_294
Note_On_42_Vel_0
Time_Shift_653
Note_On_63_Vel_0
Time_Shift_7
Note_On_63_Vel_46
Time_Shift_8
Note_On_57_Vel_0
Note_On_61_Vel_0
Time_Shift_8
Note_On_54_Vel_0
Time_Shift_1
Note_On_61_Vel_45
Time_Shift_1
Note_On_57_Vel_36
Time_Shift_8
Note_On_54_Vel_26
Time_Shift_50
Note_On_51_Vel_0
Time_Shift_1
Note_On_73_Vel_0
Time_Shift_1
Note_On_45_Vel_0
Time_Shift_19
Sustain_Off
Time_Shift_50
Note_On_66_Vel_0
Time_Shift_138
Sustain_On
Time_Shift_998
Note_On_54_Vel_0
Time_Shift_6
Note_On_73_Vel_39
Time_Shift_4
Note_On_66_Vel_30
Time_Shift_1
Note_On_54_Vel_29
Time_Shift_22
Note_On_57_Vel_0
Time_Shift_5
Note_On_45_Vel_29
Time_Shift_1
Note_On_51_Vel_30
Time_Shift_92
Sustain_Off
Time_Shift_84
Sustain_On
Time_Shift_838
Note_On_63_Vel_0
Time_Shift_203
Note_On_51_Vel_0
Sustain_Off
Note_On_73_Vel_0
Time_Shift_1
Note_On_45_Vel_0
Time_Shift_3
Note_On_61_Vel_0
Time_Shift_8
Note_On_54_Vel_0
Note_On_66_Vel_0
Time_Shift_43
Note_On_33_Vel_56
Time_Shift_6
Note_On_45_Vel_44
Time_Shift_43
Note_On_33_Vel_0
Time_Shift_7
Note_On_45_Vel_0
Time_Shift_128
Note_On_54_Vel_43
Time_Shift_52
Note_On_54_Vel_0
Time_Shift_7
Note_On_61_Vel_58
Time_Shift_66
Note_On_64_Vel_51
Time_Shift_32
Note_On_61_Vel_0
Time_Shift_8
Note_On_64_Vel_0
Time_Shift_20
Note_On_63_Vel_67
Time_Shift_25
Note_On_63_Vel_0
Time_Shift_56
Note_On_57_Vel_52
Note_On_45_Vel_50
Time_Shift_24
Note_On_66_Vel_64
Time_Shift_16
Note_On_45_Vel_0
Time_Shift_1
Note_On_57_Vel_0
Time_Shift_7
Note_On_66_Vel_0
Time_Shift_34
Note_On_73_Vel_68
Time_Shift_42
Note_On_73_Vel_0
Time_Shift_14
Note_On_76_Vel_62
Time_Shift_52
Note_On_76_Vel_0
Time_Shift_14
Note_On_75_Vel_62
Time_Shift_48
Note_On_75_Vel_0
Time_Shift_25
Note_On_78_Vel_70
Time_Shift_51
Note_On_78_Vel_0
Time_Shift_12
Note_On_85_Vel_70
Time_Shift_51
Note_On_69_Vel_56
Note_On_57_Vel_54
Time_Shift_1
Note_On_88_Vel_69
Time_Shift_6
Note_On_85_Vel_0
Time_Shift_34
Note_On_57_Vel_0
Time_Shift_17
Note_On_88_Vel_0
Time_Shift_2
Note_On_69_Vel_0
Time_Shift_6
Note_On_87_Vel_70
Time_Shift_56
Note_On_87_Vel_0
Time_Shift_26
Note_On_90_Vel_66
Time_Shift_44
Note_On_90_Vel_0
Time_Shift_18
Note_On_97_Vel_70
Time_Shift_63
Note_On_100_Vel_72
Time_Shift_83
Note_On_99_Vel_68
Time_Shift_19
Note_On_97_Vel_0
Time_Shift_115
Note_On_100_Vel_0
Time_Shift_23
Note_On_99_Vel_0
Time_Shift_11
Note_On_99_Vel_58
Time_Shift_15
Note_On_69_Vel_42
Note_On_81_Vel_47
Time_Shift_59
Note_On_69_Vel_0
Time_Shift_7
Note_On_81_Vel_0
Time_Shift_223
Note_On_99_Vel_0
Time_Shift_615
Sustain_On
Time_Shift_319
Note_On_73_Vel_41
Time_Shift_15
Note_On_63_Vel_39
Time_Shift_1
Note_On_61_Vel_37
Time_Shift_10
Note_On_45_Vel_33
Time_Shift_2
Note_On_33_Vel_32
Time_Shift_989
Note_On_63_Vel_0
Time_Shift_3
Note_On_66_Vel_53
Time_Shift_7
Note_On_63_Vel_41
Time_Shift_5
Note_On_61_Vel_0
Time_Shift_4
Note_On_61_Vel_38
Time_Shift_1
Note_On_57_Vel_38
Time_Shift_705
Note_On_69_Vel_58
Time_Shift_5
Note_On_61_Vel_0
Time_Shift_7
Note_On_63_Vel_0
Time_Shift_3
Note_On_61_Vel_40
Time_Shift_1
Note_On_63_Vel_38
Time_Shift_22
Note_On_54_Vel_31
Time_Shift_5
Note_On_45_Vel_0
Time_Shift_9
Note_On_45_Vel_32
Time_Shift_14
Note_On_33_Vel_0
Time_Shift_694
Note_On_68_Vel_52
Time_Shift_3
Note_On_56_Vel_48
Time_Shift_2
Note_On_61_Vel_0
Note_On_63_Vel_0
Time_Shift_6
Note_On_63_Vel_41
Note_On_61_Vel_49
Time_Shift_2
Note_On_44_Vel_42
Time_Shift_161
Note_On_73_Vel_0
Time_Shift_3
Note_On_54_Vel_0
Note_On_69_Vel_0
Time_Shift_1
Note_On_44_Vel_0
Time_Shift_2
Sustain_Off
Time_Shift_1
Note_On_57_Vel_0
Time_Shift_8
Note_On_56_Vel_0
Note_On_63_Vel_0
Note_On_66_Vel_0
Note_On_68_Vel_0
Time_Shift_11
Note_On_63_Vel_36
Note_On_66_Vel_52
Time_Shift_5
Note_On_61_Vel_0
Time_Shift_7
Note_On_45_Vel_0
Time_Shift_2
Note_On_61_Vel_44
Time_Shift_5
Note_On_57_Vel_41
Note_On_45_Vel_41
Time_Shift_101
Sustain_On
Time_Shift_499
Note_On_61_Vel_0
Note_On_66_Vel_0
Time_Shift_8
Note_On_57_Vel_0
Note_On_63_Vel_0
Time_Shift_1
Note_On_66_Vel_40
Time_Shift_2
Note_On_61_Vel_40
Time_Shift_1
Note_On_63_Vel_37
Time_Shift_6
Note_On_57_Vel_35
Time_Shift_20
Sustain_Off
Time_Shift_146
Sustain_On
Time_Shift_868
Note_On_57_Vel_0
Time_Shift_10
Note_On_57_Vel_30
Time_Shift_35
Note_On_66_Vel_0
Note_On_63_Vel_0
Time_Shift_1
Note_On_61_Vel_0
Time_Shift_4
Sustain_Off
Time_Shift_12
Note_On_45_Vel_0
Time_Shift_39
Note_On_69_Vel_30
Time_Shift_55
Note_On_66_Vel_42
Time_Shift_90
Note_On_73_Vel_50
Time_Shift_39
Note_On_66_Vel_0
Time_Shift_61
Sustain_On
Time_Shift_23
Note_On_76_Vel_47
Time_Shift_116
Note_On_75_Vel_47
Time_Shift_119
Note_On_78_Vel_56
Time_Shift_143
Note_On_85_Vel_47
Time_Shift_232
Note_On_78_Vel_0
Time_Shift_4
Note_On_76_Vel_0
Time_Shift_12
Note_On_73_Vel_0
Time_Shift_3
Note_On_57_Vel_0
Time_Shift_8
Note_On_69_Vel_0
Time_Shift_61
Note_On_87_Vel_51
Time_Shift_29
Sustain_Off
Time_Shift_3
Note_On_81_Vel_35
Time_Shift_3
Note_On_69_Vel_28
Time_Shift_304
Sustain_On
Time_Shift_314
Note_On_85_Vel_0
Time_Shift_315
Note_On_75_Vel_0
Time_Shift_592
Note_On_81_Vel_0
Time_Shift_169
Note_On_69_Vel_0
Sustain_Off
Time_Shift_30
Note_On_87_Vel_0
Time_Shift_146
Sustain_On
Time_Shift_12
Note_On_45_Vel_33
Time_Shift_1
Note_On_33_Vel_33
Time_Shift_3
Sustain_Off
Time_Shift_84
Sustain_On
Time_Shift_1333
Note_On_44_Vel_43
Time_Shift_4
Note_On_32_Vel_36
Time_Shift_239
Note_On_43_Vel_49
Time_Shift_3
Note_On_31_Vel_40
Time_Shift_49
Note_On_45_Vel_0
Time_Shift_1
Note_On_44_Vel_0
Time_Shift_3
Sustain_Off
Time_Shift_12
Note_On_33_Vel_0
Time_Shift_76
Sustain_On
Time_Shift_31
Note_On_32_Vel_0
Time_Shift_808
Note_On_32_Vel_39
Time_Shift_58
Note_On_31_Vel_0
Time_Shift_16
Sustain_Off
Time_Shift_9
Note_On_43_Vel_0
Time_Shift_200
Sustain_On
Time_Shift_296
Note_On_44_Vel_42
Time_Shift_287
Note_On_49_Vel_34
Time_Shift_105
Note_On_51_Vel_31
Time_Shift_131
Note_On_53_Vel_36
Time_Shift_110
Note_On_51_Vel_0
Time_Shift_7
Note_On_51_Vel_36
Time_Shift_131
Note_On_49_Vel_0
Time_Shift_11
Note_On_49_Vel_36
Time_Shift_114
Note_On_68_Vel_51
Time_Shift_18
Note_On_65_Vel_32
Time_Shift_7
Note_On_61_Vel_39
Time_Shift_7
Note_On_56_Vel_38
Time_Shift_127
Note_On_44_Vel_0
Time_Shift_8
Note_On_44_Vel_38
Time_Shift_146
Note_On_32_Vel_0
Time_Shift_6
Note_On_32_Vel_36
Time_Shift_117
Note_On_44_Vel_0
Time_Shift_11
Note_On_44_Vel_49
Time_Shift_135
Note_On_32_Vel_0
Time_Shift_4
Note_On_32_Vel_41
Time_Shift_126
Note_On_44_Vel_0
Time_Shift_12
Note_On_44_Vel_36
Time_Shift_219
Note_On_32_Vel_0
Note_On_44_Vel_0
Time_Shift_5
Note_On_32_Vel_25
Time_Shift_2
Note_On_44_Vel_30
Time_Shift_100
Note_On_73_Vel_55
Note_On_61_Vel_0
Note_On_68_Vel_0
Time_Shift_4
Note_On_68_Vel_51
Time_Shift_7
Note_On_61_Vel_47
Time_Shift_5
Note_On_65_Vel_0
Time_Shift_11
Note_On_65_Vel_35
Time_Shift_4
Note_On_56_Vel_0
Time_Shift_6
Note_On_56_Vel_31
Time_Shift_17
Note_On_51_Vel_0
Note_On_53_Vel_0
Time_Shift_7
Sustain_Off
Time_Shift_16
Note_On_49_Vel_0
Time_Shift_69
Sustain_On
Time_Shift_85
Note_On_44_Vel_0
Time_Shift_8
Note_On_44_Vel_44
Time_Shift_223
Note_On_49_Vel_44
Time_Shift_99
Note_On_51_Vel_36
Time_Shift_111
Note_On_53_Vel_41
Time_Shift_96
Note_On_51_Vel_0
Time_Shift_5
Note_On_51_Vel_23
Time_Shift_103
Note_On_49_Vel_0
Time_Shift_4
Note_On_49_Vel_35
Time_Shift_54
Note_On_75_Vel_67
Time_Shift_3
Note_On_73_Vel_0
Time_Shift_4
Note_On_73_Vel_48
Time_Shift_3
Note_On_63_Vel_50
Time_Shift_1
Note_On_68_Vel_0
Time_Shift_4
Note_On_68_Vel_49
Time_Shift_119
Note_On_44_Vel_0
Time_Shift_4
Note_On_44_Vel_46
Time_Shift_134
Note_On_32_Vel_0
Time_Shift_5
Note_On_32_Vel_35
Time_Shift_79
Note_On_44_Vel_0
Time_Shift_7
Note_On_44_Vel_47
Time_Shift_109
Note_On_32_Vel_0
Time_Shift_5
Note_On_32_Vel_33
Time_Shift_95
Note_On_44_Vel_0
Time_Shift_11
Note_On_44_Vel_47
Time_Shift_142
Note_On_32_Vel_0
Time_Shift_9
Note_On_32_Vel_35
Time_Shift_89
Note_On_77_Vel_72
Time_Shift_10
Note_On_73_Vel_0
Time_Shift_7
Note_On_65_Vel_0
Note_On_68_Vel_0
Time_Shift_3
Note_On_73_Vel_56
Time_Shift_8
Note_On_68_Vel_42
Note_On_65_Vel_45
Time_Shift_12
Note_On_44_Vel_0
Time_Shift_9
Note_On_44_Vel_43
Time_Shift_4
Note_On_49_Vel_0
Note_On_63_Vel_0
Time_Shift_1
Note_On_51_Vel_0
Note_On_53_Vel_0
Time_Shift_2
Note_On_75_Vel_0
Time_Shift_2
Sustain_Off
Time_Shift_5
Note_On_56_Vel_0
Time_Shift_8
Note_On_61_Vel_0
Time_Shift_54
Sustain_On
Time_Shift_92
Note_On_44_Vel_0
Time_Shift_5
Note_On_44_Vel_44
Time_Shift_218
Note_On_49_Vel_44
Time_Shift_96
Note_On_51_Vel_42
Time_Shift_104
Note_On_53_Vel_41
Time_Shift_84
Note_On_51_Vel_0
Time_Shift_8
Note_On_51_Vel_39
Time_Shift_99
Note_On_49_Vel_0
Time_Shift_6
Note_On_49_Vel_43
Time_Shift_117
Note_On_44_Vel_0
Time_Shift_7
Note_On_44_Vel_55
Time_Shift_116
Note_On_32_Vel_0
Time_Shift_11
Note_On_32_Vel_41
Time_Shift_89
Note_On_44_Vel_0
Time_Shift_11
Note_On_44_Vel_47
Time_Shift_127
Note_On_32_Vel_0
Time_Shift_5
Note_On_32_Vel_41
Time_Shift_95
Note_On_44_Vel_0
Time_Shift_4
Note_On_44_Vel_55
Time_Shift_157
Note_On_32_Vel_0
Time_Shift_11
Note_On_32_Vel_40
Time_Shift_105
Note_On_68_Vel_0
Time_Shift_9
Note_On_68_Vel_55
Time_Shift_6
Note_On_44_Vel_0
Note_On_65_Vel_0
Time_Shift_3
Note_On_61_Vel_48
Time_Shift_7
Note_On_44_Vel_40
Time_Shift_1
Note_On_65_Vel_39
Time_Shift_3
Note_On_56_Vel_41
Time_Shift_36
Note_On_53_Vel_0
Note_On_51_Vel_0
Time_Shift_1
Note_On_49_Vel_0
Time_Shift_6
Note_On_77_Vel_0
Time_Shift_12
Note_On_73_Vel_0
Sustain_Off
Time_Shift_85
Sustain_On
Time_Shift_53
Note_On_44_Vel_0
Time_Shift_11
Note_On_44_Vel_45
Time_Shift_209
Note_On_49_Vel_43
Time_Shift_94
Note_On_51_Vel_32
Time_Shift_109
Note_On_53_Vel_43
Time_Shift_92
Note_On_51_Vel_0
Time_Shift_9
Note_On_51_Vel_31
Time_Shift_129
Note_On_49_Vel_0
Time_Shift_9
Note_On_49_Vel_42
Time_Shift_86
Note_On_78_Vel_64
Time_Shift_10
Note_On_66_Vel_51
Time_Shift_13
Note_On_73_Vel_47
Time_Shift_5
Note_On_68_Vel_0
Time_Shift_5
Note_On_68_Vel_48
Time_Shift_102
Note_On_44_Vel_0
Time_Shift_12
Note_On_44_Vel_47
Time_Shift_119
Note_On_32_Vel_0
Time_Shift_4
Note_On_32_Vel_39
Time_Shift_96
Note_On_44_Vel_0
Time_Shift_11
Note_On_44_Vel_55
Time_Shift_112
Note_On_32_Vel_0
Time_Shift_4
Note_On_32_Vel_48
Time_Shift_88
Note_On_44_Vel_0
Time_Shift_9
Note_On_44_Vel_54
Time_Shift_147
Note_On_77_Vel_71
Time_Shift_5
Note_On_73_Vel_0
Time_Shift_8
Note_On_65_Vel_0
Note_On_68_Vel_0
Time_Shift_2
Note_On_73_Vel_54
Time_Shift_3
Note_On_65_Vel_52
Time_Shift_5
Note_On_68_Vel_54
Time_Shift_16
Note_On_61_Vel_0
Time_Shift_2
Note_On_44_Vel_0
Note_On_78_Vel_0
Note_On_53_Vel_0
Time_Shift_10
Note_On_51_Vel_0
Time_Shift_8
Note_On_49_Vel_0
Note_On_66_Vel_0
Time_Shift_8
Note_On_56_Vel_0
Time_Shift_7
Sustain_Off
Time_Shift_75
Note_On_44_Vel_46
Time_Shift_10
Sustain_On
Time_Shift_159
Note_On_49_Vel_52
Time_Shift_91
Note_On_51_Vel_46
Time_Shift_81
Note_On_53_Vel_50
Time_Shift_84
Note_On_51_Vel_0
Time_Shift_9
Note_On_51_Vel_43
Time_Shift_83
Note_On_49_Vel_0
Time_Shift_4
Note_On_49_Vel_51
Time_Shift_26
Note_On_68_Vel_0
Time_Shift_9
Note_On_68_Vel_63
Time_Shift_7
Note_On_65_Vel_0
Time_Shift_2
Note_On_56_Vel_55
Time_Shift_1
Note_On_61_Vel_50
Time_Shift_8
Note_On_65_Vel_50
Time_Shift_50
Note_On_53_Vel_0
Time_Shift_5
Note_On_53_Vel_42
Time_Shift_41
Note_On_44_Vel_0
Time_Shift_5
Note_On_44_Vel_55
Time_Shift_218
Note_On_44_Vel_0
Time_Shift_5
Note_On_44_Vel_53
Time_Shift_103
Note_On_32_Vel_0
Time_Shift_4
Note_On_32_Vel_49
Time_Shift_80
Note_On_44_Vel_0
Time_Shift_6
Note_On_44_Vel_61
Time_Shift_117
Note_On_77_Vel_0
Time_Shift_8
Note_On_32_Vel_0
Time_Shift_3
Note_On_77_Vel_76
Time_Shift_6
Note_On_32_Vel_54
Time_Shift_6
Note_On_65_Vel_0
Time_Shift_4
Note_On_65_Vel_53
Note_On_74_Vel_55
Time_Shift_1
Note_On_71_Vel_58
Sustain_Off
Time_Shift_13
Note_On_61_Vel_0
Time_Shift_1
Note_On_68_Vel_0
Note_On_44_Vel_0
Time_Shift_1
Note_On_53_Vel_0
Note_On_56_Vel_0
Time_Shift_11
Note_On_49_Vel_0
Note_On_51_Vel_0
Note_On_73_Vel_0
Time_Shift_61
Sustain_On
Time_Shift_20
Note_On_44_Vel_52
Time_Shift_80
Note_On_32_Vel_0
Time_Shift_114
Note_On_50_Vel_54
Time_Shift_85
Note_On_51_Vel_57
Time_Shift_88
Note_On_53_Vel_51
Time_Shift_82
Note_On_51_Vel_0
Time_Shift_10
Note_On_51_Vel_50
Time_Shift_97
Note_On_50_Vel_0
Time_Shift_10
Note_On_50_Vel_53
Time_Shift_106
Note_On_80_Vel_75
Time_Shift_7
Note_On_71_Vel_0
Note_On_74_Vel_0
Time_Shift_4
Note_On_74_Vel_57
Time_Shift_2
Note_On_68_Vel_61
Note_On_71_Vel_58
Time_Shift_125
Note_On_44_Vel_0
Time_Shift_8
Note_On_44_Vel_60
Time_Shift_127
Note_On_32_Vel_49
Time_Shift_156
Note_On_44_Vel_0
Time_Shift_8
Note_On_44_Vel_51
Time_Shift_36
Note_On_66_Vel_71
Time_Shift_2
Note_On_71_Vel_0
Time_Shift_4
Note_On_78_Vel_67
Time_Shift_4
Note_On_74_Vel_0
Time_Shift_4
Note_On_71_Vel_59
Time_Shift_1
Note_On_74_Vel_61
Time_Shift_41
Note_On_44_Vel_0
Time_Shift_11
Note_On_44_Vel_37
Time_Shift_51
Note_On_44_Vel_0
Time_Shift_4
Note_On_44_Vel_47
Time_Shift_26
Note_On_77_Vel_0
Time_Shift_7
Note_On_77_Vel_81
Time_Shift_1
Note_On_65_Vel_0
Note_On_71_Vel_0
Note_On_74_Vel_0
Time_Shift_8
Note_On_65_Vel_66
Time_Shift_2
Note_On_71_Vel_59
Note_On_74_Vel_65
Time_Shift_36
Note_On_66_Vel_0
Time_Shift_3
Sustain_Off
Time_Shift_1
Note_On_50_Vel_0
Note_On_51_Vel_0
Note_On_68_Vel_0
Note_On_80_Vel_0
Note_On_53_Vel_0
Time_Shift_27
Note_On_78_Vel_0
Time_Shift_15
Note_On_32_Vel_0
Time_Shift_6
Note_On_32_Vel_47
Time_Shift_33
Sustain_On
Time_Shift_38
Note_On_44_Vel_0
Time_Shift_11
Note_On_44_Vel_57
Time_Shift_81
Note_On_65_Vel_0
Time_Shift_10
Note_On_65_Vel_44
Time_Shift_181
Note_On_82_Vel_82
Time_Shift_11
Note_On_70_Vel_64
Time_Shift_6
Note_On_32_Vel_0
Note_On_44_Vel_0
Time_Shift_4
Note_On_32_Vel_48
Time_Shift_6
Note_On_44_Vel_54
Time_Shift_1
Note_On_78_Vel_51
Time_Shift_3
Note_On_65_Vel_0
Time_Shift_4
Sustain_Off
Time_Shift_5
Note_On_71_Vel_0
Time_Shift_1
Note_On_75_Vel_52
Time_Shift_6
Note_On_74_Vel_0
Note_On_77_Vel_0
Time_Shift_92
Note_On_32_Vel_0
Time_Shift_16
Sustain_On
Time_Shift_15
Note_On_44_Vel_0
Time_Shift_56
Note_On_44_Vel_52
Time_Shift_191
Note_On_51_Vel_48
Time_Shift_93
Note_On_54_Vel_52
Time_Shift_96
Note_On_58_Vel_51
Time_Shift_102
Note_On_54_Vel_0
Time_Shift_7
Note_On_54_Vel_43
Time_Shift_62
Note_On_51_Vel_0
Time_Shift_11
Note_On_51_Vel_48
Time_Shift_112
Note_On_44_Vel_0
Time_Shift_9
Note_On_44_Vel_55
Time_Shift_110
Note_On_32_Vel_53
Time_Shift_80
Note_On_44_Vel_0
Time_Shift_11
Note_On_44_Vel_55
Time_Shift_105
Note_On_32_Vel_0
Time_Shift_6
Note_On_32_Vel_53
Time_Shift_93
Note_On_44_Vel_0
Time_Shift_12
Note_On_44_Vel_51
Time_Shift_203
Note_On_32_Vel_0
Time_Shift_3
Note_On_85_Vel_89
Time_Shift_5
Note_On_44_Vel_0
Note_On_78_Vel_0
Time_Shift_3
Note_On_32_Vel_58
Time_Shift_1
Note_On_73_Vel_75
Note_On_44_Vel_61
Note_On_78_Vel_69
Time_Shift_4
Note_On_75_Vel_0
Time_Shift_6
Note_On_75_Vel_57
Time_Shift_23
Note_On_58_Vel_0
Time_Shift_2
Note_On_82_Vel_0
Time_Shift_2
Note_On_70_Vel_0
Time_Shift_2
Sustain_Off
Time_Shift_11
Note_On_54_Vel_0
Time_Shift_8
Note_On_51_Vel_0
Time_Shift_84
Sustain_On
Time_Shift_8
Note_On_32_Vel_0
Time_Shift_38
Note_On_44_Vel_0
Time_Shift_10
Note_On_44_Vel_58
Time_Shift_195
Note_On_54_Vel_55
Time_Shift_118
Note_On_58_Vel_56
Time_Shift_104
Note_On_63_Vel_54
Time_Shift_103
Note_On_58_Vel_0
Time_Shift_10
Note_On_58_Vel_58
Time_Shift_98
Note_On_54_Vel_0
Time_Shift_11
Note_On_54_Vel_60
Time_Shift_64
Note_On_84_Vel_88
Time_Shift_14
Note_On_72_Vel_71
Time_Shift_3
Note_On_78_Vel_0
Time_Shift_4
Note_On_78_Vel_64
Time_Shift_3
Note_On_75_Vel_0
Time_Shift_10
Note_On_75_Vel_55
Time_Shift_113
Note_On_44_Vel_0
Time_Shift_11
Note_On_44_Vel_55
Time_Shift_131
Note_On_32_Vel_47
Time_Shift_4
Note_On_32_Vel_0
Time_Shift_100
Note_On_44_Vel_0
Time_Shift_11
Note_On_44_Vel_58
Time_Shift_157
Note_On_32_Vel_53
Time_Shift_9
Note_On_32_Vel_0
Note_On_75_Vel_0
Note_On_78_Vel_0
Time_Shift_2
Note_On_82_Vel_85
Time_Shift_2
Note_On_78_Vel_72
Note_On_75_Vel_69
Time_Shift_1
Note_On_70_Vel_71
Time_Shift_156
Note_On_44_Vel_0
Time_Shift_10
Note_On_44_Vel_54
Time_Shift_259
Note_On_70_Vel_0
Note_On_75_Vel_0
Note_On_82_Vel_0
Time_Shift_2
Note_On_32_Vel_46
Time_Shift_2
Note_On_82_Vel_75
Time_Shift_3
Note_On_78_Vel_0
Time_Shift_2
Note_On_75_Vel_57
Time_Shift_2
Note_On_70_Vel_61
Note_On_78_Vel_63
Time_Shift_31
Sustain_Off
Time_Shift_1
Note_On_85_Vel_0
Time_Shift_1
Note_On_84_Vel_0
Time_Shift_1
Note_On_73_Vel_0
Note_On_63_Vel_0
Note_On_72_Vel_0
Time_Shift_1
Note_On_58_Vel_0
Time_Shift_1
Note_On_54_Vel_0
Time_Shift_1
Note_On_44_Vel_0
Time_Shift_105
Sustain_On
Time_Shift_40
Note_On_44_Vel_54
Time_Shift_195
Note_On_51_Vel_49
Time_Shift_94
Note_On_54_Vel_44
Time_Shift_105
Note_On_58_Vel_57
Time_Shift_81
Note_On_54_Vel_0
Time_Shift_10
Note_On_54_Vel_45
Time_Shift_105
Note_On_51_Vel_0
Time_Shift_9
Note_On_51_Vel_45
Time_Shift_53
Note_On_70_Vel_0
Time_Shift_10
Note_On_70_Vel_55
Time_Shift_13
Note_On_58_Vel_0
Time_Shift_2
Note_On_66_Vel_50
Time_Shift_4
Note_On_63_Vel_49
Time_Shift_4
Note_On_58_Vel_48
Time_Shift_105
Note_On_44_Vel_0
Time_Shift_9
Note_On_44_Vel_54
Time_Shift_137
Note_On_32_Vel_0
Time_Shift_8
Note_On_32_Vel_41
Time_Shift_99
Note_On_44_Vel_0
Time_Shift_6
Note_On_44_Vel_59
Time_Shift_94
Note_On_32_Vel_0
Time_Shift_11
Note_On_32_Vel_44
Time_Shift_66
Note_On_44_Vel_0
Time_Shift_8
Note_On_44_Vel_64
Time_Shift_99
Note_On_75_Vel_0
Time_Shift_11
Note_On_75_Vel_71
Time_Shift_5
Note_On_32_Vel_0
Note_On_63_Vel_0
Note_On_66_Vel_0
Note_On_70_Vel_0
Time_Shift_4
Note_On_70_Vel_58
Time_Shift_1
Note_On_58_Vel_0
Note_On_51_Vel_0
Time_Shift_1
Note_On_32_Vel_57
Note_On_44_Vel_0
Time_Shift_2
Note_On_66_Vel_53
Time_Shift_1
Sustain_Off
Time_Shift_2
Note_On_63_Vel_49
Time_Shift_4
Note_On_82_Vel_0
Time_Shift_8
Note_On_54_Vel_0
Note_On_78_Vel_0
Time_Shift_69
Sustain_On
Time_Shift_9
Note_On_32_Vel_0
Time_Shift_9
Note_On_44_Vel_61
Time_Shift_168
Note_On_51_Vel_55
Time_Shift_71
Note_On_54_Vel_62
Time_Shift_87
Note_On_58_Vel_68
Time_Shift_78
Note_On_54_Vel_0
Time_Shift_10
Note_On_54_Vel_65
Time_Shift_67
Note_On_51_Vel_0
Time_Shift_11
Note_On_51_Vel_57
Time_Shift_9
Note_On_77_Vel_83
Time_Shift_11
Note_On_70_Vel_0
Note_On_75_Vel_0
Time_Shift_4
Note_On_65_Vel_64
Note_On_75_Vel_65
Time_Shift_2
Note_On_70_Vel_61
Time_Shift_101
Note_On_44_Vel_0
Time_Shift_7
Note_On_44_Vel_65
Time_Shift_102
Note_On_31_Vel_62
Time_Shift_2
Note_On_32_Vel_62
Time_Shift_5
Note_On_31_Vel_0
Time_Shift_61
Note_On_44_Vel_0
Time_Shift_6
Note_On_44_Vel_63
Time_Shift_102
Note_On_32_Vel_0
Time_Shift_10
Note_On_32_Vel_68
Time_Shift_74
Note_On_44_Vel_0
Time_Shift_7
Note_On_44_Vel_68
Time_Shift_108
Note_On_32_Vel_0
Note_On_44_Vel_0
Note_On_66_Vel_0
Note_On_70_Vel_0
Note_On_75_Vel_0
Time_Shift_5
Note_On_66_Vel_85
Note_On_78_Vel_81
Note_On_75_Vel_78
Time_Shift_4
Note_On_70_Vel_76
Time_Shift_1
Note_On_44_Vel_73
Note_On_32_Vel_70
Time_Shift_10
Note_On_54_Vel_0
Time_Shift_1
Note_On_58_Vel_0
Note_On_65_Vel_0
Sustain_Off
Time_Shift_1
Note_On_77_Vel_0
Time_Shift_9
Note_On_63_Vel_0
Time_Shift_8
Note_On_51_Vel_0
Time_Shift_15
Note_On_44_Vel_0
Time_Shift_38
Sustain_On
Time_Shift_19
Note_On_44_Vel_70
Time_Shift_70
Note_On_54_Vel_56
Time_Shift_11
Note_On_54_Vel_0
Time_Shift_72
Note_On_51_Vel_65
Time_Shift_79
Note_On_54_Vel_69
Time_Shift_89
Note_On_58_Vel_75
Time_Shift_75
Note_On_54_Vel_0
Time_Shift_9
Note_On_54_Vel_68
Time_Shift_83
Note_On_51_Vel_0
Time_Shift_7
Note_On_51_Vel_74
Time_Shift_1
Note_On_70_Vel_0
Note_On_75_Vel_0
Note_On_78_Vel_0
Time_Shift_6
Note_On_82_Vel_94
Note_On_78_Vel_80
Time_Shift_1
Note_On_75_Vel_83
Time_Shift_1
Note_On_70_Vel_82
Time_Shift_107
Note_On_44_Vel_0
Time_Shift_5
Note_On_44_Vel_78
Time_Shift_95
Note_On_32_Vel_0
Time_Shift_6
Note_On_32_Vel_71
Time_Shift_63
Note_On_44_Vel_0
Time_Shift_9
Note_On_44_Vel_78
Time_Shift_83
Note_On_32_Vel_0
Time_Shift_5
Note_On_32_Vel_71
Time_Shift_72
Note_On_44_Vel_0
Time_Shift_5
Note_On_44_Vel_73
Time_Shift_95
Note_On_32_Vel_0
Note_On_44_Vel_0
Note_On_75_Vel_0
Note_On_78_Vel_0
Time_Shift_3
Note_On_84_Vel_101
Time_Shift_2
Note_On_72_Vel_98
Time_Shift_1
Note_On_44_Vel_84
Time_Shift_1
Note_On_32_Vel_81
Time_Shift_2
Note_On_75_Vel_91
Note_On_78_Vel_86
Time_Shift_91
Note_On_44_Vel_0
Time_Shift_4
Note_On_44_Vel_81
Time_Shift_134
Note_On_51_Vel_0
Time_Shift_6
Note_On_51_Vel_67
Time_Shift_63
Note_On_54_Vel_0
Time_Shift_11
Note_On_54_Vel_80
Time_Shift_66
Note_On_58_Vel_0
Time_Shift_7
Note_On_58_Vel_87
Time_Shift_77
Note_On_54_Vel_0
Time_Shift_8
Note_On_54_Vel_84
Time_Shift_77
Note_On_51_Vel_0
Time_Shift_7
Note_On_51_Vel_74
Time_Shift_1
Note_On_75_Vel_0
Note_On_82_Vel_0
Time_Shift_6
Note_On_85_Vel_102
Time_Shift_4
Note_On_73_Vel_106
Note_On_75_Vel_100
Note_On_82_Vel_100
Time_Shift_97
Note_On_44_Vel_0
Time_Shift_5
Note_On_44_Vel_88
Time_Shift_72
Note_On_32_Vel_0
Time_Shift_11
Note_On_32_Vel_73
Time_Shift_73
Note_On_44_Vel_0
Time_Shift_7
Note_On_44_Vel_91
Time_Shift_70
Note_On_32_Vel_0
Time_Shift_10
Note_On_32_Vel_82
Time_Shift_75
Note_On_44_Vel_0
Time_Shift_4
Note_On_44_Vel_90
Time_Shift_88
Note_On_32_Vel_0
Note_On_78_Vel_0
Time_Shift_2
Note_On_86_Vel_108
Note_On_74_Vel_113
Time_Shift_1
Note_On_80_Vel_106
Time_Shift_1
Note_On_78_Vel_101
Time_Shift_1
Note_On_32_Vel_92
Time_Shift_28
Note_On_73_Vel_0
Time_Shift_1
Note_On_51_Vel_0
Note_On_75_Vel_0
Note_On_70_Vel_0
Note_On_58_Vel_0
Note_On_85_Vel_0
Time_Shift_1
Note_On_72_Vel_0
Sustain_Off
Time_Shift_1
Note_On_84_Vel_0
Time_Shift_2
Note_On_66_Vel_0
Time_Shift_16
Note_On_54_Vel_0
Note_On_82_Vel_0
Time_Shift_38
Sustain_On
Time_Shift_123
Note_On_51_Vel_77
Time_Shift_76
Note_On_54_Vel_78
Time_Shift_74
Note_On_60_Vel_84
Time_Shift_65
Note_On_44_Vel_0
Time_Shift_5
Note_On_44_Vel_79
Time_Shift_102
Note_On_32_Vel_0
Note_On_78_Vel_0
Note_On_80_Vel_0
Time_Shift_6
Note_On_32_Vel_91
Time_Shift_5
Note_On_78_Vel_105
Time_Shift_1
Note_On_80_Vel_103
Note_On_75_Vel_110
Time_Shift_1
Note_On_87_Vel_104
Time_Shift_103
Note_On_44_Vel_0
Time_Shift_5
Note_On_44_Vel_78
Time_Shift_171
Note_On_44_Vel_0
Time_Shift_6
Note_On_44_Vel_78
Time_Shift_148
Note_On_51_Vel_0
Time_Shift_5
Note_On_93_Vel_111
Time_Shift_1
Note_On_81_Vel_108
Time_Shift_5
Note_On_51_Vel_83
Time_Shift_89
Note_On_54_Vel_0
Time_Shift_5
Note_On_54_Vel_87
Time_Shift_141
Note_On_60_Vel_0
Note_On_81_Vel_0
Note_On_93_Vel_0
Time_Shift_6
Note_On_60_Vel_96
Time_Shift_2
Note_On_81_Vel_107
Time_Shift_1
Note_On_93_Vel_111
Time_Shift_16
Sustain_Off
Time_Shift_2
Note_On_86_Vel_0
Note_On_87_Vel_0
Note_On_80_Vel_0
Time_Shift_1
Note_On_54_Vel_0
Note_On_44_Vel_0
Note_On_75_Vel_0
Time_Shift_1
Note_On_51_Vel_0
Time_Shift_1
Note_On_74_Vel_0
Time_Shift_8
Note_On_32_Vel_0
Note_On_78_Vel_0
Time_Shift_46
Sustain_On
Time_Shift_92
Note_On_60_Vel_0
Time_Shift_13
Sustain_Off
Time_Shift_10
Note_On_81_Vel_0
Note_On_93_Vel_0
Time_Shift_4
Note_On_93_Vel_101
Time_Shift_1
Note_On_81_Vel_97
Note_On_69_Vel_90
Time_Shift_3
Note_On_57_Vel_88
Time_Shift_42
Note_On_69_Vel_0
Time_Shift_3
Note_On_93_Vel_0
Time_Shift_3
Note_On_57_Vel_0
Time_Shift_13
Note_On_81_Vel_0
Time_Shift_73
Note_On_68_Vel_96
Time_Shift_1
Note_On_56_Vel_90
Time_Shift_2
Note_On_80_Vel_94
Note_On_92_Vel_95
Time_Shift_29
Note_On_68_Vel_0
Time_Shift_6
Note_On_56_Vel_0
Time_Shift_2
Note_On_80_Vel_0
Time_Shift_49
Note_On_92_Vel_0
Time_Shift_42
Note_On_55_Vel_97
Note_On_67_Vel_90
Note_On_91_Vel_93
Note_On_79_Vel_84
Time_Shift_26
Note_On_67_Vel_0
Time_Shift_6
Note_On_55_Vel_0
Note_On_79_Vel_0
Time_Shift_1
Note_On_91_Vel_0
Time_Shift_89
Note_On_63_Vel_96
Note_On_51_Vel_95
Time_Shift_1
Note_On_87_Vel_91
Note_On_75_Vel_88
Time_Shift_35
Note_On_51_Vel_0
Time_Shift_3
Note_On_63_Vel_0
Time_Shift_11
Note_On_87_Vel_0
Time_Shift_16
Note_On_75_Vel_0
Time_Shift_38
Note_On_90_Vel_96
Note_On_78_Vel_94
Time_Shift_3
Note_On_66_Vel_98
Time_Shift_1
Note_On_54_Vel_95
Time_Shift_39
Note_On_54_Vel_0
Time_Shift_3
Note_On_66_Vel_0
Time_Shift_4
Note_On_78_Vel_0
Time_Shift_1
Note_On_90_Vel_0
Time_Shift_84
Note_On_84_Vel_97
Note_On_72_Vel_94
Note_On_60_Vel_92
Time_Shift_2
Note_On_48_Vel_92
Time_Shift_36
Note_On_60_Vel_0
Time_Shift_2
Note_On_72_Vel_0
Time_Shift_2
Note_On_48_Vel_0
Time_Shift_3
Note_On_84_Vel_0
Time_Shift_83
Note_On_68_Vel_91
Time_Shift_1
Note_On_56_Vel_97
Note_On_80_Vel_93
Time_Shift_1
Note_On_44_Vel_96
Time_Shift_36
Note_On_56_Vel_0
Time_Shift_3
Note_On_68_Vel_0
Time_Shift_2
Note_On_80_Vel_0
Time_Shift_4
Note_On_44_Vel_0
Time_Shift_61
Note_On_57_Vel_99
Note_On_81_Vel_98
Time_Shift_2
Note_On_45_Vel_90
Note_On_69_Vel_93
Time_Shift_35
Note_On_57_Vel_0
Time_Shift_1
Note_On_69_Vel_0
Time_Shift_5
Note_On_81_Vel_0
Note_On_45_Vel_0
Time_Shift_62
Note_On_79_Vel_101
Note_On_67_Vel_91
Time_Shift_3
Note_On_55_Vel_94
Time_Shift_1
Note_On_43_Vel_91
Time_Shift_31
Note_On_55_Vel_0
Note_On_67_Vel_0
Time_Shift_4
Note_On_79_Vel_0
Time_Shift_1
Note_On_43_Vel_0
Time_Shift_65
Note_On_51_Vel_106
Time_Shift_1
Note_On_63_Vel_100
Note_On_39_Vel_98
Time_Shift_1
Note_On_75_Vel_101
Time_Shift_35
Note_On_51_Vel_0
Time_Shift_6
Note_On_39_Vel_0
Time_Shift_2
Note_On_75_Vel_0
Time_Shift_20
Note_On_63_Vel_0
Time_Shift_35
Note_On_42_Vel_103
Note_On_54_Vel_103
Time_Shift_2
Note_On_78_Vel_92
Time_Shift_1
Note_On_66_Vel_94
Time_Shift_34
Note_On_54_Vel_0
Time_Shift_2
Note_On_66_Vel_0
Time_Shift_4
Note_On_42_Vel_0
Time_Shift_2
Note_On_78_Vel_0
Time_Shift_69
Note_On_72_Vel_100
Time_Shift_1
Note_On_60_Vel_103
Note_On_48_Vel_105
Time_Shift_3
Note_On_36_Vel_98
Time_Shift_35
Note_On_48_Vel_0
Time_Shift_3
Note_On_36_Vel_0
Time_Shift_2
Note_On_60_Vel_0
Time_Shift_2
Note_On_72_Vel_0
Time_Shift_78
Note_On_55_Vel_105
Time_Shift_1
Note_On_67_Vel_92
Time_Shift_3
Note_On_43_Vel_102
Time_Shift_2
Note_On_31_Vel_95
Time_Shift_38
Note_On_55_Vel_0
Time_Shift_2
Note_On_43_Vel_0
Time_Shift_3
Note_On_31_Vel_0
Time_Shift_39
Note_On_67_Vel_0
Time_Shift_34
Note_On_32_Vel_99
Note_On_56_Vel_107
Note_On_44_Vel_106
Time_Shift_1
Note_On_68_Vel_100
Time_Shift_59
Note_On_56_Vel_0
Time_Shift_2
Note_On_44_Vel_0
Note_On_32_Vel_0
Time_Shift_1
Note_On_68_Vel_0
Time_Shift_58
Note_On_57_Vel_105
Time_Shift_1
Note_On_69_Vel_105
Time_Shift_3
Note_On_45_Vel_101
Time_Shift_4
Note_On_33_Vel_99
Time_Shift_33
Note_On_57_Vel_0
Time_Shift_2
Note_On_69_Vel_0
Time_Shift_5
Note_On_45_Vel_0
Note_On_33_Vel_0
Time_Shift_90
Note_On_63_Vel_96
Time_Shift_2
Note_On_51_Vel_108
Note_On_39_Vel_104
Time_Shift_2
Note_On_27_Vel_104
Time_Shift_22
Note_On_61_Vel_39
Time_Shift_34
Note_On_27_Vel_0
Time_Shift_16
Note_On_39_Vel_0
Time_Shift_3
Note_On_51_Vel_0
Time_Shift_19
Note_On_63_Vel_0
Time_Shift_8
Note_On_61_Vel_0
Time_Shift_41
Note_On_56_Vel_112
Time_Shift_1
Note_On_68_Vel_111
Time_Shift_3
Note_On_44_Vel_109
Note_On_32_Vel_103
Time_Shift_3
Note_On_63_Vel_89
Time_Shift_36
Sustain_On
Time_Shift_200
Note_On_44_Vel_0
Time_Shift_4
Note_On_44_Vel_63
Time_Shift_50
Note_On_37_Vel_96
Time_Shift_61
Note_On_32_Vel_0
Time_Shift_4
Note_On_45_Vel_89
Time_Shift_4
Note_On_44_Vel_0
Time_Shift_11
Note_On_44_Vel_83
Time_Shift_43
Note_On_44_Vel_0
Time_Shift_10
Note_On_44_Vel_84
Sustain_Off
Time_Shift_18
Note_On_45_Vel_0
Time_Shift_2
Note_On_63_Vel_0
Time_Shift_4
Note_On_37_Vel_0
Time_Shift_4
Note_On_68_Vel_0
Time_Shift_8
Note_On_56_Vel_0
Time_Shift_23
Note_On_44_Vel_0
Time_Shift_58
Note_On_63_Vel_79
Time_Shift_58
Note_On_61_Vel_78
Time_Shift_34
Note_On_39_Vel_81
Time_Shift_9
Note_On_61_Vel_0
Time_Shift_13
Note_On_55_Vel_76
Note_On_58_Vel_70
Time_Shift_4
Note_On_63_Vel_0
Time_Shift_5
Note_On_52_Vel_90
Time_Shift_38
Note_On_39_Vel_0
Time_Shift_10
Note_On_56_Vel_80
Time_Shift_1
Note_On_55_Vel_0
Time_Shift_21
Note_On_51_Vel_84
Time_Shift_18
Note_On_56_Vel_0
Time_Shift_4
Note_On_52_Vel_0
Time_Shift_19
Note_On_58_Vel_0
Time_Shift_14
Note_On_55_Vel_84
Time_Shift_16
Note_On_51_Vel_0
Time_Shift_18
Note_On_55_Vel_0
Time_Shift_33
Note_On_64_Vel_81
Time_Shift_44
Note_On_64_Vel_0
Time_Shift_7
Note_On_63_Vel_78
Time_Shift_47
Note_On_63_Vel_0
Time_Shift_5
Note_On_61_Vel_79
Time_Shift_37
Note_On_57_Vel_80
Time_Shift_19
Note_On_61_Vel_0
Time_Shift_10
Note_On_60_Vel_75
Time_Shift_54
Note_On_60_Vel_0
Time_Shift_2
Note_On_57_Vel_0
Time_Shift_1
Note_On_56_Vel_80
Time_Shift_18
Note_On_61_Vel_74
Time_Shift_49
Note_On_55_Vel_78
Time_Shift_2
Note_On_61_Vel_0
Time_Shift_2
Note_On_56_Vel_0
Time_Shift_14
Note_On_60_Vel_74
Time_Shift_43
Note_On_60_Vel_0
Time_Shift_14
Note_On_55_Vel_0
Time_Shift_1
Note_On_54_Vel_74
Time_Shift_9
Note_On_69_Vel_76
Time_Shift_29
Note_On_53_Vel_76
Time_Shift_11
Note_On_54_Vel_0
Time_Shift_8
Note_On_69_Vel_0
Time_Shift_5
Note_On_68_Vel_82
Time_Shift_24
Note_On_53_Vel_0
Time_Shift_26
Note_On_68_Vel_0
Time_Shift_4
Note_On_52_Vel_73
Time_Shift_11
Note_On_67_Vel_77
Time_Shift_34
Note_On_51_Vel_87
Time_Shift_13
Note_On_66_Vel_83
Time_Shift_9
Note_On_52_Vel_0
Time_Shift_6
Note_On_67_Vel_0
Time_Shift_8
Note_On_44_Vel_77
Time_Shift_63
Note_On_44_Vel_0
Time_Shift_4
Note_On_60_Vel_76
Time_Shift_1
Note_On_68_Vel_76
Time_Shift_5
Note_On_66_Vel_0
Time_Shift_17
Note_On_51_Vel_0
Time_Shift_4
Note_On_60_Vel_0
Time_Shift_2
Note_On_68_Vel_0
Time_Shift_53
Note_On_76_Vel_70
Time_Shift_1
Note_On_77_Vel_62
Time_Shift_9
Note_On_77_Vel_0
Time_Shift_35
Note_On_76_Vel_0
Time_Shift_1
Note_On_75_Vel_82
Time_Shift_52
Note_On_66_Vel_87
Time_Shift_12
Note_On_75_Vel_0
Time_Shift_29
Note_On_49_Vel_92
Time_Shift_8
Note_On_64_Vel_66
Time_Shift_13
Note_On_66_Vel_0
Time_Shift_13
Note_On_57_Vel_82
Time_Shift_6
Note_On_49_Vel_0
Time_Shift_31
Note_On_64_Vel_0
Time_Shift_25
Note_On_69_Vel_77
Time_Shift_14
Note_On_56_Vel_86
Time_Shift_13
Note_On_57_Vel_0
Time_Shift_14
Note_On_69_Vel_0
Time_Shift_9
Note_On_56_Vel_0
Time_Shift_12
Note_On_68_Vel_86
Time_Shift_40
Note_On_68_Vel_0
Time_Shift_22
Note_On_76_Vel_80
Time_Shift_39
Note_On_76_Vel_0
Time_Shift_6
Note_On_75_Vel_86
Time_Shift_39
Note_On_73_Vel_80
Time_Shift_5
Note_On_75_Vel_0
Time_Shift_34
Note_On_51_Vel_95
Time_Shift_1
Note_On_73_Vel_0
Time_Shift_6
Note_On_39_Vel_77
Time_Shift_3
Note_On_67_Vel_83
Time_Shift_18
Note_On_64_Vel_85
Time_Shift_18
Note_On_51_Vel_0
Time_Shift_8
Note_On_67_Vel_0
Time_Shift_4
Note_On_39_Vel_0
Time_Shift_8
Note_On_64_Vel_0
Time_Shift_16
Note_On_68_Vel_88
Time_Shift_26
Note_On_63_Vel_82
Time_Shift_21
Note_On_68_Vel_0
Time_Shift_22
Note_On_67_Vel_79
Time_Shift_1
Note_On_63_Vel_0
Time_Shift_46
Note_On_67_Vel_0
Time_Shift_14
Note_On_76_Vel_80
Time_Shift_46
Note_On_76_Vel_0
Time_Shift_4
Note_On_67_Vel_63
Time_Shift_1
Note_On_75_Vel_80
Time_Shift_45
Note_On_73_Vel_82
Time_Shift_3
Note_On_75_Vel_0
Time_Shift_10
Note_On_75_Vel_65
Time_Shift_20
Note_On_73_Vel_0
Time_Shift_1
Note_On_67_Vel_0
Time_Shift_10
Note_On_69_Vel_82
Time_Shift_6
Note_On_75_Vel_0
Time_Shift_3
Note_On_72_Vel_74
Time_Shift_28
Note_On_69_Vel_0
Time_Shift_1
Note_On_72_Vel_0
Time_Shift_24
Note_On_68_Vel_85
Note_On_73_Vel_74
Time_Shift_33
Note_On_68_Vel_0
Time_Shift_26
Note_On_73_Vel_0
Time_Shift_9
Note_On_67_Vel_79
Time_Shift_1
Note_On_72_Vel_82
Time_Shift_33
Note_On_67_Vel_0
Time_Shift_6
Note_On_72_Vel_0
Time_Shift_18
Note_On_81_Vel_83
Time_Shift_3
Note_On_66_Vel_69
Time_Shift_41
Note_On_66_Vel_0
Time_Shift_4
Note_On_65_Vel_82
Time_Shift_6
Note_On_80_Vel_83
Time_Shift_5
Note_On_81_Vel_0
Time_Shift_24
Note_On_65_Vel_0
Time_Shift_37
Note_On_64_Vel_78
Note_On_79_Vel_82
Note_On_80_Vel_0
Time_Shift_37
Note_On_64_Vel_0
Time_Shift_4
Note_On_78_Vel_79
Time_Shift_4
Note_On_79_Vel_0
Time_Shift_2
Note_On_63_Vel_90
Time_Shift_46
Note_On_56_Vel_79
Time_Shift_21
Note_On_80_Vel_89
Time_Shift_37
Note_On_78_Vel_0
Time_Shift_5
Note_On_72_Vel_83
Note_On_78_Vel_70
Time_Shift_14
Note_On_80_Vel_0
Time_Shift_4
Note_On_63_Vel_0
Time_Shift_4
Note_On_72_Vel_0
Time_Shift_11
Note_On_56_Vel_0
Time_Shift_31
Note_On_78_Vel_0
Time_Shift_2
Note_On_88_Vel_76
Time_Shift_54
Note_On_87_Vel_79
Time_Shift_21
Note_On_88_Vel_0
Time_Shift_41
Note_On_87_Vel_0
Time_Shift_1
Note_On_79_Vel_79
Time_Shift_47
Note_On_79_Vel_0
Time_Shift_4
Note_On_49_Vel_93
Time_Shift_3
Note_On_37_Vel_90
Time_Shift_3
Note_On_76_Vel_86
Time_Shift_54
Note_On_49_Vel_0
Time_Shift_39
Note_On_76_Vel_0
Time_Shift_8
Note_On_76_Vel_73
Time_Shift_47
Note_On_73_Vel_104
Time_Shift_1
Note_On_61_Vel_99
Time_Shift_38
Note_On_61_Vel_0
Time_Shift_2
Note_On_76_Vel_0
Time_Shift_1
Note_On_73_Vel_0
Time_Shift_10
Note_On_37_Vel_0
Time_Shift_63
Note_On_76_Vel_88
Time_Shift_33
Note_On_76_Vel_0
Time_Shift_92
Note_On_51_Vel_105
Time_Shift_1
Note_On_39_Vel_99
Time_Shift_1
Note_On_73_Vel_80
Time_Shift_66
Note_On_39_Vel_0
Time_Shift_3
Note_On_78_Vel_75
Time_Shift_18
Note_On_73_Vel_0
Time_Shift_4
Note_On_51_Vel_0
Time_Shift_42
Note_On_78_Vel_0
Time_Shift_24
Note_On_73_Vel_98
Time_Shift_1
Note_On_61_Vel_96
Time_Shift_26
Note_On_61_Vel_0
Time_Shift_1
Note_On_73_Vel_0
Time_Shift_24
Note_On_76_Vel_49
Time_Shift_57
Note_On_87_Vel_80
Time_Shift_20
Note_On_76_Vel_0
Time_Shift_23
Note_On_87_Vel_0
Time_Shift_5
Note_On_85_Vel_82
Time_Shift_6
Note_On_87_Vel_67
Time_Shift_68
Note_On_76_Vel_80
Time_Shift_1
Note_On_52_Vel_100
Time_Shift_1
Note_On_40_Vel_99
Time_Shift_10
Note_On_80_Vel_85
Time_Shift_24
Note_On_85_Vel_0
Note_On_87_Vel_0
Time_Shift_59
Note_On_81_Vel_88
Time_Shift_64
Note_On_80_Vel_0
Time_Shift_8
Note_On_52_Vel_0
Time_Shift_1
Note_On_73_Vel_105
Note_On_80_Vel_93
Time_Shift_3
Note_On_61_Vel_103
Time_Shift_6
Note_On_52_Vel_80
Time_Shift_4
Note_On_76_Vel_0
Time_Shift_4
Note_On_81_Vel_0
Time_Shift_13
Note_On_40_Vel_0
Time_Shift_15
Note_On_52_Vel_0
Note_On_61_Vel_0
Note_On_73_Vel_0
Time_Shift_8
Note_On_80_Vel_0
Time_Shift_21
Note_On_88_Vel_85
Time_Shift_74
Note_On_87_Vel_79
Time_Shift_54
Note_On_85_Vel_86
Time_Shift_13
Note_On_87_Vel_0
Time_Shift_38
Note_On_54_Vel_105
Time_Shift_3
Note_On_42_Vel_106
Time_Shift_12
Note_On_81_Vel_78
Time_Shift_31
Note_On_88_Vel_0
Time_Shift_7
Note_On_85_Vel_0
Time_Shift_35
Note_On_83_Vel_86
Time_Shift_57
Note_On_81_Vel_0
Time_Shift_8
Note_On_61_Vel_104
Time_Shift_1
Note_On_73_Vel_109
Time_Shift_1
Note_On_81_Vel_90
Time_Shift_7
Note_On_42_Vel_0
Time_Shift_1
Note_On_54_Vel_0
Note_On_83_Vel_0
Time_Shift_17
Note_On_61_Vel_0
Time_Shift_19
Note_On_73_Vel_0
Time_Shift_29
Note_On_88_Vel_83
Time_Shift_2
Note_On_83_Vel_76
Note_On_81_Vel_0
Time_Shift_56
Note_On_87_Vel_85
Time_Shift_44
Note_On_83_Vel_0
Time_Shift_15
Note_On_88_Vel_0
Time_Shift_4
Note_On_85_Vel_83
Time_Shift_4
Note_On_88_Vel_62
Time_Shift_25
Note_On_87_Vel_0
Time_Shift_11
Note_On_85_Vel_0
Time_Shift_33
Note_On_88_Vel_0
Time_Shift_9
Note_On_47_Vel_101
Time_Shift_2
Note_On_35_Vel_104
Time_Shift_6
Note_On_75_Vel_87
Time_Shift_29
Sustain_On
Time_Shift_48
Note_On_76_Vel_76
Time_Shift_75
Note_On_75_Vel_0
Time_Shift_4
Note_On_75_Vel_97
Time_Shift_5
Note_On_59_Vel_92
Note_On_71_Vel_99
Time_Shift_60
Note_On_76_Vel_0
Time_Shift_4
Note_On_35_Vel_0
Note_On_71_Vel_0
Time_Shift_1
Note_On_59_Vel_0
Note_On_47_Vel_0
Time_Shift_1
Note_On_75_Vel_0
Time_Shift_1
Note_On_76_Vel_73
Time_Shift_6
Sustain_Off
Time_Shift_25
Note_On_76_Vel_0
Time_Shift_13
Note_On_85_Vel_76
Time_Shift_68
Note_On_83_Vel_84
Note_On_85_Vel_0
Time_Shift_42
Note_On_83_Vel_0
Time_Shift_29
Note_On_49_Vel_103
Time_Shift_3
Note_On_37_Vel_99
Time_Shift_1
Note_On_76_Vel_89
Time_Shift_44
Note_On_49_Vel_0
Time_Shift_28
Note_On_78_Vel_89
Time_Shift_3
Note_On_37_Vel_0
Time_Shift_3
Note_On_76_Vel_0
Time_Shift_65
Note_On_76_Vel_95
Note_On_71_Vel_105
Time_Shift_2
Note_On_59_Vel_100
Time_Shift_14
Note_On_78_Vel_0
Time_Shift_19
Note_On_59_Vel_0
Note_On_71_Vel_0
Time_Shift_39
Note_On_78_Vel_77
Time_Shift_6
Note_On_85_Vel_79
Time_Shift_5
Note_On_76_Vel_0
Note_On_78_Vel_0
Time_Shift_31
Note_On_85_Vel_0
Time_Shift_10
Note_On_85_Vel_76
Time_Shift_9
Note_On_87_Vel_59
Time_Shift_41
Note_On_83_Vel_82
Time_Shift_4
Note_On_87_Vel_0
Time_Shift_2
Note_On_85_Vel_0
Time_Shift_76
Note_On_51_Vel_104
Time_Shift_1
Note_On_85_Vel_83
Time_Shift_1
Note_On_39_Vel_98
Time_Shift_41
Note_On_51_Vel_0
Time_Shift_4
Note_On_39_Vel_0
Time_Shift_26
Note_On_83_Vel_0
Time_Shift_11
Note_On_80_Vel_83
Time_Shift_4
Note_On_85_Vel_0
Time_Shift_41
Note_On_80_Vel_0
Time_Shift_20
Note_On_71_Vel_103
Time_Shift_3
Note_On_78_Vel_94
Note_On_59_Vel_101
Time_Shift_26
Note_On_59_Vel_0
Time_Shift_6
Note_On_71_Vel_0
Time_Shift_45
Note_On_87_Vel_86
Time_Shift_25
Note_On_85_Vel_73
Time_Shift_16
Note_On_87_Vel_0
Time_Shift_59
Note_On_83_Vel_72
Time_Shift_36
Note_On_78_Vel_0
Time_Shift_37
Note_On_52_Vel_107
Time_Shift_2
Note_On_76_Vel_81
Time_Shift_3
Note_On_40_Vel_102
Note_On_80_Vel_82
Time_Shift_50
Note_On_85_Vel_0
Note_On_52_Vel_0
Time_Shift_3
Note_On_40_Vel_0
Time_Shift_23
Note_On_80_Vel_0
Time_Shift_6
Note_On_81_Vel_83
Time_Shift_4
Note_On_83_Vel_0
Time_Shift_18
Note_On_76_Vel_0
Time_Shift_49
Note_On_71_Vel_99
Note_On_80_Vel_93
Note_On_59_Vel_102
Time_Shift_1
Note_On_52_Vel_85
Time_Shift_8
Note_On_81_Vel_0
Time_Shift_25
Note_On_59_Vel_0
Time_Shift_11
Note_On_52_Vel_0
Time_Shift_13
Note_On_71_Vel_0
Time_Shift_26
Note_On_87_Vel_88
Time_Shift_5
Note_On_80_Vel_0
Time_Shift_2
Note_On_85_Vel_77
Time_Shift_83
Note_On_83_Vel_79
Time_Shift_4
Note_On_80_Vel_60
Time_Shift_4
Note_On_87_Vel_0
Time_Shift_2
Note_On_85_Vel_0
Time_Shift_59
Note_On_80_Vel_0
Time_Shift_7
Note_On_83_Vel_0
Time_Shift_23
Note_On_45_Vel_112
Time_Shift_3
Note_On_33_Vel_102
Time_Shift_1
Note_On_76_Vel_90
Time_Shift_1
Note_On_85_Vel_90
Time_Shift_42
Sustain_On
Time_Shift_53
Note_On_85_Vel_0
Time_Shift_6
Note_On_85_Vel_86
Time_Shift_84
Note_On_73_Vel_82
Time_Shift_2
Note_On_76_Vel_0
Time_Shift_6
Note_On_76_Vel_68
Time_Shift_50
Note_On_75_Vel_75
Time_Shift_56
Note_On_78_Vel_63
Time_Shift_65
Note_On_76_Vel_0
Time_Shift_4
Note_On_76_Vel_72
Time_Shift_65
Note_On_64_Vel_102
Note_On_76_Vel_0
Time_Shift_4
Note_On_61_Vel_98
Time_Shift_1
Note_On_76_Vel_96
Note_On_57_Vel_90
Time_Shift_2
Note_On_52_Vel_88
Time_Shift_5
Note_On_55_Vel_80
Sustain_Off
Time_Shift_90
Note_On_79_Vel_80
Time_Shift_29
Sustain_On
Time_Shift_38
Note_On_76_Vel_0
Time_Shift_8
Note_On_76_Vel_78
Time_Shift_54
Note_On_78_Vel_0
Time_Shift_11
Note_On_78_Vel_81
Time_Shift_62
Note_On_81_Vel_83
Time_Shift_65
Note_On_79_Vel_0
Time_Shift_5
Note_On_79_Vel_81
Time_Shift_79
Note_On_57_Vel_0
Note_On_61_Vel_0
Note_On_64_Vel_0
Time_Shift_5
Note_On_69_Vel_102
Note_On_67_Vel_97
Time_Shift_1
Note_On_64_Vel_80
Note_On_57_Vel_99
Time_Shift_1
Note_On_61_Vel_92
Time_Shift_1
Note_On_76_Vel_0
Time_Shift_4
Note_On_76_Vel_77
Time_Shift_6
Note_On_52_Vel_0
Time_Shift_13
Sustain_Off
Time_Shift_8
Note_On_45_Vel_0
Note_On_76_Vel_0
Time_Shift_7
Note_On_33_Vel_0
Time_Shift_2
Note_On_76_Vel_64
Time_Shift_21
Note_On_75_Vel_0
Time_Shift_8
Sustain_On
Time_Shift_8
Note_On_73_Vel_0
Note_On_79_Vel_0
Note_On_85_Vel_0
Time_Shift_10
Note_On_79_Vel_74
Time_Shift_1
Note_On_85_Vel_86
Time_Shift_4
Note_On_81_Vel_0
Time_Shift_4
Note_On_81_Vel_66
Time_Shift_3
Note_On_91_Vel_80
Time_Shift_9
Note_On_91_Vel_0
Time_Shift_15
Note_On_78_Vel_0
Time_Shift_54
Note_On_79_Vel_0
Time_Shift_11
Note_On_79_Vel_75
Time_Shift_69
Note_On_84_Vel_74
Time_Shift_89
Note_On_57_Vel_0
Note_On_61_Vel_0
Note_On_64_Vel_0
Note_On_67_Vel_0
Note_On_69_Vel_0
Time_Shift_5
Note_On_69_Vel_95
Time_Shift_1
Note_On_64_Vel_93
Note_On_67_Vel_95
Time_Shift_1
Note_On_61_Vel_90
Time_Shift_3
Note_On_57_Vel_90
Time_Shift_59
Note_On_85_Vel_0
Time_Shift_10
Note_On_85_Vel_86
Time_Shift_90
Note_On_57_Vel_0
Time_Shift_7
Note_On_69_Vel_0
Note_On_85_Vel_0
Time_Shift_4
Note_On_57_Vel_105
Note_On_69_Vel_102
Time_Shift_6
Note_On_85_Vel_93
Time_Shift_1
Note_On_88_Vel_89
Time_Shift_26
Sustain_Off
Time_Shift_9
Note_On_81_Vel_0
Time_Shift_8
Note_On_76_Vel_0
Time_Shift_15
Note_On_55_Vel_0
Note_On_84_Vel_0
Time_Shift_8
Note_On_79_Vel_0
Time_Shift_12
Note_On_97_Vel_83
Time_Shift_1
Note_On_91_Vel_84
Time_Shift_18
Note_On_64_Vel_0
Time_Shift_7
Note_On_88_Vel_0
Time_Shift_8
Note_On_57_Vel_0
Note_On_61_Vel_0
Note_On_69_Vel_0
Time_Shift_8
Note_On_85_Vel_0
Time_Shift_23
Note_On_67_Vel_0
Time_Shift_10
Note_On_69_Vel_106
Time_Shift_1
Note_On_57_Vel_104
Time_Shift_1
Note_On_88_Vel_89
Time_Shift_7
Note_On_85_Vel_86
Time_Shift_32
Note_On_69_Vel_0
Time_Shift_3
Note_On_97_Vel_0
Time_Shift_7
Sustain_On
Time_Shift_35
Note_On_90_Vel_79
Time_Shift_11
Note_On_57_Vel_0
Time_Shift_8
Note_On_91_Vel_0
Time_Shift_5
Note_On_91_Vel_76
Time_Shift_31
Note_On_69_Vel_98
Time_Shift_3
Note_On_57_Vel_94
Time_Shift_4
Note_On_93_Vel_89
Time_Shift_26
Note_On_88_Vel_0
Time_Shift_16
Note_On_85_Vel_0
Time_Shift_15
Note_On_91_Vel_0
Time_Shift_4
Note_On_91_Vel_90
Time_Shift_27
Note_On_90_Vel_0
Time_Shift_7
Note_On_69_Vel_0
Time_Shift_16
Note_On_57_Vel_0
Time_Shift_7
Note_On_88_Vel_90
Time_Shift_2
Note_On_57_Vel_108
Time_Shift_3
Note_On_69_Vel_110
Time_Shift_69
Note_On_96_Vel_94
Time_Shift_3
Note_On_93_Vel_0
Time_Shift_2
Note_On_100_Vel_93
Time_Shift_64
Note_On_97_Vel_85
Time_Shift_49
Note_On_91_Vel_0
Time_Shift_8
Note_On_91_Vel_94
Time_Shift_38
Note_On_69_Vel_0
Time_Shift_4
Note_On_69_Vel_82
Time_Shift_50
Note_On_88_Vel_0
Time_Shift_11
Note_On_88_Vel_78
Time_Shift_1
Note_On_84_Vel_93
Time_Shift_47
Note_On_85_Vel_85
Time_Shift_49
Note_On_69_Vel_0
Time_Shift_4
Note_On_69_Vel_102
Time_Shift_2
Note_On_76_Vel_111
Time_Shift_5
Note_On_79_Vel_93
Time_Shift_17
Sustain_Off
Time_Shift_2
Note_On_57_Vel_0
Time_Shift_2
Note_On_84_Vel_0
Time_Shift_1
Note_On_88_Vel_0
Note_On_91_Vel_0
Time_Shift_2
Note_On_97_Vel_0
Note_On_85_Vel_0
Time_Shift_3
Note_On_96_Vel_0
Time_Shift_15
Note_On_100_Vel_0
Time_Shift_16
Note_On_79_Vel_0
Time_Shift_15
Sustain_On
Time_Shift_9
Note_On_84_Vel_95
Time_Shift_22
Note_On_76_Vel_0
Time_Shift_36
Note_On_85_Vel_87
Time_Shift_63
Note_On_79_Vel_75
Time_Shift_28
Note_On_76_Vel_66
Time_Shift_65
Note_On_76_Vel_0
Time_Shift_5
Note_On_72_Vel_80
Note_On_76_Vel_79
Time_Shift_50
Note_On_73_Vel_83
Time_Shift_54
Note_On_57_Vel_108
Time_Shift_1
Note_On_64_Vel_98
Time_Shift_1
Note_On_67_Vel_84
Time_Shift_15
Note_On_76_Vel_0
Sustain_Off
Note_On_72_Vel_0
Time_Shift_4
Note_On_85_Vel_0
Note_On_84_Vel_0
Time_Shift_3
Note_On_73_Vel_0
Time_Shift_20
Note_On_79_Vel_0
Time_Shift_16
Note_On_69_Vel_0
Time_Shift_15
Note_On_64_Vel_0
Time_Shift_14
Note_On_72_Vel_78
Time_Shift_2
Note_On_76_Vel_85
Time_Shift_7
Sustain_On
Time_Shift_51
Note_On_73_Vel_85
Time_Shift_57
Note_On_67_Vel_0
Time_Shift_5
Note_On_67_Vel_72
Time_Shift_18
Note_On_57_Vel_0
Time_Shift_82
Note_On_64_Vel_66
Time_Shift_1
Note_On_60_Vel_75
Time_Shift_57
Note_On_61_Vel_78
Time_Shift_57
Sustain_Off
Time_Shift_6
Note_On_33_Vel_93
Time_Shift_1
Note_On_45_Vel_103
Time_Shift_22
Note_On_73_Vel_0
Time_Shift_2
Note_On_60_Vel_0
Time_Shift_3
Note_On_72_Vel_0
Time_Shift_7
Note_On_76_Vel_0
Time_Shift_31
Sustain_On
Time_Shift_7
Note_On_61_Vel_0
Time_Shift_7
Note_On_61_Vel_87
Time_Shift_16
Note_On_33_Vel_0
Time_Shift_9
Note_On_33_Vel_66
Time_Shift_54
Note_On_63_Vel_87
Time_Shift_53
Note_On_61_Vel_0
Time_Shift_5
Note_On_61_Vel_84
Time_Shift_50
Note_On_55_Vel_85
Time_Shift_60
Note_On_64_Vel_0
Time_Shift_10
Note_On_64_Vel_76
Time_Shift_74
Sustain_Off
Time_Shift_5
Note_On_45_Vel_0
Time_Shift_1
Note_On_44_Vel_109
Note_On_55_Vel_0
Note_On_33_Vel_0
Time_Shift_1
Note_On_61_Vel_0
Time_Shift_1
Note_On_63_Vel_0
Time_Shift_3
Note_On_32_Vel_101
Time_Shift_1
Note_On_56_Vel_107
Time_Shift_2
Note_On_68_Vel_102
Note_On_63_Vel_76
Time_Shift_9
Note_On_64_Vel_0
Note_On_67_Vel_0
Time_Shift_62
Sustain_On
Time_Shift_15
Note_On_44_Vel_0
Time_Shift_49
Note_On_44_Vel_57
Time_Shift_63
Sustain_Off
Time_Shift_12
Note_On_63_Vel_0
Time_Shift_1
Note_On_68_Vel_0
Time_Shift_2
Note_On_44_Vel_0
Time_Shift_19
Note_On_32_Vel_0
Time_Shift_8
Note_On_56_Vel_0
Time_Shift_46
Sustain_On
Time_Shift_7
Note_On_32_Vel_75
Time_Shift_3
Note_On_43_Vel_70
Time_Shift_84
Note_On_44_Vel_77
Time_Shift_59
Note_On_43_Vel_0
Time_Shift_6
Note_On_43_Vel_75
Time_Shift_2
Note_On_32_Vel_0
Time_Shift_23
Note_On_44_Vel_0
Sustain_Off
Time_Shift_10
Note_On_57_Vel_100
Note_On_69_Vel_99
Time_Shift_1
Note_On_44_Vel_79
Note_On_66_Vel_93
Time_Shift_58
Note_On_44_Vel_0
Time_Shift_4
Note_On_44_Vel_75
Time_Shift_12
Sustain_On
Time_Shift_43
Note_On_45_Vel_72
Time_Shift_64
Note_On_44_Vel_0
Time_Shift_5
Note_On_44_Vel_67
Time_Shift_10
Note_On_43_Vel_0
Time_Shift_8
Note_On_45_Vel_0
Time_Shift_7
Note_On_45_Vel_61
Time_Shift_39
Note_On_44_Vel_0
Time_Shift_4
Note_On_44_Vel_75
Time_Shift_19
Note_On_57_Vel_0
Time_Shift_4
Note_On_57_Vel_74
Time_Shift_58
Note_On_44_Vel_0
Time_Shift_11
Note_On_44_Vel_92
Time_Shift_46
Note_On_63_Vel_84
Time_Shift_2
Note_On_54_Vel_82
Time_Shift_40
Note_On_44_Vel_0
Note_On_45_Vel_0
Time_Shift_5
Note_On_45_Vel_79
Time_Shift_5
Note_On_44_Vel_79
Time_Shift_75
Note_On_44_Vel_0
Time_Shift_7
Note_On_44_Vel_98
Time_Shift_1
Note_On_63_Vel_0
Time_Shift_8
Note_On_56_Vel_103
Time_Shift_3
Note_On_63_Vel_95
Time_Shift_1
Note_On_68_Vel_104
Time_Shift_56
Sustain_Off
Time_Shift_1
Note_On_45_Vel_0
Time_Shift_4
Note_On_45_Vel_59
Time_Shift_3
Sustain_On
Time_Shift_85
Note_On_44_Vel_0
Time_Shift_5
Note_On_44_Vel_84
Time_Shift_79
Note_On_45_Vel_0
Time_Shift_9
Note_On_45_Vel_82
Time_Shift_61
Note_On_44_Vel_0
Time_Shift_5
Note_On_44_Vel_88
Time_Shift_64
Note_On_45_Vel_0
Time_Shift_7
Note_On_45_Vel_84
Time_Shift_77
Note_On_44_Vel_0
Time_Shift_7
Note_On_44_Vel_94
Time_Shift_39
Note_On_57_Vel_0
Note_On_66_Vel_0
Note_On_69_Vel_0
Time_Shift_8
Note_On_69_Vel_104
Time_Shift_3
Note_On_57_Vel_102
Time_Shift_1
Note_On_66_Vel_92
Time_Shift_19
Note_On_45_Vel_0
Time_Shift_11
Note_On_45_Vel_84
Time_Shift_20
Note_On_45_Vel_0
Time_Shift_9
Note_On_45_Vel_85
Time_Shift_4
Sustain_Off
Time_Shift_5
Note_On_68_Vel_0
Note_On_56_Vel_0
Time_Shift_5
Note_On_54_Vel_0
Time_Shift_46
Sustain_On
Time_Shift_7
Note_On_44_Vel_0
Time_Shift_6
Note_On_44_Vel_79
Time_Shift_71
Note_On_45_Vel_0
Time_Shift_10
Note_On_45_Vel_88
Time_Shift_75
Note_On_63_Vel_0
Time_Shift_7
Note_On_44_Vel_0
Time_Shift_11
Note_On_44_Vel_88
Time_Shift_82
Note_On_45_Vel_0
Time_Shift_4
Note_On_45_Vel_83
Time_Shift_19
Note_On_44_Vel_0
Time_Shift_6
Note_On_44_Vel_83
Time_Shift_1
Note_On_66_Vel_0
Time_Shift_6
Note_On_54_Vel_84
Time_Shift_4
Note_On_63_Vel_76
Time_Shift_1
Note_On_66_Vel_82
Time_Shift_58
Note_On_44_Vel_0
Time_Shift_9
Note_On_44_Vel_89
Time_Shift_53
Note_On_45_Vel_0
Time_Shift_10
Note_On_45_Vel_83
Time_Shift_36
Note_On_44_Vel_0
Time_Shift_9
Note_On_44_Vel_82
Time_Shift_26
Note_On_56_Vel_93
Time_Shift_3
Note_On_68_Vel_88
Time_Shift_4
Note_On_64_Vel_71
Time_Shift_58
Note_On_44_Vel_0
Time_Shift_11
Note_On_44_Vel_89
Time_Shift_104
Note_On_45_Vel_0
Note_On_57_Vel_0
Note_On_64_Vel_0
Note_On_69_Vel_0
Time_Shift_6
Note_On_57_Vel_104
Time_Shift_1
Note_On_45_Vel_96
Note_On_64_Vel_98
Note_On_69_Vel_101
Time_Shift_62
Note_On_45_Vel_0
Time_Shift_8
Note_On_45_Vel_85
Time_Shift_2
Note_On_54_Vel_0
Note_On_63_Vel_0
Time_Shift_1
Note_On_44_Vel_0
Note_On_68_Vel_0
Note_On_66_Vel_0
Note_On_56_Vel_0
Time_Shift_20
Sustain_Off
Time_Shift_21
Note_On_43_Vel_77
Time_Shift_79
Note_On_45_Vel_0
Time_Shift_9
Note_On_43_Vel_0
Time_Shift_2
Note_On_45_Vel_80
Time_Shift_50
Sustain_On
Time_Shift_38
Note_On_43_Vel_74
Time_Shift_77
Note_On_45_Vel_0
Time_Shift_5
Note_On_45_Vel_75
Time_Shift_64
Note_On_43_Vel_0
Time_Shift_12
Note_On_43_Vel_78
Time_Shift_65
Note_On_45_Vel_0
Time_Shift_10
Note_On_45_Vel_87
Time_Shift_44
Note_On_43_Vel_0
Time_Shift_6
Note_On_43_Vel_61
Time_Shift_2
Note_On_45_Vel_0
Time_Shift_5
Note_On_45_Vel_71
Time_Shift_79
Note_On_45_Vel_0
Time_Shift_5
Note_On_45_Vel_73
Time_Shift_72
Note_On_43_Vel_0
Time_Shift_8
Note_On_43_Vel_81
Time_Shift_69
Note_On_45_Vel_0
Time_Shift_4
Note_On_45_Vel_82
Time_Shift_80
Note_On_57_Vel_0
Time_Shift_11
Note_On_61_Vel_98
Note_On_57_Vel_89
Time_Shift_1
Note_On_52_Vel_90
Time_Shift_57
Note_On_43_Vel_0
Time_Shift_8
Note_On_45_Vel_0
Time_Shift_2
Note_On_43_Vel_84
Time_Shift_3
Note_On_45_Vel_82
Time_Shift_87
Note_On_43_Vel_0
Time_Shift_9
Note_On_43_Vel_87
Time_Shift_99
Note_On_52_Vel_0
Note_On_64_Vel_0
Time_Shift_4
Note_On_56_Vel_104
Time_Shift_1
Note_On_64_Vel_99
Note_On_52_Vel_103
Time_Shift_3
Note_On_44_Vel_97
Time_Shift_2
Note_On_62_Vel_91
Time_Shift_58
Note_On_45_Vel_0
Time_Shift_15
Sustain_Off
Time_Shift_24
Note_On_57_Vel_0
Time_Shift_39
Note_On_69_Vel_0
Time_Shift_46
Sustain_On
Time_Shift_30
Note_On_43_Vel_0
Time_Shift_5
Note_On_42_Vel_80
Time_Shift_65
Note_On_64_Vel_0
Time_Shift_9
Note_On_64_Vel_78
Time_Shift_4
Note_On_60_Vel_72
Time_Shift_6
Note_On_41_Vel_70
Time_Shift_63
Note_On_40_Vel_82
Time_Shift_69
Note_On_39_Vel_80
Time_Shift_69
Note_On_38_Vel_82
Time_Shift_77
Note_On_37_Vel_86
Time_Shift_79
Note_On_36_Vel_81
Time_Shift_2
Note_On_24_Vel_77
Time_Shift_6
Note_On_24_Vel_0
Time_Shift_98
Note_On_39_Vel_0
Time_Shift_3
Note_On_38_Vel_0
Time_Shift_1
Note_On_36_Vel_0
Time_Shift_1
Note_On_37_Vel_0
Note_On_56_Vel_0
Time_Shift_1
Sustain_Off
Time_Shift_3
Note_On_41_Vel_0
Time_Shift_1
Note_On_64_Vel_0
Time_Shift_7
Note_On_42_Vel_0
Note_On_61_Vel_0
Note_On_62_Vel_0
Time_Shift_7
Note_On_40_Vel_0
Note_On_44_Vel_0
Note_On_60_Vel_0
Time_Shift_4
Note_On_60_Vel_90
Time_Shift_1
Note_On_54_Vel_93
Note_On_63_Vel_95
Time_Shift_3
Note_On_52_Vel_0
Time_Shift_23
Sustain_On
Time_Shift_60
Note_On_32_Vel_60
Time_Shift_147
Note_On_52_Vel_99
Time_Shift_4
Note_On_71_Vel_95
Time_Shift_1
Note_On_61_Vel_93
Time_Shift_3
Note_On_71_Vel_0
Time_Shift_3
Note_On_64_Vel_89
Time_Shift_1
Note_On_60_Vel_0
Note_On_63_Vel_0
Time_Shift_6
Note_On_54_Vel_0
Time_Shift_30
Sustain_Off
Time_Shift_5
Note_On_52_Vel_0
Time_Shift_40
Note_On_32_Vel_0
Time_Shift_23
Note_On_61_Vel_0
Note_On_64_Vel_0
Time_Shift_4
Note_On_57_Vel_83
Time_Shift_63
Note_On_57_Vel_0
Time_Shift_14
Note_On_56_Vel_85
Time_Shift_45
Note_On_56_Vel_0
Time_Shift_24
Note_On_64_Vel_64
Time_Shift_60
Note_On_63_Vel_78
Time_Shift_47
Note_On_61_Vel_80
Time_Shift_11
Note_On_64_Vel_0
Time_Shift_12
Note_On_63_Vel_0
Time_Shift_8
Note_On_39_Vel_78
Time_Shift_25
Note_On_55_Vel_82
Time_Shift_6
Note_On_61_Vel_0
Time_Shift_4
Note_On_39_Vel_0
Time_Shift_36
Note_On_52_Vel_84
Time_Shift_9
Note_On_55_Vel_0
Time_Shift_24
Note_On_56_Vel_79
Time_Shift_34
Note_On_56_Vel_0
Note_On_52_Vel_0
Time_Shift_9
Note_On_51_Vel_79
Time_Shift_29
Note_On_55_Vel_87
Time_Shift_27
Note_On_51_Vel_0
Time_Shift_11
Note_On_55_Vel_0
Time_Shift_31
Note_On_64_Vel_79
Time_Shift_47
Note_On_64_Vel_0
Time_Shift_7
Note_On_63_Vel_79
Time_Shift_47
Note_On_63_Vel_0
Time_Shift_8
Note_On_61_Vel_81
Time_Shift_53
Note_On_60_Vel_75
Time_Shift_1
Note_On_61_Vel_0
Time_Shift_4
Note_On_57_Vel_79
Time_Shift_19
Note_On_60_Vel_0
Time_Shift_48
Note_On_57_Vel_0
Note_On_61_Vel_77
Time_Shift_2
Note_On_56_Vel_79
Time_Shift_38
Note_On_56_Vel_0
Time_Shift_7
Note_On_61_Vel_0
Time_Shift_19
Note_On_55_Vel_83
Note_On_60_Vel_80
Time_Shift_40
Note_On_60_Vel_0
Time_Shift_4
Note_On_55_Vel_0
Time_Shift_24
Note_On_69_Vel_79
Time_Shift_49
Note_On_69_Vel_0
Time_Shift_6
Note_On_53_Vel_76
Time_Shift_2
Note_On_68_Vel_79
Time_Shift_44
Note_On_68_Vel_0
Time_Shift_15
Note_On_53_Vel_0
Time_Shift_6
Note_On_52_Vel_77
Note_On_67_Vel_75
Time_Shift_49
Note_On_66_Vel_72
Time_Shift_5
Note_On_51_Vel_88
Time_Shift_2
Note_On_67_Vel_0
Time_Shift_5
Note_On_52_Vel_0
Time_Shift_54
Note_On_44_Vel_85
Time_Shift_4
Note_On_51_Vel_0
Time_Shift_4
Note_On_68_Vel_77
Time_Shift_40
Note_On_44_Vel_0
Time_Shift_4
Note_On_66_Vel_0
Time_Shift_13
Note_On_60_Vel_78
Time_Shift_4
Note_On_66_Vel_67
Time_Shift_37
Note_On_68_Vel_0
Time_Shift_15
Note_On_76_Vel_75
Note_On_60_Vel_0
Note_On_66_Vel_0
Time_Shift_57
Note_On_76_Vel_0
Time_Shift_9
Note_On_75_Vel_83
Time_Shift_44
Note_On_66_Vel_86
Time_Shift_44
Note_On_75_Vel_0
Time_Shift_27
Note_On_64_Vel_79
Time_Shift_2
Note_On_49_Vel_91
Time_Shift_12
Note_On_66_Vel_0
Time_Shift_39
Note_On_57_Vel_81
Time_Shift_16
Note_On_69_Vel_81
Time_Shift_33
Note_On_49_Vel_0
Time_Shift_7
Note_On_57_Vel_0
Time_Shift_3
Note_On_56_Vel_86
Time_Shift_6
Note_On_69_Vel_0
Time_Shift_1
Note_On_64_Vel_0
Time_Shift_21
Note_On_68_Vel_86
Time_Shift_36
Note_On_68_Vel_0
Time_Shift_1
Note_On_56_Vel_0
Time_Shift_23
Note_On_76_Vel_80
Time_Shift_47
Note_On_76_Vel_0
Time_Shift_7
Note_On_75_Vel_84
Time_Shift_40
Note_On_73_Vel_85
Time_Shift_13
Note_On_75_Vel_0
Time_Shift_52
Note_On_67_Vel_81
Time_Shift_5
Note_On_51_Vel_87
Time_Shift_4
Note_On_73_Vel_0
Time_Shift_37
Note_On_64_Vel_87
Time_Shift_16
Note_On_51_Vel_0
Time_Shift_9
Note_On_68_Vel_88
Time_Shift_4
Note_On_67_Vel_0
Time_Shift_7
Note_On_64_Vel_0
Time_Shift_38
Note_On_63_Vel_83
Time_Shift_11
Note_On_68_Vel_0
Time_Shift_21
Note_On_67_Vel_80
Time_Shift_5
Note_On_63_Vel_0
Time_Shift_41
Note_On_67_Vel_0
Time_Shift_12
Note_On_76_Vel_85
Time_Shift_44
Note_On_76_Vel_0
Time_Shift_9
Note_On_75_Vel_85
Time_Shift_52
Note_On_73_Vel_82
Time_Shift_4
Note_On_75_Vel_0
Time_Shift_23
Note_On_73_Vel_0
Time_Shift_32
Note_On_67_Vel_64
Time_Shift_3
Note_On_72_Vel_78
Time_Shift_5
Note_On_67_Vel_0
Time_Shift_3
Note_On_69_Vel_72
Time_Shift_25
Note_On_72_Vel_0
Time_Shift_6
Note_On_69_Vel_0
Time_Shift_31
Note_On_73_Vel_76
Time_Shift_1
Note_On_68_Vel_81
Time_Shift_43
Note_On_68_Vel_0
Time_Shift_7
Note_On_73_Vel_0
Time_Shift_12
Note_On_67_Vel_79
Time_Shift_1
Note_On_72_Vel_83
Time_Shift_42
Note_On_72_Vel_0
Time_Shift_1
Note_On_67_Vel_0
Time_Shift_19
Note_On_81_Vel_87
Time_Shift_6
Note_On_66_Vel_73
Time_Shift_19
Note_On_63_Vel_47
Time_Shift_7
Note_On_63_Vel_0
Time_Shift_8
Note_On_66_Vel_0
Time_Shift_12
Note_On_65_Vel_80
Time_Shift_10
Note_On_80_Vel_88
Time_Shift_2
Note_On_81_Vel_0
Time_Shift_26
Note_On_65_Vel_0
Time_Shift_30
Note_On_67_Vel_71
Note_On_79_Vel_84
Note_On_72_Vel_69
Time_Shift_6
Note_On_64_Vel_74
Time_Shift_10
Note_On_80_Vel_0
Time_Shift_8
Note_On_67_Vel_0
Time_Shift_6
Note_On_64_Vel_0
Time_Shift_20
Note_On_79_Vel_0
Time_Shift_3
Note_On_78_Vel_86
Time_Shift_1
Note_On_63_Vel_87
Time_Shift_19
Note_On_72_Vel_0
Time_Shift_21
Note_On_56_Vel_77
Time_Shift_29
Note_On_80_Vel_90
Time_Shift_15
Note_On_56_Vel_0
Time_Shift_6
Note_On_63_Vel_0
Time_Shift_13
Note_On_78_Vel_0
Time_Shift_5
Note_On_72_Vel_76
Time_Shift_6
Note_On_78_Vel_77
Time_Shift_5
Note_On_80_Vel_0
Time_Shift_30
Note_On_72_Vel_0
Time_Shift_16
Note_On_78_Vel_0
Time_Shift_12
Note_On_88_Vel_77
Time_Shift_59
Note_On_87_Vel_72
Time_Shift_13
Note_On_88_Vel_0
Time_Shift_32
Note_On_87_Vel_0
Time_Shift_2
Note_On_78_Vel_89
Time_Shift_44
Note_On_78_Vel_0
Time_Shift_40
Note_On_76_Vel_94
Note_On_37_Vel_93
Time_Shift_1
Note_On_49_Vel_86
Time_Shift_28
Note_On_37_Vel_0
Time_Shift_3
Note_On_49_Vel_0
Time_Shift_67
Note_On_78_Vel_87
Time_Shift_60
Note_On_76_Vel_0
Time_Shift_3
Note_On_61_Vel_95
Note_On_73_Vel_100
Time_Shift_1
Note_On_76_Vel_89
Time_Shift_19
Sustain_On
Time_Shift_57
Note_On_88_Vel_91
Time_Shift_62
Note_On_87_Vel_90
Time_Shift_51
Note_On_85_Vel_90
Time_Shift_55
Note_On_88_Vel_0
Note_On_87_Vel_0
Time_Shift_1
Note_On_73_Vel_0
Note_On_76_Vel_0
Time_Shift_1
Note_On_61_Vel_0
Time_Shift_1
Note_On_85_Vel_0
Time_Shift_10
Note_On_78_Vel_0
Time_Shift_3
Note_On_51_Vel_105
Time_Shift_1
Note_On_39_Vel_96
Time_Shift_1
Sustain_Off
Time_Shift_2
Note_On_78_Vel_91
Time_Shift_31
Note_On_78_Vel_0
Time_Shift_23
Note_On_51_Vel_0
Time_Shift_3
Note_On_76_Vel_61
Time_Shift_5
Note_On_39_Vel_0
Time_Shift_15
Note_On_80_Vel_88
Time_Shift_62
Note_On_51_Vel_72
Time_Shift_1
Note_On_78_Vel_92
Time_Shift_4
Note_On_73_Vel_98
Time_Shift_2
Note_On_80_Vel_0
Time_Shift_2
Note_On_61_Vel_91
Time_Shift_21
Note_On_76_Vel_0
Time_Shift_6
Note_On_61_Vel_0
Time_Shift_3
Note_On_78_Vel_0
Note_On_73_Vel_0
Time_Shift_38
Note_On_51_Vel_0
Time_Shift_12
Note_On_88_Vel_86
Time_Shift_58
Note_On_87_Vel_74
Time_Shift_45
Note_On_87_Vel_0
Time_Shift_4
Note_On_85_Vel_83
Time_Shift_7
Note_On_87_Vel_70
Time_Shift_27
Note_On_88_Vel_0
Time_Shift_39
Note_On_87_Vel_0
Time_Shift_3
Note_On_52_Vel_87
Note_On_80_Vel_81
Note_On_40_Vel_96
Time_Shift_1
Note_On_76_Vel_73
Time_Shift_49
Note_On_85_Vel_0
Time_Shift_29
Note_On_81_Vel_93
Time_Shift_63
Note_On_80_Vel_0
Time_Shift_5
Note_On_73_Vel_97
Time_Shift_1
Note_On_61_Vel_95
Time_Shift_4
Note_On_80_Vel_90
Time_Shift_18
Note_On_81_Vel_0
Time_Shift_3
Note_On_40_Vel_0
Time_Shift_4
Note_On_61_Vel_0
Note_On_73_Vel_0
Time_Shift_4
Note_On_52_Vel_0
Time_Shift_8
Note_On_76_Vel_0
Time_Shift_30
Note_On_80_Vel_0
Time_Shift_14
Note_On_88_Vel_93
Time_Shift_54
Note_On_87_Vel_85
Time_Shift_59
Note_On_85_Vel_88
Time_Shift_3
Note_On_87_Vel_0
Time_Shift_1
Note_On_88_Vel_0
Time_Shift_64
Note_On_85_Vel_0
Note_On_54_Vel_103
Time_Shift_1
Note_On_42_Vel_98
Time_Shift_1
Note_On_81_Vel_89
Time_Shift_28
Note_On_54_Vel_0
Time_Shift_8
Note_On_42_Vel_0
Time_Shift_16
Note_On_81_Vel_0
Time_Shift_20
Note_On_83_Vel_81
Time_Shift_78
Note_On_81_Vel_94
Time_Shift_2
Note_On_61_Vel_101
Note_On_73_Vel_104
Time_Shift_28
Note_On_83_Vel_0
Time_Shift_46
Note_On_73_Vel_0
Time_Shift_1
Note_On_88_Vel_94
Time_Shift_6
Sustain_On
Time_Shift_51
Note_On_87_Vel_92
Time_Shift_45
Note_On_85_Vel_88
Time_Shift_81
Note_On_81_Vel_0
Time_Shift_5
Note_On_81_Vel_56
Time_Shift_67
Note_On_83_Vel_55
Time_Shift_20
Note_On_85_Vel_0
Time_Shift_11
Note_On_85_Vel_67
Time_Shift_92
Note_On_88_Vel_0
Note_On_81_Vel_0
Time_Shift_1
Note_On_61_Vel_0
Note_On_87_Vel_0
Note_On_83_Vel_0
Time_Shift_6
Sustain_Off
Time_Shift_9
Note_On_43_Vel_114
Time_Shift_1
Note_On_31_Vel_105
Time_Shift_3
Note_On_85_Vel_0
Time_Shift_69
Sustain_On
Time_Shift_51
Note_On_63_Vel_86
Time_Shift_69
Note_On_62_Vel_77
Time_Shift_25
Note_On_65_Vel_70
Time_Shift_66
Note_On_67_Vel_79
Time_Shift_8
Note_On_63_Vel_0
Time_Shift_4
Note_On_62_Vel_0
Time_Shift_1
Note_On_65_Vel_0
Time_Shift_10
Sustain_Off
Time_Shift_4
Note_On_31_Vel_0
Note_On_43_Vel_0
Time_Shift_33
Note_On_68_Vel_84
Time_Shift_49
Note_On_68_Vel_0
Time_Shift_10
Note_On_67_Vel_0
Time_Shift_8
Note_On_70_Vel_75
Time_Shift_50
Note_On_63_Vel_109
Time_Shift_2
Note_On_61_Vel_103
Time_Shift_4
Note_On_58_Vel_91
Note_On_51_Vel_98
Time_Shift_13
Sustain_On
Time_Shift_15
Note_On_72_Vel_65
Time_Shift_68
Note_On_73_Vel_78
Time_Shift_77
Note_On_75_Vel_78
Time_Shift_82
Note_On_77_Vel_83
Time_Shift_7
Note_On_58_Vel_0
Time_Shift_77
Note_On_79_Vel_93
Time_Shift_12
Note_On_73_Vel_0
Note_On_75_Vel_0
Time_Shift_5
Note_On_75_Vel_109
Time_Shift_3
Note_On_63_Vel_0
Note_On_70_Vel_0
Time_Shift_3
Note_On_73_Vel_98
Time_Shift_1
Note_On_70_Vel_100
Note_On_63_Vel_96
Time_Shift_12
Note_On_51_Vel_0
Note_On_77_Vel_0
Time_Shift_2
Note_On_61_Vel_0
Sustain_Off
Time_Shift_1
Note_On_79_Vel_0
Time_Shift_19
Note_On_72_Vel_0
Time_Shift_16
Note_On_75_Vel_0
Time_Shift_7
Note_On_73_Vel_0
Time_Shift_8
Note_On_70_Vel_0
Time_Shift_18
Note_On_80_Vel_93
Time_Shift_13
Sustain_On
Time_Shift_7
Note_On_63_Vel_0
Time_Shift_16
Sustain_Off
Time_Shift_70
Note_On_87_Vel_91
Time_Shift_2
Note_On_75_Vel_109
Time_Shift_1
Note_On_73_Vel_101
Time_Shift_2
Note_On_63_Vel_90
Note_On_82_Vel_97
Note_On_70_Vel_100
Time_Shift_1
Note_On_87_Vel_0
Time_Shift_2
Note_On_61_Vel_75
Time_Shift_6
Sustain_On
Time_Shift_73
Note_On_84_Vel_84
Time_Shift_73
Note_On_80_Vel_0
Time_Shift_3
Note_On_75_Vel_0
Time_Shift_2
Note_On_73_Vel_0
Time_Shift_5
Note_On_85_Vel_82
Sustain_Off
Time_Shift_5
Note_On_61_Vel_0
Time_Shift_11
Note_On_76_Vel_106
Time_Shift_2
Note_On_64_Vel_102
Time_Shift_10
Note_On_70_Vel_0
Sustain_On
Time_Shift_5
Note_On_70_Vel_70
Time_Shift_55
Note_On_87_Vel_86
Time_Shift_33
Note_On_84_Vel_0
Time_Shift_38
Note_On_76_Vel_0
Note_On_82_Vel_0
Time_Shift_14
Note_On_75_Vel_104
Time_Shift_1
Note_On_63_Vel_0
Note_On_70_Vel_0
Time_Shift_4
Note_On_63_Vel_100
Time_Shift_1
Note_On_73_Vel_96
Note_On_70_Vel_99
Time_Shift_73
Note_On_91_Vel_96
Time_Shift_53
Note_On_63_Vel_0
Note_On_64_Vel_0
Note_On_70_Vel_0
Note_On_73_Vel_0
Note_On_75_Vel_0
Time_Shift_3
Note_On_85_Vel_0
Note_On_87_Vel_0
Time_Shift_1
Note_On_73_Vel_105
Time_Shift_6
Note_On_63_Vel_96
Time_Shift_1
Note_On_70_Vel_94
Note_On_75_Vel_108
Time_Shift_4
Note_On_94_Vel_83
Time_Shift_77
Note_On_94_Vel_0
Time_Shift_4
Note_On_94_Vel_96
Time_Shift_70
Note_On_95_Vel_83
Time_Shift_3
Note_On_70_Vel_0
Time_Shift_6
Note_On_70_Vel_85
Time_Shift_59
Note_On_96_Vel_89
Time_Shift_65
Note_On_94_Vel_0
Time_Shift_7
Note_On_94_Vel_81
Time_Shift_2
Note_On_97_Vel_91
Time_Shift_56
Note_On_99_Vel_99
Time_Shift_20
Note_On_91_Vel_0
Time_Shift_79
Note_On_96_Vel_0
Time_Shift_1
Note_On_97_Vel_0
Note_On_73_Vel_0
Note_On_75_Vel_0
Note_On_94_Vel_0
Note_On_100_Vel_118
Time_Shift_1
Note_On_63_Vel_0
Note_On_99_Vel_0
Time_Shift_3
Note_On_95_Vel_0
Time_Shift_8
Note_On_70_Vel_0
Sustain_Off
Time_Shift_12
Note_On_32_Vel_81
Time_Shift_11
Note_On_100_Vel_0
Time_Shift_77
Sustain_On
Time_Shift_158
Note_On_37_Vel_90
Time_Shift_4
Note_On_49_Vel_74
Time_Shift_7
Note_On_49_Vel_0
Time_Shift_61
Sustain_Off
Time_Shift_27
Note_On_35_Vel_81
Time_Shift_62
Note_On_33_Vel_78
Time_Shift_50
Note_On_32_Vel_0
Time_Shift_9
Note_On_32_Vel_79
Time_Shift_3
Note_On_44_Vel_68
Time_Shift_64
Note_On_33_Vel_0
Time_Shift_4
Note_On_42_Vel_80
Time_Shift_3
Note_On_54_Vel_66
Time_Shift_56
Note_On_32_Vel_0
Time_Shift_2
Note_On_37_Vel_0
Time_Shift_4
Note_On_35_Vel_0
Note_On_44_Vel_0
Time_Shift_8
Note_On_42_Vel_0
Note_On_54_Vel_0
Time_Shift_4
Note_On_52_Vel_75
Note_On_40_Vel_84
Time_Shift_49
Note_On_52_Vel_0
Time_Shift_1
Note_On_40_Vel_0
Time_Shift_4
Note_On_51_Vel_75
Time_Shift_4
Note_On_39_Vel_68
Time_Shift_61
Note_On_49_Vel_74
Time_Shift_3
Note_On_37_Vel_75
Time_Shift_8
Note_On_51_Vel_0
Time_Shift_23
Note_On_39_Vel_0
Time_Shift_7
Note_On_49_Vel_0
Time_Shift_1
Note_On_37_Vel_0
Time_Shift_26
Note_On_45_Vel_75
Time_Shift_7
Note_On_57_Vel_83
Time_Shift_59
Note_On_44_Vel_77
Time_Shift_1
Note_On_56_Vel_79
Note_On_57_Vel_0
Time_Shift_7
Note_On_45_Vel_0
Time_Shift_47
Note_On_42_Vel_78
Time_Shift_5
Note_On_54_Vel_70
Time_Shift_16
Note_On_44_Vel_0
Time_Shift_8
Note_On_56_Vel_0
Time_Shift_24
Note_On_40_Vel_72
Time_Shift_1
Note_On_52_Vel_72
Time_Shift_26
Note_On_54_Vel_0
Time_Shift_15
Note_On_42_Vel_0
Time_Shift_12
Note_On_49_Vel_78
Time_Shift_2
Note_On_40_Vel_0
Time_Shift_25
Note_On_52_Vel_0
Time_Shift_2
Note_On_61_Vel_71
Time_Shift_32
Note_On_45_Vel_72
Time_Shift_1
Note_On_57_Vel_80
Time_Shift_41
Note_On_61_Vel_0
Time_Shift_23
Note_On_49_Vel_0
Time_Shift_11
Note_On_49_Vel_79
Note_On_57_Vel_0
Time_Shift_1
Note_On_61_Vel_77
Time_Shift_2
Note_On_45_Vel_0
Time_Shift_37
Note_On_49_Vel_0
Time_Shift_10
Note_On_56_Vel_79
Time_Shift_16
Note_On_61_Vel_0
Time_Shift_7
Note_On_44_Vel_81
Time_Shift_62
Note_On_54_Vel_92
Time_Shift_2
Note_On_66_Vel_86
Time_Shift_2
Note_On_56_Vel_0
Time_Shift_3
Note_On_44_Vel_0
Time_Shift_44
Note_On_52_Vel_67
Time_Shift_1
Note_On_64_Vel_72
Time_Shift_35
Note_On_64_Vel_0
Time_Shift_1
Note_On_54_Vel_0
Time_Shift_1
Note_On_66_Vel_0
Time_Shift_10
Note_On_52_Vel_0
Time_Shift_8
Note_On_51_Vel_79
Time_Shift_2
Note_On_63_Vel_81
Time_Shift_37
Note_On_51_Vel_0
Time_Shift_2
Note_On_63_Vel_0
Time_Shift_18
Note_On_49_Vel_77
Time_Shift_2
Note_On_61_Vel_76
Time_Shift_39
Note_On_49_Vel_0
Time_Shift_3
Note_On_61_Vel_0
Time_Shift_12
Note_On_57_Vel_82
Time_Shift_15
Note_On_69_Vel_81
Time_Shift_52
Note_On_57_Vel_0
Time_Shift_1
Note_On_69_Vel_0
Time_Shift_4
Note_On_56_Vel_77
Time_Shift_3
Note_On_68_Vel_87
Time_Shift_45
Note_On_54_Vel_76
Time_Shift_1
Note_On_66_Vel_74
Time_Shift_8
Note_On_56_Vel_0
Time_Shift_16
Note_On_68_Vel_0
Time_Shift_6
Note_On_54_Vel_0
Time_Shift_9
Note_On_66_Vel_0
Time_Shift_13
Note_On_64_Vel_79
Note_On_52_Vel_76
Time_Shift_45
Note_On_52_Vel_0
Time_Shift_1
Note_On_64_Vel_0
Time_Shift_9
Note_On_61_Vel_87
Time_Shift_8
Note_On_73_Vel_82
Time_Shift_60
Note_On_73_Vel_0
Note_On_59_Vel_77
Note_On_71_Vel_76
Time_Shift_3
Note_On_61_Vel_0
Time_Shift_35
Note_On_69_Vel_83
Time_Shift_1
Note_On_57_Vel_80
Time_Shift_15
Note_On_71_Vel_0
Time_Shift_4
Note_On_59_Vel_0
Time_Shift_29
Note_On_69_Vel_0
Time_Shift_7
Note_On_57_Vel_0
Time_Shift_3
Note_On_56_Vel_79
Time_Shift_9
Note_On_68_Vel_86
Time_Shift_40
Note_On_56_Vel_0
Time_Shift_1
Note_On_66_Vel_90
Time_Shift_11
Note_On_68_Vel_0
Time_Shift_31
Note_On_78_Vel_82
Time_Shift_42
Note_On_78_Vel_0
Note_On_66_Vel_0
Time_Shift_7
Note_On_64_Vel_81
Note_On_76_Vel_75
Time_Shift_39
Note_On_64_Vel_0
Time_Shift_8
Note_On_63_Vel_75
Time_Shift_6
Note_On_75_Vel_87
Time_Shift_7
Note_On_76_Vel_0
Time_Shift_35
Note_On_75_Vel_0
Time_Shift_2
Note_On_63_Vel_0
Time_Shift_4
Note_On_61_Vel_82
Time_Shift_2
Note_On_73_Vel_79
Time_Shift_40
Note_On_73_Vel_0
Note_On_61_Vel_0
Time_Shift_5
Note_On_69_Vel_85
Time_Shift_37
Note_On_81_Vel_87
Time_Shift_30
Note_On_68_Vel_86
Time_Shift_20
Note_On_80_Vel_81
Note_On_69_Vel_0
Time_Shift_4
Note_On_81_Vel_0
Time_Shift_40
Note_On_66_Vel_83
Time_Shift_10
Note_On_68_Vel_0
Time_Shift_5
Note_On_78_Vel_72
Time_Shift_10
Note_On_80_Vel_0
Time_Shift_3
Note_On_61_Vel_55
Time_Shift_14
Note_On_66_Vel_0
Time_Shift_5
Note_On_64_Vel_71
Time_Shift_6
Note_On_76_Vel_82
Time_Shift_11
Note_On_78_Vel_0
Time_Shift_23
Note_On_61_Vel_0
Time_Shift_11
Note_On_64_Vel_0
Note_On_76_Vel_0
Time_Shift_14
Note_On_73_Vel_86
Time_Shift_11
Note_On_63_Vel_59
Time_Shift_10
Note_On_85_Vel_81
Note_On_63_Vel_0
Time_Shift_18
Note_On_73_Vel_0
Time_Shift_16
Note_On_85_Vel_0
Time_Shift_16
Note_On_81_Vel_88
Note_On_69_Vel_73
Time_Shift_53
Note_On_69_Vel_0
Note_On_81_Vel_0
Time_Shift_13
Note_On_73_Vel_94
Time_Shift_1
Note_On_85_Vel_88
Time_Shift_29
Note_On_73_Vel_0
Time_Shift_9
Note_On_85_Vel_0
Time_Shift_33
Note_On_80_Vel_77
Time_Shift_6
Note_On_68_Vel_88
Time_Shift_36
Note_On_80_Vel_0
Time_Shift_8
Note_On_68_Vel_0
Time_Shift_12
Note_On_78_Vel_96
Time_Shift_1
Note_On_90_Vel_93
Time_Shift_35
Note_On_78_Vel_0
Time_Shift_16
Note_On_88_Vel_81
Time_Shift_20
Note_On_90_Vel_0
Time_Shift_27
Note_On_88_Vel_0
Time_Shift_11
Note_On_75_Vel_88
Time_Shift_3
Note_On_87_Vel_77
Time_Shift_1
Note_On_66_Vel_68
Time_Shift_44
Note_On_75_Vel_0
Time_Shift_12
Note_On_73_Vel_76
Time_Shift_1
Note_On_85_Vel_71
Time_Shift_9
Note_On_66_Vel_0
Time_Shift_17
Note_On_73_Vel_0
Time_Shift_21
Note_On_85_Vel_0
Time_Shift_20
Note_On_81_Vel_90
Time_Shift_3
Note_On_87_Vel_0
Time_Shift_9
Note_On_93_Vel_83
Time_Shift_28
Note_On_81_Vel_0
Time_Shift_38
Note_On_91_Vel_86
Time_Shift_10
Note_On_79_Vel_79
Time_Shift_2
Note_On_76_Vel_62
Time_Shift_36
Note_On_93_Vel_0
Time_Shift_5
Note_On_79_Vel_0
Note_On_91_Vel_0
Time_Shift_5
Note_On_93_Vel_80
Time_Shift_3
Note_On_81_Vel_88
Time_Shift_66
Note_On_92_Vel_102
Time_Shift_1
Note_On_80_Vel_105
Time_Shift_20
Note_On_76_Vel_0
Time_Shift_61
Sustain_On
Time_Shift_73
Note_On_100_Vel_116
Time_Shift_43
Note_On_81_Vel_0
Note_On_93_Vel_0
Time_Shift_53
Note_On_80_Vel_0
Time_Shift_8
Note_On_80_Vel_84
Time_Shift_2
Note_On_99_Vel_94
Time_Shift_56
Note_On_97_Vel_89
Time_Shift_65
Note_On_92_Vel_0
Time_Shift_6
Note_On_92_Vel_80
Time_Shift_38
Note_On_88_Vel_83
Time_Shift_86
Note_On_99_Vel_0
Time_Shift_11
Note_On_99_Vel_73
Time_Shift_1
Note_On_87_Vel_72
Time_Shift_4
Note_On_97_Vel_0
Time_Shift_4
Note_On_97_Vel_63
Time_Shift_35
Note_On_85_Vel_82
Time_Shift_7
Note_On_87_Vel_0
Time_Shift_10
Note_On_87_Vel_62
Time_Shift_21
Note_On_80_Vel_0
Time_Shift_4
Note_On_80_Vel_81
Time_Shift_49
Note_On_88_Vel_0
Time_Shift_5
Note_On_76_Vel_75
Time_Shift_6
Note_On_88_Vel_68
Time_Shift_77
Note_On_75_Vel_80
Time_Shift_18
Sustain_Off
Time_Shift_5
Note_On_100_Vel_0
Time_Shift_16
Note_On_73_Vel_81
Time_Shift_12
Note_On_85_Vel_0
Time_Shift_35
Note_On_68_Vel_82
Time_Shift_3
Sustain_On
Time_Shift_46
Note_On_73_Vel_0
Time_Shift_6
Note_On_64_Vel_73
Time_Shift_2
Note_On_73_Vel_59
Time_Shift_82
Note_On_63_Vel_80
Time_Shift_44
Note_On_61_Vel_80
Time_Shift_44
Note_On_56_Vel_77
Time_Shift_60
Note_On_52_Vel_79
Time_Shift_79
Note_On_51_Vel_76
Time_Shift_13
Note_On_80_Vel_0
Time_Shift_28
Note_On_49_Vel_74
Time_Shift_34
Note_On_87_Vel_0
Time_Shift_4
Note_On_44_Vel_78
Time_Shift_27
Note_On_88_Vel_0
Note_On_92_Vel_0
Time_Shift_43
Note_On_40_Vel_80
Time_Shift_76
Note_On_39_Vel_79
Time_Shift_53
Note_On_37_Vel_98
Time_Shift_12
Note_On_99_Vel_0
Time_Shift_23
Note_On_75_Vel_0
Note_On_97_Vel_0
Time_Shift_3
Sustain_Off
Time_Shift_2
Note_On_51_Vel_0
Note_On_63_Vel_0
Time_Shift_1
Note_On_68_Vel_0
Note_On_61_Vel_0
Time_Shift_1
Note_On_40_Vel_0
Note_On_56_Vel_0
Time_Shift_1
Note_On_76_Vel_0
Note_On_44_Vel_0
Note_On_64_Vel_0
Note_On_52_Vel_0
Note_On_49_Vel_0
Time_Shift_15
Note_On_73_Vel_0
Time_Shift_4
Note_On_33_Vel_103
Time_Shift_4
Note_On_37_Vel_0
Note_On_39_Vel_0
Time_Shift_122
Sustain_On
Time_Shift_131
Note_On_33_Vel_0
Time_Shift_161
Sustain_Off
Time_Shift_9
Note_On_61_Vel_104
Time_Shift_2
Note_On_52_Vel_97
Note_On_64_Vel_92
Note_On_73_Vel_100
Time_Shift_1
Note_On_57_Vel_100
Note_On_69_Vel_86
Time_Shift_4
Note_On_45_Vel_92
Time_Shift_76
Sustain_On
Time_Shift_39
Note_On_52_Vel_0
Time_Shift_307
Note_On_57_Vel_0
Note_On_69_Vel_0
Time_Shift_4
Note_On_50_Vel_107
Time_Shift_3
Note_On_62_Vel_91
Time_Shift_1
Note_On_38_Vel_101
Note_On_66_Vel_104
Time_Shift_2
Note_On_69_Vel_91
Time_Shift_1
Note_On_57_Vel_93
Time_Shift_14
Sustain_Off
Time_Shift_8
Note_On_73_Vel_0
Time_Shift_5
Note_On_45_Vel_0
Time_Shift_8
Note_On_61_Vel_0
Note_On_64_Vel_0
Time_Shift_69
Sustain_On
Time_Shift_338
Note_On_60_Vel_105
Note_On_66_Vel_0
Time_Shift_3
Note_On_72_Vel_104
Time_Shift_1
Note_On_51_Vel_99
Note_On_56_Vel_98
Time_Shift_1
Note_On_66_Vel_92
Time_Shift_2
Note_On_44_Vel_91
Time_Shift_3
Note_On_68_Vel_99
Time_Shift_1
Sustain_Off
Time_Shift_12
Note_On_38_Vel_0
Note_On_50_Vel_0
Note_On_57_Vel_0
Time_Shift_23
Note_On_69_Vel_0
Time_Shift_8
Note_On_62_Vel_0
Sustain_On
Time_Shift_219
Note_On_51_Vel_0
Sustain_Off
Note_On_44_Vel_0
Time_Shift_2
Note_On_68_Vel_0
Note_On_60_Vel_0
Note_On_72_Vel_0
Time_Shift_9
Note_On_56_Vel_0
Time_Shift_8
Note_On_66_Vel_0
Time_Shift_170
Note_On_73_Vel_109
Time_Shift_2
Note_On_85_Vel_98
Time_Shift_5
Note_On_37_Vel_105
Time_Shift_2
Note_On_25_Vel_105
Time_Shift_21
Sustain_On
Time_Shift_390
Note_On_69_Vel_109
Time_Shift_3
Note_On_57_Vel_109
Note_On_81_Vel_106
Time_Shift_2
Note_On_45_Vel_103
Time_Shift_342
Note_On_25_Vel_0
Time_Shift_10
Note_On_45_Vel_0
Time_Shift_1
Note_On_73_Vel_0
Note_On_57_Vel_0
Note_On_69_Vel_0
Time_Shift_2
Sustain_Off
Time_Shift_2
Note_On_85_Vel_0
Time_Shift_16
Note_On_81_Vel_0
Time_Shift_38
Note_On_37_Vel_0
Time_Shift_8
Note_On_85_Vel_100
Note_On_49_Vel_113
Time_Shift_1
Note_On_73_Vel_109
Time_Shift_2
Note_On_37_Vel_105
Time_Shift_29
Note_On_82_Vel_57
Time_Shift_6
Sustain_On
Time_Shift_365
Note_On_68_Vel_110
Note_On_80_Vel_103
Time_Shift_1
Note_On_56_Vel_107
Time_Shift_1
Note_On_44_Vel_105
Time_Shift_353
Note_On_73_Vel_0
Note_On_68_Vel_0
Note_On_56_Vel_0
Time_Shift_1
Note_On_80_Vel_0
Note_On_49_Vel_0
Note_On_44_Vel_0
Time_Shift_4
Sustain_Off
Time_Shift_12
Note_On_85_Vel_0
Time_Shift_8
Note_On_37_Vel_0
Note_On_82_Vel_0
Time_Shift_54
Note_On_85_Vel_100
Time_Shift_3
Note_On_73_Vel_105
Time_Shift_1
Note_On_49_Vel_111
Note_On_37_Vel_103
Time_Shift_19
Sustain_On
Time_Shift_402
Note_On_79_Vel_109
Time_Shift_1
Note_On_55_Vel_113
Note_On_67_Vel_108
Time_Shift_1
Note_On_43_Vel_107
Time_Shift_4
Note_On_31_Vel_94
Time_Shift_7
Note_On_31_Vel_0
Time_Shift_12
Sustain_Off
Time_Shift_26
Note_On_49_Vel_0
Time_Shift_8
Note_On_85_Vel_0
Time_Shift_77
Sustain_On
Time_Shift_322
Note_On_37_Vel_0
Note_On_73_Vel_0
Time_Shift_4
Note_On_49_Vel_103
Time_Shift_1
Note_On_73_Vel_100
Note_On_37_Vel_96
Time_Shift_1
Note_On_85_Vel_96
Note_On_61_Vel_90
Note_On_55_Vel_0
Time_Shift_4
Note_On_43_Vel_0
Time_Shift_6
Sustain_Off
Time_Shift_23
Note_On_79_Vel_0
Time_Shift_2
Note_On_61_Vel_0
Time_Shift_5
Note_On_67_Vel_0
Note_On_85_Vel_0
Time_Shift_8
Note_On_49_Vel_0
Time_Shift_8
Note_On_37_Vel_0
Time_Shift_7
Note_On_73_Vel_0
Time_Shift_88
Note_On_54_Vel_104
Time_Shift_1
Note_On_42_Vel_104
Note_On_78_Vel_102
Time_Shift_1
Note_On_66_Vel_100
Time_Shift_18
Sustain_On
Time_Shift_128
Note_On_49_Vel_105
Time_Shift_3
Note_On_73_Vel_105
Time_Shift_1
Note_On_37_Vel_104
Note_On_85_Vel_97
Time_Shift_147
Sustain_Off
Time_Shift_4
Note_On_42_Vel_0
Time_Shift_5
Note_On_54_Vel_0
Time_Shift_8
Note_On_65_Vel_108
Note_On_53_Vel_110
Time_Shift_1
Note_On_77_Vel_105
Time_Shift_1
Note_On_41_Vel_101
Time_Shift_40
Sustain_On
Time_Shift_138
Note_On_37_Vel_0
Note_On_49_Vel_0
Note_On_73_Vel_0
Note_On_85_Vel_0
Time_Shift_5
Note_On_49_Vel_106
Time_Shift_3
Note_On_85_Vel_102
Time_Shift_1
Note_On_73_Vel_111
Note_On_37_Vel_100
Time_Shift_149
Note_On_53_Vel_0
Note_On_65_Vel_0
Note_On_49_Vel_0
Note_On_37_Vel_0
Note_On_41_Vel_0
Time_Shift_1
Note_On_73_Vel_0
Note_On_77_Vel_0
Time_Shift_2
Note_On_66_Vel_0
Time_Shift_4
Sustain_Off
Time_Shift_12
Note_On_78_Vel_0
Time_Shift_145
Note_On_85_Vel_0
Time_Shift_200
Sustain_On
Time_Shift_69
Note_On_37_Vel_93
Time_Shift_1
Note_On_49_Vel_101
Time_Shift_1
Note_On_53_Vel_95
Note_On_56_Vel_99
Time_Shift_2
Note_On_61_Vel_93
Note_On_44_Vel_97
Note_On_65_Vel_92
Time_Shift_73
Note_On_53_Vel_0
Time_Shift_8
Note_On_37_Vel_0
Note_On_44_Vel_0
Note_On_49_Vel_0
Note_On_56_Vel_0
Note_On_61_Vel_0
Time_Shift_3
Note_On_53_Vel_102
Time_Shift_1
Note_On_56_Vel_106
Note_On_61_Vel_101
Note_On_49_Vel_105
Time_Shift_1
Note_On_44_Vel_100
Note_On_37_Vel_96
Time_Shift_922
Note_On_37_Vel_0
Time_Shift_2
Note_On_61_Vel_0
Note_On_49_Vel_0
Note_On_65_Vel_0
Sustain_Off
Time_Shift_1
Note_On_56_Vel_0
Note_On_44_Vel_0
Time_Shift_14
Note_On_53_Vel_0
Time_Shift_96
Note_On_85_Vel_113
Note_On_97_Vel_114
Time_Shift_5
Note_On_73_Vel_108
Time_Shift_1
Note_On_77_Vel_104
Time_Shift_2
Note_On_68_Vel_97
Note_On_65_Vel_90
Time_Shift_35
Sustain_On
Time_Shift_1009
Note_On_97_Vel_0
Note_On_85_Vel_0
Time_Shift_1
Note_On_73_Vel_0
Note_On_65_Vel_0
Time_Shift_1
Note_On_77_Vel_0
Note_On_68_Vel_0
Time_Shift_1
Sustain_Off
Time_Shift_136
Note_On_49_Vel_111
Time_Shift_3
Note_On_37_Vel_100
Time_Shift_4
Note_On_25_Vel_101
Time_Shift_20
Sustain_On
Time_Shift_1774
Note_On_37_Vel_0
Time_Shift_4
Sustain_Off
Time_Shift_3
Note_On_25_Vel_0
Time_Shift_23
Note_On_49_Vel_0
Time_Shift_54
Sustain_On
Time_Shift_100
Sustain_Off
Time_Shift_1083
Sustain_On
Time_Shift_565
Sustain_Off
