Time_Shift_145
Sustain_On
Time_Shift_5615
Sustain_Off
Time_Shift_4262
Sustain_On
Time_Shift_1287
Note_On_73_Vel_52
Time_Shift_1
Note_On_76_Vel_49
Time_Shift_1
Note_On_64_Vel_42
Time_Shift_20
Note_On_68_Vel_48
Time_Shift_18
Note_On_49_Vel_29
Time_Shift_1544
Note_On_71_Vel_73
Time_Shift_9
Note_On_49_Vel_0
Note_On_68_Vel_0
Time_Shift_5
Note_On_68_Vel_64
Time_Shift_5
Sustain_Off
Time_Shift_1
Note_On_49_Vel_59
Time_Shift_81
Sustain_On
Time_Shift_305
Note_On_69_Vel_74
Time_Shift_3
Note_On_78_Vel_64
Time_Shift_3
Note_On_66_Vel_63
Time_Shift_19
Note_On_49_Vel_0
Time_Shift_4
Note_On_54_Vel_45
Time_Shift_1
Note_On_49_Vel_36
Time_Shift_61
Note_On_73_Vel_0
Time_Shift_1
Note_On_68_Vel_0
Time_Shift_4
Note_On_76_Vel_0
Time_Shift_1
Note_On_64_Vel_0
Time_Shift_1
Note_On_71_Vel_0
Time_Shift_9
Sustain_Off
Time_Shift_3
Note_On_78_Vel_0
Time_Shift_31
Note_On_49_Vel_0
Time_Shift_184
Sustain_On
Time_Shift_123
Note_On_54_Vel_0
Time_Shift_924
Note_On_68_Vel_70
Time_Shift_1
Note_On_73_Vel_56
Time_Shift_4
Note_On_76_Vel_60
Time_Shift_4
Note_On_61_Vel_51
Note_On_49_Vel_57
Time_Shift_2
Note_On_64_Vel_56
Time_Shift_3
Note_On_52_Vel_50
Time_Shift_34
Sustain_Off
Time_Shift_41
Sustain_On
Time_Shift_31
Note_On_66_Vel_0
Time_Shift_277
Note_On_76_Vel_0
Time_Shift_7
Note_On_67_Vel_70
Note_On_61_Vel_0
Note_On_64_Vel_0
Note_On_73_Vel_0
Time_Shift_2
Note_On_76_Vel_55
Time_Shift_3
Note_On_57_Vel_47
Time_Shift_2
Note_On_61_Vel_39
Time_Shift_1
Note_On_45_Vel_42
Note_On_64_Vel_52
Time_Shift_74
Sustain_Off
Time_Shift_3
Note_On_69_Vel_0
Note_On_68_Vel_0
Time_Shift_8
Note_On_52_Vel_0
Time_Shift_284
Sustain_On
Time_Shift_138
Note_On_45_Vel_0
Time_Shift_580
Note_On_75_Vel_53
Time_Shift_1
Note_On_68_Vel_63
Note_On_44_Vel_39
Time_Shift_1
Note_On_51_Vel_38
Note_On_63_Vel_56
Time_Shift_2
Note_On_60_Vel_44
Time_Shift_5
Note_On_56_Vel_42
Time_Shift_18
Note_On_57_Vel_0
Time_Shift_92
Note_On_76_Vel_0
Time_Shift_3
Note_On_67_Vel_0
Sustain_Off
Time_Shift_12
Note_On_49_Vel_0
Note_On_61_Vel_0
Note_On_64_Vel_0
Time_Shift_223
Sustain_On
Time_Shift_753
Note_On_51_Vel_0
Note_On_75_Vel_0
Time_Shift_199
Note_On_56_Vel_0
Time_Shift_541
Note_On_60_Vel_0
Time_Shift_1
Note_On_68_Vel_0
Time_Shift_5
Note_On_44_Vel_0
Time_Shift_29
Note_On_63_Vel_0
Time_Shift_23
Sustain_Off
Time_Shift_707
Sustain_On
Time_Shift_426
Note_On_73_Vel_59
Time_Shift_1
Note_On_64_Vel_42
Note_On_76_Vel_48
Time_Shift_12
Note_On_68_Vel_50
Time_Shift_17
Note_On_49_Vel_30
Time_Shift_1322
Note_On_71_Vel_68
Time_Shift_11
Note_On_49_Vel_0
Note_On_68_Vel_0
Time_Shift_7
Note_On_49_Vel_49
Time_Shift_4
Note_On_68_Vel_52
Time_Shift_332
Note_On_69_Vel_67
Time_Shift_16
Note_On_66_Vel_51
Time_Shift_8
Note_On_54_Vel_37
Time_Shift_66
Note_On_68_Vel_0
Note_On_73_Vel_0
Note_On_49_Vel_0
Time_Shift_1
Note_On_64_Vel_0
Sustain_Off
Time_Shift_4
Note_On_71_Vel_0
Note_On_76_Vel_0
Time_Shift_4
Note_On_71_Vel_38
Time_Shift_57
Note_On_71_Vel_0
Time_Shift_169
Sustain_On
Time_Shift_215
Note_On_54_Vel_0
Time_Shift_857
Note_On_68_Vel_54
Time_Shift_6
Note_On_76_Vel_45
Time_Shift_13
Sustain_Off
Time_Shift_2
Note_On_64_Vel_40
Time_Shift_2
Note_On_49_Vel_41
Time_Shift_1
Note_On_52_Vel_30
Time_Shift_26
Sustain_On
Time_Shift_320
Note_On_79_Vel_59
Time_Shift_5
Note_On_67_Vel_63
Time_Shift_5
Note_On_64_Vel_0
Note_On_79_Vel_0
Time_Shift_8
Note_On_49_Vel_0
Time_Shift_1
Note_On_57_Vel_41
Time_Shift_2
Note_On_64_Vel_41
Note_On_45_Vel_35
Time_Shift_6
Note_On_49_Vel_33
Time_Shift_34
Note_On_68_Vel_0
Note_On_69_Vel_0
Time_Shift_6
Sustain_Off
Time_Shift_4
Note_On_52_Vel_0
Note_On_66_Vel_0
Time_Shift_169
Sustain_On
Time_Shift_39
Note_On_76_Vel_0
Time_Shift_437
Note_On_57_Vel_0
Time_Shift_489
Note_On_68_Vel_62
Time_Shift_2
Note_On_63_Vel_47
Time_Shift_5
Note_On_44_Vel_33
Time_Shift_2
Note_On_60_Vel_27
Time_Shift_1
Note_On_48_Vel_24
Time_Shift_4
Note_On_56_Vel_35
Time_Shift_4
Note_On_48_Vel_0
Time_Shift_88
Sustain_Off
Time_Shift_5
Note_On_45_Vel_0
Time_Shift_1
Note_On_67_Vel_0
Time_Shift_6
Note_On_49_Vel_0
Note_On_64_Vel_0
Time_Shift_223
Note_On_44_Vel_0
Time_Shift_31
Sustain_On
Time_Shift_209
Note_On_32_Vel_20
Time_Shift_3
Note_On_44_Vel_20
Time_Shift_1278
Note_On_44_Vel_0
Time_Shift_17
Note_On_68_Vel_0
Time_Shift_13
Note_On_32_Vel_0
Time_Shift_23
Note_On_56_Vel_0
Time_Shift_46
Note_On_60_Vel_0
Time_Shift_39
Note_On_63_Vel_0
Time_Shift_6
Sustain_Off
Time_Shift_501
Sustain_On
Time_Shift_141
Note_On_49_Vel_38
Time_Shift_92
Note_On_80_Vel_64
Time_Shift_523
Note_On_56_Vel_37
Time_Shift_397
Note_On_64_Vel_45
Time_Shift_440
Note_On_61_Vel_32
Time_Shift_450
Note_On_49_Vel_0
Time_Shift_9
Note_On_49_Vel_47
Time_Shift_1
Note_On_78_Vel_71
Time_Shift_69
Note_On_61_Vel_0
Note_On_64_Vel_0
Time_Shift_1
Note_On_80_Vel_0
Time_Shift_8
Sustain_Off
Time_Shift_27
Sustain_On
Time_Shift_181
Note_On_80_Vel_55
Time_Shift_126
Note_On_78_Vel_0
Time_Shift_8
Note_On_78_Vel_67
Time_Shift_35
Note_On_57_Vel_43
Time_Shift_57
Note_On_80_Vel_0
Time_Shift_5
Note_On_80_Vel_69
Time_Shift_64
Note_On_78_Vel_0
Time_Shift_8
Note_On_78_Vel_76
Time_Shift_76
Note_On_80_Vel_0
Time_Shift_7
Note_On_80_Vel_57
Time_Shift_39
Note_On_78_Vel_0
Time_Shift_10
Note_On_78_Vel_73
Time_Shift_44
Note_On_80_Vel_0
Time_Shift_9
Note_On_80_Vel_73
Time_Shift_35
Note_On_51_Vel_43
Time_Shift_3
Note_On_63_Vel_47
Time_Shift_7
Note_On_51_Vel_0
Time_Shift_15
Note_On_78_Vel_0
Time_Shift_5
Note_On_78_Vel_80
Time_Shift_80
Note_On_80_Vel_0
Time_Shift_4
Note_On_80_Vel_67
Time_Shift_5
Note_On_75_Vel_50
Time_Shift_6
Note_On_75_Vel_0
Time_Shift_39
Note_On_78_Vel_0
Time_Shift_5
Note_On_78_Vel_69
Time_Shift_48
Note_On_80_Vel_0
Time_Shift_5
Note_On_80_Vel_72
Time_Shift_49
Note_On_78_Vel_0
Time_Shift_10
Note_On_78_Vel_86
Time_Shift_79
Note_On_61_Vel_46
Time_Shift_11
Note_On_80_Vel_0
Time_Shift_9
Note_On_80_Vel_69
Time_Shift_68
Note_On_78_Vel_0
Time_Shift_4
Note_On_78_Vel_62
Time_Shift_109
Note_On_76_Vel_78
Time_Shift_102
Note_On_78_Vel_0
Time_Shift_4
Note_On_78_Vel_84
Time_Shift_134
Note_On_80_Vel_0
Time_Shift_5
Note_On_80_Vel_79
Time_Shift_3
Note_On_49_Vel_0
Time_Shift_11
Note_On_49_Vel_51
Time_Shift_4
Note_On_76_Vel_0
Time_Shift_8
Note_On_76_Vel_57
Time_Shift_15
Note_On_61_Vel_0
Note_On_78_Vel_0
Note_On_63_Vel_0
Time_Shift_3
Note_On_57_Vel_0
Note_On_56_Vel_0
Time_Shift_5
Sustain_Off
Time_Shift_100
Sustain_On
Time_Shift_299
Note_On_56_Vel_43
Time_Shift_398
Note_On_64_Vel_41
Time_Shift_370
Note_On_76_Vel_0
Time_Shift_27
Note_On_73_Vel_36
Time_Shift_6
Note_On_61_Vel_32
Time_Shift_382
Note_On_49_Vel_0
Time_Shift_6
Note_On_49_Vel_45
Time_Shift_40
Note_On_73_Vel_0
Time_Shift_4
Note_On_73_Vel_73
Time_Shift_41
Note_On_61_Vel_0
Time_Shift_3
Note_On_64_Vel_0
Time_Shift_1
Note_On_56_Vel_0
Time_Shift_23
Sustain_Off
Time_Shift_128
Sustain_On
Time_Shift_218
Note_On_56_Vel_39
Time_Shift_396
Note_On_64_Vel_53
Time_Shift_85
Note_On_80_Vel_0
Time_Shift_307
Note_On_73_Vel_0
Time_Shift_7
Note_On_49_Vel_0
Time_Shift_3
Note_On_73_Vel_42
Time_Shift_5
Note_On_49_Vel_29
Time_Shift_3
Note_On_61_Vel_33
Time_Shift_381
Note_On_49_Vel_0
Time_Shift_5
Note_On_49_Vel_49
Time_Shift_118
Note_On_85_Vel_84
Time_Shift_54
Sustain_Off
Time_Shift_1
Note_On_64_Vel_0
Time_Shift_1
Note_On_56_Vel_0
Note_On_61_Vel_0
Time_Shift_51
Sustain_On
Time_Shift_252
Note_On_56_Vel_45
Time_Shift_405
Note_On_65_Vel_23
Time_Shift_319
Note_On_49_Vel_0
Time_Shift_11
Note_On_49_Vel_33
Time_Shift_5
Note_On_61_Vel_33
Time_Shift_160
Note_On_49_Vel_0
Time_Shift_11
Note_On_49_Vel_33
Time_Shift_166
Note_On_49_Vel_0
Time_Shift_10
Note_On_49_Vel_47
Time_Shift_121
Note_On_85_Vel_0
Time_Shift_5
Note_On_85_Vel_77
Time_Shift_58
Sustain_Off
Time_Shift_18
Note_On_61_Vel_0
Note_On_56_Vel_0
Time_Shift_26
Sustain_On
Time_Shift_69
Note_On_65_Vel_0
Time_Shift_158
Note_On_56_Vel_49
Time_Shift_138
Note_On_83_Vel_90
Time_Shift_242
Note_On_65_Vel_59
Time_Shift_123
Note_On_85_Vel_0
Time_Shift_5
Note_On_85_Vel_82
Time_Shift_210
Note_On_83_Vel_0
Time_Shift_11
Note_On_83_Vel_87
Time_Shift_20
Note_On_49_Vel_0
Note_On_73_Vel_0
Time_Shift_5
Note_On_73_Vel_55
Time_Shift_5
Note_On_49_Vel_51
Note_On_61_Vel_50
Time_Shift_184
Note_On_81_Vel_86
Time_Shift_10
Note_On_78_Vel_65
Time_Shift_11
Note_On_78_Vel_0
Time_Shift_184
Note_On_81_Vel_0
Time_Shift_9
Note_On_81_Vel_83
Time_Shift_18
Note_On_78_Vel_61
Time_Shift_50
Note_On_49_Vel_0
Time_Shift_6
Note_On_49_Vel_38
Time_Shift_6
Note_On_65_Vel_0
Time_Shift_1
Note_On_73_Vel_0
Note_On_85_Vel_0
Note_On_61_Vel_0
Time_Shift_1
Note_On_56_Vel_0
Note_On_83_Vel_0
Time_Shift_13
Sustain_Off
Time_Shift_19
Note_On_49_Vel_0
Time_Shift_107
Sustain_On
Time_Shift_163
Note_On_57_Vel_40
Time_Shift_374
Note_On_66_Vel_35
Time_Shift_337
Note_On_73_Vel_38
Time_Shift_4
Note_On_61_Vel_34
Note_On_49_Vel_32
Time_Shift_382
Note_On_78_Vel_0
Time_Shift_6
Note_On_78_Vel_34
Time_Shift_1
Note_On_54_Vel_42
Time_Shift_377
Note_On_57_Vel_0
Time_Shift_5
Note_On_57_Vel_40
Time_Shift_5
Note_On_69_Vel_34
Time_Shift_5
Note_On_69_Vel_0
Time_Shift_353
Note_On_66_Vel_0
Time_Shift_8
Note_On_66_Vel_43
Time_Shift_346
Note_On_73_Vel_0
Time_Shift_7
Note_On_61_Vel_0
Time_Shift_4
Note_On_73_Vel_41
Time_Shift_3
Note_On_61_Vel_33
Time_Shift_121
Note_On_49_Vel_0
Time_Shift_260
Note_On_48_Vel_53
Time_Shift_45
Note_On_80_Vel_83
Time_Shift_47
Sustain_Off
Time_Shift_27
Sustain_On
Time_Shift_146
Note_On_61_Vel_0
Time_Shift_183
Note_On_56_Vel_44
Time_Shift_32
Note_On_80_Vel_0
Time_Shift_7
Note_On_80_Vel_42
Time_Shift_324
Note_On_54_Vel_0
Note_On_78_Vel_0
Note_On_81_Vel_0
Time_Shift_7
Note_On_66_Vel_0
Time_Shift_8
Note_On_66_Vel_53
Time_Shift_364
Note_On_63_Vel_48
Time_Shift_15
Note_On_75_Vel_47
Time_Shift_5
Note_On_75_Vel_0
Time_Shift_338
Note_On_48_Vel_0
Time_Shift_10
Note_On_48_Vel_49
Time_Shift_99
Note_On_75_Vel_84
Time_Shift_54
Sustain_Off
Time_Shift_17
Note_On_63_Vel_0
Time_Shift_12
Note_On_57_Vel_0
Time_Shift_7
Note_On_73_Vel_0
Time_Shift_31
Note_On_56_Vel_0
Time_Shift_16
Sustain_On
Time_Shift_30
Note_On_66_Vel_0
Time_Shift_158
Note_On_56_Vel_43
Time_Shift_415
Note_On_66_Vel_45
Time_Shift_362
Note_On_63_Vel_41
Time_Shift_381
Note_On_49_Vel_46
Time_Shift_90
Note_On_76_Vel_76
Time_Shift_42
Sustain_Off
Time_Shift_4
Note_On_66_Vel_0
Note_On_48_Vel_0
Time_Shift_1
Note_On_56_Vel_0
Note_On_75_Vel_0
Time_Shift_1
Note_On_63_Vel_0
Time_Shift_1
Note_On_80_Vel_0
Time_Shift_89
Sustain_On
Time_Shift_276
Note_On_56_Vel_43
Time_Shift_351
Note_On_64_Vel_49
Time_Shift_364
Note_On_49_Vel_0
Time_Shift_4
Note_On_73_Vel_55
Time_Shift_2
Note_On_61_Vel_50
Time_Shift_4
Note_On_49_Vel_34
Time_Shift_335
Note_On_49_Vel_0
Time_Shift_6
Note_On_45_Vel_46
Time_Shift_2
Note_On_49_Vel_39
Time_Shift_4
Note_On_57_Vel_48
Time_Shift_66
Note_On_78_Vel_84
Time_Shift_64
Note_On_56_Vel_0
Time_Shift_1
Note_On_61_Vel_0
Note_On_76_Vel_0
Time_Shift_1
Note_On_64_Vel_0
Time_Shift_2
Sustain_Off
Time_Shift_46
Sustain_On
Time_Shift_260
Note_On_51_Vel_45
Time_Shift_55
Note_On_49_Vel_0
Time_Shift_62
Note_On_57_Vel_0
Time_Shift_212
Note_On_61_Vel_33
Time_Shift_79
Note_On_73_Vel_0
Time_Shift_4
Note_On_73_Vel_80
Time_Shift_311
Note_On_51_Vel_0
Time_Shift_11
Note_On_51_Vel_29
Time_Shift_2
Note_On_54_Vel_42
Time_Shift_448
Note_On_51_Vel_0
Note_On_73_Vel_0
Time_Shift_5
Note_On_51_Vel_30
Time_Shift_5
Note_On_73_Vel_59
Time_Shift_1
Note_On_56_Vel_40
Time_Shift_2
Note_On_44_Vel_36
Time_Shift_10
Note_On_44_Vel_0
Time_Shift_23
Note_On_45_Vel_0
Time_Shift_33
Note_On_61_Vel_0
Sustain_Off
Note_On_78_Vel_0
Time_Shift_1
Note_On_54_Vel_0
Time_Shift_89
Sustain_On
Time_Shift_95
Note_On_75_Vel_68
Time_Shift_151
Note_On_51_Vel_0
Time_Shift_4
Note_On_51_Vel_32
Time_Shift_30
Note_On_76_Vel_54
Time_Shift_89
Note_On_75_Vel_0
Time_Shift_4
Note_On_75_Vel_72
Time_Shift_88
Note_On_76_Vel_0
Time_Shift_5
Note_On_76_Vel_63
Time_Shift_79
Note_On_75_Vel_0
Time_Shift_12
Note_On_75_Vel_66
Time_Shift_50
Note_On_76_Vel_0
Time_Shift_7
Note_On_76_Vel_64
Time_Shift_47
Note_On_75_Vel_0
Time_Shift_4
Note_On_75_Vel_78
Time_Shift_65
Note_On_76_Vel_0
Time_Shift_11
Note_On_76_Vel_68
Time_Shift_65
Note_On_75_Vel_0
Time_Shift_9
Note_On_75_Vel_78
Time_Shift_68
Note_On_76_Vel_0
Time_Shift_5
Note_On_76_Vel_58
Time_Shift_57
Note_On_75_Vel_0
Time_Shift_10
Note_On_75_Vel_71
Time_Shift_43
Note_On_76_Vel_0
Time_Shift_8
Note_On_51_Vel_0
Time_Shift_3
Note_On_76_Vel_65
Time_Shift_8
Note_On_51_Vel_44
Time_Shift_51
Note_On_75_Vel_0
Time_Shift_10
Note_On_75_Vel_77
Time_Shift_51
Note_On_76_Vel_0
Time_Shift_9
Note_On_76_Vel_66
Time_Shift_60
Note_On_75_Vel_0
Time_Shift_10
Note_On_75_Vel_79
Time_Shift_98
Note_On_75_Vel_0
Time_Shift_7
Note_On_75_Vel_77
Time_Shift_46
Note_On_76_Vel_0
Time_Shift_11
Note_On_76_Vel_64
Time_Shift_59
Note_On_75_Vel_0
Time_Shift_6
Note_On_75_Vel_81
Time_Shift_63
Note_On_76_Vel_0
Time_Shift_4
Note_On_76_Vel_55
Time_Shift_42
Note_On_75_Vel_0
Time_Shift_5
Note_On_75_Vel_78
Time_Shift_49
Note_On_76_Vel_0
Time_Shift_6
Note_On_76_Vel_69
Time_Shift_63
Note_On_75_Vel_0
Time_Shift_5
Note_On_75_Vel_85
Time_Shift_64
Note_On_76_Vel_0
Time_Shift_6
Note_On_76_Vel_69
Time_Shift_55
Note_On_75_Vel_0
Time_Shift_8
Note_On_75_Vel_77
Time_Shift_46
Note_On_76_Vel_0
Time_Shift_5
Note_On_76_Vel_64
Time_Shift_64
Note_On_75_Vel_0
Time_Shift_4
Note_On_75_Vel_75
Time_Shift_58
Note_On_56_Vel_0
Note_On_73_Vel_0
Note_On_76_Vel_0
Time_Shift_4
Note_On_76_Vel_65
Time_Shift_65
Note_On_75_Vel_0
Time_Shift_4
Note_On_75_Vel_73
Time_Shift_49
Note_On_76_Vel_0
Time_Shift_6
Note_On_76_Vel_57
Time_Shift_56
Note_On_75_Vel_0
Time_Shift_4
Note_On_75_Vel_77
Time_Shift_4
Note_On_60_Vel_48
Time_Shift_61
Note_On_76_Vel_0
Time_Shift_5
Note_On_76_Vel_61
Time_Shift_87
Note_On_75_Vel_0
Time_Shift_8
Note_On_76_Vel_0
Time_Shift_4
Note_On_75_Vel_69
Time_Shift_1
Note_On_76_Vel_67
Time_Shift_87
Note_On_75_Vel_0
Time_Shift_4
Note_On_75_Vel_73
Time_Shift_73
Note_On_76_Vel_0
Time_Shift_4
Note_On_58_Vel_51
Time_Shift_2
Note_On_76_Vel_50
Time_Shift_40
Note_On_76_Vel_0
Time_Shift_6
Note_On_76_Vel_52
Time_Shift_25
Note_On_75_Vel_0
Time_Shift_4
Note_On_73_Vel_68
Time_Shift_1
Note_On_75_Vel_64
Time_Shift_71
Note_On_75_Vel_0
Time_Shift_7
Note_On_75_Vel_55
Time_Shift_55
Note_On_76_Vel_0
Time_Shift_7
Note_On_76_Vel_43
Time_Shift_116
Note_On_73_Vel_0
Time_Shift_7
Note_On_73_Vel_42
Time_Shift_93
Note_On_75_Vel_0
Time_Shift_3
Note_On_75_Vel_75
Time_Shift_4
Note_On_51_Vel_0
Time_Shift_11
Note_On_51_Vel_34
Time_Shift_1
Note_On_44_Vel_39
Time_Shift_58
Note_On_58_Vel_0
Time_Shift_3
Note_On_73_Vel_0
Time_Shift_1
Note_On_51_Vel_0
Time_Shift_11
Note_On_60_Vel_0
Note_On_76_Vel_0
Time_Shift_1
Sustain_Off
Time_Shift_7
Note_On_76_Vel_47
Time_Shift_68
Note_On_75_Vel_0
Time_Shift_11
Note_On_75_Vel_51
Time_Shift_51
Note_On_75_Vel_0
Time_Shift_10
Note_On_75_Vel_51
Time_Shift_74
Sustain_On
Time_Shift_85
Note_On_75_Vel_0
Time_Shift_10
Note_On_75_Vel_41
Time_Shift_30
Note_On_51_Vel_37
Time_Shift_378
Note_On_60_Vel_39
Time_Shift_358
Note_On_51_Vel_0
Note_On_56_Vel_45
Time_Shift_5
Note_On_51_Vel_22
Time_Shift_386
Note_On_44_Vel_0
Time_Shift_6
Note_On_44_Vel_32
Time_Shift_53
Sustain_Off
Time_Shift_7
Note_On_51_Vel_0
Time_Shift_1
Note_On_60_Vel_0
Time_Shift_179
Sustain_On
Time_Shift_207
Note_On_76_Vel_0
Time_Shift_29
Note_On_51_Vel_27
Time_Shift_352
Note_On_60_Vel_37
Time_Shift_113
Note_On_68_Vel_70
Time_Shift_367
Note_On_75_Vel_0
Time_Shift_46
Note_On_56_Vel_0
Time_Shift_4
Note_On_56_Vel_33
Time_Shift_437
Note_On_49_Vel_41
Time_Shift_123
Note_On_80_Vel_71
Time_Shift_27
Note_On_68_Vel_0
Time_Shift_6
Note_On_68_Vel_38
Time_Shift_30
Sustain_Off
Time_Shift_5
Note_On_60_Vel_0
Time_Shift_1
Note_On_56_Vel_0
Note_On_51_Vel_0
Time_Shift_12
Note_On_44_Vel_0
Time_Shift_138
Sustain_On
Time_Shift_77
Note_On_68_Vel_0
Time_Shift_167
Note_On_56_Vel_42
Time_Shift_419
Note_On_64_Vel_41
Time_Shift_2
Note_On_76_Vel_41
Time_Shift_421
Note_On_61_Vel_22
Time_Shift_419
Note_On_49_Vel_0
Time_Shift_4
Note_On_49_Vel_45
Time_Shift_5
Note_On_78_Vel_75
Time_Shift_87
Sustain_Off
Time_Shift_35
Sustain_On
Time_Shift_130
Note_On_80_Vel_0
Time_Shift_8
Note_On_80_Vel_61
Time_Shift_92
Note_On_78_Vel_0
Time_Shift_11
Note_On_78_Vel_71
Time_Shift_97
Note_On_80_Vel_0
Time_Shift_7
Note_On_80_Vel_62
Time_Shift_85
Note_On_78_Vel_0
Time_Shift_6
Note_On_78_Vel_55
Time_Shift_32
Note_On_80_Vel_0
Time_Shift_6
Note_On_80_Vel_69
Time_Shift_63
Note_On_78_Vel_0
Time_Shift_11
Note_On_78_Vel_75
Time_Shift_59
Note_On_80_Vel_0
Time_Shift_10
Note_On_80_Vel_69
Time_Shift_12
Note_On_51_Vel_38
Time_Shift_24
Note_On_78_Vel_0
Time_Shift_3
Note_On_78_Vel_74
Time_Shift_58
Note_On_80_Vel_0
Time_Shift_5
Note_On_80_Vel_75
Time_Shift_49
Note_On_78_Vel_0
Time_Shift_9
Note_On_78_Vel_70
Time_Shift_52
Note_On_80_Vel_0
Time_Shift_7
Note_On_80_Vel_84
Time_Shift_78
Note_On_78_Vel_0
Time_Shift_10
Note_On_78_Vel_71
Time_Shift_67
Note_On_61_Vel_0
Time_Shift_5
Note_On_61_Vel_41
Time_Shift_64
Note_On_76_Vel_0
Time_Shift_10
Note_On_76_Vel_59
Time_Shift_151
Note_On_80_Vel_0
Time_Shift_10
Note_On_80_Vel_71
Time_Shift_126
Note_On_81_Vel_70
Time_Shift_18
Note_On_56_Vel_0
Note_On_64_Vel_0
Time_Shift_145
Note_On_49_Vel_0
Time_Shift_8
Note_On_80_Vel_0
Time_Shift_3
Note_On_49_Vel_44
Time_Shift_3
Note_On_80_Vel_74
Time_Shift_33
Note_On_61_Vel_0
Time_Shift_1
Note_On_76_Vel_0
Time_Shift_22
Note_On_51_Vel_0
Time_Shift_4
Sustain_Off
Time_Shift_3
Note_On_78_Vel_0
Note_On_81_Vel_0
Time_Shift_123
Sustain_On
Time_Shift_218
Note_On_56_Vel_43
Time_Shift_365
Note_On_76_Vel_42
Time_Shift_1
Note_On_64_Vel_44
Time_Shift_381
Note_On_73_Vel_40
Time_Shift_6
Note_On_61_Vel_33
Time_Shift_342
Note_On_49_Vel_0
Time_Shift_12
Note_On_49_Vel_44
Time_Shift_42
Note_On_73_Vel_0
Time_Shift_11
Note_On_73_Vel_67
Time_Shift_32
Note_On_61_Vel_0
Time_Shift_1
Sustain_Off
Time_Shift_3
Note_On_56_Vel_0
Time_Shift_1
Note_On_64_Vel_0
Time_Shift_1
Note_On_76_Vel_0
Time_Shift_20
Note_On_80_Vel_0
Time_Shift_100
Sustain_On
Time_Shift_281
Note_On_56_Vel_37
Time_Shift_305
Note_On_64_Vel_47
Time_Shift_132
Note_On_85_Vel_85
Time_Shift_403
Note_On_73_Vel_0
Time_Shift_4
Note_On_73_Vel_48
Time_Shift_5
Note_On_61_Vel_42
Time_Shift_375
Note_On_49_Vel_0
Time_Shift_5
Note_On_49_Vel_54
Time_Shift_87
Note_On_97_Vel_96
Time_Shift_66
Sustain_Off
Time_Shift_65
Sustain_On
Time_Shift_204
Note_On_98_Vel_92
Time_Shift_27
Note_On_56_Vel_0
Note_On_61_Vel_0
Note_On_64_Vel_0
Note_On_73_Vel_0
Time_Shift_128
Note_On_56_Vel_44
Time_Shift_135
Note_On_95_Vel_94
Time_Shift_209
Note_On_65_Vel_59
Time_Shift_1
Note_On_77_Vel_58
Time_Shift_33
Note_On_95_Vel_0
Time_Shift_7
Note_On_93_Vel_95
Time_Shift_1
Note_On_95_Vel_80
Time_Shift_230
Note_On_92_Vel_88
Note_On_77_Vel_0
Time_Shift_5
Note_On_80_Vel_65
Time_Shift_1
Note_On_77_Vel_55
Time_Shift_10
Note_On_80_Vel_0
Time_Shift_119
Note_On_59_Vel_58
Time_Shift_95
Note_On_90_Vel_78
Time_Shift_247
Note_On_49_Vel_0
Time_Shift_3
Note_On_89_Vel_64
Time_Shift_5
Note_On_49_Vel_53
Time_Shift_171
Note_On_86_Vel_84
Time_Shift_189
Note_On_56_Vel_0
Note_On_85_Vel_0
Time_Shift_7
Note_On_85_Vel_74
Time_Shift_4
Note_On_56_Vel_45
Time_Shift_138
Note_On_83_Vel_73
Time_Shift_115
Note_On_81_Vel_70
Time_Shift_97
Note_On_65_Vel_0
Time_Shift_7
Note_On_65_Vel_45
Time_Shift_20
Note_On_80_Vel_63
Time_Shift_85
Note_On_78_Vel_74
Time_Shift_88
Note_On_77_Vel_0
Time_Shift_5
Note_On_77_Vel_78
Time_Shift_6
Note_On_73_Vel_56
Time_Shift_113
Note_On_74_Vel_76
Time_Shift_6
Note_On_59_Vel_0
Time_Shift_10
Note_On_59_Vel_50
Time_Shift_113
Note_On_73_Vel_0
Time_Shift_9
Note_On_73_Vel_69
Time_Shift_102
Note_On_71_Vel_70
Time_Shift_159
Note_On_69_Vel_72
Time_Shift_26
Note_On_54_Vel_46
Time_Shift_79
Note_On_86_Vel_0
Note_On_95_Vel_0
Note_On_98_Vel_0
Note_On_92_Vel_0
Note_On_89_Vel_0
Note_On_74_Vel_0
Time_Shift_1
Note_On_93_Vel_0
Note_On_97_Vel_0
Time_Shift_1
Note_On_85_Vel_0
Note_On_90_Vel_0
Note_On_80_Vel_0
Time_Shift_1
Note_On_77_Vel_0
Note_On_83_Vel_0
Note_On_59_Vel_0
Sustain_Off
Time_Shift_1
Note_On_65_Vel_0
Note_On_49_Vel_0
Note_On_78_Vel_0
Note_On_81_Vel_0
Time_Shift_5
Note_On_71_Vel_0
Note_On_73_Vel_0
Time_Shift_4
Note_On_73_Vel_57
Time_Shift_4
Note_On_56_Vel_0
Time_Shift_1
Note_On_71_Vel_46
Time_Shift_7
Note_On_71_Vel_0
Time_Shift_69
Sustain_On
Time_Shift_219
Note_On_57_Vel_43
Time_Shift_341
Note_On_69_Vel_0
Time_Shift_3
Note_On_66_Vel_45
Time_Shift_1
Note_On_69_Vel_35
Time_Shift_12
Note_On_73_Vel_0
Time_Shift_353
Note_On_73_Vel_47
Time_Shift_2
Note_On_49_Vel_29
Time_Shift_2
Note_On_61_Vel_38
Time_Shift_342
Note_On_57_Vel_0
Time_Shift_10
Note_On_57_Vel_50
Time_Shift_366
Note_On_49_Vel_0
Time_Shift_8
Note_On_54_Vel_0
Time_Shift_3
Note_On_49_Vel_28
Time_Shift_5
Note_On_54_Vel_45
Time_Shift_360
Note_On_49_Vel_0
Note_On_57_Vel_0
Time_Shift_11
Note_On_49_Vel_26
Note_On_57_Vel_50
Time_Shift_389
Note_On_49_Vel_0
Time_Shift_8
Note_On_49_Vel_54
Time_Shift_330
Note_On_49_Vel_0
Time_Shift_7
Note_On_54_Vel_0
Time_Shift_4
Note_On_49_Vel_41
Note_On_42_Vel_45
Time_Shift_2
Note_On_54_Vel_41
Time_Shift_66
Note_On_62_Vel_64
Time_Shift_2
Note_On_50_Vel_43
Time_Shift_75
Note_On_69_Vel_0
Note_On_61_Vel_0
Time_Shift_1
Note_On_66_Vel_0
Note_On_49_Vel_0
Time_Shift_7
Sustain_Off
Time_Shift_97
Sustain_On
Time_Shift_100
Note_On_73_Vel_0
Time_Shift_92
Note_On_50_Vel_0
Time_Shift_4
Note_On_50_Vel_44
Time_Shift_3
Note_On_57_Vel_0
Time_Shift_379
Note_On_57_Vel_44
Time_Shift_359
Note_On_54_Vel_0
Time_Shift_8
Note_On_54_Vel_38
Time_Shift_337
Note_On_42_Vel_0
Note_On_54_Vel_0
Time_Shift_4
Note_On_49_Vel_37
Time_Shift_5
Note_On_42_Vel_44
Time_Shift_1
Note_On_54_Vel_41
Time_Shift_6
Note_On_49_Vel_0
Time_Shift_115
Note_On_74_Vel_83
Time_Shift_72
Sustain_Off
Time_Shift_7
Note_On_62_Vel_0
Note_On_57_Vel_0
Note_On_50_Vel_0
Time_Shift_59
Sustain_On
Time_Shift_243
Note_On_50_Vel_44
Time_Shift_366
Note_On_57_Vel_42
Time_Shift_356
Note_On_73_Vel_75
Time_Shift_413
Note_On_72_Vel_75
Time_Shift_69
Sustain_Off
Time_Shift_1
Note_On_50_Vel_0
Time_Shift_1
Note_On_57_Vel_0
Note_On_74_Vel_0
Time_Shift_1
Note_On_73_Vel_0
Time_Shift_17
Note_On_42_Vel_0
Time_Shift_8
Note_On_54_Vel_0
Time_Shift_46
Sustain_On
Time_Shift_118
Note_On_73_Vel_58
Time_Shift_104
Note_On_72_Vel_0
Time_Shift_5
Note_On_72_Vel_61
Time_Shift_65
Note_On_73_Vel_0
Time_Shift_9
Note_On_73_Vel_68
Time_Shift_60
Note_On_72_Vel_0
Time_Shift_6
Note_On_72_Vel_57
Time_Shift_63
Note_On_73_Vel_0
Time_Shift_5
Note_On_73_Vel_64
Time_Shift_49
Note_On_72_Vel_0
Time_Shift_8
Note_On_72_Vel_67
Time_Shift_45
Note_On_73_Vel_0
Time_Shift_9
Note_On_73_Vel_66
Time_Shift_45
Note_On_72_Vel_0
Time_Shift_10
Note_On_72_Vel_75
Time_Shift_26
Note_On_57_Vel_48
Time_Shift_33
Note_On_73_Vel_0
Time_Shift_6
Note_On_73_Vel_56
Time_Shift_40
Note_On_72_Vel_0
Time_Shift_9
Note_On_72_Vel_74
Time_Shift_37
Note_On_73_Vel_0
Time_Shift_10
Note_On_73_Vel_80
Time_Shift_67
Note_On_72_Vel_0
Time_Shift_9
Note_On_72_Vel_72
Time_Shift_45
Note_On_73_Vel_0
Time_Shift_9
Note_On_73_Vel_67
Time_Shift_34
Note_On_71_Vel_83
Time_Shift_34
Note_On_54_Vel_49
Time_Shift_38
Note_On_72_Vel_0
Time_Shift_7
Note_On_72_Vel_79
Time_Shift_70
Note_On_73_Vel_0
Time_Shift_4
Note_On_73_Vel_76
Time_Shift_100
Note_On_74_Vel_86
Time_Shift_108
Note_On_75_Vel_92
Time_Shift_18
Note_On_71_Vel_0
Time_Shift_9
Note_On_71_Vel_60
Time_Shift_37
Note_On_74_Vel_0
Time_Shift_2
Note_On_62_Vel_44
Time_Shift_1
Note_On_55_Vel_46
Time_Shift_8
Note_On_74_Vel_68
Time_Shift_98
Note_On_76_Vel_93
Time_Shift_68
Note_On_73_Vel_0
Time_Shift_5
Note_On_73_Vel_62
Time_Shift_5
Sustain_Off
Time_Shift_2
Note_On_57_Vel_0
Time_Shift_1
Note_On_71_Vel_0
Note_On_72_Vel_0
Time_Shift_1
Note_On_75_Vel_0
Time_Shift_2
Note_On_74_Vel_0
Time_Shift_22
Note_On_54_Vel_0
Time_Shift_177
Note_On_73_Vel_0
Time_Shift_39
Sustain_On
Time_Shift_99
Note_On_62_Vel_0
Time_Shift_12
Note_On_52_Vel_52
Time_Shift_388
Note_On_61_Vel_42
Time_Shift_55
Note_On_75_Vel_91
Time_Shift_206
Note_On_75_Vel_0
Time_Shift_11
Note_On_75_Vel_54
Time_Shift_73
Note_On_76_Vel_0
Time_Shift_6
Note_On_76_Vel_47
Time_Shift_2
Note_On_58_Vel_56
Time_Shift_98
Note_On_73_Vel_83
Time_Shift_316
Note_On_44_Vel_50
Time_Shift_1
Note_On_63_Vel_46
Time_Shift_7
Note_On_63_Vel_0
Time_Shift_70
Note_On_75_Vel_0
Time_Shift_10
Note_On_75_Vel_64
Time_Shift_1
Note_On_68_Vel_77
Time_Shift_73
Note_On_55_Vel_0
Time_Shift_2
Note_On_58_Vel_0
Note_On_61_Vel_0
Time_Shift_1
Note_On_52_Vel_0
Note_On_73_Vel_0
Note_On_76_Vel_0
Time_Shift_2
Sustain_Off
Time_Shift_179
Sustain_On
Time_Shift_115
Note_On_51_Vel_57
Time_Shift_381
Note_On_69_Vel_79
Time_Shift_7
Note_On_73_Vel_65
Time_Shift_4
Note_On_51_Vel_0
Time_Shift_6
Note_On_61_Vel_45
Time_Shift_4
Note_On_51_Vel_44
Time_Shift_355
Note_On_56_Vel_40
Time_Shift_396
Note_On_44_Vel_0
Time_Shift_7
Note_On_51_Vel_0
Note_On_56_Vel_0
Time_Shift_2
Note_On_44_Vel_52
Time_Shift_2
Note_On_51_Vel_42
Time_Shift_3
Note_On_56_Vel_44
Time_Shift_56
Sustain_Off
Time_Shift_2
Note_On_61_Vel_0
Note_On_73_Vel_0
Time_Shift_43
Note_On_75_Vel_0
Time_Shift_123
Sustain_On
Time_Shift_161
Note_On_51_Vel_0
Time_Shift_4
Note_On_51_Vel_50
Time_Shift_165
Note_On_56_Vel_0
Time_Shift_148
Note_On_60_Vel_55
Time_Shift_75
Note_On_68_Vel_0
Time_Shift_9
Note_On_68_Vel_82
Time_Shift_52
Sustain_Off
Time_Shift_84
Sustain_On
Time_Shift_213
Note_On_54_Vel_45
Time_Shift_218
Note_On_69_Vel_0
Time_Shift_183
Note_On_73_Vel_62
Note_On_61_Vel_58
Time_Shift_1
Note_On_49_Vel_55
Time_Shift_96
Note_On_60_Vel_0
Time_Shift_2
Note_On_54_Vel_0
Note_On_51_Vel_0
Note_On_68_Vel_0
Time_Shift_5
Sustain_Off
Time_Shift_74
Note_On_44_Vel_0
Time_Shift_69
Sustain_On
Time_Shift_182
Note_On_56_Vel_49
Time_Shift_363
Note_On_49_Vel_0
Time_Shift_10
Note_On_52_Vel_52
Time_Shift_1
Note_On_49_Vel_39
Time_Shift_374
Note_On_51_Vel_58
Time_Shift_368
Note_On_49_Vel_0
Time_Shift_7
Note_On_61_Vel_0
Time_Shift_1
Note_On_49_Vel_58
Time_Shift_4
Note_On_61_Vel_41
Time_Shift_83
Sustain_Off
Note_On_56_Vel_0
Time_Shift_2
Note_On_51_Vel_0
Time_Shift_2
Note_On_52_Vel_0
Time_Shift_231
Sustain_On
Time_Shift_64
Note_On_52_Vel_45
Time_Shift_397
Note_On_49_Vel_0
Note_On_61_Vel_0
Time_Shift_7
Note_On_73_Vel_0
Time_Shift_2
Note_On_61_Vel_40
Time_Shift_1
Note_On_49_Vel_49
Time_Shift_3
Note_On_73_Vel_32
Time_Shift_448
Note_On_47_Vel_42
Time_Shift_2
Note_On_78_Vel_41
Time_Shift_5
Note_On_78_Vel_0
Time_Shift_422
Note_On_49_Vel_0
Note_On_52_Vel_0
Note_On_73_Vel_0
Time_Shift_3
Note_On_45_Vel_50
Time_Shift_2
Note_On_49_Vel_41
Note_On_73_Vel_52
Note_On_57_Vel_45
Time_Shift_5
Note_On_52_Vel_40
Time_Shift_101
Note_On_64_Vel_59
Time_Shift_5
Note_On_76_Vel_57
Time_Shift_86
Sustain_Off
Time_Shift_1
Note_On_47_Vel_0
Time_Shift_20
Note_On_61_Vel_0
Time_Shift_215
Note_On_52_Vel_0
Time_Shift_89
Note_On_52_Vel_42
Time_Shift_49
Sustain_On
Time_Shift_8
Note_On_45_Vel_0
Note_On_57_Vel_0
Time_Shift_208
Note_On_73_Vel_0
Time_Shift_48
Note_On_61_Vel_22
Time_Shift_21
Note_On_76_Vel_0
Time_Shift_5
Sustain_Off
Note_On_64_Vel_0
Time_Shift_70
Note_On_78_Vel_47
Time_Shift_1
Note_On_66_Vel_47
Time_Shift_31
Sustain_On
Time_Shift_162
Note_On_68_Vel_62
Time_Shift_42
Note_On_57_Vel_43
Time_Shift_115
Note_On_69_Vel_68
Time_Shift_23
Note_On_73_Vel_45
Time_Shift_109
Note_On_71_Vel_68
Time_Shift_110
Note_On_57_Vel_0
Time_Shift_7
Note_On_52_Vel_0
Time_Shift_3
Note_On_45_Vel_49
Time_Shift_1
Note_On_57_Vel_53
Time_Shift_7
Note_On_52_Vel_44
Time_Shift_43
Note_On_69_Vel_0
Time_Shift_11
Note_On_69_Vel_49
Time_Shift_32
Note_On_68_Vel_0
Note_On_61_Vel_0
Note_On_71_Vel_0
Time_Shift_1
Note_On_78_Vel_0
Note_On_66_Vel_0
Time_Shift_10
Note_On_49_Vel_0
Time_Shift_13
Sustain_Off
Time_Shift_2
Note_On_73_Vel_0
Time_Shift_7
Note_On_73_Vel_59
Time_Shift_1
Note_On_69_Vel_0
Time_Shift_4
Note_On_69_Vel_49
Time_Shift_165
Sustain_On
Time_Shift_19
Note_On_74_Vel_65
Time_Shift_35
Note_On_52_Vel_0
Time_Shift_8
Note_On_52_Vel_41
Time_Shift_138
Note_On_73_Vel_0
Time_Shift_7
Note_On_73_Vel_72
Time_Shift_207
Note_On_62_Vel_35
Time_Shift_5
Note_On_71_Vel_67
Time_Shift_329
Note_On_56_Vel_42
Time_Shift_327
Note_On_45_Vel_0
Time_Shift_8
Note_On_57_Vel_0
Time_Shift_3
Note_On_45_Vel_39
Time_Shift_1
Note_On_57_Vel_41
Time_Shift_34
Note_On_62_Vel_0
Time_Shift_16
Note_On_69_Vel_0
Time_Shift_76
Note_On_71_Vel_0
Note_On_73_Vel_0
Time_Shift_2
Note_On_76_Vel_70
Time_Shift_8
Note_On_71_Vel_53
Sustain_Off
Note_On_73_Vel_54
Time_Shift_6
Note_On_74_Vel_0
Time_Shift_23
Note_On_56_Vel_0
Time_Shift_31
Note_On_52_Vel_0
Time_Shift_46
Sustain_On
Time_Shift_15
Note_On_71_Vel_0
Time_Shift_180
Note_On_52_Vel_47
Time_Shift_4
Note_On_73_Vel_0
Time_Shift_69
Note_On_74_Vel_72
Time_Shift_157
Note_On_73_Vel_63
Time_Shift_48
Sustain_Off
Time_Shift_41
Sustain_On
Time_Shift_56
Note_On_71_Vel_72
Time_Shift_18
Note_On_61_Vel_27
Time_Shift_195
Note_On_73_Vel_0
Time_Shift_9
Note_On_73_Vel_40
Time_Shift_99
Note_On_57_Vel_0
Time_Shift_4
Note_On_57_Vel_42
Time_Shift_62
Note_On_69_Vel_71
Time_Shift_248
Note_On_45_Vel_0
Note_On_52_Vel_0
Note_On_57_Vel_0
Time_Shift_5
Note_On_57_Vel_53
Note_On_45_Vel_53
Time_Shift_2
Note_On_52_Vel_47
Time_Shift_84
Note_On_71_Vel_0
Time_Shift_1
Note_On_74_Vel_0
Time_Shift_5
Note_On_76_Vel_0
Time_Shift_11
Note_On_69_Vel_0
Note_On_73_Vel_0
Time_Shift_2
Sustain_Off
Time_Shift_3
Note_On_73_Vel_75
Time_Shift_5
Note_On_69_Vel_52
Time_Shift_44
Sustain_On
Time_Shift_158
Note_On_74_Vel_76
Time_Shift_26
Note_On_52_Vel_0
Time_Shift_10
Note_On_52_Vel_47
Time_Shift_144
Note_On_73_Vel_0
Time_Shift_4
Note_On_73_Vel_81
Time_Shift_19
Note_On_69_Vel_0
Time_Shift_8
Note_On_69_Vel_39
Time_Shift_188
Note_On_71_Vel_77
Time_Shift_310
Note_On_56_Vel_50
Time_Shift_246
Note_On_45_Vel_0
Note_On_52_Vel_0
Time_Shift_6
Note_On_45_Vel_42
Time_Shift_2
Note_On_52_Vel_35
Time_Shift_100
Note_On_61_Vel_0
Time_Shift_4
Note_On_56_Vel_0
Note_On_73_Vel_0
Note_On_71_Vel_0
Time_Shift_7
Sustain_Off
Time_Shift_11
Note_On_76_Vel_77
Time_Shift_16
Note_On_74_Vel_0
Time_Shift_6
Note_On_74_Vel_62
Time_Shift_71
Note_On_69_Vel_0
Time_Shift_8
Sustain_On
Time_Shift_268
Note_On_52_Vel_0
Time_Shift_7
Note_On_52_Vel_38
Time_Shift_308
Note_On_76_Vel_0
Time_Shift_6
Note_On_76_Vel_80
Time_Shift_2
Note_On_74_Vel_0
Time_Shift_11
Note_On_74_Vel_70
Time_Shift_39
Sustain_Off
Time_Shift_35
Sustain_On
Time_Shift_217
Note_On_56_Vel_51
Time_Shift_167
Note_On_74_Vel_0
Time_Shift_6
Note_On_74_Vel_82
Time_Shift_155
Note_On_76_Vel_0
Time_Shift_9
Note_On_76_Vel_79
Time_Shift_37
Note_On_57_Vel_0
Time_Shift_8
Note_On_74_Vel_0
Time_Shift_3
Note_On_57_Vel_43
Time_Shift_3
Note_On_74_Vel_61
Time_Shift_4
Note_On_73_Vel_55
Time_Shift_1
Sustain_Off
Time_Shift_16
Note_On_52_Vel_0
Time_Shift_3
Note_On_56_Vel_0
Time_Shift_100
Sustain_On
Time_Shift_146
Note_On_74_Vel_0
Time_Shift_44
Note_On_52_Vel_40
Time_Shift_102
Note_On_73_Vel_0
Time_Shift_150
Note_On_64_Vel_50
Time_Shift_69
Note_On_85_Vel_91
Time_Shift_4
Note_On_76_Vel_0
Time_Shift_9
Note_On_76_Vel_74
Time_Shift_236
Note_On_57_Vel_0
Time_Shift_8
Note_On_57_Vel_47
Time_Shift_161
Note_On_85_Vel_0
Time_Shift_8
Note_On_76_Vel_0
Time_Shift_3
Note_On_85_Vel_81
Time_Shift_6
Note_On_76_Vel_71
Time_Shift_142
Note_On_83_Vel_85
Time_Shift_10
Note_On_52_Vel_0
Time_Shift_6
Note_On_52_Vel_43
Time_Shift_7
Note_On_74_Vel_67
Time_Shift_3
Note_On_76_Vel_0
Time_Shift_4
Note_On_76_Vel_62
Time_Shift_23
Note_On_57_Vel_0
Note_On_64_Vel_0
Note_On_85_Vel_0
Time_Shift_11
Sustain_Off
Time_Shift_31
Note_On_52_Vel_0
Note_On_76_Vel_0
Time_Shift_46
Sustain_On
Time_Shift_166
Note_On_52_Vel_50
Time_Shift_144
Note_On_81_Vel_83
Time_Shift_8
Note_On_73_Vel_70
Time_Shift_6
Note_On_76_Vel_58
Time_Shift_137
Note_On_83_Vel_0
Time_Shift_7
Note_On_74_Vel_0
Time_Shift_4
Note_On_83_Vel_86
Time_Shift_7
Note_On_74_Vel_71
Time_Shift_5
Note_On_64_Vel_43
Time_Shift_342
Note_On_56_Vel_43
Time_Shift_133
Note_On_85_Vel_74
Time_Shift_9
Note_On_76_Vel_0
Time_Shift_4
Note_On_76_Vel_60
Time_Shift_226
Note_On_45_Vel_0
Note_On_73_Vel_0
Note_On_81_Vel_0
Time_Shift_5
Note_On_81_Vel_70
Note_On_73_Vel_52
Time_Shift_5
Note_On_45_Vel_38
Time_Shift_64
Note_On_52_Vel_0
Time_Shift_1
Note_On_56_Vel_0
Note_On_76_Vel_0
Note_On_74_Vel_0
Time_Shift_1
Note_On_83_Vel_0
Time_Shift_4
Sustain_Off
Time_Shift_4
Note_On_64_Vel_0
Time_Shift_93
Sustain_On
Time_Shift_204
Note_On_52_Vel_33
Time_Shift_295
Note_On_73_Vel_0
Time_Shift_11
Note_On_73_Vel_44
Note_On_61_Vel_34
Time_Shift_376
Note_On_57_Vel_42
Time_Shift_20
Note_On_85_Vel_0
Time_Shift_334
Note_On_49_Vel_32
Note_On_42_Vel_33
Time_Shift_1
Note_On_70_Vel_37
Time_Shift_10
Note_On_70_Vel_0
Time_Shift_39
Note_On_42_Vel_0
Note_On_61_Vel_0
Note_On_73_Vel_0
Time_Shift_4
Note_On_73_Vel_59
Time_Shift_1
Note_On_61_Vel_58
Time_Shift_47
Note_On_57_Vel_0
Time_Shift_1
Note_On_52_Vel_0
Time_Shift_6
Sustain_Off
Time_Shift_2
Note_On_45_Vel_0
Note_On_49_Vel_0
Time_Shift_8
Note_On_81_Vel_0
Time_Shift_177
Sustain_On
Time_Shift_139
Note_On_49_Vel_39
Time_Shift_60
Note_On_63_Vel_69
Time_Shift_172
Note_On_65_Vel_73
Time_Shift_1
Note_On_77_Vel_62
Time_Shift_135
Note_On_49_Vel_0
Time_Shift_5
Note_On_66_Vel_82
Time_Shift_5
Note_On_57_Vel_57
Time_Shift_1
Note_On_49_Vel_38
Time_Shift_257
Note_On_49_Vel_0
Time_Shift_3
Note_On_54_Vel_52
Time_Shift_1
Note_On_49_Vel_35
Time_Shift_72
Note_On_68_Vel_86
Time_Shift_224
Note_On_68_Vel_0
Time_Shift_5
Note_On_68_Vel_52
Time_Shift_108
Sustain_Off
Time_Shift_2
Note_On_49_Vel_0
Time_Shift_10
Note_On_49_Vel_46
Time_Shift_1
Note_On_69_Vel_82
Time_Shift_27
Note_On_77_Vel_0
Time_Shift_1
Note_On_66_Vel_0
Time_Shift_10
Note_On_54_Vel_0
Time_Shift_5
Note_On_63_Vel_0
Time_Shift_23
Note_On_61_Vel_0
Time_Shift_8
Note_On_65_Vel_0
Note_On_73_Vel_0
Time_Shift_38
Note_On_57_Vel_0
Time_Shift_15
Sustain_On
Time_Shift_31
Note_On_68_Vel_0
Time_Shift_67
Note_On_71_Vel_75
Time_Shift_133
Note_On_49_Vel_0
Time_Shift_7
Note_On_49_Vel_43
Time_Shift_62
Note_On_69_Vel_0
Time_Shift_10
Note_On_69_Vel_77
Time_Shift_205
Note_On_49_Vel_0
Time_Shift_4
Note_On_59_Vel_55
Time_Shift_6
Note_On_68_Vel_78
Time_Shift_1
Note_On_49_Vel_48
Time_Shift_212
Note_On_68_Vel_0
Time_Shift_6
Note_On_68_Vel_47
Time_Shift_132
Note_On_49_Vel_0
Time_Shift_5
Note_On_49_Vel_33
Time_Shift_2
Note_On_53_Vel_41
Time_Shift_285
Note_On_49_Vel_0
Time_Shift_3
Note_On_42_Vel_39
Time_Shift_2
Note_On_49_Vel_36
Time_Shift_43
Sustain_Off
Time_Shift_4
Note_On_71_Vel_0
Time_Shift_18
Note_On_59_Vel_0
Time_Shift_2
Note_On_53_Vel_0
Time_Shift_12
Note_On_69_Vel_0
Time_Shift_15
Note_On_68_Vel_0
Time_Shift_4
Note_On_73_Vel_69
Time_Shift_104
Sustain_On
Time_Shift_23
Note_On_49_Vel_0
Time_Shift_100
Note_On_73_Vel_0
Time_Shift_5
Note_On_73_Vel_40
Time_Shift_98
Note_On_49_Vel_50
Time_Shift_45
Note_On_71_Vel_67
Time_Shift_162
Note_On_69_Vel_75
Time_Shift_159
Note_On_68_Vel_77
Time_Shift_5
Note_On_59_Vel_51
Time_Shift_2
Note_On_49_Vel_0
Time_Shift_11
Note_On_49_Vel_40
Time_Shift_278
Note_On_73_Vel_0
Time_Shift_1
Note_On_53_Vel_46
Time_Shift_2
Note_On_69_Vel_0
Time_Shift_5
Note_On_61_Vel_59
Time_Shift_1
Note_On_69_Vel_52
Time_Shift_278
Note_On_61_Vel_0
Time_Shift_5
Note_On_61_Vel_41
Time_Shift_1
Note_On_54_Vel_35
Time_Shift_2
Note_On_49_Vel_0
Time_Shift_10
Note_On_49_Vel_35
Time_Shift_34
Sustain_Off
Time_Shift_1
Note_On_71_Vel_0
Note_On_49_Vel_0
Note_On_68_Vel_0
Time_Shift_4
Note_On_53_Vel_0
Time_Shift_20
Note_On_59_Vel_0
Time_Shift_54
Note_On_54_Vel_0
Time_Shift_30
Note_On_69_Vel_0
Sustain_On
Time_Shift_4
Note_On_69_Vel_54
Time_Shift_229
Note_On_71_Vel_59
Time_Shift_24
Note_On_49_Vel_45
Time_Shift_135
Note_On_69_Vel_0
Time_Shift_4
Note_On_69_Vel_49
Time_Shift_132
Sustain_Off
Time_Shift_56
Note_On_49_Vel_0
Sustain_On
Time_Shift_2
Note_On_57_Vel_45
Time_Shift_9
Note_On_49_Vel_28
Time_Shift_1
Note_On_66_Vel_57
Time_Shift_96
Note_On_42_Vel_0
Time_Shift_224
Note_On_54_Vel_39
Time_Shift_286
Note_On_44_Vel_43
Time_Shift_6
Note_On_56_Vel_40
Time_Shift_69
Note_On_49_Vel_0
Time_Shift_7
Note_On_71_Vel_0
Time_Shift_10
Note_On_68_Vel_76
Time_Shift_4
Note_On_61_Vel_0
Time_Shift_8
Note_On_66_Vel_0
Time_Shift_4
Sustain_Off
Time_Shift_4
Note_On_66_Vel_57
Time_Shift_7
Note_On_69_Vel_0
Time_Shift_16
Note_On_57_Vel_0
Time_Shift_46
Sustain_On
Time_Shift_46
Note_On_54_Vel_0
Time_Shift_215
Note_On_68_Vel_0
Time_Shift_11
Note_On_68_Vel_44
Time_Shift_1
Note_On_51_Vel_29
Time_Shift_260
Note_On_60_Vel_51
Time_Shift_58
Note_On_66_Vel_0
Note_On_68_Vel_0
Time_Shift_5
Note_On_68_Vel_80
Time_Shift_6
Note_On_66_Vel_76
Time_Shift_266
Note_On_56_Vel_0
Time_Shift_6
Note_On_56_Vel_43
Time_Shift_147
Note_On_68_Vel_0
Time_Shift_5
Note_On_68_Vel_79
Time_Shift_141
Note_On_68_Vel_0
Time_Shift_11
Note_On_68_Vel_76
Time_Shift_12
Note_On_76_Vel_53
Note_On_49_Vel_48
Time_Shift_3
Note_On_51_Vel_0
Time_Shift_1
Note_On_66_Vel_0
Time_Shift_1
Note_On_56_Vel_0
Time_Shift_1
Note_On_60_Vel_0
Time_Shift_9
Note_On_44_Vel_0
Time_Shift_3
Sustain_Off
Time_Shift_74
Sustain_On
Time_Shift_226
Note_On_52_Vel_42
Time_Shift_266
Note_On_49_Vel_0
Time_Shift_4
Note_On_73_Vel_52
Time_Shift_7
Note_On_49_Vel_46
Time_Shift_20
Note_On_76_Vel_0
Time_Shift_10
Note_On_76_Vel_86
Time_Shift_20
Note_On_68_Vel_0
Time_Shift_8
Note_On_68_Vel_60
Time_Shift_230
Note_On_56_Vel_45
Time_Shift_146
Note_On_76_Vel_0
Time_Shift_5
Note_On_76_Vel_83
Time_Shift_26
Note_On_68_Vel_0
Time_Shift_4
Note_On_68_Vel_63
Time_Shift_129
Note_On_75_Vel_88
Time_Shift_16
Note_On_44_Vel_45
Time_Shift_5
Note_On_68_Vel_0
Time_Shift_7
Note_On_66_Vel_61
Time_Shift_2
Note_On_68_Vel_58
Time_Shift_1
Sustain_Off
Time_Shift_13
Note_On_73_Vel_0
Time_Shift_30
Sustain_On
Time_Shift_242
Note_On_51_Vel_47
Time_Shift_147
Note_On_73_Vel_80
Note_On_64_Vel_64
Time_Shift_3
Note_On_68_Vel_0
Time_Shift_10
Note_On_68_Vel_54
Time_Shift_128
Note_On_66_Vel_0
Note_On_75_Vel_0
Time_Shift_5
Note_On_75_Vel_93
Time_Shift_1
Note_On_66_Vel_66
Time_Shift_13
Note_On_60_Vel_54
Time_Shift_304
Note_On_49_Vel_0
Note_On_56_Vel_0
Time_Shift_4
Note_On_56_Vel_45
Time_Shift_1
Note_On_49_Vel_38
Time_Shift_141
Note_On_76_Vel_0
Time_Shift_4
Note_On_76_Vel_84
Time_Shift_26
Note_On_68_Vel_0
Time_Shift_7
Note_On_68_Vel_56
Time_Shift_208
Note_On_49_Vel_0
Note_On_73_Vel_0
Time_Shift_7
Note_On_73_Vel_67
Time_Shift_2
Note_On_49_Vel_52
Time_Shift_22
Note_On_64_Vel_0
Time_Shift_9
Note_On_64_Vel_40
Time_Shift_35
Note_On_76_Vel_0
Time_Shift_1
Note_On_51_Vel_0
Note_On_60_Vel_0
Note_On_56_Vel_0
Note_On_66_Vel_0
Time_Shift_1
Note_On_68_Vel_0
Note_On_52_Vel_0
Time_Shift_1
Note_On_75_Vel_0
Time_Shift_9
Sustain_Off
Time_Shift_13
Note_On_44_Vel_0
Time_Shift_154
Sustain_On
Time_Shift_148
Note_On_52_Vel_30
Time_Shift_281
Note_On_76_Vel_40
Time_Shift_16
Note_On_73_Vel_0
Time_Shift_11
Note_On_73_Vel_46
Time_Shift_8
Note_On_61_Vel_39
Time_Shift_4
Note_On_49_Vel_0
Time_Shift_5
Note_On_49_Vel_22
Time_Shift_333
Note_On_49_Vel_0
Time_Shift_4
Note_On_56_Vel_44
Time_Shift_1
Note_On_49_Vel_23
Time_Shift_303
Note_On_49_Vel_0
Time_Shift_4
Note_On_45_Vel_41
Time_Shift_4
Note_On_49_Vel_32
Time_Shift_84
Note_On_73_Vel_0
Time_Shift_8
Note_On_73_Vel_79
Time_Shift_158
Note_On_75_Vel_81
Time_Shift_79
Note_On_73_Vel_0
Time_Shift_11
Note_On_73_Vel_72
Time_Shift_59
Note_On_49_Vel_0
Note_On_75_Vel_0
Time_Shift_5
Note_On_49_Vel_46
Time_Shift_4
Note_On_75_Vel_82
Time_Shift_1
Note_On_51_Vel_47
Time_Shift_97
Note_On_75_Vel_0
Time_Shift_11
Note_On_75_Vel_78
Time_Shift_35
Note_On_73_Vel_0
Time_Shift_9
Note_On_73_Vel_82
Time_Shift_60
Note_On_75_Vel_0
Time_Shift_11
Note_On_75_Vel_80
Time_Shift_104
Note_On_75_Vel_0
Time_Shift_5
Note_On_75_Vel_78
Time_Shift_26
Note_On_73_Vel_0
Time_Shift_5
Note_On_73_Vel_70
Time_Shift_72
Note_On_75_Vel_0
Time_Shift_11
Note_On_75_Vel_70
Time_Shift_12
Note_On_61_Vel_0
Time_Shift_11
Note_On_61_Vel_51
Time_Shift_113
Note_On_72_Vel_70
Time_Shift_252
Note_On_51_Vel_0
Note_On_73_Vel_0
Note_On_75_Vel_0
Time_Shift_9
Note_On_73_Vel_55
Time_Shift_1
Note_On_55_Vel_43
Note_On_51_Vel_28
Time_Shift_2
Note_On_75_Vel_52
Time_Shift_88
Note_On_73_Vel_0
Time_Shift_6
Note_On_73_Vel_83
Time_Shift_324
Note_On_56_Vel_0
Time_Shift_6
Note_On_44_Vel_38
Time_Shift_6
Note_On_56_Vel_37
Time_Shift_73
Note_On_76_Vel_0
Time_Shift_7
Note_On_76_Vel_77
Time_Shift_29
Note_On_49_Vel_0
Time_Shift_1
Note_On_55_Vel_0
Time_Shift_1
Note_On_61_Vel_0
Time_Shift_1
Note_On_73_Vel_0
Time_Shift_1
Note_On_45_Vel_0
Note_On_52_Vel_0
Note_On_72_Vel_0
Time_Shift_1
Sustain_Off
Time_Shift_5
Note_On_64_Vel_0
Time_Shift_31
Note_On_75_Vel_0
Time_Shift_92
Sustain_On
Time_Shift_487
Note_On_60_Vel_47
Time_Shift_315
Note_On_75_Vel_84
Time_Shift_311
Note_On_51_Vel_0
Time_Shift_3
Note_On_57_Vel_49
Note_On_45_Vel_45
Time_Shift_8
Note_On_51_Vel_38
Time_Shift_69
Note_On_63_Vel_69
Time_Shift_19
Sustain_Off
Time_Shift_5
Note_On_75_Vel_0
Time_Shift_1
Note_On_44_Vel_0
Time_Shift_2
Note_On_51_Vel_0
Time_Shift_4
Note_On_60_Vel_0
Time_Shift_12
Note_On_56_Vel_0
Time_Shift_16
Note_On_76_Vel_0
Time_Shift_92
Sustain_On
Time_Shift_149
Note_On_51_Vel_48
Time_Shift_174
Note_On_73_Vel_78
Time_Shift_161
Note_On_51_Vel_0
Note_On_73_Vel_0
Time_Shift_5
Note_On_73_Vel_85
Time_Shift_3
Note_On_51_Vel_46
Time_Shift_278
Note_On_55_Vel_51
Time_Shift_59
Note_On_73_Vel_0
Time_Shift_11
Note_On_73_Vel_81
Time_Shift_343
Note_On_51_Vel_0
Time_Shift_10
Note_On_72_Vel_80
Note_On_56_Vel_45
Time_Shift_1
Note_On_51_Vel_33
Time_Shift_5
Sustain_Off
Time_Shift_29
Note_On_55_Vel_0
Time_Shift_1
Note_On_57_Vel_0
Time_Shift_3
Note_On_73_Vel_0
Time_Shift_4
Note_On_45_Vel_0
Time_Shift_16
Note_On_63_Vel_0
Time_Shift_84
Note_On_51_Vel_0
Time_Shift_16
Sustain_On
Time_Shift_191
Note_On_51_Vel_30
Time_Shift_62
Note_On_56_Vel_0
Time_Shift_21
Note_On_75_Vel_80
Time_Shift_302
Note_On_51_Vel_0
Time_Shift_8
Note_On_51_Vel_21
Time_Shift_2
Note_On_60_Vel_42
Time_Shift_310
Note_On_56_Vel_39
Time_Shift_17
Note_On_51_Vel_0
Time_Shift_12
Note_On_51_Vel_13
Time_Shift_317
Note_On_50_Vel_45
Time_Shift_118
Note_On_68_Vel_69
Time_Shift_49
Sustain_Off
Time_Shift_7
Note_On_72_Vel_0
Note_On_51_Vel_0
Time_Shift_1
Note_On_56_Vel_0
Note_On_60_Vel_0
Time_Shift_174
Note_On_70_Vel_71
Time_Shift_8
Note_On_53_Vel_43
Time_Shift_33
Note_On_68_Vel_0
Time_Shift_11
Sustain_On
Time_Shift_126
Note_On_68_Vel_72
Time_Shift_151
Note_On_58_Vel_49
Time_Shift_12
Note_On_67_Vel_75
Time_Shift_313
Note_On_65_Vel_62
Time_Shift_21
Note_On_56_Vel_39
Time_Shift_337
Note_On_65_Vel_0
Time_Shift_8
Note_On_65_Vel_60
Note_On_77_Vel_60
Time_Shift_46
Note_On_70_Vel_0
Time_Shift_4
Note_On_58_Vel_0
Note_On_50_Vel_0
Time_Shift_1
Note_On_68_Vel_0
Note_On_56_Vel_0
Note_On_53_Vel_0
Note_On_67_Vel_0
Time_Shift_6
Sustain_Off
Time_Shift_4
Note_On_75_Vel_0
Time_Shift_100
Sustain_On
Time_Shift_187
Note_On_56_Vel_48
Time_Shift_325
Note_On_60_Vel_42
Time_Shift_321
Note_On_63_Vel_62
Time_Shift_7
Note_On_58_Vel_48
Note_On_75_Vel_57
Time_Shift_2
Note_On_70_Vel_47
Time_Shift_302
Note_On_63_Vel_0
Time_Shift_8
Note_On_75_Vel_0
Time_Shift_2
Note_On_63_Vel_59
Time_Shift_3
Note_On_51_Vel_35
Note_On_75_Vel_62
Time_Shift_36
Sustain_Off
Time_Shift_8
Note_On_56_Vel_0
Note_On_60_Vel_0
Note_On_58_Vel_0
Time_Shift_1
Note_On_77_Vel_0
Time_Shift_11
Note_On_65_Vel_0
Time_Shift_77
Sustain_On
Time_Shift_162
Note_On_70_Vel_0
Time_Shift_61
Note_On_51_Vel_0
Time_Shift_3
Note_On_58_Vel_47
Time_Shift_8
Note_On_51_Vel_30
Time_Shift_138
Note_On_73_Vel_70
Time_Shift_139
Note_On_65_Vel_64
Time_Shift_1
Note_On_77_Vel_59
Time_Shift_46
Sustain_Off
Time_Shift_6
Note_On_61_Vel_13
Time_Shift_35
Sustain_On
Time_Shift_23
Note_On_63_Vel_0
Time_Shift_116
Note_On_75_Vel_0
Time_Shift_53
Note_On_73_Vel_0
Time_Shift_73
Note_On_63_Vel_49
Time_Shift_3
Note_On_75_Vel_53
Time_Shift_145
Note_On_67_Vel_71
Time_Shift_238
Note_On_80_Vel_65
Time_Shift_2
Note_On_51_Vel_0
Time_Shift_2
Note_On_68_Vel_79
Time_Shift_2
Note_On_44_Vel_48
Time_Shift_2
Note_On_51_Vel_44
Time_Shift_2
Note_On_80_Vel_0
Time_Shift_27
Sustain_Off
Time_Shift_1
Note_On_77_Vel_0
Time_Shift_2
Note_On_67_Vel_0
Note_On_63_Vel_0
Time_Shift_16
Note_On_58_Vel_0
Time_Shift_54
Sustain_On
Time_Shift_23
Note_On_75_Vel_0
Time_Shift_107
Note_On_61_Vel_0
Time_Shift_16
Note_On_51_Vel_0
Note_On_68_Vel_0
Time_Shift_4
Note_On_68_Vel_51
Time_Shift_1
Note_On_51_Vel_44
Time_Shift_10
Note_On_65_Vel_0
Time_Shift_295
Note_On_80_Vel_89
Time_Shift_7
Note_On_75_Vel_58
Time_Shift_228
Note_On_68_Vel_0
Time_Shift_1
Note_On_72_Vel_80
Time_Shift_9
Note_On_68_Vel_58
Time_Shift_2
Note_On_60_Vel_54
Time_Shift_45
Note_On_44_Vel_0
Sustain_Off
Time_Shift_1
Note_On_80_Vel_0
Time_Shift_65
Sustain_On
Time_Shift_15
Note_On_75_Vel_0
Time_Shift_380
Note_On_56_Vel_48
Note_On_48_Vel_30
Time_Shift_4
Note_On_48_Vel_0
Time_Shift_90
Note_On_73_Vel_83
Time_Shift_303
Note_On_49_Vel_42
Time_Shift_1
Note_On_45_Vel_48
Time_Shift_79
Note_On_75_Vel_78
Time_Shift_39
Sustain_Off
Time_Shift_10
Note_On_72_Vel_0
Note_On_68_Vel_0
Time_Shift_1
Note_On_73_Vel_0
Note_On_56_Vel_0
Time_Shift_1
Note_On_60_Vel_0
Time_Shift_14
Note_On_51_Vel_0
Time_Shift_84
Sustain_On
Time_Shift_231
Note_On_75_Vel_0
Time_Shift_9
Note_On_75_Vel_49
Time_Shift_21
Note_On_49_Vel_0
Time_Shift_165
Note_On_51_Vel_37
Time_Shift_83
Note_On_55_Vel_48
Time_Shift_71
Note_On_63_Vel_59
Time_Shift_69
Note_On_73_Vel_65
Time_Shift_6
Note_On_61_Vel_63
Time_Shift_374
Note_On_51_Vel_0
Time_Shift_7
Note_On_45_Vel_0
Time_Shift_2
Note_On_73_Vel_0
Time_Shift_1
Note_On_63_Vel_0
Note_On_61_Vel_0
Note_On_55_Vel_0
Time_Shift_1
Note_On_51_Vel_40
Time_Shift_1
Sustain_Off
Note_On_44_Vel_50
Time_Shift_19
Note_On_75_Vel_0
Time_Shift_69
Note_On_51_Vel_0
Time_Shift_11
Note_On_51_Vel_47
Time_Shift_28
Sustain_On
Time_Shift_23
Sustain_Off
Time_Shift_31
Note_On_56_Vel_61
Time_Shift_112
Note_On_60_Vel_59
Time_Shift_63
Note_On_56_Vel_0
Time_Shift_70
Sustain_On
Time_Shift_8
Note_On_44_Vel_0
Time_Shift_357
Note_On_56_Vel_65
Time_Shift_42
Note_On_51_Vel_0
Time_Shift_23
Sustain_Off
Time_Shift_81
Note_On_39_Vel_59
Time_Shift_2
Note_On_51_Vel_59
Time_Shift_12
Note_On_56_Vel_0
Time_Shift_2
Note_On_60_Vel_0
Time_Shift_180
Sustain_On
Time_Shift_276
Note_On_51_Vel_0
Time_Shift_4
Note_On_51_Vel_49
Time_Shift_79
Note_On_55_Vel_52
Time_Shift_91
Note_On_60_Vel_51
Time_Shift_75
Note_On_58_Vel_69
Time_Shift_322
Sustain_Off
Time_Shift_6
Note_On_58_Vel_0
Note_On_60_Vel_0
Time_Shift_2
Note_On_55_Vel_0
Time_Shift_5
Note_On_39_Vel_0
Time_Shift_7
Note_On_51_Vel_0
Time_Shift_7
Note_On_44_Vel_49
Time_Shift_2
Note_On_51_Vel_41
Time_Shift_1
Note_On_56_Vel_47
Time_Shift_144
Note_On_56_Vel_0
Time_Shift_9
Note_On_56_Vel_47
Time_Shift_120
Note_On_60_Vel_51
Time_Shift_2
Note_On_56_Vel_0
Time_Shift_7
Note_On_56_Vel_41
Time_Shift_16
Sustain_On
Time_Shift_460
Note_On_56_Vel_0
Time_Shift_7
Note_On_56_Vel_66
Time_Shift_178
Note_On_56_Vel_0
Time_Shift_4
Note_On_45_Vel_55
Time_Shift_2
Note_On_57_Vel_56
Time_Shift_5
Note_On_56_Vel_58
Time_Shift_38
Sustain_Off
Time_Shift_3
Note_On_51_Vel_0
Note_On_60_Vel_0
Time_Shift_9
Note_On_44_Vel_0
Time_Shift_146
Note_On_56_Vel_0
Time_Shift_92
Sustain_On
Time_Shift_93
Note_On_51_Vel_59
Time_Shift_76
Note_On_57_Vel_0
Time_Shift_21
Note_On_55_Vel_52
Time_Shift_78
Note_On_63_Vel_65
Time_Shift_51
Sustain_Off
Time_Shift_80
Note_On_61_Vel_54
Time_Shift_8
Note_On_45_Vel_0
Time_Shift_351
Note_On_44_Vel_50
Time_Shift_6
Note_On_56_Vel_48
Time_Shift_1
Note_On_61_Vel_0
Time_Shift_1
Note_On_55_Vel_0
Note_On_63_Vel_0
Time_Shift_156
Note_On_56_Vel_0
Time_Shift_9
Note_On_56_Vel_52
Time_Shift_106
Note_On_56_Vel_0
Time_Shift_3
Note_On_60_Vel_55
Time_Shift_5
Note_On_56_Vel_48
Time_Shift_107
Sustain_On
Time_Shift_246
Note_On_51_Vel_0
Time_Shift_15
Note_On_44_Vel_0
Time_Shift_192
Note_On_56_Vel_0
Time_Shift_6
Note_On_56_Vel_53
Time_Shift_93
Note_On_60_Vel_0
Note_On_56_Vel_0
Time_Shift_1
Sustain_Off
Time_Shift_21
Note_On_39_Vel_50
Time_Shift_148
Sustain_On
Time_Shift_264
Note_On_51_Vel_46
Time_Shift_80
Note_On_55_Vel_54
Time_Shift_99
Note_On_60_Vel_46
Time_Shift_26
Note_On_39_Vel_0
Time_Shift_57
Note_On_58_Vel_69
Time_Shift_198
Sustain_Off
Time_Shift_2
Note_On_55_Vel_0
Note_On_60_Vel_0
Note_On_51_Vel_0
Time_Shift_27
Note_On_58_Vel_0
Time_Shift_142
Note_On_44_Vel_47
Time_Shift_2
Note_On_56_Vel_45
Time_Shift_3
Note_On_51_Vel_38
Time_Shift_137
Note_On_56_Vel_0
Time_Shift_11
Note_On_56_Vel_50
Time_Shift_20
Note_On_51_Vel_0
Time_Shift_8
Note_On_51_Vel_31
Time_Shift_82
Note_On_60_Vel_53
Time_Shift_2
Sustain_On
Time_Shift_530
Note_On_56_Vel_0
Time_Shift_4
Note_On_56_Vel_55
Time_Shift_99
Note_On_60_Vel_0
Time_Shift_6
Note_On_51_Vel_0
Time_Shift_6
Note_On_56_Vel_0
Note_On_44_Vel_0
Time_Shift_2
Sustain_Off
Time_Shift_46
Note_On_39_Vel_54
Time_Shift_2
Note_On_51_Vel_53
Time_Shift_142
Sustain_On
Time_Shift_415
Note_On_51_Vel_0
Time_Shift_10
Note_On_51_Vel_50
Time_Shift_92
Note_On_55_Vel_49
Time_Shift_88
Note_On_60_Vel_50
Time_Shift_86
Note_On_58_Vel_66
Time_Shift_37
Note_On_49_Vel_45
Time_Shift_9
Note_On_49_Vel_0
Time_Shift_194
Sustain_Off
Time_Shift_3
Note_On_60_Vel_0
Time_Shift_2
Note_On_51_Vel_0
Time_Shift_1
Note_On_55_Vel_0
Time_Shift_1
Note_On_58_Vel_0
Time_Shift_14
Note_On_39_Vel_0
Time_Shift_66
Note_On_56_Vel_38
Note_On_44_Vel_36
Time_Shift_2
Note_On_51_Vel_36
Time_Shift_48
Sustain_On
Time_Shift_138
Note_On_56_Vel_0
Time_Shift_6
Note_On_56_Vel_45
Time_Shift_108
Note_On_60_Vel_45
Time_Shift_247
Note_On_60_Vel_0
Time_Shift_4
Note_On_60_Vel_35
Time_Shift_195
Note_On_60_Vel_0
Time_Shift_5
Note_On_60_Vel_19
Time_Shift_72
Note_On_56_Vel_0
Time_Shift_12
Note_On_56_Vel_41
Time_Shift_157
Note_On_60_Vel_0
Time_Shift_10
Note_On_60_Vel_32
Time_Shift_3
Note_On_39_Vel_40
Time_Shift_47
Note_On_56_Vel_0
Time_Shift_5
Sustain_Off
Time_Shift_3
Note_On_60_Vel_0
Time_Shift_1
Note_On_44_Vel_0
Time_Shift_100
Sustain_On
Time_Shift_346
Note_On_51_Vel_0
Time_Shift_5
Note_On_51_Vel_46
Time_Shift_167
Note_On_55_Vel_55
Time_Shift_153
Note_On_60_Vel_33
Time_Shift_230
Note_On_58_Vel_47
Time_Shift_1200
Note_On_32_Vel_45
Time_Shift_42
Sustain_Off
Time_Shift_8
Note_On_39_Vel_0
Time_Shift_99
Sustain_On
Time_Shift_93
Note_On_60_Vel_0
Time_Shift_314
Note_On_51_Vel_0
Time_Shift_5
Note_On_51_Vel_50
Time_Shift_11
Note_On_58_Vel_0
Time_Shift_54
Note_On_55_Vel_0
Time_Shift_145
Note_On_51_Vel_0
Time_Shift_7
Note_On_51_Vel_34
Time_Shift_98
Note_On_60_Vel_49
Time_Shift_277
Note_On_56_Vel_51
Time_Shift_233
Note_On_60_Vel_0
Time_Shift_11
Note_On_60_Vel_50
Time_Shift_245
Note_On_63_Vel_53
Time_Shift_241
Note_On_72_Vel_64
Time_Shift_252
Note_On_68_Vel_62
Time_Shift_265
Note_On_72_Vel_0
Time_Shift_7
Note_On_72_Vel_62
Time_Shift_310
Note_On_75_Vel_68
Time_Shift_347
Note_On_80_Vel_66
Time_Shift_19
Note_On_75_Vel_0
Time_Shift_5
Note_On_75_Vel_49
Time_Shift_404
Note_On_84_Vel_64
Time_Shift_21
Note_On_75_Vel_0
Note_On_80_Vel_0
Time_Shift_4
Note_On_75_Vel_37
Time_Shift_3
Note_On_80_Vel_45
Time_Shift_946
Note_On_32_Vel_0
Note_On_51_Vel_0
Note_On_56_Vel_0
Note_On_60_Vel_0
Note_On_63_Vel_0
Note_On_68_Vel_0
Note_On_72_Vel_0
Time_Shift_38
Note_On_75_Vel_0
Note_On_80_Vel_0
Time_Shift_5
Note_On_92_Vel_64
Time_Shift_2
Note_On_75_Vel_40
Time_Shift_3
Note_On_80_Vel_45
Time_Shift_3371
Sustain_Off
Time_Shift_60
Sustain_On
Time_Shift_138
Note_On_84_Vel_0
Time_Shift_69
Note_On_92_Vel_0
Time_Shift_154
Note_On_75_Vel_0
Note_On_80_Vel_0
Time_Shift_37
Note_On_68_Vel_53
Time_Shift_558
Note_On_49_Vel_45
Time_Shift_124
Note_On_80_Vel_73
Time_Shift_86
Sustain_Off
Time_Shift_62
Sustain_On
Time_Shift_335
Note_On_56_Vel_26
Time_Shift_428
Note_On_64_Vel_44
Note_On_76_Vel_44
Time_Shift_434
Note_On_73_Vel_42
Time_Shift_4
Note_On_61_Vel_29
Time_Shift_474
Note_On_49_Vel_0
Time_Shift_4
Note_On_49_Vel_43
Time_Shift_4
Note_On_78_Vel_64
Time_Shift_52
Sustain_Off
Time_Shift_13
Note_On_68_Vel_0
Note_On_64_Vel_0
Note_On_61_Vel_0
Note_On_73_Vel_0
Note_On_80_Vel_0
Time_Shift_1
Note_On_56_Vel_0
Time_Shift_10
Note_On_76_Vel_0
Time_Shift_54
Sustain_On
Time_Shift_117
Note_On_80_Vel_33
Time_Shift_90
Note_On_78_Vel_0
Time_Shift_10
Note_On_78_Vel_59
Time_Shift_67
Note_On_80_Vel_0
Time_Shift_6
Note_On_80_Vel_61
Time_Shift_13
Note_On_57_Vel_41
Time_Shift_50
Note_On_78_Vel_0
Time_Shift_9
Note_On_78_Vel_63
Time_Shift_53
Note_On_80_Vel_0
Time_Shift_9
Note_On_80_Vel_71
Time_Shift_52
Note_On_78_Vel_0
Time_Shift_7
Note_On_78_Vel_74
Time_Shift_62
Note_On_80_Vel_0
Time_Shift_6
Note_On_80_Vel_68
Time_Shift_79
Note_On_80_Vel_0
Time_Shift_10
Note_On_80_Vel_84
Time_Shift_1
Note_On_76_Vel_58
Time_Shift_4
Note_On_76_Vel_0
Time_Shift_69
Note_On_78_Vel_0
Time_Shift_10
Note_On_78_Vel_79
Time_Shift_52
Note_On_80_Vel_0
Time_Shift_5
Note_On_80_Vel_73
Time_Shift_41
Note_On_78_Vel_0
Time_Shift_10
Note_On_78_Vel_75
Time_Shift_36
Note_On_80_Vel_0
Time_Shift_6
Note_On_80_Vel_77
Time_Shift_47
Note_On_78_Vel_0
Time_Shift_11
Note_On_78_Vel_83
Time_Shift_74
Note_On_80_Vel_0
Time_Shift_10
Note_On_80_Vel_67
Time_Shift_28
Note_On_78_Vel_0
Time_Shift_7
Note_On_78_Vel_78
Time_Shift_25
Note_On_61_Vel_53
Time_Shift_30
Note_On_80_Vel_0
Time_Shift_6
Note_On_80_Vel_77
Time_Shift_103
Note_On_76_Vel_63
Time_Shift_67
Note_On_78_Vel_0
Time_Shift_9
Note_On_78_Vel_75
Time_Shift_91
Note_On_76_Vel_0
Note_On_80_Vel_0
Time_Shift_5
Note_On_80_Vel_72
Note_On_76_Vel_54
Time_Shift_30
Note_On_77_Vel_47
Time_Shift_11
Note_On_77_Vel_0
Time_Shift_43
Note_On_81_Vel_79
Time_Shift_103
Note_On_49_Vel_0
Time_Shift_12
Note_On_49_Vel_43
Time_Shift_18
Note_On_76_Vel_0
Time_Shift_10
Sustain_Off
Time_Shift_6
Note_On_78_Vel_0
Note_On_80_Vel_0
Time_Shift_5
Note_On_80_Vel_71
Time_Shift_3
Note_On_57_Vel_0
Time_Shift_3
Note_On_78_Vel_56
Time_Shift_81
Note_On_61_Vel_0
Time_Shift_177
Sustain_On
Time_Shift_157
Note_On_56_Vel_36
Time_Shift_373
Note_On_49_Vel_0
Time_Shift_6
Note_On_49_Vel_23
Time_Shift_3
Note_On_64_Vel_34
Time_Shift_360
Note_On_73_Vel_36
Time_Shift_4
Note_On_61_Vel_27
Time_Shift_334
Note_On_49_Vel_0
Time_Shift_5
Note_On_49_Vel_43
Time_Shift_33
Note_On_73_Vel_0
Time_Shift_5
Note_On_73_Vel_66
Time_Shift_15
Sustain_Off
Time_Shift_3
Note_On_78_Vel_0
Time_Shift_5
Note_On_61_Vel_0
Note_On_64_Vel_0
Time_Shift_2
Note_On_80_Vel_0
Note_On_56_Vel_0
Time_Shift_39
Note_On_81_Vel_0
Time_Shift_62
Sustain_On
Time_Shift_92
Note_On_49_Vel_0
Time_Shift_169
Note_On_73_Vel_0
Time_Shift_3
Note_On_49_Vel_25
Time_Shift_3
Note_On_56_Vel_38
Time_Shift_3
Note_On_73_Vel_39
Time_Shift_329
Note_On_49_Vel_0
Time_Shift_4
Note_On_49_Vel_26
Time_Shift_2
Note_On_64_Vel_51
Time_Shift_143
Note_On_85_Vel_86
Time_Shift_31
Note_On_78_Vel_46
Time_Shift_4
Note_On_78_Vel_0
Time_Shift_5
Note_On_80_Vel_50
Time_Shift_310
Note_On_73_Vel_0
Time_Shift_5
Note_On_73_Vel_49
Time_Shift_5
Note_On_61_Vel_44
Time_Shift_320
Note_On_49_Vel_0
Time_Shift_6
Note_On_49_Vel_58
Time_Shift_125
Note_On_85_Vel_0
Note_On_97_Vel_97
Time_Shift_8
Note_On_85_Vel_65
Time_Shift_8
Note_On_73_Vel_0
Time_Shift_2
Note_On_80_Vel_0
Time_Shift_1
Note_On_61_Vel_0
Note_On_64_Vel_0
Note_On_56_Vel_0
Time_Shift_7
Sustain_Off
Time_Shift_89
Sustain_On
Time_Shift_180
Note_On_98_Vel_98
Time_Shift_103
Note_On_56_Vel_49
Time_Shift_150
Note_On_95_Vel_95
Time_Shift_223
Note_On_65_Vel_57
Time_Shift_48
Note_On_93_Vel_99
Time_Shift_297
Note_On_59_Vel_53
Time_Shift_52
Note_On_92_Vel_89
Time_Shift_5
Note_On_80_Vel_65
Time_Shift_355
Note_On_49_Vel_0
Time_Shift_5
Note_On_49_Vel_56
Time_Shift_5
Note_On_90_Vel_73
Time_Shift_170
Note_On_89_Vel_81
Time_Shift_27
Note_On_80_Vel_0
Time_Shift_5
Note_On_80_Vel_47
Time_Shift_107
Note_On_86_Vel_85
Time_Shift_3
Note_On_77_Vel_58
Time_Shift_8
Note_On_77_Vel_0
Time_Shift_92
Note_On_56_Vel_0
Time_Shift_6
Note_On_56_Vel_47
Time_Shift_56
Note_On_85_Vel_0
Time_Shift_10
Note_On_85_Vel_75
Time_Shift_108
Note_On_83_Vel_74
Time_Shift_100
Note_On_81_Vel_68
Time_Shift_81
Note_On_65_Vel_0
Time_Shift_8
Note_On_80_Vel_0
Time_Shift_1
Note_On_65_Vel_52
Time_Shift_6
Note_On_80_Vel_64
Time_Shift_74
Note_On_78_Vel_73
Time_Shift_76
Note_On_77_Vel_75
Time_Shift_4
Note_On_73_Vel_57
Time_Shift_96
Note_On_74_Vel_67
Time_Shift_4
Note_On_59_Vel_0
Time_Shift_11
Note_On_59_Vel_52
Time_Shift_127
Note_On_73_Vel_0
Time_Shift_6
Note_On_73_Vel_64
Time_Shift_98
Note_On_71_Vel_71
Time_Shift_201
Note_On_54_Vel_44
Time_Shift_16
Note_On_69_Vel_73
Time_Shift_33
Note_On_49_Vel_0
Time_Shift_4
Note_On_49_Vel_39
Time_Shift_3
Note_On_71_Vel_0
Time_Shift_4
Note_On_71_Vel_55
Time_Shift_24
Note_On_95_Vel_0
Note_On_98_Vel_0
Note_On_89_Vel_0
Note_On_86_Vel_0
Time_Shift_1
Note_On_93_Vel_0
Note_On_56_Vel_0
Note_On_97_Vel_0
Note_On_65_Vel_0
Note_On_85_Vel_0
Note_On_90_Vel_0
Time_Shift_1
Note_On_78_Vel_0
Note_On_83_Vel_0
Note_On_80_Vel_0
Note_On_73_Vel_0
Note_On_81_Vel_0
Note_On_59_Vel_0
Time_Shift_7
Sustain_Off
Time_Shift_9
Note_On_74_Vel_0
Note_On_77_Vel_0
Time_Shift_8
Note_On_92_Vel_0
Time_Shift_123
Sustain_On
Time_Shift_200
Note_On_49_Vel_0
Time_Shift_5
Note_On_49_Vel_38
Time_Shift_360
Note_On_57_Vel_39
Time_Shift_372
Note_On_49_Vel_0
Note_On_54_Vel_0
Time_Shift_7
Note_On_54_Vel_33
Time_Shift_2
Note_On_49_Vel_23
Time_Shift_344
Note_On_49_Vel_0
Note_On_54_Vel_0
Time_Shift_5
Note_On_49_Vel_29
Time_Shift_3
Note_On_54_Vel_31
Note_On_42_Vel_36
Time_Shift_119
Note_On_81_Vel_85
Time_Shift_60
Sustain_Off
Time_Shift_97
Sustain_On
Time_Shift_246
Note_On_49_Vel_0
Time_Shift_5
Note_On_49_Vel_44
Time_Shift_195
Note_On_42_Vel_0
Time_Shift_138
Note_On_57_Vel_0
Time_Shift_5
Note_On_57_Vel_39
Time_Shift_3
Note_On_69_Vel_0
Time_Shift_15
Note_On_71_Vel_0
Time_Shift_369
Note_On_49_Vel_0
Note_On_54_Vel_0
Time_Shift_8
Note_On_49_Vel_27
Time_Shift_1
Note_On_54_Vel_41
Time_Shift_314
Note_On_48_Vel_46
Time_Shift_97
Note_On_80_Vel_85
Time_Shift_46
Sustain_Off
Time_Shift_25
Note_On_49_Vel_0
Time_Shift_31
Note_On_54_Vel_0
Note_On_57_Vel_0
Time_Shift_8
Note_On_81_Vel_0
Time_Shift_61
Sustain_On
Time_Shift_181
Note_On_54_Vel_37
Time_Shift_49
Note_On_48_Vel_0
Time_Shift_8
Note_On_48_Vel_29
Time_Shift_342
Note_On_63_Vel_33
Time_Shift_375
Note_On_56_Vel_33
Time_Shift_266
Note_On_48_Vel_0
Time_Shift_10
Note_On_48_Vel_39
Time_Shift_155
Note_On_75_Vel_86
Time_Shift_73
Sustain_Off
Time_Shift_77
Sustain_On
Time_Shift_85
Note_On_54_Vel_0
Time_Shift_23
Note_On_63_Vel_0
Time_Shift_80
Note_On_54_Vel_35
Time_Shift_27
Note_On_75_Vel_0
Time_Shift_11
Note_On_75_Vel_52
Time_Shift_345
Note_On_63_Vel_37
Time_Shift_374
Note_On_56_Vel_0
Time_Shift_10
Note_On_56_Vel_35
Time_Shift_355
Note_On_49_Vel_49
Time_Shift_62
Note_On_76_Vel_64
Time_Shift_58
Sustain_Off
Time_Shift_12
Note_On_54_Vel_0
Time_Shift_4
Note_On_48_Vel_0
Time_Shift_1
Note_On_75_Vel_0
Note_On_80_Vel_0
Note_On_63_Vel_0
Time_Shift_12
Sustain_On
Time_Shift_134
Note_On_78_Vel_61
Time_Shift_81
Note_On_76_Vel_0
Time_Shift_6
Note_On_76_Vel_64
Time_Shift_44
Note_On_52_Vel_45
Time_Shift_19
Note_On_78_Vel_0
Time_Shift_12
Note_On_78_Vel_73
Time_Shift_73
Note_On_76_Vel_0
Time_Shift_5
Note_On_76_Vel_57
Time_Shift_49
Note_On_78_Vel_0
Time_Shift_9
Note_On_78_Vel_68
Time_Shift_37
Note_On_76_Vel_0
Time_Shift_8
Note_On_76_Vel_70
Time_Shift_61
Note_On_78_Vel_0
Time_Shift_4
Note_On_78_Vel_78
Time_Shift_27
Note_On_49_Vel_0
Time_Shift_7
Note_On_49_Vel_48
Time_Shift_23
Note_On_76_Vel_0
Time_Shift_5
Note_On_76_Vel_74
Time_Shift_57
Note_On_78_Vel_0
Time_Shift_9
Note_On_78_Vel_75
Time_Shift_44
Note_On_76_Vel_0
Time_Shift_8
Note_On_76_Vel_84
Time_Shift_54
Note_On_78_Vel_0
Time_Shift_6
Note_On_78_Vel_78
Time_Shift_25
Note_On_56_Vel_0
Time_Shift_43
Note_On_56_Vel_45
Time_Shift_95
Note_On_78_Vel_0
Time_Shift_4
Note_On_75_Vel_82
Time_Shift_6
Note_On_78_Vel_62
Time_Shift_113
Note_On_76_Vel_0
Time_Shift_11
Note_On_76_Vel_80
Time_Shift_94
Note_On_57_Vel_41
Time_Shift_133
Note_On_78_Vel_0
Time_Shift_7
Note_On_78_Vel_77
Time_Shift_36
Sustain_Off
Time_Shift_12
Note_On_75_Vel_0
Note_On_49_Vel_0
Time_Shift_1
Note_On_52_Vel_0
Time_Shift_1
Note_On_56_Vel_0
Time_Shift_35
Note_On_76_Vel_0
Time_Shift_69
Sustain_On
Time_Shift_211
Note_On_51_Vel_42
Time_Shift_327
Note_On_73_Vel_74
Time_Shift_38
Note_On_51_Vel_0
Time_Shift_4
Note_On_51_Vel_29
Time_Shift_342
Note_On_51_Vel_0
Time_Shift_1
Note_On_54_Vel_34
Time_Shift_4
Note_On_51_Vel_22
Time_Shift_417
Note_On_51_Vel_0
Time_Shift_4
Note_On_51_Vel_32
Time_Shift_1
Note_On_56_Vel_44
Time_Shift_7
Note_On_75_Vel_75
Time_Shift_57
Note_On_57_Vel_0
Time_Shift_26
Note_On_54_Vel_0
Sustain_Off
Time_Shift_2
Note_On_73_Vel_0
Time_Shift_3
Note_On_78_Vel_0
Time_Shift_46
Sustain_On
Time_Shift_180
Note_On_76_Vel_69
Time_Shift_120
Note_On_51_Vel_0
Time_Shift_9
Note_On_51_Vel_36
Time_Shift_113
Note_On_75_Vel_0
Time_Shift_7
Note_On_75_Vel_78
Time_Shift_24
Note_On_56_Vel_0
Time_Shift_180
Note_On_74_Vel_76
Time_Shift_212
Note_On_75_Vel_0
Time_Shift_5
Note_On_75_Vel_76
Time_Shift_98
Note_On_54_Vel_35
Time_Shift_97
Note_On_76_Vel_0
Time_Shift_10
Note_On_76_Vel_70
Time_Shift_201
Note_On_78_Vel_80
Time_Shift_33
Note_On_44_Vel_46
Time_Shift_2
Note_On_56_Vel_46
Time_Shift_38
Note_On_54_Vel_0
Time_Shift_2
Note_On_74_Vel_0
Time_Shift_2
Note_On_75_Vel_0
Note_On_51_Vel_0
Time_Shift_22
Sustain_Off
Time_Shift_4
Note_On_56_Vel_0
Note_On_76_Vel_0
Sustain_On
Time_Shift_70
Note_On_80_Vel_77
Time_Shift_127
Note_On_81_Vel_80
Time_Shift_3
Note_On_78_Vel_0
Time_Shift_4
Note_On_78_Vel_65
Time_Shift_108
Note_On_51_Vel_47
Time_Shift_11
Note_On_51_Vel_0
Time_Shift_25
Note_On_82_Vel_87
Time_Shift_118
Note_On_83_Vel_91
Time_Shift_26
Note_On_81_Vel_0
Time_Shift_4
Note_On_81_Vel_65
Time_Shift_100
Note_On_84_Vel_94
Time_Shift_84
Note_On_60_Vel_55
Time_Shift_52
Note_On_85_Vel_89
Time_Shift_115
Note_On_86_Vel_101
Time_Shift_125
Note_On_56_Vel_55
Time_Shift_9
Note_On_87_Vel_91
Time_Shift_116
Note_On_88_Vel_95
Time_Shift_143
Note_On_90_Vel_93
Time_Shift_8
Note_On_81_Vel_0
Time_Shift_113
Note_On_43_Vel_56
Time_Shift_3
Note_On_62_Vel_54
Note_On_55_Vel_54
Time_Shift_50
Note_On_88_Vel_0
Time_Shift_11
Note_On_88_Vel_93
Time_Shift_17
Note_On_87_Vel_0
Note_On_80_Vel_0
Time_Shift_1
Note_On_84_Vel_0
Time_Shift_1
Note_On_62_Vel_0
Time_Shift_1
Note_On_78_Vel_0
Time_Shift_2
Note_On_83_Vel_0
Note_On_85_Vel_0
Time_Shift_1
Note_On_86_Vel_0
Time_Shift_1
Note_On_82_Vel_0
Time_Shift_3
Note_On_60_Vel_0
Time_Shift_15
Note_On_56_Vel_0
Time_Shift_4
Sustain_Off
Time_Shift_12
Note_On_90_Vel_0
Time_Shift_7
Note_On_44_Vel_0
Time_Shift_116
Sustain_On
Time_Shift_184
Note_On_52_Vel_58
Time_Shift_330
Note_On_73_Vel_53
Time_Shift_3
Note_On_61_Vel_47
Time_Shift_325
Note_On_58_Vel_56
Time_Shift_348
Note_On_43_Vel_0
Time_Shift_6
Note_On_43_Vel_57
Time_Shift_5
Note_On_87_Vel_91
Time_Shift_57
Note_On_58_Vel_0
Time_Shift_1
Note_On_55_Vel_0
Time_Shift_2
Note_On_73_Vel_0
Note_On_61_Vel_0
Time_Shift_4
Sustain_Off
Time_Shift_9
Note_On_88_Vel_0
Time_Shift_139
Note_On_87_Vel_0
Time_Shift_5
Note_On_87_Vel_65
Time_Shift_2
Sustain_On
Time_Shift_139
Note_On_52_Vel_0
Time_Shift_11
Note_On_52_Vel_49
Time_Shift_281
Note_On_61_Vel_49
Time_Shift_37
Note_On_85_Vel_84
Note_On_73_Vel_50
Time_Shift_8
Note_On_73_Vel_0
Time_Shift_294
Note_On_58_Vel_52
Time_Shift_316
Note_On_44_Vel_54
Time_Shift_4
Note_On_84_Vel_85
Time_Shift_20
Note_On_78_Vel_59
Time_Shift_12
Note_On_78_Vel_0
Time_Shift_35
Note_On_43_Vel_0
Time_Shift_1
Note_On_85_Vel_0
Note_On_58_Vel_0
Note_On_87_Vel_0
Time_Shift_1
Note_On_52_Vel_0
Note_On_61_Vel_0
Time_Shift_7
Sustain_Off
Time_Shift_117
Sustain_On
Time_Shift_195
Note_On_51_Vel_39
Time_Shift_268
Note_On_81_Vel_84
Time_Shift_17
Note_On_60_Vel_51
Time_Shift_313
Note_On_54_Vel_37
Time_Shift_274
Note_On_48_Vel_51
Time_Shift_40
Note_On_80_Vel_83
Time_Shift_44
Note_On_84_Vel_0
Note_On_60_Vel_0
Time_Shift_3
Note_On_51_Vel_0
Note_On_44_Vel_0
Note_On_81_Vel_0
Time_Shift_20
Sustain_Off
Time_Shift_9
Note_On_54_Vel_0
Time_Shift_115
Sustain_On
Time_Shift_133
Note_On_54_Vel_49
Time_Shift_286
Note_On_63_Vel_45
Time_Shift_3
Note_On_75_Vel_88
Time_Shift_3
Note_On_87_Vel_78
Time_Shift_5
Note_On_87_Vel_0
Time_Shift_336
Note_On_56_Vel_46
Time_Shift_269
Note_On_49_Vel_52
Time_Shift_55
Note_On_76_Vel_77
Time_Shift_90
Sustain_Off
Time_Shift_2
Note_On_48_Vel_0
Time_Shift_1
Note_On_54_Vel_0
Note_On_63_Vel_0
Note_On_75_Vel_0
Time_Shift_1
Note_On_56_Vel_0
Time_Shift_1
Note_On_80_Vel_0
Time_Shift_128
Sustain_On
Time_Shift_110
Note_On_52_Vel_46
Time_Shift_239
Note_On_78_Vel_87
Time_Shift_9
Note_On_61_Vel_44
Time_Shift_322
Note_On_56_Vel_45
Time_Shift_45
Note_On_80_Vel_84
Time_Shift_5
Note_On_78_Vel_0
Time_Shift_10
Note_On_78_Vel_67
Time_Shift_294
Note_On_57_Vel_43
Time_Shift_1
Note_On_45_Vel_43
Time_Shift_86
Note_On_78_Vel_0
Time_Shift_8
Note_On_78_Vel_77
Time_Shift_88
Note_On_49_Vel_0
Time_Shift_4
Sustain_Off
Time_Shift_23
Note_On_56_Vel_0
Time_Shift_8
Note_On_76_Vel_0
Time_Shift_31
Note_On_61_Vel_0
Time_Shift_23
Sustain_On
Time_Shift_177
Note_On_51_Vel_38
Time_Shift_337
Note_On_61_Vel_33
Time_Shift_21
Note_On_73_Vel_71
Time_Shift_870
Note_On_51_Vel_0
Time_Shift_4
Note_On_51_Vel_25
Time_Shift_1
Note_On_56_Vel_28
Time_Shift_57
Note_On_73_Vel_0
Time_Shift_6
Note_On_73_Vel_52
Time_Shift_66
Note_On_57_Vel_0
Time_Shift_1
Note_On_61_Vel_0
Note_On_51_Vel_0
Time_Shift_3
Note_On_45_Vel_0
Time_Shift_4
Sustain_Off
Time_Shift_12
Note_On_80_Vel_0
Time_Shift_7
Note_On_52_Vel_0
Note_On_78_Vel_0
Time_Shift_70
Sustain_On
Time_Shift_87
Note_On_75_Vel_57
Time_Shift_212
Note_On_75_Vel_0
Time_Shift_5
Note_On_51_Vel_32
Time_Shift_3
Note_On_75_Vel_60
Time_Shift_153
Note_On_75_Vel_0
Time_Shift_10
Note_On_75_Vel_72
Time_Shift_80
Note_On_76_Vel_51
Time_Shift_49
Note_On_75_Vel_0
Time_Shift_6
Note_On_75_Vel_70
Time_Shift_40
Note_On_76_Vel_0
Time_Shift_4
Note_On_76_Vel_68
Time_Shift_65
Note_On_75_Vel_0
Time_Shift_10
Note_On_75_Vel_73
Time_Shift_51
Note_On_76_Vel_0
Time_Shift_11
Note_On_76_Vel_64
Time_Shift_66
Note_On_75_Vel_0
Time_Shift_5
Note_On_75_Vel_67
Time_Shift_33
Note_On_76_Vel_0
Time_Shift_11
Note_On_76_Vel_54
Time_Shift_51
Note_On_75_Vel_0
Time_Shift_4
Note_On_75_Vel_78
Time_Shift_42
Note_On_76_Vel_0
Time_Shift_5
Note_On_76_Vel_69
Time_Shift_64
Note_On_75_Vel_0
Time_Shift_8
Note_On_75_Vel_78
Time_Shift_61
Note_On_76_Vel_0
Time_Shift_6
Note_On_76_Vel_61
Time_Shift_40
Note_On_75_Vel_0
Time_Shift_11
Note_On_75_Vel_80
Time_Shift_43
Note_On_76_Vel_0
Time_Shift_4
Note_On_76_Vel_66
Time_Shift_50
Note_On_75_Vel_0
Time_Shift_11
Note_On_75_Vel_88
Time_Shift_50
Note_On_76_Vel_0
Time_Shift_8
Note_On_76_Vel_72
Time_Shift_54
Note_On_75_Vel_0
Time_Shift_9
Note_On_75_Vel_82
Time_Shift_6
Note_On_51_Vel_0
Time_Shift_10
Note_On_51_Vel_40
Time_Shift_51
Note_On_76_Vel_0
Time_Shift_4
Note_On_76_Vel_74
Time_Shift_50
Note_On_75_Vel_0
Time_Shift_8
Note_On_75_Vel_87
Time_Shift_54
Note_On_76_Vel_0
Time_Shift_4
Note_On_76_Vel_84
Time_Shift_65
Note_On_75_Vel_0
Time_Shift_5
Note_On_75_Vel_82
Time_Shift_56
Note_On_76_Vel_0
Time_Shift_5
Note_On_76_Vel_73
Time_Shift_49
Note_On_75_Vel_0
Time_Shift_11
Note_On_75_Vel_79
Time_Shift_20
Note_On_51_Vel_0
Time_Shift_10
Note_On_51_Vel_54
Time_Shift_28
Note_On_76_Vel_0
Time_Shift_8
Note_On_75_Vel_0
Time_Shift_3
Note_On_76_Vel_74
Time_Shift_4
Note_On_75_Vel_71
Time_Shift_54
Note_On_75_Vel_0
Time_Shift_10
Note_On_75_Vel_78
Time_Shift_44
Note_On_76_Vel_0
Time_Shift_4
Note_On_76_Vel_70
Time_Shift_57
Note_On_75_Vel_0
Time_Shift_7
Note_On_75_Vel_78
Time_Shift_47
Note_On_76_Vel_0
Time_Shift_8
Note_On_75_Vel_0
Time_Shift_2
Note_On_76_Vel_70
Time_Shift_2
Note_On_75_Vel_76
Time_Shift_65
Note_On_75_Vel_0
Time_Shift_9
Note_On_75_Vel_70
Time_Shift_60
Note_On_76_Vel_0
Time_Shift_4
Note_On_60_Vel_50
Time_Shift_1
Note_On_76_Vel_60
Time_Shift_41
Note_On_75_Vel_0
Time_Shift_5
Note_On_75_Vel_69
Time_Shift_49
Note_On_76_Vel_0
Time_Shift_8
Note_On_76_Vel_60
Time_Shift_69
Note_On_75_Vel_0
Time_Shift_9
Note_On_75_Vel_63
Time_Shift_44
Note_On_76_Vel_0
Time_Shift_5
Note_On_76_Vel_58
Time_Shift_57
Note_On_75_Vel_0
Time_Shift_11
Note_On_75_Vel_63
Time_Shift_43
Note_On_76_Vel_0
Time_Shift_11
Note_On_76_Vel_59
Time_Shift_50
Note_On_75_Vel_0
Time_Shift_10
Note_On_75_Vel_57
Time_Shift_52
Note_On_76_Vel_0
Time_Shift_9
Note_On_76_Vel_65
Time_Shift_60
Note_On_75_Vel_0
Time_Shift_6
Note_On_75_Vel_54
Time_Shift_9
Note_On_76_Vel_0
Time_Shift_6
Note_On_76_Vel_47
Time_Shift_109
Note_On_76_Vel_0
Time_Shift_5
Note_On_76_Vel_46
Time_Shift_26
Note_On_73_Vel_0
Note_On_75_Vel_0
Time_Shift_5
Note_On_73_Vel_59
Time_Shift_3
Note_On_76_Vel_0
Time_Shift_3
Note_On_75_Vel_54
Time_Shift_6
Note_On_76_Vel_49
Time_Shift_83
Note_On_76_Vel_0
Time_Shift_6
Note_On_76_Vel_42
Time_Shift_40
Note_On_75_Vel_0
Time_Shift_8
Note_On_76_Vel_0
Time_Shift_3
Note_On_75_Vel_47
Note_On_76_Vel_40
Time_Shift_50
Note_On_76_Vel_0
Time_Shift_7
Note_On_76_Vel_32
Time_Shift_85
Note_On_73_Vel_0
Time_Shift_10
Note_On_73_Vel_56
Time_Shift_14
Note_On_76_Vel_0
Time_Shift_4
Note_On_49_Vel_43
Time_Shift_1
Note_On_76_Vel_50
Time_Shift_33
Note_On_75_Vel_0
Time_Shift_6
Note_On_75_Vel_52
Time_Shift_2
Note_On_76_Vel_0
Time_Shift_4
Note_On_76_Vel_51
Time_Shift_10
Note_On_60_Vel_0
Time_Shift_2
Note_On_51_Vel_0
Time_Shift_10
Sustain_Off
Time_Shift_104
Sustain_On
Time_Shift_16
Note_On_56_Vel_0
Sustain_Off
Time_Shift_84
Sustain_On
Time_Shift_169
Note_On_49_Vel_0
Time_Shift_6
Note_On_49_Vel_21
Time_Shift_2
Note_On_56_Vel_22
Time_Shift_386
Note_On_64_Vel_32
Time_Shift_374
Note_On_73_Vel_0
Time_Shift_11
Note_On_73_Vel_36
Time_Shift_8
Note_On_61_Vel_30
Time_Shift_442
Note_On_49_Vel_0
Time_Shift_10
Note_On_49_Vel_39
Time_Shift_13
Note_On_75_Vel_0
Time_Shift_11
Note_On_75_Vel_56
Time_Shift_165
Note_On_76_Vel_0
Time_Shift_10
Note_On_76_Vel_61
Time_Shift_148
Note_On_78_Vel_67
Time_Shift_34
Note_On_76_Vel_0
Time_Shift_4
Note_On_76_Vel_48
Time_Shift_98
Note_On_80_Vel_72
Time_Shift_102
Note_On_81_Vel_66
Time_Shift_97
Note_On_83_Vel_73
Time_Shift_117
Note_On_85_Vel_68
Time_Shift_87
Note_On_87_Vel_69
Time_Shift_79
Note_On_85_Vel_0
Time_Shift_11
Note_On_85_Vel_62
Time_Shift_58
Note_On_83_Vel_0
Time_Shift_8
Note_On_83_Vel_72
Time_Shift_61
Note_On_81_Vel_0
Time_Shift_5
Note_On_81_Vel_72
Time_Shift_88
Note_On_80_Vel_0
Time_Shift_6
Note_On_80_Vel_71
Time_Shift_55
Note_On_78_Vel_0
Time_Shift_10
Note_On_78_Vel_74
Time_Shift_44
Note_On_61_Vel_0
Time_Shift_10
Note_On_61_Vel_36
Time_Shift_120
Note_On_75_Vel_0
Time_Shift_8
Note_On_75_Vel_71
Time_Shift_84
Note_On_73_Vel_0
Time_Shift_4
Note_On_73_Vel_61
Time_Shift_108
Note_On_71_Vel_62
Time_Shift_121
Note_On_69_Vel_60
Time_Shift_59
Note_On_75_Vel_0
Time_Shift_7
Note_On_75_Vel_48
Time_Shift_55
Note_On_49_Vel_0
Time_Shift_6
Note_On_49_Vel_46
Time_Shift_45
Note_On_68_Vel_59
Time_Shift_18
Note_On_75_Vel_0
Time_Shift_8
Note_On_71_Vel_0
Time_Shift_3
Note_On_75_Vel_45
Time_Shift_2
Note_On_71_Vel_41
Time_Shift_19
Sustain_Off
Time_Shift_3
Note_On_69_Vel_0
Time_Shift_1
Note_On_56_Vel_0
Note_On_80_Vel_0
Note_On_64_Vel_0
Note_On_78_Vel_0
Note_On_76_Vel_0
Time_Shift_1
Note_On_83_Vel_0
Time_Shift_1
Note_On_81_Vel_0
Time_Shift_1
Note_On_73_Vel_0
Time_Shift_1
Note_On_87_Vel_0
Note_On_85_Vel_0
Time_Shift_21
Note_On_61_Vel_0
Time_Shift_58
Note_On_69_Vel_37
Time_Shift_42
Sustain_On
Time_Shift_100
Note_On_75_Vel_0
Time_Shift_131
Note_On_69_Vel_0
Note_On_71_Vel_0
Time_Shift_13
Note_On_56_Vel_39
Time_Shift_429
Note_On_64_Vel_38
Time_Shift_407
Note_On_73_Vel_42
Note_On_61_Vel_35
Time_Shift_425
Note_On_49_Vel_0
Time_Shift_5
Note_On_49_Vel_40
Time_Shift_46
Note_On_69_Vel_41
Time_Shift_81
Note_On_71_Vel_62
Time_Shift_91
Note_On_73_Vel_0
Time_Shift_5
Note_On_73_Vel_57
Time_Shift_57
Note_On_75_Vel_61
Time_Shift_51
Note_On_76_Vel_70
Time_Shift_77
Note_On_78_Vel_79
Time_Shift_61
Note_On_80_Vel_69
Time_Shift_56
Note_On_76_Vel_0
Time_Shift_9
Note_On_81_Vel_70
Note_On_76_Vel_59
Time_Shift_43
Note_On_83_Vel_83
Time_Shift_68
Note_On_85_Vel_72
Time_Shift_26
Note_On_87_Vel_77
Time_Shift_50
Note_On_88_Vel_89
Time_Shift_69
Note_On_90_Vel_75
Time_Shift_4
Note_On_90_Vel_0
Time_Shift_89
Note_On_93_Vel_93
Time_Shift_40
Note_On_95_Vel_86
Time_Shift_101
Note_On_99_Vel_86
Time_Shift_36
Note_On_97_Vel_66
Time_Shift_72
Note_On_75_Vel_0
Note_On_93_Vel_0
Time_Shift_4
Note_On_75_Vel_60
Time_Shift_7
Note_On_93_Vel_79
Time_Shift_67
Note_On_92_Vel_83
Time_Shift_41
Note_On_90_Vel_68
Time_Shift_58
Note_On_88_Vel_0
Time_Shift_4
Note_On_88_Vel_81
Time_Shift_65
Note_On_87_Vel_0
Time_Shift_6
Note_On_87_Vel_71
Time_Shift_32
Note_On_85_Vel_0
Time_Shift_11
Note_On_85_Vel_82
Time_Shift_35
Note_On_83_Vel_0
Time_Shift_10
Note_On_83_Vel_82
Time_Shift_36
Note_On_81_Vel_0
Time_Shift_7
Note_On_81_Vel_79
Time_Shift_62
Note_On_80_Vel_0
Time_Shift_8
Note_On_80_Vel_76
Time_Shift_85
Note_On_76_Vel_0
Time_Shift_4
Note_On_76_Vel_72
Time_Shift_57
Note_On_75_Vel_0
Time_Shift_6
Note_On_75_Vel_81
Time_Shift_56
Note_On_73_Vel_0
Time_Shift_9
Note_On_73_Vel_71
Time_Shift_60
Note_On_71_Vel_0
Time_Shift_8
Note_On_71_Vel_67
Time_Shift_61
Note_On_69_Vel_0
Time_Shift_8
Note_On_69_Vel_67
Time_Shift_138
Note_On_68_Vel_0
Time_Shift_7
Note_On_68_Vel_57
Time_Shift_8
Note_On_49_Vel_0
Time_Shift_7
Note_On_49_Vel_55
Time_Shift_31
Note_On_75_Vel_0
Time_Shift_5
Note_On_75_Vel_53
Time_Shift_16
Note_On_87_Vel_0
Time_Shift_1
Note_On_69_Vel_0
Note_On_88_Vel_0
Note_On_61_Vel_0
Time_Shift_1
Note_On_56_Vel_0
Time_Shift_1
Note_On_95_Vel_0
Note_On_99_Vel_0
Note_On_97_Vel_0
Note_On_90_Vel_0
Note_On_64_Vel_0
Time_Shift_1
Note_On_78_Vel_0
Note_On_80_Vel_0
Note_On_92_Vel_0
Note_On_71_Vel_0
Time_Shift_1
Note_On_83_Vel_0
Time_Shift_1
Sustain_Off
Time_Shift_12
Note_On_73_Vel_0
Note_On_81_Vel_0
Note_On_85_Vel_0
Note_On_93_Vel_0
Time_Shift_46
Note_On_75_Vel_0
Time_Shift_9
Note_On_75_Vel_52
Time_Shift_91
Sustain_On
Time_Shift_685
Note_On_64_Vel_37
Time_Shift_400
Note_On_73_Vel_42
Note_On_61_Vel_34
Time_Shift_151
Note_On_49_Vel_0
Time_Shift_10
Note_On_49_Vel_29
Time_Shift_297
Note_On_49_Vel_0
Time_Shift_11
Note_On_49_Vel_43
Time_Shift_82
Note_On_69_Vel_52
Time_Shift_21
Sustain_Off
Time_Shift_13
Note_On_64_Vel_0
Time_Shift_2
Note_On_73_Vel_0
Note_On_61_Vel_0
Time_Shift_17
Note_On_75_Vel_0
Note_On_76_Vel_0
Time_Shift_8
Note_On_68_Vel_0
Time_Shift_61
Sustain_On
Time_Shift_80
Note_On_71_Vel_57
Time_Shift_149
Note_On_73_Vel_63
Time_Shift_165
Note_On_75_Vel_74
Time_Shift_251
Note_On_78_Vel_76
Time_Shift_152
Note_On_63_Vel_32
Note_On_51_Vel_28
Time_Shift_5
Note_On_80_Vel_67
Time_Shift_128
Note_On_78_Vel_0
Time_Shift_4
Note_On_78_Vel_68
Time_Shift_109
Note_On_76_Vel_65
Time_Shift_171
Note_On_75_Vel_0
Time_Shift_5
Note_On_75_Vel_64
Time_Shift_32
Note_On_61_Vel_34
Time_Shift_109
Note_On_73_Vel_0
Time_Shift_11
Note_On_73_Vel_60
Time_Shift_135
Note_On_71_Vel_0
Time_Shift_10
Note_On_71_Vel_54
Time_Shift_159
Note_On_49_Vel_0
Note_On_69_Vel_0
Time_Shift_4
Note_On_49_Vel_31
Time_Shift_6
Note_On_69_Vel_48
Time_Shift_189
Note_On_49_Vel_0
Time_Shift_6
Note_On_49_Vel_40
Time_Shift_16
Note_On_68_Vel_48
Time_Shift_17
Note_On_75_Vel_0
Time_Shift_10
Note_On_75_Vel_39
Time_Shift_22
Note_On_61_Vel_0
Time_Shift_1
Note_On_63_Vel_0
Note_On_69_Vel_0
Note_On_76_Vel_0
Note_On_80_Vel_0
Note_On_73_Vel_0
Note_On_78_Vel_0
Time_Shift_1
Note_On_71_Vel_0
Time_Shift_1
Sustain_Off
Time_Shift_11
Note_On_51_Vel_0
Time_Shift_107
Note_On_75_Vel_0
Time_Shift_31
Sustain_On
Time_Shift_295
Note_On_56_Vel_30
Time_Shift_412
Note_On_68_Vel_0
Time_Shift_2
Note_On_64_Vel_34
Time_Shift_2
Note_On_68_Vel_27
Time_Shift_436
Note_On_73_Vel_33
Time_Shift_2
Note_On_61_Vel_30
Time_Shift_518
Note_On_49_Vel_0
Time_Shift_7
Note_On_49_Vel_35
Time_Shift_62
Note_On_73_Vel_0
Time_Shift_7
Note_On_73_Vel_29
Time_Shift_2
Note_On_69_Vel_34
Time_Shift_51
Note_On_56_Vel_0
Time_Shift_3
Note_On_68_Vel_0
Time_Shift_1
Note_On_61_Vel_0
Note_On_64_Vel_0
Time_Shift_8
Sustain_Off
Time_Shift_66
Sustain_On
Time_Shift_87
Note_On_71_Vel_53
Time_Shift_143
Note_On_73_Vel_0
Time_Shift_5
Note_On_73_Vel_57
Time_Shift_159
Note_On_75_Vel_60
Time_Shift_111
Note_On_76_Vel_57
Time_Shift_162
Note_On_78_Vel_61
Time_Shift_32
Note_On_76_Vel_0
Time_Shift_6
Note_On_76_Vel_43
Time_Shift_92
Note_On_80_Vel_44
Time_Shift_125
Note_On_78_Vel_0
Time_Shift_7
Note_On_78_Vel_65
Time_Shift_108
Note_On_76_Vel_0
Time_Shift_11
Note_On_76_Vel_60
Time_Shift_150
Note_On_75_Vel_0
Time_Shift_12
Note_On_75_Vel_55
Time_Shift_119
Note_On_73_Vel_0
Time_Shift_5
Note_On_73_Vel_59
Time_Shift_164
Note_On_71_Vel_0
Time_Shift_5
Note_On_61_Vel_31
Time_Shift_5
Note_On_71_Vel_52
Time_Shift_174
Note_On_69_Vel_0
Time_Shift_7
Note_On_69_Vel_54
Time_Shift_285
Note_On_75_Vel_0
Time_Shift_4
Note_On_75_Vel_33
Time_Shift_53
Note_On_68_Vel_59
Time_Shift_12
Note_On_49_Vel_0
Time_Shift_11
Note_On_49_Vel_42
Time_Shift_68
Note_On_69_Vel_0
Note_On_75_Vel_0
Sustain_Off
Time_Shift_1
Note_On_76_Vel_0
Note_On_71_Vel_0
Time_Shift_1
Note_On_80_Vel_0
Note_On_78_Vel_0
Time_Shift_119
Sustain_On
Time_Shift_329
Note_On_56_Vel_40
Time_Shift_408
Note_On_68_Vel_0
Time_Shift_1
Note_On_65_Vel_43
Time_Shift_10
Note_On_68_Vel_34
Time_Shift_427
Note_On_61_Vel_0
Time_Shift_4
Note_On_61_Vel_19
Time_Shift_395
Note_On_49_Vel_0
Time_Shift_9
Note_On_49_Vel_43
Time_Shift_14
Note_On_73_Vel_0
Time_Shift_360
Note_On_54_Vel_32
Time_Shift_387
Note_On_63_Vel_38
Time_Shift_413
Note_On_61_Vel_0
Time_Shift_5
Note_On_61_Vel_26
Time_Shift_456
Note_On_49_Vel_0
Time_Shift_9
Note_On_49_Vel_45
Time_Shift_131
Sustain_Off
Time_Shift_9
Note_On_54_Vel_0
Note_On_65_Vel_0
Time_Shift_1
Note_On_68_Vel_0
Time_Shift_42
Sustain_On
Time_Shift_207
Note_On_56_Vel_0
Time_Shift_4
Note_On_56_Vel_46
Time_Shift_401
Note_On_65_Vel_41
Time_Shift_409
Note_On_61_Vel_0
Time_Shift_9
Note_On_61_Vel_25
Time_Shift_390
Note_On_49_Vel_0
Time_Shift_11
Note_On_49_Vel_47
Time_Shift_402
Note_On_54_Vel_32
Time_Shift_463
Note_On_63_Vel_0
Time_Shift_5
Note_On_63_Vel_37
Time_Shift_3
Note_On_75_Vel_38
Time_Shift_7
Note_On_75_Vel_0
Time_Shift_607
Note_On_61_Vel_0
Time_Shift_2
Note_On_73_Vel_28
Time_Shift_4
Note_On_61_Vel_27
Time_Shift_2
Note_On_73_Vel_0
Time_Shift_767
Sustain_Off
Time_Shift_1
Note_On_54_Vel_0
Time_Shift_3
Note_On_65_Vel_0
Time_Shift_24
Note_On_68_Vel_56
Time_Shift_3
Sustain_On
Time_Shift_16
Note_On_49_Vel_0
Time_Shift_6
Note_On_49_Vel_41
Time_Shift_501
Note_On_56_Vel_0
Note_On_68_Vel_0
Time_Shift_3
Note_On_56_Vel_50
Time_Shift_7
Note_On_68_Vel_41
Time_Shift_434
Note_On_65_Vel_37
Time_Shift_16
Note_On_68_Vel_0
Time_Shift_5
Note_On_68_Vel_28
Time_Shift_375
Note_On_73_Vel_59
Time_Shift_20
Note_On_56_Vel_0
Note_On_61_Vel_0
Time_Shift_8
Note_On_56_Vel_30
Time_Shift_2
Note_On_61_Vel_33
Time_Shift_402
Note_On_77_Vel_66
Time_Shift_25
Note_On_49_Vel_0
Note_On_56_Vel_0
Time_Shift_11
Note_On_56_Vel_39
Time_Shift_1
Note_On_49_Vel_32
Time_Shift_430
Note_On_80_Vel_75
Time_Shift_19
Note_On_53_Vel_31
Time_Shift_523
Note_On_49_Vel_0
Time_Shift_8
Note_On_85_Vel_62
Time_Shift_3
Note_On_49_Vel_49
Time_Shift_12
Note_On_73_Vel_0
Note_On_77_Vel_0
Time_Shift_8
Note_On_77_Vel_39
Time_Shift_3
Note_On_73_Vel_35
Time_Shift_350
Note_On_63_Vel_0
Time_Shift_337
Note_On_56_Vel_0
Time_Shift_4
Note_On_44_Vel_32
Time_Shift_2
Note_On_56_Vel_34
Time_Shift_6
Note_On_61_Vel_0
Time_Shift_4
Note_On_80_Vel_0
Time_Shift_5
Note_On_89_Vel_53
Time_Shift_6
Note_On_80_Vel_40
Time_Shift_4
Note_On_49_Vel_0
Time_Shift_11
Note_On_49_Vel_20
Time_Shift_773
Note_On_65_Vel_0
Note_On_68_Vel_0
Time_Shift_468
Sustain_Off
Time_Shift_36
Note_On_97_Vel_70
Time_Shift_41
Note_On_44_Vel_0
Note_On_49_Vel_0
Time_Shift_5
Note_On_44_Vel_21
Time_Shift_2
Sustain_On
Time_Shift_2
Note_On_49_Vel_26
Time_Shift_1
Note_On_37_Vel_23
Time_Shift_1994
Note_On_53_Vel_0
Time_Shift_530
Note_On_85_Vel_0
Time_Shift_23
Note_On_73_Vel_0
Note_On_77_Vel_0
Time_Shift_699
Note_On_56_Vel_0
Time_Shift_15
Note_On_80_Vel_0
Note_On_89_Vel_0
Time_Shift_24
Note_On_37_Vel_0
Note_On_44_Vel_0
Note_On_49_Vel_0
Note_On_97_Vel_0
Time_Shift_3431
Sustain_Off
Time_Shift_117
Sustain_On
Time_Shift_4
Note_On_56_Vel_7
Time_Shift_1
Note_On_53_Vel_6
Time_Shift_705
Sustain_Off
Time_Shift_6
Note_On_53_Vel_0
Time_Shift_3899
Note_On_56_Vel_0
