Time_Shift_15
Sustain_On
Time_Shift_130
Sustain_Off
Time_Shift_282
Note_On_62_Vel_66
Time_Shift_35
Note_On_62_Vel_0
Time_Shift_196
Note_On_43_Vel_83
Time_Shift_4
Note_On_62_Vel_69
Time_Shift_34
Note_On_59_Vel_42
Time_Shift_2
Sustain_On
Time_Shift_189
Note_On_64_Vel_73
Time_Shift_26
Note_On_66_Vel_75
Time_Shift_8
Note_On_59_Vel_0
Note_On_62_Vel_0
Time_Shift_8
Note_On_38_Vel_68
Note_On_59_Vel_79
Time_Shift_2
Note_On_50_Vel_70
Time_Shift_1
Note_On_62_Vel_68
Sustain_Off
Time_Shift_12
Note_On_43_Vel_0
Time_Shift_6
Note_On_64_Vel_0
Time_Shift_3
Note_On_66_Vel_0
Time_Shift_5
Note_On_50_Vel_0
Time_Shift_4
Note_On_38_Vel_0
Time_Shift_21
Note_On_62_Vel_0
Time_Shift_7
Note_On_59_Vel_0
Time_Shift_181
Note_On_59_Vel_71
Note_On_50_Vel_68
Time_Shift_1
Note_On_55_Vel_65
Time_Shift_1
Note_On_69_Vel_69
Time_Shift_1
Note_On_62_Vel_66
Time_Shift_34
Note_On_69_Vel_0
Time_Shift_1
Note_On_62_Vel_0
Note_On_59_Vel_0
Time_Shift_2
Note_On_50_Vel_0
Time_Shift_17
Note_On_55_Vel_0
Time_Shift_51
Note_On_71_Vel_79
Time_Shift_30
Note_On_71_Vel_0
Time_Shift_113
Note_On_72_Vel_93
Time_Shift_1
Note_On_60_Vel_84
Time_Shift_1
Note_On_62_Vel_78
Time_Shift_8
Note_On_54_Vel_71
Time_Shift_1
Note_On_50_Vel_74
Time_Shift_3
Sustain_On
Time_Shift_76
Note_On_72_Vel_0
Time_Shift_11
Note_On_72_Vel_79
Time_Shift_66
Note_On_74_Vel_55
Time_Shift_8
Note_On_72_Vel_0
Time_Shift_10
Note_On_72_Vel_84
Time_Shift_40
Note_On_71_Vel_90
Time_Shift_19
Note_On_50_Vel_0
Note_On_62_Vel_0
Time_Shift_4
Note_On_62_Vel_79
Note_On_55_Vel_75
Time_Shift_1
Note_On_59_Vel_85
Time_Shift_4
Note_On_50_Vel_83
Time_Shift_21
Sustain_Off
Time_Shift_8
Note_On_74_Vel_0
Time_Shift_4
Note_On_72_Vel_0
Note_On_54_Vel_0
Note_On_71_Vel_0
Time_Shift_1
Note_On_62_Vel_0
Note_On_60_Vel_0
Time_Shift_1
Note_On_50_Vel_0
Time_Shift_1
Note_On_55_Vel_0
Time_Shift_3
Note_On_59_Vel_0
Time_Shift_153
Note_On_67_Vel_76
Note_On_62_Vel_63
Time_Shift_56
Note_On_71_Vel_88
Time_Shift_3
Note_On_59_Vel_74
Time_Shift_6
Note_On_50_Vel_70
Time_Shift_1
Note_On_55_Vel_56
Time_Shift_10
Note_On_55_Vel_0
Time_Shift_3
Note_On_62_Vel_0
Time_Shift_14
Note_On_59_Vel_0
Time_Shift_3
Note_On_50_Vel_0
Time_Shift_58
Note_On_71_Vel_0
Time_Shift_3
Note_On_72_Vel_97
Time_Shift_41
Note_On_67_Vel_0
Time_Shift_67
Note_On_72_Vel_0
Time_Shift_41
Note_On_38_Vel_84
Time_Shift_1
Note_On_76_Vel_89
Time_Shift_10
Note_On_69_Vel_71
Time_Shift_27
Sustain_On
Time_Shift_213
Note_On_74_Vel_88
Time_Shift_10
Note_On_69_Vel_0
Time_Shift_2
Note_On_62_Vel_79
Time_Shift_1
Note_On_60_Vel_77
Time_Shift_2
Note_On_69_Vel_64
Time_Shift_4
Note_On_54_Vel_69
Time_Shift_15
Note_On_76_Vel_0
Time_Shift_7
Sustain_Off
Time_Shift_4
Note_On_62_Vel_0
Time_Shift_3
Note_On_38_Vel_0
Time_Shift_5
Note_On_60_Vel_0
Time_Shift_2
Note_On_54_Vel_0
Time_Shift_9
Note_On_69_Vel_0
Time_Shift_8
Note_On_74_Vel_0
Time_Shift_127
Note_On_69_Vel_70
Time_Shift_45
Note_On_72_Vel_84
Time_Shift_12
Note_On_69_Vel_0
Time_Shift_8
Note_On_54_Vel_62
Time_Shift_1
Note_On_60_Vel_71
Note_On_62_Vel_55
Time_Shift_1
Note_On_69_Vel_67
Time_Shift_24
Note_On_62_Vel_0
Time_Shift_5
Note_On_60_Vel_0
Time_Shift_3
Note_On_54_Vel_0
Time_Shift_67
Note_On_78_Vel_73
Time_Shift_1
Note_On_66_Vel_80
Time_Shift_44
Note_On_66_Vel_0
Time_Shift_7
Note_On_69_Vel_0
Time_Shift_85
Note_On_78_Vel_0
Time_Shift_10
Note_On_43_Vel_64
Time_Shift_1
Note_On_55_Vel_64
Note_On_67_Vel_69
Note_On_79_Vel_65
Time_Shift_24
Note_On_43_Vel_0
Note_On_55_Vel_0
Time_Shift_1
Note_On_67_Vel_0
Time_Shift_8
Note_On_72_Vel_0
Time_Shift_2
Note_On_79_Vel_0
Time_Shift_168
Note_On_71_Vel_83
Time_Shift_46
Note_On_73_Vel_90
Time_Shift_2
Note_On_64_Vel_90
Time_Shift_12
Note_On_61_Vel_82
Time_Shift_5
Note_On_71_Vel_0
Note_On_58_Vel_72
Time_Shift_6
Note_On_55_Vel_59
Time_Shift_14
Sustain_On
Time_Shift_160
Note_On_76_Vel_75
Time_Shift_44
Note_On_74_Vel_88
Time_Shift_7
Note_On_62_Vel_85
Time_Shift_9
Note_On_59_Vel_77
Time_Shift_20
Note_On_73_Vel_0
Time_Shift_1
Note_On_76_Vel_0
Time_Shift_3
Sustain_Off
Time_Shift_2
Note_On_58_Vel_0
Note_On_61_Vel_0
Note_On_55_Vel_0
Time_Shift_3
Note_On_62_Vel_0
Time_Shift_5
Note_On_64_Vel_0
Time_Shift_30
Note_On_59_Vel_0
Time_Shift_16
Note_On_74_Vel_0
Time_Shift_172
Note_On_62_Vel_79
Note_On_43_Vel_85
Time_Shift_7
Note_On_59_Vel_60
Time_Shift_5
Note_On_59_Vel_0
Time_Shift_19
Note_On_43_Vel_0
Time_Shift_27
Note_On_62_Vel_0
Time_Shift_143
Note_On_64_Vel_74
Time_Shift_25
Note_On_78_Vel_70
Time_Shift_6
Note_On_66_Vel_79
Time_Shift_3
Note_On_78_Vel_0
Time_Shift_12
Note_On_62_Vel_69
Note_On_64_Vel_0
Time_Shift_1
Note_On_59_Vel_78
Time_Shift_5
Note_On_50_Vel_68
Time_Shift_20
Sustain_On
Time_Shift_15
Note_On_66_Vel_0
Time_Shift_61
Note_On_67_Vel_71
Time_Shift_108
Note_On_67_Vel_0
Time_Shift_1
Sustain_Off
Time_Shift_22
Note_On_59_Vel_0
Time_Shift_8
Note_On_50_Vel_0
Time_Shift_3
Note_On_81_Vel_74
Time_Shift_1
Note_On_59_Vel_78
Note_On_69_Vel_77
Time_Shift_1
Note_On_55_Vel_59
Time_Shift_3
Note_On_50_Vel_70
Time_Shift_23
Note_On_81_Vel_0
Note_On_69_Vel_0
Time_Shift_8
Note_On_62_Vel_0
Time_Shift_23
Note_On_50_Vel_0
Note_On_59_Vel_0
Time_Shift_15
Note_On_55_Vel_0
Time_Shift_23
Note_On_83_Vel_72
Time_Shift_1
Note_On_71_Vel_81
Time_Shift_7
Note_On_83_Vel_0
Time_Shift_38
Note_On_71_Vel_0
Time_Shift_104
Note_On_62_Vel_85
Time_Shift_1
Note_On_72_Vel_94
Time_Shift_3
Note_On_60_Vel_78
Time_Shift_1
Note_On_54_Vel_70
Time_Shift_4
Note_On_50_Vel_69
Time_Shift_18
Sustain_On
Time_Shift_84
Note_On_72_Vel_0
Time_Shift_9
Note_On_72_Vel_75
Time_Shift_53
Note_On_72_Vel_0
Time_Shift_9
Note_On_72_Vel_64
Time_Shift_51
Note_On_71_Vel_89
Time_Shift_9
Note_On_62_Vel_0
Time_Shift_4
Note_On_62_Vel_85
Time_Shift_3
Note_On_50_Vel_0
Time_Shift_1
Sustain_Off
Time_Shift_1
Note_On_54_Vel_0
Time_Shift_1
Note_On_72_Vel_0
Note_On_60_Vel_0
Time_Shift_2
Note_On_59_Vel_75
Time_Shift_4
Note_On_50_Vel_72
Time_Shift_3
Note_On_47_Vel_64
Time_Shift_15
Note_On_71_Vel_0
Time_Shift_18
Note_On_59_Vel_0
Time_Shift_2
Note_On_47_Vel_0
Time_Shift_15
Note_On_50_Vel_0
Note_On_62_Vel_0
Time_Shift_104
Note_On_67_Vel_80
Note_On_79_Vel_71
Time_Shift_11
Note_On_79_Vel_0
Time_Shift_46
Sustain_On
Time_Shift_5
Note_On_71_Vel_93
Time_Shift_6
Note_On_62_Vel_86
Time_Shift_4
Note_On_55_Vel_67
Time_Shift_5
Note_On_50_Vel_78
Time_Shift_3
Note_On_59_Vel_76
Time_Shift_67
Sustain_Off
Time_Shift_4
Note_On_62_Vel_0
Note_On_67_Vel_0
Time_Shift_1
Note_On_50_Vel_0
Time_Shift_1
Note_On_59_Vel_0
Note_On_71_Vel_0
Time_Shift_12
Note_On_55_Vel_0
Time_Shift_19
Note_On_72_Vel_103
Time_Shift_88
Note_On_72_Vel_0
Time_Shift_41
Note_On_38_Vel_81
Note_On_76_Vel_90
Note_On_50_Vel_76
Time_Shift_44
Sustain_On
Time_Shift_204
Sustain_Off
Time_Shift_15
Note_On_74_Vel_87
Time_Shift_1
Note_On_69_Vel_71
Time_Shift_2
Note_On_62_Vel_83
Time_Shift_1
Note_On_76_Vel_0
Time_Shift_1
Note_On_38_Vel_0
Time_Shift_1
Note_On_60_Vel_75
Time_Shift_1
Note_On_66_Vel_79
Note_On_54_Vel_79
Time_Shift_2
Note_On_50_Vel_0
Time_Shift_52
Note_On_72_Vel_49
Time_Shift_11
Sustain_On
Time_Shift_108
Note_On_69_Vel_0
Time_Shift_9
Note_On_69_Vel_72
Time_Shift_45
Note_On_62_Vel_0
Note_On_72_Vel_0
Time_Shift_7
Note_On_72_Vel_91
Note_On_60_Vel_0
Note_On_69_Vel_0
Time_Shift_4
Note_On_62_Vel_75
Time_Shift_1
Note_On_60_Vel_81
Time_Shift_2
Note_On_57_Vel_84
Time_Shift_1
Note_On_69_Vel_83
Time_Shift_24
Sustain_Off
Note_On_74_Vel_0
Time_Shift_6
Note_On_62_Vel_0
Time_Shift_1
Note_On_66_Vel_0
Time_Shift_4
Note_On_72_Vel_0
Note_On_60_Vel_0
Time_Shift_1
Note_On_54_Vel_0
Time_Shift_6
Note_On_57_Vel_0
Time_Shift_35
Note_On_69_Vel_0
Time_Shift_50
Note_On_66_Vel_79
Time_Shift_34
Note_On_66_Vel_0
Time_Shift_113
Note_On_43_Vel_80
Note_On_31_Vel_72
Time_Shift_9
Note_On_55_Vel_80
Time_Shift_1
Note_On_31_Vel_0
Time_Shift_4
Note_On_67_Vel_76
Time_Shift_19
Sustain_On
Time_Shift_57
Note_On_71_Vel_83
Time_Shift_66
Note_On_74_Vel_82
Time_Shift_27
Sustain_Off
Time_Shift_6
Note_On_43_Vel_0
Time_Shift_21
Note_On_67_Vel_0
Note_On_71_Vel_0
Note_On_79_Vel_98
Time_Shift_4
Note_On_67_Vel_80
Time_Shift_1
Note_On_71_Vel_80
Time_Shift_3
Note_On_55_Vel_0
Note_On_74_Vel_0
Time_Shift_4
Note_On_55_Vel_82
Time_Shift_2
Note_On_62_Vel_91
Time_Shift_1
Note_On_74_Vel_81
Time_Shift_3
Note_On_59_Vel_91
Time_Shift_13
Sustain_On
Time_Shift_107
Sustain_Off
Time_Shift_7
Note_On_55_Vel_0
Time_Shift_2
Note_On_79_Vel_0
Note_On_59_Vel_0
Time_Shift_1
Note_On_74_Vel_0
Note_On_62_Vel_0
Time_Shift_21
Note_On_67_Vel_0
Time_Shift_8
Note_On_71_Vel_0
Time_Shift_247
Note_On_62_Vel_78
Time_Shift_41
Note_On_62_Vel_0
Time_Shift_153
Note_On_62_Vel_66
Time_Shift_1
Note_On_43_Vel_77
Time_Shift_6
Note_On_59_Vel_54
Time_Shift_28
Sustain_On
Time_Shift_175
Note_On_64_Vel_70
Time_Shift_40
Note_On_66_Vel_85
Time_Shift_7
Note_On_59_Vel_0
Note_On_62_Vel_0
Time_Shift_4
Note_On_50_Vel_75
Time_Shift_6
Note_On_55_Vel_64
Time_Shift_1
Note_On_47_Vel_72
Note_On_59_Vel_73
Note_On_62_Vel_70
Time_Shift_1
Note_On_40_Vel_67
Time_Shift_12
Sustain_Off
Time_Shift_7
Note_On_66_Vel_0
Time_Shift_3
Note_On_64_Vel_0
Time_Shift_1
Note_On_59_Vel_0
Time_Shift_1
Note_On_55_Vel_0
Time_Shift_2
Note_On_50_Vel_0
Time_Shift_15
Note_On_40_Vel_0
Time_Shift_1
Note_On_43_Vel_0
Note_On_47_Vel_0
Note_On_62_Vel_0
Time_Shift_83
Note_On_67_Vel_62
Time_Shift_63
Note_On_67_Vel_0
Time_Shift_50
Note_On_59_Vel_76
Time_Shift_15
Note_On_50_Vel_71
Note_On_55_Vel_63
Note_On_62_Vel_67
Time_Shift_6
Note_On_69_Vel_74
Time_Shift_18
Note_On_59_Vel_0
Time_Shift_3
Note_On_62_Vel_0
Time_Shift_4
Note_On_50_Vel_0
Note_On_55_Vel_0
Note_On_69_Vel_0
Time_Shift_87
Note_On_71_Vel_79
Time_Shift_27
Note_On_71_Vel_0
Time_Shift_119
Note_On_62_Vel_88
Time_Shift_3
Note_On_72_Vel_94
Time_Shift_1
Note_On_60_Vel_88
Time_Shift_1
Note_On_50_Vel_81
Time_Shift_1
Note_On_54_Vel_75
Time_Shift_18
Sustain_On
Time_Shift_77
Note_On_72_Vel_0
Time_Shift_8
Note_On_72_Vel_73
Time_Shift_48
Note_On_74_Vel_67
Time_Shift_6
Note_On_72_Vel_0
Time_Shift_10
Note_On_72_Vel_66
Time_Shift_66
Note_On_71_Vel_93
Time_Shift_8
Note_On_62_Vel_0
Time_Shift_5
Note_On_62_Vel_89
Time_Shift_1
Note_On_59_Vel_87
Time_Shift_2
Note_On_50_Vel_0
Note_On_43_Vel_74
Time_Shift_3
Note_On_55_Vel_74
Time_Shift_1
Note_On_50_Vel_84
Time_Shift_3
Note_On_43_Vel_0
Time_Shift_37
Sustain_Off
Time_Shift_3
Note_On_72_Vel_0
Time_Shift_1
Note_On_74_Vel_0
Note_On_60_Vel_0
Note_On_71_Vel_0
Note_On_54_Vel_0
Time_Shift_1
Note_On_62_Vel_0
Note_On_50_Vel_0
Time_Shift_2
Note_On_59_Vel_0
Time_Shift_10
Note_On_55_Vel_0
Time_Shift_96
Note_On_67_Vel_79
Time_Shift_32
Note_On_67_Vel_0
Time_Shift_53
Note_On_71_Vel_91
Time_Shift_4
Note_On_62_Vel_81
Time_Shift_2
Note_On_67_Vel_72
Note_On_59_Vel_81
Time_Shift_1
Note_On_55_Vel_65
Time_Shift_6
Note_On_50_Vel_75
Time_Shift_33
Note_On_62_Vel_0
Time_Shift_1
Note_On_59_Vel_0
Time_Shift_1
Note_On_50_Vel_0
Time_Shift_9
Note_On_71_Vel_0
Time_Shift_8
Note_On_55_Vel_0
Time_Shift_54
Note_On_67_Vel_0
Time_Shift_24
Note_On_72_Vel_88
Time_Shift_43
Note_On_72_Vel_0
Time_Shift_91
Note_On_38_Vel_73
Time_Shift_5
Note_On_76_Vel_73
Time_Shift_1
Note_On_50_Vel_67
Time_Shift_2
Note_On_71_Vel_60
Time_Shift_49
Sustain_On
Time_Shift_211
Note_On_74_Vel_82
Time_Shift_8
Note_On_62_Vel_81
Time_Shift_4
Note_On_60_Vel_75
Time_Shift_4
Note_On_54_Vel_71
Time_Shift_5
Note_On_42_Vel_62
Time_Shift_6
Note_On_42_Vel_0
Time_Shift_7
Note_On_76_Vel_0
Time_Shift_4
Sustain_Off
Time_Shift_1
Note_On_74_Vel_0
Time_Shift_1
Note_On_50_Vel_0
Time_Shift_4
Note_On_62_Vel_0
Note_On_60_Vel_0
Time_Shift_6
Note_On_38_Vel_0
Time_Shift_3
Note_On_54_Vel_0
Time_Shift_5
Note_On_71_Vel_0
Time_Shift_139
Note_On_81_Vel_68
Time_Shift_2
Note_On_69_Vel_73
Time_Shift_28
Note_On_81_Vel_0
Time_Shift_17
Note_On_72_Vel_83
Time_Shift_13
Note_On_69_Vel_0
Time_Shift_8
Note_On_60_Vel_62
Note_On_62_Vel_63
Time_Shift_2
Note_On_69_Vel_64
Time_Shift_2
Note_On_54_Vel_64
Time_Shift_19
Note_On_72_Vel_0
Time_Shift_3
Note_On_60_Vel_0
Time_Shift_4
Note_On_62_Vel_0
Time_Shift_16
Note_On_69_Vel_0
Time_Shift_8
Note_On_54_Vel_0
Time_Shift_71
Note_On_66_Vel_76
Time_Shift_34
Note_On_66_Vel_0
Time_Shift_84
Note_On_43_Vel_77
Time_Shift_4
Note_On_55_Vel_69
Time_Shift_2
Note_On_59_Vel_62
Time_Shift_1
Note_On_67_Vel_68
Time_Shift_3
Note_On_59_Vel_0
Time_Shift_8
Sustain_On
Time_Shift_196
Note_On_67_Vel_0
Time_Shift_2
Sustain_Off
Note_On_55_Vel_0
Time_Shift_12
Note_On_71_Vel_77
Time_Shift_5
Note_On_43_Vel_0
Time_Shift_24
Note_On_73_Vel_95
Time_Shift_3
Note_On_64_Vel_85
Time_Shift_5
Note_On_61_Vel_83
Time_Shift_3
Note_On_70_Vel_72
Time_Shift_1
Note_On_58_Vel_69
Time_Shift_7
Note_On_55_Vel_54
Time_Shift_15
Note_On_71_Vel_0
Time_Shift_8
Note_On_61_Vel_0
Time_Shift_3
Sustain_On
Time_Shift_31
Note_On_70_Vel_0
Time_Shift_142
Note_On_76_Vel_81
Time_Shift_40
Note_On_74_Vel_90
Time_Shift_5
Note_On_62_Vel_86
Time_Shift_9
Note_On_59_Vel_79
Time_Shift_1
Sustain_Off
Time_Shift_21
Note_On_76_Vel_0
Time_Shift_5
Note_On_58_Vel_0
Note_On_64_Vel_0
Note_On_73_Vel_0
Time_Shift_3
Note_On_74_Vel_0
Time_Shift_5
Note_On_62_Vel_0
Time_Shift_5
Note_On_55_Vel_0
Time_Shift_8
Note_On_59_Vel_0
Time_Shift_213
Note_On_43_Vel_84
Time_Shift_2
Note_On_62_Vel_77
Time_Shift_4
Note_On_55_Vel_70
Time_Shift_19
Note_On_43_Vel_0
Time_Shift_32
Note_On_55_Vel_0
Time_Shift_8
Note_On_62_Vel_0
Time_Shift_143
Note_On_64_Vel_83
Time_Shift_41
Note_On_62_Vel_81
Time_Shift_4
Note_On_50_Vel_76
Time_Shift_1
Note_On_55_Vel_70
Note_On_64_Vel_0
Time_Shift_1
Note_On_66_Vel_78
Note_On_47_Vel_75
Time_Shift_1
Note_On_59_Vel_79
Time_Shift_9
Sustain_On
Time_Shift_105
Note_On_67_Vel_77
Time_Shift_2
Note_On_47_Vel_0
Time_Shift_99
Note_On_59_Vel_0
Time_Shift_1
Note_On_67_Vel_0
Note_On_50_Vel_0
Time_Shift_3
Note_On_66_Vel_0
Time_Shift_5
Sustain_Off
Time_Shift_23
Note_On_55_Vel_0
Note_On_62_Vel_0
Time_Shift_4
Note_On_69_Vel_79
Time_Shift_3
Note_On_62_Vel_74
Time_Shift_2
Note_On_59_Vel_72
Time_Shift_1
Note_On_55_Vel_68
Time_Shift_1
Note_On_50_Vel_72
Time_Shift_25
Note_On_50_Vel_0
Time_Shift_1
Note_On_62_Vel_0
Time_Shift_3
Note_On_69_Vel_0
Time_Shift_1
Note_On_59_Vel_0
Time_Shift_28
Note_On_55_Vel_0
Time_Shift_41
Note_On_71_Vel_82
Time_Shift_31
Note_On_71_Vel_0
Time_Shift_122
Note_On_62_Vel_76
Time_Shift_1
Note_On_72_Vel_98
Note_On_60_Vel_83
Time_Shift_4
Note_On_50_Vel_68
Time_Shift_4
Note_On_54_Vel_63
Time_Shift_4
Sustain_On
Time_Shift_11
Note_On_74_Vel_77
Time_Shift_82
Note_On_72_Vel_0
Time_Shift_6
Note_On_72_Vel_74
Time_Shift_47
Note_On_74_Vel_0
Time_Shift_6
Note_On_74_Vel_66
Time_Shift_10
Note_On_72_Vel_0
Time_Shift_7
Note_On_72_Vel_79
Time_Shift_57
Note_On_71_Vel_91
Time_Shift_5
Note_On_62_Vel_0
Note_On_74_Vel_0
Time_Shift_6
Note_On_62_Vel_89
Time_Shift_1
Note_On_50_Vel_0
Time_Shift_1
Note_On_74_Vel_76
Time_Shift_5
Sustain_Off
Time_Shift_1
Note_On_59_Vel_79
Time_Shift_2
Note_On_50_Vel_76
Time_Shift_1
Note_On_55_Vel_67
Note_On_72_Vel_0
Time_Shift_1
Note_On_47_Vel_71
Time_Shift_1
Note_On_60_Vel_0
Note_On_54_Vel_0
Time_Shift_27
Note_On_74_Vel_0
Time_Shift_7
Note_On_47_Vel_0
Time_Shift_5
Note_On_59_Vel_0
Time_Shift_3
Note_On_71_Vel_0
Time_Shift_8
Note_On_50_Vel_0
Note_On_55_Vel_0
Note_On_62_Vel_0
Time_Shift_93
Note_On_79_Vel_76
Time_Shift_1
Note_On_67_Vel_84
Time_Shift_37
Note_On_67_Vel_0
Time_Shift_3
Note_On_79_Vel_0
Time_Shift_55
Note_On_71_Vel_93
Note_On_83_Vel_84
Time_Shift_12
Note_On_62_Vel_77
Time_Shift_15
Note_On_55_Vel_57
Time_Shift_1
Note_On_59_Vel_69
Time_Shift_1
Note_On_50_Vel_73
Time_Shift_20
Sustain_On
Time_Shift_79
Note_On_72_Vel_95
Time_Shift_1
Note_On_84_Vel_85
Time_Shift_93
Sustain_Off
Time_Shift_6
Note_On_62_Vel_0
Time_Shift_1
Note_On_50_Vel_0
Note_On_71_Vel_0
Note_On_59_Vel_0
Note_On_83_Vel_0
Time_Shift_1
Note_On_55_Vel_0
Time_Shift_1
Note_On_84_Vel_0
Note_On_72_Vel_0
Time_Shift_43
Note_On_38_Vel_80
Time_Shift_1
Note_On_50_Vel_78
Time_Shift_1
Note_On_76_Vel_79
Time_Shift_34
Sustain_On
Time_Shift_227
Note_On_74_Vel_82
Time_Shift_9
Note_On_62_Vel_71
Time_Shift_5
Note_On_60_Vel_76
Time_Shift_6
Note_On_54_Vel_65
Time_Shift_20
Sustain_Off
Time_Shift_2
Note_On_76_Vel_0
Time_Shift_4
Note_On_74_Vel_0
Time_Shift_4
Note_On_38_Vel_0
Note_On_62_Vel_0
Time_Shift_2
Note_On_60_Vel_0
Time_Shift_3
Note_On_54_Vel_0
Time_Shift_2
Note_On_50_Vel_0
Time_Shift_148
Note_On_81_Vel_76
Time_Shift_1
Note_On_69_Vel_80
Time_Shift_48
Note_On_72_Vel_86
Time_Shift_2
Note_On_69_Vel_0
Time_Shift_1
Note_On_60_Vel_70
Note_On_62_Vel_69
Time_Shift_7
Note_On_54_Vel_63
Time_Shift_23
Note_On_72_Vel_0
Time_Shift_1
Note_On_81_Vel_0
Time_Shift_3
Note_On_62_Vel_0
Time_Shift_3
Note_On_60_Vel_0
Time_Shift_13
Note_On_54_Vel_0
Time_Shift_55
Note_On_78_Vel_80
Time_Shift_1
Note_On_66_Vel_90
Time_Shift_141
Note_On_43_Vel_77
Time_Shift_3
Note_On_36_Vel_64
Time_Shift_2
Note_On_79_Vel_77
Time_Shift_1
Note_On_66_Vel_0
Time_Shift_3
Note_On_67_Vel_80
Time_Shift_20
Note_On_36_Vel_0
Time_Shift_8
Sustain_On
Time_Shift_54
Note_On_67_Vel_0
Time_Shift_8
Note_On_67_Vel_72
Time_Shift_5
Note_On_71_Vel_81
Time_Shift_57
Note_On_74_Vel_85
Time_Shift_45
Note_On_79_Vel_0
Time_Shift_8
Note_On_43_Vel_0
Time_Shift_2
Note_On_79_Vel_94
Time_Shift_13
Note_On_67_Vel_0
Time_Shift_7
Note_On_67_Vel_81
Time_Shift_1
Note_On_71_Vel_0
Time_Shift_4
Note_On_62_Vel_87
Time_Shift_2
Note_On_55_Vel_81
Time_Shift_1
Note_On_71_Vel_73
Time_Shift_3
Note_On_59_Vel_92
Time_Shift_182
Note_On_78_Vel_0
Time_Shift_18
Sustain_Off
Time_Shift_6
Note_On_67_Vel_0
Note_On_71_Vel_0
Time_Shift_1
Note_On_62_Vel_0
Time_Shift_1
Note_On_74_Vel_0
Note_On_55_Vel_0
Note_On_59_Vel_0
Time_Shift_12
Note_On_79_Vel_0
Time_Shift_252
Note_On_71_Vel_74
Time_Shift_23
Note_On_71_Vel_0
Time_Shift_159
Note_On_35_Vel_80
Time_Shift_7
Note_On_71_Vel_81
Note_On_47_Vel_72
Time_Shift_5
Sustain_On
Time_Shift_267
Note_On_73_Vel_85
Time_Shift_1
Note_On_47_Vel_0
Time_Shift_4
Note_On_63_Vel_77
Note_On_54_Vel_73
Time_Shift_1
Note_On_66_Vel_76
Note_On_59_Vel_79
Time_Shift_7
Note_On_47_Vel_75
Time_Shift_181
Note_On_75_Vel_86
Time_Shift_38
Note_On_63_Vel_0
Time_Shift_5
Note_On_63_Vel_77
Time_Shift_3
Note_On_54_Vel_0
Note_On_59_Vel_0
Note_On_66_Vel_0
Time_Shift_2
Note_On_76_Vel_80
Time_Shift_2
Note_On_66_Vel_71
Note_On_54_Vel_67
Time_Shift_4
Note_On_59_Vel_79
Time_Shift_33
Sustain_Off
Note_On_71_Vel_0
Time_Shift_1
Note_On_54_Vel_0
Note_On_63_Vel_0
Time_Shift_1
Note_On_59_Vel_0
Time_Shift_2
Note_On_47_Vel_0
Time_Shift_2
Note_On_73_Vel_0
Time_Shift_2
Note_On_75_Vel_0
Time_Shift_2
Note_On_76_Vel_0
Time_Shift_2
Note_On_35_Vel_0
Time_Shift_23
Note_On_66_Vel_0
Time_Shift_39
Note_On_78_Vel_82
Time_Shift_28
Note_On_78_Vel_0
Time_Shift_127
Note_On_79_Vel_99
Time_Shift_1
Note_On_64_Vel_69
Time_Shift_4
Note_On_61_Vel_67
Time_Shift_7
Note_On_58_Vel_63
Time_Shift_2
Sustain_On
Time_Shift_1
Note_On_55_Vel_58
Time_Shift_22
Note_On_81_Vel_70
Time_Shift_61
Note_On_79_Vel_0
Time_Shift_6
Note_On_79_Vel_75
Time_Shift_48
Note_On_81_Vel_0
Time_Shift_4
Note_On_81_Vel_72
Time_Shift_19
Note_On_79_Vel_0
Time_Shift_5
Note_On_83_Vel_64
Time_Shift_5
Note_On_79_Vel_81
Time_Shift_5
Note_On_83_Vel_0
Time_Shift_41
Note_On_78_Vel_96
Time_Shift_9
Note_On_63_Vel_84
Time_Shift_7
Note_On_59_Vel_80
Time_Shift_3
Note_On_54_Vel_77
Time_Shift_30
Note_On_58_Vel_0
Note_On_81_Vel_0
Time_Shift_6
Note_On_79_Vel_0
Note_On_61_Vel_0
Time_Shift_1
Note_On_64_Vel_0
Time_Shift_1
Note_On_63_Vel_0
Time_Shift_4
Note_On_59_Vel_0
Note_On_78_Vel_0
Sustain_Off
Time_Shift_2
Note_On_54_Vel_0
Time_Shift_12
Note_On_55_Vel_0
Time_Shift_180
Note_On_75_Vel_74
Time_Shift_32
Note_On_78_Vel_80
Time_Shift_7
Note_On_63_Vel_71
Note_On_66_Vel_67
Time_Shift_1
Note_On_75_Vel_0
Time_Shift_6
Note_On_59_Vel_71
Time_Shift_1
Note_On_54_Vel_69
Time_Shift_23
Note_On_66_Vel_0
Note_On_63_Vel_0
Time_Shift_6
Note_On_59_Vel_0
Time_Shift_1
Note_On_78_Vel_0
Note_On_54_Vel_0
Time_Shift_184
Note_On_83_Vel_89
Time_Shift_39
Note_On_71_Vel_85
Note_On_35_Vel_77
Time_Shift_3
Note_On_47_Vel_81
Time_Shift_8
Sustain_On
Time_Shift_242
Note_On_73_Vel_95
Time_Shift_9
Note_On_59_Vel_81
Note_On_54_Vel_72
Time_Shift_1
Note_On_63_Vel_72
Time_Shift_8
Note_On_83_Vel_0
Note_On_71_Vel_0
Time_Shift_25
Note_On_47_Vel_0
Time_Shift_2
Sustain_Off
Time_Shift_1
Note_On_59_Vel_0
Time_Shift_2
Note_On_73_Vel_0
Time_Shift_4
Note_On_54_Vel_0
Time_Shift_2
Note_On_63_Vel_0
Time_Shift_4
Note_On_35_Vel_0
Time_Shift_125
Note_On_75_Vel_93
Time_Shift_48
Note_On_76_Vel_88
Time_Shift_6
Note_On_63_Vel_63
Time_Shift_6
Note_On_66_Vel_65
Time_Shift_2
Note_On_59_Vel_74
Time_Shift_1
Note_On_54_Vel_65
Time_Shift_23
Note_On_75_Vel_0
Time_Shift_2
Note_On_63_Vel_0
Time_Shift_3
Note_On_76_Vel_0
Note_On_59_Vel_0
Note_On_66_Vel_0
Time_Shift_6
Note_On_54_Vel_0
Time_Shift_66
Note_On_78_Vel_90
Time_Shift_49
Note_On_78_Vel_0
Time_Shift_128
Note_On_79_Vel_99
Note_On_64_Vel_76
Time_Shift_3
Sustain_On
Time_Shift_3
Note_On_61_Vel_77
Time_Shift_2
Note_On_55_Vel_63
Time_Shift_14
Note_On_58_Vel_68
Time_Shift_3
Note_On_81_Vel_80
Time_Shift_116
Note_On_81_Vel_0
Time_Shift_10
Note_On_81_Vel_81
Time_Shift_36
Note_On_79_Vel_0
Time_Shift_9
Note_On_79_Vel_87
Time_Shift_49
Note_On_78_Vel_93
Time_Shift_9
Note_On_63_Vel_86
Time_Shift_5
Note_On_75_Vel_74
Time_Shift_5
Note_On_75_Vel_0
Time_Shift_2
Note_On_59_Vel_84
Time_Shift_3
Note_On_54_Vel_73
Time_Shift_52
Note_On_64_Vel_0
Time_Shift_2
Note_On_58_Vel_0
Note_On_79_Vel_0
Note_On_81_Vel_0
Note_On_59_Vel_0
Time_Shift_1
Note_On_61_Vel_0
Time_Shift_1
Note_On_78_Vel_0
Note_On_63_Vel_0
Time_Shift_1
Note_On_54_Vel_0
Time_Shift_4
Sustain_Off
Time_Shift_3
Note_On_55_Vel_0
Time_Shift_242
Note_On_63_Vel_73
Time_Shift_3
Note_On_59_Vel_73
Time_Shift_4
Note_On_75_Vel_72
Note_On_66_Vel_68
Time_Shift_1
Note_On_54_Vel_68
Time_Shift_23
Note_On_63_Vel_0
Time_Shift_2
Note_On_59_Vel_0
Time_Shift_5
Note_On_75_Vel_0
Time_Shift_20
Note_On_54_Vel_0
Time_Shift_15
Note_On_66_Vel_0
Time_Shift_66
Note_On_78_Vel_76
Time_Shift_1
Note_On_66_Vel_86
Time_Shift_98
Note_On_66_Vel_0
Time_Shift_43
Note_On_78_Vel_0
Time_Shift_29
Note_On_71_Vel_79
Time_Shift_4
Note_On_35_Vel_69
Time_Shift_1
Note_On_47_Vel_77
Time_Shift_12
Sustain_On
Time_Shift_241
Note_On_73_Vel_83
Time_Shift_16
Note_On_63_Vel_60
Time_Shift_1
Note_On_54_Vel_64
Note_On_59_Vel_61
Time_Shift_3
Note_On_71_Vel_0
Time_Shift_3
Sustain_Off
Time_Shift_2
Note_On_47_Vel_0
Time_Shift_18
Note_On_35_Vel_0
Time_Shift_5
Note_On_54_Vel_0
Time_Shift_5
Note_On_59_Vel_0
Time_Shift_1
Note_On_63_Vel_0
Time_Shift_4
Note_On_73_Vel_0
Time_Shift_126
Note_On_75_Vel_86
Time_Shift_40
Note_On_76_Vel_83
Time_Shift_1
Note_On_63_Vel_56
Time_Shift_3
Note_On_66_Vel_64
Time_Shift_1
Note_On_59_Vel_73
Time_Shift_6
Note_On_54_Vel_71
Time_Shift_19
Note_On_66_Vel_0
Note_On_76_Vel_0
Time_Shift_4
Note_On_59_Vel_0
Note_On_63_Vel_0
Time_Shift_23
Note_On_54_Vel_0
Note_On_75_Vel_0
Time_Shift_61
Note_On_78_Vel_96
Time_Shift_34
Note_On_78_Vel_0
Time_Shift_99
Note_On_79_Vel_101
Time_Shift_6
Sustain_On
Note_On_64_Vel_82
Time_Shift_4
Note_On_61_Vel_78
Time_Shift_6
Note_On_58_Vel_67
Note_On_55_Vel_62
Time_Shift_8
Note_On_67_Vel_58
Time_Shift_48
Note_On_81_Vel_82
Time_Shift_33
Note_On_79_Vel_0
Time_Shift_6
Note_On_79_Vel_87
Time_Shift_79
Note_On_79_Vel_0
Time_Shift_5
Note_On_79_Vel_86
Time_Shift_44
Note_On_78_Vel_94
Time_Shift_10
Note_On_63_Vel_87
Time_Shift_8
Note_On_59_Vel_82
Time_Shift_2
Note_On_54_Vel_81
Time_Shift_12
Note_On_81_Vel_0
Time_Shift_1
Note_On_67_Vel_0
Note_On_79_Vel_0
Time_Shift_1
Note_On_58_Vel_0
Time_Shift_1
Note_On_64_Vel_0
Time_Shift_2
Note_On_61_Vel_0
Time_Shift_4
Note_On_78_Vel_0
Time_Shift_3
Sustain_Off
Time_Shift_4
Note_On_59_Vel_0
Note_On_63_Vel_0
Time_Shift_3
Note_On_55_Vel_0
Time_Shift_2
Note_On_54_Vel_0
Time_Shift_248
Note_On_75_Vel_78
Time_Shift_45
Note_On_63_Vel_75
Time_Shift_1
Note_On_78_Vel_82
Note_On_66_Vel_76
Time_Shift_6
Note_On_59_Vel_76
Time_Shift_1
Note_On_54_Vel_77
Time_Shift_27
Note_On_66_Vel_0
Note_On_78_Vel_0
Time_Shift_2
Note_On_59_Vel_0
Time_Shift_1
Note_On_63_Vel_0
Time_Shift_1
Note_On_54_Vel_0
Time_Shift_11
Note_On_75_Vel_0
Time_Shift_231
Note_On_83_Vel_81
Time_Shift_42
Note_On_35_Vel_78
Time_Shift_4
Note_On_83_Vel_0
Note_On_71_Vel_84
Time_Shift_2
Note_On_47_Vel_77
Time_Shift_13
Sustain_On
Time_Shift_238
Note_On_47_Vel_0
Time_Shift_4
Note_On_73_Vel_79
Note_On_63_Vel_72
Time_Shift_4
Note_On_59_Vel_74
Time_Shift_3
Note_On_54_Vel_74
Time_Shift_1
Note_On_47_Vel_66
Time_Shift_21
Sustain_Off
Time_Shift_2
Note_On_71_Vel_0
Note_On_47_Vel_0
Time_Shift_6
Note_On_59_Vel_0
Time_Shift_1
Note_On_73_Vel_0
Time_Shift_1
Note_On_63_Vel_0
Note_On_54_Vel_0
Time_Shift_3
Note_On_35_Vel_0
Time_Shift_149
Note_On_75_Vel_88
Time_Shift_32
Note_On_76_Vel_89
Time_Shift_7
Note_On_63_Vel_62
Time_Shift_8
Note_On_59_Vel_75
Time_Shift_1
Note_On_54_Vel_67
Time_Shift_8
Note_On_76_Vel_0
Time_Shift_3
Note_On_75_Vel_0
Time_Shift_18
Note_On_63_Vel_0
Time_Shift_1
Note_On_59_Vel_0
Time_Shift_34
Note_On_54_Vel_0
Time_Shift_39
Note_On_78_Vel_94
Time_Shift_39
Note_On_78_Vel_0
Time_Shift_116
Note_On_79_Vel_91
Time_Shift_5
Note_On_64_Vel_72
Time_Shift_12
Note_On_55_Vel_58
Time_Shift_3
Note_On_61_Vel_64
Time_Shift_1
Sustain_On
Time_Shift_3
Note_On_58_Vel_59
Time_Shift_30
Note_On_81_Vel_74
Time_Shift_90
Note_On_81_Vel_0
Time_Shift_8
Note_On_81_Vel_72
Time_Shift_21
Note_On_83_Vel_59
Time_Shift_10
Note_On_79_Vel_0
Note_On_83_Vel_0
Time_Shift_10
Note_On_79_Vel_86
Time_Shift_47
Sustain_Off
Time_Shift_4
Note_On_78_Vel_94
Time_Shift_4
Note_On_61_Vel_0
Note_On_81_Vel_0
Note_On_58_Vel_0
Time_Shift_1
Note_On_79_Vel_0
Note_On_64_Vel_0
Time_Shift_1
Note_On_55_Vel_0
Time_Shift_36
Note_On_63_Vel_66
Time_Shift_8
Note_On_59_Vel_69
Time_Shift_1
Note_On_54_Vel_64
Time_Shift_26
Sustain_On
Time_Shift_266
Note_On_83_Vel_77
Time_Shift_58
Note_On_71_Vel_74
Time_Shift_201
Note_On_63_Vel_0
Note_On_71_Vel_0
Note_On_59_Vel_0
Note_On_54_Vel_0
Time_Shift_1
Note_On_83_Vel_0
Sustain_Off
Time_Shift_1
Note_On_78_Vel_0
Time_Shift_158
Note_On_62_Vel_77
Time_Shift_1
Note_On_43_Vel_74
Time_Shift_5
Note_On_59_Vel_56
Time_Shift_24
Note_On_43_Vel_0
Time_Shift_91
Sustain_On
Time_Shift_105
Note_On_64_Vel_73
Time_Shift_41
Note_On_59_Vel_0
Note_On_62_Vel_0
Time_Shift_7
Note_On_62_Vel_73
Note_On_66_Vel_76
Time_Shift_5
Note_On_59_Vel_72
Time_Shift_8
Note_On_50_Vel_64
Time_Shift_4
Note_On_38_Vel_63
Time_Shift_6
Note_On_64_Vel_0
Time_Shift_4
Sustain_Off
Time_Shift_1
Note_On_66_Vel_0
Time_Shift_2
Note_On_62_Vel_0
Time_Shift_6
Note_On_59_Vel_0
Time_Shift_7
Note_On_38_Vel_0
Time_Shift_19
Note_On_50_Vel_0
Time_Shift_37
Note_On_67_Vel_72
Time_Shift_30
Note_On_67_Vel_0
Time_Shift_115
Note_On_69_Vel_75
Time_Shift_4
Note_On_62_Vel_66
Time_Shift_3
Note_On_59_Vel_62
Time_Shift_1
Note_On_55_Vel_52
Time_Shift_7
Note_On_50_Vel_54
Time_Shift_22
Note_On_62_Vel_0
Note_On_69_Vel_0
Time_Shift_3
Note_On_59_Vel_0
Time_Shift_24
Note_On_50_Vel_0
Time_Shift_23
Note_On_55_Vel_0
Time_Shift_13
Note_On_71_Vel_81
Time_Shift_24
Note_On_71_Vel_0
Time_Shift_137
Note_On_72_Vel_95
Time_Shift_8
Note_On_62_Vel_74
Time_Shift_5
Note_On_60_Vel_69
Note_On_54_Vel_65
Time_Shift_2
Note_On_50_Vel_64
Time_Shift_6
Note_On_74_Vel_73
Time_Shift_5
Sustain_On
Time_Shift_54
Note_On_72_Vel_0
Time_Shift_11
Note_On_72_Vel_71
Time_Shift_50
Note_On_74_Vel_0
Time_Shift_9
Note_On_74_Vel_58
Time_Shift_22
Note_On_72_Vel_0
Time_Shift_4
Note_On_72_Vel_83
Time_Shift_53
Note_On_71_Vel_87
Time_Shift_4
Note_On_62_Vel_0
Time_Shift_5
Note_On_62_Vel_80
Time_Shift_3
Note_On_50_Vel_0
Time_Shift_3
Note_On_67_Vel_70
Time_Shift_5
Note_On_67_Vel_0
Time_Shift_1
Note_On_50_Vel_75
Note_On_59_Vel_78
Time_Shift_3
Note_On_55_Vel_67
Time_Shift_16
Sustain_Off
Time_Shift_12
Note_On_74_Vel_0
Time_Shift_1
Note_On_72_Vel_0
Time_Shift_1
Note_On_71_Vel_0
Note_On_54_Vel_0
Time_Shift_1
Note_On_60_Vel_0
Note_On_62_Vel_0
Time_Shift_2
Note_On_50_Vel_0
Time_Shift_3
Note_On_59_Vel_0
Time_Shift_21
Note_On_55_Vel_0
Time_Shift_135
Note_On_79_Vel_76
Note_On_67_Vel_82
Time_Shift_48
Note_On_79_Vel_0
Time_Shift_2
Note_On_62_Vel_79
Time_Shift_11
Note_On_59_Vel_75
Time_Shift_7
Note_On_50_Vel_72
Note_On_71_Vel_94
Time_Shift_32
Note_On_62_Vel_0
Time_Shift_7
Note_On_50_Vel_0
Time_Shift_1
Note_On_59_Vel_0
Time_Shift_3
Note_On_67_Vel_0
Time_Shift_37
Note_On_71_Vel_0
Time_Shift_40
Note_On_72_Vel_99
Time_Shift_102
Note_On_72_Vel_0
Time_Shift_72
Note_On_50_Vel_67
Note_On_38_Vel_72
Time_Shift_5
Note_On_76_Vel_87
Time_Shift_28
Sustain_On
Time_Shift_231
Note_On_74_Vel_84
Time_Shift_10
Note_On_62_Vel_71
Note_On_69_Vel_58
Time_Shift_6
Note_On_60_Vel_69
Time_Shift_8
Note_On_54_Vel_60
Time_Shift_152
Note_On_69_Vel_0
Time_Shift_5
Note_On_81_Vel_80
Time_Shift_1
Note_On_69_Vel_84
Time_Shift_27
Note_On_76_Vel_0
Time_Shift_1
Note_On_74_Vel_0
Sustain_Off
Note_On_60_Vel_0
Note_On_50_Vel_0
Time_Shift_4
Note_On_38_Vel_0
Time_Shift_23
Note_On_54_Vel_0
Note_On_62_Vel_0
Note_On_81_Vel_0
Time_Shift_5
Note_On_72_Vel_91
Time_Shift_6
Note_On_54_Vel_61
Note_On_62_Vel_59
Time_Shift_1
Note_On_57_Vel_59
Time_Shift_17
Note_On_69_Vel_0
Time_Shift_16
Note_On_72_Vel_0
Time_Shift_1
Note_On_54_Vel_0
Time_Shift_16
Note_On_62_Vel_0
Time_Shift_58
Note_On_66_Vel_83
Time_Shift_19
Note_On_57_Vel_0
Time_Shift_14
Note_On_66_Vel_0
Time_Shift_104
Note_On_31_Vel_65
Note_On_43_Vel_69
Note_On_55_Vel_66
Time_Shift_2
Note_On_67_Vel_74
Time_Shift_3
Note_On_31_Vel_0
Time_Shift_15
Sustain_On
Time_Shift_186
Note_On_71_Vel_83
Time_Shift_24
Note_On_67_Vel_0
Sustain_Off
Time_Shift_5
Note_On_43_Vel_0
Time_Shift_12
Note_On_64_Vel_91
Time_Shift_3
Note_On_55_Vel_0
Time_Shift_4
Note_On_73_Vel_87
Time_Shift_1
Note_On_71_Vel_0
Time_Shift_1
Note_On_61_Vel_81
Time_Shift_3
Note_On_55_Vel_57
Time_Shift_7
Note_On_58_Vel_63
Time_Shift_38
Sustain_On
Time_Shift_205
Note_On_76_Vel_78
Time_Shift_38
Sustain_Off
Time_Shift_8
Note_On_74_Vel_90
Time_Shift_1
Note_On_58_Vel_0
Time_Shift_2
Note_On_55_Vel_0
Note_On_62_Vel_83
Time_Shift_4
Note_On_61_Vel_0
Note_On_73_Vel_0
Time_Shift_5
Note_On_55_Vel_70
Time_Shift_2
Note_On_59_Vel_81
Time_Shift_3
Note_On_76_Vel_0
Time_Shift_9
Note_On_64_Vel_0
Time_Shift_61
Sustain_On
Time_Shift_230
Note_On_62_Vel_0
Time_Shift_4
Note_On_43_Vel_91
Time_Shift_3
Note_On_62_Vel_83
Time_Shift_3
Sustain_Off
Time_Shift_3
Note_On_59_Vel_0
Time_Shift_10
Note_On_74_Vel_0
Time_Shift_21
Note_On_43_Vel_0
Time_Shift_2
Note_On_55_Vel_0
Time_Shift_39
Note_On_62_Vel_0
Time_Shift_125
Note_On_64_Vel_71
Time_Shift_42
Note_On_64_Vel_0
Time_Shift_5
Note_On_66_Vel_82
Time_Shift_7
Note_On_50_Vel_75
Time_Shift_1
Note_On_62_Vel_73
Time_Shift_1
Note_On_59_Vel_76
Time_Shift_1
Note_On_55_Vel_67
Time_Shift_4
Note_On_71_Vel_62
Time_Shift_18
Note_On_66_Vel_0
Time_Shift_2
Note_On_62_Vel_0
Time_Shift_8
Note_On_59_Vel_0
Note_On_50_Vel_0
Time_Shift_2
Note_On_55_Vel_0
Time_Shift_45
Note_On_71_Vel_0
Time_Shift_51
Note_On_67_Vel_72
Time_Shift_35
Note_On_67_Vel_0
Time_Shift_92
Note_On_62_Vel_79
Time_Shift_3
Note_On_59_Vel_75
Note_On_55_Vel_67
Time_Shift_1
Note_On_69_Vel_75
Time_Shift_5
Note_On_50_Vel_71
Time_Shift_25
Note_On_62_Vel_0
Note_On_69_Vel_0
Time_Shift_4
Note_On_59_Vel_0
Time_Shift_3
Note_On_50_Vel_0
Time_Shift_27
Note_On_55_Vel_0
Time_Shift_42
Note_On_71_Vel_78
Time_Shift_25
Note_On_71_Vel_0
Time_Shift_129
Note_On_62_Vel_78
Note_On_60_Vel_82
Note_On_72_Vel_97
Time_Shift_4
Note_On_57_Vel_64
Time_Shift_2
Note_On_54_Vel_66
Time_Shift_1
Note_On_50_Vel_69
Time_Shift_4
Note_On_57_Vel_0
Time_Shift_8
Sustain_On
Time_Shift_92
Note_On_72_Vel_0
Time_Shift_5
Note_On_72_Vel_80
Time_Shift_64
Note_On_72_Vel_0
Time_Shift_11
Note_On_72_Vel_74
Time_Shift_43
Note_On_62_Vel_0
Time_Shift_10
Note_On_71_Vel_89
Time_Shift_1
Note_On_62_Vel_92
Time_Shift_2
Note_On_59_Vel_92
Time_Shift_2
Note_On_50_Vel_0
Time_Shift_9
Note_On_50_Vel_82
Time_Shift_1
Note_On_55_Vel_78
Time_Shift_15
Sustain_Off
Time_Shift_4
Note_On_60_Vel_0
Time_Shift_4
Note_On_54_Vel_0
Time_Shift_2
Note_On_62_Vel_0
Time_Shift_1
Note_On_50_Vel_0
Time_Shift_4
Note_On_71_Vel_0
Time_Shift_4
Note_On_55_Vel_0
Time_Shift_2
Note_On_72_Vel_0
Time_Shift_2
Note_On_59_Vel_0
Time_Shift_157
Note_On_67_Vel_81
Time_Shift_49
Note_On_67_Vel_0
Time_Shift_10
Note_On_55_Vel_64
Note_On_62_Vel_75
Time_Shift_1
Note_On_71_Vel_93
Time_Shift_1
Note_On_50_Vel_74
Time_Shift_7
Note_On_59_Vel_75
Time_Shift_38
Note_On_50_Vel_0
Time_Shift_1
Note_On_59_Vel_0
Time_Shift_18
Note_On_55_Vel_0
Note_On_62_Vel_0
Time_Shift_52
Note_On_72_Vel_103
Time_Shift_79
Note_On_71_Vel_0
Time_Shift_9
Note_On_72_Vel_0
Time_Shift_53
Note_On_76_Vel_97
Time_Shift_9
Note_On_38_Vel_83
Time_Shift_1
Note_On_50_Vel_73
Time_Shift_36
Sustain_On
Time_Shift_198
Note_On_74_Vel_93
Time_Shift_7
Note_On_62_Vel_80
Time_Shift_6
Note_On_60_Vel_77
Note_On_69_Vel_69
Time_Shift_1
Note_On_72_Vel_70
Time_Shift_6
Note_On_54_Vel_70
Time_Shift_16
Note_On_76_Vel_0
Time_Shift_4
Note_On_74_Vel_0
Note_On_62_Vel_0
Note_On_72_Vel_0
Time_Shift_3
Note_On_50_Vel_0
Time_Shift_1
Sustain_Off
Note_On_60_Vel_0
Time_Shift_7
Note_On_54_Vel_0
Time_Shift_4
Note_On_38_Vel_0
Time_Shift_8
Note_On_69_Vel_0
Time_Shift_150
Note_On_81_Vel_78
Time_Shift_1
Note_On_69_Vel_83
Time_Shift_56
Note_On_69_Vel_0
Time_Shift_1
Note_On_62_Vel_71
Time_Shift_3
Note_On_72_Vel_94
Time_Shift_3
Note_On_60_Vel_78
Time_Shift_1
Note_On_54_Vel_69
Time_Shift_2
Note_On_69_Vel_80
Time_Shift_20
Note_On_62_Vel_0
Time_Shift_1
Note_On_81_Vel_0
Time_Shift_10
Note_On_72_Vel_0
Note_On_54_Vel_0
Time_Shift_13
Note_On_60_Vel_0
Time_Shift_15
Note_On_69_Vel_0
Time_Shift_70
Note_On_66_Vel_89
Note_On_78_Vel_80
Time_Shift_42
Note_On_66_Vel_0
Time_Shift_103
Note_On_78_Vel_0
Time_Shift_41
Note_On_31_Vel_70
Time_Shift_1
Note_On_43_Vel_75
Time_Shift_4
Note_On_31_Vel_0
Time_Shift_16
Sustain_On
Time_Shift_6
Note_On_79_Vel_70
Time_Shift_5
Note_On_67_Vel_80
Time_Shift_82
Note_On_71_Vel_83
Time_Shift_84
Note_On_74_Vel_90
Time_Shift_84
Note_On_79_Vel_0
Time_Shift_5
Note_On_79_Vel_99
Time_Shift_2
Note_On_67_Vel_0
Note_On_71_Vel_0
Time_Shift_4
Note_On_67_Vel_78
Time_Shift_4
Note_On_74_Vel_0
Time_Shift_2
Note_On_71_Vel_78
Time_Shift_2
Note_On_55_Vel_81
Note_On_62_Vel_82
Time_Shift_3
Note_On_74_Vel_67
Time_Shift_1
Note_On_59_Vel_85
Time_Shift_325
Sustain_Off
Time_Shift_2
Note_On_71_Vel_0
Note_On_67_Vel_0
Time_Shift_1
Note_On_55_Vel_0
Note_On_79_Vel_0
Note_On_62_Vel_0
Time_Shift_1
Note_On_59_Vel_0
Note_On_74_Vel_0
Time_Shift_9
Note_On_43_Vel_0
Time_Shift_317
Note_On_91_Vel_67
Time_Shift_5
Note_On_79_Vel_44
Time_Shift_131
Note_On_79_Vel_0
Time_Shift_156
Note_On_36_Vel_62
Time_Shift_20
Note_On_48_Vel_41
Note_On_91_Vel_0
Time_Shift_8
Note_On_48_Vel_0
Time_Shift_4
Note_On_91_Vel_80
Time_Shift_4
Sustain_On
Time_Shift_10
Note_On_79_Vel_40
Time_Shift_21
Note_On_79_Vel_0
Time_Shift_23
Note_On_36_Vel_0
Time_Shift_41
Note_On_93_Vel_68
Time_Shift_45
Note_On_95_Vel_84
Time_Shift_81
Note_On_96_Vel_88
Time_Shift_12
Note_On_64_Vel_69
Sustain_Off
Time_Shift_1
Note_On_60_Vel_73
Time_Shift_1
Note_On_95_Vel_0
Note_On_55_Vel_64
Time_Shift_6
Note_On_93_Vel_0
Time_Shift_5
Note_On_91_Vel_0
Time_Shift_20
Note_On_60_Vel_0
Time_Shift_2
Note_On_64_Vel_0
Time_Shift_16
Note_On_96_Vel_0
Time_Shift_8
Note_On_55_Vel_0
Time_Shift_258
Note_On_88_Vel_70
Time_Shift_6
Note_On_64_Vel_60
Time_Shift_3
Note_On_55_Vel_56
Time_Shift_1
Note_On_60_Vel_55
Time_Shift_10
Note_On_76_Vel_46
Time_Shift_17
Note_On_88_Vel_0
Note_On_64_Vel_0
Note_On_55_Vel_0
Time_Shift_20
Note_On_60_Vel_0
Time_Shift_15
Note_On_76_Vel_0
Time_Shift_211
Note_On_65_Vel_63
Time_Shift_3
Note_On_89_Vel_84
Time_Shift_1
Note_On_57_Vel_66
Time_Shift_3
Note_On_60_Vel_54
Time_Shift_1
Note_On_77_Vel_56
Time_Shift_21
Note_On_65_Vel_0
Time_Shift_2
Note_On_89_Vel_0
Note_On_57_Vel_0
Time_Shift_1
Note_On_60_Vel_0
Time_Shift_10
Note_On_77_Vel_0
Time_Shift_35
Note_On_91_Vel_86
Time_Shift_52
Note_On_91_Vel_0
Time_Shift_23
Note_On_93_Vel_94
Time_Shift_84
Note_On_91_Vel_95
Time_Shift_18
Note_On_64_Vel_66
Time_Shift_14
Note_On_55_Vel_50
Time_Shift_1
Note_On_60_Vel_48
Time_Shift_10
Note_On_91_Vel_0
Time_Shift_12
Note_On_64_Vel_0
Time_Shift_5
Note_On_93_Vel_0
Time_Shift_1
Note_On_55_Vel_0
Time_Shift_22
Note_On_60_Vel_0
Time_Shift_291
Note_On_64_Vel_63
Time_Shift_7
Note_On_60_Vel_60
Time_Shift_5
Note_On_55_Vel_51
Time_Shift_23
Note_On_64_Vel_0
Time_Shift_1
Note_On_60_Vel_0
Time_Shift_3
Note_On_55_Vel_0
Time_Shift_66
Note_On_92_Vel_106
Time_Shift_103
Note_On_92_Vel_0
Time_Shift_67
Note_On_83_Vel_73
Time_Shift_35
Note_On_43_Vel_48
Time_Shift_25
Note_On_93_Vel_101
Time_Shift_3
Note_On_83_Vel_0
Note_On_43_Vel_0
Time_Shift_200
Note_On_93_Vel_0
Time_Shift_104
Note_On_65_Vel_59
Time_Shift_6
Note_On_62_Vel_58
Time_Shift_2
Note_On_55_Vel_46
Time_Shift_22
Note_On_65_Vel_0
Time_Shift_1
Note_On_62_Vel_0
Time_Shift_27
Note_On_55_Vel_0
Time_Shift_44
Note_On_91_Vel_84
Time_Shift_94
Note_On_91_Vel_0
Time_Shift_29
Note_On_89_Vel_82
Time_Shift_4
Note_On_62_Vel_56
Time_Shift_1
Note_On_65_Vel_53
Time_Shift_6
Note_On_53_Vel_42
Time_Shift_6
Note_On_53_Vel_0
Time_Shift_14
Note_On_65_Vel_0
Time_Shift_3
Note_On_62_Vel_0
Time_Shift_47
Note_On_86_Vel_77
Time_Shift_5
Note_On_89_Vel_0
Time_Shift_55
Note_On_84_Vel_78
Time_Shift_32
Note_On_84_Vel_0
Time_Shift_5
Note_On_86_Vel_0
Time_Shift_9
Note_On_86_Vel_86
Time_Shift_49
Note_On_84_Vel_93
Time_Shift_5
Note_On_86_Vel_0
Time_Shift_24
Note_On_36_Vel_70
Time_Shift_6
Note_On_48_Vel_66
Time_Shift_2
Note_On_84_Vel_0
Time_Shift_27
Note_On_48_Vel_0
Time_Shift_9
Note_On_36_Vel_0
Time_Shift_187
Note_On_83_Vel_77
Time_Shift_32
Note_On_83_Vel_0
Time_Shift_7
Note_On_84_Vel_90
Time_Shift_10
Note_On_60_Vel_73
Time_Shift_3
Note_On_64_Vel_64
Time_Shift_2
Note_On_55_Vel_57
Time_Shift_30
Note_On_84_Vel_0
Time_Shift_5
Note_On_60_Vel_0
Time_Shift_6
Note_On_55_Vel_0
Time_Shift_3
Note_On_64_Vel_0
Time_Shift_49
Note_On_86_Vel_88
Time_Shift_45
Note_On_86_Vel_0
Time_Shift_84
Note_On_88_Vel_84
Time_Shift_2
Note_On_64_Vel_60
Time_Shift_2
Note_On_60_Vel_73
Time_Shift_3
Note_On_55_Vel_62
Time_Shift_26
Note_On_60_Vel_0
Note_On_64_Vel_0
Time_Shift_2
Note_On_88_Vel_0
Note_On_55_Vel_0
Time_Shift_68
Note_On_89_Vel_89
Time_Shift_35
Note_On_89_Vel_0
Time_Shift_112
Note_On_36_Vel_76
Time_Shift_11
Note_On_48_Vel_65
Time_Shift_13
Sustain_On
Time_Shift_19
Note_On_60_Vel_44
Time_Shift_2
Note_On_91_Vel_97
Time_Shift_64
Note_On_93_Vel_94
Time_Shift_58
Note_On_95_Vel_95
Time_Shift_52
Note_On_96_Vel_106
Time_Shift_20
Note_On_60_Vel_0
Note_On_55_Vel_75
Time_Shift_3
Note_On_64_Vel_80
Time_Shift_1
Note_On_67_Vel_65
Note_On_60_Vel_71
Time_Shift_4
Note_On_67_Vel_0
Time_Shift_4
Note_On_95_Vel_0
Time_Shift_5
Note_On_48_Vel_0
Note_On_91_Vel_0
Time_Shift_2
Note_On_93_Vel_0
Time_Shift_3
Note_On_96_Vel_0
Time_Shift_5
Sustain_Off
Time_Shift_1
Note_On_60_Vel_0
Time_Shift_3
Note_On_64_Vel_0
Note_On_36_Vel_0
Time_Shift_1
Note_On_55_Vel_0
Time_Shift_307
Note_On_88_Vel_83
Time_Shift_3
Note_On_64_Vel_70
Time_Shift_7
Note_On_60_Vel_69
Note_On_55_Vel_59
Time_Shift_22
Note_On_64_Vel_0
Time_Shift_3
Note_On_88_Vel_0
Time_Shift_5
Note_On_55_Vel_0
Time_Shift_13
Note_On_60_Vel_0
Time_Shift_271
Note_On_89_Vel_90
Time_Shift_1
Note_On_65_Vel_62
Time_Shift_3
Note_On_60_Vel_56
Note_On_57_Vel_68
Time_Shift_28
Note_On_65_Vel_0
Time_Shift_1
Note_On_89_Vel_0
Time_Shift_4
Note_On_60_Vel_0
Time_Shift_30
Note_On_57_Vel_0
Time_Shift_6
Note_On_91_Vel_87
Time_Shift_53
Note_On_91_Vel_0
Time_Shift_15
Note_On_93_Vel_95
Time_Shift_72
Note_On_91_Vel_95
Time_Shift_27
Note_On_64_Vel_69
Time_Shift_7
Note_On_55_Vel_59
Time_Shift_8
Note_On_60_Vel_37
Time_Shift_4
Note_On_93_Vel_0
Time_Shift_23
Note_On_64_Vel_0
Time_Shift_15
Note_On_55_Vel_0
Time_Shift_31
Note_On_60_Vel_0
Time_Shift_176
Note_On_91_Vel_0
Time_Shift_62
Note_On_64_Vel_69
Time_Shift_11
Note_On_55_Vel_58
Note_On_60_Vel_61
Time_Shift_23
Note_On_60_Vel_0
Time_Shift_1
Note_On_64_Vel_0
Time_Shift_2
Note_On_55_Vel_0
Time_Shift_46
Note_On_92_Vel_97
Time_Shift_143
Note_On_83_Vel_63
Time_Shift_4
Note_On_92_Vel_0
Time_Shift_19
Note_On_83_Vel_0
Time_Shift_72
Note_On_43_Vel_67
Time_Shift_4
Note_On_93_Vel_107
Time_Shift_26
Note_On_43_Vel_0
Time_Shift_25
Sustain_On
Time_Shift_237
Note_On_65_Vel_75
Time_Shift_4
Note_On_62_Vel_70
Time_Shift_8
Note_On_55_Vel_59
Time_Shift_71
Note_On_55_Vel_0
Time_Shift_1
Note_On_65_Vel_0
Time_Shift_1
Sustain_Off
Time_Shift_4
Note_On_62_Vel_0
Time_Shift_16
Note_On_91_Vel_90
Time_Shift_34
Note_On_93_Vel_0
Time_Shift_91
Note_On_62_Vel_67
Time_Shift_2
Note_On_65_Vel_65
Time_Shift_1
Note_On_89_Vel_84
Time_Shift_3
Note_On_55_Vel_61
Time_Shift_26
Note_On_91_Vel_0
Time_Shift_4
Note_On_62_Vel_0
Note_On_65_Vel_0
Time_Shift_3
Note_On_55_Vel_0
Time_Shift_14
Note_On_89_Vel_0
Time_Shift_36
Note_On_86_Vel_74
Time_Shift_54
Note_On_84_Vel_80
Time_Shift_43
Note_On_84_Vel_0
Note_On_86_Vel_0
Time_Shift_6
Note_On_86_Vel_81
Time_Shift_60
Note_On_84_Vel_87
Time_Shift_13
Note_On_86_Vel_0
Time_Shift_17
Note_On_48_Vel_76
Time_Shift_1
Note_On_36_Vel_65
Time_Shift_41
Note_On_84_Vel_0
Sustain_On
Time_Shift_233
Note_On_79_Vel_74
Time_Shift_33
Note_On_64_Vel_65
Time_Shift_6
Note_On_60_Vel_71
Sustain_Off
Time_Shift_2
Note_On_55_Vel_51
Time_Shift_3
Note_On_48_Vel_0
Time_Shift_4
Note_On_72_Vel_69
Note_On_36_Vel_0
Time_Shift_1
Note_On_79_Vel_0
Time_Shift_11
Note_On_78_Vel_79
Time_Shift_3
Note_On_64_Vel_0
Time_Shift_2
Note_On_60_Vel_0
Time_Shift_17
Note_On_55_Vel_0
Note_On_72_Vel_0
Time_Shift_83
Note_On_78_Vel_0
Time_Shift_27
Note_On_79_Vel_83
Time_Shift_63
Note_On_79_Vel_0
Time_Shift_78
Note_On_84_Vel_78
Time_Shift_48
Note_On_84_Vel_0
Time_Shift_85
Note_On_88_Vel_67
Time_Shift_27
Note_On_88_Vel_0
Time_Shift_65
Note_On_36_Vel_46
Time_Shift_31
Sustain_On
Time_Shift_3
Note_On_48_Vel_42
Time_Shift_52
Note_On_91_Vel_74
Time_Shift_73
Note_On_93_Vel_77
Time_Shift_65
Note_On_95_Vel_83
Time_Shift_39
Note_On_93_Vel_0
Note_On_36_Vel_0
Time_Shift_5
Sustain_Off
Time_Shift_12
Note_On_64_Vel_66
Time_Shift_8
Note_On_96_Vel_83
Time_Shift_2
Note_On_55_Vel_44
Time_Shift_5
Note_On_95_Vel_0
Time_Shift_12
Note_On_91_Vel_0
Time_Shift_8
Note_On_48_Vel_0
Time_Shift_4
Note_On_64_Vel_0
Time_Shift_34
Note_On_55_Vel_0
Time_Shift_208
Note_On_96_Vel_0
Time_Shift_82
Note_On_88_Vel_70
Time_Shift_15
Note_On_64_Vel_47
Note_On_55_Vel_56
Time_Shift_3
Note_On_60_Vel_52
Time_Shift_23
Sustain_On
Time_Shift_4
Note_On_64_Vel_0
Time_Shift_243
Note_On_88_Vel_0
Sustain_Off
Time_Shift_6
Note_On_55_Vel_0
Time_Shift_7
Note_On_65_Vel_63
Time_Shift_1
Note_On_60_Vel_0
Time_Shift_10
Note_On_60_Vel_52
Note_On_57_Vel_65
Time_Shift_24
Note_On_65_Vel_0
Time_Shift_2
Note_On_60_Vel_0
Time_Shift_2
Note_On_57_Vel_0
Time_Shift_35
Note_On_91_Vel_70
Time_Shift_80
Note_On_93_Vel_73
Time_Shift_23
Note_On_91_Vel_0
Time_Shift_54
Note_On_91_Vel_69
Time_Shift_26
Note_On_64_Vel_60
Time_Shift_7
Note_On_60_Vel_55
Time_Shift_1
Note_On_55_Vel_53
Time_Shift_16
Note_On_91_Vel_0
Time_Shift_9
Note_On_64_Vel_0
Note_On_60_Vel_0
Time_Shift_5
Note_On_55_Vel_0
Time_Shift_5
Note_On_93_Vel_0
Time_Shift_273
Note_On_64_Vel_61
Note_On_55_Vel_55
Time_Shift_6
Note_On_60_Vel_57
Time_Shift_29
Sustain_On
Time_Shift_30
Note_On_92_Vel_86
Time_Shift_103
Note_On_83_Vel_71
Time_Shift_47
Note_On_83_Vel_0
Time_Shift_2
Note_On_92_Vel_0
Time_Shift_10
Note_On_64_Vel_0
Time_Shift_7
Note_On_55_Vel_0
Note_On_60_Vel_0
Time_Shift_4
Sustain_Off
Time_Shift_18
Note_On_43_Vel_64
Time_Shift_47
Note_On_93_Vel_102
Time_Shift_10
Note_On_43_Vel_0
Time_Shift_279
Note_On_62_Vel_60
Note_On_65_Vel_58
Note_On_55_Vel_56
Time_Shift_19
Sustain_On
Time_Shift_71
Note_On_91_Vel_91
Time_Shift_121
Note_On_62_Vel_0
Note_On_65_Vel_0
Time_Shift_7
Note_On_55_Vel_0
Note_On_62_Vel_65
Time_Shift_4
Note_On_65_Vel_64
Note_On_55_Vel_65
Note_On_89_Vel_84
Time_Shift_13
Note_On_91_Vel_0
Time_Shift_20
Sustain_Off
Time_Shift_17
Note_On_93_Vel_0
Time_Shift_8
Note_On_55_Vel_0
Note_On_62_Vel_0
Time_Shift_35
Note_On_86_Vel_79
Time_Shift_52
Note_On_84_Vel_74
Time_Shift_28
Note_On_89_Vel_0
Time_Shift_12
Note_On_84_Vel_0
Time_Shift_11
Note_On_86_Vel_0
Time_Shift_4
Note_On_86_Vel_78
Time_Shift_65
Note_On_65_Vel_0
Time_Shift_8
Note_On_86_Vel_0
Time_Shift_6
Note_On_86_Vel_91
Time_Shift_41
Note_On_84_Vel_86
Time_Shift_5
Note_On_36_Vel_71
Time_Shift_6
Note_On_48_Vel_63
Time_Shift_19
Sustain_On
Time_Shift_7
Note_On_86_Vel_0
Time_Shift_3
Note_On_84_Vel_0
Time_Shift_235
Note_On_83_Vel_80
Time_Shift_31
Note_On_36_Vel_0
Time_Shift_8
Note_On_83_Vel_0
Time_Shift_4
Sustain_Off
Time_Shift_1
Note_On_48_Vel_0
Note_On_84_Vel_86
Time_Shift_15
Note_On_64_Vel_69
Time_Shift_4
Note_On_60_Vel_69
Time_Shift_3
Note_On_55_Vel_55
Time_Shift_22
Note_On_84_Vel_0
Time_Shift_2
Note_On_64_Vel_0
Time_Shift_1
Note_On_60_Vel_0
Time_Shift_13
Note_On_55_Vel_0
Time_Shift_61
Note_On_86_Vel_82
Time_Shift_32
Note_On_86_Vel_0
Time_Shift_97
Note_On_88_Vel_87
Time_Shift_17
Note_On_55_Vel_55
Time_Shift_1
Note_On_64_Vel_47
Time_Shift_4
Note_On_60_Vel_55
Time_Shift_18
Note_On_88_Vel_0
Time_Shift_9
Note_On_55_Vel_0
Time_Shift_1
Note_On_64_Vel_0
Time_Shift_5
Note_On_60_Vel_0
Time_Shift_59
Note_On_89_Vel_86
Time_Shift_37
Note_On_89_Vel_0
Time_Shift_103
Note_On_36_Vel_69
Time_Shift_13
Sustain_On
Time_Shift_19
Note_On_48_Vel_52
Time_Shift_32
Note_On_91_Vel_86
Time_Shift_75
Note_On_93_Vel_84
Time_Shift_52
Note_On_95_Vel_94
Time_Shift_50
Note_On_96_Vel_98
Time_Shift_13
Note_On_64_Vel_79
Time_Shift_9
Note_On_60_Vel_59
Time_Shift_1
Note_On_55_Vel_66
Note_On_36_Vel_0
Time_Shift_1
Note_On_95_Vel_0
Time_Shift_5
Note_On_93_Vel_0
Sustain_Off
Time_Shift_4
Note_On_48_Vel_0
Time_Shift_6
Note_On_96_Vel_0
Time_Shift_13
Note_On_64_Vel_0
Time_Shift_4
Note_On_91_Vel_0
Time_Shift_4
Note_On_60_Vel_0
Time_Shift_11
Note_On_55_Vel_0
Time_Shift_281
Note_On_88_Vel_82
Time_Shift_9
Note_On_64_Vel_66
Time_Shift_5
Note_On_60_Vel_69
Time_Shift_1
Note_On_55_Vel_59
Time_Shift_25
Note_On_88_Vel_0
Time_Shift_3
Note_On_60_Vel_0
Time_Shift_3
Note_On_64_Vel_0
Note_On_55_Vel_0
Time_Shift_257
Sustain_On
Time_Shift_3
Note_On_65_Vel_68
Time_Shift_1
Note_On_89_Vel_79
Time_Shift_8
Note_On_57_Vel_62
Time_Shift_2
Note_On_60_Vel_52
Time_Shift_56
Note_On_91_Vel_77
Time_Shift_63
Note_On_93_Vel_88
Time_Shift_48
Note_On_65_Vel_0
Time_Shift_1
Note_On_57_Vel_0
Note_On_89_Vel_0
Time_Shift_4
Sustain_Off
Note_On_93_Vel_0
Time_Shift_6
Note_On_91_Vel_0
Time_Shift_5
Note_On_91_Vel_90
Time_Shift_27
Note_On_64_Vel_71
Time_Shift_14
Note_On_60_Vel_0
Time_Shift_1
Note_On_55_Vel_55
Time_Shift_4
Note_On_60_Vel_50
Time_Shift_14
Note_On_64_Vel_0
Time_Shift_35
Sustain_On
Time_Shift_184
Note_On_64_Vel_73
Time_Shift_8
Note_On_55_Vel_0
Sustain_Off
Time_Shift_8
Note_On_60_Vel_0
Time_Shift_3
Note_On_55_Vel_55
Time_Shift_5
Note_On_60_Vel_53
Time_Shift_65
Note_On_92_Vel_100
Time_Shift_3
Sustain_On
Time_Shift_131
Note_On_83_Vel_75
Time_Shift_52
Note_On_92_Vel_0
Time_Shift_2
Note_On_91_Vel_0
Note_On_83_Vel_0
Time_Shift_5
Sustain_Off
Time_Shift_2
Note_On_64_Vel_0
Time_Shift_6
Note_On_43_Vel_70
Time_Shift_2
Note_On_55_Vel_0
Note_On_60_Vel_0
Time_Shift_50
Note_On_93_Vel_104
Time_Shift_7
Note_On_43_Vel_0
Time_Shift_51
Sustain_On
Time_Shift_234
Note_On_62_Vel_66
Time_Shift_1
Note_On_65_Vel_64
Time_Shift_9
Note_On_55_Vel_42
Time_Shift_4
Note_On_59_Vel_43
Time_Shift_87
Note_On_91_Vel_97
Time_Shift_156
Note_On_65_Vel_0
Time_Shift_8
Note_On_62_Vel_0
Time_Shift_1
Note_On_65_Vel_76
Time_Shift_4
Note_On_62_Vel_46
Time_Shift_6
Sustain_Off
Time_Shift_4
Note_On_59_Vel_0
Time_Shift_5
Note_On_59_Vel_70
Time_Shift_4
Note_On_89_Vel_96
Time_Shift_1
Note_On_91_Vel_0
Time_Shift_9
Note_On_55_Vel_0
Time_Shift_14
Note_On_77_Vel_59
Time_Shift_52
Sustain_On
Time_Shift_61
Note_On_93_Vel_0
Time_Shift_11
Note_On_86_Vel_103
Time_Shift_74
Note_On_62_Vel_0
Time_Shift_7
Note_On_77_Vel_0
Time_Shift_12
Note_On_86_Vel_0
Time_Shift_11
Note_On_65_Vel_0
Time_Shift_54
Note_On_59_Vel_0
Time_Shift_8
Note_On_89_Vel_0
Time_Shift_17
Sustain_Off
Note_On_48_Vel_79
Note_On_88_Vel_93
Time_Shift_16
Note_On_86_Vel_99
Time_Shift_29
Note_On_88_Vel_0
Time_Shift_2
Note_On_48_Vel_0
Time_Shift_112
Sustain_On
Time_Shift_190
Note_On_84_Vel_81
Time_Shift_41
Note_On_86_Vel_0
Time_Shift_11
Sustain_Off
Time_Shift_20
Note_On_84_Vel_0
Time_Shift_6
Note_On_84_Vel_92
Time_Shift_23
Note_On_64_Vel_62
Time_Shift_3
Note_On_60_Vel_63
Time_Shift_3
Note_On_55_Vel_59
Time_Shift_7
Note_On_84_Vel_0
Time_Shift_65
Sustain_On
Time_Shift_356
Sustain_Off
Time_Shift_1
Note_On_60_Vel_0
Note_On_55_Vel_0
Time_Shift_4
Note_On_64_Vel_0
Time_Shift_211
Note_On_62_Vel_79
Time_Shift_33
Note_On_62_Vel_0
Time_Shift_198
Note_On_43_Vel_83
Time_Shift_1
Note_On_62_Vel_79
Time_Shift_49
Sustain_On
Time_Shift_186
Note_On_64_Vel_75
Time_Shift_29
Note_On_62_Vel_0
Time_Shift_6
Note_On_66_Vel_80
Time_Shift_2
Note_On_62_Vel_72
Time_Shift_12
Note_On_59_Vel_78
Time_Shift_8
Note_On_50_Vel_69
Time_Shift_8
Note_On_43_Vel_0
Time_Shift_1
Note_On_64_Vel_0
Sustain_Off
Time_Shift_5
Note_On_62_Vel_0
Time_Shift_3
Note_On_66_Vel_0
Time_Shift_20
Note_On_50_Vel_0
Time_Shift_55
Note_On_67_Vel_73
Time_Shift_49
Sustain_On
Time_Shift_65
Note_On_67_Vel_0
Time_Shift_9
Sustain_Off
Time_Shift_10
Note_On_59_Vel_0
Time_Shift_5
Note_On_62_Vel_74
Time_Shift_2
Note_On_59_Vel_72
Time_Shift_4
Note_On_55_Vel_67
Time_Shift_3
Note_On_50_Vel_65
Time_Shift_2
Note_On_69_Vel_75
Time_Shift_19
Note_On_59_Vel_0
Time_Shift_26
Note_On_55_Vel_0
Time_Shift_8
Note_On_50_Vel_0
Note_On_62_Vel_0
Time_Shift_15
Note_On_69_Vel_0
Time_Shift_41
Note_On_71_Vel_77
Time_Shift_44
Note_On_71_Vel_0
Time_Shift_101
Note_On_72_Vel_98
Time_Shift_8
Note_On_62_Vel_75
Time_Shift_2
Note_On_60_Vel_72
Time_Shift_1
Note_On_54_Vel_66
Time_Shift_5
Note_On_50_Vel_69
Time_Shift_21
Sustain_On
Time_Shift_62
Note_On_72_Vel_0
Time_Shift_4
Note_On_72_Vel_79
Time_Shift_42
Note_On_62_Vel_0
Time_Shift_10
Note_On_62_Vel_50
Note_On_74_Vel_65
Time_Shift_28
Note_On_72_Vel_0
Time_Shift_10
Note_On_72_Vel_82
Time_Shift_52
Note_On_62_Vel_0
Note_On_71_Vel_90
Time_Shift_10
Note_On_62_Vel_86
Time_Shift_5
Note_On_50_Vel_0
Time_Shift_5
Note_On_55_Vel_65
Note_On_59_Vel_78
Time_Shift_1
Sustain_Off
Time_Shift_1
Note_On_50_Vel_76
Time_Shift_8
Note_On_74_Vel_0
Time_Shift_4
Note_On_54_Vel_0
Note_On_60_Vel_0
Time_Shift_5
Note_On_71_Vel_0
Time_Shift_7
Note_On_72_Vel_0
Time_Shift_10
Note_On_59_Vel_0
Time_Shift_5
Note_On_62_Vel_0
Time_Shift_8
Note_On_50_Vel_0
Time_Shift_38
Note_On_55_Vel_0
Time_Shift_143
Note_On_67_Vel_77
Time_Shift_40
Note_On_62_Vel_76
Time_Shift_7
Note_On_59_Vel_75
Time_Shift_3
Note_On_71_Vel_86
Time_Shift_2
Note_On_55_Vel_63
Time_Shift_1
Note_On_50_Vel_74
Time_Shift_35
Note_On_59_Vel_0
Time_Shift_2
Note_On_55_Vel_0
Note_On_50_Vel_0
Time_Shift_13
Note_On_62_Vel_0
Time_Shift_54
Note_On_71_Vel_0
Time_Shift_10
Note_On_72_Vel_89
Time_Shift_59
Note_On_67_Vel_0
Time_Shift_12
Note_On_72_Vel_0
Time_Shift_75
Note_On_76_Vel_88
Time_Shift_1
Note_On_38_Vel_76
Note_On_50_Vel_67
Time_Shift_42
Sustain_On
Time_Shift_23
Note_On_38_Vel_0
Time_Shift_174
Sustain_Off
Time_Shift_7
Note_On_76_Vel_0
Time_Shift_4
Note_On_50_Vel_0
Time_Shift_29
Note_On_74_Vel_81
Time_Shift_5
Note_On_69_Vel_59
Note_On_72_Vel_70
Note_On_62_Vel_72
Time_Shift_3
Note_On_54_Vel_73
Note_On_60_Vel_68
Time_Shift_47
Sustain_On
Time_Shift_161
Note_On_69_Vel_0
Time_Shift_5
Note_On_69_Vel_76
Time_Shift_18
Note_On_54_Vel_0
Note_On_72_Vel_0
Time_Shift_2
Sustain_Off
Time_Shift_6
Note_On_74_Vel_0
Time_Shift_8
Note_On_60_Vel_0
Time_Shift_7
Note_On_62_Vel_0
Time_Shift_12
Note_On_72_Vel_89
Note_On_62_Vel_60
Time_Shift_2
Note_On_60_Vel_64
Time_Shift_3
Note_On_69_Vel_0
Time_Shift_2
Note_On_57_Vel_69
Time_Shift_24
Note_On_60_Vel_0
Time_Shift_4
Note_On_62_Vel_0
Note_On_72_Vel_0
Time_Shift_30
Note_On_57_Vel_0
Time_Shift_57
Note_On_66_Vel_78
Time_Shift_35
Note_On_66_Vel_0
Time_Shift_108
Note_On_43_Vel_73
Time_Shift_2
Note_On_31_Vel_62
Time_Shift_6
Note_On_31_Vel_0
Time_Shift_2
Note_On_67_Vel_66
Time_Shift_1
Note_On_55_Vel_66
Time_Shift_27
Sustain_On
Time_Shift_217
Note_On_71_Vel_77
Time_Shift_21
Note_On_43_Vel_0
Time_Shift_13
Sustain_Off
Time_Shift_1
Note_On_67_Vel_0
Time_Shift_3
Note_On_73_Vel_85
Time_Shift_7
Note_On_64_Vel_84
Time_Shift_2
Note_On_71_Vel_0
Time_Shift_2
Note_On_61_Vel_80
Time_Shift_3
Note_On_55_Vel_0
Time_Shift_5
Note_On_55_Vel_55
Time_Shift_1
Note_On_58_Vel_65
Time_Shift_94
Sustain_On
Time_Shift_158
Note_On_76_Vel_78
Time_Shift_13
Note_On_73_Vel_0
Time_Shift_3
Sustain_Off
Time_Shift_3
Note_On_58_Vel_0
Note_On_61_Vel_0
Note_On_64_Vel_0
Time_Shift_23
Note_On_55_Vel_0
Note_On_74_Vel_90
Time_Shift_1
Note_On_62_Vel_81
Time_Shift_6
Note_On_55_Vel_65
Time_Shift_2
Note_On_76_Vel_0
Time_Shift_1
Note_On_59_Vel_80
Time_Shift_36
Sustain_On
Time_Shift_84
Note_On_55_Vel_0
Time_Shift_182
Note_On_43_Vel_85
Time_Shift_3
Note_On_62_Vel_0
Time_Shift_3
Note_On_55_Vel_71
Note_On_67_Vel_56
Time_Shift_1
Note_On_62_Vel_69
Time_Shift_14
Sustain_Off
Time_Shift_10
Note_On_55_Vel_0
Time_Shift_2
Note_On_59_Vel_0
Note_On_74_Vel_0
Time_Shift_2
Note_On_43_Vel_0
Time_Shift_21
Note_On_67_Vel_0
Time_Shift_23
Note_On_62_Vel_0
Time_Shift_141
Note_On_64_Vel_80
Time_Shift_15
Note_On_76_Vel_66
Time_Shift_6
Note_On_76_Vel_0
Time_Shift_4
Note_On_66_Vel_82
Time_Shift_14
Note_On_62_Vel_67
Time_Shift_5
Note_On_55_Vel_58
Note_On_50_Vel_70
Time_Shift_3
Note_On_59_Vel_68
Note_On_64_Vel_0
Time_Shift_4
Note_On_55_Vel_0
Time_Shift_5
Note_On_66_Vel_0
Time_Shift_26
Note_On_62_Vel_0
Time_Shift_15
Note_On_50_Vel_0
Note_On_59_Vel_0
Time_Shift_57
Note_On_67_Vel_71
Note_On_79_Vel_65
Time_Shift_5
Note_On_79_Vel_0
Time_Shift_27
Note_On_67_Vel_0
Time_Shift_100
Note_On_59_Vel_75
Note_On_62_Vel_72
Time_Shift_3
Note_On_81_Vel_77
Time_Shift_1
Note_On_55_Vel_67
Time_Shift_2
Note_On_69_Vel_81
Time_Shift_3
Note_On_50_Vel_67
Time_Shift_28
Note_On_62_Vel_0
Note_On_59_Vel_0
Time_Shift_2
Note_On_69_Vel_0
Time_Shift_2
Note_On_55_Vel_0
Time_Shift_3
Note_On_50_Vel_0
Time_Shift_6
Note_On_81_Vel_0
Time_Shift_63
Note_On_71_Vel_80
Note_On_83_Vel_70
Time_Shift_6
Note_On_83_Vel_0
Time_Shift_20
Note_On_71_Vel_0
Time_Shift_135
Note_On_72_Vel_95
Time_Shift_3
Note_On_62_Vel_71
Time_Shift_2
Note_On_60_Vel_70
Time_Shift_3
Note_On_54_Vel_59
Time_Shift_1
Note_On_50_Vel_66
Time_Shift_5
Sustain_On
Time_Shift_2
Note_On_74_Vel_73
Time_Shift_82
Note_On_72_Vel_0
Time_Shift_11
Note_On_72_Vel_78
Time_Shift_81
Note_On_72_Vel_0
Time_Shift_1
Note_On_84_Vel_70
Time_Shift_3
Note_On_72_Vel_76
Time_Shift_4
Note_On_84_Vel_0
Time_Shift_46
Note_On_62_Vel_0
Time_Shift_3
Note_On_83_Vel_88
Time_Shift_2
Note_On_71_Vel_89
Time_Shift_3
Note_On_50_Vel_0
Note_On_83_Vel_0
Time_Shift_1
Note_On_62_Vel_84
Time_Shift_2
Note_On_59_Vel_86
Sustain_Off
Time_Shift_3
Note_On_50_Vel_78
Time_Shift_1
Note_On_55_Vel_73
Time_Shift_8
Note_On_74_Vel_0
Time_Shift_1
Note_On_72_Vel_0
Time_Shift_10
Note_On_54_Vel_0
Time_Shift_1
Note_On_62_Vel_0
Time_Shift_1
Note_On_60_Vel_0
Time_Shift_7
Note_On_50_Vel_0
Time_Shift_2
Note_On_71_Vel_0
Time_Shift_11
Note_On_59_Vel_0
Time_Shift_1
Note_On_55_Vel_0
Time_Shift_192
Note_On_79_Vel_70
Note_On_67_Vel_75
Time_Shift_20
Note_On_79_Vel_0
Time_Shift_22
Note_On_62_Vel_76
Time_Shift_4
Note_On_59_Vel_79
Note_On_71_Vel_81
Time_Shift_1
Note_On_55_Vel_66
Time_Shift_1
Note_On_50_Vel_73
Time_Shift_32
Note_On_62_Vel_0
Time_Shift_1
Note_On_55_Vel_0
Note_On_59_Vel_0
Time_Shift_11
Note_On_50_Vel_0
Time_Shift_5
Note_On_67_Vel_0
Time_Shift_18
Note_On_71_Vel_0
Time_Shift_51
Note_On_72_Vel_94
Time_Shift_64
Note_On_72_Vel_0
Time_Shift_86
Note_On_76_Vel_90
Time_Shift_2
Note_On_38_Vel_79
Time_Shift_4
Note_On_50_Vel_68
Time_Shift_28
Sustain_On
Time_Shift_224
Sustain_Off
Time_Shift_1
Note_On_76_Vel_0
Time_Shift_1
Note_On_50_Vel_0
Time_Shift_12
Note_On_38_Vel_0
Time_Shift_5
Note_On_62_Vel_78
Time_Shift_1
Note_On_57_Vel_60
Note_On_74_Vel_77
Time_Shift_2
Note_On_66_Vel_70
Time_Shift_2
Note_On_54_Vel_71
Time_Shift_1
Note_On_60_Vel_73
Time_Shift_43
Sustain_On
Time_Shift_46
Note_On_57_Vel_0
Time_Shift_124
Note_On_69_Vel_79
Time_Shift_52
Note_On_72_Vel_92
Time_Shift_1
Note_On_60_Vel_0
Time_Shift_4
Note_On_60_Vel_76
Time_Shift_3
Note_On_57_Vel_80
Time_Shift_22
Sustain_Off
Time_Shift_3
Note_On_54_Vel_0
Time_Shift_1
Note_On_62_Vel_0
Note_On_69_Vel_0
Time_Shift_2
Note_On_60_Vel_0
Time_Shift_3
Note_On_66_Vel_0
Note_On_74_Vel_0
Time_Shift_1
Note_On_72_Vel_0
Time_Shift_5
Note_On_57_Vel_0
Time_Shift_83
Note_On_66_Vel_84
Time_Shift_1
Note_On_78_Vel_74
Time_Shift_36
Note_On_66_Vel_0
Time_Shift_28
Note_On_78_Vel_0
Time_Shift_101
Note_On_43_Vel_73
Note_On_79_Vel_78
Note_On_55_Vel_76
Note_On_67_Vel_82
Time_Shift_45
Sustain_On
Time_Shift_39
Note_On_71_Vel_83
Time_Shift_81
Note_On_74_Vel_87
Time_Shift_72
Note_On_79_Vel_0
Time_Shift_5
Note_On_79_Vel_93
Time_Shift_2
Note_On_67_Vel_0
Note_On_71_Vel_0
Time_Shift_5
Note_On_67_Vel_79
Time_Shift_3
Note_On_55_Vel_0
Note_On_74_Vel_0
Time_Shift_3
Note_On_71_Vel_76
Time_Shift_1
Note_On_62_Vel_79
Note_On_55_Vel_76
Time_Shift_3
Note_On_59_Vel_81
Time_Shift_4
Note_On_74_Vel_68
Time_Shift_206
Note_On_43_Vel_0
Note_On_67_Vel_0
Note_On_62_Vel_0
Note_On_74_Vel_0
Time_Shift_1
Note_On_55_Vel_0
Note_On_79_Vel_0
Note_On_71_Vel_0
Note_On_59_Vel_0
Time_Shift_1
Sustain_Off
Time_Shift_325
Note_On_62_Vel_68
Time_Shift_43
Note_On_62_Vel_0
Time_Shift_170
Note_On_43_Vel_78
Time_Shift_5
Note_On_62_Vel_63
Note_On_31_Vel_61
Time_Shift_6
Note_On_31_Vel_0
Time_Shift_23
Sustain_On
Time_Shift_204
Note_On_64_Vel_68
Time_Shift_26
Note_On_62_Vel_0
Time_Shift_8
Note_On_66_Vel_83
Time_Shift_3
Note_On_62_Vel_75
Time_Shift_7
Note_On_59_Vel_76
Note_On_74_Vel_69
Time_Shift_3
Note_On_71_Vel_67
Time_Shift_1
Note_On_50_Vel_65
Time_Shift_1
Note_On_52_Vel_62
Note_On_74_Vel_0
Time_Shift_8
Note_On_52_Vel_0
Time_Shift_12
Sustain_Off
Time_Shift_6
Note_On_66_Vel_0
Time_Shift_1
Note_On_62_Vel_0
Note_On_64_Vel_0
Time_Shift_5
Note_On_59_Vel_0
Time_Shift_4
Note_On_50_Vel_0
Time_Shift_3
Note_On_43_Vel_0
Time_Shift_15
Note_On_71_Vel_0
Time_Shift_52
Note_On_67_Vel_70
Time_Shift_35
Note_On_67_Vel_0
Time_Shift_106
Note_On_62_Vel_76
Time_Shift_2
Note_On_69_Vel_76
Time_Shift_1
Note_On_55_Vel_64
Note_On_59_Vel_70
Time_Shift_2
Note_On_50_Vel_69
Time_Shift_27
Note_On_62_Vel_0
Time_Shift_1
Note_On_69_Vel_0
Time_Shift_1
Note_On_59_Vel_0
Time_Shift_1
Note_On_55_Vel_0
Time_Shift_2
Note_On_50_Vel_0
Time_Shift_78
Note_On_71_Vel_75
Time_Shift_26
Note_On_71_Vel_0
Time_Shift_121
Note_On_72_Vel_95
Time_Shift_1
Note_On_60_Vel_85
Time_Shift_1
Note_On_50_Vel_72
Time_Shift_1
Note_On_54_Vel_69
Time_Shift_3
Sustain_On
Time_Shift_1
Note_On_62_Vel_72
Time_Shift_9
Note_On_66_Vel_66
Time_Shift_74
Note_On_72_Vel_0
Time_Shift_12
Note_On_72_Vel_80
Time_Shift_81
Note_On_72_Vel_0
Time_Shift_10
Note_On_72_Vel_82
Time_Shift_49
Note_On_71_Vel_90
Time_Shift_2
Note_On_62_Vel_0
Time_Shift_5
Note_On_62_Vel_87
Time_Shift_3
Note_On_50_Vel_0
Time_Shift_3
Note_On_59_Vel_80
Time_Shift_1
Note_On_55_Vel_70
Time_Shift_1
Note_On_50_Vel_79
Time_Shift_30
Sustain_Off
Time_Shift_16
Note_On_54_Vel_0
Time_Shift_2
Note_On_60_Vel_0
Time_Shift_1
Note_On_62_Vel_0
Time_Shift_1
Note_On_71_Vel_0
Time_Shift_1
Note_On_50_Vel_0
Note_On_55_Vel_0
Time_Shift_1
Note_On_59_Vel_0
Time_Shift_4
Note_On_66_Vel_0
Time_Shift_8
Note_On_72_Vel_0
Time_Shift_141
Note_On_79_Vel_73
Time_Shift_1
Note_On_67_Vel_82
Time_Shift_4
Note_On_79_Vel_0
Time_Shift_41
Note_On_62_Vel_82
Time_Shift_1
Note_On_59_Vel_87
Note_On_55_Vel_72
Time_Shift_1
Note_On_50_Vel_80
Time_Shift_4
Note_On_71_Vel_87
Time_Shift_22
Note_On_67_Vel_0
Sustain_On
Time_Shift_4
Note_On_67_Vel_65
Time_Shift_85
Note_On_72_Vel_105
Time_Shift_25
Note_On_67_Vel_0
Sustain_Off
Time_Shift_1
Note_On_71_Vel_0
Time_Shift_1
Note_On_55_Vel_0
Note_On_62_Vel_0
Note_On_50_Vel_0
Time_Shift_1
Note_On_59_Vel_0
Time_Shift_30
Note_On_72_Vel_0
Time_Shift_80
Note_On_76_Vel_100
Time_Shift_5
Note_On_38_Vel_88
Time_Shift_37
Sustain_On
Time_Shift_214
Sustain_Off
Time_Shift_6
Note_On_38_Vel_0
Note_On_76_Vel_0
Time_Shift_8
Note_On_74_Vel_89
Time_Shift_7
Note_On_69_Vel_62
Note_On_62_Vel_70
Time_Shift_1
Note_On_54_Vel_77
Time_Shift_2
Note_On_60_Vel_77
Time_Shift_61
Sustain_On
Time_Shift_146
Note_On_69_Vel_0
Time_Shift_2
Note_On_81_Vel_75
Time_Shift_2
Note_On_69_Vel_80
Time_Shift_4
Note_On_60_Vel_0
Time_Shift_31
Note_On_72_Vel_96
Time_Shift_7
Note_On_62_Vel_0
Time_Shift_5
Note_On_62_Vel_72
Time_Shift_6
Note_On_60_Vel_74
Time_Shift_2
Note_On_57_Vel_76
Time_Shift_4
Note_On_74_Vel_0
Sustain_Off
Time_Shift_8
Note_On_81_Vel_0
Time_Shift_7
Note_On_54_Vel_0
Time_Shift_2
Note_On_72_Vel_0
Time_Shift_1
Note_On_69_Vel_0
Time_Shift_3
Note_On_62_Vel_0
Time_Shift_3
Note_On_60_Vel_0
Time_Shift_4
Note_On_57_Vel_0
Time_Shift_68
Note_On_66_Vel_85
Time_Shift_41
Note_On_66_Vel_0
Time_Shift_104
Note_On_55_Vel_79
Time_Shift_1
Note_On_79_Vel_81
Time_Shift_1
Note_On_67_Vel_88
Time_Shift_1
Note_On_43_Vel_78
Time_Shift_46
Sustain_On
Time_Shift_73
Note_On_55_Vel_0
Time_Shift_1
Note_On_67_Vel_0
Time_Shift_3
Note_On_79_Vel_0
Time_Shift_5
Sustain_Off
Time_Shift_3
Note_On_43_Vel_0
Time_Shift_104
Note_On_71_Vel_76
Time_Shift_47
Note_On_73_Vel_89
Time_Shift_4
Note_On_64_Vel_88
Time_Shift_9
Note_On_70_Vel_72
Note_On_61_Vel_81
Time_Shift_1
Note_On_55_Vel_62
Note_On_58_Vel_74
Time_Shift_19
Sustain_On
Time_Shift_8
Note_On_71_Vel_0
Time_Shift_232
Note_On_76_Vel_84
Time_Shift_23
Sustain_Off
Time_Shift_1
Note_On_73_Vel_0
Time_Shift_1
Note_On_61_Vel_0
Time_Shift_1
Note_On_58_Vel_0
Time_Shift_1
Note_On_70_Vel_0
Time_Shift_15
Note_On_74_Vel_89
Time_Shift_2
Note_On_55_Vel_0
Note_On_64_Vel_0
Time_Shift_4
Note_On_62_Vel_86
Time_Shift_1
Note_On_59_Vel_84
Time_Shift_4
Note_On_67_Vel_68
Note_On_64_Vel_72
Time_Shift_1
Note_On_55_Vel_73
Time_Shift_2
Note_On_71_Vel_72
Time_Shift_1
Note_On_76_Vel_0
Time_Shift_30
Note_On_74_Vel_0
Time_Shift_19
Sustain_On
Time_Shift_15
Note_On_64_Vel_0
Time_Shift_23
Note_On_55_Vel_0
Time_Shift_177
Note_On_62_Vel_0
Time_Shift_27
Sustain_Off
Time_Shift_1
Note_On_59_Vel_0
Time_Shift_7
Note_On_43_Vel_88
Time_Shift_4
Note_On_62_Vel_86
Time_Shift_7
Note_On_67_Vel_0
Time_Shift_23
Note_On_71_Vel_0
Time_Shift_10
Note_On_43_Vel_0
Time_Shift_189
Note_On_64_Vel_85
Time_Shift_31
Note_On_62_Vel_0
Time_Shift_10
Note_On_59_Vel_87
Note_On_66_Vel_87
Time_Shift_1
Note_On_62_Vel_76
Time_Shift_3
Note_On_38_Vel_77
Note_On_50_Vel_81
Time_Shift_4
Note_On_71_Vel_72
Time_Shift_29
Note_On_62_Vel_0
Time_Shift_1
Note_On_64_Vel_0
Time_Shift_1
Note_On_66_Vel_0
Time_Shift_1
Note_On_59_Vel_0
Note_On_50_Vel_0
Time_Shift_4
Note_On_38_Vel_0
Time_Shift_31
Note_On_71_Vel_0
Time_Shift_56
Note_On_67_Vel_78
Time_Shift_42
Note_On_67_Vel_0
Time_Shift_76
Note_On_62_Vel_86
Note_On_59_Vel_84
Time_Shift_1
Note_On_55_Vel_73
Time_Shift_4
Note_On_50_Vel_79
Time_Shift_7
Note_On_71_Vel_79
Time_Shift_1
Note_On_69_Vel_84
Time_Shift_33
Note_On_59_Vel_0
Time_Shift_5
Note_On_62_Vel_0
Time_Shift_1
Note_On_50_Vel_0
Time_Shift_9
Note_On_69_Vel_0
Time_Shift_3
Note_On_55_Vel_0
Time_Shift_46
Note_On_71_Vel_0
Time_Shift_10
Note_On_71_Vel_86
Time_Shift_30
Note_On_71_Vel_0
Time_Shift_131
Note_On_72_Vel_99
Time_Shift_2
Note_On_62_Vel_84
Note_On_60_Vel_80
Time_Shift_4
Sustain_On
Time_Shift_1
Note_On_50_Vel_75
Note_On_54_Vel_68
Time_Shift_11
Note_On_74_Vel_75
Time_Shift_72
Note_On_72_Vel_0
Time_Shift_8
Note_On_72_Vel_86
Time_Shift_92
Note_On_72_Vel_0
Time_Shift_5
Note_On_72_Vel_90
Time_Shift_45
Note_On_71_Vel_96
Time_Shift_11
Note_On_62_Vel_0
Time_Shift_12
Note_On_62_Vel_100
Time_Shift_4
Note_On_50_Vel_0
Time_Shift_2
Note_On_59_Vel_92
Time_Shift_3
Note_On_55_Vel_80
Time_Shift_5
Note_On_50_Vel_91
Time_Shift_41
Sustain_Off
Time_Shift_6
Note_On_60_Vel_0
Note_On_72_Vel_0
Note_On_74_Vel_0
Note_On_62_Vel_0
Note_On_71_Vel_0
Time_Shift_1
Note_On_54_Vel_0
Note_On_50_Vel_0
Time_Shift_3
Note_On_59_Vel_0
Time_Shift_8
Note_On_55_Vel_0
Time_Shift_189
Note_On_67_Vel_84
Time_Shift_1
Note_On_79_Vel_74
Time_Shift_10
Note_On_79_Vel_0
Time_Shift_42
Note_On_62_Vel_90
Time_Shift_2
Note_On_55_Vel_78
Time_Shift_1
Note_On_50_Vel_83
Time_Shift_2
Note_On_71_Vel_96
Time_Shift_1
Note_On_59_Vel_90
Time_Shift_21
Sustain_On
Time_Shift_105
Note_On_72_Vel_105
Time_Shift_103
Sustain_Off
Time_Shift_1
Note_On_67_Vel_0
Time_Shift_1
Note_On_71_Vel_0
Note_On_62_Vel_0
Note_On_50_Vel_0
Note_On_55_Vel_0
Note_On_59_Vel_0
Time_Shift_1
Note_On_72_Vel_0
Time_Shift_34
Note_On_76_Vel_105
Time_Shift_9
Note_On_50_Vel_82
Time_Shift_2
Note_On_38_Vel_93
Time_Shift_35
Sustain_On
Time_Shift_254
Note_On_38_Vel_0
Time_Shift_4
Note_On_74_Vel_96
Time_Shift_1
Sustain_Off
Time_Shift_3
Note_On_76_Vel_0
Time_Shift_2
Note_On_62_Vel_92
Time_Shift_1
Note_On_54_Vel_88
Time_Shift_1
Note_On_60_Vel_86
Note_On_69_Vel_71
Time_Shift_65
Sustain_On
Time_Shift_153
Note_On_50_Vel_0
Note_On_69_Vel_0
Time_Shift_5
Note_On_81_Vel_79
Note_On_69_Vel_86
Time_Shift_64
Note_On_62_Vel_0
Note_On_69_Vel_0
Time_Shift_4
Note_On_72_Vel_104
Time_Shift_4
Note_On_60_Vel_0
Time_Shift_1
Note_On_69_Vel_90
Time_Shift_3
Note_On_62_Vel_84
Time_Shift_3
Note_On_60_Vel_87
Time_Shift_4
Note_On_57_Vel_86
Time_Shift_9
Sustain_Off
Time_Shift_1
Note_On_74_Vel_0
Time_Shift_5
Note_On_81_Vel_0
Time_Shift_1
Note_On_54_Vel_0
Time_Shift_34
Note_On_72_Vel_0
Time_Shift_8
Note_On_60_Vel_0
Note_On_69_Vel_0
Time_Shift_16
Note_On_57_Vel_0
Note_On_62_Vel_0
Time_Shift_66
Note_On_66_Vel_97
Time_Shift_1
Note_On_78_Vel_87
Time_Shift_35
Note_On_66_Vel_0
Time_Shift_156
Note_On_43_Vel_102
Time_Shift_4
Note_On_31_Vel_86
Time_Shift_2
Note_On_79_Vel_96
Time_Shift_1
Note_On_67_Vel_91
Time_Shift_3
Note_On_31_Vel_0
Time_Shift_16
Sustain_On
Time_Shift_87
Note_On_71_Vel_95
Time_Shift_99
Note_On_74_Vel_94
Time_Shift_1
Note_On_86_Vel_90
Time_Shift_5
Note_On_86_Vel_0
Time_Shift_100
Note_On_78_Vel_0
Time_Shift_7
Note_On_79_Vel_0
Time_Shift_8
Note_On_67_Vel_0
Note_On_71_Vel_0
Note_On_74_Vel_0
Time_Shift_2
Note_On_79_Vel_106
Time_Shift_2
Note_On_67_Vel_100
Time_Shift_1
Note_On_62_Vel_101
Note_On_71_Vel_96
Time_Shift_2
Note_On_55_Vel_91
Time_Shift_2
Note_On_74_Vel_88
Time_Shift_1
Note_On_59_Vel_100
Time_Shift_3
Sustain_Off
Time_Shift_19
Note_On_43_Vel_0
Time_Shift_45
Sustain_On
Time_Shift_619
Note_On_62_Vel_0
Time_Shift_1
Note_On_55_Vel_0
Note_On_59_Vel_0
Time_Shift_1
Sustain_Off
Time_Shift_1
Note_On_74_Vel_0
Note_On_79_Vel_0
Time_Shift_8
Note_On_67_Vel_0
Note_On_71_Vel_0
Time_Shift_3433
Note_On_65_Vel_45
Time_Shift_140
Note_On_70_Vel_57
Time_Shift_3
Note_On_65_Vel_0
Time_Shift_123
Note_On_72_Vel_67
Time_Shift_19
Note_On_70_Vel_0
Time_Shift_27
Note_On_72_Vel_0
Time_Shift_82
Note_On_74_Vel_77
Time_Shift_8
Note_On_46_Vel_68
Time_Shift_2
Note_On_58_Vel_59
Time_Shift_33
Sustain_On
Time_Shift_185
Note_On_74_Vel_0
Time_Shift_7
Note_On_74_Vel_75
Time_Shift_19
Sustain_Off
Time_Shift_14
Note_On_46_Vel_0
Time_Shift_2
Note_On_62_Vel_65
Time_Shift_5
Note_On_70_Vel_80
Time_Shift_6
Note_On_58_Vel_0
Note_On_74_Vel_0
Time_Shift_6
Note_On_58_Vel_58
Time_Shift_1
Note_On_53_Vel_59
Time_Shift_62
Sustain_On
Time_Shift_183
Sustain_Off
Time_Shift_9
Note_On_58_Vel_0
Note_On_62_Vel_0
Time_Shift_8
Note_On_53_Vel_0
Time_Shift_2
Note_On_73_Vel_87
Time_Shift_6
Note_On_70_Vel_0
Time_Shift_10
Note_On_70_Vel_69
Time_Shift_2
Note_On_61_Vel_65
Time_Shift_3
Note_On_58_Vel_64
Time_Shift_8
Note_On_53_Vel_59
Time_Shift_23
Sustain_On
Time_Shift_211
Note_On_74_Vel_95
Time_Shift_10
Sustain_Off
Time_Shift_1
Note_On_62_Vel_61
Time_Shift_8
Note_On_58_Vel_0
Time_Shift_1
Note_On_73_Vel_0
Time_Shift_3
Note_On_61_Vel_0
Time_Shift_2
Note_On_58_Vel_65
Time_Shift_2
Note_On_53_Vel_0
Time_Shift_2
Note_On_75_Vel_83
Time_Shift_2
Note_On_53_Vel_54
Time_Shift_27
Sustain_On
Time_Shift_7
Note_On_70_Vel_0
Time_Shift_31
Note_On_74_Vel_0
Time_Shift_10
Note_On_74_Vel_79
Time_Shift_44
Note_On_75_Vel_0
Time_Shift_4
Note_On_75_Vel_73
Time_Shift_65
Note_On_74_Vel_0
Time_Shift_5
Note_On_74_Vel_82
Time_Shift_31
Sustain_Off
Time_Shift_6
Note_On_62_Vel_0
Time_Shift_2
Note_On_74_Vel_0
Note_On_75_Vel_0
Time_Shift_4
Note_On_72_Vel_83
Time_Shift_13
Note_On_58_Vel_0
Time_Shift_6
Note_On_64_Vel_59
Time_Shift_2
Note_On_53_Vel_0
Time_Shift_3
Note_On_58_Vel_62
Time_Shift_2
Note_On_53_Vel_56
Time_Shift_23
Note_On_72_Vel_0
Time_Shift_26
Note_On_53_Vel_0
Time_Shift_8
Note_On_64_Vel_0
Sustain_On
Time_Shift_164
Note_On_76_Vel_77
Time_Shift_27
Sustain_Off
Time_Shift_13
Note_On_79_Vel_84
Time_Shift_8
Note_On_64_Vel_58
Time_Shift_10
Note_On_58_Vel_0
Time_Shift_4
Note_On_58_Vel_50
Time_Shift_9
Note_On_53_Vel_60
Time_Shift_10
Note_On_76_Vel_0
Time_Shift_23
Sustain_On
Time_Shift_196
Note_On_64_Vel_0
Time_Shift_4
Note_On_58_Vel_0
Time_Shift_2
Sustain_Off
Time_Shift_1
Note_On_79_Vel_0
Time_Shift_9
Note_On_77_Vel_88
Note_On_65_Vel_64
Time_Shift_19
Note_On_53_Vel_0
Time_Shift_4
Note_On_57_Vel_60
Time_Shift_1
Note_On_53_Vel_48
Note_On_63_Vel_45
Time_Shift_10
Note_On_63_Vel_0
Time_Shift_23
Note_On_65_Vel_0
Note_On_77_Vel_0
Time_Shift_8
Sustain_On
Time_Shift_187
Note_On_77_Vel_94
Time_Shift_32
Sustain_Off
Time_Shift_10
Note_On_72_Vel_91
Time_Shift_13
Note_On_63_Vel_55
Time_Shift_4
Note_On_57_Vel_0
Time_Shift_7
Note_On_57_Vel_53
Note_On_53_Vel_0
Time_Shift_5
Note_On_53_Vel_56
Time_Shift_34
Sustain_On
Time_Shift_217
Sustain_Off
Time_Shift_13
Note_On_63_Vel_0
Time_Shift_8
Note_On_53_Vel_0
Note_On_57_Vel_0
Time_Shift_1
Note_On_63_Vel_67
Time_Shift_6
Note_On_57_Vel_58
Time_Shift_3
Note_On_53_Vel_63
Time_Shift_20
Sustain_On
Time_Shift_55
Note_On_75_Vel_96
Time_Shift_144
Sustain_Off
Time_Shift_1
Note_On_72_Vel_0
Note_On_63_Vel_0
Time_Shift_1
Note_On_57_Vel_0
Note_On_75_Vel_0
Time_Shift_1
Note_On_53_Vel_0
Time_Shift_6
Note_On_77_Vel_0
Time_Shift_19
Note_On_74_Vel_99
Note_On_46_Vel_84
Time_Shift_41
Note_On_46_Vel_0
Time_Shift_1
Sustain_On
Time_Shift_85
Note_On_74_Vel_0
Time_Shift_4
Note_On_74_Vel_66
Time_Shift_30
Note_On_75_Vel_63
Time_Shift_50
Note_On_74_Vel_0
Time_Shift_7
Note_On_74_Vel_76
Time_Shift_3
Sustain_Off
Time_Shift_36
Sustain_On
Time_Shift_18
Note_On_72_Vel_84
Time_Shift_2
Note_On_63_Vel_66
Time_Shift_7
Note_On_57_Vel_67
Time_Shift_13
Note_On_53_Vel_64
Time_Shift_109
Note_On_74_Vel_0
Note_On_72_Vel_0
Time_Shift_1
Note_On_53_Vel_0
Note_On_63_Vel_0
Time_Shift_1
Note_On_57_Vel_0
Time_Shift_2
Sustain_Off
Time_Shift_9
Note_On_75_Vel_0
Time_Shift_120
Note_On_69_Vel_64
Time_Shift_58
Note_On_65_Vel_68
Time_Shift_2
Note_On_63_Vel_51
Time_Shift_1
Note_On_53_Vel_56
Note_On_57_Vel_63
Time_Shift_18
Sustain_On
Time_Shift_248
Sustain_Off
Time_Shift_2
Note_On_57_Vel_0
Note_On_63_Vel_0
Note_On_53_Vel_0
Note_On_69_Vel_0
Time_Shift_1
Note_On_65_Vel_0
Time_Shift_38
Note_On_74_Vel_70
Time_Shift_1
Note_On_46_Vel_76
Time_Shift_30
Note_On_46_Vel_0
Time_Shift_18
Sustain_On
Time_Shift_200
Note_On_74_Vel_0
Time_Shift_6
Note_On_74_Vel_70
Time_Shift_28
Sustain_Off
Time_Shift_7
Note_On_70_Vel_72
Time_Shift_2
Note_On_62_Vel_55
Time_Shift_6
Note_On_53_Vel_59
Time_Shift_7
Note_On_58_Vel_57
Time_Shift_13
Note_On_74_Vel_0
Time_Shift_61
Sustain_On
Time_Shift_116
Sustain_Off
Time_Shift_102
Note_On_73_Vel_81
Time_Shift_5
Note_On_53_Vel_0
Note_On_58_Vel_0
Time_Shift_2
Note_On_61_Vel_72
Time_Shift_2
Note_On_70_Vel_0
Time_Shift_3
Note_On_58_Vel_61
Time_Shift_1
Note_On_62_Vel_0
Time_Shift_3
Note_On_53_Vel_58
Time_Shift_28
Sustain_On
Time_Shift_223
Note_On_73_Vel_0
Time_Shift_2
Note_On_61_Vel_0
Time_Shift_1
Sustain_Off
Time_Shift_17
Note_On_74_Vel_93
Time_Shift_8
Note_On_62_Vel_61
Time_Shift_10
Note_On_53_Vel_0
Note_On_58_Vel_0
Time_Shift_4
Note_On_53_Vel_55
Note_On_58_Vel_59
Time_Shift_7
Note_On_75_Vel_77
Time_Shift_13
Note_On_74_Vel_0
Time_Shift_5
Note_On_62_Vel_0
Time_Shift_17
Sustain_On
Time_Shift_7
Note_On_75_Vel_0
Time_Shift_19
Note_On_74_Vel_71
Time_Shift_4
Note_On_58_Vel_0
Time_Shift_52
Note_On_75_Vel_72
Time_Shift_48
Note_On_74_Vel_0
Time_Shift_12
Note_On_74_Vel_78
Time_Shift_34
Note_On_72_Vel_85
Time_Shift_20
Note_On_74_Vel_0
Note_On_75_Vel_0
Time_Shift_2
Note_On_64_Vel_61
Time_Shift_1
Note_On_53_Vel_0
Time_Shift_4
Sustain_Off
Note_On_53_Vel_60
Time_Shift_1
Note_On_58_Vel_61
Time_Shift_7
Note_On_72_Vel_0
Time_Shift_11
Note_On_64_Vel_0
Time_Shift_23
Note_On_53_Vel_0
Note_On_58_Vel_0
Time_Shift_240
Note_On_76_Vel_71
Time_Shift_27
Note_On_76_Vel_0
Time_Shift_24
Note_On_79_Vel_78
Time_Shift_10
Note_On_64_Vel_62
Time_Shift_14
Note_On_72_Vel_60
Time_Shift_3
Note_On_58_Vel_58
Time_Shift_1
Note_On_53_Vel_57
Time_Shift_21
Note_On_64_Vel_0
Time_Shift_6
Sustain_On
Time_Shift_215
Note_On_58_Vel_0
Time_Shift_12
Note_On_77_Vel_84
Time_Shift_3
Note_On_53_Vel_0
Time_Shift_2
Sustain_Off
Time_Shift_3
Note_On_65_Vel_65
Time_Shift_2
Note_On_53_Vel_47
Time_Shift_1
Note_On_72_Vel_0
Time_Shift_4
Note_On_57_Vel_67
Time_Shift_3
Note_On_72_Vel_58
Time_Shift_5
Note_On_79_Vel_0
Time_Shift_11
Note_On_77_Vel_0
Time_Shift_10
Note_On_53_Vel_0
Note_On_57_Vel_0
Time_Shift_6
Note_On_72_Vel_0
Time_Shift_7
Note_On_65_Vel_0
Time_Shift_228
Note_On_77_Vel_77
Time_Shift_36
Note_On_72_Vel_87
Time_Shift_15
Note_On_63_Vel_61
Time_Shift_6
Note_On_57_Vel_65
Time_Shift_2
Note_On_69_Vel_65
Time_Shift_1
Note_On_53_Vel_61
Time_Shift_1
Note_On_65_Vel_56
Note_On_77_Vel_0
Time_Shift_11
Sustain_On
Time_Shift_215
Note_On_63_Vel_0
Time_Shift_10
Note_On_63_Vel_68
Time_Shift_5
Note_On_53_Vel_0
Note_On_57_Vel_0
Time_Shift_7
Note_On_53_Vel_55
Time_Shift_1
Note_On_69_Vel_0
Time_Shift_3
Note_On_57_Vel_46
Time_Shift_1
Note_On_69_Vel_50
Time_Shift_7
Note_On_72_Vel_0
Time_Shift_9
Sustain_Off
Time_Shift_11
Note_On_65_Vel_0
Time_Shift_5
Note_On_53_Vel_0
Time_Shift_18
Note_On_69_Vel_0
Time_Shift_7
Note_On_57_Vel_0
Time_Shift_35
Note_On_75_Vel_74
Time_Shift_23
Note_On_63_Vel_0
Time_Shift_27
Note_On_75_Vel_0
Time_Shift_128
Note_On_74_Vel_87
Time_Shift_5
Note_On_46_Vel_79
Time_Shift_30
Note_On_75_Vel_69
Time_Shift_6
Sustain_On
Time_Shift_69
Note_On_74_Vel_0
Time_Shift_7
Note_On_74_Vel_70
Time_Shift_39
Note_On_75_Vel_0
Time_Shift_6
Note_On_75_Vel_60
Time_Shift_32
Note_On_74_Vel_0
Time_Shift_8
Note_On_74_Vel_73
Time_Shift_49
Note_On_72_Vel_87
Time_Shift_16
Note_On_57_Vel_68
Note_On_63_Vel_64
Time_Shift_3
Note_On_53_Vel_65
Time_Shift_5
Note_On_46_Vel_0
Note_On_74_Vel_0
Time_Shift_2
Note_On_75_Vel_0
Time_Shift_6
Sustain_Off
Time_Shift_1
Note_On_72_Vel_0
Time_Shift_13
Note_On_53_Vel_0
Note_On_57_Vel_0
Time_Shift_1
Note_On_63_Vel_0
Time_Shift_242
Note_On_69_Vel_68
Time_Shift_31
Note_On_69_Vel_0
Time_Shift_35
Note_On_65_Vel_66
Time_Shift_4
Note_On_63_Vel_56
Time_Shift_16
Note_On_57_Vel_57
Time_Shift_3
Note_On_53_Vel_46
Time_Shift_26
Sustain_On
Time_Shift_217
Note_On_57_Vel_0
Note_On_53_Vel_0
Time_Shift_1
Note_On_63_Vel_0
Note_On_65_Vel_0
Time_Shift_3
Sustain_Off
Time_Shift_106
Note_On_46_Vel_59
Time_Shift_15
Note_On_58_Vel_49
Time_Shift_3
Note_On_65_Vel_76
Time_Shift_18
Note_On_46_Vel_0
Time_Shift_10
Note_On_65_Vel_0
Time_Shift_19
Note_On_58_Vel_0
Time_Shift_27
Note_On_67_Vel_69
Time_Shift_69
Note_On_67_Vel_0
Time_Shift_10
Note_On_69_Vel_73
Time_Shift_59
Note_On_69_Vel_0
Note_On_70_Vel_85
Time_Shift_21
Note_On_62_Vel_58
Time_Shift_2
Note_On_53_Vel_61
Time_Shift_23
Note_On_62_Vel_0
Time_Shift_1
Note_On_58_Vel_44
Time_Shift_6
Note_On_53_Vel_0
Time_Shift_35
Note_On_58_Vel_0
Time_Shift_200
Note_On_70_Vel_0
Time_Shift_90
Note_On_71_Vel_78
Time_Shift_7
Note_On_62_Vel_72
Time_Shift_7
Note_On_56_Vel_53
Time_Shift_8
Note_On_53_Vel_62
Time_Shift_32
Note_On_56_Vel_0
Time_Shift_5
Note_On_53_Vel_0
Time_Shift_12
Sustain_On
Time_Shift_190
Note_On_62_Vel_0
Time_Shift_5
Sustain_Off
Time_Shift_5
Note_On_71_Vel_0
Time_Shift_35
Note_On_39_Vel_71
Time_Shift_1
Note_On_51_Vel_73
Time_Shift_2
Note_On_72_Vel_89
Time_Shift_26
Note_On_39_Vel_0
Time_Shift_1
Note_On_72_Vel_0
Time_Shift_3
Note_On_51_Vel_0
Time_Shift_220
Note_On_74_Vel_70
Time_Shift_38
Note_On_74_Vel_0
Time_Shift_2
Note_On_63_Vel_61
Time_Shift_4
Note_On_55_Vel_52
Time_Shift_4
Note_On_75_Vel_85
Time_Shift_2
Note_On_60_Vel_51
Note_On_67_Vel_54
Time_Shift_5
Note_On_48_Vel_40
Time_Shift_10
Note_On_48_Vel_0
Time_Shift_12
Note_On_63_Vel_0
Time_Shift_2
Note_On_55_Vel_0
Time_Shift_3
Note_On_60_Vel_0
Time_Shift_4
Note_On_67_Vel_0
Time_Shift_256
Note_On_63_Vel_57
Time_Shift_3
Note_On_60_Vel_48
Time_Shift_1
Note_On_54_Vel_54
Time_Shift_26
Note_On_63_Vel_0
Time_Shift_4
Note_On_60_Vel_0
Note_On_75_Vel_0
Time_Shift_1
Note_On_54_Vel_0
Time_Shift_60
Note_On_70_Vel_76
Time_Shift_31
Note_On_70_Vel_0
Time_Shift_16
Note_On_72_Vel_65
Time_Shift_40
Note_On_72_Vel_0
Time_Shift_15
Note_On_70_Vel_62
Time_Shift_52
Note_On_72_Vel_65
Time_Shift_31
Note_On_72_Vel_0
Time_Shift_11
Note_On_70_Vel_0
Time_Shift_4
Note_On_70_Vel_69
Time_Shift_45
Note_On_70_Vel_0
Time_Shift_8
Note_On_41_Vel_68
Time_Shift_1
Note_On_69_Vel_71
Time_Shift_24
Note_On_53_Vel_53
Time_Shift_64
Sustain_On
Time_Shift_166
Sustain_Off
Time_Shift_2
Note_On_79_Vel_77
Time_Shift_17
Note_On_69_Vel_0
Time_Shift_7
Note_On_41_Vel_0
Note_On_53_Vel_0
Time_Shift_20
Note_On_77_Vel_77
Time_Shift_2
Note_On_69_Vel_55
Time_Shift_1
Note_On_63_Vel_56
Time_Shift_5
Note_On_60_Vel_63
Time_Shift_1
Note_On_79_Vel_0
Note_On_53_Vel_59
Time_Shift_23
Note_On_77_Vel_0
Time_Shift_9
Note_On_60_Vel_0
Time_Shift_2
Note_On_63_Vel_0
Time_Shift_7
Note_On_69_Vel_0
Time_Shift_4
Note_On_53_Vel_0
Time_Shift_191
Note_On_74_Vel_72
Time_Shift_38
Note_On_63_Vel_50
Time_Shift_1
Note_On_75_Vel_78
Time_Shift_4
Note_On_57_Vel_64
Time_Shift_2
Note_On_69_Vel_61
Time_Shift_1
Note_On_53_Vel_59
Time_Shift_4
Note_On_69_Vel_0
Note_On_74_Vel_0
Time_Shift_20
Note_On_75_Vel_0
Time_Shift_8
Note_On_63_Vel_0
Time_Shift_5
Note_On_57_Vel_0
Time_Shift_17
Note_On_53_Vel_0
Time_Shift_184
Note_On_72_Vel_72
Time_Shift_37
Note_On_72_Vel_0
Time_Shift_18
Note_On_46_Vel_68
Time_Shift_15
Note_On_70_Vel_60
Time_Shift_19
Sustain_On
Time_Shift_63
Note_On_72_Vel_71
Time_Shift_60
Note_On_74_Vel_73
Time_Shift_53
Note_On_72_Vel_0
Time_Shift_5
Note_On_72_Vel_74
Sustain_Off
Time_Shift_11
Note_On_46_Vel_0
Time_Shift_1
Note_On_63_Vel_62
Note_On_70_Vel_0
Time_Shift_1
Note_On_74_Vel_0
Time_Shift_8
Note_On_53_Vel_66
Time_Shift_15
Note_On_57_Vel_51
Time_Shift_17
Note_On_63_Vel_0
Time_Shift_4
Note_On_72_Vel_0
Time_Shift_1
Note_On_53_Vel_0
Time_Shift_11
Note_On_57_Vel_0
Time_Shift_266
Note_On_79_Vel_78
Note_On_67_Vel_82
Time_Shift_2
Note_On_63_Vel_58
Time_Shift_1
Note_On_57_Vel_61
Time_Shift_20
Note_On_69_Vel_69
Time_Shift_3
Note_On_53_Vel_45
Time_Shift_18
Sustain_On
Time_Shift_62
Note_On_67_Vel_0
Note_On_69_Vel_0
Note_On_79_Vel_0
Time_Shift_7
Note_On_79_Vel_66
Note_On_67_Vel_66
Time_Shift_4
Note_On_69_Vel_63
Time_Shift_23
Note_On_81_Vel_61
Time_Shift_58
Note_On_79_Vel_0
Time_Shift_8
Note_On_67_Vel_0
Time_Shift_2
Note_On_79_Vel_72
Time_Shift_2
Note_On_67_Vel_73
Time_Shift_48
Sustain_Off
Time_Shift_4
Note_On_57_Vel_0
Time_Shift_1
Note_On_81_Vel_0
Note_On_63_Vel_0
Time_Shift_1
Note_On_53_Vel_0
Time_Shift_1
Note_On_67_Vel_0
Time_Shift_1
Note_On_79_Vel_0
Note_On_77_Vel_65
Time_Shift_4
Note_On_65_Vel_79
Time_Shift_13
Note_On_69_Vel_0
Time_Shift_9
Note_On_46_Vel_69
Time_Shift_19
Note_On_65_Vel_0
Time_Shift_33
Note_On_46_Vel_0
Note_On_77_Vel_0
Time_Shift_5
Note_On_67_Vel_73
Time_Shift_72
Sustain_On
Time_Shift_10
Note_On_69_Vel_78
Time_Shift_1
Note_On_81_Vel_73
Time_Shift_65
Note_On_70_Vel_87
Time_Shift_2
Note_On_82_Vel_78
Time_Shift_6
Note_On_82_Vel_0
Time_Shift_13
Note_On_62_Vel_60
Time_Shift_6
Note_On_53_Vel_64
Time_Shift_1
Note_On_67_Vel_0
Time_Shift_1
Note_On_69_Vel_0
Time_Shift_3
Note_On_70_Vel_0
Time_Shift_3
Sustain_Off
Time_Shift_4
Note_On_81_Vel_0
Time_Shift_17
Note_On_53_Vel_0
Time_Shift_14
Note_On_62_Vel_0
Time_Shift_316
Note_On_62_Vel_69
Time_Shift_1
Note_On_71_Vel_81
Time_Shift_10
Note_On_56_Vel_51
Time_Shift_8
Note_On_53_Vel_56
Time_Shift_18
Sustain_On
Time_Shift_175
Note_On_56_Vel_0
Time_Shift_1
Note_On_53_Vel_0
Note_On_62_Vel_0
Sustain_Off
Time_Shift_1
Note_On_71_Vel_0
Time_Shift_102
Note_On_39_Vel_80
Time_Shift_1
Note_On_51_Vel_75
Time_Shift_7
Note_On_84_Vel_85
Time_Shift_1
Note_On_72_Vel_93
Time_Shift_17
Note_On_39_Vel_0
Time_Shift_2
Note_On_51_Vel_0
Time_Shift_16
Note_On_84_Vel_0
Time_Shift_241
Note_On_74_Vel_82
Time_Shift_1
Note_On_86_Vel_66
Time_Shift_11
Note_On_86_Vel_0
Time_Shift_32
Note_On_74_Vel_0
Time_Shift_9
Note_On_63_Vel_70
Note_On_75_Vel_91
Time_Shift_2
Note_On_55_Vel_59
Note_On_60_Vel_61
Note_On_87_Vel_78
Time_Shift_11
Note_On_87_Vel_0
Time_Shift_7
Note_On_72_Vel_0
Time_Shift_17
Note_On_55_Vel_0
Time_Shift_2
Note_On_60_Vel_0
Time_Shift_2
Note_On_63_Vel_0
Time_Shift_265
Note_On_63_Vel_68
Time_Shift_3
Note_On_60_Vel_65
Note_On_54_Vel_64
Time_Shift_30
Note_On_63_Vel_0
Time_Shift_1
Note_On_75_Vel_0
Time_Shift_2
Note_On_60_Vel_0
Time_Shift_32
Note_On_54_Vel_0
Sustain_On
Time_Shift_42
Note_On_70_Vel_85
Time_Shift_1
Note_On_82_Vel_79
Time_Shift_123
Note_On_70_Vel_0
Time_Shift_3
Sustain_Off
Time_Shift_12
Note_On_63_Vel_61
Time_Shift_7
Note_On_41_Vel_77
Time_Shift_3
Note_On_53_Vel_70
Note_On_81_Vel_80
Time_Shift_1
Note_On_63_Vel_0
Note_On_82_Vel_0
Time_Shift_3
Note_On_69_Vel_86
Time_Shift_30
Note_On_41_Vel_0
Time_Shift_3
Note_On_53_Vel_0
Time_Shift_41
Sustain_On
Time_Shift_210
Note_On_79_Vel_86
Time_Shift_17
Sustain_Off
Time_Shift_21
Note_On_63_Vel_72
Time_Shift_3
Note_On_77_Vel_86
Time_Shift_2
Note_On_69_Vel_0
Time_Shift_3
Note_On_53_Vel_59
Time_Shift_1
Note_On_60_Vel_56
Time_Shift_5
Note_On_69_Vel_46
Time_Shift_10
Note_On_79_Vel_0
Time_Shift_14
Note_On_77_Vel_0
Time_Shift_5
Note_On_81_Vel_0
Time_Shift_3
Note_On_63_Vel_0
Time_Shift_1
Note_On_60_Vel_0
Time_Shift_7
Note_On_53_Vel_0
Time_Shift_43
Note_On_69_Vel_0
Time_Shift_155
Note_On_74_Vel_82
Time_Shift_40
Note_On_63_Vel_64
Time_Shift_7
Note_On_75_Vel_88
Time_Shift_1
Note_On_53_Vel_70
Note_On_74_Vel_0
Time_Shift_1
Note_On_60_Vel_70
Time_Shift_33
Note_On_63_Vel_0
Time_Shift_2
Note_On_60_Vel_0
Time_Shift_7
Sustain_On
Time_Shift_3
Note_On_53_Vel_0
Time_Shift_20
Note_On_75_Vel_0
Time_Shift_145
Sustain_Off
Time_Shift_22
Note_On_69_Vel_77
Note_On_81_Vel_72
Time_Shift_50
Note_On_69_Vel_0
Time_Shift_36
Note_On_81_Vel_0
Time_Shift_28
Note_On_34_Vel_80
Note_On_70_Vel_87
Note_On_46_Vel_87
Time_Shift_1
Note_On_82_Vel_84
Time_Shift_25
Sustain_On
Time_Shift_54
Note_On_82_Vel_0
Time_Shift_8
Note_On_70_Vel_0
Time_Shift_3
Note_On_82_Vel_83
Time_Shift_1
Note_On_70_Vel_77
Time_Shift_80
Note_On_70_Vel_0
Note_On_82_Vel_0
Time_Shift_10
Note_On_70_Vel_69
Note_On_82_Vel_77
Time_Shift_57
Sustain_Off
Time_Shift_1
Note_On_70_Vel_0
Time_Shift_1
Note_On_34_Vel_0
Time_Shift_2
Note_On_46_Vel_0
Time_Shift_14
Note_On_82_Vel_0
Time_Shift_9
Note_On_82_Vel_104
Time_Shift_4
Note_On_74_Vel_82
Time_Shift_1
Note_On_62_Vel_86
Time_Shift_1
Note_On_46_Vel_71
Time_Shift_1
Note_On_70_Vel_78
Time_Shift_2
Note_On_53_Vel_77
Time_Shift_37
Note_On_82_Vel_0
Time_Shift_2
Note_On_62_Vel_0
Time_Shift_1
Note_On_53_Vel_0
Time_Shift_30
Note_On_46_Vel_0
Time_Shift_4
Sustain_On
Time_Shift_7
Note_On_74_Vel_0
Time_Shift_8
Note_On_70_Vel_0
Time_Shift_327
Sustain_Off
Time_Shift_107
Note_On_67_Vel_75
Time_Shift_1
Note_On_79_Vel_66
Time_Shift_10
Note_On_79_Vel_0
Time_Shift_33
Note_On_81_Vel_69
Time_Shift_1
Note_On_69_Vel_74
Time_Shift_5
Note_On_81_Vel_0
Time_Shift_64
Note_On_79_Vel_49
Time_Shift_5
Note_On_79_Vel_0
Time_Shift_46
Note_On_69_Vel_0
Time_Shift_5
Note_On_81_Vel_59
Time_Shift_1
Note_On_69_Vel_59
Time_Shift_9
Note_On_67_Vel_0
Time_Shift_23
Note_On_81_Vel_0
Time_Shift_5
Note_On_69_Vel_0
Time_Shift_28
Note_On_79_Vel_58
Time_Shift_2
Note_On_67_Vel_65
Time_Shift_4
Note_On_79_Vel_0
Time_Shift_33
Note_On_67_Vel_0
Time_Shift_39
Note_On_65_Vel_61
Time_Shift_32
Note_On_65_Vel_0
Note_On_46_Vel_65
Time_Shift_46
Note_On_67_Vel_57
Time_Shift_19
Sustain_On
Time_Shift_8
Note_On_46_Vel_0
Time_Shift_53
Note_On_67_Vel_0
Time_Shift_5
Note_On_69_Vel_51
Time_Shift_5
Note_On_67_Vel_49
Time_Shift_79
Note_On_70_Vel_69
Time_Shift_23
Sustain_Off
Time_Shift_2
Note_On_62_Vel_56
Time_Shift_2
Note_On_67_Vel_0
Note_On_69_Vel_0
Time_Shift_4
Note_On_46_Vel_50
Time_Shift_2
Note_On_58_Vel_52
Time_Shift_5
Note_On_53_Vel_50
Time_Shift_31
Note_On_62_Vel_0
Time_Shift_4
Note_On_58_Vel_0
Time_Shift_3
Note_On_53_Vel_0
Time_Shift_20
Note_On_46_Vel_0
Time_Shift_302
Note_On_71_Vel_70
Time_Shift_5
Note_On_62_Vel_61
Time_Shift_4
Note_On_56_Vel_58
Time_Shift_7
Note_On_53_Vel_61
Time_Shift_35
Note_On_70_Vel_0
Time_Shift_9
Note_On_56_Vel_0
Time_Shift_9
Note_On_53_Vel_0
Time_Shift_66
Note_On_62_Vel_0
Time_Shift_180
Note_On_71_Vel_0
Time_Shift_15
Note_On_72_Vel_75
Time_Shift_1
Note_On_39_Vel_66
Time_Shift_2
Note_On_51_Vel_65
Time_Shift_5
Note_On_63_Vel_57
Time_Shift_23
Note_On_51_Vel_0
Time_Shift_1
Note_On_39_Vel_0
Time_Shift_50
Sustain_On
Time_Shift_176
Note_On_72_Vel_0
Time_Shift_34
Note_On_74_Vel_60
Time_Shift_34
Sustain_Off
Time_Shift_2
Note_On_63_Vel_0
Time_Shift_5
Note_On_63_Vel_55
Note_On_75_Vel_79
Time_Shift_2
Note_On_60_Vel_54
Note_On_67_Vel_48
Time_Shift_6
Note_On_74_Vel_0
Time_Shift_1
Note_On_55_Vel_52
Time_Shift_3
Note_On_72_Vel_58
Time_Shift_31
Note_On_60_Vel_0
Time_Shift_3
Note_On_55_Vel_0
Time_Shift_25
Note_On_63_Vel_0
Time_Shift_8
Note_On_67_Vel_0
Time_Shift_221
Note_On_60_Vel_67
Time_Shift_5
Note_On_63_Vel_58
Time_Shift_11
Note_On_75_Vel_0
Time_Shift_3
Note_On_54_Vel_54
Time_Shift_14
Note_On_72_Vel_0
Time_Shift_15
Note_On_60_Vel_0
Note_On_63_Vel_0
Time_Shift_15
Note_On_54_Vel_0
Time_Shift_51
Note_On_70_Vel_72
Time_Shift_3
Sustain_On
Time_Shift_48
Note_On_72_Vel_67
Time_Shift_106
Note_On_72_Vel_0
Time_Shift_5
Note_On_72_Vel_64
Time_Shift_25
Note_On_70_Vel_0
Time_Shift_8
Note_On_70_Vel_48
Time_Shift_26
Sustain_Off
Time_Shift_40
Note_On_41_Vel_59
Time_Shift_1
Note_On_69_Vel_64
Time_Shift_2
Note_On_70_Vel_0
Time_Shift_8
Note_On_72_Vel_0
Time_Shift_54
Sustain_On
Time_Shift_23
Note_On_41_Vel_0
Time_Shift_193
Note_On_79_Vel_61
Time_Shift_3
Sustain_Off
Time_Shift_39
Note_On_77_Vel_83
Time_Shift_8
Note_On_63_Vel_64
Time_Shift_6
Note_On_79_Vel_0
Time_Shift_10
Note_On_53_Vel_53
Time_Shift_6
Note_On_60_Vel_52
Time_Shift_19
Note_On_77_Vel_0
Time_Shift_23
Note_On_63_Vel_0
Note_On_69_Vel_0
Time_Shift_69
Note_On_60_Vel_0
Time_Shift_90
Note_On_74_Vel_81
Time_Shift_29
Note_On_74_Vel_0
Time_Shift_23
Note_On_75_Vel_79
Note_On_63_Vel_68
Time_Shift_12
Note_On_53_Vel_0
Time_Shift_1
Note_On_57_Vel_60
Time_Shift_4
Note_On_53_Vel_54
Time_Shift_41
Sustain_On
Time_Shift_196
Sustain_Off
Time_Shift_4
Note_On_75_Vel_0
Time_Shift_8
Note_On_72_Vel_66
Time_Shift_7
Note_On_57_Vel_0
Note_On_63_Vel_0
Time_Shift_7
Note_On_53_Vel_0
Time_Shift_29
Note_On_72_Vel_0
Time_Shift_20
Note_On_46_Vel_63
Time_Shift_3
Note_On_70_Vel_63
Time_Shift_25
Sustain_On
Time_Shift_65
Note_On_72_Vel_73
Time_Shift_20
Note_On_46_Vel_0
Time_Shift_54
Note_On_74_Vel_70
Time_Shift_53
Note_On_72_Vel_0
Time_Shift_4
Note_On_72_Vel_77
Time_Shift_8
Sustain_Off
Time_Shift_7
Note_On_63_Vel_64
Time_Shift_1
Note_On_74_Vel_0
Time_Shift_3
Note_On_70_Vel_0
Time_Shift_10
Note_On_57_Vel_60
Time_Shift_1
Note_On_53_Vel_57
Time_Shift_32
Note_On_57_Vel_0
Time_Shift_3
Note_On_53_Vel_0
Note_On_72_Vel_0
Time_Shift_16
Note_On_63_Vel_0
Time_Shift_53
Sustain_On
Time_Shift_185
Sustain_Off
Time_Shift_48
Note_On_63_Vel_54
Time_Shift_1
Note_On_57_Vel_55
Time_Shift_1
Note_On_67_Vel_78
Note_On_79_Vel_68
Time_Shift_24
Note_On_69_Vel_65
Time_Shift_5
Note_On_81_Vel_62
Time_Shift_1
Note_On_53_Vel_39
Time_Shift_27
Sustain_On
Time_Shift_39
Note_On_67_Vel_0
Note_On_69_Vel_0
Time_Shift_9
Note_On_67_Vel_68
Time_Shift_1
Note_On_69_Vel_59
Time_Shift_51
Note_On_81_Vel_0
Time_Shift_5
Note_On_81_Vel_64
Time_Shift_72
Note_On_67_Vel_0
Note_On_79_Vel_0
Time_Shift_5
Note_On_67_Vel_67
Note_On_79_Vel_64
Time_Shift_45
Sustain_Off
Time_Shift_13
Note_On_81_Vel_0
Time_Shift_4
Note_On_79_Vel_0
Note_On_67_Vel_0
Note_On_63_Vel_0
Time_Shift_2
Note_On_69_Vel_0
Time_Shift_1
Note_On_65_Vel_73
Time_Shift_1
Note_On_53_Vel_0
Time_Shift_1
Note_On_57_Vel_0
Time_Shift_25
Note_On_46_Vel_56
Time_Shift_18
Note_On_65_Vel_0
Time_Shift_25
Note_On_69_Vel_40
Time_Shift_21
Note_On_46_Vel_0
Time_Shift_31
Sustain_On
Time_Shift_5
Note_On_67_Vel_68
Time_Shift_72
Note_On_69_Vel_0
Time_Shift_7
Note_On_69_Vel_69
Time_Shift_77
Note_On_70_Vel_79
Time_Shift_4
Note_On_62_Vel_67
Time_Shift_3
Note_On_58_Vel_78
Time_Shift_1
Note_On_53_Vel_71
Time_Shift_6
Note_On_67_Vel_0
Time_Shift_1
Note_On_69_Vel_0
Sustain_Off
Time_Shift_25
Note_On_58_Vel_0
Time_Shift_11
Note_On_53_Vel_0
Time_Shift_11
Note_On_62_Vel_0
Time_Shift_61
Sustain_On
Time_Shift_180
Sustain_Off
Time_Shift_95
Note_On_71_Vel_85
Time_Shift_3
Note_On_62_Vel_69
Time_Shift_3
Note_On_53_Vel_66
Note_On_56_Vel_53
Time_Shift_3
Note_On_70_Vel_0
Time_Shift_36
Note_On_56_Vel_0
Time_Shift_6
Note_On_53_Vel_0
Time_Shift_43
Sustain_On
Time_Shift_38
Note_On_62_Vel_0
Time_Shift_142
Sustain_Off
Time_Shift_8
Note_On_71_Vel_0
Time_Shift_28
Note_On_39_Vel_81
Time_Shift_25
Note_On_79_Vel_69
Time_Shift_1
Note_On_72_Vel_86
Time_Shift_42
Note_On_39_Vel_0
Sustain_On
Time_Shift_54
Note_On_79_Vel_0
Time_Shift_153
Note_On_74_Vel_87
Time_Shift_2
Note_On_86_Vel_73
Time_Shift_6
Note_On_86_Vel_0
Time_Shift_20
Note_On_63_Vel_72
Time_Shift_4
Sustain_Off
Time_Shift_1
Note_On_55_Vel_67
Time_Shift_6
Note_On_60_Vel_62
Time_Shift_9
Note_On_72_Vel_0
Time_Shift_2
Note_On_75_Vel_90
Note_On_87_Vel_78
Time_Shift_8
Note_On_74_Vel_0
Time_Shift_4
Note_On_87_Vel_0
Time_Shift_11
Note_On_63_Vel_0
Time_Shift_5
Note_On_60_Vel_0
Time_Shift_4
Note_On_55_Vel_0
Time_Shift_126
Sustain_On
Time_Shift_119
Note_On_63_Vel_67
Time_Shift_1
Note_On_60_Vel_70
Time_Shift_2
Note_On_54_Vel_67
Time_Shift_95
Note_On_70_Vel_79
Time_Shift_54
Note_On_72_Vel_75
Time_Shift_117
Note_On_75_Vel_0
Note_On_70_Vel_0
Note_On_72_Vel_0
Note_On_63_Vel_0
Time_Shift_1
Sustain_Off
Note_On_54_Vel_0
Time_Shift_18
Note_On_60_Vel_0
Time_Shift_22
Note_On_69_Vel_85
Time_Shift_1
Note_On_81_Vel_82
Time_Shift_3
Note_On_41_Vel_84
Note_On_53_Vel_72
Time_Shift_58
Note_On_53_Vel_0
Time_Shift_15
Note_On_41_Vel_0
Sustain_On
Time_Shift_200
Note_On_79_Vel_92
Time_Shift_3
Sustain_Off
Time_Shift_40
Note_On_77_Vel_91
Time_Shift_8
Note_On_63_Vel_69
Time_Shift_3
Note_On_69_Vel_0
Time_Shift_6
Note_On_79_Vel_0
Note_On_60_Vel_67
Note_On_69_Vel_55
Time_Shift_9
Note_On_53_Vel_58
Time_Shift_4
Note_On_77_Vel_0
Time_Shift_12
Note_On_81_Vel_0
Time_Shift_2
Note_On_63_Vel_0
Time_Shift_14
Note_On_53_Vel_0
Time_Shift_14
Note_On_60_Vel_0
Time_Shift_31
Sustain_On
Time_Shift_23
Note_On_69_Vel_0
Time_Shift_77
Sustain_Off
Time_Shift_46
Note_On_74_Vel_90
Time_Shift_35
Note_On_74_Vel_0
Time_Shift_2
Note_On_63_Vel_82
Time_Shift_5
Note_On_75_Vel_91
Time_Shift_12
Note_On_53_Vel_71
Time_Shift_3
Note_On_57_Vel_72
Time_Shift_32
Note_On_53_Vel_0
Time_Shift_18
Sustain_On
Time_Shift_8
Note_On_57_Vel_0
Note_On_63_Vel_0
Time_Shift_177
Note_On_81_Vel_76
Time_Shift_1
Note_On_69_Vel_83
Time_Shift_51
Note_On_69_Vel_0
Time_Shift_5
Note_On_75_Vel_0
Time_Shift_25
Sustain_Off
Time_Shift_2
Note_On_81_Vel_0
Time_Shift_19
Note_On_70_Vel_94
Time_Shift_1
Note_On_46_Vel_91
Note_On_34_Vel_85
Time_Shift_1
Note_On_82_Vel_87
Time_Shift_48
Note_On_46_Vel_0
Time_Shift_8
Sustain_On
Time_Shift_31
Note_On_70_Vel_0
Note_On_82_Vel_0
Time_Shift_4
Note_On_70_Vel_85
Time_Shift_1
Note_On_82_Vel_88
Time_Shift_25
Note_On_34_Vel_0
Time_Shift_54
Note_On_70_Vel_0
Time_Shift_11
Note_On_70_Vel_85
Time_Shift_60
Sustain_Off
Time_Shift_6
Note_On_82_Vel_0
Time_Shift_11
Note_On_82_Vel_105
Time_Shift_4
Note_On_70_Vel_0
Time_Shift_10
Note_On_74_Vel_80
Note_On_70_Vel_84
Time_Shift_1
Note_On_62_Vel_83
Time_Shift_6
Note_On_53_Vel_74
Time_Shift_7
Note_On_58_Vel_78
Time_Shift_53
Sustain_On
Time_Shift_54
Note_On_74_Vel_0
Time_Shift_361
Note_On_62_Vel_0
Note_On_58_Vel_0
Time_Shift_1
Note_On_53_Vel_0
Note_On_70_Vel_0
Time_Shift_1
Sustain_Off
Time_Shift_6
Note_On_82_Vel_0
Time_Shift_88
Note_On_86_Vel_79
Time_Shift_73
Sustain_On
Time_Shift_54
Note_On_86_Vel_0
Time_Shift_119
Note_On_82_Vel_70
Time_Shift_117
Note_On_43_Vel_50
Time_Shift_21
Note_On_82_Vel_0
Time_Shift_6
Sustain_Off
Time_Shift_16
Note_On_94_Vel_72
Time_Shift_89
Note_On_43_Vel_0
Time_Shift_31
Sustain_On
Time_Shift_235
Note_On_93_Vel_64
Time_Shift_60
Note_On_91_Vel_90
Time_Shift_24
Note_On_79_Vel_41
Time_Shift_1
Note_On_62_Vel_47
Time_Shift_15
Note_On_58_Vel_45
Time_Shift_293
Note_On_46_Vel_61
Time_Shift_91
Note_On_89_Vel_84
Time_Shift_3
Note_On_79_Vel_0
Time_Shift_142
Note_On_62_Vel_0
Time_Shift_1
Note_On_91_Vel_0
Note_On_58_Vel_0
Note_On_46_Vel_0
Time_Shift_1
Note_On_93_Vel_0
Time_Shift_1
Note_On_89_Vel_0
Time_Shift_3
Sustain_Off
Time_Shift_21
Note_On_94_Vel_0
Time_Shift_1
Note_On_48_Vel_58
Time_Shift_4
Note_On_87_Vel_86
Time_Shift_41
Sustain_On
Time_Shift_224
Note_On_89_Vel_87
Time_Shift_40
Note_On_86_Vel_92
Time_Shift_12
Note_On_48_Vel_0
Time_Shift_6
Note_On_63_Vel_54
Time_Shift_4
Note_On_48_Vel_40
Time_Shift_9
Note_On_57_Vel_53
Time_Shift_235
Note_On_87_Vel_0
Time_Shift_5
Note_On_87_Vel_92
Time_Shift_45
Sustain_Off
Time_Shift_7
Note_On_84_Vel_93
Time_Shift_24
Note_On_89_Vel_0
Note_On_63_Vel_0
Time_Shift_2
Note_On_86_Vel_0
Time_Shift_1
Note_On_57_Vel_0
Note_On_48_Vel_0
Time_Shift_4
Note_On_87_Vel_0
Time_Shift_8
Note_On_48_Vel_58
Time_Shift_50
Sustain_On
Time_Shift_227
Note_On_50_Vel_47
Time_Shift_62
Note_On_86_Vel_87
Time_Shift_87
Note_On_86_Vel_0
Time_Shift_9
Note_On_86_Vel_77
Time_Shift_53
Note_On_86_Vel_0
Time_Shift_11
Note_On_86_Vel_95
Time_Shift_98
Note_On_81_Vel_74
Time_Shift_25
Sustain_Off
Time_Shift_4
Sustain_On
Time_Shift_20
Note_On_62_Vel_44
Time_Shift_1
Note_On_48_Vel_0
Time_Shift_2
Note_On_60_Vel_38
Time_Shift_3
Note_On_50_Vel_0
Time_Shift_1
Note_On_86_Vel_0
Time_Shift_6
Note_On_54_Vel_46
Time_Shift_13
Note_On_84_Vel_0
Time_Shift_350
Note_On_50_Vel_51
Time_Shift_5
Note_On_86_Vel_72
Time_Shift_17
Note_On_78_Vel_38
Time_Shift_4
Note_On_78_Vel_0
Time_Shift_149
Note_On_82_Vel_70
Time_Shift_5
Note_On_62_Vel_0
Time_Shift_10
Note_On_62_Vel_35
Time_Shift_15
Note_On_84_Vel_70
Time_Shift_6
Note_On_54_Vel_0
Time_Shift_10
Note_On_54_Vel_27
Time_Shift_20
Note_On_82_Vel_0
Time_Shift_11
Note_On_82_Vel_71
Time_Shift_51
Note_On_84_Vel_0
Time_Shift_10
Note_On_84_Vel_77
Time_Shift_28
Note_On_82_Vel_0
Time_Shift_5
Note_On_82_Vel_87
Time_Shift_26
Note_On_60_Vel_0
Time_Shift_2
Note_On_54_Vel_0
Note_On_84_Vel_0
Time_Shift_1
Note_On_86_Vel_0
Note_On_62_Vel_0
Time_Shift_1
Note_On_82_Vel_0
Time_Shift_4
Sustain_Off
Time_Shift_3
Note_On_43_Vel_50
Time_Shift_4
Note_On_81_Vel_0
Time_Shift_23
Note_On_50_Vel_0
Time_Shift_21
Note_On_43_Vel_0
Time_Shift_243
Note_On_81_Vel_62
Time_Shift_40
Note_On_81_Vel_0
Time_Shift_7
Note_On_79_Vel_63
Time_Shift_19
Note_On_62_Vel_49
Time_Shift_16
Sustain_On
Time_Shift_5
Note_On_58_Vel_40
Time_Shift_5
Note_On_55_Vel_40
Time_Shift_216
Note_On_82_Vel_77
Time_Shift_50
Note_On_79_Vel_0
Time_Shift_1
Note_On_55_Vel_0
Note_On_62_Vel_0
Time_Shift_1
Note_On_58_Vel_0
Sustain_Off
Time_Shift_2
Note_On_82_Vel_0
Time_Shift_18
Note_On_85_Vel_79
Time_Shift_9
Sustain_On
Time_Shift_4
Note_On_31_Vel_44
Time_Shift_3
Note_On_43_Vel_41
Time_Shift_1
Note_On_31_Vel_0
Time_Shift_105
Note_On_86_Vel_90
Time_Shift_104
Note_On_85_Vel_0
Time_Shift_2
Note_On_43_Vel_0
Note_On_86_Vel_0
Time_Shift_9
Sustain_Off
Time_Shift_55
Note_On_94_Vel_91
Time_Shift_1
Sustain_On
Time_Shift_6
Note_On_46_Vel_69
Time_Shift_163
Note_On_86_Vel_52
Time_Shift_158
Note_On_93_Vel_84
Time_Shift_37
Note_On_86_Vel_0
Time_Shift_1
Sustain_Off
Time_Shift_3
Note_On_94_Vel_0
Time_Shift_8
Note_On_46_Vel_0
Time_Shift_2
Note_On_91_Vel_85
Time_Shift_3
Note_On_58_Vel_44
Time_Shift_1
Note_On_62_Vel_52
Time_Shift_21
Note_On_55_Vel_37
Time_Shift_27
Sustain_On
Time_Shift_54
Note_On_58_Vel_0
Time_Shift_203
Note_On_46_Vel_61
Time_Shift_100
Note_On_86_Vel_84
Time_Shift_50
Note_On_93_Vel_0
Time_Shift_58
Note_On_62_Vel_0
Time_Shift_1
Note_On_55_Vel_0
Note_On_86_Vel_0
Time_Shift_1
Note_On_91_Vel_0
Note_On_46_Vel_0
Time_Shift_4
Sustain_Off
Time_Shift_46
Note_On_48_Vel_65
Time_Shift_2
Note_On_87_Vel_89
Time_Shift_19
Sustain_On
Time_Shift_232
Sustain_Off
Time_Shift_24
Note_On_89_Vel_78
Time_Shift_9
Note_On_87_Vel_0
Time_Shift_18
Note_On_86_Vel_77
Time_Shift_17
Note_On_63_Vel_51
Time_Shift_6
Note_On_57_Vel_50
Time_Shift_6
Note_On_55_Vel_36
Time_Shift_3
Sustain_On
Time_Shift_258
Note_On_87_Vel_82
Time_Shift_60
Note_On_84_Vel_77
Time_Shift_4
Note_On_48_Vel_0
Time_Shift_10
Note_On_48_Vel_54
Time_Shift_269
Note_On_50_Vel_56
Time_Shift_36
Note_On_86_Vel_0
Time_Shift_11
Note_On_86_Vel_80
Time_Shift_97
Note_On_86_Vel_0
Time_Shift_6
Note_On_86_Vel_72
Time_Shift_63
Note_On_86_Vel_0
Time_Shift_10
Note_On_86_Vel_84
Time_Shift_90
Note_On_81_Vel_75
Time_Shift_38
Note_On_89_Vel_0
Time_Shift_3
Sustain_Off
Time_Shift_2
Note_On_84_Vel_0
Note_On_48_Vel_0
Time_Shift_1
Note_On_87_Vel_0
Time_Shift_1
Note_On_86_Vel_0
Note_On_63_Vel_0
Time_Shift_1
Note_On_57_Vel_0
Time_Shift_2
Note_On_50_Vel_0
Time_Shift_9
Note_On_62_Vel_44
Time_Shift_2
Note_On_60_Vel_38
Time_Shift_2
Note_On_55_Vel_0
Time_Shift_5
Note_On_54_Vel_31
Time_Shift_87
Sustain_On
Time_Shift_261
Note_On_62_Vel_0
Time_Shift_11
Note_On_62_Vel_37
Note_On_50_Vel_43
Time_Shift_38
Note_On_86_Vel_69
Time_Shift_8
Note_On_78_Vel_40
Time_Shift_183
Note_On_79_Vel_60
Time_Shift_91
Note_On_60_Vel_0
Time_Shift_11
Note_On_43_Vel_50
Time_Shift_24
Note_On_62_Vel_0
Time_Shift_3
Note_On_54_Vel_0
Sustain_Off
Note_On_86_Vel_0
Time_Shift_1
Note_On_50_Vel_0
Time_Shift_7
Note_On_81_Vel_0
Time_Shift_4
Note_On_91_Vel_62
Time_Shift_3
Note_On_79_Vel_0
Time_Shift_5
Note_On_79_Vel_38
Time_Shift_26
Note_On_78_Vel_0
Time_Shift_38
Sustain_On
Time_Shift_350
Note_On_62_Vel_41
Time_Shift_19
Note_On_91_Vel_0
Time_Shift_9
Note_On_91_Vel_39
Note_On_58_Vel_39
Time_Shift_140
Note_On_86_Vel_69
Time_Shift_174
Note_On_86_Vel_0
Time_Shift_6
Note_On_86_Vel_65
Time_Shift_155
Note_On_86_Vel_0
Time_Shift_4
Note_On_86_Vel_69
Time_Shift_171
Note_On_58_Vel_0
Note_On_86_Vel_0
Time_Shift_3
Note_On_62_Vel_0
Time_Shift_3
Note_On_82_Vel_65
Time_Shift_7
Sustain_Off
Time_Shift_4
Note_On_43_Vel_0
Time_Shift_8
Note_On_79_Vel_0
Time_Shift_3
Note_On_43_Vel_39
Time_Shift_27
Note_On_91_Vel_0
Time_Shift_6
Note_On_94_Vel_65
Time_Shift_2
Sustain_On
Time_Shift_359
Note_On_93_Vel_68
Time_Shift_37
Sustain_Off
Time_Shift_7
Note_On_94_Vel_0
Time_Shift_1
Note_On_43_Vel_0
Time_Shift_1
Note_On_82_Vel_0
Time_Shift_13
Note_On_91_Vel_64
Time_Shift_8
Note_On_62_Vel_49
Time_Shift_20
Note_On_55_Vel_31
Time_Shift_11
Note_On_58_Vel_30
Time_Shift_12
Sustain_On
Time_Shift_278
Note_On_46_Vel_56
Time_Shift_155
Note_On_89_Vel_64
Time_Shift_107
Note_On_62_Vel_0
Note_On_58_Vel_0
Time_Shift_1
Note_On_46_Vel_0
Note_On_55_Vel_0
Note_On_91_Vel_0
Time_Shift_2
Note_On_89_Vel_0
Time_Shift_4
Sustain_Off
Time_Shift_5
Note_On_93_Vel_0
Time_Shift_36
Note_On_48_Vel_64
Time_Shift_6
Note_On_87_Vel_77
Time_Shift_12
Sustain_On
Time_Shift_277
Note_On_89_Vel_74
Time_Shift_11
Sustain_Off
Time_Shift_12
Note_On_48_Vel_0
Time_Shift_7
Sustain_On
Time_Shift_4
Note_On_86_Vel_83
Time_Shift_14
Note_On_63_Vel_52
Time_Shift_10
Note_On_57_Vel_52
Time_Shift_7
Note_On_55_Vel_43
Time_Shift_219
Note_On_87_Vel_0
Time_Shift_8
Note_On_87_Vel_83
Time_Shift_35
Sustain_Off
Time_Shift_12
Note_On_84_Vel_82
Time_Shift_15
Note_On_57_Vel_0
Time_Shift_1
Note_On_63_Vel_0
Time_Shift_1
Note_On_55_Vel_0
Note_On_86_Vel_0
Time_Shift_1
Note_On_89_Vel_0
Time_Shift_1
Note_On_87_Vel_0
Time_Shift_6
Note_On_48_Vel_49
Time_Shift_27
Sustain_On
Time_Shift_272
Note_On_50_Vel_51
Time_Shift_18
Note_On_86_Vel_84
Time_Shift_94
Note_On_86_Vel_0
Time_Shift_8
Note_On_86_Vel_72
Time_Shift_69
Note_On_86_Vel_0
Time_Shift_10
Note_On_86_Vel_90
Time_Shift_94
Note_On_84_Vel_0
Time_Shift_1
Note_On_86_Vel_0
Time_Shift_3
Note_On_48_Vel_0
Time_Shift_1
Note_On_81_Vel_70
Time_Shift_2
Note_On_50_Vel_0
Time_Shift_8
Sustain_Off
Time_Shift_40
Note_On_60_Vel_45
Note_On_62_Vel_45
Time_Shift_7
Note_On_54_Vel_42
Time_Shift_11
Sustain_On
Time_Shift_343
Note_On_50_Vel_46
Time_Shift_2
Note_On_86_Vel_72
Time_Shift_153
Note_On_82_Vel_72
Time_Shift_49
Note_On_84_Vel_69
Time_Shift_44
Note_On_82_Vel_0
Time_Shift_6
Note_On_82_Vel_78
Time_Shift_56
Note_On_84_Vel_0
Time_Shift_4
Note_On_84_Vel_77
Time_Shift_34
Note_On_82_Vel_0
Time_Shift_4
Note_On_82_Vel_82
Time_Shift_23
Note_On_54_Vel_0
Note_On_86_Vel_0
Note_On_84_Vel_0
Note_On_60_Vel_0
Time_Shift_1
Note_On_50_Vel_0
Note_On_81_Vel_0
Sustain_Off
Time_Shift_10
Note_On_62_Vel_0
Time_Shift_1
Note_On_43_Vel_55
Time_Shift_22
Note_On_82_Vel_0
Time_Shift_21
Note_On_43_Vel_0
Time_Shift_18
Sustain_On
Time_Shift_248
Note_On_81_Vel_63
Time_Shift_52
Note_On_79_Vel_72
Time_Shift_17
Note_On_62_Vel_48
Time_Shift_2
Note_On_70_Vel_44
Time_Shift_1
Sustain_Off
Time_Shift_10
Note_On_58_Vel_42
Time_Shift_39
Sustain_On
Time_Shift_84
Note_On_82_Vel_73
Time_Shift_139
Note_On_85_Vel_82
Time_Shift_3
Note_On_43_Vel_59
Time_Shift_116
Note_On_86_Vel_90
Time_Shift_156
Note_On_58_Vel_0
Note_On_70_Vel_0
Note_On_85_Vel_0
Note_On_43_Vel_0
Time_Shift_1
Note_On_79_Vel_0
Note_On_62_Vel_0
Note_On_81_Vel_0
Time_Shift_1
Note_On_86_Vel_0
Time_Shift_4
Sustain_Off
Time_Shift_10
Note_On_82_Vel_0
Time_Shift_19
Note_On_94_Vel_86
Time_Shift_22
Note_On_86_Vel_61
Time_Shift_2
Note_On_46_Vel_64
Time_Shift_2
Note_On_82_Vel_50
Time_Shift_1
Sustain_On
Time_Shift_354
Note_On_93_Vel_76
Time_Shift_49
Note_On_91_Vel_82
Time_Shift_8
Note_On_46_Vel_0
Time_Shift_2
Note_On_94_Vel_0
Time_Shift_5
Sustain_Off
Time_Shift_24
Note_On_62_Vel_32
Time_Shift_5
Note_On_55_Vel_33
Time_Shift_6
Note_On_82_Vel_0
Time_Shift_39
Sustain_On
Time_Shift_7
Note_On_86_Vel_0
Time_Shift_288
Note_On_46_Vel_52
Time_Shift_92
Note_On_86_Vel_63
Time_Shift_139
Note_On_91_Vel_0
Note_On_46_Vel_0
Note_On_86_Vel_0
Note_On_55_Vel_0
Time_Shift_4
Note_On_93_Vel_0
Time_Shift_3
Sustain_Off
Time_Shift_4
Note_On_62_Vel_0
Time_Shift_34
Note_On_87_Vel_77
Time_Shift_1
Note_On_48_Vel_44
Time_Shift_27
Sustain_On
Time_Shift_249
Note_On_89_Vel_61
Time_Shift_33
Note_On_86_Vel_74
Time_Shift_22
Note_On_63_Vel_54
Time_Shift_15
Note_On_57_Vel_45
Time_Shift_1
Note_On_55_Vel_34
Time_Shift_225
Note_On_87_Vel_0
Time_Shift_9
Note_On_87_Vel_70
Time_Shift_27
Sustain_Off
Time_Shift_6
Note_On_86_Vel_0
Note_On_57_Vel_0
Time_Shift_1
Note_On_63_Vel_0
Note_On_89_Vel_0
Time_Shift_1
Note_On_87_Vel_0
Note_On_55_Vel_0
Time_Shift_7
Note_On_84_Vel_68
Time_Shift_3
Note_On_48_Vel_0
Time_Shift_11
Note_On_48_Vel_53
Time_Shift_35
Sustain_On
Time_Shift_212
Note_On_84_Vel_0
Time_Shift_1
Note_On_48_Vel_0
Time_Shift_6
Sustain_Off
Time_Shift_56
Note_On_86_Vel_78
Time_Shift_2
Note_On_50_Vel_47
Time_Shift_53
Sustain_On
Time_Shift_23
Note_On_86_Vel_0
Time_Shift_8
Note_On_86_Vel_91
Time_Shift_69
Note_On_86_Vel_0
Time_Shift_4
Note_On_86_Vel_90
Time_Shift_65
Sustain_Off
Time_Shift_4
Note_On_50_Vel_0
Time_Shift_4
Note_On_86_Vel_0
Time_Shift_12
Note_On_81_Vel_75
Time_Shift_47
Note_On_62_Vel_50
Time_Shift_5
Note_On_60_Vel_50
Time_Shift_4
Note_On_54_Vel_50
Time_Shift_154
Sustain_On
Time_Shift_274
Note_On_50_Vel_36
Time_Shift_67
Note_On_86_Vel_67
Time_Shift_210
Note_On_79_Vel_56
Time_Shift_66
Note_On_79_Vel_0
Time_Shift_2
Note_On_50_Vel_0
Time_Shift_1
Note_On_54_Vel_0
Time_Shift_3
Note_On_60_Vel_0
Note_On_62_Vel_0
Note_On_81_Vel_0
Time_Shift_4
Sustain_Off
Time_Shift_5
Note_On_43_Vel_45
Time_Shift_2
Note_On_91_Vel_64
Time_Shift_19
Note_On_86_Vel_0
Time_Shift_77
Sustain_On
Time_Shift_349
Note_On_62_Vel_56
Time_Shift_34
Note_On_58_Vel_39
Time_Shift_5
Note_On_55_Vel_22
Time_Shift_184
Note_On_79_Vel_79
Time_Shift_227
Note_On_55_Vel_0
Note_On_79_Vel_0
Time_Shift_4
Note_On_63_Vel_51
Note_On_79_Vel_71
Time_Shift_7
Note_On_55_Vel_41
Time_Shift_4
Note_On_58_Vel_0
Time_Shift_5
Note_On_58_Vel_42
Time_Shift_141
Note_On_79_Vel_0
Time_Shift_7
Note_On_79_Vel_77
Time_Shift_170
Note_On_91_Vel_0
Time_Shift_10
Note_On_45_Vel_57
Time_Shift_24
Sustain_Off
Time_Shift_4
Note_On_79_Vel_0
Time_Shift_10
Note_On_79_Vel_66
Time_Shift_25
Note_On_63_Vel_0
Note_On_55_Vel_0
Time_Shift_2
Note_On_43_Vel_0
Time_Shift_3
Note_On_58_Vel_0
Time_Shift_6
Note_On_62_Vel_0
Time_Shift_108
Note_On_45_Vel_0
Sustain_On
Time_Shift_271
Note_On_63_Vel_52
Time_Shift_24
Note_On_60_Vel_46
Time_Shift_2
Note_On_53_Vel_38
Time_Shift_130
Note_On_77_Vel_81
Time_Shift_149
Note_On_63_Vel_0
Time_Shift_5
Note_On_63_Vel_56
Time_Shift_6
Note_On_57_Vel_59
Time_Shift_3
Note_On_76_Vel_75
Time_Shift_1
Note_On_53_Vel_0
Time_Shift_11
Note_On_53_Vel_52
Time_Shift_119
Note_On_75_Vel_82
Time_Shift_119
Note_On_76_Vel_0
Note_On_75_Vel_0
Note_On_60_Vel_0
Note_On_63_Vel_0
Note_On_53_Vel_0
Time_Shift_1
Note_On_57_Vel_0
Note_On_77_Vel_0
Sustain_Off
Time_Shift_11
Note_On_79_Vel_0
Time_Shift_32
Note_On_74_Vel_75
Time_Shift_8
Note_On_46_Vel_60
Time_Shift_37
Sustain_On
Time_Shift_34
Note_On_76_Vel_50
Time_Shift_79
Note_On_75_Vel_73
Time_Shift_41
Note_On_74_Vel_0
Time_Shift_9
Note_On_74_Vel_71
Time_Shift_40
Note_On_72_Vel_78
Time_Shift_21
Note_On_62_Vel_55
Time_Shift_3
Sustain_Off
Note_On_74_Vel_0
Note_On_75_Vel_0
Time_Shift_2
Note_On_58_Vel_60
Time_Shift_7
Note_On_53_Vel_52
Time_Shift_2
Note_On_46_Vel_0
Time_Shift_15
Note_On_76_Vel_0
Time_Shift_30
Note_On_53_Vel_0
Time_Shift_9
Note_On_72_Vel_0
Time_Shift_15
Sustain_On
Time_Shift_131
Note_On_58_Vel_0
Time_Shift_19
Note_On_70_Vel_60
Time_Shift_34
Sustain_Off
Time_Shift_8
Note_On_62_Vel_0
Time_Shift_4
Note_On_69_Vel_69
Time_Shift_1
Note_On_62_Vel_60
Time_Shift_12
Note_On_70_Vel_0
Time_Shift_2
Note_On_58_Vel_57
Time_Shift_3
Note_On_53_Vel_55
Time_Shift_13
Note_On_69_Vel_0
Time_Shift_34
Note_On_62_Vel_0
Time_Shift_23
Note_On_53_Vel_0
Time_Shift_8
Note_On_58_Vel_0
Time_Shift_46
Note_On_67_Vel_56
Time_Shift_31
Note_On_67_Vel_0
Time_Shift_109
Note_On_65_Vel_70
Time_Shift_4
Note_On_41_Vel_59
Time_Shift_56
Sustain_On
Time_Shift_217
Note_On_67_Vel_63
Time_Shift_34
Note_On_65_Vel_0
Time_Shift_5
Note_On_69_Vel_76
Time_Shift_1
Note_On_41_Vel_0
Time_Shift_3
Note_On_63_Vel_64
Time_Shift_1
Sustain_Off
Time_Shift_5
Note_On_67_Vel_0
Time_Shift_9
Note_On_60_Vel_55
Time_Shift_7
Note_On_53_Vel_47
Time_Shift_13
Note_On_63_Vel_0
Time_Shift_4
Note_On_69_Vel_0
Time_Shift_14
Note_On_53_Vel_0
Time_Shift_9
Note_On_60_Vel_0
Time_Shift_60
Note_On_70_Vel_69
Time_Shift_46
Note_On_70_Vel_0
Time_Shift_81
Note_On_71_Vel_75
Time_Shift_1
Note_On_63_Vel_66
Time_Shift_4
Note_On_57_Vel_61
Time_Shift_2
Note_On_53_Vel_55
Time_Shift_18
Note_On_71_Vel_0
Time_Shift_8
Note_On_63_Vel_0
Time_Shift_8
Note_On_57_Vel_0
Time_Shift_14
Note_On_53_Vel_0
Time_Shift_55
Note_On_72_Vel_74
Time_Shift_30
Note_On_72_Vel_0
Time_Shift_145
Note_On_74_Vel_78
Note_On_46_Vel_64
Time_Shift_20
Sustain_On
Time_Shift_19
Note_On_75_Vel_61
Time_Shift_42
Note_On_74_Vel_0
Time_Shift_11
Note_On_74_Vel_81
Time_Shift_58
Note_On_75_Vel_0
Time_Shift_5
Note_On_75_Vel_76
Time_Shift_34
Note_On_74_Vel_0
Time_Shift_7
Note_On_74_Vel_71
Time_Shift_39
Note_On_72_Vel_89
Time_Shift_10
Note_On_62_Vel_61
Time_Shift_18
Note_On_53_Vel_62
Time_Shift_1
Note_On_58_Vel_59
Time_Shift_4
Note_On_75_Vel_0
Time_Shift_1
Note_On_74_Vel_0
Time_Shift_1
Note_On_46_Vel_0
Time_Shift_1
Sustain_Off
Note_On_72_Vel_0
Time_Shift_8
Note_On_62_Vel_0
Time_Shift_21
Note_On_53_Vel_0
Time_Shift_12
Note_On_58_Vel_0
Time_Shift_72
Note_On_70_Vel_80
Time_Shift_39
Note_On_70_Vel_0
Time_Shift_91
Note_On_62_Vel_67
Time_Shift_8
Note_On_69_Vel_77
Time_Shift_4
Note_On_53_Vel_63
Time_Shift_4
Note_On_58_Vel_63
Time_Shift_19
Note_On_62_Vel_0
Time_Shift_6
Note_On_69_Vel_0
Time_Shift_7
Note_On_58_Vel_0
Time_Shift_8
Note_On_53_Vel_0
Time_Shift_53
Note_On_67_Vel_76
Time_Shift_1
Note_On_79_Vel_71
Time_Shift_32
Note_On_67_Vel_0
Time_Shift_24
Note_On_79_Vel_0
Time_Shift_89
Note_On_65_Vel_57
Time_Shift_37
Note_On_65_Vel_0
Time_Shift_47
Note_On_41_Vel_48
Time_Shift_67
Note_On_79_Vel_77
Time_Shift_33
Note_On_41_Vel_0
Time_Shift_50
Sustain_On
Time_Shift_268
Note_On_63_Vel_50
Time_Shift_4
Note_On_53_Vel_44
Time_Shift_17
Note_On_57_Vel_34
Time_Shift_96
Note_On_77_Vel_83
Time_Shift_152
Note_On_57_Vel_0
Note_On_63_Vel_0
Time_Shift_5
Note_On_76_Vel_72
Note_On_63_Vel_46
Time_Shift_3
Note_On_53_Vel_0
Time_Shift_3
Note_On_57_Vel_51
Time_Shift_6
Note_On_53_Vel_51
Time_Shift_109
Note_On_75_Vel_86
Time_Shift_1
Note_On_87_Vel_71
Time_Shift_4
Note_On_87_Vel_0
Time_Shift_104
Note_On_75_Vel_0
Note_On_76_Vel_0
Note_On_79_Vel_0
Note_On_77_Vel_0
Time_Shift_1
Note_On_57_Vel_0
Note_On_53_Vel_0
Time_Shift_1
Note_On_63_Vel_0
Sustain_Off
Time_Shift_37
Note_On_63_Vel_54
Time_Shift_6
Note_On_74_Vel_77
Time_Shift_14
Note_On_46_Vel_60
Time_Shift_21
Sustain_On
Time_Shift_127
Note_On_87_Vel_72
Time_Shift_1
Note_On_75_Vel_74
Time_Shift_11
Note_On_87_Vel_0
Time_Shift_30
Note_On_74_Vel_0
Time_Shift_10
Note_On_74_Vel_73
Time_Shift_29
Note_On_63_Vel_0
Time_Shift_6
Note_On_46_Vel_0
Note_On_74_Vel_0
Time_Shift_2
Sustain_Off
Note_On_72_Vel_73
Time_Shift_1
Note_On_75_Vel_0
Time_Shift_2
Note_On_62_Vel_49
Time_Shift_15
Note_On_58_Vel_49
Time_Shift_5
Note_On_53_Vel_49
Time_Shift_7
Note_On_72_Vel_0
Time_Shift_19
Note_On_62_Vel_0
Time_Shift_7
Note_On_58_Vel_0
Time_Shift_2
Note_On_53_Vel_0
Time_Shift_168
Note_On_70_Vel_76
Time_Shift_1
Note_On_82_Vel_72
Time_Shift_10
Note_On_82_Vel_0
Time_Shift_18
Note_On_81_Vel_77
Time_Shift_5
Note_On_62_Vel_61
Note_On_69_Vel_84
Time_Shift_20
Note_On_70_Vel_0
Time_Shift_5
Note_On_58_Vel_51
Time_Shift_3
Note_On_62_Vel_0
Note_On_53_Vel_43
Time_Shift_11
Note_On_69_Vel_0
Time_Shift_15
Note_On_81_Vel_0
Time_Shift_46
Note_On_58_Vel_0
Time_Shift_16
Note_On_53_Vel_0
Time_Shift_43
Note_On_67_Vel_68
Time_Shift_56
Note_On_67_Vel_0
Time_Shift_12
Note_On_65_Vel_76
Time_Shift_32
Note_On_41_Vel_77
Note_On_65_Vel_0
Time_Shift_49
Sustain_On
Time_Shift_200
Note_On_79_Vel_69
Time_Shift_3
Note_On_67_Vel_74
Time_Shift_4
Note_On_79_Vel_0
Time_Shift_11
Note_On_69_Vel_78
Time_Shift_8
Note_On_81_Vel_75
Time_Shift_9
Note_On_63_Vel_71
Time_Shift_3
Sustain_Off
Time_Shift_12
Note_On_67_Vel_0
Time_Shift_2
Note_On_53_Vel_50
Note_On_69_Vel_0
Time_Shift_2
Note_On_57_Vel_58
Time_Shift_11
Note_On_63_Vel_0
Time_Shift_4
Note_On_41_Vel_0
Note_On_81_Vel_0
Time_Shift_18
Note_On_57_Vel_0
Time_Shift_4
Note_On_53_Vel_0
Time_Shift_58
Note_On_70_Vel_77
Time_Shift_32
Note_On_70_Vel_0
Time_Shift_82
Note_On_72_Vel_87
Time_Shift_5
Note_On_63_Vel_62
Time_Shift_4
Note_On_57_Vel_62
Time_Shift_5
Note_On_53_Vel_60
Time_Shift_18
Note_On_72_Vel_0
Time_Shift_6
Note_On_63_Vel_0
Time_Shift_6
Note_On_57_Vel_0
Time_Shift_12
Note_On_53_Vel_0
Time_Shift_62
Note_On_73_Vel_87
Time_Shift_38
Note_On_73_Vel_0
Time_Shift_98
Note_On_74_Vel_90
Time_Shift_3
Note_On_46_Vel_71
Time_Shift_17
Sustain_On
Time_Shift_270
Note_On_65_Vel_74
Time_Shift_27
Sustain_Off
Time_Shift_6
Note_On_74_Vel_0
Time_Shift_4
Note_On_46_Vel_0
Time_Shift_20
Note_On_62_Vel_52
Time_Shift_4
Note_On_65_Vel_0
Time_Shift_2
Note_On_70_Vel_74
Time_Shift_3
Note_On_53_Vel_55
Time_Shift_6
Note_On_58_Vel_55
Time_Shift_22
Note_On_53_Vel_0
Time_Shift_12
Note_On_62_Vel_0
Time_Shift_23
Note_On_58_Vel_0
Time_Shift_69
Sustain_On
Time_Shift_253
Note_On_70_Vel_0
Time_Shift_11
Sustain_Off
Time_Shift_8
Note_On_74_Vel_68
Time_Shift_1
Note_On_62_Vel_38
Time_Shift_24
Note_On_58_Vel_37
Time_Shift_6
Note_On_53_Vel_40
Time_Shift_81
Sustain_On
Time_Shift_120
Note_On_65_Vel_57
Time_Shift_122
Note_On_45_Vel_58
Time_Shift_38
Note_On_65_Vel_0
Note_On_62_Vel_0
Time_Shift_1
Note_On_53_Vel_0
Note_On_58_Vel_0
Note_On_74_Vel_0
Time_Shift_2
Sustain_Off
Time_Shift_41
Note_On_79_Vel_63
Time_Shift_35
Note_On_45_Vel_0
Time_Shift_56
Sustain_On
Time_Shift_196
Note_On_53_Vel_17
Time_Shift_96
Note_On_63_Vel_50
Time_Shift_4
Note_On_60_Vel_46
Time_Shift_4
Note_On_53_Vel_0
Time_Shift_6
Note_On_53_Vel_42
Time_Shift_159
Note_On_77_Vel_75
Time_Shift_142
Note_On_63_Vel_0
Time_Shift_6
Note_On_76_Vel_75
Time_Shift_1
Note_On_63_Vel_53
Time_Shift_1
Note_On_60_Vel_0
Time_Shift_7
Note_On_60_Vel_52
Time_Shift_8
Note_On_53_Vel_0
Time_Shift_3
Note_On_57_Vel_38
Time_Shift_5
Note_On_57_Vel_0
Note_On_53_Vel_42
Time_Shift_99
Note_On_75_Vel_78
Time_Shift_130
Note_On_63_Vel_0
Note_On_79_Vel_0
Note_On_75_Vel_0
Note_On_76_Vel_0
Time_Shift_1
Note_On_60_Vel_0
Time_Shift_1
Note_On_53_Vel_0
Note_On_77_Vel_0
Time_Shift_11
Sustain_Off
Time_Shift_52
Note_On_74_Vel_87
Time_Shift_2
Note_On_46_Vel_67
Time_Shift_26
Sustain_On
Time_Shift_77
Note_On_74_Vel_0
Time_Shift_11
Note_On_74_Vel_64
Time_Shift_38
Note_On_75_Vel_59
Time_Shift_43
Note_On_74_Vel_0
Time_Shift_5
Note_On_74_Vel_65
Time_Shift_48
Note_On_72_Vel_77
Time_Shift_13
Note_On_62_Vel_58
Time_Shift_8
Sustain_Off
Time_Shift_3
Note_On_53_Vel_63
Note_On_75_Vel_0
Time_Shift_3
Note_On_74_Vel_0
Time_Shift_1
Note_On_72_Vel_0
Time_Shift_3
Note_On_46_Vel_0
Time_Shift_3
Note_On_58_Vel_50
Time_Shift_11
Note_On_62_Vel_0
Time_Shift_7
Note_On_53_Vel_0
Time_Shift_13
Note_On_58_Vel_0
Time_Shift_184
Note_On_70_Vel_72
Time_Shift_33
Note_On_62_Vel_67
Time_Shift_3
Note_On_69_Vel_74
Time_Shift_12
Note_On_70_Vel_0
Time_Shift_8
Note_On_53_Vel_59
Time_Shift_1
Note_On_58_Vel_59
Time_Shift_8
Note_On_62_Vel_0
Time_Shift_5
Note_On_69_Vel_0
Time_Shift_43
Note_On_53_Vel_0
Note_On_58_Vel_0
Time_Shift_52
Note_On_67_Vel_53
Time_Shift_37
Note_On_67_Vel_0
Time_Shift_97
Note_On_65_Vel_74
Time_Shift_5
Note_On_41_Vel_66
Time_Shift_24
Sustain_On
Time_Shift_210
Note_On_67_Vel_73
Time_Shift_25
Note_On_65_Vel_0
Time_Shift_4
Note_On_41_Vel_0
Time_Shift_3
Note_On_69_Vel_74
Time_Shift_3
Note_On_63_Vel_60
Time_Shift_4
Note_On_67_Vel_0
Sustain_Off
Time_Shift_2
Note_On_53_Vel_54
Time_Shift_7
Note_On_60_Vel_54
Time_Shift_22
Note_On_63_Vel_0
Time_Shift_1
Note_On_69_Vel_0
Time_Shift_15
Note_On_53_Vel_0
Time_Shift_11
Note_On_60_Vel_0
Time_Shift_60
Note_On_70_Vel_73
Time_Shift_35
Note_On_70_Vel_0
Time_Shift_100
Note_On_57_Vel_64
Time_Shift_1
Note_On_71_Vel_79
Note_On_63_Vel_66
Time_Shift_8
Note_On_53_Vel_53
Time_Shift_23
Note_On_71_Vel_0
Time_Shift_1
Note_On_63_Vel_0
Time_Shift_1
Note_On_57_Vel_0
Time_Shift_7
Note_On_53_Vel_0
Time_Shift_65
Note_On_72_Vel_83
Time_Shift_31
Note_On_72_Vel_0
Time_Shift_133
Note_On_46_Vel_75
Time_Shift_5
Note_On_74_Vel_84
Time_Shift_18
Note_On_75_Vel_79
Time_Shift_4
Sustain_On
Time_Shift_61
Note_On_74_Vel_0
Time_Shift_6
Note_On_74_Vel_73
Time_Shift_109
Note_On_74_Vel_0
Time_Shift_6
Note_On_74_Vel_81
Time_Shift_37
Note_On_72_Vel_81
Time_Shift_1
Note_On_62_Vel_63
Time_Shift_5
Note_On_53_Vel_70
Time_Shift_27
Note_On_74_Vel_0
Sustain_Off
Time_Shift_3
Note_On_72_Vel_0
Time_Shift_2
Note_On_58_Vel_41
Time_Shift_2
Note_On_62_Vel_0
Time_Shift_2
Note_On_75_Vel_0
Time_Shift_2
Note_On_53_Vel_0
Time_Shift_5
Note_On_46_Vel_0
Time_Shift_23
Note_On_58_Vel_0
Time_Shift_79
Note_On_70_Vel_73
Time_Shift_47
Note_On_70_Vel_0
Time_Shift_80
Note_On_62_Vel_58
Note_On_69_Vel_72
Time_Shift_14
Note_On_58_Vel_59
Time_Shift_4
Note_On_53_Vel_56
Time_Shift_12
Note_On_69_Vel_0
Time_Shift_1
Note_On_62_Vel_0
Time_Shift_48
Note_On_53_Vel_0
Note_On_58_Vel_0
Time_Shift_36
Note_On_67_Vel_64
Time_Shift_29
Note_On_67_Vel_0
Time_Shift_117
Note_On_65_Vel_59
Time_Shift_30
Note_On_65_Vel_0
Time_Shift_21
Note_On_41_Vel_56
Time_Shift_48
Note_On_79_Vel_73
Time_Shift_34
Sustain_On
Time_Shift_303
Note_On_63_Vel_51
Time_Shift_14
Note_On_57_Vel_43
Time_Shift_2
Note_On_53_Vel_44
Time_Shift_34
Sustain_Off
Time_Shift_83
Note_On_77_Vel_71
Time_Shift_140
Note_On_41_Vel_0
Time_Shift_2
Note_On_57_Vel_0
Time_Shift_1
Note_On_53_Vel_0
Note_On_79_Vel_0
Time_Shift_1
Note_On_63_Vel_0
Note_On_77_Vel_0
Time_Shift_30
Note_On_76_Vel_70
Time_Shift_1
Note_On_63_Vel_52
Time_Shift_4
Note_On_57_Vel_56
Time_Shift_27
Note_On_53_Vel_40
Time_Shift_15
Note_On_63_Vel_0
Time_Shift_7
Note_On_76_Vel_0
Time_Shift_2
Note_On_57_Vel_0
Time_Shift_14
Note_On_53_Vel_0
Time_Shift_53
Note_On_75_Vel_70
Time_Shift_24
Note_On_75_Vel_0
Time_Shift_139
Note_On_74_Vel_78
Time_Shift_3
Note_On_46_Vel_66
Time_Shift_2
Note_On_72_Vel_64
Time_Shift_12
Sustain_On
Time_Shift_70
Note_On_74_Vel_0
Time_Shift_4
Note_On_74_Vel_80
Time_Shift_66
Note_On_75_Vel_75
Time_Shift_29
Note_On_74_Vel_0
Time_Shift_12
Note_On_74_Vel_67
Time_Shift_27
Note_On_72_Vel_0
Time_Shift_5
Note_On_74_Vel_0
Time_Shift_1
Note_On_72_Vel_83
Time_Shift_1
Note_On_46_Vel_0
Time_Shift_2
Sustain_Off
Note_On_75_Vel_0
Note_On_62_Vel_65
Time_Shift_7
Note_On_46_Vel_62
Time_Shift_11
Note_On_53_Vel_58
Time_Shift_1
Note_On_58_Vel_55
Time_Shift_7
Note_On_72_Vel_0
Time_Shift_14
Note_On_62_Vel_0
Time_Shift_9
Note_On_53_Vel_0
Time_Shift_11
Note_On_46_Vel_0
Time_Shift_8
Note_On_58_Vel_0
Time_Shift_173
Note_On_70_Vel_79
Time_Shift_38
Note_On_69_Vel_81
Time_Shift_1
Note_On_62_Vel_61
Time_Shift_13
Note_On_53_Vel_64
Time_Shift_3
Note_On_70_Vel_0
Time_Shift_7
Note_On_58_Vel_53
Time_Shift_33
Note_On_53_Vel_0
Time_Shift_10
Note_On_69_Vel_0
Time_Shift_6
Note_On_62_Vel_0
Time_Shift_23
Note_On_58_Vel_0
Time_Shift_29
Note_On_67_Vel_77
Time_Shift_45
Note_On_67_Vel_0
Time_Shift_91
Note_On_41_Vel_77
Time_Shift_1
Note_On_65_Vel_85
Time_Shift_33
Sustain_On
Time_Shift_195
Note_On_67_Vel_79
Time_Shift_40
Note_On_69_Vel_72
Note_On_63_Vel_69
Time_Shift_1
Note_On_53_Vel_59
Time_Shift_1
Note_On_60_Vel_75
Time_Shift_12
Sustain_Off
Time_Shift_7
Note_On_65_Vel_0
Note_On_41_Vel_0
Time_Shift_2
Note_On_67_Vel_0
Time_Shift_7
Note_On_69_Vel_0
Time_Shift_1
Note_On_60_Vel_0
Time_Shift_19
Note_On_53_Vel_0
Note_On_63_Vel_0
Time_Shift_66
Note_On_70_Vel_80
Time_Shift_40
Note_On_70_Vel_0
Time_Shift_90
Note_On_63_Vel_74
Note_On_72_Vel_90
Time_Shift_6
Note_On_57_Vel_72
Time_Shift_7
Note_On_53_Vel_66
Time_Shift_25
Note_On_72_Vel_0
Time_Shift_12
Note_On_63_Vel_0
Time_Shift_7
Note_On_57_Vel_0
Time_Shift_12
Note_On_53_Vel_0
Time_Shift_53
Note_On_73_Vel_92
Time_Shift_40
Note_On_73_Vel_0
Time_Shift_109
Note_On_74_Vel_93
Time_Shift_2
Note_On_46_Vel_76
Time_Shift_22
Sustain_On
Time_Shift_275
Note_On_65_Vel_66
Time_Shift_30
Sustain_Off
Time_Shift_6
Note_On_74_Vel_0
Note_On_46_Vel_0
Time_Shift_9
Note_On_62_Vel_75
Time_Shift_10
Note_On_70_Vel_83
Time_Shift_4
Note_On_53_Vel_67
Note_On_58_Vel_73
Time_Shift_27
Note_On_65_Vel_0
Time_Shift_8
Note_On_58_Vel_0
Time_Shift_3
Note_On_53_Vel_0
Time_Shift_35
Sustain_On
Time_Shift_146
Note_On_62_Vel_0
Time_Shift_173
Sustain_Off
Time_Shift_9
Note_On_72_Vel_93
Time_Shift_1
Note_On_84_Vel_80
Time_Shift_1
Note_On_70_Vel_0
Time_Shift_8
Note_On_84_Vel_0
Time_Shift_3
Note_On_63_Vel_74
Time_Shift_10
Note_On_57_Vel_70
Time_Shift_6
Note_On_53_Vel_66
Time_Shift_66
Sustain_On
Time_Shift_266
Sustain_Off
Time_Shift_3
Note_On_74_Vel_93
Time_Shift_5
Note_On_53_Vel_0
Time_Shift_1
Note_On_57_Vel_0
Time_Shift_2
Note_On_63_Vel_0
Time_Shift_1
Note_On_72_Vel_0
Time_Shift_2
Note_On_46_Vel_84
Time_Shift_73
Sustain_On
Time_Shift_92
Note_On_46_Vel_0
Time_Shift_69
Note_On_74_Vel_0
Time_Shift_11
Note_On_74_Vel_74
Time_Shift_30
Note_On_62_Vel_71
Time_Shift_1
Sustain_Off
Time_Shift_3
Note_On_58_Vel_68
Time_Shift_3
Note_On_53_Vel_70
Time_Shift_2
Note_On_70_Vel_74
Time_Shift_25
Note_On_62_Vel_0
Time_Shift_7
Note_On_58_Vel_0
Time_Shift_3
Note_On_74_Vel_0
Note_On_53_Vel_0
Time_Shift_3
Note_On_70_Vel_0
Time_Shift_263
Note_On_73_Vel_86
Time_Shift_28
Note_On_70_Vel_64
Time_Shift_1
Note_On_61_Vel_66
Time_Shift_1
Note_On_53_Vel_63
Time_Shift_4
Note_On_58_Vel_57
Time_Shift_7
Sustain_On
Time_Shift_243
Note_On_74_Vel_92
Time_Shift_9
Note_On_73_Vel_0
Time_Shift_1
Note_On_58_Vel_0
Time_Shift_3
Note_On_62_Vel_63
Time_Shift_1
Note_On_61_Vel_0
Time_Shift_7
Sustain_Off
Note_On_58_Vel_68
Time_Shift_5
Note_On_53_Vel_0
Time_Shift_7
Note_On_70_Vel_0
Note_On_53_Vel_56
Time_Shift_12
Note_On_75_Vel_59
Time_Shift_34
Sustain_On
Time_Shift_54
Note_On_75_Vel_0
Time_Shift_5
Note_On_75_Vel_59
Time_Shift_57
Note_On_74_Vel_0
Time_Shift_4
Note_On_74_Vel_78
Time_Shift_45
Note_On_72_Vel_86
Time_Shift_16
Sustain_Off
Time_Shift_5
Note_On_74_Vel_0
Time_Shift_1
Note_On_75_Vel_0
Time_Shift_1
Note_On_62_Vel_0
Note_On_64_Vel_69
Time_Shift_4
Note_On_53_Vel_0
Note_On_58_Vel_0
Time_Shift_5
Note_On_53_Vel_64
Note_On_58_Vel_63
Time_Shift_26
Note_On_72_Vel_0
Time_Shift_2
Note_On_64_Vel_0
Time_Shift_21
Note_On_58_Vel_0
Time_Shift_8
Note_On_53_Vel_0
Time_Shift_170
Note_On_76_Vel_81
Time_Shift_36
Note_On_76_Vel_0
Time_Shift_10
Note_On_79_Vel_79
Time_Shift_5
Note_On_64_Vel_57
Time_Shift_4
Note_On_72_Vel_56
Time_Shift_19
Note_On_53_Vel_51
Time_Shift_6
Note_On_58_Vel_38
Time_Shift_3
Sustain_On
Time_Shift_242
Note_On_77_Vel_87
Time_Shift_1
Note_On_58_Vel_0
Time_Shift_2
Note_On_64_Vel_0
Note_On_65_Vel_75
Time_Shift_1
Note_On_72_Vel_0
Time_Shift_4
Note_On_79_Vel_0
Time_Shift_4
Note_On_53_Vel_0
Time_Shift_1
Sustain_Off
Time_Shift_4
Note_On_57_Vel_70
Time_Shift_2
Note_On_53_Vel_61
Time_Shift_9
Note_On_77_Vel_0
Time_Shift_21
Note_On_57_Vel_0
Time_Shift_9
Note_On_65_Vel_0
Time_Shift_15
Note_On_53_Vel_0
Time_Shift_196
Note_On_77_Vel_81
Time_Shift_44
Note_On_72_Vel_81
Time_Shift_8
Note_On_63_Vel_58
Time_Shift_10
Note_On_57_Vel_57
Time_Shift_1
Note_On_69_Vel_58
Time_Shift_6
Note_On_53_Vel_56
Time_Shift_12
Sustain_On
Time_Shift_15
Note_On_77_Vel_0
Time_Shift_207
Note_On_63_Vel_0
Time_Shift_8
Note_On_57_Vel_0
Time_Shift_2
Note_On_63_Vel_65
Time_Shift_1
Note_On_72_Vel_0
Time_Shift_5
Note_On_53_Vel_0
Note_On_57_Vel_54
Time_Shift_1
Sustain_Off
Time_Shift_4
Note_On_53_Vel_47
Time_Shift_33
Note_On_69_Vel_0
Time_Shift_22
Note_On_75_Vel_81
Time_Shift_12
Note_On_53_Vel_0
Time_Shift_5
Note_On_57_Vel_0
Note_On_63_Vel_0
Time_Shift_4
Note_On_75_Vel_0
Time_Shift_183
Note_On_74_Vel_90
Time_Shift_1
Note_On_46_Vel_72
Time_Shift_14
Note_On_75_Vel_89
Time_Shift_4
Note_On_87_Vel_75
Time_Shift_21
Note_On_46_Vel_0
Time_Shift_1
Note_On_74_Vel_0
Time_Shift_3
Note_On_75_Vel_0
Time_Shift_1
Note_On_87_Vel_0
Time_Shift_25
Note_On_86_Vel_60
Time_Shift_4
Sustain_On
Time_Shift_78
Note_On_75_Vel_66
Time_Shift_38
Note_On_86_Vel_0
Time_Shift_5
Note_On_74_Vel_58
Time_Shift_42
Note_On_72_Vel_81
Time_Shift_10
Note_On_63_Vel_66
Time_Shift_7
Note_On_57_Vel_68
Time_Shift_3
Note_On_53_Vel_64
Time_Shift_5
Note_On_69_Vel_63
Time_Shift_11
Note_On_69_Vel_0
Time_Shift_5
Note_On_74_Vel_0
Time_Shift_1
Note_On_75_Vel_0
Time_Shift_5
Note_On_72_Vel_0
Time_Shift_2
Note_On_63_Vel_0
Note_On_57_Vel_0
Time_Shift_1
Sustain_Off
Time_Shift_4
Note_On_53_Vel_0
Time_Shift_228
Note_On_69_Vel_62
Time_Shift_31
Note_On_69_Vel_0
Time_Shift_25
Note_On_65_Vel_61
Time_Shift_9
Note_On_63_Vel_56
Time_Shift_9
Note_On_53_Vel_45
Note_On_57_Vel_56
Time_Shift_26
Sustain_On
Time_Shift_225
Sustain_Off
Time_Shift_3
Note_On_53_Vel_0
Note_On_63_Vel_0
Note_On_57_Vel_0
Time_Shift_4
Note_On_65_Vel_0
Time_Shift_21
Note_On_74_Vel_68
Time_Shift_4
Note_On_46_Vel_70
Time_Shift_17
Note_On_74_Vel_0
Time_Shift_17
Note_On_46_Vel_0
Time_Shift_223
Note_On_74_Vel_66
Time_Shift_41
Note_On_74_Vel_0
Time_Shift_3
Note_On_62_Vel_59
Time_Shift_5
Note_On_70_Vel_63
Time_Shift_8
Note_On_53_Vel_59
Time_Shift_7
Note_On_58_Vel_56
Time_Shift_21
Sustain_On
Time_Shift_266
Note_On_62_Vel_0
Time_Shift_1
Note_On_70_Vel_0
Note_On_53_Vel_0
Time_Shift_2
Sustain_Off
Time_Shift_27
Note_On_73_Vel_76
Time_Shift_3
Note_On_58_Vel_0
Time_Shift_1
Note_On_70_Vel_64
Time_Shift_3
Note_On_61_Vel_69
Time_Shift_4
Note_On_58_Vel_63
Time_Shift_7
Note_On_53_Vel_60
Time_Shift_47
Sustain_On
Time_Shift_15
Note_On_70_Vel_0
Time_Shift_190
Sustain_Off
Time_Shift_1
Note_On_61_Vel_0
Time_Shift_2
Note_On_58_Vel_0
Time_Shift_7
Note_On_53_Vel_0
Time_Shift_8
Note_On_73_Vel_0
Time_Shift_7
Note_On_74_Vel_90
Time_Shift_8
Note_On_62_Vel_67
Time_Shift_30
Note_On_58_Vel_35
Time_Shift_4
Note_On_53_Vel_49
Time_Shift_5
Note_On_75_Vel_65
Time_Shift_7
Sustain_On
Time_Shift_31
Note_On_74_Vel_0
Time_Shift_11
Note_On_74_Vel_69
Time_Shift_73
Note_On_75_Vel_0
Time_Shift_9
Note_On_75_Vel_64
Time_Shift_45
Note_On_74_Vel_0
Time_Shift_10
Note_On_74_Vel_75
Time_Shift_55
Note_On_72_Vel_82
Time_Shift_9
Note_On_62_Vel_0
Time_Shift_1
Note_On_75_Vel_0
Time_Shift_3
Note_On_74_Vel_0
Time_Shift_2
Sustain_Off
Time_Shift_4
Note_On_64_Vel_71
Time_Shift_1
Note_On_53_Vel_0
Time_Shift_7
Note_On_58_Vel_0
Time_Shift_2
Note_On_53_Vel_63
Time_Shift_8
Note_On_72_Vel_0
Time_Shift_1
Note_On_58_Vel_50
Time_Shift_24
Note_On_58_Vel_0
Time_Shift_4
Note_On_64_Vel_0
Time_Shift_7
Note_On_53_Vel_0
Time_Shift_211
Note_On_72_Vel_51
Note_On_76_Vel_66
Time_Shift_31
Note_On_76_Vel_0
Time_Shift_12
Note_On_72_Vel_0
Time_Shift_3
Note_On_79_Vel_73
Time_Shift_10
Note_On_64_Vel_59
Time_Shift_7
Note_On_58_Vel_52
Time_Shift_7
Note_On_53_Vel_51
Time_Shift_11
Sustain_On
Time_Shift_245
Sustain_Off
Time_Shift_5
Note_On_65_Vel_78
Time_Shift_2
Note_On_64_Vel_0
Time_Shift_1
Note_On_58_Vel_0
Note_On_77_Vel_83
Time_Shift_3
Note_On_79_Vel_0
Time_Shift_5
Note_On_53_Vel_0
Time_Shift_5
Note_On_53_Vel_61
Time_Shift_4
Note_On_57_Vel_65
Time_Shift_16
Note_On_77_Vel_0
Time_Shift_29
Note_On_65_Vel_0
Time_Shift_8
Sustain_On
Time_Shift_7
Note_On_53_Vel_0
Time_Shift_198
Note_On_77_Vel_89
Time_Shift_29
Sustain_Off
Time_Shift_25
Note_On_72_Vel_85
Time_Shift_3
Note_On_63_Vel_60
Time_Shift_5
Note_On_77_Vel_0
Time_Shift_1
Note_On_57_Vel_0
Time_Shift_9
Note_On_57_Vel_56
Time_Shift_4
Note_On_53_Vel_50
Time_Shift_26
Sustain_On
Time_Shift_203
Sustain_Off
Time_Shift_4
Note_On_63_Vel_0
Time_Shift_4
Note_On_63_Vel_63
Time_Shift_3
Note_On_69_Vel_56
Time_Shift_1
Note_On_53_Vel_0
Note_On_57_Vel_0
Time_Shift_5
Note_On_57_Vel_58
Time_Shift_3
Note_On_69_Vel_0
Time_Shift_1
Note_On_53_Vel_56
Time_Shift_22
Sustain_On
Time_Shift_65
Note_On_75_Vel_91
Time_Shift_146
Note_On_57_Vel_0
Time_Shift_5
Note_On_63_Vel_0
Time_Shift_1
Note_On_53_Vel_0
Time_Shift_1
Note_On_75_Vel_0
Time_Shift_12
Note_On_46_Vel_66
Time_Shift_8
Sustain_Off
Time_Shift_23
Note_On_72_Vel_0
Time_Shift_11
Note_On_74_Vel_82
Time_Shift_29
Note_On_75_Vel_74
Time_Shift_21
Sustain_On
Time_Shift_23
Note_On_74_Vel_0
Time_Shift_5
Note_On_74_Vel_63
Time_Shift_80
Note_On_75_Vel_0
Time_Shift_4
Note_On_75_Vel_73
Time_Shift_42
Note_On_74_Vel_0
Time_Shift_9
Note_On_74_Vel_70
Time_Shift_41
Note_On_72_Vel_80
Time_Shift_24
Note_On_63_Vel_54
Time_Shift_5
Note_On_46_Vel_0
Note_On_75_Vel_0
Time_Shift_2
Note_On_57_Vel_55
Time_Shift_2
Note_On_72_Vel_0
Time_Shift_6
Sustain_Off
Time_Shift_1
Note_On_53_Vel_53
Time_Shift_17
Note_On_74_Vel_0
Time_Shift_13
Note_On_57_Vel_0
Time_Shift_3
Note_On_63_Vel_0
Time_Shift_7
Note_On_53_Vel_0
Time_Shift_222
Note_On_69_Vel_58
Time_Shift_1
Note_On_72_Vel_49
Time_Shift_28
Note_On_72_Vel_0
Time_Shift_5
Note_On_69_Vel_0
Time_Shift_38
Note_On_63_Vel_59
Time_Shift_1
Note_On_65_Vel_56
Time_Shift_4
Note_On_57_Vel_51
Time_Shift_9
Sustain_On
Note_On_53_Vel_43
Time_Shift_333
Note_On_57_Vel_0
Time_Shift_1
Sustain_Off
Time_Shift_2
Note_On_63_Vel_0
Time_Shift_2
Note_On_53_Vel_0
Time_Shift_4
Note_On_46_Vel_67
Time_Shift_19
Note_On_65_Vel_0
Time_Shift_3
Note_On_65_Vel_68
Time_Shift_19
Note_On_46_Vel_0
Time_Shift_31
Note_On_65_Vel_0
Time_Shift_30
Note_On_67_Vel_69
Time_Shift_60
Note_On_67_Vel_0
Time_Shift_24
Note_On_69_Vel_71
Time_Shift_67
Note_On_69_Vel_0
Time_Shift_7
Note_On_70_Vel_78
Time_Shift_7
Note_On_62_Vel_55
Time_Shift_2
Note_On_53_Vel_60
Time_Shift_2
Note_On_58_Vel_60
Time_Shift_20
Note_On_62_Vel_0
Time_Shift_12
Note_On_53_Vel_0
Time_Shift_2
Note_On_58_Vel_0
Time_Shift_294
Note_On_71_Vel_87
Time_Shift_3
Sustain_On
Time_Shift_1
Note_On_62_Vel_66
Time_Shift_3
Note_On_56_Vel_59
Time_Shift_4
Note_On_53_Vel_64
Time_Shift_251
Note_On_53_Vel_0
Note_On_56_Vel_0
Time_Shift_1
Note_On_62_Vel_0
Note_On_71_Vel_0
Time_Shift_4
Sustain_Off
Time_Shift_5
Note_On_70_Vel_0
Time_Shift_42
Note_On_72_Vel_89
Time_Shift_1
Note_On_39_Vel_73
Time_Shift_36
Note_On_39_Vel_0
Time_Shift_52
Sustain_On
Time_Shift_203
Note_On_74_Vel_75
Time_Shift_27
Note_On_72_Vel_0
Time_Shift_5
Sustain_Off
Time_Shift_6
Note_On_74_Vel_0
Time_Shift_29
Note_On_63_Vel_60
Time_Shift_2
Note_On_55_Vel_39
Time_Shift_1
Note_On_75_Vel_83
Time_Shift_1
Note_On_60_Vel_36
Time_Shift_2
Note_On_67_Vel_37
Time_Shift_8
Note_On_60_Vel_0
Note_On_67_Vel_0
Time_Shift_29
Note_On_63_Vel_0
Time_Shift_5
Note_On_55_Vel_0
Time_Shift_50
Sustain_On
Time_Shift_176
Note_On_63_Vel_61
Time_Shift_14
Note_On_60_Vel_47
Time_Shift_7
Note_On_54_Vel_51
Time_Shift_85
Note_On_70_Vel_69
Time_Shift_38
Note_On_72_Vel_68
Time_Shift_41
Note_On_70_Vel_0
Time_Shift_7
Note_On_70_Vel_79
Note_On_82_Vel_78
Time_Shift_9
Note_On_82_Vel_0
Time_Shift_53
Note_On_72_Vel_0
Time_Shift_5
Note_On_72_Vel_79
Time_Shift_41
Note_On_70_Vel_0
Time_Shift_4
Note_On_70_Vel_73
Time_Shift_35
Note_On_60_Vel_0
Time_Shift_7
Note_On_63_Vel_0
Time_Shift_3
Note_On_81_Vel_70
Time_Shift_2
Note_On_70_Vel_0
Time_Shift_1
Note_On_72_Vel_0
Time_Shift_2
Sustain_Off
Time_Shift_4
Note_On_69_Vel_80
Time_Shift_4
Note_On_54_Vel_0
Note_On_75_Vel_0
Time_Shift_2
Note_On_41_Vel_75
Time_Shift_21
Note_On_81_Vel_0
Time_Shift_3
Note_On_69_Vel_0
Time_Shift_35
Note_On_41_Vel_0
Time_Shift_207
Note_On_79_Vel_74
Time_Shift_38
Note_On_77_Vel_86
Time_Shift_12
Note_On_79_Vel_0
Time_Shift_3
Note_On_69_Vel_50
Note_On_63_Vel_60
Time_Shift_12
Note_On_60_Vel_53
Time_Shift_2
Note_On_53_Vel_56
Time_Shift_18
Note_On_77_Vel_0
Time_Shift_12
Note_On_63_Vel_0
Time_Shift_4
Note_On_60_Vel_0
Time_Shift_11
Note_On_53_Vel_0
Time_Shift_88
Note_On_69_Vel_0
Time_Shift_86
Note_On_74_Vel_74
Time_Shift_31
Note_On_74_Vel_0
Time_Shift_12
Note_On_75_Vel_80
Time_Shift_4
Note_On_63_Vel_68
Time_Shift_9
Note_On_57_Vel_65
Time_Shift_1
Note_On_53_Vel_58
Time_Shift_23
Note_On_63_Vel_0
Time_Shift_3
Note_On_75_Vel_0
Time_Shift_3
Note_On_57_Vel_0
Time_Shift_8
Note_On_53_Vel_0
Time_Shift_215
Note_On_72_Vel_60
Time_Shift_31
Note_On_72_Vel_0
Time_Shift_40
Note_On_46_Vel_66
Time_Shift_1
Note_On_70_Vel_64
Time_Shift_29
Note_On_70_Vel_0
Time_Shift_19
Note_On_46_Vel_0
Time_Shift_28
Note_On_72_Vel_79
Time_Shift_54
Note_On_72_Vel_0
Time_Shift_30
Note_On_74_Vel_76
Time_Shift_63
Note_On_72_Vel_88
Time_Shift_14
Note_On_74_Vel_0
Time_Shift_21
Note_On_72_Vel_0
Time_Shift_8
Note_On_63_Vel_52
Time_Shift_1
Note_On_57_Vel_57
Note_On_53_Vel_56
Time_Shift_35
Note_On_63_Vel_0
Time_Shift_3
Note_On_57_Vel_0
Time_Shift_3
Note_On_53_Vel_0
Time_Shift_256
Note_On_63_Vel_61
Time_Shift_2
Note_On_57_Vel_61
Time_Shift_17
Note_On_53_Vel_46
Time_Shift_7
Note_On_67_Vel_60
Time_Shift_12
Note_On_57_Vel_0
Time_Shift_4
Note_On_63_Vel_0
Time_Shift_8
Note_On_53_Vel_0
Time_Shift_6
Note_On_69_Vel_62
Note_On_81_Vel_62
Time_Shift_19
Note_On_67_Vel_0
Time_Shift_8
Note_On_69_Vel_0
Time_Shift_8
Note_On_81_Vel_0
Time_Shift_12
Note_On_79_Vel_62
Time_Shift_3
Note_On_67_Vel_69
Time_Shift_8
Note_On_79_Vel_0
Time_Shift_39
Note_On_67_Vel_0
Time_Shift_18
Note_On_81_Vel_66
Note_On_69_Vel_66
Time_Shift_25
Note_On_69_Vel_0
Time_Shift_10
Note_On_81_Vel_0
Time_Shift_17
Note_On_79_Vel_71
Time_Shift_2
Note_On_67_Vel_79
Time_Shift_27
Note_On_79_Vel_0
Time_Shift_5
Note_On_67_Vel_0
Time_Shift_112
Note_On_65_Vel_78
Time_Shift_5
Note_On_46_Vel_74
Time_Shift_24
Sustain_On
Time_Shift_51
Note_On_79_Vel_70
Time_Shift_1
Note_On_67_Vel_75
Time_Shift_9
Note_On_79_Vel_0
Time_Shift_74
Note_On_81_Vel_75
Time_Shift_1
Note_On_69_Vel_78
Time_Shift_56
Note_On_81_Vel_0
Time_Shift_18
Note_On_67_Vel_0
Note_On_69_Vel_0
Time_Shift_1
Note_On_82_Vel_84
Time_Shift_1
Note_On_70_Vel_91
Sustain_Off
Time_Shift_3
Note_On_65_Vel_0
Note_On_82_Vel_0
Time_Shift_7
Note_On_46_Vel_0
Time_Shift_5
Note_On_62_Vel_61
Time_Shift_3
Note_On_53_Vel_61
Time_Shift_1
Note_On_46_Vel_56
Time_Shift_10
Note_On_58_Vel_60
Time_Shift_18
Note_On_58_Vel_0
Note_On_53_Vel_0
Time_Shift_10
Note_On_62_Vel_0
Time_Shift_7
Note_On_46_Vel_0
Time_Shift_328
Note_On_71_Vel_89
Time_Shift_2
Note_On_62_Vel_75
Note_On_70_Vel_0
Time_Shift_6
Note_On_56_Vel_61
Time_Shift_5
Note_On_53_Vel_68
Time_Shift_39
Note_On_62_Vel_0
Note_On_56_Vel_0
Note_On_53_Vel_0
Time_Shift_258
Note_On_71_Vel_0
Time_Shift_19
Note_On_72_Vel_100
Time_Shift_1
Note_On_39_Vel_85
Time_Shift_2
Note_On_51_Vel_88
Time_Shift_29
Note_On_51_Vel_0
Time_Shift_1
Note_On_39_Vel_0
Time_Shift_32
Sustain_On
Time_Shift_206
Note_On_74_Vel_95
Time_Shift_60
Sustain_Off
Time_Shift_1
Note_On_75_Vel_102
Time_Shift_5
Note_On_72_Vel_0
Note_On_87_Vel_88
Note_On_63_Vel_73
Time_Shift_1
Note_On_74_Vel_0
Time_Shift_1
Note_On_60_Vel_65
Time_Shift_3
Note_On_87_Vel_0
Note_On_55_Vel_64
Time_Shift_29
Note_On_55_Vel_0
Time_Shift_2
Note_On_60_Vel_0
Time_Shift_22
Note_On_63_Vel_0
Time_Shift_220
Note_On_63_Vel_72
Note_On_60_Vel_78
Time_Shift_6
Note_On_54_Vel_66
Time_Shift_28
Sustain_On
Time_Shift_80
Note_On_70_Vel_83
Time_Shift_38
Note_On_72_Vel_77
Time_Shift_82
Note_On_70_Vel_0
Time_Shift_5
Note_On_70_Vel_71
Time_Shift_10
Note_On_72_Vel_0
Time_Shift_6
Note_On_72_Vel_67
Time_Shift_48
Note_On_70_Vel_0
Time_Shift_11
Note_On_70_Vel_80
Time_Shift_10
Note_On_72_Vel_0
Time_Shift_1
Sustain_Off
Note_On_60_Vel_0
Time_Shift_1
Note_On_75_Vel_0
Time_Shift_1
Note_On_63_Vel_0
Time_Shift_1
Note_On_54_Vel_0
Time_Shift_37
Note_On_69_Vel_92
Note_On_81_Vel_83
Time_Shift_9
Note_On_41_Vel_91
Time_Shift_28
Note_On_70_Vel_0
Time_Shift_24
Note_On_81_Vel_0
Time_Shift_23
Sustain_On
Time_Shift_187
Note_On_79_Vel_92
Time_Shift_46
Sustain_Off
Time_Shift_9
Note_On_77_Vel_100
Time_Shift_7
Note_On_63_Vel_83
Time_Shift_4
Note_On_69_Vel_0
Time_Shift_3
Note_On_79_Vel_0
Time_Shift_1
Note_On_69_Vel_62
Time_Shift_1
Note_On_53_Vel_71
Time_Shift_3
Note_On_60_Vel_67
Time_Shift_14
Note_On_77_Vel_0
Time_Shift_9
Note_On_41_Vel_0
Time_Shift_2
Note_On_63_Vel_0
Time_Shift_36
Note_On_60_Vel_0
Time_Shift_8
Note_On_69_Vel_0
Time_Shift_7
Note_On_53_Vel_0
Time_Shift_176
Note_On_74_Vel_93
Time_Shift_59
Note_On_75_Vel_104
Time_Shift_2
Note_On_63_Vel_79
Time_Shift_4
Note_On_60_Vel_76
Time_Shift_3
Note_On_74_Vel_0
Time_Shift_5
Note_On_53_Vel_76
Time_Shift_59
Sustain_On
Time_Shift_38
Note_On_60_Vel_0
Time_Shift_202
Note_On_81_Vel_97
Note_On_69_Vel_99
Time_Shift_113
Note_On_69_Vel_0
Note_On_53_Vel_0
Time_Shift_1
Note_On_81_Vel_0
Time_Shift_3
Sustain_Off
Time_Shift_4
Note_On_63_Vel_0
Note_On_75_Vel_0
Time_Shift_17
Note_On_70_Vel_103
Time_Shift_3
Note_On_82_Vel_95
Time_Shift_8
Note_On_46_Vel_107
Time_Shift_2
Note_On_34_Vel_98
Time_Shift_25
Note_On_70_Vel_0
Time_Shift_29
Note_On_46_Vel_0
Time_Shift_15
Note_On_34_Vel_0
Sustain_On
Time_Shift_34
Note_On_70_Vel_92
Time_Shift_135
Note_On_70_Vel_0
Time_Shift_5
Note_On_70_Vel_88
Time_Shift_141
Note_On_82_Vel_0
Time_Shift_8
Note_On_82_Vel_112
Note_On_70_Vel_0
Time_Shift_2
Note_On_65_Vel_99
Time_Shift_2
Note_On_74_Vel_97
Note_On_53_Vel_95
Note_On_62_Vel_100
Time_Shift_1
Note_On_70_Vel_95
Time_Shift_599
Sustain_Off
Time_Shift_4
Note_On_82_Vel_0
Note_On_62_Vel_0
Note_On_53_Vel_0
Time_Shift_2
Note_On_70_Vel_0
Time_Shift_4
Note_On_65_Vel_0
Time_Shift_8
Note_On_74_Vel_0
