Time_Shift_614
Sustain_On
Time_Shift_1310
Note_On_69_Vel_58
Time_Shift_14
Note_On_61_Vel_49
Time_Shift_17
Note_On_45_Vel_39
Time_Shift_6
Note_On_52_Vel_32
Time_Shift_381
Note_On_61_Vel_0
Note_On_71_Vel_72
Time_Shift_6
Note_On_61_Vel_57
Time_Shift_17
Note_On_45_Vel_0
Note_On_52_Vel_0
Time_Shift_9
Note_On_45_Vel_53
Time_Shift_1
Note_On_52_Vel_45
Time_Shift_236
Note_On_61_Vel_0
Time_Shift_1
Note_On_73_Vel_82
Time_Shift_4
Note_On_61_Vel_74
Time_Shift_18
Note_On_52_Vel_0
Time_Shift_5
Note_On_52_Vel_47
Time_Shift_2
Note_On_45_Vel_0
Time_Shift_5
Note_On_45_Vel_52
Time_Shift_180
Note_On_61_Vel_0
Time_Shift_3
Note_On_74_Vel_85
Time_Shift_1
Note_On_61_Vel_68
Time_Shift_11
Note_On_52_Vel_0
Time_Shift_8
Note_On_52_Vel_55
Time_Shift_7
Note_On_45_Vel_0
Time_Shift_5
Note_On_45_Vel_56
Time_Shift_195
Note_On_71_Vel_0
Time_Shift_8
Note_On_71_Vel_78
Time_Shift_2
Note_On_62_Vel_67
Time_Shift_2
Note_On_74_Vel_0
Note_On_68_Vel_69
Time_Shift_4
Note_On_52_Vel_0
Time_Shift_1
Sustain_Off
Time_Shift_6
Note_On_45_Vel_0
Time_Shift_3
Note_On_52_Vel_56
Time_Shift_4
Note_On_45_Vel_56
Time_Shift_24
Note_On_61_Vel_0
Time_Shift_31
Sustain_On
Time_Shift_7
Note_On_73_Vel_0
Time_Shift_69
Note_On_69_Vel_0
Time_Shift_130
Note_On_73_Vel_85
Time_Shift_9
Note_On_52_Vel_0
Note_On_62_Vel_0
Note_On_68_Vel_0
Time_Shift_7
Note_On_45_Vel_0
Time_Shift_2
Note_On_52_Vel_51
Note_On_62_Vel_55
Time_Shift_1
Note_On_68_Vel_58
Time_Shift_1
Note_On_45_Vel_55
Time_Shift_6
Sustain_Off
Time_Shift_29
Note_On_71_Vel_0
Time_Shift_7
Sustain_On
Time_Shift_215
Note_On_73_Vel_0
Time_Shift_6
Note_On_73_Vel_68
Time_Shift_5
Note_On_61_Vel_39
Time_Shift_40
Note_On_71_Vel_65
Time_Shift_59
Note_On_69_Vel_73
Time_Shift_13
Note_On_61_Vel_0
Time_Shift_4
Note_On_61_Vel_59
Time_Shift_12
Note_On_52_Vel_0
Time_Shift_7
Note_On_45_Vel_0
Note_On_62_Vel_0
Time_Shift_2
Note_On_71_Vel_0
Note_On_52_Vel_36
Time_Shift_1
Note_On_73_Vel_0
Time_Shift_8
Note_On_57_Vel_42
Sustain_Off
Note_On_45_Vel_43
Time_Shift_5
Note_On_68_Vel_0
Time_Shift_130
Sustain_On
Time_Shift_483
Note_On_73_Vel_77
Time_Shift_1
Note_On_69_Vel_0
Time_Shift_8
Note_On_61_Vel_0
Time_Shift_1
Note_On_69_Vel_61
Time_Shift_7
Note_On_61_Vel_54
Time_Shift_7
Sustain_Off
Note_On_45_Vel_0
Note_On_52_Vel_0
Note_On_57_Vel_0
Time_Shift_5
Note_On_45_Vel_46
Note_On_52_Vel_40
Time_Shift_5
Note_On_57_Vel_46
Time_Shift_29
Sustain_On
Time_Shift_275
Note_On_75_Vel_85
Time_Shift_1
Note_On_69_Vel_0
Time_Shift_5
Note_On_63_Vel_74
Time_Shift_5
Note_On_69_Vel_65
Time_Shift_5
Note_On_45_Vel_0
Note_On_52_Vel_0
Time_Shift_5
Note_On_52_Vel_54
Time_Shift_2
Note_On_45_Vel_60
Time_Shift_208
Note_On_69_Vel_0
Time_Shift_4
Note_On_76_Vel_86
Time_Shift_6
Note_On_69_Vel_76
Time_Shift_1
Note_On_64_Vel_80
Time_Shift_5
Note_On_52_Vel_0
Time_Shift_8
Note_On_45_Vel_0
Time_Shift_3
Note_On_52_Vel_65
Time_Shift_3
Note_On_45_Vel_66
Time_Shift_1
Note_On_63_Vel_0
Time_Shift_50
Sustain_Off
Time_Shift_4
Sustain_On
Time_Shift_146
Note_On_69_Vel_0
Time_Shift_4
Note_On_78_Vel_88
Time_Shift_6
Note_On_69_Vel_74
Time_Shift_3
Note_On_66_Vel_77
Time_Shift_2
Note_On_45_Vel_0
Note_On_52_Vel_0
Note_On_57_Vel_0
Time_Shift_5
Note_On_45_Vel_76
Time_Shift_1
Note_On_57_Vel_70
Time_Shift_4
Note_On_52_Vel_64
Time_Shift_227
Note_On_78_Vel_0
Time_Shift_1
Note_On_64_Vel_0
Note_On_76_Vel_0
Time_Shift_1
Note_On_45_Vel_0
Note_On_52_Vel_0
Time_Shift_1
Note_On_57_Vel_0
Note_On_66_Vel_0
Time_Shift_1
Sustain_Off
Time_Shift_3
Note_On_76_Vel_82
Time_Shift_2
Note_On_69_Vel_0
Time_Shift_4
Note_On_64_Vel_79
Note_On_69_Vel_68
Time_Shift_4
Note_On_75_Vel_0
Time_Shift_7
Note_On_61_Vel_0
Note_On_73_Vel_0
Time_Shift_5
Note_On_54_Vel_48
Note_On_47_Vel_47
Time_Shift_49
Sustain_On
Time_Shift_213
Note_On_64_Vel_0
Time_Shift_1
Sustain_Off
Note_On_75_Vel_84
Time_Shift_1
Note_On_76_Vel_0
Note_On_69_Vel_0
Time_Shift_7
Note_On_63_Vel_73
Time_Shift_1
Note_On_47_Vel_0
Time_Shift_3
Note_On_69_Vel_61
Time_Shift_5
Note_On_47_Vel_55
Time_Shift_53
Sustain_On
Time_Shift_144
Note_On_76_Vel_49
Time_Shift_148
Note_On_47_Vel_0
Time_Shift_11
Note_On_71_Vel_67
Time_Shift_1
Note_On_47_Vel_43
Time_Shift_3
Note_On_63_Vel_0
Time_Shift_5
Note_On_63_Vel_54
Time_Shift_3
Note_On_69_Vel_0
Time_Shift_4
Note_On_69_Vel_45
Time_Shift_17
Note_On_59_Vel_41
Time_Shift_2
Note_On_54_Vel_0
Time_Shift_4
Note_On_57_Vel_39
Time_Shift_2
Note_On_54_Vel_39
Time_Shift_13
Sustain_Off
Time_Shift_73
Note_On_76_Vel_0
Time_Shift_54
Sustain_On
Time_Shift_69
Note_On_75_Vel_0
Time_Shift_192
Note_On_57_Vel_0
Time_Shift_282
Note_On_76_Vel_90
Time_Shift_24
Note_On_68_Vel_61
Time_Shift_1
Note_On_59_Vel_0
Time_Shift_3
Note_On_64_Vel_55
Time_Shift_1
Note_On_62_Vel_56
Note_On_54_Vel_0
Note_On_63_Vel_0
Time_Shift_1
Note_On_69_Vel_0
Note_On_71_Vel_0
Note_On_52_Vel_53
Time_Shift_1
Note_On_47_Vel_0
Time_Shift_1
Note_On_59_Vel_61
Time_Shift_5
Sustain_Off
Time_Shift_88
Sustain_On
Time_Shift_474
Note_On_74_Vel_66
Time_Shift_10
Note_On_62_Vel_0
Note_On_64_Vel_0
Time_Shift_5
Note_On_64_Vel_53
Time_Shift_3
Note_On_68_Vel_0
Time_Shift_1
Note_On_62_Vel_56
Time_Shift_6
Note_On_68_Vel_50
Note_On_52_Vel_0
Note_On_59_Vel_0
Time_Shift_6
Note_On_59_Vel_51
Sustain_Off
Time_Shift_4
Note_On_76_Vel_0
Time_Shift_1
Note_On_52_Vel_46
Time_Shift_25
Note_On_74_Vel_0
Time_Shift_3
Note_On_64_Vel_0
Time_Shift_8
Note_On_62_Vel_0
Time_Shift_7
Note_On_59_Vel_0
Note_On_68_Vel_0
Time_Shift_16
Note_On_52_Vel_0
Time_Shift_175
Note_On_71_Vel_73
Time_Shift_15
Note_On_68_Vel_52
Time_Shift_12
Note_On_62_Vel_44
Time_Shift_1
Note_On_52_Vel_46
Note_On_59_Vel_48
Time_Shift_21
Note_On_71_Vel_0
Time_Shift_14
Note_On_62_Vel_0
Time_Shift_4
Note_On_68_Vel_0
Time_Shift_2
Note_On_59_Vel_0
Time_Shift_3
Note_On_52_Vel_0
Time_Shift_172
Note_On_69_Vel_77
Time_Shift_16
Note_On_61_Vel_59
Time_Shift_16
Note_On_45_Vel_50
Note_On_52_Vel_42
Time_Shift_2
Sustain_On
Time_Shift_5
Note_On_57_Vel_47
Time_Shift_200
Note_On_57_Vel_0
Time_Shift_1
Sustain_Off
Time_Shift_22
Note_On_73_Vel_80
Time_Shift_2
Note_On_61_Vel_0
Note_On_69_Vel_0
Time_Shift_7
Note_On_61_Vel_59
Time_Shift_4
Note_On_69_Vel_42
Time_Shift_4
Note_On_45_Vel_0
Note_On_52_Vel_0
Time_Shift_7
Note_On_52_Vel_48
Time_Shift_3
Note_On_45_Vel_56
Time_Shift_14
Sustain_On
Time_Shift_217
Note_On_69_Vel_0
Time_Shift_2
Sustain_Off
Note_On_73_Vel_0
Time_Shift_7
Note_On_64_Vel_79
Time_Shift_12
Note_On_45_Vel_0
Note_On_52_Vel_0
Note_On_61_Vel_0
Time_Shift_9
Note_On_61_Vel_62
Time_Shift_1
Note_On_52_Vel_49
Note_On_45_Vel_51
Time_Shift_89
Sustain_On
Time_Shift_391
Note_On_69_Vel_58
Time_Shift_1
Note_On_61_Vel_0
Time_Shift_4
Note_On_61_Vel_55
Time_Shift_4
Sustain_Off
Time_Shift_12
Note_On_57_Vel_43
Note_On_64_Vel_0
Time_Shift_3
Note_On_45_Vel_0
Time_Shift_5
Note_On_45_Vel_42
Time_Shift_4
Note_On_52_Vel_0
Time_Shift_19
Note_On_69_Vel_0
Time_Shift_13
Note_On_57_Vel_0
Time_Shift_5
Note_On_61_Vel_0
Time_Shift_4
Note_On_45_Vel_0
Time_Shift_174
Note_On_69_Vel_67
Time_Shift_25
Note_On_61_Vel_56
Time_Shift_8
Note_On_45_Vel_39
Note_On_33_Vel_34
Time_Shift_1
Note_On_40_Vel_30
Time_Shift_11
Note_On_33_Vel_0
Time_Shift_23
Note_On_40_Vel_0
Time_Shift_12
Note_On_69_Vel_0
Time_Shift_1
Note_On_61_Vel_0
Time_Shift_5
Note_On_45_Vel_0
Time_Shift_192
Note_On_73_Vel_71
Time_Shift_14
Note_On_61_Vel_60
Time_Shift_2
Note_On_33_Vel_41
Time_Shift_1
Note_On_45_Vel_44
Time_Shift_3
Note_On_33_Vel_0
Time_Shift_1
Note_On_52_Vel_35
Time_Shift_34
Note_On_61_Vel_0
Time_Shift_3
Note_On_52_Vel_0
Time_Shift_4
Note_On_73_Vel_0
Time_Shift_74
Note_On_45_Vel_0
Time_Shift_132
Note_On_76_Vel_68
Time_Shift_31
Note_On_64_Vel_39
Time_Shift_1
Note_On_45_Vel_45
Note_On_61_Vel_44
Time_Shift_1
Note_On_33_Vel_45
Time_Shift_11
Note_On_33_Vel_0
Time_Shift_3
Note_On_52_Vel_36
Time_Shift_53
Note_On_52_Vel_0
Note_On_45_Vel_0
Time_Shift_10
Note_On_61_Vel_0
Time_Shift_9
Note_On_76_Vel_0
Time_Shift_10
Note_On_64_Vel_0
Time_Shift_147
Note_On_74_Vel_68
Time_Shift_14
Note_On_62_Vel_49
Time_Shift_4
Note_On_68_Vel_52
Time_Shift_15
Note_On_40_Vel_42
Note_On_52_Vel_37
Time_Shift_15
Note_On_62_Vel_0
Time_Shift_8
Note_On_68_Vel_0
Time_Shift_2
Note_On_74_Vel_0
Time_Shift_33
Note_On_40_Vel_0
Time_Shift_7
Note_On_52_Vel_0
Time_Shift_204
Note_On_71_Vel_63
Time_Shift_2
Note_On_62_Vel_52
Time_Shift_6
Note_On_68_Vel_49
Time_Shift_8
Note_On_52_Vel_39
Time_Shift_2
Note_On_40_Vel_40
Time_Shift_45
Note_On_62_Vel_0
Time_Shift_6
Note_On_71_Vel_0
Time_Shift_2
Note_On_68_Vel_0
Time_Shift_79
Note_On_52_Vel_0
Time_Shift_7
Note_On_40_Vel_0
Time_Shift_212
Note_On_69_Vel_63
Time_Shift_6
Note_On_61_Vel_48
Time_Shift_22
Note_On_45_Vel_39
Time_Shift_3
Note_On_52_Vel_30
Time_Shift_1
Note_On_57_Vel_36
Time_Shift_48
Sustain_On
Time_Shift_641
Note_On_76_Vel_89
Time_Shift_15
Note_On_68_Vel_72
Time_Shift_2
Note_On_62_Vel_65
Time_Shift_2
Note_On_64_Vel_63
Time_Shift_1
Note_On_52_Vel_0
Time_Shift_1
Note_On_74_Vel_65
Time_Shift_3
Note_On_52_Vel_63
Time_Shift_4
Note_On_40_Vel_60
Note_On_45_Vel_0
Sustain_Off
Time_Shift_1
Note_On_61_Vel_0
Time_Shift_2
Note_On_69_Vel_0
Time_Shift_12
Note_On_57_Vel_0
Time_Shift_77
Sustain_On
Time_Shift_84
Note_On_74_Vel_0
Time_Shift_342
Note_On_74_Vel_85
Time_Shift_11
Note_On_62_Vel_0
Note_On_68_Vel_0
Time_Shift_5
Note_On_62_Vel_53
Time_Shift_3
Note_On_68_Vel_57
Time_Shift_8
Note_On_40_Vel_0
Note_On_52_Vel_0
Time_Shift_4
Note_On_52_Vel_49
Time_Shift_2
Note_On_40_Vel_52
Time_Shift_214
Note_On_74_Vel_0
Time_Shift_1
Sustain_Off
Time_Shift_1
Note_On_76_Vel_0
Time_Shift_5
Note_On_71_Vel_80
Time_Shift_3
Note_On_68_Vel_0
Time_Shift_8
Note_On_40_Vel_0
Note_On_52_Vel_0
Note_On_62_Vel_0
Time_Shift_2
Note_On_68_Vel_64
Time_Shift_2
Note_On_40_Vel_50
Note_On_52_Vel_55
Time_Shift_1
Note_On_62_Vel_59
Time_Shift_2
Note_On_64_Vel_0
Time_Shift_24
Sustain_On
Time_Shift_84
Note_On_52_Vel_0
Time_Shift_5
Note_On_52_Vel_51
Time_Shift_102
Note_On_68_Vel_0
Time_Shift_1
Note_On_71_Vel_0
Time_Shift_1
Note_On_62_Vel_0
Sustain_Off
Time_Shift_2
Note_On_40_Vel_0
Time_Shift_2
Note_On_69_Vel_88
Time_Shift_25
Note_On_52_Vel_0
Time_Shift_3
Note_On_61_Vel_59
Time_Shift_1
Note_On_33_Vel_49
Time_Shift_1
Note_On_45_Vel_52
Note_On_52_Vel_38
Time_Shift_41
Sustain_On
Time_Shift_77
Note_On_33_Vel_0
Time_Shift_87
Sustain_Off
Time_Shift_5
Note_On_61_Vel_0
Note_On_69_Vel_0
Time_Shift_3
Note_On_73_Vel_83
Time_Shift_6
Note_On_61_Vel_72
Time_Shift_1
Note_On_69_Vel_43
Time_Shift_21
Note_On_45_Vel_0
Note_On_52_Vel_0
Time_Shift_4
Note_On_52_Vel_34
Time_Shift_6
Note_On_45_Vel_43
Time_Shift_28
Sustain_On
Time_Shift_200
Note_On_69_Vel_0
Time_Shift_42
Note_On_64_Vel_75
Time_Shift_16
Note_On_73_Vel_0
Time_Shift_4
Note_On_52_Vel_0
Note_On_61_Vel_0
Sustain_Off
Time_Shift_4
Note_On_61_Vel_54
Time_Shift_3
Note_On_45_Vel_0
Time_Shift_2
Note_On_52_Vel_44
Time_Shift_2
Note_On_45_Vel_46
Time_Shift_173
Sustain_On
Time_Shift_350
Note_On_45_Vel_0
Time_Shift_1
Note_On_64_Vel_0
Sustain_Off
Time_Shift_5
Note_On_69_Vel_76
Time_Shift_20
Note_On_52_Vel_0
Note_On_61_Vel_0
Time_Shift_5
Note_On_61_Vel_47
Time_Shift_6
Note_On_52_Vel_37
Time_Shift_8
Note_On_45_Vel_44
Time_Shift_2
Note_On_57_Vel_41
Time_Shift_25
Sustain_On
Time_Shift_192
Note_On_69_Vel_0
Time_Shift_4
Note_On_69_Vel_84
Time_Shift_4
Note_On_61_Vel_0
Time_Shift_4
Sustain_Off
Time_Shift_7
Note_On_61_Vel_66
Time_Shift_20
Note_On_45_Vel_0
Note_On_52_Vel_0
Note_On_57_Vel_0
Time_Shift_7
Sustain_On
Time_Shift_3
Note_On_45_Vel_56
Note_On_57_Vel_53
Time_Shift_1
Note_On_52_Vel_50
Time_Shift_292
Sustain_Off
Time_Shift_1
Note_On_73_Vel_78
Time_Shift_3
Note_On_69_Vel_0
Time_Shift_3
Note_On_52_Vel_0
Time_Shift_1
Note_On_69_Vel_71
Note_On_45_Vel_0
Time_Shift_1
Note_On_57_Vel_0
Time_Shift_13
Note_On_42_Vel_43
Time_Shift_3
Note_On_54_Vel_45
Time_Shift_48
Sustain_On
Time_Shift_284
Note_On_54_Vel_0
Time_Shift_32
Note_On_76_Vel_82
Time_Shift_7
Note_On_61_Vel_0
Note_On_69_Vel_0
Time_Shift_2
Sustain_Off
Time_Shift_5
Note_On_42_Vel_0
Time_Shift_3
Note_On_69_Vel_61
Time_Shift_1
Note_On_73_Vel_0
Time_Shift_10
Note_On_64_Vel_50
Time_Shift_5
Note_On_49_Vel_46
Time_Shift_1
Note_On_37_Vel_52
Time_Shift_65
Sustain_On
Time_Shift_324
Note_On_74_Vel_76
Time_Shift_6
Note_On_69_Vel_0
Time_Shift_2
Note_On_37_Vel_0
Note_On_64_Vel_0
Time_Shift_1
Note_On_76_Vel_0
Time_Shift_8
Note_On_69_Vel_57
Time_Shift_1
Note_On_65_Vel_48
Time_Shift_2
Sustain_Off
Time_Shift_1
Note_On_49_Vel_0
Time_Shift_4
Note_On_47_Vel_45
Time_Shift_2
Note_On_35_Vel_45
Time_Shift_63
Sustain_On
Time_Shift_413
Note_On_71_Vel_69
Time_Shift_21
Note_On_68_Vel_48
Time_Shift_4
Note_On_59_Vel_41
Time_Shift_2
Note_On_62_Vel_39
Time_Shift_1
Note_On_69_Vel_0
Time_Shift_1
Note_On_35_Vel_0
Note_On_47_Vel_0
Note_On_40_Vel_37
Time_Shift_1
Note_On_65_Vel_0
Note_On_52_Vel_41
Sustain_Off
Time_Shift_2
Note_On_74_Vel_0
Time_Shift_147
Sustain_On
Time_Shift_61
Note_On_59_Vel_0
Time_Shift_571
Note_On_69_Vel_57
Time_Shift_11
Note_On_61_Vel_46
Time_Shift_25
Note_On_52_Vel_0
Time_Shift_2
Note_On_45_Vel_37
Time_Shift_1
Note_On_33_Vel_36
Time_Shift_4
Note_On_57_Vel_31
Time_Shift_1
Note_On_33_Vel_0
Note_On_52_Vel_27
Time_Shift_20
Sustain_Off
Time_Shift_9
Note_On_62_Vel_0
Time_Shift_3
Note_On_68_Vel_0
Time_Shift_1
Note_On_71_Vel_0
Time_Shift_66
Note_On_40_Vel_0
Time_Shift_369
Sustain_On
Time_Shift_1243
Note_On_69_Vel_0
Time_Shift_1
Note_On_61_Vel_0
Time_Shift_2
Note_On_45_Vel_0
Note_On_52_Vel_0
Time_Shift_6
Note_On_57_Vel_0
Time_Shift_8
Sustain_Off
Time_Shift_283
Note_On_69_Vel_46
Time_Shift_27
Note_On_60_Vel_29
Time_Shift_3
Note_On_45_Vel_25
Time_Shift_8
Note_On_57_Vel_24
Time_Shift_1
Sustain_On
Time_Shift_4
Note_On_52_Vel_22
Time_Shift_553
Note_On_71_Vel_52
Time_Shift_11
Note_On_60_Vel_0
Time_Shift_8
Note_On_57_Vel_0
Time_Shift_4
Note_On_60_Vel_32
Time_Shift_4
Note_On_45_Vel_0
Note_On_52_Vel_0
Time_Shift_2
Note_On_57_Vel_31
Time_Shift_3
Note_On_45_Vel_34
Time_Shift_2
Note_On_52_Vel_24
Time_Shift_350
Note_On_72_Vel_67
Time_Shift_27
Note_On_60_Vel_0
Time_Shift_4
Note_On_60_Vel_37
Time_Shift_4
Note_On_57_Vel_0
Time_Shift_6
Note_On_57_Vel_32
Time_Shift_1
Note_On_52_Vel_0
Time_Shift_8
Note_On_45_Vel_0
Time_Shift_1
Note_On_52_Vel_28
Time_Shift_3
Note_On_45_Vel_39
Time_Shift_245
Note_On_74_Vel_70
Time_Shift_4
Note_On_60_Vel_0
Time_Shift_4
Note_On_64_Vel_45
Time_Shift_4
Note_On_52_Vel_0
Note_On_64_Vel_0
Time_Shift_2
Note_On_60_Vel_50
Time_Shift_6
Note_On_52_Vel_42
Time_Shift_7
Note_On_69_Vel_0
Time_Shift_8
Note_On_57_Vel_0
Time_Shift_6
Note_On_57_Vel_36
Time_Shift_2
Note_On_45_Vel_0
Time_Shift_4
Note_On_45_Vel_41
Time_Shift_126
Note_On_71_Vel_0
Time_Shift_80
Note_On_71_Vel_72
Time_Shift_11
Note_On_62_Vel_47
Time_Shift_8
Note_On_68_Vel_48
Time_Shift_1
Note_On_45_Vel_0
Note_On_52_Vel_0
Time_Shift_4
Note_On_52_Vel_41
Time_Shift_3
Note_On_45_Vel_46
Time_Shift_339
Note_On_72_Vel_0
Time_Shift_4
Note_On_72_Vel_71
Time_Shift_11
Note_On_68_Vel_0
Time_Shift_11
Note_On_68_Vel_48
Time_Shift_3
Note_On_71_Vel_0
Time_Shift_1
Note_On_45_Vel_0
Note_On_57_Vel_0
Note_On_62_Vel_0
Time_Shift_4
Note_On_74_Vel_0
Note_On_62_Vel_41
Time_Shift_2
Note_On_57_Vel_43
Time_Shift_2
Sustain_Off
Note_On_52_Vel_0
Time_Shift_2
Note_On_45_Vel_44
Time_Shift_3
Note_On_52_Vel_40
Time_Shift_3
Note_On_60_Vel_0
Time_Shift_54
Sustain_On
Time_Shift_261
Note_On_72_Vel_0
Time_Shift_8
Note_On_72_Vel_57
Time_Shift_49
Note_On_71_Vel_57
Time_Shift_73
Note_On_68_Vel_0
Time_Shift_14
Note_On_69_Vel_64
Time_Shift_4
Note_On_60_Vel_38
Time_Shift_28
Note_On_45_Vel_0
Note_On_52_Vel_0
Note_On_57_Vel_0
Time_Shift_1
Note_On_62_Vel_0
Time_Shift_2
Note_On_72_Vel_0
Time_Shift_1
Note_On_71_Vel_0
Time_Shift_1
Sustain_Off
Time_Shift_1
Note_On_52_Vel_33
Time_Shift_1
Note_On_45_Vel_37
Note_On_57_Vel_35
Time_Shift_216
Sustain_On
Time_Shift_560
Note_On_72_Vel_68
Time_Shift_16
Note_On_69_Vel_0
Time_Shift_5
Note_On_69_Vel_50
Time_Shift_3
Note_On_45_Vel_0
Note_On_52_Vel_0
Note_On_60_Vel_0
Time_Shift_4
Note_On_60_Vel_40
Time_Shift_4
Note_On_52_Vel_33
Time_Shift_1
Note_On_45_Vel_39
Time_Shift_386
Note_On_74_Vel_76
Time_Shift_12
Note_On_45_Vel_0
Note_On_69_Vel_0
Time_Shift_2
Note_On_62_Vel_54
Time_Shift_5
Note_On_52_Vel_0
Time_Shift_2
Note_On_45_Vel_46
Time_Shift_2
Note_On_69_Vel_58
Note_On_52_Vel_43
Note_On_57_Vel_0
Time_Shift_268
Note_On_76_Vel_82
Time_Shift_5
Note_On_72_Vel_0
Time_Shift_3
Note_On_64_Vel_72
Time_Shift_9
Sustain_Off
Time_Shift_3
Note_On_45_Vel_0
Note_On_52_Vel_0
Time_Shift_9
Note_On_52_Vel_51
Time_Shift_2
Note_On_45_Vel_55
Time_Shift_12
Sustain_On
Time_Shift_217
Note_On_77_Vel_80
Time_Shift_6
Note_On_69_Vel_0
Time_Shift_1
Note_On_76_Vel_0
Time_Shift_2
Note_On_65_Vel_65
Time_Shift_5
Note_On_69_Vel_68
Note_On_45_Vel_0
Time_Shift_2
Sustain_Off
Time_Shift_9
Note_On_45_Vel_57
Time_Shift_4
Note_On_52_Vel_0
Time_Shift_4
Note_On_52_Vel_43
Time_Shift_11
Note_On_60_Vel_0
Time_Shift_8
Sustain_On
Time_Shift_8
Note_On_64_Vel_0
Time_Shift_220
Note_On_76_Vel_86
Time_Shift_10
Note_On_62_Vel_0
Time_Shift_8
Note_On_64_Vel_68
Note_On_69_Vel_0
Time_Shift_3
Note_On_77_Vel_0
Time_Shift_1
Note_On_45_Vel_0
Time_Shift_3
Note_On_69_Vel_53
Time_Shift_4
Sustain_Off
Time_Shift_7
Note_On_53_Vel_50
Note_On_47_Vel_49
Time_Shift_5
Note_On_74_Vel_0
Time_Shift_61
Sustain_On
Time_Shift_8
Note_On_65_Vel_0
Time_Shift_177
Note_On_52_Vel_0
Time_Shift_28
Note_On_75_Vel_87
Time_Shift_18
Note_On_53_Vel_0
Note_On_69_Vel_0
Time_Shift_2
Note_On_64_Vel_0
Time_Shift_2
Note_On_76_Vel_0
Note_On_63_Vel_62
Time_Shift_1
Note_On_53_Vel_48
Time_Shift_2
Note_On_47_Vel_0
Time_Shift_4
Note_On_69_Vel_56
Time_Shift_2
Sustain_Off
Time_Shift_5
Note_On_47_Vel_48
Time_Shift_82
Sustain_On
Time_Shift_268
Note_On_69_Vel_0
Time_Shift_1
Note_On_71_Vel_81
Time_Shift_7
Note_On_63_Vel_0
Time_Shift_4
Note_On_69_Vel_57
Time_Shift_3
Note_On_63_Vel_54
Time_Shift_6
Note_On_75_Vel_0
Time_Shift_10
Note_On_47_Vel_0
Note_On_53_Vel_0
Time_Shift_2
Sustain_Off
Time_Shift_3
Note_On_59_Vel_56
Time_Shift_3
Note_On_53_Vel_52
Time_Shift_3
Note_On_47_Vel_56
Time_Shift_120
Sustain_On
Time_Shift_632
Note_On_76_Vel_81
Time_Shift_12
Note_On_71_Vel_0
Time_Shift_1
Note_On_53_Vel_0
Time_Shift_2
Note_On_47_Vel_0
Time_Shift_5
Note_On_64_Vel_57
Note_On_59_Vel_0
Note_On_63_Vel_0
Time_Shift_1
Note_On_62_Vel_58
Time_Shift_1
Note_On_74_Vel_57
Time_Shift_1
Note_On_68_Vel_62
Time_Shift_5
Note_On_69_Vel_0
Time_Shift_3
Note_On_59_Vel_56
Time_Shift_1
Note_On_52_Vel_53
Time_Shift_28
Sustain_Off
Time_Shift_168
Sustain_On
Time_Shift_77
Note_On_76_Vel_0
Time_Shift_11
Note_On_76_Vel_38
Time_Shift_58
Note_On_74_Vel_0
Time_Shift_463
Note_On_74_Vel_64
Time_Shift_5
Note_On_62_Vel_0
Note_On_68_Vel_0
Time_Shift_8
Note_On_52_Vel_0
Note_On_59_Vel_0
Time_Shift_2
Note_On_62_Vel_48
Time_Shift_1
Note_On_68_Vel_52
Time_Shift_1
Note_On_52_Vel_40
Time_Shift_1
Note_On_76_Vel_0
Time_Shift_6
Note_On_59_Vel_47
Note_On_64_Vel_0
Time_Shift_14
Sustain_Off
Time_Shift_44
Sustain_On
Time_Shift_273
Note_On_71_Vel_72
Time_Shift_4
Note_On_62_Vel_0
Note_On_68_Vel_0
Time_Shift_7
Note_On_68_Vel_52
Note_On_52_Vel_0
Note_On_59_Vel_0
Time_Shift_1
Note_On_62_Vel_50
Time_Shift_3
Note_On_59_Vel_53
Time_Shift_3
Note_On_52_Vel_52
Time_Shift_6
Sustain_Off
Time_Shift_18
Sustain_On
Time_Shift_210
Note_On_69_Vel_77
Time_Shift_10
Sustain_Off
Time_Shift_6
Note_On_68_Vel_0
Note_On_62_Vel_0
Note_On_59_Vel_0
Time_Shift_1
Note_On_71_Vel_0
Time_Shift_3
Note_On_52_Vel_0
Note_On_74_Vel_0
Time_Shift_4
Note_On_60_Vel_46
Time_Shift_5
Note_On_57_Vel_52
Time_Shift_1
Note_On_45_Vel_50
Time_Shift_1
Note_On_52_Vel_49
Time_Shift_35
Sustain_On
Time_Shift_186
Sustain_Off
Time_Shift_2
Note_On_72_Vel_76
Time_Shift_4
Note_On_60_Vel_0
Time_Shift_9
Note_On_60_Vel_57
Time_Shift_7
Note_On_52_Vel_0
Note_On_57_Vel_0
Time_Shift_7
Note_On_45_Vel_0
Time_Shift_2
Note_On_52_Vel_46
Time_Shift_2
Note_On_57_Vel_49
Time_Shift_3
Note_On_45_Vel_51
Time_Shift_24
Sustain_On
Time_Shift_237
Note_On_64_Vel_66
Time_Shift_19
Note_On_69_Vel_0
Time_Shift_1
Note_On_72_Vel_0
Time_Shift_2
Sustain_Off
Time_Shift_10
Note_On_52_Vel_0
Note_On_57_Vel_0
Time_Shift_5
Note_On_57_Vel_45
Time_Shift_3
Note_On_45_Vel_0
Note_On_60_Vel_0
Time_Shift_3
Note_On_52_Vel_39
Time_Shift_1
Note_On_60_Vel_47
Time_Shift_1
Note_On_45_Vel_48
Time_Shift_164
Sustain_On
Time_Shift_367
Note_On_69_Vel_70
Time_Shift_18
Note_On_64_Vel_0
Time_Shift_6
Note_On_45_Vel_0
Note_On_52_Vel_0
Note_On_57_Vel_0
Note_On_60_Vel_0
Time_Shift_4
Sustain_Off
Time_Shift_1
Note_On_60_Vel_46
Time_Shift_2
Note_On_57_Vel_47
Time_Shift_4
Note_On_45_Vel_45
Time_Shift_1
Note_On_52_Vel_37
Time_Shift_50
Sustain_On
Time_Shift_230
Note_On_69_Vel_0
Time_Shift_5
Note_On_69_Vel_73
Time_Shift_10
Note_On_60_Vel_0
Time_Shift_5
Sustain_Off
Time_Shift_3
Note_On_57_Vel_0
Time_Shift_4
Note_On_60_Vel_48
Time_Shift_4
Note_On_45_Vel_0
Note_On_52_Vel_0
Time_Shift_4
Note_On_57_Vel_45
Note_On_45_Vel_49
Time_Shift_7
Note_On_52_Vel_38
Time_Shift_4
Sustain_On
Time_Shift_284
Note_On_60_Vel_0
Note_On_69_Vel_0
Time_Shift_3
Note_On_72_Vel_73
Time_Shift_5
Note_On_69_Vel_51
Time_Shift_2
Sustain_Off
Note_On_60_Vel_47
Time_Shift_13
Note_On_45_Vel_0
Note_On_52_Vel_0
Note_On_57_Vel_0
Time_Shift_5
Note_On_57_Vel_41
Time_Shift_4
Note_On_45_Vel_46
Time_Shift_3
Note_On_52_Vel_34
Time_Shift_42
Sustain_On
Time_Shift_302
Note_On_76_Vel_75
Time_Shift_5
Note_On_60_Vel_0
Time_Shift_8
Note_On_69_Vel_0
Time_Shift_3
Note_On_60_Vel_57
Time_Shift_2
Note_On_69_Vel_44
Time_Shift_1
Note_On_72_Vel_0
Time_Shift_9
Note_On_45_Vel_0
Note_On_52_Vel_0
Time_Shift_3
Sustain_Off
Time_Shift_8
Note_On_45_Vel_51
Time_Shift_1
Note_On_52_Vel_36
Time_Shift_58
Note_On_57_Vel_0
Time_Shift_30
Sustain_On
Time_Shift_256
Note_On_74_Vel_70
Time_Shift_13
Note_On_62_Vel_54
Time_Shift_4
Note_On_68_Vel_54
Time_Shift_4
Note_On_52_Vel_0
Time_Shift_2
Note_On_45_Vel_0
Time_Shift_2
Note_On_76_Vel_0
Time_Shift_3
Note_On_40_Vel_43
Time_Shift_2
Note_On_52_Vel_41
Time_Shift_6
Note_On_60_Vel_0
Time_Shift_2
Sustain_Off
Time_Shift_13
Note_On_69_Vel_0
Time_Shift_77
Sustain_On
Time_Shift_315
Note_On_71_Vel_60
Time_Shift_8
Note_On_68_Vel_0
Time_Shift_4
Note_On_74_Vel_0
Time_Shift_2
Note_On_68_Vel_45
Time_Shift_1
Note_On_62_Vel_0
Time_Shift_6
Note_On_62_Vel_41
Time_Shift_2
Note_On_40_Vel_0
Note_On_52_Vel_0
Time_Shift_4
Sustain_Off
Time_Shift_1
Note_On_59_Vel_39
Note_On_52_Vel_38
Note_On_40_Vel_35
Time_Shift_110
Sustain_On
Time_Shift_492
Note_On_69_Vel_59
Time_Shift_20
Note_On_60_Vel_35
Time_Shift_26
Note_On_52_Vel_0
Time_Shift_3
Note_On_57_Vel_32
Time_Shift_1
Note_On_45_Vel_32
Time_Shift_1
Note_On_52_Vel_26
Time_Shift_1
Sustain_Off
Time_Shift_2
Note_On_62_Vel_0
Time_Shift_2
Note_On_71_Vel_0
Note_On_68_Vel_0
Time_Shift_13
Note_On_59_Vel_0
Time_Shift_177
Sustain_On
Time_Shift_645
Note_On_60_Vel_0
Time_Shift_4
Note_On_76_Vel_83
Time_Shift_17
Note_On_62_Vel_57
Time_Shift_5
Note_On_68_Vel_62
Note_On_74_Vel_63
Time_Shift_1
Note_On_64_Vel_59
Time_Shift_1
Note_On_45_Vel_0
Time_Shift_2
Note_On_57_Vel_0
Time_Shift_2
Note_On_69_Vel_0
Time_Shift_14
Note_On_40_Vel_0
Note_On_52_Vel_0
Time_Shift_5
Note_On_52_Vel_53
Time_Shift_3
Sustain_Off
Time_Shift_3
Note_On_40_Vel_49
Time_Shift_142
Sustain_On
Time_Shift_546
Note_On_74_Vel_0
Time_Shift_4
Note_On_74_Vel_65
Time_Shift_11
Note_On_52_Vel_0
Note_On_62_Vel_0
Note_On_64_Vel_0
Note_On_68_Vel_0
Time_Shift_6
Note_On_68_Vel_40
Time_Shift_2
Note_On_40_Vel_0
Note_On_64_Vel_48
Note_On_62_Vel_42
Time_Shift_2
Note_On_52_Vel_44
Time_Shift_2
Note_On_76_Vel_0
Time_Shift_1
Note_On_40_Vel_40
Time_Shift_6
Note_On_59_Vel_39
Time_Shift_14
Sustain_Off
Time_Shift_36
Sustain_On
Time_Shift_246
Note_On_68_Vel_0
Time_Shift_2
Note_On_71_Vel_70
Time_Shift_1
Note_On_59_Vel_0
Time_Shift_1
Note_On_74_Vel_0
Time_Shift_3
Note_On_68_Vel_46
Time_Shift_1
Note_On_62_Vel_0
Time_Shift_6
Note_On_62_Vel_44
Time_Shift_1
Note_On_40_Vel_0
Note_On_52_Vel_0
Time_Shift_4
Note_On_52_Vel_47
Note_On_40_Vel_49
Time_Shift_3
Sustain_Off
Time_Shift_24
Sustain_On
Time_Shift_214
Note_On_69_Vel_75
Time_Shift_6
Note_On_62_Vel_0
Time_Shift_1
Note_On_71_Vel_0
Time_Shift_2
Sustain_Off
Time_Shift_7
Note_On_64_Vel_0
Time_Shift_8
Note_On_68_Vel_0
Time_Shift_11
Note_On_60_Vel_44
Time_Shift_2
Note_On_57_Vel_49
Note_On_45_Vel_50
Time_Shift_2
Note_On_52_Vel_0
Time_Shift_4
Note_On_52_Vel_38
Time_Shift_35
Sustain_On
Time_Shift_170
Sustain_Off
Time_Shift_7
Note_On_60_Vel_0
Time_Shift_4
Note_On_72_Vel_72
Time_Shift_3
Note_On_60_Vel_60
Time_Shift_23
Note_On_57_Vel_0
Sustain_On
Time_Shift_8
Note_On_45_Vel_0
Note_On_52_Vel_0
Time_Shift_1
Note_On_57_Vel_45
Time_Shift_6
Note_On_52_Vel_37
Time_Shift_2
Note_On_45_Vel_51
Time_Shift_241
Note_On_72_Vel_0
Time_Shift_3
Note_On_69_Vel_0
Time_Shift_4
Note_On_64_Vel_75
Time_Shift_12
Note_On_45_Vel_0
Note_On_52_Vel_0
Note_On_60_Vel_0
Sustain_Off
Time_Shift_7
Note_On_57_Vel_0
Time_Shift_2
Note_On_52_Vel_45
Time_Shift_2
Note_On_45_Vel_51
Note_On_60_Vel_51
Time_Shift_2
Note_On_57_Vel_46
Time_Shift_40
Note_On_40_Vel_0
Time_Shift_77
Sustain_On
Time_Shift_486
Note_On_69_Vel_78
Time_Shift_16
Note_On_64_Vel_0
Time_Shift_3
Sustain_Off
Time_Shift_2
Note_On_57_Vel_0
Note_On_60_Vel_0
Time_Shift_8
Note_On_52_Vel_0
Time_Shift_2
Note_On_60_Vel_40
Note_On_57_Vel_40
Time_Shift_2
Note_On_52_Vel_33
Time_Shift_65
Sustain_On
Time_Shift_230
Note_On_69_Vel_0
Time_Shift_11
Note_On_69_Vel_80
Time_Shift_12
Note_On_45_Vel_0
Note_On_57_Vel_0
Note_On_60_Vel_0
Time_Shift_8
Note_On_52_Vel_0
Note_On_45_Vel_46
Time_Shift_3
Note_On_57_Vel_49
Time_Shift_1
Note_On_60_Vel_50
Time_Shift_5
Note_On_52_Vel_37
Time_Shift_345
Note_On_72_Vel_77
Time_Shift_7
Note_On_69_Vel_0
Time_Shift_4
Note_On_45_Vel_0
Note_On_52_Vel_0
Time_Shift_4
Note_On_57_Vel_0
Note_On_60_Vel_0
Time_Shift_2
Note_On_69_Vel_57
Time_Shift_1
Note_On_65_Vel_38
Time_Shift_1
Note_On_60_Vel_35
Time_Shift_1
Note_On_41_Vel_46
Time_Shift_4
Note_On_53_Vel_45
Time_Shift_1
Sustain_Off
Time_Shift_82
Sustain_On
Time_Shift_322
Note_On_53_Vel_0
Time_Shift_6
Note_On_76_Vel_77
Time_Shift_10
Note_On_69_Vel_0
Time_Shift_10
Note_On_69_Vel_56
Note_On_64_Vel_54
Time_Shift_7
Note_On_41_Vel_0
Time_Shift_2
Note_On_36_Vel_42
Note_On_72_Vel_0
Time_Shift_2
Note_On_48_Vel_40
Time_Shift_17
Note_On_60_Vel_0
Time_Shift_1
Sustain_Off
Time_Shift_15
Note_On_65_Vel_0
Time_Shift_76
Sustain_On
Time_Shift_348
Note_On_74_Vel_71
Time_Shift_21
Note_On_69_Vel_0
Time_Shift_5
Note_On_64_Vel_0
Time_Shift_1
Note_On_36_Vel_0
Note_On_48_Vel_0
Time_Shift_2
Note_On_76_Vel_0
Time_Shift_3
Note_On_69_Vel_46
Time_Shift_1
Note_On_47_Vel_40
Time_Shift_4
Note_On_65_Vel_38
Time_Shift_3
Note_On_35_Vel_41
Time_Shift_6
Sustain_Off
Time_Shift_83
Sustain_On
Time_Shift_470
Note_On_71_Vel_58
Time_Shift_18
Note_On_62_Vel_40
Time_Shift_1
Note_On_68_Vel_42
Time_Shift_9
Note_On_59_Vel_33
Time_Shift_2
Note_On_52_Vel_36
Time_Shift_2
Note_On_40_Vel_33
Time_Shift_9
Note_On_35_Vel_0
Time_Shift_1
Note_On_69_Vel_0
Note_On_47_Vel_0
Time_Shift_1
Note_On_65_Vel_0
Note_On_74_Vel_0
Time_Shift_5
Sustain_Off
Time_Shift_165
Sustain_On
Time_Shift_31
Note_On_59_Vel_0
Time_Shift_727
Note_On_69_Vel_44
Time_Shift_21
Note_On_60_Vel_31
Time_Shift_12
Note_On_52_Vel_0
Time_Shift_6
Note_On_45_Vel_29
Time_Shift_3
Note_On_33_Vel_26
Time_Shift_1
Note_On_52_Vel_22
Time_Shift_5
Note_On_33_Vel_0
Time_Shift_35
Note_On_71_Vel_0
Time_Shift_1
Note_On_68_Vel_0
Time_Shift_1
Note_On_62_Vel_0
Note_On_40_Vel_0
Time_Shift_6
Sustain_Off
Time_Shift_672
Sustain_On
Time_Shift_1739
Note_On_45_Vel_0
Time_Shift_1
Note_On_60_Vel_0
Note_On_52_Vel_0
Time_Shift_180
Note_On_69_Vel_0
Time_Shift_230
Sustain_Off
Time_Shift_668
Sustain_On
Time_Shift_87
Note_On_74_Vel_34
Time_Shift_376
Note_On_77_Vel_47
Time_Shift_92
Note_On_81_Vel_63
Time_Shift_267
Note_On_81_Vel_0
Time_Shift_5
Note_On_81_Vel_65
Time_Shift_41
Note_On_77_Vel_0
Time_Shift_10
Sustain_Off
Time_Shift_225
Note_On_80_Vel_66
Time_Shift_88
Note_On_81_Vel_0
Time_Shift_28
Note_On_76_Vel_51
Time_Shift_21
Note_On_80_Vel_0
Time_Shift_89
Note_On_74_Vel_0
Time_Shift_43
Note_On_76_Vel_0
Time_Shift_2
Note_On_80_Vel_49
Time_Shift_506
Note_On_81_Vel_49
Time_Shift_33
Note_On_80_Vel_0
Time_Shift_115
Sustain_On
Time_Shift_349
Note_On_74_Vel_42
Time_Shift_316
Note_On_77_Vel_57
Time_Shift_64
Note_On_81_Vel_0
Time_Shift_10
Note_On_81_Vel_70
Time_Shift_282
Note_On_81_Vel_0
Sustain_Off
Time_Shift_5
Note_On_81_Vel_78
Time_Shift_11
Note_On_77_Vel_0
Time_Shift_76
Sustain_On
Time_Shift_215
Sustain_Off
Time_Shift_3
Note_On_79_Vel_68
Time_Shift_4
Note_On_81_Vel_0
Time_Shift_32
Note_On_74_Vel_0
Time_Shift_238
Note_On_69_Vel_46
Time_Shift_69
Note_On_69_Vel_0
Time_Shift_21
Note_On_73_Vel_55
Time_Shift_209
Note_On_79_Vel_0
Time_Shift_298
Note_On_74_Vel_47
Time_Shift_6
Note_On_73_Vel_0
Time_Shift_103
Sustain_On
Time_Shift_454
Note_On_74_Vel_0
Time_Shift_11
Note_On_74_Vel_41
Time_Shift_91
Sustain_Off
Time_Shift_143
Note_On_74_Vel_0
Time_Shift_185
Note_On_77_Vel_53
Time_Shift_84
Note_On_81_Vel_64
Time_Shift_26
Note_On_65_Vel_33
Time_Shift_1
Note_On_57_Vel_39
Time_Shift_81
Note_On_77_Vel_0
Time_Shift_15
Sustain_On
Time_Shift_307
Note_On_81_Vel_0
Time_Shift_4
Note_On_81_Vel_79
Time_Shift_27
Note_On_57_Vel_0
Note_On_65_Vel_0
Time_Shift_4
Note_On_65_Vel_40
Time_Shift_2
Note_On_57_Vel_52
Time_Shift_252
Sustain_Off
Time_Shift_7
Note_On_57_Vel_0
Time_Shift_1
Note_On_65_Vel_0
Time_Shift_4
Note_On_80_Vel_79
Time_Shift_12
Note_On_50_Vel_50
Time_Shift_48
Sustain_On
Time_Shift_46
Note_On_50_Vel_0
Time_Shift_4
Note_On_76_Vel_70
Time_Shift_1
Note_On_50_Vel_43
Time_Shift_133
Note_On_80_Vel_0
Time_Shift_6
Note_On_80_Vel_73
Time_Shift_45
Note_On_64_Vel_39
Time_Shift_4
Note_On_57_Vel_36
Time_Shift_64
Note_On_50_Vel_0
Time_Shift_1
Note_On_76_Vel_0
Time_Shift_1
Sustain_Off
Time_Shift_2
Note_On_81_Vel_0
Time_Shift_205
Note_On_57_Vel_0
Time_Shift_18
Note_On_64_Vel_0
Time_Shift_191
Note_On_81_Vel_66
Time_Shift_33
Note_On_65_Vel_43
Time_Shift_18
Note_On_57_Vel_35
Time_Shift_92
Note_On_65_Vel_0
Time_Shift_3
Note_On_57_Vel_0
Time_Shift_147
Note_On_80_Vel_0
Time_Shift_16
Note_On_74_Vel_64
Time_Shift_26
Note_On_50_Vel_40
Time_Shift_185
Note_On_77_Vel_68
Time_Shift_65
Note_On_81_Vel_0
Time_Shift_6
Note_On_81_Vel_82
Time_Shift_25
Note_On_65_Vel_47
Time_Shift_1
Note_On_57_Vel_46
Time_Shift_57
Note_On_74_Vel_0
Note_On_77_Vel_0
Time_Shift_12
Note_On_50_Vel_0
Time_Shift_19
Note_On_57_Vel_0
Time_Shift_3
Note_On_65_Vel_0
Time_Shift_134
Note_On_82_Vel_82
Time_Shift_15
Note_On_65_Vel_52
Time_Shift_1
Note_On_57_Vel_55
Time_Shift_34
Note_On_81_Vel_0
Time_Shift_5
Note_On_65_Vel_0
Time_Shift_8
Note_On_57_Vel_0
Time_Shift_50
Note_On_81_Vel_82
Time_Shift_68
Note_On_82_Vel_0
Time_Shift_49
Note_On_45_Vel_61
Time_Shift_2
Note_On_79_Vel_69
Time_Shift_10
Sustain_On
Time_Shift_197
Note_On_69_Vel_69
Time_Shift_54
Note_On_81_Vel_0
Note_On_79_Vel_0
Note_On_45_Vel_0
Time_Shift_4
Sustain_Off
Note_On_69_Vel_0
Time_Shift_11
Note_On_67_Vel_63
Time_Shift_6
Note_On_73_Vel_79
Time_Shift_1
Note_On_57_Vel_65
Time_Shift_3
Note_On_64_Vel_44
Time_Shift_31
Note_On_67_Vel_0
Time_Shift_4
Note_On_57_Vel_0
Time_Shift_1
Note_On_64_Vel_0
Time_Shift_237
Note_On_74_Vel_79
Time_Shift_8
Note_On_65_Vel_50
Note_On_62_Vel_49
Time_Shift_19
Note_On_73_Vel_0
Time_Shift_18
Note_On_65_Vel_0
Time_Shift_13
Note_On_62_Vel_0
Time_Shift_205
Note_On_50_Vel_65
Time_Shift_1
Note_On_77_Vel_82
Time_Shift_24
Note_On_74_Vel_0
Time_Shift_15
Sustain_On
Time_Shift_41
Note_On_79_Vel_85
Time_Shift_59
Note_On_77_Vel_0
Time_Shift_6
Note_On_77_Vel_71
Time_Shift_63
Sustain_Off
Time_Shift_14
Note_On_65_Vel_66
Note_On_57_Vel_70
Time_Shift_1
Note_On_76_Vel_78
Time_Shift_8
Note_On_50_Vel_0
Time_Shift_13
Note_On_79_Vel_0
Note_On_77_Vel_0
Time_Shift_18
Note_On_65_Vel_0
Time_Shift_13
Note_On_57_Vel_0
Time_Shift_198
Note_On_65_Vel_71
Time_Shift_1
Note_On_57_Vel_72
Time_Shift_26
Note_On_65_Vel_0
Time_Shift_23
Note_On_57_Vel_0
Time_Shift_30
Note_On_74_Vel_73
Time_Shift_5
Note_On_76_Vel_0
Time_Shift_108
Note_On_73_Vel_80
Time_Shift_1
Note_On_45_Vel_73
Time_Shift_18
Sustain_On
Note_On_74_Vel_0
Time_Shift_130
Sustain_Off
Time_Shift_32
Note_On_76_Vel_75
Time_Shift_49
Note_On_80_Vel_90
Note_On_64_Vel_61
Time_Shift_7
Note_On_57_Vel_64
Time_Shift_2
Note_On_68_Vel_71
Time_Shift_8
Note_On_73_Vel_0
Time_Shift_4
Note_On_76_Vel_0
Time_Shift_6
Note_On_45_Vel_0
Time_Shift_2
Note_On_64_Vel_0
Time_Shift_12
Note_On_57_Vel_0
Time_Shift_185
Note_On_68_Vel_0
Time_Shift_21
Note_On_81_Vel_86
Time_Shift_7
Note_On_69_Vel_78
Time_Shift_1
Note_On_64_Vel_73
Time_Shift_5
Note_On_57_Vel_71
Time_Shift_5
Note_On_80_Vel_0
Time_Shift_27
Note_On_69_Vel_0
Time_Shift_4
Note_On_64_Vel_0
Time_Shift_4
Note_On_57_Vel_0
Time_Shift_95
Note_On_81_Vel_0
Time_Shift_76
Note_On_77_Vel_79
Time_Shift_19
Note_On_50_Vel_64
Time_Shift_48
Note_On_79_Vel_79
Time_Shift_57
Note_On_77_Vel_0
Time_Shift_7
Note_On_77_Vel_81
Time_Shift_88
Note_On_76_Vel_85
Time_Shift_6
Note_On_65_Vel_69
Time_Shift_1
Note_On_57_Vel_71
Time_Shift_6
Note_On_50_Vel_0
Time_Shift_2
Note_On_77_Vel_0
Time_Shift_2
Note_On_79_Vel_0
Time_Shift_18
Note_On_65_Vel_0
Time_Shift_6
Note_On_57_Vel_0
Time_Shift_220
Note_On_74_Vel_80
Time_Shift_8
Note_On_65_Vel_59
Time_Shift_4
Note_On_57_Vel_60
Time_Shift_12
Note_On_76_Vel_0
Time_Shift_17
Note_On_65_Vel_0
Time_Shift_6
Note_On_57_Vel_0
Time_Shift_193
Note_On_45_Vel_51
Note_On_81_Vel_87
Time_Shift_18
Sustain_On
Time_Shift_181
Note_On_69_Vel_68
Time_Shift_78
Sustain_Off
Note_On_81_Vel_0
Time_Shift_4
Note_On_69_Vel_0
Time_Shift_2
Note_On_73_Vel_78
Time_Shift_4
Note_On_74_Vel_0
Time_Shift_13
Note_On_57_Vel_48
Time_Shift_1
Note_On_67_Vel_46
Time_Shift_4
Note_On_64_Vel_42
Time_Shift_36
Note_On_45_Vel_0
Time_Shift_7
Note_On_73_Vel_0
Time_Shift_5
Note_On_67_Vel_0
Time_Shift_1
Note_On_57_Vel_0
Time_Shift_11
Note_On_64_Vel_0
Time_Shift_205
Note_On_74_Vel_76
Time_Shift_28
Note_On_62_Vel_39
Time_Shift_1
Note_On_65_Vel_40
Time_Shift_36
Note_On_65_Vel_0
Time_Shift_13
Note_On_62_Vel_0
Time_Shift_46
Sustain_On
Time_Shift_174
Note_On_77_Vel_76
Note_On_50_Vel_45
Time_Shift_1
Note_On_62_Vel_46
Time_Shift_91
Note_On_79_Vel_66
Time_Shift_64
Note_On_77_Vel_0
Time_Shift_8
Note_On_77_Vel_74
Time_Shift_61
Sustain_Off
Time_Shift_3
Note_On_74_Vel_0
Note_On_62_Vel_0
Note_On_50_Vel_0
Time_Shift_1
Note_On_79_Vel_0
Time_Shift_40
Note_On_76_Vel_62
Time_Shift_26
Note_On_77_Vel_0
Time_Shift_5
Note_On_57_Vel_45
Time_Shift_4
Note_On_65_Vel_38
Time_Shift_95
Note_On_57_Vel_0
Time_Shift_1
Note_On_65_Vel_0
Time_Shift_312
Note_On_69_Vel_37
Note_On_65_Vel_41
Time_Shift_8
Note_On_57_Vel_38
Time_Shift_77
Note_On_65_Vel_0
Time_Shift_16
Note_On_57_Vel_0
Time_Shift_63
Note_On_76_Vel_0
Time_Shift_12
Note_On_74_Vel_49
Time_Shift_6
Note_On_69_Vel_0
Time_Shift_218
Note_On_73_Vel_48
Time_Shift_2
Note_On_45_Vel_48
Time_Shift_2
Sustain_On
Time_Shift_31
Note_On_74_Vel_0
Time_Shift_173
Note_On_76_Vel_52
Time_Shift_84
Note_On_80_Vel_78
Time_Shift_16
Note_On_73_Vel_0
Time_Shift_1
Note_On_57_Vel_41
Time_Shift_3
Note_On_64_Vel_42
Time_Shift_3
Note_On_68_Vel_55
Sustain_Off
Note_On_76_Vel_0
Time_Shift_12
Note_On_45_Vel_0
Time_Shift_13
Note_On_64_Vel_0
Time_Shift_14
Note_On_57_Vel_0
Time_Shift_57
Sustain_On
Time_Shift_82
Note_On_68_Vel_0
Time_Shift_35
Sustain_Off
Time_Shift_10
Note_On_81_Vel_77
Time_Shift_15
Note_On_64_Vel_63
Time_Shift_7
Note_On_57_Vel_55
Time_Shift_1
Note_On_69_Vel_63
Time_Shift_4
Note_On_80_Vel_0
Time_Shift_26
Note_On_64_Vel_0
Time_Shift_28
Note_On_57_Vel_0
Time_Shift_100
Note_On_69_Vel_0
Time_Shift_29
Note_On_77_Vel_78
Time_Shift_1
Note_On_81_Vel_0
Time_Shift_25
Note_On_50_Vel_53
Time_Shift_21
Sustain_On
Time_Shift_25
Note_On_79_Vel_78
Time_Shift_60
Note_On_77_Vel_0
Time_Shift_5
Note_On_77_Vel_85
Time_Shift_84
Note_On_76_Vel_73
Note_On_50_Vel_0
Time_Shift_2
Sustain_Off
Note_On_79_Vel_0
Time_Shift_2
Note_On_77_Vel_0
Time_Shift_23
Note_On_65_Vel_59
Time_Shift_1
Note_On_57_Vel_58
Time_Shift_33
Note_On_65_Vel_0
Time_Shift_5
Note_On_57_Vel_0
Time_Shift_192
Note_On_74_Vel_75
Time_Shift_8
Note_On_69_Vel_57
Time_Shift_1
Note_On_65_Vel_57
Note_On_57_Vel_57
Time_Shift_13
Note_On_76_Vel_0
Time_Shift_26
Note_On_65_Vel_0
Note_On_57_Vel_0
Time_Shift_12
Note_On_69_Vel_0
Time_Shift_180
Note_On_81_Vel_73
Time_Shift_4
Sustain_On
Time_Shift_5
Note_On_45_Vel_58
Time_Shift_201
Note_On_69_Vel_60
Time_Shift_23
Sustain_Off
Time_Shift_6
Note_On_45_Vel_0
Note_On_74_Vel_0
Note_On_81_Vel_0
Time_Shift_51
Note_On_73_Vel_64
Time_Shift_18
Note_On_57_Vel_42
Time_Shift_2
Note_On_67_Vel_40
Time_Shift_5
Note_On_64_Vel_37
Time_Shift_20
Note_On_69_Vel_0
Time_Shift_88
Note_On_67_Vel_0
Time_Shift_6
Note_On_64_Vel_0
Time_Shift_2
Note_On_57_Vel_0
Time_Shift_134
Note_On_73_Vel_0
Time_Shift_24
Note_On_74_Vel_61
Time_Shift_35
Note_On_62_Vel_32
Time_Shift_5
Note_On_65_Vel_35
Time_Shift_33
Note_On_62_Vel_0
Time_Shift_4
Note_On_65_Vel_0
Time_Shift_250
Note_On_81_Vel_60
Time_Shift_26
Note_On_45_Vel_37
Time_Shift_15
Sustain_On
Time_Shift_221
Note_On_69_Vel_49
Time_Shift_83
Note_On_45_Vel_0
Time_Shift_2
Note_On_74_Vel_0
Time_Shift_2
Note_On_81_Vel_0
Time_Shift_1
Note_On_69_Vel_0
Time_Shift_8
Sustain_Off
Time_Shift_39
Note_On_73_Vel_47
Time_Shift_16
Note_On_67_Vel_35
Time_Shift_39
Note_On_57_Vel_30
Time_Shift_2
Note_On_64_Vel_27
Time_Shift_239
Note_On_67_Vel_0
Time_Shift_13
Note_On_64_Vel_0
Time_Shift_3
Note_On_57_Vel_0
Time_Shift_7
Note_On_73_Vel_0
Time_Shift_223
Note_On_74_Vel_38
Time_Shift_63
Note_On_62_Vel_16
Time_Shift_2
Note_On_65_Vel_14
Time_Shift_2
Note_On_69_Vel_9
Time_Shift_79
Sustain_On
Time_Shift_736
Sustain_Off
Time_Shift_15
Note_On_86_Vel_43
Time_Shift_31
Note_On_38_Vel_23
Time_Shift_117
Sustain_On
Time_Shift_858
Note_On_38_Vel_0
Time_Shift_71
Note_On_74_Vel_0
Time_Shift_31
Note_On_69_Vel_0
Time_Shift_46
Note_On_62_Vel_0
Time_Shift_23
Note_On_86_Vel_0
Time_Shift_15
Sustain_Off
Time_Shift_138
Note_On_65_Vel_0
