Ticks_Per_Beat_384
Tempo_500000
Time_Shift_7
Sustain_On
Time_Shift_750
Note_On_37_Vel_32
Time_Shift_346
Note_On_56_Vel_43
Time_Shift_344
Note_On_65_Vel_46
Time_Shift_8
Note_On_61_Vel_38
Time_Shift_396
Note_On_66_Vel_44
Time_Shift_15
Note_On_61_Vel_0
Time_Shift_10
Note_On_61_Vel_32
Time_Shift_1
Note_On_60_Vel_42
Time_Shift_79
Note_On_61_Vel_0
Note_On_37_Vel_0
Time_Shift_3
Note_On_65_Vel_0
Note_On_56_Vel_0
Time_Shift_3
Sustain_Off
Time_Shift_119
Sustain_On
Time_Shift_245
Note_On_56_Vel_46
Time_Shift_925
Note_On_37_Vel_39
Time_Shift_36
Note_On_60_Vel_0
Time_Shift_34
Sustain_Off
Note_On_56_Vel_0
Time_Shift_2
Note_On_66_Vel_0
Time_Shift_156
Sustain_On
Time_Shift_108
Note_On_56_Vel_46
Time_Shift_99
Note_On_37_Vel_0
Time_Shift_248
Note_On_65_Vel_42
Time_Shift_3
Note_On_61_Vel_36
Time_Shift_454
Note_On_66_Vel_39
Time_Shift_22
Note_On_60_Vel_36
Time_Shift_81
Note_On_61_Vel_0
Time_Shift_1
Note_On_65_Vel_0
Note_On_56_Vel_0
Time_Shift_3
Sustain_Off
Time_Shift_163
Sustain_On
Time_Shift_251
Note_On_56_Vel_41
Time_Shift_972
Note_On_77_Vel_50
Time_Shift_43
Note_On_37_Vel_26
Time_Shift_28
Sustain_Off
Time_Shift_1
Note_On_60_Vel_0
Note_On_56_Vel_0
Time_Shift_2
Note_On_66_Vel_0
Time_Shift_116
Sustain_On
Time_Shift_74
Note_On_37_Vel_0
Time_Shift_321
Note_On_56_Vel_45
Time_Shift_368
Note_On_61_Vel_40
Time_Shift_1
Note_On_65_Vel_35
Time_Shift_336
Note_On_75_Vel_68
Time_Shift_37
Note_On_61_Vel_0
Time_Shift_5
Note_On_61_Vel_26
Time_Shift_36
Note_On_66_Vel_30
Time_Shift_7
Note_On_60_Vel_29
Time_Shift_33
Note_On_65_Vel_0
Time_Shift_1
Note_On_61_Vel_0
Note_On_56_Vel_0
Time_Shift_6
Note_On_77_Vel_0
Sustain_Off
Time_Shift_81
Sustain_On
Time_Shift_229
Note_On_80_Vel_73
Time_Shift_54
Note_On_56_Vel_36
Time_Shift_282
Note_On_77_Vel_70
Time_Shift_334
Note_On_75_Vel_0
Time_Shift_1
Note_On_37_Vel_44
Time_Shift_2
Note_On_75_Vel_54
Time_Shift_38
Sustain_Off
Time_Shift_8
Note_On_60_Vel_0
Time_Shift_1
Note_On_66_Vel_0
Note_On_56_Vel_0
Time_Shift_88
Sustain_On
Time_Shift_223
Note_On_77_Vel_0
Time_Shift_10
Note_On_77_Vel_60
Time_Shift_45
Note_On_56_Vel_40
Time_Shift_285
Note_On_73_Vel_55
Time_Shift_48
Note_On_61_Vel_31
Time_Shift_1
Note_On_65_Vel_36
Time_Shift_286
Note_On_80_Vel_0
Time_Shift_12
Note_On_70_Vel_48
Time_Shift_38
Note_On_66_Vel_42
Time_Shift_2
Note_On_63_Vel_37
Time_Shift_45
Note_On_65_Vel_0
Note_On_61_Vel_0
Time_Shift_1
Note_On_56_Vel_0
Note_On_37_Vel_0
Note_On_73_Vel_0
Time_Shift_2
Sustain_Off
Time_Shift_8
Note_On_75_Vel_0
Time_Shift_8
Note_On_77_Vel_0
Time_Shift_84
Sustain_On
Time_Shift_167
Note_On_72_Vel_51
Time_Shift_61
Note_On_56_Vel_34
Time_Shift_265
Note_On_75_Vel_52
Time_Shift_388
Note_On_68_Vel_45
Time_Shift_21
Note_On_37_Vel_31
Time_Shift_22
Note_On_56_Vel_0
Time_Shift_1
Note_On_72_Vel_0
Note_On_63_Vel_0
Time_Shift_1
Note_On_75_Vel_0
Note_On_66_Vel_0
Sustain_Off
Time_Shift_19
Note_On_70_Vel_0
Time_Shift_100
Sustain_On
Time_Shift_305
Note_On_73_Vel_53
Time_Shift_48
Note_On_56_Vel_42
Time_Shift_327
Note_On_65_Vel_40
Time_Shift_3
Note_On_61_Vel_42
Time_Shift_325
Note_On_75_Vel_65
Time_Shift_43
Note_On_66_Vel_40
Time_Shift_5
Note_On_60_Vel_43
Time_Shift_70
Note_On_68_Vel_0
Note_On_65_Vel_0
Time_Shift_1
Note_On_61_Vel_0
Time_Shift_4
Sustain_Off
Time_Shift_51
Sustain_On
Time_Shift_164
Note_On_78_Vel_69
Time_Shift_51
Note_On_56_Vel_0
Time_Shift_9
Note_On_56_Vel_39
Time_Shift_258
Note_On_82_Vel_64
Time_Shift_358
Note_On_80_Vel_58
Time_Shift_13
Note_On_37_Vel_0
Time_Shift_4
Note_On_37_Vel_35
Time_Shift_22
Sustain_Off
Time_Shift_1
Note_On_60_Vel_0
Time_Shift_2
Note_On_78_Vel_0
Time_Shift_2
Note_On_56_Vel_0
Time_Shift_2
Note_On_82_Vel_0
Note_On_66_Vel_0
Time_Shift_1
Note_On_75_Vel_0
Time_Shift_50
Sustain_On
Time_Shift_115
Note_On_73_Vel_0
Time_Shift_157
Note_On_78_Vel_54
Time_Shift_25
Note_On_56_Vel_42
Time_Shift_292
Note_On_77_Vel_53
Time_Shift_25
Note_On_73_Vel_32
Time_Shift_9
Note_On_61_Vel_35
Time_Shift_2
Note_On_65_Vel_36
Time_Shift_327
Note_On_75_Vel_52
Time_Shift_35
Note_On_72_Vel_27
Time_Shift_2
Note_On_66_Vel_36
Time_Shift_14
Note_On_60_Vel_28
Time_Shift_50
Note_On_37_Vel_0
Time_Shift_1
Note_On_61_Vel_0
Note_On_65_Vel_0
Note_On_78_Vel_0
Time_Shift_1
Note_On_56_Vel_0
Note_On_80_Vel_0
Note_On_77_Vel_0
Time_Shift_5
Note_On_73_Vel_0
Time_Shift_5
Sustain_Off
Time_Shift_80
Sustain_On
Time_Shift_221
Note_On_73_Vel_49
Time_Shift_31
Note_On_56_Vel_40
Time_Shift_300
Note_On_75_Vel_0
Time_Shift_5
Note_On_75_Vel_53
Time_Shift_19
Note_On_72_Vel_0
Time_Shift_9
Note_On_72_Vel_51
Time_Shift_350
Note_On_37_Vel_39
Time_Shift_66
Note_On_77_Vel_58
Time_Shift_20
Note_On_73_Vel_0
Time_Shift_8
Note_On_73_Vel_31
Time_Shift_14
Note_On_60_Vel_0
Note_On_72_Vel_0
Note_On_56_Vel_0
Note_On_75_Vel_0
Time_Shift_2
Note_On_66_Vel_0
Time_Shift_5
Sustain_Off
Time_Shift_86
Sustain_On
Time_Shift_296
Note_On_72_Vel_53
Time_Shift_33
Note_On_56_Vel_28
Time_Shift_285
Note_On_65_Vel_39
Time_Shift_2
Note_On_61_Vel_39
Time_Shift_1
Note_On_70_Vel_52
Time_Shift_36
Note_On_37_Vel_0
Time_Shift_323
Note_On_72_Vel_0
Time_Shift_4
Note_On_75_Vel_63
Time_Shift_1
Note_On_72_Vel_50
Time_Shift_9
Note_On_66_Vel_41
Time_Shift_34
Note_On_63_Vel_36
Time_Shift_18
Note_On_61_Vel_0
Note_On_65_Vel_0
Note_On_56_Vel_0
Note_On_70_Vel_0
Time_Shift_1
Note_On_77_Vel_0
Time_Shift_9
Sustain_Off
Note_On_73_Vel_0
Time_Shift_85
Sustain_On
Time_Shift_181
Note_On_80_Vel_64
Time_Shift_25
Note_On_56_Vel_44
Time_Shift_12
Note_On_70_Vel_34
Time_Shift_292
Note_On_77_Vel_72
Time_Shift_47
Note_On_68_Vel_48
Time_Shift_27
Note_On_56_Vel_0
Time_Shift_23
Note_On_63_Vel_0
Time_Shift_215
Note_On_72_Vel_0
Time_Shift_12
Note_On_37_Vel_44
Time_Shift_34
Note_On_75_Vel_0
Time_Shift_11
Note_On_75_Vel_73
Time_Shift_12
Note_On_70_Vel_0
Time_Shift_8
Note_On_70_Vel_46
Time_Shift_3
Note_On_71_Vel_44
Time_Shift_4
Note_On_71_Vel_0
Time_Shift_8
Note_On_68_Vel_0
Time_Shift_5
Note_On_68_Vel_34
Time_Shift_41
Note_On_66_Vel_0
Time_Shift_15
Note_On_80_Vel_0
Time_Shift_238
Note_On_77_Vel_0
Time_Shift_8
Note_On_77_Vel_72
Time_Shift_38
Note_On_68_Vel_0
Time_Shift_11
Note_On_68_Vel_44
Time_Shift_2
Note_On_56_Vel_44
Time_Shift_273
Note_On_73_Vel_68
Time_Shift_34
Note_On_65_Vel_42
Time_Shift_2
Note_On_61_Vel_41
Time_Shift_316
Note_On_70_Vel_0
Time_Shift_7
Note_On_70_Vel_57
Time_Shift_3
Note_On_66_Vel_46
Time_Shift_29
Note_On_63_Vel_40
Time_Shift_41
Note_On_65_Vel_0
Sustain_Off
Note_On_37_Vel_0
Time_Shift_1
Note_On_68_Vel_0
Note_On_77_Vel_0
Note_On_75_Vel_0
Note_On_73_Vel_0
Note_On_61_Vel_0
Time_Shift_1
Note_On_56_Vel_0
Time_Shift_110
Sustain_On
Time_Shift_180
Note_On_72_Vel_61
Time_Shift_29
Note_On_65_Vel_39
Time_Shift_18
Note_On_56_Vel_34
Time_Shift_314
Note_On_75_Vel_56
Time_Shift_12
Note_On_63_Vel_0
Time_Shift_11
Note_On_63_Vel_45
Time_Shift_383
Note_On_37_Vel_36
Time_Shift_74
Note_On_66_Vel_0
Note_On_72_Vel_0
Time_Shift_8
Note_On_72_Vel_36
Time_Shift_1
Note_On_68_Vel_51
Time_Shift_2
Note_On_56_Vel_0
Note_On_66_Vel_40
Sustain_Off
Time_Shift_5
Note_On_70_Vel_0
Note_On_75_Vel_0
Note_On_63_Vel_0
Time_Shift_1
Note_On_65_Vel_0
Time_Shift_129
Sustain_On
Time_Shift_327
Note_On_73_Vel_52
Time_Shift_31
Note_On_65_Vel_37
Time_Shift_6
Note_On_56_Vel_41
Time_Shift_105
Note_On_72_Vel_0
Time_Shift_222
Note_On_65_Vel_0
Note_On_73_Vel_0
Time_Shift_8
Note_On_65_Vel_42
Time_Shift_2
Note_On_73_Vel_35
Time_Shift_10
Note_On_70_Vel_42
Time_Shift_345
Note_On_75_Vel_70
Time_Shift_12
Note_On_66_Vel_0
Time_Shift_10
Note_On_66_Vel_39
Time_Shift_4
Note_On_72_Vel_43
Time_Shift_14
Note_On_63_Vel_39
Time_Shift_19
Note_On_37_Vel_0
Time_Shift_2
Note_On_65_Vel_0
Time_Shift_1
Note_On_70_Vel_0
Note_On_73_Vel_0
Time_Shift_3
Note_On_68_Vel_0
Time_Shift_9
Sustain_Off
Time_Shift_45
Sustain_On
Time_Shift_215
Note_On_78_Vel_75
Time_Shift_39
Note_On_66_Vel_0
Time_Shift_7
Note_On_70_Vel_39
Note_On_56_Vel_0
Time_Shift_1
Note_On_66_Vel_29
Time_Shift_4
Note_On_56_Vel_45
Time_Shift_286
Note_On_82_Vel_73
Time_Shift_57
Note_On_68_Vel_35
Time_Shift_257
Note_On_37_Vel_45
Time_Shift_68
Note_On_80_Vel_66
Time_Shift_3
Note_On_63_Vel_0
Note_On_77_Vel_55
Time_Shift_44
Note_On_56_Vel_0
Time_Shift_1
Note_On_66_Vel_0
Time_Shift_2
Note_On_78_Vel_0
Time_Shift_8
Sustain_Off
Time_Shift_14
Note_On_70_Vel_0
Note_On_72_Vel_0
Note_On_75_Vel_0
Time_Shift_46
Sustain_On
Time_Shift_307
Note_On_85_Vel_80
Time_Shift_35
Note_On_72_Vel_49
Time_Shift_9
Note_On_56_Vel_45
Time_Shift_1
Note_On_53_Vel_27
Time_Shift_140
Note_On_82_Vel_0
Time_Shift_8
Note_On_68_Vel_0
Time_Shift_142
Note_On_82_Vel_76
Time_Shift_19
Note_On_53_Vel_0
Time_Shift_5
Note_On_53_Vel_38
Time_Shift_5
Note_On_73_Vel_45
Time_Shift_2
Note_On_61_Vel_43
Time_Shift_3
Note_On_65_Vel_39
Time_Shift_294
Note_On_78_Vel_73
Time_Shift_11
Note_On_75_Vel_62
Time_Shift_31
Note_On_66_Vel_39
Time_Shift_6
Note_On_53_Vel_0
Time_Shift_7
Note_On_37_Vel_0
Time_Shift_3
Note_On_61_Vel_0
Time_Shift_4
Note_On_63_Vel_42
Time_Shift_9
Sustain_Off
Time_Shift_4
Note_On_77_Vel_0
Note_On_80_Vel_0
Time_Shift_7
Note_On_65_Vel_0
Time_Shift_8
Note_On_72_Vel_0
Note_On_82_Vel_0
Time_Shift_8
Sustain_On
Time_Shift_31
Note_On_85_Vel_0
Time_Shift_192
Note_On_63_Vel_0
Time_Shift_19
Note_On_84_Vel_62
Time_Shift_16
Note_On_70_Vel_46
Time_Shift_7
Note_On_72_Vel_40
Time_Shift_4
Note_On_56_Vel_0
Time_Shift_6
Note_On_56_Vel_43
Time_Shift_292
Note_On_80_Vel_64
Time_Shift_24
Note_On_72_Vel_0
Time_Shift_6
Note_On_72_Vel_55
Time_Shift_266
Note_On_37_Vel_43
Time_Shift_28
Note_On_73_Vel_0
Note_On_77_Vel_61
Time_Shift_6
Note_On_73_Vel_53
Time_Shift_21
Sustain_Off
Time_Shift_7
Note_On_84_Vel_0
Time_Shift_5
Note_On_72_Vel_0
Note_On_56_Vel_0
Time_Shift_1
Note_On_80_Vel_0
Time_Shift_2
Note_On_78_Vel_0
Note_On_75_Vel_0
Time_Shift_19
Note_On_66_Vel_0
Time_Shift_8
Note_On_70_Vel_0
Time_Shift_54
Sustain_On
Time_Shift_249
Note_On_82_Vel_56
Time_Shift_14
Note_On_68_Vel_51
Time_Shift_5
Note_On_56_Vel_50
Time_Shift_291
Note_On_78_Vel_57
Time_Shift_21
Note_On_70_Vel_41
Time_Shift_3
Note_On_73_Vel_0
Time_Shift_5
Note_On_73_Vel_30
Time_Shift_5
Note_On_65_Vel_36
Time_Shift_1
Note_On_61_Vel_37
Time_Shift_338
Note_On_75_Vel_56
Time_Shift_3
Note_On_72_Vel_45
Time_Shift_2
Note_On_66_Vel_45
Time_Shift_8
Note_On_63_Vel_42
Time_Shift_27
Note_On_65_Vel_0
Note_On_82_Vel_0
Time_Shift_1
Note_On_70_Vel_0
Note_On_61_Vel_0
Note_On_77_Vel_0
Note_On_78_Vel_0
Time_Shift_1
Note_On_56_Vel_0
Time_Shift_4
Sustain_Off
Time_Shift_5
Note_On_68_Vel_0
Time_Shift_7
Note_On_73_Vel_0
Time_Shift_54
Note_On_37_Vel_0
Time_Shift_15
Sustain_On
Time_Shift_100
Note_On_63_Vel_0
Time_Shift_118
Note_On_80_Vel_57
Time_Shift_28
Note_On_66_Vel_0
Time_Shift_5
Note_On_66_Vel_16
Time_Shift_6
Note_On_56_Vel_35
Time_Shift_294
Note_On_77_Vel_55
Time_Shift_16
Note_On_73_Vel_29
Time_Shift_8
Note_On_68_Vel_40
Time_Shift_364
Note_On_37_Vel_41
Time_Shift_6
Note_On_75_Vel_0
Time_Shift_11
Note_On_75_Vel_51
Time_Shift_2
Note_On_70_Vel_46
Time_Shift_18
Note_On_68_Vel_0
Time_Shift_11
Note_On_68_Vel_24
Time_Shift_17
Note_On_66_Vel_0
Time_Shift_1
Note_On_56_Vel_0
Time_Shift_2
Note_On_77_Vel_0
Time_Shift_1
Note_On_80_Vel_0
Time_Shift_3
Sustain_Off
Time_Shift_3
Note_On_72_Vel_0
Time_Shift_16
Note_On_73_Vel_0
Time_Shift_69
Sustain_On
Time_Shift_254
Note_On_77_Vel_55
Time_Shift_19
Note_On_65_Vel_41
Time_Shift_62
Note_On_56_Vel_35
Time_Shift_256
Note_On_68_Vel_0
Time_Shift_2
Note_On_73_Vel_61
Time_Shift_2
Note_On_68_Vel_57
Time_Shift_21
Note_On_61_Vel_47
Time_Shift_336
Note_On_70_Vel_0
Time_Shift_11
Note_On_66_Vel_43
Note_On_70_Vel_57
Time_Shift_46
Note_On_63_Vel_41
Time_Shift_41
Note_On_56_Vel_0
Note_On_65_Vel_0
Note_On_68_Vel_0
Note_On_77_Vel_0
Time_Shift_1
Note_On_73_Vel_0
Note_On_61_Vel_0
Time_Shift_1
Note_On_37_Vel_0
Time_Shift_4
Sustain_Off
Time_Shift_4
Note_On_75_Vel_0
Time_Shift_84
Sustain_On
Time_Shift_170
Note_On_72_Vel_61
Time_Shift_69
Note_On_56_Vel_27
Time_Shift_97
Note_On_65_Vel_44
Time_Shift_185
Note_On_75_Vel_61
Time_Shift_170
Note_On_63_Vel_0
Time_Shift_6
Note_On_63_Vel_51
Time_Shift_236
Note_On_37_Vel_34
Time_Shift_53
Note_On_68_Vel_54
Time_Shift_5
Note_On_66_Vel_0
Time_Shift_11
Note_On_66_Vel_40
Time_Shift_16
Note_On_56_Vel_0
Time_Shift_1
Note_On_65_Vel_0
Note_On_75_Vel_0
Time_Shift_1
Note_On_63_Vel_0
Note_On_72_Vel_0
Time_Shift_2
Note_On_70_Vel_0
Time_Shift_8
Sustain_Off
Time_Shift_30
Note_On_66_Vel_0
Time_Shift_69
Sustain_On
Time_Shift_131
Note_On_65_Vel_42
Time_Shift_179
Note_On_73_Vel_57
Time_Shift_23
Note_On_56_Vel_44
Time_Shift_148
Note_On_63_Vel_51
Time_Shift_164
Note_On_65_Vel_0
Time_Shift_4
Note_On_65_Vel_42
Time_Shift_8
Note_On_61_Vel_44
Time_Shift_163
Note_On_70_Vel_56
Time_Shift_232
Note_On_75_Vel_55
Time_Shift_31
Note_On_73_Vel_0
Time_Shift_6
Note_On_73_Vel_45
Time_Shift_10
Note_On_56_Vel_0
Time_Shift_1
Note_On_37_Vel_0
Time_Shift_1
Note_On_65_Vel_0
Note_On_61_Vel_0
Time_Shift_1
Note_On_70_Vel_0
Time_Shift_4
Note_On_63_Vel_0
Time_Shift_3
Sustain_Off
Time_Shift_5
Note_On_68_Vel_0
Note_On_66_Vel_34
Time_Shift_3
Note_On_63_Vel_35
Time_Shift_73
Sustain_On
Time_Shift_87
Note_On_72_Vel_54
Time_Shift_136
Note_On_56_Vel_35
Time_Shift_34
Note_On_78_Vel_61
Time_Shift_162
Note_On_70_Vel_49
Time_Shift_166
Note_On_82_Vel_58
Time_Shift_22
Note_On_56_Vel_0
Time_Shift_10
Note_On_56_Vel_27
Time_Shift_140
Note_On_68_Vel_45
Time_Shift_194
Note_On_37_Vel_38
Time_Shift_32
Note_On_80_Vel_56
Time_Shift_23
Note_On_78_Vel_0
Time_Shift_11
Note_On_78_Vel_46
Time_Shift_6
Sustain_Off
Time_Shift_8
Note_On_72_Vel_0
Time_Shift_1
Note_On_63_Vel_0
Note_On_82_Vel_0
Note_On_66_Vel_0
Note_On_56_Vel_0
Note_On_70_Vel_0
Time_Shift_21
Note_On_75_Vel_0
Time_Shift_7
Note_On_73_Vel_0
Time_Shift_62
Sustain_On
Time_Shift_147
Note_On_77_Vel_43
Time_Shift_175
Note_On_68_Vel_0
Time_Shift_2
Note_On_85_Vel_67
Time_Shift_31
Note_On_56_Vel_33
Time_Shift_3
Note_On_59_Vel_18
Time_Shift_10
Note_On_59_Vel_0
Time_Shift_136
Note_On_75_Vel_49
Time_Shift_159
Note_On_82_Vel_71
Note_On_65_Vel_40
Time_Shift_1
Note_On_61_Vel_47
Time_Shift_148
Note_On_73_Vel_49
Time_Shift_194
Note_On_78_Vel_0
Time_Shift_8
Note_On_78_Vel_51
Time_Shift_6
Note_On_60_Vel_42
Time_Shift_1
Note_On_72_Vel_41
Time_Shift_2
Note_On_66_Vel_41
Time_Shift_37
Note_On_37_Vel_0
Time_Shift_1
Note_On_65_Vel_0
Time_Shift_1
Note_On_75_Vel_0
Time_Shift_1
Note_On_61_Vel_0
Note_On_77_Vel_0
Time_Shift_1
Note_On_73_Vel_0
Time_Shift_11
Sustain_Off
Time_Shift_31
Note_On_80_Vel_0
Sustain_On
Time_Shift_7
Note_On_56_Vel_0
Time_Shift_103
Note_On_74_Vel_41
Time_Shift_164
Note_On_84_Vel_55
Time_Shift_35
Note_On_56_Vel_42
Time_Shift_1
Note_On_75_Vel_46
Time_Shift_193
Note_On_68_Vel_43
Time_Shift_248
Note_On_76_Vel_47
Time_Shift_1
Note_On_80_Vel_41
Time_Shift_200
Note_On_68_Vel_0
Time_Shift_5
Note_On_68_Vel_41
Time_Shift_240
Note_On_37_Vel_34
Time_Shift_70
Note_On_80_Vel_0
Time_Shift_4
Note_On_80_Vel_50
Time_Shift_2
Sustain_Off
Time_Shift_1
Note_On_77_Vel_45
Time_Shift_1
Note_On_72_Vel_0
Time_Shift_1
Note_On_82_Vel_0
Note_On_60_Vel_0
Note_On_84_Vel_0
Time_Shift_1
Note_On_68_Vel_0
Note_On_74_Vel_0
Note_On_66_Vel_0
Note_On_75_Vel_0
Note_On_76_Vel_0
Time_Shift_1
Note_On_56_Vel_0
Time_Shift_12
Note_On_85_Vel_0
Time_Shift_15
Note_On_78_Vel_0
Time_Shift_77
Sustain_On
Time_Shift_53
Note_On_68_Vel_40
Time_Shift_78
Note_On_37_Vel_0
Time_Shift_208
Note_On_56_Vel_46
Time_Shift_356
Note_On_65_Vel_31
Time_Shift_1
Note_On_61_Vel_34
Time_Shift_360
Note_On_66_Vel_37
Time_Shift_13
Note_On_60_Vel_31
Time_Shift_45
Note_On_80_Vel_0
Time_Shift_4
Note_On_80_Vel_53
Note_On_75_Vel_52
Time_Shift_53
Note_On_56_Vel_0
Note_On_61_Vel_0
Time_Shift_1
Note_On_65_Vel_0
Note_On_77_Vel_0
Time_Shift_2
Sustain_Off
Time_Shift_47
Note_On_68_Vel_0
Time_Shift_1
Note_On_72_Vel_31
Time_Shift_3
Note_On_68_Vel_38
Time_Shift_19
Sustain_On
Time_Shift_238
Note_On_80_Vel_0
Time_Shift_10
Note_On_80_Vel_69
Time_Shift_2
Note_On_56_Vel_37
Time_Shift_96
Note_On_68_Vel_0
Time_Shift_5
Note_On_68_Vel_44
Time_Shift_233
Note_On_80_Vel_0
Time_Shift_5
Note_On_80_Vel_58
Time_Shift_3
Note_On_77_Vel_62
Time_Shift_15
Note_On_56_Vel_0
Time_Shift_11
Note_On_56_Vel_30
Time_Shift_96
Note_On_68_Vel_0
Time_Shift_5
Note_On_68_Vel_30
Time_Shift_160
Note_On_37_Vel_45
Time_Shift_43
Note_On_80_Vel_0
Time_Shift_9
Note_On_80_Vel_57
Time_Shift_3
Note_On_72_Vel_0
Time_Shift_3
Note_On_66_Vel_0
Note_On_75_Vel_0
Note_On_77_Vel_0
Time_Shift_1
Note_On_60_Vel_0
Time_Shift_1
Note_On_56_Vel_0
Time_Shift_3
Sustain_Off
Time_Shift_3
Note_On_75_Vel_54
Time_Shift_77
Note_On_68_Vel_0
Time_Shift_4
Note_On_68_Vel_40
Time_Shift_26
Sustain_On
Time_Shift_185
Note_On_80_Vel_0
Time_Shift_11
Note_On_80_Vel_52
Time_Shift_16
Note_On_77_Vel_49
Time_Shift_17
Note_On_56_Vel_37
Time_Shift_63
Note_On_68_Vel_0
Time_Shift_7
Note_On_68_Vel_51
Time_Shift_216
Note_On_80_Vel_0
Time_Shift_5
Note_On_80_Vel_56
Time_Shift_23
Note_On_73_Vel_44
Time_Shift_1
Note_On_65_Vel_37
Time_Shift_5
Note_On_61_Vel_46
Time_Shift_50
Note_On_68_Vel_0
Time_Shift_11
Note_On_68_Vel_49
Time_Shift_250
Note_On_80_Vel_0
Time_Shift_7
Note_On_70_Vel_54
Time_Shift_4
Note_On_80_Vel_60
Time_Shift_24
Note_On_49_Vel_35
Note_On_66_Vel_35
Time_Shift_1
Note_On_37_Vel_0
Note_On_65_Vel_0
Note_On_68_Vel_0
Time_Shift_1
Note_On_61_Vel_0
Note_On_75_Vel_0
Time_Shift_1
Note_On_63_Vel_35
Note_On_73_Vel_0
Time_Shift_6
Sustain_Off
Time_Shift_3
Note_On_77_Vel_0
Time_Shift_7
Note_On_56_Vel_0
Time_Shift_85
Sustain_On
Time_Shift_207
Note_On_80_Vel_0
Time_Shift_6
Note_On_80_Vel_49
Time_Shift_2
Note_On_72_Vel_55
Time_Shift_7
Note_On_56_Vel_38
Time_Shift_16
Note_On_49_Vel_0
Time_Shift_45
Note_On_68_Vel_45
Time_Shift_247
Note_On_80_Vel_0
Time_Shift_4
Note_On_80_Vel_54
Time_Shift_11
Note_On_75_Vel_46
Time_Shift_84
Note_On_68_Vel_0
Time_Shift_5
Note_On_68_Vel_44
Time_Shift_220
Note_On_37_Vel_39
Time_Shift_44
Note_On_80_Vel_0
Time_Shift_10
Note_On_80_Vel_52
Time_Shift_21
Note_On_68_Vel_0
Time_Shift_7
Note_On_68_Vel_35
Time_Shift_2
Note_On_75_Vel_0
Note_On_66_Vel_0
Time_Shift_1
Note_On_72_Vel_0
Note_On_56_Vel_0
Note_On_63_Vel_0
Time_Shift_1
Note_On_70_Vel_0
Sustain_Off
Time_Shift_3
Note_On_65_Vel_18
Time_Shift_40
Sustain_On
Time_Shift_23
Note_On_68_Vel_0
Time_Shift_4
Note_On_68_Vel_44
Time_Shift_311
Note_On_80_Vel_0
Time_Shift_9
Note_On_56_Vel_44
Time_Shift_1
Note_On_80_Vel_52
Time_Shift_8
Note_On_72_Vel_48
Time_Shift_81
Note_On_68_Vel_0
Time_Shift_8
Note_On_68_Vel_51
Time_Shift_200
Note_On_65_Vel_0
Time_Shift_7
Note_On_65_Vel_37
Time_Shift_5
Note_On_61_Vel_42
Time_Shift_19
Note_On_80_Vel_0
Time_Shift_9
Note_On_80_Vel_62
Time_Shift_17
Note_On_73_Vel_46
Time_Shift_66
Note_On_68_Vel_0
Time_Shift_4
Note_On_68_Vel_50
Time_Shift_218
Note_On_80_Vel_0
Time_Shift_7
Note_On_80_Vel_65
Time_Shift_4
Note_On_74_Vel_57
Time_Shift_18
Note_On_66_Vel_41
Time_Shift_13
Note_On_60_Vel_41
Time_Shift_24
Note_On_61_Vel_0
Note_On_72_Vel_0
Time_Shift_1
Note_On_65_Vel_0
Note_On_73_Vel_0
Time_Shift_3
Note_On_37_Vel_0
Note_On_68_Vel_0
Time_Shift_9
Note_On_68_Vel_50
Time_Shift_5
Sustain_Off
Time_Shift_32
Sustain_On
Time_Shift_207
Note_On_80_Vel_0
Time_Shift_4
Note_On_80_Vel_74
Time_Shift_19
Note_On_56_Vel_0
Time_Shift_6
Note_On_75_Vel_60
Time_Shift_1
Note_On_56_Vel_50
Time_Shift_54
Note_On_68_Vel_0
Time_Shift_5
Note_On_68_Vel_56
Time_Shift_226
Note_On_80_Vel_0
Time_Shift_5
Note_On_80_Vel_74
Time_Shift_12
Note_On_76_Vel_63
Time_Shift_90
Note_On_68_Vel_0
Time_Shift_5
Note_On_68_Vel_60
Time_Shift_200
Note_On_37_Vel_48
Time_Shift_41
Note_On_80_Vel_0
Time_Shift_5
Note_On_80_Vel_71
Time_Shift_2
Note_On_77_Vel_61
Time_Shift_4
Note_On_60_Vel_0
Note_On_66_Vel_0
Note_On_76_Vel_0
Time_Shift_1
Note_On_56_Vel_0
Note_On_74_Vel_0
Time_Shift_42
Note_On_75_Vel_0
Time_Shift_46
Note_On_68_Vel_0
Time_Shift_11
Note_On_68_Vel_54
Time_Shift_216
Note_On_82_Vel_68
Time_Shift_19
Note_On_77_Vel_0
Time_Shift_4
Note_On_77_Vel_54
Time_Shift_7
Note_On_56_Vel_48
Time_Shift_29
Note_On_65_Vel_24
Time_Shift_67
Note_On_68_Vel_0
Time_Shift_11
Note_On_68_Vel_45
Time_Shift_197
Note_On_77_Vel_0
Time_Shift_2
Note_On_79_Vel_61
Time_Shift_3
Note_On_77_Vel_47
Time_Shift_10
Note_On_65_Vel_0
Time_Shift_8
Note_On_65_Vel_34
Time_Shift_4
Note_On_61_Vel_37
Time_Shift_88
Note_On_68_Vel_0
Time_Shift_5
Note_On_68_Vel_36
Time_Shift_233
Note_On_80_Vel_0
Time_Shift_10
Note_On_80_Vel_48
Time_Shift_33
Note_On_66_Vel_36
Time_Shift_2
Note_On_78_Vel_47
Time_Shift_1
Note_On_37_Vel_0
Note_On_72_Vel_32
Time_Shift_3
Note_On_60_Vel_33
Time_Shift_6
Note_On_65_Vel_0
Time_Shift_1
Note_On_79_Vel_0
Note_On_82_Vel_0
Note_On_77_Vel_0
Time_Shift_1
Note_On_61_Vel_0
Note_On_68_Vel_0
Note_On_56_Vel_0
Time_Shift_8
Sustain_Off
Time_Shift_52
Note_On_68_Vel_44
Time_Shift_13
Sustain_On
Time_Shift_54
Note_On_80_Vel_0
Time_Shift_210
Note_On_82_Vel_52
Time_Shift_5
Note_On_78_Vel_0
Time_Shift_10
Note_On_78_Vel_45
Time_Shift_14
Note_On_56_Vel_38
Time_Shift_91
Note_On_68_Vel_0
Time_Shift_6
Note_On_68_Vel_41
Time_Shift_259
Note_On_79_Vel_54
Time_Shift_12
Note_On_78_Vel_0
Time_Shift_5
Note_On_78_Vel_40
Time_Shift_141
Note_On_68_Vel_0
Time_Shift_6
Note_On_68_Vel_35
Time_Shift_235
Note_On_37_Vel_38
Time_Shift_67
Note_On_80_Vel_52
Time_Shift_24
Sustain_Off
Time_Shift_4
Note_On_68_Vel_0
Time_Shift_2
Note_On_72_Vel_0
Note_On_79_Vel_0
Note_On_60_Vel_0
Time_Shift_1
Note_On_66_Vel_0
Note_On_56_Vel_0
Note_On_78_Vel_0
Time_Shift_2
Note_On_77_Vel_33
Time_Shift_1
Note_On_82_Vel_0
Time_Shift_65
Sustain_On
Time_Shift_85
Note_On_82_Vel_41
Time_Shift_99
Note_On_82_Vel_0
Time_Shift_10
Note_On_82_Vel_58
Time_Shift_105
Note_On_82_Vel_0
Time_Shift_4
Note_On_82_Vel_54
Time_Shift_27
Note_On_80_Vel_0
Time_Shift_5
Note_On_80_Vel_54
Time_Shift_32
Note_On_56_Vel_37
Time_Shift_40
Note_On_82_Vel_0
Time_Shift_5
Note_On_82_Vel_59
Time_Shift_49
Note_On_80_Vel_0
Time_Shift_5
Note_On_80_Vel_62
Time_Shift_41
Note_On_82_Vel_0
Time_Shift_10
Note_On_82_Vel_58
Time_Shift_51
Note_On_80_Vel_0
Time_Shift_4
Note_On_80_Vel_60
Time_Shift_35
Note_On_82_Vel_0
Time_Shift_4
Note_On_82_Vel_54
Time_Shift_57
Note_On_80_Vel_0
Time_Shift_5
Note_On_80_Vel_64
Time_Shift_57
Note_On_65_Vel_32
Time_Shift_2
Note_On_61_Vel_39
Time_Shift_41
Note_On_79_Vel_50
Time_Shift_64
Note_On_80_Vel_0
Time_Shift_8
Note_On_80_Vel_59
Time_Shift_74
Note_On_85_Vel_65
Time_Shift_72
Note_On_82_Vel_0
Time_Shift_10
Note_On_82_Vel_58
Time_Shift_74
Note_On_77_Vel_0
Time_Shift_4
Note_On_77_Vel_59
Time_Shift_40
Note_On_66_Vel_40
Time_Shift_7
Note_On_63_Vel_40
Time_Shift_31
Note_On_78_Vel_65
Time_Shift_6
Sustain_Off
Time_Shift_12
Sustain_On
Time_Shift_63
Note_On_84_Vel_62
Time_Shift_68
Note_On_80_Vel_0
Time_Shift_6
Note_On_80_Vel_58
Time_Shift_74
Note_On_76_Vel_63
Time_Shift_31
Note_On_44_Vel_44
Time_Shift_34
Note_On_77_Vel_0
Time_Shift_11
Note_On_77_Vel_64
Time_Shift_66
Note_On_82_Vel_0
Time_Shift_6
Note_On_82_Vel_70
Time_Shift_71
Note_On_78_Vel_0
Time_Shift_11
Note_On_78_Vel_66
Time_Shift_68
Note_On_74_Vel_72
Time_Shift_86
Note_On_75_Vel_71
Time_Shift_58
Note_On_80_Vel_0
Time_Shift_7
Note_On_80_Vel_70
Time_Shift_77
Note_On_77_Vel_0
Time_Shift_10
Note_On_77_Vel_63
Time_Shift_90
Note_On_37_Vel_0
Time_Shift_4
Note_On_72_Vel_69
Time_Shift_6
Note_On_37_Vel_45
Time_Shift_77
Note_On_73_Vel_57
Time_Shift_67
Note_On_78_Vel_0
Time_Shift_9
Note_On_78_Vel_62
Time_Shift_60
Note_On_75_Vel_0
Time_Shift_7
Note_On_75_Vel_62
Time_Shift_77
Note_On_56_Vel_0
Time_Shift_4
Note_On_71_Vel_66
Time_Shift_5
Note_On_56_Vel_51
Time_Shift_68
Note_On_72_Vel_0
Time_Shift_5
Note_On_72_Vel_50
Time_Shift_57
Note_On_77_Vel_0
Time_Shift_4
Note_On_77_Vel_67
Time_Shift_80
Note_On_73_Vel_0
Time_Shift_7
Note_On_73_Vel_61
Time_Shift_62
Note_On_61_Vel_0
Note_On_65_Vel_0
Time_Shift_5
Note_On_69_Vel_62
Time_Shift_3
Note_On_65_Vel_42
Time_Shift_1
Note_On_61_Vel_48
Time_Shift_77
Note_On_70_Vel_64
Time_Shift_52
Note_On_75_Vel_0
Time_Shift_5
Note_On_75_Vel_71
Time_Shift_80
Note_On_72_Vel_0
Time_Shift_7
Note_On_72_Vel_69
Time_Shift_83
Note_On_44_Vel_0
Note_On_56_Vel_0
Note_On_37_Vel_0
Note_On_80_Vel_0
Note_On_71_Vel_0
Time_Shift_1
Note_On_74_Vel_0
Note_On_82_Vel_0
Note_On_75_Vel_0
Note_On_65_Vel_0
Note_On_73_Vel_0
Note_On_69_Vel_0
Note_On_72_Vel_0
Time_Shift_1
Note_On_70_Vel_0
Note_On_78_Vel_0
Note_On_85_Vel_0
Note_On_66_Vel_0
Time_Shift_1
Note_On_77_Vel_0
Note_On_84_Vel_0
Note_On_61_Vel_0
Time_Shift_4
Sustain_Off
Note_On_67_Vel_60
Time_Shift_3
Note_On_63_Vel_0
Time_Shift_6
Note_On_63_Vel_53
Time_Shift_1
Note_On_76_Vel_0
Note_On_79_Vel_0
Time_Shift_8
Sustain_On
Time_Shift_60
Note_On_68_Vel_66
Time_Shift_73
Note_On_72_Vel_72
Time_Shift_76
Note_On_70_Vel_63
Time_Shift_68
Note_On_67_Vel_0
Time_Shift_11
Note_On_67_Vel_58
Time_Shift_10
Note_On_56_Vel_55
Time_Shift_55
Note_On_68_Vel_0
Time_Shift_11
Note_On_68_Vel_69
Time_Shift_89
Note_On_70_Vel_0
Time_Shift_4
Note_On_70_Vel_55
Time_Shift_65
Note_On_72_Vel_0
Time_Shift_6
Note_On_72_Vel_73
Time_Shift_78
Note_On_73_Vel_68
Time_Shift_73
Note_On_75_Vel_70
Time_Shift_83
Note_On_77_Vel_62
Time_Shift_70
Note_On_78_Vel_74
Time_Shift_84
Note_On_37_Vel_47
Time_Shift_8
Note_On_79_Vel_72
Time_Shift_68
Note_On_80_Vel_74
Time_Shift_84
Note_On_81_Vel_75
Time_Shift_73
Note_On_83_Vel_73
Time_Shift_72
Note_On_56_Vel_0
Time_Shift_2
Note_On_82_Vel_78
Time_Shift_4
Note_On_56_Vel_57
Time_Shift_74
Note_On_84_Vel_73
Time_Shift_58
Note_On_83_Vel_0
Time_Shift_12
Note_On_83_Vel_82
Time_Shift_75
Note_On_85_Vel_82
Time_Shift_75
Note_On_84_Vel_0
Time_Shift_9
Note_On_84_Vel_74
Time_Shift_1
Note_On_61_Vel_57
Time_Shift_2
Note_On_65_Vel_52
Time_Shift_65
Note_On_86_Vel_74
Time_Shift_61
Note_On_85_Vel_0
Time_Shift_7
Note_On_85_Vel_84
Time_Shift_80
Note_On_87_Vel_73
Time_Shift_67
Note_On_86_Vel_0
Time_Shift_10
Note_On_86_Vel_85
Time_Shift_5
Note_On_66_Vel_53
Time_Shift_23
Note_On_61_Vel_0
Time_Shift_5
Note_On_61_Vel_39
Time_Shift_36
Note_On_88_Vel_69
Time_Shift_66
Note_On_87_Vel_0
Time_Shift_7
Note_On_87_Vel_76
Time_Shift_78
Note_On_89_Vel_69
Time_Shift_54
Note_On_88_Vel_0
Time_Shift_10
Note_On_88_Vel_71
Time_Shift_13
Note_On_56_Vel_0
Time_Shift_11
Note_On_56_Vel_63
Time_Shift_56
Note_On_90_Vel_76
Time_Shift_71
Note_On_89_Vel_0
Time_Shift_9
Note_On_89_Vel_70
Time_Shift_68
Note_On_91_Vel_65
Time_Shift_69
Note_On_90_Vel_0
Time_Shift_6
Note_On_90_Vel_71
Time_Shift_70
Note_On_92_Vel_79
Time_Shift_85
Note_On_91_Vel_0
Time_Shift_6
Note_On_91_Vel_64
Time_Shift_75
Note_On_94_Vel_68
Time_Shift_88
Note_On_92_Vel_0
Time_Shift_5
Note_On_56_Vel_0
Note_On_86_Vel_0
Note_On_87_Vel_0
Time_Shift_1
Note_On_81_Vel_0
Note_On_68_Vel_0
Note_On_75_Vel_0
Note_On_90_Vel_0
Time_Shift_1
Note_On_85_Vel_0
Note_On_82_Vel_0
Note_On_89_Vel_0
Sustain_Off
Note_On_78_Vel_0
Note_On_77_Vel_0
Note_On_61_Vel_0
Note_On_92_Vel_64
Note_On_80_Vel_0
Note_On_66_Vel_0
Time_Shift_1
Note_On_73_Vel_0
Note_On_37_Vel_0
Time_Shift_1
Note_On_67_Vel_0
Note_On_88_Vel_0
Note_On_72_Vel_0
Time_Shift_1
Note_On_94_Vel_0
Note_On_63_Vel_0
Note_On_91_Vel_0
Note_On_79_Vel_0
Note_On_70_Vel_0
Time_Shift_3
Note_On_37_Vel_50
Time_Shift_2
Note_On_84_Vel_0
Time_Shift_8
Note_On_83_Vel_0
Time_Shift_8
Note_On_65_Vel_0
Time_Shift_8
Note_On_92_Vel_0
Time_Shift_7
Sustain_On
Time_Shift_74
Note_On_101_Vel_70
Time_Shift_93
Note_On_99_Vel_70
Time_Shift_90
Note_On_97_Vel_70
Time_Shift_65
Note_On_56_Vel_57
Time_Shift_6
Note_On_89_Vel_63
Time_Shift_72
Note_On_97_Vel_0
Time_Shift_3
Note_On_97_Vel_81
Time_Shift_76
Note_On_96_Vel_82
Time_Shift_71
Note_On_94_Vel_84
Time_Shift_65
Note_On_65_Vel_56
Time_Shift_12
Note_On_85_Vel_71
Note_On_61_Vel_53
Time_Shift_64
Note_On_94_Vel_0
Time_Shift_10
Note_On_94_Vel_77
Time_Shift_79
Note_On_92_Vel_74
Time_Shift_84
Note_On_90_Vel_60
Time_Shift_60
Note_On_82_Vel_66
Time_Shift_27
Note_On_63_Vel_48
Time_Shift_2
Note_On_56_Vel_0
Note_On_61_Vel_0
Time_Shift_3
Note_On_66_Vel_39
Time_Shift_3
Note_On_61_Vel_33
Time_Shift_1
Note_On_56_Vel_36
Time_Shift_46
Note_On_90_Vel_0
Time_Shift_10
Note_On_90_Vel_57
Time_Shift_67
Note_On_89_Vel_0
Time_Shift_9
Note_On_89_Vel_63
Time_Shift_95
Note_On_87_Vel_54
Time_Shift_50
Note_On_56_Vel_0
Time_Shift_10
Note_On_56_Vel_43
Time_Shift_21
Note_On_78_Vel_61
Time_Shift_76
Note_On_87_Vel_0
Time_Shift_10
Note_On_87_Vel_58
Time_Shift_75
Note_On_85_Vel_0
Time_Shift_11
Note_On_85_Vel_66
Time_Shift_93
Note_On_84_Vel_53
Time_Shift_100
Note_On_75_Vel_53
Time_Shift_95
Note_On_84_Vel_0
Time_Shift_11
Note_On_84_Vel_57
Time_Shift_81
Note_On_82_Vel_0
Time_Shift_5
Note_On_82_Vel_62
Time_Shift_98
Note_On_80_Vel_65
Time_Shift_128
Note_On_37_Vel_0
Time_Shift_7
Note_On_80_Vel_0
Time_Shift_4
Note_On_37_Vel_44
Sustain_Off
Time_Shift_1
Note_On_80_Vel_62
Time_Shift_6
Note_On_77_Vel_58
Time_Shift_17
Note_On_97_Vel_0
Note_On_85_Vel_0
Note_On_99_Vel_0
Note_On_84_Vel_0
Note_On_96_Vel_0
Time_Shift_1
Note_On_90_Vel_0
Note_On_56_Vel_0
Note_On_87_Vel_0
Note_On_61_Vel_0
Note_On_78_Vel_0
Time_Shift_1
Note_On_89_Vel_0
Note_On_63_Vel_0
Time_Shift_1
Note_On_75_Vel_0
Note_On_101_Vel_0
Note_On_92_Vel_0
Time_Shift_1
Note_On_82_Vel_0
Time_Shift_2
Note_On_65_Vel_0
Time_Shift_20
Note_On_94_Vel_0
Time_Shift_8
Note_On_66_Vel_0
Time_Shift_77
Sustain_On
Time_Shift_341
Note_On_85_Vel_57
Time_Shift_1
Note_On_89_Vel_59
Time_Shift_14
Note_On_56_Vel_45
Time_Shift_291
Note_On_65_Vel_44
Time_Shift_18
Note_On_61_Vel_44
Time_Shift_120
Note_On_82_Vel_62
Time_Shift_1
Note_On_78_Vel_55
Time_Shift_174
Note_On_84_Vel_55
Time_Shift_1
Note_On_87_Vel_65
Time_Shift_35
Note_On_66_Vel_38
Time_Shift_6
Note_On_63_Vel_40
Time_Shift_65
Note_On_77_Vel_0
Note_On_80_Vel_0
Time_Shift_11
Note_On_80_Vel_60
Time_Shift_1
Note_On_77_Vel_54
Time_Shift_96
Note_On_82_Vel_0
Time_Shift_5
Note_On_82_Vel_63
Time_Shift_2
Note_On_85_Vel_0
Time_Shift_5
Note_On_85_Vel_60
Time_Shift_88
Note_On_78_Vel_0
Time_Shift_7
Note_On_78_Vel_60
Time_Shift_3
Note_On_75_Vel_61
Time_Shift_20
Note_On_56_Vel_0
Time_Shift_4
Note_On_56_Vel_51
Time_Shift_65
Note_On_80_Vel_0
Time_Shift_8
Note_On_84_Vel_0
Time_Shift_4
Note_On_80_Vel_63
Time_Shift_2
Note_On_84_Vel_61
Time_Shift_79
Note_On_77_Vel_0
Time_Shift_10
Note_On_77_Vel_62
Time_Shift_14
Note_On_73_Vel_52
Time_Shift_75
Note_On_78_Vel_0
Time_Shift_7
Note_On_78_Vel_62
Time_Shift_1
Note_On_82_Vel_0
Time_Shift_4
Note_On_82_Vel_51
Time_Shift_72
Note_On_72_Vel_72
Time_Shift_1
Note_On_75_Vel_0
Time_Shift_4
Note_On_75_Vel_59
Time_Shift_88
Note_On_77_Vel_0
Time_Shift_4
Note_On_77_Vel_64
Time_Shift_4
Note_On_80_Vel_0
Time_Shift_5
Note_On_80_Vel_54
Time_Shift_56
Note_On_73_Vel_0
Time_Shift_12
Note_On_73_Vel_69
Time_Shift_21
Note_On_70_Vel_60
Time_Shift_90
Note_On_75_Vel_0
Time_Shift_7
Note_On_75_Vel_57
Time_Shift_1
Note_On_78_Vel_0
Time_Shift_5
Note_On_78_Vel_54
Time_Shift_79
Note_On_72_Vel_0
Note_On_73_Vel_0
Time_Shift_5
Note_On_72_Vel_66
Note_On_73_Vel_62
Time_Shift_7
Note_On_68_Vel_53
Time_Shift_119
Note_On_37_Vel_0
Time_Shift_4
Note_On_37_Vel_43
Time_Shift_46
Note_On_65_Vel_0
Sustain_Off
Time_Shift_2
Note_On_61_Vel_0
Note_On_56_Vel_0
Note_On_84_Vel_0
Time_Shift_1
Note_On_66_Vel_0
Note_On_85_Vel_0
Note_On_72_Vel_0
Note_On_80_Vel_0
Time_Shift_1
Note_On_73_Vel_0
Note_On_77_Vel_0
Note_On_75_Vel_0
Note_On_63_Vel_0
Time_Shift_1
Note_On_70_Vel_0
Note_On_87_Vel_0
Time_Shift_1
Note_On_78_Vel_0
Note_On_82_Vel_0
Time_Shift_7
Note_On_77_Vel_67
Time_Shift_1
Note_On_73_Vel_59
Time_Shift_5
Note_On_68_Vel_0
Time_Shift_8
Note_On_89_Vel_0
Time_Shift_92
Sustain_On
Time_Shift_241
Note_On_56_Vel_53
Time_Shift_113
Note_On_72_Vel_66
Time_Shift_3
Note_On_68_Vel_51
Time_Shift_165
Note_On_77_Vel_0
Time_Shift_4
Note_On_65_Vel_45
Time_Shift_5
Note_On_77_Vel_67
Time_Shift_1
Note_On_61_Vel_43
Time_Shift_13
Note_On_73_Vel_0
Time_Shift_6
Note_On_73_Vel_56
Time_Shift_135
Note_On_70_Vel_56
Time_Shift_7
Note_On_66_Vel_56
Time_Shift_121
Note_On_61_Vel_0
Time_Shift_9
Note_On_61_Vel_48
Time_Shift_6
Note_On_77_Vel_0
Time_Shift_8
Note_On_70_Vel_0
Note_On_73_Vel_0
Time_Shift_4
Note_On_77_Vel_67
Time_Shift_2
Note_On_70_Vel_39
Time_Shift_3
Note_On_73_Vel_51
Time_Shift_3
Note_On_63_Vel_47
Time_Shift_54
Sustain_Off
Time_Shift_41
Sustain_On
Time_Shift_54
Note_On_70_Vel_0
Time_Shift_8
Note_On_66_Vel_0
Note_On_73_Vel_0
Time_Shift_3
Note_On_70_Vel_50
Time_Shift_1
Note_On_73_Vel_43
Time_Shift_2
Note_On_66_Vel_55
Time_Shift_132
Note_On_73_Vel_0
Note_On_77_Vel_0
Time_Shift_6
Note_On_77_Vel_59
Time_Shift_5
Note_On_73_Vel_56
Time_Shift_27
Note_On_56_Vel_0
Time_Shift_5
Note_On_56_Vel_40
Time_Shift_72
Note_On_66_Vel_0
Note_On_70_Vel_0
Time_Shift_7
Note_On_70_Vel_50
Time_Shift_5
Note_On_66_Vel_44
Time_Shift_111
Note_On_77_Vel_0
Time_Shift_8
Note_On_73_Vel_0
Time_Shift_2
Note_On_77_Vel_62
Time_Shift_9
Note_On_73_Vel_55
Time_Shift_127
Note_On_66_Vel_0
Note_On_70_Vel_0
Time_Shift_5
Note_On_70_Vel_45
Time_Shift_5
Note_On_66_Vel_45
Time_Shift_82
Note_On_72_Vel_0
Time_Shift_11
Note_On_72_Vel_62
Time_Shift_2
Note_On_75_Vel_55
Time_Shift_10
Note_On_68_Vel_0
Time_Shift_5
Note_On_68_Vel_29
Time_Shift_87
Note_On_66_Vel_0
Time_Shift_5
Note_On_66_Vel_43
Time_Shift_18
Note_On_72_Vel_0
Time_Shift_7
Note_On_72_Vel_43
Time_Shift_1
Note_On_68_Vel_0
Time_Shift_11
Note_On_68_Vel_43
Time_Shift_97
Note_On_37_Vel_0
Time_Shift_10
Note_On_37_Vel_39
Time_Shift_36
Note_On_68_Vel_0
Time_Shift_11
Note_On_68_Vel_53
Time_Shift_27
Note_On_65_Vel_0
Time_Shift_4
Note_On_65_Vel_41
Time_Shift_104
Note_On_66_Vel_0
Time_Shift_6
Note_On_69_Vel_53
Time_Shift_2
Note_On_66_Vel_48
Time_Shift_99
Note_On_70_Vel_0
Time_Shift_9
Note_On_70_Vel_54
Time_Shift_2
Note_On_67_Vel_49
Time_Shift_97
Note_On_56_Vel_0
Note_On_68_Vel_0
Note_On_73_Vel_0
Time_Shift_5
Note_On_71_Vel_62
Time_Shift_3
Note_On_68_Vel_57
Time_Shift_1
Note_On_73_Vel_52
Time_Shift_2
Note_On_56_Vel_53
Time_Shift_89
Note_On_69_Vel_0
Note_On_72_Vel_0
Time_Shift_10
Note_On_72_Vel_63
Time_Shift_1
Note_On_69_Vel_59
Time_Shift_73
Note_On_73_Vel_0
Time_Shift_10
Note_On_73_Vel_68
Time_Shift_90
Note_On_71_Vel_0
Time_Shift_4
Note_On_71_Vel_68
Time_Shift_4
Note_On_65_Vel_0
Time_Shift_3
Note_On_74_Vel_66
Time_Shift_4
Note_On_61_Vel_0
Note_On_65_Vel_51
Time_Shift_7
Note_On_61_Vel_50
Time_Shift_93
Note_On_72_Vel_0
Note_On_75_Vel_0
Time_Shift_8
Note_On_72_Vel_71
Time_Shift_4
Note_On_75_Vel_70
Time_Shift_88
Note_On_73_Vel_0
Time_Shift_7
Note_On_76_Vel_61
Time_Shift_3
Note_On_73_Vel_70
Time_Shift_90
Note_On_74_Vel_0
Note_On_77_Vel_0
Time_Shift_1
Note_On_60_Vel_53
Time_Shift_6
Note_On_77_Vel_65
Time_Shift_2
Note_On_74_Vel_59
Time_Shift_91
Note_On_75_Vel_0
Time_Shift_5
Note_On_78_Vel_71
Time_Shift_4
Note_On_75_Vel_63
Time_Shift_83
Note_On_76_Vel_0
Time_Shift_10
Note_On_79_Vel_73
Note_On_76_Vel_66
Time_Shift_59
Note_On_56_Vel_0
Time_Shift_11
Note_On_56_Vel_60
Time_Shift_27
Note_On_77_Vel_0
Time_Shift_5
Note_On_80_Vel_75
Time_Shift_6
Note_On_77_Vel_64
Time_Shift_88
Note_On_81_Vel_77
Time_Shift_1
Note_On_78_Vel_0
Time_Shift_7
Note_On_78_Vel_69
Time_Shift_85
Note_On_79_Vel_0
Time_Shift_7
Note_On_79_Vel_72
Time_Shift_3
Note_On_82_Vel_73
Time_Shift_75
Note_On_80_Vel_0
Time_Shift_9
Note_On_83_Vel_81
Time_Shift_1
Note_On_80_Vel_66
Time_Shift_90
Note_On_81_Vel_0
Time_Shift_5
Note_On_84_Vel_76
Time_Shift_5
Note_On_81_Vel_73
Time_Shift_89
Note_On_82_Vel_0
Time_Shift_7
Note_On_85_Vel_81
Time_Shift_2
Note_On_82_Vel_70
Time_Shift_68
Note_On_37_Vel_0
Time_Shift_6
Note_On_37_Vel_48
Time_Shift_17
Note_On_83_Vel_0
Time_Shift_5
Note_On_86_Vel_85
Time_Shift_6
Note_On_83_Vel_75
Time_Shift_97
Note_On_84_Vel_0
Time_Shift_6
Note_On_84_Vel_72
Time_Shift_1
Note_On_87_Vel_78
Time_Shift_47
Note_On_63_Vel_0
Time_Shift_44
Note_On_88_Vel_77
Time_Shift_2
Note_On_85_Vel_0
Time_Shift_11
Note_On_85_Vel_75
Time_Shift_81
Note_On_56_Vel_0
Time_Shift_5
Note_On_56_Vel_51
Time_Shift_2
Note_On_86_Vel_0
Time_Shift_6
Note_On_89_Vel_75
Time_Shift_4
Note_On_86_Vel_77
Time_Shift_37
Note_On_84_Vel_0
Time_Shift_4
Note_On_84_Vel_49
Time_Shift_49
Note_On_87_Vel_0
Time_Shift_4
Note_On_90_Vel_78
Time_Shift_4
Note_On_87_Vel_74
Time_Shift_91
Note_On_91_Vel_80
Time_Shift_1
Note_On_88_Vel_0
Time_Shift_5
Note_On_88_Vel_63
Time_Shift_103
Note_On_65_Vel_0
Time_Shift_1
Note_On_92_Vel_89
Time_Shift_6
Note_On_61_Vel_0
Time_Shift_2
Note_On_65_Vel_58
Time_Shift_7
Note_On_61_Vel_57
Time_Shift_90
Note_On_94_Vel_91
Time_Shift_101
Note_On_89_Vel_0
Note_On_92_Vel_0
Time_Shift_7
Note_On_92_Vel_82
Time_Shift_3
Note_On_89_Vel_66
Time_Shift_105
Note_On_66_Vel_0
Note_On_90_Vel_0
Note_On_94_Vel_0
Time_Shift_4
Note_On_94_Vel_81
Time_Shift_2
Note_On_90_Vel_74
Time_Shift_4
Note_On_66_Vel_50
Time_Shift_98
Note_On_92_Vel_0
Time_Shift_5
Note_On_92_Vel_78
Time_Shift_10
Note_On_87_Vel_0
Time_Shift_9
Note_On_87_Vel_65
Time_Shift_91
Note_On_90_Vel_0
Note_On_94_Vel_0
Time_Shift_5
Note_On_94_Vel_76
Time_Shift_4
Note_On_90_Vel_67
Time_Shift_106
Note_On_56_Vel_0
Time_Shift_6
Note_On_56_Vel_49
Time_Shift_2
Note_On_85_Vel_0
Note_On_92_Vel_0
Time_Shift_4
Note_On_92_Vel_67
Time_Shift_5
Note_On_85_Vel_62
Time_Shift_106
Note_On_94_Vel_0
Time_Shift_5
Note_On_94_Vel_74
Time_Shift_110
Note_On_84_Vel_0
Note_On_92_Vel_0
Time_Shift_11
Note_On_92_Vel_69
Time_Shift_1
Note_On_84_Vel_55
Time_Shift_119
Note_On_94_Vel_0
Time_Shift_9
Note_On_94_Vel_68
Time_Shift_137
Note_On_82_Vel_0
Time_Shift_10
Note_On_82_Vel_49
Time_Shift_120
Note_On_94_Vel_0
Time_Shift_5
Note_On_94_Vel_65
Time_Shift_11
Note_On_82_Vel_0
Time_Shift_5
Note_On_82_Vel_35
Time_Shift_133
Note_On_60_Vel_0
Time_Shift_23
Note_On_37_Vel_0
Time_Shift_10
Note_On_37_Vel_35
Time_Shift_33
Sustain_Off
Time_Shift_7
Note_On_83_Vel_0
Note_On_91_Vel_0
Note_On_88_Vel_0
Note_On_87_Vel_0
Note_On_71_Vel_0
Note_On_67_Vel_0
Note_On_76_Vel_0
Note_On_85_Vel_0
Note_On_73_Vel_0
Time_Shift_1
Note_On_72_Vel_0
Note_On_80_Vel_0
Note_On_75_Vel_0
Note_On_84_Vel_0
Note_On_79_Vel_0
Note_On_94_Vel_0
Note_On_81_Vel_0
Note_On_56_Vel_0
Note_On_82_Vel_0
Note_On_78_Vel_0
Note_On_65_Vel_0
Time_Shift_1
Note_On_77_Vel_0
Note_On_66_Vel_0
Note_On_61_Vel_0
Note_On_74_Vel_0
Time_Shift_1
Note_On_70_Vel_0
Time_Shift_8
Note_On_68_Vel_0
Note_On_69_Vel_0
Note_On_86_Vel_0
Time_Shift_8
Note_On_90_Vel_0
Time_Shift_15
Note_On_89_Vel_0
Note_On_92_Vel_0
Time_Shift_10
Note_On_92_Vel_62
Time_Shift_1
Note_On_89_Vel_49
Time_Shift_66
Sustain_On
Time_Shift_258
Note_On_97_Vel_61
Time_Shift_3
Note_On_89_Vel_0
Time_Shift_9
Note_On_89_Vel_37
Time_Shift_147
Note_On_56_Vel_45
Time_Shift_282
Note_On_97_Vel_0
Time_Shift_10
Note_On_65_Vel_37
Time_Shift_1
Note_On_97_Vel_58
Time_Shift_10
Note_On_61_Vel_38
Time_Shift_111
Note_On_80_Vel_52
Time_Shift_218
Note_On_90_Vel_57
Time_Shift_3
Note_On_61_Vel_0
Time_Shift_5
Note_On_66_Vel_39
Time_Shift_7
Note_On_61_Vel_27
Time_Shift_8
Note_On_63_Vel_38
Time_Shift_105
Note_On_96_Vel_55
Time_Shift_229
Note_On_56_Vel_0
Time_Shift_11
Note_On_56_Vel_45
Time_Shift_4
Note_On_90_Vel_0
Time_Shift_6
Note_On_90_Vel_62
Time_Shift_20
Note_On_84_Vel_46
Time_Shift_100
Note_On_75_Vel_61
Time_Shift_190
Note_On_87_Vel_71
Time_Shift_119
Note_On_94_Vel_66
Time_Shift_172
Note_On_37_Vel_0
Time_Shift_4
Note_On_37_Vel_39
Time_Shift_49
Note_On_94_Vel_0
Time_Shift_5
Note_On_94_Vel_67
Time_Shift_10
Note_On_85_Vel_67
Time_Shift_120
Note_On_76_Vel_61
Time_Shift_157
Note_On_56_Vel_0
Time_Shift_11
Note_On_56_Vel_55
Time_Shift_12
Note_On_85_Vel_0
Time_Shift_10
Note_On_85_Vel_72
Time_Shift_2
Note_On_77_Vel_52
Time_Shift_88
Note_On_92_Vel_0
Time_Shift_11
Note_On_92_Vel_66
Time_Shift_189
Note_On_89_Vel_0
Time_Shift_5
Note_On_89_Vel_69
Time_Shift_3
Note_On_80_Vel_0
Time_Shift_5
Note_On_80_Vel_57
Time_Shift_10
Note_On_65_Vel_0
Time_Shift_5
Note_On_65_Vel_37
Time_Shift_18
Note_On_61_Vel_0
Time_Shift_4
Note_On_61_Vel_42
Time_Shift_79
Note_On_73_Vel_62
Time_Shift_170
Note_On_73_Vel_0
Time_Shift_8
Note_On_80_Vel_0
Time_Shift_4
Note_On_73_Vel_46
Time_Shift_1
Note_On_80_Vel_60
Time_Shift_3
Note_On_66_Vel_0
Time_Shift_7
Note_On_63_Vel_0
Time_Shift_2
Note_On_66_Vel_43
Time_Shift_4
Note_On_63_Vel_41
Time_Shift_2
Note_On_61_Vel_0
Time_Shift_5
Note_On_61_Vel_37
Time_Shift_72
Note_On_89_Vel_0
Time_Shift_10
Note_On_89_Vel_61
Time_Shift_197
Note_On_80_Vel_0
Time_Shift_8
Note_On_87_Vel_0
Time_Shift_4
Note_On_80_Vel_64
Note_On_87_Vel_63
Time_Shift_4
Note_On_56_Vel_0
Note_On_65_Vel_0
Time_Shift_6
Note_On_56_Vel_51
Time_Shift_3
Note_On_65_Vel_27
Time_Shift_91
Note_On_72_Vel_63
Time_Shift_199
Note_On_66_Vel_0
Note_On_72_Vel_0
Time_Shift_5
Note_On_66_Vel_47
Time_Shift_2
Note_On_78_Vel_69
Time_Shift_3
Note_On_68_Vel_59
Note_On_72_Vel_47
Time_Shift_113
Note_On_84_Vel_0
Time_Shift_11
Note_On_84_Vel_51
Time_Shift_158
Note_On_37_Vel_0
Time_Shift_6
Note_On_37_Vel_47
Time_Shift_55
Note_On_75_Vel_0
Time_Shift_8
Note_On_80_Vel_0
Time_Shift_2
Note_On_75_Vel_67
Time_Shift_8
Note_On_80_Vel_49
Time_Shift_22
Sustain_Off
Time_Shift_7
Note_On_72_Vel_0
Time_Shift_1
Note_On_73_Vel_0
Note_On_97_Vel_0
Time_Shift_1
Note_On_68_Vel_0
Note_On_63_Vel_0
Note_On_61_Vel_0
Note_On_66_Vel_0
Note_On_65_Vel_0
Note_On_84_Vel_0
Time_Shift_1
Note_On_92_Vel_0
Note_On_78_Vel_0
Note_On_89_Vel_0
Note_On_77_Vel_0
Time_Shift_12
Note_On_76_Vel_0
Time_Shift_8
Note_On_94_Vel_0
Time_Shift_38
Note_On_96_Vel_0
Time_Shift_15
Sustain_On
Time_Shift_10
Note_On_65_Vel_50
Time_Shift_190
Note_On_65_Vel_0
Note_On_73_Vel_69
Time_Shift_8
Note_On_56_Vel_0
Time_Shift_2
Note_On_65_Vel_48
Time_Shift_7
Note_On_56_Vel_52
Time_Shift_90
Note_On_80_Vel_0
Time_Shift_5
Note_On_80_Vel_61
Time_Shift_187
Note_On_65_Vel_0
Time_Shift_8
Note_On_85_Vel_0
Time_Shift_2
Note_On_65_Vel_50
Time_Shift_3
Note_On_77_Vel_63
Note_On_85_Vel_66
Time_Shift_10
Note_On_61_Vel_46
Time_Shift_8
Note_On_56_Vel_0
Time_Shift_9
Note_On_56_Vel_28
Time_Shift_95
Note_On_68_Vel_66
Time_Shift_165
Note_On_68_Vel_0
Time_Shift_9
Note_On_68_Vel_66
Time_Shift_24
Note_On_78_Vel_60
Time_Shift_4
Note_On_66_Vel_53
Time_Shift_5
Note_On_60_Vel_43
Time_Shift_127
Note_On_87_Vel_0
Time_Shift_5
Note_On_87_Vel_66
Time_Shift_3
Note_On_75_Vel_0
Time_Shift_184
Note_On_56_Vel_0
Note_On_90_Vel_0
Time_Shift_5
Note_On_90_Vel_71
Time_Shift_2
Note_On_56_Vel_58
Time_Shift_4
Note_On_84_Vel_60
Time_Shift_104
Note_On_77_Vel_0
Time_Shift_13
Note_On_75_Vel_60
Time_Shift_187
Note_On_78_Vel_0
Note_On_87_Vel_0
Time_Shift_6
Note_On_78_Vel_67
Time_Shift_5
Note_On_87_Vel_67
Time_Shift_133
Note_On_94_Vel_72
Time_Shift_132
Note_On_37_Vel_0
Time_Shift_6
Note_On_37_Vel_53
Time_Shift_56
Note_On_94_Vel_0
Time_Shift_9
Note_On_94_Vel_64
Time_Shift_6
Note_On_85_Vel_0
Time_Shift_8
Note_On_85_Vel_64
Time_Shift_120
Note_On_76_Vel_59
Time_Shift_164
Note_On_85_Vel_0
Time_Shift_5
Note_On_85_Vel_77
Time_Shift_3
Note_On_56_Vel_0
Time_Shift_4
Note_On_77_Vel_58
Note_On_56_Vel_57
Time_Shift_110
Note_On_92_Vel_65
Time_Shift_177
Note_On_65_Vel_0
Time_Shift_3
Note_On_97_Vel_88
Time_Shift_5
Note_On_92_Vel_0
Time_Shift_4
Note_On_65_Vel_51
Time_Shift_1
Note_On_92_Vel_62
Time_Shift_3
Note_On_61_Vel_0
Time_Shift_3
Note_On_89_Vel_67
Time_Shift_2
Note_On_61_Vel_53
Time_Shift_95
Note_On_80_Vel_0
Time_Shift_6
Note_On_80_Vel_71
Time_Shift_170
Note_On_90_Vel_0
Time_Shift_11
Note_On_90_Vel_75
Time_Shift_5
Note_On_60_Vel_0
Note_On_66_Vel_0
Time_Shift_9
Note_On_60_Vel_41
Time_Shift_1
Note_On_66_Vel_51
Time_Shift_111
Note_On_99_Vel_80
Time_Shift_191
Note_On_101_Vel_76
Time_Shift_18
Note_On_56_Vel_0
Time_Shift_9
Note_On_56_Vel_48
Time_Shift_121
Note_On_84_Vel_0
Time_Shift_5
Note_On_84_Vel_61
Time_Shift_187
Note_On_87_Vel_0
Time_Shift_12
Note_On_87_Vel_71
Time_Shift_4
Note_On_78_Vel_0
Time_Shift_5
Note_On_78_Vel_51
Time_Shift_167
Note_On_96_Vel_74
Time_Shift_189
Note_On_37_Vel_0
Time_Shift_10
Note_On_37_Vel_43
Time_Shift_82
Note_On_94_Vel_0
Time_Shift_4
Note_On_84_Vel_0
Note_On_99_Vel_0
Note_On_92_Vel_0
Note_On_90_Vel_0
Note_On_75_Vel_0
Note_On_89_Vel_0
Note_On_96_Vel_0
Note_On_66_Vel_0
Note_On_56_Vel_0
Note_On_65_Vel_0
Note_On_78_Vel_0
Time_Shift_1
Note_On_60_Vel_0
Sustain_Off
Note_On_97_Vel_0
Time_Shift_3
Note_On_68_Vel_0
Note_On_73_Vel_0
Note_On_85_Vel_0
Note_On_76_Vel_0
Time_Shift_6
Note_On_85_Vel_70
Time_Shift_9
Note_On_61_Vel_0
Note_On_80_Vel_0
Note_On_87_Vel_0
Note_On_101_Vel_0
Time_Shift_15
Note_On_77_Vel_0
Time_Shift_6
Note_On_77_Vel_49
Time_Shift_40
Sustain_On
Time_Shift_264
Note_On_97_Vel_66
Time_Shift_219
Note_On_56_Vel_53
Time_Shift_120
Note_On_93_Vel_54
Time_Shift_96
Note_On_77_Vel_0
Note_On_93_Vel_0
Time_Shift_11
Note_On_96_Vel_75
Time_Shift_1
Note_On_93_Vel_63
Time_Shift_116
Note_On_95_Vel_69
Time_Shift_5
Note_On_92_Vel_63
Time_Shift_1
Note_On_61_Vel_47
Time_Shift_1
Note_On_65_Vel_41
Time_Shift_95
Note_On_94_Vel_74
Time_Shift_2
Note_On_91_Vel_61
Time_Shift_91
Note_On_91_Vel_0
Time_Shift_6
Note_On_91_Vel_65
Time_Shift_2
Note_On_94_Vel_0
Time_Shift_5
Note_On_94_Vel_76
Time_Shift_102
Note_On_93_Vel_0
Time_Shift_8
Note_On_93_Vel_74
Time_Shift_3
Note_On_90_Vel_71
Time_Shift_14
Note_On_66_Vel_45
Time_Shift_2
Note_On_63_Vel_47
Time_Shift_81
Note_On_92_Vel_0
Time_Shift_6
Note_On_92_Vel_75
Note_On_89_Vel_62
Time_Shift_93
Note_On_89_Vel_0
Time_Shift_8
Note_On_92_Vel_0
Time_Shift_3
Note_On_89_Vel_71
Time_Shift_2
Note_On_92_Vel_74
Time_Shift_95
Note_On_91_Vel_0
Time_Shift_10
Note_On_91_Vel_68
Time_Shift_1
Note_On_88_Vel_61
Time_Shift_12
Note_On_63_Vel_0
Time_Shift_7
Note_On_63_Vel_27
Time_Shift_1
Note_On_56_Vel_0
Time_Shift_4
Note_On_56_Vel_47
Time_Shift_65
Note_On_90_Vel_0
Time_Shift_10
Note_On_90_Vel_63
Time_Shift_1
Note_On_87_Vel_63
Time_Shift_96
Note_On_87_Vel_0
Note_On_90_Vel_0
Time_Shift_6
Note_On_90_Vel_74
Time_Shift_5
Note_On_87_Vel_67
Time_Shift_89
Note_On_89_Vel_0
Time_Shift_6
Note_On_89_Vel_70
Time_Shift_6
Note_On_86_Vel_68
Time_Shift_88
Note_On_85_Vel_0
Note_On_88_Vel_0
Time_Shift_11
Note_On_88_Vel_70
Note_On_85_Vel_68
Time_Shift_89
Note_On_85_Vel_0
Note_On_88_Vel_0
Time_Shift_7
Note_On_85_Vel_76
Time_Shift_3
Note_On_88_Vel_63
Time_Shift_105
Note_On_37_Vel_0
Note_On_87_Vel_0
Time_Shift_3
Note_On_84_Vel_69
Time_Shift_6
Note_On_37_Vel_46
Time_Shift_2
Note_On_87_Vel_68
Time_Shift_89
Note_On_86_Vel_0
Time_Shift_10
Note_On_86_Vel_83
Time_Shift_1
Note_On_83_Vel_66
Time_Shift_96
Note_On_83_Vel_0
Note_On_86_Vel_0
Time_Shift_4
Note_On_83_Vel_66
Time_Shift_1
Note_On_86_Vel_73
Time_Shift_18
Note_On_84_Vel_0
Time_Shift_8
Note_On_84_Vel_46
Time_Shift_77
Note_On_85_Vel_0
Time_Shift_5
Note_On_82_Vel_74
Time_Shift_2
Note_On_85_Vel_77
Time_Shift_16
Note_On_56_Vel_0
Time_Shift_4
Note_On_56_Vel_59
Time_Shift_73
Note_On_84_Vel_0
Time_Shift_11
Note_On_84_Vel_71
Note_On_81_Vel_66
Time_Shift_89
Note_On_81_Vel_0
Note_On_84_Vel_0
Time_Shift_5
Note_On_81_Vel_80
Time_Shift_5
Note_On_84_Vel_73
Time_Shift_105
Note_On_83_Vel_0
Time_Shift_4
Note_On_80_Vel_76
Time_Shift_3
Note_On_61_Vel_0
Note_On_65_Vel_0
Time_Shift_3
Note_On_83_Vel_74
Time_Shift_3
Note_On_61_Vel_56
Time_Shift_5
Note_On_65_Vel_46
Time_Shift_82
Note_On_82_Vel_0
Time_Shift_6
Note_On_79_Vel_65
Time_Shift_3
Note_On_82_Vel_75
Time_Shift_90
Note_On_79_Vel_0
Note_On_82_Vel_0
Time_Shift_10
Note_On_79_Vel_75
Time_Shift_1
Note_On_82_Vel_76
Time_Shift_120
Note_On_81_Vel_0
Time_Shift_7
Note_On_81_Vel_68
Time_Shift_1
Note_On_63_Vel_0
Note_On_66_Vel_0
Time_Shift_2
Note_On_78_Vel_70
Time_Shift_2
Note_On_66_Vel_49
Time_Shift_3
Note_On_63_Vel_52
Time_Shift_85
Note_On_80_Vel_0
Time_Shift_11
Note_On_80_Vel_71
Time_Shift_4
Note_On_77_Vel_56
Time_Shift_108
Note_On_77_Vel_0
Note_On_80_Vel_0
Time_Shift_8
Note_On_80_Vel_69
Time_Shift_1
Note_On_77_Vel_69
Time_Shift_114
Note_On_79_Vel_0
Time_Shift_1
Note_On_76_Vel_62
Time_Shift_4
Note_On_79_Vel_60
Time_Shift_10
Note_On_56_Vel_0
Time_Shift_11
Note_On_56_Vel_44
Time_Shift_89
Note_On_78_Vel_0
Time_Shift_5
Note_On_78_Vel_66
Time_Shift_3
Note_On_75_Vel_56
Time_Shift_33
Sustain_Off
Time_Shift_5
Sustain_On
Time_Shift_61
Note_On_75_Vel_0
Note_On_78_Vel_0
Time_Shift_10
Note_On_78_Vel_71
Time_Shift_1
Note_On_75_Vel_59
Time_Shift_143
Note_On_77_Vel_0
Time_Shift_6
Note_On_77_Vel_61
Time_Shift_7
Note_On_73_Vel_58
Time_Shift_133
Note_On_75_Vel_0
Time_Shift_6
Note_On_75_Vel_70
Time_Shift_5
Note_On_71_Vel_53
Time_Shift_127
Note_On_76_Vel_0
Time_Shift_11
Note_On_76_Vel_63
Note_On_72_Vel_54
Time_Shift_158
Note_On_37_Vel_0
Time_Shift_5
Note_On_37_Vel_41
Time_Shift_35
Sustain_Off
Time_Shift_2
Note_On_95_Vel_0
Note_On_94_Vel_0
Note_On_93_Vel_0
Note_On_86_Vel_0
Note_On_56_Vel_0
Note_On_71_Vel_0
Note_On_65_Vel_0
Note_On_83_Vel_0
Time_Shift_1
Note_On_87_Vel_0
Note_On_90_Vel_0
Note_On_81_Vel_0
Note_On_82_Vel_0
Note_On_88_Vel_0
Note_On_89_Vel_0
Note_On_92_Vel_0
Note_On_80_Vel_0
Note_On_61_Vel_0
Note_On_75_Vel_0
Note_On_77_Vel_0
Note_On_66_Vel_0
Note_On_84_Vel_0
Note_On_78_Vel_0
Time_Shift_1
Note_On_91_Vel_0
Note_On_76_Vel_0
Note_On_79_Vel_0
Time_Shift_10
Note_On_63_Vel_0
Note_On_72_Vel_0
Note_On_96_Vel_0
Note_On_97_Vel_0
Time_Shift_4
Note_On_68_Vel_56
Time_Shift_4
Note_On_85_Vel_0
Time_Shift_61
Sustain_On
Time_Shift_87
Note_On_75_Vel_54
Note_On_78_Vel_59
Time_Shift_105
Note_On_73_Vel_0
Time_Shift_4
Note_On_77_Vel_55
Time_Shift_2
Note_On_73_Vel_55
Time_Shift_94
Note_On_68_Vel_0
Time_Shift_2
Note_On_56_Vel_57
Time_Shift_2
Note_On_68_Vel_67
Time_Shift_88
Note_On_73_Vel_0
Time_Shift_4
Note_On_73_Vel_59
Time_Shift_11
Note_On_77_Vel_0
Time_Shift_6
Note_On_77_Vel_62
Time_Shift_7
Sustain_Off
Time_Shift_26
Sustain_On
Time_Shift_46
Note_On_75_Vel_0
Time_Shift_5
Note_On_72_Vel_63
Note_On_75_Vel_64
Time_Shift_87
Note_On_68_Vel_0
Time_Shift_10
Note_On_68_Vel_75
Time_Shift_5
Note_On_61_Vel_56
Time_Shift_3
Note_On_65_Vel_50
Time_Shift_66
Note_On_72_Vel_0
Time_Shift_8
Note_On_75_Vel_0
Time_Shift_4
Note_On_72_Vel_62
Time_Shift_2
Note_On_75_Vel_70
Time_Shift_102
Note_On_77_Vel_0
Time_Shift_7
Note_On_73_Vel_0
Time_Shift_3
Note_On_77_Vel_59
Time_Shift_4
Note_On_73_Vel_65
Time_Shift_101
Note_On_68_Vel_0
Time_Shift_6
Note_On_68_Vel_72
Time_Shift_12
Note_On_60_Vel_42
Time_Shift_7
Note_On_66_Vel_49
Time_Shift_33
Note_On_61_Vel_0
Time_Shift_1
Note_On_56_Vel_0
Note_On_75_Vel_0
Time_Shift_4
Note_On_72_Vel_0
Time_Shift_1
Note_On_77_Vel_0
Sustain_Off
Note_On_73_Vel_0
Time_Shift_5
Note_On_78_Vel_0
Time_Shift_8
Note_On_37_Vel_0
Note_On_65_Vel_0
Time_Shift_30
Sustain_On
Time_Shift_6
Note_On_77_Vel_66
Time_Shift_3
Note_On_73_Vel_49
Time_Shift_2
Note_On_80_Vel_62
Time_Shift_20
Note_On_68_Vel_0
Time_Shift_62
Note_On_60_Vel_0
Time_Shift_15
Note_On_78_Vel_73
Time_Shift_3
Note_On_75_Vel_61
Time_Shift_101
Note_On_68_Vel_70
Time_Shift_23
Note_On_56_Vel_54
Time_Shift_73
Note_On_75_Vel_0
Note_On_78_Vel_0
Time_Shift_6
Note_On_78_Vel_67
Note_On_75_Vel_62
Time_Shift_93
Note_On_77_Vel_0
Time_Shift_7
Note_On_77_Vel_66
Time_Shift_2
Note_On_74_Vel_63
Time_Shift_84
Note_On_68_Vel_0
Time_Shift_7
Note_On_74_Vel_0
Note_On_75_Vel_0
Note_On_78_Vel_0
Time_Shift_2
Note_On_68_Vel_66
Time_Shift_2
Note_On_74_Vel_48
Time_Shift_1
Note_On_78_Vel_55
Time_Shift_6
Note_On_75_Vel_51
Time_Shift_89
Note_On_74_Vel_0
Note_On_77_Vel_0
Time_Shift_6
Note_On_74_Vel_61
Time_Shift_1
Note_On_77_Vel_63
Time_Shift_85
Note_On_75_Vel_0
Note_On_78_Vel_0
Time_Shift_6
Note_On_75_Vel_74
Time_Shift_5
Note_On_78_Vel_73
Time_Shift_97
Note_On_68_Vel_0
Note_On_77_Vel_0
Time_Shift_6
Note_On_68_Vel_73
Time_Shift_4
Note_On_37_Vel_40
Note_On_77_Vel_56
Sustain_Off
Time_Shift_9
Note_On_75_Vel_0
Time_Shift_1
Note_On_56_Vel_0
Note_On_74_Vel_0
Time_Shift_1
Note_On_78_Vel_0
Time_Shift_2
Note_On_73_Vel_0
Time_Shift_7
Note_On_80_Vel_0
Time_Shift_24
Sustain_On
Time_Shift_30
Note_On_66_Vel_0
Time_Shift_25
Note_On_78_Vel_77
Time_Shift_2
Note_On_75_Vel_68
Time_Shift_107
Note_On_76_Vel_72
Time_Shift_1
Note_On_79_Vel_69
Time_Shift_88
Note_On_68_Vel_0
Time_Shift_8
Note_On_68_Vel_78
Time_Shift_4
Note_On_56_Vel_66
Time_Shift_72
Note_On_76_Vel_0
Time_Shift_11
Note_On_76_Vel_66
Time_Shift_20
Note_On_79_Vel_0
Time_Shift_5
Note_On_79_Vel_68
Time_Shift_87
Note_On_77_Vel_0
Time_Shift_11
Note_On_77_Vel_72
Note_On_80_Vel_81
Time_Shift_105
Note_On_68_Vel_0
Note_On_77_Vel_0
Time_Shift_4
Note_On_77_Vel_56
Time_Shift_1
Note_On_68_Vel_75
Time_Shift_3
Note_On_73_Vel_53
Time_Shift_17
Note_On_61_Vel_49
Time_Shift_1
Note_On_65_Vel_43
Time_Shift_81
Note_On_77_Vel_0
Note_On_80_Vel_0
Time_Shift_6
Note_On_80_Vel_74
Time_Shift_5
Note_On_77_Vel_66
Time_Shift_109
Note_On_81_Vel_70
Time_Shift_3
Note_On_78_Vel_0
Time_Shift_5
Note_On_78_Vel_70
Time_Shift_133
Note_On_68_Vel_0
Time_Shift_4
Note_On_68_Vel_64
Time_Shift_17
Note_On_60_Vel_39
Time_Shift_4
Note_On_66_Vel_44
Time_Shift_11
Sustain_Off
Time_Shift_3
Note_On_73_Vel_0
Note_On_79_Vel_0
Note_On_76_Vel_0
Time_Shift_1
Note_On_80_Vel_0
Time_Shift_1
Note_On_77_Vel_0
Note_On_78_Vel_0
Time_Shift_1
Note_On_61_Vel_0
Note_On_81_Vel_0
Time_Shift_4
Note_On_56_Vel_0
Note_On_75_Vel_0
Time_Shift_8
Note_On_37_Vel_0
Time_Shift_46
Note_On_65_Vel_0
Time_Shift_8
Sustain_On
Time_Shift_19
Note_On_78_Vel_66
Time_Shift_2
Note_On_81_Vel_58
Time_Shift_118
Note_On_80_Vel_60
Time_Shift_5
Note_On_77_Vel_55
Time_Shift_109
Note_On_68_Vel_0
Time_Shift_12
Note_On_68_Vel_56
Time_Shift_29
Note_On_56_Vel_43
Time_Shift_82
Note_On_80_Vel_0
Time_Shift_8
Note_On_77_Vel_0
Time_Shift_2
Note_On_80_Vel_58
Time_Shift_3
Note_On_77_Vel_44
Time_Shift_107
Note_On_79_Vel_50
Time_Shift_2
Note_On_76_Vel_48
Time_Shift_108
Note_On_68_Vel_0
Time_Shift_11
Note_On_68_Vel_47
Time_Shift_128
Note_On_76_Vel_0
Note_On_79_Vel_0
Time_Shift_5
Note_On_79_Vel_58
Time_Shift_6
Note_On_76_Vel_37
Time_Shift_112
Note_On_78_Vel_0
Time_Shift_7
Note_On_78_Vel_57
Time_Shift_1
Note_On_75_Vel_48
Time_Shift_166
Note_On_37_Vel_33
Time_Shift_21
Note_On_76_Vel_0
Note_On_68_Vel_0
Note_On_56_Vel_0
Time_Shift_1
Note_On_66_Vel_0
Note_On_79_Vel_0
Note_On_75_Vel_0
Note_On_80_Vel_0
Note_On_81_Vel_0
Note_On_78_Vel_0
Time_Shift_3
Note_On_60_Vel_0
Time_Shift_5
Sustain_Off
Time_Shift_18
Note_On_77_Vel_0
Time_Shift_7
Note_On_77_Vel_55
Time_Shift_5
Note_On_68_Vel_45
Time_Shift_6
Note_On_73_Vel_52
Time_Shift_13
Sustain_On
Time_Shift_200
Note_On_77_Vel_0
Time_Shift_7
Note_On_73_Vel_0
Time_Shift_2
Note_On_80_Vel_70
Time_Shift_2
Note_On_77_Vel_52
Time_Shift_2
Note_On_73_Vel_53
Time_Shift_186
Note_On_77_Vel_0
Note_On_80_Vel_0
Time_Shift_4
Note_On_85_Vel_71
Time_Shift_1
Note_On_80_Vel_53
Time_Shift_1
Note_On_77_Vel_52
Time_Shift_20
Note_On_56_Vel_50
Time_Shift_140
Note_On_87_Vel_74
Time_Shift_4
Note_On_78_Vel_62
Time_Shift_145
Note_On_80_Vel_0
Time_Shift_4
Note_On_89_Vel_75
Time_Shift_7
Note_On_80_Vel_60
Time_Shift_11
Note_On_61_Vel_48
Time_Shift_5
Note_On_65_Vel_37
Time_Shift_126
Note_On_90_Vel_77
Time_Shift_5
Note_On_82_Vel_58
Time_Shift_149
Note_On_80_Vel_0
Time_Shift_8
Note_On_89_Vel_0
Time_Shift_1
Note_On_80_Vel_61
Time_Shift_3
Note_On_75_Vel_48
Note_On_89_Vel_68
Time_Shift_6
Note_On_84_Vel_58
Time_Shift_2
Note_On_68_Vel_0
Note_On_37_Vel_0
Time_Shift_2
Note_On_78_Vel_0
Note_On_85_Vel_0
Note_On_90_Vel_0
Note_On_61_Vel_0
Note_On_56_Vel_0
Note_On_87_Vel_0
Note_On_63_Vel_47
Time_Shift_2
Note_On_82_Vel_0
Time_Shift_3
Sustain_Off
Time_Shift_1
Note_On_66_Vel_43
Time_Shift_11
Note_On_73_Vel_0
Time_Shift_7
Note_On_77_Vel_0
Time_Shift_16
Note_On_65_Vel_0
Time_Shift_38
Sustain_On
Time_Shift_85
Note_On_89_Vel_0
Time_Shift_3
Note_On_87_Vel_56
Time_Shift_2
Note_On_89_Vel_53
Time_Shift_10
Note_On_78_Vel_37
Time_Shift_123
Note_On_78_Vel_0
Note_On_84_Vel_0
Time_Shift_8
Note_On_75_Vel_0
Time_Shift_1
Note_On_78_Vel_57
Time_Shift_2
Note_On_84_Vel_63
Note_On_56_Vel_50
Time_Shift_2
Note_On_75_Vel_55
Time_Shift_2
Note_On_80_Vel_0
Time_Shift_151
Note_On_82_Vel_62
Time_Shift_8
Note_On_73_Vel_54
Time_Shift_149
Note_On_78_Vel_0
Time_Shift_4
Note_On_80_Vel_65
Note_On_78_Vel_59
Time_Shift_2
Note_On_72_Vel_60
Time_Shift_132
Note_On_82_Vel_0
Time_Shift_7
Note_On_73_Vel_0
Time_Shift_4
Note_On_82_Vel_71
Time_Shift_4
Note_On_78_Vel_0
Time_Shift_3
Note_On_73_Vel_62
Time_Shift_2
Note_On_78_Vel_48
Time_Shift_110
Note_On_78_Vel_0
Note_On_82_Vel_0
Time_Shift_5
Note_On_82_Vel_68
Time_Shift_3
Note_On_78_Vel_57
Time_Shift_8
Note_On_75_Vel_0
Time_Shift_11
Note_On_75_Vel_53
Time_Shift_92
Note_On_73_Vel_0
Time_Shift_1
Note_On_56_Vel_0
Sustain_Off
Time_Shift_1
Note_On_72_Vel_0
Time_Shift_1
Note_On_78_Vel_0
Time_Shift_1
Note_On_66_Vel_0
Note_On_75_Vel_0
Time_Shift_1
Note_On_82_Vel_0
Time_Shift_4
Note_On_75_Vel_76
Time_Shift_3
Note_On_63_Vel_0
Note_On_89_Vel_0
Time_Shift_8
Note_On_80_Vel_0
Time_Shift_6
Note_On_80_Vel_59
Time_Shift_2
Note_On_37_Vel_52
Time_Shift_7
Note_On_84_Vel_0
Time_Shift_15
Note_On_87_Vel_0
Time_Shift_16
Sustain_On
Time_Shift_92
Note_On_80_Vel_0
Time_Shift_2
Note_On_73_Vel_73
Time_Shift_2
Note_On_77_Vel_45
Note_On_80_Vel_66
Time_Shift_65
Note_On_75_Vel_0
Time_Shift_77
Note_On_77_Vel_0
Time_Shift_2
Note_On_85_Vel_76
Time_Shift_2
Note_On_77_Vel_61
Time_Shift_28
Note_On_56_Vel_51
Time_Shift_83
Note_On_85_Vel_0
Time_Shift_8
Note_On_77_Vel_0
Note_On_80_Vel_0
Time_Shift_3
Note_On_85_Vel_76
Time_Shift_1
Note_On_77_Vel_70
Time_Shift_3
Note_On_80_Vel_63
Time_Shift_131
Note_On_80_Vel_0
Note_On_85_Vel_0
Time_Shift_3
Note_On_90_Vel_79
Time_Shift_1
Note_On_80_Vel_60
Time_Shift_1
Note_On_85_Vel_76
Time_Shift_102
Note_On_80_Vel_0
Note_On_85_Vel_0
Time_Shift_10
Note_On_80_Vel_67
Note_On_85_Vel_75
Time_Shift_1
Note_On_61_Vel_60
Time_Shift_1
Note_On_89_Vel_73
Time_Shift_4
Note_On_37_Vel_0
Time_Shift_1
Note_On_65_Vel_50
Time_Shift_106
Note_On_85_Vel_0
Time_Shift_3
Note_On_92_Vel_89
Time_Shift_2
Note_On_85_Vel_69
Time_Shift_110
Note_On_85_Vel_0
Time_Shift_3
Note_On_97_Vel_89
Time_Shift_4
Note_On_85_Vel_67
Time_Shift_101
Note_On_97_Vel_0
Time_Shift_5
Note_On_97_Vel_89
Time_Shift_6
Note_On_87_Vel_69
Time_Shift_2
Note_On_75_Vel_61
Time_Shift_2
Note_On_87_Vel_0
Time_Shift_3
Note_On_66_Vel_50
Time_Shift_5
Note_On_75_Vel_0
Time_Shift_2
Note_On_63_Vel_55
Time_Shift_98
Note_On_90_Vel_0
Time_Shift_2
Note_On_96_Vel_85
Time_Shift_6
Note_On_90_Vel_66
Time_Shift_92
Note_On_85_Vel_0
Time_Shift_3
Note_On_94_Vel_94
Time_Shift_8
Note_On_85_Vel_77
Time_Shift_19
Note_On_77_Vel_0
Time_Shift_4
Note_On_77_Vel_30
Time_Shift_89
Note_On_56_Vel_0
Note_On_92_Vel_0
Time_Shift_5
Note_On_92_Vel_78
Time_Shift_5
Note_On_56_Vel_61
Time_Shift_119
Note_On_87_Vel_78
Time_Shift_5
Note_On_78_Vel_69
Time_Shift_7
Note_On_82_Vel_58
Time_Shift_97
Note_On_89_Vel_0
Time_Shift_7
Note_On_80_Vel_0
Time_Shift_2
Note_On_89_Vel_80
Time_Shift_2
Note_On_80_Vel_68
Time_Shift_127
Note_On_78_Vel_0
Time_Shift_6
Note_On_84_Vel_77
Time_Shift_3
Note_On_78_Vel_64
Time_Shift_2
Note_On_75_Vel_60
Time_Shift_104
Note_On_73_Vel_0
Note_On_82_Vel_0
Time_Shift_7
Note_On_82_Vel_74
Time_Shift_4
Note_On_73_Vel_65
Time_Shift_104
Note_On_80_Vel_0
Time_Shift_7
Note_On_80_Vel_74
Time_Shift_5
Note_On_72_Vel_69
Time_Shift_132
Note_On_37_Vel_48
Time_Shift_33
Note_On_84_Vel_0
Sustain_Off
Time_Shift_1
Note_On_72_Vel_0
Time_Shift_1
Note_On_80_Vel_0
Note_On_56_Vel_0
Time_Shift_2
Note_On_82_Vel_0
Time_Shift_1
Note_On_61_Vel_0
Note_On_75_Vel_0
Time_Shift_2
Note_On_89_Vel_0
Time_Shift_8
Note_On_90_Vel_0
Note_On_94_Vel_0
Note_On_97_Vel_0
Time_Shift_8
Note_On_63_Vel_0
Note_On_65_Vel_0
Note_On_77_Vel_0
Note_On_78_Vel_0
Note_On_92_Vel_0
Note_On_96_Vel_0
Time_Shift_7
Note_On_68_Vel_66
Time_Shift_1
Note_On_85_Vel_0
Note_On_87_Vel_0
Time_Shift_15
Note_On_66_Vel_0
Time_Shift_84
Sustain_On
Time_Shift_8
Note_On_68_Vel_0
Time_Shift_23
Note_On_80_Vel_66
Time_Shift_3
Note_On_77_Vel_45
Time_Shift_76
Note_On_72_Vel_62
Time_Shift_75
Note_On_70_Vel_70
Time_Shift_60
Note_On_56_Vel_59
Time_Shift_17
Note_On_70_Vel_0
Time_Shift_11
Note_On_70_Vel_66
Time_Shift_73
Note_On_80_Vel_0
Time_Shift_11
Note_On_80_Vel_65
Time_Shift_43
Note_On_73_Vel_0
Time_Shift_9
Note_On_73_Vel_74
Time_Shift_68
Note_On_72_Vel_0
Time_Shift_5
Note_On_72_Vel_74
Time_Shift_45
Note_On_65_Vel_49
Time_Shift_7
Note_On_61_Vel_60
Time_Shift_12
Note_On_72_Vel_0
Time_Shift_10
Note_On_72_Vel_78
Time_Shift_59
Note_On_80_Vel_0
Time_Shift_6
Note_On_80_Vel_86
Time_Shift_85
Note_On_75_Vel_81
Time_Shift_47
Note_On_73_Vel_0
Time_Shift_7
Note_On_73_Vel_74
Time_Shift_62
Note_On_70_Vel_0
Time_Shift_7
Note_On_70_Vel_78
Time_Shift_1
Note_On_72_Vel_0
Time_Shift_6
Note_On_72_Vel_58
Time_Shift_7
Note_On_66_Vel_44
Time_Shift_56
Note_On_80_Vel_0
Time_Shift_11
Note_On_80_Vel_79
Time_Shift_58
Note_On_73_Vel_0
Time_Shift_11
Note_On_73_Vel_81
Time_Shift_66
Note_On_72_Vel_0
Time_Shift_5
Note_On_72_Vel_78
Time_Shift_72
Note_On_72_Vel_0
Time_Shift_7
Note_On_56_Vel_0
Time_Shift_3
Note_On_72_Vel_89
Time_Shift_2
Note_On_56_Vel_65
Time_Shift_57
Note_On_80_Vel_0
Time_Shift_10
Note_On_80_Vel_80
Time_Shift_90
Note_On_75_Vel_0
Time_Shift_4
Note_On_75_Vel_79
Time_Shift_57
Note_On_73_Vel_0
Time_Shift_11
Note_On_73_Vel_75
Time_Shift_66
Note_On_73_Vel_0
Time_Shift_11
Note_On_73_Vel_84
Time_Shift_66
Note_On_80_Vel_0
Time_Shift_4
Note_On_80_Vel_80
Time_Shift_80
Note_On_77_Vel_0
Time_Shift_5
Note_On_77_Vel_76
Time_Shift_64
Note_On_75_Vel_0
Time_Shift_9
Note_On_75_Vel_82
Time_Shift_84
Note_On_37_Vel_0
Note_On_73_Vel_0
Time_Shift_9
Note_On_73_Vel_78
Time_Shift_2
Note_On_37_Vel_52
Time_Shift_6
Note_On_65_Vel_0
Time_Shift_1
Note_On_61_Vel_0
Note_On_66_Vel_0
Time_Shift_1
Note_On_72_Vel_0
Note_On_56_Vel_0
Time_Shift_2
Note_On_77_Vel_0
Time_Shift_1
Sustain_Off
Note_On_80_Vel_0
Time_Shift_1
Note_On_75_Vel_0
Time_Shift_23
Note_On_70_Vel_0
Time_Shift_53
Sustain_On
Time_Shift_4
Note_On_82_Vel_64
Time_Shift_83
Note_On_77_Vel_64
Time_Shift_53
Note_On_76_Vel_75
Time_Shift_71
Note_On_75_Vel_83
Time_Shift_32
Note_On_56_Vel_59
Time_Shift_40
Note_On_84_Vel_78
Time_Shift_75
Note_On_78_Vel_79
Time_Shift_49
Note_On_77_Vel_0
Time_Shift_8
Note_On_77_Vel_78
Time_Shift_69
Note_On_76_Vel_0
Time_Shift_5
Note_On_76_Vel_90
Time_Shift_5
Note_On_65_Vel_54
Time_Shift_2
Note_On_61_Vel_54
Time_Shift_4
Note_On_65_Vel_0
Time_Shift_70
Note_On_85_Vel_84
Time_Shift_64
Note_On_79_Vel_72
Time_Shift_50
Note_On_78_Vel_0
Time_Shift_10
Note_On_78_Vel_87
Time_Shift_82
Note_On_77_Vel_0
Time_Shift_5
Note_On_77_Vel_81
Time_Shift_34
Note_On_66_Vel_49
Time_Shift_5
Note_On_76_Vel_0
Time_Shift_2
Note_On_56_Vel_0
Time_Shift_1
Note_On_75_Vel_0
Time_Shift_1
Note_On_79_Vel_0
Time_Shift_1
Note_On_82_Vel_0
Note_On_84_Vel_0
Note_On_85_Vel_0
Time_Shift_1
Note_On_78_Vel_0
Time_Shift_3
Sustain_Off
Time_Shift_8
Note_On_73_Vel_0
Time_Shift_28
Note_On_86_Vel_82
Time_Shift_3
Note_On_77_Vel_0
Time_Shift_39
Note_On_37_Vel_0
Sustain_On
Time_Shift_28
Note_On_80_Vel_78
Time_Shift_85
Note_On_79_Vel_75
Time_Shift_79
Note_On_61_Vel_0
Time_Shift_5
Note_On_78_Vel_76
Time_Shift_5
Note_On_56_Vel_53
Time_Shift_71
Note_On_87_Vel_72
Time_Shift_84
Note_On_81_Vel_65
Time_Shift_50
Note_On_80_Vel_0
Time_Shift_9
Note_On_80_Vel_76
Time_Shift_75
Note_On_79_Vel_0
Time_Shift_10
Note_On_79_Vel_75
Time_Shift_103
Note_On_88_Vel_63
Time_Shift_71
Note_On_82_Vel_65
Time_Shift_93
Note_On_81_Vel_0
Time_Shift_4
Note_On_81_Vel_64
Time_Shift_137
Note_On_37_Vel_51
Time_Shift_63
Sustain_Off
Time_Shift_2
Note_On_86_Vel_0
Note_On_87_Vel_0
Time_Shift_1
Note_On_82_Vel_0
Note_On_78_Vel_0
Time_Shift_1
Note_On_79_Vel_0
Note_On_81_Vel_0
Note_On_80_Vel_0
Time_Shift_1
Note_On_56_Vel_0
Time_Shift_2
Note_On_88_Vel_0
Time_Shift_14
Note_On_89_Vel_67
Time_Shift_20
Note_On_66_Vel_0
Time_Shift_46
Sustain_On
Time_Shift_250
Note_On_82_Vel_62
Time_Shift_45
Note_On_56_Vel_52
Time_Shift_21
Note_On_90_Vel_67
Time_Shift_45
Note_On_82_Vel_0
Time_Shift_6
Note_On_82_Vel_64
Time_Shift_44
Note_On_80_Vel_73
Time_Shift_50
Note_On_89_Vel_0
Time_Shift_11
Note_On_89_Vel_72
Time_Shift_66
Note_On_82_Vel_0
Time_Shift_10
Note_On_82_Vel_76
Time_Shift_22
Note_On_61_Vel_53
Time_Shift_2
Note_On_65_Vel_45
Time_Shift_43
Note_On_90_Vel_0
Time_Shift_8
Note_On_90_Vel_81
Time_Shift_46
Note_On_82_Vel_0
Time_Shift_5
Note_On_82_Vel_78
Time_Shift_49
Note_On_77_Vel_71
Time_Shift_48
Note_On_85_Vel_85
Time_Shift_36
Note_On_77_Vel_0
Time_Shift_6
Note_On_77_Vel_77
Time_Shift_48
Note_On_80_Vel_0
Time_Shift_9
Note_On_80_Vel_77
Time_Shift_37
Note_On_89_Vel_0
Time_Shift_8
Note_On_89_Vel_85
Time_Shift_26
Note_On_63_Vel_59
Note_On_66_Vel_54
Time_Shift_35
Note_On_80_Vel_0
Time_Shift_11
Note_On_80_Vel_74
Time_Shift_47
Note_On_78_Vel_83
Time_Shift_63
Note_On_87_Vel_80
Time_Shift_40
Note_On_78_Vel_0
Time_Shift_6
Note_On_78_Vel_81
Time_Shift_32
Note_On_80_Vel_0
Time_Shift_10
Note_On_80_Vel_77
Time_Shift_31
Note_On_68_Vel_50
Time_Shift_6
Note_On_68_Vel_0
Time_Shift_7
Note_On_56_Vel_0
Time_Shift_8
Note_On_65_Vel_0
Note_On_89_Vel_0
Time_Shift_2
Note_On_56_Vel_58
Time_Shift_2
Note_On_65_Vel_35
Note_On_89_Vel_68
Time_Shift_50
Note_On_80_Vel_0
Time_Shift_11
Note_On_80_Vel_73
Time_Shift_40
Note_On_75_Vel_73
Time_Shift_52
Note_On_84_Vel_69
Time_Shift_27
Note_On_75_Vel_0
Time_Shift_6
Note_On_75_Vel_78
Time_Shift_48
Note_On_78_Vel_0
Time_Shift_9
Note_On_78_Vel_78
Time_Shift_45
Note_On_87_Vel_0
Time_Shift_8
Note_On_87_Vel_83
Time_Shift_61
Note_On_78_Vel_0
Time_Shift_5
Note_On_78_Vel_82
Time_Shift_41
Note_On_77_Vel_0
Time_Shift_4
Note_On_77_Vel_76
Time_Shift_50
Note_On_85_Vel_0
Time_Shift_6
Note_On_85_Vel_86
Time_Shift_40
Note_On_77_Vel_0
Time_Shift_11
Note_On_77_Vel_76
Time_Shift_35
Note_On_78_Vel_0
Time_Shift_11
Note_On_78_Vel_81
Time_Shift_27
Note_On_37_Vel_0
Time_Shift_8
Note_On_37_Vel_44
Time_Shift_8
Note_On_87_Vel_0
Time_Shift_5
Note_On_87_Vel_84
Time_Shift_48
Note_On_78_Vel_0
Time_Shift_5
Note_On_78_Vel_82
Time_Shift_51
Note_On_73_Vel_77
Time_Shift_52
Note_On_82_Vel_0
Time_Shift_7
Note_On_82_Vel_77
Time_Shift_47
Note_On_73_Vel_0
Time_Shift_9
Note_On_73_Vel_74
Time_Shift_29
Note_On_77_Vel_0
Time_Shift_7
Note_On_77_Vel_75
Time_Shift_62
Note_On_85_Vel_0
Time_Shift_5
Note_On_85_Vel_82
Time_Shift_3
Note_On_56_Vel_0
Time_Shift_8
Note_On_61_Vel_0
Time_Shift_3
Note_On_56_Vel_60
Time_Shift_4
Note_On_61_Vel_43
Time_Shift_23
Note_On_77_Vel_0
Time_Shift_12
Note_On_77_Vel_71
Time_Shift_34
Note_On_75_Vel_0
Time_Shift_7
Note_On_75_Vel_73
Time_Shift_47
Note_On_84_Vel_0
Time_Shift_11
Note_On_84_Vel_79
Time_Shift_51
Note_On_77_Vel_0
Time_Shift_7
Note_On_75_Vel_0
Time_Shift_4
Note_On_77_Vel_71
Time_Shift_6
Note_On_75_Vel_61
Time_Shift_75
Note_On_77_Vel_0
Note_On_85_Vel_0
Time_Shift_7
Note_On_65_Vel_0
Time_Shift_2
Note_On_85_Vel_85
Time_Shift_1
Note_On_77_Vel_60
Time_Shift_8
Note_On_65_Vel_54
Time_Shift_12
Note_On_61_Vel_0
Time_Shift_8
Note_On_61_Vel_56
Time_Shift_75
Note_On_72_Vel_72
Time_Shift_48
Note_On_80_Vel_0
Time_Shift_4
Note_On_80_Vel_81
Time_Shift_57
Note_On_72_Vel_0
Time_Shift_11
Note_On_72_Vel_68
Time_Shift_28
Note_On_75_Vel_0
Time_Shift_11
Note_On_75_Vel_71
Time_Shift_50
Note_On_84_Vel_0
Time_Shift_8
Note_On_63_Vel_0
Note_On_66_Vel_0
Note_On_72_Vel_0
Time_Shift_3
Note_On_84_Vel_72
Time_Shift_2
Note_On_72_Vel_67
Time_Shift_1
Note_On_63_Vel_56
Time_Shift_3
Note_On_66_Vel_54
Time_Shift_45
Note_On_75_Vel_0
Time_Shift_11
Note_On_75_Vel_69
Time_Shift_42
Note_On_73_Vel_0
Time_Shift_6
Note_On_73_Vel_75
Time_Shift_56
Note_On_82_Vel_0
Time_Shift_11
Note_On_82_Vel_71
Time_Shift_43
Note_On_73_Vel_0
Time_Shift_7
Note_On_73_Vel_64
Time_Shift_31
Note_On_75_Vel_0
Time_Shift_10
Note_On_75_Vel_76
Time_Shift_52
Note_On_56_Vel_0
Note_On_84_Vel_0
Time_Shift_10
Note_On_84_Vel_70
Time_Shift_1
Note_On_56_Vel_58
Time_Shift_58
Note_On_75_Vel_0
Time_Shift_4
Note_On_75_Vel_68
Time_Shift_42
Note_On_73_Vel_0
Time_Shift_9
Note_On_73_Vel_62
Time_Shift_2
Note_On_70_Vel_68
Time_Shift_42
Note_On_78_Vel_0
Time_Shift_8
Note_On_78_Vel_73
Time_Shift_46
Note_On_70_Vel_0
Time_Shift_8
Note_On_70_Vel_63
Time_Shift_46
Note_On_73_Vel_0
Time_Shift_10
Note_On_73_Vel_61
Time_Shift_44
Note_On_82_Vel_0
Time_Shift_10
Note_On_82_Vel_73
Time_Shift_59
Note_On_73_Vel_0
Time_Shift_5
Note_On_73_Vel_71
Time_Shift_56
Note_On_80_Vel_0
Note_On_82_Vel_0
Time_Shift_5
Note_On_80_Vel_66
Time_Shift_1
Note_On_82_Vel_65
Time_Shift_71
Note_On_72_Vel_0
Note_On_73_Vel_0
Time_Shift_5
Note_On_73_Vel_49
Time_Shift_6
Note_On_72_Vel_43
Time_Shift_89
Note_On_37_Vel_0
Time_Shift_11
Note_On_37_Vel_54
Time_Shift_7
Note_On_73_Vel_0
Note_On_72_Vel_0
Time_Shift_1
Note_On_87_Vel_0
Note_On_61_Vel_0
Note_On_63_Vel_0
Note_On_75_Vel_0
Note_On_56_Vel_0
Note_On_85_Vel_0
Note_On_78_Vel_0
Note_On_80_Vel_0
Time_Shift_1
Note_On_66_Vel_0
Note_On_84_Vel_0
Note_On_82_Vel_0
Time_Shift_1
Note_On_77_Vel_0
Time_Shift_1
Note_On_89_Vel_0
Time_Shift_3
Note_On_70_Vel_0
Sustain_Off
Time_Shift_6
Note_On_65_Vel_0
Note_On_90_Vel_0
Time_Shift_2
Note_On_68_Vel_72
Time_Shift_55
Note_On_68_Vel_0
Time_Shift_21
Note_On_77_Vel_63
Time_Shift_14
Sustain_On
Time_Shift_61
Note_On_68_Vel_70
Time_Shift_35
Note_On_69_Vel_58
Time_Shift_83
Note_On_78_Vel_67
Time_Shift_28
Note_On_68_Vel_0
Note_On_69_Vel_0
Time_Shift_9
Note_On_69_Vel_57
Time_Shift_3
Note_On_68_Vel_52
Time_Shift_69
Note_On_70_Vel_59
Time_Shift_32
Note_On_56_Vel_55
Time_Shift_1
Note_On_79_Vel_66
Time_Shift_55
Note_On_70_Vel_0
Time_Shift_10
Note_On_70_Vel_67
Time_Shift_49
Note_On_71_Vel_62
Time_Shift_59
Note_On_80_Vel_72
Time_Shift_28
Note_On_71_Vel_0
Time_Shift_5
Note_On_71_Vel_67
Time_Shift_65
Note_On_72_Vel_73
Time_Shift_49
Note_On_53_Vel_49
Time_Shift_6
Note_On_61_Vel_54
Time_Shift_2
Note_On_81_Vel_74
Time_Shift_42
Note_On_72_Vel_0
Time_Shift_10
Note_On_72_Vel_63
Time_Shift_51
Note_On_73_Vel_77
Time_Shift_65
Note_On_82_Vel_74
Time_Shift_51
Note_On_73_Vel_0
Time_Shift_4
Note_On_73_Vel_75
Time_Shift_19
Note_On_74_Vel_73
Time_Shift_82
Note_On_83_Vel_76
Time_Shift_20
Note_On_66_Vel_51
Time_Shift_5
Note_On_60_Vel_48
Time_Shift_16
Note_On_74_Vel_0
Time_Shift_7
Note_On_74_Vel_56
Time_Shift_70
Note_On_75_Vel_79
Time_Shift_50
Note_On_84_Vel_73
Time_Shift_49
Note_On_75_Vel_0
Time_Shift_9
Note_On_75_Vel_77
Time_Shift_43
Note_On_76_Vel_67
Time_Shift_56
Note_On_56_Vel_0
Time_Shift_8
Note_On_56_Vel_61
Time_Shift_4
Note_On_85_Vel_84
Time_Shift_42
Note_On_76_Vel_0
Time_Shift_6
Note_On_76_Vel_67
Time_Shift_55
Note_On_77_Vel_0
Time_Shift_7
Note_On_77_Vel_64
Time_Shift_55
Note_On_86_Vel_88
Time_Shift_30
Note_On_76_Vel_0
Time_Shift_12
Note_On_76_Vel_53
Time_Shift_50
Note_On_78_Vel_0
Time_Shift_8
Note_On_78_Vel_84
Time_Shift_74
Note_On_87_Vel_78
Time_Shift_33
Note_On_78_Vel_0
Time_Shift_11
Note_On_78_Vel_74
Time_Shift_35
Note_On_79_Vel_0
Time_Shift_10
Note_On_79_Vel_69
Time_Shift_62
Note_On_88_Vel_84
Time_Shift_43
Note_On_79_Vel_0
Time_Shift_6
Note_On_79_Vel_73
Time_Shift_48
Note_On_80_Vel_0
Time_Shift_8
Note_On_80_Vel_73
Time_Shift_55
Note_On_89_Vel_77
Time_Shift_52
Note_On_80_Vel_0
Time_Shift_11
Note_On_80_Vel_68
Time_Shift_20
Note_On_81_Vel_0
Time_Shift_4
Note_On_81_Vel_67
Time_Shift_85
Note_On_90_Vel_78
Time_Shift_41
Note_On_81_Vel_0
Time_Shift_5
Note_On_81_Vel_65
Time_Shift_57
Note_On_82_Vel_0
Time_Shift_10
Note_On_82_Vel_63
Time_Shift_28
Note_On_56_Vel_0
Time_Shift_4
Note_On_91_Vel_71
Time_Shift_6
Note_On_56_Vel_53
Time_Shift_6
Note_On_59_Vel_44
Time_Shift_7
Note_On_59_Vel_0
Time_Shift_46
Note_On_82_Vel_0
Time_Shift_6
Note_On_82_Vel_68
Time_Shift_40
Note_On_83_Vel_0
Time_Shift_11
Note_On_83_Vel_55
Time_Shift_62
Note_On_92_Vel_77
Time_Shift_27
Note_On_83_Vel_0
Time_Shift_11
Note_On_83_Vel_58
Time_Shift_66
Note_On_84_Vel_0
Time_Shift_5
Note_On_84_Vel_62
Time_Shift_41
Note_On_61_Vel_0
Time_Shift_4
Note_On_65_Vel_47
Note_On_61_Vel_52
Time_Shift_7
Note_On_93_Vel_81
Time_Shift_43
Note_On_84_Vel_0
Time_Shift_11
Note_On_84_Vel_67
Time_Shift_50
Note_On_85_Vel_0
Time_Shift_5
Note_On_85_Vel_76
Time_Shift_58
Note_On_94_Vel_86
Time_Shift_45
Note_On_85_Vel_0
Time_Shift_9
Note_On_85_Vel_77
Time_Shift_21
Note_On_86_Vel_0
Time_Shift_6
Note_On_86_Vel_75
Time_Shift_56
Note_On_37_Vel_0
Time_Shift_11
Note_On_95_Vel_90
Time_Shift_43
Note_On_66_Vel_0
Time_Shift_7
Note_On_86_Vel_0
Time_Shift_1
Note_On_66_Vel_55
Time_Shift_4
Note_On_86_Vel_74
Time_Shift_57
Note_On_87_Vel_0
Time_Shift_6
Note_On_87_Vel_73
Time_Shift_42
Note_On_96_Vel_82
Time_Shift_75
Note_On_87_Vel_0
Time_Shift_4
Note_On_87_Vel_78
Time_Shift_34
Note_On_88_Vel_0
Time_Shift_6
Note_On_88_Vel_70
Time_Shift_76
Note_On_97_Vel_93
Time_Shift_3
Note_On_56_Vel_0
Time_Shift_5
Note_On_56_Vel_56
Time_Shift_48
Note_On_88_Vel_0
Time_Shift_9
Note_On_88_Vel_67
Time_Shift_45
Note_On_89_Vel_0
Time_Shift_11
Note_On_89_Vel_69
Time_Shift_69
Note_On_98_Vel_90
Time_Shift_51
Note_On_89_Vel_0
Time_Shift_11
Note_On_89_Vel_71
Time_Shift_58
Note_On_90_Vel_0
Time_Shift_5
Note_On_90_Vel_73
Time_Shift_65
Note_On_99_Vel_87
Time_Shift_60
Note_On_90_Vel_0
Time_Shift_4
Note_On_90_Vel_73
Time_Shift_42
Note_On_91_Vel_0
Time_Shift_5
Note_On_91_Vel_71
Time_Shift_92
Note_On_100_Vel_85
Time_Shift_72
Note_On_91_Vel_0
Time_Shift_4
Note_On_91_Vel_68
Time_Shift_89
Note_On_53_Vel_0
Note_On_60_Vel_0
Note_On_68_Vel_0
Note_On_69_Vel_0
Note_On_70_Vel_0
Note_On_71_Vel_0
Note_On_72_Vel_0
Note_On_73_Vel_0
Note_On_74_Vel_0
Note_On_75_Vel_0
Note_On_76_Vel_0
Note_On_77_Vel_0
Time_Shift_4
Note_On_37_Vel_48
Time_Shift_3
Note_On_92_Vel_0
Time_Shift_7
Note_On_92_Vel_60
Time_Shift_22
Sustain_Off
Time_Shift_25
Sustain_On
Time_Shift_55
Note_On_101_Vel_67
Time_Shift_14
Note_On_79_Vel_0
Time_Shift_77
Note_On_100_Vel_0
Time_Shift_5
Note_On_100_Vel_63
Time_Shift_49
Note_On_99_Vel_0
Time_Shift_10
Note_On_99_Vel_80
Time_Shift_5
Note_On_78_Vel_0
Time_Shift_46
Note_On_97_Vel_0
Time_Shift_5
Note_On_97_Vel_63
Time_Shift_26
Note_On_96_Vel_0
Time_Shift_4
Note_On_96_Vel_75
Time_Shift_73
Note_On_56_Vel_0
Note_On_94_Vel_0
Time_Shift_4
Note_On_94_Vel_82
Time_Shift_2
Note_On_56_Vel_54
Time_Shift_47
Note_On_92_Vel_0
Time_Shift_12
Note_On_92_Vel_76
Time_Shift_42
Note_On_90_Vel_0
Time_Shift_6
Note_On_90_Vel_68
Time_Shift_33
Note_On_89_Vel_0
Time_Shift_4
Note_On_89_Vel_68
Time_Shift_49
Note_On_80_Vel_0
Time_Shift_8
Note_On_87_Vel_0
Time_Shift_7
Note_On_87_Vel_76
Time_Shift_39
Note_On_85_Vel_0
Time_Shift_10
Note_On_85_Vel_76
Time_Shift_36
Note_On_84_Vel_0
Time_Shift_11
Note_On_84_Vel_71
Time_Shift_51
Note_On_65_Vel_0
Time_Shift_7
Note_On_82_Vel_0
Time_Shift_4
Note_On_65_Vel_50
Note_On_82_Vel_71
Time_Shift_4
Note_On_61_Vel_0
Time_Shift_5
Note_On_61_Vel_50
Time_Shift_54
Note_On_80_Vel_72
Time_Shift_45
Note_On_78_Vel_69
Time_Shift_56
Note_On_77_Vel_62
Time_Shift_75
Note_On_75_Vel_68
Time_Shift_52
Note_On_73_Vel_67
Time_Shift_55
Note_On_72_Vel_69
Time_Shift_73
Note_On_66_Vel_0
Time_Shift_7
Note_On_66_Vel_43
Time_Shift_9
Note_On_61_Vel_0
Time_Shift_11
Note_On_60_Vel_46
Time_Shift_82
Note_On_69_Vel_65
Time_Shift_3
Note_On_80_Vel_0
Sustain_Off
Time_Shift_1
Note_On_77_Vel_0
Time_Shift_1
Note_On_56_Vel_0
Note_On_78_Vel_0
Note_On_82_Vel_0
Note_On_96_Vel_0
Time_Shift_1
Note_On_66_Vel_0
Note_On_94_Vel_0
Note_On_72_Vel_0
Note_On_101_Vel_0
Note_On_75_Vel_0
Note_On_89_Vel_0
Note_On_73_Vel_0
Time_Shift_1
Note_On_85_Vel_0
Note_On_97_Vel_0
Note_On_99_Vel_0
Note_On_87_Vel_0
Time_Shift_1
Note_On_90_Vel_0
Time_Shift_6
Note_On_37_Vel_0
Time_Shift_7
Note_On_81_Vel_0
Note_On_83_Vel_0
Note_On_86_Vel_0
Note_On_91_Vel_0
Note_On_93_Vel_0
Note_On_95_Vel_0
Note_On_98_Vel_0
Time_Shift_8
Note_On_60_Vel_0
Note_On_84_Vel_0
Note_On_92_Vel_0
Note_On_100_Vel_0
Time_Shift_8
Note_On_88_Vel_0
Time_Shift_53
Sustain_On
Time_Shift_20
Note_On_73_Vel_41
Time_Shift_19
Note_On_65_Vel_0
Time_Shift_2
Note_On_69_Vel_0
Time_Shift_43
Note_On_71_Vel_59
Time_Shift_58
Note_On_69_Vel_55
Time_Shift_35
Note_On_71_Vel_0
Time_Shift_10
Note_On_71_Vel_63
Time_Shift_36
Note_On_69_Vel_0
Time_Shift_9
Note_On_69_Vel_65
Time_Shift_45
Note_On_71_Vel_0
Time_Shift_7
Note_On_71_Vel_66
Time_Shift_39
Note_On_69_Vel_0
Time_Shift_10
Note_On_69_Vel_62
Time_Shift_44
Note_On_71_Vel_0
Time_Shift_6
Note_On_71_Vel_62
Time_Shift_55
Note_On_69_Vel_0
Time_Shift_7
Note_On_56_Vel_50
Time_Shift_1
Note_On_69_Vel_64
Time_Shift_38
Note_On_71_Vel_0
Time_Shift_8
Note_On_71_Vel_64
Time_Shift_46
Note_On_69_Vel_0
Time_Shift_4
Note_On_69_Vel_68
Time_Shift_42
Note_On_71_Vel_0
Time_Shift_8
Note_On_71_Vel_63
Time_Shift_53
Note_On_69_Vel_0
Time_Shift_10
Note_On_69_Vel_61
Time_Shift_37
Note_On_71_Vel_0
Time_Shift_7
Note_On_71_Vel_64
Time_Shift_54
Note_On_69_Vel_0
Time_Shift_4
Note_On_69_Vel_61
Time_Shift_75
Note_On_68_Vel_63
Time_Shift_56
Note_On_70_Vel_61
Time_Shift_49
Note_On_68_Vel_0
Time_Shift_4
Note_On_68_Vel_63
Time_Shift_104
Note_On_68_Vel_0
Time_Shift_5
Note_On_68_Vel_55
Time_Shift_49
Note_On_70_Vel_0
Time_Shift_10
Note_On_70_Vel_66
Time_Shift_36
Note_On_68_Vel_0
Time_Shift_4
Note_On_68_Vel_60
Time_Shift_42
Note_On_70_Vel_0
Time_Shift_10
Note_On_70_Vel_65
Time_Shift_28
Note_On_68_Vel_0
Time_Shift_6
Note_On_68_Vel_67
Time_Shift_22
Sustain_Off
Time_Shift_32
Note_On_71_Vel_0
Note_On_69_Vel_0
Time_Shift_2
Note_On_70_Vel_0
Time_Shift_9
Note_On_70_Vel_63
Time_Shift_1
Note_On_37_Vel_49
Time_Shift_28
Note_On_56_Vel_0
Time_Shift_15
Note_On_68_Vel_0
Note_On_70_Vel_0
Time_Shift_5
Note_On_68_Vel_65
Time_Shift_3
Note_On_73_Vel_0
Sustain_On
Time_Shift_59
Note_On_70_Vel_57
Time_Shift_4
Note_On_71_Vel_50
Time_Shift_6
Note_On_71_Vel_0
Time_Shift_39
Note_On_68_Vel_0
Time_Shift_9
Note_On_68_Vel_57
Time_Shift_60
Note_On_70_Vel_0
Time_Shift_6
Note_On_70_Vel_44
Time_Shift_26
Note_On_65_Vel_46
Time_Shift_52
Note_On_68_Vel_0
Time_Shift_5
Note_On_68_Vel_63
Time_Shift_81
Note_On_73_Vel_58
Time_Shift_93
Note_On_77_Vel_72
Time_Shift_70
Note_On_82_Vel_69
Time_Shift_23
Note_On_56_Vel_50
Time_Shift_36
Note_On_80_Vel_75
Time_Shift_68
Note_On_80_Vel_0
Time_Shift_6
Note_On_80_Vel_75
Time_Shift_100
Note_On_94_Vel_70
Time_Shift_70
Note_On_92_Vel_72
Time_Shift_12
Sustain_Off
Time_Shift_20
Note_On_65_Vel_0
Time_Shift_4
Note_On_65_Vel_46
Time_Shift_7
Note_On_61_Vel_48
Time_Shift_12
Sustain_On
Time_Shift_155
Note_On_60_Vel_47
Time_Shift_42
Note_On_66_Vel_53
Time_Shift_56
Note_On_68_Vel_0
Time_Shift_10
Note_On_68_Vel_69
Time_Shift_44
Note_On_70_Vel_0
Time_Shift_9
Note_On_70_Vel_70
Time_Shift_45
Note_On_68_Vel_0
Time_Shift_9
Note_On_68_Vel_76
Time_Shift_45
Note_On_70_Vel_0
Time_Shift_6
Note_On_70_Vel_71
Time_Shift_40
Note_On_68_Vel_0
Time_Shift_11
Note_On_68_Vel_73
Time_Shift_58
Note_On_66_Vel_0
Time_Shift_3
Sustain_Off
Time_Shift_4
Note_On_37_Vel_0
Time_Shift_1
Note_On_60_Vel_0
Time_Shift_1
Note_On_82_Vel_0
Note_On_61_Vel_0
Time_Shift_1
Note_On_66_Vel_70
Note_On_94_Vel_0
Note_On_73_Vel_0
Time_Shift_1
Note_On_65_Vel_0
Note_On_70_Vel_0
Time_Shift_1
Note_On_92_Vel_0
Time_Shift_3
Note_On_56_Vel_0
Time_Shift_8
Note_On_77_Vel_0
Note_On_80_Vel_0
Time_Shift_7
Note_On_68_Vel_0
Time_Shift_31
Note_On_66_Vel_0
Time_Shift_23
Sustain_On
Time_Shift_11
Note_On_68_Vel_74
Time_Shift_2
Note_On_66_Vel_61
Time_Shift_2
Note_On_56_Vel_58
Time_Shift_107
Note_On_75_Vel_60
Time_Shift_79
Note_On_78_Vel_59
Time_Shift_57
Note_On_82_Vel_56
Time_Shift_70
Note_On_80_Vel_70
Time_Shift_79
Note_On_80_Vel_0
Time_Shift_5
Note_On_80_Vel_60
Time_Shift_99
Note_On_94_Vel_70
Time_Shift_107
Note_On_92_Vel_61
Time_Shift_227
Note_On_66_Vel_0
Time_Shift_8
Note_On_56_Vel_0
Time_Shift_3
Note_On_66_Vel_39
Time_Shift_7
Note_On_56_Vel_43
Time_Shift_26
Note_On_37_Vel_41
Time_Shift_4
Note_On_49_Vel_36
Time_Shift_25
Note_On_97_Vel_54
Time_Shift_73
Note_On_94_Vel_0
Time_Shift_5
Note_On_94_Vel_61
Sustain_Off
Time_Shift_49
Sustain_On
Time_Shift_23
Note_On_97_Vel_0
Time_Shift_9
Note_On_97_Vel_67
Time_Shift_60
Note_On_92_Vel_0
Time_Shift_7
Note_On_92_Vel_70
Time_Shift_77
Note_On_97_Vel_0
Time_Shift_9
Note_On_97_Vel_75
Time_Shift_57
Note_On_89_Vel_62
Time_Shift_3
Note_On_68_Vel_0
Time_Shift_47
Note_On_97_Vel_0
Time_Shift_11
Note_On_97_Vel_84
Time_Shift_19
Note_On_56_Vel_0
Time_Shift_4
Note_On_56_Vel_51
Time_Shift_56
Note_On_90_Vel_64
Time_Shift_71
Note_On_97_Vel_0
Time_Shift_5
Note_On_97_Vel_71
Time_Shift_41
Note_On_89_Vel_0
Time_Shift_4
Note_On_89_Vel_63
Time_Shift_50
Note_On_97_Vel_0
Time_Shift_4
Note_On_97_Vel_86
Time_Shift_68
Note_On_85_Vel_76
Time_Shift_58
Note_On_97_Vel_0
Time_Shift_7
Note_On_97_Vel_80
Time_Shift_8
Note_On_61_Vel_52
Time_Shift_5
Note_On_65_Vel_36
Time_Shift_34
Note_On_89_Vel_0
Time_Shift_8
Note_On_75_Vel_0
Time_Shift_3
Note_On_89_Vel_68
Time_Shift_70
Note_On_96_Vel_84
Time_Shift_34
Note_On_85_Vel_0
Time_Shift_10
Note_On_85_Vel_79
Time_Shift_68
Note_On_95_Vel_90
Time_Shift_60
Note_On_89_Vel_0
Time_Shift_6
Note_On_89_Vel_73
Time_Shift_56
Note_On_94_Vel_0
Time_Shift_9
Note_On_94_Vel_89
Time_Shift_8
Note_On_63_Vel_58
Time_Shift_14
Note_On_66_Vel_0
Time_Shift_8
Note_On_66_Vel_47
Time_Shift_15
Note_On_80_Vel_0
Time_Shift_15
Note_On_84_Vel_73
Time_Shift_65
Note_On_93_Vel_87
Time_Shift_50
Note_On_90_Vel_0
Time_Shift_6
Note_On_90_Vel_77
Time_Shift_56
Note_On_92_Vel_0
Time_Shift_10
Note_On_92_Vel_79
Time_Shift_13
Note_On_37_Vel_0
Time_Shift_46
Note_On_84_Vel_0
Time_Shift_5
Note_On_84_Vel_67
Time_Shift_49
Note_On_56_Vel_0
Time_Shift_5
Note_On_56_Vel_53
Time_Shift_5
Note_On_91_Vel_75
Time_Shift_62
Note_On_87_Vel_69
Time_Shift_112
Note_On_89_Vel_0
Time_Shift_9
Note_On_89_Vel_56
Time_Shift_9
Note_On_81_Vel_66
Time_Shift_97
Note_On_84_Vel_0
Time_Shift_10
Note_On_84_Vel_57
Time_Shift_28
Note_On_87_Vel_0
Time_Shift_11
Note_On_87_Vel_72
Time_Shift_66
Note_On_80_Vel_68
Time_Shift_62
Note_On_90_Vel_0
Time_Shift_6
Note_On_90_Vel_73
Time_Shift_47
Note_On_78_Vel_0
Time_Shift_11
Note_On_78_Vel_69
Time_Shift_66
Note_On_84_Vel_0
Time_Shift_7
Note_On_84_Vel_64
Time_Shift_55
Note_On_80_Vel_0
Time_Shift_11
Note_On_80_Vel_67
Time_Shift_63
Note_On_37_Vel_47
Time_Shift_18
Note_On_85_Vel_0
Time_Shift_4
Note_On_85_Vel_66
Time_Shift_57
Note_On_82_Vel_0
Time_Shift_9
Note_On_82_Vel_58
Time_Shift_76
Note_On_85_Vel_0
Time_Shift_4
Note_On_85_Vel_73
Time_Shift_50
Note_On_49_Vel_0
Note_On_80_Vel_0
Time_Shift_9
Note_On_80_Vel_75
Time_Shift_67
Note_On_85_Vel_0
Time_Shift_10
Note_On_85_Vel_81
Time_Shift_64
Note_On_77_Vel_65
Time_Shift_57
Note_On_85_Vel_0
Time_Shift_10
Note_On_85_Vel_81
Time_Shift_21
Note_On_56_Vel_0
Time_Shift_5
Note_On_56_Vel_54
Time_Shift_48
Note_On_78_Vel_0
Time_Shift_10
Note_On_78_Vel_68
Time_Shift_59
Note_On_85_Vel_0
Time_Shift_11
Note_On_85_Vel_80
Time_Shift_43
Note_On_77_Vel_0
Time_Shift_6
Note_On_77_Vel_68
Time_Shift_79
Note_On_85_Vel_0
Time_Shift_5
Note_On_85_Vel_79
Time_Shift_62
Note_On_73_Vel_65
Time_Shift_71
Note_On_85_Vel_0
Time_Shift_8
Note_On_85_Vel_75
Time_Shift_7
Note_On_65_Vel_0
Time_Shift_8
Note_On_61_Vel_0
Time_Shift_3
Note_On_65_Vel_43
Time_Shift_2
Note_On_61_Vel_44
Time_Shift_33
Note_On_77_Vel_0
Time_Shift_11
Note_On_77_Vel_63
Time_Shift_66
Note_On_84_Vel_0
Time_Shift_11
Note_On_84_Vel_68
Time_Shift_58
Note_On_73_Vel_0
Time_Shift_7
Note_On_73_Vel_63
Time_Shift_74
Note_On_83_Vel_69
Time_Shift_58
Note_On_77_Vel_0
Time_Shift_11
Note_On_77_Vel_52
Time_Shift_65
Note_On_63_Vel_0
Note_On_66_Vel_0
Note_On_82_Vel_0
Time_Shift_5
Note_On_82_Vel_73
Time_Shift_1
Note_On_66_Vel_45
Time_Shift_1
Note_On_63_Vel_47
Time_Shift_82
Note_On_72_Vel_64
Time_Shift_65
Note_On_81_Vel_0
Time_Shift_11
Note_On_81_Vel_69
Time_Shift_43
Note_On_78_Vel_0
Time_Shift_10
Note_On_78_Vel_68
Time_Shift_82
Note_On_80_Vel_0
Time_Shift_4
Note_On_80_Vel_57
Time_Shift_57
Note_On_72_Vel_0
Time_Shift_6
Note_On_72_Vel_57
Time_Shift_75
Note_On_79_Vel_71
Time_Shift_27
Note_On_56_Vel_0
Time_Shift_8
Note_On_56_Vel_47
Time_Shift_39
Note_On_75_Vel_64
Time_Shift_76
Note_On_78_Vel_0
Time_Shift_4
Note_On_78_Vel_54
Time_Shift_80
Note_On_77_Vel_0
Time_Shift_6
Note_On_77_Vel_72
Time_Shift_75
Note_On_69_Vel_52
Time_Shift_104
Note_On_75_Vel_0
Time_Shift_8
Note_On_75_Vel_70
Time_Shift_138
Note_On_68_Vel_51
Time_Shift_84
Note_On_78_Vel_0
Time_Shift_6
Note_On_78_Vel_68
Time_Shift_24
Note_On_77_Vel_0
Time_Shift_4
Note_On_81_Vel_0
Note_On_87_Vel_0
Note_On_56_Vel_0
Time_Shift_1
Note_On_80_Vel_0
Note_On_72_Vel_0
Note_On_89_Vel_0
Time_Shift_1
Note_On_69_Vel_0
Note_On_83_Vel_0
Note_On_73_Vel_0
Time_Shift_1
Note_On_82_Vel_0
Note_On_75_Vel_0
Time_Shift_1
Note_On_61_Vel_0
Note_On_85_Vel_0
Note_On_92_Vel_0
Time_Shift_2
Note_On_68_Vel_0
Time_Shift_2
Note_On_63_Vel_0
Time_Shift_4
Note_On_37_Vel_0
Time_Shift_8
Note_On_65_Vel_0
Note_On_66_Vel_0
Note_On_91_Vel_0
Note_On_93_Vel_0
Time_Shift_7
Note_On_84_Vel_0
Time_Shift_16
Note_On_79_Vel_0
Note_On_96_Vel_0
Time_Shift_35
Note_On_66_Vel_49
Time_Shift_128
Note_On_72_Vel_62
Time_Shift_21
Note_On_95_Vel_0
Time_Shift_69
Note_On_94_Vel_0
Time_Shift_36
Note_On_68_Vel_44
Time_Shift_10
Note_On_97_Vel_0
Time_Shift_123
Note_On_90_Vel_0
Time_Shift_54
Note_On_78_Vel_0
Time_Shift_10
Note_On_37_Vel_35
Time_Shift_55
Sustain_Off
Time_Shift_2
Note_On_68_Vel_0
Time_Shift_7
Note_On_66_Vel_0
Time_Shift_1
Note_On_72_Vel_0
Time_Shift_30
Note_On_73_Vel_57
Time_Shift_37
Note_On_65_Vel_30
Time_Shift_104
Sustain_On
Time_Shift_407
Note_On_56_Vel_40
Time_Shift_353
Note_On_65_Vel_0
Time_Shift_10
Note_On_61_Vel_33
Time_Shift_1
Note_On_65_Vel_32
Time_Shift_443
Note_On_72_Vel_51
Time_Shift_55
Note_On_66_Vel_34
Note_On_60_Vel_33
Time_Shift_46
Sustain_Off
Time_Shift_6
Note_On_65_Vel_0
Time_Shift_2
Note_On_61_Vel_0
Note_On_73_Vel_0
Time_Shift_1
Note_On_56_Vel_0
Time_Shift_58
Sustain_On
Time_Shift_77
Note_On_37_Vel_0
Time_Shift_29
Note_On_73_Vel_51
Time_Shift_178
Note_On_56_Vel_42
Time_Shift_4
Note_On_75_Vel_62
Time_Shift_160
Note_On_78_Vel_65
Time_Shift_169
Note_On_82_Vel_56
Time_Shift_160
Note_On_70_Vel_55
Time_Shift_211
Note_On_37_Vel_36
Time_Shift_4
Note_On_56_Vel_0
Note_On_73_Vel_0
Note_On_60_Vel_0
Note_On_78_Vel_0
Time_Shift_1
Note_On_66_Vel_0
Sustain_Off
Time_Shift_1
Note_On_75_Vel_0
Note_On_82_Vel_0
Time_Shift_1
Note_On_70_Vel_0
Time_Shift_2
Note_On_68_Vel_57
Time_Shift_9
Note_On_72_Vel_0
Time_Shift_77
Sustain_On
Time_Shift_289
Note_On_56_Vel_52
Time_Shift_336
Note_On_65_Vel_40
Time_Shift_4
Note_On_61_Vel_39
Time_Shift_320
Note_On_66_Vel_48
Time_Shift_55
Note_On_63_Vel_38
Time_Shift_45
Note_On_65_Vel_0
Time_Shift_1
Note_On_61_Vel_0
Time_Shift_12
Sustain_Off
Time_Shift_28
Sustain_On
Time_Shift_70
Note_On_68_Vel_0
Time_Shift_6
Note_On_68_Vel_56
Time_Shift_168
Note_On_72_Vel_67
Time_Shift_25
Note_On_56_Vel_0
Time_Shift_8
Note_On_56_Vel_33
Time_Shift_125
Note_On_75_Vel_72
Time_Shift_190
Note_On_78_Vel_76
Time_Shift_169
Note_On_66_Vel_0
Time_Shift_7
Note_On_66_Vel_59
Time_Shift_223
Note_On_37_Vel_0
Time_Shift_8
Note_On_37_Vel_39
Time_Shift_54
Note_On_65_Vel_53
Time_Shift_11
Sustain_Off
Time_Shift_1
Note_On_68_Vel_0
Note_On_56_Vel_0
Time_Shift_1
Note_On_75_Vel_0
Time_Shift_1
Note_On_63_Vel_0
Note_On_72_Vel_0
Time_Shift_1
Note_On_66_Vel_0
Time_Shift_2
Note_On_78_Vel_0
Time_Shift_106
Sustain_On
Time_Shift_390
Note_On_56_Vel_50
Time_Shift_205
Note_On_80_Vel_51
Time_Shift_4
Note_On_77_Vel_43
Time_Shift_122
Note_On_65_Vel_0
Time_Shift_11
Note_On_65_Vel_26
Time_Shift_11
Note_On_61_Vel_34
Time_Shift_37
Note_On_79_Vel_57
Time_Shift_141
Note_On_80_Vel_0
Time_Shift_5
Note_On_80_Vel_55
Time_Shift_193
Note_On_82_Vel_49
Time_Shift_24
Note_On_66_Vel_37
Time_Shift_2
Note_On_60_Vel_34
Time_Shift_31
Note_On_61_Vel_0
Time_Shift_1
Note_On_79_Vel_0
Note_On_37_Vel_0
Time_Shift_1
Note_On_56_Vel_0
Time_Shift_1
Note_On_77_Vel_0
Note_On_80_Vel_0
Time_Shift_10
Sustain_Off
Time_Shift_16
Note_On_65_Vel_0
Time_Shift_16
Sustain_On
Time_Shift_90
Note_On_80_Vel_52
Time_Shift_157
Note_On_72_Vel_57
Note_On_56_Vel_44
Time_Shift_157
Note_On_78_Vel_57
Time_Shift_157
Note_On_84_Vel_64
Time_Shift_155
Note_On_90_Vel_61
Time_Shift_158
Note_On_37_Vel_43
Time_Shift_19
Note_On_56_Vel_0
Note_On_66_Vel_0
Note_On_82_Vel_0
Note_On_72_Vel_0
Note_On_78_Vel_0
Note_On_84_Vel_0
Time_Shift_1
Note_On_80_Vel_0
Note_On_60_Vel_0
Note_On_89_Vel_56
Time_Shift_1
Note_On_90_Vel_0
Time_Shift_1
Sustain_Off
Time_Shift_33
Sustain_On
Time_Shift_129
Note_On_87_Vel_52
Time_Shift_158
Note_On_85_Vel_63
Time_Shift_2
Note_On_56_Vel_49
Time_Shift_156
Note_On_77_Vel_53
Time_Shift_152
Note_On_80_Vel_58
Time_Shift_36
Note_On_61_Vel_35
Time_Shift_7
Note_On_65_Vel_28
Time_Shift_133
Note_On_84_Vel_55
Time_Shift_191
Note_On_82_Vel_49
Time_Shift_33
Note_On_66_Vel_38
Time_Shift_6
Note_On_63_Vel_33
Time_Shift_15
Note_On_65_Vel_0
Note_On_56_Vel_0
Note_On_80_Vel_0
Time_Shift_1
Note_On_61_Vel_0
Note_On_77_Vel_0
Note_On_37_Vel_0
Note_On_84_Vel_0
Time_Shift_2
Note_On_85_Vel_0
Time_Shift_10
Sustain_Off
Time_Shift_44
Sustain_On
Time_Shift_69
Note_On_89_Vel_0
Time_Shift_18
Note_On_78_Vel_47
Time_Shift_173
Note_On_75_Vel_38
Time_Shift_27
Note_On_56_Vel_32
Time_Shift_146
Note_On_70_Vel_48
Time_Shift_190
Note_On_72_Vel_49
Time_Shift_184
Note_On_75_Vel_0
Time_Shift_6
Note_On_75_Vel_52
Time_Shift_260
Note_On_37_Vel_30
Time_Shift_78
Note_On_63_Vel_0
Time_Shift_1
Note_On_56_Vel_0
Time_Shift_1
Note_On_75_Vel_0
Note_On_78_Vel_0
Time_Shift_1
Note_On_66_Vel_0
Note_On_70_Vel_0
Time_Shift_1
Note_On_72_Vel_0
Time_Shift_5
Note_On_87_Vel_0
Time_Shift_3
Sustain_Off
Time_Shift_2
Note_On_68_Vel_40
Time_Shift_2
Note_On_82_Vel_0
Time_Shift_26
Note_On_56_Vel_29
Time_Shift_67
Sustain_On
Time_Shift_368
Note_On_56_Vel_0
Time_Shift_11
Note_On_56_Vel_46
Time_Shift_338
Note_On_65_Vel_34
Time_Shift_1
Note_On_61_Vel_36
Time_Shift_340
Note_On_67_Vel_40
Time_Shift_11
Note_On_60_Vel_23
Time_Shift_47
Note_On_66_Vel_31
Time_Shift_40
Sustain_Off
Time_Shift_11
Sustain_On
Time_Shift_61
Note_On_68_Vel_0
Time_Shift_12
Note_On_68_Vel_49
Time_Shift_123
Note_On_70_Vel_50
Time_Shift_119
Note_On_56_Vel_0
Time_Shift_9
Note_On_72_Vel_58
Time_Shift_2
Note_On_56_Vel_35
Time_Shift_110
Note_On_73_Vel_57
Time_Shift_97
Note_On_75_Vel_61
Time_Shift_123
Note_On_77_Vel_55
Time_Shift_109
Note_On_78_Vel_46
Time_Shift_122
Note_On_82_Vel_50
Time_Shift_166
Note_On_77_Vel_0
Time_Shift_1
Note_On_56_Vel_0
Time_Shift_1
Note_On_70_Vel_0
Note_On_78_Vel_0
Note_On_73_Vel_0
Time_Shift_1
Note_On_82_Vel_0
Note_On_66_Vel_0
Note_On_75_Vel_0
Time_Shift_3
Sustain_Off
Time_Shift_1
Note_On_60_Vel_0
Time_Shift_8
Note_On_67_Vel_0
Time_Shift_7
Note_On_61_Vel_0
Note_On_72_Vel_0
Time_Shift_8
Note_On_37_Vel_0
Note_On_65_Vel_0
Time_Shift_4
Note_On_37_Vel_32
Note_On_80_Vel_49
Time_Shift_50
Sustain_On
Time_Shift_215
Note_On_37_Vel_0
Time_Shift_120
Note_On_56_Vel_49
Time_Shift_321
Note_On_61_Vel_37
Time_Shift_1
Note_On_65_Vel_35
Time_Shift_234
Note_On_68_Vel_0
Time_Shift_119
Note_On_79_Vel_51
Time_Shift_72
Note_On_66_Vel_34
Time_Shift_6
Note_On_80_Vel_0
Time_Shift_9
Note_On_63_Vel_27
Time_Shift_112
Note_On_80_Vel_46
Time_Shift_148
Note_On_84_Vel_52
Time_Shift_102
Note_On_56_Vel_0
Time_Shift_11
Note_On_56_Vel_40
Time_Shift_24
Note_On_82_Vel_48
Time_Shift_111
Note_On_80_Vel_0
Time_Shift_9
Note_On_80_Vel_51
Time_Shift_6
Note_On_65_Vel_0
Time_Shift_54
Note_On_61_Vel_0
Time_Shift_57
Note_On_78_Vel_51
Time_Shift_119
Note_On_75_Vel_49
Time_Shift_142
Note_On_70_Vel_44
Time_Shift_106
Note_On_72_Vel_61
Time_Shift_152
Note_On_70_Vel_0
Time_Shift_5
Note_On_70_Vel_59
Time_Shift_4
Note_On_37_Vel_37
Time_Shift_123
Note_On_68_Vel_57
Time_Shift_114
Note_On_75_Vel_0
Time_Shift_10
Note_On_75_Vel_58
Time_Shift_129
Note_On_73_Vel_59
Time_Shift_7
Note_On_56_Vel_0
Time_Shift_4
Note_On_56_Vel_43
Time_Shift_88
Note_On_75_Vel_0
Time_Shift_11
Note_On_75_Vel_59
Time_Shift_112
Note_On_78_Vel_0
Time_Shift_5
Note_On_78_Vel_53
Time_Shift_137
Note_On_77_Vel_52
Time_Shift_17
Note_On_65_Vel_35
Time_Shift_5
Note_On_61_Vel_38
Time_Shift_235
Note_On_82_Vel_0
Time_Shift_4
Note_On_82_Vel_42
Time_Shift_134
Note_On_80_Vel_0
Time_Shift_11
Note_On_80_Vel_45
Time_Shift_20
Note_On_56_Vel_0
Note_On_73_Vel_0
Time_Shift_8
Note_On_63_Vel_0
Note_On_66_Vel_0
Time_Shift_1
Note_On_73_Vel_26
Note_On_56_Vel_28
Time_Shift_5
Note_On_66_Vel_34
Note_On_63_Vel_33
Time_Shift_23
Note_On_79_Vel_0
Note_On_70_Vel_0
Time_Shift_1
Note_On_82_Vel_0
Note_On_75_Vel_0
Time_Shift_1
Note_On_61_Vel_0
Note_On_68_Vel_0
Time_Shift_1
Note_On_78_Vel_0
Note_On_37_Vel_0
Note_On_77_Vel_0
Note_On_65_Vel_0
Time_Shift_2
Note_On_84_Vel_0
Time_Shift_1
Note_On_72_Vel_0
Time_Shift_8
Sustain_Off
Time_Shift_41
Sustain_On
Time_Shift_98
Note_On_92_Vel_65
Time_Shift_175
Note_On_82_Vel_49
Time_Shift_134
Note_On_56_Vel_0
Note_On_92_Vel_0
Time_Shift_9
Note_On_92_Vel_64
Time_Shift_3
Note_On_56_Vel_41
Time_Shift_139
Note_On_85_Vel_56
Time_Shift_126
Note_On_92_Vel_0
Time_Shift_4
Note_On_92_Vel_63
Time_Shift_115
Note_On_84_Vel_54
Time_Shift_111
Note_On_92_Vel_0
Time_Shift_6
Note_On_92_Vel_59
Time_Shift_143
Note_On_89_Vel_51
Time_Shift_116
Note_On_37_Vel_34
Time_Shift_15
Note_On_87_Vel_51
Time_Shift_119
Note_On_85_Vel_0
Time_Shift_11
Note_On_85_Vel_54
Time_Shift_126
Note_On_97_Vel_56
Time_Shift_140
Note_On_56_Vel_0
Time_Shift_5
Note_On_56_Vel_43
Time_Shift_115
Note_On_94_Vel_64
Time_Shift_33
Note_On_85_Vel_0
Time_Shift_11
Note_On_85_Vel_36
Time_Shift_74
Note_On_92_Vel_0
Time_Shift_5
Note_On_92_Vel_60
Time_Shift_102
Note_On_89_Vel_0
Time_Shift_11
Note_On_89_Vel_54
Time_Shift_7
Note_On_65_Vel_38
Time_Shift_2
Note_On_61_Vel_38
Time_Shift_126
Note_On_87_Vel_0
Time_Shift_6
Note_On_87_Vel_55
Time_Shift_117
Note_On_85_Vel_0
Time_Shift_10
Note_On_85_Vel_49
Time_Shift_113
Note_On_84_Vel_0
Time_Shift_5
Note_On_84_Vel_53
Time_Shift_18
Note_On_61_Vel_0
Note_On_63_Vel_0
Note_On_66_Vel_0
Time_Shift_1
Note_On_72_Vel_31
Time_Shift_4
Note_On_66_Vel_37
Time_Shift_5
Note_On_63_Vel_37
Time_Shift_1
Note_On_61_Vel_24
Time_Shift_120
Note_On_82_Vel_0
Time_Shift_11
Note_On_82_Vel_48
Time_Shift_119
Note_On_80_Vel_0
Time_Shift_6
Note_On_80_Vel_48
Time_Shift_154
Note_On_77_Vel_38
Time_Shift_2
Note_On_56_Vel_0
Note_On_65_Vel_0
Time_Shift_7
Note_On_61_Vel_0
Time_Shift_3
Note_On_65_Vel_18
Note_On_56_Vel_37
Time_Shift_7
Note_On_61_Vel_10
Time_Shift_142
Note_On_75_Vel_44
Time_Shift_163
Note_On_73_Vel_0
Time_Shift_9
Note_On_73_Vel_41
Time_Shift_152
Note_On_72_Vel_0
Time_Shift_4
Note_On_72_Vel_45
Time_Shift_188
Note_On_70_Vel_45
Time_Shift_211
Note_On_68_Vel_42
Time_Shift_273
Note_On_37_Vel_0
Time_Shift_10
Note_On_37_Vel_38
Time_Shift_103
Note_On_94_Vel_0
Time_Shift_1
Note_On_87_Vel_0
Time_Shift_1
Note_On_56_Vel_0
Sustain_Off
Note_On_92_Vel_0
Note_On_73_Vel_0
Time_Shift_1
Note_On_75_Vel_0
Time_Shift_1
Note_On_72_Vel_0
Note_On_80_Vel_0
Note_On_85_Vel_0
Note_On_84_Vel_0
Time_Shift_1
Note_On_63_Vel_0
Note_On_61_Vel_0
Note_On_70_Vel_0
Note_On_82_Vel_0
Note_On_89_Vel_0
Note_On_65_Vel_0
Note_On_66_Vel_0
Time_Shift_1
Note_On_77_Vel_0
Time_Shift_4
Note_On_68_Vel_0
Time_Shift_1
Note_On_73_Vel_48
Time_Shift_3
Note_On_68_Vel_32
Time_Shift_4
Note_On_97_Vel_0
Time_Shift_138
Sustain_On
Time_Shift_435
Note_On_56_Vel_40
Time_Shift_419
Note_On_65_Vel_34
Time_Shift_2
Note_On_61_Vel_28
Time_Shift_492
Note_On_71_Vel_49
Time_Shift_50
Note_On_65_Vel_0
Time_Shift_9
Note_On_65_Vel_33
Time_Shift_14
Note_On_61_Vel_0
Time_Shift_4
Note_On_61_Vel_29
Time_Shift_280
Note_On_73_Vel_0
Time_Shift_4
Note_On_73_Vel_48
Time_Shift_186
Note_On_77_Vel_50
Time_Shift_17
Note_On_56_Vel_0
Time_Shift_12
Note_On_56_Vel_33
Time_Shift_168
Note_On_82_Vel_48
Time_Shift_190
Note_On_80_Vel_54
Time_Shift_189
Note_On_75_Vel_57
Time_Shift_194
Note_On_71_Vel_0
Time_Shift_5
Note_On_71_Vel_50
Time_Shift_18
Note_On_37_Vel_0
Time_Shift_6
Note_On_37_Vel_41
Time_Shift_148
Note_On_65_Vel_0
Time_Shift_4
Note_On_65_Vel_52
Time_Shift_172
Note_On_71_Vel_0
Time_Shift_8
Note_On_71_Vel_56
Time_Shift_15
Note_On_56_Vel_0
Note_On_68_Vel_0
Time_Shift_6
Note_On_68_Vel_42
Time_Shift_3
Note_On_56_Vel_52
Time_Shift_145
Note_On_75_Vel_0
Time_Shift_10
Note_On_75_Vel_60
Time_Shift_167
Note_On_68_Vel_0
Time_Shift_8
Note_On_68_Vel_54
Time_Shift_7
Note_On_71_Vel_0
Time_Shift_4
Note_On_71_Vel_40
Time_Shift_4
Note_On_65_Vel_0
Time_Shift_7
Note_On_61_Vel_0
Time_Shift_1
Note_On_65_Vel_40
Time_Shift_7
Note_On_61_Vel_43
Time_Shift_154
Note_On_73_Vel_0
Time_Shift_4
Note_On_73_Vel_57
Time_Shift_172
Note_On_71_Vel_0
Time_Shift_10
Note_On_71_Vel_50
Time_Shift_6
Note_On_61_Vel_0
Note_On_65_Vel_0
Time_Shift_5
Note_On_61_Vel_41
Note_On_65_Vel_31
Time_Shift_10
Note_On_68_Vel_0
Time_Shift_6
Note_On_68_Vel_30
Time_Shift_155
Note_On_73_Vel_0
Time_Shift_6
Note_On_73_Vel_47
Time_Shift_155
Note_On_56_Vel_0
Note_On_77_Vel_0
Time_Shift_10
Note_On_56_Vel_47
Time_Shift_1
Note_On_77_Vel_52
Time_Shift_174
Note_On_82_Vel_0
Time_Shift_5
Note_On_82_Vel_49
Time_Shift_171
Note_On_80_Vel_0
Time_Shift_10
Note_On_80_Vel_55
Time_Shift_152
Note_On_75_Vel_0
Time_Shift_10
Note_On_75_Vel_58
Time_Shift_25
Note_On_49_Vel_22
Time_Shift_141
Note_On_71_Vel_0
Time_Shift_8
Note_On_71_Vel_52
Time_Shift_31
Note_On_37_Vel_0
Time_Shift_4
Note_On_37_Vel_28
Time_Shift_142
Note_On_65_Vel_0
Time_Shift_5
Note_On_65_Vel_45
Time_Shift_41
Note_On_71_Vel_0
Time_Shift_4
Note_On_71_Vel_26
Time_Shift_126
Note_On_71_Vel_0
Time_Shift_8
Note_On_56_Vel_0
Time_Shift_1
Note_On_71_Vel_50
Time_Shift_10
Note_On_56_Vel_45
Time_Shift_135
Note_On_75_Vel_0
Time_Shift_8
Note_On_75_Vel_61
Time_Shift_169
Note_On_68_Vel_0
Time_Shift_6
Note_On_68_Vel_52
Time_Shift_17
Note_On_65_Vel_0
Time_Shift_7
Note_On_61_Vel_0
Time_Shift_1
Note_On_65_Vel_37
Time_Shift_10
Note_On_61_Vel_37
Time_Shift_143
Note_On_73_Vel_0
Time_Shift_4
Note_On_73_Vel_53
Time_Shift_165
Note_On_71_Vel_0
Time_Shift_10
Note_On_71_Vel_53
Time_Shift_5
Note_On_61_Vel_0
Note_On_65_Vel_0
Time_Shift_4
Note_On_65_Vel_39
Time_Shift_4
Note_On_61_Vel_31
Time_Shift_161
Note_On_73_Vel_0
Time_Shift_7
Note_On_73_Vel_55
Time_Shift_162
Note_On_77_Vel_0
Time_Shift_7
Note_On_77_Vel_58
Time_Shift_24
Note_On_65_Vel_0
Time_Shift_4
Note_On_65_Vel_21
Time_Shift_4
Note_On_56_Vel_0
Time_Shift_6
Note_On_56_Vel_43
Time_Shift_139
Note_On_80_Vel_0
Time_Shift_7
Note_On_80_Vel_55
Time_Shift_181
Note_On_83_Vel_54
Time_Shift_185
Note_On_85_Vel_55
Time_Shift_180
Note_On_49_Vel_0
Time_Shift_23
Note_On_37_Vel_0
Time_Shift_10
Note_On_37_Vel_39
Time_Shift_18
Note_On_87_Vel_41
Time_Shift_253
Note_On_90_Vel_52
Time_Shift_34
Note_On_75_Vel_0
Time_Shift_8
Note_On_75_Vel_23
Time_Shift_145
Note_On_89_Vel_52
Time_Shift_16
Note_On_56_Vel_0
Time_Shift_10
Note_On_56_Vel_48
Time_Shift_152
Note_On_85_Vel_0
Time_Shift_9
Note_On_85_Vel_56
Time_Shift_175
Note_On_65_Vel_0
Note_On_71_Vel_0
Note_On_83_Vel_0
Time_Shift_4
Note_On_83_Vel_50
Time_Shift_5
Note_On_65_Vel_37
Time_Shift_1
Note_On_71_Vel_37
Time_Shift_13
Note_On_61_Vel_0
Time_Shift_9
Note_On_61_Vel_37
Time_Shift_137
Note_On_80_Vel_0
Time_Shift_6
Note_On_80_Vel_60
Time_Shift_186
Note_On_75_Vel_0
Time_Shift_7
Note_On_75_Vel_53
Time_Shift_31
Note_On_65_Vel_0
Time_Shift_8
Note_On_61_Vel_0
Time_Shift_4
Note_On_65_Vel_30
Time_Shift_2
Note_On_61_Vel_33
Time_Shift_151
Note_On_78_Vel_62
Time_Shift_189
Note_On_68_Vel_0
Note_On_71_Vel_0
Note_On_73_Vel_0
Note_On_77_Vel_0
Note_On_82_Vel_0
Time_Shift_17
Note_On_77_Vel_48
Time_Shift_6
Note_On_56_Vel_0
Note_On_61_Vel_0
Time_Shift_4
Note_On_61_Vel_20
Time_Shift_2
Note_On_56_Vel_39
Time_Shift_186
Note_On_65_Vel_0
Time_Shift_4
Note_On_73_Vel_41
Time_Shift_1
Note_On_65_Vel_18
Time_Shift_203
Note_On_71_Vel_49
Time_Shift_245
Note_On_61_Vel_0
Time_Shift_5
Note_On_68_Vel_40
Time_Shift_6
Note_On_61_Vel_19
Time_Shift_5
Note_On_59_Vel_19
Time_Shift_7
Note_On_59_Vel_0
Time_Shift_327
Note_On_70_Vel_45
Time_Shift_34
Note_On_37_Vel_0
Time_Shift_4
Note_On_37_Vel_34
Time_Shift_15
Note_On_87_Vel_0
Note_On_85_Vel_0
Note_On_61_Vel_0
Note_On_65_Vel_0
Note_On_80_Vel_0
Note_On_68_Vel_0
Note_On_90_Vel_0
Note_On_73_Vel_0
Note_On_75_Vel_0
Time_Shift_1
Note_On_83_Vel_0
Note_On_56_Vel_0
Note_On_71_Vel_0
Note_On_78_Vel_0
Time_Shift_1
Note_On_77_Vel_0
Sustain_Off
Time_Shift_1
Note_On_89_Vel_0
Time_Shift_124
Sustain_On
Time_Shift_407
Note_On_58_Vel_39
Time_Shift_46
Note_On_37_Vel_0
Time_Shift_370
Note_On_68_Vel_31
Note_On_61_Vel_28
Time_Shift_1
Note_On_66_Vel_37
Time_Shift_5
Note_On_68_Vel_0
Time_Shift_399
Note_On_66_Vel_0
Time_Shift_7
Note_On_66_Vel_34
Time_Shift_210
Note_On_73_Vel_37
Time_Shift_214
Note_On_78_Vel_46
Time_Shift_46
Note_On_58_Vel_0
Time_Shift_11
Note_On_58_Vel_21
Time_Shift_155
Note_On_80_Vel_46
Time_Shift_201
Note_On_82_Vel_43
Time_Shift_212
Note_On_71_Vel_41
Time_Shift_232
Note_On_37_Vel_32
Time_Shift_87
Note_On_70_Vel_0
Time_Shift_4
Note_On_70_Vel_44
Time_Shift_157
Note_On_70_Vel_0
Time_Shift_6
Note_On_70_Vel_25
Time_Shift_102
Note_On_73_Vel_0
Time_Shift_11
Note_On_73_Vel_43
Time_Shift_189
Note_On_58_Vel_0
Note_On_61_Vel_0
Note_On_78_Vel_0
Time_Shift_4
Note_On_78_Vel_46
Time_Shift_1
Note_On_58_Vel_32
Time_Shift_5
Note_On_61_Vel_15
Time_Shift_159
Note_On_80_Vel_0
Time_Shift_5
Note_On_80_Vel_44
Time_Shift_164
Note_On_82_Vel_0
Time_Shift_10
Note_On_82_Vel_49
Time_Shift_20
Note_On_61_Vel_0
Note_On_66_Vel_0
Time_Shift_8
Note_On_58_Vel_0
Time_Shift_2
Note_On_54_Vel_26
Note_On_61_Vel_34
Time_Shift_2
Note_On_66_Vel_31
Time_Shift_1
Note_On_58_Vel_25
Time_Shift_3
Note_On_54_Vel_0
Time_Shift_152
Note_On_85_Vel_44
Time_Shift_170
Note_On_66_Vel_0
Time_Shift_11
Note_On_66_Vel_28
Time_Shift_12
Note_On_61_Vel_0
Time_Shift_6
Note_On_90_Vel_44
Time_Shift_5
Note_On_61_Vel_34
Time_Shift_171
Note_On_92_Vel_47
Time_Shift_182
Note_On_94_Vel_59
Time_Shift_5
Note_On_58_Vel_0
Time_Shift_6
Note_On_58_Vel_41
Time_Shift_2
Note_On_61_Vel_0
Time_Shift_6
Note_On_61_Vel_19
Time_Shift_178
Note_On_90_Vel_0
Time_Shift_5
Note_On_90_Vel_46
Time_Shift_181
Note_On_87_Vel_55
Time_Shift_175
Note_On_85_Vel_0
Time_Shift_9
Note_On_85_Vel_58
Time_Shift_198
Note_On_37_Vel_0
Time_Shift_6
Note_On_37_Vel_31
Time_Shift_44
Note_On_89_Vel_49
Time_Shift_28
Note_On_78_Vel_0
Time_Shift_1
Note_On_58_Vel_0
Note_On_73_Vel_0
Time_Shift_1
Note_On_71_Vel_0
Time_Shift_2
Note_On_70_Vel_0
Time_Shift_233
Note_On_87_Vel_0
Time_Shift_11
Note_On_87_Vel_52
Time_Shift_166
Note_On_82_Vel_0
Time_Shift_4
Note_On_82_Vel_47
Time_Shift_21
Note_On_56_Vel_41
Time_Shift_156
Note_On_84_Vel_49
Time_Shift_180
Note_On_66_Vel_0
Note_On_87_Vel_0
Time_Shift_4
Note_On_87_Vel_56
Time_Shift_5
Note_On_66_Vel_42
Note_On_60_Vel_34
Time_Shift_175
Note_On_85_Vel_0
Time_Shift_4
Note_On_85_Vel_58
Time_Shift_180
Note_On_66_Vel_0
Note_On_80_Vel_0
Time_Shift_6
Note_On_80_Vel_50
Time_Shift_2
Note_On_60_Vel_0
Time_Shift_4
Note_On_66_Vel_34
Note_On_60_Vel_33
Time_Shift_173
Note_On_82_Vel_0
Time_Shift_11
Note_On_82_Vel_47
Time_Shift_135
Note_On_61_Vel_0
Note_On_90_Vel_0
Note_On_92_Vel_0
Note_On_94_Vel_0
Time_Shift_38
Note_On_85_Vel_0
Time_Shift_11
Note_On_85_Vel_51
Time_Shift_12
Note_On_56_Vel_0
Time_Shift_6
Note_On_56_Vel_34
Time_Shift_186
Note_On_84_Vel_0
Time_Shift_4
Note_On_84_Vel_36
Time_Shift_170
Note_On_78_Vel_50
Time_Shift_187
Note_On_80_Vel_0
Time_Shift_4
Note_On_80_Vel_47
Time_Shift_188
Note_On_84_Vel_0
Time_Shift_10
Note_On_84_Vel_44
Time_Shift_13
Note_On_37_Vel_0
Time_Shift_6
Note_On_37_Vel_23
Time_Shift_178
Note_On_82_Vel_0
Time_Shift_11
Note_On_82_Vel_47
Time_Shift_188
Note_On_77_Vel_42
Time_Shift_24
Note_On_56_Vel_0
Time_Shift_4
Note_On_56_Vel_35
Time_Shift_157
Note_On_78_Vel_0
Time_Shift_11
Note_On_78_Vel_46
Time_Shift_189
Note_On_82_Vel_0
Time_Shift_8
Note_On_82_Vel_46
Time_Shift_15
Note_On_66_Vel_0
Time_Shift_11
Note_On_66_Vel_37
Time_Shift_12
Note_On_56_Vel_0
Note_On_60_Vel_0
Time_Shift_6
Note_On_56_Vel_24
Time_Shift_3
Note_On_60_Vel_28
Time_Shift_168
Note_On_80_Vel_0
Time_Shift_5
Note_On_80_Vel_48
Time_Shift_216
Note_On_75_Vel_48
Time_Shift_9
Note_On_66_Vel_0
Time_Shift_8
Note_On_60_Vel_0
Time_Shift_2
Note_On_66_Vel_33
Time_Shift_5
Note_On_56_Vel_0
Time_Shift_4
Note_On_60_Vel_28
Time_Shift_8
Note_On_56_Vel_26
Time_Shift_203
Note_On_77_Vel_0
Time_Shift_8
Note_On_77_Vel_40
Time_Shift_238
Note_On_80_Vel_0
Time_Shift_12
Note_On_80_Vel_46
Time_Shift_65
Note_On_56_Vel_0
Time_Shift_6
Note_On_56_Vel_38
Time_Shift_224
Note_On_78_Vel_0
Time_Shift_7
Note_On_78_Vel_42
Time_Shift_270
Note_On_89_Vel_0
Time_Shift_15
Note_On_73_Vel_35
Time_Shift_284
Note_On_75_Vel_0
Time_Shift_11
Note_On_75_Vel_40
Time_Shift_420
Note_On_37_Vel_0
Note_On_82_Vel_0
Note_On_84_Vel_0
Note_On_85_Vel_0
Note_On_87_Vel_0
Time_Shift_92
Note_On_77_Vel_0
Time_Shift_9
Note_On_77_Vel_42
Time_Shift_21
Note_On_37_Vel_36
Time_Shift_49
Sustain_Off
Note_On_60_Vel_0
Note_On_73_Vel_0
Time_Shift_1
Note_On_75_Vel_0
Time_Shift_1
Note_On_56_Vel_0
Note_On_66_Vel_0
Time_Shift_1
Note_On_78_Vel_0
Time_Shift_25
Note_On_80_Vel_0
Time_Shift_85
Sustain_On
Time_Shift_479
Note_On_56_Vel_34
Time_Shift_400
Note_On_65_Vel_31
Time_Shift_7
Note_On_61_Vel_28
Time_Shift_427
Note_On_65_Vel_0
Time_Shift_6
Note_On_65_Vel_25
Time_Shift_2
Note_On_61_Vel_0
Time_Shift_4
Note_On_61_Vel_30
Time_Shift_62
Note_On_75_Vel_63
Time_Shift_425
Note_On_80_Vel_63
Time_Shift_39
Note_On_56_Vel_0
Time_Shift_8
Note_On_56_Vel_32
Time_Shift_329
Note_On_77_Vel_0
Time_Shift_8
Note_On_77_Vel_65
Time_Shift_353
Note_On_37_Vel_0
Time_Shift_11
Note_On_37_Vel_30
Time_Shift_20
Note_On_75_Vel_0
Time_Shift_10
Note_On_75_Vel_59
Time_Shift_405
Note_On_56_Vel_0
Note_On_77_Vel_0
Time_Shift_7
Note_On_77_Vel_54
Time_Shift_2
Note_On_56_Vel_46
Time_Shift_370
Note_On_73_Vel_58
Time_Shift_28
Note_On_61_Vel_0
Time_Shift_8
Note_On_65_Vel_0
Time_Shift_2
Note_On_61_Vel_29
Time_Shift_3
Note_On_65_Vel_32
Time_Shift_384
Note_On_70_Vel_45
Time_Shift_2
Note_On_65_Vel_0
Time_Shift_12
Note_On_65_Vel_33
Time_Shift_4
Note_On_61_Vel_0
Time_Shift_6
Note_On_61_Vel_27
Time_Shift_408
Note_On_73_Vel_0
Time_Shift_5
Note_On_73_Vel_40
Time_Shift_26
Note_On_56_Vel_0
Time_Shift_11
Note_On_56_Vel_38
Time_Shift_411
Note_On_68_Vel_44
Time_Shift_25
Note_On_58_Vel_18
Time_Shift_6
Note_On_58_Vel_0
Time_Shift_423
Note_On_37_Vel_0
Time_Shift_10
Note_On_37_Vel_35
Time_Shift_151
Note_On_70_Vel_0
Time_Shift_10
Note_On_70_Vel_49
Time_Shift_481
Note_On_73_Vel_0
Time_Shift_6
Note_On_73_Vel_46
Time_Shift_17
Note_On_56_Vel_0
Time_Shift_5
Note_On_56_Vel_37
Time_Shift_356
Note_On_68_Vel_0
Time_Shift_4
Note_On_68_Vel_50
Time_Shift_12
Note_On_61_Vel_0
Time_Shift_7
Note_On_65_Vel_0
Time_Shift_4
Note_On_61_Vel_37
Time_Shift_8
Note_On_65_Vel_36
Time_Shift_211
Note_On_80_Vel_0
Time_Shift_223
Note_On_65_Vel_0
Note_On_66_Vel_46
Time_Shift_11
Note_On_65_Vel_37
Time_Shift_20
Note_On_61_Vel_0
Time_Shift_4
Note_On_61_Vel_31
Time_Shift_418
Note_On_73_Vel_0
Time_Shift_10
Note_On_73_Vel_41
Time_Shift_51
Note_On_56_Vel_0
Time_Shift_12
Note_On_56_Vel_21
Time_Shift_27
Note_On_75_Vel_0
Time_Shift_200
Note_On_37_Vel_0
Note_On_77_Vel_0
Time_Shift_238
Note_On_65_Vel_0
Time_Shift_3
Note_On_65_Vel_31
Time_Shift_722
Note_On_37_Vel_30
Time_Shift_10
Note_On_66_Vel_0
Note_On_70_Vel_0
Sustain_Off
Time_Shift_3
Note_On_73_Vel_0
Time_Shift_22
Note_On_56_Vel_0
Time_Shift_130
Sustain_On
Time_Shift_169
Note_On_37_Vel_0
Time_Shift_339
Note_On_56_Vel_39
Time_Shift_460
Note_On_61_Vel_0
Note_On_65_Vel_0
Time_Shift_8
Note_On_65_Vel_33
Time_Shift_1
Note_On_61_Vel_24
Time_Shift_575
Note_On_61_Vel_0
Time_Shift_9
Note_On_61_Vel_31
Time_Shift_98
Note_On_65_Vel_0
Time_Shift_8
Note_On_65_Vel_55
Time_Shift_599
Note_On_68_Vel_0
Time_Shift_35
Note_On_68_Vel_45
Time_Shift_134
Note_On_56_Vel_0
Time_Shift_4
Note_On_56_Vel_32
Time_Shift_645
Note_On_63_Vel_43
Time_Shift_2
Note_On_44_Vel_24
Time_Shift_10
Note_On_44_Vel_0
Time_Shift_601
Note_On_37_Vel_34
Time_Shift_174
Note_On_63_Vel_0
Time_Shift_11
Note_On_63_Vel_44
Time_Shift_534
Note_On_56_Vel_0
Time_Shift_9
Note_On_56_Vel_47
Time_Shift_429
Note_On_61_Vel_0
Note_On_65_Vel_0
Time_Shift_6
Note_On_61_Vel_24
Time_Shift_4
Note_On_65_Vel_31
Time_Shift_497
Note_On_65_Vel_0
Time_Shift_12
Note_On_65_Vel_29
Time_Shift_19
Note_On_61_Vel_0
Time_Shift_6
Note_On_61_Vel_15
Time_Shift_516
Note_On_56_Vel_0
Time_Shift_5
Note_On_56_Vel_28
Time_Shift_633
Note_On_37_Vel_0
Note_On_63_Vel_0
Note_On_68_Vel_0
Time_Shift_858
Note_On_37_Vel_30
Time_Shift_424
Note_On_56_Vel_0
Time_Shift_11
Note_On_56_Vel_31
Time_Shift_481
Note_On_65_Vel_0
Time_Shift_7
Note_On_61_Vel_0
Time_Shift_2
Note_On_65_Vel_32
Time_Shift_3
Note_On_61_Vel_20
Time_Shift_633
Note_On_65_Vel_0
Time_Shift_6
Note_On_65_Vel_32
Time_Shift_24
Note_On_61_Vel_0
Time_Shift_11
Note_On_61_Vel_10
Time_Shift_780
Note_On_56_Vel_0
Time_Shift_9
Note_On_56_Vel_30
Time_Shift_591
Note_On_37_Vel_0
Time_Shift_1866
Sustain_Off
Time_Shift_699
Note_On_60_Vel_26
Time_Shift_1
Note_On_63_Vel_33
Time_Shift_25
Note_On_44_Vel_21
Time_Shift_1
Note_On_54_Vel_25
Time_Shift_126
Note_On_61_Vel_0
Time_Shift_131
Note_On_65_Vel_0
Time_Shift_115
Sustain_On
Time_Shift_876
Note_On_56_Vel_0
Time_Shift_2375
Note_On_61_Vel_23
Time_Shift_5
Note_On_53_Vel_13
Time_Shift_21
Note_On_56_Vel_18
Time_Shift_12
Note_On_37_Vel_24
Time_Shift_351
Sustain_Off
Time_Shift_23
Note_On_63_Vel_0
Time_Shift_154
Note_On_60_Vel_0
Time_Shift_415
Note_On_44_Vel_0
Time_Shift_7
Note_On_54_Vel_0
Time_Shift_400
Note_On_53_Vel_0
Time_Shift_130
Sustain_On
Time_Shift_3088
Note_On_61_Vel_0
Time_Shift_30
Note_On_56_Vel_0
Time_Shift_8
Note_On_37_Vel_0
Time_Shift_975
Sustain_Off
