Ticks_Per_Beat_384
Tempo_500000
Time_Shift_145
Sustain_On
Time_Shift_5615
Sustain_Off
Time_Shift_1082
Sustain_On
Time_Shift_845
Sustain_Off
Time_Shift_369
Sustain_On
Time_Shift_107
Sustain_Off
Time_Shift_243
Note_On_42_Vel_58
Time_Shift_11
Sustain_On
Time_Shift_312
Sustain_Off
Time_Shift_10
Sustain_On
Time_Shift_13
Note_On_73_Vel_81
Time_Shift_13
Note_On_57_Vel_57
Time_Shift_331
Note_On_49_Vel_59
Time_Shift_157
Note_On_74_Vel_81
Time_Shift_181
Note_On_42_Vel_0
Note_On_49_Vel_0
Time_Shift_1
Note_On_73_Vel_0
Note_On_57_Vel_0
Time_Shift_1
Sustain_Off
Time_Shift_6
Note_On_66_Vel_72
Time_Shift_13
Note_On_44_Vel_59
Time_Shift_4
Note_On_61_Vel_55
Time_Shift_64
Sustain_On
Time_Shift_215
Note_On_74_Vel_0
Time_Shift_24
Note_On_59_Vel_66
Time_Shift_350
Note_On_65_Vel_70
Time_Shift_10
Note_On_61_Vel_0
Time_Shift_5
Note_On_49_Vel_57
Time_Shift_2
Note_On_61_Vel_54
Time_Shift_36
Sustain_Off
Time_Shift_5
Note_On_66_Vel_0
Note_On_44_Vel_0
Time_Shift_1
Note_On_59_Vel_0
Time_Shift_97
Sustain_On
Time_Shift_232
Note_On_45_Vel_64
Time_Shift_13
Note_On_61_Vel_0
Time_Shift_164
Note_On_66_Vel_79
Time_Shift_162
Note_On_69_Vel_81
Time_Shift_18
Note_On_61_Vel_66
Time_Shift_134
Note_On_73_Vel_88
Time_Shift_189
Sustain_Off
Time_Shift_2
Note_On_49_Vel_0
Time_Shift_2
Note_On_61_Vel_0
Time_Shift_1
Note_On_65_Vel_0
Time_Shift_1
Note_On_45_Vel_0
Time_Shift_1
Note_On_66_Vel_0
Time_Shift_11
Note_On_81_Vel_93
Time_Shift_45
Sustain_On
Time_Shift_253
Note_On_81_Vel_0
Time_Shift_7
Note_On_81_Vel_82
Time_Shift_131
Sustain_Off
Time_Shift_16
Note_On_81_Vel_0
Time_Shift_6
Note_On_81_Vel_90
Time_Shift_2
Note_On_73_Vel_0
Time_Shift_26
Note_On_74_Vel_67
Time_Shift_1
Note_On_47_Vel_63
Time_Shift_34
Sustain_On
Time_Shift_273
Note_On_62_Vel_68
Time_Shift_376
Note_On_80_Vel_81
Time_Shift_22
Note_On_56_Vel_57
Time_Shift_13
Note_On_69_Vel_0
Time_Shift_242
Note_On_47_Vel_0
Sustain_Off
Time_Shift_2
Note_On_62_Vel_0
Note_On_56_Vel_0
Time_Shift_48
Sustain_On
Time_Shift_11
Note_On_47_Vel_59
Time_Shift_306
Note_On_79_Vel_88
Time_Shift_13
Note_On_74_Vel_0
Time_Shift_3
Note_On_80_Vel_0
Time_Shift_1
Note_On_62_Vel_65
Note_On_74_Vel_74
Time_Shift_295
Note_On_81_Vel_0
Time_Shift_41
Note_On_55_Vel_60
Time_Shift_105
Note_On_79_Vel_0
Time_Shift_8
Note_On_79_Vel_86
Time_Shift_207
Note_On_79_Vel_0
Time_Shift_4
Sustain_Off
Note_On_79_Vel_83
Time_Shift_8
Note_On_62_Vel_0
Note_On_73_Vel_75
Time_Shift_1
Note_On_47_Vel_0
Time_Shift_4
Note_On_55_Vel_0
Time_Shift_2
Note_On_49_Vel_61
Time_Shift_1
Note_On_74_Vel_0
Time_Shift_111
Sustain_On
Time_Shift_214
Note_On_61_Vel_67
Time_Shift_367
Note_On_78_Vel_85
Time_Shift_24
Note_On_57_Vel_53
Time_Shift_290
Sustain_Off
Time_Shift_12
Note_On_61_Vel_0
Note_On_57_Vel_0
Note_On_49_Vel_0
Note_On_79_Vel_0
Time_Shift_49
Note_On_37_Vel_55
Time_Shift_4
Sustain_On
Time_Shift_376
Note_On_73_Vel_0
Time_Shift_11
Note_On_73_Vel_85
Time_Shift_26
Note_On_65_Vel_51
Time_Shift_5
Note_On_59_Vel_52
Time_Shift_371
Note_On_49_Vel_52
Time_Shift_167
Note_On_68_Vel_70
Time_Shift_189
Note_On_71_Vel_80
Time_Shift_23
Sustain_Off
Note_On_66_Vel_57
Time_Shift_3
Note_On_42_Vel_57
Time_Shift_3
Note_On_59_Vel_0
Time_Shift_1
Note_On_49_Vel_0
Time_Shift_1
Note_On_37_Vel_0
Note_On_65_Vel_0
Time_Shift_1
Note_On_73_Vel_0
Note_On_68_Vel_0
Note_On_78_Vel_0
Time_Shift_98
Sustain_On
Time_Shift_243
Note_On_57_Vel_54
Time_Shift_367
Note_On_69_Vel_70
Time_Shift_45
Note_On_57_Vel_0
Note_On_49_Vel_43
Time_Shift_3
Note_On_71_Vel_0
Time_Shift_2
Sustain_Off
Time_Shift_77
Sustain_On
Time_Shift_330
Note_On_42_Vel_0
Time_Shift_6
Note_On_42_Vel_59
Time_Shift_212
Note_On_72_Vel_72
Time_Shift_192
Note_On_74_Vel_81
Time_Shift_10
Note_On_57_Vel_56
Time_Shift_145
Note_On_73_Vel_81
Time_Shift_149
Note_On_49_Vel_0
Note_On_69_Vel_0
Time_Shift_5
Note_On_69_Vel_76
Time_Shift_5
Note_On_49_Vel_52
Time_Shift_75
Note_On_66_Vel_0
Time_Shift_68
Note_On_66_Vel_81
Time_Shift_231
Note_On_66_Vel_0
Time_Shift_11
Note_On_66_Vel_74
Time_Shift_12
Note_On_42_Vel_0
Time_Shift_1
Note_On_49_Vel_0
Note_On_57_Vel_0
Note_On_72_Vel_0
Time_Shift_1
Note_On_69_Vel_0
Time_Shift_1
Note_On_74_Vel_0
Note_On_73_Vel_0
Time_Shift_2
Sustain_Off
Time_Shift_3
Note_On_44_Vel_55
Time_Shift_100
Sustain_On
Time_Shift_304
Note_On_59_Vel_59
Time_Shift_147
Note_On_65_Vel_72
Time_Shift_177
Note_On_49_Vel_63
Note_On_64_Vel_77
Time_Shift_8
Sustain_Off
Time_Shift_1
Note_On_65_Vel_0
Note_On_59_Vel_0
Time_Shift_4
Note_On_44_Vel_0
Time_Shift_12
Note_On_66_Vel_0
Time_Shift_31
Sustain_On
Time_Shift_81
Note_On_65_Vel_73
Time_Shift_126
Note_On_49_Vel_0
Time_Shift_3
Sustain_Off
Time_Shift_4
Note_On_64_Vel_0
Time_Shift_3
Note_On_65_Vel_0
Time_Shift_29
Note_On_45_Vel_70
Time_Shift_1
Note_On_68_Vel_80
Time_Shift_60
Sustain_On
Time_Shift_23
Note_On_45_Vel_0
Time_Shift_64
Note_On_66_Vel_80
Time_Shift_158
Note_On_69_Vel_78
Time_Shift_19
Note_On_61_Vel_71
Time_Shift_129
Note_On_73_Vel_85
Time_Shift_167
Sustain_Off
Time_Shift_10
Note_On_81_Vel_91
Time_Shift_1
Note_On_61_Vel_0
Time_Shift_1
Note_On_66_Vel_0
Note_On_68_Vel_0
Time_Shift_1
Note_On_69_Vel_0
Time_Shift_57
Sustain_On
Time_Shift_215
Note_On_81_Vel_0
Time_Shift_4
Note_On_81_Vel_84
Time_Shift_157
Note_On_81_Vel_0
Time_Shift_5
Note_On_81_Vel_78
Time_Shift_6
Note_On_74_Vel_73
Time_Shift_1
Sustain_Off
Note_On_47_Vel_58
Time_Shift_1
Note_On_69_Vel_61
Time_Shift_2
Note_On_73_Vel_0
Time_Shift_62
Sustain_On
Time_Shift_250
Note_On_62_Vel_66
Time_Shift_296
Note_On_80_Vel_88
Time_Shift_18
Note_On_68_Vel_69
Time_Shift_2
Note_On_56_Vel_66
Time_Shift_63
Note_On_69_Vel_0
Time_Shift_212
Note_On_83_Vel_86
Time_Shift_6
Note_On_62_Vel_0
Time_Shift_1
Note_On_71_Vel_79
Note_On_80_Vel_0
Note_On_56_Vel_0
Time_Shift_1
Note_On_81_Vel_0
Time_Shift_5
Sustain_Off
Time_Shift_4
Note_On_76_Vel_71
Time_Shift_2
Note_On_74_Vel_0
Time_Shift_4
Note_On_49_Vel_63
Time_Shift_11
Note_On_47_Vel_0
Time_Shift_16
Note_On_68_Vel_0
Time_Shift_38
Note_On_49_Vel_0
Sustain_On
Time_Shift_207
Note_On_76_Vel_0
Time_Shift_4
Note_On_64_Vel_74
Time_Shift_1
Note_On_76_Vel_63
Time_Shift_260
Note_On_82_Vel_93
Time_Shift_1
Note_On_70_Vel_82
Time_Shift_15
Note_On_55_Vel_72
Time_Shift_272
Note_On_82_Vel_0
Time_Shift_4
Note_On_73_Vel_88
Note_On_85_Vel_90
Time_Shift_2
Note_On_82_Vel_80
Time_Shift_1
Note_On_78_Vel_88
Time_Shift_13
Note_On_71_Vel_0
Time_Shift_1
Note_On_50_Vel_73
Time_Shift_3
Note_On_64_Vel_0
Time_Shift_3
Note_On_55_Vel_0
Time_Shift_4
Note_On_70_Vel_0
Time_Shift_1
Note_On_76_Vel_0
Note_On_83_Vel_0
Time_Shift_9
Sustain_Off
Time_Shift_67
Sustain_On
Time_Shift_38
Note_On_50_Vel_0
Time_Shift_163
Note_On_66_Vel_78
Time_Shift_259
Note_On_83_Vel_98
Note_On_71_Vel_96
Time_Shift_4
Note_On_59_Vel_81
Time_Shift_319
Note_On_78_Vel_0
Note_On_85_Vel_0
Time_Shift_4
Note_On_90_Vel_98
Time_Shift_2
Note_On_85_Vel_87
Note_On_78_Vel_92
Time_Shift_8
Note_On_58_Vel_78
Time_Shift_3
Note_On_46_Vel_76
Time_Shift_6
Note_On_58_Vel_0
Time_Shift_5
Note_On_73_Vel_0
Time_Shift_2
Note_On_59_Vel_0
Time_Shift_1
Note_On_66_Vel_0
Time_Shift_3
Note_On_71_Vel_0
Time_Shift_1
Note_On_83_Vel_0
Time_Shift_22
Sustain_Off
Time_Shift_51
Sustain_On
Time_Shift_7
Note_On_46_Vel_0
Time_Shift_8
Note_On_82_Vel_0
Time_Shift_202
Note_On_73_Vel_68
Time_Shift_1
Note_On_61_Vel_76
Time_Shift_315
Note_On_88_Vel_92
Time_Shift_1
Note_On_76_Vel_77
Time_Shift_6
Note_On_54_Vel_71
Time_Shift_343
Note_On_85_Vel_0
Time_Shift_3
Note_On_47_Vel_58
Time_Shift_5
Note_On_73_Vel_0
Note_On_78_Vel_0
Time_Shift_3
Note_On_85_Vel_83
Sustain_Off
Time_Shift_1
Note_On_61_Vel_0
Time_Shift_1
Note_On_88_Vel_0
Note_On_54_Vel_0
Note_On_76_Vel_0
Time_Shift_1
Note_On_73_Vel_78
Time_Shift_1
Note_On_90_Vel_0
Time_Shift_1
Note_On_78_Vel_80
Time_Shift_9
Note_On_90_Vel_68
Time_Shift_6
Note_On_90_Vel_0
Time_Shift_46
Sustain_On
Time_Shift_298
Note_On_62_Vel_65
Time_Shift_3
Note_On_74_Vel_61
Time_Shift_398
Note_On_74_Vel_0
Time_Shift_3
Note_On_86_Vel_80
Time_Shift_5
Note_On_74_Vel_68
Time_Shift_24
Note_On_85_Vel_0
Time_Shift_3
Note_On_73_Vel_0
Time_Shift_8
Note_On_78_Vel_0
Time_Shift_4
Note_On_54_Vel_44
Time_Shift_3
Sustain_Off
Time_Shift_3
Note_On_47_Vel_0
Time_Shift_62
Sustain_On
Time_Shift_377
Note_On_47_Vel_56
Time_Shift_7
Note_On_62_Vel_0
Time_Shift_3
Note_On_54_Vel_0
Time_Shift_1
Sustain_Off
Time_Shift_11
Sustain_On
Time_Shift_174
Note_On_85_Vel_75
Time_Shift_178
Note_On_88_Vel_86
Time_Shift_9
Note_On_74_Vel_0
Time_Shift_8
Sustain_Off
Time_Shift_1
Note_On_74_Vel_56
Time_Shift_2
Note_On_62_Vel_63
Time_Shift_43
Sustain_On
Time_Shift_84
Note_On_86_Vel_0
Note_On_88_Vel_0
Time_Shift_4
Note_On_86_Vel_84
Time_Shift_6
Note_On_88_Vel_72
Time_Shift_36
Note_On_47_Vel_0
Time_Shift_106
Note_On_55_Vel_67
Time_Shift_5
Note_On_83_Vel_83
Time_Shift_135
Note_On_79_Vel_85
Time_Shift_170
Note_On_78_Vel_84
Time_Shift_3
Note_On_47_Vel_56
Time_Shift_10
Note_On_83_Vel_0
Note_On_62_Vel_0
Time_Shift_1
Note_On_74_Vel_0
Time_Shift_1
Note_On_85_Vel_0
Note_On_86_Vel_0
Note_On_88_Vel_0
Time_Shift_2
Note_On_79_Vel_0
Note_On_55_Vel_0
Time_Shift_13
Sustain_Off
Time_Shift_77
Sustain_On
Time_Shift_220
Note_On_62_Vel_61
Time_Shift_328
Note_On_77_Vel_77
Time_Shift_1
Note_On_89_Vel_68
Time_Shift_7
Note_On_56_Vel_65
Time_Shift_304
Note_On_47_Vel_0
Time_Shift_4
Note_On_47_Vel_61
Time_Shift_7
Note_On_62_Vel_0
Time_Shift_219
Note_On_89_Vel_0
Time_Shift_31
Note_On_78_Vel_0
Time_Shift_4
Note_On_78_Vel_89
Time_Shift_16
Note_On_74_Vel_65
Time_Shift_2
Note_On_62_Vel_64
Time_Shift_277
Note_On_56_Vel_0
Time_Shift_11
Note_On_56_Vel_70
Time_Shift_1
Note_On_80_Vel_88
Time_Shift_323
Note_On_62_Vel_0
Time_Shift_1
Note_On_81_Vel_88
Time_Shift_2
Note_On_56_Vel_0
Note_On_47_Vel_0
Time_Shift_3
Note_On_78_Vel_0
Time_Shift_8
Note_On_60_Vel_67
Note_On_69_Vel_76
Time_Shift_1
Note_On_75_Vel_78
Time_Shift_6
Note_On_48_Vel_62
Time_Shift_5
Note_On_74_Vel_0
Note_On_77_Vel_0
Time_Shift_4
Sustain_Off
Time_Shift_42
Sustain_On
Time_Shift_8
Note_On_80_Vel_0
Time_Shift_77
Note_On_60_Vel_0
Time_Shift_174
Note_On_63_Vel_62
Time_Shift_316
Note_On_57_Vel_54
Time_Shift_385
Note_On_48_Vel_0
Time_Shift_5
Sustain_Off
Time_Shift_2
Note_On_57_Vel_0
Note_On_63_Vel_0
Time_Shift_3
Note_On_75_Vel_0
Time_Shift_8
Note_On_51_Vel_77
Time_Shift_90
Sustain_On
Time_Shift_125
Note_On_77_Vel_75
Time_Shift_178
Note_On_80_Vel_75
Time_Shift_1
Note_On_60_Vel_59
Time_Shift_147
Note_On_78_Vel_79
Time_Shift_140
Note_On_81_Vel_0
Time_Shift_10
Note_On_81_Vel_81
Time_Shift_1
Note_On_57_Vel_61
Time_Shift_147
Note_On_72_Vel_78
Time_Shift_147
Sustain_Off
Time_Shift_3
Note_On_57_Vel_0
Time_Shift_1
Note_On_80_Vel_0
Note_On_78_Vel_0
Note_On_60_Vel_0
Time_Shift_1
Note_On_51_Vel_0
Time_Shift_2
Note_On_49_Vel_69
Time_Shift_2
Note_On_74_Vel_82
Time_Shift_9
Note_On_77_Vel_0
Time_Shift_23
Note_On_72_Vel_0
Time_Shift_46
Sustain_On
Time_Shift_65
Note_On_73_Vel_83
Time_Shift_138
Note_On_78_Vel_84
Time_Shift_26
Note_On_61_Vel_59
Time_Shift_6
Note_On_57_Vel_59
Time_Shift_112
Note_On_68_Vel_80
Time_Shift_144
Note_On_71_Vel_79
Time_Shift_131
Note_On_69_Vel_0
Time_Shift_11
Note_On_69_Vel_80
Time_Shift_173
Note_On_49_Vel_0
Note_On_61_Vel_0
Time_Shift_1
Note_On_71_Vel_0
Note_On_68_Vel_0
Time_Shift_1
Note_On_73_Vel_0
Note_On_78_Vel_0
Note_On_69_Vel_0
Time_Shift_1
Note_On_74_Vel_0
Note_On_57_Vel_0
Time_Shift_1
Note_On_72_Vel_82
Sustain_Off
Time_Shift_1
Note_On_37_Vel_60
Time_Shift_26
Note_On_81_Vel_0
Time_Shift_54
Sustain_On
Time_Shift_105
Note_On_73_Vel_80
Time_Shift_221
Note_On_74_Vel_77
Time_Shift_15
Note_On_59_Vel_59
Time_Shift_2
Note_On_53_Vel_51
Time_Shift_5
Note_On_49_Vel_44
Time_Shift_27
Sustain_Off
Time_Shift_9
Sustain_On
Time_Shift_2
Note_On_72_Vel_0
Time_Shift_2
Note_On_73_Vel_0
Time_Shift_126
Note_On_37_Vel_0
Time_Shift_38
Note_On_73_Vel_75
Time_Shift_284
Note_On_68_Vel_67
Time_Shift_370
Note_On_73_Vel_0
Time_Shift_11
Note_On_73_Vel_64
Time_Shift_1
Note_On_61_Vel_65
Time_Shift_18
Note_On_53_Vel_0
Time_Shift_761
Note_On_73_Vel_0
Time_Shift_6
Note_On_73_Vel_82
Time_Shift_24
Sustain_Off
Note_On_49_Vel_0
Time_Shift_6
Note_On_74_Vel_0
Time_Shift_1
Note_On_68_Vel_0
Note_On_59_Vel_0
Time_Shift_3
Note_On_61_Vel_0
Time_Shift_10
Note_On_42_Vel_54
Time_Shift_88
Sustain_On
Time_Shift_240
Note_On_49_Vel_43
Time_Shift_203
Note_On_54_Vel_49
Time_Shift_170
Note_On_58_Vel_58
Time_Shift_147
Note_On_54_Vel_0
Time_Shift_12
Note_On_54_Vel_56
Time_Shift_173
Note_On_49_Vel_0
Time_Shift_4
Note_On_49_Vel_51
Time_Shift_149
Note_On_73_Vel_0
Time_Shift_10
Note_On_73_Vel_89
Time_Shift_21
Note_On_42_Vel_0
Time_Shift_6
Note_On_42_Vel_58
Time_Shift_117
Note_On_49_Vel_0
Time_Shift_9
Note_On_49_Vel_47
Time_Shift_167
Note_On_54_Vel_0
Time_Shift_11
Note_On_54_Vel_59
Time_Shift_128
Note_On_58_Vel_0
Time_Shift_7
Note_On_58_Vel_62
Time_Shift_154
Note_On_54_Vel_0
Time_Shift_4
Note_On_54_Vel_61
Time_Shift_134
Note_On_49_Vel_0
Time_Shift_5
Note_On_49_Vel_59
Time_Shift_193
Note_On_78_Vel_94
Time_Shift_12
Sustain_Off
Time_Shift_5
Note_On_42_Vel_0
Time_Shift_1
Note_On_54_Vel_0
Time_Shift_1
Note_On_49_Vel_0
Time_Shift_1
Note_On_58_Vel_0
Time_Shift_1
Note_On_73_Vel_0
Time_Shift_6
Note_On_42_Vel_64
Time_Shift_59
Sustain_On
Time_Shift_111
Note_On_51_Vel_58
Time_Shift_179
Note_On_54_Vel_57
Time_Shift_154
Note_On_59_Vel_56
Time_Shift_146
Note_On_75_Vel_80
Time_Shift_2
Note_On_54_Vel_0
Time_Shift_9
Note_On_54_Vel_56
Time_Shift_10
Sustain_Off
Time_Shift_42
Sustain_On
Time_Shift_85
Note_On_51_Vel_0
Time_Shift_9
Note_On_51_Vel_58
Time_Shift_197
Sustain_Off
Time_Shift_1
Note_On_42_Vel_0
Time_Shift_3
Note_On_73_Vel_81
Time_Shift_1
Note_On_42_Vel_64
Time_Shift_6
Note_On_59_Vel_0
Time_Shift_1
Note_On_51_Vel_0
Note_On_54_Vel_0
Time_Shift_2
Note_On_78_Vel_0
Time_Shift_3
Note_On_75_Vel_0
Time_Shift_107
Sustain_On
Time_Shift_49
Note_On_49_Vel_59
Time_Shift_153
Note_On_54_Vel_66
Time_Shift_153
Note_On_58_Vel_64
Time_Shift_136
Note_On_54_Vel_0
Time_Shift_10
Note_On_54_Vel_60
Time_Shift_144
Note_On_49_Vel_0
Time_Shift_10
Note_On_49_Vel_55
Time_Shift_127
Note_On_72_Vel_85
Time_Shift_17
Note_On_42_Vel_0
Time_Shift_4
Note_On_42_Vel_63
Time_Shift_11
Sustain_Off
Time_Shift_8
Note_On_54_Vel_0
Time_Shift_1
Note_On_58_Vel_0
Time_Shift_1
Note_On_49_Vel_0
Note_On_73_Vel_0
Time_Shift_147
Note_On_51_Vel_57
Time_Shift_35
Sustain_On
Time_Shift_118
Note_On_54_Vel_59
Time_Shift_153
Note_On_57_Vel_61
Time_Shift_144
Note_On_54_Vel_0
Time_Shift_9
Note_On_54_Vel_58
Time_Shift_137
Note_On_51_Vel_0
Time_Shift_8
Note_On_51_Vel_60
Time_Shift_137
Note_On_71_Vel_84
Time_Shift_24
Note_On_42_Vel_0
Time_Shift_4
Note_On_42_Vel_64
Time_Shift_10
Sustain_Off
Time_Shift_4
Note_On_54_Vel_0
Time_Shift_1
Note_On_72_Vel_0
Note_On_57_Vel_0
Time_Shift_11
Note_On_51_Vel_0
Time_Shift_105
Note_On_50_Vel_57
Time_Shift_33
Sustain_On
Time_Shift_121
Note_On_53_Vel_51
Time_Shift_142
Note_On_56_Vel_64
Time_Shift_121
Note_On_53_Vel_0
Time_Shift_7
Note_On_53_Vel_52
Time_Shift_155
Note_On_50_Vel_0
Time_Shift_8
Note_On_50_Vel_54
Time_Shift_143
Sustain_Off
Time_Shift_2
Note_On_42_Vel_0
Time_Shift_5
Note_On_70_Vel_81
Time_Shift_1
Note_On_42_Vel_65
Time_Shift_4
Note_On_50_Vel_0
Time_Shift_1
Note_On_53_Vel_0
Time_Shift_1
Note_On_56_Vel_0
Time_Shift_119
Sustain_On
Time_Shift_43
Note_On_49_Vel_55
Time_Shift_3
Note_On_71_Vel_0
Time_Shift_153
Note_On_54_Vel_53
Time_Shift_143
Note_On_58_Vel_59
Time_Shift_165
Note_On_54_Vel_0
Time_Shift_5
Note_On_54_Vel_54
Time_Shift_133
Note_On_49_Vel_0
Time_Shift_6
Note_On_49_Vel_54
Time_Shift_151
Note_On_66_Vel_75
Time_Shift_8
Note_On_46_Vel_59
Time_Shift_4
Sustain_Off
Time_Shift_7
Note_On_54_Vel_0
Note_On_49_Vel_0
Time_Shift_1
Note_On_58_Vel_0
Time_Shift_1
Note_On_42_Vel_0
Time_Shift_2
Note_On_70_Vel_0
Time_Shift_104
Sustain_On
Time_Shift_18
Note_On_49_Vel_55
Time_Shift_169
Note_On_54_Vel_62
Time_Shift_136
Note_On_46_Vel_0
Time_Shift_16
Note_On_58_Vel_60
Time_Shift_122
Note_On_54_Vel_0
Time_Shift_6
Note_On_54_Vel_56
Time_Shift_140
Note_On_49_Vel_0
Time_Shift_5
Note_On_49_Vel_63
Time_Shift_178
Sustain_Off
Time_Shift_9
Note_On_54_Vel_0
Time_Shift_2
Note_On_49_Vel_0
Note_On_66_Vel_0
Note_On_58_Vel_0
Time_Shift_1
Note_On_68_Vel_81
Time_Shift_1
Note_On_37_Vel_62
Time_Shift_3
Note_On_56_Vel_67
Time_Shift_85
Sustain_On
Time_Shift_15
Note_On_37_Vel_0
Time_Shift_74
Note_On_53_Vel_56
Time_Shift_19
Note_On_56_Vel_0
Time_Shift_111
Note_On_56_Vel_63
Time_Shift_170
Note_On_61_Vel_60
Time_Shift_126
Note_On_56_Vel_0
Time_Shift_4
Note_On_56_Vel_65
Time_Shift_142
Note_On_53_Vel_0
Time_Shift_10
Note_On_53_Vel_55
Time_Shift_159
Note_On_68_Vel_0
Time_Shift_5
Sustain_Off
Time_Shift_2
Note_On_68_Vel_78
Time_Shift_15
Note_On_49_Vel_58
Time_Shift_70
Note_On_53_Vel_0
Time_Shift_30
Sustain_On
Time_Shift_60
Note_On_52_Vel_55
Time_Shift_132
Note_On_56_Vel_0
Time_Shift_5
Note_On_56_Vel_63
Time_Shift_18
Note_On_61_Vel_0
Time_Shift_126
Note_On_61_Vel_57
Time_Shift_139
Note_On_70_Vel_87
Time_Shift_4
Note_On_56_Vel_0
Time_Shift_11
Note_On_56_Vel_61
Time_Shift_151
Note_On_52_Vel_0
Time_Shift_5
Note_On_52_Vel_51
Time_Shift_187
Note_On_71_Vel_85
Time_Shift_14
Note_On_49_Vel_0
Time_Shift_1
Note_On_70_Vel_0
Sustain_Off
Note_On_56_Vel_0
Time_Shift_1
Note_On_61_Vel_0
Note_On_52_Vel_0
Time_Shift_2
Note_On_68_Vel_0
Time_Shift_6
Note_On_44_Vel_63
Time_Shift_83
Sustain_On
Time_Shift_66
Note_On_51_Vel_61
Time_Shift_152
Note_On_56_Vel_62
Time_Shift_128
Note_On_59_Vel_61
Time_Shift_133
Note_On_73_Vel_91
Time_Shift_28
Note_On_56_Vel_0
Time_Shift_6
Note_On_56_Vel_64
Time_Shift_109
Note_On_51_Vel_0
Time_Shift_11
Note_On_51_Vel_61
Time_Shift_163
Note_On_75_Vel_93
Time_Shift_4
Note_On_47_Vel_67
Time_Shift_2
Note_On_87_Vel_86
Time_Shift_2
Note_On_44_Vel_0
Time_Shift_2
Note_On_59_Vel_0
Note_On_87_Vel_0
Time_Shift_1
Sustain_Off
Time_Shift_3
Note_On_71_Vel_0
Time_Shift_2
Note_On_73_Vel_0
Time_Shift_10
Note_On_51_Vel_0
Time_Shift_15
Note_On_56_Vel_0
Time_Shift_46
Sustain_On
Time_Shift_80
Note_On_51_Vel_66
Time_Shift_134
Note_On_56_Vel_65
Time_Shift_301
Note_On_56_Vel_0
Note_On_77_Vel_89
Time_Shift_2
Note_On_89_Vel_86
Time_Shift_7
Note_On_56_Vel_67
Time_Shift_2
Note_On_87_Vel_76
Time_Shift_158
Note_On_51_Vel_0
Time_Shift_4
Note_On_51_Vel_55
Time_Shift_217
Note_On_78_Vel_89
Time_Shift_1
Note_On_90_Vel_82
Time_Shift_8
Note_On_90_Vel_0
Time_Shift_11
Note_On_46_Vel_63
Time_Shift_21
Note_On_47_Vel_0
Time_Shift_2
Note_On_87_Vel_0
Sustain_Off
Time_Shift_3
Note_On_56_Vel_0
Time_Shift_1
Note_On_75_Vel_0
Time_Shift_5
Note_On_77_Vel_0
Time_Shift_3
Note_On_89_Vel_0
Time_Shift_62
Sustain_On
Time_Shift_94
Note_On_54_Vel_52
Time_Shift_155
Note_On_70_Vel_86
Time_Shift_1
Note_On_58_Vel_66
Time_Shift_154
Note_On_63_Vel_67
Time_Shift_187
Note_On_58_Vel_0
Note_On_78_Vel_0
Time_Shift_4
Note_On_78_Vel_88
Time_Shift_1
Note_On_58_Vel_61
Time_Shift_110
Note_On_54_Vel_0
Time_Shift_10
Note_On_54_Vel_53
Time_Shift_205
Note_On_46_Vel_0
Time_Shift_8
Note_On_46_Vel_79
Time_Shift_5
Sustain_Off
Time_Shift_7
Note_On_54_Vel_0
Note_On_58_Vel_0
Note_On_63_Vel_0
Time_Shift_11
Note_On_51_Vel_0
Time_Shift_69
Sustain_On
Time_Shift_73
Note_On_56_Vel_68
Time_Shift_178
Note_On_77_Vel_79
Time_Shift_17
Note_On_58_Vel_60
Time_Shift_186
Note_On_62_Vel_58
Time_Shift_168
Note_On_78_Vel_0
Time_Shift_10
Note_On_78_Vel_83
Time_Shift_29
Note_On_46_Vel_0
Note_On_58_Vel_0
Time_Shift_10
Note_On_58_Vel_58
Time_Shift_1
Note_On_46_Vel_61
Time_Shift_165
Note_On_56_Vel_0
Time_Shift_7
Note_On_56_Vel_66
Time_Shift_249
Note_On_75_Vel_81
Time_Shift_5
Sustain_Off
Time_Shift_5
Note_On_62_Vel_0
Time_Shift_4
Note_On_58_Vel_0
Time_Shift_2
Note_On_46_Vel_0
Time_Shift_1
Note_On_56_Vel_0
Note_On_78_Vel_0
Time_Shift_2
Note_On_51_Vel_56
Time_Shift_25
Note_On_77_Vel_0
Time_Shift_100
Sustain_On
Time_Shift_73
Note_On_54_Vel_61
Time_Shift_19
Note_On_70_Vel_0
Time_Shift_161
Note_On_58_Vel_64
Time_Shift_182
Note_On_63_Vel_62
Time_Shift_171
Note_On_58_Vel_0
Time_Shift_11
Note_On_58_Vel_62
Time_Shift_212
Note_On_54_Vel_0
Time_Shift_7
Note_On_54_Vel_55
Time_Shift_226
Note_On_66_Vel_66
Time_Shift_129
Note_On_70_Vel_72
Time_Shift_131
Note_On_77_Vel_74
Time_Shift_183
Note_On_75_Vel_0
Time_Shift_10
Note_On_75_Vel_86
Note_On_87_Vel_79
Time_Shift_34
Note_On_53_Vel_52
Time_Shift_1
Note_On_87_Vel_0
Time_Shift_1
Note_On_54_Vel_0
Note_On_58_Vel_0
Note_On_70_Vel_0
Time_Shift_1
Note_On_51_Vel_0
Note_On_77_Vel_0
Note_On_63_Vel_0
Time_Shift_1
Note_On_66_Vel_0
Time_Shift_1
Sustain_Off
Time_Shift_89
Sustain_On
Time_Shift_135
Note_On_56_Vel_62
Time_Shift_243
Note_On_59_Vel_52
Time_Shift_254
Note_On_61_Vel_56
Time_Shift_283
Note_On_73_Vel_76
Time_Shift_22
Note_On_59_Vel_0
Time_Shift_5
Note_On_59_Vel_48
Time_Shift_333
Note_On_56_Vel_0
Time_Shift_10
Note_On_56_Vel_57
Time_Shift_635
Note_On_73_Vel_0
Time_Shift_6
Note_On_73_Vel_82
Time_Shift_23
Sustain_Off
Time_Shift_2
Note_On_61_Vel_0
Time_Shift_1
Note_On_56_Vel_0
Time_Shift_1
Note_On_59_Vel_0
Time_Shift_1
Note_On_53_Vel_0
Time_Shift_12
Note_On_75_Vel_0
Time_Shift_13
Note_On_42_Vel_53
Time_Shift_118
Sustain_On
Time_Shift_144
Note_On_49_Vel_54
Time_Shift_214
Note_On_54_Vel_44
Time_Shift_18
Note_On_42_Vel_0
Time_Shift_114
Note_On_58_Vel_60
Time_Shift_155
Note_On_54_Vel_0
Time_Shift_11
Note_On_54_Vel_57
Time_Shift_150
Note_On_49_Vel_0
Time_Shift_4
Note_On_49_Vel_55
Time_Shift_134
Note_On_73_Vel_0
Time_Shift_9
Note_On_73_Vel_84
Time_Shift_15
Sustain_Off
Time_Shift_9
Note_On_42_Vel_63
Time_Shift_67
Sustain_On
Time_Shift_39
Note_On_49_Vel_0
Time_Shift_9
Note_On_49_Vel_50
Time_Shift_167
Note_On_54_Vel_0
Time_Shift_5
Note_On_54_Vel_52
Time_Shift_126
Note_On_58_Vel_0
Time_Shift_5
Note_On_58_Vel_64
Time_Shift_156
Note_On_54_Vel_0
Time_Shift_7
Note_On_54_Vel_57
Time_Shift_108
Note_On_49_Vel_0
Time_Shift_11
Note_On_49_Vel_59
Time_Shift_184
Note_On_78_Vel_89
Time_Shift_13
Note_On_42_Vel_0
Time_Shift_1
Sustain_Off
Time_Shift_2
Note_On_54_Vel_0
Note_On_58_Vel_0
Time_Shift_2
Note_On_42_Vel_61
Note_On_73_Vel_0
Time_Shift_18
Note_On_49_Vel_0
Time_Shift_100
Sustain_On
Time_Shift_75
Note_On_51_Vel_54
Time_Shift_142
Note_On_54_Vel_55
Time_Shift_140
Note_On_59_Vel_61
Time_Shift_147
Note_On_75_Vel_81
Time_Shift_25
Note_On_54_Vel_0
Time_Shift_8
Note_On_54_Vel_48
Time_Shift_108
Note_On_51_Vel_0
Time_Shift_5
Note_On_51_Vel_58
Time_Shift_194
Note_On_42_Vel_0
Time_Shift_5
Note_On_73_Vel_81
Time_Shift_5
Note_On_42_Vel_64
Time_Shift_2
Sustain_Off
Time_Shift_2
Note_On_59_Vel_0
Note_On_54_Vel_0
Time_Shift_1
Note_On_51_Vel_0
Time_Shift_1
Note_On_78_Vel_0
Time_Shift_3
Note_On_75_Vel_0
Time_Shift_127
Sustain_On
Time_Shift_22
Note_On_49_Vel_54
Time_Shift_129
Note_On_54_Vel_58
Time_Shift_146
Note_On_58_Vel_64
Time_Shift_126
Note_On_54_Vel_0
Time_Shift_4
Note_On_54_Vel_54
Time_Shift_142
Note_On_49_Vel_0
Time_Shift_4
Note_On_49_Vel_58
Time_Shift_145
Note_On_72_Vel_85
Time_Shift_20
Note_On_42_Vel_0
Time_Shift_1
Sustain_Off
Time_Shift_3
Note_On_54_Vel_0
Time_Shift_1
Note_On_58_Vel_0
Time_Shift_1
Note_On_49_Vel_0
Time_Shift_4
Note_On_42_Vel_57
Time_Shift_28
Note_On_73_Vel_0
Time_Shift_100
Sustain_On
Time_Shift_19
Note_On_51_Vel_55
Time_Shift_138
Note_On_54_Vel_60
Time_Shift_141
Note_On_57_Vel_57
Time_Shift_140
Note_On_54_Vel_0
Time_Shift_11
Note_On_54_Vel_64
Time_Shift_111
Note_On_51_Vel_0
Time_Shift_9
Note_On_51_Vel_67
Time_Shift_155
Note_On_71_Vel_85
Time_Shift_21
Note_On_42_Vel_0
Time_Shift_6
Note_On_42_Vel_62
Time_Shift_1
Sustain_Off
Time_Shift_2
Note_On_54_Vel_0
Time_Shift_1
Note_On_51_Vel_0
Note_On_57_Vel_0
Time_Shift_1
Note_On_72_Vel_0
Time_Shift_127
Sustain_On
Time_Shift_5
Note_On_50_Vel_49
Time_Shift_140
Note_On_53_Vel_55
Time_Shift_147
Note_On_56_Vel_64
Time_Shift_123
Note_On_53_Vel_0
Time_Shift_4
Note_On_53_Vel_55
Time_Shift_142
Note_On_50_Vel_0
Time_Shift_6
Note_On_50_Vel_58
Time_Shift_155
Note_On_42_Vel_0
Time_Shift_3
Note_On_70_Vel_82
Time_Shift_1
Note_On_42_Vel_70
Time_Shift_9
Sustain_Off
Time_Shift_6
Note_On_56_Vel_0
Note_On_53_Vel_0
Time_Shift_1
Note_On_50_Vel_0
Note_On_71_Vel_0
Time_Shift_87
Sustain_On
Time_Shift_49
Note_On_49_Vel_58
Time_Shift_139
Note_On_54_Vel_56
Time_Shift_142
Note_On_58_Vel_63
Time_Shift_147
Note_On_54_Vel_0
Time_Shift_11
Note_On_54_Vel_60
Time_Shift_104
Note_On_49_Vel_0
Time_Shift_6
Note_On_49_Vel_64
Time_Shift_164
Sustain_Off
Time_Shift_1
Note_On_66_Vel_78
Time_Shift_2
Note_On_46_Vel_68
Time_Shift_15
Note_On_49_Vel_0
Time_Shift_11
Note_On_42_Vel_0
Note_On_54_Vel_0
Time_Shift_54
Sustain_On
Time_Shift_63
Note_On_49_Vel_65
Time_Shift_150
Note_On_54_Vel_63
Time_Shift_110
Note_On_46_Vel_0
Time_Shift_23
Note_On_58_Vel_0
Time_Shift_10
Note_On_58_Vel_66
Time_Shift_151
Note_On_54_Vel_0
Time_Shift_7
Note_On_54_Vel_66
Time_Shift_116
Note_On_49_Vel_0
Time_Shift_6
Note_On_49_Vel_57
Time_Shift_179
Note_On_68_Vel_80
Time_Shift_3
Note_On_80_Vel_70
Time_Shift_5
Note_On_47_Vel_63
Time_Shift_7
Note_On_80_Vel_0
Time_Shift_13
Sustain_Off
Time_Shift_8
Note_On_49_Vel_0
Note_On_66_Vel_0
Note_On_58_Vel_0
Time_Shift_1
Note_On_54_Vel_0
Time_Shift_16
Note_On_70_Vel_0
Time_Shift_77
Sustain_On
Time_Shift_37
Note_On_51_Vel_63
Time_Shift_148
Note_On_54_Vel_60
Time_Shift_146
Note_On_56_Vel_70
Time_Shift_160
Note_On_54_Vel_0
Time_Shift_5
Note_On_54_Vel_62
Time_Shift_134
Note_On_51_Vel_0
Time_Shift_11
Note_On_51_Vel_68
Time_Shift_132
Note_On_70_Vel_84
Time_Shift_6
Note_On_49_Vel_66
Time_Shift_20
Note_On_47_Vel_0
Time_Shift_12
Note_On_68_Vel_0
Sustain_Off
Note_On_54_Vel_0
Time_Shift_1
Note_On_56_Vel_0
Time_Shift_17
Note_On_51_Vel_0
Time_Shift_92
Sustain_On
Time_Shift_37
Note_On_52_Vel_63
Time_Shift_147
Note_On_54_Vel_63
Time_Shift_132
Note_On_58_Vel_69
Time_Shift_130
Note_On_70_Vel_0
Time_Shift_4
Note_On_70_Vel_87
Time_Shift_19
Note_On_54_Vel_0
Time_Shift_5
Note_On_54_Vel_58
Time_Shift_133
Note_On_52_Vel_0
Time_Shift_6
Note_On_52_Vel_59
Time_Shift_193
Note_On_71_Vel_90
Time_Shift_4
Note_On_83_Vel_77
Time_Shift_1
Note_On_51_Vel_70
Time_Shift_4
Note_On_83_Vel_0
Time_Shift_7
Note_On_49_Vel_0
Time_Shift_8
Note_On_58_Vel_0
Time_Shift_1
Note_On_70_Vel_0
Sustain_Off
Note_On_54_Vel_0
Time_Shift_1
Note_On_52_Vel_0
Time_Shift_98
Sustain_On
Time_Shift_43
Note_On_54_Vel_60
Time_Shift_57
Note_On_51_Vel_0
Time_Shift_81
Note_On_59_Vel_60
Time_Shift_140
Note_On_63_Vel_69
Time_Shift_147
Note_On_59_Vel_0
Time_Shift_8
Note_On_59_Vel_60
Time_Shift_146
Note_On_54_Vel_0
Time_Shift_9
Note_On_54_Vel_60
Time_Shift_117
Note_On_72_Vel_98
Time_Shift_7
Note_On_84_Vel_83
Time_Shift_5
Note_On_84_Vel_0
Time_Shift_10
Note_On_51_Vel_72
Time_Shift_4
Sustain_Off
Time_Shift_6
Note_On_54_Vel_0
Time_Shift_2
Note_On_63_Vel_0
Time_Shift_1
Note_On_59_Vel_0
Note_On_71_Vel_0
Time_Shift_100
Sustain_On
Time_Shift_38
Note_On_54_Vel_67
Time_Shift_164
Note_On_57_Vel_61
Time_Shift_129
Note_On_60_Vel_64
Time_Shift_114
Note_On_72_Vel_0
Time_Shift_10
Note_On_72_Vel_96
Time_Shift_29
Note_On_57_Vel_0
Time_Shift_4
Note_On_57_Vel_62
Time_Shift_126
Note_On_54_Vel_0
Time_Shift_8
Note_On_54_Vel_63
Time_Shift_172
Note_On_73_Vel_93
Time_Shift_21
Note_On_52_Vel_71
Time_Shift_13
Note_On_54_Vel_0
Note_On_57_Vel_0
Time_Shift_2
Sustain_Off
Time_Shift_1
Note_On_60_Vel_0
Time_Shift_2
Note_On_72_Vel_0
Time_Shift_4
Note_On_51_Vel_0
Time_Shift_100
Sustain_On
Time_Shift_18
Note_On_54_Vel_73
Time_Shift_13
Note_On_52_Vel_0
Time_Shift_133
Note_On_58_Vel_70
Time_Shift_141
Note_On_61_Vel_74
Time_Shift_125
Note_On_58_Vel_0
Time_Shift_8
Note_On_58_Vel_72
Time_Shift_130
Note_On_54_Vel_0
Time_Shift_11
Note_On_54_Vel_70
Time_Shift_151
Note_On_74_Vel_93
Time_Shift_1
Sustain_Off
Time_Shift_3
Note_On_61_Vel_0
Time_Shift_1
Note_On_46_Vel_79
Note_On_54_Vel_0
Note_On_58_Vel_0
Time_Shift_4
Note_On_73_Vel_0
Time_Shift_67
Sustain_On
Time_Shift_83
Note_On_56_Vel_67
Time_Shift_2
Note_On_46_Vel_0
Time_Shift_161
Note_On_58_Vel_69
Time_Shift_164
Note_On_62_Vel_60
Time_Shift_128
Note_On_74_Vel_0
Time_Shift_6
Note_On_86_Vel_85
Time_Shift_1
Note_On_74_Vel_92
Time_Shift_16
Note_On_58_Vel_0
Time_Shift_11
Note_On_58_Vel_69
Time_Shift_1
Note_On_46_Vel_67
Time_Shift_134
Note_On_56_Vel_0
Time_Shift_4
Note_On_56_Vel_70
Time_Shift_245
Note_On_89_Vel_93
Time_Shift_1
Note_On_77_Vel_94
Time_Shift_2
Sustain_Off
Time_Shift_1
Note_On_46_Vel_0
Note_On_58_Vel_0
Note_On_74_Vel_0
Time_Shift_1
Note_On_62_Vel_0
Note_On_56_Vel_0
Time_Shift_4
Note_On_47_Vel_78
Time_Shift_1
Note_On_59_Vel_78
Time_Shift_1
Note_On_85_Vel_74
Time_Shift_16
Note_On_86_Vel_0
Time_Shift_77
Sustain_On
Time_Shift_138
Note_On_54_Vel_63
Time_Shift_146
Note_On_47_Vel_0
Note_On_59_Vel_0
Time_Shift_9
Note_On_59_Vel_63
Time_Shift_2
Note_On_47_Vel_56
Time_Shift_139
Note_On_63_Vel_71
Time_Shift_142
Note_On_59_Vel_0
Time_Shift_5
Note_On_59_Vel_67
Time_Shift_149
Note_On_47_Vel_0
Time_Shift_7
Note_On_54_Vel_0
Time_Shift_4
Note_On_47_Vel_58
Time_Shift_1
Note_On_54_Vel_65
Time_Shift_157
Note_On_75_Vel_87
Time_Shift_2
Note_On_87_Vel_81
Time_Shift_151
Note_On_54_Vel_0
Time_Shift_11
Note_On_54_Vel_65
Time_Shift_166
Note_On_47_Vel_0
Note_On_59_Vel_0
Time_Shift_10
Note_On_59_Vel_56
Note_On_47_Vel_48
Time_Shift_167
Note_On_63_Vel_0
Time_Shift_4
Note_On_63_Vel_68
Time_Shift_180
Note_On_47_Vel_0
Note_On_59_Vel_0
Time_Shift_8
Note_On_47_Vel_49
Time_Shift_1
Note_On_59_Vel_60
Time_Shift_206
Note_On_54_Vel_0
Time_Shift_9
Note_On_54_Vel_60
Time_Shift_467
Sustain_Off
Time_Shift_6
Note_On_87_Vel_0
Time_Shift_1
Note_On_77_Vel_0
Note_On_63_Vel_0
Note_On_89_Vel_0
Note_On_75_Vel_0
Time_Shift_1
Note_On_54_Vel_0
Note_On_47_Vel_0
Note_On_85_Vel_0
Time_Shift_7
Note_On_59_Vel_0
Time_Shift_3
Note_On_47_Vel_60
Time_Shift_2
Note_On_59_Vel_51
Time_Shift_95
Sustain_On
Time_Shift_84
Note_On_66_Vel_73
Time_Shift_24
Note_On_47_Vel_0
Time_Shift_8
Note_On_59_Vel_0
Time_Shift_139
Note_On_71_Vel_77
Time_Shift_18
Note_On_54_Vel_48
Time_Shift_131
Note_On_73_Vel_82
Time_Shift_142
Note_On_76_Vel_77
Time_Shift_9
Note_On_74_Vel_67
Time_Shift_3
Note_On_62_Vel_63
Time_Shift_126
Note_On_74_Vel_0
Time_Shift_5
Note_On_74_Vel_79
Time_Shift_138
Note_On_71_Vel_0
Note_On_54_Vel_0
Note_On_62_Vel_0
Note_On_76_Vel_0
Note_On_73_Vel_0
Time_Shift_1
Note_On_66_Vel_0
Sustain_Off
Time_Shift_23
Note_On_49_Vel_67
Time_Shift_1
Note_On_61_Vel_64
Time_Shift_16
Sustain_On
Time_Shift_106
Note_On_66_Vel_80
Time_Shift_2
Note_On_49_Vel_0
Time_Shift_149
Note_On_57_Vel_67
Time_Shift_1
Note_On_69_Vel_77
Time_Shift_144
Note_On_72_Vel_82
Time_Shift_143
Note_On_74_Vel_0
Time_Shift_8
Note_On_61_Vel_0
Time_Shift_4
Note_On_74_Vel_83
Time_Shift_3
Note_On_61_Vel_69
Time_Shift_136
Note_On_73_Vel_85
Time_Shift_172
Note_On_72_Vel_0
Time_Shift_5
Note_On_72_Vel_95
Time_Shift_29
Note_On_51_Vel_68
Time_Shift_12
Note_On_69_Vel_0
Time_Shift_2
Note_On_57_Vel_0
Time_Shift_1
Note_On_73_Vel_0
Note_On_66_Vel_0
Note_On_61_Vel_0
Note_On_74_Vel_0
Time_Shift_3
Sustain_Off
Time_Shift_94
Sustain_On
Time_Shift_86
Note_On_65_Vel_71
Time_Shift_165
Note_On_66_Vel_78
Time_Shift_42
Note_On_57_Vel_58
Time_Shift_104
Note_On_69_Vel_76
Time_Shift_133
Note_On_72_Vel_0
Time_Shift_11
Note_On_72_Vel_85
Time_Shift_16
Note_On_60_Vel_63
Time_Shift_113
Note_On_75_Vel_86
Time_Shift_131
Note_On_78_Vel_84
Time_Shift_25
Note_On_63_Vel_71
Time_Shift_102
Note_On_81_Vel_91
Time_Shift_138
Note_On_84_Vel_79
Time_Shift_17
Note_On_60_Vel_0
Time_Shift_5
Note_On_60_Vel_65
Time_Shift_101
Note_On_87_Vel_87
Time_Shift_140
Note_On_57_Vel_0
Time_Shift_5
Note_On_90_Vel_74
Time_Shift_4
Note_On_57_Vel_69
Time_Shift_118
Note_On_93_Vel_76
Time_Shift_119
Note_On_69_Vel_0
Sustain_Off
Time_Shift_1
Note_On_65_Vel_0
Note_On_87_Vel_0
Note_On_51_Vel_0
Note_On_63_Vel_0
Note_On_78_Vel_0
Note_On_81_Vel_0
Time_Shift_1
Note_On_66_Vel_0
Note_On_84_Vel_0
Note_On_60_Vel_0
Note_On_90_Vel_0
Time_Shift_5
Note_On_75_Vel_0
Time_Shift_8
Note_On_57_Vel_0
Note_On_72_Vel_0
Time_Shift_4
Note_On_92_Vel_83
Note_On_44_Vel_81
Time_Shift_65
Sustain_On
Time_Shift_69
Note_On_90_Vel_80
Time_Shift_131
Note_On_87_Vel_87
Time_Shift_21
Note_On_56_Vel_72
Time_Shift_98
Note_On_84_Vel_74
Time_Shift_134
Note_On_93_Vel_0
Time_Shift_6
Note_On_80_Vel_79
Time_Shift_6
Note_On_60_Vel_64
Time_Shift_131
Note_On_78_Vel_78
Time_Shift_136
Note_On_75_Vel_81
Time_Shift_8
Note_On_63_Vel_69
Time_Shift_109
Note_On_72_Vel_79
Time_Shift_134
Note_On_44_Vel_0
Note_On_60_Vel_0
Time_Shift_2
Note_On_56_Vel_0
Time_Shift_2
Note_On_44_Vel_63
Time_Shift_1
Note_On_60_Vel_67
Time_Shift_7
Note_On_68_Vel_78
Time_Shift_121
Note_On_69_Vel_81
Time_Shift_128
Note_On_44_Vel_0
Time_Shift_8
Note_On_63_Vel_0
Time_Shift_3
Note_On_44_Vel_72
Time_Shift_3
Note_On_63_Vel_79
Time_Shift_124
Note_On_44_Vel_0
Time_Shift_5
Note_On_66_Vel_79
Time_Shift_2
Note_On_44_Vel_60
Time_Shift_95
Note_On_69_Vel_0
Time_Shift_1
Sustain_Off
Time_Shift_1
Note_On_80_Vel_0
Note_On_75_Vel_0
Note_On_68_Vel_0
Note_On_92_Vel_0
Note_On_72_Vel_0
Note_On_78_Vel_0
Note_On_63_Vel_0
Note_On_44_Vel_0
Note_On_90_Vel_0
Note_On_84_Vel_0
Time_Shift_3
Note_On_66_Vel_0
Time_Shift_8
Note_On_60_Vel_0
Note_On_87_Vel_0
Time_Shift_28
Note_On_65_Vel_74
Note_On_49_Vel_71
Time_Shift_3
Note_On_61_Vel_70
Time_Shift_46
Sustain_On
Time_Shift_39
Note_On_61_Vel_0
Time_Shift_38
Note_On_73_Vel_82
Time_Shift_2
Note_On_61_Vel_81
Time_Shift_133
Note_On_56_Vel_75
Time_Shift_5
Note_On_68_Vel_75
Time_Shift_121
Note_On_73_Vel_0
Time_Shift_9
Note_On_73_Vel_88
Time_Shift_129
Note_On_73_Vel_0
Time_Shift_5
Note_On_73_Vel_86
Time_Shift_26
Note_On_61_Vel_0
Time_Shift_6
Note_On_61_Vel_57
Time_Shift_114
Note_On_85_Vel_82
Time_Shift_238
Note_On_68_Vel_0
Note_On_56_Vel_0
Time_Shift_1
Note_On_85_Vel_0
Sustain_Off
Time_Shift_2
Note_On_61_Vel_0
Note_On_65_Vel_0
Note_On_73_Vel_0
Time_Shift_7
Note_On_65_Vel_66
Time_Shift_1
Note_On_49_Vel_0
Time_Shift_2
Note_On_77_Vel_63
Time_Shift_1
Note_On_61_Vel_72
Note_On_73_Vel_73
Time_Shift_97
Sustain_On
Time_Shift_221
Note_On_66_Vel_75
Time_Shift_28
Note_On_73_Vel_0
Note_On_61_Vel_0
Sustain_Off
Note_On_63_Vel_71
Time_Shift_2
Note_On_65_Vel_0
Time_Shift_71
Note_On_77_Vel_0
Sustain_On
Time_Shift_60
Note_On_73_Vel_84
Time_Shift_167
Note_On_85_Vel_87
Time_Shift_18
Note_On_68_Vel_70
Time_Shift_2
Note_On_65_Vel_60
Time_Shift_12
Sustain_Off
Time_Shift_1
Note_On_63_Vel_0
Time_Shift_1
Note_On_66_Vel_0
Time_Shift_77
Sustain_On
Time_Shift_75
Note_On_84_Vel_90
Time_Shift_277
Note_On_86_Vel_93
Time_Shift_24
Note_On_73_Vel_0
Time_Shift_14
Note_On_84_Vel_0
Time_Shift_1
Note_On_85_Vel_0
Note_On_54_Vel_72
Time_Shift_1
Sustain_Off
Time_Shift_2
Note_On_65_Vel_0
Note_On_68_Vel_0
Time_Shift_90
Sustain_On
Time_Shift_127
Note_On_82_Vel_64
Note_On_85_Vel_77
Time_Shift_187
Note_On_83_Vel_80
Time_Shift_6
Note_On_61_Vel_67
Time_Shift_16
Sustain_Off
Time_Shift_9
Sustain_On
Time_Shift_108
Note_On_81_Vel_80
Time_Shift_157
Note_On_80_Vel_84
Time_Shift_7
Note_On_69_Vel_60
Time_Shift_28
Note_On_54_Vel_0
Time_Shift_3
Note_On_66_Vel_46
Time_Shift_1
Note_On_54_Vel_51
Time_Shift_93
Note_On_78_Vel_84
Time_Shift_141
Note_On_82_Vel_0
Time_Shift_1
Note_On_69_Vel_0
Time_Shift_1
Note_On_81_Vel_0
Note_On_54_Vel_0
Note_On_83_Vel_0
Time_Shift_1
Note_On_66_Vel_0
Note_On_80_Vel_0
Note_On_78_Vel_0
Sustain_Off
Time_Shift_1
Note_On_77_Vel_79
Time_Shift_1
Note_On_57_Vel_72
Time_Shift_10
Note_On_85_Vel_0
Time_Shift_8
Note_On_86_Vel_0
Time_Shift_39
Sustain_On
Time_Shift_79
Note_On_80_Vel_80
Time_Shift_144
Note_On_78_Vel_78
Time_Shift_14
Note_On_66_Vel_59
Time_Shift_10
Note_On_69_Vel_53
Time_Shift_104
Note_On_73_Vel_78
Time_Shift_117
Note_On_69_Vel_0
Time_Shift_11
Note_On_69_Vel_72
Time_Shift_143
Note_On_66_Vel_0
Time_Shift_9
Note_On_66_Vel_68
Time_Shift_113
Note_On_61_Vel_0
Time_Shift_14
Note_On_57_Vel_0
Time_Shift_3
Note_On_80_Vel_0
Note_On_65_Vel_66
Note_On_78_Vel_0
Time_Shift_1
Note_On_73_Vel_0
Time_Shift_1
Note_On_77_Vel_0
Time_Shift_1
Sustain_Off
Time_Shift_7
Note_On_49_Vel_65
Note_On_61_Vel_66
Time_Shift_4
Note_On_66_Vel_0
Note_On_69_Vel_0
Time_Shift_62
Sustain_On
Time_Shift_46
Note_On_61_Vel_0
Time_Shift_9
Note_On_73_Vel_73
Time_Shift_2
Note_On_61_Vel_78
Time_Shift_160
Note_On_56_Vel_72
Note_On_68_Vel_68
Time_Shift_105
Note_On_73_Vel_0
Time_Shift_7
Note_On_73_Vel_81
Time_Shift_147
Note_On_73_Vel_0
Time_Shift_5
Note_On_73_Vel_85
Time_Shift_2
Note_On_61_Vel_0
Time_Shift_5
Note_On_61_Vel_62
Time_Shift_135
Note_On_85_Vel_76
Time_Shift_175
Note_On_61_Vel_0
Note_On_65_Vel_0
Note_On_73_Vel_0
Time_Shift_7
Note_On_65_Vel_62
Time_Shift_3
Note_On_73_Vel_72
Time_Shift_1
Note_On_61_Vel_71
Time_Shift_2
Sustain_Off
Time_Shift_5
Note_On_68_Vel_0
Time_Shift_1
Note_On_56_Vel_0
Time_Shift_12
Note_On_49_Vel_0
Time_Shift_62
Sustain_On
Time_Shift_203
Note_On_66_Vel_70
Time_Shift_1
Note_On_63_Vel_77
Time_Shift_4
Sustain_Off
Time_Shift_11
Note_On_65_Vel_0
Time_Shift_34
Note_On_73_Vel_0
Time_Shift_15
Note_On_61_Vel_0
Note_On_85_Vel_0
Time_Shift_8
Sustain_On
Time_Shift_67
Note_On_73_Vel_82
Time_Shift_141
Note_On_85_Vel_79
Note_On_65_Vel_62
Time_Shift_1
Note_On_68_Vel_70
Time_Shift_136
Note_On_84_Vel_80
Time_Shift_152
Note_On_86_Vel_82
Time_Shift_5
Sustain_Off
Note_On_54_Vel_77
Time_Shift_1
Note_On_65_Vel_0
Note_On_68_Vel_0
Note_On_63_Vel_0
Time_Shift_1
Note_On_85_Vel_0
Note_On_73_Vel_0
Time_Shift_1
Note_On_66_Vel_0
Note_On_84_Vel_0
Time_Shift_71
Sustain_On
Time_Shift_53
Note_On_85_Vel_78
Time_Shift_142
Note_On_61_Vel_70
Note_On_83_Vel_80
Time_Shift_127
Note_On_81_Vel_80
Time_Shift_141
Note_On_80_Vel_81
Time_Shift_2
Note_On_69_Vel_69
Time_Shift_5
Note_On_66_Vel_64
Time_Shift_118
Note_On_78_Vel_82
Time_Shift_131
Note_On_77_Vel_79
Time_Shift_3
Note_On_69_Vel_0
Time_Shift_5
Note_On_57_Vel_81
Time_Shift_1
Note_On_69_Vel_71
Time_Shift_8
Sustain_Off
Time_Shift_5
Note_On_83_Vel_0
Time_Shift_1
Note_On_85_Vel_0
Note_On_81_Vel_0
Note_On_78_Vel_0
Note_On_54_Vel_0
Note_On_66_Vel_0
Note_On_80_Vel_0
Note_On_61_Vel_0
Time_Shift_18
Note_On_86_Vel_0
Time_Shift_54
Sustain_On
Time_Shift_42
Note_On_80_Vel_80
Time_Shift_58
Note_On_69_Vel_0
Time_Shift_82
Note_On_66_Vel_70
Time_Shift_1
Note_On_78_Vel_80
Time_Shift_5
Note_On_69_Vel_69
Time_Shift_122
Note_On_73_Vel_82
Time_Shift_128
Note_On_69_Vel_0
Time_Shift_10
Note_On_69_Vel_67
Time_Shift_128
Note_On_66_Vel_0
Time_Shift_8
Note_On_66_Vel_70
Time_Shift_166
Sustain_Off
Time_Shift_5
Note_On_80_Vel_0
Time_Shift_1
Note_On_57_Vel_0
Note_On_66_Vel_0
Note_On_78_Vel_0
Note_On_73_Vel_0
Note_On_69_Vel_0
Time_Shift_1
Note_On_65_Vel_77
Time_Shift_3
Note_On_77_Vel_0
Time_Shift_21
Note_On_37_Vel_54
Time_Shift_2
Note_On_56_Vel_62
Time_Shift_62
Sustain_On
Time_Shift_66
Note_On_61_Vel_82
Time_Shift_152
Note_On_68_Vel_73
Time_Shift_125
Note_On_73_Vel_84
Time_Shift_133
Note_On_65_Vel_0
Note_On_68_Vel_0
Time_Shift_5
Note_On_68_Vel_82
Time_Shift_3
Note_On_56_Vel_0
Time_Shift_2
Note_On_65_Vel_72
Time_Shift_2
Note_On_56_Vel_76
Time_Shift_126
Note_On_73_Vel_0
Time_Shift_8
Note_On_73_Vel_84
Time_Shift_142
Note_On_80_Vel_83
Time_Shift_127
Note_On_73_Vel_0
Time_Shift_11
Note_On_73_Vel_81
Time_Shift_127
Note_On_80_Vel_0
Time_Shift_6
Note_On_80_Vel_83
Time_Shift_141
Note_On_85_Vel_79
Time_Shift_129
Note_On_80_Vel_0
Time_Shift_10
Note_On_80_Vel_78
Time_Shift_129
Note_On_85_Vel_0
Time_Shift_6
Note_On_85_Vel_77
Time_Shift_135
Note_On_92_Vel_85
Time_Shift_143
Note_On_85_Vel_0
Time_Shift_5
Note_On_85_Vel_78
Time_Shift_148
Note_On_92_Vel_0
Time_Shift_6
Note_On_92_Vel_79
Time_Shift_145
Note_On_97_Vel_92
Time_Shift_157
Note_On_92_Vel_0
Time_Shift_5
Note_On_92_Vel_75
Time_Shift_141
Note_On_85_Vel_0
Time_Shift_9
Note_On_85_Vel_83
Time_Shift_175
Note_On_85_Vel_0
Time_Shift_4
Note_On_85_Vel_81
Time_Shift_188
Note_On_80_Vel_0
Time_Shift_11
Note_On_80_Vel_78
Time_Shift_189
Note_On_73_Vel_0
Time_Shift_9
Note_On_73_Vel_78
Time_Shift_259
Note_On_73_Vel_0
Time_Shift_7
Note_On_73_Vel_74
Time_Shift_270
Note_On_68_Vel_0
Time_Shift_11
Note_On_68_Vel_67
Time_Shift_396
Note_On_61_Vel_0
Time_Shift_11
Note_On_61_Vel_66
Time_Shift_143
Note_On_37_Vel_0
Note_On_56_Vel_0
Note_On_65_Vel_0
Time_Shift_601
Sustain_Off
Time_Shift_11
Note_On_42_Vel_65
Time_Shift_7
Note_On_97_Vel_0
Note_On_80_Vel_0
Note_On_85_Vel_0
Time_Shift_2
Note_On_68_Vel_0
Time_Shift_1
Note_On_92_Vel_0
Time_Shift_15
Note_On_73_Vel_0
Time_Shift_15
Note_On_61_Vel_0
Time_Shift_16
Sustain_On
Time_Shift_382
Note_On_73_Vel_84
Time_Shift_6
Note_On_57_Vel_59
Time_Shift_384
Note_On_49_Vel_57
Time_Shift_154
Note_On_74_Vel_85
Time_Shift_182
Note_On_49_Vel_0
Time_Shift_1
Note_On_57_Vel_0
Note_On_66_Vel_73
Time_Shift_1
Sustain_Off
Time_Shift_3
Note_On_42_Vel_0
Time_Shift_3
Note_On_44_Vel_63
Time_Shift_1
Note_On_73_Vel_0
Note_On_61_Vel_71
Time_Shift_58
Sustain_On
Time_Shift_297
Note_On_59_Vel_65
Time_Shift_10
Note_On_74_Vel_0
Time_Shift_328
Note_On_65_Vel_73
Time_Shift_5
Note_On_49_Vel_60
Time_Shift_18
Sustain_Off
Time_Shift_8
Note_On_66_Vel_0
Note_On_59_Vel_0
Time_Shift_1
Note_On_44_Vel_0
Note_On_61_Vel_0
Time_Shift_62
Sustain_On
Time_Shift_291
Note_On_45_Vel_67
Time_Shift_168
Note_On_66_Vel_75
Time_Shift_163
Note_On_69_Vel_78
Time_Shift_3
Note_On_61_Vel_72
Time_Shift_155
Note_On_73_Vel_83
Time_Shift_206
Sustain_Off
Time_Shift_5
Note_On_65_Vel_0
Note_On_49_Vel_0
Time_Shift_1
Note_On_45_Vel_0
Time_Shift_1
Note_On_81_Vel_89
Time_Shift_1
Note_On_66_Vel_0
Time_Shift_8
Note_On_54_Vel_61
Time_Shift_4
Note_On_61_Vel_0
Time_Shift_31
Sustain_On
Time_Shift_261
Note_On_81_Vel_0
Time_Shift_6
Note_On_81_Vel_80
Time_Shift_148
Note_On_69_Vel_0
Time_Shift_8
Note_On_81_Vel_0
Time_Shift_3
Sustain_Off
Time_Shift_5
Note_On_54_Vel_0
Note_On_81_Vel_77
Time_Shift_7
Note_On_73_Vel_0
Time_Shift_27
Note_On_74_Vel_63
Time_Shift_6
Note_On_47_Vel_56
Time_Shift_5
Sustain_On
Time_Shift_315
Note_On_74_Vel_0
Time_Shift_5
Note_On_62_Vel_70
Time_Shift_2
Note_On_74_Vel_69
Time_Shift_305
Note_On_80_Vel_83
Time_Shift_24
Note_On_56_Vel_58
Time_Shift_40
Note_On_47_Vel_0
Time_Shift_209
Sustain_Off
Time_Shift_2
Note_On_62_Vel_0
Note_On_56_Vel_0
Time_Shift_25
Note_On_47_Vel_61
Time_Shift_3
Sustain_On
Time_Shift_331
Note_On_79_Vel_89
Time_Shift_6
Note_On_74_Vel_0
Time_Shift_5
Note_On_74_Vel_79
Time_Shift_6
Note_On_62_Vel_67
Time_Shift_189
Note_On_81_Vel_0
Time_Shift_118
Note_On_55_Vel_66
Time_Shift_97
Note_On_80_Vel_0
Time_Shift_8
Note_On_79_Vel_0
Time_Shift_8
Note_On_79_Vel_88
Time_Shift_215
Note_On_79_Vel_0
Time_Shift_4
Note_On_79_Vel_83
Time_Shift_6
Note_On_49_Vel_62
Time_Shift_4
Note_On_73_Vel_76
Time_Shift_1
Sustain_Off
Time_Shift_15
Note_On_47_Vel_0
Time_Shift_2
Note_On_62_Vel_0
Time_Shift_1
Note_On_55_Vel_0
Time_Shift_1
Note_On_74_Vel_0
Time_Shift_65
Sustain_On
Time_Shift_246
Note_On_73_Vel_0
Time_Shift_6
Note_On_73_Vel_66
Time_Shift_1
Note_On_61_Vel_71
Time_Shift_341
Note_On_78_Vel_84
Time_Shift_314
Sustain_Off
Note_On_49_Vel_0
Time_Shift_2
Note_On_61_Vel_0
Time_Shift_12
Note_On_79_Vel_0
Time_Shift_12
Note_On_37_Vel_53
Time_Shift_34
Sustain_On
Time_Shift_353
Note_On_73_Vel_0
Time_Shift_10
Note_On_73_Vel_76
Time_Shift_6
Note_On_65_Vel_57
Time_Shift_4
Note_On_59_Vel_59
Time_Shift_26
Sustain_Off
Time_Shift_85
Sustain_On
Time_Shift_288
Note_On_49_Vel_58
Time_Shift_163
Note_On_68_Vel_69
Time_Shift_198
Note_On_71_Vel_79
Time_Shift_16
Note_On_66_Vel_58
Time_Shift_5
Note_On_61_Vel_61
Time_Shift_1
Note_On_42_Vel_61
Time_Shift_7
Note_On_59_Vel_0
Time_Shift_1
Note_On_65_Vel_0
Note_On_49_Vel_0
Time_Shift_1
Note_On_73_Vel_0
Time_Shift_1
Note_On_68_Vel_0
Time_Shift_4
Sustain_Off
Time_Shift_6
Note_On_37_Vel_0
Time_Shift_100
Sustain_On
Time_Shift_15
Note_On_78_Vel_0
Time_Shift_214
Note_On_57_Vel_58
Time_Shift_405
Note_On_69_Vel_71
Time_Shift_17
Note_On_49_Vel_51
Time_Shift_501
Note_On_42_Vel_0
Time_Shift_5
Note_On_42_Vel_66
Time_Shift_41
Note_On_66_Vel_0
Time_Shift_1
Note_On_49_Vel_0
Time_Shift_1
Note_On_61_Vel_0
Time_Shift_1
Note_On_57_Vel_0
Note_On_69_Vel_0
Time_Shift_1
Note_On_71_Vel_0
Time_Shift_2
Sustain_Off
Time_Shift_102
Sustain_On
Time_Shift_103
Note_On_73_Vel_76
Time_Shift_225
Note_On_74_Vel_81
Time_Shift_185
Note_On_71_Vel_83
Time_Shift_17
Note_On_57_Vel_59
Time_Shift_133
Note_On_72_Vel_78
Time_Shift_120
Note_On_73_Vel_0
Time_Shift_9
Note_On_73_Vel_89
Time_Shift_124
Note_On_76_Vel_81
Time_Shift_24
Note_On_49_Vel_56
Time_Shift_89
Note_On_74_Vel_0
Time_Shift_11
Note_On_74_Vel_84
Time_Shift_163
Note_On_66_Vel_80
Time_Shift_2
Note_On_49_Vel_0
Note_On_44_Vel_69
Note_On_57_Vel_0
Note_On_76_Vel_0
Time_Shift_2
Note_On_72_Vel_0
Sustain_Off
Note_On_71_Vel_0
Time_Shift_1
Note_On_73_Vel_0
Time_Shift_20
Note_On_42_Vel_0
Time_Shift_93
Sustain_On
Time_Shift_311
Note_On_59_Vel_65
Time_Shift_1
Note_On_71_Vel_54
Time_Shift_10
Note_On_71_Vel_0
Time_Shift_153
Note_On_65_Vel_79
Time_Shift_78
Note_On_74_Vel_0
Time_Shift_81
Sustain_Off
Time_Shift_17
Note_On_49_Vel_67
Note_On_64_Vel_79
Time_Shift_2
Note_On_76_Vel_70
Time_Shift_1
Note_On_59_Vel_0
Time_Shift_1
Note_On_66_Vel_0
Time_Shift_1
Note_On_65_Vel_0
Time_Shift_10
Note_On_44_Vel_0
Time_Shift_55
Sustain_On
Time_Shift_82
Note_On_65_Vel_71
Time_Shift_139
Sustain_Off
Time_Shift_8
Note_On_49_Vel_0
Time_Shift_4
Note_On_64_Vel_0
Time_Shift_1
Note_On_65_Vel_0
Time_Shift_15
Note_On_68_Vel_83
Note_On_87_Vel_78
Time_Shift_1
Note_On_45_Vel_71
Note_On_57_Vel_64
Time_Shift_4
Note_On_87_Vel_0
Time_Shift_46
Sustain_On
Time_Shift_97
Note_On_78_Vel_74
Time_Shift_1
Note_On_66_Vel_78
Time_Shift_157
Note_On_69_Vel_84
Time_Shift_21
Note_On_61_Vel_74
Time_Shift_134
Note_On_73_Vel_91
Time_Shift_189
Sustain_Off
Time_Shift_12
Note_On_68_Vel_0
Note_On_61_Vel_0
Time_Shift_1
Note_On_66_Vel_0
Note_On_81_Vel_94
Time_Shift_3
Note_On_45_Vel_0
Time_Shift_2
Note_On_54_Vel_63
Time_Shift_51
Sustain_On
Time_Shift_62
Note_On_76_Vel_0
Time_Shift_184
Note_On_81_Vel_0
Time_Shift_9
Note_On_81_Vel_92
Time_Shift_129
Note_On_54_Vel_0
Time_Shift_11
Sustain_Off
Time_Shift_12
Note_On_57_Vel_0
Note_On_81_Vel_0
Note_On_73_Vel_0
Time_Shift_4
Note_On_81_Vel_89
Time_Shift_8
Note_On_74_Vel_73
Time_Shift_2
Note_On_47_Vel_62
Time_Shift_55
Sustain_On
Time_Shift_277
Note_On_74_Vel_0
Time_Shift_5
Note_On_62_Vel_71
Note_On_74_Vel_66
Time_Shift_309
Note_On_80_Vel_91
Time_Shift_3
Note_On_68_Vel_83
Time_Shift_2
Note_On_56_Vel_77
Time_Shift_280
Note_On_69_Vel_0
Time_Shift_100
Note_On_78_Vel_0
Time_Shift_1
Note_On_83_Vel_92
Time_Shift_4
Note_On_71_Vel_84
Time_Shift_5
Note_On_76_Vel_78
Time_Shift_8
Note_On_49_Vel_71
Time_Shift_1
Sustain_Off
Time_Shift_8
Note_On_74_Vel_0
Note_On_80_Vel_0
Note_On_62_Vel_0
Note_On_81_Vel_0
Time_Shift_1
Note_On_68_Vel_0
Note_On_56_Vel_0
Time_Shift_10
Note_On_47_Vel_0
Time_Shift_62
Sustain_On
Time_Shift_199
Note_On_49_Vel_0
Time_Shift_35
Note_On_64_Vel_71
Time_Shift_263
Note_On_82_Vel_93
Time_Shift_5
Note_On_70_Vel_80
Time_Shift_3
Sustain_Off
Time_Shift_2
Note_On_55_Vel_75
Time_Shift_2
Note_On_83_Vel_0
Time_Shift_20
Sustain_On
Time_Shift_276
Note_On_85_Vel_88
Time_Shift_1
Note_On_82_Vel_0
Time_Shift_1
Note_On_78_Vel_86
Time_Shift_1
Note_On_73_Vel_88
Time_Shift_3
Note_On_82_Vel_77
Time_Shift_3
Note_On_64_Vel_0
Time_Shift_2
Note_On_50_Vel_71
Time_Shift_2
Note_On_55_Vel_0
Time_Shift_1
Note_On_70_Vel_0
Time_Shift_8
Sustain_Off
Time_Shift_17
Note_On_76_Vel_0
Time_Shift_8
Note_On_71_Vel_0
Time_Shift_46
Sustain_On
Time_Shift_46
Note_On_50_Vel_0
Time_Shift_161
Note_On_66_Vel_82
Time_Shift_250
Note_On_83_Vel_96
Time_Shift_1
Note_On_71_Vel_89
Time_Shift_4
Note_On_59_Vel_74
Time_Shift_275
Note_On_78_Vel_0
Note_On_85_Vel_0
Time_Shift_9
Note_On_85_Vel_85
Note_On_90_Vel_94
Time_Shift_1
Note_On_78_Vel_89
Time_Shift_10
Note_On_59_Vel_0
Note_On_73_Vel_0
Note_On_66_Vel_0
Sustain_Off
Time_Shift_1
Note_On_58_Vel_65
Time_Shift_1
Note_On_46_Vel_67
Note_On_71_Vel_0
Time_Shift_4
Note_On_83_Vel_0
Time_Shift_67
Sustain_On
Time_Shift_23
Note_On_46_Vel_0
Time_Shift_15
Note_On_58_Vel_0
Time_Shift_31
Note_On_82_Vel_0
Time_Shift_194
Note_On_73_Vel_59
Time_Shift_1
Note_On_61_Vel_68
Time_Shift_284
Note_On_88_Vel_92
Time_Shift_3
Note_On_76_Vel_79
Time_Shift_3
Note_On_54_Vel_70
Time_Shift_350
Note_On_61_Vel_0
Time_Shift_1
Note_On_88_Vel_0
Time_Shift_1
Note_On_78_Vel_0
Note_On_85_Vel_0
Time_Shift_3
Note_On_76_Vel_0
Time_Shift_2
Note_On_85_Vel_79
Time_Shift_2
Note_On_73_Vel_0
Note_On_90_Vel_0
Time_Shift_3
Note_On_78_Vel_79
Time_Shift_3
Note_On_73_Vel_75
Time_Shift_11
Sustain_Off
Time_Shift_3
Note_On_47_Vel_52
Time_Shift_65
Sustain_On
Time_Shift_303
Note_On_62_Vel_61
Time_Shift_365
Note_On_54_Vel_0
Time_Shift_5
Note_On_86_Vel_70
Time_Shift_6
Note_On_54_Vel_52
Note_On_74_Vel_65
Time_Shift_381
Note_On_85_Vel_0
Note_On_54_Vel_0
Time_Shift_1
Note_On_73_Vel_0
Note_On_78_Vel_0
Note_On_62_Vel_0
Time_Shift_1
Sustain_Off
Time_Shift_21
Note_On_47_Vel_0
Time_Shift_10
Note_On_47_Vel_51
Time_Shift_36
Sustain_On
Time_Shift_150
Note_On_85_Vel_74
Time_Shift_193
Note_On_88_Vel_77
Time_Shift_6
Note_On_62_Vel_60
Time_Shift_119
Note_On_86_Vel_0
Time_Shift_8
Note_On_88_Vel_0
Time_Shift_4
Note_On_86_Vel_81
Time_Shift_4
Note_On_88_Vel_70
Time_Shift_149
Note_On_83_Vel_80
Note_On_55_Vel_62
Time_Shift_133
Note_On_79_Vel_78
Time_Shift_167
Note_On_78_Vel_80
Sustain_Off
Time_Shift_5
Note_On_62_Vel_0
Time_Shift_2
Note_On_86_Vel_0
Note_On_79_Vel_0
Note_On_83_Vel_0
Time_Shift_1
Note_On_85_Vel_0
Note_On_88_Vel_0
Note_On_74_Vel_0
Time_Shift_4
Note_On_47_Vel_0
Time_Shift_4
Note_On_47_Vel_52
Time_Shift_42
Sustain_On
Time_Shift_295
Note_On_62_Vel_65
Time_Shift_27
Note_On_47_Vel_0
Time_Shift_257
Note_On_77_Vel_79
Time_Shift_37
Note_On_56_Vel_59
Time_Shift_273
Note_On_47_Vel_63
Time_Shift_2
Sustain_Off
Time_Shift_4
Note_On_56_Vel_0
Note_On_62_Vel_0
Time_Shift_3
Note_On_55_Vel_0
Time_Shift_54
Sustain_On
Time_Shift_215
Note_On_78_Vel_0
Time_Shift_10
Note_On_78_Vel_90
Time_Shift_6
Note_On_62_Vel_68
Time_Shift_296
Note_On_80_Vel_89
Time_Shift_7
Note_On_56_Vel_72
Time_Shift_347
Note_On_81_Vel_89
Time_Shift_6
Note_On_62_Vel_0
Time_Shift_1
Note_On_69_Vel_75
Note_On_75_Vel_82
Time_Shift_1
Note_On_56_Vel_0
Note_On_47_Vel_0
Note_On_48_Vel_60
Time_Shift_1
Note_On_78_Vel_0
Time_Shift_2
Note_On_80_Vel_0
Time_Shift_3
Sustain_Off
Time_Shift_11
Note_On_77_Vel_0
Time_Shift_54
Sustain_On
Time_Shift_256
Note_On_63_Vel_68
Time_Shift_344
Note_On_57_Vel_61
Time_Shift_384
Note_On_51_Vel_82
Time_Shift_12
Sustain_Off
Time_Shift_2
Note_On_48_Vel_0
Time_Shift_3
Note_On_63_Vel_0
Time_Shift_1
Note_On_57_Vel_0
Time_Shift_2
Note_On_75_Vel_0
Time_Shift_71
Sustain_On
Time_Shift_111
Note_On_77_Vel_76
Time_Shift_185
Note_On_80_Vel_78
Time_Shift_5
Note_On_60_Vel_62
Time_Shift_149
Note_On_78_Vel_81
Time_Shift_141
Note_On_81_Vel_0
Time_Shift_12
Note_On_81_Vel_84
Time_Shift_1
Note_On_57_Vel_63
Time_Shift_146
Note_On_72_Vel_83
Time_Shift_149
Note_On_57_Vel_0
Time_Shift_1
Note_On_80_Vel_0
Note_On_51_Vel_0
Time_Shift_1
Note_On_60_Vel_0
Note_On_78_Vel_0
Time_Shift_1
Note_On_81_Vel_0
Note_On_49_Vel_66
Time_Shift_1
Note_On_77_Vel_0
Note_On_74_Vel_84
Time_Shift_1
Sustain_Off
Time_Shift_5
Note_On_72_Vel_0
Time_Shift_28
Note_On_69_Vel_0
Time_Shift_38
Sustain_On
Time_Shift_76
Note_On_73_Vel_79
Time_Shift_145
Note_On_78_Vel_81
Time_Shift_15
Note_On_61_Vel_60
Time_Shift_15
Note_On_57_Vel_48
Time_Shift_106
Note_On_68_Vel_81
Time_Shift_155
Note_On_71_Vel_78
Time_Shift_140
Note_On_69_Vel_80
Time_Shift_181
Sustain_Off
Time_Shift_1
Note_On_61_Vel_0
Note_On_68_Vel_0
Note_On_72_Vel_84
Note_On_49_Vel_0
Note_On_71_Vel_0
Note_On_73_Vel_0
Time_Shift_1
Note_On_74_Vel_0
Note_On_57_Vel_0
Note_On_78_Vel_0
Note_On_37_Vel_61
Note_On_69_Vel_0
Time_Shift_64
Sustain_On
Time_Shift_111
Note_On_73_Vel_79
Time_Shift_192
Sustain_Off
Time_Shift_10
Note_On_72_Vel_0
Time_Shift_1
Note_On_74_Vel_74
Time_Shift_3
Note_On_73_Vel_0
Time_Shift_1
Note_On_49_Vel_48
Time_Shift_2
Note_On_53_Vel_44
Time_Shift_2
Note_On_59_Vel_53
Time_Shift_39
Sustain_On
Time_Shift_54
Note_On_37_Vel_0
Time_Shift_95
Note_On_73_Vel_82
Time_Shift_206
Note_On_72_Vel_76
Time_Shift_21
Note_On_53_Vel_0
Time_Shift_190
Note_On_68_Vel_71
Time_Shift_313
Note_On_66_Vel_80
Time_Shift_42
Sustain_Off
Time_Shift_3
Note_On_42_Vel_58
Time_Shift_1
Note_On_59_Vel_0
Note_On_74_Vel_0
Note_On_68_Vel_0
Note_On_49_Vel_0
Time_Shift_1
Note_On_73_Vel_0
Note_On_72_Vel_0
Time_Shift_111
Sustain_On
Time_Shift_115
Note_On_42_Vel_0
Time_Shift_48
Note_On_57_Vel_61
Time_Shift_196
Note_On_61_Vel_62
Time_Shift_178
Note_On_57_Vel_0
Time_Shift_12
Note_On_57_Vel_68
Time_Shift_183
Note_On_54_Vel_71
Time_Shift_185
Note_On_52_Vel_68
Time_Shift_194
Note_On_69_Vel_86
Time_Shift_6
Note_On_50_Vel_74
Time_Shift_36
Sustain_Off
Time_Shift_2
Note_On_66_Vel_0
Note_On_61_Vel_0
Time_Shift_1
Note_On_57_Vel_0
Note_On_54_Vel_0
Time_Shift_1
Note_On_52_Vel_0
Time_Shift_87
Sustain_On
Time_Shift_73
Note_On_57_Vel_63
Time_Shift_202
Note_On_66_Vel_61
Time_Shift_20
Note_On_62_Vel_49
Time_Shift_58
Note_On_57_Vel_0
Time_Shift_9
Note_On_57_Vel_18
Time_Shift_93
Note_On_54_Vel_68
Time_Shift_167
Note_On_50_Vel_0
Note_On_62_Vel_0
Time_Shift_4
Note_On_50_Vel_70
Time_Shift_2
Note_On_62_Vel_65
Time_Shift_175
Note_On_49_Vel_73
Time_Shift_1
Note_On_61_Vel_73
Time_Shift_187
Note_On_68_Vel_85
Time_Shift_23
Note_On_62_Vel_0
Time_Shift_4
Note_On_62_Vel_50
Time_Shift_4
Note_On_47_Vel_66
Time_Shift_5
Sustain_Off
Time_Shift_4
Note_On_50_Vel_0
Note_On_57_Vel_0
Note_On_49_Vel_0
Time_Shift_1
Note_On_54_Vel_0
Note_On_69_Vel_0
Time_Shift_5
Note_On_66_Vel_0
Time_Shift_23
Note_On_61_Vel_0
Time_Shift_69
Sustain_On
Time_Shift_72
Note_On_56_Vel_67
Time_Shift_58
Note_On_62_Vel_0
Time_Shift_120
Note_On_66_Vel_58
Time_Shift_47
Note_On_62_Vel_17
Time_Shift_125
Note_On_56_Vel_0
Time_Shift_7
Note_On_44_Vel_74
Time_Shift_3
Note_On_56_Vel_71
Time_Shift_9
Note_On_47_Vel_0
Time_Shift_10
Sustain_Off
Time_Shift_40
Sustain_On
Time_Shift_117
Note_On_45_Vel_78
Note_On_57_Vel_64
Time_Shift_6
Note_On_57_Vel_0
Time_Shift_18
Note_On_44_Vel_0
Time_Shift_80
Sustain_Off
Time_Shift_10
Sustain_On
Time_Shift_60
Note_On_47_Vel_80
Time_Shift_4
Note_On_59_Vel_71
Time_Shift_16
Note_On_45_Vel_0
Time_Shift_81
Note_On_56_Vel_0
Time_Shift_69
Note_On_62_Vel_0
Sustain_Off
Time_Shift_16
Note_On_68_Vel_0
Time_Shift_11
Note_On_68_Vel_86
Time_Shift_17
Note_On_49_Vel_73
Time_Shift_1
Note_On_61_Vel_71
Time_Shift_7
Note_On_47_Vel_0
Time_Shift_17
Note_On_66_Vel_0
Time_Shift_8
Note_On_59_Vel_0
Time_Shift_123
Sustain_On
Time_Shift_37
Note_On_56_Vel_66
Time_Shift_193
Note_On_61_Vel_0
Time_Shift_3
Note_On_65_Vel_51
Time_Shift_7
Note_On_61_Vel_47
Time_Shift_156
Sustain_Off
Time_Shift_2
Note_On_50_Vel_75
Note_On_62_Vel_66
Time_Shift_11
Note_On_56_Vel_0
Time_Shift_1
Note_On_61_Vel_0
Time_Shift_1
Note_On_49_Vel_0
Time_Shift_164
Note_On_49_Vel_71
Time_Shift_1
Note_On_61_Vel_68
Time_Shift_12
Note_On_50_Vel_0
Time_Shift_19
Note_On_62_Vel_0
Note_On_65_Vel_0
Time_Shift_159
Note_On_47_Vel_73
Time_Shift_23
Note_On_49_Vel_0
Time_Shift_33
Note_On_61_Vel_0
Time_Shift_7
Sustain_On
Time_Shift_23
Sustain_Off
Time_Shift_104
Note_On_73_Vel_83
Time_Shift_12
Note_On_68_Vel_0
Time_Shift_19
Note_On_46_Vel_65
Time_Shift_6
Note_On_47_Vel_0
Time_Shift_121
Sustain_On
Time_Shift_51
Note_On_61_Vel_56
Time_Shift_162
Note_On_66_Vel_60
Time_Shift_45
Note_On_64_Vel_37
Time_Shift_127
Note_On_42_Vel_67
Time_Shift_9
Note_On_46_Vel_0
Sustain_Off
Time_Shift_2
Note_On_61_Vel_0
Time_Shift_118
Sustain_On
Time_Shift_43
Note_On_44_Vel_72
Time_Shift_169
Note_On_46_Vel_76
Time_Shift_18
Note_On_42_Vel_0
Time_Shift_39
Note_On_44_Vel_0
Time_Shift_123
Note_On_73_Vel_0
Time_Shift_3
Sustain_Off
Time_Shift_7
Note_On_73_Vel_89
Time_Shift_1
Note_On_47_Vel_71
Time_Shift_8
Note_On_46_Vel_0
Time_Shift_11
Note_On_66_Vel_0
Time_Shift_93
Note_On_64_Vel_0
Time_Shift_38
Sustain_On
Time_Shift_40
Note_On_62_Vel_57
Time_Shift_165
Note_On_66_Vel_63
Time_Shift_163
Note_On_44_Vel_75
Time_Shift_3
Note_On_47_Vel_0
Time_Shift_1
Sustain_Off
Time_Shift_1
Note_On_62_Vel_0
Time_Shift_103
Sustain_On
Time_Shift_59
Note_On_44_Vel_0
Time_Shift_5
Note_On_71_Vel_89
Time_Shift_2
Note_On_45_Vel_86
Time_Shift_1
Note_On_57_Vel_69
Time_Shift_174
Sustain_Off
Time_Shift_1
Note_On_47_Vel_82
Time_Shift_12
Sustain_On
Time_Shift_225
Note_On_69_Vel_85
Note_On_49_Vel_79
Note_On_61_Vel_81
Time_Shift_10
Sustain_Off
Time_Shift_3
Note_On_45_Vel_0
Time_Shift_2
Note_On_47_Vel_0
Time_Shift_2
Note_On_71_Vel_0
Time_Shift_11
Note_On_57_Vel_0
Time_Shift_38
Note_On_73_Vel_0
Time_Shift_93
Sustain_On
Time_Shift_66
Note_On_57_Vel_66
Time_Shift_164
Note_On_61_Vel_0
Time_Shift_7
Note_On_61_Vel_60
Time_Shift_177
Note_On_60_Vel_71
Note_On_48_Vel_78
Time_Shift_24
Sustain_Off
Time_Shift_25
Note_On_57_Vel_0
Time_Shift_3
Note_On_49_Vel_0
Time_Shift_5
Note_On_61_Vel_0
Time_Shift_120
Note_On_49_Vel_74
Note_On_61_Vel_74
Time_Shift_33
Note_On_48_Vel_0
Time_Shift_28
Note_On_60_Vel_0
Time_Shift_122
Note_On_50_Vel_76
Time_Shift_1
Note_On_62_Vel_68
Time_Shift_8
Note_On_62_Vel_0
Time_Shift_19
Note_On_49_Vel_0
Time_Shift_204
Note_On_69_Vel_0
Time_Shift_5
Note_On_49_Vel_70
Time_Shift_1
Note_On_69_Vel_81
Time_Shift_4
Note_On_50_Vel_0
Time_Shift_20
Note_On_66_Vel_0
Time_Shift_2
Note_On_65_Vel_42
Time_Shift_91
Sustain_On
Time_Shift_30
Note_On_61_Vel_0
Time_Shift_83
Note_On_59_Vel_62
Time_Shift_220
Note_On_61_Vel_59
Time_Shift_148
Note_On_59_Vel_0
Time_Shift_25
Note_On_49_Vel_0
Time_Shift_4
Sustain_Off
Time_Shift_4
Note_On_69_Vel_0
Time_Shift_3
Note_On_37_Vel_60
Time_Shift_74
Sustain_On
Time_Shift_105
Note_On_68_Vel_79
Time_Shift_20
Note_On_39_Vel_65
Time_Shift_7
Sustain_Off
Time_Shift_75
Note_On_37_Vel_0
Time_Shift_23
Sustain_On
Time_Shift_109
Note_On_41_Vel_63
Time_Shift_283
Note_On_39_Vel_0
Time_Shift_9
Sustain_Off
Time_Shift_17
Note_On_66_Vel_77
Time_Shift_1
Note_On_41_Vel_0
Time_Shift_5
Note_On_42_Vel_67
Time_Shift_6
Note_On_61_Vel_0
Time_Shift_2
Note_On_68_Vel_0
Time_Shift_6
Note_On_65_Vel_0
Time_Shift_192
Sustain_On
Time_Shift_111
Note_On_57_Vel_54
Time_Shift_196
Note_On_61_Vel_56
Time_Shift_154
Note_On_57_Vel_0
Time_Shift_5
Note_On_57_Vel_61
Time_Shift_182
Note_On_54_Vel_67
Time_Shift_178
Note_On_52_Vel_64
Time_Shift_196
Note_On_57_Vel_0
Time_Shift_5
Note_On_57_Vel_83
Time_Shift_9
Sustain_Off
Time_Shift_1
Note_On_42_Vel_0
Time_Shift_2
Note_On_66_Vel_0
Time_Shift_1
Note_On_54_Vel_0
Note_On_61_Vel_0
Note_On_52_Vel_0
Time_Shift_4
Note_On_50_Vel_66
Time_Shift_108
Sustain_On
Time_Shift_87
Note_On_66_Vel_57
Time_Shift_180
Note_On_69_Vel_64
Time_Shift_183
Note_On_54_Vel_67
Time_Shift_165
Note_On_50_Vel_0
Time_Shift_10
Note_On_50_Vel_67
Note_On_62_Vel_61
Time_Shift_170
Note_On_49_Vel_66
Note_On_61_Vel_66
Time_Shift_227
Note_On_56_Vel_83
Time_Shift_6
Note_On_47_Vel_64
Time_Shift_14
Sustain_Off
Time_Shift_9
Note_On_66_Vel_0
Time_Shift_1
Note_On_54_Vel_0
Time_Shift_1
Note_On_69_Vel_0
Note_On_61_Vel_0
Time_Shift_1
Note_On_50_Vel_0
Note_On_49_Vel_0
Time_Shift_6
Note_On_57_Vel_0
Time_Shift_8
Note_On_62_Vel_0
Time_Shift_99
Sustain_On
Time_Shift_96
Note_On_66_Vel_57
Time_Shift_223
Note_On_68_Vel_44
Time_Shift_153
Note_On_44_Vel_62
Time_Shift_173
Note_On_45_Vel_69
Time_Shift_77
Note_On_47_Vel_0
Time_Shift_39
Note_On_66_Vel_0
Time_Shift_48
Note_On_47_Vel_70
Time_Shift_213
Note_On_56_Vel_0
Note_On_68_Vel_0
Time_Shift_4
Note_On_68_Vel_78
Time_Shift_1
Note_On_56_Vel_85
Time_Shift_4
Note_On_49_Vel_69
Time_Shift_16
Sustain_Off
Time_Shift_6
Note_On_44_Vel_0
Note_On_47_Vel_0
Time_Shift_1
Note_On_45_Vel_0
Time_Shift_129
Sustain_On
Time_Shift_50
Note_On_65_Vel_48
Time_Shift_4
Note_On_68_Vel_0
Time_Shift_196
Note_On_68_Vel_65
Time_Shift_174
Note_On_50_Vel_69
Note_On_62_Vel_60
Time_Shift_6
Note_On_49_Vel_0
Time_Shift_9
Sustain_Off
Time_Shift_99
Sustain_On
Time_Shift_64
Note_On_49_Vel_68
Note_On_61_Vel_66
Time_Shift_182
Note_On_47_Vel_69
Time_Shift_253
Note_On_61_Vel_0
Time_Shift_4
Note_On_73_Vel_90
Time_Shift_1
Note_On_61_Vel_90
Time_Shift_6
Note_On_49_Vel_0
Time_Shift_1
Note_On_50_Vel_0
Note_On_68_Vel_0
Note_On_46_Vel_73
Note_On_47_Vel_0
Time_Shift_3
Note_On_65_Vel_0
Time_Shift_3
Sustain_Off
Time_Shift_5
Note_On_56_Vel_0
Note_On_62_Vel_0
Time_Shift_115
Sustain_On
Time_Shift_92
Note_On_66_Vel_61
Time_Shift_31
Note_On_64_Vel_42
Time_Shift_169
Note_On_73_Vel_0
Time_Shift_8
Note_On_61_Vel_0
Time_Shift_4
Note_On_73_Vel_74
Time_Shift_6
Note_On_61_Vel_48
Time_Shift_162
Note_On_42_Vel_68
Time_Shift_17
Sustain_Off
Time_Shift_3
Note_On_46_Vel_0
Time_Shift_92
Sustain_On
Time_Shift_69
Note_On_44_Vel_71
Time_Shift_3
Note_On_63_Vel_61
Time_Shift_5
Note_On_63_Vel_0
Time_Shift_164
Note_On_46_Vel_70
Time_Shift_166
Note_On_64_Vel_0
Time_Shift_38
Note_On_61_Vel_0
Note_On_73_Vel_0
Time_Shift_10
Note_On_61_Vel_89
Time_Shift_1
Note_On_73_Vel_87
Time_Shift_7
Note_On_47_Vel_70
Time_Shift_2
Note_On_66_Vel_0
Note_On_44_Vel_0
Sustain_Off
Time_Shift_1
Note_On_42_Vel_0
Note_On_46_Vel_0
Time_Shift_102
Sustain_On
Time_Shift_66
Note_On_66_Vel_64
Time_Shift_195
Note_On_73_Vel_0
Time_Shift_11
Note_On_73_Vel_78
Time_Shift_182
Note_On_44_Vel_67
Time_Shift_2
Note_On_56_Vel_65
Time_Shift_153
Note_On_71_Vel_82
Time_Shift_1
Note_On_59_Vel_90
Time_Shift_5
Note_On_71_Vel_0
Time_Shift_12
Note_On_45_Vel_72
Note_On_57_Vel_70
Time_Shift_15
Sustain_Off
Time_Shift_6
Note_On_47_Vel_0
Time_Shift_1
Note_On_44_Vel_0
Note_On_73_Vel_0
Note_On_66_Vel_0
Time_Shift_4
Note_On_56_Vel_0
Time_Shift_15
Note_On_61_Vel_0
Time_Shift_70
Sustain_On
Time_Shift_62
Note_On_47_Vel_72
Time_Shift_222
Note_On_57_Vel_0
Time_Shift_5
Note_On_57_Vel_82
Time_Shift_4
Note_On_69_Vel_76
Time_Shift_5
Note_On_49_Vel_71
Time_Shift_7
Sustain_Off
Time_Shift_11
Note_On_45_Vel_0
Time_Shift_2
Note_On_59_Vel_0
Note_On_47_Vel_0
Time_Shift_112
Sustain_On
Time_Shift_98
Note_On_66_Vel_68
Time_Shift_186
Note_On_69_Vel_0
Time_Shift_7
Note_On_69_Vel_65
Time_Shift_167
Sustain_Off
Time_Shift_15
Note_On_48_Vel_75
Time_Shift_1
Note_On_60_Vel_64
Time_Shift_11
Note_On_49_Vel_0
Time_Shift_181
Note_On_49_Vel_67
Time_Shift_20
Note_On_48_Vel_0
Time_Shift_51
Note_On_60_Vel_0
Time_Shift_118
Note_On_49_Vel_0
Time_Shift_2
Note_On_50_Vel_65
Time_Shift_213
Note_On_50_Vel_0
Time_Shift_1
Note_On_69_Vel_0
Time_Shift_4
Note_On_66_Vel_0
Time_Shift_15
Note_On_57_Vel_0
Time_Shift_5
Note_On_57_Vel_78
Time_Shift_7
Note_On_49_Vel_57
Time_Shift_190
Note_On_61_Vel_68
Time_Shift_36
Sustain_On
Time_Shift_187
Note_On_65_Vel_63
Time_Shift_232
Note_On_37_Vel_65
Time_Shift_25
Note_On_61_Vel_0
Time_Shift_1
Sustain_Off
Time_Shift_1
Note_On_57_Vel_0
Time_Shift_2
Note_On_49_Vel_0
Time_Shift_21
Sustain_On
Time_Shift_188
Note_On_56_Vel_76
Time_Shift_1
Note_On_39_Vel_64
Time_Shift_26
Sustain_Off
Time_Shift_77
Note_On_37_Vel_0
Time_Shift_7
Sustain_On
Time_Shift_31
Note_On_65_Vel_0
Time_Shift_112
Note_On_41_Vel_62
Time_Shift_468
Note_On_54_Vel_79
Time_Shift_2
Note_On_42_Vel_72
Time_Shift_33
Sustain_Off
Time_Shift_5
Note_On_41_Vel_0
Time_Shift_2
Note_On_56_Vel_0
Time_Shift_1
Note_On_39_Vel_0
Time_Shift_114
Sustain_On
Time_Shift_341
Note_On_57_Vel_67
Note_On_69_Vel_61
Time_Shift_238
Note_On_61_Vel_77
Time_Shift_17
Note_On_49_Vel_54
Time_Shift_183
Note_On_66_Vel_69
Time_Shift_151
Note_On_54_Vel_0
Note_On_69_Vel_0
Time_Shift_10
Note_On_69_Vel_81
Time_Shift_1
Note_On_54_Vel_61
Time_Shift_157
Note_On_73_Vel_84
Time_Shift_168
Note_On_78_Vel_81
Time_Shift_1
Note_On_57_Vel_0
Time_Shift_8
Note_On_57_Vel_64
Time_Shift_126
Note_On_81_Vel_85
Time_Shift_158
Note_On_85_Vel_75
Time_Shift_16
Note_On_42_Vel_0
Note_On_54_Vel_0
Time_Shift_4
Note_On_54_Vel_61
Time_Shift_2
Note_On_42_Vel_51
Time_Shift_120
Note_On_93_Vel_81
Time_Shift_20
Note_On_42_Vel_0
Time_Shift_5
Note_On_42_Vel_44
Time_Shift_117
Note_On_49_Vel_0
Time_Shift_3
Note_On_92_Vel_82
Time_Shift_2
Note_On_49_Vel_63
Time_Shift_140
Note_On_90_Vel_81
Time_Shift_112
Sustain_Off
Time_Shift_1
Note_On_69_Vel_0
Note_On_93_Vel_0
Note_On_81_Vel_0
Time_Shift_1
Note_On_90_Vel_0
Note_On_57_Vel_0
Note_On_85_Vel_0
Note_On_66_Vel_0
Note_On_73_Vel_0
Time_Shift_1
Note_On_49_Vel_0
Note_On_61_Vel_0
Time_Shift_1
Note_On_54_Vel_0
Note_On_78_Vel_0
Time_Shift_16
Note_On_42_Vel_0
Note_On_92_Vel_0
Time_Shift_8
Note_On_42_Vel_79
Time_Shift_2
Note_On_89_Vel_85
Time_Shift_2
Note_On_88_Vel_68
Time_Shift_11
Note_On_88_Vel_0
Time_Shift_23
Sustain_On
Time_Shift_110
Note_On_86_Vel_84
Time_Shift_143
Note_On_83_Vel_79
Time_Shift_8
Note_On_50_Vel_62
Time_Shift_123
Note_On_80_Vel_83
Time_Shift_143
Note_On_77_Vel_75
Time_Shift_6
Note_On_53_Vel_66
Time_Shift_130
Note_On_74_Vel_82
Time_Shift_140
Note_On_71_Vel_78
Time_Shift_22
Note_On_59_Vel_65
Time_Shift_109
Note_On_68_Vel_67
Time_Shift_151
Note_On_65_Vel_71
Time_Shift_6
Note_On_53_Vel_0
Time_Shift_5
Note_On_53_Vel_55
Time_Shift_121
Note_On_74_Vel_0
Time_Shift_2
Note_On_62_Vel_72
Time_Shift_163
Note_On_65_Vel_0
Time_Shift_11
Note_On_65_Vel_88
Time_Shift_6
Note_On_50_Vel_0
Note_On_86_Vel_0
Time_Shift_1
Note_On_89_Vel_0
Note_On_42_Vel_0
Note_On_83_Vel_0
Time_Shift_1
Note_On_59_Vel_0
Note_On_71_Vel_0
Note_On_68_Vel_0
Note_On_62_Vel_0
Note_On_77_Vel_0
Sustain_Off
Note_On_80_Vel_0
Note_On_53_Vel_0
Time_Shift_24
Note_On_49_Vel_64
Time_Shift_5
Note_On_61_Vel_53
Time_Shift_37
Sustain_On
Time_Shift_107
Note_On_59_Vel_73
Time_Shift_271
Note_On_66_Vel_89
Time_Shift_34
Sustain_Off
Time_Shift_3
Note_On_42_Vel_64
Time_Shift_11
Note_On_49_Vel_0
Time_Shift_1
Note_On_61_Vel_0
Time_Shift_2
Note_On_59_Vel_0
Time_Shift_24
Note_On_65_Vel_0
Time_Shift_115
Sustain_On
Time_Shift_150
Note_On_57_Vel_66
Time_Shift_171
Note_On_61_Vel_76
Time_Shift_27
Note_On_49_Vel_50
Time_Shift_105
Note_On_66_Vel_0
Time_Shift_12
Note_On_66_Vel_74
Time_Shift_147
Note_On_69_Vel_68
Time_Shift_4
Note_On_54_Vel_64
Time_Shift_123
Note_On_73_Vel_86
Time_Shift_152
Note_On_78_Vel_84
Time_Shift_15
Note_On_57_Vel_0
Time_Shift_5
Note_On_57_Vel_65
Time_Shift_106
Note_On_81_Vel_85
Time_Shift_149
Note_On_85_Vel_73
Time_Shift_9
Note_On_54_Vel_0
Time_Shift_4
Note_On_54_Vel_61
Time_Shift_131
Note_On_93_Vel_75
Time_Shift_126
Note_On_49_Vel_0
Time_Shift_11
Note_On_49_Vel_61
Time_Shift_1
Note_On_92_Vel_80
Time_Shift_146
Note_On_90_Vel_76
Time_Shift_92
Sustain_Off
Time_Shift_1
Note_On_69_Vel_0
Note_On_93_Vel_0
Time_Shift_1
Note_On_73_Vel_0
Note_On_81_Vel_0
Note_On_85_Vel_0
Note_On_57_Vel_0
Note_On_66_Vel_0
Note_On_61_Vel_0
Time_Shift_1
Note_On_54_Vel_0
Note_On_42_Vel_0
Time_Shift_1
Note_On_78_Vel_0
Time_Shift_23
Note_On_49_Vel_0
Note_On_92_Vel_0
Time_Shift_14
Note_On_89_Vel_83
Time_Shift_6
Note_On_42_Vel_67
Time_Shift_26
Sustain_On
Time_Shift_46
Note_On_90_Vel_0
Time_Shift_57
Note_On_86_Vel_84
Time_Shift_138
Note_On_50_Vel_62
Time_Shift_1
Note_On_83_Vel_78
Time_Shift_124
Note_On_80_Vel_79
Time_Shift_141
Note_On_77_Vel_76
Time_Shift_11
Note_On_53_Vel_51
Time_Shift_113
Note_On_74_Vel_82
Time_Shift_148
Note_On_71_Vel_80
Time_Shift_2
Note_On_59_Vel_65
Time_Shift_114
Note_On_68_Vel_76
Time_Shift_149
Note_On_53_Vel_0
Time_Shift_1
Note_On_65_Vel_70
Time_Shift_11
Note_On_53_Vel_59
Time_Shift_111
Note_On_74_Vel_0
Time_Shift_5
Note_On_74_Vel_71
Time_Shift_1
Note_On_62_Vel_74
Time_Shift_133
Note_On_65_Vel_0
Time_Shift_1
Sustain_Off
Time_Shift_2
Note_On_68_Vel_0
Note_On_86_Vel_0
Note_On_89_Vel_0
Note_On_77_Vel_0
Note_On_42_Vel_0
Note_On_71_Vel_0
Note_On_53_Vel_0
Note_On_50_Vel_0
Note_On_59_Vel_0
Note_On_80_Vel_0
Note_On_83_Vel_0
Time_Shift_1
Note_On_74_Vel_0
Note_On_62_Vel_0
Time_Shift_7
Note_On_65_Vel_84
Time_Shift_24
Note_On_49_Vel_62
Time_Shift_49
Sustain_On
Time_Shift_75
Note_On_59_Vel_70
Time_Shift_163
Sustain_Off
Time_Shift_37
Note_On_78_Vel_83
Time_Shift_3
Note_On_66_Vel_92
Time_Shift_6
Note_On_78_Vel_0
Time_Shift_21
Note_On_49_Vel_0
Time_Shift_4
Note_On_59_Vel_0
Time_Shift_1
Note_On_65_Vel_0
Time_Shift_2
Note_On_42_Vel_64
Time_Shift_126
Sustain_On
Time_Shift_61
Note_On_57_Vel_66
Time_Shift_153
Note_On_61_Vel_79
Time_Shift_29
Note_On_49_Vel_53
Time_Shift_102
Note_On_66_Vel_0
Time_Shift_8
Note_On_66_Vel_73
Time_Shift_146
Note_On_57_Vel_0
Time_Shift_4
Note_On_69_Vel_80
Time_Shift_6
Note_On_57_Vel_67
Time_Shift_138
Note_On_74_Vel_80
Time_Shift_131
Sustain_Off
Time_Shift_1
Note_On_69_Vel_0
Note_On_49_Vel_0
Note_On_61_Vel_0
Note_On_66_Vel_0
Note_On_74_Vel_0
Time_Shift_2
Note_On_73_Vel_78
Time_Shift_17
Note_On_42_Vel_0
Note_On_57_Vel_0
Time_Shift_12
Note_On_42_Vel_66
Time_Shift_88
Sustain_On
Time_Shift_37
Note_On_71_Vel_80
Time_Shift_144
Note_On_49_Vel_67
Time_Shift_7
Note_On_68_Vel_80
Time_Shift_138
Note_On_65_Vel_67
Time_Shift_135
Note_On_65_Vel_0
Time_Shift_11
Note_On_65_Vel_83
Time_Shift_4
Note_On_59_Vel_59
Time_Shift_172
Note_On_61_Vel_72
Time_Shift_228
Note_On_42_Vel_0
Time_Shift_7
Sustain_Off
Note_On_66_Vel_81
Time_Shift_1
Note_On_73_Vel_0
Note_On_78_Vel_80
Time_Shift_2
Note_On_42_Vel_68
Time_Shift_7
Note_On_73_Vel_61
Time_Shift_10
Note_On_49_Vel_0
Note_On_59_Vel_0
Note_On_65_Vel_0
Time_Shift_5
Note_On_71_Vel_0
Time_Shift_1
Note_On_61_Vel_0
Time_Shift_2
Note_On_68_Vel_0
Time_Shift_103
Sustain_On
Time_Shift_129
Note_On_57_Vel_69
Time_Shift_2
Note_On_69_Vel_62
Time_Shift_7
Note_On_69_Vel_0
Time_Shift_146
Note_On_73_Vel_0
Time_Shift_6
Note_On_73_Vel_72
Time_Shift_2
Note_On_61_Vel_77
Time_Shift_6
Note_On_49_Vel_57
Time_Shift_25
Note_On_78_Vel_0
Time_Shift_99
Note_On_66_Vel_0
Time_Shift_10
Note_On_66_Vel_72
Time_Shift_136
Note_On_57_Vel_0
Time_Shift_8
Note_On_57_Vel_69
Time_Shift_3
Note_On_69_Vel_82
Time_Shift_142
Note_On_74_Vel_79
Time_Shift_112
Sustain_Off
Time_Shift_5
Note_On_49_Vel_0
Time_Shift_1
Note_On_61_Vel_0
Note_On_66_Vel_0
Time_Shift_1
Note_On_57_Vel_0
Note_On_69_Vel_0
Time_Shift_7
Note_On_74_Vel_0
Time_Shift_6
Note_On_42_Vel_0
Time_Shift_15
Note_On_73_Vel_0
Time_Shift_4
Note_On_73_Vel_74
Time_Shift_2
Note_On_42_Vel_63
Time_Shift_78
Sustain_On
Time_Shift_79
Note_On_71_Vel_80
Time_Shift_173
Note_On_49_Vel_61
Time_Shift_3
Note_On_68_Vel_77
Time_Shift_167
Note_On_65_Vel_64
Time_Shift_247
Note_On_65_Vel_0
Time_Shift_4
Note_On_65_Vel_87
Time_Shift_29
Note_On_59_Vel_66
Time_Shift_258
Note_On_73_Vel_0
Time_Shift_7
Note_On_61_Vel_67
Time_Shift_1
Note_On_73_Vel_60
Time_Shift_405
Note_On_66_Vel_86
Time_Shift_54
Note_On_49_Vel_0
Time_Shift_1
Note_On_59_Vel_0
Note_On_65_Vel_0
Time_Shift_1
Note_On_42_Vel_0
Note_On_71_Vel_0
Time_Shift_1
Note_On_61_Vel_0
Note_On_73_Vel_0
Time_Shift_1
Sustain_Off
Time_Shift_1
Note_On_68_Vel_0
Time_Shift_5
Note_On_42_Vel_55
Time_Shift_84
Sustain_On
Time_Shift_257
Note_On_57_Vel_70
Time_Shift_185
Note_On_61_Vel_78
Time_Shift_142
Note_On_66_Vel_0
Time_Shift_7
Note_On_66_Vel_73
Time_Shift_146
Note_On_57_Vel_0
Time_Shift_5
Note_On_69_Vel_81
Time_Shift_6
Note_On_57_Vel_65
Time_Shift_17
Note_On_49_Vel_53
Time_Shift_115
Note_On_73_Vel_86
Time_Shift_146
Note_On_78_Vel_80
Time_Shift_131
Note_On_81_Vel_81
Time_Shift_118
Note_On_42_Vel_0
Time_Shift_33
Note_On_85_Vel_72
Time_Shift_147
Note_On_93_Vel_82
Time_Shift_148
Note_On_92_Vel_86
Time_Shift_157
Note_On_90_Vel_83
Time_Shift_137
Note_On_85_Vel_0
Time_Shift_11
Note_On_85_Vel_77
Time_Shift_143
Note_On_81_Vel_0
Time_Shift_4
Note_On_81_Vel_73
Time_Shift_136
Note_On_80_Vel_78
Time_Shift_144
Note_On_78_Vel_0
Time_Shift_5
Note_On_78_Vel_75
Time_Shift_148
Note_On_73_Vel_0
Time_Shift_7
Note_On_73_Vel_79
Time_Shift_132
Note_On_69_Vel_0
Time_Shift_7
Note_On_69_Vel_71
Time_Shift_169
Note_On_66_Vel_0
Time_Shift_11
Note_On_66_Vel_74
Time_Shift_174
Note_On_61_Vel_0
Time_Shift_9
Note_On_61_Vel_67
Time_Shift_190
Note_On_57_Vel_0
Time_Shift_6
Note_On_57_Vel_73
Time_Shift_238
Note_On_54_Vel_73
Time_Shift_302
Note_On_49_Vel_0
Time_Shift_11
Note_On_49_Vel_66
Time_Shift_415
Note_On_37_Vel_61
Time_Shift_534
Note_On_69_Vel_0
Note_On_73_Vel_0
Note_On_78_Vel_0
Note_On_80_Vel_0
Note_On_81_Vel_0
Note_On_85_Vel_0
Note_On_90_Vel_0
Note_On_92_Vel_0
Note_On_93_Vel_0
Time_Shift_226
Note_On_30_Vel_65
Time_Shift_2500
Note_On_66_Vel_0
Time_Shift_184
Note_On_61_Vel_0
Time_Shift_200
Note_On_57_Vel_0
Time_Shift_238
Note_On_54_Vel_0
Time_Shift_38
Note_On_49_Vel_0
Time_Shift_13
Sustain_Off
Time_Shift_18
Note_On_30_Vel_0
Note_On_37_Vel_0
