Time_Shift_168
Sustain_On
Time_Shift_6
Note_On_44_Vel_50
Time_Shift_11
Note_On_68_Vel_77
Time_Shift_11
Note_On_60_Vel_31
Time_Shift_73
Note_On_51_Vel_43
Time_Shift_76
Note_On_60_Vel_0
Time_Shift_45
Note_On_63_Vel_67
Time_Shift_3
Note_On_60_Vel_50
Time_Shift_60
Note_On_51_Vel_0
Note_On_68_Vel_0
Time_Shift_4
Note_On_68_Vel_75
Note_On_51_Vel_58
Time_Shift_83
Note_On_65_Vel_63
Time_Shift_24
Note_On_61_Vel_54
Time_Shift_38
Sustain_Off
Note_On_63_Vel_0
Time_Shift_1
Note_On_60_Vel_0
Time_Shift_1
Note_On_65_Vel_0
Time_Shift_1
Note_On_61_Vel_0
Note_On_44_Vel_0
Time_Shift_1
Note_On_51_Vel_0
Time_Shift_5
Note_On_51_Vel_54
Time_Shift_1
Note_On_70_Vel_76
Time_Shift_10
Note_On_68_Vel_0
Time_Shift_76
Note_On_67_Vel_66
Time_Shift_7
Note_On_44_Vel_54
Time_Shift_22
Note_On_70_Vel_0
Time_Shift_20
Note_On_67_Vel_0
Time_Shift_22
Note_On_75_Vel_65
Time_Shift_14
Note_On_51_Vel_0
Time_Shift_10
Note_On_51_Vel_41
Time_Shift_59
Note_On_44_Vel_0
Time_Shift_4
Note_On_72_Vel_65
Time_Shift_6
Note_On_44_Vel_57
Time_Shift_21
Note_On_51_Vel_0
Time_Shift_38
Sustain_On
Time_Shift_5
Note_On_68_Vel_71
Note_On_51_Vel_57
Time_Shift_11
Note_On_72_Vel_0
Time_Shift_15
Note_On_75_Vel_0
Time_Shift_2
Note_On_56_Vel_43
Time_Shift_39
Note_On_63_Vel_77
Time_Shift_8
Note_On_60_Vel_52
Time_Shift_5
Note_On_44_Vel_0
Time_Shift_35
Note_On_63_Vel_0
Time_Shift_3
Note_On_60_Vel_0
Sustain_Off
Time_Shift_8
Note_On_56_Vel_0
Time_Shift_7
Note_On_68_Vel_0
Time_Shift_8
Note_On_51_Vel_0
Time_Shift_3
Note_On_68_Vel_80
Time_Shift_4
Note_On_51_Vel_56
Time_Shift_36
Note_On_51_Vel_0
Time_Shift_16
Note_On_68_Vel_0
Time_Shift_7
Note_On_65_Vel_73
Time_Shift_30
Note_On_61_Vel_59
Time_Shift_31
Note_On_65_Vel_0
Time_Shift_13
Note_On_70_Vel_76
Time_Shift_12
Note_On_51_Vel_61
Time_Shift_9
Note_On_61_Vel_0
Time_Shift_47
Note_On_51_Vel_0
Time_Shift_5
Note_On_70_Vel_0
Time_Shift_1
Note_On_67_Vel_74
Time_Shift_30
Note_On_44_Vel_60
Time_Shift_11
Note_On_67_Vel_0
Time_Shift_34
Note_On_63_Vel_49
Time_Shift_13
Note_On_75_Vel_59
Time_Shift_32
Note_On_51_Vel_39
Time_Shift_23
Note_On_56_Vel_40
Time_Shift_4
Note_On_56_Vel_0
Time_Shift_23
Note_On_51_Vel_0
Time_Shift_17
Note_On_72_Vel_64
Time_Shift_41
Note_On_51_Vel_42
Time_Shift_3
Sustain_On
Time_Shift_29
Note_On_68_Vel_60
Time_Shift_64
Note_On_63_Vel_0
Time_Shift_7
Note_On_63_Vel_73
Time_Shift_11
Note_On_60_Vel_53
Time_Shift_58
Note_On_68_Vel_0
Time_Shift_8
Note_On_51_Vel_0
Time_Shift_4
Note_On_68_Vel_83
Time_Shift_2
Note_On_51_Vel_60
Time_Shift_57
Note_On_60_Vel_0
Note_On_51_Vel_0
Time_Shift_1
Sustain_Off
Note_On_63_Vel_0
Note_On_72_Vel_0
Time_Shift_1
Note_On_68_Vel_0
Time_Shift_4
Note_On_75_Vel_0
Time_Shift_10
Note_On_65_Vel_77
Time_Shift_13
Note_On_44_Vel_0
Time_Shift_5
Note_On_44_Vel_57
Time_Shift_58
Note_On_70_Vel_91
Time_Shift_6
Sustain_On
Time_Shift_7
Note_On_51_Vel_59
Time_Shift_68
Note_On_67_Vel_85
Time_Shift_23
Note_On_61_Vel_71
Time_Shift_50
Note_On_75_Vel_93
Time_Shift_37
Note_On_51_Vel_0
Time_Shift_7
Note_On_67_Vel_0
Time_Shift_1
Note_On_70_Vel_0
Note_On_44_Vel_0
Time_Shift_1
Note_On_61_Vel_0
Note_On_51_Vel_60
Time_Shift_1
Note_On_65_Vel_0
Time_Shift_1
Sustain_Off
Time_Shift_2
Note_On_75_Vel_0
Time_Shift_53
Note_On_67_Vel_83
Time_Shift_18
Sustain_On
Time_Shift_6
Note_On_61_Vel_48
Time_Shift_10
Note_On_51_Vel_0
Time_Shift_2
Note_On_63_Vel_43
Time_Shift_71
Note_On_51_Vel_58
Time_Shift_7
Note_On_77_Vel_68
Time_Shift_65
Note_On_61_Vel_0
Time_Shift_3
Note_On_75_Vel_74
Time_Shift_9
Note_On_61_Vel_60
Time_Shift_42
Note_On_67_Vel_0
Time_Shift_12
Note_On_67_Vel_77
Time_Shift_19
Note_On_51_Vel_0
Time_Shift_8
Note_On_51_Vel_58
Time_Shift_65
Note_On_68_Vel_84
Time_Shift_1
Note_On_77_Vel_0
Time_Shift_1
Note_On_51_Vel_0
Note_On_75_Vel_0
Time_Shift_1
Note_On_61_Vel_0
Time_Shift_4
Sustain_Off
Time_Shift_12
Note_On_67_Vel_0
Time_Shift_8
Note_On_63_Vel_0
Time_Shift_31
Note_On_68_Vel_0
Time_Shift_21
Note_On_70_Vel_68
Time_Shift_2
Note_On_51_Vel_53
Time_Shift_65
Note_On_51_Vel_0
Time_Shift_2
Note_On_70_Vel_0
Time_Shift_7
Note_On_60_Vel_57
Time_Shift_5
Note_On_68_Vel_73
Time_Shift_27
Note_On_60_Vel_0
Time_Shift_13
Note_On_68_Vel_0
Time_Shift_38
Note_On_51_Vel_47
Time_Shift_8
Note_On_63_Vel_53
Time_Shift_27
Sustain_On
Time_Shift_65
Note_On_68_Vel_63
Time_Shift_57
Note_On_51_Vel_0
Time_Shift_10
Note_On_51_Vel_46
Time_Shift_101
Note_On_68_Vel_0
Time_Shift_3
Sustain_Off
Time_Shift_9
Note_On_63_Vel_0
Time_Shift_11
Note_On_63_Vel_58
Note_On_48_Vel_38
Time_Shift_5
Note_On_48_Vel_0
Time_Shift_7
Note_On_51_Vel_0
Time_Shift_39
Note_On_63_Vel_0
Time_Shift_16
Note_On_68_Vel_68
Time_Shift_1
Note_On_51_Vel_51
Time_Shift_32
Note_On_68_Vel_0
Time_Shift_5
Note_On_51_Vel_0
Time_Shift_31
Note_On_65_Vel_55
Time_Shift_31
Note_On_61_Vel_49
Time_Shift_10
Note_On_65_Vel_0
Time_Shift_16
Note_On_61_Vel_0
Time_Shift_15
Note_On_70_Vel_67
Time_Shift_25
Note_On_51_Vel_53
Time_Shift_53
Note_On_67_Vel_57
Time_Shift_11
Note_On_70_Vel_0
Time_Shift_26
Note_On_67_Vel_0
Time_Shift_9
Note_On_51_Vel_0
Time_Shift_1
Note_On_44_Vel_54
Time_Shift_27
Note_On_75_Vel_62
Time_Shift_36
Sustain_On
Time_Shift_27
Note_On_51_Vel_40
Time_Shift_58
Note_On_44_Vel_0
Time_Shift_4
Note_On_72_Vel_53
Time_Shift_3
Note_On_44_Vel_42
Time_Shift_54
Note_On_51_Vel_0
Time_Shift_12
Note_On_51_Vel_46
Time_Shift_1
Note_On_68_Vel_62
Time_Shift_26
Note_On_56_Vel_39
Time_Shift_54
Note_On_63_Vel_59
Time_Shift_4
Note_On_60_Vel_39
Time_Shift_57
Note_On_68_Vel_0
Time_Shift_8
Note_On_68_Vel_65
Time_Shift_4
Note_On_72_Vel_0
Time_Shift_2
Note_On_44_Vel_0
Time_Shift_1
Note_On_51_Vel_0
Time_Shift_2
Note_On_60_Vel_0
Time_Shift_2
Sustain_Off
Time_Shift_3
Note_On_51_Vel_45
Time_Shift_9
Note_On_75_Vel_0
Time_Shift_23
Note_On_63_Vel_0
Time_Shift_15
Note_On_56_Vel_0
Time_Shift_8
Note_On_68_Vel_0
Time_Shift_10
Note_On_65_Vel_58
Time_Shift_32
Note_On_61_Vel_42
Time_Shift_2
Note_On_49_Vel_40
Time_Shift_17
Sustain_On
Time_Shift_23
Note_On_51_Vel_0
Time_Shift_7
Note_On_51_Vel_41
Time_Shift_1
Note_On_70_Vel_64
Time_Shift_31
Note_On_51_Vel_0
Time_Shift_4
Note_On_51_Vel_29
Time_Shift_34
Note_On_51_Vel_0
Time_Shift_9
Note_On_51_Vel_40
Time_Shift_2
Note_On_67_Vel_53
Time_Shift_46
Note_On_44_Vel_48
Time_Shift_30
Note_On_75_Vel_58
Time_Shift_72
Sustain_Off
Time_Shift_1
Note_On_67_Vel_0
Time_Shift_2
Note_On_70_Vel_0
Note_On_65_Vel_0
Time_Shift_1
Note_On_75_Vel_0
Note_On_51_Vel_0
Time_Shift_6
Note_On_49_Vel_0
Time_Shift_2
Note_On_72_Vel_58
Time_Shift_6
Note_On_44_Vel_0
Time_Shift_7
Note_On_61_Vel_0
Time_Shift_3
Note_On_44_Vel_51
Time_Shift_61
Note_On_68_Vel_67
Time_Shift_1
Note_On_51_Vel_51
Time_Shift_4
Sustain_On
Time_Shift_81
Note_On_63_Vel_63
Time_Shift_58
Note_On_68_Vel_0
Time_Shift_7
Note_On_51_Vel_0
Time_Shift_4
Note_On_68_Vel_69
Note_On_51_Vel_44
Time_Shift_19
Note_On_44_Vel_0
Time_Shift_6
Note_On_44_Vel_39
Time_Shift_14
Sustain_Off
Time_Shift_2
Note_On_63_Vel_0
Note_On_68_Vel_0
Time_Shift_17
Note_On_72_Vel_0
Time_Shift_23
Note_On_44_Vel_0
Note_On_51_Vel_0
Time_Shift_6
Note_On_44_Vel_48
Time_Shift_4
Note_On_65_Vel_59
Time_Shift_59
Sustain_On
Time_Shift_11
Note_On_51_Vel_57
Time_Shift_1
Note_On_70_Vel_66
Time_Shift_85
Note_On_67_Vel_54
Time_Shift_22
Note_On_61_Vel_47
Time_Shift_4
Note_On_51_Vel_0
Time_Shift_11
Note_On_51_Vel_49
Time_Shift_34
Sustain_Off
Time_Shift_2
Note_On_75_Vel_58
Time_Shift_1
Note_On_65_Vel_0
Time_Shift_1
Note_On_67_Vel_0
Note_On_61_Vel_0
Note_On_70_Vel_0
Time_Shift_112
Note_On_67_Vel_36
Time_Shift_8
Sustain_On
Time_Shift_7
Note_On_44_Vel_0
Time_Shift_8
Note_On_51_Vel_0
Sustain_Off
Time_Shift_2
Note_On_44_Vel_37
Time_Shift_96
Note_On_51_Vel_37
Time_Shift_10
Sustain_On
Time_Shift_11
Note_On_77_Vel_42
Time_Shift_65
Note_On_75_Vel_0
Time_Shift_7
Note_On_75_Vel_56
Time_Shift_24
Note_On_61_Vel_39
Note_On_51_Vel_0
Time_Shift_5
Note_On_51_Vel_29
Time_Shift_41
Note_On_67_Vel_0
Time_Shift_12
Note_On_67_Vel_48
Time_Shift_88
Note_On_44_Vel_0
Time_Shift_3
Note_On_68_Vel_68
Time_Shift_1
Note_On_44_Vel_55
Time_Shift_64
Note_On_70_Vel_73
Time_Shift_9
Note_On_51_Vel_0
Time_Shift_6
Note_On_51_Vel_51
Time_Shift_63
Note_On_68_Vel_0
Time_Shift_4
Note_On_68_Vel_68
Time_Shift_14
Note_On_60_Vel_48
Time_Shift_51
Note_On_70_Vel_0
Time_Shift_10
Note_On_70_Vel_87
Time_Shift_117
Note_On_48_Vel_61
Time_Shift_31
Note_On_61_Vel_0
Sustain_Off
Note_On_68_Vel_0
Note_On_75_Vel_0
Note_On_60_Vel_0
Time_Shift_1
Note_On_77_Vel_0
Note_On_44_Vel_0
Time_Shift_2
Note_On_70_Vel_0
Time_Shift_7
Note_On_72_Vel_72
Time_Shift_4
Note_On_70_Vel_62
Time_Shift_5
Note_On_51_Vel_0
Note_On_67_Vel_0
Time_Shift_61
Sustain_On
Time_Shift_78
Note_On_55_Vel_64
Time_Shift_18
Note_On_73_Vel_79
Time_Shift_112
Note_On_70_Vel_0
Note_On_72_Vel_0
Time_Shift_3
Note_On_64_Vel_61
Time_Shift_2
Note_On_70_Vel_73
Time_Shift_4
Note_On_72_Vel_81
Time_Shift_44
Note_On_55_Vel_0
Time_Shift_11
Note_On_55_Vel_68
Time_Shift_26
Note_On_79_Vel_74
Time_Shift_90
Note_On_73_Vel_0
Note_On_70_Vel_0
Note_On_64_Vel_0
Time_Shift_1
Note_On_79_Vel_0
Time_Shift_1
Note_On_48_Vel_0
Time_Shift_2
Note_On_72_Vel_0
Time_Shift_1
Sustain_Off
Time_Shift_3
Note_On_72_Vel_73
Time_Shift_1
Note_On_68_Vel_67
Time_Shift_3
Note_On_65_Vel_55
Time_Shift_2
Note_On_53_Vel_59
Time_Shift_5
Note_On_55_Vel_0
Time_Shift_35
Note_On_68_Vel_0
Time_Shift_19
Note_On_65_Vel_0
Time_Shift_8
Sustain_On
Time_Shift_3
Note_On_80_Vel_82
Time_Shift_37
Note_On_59_Vel_44
Time_Shift_6
Note_On_53_Vel_0
Note_On_72_Vel_0
Time_Shift_7
Sustain_Off
Time_Shift_54
Note_On_72_Vel_81
Time_Shift_2
Note_On_65_Vel_71
Time_Shift_2
Note_On_68_Vel_63
Time_Shift_27
Sustain_On
Time_Shift_56
Note_On_60_Vel_69
Time_Shift_1
Note_On_77_Vel_80
Time_Shift_51
Note_On_65_Vel_0
Sustain_Off
Time_Shift_1
Note_On_68_Vel_0
Time_Shift_1
Note_On_80_Vel_0
Time_Shift_13
Note_On_59_Vel_0
Time_Shift_15
Note_On_72_Vel_0
Time_Shift_4
Note_On_70_Vel_82
Note_On_48_Vel_69
Time_Shift_1
Note_On_72_Vel_73
Time_Shift_26
Sustain_On
Time_Shift_23
Note_On_60_Vel_0
Time_Shift_22
Note_On_73_Vel_90
Time_Shift_9
Note_On_70_Vel_0
Time_Shift_4
Note_On_70_Vel_64
Time_Shift_8
Note_On_53_Vel_43
Time_Shift_11
Note_On_53_Vel_0
Time_Shift_46
Note_On_70_Vel_0
Note_On_72_Vel_0
Time_Shift_6
Note_On_72_Vel_78
Time_Shift_5
Note_On_70_Vel_82
Time_Shift_16
Note_On_64_Vel_64
Time_Shift_67
Note_On_60_Vel_84
Time_Shift_1
Note_On_79_Vel_86
Time_Shift_58
Note_On_48_Vel_0
Time_Shift_21
Note_On_53_Vel_74
Time_Shift_18
Note_On_72_Vel_0
Time_Shift_10
Note_On_72_Vel_85
Time_Shift_1
Sustain_Off
Time_Shift_5
Note_On_73_Vel_0
Time_Shift_1
Note_On_68_Vel_82
Time_Shift_1
Note_On_70_Vel_0
Time_Shift_1
Note_On_64_Vel_0
Time_Shift_2
Note_On_79_Vel_0
Time_Shift_25
Note_On_60_Vel_0
Time_Shift_15
Note_On_77_Vel_0
Time_Shift_16
Sustain_On
Time_Shift_26
Note_On_60_Vel_75
Time_Shift_1
Note_On_80_Vel_92
Time_Shift_103
Note_On_68_Vel_0
Note_On_72_Vel_0
Time_Shift_4
Note_On_72_Vel_93
Time_Shift_1
Note_On_68_Vel_81
Time_Shift_103
Note_On_60_Vel_0
Note_On_68_Vel_0
Time_Shift_4
Note_On_68_Vel_68
Time_Shift_5
Note_On_60_Vel_70
Note_On_77_Vel_88
Time_Shift_121
Note_On_68_Vel_0
Time_Shift_5
Note_On_68_Vel_63
Time_Shift_3
Note_On_72_Vel_0
Time_Shift_6
Note_On_72_Vel_62
Time_Shift_72
Note_On_38_Vel_62
Time_Shift_1
Note_On_50_Vel_66
Time_Shift_13
Note_On_80_Vel_0
Time_Shift_5
Note_On_80_Vel_87
Time_Shift_56
Note_On_53_Vel_0
Time_Shift_6
Note_On_53_Vel_52
Time_Shift_2
Note_On_72_Vel_0
Time_Shift_3
Note_On_77_Vel_0
Note_On_68_Vel_0
Time_Shift_2
Sustain_Off
Time_Shift_6
Note_On_72_Vel_60
Time_Shift_5
Note_On_60_Vel_0
Time_Shift_15
Note_On_38_Vel_0
Time_Shift_77
Sustain_On
Time_Shift_60
Note_On_59_Vel_62
Time_Shift_5
Note_On_68_Vel_79
Time_Shift_138
Note_On_79_Vel_68
Time_Shift_18
Note_On_77_Vel_57
Time_Shift_3
Note_On_65_Vel_51
Time_Shift_83
Note_On_77_Vel_0
Time_Shift_7
Note_On_77_Vel_83
Time_Shift_24
Note_On_59_Vel_0
Time_Shift_8
Note_On_59_Vel_54
Time_Shift_74
Note_On_75_Vel_77
Time_Shift_22
Note_On_51_Vel_58
Time_Shift_8
Note_On_53_Vel_0
Note_On_68_Vel_0
Note_On_59_Vel_0
Time_Shift_1
Note_On_65_Vel_0
Note_On_50_Vel_0
Time_Shift_1
Note_On_79_Vel_0
Time_Shift_3
Sustain_Off
Time_Shift_5
Note_On_72_Vel_0
Note_On_80_Vel_0
Time_Shift_8
Note_On_77_Vel_0
Time_Shift_36
Note_On_77_Vel_64
Time_Shift_6
Note_On_68_Vel_78
Time_Shift_4
Sustain_On
Time_Shift_11
Note_On_60_Vel_72
Time_Shift_74
Note_On_51_Vel_0
Time_Shift_6
Note_On_51_Vel_53
Time_Shift_9
Note_On_74_Vel_81
Time_Shift_2
Note_On_63_Vel_62
Time_Shift_13
Note_On_77_Vel_0
Time_Shift_70
Note_On_60_Vel_0
Note_On_75_Vel_0
Time_Shift_4
Note_On_75_Vel_74
Time_Shift_1
Note_On_60_Vel_54
Time_Shift_46
Note_On_74_Vel_0
Note_On_60_Vel_0
Time_Shift_2
Note_On_68_Vel_0
Time_Shift_1
Note_On_63_Vel_0
Note_On_75_Vel_0
Time_Shift_2
Sustain_Off
Time_Shift_13
Note_On_51_Vel_0
Time_Shift_4
Note_On_51_Vel_51
Time_Shift_17
Note_On_77_Vel_82
Time_Shift_40
Sustain_On
Time_Shift_64
Note_On_67_Vel_60
Time_Shift_3
Note_On_58_Vel_59
Time_Shift_64
Note_On_51_Vel_0
Time_Shift_8
Note_On_51_Vel_47
Time_Shift_5
Note_On_75_Vel_71
Time_Shift_26
Note_On_63_Vel_54
Time_Shift_61
Note_On_58_Vel_0
Time_Shift_7
Note_On_73_Vel_74
Time_Shift_1
Note_On_58_Vel_54
Time_Shift_139
Note_On_71_Vel_64
Time_Shift_41
Note_On_51_Vel_0
Note_On_67_Vel_0
Note_On_73_Vel_0
Sustain_Off
Time_Shift_1
Note_On_77_Vel_0
Note_On_75_Vel_0
Note_On_58_Vel_0
Time_Shift_72
Sustain_On
Time_Shift_49
Note_On_68_Vel_59
Time_Shift_24
Note_On_51_Vel_41
Time_Shift_120
Note_On_72_Vel_67
Time_Shift_20
Note_On_60_Vel_40
Time_Shift_117
Note_On_68_Vel_0
Time_Shift_8
Note_On_68_Vel_65
Time_Shift_102
Note_On_71_Vel_0
Time_Shift_2
Sustain_Off
Time_Shift_3
Note_On_63_Vel_0
Time_Shift_53
Note_On_48_Vel_47
Time_Shift_47
Sustain_On
Time_Shift_28
Note_On_70_Vel_61
Time_Shift_162
Note_On_73_Vel_65
Time_Shift_25
Note_On_60_Vel_0
Time_Shift_10
Note_On_60_Vel_31
Time_Shift_105
Note_On_70_Vel_0
Time_Shift_8
Note_On_72_Vel_0
Time_Shift_3
Note_On_70_Vel_54
Time_Shift_5
Note_On_51_Vel_0
Note_On_64_Vel_51
Time_Shift_3
Note_On_72_Vel_68
Time_Shift_96
Note_On_60_Vel_0
Time_Shift_9
Note_On_60_Vel_58
Time_Shift_1
Note_On_79_Vel_67
Time_Shift_49
Note_On_70_Vel_0
Time_Shift_1
Note_On_72_Vel_0
Note_On_73_Vel_0
Time_Shift_3
Note_On_64_Vel_0
Note_On_48_Vel_0
Time_Shift_4
Sustain_Off
Time_Shift_10
Note_On_68_Vel_0
Time_Shift_4
Note_On_79_Vel_0
Time_Shift_27
Sustain_On
Time_Shift_20
Note_On_72_Vel_77
Note_On_68_Vel_71
Time_Shift_1
Note_On_53_Vel_53
Time_Shift_96
Note_On_80_Vel_75
Time_Shift_6
Note_On_60_Vel_0
Time_Shift_11
Note_On_60_Vel_67
Time_Shift_81
Note_On_68_Vel_0
Note_On_72_Vel_0
Time_Shift_5
Note_On_68_Vel_77
Time_Shift_1
Note_On_65_Vel_64
Time_Shift_3
Note_On_53_Vel_0
Note_On_72_Vel_84
Time_Shift_68
Note_On_60_Vel_0
Time_Shift_9
Note_On_60_Vel_61
Time_Shift_9
Note_On_77_Vel_86
Time_Shift_70
Note_On_68_Vel_0
Note_On_80_Vel_0
Note_On_60_Vel_0
Sustain_Off
Time_Shift_2
Note_On_77_Vel_0
Time_Shift_12
Note_On_48_Vel_78
Time_Shift_5
Note_On_72_Vel_0
Time_Shift_5
Note_On_72_Vel_83
Time_Shift_3
Note_On_65_Vel_0
Note_On_70_Vel_89
Time_Shift_29
Note_On_48_Vel_0
Time_Shift_2
Sustain_On
Time_Shift_51
Note_On_73_Vel_94
Time_Shift_6
Note_On_60_Vel_71
Time_Shift_73
Note_On_72_Vel_0
Time_Shift_6
Note_On_72_Vel_87
Time_Shift_2
Note_On_70_Vel_0
Time_Shift_2
Note_On_64_Vel_81
Time_Shift_2
Note_On_70_Vel_84
Time_Shift_73
Note_On_60_Vel_0
Time_Shift_10
Note_On_60_Vel_81
Time_Shift_7
Note_On_79_Vel_88
Time_Shift_83
Note_On_72_Vel_0
Time_Shift_4
Note_On_53_Vel_76
Time_Shift_6
Note_On_72_Vel_87
Time_Shift_1
Note_On_73_Vel_0
Note_On_70_Vel_0
Time_Shift_2
Note_On_79_Vel_0
Note_On_64_Vel_0
Time_Shift_1
Note_On_68_Vel_90
Time_Shift_3
Sustain_Off
Time_Shift_29
Note_On_60_Vel_0
Time_Shift_23
Sustain_On
Time_Shift_53
Note_On_80_Vel_94
Time_Shift_11
Note_On_60_Vel_84
Time_Shift_105
Note_On_68_Vel_0
Note_On_72_Vel_0
Time_Shift_9
Note_On_72_Vel_96
Time_Shift_2
Note_On_68_Vel_92
Time_Shift_2
Note_On_65_Vel_82
Time_Shift_86
Note_On_60_Vel_0
Time_Shift_11
Note_On_60_Vel_85
Time_Shift_26
Note_On_77_Vel_94
Time_Shift_136
Note_On_46_Vel_75
Time_Shift_73
Note_On_72_Vel_0
Time_Shift_9
Note_On_72_Vel_97
Time_Shift_22
Note_On_68_Vel_0
Time_Shift_4
Note_On_68_Vel_57
Time_Shift_7
Sustain_Off
Time_Shift_1
Note_On_77_Vel_0
Time_Shift_3
Note_On_80_Vel_0
Time_Shift_16
Note_On_53_Vel_0
Note_On_65_Vel_0
Time_Shift_7
Note_On_60_Vel_0
Time_Shift_39
Sustain_On
Time_Shift_100
Note_On_72_Vel_0
Time_Shift_4
Note_On_72_Vel_73
Time_Shift_5
Note_On_84_Vel_89
Time_Shift_1
Note_On_53_Vel_65
Note_On_80_Vel_87
Time_Shift_116
Note_On_56_Vel_79
Time_Shift_3
Note_On_70_Vel_101
Time_Shift_13
Note_On_65_Vel_66
Time_Shift_77
Note_On_58_Vel_83
Time_Shift_12
Note_On_82_Vel_83
Time_Shift_8
Note_On_79_Vel_77
Time_Shift_83
Note_On_68_Vel_0
Time_Shift_7
Note_On_62_Vel_87
Time_Shift_1
Note_On_58_Vel_0
Time_Shift_3
Note_On_68_Vel_97
Time_Shift_1
Note_On_74_Vel_80
Time_Shift_1
Note_On_58_Vel_76
Time_Shift_102
Note_On_80_Vel_0
Time_Shift_3
Note_On_77_Vel_70
Time_Shift_2
Note_On_80_Vel_80
Time_Shift_72
Note_On_58_Vel_0
Note_On_68_Vel_0
Time_Shift_7
Note_On_58_Vel_63
Time_Shift_4
Note_On_68_Vel_93
Time_Shift_1
Note_On_70_Vel_0
Time_Shift_80
Note_On_62_Vel_0
Time_Shift_8
Note_On_74_Vel_0
Time_Shift_3
Note_On_62_Vel_62
Time_Shift_5
Note_On_77_Vel_0
Time_Shift_3
Note_On_74_Vel_72
Time_Shift_8
Note_On_77_Vel_69
Time_Shift_97
Note_On_39_Vel_78
Time_Shift_3
Note_On_75_Vel_65
Note_On_84_Vel_0
Note_On_53_Vel_0
Time_Shift_1
Note_On_72_Vel_0
Note_On_56_Vel_0
Note_On_82_Vel_0
Time_Shift_1
Note_On_68_Vel_0
Note_On_79_Vel_0
Sustain_Off
Note_On_80_Vel_0
Time_Shift_3
Note_On_67_Vel_76
Time_Shift_7
Note_On_65_Vel_0
Time_Shift_7
Note_On_46_Vel_0
Note_On_62_Vel_0
Note_On_74_Vel_0
Note_On_77_Vel_0
Time_Shift_16
Note_On_58_Vel_0
Time_Shift_30
Sustain_On
Time_Shift_68
Note_On_46_Vel_67
Time_Shift_2
Note_On_77_Vel_77
Note_On_73_Vel_75
Time_Shift_92
Note_On_67_Vel_0
Time_Shift_5
Note_On_51_Vel_71
Time_Shift_3
Note_On_67_Vel_85
Time_Shift_99
Note_On_75_Vel_0
Time_Shift_5
Note_On_55_Vel_55
Note_On_72_Vel_71
Time_Shift_6
Note_On_75_Vel_72
Note_On_58_Vel_55
Time_Shift_74
Note_On_58_Vel_0
Time_Shift_7
Note_On_75_Vel_0
Time_Shift_4
Note_On_58_Vel_73
Time_Shift_4
Note_On_67_Vel_0
Time_Shift_2
Note_On_75_Vel_62
Time_Shift_7
Note_On_67_Vel_61
Time_Shift_125
Note_On_60_Vel_79
Time_Shift_12
Note_On_73_Vel_0
Time_Shift_10
Note_On_70_Vel_73
Time_Shift_1
Note_On_73_Vel_77
Time_Shift_63
Note_On_55_Vel_0
Note_On_46_Vel_0
Note_On_77_Vel_0
Note_On_39_Vel_0
Time_Shift_1
Note_On_67_Vel_0
Note_On_51_Vel_0
Note_On_72_Vel_0
Time_Shift_1
Note_On_75_Vel_0
Time_Shift_4
Sustain_Off
Time_Shift_27
Note_On_58_Vel_0
Time_Shift_113
Note_On_64_Vel_73
Time_Shift_5
Note_On_61_Vel_59
Time_Shift_40
Note_On_60_Vel_0
Time_Shift_219
Sustain_On
Time_Shift_30
Note_On_70_Vel_0
Time_Shift_89
Note_On_70_Vel_57
Time_Shift_22
Note_On_67_Vel_43
Time_Shift_151
Note_On_73_Vel_0
Time_Shift_243
Note_On_60_Vel_25
Time_Shift_89
Sustain_Off
Note_On_61_Vel_0
Note_On_64_Vel_0
Time_Shift_1
Note_On_70_Vel_0
Note_On_67_Vel_0
Time_Shift_16
Note_On_68_Vel_40
Time_Shift_203
Sustain_On
Time_Shift_36
Note_On_51_Vel_34
Time_Shift_153
Note_On_63_Vel_42
Time_Shift_96
Note_On_51_Vel_0
Note_On_68_Vel_0
Time_Shift_4
Note_On_51_Vel_30
Time_Shift_1
Note_On_68_Vel_61
Time_Shift_130
Note_On_65_Vel_41
Note_On_61_Vel_38
Time_Shift_87
Note_On_51_Vel_0
Note_On_60_Vel_0
Time_Shift_10
Note_On_70_Vel_55
Time_Shift_2
Note_On_51_Vel_39
Time_Shift_94
Note_On_44_Vel_51
Time_Shift_11
Note_On_67_Vel_53
Time_Shift_39
Sustain_Off
Time_Shift_10
Note_On_61_Vel_0
Note_On_65_Vel_0
Time_Shift_3
Note_On_70_Vel_0
Note_On_67_Vel_0
Time_Shift_1
Note_On_68_Vel_0
Time_Shift_1
Note_On_63_Vel_0
Time_Shift_6
Note_On_51_Vel_0
Time_Shift_8
Note_On_51_Vel_43
Time_Shift_3
Note_On_75_Vel_55
Time_Shift_66
Note_On_44_Vel_0
Time_Shift_26
Note_On_72_Vel_65
Time_Shift_8
Note_On_60_Vel_43
Time_Shift_20
Note_On_51_Vel_0
Time_Shift_49
Note_On_68_Vel_69
Time_Shift_1
Note_On_51_Vel_50
Time_Shift_19
Note_On_60_Vel_0
Time_Shift_3
Note_On_72_Vel_0
Time_Shift_9
Note_On_68_Vel_0
Time_Shift_45
Note_On_63_Vel_61
Time_Shift_4
Note_On_44_Vel_54
Note_On_51_Vel_0
Time_Shift_23
Note_On_63_Vel_0
Time_Shift_16
Note_On_75_Vel_0
Time_Shift_24
Note_On_51_Vel_61
Time_Shift_2
Note_On_68_Vel_65
Time_Shift_38
Note_On_51_Vel_0
Time_Shift_16
Note_On_44_Vel_0
Time_Shift_19
Note_On_68_Vel_0
Time_Shift_16
Note_On_65_Vel_63
Time_Shift_12
Note_On_61_Vel_57
Time_Shift_35
Note_On_61_Vel_0
Time_Shift_4
Note_On_65_Vel_0
Time_Shift_35
Note_On_70_Vel_69
Time_Shift_6
Note_On_51_Vel_61
Time_Shift_27
Note_On_70_Vel_0
Time_Shift_34
Sustain_On
Time_Shift_12
Note_On_67_Vel_59
Time_Shift_7
Note_On_44_Vel_56
Time_Shift_50
Note_On_51_Vel_0
Time_Shift_5
Note_On_51_Vel_65
Time_Shift_6
Note_On_75_Vel_70
Time_Shift_69
Note_On_72_Vel_78
Time_Shift_22
Note_On_60_Vel_63
Time_Shift_58
Note_On_68_Vel_80
Time_Shift_17
Note_On_51_Vel_0
Time_Shift_11
Note_On_51_Vel_55
Time_Shift_11
Sustain_Off
Time_Shift_38
Note_On_63_Vel_67
Time_Shift_25
Note_On_67_Vel_0
Time_Shift_4
Note_On_72_Vel_0
Time_Shift_1
Note_On_75_Vel_0
Time_Shift_1
Note_On_51_Vel_0
Time_Shift_1
Note_On_44_Vel_0
Time_Shift_2
Note_On_63_Vel_0
Time_Shift_1
Note_On_68_Vel_0
Time_Shift_2
Note_On_44_Vel_67
Note_On_60_Vel_0
Time_Shift_42
Note_On_68_Vel_85
Time_Shift_17
Note_On_51_Vel_65
Time_Shift_16
Note_On_44_Vel_0
Time_Shift_55
Note_On_65_Vel_70
Time_Shift_3
Note_On_51_Vel_0
Note_On_68_Vel_0
Time_Shift_7
Note_On_61_Vel_63
Time_Shift_43
Note_On_65_Vel_0
Time_Shift_12
Note_On_70_Vel_88
Time_Shift_8
Note_On_61_Vel_0
Time_Shift_9
Note_On_51_Vel_68
Time_Shift_82
Note_On_67_Vel_76
Time_Shift_11
Note_On_44_Vel_61
Time_Shift_28
Note_On_51_Vel_0
Time_Shift_4
Note_On_67_Vel_0
Time_Shift_29
Note_On_75_Vel_77
Time_Shift_1
Note_On_51_Vel_65
Time_Shift_5
Note_On_70_Vel_0
Time_Shift_15
Note_On_44_Vel_0
Time_Shift_11
Note_On_75_Vel_0
Time_Shift_4
Note_On_51_Vel_0
Time_Shift_46
Note_On_67_Vel_77
Time_Shift_28
Note_On_61_Vel_57
Time_Shift_37
Note_On_67_Vel_0
Note_On_61_Vel_0
Time_Shift_28
Note_On_77_Vel_74
Time_Shift_2
Note_On_51_Vel_62
Time_Shift_40
Note_On_51_Vel_0
Note_On_77_Vel_0
Time_Shift_25
Note_On_75_Vel_73
Time_Shift_14
Note_On_44_Vel_59
Time_Shift_18
Note_On_75_Vel_0
Time_Shift_41
Note_On_67_Vel_70
Time_Shift_25
Note_On_44_Vel_0
Time_Shift_6
Note_On_51_Vel_47
Time_Shift_2
Note_On_67_Vel_0
Time_Shift_50
Note_On_68_Vel_72
Time_Shift_15
Note_On_51_Vel_0
Time_Shift_3
Note_On_60_Vel_49
Time_Shift_8
Note_On_68_Vel_0
Time_Shift_42
Note_On_60_Vel_0
Time_Shift_2
Note_On_70_Vel_75
Time_Shift_2
Note_On_51_Vel_65
Time_Shift_38
Note_On_70_Vel_0
Time_Shift_30
Note_On_51_Vel_0
Time_Shift_14
Note_On_68_Vel_67
Time_Shift_21
Note_On_44_Vel_48
Time_Shift_18
Note_On_68_Vel_0
Time_Shift_36
Note_On_63_Vel_58
Time_Shift_27
Note_On_51_Vel_41
Time_Shift_9
Note_On_63_Vel_0
Time_Shift_45
Note_On_68_Vel_71
Time_Shift_4
Note_On_51_Vel_0
Time_Shift_8
Note_On_44_Vel_0
Time_Shift_11
Note_On_60_Vel_45
Time_Shift_20
Sustain_On
Time_Shift_47
Note_On_51_Vel_56
Time_Shift_91
Note_On_60_Vel_0
Time_Shift_10
Note_On_63_Vel_59
Note_On_44_Vel_49
Time_Shift_1
Note_On_60_Vel_44
Time_Shift_50
Note_On_68_Vel_0
Time_Shift_8
Note_On_51_Vel_0
Time_Shift_2
Note_On_68_Vel_79
Time_Shift_7
Note_On_51_Vel_45
Time_Shift_17
Note_On_60_Vel_0
Time_Shift_1
Note_On_48_Vel_40
Note_On_63_Vel_0
Time_Shift_2
Note_On_44_Vel_0
Time_Shift_2
Sustain_Off
Time_Shift_4
Note_On_68_Vel_0
Time_Shift_26
Note_On_48_Vel_0
Note_On_51_Vel_0
Time_Shift_20
Note_On_65_Vel_61
Time_Shift_3
Note_On_61_Vel_64
Time_Shift_34
Note_On_65_Vel_0
Time_Shift_26
Note_On_70_Vel_75
Time_Shift_2
Note_On_61_Vel_0
Time_Shift_18
Note_On_51_Vel_59
Time_Shift_62
Note_On_67_Vel_70
Time_Shift_1
Note_On_44_Vel_66
Time_Shift_62
Note_On_44_Vel_0
Time_Shift_2
Note_On_67_Vel_0
Time_Shift_8
Note_On_51_Vel_0
Note_On_70_Vel_0
Time_Shift_7
Note_On_51_Vel_61
Time_Shift_1
Note_On_75_Vel_70
Time_Shift_46
Note_On_51_Vel_0
Time_Shift_2
Note_On_75_Vel_0
Time_Shift_32
Note_On_60_Vel_61
Time_Shift_1
Note_On_72_Vel_79
Time_Shift_42
Sustain_On
Time_Shift_22
Note_On_51_Vel_58
Note_On_68_Vel_78
Time_Shift_70
Note_On_63_Vel_83
Time_Shift_5
Note_On_44_Vel_69
Time_Shift_49
Note_On_51_Vel_0
Time_Shift_5
Note_On_51_Vel_58
Time_Shift_3
Note_On_68_Vel_0
Time_Shift_8
Note_On_68_Vel_89
Time_Shift_24
Note_On_70_Vel_54
Time_Shift_3
Note_On_56_Vel_56
Time_Shift_80
Note_On_63_Vel_0
Time_Shift_10
Note_On_72_Vel_0
Note_On_68_Vel_0
Note_On_51_Vel_0
Time_Shift_1
Note_On_56_Vel_0
Note_On_63_Vel_82
Sustain_Off
Note_On_44_Vel_0
Time_Shift_4
Note_On_70_Vel_0
Note_On_66_Vel_79
Time_Shift_8
Note_On_60_Vel_0
Time_Shift_77
Sustain_On
Time_Shift_50
Note_On_72_Vel_83
Time_Shift_12
Note_On_53_Vel_61
Time_Shift_88
Note_On_45_Vel_70
Time_Shift_2
Note_On_65_Vel_80
Time_Shift_81
Note_On_77_Vel_74
Time_Shift_38
Sustain_Off
Time_Shift_1
Note_On_66_Vel_0
Time_Shift_1
Note_On_72_Vel_0
Note_On_63_Vel_0
Note_On_53_Vel_0
Note_On_65_Vel_0
Time_Shift_1
Note_On_45_Vel_0
Time_Shift_13
Note_On_77_Vel_0
Time_Shift_9
Note_On_73_Vel_87
Time_Shift_14
Note_On_61_Vel_75
Time_Shift_35
Sustain_On
Time_Shift_32
Note_On_70_Vel_91
Time_Shift_37
Note_On_61_Vel_0
Time_Shift_11
Note_On_61_Vel_55
Time_Shift_9
Note_On_65_Vel_84
Time_Shift_34
Note_On_46_Vel_75
Time_Shift_38
Note_On_70_Vel_0
Time_Shift_8
Note_On_70_Vel_96
Time_Shift_26
Note_On_53_Vel_65
Time_Shift_46
Sustain_Off
Time_Shift_2
Note_On_61_Vel_0
Note_On_70_Vel_0
Time_Shift_1
Note_On_46_Vel_0
Note_On_53_Vel_0
Note_On_73_Vel_0
Time_Shift_25
Note_On_65_Vel_0
Time_Shift_9
Note_On_65_Vel_83
Time_Shift_1
Note_On_68_Vel_94
Time_Shift_1
Note_On_77_Vel_78
Time_Shift_35
Sustain_On
Time_Shift_65
Note_On_55_Vel_77
Time_Shift_6
Note_On_70_Vel_72
Time_Shift_2
Note_On_74_Vel_80
Time_Shift_89
Note_On_67_Vel_89
Time_Shift_3
Note_On_47_Vel_73
Time_Shift_73
Note_On_55_Vel_0
Time_Shift_4
Note_On_79_Vel_79
Time_Shift_5
Note_On_55_Vel_70
Time_Shift_71
Note_On_75_Vel_90
Time_Shift_9
Note_On_63_Vel_80
Time_Shift_72
Note_On_55_Vel_0
Time_Shift_5
Note_On_72_Vel_87
Time_Shift_1
Sustain_Off
Time_Shift_3
Note_On_55_Vel_80
Time_Shift_1
Note_On_47_Vel_0
Note_On_79_Vel_0
Time_Shift_1
Note_On_48_Vel_64
Note_On_65_Vel_0
Time_Shift_1
Note_On_77_Vel_0
Time_Shift_42
Sustain_On
Time_Shift_16
Note_On_67_Vel_0
Time_Shift_4
Note_On_67_Vel_93
Time_Shift_3
Note_On_48_Vel_0
Time_Shift_4
Note_On_48_Vel_78
Time_Shift_42
Note_On_63_Vel_0
Time_Shift_16
Note_On_55_Vel_0
Note_On_70_Vel_0
Note_On_72_Vel_0
Time_Shift_4
Note_On_55_Vel_75
Time_Shift_6
Note_On_72_Vel_92
Time_Shift_108
Note_On_69_Vel_100
Time_Shift_5
Note_On_66_Vel_81
Time_Shift_84
Note_On_75_Vel_0
Time_Shift_6
Note_On_75_Vel_91
Time_Shift_2
Note_On_56_Vel_75
Time_Shift_92
Note_On_68_Vel_0
Time_Shift_8
Note_On_48_Vel_0
Time_Shift_3
Note_On_68_Vel_100
Time_Shift_2
Note_On_48_Vel_78
Time_Shift_94
Note_On_56_Vel_0
Time_Shift_5
Note_On_56_Vel_81
Time_Shift_3
Note_On_68_Vel_0
Time_Shift_4
Note_On_80_Vel_96
Time_Shift_3
Note_On_68_Vel_82
Time_Shift_143
Sustain_Off
Note_On_49_Vel_81
Time_Shift_2
Note_On_69_Vel_0
Time_Shift_1
Note_On_66_Vel_0
Note_On_72_Vel_0
Time_Shift_1
Note_On_67_Vel_0
Note_On_48_Vel_0
Time_Shift_1
Note_On_55_Vel_0
Note_On_68_Vel_0
Note_On_75_Vel_0
Note_On_56_Vel_0
Time_Shift_1
Note_On_80_Vel_0
Time_Shift_5
Note_On_74_Vel_0
Time_Shift_50
Note_On_77_Vel_98
Time_Shift_12
Sustain_On
Time_Shift_120
Note_On_56_Vel_63
Time_Shift_26
Note_On_68_Vel_100
Time_Shift_84
Note_On_56_Vel_0
Time_Shift_3
Note_On_65_Vel_75
Time_Shift_4
Note_On_56_Vel_59
Time_Shift_25
Note_On_73_Vel_93
Time_Shift_60
Note_On_56_Vel_0
Time_Shift_5
Note_On_56_Vel_71
Time_Shift_35
Note_On_80_Vel_90
Time_Shift_60
Note_On_49_Vel_0
Time_Shift_6
Note_On_49_Vel_77
Time_Shift_10
Note_On_77_Vel_0
Time_Shift_4
Note_On_77_Vel_91
Time_Shift_68
Note_On_57_Vel_68
Time_Shift_4
Note_On_69_Vel_92
Time_Shift_69
Note_On_65_Vel_0
Note_On_73_Vel_0
Time_Shift_5
Note_On_65_Vel_68
Time_Shift_6
Note_On_73_Vel_98
Time_Shift_51
Note_On_49_Vel_0
Time_Shift_10
Note_On_49_Vel_72
Time_Shift_5
Note_On_69_Vel_0
Time_Shift_2
Note_On_81_Vel_83
Time_Shift_8
Note_On_69_Vel_76
Time_Shift_23
Sustain_Off
Time_Shift_4
Note_On_80_Vel_0
Time_Shift_2
Note_On_69_Vel_0
Time_Shift_1
Note_On_56_Vel_0
Note_On_73_Vel_0
Note_On_68_Vel_0
Time_Shift_1
Note_On_65_Vel_0
Note_On_81_Vel_0
Time_Shift_13
Note_On_57_Vel_0
Time_Shift_8
Note_On_77_Vel_0
Time_Shift_23
Note_On_49_Vel_0
Time_Shift_7
Note_On_49_Vel_76
Note_On_77_Vel_96
Time_Shift_23
Sustain_On
Time_Shift_51
Note_On_70_Vel_98
Time_Shift_1
Note_On_58_Vel_86
Time_Shift_82
Note_On_73_Vel_94
Time_Shift_1
Note_On_65_Vel_85
Time_Shift_73
Note_On_58_Vel_0
Time_Shift_4
Note_On_58_Vel_77
Time_Shift_3
Note_On_70_Vel_0
Time_Shift_2
Note_On_82_Vel_89
Time_Shift_72
Note_On_50_Vel_80
Time_Shift_11
Note_On_77_Vel_0
Time_Shift_10
Note_On_77_Vel_94
Time_Shift_2
Sustain_Off
Time_Shift_6
Note_On_73_Vel_0
Note_On_49_Vel_0
Note_On_58_Vel_0
Time_Shift_1
Note_On_65_Vel_0
Note_On_82_Vel_0
Time_Shift_65
Sustain_On
Time_Shift_4
Note_On_56_Vel_87
Time_Shift_15
Note_On_71_Vel_85
Time_Shift_81
Note_On_56_Vel_0
Time_Shift_6
Note_On_56_Vel_72
Time_Shift_2
Note_On_74_Vel_90
Time_Shift_1
Note_On_65_Vel_74
Time_Shift_2
Note_On_67_Vel_80
Time_Shift_70
Note_On_59_Vel_77
Time_Shift_8
Note_On_83_Vel_88
Time_Shift_112
Note_On_51_Vel_85
Time_Shift_10
Note_On_80_Vel_89
Time_Shift_16
Sustain_Off
Time_Shift_3
Note_On_65_Vel_0
Note_On_67_Vel_0
Note_On_74_Vel_0
Time_Shift_1
Note_On_59_Vel_0
Time_Shift_1
Note_On_56_Vel_0
Note_On_71_Vel_0
Time_Shift_2
Note_On_50_Vel_0
Time_Shift_12
Note_On_77_Vel_0
Time_Shift_8
Note_On_83_Vel_0
Time_Shift_23
Sustain_On
Time_Shift_49
Note_On_60_Vel_91
Time_Shift_1
Note_On_72_Vel_94
Time_Shift_96
Note_On_75_Vel_96
Time_Shift_11
Note_On_68_Vel_95
Time_Shift_12
Note_On_80_Vel_0
Time_Shift_8
Note_On_80_Vel_75
Time_Shift_71
Note_On_63_Vel_97
Note_On_84_Vel_92
Time_Shift_155
Note_On_54_Vel_93
Time_Shift_4
Note_On_72_Vel_0
Time_Shift_3
Note_On_42_Vel_72
Time_Shift_6
Note_On_72_Vel_71
Time_Shift_3
Note_On_81_Vel_69
Time_Shift_3
Note_On_80_Vel_0
Time_Shift_2
Sustain_Off
Time_Shift_2
Note_On_75_Vel_0
Time_Shift_1
Note_On_68_Vel_0
Note_On_63_Vel_0
Note_On_84_Vel_0
Note_On_60_Vel_0
Time_Shift_1
Note_On_51_Vel_0
Time_Shift_4
Note_On_80_Vel_51
Time_Shift_59
Sustain_On
Time_Shift_108
Note_On_72_Vel_0
Time_Shift_8
Note_On_60_Vel_92
Time_Shift_1
Note_On_72_Vel_97
Time_Shift_133
Note_On_69_Vel_98
Time_Shift_14
Note_On_75_Vel_86
Time_Shift_92
Note_On_63_Vel_96
Time_Shift_10
Note_On_84_Vel_84
Time_Shift_108
Note_On_53_Vel_83
Time_Shift_2
Note_On_80_Vel_0
Time_Shift_10
Note_On_63_Vel_0
Note_On_75_Vel_0
Note_On_69_Vel_0
Note_On_80_Vel_89
Note_On_72_Vel_0
Time_Shift_2
Note_On_84_Vel_0
Sustain_Off
Note_On_81_Vel_0
Time_Shift_4
Note_On_42_Vel_0
Time_Shift_8
Note_On_54_Vel_0
Note_On_60_Vel_0
Time_Shift_38
Sustain_On
Time_Shift_42
Note_On_56_Vel_82
Time_Shift_6
Note_On_73_Vel_92
Time_Shift_90
Note_On_56_Vel_0
Time_Shift_5
Note_On_56_Vel_77
Note_On_68_Vel_99
Time_Shift_3
Note_On_77_Vel_81
Time_Shift_80
Note_On_85_Vel_85
Time_Shift_8
Note_On_61_Vel_85
Time_Shift_42
Sustain_Off
Time_Shift_4
Note_On_80_Vel_0
Note_On_73_Vel_0
Note_On_53_Vel_0
Note_On_77_Vel_0
Time_Shift_1
Note_On_61_Vel_0
Time_Shift_11
Note_On_68_Vel_0
Time_Shift_7
Note_On_56_Vel_0
Time_Shift_20
Note_On_52_Vel_85
Time_Shift_6
Note_On_83_Vel_81
Note_On_76_Vel_72
Time_Shift_5
Note_On_76_Vel_0
Time_Shift_16
Sustain_On
Time_Shift_7
Note_On_85_Vel_0
Time_Shift_46
Note_On_52_Vel_0
Note_On_59_Vel_89
Time_Shift_9
Note_On_52_Vel_77
Time_Shift_2
Note_On_74_Vel_90
Time_Shift_103
Note_On_68_Vel_98
Time_Shift_4
Note_On_80_Vel_92
Time_Shift_80
Note_On_86_Vel_91
Time_Shift_4
Note_On_62_Vel_87
Time_Shift_131
Sustain_Off
Note_On_68_Vel_0
Note_On_80_Vel_0
Note_On_59_Vel_0
Time_Shift_1
Note_On_83_Vel_0
Note_On_62_Vel_0
Note_On_86_Vel_0
Note_On_74_Vel_0
Note_On_52_Vel_0
Time_Shift_17
Note_On_51_Vel_86
Time_Shift_6
Note_On_84_Vel_97
Time_Shift_50
Sustain_On
Time_Shift_116
Note_On_51_Vel_0
Time_Shift_4
Note_On_60_Vel_76
Time_Shift_7
Note_On_51_Vel_61
Time_Shift_6
Note_On_75_Vel_93
Time_Shift_122
Note_On_68_Vel_94
Time_Shift_10
Note_On_80_Vel_92
Time_Shift_89
Note_On_75_Vel_0
Time_Shift_9
Note_On_63_Vel_83
Time_Shift_1
Note_On_75_Vel_80
Time_Shift_2
Note_On_87_Vel_86
Time_Shift_95
Note_On_51_Vel_0
Time_Shift_8
Note_On_84_Vel_0
Time_Shift_3
Note_On_51_Vel_69
Time_Shift_2
Note_On_84_Vel_93
Time_Shift_110
Note_On_60_Vel_0
Note_On_75_Vel_0
Time_Shift_5
Note_On_60_Vel_75
Time_Shift_6
Note_On_75_Vel_92
Time_Shift_104
Note_On_68_Vel_0
Note_On_80_Vel_0
Time_Shift_4
Note_On_68_Vel_96
Time_Shift_5
Note_On_80_Vel_94
Time_Shift_83
Note_On_63_Vel_0
Time_Shift_7
Note_On_63_Vel_70
Time_Shift_5
Note_On_88_Vel_89
Time_Shift_73
Note_On_51_Vel_0
Time_Shift_9
Note_On_51_Vel_74
Time_Shift_10
Note_On_88_Vel_0
Note_On_87_Vel_0
Time_Shift_1
Note_On_60_Vel_0
Note_On_80_Vel_0
Time_Shift_1
Note_On_75_Vel_0
Note_On_68_Vel_0
Note_On_63_Vel_0
Time_Shift_2
Note_On_84_Vel_0
Time_Shift_4
Sustain_Off
Time_Shift_1
Note_On_84_Vel_90
Time_Shift_41
Sustain_On
Time_Shift_15
Note_On_60_Vel_79
Time_Shift_23
Note_On_51_Vel_0
Time_Shift_8
Note_On_51_Vel_56
Time_Shift_2
Note_On_75_Vel_90
Time_Shift_75
Note_On_69_Vel_89
Time_Shift_3
Note_On_81_Vel_88
Time_Shift_78
Note_On_89_Vel_101
Note_On_63_Vel_81
Time_Shift_80
Note_On_51_Vel_0
Time_Shift_8
Note_On_84_Vel_0
Time_Shift_3
Note_On_51_Vel_69
Time_Shift_1
Note_On_57_Vel_60
Note_On_84_Vel_93
Time_Shift_73
Note_On_60_Vel_0
Note_On_75_Vel_0
Time_Shift_10
Note_On_75_Vel_87
Note_On_60_Vel_65
Time_Shift_66
Note_On_51_Vel_0
Time_Shift_8
Note_On_69_Vel_0
Note_On_81_Vel_0
Time_Shift_2
Note_On_51_Vel_67
Time_Shift_4
Note_On_69_Vel_73
Time_Shift_6
Note_On_81_Vel_78
Time_Shift_65
Note_On_63_Vel_0
Time_Shift_5
Note_On_63_Vel_74
Time_Shift_4
Note_On_87_Vel_90
Time_Shift_29
Note_On_57_Vel_0
Time_Shift_4
Note_On_69_Vel_0
Time_Shift_1
Note_On_84_Vel_0
Note_On_75_Vel_0
Sustain_Off
Note_On_51_Vel_0
Note_On_60_Vel_0
Note_On_81_Vel_0
Time_Shift_1
Note_On_89_Vel_0
Time_Shift_52
Note_On_51_Vel_65
Note_On_82_Vel_84
Time_Shift_4
Sustain_On
Time_Shift_72
Note_On_58_Vel_73
Time_Shift_5
Note_On_74_Vel_81
Time_Shift_69
Note_On_51_Vel_0
Time_Shift_5
Note_On_51_Vel_56
Time_Shift_14
Note_On_68_Vel_85
Time_Shift_1
Note_On_80_Vel_78
Time_Shift_61
Note_On_86_Vel_88
Time_Shift_22
Note_On_62_Vel_68
Time_Shift_73
Note_On_51_Vel_0
Note_On_80_Vel_0
Time_Shift_5
Note_On_51_Vel_63
Time_Shift_5
Note_On_80_Vel_82
Time_Shift_52
Note_On_58_Vel_0
Time_Shift_5
Note_On_58_Vel_75
Time_Shift_19
Note_On_70_Vel_90
Time_Shift_83
Note_On_58_Vel_0
Time_Shift_7
Note_On_58_Vel_66
Time_Shift_1
Note_On_68_Vel_0
Time_Shift_7
Note_On_68_Vel_74
Time_Shift_11
Note_On_77_Vel_78
Time_Shift_59
Note_On_62_Vel_0
Note_On_82_Vel_0
Time_Shift_5
Note_On_62_Vel_61
Time_Shift_1
Note_On_82_Vel_78
Time_Shift_71
Note_On_87_Vel_0
Time_Shift_4
Note_On_62_Vel_0
Time_Shift_1
Note_On_74_Vel_0
Note_On_68_Vel_0
Note_On_86_Vel_0
Note_On_58_Vel_0
Note_On_77_Vel_0
Note_On_70_Vel_0
Time_Shift_7
Sustain_Off
Time_Shift_3
Note_On_63_Vel_0
Time_Shift_38
Note_On_51_Vel_0
Note_On_80_Vel_0
Time_Shift_8
Note_On_51_Vel_63
Time_Shift_3
Note_On_80_Vel_74
Time_Shift_28
Sustain_On
Time_Shift_72
Note_On_73_Vel_80
Time_Shift_1
Note_On_58_Vel_60
Time_Shift_107
Note_On_77_Vel_82
Time_Shift_12
Note_On_51_Vel_0
Time_Shift_3
Note_On_68_Vel_69
Time_Shift_4
Note_On_51_Vel_47
Time_Shift_62
Note_On_85_Vel_90
Time_Shift_31
Note_On_58_Vel_0
Time_Shift_3
Note_On_58_Vel_51
Time_Shift_5
Note_On_61_Vel_60
Time_Shift_103
Note_On_79_Vel_72
Time_Shift_4
Note_On_51_Vel_0
Time_Shift_8
Note_On_51_Vel_60
Time_Shift_18
Note_On_85_Vel_0
Note_On_58_Vel_0
Note_On_68_Vel_0
Sustain_Off
Note_On_73_Vel_0
Time_Shift_1
Note_On_80_Vel_0
Note_On_77_Vel_0
Note_On_61_Vel_0
Time_Shift_3
Note_On_82_Vel_0
Time_Shift_77
Sustain_On
Time_Shift_4
Note_On_73_Vel_71
Time_Shift_7
Note_On_58_Vel_59
Time_Shift_168
Note_On_67_Vel_53
Time_Shift_24
Note_On_75_Vel_50
Time_Shift_141
Note_On_61_Vel_55
Time_Shift_14
Note_On_84_Vel_82
Time_Shift_404
Note_On_58_Vel_0
Note_On_73_Vel_0
Time_Shift_1
Note_On_67_Vel_0
Note_On_75_Vel_0
Sustain_Off
Note_On_79_Vel_0
Time_Shift_2
Note_On_84_Vel_0
Time_Shift_19
Note_On_51_Vel_0
Note_On_61_Vel_0
Time_Shift_3
Note_On_80_Vel_61
Time_Shift_112
Sustain_On
Time_Shift_144
Note_On_51_Vel_47
Time_Shift_167
Note_On_75_Vel_58
Time_Shift_1
Note_On_60_Vel_47
Time_Shift_95
Note_On_80_Vel_0
Time_Shift_8
Note_On_51_Vel_0
Time_Shift_2
Note_On_80_Vel_58
Time_Shift_8
Note_On_51_Vel_44
Time_Shift_87
Note_On_77_Vel_53
Time_Shift_31
Note_On_61_Vel_34
Time_Shift_55
Note_On_82_Vel_63
Time_Shift_1
Note_On_51_Vel_0
Time_Shift_4
Note_On_51_Vel_45
Time_Shift_83
Note_On_79_Vel_62
Time_Shift_26
Note_On_44_Vel_60
Time_Shift_57
Note_On_87_Vel_70
Time_Shift_14
Note_On_51_Vel_0
Time_Shift_2
Note_On_77_Vel_0
Note_On_79_Vel_0
Note_On_82_Vel_0
Note_On_60_Vel_0
Time_Shift_1
Note_On_75_Vel_0
Time_Shift_1
Note_On_51_Vel_47
Time_Shift_1
Sustain_Off
Time_Shift_18
Note_On_61_Vel_0
Note_On_80_Vel_0
Time_Shift_8
Sustain_On
Time_Shift_40
Note_On_84_Vel_78
Time_Shift_14
Note_On_44_Vel_0
Time_Shift_4
Note_On_44_Vel_64
Time_Shift_34
Note_On_51_Vel_0
Time_Shift_9
Note_On_51_Vel_63
Time_Shift_30
Note_On_80_Vel_69
Time_Shift_51
Note_On_75_Vel_75
Time_Shift_13
Note_On_60_Vel_63
Time_Shift_58
Note_On_51_Vel_0
Time_Shift_6
Note_On_51_Vel_63
Time_Shift_2
Note_On_80_Vel_0
Time_Shift_11
Note_On_80_Vel_68
Time_Shift_66
Note_On_77_Vel_73
Time_Shift_26
Note_On_49_Vel_60
Time_Shift_2
Note_On_61_Vel_56
Time_Shift_36
Note_On_82_Vel_75
Time_Shift_13
Note_On_51_Vel_0
Time_Shift_4
Note_On_51_Vel_66
Time_Shift_60
Note_On_79_Vel_61
Time_Shift_12
Note_On_44_Vel_0
Time_Shift_11
Note_On_44_Vel_66
Time_Shift_43
Note_On_87_Vel_0
Time_Shift_8
Note_On_51_Vel_0
Time_Shift_3
Note_On_87_Vel_74
Time_Shift_7
Note_On_51_Vel_66
Time_Shift_10
Sustain_Off
Time_Shift_3
Note_On_61_Vel_0
Time_Shift_2
Note_On_79_Vel_0
Note_On_77_Vel_0
Time_Shift_1
Note_On_84_Vel_0
Note_On_80_Vel_0
Note_On_82_Vel_0
Time_Shift_1
Note_On_75_Vel_0
Note_On_44_Vel_0
Time_Shift_1
Note_On_49_Vel_0
Time_Shift_10
Note_On_60_Vel_0
Time_Shift_31
Note_On_51_Vel_0
Note_On_87_Vel_0
Time_Shift_13
Note_On_84_Vel_79
Time_Shift_2
Sustain_On
Time_Shift_21
Note_On_44_Vel_62
Time_Shift_56
Note_On_51_Vel_62
Time_Shift_2
Note_On_80_Vel_68
Time_Shift_71
Note_On_75_Vel_80
Time_Shift_15
Note_On_60_Vel_60
Time_Shift_50
Note_On_51_Vel_0
Time_Shift_12
Note_On_51_Vel_66
Time_Shift_11
Note_On_80_Vel_0
Time_Shift_5
Note_On_80_Vel_73
Time_Shift_35
Sustain_Off
Time_Shift_10
Note_On_44_Vel_0
Time_Shift_1
Note_On_84_Vel_0
Time_Shift_1
Note_On_75_Vel_0
Note_On_60_Vel_0
Time_Shift_2
Note_On_51_Vel_0
Time_Shift_39
Note_On_80_Vel_0
Time_Shift_8
Note_On_76_Vel_61
Time_Shift_10
Note_On_61_Vel_52
Time_Shift_80
Note_On_51_Vel_46
Time_Shift_29
Note_On_82_Vel_63
Time_Shift_3
Note_On_76_Vel_0
Time_Shift_8
Note_On_51_Vel_0
Note_On_61_Vel_0
Sustain_On
Time_Shift_10
Note_On_51_Vel_51
Time_Shift_84
Note_On_75_Vel_47
Time_Shift_39
Note_On_44_Vel_48
Time_Shift_51
Note_On_51_Vel_0
Time_Shift_9
Note_On_51_Vel_44
Note_On_87_Vel_60
Time_Shift_68
Note_On_44_Vel_0
Time_Shift_10
Note_On_44_Vel_47
Time_Shift_4
Note_On_84_Vel_56
Time_Shift_40
Note_On_51_Vel_0
Time_Shift_11
Note_On_51_Vel_58
Time_Shift_7
Note_On_80_Vel_60
Time_Shift_37
Sustain_Off
Time_Shift_2
Note_On_82_Vel_0
Time_Shift_5
Note_On_87_Vel_0
Note_On_80_Vel_0
Time_Shift_1
Note_On_44_Vel_0
Time_Shift_3
Note_On_51_Vel_0
Time_Shift_2
Note_On_84_Vel_0
Time_Shift_16
Note_On_75_Vel_0
Time_Shift_10
Note_On_75_Vel_59
Time_Shift_7
Note_On_60_Vel_48
Time_Shift_34
Note_On_60_Vel_0
Time_Shift_1
Note_On_75_Vel_0
Time_Shift_20
Note_On_80_Vel_68
Time_Shift_16
Note_On_51_Vel_53
Time_Shift_52
Note_On_51_Vel_0
Time_Shift_6
Note_On_76_Vel_66
Time_Shift_2
Note_On_80_Vel_0
Time_Shift_27
Note_On_61_Vel_48
Time_Shift_36
Note_On_76_Vel_0
Time_Shift_5
Note_On_61_Vel_0
Time_Shift_4
Note_On_82_Vel_65
Time_Shift_6
Note_On_51_Vel_56
Time_Shift_47
Note_On_51_Vel_0
Time_Shift_58
Note_On_44_Vel_59
Time_Shift_30
Note_On_82_Vel_0
Time_Shift_11
Note_On_87_Vel_66
Time_Shift_23
Note_On_44_Vel_0
Time_Shift_8
Note_On_51_Vel_48
Time_Shift_32
Note_On_87_Vel_0
Time_Shift_49
Note_On_51_Vel_0
Time_Shift_4
Note_On_84_Vel_56
Time_Shift_16
Note_On_44_Vel_46
Time_Shift_26
Sustain_On
Time_Shift_37
Note_On_51_Vel_46
Time_Shift_2
Note_On_80_Vel_53
Time_Shift_57
Note_On_75_Vel_55
Time_Shift_35
Note_On_60_Vel_33
Time_Shift_2
Note_On_48_Vel_36
Time_Shift_5
Note_On_48_Vel_0
Time_Shift_31
Note_On_51_Vel_0
Note_On_80_Vel_0
Time_Shift_4
Note_On_80_Vel_56
Time_Shift_3
Note_On_51_Vel_55
Time_Shift_71
Note_On_56_Vel_32
Note_On_72_Vel_60
Time_Shift_60
Note_On_51_Vel_0
Time_Shift_8
Note_On_80_Vel_0
Time_Shift_1
Note_On_51_Vel_50
Time_Shift_10
Note_On_80_Vel_59
Time_Shift_58
Note_On_75_Vel_0
Time_Shift_8
Note_On_60_Vel_0
Time_Shift_3
Note_On_75_Vel_65
Time_Shift_6
Note_On_60_Vel_52
Time_Shift_52
Note_On_51_Vel_0
Time_Shift_10
Note_On_51_Vel_53
Time_Shift_10
Note_On_87_Vel_58
Time_Shift_65
Note_On_44_Vel_0
Note_On_84_Vel_0
Time_Shift_8
Note_On_84_Vel_65
Time_Shift_2
Note_On_44_Vel_56
Time_Shift_43
Note_On_51_Vel_0
Time_Shift_8
Note_On_51_Vel_54
Time_Shift_8
Note_On_80_Vel_0
Time_Shift_7
Note_On_80_Vel_60
Time_Shift_47
Note_On_44_Vel_0
Note_On_75_Vel_0
Time_Shift_6
Note_On_44_Vel_53
Time_Shift_3
Note_On_75_Vel_52
Time_Shift_60
Note_On_51_Vel_0
Note_On_80_Vel_0
Time_Shift_4
Note_On_80_Vel_61
Time_Shift_2
Note_On_51_Vel_55
Time_Shift_55
Note_On_72_Vel_0
Time_Shift_9
Note_On_72_Vel_75
Time_Shift_53
Note_On_80_Vel_0
Time_Shift_11
Note_On_80_Vel_60
Time_Shift_27
Note_On_51_Vel_0
Time_Shift_8
Note_On_56_Vel_0
Note_On_60_Vel_0
Time_Shift_3
Note_On_51_Vel_49
Time_Shift_7
Note_On_60_Vel_43
Note_On_56_Vel_47
Time_Shift_20
Note_On_75_Vel_0
Time_Shift_10
Note_On_75_Vel_67
Time_Shift_29
Note_On_60_Vel_0
Time_Shift_10
Note_On_60_Vel_41
Time_Shift_20
Note_On_87_Vel_0
Time_Shift_6
Note_On_87_Vel_68
Time_Shift_18
Note_On_51_Vel_0
Time_Shift_8
Note_On_51_Vel_54
Time_Shift_45
Note_On_75_Vel_0
Note_On_84_Vel_0
Time_Shift_8
Note_On_44_Vel_0
Time_Shift_3
Note_On_84_Vel_77
Time_Shift_1
Note_On_75_Vel_64
Time_Shift_7
Note_On_44_Vel_58
Time_Shift_50
Note_On_51_Vel_0
Time_Shift_4
Note_On_51_Vel_56
Time_Shift_35
Note_On_80_Vel_0
Time_Shift_4
Note_On_80_Vel_59
Time_Shift_19
Note_On_75_Vel_0
Time_Shift_8
Note_On_60_Vel_0
Time_Shift_3
Note_On_75_Vel_64
Time_Shift_6
Note_On_60_Vel_37
Time_Shift_44
Note_On_51_Vel_0
Note_On_80_Vel_0
Time_Shift_7
Note_On_51_Vel_58
Time_Shift_4
Note_On_80_Vel_69
Time_Shift_66
Note_On_72_Vel_0
Time_Shift_8
Note_On_75_Vel_0
Time_Shift_4
Note_On_72_Vel_76
Time_Shift_3
Note_On_75_Vel_60
Time_Shift_16
Note_On_51_Vel_0
Time_Shift_5
Note_On_51_Vel_61
Time_Shift_49
Note_On_80_Vel_0
Time_Shift_7
Note_On_51_Vel_0
Time_Shift_4
Note_On_80_Vel_64
Time_Shift_5
Note_On_51_Vel_57
Time_Shift_53
Note_On_75_Vel_0
Time_Shift_7
Note_On_60_Vel_0
Time_Shift_3
Note_On_75_Vel_71
Time_Shift_7
Note_On_60_Vel_52
Time_Shift_52
Note_On_51_Vel_0
Note_On_87_Vel_0
Time_Shift_11
Note_On_51_Vel_56
Note_On_87_Vel_64
Time_Shift_58
Note_On_84_Vel_0
Time_Shift_5
Note_On_84_Vel_70
Time_Shift_10
Note_On_75_Vel_0
Time_Shift_12
Note_On_75_Vel_56
Time_Shift_4
Note_On_44_Vel_0
Note_On_51_Vel_0
Time_Shift_7
Note_On_44_Vel_55
Time_Shift_2
Note_On_51_Vel_54
Time_Shift_60
Note_On_80_Vel_0
Time_Shift_10
Note_On_80_Vel_52
Time_Shift_36
Note_On_75_Vel_0
Time_Shift_10
Note_On_75_Vel_53
Time_Shift_59
Note_On_80_Vel_0
Time_Shift_8
Note_On_51_Vel_0
Time_Shift_2
Note_On_63_Vel_55
Time_Shift_1
Note_On_80_Vel_64
Time_Shift_4
Note_On_63_Vel_0
Time_Shift_1
Note_On_51_Vel_55
Time_Shift_7
Note_On_56_Vel_0
Time_Shift_11
Note_On_56_Vel_43
Time_Shift_58
Note_On_72_Vel_0
Time_Shift_10
Note_On_72_Vel_68
Time_Shift_21
Note_On_51_Vel_0
Time_Shift_4
Note_On_51_Vel_54
Time_Shift_42
Note_On_80_Vel_0
Time_Shift_6
Note_On_80_Vel_54
Time_Shift_9
Note_On_51_Vel_0
Time_Shift_10
Note_On_82_Vel_58
Time_Shift_2
Note_On_51_Vel_56
Time_Shift_73
Note_On_75_Vel_0
Time_Shift_7
Note_On_60_Vel_0
Time_Shift_1
Note_On_75_Vel_62
Time_Shift_4
Note_On_60_Vel_43
Time_Shift_65
Note_On_51_Vel_0
Time_Shift_10
Note_On_51_Vel_62
Time_Shift_13
Note_On_87_Vel_0
Time_Shift_4
Note_On_87_Vel_56
Time_Shift_191
Note_On_92_Vel_90
Time_Shift_35
Note_On_44_Vel_0
Note_On_51_Vel_0
Time_Shift_11
Note_On_44_Vel_53
Note_On_51_Vel_49
Time_Shift_1525
Note_On_44_Vel_0
Time_Shift_9
Note_On_44_Vel_24
Time_Shift_91
Note_On_56_Vel_0
Time_Shift_100
Note_On_84_Vel_0
Time_Shift_15
Note_On_60_Vel_0
Note_On_72_Vel_0
Time_Shift_8
Note_On_82_Vel_0
Time_Shift_15
Sustain_Off
Time_Shift_161
Note_On_44_Vel_0
Time_Shift_23
Note_On_51_Vel_0
Time_Shift_8
Note_On_75_Vel_0
Time_Shift_123
Note_On_92_Vel_0
Time_Shift_143
Note_On_44_Vel_13
Time_Shift_41
Note_On_80_Vel_0
Time_Shift_8
Note_On_44_Vel_0
Time_Shift_829
Note_On_87_Vel_0
