Ticks_Per_Beat_384
Tempo_500000
Time_Shift_459
Note_On_61_Vel_72
Time_Shift_185
Note_On_60_Vel_78
Time_Shift_22
Note_On_61_Vel_0
Time_Shift_201
Sustain_On
Time_Shift_122
Note_On_67_Vel_76
Time_Shift_156
Note_On_65_Vel_72
Time_Shift_30
Note_On_67_Vel_0
Time_Shift_11
Note_On_67_Vel_79
Time_Shift_10
Note_On_60_Vel_0
Time_Shift_11
Sustain_Off
Time_Shift_14
Note_On_65_Vel_0
Time_Shift_4
Note_On_65_Vel_79
Time_Shift_11
Note_On_67_Vel_0
Time_Shift_313
Note_On_64_Vel_80
Time_Shift_6
Note_On_65_Vel_0
Time_Shift_184
Note_On_65_Vel_71
Time_Shift_9
Note_On_64_Vel_0
Time_Shift_335
Note_On_73_Vel_77
Time_Shift_28
Note_On_65_Vel_0
Time_Shift_127
Note_On_72_Vel_84
Time_Shift_61
Note_On_73_Vel_0
Time_Shift_85
Note_On_71_Vel_87
Time_Shift_14
Note_On_72_Vel_0
Time_Shift_157
Note_On_70_Vel_84
Time_Shift_8
Note_On_49_Vel_74
Time_Shift_6
Note_On_71_Vel_0
Time_Shift_57
Note_On_70_Vel_0
Time_Shift_117
Note_On_48_Vel_78
Time_Shift_2
Note_On_70_Vel_86
Time_Shift_35
Note_On_49_Vel_0
Time_Shift_69
Sustain_On
Time_Shift_227
Note_On_55_Vel_76
Time_Shift_14
Note_On_48_Vel_0
Time_Shift_25
Sustain_Off
Time_Shift_85
Note_On_53_Vel_73
Time_Shift_48
Note_On_55_Vel_0
Time_Shift_5
Note_On_55_Vel_57
Time_Shift_34
Note_On_53_Vel_0
Time_Shift_5
Note_On_53_Vel_85
Time_Shift_145
Note_On_69_Vel_81
Time_Shift_16
Note_On_70_Vel_0
Time_Shift_3
Note_On_55_Vel_0
Time_Shift_142
Note_On_52_Vel_75
Note_On_68_Vel_85
Time_Shift_2
Note_On_69_Vel_0
Time_Shift_17
Note_On_53_Vel_0
Time_Shift_42
Note_On_68_Vel_0
Time_Shift_121
Note_On_53_Vel_75
Time_Shift_1
Note_On_68_Vel_81
Time_Shift_39
Note_On_52_Vel_0
Time_Shift_293
Note_On_53_Vel_0
Time_Shift_8
Note_On_61_Vel_83
Time_Shift_17
Note_On_68_Vel_0
Time_Shift_151
Note_On_60_Vel_82
Time_Shift_7
Note_On_61_Vel_0
Time_Shift_154
Note_On_59_Vel_79
Note_On_67_Vel_83
Time_Shift_10
Note_On_60_Vel_0
Time_Shift_144
Note_On_58_Vel_77
Note_On_62_Vel_79
Note_On_67_Vel_0
Time_Shift_4
Note_On_59_Vel_0
Time_Shift_39
Note_On_58_Vel_0
Time_Shift_131
Note_On_62_Vel_0
Time_Shift_18
Note_On_58_Vel_76
Note_On_67_Vel_84
Time_Shift_325
Note_On_64_Vel_82
Time_Shift_5
Note_On_67_Vel_0
Time_Shift_168
Note_On_65_Vel_80
Time_Shift_22
Note_On_64_Vel_0
Time_Shift_141
Note_On_57_Vel_77
Time_Shift_3
Note_On_58_Vel_0
Time_Shift_158
Note_On_56_Vel_76
Time_Shift_1
Note_On_60_Vel_73
Note_On_65_Vel_0
Time_Shift_20
Note_On_57_Vel_0
Time_Shift_19
Note_On_56_Vel_0
Time_Shift_144
Note_On_65_Vel_76
Time_Shift_2
Note_On_56_Vel_73
Time_Shift_22
Note_On_60_Vel_0
Time_Shift_313
Note_On_65_Vel_0
Time_Shift_10
Note_On_62_Vel_79
Time_Shift_160
Note_On_62_Vel_0
Time_Shift_18
Note_On_63_Vel_82
Time_Shift_160
Note_On_55_Vel_71
Time_Shift_164
Note_On_50_Vel_70
Note_On_70_Vel_80
Time_Shift_7
Note_On_56_Vel_0
Time_Shift_7
Note_On_55_Vel_0
Time_Shift_3
Note_On_63_Vel_0
Time_Shift_18
Note_On_70_Vel_0
Time_Shift_141
Note_On_50_Vel_0
Time_Shift_11
Note_On_70_Vel_86
Time_Shift_2
Note_On_55_Vel_60
Time_Shift_321
Note_On_52_Vel_60
Note_On_70_Vel_0
Time_Shift_1
Note_On_60_Vel_64
Time_Shift_30
Note_On_55_Vel_0
Time_Shift_5
Note_On_60_Vel_0
Time_Shift_3
Note_On_52_Vel_0
Time_Shift_141
Note_On_60_Vel_64
Time_Shift_4
Note_On_53_Vel_62
Time_Shift_301
Note_On_48_Vel_55
Time_Shift_1
Note_On_68_Vel_73
Time_Shift_8
Note_On_53_Vel_0
Time_Shift_7
Note_On_60_Vel_0
Time_Shift_36
Note_On_68_Vel_0
Time_Shift_8
Note_On_48_Vel_0
Time_Shift_132
Note_On_68_Vel_78
Note_On_53_Vel_60
Time_Shift_318
Note_On_58_Vel_72
Time_Shift_3
Note_On_50_Vel_63
Time_Shift_15
Note_On_53_Vel_0
Time_Shift_1
Note_On_68_Vel_0
Time_Shift_83
Note_On_50_Vel_0
Time_Shift_16
Note_On_58_Vel_0
Time_Shift_63
Note_On_67_Vel_75
Time_Shift_6
Note_On_51_Vel_65
Time_Shift_322
Note_On_58_Vel_75
Time_Shift_4
Note_On_51_Vel_0
Time_Shift_44
Note_On_58_Vel_0
Time_Shift_121
Note_On_66_Vel_83
Note_On_58_Vel_70
Time_Shift_12
Note_On_67_Vel_0
Time_Shift_140
Note_On_67_Vel_86
Time_Shift_17
Note_On_66_Vel_0
Time_Shift_142
Note_On_48_Vel_66
Time_Shift_1
Note_On_68_Vel_87
Time_Shift_2
Note_On_58_Vel_0
Time_Shift_12
Note_On_67_Vel_0
Time_Shift_34
Note_On_48_Vel_0
Time_Shift_128
Note_On_65_Vel_86
Time_Shift_11
Note_On_48_Vel_66
Time_Shift_22
Note_On_68_Vel_0
Time_Shift_294
Note_On_56_Vel_71
Time_Shift_33
Note_On_56_Vel_0
Time_Shift_14
Note_On_48_Vel_0
Time_Shift_134
Note_On_56_Vel_63
Time_Shift_3
Note_On_64_Vel_77
Time_Shift_2
Note_On_65_Vel_0
Time_Shift_151
Note_On_65_Vel_75
Time_Shift_23
Note_On_64_Vel_0
Time_Shift_130
Note_On_67_Vel_76
Time_Shift_2
Note_On_46_Vel_54
Time_Shift_19
Note_On_65_Vel_0
Time_Shift_3
Note_On_56_Vel_0
Time_Shift_24
Note_On_46_Vel_0
Time_Shift_107
Note_On_67_Vel_0
Time_Shift_35
Note_On_64_Vel_73
Time_Shift_1
Note_On_55_Vel_61
Time_Shift_328
Note_On_73_Vel_84
Time_Shift_21
Note_On_64_Vel_0
Time_Shift_1
Note_On_55_Vel_0
Time_Shift_15
Note_On_73_Vel_0
Time_Shift_129
Note_On_73_Vel_87
Time_Shift_6
Note_On_54_Vel_85
Time_Shift_139
Note_On_54_Vel_0
Note_On_55_Vel_83
Time_Shift_97
Note_On_73_Vel_0
Time_Shift_75
Note_On_65_Vel_84
Time_Shift_5
Note_On_56_Vel_76
Time_Shift_4
Note_On_55_Vel_0
Time_Shift_82
Note_On_56_Vel_0
Time_Shift_84
Note_On_53_Vel_76
Time_Shift_2
Note_On_72_Vel_83
Time_Shift_26
Note_On_65_Vel_0
Time_Shift_300
Note_On_62_Vel_72
Time_Shift_44
Note_On_72_Vel_0
Time_Shift_31
Note_On_53_Vel_0
Time_Shift_91
Note_On_62_Vel_0
Time_Shift_6
Note_On_72_Vel_78
Time_Shift_3
Note_On_52_Vel_69
Time_Shift_123
Note_On_52_Vel_0
Time_Shift_19
Note_On_53_Vel_78
Time_Shift_154
Note_On_53_Vel_0
Note_On_71_Vel_82
Time_Shift_5
Note_On_55_Vel_73
Time_Shift_22
Note_On_72_Vel_0
Time_Shift_134
Note_On_55_Vel_0
Time_Shift_14
Note_On_52_Vel_74
Time_Shift_2
Note_On_72_Vel_86
Time_Shift_14
Note_On_71_Vel_0
Time_Shift_136
Note_On_71_Vel_85
Time_Shift_17
Note_On_72_Vel_0
Time_Shift_140
Note_On_70_Vel_86
Time_Shift_6
Note_On_61_Vel_73
Time_Shift_15
Note_On_71_Vel_0
Time_Shift_5
Note_On_52_Vel_0
Time_Shift_20
Note_On_61_Vel_0
Time_Shift_6
Note_On_70_Vel_0
Time_Shift_122
Note_On_70_Vel_92
Time_Shift_2
Note_On_61_Vel_77
Time_Shift_327
Note_On_53_Vel_70
Time_Shift_2
Note_On_68_Vel_82
Time_Shift_10
Note_On_61_Vel_0
Time_Shift_8
Note_On_70_Vel_0
Time_Shift_32
Note_On_68_Vel_0
Time_Shift_1
Note_On_53_Vel_0
Time_Shift_112
Note_On_68_Vel_86
Time_Shift_1
Note_On_60_Vel_72
Time_Shift_154
Note_On_64_Vel_80
Time_Shift_12
Note_On_68_Vel_0
Time_Shift_149
Note_On_50_Vel_73
Time_Shift_4
Note_On_65_Vel_78
Time_Shift_15
Note_On_64_Vel_0
Time_Shift_22
Note_On_60_Vel_0
Time_Shift_3
Note_On_50_Vel_0
Time_Shift_124
Note_On_68_Vel_82
Time_Shift_3
Note_On_60_Vel_72
Time_Shift_12
Note_On_65_Vel_0
Time_Shift_141
Note_On_65_Vel_70
Time_Shift_13
Note_On_68_Vel_0
Time_Shift_148
Note_On_59_Vel_70
Note_On_67_Vel_67
Time_Shift_10
Note_On_60_Vel_0
Time_Shift_2
Note_On_65_Vel_0
Time_Shift_38
Note_On_59_Vel_0
Time_Shift_109
Note_On_67_Vel_0
Time_Shift_23
Note_On_64_Vel_74
Time_Shift_2
Note_On_60_Vel_66
Time_Shift_149
Note_On_60_Vel_0
Time_Shift_1
Note_On_59_Vel_79
Time_Shift_152
Note_On_58_Vel_83
Time_Shift_6
Note_On_59_Vel_0
Time_Shift_42
Note_On_58_Vel_0
Time_Shift_132
Note_On_58_Vel_79
Time_Shift_323
Note_On_65_Vel_74
Note_On_56_Vel_69
Time_Shift_16
Note_On_58_Vel_0
Time_Shift_1
Note_On_64_Vel_0
Time_Shift_63
Note_On_56_Vel_0
Time_Shift_97
Note_On_65_Vel_0
Time_Shift_5
Note_On_59_Vel_77
Time_Shift_1
Note_On_56_Vel_77
Time_Shift_152
Note_On_52_Vel_72
Time_Shift_158
Note_On_53_Vel_84
Time_Shift_40
Note_On_52_Vel_0
Time_Shift_23
Note_On_56_Vel_0
Time_Shift_96
Note_On_56_Vel_76
Time_Shift_5
Note_On_53_Vel_0
Time_Shift_149
Note_On_53_Vel_74
Time_Shift_22
Note_On_56_Vel_0
Time_Shift_12
Note_On_59_Vel_0
Time_Shift_144
Note_On_55_Vel_65
Time_Shift_6
Note_On_53_Vel_0
Time_Shift_203
Note_On_55_Vel_0
Time_Shift_11
Note_On_52_Vel_59
Time_Shift_5
Note_On_60_Vel_62
Time_Shift_163
Note_On_60_Vel_0
Time_Shift_2
Note_On_55_Vel_68
Time_Shift_145
Note_On_60_Vel_76
Time_Shift_163
Note_On_67_Vel_88
Time_Shift_10
Note_On_60_Vel_0
Time_Shift_3
Note_On_55_Vel_0
Time_Shift_59
Note_On_52_Vel_0
Time_Shift_89
Note_On_60_Vel_77
Time_Shift_138
Note_On_69_Vel_82
Time_Shift_8
Note_On_53_Vel_71
Time_Shift_157
Note_On_67_Vel_0
Time_Shift_11
Note_On_67_Vel_90
Time_Shift_9
Note_On_47_Vel_79
Time_Shift_1
Note_On_69_Vel_0
Time_Shift_1
Note_On_53_Vel_0
Time_Shift_8
Note_On_60_Vel_0
Time_Shift_138
Note_On_55_Vel_79
Time_Shift_157
Note_On_62_Vel_79
Time_Shift_152
Note_On_65_Vel_87
Time_Shift_11
Note_On_62_Vel_0
Time_Shift_18
Note_On_55_Vel_0
Time_Shift_5
Note_On_67_Vel_0
Time_Shift_134
Note_On_62_Vel_77
Time_Shift_146
Note_On_67_Vel_80
Time_Shift_69
Note_On_62_Vel_0
Time_Shift_12
Note_On_65_Vel_0
Time_Shift_77
Note_On_64_Vel_81
Time_Shift_3
Note_On_48_Vel_69
Time_Shift_14
Note_On_67_Vel_0
Time_Shift_9
Note_On_47_Vel_0
Time_Shift_114
Note_On_43_Vel_74
Time_Shift_23
Note_On_48_Vel_0
Time_Shift_121
Note_On_48_Vel_76
Time_Shift_38
Note_On_43_Vel_0
Time_Shift_131
Note_On_63_Vel_85
Time_Shift_1
Note_On_55_Vel_74
Time_Shift_25
Note_On_64_Vel_0
Time_Shift_11
Note_On_48_Vel_0
Time_Shift_106
Note_On_48_Vel_79
Time_Shift_9
Note_On_64_Vel_78
Time_Shift_17
Note_On_55_Vel_0
Time_Shift_23
Note_On_63_Vel_0
Time_Shift_107
Note_On_57_Vel_83
Time_Shift_1
Note_On_65_Vel_85
Time_Shift_23
Note_On_64_Vel_0
Time_Shift_18
Note_On_48_Vel_0
Time_Shift_33
Note_On_57_Vel_0
Time_Shift_84
Note_On_55_Vel_83
Time_Shift_1
Note_On_64_Vel_87
Time_Shift_15
Note_On_65_Vel_0
Time_Shift_125
Note_On_43_Vel_81
Time_Shift_166
Note_On_50_Vel_78
Time_Shift_1
Note_On_59_Vel_81
Time_Shift_7
Note_On_43_Vel_0
Time_Shift_8
Note_On_64_Vel_0
Time_Shift_82
Note_On_55_Vel_0
Time_Shift_59
Note_On_53_Vel_75
Time_Shift_2
Note_On_62_Vel_79
Time_Shift_21
Note_On_59_Vel_0
Time_Shift_34
Note_On_50_Vel_0
Time_Shift_81
Note_On_50_Vel_76
Time_Shift_1
Note_On_65_Vel_82
Time_Shift_16
Note_On_53_Vel_0
Time_Shift_7
Note_On_62_Vel_0
Time_Shift_135
Note_On_55_Vel_79
Time_Shift_1
Note_On_64_Vel_85
Time_Shift_14
Note_On_65_Vel_0
Time_Shift_11
Note_On_50_Vel_0
Time_Shift_164
Note_On_61_Vel_86
Time_Shift_1
Note_On_52_Vel_78
Time_Shift_8
Note_On_55_Vel_0
Time_Shift_2
Note_On_64_Vel_0
Time_Shift_299
Note_On_70_Vel_86
Time_Shift_53
Note_On_61_Vel_0
Time_Shift_8
Note_On_52_Vel_0
Time_Shift_17
Note_On_70_Vel_0
Time_Shift_90
Note_On_70_Vel_90
Time_Shift_7
Note_On_51_Vel_69
Time_Shift_134
Note_On_52_Vel_76
Time_Shift_42
Note_On_51_Vel_0
Time_Shift_111
Note_On_53_Vel_75
Time_Shift_1
Note_On_61_Vel_78
Time_Shift_11
Note_On_52_Vel_0
Time_Shift_37
Note_On_70_Vel_0
Time_Shift_116
Note_On_61_Vel_0
Time_Shift_3
Note_On_69_Vel_84
Time_Shift_9
Note_On_52_Vel_81
Time_Shift_5
Note_On_53_Vel_0
Time_Shift_251
Note_On_52_Vel_0
Time_Shift_51
Note_On_47_Vel_78
Time_Shift_5
Note_On_62_Vel_85
Time_Shift_19
Note_On_69_Vel_0
Time_Shift_133
Note_On_59_Vel_81
Time_Shift_3
Note_On_50_Vel_66
Note_On_62_Vel_0
Time_Shift_8
Note_On_47_Vel_0
Time_Shift_141
Note_On_68_Vel_88
Time_Shift_2
Note_On_53_Vel_76
Time_Shift_26
Note_On_59_Vel_0
Time_Shift_1
Note_On_50_Vel_0
Time_Shift_118
Note_On_67_Vel_83
Note_On_52_Vel_77
Time_Shift_35
Note_On_53_Vel_0
Time_Shift_19
Note_On_68_Vel_0
Time_Shift_11
Note_On_67_Vel_0
Time_Shift_115
Note_On_67_Vel_88
Time_Shift_1
Note_On_49_Vel_82
Time_Shift_20
Note_On_52_Vel_0
Time_Shift_286
Note_On_58_Vel_79
Time_Shift_27
Note_On_49_Vel_0
Time_Shift_35
Note_On_58_Vel_0
Time_Shift_113
Note_On_58_Vel_83
Time_Shift_147
Note_On_69_Vel_79
Time_Shift_144
Note_On_67_Vel_0
Time_Shift_10
Note_On_67_Vel_85
Time_Shift_1
Note_On_49_Vel_64
Time_Shift_1
Note_On_58_Vel_0
Time_Shift_8
Note_On_69_Vel_0
Time_Shift_31
Note_On_49_Vel_0
Time_Shift_71
Note_On_67_Vel_0
Time_Shift_51
Note_On_66_Vel_81
Time_Shift_9
Note_On_57_Vel_74
Time_Shift_306
Note_On_50_Vel_73
Time_Shift_38
Note_On_57_Vel_0
Time_Shift_37
Note_On_66_Vel_0
Time_Shift_100
Note_On_65_Vel_79
Time_Shift_1
Note_On_47_Vel_61
Time_Shift_52
Note_On_50_Vel_0
Time_Shift_96
Note_On_56_Vel_71
Time_Shift_52
Note_On_47_Vel_0
Time_Shift_92
Note_On_65_Vel_0
Time_Shift_10
Note_On_55_Vel_65
Note_On_64_Vel_85
Time_Shift_1
Note_On_56_Vel_0
Time_Shift_95
Note_On_55_Vel_0
Time_Shift_7
Note_On_64_Vel_0
Time_Shift_79
Note_On_64_Vel_90
Time_Shift_1
Note_On_55_Vel_74
Time_Shift_191
Note_On_73_Vel_90
Time_Shift_14
Note_On_64_Vel_0
Time_Shift_139
Note_On_70_Vel_86
Time_Shift_8
Note_On_73_Vel_0
Time_Shift_143
Note_On_64_Vel_88
Time_Shift_22
Note_On_70_Vel_0
Time_Shift_133
Note_On_64_Vel_0
Time_Shift_11
Note_On_65_Vel_84
Time_Shift_6
Note_On_55_Vel_0
Time_Shift_1
Note_On_57_Vel_69
Time_Shift_146
Note_On_63_Vel_94
Time_Shift_10
Note_On_65_Vel_0
Time_Shift_5
Note_On_55_Vel_67
Time_Shift_17
Note_On_57_Vel_0
Time_Shift_142
Note_On_62_Vel_85
Time_Shift_1
Note_On_63_Vel_0
Time_Shift_1
Note_On_54_Vel_74
Time_Shift_24
Note_On_55_Vel_0
Time_Shift_143
Note_On_72_Vel_84
Time_Shift_14
Note_On_62_Vel_0
Time_Shift_150
Note_On_69_Vel_78
Time_Shift_6
Note_On_72_Vel_0
Time_Shift_44
Note_On_54_Vel_0
Time_Shift_106
Note_On_53_Vel_80
Time_Shift_1
Note_On_62_Vel_86
Time_Shift_4
Note_On_69_Vel_0
Time_Shift_156
Note_On_68_Vel_89
Time_Shift_10
Note_On_62_Vel_0
Time_Shift_141
Note_On_52_Vel_81
Time_Shift_2
Note_On_71_Vel_87
Time_Shift_18
Note_On_68_Vel_0
Note_On_53_Vel_0
Time_Shift_20
Note_On_52_Vel_0
Time_Shift_109
Note_On_71_Vel_0
Time_Shift_25
Note_On_52_Vel_83
Time_Shift_1
Note_On_72_Vel_89
Time_Shift_147
Note_On_72_Vel_0
Time_Shift_7
Note_On_70_Vel_93
Time_Shift_1
Note_On_61_Vel_79
Time_Shift_11
Note_On_52_Vel_0
Time_Shift_138
Note_On_79_Vel_91
Time_Shift_3
Note_On_58_Vel_74
Time_Shift_8
Note_On_70_Vel_0
Time_Shift_3
Note_On_61_Vel_0
Time_Shift_140
Note_On_79_Vel_0
Time_Shift_11
Note_On_79_Vel_90
Note_On_52_Vel_75
Time_Shift_12
Note_On_58_Vel_0
Time_Shift_150
Note_On_68_Vel_88
Note_On_53_Vel_81
Time_Shift_1
Note_On_80_Vel_83
Time_Shift_2
Note_On_52_Vel_0
Time_Shift_8
Note_On_80_Vel_0
Time_Shift_11
Note_On_79_Vel_0
Time_Shift_122
Note_On_51_Vel_77
Time_Shift_1
Note_On_72_Vel_88
Time_Shift_3
Note_On_53_Vel_0
Time_Shift_7
Note_On_68_Vel_0
Time_Shift_136
Note_On_72_Vel_0
Time_Shift_10
Note_On_51_Vel_0
Time_Shift_8
Note_On_77_Vel_93
Time_Shift_1
Note_On_50_Vel_83
Time_Shift_181
Note_On_60_Vel_74
Time_Shift_19
Note_On_50_Vel_0
Time_Shift_122
Note_On_65_Vel_84
Time_Shift_2
Note_On_57_Vel_77
Time_Shift_12
Note_On_60_Vel_0
Time_Shift_46
Note_On_57_Vel_0
Time_Shift_102
Note_On_77_Vel_0
Time_Shift_5
Note_On_50_Vel_81
Time_Shift_5
Note_On_77_Vel_88
Time_Shift_38
Note_On_65_Vel_0
Time_Shift_97
Note_On_56_Vel_84
Time_Shift_31
Note_On_50_Vel_0
Time_Shift_127
Note_On_77_Vel_0
Time_Shift_2
Note_On_65_Vel_77
Time_Shift_1
Note_On_59_Vel_71
Time_Shift_107
Note_On_59_Vel_0
Time_Shift_10
Note_On_56_Vel_0
Time_Shift_54
Note_On_65_Vel_0
Time_Shift_6
Note_On_64_Vel_84
Time_Shift_1
Note_On_60_Vel_73
Time_Shift_147
Note_On_58_Vel_88
Time_Shift_11
Note_On_60_Vel_0
Time_Shift_3
Note_On_64_Vel_0
Time_Shift_138
Note_On_58_Vel_0
Time_Shift_6
Note_On_67_Vel_88
Time_Shift_42
Note_On_67_Vel_0
Time_Shift_129
Note_On_76_Vel_95
Time_Shift_5
Note_On_67_Vel_83
Time_Shift_115
Note_On_67_Vel_0
Time_Shift_42
Note_On_77_Vel_94
Time_Shift_5
Note_On_56_Vel_79
Time_Shift_23
Note_On_76_Vel_0
Time_Shift_123
Note_On_60_Vel_77
Time_Shift_3
Note_On_72_Vel_92
Time_Shift_9
Note_On_77_Vel_0
Time_Shift_3
Note_On_56_Vel_0
Time_Shift_189
Note_On_72_Vel_0
Time_Shift_1
Note_On_68_Vel_90
Time_Shift_1
Note_On_77_Vel_79
Note_On_65_Vel_77
Time_Shift_23
Note_On_60_Vel_0
Time_Shift_325
Note_On_53_Vel_77
Time_Shift_34
Note_On_65_Vel_0
Time_Shift_18
Note_On_53_Vel_0
Time_Shift_49
Note_On_68_Vel_0
Time_Shift_87
Note_On_68_Vel_89
Time_Shift_1
Note_On_65_Vel_77
Time_Shift_235
Note_On_73_Vel_87
Time_Shift_29
Note_On_68_Vel_0
Time_Shift_40
Note_On_77_Vel_0
Time_Shift_64
Note_On_53_Vel_73
Time_Shift_22
Note_On_65_Vel_0
Time_Shift_75
Note_On_53_Vel_0
Time_Shift_156
Note_On_72_Vel_71
Time_Shift_9
Note_On_52_Vel_55
Time_Shift_68
Note_On_73_Vel_0
Time_Shift_636
Note_On_72_Vel_0
Time_Shift_14
Note_On_52_Vel_0
