Ticks_Per_Beat_384
Tempo_500000
Time_Shift_385
Note_On_63_Vel_54
Time_Shift_217
Note_On_72_Vel_80
Time_Shift_7
Note_On_60_Vel_65
Time_Shift_1
Note_On_63_Vel_0
Time_Shift_1
Note_On_32_Vel_63
Time_Shift_18
Sustain_On
Time_Shift_166
Note_On_63_Vel_63
Time_Shift_165
Note_On_60_Vel_0
Time_Shift_7
Note_On_84_Vel_97
Note_On_72_Vel_0
Time_Shift_2
Note_On_60_Vel_71
Time_Shift_1
Note_On_56_Vel_73
Time_Shift_1
Note_On_72_Vel_85
Time_Shift_1
Note_On_51_Vel_66
Time_Shift_146
Note_On_75_Vel_72
Time_Shift_149
Note_On_51_Vel_0
Note_On_60_Vel_0
Note_On_63_Vel_0
Note_On_84_Vel_0
Time_Shift_5
Note_On_96_Vel_98
Time_Shift_2
Note_On_56_Vel_0
Time_Shift_3
Note_On_51_Vel_75
Note_On_84_Vel_93
Time_Shift_1
Note_On_60_Vel_69
Note_On_63_Vel_71
Time_Shift_2
Note_On_56_Vel_73
Time_Shift_140
Note_On_87_Vel_72
Time_Shift_131
Note_On_56_Vel_0
Time_Shift_1
Note_On_60_Vel_0
Note_On_72_Vel_0
Note_On_51_Vel_0
Note_On_63_Vel_0
Time_Shift_1
Note_On_87_Vel_0
Note_On_75_Vel_0
Note_On_84_Vel_0
Sustain_Off
Time_Shift_6
Note_On_32_Vel_0
Note_On_96_Vel_0
Time_Shift_13
Note_On_39_Vel_86
Time_Shift_3
Note_On_27_Vel_89
Time_Shift_2
Note_On_94_Vel_86
Time_Shift_3
Note_On_82_Vel_90
Time_Shift_48
Sustain_On
Time_Shift_102
Note_On_87_Vel_76
Time_Shift_151
Note_On_39_Vel_0
Time_Shift_6
Note_On_55_Vel_72
Time_Shift_1
Note_On_51_Vel_73
Time_Shift_1
Note_On_82_Vel_0
Time_Shift_3
Note_On_39_Vel_70
Time_Shift_1
Note_On_82_Vel_93
Note_On_46_Vel_70
Time_Shift_1
Note_On_34_Vel_71
Time_Shift_1
Note_On_70_Vel_86
Time_Shift_132
Note_On_75_Vel_85
Time_Shift_146
Note_On_82_Vel_0
Time_Shift_8
Note_On_34_Vel_0
Note_On_39_Vel_0
Note_On_46_Vel_0
Note_On_70_Vel_0
Time_Shift_3
Note_On_82_Vel_86
Time_Shift_1
Note_On_34_Vel_77
Time_Shift_1
Note_On_39_Vel_71
Note_On_70_Vel_89
Note_On_46_Vel_75
Time_Shift_118
Note_On_75_Vel_0
Time_Shift_3
Note_On_75_Vel_69
Time_Shift_1
Note_On_63_Vel_76
Time_Shift_188
Note_On_27_Vel_0
Time_Shift_1
Note_On_94_Vel_0
Note_On_39_Vel_0
Note_On_82_Vel_0
Time_Shift_1
Note_On_70_Vel_0
Sustain_Off
Note_On_75_Vel_0
Note_On_87_Vel_0
Note_On_63_Vel_0
Time_Shift_13
Note_On_51_Vel_0
Note_On_55_Vel_0
Time_Shift_8
Note_On_46_Vel_0
Time_Shift_7
Note_On_34_Vel_0
Time_Shift_3
Note_On_46_Vel_81
Time_Shift_1
Note_On_77_Vel_84
Time_Shift_1
Note_On_34_Vel_79
Note_On_80_Vel_84
Time_Shift_1
Note_On_68_Vel_84
Time_Shift_56
Sustain_On
Time_Shift_115
Note_On_70_Vel_71
Time_Shift_23
Note_On_34_Vel_0
Time_Shift_129
Note_On_79_Vel_89
Time_Shift_1
Note_On_46_Vel_0
Note_On_68_Vel_0
Time_Shift_4
Note_On_58_Vel_75
Time_Shift_2
Note_On_62_Vel_71
Time_Shift_1
Note_On_46_Vel_68
Time_Shift_1
Note_On_70_Vel_0
Time_Shift_1
Note_On_53_Vel_62
Time_Shift_2
Note_On_68_Vel_78
Time_Shift_2
Note_On_70_Vel_71
Note_On_74_Vel_64
Time_Shift_133
Note_On_77_Vel_0
Time_Shift_8
Note_On_70_Vel_0
Note_On_77_Vel_85
Time_Shift_6
Note_On_70_Vel_71
Time_Shift_121
Note_On_76_Vel_90
Time_Shift_4
Note_On_53_Vel_0
Note_On_62_Vel_0
Note_On_68_Vel_0
Time_Shift_6
Note_On_68_Vel_82
Time_Shift_1
Note_On_46_Vel_0
Note_On_58_Vel_0
Note_On_70_Vel_0
Time_Shift_3
Note_On_62_Vel_69
Note_On_53_Vel_69
Time_Shift_2
Note_On_70_Vel_82
Note_On_46_Vel_65
Note_On_58_Vel_75
Time_Shift_126
Note_On_77_Vel_0
Time_Shift_7
Note_On_77_Vel_86
Time_Shift_1
Note_On_70_Vel_0
Time_Shift_10
Note_On_70_Vel_72
Time_Shift_129
Sustain_Off
Time_Shift_2
Note_On_46_Vel_0
Note_On_79_Vel_0
Note_On_68_Vel_0
Note_On_58_Vel_0
Note_On_77_Vel_0
Time_Shift_1
Note_On_76_Vel_0
Time_Shift_3
Note_On_80_Vel_0
Time_Shift_8
Note_On_53_Vel_0
Note_On_62_Vel_0
Note_On_74_Vel_0
Time_Shift_8
Note_On_70_Vel_0
Time_Shift_20
Note_On_79_Vel_90
Time_Shift_1
Note_On_27_Vel_71
Time_Shift_1
Note_On_39_Vel_70
Time_Shift_8
Note_On_75_Vel_75
Time_Shift_4
Note_On_70_Vel_65
Time_Shift_50
Sustain_On
Time_Shift_100
Note_On_70_Vel_0
Time_Shift_6
Note_On_82_Vel_72
Time_Shift_4
Note_On_70_Vel_77
Time_Shift_6
Note_On_82_Vel_0
Time_Shift_138
Note_On_27_Vel_0
Note_On_75_Vel_0
Time_Shift_9
Note_On_75_Vel_78
Time_Shift_2
Note_On_58_Vel_64
Time_Shift_1
Note_On_67_Vel_63
Time_Shift_2
Note_On_51_Vel_58
Time_Shift_139
Note_On_70_Vel_0
Time_Shift_7
Note_On_70_Vel_77
Time_Shift_147
Note_On_51_Vel_0
Note_On_67_Vel_0
Note_On_75_Vel_0
Time_Shift_4
Note_On_75_Vel_90
Time_Shift_1
Note_On_51_Vel_69
Time_Shift_2
Note_On_63_Vel_76
Note_On_55_Vel_72
Time_Shift_1
Note_On_67_Vel_66
Time_Shift_281
Note_On_51_Vel_0
Note_On_55_Vel_0
Note_On_63_Vel_0
Note_On_67_Vel_0
Note_On_58_Vel_0
Sustain_Off
Note_On_75_Vel_0
Time_Shift_1
Note_On_79_Vel_0
Time_Shift_9
Note_On_39_Vel_0
Note_On_70_Vel_0
Time_Shift_19
Note_On_72_Vel_94
Time_Shift_1
Note_On_32_Vel_82
Note_On_44_Vel_83
Note_On_60_Vel_84
Time_Shift_34
Note_On_44_Vel_0
Time_Shift_2
Note_On_32_Vel_0
Time_Shift_37
Sustain_On
Time_Shift_95
Note_On_63_Vel_71
Time_Shift_158
Note_On_60_Vel_0
Note_On_72_Vel_0
Time_Shift_4
Note_On_44_Vel_77
Note_On_84_Vel_96
Time_Shift_1
Note_On_51_Vel_67
Time_Shift_2
Note_On_60_Vel_74
Time_Shift_1
Note_On_72_Vel_89
Time_Shift_1
Note_On_56_Vel_72
Time_Shift_148
Note_On_75_Vel_75
Time_Shift_150
Note_On_51_Vel_0
Note_On_60_Vel_0
Note_On_84_Vel_0
Time_Shift_6
Note_On_96_Vel_98
Time_Shift_2
Note_On_48_Vel_65
Note_On_60_Vel_76
Note_On_63_Vel_0
Time_Shift_1
Note_On_51_Vel_77
Note_On_72_Vel_0
Time_Shift_1
Note_On_84_Vel_90
Time_Shift_6
Note_On_48_Vel_0
Note_On_56_Vel_0
Time_Shift_6
Note_On_56_Vel_64
Time_Shift_121
Note_On_87_Vel_74
Time_Shift_137
Sustain_Off
Time_Shift_1
Note_On_56_Vel_0
Note_On_44_Vel_0
Time_Shift_1
Note_On_87_Vel_0
Time_Shift_10
Note_On_96_Vel_0
Time_Shift_8
Note_On_51_Vel_0
Note_On_60_Vel_0
Note_On_75_Vel_0
Time_Shift_2
Note_On_94_Vel_88
Time_Shift_1
Note_On_39_Vel_80
Time_Shift_2
Note_On_82_Vel_87
Time_Shift_2
Note_On_84_Vel_0
Time_Shift_70
Sustain_On
Time_Shift_38
Note_On_39_Vel_0
Time_Shift_34
Note_On_87_Vel_72
Time_Shift_158
Note_On_82_Vel_0
Time_Shift_6
Note_On_70_Vel_81
Time_Shift_4
Note_On_82_Vel_85
Time_Shift_2
Note_On_55_Vel_72
Note_On_46_Vel_67
Note_On_51_Vel_63
Time_Shift_131
Note_On_75_Vel_79
Time_Shift_157
Note_On_70_Vel_0
Note_On_82_Vel_0
Time_Shift_7
Note_On_46_Vel_0
Note_On_51_Vel_0
Note_On_55_Vel_0
Time_Shift_1
Note_On_82_Vel_78
Time_Shift_1
Note_On_70_Vel_83
Time_Shift_2
Note_On_51_Vel_60
Note_On_55_Vel_67
Time_Shift_1
Note_On_46_Vel_62
Time_Shift_119
Note_On_63_Vel_67
Time_Shift_211
Sustain_Off
Time_Shift_1
Note_On_46_Vel_0
Note_On_55_Vel_0
Note_On_70_Vel_0
Time_Shift_1
Note_On_82_Vel_0
Note_On_51_Vel_0
Note_On_75_Vel_0
Time_Shift_1
Note_On_63_Vel_0
Time_Shift_2
Note_On_87_Vel_0
Time_Shift_1
Note_On_94_Vel_0
Time_Shift_9
Note_On_77_Vel_77
Time_Shift_1
Note_On_34_Vel_69
Note_On_80_Vel_76
Time_Shift_4
Note_On_68_Vel_75
Time_Shift_47
Note_On_34_Vel_0
Time_Shift_21
Sustain_On
Time_Shift_73
Note_On_82_Vel_69
Note_On_70_Vel_77
Time_Shift_11
Note_On_82_Vel_0
Time_Shift_154
Note_On_68_Vel_0
Time_Shift_1
Note_On_79_Vel_87
Time_Shift_6
Note_On_68_Vel_74
Time_Shift_6
Note_On_53_Vel_53
Time_Shift_5
Note_On_62_Vel_59
Time_Shift_2
Note_On_58_Vel_59
Time_Shift_126
Note_On_77_Vel_0
Time_Shift_6
Note_On_77_Vel_85
Time_Shift_1
Note_On_70_Vel_0
Time_Shift_8
Note_On_70_Vel_78
Time_Shift_138
Note_On_53_Vel_0
Note_On_58_Vel_0
Time_Shift_4
Note_On_72_Vel_85
Time_Shift_4
Note_On_68_Vel_0
Note_On_70_Vel_0
Time_Shift_3
Note_On_58_Vel_69
Time_Shift_1
Note_On_53_Vel_59
Note_On_62_Vel_0
Time_Shift_2
Note_On_68_Vel_65
Time_Shift_4
Note_On_70_Vel_75
Time_Shift_118
Note_On_74_Vel_86
Time_Shift_2
Note_On_70_Vel_0
Time_Shift_8
Note_On_68_Vel_0
Time_Shift_2
Note_On_70_Vel_77
Time_Shift_2
Note_On_68_Vel_58
Time_Shift_140
Sustain_Off
Time_Shift_1
Note_On_68_Vel_0
Note_On_79_Vel_0
Time_Shift_1
Note_On_72_Vel_0
Note_On_80_Vel_0
Note_On_70_Vel_0
Time_Shift_1
Note_On_77_Vel_0
Time_Shift_14
Note_On_53_Vel_0
Note_On_58_Vel_0
Time_Shift_16
Note_On_74_Vel_0
Time_Shift_4
Note_On_75_Vel_81
Time_Shift_18
Note_On_67_Vel_58
Time_Shift_1
Note_On_58_Vel_53
Time_Shift_7
Note_On_51_Vel_51
Time_Shift_2
Note_On_63_Vel_54
Time_Shift_98
Sustain_On
Time_Shift_55
Note_On_70_Vel_62
Time_Shift_183
Note_On_67_Vel_0
Time_Shift_8
Note_On_63_Vel_0
Time_Shift_2
Note_On_39_Vel_41
Time_Shift_1
Note_On_67_Vel_44
Time_Shift_2
Note_On_63_Vel_37
Time_Shift_156
Note_On_63_Vel_0
Note_On_70_Vel_0
Time_Shift_7
Note_On_70_Vel_48
Time_Shift_1
Note_On_63_Vel_30
Time_Shift_361
Note_On_63_Vel_0
Time_Shift_10
Note_On_63_Vel_46
Time_Shift_236
Sustain_Off
Time_Shift_2
Note_On_75_Vel_0
Note_On_70_Vel_0
Note_On_58_Vel_0
Note_On_63_Vel_0
Note_On_39_Vel_0
Time_Shift_1
Note_On_67_Vel_0
Time_Shift_3
Note_On_72_Vel_77
Time_Shift_1
Note_On_51_Vel_0
Time_Shift_4
Note_On_32_Vel_58
Time_Shift_8
Note_On_60_Vel_52
Time_Shift_38
Note_On_32_Vel_0
Time_Shift_12
Sustain_On
Time_Shift_123
Note_On_63_Vel_63
Time_Shift_169
Note_On_72_Vel_0
Time_Shift_1
Note_On_84_Vel_90
Time_Shift_6
Note_On_60_Vel_0
Time_Shift_4
Note_On_72_Vel_77
Time_Shift_1
Note_On_60_Vel_62
Time_Shift_1
Note_On_51_Vel_59
Time_Shift_1
Note_On_56_Vel_62
Time_Shift_139
Note_On_75_Vel_61
Time_Shift_146
Note_On_51_Vel_0
Note_On_56_Vel_0
Note_On_60_Vel_0
Note_On_84_Vel_0
Time_Shift_3
Note_On_96_Vel_99
Time_Shift_3
Note_On_60_Vel_62
Time_Shift_4
Note_On_51_Vel_69
Note_On_56_Vel_68
Note_On_84_Vel_84
Time_Shift_136
Note_On_87_Vel_73
Time_Shift_12
Note_On_60_Vel_0
Time_Shift_125
Note_On_51_Vel_0
Time_Shift_1
Note_On_56_Vel_0
Time_Shift_1
Note_On_87_Vel_0
Sustain_Off
Note_On_72_Vel_0
Note_On_75_Vel_0
Time_Shift_1
Note_On_84_Vel_0
Note_On_96_Vel_0
Time_Shift_6
Note_On_63_Vel_0
Time_Shift_11
Note_On_39_Vel_78
Time_Shift_1
Note_On_27_Vel_78
Time_Shift_1
Note_On_94_Vel_87
Time_Shift_3
Note_On_82_Vel_91
Time_Shift_46
Sustain_On
Time_Shift_94
Note_On_87_Vel_75
Time_Shift_174
Note_On_27_Vel_0
Note_On_82_Vel_0
Time_Shift_5
Note_On_82_Vel_83
Time_Shift_2
Note_On_27_Vel_63
Time_Shift_5
Note_On_70_Vel_70
Time_Shift_130
Note_On_75_Vel_77
Time_Shift_150
Note_On_39_Vel_0
Note_On_70_Vel_0
Note_On_82_Vel_0
Time_Shift_11
Note_On_39_Vel_62
Note_On_82_Vel_78
Note_On_70_Vel_79
Time_Shift_1
Note_On_46_Vel_69
Time_Shift_121
Note_On_63_Vel_70
Time_Shift_197
Note_On_94_Vel_0
Time_Shift_5
Note_On_70_Vel_0
Note_On_82_Vel_0
Time_Shift_1
Note_On_46_Vel_0
Sustain_Off
Note_On_75_Vel_0
Note_On_63_Vel_0
Time_Shift_1
Note_On_39_Vel_0
Time_Shift_3
Note_On_87_Vel_0
Time_Shift_6
Note_On_27_Vel_0
Time_Shift_13
Note_On_77_Vel_80
Time_Shift_9
Note_On_68_Vel_77
Time_Shift_4
Note_On_34_Vel_63
Time_Shift_51
Sustain_On
Time_Shift_106
Note_On_70_Vel_71
Time_Shift_165
Note_On_79_Vel_85
Time_Shift_5
Note_On_68_Vel_0
Time_Shift_5
Note_On_68_Vel_75
Time_Shift_1
Note_On_74_Vel_67
Note_On_62_Vel_64
Time_Shift_2
Note_On_70_Vel_0
Time_Shift_3
Note_On_53_Vel_62
Time_Shift_1
Note_On_70_Vel_69
Time_Shift_2
Note_On_58_Vel_63
Time_Shift_32
Note_On_34_Vel_0
Time_Shift_92
Note_On_77_Vel_0
Time_Shift_8
Note_On_70_Vel_0
Time_Shift_3
Note_On_77_Vel_83
Time_Shift_3
Note_On_70_Vel_71
Time_Shift_129
Note_On_76_Vel_92
Time_Shift_3
Note_On_53_Vel_0
Note_On_58_Vel_0
Note_On_62_Vel_0
Note_On_68_Vel_0
Note_On_70_Vel_0
Time_Shift_4
Note_On_68_Vel_85
Time_Shift_4
Note_On_53_Vel_69
Time_Shift_1
Note_On_62_Vel_74
Time_Shift_2
Note_On_70_Vel_86
Note_On_58_Vel_73
Time_Shift_120
Note_On_77_Vel_0
Time_Shift_9
Note_On_77_Vel_87
Time_Shift_21
Note_On_70_Vel_0
Time_Shift_5
Note_On_70_Vel_67
Time_Shift_119
Note_On_62_Vel_0
Note_On_70_Vel_0
Note_On_53_Vel_0
Time_Shift_1
Note_On_58_Vel_0
Note_On_74_Vel_0
Sustain_Off
Note_On_77_Vel_0
Time_Shift_2
Note_On_76_Vel_0
Time_Shift_12
Note_On_68_Vel_0
Note_On_79_Vel_0
Time_Shift_10
Note_On_79_Vel_93
Time_Shift_1
Note_On_39_Vel_81
Time_Shift_1
Note_On_27_Vel_80
Time_Shift_17
Note_On_75_Vel_68
Time_Shift_31
Note_On_27_Vel_0
Time_Shift_24
Sustain_On
Time_Shift_88
Note_On_70_Vel_76
Time_Shift_143
Note_On_75_Vel_0
Time_Shift_4
Note_On_75_Vel_73
Time_Shift_2
Note_On_58_Vel_66
Time_Shift_1
Note_On_63_Vel_62
Time_Shift_2
Note_On_51_Vel_63
Time_Shift_2
Note_On_67_Vel_64
Note_On_55_Vel_58
Time_Shift_119
Note_On_70_Vel_0
Time_Shift_12
Note_On_70_Vel_73
Time_Shift_157
Note_On_51_Vel_0
Note_On_55_Vel_0
Note_On_58_Vel_0
Note_On_63_Vel_0
Note_On_75_Vel_0
Time_Shift_8
Note_On_63_Vel_79
Time_Shift_1
Note_On_75_Vel_93
Note_On_58_Vel_63
Note_On_51_Vel_70
Time_Shift_1
Note_On_55_Vel_71
Time_Shift_293
Note_On_63_Vel_0
Note_On_55_Vel_0
Sustain_Off
Time_Shift_1
Note_On_39_Vel_0
Note_On_75_Vel_0
Note_On_67_Vel_0
Note_On_58_Vel_0
Time_Shift_1
Note_On_79_Vel_0
Time_Shift_10
Note_On_70_Vel_0
Time_Shift_8
Note_On_51_Vel_0
Time_Shift_13
Note_On_32_Vel_74
Note_On_44_Vel_66
Time_Shift_1
Note_On_72_Vel_82
Time_Shift_36
Note_On_32_Vel_0
Time_Shift_1
Note_On_44_Vel_0
Time_Shift_25
Sustain_On
Time_Shift_100
Note_On_63_Vel_64
Time_Shift_154
Note_On_72_Vel_0
Time_Shift_1
Note_On_84_Vel_96
Time_Shift_2
Note_On_60_Vel_70
Note_On_51_Vel_69
Time_Shift_1
Note_On_56_Vel_73
Note_On_72_Vel_86
Time_Shift_131
Note_On_75_Vel_80
Time_Shift_149
Note_On_84_Vel_0
Time_Shift_8
Note_On_96_Vel_101
Note_On_51_Vel_0
Note_On_60_Vel_0
Time_Shift_3
Note_On_84_Vel_96
Time_Shift_3
Note_On_63_Vel_0
Time_Shift_1
Note_On_56_Vel_0
Time_Shift_1
Note_On_51_Vel_73
Time_Shift_1
Note_On_60_Vel_74
Time_Shift_3
Note_On_56_Vel_72
Time_Shift_3
Sustain_Off
Time_Shift_85
Sustain_On
Time_Shift_38
Note_On_87_Vel_74
Time_Shift_158
Sustain_Off
Time_Shift_1
Note_On_56_Vel_0
Note_On_51_Vel_0
Note_On_84_Vel_0
Time_Shift_1
Note_On_75_Vel_0
Note_On_87_Vel_0
Time_Shift_1
Note_On_60_Vel_0
Time_Shift_2
Note_On_94_Vel_91
Time_Shift_2
Note_On_96_Vel_0
Note_On_39_Vel_84
Time_Shift_1
Note_On_82_Vel_92
Time_Shift_3
Note_On_72_Vel_0
Time_Shift_77
Sustain_On
Time_Shift_55
Note_On_87_Vel_75
Time_Shift_160
Note_On_82_Vel_0
Time_Shift_7
Note_On_39_Vel_0
Time_Shift_4
Note_On_82_Vel_89
Time_Shift_6
Note_On_70_Vel_71
Time_Shift_2
Note_On_51_Vel_60
Note_On_55_Vel_63
Note_On_46_Vel_63
Time_Shift_122
Note_On_75_Vel_80
Time_Shift_158
Note_On_46_Vel_0
Note_On_51_Vel_0
Note_On_55_Vel_0
Note_On_70_Vel_0
Time_Shift_6
Note_On_51_Vel_66
Time_Shift_3
Note_On_46_Vel_73
Note_On_70_Vel_83
Time_Shift_2
Note_On_55_Vel_64
Time_Shift_115
Note_On_63_Vel_67
Time_Shift_215
Sustain_Off
Time_Shift_1
Note_On_70_Vel_0
Note_On_55_Vel_0
Note_On_82_Vel_0
Note_On_51_Vel_0
Note_On_63_Vel_0
Time_Shift_1
Note_On_94_Vel_0
Note_On_75_Vel_0
Time_Shift_1
Note_On_87_Vel_0
Time_Shift_10
Note_On_46_Vel_0
Time_Shift_1
Note_On_77_Vel_82
Time_Shift_5
Note_On_46_Vel_64
Time_Shift_5
Note_On_34_Vel_66
Note_On_68_Vel_77
Time_Shift_65
Sustain_On
Time_Shift_97
Note_On_70_Vel_72
Time_Shift_154
Note_On_79_Vel_81
Time_Shift_3
Note_On_68_Vel_0
Time_Shift_10
Note_On_53_Vel_54
Time_Shift_1
Note_On_68_Vel_68
Time_Shift_2
Note_On_62_Vel_54
Time_Shift_5
Note_On_58_Vel_55
Time_Shift_13
Note_On_34_Vel_0
Time_Shift_107
Note_On_77_Vel_0
Time_Shift_7
Note_On_77_Vel_80
Time_Shift_1
Note_On_70_Vel_0
Time_Shift_5
Note_On_70_Vel_74
Time_Shift_141
Note_On_53_Vel_0
Note_On_62_Vel_0
Note_On_68_Vel_0
Time_Shift_5
Note_On_72_Vel_85
Time_Shift_2
Note_On_58_Vel_0
Time_Shift_3
Note_On_53_Vel_60
Note_On_62_Vel_59
Note_On_68_Vel_79
Time_Shift_2
Note_On_58_Vel_67
Time_Shift_126
Note_On_70_Vel_0
Time_Shift_4
Note_On_74_Vel_85
Time_Shift_7
Note_On_70_Vel_76
Time_Shift_132
Note_On_53_Vel_0
Sustain_Off
Time_Shift_1
Note_On_79_Vel_0
Note_On_68_Vel_0
Note_On_58_Vel_0
Note_On_46_Vel_0
Note_On_72_Vel_0
Note_On_77_Vel_0
Time_Shift_17
Note_On_62_Vel_0
Time_Shift_16
Note_On_70_Vel_0
Time_Shift_21
Note_On_75_Vel_79
Time_Shift_9
Note_On_74_Vel_0
Time_Shift_4
Note_On_67_Vel_60
Note_On_58_Vel_54
Time_Shift_6
Note_On_51_Vel_48
Time_Shift_1
Note_On_63_Vel_54
Time_Shift_58
Sustain_On
Time_Shift_107
Note_On_70_Vel_55
Time_Shift_162
Note_On_67_Vel_0
Time_Shift_11
Note_On_67_Vel_50
Time_Shift_5
Note_On_63_Vel_0
Time_Shift_2
Note_On_39_Vel_49
Time_Shift_1
Note_On_63_Vel_30
Time_Shift_158
Note_On_70_Vel_0
Time_Shift_4
Note_On_70_Vel_64
Time_Shift_157
Note_On_75_Vel_0
Time_Shift_10
Note_On_75_Vel_78
Time_Shift_13
Note_On_58_Vel_0
Note_On_63_Vel_0
Note_On_67_Vel_0
Time_Shift_10
Note_On_67_Vel_51
Time_Shift_1
Note_On_63_Vel_35
Note_On_58_Vel_39
Time_Shift_135
Note_On_70_Vel_0
Time_Shift_8
Note_On_70_Vel_62
Time_Shift_194
Sustain_Off
Time_Shift_1
Note_On_63_Vel_0
Time_Shift_1
Note_On_70_Vel_0
Note_On_67_Vel_0
Note_On_58_Vel_0
Time_Shift_2
Note_On_39_Vel_0
Time_Shift_1
Note_On_75_Vel_0
Time_Shift_10
Note_On_79_Vel_80
Time_Shift_1
Note_On_46_Vel_55
Time_Shift_5
Note_On_51_Vel_0
Time_Shift_4
Note_On_68_Vel_56
Time_Shift_57
Sustain_On
Time_Shift_110
Note_On_77_Vel_78
Time_Shift_17
Note_On_70_Vel_53
Time_Shift_104
Note_On_77_Vel_0
Time_Shift_4
Note_On_77_Vel_83
Time_Shift_19
Note_On_68_Vel_0
Time_Shift_3
Note_On_62_Vel_59
Time_Shift_2
Note_On_68_Vel_73
Time_Shift_2
Note_On_46_Vel_0
Time_Shift_1
Note_On_53_Vel_59
Time_Shift_4
Note_On_75_Vel_80
Time_Shift_1
Note_On_58_Vel_63
Time_Shift_1
Note_On_46_Vel_53
Time_Shift_1
Note_On_70_Vel_0
Time_Shift_5
Note_On_70_Vel_69
Time_Shift_135
Note_On_74_Vel_79
Time_Shift_14
Note_On_70_Vel_0
Time_Shift_5
Note_On_70_Vel_76
Time_Shift_125
Note_On_68_Vel_0
Note_On_74_Vel_0
Time_Shift_6
Note_On_68_Vel_84
Time_Shift_2
Note_On_53_Vel_0
Note_On_58_Vel_0
Note_On_62_Vel_0
Note_On_74_Vel_78
Time_Shift_9
Note_On_53_Vel_66
Time_Shift_1
Note_On_72_Vel_83
Note_On_58_Vel_73
Note_On_62_Vel_64
Time_Shift_128
Note_On_70_Vel_0
Time_Shift_5
Note_On_70_Vel_88
Time_Shift_174
Sustain_Off
Note_On_75_Vel_0
Time_Shift_1
Note_On_46_Vel_0
Note_On_79_Vel_0
Note_On_53_Vel_0
Note_On_62_Vel_0
Note_On_68_Vel_0
Note_On_58_Vel_0
Note_On_77_Vel_0
Note_On_74_Vel_0
Note_On_70_Vel_0
Note_On_72_Vel_0
Time_Shift_23
Note_On_82_Vel_93
Time_Shift_1
Note_On_39_Vel_77
Time_Shift_73
Sustain_On
Time_Shift_111
Note_On_70_Vel_61
Time_Shift_169
Note_On_51_Vel_54
Time_Shift_2
Note_On_75_Vel_68
Time_Shift_1
Note_On_63_Vel_56
Time_Shift_8
Note_On_39_Vel_0
Time_Shift_4
Note_On_67_Vel_53
Time_Shift_1
Note_On_39_Vel_50
Time_Shift_8
Note_On_58_Vel_51
Time_Shift_133
Note_On_70_Vel_0
Time_Shift_11
Note_On_70_Vel_67
Time_Shift_128
Note_On_63_Vel_0
Note_On_67_Vel_0
Note_On_75_Vel_0
Time_Shift_6
Note_On_75_Vel_85
Time_Shift_1
Note_On_51_Vel_0
Note_On_58_Vel_0
Time_Shift_3
Note_On_63_Vel_65
Time_Shift_1
Note_On_67_Vel_72
Note_On_51_Vel_60
Note_On_58_Vel_67
Time_Shift_135
Note_On_70_Vel_0
Note_On_82_Vel_0
Time_Shift_7
Note_On_82_Vel_77
Time_Shift_2
Note_On_70_Vel_82
Time_Shift_97
Note_On_79_Vel_83
Time_Shift_75
Note_On_77_Vel_91
Time_Shift_10
Note_On_68_Vel_88
Time_Shift_6
Note_On_46_Vel_78
Time_Shift_4
Note_On_70_Vel_0
Note_On_63_Vel_0
Note_On_51_Vel_0
Time_Shift_1
Note_On_75_Vel_0
Note_On_67_Vel_0
Note_On_58_Vel_0
Note_On_79_Vel_0
Sustain_Off
Time_Shift_1
Note_On_39_Vel_0
Time_Shift_12
Note_On_82_Vel_0
Time_Shift_63
Note_On_46_Vel_0
Time_Shift_13
Sustain_On
Time_Shift_78
Note_On_70_Vel_73
Time_Shift_137
Note_On_68_Vel_0
Time_Shift_4
Note_On_74_Vel_89
Time_Shift_4
Note_On_68_Vel_82
Time_Shift_12
Note_On_62_Vel_56
Time_Shift_1
Note_On_53_Vel_55
Time_Shift_1
Note_On_58_Vel_62
Time_Shift_124
Note_On_70_Vel_0
Time_Shift_11
Note_On_70_Vel_81
Time_Shift_143
Note_On_68_Vel_0
Note_On_74_Vel_0
Time_Shift_5
Note_On_74_Vel_84
Time_Shift_3
Note_On_58_Vel_0
Note_On_70_Vel_0
Time_Shift_3
Note_On_68_Vel_81
Time_Shift_4
Note_On_53_Vel_0
Time_Shift_1
Note_On_70_Vel_77
Time_Shift_2
Note_On_58_Vel_70
Time_Shift_2
Note_On_53_Vel_64
Time_Shift_4
Note_On_65_Vel_59
Time_Shift_7
Note_On_65_Vel_0
Time_Shift_115
Note_On_70_Vel_0
Time_Shift_9
Note_On_70_Vel_79
Time_Shift_91
Note_On_77_Vel_0
Time_Shift_4
Note_On_77_Vel_87
Time_Shift_46
Note_On_53_Vel_0
Sustain_Off
Note_On_58_Vel_0
Note_On_68_Vel_0
Note_On_70_Vel_0
Note_On_74_Vel_0
Time_Shift_1
Note_On_77_Vel_0
Time_Shift_10
Note_On_62_Vel_0
Time_Shift_19
Note_On_75_Vel_92
Time_Shift_1
Note_On_79_Vel_82
Note_On_51_Vel_72
Time_Shift_1
Note_On_39_Vel_74
Time_Shift_1
Note_On_67_Vel_78
Time_Shift_41
Note_On_39_Vel_0
Time_Shift_14
Sustain_On
Time_Shift_106
Note_On_70_Vel_78
Time_Shift_71
Note_On_51_Vel_0
Time_Shift_80
Note_On_87_Vel_94
Time_Shift_12
Note_On_67_Vel_0
Time_Shift_1
Note_On_63_Vel_66
Time_Shift_3
Note_On_67_Vel_62
Note_On_58_Vel_63
Note_On_55_Vel_63
Time_Shift_134
Note_On_70_Vel_0
Time_Shift_11
Note_On_70_Vel_78
Time_Shift_158
Note_On_55_Vel_0
Note_On_58_Vel_0
Note_On_63_Vel_0
Time_Shift_1
Note_On_99_Vel_94
Time_Shift_6
Note_On_58_Vel_69
Note_On_55_Vel_73
Time_Shift_3
Note_On_63_Vel_65
Time_Shift_159
Note_On_70_Vel_0
Time_Shift_11
Note_On_70_Vel_74
Time_Shift_162
Note_On_55_Vel_0
Time_Shift_1
Note_On_58_Vel_0
Sustain_Off
Note_On_67_Vel_0
Note_On_63_Vel_0
Time_Shift_1
Note_On_99_Vel_0
Time_Shift_1
Note_On_75_Vel_0
Time_Shift_2
Note_On_87_Vel_0
Time_Shift_6
Note_On_79_Vel_0
Time_Shift_8
Note_On_70_Vel_0
Time_Shift_3
Note_On_79_Vel_87
Time_Shift_1
Note_On_68_Vel_74
Time_Shift_2
Note_On_46_Vel_67
Time_Shift_71
Sustain_On
Time_Shift_78
Note_On_77_Vel_85
Time_Shift_15
Note_On_70_Vel_70
Time_Shift_106
Note_On_77_Vel_0
Time_Shift_8
Note_On_68_Vel_0
Time_Shift_2
Note_On_77_Vel_88
Time_Shift_9
Note_On_68_Vel_80
Time_Shift_4
Note_On_62_Vel_63
Time_Shift_12
Note_On_58_Vel_67
Time_Shift_3
Note_On_53_Vel_60
Time_Shift_1
Note_On_70_Vel_0
Time_Shift_4
Note_On_70_Vel_71
Time_Shift_14
Note_On_75_Vel_80
Time_Shift_135
Note_On_70_Vel_0
Time_Shift_7
Note_On_74_Vel_84
Time_Shift_1
Note_On_70_Vel_76
Time_Shift_138
Note_On_74_Vel_0
Time_Shift_8
Note_On_58_Vel_0
Time_Shift_4
Note_On_74_Vel_87
Time_Shift_4
Note_On_53_Vel_0
Note_On_62_Vel_0
Note_On_68_Vel_0
Time_Shift_1
Note_On_58_Vel_74
Time_Shift_3
Note_On_53_Vel_67
Time_Shift_3
Note_On_62_Vel_63
Time_Shift_3
Note_On_68_Vel_71
Time_Shift_16
Note_On_72_Vel_78
Time_Shift_112
Note_On_70_Vel_0
Time_Shift_11
Note_On_70_Vel_81
Time_Shift_169
Sustain_Off
Time_Shift_1
Note_On_62_Vel_0
Note_On_58_Vel_0
Note_On_53_Vel_0
Note_On_68_Vel_0
Note_On_74_Vel_0
Note_On_72_Vel_0
Note_On_77_Vel_0
Note_On_75_Vel_0
Time_Shift_1
Note_On_70_Vel_0
Time_Shift_10
Note_On_46_Vel_0
Time_Shift_5
Note_On_82_Vel_94
Time_Shift_3
Note_On_79_Vel_0
Note_On_39_Vel_76
Time_Shift_69
Sustain_On
Time_Shift_117
Note_On_70_Vel_54
Time_Shift_157
Note_On_75_Vel_74
Time_Shift_6
Note_On_58_Vel_59
Time_Shift_10
Note_On_51_Vel_51
Time_Shift_1
Note_On_67_Vel_51
Time_Shift_139
Note_On_70_Vel_0
Time_Shift_5
Note_On_70_Vel_69
Time_Shift_141
Note_On_75_Vel_0
Time_Shift_7
Note_On_51_Vel_0
Note_On_58_Vel_0
Note_On_67_Vel_0
Time_Shift_4
Note_On_75_Vel_86
Time_Shift_2
Note_On_58_Vel_67
Time_Shift_4
Note_On_67_Vel_70
Time_Shift_1
Note_On_51_Vel_62
Time_Shift_135
Note_On_70_Vel_0
Time_Shift_7
Note_On_70_Vel_80
Time_Shift_94
Note_On_79_Vel_81
Time_Shift_63
Note_On_77_Vel_93
Time_Shift_17
Note_On_46_Vel_81
Time_Shift_14
Note_On_70_Vel_0
Note_On_67_Vel_0
Note_On_75_Vel_0
Note_On_79_Vel_0
Time_Shift_1
Note_On_51_Vel_0
Note_On_39_Vel_0
Note_On_58_Vel_0
Time_Shift_1
Sustain_Off
Time_Shift_11
Note_On_82_Vel_0
Time_Shift_59
Note_On_46_Vel_0
Time_Shift_17
Sustain_On
Time_Shift_59
Note_On_70_Vel_75
Time_Shift_160
Note_On_74_Vel_83
Time_Shift_9
Note_On_68_Vel_71
Time_Shift_2
Note_On_53_Vel_60
Time_Shift_2
Note_On_58_Vel_56
Note_On_62_Vel_62
Time_Shift_145
Note_On_70_Vel_0
Time_Shift_6
Note_On_70_Vel_75
Time_Shift_140
Note_On_74_Vel_0
Time_Shift_6
Note_On_74_Vel_80
Time_Shift_17
Note_On_53_Vel_0
Note_On_58_Vel_0
Note_On_68_Vel_0
Time_Shift_4
Note_On_53_Vel_56
Time_Shift_1
Note_On_68_Vel_61
Time_Shift_4
Note_On_58_Vel_60
Time_Shift_114
Note_On_70_Vel_0
Time_Shift_10
Note_On_70_Vel_71
Time_Shift_97
Note_On_77_Vel_0
Time_Shift_6
Note_On_77_Vel_83
Time_Shift_71
Note_On_68_Vel_0
Note_On_62_Vel_0
Time_Shift_1
Note_On_74_Vel_0
Time_Shift_3
Sustain_Off
Time_Shift_6
Note_On_75_Vel_79
Time_Shift_13
Note_On_53_Vel_0
Note_On_70_Vel_0
Time_Shift_2
Note_On_51_Vel_54
Time_Shift_1
Note_On_67_Vel_50
Time_Shift_3
Note_On_63_Vel_55
Time_Shift_2
Note_On_70_Vel_56
Time_Shift_23
Note_On_77_Vel_0
Time_Shift_53
Sustain_On
Time_Shift_62
Note_On_67_Vel_0
Time_Shift_38
Note_On_70_Vel_0
Time_Shift_4
Note_On_70_Vel_62
Time_Shift_161
Note_On_46_Vel_54
Time_Shift_4
Note_On_67_Vel_51
Time_Shift_146
Note_On_70_Vel_0
Time_Shift_6
Note_On_70_Vel_57
Time_Shift_155
Note_On_75_Vel_0
Time_Shift_8
Note_On_67_Vel_0
Time_Shift_3
Note_On_39_Vel_55
Note_On_75_Vel_76
Time_Shift_1
Note_On_67_Vel_53
Time_Shift_150
Note_On_70_Vel_0
Time_Shift_9
Note_On_70_Vel_55
Time_Shift_194
Note_On_63_Vel_0
Note_On_51_Vel_0
Time_Shift_1
Note_On_39_Vel_0
Note_On_70_Vel_0
Note_On_67_Vel_0
Time_Shift_1
Sustain_Off
Time_Shift_1
Note_On_75_Vel_0
Time_Shift_9
Note_On_58_Vel_0
Time_Shift_2
Note_On_79_Vel_77
Time_Shift_13
Note_On_46_Vel_0
Time_Shift_9
Note_On_68_Vel_51
Time_Shift_1
Note_On_46_Vel_52
Time_Shift_44
Sustain_On
Time_Shift_102
Note_On_77_Vel_78
Time_Shift_32
Note_On_70_Vel_50
Time_Shift_89
Note_On_77_Vel_0
Time_Shift_5
Note_On_77_Vel_87
Time_Shift_18
Note_On_68_Vel_0
Time_Shift_4
Note_On_75_Vel_81
Time_Shift_1
Note_On_68_Vel_70
Note_On_62_Vel_64
Time_Shift_4
Note_On_56_Vel_69
Note_On_58_Vel_72
Time_Shift_5
Note_On_53_Vel_58
Time_Shift_145
Note_On_74_Vel_85
Time_Shift_10
Note_On_70_Vel_0
Time_Shift_5
Note_On_70_Vel_81
Time_Shift_133
Note_On_58_Vel_0
Note_On_62_Vel_0
Note_On_68_Vel_0
Note_On_74_Vel_0
Time_Shift_4
Note_On_74_Vel_87
Time_Shift_1
Note_On_68_Vel_82
Time_Shift_3
Note_On_53_Vel_0
Time_Shift_2
Note_On_58_Vel_73
Note_On_62_Vel_70
Time_Shift_3
Note_On_53_Vel_67
Time_Shift_13
Note_On_72_Vel_85
Time_Shift_135
Note_On_70_Vel_0
Time_Shift_4
Note_On_70_Vel_87
Time_Shift_147
Note_On_62_Vel_0
Note_On_46_Vel_0
Note_On_53_Vel_0
Note_On_68_Vel_0
Note_On_74_Vel_0
Time_Shift_1
Note_On_79_Vel_0
Note_On_72_Vel_0
Note_On_70_Vel_0
Note_On_56_Vel_0
Note_On_58_Vel_0
Note_On_77_Vel_0
Time_Shift_1
Sustain_Off
Note_On_75_Vel_0
Time_Shift_38
Note_On_82_Vel_98
Time_Shift_2
Note_On_39_Vel_77
Time_Shift_45
Sustain_On
Time_Shift_127
Note_On_70_Vel_72
Time_Shift_170
Note_On_75_Vel_80
Time_Shift_7
Note_On_58_Vel_58
Time_Shift_3
Note_On_70_Vel_0
Time_Shift_4
Note_On_51_Vel_53
Note_On_67_Vel_61
Time_Shift_2
Note_On_70_Vel_60
Time_Shift_133
Note_On_70_Vel_0
Time_Shift_7
Note_On_70_Vel_71
Time_Shift_146
Note_On_51_Vel_0
Note_On_58_Vel_0
Note_On_67_Vel_0
Note_On_70_Vel_0
Note_On_75_Vel_0
Time_Shift_4
Note_On_75_Vel_89
Time_Shift_2
Note_On_58_Vel_71
Time_Shift_1
Note_On_51_Vel_63
Time_Shift_3
Note_On_67_Vel_71
Time_Shift_1
Note_On_70_Vel_79
Time_Shift_127
Note_On_70_Vel_0
Note_On_82_Vel_0
Time_Shift_8
Note_On_70_Vel_83
Note_On_82_Vel_82
Time_Shift_89
Note_On_79_Vel_80
Time_Shift_88
Sustain_Off
Time_Shift_1
Note_On_70_Vel_0
Time_Shift_1
Note_On_75_Vel_0
Note_On_51_Vel_0
Note_On_58_Vel_0
Note_On_67_Vel_0
Time_Shift_1
Note_On_79_Vel_0
Note_On_77_Vel_92
Time_Shift_4
Note_On_82_Vel_0
Time_Shift_3
Note_On_46_Vel_77
Time_Shift_1
Note_On_68_Vel_78
Time_Shift_4
Note_On_39_Vel_0
Time_Shift_2
Note_On_74_Vel_58
Time_Shift_75
Sustain_On
Time_Shift_69
Note_On_46_Vel_0
Time_Shift_27
Note_On_70_Vel_75
Time_Shift_142
Note_On_74_Vel_0
Time_Shift_8
Note_On_68_Vel_0
Note_On_74_Vel_88
Time_Shift_4
Note_On_68_Vel_82
Time_Shift_3
Note_On_62_Vel_63
Note_On_70_Vel_0
Time_Shift_4
Note_On_58_Vel_62
Note_On_53_Vel_56
Time_Shift_3
Note_On_70_Vel_69
Time_Shift_147
Note_On_70_Vel_0
Time_Shift_5
Note_On_70_Vel_70
Time_Shift_141
Note_On_68_Vel_0
Note_On_74_Vel_0
Time_Shift_5
Note_On_74_Vel_75
Time_Shift_3
Note_On_53_Vel_0
Note_On_58_Vel_0
Note_On_62_Vel_0
Time_Shift_2
Note_On_68_Vel_72
Time_Shift_4
Note_On_62_Vel_60
Time_Shift_1
Note_On_58_Vel_63
Time_Shift_2
Note_On_53_Vel_60
Time_Shift_137
Note_On_70_Vel_0
Time_Shift_5
Note_On_70_Vel_73
Time_Shift_79
Note_On_77_Vel_0
Time_Shift_10
Note_On_77_Vel_85
Time_Shift_57
Sustain_Off
Time_Shift_1
Note_On_70_Vel_0
Note_On_58_Vel_0
Note_On_62_Vel_0
Note_On_74_Vel_0
Note_On_77_Vel_0
Note_On_68_Vel_0
Time_Shift_16
Note_On_53_Vel_0
Time_Shift_22
Note_On_75_Vel_89
Time_Shift_4
Note_On_39_Vel_66
Time_Shift_3
Note_On_67_Vel_65
Time_Shift_56
Sustain_On
Time_Shift_104
Note_On_70_Vel_70
Time_Shift_111
Note_On_39_Vel_0
Time_Shift_47
Note_On_87_Vel_93
Time_Shift_3
Note_On_63_Vel_66
Time_Shift_3
Note_On_55_Vel_70
Time_Shift_2
Note_On_58_Vel_67
Time_Shift_1
Note_On_51_Vel_59
Time_Shift_144
Note_On_70_Vel_0
Time_Shift_6
Note_On_70_Vel_84
Time_Shift_176
Note_On_99_Vel_91
Time_Shift_2
Note_On_55_Vel_0
Note_On_58_Vel_0
Time_Shift_6
Note_On_55_Vel_64
Time_Shift_2
Note_On_63_Vel_0
Time_Shift_1
Note_On_58_Vel_67
Time_Shift_3
Note_On_63_Vel_63
Time_Shift_157
Note_On_70_Vel_0
Time_Shift_6
Note_On_70_Vel_75
Time_Shift_153
Sustain_Off
Note_On_70_Vel_0
Time_Shift_1
Note_On_55_Vel_0
Note_On_58_Vel_0
Time_Shift_1
Note_On_99_Vel_0
Note_On_67_Vel_0
Note_On_63_Vel_0
Note_On_75_Vel_0
Time_Shift_2
Note_On_87_Vel_0
Time_Shift_14
Note_On_51_Vel_0
Time_Shift_17
Note_On_79_Vel_86
Time_Shift_9
Note_On_46_Vel_57
Time_Shift_8
Note_On_68_Vel_52
Time_Shift_42
Sustain_On
Time_Shift_93
Note_On_77_Vel_84
Time_Shift_16
Note_On_70_Vel_75
Time_Shift_114
Note_On_77_Vel_0
Time_Shift_6
Note_On_77_Vel_92
Time_Shift_17
Note_On_68_Vel_0
Time_Shift_9
Note_On_53_Vel_61
Time_Shift_2
Note_On_68_Vel_69
Time_Shift_1
Note_On_75_Vel_75
Note_On_58_Vel_65
Time_Shift_1
Note_On_62_Vel_61
Time_Shift_3
Note_On_70_Vel_0
Time_Shift_4
Note_On_70_Vel_71
Time_Shift_137
Note_On_74_Vel_86
Time_Shift_4
Note_On_70_Vel_0
Time_Shift_7
Note_On_70_Vel_79
Time_Shift_132
Note_On_46_Vel_0
Note_On_74_Vel_0
Time_Shift_7
Note_On_53_Vel_0
Note_On_58_Vel_0
Note_On_68_Vel_0
Time_Shift_2
Note_On_74_Vel_90
Time_Shift_2
Note_On_46_Vel_69
Time_Shift_3
Note_On_68_Vel_80
Time_Shift_3
Note_On_53_Vel_69
Note_On_58_Vel_74
Time_Shift_24
Note_On_72_Vel_79
Time_Shift_120
Note_On_70_Vel_0
Time_Shift_10
Note_On_70_Vel_84
Time_Shift_149
Sustain_Off
Note_On_68_Vel_0
Time_Shift_1
Note_On_74_Vel_0
Note_On_58_Vel_0
Note_On_79_Vel_0
Time_Shift_1
Note_On_72_Vel_0
Note_On_75_Vel_0
Note_On_77_Vel_0
Time_Shift_16
Note_On_46_Vel_0
Note_On_53_Vel_0
Note_On_62_Vel_0
Note_On_70_Vel_0
Time_Shift_28
Note_On_39_Vel_65
Time_Shift_3
Note_On_82_Vel_95
Time_Shift_53
Sustain_On
Time_Shift_127
Note_On_70_Vel_78
Time_Shift_167
Note_On_75_Vel_85
Time_Shift_11
Note_On_58_Vel_62
Time_Shift_3
Note_On_67_Vel_63
Time_Shift_3
Note_On_51_Vel_48
Time_Shift_12
Note_On_70_Vel_0
Time_Shift_4
Note_On_70_Vel_44
Time_Shift_111
Note_On_70_Vel_0
Time_Shift_11
Note_On_70_Vel_73
Time_Shift_142
Note_On_58_Vel_0
Note_On_75_Vel_0
Time_Shift_8
Note_On_75_Vel_85
Note_On_51_Vel_0
Note_On_67_Vel_0
Note_On_70_Vel_0
Time_Shift_3
Note_On_58_Vel_66
Time_Shift_1
Note_On_67_Vel_68
Time_Shift_2
Note_On_51_Vel_58
Time_Shift_4
Note_On_70_Vel_71
Time_Shift_136
Note_On_70_Vel_0
Time_Shift_8
Note_On_70_Vel_76
Time_Shift_110
Note_On_79_Vel_77
Time_Shift_58
Sustain_Off
Time_Shift_3
Note_On_70_Vel_0
Note_On_51_Vel_0
Note_On_75_Vel_0
Note_On_58_Vel_0
Note_On_67_Vel_0
Time_Shift_3
Note_On_79_Vel_0
Time_Shift_6
Note_On_46_Vel_71
Note_On_77_Vel_85
Time_Shift_4
Note_On_39_Vel_0
Note_On_82_Vel_0
Time_Shift_51
Note_On_46_Vel_0
Time_Shift_26
Sustain_On
Time_Shift_112
Note_On_70_Vel_76
Time_Shift_152
Note_On_74_Vel_79
Time_Shift_7
Note_On_68_Vel_73
Time_Shift_5
Note_On_70_Vel_0
Time_Shift_1
Note_On_53_Vel_57
Time_Shift_2
Note_On_62_Vel_57
Note_On_58_Vel_56
Time_Shift_3
Note_On_70_Vel_64
Time_Shift_133
Note_On_70_Vel_0
Time_Shift_11
Note_On_70_Vel_81
Time_Shift_150
Note_On_74_Vel_0
Time_Shift_10
Note_On_74_Vel_72
Time_Shift_13
Note_On_53_Vel_0
Note_On_58_Vel_0
Note_On_62_Vel_0
Note_On_68_Vel_0
Time_Shift_4
Note_On_68_Vel_63
Note_On_62_Vel_53
Time_Shift_3
Note_On_53_Vel_53
Note_On_58_Vel_56
Time_Shift_131
Note_On_70_Vel_0
Time_Shift_5
Note_On_70_Vel_71
Time_Shift_103
Note_On_77_Vel_0
Time_Shift_9
Note_On_77_Vel_82
Time_Shift_70
Note_On_68_Vel_0
Note_On_62_Vel_0
Note_On_74_Vel_0
Time_Shift_1
Note_On_70_Vel_0
Time_Shift_1
Sustain_Off
Time_Shift_11
Note_On_58_Vel_0
Time_Shift_7
Note_On_53_Vel_0
Time_Shift_3
Note_On_75_Vel_75
Time_Shift_1
Note_On_58_Vel_58
Time_Shift_1
Note_On_51_Vel_50
Time_Shift_8
Note_On_63_Vel_51
Time_Shift_5
Note_On_67_Vel_44
Time_Shift_13
Note_On_77_Vel_0
Time_Shift_46
Sustain_On
Time_Shift_137
Note_On_70_Vel_64
Time_Shift_170
Note_On_67_Vel_0
Time_Shift_8
Note_On_51_Vel_0
Note_On_63_Vel_0
Time_Shift_2
Note_On_67_Vel_51
Time_Shift_2
Note_On_39_Vel_50
Time_Shift_1
Note_On_63_Vel_37
Time_Shift_1
Note_On_51_Vel_46
Time_Shift_155
Note_On_70_Vel_0
Time_Shift_7
Note_On_70_Vel_60
Time_Shift_170
Note_On_63_Vel_0
Note_On_75_Vel_0
Time_Shift_7
Note_On_75_Vel_81
Time_Shift_3
Note_On_63_Vel_61
Time_Shift_342
Note_On_70_Vel_0
Note_On_51_Vel_0
Time_Shift_2
Note_On_67_Vel_0
Sustain_Off
Note_On_39_Vel_0
Note_On_58_Vel_0
Time_Shift_2
Note_On_75_Vel_0
Time_Shift_13
Note_On_63_Vel_0
Time_Shift_4
Note_On_72_Vel_83
Time_Shift_1
Note_On_32_Vel_72
Time_Shift_4
Note_On_60_Vel_72
Time_Shift_34
Note_On_32_Vel_0
Time_Shift_26
Sustain_On
Time_Shift_113
Note_On_63_Vel_62
Note_On_44_Vel_57
Time_Shift_163
Note_On_60_Vel_0
Note_On_72_Vel_0
Time_Shift_4
Note_On_84_Vel_97
Time_Shift_6
Note_On_72_Vel_87
Time_Shift_1
Note_On_60_Vel_66
Note_On_51_Vel_66
Note_On_56_Vel_70
Time_Shift_142
Note_On_75_Vel_72
Time_Shift_155
Note_On_51_Vel_0
Note_On_60_Vel_0
Note_On_84_Vel_0
Time_Shift_3
Note_On_96_Vel_98
Time_Shift_1
Note_On_60_Vel_77
Time_Shift_1
Note_On_84_Vel_93
Time_Shift_2
Note_On_56_Vel_0
Time_Shift_2
Note_On_51_Vel_77
Time_Shift_3
Note_On_56_Vel_73
Time_Shift_139
Note_On_87_Vel_69
Time_Shift_144
Note_On_44_Vel_0
Sustain_Off
Note_On_63_Vel_0
Note_On_56_Vel_0
Time_Shift_1
Note_On_75_Vel_0
Note_On_87_Vel_0
Note_On_84_Vel_0
Note_On_96_Vel_0
Time_Shift_11
Note_On_51_Vel_0
Note_On_60_Vel_0
Note_On_72_Vel_0
Time_Shift_10
Note_On_94_Vel_95
Time_Shift_1
Note_On_39_Vel_83
Time_Shift_1
Note_On_27_Vel_84
Time_Shift_5
Note_On_82_Vel_89
Time_Shift_33
Note_On_39_Vel_0
Time_Shift_27
Sustain_On
Time_Shift_76
Note_On_87_Vel_79
Time_Shift_162
Note_On_27_Vel_0
Note_On_82_Vel_0
Time_Shift_2
Note_On_39_Vel_69
Time_Shift_2
Note_On_51_Vel_70
Time_Shift_1
Note_On_55_Vel_73
Note_On_27_Vel_74
Time_Shift_3
Note_On_82_Vel_91
Time_Shift_5
Note_On_70_Vel_78
Time_Shift_138
Note_On_75_Vel_80
Time_Shift_156
Note_On_70_Vel_0
Note_On_82_Vel_0
Time_Shift_5
Note_On_46_Vel_76
Time_Shift_1
Note_On_70_Vel_91
Time_Shift_1
Note_On_82_Vel_85
Time_Shift_2
Note_On_34_Vel_76
Time_Shift_123
Note_On_63_Vel_72
Time_Shift_216
Note_On_27_Vel_0
Time_Shift_1
Note_On_70_Vel_0
Note_On_75_Vel_0
Note_On_94_Vel_0
Note_On_51_Vel_0
Note_On_82_Vel_0
Note_On_39_Vel_0
Note_On_63_Vel_0
Sustain_Off
Time_Shift_1
Note_On_87_Vel_0
Time_Shift_11
Note_On_46_Vel_0
Note_On_55_Vel_0
Time_Shift_5
Note_On_77_Vel_81
Time_Shift_2
Note_On_34_Vel_0
Time_Shift_3
Note_On_46_Vel_66
Time_Shift_2
Note_On_34_Vel_67
Time_Shift_2
Note_On_68_Vel_75
Time_Shift_55
Note_On_46_Vel_0
Time_Shift_23
Sustain_On
Time_Shift_61
Note_On_34_Vel_0
Time_Shift_12
Note_On_70_Vel_75
Time_Shift_163
Note_On_79_Vel_89
Time_Shift_2
Note_On_68_Vel_0
Time_Shift_8
Note_On_70_Vel_0
Time_Shift_1
Note_On_62_Vel_65
Time_Shift_2
Note_On_68_Vel_77
Time_Shift_5
Note_On_70_Vel_72
Time_Shift_2
Note_On_74_Vel_65
Time_Shift_1
Note_On_53_Vel_55
Time_Shift_1
Note_On_46_Vel_59
Time_Shift_134
Note_On_77_Vel_0
Time_Shift_6
Note_On_77_Vel_86
Time_Shift_1
Note_On_70_Vel_0
Time_Shift_12
Note_On_70_Vel_76
Time_Shift_119
Note_On_62_Vel_0
Time_Shift_2
Note_On_76_Vel_91
Time_Shift_6
Note_On_46_Vel_0
Note_On_53_Vel_0
Note_On_68_Vel_0
Note_On_70_Vel_0
Time_Shift_3
Note_On_62_Vel_70
Time_Shift_1
Note_On_68_Vel_80
Note_On_46_Vel_66
Time_Shift_2
Note_On_53_Vel_64
Time_Shift_1
Note_On_70_Vel_83
Time_Shift_131
Note_On_77_Vel_0
Time_Shift_4
Note_On_77_Vel_87
Time_Shift_26
Note_On_70_Vel_0
Time_Shift_10
Note_On_70_Vel_75
Time_Shift_104
Sustain_Off
Time_Shift_2
Note_On_79_Vel_0
Note_On_46_Vel_0
Time_Shift_1
Note_On_74_Vel_0
Note_On_68_Vel_0
Note_On_77_Vel_0
Note_On_70_Vel_0
Note_On_76_Vel_0
Time_Shift_14
Note_On_53_Vel_0
Note_On_62_Vel_0
Time_Shift_23
Note_On_79_Vel_92
Time_Shift_4
Note_On_39_Vel_79
Time_Shift_7
Note_On_27_Vel_80
Time_Shift_7
Note_On_75_Vel_73
Time_Shift_51
Sustain_On
Time_Shift_104
Note_On_82_Vel_78
Note_On_70_Vel_83
Time_Shift_142
Note_On_75_Vel_0
Time_Shift_8
Note_On_27_Vel_0
Note_On_39_Vel_0
Note_On_79_Vel_0
Time_Shift_2
Note_On_75_Vel_79
Time_Shift_1
Note_On_79_Vel_78
Time_Shift_1
Note_On_51_Vel_65
Time_Shift_2
Note_On_27_Vel_70
Time_Shift_1
Note_On_67_Vel_69
Time_Shift_2
Note_On_39_Vel_66
Time_Shift_129
Note_On_70_Vel_0
Note_On_82_Vel_0
Time_Shift_10
Note_On_70_Vel_81
Note_On_82_Vel_78
Time_Shift_159
Note_On_51_Vel_0
Note_On_75_Vel_0
Time_Shift_5
Note_On_75_Vel_84
Time_Shift_1
Note_On_63_Vel_75
Time_Shift_1
Note_On_51_Vel_64
Time_Shift_1
Note_On_55_Vel_68
Time_Shift_300
Note_On_63_Vel_0
Note_On_27_Vel_0
Note_On_51_Vel_0
Note_On_55_Vel_0
Time_Shift_1
Note_On_75_Vel_0
Note_On_39_Vel_0
Note_On_79_Vel_0
Time_Shift_1
Sustain_Off
Time_Shift_12
Note_On_67_Vel_0
Note_On_70_Vel_0
Time_Shift_16
Note_On_82_Vel_0
Time_Shift_15
Note_On_32_Vel_69
Time_Shift_1
Note_On_72_Vel_84
Time_Shift_61
Note_On_32_Vel_0
Sustain_On
Time_Shift_105
Note_On_63_Vel_64
Time_Shift_163
Note_On_72_Vel_0
Time_Shift_3
Note_On_84_Vel_98
Time_Shift_2
Note_On_51_Vel_64
Time_Shift_1
Note_On_60_Vel_68
Note_On_56_Vel_68
Time_Shift_5
Note_On_72_Vel_85
Time_Shift_138
Note_On_75_Vel_75
Time_Shift_159
Note_On_51_Vel_0
Note_On_60_Vel_0
Note_On_84_Vel_0
Time_Shift_4
Note_On_96_Vel_101
Time_Shift_1
Note_On_60_Vel_69
Note_On_51_Vel_69
Time_Shift_2
Note_On_56_Vel_0
Time_Shift_1
Note_On_84_Vel_97
Time_Shift_4
Note_On_56_Vel_68
Time_Shift_133
Note_On_87_Vel_66
Time_Shift_157
Note_On_51_Vel_0
Note_On_56_Vel_0
Note_On_87_Vel_0
Note_On_75_Vel_0
Note_On_60_Vel_0
Time_Shift_1
Sustain_Off
Note_On_84_Vel_0
Time_Shift_1
Note_On_96_Vel_0
Time_Shift_10
Note_On_63_Vel_0
Note_On_72_Vel_0
Time_Shift_5
Note_On_94_Vel_87
Time_Shift_10
Note_On_82_Vel_79
Time_Shift_3
Note_On_39_Vel_75
Time_Shift_59
Sustain_On
Time_Shift_39
Note_On_39_Vel_0
Time_Shift_36
Note_On_87_Vel_69
Time_Shift_171
Note_On_82_Vel_0
Time_Shift_11
Note_On_51_Vel_60
Note_On_82_Vel_89
Time_Shift_1
Note_On_55_Vel_66
Time_Shift_1
Note_On_70_Vel_81
Time_Shift_2
Note_On_46_Vel_63
Time_Shift_136
Note_On_75_Vel_77
Time_Shift_172
Note_On_46_Vel_0
Note_On_51_Vel_0
Note_On_55_Vel_0
Note_On_70_Vel_0
Note_On_82_Vel_0
Time_Shift_3
Note_On_70_Vel_87
Note_On_82_Vel_85
Time_Shift_1
Note_On_51_Vel_64
Note_On_55_Vel_62
Note_On_46_Vel_67
Note_On_43_Vel_59
Time_Shift_11
Note_On_43_Vel_0
Time_Shift_120
Note_On_63_Vel_69
Time_Shift_208
Sustain_Off
Time_Shift_3
Note_On_55_Vel_0
Note_On_63_Vel_0
Time_Shift_1
Note_On_70_Vel_0
Note_On_82_Vel_0
Note_On_51_Vel_0
Time_Shift_1
Note_On_75_Vel_0
Note_On_94_Vel_0
Time_Shift_1
Note_On_87_Vel_0
Time_Shift_10
Note_On_77_Vel_79
Time_Shift_2
Note_On_46_Vel_0
Time_Shift_10
Note_On_68_Vel_68
Note_On_46_Vel_55
Note_On_34_Vel_55
Time_Shift_66
Sustain_On
Time_Shift_62
Note_On_34_Vel_0
Time_Shift_25
Note_On_70_Vel_75
Time_Shift_176
Note_On_79_Vel_87
Time_Shift_21
Note_On_68_Vel_0
Time_Shift_1
Note_On_53_Vel_49
Note_On_58_Vel_56
Time_Shift_3
Note_On_62_Vel_55
Time_Shift_1
Note_On_68_Vel_55
Time_Shift_126
Note_On_77_Vel_0
Time_Shift_8
Note_On_70_Vel_0
Time_Shift_1
Note_On_77_Vel_81
Time_Shift_4
Note_On_70_Vel_73
Time_Shift_147
Note_On_72_Vel_87
Time_Shift_1
Note_On_53_Vel_0
Note_On_62_Vel_0
Note_On_68_Vel_0
Time_Shift_5
Note_On_53_Vel_61
Time_Shift_1
Note_On_62_Vel_65
Time_Shift_2
Note_On_58_Vel_0
Time_Shift_3
Note_On_68_Vel_76
Time_Shift_5
Note_On_70_Vel_0
Time_Shift_3
Note_On_58_Vel_58
Time_Shift_2
Note_On_70_Vel_63
Time_Shift_118
Note_On_70_Vel_0
Time_Shift_8
Note_On_74_Vel_86
Time_Shift_2
Note_On_70_Vel_82
Time_Shift_152
Sustain_Off
Note_On_79_Vel_0
Note_On_46_Vel_0
Time_Shift_1
Note_On_74_Vel_0
Note_On_72_Vel_0
Note_On_77_Vel_0
Time_Shift_13
Note_On_53_Vel_0
Note_On_58_Vel_0
Time_Shift_8
Note_On_62_Vel_0
Note_On_68_Vel_0
Note_On_70_Vel_0
Time_Shift_42
Note_On_75_Vel_76
Note_On_63_Vel_63
Note_On_58_Vel_57
Time_Shift_1
Note_On_51_Vel_48
Time_Shift_1
Note_On_67_Vel_56
Time_Shift_56
Sustain_On
Time_Shift_127
Note_On_70_Vel_58
Time_Shift_195
Note_On_51_Vel_0
Note_On_67_Vel_0
Time_Shift_7
Note_On_39_Vel_53
Time_Shift_1
Note_On_79_Vel_62
Time_Shift_1
Note_On_51_Vel_50
Time_Shift_2
Note_On_67_Vel_57
Time_Shift_174
Note_On_70_Vel_0
Time_Shift_5
Note_On_70_Vel_64
Time_Shift_414
Sustain_Off
Time_Shift_2
Note_On_63_Vel_0
Note_On_67_Vel_0
Time_Shift_3
Note_On_58_Vel_0
Time_Shift_1
Note_On_70_Vel_0
Time_Shift_1
Note_On_51_Vel_0
Note_On_75_Vel_0
Note_On_39_Vel_0
Time_Shift_4
Note_On_79_Vel_0
Time_Shift_120
Note_On_39_Vel_72
Note_On_51_Vel_73
Time_Shift_43
Note_On_51_Vel_0
Time_Shift_3
Note_On_39_Vel_0
Time_Shift_10
Note_On_50_Vel_82
Time_Shift_1
Note_On_38_Vel_67
Time_Shift_57
Note_On_36_Vel_94
Note_On_60_Vel_80
Note_On_48_Vel_93
Time_Shift_16
Note_On_50_Vel_0
Note_On_38_Vel_0
Time_Shift_118
Sustain_On
Time_Shift_116
Note_On_36_Vel_0
Time_Shift_122
Note_On_48_Vel_0
Note_On_60_Vel_0
Time_Shift_11
Note_On_48_Vel_92
Time_Shift_1
Note_On_60_Vel_94
Time_Shift_1
Note_On_36_Vel_75
Time_Shift_38
Sustain_Off
Time_Shift_3
Note_On_36_Vel_0
Time_Shift_281
Note_On_58_Vel_85
Time_Shift_2
Note_On_46_Vel_89
Time_Shift_42
Note_On_60_Vel_0
Time_Shift_5
Note_On_48_Vel_0
Time_Shift_91
Note_On_44_Vel_84
Note_On_56_Vel_87
Time_Shift_1
Note_On_68_Vel_79
Time_Shift_27
Note_On_46_Vel_0
Time_Shift_6
Note_On_58_Vel_0
Time_Shift_141
Note_On_43_Vel_82
Note_On_55_Vel_95
Time_Shift_1
Note_On_74_Vel_79
Time_Shift_1
Note_On_79_Vel_78
Time_Shift_9
Note_On_74_Vel_0
Note_On_79_Vel_0
Note_On_44_Vel_0
Time_Shift_3
Note_On_56_Vel_0
Time_Shift_28
Sustain_On
Time_Shift_7
Note_On_68_Vel_0
Time_Shift_104
Note_On_43_Vel_0
Time_Shift_8
Note_On_55_Vel_0
Sustain_Off
Time_Shift_163
Note_On_79_Vel_96
Time_Shift_3
Note_On_75_Vel_94
Note_On_43_Vel_91
Time_Shift_1
Note_On_67_Vel_90
Time_Shift_1
Note_On_72_Vel_90
Note_On_55_Vel_91
Time_Shift_35
Sustain_On
Time_Shift_92
Note_On_55_Vel_0
Time_Shift_3
Note_On_72_Vel_0
Note_On_75_Vel_0
Sustain_Off
Time_Shift_5
Note_On_43_Vel_0
Note_On_67_Vel_0
Note_On_79_Vel_0
Time_Shift_192
Note_On_79_Vel_94
Time_Shift_3
Note_On_74_Vel_85
Time_Shift_1
Note_On_31_Vel_91
Note_On_71_Vel_94
Note_On_67_Vel_85
Note_On_43_Vel_85
Time_Shift_32
Note_On_67_Vel_0
Time_Shift_2
Sustain_On
Time_Shift_131
Note_On_79_Vel_0
Time_Shift_10
Note_On_71_Vel_0
Sustain_Off
Note_On_74_Vel_0
Time_Shift_5
Note_On_31_Vel_0
Note_On_43_Vel_0
Time_Shift_138
Note_On_39_Vel_66
Note_On_51_Vel_70
Time_Shift_47
Sustain_On
Time_Shift_2
Note_On_50_Vel_82
Time_Shift_2
Note_On_38_Vel_66
Time_Shift_1
Note_On_74_Vel_66
Time_Shift_4
Note_On_39_Vel_0
Time_Shift_2
Note_On_51_Vel_0
Time_Shift_50
Sustain_Off
Time_Shift_5
Note_On_48_Vel_99
Note_On_36_Vel_97
Time_Shift_33
Note_On_38_Vel_0
Time_Shift_5
Note_On_50_Vel_0
Time_Shift_3
Note_On_74_Vel_0
Time_Shift_92
Sustain_On
Time_Shift_227
Note_On_63_Vel_96
Time_Shift_2
Note_On_75_Vel_84
Time_Shift_2
Note_On_51_Vel_91
Time_Shift_6
Note_On_70_Vel_74
Time_Shift_44
Note_On_36_Vel_0
Time_Shift_1
Note_On_48_Vel_0
Time_Shift_6
Sustain_Off
Time_Shift_244
Note_On_72_Vel_80
Time_Shift_1
Note_On_60_Vel_92
Time_Shift_1
Note_On_48_Vel_89
Time_Shift_12
Note_On_70_Vel_0
Time_Shift_16
Note_On_63_Vel_0
Note_On_51_Vel_0
Time_Shift_7
Note_On_75_Vel_0
Time_Shift_111
Note_On_44_Vel_86
Note_On_56_Vel_90
Note_On_68_Vel_81
Time_Shift_12
Note_On_48_Vel_0
Time_Shift_3
Note_On_60_Vel_0
Time_Shift_12
Note_On_72_Vel_0
Time_Shift_113
Note_On_44_Vel_0
Time_Shift_16
Note_On_56_Vel_0
Time_Shift_2
Note_On_43_Vel_88
Time_Shift_1
Note_On_55_Vel_95
Time_Shift_1
Note_On_74_Vel_80
Time_Shift_28
Note_On_68_Vel_0
Time_Shift_39
Sustain_On
Time_Shift_108
Note_On_43_Vel_0
Time_Shift_2
Note_On_55_Vel_0
Time_Shift_7
Sustain_Off
Time_Shift_5
Note_On_74_Vel_0
Time_Shift_150
Note_On_79_Vel_94
Note_On_43_Vel_87
Time_Shift_1
Note_On_75_Vel_90
Note_On_55_Vel_91
Time_Shift_1
Note_On_67_Vel_88
Time_Shift_2
Note_On_72_Vel_87
Time_Shift_46
Sustain_On
Time_Shift_15
Note_On_67_Vel_0
Time_Shift_85
Note_On_55_Vel_0
Time_Shift_3
Note_On_79_Vel_0
Time_Shift_2
Note_On_75_Vel_0
Time_Shift_1
Sustain_Off
Note_On_72_Vel_0
Time_Shift_9
Note_On_43_Vel_0
Time_Shift_186
Note_On_79_Vel_93
Time_Shift_1
Note_On_67_Vel_85
Time_Shift_1
Note_On_74_Vel_84
Note_On_71_Vel_88
Time_Shift_2
Note_On_31_Vel_84
Time_Shift_2
Note_On_43_Vel_79
Time_Shift_39
Sustain_On
Time_Shift_100
Note_On_31_Vel_0
Time_Shift_1
Note_On_43_Vel_0
Time_Shift_1
Note_On_71_Vel_0
Note_On_79_Vel_0
Time_Shift_1
Sustain_Off
Note_On_74_Vel_0
Time_Shift_4
Note_On_67_Vel_0
Time_Shift_207
Note_On_79_Vel_54
Time_Shift_138
Note_On_91_Vel_65
Time_Shift_15
Note_On_39_Vel_44
Time_Shift_11
Note_On_87_Vel_49
Time_Shift_6
Sustain_On
Time_Shift_234
Note_On_89_Vel_69
Time_Shift_5
Note_On_86_Vel_65
Time_Shift_68
Note_On_89_Vel_0
Time_Shift_10
Note_On_89_Vel_81
Time_Shift_5
Note_On_86_Vel_0
Time_Shift_4
Note_On_86_Vel_68
Time_Shift_5
Note_On_63_Vel_48
Time_Shift_15
Note_On_58_Vel_51
Time_Shift_114
Note_On_87_Vel_0
Time_Shift_7
Note_On_87_Vel_81
Time_Shift_3
Note_On_84_Vel_76
Time_Shift_129
Note_On_63_Vel_0
Note_On_86_Vel_0
Time_Shift_4
Note_On_86_Vel_91
Time_Shift_3
Note_On_58_Vel_0
Time_Shift_4
Note_On_63_Vel_72
Note_On_82_Vel_83
Time_Shift_6
Note_On_58_Vel_69
Time_Shift_105
Note_On_84_Vel_0
Time_Shift_7
Note_On_84_Vel_92
Time_Shift_3
Note_On_80_Vel_86
Time_Shift_149
Note_On_91_Vel_0
Sustain_Off
Note_On_86_Vel_0
Note_On_89_Vel_0
Note_On_87_Vel_0
Note_On_58_Vel_0
Time_Shift_1
Note_On_82_Vel_0
Note_On_39_Vel_0
Time_Shift_1
Note_On_79_Vel_0
Time_Shift_8
Note_On_63_Vel_0
Time_Shift_16
Note_On_80_Vel_0
Note_On_84_Vel_0
Time_Shift_10
Note_On_84_Vel_87
Time_Shift_1
Note_On_80_Vel_81
Time_Shift_1
Note_On_39_Vel_64
Time_Shift_2
Note_On_51_Vel_64
Time_Shift_47
Note_On_51_Vel_0
Time_Shift_16
Sustain_On
Time_Shift_144
Note_On_82_Vel_80
Time_Shift_5
Note_On_79_Vel_72
Time_Shift_73
Note_On_79_Vel_0
Note_On_82_Vel_0
Time_Shift_5
Note_On_82_Vel_83
Time_Shift_5
Note_On_79_Vel_85
Time_Shift_4
Note_On_58_Vel_59
Time_Shift_5
Note_On_63_Vel_58
Time_Shift_1
Note_On_67_Vel_56
Note_On_75_Vel_57
Time_Shift_2
Note_On_70_Vel_59
Time_Shift_9
Note_On_75_Vel_0
Time_Shift_129
Note_On_81_Vel_82
Time_Shift_4
Note_On_78_Vel_80
Time_Shift_136
Note_On_80_Vel_0
Time_Shift_11
Note_On_80_Vel_81
Note_On_77_Vel_79
Time_Shift_4
Note_On_63_Vel_0
Note_On_67_Vel_0
Time_Shift_8
Note_On_58_Vel_0
Note_On_70_Vel_0
Time_Shift_1
Note_On_63_Vel_58
Time_Shift_2
Note_On_67_Vel_58
Time_Shift_2
Note_On_58_Vel_57
Time_Shift_4
Note_On_70_Vel_63
Time_Shift_106
Note_On_79_Vel_0
Time_Shift_6
Note_On_79_Vel_78
Time_Shift_4
Note_On_75_Vel_70
Time_Shift_169
Note_On_82_Vel_0
Note_On_78_Vel_0
Note_On_67_Vel_0
Note_On_58_Vel_0
Time_Shift_1
Note_On_81_Vel_0
Note_On_80_Vel_0
Sustain_Off
Note_On_77_Vel_0
Time_Shift_1
Note_On_84_Vel_0
Time_Shift_3
Note_On_39_Vel_0
Time_Shift_8
Note_On_63_Vel_0
Note_On_79_Vel_0
Time_Shift_8
Note_On_75_Vel_0
Time_Shift_2
Note_On_79_Vel_71
Time_Shift_5
Note_On_70_Vel_0
Time_Shift_2
Note_On_75_Vel_67
Time_Shift_2
Note_On_46_Vel_56
Time_Shift_66
Sustain_On
Time_Shift_129
Note_On_77_Vel_81
Time_Shift_16
Note_On_74_Vel_54
Time_Shift_85
Note_On_77_Vel_0
Time_Shift_8
Note_On_46_Vel_0
Note_On_74_Vel_0
Time_Shift_2
Note_On_77_Vel_82
Time_Shift_1
Note_On_58_Vel_71
Time_Shift_1
Note_On_74_Vel_77
Time_Shift_2
Note_On_70_Vel_76
Note_On_46_Vel_61
Time_Shift_4
Note_On_68_Vel_75
Time_Shift_133
Note_On_84_Vel_85
Time_Shift_3
Note_On_75_Vel_0
Time_Shift_9
Note_On_80_Vel_71
Note_On_75_Vel_56
Time_Shift_129
Note_On_79_Vel_0
Time_Shift_4
Note_On_79_Vel_79
Time_Shift_3
Note_On_77_Vel_0
Time_Shift_8
Note_On_58_Vel_0
Note_On_68_Vel_0
Note_On_70_Vel_0
Time_Shift_1
Note_On_82_Vel_75
Time_Shift_1
Note_On_77_Vel_69
Time_Shift_2
Note_On_58_Vel_60
Time_Shift_1
Note_On_65_Vel_54
Note_On_70_Vel_55
Time_Shift_2
Note_On_68_Vel_59
Time_Shift_116
Note_On_77_Vel_0
Note_On_80_Vel_0
Time_Shift_4
Note_On_80_Vel_69
Time_Shift_4
Note_On_77_Vel_73
Time_Shift_172
Sustain_Off
Note_On_70_Vel_0
Note_On_46_Vel_0
Note_On_68_Vel_0
Note_On_74_Vel_0
Time_Shift_1
Note_On_80_Vel_0
Note_On_82_Vel_0
Note_On_65_Vel_0
Note_On_58_Vel_0
Note_On_77_Vel_0
Note_On_75_Vel_0
Time_Shift_1
Note_On_84_Vel_0
Time_Shift_25
Note_On_79_Vel_0
Time_Shift_11
Note_On_79_Vel_72
Time_Shift_1
Note_On_63_Vel_61
Time_Shift_1
Note_On_67_Vel_52
Note_On_75_Vel_57
Time_Shift_49
Note_On_67_Vel_0
Sustain_On
Time_Shift_15
Note_On_63_Vel_0
Time_Shift_211
Note_On_75_Vel_0
Time_Shift_1
Sustain_Off
Time_Shift_3
Note_On_79_Vel_0
Time_Shift_48
Note_On_75_Vel_87
Time_Shift_1
Note_On_79_Vel_90
Time_Shift_1
Note_On_51_Vel_90
Time_Shift_1
Note_On_70_Vel_86
Time_Shift_1
Note_On_39_Vel_86
Time_Shift_40
Sustain_On
Time_Shift_101
Note_On_79_Vel_0
Time_Shift_1
Note_On_51_Vel_0
Time_Shift_2
Note_On_75_Vel_0
Note_On_70_Vel_0
Time_Shift_8
Sustain_Off
Time_Shift_11
Note_On_39_Vel_0
Time_Shift_156
Note_On_79_Vel_93
Time_Shift_1
Note_On_50_Vel_95
Time_Shift_2
Note_On_71_Vel_85
Time_Shift_2
Note_On_67_Vel_84
Time_Shift_2
Note_On_38_Vel_91
Time_Shift_1
Note_On_77_Vel_87
Time_Shift_5
Note_On_74_Vel_65
Time_Shift_46
Sustain_On
Time_Shift_235
Note_On_51_Vel_72
Time_Shift_2
Note_On_39_Vel_64
Time_Shift_40
Note_On_38_Vel_0
Time_Shift_7
Note_On_50_Vel_0
Time_Shift_4
Note_On_38_Vel_59
Time_Shift_1
Note_On_50_Vel_73
Time_Shift_13
Note_On_71_Vel_0
Time_Shift_44
Note_On_77_Vel_0
Time_Shift_3
Note_On_36_Vel_96
Note_On_48_Vel_91
Time_Shift_10
Note_On_50_Vel_0
Time_Shift_2
Note_On_74_Vel_0
Note_On_79_Vel_0
Time_Shift_2
Note_On_39_Vel_0
Time_Shift_1
Sustain_Off
Time_Shift_3
Note_On_51_Vel_0
Time_Shift_10
Note_On_38_Vel_0
Time_Shift_76
Note_On_67_Vel_0
Time_Shift_16
Sustain_On
Time_Shift_246
Note_On_36_Vel_0
Note_On_48_Vel_0
Time_Shift_5
Note_On_72_Vel_88
Time_Shift_1
Note_On_48_Vel_89
Note_On_60_Vel_94
Time_Shift_5
Note_On_36_Vel_77
Time_Shift_36
Note_On_36_Vel_0
Time_Shift_9
Sustain_Off
Time_Shift_266
Note_On_70_Vel_85
Time_Shift_2
Note_On_58_Vel_88
Time_Shift_1
Note_On_46_Vel_89
Time_Shift_31
Note_On_72_Vel_0
Time_Shift_5
Note_On_48_Vel_0
Time_Shift_7
Note_On_60_Vel_0
Time_Shift_88
Note_On_44_Vel_82
Time_Shift_1
Note_On_56_Vel_86
Note_On_68_Vel_80
Time_Shift_27
Note_On_46_Vel_0
Time_Shift_5
Note_On_58_Vel_0
Time_Shift_2
Note_On_70_Vel_0
Time_Shift_130
Note_On_55_Vel_95
Time_Shift_1
Note_On_43_Vel_85
Time_Shift_2
Note_On_74_Vel_81
Note_On_79_Vel_78
Time_Shift_4
Note_On_44_Vel_0
Time_Shift_9
Note_On_56_Vel_0
Time_Shift_15
Note_On_68_Vel_0
Time_Shift_23
Sustain_On
Time_Shift_121
Sustain_Off
Time_Shift_5
Note_On_43_Vel_0
Time_Shift_1
Note_On_55_Vel_0
Time_Shift_5
Note_On_79_Vel_0
Time_Shift_30
Note_On_74_Vel_0
Time_Shift_104
Note_On_79_Vel_90
Note_On_75_Vel_90
Note_On_43_Vel_84
Time_Shift_1
Note_On_55_Vel_90
Time_Shift_1
Note_On_72_Vel_86
Time_Shift_24
Sustain_On
Time_Shift_97
Note_On_79_Vel_0
Note_On_72_Vel_0
Note_On_75_Vel_0
Time_Shift_3
Sustain_Off
Time_Shift_8
Note_On_43_Vel_0
Note_On_55_Vel_0
Time_Shift_181
Note_On_79_Vel_90
Time_Shift_5
Note_On_74_Vel_85
Time_Shift_1
Note_On_31_Vel_87
Note_On_71_Vel_90
Note_On_43_Vel_86
Time_Shift_1
Note_On_67_Vel_85
Time_Shift_19
Sustain_On
Time_Shift_39
Note_On_67_Vel_0
Time_Shift_94
Note_On_71_Vel_0
Time_Shift_1
Note_On_74_Vel_0
Note_On_79_Vel_0
Sustain_Off
Time_Shift_4
Note_On_31_Vel_0
Note_On_43_Vel_0
Time_Shift_114
Note_On_51_Vel_75
Time_Shift_1
Note_On_39_Vel_62
Time_Shift_54
Note_On_50_Vel_81
Time_Shift_3
Note_On_38_Vel_67
Time_Shift_13
Note_On_51_Vel_0
Time_Shift_10
Note_On_39_Vel_0
Time_Shift_13
Note_On_50_Vel_0
Time_Shift_2
Note_On_38_Vel_0
Time_Shift_22
Note_On_48_Vel_97
Time_Shift_1
Note_On_36_Vel_94
Time_Shift_75
Sustain_On
Time_Shift_283
Note_On_63_Vel_96
Time_Shift_3
Note_On_51_Vel_89
Note_On_75_Vel_84
Time_Shift_45
Note_On_36_Vel_0
Time_Shift_3
Note_On_48_Vel_0
Time_Shift_4
Sustain_Off
Time_Shift_251
Note_On_72_Vel_78
Time_Shift_3
Note_On_48_Vel_84
Note_On_60_Vel_89
Time_Shift_7
Note_On_72_Vel_0
Time_Shift_17
Note_On_63_Vel_0
Time_Shift_8
Note_On_51_Vel_0
Time_Shift_102
Note_On_56_Vel_82
Time_Shift_1
Note_On_44_Vel_79
Time_Shift_12
Note_On_48_Vel_0
Time_Shift_7
Note_On_60_Vel_0
Time_Shift_45
Note_On_75_Vel_0
Time_Shift_78
Note_On_44_Vel_0
Time_Shift_8
Note_On_56_Vel_0
Time_Shift_18
Note_On_55_Vel_95
Time_Shift_5
Note_On_43_Vel_85
Time_Shift_52
Sustain_On
Time_Shift_213
Sustain_Off
Time_Shift_10
Note_On_55_Vel_0
Time_Shift_7
Note_On_43_Vel_0
Time_Shift_49
Note_On_55_Vel_92
Note_On_43_Vel_86
Time_Shift_1
Note_On_79_Vel_91
Note_On_75_Vel_92
Time_Shift_2
Note_On_72_Vel_84
Time_Shift_1
Note_On_67_Vel_86
Time_Shift_29
Note_On_55_Vel_0
Time_Shift_10
Sustain_On
Time_Shift_16
Note_On_67_Vel_0
Time_Shift_169
Note_On_43_Vel_0
Time_Shift_4
Sustain_Off
Time_Shift_1
Note_On_72_Vel_0
Time_Shift_1
Note_On_75_Vel_0
Time_Shift_17
Note_On_79_Vel_0
Time_Shift_95
Note_On_79_Vel_92
Time_Shift_1
Note_On_74_Vel_86
Note_On_71_Vel_91
Note_On_31_Vel_83
Time_Shift_1
Note_On_43_Vel_81
Time_Shift_33
Sustain_On
Time_Shift_116
Note_On_43_Vel_0
Time_Shift_7
Note_On_31_Vel_0
Time_Shift_4
Sustain_Off
Note_On_71_Vel_0
Time_Shift_1
Note_On_74_Vel_0
Time_Shift_11
Note_On_79_Vel_0
Time_Shift_167
Note_On_79_Vel_59
Time_Shift_167
Note_On_91_Vel_72
Time_Shift_27
Note_On_79_Vel_0
Time_Shift_5
Note_On_79_Vel_38
Note_On_39_Vel_42
Time_Shift_5
Note_On_87_Vel_50
Time_Shift_20
Sustain_On
Time_Shift_248
Note_On_89_Vel_69
Time_Shift_10
Note_On_86_Vel_54
Time_Shift_65
Note_On_89_Vel_0
Time_Shift_11
Note_On_89_Vel_87
Time_Shift_4
Note_On_86_Vel_0
Time_Shift_5
Note_On_86_Vel_69
Time_Shift_5
Note_On_63_Vel_49
Time_Shift_2
Note_On_67_Vel_48
Time_Shift_1
Note_On_58_Vel_52
Time_Shift_133
Note_On_87_Vel_0
Time_Shift_9
Note_On_87_Vel_84
Time_Shift_3
Note_On_84_Vel_80
Time_Shift_126
Note_On_86_Vel_0
Time_Shift_8
Note_On_63_Vel_0
Note_On_67_Vel_0
Time_Shift_1
Note_On_86_Vel_95
Time_Shift_7
Note_On_58_Vel_0
Time_Shift_2
Note_On_89_Vel_0
Time_Shift_1
Note_On_63_Vel_65
Note_On_67_Vel_67
Note_On_82_Vel_83
Note_On_91_Vel_0
Time_Shift_1
Note_On_58_Vel_64
Note_On_70_Vel_71
Time_Shift_11
Note_On_70_Vel_0
Time_Shift_85
Note_On_79_Vel_0
Time_Shift_7
Note_On_84_Vel_0
Time_Shift_11
Note_On_84_Vel_94
Time_Shift_1
Note_On_80_Vel_88
Time_Shift_152
Note_On_82_Vel_0
Note_On_58_Vel_0
Sustain_Off
Time_Shift_13
Note_On_39_Vel_0
Note_On_63_Vel_0
Note_On_67_Vel_0
Note_On_84_Vel_0
Note_On_87_Vel_0
Time_Shift_8
Note_On_80_Vel_0
Note_On_84_Vel_95
Time_Shift_3
Note_On_39_Vel_62
Time_Shift_1
Note_On_51_Vel_62
Note_On_80_Vel_83
Time_Shift_3
Note_On_86_Vel_0
Time_Shift_54
Sustain_On
Time_Shift_155
Note_On_82_Vel_81
Time_Shift_2
Note_On_79_Vel_77
Time_Shift_73
Note_On_79_Vel_0
Time_Shift_8
Note_On_82_Vel_0
Time_Shift_3
Note_On_79_Vel_80
Time_Shift_1
Note_On_82_Vel_84
Time_Shift_7
Note_On_63_Vel_61
Time_Shift_1
Note_On_70_Vel_67
Time_Shift_1
Note_On_67_Vel_60
Time_Shift_2
Note_On_58_Vel_60
Time_Shift_139
Note_On_70_Vel_0
Time_Shift_3
Note_On_81_Vel_87
Time_Shift_1
Note_On_78_Vel_85
Time_Shift_6
Note_On_70_Vel_62
Time_Shift_128
Note_On_80_Vel_0
Time_Shift_4
Note_On_80_Vel_82
Time_Shift_10
Note_On_77_Vel_80
Time_Shift_1
Note_On_63_Vel_0
Time_Shift_8
Note_On_58_Vel_0
Note_On_70_Vel_0
Time_Shift_4
Note_On_63_Vel_63
Time_Shift_4
Note_On_67_Vel_0
Time_Shift_1
Note_On_58_Vel_63
Time_Shift_2
Note_On_70_Vel_65
Time_Shift_1
Note_On_67_Vel_48
Time_Shift_103
Note_On_79_Vel_0
Time_Shift_6
Note_On_79_Vel_80
Time_Shift_4
Note_On_75_Vel_75
Time_Shift_155
Note_On_70_Vel_0
Note_On_82_Vel_0
Sustain_Off
Note_On_78_Vel_0
Time_Shift_1
Note_On_58_Vel_0
Note_On_67_Vel_0
Note_On_80_Vel_0
Note_On_81_Vel_0
Note_On_84_Vel_0
Note_On_77_Vel_0
Time_Shift_11
Note_On_39_Vel_0
Note_On_51_Vel_0
Note_On_63_Vel_0
Time_Shift_15
Note_On_75_Vel_0
Note_On_79_Vel_0
Time_Shift_6
Note_On_79_Vel_77
Time_Shift_4
Note_On_75_Vel_68
Time_Shift_1
Note_On_46_Vel_54
Time_Shift_66
Sustain_On
Time_Shift_133
Note_On_77_Vel_79
Time_Shift_15
Note_On_70_Vel_52
Time_Shift_1
Note_On_74_Vel_63
Time_Shift_104
Note_On_74_Vel_0
Time_Shift_4
Note_On_74_Vel_75
Time_Shift_4
Note_On_77_Vel_0
Time_Shift_4
Note_On_77_Vel_75
Time_Shift_1
Note_On_58_Vel_57
Time_Shift_3
Note_On_70_Vel_0
Time_Shift_6
Note_On_70_Vel_59
Time_Shift_6
Note_On_68_Vel_52
Note_On_65_Vel_49
Time_Shift_137
Note_On_84_Vel_79
Time_Shift_12
Note_On_77_Vel_0
Time_Shift_4
Note_On_80_Vel_65
Time_Shift_3
Note_On_77_Vel_51
Time_Shift_134
Note_On_82_Vel_79
Time_Shift_5
Note_On_58_Vel_0
Note_On_79_Vel_0
Time_Shift_5
Note_On_79_Vel_66
Time_Shift_3
Note_On_65_Vel_0
Note_On_68_Vel_0
Note_On_70_Vel_0
Note_On_77_Vel_0
Time_Shift_2
Note_On_58_Vel_65
Time_Shift_3
Note_On_77_Vel_59
Note_On_70_Vel_60
Time_Shift_1
Note_On_68_Vel_58
Time_Shift_3
Note_On_65_Vel_50
Time_Shift_106
Note_On_80_Vel_0
Time_Shift_8
Note_On_77_Vel_0
Time_Shift_3
Note_On_80_Vel_83
Time_Shift_1
Note_On_77_Vel_78
Time_Shift_208
Note_On_74_Vel_0
Time_Shift_2
Note_On_65_Vel_0
Note_On_68_Vel_0
Note_On_70_Vel_0
Sustain_Off
Time_Shift_1
Note_On_46_Vel_0
Note_On_77_Vel_0
Note_On_82_Vel_0
Time_Shift_1
Note_On_84_Vel_0
Time_Shift_1
Note_On_75_Vel_0
Time_Shift_13
Note_On_58_Vel_0
Note_On_80_Vel_0
Time_Shift_8
Note_On_79_Vel_0
Time_Shift_4
Note_On_79_Vel_70
Time_Shift_18
Note_On_63_Vel_55
Time_Shift_4
Note_On_75_Vel_50
Time_Shift_4
Note_On_70_Vel_53
Time_Shift_3
Note_On_58_Vel_51
Time_Shift_74
Sustain_On
Time_Shift_347
Note_On_39_Vel_47
Time_Shift_552
Note_On_63_Vel_0
Time_Shift_8
Note_On_63_Vel_45
Time_Shift_199
Note_On_79_Vel_0
Time_Shift_63
Note_On_63_Vel_0
Note_On_58_Vel_0
Time_Shift_1
Note_On_39_Vel_0
Sustain_Off
Note_On_70_Vel_0
Time_Shift_9
Note_On_72_Vel_64
Time_Shift_6
Note_On_32_Vel_53
Time_Shift_8
Note_On_60_Vel_45
Time_Shift_37
Note_On_32_Vel_0
Time_Shift_7
Note_On_75_Vel_0
Time_Shift_23
Sustain_On
Time_Shift_127
Note_On_63_Vel_54
Time_Shift_169
Note_On_84_Vel_85
Time_Shift_11
Note_On_60_Vel_0
Note_On_63_Vel_0
Note_On_72_Vel_0
Time_Shift_4
Note_On_72_Vel_66
Note_On_56_Vel_50
Time_Shift_1
Note_On_63_Vel_50
Time_Shift_4
Note_On_51_Vel_47
Time_Shift_1
Note_On_60_Vel_50
Time_Shift_127
Note_On_75_Vel_77
Time_Shift_162
Note_On_51_Vel_0
Note_On_60_Vel_0
Note_On_84_Vel_0
Time_Shift_8
Note_On_56_Vel_0
Note_On_96_Vel_93
Time_Shift_2
Note_On_51_Vel_68
Time_Shift_1
Note_On_84_Vel_89
Time_Shift_1
Note_On_60_Vel_64
Note_On_63_Vel_0
Time_Shift_2
Note_On_56_Vel_65
Note_On_72_Vel_0
Time_Shift_139
Note_On_87_Vel_75
Time_Shift_135
Note_On_60_Vel_0
Note_On_56_Vel_0
Note_On_87_Vel_0
Sustain_Off
Time_Shift_4
Note_On_96_Vel_0
Time_Shift_8
Note_On_51_Vel_0
Note_On_75_Vel_0
Time_Shift_8
Note_On_84_Vel_0
Time_Shift_4
Note_On_39_Vel_75
Time_Shift_3
Note_On_27_Vel_78
Time_Shift_4
Note_On_94_Vel_86
Time_Shift_7
Note_On_82_Vel_84
Time_Shift_51
Sustain_On
Time_Shift_80
Note_On_87_Vel_79
Time_Shift_158
Note_On_82_Vel_0
Time_Shift_9
Note_On_82_Vel_86
Time_Shift_10
Note_On_70_Vel_73
Time_Shift_2
Note_On_51_Vel_62
Time_Shift_4
Note_On_46_Vel_58
Time_Shift_5
Note_On_55_Vel_55
Time_Shift_121
Note_On_75_Vel_75
Time_Shift_171
Note_On_46_Vel_0
Note_On_70_Vel_0
Note_On_82_Vel_0
Time_Shift_8
Note_On_39_Vel_0
Time_Shift_2
Note_On_82_Vel_76
Note_On_70_Vel_83
Time_Shift_1
Note_On_46_Vel_66
Time_Shift_1
Note_On_39_Vel_57
Time_Shift_3
Note_On_34_Vel_62
Time_Shift_131
Note_On_55_Vel_0
Time_Shift_220
Sustain_Off
Time_Shift_3
Note_On_46_Vel_0
Note_On_77_Vel_85
Time_Shift_2
Note_On_75_Vel_0
Time_Shift_1
Note_On_82_Vel_0
Note_On_70_Vel_0
Note_On_87_Vel_0
Note_On_39_Vel_0
Time_Shift_1
Note_On_94_Vel_0
Time_Shift_4
Note_On_34_Vel_0
Time_Shift_3
Note_On_46_Vel_62
Note_On_68_Vel_75
Time_Shift_1
Note_On_34_Vel_60
Time_Shift_3
Note_On_27_Vel_0
Time_Shift_8
Note_On_51_Vel_0
Time_Shift_61
Sustain_On
Time_Shift_98
Note_On_82_Vel_69
Time_Shift_1
Note_On_70_Vel_77
Time_Shift_155
Note_On_68_Vel_0
Time_Shift_3
Note_On_79_Vel_82
Time_Shift_4
Note_On_74_Vel_67
Time_Shift_1
Note_On_70_Vel_0
Time_Shift_2
Note_On_68_Vel_70
Time_Shift_2
Note_On_62_Vel_61
Time_Shift_5
Note_On_58_Vel_56
Time_Shift_1
Note_On_53_Vel_56
Time_Shift_1
Note_On_70_Vel_66
Time_Shift_127
Note_On_77_Vel_0
Time_Shift_6
Note_On_77_Vel_82
Time_Shift_1
Note_On_70_Vel_0
Time_Shift_5
Note_On_70_Vel_73
Time_Shift_11
Note_On_34_Vel_0
Time_Shift_107
Note_On_68_Vel_0
Time_Shift_7
Note_On_76_Vel_90
Time_Shift_1
Note_On_46_Vel_0
Note_On_70_Vel_0
Time_Shift_4
Note_On_68_Vel_84
Time_Shift_4
Note_On_53_Vel_0
Time_Shift_3
Note_On_46_Vel_64
Note_On_70_Vel_84
Note_On_50_Vel_66
Time_Shift_1
Note_On_34_Vel_70
Time_Shift_2
Note_On_53_Vel_64
Time_Shift_1
Note_On_50_Vel_0
Time_Shift_123
Note_On_77_Vel_0
Time_Shift_12
Note_On_77_Vel_87
Time_Shift_19
Note_On_70_Vel_0
Time_Shift_8
Note_On_70_Vel_67
Time_Shift_133
Sustain_Off
Note_On_74_Vel_0
Note_On_76_Vel_0
Time_Shift_1
Note_On_82_Vel_0
Time_Shift_12
Note_On_34_Vel_0
Note_On_46_Vel_0
Note_On_53_Vel_0
Note_On_58_Vel_0
Note_On_62_Vel_0
Note_On_68_Vel_0
Note_On_79_Vel_0
Time_Shift_4
Note_On_79_Vel_90
Note_On_27_Vel_76
Time_Shift_1
Note_On_39_Vel_75
Time_Shift_2
Note_On_70_Vel_0
Note_On_77_Vel_0
Time_Shift_10
Note_On_70_Vel_66
Time_Shift_1
Note_On_75_Vel_77
Time_Shift_44
Note_On_27_Vel_0
Time_Shift_22
Sustain_On
Time_Shift_69
Note_On_39_Vel_0
Time_Shift_16
Note_On_70_Vel_0
Time_Shift_7
Note_On_82_Vel_76
Time_Shift_2
Note_On_70_Vel_79
Time_Shift_152
Note_On_75_Vel_0
Time_Shift_6
Note_On_75_Vel_83
Time_Shift_6
Note_On_63_Vel_62
Note_On_51_Vel_59
Note_On_39_Vel_60
Time_Shift_5
Note_On_67_Vel_62
Time_Shift_121
Note_On_70_Vel_0
Time_Shift_4
Note_On_70_Vel_69
Time_Shift_165
Note_On_75_Vel_0
Time_Shift_8
Note_On_51_Vel_0
Note_On_63_Vel_0
Note_On_67_Vel_0
Time_Shift_2
Note_On_75_Vel_85
Time_Shift_2
Note_On_67_Vel_56
Note_On_63_Vel_71
Time_Shift_1
Note_On_55_Vel_64
Time_Shift_4
Note_On_51_Vel_63
Time_Shift_301
Note_On_55_Vel_0
Note_On_63_Vel_0
Note_On_39_Vel_0
Note_On_67_Vel_0
Note_On_75_Vel_0
Time_Shift_1
Note_On_79_Vel_0
Sustain_Off
Time_Shift_4
Note_On_82_Vel_0
Time_Shift_7
Note_On_70_Vel_0
Time_Shift_6
Note_On_32_Vel_69
Time_Shift_1
Note_On_72_Vel_80
Time_Shift_1
Note_On_51_Vel_0
Time_Shift_2
Note_On_44_Vel_64
Time_Shift_1
Note_On_60_Vel_65
Time_Shift_38
Note_On_32_Vel_0
Time_Shift_43
Sustain_On
Time_Shift_96
Note_On_63_Vel_56
Time_Shift_163
Note_On_84_Vel_98
Time_Shift_3
Note_On_44_Vel_0
Note_On_60_Vel_0
Note_On_72_Vel_0
Time_Shift_4
Note_On_44_Vel_68
Time_Shift_2
Note_On_72_Vel_82
Time_Shift_1
Note_On_60_Vel_63
Time_Shift_1
Note_On_56_Vel_68
Note_On_51_Vel_65
Time_Shift_135
Note_On_75_Vel_73
Time_Shift_163
Note_On_96_Vel_99
Time_Shift_1
Note_On_51_Vel_0
Note_On_60_Vel_0
Note_On_84_Vel_0
Time_Shift_4
Note_On_84_Vel_95
Time_Shift_3
Note_On_56_Vel_0
Time_Shift_1
Note_On_60_Vel_72
Time_Shift_1
Note_On_51_Vel_68
Time_Shift_4
Note_On_56_Vel_70
Time_Shift_145
Note_On_87_Vel_69
Time_Shift_161
Sustain_Off
Time_Shift_1
Note_On_51_Vel_0
Time_Shift_1
Note_On_84_Vel_0
Note_On_75_Vel_0
Note_On_44_Vel_0
Note_On_56_Vel_0
Note_On_87_Vel_0
Note_On_60_Vel_0
Time_Shift_1
Note_On_63_Vel_0
Time_Shift_1
Note_On_96_Vel_0
Time_Shift_3
Note_On_94_Vel_85
Time_Shift_7
Note_On_82_Vel_85
Note_On_39_Vel_79
Time_Shift_5
Note_On_72_Vel_0
Time_Shift_69
Sustain_On
Time_Shift_67
Note_On_87_Vel_77
Time_Shift_25
Note_On_39_Vel_0
Time_Shift_154
Note_On_82_Vel_0
Time_Shift_4
Note_On_55_Vel_60
Time_Shift_1
Note_On_82_Vel_87
Time_Shift_1
Note_On_39_Vel_60
Time_Shift_4
Note_On_43_Vel_55
Time_Shift_1
Note_On_70_Vel_72
Time_Shift_1
Note_On_46_Vel_61
Time_Shift_137
Note_On_75_Vel_76
Time_Shift_158
Note_On_39_Vel_0
Note_On_46_Vel_0
Note_On_70_Vel_0
Note_On_82_Vel_0
Time_Shift_4
Note_On_51_Vel_62
Note_On_82_Vel_75
Note_On_70_Vel_80
Time_Shift_4
Note_On_46_Vel_65
Time_Shift_1
Note_On_39_Vel_60
Time_Shift_131
Note_On_63_Vel_65
Time_Shift_213
Note_On_43_Vel_0
Time_Shift_18
Note_On_39_Vel_0
Note_On_51_Vel_0
Note_On_77_Vel_81
Time_Shift_1
Note_On_70_Vel_0
Note_On_63_Vel_0
Note_On_82_Vel_0
Note_On_94_Vel_0
Note_On_75_Vel_0
Note_On_87_Vel_0
Time_Shift_1
Sustain_Off
Time_Shift_3
Note_On_55_Vel_0
Time_Shift_6
Note_On_68_Vel_75
Time_Shift_2
Note_On_46_Vel_0
Time_Shift_4
Note_On_46_Vel_62
Time_Shift_1
Note_On_34_Vel_59
Time_Shift_44
Note_On_34_Vel_0
Time_Shift_51
Sustain_On
Time_Shift_75
Note_On_70_Vel_72
Time_Shift_163
Note_On_68_Vel_0
Time_Shift_4
Note_On_79_Vel_82
Time_Shift_6
Note_On_68_Vel_71
Time_Shift_5
Note_On_46_Vel_0
Time_Shift_3
Note_On_62_Vel_57
Time_Shift_1
Note_On_53_Vel_55
Time_Shift_2
Note_On_58_Vel_56
Time_Shift_6
Note_On_46_Vel_55
Time_Shift_142
Note_On_77_Vel_0
Time_Shift_8
Note_On_77_Vel_86
Time_Shift_15
Note_On_70_Vel_0
Time_Shift_9
Note_On_70_Vel_69
Time_Shift_141
Note_On_72_Vel_83
Time_Shift_11
Note_On_53_Vel_0
Note_On_68_Vel_0
Note_On_70_Vel_0
Time_Shift_6
Note_On_68_Vel_72
Time_Shift_2
Note_On_70_Vel_73
Note_On_58_Vel_0
Note_On_62_Vel_0
Time_Shift_2
Note_On_53_Vel_56
Time_Shift_8
Note_On_58_Vel_62
Time_Shift_1
Note_On_62_Vel_58
Time_Shift_138
Note_On_74_Vel_76
Time_Shift_12
Note_On_70_Vel_0
Time_Shift_5
Note_On_70_Vel_57
Time_Shift_207
Note_On_53_Vel_0
Sustain_Off
Time_Shift_1
Note_On_79_Vel_0
Note_On_68_Vel_0
Note_On_62_Vel_0
Note_On_46_Vel_0
Note_On_72_Vel_0
Note_On_70_Vel_0
Time_Shift_1
Note_On_74_Vel_0
Note_On_77_Vel_0
Time_Shift_24
Note_On_58_Vel_0
Time_Shift_2
Note_On_75_Vel_67
Time_Shift_8
Note_On_58_Vel_45
Time_Shift_12
Note_On_51_Vel_41
Time_Shift_5
Note_On_67_Vel_45
Time_Shift_134
Sustain_On
Time_Shift_404
Note_On_39_Vel_47
Time_Shift_441
Note_On_75_Vel_0
Time_Shift_7
Note_On_75_Vel_59
Time_Shift_1
Note_On_63_Vel_76
Time_Shift_154
Note_On_70_Vel_75
Time_Shift_45
Note_On_75_Vel_0
Time_Shift_12
Note_On_75_Vel_77
Time_Shift_86
Note_On_79_Vel_81
Time_Shift_49
Note_On_82_Vel_85
Time_Shift_75
Note_On_87_Vel_82
Time_Shift_73
Sustain_Off
Time_Shift_1
Note_On_63_Vel_0
Note_On_58_Vel_0
Note_On_67_Vel_0
Note_On_82_Vel_0
Note_On_70_Vel_0
Note_On_87_Vel_0
Note_On_75_Vel_0
Time_Shift_7
Note_On_91_Vel_102
Time_Shift_5
Note_On_39_Vel_0
Note_On_51_Vel_0
Time_Shift_5
Note_On_51_Vel_71
Time_Shift_1
Note_On_39_Vel_75
Time_Shift_101
Sustain_On
Time_Shift_379
Note_On_63_Vel_58
Time_Shift_7
Note_On_67_Vel_61
Time_Shift_10
Note_On_58_Vel_58
Time_Shift_127
Note_On_89_Vel_94
Time_Shift_2
Note_On_77_Vel_85
Time_Shift_143
Note_On_70_Vel_81
Note_On_58_Vel_0
Note_On_63_Vel_0
Note_On_67_Vel_0
Note_On_79_Vel_0
Note_On_91_Vel_0
Time_Shift_5
Note_On_91_Vel_87
Time_Shift_1
Note_On_79_Vel_90
Note_On_87_Vel_87
Time_Shift_1
Note_On_67_Vel_77
Note_On_58_Vel_77
Note_On_63_Vel_77
Time_Shift_224
Note_On_63_Vel_0
Time_Shift_5
Note_On_72_Vel_72
Time_Shift_2
Note_On_39_Vel_0
Time_Shift_2
Note_On_60_Vel_73
Time_Shift_1
Note_On_68_Vel_80
Time_Shift_1
Note_On_56_Vel_68
Note_On_63_Vel_64
Time_Shift_1
Note_On_80_Vel_84
Note_On_84_Vel_88
Time_Shift_32
Note_On_58_Vel_0
Note_On_79_Vel_0
Note_On_63_Vel_0
Note_On_87_Vel_0
Time_Shift_1
Note_On_91_Vel_0
Note_On_67_Vel_0
Time_Shift_1
Note_On_89_Vel_0
Time_Shift_1
Sustain_Off
Note_On_51_Vel_0
Time_Shift_6
Note_On_56_Vel_0
Note_On_70_Vel_0
Time_Shift_1
Note_On_60_Vel_0
Time_Shift_2
Note_On_68_Vel_0
Time_Shift_5
Note_On_77_Vel_0
Time_Shift_39
Note_On_72_Vel_0
Time_Shift_1
Note_On_82_Vel_93
Note_On_67_Vel_86
Time_Shift_2
Note_On_79_Vel_90
Note_On_58_Vel_85
Time_Shift_1
Note_On_63_Vel_81
Time_Shift_1
Note_On_70_Vel_84
Time_Shift_1
Note_On_84_Vel_0
Time_Shift_3
Note_On_75_Vel_82
Time_Shift_67
Sustain_On
Time_Shift_269
Note_On_58_Vel_0
Note_On_63_Vel_0
Note_On_82_Vel_0
Time_Shift_7
Note_On_63_Vel_70
Time_Shift_1
Note_On_67_Vel_0
Note_On_70_Vel_0
Note_On_79_Vel_0
Time_Shift_3
Note_On_82_Vel_79
Note_On_58_Vel_72
Time_Shift_1
Note_On_70_Vel_81
Time_Shift_1
Note_On_79_Vel_73
Time_Shift_1
Note_On_67_Vel_69
Time_Shift_163
Note_On_79_Vel_0
Time_Shift_3
Note_On_91_Vel_79
Time_Shift_1
Note_On_79_Vel_86
Time_Shift_3
Note_On_91_Vel_0
Time_Shift_177
Note_On_80_Vel_0
Time_Shift_3
Note_On_82_Vel_0
Time_Shift_1
Note_On_70_Vel_0
Sustain_Off
Note_On_63_Vel_0
Time_Shift_1
Note_On_79_Vel_0
Time_Shift_3
Note_On_75_Vel_0
Time_Shift_7
Note_On_58_Vel_0
Note_On_67_Vel_0
Time_Shift_4
Note_On_75_Vel_78
Time_Shift_1
Note_On_58_Vel_64
Time_Shift_1
Note_On_67_Vel_66
Time_Shift_5
Note_On_51_Vel_58
Time_Shift_66
Sustain_On
Time_Shift_234
Sustain_Off
Time_Shift_1
Note_On_67_Vel_0
Note_On_58_Vel_0
Note_On_75_Vel_0
Note_On_51_Vel_0
Time_Shift_36
Note_On_39_Vel_68
Time_Shift_1
Note_On_67_Vel_64
Time_Shift_1
Note_On_79_Vel_66
Note_On_70_Vel_75
Time_Shift_50
Sustain_On
Time_Shift_31
Note_On_39_Vel_0
Time_Shift_130
Note_On_79_Vel_0
Time_Shift_15
Note_On_70_Vel_0
Time_Shift_10
Note_On_70_Vel_77
Time_Shift_67
Note_On_70_Vel_0
Time_Shift_9
Note_On_82_Vel_85
Note_On_58_Vel_67
Time_Shift_1
Note_On_70_Vel_90
Note_On_63_Vel_58
Time_Shift_1
Note_On_39_Vel_62
Time_Shift_2
Note_On_51_Vel_64
Time_Shift_3
Note_On_67_Vel_0
Time_Shift_6
Note_On_79_Vel_69
Time_Shift_5
Note_On_67_Vel_73
Time_Shift_4
Note_On_79_Vel_0
Time_Shift_177
Note_On_70_Vel_0
Note_On_82_Vel_0
Time_Shift_9
Note_On_82_Vel_80
Note_On_70_Vel_87
Time_Shift_83
Note_On_58_Vel_0
Note_On_63_Vel_0
Note_On_67_Vel_0
Note_On_70_Vel_0
Time_Shift_4
Note_On_70_Vel_89
Time_Shift_2
Note_On_63_Vel_68
Time_Shift_1
Note_On_51_Vel_0
Time_Shift_2
Note_On_58_Vel_75
Note_On_67_Vel_78
Time_Shift_3
Note_On_51_Vel_64
Time_Shift_11
Note_On_75_Vel_67
Time_Shift_146
Note_On_75_Vel_0
Time_Shift_5
Note_On_75_Vel_92
Note_On_87_Vel_75
Time_Shift_10
Note_On_87_Vel_0
Time_Shift_151
Note_On_70_Vel_0
Note_On_63_Vel_0
Note_On_51_Vel_0
Note_On_67_Vel_0
Time_Shift_1
Note_On_58_Vel_0
Time_Shift_2
Note_On_39_Vel_0
Sustain_Off
Time_Shift_1
Note_On_75_Vel_0
Time_Shift_6
Note_On_82_Vel_0
Time_Shift_12
Note_On_77_Vel_85
Time_Shift_16
Note_On_46_Vel_74
Time_Shift_8
Note_On_74_Vel_64
Time_Shift_5
Note_On_70_Vel_64
Time_Shift_67
Sustain_On
Time_Shift_246
Note_On_70_Vel_0
Time_Shift_6
Note_On_82_Vel_70
Time_Shift_1
Note_On_77_Vel_0
Time_Shift_1
Note_On_70_Vel_77
Time_Shift_6
Note_On_65_Vel_53
Time_Shift_4
Note_On_77_Vel_59
Time_Shift_2
Note_On_68_Vel_52
Time_Shift_2
Note_On_58_Vel_54
Time_Shift_78
Note_On_77_Vel_0
Time_Shift_7
Note_On_74_Vel_0
Time_Shift_2
Note_On_77_Vel_79
Time_Shift_3
Note_On_74_Vel_71
Time_Shift_72
Note_On_70_Vel_0
Note_On_82_Vel_0
Time_Shift_10
Note_On_82_Vel_80
Time_Shift_1
Note_On_70_Vel_89
Time_Shift_89
Note_On_82_Vel_0
Time_Shift_5
Note_On_82_Vel_94
Time_Shift_3
Note_On_70_Vel_0
Time_Shift_7
Note_On_58_Vel_0
Note_On_65_Vel_0
Note_On_68_Vel_0
Note_On_77_Vel_0
Time_Shift_4
Note_On_70_Vel_76
Time_Shift_1
Note_On_77_Vel_69
Note_On_65_Vel_69
Time_Shift_4
Note_On_58_Vel_75
Time_Shift_2
Note_On_68_Vel_70
Time_Shift_166
Note_On_70_Vel_0
Time_Shift_6
Note_On_70_Vel_74
Time_Shift_49
Note_On_75_Vel_85
Time_Shift_80
Note_On_79_Vel_82
Time_Shift_41
Note_On_82_Vel_0
Time_Shift_10
Note_On_82_Vel_85
Time_Shift_61
Note_On_87_Vel_83
Time_Shift_65
Sustain_Off
Time_Shift_2
Note_On_68_Vel_0
Time_Shift_1
Note_On_58_Vel_0
Note_On_74_Vel_0
Note_On_77_Vel_0
Note_On_91_Vel_101
Time_Shift_1
Note_On_65_Vel_0
Note_On_82_Vel_0
Note_On_70_Vel_0
Note_On_75_Vel_0
Time_Shift_6
Note_On_46_Vel_0
Time_Shift_12
Note_On_39_Vel_82
Time_Shift_50
Note_On_87_Vel_0
Time_Shift_54
Sustain_On
Time_Shift_23
Note_On_39_Vel_0
Time_Shift_255
Note_On_63_Vel_61
Time_Shift_19
Note_On_67_Vel_49
Note_On_58_Vel_55
Time_Shift_86
Note_On_89_Vel_93
Time_Shift_3
Note_On_77_Vel_83
Time_Shift_136
Note_On_58_Vel_0
Note_On_63_Vel_0
Note_On_67_Vel_0
Note_On_79_Vel_0
Time_Shift_4
Note_On_87_Vel_88
Time_Shift_2
Note_On_67_Vel_71
Time_Shift_2
Note_On_63_Vel_65
Time_Shift_2
Note_On_58_Vel_71
Time_Shift_1
Note_On_79_Vel_85
Time_Shift_219
Note_On_63_Vel_0
Time_Shift_7
Note_On_84_Vel_91
Time_Shift_3
Note_On_60_Vel_73
Time_Shift_1
Note_On_63_Vel_71
Note_On_68_Vel_79
Time_Shift_1
Note_On_80_Vel_87
Time_Shift_61
Sustain_Off
Note_On_77_Vel_0
Note_On_60_Vel_0
Note_On_91_Vel_0
Note_On_87_Vel_0
Time_Shift_1
Note_On_80_Vel_0
Note_On_89_Vel_0
Time_Shift_1
Note_On_68_Vel_0
Time_Shift_3
Note_On_84_Vel_0
Time_Shift_22
Note_On_58_Vel_0
Note_On_63_Vel_0
Note_On_67_Vel_0
Note_On_79_Vel_0
Time_Shift_5
Note_On_67_Vel_83
Note_On_79_Vel_90
Note_On_82_Vel_94
Time_Shift_2
Note_On_58_Vel_79
Time_Shift_2
Note_On_63_Vel_79
Time_Shift_1
Note_On_70_Vel_82
Time_Shift_82
Sustain_On
Time_Shift_238
Note_On_58_Vel_0
Note_On_63_Vel_0
Note_On_70_Vel_0
Time_Shift_6
Note_On_63_Vel_76
Time_Shift_2
Note_On_67_Vel_0
Time_Shift_3
Note_On_58_Vel_72
Note_On_70_Vel_82
Time_Shift_4
Note_On_67_Vel_71
Time_Shift_223
Note_On_79_Vel_0
Time_Shift_6
Note_On_79_Vel_81
Time_Shift_58
Sustain_Off
Time_Shift_1
Note_On_63_Vel_0
Note_On_82_Vel_0
Note_On_79_Vel_0
Time_Shift_20
Note_On_70_Vel_0
Time_Shift_8
Note_On_58_Vel_0
Note_On_67_Vel_0
Time_Shift_4
Note_On_58_Vel_68
Time_Shift_1
Note_On_51_Vel_64
Note_On_75_Vel_86
Time_Shift_3
Note_On_67_Vel_72
Time_Shift_53
Sustain_On
Time_Shift_261
Sustain_Off
Time_Shift_2
Note_On_58_Vel_0
Time_Shift_1
Note_On_51_Vel_0
Note_On_75_Vel_0
Time_Shift_5
Note_On_67_Vel_0
Time_Shift_29
Note_On_68_Vel_74
Time_Shift_1
Note_On_70_Vel_79
Time_Shift_3
Note_On_46_Vel_66
Time_Shift_2
Note_On_58_Vel_54
Time_Shift_57
Sustain_On
Time_Shift_169
Note_On_70_Vel_0
Time_Shift_9
Note_On_82_Vel_78
Time_Shift_1
Note_On_70_Vel_84
Time_Shift_5
Note_On_82_Vel_0
Time_Shift_23
Note_On_46_Vel_0
Time_Shift_54
Note_On_70_Vel_0
Time_Shift_8
Note_On_82_Vel_87
Note_On_58_Vel_0
Note_On_68_Vel_0
Time_Shift_2
Note_On_70_Vel_92
Time_Shift_2
Note_On_68_Vel_80
Time_Shift_2
Note_On_58_Vel_67
Time_Shift_3
Note_On_65_Vel_57
Time_Shift_2
Note_On_46_Vel_62
Time_Shift_12
Sustain_Off
Time_Shift_84
Sustain_On
Time_Shift_77
Note_On_70_Vel_0
Time_Shift_5
Note_On_74_Vel_78
Time_Shift_6
Note_On_70_Vel_65
Time_Shift_135
Note_On_58_Vel_0
Note_On_68_Vel_0
Note_On_70_Vel_0
Time_Shift_5
Note_On_70_Vel_77
Time_Shift_3
Note_On_46_Vel_0
Note_On_65_Vel_0
Note_On_68_Vel_66
Time_Shift_3
Note_On_58_Vel_62
Time_Shift_1
Note_On_46_Vel_55
Note_On_65_Vel_56
Time_Shift_8
Sustain_Off
Time_Shift_1
Note_On_74_Vel_0
Time_Shift_10
Note_On_82_Vel_0
Time_Shift_69
Note_On_65_Vel_0
Time_Shift_23
Note_On_46_Vel_0
Note_On_58_Vel_0
Time_Shift_29
Note_On_74_Vel_72
Time_Shift_25
Note_On_70_Vel_0
Time_Shift_7
Note_On_68_Vel_0
Time_Shift_174
Note_On_74_Vel_0
Time_Shift_4
Note_On_75_Vel_71
Time_Shift_4
Note_On_58_Vel_46
Time_Shift_15
Note_On_63_Vel_45
Note_On_67_Vel_35
Time_Shift_3
Note_On_51_Vel_37
Time_Shift_38
Sustain_On
Time_Shift_420
Note_On_39_Vel_49
Time_Shift_318
Note_On_63_Vel_0
Note_On_75_Vel_0
Time_Shift_7
Note_On_75_Vel_58
Time_Shift_1
Note_On_63_Vel_72
Time_Shift_88
Note_On_70_Vel_81
Time_Shift_57
Note_On_75_Vel_0
Time_Shift_11
Note_On_75_Vel_78
Time_Shift_74
Note_On_79_Vel_87
Time_Shift_51
Note_On_82_Vel_86
Time_Shift_59
Note_On_87_Vel_85
Time_Shift_39
Note_On_63_Vel_0
Note_On_67_Vel_0
Note_On_58_Vel_0
Time_Shift_1
Note_On_70_Vel_0
Note_On_75_Vel_0
Note_On_82_Vel_0
Note_On_51_Vel_0
Time_Shift_1
Sustain_Off
Time_Shift_18
Note_On_39_Vel_0
Time_Shift_2
Note_On_91_Vel_101
Time_Shift_5
Note_On_51_Vel_77
Note_On_79_Vel_0
Time_Shift_3
Note_On_39_Vel_82
Time_Shift_8
Note_On_79_Vel_75
Time_Shift_12
Note_On_87_Vel_0
Time_Shift_31
Note_On_51_Vel_0
Time_Shift_16
Sustain_On
Time_Shift_92
Note_On_39_Vel_0
Time_Shift_199
Note_On_79_Vel_0
Time_Shift_2
Note_On_63_Vel_62
Time_Shift_3
Note_On_79_Vel_67
Time_Shift_6
Note_On_70_Vel_59
Time_Shift_1
Note_On_67_Vel_59
Time_Shift_1
Note_On_58_Vel_60
Time_Shift_3
Note_On_70_Vel_0
Time_Shift_125
Note_On_89_Vel_95
Time_Shift_1
Note_On_77_Vel_83
Time_Shift_143
Note_On_91_Vel_0
Time_Shift_7
Note_On_58_Vel_0
Note_On_63_Vel_0
Note_On_67_Vel_0
Note_On_79_Vel_0
Time_Shift_3
Note_On_87_Vel_90
Time_Shift_1
Note_On_91_Vel_85
Time_Shift_1
Note_On_79_Vel_90
Time_Shift_1
Note_On_70_Vel_80
Time_Shift_1
Note_On_63_Vel_71
Time_Shift_1
Note_On_58_Vel_71
Time_Shift_2
Note_On_67_Vel_73
Time_Shift_221
Note_On_63_Vel_0
Time_Shift_3
Note_On_60_Vel_76
Time_Shift_2
Note_On_84_Vel_89
Time_Shift_1
Note_On_68_Vel_79
Time_Shift_1
Note_On_79_Vel_0
Time_Shift_2
Note_On_63_Vel_62
Time_Shift_1
Note_On_80_Vel_86
Time_Shift_1
Note_On_79_Vel_77
Time_Shift_32
Note_On_63_Vel_0
Note_On_67_Vel_0
Time_Shift_1
Note_On_58_Vel_0
Note_On_91_Vel_0
Sustain_Off
Time_Shift_1
Note_On_77_Vel_0
Note_On_89_Vel_0
Note_On_87_Vel_0
Time_Shift_16
Note_On_70_Vel_0
Time_Shift_1
Note_On_80_Vel_0
Time_Shift_3
Note_On_68_Vel_0
Time_Shift_19
Note_On_79_Vel_0
Time_Shift_5
Note_On_82_Vel_95
Time_Shift_1
Note_On_79_Vel_93
Time_Shift_2
Note_On_60_Vel_0
Time_Shift_4
Note_On_84_Vel_0
Note_On_70_Vel_83
Note_On_67_Vel_76
Time_Shift_1
Note_On_58_Vel_80
Time_Shift_1
Note_On_63_Vel_75
Time_Shift_63
Sustain_On
Time_Shift_253
Note_On_63_Vel_0
Time_Shift_8
Note_On_58_Vel_0
Note_On_67_Vel_0
Note_On_70_Vel_0
Note_On_79_Vel_0
Note_On_82_Vel_0
Time_Shift_1
Note_On_63_Vel_72
Time_Shift_3
Note_On_82_Vel_84
Time_Shift_1
Note_On_58_Vel_74
Time_Shift_1
Note_On_70_Vel_86
Time_Shift_4
Note_On_77_Vel_76
Time_Shift_1
Note_On_67_Vel_71
Note_On_79_Vel_81
Time_Shift_158
Note_On_79_Vel_0
Time_Shift_4
Note_On_91_Vel_80
Time_Shift_1
Note_On_79_Vel_88
Time_Shift_138
Note_On_82_Vel_0
Note_On_67_Vel_0
Note_On_79_Vel_0
Time_Shift_1
Sustain_Off
Time_Shift_2
Note_On_77_Vel_0
Time_Shift_2
Note_On_91_Vel_0
Time_Shift_21
Note_On_58_Vel_0
Note_On_63_Vel_0
Note_On_70_Vel_0
Time_Shift_1
Note_On_87_Vel_79
Time_Shift_3
Note_On_75_Vel_90
Time_Shift_2
Note_On_58_Vel_79
Time_Shift_2
Note_On_87_Vel_0
Time_Shift_1
Note_On_63_Vel_79
Note_On_70_Vel_78
Time_Shift_1
Note_On_51_Vel_70
Time_Shift_44
Sustain_On
Time_Shift_255
Note_On_63_Vel_0
Note_On_70_Vel_0
Time_Shift_1
Note_On_51_Vel_0
Time_Shift_1
Note_On_58_Vel_0
Note_On_75_Vel_0
Sustain_Off
Time_Shift_46
Note_On_39_Vel_59
Time_Shift_1
Note_On_82_Vel_67
Note_On_67_Vel_62
Note_On_79_Vel_64
Note_On_70_Vel_70
Note_On_51_Vel_57
Time_Shift_11
Note_On_82_Vel_0
Time_Shift_61
Sustain_On
Time_Shift_154
Note_On_70_Vel_0
Note_On_79_Vel_0
Time_Shift_11
Note_On_82_Vel_67
Note_On_70_Vel_79
Time_Shift_58
Note_On_51_Vel_0
Time_Shift_7
Note_On_82_Vel_0
Time_Shift_8
Note_On_70_Vel_0
Time_Shift_3
Note_On_82_Vel_87
Time_Shift_1
Note_On_70_Vel_91
Time_Shift_4
Note_On_67_Vel_0
Time_Shift_8
Note_On_63_Vel_59
Time_Shift_2
Note_On_79_Vel_72
Time_Shift_1
Note_On_67_Vel_71
Note_On_58_Vel_64
Note_On_51_Vel_67
Time_Shift_196
Note_On_70_Vel_0
Note_On_82_Vel_0
Time_Shift_5
Note_On_70_Vel_88
Note_On_82_Vel_75
Time_Shift_87
Note_On_70_Vel_0
Note_On_82_Vel_0
Time_Shift_8
Note_On_51_Vel_0
Note_On_58_Vel_0
Note_On_63_Vel_0
Note_On_67_Vel_0
Note_On_79_Vel_0
Time_Shift_2
Note_On_82_Vel_85
Time_Shift_1
Note_On_70_Vel_93
Time_Shift_1
Note_On_58_Vel_73
Note_On_79_Vel_80
Time_Shift_1
Note_On_67_Vel_77
Time_Shift_1
Note_On_63_Vel_68
Time_Shift_4
Note_On_51_Vel_67
Time_Shift_8
Note_On_75_Vel_73
Time_Shift_5
Note_On_75_Vel_0
Time_Shift_146
Note_On_79_Vel_0
Time_Shift_4
Note_On_75_Vel_90
Note_On_87_Vel_80
Time_Shift_1
Note_On_79_Vel_69
Time_Shift_10
Note_On_87_Vel_0
Time_Shift_145
Sustain_Off
Note_On_70_Vel_0
Note_On_63_Vel_0
Note_On_51_Vel_0
Time_Shift_1
Note_On_67_Vel_0
Time_Shift_1
Note_On_75_Vel_0
Note_On_58_Vel_0
Note_On_79_Vel_0
Time_Shift_15
Note_On_39_Vel_0
Note_On_82_Vel_0
Time_Shift_4
Note_On_77_Vel_91
Time_Shift_3
Note_On_46_Vel_80
Time_Shift_3
Note_On_89_Vel_80
Time_Shift_1
Note_On_74_Vel_73
Time_Shift_4
Note_On_89_Vel_0
Time_Shift_77
Note_On_46_Vel_0
Sustain_On
Time_Shift_255
Note_On_70_Vel_81
Time_Shift_1
Note_On_82_Vel_73
Time_Shift_1
Note_On_65_Vel_53
Time_Shift_1
Note_On_58_Vel_59
Time_Shift_1
Note_On_68_Vel_62
Time_Shift_86
Note_On_77_Vel_0
Time_Shift_8
Note_On_74_Vel_0
Time_Shift_3
Note_On_77_Vel_83
Time_Shift_2
Note_On_74_Vel_77
Time_Shift_79
Note_On_70_Vel_0
Note_On_82_Vel_0
Time_Shift_6
Note_On_82_Vel_84
Time_Shift_2
Note_On_94_Vel_81
Note_On_70_Vel_93
Time_Shift_8
Note_On_94_Vel_0
Time_Shift_92
Note_On_65_Vel_0
Note_On_68_Vel_0
Note_On_70_Vel_0
Note_On_82_Vel_0
Time_Shift_6
Note_On_82_Vel_81
Time_Shift_2
Note_On_58_Vel_0
Time_Shift_1
Note_On_65_Vel_63
Note_On_94_Vel_70
Time_Shift_2
Note_On_70_Vel_72
Note_On_68_Vel_68
Time_Shift_1
Note_On_58_Vel_73
Time_Shift_3
Note_On_94_Vel_0
Time_Shift_169
Note_On_70_Vel_0
Note_On_82_Vel_0
Time_Shift_5
Note_On_82_Vel_80
Time_Shift_1
Note_On_70_Vel_85
Time_Shift_45
Note_On_75_Vel_78
Time_Shift_71
Note_On_79_Vel_85
Time_Shift_2
Note_On_91_Vel_81
Time_Shift_7
Note_On_91_Vel_0
Time_Shift_38
Note_On_82_Vel_0
Time_Shift_5
Note_On_82_Vel_85
Time_Shift_53
Note_On_87_Vel_85
Time_Shift_25
Note_On_74_Vel_0
Time_Shift_1
Note_On_70_Vel_0
Note_On_68_Vel_0
Time_Shift_1
Note_On_58_Vel_0
Note_On_65_Vel_0
Sustain_Off
Note_On_82_Vel_0
Time_Shift_2
Note_On_75_Vel_0
Time_Shift_13
Note_On_77_Vel_0
Time_Shift_11
Note_On_91_Vel_98
Time_Shift_12
Note_On_79_Vel_0
Time_Shift_9
Note_On_39_Vel_70
Time_Shift_1
Note_On_79_Vel_66
Time_Shift_44
Sustain_On
Time_Shift_146
Note_On_39_Vel_0
Time_Shift_176
Note_On_58_Vel_63
Time_Shift_1
Note_On_63_Vel_53
Time_Shift_3
Note_On_67_Vel_57
Time_Shift_122
Note_On_89_Vel_91
Time_Shift_3
Note_On_77_Vel_81
Time_Shift_156
Note_On_87_Vel_0
Time_Shift_4
Note_On_87_Vel_83
Time_Shift_3
Note_On_58_Vel_0
Note_On_63_Vel_0
Note_On_67_Vel_0
Note_On_79_Vel_0
Note_On_91_Vel_0
Time_Shift_7
Note_On_63_Vel_64
Note_On_91_Vel_77
Time_Shift_2
Note_On_58_Vel_62
Note_On_79_Vel_82
Time_Shift_1
Note_On_67_Vel_64
Time_Shift_205
Note_On_63_Vel_0
Time_Shift_10
Note_On_63_Vel_61
Time_Shift_2
Note_On_60_Vel_66
Note_On_68_Vel_72
Time_Shift_1
Note_On_56_Vel_61
Time_Shift_1
Note_On_84_Vel_84
Time_Shift_4
Note_On_80_Vel_80
Time_Shift_20
Note_On_58_Vel_0
Time_Shift_2
Sustain_Off
Time_Shift_1
Note_On_91_Vel_0
Time_Shift_1
Note_On_79_Vel_0
Note_On_67_Vel_0
Note_On_89_Vel_0
Note_On_87_Vel_0
Time_Shift_1
Note_On_77_Vel_0
Time_Shift_9
Note_On_56_Vel_0
Time_Shift_11
Note_On_60_Vel_0
Time_Shift_6
Note_On_63_Vel_0
Time_Shift_34
Note_On_82_Vel_92
Note_On_79_Vel_90
Time_Shift_1
Note_On_67_Vel_79
Note_On_58_Vel_81
Time_Shift_1
Note_On_63_Vel_78
Time_Shift_3
Note_On_68_Vel_0
Time_Shift_3
Note_On_84_Vel_0
Note_On_77_Vel_80
Time_Shift_5
Note_On_77_Vel_0
Time_Shift_53
Note_On_80_Vel_0
Time_Shift_16
Sustain_On
Time_Shift_253
Note_On_58_Vel_0
Note_On_63_Vel_0
Time_Shift_5
Note_On_63_Vel_74
Time_Shift_3
Note_On_67_Vel_0
Time_Shift_2
Note_On_58_Vel_73
Time_Shift_2
Note_On_70_Vel_80
Time_Shift_1
Note_On_77_Vel_72
Time_Shift_2
Note_On_67_Vel_65
Time_Shift_208
Note_On_79_Vel_0
Time_Shift_4
Note_On_79_Vel_79
Time_Shift_88
Note_On_58_Vel_0
Note_On_63_Vel_0
Note_On_67_Vel_0
Time_Shift_3
Note_On_75_Vel_93
Time_Shift_2
Note_On_63_Vel_71
Time_Shift_1
Note_On_58_Vel_76
Time_Shift_2
Note_On_70_Vel_0
Time_Shift_2
Note_On_67_Vel_73
Note_On_51_Vel_68
Time_Shift_2
Note_On_70_Vel_77
Time_Shift_328
Sustain_Off
Time_Shift_1
Note_On_63_Vel_0
Note_On_67_Vel_0
Time_Shift_1
Note_On_75_Vel_0
Note_On_79_Vel_0
Note_On_51_Vel_0
Time_Shift_4
Note_On_82_Vel_0
Time_Shift_7
Note_On_70_Vel_0
Note_On_77_Vel_0
Time_Shift_8
Note_On_58_Vel_0
Time_Shift_1
Note_On_82_Vel_72
Time_Shift_2
Note_On_46_Vel_66
Time_Shift_1
Note_On_70_Vel_83
Time_Shift_1
Note_On_68_Vel_70
Time_Shift_3
Note_On_82_Vel_0
Time_Shift_3
Note_On_58_Vel_59
Time_Shift_73
Sustain_On
Time_Shift_162
Note_On_70_Vel_0
Time_Shift_3
Note_On_82_Vel_71
Time_Shift_1
Note_On_70_Vel_82
Time_Shift_88
Note_On_82_Vel_0
Time_Shift_8
Note_On_58_Vel_0
Note_On_68_Vel_0
Note_On_70_Vel_0
Time_Shift_1
Note_On_82_Vel_80
Time_Shift_3
Note_On_70_Vel_80
Time_Shift_1
Note_On_58_Vel_63
Time_Shift_1
Note_On_68_Vel_74
Time_Shift_3
Note_On_65_Vel_54
Time_Shift_194
Note_On_74_Vel_76
Time_Shift_142
Note_On_58_Vel_0
Note_On_65_Vel_0
Note_On_68_Vel_0
Note_On_70_Vel_0
Time_Shift_4
Note_On_70_Vel_75
Time_Shift_2
Note_On_65_Vel_56
Note_On_68_Vel_65
Note_On_58_Vel_63
Time_Shift_140
Note_On_74_Vel_0
Time_Shift_6
Note_On_74_Vel_76
Time_Shift_197
Note_On_82_Vel_0
Note_On_68_Vel_0
Note_On_70_Vel_0
Note_On_65_Vel_0
Note_On_58_Vel_0
Note_On_74_Vel_0
Time_Shift_1
Note_On_46_Vel_0
Sustain_Off
Time_Shift_29
Note_On_75_Vel_75
Time_Shift_12
Note_On_58_Vel_55
Time_Shift_2
Note_On_67_Vel_46
Time_Shift_1
Note_On_63_Vel_57
Note_On_51_Vel_51
Time_Shift_59
Sustain_On
Time_Shift_354
Note_On_67_Vel_0
Time_Shift_11
Note_On_39_Vel_50
Time_Shift_672
Note_On_63_Vel_0
Time_Shift_10
Note_On_63_Vel_46
Time_Shift_286
Note_On_51_Vel_0
Note_On_63_Vel_0
Note_On_39_Vel_0
Note_On_58_Vel_0
Time_Shift_1
Note_On_75_Vel_0
Time_Shift_4
Sustain_Off
Time_Shift_6
Note_On_72_Vel_66
Time_Shift_11
Note_On_60_Vel_50
Time_Shift_14
Note_On_32_Vel_50
Time_Shift_44
Sustain_On
Time_Shift_39
Note_On_32_Vel_0
Time_Shift_125
Note_On_63_Vel_50
Time_Shift_164
Note_On_84_Vel_77
Time_Shift_8
Note_On_51_Vel_44
Time_Shift_2
Note_On_60_Vel_0
Note_On_72_Vel_0
Time_Shift_4
Note_On_56_Vel_52
Note_On_44_Vel_50
Time_Shift_4
Note_On_72_Vel_54
Time_Shift_3
Note_On_60_Vel_41
Time_Shift_155
Note_On_75_Vel_46
Time_Shift_157
Note_On_51_Vel_0
Note_On_56_Vel_0
Note_On_60_Vel_0
Note_On_84_Vel_0
Time_Shift_3
Note_On_96_Vel_91
Time_Shift_3
Note_On_84_Vel_81
Time_Shift_4
Note_On_56_Vel_64
Time_Shift_1
Note_On_60_Vel_59
Note_On_51_Vel_63
Time_Shift_159
Note_On_87_Vel_71
Time_Shift_146
Note_On_96_Vel_0
Note_On_44_Vel_0
Time_Shift_1
Note_On_51_Vel_0
Note_On_60_Vel_0
Note_On_56_Vel_0
Note_On_84_Vel_0
Note_On_75_Vel_0
Note_On_87_Vel_0
Time_Shift_1
Sustain_Off
Time_Shift_11
Note_On_27_Vel_66
Note_On_39_Vel_61
Time_Shift_1
Note_On_63_Vel_0
Note_On_72_Vel_0
Time_Shift_1
Note_On_94_Vel_84
Time_Shift_8
Note_On_82_Vel_80
Time_Shift_37
Sustain_On
Time_Shift_92
Note_On_94_Vel_0
Time_Shift_2
Note_On_87_Vel_82
Time_Shift_167
Note_On_82_Vel_0
Time_Shift_10
Note_On_82_Vel_85
Time_Shift_6
Note_On_27_Vel_0
Note_On_39_Vel_0
Time_Shift_4
Note_On_27_Vel_54
Note_On_39_Vel_49
Time_Shift_6
Note_On_70_Vel_71
Time_Shift_129
Note_On_75_Vel_81
Time_Shift_168
Note_On_70_Vel_0
Note_On_82_Vel_0
Time_Shift_9
Note_On_70_Vel_80
Time_Shift_2
Note_On_82_Vel_74
Time_Shift_6
Note_On_51_Vel_49
Note_On_55_Vel_50
Time_Shift_1
Note_On_46_Vel_59
Time_Shift_142
Note_On_63_Vel_58
Time_Shift_225
Note_On_55_Vel_0
Time_Shift_1
Note_On_70_Vel_0
Note_On_82_Vel_0
Note_On_75_Vel_0
Note_On_39_Vel_0
Sustain_Off
Time_Shift_1
Note_On_63_Vel_0
Time_Shift_1
Note_On_77_Vel_77
Note_On_87_Vel_0
Time_Shift_11
Note_On_27_Vel_0
Note_On_51_Vel_0
Time_Shift_1
Note_On_68_Vel_73
Time_Shift_9
Note_On_34_Vel_52
Time_Shift_13
Note_On_46_Vel_0
Time_Shift_31
Sustain_On
Time_Shift_122
Note_On_70_Vel_73
Time_Shift_162
Note_On_68_Vel_0
Time_Shift_9
Note_On_79_Vel_81
Time_Shift_2
Note_On_68_Vel_77
Time_Shift_7
Note_On_74_Vel_68
Time_Shift_9
Note_On_46_Vel_53
Time_Shift_3
Note_On_53_Vel_53
Time_Shift_3
Note_On_62_Vel_57
Time_Shift_1
Note_On_58_Vel_54
Time_Shift_127
Note_On_77_Vel_0
Time_Shift_11
Note_On_77_Vel_91
Time_Shift_12
Note_On_70_Vel_0
Time_Shift_5
Note_On_70_Vel_70
Time_Shift_109
Note_On_76_Vel_93
Time_Shift_2
Note_On_68_Vel_0
Time_Shift_7
Note_On_70_Vel_0
Time_Shift_3
Note_On_68_Vel_83
Time_Shift_4
Note_On_70_Vel_84
Time_Shift_1
Note_On_53_Vel_0
Note_On_58_Vel_0
Note_On_62_Vel_0
Time_Shift_6
Note_On_62_Vel_65
Time_Shift_1
Note_On_58_Vel_68
Time_Shift_3
Note_On_53_Vel_63
Time_Shift_121
Note_On_77_Vel_0
Time_Shift_10
Note_On_77_Vel_93
Time_Shift_13
Note_On_70_Vel_0
Time_Shift_5
Note_On_70_Vel_70
Time_Shift_128
Sustain_Off
Time_Shift_1
Note_On_46_Vel_0
Note_On_62_Vel_0
Note_On_53_Vel_0
Note_On_70_Vel_0
Note_On_58_Vel_0
Note_On_76_Vel_0
Time_Shift_1
Note_On_77_Vel_0
Time_Shift_11
Note_On_34_Vel_0
Time_Shift_7
Note_On_68_Vel_0
Note_On_79_Vel_0
Time_Shift_4
Note_On_79_Vel_91
Time_Shift_4
Note_On_74_Vel_0
Time_Shift_11
Note_On_27_Vel_73
Note_On_39_Vel_71
Time_Shift_8
Note_On_75_Vel_69
Time_Shift_42
Sustain_On
Time_Shift_112
Note_On_70_Vel_74
Time_Shift_142
Note_On_27_Vel_0
Time_Shift_7
Note_On_75_Vel_0
Time_Shift_9
Note_On_75_Vel_74
Time_Shift_19
Note_On_58_Vel_57
Note_On_67_Vel_48
Note_On_51_Vel_58
Time_Shift_1
Note_On_63_Vel_57
Time_Shift_10
Note_On_67_Vel_0
Time_Shift_107
Note_On_70_Vel_0
Time_Shift_5
Note_On_70_Vel_69
Time_Shift_164
Note_On_75_Vel_0
Time_Shift_7
Note_On_75_Vel_85
Time_Shift_1
Note_On_39_Vel_0
Note_On_51_Vel_0
Note_On_63_Vel_0
Time_Shift_8
Note_On_39_Vel_54
Time_Shift_1
Note_On_55_Vel_57
Time_Shift_2
Note_On_67_Vel_51
Note_On_63_Vel_61
Note_On_51_Vel_61
Time_Shift_334
Note_On_51_Vel_0
Time_Shift_1
Note_On_58_Vel_0
Note_On_39_Vel_0
Note_On_75_Vel_0
Time_Shift_1
Sustain_Off
Note_On_79_Vel_0
Time_Shift_14
Note_On_55_Vel_0
Note_On_63_Vel_0
Note_On_67_Vel_0
Note_On_70_Vel_0
Time_Shift_4
Note_On_72_Vel_75
Time_Shift_7
Note_On_32_Vel_58
Time_Shift_1
Note_On_60_Vel_55
Time_Shift_3
Note_On_44_Vel_55
Time_Shift_54
Sustain_On
Time_Shift_46
Note_On_32_Vel_0
Time_Shift_68
Note_On_63_Vel_61
Time_Shift_170
Note_On_44_Vel_0
Note_On_72_Vel_0
Time_Shift_1
Note_On_84_Vel_84
Time_Shift_7
Note_On_60_Vel_0
Time_Shift_1
Note_On_44_Vel_57
Time_Shift_1
Note_On_51_Vel_54
Time_Shift_2
Note_On_72_Vel_67
Note_On_56_Vel_54
Time_Shift_4
Note_On_60_Vel_50
Time_Shift_136
Note_On_75_Vel_63
Time_Shift_171
Note_On_51_Vel_0
Note_On_56_Vel_0
Note_On_60_Vel_0
Note_On_84_Vel_0
Note_On_96_Vel_87
Time_Shift_4
Note_On_51_Vel_60
Time_Shift_2
Note_On_84_Vel_77
Note_On_63_Vel_0
Time_Shift_1
Note_On_60_Vel_56
Time_Shift_3
Note_On_56_Vel_60
Time_Shift_138
Note_On_87_Vel_64
Time_Shift_164
Sustain_Off
Time_Shift_2
Note_On_51_Vel_0
Note_On_60_Vel_0
Note_On_56_Vel_0
Time_Shift_1
Note_On_44_Vel_0
Time_Shift_1
Note_On_84_Vel_0
Note_On_75_Vel_0
Time_Shift_1
Note_On_87_Vel_0
Time_Shift_6
Note_On_96_Vel_0
Time_Shift_3
Note_On_94_Vel_78
Time_Shift_6
Note_On_82_Vel_78
Time_Shift_1
Note_On_39_Vel_59
Time_Shift_5
Note_On_72_Vel_0
Time_Shift_46
Sustain_On
Time_Shift_89
Note_On_87_Vel_68
Time_Shift_164
Note_On_82_Vel_0
Time_Shift_11
Note_On_82_Vel_83
Time_Shift_8
Note_On_55_Vel_58
Time_Shift_2
Note_On_46_Vel_51
Time_Shift_7
Note_On_70_Vel_61
Time_Shift_26
Note_On_39_Vel_0
Time_Shift_111
Note_On_75_Vel_68
Time_Shift_20
Note_On_94_Vel_0
Time_Shift_153
Note_On_46_Vel_0
Note_On_55_Vel_0
Note_On_70_Vel_0
Time_Shift_5
Note_On_70_Vel_69
Note_On_55_Vel_46
Time_Shift_5
Note_On_46_Vel_53
Time_Shift_133
Note_On_63_Vel_68
Time_Shift_212
Note_On_55_Vel_0
Note_On_46_Vel_0
Note_On_70_Vel_0
Note_On_63_Vel_0
Note_On_82_Vel_0
Time_Shift_1
Sustain_Off
Note_On_75_Vel_0
Time_Shift_1
Note_On_87_Vel_0
Time_Shift_3
Note_On_77_Vel_78
Time_Shift_13
Note_On_68_Vel_65
Note_On_34_Vel_56
Time_Shift_65
Sustain_On
Time_Shift_93
Note_On_70_Vel_77
Time_Shift_53
Note_On_34_Vel_0
Time_Shift_128
Note_On_79_Vel_77
Time_Shift_2
Note_On_68_Vel_0
Time_Shift_8
Note_On_70_Vel_0
Time_Shift_1
Note_On_68_Vel_64
Time_Shift_9
Note_On_62_Vel_55
Time_Shift_2
Note_On_70_Vel_62
Time_Shift_1
Note_On_58_Vel_53
Time_Shift_1
Note_On_53_Vel_53
Time_Shift_3
Note_On_46_Vel_51
Time_Shift_121
Note_On_77_Vel_0
Time_Shift_8
Note_On_77_Vel_83
Time_Shift_154
Note_On_68_Vel_0
Note_On_72_Vel_88
Time_Shift_7
Note_On_46_Vel_0
Note_On_53_Vel_0
Note_On_58_Vel_0
Note_On_70_Vel_0
Time_Shift_4
Note_On_68_Vel_79
Note_On_46_Vel_60
Time_Shift_1
Note_On_53_Vel_53
Time_Shift_1
Note_On_70_Vel_75
Time_Shift_3
Note_On_58_Vel_63
Time_Shift_128
Note_On_74_Vel_87
Time_Shift_17
Note_On_70_Vel_0
Time_Shift_9
Note_On_70_Vel_61
Time_Shift_130
Note_On_53_Vel_0
Sustain_Off
Time_Shift_1
Note_On_62_Vel_0
Note_On_79_Vel_0
Time_Shift_1
Note_On_58_Vel_0
Note_On_68_Vel_0
Note_On_72_Vel_0
Note_On_46_Vel_0
Note_On_77_Vel_0
Note_On_70_Vel_0
Time_Shift_45
Note_On_75_Vel_81
Time_Shift_17
Note_On_74_Vel_0
Time_Shift_17
Note_On_58_Vel_52
Time_Shift_1
Note_On_67_Vel_55
Time_Shift_3
Note_On_51_Vel_47
Time_Shift_1
Note_On_63_Vel_53
Time_Shift_44
Sustain_On
Time_Shift_116
Note_On_70_Vel_62
Time_Shift_199
Note_On_51_Vel_0
Note_On_67_Vel_0
Time_Shift_8
Note_On_67_Vel_52
Note_On_39_Vel_47
Time_Shift_1
Note_On_51_Vel_47
Time_Shift_167
Note_On_70_Vel_0
Time_Shift_9
Note_On_70_Vel_51
Time_Shift_297
Note_On_70_Vel_0
Note_On_63_Vel_0
Note_On_51_Vel_0
Sustain_Off
Time_Shift_2
Note_On_58_Vel_0
Note_On_39_Vel_0
Time_Shift_1
Note_On_75_Vel_0
Time_Shift_14
Note_On_67_Vel_0
Time_Shift_54
Note_On_63_Vel_77
Note_On_75_Vel_62
Time_Shift_53
Sustain_On
Time_Shift_109
Note_On_63_Vel_0
Time_Shift_7
Note_On_75_Vel_0
Time_Shift_7
Sustain_Off
Time_Shift_46
Note_On_75_Vel_73
Note_On_63_Vel_85
Time_Shift_1
Note_On_51_Vel_77
Time_Shift_38
Sustain_On
Time_Shift_216
Note_On_62_Vel_85
Note_On_74_Vel_72
Time_Shift_1
Note_On_50_Vel_82
Time_Shift_32
Note_On_63_Vel_0
Time_Shift_1
Note_On_51_Vel_0
Sustain_Off
Time_Shift_3
Note_On_75_Vel_0
Time_Shift_41
Note_On_72_Vel_85
Time_Shift_1
Note_On_60_Vel_98
Note_On_48_Vel_88
Time_Shift_16
Note_On_62_Vel_0
Time_Shift_1
Note_On_50_Vel_0
Time_Shift_3
Note_On_74_Vel_0
Time_Shift_84
Sustain_On
Time_Shift_219
Sustain_Off
Time_Shift_5
Note_On_48_Vel_0
Time_Shift_1
Note_On_60_Vel_0
Time_Shift_17
Note_On_63_Vel_90
Note_On_45_Vel_76
Time_Shift_1
Note_On_75_Vel_77
Time_Shift_3
Note_On_54_Vel_79
Note_On_51_Vel_79
Time_Shift_46
Note_On_72_Vel_0
Time_Shift_15
Note_On_45_Vel_0
Sustain_On
Time_Shift_284
Note_On_54_Vel_0
Time_Shift_2
Sustain_Off
Time_Shift_14
Note_On_75_Vel_0
Time_Shift_7
Note_On_51_Vel_0
Time_Shift_5
Note_On_58_Vel_85
Note_On_70_Vel_83
Note_On_51_Vel_79
Note_On_46_Vel_82
Note_On_55_Vel_81
Time_Shift_7
Note_On_67_Vel_66
Time_Shift_81
Sustain_On
Time_Shift_230
Note_On_51_Vel_0
Note_On_63_Vel_0
Time_Shift_4
Sustain_Off
Time_Shift_2
Note_On_58_Vel_0
Time_Shift_1
Note_On_46_Vel_0
Time_Shift_1
Note_On_70_Vel_0
Note_On_55_Vel_0
Time_Shift_3
Note_On_51_Vel_84
Note_On_63_Vel_93
Time_Shift_1
Note_On_75_Vel_78
Time_Shift_1
Note_On_70_Vel_69
Time_Shift_2
Note_On_67_Vel_0
Time_Shift_39
Note_On_70_Vel_0
Time_Shift_84
Sustain_On
Time_Shift_121
Note_On_79_Vel_78
Time_Shift_1
Note_On_67_Vel_83
Time_Shift_4
Note_On_55_Vel_80
Time_Shift_1
Sustain_Off
Note_On_74_Vel_64
Time_Shift_1
Note_On_63_Vel_0
Note_On_51_Vel_0
Time_Shift_3
Note_On_74_Vel_0
Time_Shift_23
Note_On_75_Vel_0
Time_Shift_45
Note_On_67_Vel_0
Time_Shift_3
Note_On_55_Vel_0
Time_Shift_3
Note_On_82_Vel_88
Time_Shift_1
Note_On_70_Vel_97
Time_Shift_2
Note_On_58_Vel_91
Time_Shift_53
Sustain_On
Time_Shift_269
Note_On_79_Vel_0
Time_Shift_2
Sustain_Off
Time_Shift_1
Note_On_82_Vel_0
Time_Shift_13
Note_On_70_Vel_0
Time_Shift_15
Note_On_58_Vel_0
Time_Shift_2
Note_On_80_Vel_83
Time_Shift_1
Note_On_68_Vel_92
Time_Shift_3
Note_On_65_Vel_74
Time_Shift_3
Note_On_77_Vel_76
Time_Shift_1
Note_On_70_Vel_87
Time_Shift_1
Note_On_58_Vel_77
Time_Shift_31
Note_On_65_Vel_0
Time_Shift_19
Sustain_On
Time_Shift_169
Note_On_70_Vel_0
Time_Shift_3
Note_On_79_Vel_82
Time_Shift_1
Note_On_75_Vel_73
Note_On_67_Vel_81
Time_Shift_1
Note_On_63_Vel_77
Time_Shift_1
Note_On_82_Vel_85
Time_Shift_3
Note_On_70_Vel_85
Time_Shift_41
Note_On_79_Vel_0
Sustain_Off
Note_On_82_Vel_0
Note_On_67_Vel_0
Time_Shift_6
Note_On_68_Vel_0
Time_Shift_13
Note_On_77_Vel_0
Note_On_80_Vel_0
Time_Shift_16
Note_On_58_Vel_0
Time_Shift_7
Note_On_70_Vel_0
Time_Shift_4
Note_On_65_Vel_78
Note_On_62_Vel_82
Note_On_82_Vel_81
Time_Shift_1
Note_On_70_Vel_90
Note_On_77_Vel_75
Time_Shift_7
Note_On_58_Vel_69
Time_Shift_28
Note_On_63_Vel_0
Time_Shift_22
Note_On_75_Vel_0
Time_Shift_31
Sustain_On
Time_Shift_146
Note_On_65_Vel_0
Time_Shift_92
Note_On_82_Vel_0
Time_Shift_7
Sustain_Off
Note_On_70_Vel_0
Time_Shift_8
Note_On_70_Vel_72
Note_On_62_Vel_0
Time_Shift_5
Note_On_65_Vel_62
Time_Shift_1
Note_On_62_Vel_45
Time_Shift_4
Note_On_68_Vel_74
Time_Shift_28
Note_On_62_Vel_0
Time_Shift_8
Note_On_77_Vel_0
Time_Shift_31
Sustain_On
Time_Shift_54
Note_On_58_Vel_0
Time_Shift_284
Note_On_70_Vel_0
Time_Shift_2
Sustain_Off
Note_On_82_Vel_61
Time_Shift_2
Note_On_65_Vel_0
Note_On_68_Vel_0
Time_Shift_1
Note_On_70_Vel_64
Time_Shift_2
Note_On_82_Vel_0
Time_Shift_2
Note_On_63_Vel_52
Time_Shift_1
Note_On_67_Vel_50
Time_Shift_166
Sustain_On
Time_Shift_262
Note_On_70_Vel_0
Time_Shift_2
Note_On_75_Vel_66
Time_Shift_8
Note_On_70_Vel_45
Time_Shift_64
Note_On_63_Vel_0
Note_On_67_Vel_0
Time_Shift_2
Sustain_Off
Time_Shift_3
Note_On_70_Vel_0
Time_Shift_105
Sustain_On
Time_Shift_192
Note_On_75_Vel_0
Time_Shift_4
Note_On_75_Vel_90
Time_Shift_418
Note_On_75_Vel_0
Time_Shift_8
Note_On_75_Vel_77
Time_Shift_6
Note_On_63_Vel_58
Note_On_57_Vel_57
Time_Shift_1
Note_On_66_Vel_49
Time_Shift_1
Note_On_69_Vel_60
Time_Shift_27
Sustain_Off
Time_Shift_88
Sustain_On
Time_Shift_148
Note_On_74_Vel_83
Time_Shift_88
Note_On_74_Vel_0
Time_Shift_3
Note_On_75_Vel_0
Time_Shift_1
Note_On_72_Vel_85
Time_Shift_1
Sustain_Off
Time_Shift_135
Sustain_On
Time_Shift_201
Sustain_Off
Time_Shift_30
Note_On_75_Vel_83
Time_Shift_38
Sustain_On
Time_Shift_276
Note_On_75_Vel_0
Time_Shift_11
Note_On_75_Vel_50
Time_Shift_12
Note_On_72_Vel_0
Time_Shift_11
Note_On_72_Vel_38
Time_Shift_10
Sustain_Off
Note_On_66_Vel_0
Note_On_57_Vel_0
Time_Shift_26
Note_On_63_Vel_0
Note_On_72_Vel_0
Time_Shift_4
Note_On_70_Vel_65
Time_Shift_5
Note_On_63_Vel_36
Time_Shift_11
Note_On_58_Vel_43
Time_Shift_15
Note_On_67_Vel_14
Time_Shift_3
Note_On_69_Vel_0
Time_Shift_54
Sustain_On
Time_Shift_23
Note_On_67_Vel_0
Time_Shift_7
Note_On_75_Vel_0
Time_Shift_237
Note_On_75_Vel_79
Time_Shift_36
Note_On_70_Vel_0
Note_On_63_Vel_0
Note_On_58_Vel_0
Sustain_Off
Time_Shift_214
Note_On_75_Vel_0
Time_Shift_4
Note_On_79_Vel_83
Time_Shift_77
Note_On_79_Vel_0
Time_Shift_5
Note_On_82_Vel_92
Time_Shift_26
Sustain_On
Time_Shift_290
Sustain_Off
Time_Shift_10
Note_On_82_Vel_0
Time_Shift_7
Note_On_82_Vel_81
Time_Shift_3
Note_On_65_Vel_73
Note_On_68_Vel_82
Time_Shift_4
Note_On_70_Vel_80
Time_Shift_4
Note_On_58_Vel_73
Time_Shift_28
Sustain_On
Time_Shift_200
Note_On_82_Vel_0
Time_Shift_7
Note_On_70_Vel_0
Time_Shift_1
Note_On_63_Vel_76
Time_Shift_2
Note_On_79_Vel_78
Note_On_82_Vel_87
Time_Shift_1
Note_On_67_Vel_79
Time_Shift_2
Note_On_70_Vel_81
Time_Shift_23
Sustain_Off
Time_Shift_8
Note_On_68_Vel_0
Time_Shift_4
Note_On_70_Vel_0
Note_On_58_Vel_0
Time_Shift_1
Note_On_67_Vel_0
Time_Shift_2
Note_On_79_Vel_0
Time_Shift_2
Note_On_65_Vel_0
Time_Shift_8
Note_On_63_Vel_0
Time_Shift_35
Note_On_65_Vel_75
Time_Shift_3
Note_On_77_Vel_74
Time_Shift_1
Note_On_82_Vel_0
Time_Shift_1
Note_On_62_Vel_76
Time_Shift_2
Note_On_70_Vel_81
Time_Shift_1
Note_On_82_Vel_81
Time_Shift_34
Sustain_On
Time_Shift_269
Note_On_65_Vel_0
Time_Shift_12
Sustain_Off
Time_Shift_1
Note_On_70_Vel_0
Time_Shift_2
Note_On_62_Vel_0
Time_Shift_39
Note_On_82_Vel_0
Time_Shift_11
Note_On_82_Vel_78
Time_Shift_1
Note_On_70_Vel_73
Time_Shift_2
Note_On_65_Vel_53
Time_Shift_1
Note_On_68_Vel_68
Time_Shift_54
Sustain_On
Time_Shift_30
Note_On_77_Vel_0
Time_Shift_310
Note_On_65_Vel_0
Time_Shift_1
Note_On_70_Vel_0
Sustain_Off
Note_On_82_Vel_0
Time_Shift_1
Note_On_68_Vel_0
Time_Shift_15
Note_On_87_Vel_62
Time_Shift_9
Note_On_75_Vel_54
Time_Shift_2
Note_On_63_Vel_54
Time_Shift_6
Note_On_79_Vel_54
Time_Shift_4
Note_On_67_Vel_53
Time_Shift_98
Sustain_On
Time_Shift_361
Note_On_63_Vel_0
Time_Shift_5
Note_On_51_Vel_43
Time_Shift_1
Note_On_63_Vel_36
Time_Shift_645
Note_On_63_Vel_0
Time_Shift_1
Note_On_87_Vel_0
Note_On_51_Vel_0
Time_Shift_1
Note_On_79_Vel_0
Note_On_67_Vel_0
Time_Shift_1
Sustain_Off
Note_On_75_Vel_0
Time_Shift_50
Note_On_63_Vel_41
Time_Shift_118
Sustain_On
Time_Shift_126
Note_On_72_Vel_62
Time_Shift_4
Note_On_63_Vel_0
Time_Shift_28
Note_On_60_Vel_33
Time_Shift_6
Note_On_32_Vel_43
Time_Shift_170
Note_On_63_Vel_62
Time_Shift_178
Note_On_84_Vel_77
Time_Shift_17
Note_On_60_Vel_0
Note_On_72_Vel_0
Time_Shift_5
Note_On_72_Vel_60
Time_Shift_1
Note_On_56_Vel_48
Time_Shift_4
Note_On_60_Vel_48
Time_Shift_1
Note_On_51_Vel_40
Time_Shift_142
Note_On_75_Vel_61
Time_Shift_161
Note_On_96_Vel_84
Time_Shift_9
Note_On_51_Vel_0
Note_On_60_Vel_0
Note_On_63_Vel_0
Note_On_84_Vel_0
Time_Shift_6
Note_On_63_Vel_55
Time_Shift_1
Note_On_51_Vel_55
Time_Shift_1
Note_On_56_Vel_0
Time_Shift_3
Note_On_84_Vel_63
Note_On_60_Vel_46
Time_Shift_6
Note_On_56_Vel_52
Time_Shift_171
Note_On_87_Vel_44
Time_Shift_100
Sustain_Off
Note_On_56_Vel_0
Note_On_63_Vel_0
Time_Shift_1
Note_On_75_Vel_0
Note_On_72_Vel_0
Time_Shift_1
Note_On_84_Vel_0
Time_Shift_3
Note_On_96_Vel_0
Time_Shift_7
Note_On_60_Vel_0
Time_Shift_7
Note_On_32_Vel_0
Note_On_51_Vel_0
Note_On_87_Vel_0
Time_Shift_17
Note_On_39_Vel_61
Note_On_27_Vel_67
Time_Shift_1
Note_On_94_Vel_74
Time_Shift_5
Note_On_82_Vel_70
Time_Shift_23
Sustain_On
Time_Shift_135
Note_On_87_Vel_69
Time_Shift_157
Note_On_82_Vel_0
Time_Shift_8
Note_On_82_Vel_82
Time_Shift_7
Note_On_27_Vel_0
Note_On_39_Vel_0
Time_Shift_5
Note_On_27_Vel_58
Time_Shift_1
Note_On_39_Vel_51
Note_On_46_Vel_54
Time_Shift_4
Note_On_70_Vel_54
Time_Shift_133
Note_On_75_Vel_78
Time_Shift_165
Note_On_70_Vel_0
Time_Shift_7
Note_On_39_Vel_0
Note_On_46_Vel_0
Time_Shift_1
Note_On_70_Vel_81
Time_Shift_4
Note_On_39_Vel_52
Note_On_46_Vel_67
Time_Shift_146
Note_On_63_Vel_64
Time_Shift_185
Sustain_Off
Note_On_27_Vel_0
Time_Shift_1
Note_On_46_Vel_0
Time_Shift_1
Note_On_70_Vel_0
Note_On_82_Vel_0
Note_On_39_Vel_0
Time_Shift_1
Note_On_75_Vel_0
Note_On_63_Vel_0
Note_On_94_Vel_0
Time_Shift_1
Note_On_87_Vel_0
Time_Shift_27
Note_On_77_Vel_76
Time_Shift_9
Note_On_34_Vel_58
Note_On_46_Vel_58
Time_Shift_1
Note_On_68_Vel_69
Time_Shift_46
Sustain_On
Time_Shift_112
Note_On_70_Vel_72
Time_Shift_178
Note_On_79_Vel_82
Time_Shift_2
Note_On_68_Vel_0
Time_Shift_8
Note_On_68_Vel_70
Time_Shift_1
Note_On_74_Vel_60
Time_Shift_2
Note_On_62_Vel_61
Note_On_58_Vel_61
Time_Shift_1
Note_On_53_Vel_57
Time_Shift_149
Note_On_77_Vel_0
Time_Shift_4
Note_On_77_Vel_83
Time_Shift_4
Note_On_70_Vel_0
Time_Shift_10
Note_On_70_Vel_73
Time_Shift_5
Note_On_68_Vel_0
Time_Shift_4
Note_On_68_Vel_51
Time_Shift_11
Note_On_34_Vel_0
Time_Shift_98
Note_On_76_Vel_89
Time_Shift_2
Note_On_68_Vel_0
Time_Shift_8
Note_On_53_Vel_0
Note_On_58_Vel_0
Note_On_62_Vel_0
Note_On_70_Vel_0
Time_Shift_1
Note_On_68_Vel_78
Time_Shift_3
Note_On_70_Vel_80
Note_On_53_Vel_60
Time_Shift_1
Note_On_62_Vel_63
Note_On_58_Vel_67
Time_Shift_141
Note_On_77_Vel_0
Time_Shift_4
Note_On_77_Vel_92
Time_Shift_125
Note_On_79_Vel_0
Time_Shift_1
Note_On_53_Vel_0
Time_Shift_1
Note_On_62_Vel_0
Note_On_46_Vel_0
Note_On_58_Vel_0
Note_On_68_Vel_0
Time_Shift_1
Note_On_70_Vel_0
Note_On_74_Vel_0
Note_On_76_Vel_0
Note_On_77_Vel_0
Time_Shift_1
Sustain_Off
Time_Shift_54
Note_On_39_Vel_66
Note_On_79_Vel_90
Time_Shift_3
Note_On_27_Vel_66
Time_Shift_13
Note_On_70_Vel_63
Time_Shift_8
Note_On_75_Vel_71
Time_Shift_27
Sustain_On
Time_Shift_107
Note_On_39_Vel_0
Time_Shift_8
Note_On_39_Vel_45
Note_On_70_Vel_0
Time_Shift_5
Note_On_70_Vel_78
Time_Shift_149
Note_On_75_Vel_0
Time_Shift_9
Note_On_75_Vel_75
Time_Shift_6
Note_On_70_Vel_0
Time_Shift_5
Note_On_67_Vel_62
Note_On_58_Vel_58
Time_Shift_3
Note_On_63_Vel_57
Time_Shift_2
Note_On_70_Vel_58
Time_Shift_1
Note_On_51_Vel_51
Time_Shift_27
Note_On_27_Vel_0
Time_Shift_100
Note_On_70_Vel_0
Time_Shift_10
Note_On_70_Vel_65
Time_Shift_159
Note_On_75_Vel_0
Time_Shift_10
Note_On_75_Vel_81
Time_Shift_6
Note_On_51_Vel_0
Note_On_63_Vel_0
Time_Shift_6
Note_On_51_Vel_56
Time_Shift_1
Note_On_63_Vel_61
Time_Shift_3
Note_On_55_Vel_56
Time_Shift_308
Note_On_63_Vel_0
Note_On_51_Vel_0
Note_On_70_Vel_0
Note_On_39_Vel_0
Time_Shift_1
Note_On_58_Vel_0
Note_On_75_Vel_0
Note_On_67_Vel_0
Sustain_Off
Time_Shift_1
Note_On_79_Vel_0
Time_Shift_17
Note_On_55_Vel_0
Time_Shift_7
Note_On_72_Vel_75
Time_Shift_3
Note_On_32_Vel_64
Time_Shift_6
Note_On_60_Vel_60
Time_Shift_69
Note_On_32_Vel_0
Sustain_On
Time_Shift_103
Note_On_63_Vel_68
Time_Shift_158
Note_On_60_Vel_0
Time_Shift_8
Note_On_72_Vel_0
Time_Shift_1
Note_On_51_Vel_65
Note_On_84_Vel_93
Time_Shift_2
Note_On_60_Vel_66
Note_On_56_Vel_68
Time_Shift_1
Note_On_72_Vel_88
Time_Shift_154
Note_On_75_Vel_72
Time_Shift_149
Note_On_84_Vel_0
Time_Shift_11
Note_On_96_Vel_102
Note_On_84_Vel_97
Time_Shift_4
Note_On_51_Vel_0
Note_On_56_Vel_0
Note_On_60_Vel_0
Time_Shift_1
Note_On_63_Vel_0
Time_Shift_3
Note_On_60_Vel_62
Time_Shift_2
Note_On_56_Vel_65
Time_Shift_1
Note_On_51_Vel_67
Time_Shift_157
Note_On_87_Vel_74
Time_Shift_185
Note_On_94_Vel_89
Time_Shift_6
Note_On_82_Vel_84
Time_Shift_7
Sustain_Off
Note_On_56_Vel_0
Note_On_51_Vel_0
Time_Shift_1
Note_On_60_Vel_0
Time_Shift_1
Note_On_87_Vel_0
Note_On_75_Vel_0
Note_On_84_Vel_0
Time_Shift_1
Note_On_96_Vel_0
Time_Shift_10
Note_On_39_Vel_63
Time_Shift_2
Note_On_72_Vel_0
Time_Shift_61
Sustain_On
Time_Shift_86
Note_On_87_Vel_80
Time_Shift_167
Note_On_82_Vel_0
Time_Shift_5
Note_On_82_Vel_88
Time_Shift_6
Note_On_70_Vel_79
Time_Shift_1
Note_On_55_Vel_54
Note_On_51_Vel_48
Time_Shift_2
Note_On_46_Vel_54
Time_Shift_137
Note_On_75_Vel_83
Time_Shift_157
Note_On_70_Vel_0
Note_On_82_Vel_0
Time_Shift_7
Note_On_82_Vel_85
Note_On_46_Vel_0
Note_On_51_Vel_0
Note_On_55_Vel_0
Time_Shift_2
Note_On_70_Vel_92
Time_Shift_2
Note_On_58_Vel_76
Time_Shift_3
Note_On_51_Vel_62
Time_Shift_3
Note_On_55_Vel_69
Time_Shift_2
Note_On_46_Vel_67
Time_Shift_139
Note_On_63_Vel_74
Time_Shift_221
Note_On_77_Vel_83
Time_Shift_7
Note_On_55_Vel_0
Time_Shift_1
Note_On_68_Vel_80
Note_On_94_Vel_0
Note_On_82_Vel_0
Note_On_70_Vel_0
Note_On_75_Vel_0
Note_On_63_Vel_0
Note_On_58_Vel_0
Note_On_87_Vel_0
Sustain_Off
Time_Shift_4
Note_On_46_Vel_0
Time_Shift_6
Note_On_46_Vel_64
Time_Shift_2
Note_On_39_Vel_0
Time_Shift_2
Note_On_34_Vel_67
Time_Shift_13
Note_On_51_Vel_0
Time_Shift_54
Sustain_On
Time_Shift_108
Note_On_82_Vel_78
Time_Shift_1
Note_On_70_Vel_83
Time_Shift_188
Note_On_79_Vel_84
Time_Shift_3
Note_On_68_Vel_0
Note_On_70_Vel_0
Time_Shift_4
Note_On_68_Vel_76
Time_Shift_7
Note_On_70_Vel_75
Time_Shift_3
Note_On_62_Vel_55
Time_Shift_6
Note_On_53_Vel_49
Time_Shift_1
Note_On_58_Vel_56
Time_Shift_163
Note_On_77_Vel_0
Time_Shift_8
Note_On_77_Vel_88
Time_Shift_7
Note_On_70_Vel_0
Time_Shift_5
Note_On_70_Vel_77
Time_Shift_168
Note_On_72_Vel_86
Time_Shift_12
Note_On_62_Vel_0
Note_On_68_Vel_0
Time_Shift_9
Note_On_68_Vel_72
Time_Shift_2
Note_On_62_Vel_58
Time_Shift_4
Note_On_53_Vel_0
Time_Shift_8
Note_On_58_Vel_0
Time_Shift_1
Note_On_53_Vel_49
Time_Shift_3
Note_On_58_Vel_58
Time_Shift_144
Note_On_74_Vel_86
Time_Shift_13
Note_On_70_Vel_0
Time_Shift_4
Note_On_70_Vel_63
Time_Shift_253
Note_On_75_Vel_74
Time_Shift_19
Note_On_58_Vel_0
Time_Shift_5
Note_On_67_Vel_55
Note_On_58_Vel_50
Time_Shift_1
Note_On_79_Vel_0
Time_Shift_1
Sustain_Off
Note_On_72_Vel_0
Time_Shift_1
Note_On_53_Vel_0
Time_Shift_2
Note_On_70_Vel_0
Note_On_77_Vel_0
Note_On_63_Vel_47
Time_Shift_1
Note_On_46_Vel_0
Note_On_74_Vel_0
Time_Shift_1
Note_On_51_Vel_41
Time_Shift_4
Note_On_34_Vel_0
Note_On_82_Vel_0
Time_Shift_8
Note_On_62_Vel_0
Note_On_68_Vel_0
Time_Shift_84
Sustain_On
Time_Shift_519
Note_On_39_Vel_51
Time_Shift_1060
Sustain_Off
Note_On_51_Vel_0
Note_On_63_Vel_0
Time_Shift_1
Note_On_67_Vel_0
Note_On_58_Vel_0
Time_Shift_1
Note_On_39_Vel_0
Time_Shift_1
Note_On_75_Vel_0
