{
 "cells": [
  {
   "cell_type": "code",
   "execution_count": 2,
   "metadata": {},
   "outputs": [
    {
     "name": "stderr",
     "output_type": "stream",
     "text": [
      "/Users/kevinhan/opt/anaconda3/envs/musicGen/lib/python3.9/site-packages/tqdm/auto.py:21: TqdmWarning: IProgress not found. Please update jupyter and ipywidgets. See https://ipywidgets.readthedocs.io/en/stable/user_install.html\n",
      "  from .autonotebook import tqdm as notebook_tqdm\n"
     ]
    }
   ],
   "source": [
    "import mido\n",
    "import numpy as np\n",
    "import torch as th\n",
    "import matplotlib.pyplot as plt\n",
    "from collections import Counter, defaultdict\n",
    "from sklearn.decomposition import PCA\n",
    "import umap\n",
    "import sys\n",
    "\n",
    "np.set_printoptions(threshold=sys.maxsize)"
   ]
  },
  {
   "cell_type": "code",
   "execution_count": 58,
   "metadata": {},
   "outputs": [
    {
     "name": "stdout",
     "output_type": "stream",
     "text": [
      "MidiFile(type=1, ticks_per_beat=384, tracks=[\n",
      "  MidiTrack([\n",
      "    MetaMessage('set_tempo', tempo=500000, time=0),\n",
      "    MetaMessage('time_signature', numerator=4, denominator=4, clocks_per_click=24, notated_32nd_notes_per_beat=8, time=0),\n",
      "    MetaMessage('end_of_track', time=1)]),\n",
      "  MidiTrack([\n",
      "    Message('control_change', channel=0, control=64, value=127, time=1128),\n",
      "    Message('control_change', channel=0, control=64, value=0, time=1644),\n",
      "    Message('control_change', channel=0, control=64, value=127, time=115),\n",
      "    Message('control_change', channel=0, control=64, value=0, time=16),\n",
      "    Message('note_on', channel=0, note=48, velocity=47, time=49),\n",
      "    Message('note_on', channel=0, note=36, velocity=36, time=8),\n",
      "    Message('control_change', channel=0, control=64, value=127, time=27),\n",
      "    Message('note_on', channel=0, note=79, velocity=67, time=800),\n",
      "    Message('note_on', channel=0, note=63, velocity=39, time=26),\n",
      "    Message('note_on', channel=0, note=55, velocity=33, time=0),\n",
      "    Message('note_on', channel=0, note=67, velocity=34, time=0),\n",
      "    Message('note_on', channel=0, note=67, velocity=0, time=728),\n",
      "    Message('note_on', channel=0, note=63, velocity=0, time=1),\n",
      "    Message('control_change', channel=0, control=64, value=0, time=0),\n",
      "    Message('note_on', channel=0, note=55, velocity=0, time=0),\n",
      "    Message('note_on', channel=0, note=48, velocity=0, time=12),\n",
      "    Message('note_on', channel=0, note=36, velocity=0, time=7),\n",
      "    Message('note_on', channel=0, note=48, velocity=43, time=4),\n",
      "    Message('note_on', channel=0, note=36, velocity=37, time=3),\n",
      "    Message('control_change', channel=0, control=64, value=127, time=63),\n",
      "    Message('note_on', channel=0, note=79, velocity=0, time=698),\n",
      "    Message('note_on', channel=0, note=80, velocity=77, time=118),\n",
      "    Message('note_on', channel=0, note=63, velocity=41, time=23),\n",
      "    Message('note_on', channel=0, note=68, velocity=45, time=0),\n",
      "    Message('note_on', channel=0, note=56, velocity=40, time=2),\n",
      "    Message('note_on', channel=0, note=36, velocity=0, time=288),\n",
      "    Message('note_on', channel=0, note=47, velocity=35, time=625),\n",
      "    Message('note_on', channel=0, note=35, velocity=36, time=6),\n",
      "    Message('control_change', channel=0, control=64, value=0, time=31),\n",
      "    Message('note_on', channel=0, note=48, velocity=0, time=1),\n",
      "    Message('note_on', channel=0, note=63, velocity=0, time=1),\n",
      "    Message('note_on', channel=0, note=56, velocity=0, time=0),\n",
      "    Message('note_on', channel=0, note=68, velocity=0, time=1),\n",
      "    Message('note_on', channel=0, note=80, velocity=0, time=0),\n",
      "    Message('control_change', channel=0, control=64, value=127, time=179),\n",
      "    Message('note_on', channel=0, note=35, velocity=0, time=100),\n",
      "    Message('note_on', channel=0, note=79, velocity=64, time=264),\n",
      "    Message('note_on', channel=0, note=65, velocity=32, time=362),\n",
      "    Message('note_on', channel=0, note=67, velocity=40, time=2),\n",
      "    Message('note_on', channel=0, note=55, velocity=26, time=8),\n",
      "    Message('note_on', channel=0, note=74, velocity=58, time=612),\n",
      "    Message('note_on', channel=0, note=48, velocity=33, time=237),\n",
      "    Message('note_on', channel=0, note=67, velocity=0, time=5),\n",
      "    Message('note_on', channel=0, note=36, velocity=31, time=3),\n",
      "    Message('note_on', channel=0, note=67, velocity=27, time=1),\n",
      "    Message('control_change', channel=0, control=64, value=0, time=8),\n",
      "    Message('note_on', channel=0, note=65, velocity=0, time=0),\n",
      "    Message('note_on', channel=0, note=55, velocity=0, time=0),\n",
      "    Message('note_on', channel=0, note=47, velocity=0, time=0),\n",
      "    Message('note_on', channel=0, note=79, velocity=0, time=0),\n",
      "    Message('control_change', channel=0, control=64, value=127, time=103),\n",
      "    Message('note_on', channel=0, note=75, velocity=71, time=177),\n",
      "    Message('note_on', channel=0, note=77, velocity=74, time=179),\n",
      "    Message('note_on', channel=0, note=75, velocity=0, time=136),\n",
      "    Message('note_on', channel=0, note=75, velocity=79, time=10),\n",
      "    Message('note_on', channel=0, note=74, velocity=0, time=136),\n",
      "    Message('note_on', channel=0, note=74, velocity=74, time=9),\n",
      "    Message('note_on', channel=0, note=60, velocity=36, time=24),\n",
      "    Message('note_on', channel=0, note=55, velocity=36, time=2),\n",
      "    Message('note_on', channel=0, note=63, velocity=44, time=1),\n",
      "    Message('note_on', channel=0, note=75, velocity=0, time=110),\n",
      "    Message('note_on', channel=0, note=75, velocity=77, time=11),\n",
      "    Message('note_on', channel=0, note=77, velocity=0, time=135),\n",
      "    Message('note_on', channel=0, note=77, velocity=72, time=6),\n",
      "    Message('note_on', channel=0, note=79, velocity=75, time=154),\n",
      "    Message('control_change', channel=0, control=64, value=0, time=133),\n",
      "    Message('note_on', channel=0, note=74, velocity=0, time=2),\n",
      "    Message('note_on', channel=0, note=60, velocity=0, time=0),\n",
      "    Message('note_on', channel=0, note=63, velocity=0, time=1),\n",
      "    Message('note_on', channel=0, note=77, velocity=0, time=0),\n",
      "    Message('note_on', channel=0, note=48, velocity=0, time=0),\n",
      "    Message('note_on', channel=0, note=55, velocity=0, time=0),\n",
      "    Message('note_on', channel=0, note=79, velocity=0, time=2),\n",
      "    Message('note_on', channel=0, note=36, velocity=0, time=9),\n",
      "    Message('note_on', channel=0, note=67, velocity=0, time=0),\n",
      "    Message('note_on', channel=0, note=72, velocity=68, time=13),\n",
      "    Message('note_on', channel=0, note=75, velocity=0, time=2),\n",
      "    Message('note_on', channel=0, note=44, velocity=36, time=31),\n",
      "    Message('note_on', channel=0, note=32, velocity=31, time=3),\n",
      "    Message('control_change', channel=0, control=64, value=127, time=112),\n",
      "    Message('note_on', channel=0, note=72, velocity=0, time=568),\n",
      "    Message('note_on', channel=0, note=72, velocity=58, time=5),\n",
      "    Message('note_on', channel=0, note=63, velocity=35, time=15),\n",
      "    Message('note_on', channel=0, note=68, velocity=40, time=5),\n",
      "    Message('note_on', channel=0, note=60, velocity=28, time=3),\n",
      "    Message('note_on', channel=0, note=72, velocity=0, time=579),\n",
      "    Message('note_on', channel=0, note=72, velocity=64, time=4),\n",
      "    Message('note_on', channel=0, note=44, velocity=0, time=150),\n",
      "    Message('control_change', channel=0, control=64, value=0, time=1),\n",
      "    Message('note_on', channel=0, note=68, velocity=0, time=0),\n",
      "    Message('note_on', channel=0, note=60, velocity=0, time=1),\n",
      "    Message('note_on', channel=0, note=63, velocity=0, time=1),\n",
      "    Message('note_on', channel=0, note=72, velocity=0, time=0),\n",
      "    Message('note_on', channel=0, note=32, velocity=0, time=4),\n",
      "    Message('note_on', channel=0, note=74, velocity=57, time=3),\n",
      "    Message('note_on', channel=0, note=29, velocity=34, time=5),\n",
      "    Message('note_on', channel=0, note=41, velocity=27, time=3),\n",
      "    Message('control_change', channel=0, control=64, value=127, time=128),\n",
      "    Message('note_on', channel=0, note=72, velocity=53, time=545),\n",
      "    Message('note_on', channel=0, note=62, velocity=34, time=27),\n",
      "    Message('note_on', channel=0, note=60, velocity=31, time=4),\n",
      "    Message('note_on', channel=0, note=41, velocity=0, time=7),\n",
      "    Message('note_on', channel=0, note=41, velocity=21, time=9),\n",
      "    Message('note_on', channel=0, note=68, velocity=54, time=721),\n",
      "    Message('note_on', channel=0, note=60, velocity=0, time=185),\n",
      "    Message('note_on', channel=0, note=29, velocity=0, time=1),\n",
      "    Message('note_on', channel=0, note=74, velocity=0, time=1),\n",
      "    Message('note_on', channel=0, note=62, velocity=0, time=0),\n",
      "    Message('note_on', channel=0, note=72, velocity=0, time=0),\n",
      "    Message('note_on', channel=0, note=41, velocity=0, time=0),\n",
      "    Message('note_on', channel=0, note=68, velocity=0, time=1),\n",
      "    Message('control_change', channel=0, control=64, value=0, time=8),\n",
      "    Message('note_on', channel=0, note=67, velocity=49, time=2),\n",
      "    Message('note_on', channel=0, note=43, velocity=28, time=12),\n",
      "    Message('note_on', channel=0, note=31, velocity=30, time=1),\n",
      "    Message('control_change', channel=0, control=64, value=127, time=219),\n",
      "    Message('note_on', channel=0, note=31, velocity=0, time=146),\n",
      "    Message('note_on', channel=0, note=59, velocity=35, time=622),\n",
      "    Message('note_on', channel=0, note=53, velocity=13, time=32),\n",
      "    Message('note_on', channel=0, note=70, velocity=43, time=356),\n",
      "    Message('note_on', channel=0, note=68, velocity=40, time=62),\n",
      "    Message('note_on', channel=0, note=67, velocity=0, time=218),\n",
      "    Message('note_on', channel=0, note=67, velocity=48, time=11),\n",
      "    Message('note_on', channel=0, note=62, velocity=46, time=212),\n",
      "    Message('note_on', channel=0, note=63, velocity=45, time=207),\n",
      "    Message('note_on', channel=0, note=36, velocity=24, time=7),\n",
      "    Message('note_on', channel=0, note=24, velocity=25, time=2),\n",
      "    Message('note_on', channel=0, note=24, velocity=0, time=7),\n",
      "    Message('control_change', channel=0, control=64, value=0, time=4),\n",
      "    Message('note_on', channel=0, note=53, velocity=0, time=7),\n",
      "    Message('note_on', channel=0, note=68, velocity=0, time=0),\n",
      "    Message('note_on', channel=0, note=67, velocity=0, time=0),\n",
      "    Message('note_on', channel=0, note=59, velocity=0, time=0),\n",
      "    Message('note_on', channel=0, note=43, velocity=0, time=0),\n",
      "    Message('note_on', channel=0, note=62, velocity=0, time=4),\n",
      "    Message('control_change', channel=0, control=64, value=127, time=269),\n",
      "    Message('note_on', channel=0, note=60, velocity=36, time=28),\n",
      "    Message('note_on', channel=0, note=55, velocity=23, time=605),\n",
      "    Message('note_on', channel=0, note=51, velocity=28, time=17),\n",
      "    Message('control_change', channel=0, control=64, value=0, time=891),\n",
      "    Message('note_on', channel=0, note=39, velocity=48, time=4),\n",
      "    Message('note_on', channel=0, note=27, velocity=59, time=1),\n",
      "    Message('note_on', channel=0, note=63, velocity=0, time=2),\n",
      "    Message('note_on', channel=0, note=60, velocity=0, time=4),\n",
      "    Message('note_on', channel=0, note=55, velocity=0, time=1),\n",
      "    Message('note_on', channel=0, note=36, velocity=0, time=4),\n",
      "    Message('control_change', channel=0, control=64, value=127, time=17),\n",
      "    Message('note_on', channel=0, note=70, velocity=0, time=115),\n",
      "    Message('note_on', channel=0, note=27, velocity=0, time=284),\n",
      "    Message('note_on', channel=0, note=79, velocity=73, time=381),\n",
      "    Message('note_on', channel=0, note=55, velocity=37, time=9),\n",
      "    Message('note_on', channel=0, note=67, velocity=46, time=2),\n",
      "    Message('note_on', channel=0, note=51, velocity=0, time=0),\n",
      "    Message('note_on', channel=0, note=63, velocity=40, time=4),\n",
      "    Message('note_on', channel=0, note=51, velocity=39, time=4),\n",
      "    Message('note_on', channel=0, note=70, velocity=46, time=6),\n",
      "    Message('note_on', channel=0, note=58, velocity=42, time=1),\n",
      "    Message('note_on', channel=0, note=44, velocity=51, time=887),\n",
      "    Message('note_on', channel=0, note=32, velocity=45, time=3),\n",
      "    Message('control_change', channel=0, control=64, value=0, time=35),\n",
      "    Message('note_on', channel=0, note=63, velocity=0, time=2),\n",
      "    Message('note_on', channel=0, note=58, velocity=0, time=0),\n",
      "    Message('note_on', channel=0, note=70, velocity=0, time=0),\n",
      "    Message('note_on', channel=0, note=51, velocity=0, time=2),\n",
      "    Message('note_on', channel=0, note=55, velocity=0, time=0),\n",
      "    Message('note_on', channel=0, note=79, velocity=0, time=1),\n",
      "    Message('note_on', channel=0, note=67, velocity=0, time=0),\n",
      "    Message('note_on', channel=0, note=39, velocity=0, time=0),\n",
      "    Message('control_change', channel=0, control=64, value=127, time=153),\n",
      "    Message('note_on', channel=0, note=32, velocity=0, time=131),\n",
      "    Message('note_on', channel=0, note=80, velocity=78, time=432),\n",
      "    Message('note_on', channel=0, note=63, velocity=44, time=8),\n",
      "    Message('note_on', channel=0, note=60, velocity=41, time=17),\n",
      "    Message('note_on', channel=0, note=53, velocity=32, time=3),\n",
      "    Message('note_on', channel=0, note=34, velocity=48, time=728),\n",
      "    Message('note_on', channel=0, note=46, velocity=44, time=2),\n",
      "    Message('note_on', channel=0, note=44, velocity=0, time=42),\n",
      "    Message('note_on', channel=0, note=60, velocity=0, time=0),\n",
      "    Message('note_on', channel=0, note=63, velocity=0, time=0),\n",
      "    Message('note_on', channel=0, note=53, velocity=0, time=0),\n",
      "    Message('control_change', channel=0, control=64, value=0, time=9),\n",
      "    Message('control_change', channel=0, control=64, value=127, time=72),\n",
      "    Message('note_on', channel=0, note=34, velocity=0, time=100),\n",
      "    Message('note_on', channel=0, note=79, velocity=77, time=326),\n",
      "    Message('note_on', channel=0, note=68, velocity=53, time=307),\n",
      "    Message('note_on', channel=0, note=62, velocity=45, time=8),\n",
      "    Message('note_on', channel=0, note=70, velocity=44, time=1),\n",
      "    Message('note_on', channel=0, note=58, velocity=44, time=4),\n",
      "    Message('note_on', channel=0, note=70, velocity=0, time=7),\n",
      "    Message('note_on', channel=0, note=80, velocity=0, time=369),\n",
      "    Message('note_on', channel=0, note=77, velocity=72, time=135),\n",
      "    Message('note_on', channel=0, note=35, velocity=40, time=172),\n",
      "    Message('note_on', channel=0, note=47, velocity=37, time=11),\n",
      "    Message('note_on', channel=0, note=48, velocity=50, time=223),\n",
      "    Message('note_on', channel=0, note=36, velocity=42, time=3),\n",
      "    Message('control_change', channel=0, control=64, value=0, time=13),\n",
      "    Message('note_on', channel=0, note=47, velocity=0, time=8),\n",
      "    Message('note_on', channel=0, note=79, velocity=0, time=0),\n",
      "    Message('note_on', channel=0, note=46, velocity=0, time=0),\n",
      "    Message('note_on', channel=0, note=68, velocity=0, time=0),\n",
      "    Message('note_on', channel=0, note=58, velocity=0, time=0),\n",
      "    Message('note_on', channel=0, note=62, velocity=0, time=1),\n",
      "    Message('note_on', channel=0, note=35, velocity=0, time=1),\n",
      "    Message('note_on', channel=0, note=77, velocity=0, time=0),\n",
      "    Message('control_change', channel=0, control=64, value=127, time=124),\n",
      "    Message('note_on', channel=0, note=75, velocity=80, time=103),\n",
      "    Message('note_on', channel=0, note=77, velocity=81, time=154),\n",
      "    Message('note_on', channel=0, note=75, velocity=0, time=119),\n",
      "    Message('note_on', channel=0, note=75, velocity=78, time=5),\n",
      "    Message('note_on', channel=0, note=77, velocity=0, time=26),\n",
      "    Message('note_on', channel=0, note=77, velocity=63, time=4),\n",
      "    Message('note_on', channel=0, note=75, velocity=0, time=50),\n",
      "    Message('note_on', channel=0, note=75, velocity=82, time=11),\n",
      "    Message('note_on', channel=0, note=74, velocity=78, time=138),\n",
      "    Message('note_on', channel=0, note=55, velocity=42, time=10),\n",
      "    Message('note_on', channel=0, note=57, velocity=41, time=6),\n",
      "    Message('note_on', channel=0, note=63, velocity=45, time=3),\n",
      "    Message('note_on', channel=0, note=55, velocity=0, time=0),\n",
      "    Message('control_change', channel=0, control=64, value=0, time=20),\n",
      "    Message('control_change', channel=0, control=64, value=127, time=11),\n",
      "    Message('note_on', channel=0, note=75, velocity=0, time=123),\n",
      "    Message('note_on', channel=0, note=75, velocity=86, time=9),\n",
      "    Message('note_on', channel=0, note=77, velocity=0, time=145),\n",
      "    Message('note_on', channel=0, note=77, velocity=82, time=6),\n",
      "    Message('note_on', channel=0, note=79, velocity=85, time=157),\n",
      "    Message('control_change', channel=0, control=64, value=0, time=125),\n",
      "    Message('note_on', channel=0, note=36, velocity=0, time=4),\n",
      "    Message('note_on', channel=0, note=57, velocity=0, time=0),\n",
      "    Message('note_on', channel=0, note=77, velocity=0, time=1),\n",
      "    Message('note_on', channel=0, note=75, velocity=0, time=0),\n",
      "    Message('note_on', channel=0, note=48, velocity=0, time=0),\n",
      "    Message('note_on', channel=0, note=63, velocity=0, time=1),\n",
      "    Message('note_on', channel=0, note=74, velocity=0, time=21),\n",
      "    Message('note_on', channel=0, note=74, velocity=84, time=3),\n",
      "    Message('note_on', channel=0, note=50, velocity=39, time=5),\n",
      "    Message('note_on', channel=0, note=38, velocity=41, time=3),\n",
      "    Message('note_on', channel=0, note=79, velocity=0, time=37),\n",
      "    Message('control_change', channel=0, control=64, value=127, time=151),\n",
      "    Message('note_on', channel=0, note=62, velocity=81, time=299),\n",
      "    Message('note_on', channel=0, note=67, velocity=52, time=475),\n",
      "    Message('note_on', channel=0, note=58, velocity=49, time=17),\n",
      "    Message('note_on', channel=0, note=70, velocity=48, time=4),\n",
      "    Message('note_on', channel=0, note=67, velocity=0, time=242),\n",
      "    Message('note_on', channel=0, note=67, velocity=71, time=11),\n",
      "    Message('note_on', channel=0, note=72, velocity=79, time=196),\n",
      "    Message('note_on', channel=0, note=74, velocity=0, time=162),\n",
      "    Message('note_on', channel=0, note=74, velocity=82, time=11),\n",
      "    Message('note_on', channel=0, note=58, velocity=0, time=178),\n",
      "    Message('note_on', channel=0, note=62, velocity=0, time=0),\n",
      "    Message('note_on', channel=0, note=70, velocity=0, time=0),\n",
      "    Message('note_on', channel=0, note=50, velocity=0, time=0),\n",
      "    Message('note_on', channel=0, note=72, velocity=0, time=1),\n",
      "    Message('note_on', channel=0, note=67, velocity=0, time=1),\n",
      "    Message('control_change', channel=0, control=64, value=0, time=1),\n",
      "    Message('note_on', channel=0, note=74, velocity=0, time=0),\n",
      "    Message('note_on', channel=0, note=75, velocity=77, time=19),\n",
      "    Message('note_on', channel=0, note=38, velocity=0, time=27),\n",
      "    Message('note_on', channel=0, note=26, velocity=31, time=1),\n",
      "    Message('note_on', channel=0, note=38, velocity=29, time=5),\n",
      "    Message('control_change', channel=0, control=64, value=127, time=155),\n",
      "    Message('note_on', channel=0, note=26, velocity=0, time=630),\n",
      "    Message('note_on', channel=0, note=60, velocity=37, time=18),\n",
      "    Message('note_on', channel=0, note=57, velocity=35, time=0),\n",
      "    Message('note_on', channel=0, note=66, velocity=51, time=791),\n",
      "    Message('note_on', channel=0, note=66, velocity=0, time=205),\n",
      "    Message('note_on', channel=0, note=66, velocity=49, time=7),\n",
      "    Message('note_on', channel=0, note=43, velocity=27, time=26),\n",
      "    Message('note_on', channel=0, note=31, velocity=28, time=1),\n",
      "    Message('note_on', channel=0, note=43, velocity=0, time=4),\n",
      "    Message('control_change', channel=0, control=64, value=0, time=4),\n",
      "    Message('note_on', channel=0, note=38, velocity=0, time=7),\n",
      "    Message('note_on', channel=0, note=57, velocity=0, time=0),\n",
      "    Message('note_on', channel=0, note=60, velocity=0, time=1),\n",
      "    Message('note_on', channel=0, note=75, velocity=0, time=2),\n",
      "    Message('control_change', channel=0, control=64, value=127, time=216),\n",
      "    Message('control_change', channel=0, control=64, value=0, time=39),\n",
      "    Message('control_change', channel=0, control=64, value=127, time=84),\n",
      "    Message('note_on', channel=0, note=62, velocity=32, time=481),\n",
      "    Message('note_on', channel=0, note=58, velocity=32, time=15),\n",
      "    Message('note_on', channel=0, note=50, velocity=23, time=0),\n",
      "    Message('note_on', channel=0, note=67, velocity=44, time=790),\n",
      "    Message('note_on', channel=0, note=70, velocity=50, time=146),\n",
      "    Message('note_on', channel=0, note=26, velocity=29, time=94),\n",
      "    Message('note_on', channel=0, note=38, velocity=24, time=2),\n",
      "    Message('note_on', channel=0, note=26, velocity=0, time=8),\n",
      "    Message('note_on', channel=0, note=69, velocity=45, time=21),\n",
      "    Message('control_change', channel=0, control=64, value=0, time=76),\n",
      "    Message('note_on', channel=0, note=58, velocity=0, time=3),\n",
      "    Message('note_on', channel=0, note=62, velocity=0, time=0),\n",
      "    Message('note_on', channel=0, note=67, velocity=0, time=0),\n",
      "    Message('note_on', channel=0, note=50, velocity=0, time=1),\n",
      "    Message('note_on', channel=0, note=31, velocity=0, time=0),\n",
      "    Message('note_on', channel=0, note=70, velocity=0, time=2),\n",
      "    Message('note_on', channel=0, note=69, velocity=0, time=2),\n",
      "    Message('note_on', channel=0, note=66, velocity=0, time=10),\n",
      "    Message('note_on', channel=0, note=67, velocity=36, time=52),\n",
      "    Message('note_on', channel=0, note=43, velocity=23, time=15),\n",
      "    Message('note_on', channel=0, note=38, velocity=0, time=3),\n",
      "    Message('note_on', channel=0, note=31, velocity=23, time=3),\n",
      "    Message('control_change', channel=0, control=64, value=127, time=219),\n",
      "    Message('note_on', channel=0, note=62, velocity=32, time=625),\n",
      "    Message('note_on', channel=0, note=58, velocity=27, time=17),\n",
      "    Message('note_on', channel=0, note=50, velocity=17, time=7),\n",
      "    Message('control_change', channel=0, control=64, value=0, time=23),\n",
      "    Message('note_on', channel=0, note=67, velocity=0, time=7),\n",
      "    Message('note_on', channel=0, note=31, velocity=0, time=1),\n",
      "    Message('control_change', channel=0, control=64, value=127, time=173),\n",
      "    Message('note_on', channel=0, note=43, velocity=0, time=38),\n",
      "    Message('note_on', channel=0, note=58, velocity=0, time=649),\n",
      "    Message('note_on', channel=0, note=62, velocity=0, time=0),\n",
      "    Message('note_on', channel=0, note=50, velocity=0, time=1),\n",
      "    Message('control_change', channel=0, control=64, value=0, time=4),\n",
      "    Message('note_on', channel=0, note=42, velocity=34, time=49),\n",
      "    Message('note_on', channel=0, note=30, velocity=34, time=7),\n",
      "    Message('note_on', channel=0, note=30, velocity=0, time=189),\n",
      "    Message('control_change', channel=0, control=64, value=127, time=0),\n",
      "    Message('note_on', channel=0, note=68, velocity=64, time=580),\n",
      "    Message('note_on', channel=0, note=63, velocity=38, time=20),\n",
      "    Message('note_on', channel=0, note=54, velocity=26, time=10),\n",
      "    Message('note_on', channel=0, note=60, velocity=30, time=0),\n",
      "    Message('note_on', channel=0, note=56, velocity=24, time=31),\n",
      "    Message('note_on', channel=0, note=41, velocity=36, time=751),\n",
      "    Message('note_on', channel=0, note=29, velocity=44, time=16),\n",
      "    Message('note_on', channel=0, note=42, velocity=0, time=13),\n",
      "    Message('control_change', channel=0, control=64, value=0, time=8),\n",
      "    Message('control_change', channel=0, control=64, value=127, time=76),\n",
      "    Message('note_on', channel=0, note=54, velocity=0, time=92),\n",
      "    Message('note_on', channel=0, note=73, velocity=67, time=391),\n",
      "    Message('note_on', channel=0, note=61, velocity=31, time=359),\n",
      "    Message('note_on', channel=0, note=53, velocity=24, time=24),\n",
      "    Message('note_on', channel=0, note=56, velocity=0, time=2),\n",
      "    Message('note_on', channel=0, note=77, velocity=71, time=4),\n",
      "    Message('note_on', channel=0, note=65, velocity=26, time=0),\n",
      "    Message('note_on', channel=0, note=56, velocity=32, time=3),\n",
      "    Message('note_on', channel=0, note=82, velocity=70, time=326),\n",
      "    Message('note_on', channel=0, note=80, velocity=66, time=314),\n",
      "    Message('note_on', channel=0, note=24, velocity=32, time=7),\n",
      "    Message('note_on', channel=0, note=41, velocity=0, time=3),\n",
      "    Message('note_on', channel=0, note=60, velocity=0, time=1),\n",
      "    Message('note_on', channel=0, note=68, velocity=0, time=0),\n",
      "    Message('note_on', channel=0, note=77, velocity=0, time=1),\n",
      "    Message('note_on', channel=0, note=61, velocity=0, time=1),\n",
      "    Message('note_on', channel=0, note=24, velocity=0, time=0),\n",
      "    Message('control_change', channel=0, control=64, value=0, time=1),\n",
      "    Message('note_on', channel=0, note=29, velocity=0, time=0),\n",
      "    Message('note_on', channel=0, note=65, velocity=0, time=1),\n",
      "    Message('note_on', channel=0, note=73, velocity=0, time=0),\n",
      "    Message('note_on', channel=0, note=82, velocity=0, time=0),\n",
      "    Message('note_on', channel=0, note=63, velocity=0, time=0),\n",
      "    Message('note_on', channel=0, note=56, velocity=0, time=1),\n",
      "    Message('note_on', channel=0, note=53, velocity=0, time=20),\n",
      "    Message('control_change', channel=0, control=64, value=127, time=154),\n",
      "    Message('note_on', channel=0, note=66, velocity=35, time=458),\n",
      "    Message('note_on', channel=0, note=68, velocity=48, time=117),\n",
      "    Message('note_on', channel=0, note=75, velocity=51, time=110),\n",
      "    Message('note_on', channel=0, note=80, velocity=0, time=129),\n",
      "    Message('note_on', channel=0, note=80, velocity=54, time=4),\n",
      "    Message('note_on', channel=0, note=63, velocity=31, time=31),\n",
      "    Message('note_on', channel=0, note=51, velocity=28, time=1),\n",
      "    Message('note_on', channel=0, note=56, velocity=30, time=2),\n",
      "    Message('note_on', channel=0, note=78, velocity=49, time=298),\n",
      "    Message('note_on', channel=0, note=77, velocity=48, time=253),\n",
      "    Message('note_on', channel=0, note=65, velocity=40, time=142),\n",
      "    Message('note_on', channel=0, note=68, velocity=0, time=45),\n",
      "    Message('note_on', channel=0, note=68, velocity=33, time=9),\n",
      "    Message('note_on', channel=0, note=73, velocity=40, time=36),\n",
      "    Message('note_on', channel=0, note=77, velocity=0, time=47),\n",
      "    Message('note_on', channel=0, note=77, velocity=51, time=5),\n",
      "    Message('note_on', channel=0, note=37, velocity=24, time=17),\n",
      "    Message('note_on', channel=0, note=25, velocity=32, time=4),\n",
      "    Message('note_on', channel=0, note=25, velocity=0, time=5),\n",
      "    Message('note_on', channel=0, note=66, velocity=0, time=722),\n",
      "    Message('note_on', channel=0, note=56, velocity=0, time=92),\n",
      "    Message('note_on', channel=0, note=56, velocity=29, time=6),\n",
      "    Message('note_on', channel=0, note=53, velocity=20, time=5),\n",
      "    Message('note_on', channel=0, note=61, velocity=29, time=5),\n",
      "    Message('note_on', channel=0, note=36, velocity=36, time=880),\n",
      "    Message('note_on', channel=0, note=48, velocity=37, time=0),\n",
      "    Message('note_on', channel=0, note=68, velocity=0, time=51),\n",
      "    Message('note_on', channel=0, note=51, velocity=0, time=1),\n",
      "    Message('note_on', channel=0, note=61, velocity=0, time=0),\n",
      "    Message('note_on', channel=0, note=73, velocity=0, time=0),\n",
      "    Message('note_on', channel=0, note=65, velocity=0, time=0),\n",
      "    Message('note_on', channel=0, note=56, velocity=0, time=0),\n",
      "    Message('note_on', channel=0, note=37, velocity=0, time=0),\n",
      "    Message('note_on', channel=0, note=78, velocity=0, time=0),\n",
      "    Message('note_on', channel=0, note=77, velocity=0, time=1),\n",
      "    Message('note_on', channel=0, note=80, velocity=0, time=0),\n",
      "    Message('note_on', channel=0, note=75, velocity=0, time=1),\n",
      "    Message('note_on', channel=0, note=63, velocity=0, time=10),\n",
      "    Message('control_change', channel=0, control=64, value=0, time=6),\n",
      "    Message('note_on', channel=0, note=53, velocity=0, time=1),\n",
      "    Message('note_on', channel=0, note=48, velocity=0, time=6),\n",
      "    Message('note_on', channel=0, note=36, velocity=0, time=48),\n",
      "    Message('note_on', channel=0, note=35, velocity=48, time=63),\n",
      "    Message('note_on', channel=0, note=47, velocity=41, time=0),\n",
      "    Message('control_change', channel=0, control=64, value=127, time=260),\n",
      "    Message('note_on', channel=0, note=67, velocity=64, time=488),\n",
      "    Message('note_on', channel=0, note=77, velocity=49, time=4),\n",
      "    Message('note_on', channel=0, note=65, velocity=40, time=8),\n",
      "    Message('note_on', channel=0, note=62, velocity=40, time=19),\n",
      "    Message('note_on', channel=0, note=55, velocity=32, time=7),\n",
      "    Message('note_on', channel=0, note=68, velocity=69, time=627),\n",
      "    Message('note_on', channel=0, note=70, velocity=63, time=57),\n",
      "    Message('note_on', channel=0, note=47, velocity=0, time=56),\n",
      "    Message('note_on', channel=0, note=55, velocity=0, time=0),\n",
      "    Message('note_on', channel=0, note=68, velocity=0, time=1),\n",
      "    Message('control_change', channel=0, control=64, value=0, time=0),\n",
      "    Message('note_on', channel=0, note=65, velocity=0, time=1),\n",
      "    Message('note_on', channel=0, note=67, velocity=0, time=0),\n",
      "    Message('note_on', channel=0, note=62, velocity=0, time=0),\n",
      "    Message('note_on', channel=0, note=68, velocity=66, time=4),\n",
      "    Message('note_on', channel=0, note=35, velocity=0, time=10),\n",
      "    Message('note_on', channel=0, note=77, velocity=0, time=8),\n",
      "    Message('note_on', channel=0, note=70, velocity=0, time=33),\n",
      "    Message('control_change', channel=0, control=64, value=127, time=105),\n",
      "    Message('note_on', channel=0, note=67, velocity=70, time=115),\n",
      "    Message('note_on', channel=0, note=71, velocity=75, time=186),\n",
      "    Message('note_on', channel=0, note=72, velocity=83, time=167),\n",
      "    Message('note_on', channel=0, note=74, velocity=75, time=150),\n",
      "    Message('note_on', channel=0, note=55, velocity=35, time=1),\n",
      "    Message('note_on', channel=0, note=63, velocity=43, time=3),\n",
      "    Message('note_on', channel=0, note=60, velocity=39, time=0),\n",
      "    Message('note_on', channel=0, note=71, velocity=0, time=3),\n",
      "    Message('note_on', channel=0, note=68, velocity=0, time=1),\n",
      "    Message('note_on', channel=0, note=72, velocity=0, time=1),\n",
      "    Message('control_change', channel=0, control=64, value=0, time=2),\n",
      "    Message('control_change', channel=0, control=64, value=127, time=155),\n",
      "    Message('note_on', channel=0, note=75, velocity=79, time=24),\n",
      "    Message('note_on', channel=0, note=84, velocity=62, time=209),\n",
      "    Message('note_on', channel=0, note=67, velocity=0, time=112),\n",
      "    Message('note_on', channel=0, note=80, velocity=69, time=102),\n",
      "    Message('note_on', channel=0, note=74, velocity=0, time=190),\n",
      "    Message('note_on', channel=0, note=84, velocity=0, time=4),\n",
      "    Message('note_on', channel=0, note=79, velocity=60, time=1),\n",
      "    Message('note_on', channel=0, note=55, velocity=0, time=0),\n",
      "    Message('note_on', channel=0, note=63, velocity=0, time=0),\n",
      "    Message('note_on', channel=0, note=60, velocity=0, time=1),\n",
      "    Message('note_on', channel=0, note=75, velocity=0, time=0),\n",
      "    Message('note_on', channel=0, note=80, velocity=0, time=0),\n",
      "    Message('control_change', channel=0, control=64, value=0, time=1),\n",
      "    Message('note_on', channel=0, note=50, velocity=33, time=14),\n",
      "    Message('note_on', channel=0, note=38, velocity=31, time=2),\n",
      "    Message('control_change', channel=0, control=64, value=127, time=184),\n",
      "    Message('note_on', channel=0, note=67, velocity=27, time=698),\n",
      "    Message('note_on', channel=0, note=65, velocity=25, time=0),\n",
      "    Message('note_on', channel=0, note=59, velocity=24, time=6),\n",
      "    Message('note_on', channel=0, note=55, velocity=24, time=2),\n",
      "    Message('note_on', channel=0, note=73, velocity=47, time=277),\n",
      "    Message('note_on', channel=0, note=74, velocity=49, time=155),\n",
      "    Message('note_on', channel=0, note=79, velocity=0, time=153),\n",
      "    Message('note_on', channel=0, note=79, velocity=36, time=5),\n",
      "    Message('note_on', channel=0, note=77, velocity=46, time=115),\n",
      "    Message('note_on', channel=0, note=75, velocity=53, time=166),\n",
      "    Message('note_on', channel=0, note=75, velocity=0, time=151),\n",
      "    Message('note_on', channel=0, note=51, velocity=27, time=8),\n",
      "    Message('note_on', channel=0, note=75, velocity=49, time=3),\n",
      "    Message('note_on', channel=0, note=39, velocity=27, time=1),\n",
      "    Message('note_on', channel=0, note=38, velocity=0, time=15),\n",
      "    Message('note_on', channel=0, note=55, velocity=0, time=0),\n",
      "    Message('control_change', channel=0, control=64, value=0, time=0),\n",
      "    Message('note_on', channel=0, note=73, velocity=0, time=0),\n",
      "    Message('note_on', channel=0, note=67, velocity=0, time=1),\n",
      "    Message('note_on', channel=0, note=59, velocity=0, time=0),\n",
      "    Message('note_on', channel=0, note=77, velocity=0, time=0),\n",
      "    Message('note_on', channel=0, note=50, velocity=0, time=0),\n",
      "    Message('note_on', channel=0, note=74, velocity=0, time=1),\n",
      "    Message('note_on', channel=0, note=65, velocity=0, time=0),\n",
      "    Message('note_on', channel=0, note=79, velocity=0, time=0),\n",
      "    Message('control_change', channel=0, control=64, value=127, time=117),\n",
      "    Message('note_on', channel=0, note=67, velocity=32, time=794),\n",
      "    Message('note_on', channel=0, note=60, velocity=25, time=12),\n",
      "    Message('note_on', channel=0, note=55, velocity=22, time=25),\n",
      "    Message('control_change', channel=0, control=64, value=0, time=784),\n",
      "    Message('note_on', channel=0, note=39, velocity=0, time=6),\n",
      "    Message('note_on', channel=0, note=51, velocity=0, time=0),\n",
      "    Message('note_on', channel=0, note=51, velocity=45, time=5),\n",
      "    Message('note_on', channel=0, note=39, velocity=36, time=5),\n",
      "    Message('note_on', channel=0, note=39, velocity=0, time=100),\n",
      "    Message('note_on', channel=0, note=55, velocity=0, time=0),\n",
      "    Message('note_on', channel=0, note=67, velocity=0, time=1),\n",
      "    Message('note_on', channel=0, note=60, velocity=0, time=0),\n",
      "    Message('note_on', channel=0, note=51, velocity=0, time=0),\n",
      "    Message('note_on', channel=0, note=75, velocity=0, time=19),\n",
      "    Message('note_on', channel=0, note=53, velocity=43, time=58),\n",
      "    Message('note_on', channel=0, note=41, velocity=36, time=23),\n",
      "    Message('control_change', channel=0, control=64, value=127, time=173),\n",
      "    Message('note_on', channel=0, note=71, velocity=59, time=609),\n",
      "    Message('note_on', channel=0, note=68, velocity=41, time=1),\n",
      "    Message('note_on', channel=0, note=68, velocity=0, time=12),\n",
      "    Message('note_on', channel=0, note=56, velocity=32, time=11),\n",
      "    Message('note_on', channel=0, note=62, velocity=36, time=1),\n",
      "    Message('note_on', channel=0, note=51, velocity=38, time=762),\n",
      "    Message('note_on', channel=0, note=39, velocity=31, time=21),\n",
      "    Message('note_on', channel=0, note=41, velocity=0, time=23),\n",
      "    Message('note_on', channel=0, note=62, velocity=0, time=0),\n",
      "    Message('note_on', channel=0, note=56, velocity=0, time=0),\n",
      "    Message('control_change', channel=0, control=64, value=0, time=0),\n",
      "    Message('note_on', channel=0, note=53, velocity=0, time=0),\n",
      "    Message('control_change', channel=0, control=64, value=127, time=73),\n",
      "    Message('note_on', channel=0, note=72, velocity=55, time=375),\n",
      "    Message('note_on', channel=0, note=74, velocity=59, time=374),\n",
      "    Message('note_on', channel=0, note=67, velocity=37, time=23),\n",
      "    Message('note_on', channel=0, note=60, velocity=27, time=4),\n",
      "    Message('note_on', channel=0, note=55, velocity=29, time=4),\n",
      "    Message('note_on', channel=0, note=75, velocity=51, time=446),\n",
      "    Message('note_on', channel=0, note=48, velocity=38, time=236),\n",
      "    Message('note_on', channel=0, note=36, velocity=36, time=3),\n",
      "    Message('note_on', channel=0, note=71, velocity=0, time=171),\n",
      "    Message('note_on', channel=0, note=47, velocity=42, time=24),\n",
      "    Message('note_on', channel=0, note=35, velocity=37, time=4),\n",
      "    Message('note_on', channel=0, note=51, velocity=0, time=5),\n",
      "    Message('note_on', channel=0, note=55, velocity=0, time=0),\n",
      "    Message('note_on', channel=0, note=67, velocity=0, time=0),\n",
      "    Message('control_change', channel=0, control=64, value=0, time=0),\n",
      "    Message('note_on', channel=0, note=39, velocity=0, time=0),\n",
      "    Message('note_on', channel=0, note=74, velocity=0, time=0),\n",
      "    Message('note_on', channel=0, note=72, velocity=0, time=0),\n",
      "    Message('note_on', channel=0, note=48, velocity=0, time=1),\n",
      "    Message('note_on', channel=0, note=60, velocity=0, time=0),\n",
      "    Message('note_on', channel=0, note=36, velocity=0, time=27),\n",
      "    Message('control_change', channel=0, control=64, value=127, time=123),\n",
      "    Message('note_on', channel=0, note=74, velocity=67, time=582),\n",
      "    Message('note_on', channel=0, note=65, velocity=40, time=4),\n",
      "    Message('note_on', channel=0, note=67, velocity=46, time=4),\n",
      "    Message('note_on', channel=0, note=62, velocity=35, time=8),\n",
      "    Message('note_on', channel=0, note=55, velocity=28, time=14),\n",
      "    Message('note_on', channel=0, note=35, velocity=0, time=64),\n",
      "    Message('note_on', channel=0, note=48, velocity=43, time=611),\n",
      "    Message('note_on', channel=0, note=36, velocity=39, time=4),\n",
      "    Message('note_on', channel=0, note=65, velocity=0, time=69),\n",
      "    Message('note_on', channel=0, note=47, velocity=0, time=1),\n",
      "    Message('note_on', channel=0, note=55, velocity=0, time=0),\n",
      "    Message('note_on', channel=0, note=62, velocity=0, time=0),\n",
      "    Message('control_change', channel=0, control=64, value=0, time=0),\n",
      "    Message('note_on', channel=0, note=75, velocity=0, time=6),\n",
      "    Message('control_change', channel=0, control=64, value=127, time=100),\n",
      "    Message('note_on', channel=0, note=75, velocity=77, time=223),\n",
      "    Message('note_on', channel=0, note=77, velocity=73, time=397),\n",
      "    Message('note_on', channel=0, note=67, velocity=0, time=2),\n",
      "    Message('note_on', channel=0, note=67, velocity=47, time=8),\n",
      "    Message('note_on', channel=0, note=55, velocity=38, time=11),\n",
      "    Message('note_on', channel=0, note=63, velocity=42, time=0),\n",
      "    Message('note_on', channel=0, note=72, velocity=44, time=2),\n",
      "    Message('note_on', channel=0, note=60, velocity=37, time=4),\n",
      "    Message('note_on', channel=0, note=74, velocity=0, time=52),\n",
      "    Message('note_on', channel=0, note=79, velocity=72, time=481),\n",
      "    Message('note_on', channel=0, note=36, velocity=0, time=194),\n",
      "    Message('note_on', channel=0, note=36, velocity=39, time=7),\n",
      "    Message('note_on', channel=0, note=79, velocity=0, time=239),\n",
      "    Message('note_on', channel=0, note=41, velocity=36, time=5),\n",
      "    Message('note_on', channel=0, note=79, velocity=68, time=0),\n",
      "    Message('note_on', channel=0, note=29, velocity=39, time=6),\n",
      "    Message('note_on', channel=0, note=67, velocity=0, time=24),\n",
      "    Message('note_on', channel=0, note=55, velocity=0, time=1),\n",
      "    Message('note_on', channel=0, note=60, velocity=0, time=1),\n",
      "    Message('note_on', channel=0, note=36, velocity=0, time=0),\n",
      "    Message('note_on', channel=0, note=63, velocity=0, time=1),\n",
      "    Message('note_on', channel=0, note=77, velocity=0, time=1),\n",
      "    Message('note_on', channel=0, note=75, velocity=0, time=1),\n",
      "    Message('control_change', channel=0, control=64, value=0, time=0),\n",
      "    Message('note_on', channel=0, note=48, velocity=0, time=6),\n",
      "    Message('note_on', channel=0, note=72, velocity=0, time=54),\n",
      "    Message('control_change', channel=0, control=64, value=127, time=31),\n",
      "    Message('note_on', channel=0, note=77, velocity=77, time=327),\n",
      "    Message('note_on', channel=0, note=80, velocity=73, time=404),\n",
      "    Message('note_on', channel=0, note=68, velocity=37, time=2),\n",
      "    Message('note_on', channel=0, note=29, velocity=0, time=4),\n",
      "    Message('note_on', channel=0, note=60, velocity=36, time=3),\n",
      "    Message('note_on', channel=0, note=53, velocity=26, time=13),\n",
      "    Message('control_change', channel=0, control=64, value=0, time=2),\n",
      "    Message('note_on', channel=0, note=77, velocity=0, time=4),\n",
      "    Message('note_on', channel=0, note=41, velocity=0, time=3),\n",
      "    Message('note_on', channel=0, note=79, velocity=0, time=13),\n",
      "    Message('control_change', channel=0, control=64, value=127, time=62),\n",
      "    Message('note_on', channel=0, note=72, velocity=68, time=323),\n",
      "    Message('note_on', channel=0, note=74, velocity=65, time=349),\n",
      "    Message('note_on', channel=0, note=68, velocity=0, time=19),\n",
      "    Message('note_on', channel=0, note=32, velocity=34, time=6),\n",
      "    Message('note_on', channel=0, note=72, velocity=0, time=5),\n",
      "    Message('note_on', channel=0, note=60, velocity=0, time=0),\n",
      "    Message('note_on', channel=0, note=68, velocity=32, time=0),\n",
      "    Message('note_on', channel=0, note=53, velocity=0, time=0),\n",
      "    Message('note_on', channel=0, note=44, velocity=38, time=0),\n",
      "    Message('note_on', channel=0, note=80, velocity=0, time=1),\n",
      "    Message('control_change', channel=0, control=64, value=0, time=5),\n",
      "    Message('note_on', channel=0, note=68, velocity=0, time=137),\n",
      "    Message('control_change', channel=0, control=64, value=127, time=0),\n",
      "    Message('note_on', channel=0, note=75, velocity=69, time=216),\n",
      "    Message('note_on', channel=0, note=75, velocity=0, time=122),\n",
      "    Message('note_on', channel=0, note=75, velocity=66, time=6),\n",
      "    Message('note_on', channel=0, note=77, velocity=62, time=122),\n",
      "    Message('note_on', channel=0, note=75, velocity=0, time=94),\n",
      "    Message('note_on', channel=0, note=75, velocity=68, time=10),\n",
      "    Message('note_on', channel=0, note=74, velocity=0, time=113),\n",
      "    Message('note_on', channel=0, note=74, velocity=59, time=4),\n",
      "    Message('note_on', channel=0, note=75, velocity=0, time=119),\n",
      "    Message('note_on', channel=0, note=75, velocity=61, time=10),\n",
      "    Message('note_on', channel=0, note=32, velocity=0, time=151),\n",
      "    Message('note_on', channel=0, note=79, velocity=57, time=8),\n",
      "    Message('note_on', channel=0, note=44, velocity=0, time=7),\n",
      "    Message('note_on', channel=0, note=74, velocity=0, time=4),\n",
      "    Message('note_on', channel=0, note=77, velocity=0, time=0),\n",
      "    Message('note_on', channel=0, note=75, velocity=0, time=0),\n",
      "    Message('control_change', channel=0, control=64, value=0, time=1),\n",
      "    Message('note_on', channel=0, note=60, velocity=31, time=22),\n",
      "    Message('note_on', channel=0, note=68, velocity=32, time=1),\n",
      "    Message('note_on', channel=0, note=53, velocity=22, time=1),\n",
      "    Message('control_change', channel=0, control=64, value=127, time=171),\n",
      "    Message('note_on', channel=0, note=77, velocity=51, time=312),\n",
      "    Message('note_on', channel=0, note=74, velocity=48, time=455),\n",
      "    Message('note_on', channel=0, note=68, velocity=0, time=13),\n",
      "    Message('note_on', channel=0, note=60, velocity=0, time=2),\n",
      "    Message('note_on', channel=0, note=79, velocity=0, time=0),\n",
      "    Message('control_change', channel=0, control=64, value=0, time=1),\n",
      "    Message('note_on', channel=0, note=53, velocity=0, time=0),\n",
      "    Message('note_on', channel=0, note=77, velocity=0, time=1),\n",
      "    Message('note_on', channel=0, note=46, velocity=18, time=4),\n",
      "    Message('note_on', channel=0, note=34, velocity=17, time=0),\n",
      "    Message('control_change', channel=0, control=64, value=127, time=195),\n",
      "    Message('note_on', channel=0, note=68, velocity=38, time=720),\n",
      "    Message('note_on', channel=0, note=58, velocity=35, time=5),\n",
      "    Message('note_on', channel=0, note=53, velocity=25, time=7),\n",
      "    Message('note_on', channel=0, note=62, velocity=27, time=10),\n",
      "    Message('note_on', channel=0, note=34, velocity=0, time=103),\n",
      "    Message('note_on', channel=0, note=46, velocity=0, time=653),\n",
      "    Message('note_on', channel=0, note=46, velocity=40, time=10),\n",
      "    Message('note_on', channel=0, note=34, velocity=30, time=2),\n",
      "    Message('note_on', channel=0, note=47, velocity=41, time=140),\n",
      "    Message('note_on', channel=0, note=35, velocity=40, time=24),\n",
      "    Message('control_change', channel=0, control=64, value=0, time=36),\n",
      "    Message('note_on', channel=0, note=68, velocity=0, time=3),\n",
      "    Message('note_on', channel=0, note=58, velocity=0, time=1),\n",
      "    Message('note_on', channel=0, note=62, velocity=0, time=1),\n",
      "    Message('note_on', channel=0, note=53, velocity=0, time=0),\n",
      "    Message('note_on', channel=0, note=34, velocity=0, time=1),\n",
      "    Message('note_on', channel=0, note=74, velocity=0, time=0),\n",
      "    Message('note_on', channel=0, note=46, velocity=0, time=12),\n",
      "    Message('control_change', channel=0, control=64, value=127, time=185),\n",
      "    Message('note_on', channel=0, note=65, velocity=28, time=695),\n",
      "    Message('note_on', channel=0, note=62, velocity=29, time=1),\n",
      "    Message('note_on', channel=0, note=55, velocity=27, time=1),\n",
      "    Message('control_change', channel=0, control=64, value=0, time=29),\n",
      "    Message('note_on', channel=0, note=35, velocity=0, time=7),\n",
      "    Message('control_change', channel=0, control=64, value=127, time=127),\n",
      "    Message('note_on', channel=0, note=47, velocity=0, time=184),\n",
      "    Message('note_on', channel=0, note=31, velocity=31, time=556),\n",
      "    Message('note_on', channel=0, note=43, velocity=27, time=3),\n",
      "    Message('note_on', channel=0, note=48, velocity=33, time=276),\n",
      "    Message('note_on', channel=0, note=36, velocity=27, time=6),\n",
      "    Message('control_change', channel=0, control=64, value=0, time=19),\n",
      "    Message('note_on', channel=0, note=65, velocity=0, time=11),\n",
      "    Message('note_on', channel=0, note=55, velocity=0, time=1),\n",
      "    Message('note_on', channel=0, note=31, velocity=0, time=0),\n",
      "    Message('note_on', channel=0, note=62, velocity=0, time=0),\n",
      "    Message('note_on', channel=0, note=43, velocity=0, time=3),\n",
      "    Message('control_change', channel=0, control=64, value=127, time=223),\n",
      "    Message('note_on', channel=0, note=36, velocity=0, time=254),\n",
      "    Message('note_on', channel=0, note=60, velocity=26, time=557),\n",
      "    Message('note_on', channel=0, note=79, velocity=51, time=7),\n",
      "    Message('note_on', channel=0, note=64, velocity=26, time=0),\n",
      "    Message('note_on', channel=0, note=70, velocity=35, time=1),\n",
      "    Message('note_on', channel=0, note=41, velocity=32, time=1079),\n",
      "    Message('note_on', channel=0, note=29, velocity=37, time=9),\n",
      "    Message('control_change', channel=0, control=64, value=0, time=50),\n",
      "    Message('note_on', channel=0, note=64, velocity=0, time=0),\n",
      "    Message('note_on', channel=0, note=79, velocity=0, time=6),\n",
      "    Message('note_on', channel=0, note=70, velocity=0, time=1),\n",
      "    Message('note_on', channel=0, note=60, velocity=0, time=0),\n",
      "    Message('note_on', channel=0, note=48, velocity=0, time=3),\n",
      "    Message('control_change', channel=0, control=64, value=127, time=130),\n",
      "    Message('note_on', channel=0, note=29, velocity=0, time=254),\n",
      "    Message('note_on', channel=0, note=80, velocity=66, time=454),\n",
      "    Message('note_on', channel=0, note=68, velocity=39, time=4),\n",
      "    Message('note_on', channel=0, note=63, velocity=30, time=1),\n",
      "    Message('note_on', channel=0, note=72, velocity=37, time=4),\n",
      "    Message('note_on', channel=0, note=60, velocity=27, time=7),\n",
      "    Message('note_on', channel=0, note=34, velocity=34, time=997),\n",
      "    Message('note_on', channel=0, note=46, velocity=35, time=1),\n",
      "    Message('note_on', channel=0, note=72, velocity=0, time=40),\n",
      "    Message('note_on', channel=0, note=41, velocity=0, time=0),\n",
      "    Message('note_on', channel=0, note=68, velocity=0, time=0),\n",
      "    Message('note_on', channel=0, note=60, velocity=0, time=0),\n",
      "    Message('control_change', channel=0, control=64, value=0, time=0),\n",
      "    Message('note_on', channel=0, note=63, velocity=0, time=0),\n",
      "    Message('control_change', channel=0, control=64, value=127, time=127),\n",
      "    Message('note_on', channel=0, note=34, velocity=0, time=77),\n",
      "    Message('note_on', channel=0, note=79, velocity=64, time=258),\n",
      "    Message('note_on', channel=0, note=53, velocity=32, time=383),\n",
      "    Message('note_on', channel=0, note=68, velocity=45, time=7),\n",
      "    Message('note_on', channel=0, note=58, velocity=40, time=8),\n",
      "    Message('note_on', channel=0, note=62, velocity=34, time=2),\n",
      "    Message('note_on', channel=0, note=77, velocity=61, time=615),\n",
      "    Message('note_on', channel=0, note=51, velocity=38, time=299),\n",
      "    Message('note_on', channel=0, note=39, velocity=29, time=8),\n",
      "    Message('control_change', channel=0, control=64, value=0, time=7),\n",
      "    Message('note_on', channel=0, note=53, velocity=0, time=2),\n",
      "    Message('note_on', channel=0, note=58, velocity=0, time=0),\n",
      "    Message('note_on', channel=0, note=68, velocity=0, time=0),\n",
      "    Message('note_on', channel=0, note=62, velocity=0, time=1),\n",
      "    Message('note_on', channel=0, note=79, velocity=0, time=1),\n",
      "    Message('note_on', channel=0, note=46, velocity=0, time=1),\n",
      "    Message('note_on', channel=0, note=80, velocity=0, time=59),\n",
      "    Message('control_change', channel=0, control=64, value=127, time=77),\n",
      "    Message('note_on', channel=0, note=75, velocity=68, time=125),\n",
      "    Message('note_on', channel=0, note=77, velocity=0, time=213),\n",
      "    Message('note_on', channel=0, note=77, velocity=68, time=7),\n",
      "    Message('note_on', channel=0, note=75, velocity=0, time=147),\n",
      "    Message('note_on', channel=0, note=75, velocity=60, time=4),\n",
      "    Message('note_on', channel=0, note=77, velocity=0, time=34),\n",
      "    Message('note_on', channel=0, note=77, velocity=58, time=5),\n",
      "    Message('note_on', channel=0, note=75, velocity=0, time=49),\n",
      "    Message('note_on', channel=0, note=75, velocity=73, time=11),\n",
      "    Message('note_on', channel=0, note=51, velocity=0, time=170),\n",
      "    Message('note_on', channel=0, note=74, velocity=68, time=3),\n",
      "    Message('note_on', channel=0, note=63, velocity=38, time=1),\n",
      "    Message('note_on', channel=0, note=67, velocity=43, time=3),\n",
      "    Message('note_on', channel=0, note=55, velocity=32, time=7),\n",
      "    Message('note_on', channel=0, note=58, velocity=34, time=8),\n",
      "    Message('note_on', channel=0, note=75, velocity=0, time=181),\n",
      "    Message('note_on', channel=0, note=75, velocity=73, time=5),\n",
      "    Message('note_on', channel=0, note=77, velocity=0, time=172),\n",
      "    Message('note_on', channel=0, note=77, velocity=74, time=9),\n",
      "    Message('note_on', channel=0, note=79, velocity=73, time=148),\n",
      "    Message('note_on', channel=0, note=79, velocity=0, time=104),\n",
      "    Message('note_on', channel=0, note=79, velocity=65, time=6),\n",
      "    Message('note_on', channel=0, note=63, velocity=0, time=153),\n",
      "    Message('note_on', channel=0, note=72, velocity=65, time=1),\n",
      "    Message('note_on', channel=0, note=58, velocity=0, time=1),\n",
      "    Message('note_on', channel=0, note=55, velocity=0, time=0),\n",
      "    Message('note_on', channel=0, note=67, velocity=0, time=0),\n",
      "    Message('note_on', channel=0, note=77, velocity=0, time=2),\n",
      "    Message('note_on', channel=0, note=74, velocity=0, time=0),\n",
      "    Message('note_on', channel=0, note=75, velocity=0, time=0),\n",
      "    Message('control_change', channel=0, control=64, value=0, time=0),\n",
      "    Message('note_on', channel=0, note=79, velocity=0, time=2),\n",
      "    Message('note_on', channel=0, note=39, velocity=0, time=4),\n",
      "    Message('note_on', channel=0, note=32, velocity=35, time=22),\n",
      "    Message('note_on', channel=0, note=44, velocity=36, time=2),\n",
      "    Message('control_change', channel=0, control=64, value=127, time=152),\n",
      "    Message('note_on', channel=0, note=67, velocity=46, time=723),\n",
      "    Message('note_on', channel=0, note=60, velocity=38, time=24),\n",
      "    Message('note_on', channel=0, note=56, velocity=36, time=0),\n",
      "    Message('note_on', channel=0, note=32, velocity=0, time=789),\n",
      "    Message('note_on', channel=0, note=50, velocity=43, time=3),\n",
      "    Message('note_on', channel=0, note=38, velocity=34, time=22),\n",
      "    Message('control_change', channel=0, control=64, value=0, time=25),\n",
      "    Message('note_on', channel=0, note=72, velocity=0, time=2),\n",
      "    Message('note_on', channel=0, note=60, velocity=0, time=2),\n",
      "    Message('note_on', channel=0, note=67, velocity=0, time=1),\n",
      "    Message('note_on', channel=0, note=56, velocity=0, time=1),\n",
      "    Message('note_on', channel=0, note=44, velocity=0, time=0),\n",
      "    Message('control_change', channel=0, control=64, value=127, time=159),\n",
      "    Message('note_on', channel=0, note=77, velocity=71, time=502),\n",
      "    Message('note_on', channel=0, note=56, velocity=36, time=22),\n",
      "    Message('note_on', channel=0, note=65, velocity=33, time=0),\n",
      "    Message('note_on', channel=0, note=60, velocity=29, time=8),\n",
      "    Message('control_change', channel=0, control=64, value=0, time=6),\n",
      "    Message('note_on', channel=0, note=50, velocity=0, time=3),\n",
      "    Message('note_on', channel=0, note=38, velocity=0, time=20),\n",
      "    Message('control_change', channel=0, control=64, value=127, time=123),\n",
      "    Message('note_on', channel=0, note=71, velocity=61, time=548),\n",
      "    Message('note_on', channel=0, note=60, velocity=0, time=20),\n",
      "    Message('note_on', channel=0, note=56, velocity=0, time=115),\n",
      "    Message('note_on', channel=0, note=77, velocity=0, time=11),\n",
      "    Message('control_change', channel=0, control=64, value=0, time=4),\n",
      "    Message('note_on', channel=0, note=31, velocity=39, time=6),\n",
      "    Message('note_on', channel=0, note=65, velocity=0, time=2),\n",
      "    Message('note_on', channel=0, note=75, velocity=75, time=3),\n",
      "    Message('control_change', channel=0, control=64, value=127, time=189),\n",
      "    Message('note_on', channel=0, note=31, velocity=0, time=177),\n",
      "    Message('note_on', channel=0, note=65, velocity=35, time=410),\n",
      "    Message('note_on', channel=0, note=59, velocity=41, time=2),\n",
      "    Message('note_on', channel=0, note=55, velocity=29, time=14),\n",
      "    Message('note_on', channel=0, note=74, velocity=68, time=440),\n",
      "    Message('note_on', channel=0, note=44, velocity=46, time=312),\n",
      "    Message('note_on', channel=0, note=32, velocity=39, time=24),\n",
      "    Message('control_change', channel=0, control=64, value=0, time=8),\n",
      "    Message('note_on', channel=0, note=55, velocity=0, time=8),\n",
      "    Message('note_on', channel=0, note=59, velocity=0, time=0),\n",
      "    Message('note_on', channel=0, note=65, velocity=0, time=0),\n",
      "    Message('note_on', channel=0, note=75, velocity=0, time=2),\n",
      "    Message('note_on', channel=0, note=71, velocity=0, time=2),\n",
      "    Message('control_change', channel=0, control=64, value=127, time=176),\n",
      "    Message('note_on', channel=0, note=72, velocity=73, time=46),\n",
      "    Message('note_on', channel=0, note=74, velocity=0, time=192),\n",
      "    Message('note_on', channel=0, note=74, velocity=75, time=8),\n",
      "    Message('note_on', channel=0, note=72, velocity=0, time=92),\n",
      "    Message('note_on', channel=0, note=72, velocity=69, time=8),\n",
      "    Message('note_on', channel=0, note=74, velocity=0, time=38),\n",
      "    Message('note_on', channel=0, note=74, velocity=72, time=9),\n",
      "    Message('note_on', channel=0, note=72, velocity=0, time=52),\n",
      "    Message('note_on', channel=0, note=72, velocity=73, time=7),\n",
      "    Message('note_on', channel=0, note=63, velocity=59, time=104),\n",
      "    Message('note_on', channel=0, note=56, velocity=48, time=15),\n",
      "    Message('note_on', channel=0, note=71, velocity=72, time=9),\n",
      "    Message('note_on', channel=0, note=72, velocity=0, time=195),\n",
      "    Message('note_on', channel=0, note=72, velocity=81, time=12),\n",
      "    Message('note_on', channel=0, note=74, velocity=0, time=157),\n",
      "    Message('note_on', channel=0, note=74, velocity=85, time=6),\n",
      "    Message('note_on', channel=0, note=75, velocity=86, time=146),\n",
      "    Message('note_on', channel=0, note=67, velocity=79, time=167),\n",
      "    Message('note_on', channel=0, note=27, velocity=62, time=15),\n",
      "    Message('note_on', channel=0, note=39, velocity=46, time=0),\n",
      "    Message('control_change', channel=0, control=64, value=0, time=4),\n",
      "    Message('note_on', channel=0, note=44, velocity=0, time=3),\n",
      "    Message('note_on', channel=0, note=71, velocity=0, time=2),\n",
      "    Message('note_on', channel=0, note=74, velocity=0, time=3),\n",
      "    Message('note_on', channel=0, note=63, velocity=0, time=3),\n",
      "    Message('note_on', channel=0, note=56, velocity=0, time=2),\n",
      "    Message('note_on', channel=0, note=75, velocity=0, time=2),\n",
      "    Message('note_on', channel=0, note=32, velocity=0, time=8),\n",
      "    Message('note_on', channel=0, note=72, velocity=0, time=0),\n",
      "    Message('control_change', channel=0, control=64, value=127, time=123),\n",
      "    Message('note_on', channel=0, note=27, velocity=0, time=630),\n",
      "    Message('note_on', channel=0, note=39, velocity=0, time=27),\n",
      "    Message('control_change', channel=0, control=64, value=0, time=3),\n",
      "    Message('note_on', channel=0, note=67, velocity=0, time=8),\n",
      "    Message('note_on', channel=0, note=67, velocity=43, time=10),\n",
      "    Message('note_on', channel=0, note=84, velocity=81, time=1),\n",
      "    Message('note_on', channel=0, note=60, velocity=45, time=6),\n",
      "    Message('note_on', channel=0, note=72, velocity=54, time=1),\n",
      "    Message('note_on', channel=0, note=55, velocity=38, time=1),\n",
      "    Message('note_on', channel=0, note=51, velocity=39, time=1),\n",
      "    Message('control_change', channel=0, control=64, value=127, time=226),\n",
      "    Message('note_on', channel=0, note=67, velocity=0, time=62),\n",
      "    Message('note_on', channel=0, note=29, velocity=75, time=563),\n",
      "    Message('control_change', channel=0, control=64, value=0, time=50),\n",
      "    Message('note_on', channel=0, note=51, velocity=0, time=12),\n",
      "    Message('note_on', channel=0, note=55, velocity=0, time=20),\n",
      "    Message('note_on', channel=0, note=60, velocity=0, time=15),\n",
      "    Message('note_on', channel=0, note=72, velocity=0, time=62),\n",
      "    Message('control_change', channel=0, control=64, value=127, time=15),\n",
      "    Message('note_on', channel=0, note=83, velocity=82, time=240),\n",
      "    Message('note_on', channel=0, note=82, velocity=77, time=276),\n",
      "    Message('note_on', channel=0, note=84, velocity=0, time=45),\n",
      "    Message('note_on', channel=0, note=81, velocity=80, time=150),\n",
      "    Message('note_on', channel=0, note=80, velocity=76, time=187),\n",
      "    Message('note_on', channel=0, note=61, velocity=39, time=29),\n",
      "    Message('note_on', channel=0, note=49, velocity=36, time=4),\n",
      "    Message('note_on', channel=0, note=49, velocity=0, time=6),\n",
      "    Message('note_on', channel=0, note=56, velocity=41, time=11),\n",
      "    Message('note_on', channel=0, note=77, velocity=76, time=171),\n",
      "    Message('note_on', channel=0, note=68, velocity=71, time=180),\n",
      "    Message('note_on', channel=0, note=73, velocity=78, time=174),\n",
      "    Message('note_on', channel=0, note=64, velocity=71, time=170),\n",
      "    Message('note_on', channel=0, note=83, velocity=0, time=9),\n",
      "    Message('note_on', channel=0, note=29, velocity=0, time=1),\n",
      "    Message('note_on', channel=0, note=68, velocity=0, time=1),\n",
      "    Message('note_on', channel=0, note=82, velocity=0, time=0),\n",
      "    Message('note_on', channel=0, note=80, velocity=0, time=1),\n",
      "    Message('note_on', channel=0, note=77, velocity=0, time=0),\n",
      "    Message('note_on', channel=0, note=81, velocity=0, time=1),\n",
      "    Message('control_change', channel=0, control=64, value=0, time=1),\n",
      "    Message('note_on', channel=0, note=56, velocity=0, time=0),\n",
      "    Message('note_on', channel=0, note=31, velocity=43, time=9),\n",
      "    Message('note_on', channel=0, note=61, velocity=0, time=85),\n",
      "    Message('control_change', channel=0, control=64, value=127, time=23),\n",
      "    Message('note_on', channel=0, note=72, velocity=80, time=132),\n",
      "    Message('note_on', channel=0, note=75, velocity=77, time=184),\n",
      "    Message('note_on', channel=0, note=73, velocity=0, time=14),\n",
      "    Message('note_on', channel=0, note=73, velocity=72, time=11),\n",
      "    Message('note_on', channel=0, note=72, velocity=0, time=158),\n",
      "    Message('note_on', channel=0, note=72, velocity=80, time=11),\n",
      "    Message('note_on', channel=0, note=75, velocity=0, time=166),\n",
      "    Message('note_on', channel=0, note=75, velocity=77, time=4),\n",
      "    Message('note_on', channel=0, note=60, velocity=49, time=6),\n",
      "    Message('note_on', channel=0, note=58, velocity=51, time=9),\n",
      "    Message('note_on', channel=0, note=52, velocity=45, time=0),\n",
      "    Message('note_on', channel=0, note=31, velocity=0, time=1),\n",
      "    Message('control_change', channel=0, control=64, value=0, time=6),\n",
      "    Message('note_on', channel=0, note=73, velocity=0, time=1),\n",
      "    Message('note_on', channel=0, note=64, velocity=0, time=1),\n",
      "    Message('note_on', channel=0, note=72, velocity=0, time=6),\n",
      "    Message('control_change', channel=0, control=64, value=127, time=142),\n",
      "    Message('note_on', channel=0, note=76, velocity=81, time=42),\n",
      "    Message('note_on', channel=0, note=80, velocity=78, time=218),\n",
      "    Message('note_on', channel=0, note=79, velocity=79, time=244),\n",
      "    Message('note_on', channel=0, note=65, velocity=69, time=229),\n",
      "    Message('note_on', channel=0, note=80, velocity=0, time=1),\n",
      "    Message('control_change', channel=0, control=64, value=0, time=1),\n",
      "    Message('note_on', channel=0, note=52, velocity=0, time=0),\n",
      "    Message('note_on', channel=0, note=75, velocity=0, time=0),\n",
      "    Message('note_on', channel=0, note=76, velocity=0, time=0),\n",
      "    Message('note_on', channel=0, note=58, velocity=0, time=1),\n",
      "    Message('note_on', channel=0, note=60, velocity=0, time=0),\n",
      "    Message('note_on', channel=0, note=44, velocity=50, time=13),\n",
      "    Message('note_on', channel=0, note=32, velocity=49, time=1),\n",
      "    Message('control_change', channel=0, control=64, value=127, time=134),\n",
      "    Message('note_on', channel=0, note=72, velocity=79, time=149),\n",
      "    Message('note_on', channel=0, note=79, velocity=0, time=166),\n",
      "    Message('note_on', channel=0, note=77, velocity=82, time=92),\n",
      "    Message('note_on', channel=0, note=79, velocity=88, time=215),\n",
      "    Message('note_on', channel=0, note=82, velocity=79, time=201),\n",
      "    Message('note_on', channel=0, note=60, velocity=53, time=10),\n",
      "    Message('note_on', channel=0, note=53, velocity=39, time=4),\n",
      "    Message('note_on', channel=0, note=80, velocity=81, time=196),\n",
      "    Message('note_on', channel=0, note=72, velocity=0, time=188),\n",
      "    Message('note_on', channel=0, note=72, velocity=79, time=9),\n",
      "    Message('note_on', channel=0, note=74, velocity=84, time=198),\n",
      "    Message('control_change', channel=0, control=64, value=0, time=190),\n",
      "    Message('note_on', channel=0, note=82, velocity=0, time=1),\n",
      "    Message('note_on', channel=0, note=53, velocity=0, time=1),\n",
      "    Message('note_on', channel=0, note=44, velocity=0, time=0),\n",
      "    Message('note_on', channel=0, note=79, velocity=0, time=0),\n",
      "    Message('note_on', channel=0, note=80, velocity=0, time=1),\n",
      "    Message('note_on', channel=0, note=60, velocity=0, time=0),\n",
      "    Message('note_on', channel=0, note=65, velocity=0, time=0),\n",
      "    Message('note_on', channel=0, note=74, velocity=0, time=0),\n",
      "    Message('note_on', channel=0, note=77, velocity=0, time=1),\n",
      "    Message('note_on', channel=0, note=32, velocity=0, time=13),\n",
      "    Message('note_on', channel=0, note=72, velocity=0, time=0),\n",
      "    Message('note_on', channel=0, note=75, velocity=85, time=13),\n",
      "    Message('note_on', channel=0, note=31, velocity=60, time=13),\n",
      "    Message('note_on', channel=0, note=43, velocity=59, time=1),\n",
      "    Message('control_change', channel=0, control=64, value=127, time=158),\n",
      "    Message('control_change', channel=0, control=64, value=0, time=161),\n",
      "    Message('control_change', channel=0, control=64, value=127, time=154),\n",
      "    Message('note_on', channel=0, note=60, velocity=71, time=392),\n",
      "    Message('note_on', channel=0, note=51, velocity=60, time=2),\n",
      "    Message('note_on', channel=0, note=55, velocity=60, time=2),\n",
      "    Message('note_on', channel=0, note=72, velocity=86, time=562),\n",
      "    Message('note_on', channel=0, note=74, velocity=82, time=123),\n",
      "    Message('note_on', channel=0, note=72, velocity=0, time=94),\n",
      "    Message('note_on', channel=0, note=72, velocity=85, time=6),\n",
      "    Message('note_on', channel=0, note=67, velocity=80, time=118),\n",
      "    Message('note_on', channel=0, note=31, velocity=0, time=6),\n",
      "    Message('note_on', channel=0, note=43, velocity=0, time=0),\n",
      "    Message('note_on', channel=0, note=43, velocity=67, time=6),\n",
      "    Message('note_on', channel=0, note=31, velocity=71, time=0),\n",
      "    Message('note_on', channel=0, note=55, velocity=0, time=27),\n",
      "    Message('control_change', channel=0, control=64, value=0, time=1),\n",
      "    Message('note_on', channel=0, note=51, velocity=0, time=0),\n",
      "    Message('note_on', channel=0, note=60, velocity=0, time=0),\n",
      "    Message('note_on', channel=0, note=74, velocity=0, time=0),\n",
      "    Message('note_on', channel=0, note=72, velocity=0, time=1),\n",
      "    Message('note_on', channel=0, note=75, velocity=0, time=2),\n",
      "    Message('control_change', channel=0, control=64, value=127, time=240),\n",
      "    Message('note_on', channel=0, note=59, velocity=81, time=725),\n",
      "    Message('note_on', channel=0, note=55, velocity=69, time=0),\n",
      "    Message('note_on', channel=0, note=50, velocity=66, time=2),\n",
      "    Message('note_on', channel=0, note=67, velocity=0, time=740),\n",
      "    Message('note_on', channel=0, note=67, velocity=88, time=8),\n",
      "    Message('note_on', channel=0, note=68, velocity=85, time=142),\n",
      "    Message('note_on', channel=0, note=67, velocity=0, time=103),\n",
      "    Message('note_on', channel=0, note=67, velocity=78, time=10),\n",
      "    Message('note_on', channel=0, note=60, velocity=88, time=122),\n",
      "    Message('note_on', channel=0, note=36, velocity=88, time=14),\n",
      "    Message('note_on', channel=0, note=24, velocity=89, time=3),\n",
      "    Message('control_change', channel=0, control=64, value=0, time=46),\n",
      "    Message('note_on', channel=0, note=43, velocity=0, time=6),\n",
      "    Message('note_on', channel=0, note=31, velocity=0, time=0),\n",
      "    Message('note_on', channel=0, note=68, velocity=0, time=0),\n",
      "    Message('note_on', channel=0, note=67, velocity=0, time=1),\n",
      "    Message('note_on', channel=0, note=55, velocity=0, time=0),\n",
      "    Message('note_on', channel=0, note=59, velocity=0, time=1),\n",
      "    Message('note_on', channel=0, note=50, velocity=0, time=0),\n",
      "    Message('control_change', channel=0, control=64, value=127, time=219),\n",
      "    Message('control_change', channel=0, control=64, value=0, time=8),\n",
      "    Message('control_change', channel=0, control=64, value=127, time=161),\n",
      "    Message('note_on', channel=0, note=58, velocity=80, time=458),\n",
      "    Message('note_on', channel=0, note=55, velocity=60, time=5),\n",
      "    Message('note_on', channel=0, note=60, velocity=0, time=904),\n",
      "    Message('note_on', channel=0, note=57, velocity=58, time=12),\n",
      "    Message('note_on', channel=0, note=54, velocity=43, time=8),\n",
      "    Message('control_change', channel=0, control=64, value=0, time=54),\n",
      "    Message('note_on', channel=0, note=58, velocity=0, time=11),\n",
      "    Message('control_change', channel=0, control=64, value=127, time=169),\n",
      "    Message('note_on', channel=0, note=55, velocity=0, time=238),\n",
      "    Message('note_on', channel=0, note=24, velocity=0, time=108),\n",
      "    Message('note_on', channel=0, note=54, velocity=0, time=360),\n",
      "    Message('note_on', channel=0, note=53, velocity=34, time=183),\n",
      "    Message('note_on', channel=0, note=56, velocity=42, time=8),\n",
      "    Message('control_change', channel=0, control=64, value=0, time=48),\n",
      "    Message('control_change', channel=0, control=64, value=127, time=138),\n",
      "    Message('note_on', channel=0, note=57, velocity=0, time=7),\n",
      "    Message('note_on', channel=0, note=64, velocity=39, time=1405),\n",
      "    Message('note_on', channel=0, note=36, velocity=0, time=9),\n",
      "    Message('note_on', channel=0, note=52, velocity=30, time=6),\n",
      "    Message('note_on', channel=0, note=48, velocity=28, time=4),\n",
      "    Message('note_on', channel=0, note=55, velocity=25, time=0),\n",
      "    Message('note_on', channel=0, note=36, velocity=29, time=0),\n",
      "    Message('control_change', channel=0, control=64, value=0, time=50),\n",
      "    Message('note_on', channel=0, note=56, velocity=0, time=15),\n",
      "    Message('note_on', channel=0, note=53, velocity=0, time=1),\n",
      "    Message('control_change', channel=0, control=64, value=127, time=238),\n",
      "    Message('note_on', channel=0, note=62, velocity=38, time=1197),\n",
      "    Message('note_on', channel=0, note=31, velocity=30, time=7),\n",
      "    Message('note_on', channel=0, note=59, velocity=30, time=6),\n",
      "    Message('note_on', channel=0, note=43, velocity=26, time=0),\n",
      "    Message('note_on', channel=0, note=53, velocity=24, time=1),\n",
      "    Message('note_on', channel=0, note=64, velocity=0, time=21),\n",
      "    Message('note_on', channel=0, note=52, velocity=0, time=0),\n",
      "    Message('control_change', channel=0, control=64, value=0, time=8),\n",
      "    Message('note_on', channel=0, note=36, velocity=0, time=12),\n",
      "    Message('note_on', channel=0, note=48, velocity=0, time=0),\n",
      "    Message('control_change', channel=0, control=64, value=127, time=162),\n",
      "    Message('note_on', channel=0, note=59, velocity=0, time=483),\n",
      "    Message('note_on', channel=0, note=64, velocity=47, time=3),\n",
      "    Message('note_on', channel=0, note=59, velocity=29, time=4),\n",
      "    Message('note_on', channel=0, note=43, velocity=0, time=9),\n",
      "    Message('note_on', channel=0, note=43, velocity=26, time=4),\n",
      "    Message('note_on', channel=0, note=55, velocity=0, time=19),\n",
      "    Message('note_on', channel=0, note=55, velocity=14, time=5),\n",
      "    Message('note_on', channel=0, note=31, velocity=0, time=9),\n",
      "    Message('note_on', channel=0, note=53, velocity=0, time=3),\n",
      "    Message('note_on', channel=0, note=62, velocity=0, time=1),\n",
      "    Message('control_change', channel=0, control=64, value=0, time=6),\n",
      "    Message('control_change', channel=0, control=64, value=127, time=91),\n",
      "    Message('note_on', channel=0, note=65, velocity=45, time=482),\n",
      "    Message('note_on', channel=0, note=43, velocity=0, time=10),\n",
      "    Message('note_on', channel=0, note=59, velocity=0, time=0),\n",
      "    Message('note_on', channel=0, note=59, velocity=35, time=6),\n",
      "    Message('note_on', channel=0, note=43, velocity=29, time=0),\n",
      "    Message('note_on', channel=0, note=55, velocity=0, time=1),\n",
      "    Message('note_on', channel=0, note=53, velocity=25, time=3),\n",
      "    Message('note_on', channel=0, note=55, velocity=23, time=3),\n",
      "    Message('control_change', channel=0, control=64, value=0, time=56),\n",
      "    Message('note_on', channel=0, note=64, velocity=0, time=76),\n",
      "    Message('note_on', channel=0, note=64, velocity=50, time=12),\n",
      "    Message('note_on', channel=0, note=59, velocity=0, time=16),\n",
      "    Message('note_on', channel=0, note=65, velocity=0, time=1),\n",
      "    Message('note_on', channel=0, note=60, velocity=33, time=5),\n",
      "    Message('note_on', channel=0, note=48, velocity=25, time=2),\n",
      "    Message('note_on', channel=0, note=53, velocity=0, time=3),\n",
      "    Message('note_on', channel=0, note=55, velocity=0, time=0),\n",
      "    Message('note_on', channel=0, note=36, velocity=22, time=1),\n",
      "    Message('note_on', channel=0, note=52, velocity=25, time=4),\n",
      "    Message('note_on', channel=0, note=55, velocity=17, time=5),\n",
      "    Message('control_change', channel=0, control=64, value=127, time=151),\n",
      "    Message('control_change', channel=0, control=64, value=0, time=16),\n",
      "    Message('control_change', channel=0, control=64, value=127, time=84),\n",
      "    Message('note_on', channel=0, note=55, velocity=0, time=484),\n",
      "    Message('note_on', channel=0, note=52, velocity=0, time=8),\n",
      "    Message('note_on', channel=0, note=55, velocity=34, time=3),\n",
      "    Message('note_on', channel=0, note=52, velocity=32, time=8),\n",
      "    Message('note_on', channel=0, note=36, velocity=0, time=4),\n",
      "    Message('note_on', channel=0, note=36, velocity=30, time=11),\n",
      "    Message('control_change', channel=0, control=64, value=0, time=53),\n",
      "    Message('control_change', channel=0, control=64, value=127, time=20),\n",
      "    Message('note_on', channel=0, note=60, velocity=0, time=653),\n",
      "    Message('note_on', channel=0, note=60, velocity=39, time=6),\n",
      "    Message('note_on', channel=0, note=52, velocity=0, time=10),\n",
      "    Message('note_on', channel=0, note=55, velocity=0, time=0),\n",
      "    Message('note_on', channel=0, note=55, velocity=25, time=5),\n",
      "    Message('note_on', channel=0, note=52, velocity=27, time=2),\n",
      "    Message('note_on', channel=0, note=36, velocity=0, time=0),\n",
      "    Message('note_on', channel=0, note=43, velocity=0, time=0),\n",
      "    Message('note_on', channel=0, note=48, velocity=0, time=0),\n",
      "    Message('note_on', channel=0, note=43, velocity=23, time=5),\n",
      "    Message('note_on', channel=0, note=36, velocity=24, time=0),\n",
      "    Message('note_on', channel=0, note=48, velocity=26, time=4),\n",
      "    Message('note_on', channel=0, note=64, velocity=0, time=752),\n",
      "    Message('note_on', channel=0, note=64, velocity=50, time=7),\n",
      "    Message('note_on', channel=0, note=36, velocity=0, time=16),\n",
      "    Message('note_on', channel=0, note=48, velocity=0, time=0),\n",
      "    Message('note_on', channel=0, note=55, velocity=0, time=0),\n",
      "    Message('note_on', channel=0, note=60, velocity=0, time=0),\n",
      "    Message('note_on', channel=0, note=55, velocity=25, time=5),\n",
      "    Message('note_on', channel=0, note=48, velocity=25, time=5),\n",
      "    Message('note_on', channel=0, note=36, velocity=25, time=0),\n",
      "    Message('note_on', channel=0, note=60, velocity=19, time=1),\n",
      "    Message('note_on', channel=0, note=67, velocity=51, time=898),\n",
      "    Message('note_on', channel=0, note=43, velocity=0, time=12),\n",
      "    Message('note_on', channel=0, note=52, velocity=0, time=0),\n",
      "    Message('note_on', channel=0, note=60, velocity=0, time=0),\n",
      "    Message('note_on', channel=0, note=52, velocity=29, time=5),\n",
      "    Message('note_on', channel=0, note=60, velocity=33, time=2),\n",
      "    Message('note_on', channel=0, note=36, velocity=0, time=1),\n",
      "    Message('note_on', channel=0, note=55, velocity=0, time=0),\n",
      "    Message('note_on', channel=0, note=43, velocity=25, time=3),\n",
      "    Message('note_on', channel=0, note=36, velocity=25, time=2),\n",
      "    Message('note_on', channel=0, note=55, velocity=27, time=6),\n",
      "    Message('control_change', channel=0, control=64, value=0, time=43),\n",
      "    Message('control_change', channel=0, control=64, value=127, time=15),\n",
      "    Message('note_on', channel=0, note=64, velocity=0, time=1421),\n",
      "    Message('note_on', channel=0, note=64, velocity=47, time=4),\n",
      "    Message('note_on', channel=0, note=60, velocity=0, time=3),\n",
      "    Message('note_on', channel=0, note=60, velocity=30, time=4),\n",
      "    Message('note_on', channel=0, note=57, velocity=33, time=8),\n",
      "    Message('note_on', channel=0, note=52, velocity=0, time=4),\n",
      "    Message('note_on', channel=0, note=52, velocity=27, time=4),\n",
      "    Message('note_on', channel=0, note=45, velocity=32, time=4),\n",
      "    Message('note_on', channel=0, note=48, velocity=0, time=34),\n",
      "    Message('control_change', channel=0, control=64, value=0, time=1),\n",
      "    Message('note_on', channel=0, note=67, velocity=0, time=1),\n",
      "    Message('note_on', channel=0, note=36, velocity=0, time=1),\n",
      "    Message('note_on', channel=0, note=43, velocity=0, time=3),\n",
      "    Message('note_on', channel=0, note=55, velocity=0, time=13),\n",
      "    Message('control_change', channel=0, control=64, value=127, time=162),\n",
      "    Message('note_on', channel=0, note=64, velocity=0, time=483),\n",
      "    Message('note_on', channel=0, note=64, velocity=38, time=11),\n",
      "    Message('note_on', channel=0, note=52, velocity=0, time=66),\n",
      "    Message('note_on', channel=0, note=57, velocity=0, time=0),\n",
      "    Message('note_on', channel=0, note=45, velocity=0, time=8),\n",
      "    Message('note_on', channel=0, note=57, velocity=35, time=2),\n",
      "    Message('note_on', channel=0, note=62, velocity=37, time=0),\n",
      "    Message('note_on', channel=0, note=52, velocity=31, time=1),\n",
      "    Message('note_on', channel=0, note=45, velocity=29, time=8),\n",
      "    Message('note_on', channel=0, note=33, velocity=27, time=1),\n",
      "    Message('note_on', channel=0, note=64, velocity=0, time=24),\n",
      "    Message('control_change', channel=0, control=64, value=0, time=3),\n",
      "    Message('note_on', channel=0, note=60, velocity=0, time=22),\n",
      "    Message('control_change', channel=0, control=64, value=127, time=123),\n",
      "    Message('note_on', channel=0, note=60, velocity=47, time=585),\n",
      "    Message('note_on', channel=0, note=57, velocity=0, time=7),\n",
      "    Message('note_on', channel=0, note=33, velocity=0, time=7),\n",
      "    Message('note_on', channel=0, note=52, velocity=0, time=0),\n",
      "    Message('note_on', channel=0, note=57, velocity=41, time=2),\n",
      "    Message('note_on', channel=0, note=52, velocity=37, time=2),\n",
      "    Message('note_on', channel=0, note=45, velocity=0, time=4),\n",
      "    Message('note_on', channel=0, note=33, velocity=33, time=3),\n",
      "    Message('note_on', channel=0, note=45, velocity=34, time=1),\n",
      "    Message('note_on', channel=0, note=60, velocity=0, time=149),\n",
      "    Message('note_on', channel=0, note=62, velocity=0, time=0),\n",
      "    Message('note_on', channel=0, note=62, velocity=45, time=7),\n",
      "    Message('note_on', channel=0, note=60, velocity=34, time=0),\n",
      "    Message('note_on', channel=0, note=57, velocity=0, time=1),\n",
      "    Message('note_on', channel=0, note=57, velocity=32, time=10),\n",
      "    Message('note_on', channel=0, note=54, velocity=29, time=1),\n",
      "    Message('note_on', channel=0, note=38, velocity=26, time=8),\n",
      "    Message('note_on', channel=0, note=50, velocity=26, time=0),\n",
      "    Message('control_change', channel=0, control=64, value=0, time=3),\n",
      "    Message('note_on', channel=0, note=52, velocity=0, time=5),\n",
      "    Message('note_on', channel=0, note=33, velocity=0, time=12),\n",
      "    Message('control_change', channel=0, control=64, value=127, time=376),\n",
      "    Message('note_on', channel=0, note=62, velocity=0, time=1137),\n",
      "    Message('note_on', channel=0, note=62, velocity=28, time=4),\n",
      "    Message('note_on', channel=0, note=59, velocity=34, time=19),\n",
      "    Message('note_on', channel=0, note=55, velocity=25, time=4),\n",
      "    Message('note_on', channel=0, note=50, velocity=0, time=11),\n",
      "    Message('note_on', channel=0, note=50, velocity=21, time=5),\n",
      "    Message('note_on', channel=0, note=31, velocity=27, time=1),\n",
      "    Message('note_on', channel=0, note=43, velocity=25, time=1),\n",
      "    Message('control_change', channel=0, control=64, value=0, time=26),\n",
      "    Message('note_on', channel=0, note=54, velocity=0, time=16),\n",
      "    Message('note_on', channel=0, note=45, velocity=0, time=3),\n",
      "    Message('note_on', channel=0, note=38, velocity=0, time=1),\n",
      "    Message('note_on', channel=0, note=57, velocity=0, time=8),\n",
      "    Message('note_on', channel=0, note=60, velocity=0, time=0),\n",
      "    Message('control_change', channel=0, control=64, value=127, time=162),\n",
      "    Message('note_on', channel=0, note=31, velocity=0, time=599),\n",
      "    Message('note_on', channel=0, note=55, velocity=0, time=46),\n",
      "    Message('note_on', channel=0, note=59, velocity=0, time=0),\n",
      "    Message('note_on', channel=0, note=59, velocity=36, time=4),\n",
      "    Message('note_on', channel=0, note=67, velocity=37, time=2),\n",
      "    Message('note_on', channel=0, note=55, velocity=31, time=2),\n",
      "    Message('note_on', channel=0, note=65, velocity=36, time=6),\n",
      "    Message('note_on', channel=0, note=43, velocity=0, time=1),\n",
      "    Message('note_on', channel=0, note=53, velocity=29, time=3),\n",
      "    Message('note_on', channel=0, note=63, velocity=30, time=2),\n",
      "    Message('note_on', channel=0, note=43, velocity=27, time=5),\n",
      "    Message('control_change', channel=0, control=64, value=0, time=19),\n",
      "    Message('note_on', channel=0, note=50, velocity=0, time=8),\n",
      "    Message('note_on', channel=0, note=62, velocity=0, time=17),\n",
      "    Message('control_change', channel=0, control=64, value=127, time=138),\n",
      "    Message('control_change', channel=0, control=64, value=0, time=642),\n",
      "    Message('note_on', channel=0, note=65, velocity=0, time=6),\n",
      "    Message('note_on', channel=0, note=67, velocity=0, time=0),\n",
      "    Message('note_on', channel=0, note=53, velocity=0, time=1),\n",
      "    Message('note_on', channel=0, note=63, velocity=0, time=0),\n",
      "    Message('note_on', channel=0, note=55, velocity=0, time=12),\n",
      "    Message('note_on', channel=0, note=59, velocity=0, time=0),\n",
      "    Message('note_on', channel=0, note=36, velocity=40, time=26),\n",
      "    Message('note_on', channel=0, note=43, velocity=0, time=43),\n",
      "    Message('control_change', channel=0, control=64, value=127, time=15),\n",
      "    Message('note_on', channel=0, note=43, velocity=21, time=69),\n",
      "    Message('note_on', channel=0, note=48, velocity=36, time=74),\n",
      "    Message('note_on', channel=0, note=76, velocity=45, time=69),\n",
      "    Message('note_on', channel=0, note=67, velocity=36, time=10),\n",
      "    Message('note_on', channel=0, note=55, velocity=35, time=12),\n",
      "    Message('note_on', channel=0, note=64, velocity=38, time=1),\n",
      "    Message('note_on', channel=0, note=36, velocity=0, time=1217),\n",
      "    Message('note_on', channel=0, note=36, velocity=39, time=9),\n",
      "    Message('note_on', channel=0, note=43, velocity=0, time=67),\n",
      "    Message('note_on', channel=0, note=43, velocity=37, time=9),\n",
      "    Message('note_on', channel=0, note=74, velocity=49, time=157),\n",
      "    Message('note_on', channel=0, note=67, velocity=0, time=3),\n",
      "    Message('note_on', channel=0, note=62, velocity=38, time=6),\n",
      "    Message('note_on', channel=0, note=67, velocity=36, time=1),\n",
      "    Message('note_on', channel=0, note=55, velocity=0, time=1),\n",
      "    Message('note_on', channel=0, note=53, velocity=29, time=4),\n",
      "    Message('note_on', channel=0, note=55, velocity=33, time=1),\n",
      "    Message('note_on', channel=0, note=36, velocity=0, time=579),\n",
      "    Message('note_on', channel=0, note=36, velocity=24, time=4),\n",
      "    Message('note_on', channel=0, note=43, velocity=0, time=65),\n",
      "    Message('note_on', channel=0, note=43, velocity=35, time=9),\n",
      "    Message('note_on', channel=0, note=76, velocity=0, time=83),\n",
      "    Message('note_on', channel=0, note=43, velocity=0, time=8),\n",
      "    Message('note_on', channel=0, note=64, velocity=0, time=0),\n",
      "    Message('note_on', channel=0, note=67, velocity=0, time=0),\n",
      "    Message('note_on', channel=0, note=76, velocity=52, time=1),\n",
      "    Message('note_on', channel=0, note=72, velocity=43, time=4),\n",
      "    Message('note_on', channel=0, note=67, velocity=42, time=1),\n",
      "    Message('note_on', channel=0, note=64, velocity=47, time=2),\n",
      "    Message('note_on', channel=0, note=43, velocity=30, time=3),\n",
      "    Message('note_on', channel=0, note=55, velocity=0, time=4),\n",
      "    Message('note_on', channel=0, note=55, velocity=30, time=5),\n",
      "    Message('note_on', channel=0, note=36, velocity=0, time=233),\n",
      "    Message('note_on', channel=0, note=36, velocity=45, time=4),\n",
      "    Message('note_on', channel=0, note=77, velocity=55, time=170),\n",
      "    Message('note_on', channel=0, note=62, velocity=0, time=3),\n",
      "    Message('note_on', channel=0, note=74, velocity=0, time=3),\n",
      "    Message('note_on', channel=0, note=71, velocity=43, time=5),\n",
      "    Message('note_on', channel=0, note=62, velocity=36, time=3),\n",
      "    Message('note_on', channel=0, note=65, velocity=42, time=2),\n",
      "    Message('note_on', channel=0, note=43, velocity=0, time=2),\n",
      "    Message('note_on', channel=0, note=55, velocity=0, time=0),\n",
      "    Message('note_on', channel=0, note=43, velocity=32, time=4),\n",
      "    Message('note_on', channel=0, note=50, velocity=40, time=1),\n",
      "    Message('note_on', channel=0, note=55, velocity=35, time=1),\n",
      "    Message('note_on', channel=0, note=43, velocity=0, time=370),\n",
      "    Message('note_on', channel=0, note=43, velocity=39, time=7),\n",
      "    Message('note_on', channel=0, note=48, velocity=0, time=47),\n",
      "    Message('note_on', channel=0, note=76, velocity=0, time=0),\n",
      "    Message('note_on', channel=0, note=64, velocity=0, time=8),\n",
      "    Message('note_on', channel=0, note=67, velocity=0, time=0),\n",
      "    Message('note_on', channel=0, note=72, velocity=0, time=0),\n",
      "    Message('note_on', channel=0, note=48, velocity=37, time=1),\n",
      "    Message('note_on', channel=0, note=76, velocity=57, time=0),\n",
      "    Message('note_on', channel=0, note=64, velocity=49, time=5),\n",
      "    Message('note_on', channel=0, note=67, velocity=41, time=1),\n",
      "    Message('note_on', channel=0, note=72, velocity=47, time=4),\n",
      "    Message('control_change', channel=0, control=64, value=0, time=3),\n",
      "    Message('note_on', channel=0, note=71, velocity=0, time=0),\n",
      "    Message('note_on', channel=0, note=65, velocity=0, time=0),\n",
      "    Message('note_on', channel=0, note=62, velocity=0, time=1),\n",
      "    Message('note_on', channel=0, note=50, velocity=0, time=2),\n",
      "    Message('note_on', channel=0, note=77, velocity=0, time=0),\n",
      "    Message('note_on', channel=0, note=53, velocity=0, time=0),\n",
      "    Message('note_on', channel=0, note=55, velocity=0, time=21),\n",
      "    Message('note_on', channel=0, note=55, velocity=36, time=8),\n",
      "    Message('control_change', channel=0, control=64, value=127, time=246),\n",
      "    Message('note_on', channel=0, note=67, velocity=0, time=484),\n",
      "    Message('note_on', channel=0, note=67, velocity=42, time=10),\n",
      "    Message('note_on', channel=0, note=43, velocity=0, time=5),\n",
      "    Message('note_on', channel=0, note=55, velocity=0, time=0),\n",
      "    Message('note_on', channel=0, note=64, velocity=0, time=0),\n",
      "    Message('note_on', channel=0, note=36, velocity=0, time=8),\n",
      "    Message('note_on', channel=0, note=64, velocity=37, time=2),\n",
      "    Message('note_on', channel=0, note=43, velocity=33, time=1),\n",
      "    Message('note_on', channel=0, note=55, velocity=35, time=0),\n",
      "    Message('note_on', channel=0, note=60, velocity=27, time=2),\n",
      "    Message('note_on', channel=0, note=36, velocity=33, time=1),\n",
      "    Message('note_on', channel=0, note=52, velocity=34, time=0),\n",
      "    Message('control_change', channel=0, control=64, value=0, time=2),\n",
      "    Message('control_change', channel=0, control=64, value=127, time=53),\n",
      "    Message('note_on', channel=0, note=60, velocity=0, time=822),\n",
      "    Message('note_on', channel=0, note=64, velocity=0, time=0),\n",
      "    Message('note_on', channel=0, note=72, velocity=0, time=0),\n",
      "    Message('note_on', channel=0, note=72, velocity=47, time=5),\n",
      "    Message('note_on', channel=0, note=64, velocity=44, time=2),\n",
      "    Message('note_on', channel=0, note=69, velocity=40, time=2),\n",
      "    Message('note_on', channel=0, note=57, velocity=39, time=1),\n",
      "    Message('note_on', channel=0, note=60, velocity=41, time=1),\n",
      "    Message('note_on', channel=0, note=57, velocity=0, time=4),\n",
      "    Message('note_on', channel=0, note=52, velocity=0, time=8),\n",
      "    Message('control_change', channel=0, control=64, value=0, time=2),\n",
      "    Message('note_on', channel=0, note=36, velocity=0, time=1),\n",
      "    Message('note_on', channel=0, note=55, velocity=0, time=1),\n",
      "    Message('note_on', channel=0, note=45, velocity=34, time=0),\n",
      "    Message('note_on', channel=0, note=52, velocity=35, time=0),\n",
      "    Message('note_on', channel=0, note=48, velocity=0, time=19),\n",
      "    Message('note_on', channel=0, note=76, velocity=0, time=0),\n",
      "    Message('note_on', channel=0, note=43, velocity=0, time=8),\n",
      "    Message('note_on', channel=0, note=67, velocity=0, time=0),\n",
      "    Message('control_change', channel=0, control=64, value=127, time=161),\n",
      "    Message('note_on', channel=0, note=40, velocity=29, time=538),\n",
      "    Message('note_on', channel=0, note=52, velocity=0, time=3),\n",
      "    Message('note_on', channel=0, note=45, velocity=0, time=0),\n",
      "    Message('note_on', channel=0, note=69, velocity=0, time=2),\n",
      "    Message('control_change', channel=0, control=64, value=0, time=0),\n",
      "    Message('note_on', channel=0, note=72, velocity=0, time=2),\n",
      "    Message('note_on', channel=0, note=60, velocity=0, time=8),\n",
      "    Message('note_on', channel=0, note=64, velocity=0, time=15),\n",
      "    Message('control_change', channel=0, control=64, value=127, time=39),\n",
      "    Message('note_on', channel=0, note=52, velocity=35, time=32),\n",
      "    Message('note_on', channel=0, note=76, velocity=45, time=121),\n",
      "    Message('note_on', channel=0, note=64, velocity=38, time=2),\n",
      "    Message('note_on', channel=0, note=67, velocity=26, time=15),\n",
      "    Message('note_on', channel=0, note=71, velocity=41, time=4),\n",
      "    Message('note_on', channel=0, note=59, velocity=48, time=0),\n",
      "    Message('note_on', channel=0, note=36, velocity=37, time=790),\n",
      "    Message('control_change', channel=0, control=64, value=0, time=21),\n",
      "    Message('note_on', channel=0, note=40, velocity=0, time=2),\n",
      "    Message('note_on', channel=0, note=52, velocity=0, time=1),\n",
      "    Message('note_on', channel=0, note=59, velocity=0, time=0),\n",
      "    Message('note_on', channel=0, note=67, velocity=0, time=1),\n",
      "    Message('note_on', channel=0, note=64, velocity=0, time=3),\n",
      "    Message('note_on', channel=0, note=71, velocity=0, time=1),\n",
      "    Message('note_on', channel=0, note=76, velocity=0, time=0),\n",
      "    Message('note_on', channel=0, note=43, velocity=35, time=55),\n",
      "    Message('control_change', channel=0, control=64, value=127, time=27),\n",
      "    Message('note_on', channel=0, note=36, velocity=0, time=4),\n",
      "    Message('note_on', channel=0, note=48, velocity=33, time=57),\n",
      "    Message('note_on', channel=0, note=52, velocity=46, time=94),\n",
      "    Message('note_on', channel=0, note=55, velocity=34, time=78),\n",
      "    Message('note_on', channel=0, note=60, velocity=51, time=65),\n",
      "    Message('note_on', channel=0, note=64, velocity=45, time=16),\n",
      "    Message('note_on', channel=0, note=67, velocity=43, time=73),\n",
      "    Message('note_on', channel=0, note=43, velocity=0, time=20),\n",
      "    Message('note_on', channel=0, note=72, velocity=49, time=44),\n",
      "    Message('note_on', channel=0, note=76, velocity=42, time=78),\n",
      "    Message('note_on', channel=0, note=79, velocity=51, time=71),\n",
      "    Message('note_on', channel=0, note=40, velocity=25, time=1431),\n",
      "    Message('note_on', channel=0, note=35, velocity=25, time=69),\n",
      "    Message('note_on', channel=0, note=35, velocity=0, time=4),\n",
      "    Message('note_on', channel=0, note=64, velocity=0, time=8),\n",
      "    Message('note_on', channel=0, note=47, velocity=27, time=3),\n",
      "    Message('note_on', channel=0, note=64, velocity=43, time=1),\n",
      "    Message('note_on', channel=0, note=76, velocity=0, time=19),\n",
      "    Message('note_on', channel=0, note=55, velocity=0, time=6),\n",
      "    Message('note_on', channel=0, note=76, velocity=50, time=1),\n",
      "    Message('note_on', channel=0, note=56, velocity=37, time=1),\n",
      "    Message('note_on', channel=0, note=72, velocity=0, time=3),\n",
      "    Message('note_on', channel=0, note=68, velocity=39, time=3),\n",
      "    Message('note_on', channel=0, note=71, velocity=36, time=7),\n",
      "    Message('control_change', channel=0, control=64, value=0, time=27),\n",
      "    Message('control_change', channel=0, control=64, value=127, time=90),\n",
      "    Message('note_on', channel=0, note=67, velocity=0, time=461),\n",
      "    Message('note_on', channel=0, note=60, velocity=0, time=284),\n",
      "    Message('note_on', channel=0, note=57, velocity=32, time=7),\n",
      "    Message('note_on', channel=0, note=74, velocity=41, time=2),\n",
      "    Message('note_on', channel=0, note=60, velocity=30, time=0),\n",
      "    Message('note_on', channel=0, note=62, velocity=35, time=2),\n",
      "    Message('note_on', channel=0, note=69, velocity=32, time=3),\n",
      "    Message('control_change', channel=0, control=64, value=0, time=6),\n",
      "    Message('note_on', channel=0, note=50, velocity=25, time=0),\n",
      "    Message('note_on', channel=0, note=41, velocity=29, time=3),\n",
      "    Message('note_on', channel=0, note=79, velocity=0, time=0),\n",
      "    Message('note_on', channel=0, note=40, velocity=0, time=7),\n",
      "    Message('note_on', channel=0, note=48, velocity=0, time=1),\n",
      "    Message('note_on', channel=0, note=68, velocity=0, time=0),\n",
      "    Message('note_on', channel=0, note=71, velocity=0, time=0),\n",
      "    Message('note_on', channel=0, note=56, velocity=0, time=1),\n",
      "    Message('note_on', channel=0, note=64, velocity=0, time=0),\n",
      "    Message('note_on', channel=0, note=76, velocity=0, time=1),\n",
      "    Message('note_on', channel=0, note=52, velocity=0, time=1),\n",
      "    Message('note_on', channel=0, note=47, velocity=0, time=4),\n",
      "    Message('control_change', channel=0, control=64, value=127, time=123),\n",
      "    Message('note_on', channel=0, note=59, velocity=44, time=625),\n",
      "    Message('note_on', channel=0, note=67, velocity=42, time=2),\n",
      "    Message('control_change', channel=0, control=64, value=0, time=1),\n",
      "    Message('note_on', channel=0, note=50, velocity=0, time=2),\n",
      "    Message('note_on', channel=0, note=57, velocity=0, time=1),\n",
      "    Message('note_on', channel=0, note=69, velocity=0, time=2),\n",
      "    Message('note_on', channel=0, note=55, velocity=32, time=0),\n",
      "    Message('note_on', channel=0, note=74, velocity=0, time=1),\n",
      "    Message('note_on', channel=0, note=62, velocity=0, time=0),\n",
      "    Message('note_on', channel=0, note=41, velocity=0, time=0),\n",
      "    Message('note_on', channel=0, note=43, velocity=27, time=3),\n",
      "    Message('note_on', channel=0, note=55, velocity=0, time=1),\n",
      "    Message('note_on', channel=0, note=50, velocity=23, time=3),\n",
      "    Message('note_on', channel=0, note=65, velocity=24, time=2),\n",
      "    Message('note_on', channel=0, note=60, velocity=0, time=10),\n",
      "    Message('control_change', channel=0, control=64, value=127, time=92),\n",
      "    Message('note_on', channel=0, note=59, velocity=0, time=8),\n",
      "    Message('note_on', channel=0, note=59, velocity=62, time=5),\n",
      "    Message('note_on', channel=0, note=67, velocity=0, time=149),\n",
      "    Message('note_on', channel=0, note=74, velocity=60, time=4),\n",
      "    Message('note_on', channel=0, note=67, velocity=38, time=5),\n",
      "    Message('note_on', channel=0, note=59, velocity=0, time=14),\n",
      "    Message('control_change', channel=0, control=64, value=0, time=7),\n",
      "    Message('note_on', channel=0, note=59, velocity=38, time=1),\n",
      "    Message('control_change', channel=0, control=64, value=127, time=84),\n",
      "    Message('note_on', channel=0, note=65, velocity=0, time=284),\n",
      "    Message('note_on', channel=0, note=31, velocity=35, time=511),\n",
      "    Message('note_on', channel=0, note=31, velocity=0, time=804),\n",
      "    Message('note_on', channel=0, note=50, velocity=0, time=1),\n",
      "    Message('note_on', channel=0, note=74, velocity=0, time=0),\n",
      "    Message('note_on', channel=0, note=67, velocity=0, time=0),\n",
      "    Message('note_on', channel=0, note=43, velocity=0, time=1),\n",
      "    Message('note_on', channel=0, note=59, velocity=0, time=0),\n",
      "    Message('control_change', channel=0, control=64, value=0, time=1),\n",
      "    Message('note_on', channel=0, note=36, velocity=36, time=21),\n",
      "    Message('note_on', channel=0, note=36, velocity=0, time=72),\n",
      "    Message('note_on', channel=0, note=43, velocity=28, time=10),\n",
      "    Message('control_change', channel=0, control=64, value=127, time=84),\n",
      "    Message('note_on', channel=0, note=36, velocity=24, time=11),\n",
      "    Message('note_on', channel=0, note=48, velocity=26, time=2),\n",
      "    Message('note_on', channel=0, note=72, velocity=43, time=21),\n",
      "    Message('note_on', channel=0, note=60, velocity=33, time=4),\n",
      "    Message('note_on', channel=0, note=64, velocity=29, time=8),\n",
      "    Message('note_on', channel=0, note=67, velocity=26, time=11),\n",
      "    Message('note_on', channel=0, note=55, velocity=31, time=4),\n",
      "    Message('control_change', channel=0, control=64, value=0, time=24),\n",
      "    Message('control_change', channel=0, control=64, value=127, time=99),\n",
      "    Message('note_on', channel=0, note=43, velocity=0, time=1395),\n",
      "    Message('note_on', channel=0, note=67, velocity=0, time=0),\n",
      "    Message('note_on', channel=0, note=36, velocity=0, time=0),\n",
      "    Message('note_on', channel=0, note=64, velocity=0, time=2),\n",
      "    Message('note_on', channel=0, note=55, velocity=0, time=0),\n",
      "    Message('note_on', channel=0, note=72, velocity=0, time=2),\n",
      "    Message('note_on', channel=0, note=60, velocity=0, time=2),\n",
      "    Message('control_change', channel=0, control=64, value=0, time=1),\n",
      "    Message('note_on', channel=0, note=48, velocity=0, time=4),\n",
      "    Message('note_on', channel=0, note=41, velocity=33, time=133),\n",
      "    Message('note_on', channel=0, note=41, velocity=0, time=42),\n",
      "    Message('note_on', channel=0, note=48, velocity=39, time=17),\n",
      "    Message('control_change', channel=0, control=64, value=127, time=38),\n",
      "    Message('note_on', channel=0, note=53, velocity=34, time=24),\n",
      "    Message('note_on', channel=0, note=81, velocity=55, time=41),\n",
      "    Message('note_on', channel=0, note=69, velocity=46, time=7),\n",
      "    Message('note_on', channel=0, note=72, velocity=49, time=1),\n",
      "    Message('note_on', channel=0, note=60, velocity=36, time=31),\n",
      "    Message('note_on', channel=0, note=72, velocity=0, time=1340),\n",
      "    Message('note_on', channel=0, note=79, velocity=49, time=3),\n",
      "    Message('note_on', channel=0, note=72, velocity=42, time=6),\n",
      "    Message('note_on', channel=0, note=67, velocity=33, time=2),\n",
      "    Message('note_on', channel=0, note=48, velocity=0, time=12),\n",
      "    Message('note_on', channel=0, note=55, velocity=29, time=5),\n",
      "    Message('note_on', channel=0, note=48, velocity=28, time=1),\n",
      "    Message('control_change', channel=0, control=64, value=0, time=5),\n",
      "    Message('note_on', channel=0, note=69, velocity=0, time=0),\n",
      "    Message('note_on', channel=0, note=60, velocity=0, time=1),\n",
      "    Message('note_on', channel=0, note=81, velocity=0, time=0),\n",
      "    Message('note_on', channel=0, note=53, velocity=0, time=0),\n",
      "    Message('note_on', channel=0, note=40, velocity=25, time=0),\n",
      "    Message('control_change', channel=0, control=64, value=127, time=119),\n",
      "    Message('note_on', channel=0, note=39, velocity=31, time=480),\n",
      "    Message('note_on', channel=0, note=48, velocity=0, time=65),\n",
      "    Message('note_on', channel=0, note=48, velocity=34, time=7),\n",
      "    Message('note_on', channel=0, note=81, velocity=53, time=12),\n",
      "    Message('note_on', channel=0, note=72, velocity=0, time=4),\n",
      "    Message('note_on', channel=0, note=55, velocity=0, time=4),\n",
      "    Message('note_on', channel=0, note=72, velocity=42, time=1),\n",
      "    Message('note_on', channel=0, note=40, velocity=0, time=1),\n",
      "    Message('note_on', channel=0, note=67, velocity=0, time=2),\n",
      "    Message('note_on', channel=0, note=69, velocity=41, time=1),\n",
      "    Message('control_change', channel=0, control=64, value=0, time=1),\n",
      "    Message('note_on', channel=0, note=79, velocity=0, time=1),\n",
      "    Message('note_on', channel=0, note=67, velocity=38, time=1),\n",
      "    Message('note_on', channel=0, note=57, velocity=42, time=23),\n",
      "    Message('note_on', channel=0, note=39, velocity=0, time=11),\n",
      "    Message('control_change', channel=0, control=64, value=127, time=8),\n",
      "    Message('control_change', channel=0, control=64, value=0, time=472),\n",
      "    Message('note_on', channel=0, note=69, velocity=0, time=0),\n",
      "    Message('note_on', channel=0, note=57, velocity=0, time=0),\n",
      "    Message('note_on', channel=0, note=81, velocity=0, time=0),\n",
      "    Message('note_on', channel=0, note=67, velocity=0, time=0),\n",
      "    Message('note_on', channel=0, note=72, velocity=0, time=1),\n",
      "    Message('note_on', channel=0, note=48, velocity=0, time=11),\n",
      "    Message('note_on', channel=0, note=38, velocity=40, time=12),\n",
      "    Message('control_change', channel=0, control=64, value=127, time=18),\n",
      "    Message('note_on', channel=0, note=45, velocity=31, time=89),\n",
      "    Message('note_on', channel=0, note=78, velocity=50, time=140),\n",
      "    Message('note_on', channel=0, note=38, velocity=0, time=2),\n",
      "    Message('note_on', channel=0, note=74, velocity=45, time=2),\n",
      "    Message('note_on', channel=0, note=38, velocity=32, time=3),\n",
      "    Message('note_on', channel=0, note=66, velocity=36, time=4),\n",
      "    Message('note_on', channel=0, note=69, velocity=38, time=6),\n",
      "    Message('note_on', channel=0, note=50, velocity=27, time=9),\n",
      "    Message('note_on', channel=0, note=57, velocity=41, time=5),\n",
      "    Message('note_on', channel=0, note=74, velocity=0, time=731),\n",
      "    Message('note_on', channel=0, note=42, velocity=47, time=1),\n",
      "    Message('note_on', channel=0, note=74, velocity=46, time=3),\n",
      "    Message('note_on', channel=0, note=50, velocity=0, time=11),\n",
      "    Message('note_on', channel=0, note=69, velocity=0, time=0),\n",
      "    Message('note_on', channel=0, note=69, velocity=40, time=5),\n",
      "    Message('note_on', channel=0, note=62, velocity=35, time=0),\n",
      "    Message('note_on', channel=0, note=57, velocity=0, time=3),\n",
      "    Message('note_on', channel=0, note=50, velocity=36, time=1),\n",
      "    Message('note_on', channel=0, note=60, velocity=33, time=3),\n",
      "    Message('note_on', channel=0, note=57, velocity=34, time=1),\n",
      "    Message('control_change', channel=0, control=64, value=0, time=6),\n",
      "    Message('note_on', channel=0, note=38, velocity=0, time=1),\n",
      "    Message('note_on', channel=0, note=66, velocity=0, time=3),\n",
      "    Message('note_on', channel=0, note=45, velocity=0, time=0),\n",
      "    Message('note_on', channel=0, note=78, velocity=0, time=1),\n",
      "    Message('control_change', channel=0, control=64, value=127, time=138),\n",
      "    Message('note_on', channel=0, note=74, velocity=0, time=438),\n",
      "    Message('note_on', channel=0, note=58, velocity=46, time=7),\n",
      "    Message('note_on', channel=0, note=42, velocity=0, time=0),\n",
      "    Message('note_on', channel=0, note=50, velocity=0, time=0),\n",
      "    Message('note_on', channel=0, note=62, velocity=0, time=0),\n",
      "    Message('note_on', channel=0, note=74, velocity=57, time=2),\n",
      "    Message('note_on', channel=0, note=42, velocity=42, time=4),\n",
      "    Message('note_on', channel=0, note=50, velocity=41, time=1),\n",
      "    Message('note_on', channel=0, note=62, velocity=46, time=2),\n",
      "    Message('note_on', channel=0, note=57, velocity=0, time=7),\n",
      "    Message('note_on', channel=0, note=60, velocity=0, time=7),\n",
      "    Message('note_on', channel=0, note=43, velocity=52, time=127),\n",
      "    Message('note_on', channel=0, note=74, velocity=0, time=4),\n",
      "    Message('note_on', channel=0, note=50, velocity=0, time=7),\n",
      "    Message('note_on', channel=0, note=62, velocity=0, time=0),\n",
      "    Message('note_on', channel=0, note=42, velocity=0, time=1),\n",
      "    Message('note_on', channel=0, note=58, velocity=0, time=1),\n",
      "    Message('note_on', channel=0, note=74, velocity=48, time=1),\n",
      "    Message('note_on', channel=0, note=71, velocity=46, time=3),\n",
      "    Message('note_on', channel=0, note=50, velocity=36, time=1),\n",
      "    Message('note_on', channel=0, note=59, velocity=44, time=2),\n",
      "    Message('note_on', channel=0, note=55, velocity=38, time=1),\n",
      "    Message('note_on', channel=0, note=62, velocity=38, time=1),\n",
      "    Message('note_on', channel=0, note=67, velocity=31, time=1),\n",
      "    Message('control_change', channel=0, control=64, value=0, time=1),\n",
      "    Message('note_on', channel=0, note=69, velocity=0, time=3),\n",
      "    Message('control_change', channel=0, control=64, value=127, time=223),\n",
      "    Message('note_on', channel=0, note=62, velocity=0, time=499),\n",
      "    Message('note_on', channel=0, note=74, velocity=0, time=0),\n",
      "    Message('note_on', channel=0, note=45, velocity=36, time=1),\n",
      "    Message('note_on', channel=0, note=66, velocity=35, time=2),\n",
      "    Message('note_on', channel=0, note=74, velocity=40, time=4),\n",
      "    Message('note_on', channel=0, note=50, velocity=0, time=0),\n",
      "    Message('note_on', channel=0, note=62, velocity=33, time=3),\n",
      "    Message('note_on', channel=0, note=60, velocity=27, time=2),\n",
      "    Message('note_on', channel=0, note=50, velocity=26, time=1),\n",
      "    Message('control_change', channel=0, control=64, value=0, time=4),\n",
      "    Message('note_on', channel=0, note=55, velocity=0, time=3),\n",
      "    Message('note_on', channel=0, note=59, velocity=0, time=0),\n",
      "    Message('note_on', channel=0, note=71, velocity=0, time=0),\n",
      "    Message('note_on', channel=0, note=43, velocity=0, time=2),\n",
      "    Message('note_on', channel=0, note=67, velocity=0, time=8),\n",
      "    Message('control_change', channel=0, control=64, value=127, time=192),\n",
      "    Message('note_on', channel=0, note=45, velocity=0, time=448),\n",
      "    Message('note_on', channel=0, note=66, velocity=0, time=1),\n",
      "    Message('control_change', channel=0, control=64, value=0, time=1),\n",
      "    Message('note_on', channel=0, note=50, velocity=0, time=1),\n",
      "    Message('note_on', channel=0, note=60, velocity=0, time=1),\n",
      "    Message('note_on', channel=0, note=43, velocity=50, time=0),\n",
      "    Message('note_on', channel=0, note=62, velocity=0, time=9),\n",
      "    Message('note_on', channel=0, note=74, velocity=0, time=8),\n",
      "    Message('control_change', channel=0, control=64, value=127, time=92),\n",
      "    Message('note_on', channel=0, note=50, velocity=43, time=6),\n",
      "    Message('note_on', channel=0, note=83, velocity=55, time=148),\n",
      "    Message('note_on', channel=0, note=74, velocity=46, time=3),\n",
      "    Message('note_on', channel=0, note=71, velocity=41, time=16),\n",
      "    Message('note_on', channel=0, note=67, velocity=31, time=7),\n",
      "    Message('note_on', channel=0, note=62, velocity=46, time=2),\n",
      "    Message('note_on', channel=0, note=67, velocity=0, time=2),\n",
      "    Message('note_on', channel=0, note=55, velocity=28, time=2),\n",
      "    Message('note_on', channel=0, note=42, velocity=40, time=1379),\n",
      "    Message('note_on', channel=0, note=81, velocity=51, time=19),\n",
      "    Message('note_on', channel=0, note=74, velocity=0, time=21),\n",
      "    Message('control_change', channel=0, control=64, value=0, time=3),\n",
      "    Message('note_on', channel=0, note=74, velocity=43, time=3),\n",
      "    Message('note_on', channel=0, note=69, velocity=33, time=6),\n",
      "    Message('note_on', channel=0, note=50, velocity=0, time=4),\n",
      "    Message('note_on', channel=0, note=50, velocity=31, time=4),\n",
      "    Message('note_on', channel=0, note=57, velocity=31, time=9),\n",
      "    Message('note_on', channel=0, note=62, velocity=0, time=4),\n",
      "    Message('note_on', channel=0, note=71, velocity=0, time=8),\n",
      "    Message('note_on', channel=0, note=43, velocity=0, time=5),\n",
      "    Message('note_on', channel=0, note=83, velocity=0, time=3),\n",
      "    Message('note_on', channel=0, note=55, velocity=0, time=20),\n",
      "    Message('control_change', channel=0, control=64, value=127, time=100),\n",
      "    Message('note_on', channel=0, note=41, velocity=45, time=454),\n",
      "    Message('control_change', channel=0, control=64, value=0, time=17),\n",
      "    Message('note_on', channel=0, note=42, velocity=0, time=67),\n",
      "    Message('note_on', channel=0, note=47, velocity=32, time=3),\n",
      "    Message('note_on', channel=0, note=57, velocity=0, time=19),\n",
      "    Message('note_on', channel=0, note=74, velocity=0, time=3),\n",
      "    Message('note_on', channel=0, note=69, velocity=0, time=0),\n",
      "    Message('note_on', channel=0, note=50, velocity=0, time=1),\n",
      "    Message('note_on', channel=0, note=81, velocity=0, time=0),\n",
      "    Message('note_on', channel=0, note=83, velocity=50, time=18),\n",
      "    Message('note_on', channel=0, note=75, velocity=42, time=12),\n",
      "    Message('note_on', channel=0, note=71, velocity=39, time=2),\n",
      "    Message('note_on', channel=0, note=47, velocity=0, time=3),\n",
      "    Message('note_on', channel=0, note=51, velocity=34, time=4),\n",
      "    Message('note_on', channel=0, note=78, velocity=32, time=1),\n",
      "    Message('note_on', channel=0, note=47, velocity=33, time=0),\n",
      "    Message('note_on', channel=0, note=78, velocity=0, time=11),\n",
      "    Message('note_on', channel=0, note=59, velocity=39, time=4),\n",
      "    Message('control_change', channel=0, control=64, value=127, time=49),\n",
      "    Message('note_on', channel=0, note=41, velocity=0, time=54),\n",
      "    Message('control_change', channel=0, control=64, value=0, time=500),\n",
      "    Message('note_on', channel=0, note=40, velocity=42, time=1),\n",
      "    Message('note_on', channel=0, note=47, velocity=0, time=8),\n",
      "    Message('note_on', channel=0, note=83, velocity=0, time=2),\n",
      "    Message('note_on', channel=0, note=75, velocity=0, time=0),\n",
      "    Message('note_on', channel=0, note=51, velocity=0, time=0),\n",
      "    Message('note_on', channel=0, note=59, velocity=0, time=0),\n",
      "    Message('note_on', channel=0, note=47, velocity=31, time=89),\n",
      "    Message('note_on', channel=0, note=52, velocity=36, time=80),\n",
      "    Message('note_on', channel=0, note=71, velocity=0, time=73),\n",
      "    Message('note_on', channel=0, note=80, velocity=49, time=6),\n",
      "    Message('note_on', channel=0, note=76, velocity=40, time=4),\n",
      "    Message('note_on', channel=0, note=71, velocity=38, time=0),\n",
      "    Message('note_on', channel=0, note=68, velocity=39, time=3),\n",
      "    Message('note_on', channel=0, note=59, velocity=45, time=101),\n",
      "    Message('control_change', channel=0, control=64, value=127, time=147),\n",
      "    Message('note_on', channel=0, note=40, velocity=0, time=1037),\n",
      "    Message('note_on', channel=0, note=40, velocity=30, time=11),\n",
      "    Message('control_change', channel=0, control=64, value=0, time=56),\n",
      "    Message('note_on', channel=0, note=76, velocity=0, time=4),\n",
      "    Message('note_on', channel=0, note=68, velocity=0, time=0),\n",
      "    Message('note_on', channel=0, note=80, velocity=0, time=0),\n",
      "    Message('note_on', channel=0, note=59, velocity=0, time=0),\n",
      "    Message('note_on', channel=0, note=52, velocity=0, time=0),\n",
      "    Message('note_on', channel=0, note=71, velocity=0, time=2),\n",
      "    Message('note_on', channel=0, note=47, velocity=0, time=19),\n",
      "    Message('note_on', channel=0, note=47, velocity=30, time=9),\n",
      "    Message('control_change', channel=0, control=64, value=127, time=45),\n",
      "    Message('note_on', channel=0, note=52, velocity=34, time=40),\n",
      "    Message('note_on', channel=0, note=79, velocity=45, time=101),\n",
      "    Message('note_on', channel=0, note=67, velocity=33, time=7),\n",
      "    Message('note_on', channel=0, note=59, velocity=33, time=40),\n",
      "    Message('note_on', channel=0, note=79, velocity=0, time=887),\n",
      "    Message('note_on', channel=0, note=59, velocity=0, time=7),\n",
      "    Message('note_on', channel=0, note=79, velocity=39, time=2),\n",
      "    Message('note_on', channel=0, note=59, velocity=32, time=7),\n",
      "    Message('control_change', channel=0, control=64, value=0, time=1),\n",
      "    Message('note_on', channel=0, note=74, velocity=35, time=1),\n",
      "    Message('note_on', channel=0, note=71, velocity=33, time=2),\n",
      "    Message('note_on', channel=0, note=43, velocity=26, time=3),\n",
      "    Message('note_on', channel=0, note=50, velocity=19, time=2),\n",
      "    Message('note_on', channel=0, note=52, velocity=0, time=0),\n",
      "    Message('note_on', channel=0, note=47, velocity=0, time=2),\n",
      "    Message('note_on', channel=0, note=40, velocity=0, time=4),\n",
      "    Message('note_on', channel=0, note=67, velocity=0, time=0),\n",
      "    Message('note_on', channel=0, note=65, velocity=24, time=0),\n",
      "    Message('note_on', channel=0, note=67, velocity=25, time=3),\n",
      "    Message('note_on', channel=0, note=77, velocity=44, time=336),\n",
      "    Message('control_change', channel=0, control=64, value=127, time=129),\n",
      "    Message('note_on', channel=0, note=76, velocity=44, time=734),\n",
      "    Message('note_on', channel=0, note=50, velocity=0, time=39),\n",
      "    Message('note_on', channel=0, note=67, velocity=0, time=3),\n",
      "    Message('note_on', channel=0, note=65, velocity=0, time=1),\n",
      "    Message('note_on', channel=0, note=74, velocity=0, time=0),\n",
      "    Message('note_on', channel=0, note=77, velocity=0, time=1),\n",
      "    Message('note_on', channel=0, note=71, velocity=0, time=0),\n",
      "    Message('note_on', channel=0, note=59, velocity=0, time=5),\n",
      "    Message('control_change', channel=0, control=64, value=0, time=2),\n",
      "    Message('note_on', channel=0, note=43, velocity=0, time=6),\n",
      "    Message('note_on', channel=0, note=79, velocity=0, time=15),\n",
      "    Message('note_on', channel=0, note=36, velocity=27, time=35),\n",
      "    Message('control_change', channel=0, control=64, value=127, time=65),\n",
      "    Message('note_on', channel=0, note=43, velocity=26, time=1),\n",
      "    Message('note_on', channel=0, note=48, velocity=31, time=110),\n",
      "    Message('note_on', channel=0, note=64, velocity=46, time=39),\n",
      "    Message('note_on', channel=0, note=72, velocity=36, time=30),\n",
      "    Message('note_on', channel=0, note=79, velocity=42, time=1),\n",
      "    Message('note_on', channel=0, note=67, velocity=33, time=4),\n",
      "    Message('note_on', channel=0, note=55, velocity=31, time=7),\n",
      "    Message('note_on', channel=0, note=36, velocity=0, time=1214),\n",
      "    Message('note_on', channel=0, note=36, velocity=34, time=9),\n",
      "    Message('note_on', channel=0, note=67, velocity=0, time=65),\n",
      "    Message('note_on', channel=0, note=55, velocity=0, time=2),\n",
      "    Message('note_on', channel=0, note=43, velocity=0, time=0),\n",
      "    Message('note_on', channel=0, note=64, velocity=0, time=1),\n",
      "    Message('control_change', channel=0, control=64, value=0, time=0),\n",
      "    Message('note_on', channel=0, note=76, velocity=0, time=2),\n",
      "    Message('note_on', channel=0, note=72, velocity=0, time=0),\n",
      "    Message('note_on', channel=0, note=43, velocity=34, time=3),\n",
      "    Message('note_on', channel=0, note=79, velocity=0, time=18),\n",
      "    Message('note_on', channel=0, note=48, velocity=0, time=7),\n",
      "    Message('note_on', channel=0, note=79, velocity=44, time=75),\n",
      "    Message('note_on', channel=0, note=74, velocity=44, time=2),\n",
      "    Message('note_on', channel=0, note=71, velocity=35, time=20),\n",
      "    Message('note_on', channel=0, note=67, velocity=37, time=3),\n",
      "    Message('note_on', channel=0, note=65, velocity=27, time=4),\n",
      "    Message('note_on', channel=0, note=55, velocity=43, time=7),\n",
      "    Message('control_change', channel=0, control=64, value=127, time=158),\n",
      "    Message('note_on', channel=0, note=36, velocity=0, time=445),\n",
      "    Message('note_on', channel=0, note=36, velocity=29, time=11),\n",
      "    Message('note_on', channel=0, note=43, velocity=0, time=66),\n",
      "    Message('note_on', channel=0, note=43, velocity=28, time=10),\n",
      "    Message('note_on', channel=0, note=79, velocity=0, time=52),\n",
      "    Message('note_on', channel=0, note=79, velocity=47, time=6),\n",
      "    Message('note_on', channel=0, note=67, velocity=0, time=1),\n",
      "    Message('note_on', channel=0, note=76, velocity=43, time=6),\n",
      "    Message('note_on', channel=0, note=71, velocity=0, time=2),\n",
      "    Message('note_on', channel=0, note=67, velocity=36, time=4),\n",
      "    Message('note_on', channel=0, note=71, velocity=37, time=3),\n",
      "    Message('note_on', channel=0, note=55, velocity=0, time=8),\n",
      "    Message('note_on', channel=0, note=65, velocity=0, time=0),\n",
      "    Message('note_on', channel=0, note=65, velocity=28, time=4),\n",
      "    Message('note_on', channel=0, note=55, velocity=38, time=2),\n",
      "    Message('note_on', channel=0, note=43, velocity=0, time=117),\n",
      "    Message('note_on', channel=0, note=43, velocity=21, time=10),\n",
      "    Message('note_on', channel=0, note=36, velocity=0, time=121),\n",
      "    Message('note_on', channel=0, note=36, velocity=33, time=4),\n",
      "    Message('note_on', channel=0, note=43, velocity=0, time=80),\n",
      "    Message('note_on', channel=0, note=43, velocity=26, time=8),\n",
      "    Message('note_on', channel=0, note=79, velocity=0, time=46),\n",
      "    Message('note_on', channel=0, note=79, velocity=52, time=6),\n",
      "    Message('note_on', channel=0, note=71, velocity=0, time=2),\n",
      "    Message('note_on', channel=0, note=77, velocity=50, time=1),\n",
      "    Message('note_on', channel=0, note=48, velocity=23, time=4),\n",
      "    Message('note_on', channel=0, note=71, velocity=38, time=1),\n",
      "    Message('note_on', channel=0, note=65, velocity=0, time=1),\n",
      "    Message('note_on', channel=0, note=65, velocity=32, time=5),\n",
      "    Message('note_on', channel=0, note=67, velocity=0, time=3),\n",
      "    Message('note_on', channel=0, note=67, velocity=34, time=6),\n",
      "    Message('note_on', channel=0, note=55, velocity=0, time=2),\n",
      "    Message('note_on', channel=0, note=55, velocity=37, time=4),\n",
      "    Message('note_on', channel=0, note=36, velocity=0, time=226),\n",
      "    Message('note_on', channel=0, note=36, velocity=33, time=10),\n",
      "    Message('note_on', channel=0, note=43, velocity=0, time=67),\n",
      "    Message('note_on', channel=0, note=43, velocity=31, time=4),\n",
      "    Message('note_on', channel=0, note=48, velocity=0, time=57),\n",
      "    Message('control_change', channel=0, control=64, value=0, time=2),\n",
      "    Message('note_on', channel=0, note=65, velocity=0, time=0),\n",
      "    Message('note_on', channel=0, note=55, velocity=0, time=2),\n",
      "    Message('note_on', channel=0, note=74, velocity=0, time=0),\n",
      "    Message('note_on', channel=0, note=79, velocity=0, time=1),\n",
      "    Message('note_on', channel=0, note=48, velocity=29, time=0),\n",
      "    Message('note_on', channel=0, note=77, velocity=0, time=18),\n",
      "    Message('note_on', channel=0, note=64, velocity=46, time=5),\n",
      "    Message('note_on', channel=0, note=71, velocity=0, time=11),\n",
      "    Message('note_on', channel=0, note=43, velocity=0, time=15),\n",
      "    Message('note_on', channel=0, note=76, velocity=0, time=0),\n",
      "    Message('note_on', channel=0, note=72, velocity=41, time=2),\n",
      "    Message('note_on', channel=0, note=76, velocity=45, time=2),\n",
      "    Message('note_on', channel=0, note=79, velocity=52, time=1),\n",
      "    Message('note_on', channel=0, note=43, velocity=29, time=5),\n",
      "    Message('control_change', channel=0, control=64, value=127, time=198),\n",
      "    Message('note_on', channel=0, note=67, velocity=0, time=430),\n",
      "    Message('note_on', channel=0, note=64, velocity=0, time=207),\n",
      "    Message('note_on', channel=0, note=36, velocity=0, time=8),\n",
      "    Message('note_on', channel=0, note=43, velocity=0, time=0),\n",
      "    Message('note_on', channel=0, note=67, velocity=43, time=1),\n",
      "    Message('note_on', channel=0, note=64, velocity=42, time=1),\n",
      "    Message('note_on', channel=0, note=60, velocity=32, time=2),\n",
      "    Message('note_on', channel=0, note=43, velocity=28, time=0),\n",
      "    Message('note_on', channel=0, note=36, velocity=28, time=0),\n",
      "    Message('note_on', channel=0, note=52, velocity=32, time=1),\n",
      "    Message('note_on', channel=0, note=55, velocity=33, time=0),\n",
      "    Message('control_change', channel=0, control=64, value=0, time=21),\n",
      "    Message('control_change', channel=0, control=64, value=127, time=43),\n",
      "    Message('note_on', channel=0, note=79, velocity=0, time=130),\n",
      "    Message('note_on', channel=0, note=60, velocity=0, time=753),\n",
      "    Message('note_on', channel=0, note=72, velocity=0, time=0),\n",
      "    Message('note_on', channel=0, note=72, velocity=48, time=5),\n",
      "    Message('note_on', channel=0, note=57, velocity=38, time=1),\n",
      "    Message('note_on', channel=0, note=64, velocity=0, time=2),\n",
      "    Message('note_on', channel=0, note=60, velocity=36, time=2),\n",
      "    Message('note_on', channel=0, note=64, velocity=39, time=2),\n",
      "    Message('note_on', channel=0, note=69, velocity=40, time=1),\n",
      "    Message('note_on', channel=0, note=52, velocity=0, time=2),\n",
      "    Message('note_on', channel=0, note=57, velocity=0, time=0),\n",
      "    Message('note_on', channel=0, note=52, velocity=33, time=5),\n",
      "    Message('note_on', channel=0, note=45, velocity=35, time=8),\n",
      "    Message('note_on', channel=0, note=36, velocity=0, time=11),\n",
      "    Message('note_on', channel=0, note=67, velocity=0, time=2),\n",
      "    Message('note_on', channel=0, note=55, velocity=0, time=1),\n",
      "    Message('note_on', channel=0, note=43, velocity=0, time=0),\n",
      "    Message('control_change', channel=0, control=64, value=0, time=1),\n",
      "    Message('note_on', channel=0, note=76, velocity=0, time=0),\n",
      "    Message('note_on', channel=0, note=48, velocity=0, time=95),\n",
      "    Message('control_change', channel=0, control=64, value=127, time=62),\n",
      "    Message('note_on', channel=0, note=43, velocity=41, time=574),\n",
      "    Message('note_on', channel=0, note=60, velocity=0, time=109),\n",
      "    Message('note_on', channel=0, note=60, velocity=52, time=5),\n",
      "    Message('note_on', channel=0, note=52, velocity=0, time=3),\n",
      "    Message('note_on', channel=0, note=64, velocity=0, time=8),\n",
      "    Message('note_on', channel=0, note=72, velocity=0, time=0),\n",
      "    Message('note_on', channel=0, note=52, velocity=43, time=3),\n",
      "    Message('note_on', channel=0, note=72, velocity=50, time=1),\n",
      "    Message('note_on', channel=0, note=76, velocity=59, time=4),\n",
      "    Message('note_on', channel=0, note=64, velocity=51, time=2),\n",
      "    Message('note_on', channel=0, note=67, velocity=43, time=4),\n",
      "    Message('control_change', channel=0, control=64, value=0, time=27),\n",
      "    Message('note_on', channel=0, note=45, velocity=0, time=3),\n",
      "    Message('note_on', channel=0, note=69, velocity=0, time=1),\n",
      "    Message('control_change', channel=0, control=64, value=127, time=162),\n",
      "    Message('note_on', channel=0, note=76, velocity=0, time=822),\n",
      "    Message('note_on', channel=0, note=79, velocity=65, time=6),\n",
      "    Message('note_on', channel=0, note=43, velocity=0, time=1),\n",
      "    Message('note_on', channel=0, note=67, velocity=0, time=0),\n",
      "    Message('note_on', channel=0, note=72, velocity=0, time=0),\n",
      "    Message('note_on', channel=0, note=76, velocity=54, time=4),\n",
      "    Message('note_on', channel=0, note=72, velocity=54, time=1),\n",
      "    Message('note_on', channel=0, note=31, velocity=44, time=0),\n",
      "    Message('note_on', channel=0, note=43, velocity=39, time=3),\n",
      "    Message('note_on', channel=0, note=67, velocity=41, time=4),\n",
      "    Message('control_change', channel=0, control=64, value=0, time=29),\n",
      "    Message('note_on', channel=0, note=52, velocity=0, time=13),\n",
      "    Message('note_on', channel=0, note=60, velocity=0, time=0),\n",
      "    Message('note_on', channel=0, note=64, velocity=0, time=8),\n",
      "    Message('control_change', channel=0, control=64, value=127, time=146),\n",
      "    Message('note_on', channel=0, note=66, velocity=39, time=357),\n",
      "    Message('note_on', channel=0, note=54, velocity=39, time=5),\n",
      "    Message('note_on', channel=0, note=42, velocity=29, time=30),\n",
      "    Message('note_on', channel=0, note=30, velocity=27, time=4),\n",
      "    Message('note_on', channel=0, note=67, velocity=0, time=88),\n",
      "    Message('note_on', channel=0, note=67, velocity=49, time=7),\n",
      "    Message('note_on', channel=0, note=30, velocity=0, time=16),\n",
      "    Message('note_on', channel=0, note=31, velocity=0, time=0),\n",
      "    Message('note_on', channel=0, note=43, velocity=0, time=0),\n",
      "    Message('note_on', channel=0, note=43, velocity=44, time=5),\n",
      "    Message('note_on', channel=0, note=55, velocity=38, time=0),\n",
      "    Message('note_on', channel=0, note=31, velocity=43, time=4),\n",
      "    Message('note_on', channel=0, note=67, velocity=0, time=75),\n",
      "    Message('note_on', channel=0, note=67, velocity=54, time=11),\n",
      "    Message('note_on', channel=0, note=31, velocity=0, time=20),\n",
      "    Message('note_on', channel=0, note=43, velocity=0, time=0),\n",
      "    Message('note_on', channel=0, note=55, velocity=0, time=0),\n",
      "    Message('note_on', channel=0, note=55, velocity=42, time=5),\n",
      "    Message('note_on', channel=0, note=43, velocity=48, time=1),\n",
      "    Message('note_on', channel=0, note=31, velocity=41, time=2),\n",
      "    Message('note_on', channel=0, note=31, velocity=0, time=92),\n",
      "    Message('note_on', channel=0, note=43, velocity=0, time=0),\n",
      "    Message('note_on', channel=0, note=55, velocity=0, time=0),\n",
      "    Message('note_on', channel=0, note=67, velocity=0, time=0),\n",
      "    Message('note_on', channel=0, note=67, velocity=56, time=4),\n",
      "    Message('note_on', channel=0, note=31, velocity=43, time=5),\n",
      "    Message('note_on', channel=0, note=43, velocity=47, time=1),\n",
      "    Message('note_on', channel=0, note=55, velocity=54, time=0),\n",
      "    Message('note_on', channel=0, note=68, velocity=63, time=105),\n",
      "    Message('note_on', channel=0, note=32, velocity=50, time=12),\n",
      "    Message('note_on', channel=0, note=56, velocity=53, time=1),\n",
      "    Message('note_on', channel=0, note=44, velocity=51, time=4),\n",
      "    Message('note_on', channel=0, note=32, velocity=0, time=83),\n",
      "    Message('note_on', channel=0, note=56, velocity=0, time=0),\n",
      "    Message('note_on', channel=0, note=68, velocity=0, time=0),\n",
      "    Message('note_on', channel=0, note=44, velocity=0, time=7),\n",
      "    Message('note_on', channel=0, note=56, velocity=52, time=0),\n",
      "    Message('note_on', channel=0, note=32, velocity=49, time=3),\n",
      "    Message('note_on', channel=0, note=68, velocity=57, time=0),\n",
      "    Message('note_on', channel=0, note=44, velocity=49, time=2),\n",
      "    Message('note_on', channel=0, note=32, velocity=0, time=95),\n",
      "    Message('note_on', channel=0, note=44, velocity=0, time=0),\n",
      "    Message('note_on', channel=0, note=56, velocity=0, time=0),\n",
      "    Message('note_on', channel=0, note=68, velocity=0, time=0),\n",
      "    Message('note_on', channel=0, note=68, velocity=52, time=5),\n",
      "    Message('note_on', channel=0, note=32, velocity=45, time=4),\n",
      "    Message('note_on', channel=0, note=44, velocity=49, time=0),\n",
      "    Message('note_on', channel=0, note=56, velocity=49, time=1),\n",
      "    Message('note_on', channel=0, note=31, velocity=0, time=105),\n",
      "    Message('note_on', channel=0, note=43, velocity=0, time=0),\n",
      "    Message('note_on', channel=0, note=67, velocity=0, time=0),\n",
      "    Message('note_on', channel=0, note=67, velocity=45, time=6),\n",
      "    Message('note_on', channel=0, note=43, velocity=51, time=0),\n",
      "    Message('note_on', channel=0, note=31, velocity=47, time=5),\n",
      "    Message('note_on', channel=0, note=67, velocity=0, time=97),\n",
      "    Message('note_on', channel=0, note=67, velocity=58, time=4),\n",
      "    Message('note_on', channel=0, note=31, velocity=0, time=4),\n",
      "    Message('note_on', channel=0, note=43, velocity=0, time=0),\n",
      "    Message('note_on', channel=0, note=31, velocity=49, time=6),\n",
      "    Message('note_on', channel=0, note=55, velocity=0, time=1),\n",
      "    Message('note_on', channel=0, note=43, velocity=51, time=3),\n",
      "    Message('note_on', channel=0, note=55, velocity=43, time=3),\n",
      "    Message('note_on', channel=0, note=42, velocity=0, time=171),\n",
      "    Message('note_on', channel=0, note=43, velocity=0, time=38),\n",
      "    Message('note_on', channel=0, note=43, velocity=43, time=4),\n",
      "    Message('note_on', channel=0, note=54, velocity=0, time=35),\n",
      "    Message('note_on', channel=0, note=67, velocity=0, time=7),\n",
      "    Message('note_on', channel=0, note=76, velocity=0, time=0),\n",
      "    Message('note_on', channel=0, note=67, velocity=49, time=6),\n",
      "    Message('note_on', channel=0, note=76, velocity=66, time=2),\n",
      "    Message('note_on', channel=0, note=31, velocity=0, time=5),\n",
      "    Message('note_on', channel=0, note=32, velocity=0, time=0),\n",
      "    Message('note_on', channel=0, note=64, velocity=57, time=1),\n",
      "    Message('note_on', channel=0, note=68, velocity=0, time=0),\n",
      "    Message('note_on', channel=0, note=56, velocity=0, time=4),\n",
      "    Message('note_on', channel=0, note=79, velocity=0, time=0),\n",
      "    Message('note_on', channel=0, note=55, velocity=0, time=0),\n",
      "    Message('note_on', channel=0, note=44, velocity=0, time=0),\n",
      "    Message('note_on', channel=0, note=66, velocity=0, time=5),\n",
      "    Message('note_on', channel=0, note=72, velocity=0, time=0),\n",
      "    Message('control_change', channel=0, control=64, value=0, time=8),\n",
      "    Message('note_on', channel=0, note=60, velocity=45, time=43),\n",
      "    Message('note_on', channel=0, note=59, velocity=41, time=2),\n",
      "    Message('control_change', channel=0, control=64, value=127, time=124),\n",
      "    Message('note_on', channel=0, note=59, velocity=0, time=246),\n",
      "    Message('note_on', channel=0, note=43, velocity=0, time=491),\n",
      "    Message('note_on', channel=0, note=43, velocity=32, time=12),\n",
      "    Message('note_on', channel=0, note=67, velocity=0, time=57),\n",
      "    Message('note_on', channel=0, note=74, velocity=61, time=4),\n",
      "    Message('note_on', channel=0, note=59, velocity=53, time=6),\n",
      "    Message('note_on', channel=0, note=62, velocity=53, time=1),\n",
      "    Message('note_on', channel=0, note=71, velocity=54, time=1),\n",
      "    Message('note_on', channel=0, note=67, velocity=43, time=0),\n",
      "    Message('note_on', channel=0, note=65, velocity=41, time=1),\n",
      "    Message('control_change', channel=0, control=64, value=0, time=32),\n",
      "    Message('note_on', channel=0, note=64, velocity=0, time=1),\n",
      "    Message('note_on', channel=0, note=60, velocity=0, time=3),\n",
      "    Message('note_on', channel=0, note=76, velocity=0, time=13),\n",
      "    Message('control_change', channel=0, control=64, value=127, time=77),\n",
      "    Message('note_on', channel=0, note=59, velocity=0, time=368),\n",
      "    Message('note_on', channel=0, note=65, velocity=0, time=0),\n",
      "    Message('note_on', channel=0, note=67, velocity=0, time=0),\n",
      "    Message('note_on', channel=0, note=59, velocity=52, time=4),\n",
      "    Message('note_on', channel=0, note=67, velocity=58, time=1),\n",
      "    Message('note_on', channel=0, note=43, velocity=0, time=3),\n",
      "    Message('note_on', channel=0, note=65, velocity=49, time=3),\n",
      "    Message('note_on', channel=0, note=55, velocity=46, time=1),\n",
      "    Message('note_on', channel=0, note=31, velocity=49, time=2),\n",
      "    Message('note_on', channel=0, note=43, velocity=48, time=0),\n",
      "    Message('control_change', channel=0, control=64, value=0, time=53),\n",
      "    Message('control_change', channel=0, control=64, value=127, time=33),\n",
      "    Message('note_on', channel=0, note=43, velocity=0, time=323),\n",
      "    Message('note_on', channel=0, note=43, velocity=38, time=8),\n",
      "    Message('note_on', channel=0, note=53, velocity=39, time=85),\n",
      "    Message('note_on', channel=0, note=43, velocity=0, time=14),\n",
      "    Message('note_on', channel=0, note=74, velocity=0, time=0),\n",
      "    Message('note_on', channel=0, note=59, velocity=0, time=8),\n",
      "    Message('note_on', channel=0, note=62, velocity=0, time=0),\n",
      "    Message('note_on', channel=0, note=67, velocity=0, time=0),\n",
      "    Message('note_on', channel=0, note=74, velocity=69, time=2),\n",
      "    Message('note_on', channel=0, note=43, velocity=40, time=1),\n",
      "    Message('note_on', channel=0, note=67, velocity=54, time=1),\n",
      "    Message('note_on', channel=0, note=65, velocity=0, time=4),\n",
      "    Message('note_on', channel=0, note=62, velocity=56, time=2),\n",
      "    Message('note_on', channel=0, note=59, velocity=57, time=1),\n",
      "    Message('note_on', channel=0, note=50, velocity=38, time=0),\n",
      "    Message('note_on', channel=0, note=65, velocity=47, time=4),\n",
      "    Message('control_change', channel=0, control=64, value=0, time=26),\n",
      "    Message('control_change', channel=0, control=64, value=127, time=90),\n",
      "    Message('note_on', channel=0, note=42, velocity=39, time=427),\n",
      "    Message('note_on', channel=0, note=54, velocity=41, time=0),\n",
      "    Message('note_on', channel=0, note=30, velocity=40, time=1),\n",
      "    Message('note_on', channel=0, note=66, velocity=38, time=0),\n",
      "    Message('note_on', channel=0, note=54, velocity=0, time=9),\n",
      "    Message('note_on', channel=0, note=31, velocity=0, time=131),\n",
      "    Message('note_on', channel=0, note=43, velocity=0, time=0),\n",
      "    Message('note_on', channel=0, note=55, velocity=0, time=8),\n",
      "    Message('note_on', channel=0, note=67, velocity=0, time=0),\n",
      "    Message('note_on', channel=0, note=43, velocity=44, time=0),\n",
      "    Message('note_on', channel=0, note=31, velocity=45, time=2),\n",
      "    Message('note_on', channel=0, note=67, velocity=39, time=3),\n",
      "    Message('note_on', channel=0, note=55, velocity=42, time=3),\n",
      "    Message('note_on', channel=0, note=31, velocity=0, time=99),\n",
      "    Message('note_on', channel=0, note=43, velocity=0, time=0),\n",
      "    Message('note_on', channel=0, note=67, velocity=0, time=0),\n",
      "    Message('note_on', channel=0, note=55, velocity=0, time=8),\n",
      "    Message('note_on', channel=0, note=31, velocity=51, time=0),\n",
      "    Message('note_on', channel=0, note=43, velocity=47, time=1),\n",
      "    Message('note_on', channel=0, note=67, velocity=56, time=2),\n",
      "    Message('note_on', channel=0, note=55, velocity=44, time=7),\n",
      "    Message('note_on', channel=0, note=68, velocity=60, time=112),\n",
      "    Message('note_on', channel=0, note=44, velocity=54, time=7),\n",
      "    Message('note_on', channel=0, note=32, velocity=53, time=0),\n",
      "    Message('note_on', channel=0, note=56, velocity=51, time=2),\n",
      "    Message('note_on', channel=0, note=32, velocity=0, time=99),\n",
      "    Message('note_on', channel=0, note=44, velocity=0, time=8),\n",
      "    Message('note_on', channel=0, note=32, velocity=54, time=2),\n",
      "    Message('note_on', channel=0, note=69, velocity=64, time=1),\n",
      "    Message('note_on', channel=0, note=44, velocity=52, time=5),\n",
      "    Message('note_on', channel=0, note=57, velocity=52, time=10),\n",
      "    Message('note_on', channel=0, note=69, velocity=0, time=82),\n",
      "    Message('note_on', channel=0, note=33, velocity=60, time=3),\n",
      "    Message('note_on', channel=0, note=45, velocity=55, time=2),\n",
      "    Message('note_on', channel=0, note=57, velocity=0, time=2),\n",
      "    Message('note_on', channel=0, note=69, velocity=66, time=4),\n",
      "    Message('note_on', channel=0, note=57, velocity=59, time=8),\n",
      "    Message('note_on', channel=0, note=46, velocity=60, time=97),\n",
      "    Message('note_on', channel=0, note=58, velocity=63, time=2),\n",
      "    Message('note_on', channel=0, note=70, velocity=64, time=1),\n",
      "    Message('note_on', channel=0, note=34, velocity=58, time=0),\n",
      "    Message('note_on', channel=0, note=47, velocity=60, time=102),\n",
      "    Message('note_on', channel=0, note=71, velocity=0, time=1),\n",
      "    Message('note_on', channel=0, note=35, velocity=59, time=2),\n",
      "    Message('note_on', channel=0, note=59, velocity=0, time=6),\n",
      "    Message('note_on', channel=0, note=69, velocity=0, time=0),\n",
      "    Message('note_on', channel=0, note=71, velocity=56, time=3),\n",
      "    Message('note_on', channel=0, note=59, velocity=54, time=7),\n",
      "    Message('note_on', channel=0, note=69, velocity=57, time=0),\n",
      "    Message('note_on', channel=0, note=35, velocity=0, time=90),\n",
      "    Message('note_on', channel=0, note=47, velocity=0, time=0),\n",
      "    Message('note_on', channel=0, note=59, velocity=0, time=0),\n",
      "    Message('note_on', channel=0, note=71, velocity=0, time=0),\n",
      "    Message('note_on', channel=0, note=47, velocity=61, time=6),\n",
      "    Message('note_on', channel=0, note=71, velocity=66, time=0),\n",
      "    Message('note_on', channel=0, note=35, velocity=55, time=3),\n",
      "    Message('note_on', channel=0, note=59, velocity=60, time=1),\n",
      "    Message('note_on', channel=0, note=30, velocity=0, time=113),\n",
      "    Message('note_on', channel=0, note=48, velocity=60, time=72),\n",
      "    Message('note_on', channel=0, note=72, velocity=70, time=0),\n",
      "    Message('note_on', channel=0, note=36, velocity=54, time=1),\n",
      "    Message('note_on', channel=0, note=60, velocity=59, time=4),\n",
      "    Message('note_on', channel=0, note=64, velocity=54, time=3),\n",
      "    Message('note_on', channel=0, note=62, velocity=0, time=11),\n",
      "    Message('note_on', channel=0, note=58, velocity=0, time=1),\n",
      "    Message('note_on', channel=0, note=34, velocity=0, time=0),\n",
      "    Message('note_on', channel=0, note=67, velocity=0, time=0),\n",
      "    Message('note_on', channel=0, note=53, velocity=0, time=0),\n",
      "    Message('note_on', channel=0, note=74, velocity=0, time=0),\n",
      "    Message('note_on', channel=0, note=69, velocity=0, time=0),\n",
      "    Message('note_on', channel=0, note=50, velocity=0, time=0),\n",
      "    Message('note_on', channel=0, note=47, velocity=0, time=0),\n",
      "    Message('note_on', channel=0, note=70, velocity=0, time=1),\n",
      "    Message('note_on', channel=0, note=59, velocity=0, time=0),\n",
      "    Message('note_on', channel=0, note=71, velocity=0, time=0),\n",
      "    Message('note_on', channel=0, note=33, velocity=0, time=0),\n",
      "    Message('note_on', channel=0, note=35, velocity=0, time=0),\n",
      "    Message('note_on', channel=0, note=56, velocity=0, time=0),\n",
      "    Message('note_on', channel=0, note=46, velocity=0, time=1),\n",
      "    Message('note_on', channel=0, note=45, velocity=0, time=0),\n",
      "    Message('note_on', channel=0, note=57, velocity=0, time=0),\n",
      "    Message('note_on', channel=0, note=43, velocity=0, time=1),\n",
      "    Message('note_on', channel=0, note=31, velocity=0, time=0),\n",
      "    Message('control_change', channel=0, control=64, value=0, time=0),\n",
      "    Message('note_on', channel=0, note=32, velocity=0, time=0),\n",
      "    Message('note_on', channel=0, note=44, velocity=0, time=1),\n",
      "    Message('note_on', channel=0, note=66, velocity=0, time=4),\n",
      "    Message('note_on', channel=0, note=42, velocity=0, time=7),\n",
      "    Message('note_on', channel=0, note=68, velocity=0, time=0),\n",
      "    Message('note_on', channel=0, note=55, velocity=0, time=8),\n",
      "    Message('note_on', channel=0, note=65, velocity=0, time=0),\n",
      "    Message('control_change', channel=0, control=64, value=127, time=276),\n",
      "    Message('note_on', channel=0, note=41, velocity=41, time=1070),\n",
      "    Message('note_on', channel=0, note=48, velocity=0, time=52),\n",
      "    Message('note_on', channel=0, note=48, velocity=46, time=4),\n",
      "    Message('note_on', channel=0, note=53, velocity=40, time=47),\n",
      "    Message('note_on', channel=0, note=72, velocity=0, time=33),\n",
      "    Message('note_on', channel=0, note=81, velocity=79, time=7),\n",
      "    Message('note_on', channel=0, note=60, velocity=0, time=1),\n",
      "    Message('control_change', channel=0, control=64, value=0, time=1),\n",
      "    Message('note_on', channel=0, note=69, velocity=73, time=1),\n",
      "    Message('note_on', channel=0, note=72, velocity=77, time=0),\n",
      "    Message('note_on', channel=0, note=60, velocity=66, time=9),\n",
      "    Message('note_on', channel=0, note=64, velocity=0, time=4),\n",
      "    Message('note_on', channel=0, note=36, velocity=0, time=8),\n",
      "    Message('control_change', channel=0, control=64, value=127, time=46),\n",
      "    Message('note_on', channel=0, note=47, velocity=36, time=418),\n",
      "    Message('note_on', channel=0, note=71, velocity=48, time=1),\n",
      "    Message('note_on', channel=0, note=35, velocity=36, time=0),\n",
      "    Message('note_on', channel=0, note=59, velocity=42, time=4),\n",
      "    Message('note_on', channel=0, note=48, velocity=0, time=161),\n",
      "    Message('note_on', channel=0, note=60, velocity=0, time=0),\n",
      "    Message('note_on', channel=0, note=72, velocity=0, time=0),\n",
      "    Message('note_on', channel=0, note=72, velocity=46, time=4),\n",
      "    Message('note_on', channel=0, note=48, velocity=45, time=0),\n",
      "    Message('note_on', channel=0, note=60, velocity=46, time=1),\n",
      "    Message('note_on', channel=0, note=36, velocity=39, time=2),\n",
      "    Message('note_on', channel=0, note=69, velocity=0, time=100),\n",
      "    Message('note_on', channel=0, note=72, velocity=0, time=0),\n",
      "    Message('note_on', channel=0, note=69, velocity=42, time=6),\n",
      "    Message('note_on', channel=0, note=72, velocity=49, time=0),\n",
      "    Message('note_on', channel=0, note=48, velocity=0, time=17),\n",
      "    Message('note_on', channel=0, note=60, velocity=0, time=0),\n",
      "    Message('note_on', channel=0, note=60, velocity=35, time=6),\n",
      "    Message('note_on', channel=0, note=36, velocity=0, time=2),\n",
      "    Message('note_on', channel=0, note=48, velocity=38, time=4),\n",
      "    Message('note_on', channel=0, note=36, velocity=29, time=0),\n",
      "    Message('note_on', channel=0, note=36, velocity=0, time=65),\n",
      "    Message('note_on', channel=0, note=48, velocity=0, time=0),\n",
      "    Message('note_on', channel=0, note=60, velocity=0, time=0),\n",
      "    Message('note_on', channel=0, note=72, velocity=0, time=0),\n",
      "    Message('note_on', channel=0, note=72, velocity=63, time=5),\n",
      "    Message('note_on', channel=0, note=48, velocity=54, time=0),\n",
      "    Message('note_on', channel=0, note=36, velocity=44, time=2),\n",
      "    Message('note_on', channel=0, note=60, velocity=49, time=3),\n",
      "    Message('note_on', channel=0, note=73, velocity=68, time=102),\n",
      "    Message('note_on', channel=0, note=61, velocity=51, time=8),\n",
      "    Message('note_on', channel=0, note=37, velocity=51, time=1),\n",
      "    Message('note_on', channel=0, note=49, velocity=55, time=0),\n",
      "    Message('note_on', channel=0, note=61, velocity=0, time=94),\n",
      "    Message('note_on', channel=0, note=73, velocity=0, time=0),\n",
      "    Message('note_on', channel=0, note=73, velocity=61, time=5),\n",
      "    Message('note_on', channel=0, note=37, velocity=0, time=3),\n",
      "    Message('note_on', channel=0, note=49, velocity=0, time=0),\n",
      "    Message('note_on', channel=0, note=61, velocity=58, time=3),\n",
      "    Message('note_on', channel=0, note=49, velocity=54, time=4),\n",
      "    Message('note_on', channel=0, note=37, velocity=49, time=2),\n",
      "    Message('note_on', channel=0, note=61, velocity=0, time=68),\n",
      "    Message('note_on', channel=0, note=73, velocity=0, time=0),\n",
      "    Message('note_on', channel=0, note=73, velocity=63, time=8),\n",
      "    Message('note_on', channel=0, note=61, velocity=56, time=2),\n",
      "    Message('note_on', channel=0, note=74, velocity=74, time=113),\n",
      "    Message('note_on', channel=0, note=62, velocity=71, time=2),\n",
      "    Message('note_on', channel=0, note=50, velocity=64, time=2),\n",
      "    Message('note_on', channel=0, note=69, velocity=0, time=2),\n",
      "    Message('note_on', channel=0, note=38, velocity=57, time=5),\n",
      "    Message('note_on', channel=0, note=75, velocity=73, time=93),\n",
      "    Message('note_on', channel=0, note=51, velocity=61, time=5),\n",
      "    Message('note_on', channel=0, note=39, velocity=51, time=2),\n",
      "    Message('note_on', channel=0, note=63, velocity=61, time=1),\n",
      "    Message('note_on', channel=0, note=60, velocity=0, time=202),\n",
      "    Message('note_on', channel=0, note=63, velocity=0, time=0),\n",
      "    Message('note_on', channel=0, note=72, velocity=0, time=0),\n",
      "    Message('note_on', channel=0, note=75, velocity=0, time=0),\n",
      "    Message('note_on', channel=0, note=79, velocity=81, time=3),\n",
      "    Message('note_on', channel=0, note=75, velocity=71, time=1),\n",
      "    Message('note_on', channel=0, note=72, velocity=70, time=2),\n",
      "    Message('note_on', channel=0, note=67, velocity=70, time=0),\n",
      "    Message('note_on', channel=0, note=51, velocity=0, time=2),\n",
      "    Message('note_on', channel=0, note=60, velocity=69, time=2),\n",
      "    Message('note_on', channel=0, note=63, velocity=73, time=2),\n",
      "    Message('note_on', channel=0, note=71, velocity=0, time=2),\n",
      "    Message('note_on', channel=0, note=47, velocity=0, time=2),\n",
      "    Message('note_on', channel=0, note=39, velocity=0, time=0),\n",
      "    Message('note_on', channel=0, note=59, velocity=0, time=1),\n",
      "    Message('note_on', channel=0, note=37, velocity=0, time=0),\n",
      "    Message('note_on', channel=0, note=73, velocity=0, time=1),\n",
      "    Message('note_on', channel=0, note=36, velocity=0, time=0),\n",
      "    Message('note_on', channel=0, note=48, velocity=0, time=0),\n",
      "    Message('control_change', channel=0, control=64, value=0, time=0),\n",
      "    Message('note_on', channel=0, note=38, velocity=0, time=0),\n",
      "    Message('note_on', channel=0, note=53, velocity=0, time=0),\n",
      "    Message('note_on', channel=0, note=62, velocity=0, time=1),\n",
      "    Message('note_on', channel=0, note=61, velocity=0, time=0),\n",
      "    Message('note_on', channel=0, note=50, velocity=0, time=0),\n",
      "    Message('note_on', channel=0, note=81, velocity=0, time=0),\n",
      "    Message('note_on', channel=0, note=51, velocity=59, time=0),\n",
      "    Message('note_on', channel=0, note=74, velocity=0, time=1),\n",
      "    Message('note_on', channel=0, note=55, velocity=60, time=1),\n",
      "    Message('note_on', channel=0, note=35, velocity=0, time=10),\n",
      "    Message('note_on', channel=0, note=41, velocity=0, time=0),\n",
      "    Message('note_on', channel=0, note=49, velocity=0, time=0),\n",
      "    Message('control_change', channel=0, control=64, value=127, time=77),\n",
      "    Message('note_on', channel=0, note=72, velocity=0, time=407),\n",
      "    Message('note_on', channel=0, note=72, velocity=46, time=7),\n",
      "    Message('note_on', channel=0, note=60, velocity=0, time=1),\n",
      "    Message('note_on', channel=0, note=48, velocity=44, time=3),\n",
      "    Message('note_on', channel=0, note=60, velocity=42, time=1),\n",
      "    Message('note_on', channel=0, note=36, velocity=37, time=0),\n",
      "    Message('note_on', channel=0, note=73, velocity=57, time=164),\n",
      "    Message('note_on', channel=0, note=61, velocity=51, time=2),\n",
      "    Message('note_on', channel=0, note=49, velocity=52, time=3),\n",
      "    Message('note_on', channel=0, note=37, velocity=47, time=0),\n",
      "    Message('note_on', channel=0, note=73, velocity=0, time=103),\n",
      "    Message('note_on', channel=0, note=37, velocity=0, time=8),\n",
      "    Message('note_on', channel=0, note=49, velocity=0, time=0),\n",
      "    Message('note_on', channel=0, note=61, velocity=0, time=0),\n",
      "    Message('note_on', channel=0, note=73, velocity=61, time=1),\n",
      "    Message('note_on', channel=0, note=61, velocity=54, time=3),\n",
      "    Message('note_on', channel=0, note=37, velocity=47, time=6),\n",
      "    Message('note_on', channel=0, note=49, velocity=50, time=1),\n",
      "    Message('note_on', channel=0, note=61, velocity=0, time=89),\n",
      "    Message('note_on', channel=0, note=73, velocity=0, time=0),\n",
      "    Message('note_on', channel=0, note=73, velocity=66, time=6),\n",
      "    Message('note_on', channel=0, note=37, velocity=0, time=1),\n",
      "    Message('note_on', channel=0, note=49, velocity=0, time=0),\n",
      "    Message('note_on', channel=0, note=61, velocity=63, time=4),\n",
      "    Message('note_on', channel=0, note=49, velocity=53, time=0),\n",
      "    Message('note_on', channel=0, note=37, velocity=50, time=5),\n",
      "    Message('note_on', channel=0, note=50, velocity=61, time=102),\n",
      "    Message('note_on', channel=0, note=74, velocity=69, time=0),\n",
      "    Message('note_on', channel=0, note=62, velocity=58, time=2),\n",
      "    Message('note_on', channel=0, note=38, velocity=50, time=5),\n",
      "    Message('note_on', channel=0, note=50, velocity=0, time=90),\n",
      "    Message('note_on', channel=0, note=62, velocity=0, time=0),\n",
      "    Message('note_on', channel=0, note=38, velocity=0, time=7),\n",
      "    Message('note_on', channel=0, note=74, velocity=0, time=0),\n",
      "    Message('note_on', channel=0, note=50, velocity=59, time=3),\n",
      "    Message('note_on', channel=0, note=62, velocity=63, time=1),\n",
      "    Message('note_on', channel=0, note=74, velocity=59, time=0),\n",
      "    Message('note_on', channel=0, note=38, velocity=51, time=3),\n",
      "    Message('note_on', channel=0, note=50, velocity=0, time=85),\n",
      "    Message('note_on', channel=0, note=38, velocity=0, time=8),\n",
      "    Message('note_on', channel=0, note=62, velocity=0, time=0),\n",
      "    Message('note_on', channel=0, note=74, velocity=0, time=0),\n",
      "    Message('note_on', channel=0, note=50, velocity=56, time=2),\n",
      "    Message('note_on', channel=0, note=38, velocity=59, time=2),\n",
      "    Message('note_on', channel=0, note=74, velocity=66, time=2),\n",
      "    Message('note_on', channel=0, note=62, velocity=59, time=1),\n",
      "    Message('note_on', channel=0, note=51, velocity=0, time=101),\n",
      "    Message('note_on', channel=0, note=75, velocity=0, time=0),\n",
      "    Message('note_on', channel=0, note=51, velocity=61, time=7),\n",
      "    Message('note_on', channel=0, note=63, velocity=0, time=0),\n",
      "    Message('note_on', channel=0, note=39, velocity=57, time=4),\n",
      "    Message('note_on', channel=0, note=75, velocity=78, time=0),\n",
      "    Message('note_on', channel=0, note=63, velocity=69, time=0),\n",
      "    Message('note_on', channel=0, note=63, velocity=0, time=150),\n",
      "    Message('note_on', channel=0, note=72, velocity=0, time=0),\n",
      "    Message('note_on', channel=0, note=81, velocity=85, time=6),\n",
      "    Message('note_on', channel=0, note=38, velocity=0, time=2),\n",
      "    Message('note_on', channel=0, note=50, velocity=0, time=0),\n",
      "    Message('note_on', channel=0, note=67, velocity=0, time=0),\n",
      "    Message('note_on', channel=0, note=75, velocity=0, time=0),\n",
      "    Message('note_on', channel=0, note=63, velocity=70, time=1),\n",
      "    Message('note_on', channel=0, note=72, velocity=82, time=1),\n",
      "    Message('note_on', channel=0, note=75, velocity=78, time=2),\n",
      "    Message('note_on', channel=0, note=67, velocity=73, time=0),\n",
      "    Message('note_on', channel=0, note=81, velocity=0, time=3),\n",
      "    Message('note_on', channel=0, note=38, velocity=63, time=4),\n",
      "    Message('note_on', channel=0, note=50, velocity=63, time=0),\n",
      "    Message('note_on', channel=0, note=37, velocity=0, time=155),\n",
      "    Message('note_on', channel=0, note=39, velocity=0, time=1),\n",
      "    Message('note_on', channel=0, note=73, velocity=0, time=1),\n",
      "    Message('note_on', channel=0, note=75, velocity=0, time=1),\n",
      "    Message('note_on', channel=0, note=63, velocity=0, time=1),\n",
      "    Message('note_on', channel=0, note=48, velocity=0, time=0),\n",
      "    Message('note_on', channel=0, note=49, velocity=0, time=0),\n",
      "    Message('note_on', channel=0, note=67, velocity=0, time=0),\n",
      "    Message('note_on', channel=0, note=55, velocity=0, time=0),\n",
      "    Message('note_on', channel=0, note=61, velocity=0, time=0),\n",
      "    Message('note_on', channel=0, note=79, velocity=0, time=2),\n",
      "    Message('control_change', channel=0, control=64, value=0, time=0),\n",
      "    Message('note_on', channel=0, note=36, velocity=0, time=4),\n",
      "    Message('note_on', channel=0, note=62, velocity=0, time=0),\n",
      "    Message('note_on', channel=0, note=72, velocity=0, time=0),\n",
      "    Message('note_on', channel=0, note=74, velocity=0, time=0),\n",
      "    Message('note_on', channel=0, note=78, velocity=82, time=4),\n",
      "    Message('note_on', channel=0, note=74, velocity=75, time=1),\n",
      "    Message('note_on', channel=0, note=38, velocity=0, time=3),\n",
      "    Message('note_on', channel=0, note=50, velocity=0, time=0),\n",
      "    Message('note_on', channel=0, note=51, velocity=0, time=0),\n",
      "    Message('note_on', channel=0, note=60, velocity=0, time=0),\n",
      "    Message('note_on', channel=0, note=72, velocity=71, time=1),\n",
      "    Message('note_on', channel=0, note=66, velocity=72, time=2),\n",
      "    Message('note_on', channel=0, note=62, velocity=76, time=0),\n",
      "    Message('note_on', channel=0, note=50, velocity=67, time=2),\n",
      "    Message('note_on', channel=0, note=60, velocity=60, time=3),\n",
      "    Message('note_on', channel=0, note=38, velocity=57, time=3),\n",
      "    Message('note_on', channel=0, note=38, velocity=0, time=81),\n",
      "    Message('control_change', channel=0, control=64, value=127, time=0),\n",
      "    Message('note_on', channel=0, note=73, velocity=43, time=388),\n",
      "    Message('note_on', channel=0, note=61, velocity=43, time=0),\n",
      "    Message('note_on', channel=0, note=49, velocity=45, time=1),\n",
      "    Message('note_on', channel=0, note=37, velocity=33, time=7),\n",
      "    Message('note_on', channel=0, note=37, velocity=0, time=11),\n",
      "    Message('note_on', channel=0, note=50, velocity=0, time=92),\n",
      "    Message('note_on', channel=0, note=62, velocity=0, time=0),\n",
      "    Message('note_on', channel=0, note=74, velocity=0, time=0),\n",
      "    Message('note_on', channel=0, note=50, velocity=48, time=4),\n",
      "    Message('note_on', channel=0, note=62, velocity=56, time=5),\n",
      "    Message('note_on', channel=0, note=74, velocity=54, time=1),\n",
      "    Message('note_on', channel=0, note=38, velocity=40, time=0),\n",
      "    Message('note_on', channel=0, note=74, velocity=0, time=98),\n",
      "    Message('note_on', channel=0, note=74, velocity=63, time=5),\n",
      "    Message('note_on', channel=0, note=62, velocity=0, time=2),\n",
      "    Message('note_on', channel=0, note=62, velocity=51, time=5),\n",
      "    Message('note_on', channel=0, note=38, velocity=0, time=3),\n",
      "    Message('note_on', channel=0, note=50, velocity=0, time=0),\n",
      "    Message('note_on', channel=0, note=50, velocity=42, time=4),\n",
      "    Message('note_on', channel=0, note=38, velocity=41, time=8),\n",
      "    Message('note_on', channel=0, note=50, velocity=0, time=88),\n",
      "    Message('note_on', channel=0, note=62, velocity=0, time=0),\n",
      "    Message('note_on', channel=0, note=74, velocity=0, time=0),\n",
      "    Message('note_on', channel=0, note=50, velocity=52, time=6),\n",
      "    Message('note_on', channel=0, note=38, velocity=0, time=2),\n",
      "    Message('note_on', channel=0, note=62, velocity=58, time=2),\n",
      "    Message('note_on', channel=0, note=74, velocity=58, time=0),\n",
      "    Message('note_on', channel=0, note=38, velocity=49, time=2),\n",
      "    Message('note_on', channel=0, note=75, velocity=67, time=110),\n",
      "    Message('note_on', channel=0, note=63, velocity=56, time=6),\n",
      "    Message('note_on', channel=0, note=51, velocity=50, time=1),\n",
      "    Message('note_on', channel=0, note=39, velocity=49, time=3),\n",
      "    Message('note_on', channel=0, note=75, velocity=0, time=83),\n",
      "    Message('note_on', channel=0, note=75, velocity=72, time=11),\n",
      "    Message('note_on', channel=0, note=39, velocity=0, time=4),\n",
      "    Message('note_on', channel=0, note=51, velocity=0, time=0),\n",
      "    Message('note_on', channel=0, note=63, velocity=0, time=0),\n",
      "    Message('note_on', channel=0, note=63, velocity=56, time=5),\n",
      "    Message('note_on', channel=0, note=39, velocity=46, time=0),\n",
      "    Message('note_on', channel=0, note=51, velocity=49, time=2),\n",
      "    Message('note_on', channel=0, note=51, velocity=0, time=78),\n",
      "    Message('note_on', channel=0, note=75, velocity=0, time=0),\n",
      "    Message('note_on', channel=0, note=39, velocity=0, time=8),\n",
      "    Message('note_on', channel=0, note=63, velocity=0, time=0),\n",
      "    Message('note_on', channel=0, note=75, velocity=71, time=1),\n",
      "    Message('note_on', channel=0, note=51, velocity=55, time=2),\n",
      "    Message('note_on', channel=0, note=63, velocity=50, time=4),\n",
      "    Message('note_on', channel=0, note=39, velocity=48, time=4),\n",
      "    Message('note_on', channel=0, note=76, velocity=75, time=93),\n",
      "    Message('note_on', channel=0, note=52, velocity=63, time=6),\n",
      "    Message('note_on', channel=0, note=64, velocity=66, time=1),\n",
      "    Message('note_on', channel=0, note=40, velocity=53, time=1),\n",
      "    Message('note_on', channel=0, note=40, velocity=0, time=87),\n",
      "    Message('note_on', channel=0, note=52, velocity=0, time=0),\n",
      "    Message('note_on', channel=0, note=64, velocity=0, time=0),\n",
      "    Message('note_on', channel=0, note=76, velocity=0, time=0),\n",
      "    Message('note_on', channel=0, note=76, velocity=63, time=6),\n",
      "    Message('note_on', channel=0, note=64, velocity=61, time=0),\n",
      "    Message('note_on', channel=0, note=52, velocity=54, time=3),\n",
      "    Message('note_on', channel=0, note=40, velocity=52, time=2),\n",
      "    Message('note_on', channel=0, note=76, velocity=0, time=81),\n",
      "    Message('note_on', channel=0, note=76, velocity=70, time=9),\n",
      "    Message('note_on', channel=0, note=64, velocity=0, time=7),\n",
      "    Message('note_on', channel=0, note=64, velocity=58, time=6),\n",
      "    Message('note_on', channel=0, note=40, velocity=0, time=1),\n",
      "    Message('note_on', channel=0, note=52, velocity=0, time=0),\n",
      "    Message('note_on', channel=0, note=40, velocity=53, time=4),\n",
      "    Message('note_on', channel=0, note=52, velocity=59, time=0),\n",
      "    Message('note_on', channel=0, note=77, velocity=73, time=102),\n",
      "    Message('note_on', channel=0, note=65, velocity=59, time=6),\n",
      "    Message('note_on', channel=0, note=53, velocity=61, time=0),\n",
      "    Message('note_on', channel=0, note=41, velocity=60, time=3),\n",
      "    Message('note_on', channel=0, note=53, velocity=0, time=85),\n",
      "    Message('note_on', channel=0, note=65, velocity=0, time=0),\n",
      "    Message('note_on', channel=0, note=77, velocity=0, time=0),\n",
      "    Message('note_on', channel=0, note=77, velocity=83, time=7),\n",
      "    Message('note_on', channel=0, note=41, velocity=0, time=1),\n",
      "    Message('note_on', channel=0, note=65, velocity=68, time=2),\n",
      "    Message('note_on', channel=0, note=53, velocity=61, time=2),\n",
      "    Message('note_on', channel=0, note=41, velocity=65, time=2),\n",
      "    Message('note_on', channel=0, note=41, velocity=0, time=101),\n",
      "    Message('note_on', channel=0, note=53, velocity=0, time=0),\n",
      "    Message('note_on', channel=0, note=65, velocity=0, time=0),\n",
      "    Message('note_on', channel=0, note=77, velocity=0, time=0),\n",
      "    Message('note_on', channel=0, note=77, velocity=76, time=5),\n",
      "    Message('note_on', channel=0, note=65, velocity=65, time=1),\n",
      "    Message('note_on', channel=0, note=53, velocity=64, time=3),\n",
      "    Message('note_on', channel=0, note=41, velocity=65, time=1),\n",
      "    Message('note_on', channel=0, note=78, velocity=0, time=90),\n",
      "    Message('note_on', channel=0, note=66, velocity=0, time=8),\n",
      "    Message('note_on', channel=0, note=78, velocity=78, time=4),\n",
      "    Message('note_on', channel=0, note=66, velocity=70, time=7),\n",
      "    Message('note_on', channel=0, note=54, velocity=71, time=0),\n",
      "    Message('note_on', channel=0, note=42, velocity=63, time=0),\n",
      "    Message('note_on', channel=0, note=42, velocity=0, time=89),\n",
      "    Message('note_on', channel=0, note=54, velocity=0, time=0),\n",
      "    Message('note_on', channel=0, note=66, velocity=0, time=0),\n",
      "    Message('note_on', channel=0, note=78, velocity=0, time=0),\n",
      "    Message('note_on', channel=0, note=78, velocity=80, time=7),\n",
      "    Message('note_on', channel=0, note=54, velocity=70, time=2),\n",
      "    Message('note_on', channel=0, note=42, velocity=67, time=0),\n",
      "    Message('note_on', channel=0, note=66, velocity=70, time=2),\n",
      "    Message('note_on', channel=0, note=42, velocity=0, time=104),\n",
      "    Message('note_on', channel=0, note=66, velocity=0, time=0),\n",
      "    Message('note_on', channel=0, note=78, velocity=0, time=0),\n",
      "    Message('note_on', channel=0, note=54, velocity=0, time=8),\n",
      "    Message('note_on', channel=0, note=78, velocity=76, time=2),\n",
      "    Message('note_on', channel=0, note=42, velocity=68, time=1),\n",
      "    Message('note_on', channel=0, note=66, velocity=75, time=0),\n",
      "    Message('note_on', channel=0, note=54, velocity=63, time=1),\n",
      "    Message('note_on', channel=0, note=79, velocity=80, time=121),\n",
      "    Message('note_on', channel=0, note=43, velocity=67, time=1),\n",
      "    Message('note_on', channel=0, note=55, velocity=68, time=1),\n",
      "    Message('note_on', channel=0, note=67, velocity=70, time=0),\n",
      "    Message('note_on', channel=0, note=75, velocity=0, time=3),\n",
      "    Message('note_on', channel=0, note=75, velocity=57, time=11),\n",
      "    Message('note_on', channel=0, note=80, velocity=90, time=85),\n",
      "    Message('note_on', channel=0, note=68, velocity=84, time=4),\n",
      "    Message('note_on', channel=0, note=56, velocity=74, time=3),\n",
      "    Message('note_on', channel=0, note=44, velocity=65, time=3),\n",
      "    Message('note_on', channel=0, note=44, velocity=0, time=94),\n",
      "    Message('note_on', channel=0, note=56, velocity=0, time=0),\n",
      "    Message('note_on', channel=0, note=68, velocity=0, time=0),\n",
      "    Message('note_on', channel=0, note=80, velocity=0, time=0),\n",
      "    Message('note_on', channel=0, note=80, velocity=83, time=9),\n",
      "    Message('note_on', channel=0, note=56, velocity=77, time=1),\n",
      "    Message('note_on', channel=0, note=68, velocity=81, time=1),\n",
      "    Message('note_on', channel=0, note=44, velocity=68, time=0),\n",
      "    Message('note_on', channel=0, note=45, velocity=73, time=121),\n",
      "    Message('note_on', channel=0, note=81, velocity=88, time=0),\n",
      "    Message('note_on', channel=0, note=57, velocity=79, time=2),\n",
      "    Message('note_on', channel=0, note=93, velocity=80, time=0),\n",
      "    Message('note_on', channel=0, note=69, velocity=77, time=1),\n",
      "    Message('note_on', channel=0, note=93, velocity=0, time=11),\n",
      "    Message('note_on', channel=0, note=94, velocity=83, time=95),\n",
      "    Message('note_on', channel=0, note=58, velocity=74, time=1),\n",
      "    Message('note_on', channel=0, note=82, velocity=90, time=0),\n",
      "    Message('note_on', channel=0, note=46, velocity=65, time=0),\n",
      "    Message('note_on', channel=0, note=70, velocity=86, time=1),\n",
      "    Message('note_on', channel=0, note=94, velocity=0, time=3),\n",
      "    Message('note_on', channel=0, note=72, velocity=0, time=76),\n",
      "    Message('note_on', channel=0, note=60, velocity=0, time=8),\n",
      "    Message('note_on', channel=0, note=62, velocity=0, time=4),\n",
      "    Message('note_on', channel=0, note=80, velocity=0, time=0),\n",
      "    Message('note_on', channel=0, note=66, velocity=0, time=0),\n",
      "    Message('note_on', channel=0, note=81, velocity=0, time=1),\n",
      "    Message('note_on', channel=0, note=42, velocity=0, time=0),\n",
      "    Message('note_on', channel=0, note=54, velocity=0, time=0),\n",
      "    Message('note_on', channel=0, note=65, velocity=0, time=0),\n",
      "    Message('note_on', channel=0, note=77, velocity=0, time=0),\n",
      "    Message('note_on', channel=0, note=53, velocity=0, time=0),\n",
      "    Message('note_on', channel=0, note=67, velocity=0, time=0),\n",
      "    Message('note_on', channel=0, note=56, velocity=0, time=0),\n",
      "    Message('note_on', channel=0, note=68, velocity=0, time=0),\n",
      "    Message('note_on', channel=0, note=82, velocity=0, time=0),\n",
      "    Message('note_on', channel=0, note=79, velocity=0, time=0),\n",
      "    Message('note_on', channel=0, note=41, velocity=0, time=0),\n",
      "    Message('note_on', channel=0, note=64, velocity=0, time=0),\n",
      "    Message('note_on', channel=0, note=49, velocity=0, time=0),\n",
      "    Message('note_on', channel=0, note=50, velocity=0, time=0),\n",
      "    Message('note_on', channel=0, note=69, velocity=0, time=0),\n",
      "    Message('note_on', channel=0, note=63, velocity=0, time=0),\n",
      "    Message('note_on', channel=0, note=40, velocity=0, time=1),\n",
      "    Message('note_on', channel=0, note=76, velocity=0, time=0),\n",
      "    Message('note_on', channel=0, note=78, velocity=0, time=0),\n",
      "    Message('note_on', channel=0, note=55, velocity=0, time=0),\n",
      "    Message('note_on', channel=0, note=52, velocity=0, time=0),\n",
      "    Message('note_on', channel=0, note=57, velocity=0, time=0),\n",
      "    Message('note_on', channel=0, note=75, velocity=0, time=0),\n",
      "    Message('note_on', channel=0, note=38, velocity=0, time=0),\n",
      "    Message('note_on', channel=0, note=46, velocity=0, time=0),\n",
      "    Message('note_on', channel=0, note=43, velocity=0, time=0),\n",
      "    Message('note_on', channel=0, note=44, velocity=0, time=1),\n",
      "    Message('note_on', channel=0, note=70, velocity=0, time=0),\n",
      "    Message('note_on', channel=0, note=58, velocity=0, time=2),\n",
      "    Message('note_on', channel=0, note=45, velocity=0, time=0),\n",
      "    Message('control_change', channel=0, control=64, value=0, time=3),\n",
      "    Message('note_on', channel=0, note=39, velocity=0, time=3),\n",
      "    Message('note_on', channel=0, note=51, velocity=0, time=0),\n",
      "    Message('note_on', channel=0, note=61, velocity=0, time=0),\n",
      "    Message('note_on', channel=0, note=73, velocity=0, time=0),\n",
      "    Message('note_on', channel=0, note=74, velocity=0, time=0),\n",
      "    Message('note_on', channel=0, note=43, velocity=70, time=53),\n",
      "    Message('note_on', channel=0, note=55, velocity=55, time=2),\n",
      "    Message('note_on', channel=0, note=83, velocity=91, time=96),\n",
      "    Message('note_on', channel=0, note=74, velocity=79, time=2),\n",
      "    Message('note_on', channel=0, note=71, velocity=89, time=4),\n",
      "    Message('note_on', channel=0, note=59, velocity=87, time=2),\n",
      "    Message('note_on', channel=0, note=50, velocity=60, time=7),\n",
      "    Message('control_change', channel=0, control=64, value=127, time=11),\n",
      "    Message('note_on', channel=0, note=51, velocity=57, time=4),\n",
      "    Message('note_on', channel=0, note=55, velocity=0, time=142),\n",
      "    Message('note_on', channel=0, note=61, velocity=53, time=242),\n",
      "    Message('note_on', channel=0, note=73, velocity=58, time=0),\n",
      "    Message('note_on', channel=0, note=49, velocity=50, time=14),\n",
      "    Message('note_on', channel=0, note=37, velocity=40, time=5),\n",
      "    Message('note_on', channel=0, note=37, velocity=0, time=8),\n",
      "    Message('note_on', channel=0, note=50, velocity=0, time=77),\n",
      "    Message('note_on', channel=0, note=74, velocity=0, time=0),\n",
      "    Message('note_on', channel=0, note=50, velocity=62, time=3),\n",
      "    Message('note_on', channel=0, note=74, velocity=64, time=5),\n",
      "    Message('note_on', channel=0, note=38, velocity=54, time=0),\n",
      "    Message('note_on', channel=0, note=62, velocity=57, time=2),\n",
      "    Message('note_on', channel=0, note=50, velocity=0, time=105),\n",
      "    Message('note_on', channel=0, note=62, velocity=0, time=0),\n",
      "    Message('note_on', channel=0, note=74, velocity=0, time=0),\n",
      "    Message('note_on', channel=0, note=74, velocity=69, time=4),\n",
      "    Message('note_on', channel=0, note=50, velocity=54, time=3),\n",
      "    Message('note_on', channel=0, note=38, velocity=0, time=0),\n",
      "    Message('note_on', channel=0, note=62, velocity=56, time=2),\n",
      "    Message('note_on', channel=0, note=38, velocity=45, time=3),\n",
      "    Message('note_on', channel=0, note=50, velocity=0, time=103),\n",
      "    Message('note_on', channel=0, note=62, velocity=0, time=0),\n",
      "    Message('note_on', channel=0, note=74, velocity=0, time=0),\n",
      "    Message('note_on', channel=0, note=50, velocity=66, time=6),\n",
      "    Message('note_on', channel=0, note=38, velocity=0, time=2),\n",
      "    Message('note_on', channel=0, note=74, velocity=63, time=2),\n",
      "    Message('note_on', channel=0, note=62, velocity=59, time=1),\n",
      "    Message('note_on', channel=0, note=38, velocity=50, time=2),\n",
      "    Message('note_on', channel=0, note=75, velocity=68, time=107),\n",
      "    Message('note_on', channel=0, note=51, velocity=0, time=3),\n",
      "    Message('note_on', channel=0, note=63, velocity=62, time=3),\n",
      "    Message('note_on', channel=0, note=51, velocity=58, time=3),\n",
      "    Message('note_on', channel=0, note=39, velocity=51, time=4),\n",
      "    Message('note_on', channel=0, note=63, velocity=0, time=90),\n",
      "    Message('note_on', channel=0, note=75, velocity=0, time=0),\n",
      "    Message('note_on', channel=0, note=75, velocity=75, time=5),\n",
      "    Message('note_on', channel=0, note=39, velocity=0, time=2),\n",
      "    Message('note_on', channel=0, note=51, velocity=0, time=0),\n",
      "    Message('note_on', channel=0, note=63, velocity=64, time=2),\n",
      "    Message('note_on', channel=0, note=51, velocity=55, time=4),\n",
      "    Message('note_on', channel=0, note=39, velocity=53, time=1),\n",
      "    Message('note_on', channel=0, note=63, velocity=0, time=86),\n",
      "    Message('note_on', channel=0, note=75, velocity=0, time=0),\n",
      "    Message('note_on', channel=0, note=75, velocity=70, time=5),\n",
      "    Message('note_on', channel=0, note=39, velocity=0, time=2),\n",
      "    Message('note_on', channel=0, note=51, velocity=0, time=0),\n",
      "    Message('note_on', channel=0, note=63, velocity=62, time=2),\n",
      "    Message('note_on', channel=0, note=51, velocity=64, time=4),\n",
      "    Message('note_on', channel=0, note=39, velocity=48, time=5),\n",
      "    Message('note_on', channel=0, note=76, velocity=74, time=96),\n",
      "    Message('note_on', channel=0, note=64, velocity=73, time=3),\n",
      "    Message('note_on', channel=0, note=52, velocity=64, time=1),\n",
      "    Message('note_on', channel=0, note=40, velocity=54, time=1),\n",
      "    Message('note_on', channel=0, note=77, velocity=88, time=100),\n",
      "    Message('note_on', channel=0, note=65, velocity=78, time=3),\n",
      "    Message('note_on', channel=0, note=53, velocity=61, time=12),\n",
      "    Message('note_on', channel=0, note=41, velocity=53, time=5),\n",
      "    Message('note_on', channel=0, note=68, velocity=50, time=8),\n",
      "    Message('note_on', channel=0, note=68, velocity=0, time=6),\n",
      "    Message('note_on', channel=0, note=53, velocity=0, time=253),\n",
      "    Message('note_on', channel=0, note=62, velocity=0, time=0),\n",
      "    Message('note_on', channel=0, note=65, velocity=0, time=0),\n",
      "    Message('note_on', channel=0, note=71, velocity=0, time=0),\n",
      "    Message('note_on', channel=0, note=74, velocity=0, time=0),\n",
      "    Message('note_on', channel=0, note=77, velocity=0, time=0),\n",
      "    Message('note_on', channel=0, note=62, velocity=74, time=4),\n",
      "    Message('note_on', channel=0, note=81, velocity=92, time=0),\n",
      "    Message('note_on', channel=0, note=65, velocity=77, time=2),\n",
      "    Message('note_on', channel=0, note=59, velocity=0, time=2),\n",
      "    Message('note_on', channel=0, note=77, velocity=78, time=2),\n",
      "    Message('note_on', channel=0, note=53, velocity=68, time=0),\n",
      "    Message('note_on', channel=0, note=69, velocity=84, time=0),\n",
      "    Message('note_on', channel=0, note=74, velocity=77, time=1),\n",
      "    Message('note_on', channel=0, note=57, velocity=71, time=0),\n",
      "    Message('note_on', channel=0, note=71, velocity=84, time=1),\n",
      "    Message('note_on', channel=0, note=59, velocity=70, time=1),\n",
      "    Message('note_on', channel=0, note=64, velocity=0, time=29),\n",
      "    Message('control_change', channel=0, control=64, value=0, time=0),\n",
      "    Message('note_on', channel=0, note=51, velocity=0, time=2),\n",
      "    Message('note_on', channel=0, note=76, velocity=0, time=0),\n",
      "    Message('note_on', channel=0, note=39, velocity=0, time=1),\n",
      "    Message('note_on', channel=0, note=73, velocity=0, time=1),\n",
      "    Message('note_on', channel=0, note=40, velocity=0, time=1),\n",
      "    Message('note_on', channel=0, note=63, velocity=0, time=0),\n",
      "    Message('note_on', channel=0, note=49, velocity=0, time=0),\n",
      "    Message('note_on', channel=0, note=38, velocity=0, time=1),\n",
      "    Message('note_on', channel=0, note=50, velocity=0, time=0),\n",
      "    Message('note_on', channel=0, note=75, velocity=0, time=0),\n",
      "    Message('note_on', channel=0, note=43, velocity=0, time=1),\n",
      "    Message('note_on', channel=0, note=61, velocity=0, time=0),\n",
      "    Message('note_on', channel=0, note=52, velocity=0, time=1),\n",
      "    Message('note_on', channel=0, note=83, velocity=0, time=4),\n",
      "    Message('note_on', channel=0, note=41, velocity=0, time=8),\n",
      "    Message('control_change', channel=0, control=64, value=127, time=38),\n",
      "    Message('note_on', channel=0, note=62, velocity=0, time=307),\n",
      "    Message('note_on', channel=0, note=74, velocity=0, time=0),\n",
      "    Message('note_on', channel=0, note=50, velocity=59, time=5),\n",
      "    Message('note_on', channel=0, note=74, velocity=65, time=0),\n",
      "    Message('note_on', channel=0, note=62, velocity=57, time=1),\n",
      "    Message('note_on', channel=0, note=38, velocity=51, time=5),\n",
      "    Message('note_on', channel=0, note=75, velocity=66, time=184),\n",
      "    Message('note_on', channel=0, note=63, velocity=57, time=1),\n",
      "    Message('note_on', channel=0, note=51, velocity=53, time=0),\n",
      "    Message('note_on', channel=0, note=39, velocity=46, time=5),\n",
      "    Message('note_on', channel=0, note=39, velocity=0, time=91),\n",
      "    Message('note_on', channel=0, note=51, velocity=0, time=0),\n",
      "    Message('note_on', channel=0, note=75, velocity=0, time=0),\n",
      "    Message('note_on', channel=0, note=63, velocity=0, time=8),\n",
      "    Message('note_on', channel=0, note=51, velocity=52, time=2),\n",
      "    Message('note_on', channel=0, note=75, velocity=70, time=0),\n",
      "    Message('note_on', channel=0, note=39, velocity=50, time=2),\n",
      "    Message('note_on', channel=0, note=63, velocity=55, time=1),\n",
      "    Message('note_on', channel=0, note=39, velocity=0, time=95),\n",
      "    Message('note_on', channel=0, note=51, velocity=0, time=0),\n",
      "    Message('note_on', channel=0, note=63, velocity=0, time=0),\n",
      "    Message('note_on', channel=0, note=75, velocity=0, time=0),\n",
      "    Message('note_on', channel=0, note=51, velocity=56, time=4),\n",
      "    Message('note_on', channel=0, note=39, velocity=49, time=5),\n",
      "    Message('note_on', channel=0, note=75, velocity=63, time=1),\n",
      "    Message('note_on', channel=0, note=63, velocity=62, time=0),\n",
      "    Message('note_on', channel=0, note=52, velocity=69, time=109),\n",
      "    Message('note_on', channel=0, note=40, velocity=64, time=5),\n",
      "    Message('note_on', channel=0, note=76, velocity=76, time=1),\n",
      "    Message('note_on', channel=0, note=64, velocity=74, time=1),\n",
      "    Message('note_on', channel=0, note=52, velocity=0, time=89),\n",
      "    Message('note_on', channel=0, note=40, velocity=0, time=8),\n",
      "    Message('note_on', channel=0, note=64, velocity=0, time=0),\n",
      "    Message('note_on', channel=0, note=76, velocity=0, time=0),\n",
      "    Message('note_on', channel=0, note=52, velocity=66, time=3),\n",
      "    Message('note_on', channel=0, note=76, velocity=66, time=1),\n",
      "    Message('note_on', channel=0, note=40, velocity=63, time=0),\n",
      "    Message('note_on', channel=0, note=64, velocity=65, time=4),\n",
      "    Message('note_on', channel=0, note=40, velocity=0, time=91),\n",
      "    Message('note_on', channel=0, note=52, velocity=0, time=0),\n",
      "    Message('note_on', channel=0, note=64, velocity=0, time=0),\n",
      "    Message('note_on', channel=0, note=76, velocity=0, time=0),\n",
      "    Message('note_on', channel=0, note=52, velocity=64, time=4),\n",
      "    Message('note_on', channel=0, note=64, velocity=71, time=1),\n",
      "    Message('note_on', channel=0, note=76, velocity=68, time=1),\n",
      "    Message('note_on', channel=0, note=40, velocity=62, time=0),\n",
      "    Message('note_on', channel=0, note=77, velocity=0, time=94),\n",
      "    Message('note_on', channel=0, note=53, velocity=0, time=8),\n",
      "    Message('note_on', channel=0, note=65, velocity=0, time=0),\n",
      "    Message('note_on', channel=0, note=77, velocity=85, time=3),\n",
      "    Message('note_on', channel=0, note=65, velocity=62, time=3),\n",
      "    Message('note_on', channel=0, note=53, velocity=60, time=3),\n",
      "    Message('note_on', channel=0, note=41, velocity=55, time=2),\n",
      "    Message('note_on', channel=0, note=67, velocity=56, time=2),\n",
      "    Message('note_on', channel=0, note=55, velocity=39, time=16),\n",
      "    Message('note_on', channel=0, note=55, velocity=0, time=9),\n",
      "    Message('note_on', channel=0, note=62, velocity=0, time=146),\n",
      "    Message('note_on', channel=0, note=71, velocity=0, time=0),\n",
      "    Message('note_on', channel=0, note=83, velocity=86, time=5),\n",
      "    Message('note_on', channel=0, note=53, velocity=0, time=3),\n",
      "    Message('note_on', channel=0, note=57, velocity=0, time=0),\n",
      "    Message('note_on', channel=0, note=74, velocity=0, time=0),\n",
      "    Message('note_on', channel=0, note=62, velocity=65, time=1),\n",
      "    Message('note_on', channel=0, note=71, velocity=81, time=2),\n",
      "    Message('note_on', channel=0, note=53, velocity=59, time=2),\n",
      "    Message('note_on', channel=0, note=74, velocity=78, time=2),\n",
      "    Message('note_on', channel=0, note=69, velocity=0, time=1),\n",
      "    Message('note_on', channel=0, note=81, velocity=0, time=0),\n",
      "    Message('note_on', channel=0, note=57, velocity=64, time=2),\n",
      "    Message('note_on', channel=0, note=69, velocity=79, time=2),\n",
      "    Message('note_on', channel=0, note=81, velocity=74, time=5),\n",
      "    Message('note_on', channel=0, note=62, velocity=0, time=152),\n",
      "    Message('note_on', channel=0, note=38, velocity=0, time=0),\n",
      "    Message('note_on', channel=0, note=53, velocity=0, time=0),\n",
      "    Message('note_on', channel=0, note=50, velocity=0, time=1),\n",
      "    Message('note_on', channel=0, note=41, velocity=0, time=0),\n",
      "    Message('note_on', channel=0, note=65, velocity=0, time=0),\n",
      "    Message('note_on', channel=0, note=67, velocity=0, time=0),\n",
      "    Message('note_on', channel=0, note=75, velocity=0, time=0),\n",
      "    Message('note_on', channel=0, note=77, velocity=0, time=0),\n",
      "    Message('note_on', channel=0, note=69, velocity=0, time=1),\n",
      "    Message('note_on', channel=0, note=51, velocity=0, time=0),\n",
      "    Message('note_on', channel=0, note=81, velocity=0, time=0),\n",
      "    Message('control_change', channel=0, control=64, value=0, time=0),\n",
      "    Message('note_on', channel=0, note=57, velocity=0, time=0),\n",
      "    Message('note_on', channel=0, note=83, velocity=0, time=0),\n",
      "    Message('note_on', channel=0, note=63, velocity=0, time=0),\n",
      "    Message('note_on', channel=0, note=39, velocity=0, time=6),\n",
      "    Message('note_on', channel=0, note=52, velocity=0, time=0),\n",
      "    Message('note_on', channel=0, note=59, velocity=0, time=0),\n",
      "    Message('note_on', channel=0, note=64, velocity=0, time=0),\n",
      "    Message('note_on', channel=0, note=71, velocity=0, time=0),\n",
      "    Message('note_on', channel=0, note=76, velocity=0, time=0),\n",
      "    Message('note_on', channel=0, note=80, velocity=79, time=3),\n",
      "    Message('note_on', channel=0, note=68, velocity=87, time=2),\n",
      "    Message('note_on', channel=0, note=64, velocity=83, time=3),\n",
      "    Message('note_on', channel=0, note=71, velocity=69, time=1),\n",
      "    Message('note_on', channel=0, note=76, velocity=78, time=1),\n",
      "    Message('note_on', channel=0, note=59, velocity=69, time=0),\n",
      "    Message('note_on', channel=0, note=52, velocity=66, time=0),\n",
      "    Message('note_on', channel=0, note=56, velocity=66, time=1),\n",
      "    Message('control_change', channel=0, control=64, value=127, time=81),\n",
      "    Message('note_on', channel=0, note=40, velocity=0, time=384),\n",
      "    Message('note_on', channel=0, note=75, velocity=59, time=12),\n",
      "    Message('note_on', channel=0, note=51, velocity=51, time=4),\n",
      "    Message('note_on', channel=0, note=63, velocity=51, time=0),\n",
      "    Message('note_on', channel=0, note=39, velocity=43, time=4),\n",
      "    Message('note_on', channel=0, note=52, velocity=0, time=126),\n",
      "    Message('note_on', channel=0, note=64, velocity=0, time=0),\n",
      "    Message('note_on', channel=0, note=76, velocity=0, time=0),\n",
      "    Message('note_on', channel=0, note=76, velocity=63, time=4),\n",
      "    Message('note_on', channel=0, note=64, velocity=62, time=0),\n",
      "    Message('note_on', channel=0, note=52, velocity=53, time=3),\n",
      "    Message('note_on', channel=0, note=40, velocity=46, time=0),\n",
      "    Message('note_on', channel=0, note=40, velocity=0, time=108),\n",
      "    Message('note_on', channel=0, note=52, velocity=0, time=0),\n",
      "    Message('note_on', channel=0, note=64, velocity=0, time=0),\n",
      "    Message('note_on', channel=0, note=76, velocity=0, time=0),\n",
      "    Message('note_on', channel=0, note=76, velocity=68, time=6),\n",
      "    Message('note_on', channel=0, note=68, velocity=0, time=1),\n",
      "    Message('note_on', channel=0, note=64, velocity=57, time=3),\n",
      "    Message('note_on', channel=0, note=52, velocity=54, time=1),\n",
      "    Message('note_on', channel=0, note=40, velocity=56, time=0),\n",
      "    Message('note_on', channel=0, note=68, velocity=51, time=3),\n",
      "    Message('note_on', channel=0, note=52, velocity=0, time=86),\n",
      "    Message('note_on', channel=0, note=64, velocity=0, time=0),\n",
      "    Message('note_on', channel=0, note=76, velocity=0, time=0),\n",
      "    Message('note_on', channel=0, note=40, velocity=0, time=7),\n",
      "    Message('note_on', channel=0, note=76, velocity=67, time=0),\n",
      "    Message('note_on', channel=0, note=64, velocity=63, time=3),\n",
      "    Message('note_on', channel=0, note=52, velocity=65, time=1),\n",
      "    Message('note_on', channel=0, note=40, velocity=53, time=7),\n",
      "    Message('note_on', channel=0, note=77, velocity=76, time=94),\n",
      "    Message('note_on', channel=0, note=65, velocity=67, time=4),\n",
      "    Message('note_on', channel=0, note=41, velocity=58, time=3),\n",
      "    Message('note_on', channel=0, note=53, velocity=58, time=0),\n",
      "    Message('note_on', channel=0, note=77, velocity=0, time=88),\n",
      "    Message('note_on', channel=0, note=40, velocity=0, time=8),\n",
      "    Message('note_on', channel=0, note=41, velocity=0, time=0),\n",
      "    Message('note_on', channel=0, note=53, velocity=0, time=0),\n",
      "    Message('note_on', channel=0, note=77, velocity=75, time=3),\n",
      "    Message('note_on', channel=0, note=40, velocity=60, time=3),\n",
      "    Message('note_on', channel=0, note=41, velocity=62, time=1),\n",
      "    Message('note_on', channel=0, note=65, velocity=0, time=0),\n",
      "    Message('note_on', channel=0, note=53, velocity=60, time=2),\n",
      "    Message('note_on', channel=0, note=65, velocity=53, time=2),\n",
      "    Message('note_on', channel=0, note=41, velocity=0, time=104),\n",
      "    Message('note_on', channel=0, note=53, velocity=0, time=0),\n",
      "    Message('note_on', channel=0, note=65, velocity=0, time=0),\n",
      "    Message('note_on', channel=0, note=77, velocity=0, time=0),\n",
      "    Message('note_on', channel=0, note=77, velocity=77, time=5),\n",
      "    Message('note_on', channel=0, note=65, velocity=70, time=4),\n",
      "    Message('note_on', channel=0, note=53, velocity=59, time=2),\n",
      "    Message('note_on', channel=0, note=41, velocity=62, time=0),\n",
      "    Message('note_on', channel=0, note=78, velocity=80, time=88),\n",
      "    Message('note_on', channel=0, note=66, velocity=70, time=6),\n",
      "    Message('note_on', channel=0, note=42, velocity=61, time=13),\n",
      "    Message('note_on', channel=0, note=54, velocity=60, time=1),\n",
      "    Message('note_on', channel=0, note=42, velocity=0, time=81),\n",
      "    Message('note_on', channel=0, note=54, velocity=0, time=0),\n",
      "    Message('note_on', channel=0, note=66, velocity=0, time=0),\n",
      "    Message('note_on', channel=0, note=78, velocity=0, time=0),\n",
      "    Message('note_on', channel=0, note=54, velocity=69, time=9),\n",
      "    Message('note_on', channel=0, note=42, velocity=65, time=1),\n",
      "    Message('note_on', channel=0, note=78, velocity=74, time=0),\n",
      "    Message('note_on', channel=0, note=66, velocity=71, time=1),\n",
      "    Message('note_on', channel=0, note=42, velocity=0, time=96),\n",
      "    Message('note_on', channel=0, note=78, velocity=0, time=0),\n",
      "    Message('note_on', channel=0, note=78, velocity=85, time=6),\n",
      "    Message('note_on', channel=0, note=41, velocity=0, time=2),\n",
      "    Message('note_on', channel=0, note=53, velocity=0, time=0),\n",
      "    Message('note_on', channel=0, note=54, velocity=0, time=0),\n",
      "    Message('note_on', channel=0, note=66, velocity=0, time=0),\n",
      "    Message('note_on', channel=0, note=42, velocity=65, time=3),\n",
      "    Message('note_on', channel=0, note=66, velocity=69, time=1),\n",
      "    Message('note_on', channel=0, note=41, velocity=58, time=0),\n",
      "    Message('note_on', channel=0, note=54, velocity=63, time=2),\n",
      "    Message('note_on', channel=0, note=53, velocity=61, time=5),\n",
      "    Message('note_on', channel=0, note=55, velocity=75, time=116),\n",
      "    Message('note_on', channel=0, note=43, velocity=69, time=1),\n",
      "    Message('note_on', channel=0, note=79, velocity=83, time=1),\n",
      "    Message('note_on', channel=0, note=67, velocity=71, time=4),\n",
      "    Message('note_on', channel=0, note=74, velocity=0, time=13),\n",
      "    Message('note_on', channel=0, note=52, velocity=0, time=56),\n",
      "    Message('note_on', channel=0, note=59, velocity=0, time=0),\n",
      "    Message('note_on', channel=0, note=71, velocity=0, time=1),\n",
      "    Message('note_on', channel=0, note=56, velocity=0, time=0),\n",
      "    Message('note_on', channel=0, note=66, velocity=0, time=0),\n",
      "    Message('note_on', channel=0, note=75, velocity=0, time=0),\n",
      "    Message('note_on', channel=0, note=65, velocity=0, time=0),\n",
      "    Message('note_on', channel=0, note=42, velocity=0, time=0),\n",
      "    Message('note_on', channel=0, note=77, velocity=0, time=0),\n",
      "    Message('note_on', channel=0, note=64, velocity=0, time=0),\n",
      "    Message('note_on', channel=0, note=40, velocity=0, time=0),\n",
      "    Message('note_on', channel=0, note=41, velocity=0, time=1),\n",
      "    Message('note_on', channel=0, note=53, velocity=0, time=0),\n",
      "    Message('note_on', channel=0, note=54, velocity=0, time=0),\n",
      "    Message('note_on', channel=0, note=68, velocity=0, time=0),\n",
      "    Message('note_on', channel=0, note=51, velocity=0, time=0),\n",
      "    Message('note_on', channel=0, note=63, velocity=0, time=0),\n",
      "    Message('note_on', channel=0, note=78, velocity=0, time=0),\n",
      "    Message('control_change', channel=0, control=64, value=0, time=1),\n",
      "    Message('note_on', channel=0, note=80, velocity=0, time=2),\n",
      "    Message('note_on', channel=0, note=39, velocity=0, time=8),\n",
      "    Message('note_on', channel=0, note=76, velocity=0, time=0),\n",
      "    Message('note_on', channel=0, note=43, velocity=0, time=7),\n",
      "    Message('note_on', channel=0, note=55, velocity=0, time=0),\n",
      "    Message('note_on', channel=0, note=67, velocity=0, time=0),\n",
      "    Message('note_on', channel=0, note=79, velocity=0, time=0),\n",
      "    Message('note_on', channel=0, note=79, velocity=81, time=6),\n",
      "    Message('note_on', channel=0, note=67, velocity=74, time=4),\n",
      "    Message('note_on', channel=0, note=55, velocity=74, time=1),\n",
      "    Message('note_on', channel=0, note=43, velocity=72, time=1),\n",
      "    Message('control_change', channel=0, control=64, value=127, time=35),\n",
      "    Message('note_on', channel=0, note=67, velocity=0, time=69),\n",
      "    Message('note_on', channel=0, note=79, velocity=0, time=0),\n",
      "    Message('note_on', channel=0, note=43, velocity=0, time=7),\n",
      "    Message('note_on', channel=0, note=55, velocity=0, time=0),\n",
      "    Message('note_on', channel=0, note=79, velocity=87, time=2),\n",
      "    Message('note_on', channel=0, note=67, velocity=76, time=1),\n",
      "    Message('note_on', channel=0, note=55, velocity=70, time=1),\n",
      "    Message('note_on', channel=0, note=43, velocity=62, time=1),\n",
      "    Message('control_change', channel=0, control=64, value=0, time=94),\n",
      "    Message('note_on', channel=0, note=67, velocity=0, time=24),\n",
      "    Message('note_on', channel=0, note=79, velocity=0, time=0),\n",
      "    Message('note_on', channel=0, note=56, velocity=76, time=3),\n",
      "    Message('note_on', channel=0, note=43, velocity=0, time=0),\n",
      "    Message('note_on', channel=0, note=79, velocity=80, time=3),\n",
      "    Message('note_on', channel=0, note=44, velocity=72, time=0),\n",
      "    Message('note_on', channel=0, note=67, velocity=75, time=4),\n",
      "    Message('note_on', channel=0, note=77, velocity=67, time=2),\n",
      "    Message('control_change', channel=0, control=64, value=127, time=4),\n",
      "    Message('note_on', channel=0, note=55, velocity=0, time=53),\n",
      "    Message('note_on', channel=0, note=56, velocity=0, time=22),\n",
      "    Message('note_on', channel=0, note=67, velocity=0, time=32),\n",
      "    Message('note_on', channel=0, note=77, velocity=0, time=0),\n",
      "    Message('note_on', channel=0, note=79, velocity=0, time=0),\n",
      "    Message('note_on', channel=0, note=79, velocity=80, time=6),\n",
      "    Message('note_on', channel=0, note=57, velocity=71, time=4),\n",
      "    Message('note_on', channel=0, note=45, velocity=72, time=1),\n",
      "    Message('note_on', channel=0, note=69, velocity=69, time=0),\n",
      "    Message('note_on', channel=0, note=67, velocity=72, time=0),\n",
      "    Message('note_on', channel=0, note=77, velocity=73, time=1),\n",
      "    Message('note_on', channel=0, note=69, velocity=0, time=3),\n",
      "    Message('note_on', channel=0, note=44, velocity=0, time=24),\n",
      "    Message('note_on', channel=0, note=67, velocity=0, time=84),\n",
      "    Message('note_on', channel=0, note=77, velocity=0, time=0),\n",
      "    Message('note_on', channel=0, note=79, velocity=0, time=0),\n",
      "    Message('note_on', channel=0, note=79, velocity=86, time=4),\n",
      "    Message('note_on', channel=0, note=58, velocity=86, time=1),\n",
      "    Message('note_on', channel=0, note=67, velocity=77, time=0),\n",
      "    Message('note_on', channel=0, note=70, velocity=75, time=0),\n",
      "    Message('note_on', channel=0, note=46, velocity=75, time=1),\n",
      "    Message('note_on', channel=0, note=77, velocity=78, time=4),\n",
      "    Message('note_on', channel=0, note=70, velocity=0, time=5),\n",
      "    Message('note_on', channel=0, note=67, velocity=0, time=116),\n",
      "    Message('note_on', channel=0, note=79, velocity=0, time=0),\n",
      "    Message('note_on', channel=0, note=59, velocity=79, time=1),\n",
      "    Message('note_on', channel=0, note=71, velocity=78, time=1),\n",
      "    Message('note_on', channel=0, note=47, velocity=77, time=0),\n",
      "    Message('note_on', channel=0, note=79, velocity=88, time=2),\n",
      "    Message('note_on', channel=0, note=67, velocity=76, time=1),\n",
      "    Message('note_on', channel=0, note=71, velocity=0, time=2),\n",
      "    Message('note_on', channel=0, note=77, velocity=0, time=0),\n",
      "    Message('note_on', channel=0, note=77, velocity=66, time=6),\n",
      "    Message('note_on', channel=0, note=67, velocity=0, time=109),\n",
      "    Message('note_on', channel=0, note=77, velocity=0, time=0),\n",
      "    Message('note_on', channel=0, note=79, velocity=0, time=0),\n",
      "    Message('note_on', channel=0, note=79, velocity=83, time=10),\n",
      "    Message('note_on', channel=0, note=60, velocity=78, time=0),\n",
      "    Message('note_on', channel=0, note=67, velocity=75, time=1),\n",
      "    Message('note_on', channel=0, note=77, velocity=76, time=1),\n",
      "    Message('note_on', channel=0, note=48, velocity=80, time=0),\n",
      "    Message('note_on', channel=0, note=67, velocity=0, time=127),\n",
      "    Message('note_on', channel=0, note=79, velocity=0, time=0),\n",
      "    Message('note_on', channel=0, note=79, velocity=90, time=4),\n",
      "    Message('note_on', channel=0, note=61, velocity=83, time=0),\n",
      "    Message('note_on', channel=0, note=67, velocity=79, time=2),\n",
      "    Message('note_on', channel=0, note=49, velocity=76, time=2),\n",
      "    Message('note_on', channel=0, note=58, velocity=0, time=125),\n",
      "    Message('note_on', channel=0, note=46, velocity=0, time=1),\n",
      "    Message('note_on', channel=0, note=61, velocity=0, time=0),\n",
      "    Message('note_on', channel=0, note=49, velocity=0, time=1),\n",
      "    Message('note_on', channel=0, note=57, velocity=0, time=0),\n",
      "    Message('note_on', channel=0, note=47, velocity=0, time=0),\n",
      "    Message('note_on', channel=0, note=48, velocity=0, time=0),\n",
      "    Message('note_on', channel=0, note=59, velocity=0, time=0),\n",
      "    Message('note_on', channel=0, note=60, velocity=0, time=1),\n",
      "    Message('control_change', channel=0, control=64, value=0, time=1),\n",
      "    Message('note_on', channel=0, note=67, velocity=0, time=1),\n",
      "    Message('note_on', channel=0, note=77, velocity=0, time=0),\n",
      "    Message('note_on', channel=0, note=79, velocity=0, time=0),\n",
      "    Message('note_on', channel=0, note=79, velocity=82, time=5),\n",
      "    Message('note_on', channel=0, note=67, velocity=78, time=2),\n",
      "    Message('note_on', channel=0, note=45, velocity=0, time=1),\n",
      "    Message('note_on', channel=0, note=77, velocity=77, time=1),\n",
      "    Message('note_on', channel=0, note=62, velocity=79, time=1),\n",
      "    Message('note_on', channel=0, note=50, velocity=72, time=2),\n",
      "    Message('note_on', channel=0, note=62, velocity=0, time=53),\n",
      "    Message('note_on', channel=0, note=67, velocity=0, time=1),\n",
      "    Message('note_on', channel=0, note=77, velocity=0, time=2),\n",
      "    Message('note_on', channel=0, note=50, velocity=0, time=0),\n",
      "    Message('note_on', channel=0, note=79, velocity=0, time=3),\n",
      "    Message('control_change', channel=0, control=64, value=127, time=44),\n",
      "    Message('note_on', channel=0, note=79, velocity=86, time=50),\n",
      "    Message('note_on', channel=0, note=63, velocity=82, time=0),\n",
      "    Message('note_on', channel=0, note=67, velocity=83, time=0),\n",
      "    Message('note_on', channel=0, note=51, velocity=75, time=1),\n",
      "    Message('note_on', channel=0, note=77, velocity=81, time=7),\n",
      "    Message('note_on', channel=0, note=77, velocity=0, time=158),\n",
      "    Message('note_on', channel=0, note=79, velocity=0, time=2),\n",
      "    Message('note_on', channel=0, note=63, velocity=0, time=0),\n",
      "    Message('note_on', channel=0, note=51, velocity=0, time=1),\n",
      "    Message('note_on', channel=0, note=67, velocity=0, time=0),\n",
      "    Message('control_change', channel=0, control=64, value=0, time=4),\n",
      "    Message('note_on', channel=0, note=48, velocity=62, time=18),\n",
      "    Message('note_on', channel=0, note=48, velocity=0, time=74),\n",
      "    Message('control_change', channel=0, control=64, value=127, time=8),\n",
      "    Message('note_on', channel=0, note=55, velocity=58, time=56),\n",
      "    Message('note_on', channel=0, note=60, velocity=74, time=6),\n",
      "    Message('note_on', channel=0, note=88, velocity=92, time=18),\n",
      "    Message('note_on', channel=0, note=79, velocity=82, time=0),\n",
      "    Message('note_on', channel=0, note=76, velocity=89, time=1),\n",
      "    Message('note_on', channel=0, note=64, velocity=86, time=1),\n",
      "    Message('note_on', channel=0, note=85, velocity=45, time=14),\n",
      "    Message('note_on', channel=0, note=42, velocity=77, time=448),\n",
      "    Message('note_on', channel=0, note=55, velocity=0, time=1),\n",
      "    Message('note_on', channel=0, note=43, velocity=80, time=4),\n",
      "    Message('note_on', channel=0, note=54, velocity=63, time=1),\n",
      "    Message('note_on', channel=0, note=55, velocity=70, time=6),\n",
      "    Message('note_on', channel=0, note=57, velocity=56, time=2),\n",
      "    Message('note_on', channel=0, note=57, velocity=0, time=87),\n",
      "    Message('note_on', channel=0, note=43, velocity=0, time=7),\n",
      "    Message('note_on', channel=0, note=57, velocity=66, time=4),\n",
      "    Message('note_on', channel=0, note=55, velocity=0, time=4),\n",
      "    Message('note_on', channel=0, note=43, velocity=62, time=2),\n",
      "    Message('note_on', channel=0, note=45, velocity=56, time=3),\n",
      "    Message('note_on', channel=0, note=55, velocity=61, time=1),\n",
      "    Message('note_on', channel=0, note=57, velocity=0, time=86),\n",
      "    Message('note_on', channel=0, note=57, velocity=65, time=5),\n",
      "    Message('note_on', channel=0, note=60, velocity=0, time=3),\n",
      "    Message('note_on', channel=0, note=43, velocity=0, time=31),\n",
      "    Message('note_on', channel=0, note=43, velocity=56, time=4),\n",
      "    Message('note_on', channel=0, note=55, velocity=0, time=19),\n",
      "    Message('note_on', channel=0, note=55, velocity=55, time=11),\n",
      "    Message('note_on', channel=0, note=45, velocity=0, time=50),\n",
      "    Message('note_on', channel=0, note=57, velocity=0, time=0),\n",
      "    Message('note_on', channel=0, note=57, velocity=58, time=9),\n",
      "    Message('note_on', channel=0, note=45, velocity=48, time=1),\n",
      "    Message('note_on', channel=0, note=43, velocity=0, time=36),\n",
      "    Message('note_on', channel=0, note=55, velocity=0, time=0),\n",
      "    Message('note_on', channel=0, note=55, velocity=60, time=10),\n",
      "    Message('note_on', channel=0, note=43, velocity=61, time=1),\n",
      "    Message('note_on', channel=0, note=45, velocity=0, time=58),\n",
      "    Message('note_on', channel=0, note=57, velocity=0, time=0),\n",
      "    Message('note_on', channel=0, note=57, velocity=65, time=5),\n",
      "    Message('note_on', channel=0, note=45, velocity=54, time=1),\n",
      "    Message('note_on', channel=0, note=43, velocity=0, time=48),\n",
      "    Message('note_on', channel=0, note=55, velocity=0, time=0),\n",
      "    Message('note_on', channel=0, note=55, velocity=57, time=10),\n",
      "    Message('note_on', channel=0, note=43, velocity=58, time=2),\n",
      "    Message('note_on', channel=0, note=57, velocity=0, time=50),\n",
      "    Message('note_on', channel=0, note=57, velocity=65, time=6),\n",
      "    Message('note_on', channel=0, note=45, velocity=0, time=1),\n",
      "    Message('note_on', channel=0, note=45, velocity=56, time=5),\n",
      "    Message('note_on', channel=0, note=43, velocity=0, time=72),\n",
      "    Message('note_on', channel=0, note=55, velocity=0, time=0),\n",
      "    Message('note_on', channel=0, note=43, velocity=57, time=4),\n",
      "    Message('note_on', channel=0, note=55, velocity=57, time=0),\n",
      "    Message('note_on', channel=0, note=57, velocity=0, time=27),\n",
      "    Message('note_on', channel=0, note=45, velocity=0, time=7),\n",
      "    Message('note_on', channel=0, note=57, velocity=60, time=4),\n",
      "    Message('note_on', channel=0, note=45, velocity=48, time=1),\n",
      "    Message('note_on', channel=0, note=55, velocity=0, time=49),\n",
      "    Message('note_on', channel=0, note=55, velocity=63, time=12),\n",
      "    Message('note_on', channel=0, note=45, velocity=0, time=50),\n",
      "    Message('note_on', channel=0, note=57, velocity=0, time=0),\n",
      "    Message('note_on', channel=0, note=45, velocity=50, time=4),\n",
      "    Message('note_on', channel=0, note=57, velocity=62, time=1),\n",
      "    Message('note_on', channel=0, note=55, velocity=0, time=56),\n",
      "    Message('note_on', channel=0, note=43, velocity=0, time=8),\n",
      "    Message('note_on', channel=0, note=55, velocity=59, time=2),\n",
      "    Message('note_on', channel=0, note=43, velocity=49, time=8),\n",
      "    Message('note_on', channel=0, note=57, velocity=0, time=28),\n",
      "    Message('note_on', channel=0, note=57, velocity=61, time=12),\n",
      "    Message('note_on', channel=0, note=42, velocity=0, time=111),\n",
      "    Message('note_on', channel=0, note=54, velocity=0, time=0),\n",
      "    Message('note_on', channel=0, note=54, velocity=66, time=7),\n",
      "    Message('note_on', channel=0, note=42, velocity=64, time=4),\n",
      "    Message('note_on', channel=0, note=43, velocity=0, time=74),\n",
      "    Message('note_on', channel=0, note=55, velocity=0, time=0),\n",
      "    Message('note_on', channel=0, note=55, velocity=77, time=4),\n",
      "    Message('note_on', channel=0, note=43, velocity=72, time=2),\n",
      "    Message('note_on', channel=0, note=43, velocity=0, time=285),\n",
      "    Message('note_on', channel=0, note=76, velocity=0, time=0),\n",
      "    Message('note_on', channel=0, note=79, velocity=0, time=0),\n",
      "    Message('note_on', channel=0, note=88, velocity=0, time=0),\n",
      "    Message('note_on', channel=0, note=88, velocity=93, time=4),\n",
      "    Message('note_on', channel=0, note=76, velocity=91, time=2),\n",
      "    Message('note_on', channel=0, note=79, velocity=87, time=1),\n",
      "    Message('note_on', channel=0, note=64, velocity=0, time=1),\n",
      "    Message('note_on', channel=0, note=43, velocity=84, time=4),\n",
      "    Message('note_on', channel=0, note=54, velocity=0, time=0),\n",
      "    Message('note_on', channel=0, note=42, velocity=0, time=0),\n",
      "    Message('note_on', channel=0, note=31, velocity=88, time=0),\n",
      "    Message('control_change', channel=0, control=64, value=0, time=1),\n",
      "    Message('note_on', channel=0, note=55, velocity=0, time=0),\n",
      "    Message('note_on', channel=0, note=45, velocity=0, time=1),\n",
      "    Message('note_on', channel=0, note=57, velocity=0, time=17),\n",
      "    Message('note_on', channel=0, note=85, velocity=0, time=0),\n",
      "    Message('control_change', channel=0, control=64, value=127, time=62),\n",
      "    Message('note_on', channel=0, note=55, velocity=52, time=279),\n",
      "    Message('note_on', channel=0, note=62, velocity=45, time=85),\n",
      "    Message('note_on', channel=0, note=86, velocity=90, time=43),\n",
      "    Message('note_on', channel=0, note=71, velocity=82, time=3),\n",
      "    Message('note_on', channel=0, note=74, velocity=86, time=0),\n",
      "    Message('note_on', channel=0, note=77, velocity=84, time=1),\n",
      "    Message('note_on', channel=0, note=55, velocity=0, time=364),\n",
      "    Message('note_on', channel=0, note=55, velocity=37, time=7),\n",
      "    Message('note_on', channel=0, note=57, velocity=39, time=12),\n",
      "    Message('note_on', channel=0, note=64, velocity=55, time=73),\n",
      "    Message('note_on', channel=0, note=76, velocity=0, time=23),\n",
      "    Message('note_on', channel=0, note=79, velocity=0, time=0),\n",
      "    Message('note_on', channel=0, note=88, velocity=0, time=0),\n",
      "    Message('note_on', channel=0, note=72, velocity=88, time=11),\n",
      "    Message('note_on', channel=0, note=84, velocity=80, time=0),\n",
      "    Message('note_on', channel=0, note=79, velocity=86, time=1),\n",
      "    Message('note_on', channel=0, note=88, velocity=91, time=0),\n",
      "    Message('note_on', channel=0, note=76, velocity=91, time=0),\n",
      "    Message('control_change', channel=0, control=64, value=0, time=10),\n",
      "    Message('note_on', channel=0, note=71, velocity=0, time=1),\n",
      "    Message('note_on', channel=0, note=77, velocity=0, time=3),\n",
      "    Message('note_on', channel=0, note=74, velocity=0, time=0),\n",
      "    Message('note_on', channel=0, note=86, velocity=0, time=1),\n",
      "    Message('note_on', channel=0, note=62, velocity=0, time=4),\n",
      "    Message('note_on', channel=0, note=31, velocity=0, time=8),\n",
      "    Message('note_on', channel=0, note=43, velocity=0, time=15),\n",
      "    Message('note_on', channel=0, note=57, velocity=0, time=8),\n",
      "    Message('control_change', channel=0, control=64, value=127, time=8),\n",
      "    Message('note_on', channel=0, note=55, velocity=0, time=192),\n",
      "    Message('note_on', channel=0, note=55, velocity=50, time=10),\n",
      "    Message('note_on', channel=0, note=79, velocity=0, time=151),\n",
      "    Message('note_on', channel=0, note=79, velocity=56, time=6),\n",
      "    Message('note_on', channel=0, note=67, velocity=52, time=0),\n",
      "    Message('note_on', channel=0, note=89, velocity=92, time=77),\n",
      "    Message('note_on', channel=0, note=79, velocity=0, time=1),\n",
      "    Message('note_on', channel=0, note=83, velocity=85, time=4),\n",
      "    Message('note_on', channel=0, note=86, velocity=83, time=0),\n",
      "    Message('note_on', channel=0, note=77, velocity=86, time=0),\n",
      "    Message('note_on', channel=0, note=74, velocity=77, time=0),\n",
      "    Message('note_on', channel=0, note=79, velocity=84, time=1),\n",
      "    Message('note_on', channel=0, note=48, velocity=74, time=337),\n",
      "    Message('note_on', channel=0, note=43, velocity=47, time=4),\n",
      "    Message('note_on', channel=0, note=64, velocity=0, time=8),\n",
      "    Message('note_on', channel=0, note=83, velocity=0, time=5),\n",
      "    Message('note_on', channel=0, note=79, velocity=0, time=0),\n",
      "    Message('note_on', channel=0, note=76, velocity=0, time=1),\n",
      "    Message('note_on', channel=0, note=74, velocity=0, time=0),\n",
      "    Message('note_on', channel=0, note=67, velocity=0, time=0),\n",
      "    Message('note_on', channel=0, note=86, velocity=0, time=0),\n",
      "    Message('note_on', channel=0, note=84, velocity=0, time=0),\n",
      "    Message('note_on', channel=0, note=77, velocity=0, time=1),\n",
      "    Message('note_on', channel=0, note=89, velocity=0, time=0),\n",
      "    Message('control_change', channel=0, control=64, value=0, time=1),\n",
      "    Message('note_on', channel=0, note=72, velocity=0, time=0),\n",
      "    Message('note_on', channel=0, note=55, velocity=0, time=7),\n",
      "    Message('note_on', channel=0, note=88, velocity=0, time=8),\n",
      "    Message('control_change', channel=0, control=64, value=127, time=46),\n",
      "    Message('note_on', channel=0, note=55, velocity=38, time=45),\n",
      "    Message('note_on', channel=0, note=60, velocity=56, time=76),\n",
      "    Message('note_on', channel=0, note=43, velocity=0, time=48),\n",
      "    Message('note_on', channel=0, note=84, velocity=87, time=3),\n",
      "    Message('note_on', channel=0, note=88, velocity=95, time=2),\n",
      "    Message('note_on', channel=0, note=76, velocity=96, time=2),\n",
      "    Message('note_on', channel=0, note=67, velocity=85, time=1),\n",
      "    Message('note_on', channel=0, note=79, velocity=88, time=0),\n",
      "    Message('note_on', channel=0, note=84, velocity=0, time=322),\n",
      "    Message('note_on', channel=0, note=96, velocity=92, time=3),\n",
      "    Message('note_on', channel=0, note=84, velocity=85, time=4),\n",
      "    Message('note_on', channel=0, note=60, velocity=0, time=1),\n",
      "    Message('note_on', channel=0, note=72, velocity=77, time=11),\n",
      "    Message('note_on', channel=0, note=60, velocity=73, time=0),\n",
      "    Message('note_on', channel=0, note=86, velocity=81, time=167),\n",
      "    Message('note_on', channel=0, note=98, velocity=96, time=1),\n",
      "    Message('note_on', channel=0, note=74, velocity=81, time=2),\n",
      "    Message('note_on', channel=0, note=62, velocity=71, time=6),\n",
      "    Message('note_on', channel=0, note=84, velocity=0, time=135),\n",
      "    Message('note_on', channel=0, note=96, velocity=0, time=0),\n",
      "    Message('note_on', channel=0, note=96, velocity=95, time=8),\n",
      "    Message('note_on', channel=0, note=84, velocity=87, time=4),\n",
      "    Message('note_on', channel=0, note=72, velocity=0, time=4),\n",
      "    Message('note_on', channel=0, note=60, velocity=0, time=7),\n",
      "    Message('note_on', channel=0, note=72, velocity=82, time=3),\n",
      "    Message('note_on', channel=0, note=60, velocity=65, time=2),\n",
      "    Message('note_on', channel=0, note=48, velocity=0, time=3),\n",
      "    Message('note_on', channel=0, note=48, velocity=50, time=6),\n",
      "    Message('note_on', channel=0, note=79, velocity=0, time=140),\n",
      "    Message('note_on', channel=0, note=91, velocity=92, time=11),\n",
      "    Message('note_on', channel=0, note=79, velocity=92, time=0),\n",
      "    Message('note_on', channel=0, note=67, velocity=0, time=4),\n",
      "    Message('note_on', channel=0, note=67, velocity=64, time=5),\n",
      "    Message('note_on', channel=0, note=55, velocity=0, time=3),\n",
      "    Message('note_on', channel=0, note=55, velocity=61, time=5),\n",
      "    Message('note_on', channel=0, note=93, velocity=95, time=129),\n",
      "    Message('note_on', channel=0, note=81, velocity=86, time=1),\n",
      "    Message('note_on', channel=0, note=69, velocity=72, time=6),\n",
      "    Message('note_on', channel=0, note=57, velocity=66, time=1),\n",
      "    Message('note_on', channel=0, note=79, velocity=0, time=111),\n",
      "    Message('note_on', channel=0, note=55, velocity=0, time=8),\n",
      "    Message('note_on', channel=0, note=67, velocity=0, time=0),\n",
      "    Message('note_on', channel=0, note=91, velocity=0, time=0),\n",
      "    Message('note_on', channel=0, note=79, velocity=86, time=4),\n",
      "    Message('note_on', channel=0, note=91, velocity=90, time=0),\n",
      "    Message('note_on', channel=0, note=67, velocity=70, time=6),\n",
      "    Message('note_on', channel=0, note=55, velocity=64, time=1),\n",
      "    Message('note_on', channel=0, note=76, velocity=0, time=127),\n",
      "    Message('note_on', channel=0, note=88, velocity=0, time=0),\n",
      "    Message('note_on', channel=0, note=88, velocity=89, time=8),\n",
      "    Message('note_on', channel=0, note=76, velocity=85, time=2),\n",
      "    Message('note_on', channel=0, note=64, velocity=65, time=2),\n",
      "    Message('note_on', channel=0, note=52, velocity=52, time=1),\n",
      "    Message('note_on', channel=0, note=89, velocity=88, time=116),\n",
      "    Message('note_on', channel=0, note=77, velocity=84, time=4),\n",
      "    Message('note_on', channel=0, note=65, velocity=65, time=3),\n",
      "    Message('note_on', channel=0, note=53, velocity=61, time=5),\n",
      "    Message('note_on', channel=0, note=64, velocity=0, time=105),\n",
      "    Message('note_on', channel=0, note=76, velocity=0, time=0),\n",
      "    Message('note_on', channel=0, note=88, velocity=0, time=0),\n",
      "    Message('note_on', channel=0, note=88, velocity=90, time=5),\n",
      "    Message('note_on', channel=0, note=76, velocity=84, time=1),\n",
      "    Message('note_on', channel=0, note=64, velocity=74, time=5),\n",
      "    Message('note_on', channel=0, note=52, velocity=0, time=4),\n",
      "    Message('note_on', channel=0, note=52, velocity=56, time=7),\n",
      "    Message('note_on', channel=0, note=72, velocity=0, time=109),\n",
      "    Message('note_on', channel=0, note=84, velocity=0, time=0),\n",
      "    Message('note_on', channel=0, note=84, velocity=84, time=3),\n",
      "    Message('note_on', channel=0, note=72, velocity=79, time=2),\n",
      "    Message('note_on', channel=0, note=48, velocity=0, time=2),\n",
      "    Message('note_on', channel=0, note=60, velocity=0, time=0),\n",
      "    Message('note_on', channel=0, note=60, velocity=66, time=5),\n",
      "    Message('note_on', channel=0, note=48, velocity=66, time=2),\n",
      "    Message('note_on', channel=0, note=74, velocity=0, time=101),\n",
      "    Message('note_on', channel=0, note=86, velocity=0, time=0),\n",
      "    Message('note_on', channel=0, note=62, velocity=0, time=7),\n",
      "    Message('note_on', channel=0, note=86, velocity=84, time=3),\n",
      "    Message('note_on', channel=0, note=74, velocity=81, time=1),\n",
      "    Message('note_on', channel=0, note=62, velocity=70, time=2),\n",
      "    Message('note_on', channel=0, note=50, velocity=67, time=5),\n",
      "    Message('note_on', channel=0, note=84, velocity=0, time=97),\n",
      "    Message('note_on', channel=0, note=60, velocity=0, time=8),\n",
      "    Message('note_on', channel=0, note=72, velocity=0, time=0),\n",
      "    Message('note_on', channel=0, note=84, velocity=91, time=3),\n",
      "    Message('note_on', channel=0, note=72, velocity=88, time=1),\n",
      "    Message('note_on', channel=0, note=60, velocity=71, time=0),\n",
      "    Message('note_on', channel=0, note=48, velocity=0, time=3),\n",
      "    Message('note_on', channel=0, note=48, velocity=58, time=11),\n",
      "    Message('note_on', channel=0, note=67, velocity=0, time=104),\n",
      "    Message('note_on', channel=0, note=79, velocity=0, time=0),\n",
      "    Message('note_on', channel=0, note=91, velocity=0, time=0),\n",
      "    Message('note_on', channel=0, note=55, velocity=0, time=8),\n",
      "    Message('note_on', channel=0, note=79, velocity=85, time=1),\n",
      "    Message('note_on', channel=0, note=91, velocity=77, time=2),\n",
      "    Message('note_on', channel=0, note=67, velocity=76, time=1),\n",
      "    Message('note_on', channel=0, note=55, velocity=63, time=0),\n",
      "    Message('note_on', channel=0, note=43, velocity=60, time=2),\n",
      "    Message('note_on', channel=0, note=93, velocity=0, time=102),\n",
      "    Message('note_on', channel=0, note=57, velocity=0, time=7),\n",
      "    Message('note_on', channel=0, note=69, velocity=0, time=0),\n",
      "    Message('note_on', channel=0, note=81, velocity=0, time=0),\n",
      "    Message('note_on', channel=0, note=93, velocity=83, time=4),\n",
      "    Message('note_on', channel=0, note=81, velocity=87, time=1),\n",
      "    Message('note_on', channel=0, note=69, velocity=84, time=1),\n",
      "    Message('note_on', channel=0, note=57, velocity=72, time=4),\n",
      "    Message('note_on', channel=0, note=45, velocity=65, time=4),\n",
      "    Message('note_on', channel=0, note=79, velocity=0, time=94),\n",
      "    Message('note_on', channel=0, note=55, velocity=0, time=8),\n",
      "    Message('note_on', channel=0, note=67, velocity=0, time=0),\n",
      "    Message('note_on', channel=0, note=91, velocity=0, time=0),\n",
      "    Message('note_on', channel=0, note=79, velocity=88, time=3),\n",
      "    Message('note_on', channel=0, note=91, velocity=77, time=0),\n",
      "    Message('note_on', channel=0, note=67, velocity=76, time=1),\n",
      "    Message('note_on', channel=0, note=43, velocity=0, time=3),\n",
      "    Message('note_on', channel=0, note=55, velocity=63, time=3),\n",
      "    Message('note_on', channel=0, note=43, velocity=59, time=4),\n",
      "    Message('note_on', channel=0, note=64, velocity=0, time=108),\n",
      "    Message('note_on', channel=0, note=76, velocity=0, time=0),\n",
      "    Message('note_on', channel=0, note=52, velocity=0, time=8),\n",
      "    Message('note_on', channel=0, note=64, velocity=79, time=2),\n",
      "    Message('note_on', channel=0, note=76, velocity=84, time=1),\n",
      "    Message('note_on', channel=0, note=52, velocity=68, time=3),\n",
      "    Message('note_on', channel=0, note=65, velocity=0, time=102),\n",
      "    Message('note_on', channel=0, note=77, velocity=0, time=0),\n",
      "    Message('note_on', channel=0, note=89, velocity=0, time=7),\n",
      "    Message('note_on', channel=0, note=77, velocity=86, time=3),\n",
      "    Message('note_on', channel=0, note=65, velocity=74, time=1),\n",
      "    Message('note_on', channel=0, note=89, velocity=75, time=0),\n",
      "    Message('note_on', channel=0, note=53, velocity=0, time=4),\n",
      "    Message('note_on', channel=0, note=41, velocity=67, time=1),\n",
      "    Message('note_on', channel=0, note=53, velocity=65, time=3),\n",
      "    Message('note_on', channel=0, note=64, velocity=0, time=104),\n",
      "    Message('note_on', channel=0, note=76, velocity=0, time=0),\n",
      "    Message('note_on', channel=0, note=88, velocity=0, time=0),\n",
      "    Message('note_on', channel=0, note=64, velocity=79, time=5),\n",
      "    Message('note_on', channel=0, note=76, velocity=91, time=0),\n",
      "    Message('note_on', channel=0, note=41, velocity=0, time=2),\n",
      "    Message('note_on', channel=0, note=88, velocity=75, time=2),\n",
      "    Message('note_on', channel=0, note=52, velocity=0, time=6),\n",
      "    Message('note_on', channel=0, note=41, velocity=61, time=2),\n",
      "    Message('note_on', channel=0, note=52, velocity=59, time=8),\n",
      "    Message('note_on', channel=0, note=60, velocity=0, time=105),\n",
      "    Message('note_on', channel=0, note=72, velocity=0, time=0),\n",
      "    Message('note_on', channel=0, note=72, velocity=84, time=6),\n",
      "    Message('note_on', channel=0, note=48, velocity=0, time=2),\n",
      "    Message('note_on', channel=0, note=60, velocity=77, time=2),\n",
      "    Message('note_on', channel=0, note=48, velocity=64, time=2),\n",
      "    Message('note_on', channel=0, note=36, velocity=60, time=3),\n",
      "    Message('note_on', channel=0, note=50, velocity=0, time=131),\n",
      "    Message('note_on', channel=0, note=62, velocity=0, time=0),\n",
      "    Message('note_on', channel=0, note=74, velocity=0, time=0),\n",
      "    Message('note_on', channel=0, note=74, velocity=82, time=4),\n",
      "    Message('note_on', channel=0, note=62, velocity=78, time=3),\n",
      "    Message('note_on', channel=0, note=50, velocity=67, time=4),\n",
      "    Message('note_on', channel=0, note=38, velocity=62, time=1),\n",
      "    Message('note_on', channel=0, note=36, velocity=0, time=126),\n",
      "    Message('note_on', channel=0, note=48, velocity=0, time=0),\n",
      "    Message('note_on', channel=0, note=60, velocity=0, time=0),\n",
      "    Message('note_on', channel=0, note=72, velocity=0, time=0),\n",
      "    Message('note_on', channel=0, note=72, velocity=88, time=8),\n",
      "    Message('note_on', channel=0, note=60, velocity=75, time=2),\n",
      "    Message('note_on', channel=0, note=48, velocity=61, time=2),\n",
      "    Message('note_on', channel=0, note=36, velocity=65, time=0),\n",
      "    Message('note_on', channel=0, note=57, velocity=0, time=150),\n",
      "    Message('note_on', channel=0, note=69, velocity=0, time=0),\n",
      "    Message('note_on', channel=0, note=96, velocity=0, time=0),\n",
      "    Message('note_on', channel=0, note=98, velocity=0, time=0),\n",
      "    Message('note_on', channel=0, note=45, velocity=0, time=7),\n",
      "    Message('note_on', channel=0, note=69, velocity=88, time=3),\n",
      "    Message('note_on', channel=0, note=57, velocity=79, time=0),\n",
      "    Message('note_on', channel=0, note=45, velocity=66, time=3),\n",
      "    Message('note_on', channel=0, note=33, velocity=63, time=4),\n",
      "    Message('note_on', channel=0, note=52, velocity=0, time=159),\n",
      "    Message('note_on', channel=0, note=64, velocity=0, time=0),\n",
      "    Message('note_on', channel=0, note=64, velocity=85, time=7),\n",
      "    Message('note_on', channel=0, note=52, velocity=75, time=4),\n",
      "    Message('note_on', channel=0, note=40, velocity=57, time=17),\n",
      "    Message('control_change', channel=0, control=64, value=0, time=237),\n",
      "    Message('note_on', channel=0, note=93, velocity=0, time=1),\n",
      "    Message('note_on', channel=0, note=38, velocity=0, time=0),\n",
      "    Message('note_on', channel=0, note=53, velocity=0, time=0),\n",
      "    Message('note_on', channel=0, note=69, velocity=0, time=0),\n",
      "    Message('note_on', channel=0, note=36, velocity=0, time=0),\n",
      "    Message('note_on', channel=0, note=74, velocity=0, time=1),\n",
      "    Message('note_on', channel=0, note=33, velocity=0, time=0),\n",
      "    Message('note_on', channel=0, note=40, velocity=0, time=0),\n",
      "    Message('note_on', channel=0, note=48, velocity=0, time=0),\n",
      "    Message('note_on', channel=0, note=45, velocity=0, time=0),\n",
      "    Message('note_on', channel=0, note=60, velocity=0, time=0),\n",
      "    Message('note_on', channel=0, note=41, velocity=0, time=0),\n",
      "    Message('note_on', channel=0, note=62, velocity=0, time=0),\n",
      "    Message('note_on', channel=0, note=86, velocity=0, time=0),\n",
      "    Message('note_on', channel=0, note=81, velocity=0, time=0),\n",
      "    Message('note_on', channel=0, note=57, velocity=0, time=0),\n",
      "    Message('note_on', channel=0, note=77, velocity=0, time=1),\n",
      "    Message('note_on', channel=0, note=88, velocity=0, time=0),\n",
      "    Message('note_on', channel=0, note=76, velocity=0, time=0),\n",
      "    Message('note_on', channel=0, note=89, velocity=0, time=0),\n",
      "    Message('note_on', channel=0, note=72, velocity=0, time=1),\n",
      "    Message('note_on', channel=0, note=84, velocity=0, time=0),\n",
      "    Message('note_on', channel=0, note=91, velocity=0, time=1),\n",
      "    Message('note_on', channel=0, note=50, velocity=0, time=14),\n",
      "    Message('note_on', channel=0, note=52, velocity=0, time=0),\n",
      "    Message('note_on', channel=0, note=55, velocity=0, time=0),\n",
      "    Message('note_on', channel=0, note=65, velocity=0, time=0),\n",
      "    Message('note_on', channel=0, note=79, velocity=0, time=0),\n",
      "    Message('note_on', channel=0, note=43, velocity=0, time=16),\n",
      "    Message('note_on', channel=0, note=64, velocity=0, time=0),\n",
      "    Message('note_on', channel=0, note=67, velocity=0, time=0),\n",
      "    Message('note_on', channel=0, note=67, velocity=85, time=5),\n",
      "    Message('note_on', channel=0, note=60, velocity=80, time=0),\n",
      "    Message('note_on', channel=0, note=64, velocity=82, time=1),\n",
      "    Message('note_on', channel=0, note=43, velocity=92, time=1),\n",
      "    Message('note_on', channel=0, note=55, velocity=91, time=2),\n",
      "    Message('note_on', channel=0, note=31, velocity=92, time=1),\n",
      "    Message('control_change', channel=0, control=64, value=127, time=36),\n",
      "    Message('note_on', channel=0, note=75, velocity=92, time=356),\n",
      "    Message('note_on', channel=0, note=87, velocity=89, time=0),\n",
      "    Message('note_on', channel=0, note=63, velocity=74, time=2),\n",
      "    Message('note_on', channel=0, note=51, velocity=67, time=2),\n",
      "    Message('note_on', channel=0, note=62, velocity=76, time=165),\n",
      "    Message('note_on', channel=0, note=86, velocity=90, time=1),\n",
      "    Message('note_on', channel=0, note=50, velocity=67, time=0),\n",
      "    Message('note_on', channel=0, note=74, velocity=81, time=0),\n",
      "    Message('note_on', channel=0, note=61, velocity=77, time=146),\n",
      "    Message('note_on', channel=0, note=85, velocity=80, time=2),\n",
      "    Message('note_on', channel=0, note=49, velocity=71, time=2),\n",
      "    Message('note_on', channel=0, note=73, velocity=80, time=1),\n",
      "    Message('note_on', channel=0, note=60, velocity=0, time=98),\n",
      "    Message('note_on', channel=0, note=60, velocity=75, time=12),\n",
      "    Message('note_on', channel=0, note=84, velocity=74, time=0),\n",
      "    Message('note_on', channel=0, note=72, velocity=72, time=1),\n",
      "    Message('note_on', channel=0, note=48, velocity=68, time=1),\n",
      "    Message('note_on', channel=0, note=83, velocity=88, time=118),\n",
      "    Message('note_on', channel=0, note=59, velocity=74, time=2),\n",
      "    Message('note_on', channel=0, note=71, velocity=81, time=0),\n",
      "    Message('note_on', channel=0, note=47, velocity=64, time=4),\n",
      "    Message('note_on', channel=0, note=58, velocity=73, time=97),\n",
      "    Message('note_on', channel=0, note=82, velocity=77, time=0),\n",
      "    Message('note_on', channel=0, note=70, velocity=78, time=1),\n",
      "    Message('note_on', channel=0, note=46, velocity=65, time=0),\n",
      "    Message('note_on', channel=0, note=31, velocity=0, time=26),\n",
      "    Message('note_on', channel=0, note=81, velocity=85, time=88),\n",
      "    Message('note_on', channel=0, note=69, velocity=80, time=3),\n",
      "    Message('note_on', channel=0, note=57, velocity=78, time=1),\n",
      "    Message('note_on', channel=0, note=45, velocity=69, time=2),\n",
      "    Message('note_on', channel=0, note=80, velocity=82, time=102),\n",
      "    Message('note_on', channel=0, note=68, velocity=77, time=0),\n",
      "    Message('note_on', channel=0, note=56, velocity=76, time=1),\n",
      "    Message('note_on', channel=0, note=44, velocity=70, time=0),\n",
      "    Message('note_on', channel=0, note=43, velocity=0, time=117),\n",
      "    Message('note_on', channel=0, note=55, velocity=0, time=0),\n",
      "    Message('note_on', channel=0, note=67, velocity=0, time=0),\n",
      "    Message('note_on', channel=0, note=79, velocity=89, time=3),\n",
      "    Message('note_on', channel=0, note=67, velocity=74, time=2),\n",
      "    Message('note_on', channel=0, note=55, velocity=73, time=0),\n",
      "    Message('note_on', channel=0, note=43, velocity=74, time=1),\n",
      "    Message('note_on', channel=0, note=66, velocity=76, time=114),\n",
      "    Message('note_on', channel=0, note=78, velocity=76, time=0),\n",
      "    Message('note_on', channel=0, note=54, velocity=76, time=1),\n",
      "    Message('note_on', channel=0, note=42, velocity=77, time=2),\n",
      "    Message('note_on', channel=0, note=41, velocity=70, time=119),\n",
      "    Message('note_on', channel=0, note=77, velocity=87, time=0),\n",
      "    Message('note_on', channel=0, note=53, velocity=73, time=1),\n",
      "    Message('note_on', channel=0, note=65, velocity=62, time=4),\n",
      "    Message('note_on', channel=0, note=69, velocity=0, time=118),\n",
      "    Message('note_on', channel=0, note=48, velocity=0, time=0),\n",
      "    Message('note_on', channel=0, note=53, velocity=0, time=1),\n",
      "    Message('note_on', channel=0, note=49, velocity=0, time=0),\n",
      "    Message('note_on', channel=0, note=50, velocity=0, time=0),\n",
      "    Message('note_on', channel=0, note=47, velocity=0, time=0),\n",
      "    Message('note_on', channel=0, note=54, velocity=0, time=0),\n",
      "    Message('note_on', channel=0, note=71, velocity=0, time=0),\n",
      "    Message('note_on', channel=0, note=62, velocity=0, time=0),\n",
      "    Message('note_on', channel=0, note=66, velocity=0, time=0),\n",
      "    Message('note_on', channel=0, note=68, velocity=0, time=0),\n",
      "    Message('note_on', channel=0, note=67, velocity=0, time=0),\n",
      "    Message('note_on', channel=0, note=42, velocity=0, time=0),\n",
      "    Message('note_on', channel=0, note=70, velocity=0, time=0),\n",
      "    Message('note_on', channel=0, note=73, velocity=0, time=0),\n",
      "    Message('note_on', channel=0, note=56, velocity=0, time=0),\n",
      "    Message('note_on', channel=0, note=65, velocity=0, time=0),\n",
      "    Message('note_on', channel=0, note=86, velocity=0, time=0),\n",
      "    Message('note_on', channel=0, note=75, velocity=0, time=0),\n",
      "    Message('note_on', channel=0, note=46, velocity=0, time=0),\n",
      "    Message('note_on', channel=0, note=45, velocity=0, time=0),\n",
      "    Message('note_on', channel=0, note=74, velocity=0, time=0),\n",
      "    Message('note_on', channel=0, note=51, velocity=0, time=0),\n",
      "    Message('note_on', channel=0, note=60, velocity=0, time=0),\n",
      "    Message('note_on', channel=0, note=55, velocity=0, time=0),\n",
      "    Message('note_on', channel=0, note=58, velocity=0, time=0),\n",
      "    Message('note_on', channel=0, note=43, velocity=0, time=0),\n",
      "    Message('note_on', channel=0, note=64, velocity=0, time=0),\n",
      "    Message('note_on', channel=0, note=57, velocity=0, time=0),\n",
      "    Message('note_on', channel=0, note=83, velocity=0, time=0),\n",
      "    Message('note_on', channel=0, note=72, velocity=0, time=0),\n",
      "    Message('note_on', channel=0, note=41, velocity=0, time=0),\n",
      "    Message('note_on', channel=0, note=44, velocity=0, time=0),\n",
      "    Message('note_on', channel=0, note=81, velocity=0, time=1),\n",
      "    Message('note_on', channel=0, note=78, velocity=0, time=0),\n",
      "    Message('note_on', channel=0, note=79, velocity=0, time=0),\n",
      "    Message('note_on', channel=0, note=61, velocity=0, time=0),\n",
      "    Message('note_on', channel=0, note=77, velocity=0, time=0),\n",
      "    Message('note_on', channel=0, note=84, velocity=0, time=0),\n",
      "    Message('note_on', channel=0, note=63, velocity=0, time=0),\n",
      "    Message('note_on', channel=0, note=87, velocity=0, time=0),\n",
      "    Message('note_on', channel=0, note=59, velocity=0, time=0),\n",
      "    Message('note_on', channel=0, note=85, velocity=0, time=0),\n",
      "    Message('note_on', channel=0, note=82, velocity=0, time=1),\n",
      "    Message('control_change', channel=0, control=64, value=0, time=0),\n",
      "    Message('note_on', channel=0, note=80, velocity=0, time=24),\n",
      "    Message('note_on', channel=0, note=80, velocity=90, time=11),\n",
      "    Message('note_on', channel=0, note=88, velocity=95, time=1),\n",
      "    Message('note_on', channel=0, note=76, velocity=99, time=1),\n",
      "    Message('note_on', channel=0, note=52, velocity=90, time=0),\n",
      "    Message('note_on', channel=0, note=40, velocity=83, time=5),\n",
      "    Message('control_change', channel=0, control=64, value=127, time=28),\n",
      "    Message('note_on', channel=0, note=51, velocity=74, time=126),\n",
      "    Message('note_on', channel=0, note=39, velocity=66, time=1),\n",
      "    Message('note_on', channel=0, note=63, velocity=64, time=6),\n",
      "    Message('note_on', channel=0, note=63, velocity=0, time=5),\n",
      "    Message('note_on', channel=0, note=62, velocity=62, time=106),\n",
      "    Message('note_on', channel=0, note=50, velocity=71, time=2),\n",
      "    Message('note_on', channel=0, note=38, velocity=65, time=4),\n",
      "    Message('note_on', channel=0, note=49, velocity=72, time=108),\n",
      "    Message('note_on', channel=0, note=37, velocity=75, time=0),\n",
      "    Message('note_on', channel=0, note=48, velocity=70, time=116),\n",
      "    Message('note_on', channel=0, note=36, velocity=68, time=0),\n",
      "    Message('note_on', channel=0, note=47, velocity=64, time=142),\n",
      "    Message('note_on', channel=0, note=35, velocity=73, time=1),\n",
      "    Message('note_on', channel=0, note=62, velocity=0, time=128),\n",
      "    Message('control_change', channel=0, control=64, value=0, time=10),\n",
      "    Message('note_on', channel=0, note=80, velocity=0, time=1),\n",
      "    Message('note_on', channel=0, note=49, velocity=0, time=0),\n",
      "    Message('note_on', channel=0, note=51, velocity=0, time=1),\n",
      "    Message('note_on', channel=0, note=39, velocity=0, time=0),\n",
      "    Message('note_on', channel=0, note=76, velocity=0, time=0),\n",
      "    Message('note_on', channel=0, note=37, velocity=0, time=0),\n",
      "    Message('note_on', channel=0, note=86, velocity=91, time=1),\n",
      "    Message('note_on', channel=0, note=48, velocity=0, time=0),\n",
      "    Message('note_on', channel=0, note=38, velocity=0, time=0),\n",
      "    Message('note_on', channel=0, note=36, velocity=0, time=0),\n",
      "    Message('note_on', channel=0, note=88, velocity=0, time=0),\n",
      "    Message('note_on', channel=0, note=47, velocity=0, time=0),\n",
      "    Message('note_on', channel=0, note=50, velocity=0, time=1),\n",
      "    Message('note_on', channel=0, note=77, velocity=83, time=1),\n",
      "    Message('note_on', channel=0, note=35, velocity=0, time=0),\n",
      "    Message('note_on', channel=0, note=74, velocity=89, time=3),\n",
      "    Message('note_on', channel=0, note=46, velocity=75, time=1),\n",
      "    Message('note_on', channel=0, note=79, velocity=87, time=0),\n",
      "    Message('note_on', channel=0, note=34, velocity=76, time=1),\n",
      "    Message('note_on', channel=0, note=52, velocity=0, time=3),\n",
      "    Message('note_on', channel=0, note=40, velocity=0, time=8),\n",
      "    Message('control_change', channel=0, control=64, value=127, time=31),\n",
      "    Message('note_on', channel=0, note=46, velocity=0, time=69),\n",
      "    Message('note_on', channel=0, note=45, velocity=70, time=44),\n",
      "    Message('note_on', channel=0, note=33, velocity=71, time=2),\n",
      "    Message('note_on', channel=0, note=32, velocity=64, time=124),\n",
      "    Message('note_on', channel=0, note=44, velocity=68, time=0),\n",
      "    Message('note_on', channel=0, note=79, velocity=0, time=160),\n",
      "    Message('note_on', channel=0, note=79, velocity=82, time=7),\n",
      "    Message('note_on', channel=0, note=74, velocity=0, time=1),\n",
      "    Message('note_on', channel=0, note=77, velocity=0, time=0),\n",
      "    Message('note_on', channel=0, note=43, velocity=79, time=5),\n",
      "    Message('note_on', channel=0, note=74, velocity=80, time=0),\n",
      "    Message('note_on', channel=0, note=67, velocity=73, time=0),\n",
      "    Message('note_on', channel=0, note=31, velocity=80, time=1),\n",
      "    Message('note_on', channel=0, note=65, velocity=82, time=1),\n",
      "    Message('note_on', channel=0, note=77, velocity=77, time=2),\n",
      "    Message('note_on', channel=0, note=30, velocity=73, time=133),\n",
      "    Message('note_on', channel=0, note=42, velocity=70, time=0),\n",
      "    Message('note_on', channel=0, note=31, velocity=0, time=365),\n",
      "    Message('note_on', channel=0, note=43, velocity=0, time=7),\n",
      "    Message('note_on', channel=0, note=31, velocity=60, time=2),\n",
      "    Message('note_on', channel=0, note=43, velocity=61, time=5),\n",
      "    Message('note_on', channel=0, note=42, velocity=0, time=36),\n",
      "    Message('control_change', channel=0, control=64, value=0, time=1),\n",
      "    Message('note_on', channel=0, note=33, velocity=0, time=2),\n",
      "    Message('note_on', channel=0, note=45, velocity=0, time=2),\n",
      "    Message('note_on', channel=0, note=67, velocity=0, time=2),\n",
      "    Message('note_on', channel=0, note=34, velocity=0, time=4),\n",
      "    Message('note_on', channel=0, note=30, velocity=0, time=8),\n",
      "    Message('note_on', channel=0, note=32, velocity=0, time=0),\n",
      "    Message('note_on', channel=0, note=44, velocity=0, time=0),\n",
      "    Message('note_on', channel=0, note=65, velocity=0, time=0),\n",
      "    Message('note_on', channel=0, note=74, velocity=0, time=0),\n",
      "    Message('note_on', channel=0, note=77, velocity=0, time=0),\n",
      "    Message('note_on', channel=0, note=79, velocity=0, time=0),\n",
      "    Message('note_on', channel=0, note=86, velocity=0, time=0),\n",
      "    Message('note_on', channel=0, note=86, velocity=92, time=4),\n",
      "    Message('note_on', channel=0, note=74, velocity=94, time=4),\n",
      "    Message('note_on', channel=0, note=79, velocity=88, time=1),\n",
      "    Message('note_on', channel=0, note=77, velocity=88, time=1),\n",
      "    Message('note_on', channel=0, note=65, velocity=80, time=0),\n",
      "    Message('note_on', channel=0, note=71, velocity=84, time=0),\n",
      "    Message('note_on', channel=0, note=83, velocity=71, time=4),\n",
      "    Message('note_on', channel=0, note=59, velocity=77, time=3),\n",
      "    Message('note_on', channel=0, note=81, velocity=76, time=1),\n",
      "    Message('control_change', channel=0, control=64, value=127, time=74),\n",
      "    Message('note_on', channel=0, note=65, velocity=0, time=46),\n",
      "    Message('note_on', channel=0, note=100, velocity=93, time=261),\n",
      "    Message('note_on', channel=0, note=88, velocity=94, time=3),\n",
      "    Message('note_on', channel=0, note=76, velocity=84, time=5),\n",
      "    Message('note_on', channel=0, note=98, velocity=80, time=3),\n",
      "    Message('note_on', channel=0, note=31, velocity=0, time=4),\n",
      "    Message('note_on', channel=0, note=64, velocity=73, time=4),\n",
      "    Message('note_on', channel=0, note=74, velocity=0, time=165),\n",
      "    Message('note_on', channel=0, note=76, velocity=0, time=0),\n",
      "    Message('note_on', channel=0, note=86, velocity=0, time=0),\n",
      "    Message('note_on', channel=0, note=98, velocity=0, time=0),\n",
      "    Message('note_on', channel=0, note=88, velocity=0, time=8),\n",
      "    Message('note_on', channel=0, note=98, velocity=92, time=2),\n",
      "    Message('note_on', channel=0, note=74, velocity=85, time=1),\n",
      "    Message('note_on', channel=0, note=86, velocity=82, time=1),\n",
      "    Message('note_on', channel=0, note=76, velocity=78, time=0),\n",
      "    Message('note_on', channel=0, note=62, velocity=71, time=1),\n",
      "    Message('note_on', channel=0, note=88, velocity=74, time=1),\n",
      "    Message('note_on', channel=0, note=81, velocity=0, time=155),\n",
      "    Message('note_on', channel=0, note=93, velocity=96, time=8),\n",
      "    Message('note_on', channel=0, note=81, velocity=81, time=1),\n",
      "    Message('note_on', channel=0, note=69, velocity=74, time=4),\n",
      "    Message('note_on', channel=0, note=57, velocity=67, time=7),\n",
      "    Message('note_on', channel=0, note=79, velocity=0, time=134),\n",
      "    Message('note_on', channel=0, note=91, velocity=85, time=4),\n",
      "    Message('note_on', channel=0, note=79, velocity=79, time=0),\n",
      "    Message('note_on', channel=0, note=67, velocity=71, time=3),\n",
      "    Message('note_on', channel=0, note=55, velocity=59, time=4),\n",
      "    Message('note_on', channel=0, note=64, velocity=0, time=127),\n",
      "    Message('note_on', channel=0, note=76, velocity=0, time=0),\n",
      "    Message('note_on', channel=0, note=88, velocity=0, time=0),\n",
      "    Message('note_on', channel=0, note=88, velocity=90, time=8),\n",
      "    Message('note_on', channel=0, note=76, velocity=84, time=2),\n",
      "    Message('note_on', channel=0, note=64, velocity=75, time=2),\n",
      "    Message('note_on', channel=0, note=52, velocity=69, time=0),\n",
      "    Message('note_on', channel=0, note=74, velocity=0, time=126),\n",
      "    Message('note_on', channel=0, note=86, velocity=0, time=0),\n",
      "    Message('note_on', channel=0, note=62, velocity=0, time=8),\n",
      "    Message('note_on', channel=0, note=86, velocity=79, time=0),\n",
      "    Message('note_on', channel=0, note=74, velocity=76, time=3),\n",
      "    Message('note_on', channel=0, note=50, velocity=65, time=1),\n",
      "    Message('note_on', channel=0, note=62, velocity=69, time=1),\n",
      "    Message('note_on', channel=0, note=57, velocity=0, time=133),\n",
      "    Message('note_on', channel=0, note=69, velocity=0, time=0),\n",
      "    Message('note_on', channel=0, note=81, velocity=0, time=0),\n",
      "    Message('note_on', channel=0, note=81, velocity=82, time=8),\n",
      "    Message('note_on', channel=0, note=69, velocity=81, time=3),\n",
      "    Message('note_on', channel=0, note=45, velocity=67, time=0),\n",
      "    Message('note_on', channel=0, note=57, velocity=71, time=1),\n",
      "    Message('note_on', channel=0, note=43, velocity=0, time=127),\n",
      "    Message('note_on', channel=0, note=55, velocity=0, time=0),\n",
      "    Message('note_on', channel=0, note=67, velocity=0, time=0),\n",
      "    Message('note_on', channel=0, note=79, velocity=0, time=0),\n",
      "    Message('note_on', channel=0, note=79, velocity=78, time=7),\n",
      "    Message('note_on', channel=0, note=67, velocity=77, time=2),\n",
      "    Message('note_on', channel=0, note=55, velocity=69, time=1),\n",
      "    Message('note_on', channel=0, note=43, velocity=72, time=0),\n",
      "    Message('note_on', channel=0, note=52, velocity=0, time=143),\n",
      "    Message('note_on', channel=0, note=64, velocity=0, time=0),\n",
      "    Message('note_on', channel=0, note=76, velocity=0, time=0),\n",
      "    Message('note_on', channel=0, note=76, velocity=85, time=4),\n",
      "    Message('note_on', channel=0, note=64, velocity=85, time=4),\n",
      "    Message('note_on', channel=0, note=52, velocity=76, time=2),\n",
      "    Message('note_on', channel=0, note=40, velocity=69, time=1),\n",
      "    Message('note_on', channel=0, note=40, velocity=0, time=4),\n",
      "    Message('note_on', channel=0, note=50, velocity=0, time=139),\n",
      "    Message('note_on', channel=0, note=62, velocity=0, time=0),\n",
      "    Message('note_on', channel=0, note=74, velocity=0, time=0),\n",
      "    Message('note_on', channel=0, note=69, velocity=0, time=4),\n",
      "    Message('note_on', channel=0, note=50, velocity=74, time=2),\n",
      "    Message('note_on', channel=0, note=74, velocity=75, time=2),\n",
      "    Message('note_on', channel=0, note=62, velocity=80, time=1),\n",
      "    Message('note_on', channel=0, note=38, velocity=70, time=2),\n",
      "    Message('note_on', channel=0, note=64, velocity=0, time=150),\n",
      "    Message('note_on', channel=0, note=64, velocity=69, time=8),\n",
      "    Message('note_on', channel=0, note=67, velocity=0, time=23),\n",
      "    Message('note_on', channel=0, note=67, velocity=85, time=6),\n",
      "    Message('note_on', channel=0, note=43, velocity=0, time=1),\n",
      "    Message('note_on', channel=0, note=55, velocity=0, time=0),\n",
      "    Message('note_on', channel=0, note=43, velocity=80, time=5),\n",
      "    Message('note_on', channel=0, note=31, velocity=78, time=0),\n",
      "    Message('note_on', channel=0, note=55, velocity=80, time=4),\n",
      "    Message('control_change', channel=0, control=64, value=0, time=189),\n",
      "    Message('note_on', channel=0, note=45, velocity=0, time=2),\n",
      "    Message('note_on', channel=0, note=93, velocity=0, time=0),\n",
      "    Message('note_on', channel=0, note=100, velocity=0, time=1),\n",
      "    Message('note_on', channel=0, note=98, velocity=0, time=0),\n",
      "    Message('note_on', channel=0, note=38, velocity=0, time=0),\n",
      "    Message('note_on', channel=0, note=59, velocity=0, time=0),\n",
      "    Message('note_on', channel=0, note=81, velocity=0, time=0),\n",
      "    Message('note_on', channel=0, note=52, velocity=0, time=0),\n",
      "    Message('note_on', channel=0, note=76, velocity=0, time=1),\n",
      "    Message('note_on', channel=0, note=71, velocity=0, time=0),\n",
      "    Message('note_on', channel=0, note=86, velocity=0, time=0),\n",
      "    Message('note_on', channel=0, note=74, velocity=0, time=0),\n",
      "    Message('note_on', channel=0, note=88, velocity=0, time=0),\n",
      "    Message('note_on', channel=0, note=57, velocity=0, time=0),\n",
      "    Message('note_on', channel=0, note=77, velocity=0, time=0),\n",
      "    Message('note_on', channel=0, note=62, velocity=0, time=0),\n",
      "    Message('note_on', channel=0, note=55, velocity=0, time=0),\n",
      "    Message('note_on', channel=0, note=83, velocity=0, time=0),\n",
      "    Message('note_on', channel=0, note=31, velocity=0, time=0),\n",
      "    Message('note_on', channel=0, note=50, velocity=0, time=0),\n",
      "    Message('note_on', channel=0, note=67, velocity=0, time=0),\n",
      "    Message('note_on', channel=0, note=43, velocity=0, time=0),\n",
      "    Message('note_on', channel=0, note=79, velocity=0, time=1),\n",
      "    Message('note_on', channel=0, note=91, velocity=0, time=0),\n",
      "    Message('note_on', channel=0, note=64, velocity=0, time=28),\n",
      "    Message('note_on', channel=0, note=64, velocity=81, time=4),\n",
      "    Message('note_on', channel=0, note=60, velocity=86, time=1),\n",
      "    Message('note_on', channel=0, note=72, velocity=83, time=0),\n",
      "    Message('note_on', channel=0, note=36, velocity=80, time=4),\n",
      "    Message('note_on', channel=0, note=24, velocity=83, time=1),\n",
      "    Message('control_change', channel=0, control=64, value=127, time=51),\n",
      "    Message('note_on', channel=0, note=43, velocity=59, time=268),\n",
      "    Message('note_on', channel=0, note=31, velocity=66, time=2),\n",
      "    Message('note_on', channel=0, note=31, velocity=0, time=214),\n",
      "    Message('note_on', channel=0, note=43, velocity=0, time=0),\n",
      "    Message('note_on', channel=0, note=31, velocity=58, time=5),\n",
      "    Message('note_on', channel=0, note=43, velocity=54, time=1),\n",
      "    Message('note_on', channel=0, note=24, velocity=0, time=71),\n",
      "    Message('note_on', channel=0, note=31, velocity=0, time=100),\n",
      "    Message('note_on', channel=0, note=43, velocity=0, time=0),\n",
      "    Message('note_on', channel=0, note=43, velocity=64, time=11),\n",
      "    Message('note_on', channel=0, note=31, velocity=62, time=0),\n",
      "    Message('note_on', channel=0, note=36, velocity=0, time=173),\n",
      "    Message('note_on', channel=0, note=48, velocity=58, time=3),\n",
      "    Message('note_on', channel=0, note=36, velocity=53, time=2),\n",
      "    Message('note_on', channel=0, note=38, velocity=48, time=23),\n",
      "    Message('note_on', channel=0, note=36, velocity=0, time=95),\n",
      "    Message('note_on', channel=0, note=48, velocity=0, time=0),\n",
      "    Message('note_on', channel=0, note=48, velocity=56, time=10),\n",
      "    Message('note_on', channel=0, note=36, velocity=52, time=0),\n",
      "    Message('note_on', channel=0, note=36, velocity=0, time=159),\n",
      "    Message('note_on', channel=0, note=48, velocity=0, time=0),\n",
      "    Message('note_on', channel=0, note=48, velocity=62, time=5),\n",
      "    Message('note_on', channel=0, note=36, velocity=51, time=4),\n",
      "    Message('note_on', channel=0, note=43, velocity=0, time=152),\n",
      "    Message('note_on', channel=0, note=43, velocity=58, time=11),\n",
      "    Message('note_on', channel=0, note=55, velocity=56, time=0),\n",
      "    Message('note_on', channel=0, note=55, velocity=0, time=150),\n",
      "    Message('note_on', channel=0, note=55, velocity=61, time=7),\n",
      "    Message('note_on', channel=0, note=43, velocity=0, time=1),\n",
      "    Message('note_on', channel=0, note=64, velocity=0, time=3),\n",
      "    Message('note_on', channel=0, note=43, velocity=45, time=2),\n",
      "    Message('note_on', channel=0, note=43, velocity=0, time=172),\n",
      "    Message('note_on', channel=0, note=55, velocity=0, time=0),\n",
      "    Message('note_on', channel=0, note=43, velocity=53, time=8),\n",
      "    Message('note_on', channel=0, note=55, velocity=56, time=2),\n",
      "    Message('note_on', channel=0, note=48, velocity=0, time=197),\n",
      "    Message('note_on', channel=0, note=48, velocity=48, time=6),\n",
      "    Message('note_on', channel=0, note=48, velocity=0, time=232),\n",
      "    Message('note_on', channel=0, note=60, velocity=0, time=0),\n",
      "    Message('note_on', channel=0, note=60, velocity=55, time=7),\n",
      "    Message('note_on', channel=0, note=48, velocity=47, time=2),\n",
      "    Message('note_on', channel=0, note=38, velocity=0, time=222),\n",
      "    Message('control_change', channel=0, control=64, value=0, time=47),\n",
      "    Message('note_on', channel=0, note=36, velocity=0, time=2),\n",
      "    Message('note_on', channel=0, note=31, velocity=0, time=0),\n",
      "    Message('note_on', channel=0, note=60, velocity=0, time=0),\n",
      "    Message('note_on', channel=0, note=72, velocity=0, time=1),\n",
      "    Message('note_on', channel=0, note=43, velocity=0, time=0),\n",
      "    Message('note_on', channel=0, note=48, velocity=0, time=3),\n",
      "    Message('note_on', channel=0, note=48, velocity=43, time=11),\n",
      "    Message('note_on', channel=0, note=55, velocity=0, time=12),\n",
      "    Message('control_change', channel=0, control=64, value=127, time=146),\n",
      "    Message('note_on', channel=0, note=75, velocity=42, time=171),\n",
      "    Message('note_on', channel=0, note=72, velocity=31, time=10),\n",
      "    Message('note_on', channel=0, note=48, velocity=0, time=4),\n",
      "    Message('note_on', channel=0, note=60, velocity=28, time=3),\n",
      "    Message('note_on', channel=0, note=51, velocity=22, time=2),\n",
      "    Message('note_on', channel=0, note=48, velocity=29, time=0),\n",
      "    Message('note_on', channel=0, note=67, velocity=27, time=2),\n",
      "    Message('note_on', channel=0, note=63, velocity=19, time=4),\n",
      "    Message('note_on', channel=0, note=63, velocity=0, time=150),\n",
      "    Message('note_on', channel=0, note=67, velocity=0, time=0),\n",
      "    Message('note_on', channel=0, note=75, velocity=0, time=0),\n",
      "    Message('note_on', channel=0, note=60, velocity=0, time=8),\n",
      "    Message('note_on', channel=0, note=72, velocity=0, time=0),\n",
      "    Message('note_on', channel=0, note=75, velocity=46, time=2),\n",
      "    Message('note_on', channel=0, note=67, velocity=30, time=1),\n",
      "    Message('note_on', channel=0, note=63, velocity=33, time=0),\n",
      "    Message('note_on', channel=0, note=60, velocity=21, time=1),\n",
      "    Message('note_on', channel=0, note=72, velocity=30, time=6),\n",
      "    Message('note_on', channel=0, note=79, velocity=59, time=192),\n",
      "    Message('note_on', channel=0, note=48, velocity=0, time=20),\n",
      "    Message('note_on', channel=0, note=60, velocity=0, time=0),\n",
      "    Message('note_on', channel=0, note=67, velocity=0, time=0),\n",
      "    Message('note_on', channel=0, note=51, velocity=0, time=8),\n",
      "    Message('note_on', channel=0, note=75, velocity=0, time=0),\n",
      "    Message('note_on', channel=0, note=60, velocity=33, time=1),\n",
      "    Message('note_on', channel=0, note=48, velocity=33, time=1),\n",
      "    Message('note_on', channel=0, note=67, velocity=35, time=2),\n",
      "    Message('note_on', channel=0, note=75, velocity=41, time=2),\n",
      "    Message('note_on', channel=0, note=51, velocity=25, time=3),\n",
      "    Message('note_on', channel=0, note=79, velocity=0, time=160),\n",
      "    Message('note_on', channel=0, note=63, velocity=0, time=8),\n",
      "    Message('note_on', channel=0, note=75, velocity=0, time=0),\n",
      "    Message('note_on', channel=0, note=79, velocity=44, time=3),\n",
      "    Message('note_on', channel=0, note=63, velocity=37, time=0),\n",
      "    Message('note_on', channel=0, note=75, velocity=44, time=4),\n",
      "    Message('note_on', channel=0, note=67, velocity=0, time=0),\n",
      "    Message('note_on', channel=0, note=67, velocity=30, time=6),\n",
      "    Message('note_on', channel=0, note=55, velocity=30, time=3),\n",
      "    Message('note_on', channel=0, note=67, velocity=0, time=145),\n",
      "    Message('note_on', channel=0, note=75, velocity=0, time=0),\n",
      "    Message('note_on', channel=0, note=51, velocity=0, time=8),\n",
      "    Message('note_on', channel=0, note=60, velocity=0, time=0),\n",
      "    Message('note_on', channel=0, note=72, velocity=0, time=0),\n",
      "    Message('note_on', channel=0, note=75, velocity=44, time=2),\n",
      "    Message('note_on', channel=0, note=67, velocity=37, time=1),\n",
      "    Message('note_on', channel=0, note=60, velocity=22, time=1),\n",
      "    Message('note_on', channel=0, note=51, velocity=31, time=5),\n",
      "    Message('note_on', channel=0, note=72, velocity=31, time=0),\n",
      "    Message('control_change', channel=0, control=64, value=0, time=159),\n",
      "    Message('note_on', channel=0, note=51, velocity=0, time=2),\n",
      "    Message('note_on', channel=0, note=60, velocity=0, time=1),\n",
      "    Message('note_on', channel=0, note=79, velocity=0, time=0),\n",
      "    Message('note_on', channel=0, note=48, velocity=0, time=13),\n",
      "    Message('note_on', channel=0, note=55, velocity=0, time=0),\n",
      "    Message('note_on', channel=0, note=63, velocity=0, time=0),\n",
      "    Message('note_on', channel=0, note=67, velocity=0, time=0),\n",
      "    Message('note_on', channel=0, note=75, velocity=0, time=0),\n",
      "    Message('note_on', channel=0, note=75, velocity=40, time=11),\n",
      "    Message('note_on', channel=0, note=72, velocity=0, time=4),\n",
      "    Message('note_on', channel=0, note=72, velocity=32, time=11),\n",
      "    Message('note_on', channel=0, note=68, velocity=33, time=2),\n",
      "    Message('note_on', channel=0, note=53, velocity=29, time=17),\n",
      "    Message('note_on', channel=0, note=41, velocity=32, time=2),\n",
      "    Message('control_change', channel=0, control=64, value=127, time=22),\n",
      "    Message('note_on', channel=0, note=75, velocity=0, time=154),\n",
      "    Message('note_on', channel=0, note=72, velocity=0, time=7),\n",
      "    Message('note_on', channel=0, note=75, velocity=45, time=1),\n",
      "    Message('note_on', channel=0, note=72, velocity=33, time=3),\n",
      "    Message('note_on', channel=0, note=68, velocity=0, time=4),\n",
      "    Message('note_on', channel=0, note=68, velocity=26, time=4),\n",
      "    Message('note_on', channel=0, note=60, velocity=17, time=16),\n",
      "    Message('note_on', channel=0, note=68, velocity=0, time=111),\n",
      "    Message('note_on', channel=0, note=63, velocity=45, time=2),\n",
      "    Message('note_on', channel=0, note=53, velocity=0, time=5),\n",
      "    Message('note_on', channel=0, note=75, velocity=0, time=0),\n",
      "    Message('note_on', channel=0, note=68, velocity=37, time=2),\n",
      "    Message('note_on', channel=0, note=56, velocity=38, time=2),\n",
      "    Message('note_on', channel=0, note=75, velocity=48, time=0),\n",
      "    Message('note_on', channel=0, note=72, velocity=0, time=4),\n",
      "    Message('note_on', channel=0, note=53, velocity=25, time=4),\n",
      "    Message('note_on', channel=0, note=72, velocity=37, time=0),\n",
      "    Message('note_on', channel=0, note=80, velocity=72, time=139),\n",
      "    Message('note_on', channel=0, note=60, velocity=0, time=3),\n",
      "    Message('note_on', channel=0, note=60, velocity=35, time=6),\n",
      "    Message('note_on', channel=0, note=72, velocity=0, time=9),\n",
      "    Message('note_on', channel=0, note=68, velocity=0, time=8),\n",
      "    Message('note_on', channel=0, note=72, velocity=39, time=1),\n",
      "    Message('note_on', channel=0, note=68, velocity=39, time=6),\n",
      "    Message('note_on', channel=0, note=53, velocity=0, time=16),\n",
      "    Message('note_on', channel=0, note=53, velocity=21, time=4),\n",
      "    Message('note_on', channel=0, note=56, velocity=0, time=4),\n",
      "    Message('note_on', channel=0, note=56, velocity=16, time=5),\n",
      "    Message('note_on', channel=0, note=63, velocity=0, time=102),\n",
      "    Message('note_on', channel=0, note=56, velocity=0, time=8),\n",
      "    Message('note_on', channel=0, note=68, velocity=0, time=0),\n",
      "    Message('note_on', channel=0, note=63, velocity=39, time=3),\n",
      "    Message('note_on', channel=0, note=56, velocity=34, time=1),\n",
      "    Message('note_on', channel=0, note=72, velocity=0, time=3),\n",
      "    Message('note_on', channel=0, note=68, velocity=45, time=1),\n",
      "    Message('note_on', channel=0, note=72, velocity=42, time=5),\n",
      "    Message('note_on', channel=0, note=53, velocity=0, time=125),\n",
      "    Message('note_on', channel=0, note=53, velocity=26, time=7),\n",
      "    Message('note_on', channel=0, note=65, velocity=25, time=8),\n",
      "    Message('note_on', channel=0, note=68, velocity=0, time=8),\n",
      "    Message('note_on', channel=0, note=72, velocity=0, time=8),\n",
      "    Message('note_on', channel=0, note=75, velocity=0, time=0),\n",
      "    Message('note_on', channel=0, note=68, velocity=42, time=3),\n",
      "    Message('note_on', channel=0, note=72, velocity=39, time=1),\n",
      "    Message('note_on', channel=0, note=75, velocity=49, time=1),\n",
      "    Message('note_on', channel=0, note=80, velocity=0, time=175),\n",
      "    Message('note_on', channel=0, note=56, velocity=0, time=0),\n",
      "    Message('note_on', channel=0, note=63, velocity=0, time=0),\n",
      "    Message('note_on', channel=0, note=72, velocity=0, time=0),\n",
      "    Message('note_on', channel=0, note=75, velocity=0, time=0),\n",
      "    Message('control_change', channel=0, control=64, value=0, time=1),\n",
      "    Message('note_on', channel=0, note=41, velocity=0, time=3),\n",
      "    Message('note_on', channel=0, note=65, velocity=0, time=0),\n",
      "    Message('note_on', channel=0, note=53, velocity=0, time=8),\n",
      "    Message('note_on', channel=0, note=60, velocity=0, time=0),\n",
      "    Message('note_on', channel=0, note=68, velocity=0, time=0),\n",
      "    Message('note_on', channel=0, note=74, velocity=44, time=17),\n",
      "    Message('note_on', channel=0, note=47, velocity=33, time=9),\n",
      "    Message('note_on', channel=0, note=35, velocity=38, time=0),\n",
      "    Message('note_on', channel=0, note=67, velocity=28, time=5),\n",
      "    Message('note_on', channel=0, note=65, velocity=19, time=3),\n",
      "    Message('note_on', channel=0, note=35, velocity=0, time=22),\n",
      "    Message('control_change', channel=0, control=64, value=127, time=21),\n",
      "    Message('note_on', channel=0, note=47, velocity=0, time=145),\n",
      "    Message('note_on', channel=0, note=67, velocity=0, time=0),\n",
      "    Message('note_on', channel=0, note=74, velocity=0, time=0),\n",
      "    Message('note_on', channel=0, note=55, velocity=41, time=4),\n",
      "    Message('note_on', channel=0, note=65, velocity=0, time=4),\n",
      "    Message('note_on', channel=0, note=74, velocity=49, time=2),\n",
      "    Message('note_on', channel=0, note=47, velocity=39, time=1),\n",
      "    Message('note_on', channel=0, note=67, velocity=37, time=1),\n",
      "    Message('note_on', channel=0, note=65, velocity=25, time=2),\n",
      "    Message('note_on', channel=0, note=79, velocity=70, time=201),\n",
      "    Message('note_on', channel=0, note=55, velocity=0, time=24),\n",
      "    Message('note_on', channel=0, note=67, velocity=0, time=0),\n",
      "    Message('note_on', channel=0, note=62, velocity=36, time=4),\n",
      "    Message('note_on', channel=0, note=74, velocity=0, time=3),\n",
      "    Message('note_on', channel=0, note=67, velocity=33, time=4),\n",
      "    Message('note_on', channel=0, note=55, velocity=36, time=0),\n",
      "    Message('note_on', channel=0, note=74, velocity=29, time=0),\n",
      "    Message('note_on', channel=0, note=65, velocity=0, time=4),\n",
      "    Message('note_on', channel=0, note=65, velocity=31, time=9),\n",
      "    Message('note_on', channel=0, note=65, velocity=0, time=152),\n",
      "    Message('note_on', channel=0, note=65, velocity=37, time=9),\n",
      "    Message('note_on', channel=0, note=77, velocity=45, time=5),\n",
      "    Message('note_on', channel=0, note=55, velocity=0, time=2),\n",
      "    Message('note_on', channel=0, note=67, velocity=0, time=0),\n",
      "    Message('note_on', channel=0, note=74, velocity=0, time=0),\n",
      "    Message('note_on', channel=0, note=67, velocity=36, time=4),\n",
      "    Message('note_on', channel=0, note=74, velocity=41, time=1),\n",
      "    Message('note_on', channel=0, note=47, velocity=0, time=2),\n",
      "    Message('note_on', channel=0, note=77, velocity=0, time=0),\n",
      "    Message('note_on', channel=0, note=55, velocity=37, time=3),\n",
      "    Message('note_on', channel=0, note=47, velocity=31, time=7),\n",
      "    Message('note_on', channel=0, note=59, velocity=32, time=1),\n",
      "    Message('note_on', channel=0, note=67, velocity=0, time=158),\n",
      "    Message('note_on', channel=0, note=74, velocity=0, time=0),\n",
      "    Message('note_on', channel=0, note=67, velocity=47, time=4),\n",
      "    Message('note_on', channel=0, note=62, velocity=0, time=4),\n",
      "    Message('note_on', channel=0, note=65, velocity=0, time=0),\n",
      "    Message('note_on', channel=0, note=74, velocity=43, time=3),\n",
      "    Message('note_on', channel=0, note=65, velocity=34, time=4),\n",
      "    Message('note_on', channel=0, note=55, velocity=0, time=1),\n",
      "    Message('note_on', channel=0, note=62, velocity=37, time=2),\n",
      "    Message('note_on', channel=0, note=55, velocity=31, time=6),\n",
      "    Message('note_on', channel=0, note=74, velocity=0, time=161),\n",
      "    Message('note_on', channel=0, note=55, velocity=0, time=7),\n",
      "    Message('note_on', channel=0, note=74, velocity=69, time=3),\n",
      "    Message('note_on', channel=0, note=55, velocity=39, time=8),\n",
      "    Message('note_on', channel=0, note=47, velocity=0, time=5),\n",
      "    Message('note_on', channel=0, note=65, velocity=0, time=0),\n",
      "    Message('note_on', channel=0, note=47, velocity=38, time=4),\n",
      "    Message('note_on', channel=0, note=65, velocity=36, time=0),\n",
      "    Message('note_on', channel=0, note=67, velocity=0, time=3),\n",
      "    Message('note_on', channel=0, note=67, velocity=42, time=10),\n",
      "    Message('note_on', channel=0, note=79, velocity=0, time=210),\n",
      "    Message('note_on', channel=0, note=65, velocity=0, time=0),\n",
      "    Message('note_on', channel=0, note=62, velocity=0, time=1),\n",
      "    Message('note_on', channel=0, note=74, velocity=0, time=0),\n",
      "    Message('note_on', channel=0, note=59, velocity=0, time=0),\n",
      "    Message('control_change', channel=0, control=64, value=0, time=3),\n",
      "    Message('note_on', channel=0, note=47, velocity=0, time=14),\n",
      "    Message('note_on', channel=0, note=55, velocity=0, time=0),\n",
      "    Message('note_on', channel=0, note=63, velocity=38, time=21),\n",
      "    Message('note_on', channel=0, note=67, velocity=0, time=2),\n",
      "    Message('note_on', channel=0, note=67, velocity=37, time=9),\n",
      "    Message('note_on', channel=0, note=36, velocity=39, time=3),\n",
      "    Message('note_on', channel=0, note=48, velocity=40, time=1),\n",
      "    Message('note_on', channel=0, note=60, velocity=30, time=1),\n",
      "    Message('control_change', channel=0, control=64, value=127, time=32),\n",
      "    Message('note_on', channel=0, note=75, velocity=66, time=189),\n",
      "    Message('note_on', channel=0, note=67, velocity=0, time=11),\n",
      "    Message('note_on', channel=0, note=60, velocity=0, time=8),\n",
      "    Message('note_on', channel=0, note=67, velocity=42, time=2),\n",
      "    Message('note_on', channel=0, note=72, velocity=48, time=2),\n",
      "    Message('note_on', channel=0, note=60, velocity=31, time=7),\n",
      "    Message('note_on', channel=0, note=48, velocity=0, time=4),\n",
      "    Message('note_on', channel=0, note=48, velocity=28, time=5),\n",
      "    Message('note_on', channel=0, note=55, velocity=41, time=6),\n",
      "    Message('note_on', channel=0, note=77, velocity=63, time=115),\n",
      "    Message('note_on', channel=0, note=67, velocity=0, time=12),\n",
      "    Message('note_on', channel=0, note=72, velocity=0, time=0),\n",
      "    Message('note_on', channel=0, note=72, velocity=39, time=6),\n",
      "    Message('note_on', channel=0, note=67, velocity=37, time=4),\n",
      "    Message('note_on', channel=0, note=55, velocity=0, time=44),\n",
      "    Message('note_on', channel=0, note=63, velocity=0, time=0),\n",
      "    Message('note_on', channel=0, note=63, velocity=40, time=10),\n",
      "    Message('note_on', channel=0, note=55, velocity=25, time=1),\n",
      "    Message('note_on', channel=0, note=67, velocity=0, time=51),\n",
      "    Message('note_on', channel=0, note=72, velocity=0, time=0),\n",
      "    Message('note_on', channel=0, note=75, velocity=0, time=0),\n",
      "    Message('note_on', channel=0, note=75, velocity=65, time=9),\n",
      "    Message('note_on', channel=0, note=72, velocity=60, time=1),\n",
      "    Message('note_on', channel=0, note=67, velocity=50, time=0),\n",
      "    Message('note_on', channel=0, note=55, velocity=0, time=120),\n",
      "    Message('note_on', channel=0, note=74, velocity=66, time=10),\n",
      "    Message('note_on', channel=0, note=55, velocity=43, time=1),\n",
      "    Message('note_on', channel=0, note=67, velocity=0, time=5),\n",
      "    Message('note_on', channel=0, note=67, velocity=52, time=11),\n",
      "    Message('note_on', channel=0, note=75, velocity=0, time=111),\n",
      "    Message('note_on', channel=0, note=67, velocity=0, time=8),\n",
      "    Message('note_on', channel=0, note=75, velocity=72, time=3),\n",
      "    Message('note_on', channel=0, note=72, velocity=0, time=5),\n",
      "    Message('note_on', channel=0, note=67, velocity=57, time=3),\n",
      "    Message('note_on', channel=0, note=72, velocity=58, time=2),\n",
      "    Message('note_on', channel=0, note=48, velocity=0, time=10),\n",
      "    Message('note_on', channel=0, note=55, velocity=0, time=0),\n",
      "    Message('note_on', channel=0, note=63, velocity=0, time=0),\n",
      "    Message('note_on', channel=0, note=63, velocity=40, time=4),\n",
      "    Message('note_on', channel=0, note=48, velocity=33, time=0),\n",
      "    Message('note_on', channel=0, note=55, velocity=38, time=1),\n",
      "    Message('note_on', channel=0, note=77, velocity=0, time=103),\n",
      "    Message('note_on', channel=0, note=72, velocity=0, time=7),\n",
      "    Message('note_on', channel=0, note=77, velocity=68, time=1),\n",
      "    Message('note_on', channel=0, note=67, velocity=0, time=7),\n",
      "    Message('note_on', channel=0, note=72, velocity=61, time=3),\n",
      "    Message('note_on', channel=0, note=67, velocity=52, time=8),\n",
      "    Message('note_on', channel=0, note=48, velocity=0, time=12),\n",
      "    Message('note_on', channel=0, note=55, velocity=0, time=0),\n",
      "    Message('note_on', channel=0, note=55, velocity=38, time=8),\n",
      "    Message('note_on', channel=0, note=48, velocity=38, time=3),\n",
      "    Message('note_on', channel=0, note=72, velocity=0, time=112),\n",
      "    Message('note_on', channel=0, note=79, velocity=64, time=2),\n",
      "    Message('note_on', channel=0, note=67, velocity=0, time=6),\n",
      "    Message('note_on', channel=0, note=72, velocity=59, time=3),\n",
      "    Message('note_on', channel=0, note=67, velocity=43, time=1),\n",
      "    Message('note_on', channel=0, note=36, velocity=0, time=134),\n",
      "    Message('note_on', channel=0, note=72, velocity=0, time=8),\n",
      "    Message('control_change', channel=0, control=64, value=0, time=7),\n",
      "    Message('note_on', channel=0, note=74, velocity=0, time=2),\n",
      "    Message('note_on', channel=0, note=67, velocity=0, time=0),\n",
      "    Message('note_on', channel=0, note=75, velocity=0, time=1),\n",
      "    Message('note_on', channel=0, note=72, velocity=63, time=0),\n",
      "    Message('note_on', channel=0, note=79, velocity=0, time=1),\n",
      "    Message('note_on', channel=0, note=48, velocity=0, time=12),\n",
      "    Message('note_on', channel=0, note=55, velocity=0, time=0),\n",
      "    Message('note_on', channel=0, note=68, velocity=46, time=0),\n",
      "    Message('note_on', channel=0, note=63, velocity=0, time=7),\n",
      "    Message('note_on', channel=0, note=77, velocity=0, time=0),\n",
      "    Message('note_on', channel=0, note=63, velocity=29, time=11),\n",
      "    Message('note_on', channel=0, note=44, velocity=43, time=2),\n",
      "    Message('note_on', channel=0, note=51, velocity=32, time=4),\n",
      "    Message('control_change', channel=0, control=64, value=127, time=45),\n",
      "    Message('note_on', channel=0, note=44, velocity=0, time=23),\n",
      "    Message('note_on', channel=0, note=63, velocity=0, time=107),\n",
      "    Message('note_on', channel=0, note=68, velocity=0, time=8),\n",
      "    Message('note_on', channel=0, note=63, velocity=37, time=3),\n",
      "    Message('note_on', channel=0, note=56, velocity=48, time=2),\n",
      "    Message('note_on', channel=0, note=68, velocity=44, time=4),\n",
      "    Message('note_on', channel=0, note=48, velocity=33, time=2),\n",
      "    Message('note_on', channel=0, note=44, velocity=37, time=1),\n",
      "    Message('note_on', channel=0, note=60, velocity=0, time=118),\n",
      "    Message('note_on', channel=0, note=63, velocity=0, time=0),\n",
      "    Message('note_on', channel=0, note=68, velocity=0, time=0),\n",
      "    Message('note_on', channel=0, note=68, velocity=47, time=8),\n",
      "    Message('note_on', channel=0, note=44, velocity=0, time=0),\n",
      "    Message('note_on', channel=0, note=48, velocity=0, time=0),\n",
      "    Message('note_on', channel=0, note=56, velocity=0, time=0),\n",
      "    Message('note_on', channel=0, note=63, velocity=40, time=1),\n",
      "    Message('note_on', channel=0, note=60, velocity=40, time=1),\n",
      "    Message('note_on', channel=0, note=56, velocity=40, time=3),\n",
      "    Message('note_on', channel=0, note=48, velocity=35, time=0),\n",
      "    Message('note_on', channel=0, note=44, velocity=38, time=1),\n",
      "    Message('note_on', channel=0, note=72, velocity=0, time=155),\n",
      "    Message('note_on', channel=0, note=72, velocity=58, time=7),\n",
      "    Message('note_on', channel=0, note=48, velocity=0, time=16),\n",
      "    Message('note_on', channel=0, note=68, velocity=0, time=0),\n",
      "    Message('note_on', channel=0, note=68, velocity=40, time=6),\n",
      "    Message('note_on', channel=0, note=56, velocity=0, time=2),\n",
      "    Message('note_on', channel=0, note=63, velocity=0, time=0),\n",
      "    Message('note_on', channel=0, note=48, velocity=37, time=4),\n",
      "    Message('note_on', channel=0, note=63, velocity=37, time=2),\n",
      "    Message('note_on', channel=0, note=56, velocity=39, time=3),\n",
      "    Message('note_on', channel=0, note=60, velocity=0, time=175),\n",
      "    Message('note_on', channel=0, note=63, velocity=0, time=0),\n",
      "    Message('note_on', channel=0, note=60, velocity=43, time=6),\n",
      "    Message('note_on', channel=0, note=56, velocity=0, time=2),\n",
      "    Message('note_on', channel=0, note=63, velocity=35, time=2),\n",
      "    Message('note_on', channel=0, note=48, velocity=0, time=6),\n",
      "    Message('note_on', channel=0, note=56, velocity=35, time=3),\n",
      "    Message('note_on', channel=0, note=48, velocity=27, time=2),\n",
      "    Message('note_on', channel=0, note=63, velocity=0, time=164),\n",
      "    Message('note_on', channel=0, note=68, velocity=0, time=0),\n",
      "    Message('note_on', channel=0, note=68, velocity=43, time=6),\n",
      "    Message('note_on', channel=0, note=63, velocity=36, time=1),\n",
      "    Message('note_on', channel=0, note=56, velocity=0, time=0),\n",
      "    Message('note_on', channel=0, note=56, velocity=38, time=7),\n",
      "    Message('note_on', channel=0, note=48, velocity=0, time=9),\n",
      "    Message('note_on', channel=0, note=48, velocity=31, time=4),\n",
      "    Message('note_on', channel=0, note=72, velocity=0, time=119),\n",
      "    Message('note_on', channel=0, note=72, velocity=54, time=11),\n",
      "    Message('note_on', channel=0, note=44, velocity=0, time=138),\n",
      "    Message('control_change', channel=0, control=64, value=0, time=0),\n",
      "    Message('note_on', channel=0, note=68, velocity=0, time=1),\n",
      "    Message('note_on', channel=0, note=60, velocity=0, time=0),\n",
      "    Message('note_on', channel=0, note=48, velocity=0, time=0),\n",
      "    Message('note_on', channel=0, note=63, velocity=0, time=0),\n",
      "    Message('note_on', channel=0, note=56, velocity=0, time=0),\n",
      "    Message('note_on', channel=0, note=72, velocity=0, time=2),\n",
      "    Message('note_on', channel=0, note=51, velocity=0, time=9),\n",
      "    Message('note_on', channel=0, note=74, velocity=57, time=18),\n",
      "    Message('note_on', channel=0, note=29, velocity=40, time=8),\n",
      "    Message('note_on', channel=0, note=41, velocity=33, time=1),\n",
      "    Message('note_on', channel=0, note=62, velocity=40, time=7),\n",
      "    Message('note_on', channel=0, note=68, velocity=40, time=0),\n",
      "    Message('control_change', channel=0, control=64, value=127, time=43),\n",
      "    Message('note_on', channel=0, note=29, velocity=0, time=7),\n",
      "    Message('note_on', channel=0, note=62, velocity=0, time=208),\n",
      "    Message('note_on', channel=0, note=62, velocity=42, time=11),\n",
      "    Message('note_on', channel=0, note=68, velocity=0, time=4),\n",
      "    Message('note_on', channel=0, note=56, velocity=44, time=5),\n",
      "    Message('note_on', channel=0, note=68, velocity=40, time=4),\n",
      "    Message('note_on', channel=0, note=50, velocity=31, time=11),\n",
      "    Message('note_on', channel=0, note=68, velocity=0, time=141),\n",
      "    Message('note_on', channel=0, note=68, velocity=41, time=10),\n",
      "    Message('note_on', channel=0, note=60, velocity=35, time=2),\n",
      "    Message('note_on', channel=0, note=62, velocity=0, time=12),\n",
      "    Message('note_on', channel=0, note=62, velocity=40, time=5),\n",
      "    Message('note_on', channel=0, note=56, velocity=0, time=2),\n",
      "    Message('note_on', channel=0, note=53, velocity=20, time=8),\n",
      "    Message('note_on', channel=0, note=56, velocity=25, time=1),\n",
      "    Message('note_on', channel=0, note=72, velocity=59, time=116),\n",
      "    Message('note_on', channel=0, note=60, velocity=0, time=21),\n",
      "    Message('note_on', channel=0, note=62, velocity=0, time=0),\n",
      "    Message('note_on', channel=0, note=62, velocity=34, time=4),\n",
      "    Message('note_on', channel=0, note=53, velocity=0, time=4),\n",
      "    Message('note_on', channel=0, note=56, velocity=0, time=0),\n",
      "    Message('note_on', channel=0, note=68, velocity=0, time=0),\n",
      "    Message('note_on', channel=0, note=60, velocity=21, time=0),\n",
      "    Message('note_on', channel=0, note=53, velocity=19, time=4),\n",
      "    Message('note_on', channel=0, note=68, velocity=33, time=4),\n",
      "    Message('note_on', channel=0, note=56, velocity=35, time=2),\n",
      "    Message('note_on', channel=0, note=53, velocity=0, time=174),\n",
      "    Message('note_on', channel=0, note=56, velocity=0, time=0),\n",
      "    Message('note_on', channel=0, note=60, velocity=0, time=0),\n",
      "    Message('note_on', channel=0, note=62, velocity=0, time=0),\n",
      "    Message('note_on', channel=0, note=60, velocity=38, time=4),\n",
      "    Message('note_on', channel=0, note=56, velocity=28, time=5),\n",
      "    Message('note_on', channel=0, note=62, velocity=40, time=2),\n",
      "    Message('note_on', channel=0, note=53, velocity=31, time=0),\n",
      "    Message('note_on', channel=0, note=62, velocity=0, time=173),\n",
      "    Message('note_on', channel=0, note=62, velocity=41, time=11),\n",
      "    Message('note_on', channel=0, note=50, velocity=0, time=5),\n",
      "    Message('note_on', channel=0, note=60, velocity=0, time=0),\n",
      "    Message('note_on', channel=0, note=60, velocity=25, time=4),\n",
      "    Message('note_on', channel=0, note=56, velocity=0, time=3),\n",
      "    Message('note_on', channel=0, note=50, velocity=34, time=4),\n",
      "    Message('note_on', channel=0, note=56, velocity=33, time=4),\n",
      "    Message('note_on', channel=0, note=68, velocity=0, time=123),\n",
      "    Message('note_on', channel=0, note=68, velocity=63, time=5),\n",
      "    Message('note_on', channel=0, note=67, velocity=59, time=208),\n",
      "    Message('note_on', channel=0, note=60, velocity=0, time=10),\n",
      "    Message('note_on', channel=0, note=60, velocity=34, time=11),\n",
      "    Message('note_on', channel=0, note=43, velocity=26, time=0),\n",
      "    Message('note_on', channel=0, note=31, velocity=29, time=0),\n",
      "    Message('note_on', channel=0, note=41, velocity=0, time=1),\n",
      "    Message('note_on', channel=0, note=56, velocity=0, time=1),\n",
      "    Message('control_change', channel=0, control=64, value=0, time=0),\n",
      "    Message('note_on', channel=0, note=68, velocity=0, time=0),\n",
      "    Message('note_on', channel=0, note=72, velocity=0, time=0),\n",
      "    Message('note_on', channel=0, note=74, velocity=0, time=1),\n",
      "    Message('note_on', channel=0, note=65, velocity=31, time=1),\n",
      "    Message('note_on', channel=0, note=50, velocity=0, time=8),\n",
      "    Message('note_on', channel=0, note=53, velocity=0, time=7),\n",
      "    Message('note_on', channel=0, note=62, velocity=0, time=0),\n",
      "    Message('note_on', channel=0, note=31, velocity=0, time=76),\n",
      "    Message('control_change', channel=0, control=64, value=127, time=24),\n",
      "    Message('note_on', channel=0, note=43, velocity=0, time=39),\n",
      "    Message('note_on', channel=0, note=60, velocity=0, time=115),\n",
      "    Message('note_on', channel=0, note=65, velocity=0, time=0),\n",
      "    Message('note_on', channel=0, note=67, velocity=0, time=8),\n",
      "    Message('note_on', channel=0, note=60, velocity=26, time=1),\n",
      "    Message('note_on', channel=0, note=65, velocity=30, time=1),\n",
      "    Message('note_on', channel=0, note=50, velocity=36, time=2),\n",
      "    Message('note_on', channel=0, note=67, velocity=37, time=0),\n",
      "    Message('note_on', channel=0, note=43, velocity=27, time=4),\n",
      "    Message('note_on', channel=0, note=55, velocity=27, time=2),\n",
      "    Message('note_on', channel=0, note=65, velocity=0, time=174),\n",
      "    Message('note_on', channel=0, note=55, velocity=0, time=8),\n",
      "    Message('note_on', channel=0, note=60, velocity=0, time=0),\n",
      "    Message('note_on', channel=0, note=67, velocity=0, time=0),\n",
      "    Message('note_on', channel=0, note=65, velocity=31, time=2),\n",
      "    Message('note_on', channel=0, note=60, velocity=32, time=3),\n",
      "    Message('note_on', channel=0, note=67, velocity=33, time=1),\n",
      "    Message('note_on', channel=0, note=55, velocity=30, time=1),\n",
      "    Message('note_on', channel=0, note=43, velocity=0, time=0),\n",
      "    Message('note_on', channel=0, note=50, velocity=0, time=0),\n",
      "    Message('note_on', channel=0, note=50, velocity=25, time=4),\n",
      "    Message('note_on', channel=0, note=43, velocity=27, time=2),\n",
      "    Message('note_on', channel=0, note=62, velocity=41, time=174),\n",
      "    Message('note_on', channel=0, note=59, velocity=41, time=23),\n",
      "    Message('note_on', channel=0, note=43, velocity=0, time=5),\n",
      "    Message('note_on', channel=0, note=50, velocity=0, time=0),\n",
      "    Message('note_on', channel=0, note=50, velocity=26, time=4),\n",
      "    Message('note_on', channel=0, note=43, velocity=31, time=0),\n",
      "    Message('control_change', channel=0, control=64, value=0, time=10),\n",
      "    Message('note_on', channel=0, note=60, velocity=0, time=3),\n",
      "    Message('note_on', channel=0, note=67, velocity=0, time=1),\n",
      "    Message('control_change', channel=0, control=64, value=127, time=112),\n",
      "    Message('note_on', channel=0, note=70, velocity=52, time=144),\n",
      "    Message('note_on', channel=0, note=59, velocity=0, time=41),\n",
      "    Message('note_on', channel=0, note=68, velocity=53, time=7),\n",
      "    Message('note_on', channel=0, note=59, velocity=38, time=3),\n",
      "    Message('note_on', channel=0, note=55, velocity=0, time=28),\n",
      "    Message('note_on', channel=0, note=55, velocity=14, time=11),\n",
      "    Message('note_on', channel=0, note=67, velocity=53, time=176),\n",
      "    Message('note_on', channel=0, note=50, velocity=0, time=20),\n",
      "    Message('note_on', channel=0, note=59, velocity=0, time=0),\n",
      "    Message('note_on', channel=0, note=50, velocity=26, time=4),\n",
      "    Message('note_on', channel=0, note=65, velocity=0, time=4),\n",
      "    Message('note_on', channel=0, note=59, velocity=32, time=4),\n",
      "    Message('note_on', channel=0, note=65, velocity=40, time=4),\n",
      "    Message('note_on', channel=0, note=43, velocity=0, time=115),\n",
      "    Message('note_on', channel=0, note=43, velocity=34, time=4),\n",
      "    Message('note_on', channel=0, note=62, velocity=0, time=57),\n",
      "    Message('note_on', channel=0, note=62, velocity=64, time=9),\n",
      "    Message('note_on', channel=0, note=59, velocity=0, time=7),\n",
      "    Message('note_on', channel=0, note=59, velocity=52, time=5),\n",
      "    Message('note_on', channel=0, note=53, velocity=31, time=6),\n",
      "    Message('note_on', channel=0, note=68, velocity=0, time=203),\n",
      "    Message('note_on', channel=0, note=53, velocity=0, time=0),\n",
      "    Message('note_on', channel=0, note=70, velocity=0, time=0),\n",
      "    Message('note_on', channel=0, note=50, velocity=0, time=1),\n",
      "    Message('control_change', channel=0, control=64, value=0, time=0),\n",
      "    Message('note_on', channel=0, note=65, velocity=0, time=0),\n",
      "    Message('note_on', channel=0, note=67, velocity=0, time=0),\n",
      "    Message('note_on', channel=0, note=55, velocity=0, time=0),\n",
      "    Message('note_on', channel=0, note=59, velocity=0, time=0),\n",
      "    Message('note_on', channel=0, note=62, velocity=0, time=0),\n",
      "    Message('note_on', channel=0, note=63, velocity=50, time=11),\n",
      "    Message('note_on', channel=0, note=43, velocity=0, time=4),\n",
      "    Message('note_on', channel=0, note=60, velocity=34, time=4),\n",
      "    Message('note_on', channel=0, note=43, velocity=31, time=7),\n",
      "    Message('note_on', channel=0, note=48, velocity=28, time=0),\n",
      "    Message('note_on', channel=0, note=36, velocity=28, time=1),\n",
      "    Message('control_change', channel=0, control=64, value=127, time=142),\n",
      "    Message('note_on', channel=0, note=60, velocity=0, time=153),\n",
      "    Message('note_on', channel=0, note=60, velocity=51, time=7),\n",
      "    Message('note_on', channel=0, note=43, velocity=0, time=1),\n",
      "    Message('note_on', channel=0, note=48, velocity=0, time=8),\n",
      "    Message('note_on', channel=0, note=43, velocity=31, time=2),\n",
      "    Message('note_on', channel=0, note=51, velocity=24, time=2),\n",
      "    Message('note_on', channel=0, note=55, velocity=29, time=3),\n",
      "    Message('note_on', channel=0, note=48, velocity=30, time=3),\n",
      "    Message('note_on', channel=0, note=55, velocity=0, time=189),\n",
      "    Message('note_on', channel=0, note=55, velocity=40, time=5),\n",
      "    Message('note_on', channel=0, note=43, velocity=0, time=18),\n",
      "    Message('note_on', channel=0, note=48, velocity=0, time=0),\n",
      "    Message('note_on', channel=0, note=51, velocity=0, time=0),\n",
      "    Message('note_on', channel=0, note=51, velocity=25, time=4),\n",
      "    Message('note_on', channel=0, note=43, velocity=25, time=2),\n",
      "    Message('note_on', channel=0, note=48, velocity=33, time=1),\n",
      "    Message('note_on', channel=0, note=48, velocity=0, time=162),\n",
      "    Message('note_on', channel=0, note=48, velocity=37, time=8),\n",
      "    Message('note_on', channel=0, note=43, velocity=0, time=8),\n",
      "    Message('note_on', channel=0, note=51, velocity=0, time=0),\n",
      "    Message('note_on', channel=0, note=55, velocity=0, time=7),\n",
      "    Message('note_on', channel=0, note=51, velocity=34, time=3),\n",
      "    Message('note_on', channel=0, note=43, velocity=27, time=1),\n",
      "    Message('note_on', channel=0, note=55, velocity=33, time=1),\n",
      "    Message('note_on', channel=0, note=55, velocity=0, time=164),\n",
      "    Message('note_on', channel=0, note=55, velocity=38, time=5),\n",
      "    Message('note_on', channel=0, note=48, velocity=0, time=3),\n",
      "    Message('note_on', channel=0, note=48, velocity=32, time=6),\n",
      "    Message('note_on', channel=0, note=51, velocity=0, time=2),\n",
      "    Message('note_on', channel=0, note=51, velocity=28, time=4),\n",
      "    Message('note_on', channel=0, note=60, velocity=0, time=1),\n",
      "    Message('control_change', channel=0, control=64, value=0, time=7),\n",
      "    Message('control_change', channel=0, control=64, value=127, time=18),\n",
      "    Message('note_on', channel=0, note=48, velocity=0, time=200),\n",
      "    Message('note_on', channel=0, note=48, velocity=30, time=5),\n",
      "    Message('note_on', channel=0, note=43, velocity=0, time=3),\n",
      "    Message('note_on', channel=0, note=51, velocity=0, time=0),\n",
      "    Message('note_on', channel=0, note=55, velocity=0, time=0),\n",
      "    Message('note_on', channel=0, note=51, velocity=33, time=4),\n",
      "    Message('note_on', channel=0, note=43, velocity=31, time=0),\n",
      "    Message('note_on', channel=0, note=55, velocity=34, time=0),\n",
      "    Message('note_on', channel=0, note=36, velocity=0, time=272),\n",
      "    Message('note_on', channel=0, note=51, velocity=0, time=0),\n",
      "    Message('note_on', channel=0, note=63, velocity=0, time=1),\n",
      "    Message('note_on', channel=0, note=48, velocity=0, time=1),\n",
      "    Message('note_on', channel=0, note=43, velocity=0, time=0),\n",
      "    Message('note_on', channel=0, note=55, velocity=0, time=1),\n",
      "    Message('control_change', channel=0, control=64, value=0, time=1),\n",
      "    Message('note_on', channel=0, note=58, velocity=45, time=38),\n",
      "    Message('note_on', channel=0, note=55, velocity=32, time=6),\n",
      "    Message('note_on', channel=0, note=51, velocity=30, time=8),\n",
      "    Message('note_on', channel=0, note=39, velocity=34, time=1),\n",
      "    Message('note_on', channel=0, note=27, velocity=42, time=1),\n",
      "    Message('control_change', channel=0, control=64, value=127, time=50),\n",
      "    Message('note_on', channel=0, note=27, velocity=0, time=23),\n",
      "    Message('note_on', channel=0, note=51, velocity=0, time=292),\n",
      "    Message('note_on', channel=0, note=51, velocity=35, time=5),\n",
      "    Message('note_on', channel=0, note=58, velocity=0, time=2),\n",
      "    Message('note_on', channel=0, note=58, velocity=33, time=4),\n",
      "    Message('note_on', channel=0, note=55, velocity=0, time=12),\n",
      "    Message('note_on', channel=0, note=70, velocity=29, time=2),\n",
      "    Message('note_on', channel=0, note=55, velocity=23, time=2),\n",
      "    Message('note_on', channel=0, note=75, velocity=29, time=1),\n",
      "    Message('note_on', channel=0, note=67, velocity=23, time=6),\n",
      "    Message('note_on', channel=0, note=75, velocity=0, time=150),\n",
      "    Message('note_on', channel=0, note=58, velocity=0, time=8),\n",
      "    Message('note_on', channel=0, note=67, velocity=0, time=0),\n",
      "    Message('note_on', channel=0, note=70, velocity=0, time=0),\n",
      "    Message('note_on', channel=0, note=75, velocity=51, time=3),\n",
      "    Message('note_on', channel=0, note=67, velocity=44, time=1),\n",
      "    Message('note_on', channel=0, note=55, velocity=0, time=3),\n",
      "    Message('note_on', channel=0, note=58, velocity=35, time=0),\n",
      "    Message('note_on', channel=0, note=70, velocity=35, time=2),\n",
      "    Message('note_on', channel=0, note=63, velocity=36, time=6),\n",
      "    Message('note_on', channel=0, note=55, velocity=29, time=0),\n",
      "    Message('note_on', channel=0, note=79, velocity=70, time=147),\n",
      "    Message('note_on', channel=0, note=58, velocity=0, time=14),\n",
      "    Message('note_on', channel=0, note=67, velocity=0, time=0),\n",
      "    Message('note_on', channel=0, note=70, velocity=0, time=0),\n",
      "    Message('note_on', channel=0, note=58, velocity=40, time=7),\n",
      "    Message('note_on', channel=0, note=55, velocity=0, time=1),\n",
      "    Message('note_on', channel=0, note=70, velocity=50, time=3),\n",
      "    Message('note_on', channel=0, note=67, velocity=45, time=0),\n",
      "    Message('note_on', channel=0, note=55, velocity=31, time=4),\n",
      "    Message('note_on', channel=0, note=51, velocity=0, time=1),\n",
      "    Message('note_on', channel=0, note=63, velocity=0, time=0),\n",
      "    Message('note_on', channel=0, note=75, velocity=0, time=0),\n",
      "    Message('note_on', channel=0, note=63, velocity=30, time=5),\n",
      "    Message('note_on', channel=0, note=75, velocity=33, time=4),\n",
      "    Message('note_on', channel=0, note=51, velocity=33, time=0),\n",
      "    Message('note_on', channel=0, note=67, velocity=0, time=144),\n",
      "    Message('note_on', channel=0, note=75, velocity=0, time=0),\n",
      "    Message('note_on', channel=0, note=67, velocity=38, time=7),\n",
      "    Message('note_on', channel=0, note=75, velocity=48, time=0),\n",
      "    Message('note_on', channel=0, note=63, velocity=0, time=1),\n",
      "    Message('note_on', channel=0, note=63, velocity=40, time=5),\n",
      "    Message('note_on', channel=0, note=70, velocity=0, time=3),\n",
      "    Message('note_on', channel=0, note=70, velocity=39, time=4),\n",
      "    Message('note_on', channel=0, note=58, velocity=0, time=3),\n",
      "    Message('note_on', channel=0, note=58, velocity=32, time=5),\n",
      "    Message('note_on', channel=0, note=55, velocity=0, time=3),\n",
      "    Message('note_on', channel=0, note=55, velocity=17, time=5),\n",
      "    Message('note_on', channel=0, note=51, velocity=0, time=125),\n",
      "    Message('note_on', channel=0, note=58, velocity=0, time=0),\n",
      "    Message('note_on', channel=0, note=55, velocity=0, time=8),\n",
      "    Message('note_on', channel=0, note=58, velocity=41, time=4),\n",
      "    Message('note_on', channel=0, note=51, velocity=47, time=0),\n",
      "    Message('note_on', channel=0, note=55, velocity=29, time=3),\n",
      "    Message('note_on', channel=0, note=55, velocity=0, time=196),\n",
      "    Message('note_on', channel=0, note=70, velocity=0, time=0),\n",
      "    Message('note_on', channel=0, note=67, velocity=0, time=0),\n",
      "    Message('note_on', channel=0, note=51, velocity=0, time=0),\n",
      "    Message('note_on', channel=0, note=58, velocity=0, time=0),\n",
      "    Message('note_on', channel=0, note=39, velocity=0, time=0),\n",
      "    Message('note_on', channel=0, note=79, velocity=0, time=1),\n",
      "    Message('control_change', channel=0, control=64, value=0, time=1),\n",
      "    Message('note_on', channel=0, note=63, velocity=0, time=10),\n",
      "    Message('note_on', channel=0, note=75, velocity=0, time=0),\n",
      "    Message('note_on', channel=0, note=75, velocity=48, time=11),\n",
      "    Message('note_on', channel=0, note=72, velocity=47, time=11),\n",
      "    Message('note_on', channel=0, note=68, velocity=41, time=1),\n",
      "    Message('note_on', channel=0, note=32, velocity=43, time=4),\n",
      "    Message('note_on', channel=0, note=44, velocity=47, time=4),\n",
      "    Message('control_change', channel=0, control=64, value=127, time=46),\n",
      "    Message('note_on', channel=0, note=75, velocity=0, time=184),\n",
      "    Message('note_on', channel=0, note=75, velocity=51, time=7),\n",
      "    Message('note_on', channel=0, note=68, velocity=0, time=1),\n",
      "    Message('note_on', channel=0, note=72, velocity=0, time=8),\n",
      "    Message('note_on', channel=0, note=68, velocity=38, time=3),\n",
      "    Message('note_on', channel=0, note=72, velocity=42, time=1),\n",
      "    Message('note_on', channel=0, note=60, velocity=35, time=0),\n",
      "    Message('note_on', channel=0, note=53, velocity=38, time=19),\n",
      "    Message('note_on', channel=0, note=68, velocity=0, time=138),\n",
      "    Message('note_on', channel=0, note=72, velocity=0, time=0),\n",
      "    Message('note_on', channel=0, note=75, velocity=0, time=0),\n",
      "    Message('note_on', channel=0, note=63, velocity=46, time=3),\n",
      "    Message('note_on', channel=0, note=72, velocity=48, time=4),\n",
      "    Message('note_on', channel=0, note=68, velocity=45, time=1),\n",
      "    Message('note_on', channel=0, note=56, velocity=46, time=2),\n",
      "    Message('note_on', channel=0, note=75, velocity=49, time=1),\n",
      "    Message('note_on', channel=0, note=32, velocity=0, time=135),\n",
      "    Message('note_on', channel=0, note=80, velocity=77, time=34),\n",
      "    Message('note_on', channel=0, note=60, velocity=0, time=20),\n",
      "    Message('note_on', channel=0, note=68, velocity=0, time=0),\n",
      "    Message('note_on', channel=0, note=68, velocity=43, time=7),\n",
      "    Message('note_on', channel=0, note=60, velocity=41, time=0),\n",
      "    Message('note_on', channel=0, note=53, velocity=0, time=0),\n",
      "    Message('note_on', channel=0, note=53, velocity=34, time=5),\n",
      "    Message('note_on', channel=0, note=72, velocity=0, time=3),\n",
      "    Message('note_on', channel=0, note=75, velocity=0, time=0),\n",
      "    Message('note_on', channel=0, note=75, velocity=40, time=5),\n",
      "    Message('note_on', channel=0, note=72, velocity=33, time=1),\n",
      "    Message('note_on', channel=0, note=56, velocity=0, time=2),\n",
      "    Message('note_on', channel=0, note=56, velocity=35, time=10),\n",
      "    Message('note_on', channel=0, note=63, velocity=0, time=143),\n",
      "    Message('note_on', channel=0, note=68, velocity=0, time=0),\n",
      "    Message('note_on', channel=0, note=72, velocity=0, time=0),\n",
      "    Message('note_on', channel=0, note=75, velocity=0, time=0),\n",
      "    Message('note_on', channel=0, note=75, velocity=44, time=4),\n",
      "    Message('note_on', channel=0, note=68, velocity=49, time=3),\n",
      "    Message('note_on', channel=0, note=63, velocity=41, time=1),\n",
      "    Message('note_on', channel=0, note=56, velocity=0, time=0),\n",
      "    Message('note_on', channel=0, note=72, velocity=41, time=4),\n",
      "    Message('note_on', channel=0, note=56, velocity=40, time=0),\n",
      "    Message('note_on', channel=0, note=53, velocity=0, time=134),\n",
      "    Message('note_on', channel=0, note=53, velocity=36, time=11),\n",
      "    Message('note_on', channel=0, note=72, velocity=0, time=5),\n",
      "    Message('note_on', channel=0, note=75, velocity=0, time=0),\n",
      "    Message('note_on', channel=0, note=72, velocity=46, time=5),\n",
      "    Message('note_on', channel=0, note=68, velocity=0, time=2),\n",
      "    Message('note_on', channel=0, note=80, velocity=0, time=0),\n",
      "    Message('note_on', channel=0, note=75, velocity=49, time=3),\n",
      "    Message('note_on', channel=0, note=80, velocity=48, time=2),\n",
      "    Message('note_on', channel=0, note=68, velocity=44, time=3),\n",
      "    Message('note_on', channel=0, note=80, velocity=0, time=150),\n",
      "    Message('note_on', channel=0, note=44, velocity=0, time=0),\n",
      "    Message('note_on', channel=0, note=56, velocity=0, time=1),\n",
      "    Message('note_on', channel=0, note=63, velocity=0, time=0),\n",
      "    Message('note_on', channel=0, note=75, velocity=0, time=0),\n",
      "    Message('note_on', channel=0, note=72, velocity=0, time=0),\n",
      "    Message('control_change', channel=0, control=64, value=0, time=0),\n",
      "    Message('note_on', channel=0, note=53, velocity=0, time=10),\n",
      "    Message('note_on', channel=0, note=60, velocity=0, time=0),\n",
      "    Message('note_on', channel=0, note=68, velocity=0, time=8),\n",
      "    Message('note_on', channel=0, note=68, velocity=49, time=11),\n",
      "    Message('note_on', channel=0, note=74, velocity=52, time=0),\n",
      "    Message('note_on', channel=0, note=46, velocity=39, time=6),\n",
      "    Message('note_on', channel=0, note=34, velocity=36, time=2),\n",
      "    Message('note_on', channel=0, note=70, velocity=43, time=1),\n",
      "    Message('control_change', channel=0, control=64, value=127, time=57),\n",
      "    Message('note_on', channel=0, note=68, velocity=0, time=146),\n",
      "    Message('note_on', channel=0, note=70, velocity=0, time=0),\n",
      "    Message('note_on', channel=0, note=74, velocity=0, time=0),\n",
      "    Message('note_on', channel=0, note=68, velocity=43, time=5),\n",
      "    Message('note_on', channel=0, note=46, velocity=0, time=2),\n",
      "    Message('note_on', channel=0, note=74, velocity=45, time=1),\n",
      "    Message('note_on', channel=0, note=70, velocity=40, time=1),\n",
      "    Message('note_on', channel=0, note=56, velocity=43, time=3),\n",
      "    Message('note_on', channel=0, note=46, velocity=26, time=0),\n",
      "    Message('note_on', channel=0, note=58, velocity=33, time=5),\n",
      "    Message('note_on', channel=0, note=62, velocity=20, time=2),\n",
      "    Message('note_on', channel=0, note=62, velocity=0, time=11),\n",
      "    Message('note_on', channel=0, note=79, velocity=68, time=158),\n",
      "    Message('note_on', channel=0, note=56, velocity=0, time=11),\n",
      "    Message('note_on', channel=0, note=74, velocity=0, time=0),\n",
      "    Message('note_on', channel=0, note=62, velocity=46, time=7),\n",
      "    Message('note_on', channel=0, note=70, velocity=0, time=1),\n",
      "    Message('note_on', channel=0, note=74, velocity=51, time=1),\n",
      "    Message('note_on', channel=0, note=56, velocity=43, time=1),\n",
      "    Message('note_on', channel=0, note=70, velocity=41, time=8),\n",
      "    Message('note_on', channel=0, note=46, velocity=0, time=151),\n",
      "    Message('note_on', channel=0, note=74, velocity=0, time=0),\n",
      "    Message('note_on', channel=0, note=46, velocity=37, time=11),\n",
      "    Message('note_on', channel=0, note=74, velocity=46, time=1),\n",
      "    Message('note_on', channel=0, note=56, velocity=0, time=11),\n",
      "    Message('note_on', channel=0, note=68, velocity=0, time=0),\n",
      "    Message('note_on', channel=0, note=68, velocity=37, time=10),\n",
      "    Message('note_on', channel=0, note=56, velocity=34, time=1),\n",
      "    Message('note_on', channel=0, note=62, velocity=0, time=151),\n",
      "    Message('note_on', channel=0, note=56, velocity=0, time=7),\n",
      "    Message('note_on', channel=0, note=62, velocity=32, time=3),\n",
      "    Message('note_on', channel=0, note=58, velocity=0, time=4),\n",
      "    Message('note_on', channel=0, note=56, velocity=38, time=4),\n",
      "    Message('note_on', channel=0, note=68, velocity=0, time=12),\n",
      "    Message('note_on', channel=0, note=70, velocity=0, time=0),\n",
      "    Message('note_on', channel=0, note=53, velocity=14, time=5),\n",
      "    Message('note_on', channel=0, note=70, velocity=29, time=0),\n",
      "    Message('note_on', channel=0, note=74, velocity=0, time=3),\n",
      "    Message('note_on', channel=0, note=68, velocity=37, time=0),\n",
      "    Message('note_on', channel=0, note=74, velocity=36, time=11),\n",
      "    Message('note_on', channel=0, note=77, velocity=68, time=229),\n",
      "    Message('note_on', channel=0, note=68, velocity=0, time=13),\n",
      "    Message('note_on', channel=0, note=35, velocity=36, time=1),\n",
      "    Message('note_on', channel=0, note=68, velocity=46, time=6),\n",
      "    Message('note_on', channel=0, note=35, velocity=0, time=1),\n",
      "    Message('note_on', channel=0, note=74, velocity=0, time=0),\n",
      "    Message('note_on', channel=0, note=47, velocity=30, time=5),\n",
      "    Message('note_on', channel=0, note=74, velocity=42, time=4),\n",
      "    Message('note_on', channel=0, note=53, velocity=0, time=175),\n",
      "    Message('note_on', channel=0, note=34, velocity=0, time=2),\n",
      "    Message('note_on', channel=0, note=46, velocity=0, time=0),\n",
      "    Message('note_on', channel=0, note=62, velocity=0, time=1),\n",
      "    Message('note_on', channel=0, note=68, velocity=0, time=0),\n",
      "    Message('control_change', channel=0, control=64, value=0, time=0),\n",
      "    Message('note_on', channel=0, note=70, velocity=0, time=1),\n",
      "    Message('note_on', channel=0, note=56, velocity=0, time=4),\n",
      "    Message('note_on', channel=0, note=79, velocity=0, time=8),\n",
      "    Message('note_on', channel=0, note=47, velocity=0, time=7),\n",
      "    Message('note_on', channel=0, note=72, velocity=47, time=36),\n",
      "    Message('note_on', channel=0, note=48, velocity=29, time=0),\n",
      "    Message('note_on', channel=0, note=36, velocity=32, time=6),\n",
      "    Message('note_on', channel=0, note=67, velocity=35, time=1),\n",
      "    Message('control_change', channel=0, control=64, value=127, time=42),\n",
      "    Message('note_on', channel=0, note=36, velocity=0, time=184),\n",
      "    Message('note_on', channel=0, note=75, velocity=66, time=4),\n",
      "    Message('note_on', channel=0, note=36, velocity=35, time=3),\n",
      "    Message('note_on', channel=0, note=48, velocity=0, time=1),\n",
      "    Message('note_on', channel=0, note=48, velocity=32, time=5),\n",
      "    Message('note_on', channel=0, note=72, velocity=0, time=3),\n",
      "    Message('note_on', channel=0, note=72, velocity=49, time=6),\n",
      "    Message('note_on', channel=0, note=67, velocity=0, time=1),\n",
      "    Message('note_on', channel=0, note=55, velocity=35, time=6),\n",
      "    Message('note_on', channel=0, note=67, velocity=34, time=1),\n",
      "    Message('note_on', channel=0, note=77, velocity=0, time=116),\n",
      "    Message('note_on', channel=0, note=77, velocity=69, time=11),\n",
      "    Message('note_on', channel=0, note=72, velocity=0, time=12),\n",
      "    Message('note_on', channel=0, note=67, velocity=0, time=8),\n",
      "    Message('note_on', channel=0, note=72, velocity=38, time=3),\n",
      "    Message('note_on', channel=0, note=67, velocity=36, time=1),\n",
      "    Message('note_on', channel=0, note=55, velocity=0, time=27),\n",
      "    Message('note_on', channel=0, note=63, velocity=37, time=4),\n",
      "    Message('note_on', channel=0, note=55, velocity=28, time=4),\n",
      "    Message('note_on', channel=0, note=48, velocity=0, time=7),\n",
      "    Message('note_on', channel=0, note=48, velocity=21, time=9),\n",
      "    Message('note_on', channel=0, note=75, velocity=0, time=60),\n",
      "    Message('note_on', channel=0, note=72, velocity=0, time=8),\n",
      "    Message('note_on', channel=0, note=75, velocity=70, time=2),\n",
      "    Message('note_on', channel=0, note=72, velocity=60, time=3),\n",
      "    Message('note_on', channel=0, note=55, velocity=0, time=10),\n",
      "    Message('note_on', channel=0, note=67, velocity=0, time=0),\n",
      "    Message('note_on', channel=0, note=67, velocity=45, time=4),\n",
      "    Message('note_on', channel=0, note=55, velocity=42, time=2),\n",
      "    Message('note_on', channel=0, note=48, velocity=0, time=117),\n",
      "    Message('note_on', channel=0, note=74, velocity=0, time=8),\n",
      "    Message('note_on', channel=0, note=48, velocity=35, time=3),\n",
      "    Message('note_on', channel=0, note=74, velocity=70, time=2),\n",
      "    Message('note_on', channel=0, note=55, velocity=0, time=2),\n",
      "    Message('note_on', channel=0, note=67, velocity=0, time=8),\n",
      "    Message('note_on', channel=0, note=72, velocity=0, time=0),\n",
      "    Message('note_on', channel=0, note=55, velocity=42, time=4),\n",
      "    Message('note_on', channel=0, note=72, velocity=50, time=2),\n",
      "    Message('note_on', channel=0, note=67, velocity=46, time=0),\n",
      "    Message('note_on', channel=0, note=75, velocity=0, time=132),\n",
      "    Message('note_on', channel=0, note=55, velocity=0, time=8),\n",
      "    Message('note_on', channel=0, note=67, velocity=0, time=0),\n",
      "    Message('note_on', channel=0, note=72, velocity=0, time=0),\n",
      "    Message('note_on', channel=0, note=75, velocity=70, time=3),\n",
      "    Message('note_on', channel=0, note=67, velocity=50, time=2),\n",
      "    Message('note_on', channel=0, note=55, velocity=42, time=4),\n",
      "    Message('note_on', channel=0, note=72, velocity=62, time=2),\n",
      "    Message('note_on', channel=0, note=63, velocity=0, time=50),\n",
      "    Message('note_on', channel=0, note=63, velocity=24, time=5),\n",
      "    Message('note_on', channel=0, note=55, velocity=0, time=3),\n",
      "    Message('note_on', channel=0, note=55, velocity=20, time=7),\n",
      "    Message('note_on', channel=0, note=77, velocity=0, time=70),\n",
      "    Message('note_on', channel=0, note=77, velocity=60, time=5),\n",
      "    Message('note_on', channel=0, note=72, velocity=0, time=3),\n",
      "    Message('note_on', channel=0, note=72, velocity=57, time=5),\n",
      "    Message('note_on', channel=0, note=67, velocity=0, time=10),\n",
      "    Message('note_on', channel=0, note=67, velocity=43, time=7),\n",
      "    Message('note_on', channel=0, note=69, velocity=41, time=5),\n",
      "    Message('note_on', channel=0, note=48, velocity=0, time=42),\n",
      "    Message('note_on', channel=0, note=48, velocity=40, time=4),\n",
      "    Message('note_on', channel=0, note=72, velocity=0, time=126),\n",
      "    Message('note_on', channel=0, note=79, velocity=65, time=1),\n",
      "    Message('note_on', channel=0, note=72, velocity=51, time=5),\n",
      "    Message('note_on', channel=0, note=48, velocity=0, time=2),\n",
      "    Message('note_on', channel=0, note=55, velocity=0, time=8),\n",
      "    Message('note_on', channel=0, note=48, velocity=31, time=1),\n",
      "    Message('note_on', channel=0, note=67, velocity=0, time=6),\n",
      "    Message('note_on', channel=0, note=55, velocity=25, time=1),\n",
      "    Message('note_on', channel=0, note=67, velocity=39, time=3),\n",
      "    Message('note_on', channel=0, note=74, velocity=0, time=188),\n",
      "    Message('note_on', channel=0, note=74, velocity=62, time=4),\n",
      "    Message('note_on', channel=0, note=67, velocity=0, time=19),\n",
      "    Message('note_on', channel=0, note=67, velocity=37, time=5),\n",
      "    Message('note_on', channel=0, note=62, velocity=40, time=1),\n",
      "    Message('note_on', channel=0, note=50, velocity=35, time=0),\n",
      "    Message('control_change', channel=0, control=64, value=0, time=4),\n",
      "    Message('note_on', channel=0, note=72, velocity=0, time=3),\n",
      "    Message('note_on', channel=0, note=69, velocity=0, time=0),\n",
      "    Message('note_on', channel=0, note=63, velocity=0, time=1),\n",
      "    Message('note_on', channel=0, note=55, velocity=0, time=0),\n",
      "    Message('note_on', channel=0, note=75, velocity=0, time=0),\n",
      "    Message('note_on', channel=0, note=77, velocity=0, time=0),\n",
      "    Message('note_on', channel=0, note=48, velocity=0, time=0),\n",
      "    Message('note_on', channel=0, note=79, velocity=0, time=0),\n",
      "    Message('note_on', channel=0, note=38, velocity=31, time=0),\n",
      "    Message('note_on', channel=0, note=36, velocity=0, time=9),\n",
      "    Message('note_on', channel=0, note=38, velocity=0, time=65),\n",
      "    Message('control_change', channel=0, control=64, value=127, time=20),\n",
      "    Message('note_on', channel=0, note=58, velocity=42, time=170),\n",
      "    Message('note_on', channel=0, note=50, velocity=0, time=6),\n",
      "    Message('note_on', channel=0, note=62, velocity=0, time=0),\n",
      "    Message('note_on', channel=0, note=50, velocity=28, time=5),\n",
      "    Message('note_on', channel=0, note=55, velocity=20, time=4),\n",
      "    Message('note_on', channel=0, note=62, velocity=30, time=2),\n",
      "    Message('note_on', channel=0, note=62, velocity=0, time=166),\n",
      "    Message('note_on', channel=0, note=62, velocity=63, time=5),\n",
      "    Message('note_on', channel=0, note=55, velocity=0, time=3),\n",
      "    Message('note_on', channel=0, note=55, velocity=39, time=7),\n",
      "    Message('note_on', channel=0, note=50, velocity=0, time=16),\n",
      "    Message('note_on', channel=0, note=46, velocity=32, time=4),\n",
      "    Message('note_on', channel=0, note=50, velocity=26, time=1),\n",
      "    Message('note_on', channel=0, note=50, velocity=0, time=195),\n",
      "    Message('note_on', channel=0, note=58, velocity=0, time=0),\n",
      "    Message('note_on', channel=0, note=62, velocity=0, time=0),\n",
      "    Message('note_on', channel=0, note=50, velocity=30, time=6),\n",
      "    Message('note_on', channel=0, note=55, velocity=0, time=1),\n",
      "    Message('note_on', channel=0, note=62, velocity=26, time=2),\n",
      "    Message('note_on', channel=0, note=58, velocity=38, time=1),\n",
      "    Message('note_on', channel=0, note=55, velocity=25, time=6),\n",
      "    Message('note_on', channel=0, note=67, velocity=0, time=152),\n",
      "    Message('note_on', channel=0, note=62, velocity=0, time=8),\n",
      "    Message('note_on', channel=0, note=67, velocity=58, time=3),\n",
      "    Message('note_on', channel=0, note=62, velocity=57, time=7),\n",
      "    Message('note_on', channel=0, note=55, velocity=0, time=6),\n",
      "    Message('note_on', channel=0, note=55, velocity=33, time=4),\n",
      "    Message('note_on', channel=0, note=72, velocity=65, time=137),\n",
      "    Message('note_on', channel=0, note=62, velocity=0, time=4),\n",
      "    Message('note_on', channel=0, note=62, velocity=47, time=11),\n",
      "    Message('note_on', channel=0, note=55, velocity=0, time=12),\n",
      "    Message('note_on', channel=0, note=67, velocity=0, time=0),\n",
      "    Message('note_on', channel=0, note=67, velocity=44, time=5),\n",
      "    Message('note_on', channel=0, note=55, velocity=25, time=2),\n",
      "    Message('note_on', channel=0, note=58, velocity=0, time=9),\n",
      "    Message('note_on', channel=0, note=58, velocity=23, time=5),\n",
      "    Message('note_on', channel=0, note=74, velocity=0, time=95),\n",
      "    Message('note_on', channel=0, note=74, velocity=71, time=10),\n",
      "    Message('note_on', channel=0, note=67, velocity=0, time=5),\n",
      "    Message('note_on', channel=0, note=67, velocity=43, time=6),\n",
      "    Message('note_on', channel=0, note=62, velocity=0, time=2),\n",
      "    Message('note_on', channel=0, note=62, velocity=47, time=4),\n",
      "    Message('note_on', channel=0, note=50, velocity=0, time=150),\n",
      "    Message('control_change', channel=0, control=64, value=0, time=0),\n",
      "    Message('note_on', channel=0, note=72, velocity=0, time=0),\n",
      "    Message('note_on', channel=0, note=67, velocity=0, time=1),\n",
      "    Message('note_on', channel=0, note=58, velocity=0, time=0),\n",
      "    Message('note_on', channel=0, note=62, velocity=0, time=0),\n",
      "    Message('note_on', channel=0, note=74, velocity=0, time=1),\n",
      "    Message('note_on', channel=0, note=75, velocity=69, time=0),\n",
      "    Message('note_on', channel=0, note=46, velocity=0, time=5),\n",
      "    Message('note_on', channel=0, note=55, velocity=0, time=8),\n",
      "    Message('note_on', channel=0, note=63, velocity=41, time=15),\n",
      "    Message('control_change', channel=0, control=64, value=127, time=92),\n",
      "    Message('note_on', channel=0, note=63, velocity=0, time=138),\n",
      "    Message('note_on', channel=0, note=69, velocity=42, time=12),\n",
      "    Message('note_on', channel=0, note=63, velocity=40, time=0),\n",
      "    Message('note_on', channel=0, note=67, velocity=41, time=0),\n",
      "    Message('note_on', channel=0, note=57, velocity=40, time=2),\n",
      "    Message('note_on', channel=0, note=57, velocity=0, time=155),\n",
      "    Message('note_on', channel=0, note=57, velocity=38, time=5),\n",
      "    Message('note_on', channel=0, note=63, velocity=0, time=11),\n",
      "    Message('note_on', channel=0, note=67, velocity=0, time=0),\n",
      "    Message('note_on', channel=0, note=63, velocity=34, time=5),\n",
      "    Message('note_on', channel=0, note=60, velocity=33, time=4),\n",
      "    Message('note_on', channel=0, note=67, velocity=35, time=1),\n",
      "    Message('note_on', channel=0, note=63, velocity=0, time=151),\n",
      "    Message('note_on', channel=0, note=63, velocity=41, time=10),\n",
      "    Message('note_on', channel=0, note=57, velocity=0, time=5),\n",
      "    Message('note_on', channel=0, note=60, velocity=0, time=0),\n",
      "    Message('note_on', channel=0, note=66, velocity=31, time=4),\n",
      "    Message('note_on', channel=0, note=57, velocity=37, time=7),\n",
      "    Message('note_on', channel=0, note=60, velocity=27, time=1),\n",
      "    Message('note_on', channel=0, note=50, velocity=31, time=0),\n",
      "    Message('note_on', channel=0, note=38, velocity=30, time=7),\n",
      "    Message('note_on', channel=0, note=57, velocity=0, time=181),\n",
      "    Message('note_on', channel=0, note=63, velocity=0, time=0),\n",
      "    Message('note_on', channel=0, note=69, velocity=0, time=0),\n",
      "    Message('note_on', channel=0, note=60, velocity=0, time=8),\n",
      "    Message('note_on', channel=0, note=69, velocity=41, time=0),\n",
      "    Message('note_on', channel=0, note=63, velocity=41, time=0),\n",
      "    Message('note_on', channel=0, note=57, velocity=39, time=3),\n",
      "    Message('note_on', channel=0, note=60, velocity=31, time=1),\n",
      "    Message('note_on', channel=0, note=57, velocity=0, time=234),\n",
      "    Message('note_on', channel=0, note=66, velocity=0, time=8),\n",
      "    Message('note_on', channel=0, note=57, velocity=39, time=1),\n",
      "    Message('note_on', channel=0, note=38, velocity=0, time=6),\n",
      "    Message('note_on', channel=0, note=66, velocity=50, time=3),\n",
      "    Message('note_on', channel=0, note=38, velocity=34, time=2),\n",
      "    Message('note_on', channel=0, note=50, velocity=0, time=3),\n",
      "    Message('note_on', channel=0, note=60, velocity=0, time=0),\n",
      "    Message('note_on', channel=0, note=50, velocity=33, time=6),\n",
      "    Message('note_on', channel=0, note=63, velocity=0, time=2),\n",
      "    Message('note_on', channel=0, note=60, velocity=36, time=0),\n",
      "    Message('note_on', channel=0, note=63, velocity=42, time=11),\n",
      "    Message('note_on', channel=0, note=66, velocity=0, time=242),\n",
      "    Message('note_on', channel=0, note=38, velocity=0, time=8),\n",
      "    Message('note_on', channel=0, note=50, velocity=0, time=0),\n",
      "    Message('note_on', channel=0, note=63, velocity=0, time=1),\n",
      "    Message('note_on', channel=0, note=69, velocity=0, time=0),\n",
      "    Message('note_on', channel=0, note=60, velocity=0, time=1),\n",
      "    Message('note_on', channel=0, note=66, velocity=46, time=0),\n",
      "    Message('control_change', channel=0, control=64, value=0, time=3),\n",
      "    Message('note_on', channel=0, note=62, velocity=44, time=6),\n",
      "    Message('note_on', channel=0, note=57, velocity=0, time=4),\n",
      "    Message('note_on', channel=0, note=75, velocity=0, time=0),\n",
      "    Message('note_on', channel=0, note=58, velocity=35, time=11),\n",
      "    Message('note_on', channel=0, note=31, velocity=30, time=9),\n",
      "    Message('control_change', channel=0, control=64, value=127, time=88),\n",
      "    Message('note_on', channel=0, note=62, velocity=0, time=161),\n",
      "    Message('note_on', channel=0, note=62, velocity=36, time=7),\n",
      "    Message('note_on', channel=0, note=58, velocity=0, time=1),\n",
      "    Message('note_on', channel=0, note=31, velocity=0, time=7),\n",
      "    Message('note_on', channel=0, note=58, velocity=38, time=3),\n",
      "    Message('note_on', channel=0, note=50, velocity=33, time=8),\n",
      "    Message('note_on', channel=0, note=55, velocity=27, time=0),\n",
      "    Message('note_on', channel=0, note=31, velocity=34, time=1),\n",
      "    Message('note_on', channel=0, note=67, velocity=0, time=249),\n",
      "    Message('note_on', channel=0, note=62, velocity=0, time=8),\n",
      "    Message('note_on', channel=0, note=67, velocity=49, time=1),\n",
      "    Message('note_on', channel=0, note=62, velocity=29, time=9),\n",
      "    Message('note_on', channel=0, note=50, velocity=0, time=13),\n",
      "    Message('note_on', channel=0, note=55, velocity=0, time=0),\n",
      "    Message('note_on', channel=0, note=58, velocity=0, time=0),\n",
      "    Message('note_on', channel=0, note=50, velocity=29, time=5),\n",
      "    Message('note_on', channel=0, note=58, velocity=29, time=0),\n",
      "    Message('note_on', channel=0, note=55, velocity=30, time=5),\n",
      "    Message('note_on', channel=0, note=31, velocity=0, time=56),\n",
      "    Message('note_on', channel=0, note=58, velocity=0, time=0),\n",
      "    Message('note_on', channel=0, note=62, velocity=0, time=4),\n",
      "    Message('note_on', channel=0, note=50, velocity=0, time=1),\n",
      "    Message('note_on', channel=0, note=66, velocity=0, time=0),\n",
      "    Message('control_change', channel=0, control=64, value=0, time=0),\n",
      "    Message('note_on', channel=0, note=58, velocity=36, time=108),\n",
      "    Message('note_on', channel=0, note=62, velocity=32, time=5),\n",
      "    Message('note_on', channel=0, note=55, velocity=0, time=0),\n",
      "    Message('note_on', channel=0, note=50, velocity=31, time=6),\n",
      "    Message('note_on', channel=0, note=55, velocity=25, time=1),\n",
      "    Message('note_on', channel=0, note=43, velocity=29, time=2),\n",
      "    Message('control_change', channel=0, control=64, value=127, time=7),\n",
      "    Message('note_on', channel=0, note=50, velocity=0, time=169),\n",
      "    Message('note_on', channel=0, note=55, velocity=0, time=0),\n",
      "    Message('note_on', channel=0, note=58, velocity=0, time=0),\n",
      "    Message('note_on', channel=0, note=58, velocity=39, time=4),\n",
      "    Message('note_on', channel=0, note=55, velocity=29, time=5),\n",
      "    Message('note_on', channel=0, note=50, velocity=24, time=2),\n",
      "    Message('note_on', channel=0, note=58, velocity=0, time=181),\n",
      "    Message('note_on', channel=0, note=62, velocity=0, time=0),\n",
      "    Message('note_on', channel=0, note=58, velocity=37, time=4),\n",
      "    Message('note_on', channel=0, note=62, velocity=33, time=1),\n",
      "    Message('note_on', channel=0, note=36, velocity=34, time=13),\n",
      "    Message('control_change', channel=0, control=64, value=0, time=198),\n",
      "    Message('note_on', channel=0, note=58, velocity=0, time=2),\n",
      "    Message('note_on', channel=0, note=36, velocity=0, time=0),\n",
      "    Message('note_on', channel=0, note=67, velocity=0, time=0),\n",
      "    Message('note_on', channel=0, note=62, velocity=0, time=4),\n",
      "    Message('note_on', channel=0, note=62, velocity=39, time=8),\n",
      "    Message('note_on', channel=0, note=43, velocity=0, time=8),\n",
      "    Message('note_on', channel=0, note=50, velocity=0, time=0),\n",
      "    Message('note_on', channel=0, note=55, velocity=0, time=0),\n",
      "    Message('note_on', channel=0, note=43, velocity=35, time=5),\n",
      "    Message('note_on', channel=0, note=31, velocity=42, time=2),\n",
      "    Message('note_on', channel=0, note=55, velocity=24, time=4),\n",
      "    Message('note_on', channel=0, note=31, velocity=0, time=52),\n",
      "    Message('control_change', channel=0, control=64, value=127, time=14),\n",
      "    Message('note_on', channel=0, note=59, velocity=41, time=165),\n",
      "    Message('note_on', channel=0, note=50, velocity=36, time=5),\n",
      "    Message('note_on', channel=0, note=43, velocity=0, time=6),\n",
      "    Message('note_on', channel=0, note=55, velocity=0, time=0),\n",
      "    Message('note_on', channel=0, note=31, velocity=33, time=4),\n",
      "    Message('note_on', channel=0, note=43, velocity=27, time=3),\n",
      "    Message('note_on', channel=0, note=55, velocity=23, time=1),\n",
      "    Message('note_on', channel=0, note=31, velocity=0, time=8),\n",
      "    Message('note_on', channel=0, note=59, velocity=0, time=153),\n",
      "    Message('note_on', channel=0, note=62, velocity=0, time=0),\n",
      "    Message('note_on', channel=0, note=62, velocity=39, time=7),\n",
      "    Message('note_on', channel=0, note=55, velocity=0, time=1),\n",
      "    Message('note_on', channel=0, note=59, velocity=37, time=3),\n",
      "    Message('note_on', channel=0, note=55, velocity=30, time=3),\n",
      "    Message('note_on', channel=0, note=50, velocity=0, time=17),\n",
      "    Message('note_on', channel=0, note=50, velocity=19, time=5),\n",
      "    Message('note_on', channel=0, note=67, velocity=58, time=184),\n",
      "    Message('note_on', channel=0, note=59, velocity=0, time=18),\n",
      "    Message('note_on', channel=0, note=62, velocity=0, time=8),\n",
      "    Message('note_on', channel=0, note=59, velocity=26, time=3),\n",
      "    Message('note_on', channel=0, note=62, velocity=24, time=1),\n",
      "    Message('note_on', channel=0, note=55, velocity=0, time=4),\n",
      "    Message('note_on', channel=0, note=55, velocity=19, time=6),\n",
      "    Message('note_on', channel=0, note=59, velocity=0, time=193),\n",
      "    Message('note_on', channel=0, note=62, velocity=0, time=0),\n",
      "    Message('note_on', channel=0, note=62, velocity=41, time=5),\n",
      "    Message('note_on', channel=0, note=50, velocity=0, time=3),\n",
      "    Message('note_on', channel=0, note=59, velocity=35, time=1),\n",
      "    Message('note_on', channel=0, note=50, velocity=34, time=5),\n",
      "    Message('note_on', channel=0, note=55, velocity=0, time=9),\n",
      "    Message('note_on', channel=0, note=55, velocity=16, time=4),\n",
      "    Message('note_on', channel=0, note=62, velocity=0, time=234),\n",
      "    Message('note_on', channel=0, note=59, velocity=0, time=8),\n",
      "    Message('note_on', channel=0, note=62, velocity=36, time=1),\n",
      "    Message('note_on', channel=0, note=59, velocity=35, time=4),\n",
      "    Message('note_on', channel=0, note=43, velocity=0, time=10),\n",
      "    Message('note_on', channel=0, note=43, velocity=35, time=6),\n",
      "    Message('note_on', channel=0, note=31, velocity=38, time=0),\n",
      "    Message('note_on', channel=0, note=55, velocity=0, time=2),\n",
      "    Message('note_on', channel=0, note=55, velocity=22, time=5),\n",
      "    Message('note_on', channel=0, note=43, velocity=0, time=310),\n",
      "    Message('note_on', channel=0, note=31, velocity=0, time=1),\n",
      "    Message('note_on', channel=0, note=55, velocity=0, time=1),\n",
      "    Message('note_on', channel=0, note=62, velocity=0, time=2),\n",
      "    Message('note_on', channel=0, note=59, velocity=0, time=0),\n",
      "    Message('note_on', channel=0, note=67, velocity=0, time=0),\n",
      "    Message('control_change', channel=0, control=64, value=0, time=0),\n",
      "    Message('note_on', channel=0, note=30, velocity=52, time=9),\n",
      "    Message('note_on', channel=0, note=50, velocity=0, time=2),\n",
      "    Message('note_on', channel=0, note=58, velocity=37, time=1),\n",
      "    Message('note_on', channel=0, note=42, velocity=43, time=2),\n",
      "    Message('note_on', channel=0, note=51, velocity=29, time=2),\n",
      "    Message('control_change', channel=0, control=64, value=127, time=80),\n",
      "    Message('note_on', channel=0, note=51, velocity=0, time=238),\n",
      "    Message('note_on', channel=0, note=60, velocity=35, time=10),\n",
      "    Message('note_on', channel=0, note=51, velocity=41, time=1),\n",
      "    Message('note_on', channel=0, note=63, velocity=38, time=1),\n",
      "    Message('note_on', channel=0, note=42, velocity=0, time=3),\n",
      "    Message('note_on', channel=0, note=57, velocity=25, time=1),\n",
      "    Message('note_on', channel=0, note=42, velocity=35, time=3),\n",
      "    Message('note_on', channel=0, note=58, velocity=0, time=135),\n",
      "    Message('note_on', channel=0, note=63, velocity=0, time=46),\n",
      "    Message('note_on', channel=0, note=51, velocity=0, time=7),\n",
      "    Message('note_on', channel=0, note=60, velocity=0, time=0),\n",
      "    Message('note_on', channel=0, note=63, velocity=43, time=3),\n",
      "    Message('note_on', channel=0, note=60, velocity=36, time=3),\n",
      "    Message('note_on', channel=0, note=56, velocity=39, time=0),\n",
      "    Message('note_on', channel=0, note=51, velocity=40, time=1),\n",
      "    Message('note_on', channel=0, note=42, velocity=0, time=208),\n",
      "    Message('note_on', channel=0, note=30, velocity=0, time=8),\n",
      "    Message('note_on', channel=0, note=68, velocity=69, time=3),\n",
      "    Message('note_on', channel=0, note=42, velocity=36, time=0),\n",
      "    Message('note_on', channel=0, note=30, velocity=32, time=2),\n",
      "    Message('note_on', channel=0, note=56, velocity=0, time=202),\n",
      "    Message('note_on', channel=0, note=60, velocity=0, time=0),\n",
      "    Message('note_on', channel=0, note=63, velocity=0, time=0),\n",
      "    Message('note_on', channel=0, note=63, velocity=40, time=5),\n",
      "    Message('note_on', channel=0, note=51, velocity=0, time=3),\n",
      "    Message('note_on', channel=0, note=60, velocity=39, time=1),\n",
      "    Message('note_on', channel=0, note=56, velocity=37, time=2),\n",
      "    Message('note_on', channel=0, note=51, velocity=37, time=1),\n",
      "    Message('note_on', channel=0, note=63, velocity=0, time=180),\n",
      "    Message('note_on', channel=0, note=63, velocity=53, time=7),\n",
      "    Message('note_on', channel=0, note=60, velocity=0, time=1),\n",
      "    Message('note_on', channel=0, note=60, velocity=33, time=11),\n",
      "    Message('note_on', channel=0, note=42, velocity=0, time=12),\n",
      "    Message('note_on', channel=0, note=54, velocity=32, time=2),\n",
      "    Message('note_on', channel=0, note=42, velocity=45, time=4),\n",
      "    Message('note_on', channel=0, note=30, velocity=0, time=2),\n",
      "    Message('note_on', channel=0, note=30, velocity=38, time=5),\n",
      "    Message('note_on', channel=0, note=54, velocity=0, time=141),\n",
      "    Message('note_on', channel=0, note=57, velocity=0, time=7),\n",
      "    Message('control_change', channel=0, control=64, value=0, time=4),\n",
      "    Message('note_on', channel=0, note=30, velocity=0, time=1),\n",
      "    Message('note_on', channel=0, note=51, velocity=0, time=0),\n",
      "    Message('note_on', channel=0, note=42, velocity=0, time=0),\n",
      "    Message('note_on', channel=0, note=63, velocity=0, time=1),\n",
      "    Message('note_on', channel=0, note=68, velocity=0, time=0),\n",
      "    Message('note_on', channel=0, note=60, velocity=0, time=1),\n",
      "    Message('note_on', channel=0, note=61, velocity=47, time=14),\n",
      "    Message('note_on', channel=0, note=56, velocity=0, time=2),\n",
      "    Message('note_on', channel=0, note=56, velocity=43, time=9),\n",
      "    Message('note_on', channel=0, note=29, velocity=45, time=5),\n",
      "    Message('note_on', channel=0, note=41, velocity=38, time=1),\n",
      "    Message('control_change', channel=0, control=64, value=127, time=55),\n",
      "    Message('note_on', channel=0, note=61, velocity=0, time=138),\n",
      "    Message('note_on', channel=0, note=61, velocity=41, time=5),\n",
      "    Message('note_on', channel=0, note=41, velocity=0, time=2),\n",
      "    Message('note_on', channel=0, note=41, velocity=38, time=7),\n",
      "    Message('note_on', channel=0, note=49, velocity=35, time=6),\n",
      "    Message('note_on', channel=0, note=73, velocity=67, time=183),\n",
      "    Message('note_on', channel=0, note=61, velocity=0, time=4),\n",
      "    Message('note_on', channel=0, note=61, velocity=47, time=6),\n",
      "    Message('note_on', channel=0, note=56, velocity=0, time=25),\n",
      "    Message('note_on', channel=0, note=56, velocity=30, time=8),\n",
      "    Message('note_on', channel=0, note=49, velocity=0, time=15),\n",
      "    Message('note_on', channel=0, note=49, velocity=37, time=5),\n",
      "    Message('note_on', channel=0, note=68, velocity=47, time=216),\n",
      "    Message('note_on', channel=0, note=77, velocity=67, time=1),\n",
      "    Message('note_on', channel=0, note=49, velocity=0, time=24),\n",
      "    Message('note_on', channel=0, note=73, velocity=0, time=0),\n",
      "    Message('note_on', channel=0, note=49, velocity=42, time=3),\n",
      "    Message('note_on', channel=0, note=41, velocity=0, time=4),\n",
      "    Message('note_on', channel=0, note=73, velocity=39, time=2),\n",
      "    Message('note_on', channel=0, note=41, velocity=31, time=2),\n",
      "    Message('note_on', channel=0, note=65, velocity=32, time=2),\n",
      "    Message('note_on', channel=0, note=56, velocity=0, time=209),\n",
      "    Message('note_on', channel=0, note=56, velocity=46, time=11),\n",
      "    Message('note_on', channel=0, note=61, velocity=0, time=5),\n",
      "    Message('note_on', channel=0, note=49, velocity=0, time=7),\n",
      "    Message('note_on', channel=0, note=61, velocity=30, time=3),\n",
      "    Message('note_on', channel=0, note=49, velocity=33, time=5),\n",
      "    Message('note_on', channel=0, note=82, velocity=69, time=95),\n",
      "    Message('note_on', channel=0, note=73, velocity=0, time=5),\n",
      "    Message('note_on', channel=0, note=77, velocity=0, time=0),\n",
      "    Message('note_on', channel=0, note=73, velocity=50, time=5),\n",
      "    Message('note_on', channel=0, note=70, velocity=48, time=0),\n",
      "    Message('note_on', channel=0, note=77, velocity=41, time=4),\n",
      "    Message('note_on', channel=0, note=41, velocity=0, time=68),\n",
      "    Message('note_on', channel=0, note=53, velocity=26, time=3),\n",
      "    Message('note_on', channel=0, note=41, velocity=36, time=3),\n",
      "    Message('note_on', channel=0, note=41, velocity=0, time=212),\n",
      "    Message('note_on', channel=0, note=65, velocity=0, time=0),\n",
      "    Message('note_on', channel=0, note=77, velocity=0, time=1),\n",
      "    Message('note_on', channel=0, note=73, velocity=0, time=0),\n",
      "    Message('note_on', channel=0, note=49, velocity=0, time=0),\n",
      "    Message('note_on', channel=0, note=61, velocity=0, time=0),\n",
      "    Message('note_on', channel=0, note=82, velocity=0, time=0),\n",
      "    Message('note_on', channel=0, note=56, velocity=0, time=0),\n",
      "    Message('note_on', channel=0, note=70, velocity=0, time=0),\n",
      "    Message('control_change', channel=0, control=64, value=0, time=1),\n",
      "    Message('note_on', channel=0, note=29, velocity=0, time=2),\n",
      "    Message('note_on', channel=0, note=53, velocity=0, time=8),\n",
      "    Message('note_on', channel=0, note=80, velocity=64, time=8),\n",
      "    Message('note_on', channel=0, note=68, velocity=0, time=7),\n",
      "    Message('note_on', channel=0, note=75, velocity=50, time=3),\n",
      "    Message('note_on', channel=0, note=68, velocity=48, time=1),\n",
      "    Message('note_on', channel=0, note=36, velocity=27, time=7),\n",
      "    Message('note_on', channel=0, note=48, velocity=22, time=8),\n",
      "    Message('control_change', channel=0, control=64, value=127, time=51),\n",
      "    Message('note_on', channel=0, note=48, velocity=0, time=199),\n",
      "    Message('note_on', channel=0, note=48, velocity=31, time=8),\n",
      "    Message('note_on', channel=0, note=66, velocity=34, time=4),\n",
      "    Message('note_on', channel=0, note=56, velocity=45, time=0),\n",
      "    Message('note_on', channel=0, note=66, velocity=0, time=165),\n",
      "    Message('note_on', channel=0, note=75, velocity=0, time=0),\n",
      "    Message('note_on', channel=0, note=75, velocity=53, time=5),\n",
      "    Message('note_on', channel=0, note=66, velocity=36, time=2),\n",
      "    Message('note_on', channel=0, note=56, velocity=0, time=1),\n",
      "    Message('note_on', channel=0, note=68, velocity=0, time=0),\n",
      "    Message('note_on', channel=0, note=48, velocity=0, time=7),\n",
      "    Message('note_on', channel=0, note=68, velocity=38, time=0),\n",
      "    Message('note_on', channel=0, note=63, velocity=40, time=1),\n",
      "    Message('note_on', channel=0, note=56, velocity=38, time=3),\n",
      "    Message('note_on', channel=0, note=48, velocity=24, time=3),\n",
      "    Message('note_on', channel=0, note=66, velocity=0, time=139),\n",
      "    Message('note_on', channel=0, note=66, velocity=41, time=11),\n",
      "    Message('note_on', channel=0, note=48, velocity=0, time=5),\n",
      "    Message('note_on', channel=0, note=56, velocity=0, time=0),\n",
      "    Message('note_on', channel=0, note=48, velocity=29, time=5),\n",
      "    Message('note_on', channel=0, note=75, velocity=0, time=2),\n",
      "    Message('note_on', channel=0, note=56, velocity=40, time=3),\n",
      "    Message('note_on', channel=0, note=75, velocity=43, time=8),\n",
      "    Message('note_on', channel=0, note=66, velocity=0, time=174),\n",
      "    Message('note_on', channel=0, note=66, velocity=46, time=5),\n",
      "    Message('note_on', channel=0, note=63, velocity=0, time=2),\n",
      "    Message('note_on', channel=0, note=56, velocity=0, time=8),\n",
      "    Message('note_on', channel=0, note=63, velocity=45, time=4),\n",
      "    Message('note_on', channel=0, note=56, velocity=37, time=2),\n",
      "    Message('note_on', channel=0, note=48, velocity=0, time=189),\n",
      "    Message('note_on', channel=0, note=66, velocity=0, time=5),\n",
      "    Message('note_on', channel=0, note=75, velocity=0, time=0),\n",
      "    Message('note_on', channel=0, note=78, velocity=60, time=3),\n",
      "    Message('note_on', channel=0, note=68, velocity=0, time=4),\n",
      "    Message('note_on', channel=0, note=75, velocity=45, time=3),\n",
      "    Message('note_on', channel=0, note=66, velocity=43, time=1),\n",
      "    Message('note_on', channel=0, note=68, velocity=46, time=3),\n",
      "    Message('note_on', channel=0, note=56, velocity=0, time=1),\n",
      "    Message('note_on', channel=0, note=56, velocity=32, time=7),\n",
      "    Message('note_on', channel=0, note=77, velocity=59, time=128),\n",
      "    Message('note_on', channel=0, note=65, velocity=43, time=5),\n",
      "    Message('note_on', channel=0, note=68, velocity=0, time=14),\n",
      "    Message('note_on', channel=0, note=68, velocity=38, time=4),\n",
      "    Message('note_on', channel=0, note=65, velocity=0, time=134),\n",
      "    Message('note_on', channel=0, note=77, velocity=0, time=0),\n",
      "    Message('note_on', channel=0, note=77, velocity=50, time=7),\n",
      "    Message('note_on', channel=0, note=65, velocity=49, time=2),\n",
      "    Message('control_change', channel=0, control=64, value=0, time=3),\n",
      "    Message('note_on', channel=0, note=56, velocity=0, time=0),\n",
      "    Message('note_on', channel=0, note=75, velocity=0, time=1),\n",
      "    Message('note_on', channel=0, note=68, velocity=0, time=0),\n",
      "    Message('note_on', channel=0, note=78, velocity=0, time=0),\n",
      "    Message('note_on', channel=0, note=80, velocity=0, time=0),\n",
      "    Message('note_on', channel=0, note=63, velocity=0, time=0),\n",
      "    Message('note_on', channel=0, note=36, velocity=0, time=2),\n",
      "    Message('note_on', channel=0, note=66, velocity=0, time=8),\n",
      "    Message('note_on', channel=0, note=73, velocity=35, time=8),\n",
      "    Message('note_on', channel=0, note=49, velocity=34, time=4),\n",
      "    Message('note_on', channel=0, note=37, velocity=32, time=0),\n",
      "    Message('control_change', channel=0, control=64, value=127, time=65),\n",
      "    Message('note_on', channel=0, note=49, velocity=0, time=169),\n",
      "    Message('note_on', channel=0, note=65, velocity=0, time=0),\n",
      "    Message('note_on', channel=0, note=77, velocity=0, time=0),\n",
      "    Message('note_on', channel=0, note=65, velocity=37, time=8),\n",
      "    Message('note_on', channel=0, note=49, velocity=36, time=1),\n",
      "    Message('note_on', channel=0, note=77, velocity=47, time=2),\n",
      "    Message('note_on', channel=0, note=73, velocity=0, time=4),\n",
      "    Message('note_on', channel=0, note=68, velocity=38, time=4),\n",
      "    Message('note_on', channel=0, note=73, velocity=33, time=4),\n",
      "    Message('note_on', channel=0, note=56, velocity=43, time=10),\n",
      "    Message('note_on', channel=0, note=77, velocity=0, time=159),\n",
      "    Message('note_on', channel=0, note=61, velocity=40, time=3),\n",
      "    Message('note_on', channel=0, note=65, velocity=0, time=4),\n",
      "    Message('note_on', channel=0, note=73, velocity=0, time=0),\n",
      "    Message('note_on', channel=0, note=77, velocity=42, time=2),\n",
      "    Message('note_on', channel=0, note=65, velocity=36, time=4),\n",
      "    Message('note_on', channel=0, note=73, velocity=43, time=1),\n",
      "    Message('note_on', channel=0, note=68, velocity=0, time=1),\n",
      "    Message('note_on', channel=0, note=68, velocity=36, time=8),\n",
      "    Message('note_on', channel=0, note=53, velocity=28, time=12),\n",
      "    Message('note_on', channel=0, note=56, velocity=0, time=134),\n",
      "    Message('note_on', channel=0, note=65, velocity=0, time=0),\n",
      "    Message('note_on', channel=0, note=68, velocity=0, time=0),\n",
      "    Message('note_on', channel=0, note=73, velocity=0, time=0),\n",
      "    Message('note_on', channel=0, note=56, velocity=45, time=4),\n",
      "    Message('note_on', channel=0, note=65, velocity=31, time=4),\n",
      "    Message('note_on', channel=0, note=68, velocity=41, time=0),\n",
      "    Message('note_on', channel=0, note=73, velocity=37, time=1),\n",
      "    Message('note_on', channel=0, note=53, velocity=0, time=160),\n",
      "    Message('note_on', channel=0, note=61, velocity=0, time=0),\n",
      "    Message('note_on', channel=0, note=61, velocity=31, time=4),\n",
      "    Message('note_on', channel=0, note=53, velocity=27, time=5),\n",
      "    Message('note_on', channel=0, note=68, velocity=0, time=6),\n",
      "    Message('note_on', channel=0, note=65, velocity=0, time=8),\n",
      "    Message('note_on', channel=0, note=68, velocity=32, time=3),\n",
      "    Message('note_on', channel=0, note=65, velocity=27, time=2),\n",
      "    Message('note_on', channel=0, note=49, velocity=0, time=191),\n",
      "    Message('note_on', channel=0, note=37, velocity=0, time=0),\n",
      "    Message('note_on', channel=0, note=73, velocity=0, time=0),\n",
      "    Message('note_on', channel=0, note=68, velocity=0, time=0),\n",
      "    Message('note_on', channel=0, note=53, velocity=0, time=1),\n",
      "    Message('note_on', channel=0, note=61, velocity=0, time=0),\n",
      "    Message('note_on', channel=0, note=77, velocity=0, time=1),\n",
      "    Message('control_change', channel=0, control=64, value=0, time=0),\n",
      "    Message('note_on', channel=0, note=65, velocity=0, time=9),\n",
      "    Message('note_on', channel=0, note=65, velocity=29, time=5),\n",
      "    Message('note_on', channel=0, note=48, velocity=36, time=0),\n",
      "    Message('note_on', channel=0, note=67, velocity=36, time=1),\n",
      "    Message('note_on', channel=0, note=56, velocity=0, time=2),\n",
      "    Message('note_on', channel=0, note=36, velocity=36, time=3),\n",
      "    Message('control_change', channel=0, control=64, value=127, time=20),\n",
      "    Message('control_change', channel=0, control=64, value=0, time=262),\n",
      "    Message('note_on', channel=0, note=36, velocity=0, time=0),\n",
      "    Message('note_on', channel=0, note=48, velocity=0, time=2),\n",
      "    Message('note_on', channel=0, note=74, velocity=46, time=5),\n",
      "    Message('note_on', channel=0, note=65, velocity=0, time=7),\n",
      "    Message('note_on', channel=0, note=67, velocity=0, time=0),\n",
      "    Message('note_on', channel=0, note=65, velocity=27, time=5),\n",
      "    Message('note_on', channel=0, note=47, velocity=31, time=1),\n",
      "    Message('note_on', channel=0, note=35, velocity=37, time=2),\n",
      "    Message('note_on', channel=0, note=67, velocity=32, time=1),\n",
      "    Message('control_change', channel=0, control=64, value=127, time=45),\n",
      "    Message('note_on', channel=0, note=47, velocity=0, time=246),\n",
      "    Message('note_on', channel=0, note=65, velocity=0, time=0),\n",
      "    Message('note_on', channel=0, note=74, velocity=0, time=0),\n",
      "    Message('note_on', channel=0, note=74, velocity=43, time=4),\n",
      "    Message('note_on', channel=0, note=55, velocity=39, time=4),\n",
      "    Message('note_on', channel=0, note=65, velocity=35, time=2),\n",
      "    Message('note_on', channel=0, note=47, velocity=31, time=1),\n",
      "    Message('note_on', channel=0, note=67, velocity=0, time=4),\n",
      "    Message('note_on', channel=0, note=67, velocity=32, time=5),\n",
      "    Message('note_on', channel=0, note=65, velocity=0, time=179),\n",
      "    Message('note_on', channel=0, note=67, velocity=0, time=0),\n",
      "    Message('note_on', channel=0, note=74, velocity=0, time=0),\n",
      "    Message('note_on', channel=0, note=62, velocity=53, time=7),\n",
      "    Message('note_on', channel=0, note=67, velocity=42, time=0),\n",
      "    Message('note_on', channel=0, note=55, velocity=0, time=1),\n",
      "    Message('note_on', channel=0, note=74, velocity=49, time=2),\n",
      "    Message('note_on', channel=0, note=65, velocity=36, time=0),\n",
      "    Message('note_on', channel=0, note=55, velocity=37, time=2),\n",
      "    Message('note_on', channel=0, note=67, velocity=0, time=165),\n",
      "    Message('note_on', channel=0, note=65, velocity=0, time=8),\n",
      "    Message('note_on', channel=0, note=67, velocity=58, time=1),\n",
      "    Message('note_on', channel=0, note=35, velocity=0, time=6),\n",
      "    Message('note_on', channel=0, note=47, velocity=0, time=0),\n",
      "    Message('note_on', channel=0, note=62, velocity=0, time=0),\n",
      "    Message('note_on', channel=0, note=65, velocity=49, time=4),\n",
      "    Message('note_on', channel=0, note=47, velocity=35, time=0),\n",
      "    Message('note_on', channel=0, note=62, velocity=44, time=1),\n",
      "    Message('note_on', channel=0, note=35, velocity=34, time=1),\n",
      "    Message('note_on', channel=0, note=55, velocity=0, time=140),\n",
      "    Message('note_on', channel=0, note=55, velocity=45, time=11),\n",
      "    Message('note_on', channel=0, note=62, velocity=0, time=20),\n",
      "    Message('note_on', channel=0, note=65, velocity=0, time=0),\n",
      "    Message('note_on', channel=0, note=67, velocity=0, time=0),\n",
      "    Message('note_on', channel=0, note=67, velocity=41, time=8),\n",
      "    Message('note_on', channel=0, note=62, velocity=40, time=2),\n",
      "    Message('note_on', channel=0, note=65, velocity=39, time=1),\n",
      "    Message('note_on', channel=0, note=35, velocity=0, time=196),\n",
      "    Message('note_on', channel=0, note=65, velocity=0, time=0),\n",
      "    Message('note_on', channel=0, note=65, velocity=40, time=5),\n",
      "    Message('note_on', channel=0, note=62, velocity=0, time=3),\n",
      "    Message('note_on', channel=0, note=35, velocity=46, time=3),\n",
      "    Message('note_on', channel=0, note=62, velocity=39, time=2),\n",
      "    Message('note_on', channel=0, note=55, velocity=0, time=3),\n",
      "    Message('note_on', channel=0, note=55, velocity=36, time=5),\n",
      "    Message('note_on', channel=0, note=68, velocity=63, time=220),\n",
      "    Message('note_on', channel=0, note=47, velocity=0, time=4),\n",
      "    Message('note_on', channel=0, note=74, velocity=0, time=0),\n",
      "    Message('note_on', channel=0, note=35, velocity=0, time=0),\n",
      "    Message('note_on', channel=0, note=67, velocity=0, time=0),\n",
      "    Message('note_on', channel=0, note=55, velocity=0, time=1),\n",
      "    Message('note_on', channel=0, note=65, velocity=0, time=1),\n",
      "    Message('note_on', channel=0, note=62, velocity=0, time=0),\n",
      "    Message('control_change', channel=0, control=64, value=0, time=3),\n",
      "    Message('note_on', channel=0, note=63, velocity=48, time=10),\n",
      "    Message('note_on', channel=0, note=36, velocity=36, time=2),\n",
      "    Message('note_on', channel=0, note=48, velocity=34, time=3),\n",
      "    Message('note_on', channel=0, note=36, velocity=0, time=73),\n",
      "    Message('control_change', channel=0, control=64, value=127, time=0),\n",
      "    Message('note_on', channel=0, note=63, velocity=0, time=162),\n",
      "    Message('note_on', channel=0, note=67, velocity=63, time=6),\n",
      "    Message('note_on', channel=0, note=63, velocity=54, time=5),\n",
      "    Message('note_on', channel=0, note=48, velocity=0, time=12),\n",
      "    Message('note_on', channel=0, note=48, velocity=25, time=7),\n",
      "    Message('note_on', channel=0, note=36, velocity=26, time=16),\n",
      "    Message('note_on', channel=0, note=55, velocity=27, time=0),\n",
      "    Message('note_on', channel=0, note=71, velocity=68, time=142),\n",
      "    Message('note_on', channel=0, note=63, velocity=0, time=4),\n",
      "    Message('note_on', channel=0, note=67, velocity=0, time=0),\n",
      "    Message('note_on', channel=0, note=67, velocity=57, time=4),\n",
      "    Message('note_on', channel=0, note=63, velocity=58, time=1),\n",
      "    Message('note_on', channel=0, note=48, velocity=0, time=87),\n",
      "    Message('note_on', channel=0, note=55, velocity=0, time=7),\n",
      "    Message('note_on', channel=0, note=60, velocity=47, time=2),\n",
      "    Message('note_on', channel=0, note=48, velocity=41, time=2),\n",
      "    Message('note_on', channel=0, note=55, velocity=32, time=6),\n",
      "    Message('note_on', channel=0, note=36, velocity=0, time=13),\n",
      "    Message('note_on', channel=0, note=72, velocity=83, time=20),\n",
      "    Message('note_on', channel=0, note=63, velocity=0, time=3),\n",
      "    Message('note_on', channel=0, note=67, velocity=0, time=0),\n",
      "    Message('note_on', channel=0, note=63, velocity=69, time=6),\n",
      "    Message('note_on', channel=0, note=67, velocity=47, time=5),\n",
      "    Message('note_on', channel=0, note=48, velocity=0, time=143),\n",
      "    Message('note_on', channel=0, note=72, velocity=0, time=0),\n",
      "    Message('note_on', channel=0, note=74, velocity=75, time=5),\n",
      "    Message('note_on', channel=0, note=55, velocity=0, time=3),\n",
      "    Message('note_on', channel=0, note=67, velocity=0, time=0),\n",
      "    Message('note_on', channel=0, note=48, velocity=40, time=2),\n",
      "    Message('note_on', channel=0, note=72, velocity=66, time=1),\n",
      "    Message('note_on', channel=0, note=67, velocity=64, time=2),\n",
      "    Message('note_on', channel=0, note=55, velocity=48, time=1),\n",
      "    Message('note_on', channel=0, note=67, velocity=0, time=155),\n",
      "    Message('note_on', channel=0, note=72, velocity=0, time=0),\n",
      "    Message('note_on', channel=0, note=75, velocity=79, time=3),\n",
      "    Message('note_on', channel=0, note=67, velocity=60, time=2),\n",
      "    Message('note_on', channel=0, note=72, velocity=56, time=2),\n",
      "    Message('note_on', channel=0, note=55, velocity=0, time=16),\n",
      "    Message('note_on', channel=0, note=55, velocity=39, time=8),\n",
      "    Message('note_on', channel=0, note=63, velocity=0, time=53),\n",
      "    Message('note_on', channel=0, note=63, velocity=48, time=7),\n",
      "    Message('note_on', channel=0, note=51, velocity=31, time=49),\n",
      "    Message('note_on', channel=0, note=84, velocity=70, time=36),\n",
      "    Message('note_on', channel=0, note=75, velocity=0, time=8),\n",
      "    Message('note_on', channel=0, note=72, velocity=0, time=8),\n",
      "    Message('note_on', channel=0, note=75, velocity=52, time=3),\n",
      "    Message('note_on', channel=0, note=72, velocity=57, time=1),\n",
      "    Message('note_on', channel=0, note=48, velocity=0, time=134),\n",
      "    Message('note_on', channel=0, note=48, velocity=31, time=5),\n",
      "    Message('note_on', channel=0, note=75, velocity=0, time=34),\n",
      "    Message('note_on', channel=0, note=67, velocity=0, time=7),\n",
      "    Message('note_on', channel=0, note=72, velocity=0, time=0),\n",
      "    Message('note_on', channel=0, note=80, velocity=70, time=3),\n",
      "    Message('note_on', channel=0, note=75, velocity=61, time=0),\n",
      "    Message('note_on', channel=0, note=72, velocity=57, time=2),\n",
      "    Message('note_on', channel=0, note=67, velocity=42, time=6),\n",
      "    Message('note_on', channel=0, note=48, velocity=0, time=191),\n",
      "    Message('note_on', channel=0, note=51, velocity=0, time=0),\n",
      "    Message('note_on', channel=0, note=63, velocity=0, time=0),\n",
      "    Message('note_on', channel=0, note=74, velocity=0, time=0),\n",
      "    Message('note_on', channel=0, note=60, velocity=0, time=0),\n",
      "    Message('note_on', channel=0, note=75, velocity=0, time=1),\n",
      "    Message('note_on', channel=0, note=55, velocity=0, time=0),\n",
      "    Message('control_change', channel=0, control=64, value=0, time=0),\n",
      "    Message('note_on', channel=0, note=72, velocity=0, time=0),\n",
      "    Message('note_on', channel=0, note=80, velocity=0, time=0),\n",
      "    Message('note_on', channel=0, note=84, velocity=0, time=1),\n",
      "    Message('note_on', channel=0, note=68, velocity=0, time=4),\n",
      "    Message('note_on', channel=0, note=79, velocity=66, time=3),\n",
      "    Message('note_on', channel=0, note=71, velocity=0, time=12),\n",
      "    Message('note_on', channel=0, note=67, velocity=0, time=8),\n",
      "    Message('note_on', channel=0, note=71, velocity=43, time=3),\n",
      "    Message('note_on', channel=0, note=65, velocity=40, time=1),\n",
      "    Message('note_on', channel=0, note=67, velocity=38, time=1),\n",
      "    Message('note_on', channel=0, note=50, velocity=37, time=4),\n",
      "    Message('note_on', channel=0, note=74, velocity=31, time=1),\n",
      "    Message('control_change', channel=0, control=64, value=127, time=67),\n",
      "    Message('note_on', channel=0, note=50, velocity=0, time=207),\n",
      "    Message('note_on', channel=0, note=71, velocity=0, time=8),\n",
      "    Message('note_on', channel=0, note=55, velocity=42, time=2),\n",
      "    Message('note_on', channel=0, note=50, velocity=28, time=1),\n",
      "    Message('note_on', channel=0, note=65, velocity=0, time=4),\n",
      "    Message('note_on', channel=0, note=67, velocity=0, time=0),\n",
      "    Message('note_on', channel=0, note=71, velocity=42, time=2),\n",
      "    Message('note_on', channel=0, note=67, velocity=39, time=4),\n",
      "    Message('note_on', channel=0, note=65, velocity=27, time=2),\n",
      "    Message('note_on', channel=0, note=71, velocity=0, time=161),\n",
      "    Message('note_on', channel=0, note=55, velocity=0, time=8),\n",
      "    Message('note_on', channel=0, note=67, velocity=0, time=0),\n",
      "    Message('note_on', channel=0, note=71, velocity=47, time=1),\n",
      "    Message('note_on', channel=0, note=62, velocity=40, time=2),\n",
      "    Message('note_on', channel=0, note=55, velocity=36, time=1),\n",
      "    Message('note_on', channel=0, note=65, velocity=0, time=4),\n",
      "    Message('note_on', channel=0, note=67, velocity=39, time=1),\n",
      "    Message('note_on', channel=0, note=65, velocity=32, time=5),\n",
      "    Message('note_on', channel=0, note=71, velocity=0, time=139),\n",
      "    Message('note_on', channel=0, note=71, velocity=47, time=6),\n",
      "    Message('note_on', channel=0, note=65, velocity=0, time=10),\n",
      "    Message('note_on', channel=0, note=65, velocity=35, time=4),\n",
      "    Message('note_on', channel=0, note=50, velocity=0, time=4),\n",
      "    Message('note_on', channel=0, note=55, velocity=0, time=0),\n",
      "    Message('note_on', channel=0, note=67, velocity=0, time=0),\n",
      "    Message('note_on', channel=0, note=67, velocity=38, time=5),\n",
      "    Message('note_on', channel=0, note=50, velocity=29, time=4),\n",
      "    Message('note_on', channel=0, note=55, velocity=35, time=1),\n",
      "    Message('note_on', channel=0, note=73, velocity=57, time=218),\n",
      "    Message('note_on', channel=0, note=71, velocity=0, time=2),\n",
      "    Message('note_on', channel=0, note=71, velocity=45, time=4),\n",
      "    Message('note_on', channel=0, note=67, velocity=0, time=11),\n",
      "    Message('note_on', channel=0, note=67, velocity=38, time=6),\n",
      "    Message('note_on', channel=0, note=62, velocity=0, time=63),\n",
      "    Message('note_on', channel=0, note=55, velocity=0, time=8),\n",
      "    Message('note_on', channel=0, note=62, velocity=37, time=4),\n",
      "    Message('note_on', channel=0, note=55, velocity=31, time=6),\n",
      "    Message('note_on', channel=0, note=74, velocity=0, time=28),\n",
      "    Message('note_on', channel=0, note=71, velocity=0, time=8),\n",
      "    Message('note_on', channel=0, note=74, velocity=60, time=3),\n",
      "    Message('note_on', channel=0, note=71, velocity=39, time=4),\n",
      "    Message('note_on', channel=0, note=65, velocity=0, time=1),\n",
      "    Message('note_on', channel=0, note=67, velocity=0, time=8),\n",
      "    Message('note_on', channel=0, note=65, velocity=28, time=2),\n",
      "    Message('note_on', channel=0, note=67, velocity=34, time=2),\n",
      "    Message('note_on', channel=0, note=79, velocity=0, time=126),\n",
      "    Message('note_on', channel=0, note=71, velocity=0, time=8),\n",
      "    Message('note_on', channel=0, note=79, velocity=64, time=3),\n",
      "    Message('note_on', channel=0, note=65, velocity=0, time=4),\n",
      "    Message('note_on', channel=0, note=71, velocity=49, time=3),\n",
      "    Message('note_on', channel=0, note=67, velocity=0, time=5),\n",
      "    Message('note_on', channel=0, note=65, velocity=32, time=4),\n",
      "    Message('note_on', channel=0, note=67, velocity=40, time=1),\n",
      "    Message('note_on', channel=0, note=50, velocity=0, time=80),\n",
      "    Message('note_on', channel=0, note=50, velocity=35, time=11),\n",
      "    Message('note_on', channel=0, note=38, velocity=36, time=4),\n",
      "    Message('note_on', channel=0, note=67, velocity=0, time=38),\n",
      "    Message('note_on', channel=0, note=71, velocity=0, time=0),\n",
      "    Message('note_on', channel=0, note=77, velocity=60, time=7),\n",
      "    Message('note_on', channel=0, note=67, velocity=38, time=2),\n",
      "    Message('note_on', channel=0, note=71, velocity=54, time=3),\n",
      "    Message('note_on', channel=0, note=65, velocity=0, time=19),\n",
      "    Message('note_on', channel=0, note=65, velocity=20, time=6),\n",
      "    Message('note_on', channel=0, note=71, velocity=0, time=109),\n",
      "    Message('note_on', channel=0, note=75, velocity=61, time=10),\n",
      "    Message('note_on', channel=0, note=71, velocity=50, time=0),\n",
      "    Message('note_on', channel=0, note=67, velocity=0, time=13),\n",
      "    Message('note_on', channel=0, note=67, velocity=25, time=5),\n",
      "    Message('note_on', channel=0, note=65, velocity=0, time=11),\n",
      "    Message('note_on', channel=0, note=65, velocity=14, time=9),\n",
      "    Message('note_on', channel=0, note=55, velocity=0, time=95),\n",
      "    Message('note_on', channel=0, note=38, velocity=0, time=1),\n",
      "    Message('note_on', channel=0, note=65, velocity=0, time=0),\n",
      "    Message('note_on', channel=0, note=71, velocity=0, time=0),\n",
      "    Message('note_on', channel=0, note=74, velocity=0, time=0),\n",
      "    Message('note_on', channel=0, note=73, velocity=0, time=0),\n",
      "    Message('note_on', channel=0, note=77, velocity=0, time=1),\n",
      "    Message('control_change', channel=0, control=64, value=0, time=2),\n",
      "    Message('note_on', channel=0, note=62, velocity=0, time=7),\n",
      "    Message('note_on', channel=0, note=75, velocity=0, time=0),\n",
      "    Message('note_on', channel=0, note=50, velocity=0, time=8),\n",
      "    Message('note_on', channel=0, note=79, velocity=0, time=0),\n",
      "    Message('note_on', channel=0, note=75, velocity=58, time=0),\n",
      "    Message('note_on', channel=0, note=67, velocity=0, time=15),\n",
      "    Message('note_on', channel=0, note=51, velocity=32, time=3),\n",
      "    Message('note_on', channel=0, note=67, velocity=32, time=2),\n",
      "    Message('note_on', channel=0, note=72, velocity=42, time=1),\n",
      "    Message('note_on', channel=0, note=39, velocity=36, time=5),\n",
      "    Message('control_change', channel=0, control=64, value=127, time=58),\n",
      "    Message('note_on', channel=0, note=39, velocity=0, time=26),\n",
      "    Message('note_on', channel=0, note=72, velocity=0, time=166),\n",
      "    Message('note_on', channel=0, note=72, velocity=41, time=4),\n",
      "    Message('note_on', channel=0, note=60, velocity=38, time=3),\n",
      "    Message('note_on', channel=0, note=51, velocity=0, time=1),\n",
      "    Message('note_on', channel=0, note=67, velocity=0, time=0),\n",
      "    Message('note_on', channel=0, note=63, velocity=28, time=3),\n",
      "    Message('note_on', channel=0, note=67, velocity=38, time=2),\n",
      "    Message('note_on', channel=0, note=51, velocity=30, time=4),\n",
      "    Message('note_on', channel=0, note=63, velocity=0, time=152),\n",
      "    Message('note_on', channel=0, note=63, velocity=41, time=5),\n",
      "    Message('note_on', channel=0, note=60, velocity=0, time=3),\n",
      "    Message('note_on', channel=0, note=67, velocity=0, time=0),\n",
      "    Message('note_on', channel=0, note=72, velocity=0, time=0),\n",
      "    Message('note_on', channel=0, note=72, velocity=43, time=4),\n",
      "    Message('note_on', channel=0, note=67, velocity=33, time=4),\n",
      "    Message('note_on', channel=0, note=60, velocity=28, time=2),\n",
      "    Message('note_on', channel=0, note=55, velocity=30, time=4),\n",
      "    Message('note_on', channel=0, note=60, velocity=0, time=147),\n",
      "    Message('note_on', channel=0, note=67, velocity=0, time=0),\n",
      "    Message('note_on', channel=0, note=72, velocity=0, time=0),\n",
      "    Message('note_on', channel=0, note=60, velocity=39, time=5),\n",
      "    Message('note_on', channel=0, note=72, velocity=44, time=0),\n",
      "    Message('note_on', channel=0, note=67, velocity=36, time=1),\n",
      "    Message('note_on', channel=0, note=51, velocity=0, time=9),\n",
      "    Message('note_on', channel=0, note=51, velocity=26, time=9),\n",
      "    Message('note_on', channel=0, note=63, velocity=0, time=160),\n",
      "    Message('note_on', channel=0, note=55, velocity=0, time=8),\n",
      "    Message('note_on', channel=0, note=67, velocity=0, time=0),\n",
      "    Message('note_on', channel=0, note=72, velocity=0, time=0),\n",
      "    Message('note_on', channel=0, note=63, velocity=31, time=4),\n",
      "    Message('note_on', channel=0, note=60, velocity=0, time=4),\n",
      "    Message('note_on', channel=0, note=67, velocity=33, time=2),\n",
      "    Message('note_on', channel=0, note=72, velocity=34, time=1),\n",
      "    Message('note_on', channel=0, note=55, velocity=26, time=0),\n",
      "    Message('note_on', channel=0, note=60, velocity=22, time=6),\n",
      "    Message('note_on', channel=0, note=72, velocity=0, time=206),\n",
      "    Message('note_on', channel=0, note=72, velocity=42, time=6),\n",
      "    Message('note_on', channel=0, note=51, velocity=0, time=1),\n",
      "    Message('note_on', channel=0, note=67, velocity=0, time=0),\n",
      "    Message('note_on', channel=0, note=51, velocity=37, time=8),\n",
      "    Message('note_on', channel=0, note=63, velocity=0, time=0),\n",
      "    Message('note_on', channel=0, note=55, velocity=0, time=0),\n",
      "    Message('note_on', channel=0, note=67, velocity=34, time=3),\n",
      "    Message('note_on', channel=0, note=63, velocity=31, time=2),\n",
      "    Message('note_on', channel=0, note=39, velocity=31, time=1),\n",
      "    Message('note_on', channel=0, note=63, velocity=0, time=200),\n",
      "    Message('note_on', channel=0, note=51, velocity=0, time=0),\n",
      "    Message('note_on', channel=0, note=67, velocity=0, time=0),\n",
      "    Message('note_on', channel=0, note=72, velocity=0, time=1),\n",
      "    Message('note_on', channel=0, note=75, velocity=0, time=1),\n",
      "    Message('note_on', channel=0, note=39, velocity=0, time=0),\n",
      "    Message('control_change', channel=0, control=64, value=0, time=2),\n",
      "    Message('note_on', channel=0, note=60, velocity=0, time=13),\n",
      "    Message('note_on', channel=0, note=68, velocity=40, time=12),\n",
      "    Message('note_on', channel=0, note=62, velocity=37, time=8),\n",
      "    Message('note_on', channel=0, note=41, velocity=25, time=7),\n",
      "    Message('note_on', channel=0, note=53, velocity=17, time=2),\n",
      "    Message('control_change', channel=0, control=64, value=127, time=40),\n",
      "    Message('note_on', channel=0, note=62, velocity=0, time=215),\n",
      "    Message('note_on', channel=0, note=62, velocity=31, time=8),\n",
      "    Message('note_on', channel=0, note=53, velocity=0, time=7),\n",
      "    Message('note_on', channel=0, note=68, velocity=0, time=0),\n",
      "    Message('note_on', channel=0, note=59, velocity=41, time=4),\n",
      "    Message('note_on', channel=0, note=53, velocity=34, time=1),\n",
      "    Message('note_on', channel=0, note=68, velocity=42, time=0),\n",
      "    Message('note_on', channel=0, note=62, velocity=0, time=180),\n",
      "    Message('note_on', channel=0, note=68, velocity=0, time=0),\n",
      "    Message('note_on', channel=0, note=68, velocity=39, time=4),\n",
      "    Message('note_on', channel=0, note=62, velocity=37, time=7),\n",
      "    Message('note_on', channel=0, note=65, velocity=31, time=0),\n",
      "    Message('note_on', channel=0, note=59, velocity=0, time=12),\n",
      "    Message('note_on', channel=0, note=59, velocity=24, time=5),\n",
      "    Message('note_on', channel=0, note=71, velocity=61, time=189),\n",
      "    Message('note_on', channel=0, note=62, velocity=0, time=5),\n",
      "    Message('note_on', channel=0, note=62, velocity=45, time=4),\n",
      "    Message('note_on', channel=0, note=53, velocity=0, time=4),\n",
      "    Message('note_on', channel=0, note=68, velocity=0, time=0),\n",
      "    Message('note_on', channel=0, note=59, velocity=0, time=8),\n",
      "    Message('note_on', channel=0, note=68, velocity=41, time=2),\n",
      "    Message('note_on', channel=0, note=53, velocity=25, time=0),\n",
      "    Message('note_on', channel=0, note=59, velocity=30, time=2),\n",
      "    Message('note_on', channel=0, note=62, velocity=0, time=165),\n",
      "    Message('note_on', channel=0, note=53, velocity=0, time=7),\n",
      "    Message('note_on', channel=0, note=59, velocity=0, time=0),\n",
      "    Message('note_on', channel=0, note=68, velocity=0, time=0),\n",
      "    Message('note_on', channel=0, note=62, velocity=39, time=4),\n",
      "    Message('note_on', channel=0, note=65, velocity=0, time=1),\n",
      "    Message('note_on', channel=0, note=59, velocity=31, time=2),\n",
      "    Message('note_on', channel=0, note=68, velocity=35, time=1),\n",
      "    Message('note_on', channel=0, note=53, velocity=23, time=1),\n",
      "    Message('note_on', channel=0, note=62, velocity=0, time=168),\n",
      "    Message('note_on', channel=0, note=68, velocity=0, time=0),\n",
      "    Message('note_on', channel=0, note=68, velocity=44, time=7),\n",
      "    Message('note_on', channel=0, note=53, velocity=0, time=1),\n",
      "    Message('note_on', channel=0, note=62, velocity=45, time=2),\n",
      "    Message('note_on', channel=0, note=53, velocity=27, time=2),\n",
      "    Message('note_on', channel=0, note=41, velocity=0, time=188),\n",
      "    Message('note_on', channel=0, note=59, velocity=0, time=2),\n",
      "    Message('note_on', channel=0, note=68, velocity=0, time=0),\n",
      "    Message('note_on', channel=0, note=53, velocity=0, time=1),\n",
      "    Message('note_on', channel=0, note=62, velocity=0, time=0),\n",
      "    Message('control_change', channel=0, control=64, value=0, time=1),\n",
      "    Message('note_on', channel=0, note=51, velocity=40, time=14),\n",
      "    Message('note_on', channel=0, note=67, velocity=31, time=2),\n",
      "    Message('note_on', channel=0, note=63, velocity=34, time=3),\n",
      "    Message('note_on', channel=0, note=39, velocity=34, time=4),\n",
      "    Message('note_on', channel=0, note=71, velocity=0, time=3),\n",
      "    Message('note_on', channel=0, note=39, velocity=0, time=66),\n",
      "    Message('control_change', channel=0, control=64, value=127, time=27),\n",
      "    Message('note_on', channel=0, note=63, velocity=0, time=115),\n",
      "    Message('note_on', channel=0, note=67, velocity=0, time=0),\n",
      "    Message('note_on', channel=0, note=67, velocity=38, time=5),\n",
      "    Message('note_on', channel=0, note=63, velocity=42, time=0),\n",
      "    Message('note_on', channel=0, note=55, velocity=32, time=12),\n",
      "    Message('note_on', channel=0, note=72, velocity=67, time=135),\n",
      "    Message('note_on', channel=0, note=63, velocity=0, time=24),\n",
      "    Message('note_on', channel=0, note=63, velocity=36, time=4),\n",
      "    Message('note_on', channel=0, note=67, velocity=0, time=12),\n",
      "    Message('note_on', channel=0, note=67, velocity=32, time=4),\n",
      "    Message('note_on', channel=0, note=55, velocity=0, time=3),\n",
      "    Message('note_on', channel=0, note=55, velocity=31, time=7),\n",
      "    Message('note_on', channel=0, note=60, velocity=26, time=12),\n",
      "    Message('note_on', channel=0, note=48, velocity=27, time=192),\n",
      "    Message('note_on', channel=0, note=74, velocity=68, time=2),\n",
      "    Message('note_on', channel=0, note=55, velocity=0, time=18),\n",
      "    Message('note_on', channel=0, note=55, velocity=32, time=6),\n",
      "    Message('note_on', channel=0, note=63, velocity=0, time=1),\n",
      "    Message('note_on', channel=0, note=67, velocity=0, time=0),\n",
      "    Message('note_on', channel=0, note=63, velocity=45, time=6),\n",
      "    Message('note_on', channel=0, note=67, velocity=35, time=0),\n",
      "    Message('note_on', channel=0, note=63, velocity=0, time=186),\n",
      "    Message('note_on', channel=0, note=55, velocity=0, time=8),\n",
      "    Message('note_on', channel=0, note=67, velocity=0, time=0),\n",
      "    Message('note_on', channel=0, note=63, velocity=48, time=2),\n",
      "    Message('note_on', channel=0, note=60, velocity=0, time=3),\n",
      "    Message('note_on', channel=0, note=67, velocity=36, time=1),\n",
      "    Message('note_on', channel=0, note=55, velocity=29, time=4),\n",
      "    Message('note_on', channel=0, note=75, velocity=65, time=159),\n",
      "    Message('note_on', channel=0, note=63, velocity=0, time=23),\n",
      "    Message('note_on', channel=0, note=63, velocity=25, time=9),\n",
      "    Message('note_on', channel=0, note=48, velocity=0, time=7),\n",
      "    Message('note_on', channel=0, note=67, velocity=0, time=0),\n",
      "    Message('note_on', channel=0, note=67, velocity=17, time=5),\n",
      "    Message('note_on', channel=0, note=36, velocity=29, time=0),\n",
      "    Message('note_on', channel=0, note=48, velocity=28, time=5),\n",
      "    Message('note_on', channel=0, note=48, velocity=0, time=201),\n",
      "    Message('note_on', channel=0, note=63, velocity=0, time=1),\n",
      "    Message('note_on', channel=0, note=74, velocity=0, time=0),\n",
      "    Message('note_on', channel=0, note=72, velocity=0, time=0),\n",
      "    Message('control_change', channel=0, control=64, value=0, time=1),\n",
      "    Message('note_on', channel=0, note=55, velocity=0, time=0),\n",
      "    Message('note_on', channel=0, note=51, velocity=0, time=9),\n",
      "    Message('note_on', channel=0, note=36, velocity=0, time=23),\n",
      "    Message('note_on', channel=0, note=67, velocity=0, time=8),\n",
      "    Message('note_on', channel=0, note=67, velocity=36, time=10),\n",
      "    Message('note_on', channel=0, note=35, velocity=43, time=2),\n",
      "    Message('note_on', channel=0, note=65, velocity=31, time=7),\n",
      "    Message('note_on', channel=0, note=47, velocity=31, time=0),\n",
      "    Message('control_change', channel=0, control=64, value=127, time=42),\n",
      "    Message('note_on', channel=0, note=65, velocity=0, time=185),\n",
      "    Message('note_on', channel=0, note=67, velocity=0, time=0),\n",
      "    Message('note_on', channel=0, note=65, velocity=36, time=4),\n",
      "    Message('note_on', channel=0, note=67, velocity=38, time=0),\n",
      "    Message('note_on', channel=0, note=55, velocity=41, time=1),\n",
      "    Message('note_on', channel=0, note=67, velocity=0, time=156),\n",
      "    Message('note_on', channel=0, note=55, velocity=0, time=8),\n",
      "    Message('note_on', channel=0, note=65, velocity=0, time=0),\n",
      "    Message('note_on', channel=0, note=67, velocity=46, time=3),\n",
      "    Message('note_on', channel=0, note=62, velocity=47, time=1),\n",
      "    Message('note_on', channel=0, note=65, velocity=41, time=1),\n",
      "    Message('note_on', channel=0, note=55, velocity=39, time=0),\n",
      "    Message('note_on', channel=0, note=74, velocity=79, time=191),\n",
      "    Message('note_on', channel=0, note=62, velocity=0, time=34),\n",
      "    Message('note_on', channel=0, note=65, velocity=0, time=8),\n",
      "    Message('note_on', channel=0, note=67, velocity=0, time=0),\n",
      "    Message('note_on', channel=0, note=62, velocity=13, time=4),\n",
      "    Message('note_on', channel=0, note=65, velocity=24, time=0),\n",
      "    Message('note_on', channel=0, note=67, velocity=32, time=2),\n",
      "    Message('note_on', channel=0, note=65, velocity=0, time=155),\n",
      "    Message('note_on', channel=0, note=67, velocity=0, time=0),\n",
      "    Message('note_on', channel=0, note=65, velocity=47, time=5),\n",
      "    Message('note_on', channel=0, note=55, velocity=0, time=3),\n",
      "    Message('note_on', channel=0, note=62, velocity=0, time=0),\n",
      "    Message('note_on', channel=0, note=67, velocity=46, time=3),\n",
      "    Message('note_on', channel=0, note=55, velocity=38, time=1),\n",
      "    Message('note_on', channel=0, note=62, velocity=28, time=1),\n",
      "    Message('note_on', channel=0, note=47, velocity=0, time=171),\n",
      "    Message('note_on', channel=0, note=67, velocity=0, time=0),\n",
      "    Message('note_on', channel=0, note=35, velocity=0, time=8),\n",
      "    Message('note_on', channel=0, note=62, velocity=0, time=0),\n",
      "    Message('note_on', channel=0, note=65, velocity=0, time=0),\n",
      "    Message('note_on', channel=0, note=67, velocity=42, time=1),\n",
      "    Message('note_on', channel=0, note=47, velocity=41, time=2),\n",
      "    Message('note_on', channel=0, note=35, velocity=45, time=4),\n",
      "    Message('note_on', channel=0, note=65, velocity=33, time=0),\n",
      "    Message('note_on', channel=0, note=55, velocity=0, time=1),\n",
      "    Message('note_on', channel=0, note=62, velocity=30, time=4),\n",
      "    Message('note_on', channel=0, note=55, velocity=37, time=7),\n",
      "    Message('note_on', channel=0, note=35, velocity=0, time=169),\n",
      "    Message('note_on', channel=0, note=55, velocity=0, time=1),\n",
      "    Message('note_on', channel=0, note=47, velocity=0, time=0),\n",
      "    Message('note_on', channel=0, note=62, velocity=0, time=1),\n",
      "    Message('note_on', channel=0, note=65, velocity=0, time=1),\n",
      "    Message('control_change', channel=0, control=64, value=0, time=2),\n",
      "    Message('note_on', channel=0, note=67, velocity=0, time=14),\n",
      "    Message('note_on', channel=0, note=67, velocity=43, time=8),\n",
      "    Message('note_on', channel=0, note=63, velocity=45, time=2),\n",
      "    Message('note_on', channel=0, note=60, velocity=26, time=13),\n",
      "    Message('note_on', channel=0, note=48, velocity=35, time=5),\n",
      "    Message('note_on', channel=0, note=36, velocity=36, time=0),\n",
      "    Message('note_on', channel=0, note=60, velocity=0, time=3),\n",
      "    Message('note_on', channel=0, note=36, velocity=0, time=37),\n",
      "    Message('control_change', channel=0, control=64, value=127, time=9),\n",
      "    Message('note_on', channel=0, note=63, velocity=0, time=131),\n",
      "    Message('note_on', channel=0, note=67, velocity=0, time=0),\n",
      "    Message('note_on', channel=0, note=63, velocity=45, time=6),\n",
      "    Message('note_on', channel=0, note=67, velocity=40, time=1),\n",
      "    Message('note_on', channel=0, note=60, velocity=18, time=53),\n",
      "    Message('note_on', channel=0, note=55, velocity=24, time=5),\n",
      "    Message('note_on', channel=0, note=75, velocity=0, time=81),\n",
      "    Message('note_on', channel=0, note=75, velocity=79, time=7),\n",
      "    Message('note_on', channel=0, note=67, velocity=0, time=8),\n",
      "    Message('note_on', channel=0, note=67, velocity=47, time=9),\n",
      "    Message('note_on', channel=0, note=72, velocity=62, time=2),\n",
      "    Message('note_on', channel=0, note=55, velocity=0, time=74),\n",
      "    Message('note_on', channel=0, note=63, velocity=0, time=0),\n",
      "    Message('note_on', channel=0, note=63, velocity=31, time=4),\n",
      "    Message('note_on', channel=0, note=55, velocity=26, time=6),\n",
      "    Message('note_on', channel=0, note=77, velocity=77, time=185),\n",
      "    Message('note_on', channel=0, note=48, velocity=0, time=20),\n",
      "    Message('note_on', channel=0, note=72, velocity=0, time=0),\n",
      "    Message('note_on', channel=0, note=55, velocity=0, time=7),\n",
      "    Message('note_on', channel=0, note=67, velocity=0, time=0),\n",
      "    Message('note_on', channel=0, note=48, velocity=35, time=3),\n",
      "    Message('note_on', channel=0, note=72, velocity=52, time=1),\n",
      "    Message('note_on', channel=0, note=67, velocity=42, time=6),\n",
      "    Message('note_on', channel=0, note=55, velocity=42, time=2),\n",
      "    Message('note_on', channel=0, note=72, velocity=0, time=165),\n",
      "    Message('note_on', channel=0, note=63, velocity=0, time=8),\n",
      "    Message('note_on', channel=0, note=72, velocity=51, time=3),\n",
      "    Message('note_on', channel=0, note=60, velocity=0, time=4),\n",
      "    Message('note_on', channel=0, note=67, velocity=0, time=0),\n",
      "    Message('note_on', channel=0, note=63, velocity=43, time=3),\n",
      "    Message('note_on', channel=0, note=48, velocity=0, time=5),\n",
      "    Message('note_on', channel=0, note=67, velocity=36, time=3),\n",
      "    Message('note_on', channel=0, note=60, velocity=29, time=0),\n",
      "    Message('note_on', channel=0, note=51, velocity=42, time=0),\n",
      "    Message('note_on', channel=0, note=48, velocity=29, time=4),\n",
      "    Message('note_on', channel=0, note=72, velocity=0, time=116),\n",
      "    Message('note_on', channel=0, note=79, velocity=80, time=2),\n",
      "    Message('note_on', channel=0, note=72, velocity=52, time=8),\n",
      "    Message('note_on', channel=0, note=67, velocity=0, time=5),\n",
      "    Message('note_on', channel=0, note=75, velocity=0, time=0),\n",
      "    Message('note_on', channel=0, note=75, velocity=43, time=4),\n",
      "    Message('note_on', channel=0, note=67, velocity=49, time=7),\n",
      "    Message('note_on', channel=0, note=48, velocity=0, time=97),\n",
      "    Message('note_on', channel=0, note=48, velocity=44, time=4),\n",
      "    Message('note_on', channel=0, note=36, velocity=40, time=3),\n",
      "    Message('note_on', channel=0, note=79, velocity=0, time=54),\n",
      "    Message('note_on', channel=0, note=67, velocity=0, time=8),\n",
      "    Message('note_on', channel=0, note=79, velocity=52, time=2),\n",
      "    Message('note_on', channel=0, note=67, velocity=43, time=4),\n",
      "    Message('note_on', channel=0, note=79, velocity=0, time=193),\n",
      "    Message('note_on', channel=0, note=79, velocity=76, time=6),\n",
      "    Message('note_on', channel=0, note=75, velocity=0, time=2),\n",
      "    Message('note_on', channel=0, note=72, velocity=0, time=8),\n",
      "    Message('note_on', channel=0, note=75, velocity=61, time=3),\n",
      "    Message('note_on', channel=0, note=72, velocity=58, time=1),\n",
      "    Message('note_on', channel=0, note=68, velocity=52, time=9),\n",
      "    Message('control_change', channel=0, control=64, value=0, time=0),\n",
      "    Message('note_on', channel=0, note=74, velocity=0, time=2),\n",
      "    Message('note_on', channel=0, note=51, velocity=0, time=1),\n",
      "    Message('note_on', channel=0, note=67, velocity=0, time=2),\n",
      "    Message('note_on', channel=0, note=55, velocity=0, time=0),\n",
      "    Message('note_on', channel=0, note=63, velocity=0, time=1),\n",
      "    Message('note_on', channel=0, note=77, velocity=0, time=0),\n",
      "    Message('note_on', channel=0, note=48, velocity=0, time=0),\n",
      "    Message('note_on', channel=0, note=41, velocity=48, time=1),\n",
      "    Message('note_on', channel=0, note=29, velocity=52, time=5),\n",
      "    Message('note_on', channel=0, note=36, velocity=0, time=13),\n",
      "    Message('note_on', channel=0, note=60, velocity=0, time=0),\n",
      "    Message('note_on', channel=0, note=29, velocity=0, time=34),\n",
      "    Message('note_on', channel=0, note=41, velocity=0, time=0),\n",
      "    Message('control_change', channel=0, control=64, value=127, time=20),\n",
      "    Message('note_on', channel=0, note=68, velocity=0, time=184),\n",
      "    Message('note_on', channel=0, note=72, velocity=0, time=0),\n",
      "    Message('note_on', channel=0, note=75, velocity=0, time=0),\n",
      "    Message('note_on', channel=0, note=68, velocity=51, time=5),\n",
      "    Message('note_on', channel=0, note=72, velocity=50, time=6),\n",
      "    Message('note_on', channel=0, note=75, velocity=54, time=0),\n",
      "    Message('note_on', channel=0, note=60, velocity=41, time=30),\n",
      "    Message('note_on', channel=0, note=53, velocity=41, time=5),\n",
      "    Message('note_on', channel=0, note=77, velocity=88, time=81),\n",
      "    Message('note_on', channel=0, note=68, velocity=0, time=19),\n",
      "    Message('note_on', channel=0, note=72, velocity=0, time=0),\n",
      "    Message('note_on', channel=0, note=72, velocity=52, time=5),\n",
      "    Message('note_on', channel=0, note=75, velocity=0, time=3),\n",
      "    Message('note_on', channel=0, note=68, velocity=63, time=3),\n",
      "    Message('note_on', channel=0, note=75, velocity=52, time=2),\n",
      "    Message('note_on', channel=0, note=63, velocity=57, time=91),\n",
      "    Message('note_on', channel=0, note=56, velocity=53, time=9),\n",
      "    Message('note_on', channel=0, note=80, velocity=88, time=173),\n",
      "    Message('note_on', channel=0, note=60, velocity=0, time=29),\n",
      "    Message('note_on', channel=0, note=68, velocity=0, time=0),\n",
      "    Message('note_on', channel=0, note=72, velocity=0, time=0),\n",
      "    Message('note_on', channel=0, note=72, velocity=49, time=4),\n",
      "    Message('note_on', channel=0, note=68, velocity=53, time=1),\n",
      "    Message('note_on', channel=0, note=60, velocity=48, time=0),\n",
      "    Message('note_on', channel=0, note=63, velocity=0, time=156),\n",
      "    Message('note_on', channel=0, note=56, velocity=0, time=8),\n",
      "    Message('note_on', channel=0, note=63, velocity=48, time=3),\n",
      "    Message('note_on', channel=0, note=56, velocity=51, time=1),\n",
      "    Message('note_on', channel=0, note=68, velocity=0, time=19),\n",
      "    Message('note_on', channel=0, note=72, velocity=0, time=8),\n",
      "    Message('note_on', channel=0, note=77, velocity=0, time=0),\n",
      "    Message('note_on', channel=0, note=68, velocity=51, time=1),\n",
      "    Message('note_on', channel=0, note=77, velocity=49, time=8),\n",
      "    Message('note_on', channel=0, note=72, velocity=54, time=2),\n",
      "    Message('note_on', channel=0, note=72, velocity=0, time=119),\n",
      "    Message('note_on', channel=0, note=72, velocity=80, time=11),\n",
      "    Message('note_on', channel=0, note=68, velocity=0, time=5),\n",
      "    Message('note_on', channel=0, note=77, velocity=0, time=0),\n",
      "    Message('note_on', channel=0, note=77, velocity=59, time=5),\n",
      "    Message('note_on', channel=0, note=68, velocity=64, time=1),\n",
      "    Message('note_on', channel=0, note=65, velocity=51, time=5),\n",
      "    Message('note_on', channel=0, note=29, velocity=55, time=80),\n",
      "    Message('note_on', channel=0, note=41, velocity=49, time=0),\n",
      "    Message('note_on', channel=0, note=72, velocity=0, time=216),\n",
      "    Message('control_change', channel=0, control=64, value=0, time=2),\n",
      "    Message('note_on', channel=0, note=60, velocity=0, time=1),\n",
      "    Message('note_on', channel=0, note=56, velocity=0, time=0),\n",
      "    Message('note_on', channel=0, note=53, velocity=0, time=0),\n",
      "    Message('note_on', channel=0, note=63, velocity=0, time=1),\n",
      "    Message('note_on', channel=0, note=41, velocity=0, time=0),\n",
      "    Message('note_on', channel=0, note=75, velocity=0, time=0),\n",
      "    Message('note_on', channel=0, note=77, velocity=0, time=0),\n",
      "    Message('note_on', channel=0, note=80, velocity=0, time=0),\n",
      "    Message('note_on', channel=0, note=74, velocity=77, time=3),\n",
      "    Message('note_on', channel=0, note=29, velocity=0, time=1),\n",
      "    Message('note_on', channel=0, note=68, velocity=0, time=0),\n",
      "    Message('note_on', channel=0, note=79, velocity=0, time=0),\n",
      "    Message('note_on', channel=0, note=72, velocity=69, time=3),\n",
      "    Message('note_on', channel=0, note=68, velocity=57, time=7),\n",
      "    Message('note_on', channel=0, note=65, velocity=0, time=5),\n",
      "    Message('note_on', channel=0, note=32, velocity=52, time=5),\n",
      "    Message('note_on', channel=0, note=65, velocity=45, time=5),\n",
      "    Message('note_on', channel=0, note=44, velocity=52, time=1),\n",
      "    Message('note_on', channel=0, note=32, velocity=0, time=28),\n",
      "    Message('control_change', channel=0, control=64, value=127, time=22),\n",
      "    Message('note_on', channel=0, note=65, velocity=0, time=177),\n",
      "    Message('note_on', channel=0, note=68, velocity=0, time=0),\n",
      "    Message('note_on', channel=0, note=74, velocity=0, time=0),\n",
      "    Message('note_on', channel=0, note=68, velocity=47, time=5),\n",
      "    Message('note_on', channel=0, note=56, velocity=35, time=0),\n",
      "    Message('note_on', channel=0, note=65, velocity=34, time=1),\n",
      "    Message('note_on', channel=0, note=74, velocity=41, time=2),\n",
      "    Message('note_on', channel=0, note=60, velocity=57, time=65),\n",
      "    Message('note_on', channel=0, note=53, velocity=47, time=0),\n",
      "    Message('note_on', channel=0, note=75, velocity=80, time=81),\n",
      "    Message('note_on', channel=0, note=65, velocity=0, time=7),\n",
      "    Message('note_on', channel=0, note=72, velocity=0, time=0),\n",
      "    Message('note_on', channel=0, note=65, velocity=48, time=9),\n",
      "    Message('note_on', channel=0, note=72, velocity=58, time=1),\n",
      "    Message('note_on', channel=0, note=53, velocity=0, time=6),\n",
      "    Message('note_on', channel=0, note=68, velocity=0, time=0),\n",
      "    Message('note_on', channel=0, note=53, velocity=50, time=5),\n",
      "    Message('note_on', channel=0, note=68, velocity=55, time=6),\n",
      "    Message('note_on', channel=0, note=56, velocity=0, time=81),\n",
      "    Message('note_on', channel=0, note=63, velocity=58, time=6),\n",
      "    Message('note_on', channel=0, note=56, velocity=51, time=4),\n",
      "    Message('note_on', channel=0, note=75, velocity=0, time=143),\n",
      "    Message('note_on', channel=0, note=75, velocity=78, time=8),\n",
      "    Message('note_on', channel=0, note=68, velocity=0, time=0),\n",
      "    Message('note_on', channel=0, note=72, velocity=0, time=0),\n",
      "    Message('note_on', channel=0, note=72, velocity=70, time=11),\n",
      "    Message('note_on', channel=0, note=68, velocity=64, time=0),\n",
      "    Message('note_on', channel=0, note=44, velocity=0, time=12),\n",
      "    Message('note_on', channel=0, note=60, velocity=0, time=16),\n",
      "    Message('note_on', channel=0, note=60, velocity=42, time=11),\n",
      "    Message('note_on', channel=0, note=77, velocity=80, time=133),\n",
      "    Message('note_on', channel=0, note=72, velocity=0, time=17),\n",
      "    Message('note_on', channel=0, note=56, velocity=0, time=7),\n",
      "    Message('note_on', channel=0, note=68, velocity=0, time=0),\n",
      "    Message('note_on', channel=0, note=72, velocity=66, time=4),\n",
      "    Message('note_on', channel=0, note=68, velocity=53, time=1),\n",
      "    Message('note_on', channel=0, note=56, velocity=41, time=1),\n",
      "    Message('note_on', channel=0, note=75, velocity=0, time=110),\n",
      "    Message('note_on', channel=0, note=72, velocity=0, time=7),\n",
      "    Message('note_on', channel=0, note=75, velocity=80, time=4),\n",
      "    Message('note_on', channel=0, note=63, velocity=0, time=4),\n",
      "    Message('note_on', channel=0, note=68, velocity=0, time=0),\n",
      "    Message('note_on', channel=0, note=72, velocity=68, time=3),\n",
      "    Message('note_on', channel=0, note=68, velocity=63, time=1),\n",
      "    Message('note_on', channel=0, note=63, velocity=49, time=7),\n",
      "    Message('note_on', channel=0, note=56, velocity=0, time=4),\n",
      "    Message('note_on', channel=0, note=56, velocity=51, time=8),\n",
      "    Message('note_on', channel=0, note=74, velocity=0, time=100),\n",
      "    Message('note_on', channel=0, note=74, velocity=74, time=5),\n",
      "    Message('note_on', channel=0, note=72, velocity=0, time=10),\n",
      "    Message('note_on', channel=0, note=68, velocity=0, time=8),\n",
      "    Message('note_on', channel=0, note=72, velocity=57, time=4),\n",
      "    Message('note_on', channel=0, note=68, velocity=58, time=4),\n",
      "    Message('note_on', channel=0, note=72, velocity=0, time=92),\n",
      "    Message('note_on', channel=0, note=75, velocity=0, time=0),\n",
      "    Message('note_on', channel=0, note=75, velocity=75, time=5),\n",
      "    Message('note_on', channel=0, note=72, velocity=67, time=3),\n",
      "    Message('note_on', channel=0, note=68, velocity=0, time=7),\n",
      "    Message('note_on', channel=0, note=68, velocity=57, time=5),\n",
      "    Message('note_on', channel=0, note=56, velocity=0, time=103),\n",
      "    Message('note_on', channel=0, note=72, velocity=0, time=0),\n",
      "    Message('note_on', channel=0, note=56, velocity=44, time=5),\n",
      "    Message('note_on', channel=0, note=68, velocity=0, time=2),\n",
      "    Message('note_on', channel=0, note=79, velocity=75, time=3),\n",
      "    Message('note_on', channel=0, note=72, velocity=70, time=1),\n",
      "    Message('note_on', channel=0, note=68, velocity=60, time=7),\n",
      "    Message('note_on', channel=0, note=68, velocity=0, time=112),\n",
      "    Message('note_on', channel=0, note=72, velocity=0, time=0),\n",
      "    Message('note_on', channel=0, note=77, velocity=0, time=0),\n",
      "    Message('note_on', channel=0, note=56, velocity=0, time=8),\n",
      "    Message('note_on', channel=0, note=77, velocity=74, time=0),\n",
      "    Message('note_on', channel=0, note=72, velocity=65, time=3),\n",
      "    Message('note_on', channel=0, note=68, velocity=60, time=1),\n",
      "    Message('note_on', channel=0, note=56, velocity=48, time=7),\n",
      "    Message('note_on', channel=0, note=65, velocity=0, time=158),\n",
      "    Message('note_on', channel=0, note=74, velocity=0, time=0),\n",
      "    Message('note_on', channel=0, note=74, velocity=76, time=7),\n",
      "    Message('note_on', channel=0, note=65, velocity=51, time=3),\n",
      "    Message('control_change', channel=0, control=64, value=0, time=3),\n",
      "    Message('note_on', channel=0, note=68, velocity=0, time=2),\n",
      "    Message('note_on', channel=0, note=56, velocity=0, time=7),\n",
      "    Message('note_on', channel=0, note=72, velocity=0, time=1),\n",
      "    Message('note_on', channel=0, note=77, velocity=0, time=1),\n",
      "    Message('note_on', channel=0, note=79, velocity=0, time=0),\n",
      "    Message('note_on', channel=0, note=75, velocity=0, time=0),\n",
      "    Message('note_on', channel=0, note=68, velocity=53, time=0),\n",
      "    Message('note_on', channel=0, note=53, velocity=0, time=1),\n",
      "    Message('note_on', channel=0, note=60, velocity=0, time=0),\n",
      "    Message('note_on', channel=0, note=46, velocity=52, time=2),\n",
      "    Message('note_on', channel=0, note=34, velocity=50, time=2),\n",
      "    Message('note_on', channel=0, note=70, velocity=47, time=3),\n",
      "    Message('note_on', channel=0, note=63, velocity=0, time=6),\n",
      "    Message('control_change', channel=0, control=64, value=127, time=54),\n",
      "    Message('note_on', channel=0, note=34, velocity=0, time=31),\n",
      "    Message('note_on', channel=0, note=65, velocity=0, time=192),\n",
      "    Message('note_on', channel=0, note=46, velocity=0, time=7),\n",
      "    Message('note_on', channel=0, note=70, velocity=0, time=0),\n",
      "    Message('note_on', channel=0, note=65, velocity=43, time=4),\n",
      "    Message('note_on', channel=0, note=62, velocity=35, time=0),\n",
      "    Message('note_on', channel=0, note=46, velocity=45, time=1),\n",
      "    Message('note_on', channel=0, note=56, velocity=48, time=1),\n",
      "    Message('note_on', channel=0, note=70, velocity=46, time=1),\n",
      "    Message('note_on', channel=0, note=62, velocity=0, time=1),\n",
      "    Message('note_on', channel=0, note=65, velocity=0, time=177),\n",
      "    Message('note_on', channel=0, note=68, velocity=0, time=0),\n",
      "    Message('note_on', channel=0, note=70, velocity=0, time=0),\n",
      "    Message('note_on', channel=0, note=70, velocity=49, time=4),\n",
      "    Message('note_on', channel=0, note=62, velocity=54, time=1),\n",
      "    Message('note_on', channel=0, note=46, velocity=0, time=2),\n",
      "    Message('note_on', channel=0, note=65, velocity=41, time=2),\n",
      "    Message('note_on', channel=0, note=68, velocity=48, time=1),\n",
      "    Message('note_on', channel=0, note=46, velocity=39, time=3),\n",
      "    Message('note_on', channel=0, note=56, velocity=0, time=2),\n",
      "    Message('note_on', channel=0, note=56, velocity=44, time=6),\n",
      "    Message('note_on', channel=0, note=56, velocity=0, time=140),\n",
      "    Message('note_on', channel=0, note=68, velocity=0, time=0),\n",
      "    Message('note_on', channel=0, note=46, velocity=0, time=8),\n",
      "    Message('note_on', channel=0, note=62, velocity=0, time=0),\n",
      "    Message('note_on', channel=0, note=65, velocity=0, time=0),\n",
      "    Message('note_on', channel=0, note=70, velocity=0, time=0),\n",
      "    Message('note_on', channel=0, note=56, velocity=53, time=0),\n",
      "    Message('note_on', channel=0, note=68, velocity=55, time=3),\n",
      "    Message('note_on', channel=0, note=62, velocity=41, time=1),\n",
      "    Message('note_on', channel=0, note=65, velocity=45, time=0),\n",
      "    Message('note_on', channel=0, note=70, velocity=50, time=1),\n",
      "    Message('note_on', channel=0, note=46, velocity=46, time=3),\n",
      "    Message('note_on', channel=0, note=68, velocity=0, time=161),\n",
      "    Message('note_on', channel=0, note=68, velocity=53, time=6),\n",
      "    Message('note_on', channel=0, note=56, velocity=0, time=1),\n",
      "    Message('note_on', channel=0, note=62, velocity=0, time=0),\n",
      "    Message('note_on', channel=0, note=65, velocity=0, time=0),\n",
      "    Message('note_on', channel=0, note=62, velocity=47, time=7),\n",
      "    Message('note_on', channel=0, note=46, velocity=0, time=1),\n",
      "    Message('note_on', channel=0, note=70, velocity=0, time=0),\n",
      "    Message('note_on', channel=0, note=65, velocity=39, time=4),\n",
      "    Message('note_on', channel=0, note=56, velocity=49, time=0),\n",
      "    Message('note_on', channel=0, note=70, velocity=45, time=1),\n",
      "    Message('note_on', channel=0, note=46, velocity=37, time=1),\n",
      "    Message('note_on', channel=0, note=46, velocity=0, time=155),\n",
      "    Message('note_on', channel=0, note=62, velocity=0, time=8),\n",
      "    Message('note_on', channel=0, note=65, velocity=0, time=0),\n",
      "    Message('note_on', channel=0, note=68, velocity=0, time=0),\n",
      "    Message('note_on', channel=0, note=46, velocity=52, time=4),\n",
      "    Message('note_on', channel=0, note=68, velocity=51, time=1),\n",
      "    Message('note_on', channel=0, note=34, velocity=50, time=1),\n",
      "    Message('note_on', channel=0, note=62, velocity=41, time=4),\n",
      "    Message('note_on', channel=0, note=65, velocity=44, time=0),\n",
      "    Message('note_on', channel=0, note=70, velocity=0, time=180),\n",
      "    Message('note_on', channel=0, note=68, velocity=0, time=0),\n",
      "    Message('note_on', channel=0, note=34, velocity=0, time=1),\n",
      "    Message('note_on', channel=0, note=62, velocity=0, time=0),\n",
      "    Message('control_change', channel=0, control=64, value=0, time=4),\n",
      "    Message('note_on', channel=0, note=46, velocity=0, time=12),\n",
      "    Message('note_on', channel=0, note=56, velocity=0, time=0),\n",
      "    Message('note_on', channel=0, note=65, velocity=0, time=16),\n",
      "    Message('note_on', channel=0, note=74, velocity=0, time=0),\n",
      "    Message('note_on', channel=0, note=67, velocity=53, time=3),\n",
      "    Message('note_on', channel=0, note=65, velocity=48, time=4),\n",
      "    Message('note_on', channel=0, note=35, velocity=62, time=7),\n",
      "    Message('note_on', channel=0, note=47, velocity=54, time=3),\n",
      "    Message('note_on', channel=0, note=35, velocity=0, time=33),\n",
      "    Message('control_change', channel=0, control=64, value=127, time=3),\n",
      "    Message('note_on', channel=0, note=65, velocity=0, time=208),\n",
      "    Message('note_on', channel=0, note=67, velocity=0, time=0),\n",
      "    Message('note_on', channel=0, note=47, velocity=0, time=8),\n",
      "    Message('note_on', channel=0, note=67, velocity=48, time=1),\n",
      "    Message('note_on', channel=0, note=65, velocity=45, time=1),\n",
      "    Message('note_on', channel=0, note=55, velocity=49, time=2),\n",
      "    Message('note_on', channel=0, note=47, velocity=44, time=4),\n",
      "    Message('note_on', channel=0, note=62, velocity=36, time=2),\n",
      "    Message('note_on', channel=0, note=47, velocity=0, time=174),\n",
      "    Message('note_on', channel=0, note=55, velocity=0, time=0),\n",
      "    Message('note_on', channel=0, note=62, velocity=0, time=0),\n",
      "    Message('note_on', channel=0, note=65, velocity=0, time=0),\n",
      "    Message('note_on', channel=0, note=67, velocity=0, time=0),\n",
      "    Message('note_on', channel=0, note=62, velocity=59, time=4),\n",
      "    Message('note_on', channel=0, note=55, velocity=55, time=2),\n",
      "    Message('note_on', channel=0, note=67, velocity=54, time=0),\n",
      "    Message('note_on', channel=0, note=65, velocity=51, time=3),\n",
      "    Message('note_on', channel=0, note=47, velocity=47, time=1),\n",
      "    Message('note_on', channel=0, note=62, velocity=0, time=190),\n",
      "    Message('note_on', channel=0, note=65, velocity=0, time=0),\n",
      "    Message('note_on', channel=0, note=67, velocity=0, time=0),\n",
      "    Message('note_on', channel=0, note=65, velocity=62, time=4),\n",
      "    Message('note_on', channel=0, note=67, velocity=54, time=0),\n",
      "    Message('note_on', channel=0, note=47, velocity=0, time=3),\n",
      "    Message('note_on', channel=0, note=55, velocity=0, time=0),\n",
      "    Message('note_on', channel=0, note=62, velocity=44, time=3),\n",
      "    Message('note_on', channel=0, note=47, velocity=43, time=5),\n",
      "    Message('note_on', channel=0, note=55, velocity=49, time=0),\n",
      "    Message('note_on', channel=0, note=70, velocity=69, time=200),\n",
      "    Message('note_on', channel=0, note=62, velocity=0, time=7),\n",
      "    Message('note_on', channel=0, note=65, velocity=0, time=8),\n",
      "    Message('note_on', channel=0, note=62, velocity=54, time=4),\n",
      "    Message('note_on', channel=0, note=55, velocity=0, time=4),\n",
      "    Message('note_on', channel=0, note=65, velocity=50, time=2),\n",
      "    Message('note_on', channel=0, note=55, velocity=47, time=8),\n",
      "    Message('note_on', channel=0, note=68, velocity=68, time=8),\n",
      "    Message('note_on', channel=0, note=65, velocity=0, time=220),\n",
      "    Message('note_on', channel=0, note=67, velocity=0, time=0),\n",
      "    Message('note_on', channel=0, note=67, velocity=75, time=10),\n",
      "    Message('note_on', channel=0, note=65, velocity=65, time=1),\n",
      "    Message('note_on', channel=0, note=47, velocity=0, time=4),\n",
      "    Message('note_on', channel=0, note=35, velocity=50, time=8),\n",
      "    Message('note_on', channel=0, note=47, velocity=47, time=2),\n",
      "    Message('note_on', channel=0, note=68, velocity=0, time=289),\n",
      "    Message('note_on', channel=0, note=67, velocity=0, time=1),\n",
      "    Message('note_on', channel=0, note=47, velocity=0, time=1),\n",
      "    Message('note_on', channel=0, note=35, velocity=0, time=0),\n",
      "    Message('control_change', channel=0, control=64, value=0, time=1),\n",
      "    Message('note_on', channel=0, note=70, velocity=0, time=5),\n",
      "    Message('note_on', channel=0, note=76, velocity=78, time=2),\n",
      "    Message('note_on', channel=0, note=67, velocity=75, time=1),\n",
      "    Message('note_on', channel=0, note=72, velocity=73, time=0),\n",
      "    Message('note_on', channel=0, note=70, velocity=74, time=1),\n",
      "    Message('note_on', channel=0, note=64, velocity=73, time=0),\n",
      "    Message('note_on', channel=0, note=55, velocity=0, time=4),\n",
      "    Message('note_on', channel=0, note=62, velocity=0, time=0),\n",
      "    Message('note_on', channel=0, note=48, velocity=73, time=3),\n",
      "    Message('note_on', channel=0, note=36, velocity=72, time=0),\n",
      "    Message('note_on', channel=0, note=65, velocity=0, time=5),\n",
      "    Message('note_on', channel=0, note=36, velocity=0, time=50),\n",
      "    Message('control_change', channel=0, control=64, value=127, time=11),\n",
      "    Message('note_on', channel=0, note=67, velocity=0, time=277),\n",
      "    Message('note_on', channel=0, note=64, velocity=0, time=7),\n",
      "    Message('note_on', channel=0, note=70, velocity=0, time=0),\n",
      "    Message('note_on', channel=0, note=72, velocity=0, time=0),\n",
      "    Message('note_on', channel=0, note=67, velocity=69, time=3),\n",
      "    Message('note_on', channel=0, note=72, velocity=64, time=1),\n",
      "    Message('note_on', channel=0, note=60, velocity=64, time=0),\n",
      "    Message('note_on', channel=0, note=64, velocity=69, time=1),\n",
      "    Message('note_on', channel=0, note=70, velocity=67, time=3),\n",
      "    Message('note_on', channel=0, note=58, velocity=62, time=1),\n",
      "    Message('note_on', channel=0, note=55, velocity=58, time=2),\n",
      "    Message('note_on', channel=0, note=60, velocity=0, time=220),\n",
      "    Message('note_on', channel=0, note=64, velocity=0, time=0),\n",
      "    Message('note_on', channel=0, note=67, velocity=0, time=0),\n",
      "    Message('note_on', channel=0, note=70, velocity=0, time=0),\n",
      "    Message('note_on', channel=0, note=72, velocity=0, time=0),\n",
      "    Message('note_on', channel=0, note=64, velocity=61, time=4),\n",
      "    Message('note_on', channel=0, note=67, velocity=63, time=0),\n",
      "    Message('note_on', channel=0, note=72, velocity=68, time=1),\n",
      "    Message('note_on', channel=0, note=55, velocity=0, time=2),\n",
      "    Message('note_on', channel=0, note=58, velocity=0, time=0),\n",
      "    Message('note_on', channel=0, note=70, velocity=68, time=1),\n",
      "    Message('note_on', channel=0, note=60, velocity=58, time=2),\n",
      "    Message('note_on', channel=0, note=55, velocity=50, time=2),\n",
      "    Message('note_on', channel=0, note=58, velocity=54, time=1),\n",
      "    Message('note_on', channel=0, note=79, velocity=87, time=240),\n",
      "    Message('note_on', channel=0, note=70, velocity=0, time=0),\n",
      "    Message('note_on', channel=0, note=55, velocity=0, time=8),\n",
      "    Message('note_on', channel=0, note=60, velocity=0, time=0),\n",
      "    Message('note_on', channel=0, note=67, velocity=0, time=0),\n",
      "    Message('note_on', channel=0, note=76, velocity=0, time=0),\n",
      "    Message('note_on', channel=0, note=70, velocity=82, time=2),\n",
      "    Message('note_on', channel=0, note=67, velocity=68, time=2),\n",
      "    Message('note_on', channel=0, note=60, velocity=63, time=1),\n",
      "    Message('note_on', channel=0, note=76, velocity=73, time=1),\n",
      "    Message('note_on', channel=0, note=58, velocity=0, time=1),\n",
      "    Message('note_on', channel=0, note=64, velocity=0, time=0),\n",
      "    Message('note_on', channel=0, note=55, velocity=58, time=1),\n",
      "    Message('note_on', channel=0, note=58, velocity=58, time=3),\n",
      "    Message('note_on', channel=0, note=64, velocity=54, time=0),\n",
      "    Message('note_on', channel=0, note=64, velocity=0, time=227),\n",
      "    Message('note_on', channel=0, note=55, velocity=0, time=7),\n",
      "    Message('note_on', channel=0, note=58, velocity=0, time=0),\n",
      "    Message('note_on', channel=0, note=70, velocity=0, time=0),\n",
      "    Message('note_on', channel=0, note=72, velocity=0, time=0),\n",
      "    Message('note_on', channel=0, note=64, velocity=55, time=3),\n",
      "    Message('note_on', channel=0, note=58, velocity=52, time=2),\n",
      "    Message('note_on', channel=0, note=55, velocity=49, time=1),\n",
      "    Message('note_on', channel=0, note=70, velocity=59, time=1),\n",
      "    Message('note_on', channel=0, note=67, velocity=0, time=1),\n",
      "    Message('note_on', channel=0, note=72, velocity=60, time=1),\n",
      "    Message('note_on', channel=0, note=67, velocity=50, time=4),\n",
      "    Message('note_on', channel=0, note=48, velocity=0, time=218),\n",
      "    Message('note_on', channel=0, note=70, velocity=0, time=0),\n",
      "    Message('note_on', channel=0, note=55, velocity=0, time=1),\n",
      "    Message('note_on', channel=0, note=70, velocity=71, time=5),\n",
      "    Message('note_on', channel=0, note=79, velocity=0, time=0),\n",
      "    Message('note_on', channel=0, note=48, velocity=62, time=2),\n",
      "    Message('note_on', channel=0, note=36, velocity=56, time=1),\n",
      "    Message('note_on', channel=0, note=72, velocity=0, time=183),\n",
      "    Message('note_on', channel=0, note=36, velocity=0, time=8),\n",
      "    Message('note_on', channel=0, note=76, velocity=0, time=0),\n",
      "    Message('note_on', channel=0, note=60, velocity=0, time=1),\n",
      "    Message('note_on', channel=0, note=64, velocity=0, time=0),\n",
      "    Message('note_on', channel=0, note=58, velocity=0, time=0),\n",
      "    Message('note_on', channel=0, note=70, velocity=0, time=1),\n",
      "    Message('note_on', channel=0, note=67, velocity=0, time=0),\n",
      "    Message('note_on', channel=0, note=72, velocity=72, time=0),\n",
      "    Message('note_on', channel=0, note=48, velocity=0, time=1),\n",
      "    Message('control_change', channel=0, control=64, value=0, time=0),\n",
      "    Message('note_on', channel=0, note=76, velocity=67, time=2),\n",
      "    Message('note_on', channel=0, note=68, velocity=74, time=5),\n",
      "    Message('note_on', channel=0, note=41, velocity=69, time=7),\n",
      "    Message('note_on', channel=0, note=53, velocity=69, time=0),\n",
      "    Message('control_change', channel=0, control=64, value=127, time=52),\n",
      "    Message('note_on', channel=0, note=68, velocity=0, time=176),\n",
      "    Message('note_on', channel=0, note=72, velocity=0, time=0),\n",
      "    Message('note_on', channel=0, note=60, velocity=64, time=7),\n",
      "    Message('note_on', channel=0, note=68, velocity=66, time=0),\n",
      "    Message('note_on', channel=0, note=76, velocity=0, time=1),\n",
      "    Message('note_on', channel=0, note=72, velocity=74, time=1),\n",
      "    Message('note_on', channel=0, note=76, velocity=64, time=3),\n",
      "    Message('note_on', channel=0, note=56, velocity=43, time=22),\n",
      "    Message('note_on', channel=0, note=56, velocity=0, time=158),\n",
      "    Message('note_on', channel=0, note=60, velocity=0, time=0),\n",
      "    Message('note_on', channel=0, note=68, velocity=0, time=0),\n",
      "    Message('note_on', channel=0, note=72, velocity=0, time=0),\n",
      "    Message('note_on', channel=0, note=76, velocity=0, time=0),\n",
      "    Message('note_on', channel=0, note=60, velocity=65, time=4),\n",
      "    Message('note_on', channel=0, note=64, velocity=71, time=3),\n",
      "    Message('note_on', channel=0, note=76, velocity=69, time=3),\n",
      "    Message('note_on', channel=0, note=68, velocity=75, time=1),\n",
      "    Message('note_on', channel=0, note=72, velocity=72, time=0),\n",
      "    Message('note_on', channel=0, note=56, velocity=56, time=1),\n",
      "    Message('note_on', channel=0, note=60, velocity=0, time=219),\n",
      "    Message('note_on', channel=0, note=68, velocity=0, time=0),\n",
      "    Message('note_on', channel=0, note=72, velocity=0, time=0),\n",
      "    Message('note_on', channel=0, note=80, velocity=83, time=4),\n",
      "    Message('note_on', channel=0, note=68, velocity=81, time=0),\n",
      "    Message('note_on', channel=0, note=72, velocity=79, time=2),\n",
      "    Message('note_on', channel=0, note=77, velocity=75, time=0),\n",
      "    Message('note_on', channel=0, note=60, velocity=75, time=0),\n",
      "    Message('note_on', channel=0, note=65, velocity=66, time=0),\n",
      "    Message('note_on', channel=0, note=53, velocity=0, time=1),\n",
      "    Message('note_on', channel=0, note=56, velocity=0, time=0),\n",
      "    Message('note_on', channel=0, note=53, velocity=59, time=4),\n",
      "    Message('note_on', channel=0, note=56, velocity=62, time=8),\n",
      "    Message('note_on', channel=0, note=64, velocity=0, time=0),\n",
      "    Message('note_on', channel=0, note=76, velocity=0, time=4),\n",
      "    Message('control_change', channel=0, control=64, value=0, time=2),\n",
      "    Message('control_change', channel=0, control=64, value=127, time=67),\n",
      "    Message('note_on', channel=0, note=53, velocity=0, time=161),\n",
      "    Message('note_on', channel=0, note=60, velocity=0, time=0),\n",
      "    Message('note_on', channel=0, note=65, velocity=0, time=0),\n",
      "    Message('note_on', channel=0, note=68, velocity=0, time=0),\n",
      "    Message('note_on', channel=0, note=56, velocity=0, time=8),\n",
      "    Message('note_on', channel=0, note=72, velocity=0, time=0),\n",
      "    Message('note_on', channel=0, note=77, velocity=0, time=0),\n",
      "    Message('note_on', channel=0, note=68, velocity=77, time=1),\n",
      "    Message('note_on', channel=0, note=53, velocity=56, time=1),\n",
      "    Message('note_on', channel=0, note=60, velocity=54, time=2),\n",
      "    Message('note_on', channel=0, note=65, velocity=61, time=0),\n",
      "    Message('note_on', channel=0, note=77, velocity=72, time=0),\n",
      "    Message('note_on', channel=0, note=72, velocity=74, time=1),\n",
      "    Message('note_on', channel=0, note=56, velocity=56, time=3),\n",
      "    Message('note_on', channel=0, note=41, velocity=0, time=238),\n",
      "    Message('note_on', channel=0, note=53, velocity=0, time=0),\n",
      "    Message('note_on', channel=0, note=68, velocity=0, time=0),\n",
      "    Message('note_on', channel=0, note=72, velocity=0, time=0),\n",
      "    Message('note_on', channel=0, note=80, velocity=0, time=0),\n",
      "    Message('note_on', channel=0, note=80, velocity=69, time=5),\n",
      "    Message('note_on', channel=0, note=68, velocity=71, time=2),\n",
      "    Message('note_on', channel=0, note=77, velocity=0, time=0),\n",
      "    Message('note_on', channel=0, note=53, velocity=58, time=1),\n",
      "    Message('note_on', channel=0, note=72, velocity=67, time=1),\n",
      "    Message('note_on', channel=0, note=41, velocity=61, time=2),\n",
      "    Message('note_on', channel=0, note=77, velocity=64, time=2),\n",
      "    Message('note_on', channel=0, note=41, velocity=0, time=232),\n",
      "    Message('note_on', channel=0, note=65, velocity=0, time=1),\n",
      "    Message('note_on', channel=0, note=60, velocity=0, time=0),\n",
      "    Message('note_on', channel=0, note=77, velocity=0, time=1),\n",
      "    Message('note_on', channel=0, note=53, velocity=0, time=1),\n",
      "    Message('note_on', channel=0, note=56, velocity=0, time=0),\n",
      "    Message('control_change', channel=0, control=64, value=0, time=4),\n",
      "    Message('note_on', channel=0, note=68, velocity=0, time=1),\n",
      "    Message('note_on', channel=0, note=72, velocity=0, time=0),\n",
      "    Message('note_on', channel=0, note=80, velocity=0, time=0),\n",
      "    Message('note_on', channel=0, note=68, velocity=81, time=9),\n",
      "    Message('note_on', channel=0, note=72, velocity=74, time=1),\n",
      "    Message('note_on', channel=0, note=80, velocity=75, time=0),\n",
      "    Message('note_on', channel=0, note=46, velocity=78, time=2),\n",
      "    Message('note_on', channel=0, note=75, velocity=80, time=1),\n",
      "    Message('note_on', channel=0, note=34, velocity=76, time=3),\n",
      "    Message('control_change', channel=0, control=64, value=127, time=53),\n",
      "    Message('note_on', channel=0, note=34, velocity=0, time=46),\n",
      "    Message('note_on', channel=0, note=68, velocity=0, time=246),\n",
      "    Message('note_on', channel=0, note=72, velocity=0, time=0),\n",
      "    Message('note_on', channel=0, note=75, velocity=0, time=0),\n",
      "    Message('note_on', channel=0, note=68, velocity=76, time=5),\n",
      "    Message('note_on', channel=0, note=75, velocity=75, time=1),\n",
      "    Message('note_on', channel=0, note=60, velocity=58, time=2),\n",
      "    Message('note_on', channel=0, note=72, velocity=76, time=1),\n",
      "    Message('note_on', channel=0, note=56, velocity=60, time=2),\n",
      "    Message('note_on', channel=0, note=68, velocity=0, time=219),\n",
      "    Message('note_on', channel=0, note=72, velocity=0, time=0),\n",
      "    Message('note_on', channel=0, note=75, velocity=0, time=0),\n",
      "    Message('note_on', channel=0, note=79, velocity=88, time=2),\n",
      "    Message('note_on', channel=0, note=72, velocity=80, time=5),\n",
      "    Message('note_on', channel=0, note=56, velocity=0, time=1),\n",
      "    Message('note_on', channel=0, note=60, velocity=0, time=0),\n",
      "    Message('note_on', channel=0, note=68, velocity=80, time=3),\n",
      "    Message('note_on', channel=0, note=75, velocity=83, time=0),\n",
      "    Message('note_on', channel=0, note=63, velocity=68, time=2),\n",
      "    Message('note_on', channel=0, note=60, velocity=60, time=0),\n",
      "    Message('note_on', channel=0, note=56, velocity=64, time=2),\n",
      "    Message('note_on', channel=0, note=58, velocity=54, time=5),\n",
      "    Message('note_on', channel=0, note=68, velocity=0, time=172),\n",
      "    Message('note_on', channel=0, note=46, velocity=0, time=8),\n",
      "    Message('note_on', channel=0, note=56, velocity=0, time=0),\n",
      "    Message('note_on', channel=0, note=58, velocity=0, time=0),\n",
      "    Message('note_on', channel=0, note=68, velocity=80, time=3),\n",
      "    Message('note_on', channel=0, note=58, velocity=60, time=1),\n",
      "    Message('note_on', channel=0, note=46, velocity=56, time=0),\n",
      "    Message('note_on', channel=0, note=56, velocity=58, time=6),\n",
      "    Message('note_on', channel=0, note=74, velocity=64, time=2),\n",
      "    Message('note_on', channel=0, note=56, velocity=0, time=180),\n",
      "    Message('note_on', channel=0, note=58, velocity=0, time=0),\n",
      "    Message('note_on', channel=0, note=62, velocity=70, time=5),\n",
      "    Message('note_on', channel=0, note=58, velocity=67, time=1),\n",
      "    Message('note_on', channel=0, note=68, velocity=0, time=2),\n",
      "    Message('note_on', channel=0, note=74, velocity=0, time=0),\n",
      "    Message('note_on', channel=0, note=56, velocity=67, time=3),\n",
      "    Message('note_on', channel=0, note=53, velocity=57, time=1),\n",
      "    Message('note_on', channel=0, note=68, velocity=79, time=0),\n",
      "    Message('note_on', channel=0, note=70, velocity=72, time=2),\n",
      "    Message('note_on', channel=0, note=74, velocity=74, time=2),\n",
      "    Message('note_on', channel=0, note=77, velocity=62, time=1),\n",
      "    Message('note_on', channel=0, note=68, velocity=0, time=213),\n",
      "    Message('note_on', channel=0, note=70, velocity=0, time=0),\n",
      "    Message('note_on', channel=0, note=74, velocity=0, time=0),\n",
      "    Message('note_on', channel=0, note=77, velocity=0, time=0),\n",
      "    Message('note_on', channel=0, note=80, velocity=0, time=0),\n",
      "    Message('note_on', channel=0, note=68, velocity=80, time=7),\n",
      "    Message('note_on', channel=0, note=46, velocity=0, time=1),\n",
      "    Message('note_on', channel=0, note=77, velocity=84, time=0),\n",
      "    Message('note_on', channel=0, note=70, velocity=75, time=3),\n",
      "    Message('note_on', channel=0, note=80, velocity=78, time=0),\n",
      "    Message('note_on', channel=0, note=74, velocity=77, time=1),\n",
      "    Message('note_on', channel=0, note=46, velocity=69, time=1),\n",
      "    Message('note_on', channel=0, note=58, velocity=0, time=1),\n",
      "    Message('note_on', channel=0, note=34, velocity=65, time=4),\n",
      "    Message('note_on', channel=0, note=62, velocity=0, time=2),\n",
      "    Message('note_on', channel=0, note=34, velocity=0, time=184),\n",
      "    Message('note_on', channel=0, note=79, velocity=0, time=0),\n",
      "    Message('note_on', channel=0, note=46, velocity=0, time=1),\n",
      "    Message('note_on', channel=0, note=77, velocity=0, time=0),\n",
      "    Message('note_on', channel=0, note=68, velocity=0, time=1),\n",
      "    Message('note_on', channel=0, note=75, velocity=0, time=0),\n",
      "    Message('note_on', channel=0, note=72, velocity=0, time=0),\n",
      "    Message('control_change', channel=0, control=64, value=0, time=3),\n",
      "    Message('note_on', channel=0, note=63, velocity=0, time=7),\n",
      "    Message('note_on', channel=0, note=53, velocity=0, time=7),\n",
      "    Message('note_on', channel=0, note=56, velocity=0, time=0),\n",
      "    Message('note_on', channel=0, note=60, velocity=0, time=0),\n",
      "    Message('note_on', channel=0, note=74, velocity=0, time=0),\n",
      "    Message('note_on', channel=0, note=80, velocity=0, time=0),\n",
      "    Message('note_on', channel=0, note=70, velocity=0, time=8),\n",
      "    Message('note_on', channel=0, note=51, velocity=74, time=17),\n",
      "    Message('note_on', channel=0, note=79, velocity=68, time=0),\n",
      "    Message('note_on', channel=0, note=67, velocity=68, time=2),\n",
      "    Message('note_on', channel=0, note=70, velocity=69, time=0),\n",
      "    Message('note_on', channel=0, note=39, velocity=67, time=1),\n",
      "    Message('note_on', channel=0, note=75, velocity=66, time=0),\n",
      "    Message('control_change', channel=0, control=64, value=127, time=41),\n",
      "    Message('note_on', channel=0, note=75, velocity=0, time=223),\n",
      "    Message('note_on', channel=0, note=67, velocity=0, time=8),\n",
      "    Message('note_on', channel=0, note=70, velocity=0, time=0),\n",
      "    Message('note_on', channel=0, note=75, velocity=87, time=3),\n",
      "    Message('note_on', channel=0, note=70, velocity=78, time=3),\n",
      "    Message('note_on', channel=0, note=67, velocity=75, time=1),\n",
      "    Message('note_on', channel=0, note=51, velocity=0, time=0),\n",
      "    Message('note_on', channel=0, note=58, velocity=63, time=5),\n",
      "    Message('note_on', channel=0, note=51, velocity=59, time=2),\n",
      "    Message('note_on', channel=0, note=55, velocity=63, time=3),\n",
      "    Message('note_on', channel=0, note=67, velocity=0, time=175),\n",
      "    Message('note_on', channel=0, note=70, velocity=0, time=0),\n",
      "    Message('note_on', channel=0, note=77, velocity=89, time=2),\n",
      "    Message('note_on', channel=0, note=67, velocity=75, time=3),\n",
      "    Message('note_on', channel=0, note=70, velocity=78, time=1),\n",
      "    Message('note_on', channel=0, note=55, velocity=0, time=86),\n",
      "    Message('note_on', channel=0, note=58, velocity=0, time=0),\n",
      "    Message('note_on', channel=0, note=70, velocity=0, time=0),\n",
      "    Message('note_on', channel=0, note=55, velocity=51, time=4),\n",
      "    Message('note_on', channel=0, note=62, velocity=66, time=1),\n",
      "    Message('note_on', channel=0, note=58, velocity=57, time=0),\n",
      "    Message('note_on', channel=0, note=70, velocity=68, time=1),\n",
      "    Message('note_on', channel=0, note=75, velocity=0, time=48),\n",
      "    Message('note_on', channel=0, note=67, velocity=0, time=7),\n",
      "    Message('note_on', channel=0, note=70, velocity=0, time=0),\n",
      "    Message('note_on', channel=0, note=75, velocity=86, time=3),\n",
      "    Message('note_on', channel=0, note=67, velocity=73, time=2),\n",
      "    Message('note_on', channel=0, note=70, velocity=71, time=0),\n",
      "    Message('note_on', channel=0, note=55, velocity=0, time=26),\n",
      "    Message('note_on', channel=0, note=55, velocity=44, time=5),\n",
      "    Message('note_on', channel=0, note=51, velocity=0, time=110),\n",
      "    Message('note_on', channel=0, note=55, velocity=0, time=0),\n",
      "    Message('note_on', channel=0, note=58, velocity=0, time=0),\n",
      "    Message('note_on', channel=0, note=67, velocity=0, time=0),\n",
      "    Message('note_on', channel=0, note=70, velocity=0, time=0),\n",
      "    Message('note_on', channel=0, note=63, velocity=66, time=2),\n",
      "    Message('note_on', channel=0, note=58, velocity=62, time=3),\n",
      "    Message('note_on', channel=0, note=74, velocity=80, time=1),\n",
      "    Message('note_on', channel=0, note=51, velocity=61, time=0),\n",
      "    Message('note_on', channel=0, note=70, velocity=80, time=0),\n",
      "    Message('note_on', channel=0, note=55, velocity=66, time=2),\n",
      "    Message('note_on', channel=0, note=67, velocity=74, time=3),\n",
      "    Message('note_on', channel=0, note=51, velocity=0, time=151),\n",
      "    Message('note_on', channel=0, note=67, velocity=0, time=0),\n",
      "    Message('note_on', channel=0, note=70, velocity=0, time=0),\n",
      "    Message('note_on', channel=0, note=75, velocity=0, time=0),\n",
      "    Message('note_on', channel=0, note=75, velocity=87, time=4),\n",
      "    Message('note_on', channel=0, note=70, velocity=78, time=4),\n",
      "    Message('note_on', channel=0, note=67, velocity=80, time=1),\n",
      "    Message('note_on', channel=0, note=51, velocity=52, time=2),\n",
      "    Message('note_on', channel=0, note=51, velocity=0, time=58),\n",
      "    Message('note_on', channel=0, note=55, velocity=0, time=0),\n",
      "    Message('note_on', channel=0, note=58, velocity=0, time=0),\n",
      "    Message('note_on', channel=0, note=63, velocity=0, time=0),\n",
      "    Message('note_on', channel=0, note=58, velocity=63, time=4),\n",
      "    Message('note_on', channel=0, note=63, velocity=65, time=0),\n",
      "    Message('note_on', channel=0, note=55, velocity=50, time=2),\n",
      "    Message('note_on', channel=0, note=51, velocity=58, time=4),\n",
      "    Message('note_on', channel=0, note=67, velocity=0, time=74),\n",
      "    Message('note_on', channel=0, note=77, velocity=0, time=0),\n",
      "    Message('note_on', channel=0, note=70, velocity=0, time=8),\n",
      "    Message('note_on', channel=0, note=67, velocity=83, time=3),\n",
      "    Message('note_on', channel=0, note=77, velocity=90, time=0),\n",
      "    Message('note_on', channel=0, note=70, velocity=75, time=6),\n",
      "    Message('note_on', channel=0, note=51, velocity=0, time=175),\n",
      "    Message('note_on', channel=0, note=63, velocity=0, time=0),\n",
      "    Message('note_on', channel=0, note=67, velocity=0, time=0),\n",
      "    Message('note_on', channel=0, note=70, velocity=0, time=0),\n",
      "    Message('note_on', channel=0, note=79, velocity=0, time=0),\n",
      "    Message('note_on', channel=0, note=79, velocity=87, time=5),\n",
      "    Message('note_on', channel=0, note=63, velocity=50, time=1),\n",
      "    Message('note_on', channel=0, note=51, velocity=54, time=1),\n",
      "    Message('note_on', channel=0, note=58, velocity=0, time=1),\n",
      "    Message('note_on', channel=0, note=70, velocity=77, time=3),\n",
      "    Message('note_on', channel=0, note=67, velocity=72, time=0),\n",
      "    Message('note_on', channel=0, note=58, velocity=58, time=1),\n",
      "    Message('note_on', channel=0, note=67, velocity=0, time=203),\n",
      "    Message('note_on', channel=0, note=79, velocity=0, time=0),\n",
      "    Message('note_on', channel=0, note=79, velocity=88, time=7),\n",
      "    Message('note_on', channel=0, note=39, velocity=0, time=1),\n",
      "    Message('note_on', channel=0, note=72, velocity=82, time=3),\n",
      "    Message('note_on', channel=0, note=67, velocity=76, time=0),\n",
      "    Message('note_on', channel=0, note=39, velocity=52, time=2),\n",
      "    Message('note_on', channel=0, note=39, velocity=0, time=133),\n",
      "    Message('note_on', channel=0, note=62, velocity=0, time=4),\n",
      "    Message('note_on', channel=0, note=51, velocity=0, time=0),\n",
      "    Message('note_on', channel=0, note=63, velocity=0, time=0),\n",
      "    Message('note_on', channel=0, note=74, velocity=0, time=0),\n",
      "    Message('note_on', channel=0, note=70, velocity=0, time=1),\n",
      "    Message('note_on', channel=0, note=77, velocity=0, time=0),\n",
      "    Message('note_on', channel=0, note=58, velocity=0, time=0),\n",
      "    Message('note_on', channel=0, note=67, velocity=0, time=3),\n",
      "    Message('note_on', channel=0, note=72, velocity=0, time=0),\n",
      "    Message('note_on', channel=0, note=75, velocity=0, time=0),\n",
      "    Message('note_on', channel=0, note=79, velocity=0, time=0),\n",
      "    Message('note_on', channel=0, note=79, velocity=74, time=8),\n",
      "    Message('control_change', channel=0, control=64, value=0, time=1),\n",
      "    Message('note_on', channel=0, note=67, velocity=80, time=0),\n",
      "    Message('note_on', channel=0, note=72, velocity=76, time=1),\n",
      "    Message('note_on', channel=0, note=75, velocity=75, time=0),\n",
      "    Message('note_on', channel=0, note=68, velocity=77, time=2),\n",
      "    Message('note_on', channel=0, note=55, velocity=0, time=3),\n",
      "    Message('note_on', channel=0, note=44, velocity=80, time=1),\n",
      "    Message('note_on', channel=0, note=32, velocity=74, time=0),\n",
      "    Message('control_change', channel=0, control=64, value=127, time=84),\n",
      "    Message('note_on', channel=0, note=67, velocity=0, time=222),\n",
      "    Message('note_on', channel=0, note=68, velocity=0, time=0),\n",
      "    Message('note_on', channel=0, note=56, velocity=60, time=5),\n",
      "    Message('note_on', channel=0, note=68, velocity=71, time=1),\n",
      "    Message('note_on', channel=0, note=48, velocity=48, time=5),\n",
      "    Message('note_on', channel=0, note=67, velocity=68, time=1),\n",
      "    Message('note_on', channel=0, note=32, velocity=0, time=50),\n",
      "    Message('note_on', channel=0, note=67, velocity=0, time=115),\n",
      "    Message('note_on', channel=0, note=68, velocity=0, time=0),\n",
      "    Message('note_on', channel=0, note=44, velocity=0, time=8),\n",
      "    Message('note_on', channel=0, note=56, velocity=0, time=0),\n",
      "    Message('note_on', channel=0, note=68, velocity=78, time=1),\n",
      "    Message('note_on', channel=0, note=60, velocity=60, time=0),\n",
      "    Message('note_on', channel=0, note=67, velocity=72, time=1),\n",
      "    Message('note_on', channel=0, note=56, velocity=59, time=4),\n",
      "    Message('note_on', channel=0, note=51, velocity=48, time=1),\n",
      "    Message('note_on', channel=0, note=44, velocity=56, time=3),\n",
      "    Message('note_on', channel=0, note=72, velocity=0, time=151),\n",
      "    Message('note_on', channel=0, note=44, velocity=0, time=8),\n",
      "    Message('note_on', channel=0, note=48, velocity=0, time=0),\n",
      "    Message('note_on', channel=0, note=56, velocity=0, time=0),\n",
      "    Message('note_on', channel=0, note=60, velocity=0, time=0),\n",
      "    Message('note_on', channel=0, note=68, velocity=0, time=0),\n",
      "    Message('note_on', channel=0, note=72, velocity=87, time=1),\n",
      "    Message('note_on', channel=0, note=68, velocity=80, time=5),\n",
      "    Message('note_on', channel=0, note=48, velocity=59, time=1),\n",
      "    Message('note_on', channel=0, note=56, velocity=67, time=2),\n",
      "    Message('note_on', channel=0, note=44, velocity=61, time=1),\n",
      "    Message('note_on', channel=0, note=60, velocity=59, time=1),\n",
      "    Message('note_on', channel=0, note=60, velocity=0, time=181),\n",
      "    Message('note_on', channel=0, note=51, velocity=0, time=7),\n",
      "    Message('note_on', channel=0, note=60, velocity=55, time=4),\n",
      "    Message('note_on', channel=0, note=51, velocity=48, time=2),\n",
      "    Message('note_on', channel=0, note=44, velocity=0, time=2),\n",
      "    Message('note_on', channel=0, note=67, velocity=0, time=0),\n",
      "    Message('note_on', channel=0, note=68, velocity=0, time=0),\n",
      "    Message('note_on', channel=0, note=67, velocity=76, time=5),\n",
      "    Message('note_on', channel=0, note=68, velocity=71, time=0),\n",
      "    Message('note_on', channel=0, note=44, velocity=45, time=0),\n",
      "    Message('note_on', channel=0, note=56, velocity=0, time=256),\n",
      "    Message('note_on', channel=0, note=72, velocity=0, time=0),\n",
      "    Message('note_on', channel=0, note=72, velocity=85, time=6),\n",
      "    Message('note_on', channel=0, note=44, velocity=0, time=2),\n",
      "    Message('note_on', channel=0, note=51, velocity=0, time=0),\n",
      "    Message('note_on', channel=0, note=67, velocity=0, time=0),\n",
      "    Message('note_on', channel=0, note=56, velocity=61, time=2),\n",
      "    Message('note_on', channel=0, note=67, velocity=80, time=2),\n",
      "    Message('note_on', channel=0, note=51, velocity=46, time=0),\n",
      "    Message('note_on', channel=0, note=44, velocity=53, time=1),\n",
      "    Message('control_change', channel=0, control=64, value=0, time=159),\n",
      "    Message('note_on', channel=0, note=60, velocity=0, time=1),\n",
      "    Message('note_on', channel=0, note=51, velocity=0, time=0),\n",
      "    Message('note_on', channel=0, note=67, velocity=0, time=0),\n",
      "    Message('note_on', channel=0, note=56, velocity=0, time=1),\n",
      "    Message('note_on', channel=0, note=44, velocity=0, time=0),\n",
      "    Message('note_on', channel=0, note=48, velocity=0, time=18),\n",
      "    Message('note_on', channel=0, note=68, velocity=0, time=0),\n",
      "    Message('note_on', channel=0, note=72, velocity=0, time=0),\n",
      "    Message('note_on', channel=0, note=75, velocity=0, time=0),\n",
      "    Message('note_on', channel=0, note=79, velocity=0, time=0),\n",
      "    Message('note_on', channel=0, note=65, velocity=72, time=7),\n",
      "    Message('note_on', channel=0, note=72, velocity=84, time=1),\n",
      "    Message('note_on', channel=0, note=50, velocity=63, time=2),\n",
      "    Message('note_on', channel=0, note=68, velocity=79, time=1),\n",
      "    Message('note_on', channel=0, note=80, velocity=76, time=1),\n",
      "    Message('control_change', channel=0, control=64, value=127, time=65),\n",
      "    Message('note_on', channel=0, note=50, velocity=0, time=161),\n",
      "    Message('note_on', channel=0, note=72, velocity=0, time=8),\n",
      "    Message('note_on', channel=0, note=50, velocity=56, time=0),\n",
      "    Message('note_on', channel=0, note=68, velocity=0, time=8),\n",
      "    Message('note_on', channel=0, note=56, velocity=61, time=0),\n",
      "    Message('note_on', channel=0, note=72, velocity=63, time=3),\n",
      "    Message('note_on', channel=0, note=68, velocity=69, time=1),\n",
      "    Message('note_on', channel=0, note=56, velocity=0, time=172),\n",
      "    Message('note_on', channel=0, note=65, velocity=0, time=0),\n",
      "    Message('note_on', channel=0, note=68, velocity=0, time=0),\n",
      "    Message('note_on', channel=0, note=72, velocity=0, time=0),\n",
      "    Message('note_on', channel=0, note=60, velocity=59, time=4),\n",
      "    Message('note_on', channel=0, note=56, velocity=59, time=0),\n",
      "    Message('note_on', channel=0, note=72, velocity=62, time=4),\n",
      "    Message('note_on', channel=0, note=53, velocity=49, time=0),\n",
      "    Message('note_on', channel=0, note=68, velocity=70, time=0),\n",
      "    Message('note_on', channel=0, note=65, velocity=66, time=0),\n",
      "    Message('note_on', channel=0, note=77, velocity=89, time=197),\n",
      "    Message('note_on', channel=0, note=56, velocity=0, time=3),\n",
      "    Message('note_on', channel=0, note=68, velocity=0, time=0),\n",
      "    Message('note_on', channel=0, note=72, velocity=0, time=0),\n",
      "    Message('note_on', channel=0, note=72, velocity=73, time=5),\n",
      "    Message('note_on', channel=0, note=53, velocity=0, time=2),\n",
      "    Message('note_on', channel=0, note=65, velocity=0, time=0),\n",
      "    Message('note_on', channel=0, note=56, velocity=62, time=1),\n",
      "    Message('note_on', channel=0, note=68, velocity=70, time=1),\n",
      "    Message('note_on', channel=0, note=53, velocity=51, time=2),\n",
      "    Message('note_on', channel=0, note=65, velocity=61, time=2),\n",
      "    Message('note_on', channel=0, note=50, velocity=0, time=2),\n",
      "    Message('note_on', channel=0, note=50, velocity=50, time=4),\n",
      "    Message('note_on', channel=0, note=50, velocity=0, time=219),\n",
      "    Message('note_on', channel=0, note=56, velocity=0, time=0),\n",
      "    Message('note_on', channel=0, note=60, velocity=0, time=0),\n",
      "    Message('note_on', channel=0, note=72, velocity=0, time=0),\n",
      "    Message('note_on', channel=0, note=56, velocity=53, time=4),\n",
      "    Message('note_on', channel=0, note=53, velocity=0, time=3),\n",
      "    Message('note_on', channel=0, note=65, velocity=0, time=0),\n",
      "    Message('note_on', channel=0, note=68, velocity=0, time=0),\n",
      "    Message('note_on', channel=0, note=60, velocity=48, time=3),\n",
      "    Message('note_on', channel=0, note=50, velocity=40, time=1),\n",
      "    Message('note_on', channel=0, note=72, velocity=64, time=0),\n",
      "    Message('note_on', channel=0, note=68, velocity=66, time=2),\n",
      "    Message('note_on', channel=0, note=65, velocity=59, time=4),\n",
      "    Message('note_on', channel=0, note=53, velocity=42, time=0),\n",
      "    Message('note_on', channel=0, note=50, velocity=0, time=267),\n",
      "    Message('note_on', channel=0, note=65, velocity=0, time=0),\n",
      "    Message('note_on', channel=0, note=68, velocity=0, time=0),\n",
      "    Message('note_on', channel=0, note=72, velocity=0, time=0),\n",
      "    Message('note_on', channel=0, note=75, velocity=90, time=0),\n",
      "    Message('note_on', channel=0, note=56, velocity=0, time=3),\n",
      "    Message('note_on', channel=0, note=72, velocity=77, time=1),\n",
      "    Message('note_on', channel=0, note=53, velocity=0, time=3),\n",
      "    Message('note_on', channel=0, note=68, velocity=71, time=1),\n",
      "    Message('note_on', channel=0, note=50, velocity=47, time=3),\n",
      "    Message('note_on', channel=0, note=65, velocity=58, time=0),\n",
      "    Message('note_on', channel=0, note=53, velocity=53, time=6),\n",
      "    Message('note_on', channel=0, note=60, velocity=0, time=224),\n",
      "    Message('note_on', channel=0, note=53, velocity=0, time=0),\n",
      "    Message('note_on', channel=0, note=77, velocity=0, time=0),\n",
      "    Message('note_on', channel=0, note=50, velocity=0, time=0),\n",
      "    Message('control_change', channel=0, control=64, value=0, time=3),\n",
      "    Message('note_on', channel=0, note=80, velocity=0, time=2),\n",
      "    Message('note_on', channel=0, note=75, velocity=0, time=7),\n",
      "    Message('note_on', channel=0, note=75, velocity=86, time=6),\n",
      "    Message('note_on', channel=0, note=65, velocity=0, time=2),\n",
      "    Message('note_on', channel=0, note=68, velocity=0, time=0),\n",
      "    Message('note_on', channel=0, note=72, velocity=0, time=0),\n",
      "    Message('note_on', channel=0, note=31, velocity=62, time=6),\n",
      "    Message('note_on', channel=0, note=72, velocity=66, time=2),\n",
      "    Message('note_on', channel=0, note=65, velocity=66, time=2),\n",
      "    Message('note_on', channel=0, note=43, velocity=61, time=0),\n",
      "    Message('note_on', channel=0, note=68, velocity=66, time=1),\n",
      "    Message('note_on', channel=0, note=31, velocity=0, time=54),\n",
      "    Message('control_change', channel=0, control=64, value=127, time=27),\n",
      "    Message('note_on', channel=0, note=68, velocity=0, time=207),\n",
      "    Message('note_on', channel=0, note=72, velocity=0, time=0),\n",
      "    Message('note_on', channel=0, note=68, velocity=66, time=8),\n",
      "    Message('note_on', channel=0, note=65, velocity=0, time=0),\n",
      "    Message('note_on', channel=0, note=72, velocity=66, time=4),\n",
      "    Message('note_on', channel=0, note=50, velocity=45, time=0),\n",
      "    Message('note_on', channel=0, note=65, velocity=55, time=1),\n",
      "    Message('note_on', channel=0, note=56, velocity=59, time=1),\n",
      "    Message('note_on', channel=0, note=56, velocity=0, time=178),\n",
      "    Message('note_on', channel=0, note=65, velocity=0, time=0),\n",
      "    Message('note_on', channel=0, note=68, velocity=0, time=0),\n",
      "    Message('note_on', channel=0, note=72, velocity=0, time=0),\n",
      "    Message('note_on', channel=0, note=60, velocity=64, time=7),\n",
      "    Message('note_on', channel=0, note=72, velocity=66, time=1),\n",
      "    Message('note_on', channel=0, note=65, velocity=59, time=3),\n",
      "    Message('note_on', channel=0, note=56, velocity=59, time=1),\n",
      "    Message('note_on', channel=0, note=68, velocity=61, time=0),\n",
      "    Message('note_on', channel=0, note=53, velocity=53, time=1),\n",
      "    Message('note_on', channel=0, note=50, velocity=0, time=156),\n",
      "    Message('note_on', channel=0, note=65, velocity=0, time=0),\n",
      "    Message('note_on', channel=0, note=68, velocity=0, time=3),\n",
      "    Message('note_on', channel=0, note=53, velocity=0, time=1),\n",
      "    Message('note_on', channel=0, note=72, velocity=0, time=0),\n",
      "    Message('note_on', channel=0, note=60, velocity=0, time=0),\n",
      "    Message('note_on', channel=0, note=56, velocity=0, time=0),\n",
      "    Message('note_on', channel=0, note=71, velocity=70, time=1),\n",
      "    Message('control_change', channel=0, control=64, value=0, time=0),\n",
      "    Message('note_on', channel=0, note=75, velocity=0, time=3),\n",
      "    Message('note_on', channel=0, note=59, velocity=57, time=1),\n",
      "    Message('note_on', channel=0, note=50, velocity=53, time=1),\n",
      "    Message('note_on', channel=0, note=65, velocity=67, time=0),\n",
      "    Message('note_on', channel=0, note=55, velocity=59, time=3),\n",
      "    Message('note_on', channel=0, note=67, velocity=65, time=0),\n",
      "    Message('control_change', channel=0, control=64, value=127, time=72),\n",
      "    Message('note_on', channel=0, note=55, velocity=0, time=92),\n",
      "    Message('note_on', channel=0, note=59, velocity=0, time=8),\n",
      "    Message('note_on', channel=0, note=55, velocity=52, time=3),\n",
      "    Message('note_on', channel=0, note=59, velocity=58, time=1),\n",
      "    Message('note_on', channel=0, note=71, velocity=0, time=3),\n",
      "    Message('note_on', channel=0, note=65, velocity=0, time=8),\n",
      "    Message('note_on', channel=0, note=67, velocity=0, time=0),\n",
      "    Message('note_on', channel=0, note=71, velocity=64, time=0),\n",
      "    Message('note_on', channel=0, note=65, velocity=73, time=8),\n",
      "    Message('note_on', channel=0, note=67, velocity=65, time=3),\n",
      "    Message('note_on', channel=0, note=65, velocity=0, time=219),\n",
      "    Message('note_on', channel=0, note=67, velocity=0, time=0),\n",
      "    Message('note_on', channel=0, note=71, velocity=0, time=0),\n",
      "    Message('note_on', channel=0, note=74, velocity=83, time=4),\n",
      "    Message('control_change', channel=0, control=64, value=0, time=3),\n",
      "    Message('note_on', channel=0, note=43, velocity=0, time=1),\n",
      "    Message('note_on', channel=0, note=71, velocity=70, time=1),\n",
      "    Message('note_on', channel=0, note=65, velocity=72, time=1),\n",
      "    Message('note_on', channel=0, note=67, velocity=71, time=1),\n",
      "    Message('note_on', channel=0, note=43, velocity=59, time=1),\n",
      "    Message('note_on', channel=0, note=31, velocity=61, time=0),\n",
      "    Message('note_on', channel=0, note=55, velocity=0, time=4),\n",
      "    Message('control_change', channel=0, control=64, value=127, time=31),\n",
      "    Message('note_on', channel=0, note=50, velocity=0, time=216),\n",
      "    Message('note_on', channel=0, note=74, velocity=0, time=0),\n",
      "    Message('note_on', channel=0, note=43, velocity=0, time=1),\n",
      "    Message('control_change', channel=0, control=64, value=0, time=1),\n",
      "    Message('note_on', channel=0, note=31, velocity=0, time=4),\n",
      "    Message('note_on', channel=0, note=59, velocity=0, time=0),\n",
      "    Message('note_on', channel=0, note=63, velocity=71, time=6),\n",
      "    Message('note_on', channel=0, note=65, velocity=0, time=2),\n",
      "    Message('note_on', channel=0, note=67, velocity=0, time=0),\n",
      "    Message('note_on', channel=0, note=68, velocity=68, time=1),\n",
      "    Message('note_on', channel=0, note=44, velocity=71, time=3),\n",
      "    Message('note_on', channel=0, note=32, velocity=67, time=1),\n",
      "    Message('note_on', channel=0, note=71, velocity=0, time=3),\n",
      "    Message('note_on', channel=0, note=32, velocity=0, time=44),\n",
      "    Message('control_change', channel=0, control=64, value=127, time=25),\n",
      "    Message('note_on', channel=0, note=63, velocity=0, time=199),\n",
      "    Message('note_on', channel=0, note=68, velocity=0, time=0),\n",
      "    Message('note_on', channel=0, note=72, velocity=80, time=6),\n",
      "    Message('note_on', channel=0, note=68, velocity=73, time=5),\n",
      "    Message('note_on', channel=0, note=63, velocity=68, time=1),\n",
      "    Message('note_on', channel=0, note=44, velocity=0, time=65),\n",
      "    Message('note_on', channel=0, note=56, velocity=57, time=5),\n",
      "    Message('note_on', channel=0, note=48, velocity=52, time=1),\n",
      "    Message('note_on', channel=0, note=44, velocity=53, time=3),\n",
      "    Message('note_on', channel=0, note=63, velocity=0, time=106),\n",
      "    Message('note_on', channel=0, note=74, velocity=77, time=4),\n",
      "    Message('note_on', channel=0, note=68, velocity=0, time=4),\n",
      "    Message('note_on', channel=0, note=63, velocity=66, time=4),\n",
      "    Message('note_on', channel=0, note=68, velocity=68, time=0),\n",
      "    Message('note_on', channel=0, note=56, velocity=0, time=11),\n",
      "    Message('note_on', channel=0, note=56, velocity=41, time=5),\n",
      "    Message('note_on', channel=0, note=60, velocity=57, time=97),\n",
      "    Message('note_on', channel=0, note=72, velocity=0, time=21),\n",
      "    Message('note_on', channel=0, note=72, velocity=76, time=7),\n",
      "    Message('note_on', channel=0, note=63, velocity=0, time=1),\n",
      "    Message('note_on', channel=0, note=68, velocity=0, time=8),\n",
      "    Message('note_on', channel=0, note=63, velocity=71, time=1),\n",
      "    Message('note_on', channel=0, note=51, velocity=54, time=1),\n",
      "    Message('note_on', channel=0, note=56, velocity=0, time=5),\n",
      "    Message('note_on', channel=0, note=68, velocity=70, time=3),\n",
      "    Message('note_on', channel=0, note=56, velocity=40, time=3),\n",
      "    Message('note_on', channel=0, note=71, velocity=77, time=138),\n",
      "    Message('note_on', channel=0, note=48, velocity=0, time=2),\n",
      "    Message('note_on', channel=0, note=56, velocity=0, time=0),\n",
      "    Message('note_on', channel=0, note=63, velocity=0, time=0),\n",
      "    Message('note_on', channel=0, note=68, velocity=0, time=0),\n",
      "    Message('note_on', channel=0, note=48, velocity=58, time=4),\n",
      "    Message('note_on', channel=0, note=56, velocity=56, time=1),\n",
      "    Message('note_on', channel=0, note=63, velocity=71, time=0),\n",
      "    Message('note_on', channel=0, note=68, velocity=72, time=5),\n",
      "    Message('note_on', channel=0, note=60, velocity=0, time=121),\n",
      "    Message('note_on', channel=0, note=72, velocity=0, time=8),\n",
      "    Message('note_on', channel=0, note=60, velocity=53, time=0),\n",
      "    Message('note_on', channel=0, note=63, velocity=0, time=7),\n",
      "    Message('note_on', channel=0, note=72, velocity=77, time=2),\n",
      "    Message('note_on', channel=0, note=68, velocity=0, time=6),\n",
      "    Message('note_on', channel=0, note=63, velocity=63, time=3),\n",
      "    Message('note_on', channel=0, note=56, velocity=0, time=5),\n",
      "    Message('note_on', channel=0, note=68, velocity=75, time=0),\n",
      "    Message('note_on', channel=0, note=56, velocity=48, time=5),\n",
      "    Message('note_on', channel=0, note=63, velocity=0, time=140),\n",
      "    Message('note_on', channel=0, note=74, velocity=0, time=0),\n",
      "    Message('note_on', channel=0, note=74, velocity=81, time=7),\n",
      "    Message('note_on', channel=0, note=68, velocity=0, time=1),\n",
      "    Message('note_on', channel=0, note=63, velocity=67, time=4),\n",
      "    Message('note_on', channel=0, note=68, velocity=72, time=2),\n",
      "    Message('note_on', channel=0, note=44, velocity=0, time=79),\n",
      "    Message('note_on', channel=0, note=44, velocity=75, time=11),\n",
      "    Message('note_on', channel=0, note=32, velocity=71, time=1),\n",
      "    Message('note_on', channel=0, note=63, velocity=0, time=80),\n",
      "    Message('note_on', channel=0, note=68, velocity=0, time=7),\n",
      "    Message('note_on', channel=0, note=75, velocity=89, time=2),\n",
      "    Message('note_on', channel=0, note=63, velocity=78, time=2),\n",
      "    Message('note_on', channel=0, note=68, velocity=59, time=2),\n",
      "    Message('note_on', channel=0, note=73, velocity=58, time=3),\n",
      "    Message('note_on', channel=0, note=73, velocity=0, time=7),\n",
      "    Message('note_on', channel=0, note=60, velocity=0, time=207),\n",
      "    Message('control_change', channel=0, control=64, value=0, time=4),\n",
      "    Message('note_on', channel=0, note=67, velocity=88, time=5),\n",
      "    Message('note_on', channel=0, note=60, velocity=76, time=2),\n",
      "    Message('note_on', channel=0, note=55, velocity=84, time=0),\n",
      "    Message('note_on', channel=0, note=71, velocity=0, time=1),\n",
      "    Message('note_on', channel=0, note=68, velocity=0, time=2),\n",
      "    Message('note_on', channel=0, note=75, velocity=0, time=0),\n",
      "    Message('note_on', channel=0, note=48, velocity=0, time=0),\n",
      "    Message('note_on', channel=0, note=39, velocity=77, time=1),\n",
      "    Message('note_on', channel=0, note=56, velocity=0, time=1),\n",
      "    Message('note_on', channel=0, note=74, velocity=0, time=1),\n",
      "    Message('note_on', channel=0, note=27, velocity=89, time=2),\n",
      "    Message('note_on', channel=0, note=32, velocity=0, time=7),\n",
      "    Message('note_on', channel=0, note=44, velocity=0, time=5),\n",
      "    Message('note_on', channel=0, note=72, velocity=0, time=8),\n",
      "    Message('note_on', channel=0, note=27, velocity=0, time=34),\n",
      "    Message('control_change', channel=0, control=64, value=127, time=12),\n",
      "    Message('note_on', channel=0, note=51, velocity=0, time=138),\n",
      "    Message('note_on', channel=0, note=60, velocity=0, time=84),\n",
      "    Message('note_on', channel=0, note=63, velocity=0, time=8),\n",
      "    Message('note_on', channel=0, note=67, velocity=0, time=0),\n",
      "    Message('note_on', channel=0, note=60, velocity=66, time=2),\n",
      "    Message('note_on', channel=0, note=63, velocity=57, time=3),\n",
      "    Message('note_on', channel=0, note=67, velocity=59, time=0),\n",
      "    Message('note_on', channel=0, note=55, velocity=0, time=3),\n",
      "    Message('note_on', channel=0, note=51, velocity=56, time=1),\n",
      "    Message('note_on', channel=0, note=55, velocity=51, time=3),\n",
      "    Message('note_on', channel=0, note=60, velocity=0, time=165),\n",
      "    Message('note_on', channel=0, note=60, velocity=55, time=10),\n",
      "    Message('note_on', channel=0, note=55, velocity=0, time=13),\n",
      "    Message('note_on', channel=0, note=63, velocity=0, time=0),\n",
      "    Message('note_on', channel=0, note=55, velocity=55, time=5),\n",
      "    Message('note_on', channel=0, note=63, velocity=79, time=6),\n",
      "    Message('note_on', channel=0, note=51, velocity=0, time=4),\n",
      "    Message('note_on', channel=0, note=51, velocity=45, time=5),\n",
      "    Message('note_on', channel=0, note=55, velocity=0, time=249),\n",
      "    Message('note_on', channel=0, note=55, velocity=54, time=6),\n",
      "    Message('note_on', channel=0, note=51, velocity=0, time=1),\n",
      "    Message('note_on', channel=0, note=84, velocity=92, time=1),\n",
      "    Message('note_on', channel=0, note=60, velocity=0, time=7),\n",
      "    Message('note_on', channel=0, note=72, velocity=89, time=1),\n",
      "    Message('note_on', channel=0, note=51, velocity=62, time=1),\n",
      "    Message('note_on', channel=0, note=79, velocity=85, time=0),\n",
      "    Message('note_on', channel=0, note=60, velocity=66, time=3),\n",
      "    Message('note_on', channel=0, note=72, velocity=0, time=241),\n",
      "    Message('note_on', channel=0, note=55, velocity=0, time=7),\n",
      "    Message('note_on', channel=0, note=60, velocity=0, time=0),\n",
      "    Message('note_on', channel=0, note=67, velocity=0, time=0),\n",
      "    Message('note_on', channel=0, note=79, velocity=0, time=0),\n",
      "    Message('note_on', channel=0, note=72, velocity=73, time=3),\n",
      "    Message('note_on', channel=0, note=67, velocity=69, time=2),\n",
      "    Message('note_on', channel=0, note=79, velocity=73, time=1),\n",
      "    Message('note_on', channel=0, note=60, velocity=40, time=0),\n",
      "    Message('note_on', channel=0, note=55, velocity=51, time=3),\n",
      "    Message('note_on', channel=0, note=60, velocity=0, time=206),\n",
      "    Message('note_on', channel=0, note=67, velocity=0, time=0),\n",
      "    Message('note_on', channel=0, note=72, velocity=0, time=8),\n",
      "    Message('note_on', channel=0, note=79, velocity=0, time=0),\n",
      "    Message('note_on', channel=0, note=60, velocity=50, time=1),\n",
      "    Message('note_on', channel=0, note=67, velocity=59, time=2),\n",
      "    Message('note_on', channel=0, note=79, velocity=86, time=5),\n",
      "    Message('note_on', channel=0, note=72, velocity=77, time=2),\n",
      "    Message('control_change', channel=0, control=64, value=0, time=231),\n",
      "    Message('note_on', channel=0, note=60, velocity=0, time=1),\n",
      "    Message('note_on', channel=0, note=63, velocity=0, time=0),\n",
      "    Message('note_on', channel=0, note=67, velocity=0, time=1),\n",
      "    Message('note_on', channel=0, note=79, velocity=0, time=0),\n",
      "    Message('note_on', channel=0, note=39, velocity=0, time=3),\n",
      "    Message('note_on', channel=0, note=51, velocity=0, time=15),\n",
      "    Message('note_on', channel=0, note=55, velocity=0, time=0),\n",
      "    Message('note_on', channel=0, note=72, velocity=0, time=8),\n",
      "    Message('note_on', channel=0, note=84, velocity=0, time=0),\n",
      "    Message('note_on', channel=0, note=84, velocity=93, time=8),\n",
      "    Message('note_on', channel=0, note=72, velocity=82, time=3),\n",
      "    Message('note_on', channel=0, note=41, velocity=81, time=2),\n",
      "    Message('note_on', channel=0, note=74, velocity=81, time=1),\n",
      "    Message('note_on', channel=0, note=29, velocity=84, time=3),\n",
      "    Message('control_change', channel=0, control=64, value=127, time=21),\n",
      "    Message('note_on', channel=0, note=72, velocity=0, time=277),\n",
      "    Message('note_on', channel=0, note=74, velocity=0, time=0),\n",
      "    Message('note_on', channel=0, note=84, velocity=0, time=0),\n",
      "    Message('note_on', channel=0, note=83, velocity=92, time=4),\n",
      "    Message('note_on', channel=0, note=72, velocity=81, time=5),\n",
      "    Message('note_on', channel=0, note=84, velocity=84, time=1),\n",
      "    Message('note_on', channel=0, note=74, velocity=80, time=0),\n",
      "    Message('note_on', channel=0, note=67, velocity=67, time=2),\n",
      "    Message('note_on', channel=0, note=67, velocity=0, time=11),\n",
      "    Message('note_on', channel=0, note=53, velocity=42, time=28),\n",
      "    Message('note_on', channel=0, note=62, velocity=47, time=4),\n",
      "    Message('note_on', channel=0, note=72, velocity=0, time=144),\n",
      "    Message('note_on', channel=0, note=74, velocity=0, time=0),\n",
      "    Message('note_on', channel=0, note=82, velocity=94, time=4),\n",
      "    Message('note_on', channel=0, note=72, velocity=87, time=1),\n",
      "    Message('note_on', channel=0, note=74, velocity=82, time=0),\n",
      "    Message('note_on', channel=0, note=70, velocity=74, time=2),\n",
      "    Message('note_on', channel=0, note=62, velocity=0, time=1),\n",
      "    Message('note_on', channel=0, note=60, velocity=55, time=4),\n",
      "    Message('note_on', channel=0, note=62, velocity=61, time=0),\n",
      "    Message('note_on', channel=0, note=70, velocity=0, time=4),\n",
      "    Message('note_on', channel=0, note=68, velocity=61, time=122),\n",
      "    Message('note_on', channel=0, note=60, velocity=0, time=1),\n",
      "    Message('note_on', channel=0, note=60, velocity=57, time=8),\n",
      "    Message('note_on', channel=0, note=74, velocity=0, time=30),\n",
      "    Message('note_on', channel=0, note=81, velocity=91, time=3),\n",
      "    Message('note_on', channel=0, note=74, velocity=84, time=6),\n",
      "    Message('note_on', channel=0, note=84, velocity=0, time=152),\n",
      "    Message('note_on', channel=0, note=68, velocity=0, time=8),\n",
      "    Message('note_on', channel=0, note=72, velocity=0, time=0),\n",
      "    Message('note_on', channel=0, note=84, velocity=78, time=2),\n",
      "    Message('note_on', channel=0, note=80, velocity=88, time=1),\n",
      "    Message('note_on', channel=0, note=72, velocity=87, time=1),\n",
      "    Message('note_on', channel=0, note=62, velocity=0, time=4),\n",
      "    Message('note_on', channel=0, note=68, velocity=68, time=0),\n",
      "    Message('note_on', channel=0, note=53, velocity=0, time=7),\n",
      "    Message('note_on', channel=0, note=62, velocity=66, time=0),\n",
      "    Message('note_on', channel=0, note=53, velocity=54, time=10),\n",
      "    Message('note_on', channel=0, note=84, velocity=0, time=144),\n",
      "    Message('note_on', channel=0, note=77, velocity=86, time=7),\n",
      "    Message('note_on', channel=0, note=72, velocity=0, time=1),\n",
      "    Message('note_on', channel=0, note=84, velocity=69, time=3),\n",
      "    Message('note_on', channel=0, note=72, velocity=72, time=4),\n",
      "    Message('note_on', channel=0, note=68, velocity=0, time=0),\n",
      "    Message('note_on', channel=0, note=68, velocity=68, time=4),\n",
      "    Message('note_on', channel=0, note=62, velocity=0, time=73),\n",
      "    Message('note_on', channel=0, note=62, velocity=58, time=4),\n",
      "    Message('note_on', channel=0, note=60, velocity=0, time=12),\n",
      "    Message('note_on', channel=0, note=60, velocity=53, time=3),\n",
      "    Message('note_on', channel=0, note=72, velocity=0, time=58),\n",
      "    Message('note_on', channel=0, note=60, velocity=0, time=8),\n",
      "    Message('note_on', channel=0, note=68, velocity=0, time=0),\n",
      "    Message('note_on', channel=0, note=72, velocity=81, time=3),\n",
      "    Message('note_on', channel=0, note=68, velocity=72, time=2),\n",
      "    Message('note_on', channel=0, note=65, velocity=73, time=1),\n",
      "    Message('note_on', channel=0, note=53, velocity=0, time=1),\n",
      "    Message('note_on', channel=0, note=56, velocity=60, time=2),\n",
      "    Message('note_on', channel=0, note=60, velocity=54, time=1),\n",
      "    Message('note_on', channel=0, note=53, velocity=53, time=9),\n",
      "    Message('note_on', channel=0, note=56, velocity=0, time=80),\n",
      "    Message('note_on', channel=0, note=56, velocity=50, time=10),\n",
      "    Message('note_on', channel=0, note=74, velocity=0, time=60),\n",
      "    Message('note_on', channel=0, note=65, velocity=0, time=7),\n",
      "    Message('note_on', channel=0, note=74, velocity=89, time=3),\n",
      "    Message('note_on', channel=0, note=65, velocity=73, time=3),\n",
      "    Message('note_on', channel=0, note=72, velocity=0, time=2),\n",
      "    Message('note_on', channel=0, note=72, velocity=61, time=5),\n",
      "    Message('note_on', channel=0, note=83, velocity=0, time=153),\n",
      "    Message('note_on', channel=0, note=82, velocity=0, time=1),\n",
      "    Message('note_on', channel=0, note=84, velocity=0, time=1),\n",
      "    Message('note_on', channel=0, note=56, velocity=0, time=1),\n",
      "    Message('note_on', channel=0, note=68, velocity=0, time=1),\n",
      "    Message('note_on', channel=0, note=62, velocity=0, time=0),\n",
      "    Message('note_on', channel=0, note=60, velocity=0, time=0),\n",
      "    Message('note_on', channel=0, note=53, velocity=0, time=0),\n",
      "    Message('note_on', channel=0, note=74, velocity=0, time=0),\n",
      "    Message('note_on', channel=0, note=77, velocity=0, time=0),\n",
      "    Message('note_on', channel=0, note=80, velocity=0, time=1),\n",
      "    Message('note_on', channel=0, note=81, velocity=0, time=0),\n",
      "    Message('note_on', channel=0, note=65, velocity=0, time=0),\n",
      "    Message('control_change', channel=0, control=64, value=0, time=1),\n",
      "    Message('note_on', channel=0, note=76, velocity=82, time=1),\n",
      "    Message('note_on', channel=0, note=29, velocity=0, time=4),\n",
      "    Message('note_on', channel=0, note=72, velocity=0, time=0),\n",
      "    Message('note_on', channel=0, note=64, velocity=81, time=4),\n",
      "    Message('note_on', channel=0, note=72, velocity=76, time=0),\n",
      "    Message('note_on', channel=0, note=41, velocity=0, time=4),\n",
      "    Message('note_on', channel=0, note=43, velocity=82, time=0),\n",
      "    Message('note_on', channel=0, note=31, velocity=77, time=2),\n",
      "    Message('note_on', channel=0, note=70, velocity=77, time=1),\n",
      "    Message('note_on', channel=0, note=31, velocity=0, time=40),\n",
      "    Message('control_change', channel=0, control=64, value=127, time=18),\n",
      "    Message('note_on', channel=0, note=70, velocity=0, time=154),\n",
      "    Message('note_on', channel=0, note=72, velocity=0, time=0),\n",
      "    Message('note_on', channel=0, note=77, velocity=85, time=8),\n",
      "    Message('note_on', channel=0, note=72, velocity=81, time=1),\n",
      "    Message('note_on', channel=0, note=65, velocity=73, time=1),\n",
      "    Message('note_on', channel=0, note=70, velocity=79, time=1),\n",
      "    Message('note_on', channel=0, note=55, velocity=48, time=73),\n",
      "    Message('note_on', channel=0, note=60, velocity=64, time=4),\n",
      "    Message('note_on', channel=0, note=76, velocity=0, time=88),\n",
      "    Message('note_on', channel=0, note=60, velocity=0, time=8),\n",
      "    Message('note_on', channel=0, note=64, velocity=0, time=0),\n",
      "    Message('note_on', channel=0, note=70, velocity=0, time=0),\n",
      "    Message('note_on', channel=0, note=72, velocity=0, time=0),\n",
      "    Message('note_on', channel=0, note=76, velocity=83, time=3),\n",
      "    Message('note_on', channel=0, note=70, velocity=82, time=1),\n",
      "    Message('note_on', channel=0, note=64, velocity=73, time=4),\n",
      "    Message('note_on', channel=0, note=72, velocity=80, time=1),\n",
      "    Message('note_on', channel=0, note=60, velocity=57, time=1),\n",
      "    Message('note_on', channel=0, note=65, velocity=0, time=5),\n",
      "    Message('note_on', channel=0, note=65, velocity=64, time=7),\n",
      "    Message('note_on', channel=0, note=72, velocity=0, time=124),\n",
      "    Message('note_on', channel=0, note=72, velocity=74, time=4),\n",
      "    Message('note_on', channel=0, note=74, velocity=80, time=2),\n",
      "    Message('note_on', channel=0, note=62, velocity=78, time=1),\n",
      "    Message('note_on', channel=0, note=70, velocity=0, time=1),\n",
      "    Message('note_on', channel=0, note=70, velocity=81, time=7),\n",
      "    Message('note_on', channel=0, note=58, velocity=62, time=2),\n",
      "    Message('note_on', channel=0, note=65, velocity=0, time=6),\n",
      "    Message('note_on', channel=0, note=65, velocity=57, time=5),\n",
      "    Message('note_on', channel=0, note=64, velocity=0, time=3),\n",
      "    Message('note_on', channel=0, note=64, velocity=57, time=4),\n",
      "    Message('note_on', channel=0, note=76, velocity=0, time=118),\n",
      "    Message('note_on', channel=0, note=76, velocity=84, time=7),\n",
      "    Message('note_on', channel=0, note=55, velocity=0, time=1),\n",
      "    Message('note_on', channel=0, note=60, velocity=0, time=0),\n",
      "    Message('note_on', channel=0, note=64, velocity=0, time=0),\n",
      "    Message('note_on', channel=0, note=70, velocity=0, time=0),\n",
      "    Message('note_on', channel=0, note=72, velocity=0, time=0),\n",
      "    Message('note_on', channel=0, note=64, velocity=70, time=4),\n",
      "    Message('note_on', channel=0, note=72, velocity=72, time=1),\n",
      "    Message('note_on', channel=0, note=70, velocity=76, time=0),\n",
      "    Message('note_on', channel=0, note=60, velocity=66, time=0),\n",
      "    Message('note_on', channel=0, note=55, velocity=61, time=7),\n",
      "    Message('note_on', channel=0, note=73, velocity=68, time=0),\n",
      "    Message('note_on', channel=0, note=65, velocity=0, time=142),\n",
      "    Message('note_on', channel=0, note=77, velocity=0, time=0),\n",
      "    Message('note_on', channel=0, note=77, velocity=90, time=4),\n",
      "    Message('note_on', channel=0, note=65, velocity=56, time=2),\n",
      "    Message('note_on', channel=0, note=72, velocity=0, time=1),\n",
      "    Message('note_on', channel=0, note=72, velocity=69, time=7),\n",
      "    Message('note_on', channel=0, note=70, velocity=0, time=40),\n",
      "    Message('note_on', channel=0, note=67, velocity=62, time=3),\n",
      "    Message('note_on', channel=0, note=70, velocity=66, time=6),\n",
      "    Message('note_on', channel=0, note=80, velocity=93, time=110),\n",
      "    Message('note_on', channel=0, note=72, velocity=0, time=3),\n",
      "    Message('note_on', channel=0, note=76, velocity=0, time=0),\n",
      "    Message('note_on', channel=0, note=75, velocity=72, time=3),\n",
      "    Message('note_on', channel=0, note=72, velocity=81, time=3),\n",
      "    Message('note_on', channel=0, note=76, velocity=71, time=1),\n",
      "    Message('note_on', channel=0, note=75, velocity=0, time=1),\n",
      "    Message('note_on', channel=0, note=55, velocity=0, time=8),\n",
      "    Message('note_on', channel=0, note=70, velocity=0, time=0),\n",
      "    Message('note_on', channel=0, note=70, velocity=63, time=7),\n",
      "    Message('note_on', channel=0, note=55, velocity=55, time=1),\n",
      "    Message('note_on', channel=0, note=79, velocity=90, time=159),\n",
      "    Message('note_on', channel=0, note=70, velocity=0, time=2),\n",
      "    Message('note_on', channel=0, note=70, velocity=73, time=4),\n",
      "    Message('note_on', channel=0, note=75, velocity=51, time=19),\n",
      "    Message('note_on', channel=0, note=72, velocity=0, time=138),\n",
      "    Message('note_on', channel=0, note=43, velocity=0, time=8),\n",
      "    Message('note_on', channel=0, note=65, velocity=0, time=0),\n",
      "    Message('note_on', channel=0, note=77, velocity=0, time=0),\n",
      "    Message('note_on', channel=0, note=72, velocity=87, time=2),\n",
      "    Message('note_on', channel=0, note=64, velocity=0, time=1),\n",
      "    Message('note_on', channel=0, note=76, velocity=0, time=1),\n",
      "    Message('note_on', channel=0, note=55, velocity=0, time=0),\n",
      "    Message('note_on', channel=0, note=60, velocity=0, time=0),\n",
      "    Message('note_on', channel=0, note=62, velocity=0, time=0),\n",
      "    Message('note_on', channel=0, note=74, velocity=0, time=0),\n",
      "    Message('note_on', channel=0, note=58, velocity=0, time=0),\n",
      "    Message('note_on', channel=0, note=65, velocity=70, time=0),\n",
      "    Message('note_on', channel=0, note=77, velocity=72, time=0),\n",
      "    Message('note_on', channel=0, note=67, velocity=0, time=0),\n",
      "    Message('note_on', channel=0, note=70, velocity=0, time=0),\n",
      "    Message('note_on', channel=0, note=44, velocity=80, time=0),\n",
      "    Message('note_on', channel=0, note=32, velocity=80, time=0),\n",
      "    Message('note_on', channel=0, note=80, velocity=0, time=1),\n",
      "    Message('note_on', channel=0, note=75, velocity=0, time=0),\n",
      "    Message('control_change', channel=0, control=64, value=0, time=1),\n",
      "    Message('note_on', channel=0, note=73, velocity=0, time=9),\n",
      "    Message('note_on', channel=0, note=79, velocity=0, time=8),\n",
      "    Message('note_on', channel=0, note=32, velocity=0, time=36),\n",
      "    Message('control_change', channel=0, control=64, value=127, time=2),\n",
      "    Message('note_on', channel=0, note=65, velocity=0, time=146),\n",
      "    Message('note_on', channel=0, note=72, velocity=0, time=0),\n",
      "    Message('note_on', channel=0, note=77, velocity=0, time=0),\n",
      "    Message('note_on', channel=0, note=72, velocity=79, time=4),\n",
      "    Message('note_on', channel=0, note=76, velocity=78, time=1),\n",
      "    Message('note_on', channel=0, note=77, velocity=75, time=1),\n",
      "    Message('note_on', channel=0, note=65, velocity=74, time=1),\n",
      "    Message('note_on', channel=0, note=60, velocity=63, time=92),\n",
      "    Message('note_on', channel=0, note=53, velocity=51, time=3),\n",
      "    Message('note_on', channel=0, note=72, velocity=0, time=75),\n",
      "    Message('note_on', channel=0, note=77, velocity=0, time=0),\n",
      "    Message('note_on', channel=0, note=77, velocity=87, time=10),\n",
      "    Message('note_on', channel=0, note=72, velocity=88, time=1),\n",
      "    Message('note_on', channel=0, note=60, velocity=0, time=104),\n",
      "    Message('note_on', channel=0, note=65, velocity=0, time=0),\n",
      "    Message('note_on', channel=0, note=60, velocity=51, time=10),\n",
      "    Message('note_on', channel=0, note=65, velocity=61, time=1),\n",
      "    Message('note_on', channel=0, note=79, velocity=89, time=49),\n",
      "    Message('note_on', channel=0, note=72, velocity=0, time=1),\n",
      "    Message('note_on', channel=0, note=72, velocity=86, time=5),\n",
      "    Message('note_on', channel=0, note=82, velocity=92, time=160),\n",
      "    Message('note_on', channel=0, note=53, velocity=0, time=4),\n",
      "    Message('note_on', channel=0, note=74, velocity=77, time=3),\n",
      "    Message('note_on', channel=0, note=53, velocity=65, time=2),\n",
      "    Message('note_on', channel=0, note=62, velocity=68, time=0),\n",
      "    Message('note_on', channel=0, note=72, velocity=0, time=172),\n",
      "    Message('note_on', channel=0, note=74, velocity=0, time=0),\n",
      "    Message('note_on', channel=0, note=80, velocity=85, time=3),\n",
      "    Message('note_on', channel=0, note=72, velocity=84, time=1),\n",
      "    Message('note_on', channel=0, note=68, velocity=74, time=0),\n",
      "    Message('note_on', channel=0, note=74, velocity=79, time=2),\n",
      "    Message('note_on', channel=0, note=60, velocity=0, time=55),\n",
      "    Message('note_on', channel=0, note=68, velocity=0, time=0),\n",
      "    Message('note_on', channel=0, note=68, velocity=65, time=6),\n",
      "    Message('note_on', channel=0, note=60, velocity=64, time=0),\n",
      "    Message('note_on', channel=0, note=72, velocity=0, time=117),\n",
      "    Message('note_on', channel=0, note=77, velocity=0, time=0),\n",
      "    Message('note_on', channel=0, note=79, velocity=0, time=0),\n",
      "    Message('note_on', channel=0, note=65, velocity=0, time=8),\n",
      "    Message('note_on', channel=0, note=72, velocity=95, time=1),\n",
      "    Message('note_on', channel=0, note=79, velocity=74, time=2),\n",
      "    Message('note_on', channel=0, note=77, velocity=73, time=0),\n",
      "    Message('note_on', channel=0, note=65, velocity=65, time=8),\n",
      "    Message('note_on', channel=0, note=67, velocity=59, time=1),\n",
      "    Message('note_on', channel=0, note=72, velocity=0, time=157),\n",
      "    Message('note_on', channel=0, note=74, velocity=0, time=0),\n",
      "    Message('note_on', channel=0, note=77, velocity=0, time=0),\n",
      "    Message('note_on', channel=0, note=72, velocity=87, time=7),\n",
      "    Message('note_on', channel=0, note=65, velocity=0, time=1),\n",
      "    Message('note_on', channel=0, note=77, velocity=75, time=1),\n",
      "    Message('note_on', channel=0, note=74, velocity=82, time=2),\n",
      "    Message('note_on', channel=0, note=53, velocity=0, time=1),\n",
      "    Message('note_on', channel=0, note=65, velocity=73, time=1),\n",
      "    Message('note_on', channel=0, note=44, velocity=0, time=2),\n",
      "    Message('note_on', channel=0, note=44, velocity=67, time=9),\n",
      "    Message('note_on', channel=0, note=32, velocity=69, time=0),\n",
      "    Message('note_on', channel=0, note=67, velocity=0, time=199),\n",
      "    Message('note_on', channel=0, note=72, velocity=0, time=0),\n",
      "    Message('control_change', channel=0, control=64, value=0, time=4),\n",
      "    Message('note_on', channel=0, note=75, velocity=88, time=1),\n",
      "    Message('note_on', channel=0, note=82, velocity=0, time=1),\n",
      "    Message('note_on', channel=0, note=68, velocity=0, time=2),\n",
      "    Message('note_on', channel=0, note=65, velocity=0, time=1),\n",
      "    Message('note_on', channel=0, note=80, velocity=0, time=0),\n",
      "    Message('note_on', channel=0, note=44, velocity=0, time=0),\n",
      "    Message('note_on', channel=0, note=79, velocity=0, time=0),\n",
      "    Message('note_on', channel=0, note=72, velocity=75, time=0),\n",
      "    Message('note_on', channel=0, note=77, velocity=0, time=0),\n",
      "    Message('note_on', channel=0, note=67, velocity=71, time=1),\n",
      "    Message('note_on', channel=0, note=76, velocity=0, time=0),\n",
      "    Message('note_on', channel=0, note=32, velocity=0, time=2),\n",
      "    Message('note_on', channel=0, note=63, velocity=76, time=0),\n",
      "    Message('note_on', channel=0, note=43, velocity=81, time=2),\n",
      "    Message('note_on', channel=0, note=31, velocity=80, time=3),\n",
      "    Message('note_on', channel=0, note=62, velocity=0, time=6),\n",
      "    Message('note_on', channel=0, note=74, velocity=0, time=7),\n",
      "    Message('note_on', channel=0, note=60, velocity=0, time=8),\n",
      "    Message('control_change', channel=0, control=64, value=127, time=61),\n",
      "    Message('note_on', channel=0, note=31, velocity=0, time=108),\n",
      "    Message('note_on', channel=0, note=43, velocity=0, time=154),\n",
      "    Message('note_on', channel=0, note=63, velocity=0, time=0),\n",
      "    Message('note_on', channel=0, note=67, velocity=0, time=0),\n",
      "    Message('note_on', channel=0, note=72, velocity=0, time=0),\n",
      "    Message('note_on', channel=0, note=72, velocity=71, time=6),\n",
      "    Message('note_on', channel=0, note=48, velocity=60, time=2),\n",
      "    Message('note_on', channel=0, note=55, velocity=60, time=0),\n",
      "    Message('note_on', channel=0, note=43, velocity=53, time=0),\n",
      "    Message('note_on', channel=0, note=63, velocity=65, time=1),\n",
      "    Message('note_on', channel=0, note=67, velocity=65, time=0),\n",
      "    Message('note_on', channel=0, note=43, velocity=0, time=221),\n",
      "    Message('note_on', channel=0, note=55, velocity=0, time=0),\n",
      "    Message('note_on', channel=0, note=63, velocity=0, time=0),\n",
      "    Message('note_on', channel=0, note=67, velocity=0, time=0),\n",
      "    Message('note_on', channel=0, note=72, velocity=0, time=0),\n",
      "    Message('note_on', channel=0, note=72, velocity=71, time=8),\n",
      "    Message('note_on', channel=0, note=67, velocity=63, time=2),\n",
      "    Message('note_on', channel=0, note=43, velocity=50, time=1),\n",
      "    Message('note_on', channel=0, note=60, velocity=64, time=0),\n",
      "    Message('note_on', channel=0, note=55, velocity=60, time=0),\n",
      "    Message('note_on', channel=0, note=63, velocity=66, time=0),\n",
      "    Message('note_on', channel=0, note=31, velocity=52, time=1),\n",
      "    Message('note_on', channel=0, note=31, velocity=0, time=11),\n",
      "    Message('note_on', channel=0, note=43, velocity=0, time=177),\n",
      "    Message('note_on', channel=0, note=48, velocity=0, time=0),\n",
      "    Message('note_on', channel=0, note=55, velocity=0, time=0),\n",
      "    Message('note_on', channel=0, note=60, velocity=0, time=0),\n",
      "    Message('note_on', channel=0, note=63, velocity=0, time=0),\n",
      "    Message('note_on', channel=0, note=67, velocity=0, time=0),\n",
      "    Message('note_on', channel=0, note=55, velocity=70, time=5),\n",
      "    Message('note_on', channel=0, note=48, velocity=63, time=3),\n",
      "    Message('note_on', channel=0, note=60, velocity=60, time=1),\n",
      "    Message('note_on', channel=0, note=63, velocity=69, time=0),\n",
      "    Message('note_on', channel=0, note=43, velocity=56, time=1),\n",
      "    Message('note_on', channel=0, note=67, velocity=69, time=0),\n",
      "    Message('note_on', channel=0, note=43, velocity=0, time=220),\n",
      "    Message('note_on', channel=0, note=55, velocity=0, time=0),\n",
      "    Message('note_on', channel=0, note=72, velocity=0, time=0),\n",
      "    Message('note_on', channel=0, note=72, velocity=70, time=6),\n",
      "    Message('note_on', channel=0, note=60, velocity=0, time=2),\n",
      "    Message('note_on', channel=0, note=63, velocity=0, time=0),\n",
      "    Message('note_on', channel=0, note=67, velocity=0, time=0),\n",
      "    Message('note_on', channel=0, note=43, velocity=54, time=3),\n",
      "    Message('note_on', channel=0, note=55, velocity=67, time=0),\n",
      "    Message('note_on', channel=0, note=60, velocity=66, time=1),\n",
      "    Message('note_on', channel=0, note=67, velocity=69, time=0),\n",
      "    Message('note_on', channel=0, note=63, velocity=67, time=0),\n",
      "    Message('note_on', channel=0, note=63, velocity=0, time=280),\n",
      "    Message('note_on', channel=0, note=67, velocity=0, time=0),\n",
      "    Message('note_on', channel=0, note=72, velocity=0, time=0),\n",
      "    Message('note_on', channel=0, note=72, velocity=89, time=5),\n",
      "    Message('note_on', channel=0, note=55, velocity=0, time=3),\n",
      "    Message('note_on', channel=0, note=63, velocity=82, time=0),\n",
      "    Message('note_on', channel=0, note=67, velocity=71, time=3),\n",
      "    Message('note_on', channel=0, note=55, velocity=65, time=0),\n",
      "    Message('note_on', channel=0, note=63, velocity=0, time=119),\n",
      "    Message('note_on', channel=0, note=67, velocity=0, time=0),\n",
      "    Message('note_on', channel=0, note=74, velocity=81, time=6),\n",
      "    Message('note_on', channel=0, note=63, velocity=73, time=1),\n",
      "    Message('note_on', channel=0, note=67, velocity=65, time=4),\n",
      "    Message('note_on', channel=0, note=63, velocity=0, time=105),\n",
      "    Message('note_on', channel=0, note=67, velocity=0, time=0),\n",
      "    Message('note_on', channel=0, note=72, velocity=0, time=0),\n",
      "    Message('note_on', channel=0, note=72, velocity=78, time=6),\n",
      "    Message('note_on', channel=0, note=63, velocity=66, time=0),\n",
      "    Message('note_on', channel=0, note=67, velocity=65, time=4),\n",
      "    Message('note_on', channel=0, note=55, velocity=0, time=5),\n",
      "    Message('note_on', channel=0, note=55, velocity=57, time=11),\n",
      "    Message('note_on', channel=0, note=60, velocity=0, time=127),\n",
      "    Message('note_on', channel=0, note=67, velocity=0, time=0),\n",
      "    Message('note_on', channel=0, note=67, velocity=82, time=7),\n",
      "    Message('note_on', channel=0, note=43, velocity=0, time=1),\n",
      "    Message('note_on', channel=0, note=60, velocity=80, time=2),\n",
      "    Message('note_on', channel=0, note=62, velocity=79, time=2),\n",
      "    Message('note_on', channel=0, note=43, velocity=88, time=0),\n",
      "    Message('note_on', channel=0, note=31, velocity=87, time=1),\n",
      "    Message('note_on', channel=0, note=63, velocity=0, time=27),\n",
      "    Message('control_change', channel=0, control=64, value=0, time=0),\n",
      "    Message('note_on', channel=0, note=55, velocity=0, time=3),\n",
      "    Message('note_on', channel=0, note=72, velocity=0, time=1),\n",
      "    Message('note_on', channel=0, note=74, velocity=0, time=0),\n",
      "    Message('note_on', channel=0, note=48, velocity=0, time=2),\n",
      "    Message('note_on', channel=0, note=75, velocity=0, time=2),\n",
      "    Message('control_change', channel=0, control=64, value=127, time=83),\n",
      "    Message('note_on', channel=0, note=31, velocity=0, time=184),\n",
      "    Message('note_on', channel=0, note=43, velocity=0, time=8),\n",
      "    Message('note_on', channel=0, note=62, velocity=0, time=0),\n",
      "    Message('note_on', channel=0, note=43, velocity=71, time=7),\n",
      "    Message('note_on', channel=0, note=50, velocity=68, time=1),\n",
      "    Message('note_on', channel=0, note=31, velocity=70, time=1),\n",
      "    Message('note_on', channel=0, note=55, velocity=66, time=1),\n",
      "    Message('note_on', channel=0, note=62, velocity=69, time=1),\n",
      "    Message('note_on', channel=0, note=59, velocity=69, time=0),\n",
      "    Message('note_on', channel=0, note=31, velocity=0, time=2),\n",
      "    Message('note_on', channel=0, note=59, velocity=0, time=2),\n",
      "    Message('note_on', channel=0, note=55, velocity=0, time=231),\n",
      "    Message('note_on', channel=0, note=60, velocity=0, time=0),\n",
      "    Message('note_on', channel=0, note=62, velocity=0, time=0),\n",
      "    Message('note_on', channel=0, note=50, velocity=0, time=7),\n",
      "    Message('note_on', channel=0, note=62, velocity=71, time=1),\n",
      "    Message('note_on', channel=0, note=60, velocity=69, time=0),\n",
      "    Message('note_on', channel=0, note=55, velocity=66, time=3),\n",
      "    Message('note_on', channel=0, note=50, velocity=68, time=0),\n",
      "    Message('note_on', channel=0, note=43, velocity=0, time=204),\n",
      "    Message('note_on', channel=0, note=50, velocity=0, time=0),\n",
      "    Message('note_on', channel=0, note=62, velocity=0, time=0),\n",
      "    Message('note_on', channel=0, note=59, velocity=76, time=6),\n",
      "    Message('note_on', channel=0, note=62, velocity=74, time=1),\n",
      "    Message('note_on', channel=0, note=55, velocity=0, time=0),\n",
      "    Message('note_on', channel=0, note=43, velocity=73, time=1),\n",
      "    Message('note_on', channel=0, note=50, velocity=68, time=1),\n",
      "    Message('note_on', channel=0, note=31, velocity=70, time=2),\n",
      "    Message('note_on', channel=0, note=55, velocity=67, time=1),\n",
      "    Message('note_on', channel=0, note=31, velocity=0, time=11),\n",
      "    Message('control_change', channel=0, control=64, value=0, time=5),\n",
      "    Message('note_on', channel=0, note=60, velocity=0, time=11),\n",
      "    Message('control_change', channel=0, control=64, value=127, time=60),\n",
      "    Message('note_on', channel=0, note=50, velocity=0, time=162),\n",
      "    Message('note_on', channel=0, note=43, velocity=0, time=7),\n",
      "    Message('note_on', channel=0, note=55, velocity=0, time=0),\n",
      "    Message('note_on', channel=0, note=59, velocity=0, time=0),\n",
      "    Message('note_on', channel=0, note=62, velocity=0, time=0),\n",
      "    Message('note_on', channel=0, note=50, velocity=66, time=4),\n",
      "    Message('note_on', channel=0, note=59, velocity=75, time=0),\n",
      "    Message('note_on', channel=0, note=62, velocity=74, time=1),\n",
      "    Message('note_on', channel=0, note=55, velocity=64, time=2),\n",
      "    Message('note_on', channel=0, note=43, velocity=63, time=1),\n",
      "    Message('note_on', channel=0, note=31, velocity=64, time=1),\n",
      "    Message('note_on', channel=0, note=31, velocity=0, time=7),\n",
      "    Message('control_change', channel=0, control=64, value=0, time=290),\n",
      "    Message('note_on', channel=0, note=59, velocity=0, time=2),\n",
      "    Message('note_on', channel=0, note=67, velocity=0, time=7),\n",
      "    Message('note_on', channel=0, note=59, velocity=81, time=4),\n",
      "    Message('note_on', channel=0, note=62, velocity=0, time=4),\n",
      "    Message('note_on', channel=0, note=67, velocity=83, time=3),\n",
      "    Message('note_on', channel=0, note=62, velocity=83, time=1),\n",
      "    Message('note_on', channel=0, note=43, velocity=0, time=4),\n",
      "    Message('note_on', channel=0, note=31, velocity=71, time=6),\n",
      "    Message('note_on', channel=0, note=43, velocity=70, time=4),\n",
      "    Message('control_change', channel=0, control=64, value=127, time=20),\n",
      "    Message('note_on', channel=0, note=43, velocity=0, time=131),\n",
      "    Message('note_on', channel=0, note=59, velocity=0, time=0),\n",
      "    Message('note_on', channel=0, note=62, velocity=0, time=0),\n",
      "    Message('note_on', channel=0, note=68, velocity=84, time=4),\n",
      "    Message('note_on', channel=0, note=62, velocity=76, time=3),\n",
      "    Message('note_on', channel=0, note=59, velocity=77, time=2),\n",
      "    Message('note_on', channel=0, note=43, velocity=68, time=1),\n",
      "    Message('note_on', channel=0, note=55, velocity=0, time=151),\n",
      "    Message('note_on', channel=0, note=59, velocity=0, time=0),\n",
      "    Message('note_on', channel=0, note=62, velocity=0, time=0),\n",
      "    Message('note_on', channel=0, note=67, velocity=0, time=0),\n",
      "    Message('note_on', channel=0, note=67, velocity=82, time=5),\n",
      "    Message('note_on', channel=0, note=59, velocity=77, time=1),\n",
      "    Message('note_on', channel=0, note=62, velocity=73, time=1),\n",
      "    Message('note_on', channel=0, note=55, velocity=62, time=1),\n",
      "    Message('note_on', channel=0, note=60, velocity=89, time=220),\n",
      "    Message('note_on', channel=0, note=51, velocity=82, time=9),\n",
      "    Message('note_on', channel=0, note=42, velocity=90, time=5),\n",
      "    Message('note_on', channel=0, note=30, velocity=90, time=0),\n",
      "    Message('note_on', channel=0, note=43, velocity=0, time=39),\n",
      "    Message('note_on', channel=0, note=67, velocity=0, time=1),\n",
      "    Message('note_on', channel=0, note=62, velocity=0, time=1),\n",
      "    Message('note_on', channel=0, note=55, velocity=0, time=1),\n",
      "    Message('note_on', channel=0, note=59, velocity=0, time=1),\n",
      "    Message('note_on', channel=0, note=68, velocity=0, time=0),\n",
      "    Message('control_change', channel=0, control=64, value=0, time=2),\n",
      "    Message('note_on', channel=0, note=31, velocity=0, time=5),\n",
      "    Message('note_on', channel=0, note=50, velocity=0, time=0),\n",
      "    Message('control_change', channel=0, control=64, value=127, time=92),\n",
      "    Message('note_on', channel=0, note=42, velocity=0, time=307),\n",
      "    Message('note_on', channel=0, note=51, velocity=0, time=0),\n",
      "    Message('note_on', channel=0, note=51, velocity=69, time=5),\n",
      "    Message('note_on', channel=0, note=42, velocity=62, time=1),\n",
      "    Message('note_on', channel=0, note=51, velocity=0, time=409),\n",
      "    Message('note_on', channel=0, note=56, velocity=62, time=5),\n",
      "    Message('note_on', channel=0, note=51, velocity=58, time=6),\n",
      "    Message('note_on', channel=0, note=42, velocity=0, time=266),\n",
      "    Message('note_on', channel=0, note=51, velocity=0, time=0),\n",
      "    Message('note_on', channel=0, note=51, velocity=63, time=4),\n",
      "    Message('note_on', channel=0, note=42, velocity=63, time=2),\n",
      "    Message('note_on', channel=0, note=63, velocity=62, time=3),\n",
      "    Message('note_on', channel=0, note=51, velocity=0, time=275),\n",
      "    Message('note_on', channel=0, note=56, velocity=0, time=0),\n",
      "    Message('note_on', channel=0, note=63, velocity=0, time=0),\n",
      "    Message('note_on', channel=0, note=63, velocity=55, time=6),\n",
      "    Message('note_on', channel=0, note=56, velocity=55, time=0),\n",
      "    Message('note_on', channel=0, note=51, velocity=59, time=3),\n",
      "    Message('note_on', channel=0, note=42, velocity=0, time=283),\n",
      "    Message('note_on', channel=0, note=30, velocity=0, time=7),\n",
      "    Message('note_on', channel=0, note=42, velocity=70, time=3),\n",
      "    Message('note_on', channel=0, note=30, velocity=67, time=2),\n",
      "    Message('note_on', channel=0, note=29, velocity=81, time=320),\n",
      "    Message('note_on', channel=0, note=41, velocity=72, time=1),\n",
      "    Message('control_change', channel=0, control=64, value=0, time=12),\n",
      "    Message('note_on', channel=0, note=42, velocity=0, time=14),\n",
      "    Message('note_on', channel=0, note=51, velocity=0, time=1),\n",
      "    Message('note_on', channel=0, note=60, velocity=0, time=0),\n",
      "    Message('note_on', channel=0, note=63, velocity=0, time=2),\n",
      "    Message('note_on', channel=0, note=30, velocity=0, time=2),\n",
      "    Message('control_change', channel=0, control=64, value=127, time=73),\n",
      "    Message('note_on', channel=0, note=61, velocity=81, time=259),\n",
      "    Message('note_on', channel=0, note=49, velocity=61, time=103),\n",
      "    Message('note_on', channel=0, note=56, velocity=0, time=38),\n",
      "    Message('note_on', channel=0, note=56, velocity=59, time=4),\n",
      "    Message('note_on', channel=0, note=65, velocity=81, time=123),\n",
      "    Message('note_on', channel=0, note=41, velocity=0, time=149),\n",
      "    Message('note_on', channel=0, note=49, velocity=0, time=0),\n",
      "    Message('note_on', channel=0, note=49, velocity=63, time=5),\n",
      "    Message('note_on', channel=0, note=41, velocity=59, time=4),\n",
      "    Message('note_on', channel=0, note=68, velocity=86, time=87),\n",
      "    Message('note_on', channel=0, note=41, velocity=0, time=211),\n",
      "    Message('note_on', channel=0, note=49, velocity=0, time=0),\n",
      "    Message('note_on', channel=0, note=49, velocity=61, time=8),\n",
      "    Message('note_on', channel=0, note=73, velocity=85, time=1),\n",
      "    Message('note_on', channel=0, note=41, velocity=48, time=2),\n",
      "    Message('note_on', channel=0, note=73, velocity=0, time=243),\n",
      "    Message('note_on', channel=0, note=76, velocity=87, time=4),\n",
      "    Message('note_on', channel=0, note=73, velocity=72, time=7),\n",
      "    Message('note_on', channel=0, note=49, velocity=0, time=89),\n",
      "    Message('note_on', channel=0, note=56, velocity=0, time=0),\n",
      "    Message('note_on', channel=0, note=49, velocity=52, time=9),\n",
      "    Message('note_on', channel=0, note=56, velocity=48, time=1),\n",
      "    Message('note_on', channel=0, note=77, velocity=92, time=143),\n",
      "    Message('note_on', channel=0, note=29, velocity=0, time=192),\n",
      "    Message('note_on', channel=0, note=41, velocity=0, time=0),\n",
      "    Message('note_on', channel=0, note=41, velocity=52, time=11),\n",
      "    Message('note_on', channel=0, note=29, velocity=51, time=0),\n",
      "    Message('note_on', channel=0, note=80, velocity=86, time=89),\n",
      "    Message('note_on', channel=0, note=59, velocity=85, time=404),\n",
      "    Message('control_change', channel=0, control=64, value=0, time=4),\n",
      "    Message('note_on', channel=0, note=43, velocity=79, time=3),\n",
      "    Message('note_on', channel=0, note=31, velocity=78, time=1),\n",
      "    Message('note_on', channel=0, note=68, velocity=0, time=8),\n",
      "    Message('note_on', channel=0, note=77, velocity=0, time=0),\n",
      "    Message('note_on', channel=0, note=65, velocity=0, time=1),\n",
      "    Message('note_on', channel=0, note=73, velocity=0, time=0),\n",
      "    Message('note_on', channel=0, note=76, velocity=0, time=0),\n",
      "    Message('note_on', channel=0, note=29, velocity=0, time=1),\n",
      "    Message('note_on', channel=0, note=56, velocity=0, time=1),\n",
      "    Message('note_on', channel=0, note=55, velocity=65, time=0),\n",
      "    Message('note_on', channel=0, note=80, velocity=0, time=2),\n",
      "    Message('note_on', channel=0, note=49, velocity=0, time=0),\n",
      "    Message('note_on', channel=0, note=41, velocity=0, time=13),\n",
      "    Message('note_on', channel=0, note=61, velocity=0, time=15),\n",
      "    Message('control_change', channel=0, control=64, value=127, time=46),\n",
      "    Message('note_on', channel=0, note=31, velocity=0, time=323),\n",
      "    Message('note_on', channel=0, note=43, velocity=0, time=0),\n",
      "    Message('note_on', channel=0, note=55, velocity=0, time=0),\n",
      "    Message('note_on', channel=0, note=59, velocity=0, time=0),\n",
      "    Message('note_on', channel=0, note=43, velocity=60, time=5),\n",
      "    Message('note_on', channel=0, note=50, velocity=65, time=0),\n",
      "    Message('note_on', channel=0, note=31, velocity=63, time=0),\n",
      "    Message('note_on', channel=0, note=59, velocity=57, time=3),\n",
      "    Message('note_on', channel=0, note=55, velocity=54, time=2),\n",
      "    Message('note_on', channel=0, note=50, velocity=0, time=343),\n",
      "    Message('note_on', channel=0, note=59, velocity=0, time=8),\n",
      "    Message('note_on', channel=0, note=50, velocity=57, time=0),\n",
      "    Message('note_on', channel=0, note=53, velocity=66, time=3),\n",
      "    Message('note_on', channel=0, note=59, velocity=53, time=1),\n",
      "    Message('note_on', channel=0, note=56, velocity=76, time=280),\n",
      "    Message('note_on', channel=0, note=53, velocity=0, time=315),\n",
      "    Message('note_on', channel=0, note=56, velocity=0, time=0),\n",
      "    Message('note_on', channel=0, note=56, velocity=71, time=4),\n",
      "    Message('note_on', channel=0, note=53, velocity=51, time=3),\n",
      "    Message('note_on', channel=0, note=31, velocity=0, time=39),\n",
      "    Message('note_on', channel=0, note=53, velocity=0, time=284),\n",
      "    Message('note_on', channel=0, note=56, velocity=0, time=8),\n",
      "    Message('note_on', channel=0, note=53, velocity=53, time=4),\n",
      "    Message('note_on', channel=0, note=56, velocity=52, time=0),\n",
      "    Message('note_on', channel=0, note=43, velocity=0, time=395),\n",
      "    Message('note_on', channel=0, note=31, velocity=70, time=12),\n",
      "    Message('note_on', channel=0, note=43, velocity=68, time=0),\n",
      "    Message('control_change', channel=0, control=64, value=0, time=21),\n",
      "    Message('note_on', channel=0, note=50, velocity=0, time=5),\n",
      "    Message('note_on', channel=0, note=56, velocity=0, time=2),\n",
      "    Message('control_change', channel=0, control=64, value=127, time=91),\n",
      "    Message('note_on', channel=0, note=31, velocity=0, time=146),\n",
      "    Message('note_on', channel=0, note=55, velocity=0, time=123),\n",
      "    Message('note_on', channel=0, note=68, velocity=68, time=164),\n",
      "    Message('note_on', channel=0, note=43, velocity=0, time=35),\n",
      "    Message('note_on', channel=0, note=50, velocity=51, time=6),\n",
      "    Message('note_on', channel=0, note=43, velocity=45, time=2),\n",
      "    Message('note_on', channel=0, note=67, velocity=66, time=325),\n",
      "    Message('note_on', channel=0, note=50, velocity=0, time=136),\n",
      "    Message('note_on', channel=0, note=50, velocity=44, time=11),\n",
      "    Message('note_on', channel=0, note=62, velocity=43, time=2),\n",
      "    Message('note_on', channel=0, note=53, velocity=0, time=2),\n",
      "    Message('note_on', channel=0, note=53, velocity=46, time=4),\n",
      "    Message('note_on', channel=0, note=62, velocity=0, time=4),\n",
      "    Message('note_on', channel=0, note=66, velocity=63, time=150),\n",
      "    Message('note_on', channel=0, note=53, velocity=0, time=272),\n",
      "    Message('note_on', channel=0, note=59, velocity=0, time=0),\n",
      "    Message('note_on', channel=0, note=65, velocity=62, time=3),\n",
      "    Message('note_on', channel=0, note=59, velocity=56, time=1),\n",
      "    Message('note_on', channel=0, note=50, velocity=0, time=4),\n",
      "    Message('note_on', channel=0, note=53, velocity=49, time=3),\n",
      "    Message('note_on', channel=0, note=50, velocity=39, time=7),\n",
      "    Message('control_change', channel=0, control=64, value=0, time=25),\n",
      "    Message('note_on', channel=0, note=67, velocity=0, time=0),\n",
      "    Message('note_on', channel=0, note=66, velocity=0, time=0),\n",
      "    Message('note_on', channel=0, note=68, velocity=0, time=1),\n",
      "    Message('control_change', channel=0, control=64, value=127, time=87),\n",
      "    Message('note_on', channel=0, note=55, velocity=67, time=302),\n",
      "    Message('note_on', channel=0, note=53, velocity=0, time=105),\n",
      "    Message('note_on', channel=0, note=53, velocity=34, time=4),\n",
      "    Message('note_on', channel=0, note=59, velocity=0, time=65),\n",
      "    Message('note_on', channel=0, note=59, velocity=50, time=6),\n",
      "    Message('note_on', channel=0, note=65, velocity=0, time=163),\n",
      "    Message('note_on', channel=0, note=65, velocity=72, time=4),\n",
      "    Message('note_on', channel=0, note=53, velocity=0, time=242),\n",
      "    Message('note_on', channel=0, note=59, velocity=0, time=0),\n",
      "    Message('note_on', channel=0, note=59, velocity=51, time=8),\n",
      "    Message('note_on', channel=0, note=53, velocity=38, time=2),\n",
      "    Message('note_on', channel=0, note=63, velocity=68, time=188),\n",
      "    Message('note_on', channel=0, note=60, velocity=69, time=495),\n",
      "    Message('note_on', channel=0, note=24, velocity=38, time=3),\n",
      "    Message('note_on', channel=0, note=36, velocity=35, time=6),\n",
      "    Message('control_change', channel=0, control=64, value=0, time=17),\n",
      "    Message('note_on', channel=0, note=65, velocity=0, time=0),\n",
      "    Message('note_on', channel=0, note=59, velocity=0, time=2),\n",
      "    Message('note_on', channel=0, note=53, velocity=0, time=0),\n",
      "    Message('note_on', channel=0, note=55, velocity=0, time=0),\n",
      "    Message('note_on', channel=0, note=63, velocity=0, time=13),\n",
      "    Message('note_on', channel=0, note=43, velocity=0, time=3),\n",
      "    Message('note_on', channel=0, note=50, velocity=0, time=0),\n",
      "    Message('control_change', channel=0, control=64, value=127, time=146),\n",
      "    Message('note_on', channel=0, note=24, velocity=0, time=61),\n",
      "    Message('note_on', channel=0, note=43, velocity=49, time=342),\n",
      "    Message('note_on', channel=0, note=51, velocity=49, time=508),\n",
      "    Message('note_on', channel=0, note=51, velocity=0, time=387),\n",
      "    Message('note_on', channel=0, note=55, velocity=45, time=7),\n",
      "    Message('note_on', channel=0, note=51, velocity=39, time=3),\n",
      "    Message('note_on', channel=0, note=55, velocity=0, time=404),\n",
      "    Message('note_on', channel=0, note=55, velocity=34, time=11),\n",
      "    Message('note_on', channel=0, note=51, velocity=0, time=12),\n",
      "    Message('note_on', channel=0, note=51, velocity=35, time=8),\n",
      "    Message('note_on', channel=0, note=31, velocity=46, time=390),\n",
      "    Message('control_change', channel=0, control=64, value=0, time=109),\n",
      "    Message('note_on', channel=0, note=36, velocity=0, time=377),\n",
      "    Message('note_on', channel=0, note=36, velocity=32, time=4),\n",
      "    Message('note_on', channel=0, note=31, velocity=0, time=28),\n",
      "    Message('note_on', channel=0, note=51, velocity=0, time=5),\n",
      "    Message('note_on', channel=0, note=43, velocity=0, time=24),\n",
      "    Message('control_change', channel=0, control=64, value=127, time=315),\n",
      "    Message('note_on', channel=0, note=43, velocity=29, time=212),\n",
      "    Message('note_on', channel=0, note=51, velocity=34, time=436),\n",
      "    Message('note_on', channel=0, note=55, velocity=0, time=496),\n",
      "    Message('note_on', channel=0, note=55, velocity=25, time=7),\n",
      "    Message('note_on', channel=0, note=51, velocity=0, time=1),\n",
      "    Message('note_on', channel=0, note=51, velocity=23, time=11),\n",
      "    Message('note_on', channel=0, note=60, velocity=0, time=258),\n",
      "    Message('note_on', channel=0, note=51, velocity=0, time=269),\n",
      "    Message('note_on', channel=0, note=55, velocity=0, time=0),\n",
      "    Message('note_on', channel=0, note=55, velocity=21, time=10),\n",
      "    Message('note_on', channel=0, note=51, velocity=24, time=1),\n",
      "    Message('note_on', channel=0, note=31, velocity=37, time=602),\n",
      "    Message('note_on', channel=0, note=36, velocity=0, time=961),\n",
      "    Message('note_on', channel=0, note=36, velocity=27, time=5),\n",
      "    Message('note_on', channel=0, note=24, velocity=32, time=1),\n",
      "    Message('control_change', channel=0, control=64, value=0, time=10),\n",
      "    Message('note_on', channel=0, note=31, velocity=0, time=10),\n",
      "    Message('note_on', channel=0, note=51, velocity=0, time=3),\n",
      "    Message('note_on', channel=0, note=55, velocity=0, time=0),\n",
      "    Message('note_on', channel=0, note=43, velocity=0, time=25),\n",
      "    Message('control_change', channel=0, control=64, value=127, time=84),\n",
      "    Message('note_on', channel=0, note=55, velocity=37, time=727),\n",
      "    Message('note_on', channel=0, note=60, velocity=54, time=406),\n",
      "    Message('note_on', channel=0, note=62, velocity=65, time=318),\n",
      "    Message('control_change', channel=0, control=64, value=0, time=13),\n",
      "    Message('note_on', channel=0, note=36, velocity=0, time=19),\n",
      "    Message('note_on', channel=0, note=55, velocity=0, time=2),\n",
      "    Message('note_on', channel=0, note=60, velocity=0, time=1),\n",
      "    Message('note_on', channel=0, note=24, velocity=0, time=12),\n",
      "    Message('note_on', channel=0, note=63, velocity=57, time=251),\n",
      "    Message('note_on', channel=0, note=62, velocity=0, time=80),\n",
      "    Message('note_on', channel=0, note=66, velocity=56, time=222),\n",
      "    Message('note_on', channel=0, note=63, velocity=0, time=42),\n",
      "    Message('note_on', channel=0, note=68, velocity=55, time=253),\n",
      "    Message('note_on', channel=0, note=66, velocity=0, time=37),\n",
      "    Message('note_on', channel=0, note=67, velocity=48, time=288),\n",
      "    Message('note_on', channel=0, note=68, velocity=0, time=37),\n",
      "    Message('note_on', channel=0, note=71, velocity=53, time=275),\n",
      "    Message('note_on', channel=0, note=67, velocity=0, time=64),\n",
      "    Message('note_on', channel=0, note=74, velocity=49, time=283),\n",
      "    Message('note_on', channel=0, note=71, velocity=0, time=53),\n",
      "    Message('note_on', channel=0, note=72, velocity=52, time=277),\n",
      "    Message('note_on', channel=0, note=74, velocity=0, time=11),\n",
      "    Message('control_change', channel=0, control=64, value=127, time=231),\n",
      "    Message('note_on', channel=0, note=75, velocity=55, time=132),\n",
      "    Message('control_change', channel=0, control=64, value=0, time=190),\n",
      "    Message('note_on', channel=0, note=78, velocity=52, time=172),\n",
      "    Message('note_on', channel=0, note=75, velocity=0, time=59),\n",
      "    Message('note_on', channel=0, note=79, velocity=48, time=324),\n",
      "    Message('note_on', channel=0, note=72, velocity=0, time=90),\n",
      "    Message('control_change', channel=0, control=64, value=127, time=116),\n",
      "    Message('note_on', channel=0, note=78, velocity=0, time=92),\n",
      "    Message('control_change', channel=0, control=64, value=0, time=7),\n",
      "    Message('note_on', channel=0, note=82, velocity=52, time=68),\n",
      "    Message('note_on', channel=0, note=79, velocity=0, time=44),\n",
      "    Message('note_on', channel=0, note=80, velocity=41, time=16),\n",
      "    Message('control_change', channel=0, control=64, value=127, time=249),\n",
      "    Message('control_change', channel=0, control=64, value=0, time=53),\n",
      "    Message('control_change', channel=0, control=64, value=127, time=85),\n",
      "    Message('note_on', channel=0, note=79, velocity=45, time=93),\n",
      "    Message('control_change', channel=0, control=64, value=0, time=38),\n",
      "    Message('note_on', channel=0, note=82, velocity=0, time=15),\n",
      "    Message('control_change', channel=0, control=64, value=127, time=100),\n",
      "    Message('note_on', channel=0, note=80, velocity=0, time=38),\n",
      "    Message('control_change', channel=0, control=64, value=0, time=92),\n",
      "    Message('note_on', channel=0, note=84, velocity=45, time=342),\n",
      "    Message('note_on', channel=0, note=79, velocity=0, time=38),\n",
      "    Message('control_change', channel=0, control=64, value=127, time=204),\n",
      "    Message('note_on', channel=0, note=63, velocity=30, time=2173),\n",
      "    Message('note_on', channel=0, note=51, velocity=27, time=1),\n",
      "    Message('note_on', channel=0, note=60, velocity=20, time=2),\n",
      "    Message('note_on', channel=0, note=48, velocity=21, time=6),\n",
      "    Message('note_on', channel=0, note=36, velocity=21, time=1),\n",
      "    Message('note_on', channel=0, note=55, velocity=17, time=6),\n",
      "    Message('note_on', channel=0, note=84, velocity=0, time=1037),\n",
      "    Message('note_on', channel=0, note=60, velocity=0, time=675),\n",
      "    Message('note_on', channel=0, note=63, velocity=0, time=0),\n",
      "    Message('note_on', channel=0, note=55, velocity=0, time=8),\n",
      "    Message('note_on', channel=0, note=63, velocity=29, time=2),\n",
      "    Message('note_on', channel=0, note=60, velocity=22, time=1),\n",
      "    Message('note_on', channel=0, note=36, velocity=0, time=5),\n",
      "    Message('note_on', channel=0, note=48, velocity=0, time=0),\n",
      "    Message('note_on', channel=0, note=55, velocity=17, time=3),\n",
      "    Message('note_on', channel=0, note=36, velocity=15, time=2),\n",
      "    Message('note_on', channel=0, note=48, velocity=15, time=1),\n",
      "    Message('note_on', channel=0, note=51, velocity=0, time=1),\n",
      "    Message('note_on', channel=0, note=51, velocity=18, time=6),\n",
      "    Message('note_on', channel=0, note=60, velocity=0, time=2222),\n",
      "    Message('note_on', channel=0, note=60, velocity=18, time=7),\n",
      "    Message('note_on', channel=0, note=63, velocity=0, time=0),\n",
      "    Message('note_on', channel=0, note=51, velocity=0, time=8),\n",
      "    Message('note_on', channel=0, note=63, velocity=27, time=0),\n",
      "    Message('note_on', channel=0, note=55, velocity=0, time=8),\n",
      "    Message('note_on', channel=0, note=51, velocity=22, time=1),\n",
      "    Message('note_on', channel=0, note=55, velocity=18, time=3),\n",
      "    Message('note_on', channel=0, note=36, velocity=0, time=11),\n",
      "    Message('note_on', channel=0, note=48, velocity=0, time=0),\n",
      "    Message('note_on', channel=0, note=43, velocity=18, time=3),\n",
      "    Message('note_on', channel=0, note=48, velocity=14, time=1),\n",
      "    Message('note_on', channel=0, note=36, velocity=19, time=1),\n",
      "    Message('note_on', channel=0, note=60, velocity=0, time=4572),\n",
      "    Message('note_on', channel=0, note=63, velocity=0, time=8),\n",
      "    Message('note_on', channel=0, note=51, velocity=0, time=8),\n",
      "    Message('note_on', channel=0, note=55, velocity=0, time=7),\n",
      "    Message('note_on', channel=0, note=43, velocity=0, time=8),\n",
      "    Message('note_on', channel=0, note=36, velocity=0, time=8),\n",
      "    Message('note_on', channel=0, note=48, velocity=0, time=0),\n",
      "    Message('control_change', channel=0, control=64, value=0, time=238),\n",
      "    MetaMessage('end_of_track', time=1)])\n",
      "])\n"
     ]
    }
   ],
   "source": [
    "# Load the MIDI file\n",
    "midi_file = mido.MidiFile(\"/Users/kevinhan/Desktop/Independent Study/Music Analysis/midis/Chopin, Frdric, Nocturnes, Op.48, -7mntyrW3HU.mid\")\n",
    "print(midi_file)"
   ]
  },
  {
   "cell_type": "code",
   "execution_count": 3,
   "metadata": {},
   "outputs": [],
   "source": [
    "def midi_to_note(midi_num):\n",
    "    note_names = ['C', 'C#', 'D', 'D#', 'E', 'F', 'F#', 'G', 'G#', 'A', 'A#', 'B']\n",
    "    octave = (midi_num // 12) - 1  # MIDI note number to octave\n",
    "    note = note_names[midi_num % 12]\n",
    "    return f\"{note}{octave}\"\n"
   ]
  },
  {
   "cell_type": "code",
   "execution_count": 4,
   "metadata": {},
   "outputs": [
    {
     "name": "stdout",
     "output_type": "stream",
     "text": [
      "Notes played (MIDI numbers): ['A#1', 'A#2', 'A#3', 'A#4', 'A#5', 'A#6', 'A1', 'A2', 'A3', 'A4', 'A5', 'A6', 'B1', 'B2', 'B3', 'B4', 'B5', 'C#1', 'C#2', 'C#3', 'C#4', 'C#5', 'C#6', 'C1', 'C2', 'C3', 'C4', 'C5', 'C6', 'C7', 'D#1', 'D#2', 'D#3', 'D#4', 'D#5', 'D#6', 'D1', 'D2', 'D3', 'D4', 'D5', 'D6', 'D7', 'E2', 'E3', 'E4', 'E5', 'E6', 'E7', 'F#1', 'F#2', 'F#3', 'F#4', 'F#5', 'F1', 'F2', 'F3', 'F4', 'F5', 'F6', 'G#1', 'G#2', 'G#3', 'G#4', 'G#5', 'G1', 'G2', 'G3', 'G4', 'G5', 'G6']\n"
     ]
    }
   ],
   "source": [
    "# Set to store unique notes\n",
    "played_notes = set()\n",
    "\n",
    "# Iterate through tracks and extract notes\n",
    "for track in midi_file.tracks:\n",
    "    for msg in track:\n",
    "        if msg.type == 'note_on' and msg.velocity > 0:  # A note is played\n",
    "            played_notes.add(midi_to_note(msg.note))  # Store unique notes\n",
    "\n",
    "# Convert MIDI note numbers to a sorted list\n",
    "played_notes = sorted(played_notes)\n",
    "print(\"Notes played (MIDI numbers):\", played_notes)"
   ]
  },
  {
   "cell_type": "code",
   "execution_count": 5,
   "metadata": {},
   "outputs": [
    {
     "data": {
      "image/png": "iVBORw0KGgoAAAANSUhEUgAAA+0AAAI1CAYAAACjXRvlAAAAOXRFWHRTb2Z0d2FyZQBNYXRwbG90bGliIHZlcnNpb24zLjkuNCwgaHR0cHM6Ly9tYXRwbG90bGliLm9yZy8ekN5oAAAACXBIWXMAAA9hAAAPYQGoP6dpAACHxklEQVR4nO3dB5hdRf3w8dkkJCR0EkILoUsiJSBNhCC9yiuCYgGpiiAgiIgNBRRBLFio6p+qIIK9ASIgKCC9k4QAgQBJgAChpJB23+c7YS5n796eLefufj/Ps7C5e/bszDlzZuY3M+ectkKhUAiSJEmSJCl3+vV0AiRJkiRJUnkG7ZIkSZIk5ZRBuyRJkiRJOWXQLkmSJElSThm0S5IkSZKUUwbtkiRJkiTllEG7JEmSJEk5ZdAuSZIkSVJOGbRLkiRJkpRTBu2SpJa21lprhUMPPbSnk9Hr/eAHPwjrrLNO6N+/f9h0000Xe3+nnXZaaGtrC3m2ww47xC9JknqSQbskKTcuu+yyGMjde++9ZX9OALXRRhst9t/5xz/+EYNG1eef//xnOPnkk8O2224bLr300nDmmWdW3JYBFM5h+lp22WXDmDFjwo9+9KPw9ttvh946cERejzvuuA4/+/e//x1/9rvf/a7h/T7++OOxnD7zzDOdlFJJUisa0NMJkCRpcUyYMCH069ev4aD9/PPPN3Cv08033xyP8cUXXxwGDhxYc/tBgwaF//u//4vfz5gxI/z+978PJ510UrjnnnvC1VdfHXqrX/7yl+FrX/taWG211TplfwTtp59+ehysYmBAktQ3OdMuSWppBIhLLLFEaCUzZ84MreSll14KgwcPritgx4ABA8JBBx0Uv4499thw0003hS222CL89re/DVOmTAm90YYbbhgWLFgQvve97/V0UiRJvYxBuySpV93TPm/evDg7uf7664cll1wyDB06NGy33XbhxhtvjD9nW2bZkV3GnQ2ov/SlL4U11lgjDghssMEG4Yc//GEoFArt/u7s2bPDF77whTBs2LCwzDLLhP/3//5feOGFF+K+sjP46d5tZk0/9alPhRVWWCGmBw8//HBMD/eKk9ZVVlklHH744eGVV15p97fSPp544okYCC+33HJhpZVWCt/85jdjup577rnw4Q9/OC5FZx8sRa/H/Pnzw3e+852w7rrrxrxyLL/+9a+3W8bO32VJPMclHStuY2gEs/Tp3vBqS735OzvttFMYPnx4TM973/vecOGFF7bb5pBDDonHnPNcarfddovnK+vXv/512HzzzeOgw4orrhg+8YlPxONV6he/+EU8Dmy31VZbhf/85z8N5ZFjd/DBB8fZ9noGJh544IGw5557xnO29NJLh5133jn873//K/6cY/yxj30sfr/jjjsWjz3L7ZPrrrsujB07Niy11FKxDO69997hsccea/d3pk2bFg477LAwYsSIeExXXXXVWFZcci9JrcPl8ZKk3Hn99dfD9OnTO3xeLlArRYB71llnhc985jMx+HrjjTfiPfL3339/2HXXXcPnPve5GFQRxP/qV79q97sEwATft9xySzjiiCPiA9duuOGG8OUvfzkG5D/+8Y+L2xJsX3PNNeHTn/50eP/73x9uvfXWGDRVQgDGQAL3g6cBANLw9NNPx6CKYJuAi+CR/xPAlT6o7eMf/3gYPXp0nM39+9//Hs4444wYiP785z+Pwe7ZZ58drrzyyrgUfcsttwzbb7991WPFMbr88svDRz/60ThQcdddd8VjN27cuPDHP/4xbsMxIk133313ccn7Bz7wgdCop556Kv6fQZRKCNCZseYcMFv/17/+NXz+858PCxcuDMccc0zchuN9xRVXxPPyoQ99qF1wyjL+U089tfjZd7/73TiwccABB8S8vvzyy+Hcc8+Nx4Wgefnll4/bseyfckG+TjjhhHhOSAPHlsGben3jG9+IaeP8/OxnP6u4HeeXYJuAnWcFsFKEc8jABuVo6623jmlkUIj9MJDCeUf6P+eFAYzdd989nvdZs2bF48eAEHlLy+n333//+Pe4357PWDVBuZs8ebJL7iWpVRQkScqJSy+9lGi26teGG27Y7nfWXHPNwiGHHFL895gxYwp777131b9zzDHHxH2V+tOf/hQ/P+OMM9p9/tGPfrTQ1tZWePLJJ+O/77vvvrjdCSec0G67Qw89NH5+6qmnFj/jez775Cc/2eHvzZo1q8Nnv/nNb+L2t912W4d9HHnkkcXP5s+fXxgxYkRM1/e+973i56+99lph8ODB7Y5JOQ8++GDc52c+85l2n5900knx85tvvrn4Gftaaqmlqu6vdNuXX345fnHMzjzzzJjOTTbZpEOeah2P3XffvbDOOusU/71gwYKY749//OPttjvnnHPi33j66afjv5955plC//79C9/97nfbbffII48UBgwYUPx87ty5heHDhxc23XTTwttvv13c7he/+EVM3wc/+MGaeaYMpjJ32GGHFZZccsnClClT4r9vueWWuJ9rr722uP2+++5bGDhwYOGpp54qfsb2yyyzTGH77bcvfsbv8LvsI+vNN98sLL/88oXPfvaz7T6fNm1aYbnllit+Tlng93/wgx/UzIMkKb9cHi9Jyh2WrzMbWPq1ySab1PxdZk+ZWZw4cWLDf5cH1PFKM2Y4s5iFZnac5ci4/vrr4/+ZBc4q9/Tw5KijjurwGUuxkzlz5sTVBczag5UBpZgtTkgn94mTLlYFZPPPEnFmi2vlFSeeeGKHvIKZ/GaxlJ7l+3ytt956caZ4m222Kc7eV5I9Hmm1xQc/+MGYF/6dltofeOCB4S9/+Ut48803i9uzwoCZ8rXXXjv++w9/+EOcoWeWnf2kL1Y0sOKB1RRgFQazz5yf7D37rKTgNoRGnXLKKfG2g0r3tnPfO0/j33fffeNtEQnL1rl94r///W9cHVIN1wIP+PvkJz/ZLm+UCWbpU97ScwhYUv/aa681nBdJUj64PF6SlDssaycgLcX94OWWzWd9+9vfjvfsvuc974mvh9tjjz3ikup6Av5nn302Pvmb+4Oz0pJkfp7+T/CYAsSEALWS0m3x6quvxvvveaI6gWNWClKzRo4c2e7fBJXcC8893qWfl94XXyrloTTNBLUE/imvzSBNLG0H91GTd+6pruX222+Py9vvvPPOuNy79HikIJp7x1kSziAA3/MGgfvuuy9cdNFFxe0ZtGFAgwC9nPTwwpTP0u34eTaorhe/Q3njloKvfvWrHX7OEn3yVnrvfSpnDDRwzz23CVSSBqS4JaIclt2nY89xYiBm5ZVXjgNC3FLAMeM8S5Jag0G7JKlX4V5g7p/+85//HGc0uQ+be9EJ6LIz1d0tO4ucMAt8xx13xHvmuX+eB5IRtDHQwP9LMZNaz2cofXBeJaX3zXcG0rTLLrs09DucMx7GNmrUqHDOOefEe8mZJWZFAOcvezx4QB0Pl+MhcwSg/J9tOZ4J25M3VkeUO0Yc667Cve3cc07AzIx6Z0vHgr9RLvjmeQAJ9+jvs88+4U9/+lN8DgD3+PPcAu7/32yzzTo9bZKkzmfQLknqdXiAGA934+utt96KgTwPqEtBe6VAdc011wz/+te/4rLr7Gz7+PHjiz9P/ydwmjRpUrsZ2ieffLLuNLJcmVehMdP+rW99q/h5M8v6m5HywN9LKwnw4osvxqXXKa/dhZl5nlrPsvfsioK01LsUwTpL+6dOnRquuuqq+BBAVmIkPAmegQtm+Vl1UUnKJ8chO3PNQw85v2PGjGk4L/xtnvLPw+VYrp7FLQNDhgyJqwNKUc5Y/ZAeflepnLJ/8JT9egZH2J7Zdr7IJwNEvGGAwQ5JUv55T7skqVcpXRbOjCpLwLOvMeMVWSA4zdprr73iPcfnnXdeu8+Z6SWA4hVd4InduOCCC9ptx5PJ65Vmf0tnxH/yk5+E7kBey/09ZrlR7Un4XaHc8WBJPK+BK4f7uTknxx9/fLznnSA5a7/99ov7ZFCk9Bjz71ROuA2DQJqVGHPnzm33yrXS8tHove0E/t///vc75JNX07ESJPvaNQZLGHzg6e9peXulckr5YxveRFDujQoswQfL8HlWQmkAz4BU9nqQJOWbM+2SpF6FpdO8Oovl08y486Cx3/3ud+HYY48tbsPPwAPnCIAIpHh/N8uIeSc2y5sJqJhlZYk9ARbLjNMMJ7/Pq7QIeAn+0ivfeI96vUvOCbpYAUBQR+C1+uqrx7/F7G53IG+8Mox7rwkKeeAbr3XjFXAs6eY4dCcCWZa4cw54/RorJHjnObPJzKaXItDmNoJrr7023oNfOsjAueKVeF/72tfiuSRPBKscX+6FP/LII+Or8bh3ne34m8y081o9tmGwoJl72rN/n4EEjmcp/h4PkyNA52GGLGdnVp5AOhvkMyNO2WSZPQMY3KOe3mPP6924d/5973tfLLscD17jxgMEt9122zjwRHnklgNuG+C64O+QdwYI+B1JUovo6cfXS5JU+sq3e+65p+zPef1WrVe+8bq2rbbaKr4Si1efjRo1Kr7ei1d7ZV+XdtxxxxVWWmml+JqwbHPI67S++MUvFlZbbbXCEkssUVh//fXjK7MWLlzY7u/OnDkzvjpuxRVXLCy99NLxNV4TJkyI+8q+gi292ozXn5V6/vnnCx/5yEdiWnlV18c+9rH46q9Kr40r3UelV7GVO07lzJs3r3D66acX1l577ZjXNdZYo/C1r32tMGfOnLr+Tjn1blvulW9/+ctf4mvheGXaWmutVTj77LMLl1xySdxu0qRJHfZxzTXXdHgVXqnf//73he222y6miS/KA+eNc5V1wQUXxOMwaNCgwhZbbBFfucdxbPSVb1kTJ06Mr50rfeUb7r///vg6O8rOkCFDCjvuuGPhjjvu6LCPX/7yl/GVd2k/2de/8T37oOxwzNZdd9342sF77703/nz69Okxr+SZvLPd1ltvHY+bJKl1tPGfnh44kCSpN3jwwQfjw724V5jXkqlrsQKCGfTbbrstjB07tqeTI0lSl/CedkmSmjB79uwOn7FcngeJsexdXY/l8yxhZ5m5JEm9lfe0S5LUBO495t3g3PvNvcK8Wowv7pVOT/9W1+C99g8//HC8f/unP/1pl7y2TpKkvHB5vCRJTeBBYjyZ/PHHH48PTeM1ZTwYjIfYZd+Trc5HkM5bAXhoHE9993hLknozg3ZJkiRJknLKe9olSZIkScopg3ZJkiRJknLKm8BCCAsXLgxTpkwJyyyzjA+zkSRJkiR1Oe5Uf/PNN8Nqq60W3z5TiUF7CDFg90m/kiRJkqTu9txzz4URI0ZU/LlBewhxhj0drGWXXbankyNJkiRJ6uXeeOONOHmc4tFKDNrfeXUMCNgN2iVJkiRJ3aXWLdo+iE6SJEmSpJwyaJckSZIkKacM2iVJkiRJyimDdkmSJEmScsqgXZIkSZKknDJolyRJkiQppwzaJUmSJEnKKYN2SZIkSZJyyqBdkiRJkqScMmiXJEmSJCmnDNolSZIkScopg3ZJkiRJknLKoF2SJEmSpJwyaJckSZIkKacM2iVJkiRJyimDdkmSJEmScsqgXZIkSZKknDJolyRJkiQppwb0dAIkSZL6osmTJ4fp06fX3G7YsGFh5MiR3ZImSVL+GLRLkiT1QMA+avToMHvWrJrbDh4yJIwfN87AXZL6KIN2SZKkbsYMOwH7AWdcGIavvX7F7V6aNDFcc8rRcXuDdknqmwzaJUmSeggB++qjx/R0MiRJOeaD6CRJkiRJyimDdkmSJEmScsqgXZIkSZKknDJolyRJkiQppwzaJUmSJEnKKYN2SZIkSZJyyqBdkiRJkqScMmiXJEmSJCmnDNolSZIkScopg3ZJkiRJknLKoF2SJEmSpJwyaJckSZIkKacM2iVJkiRJyimDdkmSJEmScsqgXZIkSZKknDJolyRJkiQppwzaJUmSJEnKKYN2SZIkSZJyyqBdkiRJkqScMmiXJEmSJCmnDNolSZIkScopg3ZJkiRJknLKoF2SJEmSpJwyaJckSZIkKacM2iVJkiRJyimDdkmSJEmScsqgXZIkSZKknDJolyRJkiQppwzaJUmSJEnKKYN2SZIkSZJyyqBdkiRJkqScMmiXJEmSJCmnDNolSZIkScqpAT2dAEmSWtnkyZPD9OnTa243bNiwMHLkyG5JkyRJ6j0M2iVJWoyAfdTo0WH2rFk1tx08ZEgYP26cgbskSWqIQbskSU1ihp2A/YAzLgzD116/4nYvTZoYrjnl6Li9QbskSWqEQbskSYuJgH310WN6OhmSJKkX8kF0kiRJkiTlVI8G7WeddVbYcsstwzLLLBOGDx8e9t133zBhwoR228yZMyccc8wxYejQoWHppZcO+++/f3jxxRc73FO49957hyFDhsT9fPnLXw7z58/v5txIkiRJktSLgvZbb701BuT/+9//wo033hjmzZsXdttttzBz5sziNl/84hfDX//613DttdfG7adMmRL222+/4s8XLFgQA/a5c+eGO+64I1x++eXhsssuC9/61rd6KFeSJEmSJPWCe9qvv/76dv8m2Gam/L777gvbb799eP3118PFF18crrrqqrDTTjvFbS699NIwevToGOi///3vD//85z/D448/Hv71r3+FlVdeOWy66abhO9/5TvjKV74STjvttDBw4MAeyp0kSZIkSb3oQXQE6VhxxRXj/wnemX3fZZddituMGjUqPnn3zjvvjEE7/994441jwJ7svvvu4eijjw6PPfZY2GyzzTr8nbfffjt+JW+88Ub8P0vq07L6fv36xa+FCxfGryR9zgx/oVCo+Xn//v1DW1tbh+X6fA62r+fzAQMGxP1mP2e/bF+axkqfmyfzZJ7Mk3nq3DylbfqFQmhb+G46C22LFrK1FRYWf54GkfOep954nvKYJ/ZPmUhlJ5aZtrZFZSaTpxAWfc8+svnKY55643kyT+bJPJmnft3Qj2iZoJ2DcMIJJ4Rtt902bLTRRvGzadOmxQZt+eWXb7ctATo/S9tkA/b08/SzSvfSn3766R0+f+CBB8JSSy0Vv19ppZXCuuuuGyZNmhRefvnl4jYjRoyIX0888URxkAHrrLNOXCXw6KOPhtmzZ7cbZCD97DtbYDbZZJOYt3vvvbddGrbYYou41P/hhx9ud5K595+/N378+OLngwcPDmPGjImvEHr66aeLny+33HJxNQK3Ejz//PPFz82TeTJP5sk8dW6eaJjJ08aD5oQlp7/7TJYXhm0Q+i+cH1Z59an476GD5oTjjz8+fp/3PPXG85THPDFhwDN41nqn7Ly2zKph5uAVwsqvTQoD5r87sfB6v0WdxFdffbVd+vOYp954nsyTeTJP5mndLszTWmutFerRVqg3vO9izIxfd9114b///W88AGBZ/GGHHdZuVhxbbbVV2HHHHcPZZ58djjzyyPDss8+GG264ofjzWbNmxeD7H//4R9hzzz3rmmlfY401wiuvvBKWXXbZ+JkjRebJPJkn82SeauXpoYceip2FL1x5Y1htg40rzrRPmfBIuOiwvePqMFaA5TlPvfE85TFPrCb8wAc+EI669O+x7FSaaX9+wiPhvAN3Dffcc0+8BTDPeeqN58k8mSfzZJ76dWGeeJYbwTyBf4pDczvTfuyxx4a//e1v4bbbbisG7FhllVXiqMmMGTPazbbz9Hh+lra5++672+0vPV0+bVNq0KBB8asUJ5avrHTgS6XCUe/npftt5nNOdLnPK6Wx0c/Nk3mq9Ll5Mk/V0t6X80T6sDC0hUK/jr9TaOtf/DntWSvkqZnPzVPjn7N/ykRp2VkUvLfbsrifcunJU55643kyT+ap0ufmyTx1Zj8i10+PZ/SBgP2Pf/xjuPnmm8Paa6/d7uebb755WGKJJcJNN91U/IxXwvGKt2222Sb+m/8/8sgj4aWXXipuw5PoGal473vf2425kSRJkiSpc/XoTDuve2MJ/J///Of4rvZ0Dzr3FHC/Af8/4ogjwoknnhgfTkcgftxxx8VAnYfQgVfEEZx/+tOfDt///vfjPk455ZS473Kz6ZIkSZIktYoeDdovvPDC+P8ddtih3ee81u3QQw+N3//4xz+OSxH233//eB86T4a/4IIL2i09YGk998QTzHMv+yGHHBK+/e1vd3NuJEmSJEnqRUF7Pc/AW3LJJcP5558fvypZc80140PnJEmSJEnqTXr0nnZJkiRJklSZQbskSZIkSTll0C5JkiRJUk4ZtEuSJEmSlFMG7ZIkSZIk5ZRBuyRJkiRJOWXQLkmSJElSThm0S5IkSZKUUwbtkiRJkiTllEG7JEmSJEk5ZdAuSZIkSVJOGbRLkiRJkpRTBu2SJEmSJOWUQbskSZIkSTll0C5JkiRJUk4ZtEuSJEmSlFMG7ZIkSZIk5ZRBuyRJkiRJOWXQLkmSJElSThm0S5IkSZKUUwbtkiRJkiTllEG7JEmSJEk5ZdAuSZIkSVJOGbRLkiRJkpRTBu2SJEmSJOWUQbskSZIkSTll0C5JkiRJUk4ZtEuSJEmSlFMG7ZIkSZIk5ZRBuyRJkiRJOWXQLkmSJElSThm0S5IkSZKUUwbtkiRJkiTllEG7JEmSJEk5ZdAuSZIkSVJODejpBEiSJKn3mzx5cpg+fXrN7YYNGxZGjhzZLWmSpFZg0C5JkqQuD9hHjR4dZs+aVXPbwUOGhPHjxhm4S9I7DNolSZLUpZhhJ2A/4IwLw/C116+43UuTJoZrTjk6bm/QLkmLGLRLkiSpWxCwrz56TE8nQ5Jaig+ikyRJkiQppwzaJUmSJEnKKYN2SZIkSZJyyqBdkiRJkqScMmiXJEmSJCmnDNolSZIkScopg3ZJkiRJknLKoF2SJEmSpJwyaJckSZIkKacM2iVJkiRJyimDdkmSJEmScsqgXZIkSZKknDJolyRJkiQppwzaJUmSJEnKKYN2SZIkSZJyyqBdkiRJkqScMmiXJEmSJCmnDNolSZIkScopg3ZJkiRJknLKoF2SJEmSpJwyaJckSZIkKacM2iVJkiRJyimDdkmSJEmScsqgXZIkSZKknDJolyRJkiQppwzaJUmSJEnKKYN2SZIkSZJyyqBdkiRJkqScMmiXJEmSJCmnDNolSZIkScopg3ZJkiRJknLKoF2SJEmSpJwyaJckSZIkKacM2iVJkiRJyimDdkmSJEmScsqgXZIkSZKknDJolyRJkiQppwzaJUmSJEnKKYN2SZIkSZJyyqBdkiRJkqScMmiXJEmSJCmnDNolSZIkScopg3ZJkiRJknLKoF2SJEmSpJwyaJckSZIkKacM2iVJkiRJyimDdkmSJEmScsqgXZIkSZKknDJolyRJkiQpp3o0aL/tttvCPvvsE1ZbbbXQ1tYW/vSnP7X7+aGHHho/z37tscce7bZ59dVXw4EHHhiWXXbZsPzyy4cjjjgivPXWW92cE0mSJEmSelnQPnPmzDBmzJhw/vnnV9yGIH3q1KnFr9/85jftfk7A/thjj4Ubb7wx/O1vf4sDAUceeWQ3pF6SJEmSpK41IPSgPffcM35VM2jQoLDKKquU/dm4cePC9ddfH+65556wxRZbxM/OPffcsNdee4Uf/vCHcQZfkiRJkqRW1aNBez3+/e9/h+HDh4cVVlgh7LTTTuGMM84IQ4cOjT+7884745L4FLBjl112Cf369Qt33XVX+MhHPlJ2n2+//Xb8St544434//nz58cvsA++Fi5cGL+S9PmCBQtCoVCo+Xn//v3jsv603+znYPt6Ph8wYEDcb/Zz9sv2pWms9Ll5Mk/myTyZp87NU9qmXyiEtoXvprPQtmghW1thYfHnAwcOLP5OnvPUG89THvPE/ikTqezEMsOtgJSZTJ5CWPQ9+8jmq9XOE9un/Mb8kdfMNfPudbPouGTzm9c8tWrZM0/myTz1z02estu0bNDO0vj99tsvrL322uGpp54KX//61+PMPME6GZ82bVoM6EtPzoorrhh/VslZZ50VTj/99A6fP/DAA2GppZaK36+00kph3XXXDZMmTQovv/xycZsRI0bEryeeeCK8/vrrxc/XWWedmJZHH300zJ49u/j5qFGj4sAC+84WmE022SQ2Svfee2+7NDAAMXfu3PDwww8XPyOvW265Zfx748ePL34+ePDgeHvB9OnTw9NPP138fLnllgujR48OU6ZMCc8//3zxc/NknsyTeTJPnZsnGmbytPGgOWHJ6ROKn78wbIPQf+H8sMqrT8V/Dx00Jxx//PHx+7znqTeepzzmiQmDL3/5y2Gtd8rOa8usGmYOXiGs/NqkMGD+uxMLr/dbWHyGTzb9rXaeXnnllWJ+35o3M8wZuHRY7dWJoS3TCZ624rrxvk22Y/uUt7zmqVXLnnkyT+ZpTG7ytNZaa4V6tBXqDe+7GCMPf/zjH8O+++5bcRsOLAftX//6V9h5553DmWeeGS6//PIwYcK7HSVwoAjKjz766Lpn2tdYY43YQPBAOzhSZJ7Mk3kyT+apVp4eeuih2Fn4wpU3htU22LjiTPuUCY+Eiw7bOw46b7bZZrnOU288T3nM03333Rc+8IEPhKMu/XssO5Vm2p+f8Eg478Bd462Am266acueJzqq2267bczvqqPGVJxpf2H8Q+EXh+0dbr/99mJ+85qnVi175sk8maf+uckTz3gjmCfwT3Foy820l2LkYtiwYeHJJ5+MQTv3ur/00kvttuFAMBpd6T74dJ88X6U4sXxlpQNfKhWOej8v3W8zn3Oiy31eKY2Nfm6ezFOlz82TeaqW9r6cJ9KHhaEtFPp1/J1CW//iz5kFaIU8NfO5eWr8c/ZPmSgtO4uC93ZbFvdTLj2tcp7YPuWXgB3lrhnyy3bl8pu3PLVq2TNP5qnS5+Yp9Fg/opaWCtpZqsBs+Kqrrhr/vc0224QZM2bE0erNN988fnbzzTfHUZCtt966h1MrSVLvM3ny5LissBoG2EeOHNltaZIkqTfr0aCd96kza55wr8CDDz4Y70nniyXu+++/f5w15572k08+Oay33nph9913j9tz3wH3vX/2s58NF110UZg3b1449thjwyc+8QmfHC9JUhcE7KNGjw6zZ82qut3gIUPC+HHjDNwlSWr1oJ2HCOy4447Ff5944onx/4cccki48MIL48MEuGed2XSC8N122y185zvfabe0/corr4yBOsvlWbJAkP+zn/2sR/IjSVJvxgw7AfsBZ1wYhq+9ftltXpo0MVxzytFxW4N2SZJaPGjfYYcdqj7m/oYbbqi5D2bkr7rqqk5OmSRJqoSAffXRY3o6GZIk9Qkd76aXJEmSJEm5YNAuSZIkSVJOGbRLkiRJkpRTBu2SJEmSJOWUQbskSZIkSTll0C5JkiRJUk4ZtEuSJEmSlFM9+p52SZIk1Wfy5Mlh+vTpNbcbNmxYGDlyZLekSZLU9QzaJUmScm7q1Klhu7Fjw+xZs2puO3jIkDB+3DgDd0nqJQzaJUmScm7GjBkxYD/gjAvD8LXXr7jdS5MmhmtOOTrOyBu0S1LvYNAuSZLUIgjYVx89pqeTIUnqRj6ITpIkSZKknDJolyRJkiQppwzaJUmSJEnKKYN2SZIkSZJyyqBdkiRJkqScMmiXJEmSJCmnDNolSZIkScopg3ZJkiRJknLKoF2SJEmSpJwyaJckSZIkKacM2iVJkiRJyimDdkmSJEmScsqgXZIkSZKknDJolyRJkiSpNwXtTz/9dOenRJIkSZIkLX7Qvt5664Udd9wx/PrXvw5z5sxpZheSJEmSJKkrgvb7778/bLLJJuHEE08Mq6yySvjc5z4X7r777mZ2JUmSJEmSOjNo33TTTcNPf/rTMGXKlHDJJZeEqVOnhu222y5stNFG4Zxzzgkvv/xyM7uVJEmSJEmd9SC6AQMGhP322y9ce+214eyzzw5PPvlkOOmkk8Iaa6wRDj744BjMS5IkSZKkHgja77333vD5z38+rLrqqnGGnYD9qaeeCjfeeGOchf/whz+8OLuXJEmSJKlPG9DMLxGgX3rppWHChAlhr732CldccUX8f79+i8YA1l577XDZZZeFtdZaq7PTK0mSJElSn9FU0H7hhReGww8/PBx66KFxlr2c4cOHh4svvnhx0ydJkiRJUp/VVNA+ceLEmtsMHDgwHHLIIc3sXpIkSZIkNXtPO0vjefhcKT67/PLLOyNdkiRJkiT1eU0F7WeddVYYNmxY2SXxZ555ZmekS5IkSZKkPq+poH3y5MnxYXOl1lxzzfgzSZIkSZLUQ0E7M+oPP/xwh88feuihMHTo0E5IliRJkiRJaipo/+QnPxm+8IUvhFtuuSUsWLAgft18883h+OOPD5/4xCc6P5WSJEmSJPVBTT09/jvf+U545plnws477xwGDFi0i4ULF4aDDz7Ye9olSZIkSerJoJ3Xuf32t7+NwTtL4gcPHhw23njjeE+7JEmSJEnqwaA9ec973hO/JEmSJElSToJ27mG/7LLLwk033RReeumluDQ+i/vbJUmSJElSDwTtPHCOoH3vvfcOG220UWhra1vMZEiSJEmSpE4J2q+++upwzTXXhL322quZX5ckSZIkSV35ILr11luvmV+VJEmqaPLkyWH69OlVtxk2bFgYOXJkt6VJkqSWC9q/9KUvhZ/+9KfhvPPOc2m8JEnqtIB91OjRYfasWVW3GzxkSBg/bpyBuySpT2gqaP/vf/8bbrnllnDdddeFDTfcMCyxxBLtfv6HP/yhs9InSZL6CGbYCdgPOOPCMHzt9ctu89KkieGaU46O2xq0S5L6gqaC9uWXXz585CMf6fzUSJKkPo+AffXRY3o6GZIktW7Qfumll3Z+SiRJkiRJUjv9QpPmz58f/vWvf4Wf//zn4c0334yfTZkyJbz11lvN7lKSJEmSJC3uTPuzzz4b9thjj/jAmLfffjvsuuuuYZlllglnn312/PdFF13UzG4lSZIkSdLizrQff/zxYYsttgivvfZaGDx4cPFz7nO/6aabmtmlJEmSJEnqjJn2//znP+GOO+6I72vPWmuttcILL7zQzC4lSZIa5nvdJUm9XVNB+8KFC8OCBQs6fP7888/HZfKSJEldzfe6S5L6gqaC9t122y385Cc/Cb/4xS/iv9va2uID6E499dSw1157dXYaJUmSeuS97s7kS5JaMmj/0Y9+FHbffffw3ve+N8yZMyd86lOfChMnToyN1m9+85vOT6UkSVI3v9fdmXxJUssG7SNGjAgPPfRQuPrqq8PDDz8cZ9mPOOKIcOCBB7Z7MJ0kSVKr6o6ZfEmSuiRoj784YEA46KCDmv11SZKkPj2TL0lSlwXtV1xxRdWfH3zwwc3sVpIkSZIkLW7Qznvas+bNmxdmzZoVXwE3ZMgQg3ZJkiRJkjpBv2Z+6bXXXmv3xT3tEyZMCNttt50PopMkSZIkqSeD9nLWX3/98L3vfa/DLLwkSZIkSerhoD09nG7KlCmduUtJkiRJkvqspu5p/8tf/tLu34VCIUydOjWcd955Ydttt+2stEmSJEmS1Kc1FbTvu+++7f7d1tYWVlpppbDTTjuFH/3oR52VNkmSJEmS+rSmgvaFCxd2fkokSZIkSdLiB+2S1NtMnjw5TJ8+veo2w4YNCyNHjuy2NEmSJElNBe0nnnhi3duec845zfwJSerWgH3U6NFh9qxZVbcbPGRIGD9unIG7JEmS8h20P/DAA/Fr3rx5YYMNNoifPfHEE6F///7hfe97X7t73SUp75hhJ2A/4IwLw/C11y+7zUuTJoZrTjk6bmvQLkmSpFwH7fvss09YZpllwuWXXx5WWGGF+Nlrr70WDjvssDB27NjwpS99qbPTKUldjoB99dFjejoZkiRJ0uK9p50nxJ911lnFgB18f8YZZ/j0eEmSJEmSejJof+ONN8LLL7/c4XM+e/PNNzsjXZIkSZIk9XlNBe0f+chH4lL4P/zhD+H555+PX7///e/DEUccEfbbb7/OT6UkSZIkSX1QU/e0X3TRReGkk04Kn/rUp+LD6OKOBgyIQfsPfvCDzk6jJEmSJEl9UlNB+5AhQ8IFF1wQA/SnnnoqfrbuuuuGpZZaqrPTJ0mSJNX1+k7e8FHLsGHDfAuIpN4ftCdTp06NX9tvv30YPHhwKBQKvuZNkiRJ3R6wjxo9Or6+s5bBQ4aE8ePGGbhL6t1B+yuvvBIOOOCAcMstt8QgfeLEiWGdddaJy+N5irxPkJckSVJ3YYadgP2AMy6Mr++s5KVJE8M1pxwdtzdol9Srg/YvfvGLYYklloijmqNHjy5+/vGPfzyceOKJBu2SJEnqdgTsq48e09PJkKSeD9r/+c9/hhtuuCGMGDGi3efrr79+ePbZZzsrbZIkSZIk9WlNvfJt5syZ8WF0pV599dUwaNCgzkiXJEmSJEl9XlNB+9ixY8MVV1xR/Df3tS9cuDB8//vfDzvuuGNnpk+SJEmSpD6rqeXxBOc777xzuPfee8PcuXPDySefHB577LE403777bd3fiolSZKkTuQr4iT16qB9o402Ck888UQ477zzwjLLLBPeeuutsN9++4VjjjkmrLrqqp2fSkmSJKmT8Mri7caO9RVxknpn0D5v3rywxx57hIsuuih84xvf6JpUSZIkSV1kxowZviJOUu8N2nnV28MPP9w1qZEkSZK6ia+Ik9RrH0R30EEHhYsvvrjzUyNJkiRJkhbvnvb58+eHSy65JPzrX/8Km2++eVhqqaXa/fycc85pZreSJEmSJKnZmfann346vtrt0UcfDe973/viQ+h4IN0DDzxQ/HrwwQfr3t9tt90W9tlnn7DaaqvF18b96U9/avfzQqEQvvWtb8WH2w0ePDjssssuYeLEie224Yn1Bx54YFh22WXD8ssvH4444oj4YDxJkiRJkvpU0L7++uvHB3Hccsst8Wv48OHh6quvLv6br5tvvrnu/c2cOTOMGTMmnH/++RVfLfezn/0sPvTurrvuijP6u+++e5gzZ05xGwJ2Xjd34403hr/97W9xIODII49sJFuSJEmSJLX+8nhmvrOuu+66GHg3a88994xflf7WT37yk3DKKaeED3/4w/GzK664Iqy88spxRv4Tn/hEGDduXLj++uvDPffcE7bYYou4zbnnnhv22muv8MMf/jDO4Jfz9ttvx6/kjTfeKC775wv9+vWLX6ws4CtJny9YsKDd8aj0ef/+/eMqgrTf7Odg+3o+HzBgQNxv9nP2y/alaaz0uXkyT+apfJ5IEw/ZjAqF0FZ4N42hrS0U2vqFtlAIAwcOjNvy9/Oep954nvKYp7RNv1AIbQvfTSdlJqbrnbLU753yk36nVc8Tv08+svkt9Ovf7rrhZ+l6ajRPpfsvtLWFwPXHvjPHmm3TsWy/fb94zWbPRfwZ13GhUHdeU9kjjcX9FxYu2n9JHcHPUlqy+691niqmPZPXRd79vsP2mTKW3Z78prqqNE89VfayxzLmr+Q8xZTHPLWva+s5Tx32X0ddno5nW3H7haEtk/ZU9vpVqPv7cr1nnsyTeQqd3o/oknvaG/0jzZg0aVKYNm1aXBKfLLfccmHrrbcOd955Zwza+T9L4lPADrbnQDEz/5GPfKTsvs8666xw+umnd/ic5f3p/vyVVloprLvuujEdL7/8cnGbESNGxC9uC3j99deLn6+zzjpx5QG3DsyePbv4+ahRo2Ia2Xe2wGyyySaxEbj33nvbpYG8zJ07t90T+jnJW265Zfx748ePL37OLQOsVGD1A7cuZI/T6NGjw5QpU8Lzzz9f/Nw8mSfzVD5PfH/44YfH75eaMyOs8ObU4vZzBi4Vpi+/Zhjef3748pe/HF555ZX4d/Kep954nvKYJ9ob8rTxoDlhyekTip+/MGyD0H/h/LDKq0/Ffw8dNCccf/zx8ftWPk9sx3Ww1jv5LfTrF14YNiosOW9mGDZjcjGv6XpqNE/c3pbd/xtLrRS/hr7+XFhy7szi/kkjXnvttXbbT19+ZJgzcOmw2qsTQ9s7nSu2Hzp0aOyzNFr2uN7T/ge8NilMW3HdDnXEwCXmxv/PmjWr3f5rnScmDLJpf22ZVcPMwSuElV+bFAbMf3di4fV+i/IxaNCgdtuTlgX9BoTVM+UOU8jz0KHFuqo0Tz1V9rLH8q15MzucJ5AnwvZsXVvPeSJP/J/fW2Xg2+GtOuryJZdcMv5/2QHzAilY4a1pYanZM4rbp7K31hJz26XHes88mSfz1Jl5WmuttUI92goNRN5knkCaxIN72jk4a6+9dr27qJyQtrbwxz/+Mey7777x33fccUfYdttt44HjnvbkgAMOiNv+9re/DWeeeWa4/PLLw4QJ7RssDhRB+dFHH133TPsaa6wRK2TujYcjRebJPPWdPPEsjg984APhc5ddF1YftUnZ2Zkp4x4MPz9s73D77beHTTfdNPd56o3nKY95euihh2Jn4QtX3hhW22Dj4uels6BTJjwSLjps7zjYvNlmm7Xsebr//vvjtXLUpX8v5rd0pp28XnjoXuF///tfvFYaydN9993Xbv/lZtrZ/3mf3j2usiM/7bfvONPO9ucetFvcno5aI2WP9NAXifsftUnZmXb2/7MDd42dyOz+a52njnktP9P+PPk9cNfw61//Og6GtNu+zEw7259/0G7h7rvvjse/NE89VfboqKZjueqoMRVn2l8Y/1D4Raaurec88Tn1eHH/ozetONOe6nIeqMzx/BzHM25ffqZ96rgH47VbWvf35XrPPJkn8xQ6LU+sWieYJ/BPcWinLI8/9NBD42gvuLf8qKOO6vD0+D/84Q8hz0h/ykPpieUrKx34Uqlw1Pt56X6b+ZwTXe7zSmls9HPzZJ76ap5I07x589IPQqGt498thLY4isu22f3lNU+98TzlMU+kDwtZZEvwWiKVpYXvlJ9WyFO1z0k7+eiQ38x1w8/S9dRo2ivtf1FAu+h7fpY6ThW3z3wff0YAV+G4V8sraSzu/50gubSO4GfNnNd68vrOlsXvym9fel4X5be0rurpspc9lhzDmPYy10yoUNfWqiPa7b+Ouhz8v1Dcvl8otDvuod21W5qevlzvNfO5eTJP1dLel/PU9k59WEtDQfshhxzS4X3tXWWVVVaJ/3/xxRfbzbTz7zTyyjYvvfRSu99j9IInyqfflyRJkiSpVTUUtF966aWhu7DknsD7pptuKgbpLGPnXvW07H2bbbYJM2bMiEvMeF88eHo9I/Dc+y5JkiRJUitbrAfRLS4eOPPkk08W/80N/tyTtOKKK4aRI0eGE044IZxxxhnxVXME8d/85jfjE+HTfe88LGCPPfYIn/3sZ+Nr4ViOd+yxx8aH1FV6crwkST1p8uTJ8QE4tQwbNiy2hZIkqW/r0aCdh7bsuOOOxX+feOKJxWX4l112WTj55JPjzfm8d50Z9e222y6+4o0nfiZXXnllDNR33nnneJ/B/vvvH9/tLklS3kydOjVsN3ZsmD1rVs1tBw8ZEsaPG2fgLklSH9ejQfsOO+xQ9bVx3Jj/7W9/O35Vwqz8VVdd1UUplCSp8zAATcB+wBkXhuFrr19xu5cmTQzXnHJ0nJE3aJckqW/r0aBdkqS+iIB99dHtXz8mSZJUTsfn1kuSJEmSpFwwaJckSZIkKadcHi9JfVA9TzD36eWSJEk9z6BdkvpgwD5q9OiaTzD36eWSJEk9z6BdkvoYZthrPcHcp5dLkiTlg0G7JPVRPsFckiQp/3wQnSRJkiRJOWXQLkmSJElSThm0S5IkSZKUUwbtkiRJkiTllEG7JEmSJEk5ZdAuSZIkSVJOGbRLkiRJkpRTBu2SJEmSJOWUQbskSZIkSTll0C5JkiRJUk4ZtEuSJEmSlFMG7ZIkSZIk5ZRBuyRJkiRJOWXQLkmSJElSTg3o6QRIkiRJvc3kyZPD9OnTq24zbNiwMHLkyG5Lk6TWZNAuSZIkdXLAPmr06DB71qyq2w0eMiSMHzfOwF1SVQbtkiRJUidihp2A/YAzLgzD116/7DYvTZoYrjnl6LitQbukagzaJUmSpC5AwL766DE9nQxJLc6gXZIkSWox3jMv9R0G7ZIkSVIL8Z55qW8xaJckSZJaiPfMS32LQbskSZLUgrxnXuob+vV0AiRJkiRJUnkG7ZIkSZIk5ZTL4yVJ3f5EY/hUY0mSpNoM2iVJ3f5EY/hUY0mSpNoM2iVJ3fpEY/hUY0mSpPoYtEuSOp1PNJYkSeocBu2SpB7lPfCSJEmVGbRLknrM1KlTw3Zjx3oPvCRJUgUG7ZKkHjNjxowuvwfemXxJktTKDNolSb32HnifZi9JklqdQbskqdfyafaSJKnVGbRLkno9n2YvSZJaVb+eToAkSZIkSSrPoF2SJEmSpJwyaJckSZIkKacM2iVJkiRJyimDdkmSJEmScsqgXZIkSZKknDJolyRJkiQppwzaJUmSJEnKKYN2SZIkSZJyyqBdkiRJkqScMmiXJEmSJCmnDNolSZIkScopg3ZJkiRJknLKoF2SJEmSpJwyaJckSZIkKacM2iVJkiRJyimDdkmSJEmScsqgXZIkSZKknDJolyRJkiQppwzaJUmSJEnKKYN2SZIkSZJyyqBdkiRJkqScMmiXJEmSJCmnBvR0AiQ1Z/LkyWH69Ok1txs2bFgYOXJkt6RJkiRJUucyaJdaNGAfNXp0mD1rVs1tBw8ZEsaPG2fgLkmSJLUgg3apBTHDTsB+wBkXhuFrr19xu5cmTQzXnHJ03N6gXZIkSWo9Bu1SCyNgX330mJ5OhiRJkqQu4oPoJEmSJEnKKYN2SZIkSZJyyqBdkiRJkqScMmiXJEmSJCmnfBCdJEl9/BWSvGGimmHDhvkGCkmSeohBuyRJfThgHzV6dHyFZDWDhwwJ48eN67Z0SZKkdxm0S5LURzHDTsB+wBkXxldIlvPSpInhmlOOrjkb3ypcWSBJajUG7ZIk9XEE7KuPHhN6O1cWSJJakUG7JEnqE/riygJJUuszaJckSX1KX1lZIEnqHXzlmyRJkiRJOWXQLkmSJElSThm0S5IkSZKUUwbtkiRJkiTllEG7JEmSJEk5ZdAuSZIkSVJO+co3SZIkhcmTJ9f1fvphw4aFkSNHdkuaJEkG7ZIkSX0eAfuo0aPD7Fmzam47eMiQMH7cOAN3SeomBu2SJEl9HDPsBOwHnHFhGL72+hW3e2nSxHDNKUfH7Q3aJal75Pqe9tNOOy20tbW1+xo1alTx53PmzAnHHHNMGDp0aFh66aXD/vvvH1588cUeTbMkSVKrImBfffSYil/VAnpJUh8M2rHhhhuGqVOnFr/++9//Fn/2xS9+Mfz1r38N1157bbj11lvDlClTwn777dej6ZUkSZIkqc8sjx8wYEBYZZVVOnz++uuvh4svvjhcddVVYaeddoqfXXrppWH06NHhf//7X3j/+9/fA6mVJEmSJKkPBe0TJ04Mq622WlhyySXDNttsE84666x4D9V9990X5s2bF3bZZZfitiyd52d33nln1aD97bffjl/JG2+8Ef8/f/78+IV+/frFr4ULF8avJH2+YMGCUCgUan7ev3//uKw/7Tf7Odi+ns8ZvGC/2c/ZL9uXprHS5+ap9+SJzwcOHBj6hUII5IPbRwoLF33/jkLbooU0bMf2KW95zVNPnifStMQSS7xz4AqLjuW7mYrHsi0U2h3LvOep2vlIf588tS18d/tCW1sIlJvCwli2Un75qjdPadu4/8y+F+3/nc8z+8/8tOP2/foXz0faPvt36il7tfKarpvS/dd7ntI2/Trs/928pp+n/Mbjlt3+nTKWLXv8PJXJrryekOqSlJ5KaU+/22H7zHmqlfZadQR/I7v/0vOU9p/KWMft+y2qDzPnIv6MY1wolN8+k9e0fdp3u+0LCzucp9Lts+Wj1nmqmPaSupxrI6mV9rQ9+c3W+/XWER3zujC0tWtX2or7yu6/nrJXtt0qW0e0r2vrrffa7b+Oujwdz7bi9mXy2rboWi1X99eqI1J64vkrTUuVvNZbl7dvt8qnvVK7lef2qVX7EebJPDWbp+w2LRu0b7311uGyyy4LG2ywQVwaf/rpp4exY8eGRx99NEybNi1WRMsvv3y731l55ZXjz6oh8GdfpR544IGw1FJLxe9XWmmlsO6664ZJkyaFl19+ubjNiBEj4tcTTzwRZ/uTddZZJwwfPjymbfbs2e0GEkgj+84WmE022SSm/957722Xhi222CLMnTs3PPzww+1O8pZbbhn/3vjx44ufDx48OIwZMyY+DObpp58ufr7ccsvFFQfcLvD8888XPzdPvSdPr7zySvjyl78c1ho0J8yeMyPMHLxCWPm1SWHA/HcHo6Yvv+gBQccff3zcPuUhr3nqyfPE94cffnj8fqk5M8IKb04tbj9n4FJh+vJrhuH958djno5l3vNU7Tylv0+eVp8+ofj5zMHLh9eWWS2s8Na0MGzQnGJ+OZ/15omfr7XWWvH71V6dGNoyDdy0FdcNC/oNiH9z6Dv7Z0CWfA5qK7RLS6Ffv/DCsFFhyXkzw7AZk4vbv/baa/Hn9Za9NEA7YsC8sFpm/28stVL8Gvr6c2HJuTOL+0/b13ueaJhJ/8aD5oQlM/t/YdgGof/C+WGVV5+K/2b/XIvg+GS3nz9gUDw22bLH9h/96Efj9115PYF0vSeTnux5Smnh2NCxoMOS6h62Lz1Paft0PTVaR7z11lvt9l96ntL+uT5AechuT703Z+DS7coe2/PsG9KfrTvZvvQ8YYVBi8oAEwMcx7T9gNcmdThPGLjE3Pj/WbNmtbtea50nJgyyaXltmVXL1uWv91uUj0GDBrXbvvQ8JVPI89Ch7er9euqI7LEJrz8X671lZ70Slp35crs64oUQwu67795u//WUvez+35o3s8N5SmWPUDZb19Zb76VztcrAt8NbddTl1D38f9kB8wIpoN5bavaM4vap7K21xNx26am3Lk/pmdO2KGAvPU+UPeq97L4bqcvZJtUR5c4TdTn1Xnb/rdA+tWo/wjyZp2bzlPpMtbQV6g3vc2DGjBlhzTXXDOecc0484Icddli7GXNstdVWYccddwxnn312QzPta6yxRqzUll122fiZI0WtmScuMi7C9ODCNFOS3Q8X3+qrr94yeSp3Prjgt91223DUpX8Pq44aU3Gm/YXxD4dfHLZXuP3228Omm26a6zz1ZNl78MEHwwc+8IHwucuuC6uP2qTs7MyUcQ+Gnx+2d/FY5j1P1c7HQw89FBu44668May+wcZlZ9qnjn84XPROft/3vvfVnSeOJQOun//VP8OIDTZql8bszOCUCY/E/V9yySXhoIMOCsdeeWMYkUlL6Qxu2v6OO+4Im2++ed1lr1Ze03VTuv96z1Pa/xeuvDGs1m7/7WdBs/k9+OCDw7G/uuHd7cvMtLP9hYfuFW/3orx11fVEXcIqNuqSlJ5KaefYgGul3fYlM+3V0l6rjmAVXXb/5Wba2f95n9493HPPPTE/7bfvONPO9ucetFtx+1R3Frcvma1m+58duGvsFLbbftQmZWfas9vTEaz3PHXMa/mZ9ufJ74G7hl//+tdxMKRa2tP25x+0W7j77ruL9X49dcT9999fJq8dZ3BfGP9IuOiQPeKqxrT/espe2XarzEz7C+MfCr/I1LWprNaq96h7ivsfvWnFmfZUl3Mtcjw/R37j9uVnq6eOe7BYF/J+evqKlfoXfK244oqxI5/Sc+Slfw+rjxpTdqa9XF7rrcvbt1sbl017pXYrz+1Tq/YjzJN5ajZPM2fOjME8gX+KQ1tupr0UGXrPe94TnnzyybDrrrvGERUC+exsO0+PL3cPfBaj1XyV4sTylZUOfKlUOOr9vHS/zXzOiS73eaU0Nvp5q+eJgP29G25Y8x2z1d4v2yrnic8p/wsDDfOi5YqLOnwd08h2bF+aprzlqSfLHmliVu2dH4RCW8e/WwhtZY9lXvOUVZpGtkt5igFXhx31i2Ur5Tf9bj15Sg1b3H+5fcey2r+4/8wfrZCWtnbbp7TXW8Zq5TVdN6X7r/c8pe0XVtz/os+y+Y0Nf7ntM2WPn6cy2dXXU6pLStNTmvaU17Lbd1La+Rvl9p+t3/hZKmMVt898H39GAPdOUFV+/+23T/tut/07QXJpHZHdvpF6sp68vrNl8btaaU/bk99y9X6tNHbMa79QKNOupKXWpfuqVvbKtltl64jydW2teq/d/uuoy8H/+Xe1vKbyT/9y+w9+sO4+RkpPPH8V0lIpr/WUpfbtVvm0V2q38tw+Nfu5eTJPrZqn1LbW0lJBO8vmnnrqqfDpT386zoRwL89NN90UX/WGCRMmhMmTJ8dZA/U99bxj1vfLSpKkRjFJ1EgfQ5I6U66D9pNOOinss88+cUk89xeceuqpcdTik5/8ZLzv4IgjjggnnnhiXIrEcoLjjjsuBuw+Ob5vS++YlSRJ6kz2MST1hFwH7Sx3JkDn/iHuQ95uu+3iPXJ8jx//+MdxmQIz7dyjzoNRLrjggp5OtiRJkiRJvT9ov/rqq6v+nCd/nn/++fFLkiRJkqTepuPd9JIkSZIkKRcM2iVJkiRJyqlcL4+XJEmN4S0q9Ty9mndOS5Kk/DNolySpFwXso0aPrvku6fQ+6WuvuaZb0iVJkppn0C5JUi/BDHutd0ln3yfNu6clSVK+GbRLktTL+C5pSZJ6D4N2SZIkNcznJ0hS9zBolyRJUkOmTp0aths71ucnSFI3MGiXJCnHnM1UHvE8BJ+fIEndw6BdkqSccjZTeefzEySp6xm0S5KUU85mSpIkg3ZJknLO2UxJkvqufj2dAEmSJEmSVJ5BuyRJkiRJOWXQLkmSJElSThm0S5IkSZKUUz6ITlKve1f1yJEjuyVNkiRJUlczaJfUEgH7qNGj635X9fhx4wzcJUmS1CsYtEvKPWbYG3lXNdsbtPdejay6kCRJanUG7ZJahu+q1tSpU8N2Y8fWveri2muu6ZZ0SZIkdRWDdklSy5gxY0ZDqy7YXpIkqZUZtEuSWo6rLiRJUl/hK98kSZIkScopg3ZJkiRJknLKoF2SJEmSpJwyaJckSZIkKacM2iVJkiRJyimfHi9JkiT1cpMnTw7Tp0+vus2wYcPCyJEjuy1Nkupj0C5JkiT18oB91OjRYfasWVW3GzxkSBg/bpyBu5QzBu2S1AtmLPKWHklSftA+ELAfcMaFYfja65fd5qVJE8M1pxwdt7WtkPLFoF2SWnzGotH0SJL6JgL21UeP6elkSGqQQbsktfiMRaPpkSRJUuswaJekXjJjkbf0SJIkafEZtEtq+h5peJ+0JEmS1HUM2iU1fY80fNKsJEmS1HUM2iU1dY80fNKsJEmS1LUM2iVV5D3SkiRJUs8yaJfUKbwHXpJat16WJOWXQbukxTZ16tSw3dix3gMvSS1aL197zTXdki5JUuMM2iUtthkzZngPvCS1cL3M9nnjSgFJWsSgXVKn8R54ScqXVq2XXSkgSe8yaJckSerG2WFnhvvGSgFJ6iwG7ZIkSZ0UsI8aPbrm7LAzw71/pYAkdSaDdkl9erbLe+sldRbqnFqzw84MS5IaZdAuqdep917I9CR7SepMzg5LkjqTQbukPnkvZPZJ9pIkSVJeGbRL6rWc7ZIkSVKrM2iXpBzynnxJkiTBoF2SWvgJ1N6TL0mS1LsZtEtSzmbOG3kCdXfdk++7pyVJknqGQbsk5XTmPC/35PvuaUmSpJ5j0C5JXSyPM+eN8N3TWhw+n0GSpMVj0C5J3SQvM+d9Nf3qfj6fQZKkxWfQrj4tTzNA9aQlpac36Gv5lfqiVl9lIklSHhi0q89qdAaoKwP3etPSW+4bnjp1athu7Ng+k1+pr3OVhiRJzTNoV5/V6AxQVwbt9aSlN903TPr7Un4lSZKkZhm0q8/L0wxQntLSHfpafiVJkqRG9Wv4NyRJkiRJUrcwaJckSZIkKadcHi9JkiSpV7xhpzvSI3U3g3ZJkiRJveINO12dHqknGLRLktTkjI4k9Uat/Iadrk6P1BMM2iVJesfUqVPDdmPH1j2jc+0113RLuiSpr7/lJU9pkbqbQbskSe+YMWNGQzM6bC9JktSVDNolSSrhjI4kScoLg3ZJkiSph+Xpae2S8sWgXZIkSWqhp7VL6lsM2tWtHEWWJElavKe1S+pbDNrVJ9/5KUmSlDc+T0NSOQbt6pPv/OwOvutZkiRJjfQJW73/q65h0K5u1xdGketdVQDf9SxJktQ7NdondLWpyjFol3poVUF3v+vZmX9JkqR89wl7w2pTdT6DdqkPrCqYOnVq2G7sWGf+JUmS+nCfUK3JoF255tPmOwcz+Xmb+ZckSX23z1bv9t3Be86Vdwbtyi3fWdr5HOWVJEl56LPVu31Xr/7znnO1AoN25ZbvLJUkSeqdfbZ6t+/q1X/ec65WYNCu3HN2WJIkqff12fLUx8tTWqRS/Tp8IkmSJEmScsGgXZIkSZKknHJ5fIvxaeqSJEmS1HcYtPfiJ3MauEuSJElSazNo78VP5jRo77l3eEqSJEndwffM934G7S3Ip1t2v6lTp4btxo6t+x2eXf1OUUmSJMn3zPcNBu1aLH3lHnveEdrIOzy7+p2ikiRJUjPvmU+/V0tv6MP3Fgbt6rZ77HsDVzlIkiSpVfuoja4edWY+Hwza1W332EuSJEnquecoNbp6tDuek9VXVu4uDoN2LTZnnyVJkqTWeY5SXvrvvh2rPgbtaseRLkmSJLWyVn7jT294jlIj8YRvx+pjQfv5558ffvCDH4Rp06aFMWPGhHPPPTdstdVWPZ2sltIX71GXJElS79Fb3viTl5nw7oonWjW/3aVXBO2//e1vw4knnhguuuiisPXWW4ef/OQnYffddw8TJkwIw4cPD31ZV450SZIkSX1tprqVZ/Kb0Uh+uyOemNwHVwb3iqD9nHPOCZ/97GfDYYcdFv9N8P73v/89XHLJJeGrX/1q6Ksc6ZIkSVJf1FX92d4yk9/V+e2q4z+5j94D3/JB+9y5c8N9990Xvva1rxU/69evX9hll13CnXfeWfZ33n777fiVvP766/H/r776apg/f35xH3wtXLgwfmX3zdeCBQtCoVCo+Xn//v1DW1tbcb/Zz8H29Xw+YMCA8Oabb4YlllgiTBv/cJg36634eSG0hbbw7t97ZfLTcdu33norbj9/3ryw46HHheVWXi0UQiEsLITQry3E34p5f3FKuPWK88MzzzwT013P/skP++e4ZLdPWy3a87vbg7SU7p99L/oL75peY/tsWprZ/uVny28/N+a34/YvvbP9rFmzauY1bc/x6bh9x32n7Sk3jWzP+a1n+8I7+WW77PaL8tox7ZW3n9nhPC3avi1Mf/apdttPfWf7cmln+1cmt99+yrjO2T7969XJ7dP/Qtz+rappf+ONN+JnHFe2T2W/1vZcq9W2T2lP21Muym2/KO1t4dWS7VF5+3fzmt1+StntF5WNVzLbk5Zmtuf81tqeY189r4vKXnb7ynl9t44o3b5a2kOZ7aulvZ7t03mqtH223izNa+n2HJ+O25evy9meOqKe7VNdwu/Vs325uqpa2qk3Ua6dyNYR2Xao3naF66mR7VM71LHeb3+e0vaV24n2ea29fee1Q+WPff3bV2uHym/fsc1ttt3ifC1Ou1WpzW283Wq8Heqqdiub9lQvV2+HGt2+8XartB2ijui8dqt8O1StLn+1yXaIY1+rzW2sHeq4feW0L5Jth6ZMmRIDxu0PPiasuOqIdtsuLCzKbb+2ttjH/u+VF8Xta+W1M9qtRtqh8tuXr8tJ/5zZs4vxRLm8gvze9qsL4vacr2rtULZd4VyVtluV2tw333yzQ3yDBe/EXv0zaeHYE98st9xy7eIq/h7pK43xKn3e1THhzJn0s0O7bctpK9TaIucoGKuvvnq44447wjbbbFP8/OSTTw633npruOuuuzr8zmmnnRZOP/30bk6pJEmSJEntPffcc2HEiHcHgXrdTHszmJXnHviEURNm2YcOHVoc+WsVjFauscYa8UQvu+yyLbV9ntLi9m6f5+3zlBa3d/s8b5+ntLi92+d5+zylxe3dvru3zxPmz1k9sNpqi1YN9NqgnYcMsNzgxRdfbPc5/15llVXK/s6gQYPiV9byyy8fWhkFtJFCmqft85QWt3f7PG+fp7S4vdvnefs8pcXt3T7P2+cpLW7v9t29fV6whL+WfqHFDRw4MGy++ebhpptuajdzzr+zy+UlSZIkSWo1LT/TDpa6H3LIIWGLLbaI72bnlW/c1J+eJi9JkiRJUivqFUH7xz/+8fDyyy+Hb33rW2HatGlh0003Dddff31YeeWVQ2/HMv9TTz21w3L/Vtg+T2lxe7fP8/Z5Sovbu32et89TWtze7fO8fZ7S4vZu393bt6KWf3q8JEmSJEm9Vcvf0y5JkiRJUm9l0C5JkiRJUk4ZtEuSJEmSlFMG7ZIkSZIk5ZRBuyRJkqQ+yWdyqxUYtEsqy0as649jHo9xZ6Rp4cKFnZIWdX05yVMZtNy0Tt2zYMGCxfr9ztzXm2++GebOnRv6kq68bufPn9/j6a53u8U97y+99FKYPn16aGtrC10pT/Vsreuw2bRyHc6aNavqNrye+4UXXghd5e233w69mUF7HzZnzpzQF3RGZVmtU9HM/ruiUeR8khYqzmY6wK+88kp46KGHwsMPPxxeffXV2Ih1ZSe6sxqxzkhjPftoNL2cDzoU2UYs7SP9vdJ/12vmzJmx8Xvrrbc67KuZtL/xxhtxf9OmTWuq80Ij/Je//CX85je/CZMmTQr9+vWrmqfFPfd5Cu4qpYXPm83njBkzwosvvhieeOKJ+G/OSdpXqrcX5zp/8MEHw6OPPhr/TnbflfJRy7PPPhv+/e9/N9WBJh2f+cxnYh1bq9x0htL919PRrHdf9Zg3b17Nbah/CSSa9eSTT4Z77rmn7LmdMmVKTEMz9fv48ePDOeecE7/v379/pwTujz32WPj6178e67Jm3H///WHPPfcMzzzzTI8MCkyePDkel0Y1Wzdw/XLeKtXTTz/9dLjppptCs2j/f/jDHxbrlyzqo7///e9NH8977703fOITn6h6DdC2oZ526PHHH4/7S/Vkox555JGw9957h8suuyzMnj272wcFOFe33XZb3fsijY32HTk25K+e7U477bTY7jTTB6AeP+SQQ8KNN95Y8ZhxrW+22Wbhuuuuq/saaCTInzBhQvjGN75RVx3bsnhPu1rTuHHjCr/5zW+a+t3HH3+88IEPfKDwr3/9q9CVZs+eXfFnCxYsaHq/b7/9ds19vPDCC4W5c+c2/bcmTJhQ+P73v1/89/z584vfP/3004Xbb7+9+O+FCxfWvd8nnnii8OUvfznuvx7z5s2r63x+/OMfL4wdO7bw/ve/v/Df//63oXw//PDDhc0226ywwQYbFEaMGFH40Ic+VJg0aVKHc0k+33jjjYb2nUyfPr3w4IMPFh566KHCK6+80m4fzz77bOGSSy4p/OhHPyrceOONNfc1a9as+JXKQaNefPHFwt1331345z//WSwjpef3zDPPLJx00kmFn/70pw2f58ceeyyej0033bTw4Q9/uHDppZcWf8Z5P/nkkwsf/ehHC6ecckosD43s+9FHHy3stNNOhY022qjw3ve+t/DjH/+48Prrr7fbZsaMGYXnnnuuuO9q54v9UW7GjBlTWGqppQq//vWvC43gfK6//vqx/Ky77rqxDHH8SpHGl156qTB16tRCo55//vnCn//858JVV11V3HfKz8SJEwvf/OY3CwcddFDhl7/8Zc19vfbaa4Wnnnoq1g/Zc16vyZMnF373u98VzjnnnMLLL7/cLi3Zc/zZz362sOeeexaOOuqoqvVgqUceeaSw/fbbFzbccMPCOuusUzjjjDPaXecf+9jHCjvssEP8uv/++xtKO9c5ZXLUqFGFtdZaq3D00UfHspI1bdq0wl133VX4+9//Xvys2rXO+VxuueUKa6+9dmxP6qmvUnnn+G+++eaFtra2wt577128BkrPyzPPPFO45ZZbmr7eOaZHHHFEcb8pP5ynTTbZJNY9M2fOrGtfTz75ZOHyyy8v5rORepA2+zOf+UysB6vtf9VVVy18/etfL5avRus2jidft956a/wsHVeuHT7nem+0beT4kK5+/foVvvKVrxQ/Lz1X5PEnP/lJrJ9r4TiQnmwZb+R48vuDBw8ufOELX+jws5Rn6jfq2zfffLPQjPvuu6+w7bbblm2vuf5WWmmlwrXXXlvXvh544IHCgQce2FS9k36fevbOO++s+HPqcMpzM9L5oD6t9LOf/exnTfV7+P0hQ4YUjjnmmIrbkH7axXLtR7lresUVV4zXNd83inK6wgorFE488cQO11nKF+34Rz7ykbr7auXq2y222KLwgx/8oMP1QLvJ9UT6uWZroRwfcMABsW5O124t/I2VV145to3UodXSOXTo0MKxxx5bPJaNnFvSRhvAuaVdzUrXM+d/2WWXjeds4403LkyZMqWu/a6++urFdn1hlTSR1yWXXDKW0b/97W+F3sqgvUXRGV966aVjAT3//PMb+l2CMTrZw4YNiw3ATTfd1OmDArUGBuhoX3TRRTGQaxSVCh1agq5KjTxp59hsvfXWTQXupI/KbuDAgYWvfvWrxc9pbMePHx8rHn5+ww03FH9WTyVHh2z48OGFZZZZJnY0+DuVKqt999232JGs1hFmWxofKtzTTjstVtDsn3TWgwaJNDGQQCP1q1/9qrDzzjsXByzIV1cOCvCzNddcM3aMCEKXWGKJ2CmuhLTw+1tuuWXcXwou6m1k+HsEqAQu5JtO+5w5c4r74OerrLJKDCI++MEPxmNZraNRimOYzged0cMOOyymlfJK2aVxPOSQQ+L+d9xxx/j/eq8D8k4nkbJDEPu5z30u5uN///tfh6CPa/w973lP4fDDD69Zdr70pS/Fho5AgU5f6sTUOqZcZxzDr33ta7Hjcccdd8TBhOzAC/tYnIGBaoMCqePDMWRwpH///rFeqYRjs9VWW8U0Lr/88nFAppHOCWWDQJp9cP2vscYacSCidBvO0Sc+8YnYIeT7I488sqHOD9fiH/7wh8J3vvOdeA4ZtCDtpJmyeOqpp8b6gcGb1BmslQ/KJWWPfVOOuL4JtBnASDiedKg4PnSw2H8tBPmUb/bFdcO5z15PtRx//PExTfxdBiJKA/NmBwXqGRj4xje+ET+nDFHvlQ6ulKafAQ7qr9GjRxfOO++8Ylpq5ZOfky/qVf7e/vvvH6+dcn/n4osvjtsQjHJdpQHOtF2tv0W+qLd233332H5l21/KJseRjjD1eL2d/7Rf2lOCDI4ndUZCO0C6CIy5Jkg/bVG1c0VZI4jLDgCg3vNLXiijqX3m71MWuVbSQBRBdVcNCqQA+Ytf/GJD+yrNb731D78/aNCgdsc9uw9+3kh6yh3PVOZKz3s6V1yn5dQ6pilt2d9nv9lzzbkaMGBA2b9ReowYAKb8ZttlBmPpU9RzPPnb/G6ql0n/9ddfHwfX77nnnnitduWgAHUudSV5rZTe7Oe0C9T9DAQzwVEPBu1HjhxZtrxk0W7ThzjhhBPafZ4mZ2p56623Cvvss0/xGiHdlBcGF7gWwb8pW/QvGHxlwJjjjUoDWI0E+Q++c21xTml3GRij79xI294qDNpbEA3SJz/5yTgi+a1vfavD6Gc1VEbHHXdcYb/99itcffXVsYBzQWQDdwr64gwK1BoYYN90wtg3HcfSmZ5qGC2kgqHxYt9UsKWNBg03nZbddtutsN566xW22267hgL3V199NR4fOsV06ggkmXFNFRz73WWXXeKxY/DguuuuK/5utUqCSoTKhHNHZ5zjQiVTGrgTkFCpcXy22WabqoE76SHYTekDlRuju7/4xS9qpokK91Of+lRsmLL4NwMuXT0oQF4J2OnI0NGncTv99NPjsaGzXpr2FHiQFvL36U9/Olbs9YzMZ9NCx4R9EewScKT80yASJDEzAwKia665Jn7G9rUQwFHesg0l5Z1rgdF2Bgiynbbf//73MQilw1RPuaQjzuxoFuc6dT7oKKTA7B//+EcMYCm/F154YYf9MSJO5zvbSSKPBDZcZxzTajNCdNB33XXXwuc///l2n3N9/PCHP4xBDdfn4gwMVBsU4LqhU0KnPV3XdGpYvVAO6eDY0Ili9ozzQEe0NOiuhPJOAM7+SQsDLQwiMPufcMz4LHuOORacs1p1D9ctdXH2d+nIcoypP7lOsh3qn//857E+oV6oVYcS+HE9EyAnpIfrkM4TA0r//ve/4/Hhb3Csbr755pjfSrN6aR+UA+o0jgkDJwTAaYY3De5VQ3ngvHFOCCapW8HsCp2xxR0UqDYwwL6o4znmBLiXXXZZ1X1yjqibOZZc55TxFOjXE2xS59G5JZ+kg+NcijxzrbCagzaAtFFPo9aKDc4H7QXHi0Ef6knaSs4DPyN//Oy2226LAw+0HUmlAeQsBiBZ2UM+qBNTwEzZSTPZnEu243hyzMsNhFC/0BmnD5NQ79MW7bHHHoU//vGPVVdVUN4Z3KX+SmgLGExjUIX/X3nllWUDzc4YFOB6Yd/pemSfHAPSzbGtFLRm2+m0z3pQLxOU0N9Lv0dQxuccJ9o1+mvUbSk9lJ8LLrggDgLVqnvSCozsAO+3v/3teH5oDxgMTXVHKkfk/eyzzy62i5X+BvUraWeWGPTFuAY4z5w/rn/6UBxPvk8o85VWmtA3YACJc8Gx+H//7//FIJ50Ug7+9Kc/1TymDEiee+65xe+pG6hjWElC+lL/rCsGBVgJQR8zHY/vfe978djTtlDvJmllI3UF13L2fHHOKY+VULfttddexb9B2WDVAP1aBs1TnUKbSj+TMkM66QtRB9PesPKx1iAB5Y9zQZ3P36G8cCypq7nG2QdlK3tuqXeYsKikkSD/3nvvjf1R6nGwyofrNtVnvS1wN2hvQXQcaNRpIOi8EAxkA/dahZTCnwI6ghZmULOBOw0ijWczgwK1BgZo2Olo0qjTKLBvliHXE7iz3+9+97ux4vnPf/4TGwEuztLAnQaA9NOIckHTiW4kcKcyY0krnR465lSoKXCnMqEiZPaChpsANhu4Vzv2VDZ0RAlawWBIaeBOh4vKmZkYOh00agRllQJ38k6FWdqxZlluGnGvliY681TmaeYzVYgEVzSCNIpdNShAQ8EyPBrc7NIxlqxT4ZeOrNKAU9GXznqkhr9WWjiGBx98cOxUZlHGmZnmdynnNODZ2S0aR4KX7Gx2JZQ3GkXKZzY9lBPKLR0Vgr9sGSRo51zXQueIpdGUa6ROLZ36Qw89NF5DjHhnG3eOK8e33Gw7nVKOBas/sseCxpLAmIaQmfxqjTbXSLaTyowWHSdm1Rk44w4srr/sjEK9AwPVBgWo8zhPBInZoIDjTNnnONOIp2XIBJSUt+xsAuWB7QiMuf6qLVGk40R9RtnLnjvqgrPOOiuWPwIj6jRWUWRvV6Au4XhynVIGWJ1Trg6iQ0jHOBvIMaPOAOdqq60Wl/7x99LxYmCJzsz73ve+WIbS4EG5a4AOPh3U7IwRA4d0UPld6jeCO8pRwnHleuMcUz9UW6rNsUkdZc4ZgRP/J0AsvXUjSceAQbH0dzkXdJwZkGVAhjqAY784gwLVBgaoI1k5Aco6ZZ988D2dv3IYgOEa5JoiOEz1IPuuJJ0Tri+CQOoX6hSOEfliMJSZW3A9kkZ+J826c10RjFA+qtVx6Ziy3V//+td4/ZNvyg4dfwb9KPPUadRnXJucY+pFrrNKS8hTmaMsc+3RDvF/2nWOH/vhPPH3ae9p22hDmDlNdTMBS7o1hvPGeaYdoP6gruB6pk3n98kz5TN77Epx3RHoMYBA/c3vU49yzLhOqHs4vp09KMC5YRCSmU+OIceGepdVRKy+4fdo01N9wuAog2Fc++DYce1yzbA/ArhqS5cJFqk/GGRJ55c+FH+P64Trl31TT/z2t7+N1y15pI3m3NBHoj7OruwoRVop+6SJ+pk2n9+hPuV7jiXlh3LLsWbQinPP9c1gRGqTyp0r8k9/hjad40X9zL65Fiib7CO1GQllkb9L34o0cQyy+2cgnDqG+oL+K/ml30AdyP4ZjExtcCn2wTFitR5lheNPm0I7x7lkHxxLVozQ/+GYd/agAOWK4wn+z/GkjuNckm8GWxKuST5jdRRlJ60ypAxyLijL5VB/8Tf5HY4H1xiDAnzP71MPET/Qd+WWqVTfc/y49Yvzw3GgL1+tDqdtIcCn/qM/x+/T7tI/pm/Jtcw5ytYjrBKk7cpOeCXsh99JQXi1IP+NN97osLqEfj5lnzqttwXsMGhvIYxYEqTR4GaDHDqfNFylwTUXa3bZbaURZkbasoE7FRUXG/tqZlCg0sAAFTCVHTNPdNTAPhsJ3Jk9pGECncjSwD0tQ8yOVlJ5pMA9ey98uaWG6Rhl72+kQaODkAL3NLLMvrivnQa0dMa9NBBJjS3HM/s3makhcKeRSoE7lS2zaGxHY1gauLPvVBb4OecvSQMTdHxKlzuVSmki0ExS2ggsmBWm4SPY4RxmA9nFHRQgf3RCqLyzSxdBOaDBzM4+U95poNMy8+y+CGRLA7tyOF8MdmXvUQcjuazIoAFg8IPymfA3yB8z5XQKaqEBY/a89BjTWSSYz97bnpYHUq7K3YtdLrArt2+ufQbY6BDTyeL6YLAknRc60DTUqXykskPHJ9txveKKK2KHk3NFMM21Rmc/m+ak3LJgygzHiWAhjeJzbmj4GexqZmCg3KAAnR46GXSi6EyyTTYIpcNMB50OLZ1ZzivXLJ9ll4ITKBFUcPzpQBAQVrvXmAHIbFr4e/w+1wKdCvJCfcaywHRcmImifiPPdAbppHNdZa+l7LlkNUVCh5KOGX+XdJFP6jqOAX+HIJsVFHTa6CzRoeRvV5JdUcC+STuzcdRvBIx08OkQUkZIPwMQzJZS/9DZpJPMtcd++H+23uAcZjtOBDaci3IrPErrRgaxGHhIx4Djyd+lzks4j40OCpQbGKDMs/okDQywH8pRKq/UVRxHArLUpqR6N51TAkLaNjrTdODTbR+cK+r3aoPC7DPNOHK9EuQRzPCV7pvl+LDPNHjDNU8ZonOaBitKldbB1P1poJSfMSvOPggiyG+6phkgSKveyt1ulr5P+yct1DGpDqDtoo7I3qdNEJTuiaZ8Uc5YHUd9TznjGPBcCP6fbjNhEI9ymP4e7QPnodxAabbOStcX9Vu2r8M1QbrIN32BzhoUoG3gWmbwg/JNsEXe0uAf9Ri3a1F+mYmm3eI6oaxSR3D+2JZAjQEQAjXKIoOB1WZNSWsadORaYR/U8+SNup96gWuXc8t1zM/pT1DP0CbxGce4nHQ82Y5VTRwb9pkGzakPCICoa7lmCMAZYOT88ztcV5xDvq+Ec8uxZ9+kLXuueB4AqwToozGDz+Amg2qcW9pqAlmuL/ZPmaGcUk6oR9mGY5gGvMB54Gf0W6vVPQyIctxol9lPFgEj55e+QWcNCtBXo41kH5Qr+ozU7eQ1nXvqBAZ9+YxrBLRZ1C3km7aNfVHPU6dR7zKIWe4WVGbaqUe4Fiiv2WfJELxTjigj9HlID2nhOs7ek06bw3VYLrjOXjccI/4G5Tz1UVI/g2NHmtMzkcDfoEyWu5WD85YmiaoF+RMmTIjXU/a5Pel2KAYKOb6pzetNwbtBe4tIo58UfjowpR0fLojUgKXgmoaAi5PCXe6e2ew+CD7TjDiVExUxMwF0eOsdFEiflUPFRcVMA5ce2kIHh44JFXMK3FMHjLRlK49yFx2f0RhQYdChoZNJh4yGk5H8NDqLcjPuBMfZ1QVpn9m/lfLDAAENZ3apPEufqHSoQFPgnpbw0LgSvJC+1CGsdJzoSBGEMIPDaCqzJHRYaUxJKw1zNnCnLNCA0xHJloVsZ4uHHWVnlDk2pAc0uLXKAxUvlSrlis4yjRh/PwWDizMoQANLh4qOfTa4TGniM4L2NHPF7zPrRgckDdggnUeOFx2grEoPQSr3EDT2SWeFspOCOtKSPZ50OLMj2n/5y1+KM7zZslMu/+l8ZO9rpsOQbjvhPGaDdsoD5QCVyk9232mlAGgkqQcIPlIZY3+Ue3C9latH2JbykTruCb/HqpikUtkBdUXpLRNcM5TddGzqHRioNChAOWB7ltyBa4aOOTPIXIPZRp0OPx1NyhLnPXWCQOeQOocOFD+jU0AAwgxDtWOdcJy4ZplNJPAhP5xHgsBU9uiIMaOWHezhGPF3UzmuVHZSh4kOVfa6pDNHMEa9TocyoYzQqcl2VCuVHdCZYd/83XQd0XlNSzbJF8eN45Jm2KlzKA+UHzpibJvOEx3ItJSUTicrAwggmIHhHJOHSmWH40cnm+PGdUwnlPPDQFoK5qnL6h0UqDQwQNtDG8QsVnZggC86uOnvsA0DInRiaUdoN2hTUjmg7GVvf6GeLL1ft1InkXLK9mkWlnSQD85ddkCIa5NrBdQbdNopN9Qb2RUPlcoP11Oq/xlYIKhiUIqBJQKy9KAyrhkCMc41M1mpLFQqO5QL+gipTqPe5LwTVKXbdigLDKYkXBfkkb9P2aFjn2adKRsEgaVLyikLXEssxU+y5SebX2bX0yB39vM0G0kaO2NQgOuN80x9SkBLvca+uSZLb89iMJ6BH8419QvliHxS5qh7s+eQ/bGMOPtg23LlmLRwTMgLf58glnqH8kz9TxoZHOb/pfUwfQgGSrOrQbJlJ13H7JPzw3WfPRb0xQhw6ROWthEEr6wkSLPtlcoPk0EMOKZ9k7e0f+oJ6nHOCeUkO8DItcdxJu/UO6nsMKiSHriY/dupDiJoTuWhXN1D/cz+sgM46XizGpLjRb+pMwYF6KNQr6Q2n7qMtolrKdW5CeeOn1EPkm72yTGhzmHAMFvvU3fy+/RJad9INwOKHH/6vxwzBgQZHMueD65z6oI0o89AHGWbv5kGX9Kx45rN3paVPbfpekqrQqk36VOnPiqBPPVudsVL2i/p5BopLU9Zaf+lQf4D7zxPovTW3bQ9aSR/nL/exqC9BaSHUDB6lO08lCKIILimYWC0ksqICobRuOwDhVJAkL2ACAbp8NJw83uMvhOMpkqo2qAAFW+1QJBZIi4gZt2yAwM09mlggAA6Be5U2FRCVCRUYLUCTCpsjg8j+nRCWM7DjF/298hnCtxp4Ogc8vcYpWPGhA54WraejgdYUsZxZ/ka6aKhIP1URPy9NLNFxcPfpjKnYmXfzIDTsWF5fTnZJxjTsSEPdDKo3Elr9unEKXBnYIBzw/dUipWWM/J305JozlEqCygtD6X3apN3ZkhoSGlo6YzSgNHJT2ludlAgPUGWhoxKOOUxDQrwt+nk0Onn2LM95ZlGLNuQZwc90q0YCY0pnTL+HuetWvnh2qJMcMzTfew0jnT4GFSibPO3CCBSQJiOJ9diubKTGrRs2aGxSasBWJZGnlIHilmX9PC09GAszgnHolr5oUxTdpjtoVPONZTSlu2c0YEkgEr1CHljuV+1GUH2zQAajW52qV6luiS7L9JNp5TGm84T1zHHkeNJh63awEC1QQE6tZTD7IMh6WyRf9KbZqn5nvQQuBAsZJd8p7SS7tJZaWYl0jI+VCo7YACJThLHlGuePHKsCDKzA0bZWWDKHNuzDeen3nonu0qHDjuDnKUrhbhOOcfpqbnVyk4q+5QdbqWgE0zdzmwaA0Dsk/KXZnrT3+BcpuXOpe0Q9Xla/k9ZTLPGdBYZ8CI91dohOsZch3Qw6ZTyxSAZ9R3HgAeipqCw0qBAtfJD3cR1QbtSOjBAwMRxoz1jv+SNTjZ1DuWtdHCSAc20vJ5yS36p82lXmImlvqhUdiijnEO2IYhjAItjQv1DnZ5mjUgnbQ1pIq3UiQwwkQfq2vQsgUrlh/ym57kQ8FD3085SvmmLSTfHnONNWaSepe0hiKlWdsgTS8EZbGC/tHkER3TKOR9p1Ua6l5Y2iAGWFKSQRwZGs/U3/04DoKmsEThwnWSfAl1afrIrsdhfqncYgOH3yR8DXLQ1pUFdo4MC1KvZh+bxc/LN8aKtTIMd6feoo6h7ss8foUxTllJastcP55iVQEm2/JQ+pJBBEQZ/GCjh+NNucT5JC/ki/6WD1lxLzFinQetyZScF8ZQH2vxs3UPbS3+Dvl/ad/oZZYtrPK2mKi0/2XxS/jlWqe7h3BDcMtDAAAR5yQ7Mg7JJME954NrM9otIJ9cExzvbP2CgKrXn5cpOulWA64Q6ij4VkxPUY9SlBKlcP50xKEC55zonjWnlHuWagTrqU85DdgUYf4v8Un4Tbgul/PF56WobyjiBNeWBdoh8p3TRZ6NeZWCO/mhqV+hXc8zT9cU+GUwi6C5dUUhdRx+i1rml7SCfTGxxPFM7QZlnMKl0lSnXL6vtGARlvxwv+rkc/9Rusv9Ut6cg/9e//nU8Ftl+QFbanjqUvkG9D+5rFQbtOUfnkIa39D7eSiP5VLxUbnRE0ogcs29UMszc0MGkM5D9fS5gOmwEojQ06Sm7aXlgrUEBVOqQpaeOpvvaqESojPhdLsDs0m46o1z0VGKkg8afTiAzYEnpPYzpIVd0CugEsV86JVQEzIaW4u+zDceHximN9KZ7DRkxZxkXlQeNCwEO2zMIQCVAcEXlyO/TcGafvktQQaeP9KR7zOlgUZEy6kmwX9ogpVfG0HgxWk0Fnx4mk60U+T+NCp07Km5GGVPQkT2XqcLib9LBSMtoyWtaglWtPKSyQGeYfPO7nIv0NPds0N7ooEC2LNCxoHIHFTp/h3SRDso8x5FlhpQHvrKBXunr/rg2GAwCyzJJS+pAVCs/qewQ1DHTBBpr0pIdRaeTQgPO7xLccOwZVGmk7HCc6ejy++l88PvkgfJEgMksL7PIKaCrVX5S2WHfLLGkXNAJyK5sADN2DIhQj/D/NABTWnZKcSwZWCFf9ZSdNIhA+WHWhLSkuqT0loZKAwOV6hHqgtIHFYHBB677dCwTzj/lhpn57JLzcvexpod3sR868Sk/9dY9lH/ywaAM5ZCgrtI9j2xLuUiz/vXWO3TUGdAhP2xb+tRvfkaAS4ennrLD8Uz1DoEc1zizQtlXG2XLBtckQRp1cxowSMcOBAO0O3TeS+/tTuWxXNlJ5SG9BYGOMP/nOqB9IG3Us3TwOCakt9KgQKXyk+od6hs6sARIBAKsiqKN4N/pCfKpzeN3KL/sL4vyQ2DNtcS55neY7eLvUxYJXilv1coO25Ge9OAvyk56ACYdU8oAAxH8ffafvZ4ZvEgPH6tUfvgZ55u2hLaaACbdjkba+J46iL+X3TdlIt0eUqnscN75N+WeL84Hx4FrjdtNQOecwX+CRM4VaeJ4cWwoc2mVQbWHXKYHwFKeq9U9aR8EI6kPQ9kh3/yfAIRzU3qLQyODAqV9mDRYxkA7/Y7SGf5Udsh/6WsEGVRID1FM1w/XDmWbwLpS3ZMNGjlP2XoHnCvKFWW6XJ1OcMvxp39Yq+yUq3vIO/9OD37LIkjkdwhaK9U92bcQUcZS3UPZoe4hP2m1QvYZJdQ7BKQEuGmAJQ3KpuPJOSC9nH/SySA+++M6qVR2CIIT+jYMLHG9kBbaUcoP7WZ6iBp9qWYGBeh/sU+uN85hqrfT62CZpEoDy6w24RxwLRH0lr46LT1fiv5z9nW8HEP2T96zg8TUbQwoMdnA4BxtP/Vf6v+mVSMJgTv9eq4bVjBxzbNPfpdl9JXObfZ5PJRJ+hfsm8FR2lTyUulBuwyO8nMGn7L1Pn3C0mdVsY/11lsvnhvSla0/uM6zy+TTZ8QCle75b1UG7TlHxcOFxgVVbmasdCk3lWy6P42KPy0PoSLjQi1dipNemUSlw7I5LhoqEC4OLqLSjmp2UICLqFqDSkeEET4ahGw66VxSyaTAKvszKg2C13RPOpU2nXoGCxjppfJMF2t6KAojtlSGVCSkK1XiVKLZwJ1tWGpIA8xxpRKmk0iFRCXLiCKVN8FVGk3m71JxUwFQIXF8qGTpVJQee/4uP2e5GLPQKTAiv1RE7Ddb0aQnZJIntqfRoEJmZLLcU4LpDJN2KqJylWA2PZxPjgEdccoC+alVHlJZoLIlEE4jxAS0pWWBSraRQYFsWQDHiI4c55S/Q+OSkHc6lPxtjnW2Y0nDTRnPvi6GmXEGOgi0U9CbZhQqlZ9s2WGwhQaUBoQGu1zZocFL5Zb8NVp2+H3ySWeONGTPFZ0pjjvnln3T+alVfrJPV2XUO+2b8lNadlh1wIgz55ttSgfjSssOAQNlgO0ZGKin7GTLT1oGS8esWl2SHRhIA1D1lB3QgWCFAuWj9J2s/B2OJXnNXieUHcpKmu0oTQcdQwKwWmUn/SyVHzrm/H61uocyybni2qVuq6fsMIhD2SGwo9yl+2SzaWe/XKt0fOjMN1p2uBeSwQauGzpK5eodfo/6hGuDWY5KKzSYtco+1JDrs5GyQ4BHuWMGnOPC8U6v+OOWKs4F35cOClA+KtU97COVHfLAdU6ZZoUGM60E/wwgcszSElg6xKXlLZUfOuoEXeyHAZQ0UAk6zGkf5coOARHnjr9NUJFWdaR6LC33TQ9aJAhOnf9sYFhv3UN+/+///i/OZPL3aB/5N9h/6bun6yk7oL6kvKQglp9xHdBuscqINJA3rg/anmwfJnvLWpItz1zLpIH0ciwbbbe4Phgk5Prn/FLvZCcGGh0USGWBVYIJeUx1D3VlFu0af5u2K/tASdoByk65a4dgjHQykFet7qH/kq13kOoegqRU76Tl56Dt5DylwKnespPqnvQWgHJ1D/smHZQRAvFG6x5ud2J76rb0iq5SDNhRFjgH5d5ukNJD4M0gAP1H+rH8nUbKDtcKaWH1J+eWSQvOCQEfgXUzgwKcT9LN/lh5QpmgHU4Po0sDuwS9TFIwKEodS/nJ1itcq+mNKPRRSC8DRvSDqLP5Hf6fRZ+ANNO34JpKK/I4HxwD8pduu6HPQL2Q3upAHikTnD8GRettV8Ax4XfZJ/0A2pbsdVDa7rLSg+NC3ZSt98v1GTiegwcPjmUx205Rn9JHLfegxfTQw+xAc6szaM85Lmg6n6UzG1lUdlSgbEOnlAqUDgKdDCoYGgKWrlFRpFeGMMJGRyi9toSOA5V0mtlilI2RXi7aVFlmlyPRANSqFGnw0lJcLj4ubhoiAozSB2/RINEApBlbRnXT/Svct0LlQmOcrSDS0maW4RKY0JEgL1QC/A4VFpVlasQIDKjUU9DCkiQaY+5dBJUEFUJqONkvqxXSg+7IL5URnQOOG8eUmREqRO4xY9+knd8nnzT6oLIkgEkP6KCxorHIdgaoNOngpBHY9HCb7PvK6URy7FKFXqksUHGSf45HqjBrlQdG3NPxoyxwfjl27CtbFlJHj2V/jQwKlJYFGizywld2tJcyTCc8/YwGL1XcHE/+XvaerpT2lBbOE+mvVX4o55SdNKuV3ovMtZYtOzTa/A4BHccrPX27VtkhGMqWHTptNGY0Ytmyw+gwnQG2SwFmrfJDQ8fAVio7zNLTEaCBypYdGkGwOiQdz3KvSMyWHWYDOB78fr1lp7QuoZNMpy+VlWz5SUEdo/+UIcoI2zdSdugYM3BIGrJlB5RXOqV0BOnY1Co7HFM6QmmAop6yk/4O5YfjQueEAI7OTrm6h5lF8sqsBHVzI2WH7zm/LEkuLTusRGHZIuUjDYA2WnYIwtlvadlJ9Q7Hjw4hnf5K7VA6LpSf0oC6nrLDcci2Q1mUHZZUU7cSTGSXOqZtq9U9pWWHII1jQ92bDbiytxlxfrK/ky0/6Rko1HnZAYo0iFhP2eE+auoT6p50HJnZouxwPik7nJ/SVVnZ9FUrP7Tj2boHtE8MAqTl+JSf0iConnaLa6Q0iAXtFiuGGFShjWSgIM2c1tuHoe7heiEoTXVho+0WdQkBEx34cvUO10wKVuoZFCgtPww8kM/0UL8s6kvOHeeiXN2TfTguqDMJEgl+SEuj7RZlkes23RpYrt4h6CYASisoGql7GMyinLBP6q9s3cMAHbdjcXybrXt4rkJa1p/qHvKT6h5mnrnuabdSvZItO9lbO7Ov90oBXaNlJ4uVAaneYcabf1Mm2Ee9gwLZskO5YeaeJekMsKT+b8oDwTIBP9cPg3alZSe7ZJ06m74yA+O0PQSs1eoSjm8auOIWG1Zrcm6z9QLtJfvj3DKwwwAkX+mWiXrqBspbvdc69VJawUL7W67eL40/OJ7vfWfpfXr4bKrLSx+Ul/4uk0HZero3MGjPuTSqnZ2JLEXjkR70kF16xVI4ZjPTrAEjbiyl4eKk4qeCyTa+2QeSgAuYCiM9BT69ai41APV0yJhtotKg4mKkjgam3JOyqQDp6KeAlN9j5JTKJi3FT/fRMErOhUwjwCgj6aaCp0Fi2Vt6qA0BFpUkFz7Lvjk2pfcdEdCwlI+ZXTr7jPiSfjoeHFNmBhjR5HMaAyoDOig0MIys0sGggqRjTSWXKis6DZw3RlAZzaZDT2eCv0HAQSNdrmNIJcbIIUE8yz5pxNPxZsCEyrVaWWDmm3RTwZW+Mq1SeWAWmONI2rJlIXusSssCx6iRQYHSspAeypP2l0VARMOUgsdUdhiJpnEoxXGlfGTvka1Vfrj3NJUdGikaXxrG0rJDw825ZJChdGaqkbJDA0XjX67sMDCR7mmrp/wwyk2Dli07dDxKyw6dNY4l29AZqFV2UiPPtcj9r/WUnUp1CfVIpbqEz7le6KBRfhotO5xXOh7c31mK+oPzRABQT9khPewv+1yHRuoerjGuOQZfytU9/D7nno5DdrljI2WHJaDM7mXLDr9L2WGWvfR9942WHTqd5eodgkvaH+p8Onv1tkOltyAsbjtEJ5TfrfSKyVrlh5lIOpmpLNDZTGWhdCAm4XzWU35K1So7tEPZdivJlh0C1tRuZV/Rl1Wr/HDMs+0WUvlhkDDVPemBjp3VbtG2U9fwd1K7VU8fJtU9dOhL3wbQaLuVnYUrrXf4fyODAqV1D18EXWnFQhaBJfUZAVQ9ZScF2dlz3Ei7RX3C7VbUdZXqHcpb6VPdG6l7mElOz0JIdQ+DPpQdVlaUPp270bqH+/gr1T0EurTLtdotbqsk3eVWCTVadrL1DhNBrIxK9U56aG69gwKUHQZPsmUhW/dkr/80S1yt3im9nYSJLgY4qtUlqTxw7ab6rVq9wLHi3GZvD6y3bmAVSL3xCrPfpYN/teIPPProo7H8lTueWZXqzd7AoD3nmBngwqWQZt/lmb1I6VRll9xmL24qJ4KjNFLHvxmZY5lLanxLX12R3TcNHAFW0kiHjIqACoRONJUqM5nZ12mVSqNjpJ+GO41C01BwYdLI0Niw7I0gh3RToafRvmy607644MknxzErmw9mQFlyBPaZluakII0RcZaosU8e+sEyzhSs0ihScad/Z489y6RYhsSyHipjKhg6qemevmwFnZ7Em62AmFWi0U5PSK6nLLBMnMq03H3ulcoDeWf2IJWF7O+WloX05FbSUvok9kbLQvaVO+nvsAyMWcsUiFQrO9m0ZQOiesoPI7mp7LCf7IN7SstO9l62ziw7NIKc2+zysXrLTyo7zMBWKzt0okkvf6OessPsQyNlp9G6hFmKtN/s7GajZYdZ19KyQ3DGuU1LcOstO9l0dEXdkx0868yyQ+dnccpOrXonDYrQOay3HcqWn84sO3Tysu1QqVrlhwCgtCxUKjvps0rlp9Iyy84sO1y3HJfSOrYz2y2Cna5stwh6Gmm3Gq17StuteuodgoJ6BwW6o+7JDo422m5ly0uteqdV6x5WazRa73R22Ul9nnLPYGi2/1va5+Hcsq/0XJh6yk46d43WJY3UC42cW9TbTrBatdH4I/sA1V3rqMvT8extDNpbABckFyYPv8jOBjAqzQwbFxGdH5acpGVEFNb0blCWvxDU03DRGDCSxkhmqkBZ9pK9cLIFnVnA0vtlSrep1CHLBsrMNLHsh9m1cn+r9EExYJaTCjyNGjJbwsWYXtOS3itaWkFkUUEwmlc6c5g6oyzLSu8FZbkZy7X4m6Qzm0YqD0ZRGWWs9i5nUBmmp3kyisnSHZYzMUJPRZ59iEilCih1lNlHekUen9dTFqh40zsy6y0PPGymu8oCM5WpLGRf9UNlS95KH6RWrexkl+Y2Un7qLTsco+4sO42Un1plhwY2PYAKXVV2FqcuWZx6ZHHLTk/VPa1SdlK901vaoWplh9mh0rJT+ju2W821W+gN7VYe6p68lp2urHvqKTvss1XLTrm6p1a9kzRbHrrq3DZyvhan3n+yibq8tzBobwFcMCxp4l4RLhAqWe4x4kLlgmUpSvbduelBW2mJCvffpQf6sC+WVLE9lUr2wsk+9IHtqBC4KNK9saUVBttQ8VfrkGV/r9LfSq9iS/crsj1Ljbg3i4uQ36HSYakMy3CyT6Imj+kJudkKghFrlpNzTxijhumdpoxCpyc3sx8eDkNlxjIf7gumQSNtLOVi6WBKO/fCMeKdnkRZ7lgkLNNOT9Llqdgs/2LJF0sLuX+Hv5Wd2a1WAZGm7Pula5UFlgdzHJopD/ztnigLpJk0VKtsK5WdxSk/NNp5KDuLU37yUnYWpy5pxbJTb93DPaK9oez0lnao0bJTrfzYbuWj7rHd6pmyszjlx7KzeGUnq966JJuWrjy39ZyvWnms5/g/0URd3hsYtLcQHqRGpUAly3JBKgkuvlrvcOfpw1xkjP6lV9awPCUt+6004sX+GVnj4knvQM2+R5GLKD0sp1qHLIu/xT0wNE7MyqR3uJe+C5clU+yHipcLn32zL/LJ0qZUQVA5ZysI8sqTQPkbvKqCi5kKK/sOy3IYzWO0Od2PxENWWDqU3rnNvV0sIUtP8Sx9l3KlZThpNDIt8WFZGY1K6ZNSK1VA2QquVllgH+ld3M2Wh54oC1TkNHK1KtvSsoPFKT89WXY6s/zkpeyUpqVc+eHnvaHsoFb5Ybaot5Wd3tAONVp2sr9ju2W71dN1j+1W3y47peopD6W6+txWO1/l8ljr+Nc6PsMbqMtbnUF7i8neX1LpHe7ZSot7bLhwqdh4+ESqwLP3cVaqQHnYE41Levdy6XsU0+ttwKudqnXISisGLmbeKVru3cvZh+kxSsdSGyqthHyUzgIxqknFwUXOMeEeJ5Zhl75LOeEBIemVTPx98kSjtdFGG8XlVdyjk17nkfAAofR+9ErvUs7iAVUsP+L+LBrP9K7V0v02WwGV3mPVWeWhO8sCSyIZgc3eQ1VNKjs0zqXvz222/HR32UFnl5+8lJ1q5Yfj1tvKTqXyw0MUe2vZ6Q3tUKNlB7Zbtlt5qntst/pe2ammUnmopKvPbaXnAJRT7fjXMr6JuryVGbS3mOzoV3rlWa13uFOxgYdeUbmUdpSqVaDZd6CWvj83vUeRUUZ+hyc2VuuQZbE8qtK7cLkHhwfG8MRuRi65KBmpSw+TKX0YXrUKPftO09J3WPJUTTrXVGzck8N+OT480bTc8WTUlHts0shf9n2m2Xfh8lRYjj3pZhka++KJsIyA1nowRiMVUHZffJ99H+7ilofuLAs0Fo3gPKV3oHZW+enustMV5ScvZadc+eGVOb217JQLYntz2ekt7VCjZQe2W/mue2y3enfd05fLTj3qDZK769yWnq9qFmfWfG4TdXmrMmhvYdXeiZh90Em6F4plT5VGxMpVoGlEuNL7c7PvUUwVFMt0qnXIktL3n1Z6l3JKL6OBbJsq33oqiOw7TUvfYZlet8I9M2n0OY3Kls6GZGVfK1LpXbiMxqZ3XnI8QbrTa726qgLq7PLQXWWhGZ1dfrq77HRV+clL2cmWHx5M05vLTmn5SR1Jy07+26FG2W7lv/zktezAdqs8y07naCRI7q5z24i+NmveDIP2PvIO9+wDZOqpQNOIcK33KGbfY1lvhyxp5J2UVILpdSr1qvU+3Ox73Kmgm1HpnZfZ93Cz1KdVy0N3lYVmdGX56Y6yk6fy01V1CY26Zceyk+d2qFG2W53Ldsu6p1l9rex0h54+t31p1rwZBu0trJl35zYzItzoexQbUe873JvRyLuUS9+HW69G33nZiuWhu8pCM7qq/HRH2clT+bHsWHb6cjvUKNutzmPdY93TrL5YdrpaXs6tyjNob3H1vhOxGYvzHsVG1PtOykYt7jtN69XoOy9bsTx0V1nIS/nprrKTp/Jj2bHs9OV2qFG2W53Huse6p1l9sex0tbycW3Vk0N7iGnknYjMW5z2KnfF3Flcj77BsVCPvvOwN5aG7ykJnpi2vZSeP5ceyY9np6+1QZ6VrcdluWfc0y7qnb5SdrpC3c6uODNp7iXrfidiMxXmPYqN/p9Y7KRvVzDssG1XpnZe9sTx0V1nIQ/npjrKTx/Jj2bHs9OV2qJl02W51Duse655m9cWy01Xydm71LoP2XqQr76lZnPcoNqLed1I2qtF3WDaq9J2Xvbk8dFdZyEv56eqyk8fyY9npHJadvlF+bLc6j3VP57Du6Rtlp6vk7dxqEYP2XqTR1z00anHeo9gV76TMU2ey3Dsve3N56K6ykJfy09UPmclb+bHsdB7LTqFPlB/brc5h3dN5rHv6RtnpC+dWi7TxnyDVacKECeHkk08OZ555Zthwww1DK6Got7W1dfi+s8yZMycsueSSoa9o5bKQt7LT18qPZadz9aWyA8tP57Hs9F7WPZ2rL5WdvnZuW4VBuxo2b968sMQSS/R0MpQDlgU1y7KjxWH5UbMsO2qWZUc9yaBdkiRJkqSc6tfTCZAkSZIkSeUZtEuSJEmSlFMG7ZIkSZIk5ZRBuyRJkiRJOWXQLkmSJElSThm0S5IkSZKUUwbtkiRJkiTllEG7JEkt5NBDDw1tbW3hqKOO6vCzY445Jv6MbbLb77vvvh1+n68lllgirLzyymHXXXcNl1xySVi4cGG7/a211lrhJz/5ScW0nHbaaWXT8uCDD8bPn3nmmbrztcMOO4QTTjih7u0lSeorDNolSWoxa6yxRrj66qvD7Nmzi5/NmTMnXHXVVWHkyJE1f3+PPfYIU6dOjUH1ddddF3bcccdw/PHHhw996ENh/vz5DaVlySWXDBdffHGYOHFiU3mRJEnVGbRLktRi3ve+98XA/Q9/+EPxM74nYN9ss81q/v6gQYPCKqusElZfffW4r69//evhz3/+cwzgL7vssobSssEGG8Sg/xvf+EbV7W699daw1VZbxb+96qqrhq9+9avFAQJm//n5T3/60+IqgDRL/+ijj4Y999wzLL300nFVwKc//ekwffr04n5/97vfhY033jgMHjw4DB06NOyyyy5h5syZDeVBkqQ8M2iXJKkFHX744eHSSy8t/pvl7YcddljT+9tpp53CmDFj2g0E1Ot73/te+P3vfx/uvffesj9/4YUXwl577RW23HLL8NBDD4ULL7wwzs6fccYZ8ecE69tss0347Gc/G1cA8MWgxIwZM2K6GIhg39dff3148cUXwwEHHBB/j+0++clPxmMxbty48O9//zvst99+oVAoNH0cJEnKmwE9nQBJktS4gw46KHzta18Lzz77bPz37bffHpfME7g2a9SoUeHhhx9u+PeYrSeQ/spXvhJuuummDj+/4IILYhB+3nnnxVl0/s6UKVPi9t/61rfCcsstFwYOHBiGDBkSVwAkbE/AfuaZZ7YbnGBfTzzxRHjrrbfibD2B+pprrhl/zqy7JEm9iUG7JEktaKWVVgp77713XM7OzDLfDxs2bLH2yX4IqpvBrPno0aPDP//5zzB8+PB2P2MWnJn07L633XbbGHQ///zzFe/DZ1b+lltuiUvjSz311FNht912CzvvvHMM1Hfffff4749+9KNhhRVWaCoPkiTlkcvjJUlqUSwLJ2i//PLL4/eLi+B67bXXbup311133bi8nXvVO2t5OkH9PvvsE59Gn/3ioXfbb7996N+/f7jxxhvjvfjvfe97w7nnnhvvsZ80aVKn/H1JkvLAoF2SpBbFU+Dnzp0b5s2bF2eaF8fNN98cHnnkkbD//vs3vQ+WurNsnWX6WczA33nnne2CeZbzL7PMMmHEiBHx3yyPX7BgQYdl94899lh89dx6663X7muppZaK2zB7z6z96aefHh544IG4nz/+8Y9N50GSpLwxaJckqUUx08zs+OOPPx6/r9fbb78dpk2bFh8Qd//998d7xj/84Q/HV74dfPDBTaeHp7ufeOKJ4Wc/+1m7zz//+c+H5557Lhx33HFh/Pjx8Un1p556aty2X79FXREC87vuuis+NZ6nw/POeN47/+qrr8aHzd1zzz1xSfwNN9wQH7hHgM/2pJ2H1E2ePDk+RO/ll1+OgwSSJPUWBu2SJLWwZZddNn41gqew89o1AmVm67lvnECbYLqR4L+ck046qcM96Lxa7h//+Ee4++674xPqjzrqqHDEEUeEU045pd3v8bdZ5s79+gThq622WpyRJ0DnfnXuXT/hhBPC8ssvH4N98n3bbbfFJ9O/5z3vifv70Y9+FF8RJ0lSb9FW8L0okiRJkiTlkjPtkiRJkiTllEG7JEmSJEk5ZdAuSZIkSVJOGbRLkiRJkpRTBu2SJEmSJOWUQbskSZIkSTll0C5JkiRJUk4ZtEuSJEmSlFMG7ZIkSZIk5ZRBuyRJkiRJOWXQLkmSJElSyKf/D0ZbaLw9u8bOAAAAAElFTkSuQmCC",
      "text/plain": [
       "<Figure size 1200x600 with 1 Axes>"
      ]
     },
     "metadata": {},
     "output_type": "display_data"
    }
   ],
   "source": [
    "\n",
    "# Extract played notes\n",
    "note_counts = Counter()\n",
    "\n",
    "for track in midi_file.tracks:\n",
    "    for msg in track:\n",
    "        if msg.type == 'note_on' and msg.velocity > 0:  # Ignore note_off\n",
    "            note_counts[msg.note] += 1  # Count note occurrences\n",
    "\n",
    "# Sort notes\n",
    "notes = sorted(note_counts.keys())\n",
    "frequencies = [note_counts[n] for n in notes]\n",
    "\n",
    "# Convert MIDI numbers to note names\n",
    "def midi_to_note(midi_num):\n",
    "    note_names = ['C', 'C#', 'D', 'D#', 'E', 'F', 'F#', 'G', 'G#', 'A', 'A#', 'B']\n",
    "    octave = (midi_num // 12) - 1  # MIDI note number to octave\n",
    "    note = note_names[midi_num % 12]\n",
    "    return f\"{note}{octave}\"\n",
    "\n",
    "note_labels = [midi_to_note(n) for n in notes]\n",
    "\n",
    "# Plot histogram\n",
    "plt.figure(figsize=(12, 6))\n",
    "plt.bar(note_labels, frequencies, color='skyblue', edgecolor='black')\n",
    "\n",
    "plt.xlabel(\"MIDI Notes\")\n",
    "plt.ylabel(\"Frequency\")\n",
    "plt.title(\"Histogram of Played Notes\")\n",
    "plt.xticks(rotation=45)\n",
    "plt.grid(axis='y', linestyle='--', alpha=0.7)\n",
    "plt.show()\n"
   ]
  },
  {
   "cell_type": "code",
   "execution_count": 6,
   "metadata": {},
   "outputs": [
    {
     "name": "stdout",
     "output_type": "stream",
     "text": [
      "(6961, 88)\n"
     ]
    }
   ],
   "source": [
    "# Track note states\n",
    "active_notes = {}  # Stores active notes {note: velocity}\n",
    "time_series = []\n",
    "timestamps = []\n",
    "time_elapsed = 0\n",
    "\n",
    "for msg in midi_file.tracks[1]:\n",
    "    time_elapsed += msg.time\n",
    "    \n",
    "    if msg.type == 'note_on' and msg.velocity > 0:\n",
    "        active_notes[msg.note] = msg.velocity  # Note is played with a velocity\n",
    "    elif msg.type == 'note_off' or (msg.type == 'note_on' and msg.velocity == 0):\n",
    "        active_notes.pop(msg.note, None)  # Note is released\n",
    "    \n",
    "    # Snapshot at each time step\n",
    "    timestamps.append(time_elapsed)\n",
    "    snapshot = [active_notes.get(note, 0) for note in range(21, 109)]  # MIDI range (A0 to C8)\n",
    "    time_series.append(snapshot)\n",
    "\n",
    "# Convert to NumPy array\n",
    "note_matrix = np.array(time_series)\n",
    "print(note_matrix.shape)\n"
   ]
  },
  {
   "cell_type": "code",
   "execution_count": 7,
   "metadata": {},
   "outputs": [
    {
     "name": "stdout",
     "output_type": "stream",
     "text": [
      "[[ 0.00000000e+00  0.00000000e+00  0.00000000e+00 -3.71104995e-03\n",
      "  -2.75423020e-05 -2.37995101e-04 -1.35561105e-03  0.00000000e+00\n",
      "  -2.25491681e-03 -3.24005524e-03  2.03491845e-02  3.08145429e-03\n",
      "   1.23913992e-02  1.35976050e-03 -1.96850856e-03 -2.11495901e-04\n",
      "   4.49937530e-03  6.61395158e-02  4.38303708e-02  5.03869728e-02\n",
      "   8.34199155e-02  3.57666664e-02  1.54791411e-01  3.33426335e-02\n",
      "   1.04368429e-01  2.62178723e-02  1.05724301e-02  7.58273517e-02\n",
      "   5.14916758e-02  1.51778404e-01  6.79650899e-02  1.46533574e-01\n",
      "   1.17998412e-01  3.36047805e-02  1.59313244e-01  2.08148494e-02\n",
      "   1.83934089e-01  4.46024466e-02  1.07053799e-01  1.27132120e-01\n",
      "   6.47026793e-02  2.19585434e-01  6.11010168e-02  2.29242976e-01\n",
      "   1.47383620e-01  3.29955918e-02  1.64774143e-01  5.42299573e-03\n",
      "   1.66756714e-01  4.01145971e-02  1.12742827e-01  1.71297371e-01\n",
      "   6.36394188e-02  2.69510905e-01  6.64858390e-02  2.57106771e-01\n",
      "   2.77557698e-01  5.48475462e-02  2.36433505e-01  4.49707023e-02\n",
      "   2.40306623e-01  5.03754171e-02  1.10593633e-01  1.61545381e-01\n",
      "   3.91205736e-02  2.03087832e-01  3.92563610e-02  1.84015516e-01\n",
      "   9.95207703e-02  0.00000000e+00  1.46597995e-01  0.00000000e+00\n",
      "   1.45093278e-01  2.93275403e-03  0.00000000e+00  1.09335738e-01\n",
      "   0.00000000e+00  1.57584525e-01  0.00000000e+00  4.82043078e-02\n",
      "   0.00000000e+00  0.00000000e+00  0.00000000e+00  0.00000000e+00\n",
      "   0.00000000e+00  0.00000000e+00  0.00000000e+00  0.00000000e+00]\n",
      " [ 0.00000000e+00  0.00000000e+00  0.00000000e+00 -4.28791452e-03\n",
      "   1.31773410e-04 -3.96056988e-05  1.34681148e-03  0.00000000e+00\n",
      "   3.19123678e-02  8.76106009e-04 -3.55956617e-02  1.38721010e-02\n",
      "  -5.09897096e-03 -6.84191029e-04  1.22760093e-03 -1.74433213e-02\n",
      "   1.51884380e-02  7.21592634e-02  1.16452072e-01  7.75434584e-02\n",
      "   1.11651630e-01  1.55216552e-02 -8.16137101e-02  8.88034255e-02\n",
      "  -3.74640705e-02  5.88503567e-02  1.13779035e-02 -4.39933737e-02\n",
      "   1.15845365e-01  2.59265380e-02  2.09390116e-01 -7.49888483e-03\n",
      "   8.91811163e-02  1.54696509e-02 -1.00417065e-01  1.78970008e-01\n",
      "  -6.23933553e-02  6.82851791e-02  6.92442352e-02  1.01249929e-01\n",
      "   1.45842581e-01  1.99340937e-02  3.06275133e-01 -6.19496330e-02\n",
      "   7.21448675e-02  8.87161733e-02 -1.16471057e-01  2.18716473e-01\n",
      "  -4.49962049e-02  6.58019487e-02  8.71478432e-02  1.37851011e-01\n",
      "   1.46374783e-01  2.04716871e-01  4.34975697e-01 -1.45790859e-01\n",
      "   1.32945863e-01  1.34410240e-01 -1.25893383e-01  2.43081160e-01\n",
      "  -1.77643170e-02  9.29844576e-02  6.81027335e-02 -7.60847059e-02\n",
      "   2.86843560e-02 -1.28246785e-01  5.74519146e-02 -2.46409356e-01\n",
      "  -9.48332737e-02  0.00000000e+00 -1.50428200e-01  0.00000000e+00\n",
      "  -1.40951156e-01  4.02627539e-03  0.00000000e+00 -1.15950560e-01\n",
      "   0.00000000e+00 -1.63433148e-01  0.00000000e+00 -5.02150899e-02\n",
      "   0.00000000e+00  0.00000000e+00  0.00000000e+00  0.00000000e+00\n",
      "   0.00000000e+00  0.00000000e+00  0.00000000e+00  0.00000000e+00]]\n"
     ]
    }
   ],
   "source": [
    "# Apply PCA\n",
    "pca = PCA(n_components=2)\n",
    "fitted = pca.fit(note_matrix)\n",
    "transformed = pca.fit_transform(note_matrix)\n",
    "print(pca.components_)\n"
   ]
  },
  {
   "cell_type": "code",
   "execution_count": 8,
   "metadata": {},
   "outputs": [
    {
     "data": {
      "image/png": "iVBORw0KGgoAAAANSUhEUgAAA0EAAAIjCAYAAADFthA8AAAAOXRFWHRTb2Z0d2FyZQBNYXRwbG90bGliIHZlcnNpb24zLjkuNCwgaHR0cHM6Ly9tYXRwbG90bGliLm9yZy8ekN5oAAAACXBIWXMAAA9hAAAPYQGoP6dpAAEAAElEQVR4nOy9B3xkd3X2/9x7p8+o19V2l3XvENvBgAGDKaEngYQACS3hBRLgTchL/oSe8IaQACGUNyG0BEMggAEDxsbGmOIO7mW96+276nX63PL/POc3VxqNRlppV7uSds8XxlrN3Ll9Rr/nd855jhUEQQBFURRFURRFUZSTBHuld0BRFEVRFEVRFOV4oiJIURRFURRFUZSTChVBiqIoiqIoiqKcVKgIUhRFURRFURTlpEJFkKIoiqIoiqIoJxUqghRFURRFURRFOalQEaQoiqIoiqIoykmFiiBFURRFURRFUU4qVAQpiqIoiqIoinJSoSJIUVYx2WwWb3jDG9Db2wvLsvD2t799Wdb7/ve/X9Y3PDyM480tt9wi2+ZPRVGOL7t375bP35e+9CWcCPzxH/8xtmzZstK7oSjKGkRFkHLCwj/y/GMfPhKJBLZt24a3vvWtGBgYmLM8n/vLv/xLnHnmmUilUkin07jkkkvw4Q9/GOPj4w238Vu/9Vuy7s9+9rPH5Bj+/u//Xo7jzW9+M/7zP/8Tr371qxdc3vM8fPGLX8SVV16J9vZ2xONxGSD8yZ/8Ce6++26cKAO45RBQoRDs6elBPp+f8zrP2+/8zu/gWPGZz3zmhBmIjoyM4K/+6q9wxhlnyOeM997VV1+N6667bkX25xe/+MX0576R0P/JT36CZzzjGejs7ERra6t8jvn5Wgy8L7jet73tbfMK/P/5n//BseS///u/8Ud/9Ec4/fTTZXv8vK8GvvOd7+B5z3uenNdYLIa+vj78/u//Pm6++ebDvje8Xpz0acT/9//9fwteU0VRlKUSWfI7FGWN8cEPfhBbt25FsViUwREFyw9/+EM8+OCDInbIXXfdhec///kSeeHgguKHUDj83//7f3HrrbfihhtumLXexx9/XN7HQdFXv/pVESrLDQcPl112Gd73vvcddtlCoYCXvexluP766/G0pz0Nf/M3fyODUQqHb3zjG/jyl7+MvXv3YsOGDVhJuG/cVw6SVgODg4NyT/zv//2/j+t2KYI4WORM9lrmsccew7Oe9SwMDQ2J2H7Sk54kkwb8TLzwhS+UiYV//Md/PG774/u+CBROYuRyuTmvf+9738NLXvISXH755dNCmJ+P17zmNTK4fsc73rGo7fz7v/873v3ud8tA/3jD+/Wee+7Bk5/8ZBGgS2Hz5s3y+YtGo8u2P0EQ4HWve52I+osuugjvfOc7JXp96NAhEUa8P375y1/it3/7txdcDwX0t771Lfls1H8/fO1rX5PX+T1efx14zRVFUZZMoCgnKF/84hcD3uJ33XXXrOff+c53yvPXXHON/D42NhasX78+6OnpCR555JE56+nv7w8+9KEPzXn+ve99b9Dd3R1861vfCizLCnbt2rXsx7B169bgBS94waKWfctb3iLH9fGPf3zOa67rBv/4j/8Y7Nu3T35/3/veJ8sODQ0FawmeY+73T3/606NeV3gOLrzwQrn2+Xx+1uubN29e9Lk/Es4555zg6U9/+rKu0/f9OcdxLCmXy8G5554bpFKp4Pbbb59zz73iFa+Qc/z1r3/9uO3TZz/72aCjoyP4i7/4i4b3+LOf/eygr68vKBaL089VKpXg1FNPDc4///zDrp/3Ba9dJBIJ3va2t816jfclt/nNb34zOJbs3bs38DzvmN1HS4XfLTzut7/97XIP1vOVr3wluOOOOxZcB9//kpe8JLBtO7j22mtnvfbLX/5SXn/5y1++ar63stnsSu+CoihHiabDKScdz3zmM+Xnrl275Of/+3//DwcOHMA///M/SypcPUyXes973jPn+WuuuQa/+7u/KylTLS0t8vtSog+vf/3rZd2c3bzgggskUlOfVsN9/MEPfjCdBsKoTiP2798vx/HsZz+7Yd2Q4zgyI18fBeKMPSMRTAniMXAmvz41zHVdfOhDH8Kpp546nV7HKFOpVGqYPsaI2YUXXijHdfbZZ+Pb3/72YWuCmM5z7rnn4uGHH5Y0JUbo1q9fj49+9KOHPZf9/f2y3zw27t+6devw4he/eN5zVc973/teSYVcTEojIwuMGG3cuFG2xfSvj33sYzITXs9//dd/SZoVj6WtrU0iYGE0kefqoYcews9+9rPpaxumNIXRifnSO2uPKzznP/7xjyUCk0wm5T4IzzEjHH/3d38n54bXgzPyO3bsmLPuO+64A8997nPlHuD+Pv3pT5eZ+8PBWXtGVP/P//k/uPTSS+fcc9wX3ls8ppBw35jSxfuIEQNGbV70ohdh3759OBpGR0fls8roL7fbiMnJSbkevH4hkUhEonI8f4uB552RI0YhDh48eNjlf/Ob30iaWHNzMzKZjFyH22+/HUcK7z/btpetJojfAdwvfg8ySsZ/d3V1yXcGU2wXglGlj3zkI/Ldyc9Co3uXabz8LBwOfub5Oan/LmVU8bzzzpPviMPVBIXHx335t3/7t+nvLUbNGLlvFG1/6lOfKvcg7xl+dzzyyCOzlgk/k/x++sM//EO5f6644orDHo+iKKsbFUHKScfOnTvlZ0dHx3R6DAc/FDSLhYNGDib/4A/+QNI2mIbGP9SLgYMGDnhZg/CqV71KUoU4+OQf809+8pOyzFlnnSWvc2BGQcF/88GBSSN+9KMfiVg5XM1QPczXn5qakkEM/82B0Qc+8IFZyzBHn0Lh4osvxsc//nEZIHP5V77ylXPWxxTBV7ziFTLg4zIcXP7e7/0ebrzxxsPuy9jYmAzEKQj/6Z/+SQZVf/3Xfy3HthAvf/nLJeWGQohpNH/+538ux8TUv8XAARCFMQUXr818UOhwoM5zwP2kaKYIYi0M039q4TnktWDKEQfk/J0D17A24hOf+IQIEx5jeG1Z83Ck6Wi8DymAef/wfglhKifPDQezTN3iwJv3XC3cJw48KQ6Ydsk6NIpjnpM777xzwW1///vfl58UBI3gfc1B5aOPPjpHfFGcUeDzGvOa8R656qqrFrwGh+Nv//ZvRVT96Z/+6bzL8LNHAcpluU/8PqDIZ+rru971rkVvi9eLnzme44XgtniP3XfffbJ+bpeTG9wPfo+sFih2WMfF70UKCH7O+TmkkFgIphhTfFIcUPgeLVwP7yumJhOe429+85vy/FKgkOJ3K+8F1nVSHPF7ulKpzKoN4zFzUopCh5/jX/3qV3jKU57ScBKF32WcJOJn5I1vfONRH6uiKCvM0YaSFGW1p8P95Cc/kfQJpoIxLYepMslkMti/f78s19bWFlxwwQVLWvdb3/rWYOPGjdOpHzfccINs6ze/+c1h3/uJT3xClv2v//qvWWlFl19+eZDJZILJycklp2S94x3vWPT2a1PBXve61816/qUvfamcn5B7771XlnvDG94wa7m//Mu/lOdvvvnmWfvK55geGDIxMRGsW7cuuOiii+akDNWmtDGdh88xbSakVCoFvb29kgIzH0xl5PuYjrNUalMCf/azn8m///mf/3nec88UHS7z4Q9/eNZ6fvd3f1fSIXfs2CG/P/7445LSw3MZpiyF1KYKzZfGFO7XfPdzbdpleM6vv/76WcuG5/iss86S8xjyyU9+Up5/4IEHpvfn9NNPD66++upZ+8aUOqZiMnVsIZhK2NLSsuAyPKfc5ve+971Z+8YU1Np7/Rvf+IY8z308Eu67777AcZzgxz/+8YIpn0xj+v3f/325ZnydD6bz1adgzUftffEnf/InQSKRCA4ePDhvOhxTvGKxWLBz587p57h8U1NT8LSnPS04WpaaDhemlPJ+Cnnta18rz33wgx+ctSw/t5dccsmC6wvvqe985zvB0cB1MKV3dHRUztd//ud/yvM/+MEP5Frt3r274TXlvvOa1B8fv8e4rpDvfve78vz3v//9WfcvU5pHRkZm3Uf8/L7mNa+Zfi7c7h/8wR8c1TEqirK60EiQcsLD2WVGUDgTz+gFUz04O87UC8IZ8KampkWvjzOTTOVhxCNM/eCseXd396KiQTRl4Gw1Z+9DGDHgbDhnP5kitVR4DGQpx0H+7M/+bNbvnLFmoXW4Pu4rqY90hCYCnMmvhUXiL33pS6d/Z/oPowRMB2La2kLwutCUIoQRNqbQPPHEE/O+hxE8LscUK0aSjhRGQpiGt1A0iOeCM928TvXngmO4MGJ17bXXSqE2o2f1KUuNUoWOFpp+cDa7EYyO1RaY8/qS8Jzee++9Er3jLDuvO40B+GDaH1O2aAiyUNE5I26Hu+fC18N7KoT3Re17GYllKmN4zy0VXhdGIJ/znOcsuBxTo+gSye2x2J5pi0wl5L231BQ1pt4tFA1idIUpkEwxO+WUU6af53HynDOKUn9eVpJG3wcLff6O5rtnPphqxkgrr00Y0aGhAg0dlgK/n7mu+e59mjbw/mcEngYyIeeff75EVRvdh/XnR1GUtY2KIOWE59Of/rSk2vz0pz+VnG7+EawdNHKgzsHcYuGghk5YHKAznYYPprdwEM0/3IdzKtqzZ49Y29YPkJkCF76+VHgMZCnHQTZt2jTr93DQEAoK7gv387TTTpu1HEUc8+fr95XL1Q/0OeAkh6vRYXpY/Xu5PwuJGw5o/+Ef/kEECOurKGYoZA4nuBrBdBi+73Of+1zD13msFHn1g73668b0Kp4z1kMdDyiCjvT6UgCR1772tTJRUPv4/Oc/L3VfExMT866f5+Jw91z4ev1542egFl573j+LreWqhZMSTGNi+tbhoEU+062+/vWvy6QI0wOZFkVh8hd/8RdL2i6FDdMemTLGQXU9/J5g+hTTJuvhfcPviqOtg1ouWDNWn257uM/f0Xz3LAQFIr+zmdLKSYWlpsIt9ruNzHdtwsmAxX7WFEVZe6gIUk54KFYYDWIOPv+41YsP1mVs374d5XJ5UesLoz2soeFALnxwIMbC4iOJ5BwtoaHDAw88sKT3zZfDX1/ofywiGEe6L/XQCILXjzVIHMix5oLXmdGnpUABxXvkcLVBx5r5zvV8BeoLFfMf7pyGgp21Exx0NnowQjcfPM8USQvVX91///3y81iKQtZlsV6DUS+KKD7C3l4UGaF5AT/j//Ef/4EXvOAFs74HGIllFIl1QYv9HqivDaIYX8scaT3PkX73LARr7zjBQXFOIc7v2uP1fbIQizXOUBRlbaAiSDnpYS8TDnrpdHU4ODP43e9+V1ItWKxb/+Bs8uFS4pjWwRn4+ogRi8fD15cKB3D8o8/UnuWE+8L9DCMGIXRT4yCzfl8ZFasfZFCgkGPZ1Z0OUExLY5SObmUcyC4mKjBfNIiuZvXwWDmYrp/xrr9u3BeeM0Ydj0TshDPW9Q16jyRCeDi4r+FsPicKGj0W6icTNpP9yle+Mm+qFD8vHCjXRxPr7yneN7x/juQ+odBh2hRn6sNHaDJCQw/2ACNM+aNgaSQoWTDP63Y4N7RG55CpdLxn6qNBjKzQbY/mFfXwvqEQY5ruWoYuabxnGQVf6rlbSGwwhZBprkxNo0HMchN+Xue7NtwmHeMURTlxURGknPQwz5vihYPocMBeC52D6C5EWEtEIfSWt7xFagrqHxwUUkzV20fXwgEZB9qMHIVwYPapT31KZt3pyrRUOJCiWxFFANdTDwd3FAW00l4K4eCRbma10BmNcEa9FooEnqPaQTAHyHQsYwrdcsNUo/rmiRyUMvVqoWswHzz3jAZxVr9+vTwXHOT967/+66zn6RZHQUMhSjh44+CWrnD1QrdWIHKAVS90wv0nrMcJ4T1Xa6G+XLApMLdHN7DQjas+nWsheM8zwsOaGEZRauGxs4Ew048aNfvlfVErKP/nf/5HRER4HglTkjggrbdtr4f3XP2DExXhdniNCOv2mMbJ12sjPjx2pshRrB3JbD9rgyii6i3dOTHBGiUKwdo0P04iULRRQITpZIyo8VgXSj9cjVDk0eGPttL8OZ9d/OGcBuuhoyHvG0Z2jwX8zuf3Ej9XtZ9DTqLwezT87lMU5cQlstI7oCgrDWcxOSjiHz3+UeSsLgeH5Ne//rXMcLK7PGGUhxay83U+ZxoHe4fQMIB2rI1405veJLPGLMhl13fOfHMAyL4sFBtHWmBMkcN6FBaIszcPBRmPjalKjFJxgNXI1nohaFfNlBTWPHCgQJHAwQwHDhzssw6qvv6H/Y/Yj4M1Ol/4whdkwPfFL34RxwKKVhbwM12Gg3FacvNacptLPdYQDrzqjyuMGPJ5pj9xQMtzw8ESB7hMyQvFCyMeXIa2yyzG5n3A1B6eE9YUMW2P8B5jbyIKbL6HA3QabHDQzHoGnkemeXEgzfPIqMJibb8XC8Uaa38oPM455xwxUqBhCNM6WUPHAXpog90Ipp/x3uU14ICe76fJAO8VDvL5+eHkQqNrwWL08D28Xrz3eR5qrYcpOGkvzn0J+yg1gvdiPSx6Jzy2MJIQ9suiaLnsssvEnIHClilynCA40khqGA1qJFR5fZlWyGP9X//rf8k9ys8/RXqtaApt3vlZ4XfDQlAghyKZQpUiOZyoYVonH8cT3qe0Aud3EK8VxTEnPTjZw5oefmewZmsp8PPFx7GEaaC8P/j9zs8bMwI4iURr99reVoqinKCstD2dohwrQkvhu+66a1HL07aWVtPbtm0T21va5tIe9u/+7u/E6nlgYEC6xL/61a+edx20Fub7aI+8EFwX7XU7OzvFDva8886bZVm7VIvsENd1g89//vPBU5/6VLEujkajsg5uq9Y+ez774EY2zJVKJfjABz4glslcH63B3/3udwfFYrHhvtKi+Pzzzw/i8Xhw5plnzrILXsgim1a/9dTb39YzPDwstrrcTjqdlmO+9NJLxW75cMx3DsL94Wv1535qakrukb6+PjkXtJemPXetvXTIF77wBbEY5nmgDTvXeeONN06/3t/fL+unVTK3VWtzfM8998hx8N7YtGmT2EzPZ5Hd6P5oZNU8nz0y4b3xspe9TGyFub9cL22kb7rppmAxDA4OBu985zuD0047Td7f2toaXHXVVdO22I327Wtf+5rcR7QopmU9j2PPnj0Nr1HtvbJYFrq+X/3qV4Pf+q3fkv3ktnmu/+d//mdR653vnNManRbdjc77r3/9a7EhpwU+vx+e8YxnBL/61a9mLRNe30bfA/MdW6MHXzsSi2x+fubbzmLhOXzOc54TtLe3y3cl7fFf8YpXBLfccsuiLbIXYikW2Y1s8xudH7ZQeMpTniL3QXNzc/DCF74wePjhhw+7XUVR1j4W/7PSQkxRlLUPI1rs6H7dddet9K4oqxjWeTCixujkUhoUK4qiKMpyojVBiqIoiqIoiqKcVKgIUhRFURRFURTlpEJFkKIoiqIoiqIoJxVaE6QoiqIoiqIoykmFRoIURVEURVEURTmpUBGkKIqiKIqiKMpJhTZLXSLsgn7w4EFpaMku8YqiKIqiKMrqgtUeU1NT0qSajaFXG8ViEeVy+Zism42sE4nEMVn3iYSKoCVCAbRx48aV3g1FURRFURTlMOzbtw8bNmzAahNAGzu6MJzPHpP19/b2YteuXSqEDoOKoCXCCFD4oWpubl7p3VEURVEURVHqmJyclEnrcNy2mmAEiALohj/6C2Ri8WVdd7ZcwnP+65OyDRVBC6MiaImEKXAUQCqCFEVRFEVRVi+ruXQhk4wvuwiCs7yrO5FREaQoiqIoiqIoxxnLtmA51rKvU1kcq69STFEURVEURVEU5RiikSBFURRFURRFOc4wCrTskaBlXt+JjEaCFEVRFEVRFEU5qdBIkKIoiqIoiqIcZyx7+Wt4uE5lceipUhRFURRFURTlpEIjQYqiKIqiKIpynLEc81judSqLQyNBiqIoiqIoiqKcVGgkSFEURVEURVFWok/QstcEqTvcYlERpCiKoiiKoijHGU2HW1k0HU5RFEVRFEVRlJMKjQQpiqIoiqIoynFGm6WuLCqCFEVRFEVR1iBBEMD3A/m3zfoSSwfAirJYVAQpiqIoiqKsMfGTK5QxlSuhXPHkuVjMQVMqjnQypmJorcDrtNxGBnrtF42KIEVRFEVRlDUkgMYmC5jIFuXfjmPKuwvFCoolFxXXQ2tTUoWQohwGFUGKoiiKoihrhFLZxWSuKOlvEWfGCizi2HBdT8RRMhFDIqZDvNWOBoJWFv2EKIqiKIqirBGyhTJ8L0A8PtcLmVEhpsfl8iURRfliRWqGHMdCKhGFY6spsKKEqAhSFEVRFEVZI1DkzNcQkylwjARM5koillzPmCYQiqK25iSaUloztGqwj0EoSJulLhoVQYqiKIqiKGsE27KkFmg+Kq4PPwiQiEURjzoieLg8nx8Zz8v7M6nYcd1nBQuI1mW2yFaBu2g0LqooiqIoirJGoPsbaSSEPD+A5/lwbAfRiBFAhD9jUUfeExoqKMrJjkaCFEVRFEVRVhgKk1LFg+/5YnoQj0UazuqnklHEcxFxgotFbdjVOh/P91Eqe1IZn4jNrRcikYipGeKD618KrufDdX1YNhCrEVjKkcO0xvlSG49mncriUBGkKIqiKIqygtDeemwyLyKIYiiM3LCGJ5WYnbpGc4Pu9gyGx3Ioll0ErivP8z3xmAOrMn+KlaTGwcdSAkEUPuNTBWPIwH2D2beWpgTSiaiKIWXNsmbS4T7ykY/gyU9+MpqamtDd3Y2XvOQleOyxx2YtUywW8Za3vAUdHR3IZDJ4+ctfjoGBgVnL7N27Fy94wQuQSqVkPX/1V38Ft/oFoiiKoiiKcjwplCoYHM2KoKGLGwUGTQxohc3n84XynPcw1a23s0keHa1peazrbEJ3W0Yc4ugI1wi6yrEmiBGhxUZ/BkazGM8WzXYdR/aR+zY0msNUfu6+KYuH+vFYPJQTTAT97Gc/E4Fz++2348Ybb0SlUsFznvMc5HK56WXe8Y534Pvf/z6++c1vyvIHDx7Ey172sunXPc8TAVQul/GrX/0KX/7yl/GlL30J733ve1foqBRFURRFOVlh1IdRFqayUfwwysPICtPh+DvFzNhUoWEND5dLxqNoySTkkYhHJcWN/YEqnoko1W+Lz7OmiCJrMUxmiyiUXFknhRf3i/sYptKxaSv3XVHWImsmHe7666+f9TvFCyM599xzD572tKdhYmIC//Ef/4FrrrkGz3zmM2WZL37xizjrrLNEOF122WW44YYb8PDDD+MnP/kJenp6cOGFF+JDH/oQ/vqv/xrvf//7EYupW4qiKIqiKMeHiutJVIWipD6tjL9TeLB+h8tQ5BwOvqe9JSkpbMXqehn58QIaJgQimlqbEovaN6a+MQWOkZ9GKW/RiC3pe+xF1JSKL+GolRCtCVpZ1kwkqB6KHtLe3i4/KYYYHbrqqqumlznzzDOxadMm3HbbbfI7f5533nkigEKuvvpqTE5O4qGHHmq4nVKpJK/XPhRFURRFUY4WurkxkMIISyOoPRjB4XKLJR6NoKcjI2KH4oVixrEttDcn5HkKq8XAKJQ0Wl2gvkiOoaYXkaKsJdZMJKgW3/fx9re/HU95ylNw7rnnynP9/f0SyWltbZ21LAUPXwuXqRVA4evha/PVIn3gAx84RkeiKIqiKMrJCsUJzd1EbDhzxUZoksDllgJT6Tpb02hvDkQEUWQxIsTtTDdSdX2JFLFnUCYZmyPEuPy0iGqwjTDdbj4BpywyFLHc4Yg1G944/qzJU8XaoAcffBBf//rXj/m23v3ud0vUKXzs27fvmG9TURRFUZQTH0ZlWG9DA4KGNTyuLw1Pl2pnHUKBMp0S5xuTgyG6yhUrMqFcLFXk9/6RrPQXqn8vxVGjfSN8nuIslTh8mp7SGMuyj8lDWRxr7ky99a1vxXXXXYef/vSn2LBhw/Tzvb29YngwPj4+a3m6w/G1cJl6t7jw93CZeuLxOJqbm2c9FEVRFEVRjhZGWlqbUyJUWPtDISLpb54vv9OEoK05tSw21DQxyBcq0uOHoipa/cnfWdczOlmY857mTFzS60oVd3rf+OC+MUJEQ4bFmiwoympjzdy5/NBRAH3nO9/BzTffjK1bt856/ZJLLkE0GsVNN900/RwttGmJffnll8vv/PnAAw9gcHBwehk6zVHYnH322cfxaBRFURRFUSCRIPb9YUSFwqJc8eVnMhFFd0dGfh4tjNrkqiYHc9LebAtRx5bXmSJXC4VSd0daehXRXIFGCHxwPe3NyUWbLCiNUYvslSWyllLg6Pz23e9+V3oFhTU8LS0tSCaT8vP1r3893vnOd4pZAoXN2972NhE+dIYjtNSm2Hn1q1+Nj370o7KO97znPbJuRnwURVEURVGOJSbNzRPraf6bkRSKjJ6OJnmeJghikR1xlq0RqazXC6RWqBHS+6fio+x6c3oIMRLU25GR6E/F80ENlYhFtRZIWfOsGRH02c9+Vn5eeeWVs56nDfYf//Efy78//vGPw7ZtaZJKVzc6v33mM5+ZXtZxHEmle/Ob3yziKJ1O47WvfS0++MEPHuejURRFURTlZIPGBCMTOYm61DY0jUYddLSkj219jTjNzR8p4NPzyRqKMabO6XTx8qIW2SvLmhFBjYry6kkkEvj0pz8tj/nYvHkzfvjDHy7z3imKoiiKcjJBYwFGc1grw6gI09ZYw7PQOIYCaDJbkmhLLGp6AzH1za14GBrLorej6YhNEBaC0RxGnJgWF7PnRoP4vOxTbHH22YpyIrBmRJCiKIqiKMpqYHyqgNGJvKmhsYydNFPNWpuSaErHG6axMdWMESCKjVozAb6XkaBS2cNUrrRkEURxZRzcIOvm+uqhSGNDU5ofhK5u3MewBxEfNDlYSMQpx4CFwm9Hs05lUagIUhRFURRFWUTkh3UxFD8UQSQUO37VgpoCg081pecaBhQlahQgHpsrNKQXkGMhX2SaXGpR9TYUMNl8Wfr+UGARGhxQhDU3EGI0MeA+TuXLqJS96dcpmloycTU5UE46VAQpiqIoiqLMA2t3JqYKyBZKEq0plt2aRqdGSDAKwxIfiqCJqSLSyfgcIWMan84Ip3pMZAYIwPT/hUUQ10XL6/GpoiwaYQTHogGCj+HxvDi4dbXOttbmvztaUsik4sjTCY4NWm0L6WRMehEtlwmDsnikr88yR9+0T9DiURGkKIqiKIrSANbrsFaHERdGalzPRFys6mvwTaoZHxRLfmgjXXbnWFuHKXBGDFkNI02xaKRhOls93MZEriTpa7VubtwEa5SyuRLSiagInFq4XVpy86GsPMfC0lq17OJRuagoiqIoitKAXL4sdTys96H7rLir1ThwiRCqGXwGIoRMn5966PzGvjtMqas3e6KA4lOs21lMRIb7RLFDYVaP49gSS8oWykd41IpycqBTAYqiKIqiKA1gChxhpIfmASJQLOasBTVpcAGcGuFiw5plfDD9vG2jozWFodGcCKHQnIB1OlwPozZMVVsMNGRgxGg+wcTXmBqnrG7UIntlURGkKIqiKIoyn9ioDir5I6zpYcTHDDZNBCeE/4zHI/M2JZWmqJ02pnJF5IsVeW80EhEzA0aBFtuAlAJqocYhjDRxGUVR5kdFkKIoiqKsMIwmFIoViRCQeMxBMh7VYvUVhkLC9Yzc4LVgOptPYwTLpLARag3W83g+EIvY6GxNL3jdTE1OppoCF4jwWep1Zr0RXeG4jnrhxHuJe1ZfD6SsQtQie0VREaQoiqIoK0ip4mJ4LD/tOhaOY9gvpqstPW9UQTn2pFNxFMfdaTMDXgumxbmuB8ZiwnQ4C5YI13WdTUjEZxsizIcRL0c2YmV9USoZRS5fEWOEMOpDUUS7bArodHJx+6EoJysqghRFURRlhWBxO2tEKIRikcj0rD4Hs+wrMzSWQ29nRptYrhCZZAzZPK2xXanz4fVJxBywUqjiemJMQLHKvkDNmUTDWqBjAQUZBbJtFaS3UKli6n+4f5lUTKyw9Z5ZIxbZy2xprRbZi0dFkKIoiqKsEHTwot1xPBqZlRLFwSwjC4wO5QsVqRlRjh5GdHhO6a5WqXhynlPJGNKJWMN6HDqtdbdnpEFqoVSBWxUbTItra06ipSk5bXBwvKHI6W5Po1xJiEgjjFTxoWmUinJ4VAQpiqIoygrB4nhJimowaA2fy5dOPhFEsRK2DF2uAT3XOTqZx1TW1NLQ2IDPURBNxaPobksjEpmbekjBQyHENDMKJ+4Poz/HK+pzOELho6w9tE/QyqIiSFEURVFWiPkaZ4ZYNQX4JwO0i2ajz6l8Wf5Nq2cKQFpHH63oYMPTyWxRrKrjNaIhNKUYnsijpz0zryBltI4PRVk2VAWtKKtjGkNRFEVRTkI4gy9uXg2aa0o0JAhmDdhPZFzPx8BIFiPjeam3CZ/j7/3DU9PPHQk8j7Sl5mmuF1MUWtGIjWJpxp1PUZQTH53SUBRFUZQVIpOMS9SDg32mXdXC51j3kU6dHFbH41MFqbuJxRwRJoJjBAyNI1iXw7S0I0mP47lkOtt80STWA7Heh9thqtti1sc6HO4br5vW4ShHAj0MltvHQH0RFo+KIEVRFEVZIWh+0JpJYHyqKAX7odUxbZg5MG9vTp4UKVgUFazNidjWjACqIv15HFsEEqNBsSM4H4uRJ4tJOmTUbmyyIKl13GfC65SMR8SRrV7IKoqyejnxv1kVRVEUZZXCAX5rU0IiCVNixWzSsTKpKJpScRlcnwyw7w5rn9jzZqFITcX1ETuC9jd0eYtFjNse/10Pt00BupDgZNSHqXlsUmqWdabfmytU4HpZ9HY0rRrDBGWt1AQtdyhII5KL5eT4dlUURVGUVSyE0rRpTsaqjTeXzxFtrTB9vKEl3LzLHfn62cunVMlKBKdWqPCcU1wx7XAhlzVamdPSnO+tfT97BVGkUWAxQkRRqyjK6kdFkKIoiqKsEupTwU4WKD6YSlZxXcTsuUMTUzNlL6peZz7YRLTiJjCZLaHouiJcQkOKZCKKzpbUguKTDnJsbhttsA98n2PZ0lhVRZCyWNjPdrl72mqP3MWjIkhRFEVRTjA4WM8VK8gXyhLpYJoXIx1M4VqNUSbuU3M6juFxV+p+GGnhcxQpnhdIyhlrp2gUcTTbaGtOIZWISUSHPX+carPU1DzNUmuRKJ01f2NUPs1arsPZniuKsjpQEaQoiqIoJxC0eR4czUr6VphaVyi5mGSUIpOQSEXtIJ2D9nJYk+PYx7W4n9um4QF7AzGdTPalWvsjoiQw6WYtTQm0NCWPens87kQ8Ko+lIgIsmL+3E89fIr46RaayStE+QSuKiiBFURRFOUHgAH1oLGesnqOR6QE5n2dKGV3omHrG+iOSL1bEmpqCicswHS8Zj6KtmWYNx3aIwO1x29wn2bZtVU0LfOnnw/1IJ6JIJhau1TlepBJRjDtWQztzCiAm1rGpq6IsloUii0ezTmVxaOagoiiKopwgMKrC/jWxyIwAmraZjpjGrHShI7SkZsSIUSKmhdE9jcuxrqV/JHvMG4cy8jORLYIBH9b6cP/44L8phpgWx1S11SCACPejJZOQc0iR6fm+iB/uZ8l1RSRlquJSUZTVj4ogRVEURTlBoMU2IxLz1bdEbFuWYTSD/W44iGedEFO9KICYDkcRwpS08WzxmO4rxZaxxZ4tcoxgs01dU6GMlSCMnFHo1MJUwq7WtETZWP/DZaSfU1MS3e3pw9YVKUrDdLjlfiiLQkWQoiiKopxkMFrESA8jL/XpM6EIoalC2BD0WMDtz+eGF+7TsY5G1UPRwxS9/QOT2D8wIY/B0ZxErcL9akrH0dfVhPVdTeZndzPaW1JHZdqgKCvJgQMH8Ed/9Efo6OhAMpnEeeedh7vvvnvWpMB73/terFu3Tl6/6qqr8Pjjj89ax+joKF71qlehubkZra2teP3rX49sNjtrmfvvvx9PfepTkUgksHHjRnz0ox/FSqKfWEVRFEU5QWAUh/KBEZZGuL6PRCwiKV0LRYwoTliXw2jMsYJbDg63zHGY1GY6G9PyBsey2HtoHINjOVS8qkALLEzlixgYmZL6qZn9sqRmSlL3VPwoazgQNDY2hqc85SmIRqP40Y9+hIcffhj/9E//hLa2tullKFb+5V/+BZ/73Odwxx13IJ1O4+qrr0axOBMtpgB66KGHcOONN+K6667Drbfeije96U3Tr09OTuI5z3kONm/ejHvuuQf/+I//iPe///34t3/7N6wUaoygKIqiKCcIyXhERA7rfOKxmShPmN7FgX1TeqZuhWKoUTTG2EHPL5KWA9b7FMv5hm5r3L45nqW7uC0GisRyxRWr7Kl8Gb7vw/UCuK5nitXBaBh7/1hwAksiUiMTeSRizZrypqwJKDpqicfj8qjnH/7hHyQq88UvfnH6ua1bt07/m5/PT3ziE3jPe96DF7/4xfLcV77yFfT09ODaa6/FK1/5SjzyyCO4/vrrcdddd+FJT3qSLPOpT30Kz3/+8/Gxj30MfX19+OpXv4pyuYwvfOELiMViOOecc3Dvvffin//5n2eJpeOJTl8oiqIoygkCB/CdbWnE4444vjHtjUX8Yj8NoL0lKcIiEYuKEQKjIPUYweTJcsfSLpsOdVw/BUbYtHRaoJQ9ibKwf89yQnHFWqj9gxPYNziBgdGcNEGVyJk41NliEkGL7mKJ58wItGjUkb5CNJ5QlGWDgtte3kcYCqKwaWlpmX585CMfabgL3/ve90S4/N7v/R66u7tx0UUX4d///d+nX9+1axf6+/slBS6E67v00ktx2223ye/8yRS4UAARLs/PEyNH4TJPe9rTRACFMJr02GOPSTRqJdBIkKIoiqKcQNDFbF1nE3KFCvLFsqS18Tk6l/GnseUFWpsTGB7Li0iKOnzeiAQKgIjjSG+eYwkFUFdbGsPjOSOEqilyYUSrsy2zrFEXCq3h8TymciWTiueb7XEblYovgoeudDw/jh1I6iDNDyK2ZdIDJXXu2KUHKspysm/fPqnPCWkUBSJPPPEEPvvZz+Kd73wn/uZv/kaiOX/+538uYuW1r32tCCDCyE8t/D18jT8poGqJRCJob2+ftUxthKl2nXytNv3ueKEiSFEURVFOMFin0pyOy2M+KIooAtinh81SKZZMn6AI2ptTklZ3OFgzRLFgV53lltqjhE1L+7paRKyJCYIFJKIRJBPRZe93wshONl9G1LFF+PCYud+SDkjR49WkBxpFCN/jSTECiipIy3+UtdIslQKoVgTNh+/7EsH5+7//e/mdkaAHH3xQ6n8ogk5kVAQpiqIoykkIRQabezItjelyTAljJISW2Y0ECEUKewzRIIAuagEbhFbrebg4RVNzOrFkAUNBcjyajOYkKsZjNP2ShOpuMm0HvmeanlphjZIxjyCex/eZRrKKciI1S123bh3OPvvsWc+dddZZ+Na3viX/7u3tlZ8DAwOybAh/v/DCC6eXGRwcnLUO13XFMS58P3/yPbWEv4fLHG90TkNRFEVRTmI4aOLgnmKIQqbRIIp22QcGJzA0lkUuXzKPQhnFEutpfBEV7Cu0p38cTxwYxcBIVsRSba3PSuO6/vSkuzXtgDezf/xdnPWCoOqux99plmCiXU2p+DGtkVKUleApT3mK1OXUsn37dnFxI0xho0i56aabZpkusNbn8ssvl9/5c3x8XFzfQm6++Wb5bmDtULgMHeMqlZm6OjrJnXHGGSuSCkdUBCmKoiiKMi80STg4PCmmAIz+sE4m1A78wShSqVSNorCmqBoxohCi9fRqEUJM1wv3xfRCoqCxpqNCplmsI2LIHKMRQ/xfayaBtpbkCh+BcsKxCjyy3/GOd+D222+XdLgdO3bgmmuuEdvqt7zlLdVdtPD2t78dH/7wh8VE4YEHHsBrXvMacXx7yUteMh05eu5zn4s3vvGNuPPOO/HLX/4Sb33rW8U5jsuRP/zDP5Q6I/YPopX2f//3f+OTn/yk1CKtFJoOpyiKoijKvNBNLWxsKq1zWCdTHWeF+sYLfOmbQ+HABwWHvHeqKHU/i6kvOtbQknsyX5JUPtZMsSGs59tidsBIDw9F6prAHkC2WInzmFgjpREg5UTlyU9+Mr7zne/g3e9+Nz74wQ9K5IeW2Oz7E/Kud70LuVxOrKwZ8bniiivEEptNT0NogU3h86xnPUvSS1/+8pdLb6FaR7kbbrhBxNUll1yCzs5OacC6UvbYxApWyxTNGoEhQF7IiYmJRRWcKYqiKMpahUOE3QfHJLVNhAAjPZ4nQoH/r23KSuc5Pul5nggfLk+bbkZROlpTWA3Hwkao2VxZ6nvCyBD3kUKItUkppgWmopr6dgKwmsdr4b7t/sIn0Jxa3gjjZL6ALa97+6o87tXGyk/NKIqiKIqyKqHIYZPV6QQbo31m2VnXIvOq1WJvPhg9ogX3aoD709WaFvFDlziKH8LfW5sSaGtOSoRIUZSTAxVBiqIoiqI0hGKHzUNdUT6hwGEExQeCGRlk+vnQaIB22caiW94fWk6vErifHS0piU4ZERRIyluYvqcoxxN+lvhY7nUqi0NFkKIoiqIos6B4oRGCmCFUraIZEaJYoJAIvNnOanRRoxMUYRqZLMP6IDY+Taw+W2lagadU+CjKSY2KIEVRFEVRpqHYGRrNolByRf6wR04oeGgqYByoZkwRCJ92HFMXxMgK0+jKrot4NCJNWRciFEsSS1rmqBHXTac3boB1QMu9fkVZpb1SlUWgIkhRFEVRlGnRwF5ANEKgoDFpbpB+QKWyZ5qN8jnbBn0DuEwmGUe2UIbn+QgCa7rWJh6LoKstLVGX+bbF2pypfBkVl2YLQCIekUcsEkEsZuyqj/Q42MdoMlcSZ7swQtWcjiOTiqkYUhRFRZCiKIqiKIZiyZVHrQAidHtjKhx7AvFnOhlHKmkarLL+h+5vFE7TAijqSBrcfCJGxNZ4HlPZokSXGDniz8mciQZx+4lYFM2ZuAiXpYgWrpu23uNTRfmdIozvLpVdDFVclF0P7c1JFULKyqOhoBVFRZCiKIqiKEKxXJHmobUCKCQScRCnuYBloacjM0tE8N8UROlFuv0y+jMxRQHkSbqdx9w647sgeXZhX6KRCb7uo71l8RbbjFhN5EoiziKRmSgUxRBT/SazJaQSUSTjq69WSTm5CF0Ul3udyuLQqkBFURRFUQQxgFvg9eUYXjFSM5ktwnU9lCqsHQJoNucHFjyfD/47MGLMsmaltC2GbKEkkSXWANXDKBZfY6qcoignNxoJUhRFURSlpuGpESqNZpRpMpBKRI5qtpnihr2DKh57EFmI2EZ5WdNGC5YIlVLZRyIWQbniT9coLQY2PjVZRo33kVGupYgqRTlmSH3dMkdulnt9JzAaCVIURVEURWCaGA0EKBJqLbCJNE21LGRSTIo7crgOCiCatk3XL9T0HKoVXIwKmX9X/7EIjD33/K9L7yIdKCrKSY+KIEVRFEVRBNu20dmWlrQx1tZUKp44t9FUgNEZmhSw9ueotmFZcL2I9BbiYz6YHldxA9FH4ki3SNLVvkTc37nrNHbc6cTRHYOiLKsxwnI/lEWh6XCKoiiKokxDw4DezmZk80XkChWJnCSTUYkAMVJ0NKlwXBdFFa20iWP5IoVsi72I+AwLxflvC15giWiJ2ZZsd7HQVS4ec4zLXbVxK+G6mCrHFLujFXKKoqx9VAQpiqIoijIL1t+0t6TR3jJ/fdBSoQgZnchjKleGBU8iPY49Ew3iJhinoRgy/U35OtCcikuK3uFgCt9kzgi30Ha7WHEl8sT950+Kqc7WlKbDKasCaRB8DNapLA4VQYqiKIqiHHPL3aGxPIbHiyh5Njw/gpIbQdyuIOaYRqnBtDsCo0COCJ+OlgRamxKH3Qf2LxoczUqkh6lzEdsGHIj9Nq2xuQ5GuBghUgthRVHWXE3Qrbfeihe+8IXo6+uTL7Frr7121ut//Md/PO25Hj6e+9znzlpmdHQUr3rVq9Dc3IzW1la8/vWvRzabPc5HoiiKoignD7mCh0OjZRTKtKi2q0LFQtGLIleOo+I7KHkORvJp9GebkfOasG1DM9oW0dSUkarR8bwIIDZppXii8InHIkgkItKDiFGhRPzoXO0UZbmxbPuYPJTFsabOVC6XwwUXXIBPf/rT8y5D0XPo0KHpx9e+9rVZr1MAPfTQQ7jxxhtx3XXXibB605vedBz2XlEURVFOTvYOV6TpqROxwMw2ZqOxzCcRteBbNkp+BAFs+FYCvR1xXLYtilRicZbYjAKVKh6iEXuOyGEKHMVWtlBeksOcohzXfLjlfignXjrc8573PHksRDweR29vb8PXHnnkEVx//fW466678KQnPUme+9SnPoXnP//5+NjHPiYRpnpKpZI8QiYnJ4/6OBRFUZSVxfWM/TIH5EtxHjuRoEFBvlAWASGiJE7hEVv2epliJcBEHojbc8dnbP3DzdEEoTkR4NweOrctbX6W1t3GQKGxaHJsW5ZxmSoXW1Nzv4qiHENOuG+DW265Bd3d3TjjjDPw5je/GSMjI9Ov3XbbbZICFwogctVVV4kl6B133NFwfR/5yEfQ0tIy/di4ceNxOQ5FURRl+SmUA+zo93HnjkAedzweYGe/L8+fTGTzJRwcmsTwRF7+PZkrSU3NoeFJEUfLCc9tscI0OFpjB/DqTjXND2ywlsdGIra46E99tIfU9zUKkefZk/IkFbvKKkYtsleUE0oEMRXuK1/5Cm666Sb8wz/8A372s59J5MjzzBd6f3+/CKRaIpEI2tvb5bVGvPvd78bExMT0Y9++fcflWBRFUZTlJV8K8MDeALsHgVLFOJBVXGD3EOR5vn4ywPSx4fGc1Mmwhoa1M3xEo8ZWemg0K5GVhaCwmMgbAfnQPh/bD/oYmQrmvK/sBtg1AEwUHeQrEfiBj5KIInP+ZV1MhLMCxONREUJLhZbX7GvEaE+j/ax4/vQyiqIoazId7nC88pWvnP73eeedh/PPPx+nnnqqRIee9axnHdE6mV7Hh6IoirK22TkQYDTLQTdQqJjnGByIRyDpWrsGA5yz8cSfRc3mSvC9ALE6pzRGVGiNTZFUKFbm7aVDYfHEQIADY0xFY4SFjUmBg+MBOpuAM/uYZmiJyHrkQICxnPk9W04i6vjiBsf0t4pnIR4JEFANWVH0tCWO6HhogsAmrqOTBdkhih0eF/ez7HoSAWrJxNUUQVl1hCZey71OZXGc0NMip5xyCjo7O7Fjxw75nbVCg4ODs5ZxXVcc4+arI1IURVHWPrlSgEPjjEyYgTuDApHqX8B82Tw/PGWiRScyFAb5Yhm203jwFaaMlXhC5uHgGLB3xJy/5iTQlABaUkAyCgxMQAQSGc0BY1kgkzDLuYGD0UIGuUpCTBACHyi5DopeCl3tGYlKHSm0wG5rNiKKNU6hWQIFUVdrSmqdFEVRTthIUD379++XmqB169bJ75dffjnGx8dxzz334JJLLpHnbr75Zvi+j0svvXSF91ZRFEU5VkzlAxRKJmpRO9Z2WCtiAWXPiCGmaaXic4VDUFN7cjLD6M7BMaavAfHo7NdoMkHHt8FJYGMno25MjwvNJ4AgBUwVbEyUk0A5IdEjXotzN1rY0H5055aCrr05heZUAvlSRfaT0adk4shS7BTluCBubsv8vaJfUyemCGI/nzCqQ3bt2oV7771Xanr4+MAHPoCXv/zlEtXZuXMn3vWud+G0007D1VdfLcufddZZUjf0xje+EZ/73OdQqVTw1re+VdLoGjnDKYqiKCcGU0WAFSPRBgMEqSUWtzT+2zTrJIwKHRoPMDRp6ldSsQC9rRa6m9dukT3FAutjaBndiNBcgGlxjaBQ5FspdhrB1EJmpU2ZzDQRS2a7QDpu3sd6LEmHc4GmJLC5a/lESiRiozmiKeyKohyeNTU9cvfdd+Oiiy6SB3nnO98p/37ve98Lx3Fw//3340UvehG2bdsmTVAZ7fn5z38+q6bnq1/9Ks4880ypEaI19hVXXIF/+7d/W8GjUhRFUY41jERwPM6IT4P6eRPpsYFUdXDPov/79wbYM2TEEbXBeA549ECAxw6Z5pvHGm6DzmqlSjCv89mRkEmb+hi3zgVOamgqngig1Dwqh7ux2D1JxYx4rN11XgdG2phC5zgmTU5RTlrUHW5FWVORoCuvvHLBPwQ//vGPD7sORoyuueaaZd4zRVEUZbWye9DHoweACsf8dISrRig4zqfwoYEo/7QwUhGNWPD8AI8fogAxg/RwTMHlKYj6x00NTF/b3G3xbxQd1qbyJRRLFREbFBSZVFwc2BYDt8+6m0NjAUqMTsHsx/p2oKPp6Ac4yXhUamgmskWp/WGaX1AVXbGojc7WtLSOaAQFTCJiaqiY5lYPRWY0wl4/PJ8W9o8aJ7h6jwW+n6mIPS06YFNOXiwcA2MEzYc7MUWQoiiKoiwF9gR6aJ8RPjI0sEwkg9EgpnaxLQ2jE6xv2dRh0tyGpwJki0YU1Y9POMCnMKFAWdc624lJbKOnihifKsALAtOENQgwni0imy+jsy09r+NarQBitIkGAzQeoG5i4GokC4znA5zWS/F19PUzrU1JaY7KHkGhEEolY4hHo2JnPZQNZPvtGZ6bme3xmNa18bzSenp2fRXPabEM9LYaAUQ2dQbYNWhS5HiO+SzPHy9CX7tZv6IoykqgIkhRFEU5ISm7JgLEwTmFDn+GFT/ULvw3H9QlrE3pqxbn50vm+fnaylCYMEpEEVAb3KEj2Xi2IBtIUC1VibBXjethZDwnDmiRRiGUKqw/orEAIy61AoO1NrmSsfGmcEjUFTdRgLHWJqgue7iaJQohRoT4CN9P4fXIIUZuTMYFo2N8eUN7gE2dMzPWjEhxX7g8zwPPE00O+C7u26k9M9ve2GHJ+aWZAuuEgmpUa12rhZ46EakoJxtqkb2yqAhSFEVRTkj2DRu3NxE8bEVTfb42qZplMa1p9rbhYN0sUQ3gmPc0GE9IW5uqq1wtjKpIA9K6tDcOSqIRB6Wyh1yxgpbM/CKofzyQ/WzkS8AaG0ZUaOW9ob16LEGAkSngwFggr6EqXBilYqRFolGLgOvcfsgU/NDSOjwHPH+M5Nh2IIKGcJ1n9EF6Ag1OmrRBHnJbypyX/gnuf4COahSpq9ksWyizUaprIlzsUYQjt8RWFEU5WlQEKYqiKCckY/mq4UHoQlvVAxzch74GHOxvbGcNy4xYYL0PgzX1kZ7wvYy4MOWLFsy1hGll88/4Ltx/R3r4lBsLINQcA7cfwtohNoFllIs1S1yEwuXxfiOKzlx/eCHE7e4fodmDiYjVbo9RHEZ9DoxSWBnbaXPejLjpajZNSdk4de+Qqf9hhVFQbUK7sSPA+jZgbKogKYFM95P324xERdDRkhKBqCgnJcfCyEAjQYtGRZCirCH8UgGVvTvh56ZgRWOIbjwFTnOD6mzliOGATgroq7PxmlqwdilVXaDrL6FEcaoRHVLfR5OREEYuaIDAt3KMzvdweabKURg1qsvhvXI457TDBWYYJSnONm2bRnyBgpk0vWI5wO4hEzmqdVljJh4jXEyr62gygi2k7JrIDY8nEzdihCKHFuLz9RNlE9RsiY55Zn31MC1uZ7/pHRQaSYRRpCcGA5RLBVh+CRHHQTxqdp4RMxFFXoDejgyc+XIPFUVRjhEqghRljVDa8RAKd94Cf2LMjISCAFYqg/jZFyN5yVNh0W9WWTJm9j3AVN7HWI6z5764hXFA15S00dPqiCOXiqG1B8WAXRUv9eIjHKjHokBzavYAnNf69F5zbzBNjNGZEEZGWPPSmp57P9AFjs5wfF/9/eJXnU1pRjAffE9XszESaJSKR3HOj3lb2vzOfWNUqJHNtAi3anodextR/OwZDjA0YRzc+Brrjljfk47Rgnt+gRbWTzWyFqeY2Tdijq22yWwYReL5YE+i1rSNSI3QcRwLCduSOiq+3kLlqSgnGzUR6mVdp7IoVAQpyhqgsncH8rf+CIHrwunoEcETBD787CSK9/xCfH5TT3raSu/mmsP1AuzsdzE04cusdf0sfq5EYeRjc5eDDR2OCqE1BiMb1Bx0LOP4PRzkGztoM1ZgxKcRtMo+e4OpwRnLmeW5Pi4fizS+D2iDPZUrTffaCe8XCqBK2UM8HkFqvnBLFQoW1tlwu3Sno5ihQGEWHe9RRnVC0cPfyXy3JSOZFHAV18cjByC1Q4xisbYoqEa1th8MpL4oTP9rFJBhVIkRqka7Thc9rme+5qmJaEWEkh8486YIqghSFGUlUBGkKKsc6TvywF0ISgU4XX3TAyvLsuE0tYoVb/nh3yBx9iWwU9UpYmVBXNfHwLiHHQO+DC5JKIBqx5OS0lMG9g57aEnZaE6pCFpLdGQsDE8GYoPNdK7pSIZlBvuMVGzpmv+a8rPG+iA+FgNrW7raMxgey4kQIqEbHQVQV1vmsK5tNGc4e72p6aGbml829yGjWozaMAoVfgdQmMg25jFw8AIgYTMtzsLIVCBpfiJyAh+WVUEszj5EFgYmomhO2xIl4rmqbREkYqnCc2kanDbahtRdzXNYNgIRoPO1+GNtkc+VKMrJiNYErSgqghRlleNPjcMdOAC7qbVhJMLONMMb7od7aA9ip569Ivu4VvB9H3uGfOwf9aWeonbotdCfDQqh4UlvTtqUsrph4f6hMRPNYQSFqWPi7FYVJ3Qzmy8SdKTQcrqvuxn5QgWlijFKoFtcMhGd1zShnqakhYu2sC+QibLwba0pppvNfn9bBnBG5jdwYASnp9OSlDiKH8cKYAdl2EHBmBdwfx3WwNmIIY6WZAITBUsiSIwMUTSypw8jUqd0z04JpcHBwESAiZxpIFuwzHL1uL4DBs5sK5SDs+F6EjH9XCknJ2qRvbKoCFKUVQ5NECiEZAjhRGAnU7AzrbAi5uNr2SbNJKjUWEYpDdk96GPPMGt+Zgsg0niINlMQP57T2eq1BtPWztoAPHawah9dvcYUBIzunNFnzXF4Ww4c20ZTOo4mNFAFSxjIsPYnrP9pBNPiuqtCT+qbIuZ+pfjJlY3BQ3eLcW5j1MhCBXaQl/cGxjNP/mXBh1cpYkunjYliXAwVwtS4TZ3A+jZrlgDbP2LS65hqx+1KhK0AFBNGmIVRIX5ucpUoOpIlEV31eL4ve5Bhfp6iKMpxRkWQoqxiGAHK3XIdvPERM6KIRODTFyE+iOi6TbBTGfiloggiu7nGAmoNwzqnysE9gOfCbm5DpHfjspg+sHHmgTFfBm1cnV914AqjAo2E0HSaDy2Vj3oPlJUgHbdwIaMqOVO/QmgDzcjKWp8xDQ0cGGVhk9XJ4ox7HKNcp68zvY9ijo+cyyhQsXq/z3yeRAIFDizbR75QwpbuBDZ3GSHF9dSLxINjPu7dbUQSI0acg6GRCCNGFJqub/ou8Tku05Sw0dUSR75QlMgYzREsWHA9X2qlMskYUsxLVJSTEU2HW1FUBCnKKo4A5X76PfjjI3A6e+GPDsJKJE2X+2JBhEJ006nwJ0YQWbdJxMJahqYPhXtuRfmx+xDkc+ZJJwKnex1Sl1+FSPf6I153qUIDBE9+ckY8rA1ZzJ8KFsST5qT+YVmrMA2tPQN5nGhQpDCixX48tLDm9wMDKy01Iq+n1cIT/S4seNUI0Oz7m0KfKWk0UKBbG13uGhkksD7x0QNG3EhPoupHwo6YiQVabzPlkOlxdN1jDVNfm414NImpvGNMI6iugkDc4VpTCTFEWGyaoKIoynKiIkhRVinlXY/BGx0SMwQWMldKRfi5SVgccUSiCPJZuPt3IbJ+s4gEq7aaeQ1SuOsWlO67HVYqDbtrnRxPUC7BO7QPuZuuRea5r4DT1rno9bHWYCLnY3jKl1Q2qQFinYQ/U6Q9XwpcLVyGwmldm1qQK6u0r5XrS71PV/NsG+qQnhZgaJyGINUeSdVFGK2hxmctD6M6ZZ+fkfnTPkezgfQTMv2zZr9mV5ujUiD1tRkDh1oTiGamB6Zisq9MRo06zmFNIhTlhEcjQSuKiiBFWaVU9u+SXBMjbmxEN2yFNz4Mf3xUUsUC24Hd0o4mioP2LqxlvLFhiQBZ6SYxegixYnHY3evgDRxA6dF7RewthtGsjwMjHqaK/nTDzOmhXbUwvva5+pS48DnCs9/XbknPoKXAvizMYOSA0dHBnnIMKBQrmMgWJHojfX5sC+lkDK2ZBCJ0NqipjdrW52D3IdMvqOJy4GXS3ZribJpqiWkI3x8JLecaIDby/PzMswijQZxkkL5MDe55RqZoHa4oirIaUBGkKKsVFq3URHdoihDp6EXQ3i1TuN74qKTBrXUBRCoHdiEo5mE3SHmjFTibwpafeATJJz8dVmT+ZpNkPOdjz6AnNQeBP9PoMUxra2SIMGeb1Z8sVehusXBqz8LbrGWq4GNw3Mdk0cyqR2xLmq12tzqIHoMifGVhRqZ8DEyYgTlrVfpa+bFa21FTkiuUMTSWlR48UmdjGyEzMVVEqeyipz0zSwhlkg562mIYnyrKxApT0KSmxzbRJNrGp1IxxGreUw+NF6ht6GjdaKnwM6YlPoqySDQStKKoCFKUVYrTvR6V3dvndJ+nKAgcC4FXQaTnyOtkVhPu+Ajc7CQikqvjwE43wUpIUYO8LsLHdaVuaCERxHPVP+7B9QNpkkn3Kg7MOABuFOlpFBEiUbpiddkiXFhYv9gCegqwXRRgbiB9XTjTzoasB0aZRhTg1N6ICqHjRLHs464nGBU0NWByvas2zhdt9dHZtHaFEIXP6EReftY2ZbVtB44ToFhyMZEtooOqr4a2pqT0L+LrjNQEgYWKG4hbYizmoL05ueC93pa2kEkYpz3fnt0bKGzoSgG07sTwaFEU5QRHRZCirFLip56F0kN3wx8bgt3WNT044UDfHx8WZ7i11BdIag0o6Kqz8Py98OtfoPDzH8EbOiSRr8rYMBCNwool4bS2G5FnO2IE4bS0SXrcQrAwO18MpDaBw14OEuv7MIapb7XCh7qEWUAUTnxwMMfznWGnySXUIO0fYQQqQCo+U5TOiXXux2Q+wOCEh/Xt+rV7rGFE5PbHgbGcua7Rqm6mGGZNy507gCvO9NG8xBTH1UKhVEHF9RCtEUAh/J2mA4wUtTYnxa47hJGhno4mTGaL8jotqhkRamqOozmdkGavhzNhOLUnwIP7zGfEqQohfpZCS+1tfWzsujbPq6IcdzQStKLoX2NFWaXQBCD1289G/pc3wBs8ACvOdu0WglIBVjJtHNM6uo9f8fXeHWLZbUVjiJ9xvoiwxVpelx9/EOUdD4qdt9Pciuhp56K882EU7/k5UK52g6QcYQpgmYXTgDs6KLk6Tns3gkoJsW3nH9b8gWKDGTkyMKv292lE7Z8Iulx11EUFLItOW4EImsX2kaHIKZQDJMU1a/Z7pNbCDjAyFWBda3BCFITznpD6EPkbvrqO58CoaTQaNv0M4Wm3o8bBbGc/I0JYk3hVe8P5XNV4f8lnwTdNUmth6lx7S0oEEl/nOpZyP27qZAQpwM5BIFcEKv5MhG1bL7ClWwWQoiwWbZa6sqgIUpRVTPz0c+G0dqC84yFU9j0hz0XOvECej3T3HTeDhqkffA3uwH6TjmZZyCbTSJx/KdJX/y7sBXr40PCAzm7u0EERcUxlo5Aq73wE3tiQyaFxHHk+oAByKyZ/jcLIjsAb7hcTiOjWMxE744LD7isLwGlCwHQ4ihf2ITkcdOxt2CCVaXQcay6yjpsF52S+ASVPE924uL3YEsaJHHCOTlFgAfEYbZ7NMa4U+VKAgYkAw1McZJv0p55WG11N8x/78ebQeLWtVoNrx13k9e2fwJolPM/1qbIhIk5hLWg9LeJniamZci9mjUECG7WmY0AyDnQ2Ab2tK3tfKoqiLBUVQYqyyol0rZMHLj/+264MHMD41z4Df3JcRIydSYkyYHpa4Y6b4BdyaHn56+YdMOVv+wnc4UNwuvtgsasiaapGeSoVU5VdzVXi60HEqgohdlosAbG4CKD0s14CWyJhjbfDiXGuKhZl7xELQ5MUQYcXQKRRtEiECp3Il2BkJUGq4DAD0xp74oXIFX2M5iAF/YdGTSPK8P3peICzNgTY3Ln8M4iHg9Gx7Qd9EWSseeLmWR8ykfcx3lJt3LkKBsLsU7PQXnC/KUjXKsl4VCI6NDNgStycz4Proykdh9Oo2c8RwqjR4/2suTOTAyLqfaBQdYyjEFrGzSnKyUFtcepyrlNZFCqCFEWZl/ytPxIBZDe1zIgY2nZnovDzWZQevgeVy5+FaN/mOe/1hg7CO7QXdkvHzHurBKVqClxdpEZ6A7Huh5GgaAx2R6/UPdnx5Jz1cwC4f5TOX54Mejn27my2pVdKvmQhV2Kqz/wpcdP7Esyt7eHgjutayoCe9SWRiC8RIdYVzd5GIDUUXc3WvOl1bOTKWfaH9vmYzPNkmB3zfAuBzOubfWVNy6+fMIPSU3qO3187npedA75EAZqSNSkXUdaDsN4pkIay69qw4rAmSxwBadXc4BTxeaZvrVUobpozCYxOFMTogDU4vB6shWIfHtpc8/Xl5OCYeTB9lBMEIfysjGSBHQMBzl6vqTiKoqwdVAQpitIQNipl3Y4VicwRMcRKpuBPjaN43+2NRdD4CIJKuWEER8RO6FDAUVRNIfV0zx6m68Tjkg44qwFqPsDIpItDY4EUY0t0paqn9o/4GJ70cXqfg0KJPVE8iVosBN9P4cJ1MALEPictKUvE1FKIR/keS/YLlUAGihwQcp8pHPh6d8vcdbLu6PFDAXYNmVSzuOPJQDMUQX5gwfUslD1b7LbDhq+P7Ac2dtCF7vgMOsdzpgak1vQhhI53JYtpcj56W82AfCXZ1AnsGzHF+sYkY0bsilFGAKxvx5qmJZOQ8zyZNUKI8PdELCI1P/FapXKU8B4+OGbqi+pXy+dSMePCly8B6eXVXopyQiMtIOZrvHUU61QWh4ogRVkAv1iAe2ivGcw3tSDSs+GwxfnTRgKD/XCHBmSUHduwCZGWVTBFvsRjR6UMOJEFv2gZEWr4eiicwjyuGuzmVniFbPV5f1YKWVBtNmJFo3K+aRVOKFSeGHAxVQhELIiD2/S2TBE8Z/gpOHYNeHjyaTGJWNy9c+G8p1jUDIwpNiIRoKfJQk+Ls2hDhFr62h3ZJ6bj5ctmtM3fU3ELGzscpGvc5jiwpLD49a5AXMxsK0Ai4km6nNS9Bya/juIsFjHnpOyx15BJR2IaEqMv6zuOj+Cg6QOZr+6Dg+Ni2QiPZRx/HxE0utjU6WM3hWV5RljzvPEn61m2rvH2Wvy8UAg1pWIolNgs1fQLovhZbhHK6ypCfp7rynuSkw2MUs4ngrh/bOoqZgy2JU50o1kL43lTW5ZOWFJXlohpJElRlOODiiBFaQAH4sUH7kTpgbvgZyeMtXMkKrUtqUufiUjvhnnf606MYeKG61B8YrsREhw4ZpqQOvciNF/5nHlrW1YbdjIFxGJA9RjqCdiJlMulmxq+HundCCuVRpCbgtXUMus1p2sdvMFDPNGAExPzg5nIkPHejWw4Banffo4M6DiA2jPkiQNbPBpgqmAGttLosVrDI85fNsBSIM5Ij075kjaUSXgolKoRgNp9sGfSuk7pdpCK21IDdDTF3Sw2X98RQVcL95FpdYwIWWhOzS5Sp7EAB+gD48bwQM6X488IoBl5Nx3BiDoBKj4d2SzYod1zCccNuQ783wI1T9ztVVASJJy/yVzjnQNGmMn9YplaJg7a+fyZ6xndWCU7fISw8Wv6OHUnXTCzlIYT87xEO242aS1VKNbMvZItOZgqJ1Dxo9XM2AD7hoFTe4GelrV9TRRl0WhN0IqiIkhRGsAUr8IdPxU7aKe9B5bjiL2ze3APsjd9B5nn/j4iHT1z3ufl8xj99jUo7nkCkbYORDu65C++NzWBqdtvhZfPof3Fr1hUNGml4bHHTjsXxXtvE+e2OXU9+RysaByJCxo7NtiZZsROPw/F+24zDnDJdFXQ+Ahold29DkE+C7/IApggDH+IGULy0mcgfcXzJPpGWN8zmfclTYw1MnR9E2vm6ve9H5oZWGbgyyjRZDFAe9rU4HS1mJnq0MGNKWRsghrW6vB3pqstFxQ+HU2N18fozSMHWNNkti3n2jJGDkbwNBYYth2IzTZFUDgYTRzHb/CWlMlabBTp4XmkeUP3AjVPxxvea3QJpNCV9MJqxMI0sDWmE4wIbexc6T1d/VBj8cHJhTofBkE+Q46ZVKgnXyxjaCwnESDTh8jUvnmei6ZYHr6VQmBF5R7PlSCpobxeTElVFEU5lqgIUpQ6/NwUSg/cKY05nZaZwgFGcCxGMAYOoPTgPYg8/flz3lt4+F6U9j6B2Lr1EjkSLEtS4bxoDIVHHkDpot9CYsupWAukn/Z8VHY/JvU9VixhmpWyP0zBCJfEhZcuGBVLPulp0uOnsuNheJNjVRHE6FEG6We8CNFTzkbp3l+icmC3LB/p24zExU+Fk5rd6Z7pb9RIRgTNlQkykxzOVFcVAmVmKmGJIGHhPtNswtohiSBVO9xT/KSOUwoOB4KMADH9JxHjvVataQproRpMtZsAi9k/EXySugfEnONb10IjAQo7Rq8owzielWJ8Nr2tDo7Xta2egetEnr2bgEx8rssff+fj0HiAvvaji/6tBIww8t41qZLH3oyA6Wt9bcD2Q4H0WKo1/qCgZKocX2faZ704Hpssyv7Gq41duWyZjVU5MQIPdlCEB5PCx3uMboP944GKIOXkQJulrigqghSlQV8cCiGnc13jIsZ0swgD/7JnzHEtyz98P6xIbEYA1cCBvTcyjOKOx1adCKLVNW2vrUQSdnJGgES6etHyqrci+4Ovo3JwN4L8lHzBWukmJC68XKyrFxqAMZqUeurz4Z15ESr7nxCzBabPRTdvk6apJPWUqw+7f6bviRnsRSMmCiSlQzWbDvUD094429+esWWAFo+YvjYSPQoFk6zPDOQ3dDjHzdZ5ogBki2ZWvVrLPi3eROzMNcyrOToegzk+7u2WHkawjl9EUdIGe8z+jWSraXxV8waK063d9qoauLIWaL5eQYTigQN6ionjlE121NBE48CYEQlhTVxr2ojhtvSxPfcUObzmdIhj8JafMZ5fbpX22Kc2cCosVbxZ7nWE+y0TEfIJ5MXxqg8KIXNdGCmaL+1SUU4oVAStKCqCFKUODtRl7n2elDUW7DOdS5arE0F+LguLdTTz4djw8zmsFtjMlLVPld3bTX+eSBTRLduQOO/JcNpM5Xi0dyPaXv9XqBzcKw1TTZrcObATDXJfGsCBDBu7Hk1zV84w83JwEMjvd0Ydir6JCoVRHbHD9s3MdFMC2D/qiTlBrhCIhbbZl5leJjPCY3H9hJYD7hsHjrIP1foZ/k55VvFsxCNeaI1X866q6KNLnM+GlMCWLuCCTcf/Dx1d4M7oYwG8hfGcEWWJqIX2jEkBXE2EJWYNfDlm1TCtrr2eH977D+9nk1oj7BgJ5PkfnATGcgHOWAd0H8NaGn6OT+0xgmdoiiYH5nPI6GBHpnF/KEY+OfkQrXerqlnUGMCz2mzmpeP3iVQU5WRGRZCi1GGnMvKXOPBcWA2c0SiApHFoIjXnNdYBucODDdfLmU12aHRaTARkpXFHBpC78dvwxoakfsdKZSR1rfTQ3VL7lH72y2bVPUX7NsljJWD6TcwJpIGopIRVU+JCh23UeCoE1YjLeCGAYxl3NaljoOlANfrCeiCuk715hicDdDZzuWM/HOYsN/ePA1lGIUK3MlLxLLHAdqTuZ2aWPRR5FddGb6uFi7cAmeTK1ZRxMMxaGvYEWs2wholCwaQ8zn2daVkUb41eW42wSSnvG6aM1Ua3eE+xlmbnYIC2tKlvO5bXnpGn1kVGnZhmSHFEMeRUa8XCfTcalOKH/525n5kq153WfkPKSYJGglaU1V+drSjHmejGU6TBp/S5qctNojAKCjnETj9XIiL10AGOhK5wtXhsOppKI3nGOVhpxK72np+LAKIFtZ1pMcIu0yK/8/ni3bfOOf6VmP3eP+zikf0exvMUAmZQy5QwcXKrfteH9TTTs8lM2avWz7CnDnUSBQYtfqUGxzYF/KwHovVzaP98tGSLAXb0B7hjh3k8dtD0NWJNBA0RHj8EjGUDTBZMOlPtVml4UCg7KLvma5kRHxMBYiTMlvQ+pp3V110ojeF56mo2YidMwSL8yQJ/nt/1bdaaGGzzc8gUOO5zfXofd5+9mxiZYdPS1UQs6kjfoopnbPAJ72FOSrBOzzKfzOmhCK8VJy16Wlf/NVEUZe2jIkhR6mDxf+q3rpS0N2/ooKmXKZdExLhDh0zx/jmXNHxv8sxzkDznAokGVYYHxVHOL+RRGTgoaXCZS69AtGdurdHxxh8fhntgN+zm9jlpf/zdbmmXaBCXWykoHHYNejg45qPichBl7I1lEFgVB2Gj1KqvXHVWmcX6pndQOL5lGpoMwqbrEsyALHx9ObTe4GSA3+wGdg2a2gk+9gwDt28HbnqQ/YCAJwZnIjyN4L6zF1Cu7CDPR8VBPOKgKWmbPjwViAvbsRaepg/TwifF9315rGZYp7KuzdRfseBezBIKJrrG1zoau7uvOijked0bObORMBON0cXVBAVmW1NS+hcVKy7cati2KeEjZnuSApqtJJAvWxK95ctsdMv0OkU5ObCO0WPxvP/97zcThzWPM888c/r1YrGIt7zlLejo6EAmk8HLX/5yDAwMzFrH3r178YIXvACpVArd3d34q7/6K7ju7D9Wt9xyCy6++GLE43Gcdtpp+NKXvoSVRtPhFKUBsVPPktqe4v13Sh1M4PkSKUlccBmSF14+b28cGiK0/c7vIdrVi/z9d8ObGJeRdrSnD5lLLkPq/EtWxcyzn50yJgVVc4J6rHgS/tSELBfWBh1vWHMymvVlpoapYqwtMI5kgOWZgS0jQbMFTLXQo5oyV1umwIEkB5FhhEie8yiqLKlrORoYSdp+0ESqmIZF2DiSrmkULtwc9zU0Z5iP8NZgal4Y2aKYaqs5smN1+zA1cP8oTSRm+i61ZwJsaDd9jghFD93t9o+wGazZn5a0hy1dFnpbV9+cGq/tmX2mqH+Mtsy+SX/rXKApp9h9lz0UypWq8LaRSkTh2LakdfE+YkTmeDrK8d6ZNgNpuM8zroerjUQ8gp6ODManCtLU1XN9OXedLTGU/QTG8o58HrsSpj8Q0+1Ww3ekopxMnHPOOfjJT34y/XuEncOrvOMd78APfvADfPOb30RLSwve+ta34mUvexl++ctfyuue54kA6u3txa9+9SscOnQIr3nNaxCNRvH3f//3ssyuXbtkmT/7sz/DV7/6Vdx00014wxvegHXr1uHqqw9vjnSsUBGkKPMQ3XiqNOz0J8YQuGURPrXOaSEcGNL62h0ZQqS5BUk2RX3qs5D5rafAHRuFxdSrjm7pNbRaEPMG7g9nalg4UQ9NEmhh2yDl73jAQfj2g744qbEvkFQNVN2oGBEJWwrVjwnri6pDVzk+57MeyKkKEmlKGoiQ6ltCbxu+ZyxnxA6jUqzB4ICOxemFCtAizVdNxIH7zo0dLto0X9F+6BQXHiPFFCMXTOk7FgLogb0+xnNMYbJELHLAfWjMFN2fvZ7ijpEupmXNHnAPszA/G2Bbn49Te1bfKJwDagrTUJwuhOf5GBrPoVB0TZSrenHYdJf9bIayEbn2PPau5gB9babf1LGG6ZvcHpuJMp2s/p4xva6A9rlfT6sCpsT1tGckokshyeOpdYxTlJOWMJ1hude5RCKRiIiYeiYmJvAf//EfuOaaa/DMZz5TnvviF7+Is846C7fffjsuu+wy3HDDDXj44YdFRPX09ODCCy/Ehz70Ifz1X/+1RJlisRg+97nPYevWrfinf/onWQff/4tf/AIf//jHVQQpymqFf6Sd1vmbsUzdfRtGv/t1uIMDxkjBdhBp70Drc1+MliuvRqz3yB3RjiW0/3Y6euAN98PpnPvF50+OyetO1/FP3ePY88G9wHiezUGrZgJVowAOQKfTyaopcfL3Yx6BYeIu5kX+l3UIYYSFooIF3r1tixOntNlmqhuL0EORwiL1rd0BpphiVZ2tp7BizYmItuo4ujb6NGcfG7iXha5mhILkWNawZIs+HjvgiZCRSFtg0ino9sYHI1o7BgJ0NhkBJEYTNWYCYb8lNrnsbvYldW8twggQBVAuX5EBum07KFYsFMt0F/TgBTkUgzRikYiI8L3DwMhUgHM2sEno0V0TiT5VPOTyZZRdTyKBjD6lkzERDHy9NQkccozpRyZhGtfy3DNNjmlwG9pNbdBqhfcta4QURTk+TE5OzvqdaWh8NOLxxx9HX18fEokELr/8cnzkIx/Bpk2bcM8996BSqeCqq66aXpapcnzttttuExHEn+edd54IoBAKmze/+c146KGHcNFFF8kytesIl3n729+OlURFkKIcIblf34GhL31Gan5oeGDHmhBUylILNPzfX0bgeWh91tyGqqsBRqUS51+K/M9+AG90UGqAOGr3J8fhDR2SSJCVaUb58QcQ3XrGnH5Ixwqmle0a9KUIPGL7Nak+RhFQWHAAWh+4mbZDbpBsxucYSYqx0ar0DTLd6LuajNlA6FrVKOpDN67BCQoyE92hSGC0hz+5HxQnjxwAUgyYBUZYURDR4Sq+xPHefFbO3BaPe2v38tewjE752DXoSgQonIxkTRAfdBmLR20xGGBUiw8KuXo3tbC3C4+dNVDnbsSahClw+UIFXmAhX7Ak3c/cexY830HM8QCvDNeKiNhgRIb1RRSIF24+8hQu3tvjU0WMZ4sSJQkjgNlCGfFcEXYkjf4JW84/Bbb0NqowYlcVpA6wsQM4pWdtmDwoijKDmXJa3s9tuLaNG2d/Gb/vfe+TyEw9l156qdTnnHHGGZLK9oEPfABPfepT8eCDD6K/v18iOa2ts1PnKXj4GuHPWgEUvh6+ttAyFGqFQgHJ5PEZY9SjIkhRjgCmyox+7xsigJy2dmmiSlg3xFQzb3wM49dfi+anXgV7ob5BK0j0lLOQ9DwUf/0LeCMD8MdHERQ5Go7Aae1AMDWB/C3XIbL9AaSf+WKx0T6WTOQ5IDcRiWpbU1EWXk0e2cyzM7+HPYLoGDfvsUYstKVtdDXb6GxmVGXhaAUjRhQ3Q5NA4JvoD2tBmKYXNqhkZKYpWS24z5kZeun5U400UXAx4zCMYnEf50uJm+95Wjif0WdJDUtynhqWo0mB2zfsiZgLqu55Moau1i7xHEQcPkx9EkVO2GOpnjDalS2s3Q4v49kKpooBSq4tYsPcV7RO96XhLn8mIyUMFxJS6E/hRzE0WTVbWEy6XSPyxQrGpopyf8SjzrSQ4TWYzLnIlvPIu2mpYaKAZ/YqUy8pwjbTRKDJWvZ7Q1GUtW+RvW/fPjQ3z/zdni8K9LznPW/63+eff76Ios2bN+Mb3/jGiomT44WKIEU5AkpPbEe5/wDsZGpaAIXwd9YPeePjyN19G5p+++lYjXCwFd92HmJbtiH38x+hdP/tcNq7jBFCtX4pcCuoHNiF/K9uQPrZLz9mM82MPOwZogucMQWoGlzPyXILfw9NAkyzUzMbHqGzWp3tNJfpbgFO7XWQijHFaXH7z7Q3GgRk4kbA5MozERBGCCgGmJLEf+eK5mc93A+KploWEkK1pzYZM+lN529m36Bjc87Hcz5KbiCD6WzRCJ1aYwapmXJNLVa4fwuZwfGwjqNXwKIjXftGqpE5ioYOGjnMfF4n8z4OjNFeOkC+4CMhxhvmIKKOj6hNd6OqJLfY6yZAS3wKpUoGsYgj913oBHgkIohRoMlcSX5GWdRTA++7QsVBxHLRnPAQWJHpyCCPhZEh7qsKIEVRGkEBVCuCFktrayu2bduGHTt24NnPfjbK5TLGx8dnRYPoDhfWEPHnnXfeOWsdoXtc7TL1jnL8nfu3kkJLRZCiHAE0POBUv9XAKIFY0Qh834M7OY5Vj+2YlLjmdhFB9W53Ypd9YDe8kUFEOmeHsxcDB3je4EH4U2OAE0WkdwOsRFpqTZhixtEzB9wciHJmveyaFoq19TyNmE6BC2grbQbgYV0OfzJd6Mw+B+1NzpIjJBRAnHXngFPc3WpsrfmT6WM0SAhduWr3pxH2tEgwLnf1w9ZQfHRUIz9tGdPQ9VinHnILjPQwqsHfnVoXOgQyEOfxc9BN0cfz0ihtL2xeS+28c8D0s2EUqymxMk5fjNTe8wRwaHymmS7ZPQisb/dxwSYT6Ts4ZiJ8PKY4ozuJsH9NIAKIwofGHDw6x/LhB5akxdk+L34T/OqVPFLxx3uhVHYlslQP+/4wNS/uBPDhIqj5c23c6dhAleYMc89x6HBX4qxCTb8eTZdTlFXGKmyWms1msXPnTrz61a/GJZdcIi5vdHOjNTZ57LHHxBKbtUOEP//u7/4Og4ODYo9NbrzxRhE4Z5999vQyP/zhD2dth8uE61gpVAQpyhEQaWuXER9rgKwaK8mQoFI1SZjHgno14U+NS+rbvLbfiRS8yTFJmVuqCHJHBlC4/SZ4/fsRVEoIpLNjM4a6L8aerstRDoxAiUralbEtTsZN01Ez2A6/zGfkhYgJFu5HzeCcdTnhQDceA1JRoL3ZRk+Lc0Sz5JxhZ0SJg/5ae2Jug6KAr9X2+gn3jBGT0AAhjJpM7zWbXFbXEXUspOLm+FjbERomnL8JOG3d0k0FWEfC9C2pD+FGFolEpar/Frc8NpZ1Z3eYMNGsQEQZUwBHp0xNCs97eGl4THyOv/J1WpuTvY6Jwp2+7vjaSZP790AiQAzShk1nw33dO2LSGyWSQueyiIkUFd0IXN+u1qL5kgpH0SP3YGCulx840tsmGqH8qaBUicm54Lk5IhbIHpT7YoHX+Xnhea8Xpa5rHO6KJVdEFqrim1bVna0pROu7rSqKclLzl3/5l3jhC18oKXAHDx6U2iHHcfAHf/AHYon9+te/Hu985zvR3t4uwuZtb3ubiBeaIpDnPOc5InYomj760Y9K/c973vMe6S0UpuDRGvtf//Vf8a53vQuve93rcPPNN0u6Ha23VxIVQcoJSaniy+CYf+/p4GUvsYEGZ5Knfv4TTP3qFlQG+o2RwBnnoOWZz0fytG2In7INsd71KO3bDSuRmJUSFwQ+/FwWkbY2pJ90dLMcnNE95rO31YIO2dZ8i/CVJe6HNzGK3E3XSgTJbu2AHe9E4PsYH5iAM/gzdJ1SQe7MZ8iyUuztQowIGA0Ji8NnBngmXSvcXbG8DoB0wpbrmysFIlpO6XZECCzW8nox8B5ipKRWbJEw6sRIAqr7Q8cuq7rPTDPjaxQo3GExVUgZcVUrCrgM+wkt1fSA4oSRALrW8dxxm60pNgelJfThj58uboMTvpw7pnMxtYt1TDwODp6lzop9darufHSGa04Z4wcZfNetj9eBLmnhteNxHxjlsQY4fd3s/ZF6l/xMnVFzksJqea5Zsexj32hVjPpG3Eksxw6dBAOJ5PFaUTQLrPWybOQqSWSiBcQdEx4K0+BEDPo2vMCWCCX/67kuKl4MWzt4fxzZvjM9Mx6LSF1QfTRI7q9qRNTE6GbDa1Nvl01BPDiWlfUx+hO1jA215/vy3OBoDr2dmcPWxCmKcvJEgvbv3y+CZ2RkBF1dXbjiiivE/pr/JrSx5hiKkaBSqSSubp/5zGem30/BdN1114kbHMVROp3Ga1/7Wnzwgx+cXob22BQ87Dn0yU9+Ehs2bMDnP//5FbXHJiqClBOKfMnH44c8jOaCaXtiOndt7HSwvt1ZtAAa/PdPIHfP7aZJKv2AAx/ZO36O/AO/Rter3oCmy56G9hf9Pga+8K/wxkbFHc6KxaWGhgKI/XVan/uSIzJF4OCWaTp7h4z9bSIaYEMHpPP9kQ62FsJuaoXd2imRHiTm5uYG+SysRBKR7qXZfZcevVfW6XSvl4EYB+r5koVcrBXxYBItB3+D8qYL4KbbRbgE1VQ0do+nhgnLaWrFj/yssZAOm4dyoG56pSyPAOIgn8KA9w4H9xykUwRJqlgwT41MrWgLTGqY6Udk3s/IAgfeHICLw51tan9YN5RJml42S7lHHjsUiEUz10mBxW0PTgZiLX56ry0F8wtBoZROWDg0Zg4iFrEROLRqDkQ88ED4h892jHCjqGD0ZFOnGbxPFYxIYFSFkZSwoWp4bigc+R6m0G3sCKabk07mjQMg3xdGwbhsb4uFDR3c5tFdP352KK6EoOYHI11soFu1lq7dDP/NxLGyF0U2CBBLVqoi10SAKH5c35lOfxOBbgViTLCp88j3l5+LplQchVJFIjh0KgwnPWIRphV6cP0oLGduvRDvm57O2Y5w+WJZGpJSWDH6E0LRY0dp9+2KA14Tb2pFURQAX//61xd8nbbZn/70p+UxH4wi1ae71XPllVfiN7/5DVYTKoKUEwbOAP9mlzvdo0UmOwNI7cmjBz2U3QBbuw9/y0/e9EMRQKyHcVoy088zikHXt+GvfxHJs85H+uJL0UWXOOkT1C9OcUyBi3Z0o+XqF6H1mc9d8jGUKwFu3wEMjFUHiFXXrYFxoLcVuOiUYNkLoRnlip91MfK3/gB+dhJWuml6YBWUi5IuFz3jIuTj7bBLgQiDRtEpRpIoHBhZYM8kZ/vDsJlKF1iYytN2uRoVoftavAmJyYOIDe0UEcQBm3n4Ugsxy9xgnsM1M+Xhto9uQo2RibEp4IH9wGjW9CPiPtD0YMwx9S0UGiZKMrNN1rJzYB06rIX1NLLf1bob3oaMsExVzRNC0cL35asRmDPW04Bg8bPzFBYUQKyhoqtbCAfOFBcUGS0pe0FBSLHR2eTg0BijjcYWm9dQjkGc4ph0aE1fNwrweDQQJ7SLtrKOyEa+FODuJ8w90QiK07D2KxHj+aR480Vk8j2MiEn9iss0NbPtzV1Hd3+zDqgRYQoj3f7CprkhFKwUfrblIhNjl9uqw5806jXRrITlwg2iSEaNgO1qi6Cr9fDXjOeVx8dLYdIIZx9fOhlFq5vARLYEt8I0PHNOpE4pFsFwLgnHtyTqQ3gt+DmjM2FPXbZtrqr+agVQCLcrorVQVhGkKKuFVRAJOplREaScMOwc8GRQyVnl2vEk/81BLd3H1rX6SMQWHrgwBS7wPTjptlnPW7YNp7kF3tQEJn52Azpe9PtoetLlIoYKD90Ld3QYkaYWJM+/BHaDOqHFwGLug6M1A7RqyCM+sAPlu+7FE5WD6OpMIHnGOUidfQGcpuWxrY5tOw/e5CjKD94Nf2A/EGFTHReB5SDXfSb2dz0LxSfMIJLF7hs62RhzZkBHF7G9Ix4mckbsWJUiurJlRKJRVPImKseBY5g6xi9p9uQMSvnqgI/pV9V1eUY41FJrOhD+DEsb+N6KD3Q2Ld1JjVGPHf2mv03YB8cMequpblUBQKtsrprPU3hUWANjV13pqmImtMLm+7msiMGqOKO7XAj31a8KKIoErjNbWPw+83gHJnx5X60AMqfVQipmhBCNG7oOc3sw8uA4tkSkeI147stF87yphQm3aX7ys8V1c6JBmtjKi6HrnTlesx8z90aYukiYvkeRW2uYwJ9mgG/S+3paZqJGS4UTHbQrnzkftSduRqjKazUviZGGEyAVKcKxfZS9CBIRr2powXNh7MJTERcxh72lHLQ1xQ+7LwdGAwxPBnLfc3uMCK5rt9GWro2aWWhrSiIVjyFbKKFcqTZLTcaQjEeQGmW0zohJY2XOex04rZfnrS7NsNpnaD64rbBOSFEU5WRHRZByQuD6PoanzACgfkLdFIybFKeDYz5O6ZlfBPnM8x/shx2jN7KPwC1Xc54sSYuzqnlHlf17Z9Zv20ifd/FRHwPTi1i0PWuIEvjofOh6tD3xS9huGaV4EoW8i9KuHcj95k60v/QPEetZd9TbpsBLPvlKscsu73oM/uQYglgSe+On4WBiK6J2RAbsHMyycejkfqDSC0nTo7PbEwMexvPGYjiV3Y/ogccQyQ6JQYTXvA6RZkaX7OkUJCvwJa2sEk+jWJkp4JbXwsFrTbpb/biNA0GKAA68OfktA8PmpdU50HyBopN1SLMiPIwAMJ2NkYyoufwcxHJ7jGa0pUxPIAqfUNxxEM/Zeb652uLVHEvVqS7c//AwuP6WGO2azX3JfaA73mIG/xRlkvo3T3anSSfjeamNSzWG15RGDYTbtioBcjURttDkISxXqU1BnHk/I4Cmj054Ds1njm+yRKhRODIiMpINRDw1iiRyXRSivL96j7C1VngtZ6VMhvfc9HUwoobXgNcv/L6IRzzEHQ+uZxQw091okmDbYXSG8wIerKgjBgONHN1qBdCjB3yJgLGvDx/cr9EcMFn0cVoP+1XNFkI0LuCjnq3ddLQLZF1cByNoTE9sdA5p283an/lqCSmSWCt0JFRcT6JIZUarmMoZjyKZiDaMOimKsliM++Tyr1NZDCqClBOCEu1kOSCt++zLwKWarsQBxIFRH6m4L/US4eBvFpJHZyEoVYxrmj/T6MUq2tIIVVZa7aOzGOgg57OuxonMSjWrZ89QtammW0bEzcG3Y0gOPo72HT+HF0+j3Gz89oM2DjB9VA7tx/gPvoWu1/xZQ4e6pcL9inSvlwfZNxLg4AGaDxiRERJGA54Y5Iw0a3iYIsVZch/ph29BbPe9sNyyETqFcdiVAvxiK/zOjYjYETBhJ5IfRSXRjGzHqdMCqFYoTPec4QA8DEhUZ/LDAa7UqJTM4HlDp4Pm5OJFEAeDj1RT38LbgFe6Nr1OPML8agqTcRqWVKh8xczohw1EeYtwOQohZhm1pc1gfnCyxlmuRhyEQoH7TlexMGWM55Qi63BIlKq6b40IU9qcee4zRqgYeeIyjBqxFmlkyogZThaEjWft6jYYJQrT6ijYeJzTznlS1+SLoOQioaCQz1yZjVhZm2SjOVnt4cSPzjx/n+VzIZbUhxdv88HrwX3gOF8antYIt1odzfq60JjBDu8xmzvHXkC2RBXpoub7jgz+PaYKiji00NmSRJonZQH6x4xoYZ+p2honnmOK5z3DPlrTC6cr1sJUxMNF9Ug6FcNkvgTX8+e4wPE57svh9r0R7GU0OpGX8xAGCJm+x0hVd1sGkdovCEVRFk/Y22G516ksChVBygkBB29V46dpgho74+kZeB/YPeRhdMrCaeucOUYDjOrEevtQeOxhifyYtLbqMoEPr5CXlSXPMN73CxGUSyg+eBfK2x9AUMjJ6MzpWY/EOU9CdOOpc5YfHMxh3Z570D78ICJuAYFlwx0cQOCWUGqdMSXg4C4ZdxDp7kX54H6Udu9A4rQzj/jcNdz3IJAUHJNyNfd1zkazNoQz72XXNDVN7rkXsZ13w082IWjuguVz1GvDyU/AmRo2dSbN3UhkJ+DbEYxsfQrcaHrW6DSMnNSmlXEsx8Ek4fVkfQXrorqa2SjSRmuatSpL+9Jnqhhn5a3q+r1qIX2tI7cpiJ8pouc+cVaezmMULDw3FEhMmWOvty2dQF870+Us/PjeqjVxtQi/lnBdTNHkgJ822bwvp/sRHWZmnSl/FPEHRwOp0alfPowS1ds2M9Vt14CJxoS1WZLeFzMuabyeFGTSiJPpeVVzAwoe3g9cL/ezt3Um7ZDix/UDY0zhWSayErr3+bx3Ajkn3EcRWbR15v41OK4yU/FcI07iEWPLvdT0RolA8XpSvFZNKXh9pnsfVa/36b08BmBHfyD3MK9D1DbHy1obcz9ZYgoRRnzosEYREKtraloP1zU0aY613uRBmptGA0mPpEFG5/Jks04TjzpoycQxPlWU/kMUdLJPVVvDlqaE9AtaCowsjVDRSY2SM32/cSKBr9GOu7cjoz2IFEVZc6gIUk4IWKQtM9qc2a8OWjnQq+3nwr/RdLDioH6yYDrJn9oz+yPAwV68pxvFxx+RavbAmfmjL45QrgcnmUDqnAsOK4CyN1+Lyu7tsOIJ01TV8+DueRy5Q/uQuuK5iJ1+7vTyfiGH7vu+jdjIbriRFNxIUiIoyfH98O0oKuUpVGLGQznMwmHKnut7KA8cWnYRxPPGWf/5WoqY1KJA7JKZxuWWynCeuBeBE0WQMGYSgR2B27kZ3sQgYtkhOFMj8CIJlNo2YWLjxZjqOH3W+uRnKISq51sEil/t3VMdZEuqEmwUKrSDPjJrZUZewkhKKLZQlz5VW4NEMcRB7foOY1DBGiFGcjiRT7HRXjdgnydIU4OxoKYYkxoqi+LcRA9O6TapaQtBITKaDeS8sOdQaDAQisS+Nqag1exPEODxQ2ZwzkBAWGTPND+KH0aweC65PzxO9moyIsak/YUW33Rv62ufWe9Y1pfl2puMiAttxHlsmYTJP+P9IfeK8RswEZiy2Y+w3xCPmyYU5OAYa4NMBPK0Xp7bxV9fRuGkJtAyETt+Vng8oSjjvq1rNc54/FxfuIVW3SVMZMtwXRelsi/pXo4dnZPuRvc2Cgimk1EQlcuerJe/1y4rdWTVc7dQuiKv1XIT1hfFIhGJ3pSrzVKZZkczhEwytmSxMpUrieCpF088Dh47+xHRdY7pcdMGKXyuVJHzw4hUOhGdFmSKotSi6XAriYog5YRhc1cEEwVXZtj597a2xoODWw66wsgPG22yqSPrJmqLi2kHHYlYSJ1yKgp79sAvFqebJXK05qTTyJyyBf5wP9Bl0tMaUdp+P9zdj8Np7xa77On1J9Pwx4aQv+sWRDZshU1xBGD8N3cjObobU+keET3EshmJSsDxSkhPHcB42zYJLVTHGtUVBlLPs9xIilC1GWMjOCjiUJ8OZRz0YHwUwdQ4iskmMQoId8mORFFq6YPb1I3U5AGMn34lxjZeApsXqDzbSa0+FU5SsqoF9hQ8HHSlkhYitNv2gP0jZtB93ibWmVhHZMgTpvZwoCzpWuFO1B5rNaWSdsisb+HglrVQC8HIFQViWHMidtrTVflGAPH5UIjRKID7wCJ61pOcvcFe8JgoMLats/EEraZFPBhTAgYp1rdZ2NI9+72MOlA0UezUpmBxm02JQARdX7stAkzqnyx+NiyM5cxgneNfihG+v3YQHaaTSSE/G9UyW7TmerJOioJnzzAjiyYCxbdTWPG9Mq62TJ8k3hKMwvDzyPPN43pkf4DzNs22314IpinSNKB/wpxTRtnCPk3cz+YMcPYGcwy8b8cmCxjPFquCm01QaRHuIVsoS6pXPBqpiktPIpnNmTjGJvMYz5ZRqbp88DpRYLQ1J8WKmscR3r+NIl7yeamZzFhueGyZVExc50xqoRHoRxKp4eecAicyz3cMj7fiViTqRBEkjVrHciiUK8aFr7rJ8YgtdVSpxeR7KoqiHCfW1NTMrbfeKl1t+/r65Av92muvnfPH5b3vfS/WrVuHZDKJq666Co8//visZUZHR/GqV71Kut62trZKJ9xsNnucj0Q5FrD24Oz1znSKUlgHRCiA2mpmlMOaAQ7QagmkW6SH1Kmnou0pT0XqlFMQ7exCtKcX6XPOQfvTrkQkk0bAVC+m8PQfwPgN30f/Z/4Rh/71HzDy3f9GYcdjKD16H0AjhRoBRHjfsnEoBUNlzw55bnyiiNEHHkQ5kkJgR2cEge3AT7fKYMJxi4hWslV75Wo6SqEgNUqxvo3Lfi65n70t5jyG53D6HAWB9GOiCOKYJpM0aU8caXLgR2FJ17XQclmEjOPAs6MoxZokilOdoJ5ZZ90vtemLJZfpbqbmJ+ZQDJlIBgfMTGlj1GCpcLDMAbg41lUH5uFEd62DmKRUVsy2zjKlUouCy4Zpb2GKWG1m1LQrqkRMzPo5mOa/GSlhpOlwMA3wgs22CCaafZzeZ+PCLTZO7eVAfPaAl2JGmrlW753QkY9QXHLxkSlfXqcIoakBG59u6rRxWq8tPym86gfS4hNSt19WfUTRZS2eqRlqSZraFkZteS+H0SN+HvlcOCHB68JzwdcPjC3ezYz7t63PkmgPt8f942efxgzdLcCFm3mOzZ89RiuYNsaBvu8xskPFz0kRY37C1/OliogiCiTWAk3lKzg4XMRE3ke2ZMuDUazB0QIGRrKyLp5DCkZTAzV33zmxwHutPl1xuZEaP4d1R6Zh6pHA6jI5hgXfbnp8cTkKoFyxjCibS9PoIUYh6VTFUR6l+g++opzshIGg5X4oJ14kKJfL4YILLsDrXvc6vOxlL5vz+kc/+lH8y7/8C7785S9Ld9q//du/lW60Dz/8sDR7IhRAhw4dwo033ohKpYI/+ZM/wZve9CZcc801K3BEynLT1UL7WmAX3cpyJprBGWFxvqoZCNS7XIXYqQzsdBP8qUlE2jrRdN4Fc9LcWCjgNLeh8NhDGPvBt+FNjkuzVHom5++9G4WH7kPEdhFf33jUzF5CHDD4uUn5uXN3Dul8XtLgppeR/1hw23vhTI3CLhXhuCVkqgMnv1xGZXgAyW1nI7Zxy7KdP7p8McWK56clFchAdKpgZvnD1DjO4rMOhHU5tA/mILeUbEc53gynmEUlzTQ9E1EIm9Um3RzKyRSK6e5p0VFP7XBRUg+r58EPZnqk1BLWK7F2ic04lzLQa01RFAOlMcCrpk6Gplk8HmJNN/FktMnU+iwWOtWd0u2LeQSFYdhgNYxycd+5Dxycc7vhvlOQsCfN0KS/qOa+pj7o8PvDsSc3wbobRl04EJdUrohJS5P00SMYn7K4n+KJEYd64UVBENblST1JVeAwasTPZDpueg4xYsbf6yNf0gQ3akwbaMHORriLgYYnFKG8j2sd1eprjEzdDL3OzXOSpEaLaXHKc0TEM42rJZOQKEe2wPoXmg6wVsiWGiJUewkxUhlMVdCUKqEpncC6VksizYywsQaIwogpiTzvFPYb25dex7YS8FqxBoqpbY3c8MSSu+pKR9HICBCjZ7W1ULy3mTZHMcnUunjrmhp2KIpyArOmvo2e97znyaMRHEx+4hOfwHve8x68+MUvlue+8pWvoKenRyJGr3zlK/HII4/g+uuvx1133YUnPelJssynPvUpPP/5z8fHPvYxiTApaxcOWp4Y9DCW5ay3GUxyFp6DIQ7aa21lOTDjACtdN7Cly1rsjAtQuO0nIngsWmVXCWiMMD4Mu3s9Rq0W5L//dTiFHGIbNs8MwNs74I6NoLRvP5xUCk5mbuVzODvMKNH4WAG5XU+guTQlvXW8dK9EgKaXzbSj0rsVzsHHkCoMIzlRQnnMFyGVPHUb2l7wsmVJh2PR/O5BFonPFM2HhgQcpE8VLRE/Uj9j0zqY59AyttAyXxzD5Lrz0LnjFnh0g4smqwcAuKUKrNIk7C0XIGhqh+MbccHthNuafX5m+qEwGjGSpYBtvN/cx7D2a5FGWwKv11l95v5g1IURh9BEQ2bpU8YEgRGFI+1Zc/EpdEXzsWPA3IMkwcL7lDmPrEtphPS1anBejgZG7DjeD3shhY1mTbqaOY+sp1kqPAY6v03kaY7Awb55ngKYA35+viYLlhgnNBpg8zNK6qONM8tUnebqUsumP0Pz3Bh8ntE1PhpBQZLNmTS42lSxsNcRU91Yw8KBf+imNjxRNmIv4syaaDU9pSz5DI1NsRFpAmmmK/bZ2D1I5zwzucA38Tys77CwoaauajXD42pOx1AsV8RdrlYIhWmCNEugVTZFJaPWdgNxx/XwPC9k360oJyVsOMfHcq9TOfFE0ELs2rUL/f39kgIX0tLSgksvvRS33XabiCD+ZApcKIAIl6cj2B133IGXvvSlc9ZbKpXkETI5uYg8FWVF2D9K1zcW8Jq0Hw6ip4rGLpiz37YVmEaX1VS5dW2NLWoTZ18Mt38/KrseBZwI7EQKgVsR84J8oh0Hep8B/7YH0TQ4gkrHBsQmaXdrUohIpK0Dlf79KA/0I7Z+4yyR4hUKKO3fC29qCu5tP0cx+2P0sOaiNIVoJYdEcQz5zDoUk9WiEw4eMmnEzjwXzWedhyA3BTsWQ/yUbUicegZcOyoz8RxEUtQ1NUhZOhyczd1xKMDgxOxGi8wMHMsCrZkAF2zmoNakTQ1OBugfM1Pn7KMSRnwmNl6CaH4Uzf0PAYVxBE4MlleBjQCF9adg9NSnI+mYgTfPP09XWG9Ti0QoHOCMPkfMECiCag0LauE+8nofiSMoxQ0L4+kOxmgD94sCqKfFNBmtPY+V0WHkH7of5cEB2NEoEqduQ3LbmbDr0h3rOW2djdPWzbhzcWC9b9jHrkGTZtToWvF8Nhq8c+DORqB0dwtFfEfGkjSyw11zpv8xwiX3SY3hITULPw9ifX0EYo8D21N6Itg77IkQKnGwXzVRaM/Y6G618fC+QIwi+EmkxfTs95ufoYV4Pdw3RgHDKB3TVwcmAqlF4ymlgUN3My2t5zqxLUShWJHzWdvUlfDfUr/lBXLNasVRNu/CBvtbhYVy3CmT1yhizbOqaaIGisPzNtkS7eL55TK8VouNaK0WKAJbKp5YYruea86zOCf6iEci6GpNV/soHS5tbq5ToqIoykpywoggCiDCyE8t/D18jT+7u7tnvR6JRNDe3j69TD0f+chH8IEPfOCY7beyPLAGhQKIheGhsGG6Fgd9nIXlwFJmwWmFG7HEXYsiqBGM/mSe9WKUtm9F+dH74WUnYMXjGO05HwfbzkU53Ynm8TvFwtqHLVEECoimpC+RC8nFb+uENzkCf+gQ7LZOWWfx0EEUHt9uanniCZTvu1tSadx0BybXbUFz7gAilTwyk3tlJqeUaEG0OImoW0Tq8ivQfsXTp/eRA7hDoz4GJ93pgn5x5Ipb2NTlGGeueaiMj2LkN/ejsHO79PKx123CcOv5KDWtmyNIOJhlL53eFp4vM9B5YoBpcL6kA82yJHeiGDrzauS6t6Fp4FHECuNw42lku7bB2nAaLDsu+8eBL3vVSF+nmr4yhIX3fW021rU7Uh/C5XYPmUhNfXsTRnHowrW19fAiYKFBPEUPH/OR/c1dGL3++3AnRsUow8vmpG4s2t2Lrt/7I2QuvERqnhbcTs0MenuThf2jJjWqvk6c0UxezK66xq98fueAcXcLIzn82T8eoKeZQmRhEUBL7zD6w3MWav/QrIG7b5qrLh1+nk7pcURE5qoigKmDFLIDE8ZFj/coRW8iFkhqWtiji/dXGM2rF7qhvXVvl4ki0I77sYO+1BDxPTweprtN5HyM5yyc2tvYUpv3LIXIZN6cO4o9xzeDeXPfNehLVHU/ZE0Lf7JHDp08LMuvEXJG1iGQ7q8m57FuBpb3JYXPWobH0N6cNCmB+ZKktVH0pJNJcZsLewSFfYnmE/eMoqWTEY0CKUotag63opwwIuhY8e53vxvvfOc7Z0WCNm5c/kJ05ehgw046hnEQPY1Fm12Te1+k9a3Lwa6N3jZHBtQL/TFmqhr7+cTPuhhwKxgr2ti3NzDpHtJY0TECIuyJEpioE2fb2YDSgYPY+q1wevvgDfXDnZhAfvceyXWKbths+gaViyh7MTi5cWBgH6b6tiCdOyhRoczELjhuN8rRZgxsugLrL37KrP07MOLj4BhTdkxdCY+FA+XJYoAd/S62rYs0rGEZ3b4Th779TQSjQ/AdOQnA9u1IJ+6Ad+HzUTjlSdNF+zw2DkL5GJjw0dPqVF29zKBUGorWe0HbDnIdp6HQdVq1nsc8zRS4uHQjZW8f42JGEVAQAwWzDBcdLzgolm05j5s66WZmYUMHU/XMuhgV4H7xWnLQzRQuWjsfK4q7dmL0um/DzefgjozAo4kKowWRCEq7d+LgZ/4J7c9/CTpe9LsSIVoMPKb17Rb2DrP+ir1+zN8s3r+uSwFkSWSjFjauHRgPJPJR2+SXTnIHx806NnbOfz9TONARkVEgnrfwnBthYgQIa7+OFN5/vA9TcTMQ5r346EGKtpm/x9R3nIigoG1NmZRKpuIx6sb9myya/Qvt7bmPrHdinyGK/p39RgCxfqj2s8ttMTqZSVroq7sXWEu0YyCQFFkKHvO2AGnWQkUsEYOS4lZbIMh6vYA1TjZSiajUsUxki7AtGx4H+NOjFv6bPbI4C2H+lMbZTPkERK5vIiqP+aAb3fiUjXLFkxqg2deIUTWmgtZ+QSuKoqwsJ4wI6u01dsUDAwPiDhfC3y+88MLpZQYHB2e9j70h6BgXvr+eeDwuD2WVs8AktjhExY2rGI0TllLgLqlssTgODVYk9YqiQ/qAdG0Btt8uAsmKRKf7kJQrTKMJEJvKo3zuFeh83rOBof0Y+9F3YGXGEdt8CizXRWViRESI5ztAIg07NyFNR8fbz0C8MIpYaRwDfVdgcN0liDU3SzPOEM7YD054iAYVxBzOQpuBJyNgaTsQa+HBSQ9bumZ/vLNjUzjw7W8hGBsFujdKGij3u1jy4UwOofk3P0Ah04NSx8aaRqWsmzG1QrQrZkAjCGyxiuaAcL7TLgKp5rpwAEoB5U8F4pzF9xelF5GJ1nEgK/VbJQtMOB2aAu7fywhUgEtPN+lQ+0fNYDm0tOaA99SeuQX1y8nkPbejdOgA3IlxieDxBpBBsO9JNC+oVDDx85tht3cj8dvPlIH9YgreN3awTsbCoXEzsDcmBcbemgKpNqJBocNII1+vFUCEx85z1z8RYF2bKcBvhIkCWSJ42GCV5zqoqWeRSNEyppEfGje1VhzzSuSvKn7CJrGMLrJGj7VXrJ0RF7jRQJ5n1JaibksXexKZY6a7HSNK9RbdhMds8xyN++httSVKQcR0ZCAQ23ER3jw3AfsaVeC6HkoBJ0kcuZZiJR3WGYW1MJm4RIsmc8YmPxF3kGVAyJpdsEUh5AcufCuGrtYTUwQtBorGzta0OMQxWhTewzy3vCQt6cSCIkpRTk40FLSSnDAiiG5wFDI33XTTtOhh1Ia1Pm9+85vl98svvxzj4+O45557cMkll8hzN998M3zfl9ohZe0Spt+EtRL1cODFQSRT5I403c6kyJjfy+vPQKVzI6JDe1Bp6QUi1cFP4MEZ7UfQ3IGxvgtgj7LAvg/uVA6RrnWwYwn45UlxoSoE1VGnE4EV5BEpTMBvbkUl1QbHL2OidQu8RDN620wRuay+Usbob+5D00P3I1aakIhEpe9MlLecD7+pUwZr7HXCmW86ptUOpg/9+iEEo4OwutfPqlNigo/f1IX46F6k9tyLYttGEw0Se1wT7eKgOV8ypgk++B/WQdioBDMDwtqx6XRqU/W5ZNSSNCwOdqcKdN2ypHmmsaCmjTbXzX2qHmdVOB0cB268H9ggg2EgkWKNEtDTbKJ8xxJ3bBQTP70BlZFhBAzRRKKwGcKSnfMQUBRFIiiXfey79TbkOy8TYcT6MAoZ1oTMB69TT6sR5axX4yo5PmwkYqRRrGuahzaC9zujOxRTzfOkXrWkLbGaNimIloj5EF4DCvwO0+P2qKFoZpoet2EypCykEyZaxehfGOVhSiqFDo+Zr9FkgYKP9xpPc+29y+MTq/h5Uv742afIfmIgkBRKLsV1UryLAOKt5RX4AYId+IjZ5t4uljyJYMQtpsaJIbRktVH8tGaSqLie2Ds7joWoZaEUjYjBhM20uJmsOLhBFF1t6Wn77ZMVipzezgyyubJYZfPeYgocI0B8TVPhFKUONUZYUdaUCGI/nx07TG+V0Azh3nvvlZqeTZs24e1vfzs+/OEP4/TTT5+2yKbj20te8hJZ/qyzzsJzn/tcvPGNb8TnPvc5sch+61vfKqYJ6gy3tuHsOyMMnFnnwKt2sMSZcncBI4TFYGaRTYE3CaJxTFz+u2i+7VuIDu+T2WSBLlHNXShd/mJYrZ0yg92bqRZe1Fp0ex6i3qRMv/t2hHPJIgRgB4i6eYk+leMZGchtqwY2K4Ui9v/w+wj2PArbclCOJmGXS4g+ehtiBx9D7kkvhNexYbpepLbmhuk9U3v3QzRgjftcOVdAxKsg4D7EUkgMPWH2j/19bHO0XBePnwIyIY5QpqaH7nB+EEHUYTPFmXMV1ieFcB+YHhMJGBHwkC2Z2gxx/ZL0Ql4fDoDtWU1TzX6YmpJ9oyYKwOUnCubnaT3L5zLF6+HlsrCiUdiJJKZu+znGbv4xyqwV5LUVy7oAATfHaFDEEWFEq3LXjsOaHEN8ahBucpPU7bD+5Iw+WwTRQkhtRWIR+7eIub2FKnoocGiOwNIWbm/mvjBRGgqFnpblOZcl1wgRipmp6j0oUawIBbpZhjU6vJ/qP4/zRfWMZfz89SZF11htU6hznTwXFFQUd9EmOsuxILBUHXCIJzk834blV5ArVGBZjggd6cMVsdHWkhTHs3LVN5xRNIlmpBg1i4go86UbaICIFaCnNYH1nYe3ND8ZoEU2bbDbAxO+VuGjKMpqZU2JoLvvvhvPeMYzpn8Pa3Ve+9rX4ktf+hLe9a53SS8h9v1hxOeKK64QS+ywRxD56le/KsLnWc96lqQDvfzlL5feQsraZ0OHIwN0Cg/+T/L9q0XkXU1soHjksyM9LQ4GJ9xZNTBecxeGnvF6JA5tR2x4r0xVu609cDedDQcuMtvvQmp8HybTZma5PDoKJ2LDHzkky9oep7cjsCpl2J4L1+HAzEc0P47J3rMRaWlBX6uPlpQD1/fx2C9+jdTuR1BJd8BzmBdkRr7loBXJqX4k77sR2ae/Gq7vSKpVaFdMuN+0Ded4RERKKQdnoh/RQlZqmzg4ZBofox1SD1QVMhwkcwAYDl6l50eEA2cTvWHjU9dj8bgrM/8Sy6kZ83BQyToRsci1OPB1pHieA+Ww8L3s8brJMHP6fdVDm4bRA6ZPEUYT9g6FJgpHfEnNeSkVMXX37cj++i54E+MicOxkCqUD+2BZdtXwIDBNdCmCKhWzl5GIHDsCF7Zjydiag2gnwoik6bW0e8jH+amZ9KwjhcfJc846qUbZRLzn+fpC5RacFDizD1KnQwEybWhR7eO0bR1reqzlsakfYDNd83sohllulIyZmiajZhq7/c0HI1y8l3gfhE1tp7fpU3SadD4KvTDIyRS/KQ+YyvuIp2hqMDPjSjHlujbKQRQJx0NAUeRG4DgO+poSaE6bjUQiFEe8xxk94n3M+9CSa8LPGbMI+DnobtWC/3r0fCjKItBsuLUlguRLv0HyOJ/fv3+/RGSOFVdeeWXDDty1X7of/OAH5TEfjBppY9QTE84An9brYDzP2gK/xkbYRnOK6VuzvxnYB6i8+zGUn3gUQX4KdqYFsVPOQnTLNqnzqYWF6uzwTivlsN5FVheJorjxHHnIxyIAmif2oPOR6+FkRyXKY8UtWPkx+KMDqGRHYScSCNKtCKbGAa8Cv+LCiUWR8SZQnghQaO7D8JYr5Hiaqr1b9g9WENn1AAKm3cXisKo1HSJqLEsstdPjg3AGd8NrPRWdbbOPl7Pxdu8m+I/dBqc4hdjIHkmto5jybAe25yFSGkPKHUdmdCeKnVurSsQIp3DwzePmLDi1geOYGX8KmEAiQr70fRGLYZ/OWsalrta1jKYK2aIjy7Eo3mjKmRS4+khQSK345DXlBP3BUfbxWVo0iNGbwhOPozLYj8D3xfa6uGcX7EQcTjojkZ3sr++UixzfsFnsyH06nnEH5GQHJjWODW89diClQUaAoKkNaDPOk9yfZNwIIQ7Oed8cbZSzs8mSmpmoMzvFkaKD52JdlzWnXqgeihxanY/lzH4xOsiUws7M0m2bmR7K1EbuCiNL4b1G62/W9SSqoo1CXD4vjDiVzH1DKKpZD7RYKNQ6mixJs7MsY6rA88y/B2FD1BbuR8254TI8JRZcY3QwnSJiopkmUmqbzy1tru0U8hUbe4Z5THR7NJ+h5nQcIxN5scwOXf54uLyHPddHKh2XhqKKoijK2mLR39ysr3nDG96A73//+2hubsaf/umf4n3ve5/MnJGhoSFJQfM4Y6ooKwQHQUyLY4+ShWDPn9wt34e77wkREVYsBm9kEJU92xHdcgbST/+dWY1SKfwv2BTBg/tcKfiWviY1I3UZe7HRZnkKHY9cL/U9pZZ1YqGdSFpId3VJcX15ZAwoFoFoHB77jLDvRiyGSGeHNCEtdmzGwTN/B+Vke9V5zmxkaGAKbaVJBPFUtXB7OkPLHA9NFjwf7vgYWvosqTWphQPGjvPPxsi9vYgdfBCBHcCNpk3nFukOWYKXaIKTTqN7zy+wp33T9Kw5a3HCNCVGbiSFjYPQqmjh64wyeYFDn4jplEG6nXGwGUZw+G8KA44jZSBfH+5ZIO2r/jk6nXFQ3cg6ez5KB/dj5LvfRPngPpP+Njkh5yvS0YlY33pxdwsmJyT6Q4FUGR4Ua3TpAZPPm8IZOdm+CEhJq4omZKeDsy8FYjMRZxo/cOBNIbAcbO6yjA18lr8Zg4rQVryrZfHNN3neKeiN+9zSpwu5D3tHjOsbozJcA6Mi69vp2hZIDyMKZhGqOXO/SHpq1WkwyzIqh/VqS4s88f5l81pq0ZFcIELcJL3NGCnUG1KIXb7cpyY1j5E6EqZh8jMk0VIRcEZMU2yxVs1Y3pvlmzIJaQo6lStLn5xQfBHWubSvdQ9sRVFWjtCOdbnXqSyvCGJ9zX333Yf//M//lFQz1t78+te/xre//W3EqragC0VpFGU1Ubj7VpR3Py71HxZrPjwPVqZZZvjLTzwCu6Udqd+aSb0krBW4cGsM2aKHnYc8qU2Rgu3pmWGgZeQxRHOjIoCYLiUlOH4FweBBxJvisIMMXJfRhIqkxtldPSj0noZiqhnx8gSCli6Uku3T34tDEz6aSoOI7HkIkfy4GDCU7JjU8BAO1q3JUdhjg3Bzo0gGUbR3xjCeOkealXIgyAJ9Dn47OpMYfPJVsL7/kEQ8bHeqKoJ8BNEE3PWnwc00I5EdQHLiIMrtG4ydMKM5s0wPTOG5F3Cgb14IAyUsNxKvhGoqHYvVw3M0OzXPDEApjOpp9C0yy/q8hsV+1bvjoxj+xn+hPHAI0Z5eEZ65B++XiB/T4Eq7diBx2hlm51gPlUqJ8QFT4zzXRaS1Dd7kpBE/PH4nItEuJJIILrwCwYVPm7U9acRZ0wz0aGGU58z1togg1hyx3oV9lDqbLbRX0y2PNdzmwwcCiSTRypriM6zZ2n4okLojRqWYfWz645jUO4olwqxL3i4bOoBTepa+v4yMbuujSLEwnjPChsJn/6iPXHHu+uh92JyooFJxxcFNJuho5kFHa6lzMyJpRnqbHl9MZxzNBTilWn/EaBBdz9KJGLKFspglMILEJqI0VWiUGaEoiqKcQCLo2muvxZe//GVJSSM0G3jBC16AF77whfje974nz2kOsLIW8LMTKD12r6SjuePD08Nuizn/mWZYqSaUdzyExHm/BTs5N5cpCNgzw0aF0QLRTz6SUwPI5A6hZfedsF2pmpZACusFnPFDCEpZGThH4lFE0xFEm2fWmyrsQ87pqwobIzjko+S7aH3s5ygfeAAtxTycUg6R7BCc/LiIrEq8Bfbe7bDGhmD5TNGyURzox4FvfA3lvjOQu+L3EPMLaB/djqbyKLJeFHE7DWfjZpTLzE8yuX1Bugl+axeseFIGlna+AqtcMAPFuloTpgBxzMflXBaWV2fi+Y8wOhX2Tpo2N6ir8ZFyctqNV8eO4dzJfF8fpodNtS7EmakL4gR8IyfARuTu+zXKAwcR27BRrnNQcRG4Zdi0v7dtEULe1KSJ/jESVI36RFpajXlFdgpOU5OIR6ZRSkpjWy8mrnw1kuddLNc2hFEGmg1ERIDiiGDEZSxH+2zWXgFNSRutKUt6CPGxEGIE4plo3XLah7Px6XjORPZqxR1t2Xl99o/MiFLW/zAlLt5konU8J6FjIB3h5nN5OxxiXZ00wr42xZLpfdOOhJwYQBkOCojQaCTKyJmpE+TERIRujFZNbZHctOK9Xd3IXCUuUaJkTB6KoijLhxYFrQkRxHS3zZs3T//e2dmJn/zkJ7j66qvx/Oc/H5///OeP1T4qyrLBKEbx/jvhHtxjRHs8BTsaM2lnngd/YkzqY3wvDW98ZI4Imsj72NnvSaoXB5gZq4Dm3bciM7IDztQI7PEB6QMUK46j3NoHP5GBU85J+huK+bAmXNLkpOlm4MEOPGSyB1FMtCGXWTcddencczva9t4JP5lBPk7R04zU6C44lQISY/vhuwMIRgeAWAx2YKOc6USpdQOsSgmxfQ8jesuXkIqx1ieLgu0g6leQrBRglXIImtah1H32nPNDa27ficCLpETkrGsKUCoDJctENhjhoKtXtmTD9zm/PlvkMDhSm6oVUs04muX6RgEpfYeqv08PYuswUSfaHdOgwtSaEKZgLWbihdGyqXvvAaJREUCyTtuWQnmxAI/E4BcDSVeMb9yMCG3KR4dN8X48jmTvmagMDUp6HEolxPs2ovOlvw//rCdjaiKDbJlCkZbLFibygUS/eCwRx8Zvdpk0ru6WRd6gbGib9bFvyBPziNDIYmjSlyarW3si89q8M1IzMO5hNEsRZIwnaJDRlrHR02ovqn/RvOcwmLG9rhVAvB+Y4kZRSuEl16poon9MLaNgSlX3l4KOfYoYwVpOultM49lBmi1aAZpjBaSj7O1jXAgZyTGfKfE2l2Ng7U8Y0YTFDq0z4ob3JWuwdFJPURTlxGbRIoiGB4888ojU/YQ0NTXhhhtuwHOe8xy89KUvPVb7qCjLgjc1jvwvf4ziA3cC5RICDoi9KfiRGOxU2kzdM40rNwWHLml1aS5Mf9o7bKI/0rSR1sP7f4lY/wMIxkeAShmBHYUVuBJJiQ3tgtXUCnExoJ0ya0lYoC3bCQdYxk2BQijiFjDeeoppnFnJomPwPqkBCpLNiPkBikEGhdaNSE4ehF2YhDM8Cb9q91tOdaDQXPXSpuCKRpDceTesU85EoakXsewgInyPW5J9y5R3GnHUsgE+61qqA914YQzFTA/yLX3Y3GnhvE2OpB5NFnwZVKfiNtpSFnYPW9g1ZMpkwqiP+ERwd2SoaQjrl5h2xPdLT8pZCUgmYsHn+QgRq+LwPdUUOg6sTSpWgE2VPUg9uk8aq8Z61yO+eeuc6+VmpzD2w2uRve/XKO7eKalQfr6AWE8PnEyTpLiVB/vFaMJcYM+kQ23cCHdqAn4+LxGhgKmDibhEhVJnnYvuV70OsS5jgnBGKsCuIV+EwCSFVFXYJWO2/KSRBgv3z90Iafx5OOict3fIExFT2xhUxEYxwK4BF2esj8yJpFAA7TjkyjKkUAnE2XsqYJ2Oj4NjNvrabGzoPDK3Ol4HppHVWqGTfBEikvlRsin8agSwGCGIOyCFRSBCtqeFRgTLKy4ogMbzJrUyFS0j7hSrFuymqS/rx5gaR+dFOTuBL89T5EciMVgUQNX6N0bgxE3yMNE2RVGUZUFrgtaGCKLQ+eIXvyhRn1oymQx+/OMf49nPfvax2D9FWRaYwpS/5fso799VDVdQiEi+GoJKCX7Oh81UOCeCwM3Kl4jT1jVrHZOFYHo2m4PTyOQAkoOPIxgbEGMB1uuwa3zgVaTOxmY4IDcBJJPw6SQmOUoOrHjMmBGYPZP/+rRjpm2vE5XGjz25AyJSPDZirRa0M6XHTbYiG8tIk1YEkyi1rYPb1AU/kpwVAY/QftutwLMiSEz1I5odknQ7L54B7AicUhbx3DBst4hcx2lyvFE62EUSGN1yuVgDb+gwfZVYd9LZPHv0e+b6AG1p4N7dJlWN22adCAe9HIzWpriFIkiack4/b2bhaQZhUpikNN1Eg2DJOZa0umo/IUk79IHWYAzr7vgfBPt2YLRUNOmDsRjiW05Bx4t+F9EOc83y2x/Gwc98HJWBfhN9q1RE0JT27ZYmqMlTT0O0q0eMEbxs1liWs76naoNNgRQ97Uwx0Cju3QW/WEC0rQOxvg0IijxgQ1uGtS82HtgLGYgzVYsphKHQYLoez8/2QzQwMHUoCzEySVfD2QKIcH2pmHHjY7SJ5h+1MAJEAcRtT4lbmiWanieQ561U8bF/xJz8TV1L72dDfenU1XCxuSgjQNWPkVxPWmBTLFFM8NpRABYr7N0DiUb1tmJZeWLAl3PLbTEFry1erjb3nUkxMX4IdH8z0R9G6NoySRwYi2KqbHoD8X5kWiePkyYT7cvUOFZRFGUhaMzEx3KvU1lmEfSBD3wABw8ebPgaI0I33nijGCUoymqEVtjuoX1wOnsR5CYRRGMSuUHA/B4KH9cUvVfDEk73+lnucLKO6gAwnIVPDjwGZ3gfvFLOWGqzZwzHmRzxiRDwjBApsD7IjBRZc8RGqz48ET0US7TRdu2YSX2q+Eg20UqLK6iOPjHbfCESjcBNt8BmcX6qFYgnpeg8DK8wxS5Syhn7Zq+MaHEUvhMFHNMDiJEfi9bcThSRSgGpsT0op9pRbO7DyObLkO86DcxYak3N36KTg/J1bSYN7J4nmMI1I1TCiI5kwFWjAzwMlu9woMmoBq2ew9onLiMW3lUXL1M/YkbVMw5egF0ooeOX18Df/xgiXd2wu3tEKPiFPAqPPYyhb/wXel77JnjZKfR/4bOoDByCnU6bNDynDC+fk+vsZSdR3LMb6XPPR+KU01DY/gj8sieRn/K+veKQ1/q0Z4lIGvnxdfBiSRGaFctG+c47kX30EXS/6KXIXPgkOU4KDkaoQle0eihoKISGJ9mwd+H7lAIntH/meQgFpWk4a1zJckV/lvsho0YjUzynJi2NQnNabFHM08rZNw1Ftx/ycWg8QHezLZGpeHRxRf283j3NAZ4YMteX146avjb9kdeYKXBlbq9al8TXec2lWSqb7zJyuUwwsrpzwEQJWapjWz6itjcdfSTh/Rjea+J7wcm7hI1zNjliMsH0QS7TnjD1VrTu1lQ4RVGUE59Fi6C2tjZ5zAeF0NOf/vTl2i9FOWpkVn9iRMRN+fEHZHbEicbEAIANSmEnJEJkcrF8mfWX19IZxM84f876Zgr5A9heBamDD5sIkNSyhIa9FmyO2jnrzKgQ189u9E0ZWPAk9Y7j+wCOWPfyfeVIChGviFK8DVYsITPngdOKFGsVikUpwheL3xpbafZ18bivpQL8RHM1glIDjy8ahcOIC1O6KPqqNTsCXfAyPRIBoRjaf+Hvo9i0HhYbf9J2uYnbOPwAuSVl4alnBnhwP3Bo1Ax4w/GjpL75M2YGEk2g2OH5q0aGaptmSn261AjNFV8cUDf3PwTn4A5E162X6E8IHdxi6zdKlId9f8rDgygfOijX25/KImBeWLgB3hPlspggSENU20Z84xakzr8IsZ51sCIRJLaeLtbl+//9M2LpXek81US0mC7F6MfEIErfuRbdbRvRtrFHxB+jH/O1igmz9ChQ5Lz4JkoiNuP1vavMLYSpYrWPUm2KYNXNrN6Ek9tmVIavcxv12Waeb0l0ideG76VRwfAU0/iA8zf76GxanBDqbbMwnDWOb6EzHB+8NtznpoQRGYyWSrld1Ow/I4aM8pmaIh+bOpdHCNGkgfVX4f0V1qVRQIengHMDvD6MUhrEDxHRiINEzMKmTj6WZXcURVGWjqbDrSja4U05IfH696Ly2K/hjw5KrUflwF4zLdzcJvbXfm5SamfsWFxEEgfGVjwBp7UddlObNE2th45UMduFPbAfrQMPIDrZD591JIEnkZXpbZd8+C7rS2xYiSSiGzYjyj5BTzxkjAesyHSPE4+paV5Jfh/svACWw4J9wG1bh0LzeqRGd8ON9iIIOGgzhe6TuTIct4ipLRfCOrgbVoHdKav5OxyYlstmhj7TZHKYphsLVUeKUhthSYQjHDr6zd3TDTNp/7t+CQNVvu+iLcC2daZ/DAfijHywUJ0uaeWappmSBsddme41FCB+aDvSu3+N6NBe6XdU2HAOiqdegqC1yxgoVGfze8YflQqqWgEUQvFC04Pcww9IBCgolSStjRuWKB1NKCI+fD5XrfMJSmVknnwZmp50OZLbzpy1vuHrr0NudBKVrs2Snsj3cx8k1SvVjcrwHvzmhnthXXY1tnSZ0yuGcg2+UcM6KNak7B7wJdrD3xk56mi20dE0U6fTlLCwf8SH65ti/rDGistX3AC8y+qFkwkyMnJUleE1L1OU0GBBlmMkpNrXic/kS8B9uwP89jYfyfhcIcTUu9EpX8QYxWtr2sKZ64Ddw6Y2q1yZEa4UQIwK8rqHkStxGmQEkMK6qszYf6enJZhj0sDooO/5shzvv8UgroS8p6qLe4ENP3AQWL4YJBixOLOdgOKTqZZxB3G5qIqiKMrJjIog5YTDO7gLpbtvRlAqwE63iOGBnRyGO9gPb3Af7O4NsFs64I+PSFSGtTyc+edg2U41IXXZs2Cn5hYFOKUpbNrxE1T69yOeH4Jdkc6PTGyTQRypTObgl92Znlm5PPxYBsmnvgDlSAbYfrf0DSJcwmF/Ir4vmkYl0iQpYZyp5oBu5PRnwH7g+0iMHEIkk0Ka+5ktoblYRK7vVIxsfS6S9/8UqV33IJIzKW8Wa49sB/ktF6DZzgEUZxIlMlEnGaC6RbixNNx4E2K5YVTSHcyxm0l7arUkErRU6F6WrpZR8fgpiHb2AwNsrOnWpLZVe8bQvrj5/uuRfvAWiVy50RQc30N8eDfKO+/C4OWvQrn7FHnP+jagPZpHDg7casG9zO7XjqWjEfiMjFEAsWsrJ9hqrKs5WqYToE/7smgUbc9/Mdquel7D1KfJJ/bAi8SNMKwKIJoAsDcSV0yxFh3egwPjwHiWtUHGCMDUi81eFw0d4hEf4zlPhApFCJdhf53soIdcMZA6HZ579mQykRXaOs9qzmRETMD1zQ4FMdWMjT2Z1sXrHKYSkrJnxMC0BrZqopoMNFaAfaMUsLWbCnBozMeB0UAMDbhfXMfgZCA25af32qh4loioA2OB1CAxDY7bdT0KELMe7msmNiOAuJ88VtbWdVVFEO3lJ7NF6b9DkShW1IkomtMJxKc9rGf2K2xyynPTlDQii8+ZoKWFoheDY5m8VQpupqeKUYfP9waIRR10t6c13U1RlFWEfh+tFCqClBMKFr+XH74TQbkIq617erAT7VonvWD8fE6ai0Z6N8BPpuFPjJjnbAfxMy9A4pKnIbpuU8P1lu68EbGDj8JhlKfConzAikYk/c2rVODmivDKbjWlzDY2zKkmqUOZuvmHaH7Za7Ej6ELXEzcj6hVF7lC4sDlqOZpG39i9sJMJ+FvONQO3eC/Gn/wytBx6AOsmH5M6IUaxkk8+D8XOc5CcisF52gtROP08OLsfhpUdh5toQnHDWSh3b4X3xK/QtusXsNwyohRDtALnjHssiXLbBjiBC8evYLzvPCkaZ3oQi8L72o/ewYvnnbbQXc2meJ6pS1KXUmFzSzMwr2x/GKn7fwovlkKl6mzHzXrwER/ej+67voGh578dp/clpLh9t7cOiakHUI4xrcqSdKvW9Ey/l6BYQrynzzQ1Na0vJfUsvAdmDPn4SoB434Z5B8MVpiIGZlDOlTEawlqbMC2Obn689hEnQMm1JEUsnTBGAKwBYmqcpIYxpc0PkEl6cu5rDQ9i1Xoe2l+zD1BHEx3LqNXM/vG12amClokEFig2mP4WHheFqy0pdEx740OuX41oCKMiVp0QouAangxmiaCxbIB9I0Z0ZRIzVtEUEXQK3DUY4Iw+S0Qvz/3OgQBTzPqksUfVGY7v5f1U2+TWrMfU38j6PB8DI1MolFwRNdxnnqPJbAmFYgXd7Rkk4lGp/RkYd8U6vFA2n62mlC3W2F3NwMGxmagTRVDE9hCzSyKAaLwRGmwkYxH0dWeQqBNXiqIoysmJ/jVQThgofMoP3AZ396My62/lp4BMC6x0qzi/RbrXiTmCOzKISDIj6W8UKU4qjcR5lyF56TPnHRR7/Xvgcb2VEhyaDLC2pDqwY5TGG52AV66YFLhwVoe9edZvETOEyqH9KD3yG2QqOZSaejEWa5NBI226ZdDLKElpHB0jD6F/3RloajYpX+VIBwptVyK94Uo4MvCmpa+N7AEXjhMgxXDIKafB33qa7E9EKtEDYGwCdjFLKSY22k45L81BveYuuG3rEfOLsAp5pE49Hb1Pu1DCKhwbNmpiSfvnA2OmsJ+DSTpnsaieAuRw8PwwOtIbq+llM2F6/bTuuYtxHbiZVhmwhj2DaJFgtbYjPbwL3vafY1f82ShULES7z8e66C9g58ZQSbfLAJ4paHRdowsfG5+mzrsQvlvB5F23G0tyGl6wCW01B4+1XCJimpqlf9Dk7b+QqFGkvQPJ08+Ea0UlgjXeuQ3Rhx+CV/ZgO7aJzoRXljVGgY9S7+kSpfKqImlLF53bPBEEQdGIpXQigq6Mj3yZ/ZXmprJRyDBdbXjSk7Q4RlOYPpaI2Si7/nTvHTq90cRACv39GSERQhHFfkR7maqW9VGuVAUUy93MlTBnVu61+lS0ms9QwOtDK3cgEZ+9HO8NXsvJfICDowHG8qZHUCh8QuMOvouRKYrU2m1RRMn9UI0CTWQLIoBiMRMFm96OE6Bc8TAykUdLJoF9Q0UUS9XmtdV6utGpBMbzDvpa2SjVkiicbN+yMOImEbMjyMQq6Ep5YoKQScXQlIrBqW1ypCiKstJoTdDaEkGO4+DQoUPo7jZ9MkJGRkbkOa/aaV1RjidMfSv+8odwdz8MFHIiQIKSBS+fhZWahNOzAbG+TZIOVRk4IMtb0Tii6zYidsaFiJ169oIpMu7e7cY4gTVEkmIWdrupNt50KGaYbhWd+V5raoHNPkEcfCaSKN53BxLJhAx0m/0y3HwB9vggbHFys+GnWhBrbkE82w80m2gUB8GccY9EHVjWjPWYzG6Hv9A5rSbK0VTJovX+axEd2Qukm1FpORvl7AQi4/0SLbICB8XWPuS2XIz1l12GJPOK5oGC5cG9QIEO4NU0LkZ19o8CZ60HNi6hqJyn7MCIiWSUSi5Sh/ZIqiAH9tMCqFiAM7gXmBiFV8giMfWfKD3+CCrnX4Vg69nInfssNN3/Y0RG96GSaEHZspCdmJBeNM1XPBOJrachl/fgZ36IIDspUTA+5DQFvohOL0VnvThGvnUN/BKbalYb13b1YuTilyDbeRq8TRcg3forOEP7UWrrk69KqePyPMTG9qPSug65jTTPMBbLLo0UxmaOdeZWcpFOMoIxv+MYnx2YYLPPitQCMdWM5zodrxYE1UDr6WTUvF5Pa9qWurXRnI+hCV+iUxM5Ou5ZEkmzHdYZ1dTIVGuVWM8zvbeeqeOaz+SBx5qtBNg54IugYl0TxTPNB8quhWTUCDS+v/Z4KUiZNkdhVCibPj3ZfFkievV9i/g+GhcwGjSVd1Es88NkV62uuccuUpECSn4Sg5MOnnwqsGvIwqGxqkudZaElHcO2vtiiTR8URVGUk48li6DpWoc6SqUSYg0KlhXleFC+9+dwn3gAYOE7C05mGtIgmGL/myjsno2INDfDTiYRu+xqGfHRuMBuakFQyIqbmMUIUYPBqjfGzqAugqJMxU8LoGmqBRe2jB7NFLyVSM28XMjBGx1EJBM3PYIqFakHMilx5mMYmRgApobQ1Ho3Sn2bJOWJi7JHj9Tz0PFNCvyj0ptmLGdSrGb1k5kaQsvP/wv23keNWUBhSFLuKpEkKhzMV8riUHfwgt9DMdWB8UELWXhY32bS4WrhwP2hvcbogFGf2tQszrw/csD0xWlZRESIMErxeD8H0uztY9IFeU6JpDNVCojsegg2jR5iCanbYV1O/OBjiI/uQx5/iKlzr4Lb1In0jtsRGd0PupBPdZ6CjVdfhsyFF8u5GGw5FcUtFyK2535YpTysInPx2KPJRkChmpuA61XgbdyIeGizXa5gfO8hWMPXoOnFb0DQ3YfJp78SqZ9/E7HRgzKIN2rTRrltPUYvf4W48hlcSYULa29q4Xl6/ND8duM0SWAaG1fvSr2RYWgKSMcCtDeZKCGm61oY+TLCgUYJ7E1EAcI6f14j6evU5MiDy+8e9PHYQWMIULt1uQWrzU/pkFZ7Gy9IYO4H3ubNNal9YuHt8FgYATL9tMTOXRzrAqmnCi3Pdw34iDo+Uo4vUZpGUGBVGAnzbfhwEJ1W+VT/fHiI2yVk3QQK5Qgu3mrD3exL41buW2wRzoaKoigrz0xPs+Vdp7KsIuhf/uVf5Cf/6H3+85+XJqkhjP7ceuutOPPM2Q5LinI8YISGTnAos+9PtRGIcQOoevj68CdGYbV2wc9OAokmFG67Cd74MIJ8Vnr5OJk0Iu1dcNp7EDn1HDjraYtc80VSzMHN5VEan5KfXD0FT6w1g2hTGpY0ZmHTMyNYiN1sLOX9qXG4/fuM8xvi4lJlrMTMoJADPhba02nOdstIb/85JrddgUpTF9rTQPPw45j85X2yDhLp24ymbRcgFd0ixemJWCA1Sy3bb0XL9pvhDg0ikGatplidtT9MA4u4JTEfKJc8REf3YyreKfUsD+2DDJbpcnZKz8z+94+bmhbTN2XmVPDfrPXgAJxpcosRQRyo7xnGdJ0J3e6w+SxEHvoFKql2I0CHDhgBlM4Ygwe65DHak+lCYnw/0r/6tri1FbZchMLmC2EXJmVAHo87OMN7BKM/+h7cwMaY34tUSwbO5AhQLkkEKMQWfzVezyyKO7cjcdEl4qBXsaIot28Qs4PgkTvhP+2lSG/dgsmWt8Da/TDswX3wYaHSsUHc6/woD7oqAKoRsvmP3RIzg0R0po4nFEg0CTB3KyNKxoAgdJPLUfNmAzEACHswdWQsdEsdTIADI76kFYauf4zKbOo0tTKyX7aFrd02Jgo++sdMCqJE3Krb4K6c0mOhrabnEG9jNjyly1uj0hmm9fG9qbpUNzm3tqkR4tMUVuxdxOMOo4g8jljUNCytVCzTaNUyZgv1uK4R+Dzn9ZEik9rIffbkfgqNInivTxUCDE+x4awvUSdGglhrVXveFUVRVg2aDrc2RNDHP/5x+ck/TJ/73OckLS6EEaAtW7bI84pyvKk8fh+CSVZHV1Mxw2KIaTusACgX4Q4dQOAF8EbHTSPUUhFBflKslP3JMXgTY4hOjMAb2IvoBVcgdsZFsjr2mSnu34fcvn4RG9WNwHdduIUSotkCEl1tIor8chl2LCppcFayCf7kqDRqZd1JlOlxjgOvVDLr5cCfWk2czBzTLDSagO2W0Lbz50he9bto2nkbcnf9TGpbQse60uMPwdr9OPoufgYeb7kYI+Meunfdgpa9t0jqF0WWRFm4/qoOtNi9FVE4lTwiPqfnc0bIWTNRn+2HTMPJrT3ms820t7DJZD18jgPmsezirhGX42A4TL2SAfTZvwV7932ITfajmOyANUaV5MCmUKXznhNBfHjX/8/ee8BZdt/V4ef219+bPjvbtatVL5Yty7bkLht3J8ZgmikxIZQASQh/CM30AAkEiAmG4GATMMaVUNxlSZZsyepale3avtPL67ff/+d8f/e+mdkia4W671ef0c68cvub+Z57zvcc2EvHlRHB3GNwPvF+eBdei85F18Of2AnzxCGM3/pxLIUzQicxY6naXIbeXFx1MVhDb8iuEGwwIHdlGb39e1G65DIBGZKyXapBI6N4/dthGSbqwyW0ii/ByraXCG6l3TctnJnylN0AKheUJbOcU3EKXH9nj89QKkYnNgcqDJXb1u4rwC5mbmvMG9ivS3SVOMEpxznO0RDcTNQ1mVkiaNVTMEqQwDmhfkCTgli2j42/7Kqu4aqtOoZKyuyAy6PP+FAR2DqmYWpIP9PQoqbLtnF+y05t01l0QJQcojS49WwlOcGRJuwl58Yem1WOeJwRWt1HTcBQGBjw/BAdkb+pWajMHZuudCr41zgHO5X6rCfcX0PYpoPTkYBK7jOXQyDX6kVY6mjYucGQ5eeVV1555ZXXeYOgw4cPy7+vfe1r8elPf/pxg1PzyuuZqmj6CMKH7kiZlSw0ZN2k9+DnKNIQeDHsSk1AQrQyB43ASSblNcTdDiJ2cb6L4L5bYW7YCr02DH/6BHoHDyKhfI65M2kzJ2GscYKg3YNZcGAP1+CvdBHDhF6qIzxxCFFrGXHfheHYMmAv80QirVrTJieJuLQxt8iiY123hSF3GhVvGq17bxczBHNkYrBLzP8J5mfRu/2LsK4bQ7l9Co09NyHwVPaRIsLYjq8vI/TEptuM+mKWwLvsAsJSQEMgwADNTaO0cVYyrHOoXweH9pvdcOKMCQfnBWSsCQ5lg99ubEdyzbtRvfv/wZ4/IsyOFpH+ABLLQVSswuh3oAeumBswX4nHrnTkPjgz+7Fy+beh9OitKHoLcC7YKPK/9nwXxqlj4qQH205BD4N0Ugokux5kQxI5jsnOXQIQ1UEy1bUUBghgYrHNoFHZ2xTMCIKRy6xgRig5kQTSZkUwRDBLi/PBGaB1dMrirPRiARIELWR21NasMdNIK4NR3EyClYm6yhIioDi1pK6f4hr5Iht/AqKOm+DkUozhyiqjJ4zQhIZt43Scy6zKz33iRmsaur6G2RUaFNCJT12yBEFcp7YaiXVGyUwOZXDp4aZbHgHT6awRpZ5uYMLSQnRpeuDpAt4opSuY6jwJ2DT4mT2blDCV+Gk6aiUNxxdjNPt031Muc1KW2p7lrmLNto3n2UB55ZXXc62eBiYol8M9fTNBN9988/m+Ja+8npZK3J7MAq3OqWW/TNLuXbpIAxEH4oMQc6dacPwmuoYtDawFH7puyGtokc2ZG86GGGVaZ8/D33MvCte9Af27bkHk+opYChjoSOJGNZm0w46DEH6zjdLIMArjW6CNbIJ/4CGZA9ILDnTK0SxTGKczMEXGVBgGDDI93BbBcoYwPrHbFztvMklJtyVyvrjbRhiE0Pt9DH/qt4Ul8r0ufErI2N8bOqyKA7NYEMMGdbCU9Ehyg3QDfnViwEKIYtDzUF88CKszh8V5HcPbN2G4eAFOwBzYD6879kpliNFz5Al1XOD4AjDTVAwQWRCCCbqoVQpKZidyqC3XoD+yDc6+b2Dkc/9TZHJxuQHYDsygDy0JERPYhaF8HxVrCIfGYC6fQuPOj8OIApS2TIrBgW6UFSMYeIrC8sm4yQFRGyUzSCmTx3wm05TlhivLsBu0U+fsVgfa+CZh5BbT4FdKvNhM05CAUj7FkMUYLsewzUT2JfujIzNaPJ1aLNK8gWRO13DBpIGup6PTT9D1E7RmEjHyM7/JH0CZoUpfQ3aDbA6d5s5WlMRRZscvHmcW5WIER7zMSqfZVku+VWq/PbgkNQ1bR3WZY6KkLZvvGa4awuQ9coIA5sxt4L7zHE8NKfkZ2Ryx9s5yg2IySbxxQN/wAKYWD44VwWMMFcwaxzomhorouiE8P4KpM5doNTiWC42TGEFsoVLSUDCVrTcDWE+3dudx5/njfmwcTgaBwHnllVdeeeV13iCI8o8Pf/jDuOmmmzA3N5cODK/WV77ylady+/LK63FDUZP2CvThCUQr86tsUAaGkhhRHEl4Ked4qkEbWhIhifrQfabRkHGwpBmW19NS2aO3sdIjRdOHpblu3f0NhOz60v5JYBaT7QuK3REWKQylobS8Fgy9D21sGGHYQdTtCHuk6rQ72mtoliTWOOGQSuM0WFsvRDg3LdtGe27mGXHb2LRTz0SXs6DdkX2j7S9bSGGa2CASlLVVg6lZlsjz1AGLoOkhouFJBIXGYHSq1DqByT2fRaE7J/Mz0UkN7T0Gyo0xTNWuRtuowxgagTF7BNah+6F1luE6dTR2vAgbdlxFTmLdeeHd/91HVcPu+gmSlQVo4qxXRqcyiq6nWCY20Rx7N4Me4nINWqUqbBytrtnM0z0vu9svQJentFAUuVlQbKA2fadiRw4tocfzUarA6HqK3Vtr4iKyKWVqkNFbak5o9fizUSboioII8YUvEUcyNvSWoWZg+DbH1mAbERrFED03gmXq8ljP19acWYkrVbNeqaSNxTwbgguCqLJDK+0ER40YfqRec65YJl46aw0rMvboXK/PAlX5OrItR+ZjCVEliMiWVy9pGBVWShkrcIE0dqAMjvbnAu41DY0yv85cx4ahGMfm1bwP5254DrgugkGe08khtXFkg3hcCdoIgDpuDFtzYRuBnMOI1zxloJKrxWNmIoaFTmRhS8FCwQkxt9RFwSJ7poCQ4s1imb2rlBzs2GBKACvXXz6HRI8sJ7eBX+dyvcsrr7zyejZKbkQ+xfdmnurlvZDrvP8k/PRP/7SAoLe+9a24/PLL8+TtvJ61otRMSBSngKhcBdorq6YImQVwHAkAilXQi3SzsWZBY5dI5qfTF/AizI5pwCqVEDWbEoBKxmX58/+AcHlpIJkTO+U4lqYu6fuwBrfDNejMb3H7CB64C7EEukTC6gw2JhuAPF1nRuc3JPD7rgACqzGC4jWvRPtLn0a0MA0tJsOTIFFJmmpbXBeJ60MrFNL1KAZMgJCuCziKwgimQYYrEPlfYtqIhybQnrwMrqOsu+3+CqYe+QfYvUW41QloholqKUS8cAzRqXuwwXgQdWcI3vQcQtdHUBxGZBdRiOdRXtyLbvt+lL7zvTDKal6Ju7XvlGIizLkjGH7wKyjNHYAWBWL+0Bm7EIsXvx7e8BaYhx9EY+8tsJdOwnSbsIIuAi1B0m7CLZSgBXTP44AI9Vca9FIhZQ88FJcOCmDUbVvc/pj5E7ZWoLU7q455644zEUl2w4ZyNur/AgngiXQLrSPTCFwf3a1XY2XiJUjaijkRgKKTBQJKRheWxiyoGFaBLIeGMKR1NiWIBKKDpadyRCXZIjC5ZCpjyBIcm6d0SwEVVgaUMmCTGRewyLRV1jA3BB0Schqr5v70EsZEZ7NPG2uaBCigUklxMD8GM2KqoB4nPtbSma2VbiSSPc4TkTEh63O23+8M1OW2Ti8ncp65wTxGBEzbxnSRpK2dLzowE8EnAalFcMxQHN+EL0sXHUYGDJHAxTJrSgBKa++NIxbGh8tYabswjTBlljTJ6RquFTFSM2UdPU2d77P7763eesj/VOWVV155Pb/rpptuOicJ83/+z/95+kHQxz72MXz84x/HW97ylvNeWV55PdkQ1OjEIYTHDyLxetDLNRibL1zX8JhjGxG6TG4MBoYFBD4EI5m9MW2ircgV57So7yLxfYVNhMmJkPQ9hJ2+SNsoX9M7PvzecWh2Eeh2VOqkvmpJzXmgiLI0Q4dO6sI0EDXbYp4g8jqxZU5v86ihCvV+ApI1eVrStDOwM+7CL4/g+Et+CI5WhG7qsr+Uhg1suTU1KB7QC5gOcGcZG5ft4z4FMVBS2UVGtQyvMoGoNIL50atUmCyA2twjcLoL6Nen5O66Hkcw5w6L7E5ziuLSZnaaCNvLMCwLth1B3zCKoqPJ/E5/36NY/vJnMfrO75R1UypGJqi8dBjWzR+B2VkUS+uk1IAWuKgdv1/srttbrkHjwFdhRgGS+gj0kgOtPSczIoEXKXkbJXBslwl0SkXotgndimEvHkTSWkBCwETbcpG2WQgTM8W/a8BPOvuTHml1fGiXXioi7nVh1Iew1IrRcybQvvg6tC94KbTYBgL1WqeoWBICIFPzESc64sRAEFHCFcPSfFTtGE2fFmfpdTE4EeJBgEs3MXhUMRZ7T6rMIIKqkQqw0FEywcwIIVNH8l+68l04uTqDxqKUjbbky12CnfX26GJcEAITDTqvaVjqxMLMrJ3/4eEI40RAVJksU8qe8P+cqWnNJ5heUQCpZAMbGpTrhQL6OZ9TKliwLQMbhzmnREZLbTdffzbQRDvvx2YVOCtbgWIqRSaYOiNmJhDQoYODY2Q6TZl9kv0tWigVTHhk6LgNlLdZpx2TgpK8EWjRROL08tLHmSWVV1555fXcKv4+fKot/V+YEQG/9mu/hl//9V/HS17yEmzYsOEpIWHOGwTRCW7nzp3/4hXn9a1Rp+fYnG/F/Q78b3wJ8fxJ1cEZFqLWEsLpI9DrI4pFCQOV7zOxGe7+R+EvLomJAXEDGQKpUgVhyZG70ZrbRuz5KtzU0OQ18jqZUk8Qeb6AIn8fzRBiwLRS32KGbSq2RTENBEGRsEjWUAOa7ynzBM7hkLmRFashejIFCgipZah+mRPqJiK7ImCmM3kZjl31XQjtEvYfd7GzsywAhvK2bBA8O6YDjRa3KZWMrbbP6Z1xuUOvHo+LdXTLk5ievA4rte1qOQAq8wcQmbYAIJbjrQgDxowjHp+w5SGYX4BZKcGwbCTeCqy4Dd2oAYYNo95A75HdCF99I8zGsDT4UZSgcO/nge4y/LFtwgKZnQUYXaZZRii351Ga2Qe/PgmMTkqTnmgFJOU60OOyY6A6BjP2oHWWRCan89gWy9AXTiFeOJnK2dS5C5cWgWJFjhPd95gRNZDCyVQ/m+vsbKT/43Zc+WIcufFncKptQSuWJZCWhAkPLUEEWROeqkbRh6H5iGjrPQA6hGc6wn4PhSP3Qzv4GGLPQzg8Bf+CKxFPbBW5HC2oyY6wTi4rd7ZVsEBZWoyOB3T6CmPzYc64TA3RvtqQOZe1JfM6YzrcIEbbpdxMzeuIc12k5oC2jGg4tRLLfpxugEB5YmaPTXBAYEAQRgBEZiolPCXzx/U8nJjzBbCp5SizgnrFwVCtII+NVL/5518ITHG9W72Gz/icZ5JAuZ45u6Ov2+fC2fy606KJB53zji/Q0U4xZNn1z5956icaNF7IqaC88sorr+drffCDHxQl2nvf+96nbJnnDYJ+5md+Bn/0R3+ED3zgA7kULq+zFg0G/Mf2wD/4MOLmsgSS2jsug73zMuiUrZ1HBbvvQDR7HPrQmEi1BuvwPQkfpXNavLIgwZr+saPw5pdUI2ezsTfQ9ww4QVOYHN0swLeLMP2lgTwq9CMFdPgeSzVekRsiDr1VTRJDSrOi5C2JBvM3YvfbqKJQLyNy1SB+Js1Jt1QkPIPb3kLmkM1JHxudgje2E7bbxMqO10oznoQJ/E5HwJg9MoKg1UZImRc73bT51yxTycWkuVf5REKAiLFChCQOYRQsxLoJtzyBExd9F5rVLQjN0qANlaH1OJTjlD3muCvKWjt1QiCrRlMJg8mYZLD8GHG7Cb2igkKNWg3BqZPw52YFBLEhZwaROXsE/coodL8HZ+YADK8r2yYbyfDSfg9Gpwtt5qjSL1dqiEpVwO2LRbjht6Bt3QHtuAut20JCSkbXodH6OpUWaqWSGFtwjkiYK43LTzt50xEbbJEKpnbKDKnVigWULr4C9etfjeTFr8Wph0gRKFlYVuz3Sex1YqDr8vT7QsapWTOGjKqB/6S5BOtLH5d9sAmIdAfW8b0o7LkD/ateiy1v+zYBQLweaAggw/syfrb6e1NARZGSt0SYoos3Mex01dntbMW5oks26iJHW+woxzdivU0NDRsaBAwKwJ1tERnQScfe5HrkeonPCR5kloi4Hz4M3Ze5Hdp7V4rqeufszXKL8jQdtbU6vTVFa21lJQ4xVcjyiWhaYOirMsP04zSwcZdcqJisjoah8vn9bZkaVjND8y1lvpBe4QKQpoS1yv9W5ZVXXs+9YjSDxDM8xct8IZbv+3jFK17xlC7zvEHQ7bffLg5xn/vc53DZZZfBstZ0D4DYZ+f1rVsEJ91b/wnB4X2qaXUKElTav/PL8A89gvLr/hWMxsgTWhYzdmgKQPnbWgDEYs6P7hRl/oUdXDRzHN70tDynO7YCIWEMi85szIUJIxidRcnvIZhICCBkbicZNGCRp8CQmud5vJ1MORfDgFkuoDQ5IpK6wSwS/8euVKfOidZqyoo6m4MQIwZ2qaYJvzoqczleaRTd2uZs76AbJnzNQsmxYW+YRFxoI0lzdAQAlUpw/bmUEFK/8EK7IssmiNB0E4VdFyPwI5za/DosDV18hnCO7+rXNqDYPoVI4TNYzBNKWSEBWDJ0lfodp3flybytniR18LJtGKoAhbAjDm2GUUDx2CMw/K5YT8eajdCwFeh0A+j+ClCpA6YNLC9ITlPcGIWld2H6XWhL80gqDbH95vHUmkupQQKRlgUUKkjoqmfbiJotZYstx95GtHkXkvootF5bzkHAbfGWMfXOd6DxmjfIyzi7xFNNKdcZ117anPMy8EKV7UN1IQESDwdfYN7899BozjE2JeuMY8rxEmidFRTv+zKinVPQJl+szg3DTikbO4dLM1kKNcJ0bgDEfaf8bLGzynhcMK4Jm0PgsJb1IYhTjuCrTGx6uQ/G5rgfBA784verq+WLAgGPZBKJKfgaAgrOCvlBhGbXQ6WsLMgpU2MR7BCYLXW5LsU4hYECWMJWwZTriy6FnGEb+FbI/QCamKjXbBrW15lBPJGiOQMBJw0oVro0gkhgGzqGKppIAvMbdnnllddzstbHyj11y3wB1g//8A/jox/9KH75l3/52QNBjUYD//pf/+unbAPyemGV+8g9wgIZZG7U7XMpAo9wfhq9O76Mypu+8wk1JQRBideHNryakbOuaIgwfUykbWE/FPCilyviiEaDAi10QUdckaLxDnQUwQhcmaeJQ1pdK4vrrOMVkkUka4+zUdlmaxoM20JptC6Nojh2cSZIGmdKbwzoJsNTgwFoynKMhNEhk1GpouTOI3DqmJu8QkDjQBZUrMCrb0LJXZR5Ia1WVwYJfZVgSgbB4pxPmxI8DuvzsR7gKebDHh+D+M0NjaK/6bLV7V+bIatBJHj12Ydh9JvQq3VYBRtxq6cykDwXBmVwboTYdWGUyqqpJihJK2yuwGg0YG9UAI6qpYnxIjqRh+rso4DXQUI5Ibcv8qDR1rzXl5/FfILufbTAthzoXh8GpY6TWwAjQfLatyIsj0Ef3wDr3pug3/F5xDUCmxb01pIi8+RQ2kB1CElfWWoLYzU0IeAq4TwXt3n+FLT6MMqXX716fZ0j54iAhVIxFvEOj7WEgKaKSe5jcPQI9OmjSIYn5DwT4KhxJA1JZUjyjcIH70Dy6mvk3PD9vNTY6A/MAtcUQYPK70lPU5IgCCO4figNPg0uji9rWGgpcJFif2E+hisEABmQUTvEnKDplWjAyHTJyKQRVQQ0fH+Fqs3MsyPFuVx21coYRwIyhQQz5kbtoo5WN4R7qiesI2ej+N62Z6Af0C7OgBsod72BI7kcOxOmbciMkczhJQx5VdlK5E4N08KmEVtyip5MKfc9xZTllVdeeeX1wirXdfHnf/7n+PKXv4wrr7zyDBLmD/7gD55+EPSXf/mX572SvL6FZHD7d6uB+jUACClroteHhbGJ5qdhjqd2WY9X6zJ/1jc2cb8H9/B+kdsJixMmiH1fhV1yW/r0/k0VaMzy4SJkAlt5EitJ0Jo8IWEzEplnefydTP+JYti1EuxaWTXZkjhqKeAThYgloJOsDWe9U0aIZRoKFFSHoFeKwloVCxY2t+/HUDCN2dJOuPXNsjx/y5XQ3ROIlxdghi6ialXMALQep9EjWNUKosYk4qUFJLTiDnxxuCM7ZSAQ9qv3ojehHw+tAjs1yjSoTmMrFrdejw3Hb0elf1LkhZJJ1Ivke3tyM5JiG90DB8RIgN2zXmuoAXfK0Hpd1F7xagFIclySBPXxKoLEFQAbs7vWzRR4GQiZ3RMrOSH/NfweDMcS8wm9UkCw0gIWptG76pVwyBod2wf9zi8AC8cUq1OuIxkah+b3RFan22QDecxjkfbFtRGgWIK+eErNcrG9ppyxPIyRd3wHrNGxwb5zNoegIwMF2RWWBbvK9aMDjmPDMjyYtLQOdTXjMn8KCH3ALsgMSxSvnRcC4nIdxvwJdFc6aGsVOf1kZ1r0uTDPnJNjPk7RoX010Oq6mF3sIEjd8dRLDfRCCzbNPVKkxFExus0dmU8ws6LA0FhNfdFAgdK4owsJ+p6SoInCUVgXFUbacTVZX+oOL0BO2VqLU0F6PlODh5QpJMvS82KYeoS+7yr3O10DlaRRFMDWArS8AnqBPfjIZpNq/Gz1fAMFMx5kA5EwtQwdow0HE8OcM1qPEJe7tOOOxHAjO2ebRg2M11+Yg7955ZXXt1rlxghPtHbv3o2rr1Y3Mh9++OF1zz1Ztv9JpSaEYYhbbrkFhw4dwvd8z/egWq3i1KlTqNVqqFSUVW5e33rFWZGk1xU25mxFcERb66i5+IRAkD40AZ0zMsyYWTNLRFDhHTko6yPrI4Ar0aDRmc1zEXt99ULKztT9bCVFI2OS3ZoeDCKs2f7Ms/gJlOlYKG8YkZkZkdQRfBQKMOtVhO2uNN4Dra9F2VCCpDokwaBBYwPqyTLMxBN75oSSvSiE4y1jS3AfWsUIy/Y21Ldvh1O/Ef4DX0UwPwf/1Bxah2eExTLGx6G96TtQcpfEbc23y6jEfXg9V+Y4AtOSBr89M4dkbJvsMEM3s0rHoFTOzqXXY+KaSSSHHkJw6hj0fk8c+Yz6MPRSBbZTQLC0AH9uXs5hsMi5nHnoTgG1665H45WvU+clUQ35yu79qDTqCFpNaAG7V9paqywY+P4qUy/UQyQzP5rvIi6UBTiRTyscfwT2nlvEbCIulBBVh0kOwZg9Bq1YgsZrLAqhuV11jKMYSaGMpVf/ILRtl6B0/EHoJw6KLMob34HRa67G+BWrAIhF6RRBAO2hCSgEW6QZO0pKBlQYgaSbCOHAhAtDjxFGOtKpLkGUYWwgPC2YgVI1MiEPHE0QWBlyVpK6sKdmgLg+gg9GUBETbh7WBPwsUfO2dqpMGJoQFoEDjQOSCrxQRys1M+CGcF0tN0GbDm99DTsmdLGynmspMwayUHRfK1g+CgXl0ibzPp4FLXEQxLowXDwetKnm5yl7jWQoGSpwVC2LXCcN9DRECZlNgNNwwkZqMYqGCz/kWUxd4JCgYrsoGIEAn6y4Ti+0MTVqY+PYmbZuNDrYdypSc0zp4XXbwGI3wpbRBBdNnUNbmFdeeeWV1wuubr755qd8mecNgo4ePYo3velNOHbsGDzPwxve8AYBQb/7u78rP9O9Ia9v0UrDKOnYdVZMLtkplN48seaFDbixdReCvfchMU1pwFnhyiKiTlPmjXTbQRL64gpGS+mo5ykHt+z2tswcKO2QXnBUMyXPG2JxrbpdlSeUfDMWKCvimmoJQbOzDkj5nR60cknkYbTfjoNATAfCxgSMxhCWqxfIm6vhIiyyZrojsyAiCUKEyKnCjnqoLe6FMbYRI1UTRv0SJJVhHPgvv4L27kcV28XjvG8WxkMnMP6KS6FduguFSgVeXIdXSmBQakZ5U28F1aX9sIevQmhmzNxqkGU2+jRS11DZfBGw8yLllBf46D9wJ7p33ITeI/fJnBcb49KFO2Bu3iXOcUa1itJFl8HZsm1wB2ahDZxcSjDUWYTVaCDWbUQHHhHwKYKnwflgR26kBJ+cEIDglfvGc8Lls2unbTlZxcCH2W0irjZgMhS3tQTN7QgQ0nRbgVfLRv91342xG27AqWUNs5tfD3/D69Ue08yAmTstYKK+eho5C3TJRhXsyrwbAqHUwG8Q5soZJx4zLy6iH2qwdU+AkDExKYxe0A8QWGzg19hQ8/j2m+hMXSJGF1WlBhRA0ekptzTOzxC48NKsFoGNwwQTfSwxQCgFQDqlk2KskZ05ojNagvto952BmYF8JiI6uikwRclcrZigWmQgKTAsZGUEI+7B0FIppjA4CazEk/DXVlBGxPweAVz8l6YSvnyOyo4uUjoCIAIaS6eDWyozXf/xFjDI5xmI2g95zSWo2304ZoCIuUqxLqwSwZBjUEoXYrnriFwvyxdiMVh1/7QCQARhqU/HQM53bCFGo6SJ61teeeWV1/O28pmgJ1UnTpyQfzdt2oR/SelPJiyVHt3Ly8soFleT4jknxACjvL51S68NwRgZR9JpnfX5pNdWVsQTG5/wMq1LXwpz2yVI3B6ixRnEy3MIZ09KxyVzR0NjqnF2e7CrZcn34cwNG2M23ZIVRPaBuT+cQaHbWfp85thGi+vTSKHHLbHEzibP1xaHwdtd9NwEWmMEZq2B3oZLcGjb2+AXG2okKInhhF1EdGSj9a/FRjaRxpCAKClUUEEPW62FgaXv/t/4XXQeeFjkaRidAEYmgHIN0eIC5j5/G4KZRcU8BGQXNOhklmgs4PVRaZ3AlqNfRLV9LMN769y5uAY2z4N9E/SUoP2N29F++BF0j8+iN99Cf6WPYOYUvD33QhudQOPGt6HV2I790xr2nACOzic4uaRmQ2g1rfl9WPUKjKEhAShJuSphrVoa5MKsJkoXg/IwglIDSbmhQCnZu6ntMLpNZYhgF+Sa4fKMiLbm6dyNT7lfLPNX/NmqlGBXSxivA62+mumRGRuq8RjsuQLc+ghB2vpTtmUUuOYCBoAqMEKTActUVtOT3PT0NpEAmMDBklvFYr+ClZHL0R+/ENrSnDBSWZEhMrvLCAgirnyZDPhnLAYBSq1MtkQBk8s267iCX1t01EuJhIIOsozSv2LZv6tnK0YSeTJDRHbmdAUAzz+PEWeFeD0QHPX8BCGla3GEfsh5HQNexHkfQ0A6gVHNInuTyPsYprrYtRHDgGMSeEXoupG8zjIo0SMDZKy7htZuo3hpaArw2kYI2wwE/Ai4EihHeaouyy9aRJ4BFlrrWdgTi2rb1wIgFr/ntU4wdHxxNWsrr7zyyiuvF3bFcSw5QfV6HVu3bpUv+hT8xm/8xhnBqU8bE3Tbbbfh61//uuQFra1t27bh5MmTT2oj8nphFBto59IXI5ybRtRcElCU5XUQxHCGpHDVddDpCPZEl2lasK99HeJtF4tTHOVuusfuqAl9aFwa9tgwJVSUoZr2UA1Bu4OIQxZkpOgeVizIfIy/3EYsNtNqpkfma2gyYJmI6Ir2hDYIsEqOvOdcZXeWEdfLSMwilhoXY6U4hdA7ACP2EYsdNdetS4NNoCMhkUU28YZysmvTWI4CI6B53/1o3Xu/hHtanAmiXIvH02AKZgPRwjxad9yD4gVbocUR7O4CzN4ydK+TZukAG6bvwPjcfehUN2PfznfDcxryuJi+pTkrWSVBgJk/+x/o3HOnWHsTuMirKLPzQ9gJ0PnSp7Hfugjt0sZVF7WUVGvES7BO7oXRnIURx7CsEK4WIuqtIGamEtdJ9itKEBVLYogg++SH0Nj11usA54sWAwFPvE8jzJFhQe80kVQoi9SAdlMAk94YgT46AeZvVqYfxu4Dr0DPKwqLs7Z5piKt7wH3HALKdoJ+oCReBCMM/mQoKMETsfGRebqcpQYVaUl4p0jleN40+JSKveo7UPnK38CZPazYRsOEHfsIrCK6V78RlYuvPvPyYQaPpYGEz0VFdf5ZfTdAmMoxhadZg24Gs2vZOZL/VgFQZpSQmSoQJFBix1fyX2ZZFYuhMDHZ1JJ8DPizpsENdcQxXROYo6VMPghSOn4RmhbKOYySGGGii/GBrQcghHm8GwdZHhBBUJpcNXhOcohMNUvEa9TUA7T662cIm73Utl4/J+EsOUlrg2LJVHHjibPzTKC88srr+VE5FfRE6xd/8RfxoQ99CL/zO7+D66+/fuBY/au/+qtimvBbv/VbeNpBENFWtCbtfi01RVlcXt/aZV1wCYq9DtwHvo547uTqgLntwLn4ahRf/KrzXibdqIzxTfLFosyqf8+tqhGkDTcdQgwOwSeKpSkVYVbKygiB1sxhiP5iU8nxTEOkcxGZBAKhiM0dneOeGBVkODacujIBOL1U6r2ac9HtEjyjBBTKKNcbcN0hDPVPomfWVEiryIoSZTfNn8t1xUjJ3QwiLdUULnz5ZnG/s8ZH02MBmGn3m2g2EstE98hJBN0uCt15WH4bWuBKc7kaD8omOkKteRiX7P1rPHjpj0hAagZgOKeSeU+0778bvQfvE8liYhUGQIByREr8go4Lh+DjgVuQvPx7ZQCfYI79+8pyH9X7PwNj+pBIAXUxQNBQGK4i6rvoL3ekwbdqJfTiojA5nAeSY8dcI8tANE5TCEtCS1e7bAJpyhtpK26r8x1HMHdeCn1kXCyaoyBE0V1Ab2Ya5tAFZzTPehLB8Tvouhq+/FBZOQPShM8Gto0DuzYAjTSbho+xoeYwPiVzBBc0+ZP8HII40cslYsLQfvO/hX3kYVjHHoHOOaoNG9HfdjV6jW2onOPvkHhC0IggtY5WuyqRt+lNA2VDlwGhLNcnm1PKCPyM2eNyeB6yxj9zGOTzzDQydV6ZCQIixcGHSgE7yt1iLcvUISBJs7IoO4t19CIbbtcS6V7PS687EyhbroDxs/NAGnzahcuWZtfhmtdkNuPpO4QbOu1YPREMo8b6Esw1E8w2YzGXYJE9GqvrmGzQMfGF2QzklVdeeX2r1Uc+8hH8xV/8Bd7xjncMHqNL3MaNG/HjP/7jzwwIeuMb34g//MM/FJs6Fv9QdzodvP/978db3vKW896AvF5YJRKvK14Ka8uFCI4dQMyhd9uBtekCGGNTZzh4+EGMh/Z1cdeDLcwvh6hXDLz0qhquuriMUvHss0P2BRfDe/ReyR9SmUOa2GWT9WEoqmYlsEZGOfWAsN2CN92UxpXObeLO5qsMFJlllzGLJyirMXQ4tdLjskCDbtXrozA2BLNoY+PcbSj7izBjD0PuKVmpwdkON4JPW2e7BF1rwiLz4fZE/kVTCFYkdtJqPuSMVREAciaKMztLMzA0VwE9AiBNFxe4mGCGR4JBl6aDcm8WEwv3Y3ryugGb8NgsTROA7WMxOnd8FTENJFa71MF5pfsdpYUMcS2vHMHhLtDxFGiolzSMnbgHzt474dG+OopkO4yCDZPMWakA2w8ReAH0UhVmYRhda1Rme8S0IerDaZ2CW6oj0gow7TJMry3gVppo5YWtwJnrCkiMyjWEoWqxHdtA3COoZCO/ZsPjCOXH7kL5wDegt+ZUcOnoVrR3vAy9jZchiDTsOUmnNOCa7QpIUBL34guAY/PAyWUVP0TWwgHldyLmWgUhTgnuRS+Fu+taOZaOJdM20AIF3M5mWMPZI65jrVW2aeoyB6UuxTPflDE4hDNuZMuyCUzY41NSWS6stdamMxwNBNS1yPkb4Y7Eilrl82T4kgzK6vW0GvLL089tYVisTCOl9uCsfmTCZkaWzpkdJXHLuB4CLi8y4Udq58gorXrmpd+tUS1wu+LEGADQrBplHUudWM3LnXbpy7YkysSB5gmnlpW9OMEPl+JzZmg+Qt/TccEkZ5ByIJRXXnk9NysPS33itbS0hIsvvviMx/kYn3sydd4g6Pd///fxbd/2bbj00kuFfqI73IEDBzA6Ooq//du/fVIbkdcLpyLfk+ZXr1QFDD1euV6Mv/zUNO7e3UHfZfenmrD7H+3g8l1l/Nv3bEC9euYlylmg4rWvQetrX0b3yDGYtIsOXLFj5tyMMTImyfTya2BkBMnJWeiFgsInvDcd9JVNtkxo6ykIWhuEkv572i3s4kgdhdEqkixE5rQSmVuqC4tbTdijE9jq7UHf19DRSujZJZTiloR2+idmELdaClywyztyBHqxgNLOC+G8+DWDLB5nSoEhslkEcWJc4KtsIGmKPR9muYSi5iKJAmiUNWWbn9p0CzAiiCDqSxIMLz8qIMgJOhha2Ie408HMfgvVwgx6j9wvr2V4JYFTwvdnQbWUSomUMFKzJKksiY2ytjKPrV/7OJKlhdSGWYGAQGR0gYBHduxJECJprsDu9RAM23BH1HyYvXQMqA3DilxElGhVJ1FyuwImE9OBycH+YgEGnyeDN7lVmWKk8zpuu40EJXQLo4gCBcyYYTN0z6dROfB1cSqLizVhWUonH0Vp7gCWr34bVi58pYAGzgpNDVEal55rG7hoI7BjkvNFtKCOcXCGDXyiMnrW6tHSs08AEkYJTDNB0dHQozO3s/5lEggaA5P11Lwju7YcEwXbRBCSaQ/T/J4UtGScnsZZJRsFGk60lOSNYKpE6R8ZnZgW1GrGq+qEOLnQxXhJydGY5WMkMYKYduUKmGS7wOuWDnfK801VxlQNAk3X7CmBTcsvoGq7YoIg130Kg7zIQtvntav2jT8XTeUKx1ygtUeM50JAjmFh9DTabPOIhhOLyjzidGOELPuIluA8L5RzUmI4OJbMdIpo1EHb8ATD1RdmQ5BXXnm9AEp+CT/Fv6NeoCDoqquuwgc+8AH88R//8brH+Rife0ZAEJ0YHnzwQXzsYx8Tz26yQO973/vwvd/7veuMEvL61qnI68OfPYpgZVYNifOOvV2ANTIFe3gKusx2nFn/dNMCvvaNZdjwUbYtmT9hI+d6Ce7a3ZKG5we/fQJjw9Y6Bmlm3sf//eowFvZfi53JIVxsHcPmImBWy2hcsA16pQYwrHJ5Ad6J4wh7rgIDBlmErjR2klPDJj9baNYVss6ijNNpib1lXLqw6CwgSOae1shEoyCAd2gPEruE/uYrYTUckYclfRO9E7OIjk3LflKaV2wUBSQwkLR/cgbWy8vISIKJf/UOTH/sk/CXV5CUa9C9roSmCsggGAl8VLZsFUYoNqpIWvNqe0QeqK37JSsQkyYCQQ8jx+5C5cEvwegsA34PZmsey0mg5nYMDZxcIogQ62mZQbIUa5BKoFZGLxnImsRJ7YEvQmsvKwMKro6giwCTbms+5Yit9K0KQWiei+LcQdgr0whq4wg3XgRt56Ww7/sijPYJuMVR+MObUFg+BqO7KIYXEtrZ66AwPo7Krq3oBJrYQWtRgILbRHfbtQiLDWmA9QBozDyCysE7EZSGENiVVWlfqQ6zPY/Gw19Ef+oieOVxAULHFxMBQmuvNbI1MyuRzAlJnhBZFZWKuv46SbOmKDEraAl2TGp4bB5o95Wkjuvm+7lto1VgUo1lqWslTjDfTLDUsxGFDLslTCG7QcokA0Aa6gUDtaWjSNotTJg25oYuxLJWE2e7jIkhKzRScrG43BM7bYVI1Xp4Y0DXAjFtSBIDYZyA0Ier8OL1aE2CYQchv2feF6AxwopXgq1H4pYnOUCJAT9SYUSDzKXYgBdbKJk+okQxR7L8iO/hB9HG9klHDCTWVsHWcdlm4JHjKvB19XOW5hbpmoBS/o6gEx4vj/XnTYPrJwoI5SrtvPLKK6/nff3e7/0e3vrWt0pY6stf/nJ57I477sDx48fx2c9+9pnLCTJNE9/3fd/3pFaY1wurwn4H/cd2I/HSNEMJpwwkw4chn+GGFkqbL4KeMhvNpo+P/tMC9j4yi7GFh/CvcBA100ccWThq78Be8xLMoCoA4ev3tbC4EmDX9hJedW0dF24rYm7Rx2984Chm5jzY1hhmnQnc5l+Hl8QP4QbvQQTtPagOlYT5cY8dlcweWmsrgLLGpjmdJmeDrzZbl+Y/u/WdPS7zO3Tcov12pw+rVEBi28rO+XQAlA7W6JYFo6BkXIHrwjryEDA6KWxJtLSE5QcPwF3uIY41RGYBtmOgODGM0Ze/CLHbgrfnQVivnJRlO2PjsN75fej/zV9AX5yTPCIxgiATFEVwRkcw9uKLECwswN64GUmhKCGiGauWbZ/GbaSFcbuL5t49MI9+BR6d6opAoZBIgyz7HEeDu/NsKmUpcSiMEDOWGLQZ1kYxv/nlg7kOq7uI0vQehIUqzB478ow+YCOvjjHBlenY0GzFRMRBiNCi/7SOYGQjorf9W2g0sKiNwHrwZhQXpwE9RnnzZiQrc9BCTxpfw9ahxz14u78Bv7YJjlWEgRD+xA70Ln0NhkM6oym2oPjY/QLkIqeynujzmOMUwGrOon7/57Dwiu9BrFsiiTs9l5fMzoFpNSN0FvLnTOAsbA0wNayjYMU4tRSg65Lx0OAYJraOGgK02KRnAOjQTIzFdgxdN2HqJWg00EiU+QDlddWiifLcUbQ/80+Ym52Wa1esqmt1bH7JDUiuuxGJRiYJMBIfc0uuAqxicqDAGk1AuDwZN6MdO5+hQQUlo3BEwpa5zYlRRRoYe/r9xEzaZqWGB8wJCkIFuBWrtOZQpMDQj2lMYsDRfTV3ZBC0GCgXVUBqgUmrZykGotKx7/hCIqGpZL78MDNcoG03GSxgpacJwKyV1ofQUh3rBudh+5hXXnnl9YxXbozwROvVr3419u/fjz/5kz/B3r175bF3vetdMg80NfXNsyefMhBE+RtDi+bm5s6wpfuVX/mVJ7UheT3/inIW98R+cWaTpjsKERw/inDfXoQrS3LnXq9UEL7yjai/9h34/FeX8MG/nYYT9vBW7SZsxin04Yj1cMnwcVl0H8aSw/gcXo/ErMNKfCDQsPcQcGLGw3turOK2205iZdZFvV7BpNPFiNHCWO8INqw8in7QhG760BcDGeIn4LEnxiVk019YFEZiAHL4v3QWSFiVdH/Y9nOOReUZKQttOpeRsSHwCPsQWZZc9RkQGgApTYb2dcdWIaBcrlOGvrKApLmIfifAwn0HEKx0oVt0rbNgFgzoxRJ6pxYw99V7MfGyS+GTQXrFjTLjNNcE5l/9fai2W9C/9CmE7Z4Mqei2BWvLTlRefi3MDSXEx/YhWl6ANTaO2Osp2Vw6RyQASNPROzGHxQcfQ7/NmagYeuijH0XwbQPVqSqsko2EAzVBJI5iNCpQzmSxhJkKK1QbxqEX/zDc8jhK6XVQWDiCYvMkDPhKSpfOzGTXiABO2ZC0MxZg6SApD6FfmYLjtRD0loDSRkQ7X4Ro+5XwTh2HGbqYOvBJxNEKYFckn0jGuPpdxL0uCisn0NtyNVq7Xon+xsuQ2EWQYOHqljqAsTIN3yypuCjp2EM4c4dhtBZI1UEPPFQf+AL05Tksv/TbodUuOENFwIF7xbSkbnqJytdRIHn9i8kr8pGup6HZ8dDuuijqBJqKcbRMHXWnAENfdUJjps9iJxYmRAEj/kpWskdaW9O1YHPnKOY/9beIul1YE5PCrPL5cHkJvVs+h2Fbx/Ab3iTbdHzWk9/JlMdxvmkgaUuULTVBLPeBLm9BYkEnoE5lcBnBycs+O2WnfeJRNH1hdfSU/ZHZpNhAxy/QO16IPn6sxPxhACh5RZDvtVA0Emyb1FEtmQJqv1kVbR27prhtOu55TAH5TGLI5dPPhIvhObItJWPMam2OUl555ZVXXs//mpqaelIGCE8ZCPrf//t/48d+7MdkBmhycvIMK9ccBL3wSxpbAgIGWPaUuxebMv/Be9F/+CEkHm+bqyYxarXQ/OT/xYn79uNP9r5ZGsW3Fu7BZckxtMwGErpPeRZ6EdDUK5jELL678HlgbAqmHqJQtNG1R7A43cLiX53C9lYP23SgpDkoFEqwwz7szmOIDA0r5hC6Rh2NmouErAmla30P5vAINJ3D+mmXl97ulhkiuSOuQ0ud4thIir02GR1xklMNolUuqPmMiJkrAYxKSbYdnjIKkGkjh2GsayRoNKfzOzIn1Tq5iO5cF0GrJwBIwJUbQAtWoNFxbmQI7vwSOifm0dhVVEYAhiGzKiL5uWg7iub18LSqOK+Z9Rq0QkEYD94hL9SGEXeb6FFipxdhhl01+SFAKIHX7GPpwUPwOFRfNGEmAYyAfIAhx6h9qo3GtmGZO6IkUWEGxTgQBFGq2Np8FY7d8GOIRzaCuZa8+17oLGLs4E2wvDZisn0yMLPmxkjmnT0o5YAWGY44tqFYARYWkSzNQRtV80FknXrD27DDewTJzDEktoPIKjFzVY6pblYQV0rQV+blPAedLvS5Y4g27JRjRvkTD7FZKqAcLiIs0NksgT1zCMbiyYHDGjcztIqwF45h5Pb/i+FtPwJNW59hRecxlXujuDXZs9RVT4DQ4PffanSoH4Y4Oe+KDM62CDzUvBDnfRbojU1pW8VJnc0UYMmYocFR0nUUbc74JJj76q2IWs11wbR8nuYfweICmnfchtp1L0dcrMg6MmmeAj+r7Ix8Iml7ztDSxIQb2mIdzresNT44bUJuUCXTQ8X25JQy9yddCwpGCNPpoROVECUmSo6y4Jbrw1JffI9t6tg6pqNeOf+AUwbx8jqvEWulh4qzQJzXEgcQaMLWZSCI1zCP70g1R0F55ZXXc7fUX9mn2BjhBcQE7d69G5dffjl0XZfvH6/oFHe+dd5/jX7zN39TUNjMzAweeOAB3H///YOv++6777w3IK/nT0VuD/1jj6Lz6B3o7rsL7vF9KbBIEM6cRP/hh5EQQHD+xqL0yVa3Z+MYxQPfwGutO/F9Fx/EqyqPolbVsLHuY+dwBxePtlC2lJtYvRBhM06iGLbgRhas2MW2E7fgRb07ZB6kG9mYsFuYcg+jsXQQ1vIpAS+xWcCo3cGkvSIhkWyKyMjEvZ4M/rMMzqytASmBUUKvOCpD/lnDKEGc0rTS5CFA4PowCzbs4YY02JTMaWEojIdJh6xSUWyzydqsy3ORBhnCoPQX2vCWOojoRc3tMsmE6NBodBBFCJaW1XJNE53Dx6E3hpk4KotY6a0GdvKXgDk8JOyWGD2k54XNJvOHlpwpTFcvQbs8hcCqDgAQ2/Pl2T66UQGdyYsVIRNRghgJyyXL6PtwGZSTzg05tSIKtQKssg2rWkL3khuw782/gXBYgYRambMYwPjx2+GEbQTlIRiURPLYyTxSWnJIlExJmDUO8FsFuUaYAaW3FqERSB9+FNrKnLAI3Ay6nQ2duEcAn6cVBexlMyqhH8KbmUV/YQU48BDs2z6J4mf/HMV//AD0RbrvpS7jF10JJ6HGLYLptmHMHkVCt71+D+h1gH4f+vKCZBbZ88dg3PHPWDy5tA6zZc7pZFA4o2OI09qA0FKzO2v+5NCkgUyJFyrJ1wC0aBze56QV0Oy4ytY7BrxwvUvc2hKmhO6Gh/bDbAyf4azIMhtDCJsr6B/cL9I9Bp6q5aqw0cHlPniHui6zbCFeO1lucDbflcna0lfLF40VShZleiooNZNw8NryY12c4ih3I+ChSQEB4GhNw1iVcj4Nm0Z0XLrJwGjt/AEQiyBWHcc1+85fM6ZyruNW8nMvN2PCBF0vQa2kiXlCXnnllVdeT7x+53d+R/7e/If/8B8Gj9EI7Sd+4icwMjKCSqWCb//2b8fs7Oy69x07dkxmdkqlEsbHx/GzP/uzCGmvuqZuueUWXHPNNXAcBzt37sSHP/zhx92Wq6++GgsLC4PvX/SiF8m/p3/x8WeECVpeXsZ3fMd3PKmV5fX8LErb2v/wlwiPHlQMhVOEsfNimNt3DJihcN8eJK4nnZRYVaclMyFsdn0fb7a+jrB2HTATInQKqUSHmSMRtje66HVDFIwIgU9nLQ1B2YHVnUHIlEvLRiEJUDF1NByPojXA60LvucLAxKYnA98WAiSJtWray0afttli1qCCOTmPIgYHhg2TTS0/pOykTG47Q2/YPWZJjRq0YkmcyOjQhkIJEAe8tdbCqckCpWC0cBbLMpVpIxlFSy3VvYVr5HPSWVJBZCD2AzFFoGiIbm/ORVek7IGS+ohbmF2AHvnQQj8NMM3u1icIggStlR4WN12B+c2vhd1bhB10U2ODCIlZQLT3r6DVLeiFogAmyuo4p8MToCyoE3ROtWA5BgzHhGYZMNdYgVtGAicdXmfT7K+0MRzNoz63B0llCNZYDK09K5hYcyxl6U3HPg7AZwAoTbnUAk9Zk/d9FNwTcoztR7+G5NgjCHe8BPVXvQ0Xb7ERP+DC5TXCs70mTydYmEPS6ajrTNfgNjZCp/Rx+hAKN/1fdN/07xDpDRQvvwa9fXfDXDgOLMwDLp3maBtH8iBGbBQFIton9klH3f78/8PKPffBmNiIsetfhk2vug5Fq5QCnVhZjqsznjq3rc3v0eVapkW0pUfClPA48X7A2qIVdhAw0yZUIAlqBotGBaeDHGGaAsoQI2hWJj5cXwK++Xt5xcP0cZpEGDC1MHVjU9sqmUHCAq0CNU03wdNJCRwPrbw2AYqWkoFGUSIALbvKGXrKZTI7aN3+SEgrgYiOkhUiNmhqoGGspmO0+tTl9AggPC2dlceL0jg+1feVVI6yOIKjsaqOreP6GQxbXnnllddzqp5j7nB33303/uzP/uwMVuU//sf/iH/+53/GJz7xCdTrdfz7f//vZR7na1/7mjzP/FACICrEvv71r2N6ehrf//3fD8uy8Nu//dvymsOHD8trfvRHfxR/8zd/g5tuugk//MM/jA0bNojr9NmK7xkbGxt8/1TXeYMgAqAvfvGLshN5vfDL23s/Wh/7XyosJasgQPTAXYiOHoL1qtdLExYuLaZapTPv9DKpnqxEOWzBMluIbQIENvNqPoF3kiucNbD7kl4vMi5dR6MQwZxegKvZQGLJa0atLkxxzQIi5v6koSEc9jY02keHMBMfMW2kBcxwWenvBI8NZaCAXAKUorbkyhC8sHOyihw2YEfIOQnFrlCqFPVchJ02DDbddL9jt8Xv0w6Y8zmay/WpUBMJTA0jRJaBsB8gZjYOZ4BkAJzzOXReo4Nadlc+QdhsiutcacdG6L0FRKcOQZvYhk3LD8Hfcx/K3gIMtwXz5G4EjQ3wqpMIOeNBB7DWIiLNQD1exuSjf6nuzttVLDYuwuLQRQj1Airi98aoHw3odRF5oWosDWXVzBkgOpO1TrbQ2DYE4zR6orZ0EOPRtMroefB2FKf3wgk7QGdWDBkCpwSjUUfY6YscMuIcEWdTdB1GtYTQ9REzHNUyBPB5rb7gRBazdrgpjhWhdugWDG2I0bj03ZgpjaRYkedbXVfC7HV7gG2L2x4NDRLdRGTo6Dc2ozB/HMGe+zB03esQF2rovPb7ULvto9AO7k1ndtSyyEbFhgWdjFASQeO2EcTOHwNmDmH+0bvQvfViVF9zI8wNr07nWljZH5dsjkyBoew5zgspBH72P0IKnCdodj0EQYSCxlwdXi8GEp1e16tOiMSoRq0Oq1qWGSijdCYQij2CfwNzfgNBqMHSLOUeqEcCWrhosjcS5SuXq6ZyhqDA+kDRt8YK+2zeD6s2G2vlz5S4cZ+BMNHEmGHHJg32uaitf0ENlYHj6bzR2sXzWBVtZiYlmGgwH4k5T+orr7zyyiuvJ16dTkecnjn2QtVXVs1mEx/60Ifw0Y9+FK973evksb/8y7/EJZdcgjvvvBMve9nLBBc8+uij4tw2MTEh7Mxv/MZv4Od+7ufwq7/6q7BtGx/84Aexfft2idph8f233347/sf/+B/nBEFbt2496/fPGggiffXLv/zLsuNXXHGFoLy19VM/9VNP5fbl9SwWm9XW331wFQCtDetgLS8ivO8uWC++bmAZLNknnCGRF2TSskQYF/5cLplw2RS3WmJ77ItrFl8fITEihVOMAsrDdTSSJVhRH4ZmCqVqayFsPVTAJZt3obyK3SJtuH1XzA+yGytkqMTczHWl4Y/F7UzJynTblLvolBDxrndcbiCwbJg+m+IAcRghJpMiXWCMuG9D51yQF8kMjzBGqb2wxsycUkFma9i5JrI/BBsdYUJUl6nBqtjwmi7iMIHB8BPxj1bL4DEyqlUM33AdwsN74N53O+JuF0NeAM8so1vdBH3yQjizB2EvHYfeXoRbHoUZBbASD/RisFYeljknAoPAK6LUm0OtfQyHN9+IcOvFKB+6D4XWUQTdptw+l2Z7jVzNsA0BQ0Ff2ZyzpNGna1nkYeyBTyOYnkHcXgGqQ6g3qoi6pxAcPYy4UIJRKyCuDku2j+F2JBDWEOtzE3qrjbDrCqvnNXuSzUQ5XEx7OqsAffY40K/C2roZvQfvgf+yG+Be/ErgGzfLsuIi5X0aQgIg5lClnbtX5h0ixcJwMJ+BsMPTD2Ln1tdi93FAH9uA6MVvAB64m7/KlVOgaQtjp68o4M5zKcYP/F1Wriv80m2jNz0D40v/iPKLErSvfO3jOu4I4SDyOLrhMXw2OSsLIYA3jNHu+PI8B/99zplFEYykr4JudRtBrOZdJoaLqL/kJVj+4udg1BviPJgVz5s/N4t+YxP6Gy4UE4Z235LPE+d36OCmPnfJ4GZEN6ARSQEOL9/MMnwNwbI2nHTt1isglYEhxS6tv4FJh0EyL09O7vbNqlEGhjg+1kqDZtMbG/x4kf0pFzTsmMjBT1555fX8qqdzJqjVUjPbWVGCxq9z1U/8xE8IU3PjjTeuA0H33nsvgiCQx9cGlG7ZskUsqgmC+C8xAQFQVgQ29BB45JFHRK7G16xdRvaatbK7x6uPfOQj4kfAbWT9f//f/4c///M/l9xS5pQ+GZB03iCIK6Qe8NZbb5WvtcVGKgdBz/8SS+N+B63P/i0QpBKu1Gls8H06RJOcOo74mpfCGBlBSAe2KBKQkS5IZGOWOFIpxgTFEqwNGxB2ukC/C8spSo6ITflOGMCEhl5lHJP6HAyvg9DrQQtCGAIWYvhsvExDgQi5884GOFGW1RkAkmGNBFrEnBoO9yiLYmn8TRNG0ZGGX/bBC2jAJY1+YBUlX0jjXFMaKZkBKa/VhcEMnIIt/5JNknBM10PQ7IiZggRpUuJkmzBlKt6EUXBglosI2j1Zr1Vz4K+4woxwNkgsu+mqVShj+JpLUYybiOa6wjjFfc7oaCiEHZitx7BSvxCtDVfBJvvSmZP3WEULxd6MgDw6oYmhQxzADrvwdAP19lGMLzyIoJbACZsIO710O3kOlaEFzR44k2TTHS6CADU5bpxL0k3VmFMOtu8+hjHBH90qTWmiR0C1Aa3dEsAX6iGMkRLiUgWWRqc4A4lhIig0YOg2kmEH7tFZ0jmSJySmCKWaMjHQHYTtNvzFZbEhdw/th3bhqzC36w2Y2PdZGL0VmfvSwkBkfswGoqlBvzoJx2SAjyENvGFZaJiuNMps1MOswa/UFTgnk2eaklMk1t8CgJT9W1IoKzknv7dtJJ6HULdh7/4qzItfisiunGEYQFit5oVSSZmuI0zogkZzkPUyB14vrk9wnaBg0QxBURp1TUPbpQRNQpXgJwYMw8REXce2cR3JDa+Be/gQ+gf2wyiXoZfKYvHdW1iCVxrC8jVvkzDYdl/NA3VjgigTjuGLNI8bzTmedmCL7E4UaurjMJDznV5r/T34UQljU9zlaHEt6UIptldARFmsNyr2ugDYp7K43IungP1IsNQFepn/A09tAdi1IQdAeeWV1/OwnkY53ObNm9c9/P73v19YmbPVxz72MZnrpxzu9KIHAJmcRmNNwB1zDCcm5LnsNWsBUPZ89tzjvYZgrd/vf9OsUcrq/vRP/1S+J6BiSOof/uEf4p/+6Z9ErvfpT38aTzsIejo0eXk9d0pmLpam5Ss6ul89mH1A15l8rQaKxMuLKF14AfzHHkMScC5AJd0PplakYwLsqUkBLdrwMArbt8M7flykWUZMxojgxUBSa2BoyBLZWn++CYNDC5RWiX4szeTxVWNHiZlO9y2dDme+yN80QxcgRiZnMAgxGNxQO6Fmb1KpHJtBy4DttZBEfUQEfWQK4lCWI0yPoSMKQnitHiqNioAsMhnu4oqAm+x1Im2jaYIfItIsFOoFwItgDA2ht9CC11YZOkaBOTmcRaIbXYzCaB1Tb3sdKpUIyfKsAh8hQRagETjqBszQx3D3MPobLodX3IjYMuBYOpyYbnMmAs1GkoJPzjoRKFheC+0OUD3yD9DnTyKeqKLZ43EKkIgyT81RcP+dKoGhKUYJBECUivE4yExV3xWQF4cWvC07Jf+GAII+D1p9DOj1oOuBvM5xm7INnF9S3TdgeC3EhgPXHkESTctslpxPwyROTAfydTF7CBYXYdgTAmqHK8C+F/0raLwm9t8Eszknr6WbGV3ufDeG2dot5wdDozDHpySvShu9UG7IDFcSHF8EkuEJaARBpgUszQC9tgJ5BOkERRLsaihQll3eksUUIilXgZk5OKcOAhddPTASyC4nmdtJHdZ4+MnuDNccFPQIHm3GdQJ1NbwfpayfGGqsmZvjMeAAv+fr8IMIQ4UIEyOOOJ0JW1etYvK970Pz619F+767hSHsRwZ6u16G6MrrEda3CjOShYrys+dHBsKktGoVLbbeqx/fDADx0HFEbvD42nsd6cdenN34GYADA64CodDlvWRR+XkqFkwM15/esGxmJl2+RRlnNHtqu0o2MFLlfuQAKK+88sprbTFEtFarDX4+Fwt0/Phx/PRP/zS+9KUvoVAo4Lla3E6q0Vh///d/j3e/+934kR/5EVx//fV4zWte88zlBGU1CJR8mu7+5fXMV9RtCgBSQaJZb//459fod2AWLJQuvQTdhx4R4T5lcKuVQHMcmJWy+p5OWRPjMIcbSFZW4Loc/LYwHTbgdBZRMbvod1xYvWVoBXVHPhte4HuF+QlCYS9og0z2xSfbw1yVTN7DBlc6PTVwnoEiCelMn+PjumPBLjsI6NjVccUqW23x2q2nxE1H5PsqM8g04S634Le7AlZU0CpfqTpLOW59F8HSEtx+gv6p+UGYpIAObhexTdFEZaKOyeuvRmHnJIIDD6ll6XSN6w8i1OR9ugk9cFENFtE/toz2Yweh9TromCacegnW5s2wh+uDbQ56HnqP7oPX8UTOSJtugo7iUAE935fwV5HA0QDBYb5LOnMTxrDLvKOfwG+24S23RW7I7JkIFpyZA3A2bYJmFaH7fYA26VEobnM875pniswtswiX6yP0EZklhJE2sP4myI0MSrdWrxMe16hLqVwAc2hYHOIm6sDxra9B+8JXwWmdgHfkIKr/8KfQmh0x6CAAjLnM44cBGncYBvq2iYXP/TNGr3wp5owGerGN0qYd0PbdD2zaCawsAEvz6ckwVJ5SkSzQKjBR82Q0iXCUBEwY0URmYDLQQyklwTtBBgf0p4Y1YW9qRR1hVBUXuG7PH7AmtMXu9IOzUi88CjQU4L/c79NZDbNaRfl1b0H/qtdhcbaJJc+GXavKPIzRyT4eq0BHqThT04vMWGDNzwOV5pr7GdnjZHb4GEEYL+8M4GmGhb7MHXmwdMasKglcteRgarT0tEnh1h0n2ouXIF955ZVXXs/7yv7IP9XL5CxvrbYOBJ2r7r33Xsn9pGtbVjQ6+OpXvypsyxe+8AX4vo+VlZV1bBDd4WiEwOK/d91117rlZu5xa19zuqMcf+Y2fjMWiEUV2uLiosjwOIP0n/7Tf5LHCdzIJD1jIOiv/uqv8N/+23+T0FTWrl27xArvve9975PaiLyeOxW2FoS58WIHbXsYFfBWOjumczQ4zDhhgxRFKIwNIdowhmClhYhOcWzMaDhQr8Fo1JC024g7bWno6Pil2zaM8TEg1tEKHew+OoYrkjYMrQ2ruwKfczIFOqzRzlk1nxkoS42KZfmcM+FdewIb6eUCurRpKuBUXNvSYMfM+pf/0q6Yy+Pd+pIJq1JEOK9YjDOKxIcXSAZL0OsL6ApaXXmvqkRkZFwgWaksK4fzK53pnri/OaIfg5gfKBaCWUsRnOEa7KE64vlpZbqQ2ktnoGQwqE7Zn+dj5e4H4c63kCSRmBewge/PLsFd7qByyU44E6NiK9159CCiZhdmtaKc6gyyOypkk1JAWnSbJQ7hZ9JG4hOVk1QarcBfbsOlP7fMCpmAU6ZHJtBaQHi4B3vTRmB5TiSNdGaL5RpJgSpihGkgKFvlkJZhSwuwgmWEnprP4nbT2IFNd9Y7KwbPhzUyhtJFl8jfhUs3qTv+s00dXWcznIW7EWoWTLsgRhhyhNy+zCHJfpYqYnCw8E//AO0Ln8VwfQSdlR6iIBDzCvROSeCrubGC5NgBMbPQ7AJgr94hk/MT+NDGNqKghejT6p1uhnvvh+Z2gEIZ+taLYaaGDmQ3L91kYqS6+oeM1s2jjRKGa0VhgCS81CDT0xZnuHOVUtSd+QdxuZPg0FwML7DgGyPwCVA8sj+04gZcn9xMZtBwls+1ABtKxpKUlVKnSwwpuHscUUvosqZeT0aLx5+ywlpRg2UmCGPOMDmoFRzoGtkgDeWiLi53eeWVV155PT/r9a9/PR566KF1j/3QD/2QzP3Q2ICyOs7/082N1tisffv2iSX2y1/+cvmZ/zI+h2CK9tgsMksEOJzZyV7z2c9+dt16vFx8DwABAABJREFU+JpsGd+s3vCGN4ibHOeL9u/fj7e85S3yOGeOtm3b9syAoD/4gz8QYwTa45GCYtHdgW5x9PKmLi+v52dRmhW7Xfm+tbiMwuVXQLv5YKr9OQ0I8Wc26I2GgAK+Jmq2ZBDe3r5ZGiY2dBzMzuyqmXgfNNsyn0GmIYMynchBKyjiQHMIr6i64nbFpo534mOZYWCmTsYspG5cBEVs7ro0GlDStoyZFJc2vjyV0GW3v9n4K/tqtuaaMEls/IOuJ85oj39wFDsQ9Xz46CqbbVloxtdkh2XVCMFrBQh7AaxyCVpM72hdMofkznsUIfRC+JTIUXpF22il91PHlZ3taQMb/YUWerMr0KtDImmL7SIMhp5auriydQ8cgTVch7+wjLDdEWDH7QsoY9IY0gkYlTKsfoCw7SLo+Go2KmXKyAJRFqebQH+po15fKMBojKC4dSd6ex4Rg4qk10Vw6IBYhdOIQh2GBHa1KI0+i0YK4vDc9RGzs45j0Lg8jgMhg2KnDN3rIeQUGOenCBqbLViNOsa+/bvEypvFw3D1NmC5C8zPdtE5fi/8sY3iDKg3Z4GVeZX7QwlhmfNFmszNRP0e+gcPwCgcR+PSK+BHBfixl86hAYWhGvzSpejMzCMOfGEzE4tsYSxgLymUUN44CX9uGnahhPCrfw+dNwjEICBBXBsBXv5GhJe9HOWCLjNSZysCGn2NT3alZKNPIJyaUdCGmgYI6hJOZPsL4lqwWrR/JgAKwkTmX9pqzE1c0jLVJ0EKlaOnXbLKCCT9DDRKCa7ZbmClzxDYWMJHKSMbqwJjdV2AUNtVgIv43kllegRCZ7L9OfDJK6+88nohhKVWq1UJJF1b5XJZMoGyx9/3vvcJ8zI8PCzA5id/8icFvNAUgfXGN75RwA7JkN/7vd+T+Z9f+qVfErOFTIZHnEBmiYYG/+bf/Bt85Stfwcc//nGx3n4i9Sd/8ieyTMriPvWpT8n2ZUzWd3/3d+MZAUH/83/+TxlMov93Vu94xztw2WWXycBVDoKe3xUHHqJuCw02hLaN+OIrEe95cB3wGZRlwbr8SiBRttEJZVapDEqic8SGl3eMUxMFOnL5zMNhk8WGjwPbOobGarjz0Trcjg+9xrvZhrAWSHrSbMm8CKmWAeDgNDZnV8hAqKF+nZk8BCmeupWtcnaY7ZICicHwYSYZUi0iQVDoBmIO8EQqoANcBq5OrwxwkdGALkxK1GVYZ1HAoG4qmZFiyGieUBKWI+RcFO256fxFgwcePEOHXiyKBTJZLoZrcq5IEAqlZHYFYakGZ/4oQsoFQ87k9OGemEXU66UueBpC3UK/NI6y24Eek2myYVUc2AVDaAOvRRMEzlwBhYYDu+LAa/cQ+pHaViNC0nOBmVOwRkYQTZ+S2Z+QuUaZiQABcHqM/UoBFgc1CFD7HuJuX+RxkVORbffr26BNH4MeBAjLddi2JgCQLJc1NITJ9/4gypetzyfgdnA+qLSyjONaD9H4MHqJg6BSh9ZzoRHrVapwuEvdNoLFBQRzsxKOK3bcRw7BLJVRrTeUjsowsOnf/iicqY04dfPXMP25LyA5+BC01qJyjqs0UJoYg8n5ITqe9dvitBaMbZLzxuOoLS8g+cqnZVh06+tf9oRnUipFC+2eCdcL4YUa3CALU1UmIl5g4ui8hgunUukd6IhGBkgBIJFwZoE/WAVCmXQtG09jUWm41umNTJVj65iwKTNUhiJKibG67QzAJfOTV1555ZVXXlnRxpqqBzJBnueJq9v/+l//a/A8I0RoUEA3OIIjgqgf+IEfwK//+q8PXkN7bAIe4oQ/+qM/wqZNm/AXf/EX57THPr0oxSOIOr1+7dd+DU+2zhsEMQDpFa94xRmP8zE+l9fzr2K3j+DofvjTR+HPHoFWqUIbHpM5HfPiSxDW64j37AZaTdVh0Z1teBjGrothUirkERzx1rTK18n8CMjErKaq0LCNtsgGDC3hS2X2YKFrY3ysiJK/hG8bmhYLbObC2NUS/HZTAkYl4DRlapTzm5pnkS824syiGRqGHviIF5fYfqeNvTJcEIlW1qRm+EVbC4DUwPoTKWF6uGxKuqKzBKvQpa3torfYh+8yI8iXyfOIbnMFC3alKOYRkssT9WQAvzu9iNqubdDrw4jnpmUmRrMK0Iaq0NstxL2OAMyIhhC2g7DUQMQh/pNH4beaIv+SbQtDdPcegF0rK/MH3UK7PIXELiEs1GD2liRsla83CyZqUw3Zjt5iW2R6sk90vUst1Qg+hfHyA3izs9BKVbHGjheWRaPGOSiRHRKkMv8njNGda6G2aViAadjzlVud4OIErlNDOLYDulVEcuIgjF4L5tBGGEYN1tgYxt7+TtRefO05jz3lk7Q1t5MQxUoBvhuil3hA0ZHriRcKhY8hjxnBI4NifR/hygrifg/+wrw4q9HOvPPQgyhs3ISNr7sBk9dfi9l7dqNz712IThwWe2taUZcufhH6Bw8iWFnB0MYp9LxE2JOI7NXoJKyFk6g8eguG3nrtE/5VSqZsYriMIzM9eEEgkj5xVJMvsoQOmn3g6HyMnZPqOqcRgMqZ1QYGAVk4aAZySMjJqFkKhkiuZbI6MUJEgg4N8egMmD7+dDm55ZVXXnnl9fyuW265Zd3PnLshE8OvcxUtqk+Xu51eNDC4//77n9Q2ff7zn5e5oBtuuEF+5rYw04gMFL8fGhp6ZnKCSF/9wi/8wrrH/+7v/g4XXnjheW9AXs9sJf0O4uZc2mg7Imfq3XkT4uUFRC6H0lNXr1IFxq5LJJvE3DAF8Cvt+Q23Kw0s75rLYwQlCUMxqwiXl9MZFAO6MEcqotIPEuiJBqPakABHOqP5K20Zvg/bx/ByzUVQjmDqsWSkFAu0KWZD206XodYugIUNHAcZVEgP9GJJGKBgaVGBjkwWl7JE6vvsACQyD8S5D79LluVcUxRnKa4rDUllMy422anzXcZQRWGCzkwLUcC8F3aflJpRMpYgpjyu1VO5nzKEr8Eoalh49BjmojFc+IPfhd7dt8OaOwTN8xFzhoVzQk4R5oYtMJoW+m6CZGgEOLgHWqepgAHRWBILG0M85LVdcVpr25PQZk7J61zOpUQ+LIMhmhy0V/R02GewbJhaPSsWj3lK6dGWwNOANuLlBvR2W5znuO1s5o0CBW6UGab5S4aO0Avgd11YJUfMFNRsUyK23X5pWNYRjWyEXxlFbX4fRl/9KpQuvQLliy6WbX68ssbGUdiyFb39+2BWKsKUuKnLHSvmvJHjCPChmYaYc/A6LBRglstyrijJjPtd+NOnBsul+cHU9dcC118rzFHY6UAvOAjm59G+7z5Yo6MCGCqFdKYmnaWBPYZgYRr9o0dQ2rHz3J85scYOxUiBy7EtA72ggFCzldOeDKkpxpNXhWMlWOkmMp9DKdrpOJvsT8FS8zupyZ3M+YhFd6yeq5VVCG5WBEniFs9tf+JXfF555ZVXXnk9J4reA7/7u78r33OG6Wd+5mdEonfzzTfLvwxwfdpBEGmn97znPeIakc0Efe1rX5OBKYKjZ7MoxzudFrvooouwd+9e+d51XTlo9ENfS+ed7lv+Qiw2gOGJfegdPYiw11P5NwQrR/YzUgfG5BYBR1pcVEPunTbi/Y9Cv/LF4uyWlTIYYBu1RmbGmZY4gk4DhGoVUasFjTkrpmqSwyCC240QlEZQKIzA9hM47UU4fg9jjg6dbnKlMrrLLkrtBfitjjIQ8PqrUrrMo076RV3dAdcM6E4Rgeshai2uhriu3W+CJqEiVKMs80ucxWj3zz1Ffo6SRp+23DRcIEsiYC7tQtNj4S13ZdZHODDJDLKQiEnE2kRK2TC1L3EIr+Oi98gBfO3mY9C3vBpV6wI0jnwD2swxJJS4mRV0ugWExa0oLu+BFs7BaC5CYxZSSgHwlAlAm5hC0A8kYBQHHlEAlUP/NFEIPAEoBJCVek1YAbrIqZxRZZAgeU6GYrnEIICHKwpggCyejnhlUckaHROGke734ACpuSzKACkbjPqBhNKajinb4Vk1yROSgXynALNWQ7jjSlSuvOoJmeMQQDVe/Vq4x47Cmz4Fe2wcZq0Of35OGWDQnGPjZrhHjygmkCwlwV8aMCqMYbksYDlsnt0Eg4DJTsGYd/KEsGs66ZXs+ZTZkmvLopV5KKDrXMX5n8VmH77kA6krmQlUNDiwJLT1zF/BlIl2gwRdLxGXODpP06MimyPil4x76QRXKgtJbMYTJYsjWDud5YlSdugZMHDLK6+88srrCRZ7CdVTPbXLfCHW4cOHByYLnAl629veJtlBzDfKTBKedhBEPeA3vvEN0QfSp5t1ySWXiDUeHRue7eJs0pe//OXBz6boZFRRh0g94ic+8QnU63Uxd3jXu94lIO6FXt6xA+juvT8d6GezqwFLsyJxiys16F5XOZaxfac9doVubk3EC3MwNq4P3EosR7EcYnesGlwOpmshYG/ehODUtAzmJ72e3HnuRg76pVHUNo/DYkAo3bw4VG/YMENXmniXzfjyCvrNZZHLCWPDxpXNOxtzyq44JS9zOb4M9lNKZtC+mU2o3AY/R6W37rlfbORD2hSfJwBi8b1stONYh8aAyKINPbbE/Y1gi794/H6gWCuGsloGIs4uDXKWVhmqLHA2oGSsH6Kgt1D7xz/A6KtejLjZgj83j0iz0a1tRKAXYC0fR8ltIgr60GaOiDGCpltqXQSRUSwyL9tvwfB8eEstueOfWDaMIBYmhmG0CTv4KITb9BAX6c6mnPPS1JuBE53YVQdKVghd5QKJvIzzScUaUDABv7v+MNNcwY8QSB4OXf1iRKGHyAuhVR2Upx+FFrhpRo0mM037eqNw54ALxr+5SyiH9dtTVyC+8bsQ3PpPCE+cVGGvZNqSBM6WrShMTcE9ejg9LqHMBVHWObh2uU/MeDp+HItf+BxKF12MwtZt6lpOZ7WyshpD0IsFYY8I2E6vqNcVAwfzHBQ8535mF7uKAdJ1YWM428ObDFrsgeNlBTjiJHfW6y39d7SmY7YZo+cnKNmrQIgsEed6aJO9dUzDiUV+flUu0brzEtPZLcHGGk1GcglcXnnllVdez7/iDG6vx1lxSJ+feRPQrIGBq8+YRfaLX/xi/PVf/zWei0XQk3mSr61ms4kPfehD+OhHP4rXve518hipMwK4O++8c+BwcXqRMeJXVk/2QD+bRYlbe99uGKGHGKY0xzL/0e0ocBCH8JsrwnKoN6TP05Z5eQn6xi0pI5OWbiAuVqD3WtDCQGWtMNvG1KAFEfqBBbdnIWy68CsNzAxdhPFRE7YdwIeJYtBT7EPK3ASxriR2nSVp2jlropOtkmYvJXho293qo7/Uk6ZacUOKwXDKNizaPavhk3MWn2djnknqnnBxwNxkno4MMiHqewLONJdzUJZyMhNwQTMBcYSQIUG5/R6EypWOzTpzZQYpm6kMilMslJNRdja/hNY9u1Eom9C5XFtDyVtEi8dyYR6a24LudkTKKKxNZhFNhqPowLL11LHNl+PjjDSQdLuSb8RmWRp9Mb+I0Dsxg6hWSP0iyLLxbhSb6FTYR7ZNM+V4yYPMyeEy6pz3YQ5QKO50zC6SWRzOV1GfxTBQx5LcqEiylegGFyFpNaHXySBR55hA67XFTKD88M040vguDFdMDJ3DYY01swIcmAaIGTF6LfDWy1A8+QhGtSbG2sfQ2/Mook5bpGlily5zYDr0clnlRFEK1+kgorySBgTTpzD/j/8P8ac+LpbiNJagvXnxgp0YedNbULrmWqwUxhBvvQTug3ejVCqtu6HC8xkszKP6omtgT6z+vhEDCy+A64ZodT2xVbcsAy1XzeoYZJL4uaJVeeJjpWehUaLNtLYO7NGiulxQjxHkbJ/QcXg2RscloErlfyJ903HBhI6hVP7GWaKumwjrw3PLdVKKWi9pGK/lACivvPLKK6/nZ91www0ie6MKjcQLx3BYtMumycIzBoIYovSZz3wGe/bskZ9JT73zne9c1yQ8W8XsoqmpKRniokPFf/2v/1WClWihFwQBbrzxxsFr6YHO5+64445zgiC+/1/iPPFcqO7JEzDDjjTgRT2QoXmWjxBxal6gxWyci6uzB9INKxnZWgCUWR1EdlFAiu52oTEsM47Rn1nE9E33wptbRODF0JMQhqljeOwxDL3yaviFSQQJ4ISRSPAyxlbsszsdZThgFzg9I+5qJIR415yNOOVVvYWeNJlkWNhIEnCEro8+PX+hwS6nd/zX2GKvk2qFsTSfT9QEgUVgKLk6YsiwyuhkMjuCQG4Th5iKY3UUllz0l7qKcWE4ZRrMqtif9duV7T+PnczjGDr600uIqzYKozVomoFgdg5620NsFhFbprBkMvpBNV3BgFm0YTi2HOtMzsb5KK7K1CIkBQav0ohB7bcQAWLqECtglkqsGHwpJhOZcpDHl+fA0RCPbURYHZXw2uCyG+Dc+QXE3Q7i+ggMqyDALHK7AoR4vAQsEptZlEkmEjArlCCzejKHvsYYopFNKBy+D73NV2Jm9MpzgqDFNvDoCYUpOcokzoOhh7DfwcL8PJKhKqbe/k6ZAwqbK2g/eL9I4iRbqdMW9zwCHc77kOmhvJOzRQyz7R9+TBgjMndkjPz5eTR3P4D4td8O98bvAa58E8xjp+AdOAJnqI5ylY5zaj3Oxk0YfcvbB4YFfhBhbrkL14tEbuoxr4pW6WGCKDZgpW56vBAYvsvPIfO1Oq6m9p3zUhEd4hJxbyP4yWqEVtW2Lk5xBFR8plbSMFrRJGSVNV7XJLB0ZjlGN1VgUv25YVjHxuH1QCuvvPLKK69nv54LFtnPl6Iz3I//+I/jk5/8pLhUb9y4UR7/3Oc+hze96U1PapnnjVoYSkRLbHqAc96GxUGlsbEx/OM//uMZXuPPZF133XX48Ic/LNtFpzqCl1e+8pV4+OGHZXtJpa1Nu2VxHojPnav+y3/5L4NU2owJYnDU86laM/OoghbT6sNBgCFtVLHMHVLNGHtU6KkUTTXHlD/p1dr6D9ZATqMhtksijSMI8hdXcOJL9yGcnYdZK0FvOOpj6PYQTM+jefvdGHn9KxBUJsS22dFiaKaDwAvF8jfwySilLaIMuDDThwCI5gMJvBbdvhJxNVMbQyYkEYASeRG8tgerZJ6TDRKgJ8DkiR83mXsRtzcPocvZG8AqKNbJcCRpSDFClBMyByiMUNk8geahU0gIRCjDGhyvlAHKticLbl1zdIlsyJp4zVCejINlBC7DXIsICyprSBpuFTSEqNNXbm5BAMthE29KXhAlXwSO7hLPbTrbI1ZissVION9DUEiQlgI1mQvjs2T1eP7T94TlEeiNUZjdNvzJHXCvfi3KC48hfnQ34lYTIRFJpCH2CaZ0GKQguA6yLxaBWxVxj8GygUgIg1IDWn0EqA0Lg6j1VlA8+gBap9liD45KAhxdUIP9nI2R3d93H4xbPwWrucQ9QTdJMHu/gdKOHdjwve+VGaNT//uD4gyob9osluGUvylDCxNGqYQ4CtF/7GBKM6Z0I6WOPC6dLpKbPg1j+xXAriuh/+sfRnz/bejvewBY6aJUcTD8+hvRuOFVsMfVPCGB8NxSVwwQbEo4oUmujxhiELin4aLZWRdLbYYBa8oAwaAjXXpqmc2zZexMTTdB0ebRc+fz8JzSBpvvJ2PGjxFPRw5+8sorr7zyer7Xli1bxIb79OJ4zpOt8wZBTGvl3M0999wzsKNbXl7GD/7gD+JHfuRH8PWvfx3PVr35zW8efH/llVcKKKJlHw0bikUVvni+xZCnLOjp+VQSxnnqCIITjwEHDyAMlqDVG9AKq7fbjfoQkqUFJJ6LxHHEVljze+qWO6VdxSJ0afLSqRHxRNaUG9nAcdpAYupo7j2KYH4BhaEyfKOAONZkCJszGbauoz/bRHz8GGpX1IByEYg6iDULgRbCTqQLlMab9thkLqRVJ9tCJiFQwaISmCpbo6yvsxBW3dQl7JQW0gOQdLbiewiuuH/frAgYgxjNhY4sN80/hdt0hYmqTjVgl21hl8zYl+VyRqQwMozSRAPd6WU1T5NKxdYBM2l2lWvaGdsnwaVkvkKR3ckxcegAp+ZZKC8TlsW2hGFJxGo7Quz6ygmPMivbQEzpXRYamwG/1Kqay9QsXeZ3BATJPE+MEA5AC2kEMCIfsVNEWBkFbQH8Xdegc+XroRWriLdfglJMxgMIKT/z1FxXkhgIAjrkBdBqDSS1DdCac0o+aZtIGuMIpi6W68LiID+PgOlICOm5BvZpSb3SBYoZnpw+Av2mv4Pmu0gmt8px55hb4vjoH9iHmY/9NTb9u3+P0be9Ewuf/UeEy0tKrslAVY1ufEUUd+xE+8EHBi6GA82lUEzKJhzdNsLbv4DepiuhFcZh3fDtsK57M4yoj127KnCq62mrnhvA8yNxfqMsjRhSFsvlCf7MAocViGEmkMgBCxrCPl3gNMnnGapoaJTOnOs5n+I1VH7+/crKK6+88vrWq0GG4VO8zBdoHTp0SEZZ+C+zhsbHx4UJIkAiNnnaQdADDzywDgCx+P1v/dZv4dprz53x8WwUWZ9du3bh4MGDeMMb3gDf97GysrKODZqdnT3rDNHzPfen99V/RnD8oMxHWL0uQrcDbXER2ug4jLEJNTNRKMDYsBHRyWOIl5dhYCVlLJRWTdyvOh3E5ZqSxGmrHfXgI5ZatnX3HVaNm2Ep0wVpuDWEnEFyOIDfRW92GdYuH7MYl9BIuzmLJBEhFsxiAeFKG4nviayJd+ozeReBhoABdsps2inhywJS5DEFNiTw9GxSN7nFrgCQsExnk8udVgRanfm2AjkFZV+sDCUShF6E9kwTjS1DqeQrhmEaYo+duC4mXrwL03fvh79MoBcpKVq23NRBTYbjs6yjTIKWAhfCkrDrDuy7g2YHiVmF1u8qFzjLVHNGbKQphdMSkXvxGNklG3rBBjQPQcdVOUmZQpCHiQCIx0HZ66lETQmm5XHVgF4XvYltaG57KVY2XAGjXEF1rIj6eAmxZ4hsrje5C6VTe6CtzEGn8UO1jsguQOt11Hn3Q8RLS5LbRJaQ80SGbiIoML8oPV3EHtyw0EdUrGFyje8Aj0XbBWjgR5aELFCavwr90W9A67aQbNimAHn2HsuGs2EK/ccOoXdgn7A0lLy1778PnT2Pwp+dgTUyJgGpvB44P5SdD3l/9tkRW3N6SYewpg+BXhzcXi8EQqOE2CmhqxmEi2e4wImKMF0e/+VcjxeoIFqVnZWCIDnZfNyQ41JwNGwfN9Aov3D/cOWVV1555ZXXv6RuvfVWITs4E0SHauIOgqAHH3xQZv4pkzvfOm8fPYIKAofTa25uTjKEnkvV6XQELW7YsEHMHCzLEivvrPbt24djx47J7NALqfp33gT/sb3QKw2YE5vESph3+EWmNDcDvbUklsdkXYx6TVlgs/mjpXChBDRGgclNgOUgPHQASWonTAZIQZa0U5Uv6ayV/IsNddrUr4IMQR+IdBN+pMOPFQUwG49gubQRWqEIVy9ixZmE59QQ9yjnonvbqokAG/5MvpUBGCXjSiVusgpKnc7hspXSOJkVtIC1b9Jvui1XDBh0W0Ri6b4qcMSZFz7nNV0xSiALQyc12cYohl0rYvK6izF86RaUxutwKkW1DzRAWMNmKWnb6jrFhCBjq9a63UUxtIUZoN9FTJCpmzJiw+JMUHG0Bovgh0YAtimArFAvwCqnOU6RYtUIqsiacZ+y7aG7X2QV4dUn0dtyFfzaJDqlKTx29fdgecPVmK/swDF3Al3PREn3YB96EMGBfWgvewiPHFHzW7R6dgpKVhn4YqhBpzwBhcWqmivjteN1BplP4tMQ+DIDY+y6ChN15ZrX63p44HCMuw8CDx1TZggEQ4sd4pIY2mMPI2Foawo2MsbF5MhWoSBsWf/IYXmOIGjsnf8aW//Tf0bliqtEBsccITV/lg1IpZeqGpZSP2RgmQBO/Si21WIyEClHttNLPbT+cccyBQjJL9nUHlvdROB55rF34IaayNyqT46oflor9j309j2K9gP3os/fA+nxyCuvvPLK66kp3nx8Or5eiPXzP//z+M3f/E186UtfkvGWrGh2RoOzJ1PnzQTRKOCnfuqnJJMnMxPgyn/9139dZoPWuqfVzmIr+3TWf/7P/xlvf/vbRQJ36tQpvP/97xeXru/+7u8WS+z3ve99Mt9DOz1u20/+5E8KADqXKcLzsaLleQRH90OvNQDbwUrTR9D0UGfTLZk1IaKlRej1KnToCDpdCRg1hoYQl+sDsCDFfJTWMsK5GTjDI0AUrOn4yD6EcA8fRbS4CEOP4XX6sDiob5cyciZlORRgikp17OtOITJN1OwIHXsEe8IdeHSlglPtAq6I7sWb8Blx0FLBj2m2j6XDKlrwuwpoqVBPtQ0cdaL0yyo7MMvKeWywcnlzCp4os5NgUwU8TMqzyMikLNOg2LRS2sZuV+mZkMg6V1+iJmsg9tbF4ZKEoSadSCRqZqUkzzkVB+ZFm+S9wtLQeY3yK26yrgCJNNskssTiOt2GjEmgkx2/SbdNNeVAWCqJ/JCW5rpOEwLaZCvJVbZ1mb04gZBp6wiZUUMAoWsi5ePPqUO3rM+MPSSlEtxCDcGwDbO7BGt5Bp3SJJorroCZ/oHjuGjvJ1BpnYROdzWvA32lC61UhGW4ihGjqUXUSyVficyDRVynUxTwaXWW4LdXgOYS4qVp6L4LjG3Elg02urd9Gafu/gYW5zrwjDKKl70UpcuvAyp1OZ2tPrDQTjCVncO0wjCBHbQRtxbR9Wid3oJ36qQcawm05bG0HdRf+jLM/b/PIOorEw2xXmegrRxjOvTR4ZAnY+AWjmjjzjMUCzyF9lnGcpzUWTEzmsjOYUlmpEK4tHJPCOY5+2Mi1m24gfr1u3GI0tHnzh8t7kPnvrux/JUvwZ+bVRlgpgV74yaMvOltKO26+NnexLzyyiuvvL7F6qGHHhKH59OLbNDCwsIzA4IYTsT6zu/8zlUpSdqBEYBkP0sy/BOZvXgK68SJEwJ4FhcXxaiBdnoEaPw+G55ig8uso7VhqS+kCudOIWbIaLmGpeOzsKMuajrNB2h2ALlrn/Rd6HRvo4uXy0BSdnHp1Hna4Cs3Mw1wCtCby6vgKLVabt77CJZv+hr8heVBSGnY8+EmIewRurxVlJSNX60WzJIDb2ILbl3cgUW/iES3UHDICjFjCLBLPq7oPQzNtJBoDKHkHI7KNOJ2OPWCABOaIAiLkTqu0e2NzExlQ0OYADqQxZxnoZFBxlZJc5tK5WT2g02wDoPzJEmAhDNOzCHKJHasdAZIDoPSOanHM7CRapxoJMAGnwwQrakloJNg1A9x8vZH0To6r2Zv5DMBMW+wKrZIBuMgTjOGUpZJX22ehbESAEWUJ0mowiQYPLdOXQI8naEa7A3jkrcU9R+DFjQHjn4iRtQUM0RXMpX5k5okxMp/T1lj09HNgR23UWgdQlCoo9tehPbwHQgnrkBUmoLTX8amuz+KuDOHU+VJWd+OkQVo/TYPNyJXQzxxARx3P2AW1DyZ31fSwbGt8IcnYLXmYM4chr37dmVhLTtqQDv1GE798n+C2WhA37AFflSA7S5Bu/3TSA4/iOitP4RGbRTEjD3fQG94mxgpRNURYbfsuSOwmjPwyFIQPLsumnfeIcBn4ju+S10TlMbe8Cr0jx1F54H75Zrh85FYY4cyFzTIEuJBCjwJ+g1e+c7B5SCXfaIAEPN5Tq9y0cZy24UfxrBNxVxm51IBJA1uXIAbGogEDGkoWBo2DmsYe45ZVxMAzX3q7+SmgTUxIdcaj6t3/ChmP/oRTL7336C448JnezPzyiuvvF4AtWqY89Qu84VXjUZDTM+2b9++7vH7779/4BT3tIOgm2++Gc/V+tjHPva4z9M2+0/+5E/k6wVbaePvTp9ENWGgKEU+KaMid7PZACeIOddQYOhpmhNjMTNGAYsM1EqxmfN9hIf3A7xzb5hY2XMci1+9R0JPzYIjn7eQMxFJAr/pIvbnYTYCxKaFqOsKSDEvuQh7ytfguss34K6H+ji1rIH+ccWogx39h7G5swcTnYOIYkrQLLUtBEjcPpm50VEaLYlLHJ3axGyA4KhiozRagWnpSAKV50TftmQNWbRKk6RyunSWJGOo1IzM+l8ahm1KqGp2PLRsuCZ9Hx3UjIKpglu5PbT9pp32sCvH5OTX9mBp7ynFJGXvo8mDFyF0IxSGHQE5sE3ozLAhUyOmbwR2KeaSuaFE2W2nM0QIXBiuDmdsFOWLdsGoVLHYihEZJ0XuGdplGGFvTb6RiTgJ1AyRoeR6g1Nr2TCrFVj1uux/sDgDbfYYdM3CjplbES7eg2ZjO5pRDaXOLJq1zQgiHRVbQ7leRH/GErBAE4Gk1xWYzJ8Tp6TCdC0b4cQ2YVkCpwQc2qNmnipDYrFuWsodLm63ES4tIRnbgqQ6JL+VxBzjxCHoX/sn4C0/iNEasNAE3IuuQ+HEI9DbyyhEfWhLJ2E4DjQJNe3BGh6RuZ/mN+6AUath/J3vUtdEoYAN3/f9aF1yKZZvvRne7DTguqusJgN3BfCqeTj3Ra+Dv/kSyYmVca30nDTKqbPbaWWaOsaGSphf7skcEPE0XxVxlk3XMTFcRLXsoO0q1zjK5GpFlQf0XCoeh+WbvyxMmsxPpcXjZ2/cLEBo+ZabULhg5wDo5ZVXXnnl9eQqt8h+4vVd3/Vd+Lmf+zl84hOfGOT/fe1rXxMVWBac+rSDoFe/+tVPakV5PTNlDI0JGDADV+ZHhNuQLCCFCngXnnMRthXL6/TaELCwmMqCyNytH9ZPKF1iV36oJ8Pe7koHy3fshxYEEogJyadhZqgGvWKJqxmH9WlwYNkmahdvhnPZZQiuej3eevklqNcszC/P4uRiACfo4JWdf8bY8l6EC8vodRZE9sWGnDMulNZRwqes0Yi/DJRGKD/L8nc4E6PABJtrmQsiu0N2JUv9TGV1koFDEwUylH0ffQap8JdPRDBjwTDYea+CPzq/BV1vICPLSnJ4fMVGkeFpHltKZ5XUa9zWIbRHG2genB1sk3ojt01tT9gPEXQM2LUCSuNDIqfrTy8qgJLOltAYIrPDzuR/BKwyDBR6CJbm0X6wC70xAi8pIG5MiZW26S6rjCUyPWrFsp+6bcMcHYGBEN0TC3BbARLXh7uyAJxYgmHrMMX2GyhfsBm9xgXoLXQwsvAoGgtL6GgVhLGOatnASA1YWvRh9FzoQVOF2s5NIyrZMIK+gFctChBObFGzZqzpwwKmk0odKFXklNL1T+MsmW2rObCTR6FdsiG9kE0k9RFohx8BlmZhDE+gVAAaV12BzYU3oHnzF+AefUzNo0Uh4r4K4OVymP1DRnHltq9i+DWvg1lPjVDiBO7RowiXl+GMjsEje0fXOF5LzDjTDURmAdHFLwbe9WMCerJTS3c6Hpyp4VWW52xsEHN62j0fXdraJUCpYKJatlGkhbmW5gE9h/9AuYcPwZ+bgTWmrL/XFrefIJOvCebnBvbgeeWVV1555fV012//9m/jJ37iJySmhkozZpTy3+/5nu/BL/3SLz2pZT6pdFPXdbF7924xQ5AGeU0xQyivZ6/0sQ0AgUN7BVrJEPOvgYNWREvkGNbwsMi42EAaBRt6sYyQsxqlctrgKZlasryg5HLVBkC2gFbARxYRuT4Mk05mtK3mJaSYFWbnRF4Mo2Rh6NrLUHrrt6M8tQXFiU3QDUOG4Pc91hPFEdmKN7T+BlMLD8KdW4GeBm0qNkqD13JFXlccqchMkBr0U3fpdTOleLiNYSR23LrJURRTMllEQpaFk64BMJwd8rse3OWuvE7ZZROouDI/Y1ecQYPL2ZlCo4j+Ul9ATzY3xH/JShmOCbftitEA55HIdhDMcLMW9xxD4JJZSJAwHXZtpZvjdUNY40IriA+0US4gpAPA6WFCRjqRz3s7Ym1tQi8ymylG3Okg6vWBkc1oftu/Qy/qYOKm/w2jNa+ssLNrwjLhTI6jMDEi81v0cwg4X8UBmNSEIexE8A0dhckGOkYdw3UDI4065hYcFGaPQC9aqE9Y0MjUHdkHvbOsjj8PM13gFk4hrjdgaAE0w5cw1HB4QzqCFcOaVzk9KFbWnA/aexOgMt8pBjpNNXxPQMoqVaHNHYO2Mo9keELYmEpRw8Rb3wK7UsTJP/tfMryf+L4ce7JeEgDruoiDNoKFeSzd9CWMv+s7BLzO/f2nsHL7V2GNjKI4No7C1u3wZ6bhHj8q+1K5/AroL30tZje9BJpTRs1YZYH4xfydbyZdc2xTvkbP4zMrsk7OKjGvqVR6VhkWOktKPtiaodO1pdkOknZLbW9eeeWVV17/ono6jAxeiMYISZJIpucf//Ef41d+5VdkPojmZy960Ytw4YVPXp593iDo85//vNBOZxtCejbmgPJaX5zFsDdsgM8743QTS+2QZVCcJ3xkBObw8MAgQBrUqQmE03NIWiuqAeVzYQB0O2pWqDGsBvOZ3dPzBnk2Z2pZNWm4474PS9fQ2H4x7BE1j9Vsh/jk5xdx6Cjd33x8e++j2Ly8G735pjSuyoVNYQDiM4KKyAvgt/sSTkpTBMnr0TWYDCwtW7CKjjS/Aj64dtNQAChr/0X2JiIt+T7o+OjTZozGCAxCtS2RsYVkhpb7sk8EQrIZSSJmDMa4gZBZPJwxoldEyRKWqjPTFpkTwZLYTaeyOoICrmdg33Z6pQ/TxYzMiuclSOwaIkeHHkxLNlBmhqDmmNLPU4oBaddtVwqqcY4ShLAEiA6duAe1eAXG5k3Q5gCtvSKSRxoLaJMbYTVK4lI3ff8BBF1XwKXsu0j5yDoR1AJxz0MQJZifDTE+ZGDTVAntI2WYvSa6hgF75pACQAzaZf4P3QTbKyKD03s9BNUK7KE6okodpteB1g/l39h0BtdWGv+koHOWXSRyQ2YYKcAhuUFkJrkPhgkvUA5wEyR14ljAizTsDNQVAAEJOjUNQxp42r9TYrd8y81ovPLVwhDRLpsAyKzVUzmghcLmLTLw7x49jNJFF2Pyza9DrQPMrMTouApI2ibBDzA1pMN8Cg0MeA67j+xG6xt3iMyM5WzcjNpLX47ylVc/K2DIqHLezJJjqxfOtKwjc6bbBZEa5pVXXnnlldczUfx7SQfqRx55REAP2aCnos4bBNFR7Tu+4zsEiU1M5HKI51yxeWdOzPZtiJpNJM0VAUBGpQKj0ZDmZW1zJTP/pRLMS65E2GojmZumXZlieMjylesyyG0qrzIYdLtil8rh70Gm0JrlEdBwToSAgQ510rMm+PQXFrHnUA+TIyZeNH8LtrYeQuh66SyNOchXkYklYWmUtM3veMK4SIaOzOJAAJHZsVDeYIkMT97HWRqyQsKarJHCpf9S1uY21awMZXVkpuRlpgnDiQUM0Babcz7KMEAZFRAUFeT1KpeHG8Bt4nrIBq0edhXq6ndcxCIr/GbnCTC8DizDQuSUkWg2DLG5puucAkKZH0NmFc4QVIOsGAGXwWMWwyQA7C3C3ns7sOtyeMNbYJdqKKwch+l3BWj12230l+fg97vozazIOTQKDrRER2QGMAh2CUwMMkIuinOHEU86WOmPwyfwaowi7JxEvDALNBeRWI5iErl9UYioXIO79QoYvZY4xC1d/zaUTz0CuzWH2CmjtfPl0EZPonbHpxEzQ4jMjzoRyhyBxyuOEJMlorU2t4WXWHMRcW0UrcY2XpLYOgaRky3f9CW07/qanDsG/PI9ZMgI3MNWU0wWhOEzTbgnjuHI7/ymyLjIDJUuvvSMUyHW4tUGlh58BMnrPAwPFXDpJl2CWnnoSayeL/iJPA/tu+4QaRnntqrXvgw2HRbXXC/Lt3wZy1/4rEhUM1DR279H7KgbszMYfsObnnEgVNi6Dc7GLSI1tDdtWf+7Io4lfJYgzRoafka3K6+88sorr2/d0nVdwA+Nz/4lzM+/GAQxI4g20zkAem6WyjzRBVhgeETmQM5aqUxOhGUS2pggnNyMhLbZ3b6YINjEN4YOQ4vVwDgVShuGsfKQLs5mktWj0YpYFyMBWX+SoNAoI66OIUmb3ceO9TC3ey+u8o5g6theTDYfQaJHCkxJoz+wXBu4myl2QIGTM/YxThBEHtonFlDb1FAYjOYCvsoXGqCHLGtImtJQQkspZcsoJzWDo2y/ZMaHIMrjTJMpVAT3STfJ9KTZPqStM2OEbGNkAp4OBDqC5a7sk1rWepno2Sp0fdhFE1bsQY8DxGSoCgxCVaBOtjJKQaGpia23nDPPBxwaHZjQkj7MoIc4qchwfm35IIzQBXg++7RHb8GIZ8X+uU8Th74ns1yUkEX8+LtKhiWsGUNEg1AeqzSPosufrXHYjg1/6+UwZo4DvTbiYlXsrbXQl3BcbeN2aMUyIsuCuTwLtzqJzmtfKdI5slEEYoUdTZR33wSju4K4MizbI3lNwiTRfTABxqbk8bKTSLNNqZv30lei2ihg0zDncYCo3UTz67cJsChs3ozOo48Ozg1oyhAEiFptySDiOSHY9aZPwZ+fR0hr+EIRRTrLyICWugRXukC/x/f6OLQ3gFMrYNOIhl0bVT7QWc9dFMPnTBMNFAni14Ck5Vtvwtzf/l/4C/MDN0LzY3+NxmtvxOT3/ICAM+/EMazc9CXJ6LI3TA3ey/klziyt3HoTSjt3oXjBDjyTRQZ2+E1vxexH/wresSMwh0ehO7awbTwn9uQUhl77hmd0m/LKK6+88srrd37nd/CzP/uz+NM//VNcfvnlzw4Ieve7341bbrkFO3Y8s3+c83qCFQYIdJudspIUnaPW5plSPxocPw7v+DcQ97ppoH0M3+2IxMmiS1Ta4zljDRglB72TSyngWkXpzPBxKLNqNPDVpW3ofWIW119hY+kzf4fLHr4PdbRR9Jbhhy4CNoYZcFLeDSpEMitKvbzTAFBqLDDIcSF703RRrDnp8MYaCVomKVvnbL0miyez7ybIUONF0GIVuKpYn9TqnYzUmrvh/J5MCl/DJtsYGpagUH9uQYEqCWNlDO03B0GxG8Bb6aUMEO2waWOdGkNQiscOnD4IZE/EPU6BLYIikYA5RXGWk40tllFuHocWhQjNAuK+i6jjikWCbnK/TEREWdw2yuB6rgAOYWHE4ltlGIlTXsrkFVun0GdgruFg+ZXvhXHwYQzd/BEV/Emjh+EJJCOT0CoNkDKSmSUBU2TOFNOjRUoy2S80sPTGH8XwZz8As72IhOCJxzD0lAlCsSLrNjl/ZCcYGq6i9No3o37jq1Esro52dQ/sE4aTEjazMYT+kSOI2m052pm7Ia9hAg2yFZwPImCyR0fRbTXhTZ+U0FR7coNcIgttgApEq9+GMbYBteESiLsZ0toPgGu2K5w7uCyjGMstF52+CnoVaaWho1a20agW0Lrzazj1Z38isjGuV7K5eLw7LSz842dk+0rv/jdY+sb9cFttlE6z+mSRsQ2PHUFn9/3POAhilS68SGywCcT6jx1E2GmLmUrtZddj6NWvl2OXV1555ZXXv7xyd7gnXhzF6fV6uOqqqyQstcjmYE0tLS3haQdBH/jAB0QOd9ttt+GKK64QW961xSDVvJ6dkgawtYDQ8+GsMUQ462vXfB/MzsLdf4gJotDrDWGGhOtYYLDqMjTThjUxLh/V9qFTYoOdmpil7A1nOVQejzU+imh8E5bHLsHxoy6s2z6DbfN3wbca0A2GnZagecxi8RGQ0SAYCBVDs2rOljI4a1VlWSOajSGlGMNv9VGoEPSlfg6DFNCs6IxmwBR3NmUWzgBdgg2x2U5fy/kaATgWh/SZKxQrNofz4acdSM4T2aNDEpYq73f7CHt9Beb43scBn2s2C2alKHKuqNkXmZu8VxAGt4eyQuVEljFLNCHhdrKplpVxnofhm7YFp2xDpyObJfZjiNstCbcVG+702qADnEVb7x7Pgxq+SegoIeul250n66QJQqSZMN0WCu0ZtK9+M6KpXYh7rjA3er/J4Sgklq3MKCSfVoPdXRJDBH94E+z0oBkElRpAPNu94vXoVScxcvffo3LiQQFsyYatCF/yBsSXvgz6sb3oNzsY3ljClpdddlb3MR4vOc6pnNHcegHCA/uV05/YiMdiqU6AJGYVlIfW67AaQzCqVYQrK2KPbU9MoO/rCgBFfRixj/CylwlzVNQTGFqC+YMncarZxeh4GeaGjbJHs0td9GhkoeuwKU2UwNYYi01X/l355McQ9bowOHeU3SCg5bvVQLCygvkvfQn9S98O47GT0GHD6wBFO0G5sB5o6wTW0yfxbBXBV2H7BSIhFEBXreUSuLzyyiuvvJ61+sM//MOnfJnnDYL+9m//Fl/84hclc4eM0Ol3yXMQ9OxVvHAS3tF9sBJ/7ZjOGnu49a8XLMEZlxMnletZpZxiAmWVnQyPKnnR0qK4yHmtHmZufVAspsWJi1PsYj9twq6XJBPFW+yg/6oXI9bruGL5PowfvR193URIQ4Gwh1g3ZXhdiympC8X2WWYN/FjZWEszm0rVslKhOes3PpW70SyhPdNOGRpDGBSClIxBkf2KLHGY4+NBP0BkhKuyuQw8hpHYYqdCPMUWkXGhhbY4NaSe4WRKNA3VHWNo7z0Gf35RmJuw05dcISBQ2yaD/adRbtlB52KYKeRYykgkDGXRhklAqUAc94tgTbNVhpGsw+PrFFhTGx7JHR8CIyzMIt44mYXTIOnR0nzNqpMYuqajMFpBeGJF5IE8JtzOkL8GKG3TDTjDJSVxQyShqO0dL8fK1W/D8F2fQv3rH0fSn0dM5zu/C/SWkSxNw99wEUyCptBD78pXApI5tbrLpqEOd6UAdLddhpnNl2HL6LpRMql+fRL0tZi8kBblZ7/GKReTfIDAR9Oz0bbHYRZnxBAkLlRkLknnnJRkVHWE9aEZApmh4rYL0N27R+Rm3uwMunEZZrMDAz7iC69BeOnLEDCk99QhlO79goS7Toc+ZiwbmNoK4+Wvg7NlI0qOMcj34f9tyxB53PKeR+A+dlBdzyvLynuE10uhIHLB2Kkg6bRR2PN1aOWizN4FSYJWH7Lf9ZKyppfTRbe7sxgTPJMlRiFj48/qNuSVV155vbArD0t9ovUDP/ADeNZB0C/+4i/i137t1/DzP//zIvvJ67lRtBaOTh1gUI0yLFj35LnfF/f6iDo96KWKcjgb+AmwU9egjU8iWZiXu9yzd+6TORM9nZURi2SyE14gAMnaMIlAN3F8zzyGjnwA4/3jqHgLCHUbRXeZTgCwzYicgyJsdZXTYxZtRG4gc0byOO+EcxbHiNLZmLPsQMb2rBknCt0APlkOWS6Xo57QNGbXpHIpyvzaobyGrIcsgkP4tDZml05cF0TCCDFUdmC1nZky9Hz4bRfJqRWVUVRqoHV4AX4nUFI2AR5r0cfp260AnFUtiEMcgRDDUDNDB5HZscn3Q3GlswsmDMuWMFXZmyw3KDV1sOsVBLGOYHEF1sgwdLJiZzvpaeYQs4nKG2rozrYEaDF8NdZCmX8qTowgntqCdmVKZHJ2fwXuzpegcuBrGPnqh6HTnaBRQdDui4sdZ2gQLKHg3o9o00XwX/x66Ne+Bugq0DOISFpzGHnZkMTpuAoUZU0/R5EY3bRxGKiVzn29Fi/cJXKs1okZtMqbVFDq1l3Qjh+A2W8DXl/WHXR6cGpllHbuHNg9W0NDKO3YAXf6lEj2eN3GoxsQXvkyAUCeZkE7cRCVL39YZpfC2hgiuwCdAbVH9iFZOAH3Td+JcPsuCU1d65XAdfa++FkJYKUjIwxFIRpxBK3bReJHiEs1GLzA+m2Emy9B8vC9KmTYsMSJjkCoUtBQ0EPq7lC+9KnRPOeVV1555ZXX871ardZZH2dP5HC+9hzRDk8pCPJ9H+95z3tyAPQcq6S1gKTfhh56oBk2GZ4nYmgluSoyz7N6Ptdwe6pjtR20W4lIzwQYpWAi9pjPkmbyJIB37BT0cglD3i2gQV3B8mHQXkyLYIVN6PQ5pvuabQ587Mn82EULWsVBROYmtZrmPEyyGCPo0uxgjRxONnpNj08yQ2Rj9HKI4bX9wfyMbqnZGrosK3JHE4c1wSiUl9EowTZgV21hgQSApMtnhk02g5PJ0zoLXfhtDwkbW4uysgAeZVB+BLtWRNBS7nOK1tGQhMkZTnVkgKySKYYIApp4fHmiUnBDe2IJGxV37Fg5n1EOl+YaGUVHOfBZFuzhOhLDhhEliOb6iDiI77mI2HS7lGcpcMN1CHGWBuE6jZJYbRN4Rl6ExCkiGRpFtzSGjj0KMzFQ9ZcRNibgTe7C5Ed+TIGLQlnN7QzVoJcZUEpzhEDYvOqrX42jV38nqo4G2wP8EKA3xyBwlK53kQI4ZIGOLQAr6eFi8dBPDQGXbT6TIVpbuu2g8aZ3YOb//A3s+SPQ6sNIKMkd3whtaRbx0JjIt6LKEGo7NsM3LGa0isEBv+IgQO2aF2Pjv/1xNA9GWOqVUCgY6LoEzQHG7v8i9O4KgvGtq+4hRhmRU4K5eATa3V+Bv3EnOpwDKqoNDVotLH/q49B33yVW8jqBe+Ijoc07A4u1GPA9aHpXrqewOoaVjZehNLkd1qmDiIYnkVhFiYNqrfQQtmdR3bEd5cuvwvlW1O+JZNAolc+Z9ZNXXnnllddzpJ6GnKDH/SP6PK5GQylBzlWbNm3CD/7gD+L973//E8Yo5pOho/7u7/4Ov/ALv3C+b83raayEzWgYqFQckVQ9vk3zoC/nYJnD2RQGoFLiRjGYelauNT+QD6i772BKJugKrLBjW2s+wG43ChG3WqgFLuo7x6ExnLQfw0zcwfooURMZlsi4lF6M6+TbraK9amQQJZKHQ/magKCzSct4AafmCm7Tg98NUhClXkuQ4/oeDIKhMmfXyLjEsASAUAIXC9hyqqshqYPjKY5sdBdTj/cWO3CXezAKFkzTgV5gRlGMcI5OZBFiOtNlx1YADZBIjqwCY/yX6+KXWbSE6RL5XEqTiAMdAVHqQEdpmgBUhqLynAqwUzIpghqTcir5kMew9ASBXUDQ6SvnOK6f5zIMRfammTFTPBX44zKDUI51cXIE/aaLINJhb90Ky66gEfqwe/PolQqYu+xNKDxyC5JjjymwGzBjSQE1vViAPVwVdogmC+XuKdTLGppdoFYE6EbOQ5J6bMimxgZQ9pZgPvAgdnWW0I1shJsvhrl1B0brOoYr69mVrLjquSbALFnJjx29HEuveR/q+26BNX0Amu8iKVXgX/UahFe+Cvptfw/svhMzSxGi1OSBMz6lcAXlKEH9ZdeLTG5qE/DYHgIPHp4Y1fYpWDOHEVYZdao2RH6Npuwe7br1mRPQF07CndyMcgHQ3R7an/5baARAQnXZKmOL80npzFls2tCSEFqvA4xOonvp9Yj1Ivwbvxf6rZ+AMf0YEm8GZugKu+ZXajBGxuCdOonijp3prNjjF1/bvOM2dB95SCSsRrmCyjXXov7yG2BWq9/0/XnllVdeeT3zlRsjPPH68Ic/LGo0Ap2XvvSl8thdd92Fj3zkI/ilX/olzM/P47//9/8urNATxSjnDYI4w/B7v/d7+MIXvoArr7zyDGOEP/iDPzjfReb1FJRmOVTQCHigvEvuwFOaQ1aAIMO2oVeUA9e6z0exBHPzFvj79iCMIsSdjtgns/RSUTEo5QpiWir7kYCfzElsXWUmCWx2/QDusgtrqKpGXChzS8NZuX20vaZdtWS56Bp6iz1hc+ySLbk8wjRpiczwOBUHfsdXxgunK7wsXUwPyGYEvVAc1gaeCGtssqMgge4R8KSYI1ROdswLEpBB+VsKpuStWS4Pg1AZ7hlE8Fo0DSCjkjqQedzHrgpR1dbM6Qw2ThlGcIW6YcIsMYQ1EXtq0zLE5EBSkTi/w7mjgi0sERkomhUQrBi2LUwVbbuz7ZIEoyRB2GxDJ3AtFoR1omV1TPqtUhOQlJgmNGZEddvKnSzxlW06t8c0YNUqCIsN+I6DSHPQsGIk7ryS2F24A+PXvQZLez2UbvuYOucEVqRrZN89kV+a9Yro2+T6cru4ahuw9ySw3IEwgZJ5xEtFZ+AoUDvwdcR3/gNmuysiiyvZCezCl1G+/AoMvee7oWtnDgJxWbuPKlClAlYVqOrWd0K/cQeK/goQeEjKNcApyfldfNG7YC92UDu+G2YSIjELAkq6TgnetW/E9hddJ8smiOEyqTQsUcHGcNfQR1IdPeufkMgpwmjNQ+t3xIiQH4Po0QcRHTmowmNDH7Fdgt5aUkGvPFs0f+B3USguePEb3gNfLwrzRROJ/tt/FMb+++Dc+glguSXnMZlpYuHTR7H8z59B6dIrMP6u96B82RXn/Oz3jzyG2b/5CIKFORj1BnQGxXZaWPrcP6B/cB8m3/u+HAjllVdeeeX1vK6PfOQj+P3f/31853d+5+Cxt7/97WLS9md/9me46aabsGXLFvzWb/3W0weCHnroIbzoRS+S7x9++OF1zz0bCed5qeoadRxbcrDJ1mAkAYLpGcQrKihVinfwCwVYU1PKACFTlZkOrJ0Xwtu7F9Gpk6ltmWrC+7PLcFdcCcf05pqIXF+YkKi/6qomlVnFDeylmfPSRrGsI7F0hCHlc1nujQJBmTxMYnoEWMVwKVGLYhTqxcH1VBwuSW4PZWgEI7LadN0qv0eT5RFUiM10ls8jTbsyFBDpG8NNyUDFnB0KBXQRYAjzlW6bMDtkudJjpswSCiItJDiRoFg+znkd30VAa7GzDf9kUj+60YkUTMnwxPCOcygEf3TUY8Ar79pbJoyhOowkQtjtiXMec5msSknOA5dHEJVtt8wnMRep11NytIzdGalCK5Wlmaf8iqAo1OrQem3FNpFBKhUAp4C+VUGHpgJajJG3vQcbLhhD1GqK3Myc2ACv72Lq07+PLiLojiX7LACMx5P7F0UI+y4sAXcaClu2oOwoS2kyNh0PoDrw6LySoZVOPgLj659U19yGbXBjHZoDDOldtO+9W9ilye/9/nW/Q5gZe99jALNy6/RrSAkRhpgSFM23NWwcGVrHHpF98o4fRjGi/CyB0e8CQR/u+A7Mv+Td8LZehfFFDTs3ALNkgEy6s6m8IAa7JnRIDFwkhgJkWd6ufE/5p7CABfJCwhN5D98vJgxqbIzJqgXEtWFo3aacG2GE4khCZOMdlyN52ZuB3ppl0sluz53Q+8rcg2YJlCfymCduD93dD+DU8jImvuf7UXuJAm9ri2B08R8/g2BpEc7W7YPjR3vuuBGgf2AfVm67GaNvecf5/ULJK6+88srr6a90XvcpX+YLsL7+9a/jgx/84BmPE5Pccccd8v0NN9yAY8eOPeFlnjcIuvnmm8/3LXk9A7V7v4sHTm7Au7eswJk9hmhpCZplQbPt1Rke14V//Dic7dukkRMpmmEgnJ2R2+v68KiaKfF8LOydhbfUS3N0VKAoS5zBzjH1LyGc7CaluQ+BIJB183EBGJwJYkkIqwIo2c8qKygR+ZvF3Jw01JTsA0GRXXUEkDFglMvivI3k3UR8T6gYFYKtNVQQc3+UnI37v7qdNEmQ13MOhOuRkNAIAfdNZm+y4NAI/ZXuejmSONIRKKW5PRmSW/s7J90GkdQJ86bAjjNURuSZaR6QWrfB/xxT5IiBWUCSWNATX+RqIn8j5VCtouhY6E8vyP6Li55I2wgolfzNtA2xeTZ6K4irw5JhQ8ts2wkRcRam30dcG0KvUENXryKAhWrso3LpFdjyol0KIA2NoNMLMLfYRe+RhyVTx960EZq3hCBsC/DRyIYJ46YLoCPjYVcrqL/xbbLP3C7O/VSLwMxymjtjJ9AfvF0CeLFhmzJI0BSYCatlWCNj6Dy0G/70KTjMpErr5JICVEOV9b/TC5YCRcym7fTXGykEu+/CxB0fhxV5SManEBlbhKUqdhcwvv9LODqyFQdmhgQEEaTx9HD5bqAhtDYiHN8K68RehAxxTaWJKls3gdFcQLJpO4Lx7bB1WpZHAhwT20Ho1GAuzispnF0Q0JOEvkjggsowCo0arBv/FVaI/8VSnItPoNPQYfoxZQTS7CAuVtKwYzKdFUSdDsLmMpa+8M8oX3KZyNzWVv+xQ/BOHBc78dNvQhFYEgx17rsbQ6+5USSAeeWVV1555fV8rM2bN+NDH/qQhKauLT7G51iLi4sYGhp6+kDQ2jpx4sRgGCmvZ7d27+3ipDuM+5c24NrmvQr8mKunV5rxYgFJr49waUkYITZbsWYgOHJYXmOODEuDNn/Lg3AX2fyrjB0yI3GgkIpya8sWuuZWOYFD6igXh6fJwwTMpHfKxfwsZYz4XJbvk9pRE27Qga1QLQykdBEd3foBgr4vEjXKxsI+HbRUdg7BityY50gNA0FV0pCa+8kAirgjqBJJWypFk1gfQ4fXcVXOjM45IH4ZikWi3bHI0RTLJO+M1Zc6PgQDyhxi7T4LwySSOuUUJ+zXck9AhFMrwnIMkZIRyMWaiR7KKqumNgRjZAi1YQNB15U5H2NsHMbKLApDJXhNMl++ssVOwWRhpCKDM3I6PBex1YeZ0IVPueAZjo4gNFAo6AgcSLYQJXDujmtwxbveOMjcaXU8LDb7CtP1e2qfaNM8Mg4r8MUZkHNGomEmqiQwqJQx+pa3wh4aWXc98pSQrRHyrNcW2+mk2lg9B7TmDgEa1FWqVQTLi+g/9tg6EDS9TFKS53DVRDQ7xgQudJOjVwcBhWkkiN0u6g/8E0w9RDK2aXB5xpaNpFRFce4Qxg7fhvnK2/HP92oyZ8R5IzrVcZ7J1HX0r7kRxvI0zPljiGpjCswEHszWvEjewpd+GyKtjE0jQL2YYG58FJ3Dx9ArTUCvj8JYnhXjDFiOWI2TNdOTCNVLLsHUq67BrKvjyFyMvg8QfzsLR2DGAfTOipJBQiehmrJbdDBk2GqIYHEB3T2PovaSlw6uLx7fxWNL6PcD2HoBzhpHvqwImsJWU8BaDoLyyiuvvJ5blc8EPfHivA9zSj/3uc/h2muvlcfuuece7N27F5/85Cfl57vvvlvM2542EMSm8zd/8zdFl9fpdOSxarWKn/mZn5GBpdw17tmpXj+CZWkouwsCWgiCTv8cCEwxTUTNFswNU0hsW0wU4mYTmuNIU+svt9E/tZgClZTlyFyytLMYFLB/TtncVRaG/Z8u0jLJ2pGgT97+zgJNVzNWyMqs2lCnpgB8TxzBb3mIfDJRyslNnuJgvGXCdAwEboKwl84nZV/pPitIpoCIGHyJGcOa52nvratl9ps9hD3KytT2y3xS2RFGKgNFDBeN2bWv9c7TNFgODQjSENPUTCI7DMoAAjKvJBbeBG50sVvpS15PcWoUhmQWAc6WbVgsbcKh5RK2brAwcmkZwck5aA/eDcvrKKxo6Cg2ioh8W80OEYSYBorDZbRPLMFt9tWvv8W2SPdkhkmsxjVYpQIqm0cExFpmCY84r8XQrisllJNFC/Rl6s40AhcDfrmkMm5oiz25VUwvrJUFYaxkjipig25i/C1vxvB7fuic16UcLYICHlvq4k6v1LVPTj/nZtLqeglcn9lGiQStKpytwTR0GASfdKQrQqyqC1aCjhvBPvowCr0FBCMb1zFHBEkEGMwRqh29B7MXvQGzK8XM+VzAVN/XMFLVYE3uQvL696J87xdhzB2FRvBj2ggmL0B83Rthb78UW4eAyYbKixp66cvgH3kMRd1Hb/QCOLoNszUHuF2V/6QZcF7yKmz+/u+FWSlhSwUYrmjYczIWuZ/JTC5e3+Kyxxk0gqMEUd9F7PaRUN/H82Ca8GenZX/8MMHB6Vi56/UsOAHQ74RyLdCxLlVtqn2nWQoB/Wmzm3nllVdeeeX1fKp3vOMdAng4/7N/P0PSgTe/+c34+7//e2zbtk1+/rEf+7GnPycoo6Ouv/56eez222/Hr/7qr8J1XRlIyuuZr/ERG82VFWytTCu8cg5/bHmcYZymA023kFi0uDJEusbqHDwp8yXiaDaQkGXoYlX2pWXPs8/PInvIkESJyLtKY2WEPcVYSAOrMx0odcsiA0Pr56z5XYsc0lW5TVe5t5m0h+ZsjbKsJhhKYs7VJANTA8U0pS5za8wRsiYXazKBVPSPYnEkCygIEbSVEUS2b1yvACM/hF1yZJOsAp3zTHgtV7napcth2TVbzSUJYOPh5LLVbFTk0aWCsTHGYHv4eJ9Mm22hMkb5E1A1WhjxHsHU1h3wQw3xfXPQZheQLMwiKFjK2IKAlfbcYurAOR3VILdOLMPv+qvzX34k7JQhwbGG+DNY1RIM25JjWIOH65JvoOeQPlbsQNcNJPCTAIhlcr6kVEY0cwrGhk2IN+6APrIBhfYCgnYbYbsL4/KXYPF1P47mgoWxmnKFy8AHF1MpAksd+hVUkTRGoC1MCyMjpyHNo6VXQ9huImy30br3bngnjkHbvAMnRy6DplVlViebBWIYb5xEsAcGFSpXaLia4PBcDCNuIxT7OHMddhdnOqo07SJ0v4dK0hGTAzl7jDoSjJa68EGDO7kL3pt3wl48DtPrICpUEI1txsSwgQvGNWGOHj2hPhyVTVfDufB+JPsegeU00B3diKAyAmtlRmbzKq+8ERf+wHfLden6iTBfpq7hsk26MF1LIxsEKIl9O53+yGi1m4h9zpuJ5lEYW7K3zdtvQfXal+ExfwyLHcoMAfOCC4F6A0l3GWFtFM1+giHmUKXMK4NhK5dfAXN4PVOXV1555ZVXXs+32r59+xlyuH9JmU/GneEv/uIvBJFlRZe4jRs34sd//MdzEPQs1VWXlIH5wyhTE7OmyTy9JIm+WBLgExuK6TCnpuDv3y+hnVGL7B4ZDV0N7qcN///P3nvASXLfVeKvcufuybOzOStnWVmWc8SASQaDD0y8446DIxwc9yEecMDdceS7I/jgDwcGYxuc5SDLli1ZOa7S5jh5Onfl+n/e91fd0zu7knalVbBczx7tTIfq6qqa3d/r977vIU1ME2iQJDfaxPoKjdo4JP55bPuozM0w1UwW4Skho51NbFwcQk/jqdPNpeFyTFJTs0B8bTPHNDPerOZvxJ5GEkUixD9DWuGYrsahfxKq1QAGtWE+J4Fhq94hFZ6gC0njz0GXxGGIMfXfhtjdAL/lI+iomRuSmsr6msw3MS5bCJC/2v1DkiOdO+n2hAC5kSJAliJ8g5fh4lzX4C21kS87sEo52FS2eOwfvgdJw0XPAsxaGZGhI2p3EOkuDBI9KkBc0XMfSQwYCx4z9ttC6A7NI9GCR/ugkYNZziHq+eicWJHbQj+AYc9iZmoMyeXvVQl4Eleu4D18P7x770S8vIhoYQ7h7HHok9OI8gXEi3XpxQk1E8HB4wj+9H+ic+U78eS284WQXLRJFaLy7W4YVelubmwif/H10D779wCDCvJFIR4MJUjqi2g+/qgoVu7hQ/AOH0L3jrsQjqxD5a3vhV/cIgRGOfaUsheEEYLIQN7WMD2S4PgyjwlgFfOImNTHIALxXyqlcXBqfU+CD6jy9dLbmWKn0ZpmKrJFHknCQjukvn6LWDJZ86NFaj7pyeMxvEATyxo3sBzn4NzwfZgcvRX2Ew8i3zqBSNNh7tiI0RtuxMgNN4FJ6EeXYqx0EiF1/HWgirV+VMeG112MY4/NwH1yGXG3i4TzbZ6nIs5lkM0QtY7zPex/OvHRj2LltT8o793kThTLwKU3QvvqJ2G2lhAURtDzDJhWAH9hDkaxiOqNt2ShNRkyZMiQ4ese9XpdhJjHH39cfr7wwgvx/ve/H9Vq9aUhQcvLyzjvvPNOuZ238b4MLw+2b8pDm1iCrpcQ2Q7g9gCmWA3PqaTR1vroGDy7rFaqDFCojkHL5RDNzwtp4e1qzkYttIl+bLWoP0w5CyOJsE4YhWyyh8eGU7KRH8nLY9mpwwH+gQIjNjN237DHSBEqSUkjsaH6EnCmRYNRstT3JDX9wAQuRDlrJJY6LoQTBJ00ZjuNzhbykZILKUSVfWe/zqpKRLuQKDK6jigIJfJb7Vhq8+vP8gzzOrH/UdGJ0DhSR2VjDYXRooQ88LH+oJx1SH2TWR0dGu1c/HNILeuvyDlrFXoR/LaH/MwYmseW0Tk0i7DjinThGSbstovcREVIIItJIymeHfj90qQ9XxSeflDDoPQ2PYdUNmjD6hxbQutYXWaS+t7G9uEPwY8LmHrXu2Thz9t6X/ki3Ns+o6K0p2eUGnT8KKLDB0RO4bUVlCbgT21DwujvuQMo3/Z/0dTfj33+btk9RmUT0zWV7MaEOHfbdSiedxDW43cjWVmEnivB77bRmN0v2/FmLkV5pCKBB2EzhDF/BPqtf4vKt/wEGigjCkhSlMWRczxUdy7YqIgUbWWM4Na2ngetVIXRVqrIsEVSY+R4r4nuxa+TXiwhsGmKOtPhLJPzXoo08Wfh4umh5vf92SGSMIYX9n+veA109RLmr3w3zn/9m2A05qHpBpwNGyRpr+sleOJYLJY7BjrQlcZLVkId3Bg71+Wx7jvfgxN/9efo7nkUIS3G3CkGLPB88gmaBnvdDKzRMXT2PY3kvKOwNm1avUhf8waVQvfgHTAWDsPXNHh5DfbEFMbe9k0o7Nx9Lv6KyZAhQ4YM5xjZTNCZg/M/b3nLW5DP5wc9Qazlofhy66234oorrsCLToIuvfRS/NEf/RH+4A/+4KTbeRvvy/DS4/BxF//0mQV8U7UtaW/W9LTEXTMEAbZaRFEB4sfQRq2G9vR5iOeXkZvbK2lv0tOpJQh9H7kqZ0l01X9DDNb1Q0oQ1Q3DQH4kh1wtL5+sS/BCOoBDtYdfAwKU2t0kJlp6e9KIbImMZiqbIjQkDKFPVQdwyjYMEojULjecUMc0OBIYsYWxvDWNxVYpeOpx3KfAZdFrIlY2icSm90o6XVluOlQmm5yeAK3OD6nVMslO63gDo9sngCZE7bKLttjmRBHjcXHMgbJFojYoTh3Y/YaITJxI9LXX8tA5sig2RI2qUj4vqXe0uMXeIvIVZ9WNmFr7qFRQWZNNMiJb1XqqKHTKGipFQIIXvOW22Au5b7lavytKk3O89JlPw6xUUHnt64CVI3Dv+CI024HRt08xcnt8Eu7D90PrdhCv24FuddPgPcTjm2EtHITzwGfRHt+GY/ftxdgDT8PRI1gTE9h60SUYK1UwW7fQfvv3INl+Pnr3fw3RwiysIIaWK6O74ULEVh5eE2DquM3wi+mNSOaOoHLsYdjn3yAEhCNmhGMl2LEuwcZxDbyUBqerVIV21S3Qb/8YrMYcotKYmrNxu7AaCwhHpxFedJ2ksplGhChiOIeShCSEQ0pVlZK1FsK1E6DEUzH0wQK/Z/odyd4yKti8YzX8gTi2nAgBKudWn8fNc+6Htx9ejHHJlu3Y8G//AxY++o9Y+sQ/p+2yBnSbpbQF2NMzKjCC1/fsAvT6PDBMggwTuP5twEXXIt7/hKTwTe6ooXTBBTAYbJEhQ4YMGV6RyEjQmeOnfuqnxIX2Z3/2ZzDT4K8wDPFDP/RD+Mmf/El86UtfwotOgliU+o53vAOf+9zncN1118ltzOc+cuQIPvnJT571DmR4Yag3Q3zwEwtYZjnpGOAYMbRaVco/w6UlxO2Oir9m/8voCDAyCv/4MTiHWI4aqE+aOTzvu/KrSLuXVbRWSdDaNGxa4UqWWMyo+vSjnPvsgTY6LtL71rV+uae6T1OExEhVCjrKuopAiLVLkt5YjBoj6AYojuVFMRFLXvraYtHzlYIki0ra0Qw9te0pokaCFJqhWN6Kk0V5Ta/NniHayNS2uI9SWNpXC9bilO5TDYnO144QdDwUxkuyPfbnyNgRO4E0KlS+7DvJh4q45szSyWEhog6l0eH58TJaR5ckLpvJdgyqILgQT/ImonYPXjOGXbRUDxPVLE6+r/U7SuYyFajUi5a+KZ4Dt95VA/cMS+A3KWE1ywVEuRxWvnQ7Rm68EdahJxG3WzA2bFp1QNJ22OlA6EI+D6/VQlLThDirl9cQVSeQP/EkJj/+P2AuHcWiFYjNjLDHJzDxrd+GCy6+DF97ysRjpasR3HC1bHzT5/4nkuVDiMz8INWs66vd6xfVJkf2oXD5DWAdkfQsJRA7GsMF+seJyk2rHcCEDvuaW9BODOgPfhnWynFFEK0cws3no/eadyCsTUmog2XEMPQEfsj+JtoB1bY4HrcWff6tCNKpwS8yz6MnaHZPvpC8IMFyOxG1aq0dTTqw7GSQcFebmMTEu94N9+ABpeaJldOAUa6IFU72g11Vcv5MUUWVejeEygi8868VNa2yYdWCmSFDhgwZMrwalKA/GyJABL//uZ/7OVx11VXPa5tnTYJe+9rXSirDH//xH0tKA/Hud79b5oFmGLuc4SXFQ0+0Mbfo4apNPRR0X+kBVHaKRfkSBYirONOURZF35BjMx56AL504KXHhfEo7QHu2gdANxOLVFxZWwxHSZDeTcynKyiYZbLLST++n/Y2+JL5czoTfZRFoSoj6Mz20bVEBMXT47dTSJgRGWZ0EMs8Sobvcg1N2VOCBKDkGPKaTpTY9bkeVoiplSopSRS2iPc9CeboCu8AFZAKTig1ndBj3HaWx15qGkAMba6GdHHPN9DdNBkMUeWKXUXHahs2kNu4PAwq4QJ6agmcWkDy0B0GjBTPPklcfuq6CGMSKaLKw1JakOKpojLSOui7MYg6RkBOKTqsHPTEg1ju7wPOXdicJwdSgW2b6PdmGo0o7SZDYx8PFfxjLY1jsSuXIkMRAnlhFkrRiFWZtFO7sLFaeOgDb7cC0GJuuwfNVvDhfJ/FiGBFVLhuazwS6k/kX52zMpWNSEMpSUq+SB2P6uWj3Zk9g7oN/hwcWRvBEtLkv5qnzlnB2R9kheQn0uRtFOgmYCDUE3Rh6F1LESn7nuSoQgMqKWNEefwzWV+6EsXc/Aqpgm7ajcNFr0DrvJxEfO4jYCxCVR5BMboTpu3BPHJWIwWhsWo6HZUTo+Qb8UEc5Hw+sb307HPc3zd4QMnM24PP4vmiDOx3E3kdLZfp5gzU+KYqPd+QwnPWn1g6EjTrskSqczVvAUbWSc3IsexCqDwEmKxkBypAhQ4avH2R/X58JKpWKFKGuHcmhCMOU6ueD59UTRLKTBSC8MrBnbxvnl09glzYnMcZcNHOWZmDlGmLMQb2B5sN7EHV6aQ4W52xo8Wqhu8Ji1LRbh6vA/jq8H43d72iJ+/NAxiDYYAAWslIB0XU41bwkplHxoQ2LCgRjnamk9BPkevVW2r2j5m5OUmVIhLwIVlGpNf0wBN4m4Qr9eG154FD5qkRoGyhOKAVI1Kj003vTYkyajpA2rCCCWbBUgesw0Us3yeNDqx77kWQb/b+jNA1BmQEP3Eao4odrRVi7zoe1bStyvS7KVRvLjx2AfmQWcdiS4yCJcbahLH8shM3bqG0eVbNXNLORFBRzCNvs51HHVcihHNd+LxGVCmNVfcjb0DsMRAiQ5Msw83nErWVREKSslvNRORNxg8EJtjyet0nkeAR4yx14x58Eel0cuPsxWLQLRho6XVOIENUN6UfS8rBAi2SAOI3UHjpUMOoLQo78qV2I7byoOQtNoJQzYE6tR/fgAazceSeSqzef9Nzu5A4U5vcOVK2+Y9APGEwQQY8i+BObWTOEZi8R4kN35/oxVRa78sXPYeXWT0mSmpOrwAsixI/eBzz9GJwb3wn/ohsk9NAMXeQf+AyMx+9FodGAH2kIy+PoXnADwgtukA4lx9IwVWNUtiIuclpS8OqplOTXK70WTv4HS0IwYha4nny79PAybGEo4e7kXxdlWujb73gtVa+/CQv/8P8QLC5Ioht/l2T7rSaiVgsjb3gzxraP4OkTsVjwmCbH3RGipnEOS5OkvucDZTnlwJVS4TJkyJAhQ4ZXCtj/84M/+IPSF3T99dfLbV/5ylfwsz/7s/ju7/7uF5cEPf300/ilX/olyecmGxtGo9GQbG72B23btu157UiG5wdt+QRunjyMoh2IxWewdBkiQn109jyFsJN2yaR9Tt2FDlpzLfUECinDZahD2xksikQZSWCW7JNI0CAUIFJhBSQYhfEieis9WTxLdDGJA8s9pesmVsEE/bLUfkz2UDURQw1IktRskQpD6AcgnDQDlO4T7Wj9AAeSC8ZJy2uwZyXtluF/aJGiSiWqFKO7SfrWHCsSIO5jP5RBFaeq1+rVPfT0CpwtO2GMVKFPb0BQLCGpz8GYPSLWsbErLoBXNlHZ0ENnoY3ecleICbdTmiiLSsUkvcDlbFND9okzICStscSVq3hkIT+ygk5nVySWbPX9O5WcPCZksWbkysI66vXkfdm1ioRXGE1fEsYSjWWcQND24HV9RElHxaFRabvzM4hmNiOITSRuG2axopQnHrJSGVquCNQXEE9sHVjlhBMzVrt+ArHpICqNDOah6h2VDMedNqIKCkcfAa78drFy9dHcdCVq++6E3ZyFX5lOZ8cArduEs7JfbGx60IPtLiPIj4h1bNeMjrGyLrax+udvlT6s3PQ6kJrlSOyCMYSL88Ddn8b4eTtwQhuD/cUPAo/fDxRKMMfHYUQJgvoS7Ds/hFxvGROv+xZcsd2AZRo4tBBjqZ3A89X7IC+cqgLrajqeOJag7Z2swIga5atS2PHKyRcRb6sVNCw0k5SsnHw/RUjyUtrX+ihddiWidhv1L9wqSXnqmMTQC0x5uxkjb3yLxNdfsEHHfDPBUoudWsBoEZis8ticar17LjB1rnn3V9G48w5JIrTGxlC+6jUoX/EamM/z07UMGTJkyPDceCZH/gvd5qsR/+2//Tf59+1973ufzAIRlmUJ/3i+sdlnTIJ+93d/Fxs3bjyFABGMpuN9fMyf/umfPq8dyXD2WD54GO/e9ChKVn9mJnnG34Kw04U3v6BsSOkiKfJ9NI81V4nESfHSz/6bZJIAkfj0n0OiQJWCFir2AHFRWisgN1JUipBPVSWQAlKSmsbh+kkEa6hn9aTCUbIQqieiUAUqVptEgtvr7/dJ+5wShdaxFrymJ7NLsntSGKkW2UE7kAQ6MdXJjIUiOIrwkHhRDVOfsPfnjvqlnixAJSlpujnYl7xZiJXZWkT+qfuQNOeR9BpKueHrAchP1lBcNypEMOh0JZ2NKXXynqMYuZGSRGQHLVcW4XatBH+5KR1A/Rhwm4STiXdC+vpdRIayOsYJCpumkb/8CkTLK8qexyS0Qh722AiciVHg3j1o7tmP0BlB3POQdBpqhCiilc+HVqkgMm3Ehw9IJ47ZXORBAApVYPYIcOIg4m5bTop24gBMK484Xwb8HuzWEqJcBXCUn42ng5xy+BKKoEvCnRr4Xz1d3uhGzF/xbkze/2HkFw8gthzYjVlYvYaa86pOoHj3J5F//E5417wTje3XIYzUtVu//174rTbMDZsQhLHYK3lJWkwCXD8J79BB2PsfgoFJ4MmHoI1PQ2MqHPeH4YFj00CrgdyeryC84HI8md+CjeM6dq4zsMFXszp8pVKOZEa9JsMY+goMS1x5Kzk57W7bpnQUnFPnfmZGGa2tyFPeSkQR4mXrqvA3bBhT5a/Dz6nddAuKF16Mzp5HEDWb0PN5FHadD3uGJbDqsXytLRMaNo+vzts9H/iLCzjye7+N3tNPqS4u3YB7yET3icfQfugBTL/vB2HVRp7XtjNkyJAhQ4ZzgSiKcNddd0kn6W/91m9h3759cvv27dtRKAx9kvhikaDbb78df/M3f/OM93/nd34nvud7vud570iGs0PU60B7/HaUbLUoloXx8DpozZrIX1xWsy0kFDInBLTn27LYJ04iQMPbGIoZHgYTzThX4zVcFT/tWMjXCukH/bRvMd5Xh+mwlyWP0PMRuWqeR0VIrypLazG4SUIPaI3SEfi+Uh90TQbhhBT58Sn7SnWFVj0mq/ktD6VppqFxca4j7Hoyi0NCYRUsFc7A7YjqklqdKG5RHJF5o9X3z0Qxkjf28WjlCrzFOqyVFWg5HfnHvwqzW4eWcwB2MLHokoEJYSSJbwlM1c8kYQ6pva0v7pgGqtumsfz4UfhtF5Zly1yV9AEFMZyRIqrra0L+/GZXjnkSh4g1lTxnlksYvfoimOun4OcNRPMnVKhF2IK27CHUY4xceykaXh69I0ehL5yA5nZWj5vjqNmixWNI7CISuwR319UwD+6Buec2oKN6oxhjzdAGvb4Mp/s1xBt2ICzW0N5+tXT61O7/OJIoQKJbp5xH022hM3M+EuPU4ZjG1mvgVmdQOXQvxh/9NIygh2BsPcx1GwCqT1TI6vPI3/EhdIwKGusuhK33sLzvACKD55DXAMt3Acc2YTFggkTftpEsHINdPwI+xEwJEMfG/PSa14oV6K1lFA4/Anf9FuybVSW+Y2WGFpx6XdLudvEmHYutBI2uuo0Fserxpychlbwm6hUVJibcCflkDLfDHiX9Ga1rjMOu3XgLngsvxLaWRCGO/sHvorvnEWj5AkynKGct9n2E7RZa998Da2IS09/9vuf9GhkyZMiQ4dkwNHNwTrf56oJhGHjzm98s/UAsTL344ovPyXbPmARxGGlycvIZ7x8fH5fhpAwvDeIDD8PW/EH5oqQeD8k3MtTvqwhlSYCTlfxqV1CcxEIIlOvqGSSfNd02w2Da2tLTiyqMQGYfdLF9lafLQha8Jps7OQdjwanmYNosX10lLSQh/VQ3RThSe1H/PylRImFh0h3DCERlShPnGLggry1ikYrS5n+svClEgd1FvJ/vkR1GJCAMdBh+r1KgSitYrCOxaKGLhUCF9OEhUNvsl4/K/mnQCwWEI9OAS5ITonToMTitOei5HPTYT2etEkSOjdijFdBF7CkLntjbwlglwEnJqiXnJj9qYXT3DDpzDQScQ/JDGDkHpXVFsRSKEkbbGVUjDvqTYJGQjI7CvOBiGIUY3r69iOp1gDM75Zo6r56H+PgRwO2i9IZbcOihOVQ/+b/TKf88NH56QtJGBS8Ohaxwld7bciGihUUYnicWsiRfktAFGRkJfZjtZWhBgKVv/ll4lSmxrBX23Qt7+bioO0Jc+6pkpyXntrH12lPae/mYkhPA3DCBpHQVov1fRbs0htxobfVvJtoXR6ehzx5Cfs+XEV+9FfWWD41kMY5SFUXN5Lg+iaGpEtyiSCyAud4x+LmckB/OOIlKlV5uSRonrrfrKDoa2m4ipaYjJV2l6J0GVIXWj/LrGX5lGHRw4rgENoSdNoxCEcXzL8BFG9ej7WkSgkB3J8tShxWglwPNe76G7hN7oOcZorL6SZpBS6bvI3Z7aN93D4I3vQ3W+MTLuq8ZMmTIkOEbGxdddBH2798vJOhc4YxJEC1vlJ82bz55uLmPvXv3ntYql+HFQcQ0LvlkW0POJDmIpWmecycJ+1yaylIl9jdOk3PxLyWMKtWtTyCELHAEJZ3NeS4zab/vJnIjmcORAX3bhF5wEPkBlvcvyyJYXGRcjCYJ2rPs/XFQXleRBT1BRcUuW/AaVHhS1jNEuvh8Eh2T5abpa3BGZ6BM6boQr4GdjnY2dt9I8AIjt5NBJ5Hu66J2SJgB7VKDORvV2aLseHx8IDHSQVeRQx6vfgyxxDPHGtzYgel70ItlFPQecgsHVU+LYYqiFCSmil+m1YyWtYDqSNq4KQtwvk5K/HTGM0O6bHg8Jq/cJTHU3X0HVfnlwI6nLHvg8Wa6HAdVcgW1mt73BNxKHlHPh1GqIDEZn52eKzsn+5WsLMFpL0Ibn4JVzCPOjUma3CCDQo4nk+YM6G4b6HVgP3E3YsMGSmnvTZqUR+LGOZFk5QQqraNYqEzB0/NYvva7MH7HX6O0vB9JvijvyXA7SHQdzYtvRmfL5SddR2XHx1SlB8dU7bvGsSdgxg241Y0wI09djHwv/eu9WIMzvx9GaxHGaBX6rvPR2/e4kHraMElwSIR8WiZJNpMEhV3nIWi2EMydALdIAiIpdOk2TSpzcYSeWULYjZEzgY6ngX21JClnC+7L0mc+geZX70BE+2D6oUT9i59D5ZrrMfb2b4KWf15ZNC8KmvfcJWqlwcSJNSDJhOsiWFqEvzCfkaAMGTJkeBGQzQSdOZg78DM/8zP49V//dVx55ZUoFuleWMXz4SBn/C/yzTffjD/8wz/E61//+tPez/LUm2666ax3IMPzRJQSHCTwl5fRPXQUwfKKfPpPXcQq5WGPVGSBmHS7bJSSRS5H6PtpZBLrbBsqOpq/NYofnTpnk0LIyoCEKPVHdoXzPitdmbmJvFDUlPxI+skyk63CWMo6qRAxEKCvwlRmyqgHjOVWXTv9hbZoLkw2c3Tp3OEcTq6ak4QzbodzRZEXIOyouZk+idESTQpS+6pQP2BB7aNSkuSIDYSntPBTMRwhikxaY1ACFah+fxGPW5irIDTzMFodeX7tiosx6h1DxMgwxlOTAMFEpJuI7Cpsv4kkcdO+l9Rux4V4h5Y8T0WMazqsTgC7nINTLcEarQCWI4Qvdj0JSejbnYTcpiqWzF6Vq4oA+i6C+SWxf8VVq18XtHoKef758+Is7FxNTfpznzVnMEImhJGR2+lx0TpN6N0Wklx+cPrlOKTHNDAY7d1B9MRDiNZdKa/pzexC510/ivipe2DtfwgIA/ibL0Zv51WId1yCWtqZw71jiMf6Wleiw91AFZY67Q7sdh2lTl3ZNTUDcbmGeHQd4lxJyGVe70FPApgksuddDP2BryGePQZ9YlreP5Wl0O3BrS8iv2UrihdeIov87pOPI+8E6MWWzPOoDt8EfqsFTbfRnLkQQQ9opCWmTJkrPw+y0vjKl1C/7bMwSmU4m7YMrsuo2UD99s/L7SOveyNeCaAVjoqVfM9Ex3R2rg8lfFI9DU9KmMyQIUOGDOcOUkOhom7P6TZfjXj7298uf7IwddgK3l8Hcm7obHHG/7r9wi/8gpSjfvu3f7sUE+3evVtuZ1cQC1Q/85nP4Ktf/epZ70CG5wmnAN3tIJyfQ+eBRxB1GK2sGErE/hvXk8V8fnJEFvdB10sLTdVqnISEyWFMWzNzhvTynPKRRD9o4KRSmPQuUUrSctQ0qCDqKhua6k1N0834WrSimboQmPxoAaatFvf8nttrnmjB7wSr4QMGi0TNQagBgwTKM1V5reV9i7KdoKesZ7JLtLSJsqNCGdIGI9kOCV4ce/JeqQJxP/vkTeYf0lhwpcyQH6jEOPbyeN0IEYs07RISzYbhd6F7XRgVB4X6EbS+/Chi14VWLMEYn4RezK3GaOs5GElDikCDyiTspIvg+CzCtif7rYsKlEifUOR6sKYmoeVLKoCAkNAJWueUcqUS7JThUe6mZU83EeSr0F0XoAoYq31fPU+chIplnscNaflzoJE8NRoArZL8tJ/nl5cEiZHvQauOwC9PIJ8O/p/OESlES6qnNCEU/DlvR9BK02jWvgm4+pvk8YzZ5rXAPqecHcM2dVFjxoueKDe9QA1GOX4Lxb33Qe80FKG0HDkv2vIc9GYDwbqdyEVdlKdHZB5LZn6KJRTe9R70PvlPiE4cUamEcmEbyO3cganvfC+MQgGlyy5H4f570X3icdi1MZhaWXbYX6lD7zbhnn8tgnXbB++NAuljR4Abz4vEg3ymoArLdDUqKOZQkIDMbVVrEuPdvOsrqFx3A4zc85CZzhF4zbUfuh+NL38R7tHDst9JsCjpc+wVE4Ldf2wYwBgbh7Nx08u2vxkyZMiQIQNx22234VzjjEnQ5Zdfjg996EN4//vfj4985CMn3Tc2NoZ/+Id/wBVXXHHOdzDD6aFPb4E/dwStex5AwkXwoOEzVVT8AN5yU26OqDxwSL8/lZ0qOjl2+XihzNFISEA6LyEY7gbqoz/S029kJdVICx+5KhZLmTAjtSOKDKkNknRR8WFHjiS80eJmGjLzwqhDw6aFTk8JkKUCCtICVRI1qjJ2xUF50wjch4+fkgxHO6D6sz9PxHLPNIUtSBBrEfTUWjcoGB0EQiiSwdcNfUZyQ8IJ7FwBQa4KtNihFMKyOetiwNFcxPOzQvg4ZBItLyNs92CtXw+jVht8EkOrFXtzGqVNiJfmUewdh1UqyXtM2MfCyGxGEHseOodOILd+HRJ655gsZ9uI2j30Vjpw6x2xL3KOimlyZtlCpDsIhZwZsO080GnCDElsLLHlKbFDRYSzYLQ3NQF/aiviiRkk7CFq1aExwEEKWmMhNVouh96FN6K39XJUSjXozRU1YzQEqjRauw4tCmE8dS+qYYz2tqth7T4vDQpUCqOcnv714gdwTuzB9MGnwezpiS1VhNsuQlyeEjWo8OidMBrziKujEsQg3UsktbYDw+ugvLQXzugIate8FR2+v5gkUoMxOY3i9/4Iwv1PI5o7joiEfv0GrH/NFTKLRnSRg/eW9yE0PwZt3yMwm4fAaigUq+he8Sb0rnrrgDj2LyeqRbMNPOPcz+ngHTuCcHkR5jPYxlhKG8zPShFqYaf6AOnlQOvuu7Dwzx8SguNMr0Pcbsv8T9Rpq/RGEjhdQ9xjikMivUUvJ2nLkCFDhlc3smCEMwHXl+wo9X1fRBgGZJ0LnNVW3vnOd+LQoUP49Kc/LTNA3Kldu3ZJYsMLiajLcPbQCyPoPLFPESBZ2FNZ4MxMevFTRQhDuIt1GI4tX7pJxceTdDHCLtgoTpTQXerCKSfw2cOTJmed/GIqOrpPMBRUJJ0QHw77MytYSk0jWeQzyEDS0AxVbDnAYPyH6lQgr92aZVpZojptiuzKSRO++HjyjDBESAmh1UN976KQKYmZNtRsE7+EwHH9naauSTEp46yF6NAOpxIkGDfNn1XKWjpjxE/rHRN59hotu3CpFqVloWbZBLbuhNltIuJ8xFwHRs5GUixBoxpjRtCZXBd4CI4dg5amrRl+W+ZiIrsASwuQrBxXCXNcnAvpSJBwKD+Xg2YZCJsdePNLsGtl2Sf2FC0fWETArGY5brEcU6pgxakqrMlN6WB9hKhQAzo9RIEOiwQzDtGbW0Z3dhlBR6X3ed0qUNiBzubLUXK/grA6KrNjLDnVODdkmfCKIzix9fVIzDz8y1+H3Bc/JPNBiVNQ11jgwWjXgcBDUqoA+SKKB+5H4fDDCJuvQ+fqt6XS/tCl015B7fa/RW72aVHZpIjziA/z/i8jufZtwHmXwnz6QVF2tNEJxAeeQtJtQ+c8kGbAIPNuN5C/4nJMvPa1COu+nB+H55b7ZFqwdl0AY8f58MMII5W8ECA/jPHwwQRLbYpEFeDq98LcPY9C6wQ6voZwYhOSYvWkyzJ1gAmBO7SQnBUJkjQ/iVk/vXokRIsbJvl9mcA+oOXPfUq+d9ZvlH0OG3X48/NC8hPPRbCyPIi6L1x0MSa/4/kV0GXIkCFDhgznAgcOHBAL3J49e+TnDRs24J/+6Z9w1VVXveBtnzWVyufz+NZv/dYX/MIZXhi0yIM7u5CqHsMLr0H5Tn+aX1QNcacFgfS1cC3mtz0hE3xcbiSPoGtCN3yEXqRmdNLeHEkmG4QWJKuzAuyw4YYkblvN8vRfms8Nur4qKDV0GI6pCjn5PafPAbh1F40jTVGg+qvmoBcicEPkggi5Wq4/mKDKTg0Tnfl2Wi6aBhlIPLKK0ZaSV0lcI/Hh4lj+O7DMEZy1qW0ZlxkIRnwzkppgrLb0F+UcODDgNXsq0tpMoLdWYFpK1Qk4Q8I+mtEa4kRjMLMEqyGXU2laJEPLi9BGRiRtK6mNwmk2YYULcD1236TnhXWqoSfKi2Y70DzVWRT1XOgzU7JPK08fl2NoFR1lKxS7lyKZTJErz6wA0+sQ6gVYVge90hSSwELQNBEem5dZGdlD00CUqyKZO47irX+FDpWPXdcif/hh6FoOKOZkl9zcGE5c8E60J3ejmETovf37oc8fhfXEPWK7lHNASYl7WqoiuugahFYJSWkcRreO3ENfQLhuM6L1F62SoDhG9Y4Pwjn6OMLxDfA0B6w7guVDqy/A/PLHkBiJzKzF+aIk1WnbzwOW5oH6ikoOLFXh2Bqqr7kWhpPDeM3E3HJH5nZIAkmEeB1yrquYs1AtO2ILvHd/ImWtFJR4+fH+oDKBlfLJSs3AXphmT4iKFakQhTMFyXTv8CF4J47BPbgPmpODNTIq8dK0whFRqyV2M2tCnd+XA90n9yBYXoazfr38zL83Cjt2Q7cdCUAgSeK1Zk/OoPya68RSyPsyZMiQIcOLgywY4bnxsz/7s/JhOGt6crmclKb+6I/+KO677z68UGQTr1+v0A2JsCVE0ViLocZRWSj6oSgmJBH1IysIOoEazu/341D5cEiEDBgOxLYmyg5nM+T1mNCmIw4UORKrmiTMKebT79VRSszqbVEcIQrVHE5hrCjzQCQ+LGnl61tFC6HLhDrOYGhpiIIvi3e7YKnIaYn2DkUFUYqUssgNK0x9pUpmUNLQBpIwscOlVr3CujHYUxOI2h3pNWKAA/eNi8GYakiswXIM5CoOenVXwgh0zhh5c3KMGcaQGyvDLDqiFMWJoUozhXyZ0BIDYXEExW2bYRYLaBQ3It73OMyFI6Ia0XKne646Yrk8DLEe6aIYcW6GdkB24/huJASNx4ohBukZEPWIVsLAC9E60YCx/kKM2r5YzI5sextCw8HUE5+GNntEFBLkKujkxxBXJlSZbX0RhQc/j5V3/QRau65HfvZpaKGPuFjDiZFLEDgVkKdxDioxbbR+4FdgPfglOPd+FuaJ/TD1FUTrNiNZvwWJYSOhrYwL/EINyVIdzlP3wt1woepdotI4tx/O8acRjU4jNm1EPskpEMKAMTIB7cQRJE8/Ku+f9ixh55YDrNsEff02OccUVrSlo1iJ8+iuxCjnDEyPFdHq+mj3fLn8qH6VCzYqPC+6hmPLMRodFqcCpsE5n0RmfSTPY6jft6/89MmP+l1SfzI/4kzQfuQhHP+L/wV3/9PyIYNchJ2OhCEEC3NwNm8V4hPWl8Vaxv6flwtRu52WCa++Odou8zt2wVm/Af7iogRabPiJn0F+246XbT8zZMiQIUOGPu644w4Zx7nxxhvl52uvvVbUoE6nc0pC3NkiI0Ffp4g6PbUwDyJEgT+YuyGROaXihOQgYOpZjJUDy9LxI2EA0pvDYXra1jRoYSRzJyQ73IYksxlKDWJcNQmFHweymDRMEiKGDqx26VCFkbJULqJTZab/+rEZI2GMcRDBbaiiVSow/f2WbXHRq+uS8OG3fRiWUnjsoqNsbTIbFClSlL5s/732Y7IHatRwrFmqljkjZUmYMx0H7koTcaMrx8Rd8eAJ6YnkWLBXyMqZknQX9QJEGueYdFGn8mNFNUYjxa06IpgwkgiaalgVcpOMTKFXqAJMUdt9Kaz1MzACH72DhyU22yhXoZerkroVRbHM7bC01BobQRL4qgeIxJSvQz2L721wLnmMIHNIxcYxaAUT+s7LMF+6Fr5mQd/7MMqFCbi1DYgsBwl7c5IYppYgrozBnD8I5+Aj6F7xZoSj64UkuL6OwGW/jhr3ImFgDoNl6PAvvwXe5beg9NWPwHzoC0imtqg5s6ivaimETgn6iUPKQmgAFPicxYPSnRQ5BQSheqwn4qMBw0xkHkpfOIZkwxbo+x4TiyH3IIhog+N71uAvLyEwK1gq7gDmYlHeagUN26byGK3kVShGSnb7mF2hMgQ4rD9KVDfQIHVwiAQNOqmGx97Sx20YfW5PdeuBe3Hsf/8h/GNHlV0wn1fdXFJ0GyBsdxA//ZSoQKWLLsXoW96BlxMMP1AhGIr4n3RfviBBEgx2cGY2vGz7mCFDhgzfWMhmgp4L8/Pz2Llz5+DndevWiSuNt7/QzqCMBH0dIna76Nz5BfgtD95KRxGadIFHy1eukpcFNEkMb4+gi6Wrs9SB23QRdiLErprjUYt5LoJ0JMUEhhvIvI30CMmMjwoNYJGoXTRRXl+C1wzETkdIj46UTmoSsIA+WaGVKSUpJFEkWX7dRb3rq20KYVGKzoAIcbYn/SheYrdD2rl02a7q94nTaGkuetW+DwIO+t9Iv5AxFP+sDoxdziM/WZNEtbDTgr9cFzWtPd8UAiRWOu5DFKG31JXvi9NFeZ7aLCO0YyGf0tFD9UbtuShNUaLDN3PQtlwIq1JkWDYctKHbgDVVQfKWtyL65KcQNpuAbUt/j+sniLouknYHzuadWNl+PYq9BWURJGiVS0MslDOQcyUREHJ/dfjrz8fE1ZdiuXYe8odNKVJ1Vo4hLlRgFPLSgRRxn2MNepQW6rKTqDkP02BMOsmKBjegorVaE5XEOppdoFKIhNDI+5dvFEMg8U1rpoYuygiBZqPjWsjZkaTGGZIwp8Ey1BctZnwfUzUWkxqiCJE8JhdejWTuCJKFWUQj00gMqoM+tOYijMCFfvM7UJqoyTnm6y62SHJinLdehzFI+lsFOWX/n4BoDQFaC/n9SAuH+xyatTkbnmMeiCrs0ic/hpDqCa9/R8WkJzlKT4FYI8XGGMfIbdmG6X/1Q2KHezlR2H0ejGoNwfIS7ImTi69JjKJmEyNveLPMqWXIkCFDhgyvBPBDzna7LcSnD35g3mq10OSa6qXoCcrwyoF/4EksfvVrQmgkUpozK6kSwp4c3s6ZfRINqhXaXEesX17HQ9AIhQDJipfqjxARWmVU+akawdEH5IQgASEHCLoRnKqG8roSOnMMF1CLdTX7s7rC5DwOScTpEPu05DGAIe3gSW8XosTUNiFQSpFxKjmZIRKlSmZ3TJmT6ReZynPTj/UVmWOynKF6efrJbww9KNgY2bkOjEmLPA3eUkMWpx7y8PwGjGIe1HS4EWZGaFSs/Bjdha6ER9CapxsmQs5UxRGSTgdaqayOFWesuIB0A0QbtmFyPft7YgRgAIIGSyfZiAFLR/Xmm1D/8lcQ1huIGh0hEwxZMLdvg3vJa7EPF2DbxDzypc/LeZO5rD4LGbxJzsBoCDadD/3m96C6RUdz3yK2LDyOcfcQWsEx+N0W/IID36kIOTVYIhqyB4jfx4hNB2GkIYqpuqmIc5LGPq/hEQ0jHfN1oJBLkLdi6BPb4GimRJNHplrwD843bXpeB63zboYX6fB7SrnK5zbAhinBEQYDIzRlM+OcDkt+tV4H0cbd6Ky7DNZr88jd9XHo88egN5aRdFtC9LSRMWB5EQktftMbxeKm2QnqnQSNLjByGl6Rt4HlvrWt04BVXxTlIxybYTGWunxkx2n9S4lQ2iXMequrd2oSjy0dP426EASjUpWi2D66Tz0B/9iR1cTFvmWR31u2kDP+/hm5nIqafpkJEGGWKxi55Q1Y+sQ/w589AXNsTGyTcactM0GcFapce8PLvZsZMmTI8A2D4Q9zz+U2X01I0hC2tbcxtfol6QkaZlrPhefDxDKcHZoP3o/OkVkhDrrNIXu1gOfinwqK3/KhWwYKMyoEwG+24Xd8eMseIjdWpKkfE801HHMLKHS4iXxpTvobJGnXKsqa4LY7cx2xzDFNjVCBCGf3G8dFN+c0JNjA6nvLVOcQCQjncAoTBdjl9NP1NHkrV8lJoAJtaycNdJDTpTNLqx1Airzlx8sYu2gLjLwjXUqiarFQlZa4gw1ZHBulnBAkfoJPWYCbZrqcxEu3fThMlIuYekdyGCk1hqlpXCSnPMxzakJ4Ol/9CqKpMSTrt0Jnf5Chiy2qfv8jaO3ZLyWoVLusmWkUdm1DvH4bZp0tOBSsB4wC2loFpVpFQhr8RgdWMSfBFv3OHtoIuciO1m/FvhM6pv3DqO39MsxmWzqJ7PUzCBcfQql7HF7UQzvPGGpFPoKehxAmlicuBmILMzVgqSmp2vInQYLS747lBUDhq92jhe9iYHQnSvNPIK7NILGVWsAkOnvlOMLSGDrbr04PvIro9jZcAHd0E/Lz+5HMbJIZKsl54GMYs63psC+/FlHOgLf5ArTK4yj+0x9Ax4ooQqiNw2bv1MN3Ijn8NPR3/StoG7dLWWrPT9DoxBgpnprGNjOiYe5EE/adt6K0/yFoLmdhdETVCfR2XCXlq+XWMeQsoFXZgGTbhZiYLIr6U8obiLpdLH35NrQfekBmeXTTFAWlctU1qFx3o4QF0OImMedre7QGFx/to0Ox9K8QVG+6BZplSU+QPz+nCF4+j9LFl2H0re88RSHKkCFDhgwvHuiX6M/9nsttvppw24vQD3RWJKhWq53+H/ohvBAmluHM4QcxHr/tIVSZXsZkL17uJDQh54PYw5N6jqDBW+ZCjfnQLN2ki6pPltR8j+rIUehvI/YiGM5Q4eaQoNOPpKYNT2Zm2C3Uj5k+C6jZIRWjbcISAiMJX1EoVjmSGRKefjWomKpIaEaLcJs9eE1PIqRpjeuHNlDpknLVlC0UxgoorRuFw7mRbgdhFEJz8tIXFMcrSDo9iaWmygOvB42R4mlpqiSxcX+CGF7TVdumskW5RDcRV8dgjY4IofF9qm8+EsNBrr0Mv60jmT0Kfe9+WFdeg6Sax/GP3Ar32CyMgiMR2bEPdJ8+DL8XYXbsFiw5O2A66r327rkXzacOK5tYksBlxBktfjKwo8nMkblxA5anL0O346N37C6UTBdeYULUDG3zTuDICQQri3CKMQKzAM8qw/Taooj0Nl8iKlLNBi7cCDx0EFhuAwUHkLC8VBEhKRaLHNOShSibmLv++2Dc/TfIze4V8qP+StCkDHbpuu9CPDZDEUwULuGihonl69+D8S/9NXLHDyGXc2AnJoL5LvTYRnTV62CcdzmKuo68nSBi2Wi3jmT7hYgSS4gb+56Scg04cQjxbf8M/Xv/vYqhjkL4jz2CE594AMHiPIxiCaVLLkfpsiswYmiY+vJfI9j3BKJCFWFtCnocw1g8itpT9yDh/EtFpbYVEg3Fp2aw+b3fA8fegJXbPoulT/4L3EMHhezqTk5UINPzsPixj8A9chgT3/HdCBsNKbkVS6dEXw8V1cpFq8I4+PtZvPASvFLA3/vqdTeifOXV8h45w2SOjMJeN/Ocf8dnyJAhQ4YMLzVe+9rXvrwk6MVkYRnODh/+1BzWsd9lkJqWrjqpSIQkEkpVEcUCJBSmegwHMuJ+vHW6sbUKjjxv6GcJFFhdGJGssJCSljazymLRCAn7dqSf6MzfAxdbVJNoOaPaEsgsUDobxLJUR0ePXietMFCcaEXK1QpSHhr4TLZLoPmKrFCKCVlMyrLMnCFx14XJCpxyTh0Hbruch+cmcOfZi9IUMsdIatrNjHIeiWEicvuhBOkiliWqDHKo92QuySrlxOq3tPNNmN1yI+z2AiYe+Ci0fACtUkNJryOBhSgJoDXmEd5/FxYiC+7xWeSmx1QBqDSx5mS73pFjmLz/wwjf+BPooIjKw5+F9eBn4JoV5Kse8nnaF9sImYKGGGYxD7OYQ6wD7dwkRruHYbkNtBnHLAPvQJzLw776WvgP3Ido8QSs7j5EzoiUnvZ2Xon6de+BaZnYPQOMlIArtgMP7ldEiFYzCk1i06PtjOnfliJI3AVPH8Px1/84irNPoLi0H5YWAWPTWJy6BElODd0LcUorcXgcvZGNOP7Gf4Ppvbdhw7GvCOF01k3DvOqNmN3wGlDjopajuR3oTz0ElKsIdUv9xdQf8+I1OzYFzB4BjuxDsm4z7M9/EOHBB9Ch3S+fl36b3v69ElaQ37kbpbmn0NuwAd3Ikus+TgJYnQZ0krfQQzI6hcDKw0xC6EvHMff3f4P8tu1ofOVL8OdmRe3RCwUJqmCXDg+Ks2kzmvfdDffgflGC4l5XotQlCIGqkOMMeoJI6Al7chrVV6DFjO/v5SxtzZAhQ4YMmRL0csN8uVlYhjMHycJtdy3jR6oceqAqE0nvj0ASsdXKUxvYxEhOOCOjiz2OCkzMVW4ai30K1ig/g9sG36Y/cJZI10St8Xs+wm6Q9v2c+Xsh2bFHHSFCVIRk/oUx3WkKXdQL0fZasMs28tUCnFIe3XpXqS4MFOjPI6UkTQpRvVhI08TudTIHxJW4siPpCOaX0D62jERCB1R8OJ8bss/INGDSLieErp8ursliXhLs+kl5DGmoOKjeeAOabhnO8Qdgei10yzPIHT+Abv2oHPOAPTETE7CW6ujMNmDVqmK7419M3cCSIAUuluN8CeFD92Oq97voRA6cE08jKZTRqW6Wx+Za++T96HkHiR9CZ/JcuYYwNjD9+KcQX3i1/FXnRwZMIxbCIipMrQr9xlugzx0G2k2011+HcHo7ovGt0HwDE0VgS+p6quSB688D5hpAvUOlUVniaiXppsXsCtBxFRGilc22TQQjF6FSuEiUGrmcllI+nV520gdLSx2vszBCef9XMX7kbliJJ0wrWlyA/pWPo3ZxG43zXyfk0KzXofW6iIsjsl3O9fD1+6oSVbwkCoBWHcHxI7Ceug/59ZOwSquzNlIOfHA/uk8+DoPzLzUH1ThBx0vQO7EE3e9K7xCtjFFjBeZkHlVaOysb0du3F96RQ4P4aL2Ql+uAEdKcm4laTYm9DhfmEc7PoXjJ5SgYOrr79goZYl8Wi4uTfnQgNJjj45j+gR+BPfnydQNlyJAhQ4YMGc5xMEK328Xhw4fhMwVpCJdc8sqxfrzacOyEi5wWwNq0ATi2V7p/lE0rfUC/GoiD6mnru6g0aaGkUWAymgodWNst1A8RMJhuNXx7PzqLn8ZzBILkp8oiU/W9U3Rg520pqJRgBi9A0FL9Lc+KdKaHRIR2s8Hj+8MvBLfX9mE6FiJDExITuSxzValxJFJ9DsgrWRLkIsgcD1UbdgvxGERhiPaRZSE5fC9UtPh8pt1Fbgi/3kHQ7qn4YPkPZ39iCWLga3AxzChrlsjaExaqx++BXZ1B1HgEYdKD/tiXRMkQksj9b7fh11fgmxbCXgR7ZkoS2rzIgM9AAL8nnT0sBQ19H3bQRa4wIqWjSU9ZGAPGkuuO+NGMJERiatJL641uQ2jkUFg5CG95PbSi+hyJHUshlTAT8uWTyUyMIZqaQm/Ha5FoBrqeLqTnsi2qP6cPfr9+VH2tBRWjxSZwdBmSGMd0NtcHZhuKqJB49WOnJfhAufaUhY8hBXtuR+XRz8AcLcNZtyW1YcYIV5aRu/tTKNeKaO68Dq6dg2GayJsBioW8igGPEjAHg2IeFRx6Or1Ag7PnbuRL+ZMIkFw6pglzfAKdRx4SEkTwXJfzGnS/Ad/UwNi6hAWqWoBiSV0L3NPE9xB1O7Cn1qltDVnDJGjDMOAdPyb2MUZhM/DAyM8IwaZFLmw1APYE6TqMfAHFy67Euve9/4zipmPG17uuzIHplv2cj8+QIUOGDBkyvAwkaGFhAT/wAz+AT33qU6e9P5sJevFAbjBSDIHNO5A/9Bh6h0/IHBAH9mUYnTMjMtCh5n5kroWpZbStySqVaVVUg0iMhnp8KBixoyfPoIWTZVRRWGT2hja6BPmRPOw8S0xT4iQJdAxPMCWUwMpb8EwD7krvWYmQ7DNpg5rAV+iHHfTzreNUUfBjtA4syMwSgwG4iKaqpUjU8FZV6Wrj0BKsginkiegutBC0XVEctITdQ1QYYpn5MRwDiatCGvrNzZoey/twytZqDxHnlmihazTR+/v/C3P9eiScSzp8CIbnI7JyiHQdpjqYKnKYPTFcxHd7SPIl9EIdWq8FffE40G2rMh7OZzFGur0oczaIfJjdulirkkJJhvjFxRgpNkBboGWbsNohAr+HsGSjoPuwbQetHstpEyk8Zc+qgR4WRi4UoszXuHCjhg1jQPEsEpB5io8sMZZaER6qQTysdCu6gTpddCzSLid2uOGxGK+HwhN3QLNzqE6PDh1LHdbYOJITx6E//BVcePM1wIYJHL9vOzp7HoE+Wpb9JXlhlDdJV7CyBK06iuq6MZhBHc6omulZC84GEVG7ddLtfaJItxrthHZOzaKpHaXF00PU6cA7dkSUnZAkNF9czTSgOtluK/skkyTkOtVgT6+DNT4h9jj3+BEUz78I637o38A8gzQ42uyaX7tTLHx8Td22Ubz0CrHP8fhkyJAhQ4YMGV5BJOgnf/InUa/X8bWvfQ233HILPvKRj2Bubg7/5b/8F/z3//7fX5y9zCCYnnBkUVpeNw7nsguh99rwmj2ZzeEdLErNVRxRQqSAk70qfoiwHSFsq9ABgfAHpXCo5lMNRtGAWTROOxxNgsRZmMJoAbVNNUVc5HmpNU5jHHCUKiEaCuNlWKU8WsdWlCdqeFv9QXKmdXVUKeigB4eL1KG44URXwQcyP+MH6nvZ3snlmEMbF7JCxSboMEVODe/77Z6EKMj7TyAzR4pMqRAGI+cgll6iNCKc+8HC2JRcDto15dgxQCJCcOSoemscjre4oE4VOR5XSg0kahS4wgC9A0dhjFRhF2sIFhcQe64M6vP1Sea0RHXKKC+eei3Nd2EgQmRaSJgG12zKLFa8fx8wPQPRC/IF9KpTGPf3wogqSGwH3YAhdyEst47QLiGe2YVdUzo2jKkuoDOBvzAvqgfP63x+E5Y6I6IgCW9NE+QmKwCrongTlaWHDwF1EiNfESG+HWf2EKz2Eqob151EjvrgQH6wMAf/+FHkNm/F6C2vh3voALzjR2WWhoQvb8QwekuIjQCjb7kFla0VHNUSUZLiji12Nao+g+uBKmipLGWl/GISmpy2UgkJn+N5Ym8zR0bU4+MYnaefRDA/p1RDV6VDsIw2ttui6vA5JElirww0oDoi55XFogMFamQEVrcDa2TkzAhQfQWz/99fwj2wH3qpCD3H13FR//yt6D7+GKa/9weEYGXIkCFDhlcvspmgs8fevXuxb98+3HzzzdId1A9me0lI0Be+8AX88z//M6666ipZ+G3evBlvetObJBr7t37rt/COd7y8reivZuRzBk6sGMibIQozE9A3TsFcWlGLs0QVpTI9rXWsrvqC6j34SwGibkpa+tdIoGxfesmAWTAkqW04AOGkqyMG7KKNsa1jsIoc9iA50RFRxaBTjrNGBstVFWGwSzkUJkbEblbdMIbZ+w+kKXIJgl6EsBMqsgHV90MSYhUZFqBKW2ReZvhiTj9xFyJGpes5rnP5ZeBQv6GL/Y2pcJ3ZLrpLPRX6wJc2IUEHTsVKSYg6drqkC6wWx8ickox4cLKeCdZMoLPEokYiyHQ4eXwcQTPT/ebTAxKsCJpmMANB5lqoIKHVFtWI95GgySFmsSvPH1+I0WrcHrcvpCgGlufhNgIkfC1uf7EOPLkHboWpBm+DdtE1sBaBaO4wnKAJC4wfB+JKDcGua7Ftw6TY1tb+BUElrNPz0el5iMJY1KJc6KH3+U+js+dRUT2Ipl5BcftVMF77DsBZLSojijbQSOd2rt4BPHEMWGqxgFXlP4zmQ1RzMcqlU2Os5dRyTopkMFWPC7t2Y/o978XiJz4mPTb94lyzWsPoG9+CkVteh+add8Cfn0XEGSIGEWi6dPAwtMCsVIUscgbHGhkVVYdEiySJ93lUfLodeSzJDdF56gl4B/cPOpjUQJiKx0s8D6GnSoFXD5yGcGUJnSf2oHjeBQMiJOQ+CGBNnNn8z/LnbxUC5GzcJCRKUC7L/npHDmPpU/+C6e//kSyxLUOGDBkyvKj40z/9U/k6ePCg/HzhhRfil37pl/C2t71NfnZdFz/90z+Nv//7v4fneXjLW96CP/mTP8HU1Oq/dxyP+df/+l9LkFqpVMK/+lf/SjiB2f/3DcAXv/hF/If/8B/w2GOPYePGjfjP//k/4/u///vPeD+XlpbwXd/1XcJD+G/j008/jW3btuEHf/AHMTIy8ryEmLMmQZ1OB5OTaqqaL0p7HEuMLr74Ytx///1nvQMZzg62FSMfNmEGPeQ3b0DMSXbG89qW6j/NOzLsHy8wvQqIerFSfax0gc7FWtqMGXUiWGXj9ARIXGnKblYcLw4IkNzFUIN8XsIERGHhqtsP4bU8tBeWsbJ/SZLcSjMjqGwahbvSQXuWczerYQZiL4tiKWAl2bArtJ6p21TxavqVrktFlUkSCQoIqCClNrxhiBKVsGTVkUjpIIqw+Mgi3CWSlaFZowgIqJB5IYqTeTVfxMEYEh8uyFOFbJASR/egocEimzCUWiZlsqm8Ifsd+OrTF84hpWEMMedDHB1ReQKYn0XS7g6CGvimrCJnQPqHm+dFzcskTL9jv1M7VpHnoroZQI4kRFOlryt1aJ/+ELyrr4F5xetgNhYRL80KwcoVKtCnNg4W6GtBe+PCcksI0OATlJaPpQ//LeKDTyM/MYncps0yRxYdrcN58HNA0ET81vdJ7PXgEkkPP0etNo4D1+9OwxU4etWpwzF6WLB1hE2GQ6TKyxDCdgtGoXiS9at08aUo7D4P3SeekOfpuRwKu86DWalIctvSJz4Ks1BE3OuJUsRDEywvyZdZGxGrXe0Nb8bYm9+OpU9/At3HH4V39LCQJRKOuNtVYRKLC4iadXiHDqgT3T9W7Io6XWjIkNLE1xaSFgQoXnSp2Nio7BjFAooXX/pMv7qr77tRR/fRh9X+Dv0DoX43DFjj4+jt3wf/+DE46597pihDhgwZMnx94pVQlrphwwb81//6X7Fz505ZE/zVX/0VvvmbvxkPPPCAEKKf+qmfwic+8Qn84z/+I6rVKv7tv/23ePe7342vfOUrgzEYCiDT09P46le/ihMnTuB973sfLMvCb/7mb8pjDhw4II/5sR/7Mfzt3/4tPv/5z+OHfuiHsG7dOiFVZwLuB0kVCdf5558/uJ3EiOTqJSFBu3fvxpNPPoktW7bg0ksvxf/+3/9bvv9f/+t/yZvJ8OIhCnz8m6sOwlw4BrQbMBEhP16DO7+MuOeqD7AToDhdRejFWG7XldWMBCj9tJqQRbyuiFDYimCPnMarJB+GU1XRZQ5o4J2TD8x1FKbHYOVs2Wb9wALq+5ekjFMlq0GirJvHVlAYL4iFLWiFUkAqi/zUXiZkJ2EBaAyDyW5pKINamKvXITmhSpMrWOgtt0U5MnMmgl4oxarD6XB8YbtowankKLGgc6ypCJAM1QwpYQSFFpchCgHyVSc9JmlEeJpURyLSn7OyyzmY7Pnh49KNUYlgm6g67roajOfAkTLuQaNaZuiwoh5QKQIG1YI0nIFzOvzqKxDpmyDp6VsZhVwOxURrsm3mVjtIDAvJwafhf/V2aLvfBW1kEvrImRVdLjXaaLQ5s9V/7QTRE48gOLAXxsQU4kJBXk9CIaqjiCwH1lMPIrnwOiRbzj/lL1qGIcj51IBKVMfKF26VcIJWr4NwcUFS1/LbdsCamh4oGwwDiBp1VG+8RZSetfHNpUtOJhMMLah/6QtiZcvv2CXx1ey5iTssrVUx8YHvCbEg6Yl6PUy953vhL84jWFgQckESxO9bD9yD7hN74O7fmyqDlhAZodEsxKX6M/yvCPeZJFQGiiKV1JAkCJYW0XnsEVhjY7JfI298K5z1G5/z+NPKF/W6sJ4hNY4lu9w2H5eRoAwZMmR4NWPt4uRcbfPM8U3f9E0n/fwbv/EbogzdddddQpD+4i/+Av/v//0/vP71r5f7P/CBDwgJ4f3XXnstbr31VuzZswef+9znRB267LLL8Ou//uv4j//xP+JXfuVXYNu2cIStW7cOiAqff8cdd+D3fu/3zpgE8XU+85nPyD4Ng+Tt0KFDeD44zer32fHv//2/F5ZH/PIv/7IEJGzatAl/8Ad/MGB8Gc49ksDDkVs/iS3+fmhNWuCUwuOMVlHaMoPcxAjMUgFWqSB2tNq2SbG9KQtZPzZuFauL0ZNT4gYQUqEep9sqaW6wL1SSUgtTb7GNlX1zEtBAlcbM2bALDuyiIySiO9+GV/dUuIIUbw5/7EEyoCpRpci1P6OUrKpAJEDFqSoKk9VByWuuasMumakCo0pNCSpA5XUlJOURRE4RjX08TunfB7zShwSm/muRnJHU0DoXeyQxiuhxP03bECtgrpaTctjBrJKoORqMakUW14wd53uNjVTWGchIXL3H0DtNITxW0ZZ+JKbhiYoVshA1tcAhQdD1JfqbxE5XHja1DYZc8HgzzCFXRFysAcWK+vkuJQufKfwgRL1JRSoRO6uRfsVP7lG2Q9NGyNLcdP8LdoKE8dScgdn3yEnbYjACAxjGy+rnsNXC7N98AI2v3K6skZPTyG3bLmECjK3uPfm4KCZUUTgHRDIz8oY3n9F+9/Y+hWB5GdbomGzbrI2KikIiStLAOSB+Fc6/CP6xY5j/h7+VxDV7fBLF8y8UNYkWOCpcE9/87Rh76zeJ9YzReDyH/etRIrLXDjCJkmqL8sQZJCFEUqSkSXQ2rXZT3/W9GHn9m571XPC6odVw6VMfh3f0ELp7HhG1R+aNhhGS4BuDeaYMGTJkyJDhbNFsNk/6opXtuRBFkdje6Pq67rrrcN999yEIArzxjW8cPOa8886Tdf+dd94pP/NPusGG7XEkNnxNWt/6jxneRv8x/W2cCbhPhYKysg9jeXkZDj+Ufh44ayXoe7/3ewffX3nllcK+nnjiCTkg4+NfP4lGf/zHf4zf/d3fxezsrChaf/iHf4jXvOY1eKXCe+IejHSOQOu1TxrvITjYn5fh/gBBvSkL5sJYWVnOmHomUdkniTmreI5peaoSS08tYmznmMz+kExwAe3W2zALObSOr0jBqDi8OCvkh9L7Q1Kw+pqKvAjdOUWnVfNIg94iUYDYF2TAqRZQWT8Kp1ZAZ24FTjUHr+lKTjMDIOIiy1ZjFdVdycmcT2w5CEsjcLSuspL1CVC6bUH/AIqXajUGnKpXP62O2yT5I2npP5c9NHGqkMF2YGgJ7JEyegtNaCSlfaVm7WvFkRChhKqV/F8T65sKQ1AzR5Lk53M/SPxs1WHU3xSLc1IFLbHzKuWOhIXzML2TU9CeC+2Oq2aAJNBi9dwnnbZa4FMVimMhSyRDci2xf8iIgO4cgsRHBFvS4ChUbZ1cTZtr3XuXqCtUQ/oLeKo8pcuuQu/APoTNJsyxcelQKl/xGpSvvHqQ5vZcIKGRY5HaxxgwwX1jIIEcC5LQwJfv7fUb4B89gs4Tj6F82ZWDbZCAUbnhn9wfCa+wbcSeP9iuxKqvTbikMtk/F7zQScZZpprLCSmzZzaidNkVz7r/3Fda+Rp33iEqmKabYvejPU9fmEd+5y6xBsp7o7VvbFzCIjJkyJAhw6sXL2YwAuduhkHhgsrM6fDII48I6eH8D2d6GHp2wQUX4MEHHxQlp1Y72bFBwsP1M8E/hwlQ//7+fc/2GBKlXq8nAQfPhZtuugl//dd/LSoTIR+ExzF+53d+B6973evwkvYEERKZnM/jiiuefQHwSsMHP/hB8Q9SnrvmmmvwP//n/xRGSptff97plYS410ZwdC80n100z3wuwlZbFlvyCTmDFCbyaB9ry5yNWvCulvD0SQftZc8ImcXR4Lc8tI63UJ6pSFKbihSOJPCgPVtXtjFDg9fxZc5mmGTw25CRYbGGmLY8LliHFpVqX1RAAIkPyUh146iQOKdSEDLiMd3NC2EX87CKOfgtFxG3SZJVoWVOF1VDyzmwqlWYYRtJ4KaK0unmO/ovPPQjiWKaZMftUYGiKhOLE1C9XyFySSKLXz1nA76HcGQduvEodN9FrnF8aINDB0COh7If0t7HWRu6EemgE/ZIRacfApB3RDnhQrw/o68i61icQ4sd20w5ixUxEBz56YmT3loYRmh3PXkNxzGRd9LkOqpA83NY/vxt8B95SLajT66DedFlMHZdAK02gmT2qDLykeR6wSpf5fkikauWYWmLaHgVGHoRMyOMy06wd5ax3BHiu++Bni+comCQaBR27hZb3Oib34bqDa8964F/o1IRks2kNqpSTHMTy2RfnYtCUXQ4G0drGokl7XJ9EtT82lex/JlPImzW1XFi8enKsljhJOEvUqpc4p3ce9Z//5Lo5+RWPzRIEiFADF2IO89NRFv33yszTUZ1BE65jKBURm/f03Jf1GnDPbAPhd0XyLwQZ42qN9ws11mGDBkyZMjwfHDkyBEJLevj2dSS3bt3C+FpNBr40Ic+JMEGt99+O15JINl5wxvegHvvvVc6Sn/u535OlCYqQf35pJeEBNEfSB8fkxn6fjxGZ3PI6esB/+N//A/88A//sPQdESRDHPr6y7/8S/z8z/88XmlIFo9BDz3EtCQ902MCRmCnC0GNMdEexs4fR3ehJ8RFLGxpirMQIBn2B4zSqSRoEFvND725II+B7lIHuZEcjDQ2mvY2f7GBsOvKopkVN4ymFsjrKNWDBIzfSFeRBJ8N9QAJIVL7xF4fvq7lWChNVWEVnEHwARUuCT0gWfDZ4eMgP1qSbVN5IiESYkW1pNmUOR6ThKnkwK+nfUVrD1x/Fyw1n6P2W83BkAARjB5n3LikvaXboOXPtmwkMNHedBlO1C5CpfkJeY7WtdL9UERwoG7JC60eW1EdqBoxPa5YVMe500HYDaElJDrpvhRyiDqe2KhE7UiPmYhbbgeaY2Hq7W9VxyhWYQec9eH5UO9Zk/NVLpVhzh9F80P/H3rHjyOxcxJwEO17EtH+p2BedhWM3RcgevIxGfrXcoycHDpWVIkcB8bO84SLjRZasHIGlroWltppoJrrobDUlr4i6zRxlSQwUtrrus8r8Sy/fSeMchntRx4QyyJtaDyWvDZ0foIUhrDXzQgBGhzwtBC48/hjWPzYR+R7Z+NmpVj2uug8/IAk/OmOUoMk1OKZINeer6xzTBPMF2BPTSOkRe85On14/qiSiY2vrLyD5ugYcmEI79hRURiDxUX0jKdkm6NvfQeq19901scoQ4YMGTJ8fWE4s+lcbpMgARomQc8G27axY8eOgcvrnnvuwe///u9L6AAJB6txhtUgVuMwCIHgn3ffffdJ2+P9/fv6f/ZvG34M9+9MVCDioosuwlNPPYU/+qM/QpnrgXZbAhp+/Md//HlnEpw1CWJsHknEv/t3/06kM4KePqY2MLHh137t1/BKBk8mPY6/8Au/MLiNn5TTq3g6byI9lMM+Skp3LzVivwedBZzP8KtC9SfsdMVmQyuVPCeMUJgsYOqKKSw8OK96cZh+Jk9QBMgeswcqgdwsZIbzPupxsriNGGigc8xfbG6c6+8u9uC31CfmUlbKgf8hO1t/xU+SEnYjCUaQ0lMvQtTv4emrQiELXA0pLWVctXQMkQD155g0DUE3QONgA17dV2qNocmcjj1iw2LZKW/TEkRegBjsb1FEsDCZWyVBslurn+L3b8uN5WCXHZU+x/n6UCk+whNJHmkdY4y2Y8vr8Bi4HRvLt3w/Whe8Ds6xx2FYJiy3MYh5STjPwQX46U6XxuJSJVfLvH3eVgt304DeVSl4RjEPnXHJhonu3oOIWbbK57KMNfaQNMk8gNpNN6KW/g7OLjTQ7CjLGEmgGiFKEMYh3PkFBP/v76AvLsBev1kUJdkeE9u6HYQP3gtjYgbYfTGSxx5AkstDK1XU+2k1RHkxrrgW2kwqrScJWky608piCZTaJ1OXniKv00bHTVDKry3dVbNP/WjqtfDnTqD1wH0yN8TH5rfvEBsdZ3iIYH4eYbstBbRMwJMXZdS45wqxoi3Onp4Z/D4Qzsx6uS6bd35ZFKT+tgghMdMzcI8cFlJk5PKIlpeGzhOvz/RTg749LgpFmWP4Qn7nbhWUoOsoXfrsSjhLWP25WRiV6tDmNSE8JEMyJ3XiOMpXvgYT7/5O2X6GDBkyZMjwciGOY1n7khAx5Y1pbt/2bd8m99E1xfV+nwPwT4YpzM/PD9xUn/3sZ4Xg0FLXf8wnP/nJk16Dj+lv40zBdLpf/MVfPEfv8nmQICZG/Nmf/Rm++7u/e3Dbu971LlxyySVCjF7pJGhxcVEGv07nTeRs01ow5/xXf/VX8bJC0xXJ4KfQQ3MnXCz69SYiJpRxJiJSapBOpSElJbXtNdhVG/MPzMJr+kr1MBKYJeNUAuRz7mRVtaASQ5JCi5XuaOjO9+Ats+cmLfXkOrSnZo6MHIlNumhEohbgJEAMQzNV8poKHFDlqxSIzJwOu2YjP8rkNVr4NFF4hpUCWt8WH11Eb6kDI2dKaWvQCVBf6slr2RUb+XEHTtWWWGySCQ6r8DiU1xXRmW0jaHLw59TcSKOow6zm0kLUNGI7JSgh1SfOjORUDDPZn8zk8IelWYz+4++geOGX4AQt2IsHoLlcnIdKAaMax2OXZk5IOEXKKsXDyhKdSJ0Lrcgghxp0TYe5sYj40QdhsDyT90U+yutH0ZtdluMg5IypYuUixt70Rmz8N/8WRi4H1/PR6iiibhoGIh77MASadZC+JnPHoS0cRTy+AX5swBQvXvpe8kXEjQbixx6E/q3vhT46huSxB5E0ltW8Vm0U5qVXQr/06sF5Uf26gaiBg7kv3UCw4zLYX/s0Or0xFBxNyFgfEiFdqqBwnvoLcRgMC1j48AfFnkY7HTfIjp/Wffdg7O3vQuWa6yVxLjhxTKx2CUM00kQ4IUO0GFJtJMFMEngnjsGamETxwosRNRtwDx86LbGgKsRz7R0+qFL6aKk0aaczpVyVRDbqdlVwAY8nn7N+A3JbtyNqtRA3VlC+6prTvqeTfn1lhkvZHteCYQvW+IT0F+V37c4IUIYMGTJ8A+GVEJH9C7/wC9IJxNn+VqslSXDs9GESG0kHe3g4QjI6OirEpi+CMBmOePOb3yxk5/u+7/vEssb5H3YAUaHpW/AYjU0Fhxa297///dL18w//8A/iwjobcGbp4YcfFsJFojYMcpEXnQQxJYJFqWtBtigLr1cZeHHw5A8rQWuHzV5saJajrGSWiYTD32LVCtB86ihah5Yk/IAEoTRdglVWAQky6K/paBxaRmehIz0/tH71i0sTOrasVdsSFaA+AZLbZIRIWdf4WBauuqGnVBEGCEiMNH/ZDCElQSeGXVkdtk+Y2iYEKLVCcQ7G4qyNIftAwpUfy6GysSqzGFSJaDVjGAEvbClX7XiYe+g4essdGHlD1Cex3A3px5I8F4bwWwHKM0UYQhZ1RK6y/01eMomV/XW4i66oOnwa9yM/VURuIgfPMxDoOqzYRyItq6orSM0AqW4iVRAr3r6BQqB1mig9fBsMxwKoEqGvoKVML2WSEuE9NJokKga3m8/DKBeBdZugt+pI1m+Gce1bVLjF04+J8meYmoQYkPRUdm9C7cLdMEYnhDTaY+Nyv1yTrZ7MFJlyXmIED90LPPoAUF8iBULc84B2E/o6HlsNCUka3+/SAiKXxyWCNnsMOgMsrnsDcMU1SFaoimjQxyZOTSlLLYwEAxb6iC+8BtGBx6DPHoKLCeRHKkIegpVlJL4nEdJrrWMkR4sf/UcpZ3U2b129fhhBvTiPpU/+i6S+SaAAwxHyBegMEOAMj+ci6bEMK0LcbKC7fy8sx4EzOYmJb/sueR5DBiRJcZAAN/R7pevIb97C7HnouTx6T+yBXqmIKiRktd8fRCWo3ZQI9NBy4C8vwx4ZRe11b0TtpltO6fpZCxI7Z8sWdB995JQ4cDlu3Y7M/+Q2ZUEIGTJkyJDhpcX8/Lz0+jD5maSHogYJ0Jve9Ca5n+Mv/NCcStBwWWofhmHg4x//uJSlkhwVi0WZKRoWRRiPTcJD1xhtdoy5/vM///MzjscmPv3pT8t+UsxYC/6bTYHjRSdBZHpUg2iJG8b/+T//B+9973vxSgcT7HjCTudN7HsXh0EW+3yj984VZIZBt2FKdJgJb7mOY7c9jsb+ZRVUkFrHlp8wMbprDLVdY9BljqcngQZUFaySBVuz0av3xF5GhYcLe01EI7WAl9dKF6Eq1U19zJ9osZAaXY9hFC3VX9PfN5Z+FkzEDV/iqmVRLOMYadcP4537/US0eqVWtTAJ4XcCCU3gYzh7FPrA8bsPI4k16eQ08ya6Cx3Zf7fuqfS0wQunylKkLHwsUO0uuShNF1LCkUDXGLaQYHz3CJJdGvy2mu3hbFNi2/AjA24bCLttaKz00RiXnaTzS4q0qf5VXUo0+2Wsoq4IOaJ8FPOjCeiGjlgzkEhwhIoRF6VN43FQ8zAyX0U7YJ49RqaQtYSFoGNjKO7YhPzKIzCu3YjuRILWgVlR+KxKGaXtGzGybQqmqUGvjgOFMpLWMuL5IzA27kbIY53mfge3fwbJA3eqUlNa2oilJaXsHD8EbWYLguNHoR/bLxax/rFiNHbw+U/BfMu3wnBy0KbXC6GKqb5w8N92oK3fNCBEYUIlcc1sT2UEwVu/D/pXP4VwYS+81oqcW3NsDNXr3obqja895dpuP/KQdOI4m7acpADKdTU+KSpN466vIGKIAV87nXmT4SSJyM4hbrdUR1OxhPxNr8PU9ddLNDbB+GqqK8HyIoyiSl8bgERreVHsaozzZgpfIkQrLwSICqgIeHwtnu8t26G/54fk92Zk5zZURs9MteH+Us3qPf0U/IV5UX4GHz64Lvz5eZQuvVx6jDJkyJAhwzcSXv6eoL/4i7941vtzuZwkKvPrmbB58+ZT7G5rccstt0gB6/MFFajv+I7vkLGctW6u54vnHYzA0qK+FPa1r31N/IFkaMOqyVqi9EoAh7+oWtHf+C3f8i1yG5UH/swW3FcitEIZcaKjcWQO8dISFh88gvrTyzDzFuyaCivw2p5Ypk7ce0xmZqqbq2jPtmA4phAPLtoZIkA1hDM5ovxQGZGgg3QtPMgBPjlGWspJGYM9iFVWRZ4Sv50WnwpZSr9XgQapitQPWeBQuKM+jZc0t8iQyO1cjWWqGhYfXYDXcFMRRak4YqML0hn3tQSo/2esZo3Y6RO0fMTjeegmS1RpSUtFGZIEHcjV2L2jZjvQC5BnKejll6F9dBnh3FEkbhNG5MMqOlKCo+p7lDI0nK4g3T59pJ88iHXONJBwJIuqF22HqVWMpEfPMehBh8aMeyoKiY5w43kw2JVTdGGhK+eYadjVXRsxsmOdkKrQLKpjK3ZCH3GnCb1QFjUpbi7CwG6lAPGcHD2A+JF7pUNIK6XlPdzr6fXQGnVg8QTgu8CJo6Ic0folp4yBG1Sobv8kQsOE8da3IT52GNGXP4/kxFGA6iOVlLEJGFffAJx/KbyI4QqnXqtxbRLBW74POW0RU6gLacpt2vKMSWcsNmU3jxCNtdc9iWMuD/fQAVWyu0aRkmvRsmR+KqGSdN3N0K+5Cfb42OpjTFMsa4v/8k8ShjCYSUoS9A4dhHfkoKTXMZWNXUAMXAhIeCs1NfNDdbvT5qchcF7/dhgz6xFGMZY6Pkq1+CRL6bOByW9j7/hmrNz6SXiHDgoBlgRA00Lpwosw8a3f8bwCIzJkyJAhw9cvXgl2uK8XUKwgxzhXBOh5kaBHH310EIm9b9++gbrCL97Xxyv5H3QeREp1tPWxG4gR2Sxh6qfFvdIQGw7mH3gC+cYJWZO1j7SgS6S0Br/Rhc8Es5SAkJgcveMg2nM1hG4MZ6SEoOMiaLsIubCXeR4Nmp7a3/jVT43jBlRewSCFjAWfDC4Im1RROASfIPQi1cEzBCpLkFJVpc6oGhzlm5K0Ns78kBwNkSspPS3mcej2g/AbniJZ7DaiKhXRpcR9HApdWIv+zSRCok4ZYmOTAlYSKaohjJROIQt5bj9OS1EDH2P6Mpzd01javB2R78K0E9hhA9h7EP7RY2LjSrWxtNtnqER2yAqm9kMN/4uKkbdUnLKEUCg2ppkq8EGv1dC85t2It1+EDcfvgBYb8IwCjEjN9cSGLY/X6SeMQ5kh8sVFZ8CMWNDDGafVY1It57HS7CJ88jEg8IDRyaHjnEBjAl1tFPHccbWgJynsq5thtKoaeT3g3i8j3LIN8e2fkJkijIyJ2sILL1lZRvTZjyHh/u68GTICdlLWuWQuiGKVm1yH4uhz20bFWjlMKk85xwl0dvIUCgiZXMcQieEXJUl1PSFbxvT6026icu31Es/deugBhDz+xSKChXn4J46JOlQ4/0KYpbKky1GZChfmANoB+69VLsN+8zfDvFz1iBm6hiAM0e15KBXPLNWG57163Y1SENt59GGx+jFymwELjA9/LktdhgwZMmTI8I2Mb//2b5dZpe3bt5+zbZ71v7y33XYbvt7ByL+FhQWR1DjAddlll4nX8Fyyy3OJxt13Qm+vwKiU0Tu4KMoHAwGCng+vOdQATAJjqoLU1nFGRXP+JhBiMBjqJ2QwRnXeUCHpd5iq5DUmeFnKysYEq4KFwA2FCPF5YY8WNpWg1u9MEbJDpxfVG8OAVbEQuRGSdFHPwlHaxfr7yNchgShMFLGyb1kIENPh1KxRDB3KQidKlVj1hgpP1yIVnaTk1NLTXh0eBwM6PaJ9dsf3T8vUQEFQ1rRgdh7V0R7yiQlPy8FNRpCLusjvWI/FY8dUxLfMV6nIZaUOsfvm5LLRgaLdV490WvpMNTvF7qId50F3LJWmtvUCBOsuwbr5+1DuzQu50oKWIiwJ2Y6lZp/qiwh7x4QU6eUKPHbl8DilO6FXVUeQY1tChBbrK7JwZ5h2v5qo/36NTdsQ15eBZkMUDjkWYlc0EOfLiuiQxK0sIPoCCdAKNJaepiNNorhMTsNYWURy/1dhbbsGoZZLS3AHrjpYRoKcraGUOzOFJLd1B5p3f01moWJRVZR9kERDTpvbQ/ma6xH3OogPMSmvA9CuJyEhsZBUsmB93UZok9PI2Wvml6SnyMHEd34P8rvOR+v+uyVpLu51YY5PoLhj10Cl4rVbuewKdI4ehTc/B/O8i6Cv3wTjqutVYEP/VMu1kCCg9fEsYU9Mwn7dya3ZGTJkyJDhGxUvvx3u6wUMVqAd7stf/jIuvvhiSa0bxk/8xE+c9Ta/YT9+pPXtlWp/GwYjgBv33gUzn0NUKCLRV5TNTIMoQAMMz1OkckUkedaJ2OYiL1ztmpH8Z6UIcY4n6kaIfFUWKus7l+lxJpyKg6AbIkrjtt1lT80TpSEHaiyGz4uFxJgFS7IDihMVlGdG0FvqYnHPbFqgqiKhJYJbB0rrikJ6GofqqjtHVJNEZpxECer37AwTN/XmTo6eFjVCtYoapi62OG6XSlnspyEK7Nwxebuh/mrokzdGeLfaiMs5mEYCPQqQ6y2LNcu/4FqYjx9EcPhw+j6VWiFKDgMeSKKGQCqwqqZRJWKABIljCKPXhn7sAIydu2BOr4NvGth1+FPIe3UpPI11SyXGkdgw7nxlFv7CMjTa0GSuKEDUbiFZmoe7YTOK5Tb0YgX6xKrSMjlaRm+kis7h6KSeVrVvulLpmMXPzp9cQexYJEAyUwNDumo0qki9LvDkwyo1zrBgTkzALjgSqEALn1+ZgLY4i/zsPgRbL1BJ1Tz2TOqzFNGu5LVTIrKfCYULLoI2MYXWoYPQp9YNAgx4irSlBQmAqF5/o1zTYaOBwPWQuF0JCBHW7eSgmxbM19wk+5x7hvk93bJRufoa+fJOHMexP/k9mOXKaW161uQ0/G4X+iVXwbrgklPu73dGnaIEZsiQIUOGDBleFPzd3/2djOJwRomK0No54heNBLGM6P/+3/8r0Xj8/tnw4Q9/+Kx3IsPpEdWX0LvvDuiz+2VRGPfa8N0YoRfDn20jJrlg505/MZZa0Ggrk5Q1P1YhBqnpVIiGJAunigZJACOu+RxayAxNxVd7MRImZtlcHPN7Jjr30t4gbo8pc6oHh9s0c5xNsoSEBD1GdNsoTI8I+TIcHc1DK+gt9URFEttaDCw/uQJgRUII+DPJVT/goQ8hbVxlD4sKQ2RI9je9gd87I44k6JkFR1Sw2Ejjuy1TVJjhuRMpQJWAA10RACpQJDpUcHI2NJKhqRlYy/MSdqBIEBUskoeUTA7vlkSGp8Y5HmcJmmBktprhp7ISPXQfkmPjyF1+FRz0VOAC7V5JCI3Fr4aDwPMQzs2nCXIFsfX1lTG4PYTHj6I7tQHa+osR90JYQQ+FvC3R2BNXXYX4yUdElSOx8qTkNbXxBT4My0JsO+DgEZUNVV6rw/RDxK2GWOlUHxHJYgJ98TgMrwlvwy7EYuXj3xgkujEityvXJOO2+38PkQaW8xo2jluiwp0JWiGgvfGdMD79UcQLswOCwfhtY2wco9/6nRJyMPLGtyFYWRG7mt9zJNpaGDeLX3ddgPCy6xH4FtylCFXXx3jFkrT0gNHxPLdMACQRlpjyfp3V6ffRZDw5PyA4TaQ1wds5h1c8QytchgwZMmTIcDqI4+FF2OarEb/4i78olTU///M/f8bzuOeEBDEyr8+4+H2GFx/hwgl0b/tnBPMnxP7GqOvG08tw6z2VCJf+1nCeguJKmlcghMEaSe1nJj+m1+T5VFfUQ3ibWmOHXUUSGJ0ti0MSgLwaEAraEbwFbzX4oF+MSsubras4a6a9OSZyo2kiG8MXAs4RMZzAlIF3p+ygvKGG7rIrqpIUtg5tczU6WqlX0qkzFJMsMFZDENaqvKLAmBqKM0UUJgpwxiqwq2XVF7O0LKSN1jSSrYiRyiRFtMpJ8ltKePiafGs5zj9RWdBhtWZRnamicTAPzeAMTnzyfNFJO6HsUWKbY/iByBjpXUw6kHkP9geZiBcW0HtqP4q71yE2bRihm1rXYuiRD7fRVYvsnKMKYBnfJ6TNZwidJKFFix7MJAetwyJYDc22gdFqEYXzLhTLV3fPo6qE07DVOe+1kdSXYZ9/Abwnn0K0OC+D/rwIGCmZdJvSWyTHv1CQMAJaw0zHgt9sI547CnPTdhXQ4PtITANWtYJA11ArGrAZg64BpbyOck4/NTXuGRAEIdpdF/bMBuS+70cQPP04wqOHxeZmTM8g2boL0TplUTUKBUx9z/tQfvwxtB58AO7yMoJCCcGW85FsPQ+GU4BumIiiBAuNAB3XR8kKJdJfrnFNS22DRYnpNkdGEdaXYZymqTruMFK+hGRiShLiSHhUgS77rfjLwzmsIsxz9JdwhgwZMmTIkOHZ4fu+jLOcKwJ0xiToAx/4wGm/z/DigGlkvTs/h6i+DH1sBotP3I3uvjkEvUClrOVMmbnh7I/Yy9Ywf38hEIubXTNh1xw4hTy6ix0hT1RMpKsnVXhIBvqfjstcDj8BZ+w0k98izgcxvro/o8NC1ZSs5DXY5XRwnGqGoSP0mZDGOSITERfLQYig7WNxzwK8FVcRBM7EUA2Sp6XzPv3eH72vZPU5lQpWsIvWYGaJHUP9N0uywSS3ias2ojBRQdjpIDcxKgSI6o5VZvJcB169qxSsFIx04G6beQeFqRHkRoeIvZSIJtCiCCNjJtoTU4iOHx2UZZ4Cw4BuW9AYYpDSTEmGY7KYZUHLUbVQNjESQ1GdZo8g2jGFxFKKFdPqIs+X+2j5ok1N1BDNhqs56M0uIliqQ6M6FwVIGrcCs8eRe/3bYMxsELVjcaWFvGMjfO3bEUc6gv1PytyLkLtCEdZFlyH3hrdD/8oX0fmXDyNqNlUHDh8g7IozVRaMrdthuD3Ei/OIbBuJZUuPUez7iBkUsDgHfXIdrK07JAQhiBJsneIM2dlbw3qeL6qSbbMENw/nkivkqw+GD3RcD9VKMbUh2ihdcrl8kezsm3WZ1Y28vfoXImeJDD2A1+syTA+FnCmkjJHtPdeHH4QYH62gfPW1WPrYRyQeezg6Ow58ieyuXn4VjO3bUG91VClsena5rUq5iNFa6azfb4YMGTJkyHAyspmgMwUDzT74wQ/iP/2n/4RzhbOeCTpw4ICUou7cufOk259++mkZUtqyZcs527lvVIRzRxAtnoBRG8PyI4fQne+oRRgH3G0TYRRKShvneU655qW6JkFYjxA2IwSNGPlLS6hsrqG33FbWLj43jZxWcdYMElAKEMmPnyo26n6VnCBEySJHiJD4sQzuMyyBihAJBh8edHwUxgvIjRUGn5x3ll0pOZUwAUtH1E+VSxPW+sRnoAmzV5UbS5UtvgaLUmM3RmljSd4zbXX0mFW2T6G6aUxcaCw61T0f+U0b4ExPIOp00X3iSfRWXCFdYhGUvh5lZ+JrSEdRapHqQ9612AUTWI6FkasvwuInZgEZwF8zkySzRuoLsZEGPugqCIILa5kJovIWISGBkOQ3C4bvIel0gVoebicU9SNqNOV1I89TpbhjY2iMboB/6DAwtyiERSuXofsuwlwR3qFDiP/lH1D8ju+DMTKOLkMy/AB2oYTcO78d0cIsvOPHxMaX27gJFudtNA2FN74DsWaie9utMmNEm5zsY6kMa+t26OPjiJnC1m1LXHRiWELOopUVFa+dL8K7+i3wfQM5E/B4PiJx2J0R+qqMOszqPD8TgerbIYef00fLjeAF8UkEqL99BnLoVNESpUrJ7w3Pv67B90M0W12MXXMD/LkTaN93j5AezgYlPufdIhR27sLYO78FZrWKWqWIZrsnsdjcRqVUgJUluWXIkCFDhgwvKehc+Z3f+R0pcmWh69pghOdTy3PW/5p///d/P97//vefQoLYFcT2Vw4rZXhhiJt1JFGI4yvAsS89AUuP5RN3KgyhHyBsM3ktJQ79tWFfTTlpQ0CwEuDE7cdhj9oyM5Mggs7rZrB2pPLCzpIEfidU/UFD2xZlZsjepFsaYk8pRRKTTTEniCXRKz+SQ3ljDW7dlcjf3mIbjQPLot5wO8qWt8b9yk1zpkk8fat1PJwp0fOGUpvSkASSKbHfjeUltc60YuVC4y+H24Pu2LBGKtJ5Q3LG3p2o58IeKYsqxQQygjNCsBjSEMFrdJEfq65ZeMdKjSFBWlmEwRCIWhkaQxtIUs281LwYbFolYQqpsBlSJEv1iTHWSjtQBIh7GBp5aFJ6pN5gwoS2RgO9p/Yi8Txoji0qhhzPTgchmkjMOjB/XIpK2TOkk4AmgO9UEOYrsGePQL//Xhg3vyklCrp0BolauG69EB+So0BmgiIhASKu3fh6OJdcCe3oISRH9iO8907oGzeJ0iLHIJeHtmUHkrk5hIuL0GgD5LzQ5t3AVa+DtmU3gjCRiqSCs2r9GwZtY72eJyoVbYSM7/YfeRDB4oJY0EqXXwlt90VAojqsTkeESJLMNSS1j1AU0DUJfXI5c+YskjAIGkDTvt/BuTUtA64fgI+Y+NbvQvGCi9F+6AEESwsSk1286FIULrxkYJMzTROjtdXOpQwZMmTIkOFcIesJOnM88sgjuPzyy+X74UqeF1LLc9YkiG2vN9xwwym3szj16yFt7esBXFAvLQcI3KMo9FaQsO4GGsI4FgIkWJua9mzgwnnJh7/iy+KfAQZWxUwVDGWFC7q0manIbKltSbdLxUgGySV8gY+l1UtFXDtVG04pJ0lspmPDb3tYfGxObHFB01UBDCxVlWLWlOScZt/kdbl9Y7Wc1cwbMuvD53ktX4gZU+ZEkTI0mHkTpXVlWKNVeVochChuXSfzPrLDLJjNl5QNjRtlPLWjCJUoMyyqpDLAGZyIBbJp+IB0/bDg1JED4R09JoSHSkFcshBpDowkhhO70HIVIVlGIQfnkstkric6eghoLIt1TcacdB2hXURo5GBy1iXqAuUqwsoYokceROK50EtllRInEd4pQeq2oR16GlroIylW1TEKXER2QYpQLRKaQgmdxx6Bc9VNMBgNveb40jfr2CaiOIHFoAwSaQZZxDpibuOiS5HsPh/JiWNIWKY6PqmuP54GJ4do405oMBGNTMF9y/uAiXWihvAvDR5mj4KchCOc/Lq0nS03WjJPk3g+vE9/VEgQj7FTqYhNb+njH4V9/73Am78Z4dgErDVSEgkQiXOpoGK410LNHZ2qEqnOIRoQ1ZzXKcdEY8odZ3sS2LYhJIhfGTJkyJAhQ4ZXLl6Mip6zJkFccLRarVNubzQaIlVleOFYsafJSjCV89DhrE07lNVmxCitFwKRMdQC01tOh/ylK0aRHJn9YepbX6xJlSCqPpxd4TxPP7aaxGd0+xhKkxWZN1ret6wW2Y4Jv9VV4Q0qe+BktWrterYfjKCpxSzJlV2zlYrVCxB0WGw6FIWd9gzx9uaRhoQZ1LZPIX/eTuQuOB++bsIwEiFkQb2lrH9UI/RYFsCpfgCdwQBcpJOosUsp0gf2P72Ql3AAWuz8UBcLWwIDepKgELfSCHL1XmItEWKQmxiBtm4D/A0bENxxG/RuR4IPIqcsKXCman+Vg23OzKC32EQwtyLJemYcIGQAgSTWkQ7p0KIQWosx2YkEFMhhd/IIR2fSuDmV1KZxjojzOoYJU1LkFKntg6SQStVYtSSEiDg+vwK/35lk2TCvug7B5z+BeHkRWnVE9jfmDNTKEpJ8EcEN7wQmZ+TUUcjrkwsJG1zzkRPDDpbrLYRRBNsy4d13F6InH4M5No7YchAaOvI5nl8SzMMwv/RZxN/8HrHyMeGO+06Cwr9L+Lhi4dQIa4IhDKahiUJqk8z3L9n0HHO/8pZ+Skpdf39dz0O358ob4XHJ5x0Y6XHtB3K8kgufM2TIkCFDhgwvMQm6+eab8Vu/9VuS122knR5csPC2G2+88QXuTgbigYcWcVktj5V7D8Kvd+EudlT+QBqCcNq+nDOFJFwn0OKhT88pAjG1jepIOqczbK+T8AUjZUYSXKCjMJlHcaIsak/jSEOpNIaBzmxLdRJJ4pqKgJaZn366W3/f5YWH9iu9n5/hu0s9uUECFNL7qFpJNHU/WY6ijR+jO9fB9Bs3o3D5ZYhMR+bVOnd8CcGRYwibHUkzi2LVEaSX8jAcRzqD6OWKmm04o1WYlXKqgunQGHJAtcm2JFratvjiCbSwK8EGwySurxxxTsvJ6/CTBM74OIxb3gz/js9D77rQenW1vSSS0tNmbSvifSuIjz6EuNWU9Di7YCM/WoBeqcrskOT4kTB5i4DnS8qbX5qEXi4r62JfVPN7SCqjEhPNfWFietQNU4KQEiW+r3RB31/UF3K2pLJRNZFi0ouvkOCH8J6vIJk7kZ4mDVptGuGVb0Sy46L03CiZnfyWwk3eUbM2w+B2aYETwhUE8B6+D5rjiMXOICHl3FMUi83NYujEscMY6dThjU4KgeJrkIyUykWZv+kTk7WwTR2jZRML9QBeEgsR4vvjHBDPt6FFsIbIUf98+SxlTRI0W73BuWx3AavdQ6FQQNvT0PFiuauY0zFSMlFwTu6EypAhQ4YMGc4F+K+N+hfn3G7z1YJ3v8gVPWdNgn77t39biNDu3btx0003yW1sb202m/jCF75w1juQ4VSMdA+g/sQ85u8/IR/6Sxociz/PBVR9DRJzzRxGushlCAEjsBlgMJgN4lqf4QLpDIZdtVDbPoqEpOdEU4UPUCKImVin0ttkoF3mYdJP5/XTFJ8OIrf6JaQqaVpW2nS1petfVYaazifxhtSyx5/9touFO/dgat162BvWo/elLyE8eEjKQM1qCUbXU6WpLNtsd2FzQW4YiBiKoOkorhuFUSyk+5Pa4UiGJEIayM1MIKjXZceojkjhajq7E3uBEKfi5vWwtBhR0ENgF2GX8sBNb8RTxxzU5vcghw680iRa+RnE99wJ9Nowy1OwI3bYJOgtteF3fJR2lWHQAtgnLeUyELWRuC6MyZyQB+6UfPbAQAMGLJx/ibKGCXelshWh06W6YYjFjCmATF+zh8pdK6U8lhsdSV/T0/OiXXoVjB27ER86IGlxWmUCycaLECU2+NSEgRXp4SFKOU1UITvy0HlkD4KFOVGcVuYXEcydgNdpSZgDSQ7T5NITqWbDOLNFZS2fR7AwD6O5gqldu5R9Lo0wfybyM4zJqiXXw3I7Qk+CPhh+wf7UHEzQjsnjm15/JEBBKAEHVJwkkW4oir3TC9DoNBFq+cGHO8utEM1uhHUjNmqlLAwhQ4YMGTJkeCnxYlf0nPW/7BdccAEefvhh/NEf/REeeugh5PN5vO9975N5oNHR0XO+g9+IMJdmsfLgfjijZThlG2Gzi86JOoJO41Q15fmCXMU4lQgx7EDzqLqcrNjoiQazxMhtS4hS+3gb9b0NWbx7DVdFbzMpLlVqZOGZJswNfjbWEKH0Nfo2N3rnZOmbzgYNtXCe/Bx5Urp4Z9eN56F1/yOomjqiI0fEJgZ23cQhcqNl9JaaKh48CuEt1WHmc0KSyts3ID81ms4BqQl6qj++GyBxmzJDVFg3Bn92Dv5SQ/qGhOxJvLhijcVN0yhumZHnm0EPvlmAEXQR1abxZOGN2Hrd25AzI3heAvtvfg+a10W8bgt8Guy8DszuCpC3ELoBerPLKG2l7SyBHniIC0VJnYuOHkeycg80qkT5EqJCSQIqki27kZx3hVKOVAyAUgyRwPPj1GKmY2ykdNJ55iJ/ZrKGw8cWhCQN7ssXoZ93EWIYMMyq9O7onUjIjskkPEnhY+oaGcIctLs+j/Ch23HE7UKzHUS0APo+tHxBghkSd0k6iRLXg75zt7LvDSuYfduZ2OC0U+aCngt8zmTNxmg5QccjAaRCpaHg6HA9B41WR4hPf26IM1KGniDH4tyh46GivsVniZzFmHeVOCPqWpBgdiVA3tHhsFsqQ4YMGTJkOFc4XajVudjmqwQf+MAH8Gu/9mv4mZ/5mReloud5fbw5MzOD3/zN3zznO5NBITh4DHHXQ37DqCwarUoB1UpBij2bexfOzUXej6Re6/QZqDiMzU4VGluDVbZR3lKSEs3OiTb8lRacGotFjTRWmuWrLBVNNzNciJpiQHYGN6y+j77qI3iW0bLhtC+1TSaIJfCPHkfH5Do2hFZwBkPznKcpTlTh06bV9oTw5KZHodsOmkeWceJrT0tqnFnKoThZhekoC5/0/eg6zEoR5a0z6OYceEsNUZB4n1m0UdyyDtXtG1SsNxWMyEPOa8B3ymiO7YB2gsqZ1NNCO7oP2vwxxKMs/1RvwK9Owew1ZNaIiXVBvYPYdWHqERJdh8f47IVlKVllCAKYItdcQdxpo3fxjXBvfi9qVGRY+qoxOmPVKjg4zgwCGOo4Yg9O5+EHsXL3XQiOHgGcPLQd50M//xJoFfUpi4EIcdiCbtSEUHTcGGGcCAmK/ADWV/4FyZ2fgNFYklMloRFtJuVF0FgyGviScGhs2Q6900K8soxw9jjMDZsUoU5VnqjZgFEqIbd5K14IOBtULZz8VxnniUh2SIKYVEdlqd5sp4fk5E8QfPZtSUghlSoeK2fwOGZpdP0YjU4ohCtDhgwZMmTI8NLhV3/1V/FjP/ZjYll/RZCger2Ou+++G/Pz8+LxHwZVoQwvDFQFuE5k2ph8TE0kCUrra+jONhA0uZg/By9EMYPzLqfEDKd/cD1Iu5Suq6LSTgLPcxF6KoLaruQRdkPoRjclTmtmf54LfZ70LF0xg8etJU/K/QS74sAuOQjaPUSLi2qRLUWsUVpgqkIcctUS7GJOghAiL8bCg0/Bb7QHJapevY3usSXYZQcjO2eQGyuL/c2vtxD1PFQv2oHqjo1CpmiB4/YYXd1nbCQgsW6hXtuOXm0GPb0ku9j1TRSKHkLawxgcwuekglhUqCIaWwdt7pDMDDHGO3F7SEaqEqkdzR5WVrfRMYQzO6QoVdzD7Q6wNIdcbwmojQ3CKsKEs0BpNlpaYsso6YV6D5qRQ9mKsPhPf4/2w/fDo0WQ+9KsI77zNiRP74Hx1m+BNj6VHuoASeghZ+WkX8n1EwTtDpyP/wXsR+6AFrA3Sc1RJexQ4nvja3oeUCjKvJPRacOYXIe41UI0PwuMT8lMFglJ1G4hrNdRvekWWGPjeDEgJIapeYPr6PTXmOruPU3cdroNhivw/WfIkCFDhgznEllE9nOjH1b0YuCsSdDHPvYxvPe970W73ZZBpeGFA7/PSNALR7WiocmW+jSoIBn6Talun8DiA0fP3YudLrFNWxOMQCUgCtE+0lIBCAw9GNGlS0czaR8yxG4mmkd/e2d4zZ5ku3uu/Uz3rR8QYRYsVDbUZPEtqW6mJkl2tKz1ScAgykxYRyypce2DDXgrquOHjIn/SxCqGaOWh8ahBVilnNjhrHIRQbOD3tF5VC/YBqNcVAtmNgExYCJJ08hMBysT52FlZAdsM0Gr40ioQtO1MVLwYRbz6s36jClXC3PLSBCOrkPU7sBoLQE5B8n6LYhJevbuRRIGkn4XlUeVeqLb6v2MONCPnoC+7xEk06+DqbMvSZOvkAl9Gr9fPZm0vB2e76H0xNeQPHgvzLFJuFE6XyUnOAbmjiO6/TMwvvV7VUAEyUHUhRfbKlabtUn3fQbmvgckwY+57RKsQJWKSXPchsni3BA6E/dYoNtqQp9eD2PDJkSHDyE5dghasQifxCKXR+WaazH21nfipQLngHqef/peIgZ4iPpnPKf6mCFDhgwZMmR46fBipbWeNQn66Z/+aSlLpR3uxZCmMgATO0bRdSwEXR92KScLzMj14NU7cBeYFEcJBEj46fTzTYl7JvQjrdeEF5BYxC4n41WZqrvYA6JF5EaVJU6VjAaratCZ7JPEc5/lhd1XgMo2xs6fglWwEHY8sQoWZqbQOXhEggRIKFZHibhvHJKP4ffYYdQVQqSZJHKMlY6hJ6oniEqR3+zBXWmjOD0i74vb9pfriDyWtXK7fXVO/ZkYNsJiFSXLRxIuoK5PwQ1tTJQDdDxgrulgcuM26BMT0FbmkUzMqJRrDXBDC8nIZuTrK7DLRSEcWqeJZGlJCV7lUcRMgEsPWEIliOefcyvLC9A5G9UP/pbv1SEy5bFMY1PP9H0PjXvuQsFw5D2gy3jodKs8BqPjwOwx4PgRYMNmud02EthWgjBwYbcXEO9/QClsli0EbXDm+ueQqpquS99Rn0hJ+tzYOIw4RuW6G2EVChJPXth1HpxNW17SGGrGbXe6rgQwDJewMviBt2kaQy+s03wClaCUzxLiMmTIkCHDucZwj8i53OarC7t27XrO9cLy8vKLT4KOHTuGn/iJn8gI0IuI4mQeIxeux+IDh0Rh0U3AXeAiPETQ9qFbOuyKDXeJMcfJs87QPB8oZWS1C2dVGRoiOBEtZK4QNbNgSnQzwxFIgqgUMPVsaIOnJ0Vn83uazgzpHFCvOBjdPSk+JtrYuFu5ggVvcQlGIY+w5yHpuYi5P3J84kG0d+gFKmmPdsN+AtlgLkkRIvYKkQiRBMntBntzIkRhBMNRD05H+hEZNtzRjfAr4zCSUGaCZrub0EuYcAaUcwlaPQMHmjVMXvk2lD7/d0jmj6NXnhAyEvdc6CsLcGd2wX7NJYC/wMEbJNUaYibYTa4fpJv1cyHcUJcktsgssvv2pEOrVEO+XcV+qA7x742404LebKBbKMJecy5I/BiRnbRbiA8fgL5+kyJ/TMczuggZ770yi163rSK8PQZhmBI/Trske4VUIgN9ZSpfXdQW25E47mChLt1IxTd/C9qxwZeCZwJlN5YY6peKCLG3qFYtYaXRhu8zGS99XZJgXUcAW6x//b3hNewGMfK2jnJGgjJkyJAhwzkG/6WOX4RtvhrngqqvhHS4t7zlLbj33nuxbdu2c74zGRQ0zcTM686HWcxh6eFDaB+cQ9hTpaGMquZakz+z3JT2rwFhOesXOr0SM/Bfnu5+sQYpkiSqD/fFDaUrR923pkDzHClVtL6RATglDqdTiWrBoJJj6nBKjigrQaOtrHGFPOJeAH+ljYipcLoGq5RHcWYMyYEVWfRSoThpH9UbH/w56CiS2aiIkWqAXZC5HybIRVYOvfwYGvkZSTezWOAaOSigiyLa6KEgpZ/ceDGXYKVt4snRG1G50sH4o5+Bs3gcphZCt2z4G3Yh94Y3Qtu5CYs+UM6HwMN3A5/9mBAUIZdp/DODyrudBFZiYHnsEox6Nio5FzqUJa6fPSEqEtP2NGpHBmA4otjwfbFPaHCe68tIluYlFhu+i/irX0CysgBt83agsYLId2EwpY7WTNrzyhXEvQ4SqkEkQYxB57Hk8QlYVMSLNIaWzyMsVNBbWoLhewgvvAZHGG6YhANSt9yKUCsaWDeqLHcvBUqFHGzTQLvnwvNUYWypmJdEuPlGDFeitldBArRh3EEchVhpu0KeeIzzOUcKVhm3nSFDhgwZMmR48fCe97wHk5OTLz8Jesc73oGf/dmfxZ49e3DxxRfDSucb+njXu951LvfvGxLayCS05iLW3bgLdtXE3iOzatYl5LyLUn6CVn8l+wJeSH+OsIIzTQQOuTinYqUjN54Tu5y34im32LPsX7/f5qTXfaaX6IXQc7p6/3w1P4ZTzsMu2cqORxtWFElvkHe8oaqGbANmgQRJR+RH6B5fhlXOo7fUEmscLXD9EtHkJPKnwSqqhDASvcANYW/divltN6ASNxAkJgKzCI6PUA+NEMOPmJKX2qvApLZ0v6MEjpXAMUL4moHOztegvelyOPN7Meb0UBwrwx3fgJGRLtxAF1WlHego7bgQ2iMPIDlxFMn4BHSHPUFAtxnAWF6Cu/F8lHdvQt70oXOWhT1BDLGQ96Hmg+T7bhfR3n0wjx6A3mkCvQ48ZydM20CyPAvMcr5Mngw4BQk1SO6+A8mdtyOp1KD5LrxuR6k8Qm74jlPVh7Y6z10tmerPYXEmyLaBxVkE+QL0K29EZ/c1cAzOFq1eVDw27PixzOAlTV6zbQujw4EJKUr5BK2u6hwSomProlT1eq7EbbOnidcs32rP9WF3ehgdqZwcvpAhQ4YMGTKcKfhv9TOE9rygbb6KoL2IbpGzJkE//MM/LH8yt3stpLGdK7UMLwjm1gsRHX5S5ljm79oHrxGoxT8vbC50++Ti+RKgfkFpn4QMb6ev/vD+/uuc7vpLb+/PAJH4GI6B6kxZFoskLWFPFaeeFv218DNtPyUlwku4H6Ga1wlJbExNEvTa8y0UogIKY2UEPQ+tEw34TU9sa6p81YBdjlCerkG3DQRdD4atQ2eJqB+KxY2PEfsfF7eBUgE000BupCBzWIzEtipl6LsvRqO0GbnuPoRHj6E395TMHmmFHAqb10OrTiLpdBAHTYS5aSCf7rtsXb3FTiuAk9NhmCa6685jnSfWjycYL3tQQpo6EExP8/Oj0N/6XcDn/xk4fhhxuCS2usDIQdt2Icbe8WY4I8FgYL9vg+ub9RIYiGdngc99FDqVHt1AwnLU1grwxP2IZzYBi3NqzzhfRDIzNgG4PSBk1HmCpFlX14OTUz932vIF0xb1S2DZUtoqihC7mS65EvrUOkmeS/jztl3wx9bDMplcd/KJ5s9Uy1baEcbKCYw197/UMHRNSlFrQ7e5no96s6Pm0NYUrAZ+iOWVJqYmRgax3xkyZMiQIUOGV2k63NpI7AznHtbEJsSVEXSfPoDuiabMs8gitN+xYiWIg6Hi0edDfk6j/HDAhNvv25VW7WEnE5XVDiDOAKXfRsqqJ/HZBclpVkSnT2LWzvacbh/6P/K9noZLJwEtbwH0mo1c0UEchOgtdVV30VwTXtsbxEXzdThD5YUdIU+VjeOw8jbQ85CfKKNzfEVujz3OsaT7wkJQXUNxrCgLe87V5NeNI79jKxY3nSf9PAv//Blg7+PwlxuIez05LE3Lgj1RQ260hF65iLx5L8bWX4T67psQlFX8MzkDbYKtdgRDj8Q51vOBxWXg0u0JypOJnGbuisoX0NErr0PvzT8Ea3Y/9OVZHF4oIL9pBtsvqcGx0sX48Pnpc1rGZfc8aJ//GLTlBcST7DLiOYmglQrAsYPAwafUe6ZiQ4yMASPjwKF90HJ5oNdF0usAo+NyfOUUswcojGRuSvqYylVFmkiStuyA8a73wBybkOPW3w8FKijRaf+6sQwNXqhmb4qvQGsZgxT4fpw1ireUu9omgiASVYihCxkyZMiQIcPZIOtKfXl5x/PqCcrw4oKLTmPnZVi+8ylErmq872cSDCKzjfSGMxXe9CECtOY3RDM1KU0d/jRbXoc/9glP8tyBJmEnQm+lh4KRl9cRosPnGWf2W6nS2Z79sSRaQSdCPBrDsC2EPR/t2SZ8xrBpJ78HqVliLHbThd/qIVcrIOr5cPIm4tGCxGHzfh5czgixALW6ZRKju9erjiYu0qsVhOs2C1ew//Ev0XtyL4x2Q5QTg5HWJFLtDrxuG9FKCfqu8xFXdZT33gl78SBWbv5e+OUJ5Axg06SBRifGUjMBx1F4Ttm9uv+4hvGShiANlaCYyr5XjiVFmgF701Y0JnZhvlLAdTsaMI1QqW/Df3umBErNDQHm/scQLZ5ANL5BfI1MtLOMGBibRFyqQtv7qLCtZGoDUCxDKxQQN+oSkKDbJSBsnnKCWTCbaAHM6RmEC3OwN2+Btnknoq07kazbIMc+piI0zK1pNySjjTzAVBbDU66jV+hf2rwePSYCPoPK0/+wICCjfYFgCAN/1egWfCkT8zJkyJAhQ4ZvVJwRCfqDP/gD/MiP/AhyuZx8/2xgclyGF462sw5xrqSsSv0VrzacS6ZJT80ZBQ+YQwur05AZGaY/zUKPREaspaJEDd2R2uhOt1hrH+3BLtqSYEdE3rNY4oYUqCRI1Z/nXA2rLiC/6SM/mgMjzEhy+DzDMiTKu/84zVCWPtrevGYPusVggEjmiGpbJySlzK93EJKJMJVvqobxS7dBNzhlo/pzYteFa1fhPfoowr1Pw9QiSZgzisU0da0ts1AyCsPQiuPHEU1uRpyvILd8BOU9t+Pwxd8hKW55BwgiAx0/Rj4vfAOuG4vNrd7WMVaJ4IaKXfZ8Nedj6SoTfL5po1qIULDjVYVlWMXrV0mlpyeePyKhCIZFgtePs+ZzdWiOg4Sx240lYGxKZCopWE3JtoQxkMzIeVaku3+m5VopV2GGIUZufC3iS67GSqMznCc4dKZIhDmrpZSj0/XzsMyVtricpQsh7boe/IAzVRpyjoWc89KFJrwcYBDDSjtAo8tzo47FSNHESMl82e2BGTJkyJDhxUWmBH0dkKDf+73fk4JUkiB+/0zgAicjQecGn/unr2HqA/+M9qHm4IqWPyylFgxuOJNy0meZu+nfn4SqN2ct1NxQao/r3/Ysn1STCPRWPNmmVTTVAjgtNz0tUrXpzAiQeiyJDGeOxCIoaXnJqsWvP5wvEzZ9EgeZ7Yl6nOmAlKoSDD+wcqYa5E+3y8dpxZw6pLqB0DSgP3I3urffj/DYHJJAkYNYbIm2IoiMjQ4i+VbvdWHW5xGPz8DP1aAffAL6ljriUg2dQIdmJ9ixUUN/lj6MdCwsJXj6RA6m6WKkHMl+UwUyWaYaaTiybKPjm9g07sMwSFZOPX/D35JcaaLgkdRwv1Tctbz3frFqrgCt2wKay8DIhKIsuRxiw5QNCL+2SUDS/iSxI/oy68P3bZgMnSiiE9Dep2Z75PCf5pSpU5AgCn2YljO4lvicIIwxUgLmF1fQZbR5wutbl6jqZkdDzrYwNlKGxbbWlxi8znM5G+1OT5HHNde9InVqVuj5oOtFOLLgww9jmOyH0jX4QYITKz5aboSN40yfy4hQhgwZMmTI8GLgjP71PnDgwGm/z/Di4NY/+wRK//nn0fZOwwqYlM15oGGL2XORh+dSYp7tMSmBIvF6VqtaGqjAgITEj6DZqg2UZaZ+yz/t8/pJd2f9sQVVlyCW1Db2KPUJUF9pUIvs1YIj9SP3LYbhWLK4h2lK9DVLP1U4gInEC0QVMot5RKaN0CkgOnIEy3v2oHdsCUkQqnko/r/VgmZb6vCRPFJy6pNSz0XQcVGJOtB7Kxjf/0XMrb8W9ugUKkW+YR0+7XAcyTE1rJ8CqmUD++fyKNZDTI0yMU1Dt61jsWUhDxe72g/AWa4jXtBgbN7GXOdVvnfKuUgQja9DHD6AwI2h6QZ0RHB6dSRuR6W89XpItl0AjSRocRao1JDYOTUj1FyRiGvpCiIJ4rkKlH/PmpyG6XehV2vApm2i3uRzNjo9Et++0pN2EyUJojiWYlIKdEEYIuA5YKmuJOgl7PxlYJ3YwaQoVmPHFPeZh9WSYIKllRYmx6vQXwabWDGfE3K2tmCV1xgVK84K5ZiSd5bg808sB0KAmEK3WtyqOrbavQhLzQBTIy9dal6GDBkyZHhpMTx+fS63meHMcFYfYQZBgPPOOw8f//jHcf7555/NUzOcBfRf+k9ITkeAhnE2IXzyS3aqFemUh0XspDmdGrTaDfRMUAtydb/umLCKBvxWIPNGtKUJgYrPbO7nTN6PZgIBu5P6alVKQPg9k8tIVtRrqU/rrYKNiMENYQC3Uxenl2FpMK00CCLVjlynBG10RvXyLC+g+fQxePUOzLwjqgWVFcl706F6cjjMbzLaLQYs/jolcIIWSu39sCJXZnG29x7Exge+BrcTwDXL8IoTaG+9Ep3Nl0rSGp82XtNQyuvoujbqHVVAysjmrSv3ovLw54SscHGcWBGSShnxFddDu/TqlPQNnYP0L0Bv03mIil+DuTiHuFyDMX8Ysd+GLqkJTJXTkbQbSC64EtqJw9CW5xX5GJkEciXoWiBkKKyvyPGULqTxCbEcslOo+pZ3yCwR2l0YnGGjGhT1CWf6Z3rNOZaBMIphaxG8wKcmdJJi1J95HJCuhAoYtaNAiEfP8+G6Pgr0E77EcBwbtUoJ9aYqWFXXmvpNYPkqI7Kfj12v48YSxe2k198wuD0ez3onwng1ke8zZMiQIcOrEFlE9tcPCWInkMtSxQwvGr740dvgLZ7DYzys9Kz9vdDXpLQ9E04WVk77GoOUOCoAcQivHck8UNyl1U0RkfhcGWCpEuQMUafMnAW/68scC8f/5U9a1UhSWCQbJ1Lk6vcChAxPSImSUrd0scPla6vJXvHTT8FjGtjGjQjnTqC30oFRyMlCNOx69K+ppBKGyok7j3HcvjBFvi73KW9HCDSSpgQ6e3cOHUPcacEhYSoG0NwOnPn9KM/ugfv670IC1QFEkBDVyopw5vY/hNK9H5Xbo4kZeY0QHszOMvDVz0Hjgy+6XIUPpOSHM/rtno7YKKNz9btQ+9pHkD+0B1roS3ePnEp2/UzOQA8DJPv3QHvne6QM1UgMGCMTcPUCavOPInrgK+jufRKJ50N3HInKNksVVK6/CdUbXotGuzc4lyaVtGRNQABjypk2SGJDUiPHTb3R06lYElKRXkT9wAHexoct1luYsUwhRS81WKbKLqBOz5V9EpucY0thqnGaDw3OBD4j3xMSnNM/nzY49igFjJ7PSFCGDBkyZMhwznHWZvYf//Efx2//9m/jz//8z2Xhk+Hcwvn7v0LnXG2MayeuGaM1aW79ROizXFzx8VQjTnmNkx4EicnmHJBY4+KhDyaeazbpDJEbdeBUchJIoJQfHX7LHShCcZ+oCOHREXExXeen+OrxolhxTiiJkHQ5yAPkyo6QJem62rcPoeciarti2bMcS8029XuR0gSCfmgEF/+6qBQJ8qNlxLoJw22JBQ2tFekbsgo5UV+0pAt3fBMCL0Th8MNIHt2AzmVvkBkc/jqZWohcawmWHsB89IvQogjR+IwEMpg6wwV0hNVxGCtziB+8G/ruC0VNCmIN7Z6Gg3MWglDH1mkf/tRWdM67Ac7i0TTRAIgLJVhjNbG7yRuYPQp9/+Mwbv4mxr9Jap1tAJPn3QTzdTerhLSjRxCuLEGj9WvLdhh8rgQ92GjqXbkmLNOUjjCZ6ZHX0sRCJuSRQ0oyA6QITd/WdjplkQrQ8GXVJ0ueF2BhpYnJ0erzJh4vBJZlomaVztn2+tznmRTavqMz4z8ZMmTI8OpFFozw8uKsWcw999yDz3/+87j11ltx8cUXo1gsnnT/hz/84XO5f99wCDnvcy4xNNNzUj/QaXA6K5y6Y22QwZrtD91nlrnQpyKTqO3pDC9IC17XPv5soQPF6aKkwom6IIQkFouWUy7AqRXg93x4y21okQarnJPAgrDrDzqL1H6li/AwQaRFcBtKPSrkVucv/KVlaAwBSBeoYasrzzeLOcReIERrkNhHhccy4UzWYJEfeB5sK4FZyKM3twLDMpWFjp/8+13kukuIC1NInAKcvfeie+GN0EwLI3OPYHT+Mdh+A3Grhe7hxxFVJqQgiS40RRs0RImGqDgGY2kRydET8Ca34v59OSw2TTS7OiYqETZOBBKsYHZWEOeKiCY3ybN5yCwRvjTEJGU5KlUHEWu2DOXz9qmaORjIF9Vj4yaAX2vAQIBCzkG768I0ddi2JQWiQnbYFSRKkFJNXD+UTp3B9bS2Gwqn/5kEi+ear0UixNeqlgv4ekfRYXmsLkoP58KGIfNGYYxKwZQZoQwZMmTIkCHDK4AE1Wo1fNu3fduLsCsZCPeGNwMfu+vcUPl+UWk6pG48lwxzOrubtqbkVKZcEmiMtfbUFcQ4bM4NkfCQTESpDQ0MPjhHnM4sGshP5OAUlXVNzR8pZqWnszjFdaMo2yYWHjwAq8jEthg9WuD6nS7kIVQauF9rIsO9ji8L7tJECaZjie1Nr9pCsMKOK/1CuqVmYzTThBFHUtaa5ArQp9ZBMw3kLtqBQvOIzL6YORtusyevpzNAQeLv1AF23Drc4iTiQhl6pwmjtYLx7n6MnbgfiWEhyFUQMdAgjuC4y7BbIYKRabHDMcyaM1ZhYoq9zHdjSZDj/xi1TSy1DCw0TKwbZTQ2o+JWz7tjqnNUyJOYAIFuyvugWMOY6smqgZHSmSktPKajtZKQa4YHSLiBodQ2qjWlQl5KRPn97PzKycrPmUS7i9CWgBxBwhXCSMpLKyUV2vD1DMvUMVoyMN/gXBs7nNIQjziEHzL53cBoWSmTGTJkyJDh1YksGOHrjAR94AMfeHH2JIPgDT/xXbj1138TUfuFFzAOwGADxiLL4v8ZbHAqzK2fZzyU+NaPxF5dtTJi2nQMRHoMp2rDLtvoLffSPphU+TlH+204uhAup2RLIpzX9mDYhnxJVDTjlC0LMeOX8zbaJ5aQhCFiD4j8SJGeNCGub4WjRU8KYocW4qZNMhChu9xBeaamnlMeRWG6hca+WYn+ZhpckkjwthLYGAgwMgJLCxAvL8LqjiFXzsNgMahinlLmyn2mciQzSEUHuunCinqywKdaVgwbGJl/FKFVVN1QRKEocdSSwO22EfdaiPJVdVi0BKbfQezk4Oer5GsYxTKi+YOwvBZ8I4+9/k4kF1SwYXxSFCFNjyRsIUpITixRIagu9aIenF2XYnTaQsFJC27P5hTpOsZqZSEmVGp4XBhnzRma4QU8O3/YASTkNVUnh+eCnpkTaWKf4xdjyRmrfSYhH18PmKhZ8p5XWj4814WWqMQ8XpqOXI8JklzxVfFeM2TIkCFDhq9bEsQZi9/93d/Fv/zLv8D3fbzhDW/AL//yLyOfzgdkODfQTRPN7/kxlD7wx1Ig+sI3uKYolc40PYHBeZp+HDGjrEcsRD5JTEz3lRIPhgtRuRrvzxIxLpsLUVFh2Ei6un2SoHNGgErKWsfwA6tkI+wGiOMISS8ekAruRdD1VUBCs4Xu7DIifpTODDIqUgPDbUrOhmLFB91HETuCaKvTZZ4p8CIYZg77y6/Bup0jsBpfQ3BkTtLg+klyJFRmqQCLjjm/I6lxZuhCi3XZN7fRRuPgAjqLLTV/RDKWzlPpTh3GRTUYRoxkYgPK7iyM0EVQJPlSh9lkRPXkBIKjR5HoNowhEiTqEtPitl4AfXQapT13wv7aHZiod9O3l8A/WsKR2Wtw386rcZl1F3Lz8wjHZlAqmPBDnnsgbizDzOcw8Zqrkc+/sDkbzgTx69nCBdodF64fCPmTuaDTjJed7urpnyYJuaDS9CohBTwGk1UTSdBBt6eS5wxdWeA4r1ZvdcRaOFItv2rec4YMGTJkWEU2E/R1QoJ+4zd+A7/yK7+CN77xjUJ8fv/3fx/z8/P4y7/8yxd3D78B8Z1//O/wwVwVlb/574iXX2BS3OnWTnRmMbaai1Fdh1U1kZ8qwKu7skBNvBhRL+29GYYoL0CsJdBCZYMzi7RlnTvb22C2qKSKTfkfu5KHXc0hDloIPdXVQ9IyHPQQRxFah+aVSsMSTsZn94lOX33o72M/zjslJfyv3/bk/ZBYhX6EeHIE3cvfjBP18zFqFWF1Pom43VZJbFRRSjmgXIWWxFKwylmhfEGHv9JAd76B7lIbbqOrPs3vE8N0lR+7AeL774E9VcVILYH91JLcHWsGwsIoEoPvPYa9dSuiVltCCXQSuHwXie8BnRbi8Wl4V9wCfe/DcO75LBIth+7kRoSxhiBIUAzq2HniizhezaF13btRuO+fUKofheYX0NF0uG4XuVIO429+K3Lbd+LFBueCxkcrmF2sS2DCKQEbq6cm/UZZ/EQtS9PiSNg5D/RqIgQ910MQ+MjnrJNUOB0MmojF/lfI5+T4ZciQIUOGDBleBhL013/91/iTP/kT/OiP/qj8/LnPfQ7veMc7JCVOIokznFN8139/HxZ+9ltw6+/8C4L77kVh8Rgq9aOIFpYH8zliW3umGZ5ng3CCBIWJAkrri3BbLvyWJzYx2sI0R0NciBF2QkS9oUIijpxQ+EmzrnVbR9gNJWjAyP//7P0JlGTpWR2K7jPHHJGRUw1dPaqlVrdmISQxSsAFG8GyDYv1vJjNZPwEfhiWBdhcRgOGa5Cxsc1bCzD2WvBsWM/DM2CuQBgDQiAEEkIjtNRTddeQU8wRZ35rf//5I05GRmRlZldVZlWdDansiow4cc6JExHf/vf37W0h6evAlxMsRYhiRUmBbWbK8pkD8QxbtWwD42s9REwY1buTOcGJOxwVrSjBpOfD4yyQbpkyVXuXtAHOI1+Es00uI09RHEvAaOeJtyEwXCTth7Di0CI7QRRGsr2URKOfwKIaRWvoOEH9XAPxYIThlT1pC6Q9OA8qjaPFr0uSYrwzwHoaSmsbiVp1+1OIvOuISk0YtKSmzfcTjyN55pMIOgMgmAC2g/DVnwnj8Veh6neB9/0PYNwHmisoOyQNBnzLwP0PrMHspVgdvg/RK/9fqDz2LUg/9gGxxOY+RY+8ApMnXofSpz9+20gF1aAHPAe7nb6oQpIFpLOl6NyXBd2S+KhTpP8G+EGEkuugWrn9WUG3EkPari9xauRtUZQKUSpIUIECBQrcfSiUoDuEBD377LP44i/+4um/qQixaHnhhRdw33333ar9u6exfq6Br/rprwbw1XjPn/fwP3/rWbz1V/4h/E9dUbMu+Ss9b4GN5Xk++naqHpuvXxelYrwzxviaL4oFbadpQsD2M6duw/QMcKaf8zhsJ5OncAyYjgpB5eq87Vqi3ITDUNrXxBHuKGGubLfLtuXWHCE9Sr2hW7MNUzJIU/jd4cE2O01ihMBkLW1pgoD7wKGKaGbeduB8zJ+3bFvKwBnooYXth2kPbaDxid+H9/v/HYmZwKqVkFBhimJEDF6dhHAqHpoPrqO22UD/2evKfS7LxREHubnzvu8Qggi7n3gBm697GEYSyY/t92H7A6S2I45xDk/yWh07n/2lSNbuR+p48CZdNJ/8Y+Dq8+hvXUbquGgMnkVkVbDtXoDneSiXDEywAlx+HuWdZ2E+8jiwfh74HPUettMUIz9FZ5ig7N6+RQy2zG2urWBzDYiSBP3+CFu7fSGhEt9E5kelL/NWlwBVy0K5xNDSKmw68d1FYLvbMtdGUR2NfH5SgQIFChQoUOC2kyBmfZRKs1BJHZ4ahnQ3KnCr8Zmva+DTnngpfiT8F/iM9/wr2H/2fkTjiDZh+/N35iyrl67yJyl6z/Uwvu4LeRHFhK1wcYKgkyAaRHDbLqySDcuzEfQmQkScOh3TbHk83bpY9AeDQMwR5GqKMyc2M2eLPY+MsJFg8f9IvMRVjJbaaQq3XkYUxmJvTSIhBEiUn9zB6TmROIGR8kAVYYpDOrPZMFwDcZSI2cHsObNtTAfzlZV3/pzQPMB64Wmc/5Xvg/lt34Pan/4aUt+XgFGvbABhgGTE/CA1P+WUTNTP1ZEGkZgg0KlO5xRNidshyzK953bQeGADlXZFOcjRdU6xP6SGBSMOkKY2rO4urjVeA288wIOfei/MSQ87SRNR4gJmFY5pwgqHaCXPw1l9SE5XyPNCq2qdxJp/CcS+OsVwcnoFtm2aQmx43e12BhIOml8Xc20ba+06KmVPzBbuNFDV0rlHNKJY9F5kWCrbF5c9npfraeQiFShQoECB24BCCrozSBC/kL/+679eVpk1JpMJvvVbv3VfVlCRE3Tr4Hku/tkPvA5J8ov44H/8n+j83M8hePJpxP1g38D/VBXK11x5NYKmA2Ubw+tjBHsBSq2StLkFvSBjB1QpYkSDGE7dmapObE2zXUc9DWtSjt2QODDZfshWMVMUE5IfaRszlihCJECuamMj3JorRCilAxvttm0TjuchGo0R+4FqeeO2tbKSP55s7kc10GWHzwLfVv11DEqV+ZJpQKf2pMwZI2jYllIiSBo+9H4Yv/hOGFsvyO3syZKnFEeBBAkH/ONUTBiufeBpITIkPlQtGLpqStF+hAUCEoBPXIbz+odVXozMwsiqA1LDR2I5iA0b1csfRqN0AS4C2KMO+qVN9M0Ynu3CCANEVhmp6aFmjOGZA5rZA6Mh4FVgrKzhrIKvC93lapUSuv0RgjCS22plD7Uq7bXvTPLDPKPBaCyKIUESx2OkZXieDPHfEz+zF59ThPRtzGIqUKBAgQJ3HwqL7DuEBH3d133dgdu++qvZqlXgdoNk43Vf/zb4f+PT8dFfexe2/693IqQLGd9MObKzb+U5H9FiA17bw2TbF7trXbzbZTrExcowwbFkroVzQSoDyIBVUgSIYHtc5IezHKLscTI3lOSe38rMB/RtnCmyM1LCPzsWmg+swa2XxADBIhEpl+Fc2MS13/1zBN2RetxR39Xa9IA8wmdOTmaFPXefAyslMj9kqsfyIWmM9H3vQbxahlV2xXAhmvgItnsIGbAjWyY5A8bdEeInr8KpurIN5gLxePz+5IYrMiR4DHOdbPXhXGiK+hM6FdjBSNQmtoUZZgg79nHfp34HoVOHb7qIEgfVhoNodQOlq5+E6/gyO2OECWIhbi7M7g7SB1+JdHXzwClQRgNAtXQ2VAZaam+sKve7RaBaxPOh2uPOxj4vAs/rXneA/nCs9jWblyS52+n0EUaxqF/6vVkueSiVPIzHvhyXPjbOppFk12tlCaEtUKBAgQIFCpwSCSrygc4evHPreO23fxV6X/kl+NjbvwODP/wAomGgZgiWxAwZLlDdrMCt2phcm4jyQlMB2l4LLyGhiZSxABUeFp6lRlnmX3ThxtvY+iUFPlUa2XD2w1kcm0GpimjoxzDrR35LKCSmBGjtiYs4/4aH1TxQFIuyEiYGgqefg8c5IRmWl3jWI50TQ7chsQ0ul3eUJ4YHFCAhhipwFSy0LQOmayEeh/B7gDn0EQx3JHx1hiz6k+csMhAkE2U3bhjy3GKhXbLFOOKwnZXzYRgIWDSjicR2YMWBIl1OGbHhIYxTlNIEY99EabyFqLKCxGNnXoS1dQ/pwEbYHyEVJQtId3YQdnoov/QJRJ/7NkxCoOzOsnV4/OMghesYWKmdbaWF55SEYjSayPwMQZMAmiycRbMAPwhFBeLsUp6s8b9JbHgsQnwYyJuZH6ytNNC1h3KMIZVLGNI+12iU0bjL3PAKFChQoMAMrG2OWt8cZ5sFblFYaoGzh8ZqE2/8T/8eO3/xIVz+T/8Zpf5VlFcqGF/t4fnf/ksE3Ym0Z1l1G5WWA7flKveybI6GCEeRMiTgbIljieU0R0o4q+PVPSEnauhftZhxlVpmeWwqRqEU87ZjI4wzsnSjK8sAquea2HjV/dJe5ndHEioajiZwKi6sSgmVcytwPnkNIe2r2Q6Xub4tg7K9zkhcNgcjQ+c6v2jaJkjClSM0vA+3ncSK1HE+KlO2wkGu1XDhk6ptRxN1ThjgalccOS/ldgXDcCCq2aLjp/mD5N5QhdIfhqYNMxwhtmzAcuV2k+c9iVBOOvDSCYxeF+5wC5FXQc0OgJe/BP5OB+Pru0h8H1a1itJ6G/WX3o/Wo+dweScWEwSGrIpql0AI0KU1GyVn9mFJ8sxAUzqx8dipzlTK7qmZEZAAbe/2xB2NZEG5UKZiGz3xA7RbDZkXOksYjlUg7CK1iqoQZytH48mUBBE8LmYBNWoVUYoI17EL180CBQoUKFDgFqIgQXcRVl/9KrRf9Uo8+VfX8dQzV7DeivDSB/8/2HrPX8Bt1mDYFpLxBOFgJITHLlsI+qGaw2G7G+2xdTZqlMCuuKKIBENftW1RDbINxD7nNiCBq6KHcI5FerGOoH5kYK7O5ltfi9iMsfPh5zDp06BhDCOJYVfLqF1oo7JRR/Phc9j56HOKlE3dEHIb0jmt01RUY0o6qCCZ7P1jrlEW8Cq7Ox9rRAIE2l2rYl8CY7WBwlGg83/CGME4gFV2xOSBVuLlVhnD3aFSxjJzBpJHsQFPyHNsObduqyaOcGYUyH1SpyrzR3xIJerBTvfnRXnxECXO/DiukJ7KhXWUV+uyy86ll8hsUzLsojq4gpecvw+dYYzBRJHIetlEq2rByxEgKhg7e30Eubkr2jf3BhZWWzVxZ7vdoI02CZAjhCCXoSNmAhE6vYGQibNEFmijvky5UWYUhihCiyDzZHfgDFSBAgUKFDgZipmg00VBgu4ysNB69GWb8kNnqvdf7aL24U8h6PbhNiqiPnitmpCcxE8RjXqIw0TmgZR5WorEV0YIlfM1CSmlAlQ+X0L/k9cQT9jvpp5LBZbS3toTgsXQUD3rs8+xbpaAKe9Og5bHF9rY+/hlcWOjsYNVKcOOOX/kibLUfeqakJ7a/WuiUPQ+dVXa06ZEiDAzAwQSHyneTRhUsXSQKkeWohgGjQpo0qCd9KQtz0RKSURa+pTCIGDrHVsB865xN8o9yplSkIAxc8ldXYFtxnAbbK8zMdoeyjaFAIk6ZYjrHrft1MvwNttIynUYwQRGzFZBE1YaIfVHsOKJOoWynyLfzT7lwgBxZ0dyhUzbgb1+EaZXVn/rRUj6HXibl7DZsrG5ZPd5fjUBch1rX9tcEMYyy7K51rqtDm187uFonClA+0kF94/EKAxjUYQYJnpWMJ0rWwKZt5Mhu7sbVPH42ihzB/PMkdUCBQoUKFCgIEF3MThX8Nq/+bl4z5UuVv/gPyPodFThbTuIYcNqN1BPDPSe6SLxY2kBYyFP9ae6WUPlXA0M6wkHE7GJ9lY8RONQ1CO2gPH/vJonrnEkQ4lrIg5CqdF1+9wBxzqYcNp1lM+1MXrqeaSmhdL9F2GGY9keZ3Nsm2rSGIPnd+FtrqH8mlfCPb+ByVPPIhhGmGz3lKLiWtL2JsSMK+nSxkcmIn192YBTitQPkbD9SIr7nMLD+5AIZbMmiTjJTS3mTrScQoe7oD9B/7ktNB/egJ1EqKzXxGhieH2gdoHmCRZbCU1FgN74RiQ1F6PXvQ125woqH343JQX2IsKYOkrweLL9xdz+BT796mG01mHWW2o/svsZtNtetJ/ZY0ko2AI3T4D033hbEMQYjX006xXcziKaM0DLCme1n+nUfe2soFz25HzSyMGcU4RICNR9zt4s0812xuv1h4hzihfzoZqN6pkirAUKFChQ4N5GQYLucniOjc/7+1+GP330ZRi99/fgPfNRqaON1TVYDz6C2tN/juQP/hyG5N7QFc6Et1KRNi0SAnIKvzdEWjLhNTyUm2VEKxEG1wairJDs2J6tjBXYHjdWltfljTb2/norNw+jSIlVceFULQTXtkU5opOaOWEYqiJgzMmR+5VchMMAw3EKb4VzKQZq963BefkT2P3d92L0/LZslRxBQiUzgwep7bN5G6S2tP8J76GTXWZzLbBUwU8ikkxUUKwmRySKPCa/m7WgHZcLpUDIGadrHdjrNXker16Sc+rVK5KvpG8zN89jsn6BD0BarmN832Mwh3twr30SUWMd3rN/mdsu91Gpb0LgZAZK2fOxwE6uXkbU2YHJeSIeW7UBc/O+fQVqfPU5hJ/6CKKrz0kLo3XhQUzWHgRKzYVtXHJu6YA3CW4rCZLn5YzUEiI6JXFzKlEQJhj6dNVL4domaqXF+Ty3CpWSi4HriArCwl+rWHx9OO/DtsJyLmbgNBFGkbjSsRVSrkfPQaVEW/KTKzac1+p0+/LfVOu0EQmPfbfTl3/TGKJAgQIFChQ4bRQk6B7BGz7vCaRvfRz97kjmLOxSGeWShU/9/9rAX3wSZhzAq7tiRa3UBw4NOfC3aL2dCrGRMFM6V3mOMl7YHYnBgo8JbNdGAgNOrYyVR9dEIbLqVfSuDhFFBtLhQJQay0yRDH34g4kQKMN1kTgeDPhKTeJTuwwANZCME4xDBw7r/skIVqUCo1JD7TWvRDj6M3B3osFIlBd5rBAEtY+GZSMNAk6j5weH5N8pCRBJRBBIsUwThoQhpZNQZpoYfhoF0YwEHQe6KKcD284A5VW6eylljG2D9UvtrMAHEsPE+MKjcOMRolIDUXND9n/8yi+A1d+Ce/ljMCI6xWVsL88HtCKkngxgaHESIYlCpLY9DUgNP/kRmK98o/x38NH3w/+L9yAdj2C4HlJmEH3sz2BYH4b92JuAB1+29LBud4sxFSAqJv3BWJlHzBEZrRJpgwGSjKudEN1hRJNBZTPBgts1cL7touLdnlY+7hPd3na7A/h+oAJgRZg0UK14aDdrB9r7TgM0Z9jr9KVlVqtqJDADZ4z2SkNMMY4Lvgb9wWhKgPa1L9qWzHH1+iNx9Ssc7woUKFAgW/u92TNBN3dzdzUKEnQPgYVHo1VFA7Nw2ye+4ovx7NYzeOG//SZGwwRe1VFZPWaKcBTITI1bK81MA7J+MebgUDWadMeiCDEjx724gcrLH4VTspEOujCdNRiDZ2FxZbhRE7XICidI6NPNFFXODPiB6j5zSjC8AGkQqaBQkhiGnRo2kr0dWKUKnJUWDCNF6eI6yg/fj/FTl5GktJdUbWhCcjiSxAKM5EerJo4r2UNpfyABrrTBTgMmvarWuZifQBRXeNyZsQLnNsTkIWu1O/I51t104qIXS/uguL/ZJsqrjdm8jWnBrLXQqgKTjo+d85+GyHTlDWnvPQ977wqMOFTmCPNqiBzn/na96X0TuvqVYK5swKrW4f/Fe2GtrAvZnLz3XUhGitTKY2wHRmMFZhLB+dgfI147B6O2P6tHz0eVqKzdZtQqZVGgmLGjVRVRs5iflCSo1ypyO2+7shdgtx/BsRTxoTEEX9eRn+C5rQAPbHooObdnJsW2Lay3G1L0c98JZv2QCJyF4p/7RFVG1DIxQ5nNgHGfd/d62FhfmWYcHXm7QSiKj+McJJx8Dp4XPjfvQ/e7AgUKFLjnwXBHCXi8ydsscCQU30T3OFgsXvrmb4FZa2Lnf/0Bwv4AdM9OhyNpj6k+fBHhYABE46z41gM+qag/bI9j4Orqo5uI7n8UaW0F9HGTVXprjC4VCn8CY2UFZsC5H0Va2H5nuI60wSWDEcx6FSbbhBxX5nqiTg+W64FRMOHKRYwfeBnc7Y/C8AMYXgn11z4Bq9HA8GN/jWg4Efc4NSfkchhKlBASDcQRwO3yv0nk/MmMqpAwcVWepgmyIm4pBz35b8BbLSG6Sme3I66ryLZU3pJySVDtgl6rispaA069gsSwkJgOhFPEgczzVF/5egwe+DSMJinG/REufOD/FuUrrjRhc1u9nYNrO/uIkSHOciSOVJLCjfuReGU4ZQ/pzlUET/4lkr0txLvXRQEybFf5K1A12r4qxMdMgejyJ4GXvXZfURxFsTiWVSu3f5aDxGF1pSHhoyGvIy3mWaYQoGajJrf5YYruMIZjmXDkhClYJgmRKUSo049wrn37ZnFknoqhuWcw6JSGEySSeQKUN5wIAtUmxyym44BK7D7jkjnIc/E++1TMAgUKFChQ4HRQkKACMifXiIUAANKSSURBVJdz39d+Fdbe8rnofvBDiEcjWM0GroQlWH/9PkTvfQ9S14WREQht3czCnISBsy1wPSTVVi6iyxCHM6NWhzEaA8MhkiSSmZ80VfNDzsYGoq1thLtdIR8i3hgWfMtFulqD9ebPwfjx1yFYOY9J4tCTG2vXPoQkGCB2y/AevITyWhPDj30C3Q8/hWjkw0hCGFEsrWaJEB9DZmRY8KNSBXx/P6HIhoioHrE4s0oenLUGot2u2GuXNurwtzj/dOPCTSk+lspOknknCysPb8JpVGXf+Vyx5SCCK/vnXXoJKm/5Yvi1NuzuBOU0hLX3STj960JoDO4/Z61qdaSD3sLnFOKTa5WLy3UktivkkrMejldB9PxTiLeviOmEoZ3jJDiXJDFGOuzBLlcR93cxYYtiFoBLJYUZQSvN6qmt3LN16tz6iszYkJDJ7IrrSDscw0X572Gg9tV1F880cZ6sO4qxsXLQrOBexMQPRVVbNgPGF5+qDo5JgkiWeX6lxXTBtiVMmFb8hQ14gQIFCgh0uMfN3maBo6EgQQUEMj/xwCX50SgPErwrfRj1P38W3ngPTWsPduyrVjYWycxEMYFSu4nw4sMq30ZP4PhjoNmGVad9c0kV2ztbogaZlQrMWhWRXRJlx6JlNxWh4RhxuYHo4cdgvOktCB95Aq4Vi2W0GwODB18Dp1WH98KTcEd7sg9prYHGK14qz7X33r9QRgjiG2DAadQRVVtIr10RoiBzMNoOWwoyU8iXtPqxfW0cwHBctF76IDqfeAbDuIRxqY24FcC5/pyISUY4EZUsYduehsl8JGealSQW3QDq962g1KwI8dHnJnYqcIIhfKuNvzr/NrzMqGO03YcfchXdgOP3YMYREpfD46nMlDhUbmxHmUZoJzvDhFGtiYIF2mrzNUltpFUaHGRjQlEEIwphjWnPzeNd8HZnQRrS/WKMWr0Kr1EVwsHH1zwHtXJJFIPTRH6YnsU5W7mCMFStetLdaMBMWFgvNm5gYT7NYrgHORDPE9UwXktUx25ViASJMgkqWxhNaUmcnWylKiaiLrEtrkCBAgUKFDhtFCSowFI0ayb+jy+4iP/3B78SD3/oVzH0TdSMIapJH1bMTCCgfH4N6ctfAZTrswey6IaB+JFXwNnyMfnwx2FdvA/G2irc7eeRpjEi04MRRTAdB/XXvwaOZyAZ+dh5/PNgPPgKcT+Tmp8GCVLAJnSBxnjjEfRXH5HZIjOcYO2jv4PIKsF47NVorV9A7z3vQ9IfwGTAJlv3qF6duwhzdRXps08rRYuEKInFtlrbTqdhAstzYJVV65y33ka35yKptBCuNFCuO0ieewaJb0jbnrXShpkmiLtd1dIXsYUuURbdBlBqVdB+2QU5DzLTkyZITBt2HKg5J6cM3yphtzcWs4gUJiyLPXiVbLYnQWrJoznCJMWrQYWM7X0kN2x/A8NqE9kPccCr1JCWq9kgPs0EgHg0hFWpyuuVThiSqwwD9oHkLYrgXXgQNapWuZmxswSSuu29nsytcO5EZ/JM/Bhm6iMJGfh7kAhRJfJcY+pZcS9hMI5xrRNiEijHPGnTo7mJkcC2D14Lcn1krYjHBbfFFsUo6kpLHdsWuRhBwwRpv3NsNG6jw2CBAgUKnHUUYamni4IEFTgUrZqJRz77VXg/6nhg9wNY2/4odpIQpUsXcP8bH4Cz8zRMzppQIWGuTURHNgfho6+Bf+lxmBMb+MRTSPZ2YbRWEJRbcHrXYYc7CPtjlFebqDsTROU2Oo9/LpILj9NMW7mlcNE6IwHX+2U8uDqAbWVuVnYJpd4LMMcDDEtripCda8P5ordgcvkqgitXYfojuOvnsPN/fAMmqw8C7/4fKP/J/0SpZsO69iyScaAUIc6S1EvKBKJO1zQbxqWHEOEiys98FNXhM3DcBMmlc4j8GOHmA0hf/jpU6kDjo3+I7sc+hclzV5CKiYSL2sU22g+vwbRtaU3jDJCZhIjdKialFfSTKhrWBO30OoKwDc9lsajOd7h+P5JKA+awA1ABYhFJgmSqTCSRk9wSjOYa0mCczQO5chxRfS3zTFAFv8FZotBHMoqB0UC2b4wHQpQ4C0ZQIUr9CczmCuxLj+AsYzAcCwHKz7LwN00bgjBFTCc9y1UW4TkCxGtppbp//uVuhgq5jdAb+NjuhYhTzvrQZt4SQuKHDmIuYvgRSt5+YwRtQnFSG2sqQWurLXGJm0x8xLTdN+iLUpE5rkIFKlCgQIECZwV3FQl68MEH8cwzz+y77cd//MfxPd/zPdN/f+hDH8Lb3/52/Omf/inW19fx7d/+7XjHO95xCnt75+ALPr2Mjz59Hz5SPQ/34beB9ZFtpFh/dAjn5Y8jvvw07KtPwwgDJI0VRBcfgb/2gMz4hC95FSafO4H5B/83zE89DTcaIaAqIbNEZTTvayHdvY4odRAaWcuXzBYAHPGgG9wksoUExbGBRzYGUtTGiQlj4EsrFJUbByFizhdd34ERhCidX4O70oRdr2BvdR39iQvzsTfD+fAfIwj6aK61xaSApM2iMjWeSNuUdd+DGNc2EFseth79EuAlb0HtykexZu3CrlSABx6F01pVqzeTEezeU1jfXFV203vbKAV9GEmklBy2xokRgo1x/Twm1XWMAwMOC1D4shLPAtUc7KJ07ZOwd69I21zcWIc17MKYDJGUOJdhS2ithKKS4DTbsO97EJMwRDgcweoxM8mEORkAkyFMWoAHY/V4OuNZnsrVYfsYlSS21OWIAs0oSm/4PGkXPKvg/nNYf5FdtrRkehbGkxB+GDIGeDrTxJ9GxUardld91C0FZ6VofU0b/DEdThKApni8zlOjDNN0UPYcTCYlBJEP04iU654QYrZeWmi36i8qK4iKDw0txMUvVVbmx3WaK1CgQIF7AcVM0OnirqsMfviHfxjf/M3fPP13vT5r0+r1evjCL/xCfMEXfAF+7ud+Dn/5l3+Jb/iGb0Cr1cK3fMu3nNIen3206ib+wZfV8Ku/M8KnXogwGLGNBvjgp0r4jMcB86HHET/0uNxG1SJOWaiyxcvAOPaQfPrnwzh3Hxrv/iUku7uIvCpKZQPVEotxQ1aLnetPY+W9v4bxpVeg/9ovRErLbIMNX6xyVb7QzshDpRthvearWRCTjT0pnHiM4OMfRbi1rWRgFlw0BnjOQHzxPjifZsKNYvjtCxi8+UtR/4P/L8ad67BpDGA7CCYxUsOD/fhjCB58OSqj69hpvhSh2wDcBiKSnOoQhh1Ly1WamHCtBGatjNFLXofaX78PVjBB0lrHMGzDGuyh5HeQWA786gbCUhOBU4Uf8FgNtNI+gkobfnkFze1PovHkH4lqJYoOz1oYIK7U5TZzzNwV6W9TpgauB9MrIe1sw40jUZ+ii48ifPxNsLtbsHdeQMoZoStPIa02kLbPi9mDzCP1djODhkRZYUu/XATn0kvgPfEGnGWo+R913S0C1TSeW9cy4GfqD+2y15sO2nVbzcLc5eD5IQFi3o9pqfchCYi4H6a8dkcwnZoYbriuBz+00CwxF4yGEySSHipl76apNSRSlnoHFyhQoECBAmcOdx0JIuk5d+7cwr/98i//MoIgwC/+4i/CdV088cQT+OAHP4if/umfLkjQDbC+YuPtX9HAlZ0Iz16lHTHwsgdsvHB9F75PUpIi4YA6HdLERhuYxA78RAUjVp0ArUcvYlR9Lcydq3C2nkHqlhHbjtzfDscy4VJ6/uNISlWMXvVWKcz82BLHuEYlxk7PxrM7VQSxjdWqj/VL52FdLWPy8Y8gvLYFVOswaSAgBWECY9SDf20L1pN/gcrDb8YktDB55ecgrq+i8pf/HdanPggkIdz7zsF7+AF4m23Y42sYuC1cX3+NbMc0ErRKPsLYlP0k+QFox61WzqNzD6FfrsG+8pTMOzmWhX7rFehFBsq7T2NiN+CnFURjA7YJtIw+rDTB1Y3XAMMxWp/8I8n4CRvrqmBVOw9zsIOouoLJ+oPwEGNlrQXn0Vcoh7ln/xpJvyOkKG5fwKi8BqfkwlxZRfLgYzCe+yvg2jPSHsc2OnGt27xPCFDa7yDhbJA/grV2Hvb5B1D6tLfuc407i+A1RFcxzgUtMhfj9UcXuJWWixJJIrN+LXU93iugaYQEIduWODCKXbWoqfxv3hYjiX1Ypgrw5RJDueyhWb3rvgYKFChQ4M7AGZCCfvzHfxz/5b/8F3z84x9HuVzGZ3zGZ+AnfuIn8LKXzQLUJ5MJvuu7vgv/6T/9J6n5vuiLvgj/9t/+W2xubk7v8+yzz+If/IN/gP/1v/4XarUavu7rvk62bduz75jf+73fw3d+53fiIx/5CC5duoTv+77vw9d//dfjtHDXffv983/+z/EjP/IjuP/++/GVX/mV+Ef/6B9NX4D3vve9+JzP+RwhQBp8Ifli7+3tYWVl5cD2+GLzJ68m3cs4v2rLj8Yjl1ax0+ljtztGQvtrUoTYFAVoGJWnw+jOuKOSkWm73L2e5fY4KrEnVaGobCOLKysoPf8JjB79NPjeCsahI6v49XKKwYT3NbE9qGB7UMbmy+so3/cQen/wHrH5Nl1bRfokMezIR1KuIYIH+2Pvh/kQlQ4SLuCBNz2K0mf8P+Fd/jhKz30Utj9AHMXishbVWwhL59HuP4m6fw2TlUtCXvzIQhyZcM0Ynq2c4chZGNYa1zfRq1yE9UgkpImkjWrRpe0/R//jH0cw3IMVT2AnAVLLxU77cWzVX4InBn8GKxghbm5I/JIeXOdJiattWL0tmK1NrLzxzah4s8rf2bg4/W8vSRDv9TGaMHSWIa8GzO3rEggbw0IUGQhHseTnlNcvwFhZV3lBtoPKF/5dWO31O2JWRoh0paRCPhPmUO3fZ51nVCmVDrRySQholvVEdehOON6TYBKE6v1lG/vydOWSEoc8SrXKVY9KGa8VEsUCBQoUKHDvGiP87//9v2VM5A1veAOiKMI/+Sf/RLqmPvrRj6JaVUZJrKV/4zd+A7/2a7+GZrOJb/u2b8OXfdmX4T3veY/8PY5jvO1tbxMR4o/+6I9w5coVfO3Xfi0cx8GP/diPyX2eeuopuc+3fuu3iijx7ne/G9/0Td+E8+fPSy1+GrirSNA//If/EK973evQbrflRfje7/1eeSGo9BBXr17FQw89tO8xmsXyb4tIEFnsD/3QD92mI7jzQPVivd3EaqsuQ+ucg7EME9e6Ca53Y0w4sM6iNcsBEsUn9BE7HljWT12LWZjBgu814XWvIt7uwD+3Oc2sqZVjvMwbwUojuS/J0Uq1DGtlE5FdltY2usWZsh0TkVvFuL4ps0fW3has3g5M5yI2m0DVDSVaZ3zpCST3P4bKzjMYXn4Bpc5zcLvbWOttYSVr40m2ahg+9Fr4q4+LU1uYMIiVn1pUGlSLlpi62SRAckayRM8YOw++Huv1JoL3/S9Egwih7SG2SmiPn8O5K7+GipsiKpWUbTfd42jypj+9OEfhulgZX4Vz5Un4oz4Mx4N94QGY1ca+87/abqA89jEc+RhNOAiv2pBoiW1Kw2AKP6BDV4pa2YFJY4RS+Y4hQBokQbRfptphWobMmfB0RXEM0zDRalT3ESCeS4ao7g5COX7Ccwys1G207kajBGE8ivDw0Ej4giiFSfLDQ1Xyj5wXBsxWSxYqXtGuVqBAgQL3Mn7rt35r379/6Zd+CRsbG/izP/szEQ663S5+4Rd+Ab/yK7+Cz/u8z5P7/Pt//+/x8pe/HH/8x3+MN73pTXjXu94lpOl3fud3pK5+zWteI4LEd3/3d+MHf/AHRXzgGApr8J/6qZ+SbfDxf/iHf4h3vvOdBQlaBpoaUKk5DB/72Mfw2GOPicSm8apXvUpO+t//+39fiIznnWzom0Qqv10qQZTwCuwHi3HPmyls961ZuLhqw48gGSW7/v0wrvwFSgiRkv2oemy6YkGbZ7/E4j4rTHP1qWOEaDoD2GaMKDYwDkysVSdIAhb+ExiVOiYrm0KwWPInlgvfKotKY6ZqpiZKLJxbAWqlBDFnaWDCMxI0L/8F7Oc+AW/rCgwaC5gWEraZNTfFHMEed9F48o8RO2X0Ww9yhEYFmErLH9ut1JyKUrSyHZf/TxHs7WD84T+FVy7Bu8hrhg1/dDGLEO9cgz8ewijX4DUsaVfiKr4+l7ZtIu5NkDz1YYyuPJVtPJX7u4+9Bt6r3qTCVLMcnFqlJDMdnStjmCv3wXz2I5nJhC3kzbBIFkiGErj+CPbDL7/jSADPy1q7gd5ghNGYzmN0CgTKnod6rbzP0YyF/vVOKO5oPHMkBMQ4SDDaDuQ8bK6oVs0XC7HpDlOxoSbKromSe/vJhczyZCRHspU4J0XXQC5CkBilVCltOXYaIGw0nTvuGihQoECBuwm3shtuvnOJdfBRauFutyu/KSgQJENhGMo8vQZrbnZcscOKJIi/X/nKV+5rjyOxYXscW99e+9rXyn3y29D3+Y7v+A6cFs48CWIP4o36BR9++OGFt7/xjW8Uae/pp5+W3kbKdNeuXdt3H/3vZXNER71oChyE2Bc7QMmx0HzFI+hduR/R5U8idG04tIy2bIRRAjuaILZcMRCwJwPEXhU+VRzZSoq6M4RlxAgSW8wWWPs3ayQiMfx6A06lhCgMEJYa09YfTgYJqRj3YK2s401v2MAgsjEJIgS+GqCvfPLPYT35AbHENhEjcUtCgqhUuXtXELQvIqm2YPe3UH/ho+g3LsGPHJScRIwaxAYiqyGnBGh29HCufgrpsI948yJsgwSIcxsRwjBGyu0Oe0iHPYS1NizHQtmdFaXxoIe4swOr3oK5sgaD8zwsYgc9+B/8I1GKSq9684FMGJ7P0rkHET+zCWvvCpLmuhyTCAFIEe5tw61W4T7yCtyJIBFqNWpiuaxIkLHQMW7sJ9jph6I+OuxnzMD2L7bG7fYj1Mo2auUXZwIQRAmu7oYYTGJRPHmW+Zz1soXzbdpS3z6SUSp5Qm54fTFHiblTtZIp5IzXheRtmQ7qZVsMI6gEFShQoECBuxPzC/Y/8AM/IKrMYUiSREjJZ37mZ+IVr3jFtFOKogJNxPIg4eHf9H3yBEj/Xf/tsPuQrI3HY5lHut048ySINtb8OQloesCiibIe8eY3vxn/9J/+U2G07FMkfvu3f1sI0qJWuAJHA1eeWQT2RhGiSA2o1yuqwOQKNGE5Npqf+zcxee+7MB71EV6/BieN4ZgWAreEce28EBxr0sPggdcjrraA1IBnBnCMGFFiSzsPFZiax7wc1eKVNNpI77sf3l99HKHnqSDSTFGhRbSTRjj/1s9EvVEBfQLT1MKVrTGi3i6sZz8u5gyimFDisT15jpQ5PMEE1qiLqLWBuFSXbKMVo4dWexW2YSCMaAShT4A8m/5/9Tv0Ubr8McnpoStb2mojTA0pUCXHhwYOXkWsi83+DqL6CnwYKHkOkjhGfOUZGKYJ89wlIUCyWcOEUW8hSfcQfvyDcB99lbS2aVDp4ZMbjgv/1Z8P7y9+G1bnuvojzx1DXct1OG/4fHGyGw05R0RLYxOeY91RqgDf11MjiQXgtch8KZc+63OgKjSKUrnPiyFBJD2XtwO59j3bhGur54oSoDPg86e4f8ObvgduNdge2GrWsdvpIQwicYhTbXEk7XR/K8vfPecgaSxQoECBAnfXTNBzzz2HRmPWPn+UBf23v/3t+PCHPyxtavcCzjwJOioos/3Jn/wJ3vrWt4pDHP/NQa6v/uqvnhIcGiVwvucbv/EbpU+RL/TP/MzPSD9igZOBhOPKro/uKBJSIJkjaYrOMJJ8lgur3tSe2KzWUf68vwPnsddh8Lv/A8HzqtAv1Rpwwh76wxSjcy9F5+VvUcU8CzgzUq1nLOKRwjUjWDQfSDMFgPf8rM9HOJnAff5ZmYNJSBoCH47noPHZn4OVN33WdH+NrHWs98kXAH+klJJ+BxR2OM8k9+H/WLYYJiRYk9wdMFMljeG6HNzhnpjwQ7KgWTucfrB35UmUP/UBOHsvCPEwgxHC3jaiSguot2cFqGUjWbsA+GNY3W3EponIsZFGoXyKWZuXYDqzFsPpU9SaSHavIb76HMyHHpversdhZPC9vorxG/8O7GtPwdq5LEQvrK4iPPcIrJUmhtcG0iolr4upAkfXV8pw75IwS868SGDskmKfAo16/U6O3ijGcBKj7JCQzZ6HzomcURpMElHn+D44CWiUwcfrNju22NVK1qGOd7S4tqyWBMtO/ECuI891ZZ6KPwX5KVCgQIF7AyRAeRJ0I3zbt30bfv3Xfx2///u/j/vuu296Ozul6Kzc6XT2qUHspNJdVPz9vve979BOq2XdWNzH01CB7ioSRIZL6z5KfXRz4/AVSVB+noeOFhzeItN9/etfj7W1NXz/939/YY/9IrDdC7A3jODaJuzcqjtXwUmMuOp+rj1bfSDpce57CK2vejuCZz+J4K8/gri3B69ax7j9Uuy4D2V5OSwkMwUjC02l8xp/1G05FaDehP2lfxfJJz+B8gtPw2SI6do60kdfieDSS3Gll8JzYjQrplKpqiWEFsRJTtQT0wYTh0QRMjmfkz0vrao5XxGOZU6I8zgXNlqZOxnwqctdhFGYWQ8oouZefwbVT7xXHhtX2PLWgeGWkCYxjM6WmEakjbYYIaRJgtH6Qwg2HoRz7SlxzbMdA07kI+x1EO9tCUEyGy2Ze8qfQ7KtJAzFCIH7Q0JYLanjo0rlOmSQHqL7HpMfEqORH6PiJOgOAziWUn8IPn5IQ4WdFBfWqrBfRFDmWQEPYWoysQDiXfEi7bO7Q+USmL8UZ8/PxYAE/dHJSBAJ2vPbvswwyUphRs4553NhzUWZGVdL4LmO/JBE8cHKKKEgPwUKFChw1nAW3OHSNMW3f/u347/+1/8qFtbzBmKsl9k9RTe3L//yL5fbPvGJT4glNjusCP7+0R/9UVy/fn3afcVOKxKcxx9/fHqf3/zN39y3bd5Hb+M0cNeQILrC0aXiRqBhwh/8wR/cln262yFEZxhLwTc/+6BvIxFabTj75jIIw7LgPfRS+dFwggSXnwwQqBgeIT9RaovBgSgjhpoB4f+xfo2YSJ8k4iqXmCUYj74Sg8c+DcPIQ38izwJcVcSJs0mc07hv1UajYqHSXkWP9IXEx6vIPBDDSWUuKGsdS21HiApnhIL7XwHb8+A6s7dMu1nGtV3agitFiMSm/NxHYCSxZBEhGMuMk7TaOS7SOIbR30VSbQK9XUSlGvz1B4FSFZNLT8BsrMP52B/CGHWmLXpxFCAZdGCurMNaVaspaeAjhoHrgQV/ezgdhPdcC/WSjc6I7l8cflfOemwLo0sY27WSNBHCytap6WtlGSiZBvyAQbghWvU7fwaO7ZidYbzQTpu38f/qFevE1z3b3fbo+Bel03PLNrM8seJrwta4Y28/TnF5y8co4HU7yzrifo+DGM9vB3hgg/M/h5NVacO7heRHrMfDSNz51PXnHNqiWKBAgQIFzh7e/va3i/Pbf//v/106qfQMD4UDKjT8zQ4qigo0SyCxIWkieaEpAkFLbZKdr/mar8FP/uRPyjaYAcRt6zY8WmP/7M/+LN7xjnfgG77hG/C7v/u7+NVf/VWx3j4tFN9YBU4MFtphnEydt+bB26m0TI7YdsRV7kfO2ZLLI3lDCcNSbfixI85wSgVSq/xs5VLtXDRKsMVNjfXeaBLDD3hf2lerFRFuZxRAiuJnt0NRRIaNc2KkYA77ZGSIWueQOh7MYAIjCIA4RGqYsIYdhGuXEFx6OWqV/eSg3SgLKRKzBhohDDuw+ztISjWlJrllWGvnpDDkjJHsjD+CsXUZsVuG//hnwazUpFil9Xft438EDPYQrWzAWt0UiYEqkjjW7W4hGXRV4bm3g0mlDb+xOVV0qN5M/Ah+GKBdU4pQELJoVhbljbKFZiWbz1pQqGq1oD8OcDeAhJfKGK89XoM8b/yR6zFIUCkxgNc+8RzQC7tU4GYOh1Rs2Lqm5rIUQeCPl80JHQe9cSRkp+TuD3tVbYvK6ICteKeJIIywtdPFte0Otna72Nrp4OrWHnp9RcoLFChQoMAx7OFu9s8x8O/+3b8TR7i3vOUtktmjf/7zf/7P0/twbORLvuRLRAmibTZb2xiwqsGcPrbS8TfJEUdRmBP0wz/8w9P7UGEi4aH68+pXv1qssn/+53/+1Oyx7yolqMDdgQttW7JLPnU1RHfMQtLAMKnBsQZwzAmbwEQJ4qq46BymIyRGCtyELW6qwCdhSmQVXBWRwj+4au9PcO16D0kcAo+8EtWPvw9W97qoMlFjHdZgD+akL+YI4cp5hPc/hujiS+GWymLDnAeJ1/3nmnjuahdBGMMk26IyJW5sBiolB15jA0m1hqTfgUWnuHEK/8KjmLzsTUBN9dZK1tDWc7CpEjXWxAbcba7BHI+QMB+IznBUhbavwhgNELg1TB578z5LcvJQ07Hg03kujfHwucq0lYqKUMkxsdWhhfhysN5WDmd3PkgY7lvzcGU3kLmdUHWuSRtjo2rj3IqD0WiE8XgizmkkqqUSZ2cUsV0GusrRUIGqDwlof6Jsum3TEAWHdvD1iilkiKpQo3p8tYlkSsj9AhVHkdUU/bFSWG8VqLAyk4kBeOLyWHLhZKHTYRRhZ7eLIIpgWxZs054G1nZ6A7nmmo2ZYceLBRc7xmNfZpx4dXqOjXKZSljx9VWgQIE7G1zKTW7BNo+D9AgLV6VSCf/m3/wb+VmGBx544EC72zxItD7wgQ/grKD4FilwYuhCkJbD3oL5Ct5ORYIF+LytcG8YSXHKtx5JT6PiTLNVWlUTr3vEkzaj7ihRgY9ow0gGGA2Hcp8ooQJERzP1GLatxYmBKFUzPWpqZrYgwnqyZPpw0zHCUBX84caDMjfjPfdxWN0tuXPU2oS/8emYXHhUnNRKriPtY+1WTZzb5lH2bLzk0go6Ax8jWmeXy3CNGG69Pi1izVJF/TTGiHtdjB96jWzbyIwJ+AFUGnVlH03bFiKSWo4Eo9ImO+ntsUdK2uCMV7wJo43HYLVVz20eLFaVIqTawGiFnAf/ppQL1T43j5jKxV0wD6TBdrFL654oJySEOiwVcYDtrS1MfF/li0rXmAnfDyR3qt2qo1IuHdhekrXBkdzwh9cQlR4qojqglMrocMxVMWCt4Yi6eVzofVqGWSbVrcFoPEGnN5R4AQ2zb4qxAu3JabpAJch19wfOOo4tRGgwHMl9JbcoB7bGkkSSLPI9td668fnh8+zsdcVaXj/VaAT0ByNxuuPzFChQoECBAidBQYIKnBgsBJtVC9e7oax85+eCWMjTLpuFYH52YTCO8MKur4hN5idNi2HOV5xb8dCszi5JzlmsN2aFVJw0sIUUwxFXhNWouKxgpMxASREkjihBiwpICzGq1liRAMOGabFPLkXYvoho5TwMOsElDEptILEsmRVi21i7VZU2uMPUAaoIbI3jz/jRJxB87M9gJA1VCWfgkDzJjHvuAaB9HuovioxQPrYzy/YpaeOP7cBeO4e0vYGkt0ufceD1n4+oM4GzpEom8QqpRi2okqtlB52+L68V1aE8tALUqB50o7uTIaGhniU/xHA4wl6nAz8I5SxTzVOXEFUzFugG9jp9URlY1M+Tev7ouR9umwSe/yYR4uwar0e+D863SZ4NbPUi2T7JEmeQjmLGwMUFEoZFZJW3sePuVoWxUm3Z7fTl+uHx8/nThC2VCXr9kVygo4m/MJuJ4O0kLNxOzVbKaZQkePKFibTwaVt5PvJaJ8Rmy8F9a4tniahG7e71DhAuUX2jGHtdvk4WXPfWKWIFChQocNc7I9zDKEhQgReFtYYrw+Es2lhXaotsgoRmvTUrqtl2RDtt3p8rwPmihpbGV/d8KQCXFXgkJesrtHscIOiNpXBVHW+mEJtJbO/Tf/IfA64VwjJShCkLUaUS+KHydVMyEdt3LCSGKwVgYphYbVbRbt54pVnc1XyVG2S/9A2wdq4i3noeplcBXA+IQiSjAazWGkpv+FyUIhdBmEzd2WRfV86JZTbVHtOlrXjuHLAQjQK4D74MqWML0Vk08C/7Qkc7EqsFRSWfr1V3sdvzZW5KSKvBNi5FmuoVV4jSUUAixZYsvpYs7Jm3w9furEE73w3GAcIwQRwMgJS2EiZMIe1KwWGfHK8nmDHCWKkhTae2b1vKcnv/dSWtYi5NEQwhkpMgxUbLRn+sZoQUt1SP4PlhgCrnlQ4D3ze7g0gWCkS5mldXTXWfmw2+D6mwkHwIAUypxISIokT5H6aQdjcSHRL3RdCKGLeh8dSViczj8XRzs7QPp0EHFaGre4Hcdj7nIKnBdjw+Pxcg8oRLFE/bErJF5a4gQQUKFChQ4CQoSFCBFwUW4swC4pxFn0QoSsUQYT4sleBKsD9HgAhxlnKAsU/75hAlEoclYPG1udrAJLIxmITSasdsIEum03VuD1eudUNc9jio1jvO6pBksV7nPAOdrWZlKtUAFnws6B2sNt0bFo27gxRXO8xyUUWiZZbRePxLsL79YeC5jwE0RLAduK94A9xHXw2rtYrW0Mf1vTGCKJZ2Qh5/3D4Po3UO1tazcFY3p2qWZP70dmG4ZTiPvAKWZ8Pl7E8QHQg4FdOEOEGjwvmNxYRkpV6CY1noDH2ZY+JOUw2hAtSsHi3Yk6rd9U4gBEifO87EtGoWNlfc2xYOeiNQvbi2OxISJFw3jZFGSmHhPpo5Xxg5jybJZQLTtjKlaD9IGiueJTNBtnnwGhb1xMaUAPHapPMeCUQYpmKX3R+PsVKz0a7bQoYWKUO8PqmQXNsL5D2h+QZJA99v682Ttdnd8HzFiRw332O8lqnmJLFeaCD7S8Rsw87eWyRD8xBDiEwRIrj/nWEiZzpvvU4ixFEiLgZczxSheTUoCMKsNXDxbBRJrGQhFShQoMAdihP4GBxpmwWOhoIEFXjRYEHC+ZP5GZR50PFK1VOLixoWhEP/xiN9vO+5dhmXtw1MRNFQxSGJFAfgk8RUbXG5D4M0M0ygVbZErBgGqiULo4lSNWi4QPID04Nnm7i45h2qbLDYu7wT4oXdSJ5EzT5xKyZ2wwrGm2/EI098OrzUh+F6MHKhp1RcqBrs9X0xMtCIX/UWND76v2F3riIa8jyYiKMYSamK9InPhNE4D+pVa80Sru6OMAljuCRRUrwrAkSCtNIoHf5aVV3UKo4oczw/JGKHBXDmQaJ7dVfN0lABkXapzHVtpxeKWrK5cjYstnd7EwzGITxbBYwmEZ3iSEqUVThJ0n7FTFmxc6p02TVK8sJZNiqXvN6mxy/bToX40xwhT4BIBHh/Zc0N7PVD2QaDTy+uuogSRZCUyqPa5kiUeP2RcPK+fGCtaqFVs+VxtyL3R6s9fA1JQEiAzCyQWEByBNrSp2KO4MyRcIJtalxcKGWWqHuDUGbNcqLnvme0LBIrZQbRqC54vx06G8XzW6BAgQIFCpwMBQkqcGagAyGPAq6WX1ovSZFFkwUWZq2KiZ0BLbnVSjZtsjX8xEbdMtAoz7JTJDi1bMGPEoShAdutYL1WkhyhwzJYWOw+ddXH9e5scDyKuaqtjBKqnintcVtDE/evz0JONVg4UpGplV0JOyUhYpFeLTVgP/j/QHT5Uxhffga9/gR+aQWTjYeRVlswtnyUPRMXVz2ca1eERI25Es5cJYPmEq4QoHyb3TJwH0iYjgMW+zscbE/S6YyN3hZnjFgg7w1itOvMKDrd1jhmSPVHoSg2U4KnU00zdpxwvofXyEx2U794feWc9/Lg9XKh7co8C+3HjTSAlfowEaJqGTBCE0bswHQ4D6NsymnMwH3gOZHZq8xQQaywryjSTyKkUp3UOeasHZ+nuuZN20tvdeApCSEVHBoiUBUiuc4/o5pRoiuirVQjP5S2ND5Gz+lwH5v16lQJomFi7m2otwQLASyEgJGA6xPdHtW1Ksolb3qcMpOULjfyoGpXKZ0Nwl2gQIECJ0HKqIWbbA93s7d3N6MgQQVuG9hK1BkuH/hmOxGzXY4KrpTTTGGjqZQVKkkvNQ08cz3EM9vMbFFFZckGLq2WULESjMZjKUJ16w1Xv9kmRfODtdX60lmH/H4+fd3Hdk8RICNfVHNo3I84bi/qyt4wxYX2fsOIPFgUN2vzRZwF3PcorjmXZNheZqRyYZmjSYLnt32cX+HtAVLDB7Nk2WpUdfm8t65QZvsbVY1lBIfPzYKfSkjzlEkQFTYW6nlCaNC63LQkiFa9ZNpeY5brgyz0k8X4MogaU7aw2x1hNBhJCyUH9Kn8MKvJSkMO7yB1qpiE6lpn+51+DuE05OJgLlMs26rkWkRJsqkA8bo5t+LecvKjwfdEtexhtxMIwbBy7m7y/iRZt0whJ6YRo1TyEHJmiGqmnDdXbOTz546kXTrppiscKWyMhQCR9sVpNkMU0wWuJ+5z9VpFHlspe+gPbAlk1SYNel9UQKuJSuEOV6BAgQIFToiCBBW4baDCstNTYY+lA8YIKnS1WT3+kDNX2fPtXA9sOPIzjyRxZIWaRIjFm8yJmIYUbUxEvhEBIljg7/VnCpAWF6TAS3RwZiQZQSzwuBI+5xR8Q3RHsRTP87NT0vLncmB8gq2tiShdqlBVsyydbg++76PdXlnotvViQZInpHFJUa5uV7Mxp41Feygtl04JcTCWuTFxWstycPjCiTrmlcQie97eeR4890k4lNfWcWZExXYM+LSWjgMkho0koaLE9jH1fDyHvFR1sKrwrjmVh+SHTnOdQYy1xnISfStAAkKzgZBtmJkahOx1V9efoyzFOQPWrMp1xpZNUQPnDAyIds3C846hVDMjgW1EsBAhIdnPmuFdx4DnKXvtbn84zSTitldadXGrE4vsTJkiGeP7uNmsLlXsChQoUOBOQDETdLooSFCB2waqFTRReGHHl9wWKaay4toVW+HD53BeLFhUtVpN1GpVBEEgBajt0GiAhd3RCk3mxJDYsNsnUb4CAlUYKiJEYywWvcxyPErsDucrJuOJFOTcx96AuUgkQAcfzL20kjEmIec1bJgZyXKztqTxxBcb6Hp9v7PZzQBb3jizwlkiw6arnDabUIYV0tBlcF9O3yWOrX683tgWR5VGw6TNuGsgCcYwU2VMwQKfLV71Wg21amXhwP88mDHEtjFn7tohkefjaWJgxJydIhHKKyHZtZNkrWJLguq4Hb5HSLq5eHAU8JqjYx/nj8hdOPNGZfWo1zbJRXcYYxSXkKR8fyTSjqZa+SylAJnKAls5tikC7s6R9Tx4/wc3S2KRzf1zLGVvL90aNBKxIDNOeXttusI5NfXVRJKzsdrCaOzLtc3Hkogxx4m/CxQoUOBORuGQfbooSFCB2woWZiyK6BQ39JUpgISllklGbk/xzIKXPycBC1d+wNAYjZ8zLGaFAGWjJbrW5ZD7eovhpcYNLIkHGAyGagZDt9WFnJlwkKa1g4PnYSAZRiEsmJn9MoveiWWgVlLzL6PRWIjezW6jYrshC3K6lnH1Pw8jipCkppg+8PVcBJInHVpK44Bb+XqTAHFfdvsTmHMGCKSYqVkSu/Bm1YVpWjdUfuZBAkjMn2Oef7Z9Dsc0EFDN3jwvct9M5RHDBL52VIKyxyzH0b7NusMIV/dCCSLWDzPMSK4JzpDN50ItIkDP7/hCglR2VQlpPBE104qp1CgFiK1pbD0dhTb2rkymryUNI3htLLrmaOf9svtKsv1wQvUrC5p1TSFp+vjlscyynbu2+No06hX5KVCgQIECBW4WChJU4LaDMyWrDROruPNWcjl/k+WKzlquaDNtcBYoRWqYiFJLWtk2mocX1uPxBP3eQNp8mHWincbCJEIc+kDEQCP6wSmoHJoIbABi4agJltTTcYrBJEHVZQseQylprXzMPrwjwDJietapWY5sP1hAq3yiGPWycozLg/t9rROgN1QtYAT3nUXzRsu9Ze1e7UZJlCA6xAVRpPKVMnvsRr2E1Vb5gJ03HeMmfpzZXZsHbMg18q2c838n4eAsjFiIy1yaxBCJijYjPJnZQS6oNg/yAJ6XoyijIz/GC7uc48G+FkputzeOYewGuH/98NkizuqRSJGYkuymaQlJBBhs60s4SxcIaeFzTGIXMWl6RqyGkwRDP8B6w8ZGa7GqWiuTCNm4cm0ir8V89o8+lzwtR3UqLFCgQIECBV4MChJUoMARoWaXctkwbM2xAngm3cFURpHcalq4tLYiltk6CFZa/uwccUlTDIZDZVGdU6V4O0UJjiwlkQ/TLmVtR5BZKlGe6OSdz6iRViK2pymraraj5QtMqgO0YBaXMgOolCxxOZsvNvMzK4sKWU0o+HjOrDDjhfdn0ewwrymlcQKzXbjPmZlDqhQGEiAeF2211bboghYKUbi07t2Swpfb3GxX0PAj2W9pjaOBRNkRF7/5jKVOn0oI84/i6eNLro21Zhme+KrPQAtotnotIpuqmE/QalQQDmxRv7hJmamiTXbGeUgi+JqRRObBfwdxgnZmk30jcEaN53N+hoyvS8k2Zf6IbXVUYReB+0sjBm1TP5ufKiO1XBixep2qjo3exCQThpe1DPLuJItU+ehqR5OHZc9DVCslBN3Bwr/pAODTnPOR96sfYjSZyIwSW/Q4M5h3rStQ4KyB7z/moel5uWrJ3pfLVaBAgcUoSFCBAkdEEHHVnXlAtNWO4RgByuZY/kZ9RCeXVO0Ew0FXWuL2xpYUwTJ/JIGiVIhsII0RhdG0gGZxHISBmrNhMSiZLTGicR+pU5deO5IpvmUlaNIg6co5n6mtiGtWo16eGiNIm9RugIAKjHZA6xqolk1cWivJyr/s5yDGLuedYjWzIoGetdlqP8FMJhIJrY7kC3StaJBw0ZmN5IFgAU4CxuH3fDAot2uanGFhgGgsLVO3AtxPmlTw50aZQtI6Bx6XNSVwLCyYv3RhtbrPUpztlJVKWVoZJSQ3C71lERJFyjq6Vq2iM4nADrWyp0gjXwZNHGjPzWBVEhi67vElE6KUAvWShc3WjckA97E/SYRcLyrSSY5pAX8YCYr1DJu06SkiLTww1dberliujiNDsqnEJiHzYOVrSoVIzzB1R9GhJIhubsOxLzlE+ZwhKnBxlKBWKYsqehoQMtjtizEEz6s2zOC/SYLaK425XKkCBU4XElvQm0jIOFuqNUiAVpuMezj6vGuB04EsjC3oBnix2yxwNBQkqECBI4JZLiyOPM+CZaawY19up9NVXpcJEwPROEAw7CEwakII+D3E4vJaJ8LYT3FxJXPckjorhR/4ymWLuTZS0KZSGBoGV/dGSK2qIiSGC8OMgZjzGCxIzWwYicSJ8xwWqpXqvjYpfjlKAGaUShHOinbSSzAJRnj4XBmXdxjIqYpwFrW83wu7objUPbju5GZ31AzL7Ej3I3NA3jfGQgLE42PxyFkmpJmznmHBFIUrRW/EXBz7VFdRqQBZknc0K+D5b6p5LPx7Qx9rrf0zKc1GQ456NBohZEhU5pdOs4RmsyHFfKsGjHYCmkHDs6LZ8adU02yZH1ptOEJSNBHhuWBOUJ40LkV2vo0XMSirDUp4nfDalBBZBHCY40Nnu9BAajjoR67YzpMY6bqKBDqaxCi7fD1pkX74ly+DVNdWGtjrDuAHbLVT2UMk7Y1aBbVqWQgSb1RW3LevgOsPxxgMxuK4SMVQQ7UD+rCsAdotvuYFCpwNMCtut+fL56tenJKW6ijBVmcs75965c5rOy9Q4HahIEEFChwRXO3mlwoVj5JDYkFSlBVqWY4KSRJbxdKE/m7MQmGQq5nNl3DFXK3+98p0c7OUIQIL0IwATVftssLQdV1RjVZXLewMTWx1Y6SWKsaNxJe/adKRwEa1popv7WQXyaA8Z4mybSo/ZpEcSHz+6vkx4tREhQPqmb21Lr759yudCA+sK0VCsnBoiZwstm2W4jkLBdUg8ZNZqWAAJNwJXSRzZ2yYKE/nhE4LElg7lymkwdeD/7fd9dET0Y+htqZYudPmvdVsiKOc79NNja0oluTn6NeRhGavN4Y/GUnLpFhOCw/ltWGiUa/JXNRJwafxHAPDCWeYDv5d25XzPsvA14zHdHWPJC1BxRrJfBdfORmCS2PYKbOVIsQowzJnT8TYJTWrFit16wjEjeRmfbWJIIzEaEGF7dJMYoLr23uqPVCyryzUamVRh271ajafczgcy+tjzREg/pD+D4Zj1KsV2f8CBU4b/Mzi4o0OYp4Pwub8aGfgyzxeoQadXRQW2aeL4tO8QIEjgjM9zaqBrV4K11GtB0JcSHVIgLIsFSoqVIPY7mSmyszANB0hDvw7VaS9YYIL9TJ6vT4iKiQstnPD9mw3YkHNtipmGtGSeaVWx94gkdY216baU6aVnNw3iEzYrot2qzSbOeJQvMHgUFUsE9p4S68YsoXJtVOMhhMpduncFaU2LMeBTbvuUTwNbeWsUaVkoz8kmZE80KkbmeJEKdZapX1FJIUVMxnx3sodQNoG1X2573Rus60WThOaKCwqFLSjnbS50TLaMERhY/vg+Tbd5exD3QbTJJGZsdSikqhmqQieCteiT/YYYVTaNxd2HHB/Vuq2GBOQTObJKV9fncnFWZ3DwJY23r9kMn8qVjk+0yZLda1YZgTXDIT456Un8h4SIbZKctbsqPtNi2v+kGRs7/bEApvXju1Y00DUvU5f2uSajZvvdqgU2FBsuTn/Q1KmlUD+jYqUtKfqgFukuL69i7XVlcKeu8CpYxzE8vm0aPGGIDFia3JwyH0KFLjXUZCgAgWOgXMtC4MxyYOJqtTzas5DWWUbohbJPIH0KKnwIPbnctheD6pytZwFa6lckYygbrcnBRa3oZBOVaBpAGnMYtZAu6bUoEGkwmUBV2Y6uNJ/35qT3abABXXOEelQTkH252ykAxZCOMkEFo0dxO6NBaCBIHYwDstS3HMbnqOOb61ZwtjnnE8oVhDKI44EQSlXcaIKWF2wlp0EgzREInNM+XkKzs8YMBGhZLHtqpwV7bGoVxJiK22HL24Gg9sc+mz9U4obXdsOGgiYC53e4uyxyqyCJgnqcdrs4spuIOSQty/DSPKfElQrtDxX1wl3RCkmLLQjjEYTNBsnz3VqViyM6hZ2+6rgUbM9ipiQuF5ouzdUaLhfHOOyUyqXvHozv3ZDEXeVdWTANUMMJc+KrTf60WoWiq2DOtNIn6PBhE6FzAcyUKvY+67P2TnyMfb9LIdoZszA64nkZDAao1z2RG1lGPBMcSsd29pcg+87EiyaIIh6KySO9t8xPNeVDCj+yBWenQMSojCMsbvXxVq7VShCdyFIGvqjAOMJrRHVZ1Cj4u6bBzxNSKtbrBZltIHLMsiEqp4DLXBmUeQEnS6KT/ECBY6BsmvgJedtvLALBEMaHERIWcxLS49SgdKYjU4Jp0CEVdDkID+0qlvObNtEe6Ulwa2TyUS1XrENyHZgMQjVnH2JTULgky/4osoQdGITS2TPRKtqo1VV7XYE73+9G2Hk06hgNseTcRz5DxnmR4SKxb5xzgpxL/VsUQrPVGrPOCpj5NuolxUBIJGhosGQIltmklgrmEKWqHLs9iNUy3SfUx8tRhpK4RuwsKbhQ841TpzxGFYaBxj7Eba7Y/iBWnknuCrfrLlo1U7mzMVz9fwOt00XO7VNnlOGc15oO9MWEqpbfC24qpovdsKQ8zFqbotFt94HZQrBlVi2o0QosWVx2T4EoRA6/dru53SG/I33eTHgts+vuKh6MTpD5QJIvsnsnpUjOszx/NhmLKb1MWWrbP/4enFbVBNJghwjhWulCGSYVz9aXc/thlI7uS1mSXUGsbRIKh9FwO2E2FhxsFLbr6LQeIAF2yKHQCpDJCo7u3syUyZDxNnfbGuARqOOavV4+UFUnnb2erJdmjM4nFdLU4zGypzB10Gxc+qsWpiwpYVvOBqj1awf63kLnG2Q/Gx1JqJo6tedn0u9Ia/bMmplR/7GhRpeD/x84nvrdrWasaNgt8/QYGayqUqXn1l83zAsex787JLvmcIl7mzjFpCgoh/u6ChIUIECJyBCj5xz0Bs00O101WyDECGRUYQARYYFP/XUDI5gVkxRmVmtq0FyPWDPVWYSCe3qli/Y4sRAb2QhNRIhWp6YLBgylM6F9ZWaalWTFrhJgme3AvRGs2n5fDKNjFtkQa+OGYjLnCp6taajVIAkTeAaIXy4uLrH+wHrTUdMDMYBCwB+dDii2rAtjvP+6rs2FSKkSRCLSTrD2bCElGg7aPni5u0mZBvXdkeysqnmjmbDvSRG/IJg5s9xwHP83JYvRIWFihgzpCQ1kGNgof5AZs0tTkqNkgwSs9AgOeLZCLjSmrUl0uwgD0UIVWvcWfhC4v4oQwV7SiKPU5wpoqSVymzYKL/9LCNL3PY8C15qTWe5spE4IePEVifATi88oJ6RkFM9U6G7s68eXvvLLNLFcS+OhHR5tCW3FTGR91EUi4pqio310a8PKk+BHwqhyRNbKjt+Esp2eTOd9Qil4KXyd14LijAp9a6Ytbg7EISxECASh3w2mLpu1efTsOJgOI5EieF7mtdHybWw3izBy9wwbxVIxq7sjOS5uXDkUJ1lEHOYYjSJYJZUqLAGP9+iJEG77hUkqECBQ1CQoAIFTohGrSzOaTu7fUQjmhRITxwM20Mae0hCA4k0jbHVyJSikS1CLAxJgjTK5RLKkzJGo7GsfGsixOKQxZcfu+Kmlm+7YicOv/PoKkbSsdlycGUvwjUqQJOMaGjSk3MAm6pCaQLHIBnIFCB9e/abt5EgOUaMOLJwvRPIg7d6gZAZiheZ67aoG9K6xCychJatES60SdhMUbT4OM9V1tNaEOP3MguNIGDwKpWFWKzH80UpVRkSke7AR6PqHuvLnAoNCVC+9Y2/ZUbJMDGkNfckRjMrxusVVwpxZgWxJUYRCaogNlzvkKDRG9TAnudiNFEtXIvCQals3OxcHE0ShpNYCJ92nSPxoAHComPh37ZtG3FoZK2RuYIqyV5jmX2zYCZU/jjbpsgmSXCraqEiAbGJzEuxQJwf1mbLJlW53V4os0N6P0gsIgZjLYCayYlhWiQg+7dHUkIVdTgYSW7TUQnJxA/kdTsYcmvJokMglvaqhZSFJu/FAtPLiLA6v7P2ST6G22SrHDdJYxLODBUE6c4B23tJMPKfQdPPIdtEfxzIDA65ujbASQNgOA7RGQRChFbq3i1pm9M22NHc/plgJhdjCCIM/QilzIWT+8fP1Ipnyz4VONso2uFOFwUJKlDgRYDF1+aGg/HVoawmcnWZ8xIVfkkabJ1g+46BKDFgxCkaZRMXVve3KMlwe6sphRaJEJ3iZG6EhZ/jwQ8sKebnocItU+xxFiRMcb1HVUJRHbagsU0tzOYd2PKmpovUB+T0v/Pb27/17Lea90n8BM9scWhe/UU857KxJ/nAFbYlPnDSOsU2tAc2VMhktzeQlUyeF+6XXmFn8cgdCFNLTBgWFY1c9SQp4WonidBR0RNTiMXZOdJmmGUYaRLE+9XKLqolR1Z+WXjQFOJ6J1rIc1SwbCqtdYehUvIwGIykhYpFe36FmbfxNa+Uj6dy3QjcL6p3nb5qm9GvEQNRObNzYdU7MCNEknR+tYQXrvuI47FyHcxUQbZesv3PYiukUcaEhhh+ZohhGULoN1cUUaQyJsXakjkpKplUEqkKace6StkTErGIKMp7gRlbS4wjSKCYr7UotHbp+VEDfEvNGjh/J+qUzALRnIRkflZ88v3E143/5n5ztogzRrrw0IGv7Vb9yPtU4HQxpnnNks8Lvp8Yaqxm0RQBzj661N8zO+rhJMK5dkXaa+ehOwDUfCEXuo5OkLnoJO6LWRZZHnRQJBHid4+QcyHsJtoV59gLRwUK3IsoSFCBAi8S/KK5b72C53d8mcdQ+T2qzuKKd73CPBhb2r8q7rLC3JS2uHqtJgWVWn22sd0nIQoXPka1jKl2DRb9euhe9RirGRSxtBYiRPtqeZT68qbVd0oHu2zG6ODW5X8TzjTJ6qf64UJnqtWBjEnxvyOpAPVjgCt7McKYCggLZhc2ZrlG0tInnzw0hyhhMma72uJzOy08j7m0xdDXw+oMtYK/+HbtpMRz181mbHRblz7vfqBMBzSJWgYWywzZ3N3riQmCfhl5OFQeVlr1Ew/3LwOVwd0e2/oMeDkjAhZynBlyrADn2gdXiHmdXjrfwtYOXzO6Bap8Kao+nJ2p1aoSACskJlRzE5xJyxN69TotvsYJIWQStro/QJUtaiQULOBmSihbQakqmYcUc+qCP87wN8noeLKYdBF8ftUmqdwZ8/cRy+yURhc1aZvjbBFd7NwcwdW5QtwlWoHf6YoQj3M8HotDJQ+Khi3l8umF2t4qcH6NOVkk8ZJTlamZVDeninpmmCLKuo5GyFbyeR1c74xxaaO2b5FBqUX8bqDtvPq+YIhps3ZwMWLZfql2zMXvAW6Pfz+3UkFJzGSWv/8KFCiwHwUJKlDgJoC94Q9ulNFna8JEfdmxcGabEYvlo4IFGN2pNGxTVeqLCja2e01CNbg//TJkn3j2xcmJdt0GRzLDolYcg2R7BvzEQ9Uey0r/fhrEWSM1K0S77JIYG6giU+qD6b3UfFEe0nJm0P0OuN5hAUv3sgqpj9hBc7idRQU/ejbaVVQqFQyCQZYxdPB8SFHNQvwYK6cEnfRYrOMQFYeW54eBBRBVkxd2OFuUOf5lx83HXlxl+8uNX1uqAhvrKxiz0M9MEEquIyrZcQgQ5xX6bOMbxVNHQIaq5lv+eJ+9fijta/NZTlzFtlNFhFYbql1xHpz3uf98e2rLznY9nX2k1RiuPFeXKGC81rVl9qICT2y8JddkvzvfaruBbpeKYSAzdvwrn5e5PDQN4eu1KDg1SdQs3XEUFypvg6Fy7Zs//7xNnrdWxmA4kn3h+4rnl38jweHrVq2U0OuPhCDkZ4v0e5idc8yOounFzW53vJ3gMex1Ooj4mmSvJ8nqcDSSRZvjmlKcRcjnAduOA2ZhGRJWTWbjs9WTqnD2vuf7J/sYnCmJUyLEzxOqkjGGk1Ac5Qjm+FAlEvWQChDnOWXWcSKkiMrRjVQhrVDxuReYKyo3UjHaKUwQChQ4LgoSVKDATQK/JFs1R35uFqgkibtarn2IkC/tUH0jk2zp/+aqOVcy9TC3rArqqR+GuGKmFvmpCycJ4ZqqlUdan7ImqDQ1MU5KisDp2R8JsFREaBrQmuMZ/E8aNuRnjGiYwJbAsufCdFxaLogiMYwNmI7KFKLr0m5/coDoaXMEKiaV0vHOKQ0CqOLQPGLellnPyPA+NwKL/Qc3S0I+SG41UWBb2SISsQxUFeq1Ck7qJ8bzcHk7EMtpXRj1x6m0uK3WbWy01AyKzGtFywkezwVfD6pby/Zf5iBcVwX1HhOcC6I6xKDdEkfZ9qkoytGwWbcXtONZWG03RQWdztY4jhSIW9s7MvtDc4p5VYbXSLVSOdbKN1WbRq2C3mAoWUB61kgFFxto1Cto1KvSGseAVD63vJcsU72GNfV8nPXi/i1Tk8I0FsJwp5Igng8hQFEEJzfjNDWl6PVEVTvJdXKWwFZbmffR9uyS/5ZZ/8fKIVLfruIP9sOYI1ODER0xqV4a2OlSUeVn9Oyzhpeb3G8cojcK0Ky6Qoj0NTbvOMcFNn7GM5rAnJtZ0p+RZY8t1kXr5Z2IW2FjXtiiHx0FCSpQ4AyDK+bthoVre6F8CaovSGBM++aYrUrK2YtKCotfG2qVnYW+DMhKr0b2RZ3/9s4UolFcQZQG8IxQjBB4q586CBJlxjCd+aG9c9YCotrs1I1sDcncWsUie75E4BaposRpglqJbUYWLFosR0rV4KB+q+7JzBD78jkbNHWH46o8VYJG6Vg99ASfixbRO/1IChkW/9xPnhduaqNpH5rvs/814Lb4czrtPzwXL+yGYuRQdmbzBHrOYKsXyTXQqh394/xWfUXy+mCr3eWtiSiVfC1J2Hgd8hohqV9rLD+PdB2cD45tNZvY3euIOsU5N15/ymUwlbasSqV87H0k0WGLHxWhIDNl4HxfrVoSpUda/UqeEBiSAV7llmntO/fL2unyOE4twjkktumxrYrnjM+dnyO73aACJwRojnyK2ssQ5yCUGcY7nQT1RvR/54KHI59Doj7PvXDLXgK5DrJFCQkvjRNpfeN8EB9DgsJW6Hlo8kzDg+4gmM4hyjyZa8lnHonNLBC5hCCkMqkWL1R2Fz9HY2VPXz9ZjECBAvc6ChJUoMAtgljp+slUpeEqOdWcI7tYBXTa4mohv1DV/E+UqTtsZ2MHEK2oubLI7VL1mLYhWZB/axOEebtspfuoW4LEQ2i4MvzONjZacstfGLgZq1YL11KERx4nmUhKfVJ22rpNbPlxcd95PJWSXslUvfQEWzjOrVbR6U/QHyuXJrFiLjlCkFicnKgYX3GE6FAt0flKzDsiOWIxfqeAZIIqFG1xWSyJ0ietkspBjydydxBJa5xnm0L4+Np7y9rRaO17hDa+k4LtefdvlNAZhOiO1KxaKSNp3Effn2A0Gqli3zRRKZfFIXFZSxtnT9ZWV6TgHo/ZGpfA8xwhP3zsSYo/ub7oyljy9lmKz29LF/yLHk9FiWoQ7d/nIQQpmwk7Cqg4dXtDOSdaqZVzU/Gw0qgfexHgZkCTw0XnV86VaSqnvTsYfJ24uKTnzvhZw88fnevG26lM6sUeQs0HZZ95WhFn2G4WNEBFhq/d2FefZVTTqWYveu7RmOG8lrTSCbnnbZMIQTTChdXKVEGiWo52Bbu9iXKvVFmuQpgYH1Dl318k2MpHUsbPSr7i9Qq7GuiaWbTY3UroRcSbvc0CR0NBggoUuAXgFwkzUdgWpEkCyQmL7/NtuvYcXtTQZev5bRWOyl5vlXXDTJ50WlBeE+cypciw/Ykki6RLkZ9Zhkt+hmcZSKr4ZbdSphkA1RPFmPjcZZfDtpBj8SOu7qeosIhOgaGvvjBptb3ML1qtlAJ+BJRzn/bcZ65samK31ipjpVFSbUkZ0Xoxq5uyglpjkCwzbdS50NbcZ78wi6RFhuDcFwsUXkd6QJv/Q0KjWt9MTEL1uvO/eW1c74QH5nJUynwqJPAos0wvBrxeN1c8bLTUPnM3eFydThej8Vjuw+uN6seeHwgpardXlrrA8XYGo9brNfn3zXoNlzkIHgWcC6Jyo+aIzLkWJdp6m0iTRMiNrPCX3AMqFzGe+NjrDuSdoueLpq1VgzGYWkUDjbOIk74MYi6SuZ4RJA5585HbCXnKzCSFr5NnWsoBJgNfX7a3cZYnJlFhAHXmuqjfi5k+KGRHtZny88sSJYjHqOfKNJifJmSGx+5aWSMyZ37YJmxgEsbY6wc4vzq7XkiEqiVbSBuVf5VVpnZAtQ2f/D3NPLaru+N9od6dYYDre2M8eL6+r52vwM1FYZF9uiiu7AIFbiKYg/LCro/tXiSzM+Q6zMihKxzXhjsD3p7i/g0GqS4hDWmKa3uqRYLzFfrLk3MTbqIUFc5DkAyx+PVsKkBqcFtxq1S+0/mdmOX6CQ4tL6R1AzDLdPyyMNLmDo5yc1MJ6YoscfaJwgrd7sYBECUHs4byn8EsgjmiogwJspY0U+VbbHWV8xH3k8SwVraEuFQ9ZbfcGyeiSDWrpqx6nnTVn/t+J4DFzPW9kZAgTWR5vsSi1yAZ3e9SR2LEgsnL5fqsNhwpMGnxHdDhja0zEmyaoOqZWGvcPhVMbNyzl2wwGAoBmg8FVm57oRCk1dX2oa/xWSKwVJFqVWWgIJbaJEKpzjZSzL/TG0yLEpl/q5TRbFT3vYb9wVipWzm3NTlvYsecYjieyBzSzXYRzEOyjiY+xjShiGNYNsnY8rY/lXFFRe54rYgElcxre74Ej0reTlb883Nns53NId4m8LhILEg4Fh2nxAuYJjZWyhhNQpnjMYxECJHOSNOESGYXpYVNf15zYUm1gkpLrszpqYUIqkS8jY8bjSNZlNDkST6vLFOeb57cKEdGC71hgo60cqoBTe5jrWxLG91xzRH6w0CCWJV5g4pWUMdO450YT1/p46WXmoUiVOCuxB1SGhQocPZBZ7i/fn4CX68UZgRg5KsV+5Uqc0hMDCYJBuNEhusXgWoO+8v5xTj/paysew2xxN5oeXhhO0B3RCIxRzosPpchzzOP5dlAClyRJQHjlzULabG2Foc2hrzaON92ZP6H+/aXz4wQBWodU2/3wCJUttLFH5JEfkczt4iD/aqXnu0n6nGcE6KKIfEwUiDNFK16ycJD59ged3d+bLEIubY7lHYYtrlpFSdOqPhRcaN71f6CiPSTChAd/rQBBB93cc1DcxxLS5ofBDDSQJREKwW2d8Yolz0Z/iexvj3HlmA4GkuBNV9MqZYzW/aTcz93yoyJKI3NmpAXHhtzn3ihcv9puKBb6bSyw0UKmjHwWm42lKLF29h2tux1UO1YkZwb2z4+4TgKRI3b6ygLbB0GmwXKKov7QAUGT41Q0oz0MeOqcuxr/MrORBZAWNyzxVNuT9WiSLw9xqX1yjRL7HaAeToMS+XCQd6UQJnPcCGKMQeO2FpTvaESQyInboFUNwehEDelruZdD1W76sSnsp6IqQxJCz/b1Uyb+kylEh5x3pPByS6vAzVHF2YznfONbnt9X9rWRG0ShUmpwgxt5fbPr1aORYS2uuMDBIjg+9SGUv+5bbbdFbj5KJSg08XdWU0UKHCbwSLvU1cmQnbEXUhMBNTfVIaEKvCbVUdaIUiYlpEgnUuxz0FLLzdmLnRRpNri6hVLSBZnhnR7BBUaFsQkF1NjgwPkRDfSZTRDWpbUqq+0X3H+SIiJOb0Pi+3LuzG2egnuW3dxrmWjUbal3YPfueJ8rd2Vsl3XYZ1UerhPzYoyceA8kWcrhzMSKtUlpMweSMB025c+BTwGEr9PXJ7gpRdLsupJsEhh6Kls31bthjdqNTyrGPk0v6DJwWwAX0H32/D14Ws6u26ozEmw7pxLGYso2rMbSYBO6CN1lJKorZ6pPrC4Xmu39rVy3SqwaE7iaOncj6yYRypA9k4hQVMloVKSwFet3G3tdJUykJMfNSGKImAwmqBWZaFPCqsWTJYtss8Uo1t3DN1eX1ryuL95gqoswUN5A4+ytj+53sCCmRlXtWNnBdEwgPNtJBv5a1wp5qZ8lnAukLMotwskHpvtMq7v0bZaLxqpz1MSoHPt8lS1Z1tYvjWM5GYcDKbzlftBEsQ2OvbgcgEoVvM24rJpZsqTeq/q9kDezs8vbQk/76LI74bdvsqg4p/YdqnmmagcWvL5QUK3Up/lgJFI+YFyAFWt1bP9l0wrXwdLH7wIpWU1oi1/WJCgAnclChJUoMBNQHeoCnvWeJImnitahBBxRTVSXzrLgjpn91fKClsuAsmqUIWSqDs0VsiFTpIAaStikhR5vHyBW1Jo8PmUgcFi6OQgbpPEZ6fHFhVFXiQZZ+qpPftFpeuTV3zJ1aAqtDdUJES132VBgllxx62XXTXfc/+aMl94+tpEVk75fNIyyLqYz0mtQ2yPc+VEdi60Pa2etXr4vImtbiSmB1wF1TtIIrTZcqSl7k4DFSDpolowBM82OGb2JGmMOOYMgXr9eXZoWpG3T9fgkH2vP2Q+LdzcLAqLcRZOEz8UBYOK0K2GKub19bTsTmer3e0ks0UkccwWspa0rvG88+9s/yNxouMcC19tEjEP+bzAYnOGZZCZpOw5VBurDa/kLmy/pfsbXeC4/fnn574miTJAoVukybQxk22ZNsapjWiQwnaj6YLEUUC1B0uucb1//VF0W0mQnrchGeL+SV6QAXFno+p8mCmFMlOw0RtSaT04X8bFKm6beUDXOyNRdam0874jX7VGi36kXBGE5PBvJFfMGpqf89kbTKatsjJQnwVk89zxM5Xb4b7o80fViD+TQLVn82k828L6SlkW5Hi7dlrMkt8WHmchLNxKzILGb+42CxwFd16lUKDAGcTQV3MAXNHkYul8sacVGRb+/H1YUKcOopRWNG1LLSSFrTOKNLRrjhApfmFHkmI/y7LgarPKFVLzPHRE2+qpAeS5vZL/nX79TcnP7G9TZ7n5z2kDuLwToVUxcWnNxXPbgXzhK5vt2TFbBm8zcd8anYZYZHDAH2DnyJCqmaHUH2VLm/sa1ucw973ML3rej4oQidDegAPHJFnqy1+tpqbyN4obVELuJGhHsfnbbCNCjBAGC1CWooaNGAxeNKbEs7rA7W4idsuJDNvPQ1RD08BwpOZNbjX54Cq17dj7cnnmi30W4cdVFm4X2I42Ho1VayGH2UueONPRPjoPpQbxdTx4jMrsIEGaha4SfA2oJNEYQZ+D/P3pTEar7Py80A2zfbo9ee05Z6SWIZQqRXOFfBAzwVY8Pu/8cUy3l7Agj2G7Lmx7dh87W5C43vElN+uo7nVq7n55gaYWiE6ngCOhOQn5Wqkpi3/Oz7gMROUMnsw+8vUE2g1PzA/4OZh3iqMiw1gAUX2yRQ26ySFUocN5NYegOcpej4qcWmiafsdwDk1eD2Wtri3kqRgxp4jbzDUSyHM+d72P65mLnZ7V5CQpF1u02YJsWq4hZXRSoMDdiOLKLlDgJkC+lHLFOpH/Ktf/rR27GjcI6uR3of5yZJsav0yzuWtpU2MrXGcYYRREmW1y1lYjLRSqgNIBfM2aDdbBi8sUrbMoPShr5tv/50XI+pg/8lyA1bqBBzcY1sdjU/vJL3FmALFdj4X6mEYLqfq7ni3Qga4SQKifNq+gZYXBgXMj/e+xsojOOcjxN1dZee6oaN1pgXGcH1B2qZn9bpIgCoYw4jFshDDTCA4ClIwBXEMVQ5yx4ihKEJAg75cXlcvecnVFZY2ofJJbDe5DrVrNSPr+14b7yfBNkopl7nCnicFwiJ2dXTF24H4y0LXfG2B7Z1dUlDyoALGw1CRnmucUhvAnY/mJ4wC9Xhf9wUD+RnMFqkLcNlUikg5RlALOhtkyd3QUkspt7XV6GI0milA6jpAnnlOSnd29nux7HoduNWVbbGYVPUdylEU4VaIEg8n+bR4GLv6oGYjF1xzVzlvtXHizQYJzfrWKetmZkhEuPtDUhgpQveJOz2Ge31HlKbuMOCARyTqexcbfke1xu3lQ4eGCVz67jfEF/FHui+o7g68ZCVl34Mu8ET9U+Nx8Hvlh3EFCMqQ+k3XIKi9Z7rfeRxIgftdw0YKGCwVuDXTnxc3+KXA0nL1vnAIF7kC0qjZe2AkylzOAWaLSFsc/Zl9QuoxYa9goZe1L/BKiUQJnhKiIzIoEtmPQYlUnlme5I9m8y5U9NcibryV0ujmJAYkT6xcLykWORRFbWbQDas6sNfe/S7Dkj0JSUuD9T45RcdSMEvf5QEtIrAwWVhts3eN9TLHbJuUS+2SpeTIGtIAIHXxeQ77cl4Wd8hxyHkqpYXdOexWzPti6whVkvs5xOEIac9iehbXKiKI1Al9YA+NsjsuWWQpmSfF471svTVdt88Gei4polVB/Mse9k4BZQFFcEzJBAwS1b1oNKYsF9lkDlZ9ery//7biz0FDdckbSsbHuTGedWGSS0PT6o6niFQZUSWfHy/uy2O92eojCCK1WE6srDYzGPgajscxg0HSgXlXuc0dthWP7W362R8hXRji5OEIVju2Prdx5pgKkSdv8vJbUz1SnOCuSm0PT0Is9/Iw6KmgwQCOBmVvaDCzAWdDzPnca2EpHQwKd4yVht3NulpWyg+6IypsKRdVEiO91kpsgSLHeKmG1eTD4VFwEx6EYSagrafHiho4j6PR9aaXWAaz5+2p+rmZVGebKCAEdraAULB1YzcdyJkryyAoUuAtRkKACBW4C2MLGofwO52MMpXjwi5Bf9vpLp1YycWnDQ7Oivhz5NxIntnepVihlQcDVN67oNUskSzQk0HasyvCAhGIcsrCZtUXo36rlLpmSKRKMesVUQ8dhfGu6h+n6FjLPhkPCqgCQwtYzZRCX54KFEgdwSwy+bDqYhAESnbOYTu0ZlEqUbXP+O163i9H1TlvJLkL+XNxJYGDiWrOMrY5quzITrrBnA9QsolxLspZYc1pGgooZwfbKcq5VtlCC7W6Ai2ulqYVztz8UpWW+kNY5NPXa7Uua5/M06nW4jidW2aoNy0LJ88QM4SzOA7EFjuePbXr5/RMbY8dGSOIxnqBWm81VNWpVUXTYksarOQ5DUYkN2sszL8hTAZTcLgNgy+UySpndNlvjdAfocc+H789snqk8kWiqlrgMKdDvD9Gsz5QlqkR8fhJT1SI5W1jQalZqLr5G8llkRwUXLtoNFzvdQFp5NVEU0wXmIdWZhbO84FYKN+3fQ/nNgp8zSfWKvdARjS1knPMRYmKq+Z1blUfEbVJV0crKPGolWyy0aX3N9zpPtbT/kYxEXASxsVJf/D7Qn2c8X2w5puJER8j8KpEOUOY1Jm11WYsxieVsO5nlefa6yfqaQXtt5XzHhTWZ6+T+VhysN8uoV+8co5I7EoU93KmiIEEFCtwkPHK+hL96fiwqR5j7IGI7GOdhHjnn7VttZRZQZxSJgsIVZPWQVOZmSIT0XI+E92VgUcPbCV385jzesm0opzauMPILn6TkXMtCf8Tk8+w+C/J8FuIYn6XKQU7vTarc6WR1XDnW6c/letnGxVXg6asTUTem80yZo97cd/t0CFjCCE0DGy0bOz1a1FLJWGQIoOxetWX0nQTa9dq2iZ3dCL644HLuR7UesTjyo1hmCjLz7GkBqrKQDAzHbKlK5P4kPiysaY4QhumUCEm6fRRLYc/cmtsFFlmd/kQcwmQ13DBRhgWvdPvUqONCyGgumykPuc1QczV5sFBdazcxHE6w1+nIe8EyOBNlZRlJ2uWRRCjCeDwWEqS3edIzIZ8FdGKMYwSBWmHgOZ6Gr6axqFIkoNXKzNq62ahLNhBVJCCa3l9a3rwShqEjM0AHFN6stfc4lvXcxmrDFbVa7NtzgaGtmiPD+suuBe7Tbi/ADudiMjVFfV5G6AwsXFgtTVvI5L79QPJ/SID0p91eXylNG63SkeeYbha0qnJ9T4VhM3RV3c5FNBsbK6WlTo0qh8iU2SNRafQnYu7zmYejVGDV+qYxrwTPWyAIITKVQl/2aNASSC5Su3H7PhvuZRQc6HRRkKACBW4S+CX18ktl7A7izLWMQaYW1ptqpTIPrrh1x2qQNt9vL6uJsuIfyUonFZ38FxjNB6SFLHMEUm5sWkUiVEsDCQB/atmqKvN9RqsJLm8r9zd1z+w5s98LPzcPY0pL/jY/C0VCFvspPnbZx0vOJTjX9sS04FzbxfM7ysSApE+5F3HOhw50alZFH5MmUyXPQHeolDMGtXLVeH+rh2oba9ft25o1cjPB1eKo6qIb+0qB4I10HssFNE4H0HLg8ZIAkQTqOfpmvSrXCW2Z2b4lwZRcES97aDZrtzSAMw8Wu1d2hrIyz2wT/pD89keB5KicW62KG9dZw8HpvmX32Q+e40a9At8fg/E7nM9RK/6c08vmbKTgpd390WdqDoNuswsjEiCSBGuOsCm7e6o+nL/S7xuSvHZ7ZRaWmrAd05L2xTi1EOxMVCgz22ozgiTZNsw+qzsHhub1PCIVD8m5sZXSoA0BRBGsOvKZqJ0dVUbN4e9XWmuTAPFueTVHhe3SLGWC+zcrso9Uira7vhAP3ZYmWU2JytPhZy5bz243eC4urFXk/PCH4Od9+QZB0HLOKs6UBDFWIG9goC21qYbxOmtW3SyfSJHMhVuW7DdlpKAh27E4T3b23osFCtwKFFd6gQI3ESwo1hr8ObyvnYGoMgO0oNOA3z8sCtijne+d55e4VoHEYCCz5c3MUtXKZspYzVlhwZVVgve7f91Dq2LhySs+RrJQvN+NzDiOQrTvW1URMJV6shh64P/JqxG2OhFe/kAFzaqNnb7Kr6CJwqwljgW/muuhShbS/U5mnVRQrBr8VIXYYKJMGDQh5O0MVb3R+T/rYKvVtCjSxg86L0h745pzzmQkkfQlM+db0KqiCKmUehJrGyUvt/3bgN0e0+1jlJxZsceSnAUdCRLDHy+uVc+cIuR5nszSLJqr0u1gDBJdBr2yz/MultU6ACuzMOeLdrMc8TiL1O0ZCKJYVvYX7qvrCuniMXm5/ZZMnHJJfuZxvl0SFzgu3EyPy1StawxszoPvwa29EQZjtuKpzxc+M2fdmDPD4jxvZDI/F7QMPH/X99gmGsr1TTMQh46DWRgtlU8uGo0msSyMUGWS481ZTEtWk6UU6e6QWTrusUJFbxZU/pC9lPTzfcLPfR4nW+v0+aLBAlVUGiQoR7gs2y1HsPidQWttql1B6MLfU+2cZExsi9OZcLIfmRlL/sOcCy08Z1yIKXB7UChBp4viSi9Q4NSweI2OhWwlMw8g6QlZLGV/4aA/v+h4E1f+uWqXyMyQakHTH3787t9ouQf66+lK96qHLDy3TfvUCFyM1O1nMwKke8azmQBxdtBKkw7uXHA0ejZpurdzRyqtbim6E+DJF1To6UbTwdW9UEghCyJxD8uS2DdajgSqXusEKJesfYqZhMH6iu4J9wPVDwMrVVpxcz7gbBXTJym+9cyJHshnJ6UlZC+W36a9f1aDs2Accp5fmWdhs9UNsDsIZTbLMEJUGQK54h1QKG8FWJSPJ1GWbn/QZYzFG/NKSIbyQZRnAZVKWdrHqKLliakYI2SvTbm0XFHg34bDESaUg0hQ5brU2yC5p7Mfc7aUPfFJIIsjYYTRmP2TSmFTAVwzJ0aCSgyLfgZsHscRkDM3vK4GEzrjqTmcSolukAf3d7szRm8USCHNDCS9f5xR2e6O5X1ZKx9vxoTXxtWdIfrDQN7v2tyFZIHHUy656tyliagr/GwQxXEuY0eD+0DCxPBSzkueFXCfd3q+KGiKQLIrgLbdnihpqp2uIuSJiwZUepQCpBzfZA6zpFr9pO2wyXlBE9f2xsrlj4YqGREkxDwjU3/kNRJLb7Yr3v5WwQIFTgtn6xunQIF7BGoOSFmVLupIYnHUqFhCBPiFra1MeRtbyK7sqQR3rjQbWWsRyRDBL7mHz5cX9upzpZaZPv2Ram/hjBHrOj5UZ3jks34ItttJiFA6F5667z8VSVJEaKYwzaIs9OqvumWnH4sitdG0cXHNRWcQifLDZy65BlZqLppVE09dnSxMTtd22FydZmArh471oPHdABYoK60mdvc6smqvHZ5sU9mexyABUq1yYosbKken1cb+mQoWP09dHUsApSK5SjncCyMx5Lh/rYT11q0dfObsFveRJGjhsUo2jHLVOmugexpfB7rAkfTkL30SoJWV1sKQU41SiQWlhSQJMyvkqZQnqpBl2/KeHI99UeuOC34udHoDDIaqjU3ZiqjBOp07xOelYkISRLLFa2nZ7Mky8DE3yt1iET+kg5m0+O5XYGgEQDLTHQRSqJNUDkcjcatTpgUMdC2hWa/sI8I8N9d3R9MgYb093fbLx3KGpVpyc581i5eXVKHPH2ar0XI6lFa5ZWTpdoLn7srOSMxreP7YJk3yOvETXAvHcqycF+TrwPwgKmo8Dtpc8/3F2+nMmVeO+FurbySmvC8/RkuOLQoQW1Fpb07yo8NhuW0SrgK3D9qs4mZvs8DRUJCgAgVOASz0qdLQ2ljsq/NzP1nR2K47Yr2NmfGU4NKaI4O1dImLQ7Uyq4yATFFOHr1IArR41oPudTRIoEW3nzNYIFhcC4HJdoV953oWR88escQ6GOmZIRdgMWvSyM077btzKvtCEtOsWrhvzdVmRrKSyy9wfjnzXCyb7dH7fdh97mSwdWltdVUG5zmrkWZubjFY1HDORtbFs7YWE2tNtsHs/0jf6gRiv64MFnQBmc11RCTEE8lyYjF4q6ADHNXg/mLnK3EUPCGBVSG5s2Jw3pr4xYJEhjbYdIGjCYKcb88VlecwAkSI45pFC+0oIz6K6LE1ieGxjutJixfncegMd9z95qxXf6DsuKcZS5x9iagm8L1L9z1Hzrt6zZnHVLoleUwkOSRZy9zRqNpwdmcwHKPX68lxz3hvBN/30R9MxC68VVcq52hMF7h4OvMi3YTTWRhFhLgYxO2SbGpSw1kXmY3LPiN4bYx8xhBkirl8Foay8LIpiujpFv6dgS/Hmb92+ZFmcT40jLHbn4iFvl4M4nXuubTHv/HryGtjpV7CytztVPPa2tJ7LnOtQIF7BQUJKlDgFMAvm/MrjnxRsxWMBIPfb4psUAmxZbh/EVh4vexiCVvdGNu9AAHtsi1DCNPmiiMq0zJQceH33MxZTgUUcmVUzxZRrBHlQXZUKUuqpUbFqWpHuhsc4Q3PgQpVNST4lORtc8VdXjzjMIveu/eLmyv49XpNfvJYbaYyKM7rha9PZa5dkOC1tTfgPItSG+ctntlex/uwVe7S+q1zgiJB4+o+23xM5+AAPFul5D5zcwhHeX1Z2O52ObgfyXWsjUVY9N3MFW2aDuRtsI8FElDHlWJUmyLoHB/aWpOY9JOREAjmJR2VDIkz2nCcvZYz4uG4rpCtNOZsCYfj+Te20MZwHFfymG7Fe0YvPh9mXc9Wzl6Psz0kTFqRytoDkxhp4mOnM4Tj0EzBnRIrcTyzgDTLslHtujMixJZLhkJroxQaL9AYIUnUZ4gmQOSsXNyh2lJ22RqY4NqeLwRgPpz0doHHR4c7ksRF5477RiJENexmkzUSxrOghN3T0NLlzd5mgSOhIEEFCpwSWPg9sOGJGkTHMwk6dSy0qipz6LBChUXU5gp/jv6lqNtBpsVyyoA8+Q99j305PfI8ub/yYWLYEGVBikd93gUURilMqs3NMpUqxDDV/CyPlbnbdYYsEBZY9FIBkj74ey/Ij+eG812HQQcgks4uupaE6Iq5RLzwWiHJYismwdbJatk6kVojpL5OxYPKX5xlpJBYqzkEbpKkRW+bz8nBdSqW3A+2+dBEozb3nqBTFmdFqASwkON8HAtizkpcD0dAu3JLW3u4byyu5Rg4/+OpNqN5MBurF4SSmaUVGG1OQPWV7xC2j1FlCjqh2HK3W40bEhVp64qiA61t/GxwS6VpSCttuG3LRr1WQ7VWhXOTVCBxgfMDsWAnmeOxpDEQmh4c++B5l/crSMyo7Kj93N9aa8JIYyRxgO7Al78IeeF2M7VQtRArh0zp0J0es4HNbBaGkOstTDAYRcrJjkGsmZIkWU2uugZdJ51ebxunRYIy5X9+EUNDH5MigzcXvHbZMstn0OekQIF7CQUJKlDgFMGin21v/LnVkBVjtomIyxNduZSyI9XEHKYmVmreWFQbuasEw5oYTBazoHnn5qXu2oZSgQgZZI7UXAutefOgAxWL9AMWvTGHrVXL4KIB7ZsJZcfNQok9+Kr9kCSVJOQsZxGJksb/kNf36PvJ1+HKri8tl9PV/Szo8vyqd6LWuUrJwWa7gp3eWLafZq2YJA151YYr4ld2fJVaLxaIkEUC3s7XmvNL2u6YjnMsbvOOc/zFdixpIepNpnNxx7FiPgpIwLY6I3Us2UkikeFKvRpInz1HpVLCcDwRxYfKnigXmeOctrKmhTZb5FjojkYTCZClInQoDun7FyLkedIi22zWZd7oRq17xwH3fa/bR6fTl32eOkryvTmJYLhl2O7MOY734WMcKxUjCOWSFyM1+J6WPs3sdeU1m8jsEJUPvm6qhU09J9USqt58uAr1VG2UNG8oebPrkp9z59tl9EuhWGeziZG3aeVDE279mUjCf1rg86u5uOxzdg6z6+vmfdbwfUOljDNcPI8EzwvdREkg72Z1/ayhEIJOFwUJKlDgHgJDW6/sJggjrpCqVfj5D0ztEMcSgwvbbK/jfZRiYMg8Ef9vMKGL2+xx5AP8ntZOussJUCqtJ7R33be4ueCLl65UF9oernaYMK/d6lS+BdsFz93ioX4WINu9EFtdtSItJAxAfxxjdxDhvjVP2mrOIui2x8KwN4yQmgeVNCoofB2b5f2D6C/sKAJEpVIXXlzlJwF8ftvH/RulE5EJzjRwDoEEQqt4VE80YWCxe3U3EHLL/Z5u31Yr1jv9UFQhzj3x32yVcpc4zlFt4rD5ds8XF0GtaLHQY9tos+aceAaJBOva7kiUGK1q6QyavYEv7wmGTer98lwHrUZNDAyCgJbwtMfXWUFqZocESP5tmogRYzQa35AEkVDx8WxzW0Rw+JrxPuWSd1MJEMFgVRIgyRSahvcqssNjC4ORfA5Q+YqzIr7C9rNJkBm4ZB88dMgz+DlkwhA3OdWaGyOEB1veW2liIBC1RBXvQoT4hLnQ2bz1tgZfl2bNxYgzRb1Urr2zCO4/SdzeIICdLmgXjZTSebP2n9fplR2GetOxkY6j6vM9ihQx4t/XmsefTytQ4E7E2fxUKFCgwC0BZ42oaDCfR2MWtIqp3KNKphRl15ZimoUpCRHvOw60GxGDHpUpQa1sYlWMHEwEEcTVTYwbZNZotm1JPrdYoMWS8aMLUT4P7b8XgUUvZ14G48yi16SFOIegbz35INEjAZJ2p7mARk0KHj53Ni1l1dyZh+FY5Y6IMcKUcCgCy3PeyqmQPMe0DhbVLXdMMojtGLKtT74wltkK1rZMmadrGH+Ocg64T1SFFoEGDmzNyQdharAIjPwY3QHnIpSjmsyGLFHi+HBua6vjS4GtFDsVJnt1j0PoKrT3JIVeb+irzKPcEHveengwDsTWOD9jQiWGAZRUhGhkwOue+UAkEPMEhf/mIsWibKL5+1XLJXR7g6kTnIY2QSCRorX3SSGOb1noqZW9diTHvd5QCA+V2/weKlc4QxEz6i+mg4rNVkYbo2FfZZuRNAoPmnlIKsMI3q4+MDw6VLKVLwI8udhsBIlyTNOtbfr5qCLSOW0ZGETazYjqoqwnHlszpyKdBni9sPWPBJvzSopYq3k57nG7Xjqxhfo8+qNQVDa+z6aKWKbK8vO1Owgla+i0ZqTuNRTucKeLs7mEuQA/+qM/is/4jM9ApVJBq9VaeJ9nn30Wb3vb2+Q+Gxsb+Mf/+B8fSOP+vd/7Pbzuda+THI6XvOQl+KVf+qXbdAQFCpw+WKjdt+qIapPZIMjtYpZg5FqoMrANjQrQeKJUA8mqsfiFaWC1bosT3asfquDRC2VRZliI8cv1kfMlPLDpYbVpY6VmSe4RC1ESID6POB8ZWeiprPKqmahloGrAuRA6oLEt6nYQIGJvoBQgFn7zxgJUyFhM90+xleZG4DmjWsXzRyLLIoc//I4k0eHfSCg1hmNlRTxPaKgqjCbqsVxBZnsaFSYqN391eYS/+GQPl7cnL+rLlwRFOPiSwp/XLm1++Rw8HpnxWHLN8JqSwEkGU7oqH4eP5zGzyOwOeQzHf93EjGAcLlXC9MzKyFdhnXmQ9Kw062jWq0JM+O9FCs2NyE8e9VpF2u1IeKgy0XqarXb871LJRau531DjOMe52xvj8vWBZP/s9SbY6o5xeWsgbYCTIJDPjEW7Ke1dbD0zDTx4roGL6zXYpiJldNWjYx3VYCpi+7TnJMqCnlX2jWHaMifEQSPX8FG2I7Hvp0ZNQlD2HKyvlHF+tXJo6CkJGEk0Z4Ty1+d0RlLm607XHY4E5Hy7KoSOyhnJkDYMoap4M/ePYav6s34evK55/dI6u8DtJUE3+6fAXaYEBUGAr/iKr8Cb3/xm/MIv/MKBv3PliQTo3Llz+KM/+iNcuXIFX/u1Xys5Dz/2Yz8m93nqqafkPt/6rd+KX/7lX8a73/1ufNM3fRPOnz+PL/qiLzqFoypQ4PZDDQQbMjBMKKel2d+lKz/7EPWyQl9ZqLLwM9U8TpTCqTA7ZImjkWPi3IqLjZZqeaPy8LHLI1GJ2Pc/9WNgboWryNBePxS72rMCNfjO1e7lFt08hEmQolnBmQOVEM7TcN6KCiBJBkdjxD2rbAmZZHtZHjML4v2gfS+LMn2faf2agQYbL2xzxiDCoxerJ1LGblT4y3B8VuuyqOW+k5BoQjS7H4fdVesmnbXmIeYeMc9NeOywWDn2Q4iaKB03SGwveS76pnKKmydB3HfeTuXoKERIwi1XGqiUPYzGnKWK5XzQBpu3zatDJEm045ZwVgka9aRlbf65WCjv9nwplHX2jFZNOv0AVqbYHI7ZHSK6qdDm2jThlTxgokjRjAjNLPUNwxKTC+X8lqU5k/imPsqmDct2cW6jLvt1lLwjEqRz7RKu7kymn2XTdkHLwHrLO/A+eLHg59loQgWWM4TKvZG/qfZoI4KKGGnMPj+pvJDQ8e9sTaNiJmYFN7EtTc9TmjcyYTiDmV0FCtzTJOiHfuiH5Pcy5eZd73oXPvrRj+J3fud3sLm5ide85jX4kR/5EXz3d383fvAHf1AyN37u534ODz30EH7qp35KHvPyl78cf/iHf4h3vvOdBQkqcM+Ai6skNJNABaTy33moBHE1CM+ihMVG3nxA2uOiFDu9SNzb6Nq1DJL/YgHDiSo4OE/Eglm5Pan94O0s1LujSJSemzkAfBSoojlBb6xsdGVluLy8Pe9OAMnP1V1fZil0MCcLTqpxGy1Php91ccVjZisaz4GQnTCFa88KdBaLfL15/5DXRu55pgPx+nmHsTzvhbUbDPUvAFvreC1K69XcNaAL8FZ1FgbLIEiumOuASSvnOMcd47zMslkYtnZRGTgulEMindzihSHHegX2MGWCChCJ0Gg8EQKig3DVeaaLnI3qMYJTpcVQSE/p8FDVbl9mjcSmO8v06g+GqFUqqNUq4vQ2HPni3sZinV5utuseaPmTYOaEx8eWSnVdHDgHVBo566T/lruLqMXlshAjtv2JAiwLMglMyxYLayJhL9y+bKmMgaYhRsMByu3FHSGLQIOMSxsVaQWjss19pAJKI4vDCBDfDwxVHXP1BsqJkq1iJC/LQKV0qzNR11fmHyMh0VT4cq3HvF6pUlHN0te7WLzL5+2taUXTr6Ger1xqwnDMMN0CJ0fG8W/6NgscDXfNlf7e974Xr3zlK4UAaZDYMJTtIx/5yPQ+X/AFX7DvcbwPb18GBrhxG/mfAgXuZNBUgEWBWoVUA8f5H7XirrKKJHAwc3HLg0SIBRDtq48Cbkf3nVcz4sTVUVsleCrLZCpGh7TE3QrwGK7uBXj6Gtt9Qml/42/++1onRNVVoYsLH5vl0pTds0WWSGbo7kalj9E7RspiMpS2oiCM8PzWEM9d64tlNVern742FjOE3T6DKWmrnQiZ0cctpDg73nkCNA/+ndlVy9rUDgOvCxam3K/8daDCUBWBYxaMBrOHzq+qFiLuI1fQ+TjOrTSqJHnLv96keD+hWsX5E6XY7D/GNNsHXtPalW7ZNlao3lRKQkhojc3gULZu0yWOys7NsrEm+Bx7e130+wN5bsd1hIjxN1/FXn+Aq9d3sbPXw8T3ETJ4lipNHCAMxgdaa0g4U0OpR9y2Vo31OaDKRKLTyGVbcRFS31+fAz5/pVIW1ctx+FmQmUSwTTbJVkrmVRC63jm2qFkkbccBP+9Wmx4e2KzgwXNVbKyUDiVAnUGA57ZG2O0Hcv2RcNM44LmtoRCdReA83dWdsdyfKiQNPvhZyWuaBh18B/E5ZR7HhFhzX987eI5vJXj9qs/6g8+pDUtqZ9REokCBm4275kq/evXqPgJE6H/zb4fdh8SGqezl8sHVtx//8R+fqlAFCtwNYAHCVijawoqbW8QWCR2WqtqF2MqmWlOWzyfwy1K7bs23kMmXKUM8PTV8q52vl8078AuZN99uFWinF0rxz0LFNVVrirSMJKnc3qzYsk+qqJm1XXF/OS/Fov0wJew00B2F8pqWXCPLb1GtNVL0Z4PlHIy+sjNAGNvKjS1nRmCZVAJiWTUnMWHdKgX/XM10wFVQiQvy3CwY6fx2HPD5L6x6eGGH+TAxgtwT8Nxvtg/ac2siJAQoTmRWhMUur+3BeLJUVeLh0MzhJKASwOBX2gvr7Bpx18qef61ZvuFKOu+3utKU9jQSILGPtm14JfdY7U/aAEHmpKiG5Szm+br3BiMMh2NMJhO5jbzWSVmYKxJD4jHmDFE4EXWG26AyaITKOZJt5kbow3H3q0yc16lVHAyHA7mPNHhlrz8JEGeR2GqnQeXL81xMJgFsJ7sWp/sfZfttgj5ldNxj1pM8zzQoWf1WFte2zD2NxxM4tByXz6zDc9WWgaohVVCSFD6cLWrVsmod3er6ckD594Ym5Nd2x7h/s3pA8SNx4iJC3jRDz+CR9FDx9lylnqk2WxWUym2exHp+HiSgehZu2dwa1S++t7U7HO/H/eP1y/fFSv1wpavATUbhkX3vkqDv+Z7vwU/8xE8cep+PfexjeOyxx3Ba+N7v/V5853d+5/TfJEyXLl06tf0pUOBmgMUtC85rewEsU335qRwPBls62Gi5uLIbHLpCqRUjDRYT12llHart8U9so1tvurKyaFuBKgLm2sxUIZRgrXF7W+FkvmEQyTHkixlZpWbbT5KIA9xG08ZWL5L/ViRJ9lrc4i6uHq9ovR2ggxsJqKzSZwQo35ak/pvzCSq0kspJvlji6jULNk1mWSRxVZvELw7TW/rFyyKXFtwkMXx+XhssyOplXj/L5xikfSjXQqTVxv4oEoKr54b4mrPA5Wr8SUkQr5dz7Sq6Q19mZ0TlNIBaxRWr5mXud4v2m4oMf05qU812NpogKOdFU+aA6rWqzNTsdvoYjkh+stk/XrtJIq1Q6rw6GSGchSXL8eUMD3htS9hqqmysCbGKN020WzU062V0u31MAhpBpGI4ROMHEqB5I5GVVgO7ez0Jg52qPKmy+m42ahhPJhgMRgjjWfubmp5JpGWFBM1zaI9O0hYi7EZyfx4ryVC1UpE2wqOSIRKBa3sqk0oekpLEhEJGeM2QDM47FaprjXOSXCSIhDBokESQWPCzJE+a+NnGa4bnle3HdNTkTCYhhiWRWpR4MSSIz73X9+WYZEEpex+T1JFwi2LtKYMQyVBaLWOn68tMnW4L5XuvXeQEFbjHcKok6Lu+67vw9V//9Yfe5+GHHz7StmiI8L73vW/fbdeuXZv+Tf/Wt+Xv02g0FqpABD/U+VOgwN0GFoFVbT2dDfDy33r+h/M+e/1IVID51iFdPDUq6oubq5m0i9ZOajKfkSi1hK1WJFwkOdc6yp5YqSqqKOAqPoeCSb5uJ3Tr16Lh+VmIqyqYH9qktXiECQNms7BU/iwrzE8TuqTlbIc4vS0oaFjksHDi4LlhHLQXZtsiXxu+vhdWS9jrB3j2+uSGz6tCcM0XZa/LfeOsRO3oYzELt8FheMPwpTANM8WS13G1bGFzhVlHJ1/tlnbRegnNmqeUk0zFvF3FIwNVd7s9mfWiiqJbzWi/TYJQLpXFKIFtZrxPFIXKtIH3E4MEzjQpFUWrsBokzcpNjUoxiYoi00ol4rkM5L3R79Odroxzm2tH2mfOOq2trcCf+KJQ8rmp6tgMt/VDDEeB7PvMs3LWcimxzoYpbXC8rjVI6syYWUJsK+zJ40m2bvQ6kMRwdo3HpZ0mNUGmRTTpF98Dh5lfKPONGfRC0ryV9XRtIGNa+1pKc8ryScH38ZWdkcxxsdVZsqZihgX72El9RXzEHVGFoa42PPnvzXYZ7cibGjWICcMZtPq/21FYZN/DJGh9fV1+bgboGkcb7evXr4s9NvHbv/3bQnAef/zx6X1+8zd/c9/jeB/eXqDAvQhtPb0ILPJ1Pg8LBa3SsFhQ7RumtIvpQFHenl85lSwh15I++e1ugAc3SzANT0Iv+cXLooHb5PNstrx95gu378tnsRtavr2LXyc8rpJ7a4NZbxZIZMe9EOaiY8uOh+SNLZCHQS3UZ3bHJLYW1SDO3Rz+mNXGyYNIbyZ4jCTffugI4dW24GLAcJP2T4w/FszM3UqwcO/2B0rNyalIpqnc0kgoOPulbjNpXzCnZqj2RpIJKdiza4JtjDTPUIoLSbBqtSOoZgTBEIgVSYkSA7sdH51eH7VKGWurrX2teMsgluXlkvxoNWtntzudiZru4/S/hMbTnB8x28poMJBBudqp80Ei4Lm2GD9QhdLbXwbO4vAxmgDx+uBnkq4deY2zRY5Pz8/AGXlU91O2/kEW3uvI55giIEptpBI7e12oKs22necZuljlnNVJ0Rkw3DiS18zM9lPswHUmbcrZQOUGSvWH/15vqRUG1V5YtL4VuHdxx8wEMQNod3dXfnOV44Mf/KDczqyfWq2GL/zCLxSy8zVf8zX4yZ/8SZn/+b7v+z68/e1vnyo5tMb+2Z/9WbzjHe/AN3zDN+B3f/d38au/+qv4jd/4jVM+ugIFzh745X3fmosXdgIMJwn87FtV9c5b0grGtpFxNvRLBWCZXTYVIaooVHtIuthaxkKMj2dhehrtF3xeRQbUfsyDszKSLXObi9wXC55ftvllrsSzOax05rwmw9ohCyY1A6VmeVjg6ZYo3kYSq4tEdS7Y6kUzhflZMI1aiQGeaiaHjz3tlWXJc3I5iH40ZUo5n6mZitPe92WgIQDJyaIQVB6vJkJ2RpBIhEhQ6MbG/5ZrgYYoGREisRXb+jCW4pnXB+e5KiUbEz+bF6S5Rkw1KSNbmRMfVSaqT8TGevtY72N+j+91ejLfQyOG7AhUaKpu4ds3NJEjEqK6zUhEHEWYZHbbNHoozbXjzYNW7lq5o/rD45bsHPFpUSYt3DJdALkZXj9UFKn6ZX6L8l66ujuRtrgLa8rhrVFxsN3z5X0lmWtsebRNjGPOrKn3kFYgxUiDhh800iifrBTja8gWOMlmyo6X+8z9t23VuittrIlSaEMkQgDZtrlM6Spwe1G4w50u7pglgO///u/Ha1/7WvzAD/wABoOB/Dd/3v/+98vf+SH/67/+6/Kbys5Xf/VXS07QD//wD0+3QXtsEh6qP69+9avFKvvnf/7nC3vsAgWWgF+cD2x4eHDTw/kVF+dWHPn3Q+c4pK4tlFVRsCzQXObxswJc/i3udFxBtfcNEN9usPjgPnAFfN7pSwrEiO1+KmjxTgLVt80VVz4LeVgsvthBxJVgnnuaVfA2EiG2I3HFm2ofZ3Bk9T9WhJXnRa2Oz9o1RLmr2BKMS5LDek7/KMtoA89vs3VujKevjmXG4k5ozWBb5FbHx6deGKufKyOZF5EA11OCWLf7EXa6E1zfG2G3R9vlWBkhyAzQshkpVvL7W2KYl6euB9XaRvJCUwb+GKK0KFMCNbfC2ZZwOsuyvlKFa6q5GT1TQiiiaMrz0IDhhWs72Ov2hdQcBZJrFNIim+dYEXGSMf6o0oRkSJEiEqDs4GSfeCziRCfkQkWsqhm4FMPRGB22Ch42zyjbmhkdyDPm2hl16yCfj+8Bzs/xPaM/43gexGHTNqUVmK1nRKvuyhwO31OSyyUOktivCiUqdJgLCWw9XG+dvDWT2+cxz2YplUW8es79Ri5qv9Ws0zJ3u33bjkmYArn2tjpj9Ecnc30scPbDUn//938fX/qlX4oLFy7INfPf/tt/O7CPrMGZqcnREbos//Vf//W++1Ck+Kqv+irpvmq1WvjGb/xGqdXz+NCHPoTP/uzPRqlUktl6ChanjTtGCWI+0LKMII0HHnjgQLvbPN7ylrfgAx/4wE3euwIF7l7wQ5GkhT+LMBs614XwfrDGEbeiM7iyvtF0pWggCZBsGR5H1gNXr1hi6nAnYqXmCEm5tmugN+Igulpx5iwHixu+XmvNEpLUxOUtzlnkW3j4Wikb9N4wkvkc3aqoVSWqDbVKNksRp7K6rG8nN+Yp9KMEV2muke3PWQVf/8vbE4wnzKlhS5Nqh9rpBnJdXFwrTQn/7QKLza3uGINRoArprHDv9H2UeUnmFb458HaZ98mKId5Hh5Sy5SzM3OjUDJcmGbxE+B5Q91czNsBKsyKW1AxhzZME2ceMhCifkFTiJEjQaMbQatTE+noZSH6oIKmcoIPBq7qG08W83AZevwyZVW54Quam80xKGdLHOhiOpV2OJhGLQCWbsz9Jpmjl3dR1GC4V4DBzW4sTNR/FXRXXy2zxRmbBLPU+aTeyEGnbRDqBKOR8S9EyfbVJomNg4qv5S+5yo+qgWVOk6aSQj1S9X6qzcTqbp45Fm2Lo8zkLij0MbK+jdTdVJe3PJ8HWjoXNdmVhjhEXT0gGabbA7dOYoVXzhCwWRgtnG8PhUIQBdkh92Zd92YG/k6z8q3/1r/Af/sN/EDHh//w//08RD5jNSUJDkABduXJFRIYwDPH3/t7fw7d8y7fgV37lV6amYuzYIoFiZudf/uVfyvORMPF+p4U7hgQVKFDgdKBtr9nitMiti25vVc+SgE7tRJR/LFdSSaBudyF5FPAY7lsryb7T+EDsomWA2BYV6HZbdt9MUGV74FxN7JzpYjbObIc5O8EcHRYnLPJVi44isQQjatgqo4s2qjkX2p6senP1et4xiwUTQYVJXxO6hYhOZDvd8EyfS+YajScxPLri6eOygFQChRNc7/i4tE6Thdu3/3v9CXoDNdTOeaypdTuDbbmvYmwRH8gTUupILC5pVHLYOkf3Nd3aR5VIIjs5KyTujqqYF1JEUiFqkC3kwLAdITOc29GzObPnUUqBcqVTjyf5cF1biFCnN5B2PW/O+Y7FcbfXx3A8EZMDbb0+0zF0cT5rhFM6kHJX43VJlWVG8LTrHTei9o/nhI/jfFCtWpmaRvA41HPSbY7W/UCUuR1Onz/XMlrybLhJMg1XVcHOppCa/MwbF3f4ubHbC8QiW2Xt8D7Kap9b59wQW+V06K8sGNyE9wMXHfg+5vvbTjURVAtPfCtqQmdnEtZRwnxJeK/tkqAmQnb2xQIE6m8X12v79p/E57lrAwSUnKnkGcDQ52dqgHbNE+J0VttLTxtnoR3ub/7Nvyk/i7eV4l/+y38p4yV/62/9LbntP/7H/yjxMlSM/u7f/bvi4vxbv/Vb+NM//VN82qd9mtznX//rf40v/uIvxr/4F/9CFKZf/uVfRhAE+MVf/EXJDXviiSdkrOWnf/qnCxJUoECBswl+odPdbTCJVKh7VpW4doBzK54Ut/ySXG850qrDWR+xJM4GdINQ2cHScvusrgbyy5xKxVlWK14MOMfDHxV2qmY8pN0vM7gQA4sloZFc5dZtO+fatE1nSKVSTPhqstDmPDuJ8SKXPb72JEIk0Ce1pH6xkBapCVfgVbsXCbluceSqfH8UHyhsp1bptonRhO2BibQZ3g5wRZ1FrbXIup0hxWGKmC1sbKsKIyE5utCXfzs2GrWqvGad7kCIUEjikCmd3KaEZVL4ybV/Sa8XrbClvTF7v8r9uX3V9jYlJ/LfqpjXqoKeN+L+0LabDnbzJIgEiAqQtpqfOadlv6a3ZX/hfsqukVApYw62wvE4Z4XejEWRfFjMDsryk/jDw9jdU+YLmjwlcSzGIXFiwUjN7Em4EKCOVc3LKEom10qiQk4XKm+iojFXTIW35hcJXFkESnF9zxeylDdaWRw3fHxQbaHFNj9/mbHEnzHnl4QBAV6OBIc6zPeQGSTOGM0TIILvD95GIsSMLIauElSLSID8KJZjpGW52Jvz/EY8L34WVPsi7B4LnAhUX16s2/FTTz0lM/ZUcDSazSbe+MY34r3vfa+QIP6moqMJEMH78zPhT/7kT/B3/s7fkft8zud8jhAgDapJjMnZ29vDysoKTgMFCSpQoMBCsFhg0UuVhO1Qul1K99G/sMuVas6YWFIg3rdewnaXIXwMulSW23SPW206cp8CpwvONTAAVpLrZeWerUNHWzXkK8+2uPs3TGkj6o+5Og6USGzG6vpYZLMnxW7WMsdimcoT86RkJsmhM6Cyab9VBJnzGszC4nyGPkxesys1G2vSCqn2a9ncF+s53oc/0oZ2G0ClQ9zOlgyuk8SEkY1mldbSPDblgMGCo1Ry0WrUp6YJa20VyMq2M4KtZ51OT2aAwpzVNKFeA9pNswWKbmuOvO50oGPY6Wg8kYUNvq91O50oMNmsi35O1ZJG8rx/Noj7wW2wSFYkRrszKiME3XIlrX8zDiTEba1dl1ZOkjqAxEbtA3L35ecTC6x9f0OKTqcv58nKyJlqp1MPpFVAmYpQagoBswy66bHQ5wIOyQxt4rnAk+wzUFHteErlJmFQ58AUNXQ+V8ixeN2HePoa3fiUQQn3lYsCbJN7sYoQFddzqxVsd8ZChJTCpxahqACxhZDvN2nDM4C1zCJ7GTgPNp2JmoO+jeqvJkE7vYkoQHxfmdO+QqXcGZZS1vYyVVOr0VTZamXnRdnU3zW4hVLQfKYlZ+p/8Ad/8Fibunr1qvym8pMH/63/xt/alVmD7ajtdnvffdhKN78N/beCBBUoUOBMgaoOi1bJ/bEOBgby73uDcEpwSIQurVtScFJl4Je7ygM6mwrQvQQS2Ss7KseJBb+EYCapOL2xFlYmCQcLEppDNGv2dCWZr/vGioeN7PuKheFTV0bK7nzB87JQzMYWZO6GQa46uyiZpOgOItn+5op30221SfqoYnIfud88BhavVIS2uqpAp8mDDOAvqUG09nE7O3mUXrcc6nwaqFQqWGnWlMLB95tNBWN/8C1BcqIJCk0DlLphSQGvW7/2PX+mVrDI1dtaXW0ivEqFIEaiSUZubkeTj4XHk51chqSShLFQlpY0ybNR8zHquGfayGymxYDjeuL+NuJgfkY+9p0PnX8kOT8hPMOVlkCaQSQxw2FDaf+jYx4JkCZpJAYalpkqIoQUFpTqHSUMbyaxsUQF2ukFMCRPTWWbiQ11Vr9K5lnMcGWg7M2c2sTcIsgMEuJ0+lnJa5ILErwWz7fLC1vF8hb+N/oM5VzRpY2axBGQ7MhCFRWbSYyIgcnZ53Or7slixmHIBKQb3kfvI93xZCZrwaO0HTsXI4bjvnpcpkiWSzYurFaOHC5c4Ph47rnnxKhAo8i8PIiCBBUoUGAhxBGJvfALvqCl7cUypKidD1OV1qjbvK8FbjBk31EF5HyOExdiOQvF4klsdrPXUc1yKbOE1iFtgrwGahVb5iH43/PFGotFXg+0JB6MYmlpyl8rLAYZyOtapjyP6sq6OYyDRSZJXCm3Oq8siw1RKmkjztkvnhMZYl+Qc6MH3Ze1C94KsJ1JAi8TZak8DxIJtcDAc2lKLs5RwdY2VaDzWlAZXnweXbSTnMgMS9lBLSd9MSPr/OYadjs9jMe0gFZETYwwXEcIh4ZWSUi0Ot2+zOLogl6ssC0dKmqB5ntscVMBpPvJH007YsMWZYozRGyzI5njfaiU7WvlywpzOtNRZVLGHRVMfF9u00YK6v6y9ZkKpbN6aBvO56OJCGIZ7E8NA51hiEsbFZmZ6w1DTMKZuQFbDnltcH+oCMkclkQI2NPrWysw+TBdLjqYZkYOJpHMDGnwMZ1+gJ2+skLnY2iisC5ZasuvQyHGpf0lHYkZiZYOMT4K5LqYC4LNv7b6Pvqcy2zWkm1NuXK+9ZEEU8hTiOfiAR4637jn7bpvleceCVCeBJ0E586dk9/Xrl0TdzgN/vs1r3nN9D7M6MyDJix0jNOP528+Jg/9b32f00ChRRYoUODQFcGlVry5BI8CZxfSnhguznGSItq15DXkyjaLYpohyNyPAZnlWuYKqLFad7KCWhWCyjUslW2xuG5VbcmZYm7JPMHhmD737elrY3zoU318+OkBnr46EgL+YsDCkyoXn3PR9csilMUh1cx2nW1fzE1SK+j5DBcqLCv122vqwIKQxSyPQVsba+hZrnqFFujH//rWhIXtcWxF4vOIm1k2+M5TVauWsLlaO/BaeZ4iQg9cOocLF9ZRrZRhW7a0vWiI0kYnOYN5Rj56/aEU4tzvyWQihRFd5GjCEEUh1JXHeSNl2MAGNbajkQCRsriI5DH8oaqjzoEiFdP5noRKC8+VanmU21KIbTdJmCI/M5c0TcgOICMqJIrkC7ZFMwRTCA6vZaqV962X5dpxrRQVF6iXGCyrWs5ECzEVidFxAHys+hzlrNT+86lb49geqsH7P3NtiMvbfA+ECGLVerzVmeCvLveFOBwHvEb43uT5v743wdNXBnjqygBXd8dTQ5N5yLVFs4dcmrJqgY6krY/HNjN4UKRd3efgtngNH/YFoVp0J8c6pgK3Fw899JCQlHe/+937Zo0468M4GoK/O50O/uzP/mx6H+Zw8r3H2SF9H1px0zlOg05yL3vZy06tFY4olKACBQoshF45nFd6NFiMVV2uLJ/CzhU4MliUSam55IViEcxiZr3lTlt8qJZw9VlbYx8GKj1qHiwQZZDkgUUfW39WG3TEUtfKvDugyiGhRXJ2g5kiiVJsdxP0RjEePl++YevOMjA3k8+7jLzMrII5WG7hXOpiqxvsC4GlCsNzQpJ0u7HWLKu8Jj9S7VuZ4xdfyVrJwUrjZG0t3BYd33b2uqKQUP3yXAsOW+NSOv+VpPXtMDWOj6lYFqxVC7t7PVFeNKbnPDNqIOni79F4PJ0f2tf2RsojtvQkBPwXp5XU0oplcKB/9tnD/VUZR1l2VbYMoxqxZttW7X622FrvD2GdWYrnya7+q/xbE6YsT0krcXwPEWEQwIxHcI0EBlWs0EAa00mxlLXYMQ9g5jAnihnPSa7dlLdxsYDvNS4WsF2N80F0eWM2FYkOnzWvHMl7KErw3PURXnqpfqxZmu4gEBIl+5QdD28bjEKstUpo1fbr9iRNqw0POz0fk0C9tmyty4zu4BgGtrrczwjn2mXJRuIckZDoTF3T51YrQYd9Rez1fZxrL7YyvxegnBlv7lLicXOCBoMBnnzyyX1mCHRu40zP/fffj+/4ju/AP/tn/wyPPvro1CKbjm9/+2//bbn/y1/+cvyNv/E38M3f/M1if02i823f9m1imsD7EV/5lV+JH/qhH5L8oO/+7u/Ghz/8YfzMz/wM3vnOd+I0UZCgAgUKLES9bEkRzC/reVtkXRS0akUGxFlHvsVt0Wslw+6mgWaVg8oney15nTBPR+bBslBJ3sbnY4bKAaSpWA+zZtQzQyzs9AwBt/Ps9Qkeu796olkhFnssIvOF36JZJa7qCzGosf2LluEkZep81HIucrcbfN7zq1VZeWdIJQlR2bFQr6o2tRfTMkhFZ63dkiwdtqrJfA7bGstV1GuVhW2BC7fjOthYW1HW034gBS/t13k+qcBwPkkIEOeQ5oqy/UQoBUUSqkCK1NA0wxV1hZa601Y9qiwSFDuzfp4W2XqQP2vPIgFKSP6z0BxFbrLX/cD1xOfNWLMOZeV/+UNEMU0nlDJCt7tevwekMWBaU2KVxhHSZISyW8bIV9dcQNIgIcVKLWF7nJ7DI8nRn59EHKR48vkhVqqO2ErLmZjLZFKW2mwvjbHXDyRg9SigUcJ2l0rL/lZYVn5B9jeSHt3eJq9NSgdFZVrAjLG9nsr6YisrneaoLmm77Cu7Y1xcqwiRovmBUsDmCOYNLlW2nN7LuBXdFMfd3vvf/3689a1vnf77O7/zO+X3133d10k+5zve8Q7JEqKVNRWfz/qszxJLbJ0RRNACm8Tn8z//86XD4Mu//MslWyjvKPeud70Lb3/72/H6178ea2trEsB6mvbYhJHeCXHeZwiUAflidrvdF91rWaDAndBK9fzORIpSfvlJtkb2BU6HrfNtryBBZxxiXnB1JIRjXtmRwW0/ETJ7Ye1ohdVxIe1uV8dqFTkjFVzVpgqUD2LMzyyw6OeNj1woCzk7CZjvs9UJpfjLkwY1NE73MxMPnivfdEOGOwlsI+MqtHIKPJzw0WGNszn8TZRKHqrlkqg9ebAFrtNTJIhucDQ1mMf+NKBsVstThgbicud5koPEXB++PlOXQSFBityIuUY2j8LZHL1h1UKoc4ZmxguHvcqHqhWGg0sXN7DX2UNMBSdSrWCc25LHChOLYdguUrMkc3A03CCJ41apukhsgGlIqDDbMJdBjpWteEtILgkD59geOl870ucuSc5O1z+wiKX3m0Sm3fCw3lLKI3OOaM9OgiSOjpnVddVTbZPzGXBUTlcarpBLPo77pzU6Hr8idYeDp+lVj6zhXqvX9L793K89j3Ll5u7beNTDt37FxTN53GcNhRJUoECBpeA8yP3rZfnyZosSv/hqZQutKsP/bp218d0EPaOguoRu//miurNad3Gt44uqJ0PZ2aq0zAo5BtqNW9fyxXY5XjM0IqALFwtutsdJvuU032V+XoI20GwHS9A8YadMu+5Kxg+JPM+Bbk8Sq2NLZVfdywSIkEL+CGIXs326vYHM3QhZ4ixLfyjqyEqrjkp5jkBL+xZNU2bKSh45jWPapkaDB5Ie5vTofaOTXDo1TsjITkoFKDcvlbOX07dJ6Os+vzI22WXZRkv2Zx8R4j6IysRg1Qj+ZCzHo4wZOEumLL61AsVnS2MSHBslz5FTKpk8FkNXOS9Ha27lTLjsXHDXSTostgbmIHk7nC3K7sM2tKeuDsS6u1l1D1Ur2ca27HNnZmVO9TbBlZ0xBiMSGRri7L/v0A/hRnTJmzlFyhxhEOGFLUV0tCqnsrhsrNRdjLezfLlDcK+bIpyJtNR7GAUJKlCgwKHgKmLJ9bDR0u0N93bheFSQYNBCnPbULARYEJE8UnV5sYP2OquJPyyjyi7tkZcXQxzu58u20wtFBSFIADi3s7Hi7muHuRWgrTaJj7bIltkJORDVWXTQplm1Eb2Ya43nm7NKbB/qDpULGjdHo4aVunMkx7c422d1nml/TDMB7bB2b4DW1t3+QM6d57hzJgjRtPWN7m2ERxKQ2V/fGFOvZUzGvmxPB65Kxo5jy/MLmcra3WQ+Knu0MjrIXS/K900mi/KtbZI/lHcoW4DMa07RpIygm1mL3mA0zp7PkEWDODFF8ZG8LT3Xwf8z+L7kXJya4dJ21bwW85bc+vnkMprLPNJzRHyuvMnComuShOj8annp+zc7ZcvPfnY+qQCx9ZJkiLup900/NY8loNpl8D2gbOVH4whZRNK+udAkM3uYGi/cYChopVbYNhc4PRQkqECBAkdCQX6ODlrMXt72hXBwJoVFgh+muLrnYzCJcN9qaeGsylHAFWYGgFLh0AUSiyzOcJFsLCJYfO1Y+Deqtrim8WFUQ1jU347XVQjJWmkalkqCGEThUvMCWrNzxblRfXHkTJkbeFhtKFc1kpejzj3RuerqjlLPtM0vBYKKa+H8qnco6bybQLWHzmzzbW9CUmxbDAvGkwnqNSXZkRAxXLU/GKr8mFyRf6hrnctyhK2KoWyTs0uKWLkyaK3nTSzLpoeGUoroYpYFr6rn0e1v6UGnjH37Lv8rznZ0qZuKSnK7Mlvg+1OICFvwsu3q5yERcGxew8r5Ts0iQTKUaPc+4WwcGYIQMzqtKeVTkytNfvLnMk/khD9S7cqpVGqPGUKpZnKoiJFw0fWNFt6L3sfM4CFRWjQPqI0LqFTRkpvHyffI3K7l7k9Sl8LLHqcXBohFao94RGQkbNk7juRtrXlr2nDvFLAd9aYbI9zk7d3NKEhQgQIFCtxEsLi4thsIAcqTDJaQLJj641gyQDZax18B5Wry89u+ZIuwjUQn2EvezkA5rV1cWz6nRcKhAkJvPxSpseVH7ctYHNm4z2yT04WgWPDSta1h3zSFis+9KO9qGVjcvrDty2/JNpq6yaVCPhnCev+GcgTT7Y6iHNymhQJtC83nO6qRwUlBQkJlZ1lLFX+CzEVM37bSakhb1XA0uiEB4rap+IjK4joyC0TSw9tJgjiLmKY2jCRBueQK2RJnQbbnJYmQJRooiHPcEY+J21ahq/vtsvNkKj/KxDY9lvJWFKFcKklbHskIf0SVFTtrG65rK3OQSJlNTM8YneQyl0Z9jhaBt1It7o7CAy1pBG22OUOTJEoloirJuR5aeM9nBBE0++g4ptyHLoDT6zgLU+X+U1WiAYLO8hHSkmcuWkHL7MX5/tTteepY5nKA5o7IMPQM14zR8fj53r5/s3Yiq/cCBW4WChJUoECBAjcRIz/BKBu8P5jLowekY1EnjtsWx9Y6KhRcvc0X3GrOhwSL4Yv2ia2lbycurpdk5bkz4CyFakTSxRKHv0kyTgt0tGMxmw9a1a8fX1cWnbLCTrvhYShkiSWvzMvVVG7SYY58JwWNAzifQ8MB5XSm3N7q1Yr8viW4wf7rAjkPFrab6yu4tpWKexzvNbOrxr7zyVkgQ5sysDiW2SC6zaWi8ohzoM05xDpq1fJsUcGxMRyOMJ4E2XyLKVIdW7oyy4LDDkocDEkgA23xPS3kVYvbIlAtGQxHMgNl0iWNZJS5SCazeLJZIHFHzM8j6XnA7Glm9nYHZpnErON8DdtdH89vKzOT2R5ns0GJdsUjkVHEm9dfZcH+0uHt3GoF13bHEvKal7w4S8Q2tz43MkdipspnjrhMc6oYChvvP7ZlXg/KrtxCGCbSslvKXPJqVRfNCtsmi+6Cs+AOdy/j7H9TFihQoMAdBGmRSWfuUfNgO1YUcZ4iheUenwQtUxzYvsMFea7s3gkkiATwoXNl9McudnvKWYor3e2aats7zfZLtu3N2xRr8Ha+vlf3JkoBym6jMrPdjcX1jiSOGT9KRQFqFRftRulFDYGTAG3vdsWdjSRDKSSptKtRiWivNIRQ3Gxwm3zOZS1VrLjY/jYPkpL11RXsdrjPoZgcCGmI4ymJoQvc1NltX5udhfZKU6kEdBV0nAPXPJ+TP1Rptnf2hNDQVKE/YhhrdKAFK18YJokiLuOsNVTeqXPKR/7pdCAs912CX/0ALtUr00ClUoZpexhR1aTaw7bLBS2XujWMvEaJUDrpaPb3C6uK5PE6UWYQM/VIu+JpRzyCCg//m5k/dFFcdL3SEZJ5PlSPqc5RQeJ7j6SIj5+a6R1SOevN8jdft0rJENc5zeeWPi5PAA1DlJ+irbrAWcLZ/6YsUKBAgTsIYnN7iAqgF4FPsgjKIuuwliv+herKnQKeHwZF8ucsQQrNQ14ftgSxmKyVbBnEp8MWa3u6p7Gw9MdDOJZy5mLUTCcYi5vahc0WquWTKTZUgEhG2DK2X50yRTFhexjVoJvdklcpe6J+8Dl02xqy6zsIQ9mfZeSLCg6JEEkDf6TwN00MOS8kdtBz+yrqDxPl1UzOUdQtvT/cFv+TQb+BEjfU7QssufkepHrBgFi+WxMjm4XJPSAv1mio1kNF4lbbLdgOZ4Nsmc0xeypjSm8//1jerMNPOdOn3RnV/qu/rTXdaXApTQpItmbv5IM5S/ljY7BpnW5xueBTvj5Uhml6wNZcElCqZKqFUWUI6Q1pu/H5T4754+Ac3CMX6lM77Xze0eLXZmZaoRKgDrcqvxehZrNONyz1XsbZ+uYpUKBAgTscFc8UtYdtMSzI5sEiiG1Tep7nOGAR4uv2nSVfpifZboGDjoiT3JzLwXmczPGLSoyfuYRl5Nc1fNgGFQa2PlqiCpAcxXGIK9f38ODF1amycFRI6OjYlxaseWKt3NRsISkkSTdbDeK2qcrsdXpCerLhkEyxcESBOixjSNtf5/eL4aU0TuDjpCWKQ/dhKK1pPFYqQFS9+JhGowb7kLknEhPtRkfSpTKP2DKmZntkHxY8Lk1IZpQTQQpaX/M5SIqoWs0UjnlSSbVJL3CQABGeY8l7fbcfCuFJs5BUPlafGt5HGZIoJ0cqxjxuxzHFzl0rOfx8oHnJUd7FutTl9fjc9aFEGmiXvt1+MFVrxH2PAa7aeW6OVtnakWGueM7vA8UtqtvdgS+/V+serneUGroM2mGO7wwasRSfTAtQ9MOdKgoSVKBAgQI3Eey1pw3zdi9ECJUVoof+g0gVy2z5OklbCNvEOItCRWjeXU7aXCzz1IwP7iawIO0NYylI8zksSv1QFQbDXakA8bbpbFecwCIBksraFFVODIUNVexzfqTTH2NtpX6s/WGrnSYHiyBFf9audSvAtrONtbbM9yilhvMrLkol94Yhq4vQqNcQRZFSh7JZF/5bz/9QAeJ55cwPb19tryw9dt6/TLVqMELKQOdMEcqbHvC9ph+vZ6m4SJGmbLeTpq1sa/y931774NzKLCqA5EOZZURiTJInBEptUqYZJADZnoiDI68v2mfr6yj/WaBtsZVFd1YjH5BoDv6Tbm2fuNzHo/c15NyRBAkJkfY9RYCWPFw5JzIaaf4P2W5xHyW3K0hwZXeszqepMpAkWHWBG7oikuq14GcVM42KVrgCZw3Ft2WBAgUK3GSsN10pfjgfMvaVVS7h0rJ5xT0xUaGCRCLE7ZpJZvcs1rVqVXm16aB0j1g332o1b7VhS64STRB4nqWoFZttyDlmUcl/qzYnteJtGmoWRZEgumgZyq7WUEUmwRkeHJMEcZ5GPcfioX3V/nJzTRjmQRJBYwKgfFO2xXay8djHYDjEMBzLbWytU7M96jhIsDhPNBqPpxbci1Cv1aZKmJ7m10GtosbINnV7V6oc5WhskREgQ1rceGaNqSK0X/lRr6+yw+b72cLzOz6ixJe/DSZqtsbOLNBIWnV4KH9z8SOIYvk7W9dIOlZqjhgXzEOuk8xtgq6J/L0vZDVPVPIvd6pmhJ58vo923RETB0Is3o/QHqVO136NSBuVkPir/CQaI1BtVgSHoF0478cZOL2bZkZ89OIA79Oo3rpA5jsZfE/nCerN2maBo6EgQQUKFChwk8HV43MrrhQ6XCUmR2GbGrN8FhU+R96uYeB825N2rc6Ag87qy45FOXOAOJBfrLa+ePAcckaDLm+KyKqgyHrNFvc3OsJtd/abBeh8mvxkxVRkIIGK9er48QsUEgSqMcPRRFqR5l9jKkBsvVtkUHBWQYJTrZYRJ7EYSDhzs06EzK+YDOac5RAtU4NIqgbDMcZjFWwqltkyg6QKe2WJzfehDdviLE+MKDAQGR4c+EKEct4I2YyQtm3n6ybhPfJ3P3YQDiPJBOL2M74lLZC6FU/2f67bKUyUlT1/XrCAB85Vp3NAGlRdGORL4wKZV5o5IxxEfsgm+81rdStrxxPSzLm0uf63+Rmp/dh/a5InNpniSGJFIsTWPm5to10WBYtW22K2IEqWOhd8D22slF+UKUiBArcKBQkqUKBAgVsAlYXBn5tbmLKwWG0ogsUVZplDcRY7md2rECtfqjTSBnWy88LzScWOP5q4TAmPAXT6tMZWz6XmWriia0KNZM0myqfD9nIz73syElyrVTHxQ1E8OKejM4q0Y1mjXrnlmUG3AkJOxEFsSUnOoX1aQ9/AbpzH3mzU0KhXZZtUmPb2etlrp9rheN44X0SiSlXGsKiYGEhND7aYI6hg0SixUbZCWKZys5txDd7DRWw4cm2JMjjdz0wtohySzYftn5fZz2KCGHjy+SEePg+0G7PPCB7jatNDf8TsIaUoHWrets9tQP2HZG1lhgT5+aaT6gPcqqihorApok+zBcPV5gc8Bk9+2B5HIqbssU1UvJmyV2ABRDK8ycpNoQQdGQUJKlCgQIE7EGqVtSgu8qBrFYfTOc+j5yrYQsj2oBcTvDpfxJVdCxfXSvjU1TEihpbqHJXUQsrWNQ6gG7lZoux/ZTPWyUix5zpYXWmg0xsIERLFiS1YliUEiMX/nQhlJW8c4qaYwLKPPkOn5n8MUY6YN+QHgbLYzlqzdP4Qg03vbzfw3LavHP0SWU6QhjjOujRrDQT+RFQoCh4SsGp6CAJldiAKSza/o5mIJj7aDjt3FAv3lbc+e32EeoVGKbPrkxb3F9bKeOa6Cps9bklL1dkP1OOOM3evWzuVcpYjcTxW+fesTZD7NQ5iUYPY/qdBxadQfQrcKShIUIECBQoUuOPBuajntyYYTWggoNuSUnT6DJCNcXG1hErp5hVnnHG4fz3FCzu+tB1RWZjQOCF14BqhtFdRJ1Ar+WxLIjFy5OekYJDoJrNxfGbSsEWPbXJqjuZOBY/JHAym7m55CAFIUlTKx59DImmhqx1zithul08AZUvcSqshs0EvrzjojiLJ16LKobN09oahqERhXIJrmig7luxLmrL1cKYIaqVm3v95thh/OAXhc13d9XFpY3/cKVUVtl32hmGmwNCMfX5ziujkm+/EtU+MDBRBO6ooQGInM4bK32O/kUJm8jB1yssZT3DhgcpPgZOhEIJOFwUJKlCgQIECdzx2eyGGkwQlz8zZGtM8QuX4XOv4eHBThVHeLHAOi4Tr2m6AoR8rIwSQ6JhwTdVOpcJUTQnUDGJbCtSjgASAsxdcZOfKvnap05bTdwuYPVSrViRHKQzpcKhMDEiKkjgWklSplI50vqSzLhcmzG2vr7XhT3whQtKi5dhy/nRbIs9nq+pIVtXzW2M553yNHNNAYBiI4ggBXweGwmamI9OA0WxOz7UBPzp58SmOj5nJRh5UL0kwPNfKrodcwKmyKsjljakn5x6SzPCaiYNFaUmHjhTJYoIWduYfMSVG2nUvU6TVdZq1hRYocAehIEEFChQoUOCOBtuSeqNIir+DuS7MszFlhoGZPsxSuVmQjJ5sOJzPTTWI+S+GYSOADTNNVW6UbcvqupkmR3IG5LGQ1IkFN/3KTAO1kiVmDTyWuw20zKaxA0NZlauZmp3iHBTb/A6boyJ5oGLSHYQyByYBvGW2s7nwHEWIy+WS/BwGZvNQMZTH0M48ZtucIgSs+fnfimiliGUWj4RXZYHRyAB+Aj+zTz9uXjG3SQvqOAsy1bb6DEClMQfB60xCVrlfizypM2WKp0oyrlJDiByvoCV33wel6qg2uOn25ohQnjTp20nOed553b+YltN7FoUUdKooSFCBAgUKFLijQQthuq/ZS4JiSSK4KM5CE2KBfHPAoni7G4Cb1eTKmChLZFEzEhakgMew1BRo/f/bOxPopursj9+mTdN0b+nCNiyKIrggqCDuC+MyjoM6x8FlFJfBAXEHBDyuOK6MqKMM6DiKRz2izriMCyoK6Ki4obiNOOofBZlCKd2XJE3y/ud7X15I0jRNsaU07/vxxJK8l7f88tL+vu/e+725GSqKEoEJfUW1T1OvMMG0+tHUNLaKpzUovyjNiupd1NUgzQ79gCBG1NzDlanW1d1Z3I5t5+ZmS3a2W/sQmUX16R2m+WFc/lfVIo0tgVCTVNNoAT26GloC0r8kS+u3kgEujtr01uFQMQBRhFoXK+VNhVDIjRFYlTqmADC0FxDECxzjmn1BvdY6EkPWiOKYf9raEu5hBEtpGJ8gfROiGSlxKrLT0yQ7K0MaW3xRYgXg/FGfA9GDyBW2YdVHNXvQw2i7pIn8JCPPz3LQS8R25zzzvWYEK6khJnFQM40ut8ju0s2lNBRBhBBCejWY/JqTuZjCjBCWu1tslOjnAlGCPlCRDS8xcXX4gjoRxWsQaHCuLs13qqtfIjGB+grUh5i9WMzeQObk3pwAY18wfigtcGr/HBSqwxihq0QKehjV1jeEe8yABodpz11UlB8yMeg+1GFN0k2zAViKOxI7wlXX+1TsIE0tMhXLGUqBrKzxyqCy5FIgLQECkHKmdV6hKB/ET+zEEuuaTZCxPiKMGdKvj0vys52aHlZV75WqWq86CHaEJUAgWHCtNrb4pdnrl75FWdK3OEsFFqKDVqQJ13GG04xCQmxZc2jLpAHHhpo11Mfh+kP0EMeI6FWojVK4lsk8D7NuLbIdkSP0ul8NIyKP1Hw/jgk1abhmXU7T2puQ3gZFECGEkF4NJmRul0MjAmgwGTvpxSQWNRJdaYwAkJqkvVgiJuBas+NK17QqTEoxIUZvp46aRWK9DZVmVAMguoDNYnKJOidNvXOI1NU3iV/rj7R5jU5LkW5XkJcnuTk7XivU0uKRquoas+lnKAqj9tTBoDqkYeLbp6ig2yJCmPhvq0efGURQzCJ8RM1KClxmulm8NDikQIZEYrwUyBafWbSP6ElHwNHMMFpVVCCyh22apxqKMKH3ToT4MSN/Zt8cpILh2oIAAvjsB/RxS0l+pmyp9sjWWl9E+9Xt4sM8VjTnhTtc2Gxbr2F8/lvrvCquyoqypCgP6XZmSl5lDbZm1okZmWYqmmU1nqGRLLMxK3paYd84cmuIVCaFDsY6F4mIRuD/WDcD28a/Q7VW24/c7A+kY4Lrz0DkKp31QDsK0+F6FIogQgghvRrtrZIP1zSPWdgeqgVRO2TcxQ8autxyv+oqkGaH/SA1KTZzy3SnMyeMzg7qeDDx3lTlkRaPOTu1JsQ4bkSbIHW034rhEyPgkUAAAsUhXjiAQQz5fNLUUi3u7FwpK84WVycsijFG9Q2NUlNbH06BQ0oc0sIQYYIYgsiC3TSspdMzMqSpBVEJM1UMdSAQBD9HHMEYoKLao8IGok9rX4IQRgHxtnpkQGnbtDakrEGEtveZagqkP6hiItp3LT557gyprneID1GwGGFrRRIhDKx+QBgfa994DZG/WPA5DCrPkX59smRTVYvUN5kGCHgDPmIVsLg+YqIopsObKYwbPX4pyHHqOtZ6tY3pGq2y1o38vM0+R2ZfJDRixe621nqlNaLGR6M8ofeqA59hHivGFJEjqz7ISnOLrA0ybcANCYaChRgD1F8R0huhCCKEENLrwUQc6UiVtT7xqaHA9ihRcQFS0Xbcmro9sjIdGoFCQX2WY3tKHMDkEpNwHJflKtYeSHVCBARNbzGBtXrmmE1YzaiQMyMgEvSFutGYrmE4S0z2tWVnwC+Njc267oDSnKSL1OvrG1UEQUypi53DEW7C6vUapoW1Ay5pQalv8kiDx6EuZeHMKERsstLNtK0dSInChLqqHjUuho6TNYZwy0b6HaI5SHsbUBJtk22lcSVMgdzes7YNECM6hgbqeRz6WcJ4AmIM0a9ASChYN+q37y86kmPuq/39SKi+aUjfXBVtSHOzegltrva0+z4rQuPXOrZoEHFqwXbiOLLhc4KwynGbNUGIpKGuaMOWJmn2BiQd5xM6MdQzAY04OhGNMiTQYh4fhL2VEmcFFvBvfJ80RTN04PjMclycSu4oDAT1LLxyCSGEpASY7GFCDlGCuhqk7ECEdJeRgDnJzNRohYoYRDG0ON9MkcJdcizvKEoCBzBMKpGyh3oiTEKtAAcmopgHB1pbJS0IoZQuXj96EKE3kSlY0JxVHerEK36PXyq2eKS0OFdyshPXw/j9fmlsbpE0FT9Wubt5XtocNBjU6A/66WAXNQ0+CaAPUuZ2G3KICaSyVWzzyMBSd6fToiBE4NwXWVcVOb5wX8PnifGMrDvRFMhMMwUypr2QgogGjDKwTiQYr5qGVqluNFPfzDE20ylLCzL1HDZsadYIIgQmIny4fjQip2ljpmV5OL0MgjFoSJG7Y5GtTVxDKXNWyh/678TDapIabzzzsjOlsaVVo0Q4Rr0OxNDoDa6DPnkuyYwYFER5SguztDFrwAhKWug8zHM3P3aMBdLakDpoGilgDEMiKCSAkOaHiCTegPXxWp+CLKbCkV4LRRAhhJCUAZNC9HzZWUBkDSjJUpc4GBcEtZbHrBmBAOrIktuaRKc5zAmv9obxwZnMrAmy1tECdG1o6RCfz2zYqdGOIOyQg9udv9LStCdORWWNpKU3S3Z2jpQWuOKm5KHpKoQOmociFQ7/toQIflqpcYgSIYrhN+AWFy1WcByYHCPKALGSjAV4JGZDT9OVLR4YS0QssP/IGQuOoSgvU5qtFMgM83jNFEikweG8HLKxskXHFceFuiw4reGzMtPIHGZ6V1C0WWqr36siqLzIJZtrvDqkqK3JzEzXY7CEkRXZw5h5IM7SHZKf3bl6M5xXbjZS8HxipLetY4OgsdzgIrEijC5nRvg8W4MBSdNrxyEFOYj8tBVkEDYYI0cajCdMkY5IElL8cJ6w3XYF0/X6w7gh5RH7Qo8iCE4zOoQaNxyrIa4MhzZ07eznTWJgKKhH4dVLCCGE/AwgdLJdWRoNsppeYkKaTJ2MGe1wqCUz/iIjJU7S0jU6YhaemxEBRIBcesc/9D4tyoc5gpUuZRbpozTFMBwaNUrze6XBkyZba1s1VbCsKNo4wbJExgQaKVvYp1X/gkWa5mXA7tkvAQPRITPFKhaz/gp9mPydnhRjrEwDhvjNNs2IiRlFiSXXnSF9i11a/I9IDYC1uAqriAaqiAqiLqY21EsI+4mMKiHag3RGCLmNlU0qqpBWCHHkwaTfG1QhgAiQmaJnCkMrDQ61MzB1KMlPU9GQLDAuQBQNx47jsYSt1jshupRn9joKj0XQkMpajzQ2t4ac4MzPCGNTlOtSURLv88G6OLeo+iOPX4VQKONSz9UfDGoNGI4DxwPR2K+PmYaI40IdEo4N44caLUaASG+HIogQQgj5mViucDtCQU6GRlEsAeVymmlgWqgeSusbVJYjtXVIHUPkB5N83JrfbmWNiSyEiqEFHxA2DnFIQDLFLy2BDNlU5dUJcFHe9igBiufxRkxwYX6AaJPP5zcFRGirWj6C3aRnxXXdw0QaURp1a2tsVWECR7NkUSe9TDSzNRuVtq2rMnR8IELij51TRSjS4jBeqJWB0QK2FSmcsC1NkwwYcSOFVj+muqagpoeZDmnmaxAIOMfSQliRw5obNgMh5z6k26WlSUNzq4on1C4la0yB9fr3ccuWGjOaZaXnQWihhq1PQbRorarzSF2jT8WY1UPKigwhVVFNKuKk5VnCNvLjw/vNXkZm5NJc0fxhmjeYIjNyfNB7iHQtajLR5X2CGAlKFl7RhBBCSA+CSTkm8TBIsHoCYR6DiTd0SlmhS9xZGWIYuVJdUy+OVr8EYWQQkish82YJGOZdfrPvi/ka4kMQEBAsMI1Aw1ZLaMD0AHbYSOtCv6HWIJptIkUM/w9FVgSvO0Nb2p6ShqiXRl9QkxRaExN5uNzheBHlSAZMwGElDUMCKyICAYKULUzS8bw4L3FdFSIchblmfdSPW1p1zGIjR1bjUBVtaoEdvQ1M/CGQMP/PDBX/6/FZ0Rl/UKrqvFqrhUkmomdoptrsNR3tILpgGFFT75O+oehJsiJwcHm2RmrMOhtYg7etY8Nx1zdbTVO3L7Pc4VBbVdvo0/S52LGyIjuIYFmlQtgO9oHtqqRWMw5zP4hywXwhUgSRboLpcD0Kr3BCCCGkB8FEu38fl0YVYJIAwWL1j0HkJi9Ub5LtzlLRUFXTKE0tXvMufijq06pNLUPSJ2oObKaboeYIE2VEVhBpsiIO+fm5UltXLy1en/j98J3bHgcy34uJgkf8gQwxHFnhiToEj7lvM5UK28LxIpiB/jb4N6zKk0FT6NKyNKXMSgPUmhl3ert9guIBIYPji5c6Z56vmfuF9WIlmgqgUGZhbFNdU1SE7thrHyXTOMKyl9axUPHqULMCy6EtWcy+Q4mnY4hwQRRr5CkOiA5B5OA88O/Y7SO1zUrjQwTQilzi1JDmpimJWgMlUpjvkj7tpNYRkkpQBBFCCCE9DCbRMFIoznOGRRAms7ETUURv+pc79a5/TW2TBPwerQEKW1YjOyuis0sw9GfesnuOTZWBgxwm9Jsq68QhXn2Hrp2WIWkOs/+PGhcEW82eSIZbvBH2zKaVMgwT0GAVLnOG2lo3tPiljzP5/jHo05OblR6uq0KkIjY9Ljkiu9pEA5MDbM90UYtG669UKLV13LbSyazNWyYOpnmEKap8rQHJcmXouJjHL13Kdpvq+OOhr4dMJtpLG4TYqWtqldaAaaxhXQswUijOc+l4m2mE3eOmSNrCQFDPQhFECCGE7CJAWLgyE0/8MQkvzs+S/JxM2VpVI16vV/sLoYjf9DNGilpQBVAwFPPA5FhrSeJMcN1ZLpF0N/LPVEVZ4sdC/53mkHQJaF3MT1WmjTfEFraJiI8V+VB77TQzOrIz66oAJvaIQEGAxRMhmPRbwgpREbXlDkeQtrvxxWIKCyvpcHsfJwtN3ws3GIV5QtdHUEwLcfNY420f0Sd8tu1FoHC85UVZGnGqa/Jpc1dYa+fmwTUvM8ooghC7QBFECCGE9EIw4S0rKZTaugZpbvFobY/ZOhQSyCl+ydLcOMstDXU6iLDEAzXvzWmI7kQLIGA6rZlVQVgvN9spHm9bI4PI9XsikwrHgnNs8vijbLMlQuhgOWpdahpbNepkRX9K8hFda5WWUD+g9o7fin7BUS4KbTCLWhpXp1LhkgXiUO3TvX79GTnuiD7hmPLzMxM6tuE9iPrgESvkSA/BUFCPQhFECCGE9FJgaVxcVCB5eTmytbpZqupbJRDQpkO6PIjmmEh7c6VLeXH76WmIELQ0hWyxY+bGmvqmaWBp4dQ1tfSOg2W73VF/pO4ix50hZUXo2+RVkWOdiil2zAgQ0vUg4EoKnGr1bEWyIDQ2VLaYdUUOM6Jl9ccBqAVyOtLEC1c1tZe2muOGDBWc6Wri0B1AsJQVuaViW7OmtaEGSzPgsG/YhWc7pTA3+X1TABFCEUQIIYT0arTXkNMpA8oLJDunVbbWeKXJY0Y5XBmIjpj9dGIdxyIpyM2U2rp0adWmqekhcwBzco9/ZTpRo5QuTqdT8p1pWlsCNzc0zbTEEaItiMBAAOV2wia7q0G0x7TNNnvhoE8QUuRaA6aTHpp94nmjJ02Kcw0pdZlW1OjLg9P+X5VpWe0P3VBHo1kkziHlzBsIqEpEeyY/5If5VEXkwNLsTvUJ6iyIAA0oydZ0NtiAW81Mkc4GNzf27el94Fva5RbZ7dTEkbZQBBFCCCEpQlGuUx9IzYKAgVNarNtZuxGlwhypqW3QhqLWvAzpczqvNwxxu7PUUhv0K86SzdVe8bQGIkwZTEe3vsVZOzwhx8QeUSb03YFowf5z3U7JcVvCLDnMnkiZKsx+3NKs54N6ocgICERNdYNfTR0gIgCiKbAsR08hRJLUXtqZJhXbPNpMFEmBuo307UYTiCINKstWkZIIRJhgow1ga51IlLYHok2lhW4pKTA/Iy3XYlSHkB2CIogQQghJMeDw1dmYRH5ervYfam5uMXvh6OTadIuDACrIz43pb+NWsWBO7NPUvhkRmI4m5Wb6mGmDHSmW8Doah6JfkhE0HfIQuYFtOGy0Ia46azrQ1GLWB6Eha+xxQbzAKQ1NXpHiZy2H8UReNh7merDuhukBxJjZwDagNVI4Fog0iE2YUsBfIh4QYtvqzPOCzTU0oynuMqS0wLVDbmyWMx3p5bAmqEehCCKEEEKIipKiwnztRwSjhUAgoIIAz2HNHSsiIGAgTvKSnEog8lLT0GqKgVCdEd6P6AtqdKobfJpmB5ez9IgeQ1i3vslsFAqHs86A+h3r3NqzzUZan2koER8YLeBYUYcDvWI5qVnjgRodiMHC7RoxKrK1ubpF09fU9jvU5wdiCjbnGJP+fbKZymZTzF5TXStaunp7qQxFECGEEELCE3sIHjy6EqSCbaryaMNWTPitPjXb6lulsSUg/YpdKnQgVmKbnVoRFwiJ4rxgp9LItGdSgjkhFqHeJ5EE0TllrGV4m3WMdgUUapNgvhAZxYK1OJ5DPKHBqpWORwjZedAYnhBCCCHdCqI8zbDVzjQbcmqtUYZD3JkO7VmzucajFtbtWXjjdURPOtt/yO1C3yPTJjyecMHrqDdKlMKHY0SqXjyhY97Jx37i31OGAMI68dL4IAbx3sbm1k6dE0khjG56kKSgCCKEEEJIt4GUL6TAOeOYNKizXYZDPL6ud8kCMEPIdjlUPEUKIQgTvAZxUpiTOAqTn2P2V/L5o4UQ/g0Bh8gU0vriAeGWyNABFttYhxCy82E6HCGEEEK6DUR4AkGRzHaiPNrSCEYMIUGQGSdqgte1piaiVigZILLgZFdR7ZFmT1C8ob5JVkpaWZFLTR4SAde3ssIsqaz1hB3jAEQVBFB5kStcJxQL9pFI3CHCtCMucSRF6IaaIBojJA9FECGEEEK6DWiGtA7mZpa9Nup+IC4i08fwHCKoON+5Q4IB7xlY6lbrbaTkQXhATMGdLdntFeQ6ta6nvrk13Ci2MAs9epwJrbHz3E41e0A0DG50keC8INLaiyIRQrqXXnP74ZZbbpFDDjlEsrOzpbCwMIFlZPRj6dKlUeusWrVKxowZIy6XS4YNGyZLlizZSWdACCGE2A+IB9hn+xAOigPSzOAIB+e3ghynNjeFgQLS1RB5QSQpL9spJQU7btaAlDSInrJCl1pto4dQZwUVIkY4xqH9cvRRVpTVYW8gvKcg26nn4Gs1BRgeSKPDcxgioNEqsbc7XFc/SIqJIJ/PJ6effrpMmzYt4XqPPPKIVFRUhB+nnHJKeNn69evlpJNOkqOPPlrWrl0rV1xxhfzhD3+Q1157bSecASGEEGI/cEOyOC9ThQiEjTVJ05oav/m8KM+MyvTrkyUDSt1SmOsUdyaamGbIgJIs6V/S+R5Bu8q5QyxBfJl9iYL6SE8XFXUQVWx2SkjP0GtuP9x00036s6PIDaJEffv2jbts8eLFMnToULnrrrv0+YgRI+Sdd96Ru+++W44//vhuOGpCCCGEaLNTwyVb63zal0cxRDIy0qSkIFNFEkgLRWzwSCkRmO/SfkiWu12sZTaxJ+wT1LP0mkhQskyfPl1KSkpk7Nix8vDDD0ddDKtXr5YJEyZErQ/xg9fbw+v1Sn19fdSDEEIIIZ0DqW5Dy7Olfx8zMoKoz5DybI2I2CEaAktspMfhQQFEFMxRu+NBkiJ1brWIyLx58+SYY47RuqHXX39dLr74YmlsbJTLLrtMl2/evFnKy8uj3oPnEDYtLS3idrvbbPO2224LR6EIIYQQsuOgESrEECGE2DoSNGfOnLhmBpGPdevWJb296667Tg499FAZPXq0zJ49W66++mqZP3/+zzrGuXPnSl1dXfixcePGn7U9QgghhBBCaIxg40jQjBkz5Lzzzku4zm677bbD2x83bpzcfPPNmtIGNzjUCm3ZsiVqHTzPz8+PGwUCeB8ehBBCCCGEkNSgR0VQaWmpProLOMAVFRWFRcz48ePllVdeiVpn+fLl+johhBBCCCE7Cxoj9Cy9piZow4YNUl1drT8DgYAKHIBeP7m5ufLiiy9qVOfggw+WrKwsFTe33nqrzJw5M7yNqVOnyv33369pchdccIGsWLFCnn76aXn55Zd78MwIIYQQQgghO5NeI4Kuv/56efTRR8PPUfcDVq5cKUcddZQ4nU5ZuHChXHnllaqCIY4WLFggU6ZMCb8H9tgQPFjn3nvvlYEDB8pDDz1Ee2xCCCGEELJT6Q4zNwaCkifNYNysU8BJrqCgQE0SUEtECCGEEEJ2LXbl+Zp1bH+65zPJcud16bY9LQ1y7RWjdsnz3tXoNZEgQgghhBBCUgYjaD66epvEns1SCSGEEEIIISQRjAQRQgghhBCyk2EgqGehCCKEEEIIIWQnY4T+6+ptkuRgOhwhhBBCCCHEVlAEEUIIIYQQsrMxInyyu+yxY4eycOFCGTJkiPbaHDdunHz44YeS6lAEEUIIIYQQYlOeeuopueqqq+SGG26QTz75REaNGqU9NCsrKyWVoQgihBBCCCFkJ2MEjW55dJYFCxbIlClT5Pzzz5eRI0fK4sWLJTs7Wx5++GFJZWiM0Ems3rJodEUIIYQQQnY9rHmaNW/bFfF4Grttm7HzVJfLpY9YfD6frFmzRubOnRt+zeFwyIQJE2T16tWSylAEdZKGhgb9+Ytf/KKnD4UQQgghhHQwbysoKJBdiczMTOnbt6/cdv2R3bL93NzcNvNUpLrdeOONbdatqqqSQCAg5eXlUa/j+bp16ySVoQjqJP3795eNGzdKXl6epKWlSW8GdwnwJcH55Ofn9/Th7HJwfDqGY5QYjk9iOD4dwzFKDMcnMXYeH0SAIIAwb9vVgPnA+vXrNQrTXeceO0eNFwWyOxRBnQQhwoEDB0oqgV+Mdvvl2Bk4Ph3DMUoMxycxHJ+O4RglhuOTGLuOz64WAYoVQnj0NCUlJZKeni5btmyJeh3PEa1KZWiMQAghhBBCiA3JzMyUAw44QN58883wa8FgUJ+PHz9eUhlGggghhBBCCLEpV111lUyePFkOPPBAGTt2rNxzzz3S1NSkbnGpDEWQjUF+KArlmCcaH45Px3CMEsPxSQzHp2M4Ronh+CSG40OSYdKkSbJ161a5/vrrZfPmzbL//vvLq6++2sYsIdVIM3Zl70BCCCGEEEII6WJYE0QIIYQQQgixFRRBhBBCCCGEEFtBEUQIIYQQQgixFRRBhBBCCCGEEFtBEWRThgwZot2EIx+333571Dqff/65HH744drMCx2n77zzTrETCxcu1HHC+Y8bN04+/PBDsSM33nhjm2tlr732Ci/3eDwyffp06dOnj+Tm5spvf/vbNk3XUom3335bTj75ZO1CjrF4/vnno5bDawYOO/369RO32y0TJkyQb7/9Nmqd6upqOfvss7V5YWFhoVx44YXS2Ngodhmj8847r801dcIJJ9hijG677TY56KCDJC8vT8rKyuSUU06Rb775JmqdZL5TGzZskJNOOkmys7N1O7NmzRK/3y+pQDJjdNRRR7W5hqZOnWqLMVq0aJHst99+4Qao6OWybNmy8HK7Xz+EJAtFkI2ZN2+eVFRUhB+XXnppeFl9fb0cd9xxMnjwYFmzZo3Mnz9fJ8MPPvig2IGnnnpKffNhLfrJJ5/IqFGj5Pjjj5fKykqxI3vvvXfUtfLOO++El1155ZXy4osvyjPPPCNvvfWW/O9//5PTTjtNUhX0TsD1AJEcD9ws+Mtf/iKLFy+WDz74QHJycvTawcTEApP7r776SpYvXy4vvfSSioaLLrpI7DJGAKIn8pp68skno5an6hjhO4IJ6vvvv6/n1traqr9rMWbJfqcCgYBOYH0+n7z33nvy6KOPypIlS1R8pwLJjBGYMmVK1DUUeaMulcdo4MCBetMSf5s//vhjOeaYY2TixIn6fQF2v34ISRpYZBP7MXjwYOPuu+9ud/lf//pXo6ioyPB6veHXZs+ebQwfPtywA2PHjjWmT58efh4IBIz+/fsbt912m2E3brjhBmPUqFFxl9XW1hpOp9N45plnwq99/fXXsN03Vq9ebaQ6OM/nnnsu/DwYDBp9+/Y15s+fHzVGLpfLePLJJ/X5f/7zH33fRx99FF5n2bJlRlpamrFp0yYj1ccITJ482Zg4cWK777HTGFVWVuq5vvXWW0l/p1555RXD4XAYmzdvDq+zaNEiIz8/P+p3dqqOETjyyCONyy+/vN332G2M8Pf6oYce4vVDSCdgJMjG4E4SwuWjR4/WSE9kKHz16tVyxBFHSGZmZvg13M1GSkJNTY2kMrg7hjtsSGOycDgc+hzjYkeQzoXUpt12203v0COVAmCccJc2cqyQKjdo0CBbjtX69eu10VzkeBQUFGg6pTUe+In0LnTmtsD6uMYQObILq1at0jSc4cOHy7Rp02Tbtm3hZXYao7q6Ov1ZXFyc9HcKP/fdd9+oRob4/YwIvhUNSOUxsnjiiSekpKRE9tlnH5k7d640NzeHl9lljBDVWbp0qUbJkBbH64eQ5MnoxLokhbjssstkzJgx+kcF4XD8AUE6wYIFC3Q5JnJDhw6Neo/1CxPLioqKJFWpqqrSPyyxnZLxfN26dWI3MIFHqgQmq7hGbrrpJq0V+/LLL/VagFDGhDV2rLDMbljnHO/asZbhJyb/kWRkZOh30S5jhlQ4pOfgd8z3338v11xzjZx44ok6OUtPT7fNGAWDQbniiivk0EMP1Yk8SOY7hZ/xrjFrWSoRb4zAWWedpenauDmD+tXZs2frTbpnn33WFmP0xRdfqOhBmi3qfp577jkZOXKkrF27ltcPIUlCEZRCzJkzR+64446E63z99dd6Vwj1LhYosMQvzT/+8Y9akOpyuXbC0ZLeAiankdcKRBEmH08//bQW/hPSWc4444zwv3FHGtfV7rvvrtGhY489VuwC6l5wMyGyxo4kN0aR9WG4hmBEgmsHohrXUqqDm1IQPIiS/eMf/5DJkydr/Q8hJHmYDpdCzJgxQ0VOogfSmeKBiS3S4X744Qd93rdv3zZuMtZzLEtlkF6Bu9Hxzj/Vzz0ZcIdxzz33lO+++07HA+mDtbW1UevYdaysc0507eBnrMEGvntwQ7PjmAH8XsL3DteUXcbokksuUcOHlStXaqG7RTLfKbv8fm5vjNr7GwYir6FUHiPcuBw2bJgccMABevMSRiT33nsvrx9COgFFUApRWlqqUZ5Ej8gan0hwRwn59lYKCsLscGNCbrEFXHpw9ymVU+EAxgh/WN58882olAw8x7jYHdgU424r7rxinJxOZ9RYISUFNUN2HCukd2ESETkeyLNHHYs1HviJCQpy9y1WrFih15g1kbMbP/30k9YE4ZpK9TGCVwQm90hfwjnFph0n853CT6RDRQpF/H6GXTJSono7HY1Re3/DQOQ1lMpjFAu+G16vl9cPIZ2hMy4KJDV477331Blu7dq1xvfff288/vjjRmlpqXHuueeG14HDTHl5uXHOOecYX375pbF06VIjOzvbeOCBBww7gPOFo9eSJUvUqeqiiy4yCgsLo9x07MKMGTOMVatWGevXrzfeffddY8KECUZJSYk6NoGpU6cagwYNMlasWGF8/PHHxvjx4/WRqjQ0NBiffvqpPvArdMGCBfrvH3/8UZfffvvteq288MILxueff64uaEOHDjVaWlrC2zjhhBOM0aNHGx988IHxzjvvGHvssYdx5plnGnYYIyybOXOmOlXhmnrjjTeMMWPG6Bh4PJ6UH6Np06YZBQUF+p2qqKgIP5qbm8PrdPSd8vv9xj777GMcd9xx+nv81Vdf1d/hc+fONVKBjsbou+++M+bNm6djg2sI37XddtvNOOKII2wxRnPmzFGnPJw7fsfgOZwTX3/9dV1u9+uHkGShCLIha9asMcaNG6d/ZLKysowRI0YYt956a9QEBHz22WfGYYcdpmJgwIABOrmzE/fdd5/+IcnMzFTL7Pfff9+wI5MmTTL69eun44DrAM8xCbHA5P7iiy9Wi1YI5VNPPVUnLKnKypUrdWIf+4Dts2WTfd111+lNBHx3jj32WOObb76J2sa2bdt0Qp+bm6u2tOeff76KAzuMESaymHxh0gUrX9j1T5kypc0NhlQdo3jjgscjjzzSqe/UDz/8YJx44omG2+3WmxK4WdHa2mqkAh2N0YYNG1TwFBcX63ds2LBhxqxZs4y6ujpbjNEFF1yg3xv8Tsb3CL9jLAEE7H79EJIsafhfp0JHhBBCCCGEENKLYU0QIYQQQgghxFZQBBFCCCGEEEJsBUUQIYQQQgghxFZQBBFCCCGEEEJsBUUQIYQQQgghxFZQBBFCCCGEEEJsBUUQIYQQQgghxFZQBBFCCCGEEEJsBUUQIYSIyJAhQ+See+7psu2dd955csopp0hXsmrVKklLS5Pa2tou3S4hhBBiNyiCCCEpBcQHhAIemZmZMmzYMJk3b574/f6E7/voo4/koosu6rLjuPfee2XJkiXSE3z66ady+umnS3l5uWRlZckee+whU6ZMkf/+9789cjy9Xfg++OCDctRRR0l+fj5FKCGEpAgUQYSQlOOEE06QiooK+fbbb2XGjBly4403yvz58+Ou6/P59GdpaalkZ2d32TEUFBRIYWGh7GxeeuklOfjgg8Xr9coTTzwhX3/9tTz++ON6PNddd91OP55UoLm5Wa+pa665pqcPhRBCSBdBEUQISTlcLpf07dtXBg8eLNOmTZMJEybIv/71r6g0tVtuuUX69+8vw4cPjxsVwB3/hx56SE499VQVR4imWNuw+Oqrr+TXv/61Rgjy8vLk8MMPl++//z5qPxaIJFxyySX6gCApKSlRUWIYRnidxx57TA488EDdFo7/rLPOksrKyk5N1s8//3z51a9+pceK8x46dKiMGzdO/vznP8sDDzwQXvett96SsWPH6lj169dP5syZExUtw/FeeumlcsUVV0hRUZFGlf72t79JU1OT7gPHiCjbsmXL2qTrvfzyy7LffvtpFAqC7Msvv4w6zn/+85+y9957674x7nfddVfUcrx26623ygUXXKD7GTRokEZjItm4caP87ne/U6FZXFwsEydOlB9++CG83Bp/nDfOr0+fPjJ9+nRpbW0Nn9+PP/4oV155ZThy2B4YA4wPzoUQQkhqQBFECEl53G53OOID3nzzTfnmm29k+fLlGjlpj5tuukkn2p9//rkKi7PPPluqq6t12aZNm+SII47QifyKFStkzZo1OmlPlHb36KOPSkZGhnz44YeaLrdgwQIVWhaYoN98883y2WefyfPPP6+Tekzmk+W1116Tqqoqufrqq+MutyJTOHacz0EHHaT7WrRokfz973+XP/3pT22OF2INxwtBBEGJNLtDDjlEPvnkEznuuOPknHPOUfEVyaxZs1TYIMUQEbaTTz45LD4wThjTM844Q7744guN0kEMxqYO4v0QhEjtu/jii3Xf+MyscTr++ONVIP373/+Wd999V3JzczVaE/k5r1y5UkUpfuJcsA9rP88++6wMHDhQUyURNcSDEEKIjTAIISSFmDx5sjFx4kT9dzAYNJYvX264XC5j5syZ4eXl5eWG1+uNet/gwYONu+++O/wcvx6vvfba8PPGxkZ9bdmyZfp87ty5xtChQw2fz9fhcYAjjzzSGDFihB6TxezZs/W19vjoo490nw0NDfp85cqV+rympibu+nfccYcur66uTjhG11xzjTF8+PCoY1m4cKGRm5trBAKB8PEedthh4eV+v9/IyckxzjnnnPBrFRUVur/Vq1dHHd/SpUvD62zbts1wu93GU089pc/POuss45e//GXU8cyaNcsYOXJk1Gfx+9//Pvwcx1lWVmYsWrRInz/22GNtjh+fJ/bz2muvhccf28FxW5x++unGpEmT2v3MO6Kj8SeEENJ7YCSIEJJyILqDyADSsU488USZNGmSRhws9t13XzVN6AikdFnk5ORo2puVnrZ27VpNf3M6nUkfF9KpItOuxo8fr3VLgUAgHCVB1ATpX4hyHHnkkfr6hg0bktp+ZGpdIlAnhH1HHsuhhx4qjY2N8tNPP8U9//T0dE0pw9hZIEUOxKbsYdsWSFVDyiH2ae0b+4oEzyPHIXbfOE6kB1r7QfTqu+++0zHC54wH9uPxeMLpiAApdzhuC6TFdSa9kBBCSOqS0dMHQAghXc3RRx+tKV4QOqj7QQpaJBA0yRArcDAZDwaD4RS7rgS1NkjxwgOGBkgjg/jB88gUr0Tsueee+nPdunVRQmRHiXf+ka9ZIsoak64k0dhDrB1wwAE6TrFg3JLZBiGEEHvDSBAhJOWAyEHRPiIqsQKoq0CkAvUoVq1LMnzwwQdRz99//301XEC0AsJl27Ztcvvtt2uEaa+99up01AI1OqjhufPOO+Mut6ydR4wYIatXr46KHKGuBpEV1Mn8XHBeFjU1NWrNjX1a+8a+IsFzCLjIqE0ixowZo5GjsrIy/ZwjHzCdSBaI5MjoEyGEEPtAEUQIITsAXN7q6+u1wP/jjz/WSTnc3azi/XggsnPVVVfpOk8++aTcd999cvnll+syCDZMyvHa//3f/6m7G0wSOiv+YLQAd7bf/OY38sYbb6i5Ao4PZglTp07V9WA0AHc1mB1AfL3wwgtyww036LE5HD//zwLMBmA+AVc4GDtAmFlOebAsxzKcG8QRDAvuv/9+mTlzZtLbh0EFtglHOAjR9evXqzPdZZddFpXO1xFwoXv77bfVKAKGEu2xefNmTX9ECh6AoQOeWyYZhBBCeh8UQYQQsgOgPgaucEjNQu0O0rNgIZ2oRujcc8+VlpYWtaaGXTMEkNWgFWlccC575plnZOTIkRoRgr1zZ4EweO+99/Q4YLGNiNKZZ54pdXV1Yfe3AQMGyCuvvKKub6NGjVJxdOGFF8q1114rXQGOHeeGMYGAePHFF8M1WIjiPP3007J06VLZZ5995Prrr1fR1BkXPFiWQ7xAOJ522mkaXcLxoyYIdVvJgv1CJO6+++5RaXSxLF68WEaPHq0NZwFcAfE81jKdEEJI7yEN7gg9fRCEEJLqoC/N/vvvH9WLKNVANAb1WEiB64lGsYQQQkiyMBJECCGEEEIIsRUUQYQQQgghhBBbwXQ4QgghhBBCiK1gJIgQQgghhBBiKyiCCCGEEEIIIbaCIogQQgghhBBiKyiCCCGEEEIIIbaCIogQQgghhBBiKyiCCCGEEEIIIbaCIogQQgghhBBiKyiCCCGEEEIIIWIn/h/XwDcP6s+wOgAAAABJRU5ErkJggg==",
      "text/plain": [
       "<Figure size 1000x600 with 2 Axes>"
      ]
     },
     "metadata": {},
     "output_type": "display_data"
    }
   ],
   "source": [
    "# Plot PCA results\n",
    "plt.figure(figsize=(10, 6))\n",
    "plt.scatter(transformed[:, 0], transformed[:, 1], alpha=0.6, c=range(len(transformed)), cmap='coolwarm')\n",
    "plt.colorbar(label=\"Time Progression\")\n",
    "plt.xlabel(\"Principal Component 1\")\n",
    "plt.ylabel(\"Principal Component 2\")\n",
    "plt.title(\"PCA of Chopin's Nocturne Op. 48 No. 1 in C Minor\")\n",
    "plt.show()"
   ]
  },
  {
   "cell_type": "code",
   "execution_count": 9,
   "metadata": {},
   "outputs": [
    {
     "name": "stderr",
     "output_type": "stream",
     "text": [
      "/Users/kevinhan/opt/anaconda3/envs/musicGen/lib/python3.9/site-packages/sklearn/utils/deprecation.py:151: FutureWarning: 'force_all_finite' was renamed to 'ensure_all_finite' in 1.6 and will be removed in 1.8.\n",
      "  warnings.warn(\n"
     ]
    },
    {
     "data": {
      "image/png": "iVBORw0KGgoAAAANSUhEUgAAAzAAAAIjCAYAAADcPf6aAAAAOXRFWHRTb2Z0d2FyZQBNYXRwbG90bGliIHZlcnNpb24zLjkuNCwgaHR0cHM6Ly9tYXRwbG90bGliLm9yZy8ekN5oAAAACXBIWXMAAA9hAAAPYQGoP6dpAAEAAElEQVR4nOydB3gj5ZnH/1PUZbnX7b2whaX3XkLoJYGQUAKkEOAOkks4UikhcHApJCGQ5BJKAoHQQuhl6eyysMCyje3e6l5ldU255/1kyZIt27JXsi3v++MZvJoZzXwzmvL9v7dJpmmaYBiGYRiGYRiGyQPk0W4AwzAMwzAMwzBMprCAYRiGYRiGYRgmb2ABwzAMwzAMwzBM3sAChmEYhmEYhmGYvIEFDMMwDMMwDMMweQMLGIZhGIZhGIZh8gYWMAzDMAzDMAzD5A0sYBiGYRiGYRiGyRtYwDAMwzAMwzAMkzewgGGYDLn55pshSdKo7Jv2S/sfy3z00Uc44ogj4HK5RHtXrVqVle1OnToVZ5xxBkaDyy+/XOyfYZh965m7rz7HGSZfYAGzD74MWlpa0i5fsGABjjvuuMTn7du3i/Vp+vnPf572O1/96lfFcrfb3e9+DznkELHOfffdl3b5gw8+mNgPTXa7HbNnz8a1116LxsbGQY8r+buyLKOmpgannHIK3nrrLeQTL774Yt6+3KLRKL70pS+hra0Nv/71r/G3v/0NU6ZMGfA79Nv+13/9F+bOnQun0ymEz4EHHiiutY6ODuQ79FtmS/zQduj6vu666/oso+uclj355JPIBXV1deJYsiVIR5v3338f5557LiorK2Gz2cS5/da3voWdO3eOSnu+8Y1viN8vnUgPhUK44447MH/+fHGPTJgwQdxn69atG3S78euCpo8//jitOB/ouZ0NfD4ffvazn+ELX/gCSkpKRFvoeT/aeL1e3HLLLVi8eLE4Bw6HQ7z/brzxRnG9D0Ty++q9997rs9w0TUyaNKnf35RhmCxhMvsMP/vZz0z6yZubm9Mu32+//cxjjz028bm2tlasb7fbzfnz5/dZ3+fzmS6XSyynv+nYtGmT2MbUqVPNI488Mu06DzzwgFjn1ltvNf/2t7+Zf/7zn83LLrvMlGXZnDZtmun3+wc8LvruySefLL778MMPm7fccotZWVlpSpJkvvjii2a2iEajZjAYNHPFNddcI44lHbRf2v9Y5fPPPxdtp98uEz788EOzrKxMXDtXXXWVed9994npyiuvFNcS/Z5xpkyZYp5++unmaBCJRMxQKDTs+43ang1oO3R+bTabuWfPnpRlb775plj2xBNPmLngo48+Etun+zTf+e1vfyueCzNmzDBvu+028//+7//M733ve2ZhYaGY3n///RFtD51bVVXFfZDuGj/vvPPE8quvvlrcW/Rsq6ioMAsKCszt27cPuO34dUHTGWec0Wc5PWP7e25ni/g7ZPLkyeZxxx035OsoF8/crVu3iveKoijmRRddZP7+9783//SnP5nXXnutWVpaas6aNWvA78ffV/Sb0e/S33mne7X3bzrWn+MMk0+o2RJCzPjli1/8Ip5++ml89tlnYsQqzrPPPotIJCJG195444203/373/+OiooK/PKXv8QFF1wgrDr9jUqfdtppOOigg8S/r7rqKpSWluJXv/qV2M9XvvKVAdtIFpuvfe1ric80wrpo0SL85je/EdtNB41uWq1WYbXJBFVVxTQakFVqLNPU1CT+FhUVDbouWVfo91EUBZ9++qmwwCRz++23489//jPGAhaLBWOF/fbbDxs3bsSdd96J3/72t8h3hnr/ZcPycv311+Ooo47Cyy+/LCwaca6++moceeSR4hlF1o3i4uKct4fGXv7jP/4Dl156KZYuXdpn+Z49e8Rzl6yUd999d2L+0UcfjRNOOEEsu+GGGwbdz/7774/nn38en3zyCQ444ACMJNXV1aivr0dVVRVWrlyJgw8+eEjfz/YzV9M0nHfeecL6SxYquhZ6P3v+53/+J+P34hNPPCHuxeQ2Pvroo8KSnM7TYTSe43Sd0b1GViaGGU+wCxkzKIcffjimTZsmHszJPPLIIwnXgP6g71CngEzphYWFfbYxEPSSJmpra4fc5oULF6KsrCzx3bg7xWOPPYYf//jHwhWDOjDkSkDQi4heOvSQp++RGKIORCb+2CTS4t+lc3HRRRdh165dfdZbsWKFeOlR54jcpUhg3XPPPQl3jnvvvbePS9xAvtPU+Sdx5vF4hBvEiSeeiA8++CCtuwN13r773e+ivLxc7JsERHNzc0bnksQpdZroeyRQzj77bHz++eeJ5dT2Y489Vvyb3Ftof8muiL354x//KM4tidPe4oUg1x76jXpD7hrkjkidgOnTp+Phhx/us862bdtEG+h3oN/3sMMOwwsvvJCyTvxaePzxx/HDH/5QdK7o2M4666w+v1vvGJi4W+X//u//4k9/+hNmzJgh3JCoY0YxQIPx2muviU4TnUf6zebMmSPakAnUDurskrgbzM0l0+sjLiipI0zbp2OZOHGi2A91wOhcxTudX//61xPXZdwNiL5D56g39PsnXwMD3X9xVya6Js455xzxb7pOqeOu63rKdg3DEIMSJOboOqBrhdy/2tvbBz0ft912m2jDQw89lCJeCPod77rrLtHZpuszTrxtdF2deuqp4johF9Vbb71VdAz3BnKzXLt2reg0p6Orq0v8pWPsLQqITDuk5HZIz5xM3VP/8Ic/iPNL1wId6zXXXDNsl07aBt1fwyXdM5c+k3vxv/71L+H2Rfug9pIoHYynnnpKDMT96Ec/6iNeCLpX+vs9ekODaq2treKejkMDeuTKefHFF6f9Tu/nePz4tmzZIq41ei7Qe5LutUAg0Ed80TUcf+bQvUfPjnA4nDZm8JVXXhEDgnSdJF/TDDNeYAHDZPywps5H/KVNnZtXX3213wd1vMNOD2b6Lo200sgXiZ5M2bp1q/hLlpihQh0amnp/l14A1KGlztEvfvEL0S7qjH35y18WFgHyNyefdBrdpBfcYC9uetlRZ2/WrFmiQ04jvDSaeswxx6R8l15yNG/9+vX4z//8T2GROv7448XIKEGdsJNPPjnRsYlP/UGjxCQq6GX8gx/8AD/5yU+EWKNOI533dJ0YWpf80Wm0+bnnnhOdgMF4/fXXRceNLCz0siURtGzZMjFaTZ35eNvjnXAaUaZ2UwehP/7973+LlyoJ20yh64jWp3NE5446ZPTCT44FoFFVSiJAL+7vfOc74rehkUcSJs8880yfbdJyuhbI753aTb/RSSedhGAwOGh7SIjTqDgdO8Xs0Lmg65tigfqD2kodC+pwUAeYjoPaRuIyU+i8UkeGrDADken1QTEKtN7vfvc7ETdGgvrb3/42NmzYgN27d2PevHmircQ3v/nNxHVJ1/JwSHf/ESRU6Dqj+5XEIQliOj8kEpOh8/39739fXH/UVuro0TOFvjvQuafOIN2XdKw0GJOOCy+8UHQM4/dkHGobDdSQkCCRQ4MVdB/RNFxInNB1FxfQ6aCOKolJOg90v9Lv8eGHH4rfh46BBkoygTrlJFBpG2SFGQi6x0mwkHCh/Z5//vmi80vXxkDnd6ShwQy6x+kc0G9C9zm1lQTFQNCzh7jkkkv2ug0kFGhw7x//+Edi3ksvvYTOzs6Mf5s49P6ha4LeP/RveidRjE4y5JXw05/+VFjRKM6Q7hFaP92+yFJL7116XtJ9QlY4hhl3jLYPGzP2Y2Duvvtuc+3ateLf7777rlh27733mm63W8Sn9OdLTT7FkyZNMg3DEJ9fffVVsY1PP/00rU/x66+/Ltq2a9cu87HHHhP+yA6Hw9y9e/eAx0XfpdgJ+m5TU5O5YsUK88QTTxTzf/nLX6b4JU+fPt0MBAIpMQ7kU75gwYIUX+vnn39erP/Tn/60z/mLQz7o5Ed9++23p7RnzZo1wm89Pl/TNOFzTXEM7e3tKevGz81gMTA0n/Yf55xzzjGtVqvw545TV1cnfOOPOeaYPuf2pJNOStnXDTfcINre0dEx4Lndf//9xflpbW1NzPvss89EfNKll146rDiM4uJic/HixeZQ4z/eeeedxDz6ncnHnOIX4lx//fUp1yjR1dUlzj3FYOm6ntLWCRMmmF6vN7HuP//5TzH/nnvuScyjazs5jiV+T9C12dbWlpj/7LPPivnPPfdcv8fx61//esD7b7BzEPen//rXvy787+n37u/cZ3p90PVN33366af77DN+vQwUA0PtonPUG3qOJD9L+rv/CPp+PAYumSVLlpgHHnhg4jP9rrTeI488krLeyy+/nHZ+MqtWrRLr/Od//qc5EIsWLTJLSkr6tO26665LOS/0W9D5Hc5vSfzXf/2XuC7j8VX9xXnRs4zideKxLDTROamvrx90H8nXBd3ndN+dddZZKceW/Nyme4qO6ZRTTkncKwTFiNB2/vrXv5ojHUvV+5lL0Gdq55YtW1KeSTT/d7/73YDbo2uKYp32hvgzlY6Hzg3dU/Fr+ktf+pJ5/PHH9/ub9n6Ox4/viiuuSFnv3HPPFc+Y3tcvxQv2vo5o/htvvNHneUn3BcOMZ9gCw2QEmejJ5Sk+2kQj0ORK1NsVIw6NEpOLDo1qxl0AyCWM4mH6s8LQ6De5jlAGFxpVItcNGjknd5PB+Mtf/iK+S9s/9NBDEy5TZBFJ5rLLLktxvSC/bLIu0Ghesn/y6aefLtybersfJUNWGnJpoREzskjFJxpRJYvMm2++mXDlodFvakvvGJHhpAilEWGyfpG7DblSJbuWkEWMRifjrnFxaPQ8eV80Ek3b2bFjR7/7IXcayjxFlo5kN0G6Dmhkj7KmDQdqW0FBwZC+Q1mYqM1x6Lcm9yty7YlD7SEXs2TXELqG6NjJQkLWr2TIcpbcDrLw0DnM5Ljouk6Ok4i3Lbk9vYn/9hTTRdfNcCEXrIGsMEO5PsilhuLayKWwN7lIX9v7/kuGLAvJ0DlNPp/k5knuNXTtJd9vZBGh3zl+vw3kjjXYdUfLe987RLK1Mu7CRO5CZKEcKps2bRKj4mTBI4vPQNA1RqPn//3f/y1cpsg6RdcyuUmS1SFT6LzR84csEPQ8SgcdCx0TrZccl0QWabLiDPQsHGnoXUEWquRnErVxoPtvuM+egaBnP1lsyWpH1xj9HcgroT/SXftkTYpfi/FnEr3Tkvne974n/vb+bchCR1ZJhhnPsIBhMu600IOZOhHkzkNuRAM9qKkDRTEW1KGk9WmiTjy5TZEISteBoxgQcuOhjgh1NuN+55lAYoq+Sy9hcpGhjg25QPQOEO7tPhLvwFNnuDckYAbq4G/evFm41JFYoQ518kQxIvHA9rgrHPlrZwM6r+QSk67N5PJD57Z3LMfkyZNTPsc73wPFDgx0bmg/dI79fv+Q208djXiHMlN6tz9+DMntp/b219b48mTod+t97c+cOTPhGjeU9mRyPkn0kOsTuYKQOxKJ9H/+859DFjMkSsgFhtyrSGTuzfVB12a2rstM6M99iwYP6L4Z6Pel+43cc2iQovf9Rq5w8fstHfFO62DXHS3v3cGlZ0iyEIwnDSEyuVZ6Qy6k5OpILk8DQcdKHVlyUyJXIXrGUYeVRCeJ0AceeGDI+yUR3V8sTH/3O7n50fEP9CwcaTJ5HmTr2TMQdO2RmKIBPRrQosGDobjGZvo8oXNP1yE9n5KhwTL6TXv/Nv3dZwwznuAsZPsQcQtDfz7+1OkZKEsK+dTedNNNYkSOfNXJL7o/4lYWGqFKx9tvvy3ETDIkduJZyIYK+YrTi2QwspmJhTqC1Oklv2eKn+lNrmssDIV07SP2NhB5OJAwJMsOjfbGYyDyqf3DbQ9de++8844Q6DRiSkHHZKUkyyQJ/v622V8sDMWiUMYksrSMtQEP6silO57+7r9Mjp3ut4EsuL0FUDLU8aNMUatXr+53HYpNotiB4T6DMk2IQb87dXaTxQ9Z1Oi5TPPI2kkdbRIqFNdFcVLJUOwDLScrM8WzDdUKQwKmPytMvjDc5wE9e+jYScCTpT8b0EAevRMbGhpE0oxMMjEO93gytYpyxjFmX4AtMPsQ8cKC9JJOJ17ooT5Q8UEaJaIRZMooRC4M/aW3pFF5cpOhEWey2PSeyJVlKMH8o3VOaN5A54NcGOgFQ6NdJJ56T5QBK74eQRmHBiLTlxN11Mh1L12bKfiaRuqy8XIe6NzQfihbG2VlGipnnnmm6KxRBy2bUHv7a2t8eTI0op8M/ZZkKcxW8cl00G9D2cAo4QNZGSmRAHVqB3J/SgddU5QpjwKse1thhnJ90Hb25rqkkeJ0iS5yMVpPbSW3GnoGpbvfklO894auUxowIQHZX9vIGkYipnfxQRJOvV2TyA2MGOq1Ei+WSQkf6LkRnygDG10H9O+//vWvYp14Ed/emdjoOqV5JHqGStyNtXeA+ED3Ow00kPV8sMK0+QA9e+KZI7MFuV/SPUUZ/objPpYJdO7pOuz9zKJrhO6/8fDbMMxQYQGzD0EdJxrxvu+++/q4rZA7Cr0Q+6uZEocyLlH2nXQVweNQ3AqJGMpmQ+b03hN1EKjz2jv942hAo600qnv//fentIesKuQGRrEw/UGdEBo5o85A75Ey+hzPiENZY6hjQulfe3f2kr8XFwODZT6jfZL1i0Ri8iguvczIlYFiQGiEdm8hoUn+95R2NrlN1OEliwGlhB4O5O9N2yZ3mHhHMBlyBaLrbKhQeyhL0/LlyxPz6Dqka5s6mhRHkwylYU52J6H0pyQGBrsHhktbW1ufefHsQMO5FygWhjJDURam4V4f5MZEmcrSZWmLX5sDXZckKqjjRp3cOBQHkC6N+N5C1lzquFMms97Qs2uw+4bOFx0TxXT1tkJTB52ytdF1SZnOevP73/8+8W/aBn2mGkH0TI1D7nhxd9H+IGsbneveE4lOehbRv+Od7LibGmV/TIbiWOi6XrJkCYZK3ApD1wZZQZMhEUjvB6prkvxcovhCcmdLfhaSEIsPDOQT9P6hFPs0cJD8nIhDz4OBMiimgyzt9E4ly1b8t8s28WctvUOSoYEQYqD3FMOMV9iFbB+COuqUhpFe5JQGlVwTaKSW4lkoLoU6PYM9gMl9IV7zoz/IukIuZuTnnQ7aL9WyIDcaEgGjCXVCyA2H0rHScZGbHHX0KMiWOr0DFYqjzht1tMmtjjqK5MpD/vPUGaKOCAWPU7pYGp2jFxydW+qw0r6oo0QdAEp3S2l/CQpGJiilL8X+UEe0v3SctN94TRFKQEDWMBqNp45w7w7t3kCBxtShJz/8K6+8UnT8KOUudYQyrSuRbtSezg+9lOl8kCUhfuyU5pWuRdrfUKFAZ/outZfOIbnikPii34MEc+94KFpO549+D/rNqXNArkbkDpILKB0xWQCos0EjpiTUqOYGuT+mq0mRqRWGjnG41welJCbhRhbVK664QvwOJLSok0yinqwatB8atafPdH2ToKFEGSTKKZ6Hvk9phklgUAeeRreTA6yzBd2fJC4oHoQ63/S8ovuXRqXJskv37EDxB/TMoyB4CoSmoG8SMvH7kJ5HNKhDwdK9i1iSWy25fVECAjpuGtygZxelQE52W4uLmYHiYsiKnS5+g0QFxUUluwPS84KSp9B1Q1YjsuiShZDEE7Wb7sfhQLEwlIaXhGuyBZWOhZ5lNCBDvyc9p8kaQ9co1QJKLhRMCTDIDTgTF05qL4nLeO2ieEpoggbC6FkyUtD1Qu57JNboeqBrlix6NJ+exSTw6ffPtBZMHLo2cgndh7QPGoyhc0n3Ag3W0L1P10xvd2yG2ScY7TRozMjz97//3TzssMNECk1KRTt37lzzlltuSaT0TJdGeSCS03E2NjaKFMKXXHJJv+tTykmn0ylSRfZOSzkc6LuUgnggBkvz+/jjj4sUm3Q+KI3qV7/61T7pm9Ol9CSeeuop86ijjhLngCY6n9SejRs3pqz33nvvmSeffLJIu0nrUcrW5LSflG6Z0rWWl5ebkiSl7Kt3+k3ik08+MU899VSRzprOJ6XvXLZsWco6/Z3b+Pmgv4NB6a2PPPJIkdLa4/GYZ555prl+/fq028skjXJyWl9K5zx79myRFpiOgVLEUvrpzs7OxHr9pZjtnaqXoLTBF1xwgVlUVCS2ecghh4iU2Ona+o9//MO86aabRJpoOjbax44dO1LW7S+Ncrp7It1vlMzSpUvNs88+26ypqRFpYOnvV77yFXPTpk2Dnqv+zsHmzZtFOux05z6T64OgFNmU8pzSSlO7Jk6cKI67paUlJU30/Pnzxb3dOxUupSqn79K9Q9fJypUr+02jnO766C8Ne3/325/+9CdxndBvRvfSwoULzR/84AeJtNKDQem46XcoKyszLRaLOXnyZPMb3/iGSIveX9vouqL0wnQeKysrRduSUw3Hf6Pka2Uo9Pf7Uqru+D1C55fafNFFF5nbtm0bdJsDnfP4uU133ik1MD3D6NzQsV599dV90r/Tb5tp9yGe1jfdRPfTcNIop3ve95fSOx10PJRCnK4d+k3pWUGp9Ol5MFiK6kzfV0NJo9w7HXd8H8nnJxqNivc0pd+m34ZKFFB7e7+3+7uWGGa8IdH/RltEMUw+QMUAafR3OL7nzNiBYrhoxJJG7YeTMYjZdyArDVmYKMsZwzAMM3bgGBiGyRCKj6DAdYZhGIZhGGb04BgYhhkEykBEMRs0Yt87QxHDMAzDMAwzsrAFhmEGgQKvKbCVAifjWV8YhmEYhmGY0YFjYBiGYRiGYRiGyRvYAsMwDMMwDMMwTN7AAoZhGIZhGIZhmLyBg/h7QcXMqOAWFWyTJGm0m8MwDMMwDMP0giIgurq6UFNT06dQ8WgTCoUQiURysm2r1SoK7GYCFdGmKV5gl4rjUkFzKvhMHHfccaIobTJUMJgKF8fZuXMnrr76arz55ptwu92iqCqVlKACyaMJC5hekHiZNGnSaDeDYRiGYRiGGYRdu3Zh4sSJGEviZWJRKVrDgZxsv6qqCrW1tRmJGDovd955J2bNmiUE30MPPYSzzz4bn376qRAzxDe+8Q3ceuutie84nc7Ev3Vdx+mnny72uWzZMlFO4tJLL4XFYsEvfvELjCYcxN+Lzs5OFBUViRvC4/GMdnMYhmEYhmGYXni9XjHg3NHRgcLCQoyldlF7njvlq3Cp1qxu269FcOarj4i+6nD7qCUlJbj77rtx5ZVXCgvM/vvvj9/85jdp133ppZdE+Qga3K+srBTzyDpz4403orm5WViDRgu2wPQi7jZGFwYLGIZhGIZhmLHLWHX3d9uscFuy28GXoj0iKRmbzSamgSBrCtWz8/v9OPzwwxPzH3nkEfz9738XVpYzzzwTP/nJTxJWmOXLl2PhwoUJ8UKceuqpwqVs3bp1WLJkCUYLFjAMwzAMwzAMk0UkRRJTVrdpxLY3qVeow89+9jPcfPPNab+zZs0aIVjItY1iWKgw9/z588Wyiy++GFOmTBFxRKtXrxaWlY0bN+Lpp58WyxsaGlLECxH/TMtGExYwDMMwDMMwDJMn7OoV5jCQ9WXOnDlYtWqVcDt78sknRRA+Be6TiPnmN7+ZWI8sLdXV1TjxxBOxdetWzJgxA2MZFjAMwzAMwzAMk0UkVRJTVrdpDj3MwWq1YubMmeLfBx54ID766CPcc889+OMf/9hn3UMPPVT83bJlixAw5Fb24YcfpqzT2Ngo/tKy0WRs5Z1jGIZhGIZhGCZn5ULC4XDaZWSpIcgSQ5DrGbmgNTU1JdZ57bXXhHiKu6GNFmyBYRiGYRiGYZgsIsmSmLK9zaFw0003iZovkydPFjVzHn30Ubz11lt45ZVXhJsYff7iF7+I0tJSEQNzww034JhjjsGiRYvE90855RQhVC655BLcddddIu7lxz/+Ma655ppBkwbkGhYwDMMwDMMwDDPOaGpqEnVbqH4LpXYmYULi5eSTTxZxNK+//rpIoUyZySgxwPnnny8EShxFUfD888+LrGNkjXG5XCKGJrluzGjBAoZhGIZhGIZhsp2FTM1NFrJM+ctf/tLvMhIsFMw/GJSl7MUXX8RYg2NgGIZhGIZhGIbJG9gCwzAMwzAMwzBZRFJiU7a3ycRgAcMwDMMwDMMwY72QZZa3l8/kjQvZHXfcgYMPPhgFBQWoqKjAOeecI6qFJkNVRikzAmVToGqjFIwUz1fNMAzDMAzDMEz+kzcChgKNSJx88MEHIgd1NBoV6d0oc0IcSv/23HPP4YknnhDr19XV4bzzzhvVdjMMwzAMwzD7pgUm2xOTZy5kL7/8csrnBx98UFhiPv74Y5GzurOzU2RboJzWJ5xwgljngQcewLx584ToOeyww0ap5QzDMOMfQ9dhmgZkRYUk8UuWYRiGyR15I2B6Q4KFKCkpEX9JyJBV5qSTTkqsM3fuXFG8Z/ny5f0KGKpGmlyR1Ov15rztDMMw4wVfSyP8LfUwTT0xT7E6UDxpJlSrdVTbxjAMM1pI8tALT2ayTSZGXp4KwzBw/fXX48gjj8SCBQvEPKoOarVaUVRUlLJuZWWlWDZQbA0V94lPlBebYRiGGZzWHVvga96dIl4IPRJEy9Y1iIZDo9Y2hmEYZvySlwKGYmHWrl2Lxx57bK+3ddNNNwlrTnyiyqQMwzDMwPi8HYgGYpbw/mjfsWnE2sMwDDP2LDDZn5g8dSG79tpr8fzzz+Odd97BxIkTE/OrqqoQiUTQ0dGRYoWhLGS0rD9sNpuYGIZhmMwwTRP+PVsHXc/Qo4hGwrBY+RnLMAzDZA85n16YJF6eeeYZvPHGG5g2bVrK8gMPPBAWiwVLly5NzKM0yzt37sThhx8+Ci1mGIYZnzRt2wAzw3UjPo4rZBhm34OSmVAMTFYnTpCSfxYYchujDGPPPvusqAUTj2uhuBWHwyH+Xnnllfjud78rAvs9Hg+uu+46IV44AxnDMEz2YhARCWS8vsQ+DwzD7IPERUe2t8nkmYC57777xN/jjjsuZT6lSr788svFv3/9619DlmVRwJIyi5166qn4wx/+MCrtZRiGGY94W5uHtL7NU5iztjAMwzD7Jmo+uZANht1ux7333ismhmEYJvuEW+vEXxoHHOypTOsoSt68ZhiGYbIGW2ByC9v2GYZhmIzQIiHANDJeX3EV5LQ9DMMwzL4JD40xDMMwGdG6bX3K5/hYYG9LTHx+UeXkEWkXwzDMmAziz3LQPQfx98AChmEYhhmUxo2ryZc37bL+XqmqzZ7TNjEMwzD7JixgGIZhmAFpr98OGNEhfad8zpKctYdhGGask4vCk5zUsQc+FQzDMEy/RKNRRDpah/Sd0lmLRUZIhmEYhskFbIFhGIZh+qVzz7YhrV84cQZUlV8tDMPs23AWstzCbxmGYRimX/Sgb0jr29xc94VhGAayDCnblmi2bCfgM8EwDMNkBWf5BM6SwzAMw+QctsAwDMMwA0eNZlj7paCsKufNYRiGyQtoLCfb4zk8PpSABQzDMAyTgq7rCHW0QIsEodjs0EOBQb9TMnPRiLSNYRiGYVjAMAzDMAl8rQ3wN9WlWl0GcQtzT5wFi8WS+8YxDMPkCbIsiSnb22RisIBhGIZhBC07NkP3d/ZdEC9g2VvISBJKpsyFxeEcmQYyDMMwDAsYhmEYhmj6/FOYpj7wSqYJe0kFFEWFraAYFrtjpJrHMAyTV3Aa5dzCAoZhGGYfp2nT6sHFSzemrsNdNTnnbWIYhmGY/mABwzAMsw8T9HfB1CIZr29o0Zy2h2EYZlxALrfZTivPaeoTsIBhGIbZh/Ht3jak9RXVmrO2MAzDjBck+i/LgoO2ycTgQpYMwzD7MKY+NIuKi2u9MAzDMKMMW2AYhmGYjJDtLqg2+2g3g2EYZswjKbEp29tkYrAFhmEYZh9GstgyXrd06pyctoVhGIZhMoEFDMMwzD5MQeXEjLyqi2cugizzK4NhGCYTKP4lFxMTg99GDMMw+zC2giJYXEUDihjHxNmwWjl4n2EYhhkbcAwMwzDMPgyN6BVNngF/awMCzfWAafQss7tQNm0uj/oxDMMMEUmSxZTtbTIxWMAwDMPs45BAcZdVw1VaBVPXYvMUlYULwzAMMyZhAcMwDMMIhI+1ahntZjAMw+Q/ZCzJtsGEDTAJWMAwDMMwDMMwTBbJRdA9W8V7YC3HMAzDMAzDMEzewBYYhmEYhmEYhskikiyJKdvbZGKwBYZhGIZhGIZhmLyBLTAMwzDjDF3X4WvYhXBXeywtsiTD5imBu7wGioWD9BmGYXINx8DkFhYwDMMw44hIKISObWtTZ5o6wh3NCHtbUTx1Lix252g1j2EYhmH2GnYhYxiGGSdEAoG+4iUZw0DHjk0wTXMkm8UwDLPPQTUn43Ew2ZtG+6jGDnwqGIZhxgGRcBgd29cPuh4Vqoz4OkekTQzDMAyTC9iFjGEYJs/RtCg6tq7JeP1gZxtsBUU5bRPDMMy+DIWrZDtkhUNgemABwzAMk+e0bxvc8pICe5AxDMPkFlmOTdneJiNgAcMwDJOnUCxL89bPAS06pO/ZPGx9YRiGYfIXFjAMwzB5iL+9Ff762mF91+4pznp7GIZhmB44jXJuYVsUwzBMnhEJBYYtXgomzeSXIMMwDJPXsAWGYRgmz+jcsWlY37OX1sDBwfsMwzAjE8SfZTMBjz31wAKGYRgmjzC0qEiFPFQclVNQUFqekzYxDMMwzEjCAoZhGCaPMIYhXlyVk+Fi8cIwDDPSlSyzv01GwGeCYRgmj5BkZWhfkBW4Sity1RyGYRiGGXFYwDAMw+QRsmoZ0ihc4eRZOW0PwzAM038hy2xPQ+G+++7DokWL4PF4xHT44YfjpZdeSiwPhUK45pprUFpaCrfbjfPPPx+NjY0p29i5cydOP/10OJ1OVFRU4Pvf/z40beieANmGBQzDMEweQRnECqonZ7y+zenOaXsYhmGYvkiynJNpKEycOBF33nknPv74Y6xcuRInnHACzj77bKxbt04sv+GGG/Dcc8/hiSeewNtvv426ujqcd955ie/rui7ESyQSwbJly/DQQw/hwQcfxE9/+lOMNpJJldCYBF6vF4WFhejs7BRqlWEYZqwRbGtCV8POQdezekpQNHH6iLSJYRhmJBmr/bV4u7b96mcocNizuu2uYAjTv3vLXh1zSUkJ7r77blxwwQUoLy/Ho48+Kv5NbNiwAfPmzcPy5ctx2GGHCWvNGWecIYRNZWWlWOf+++/HjTfeiObmZlitVowWbIFhGIbJM7RwCLLVNshaEgprpoxQixiGYZgUpBxN3SLJmzSFw+FBm0PWlMceewx+v1+4kpFVJhqN4qSTTkqsM3fuXEyePFkIGIL+Lly4MCFeiFNPPVXsM27FGS1YwDAMw+QbVOEZgMVZAKRzKZAkWN2eoQf8MwzDMGOeSZMmCStPfLrjjjv6XXfNmjUivsVms+Hb3/42nnnmGcyfPx8NDQ3CglJUlFobjMQKLSPob7J4iS+PLxtNOI0ywzBMnmFxuhDxdcaEirMApqHDoKBKUThNEXVirO7C0W4mwzDMPh2vSFO2t0ns2rUrxYWMxEl/zJkzB6tWrRJuZ08++SQuu+wyEe+S77CAYRiGyTOsrkKErK3QIyHIFqsQLYpVAYU0GtEIZNUKW0HqqBrDMAwzPvB0ZxXLBLKyzJw5U/z7wAMPxEcffYR77rkHF154oQjO7+joSLHCUBayqqoq8W/6++GHH6ZsL56lLL7OaMEuZAzDMHmGrChwV06CYrXDiEahRUIiLsaIhoWgcVdOhGIZveBKhmGYfZ54IctsT3uJYRgiZobEjMViwdKlSxPLNm7cKNImU4wMQX/JBa2pqSmxzmuvvSbEE7mhjSZsgWEYhslDVJsdhROnI+LvghYKgPJJqnY7rC4PZIUf7QzDMPs6N910E0477TQRmN/V1SUyjr311lt45ZVXROzMlVdeie9+97siMxmJkuuuu06IFspARpxyyilCqFxyySW46667RNzLj3/8Y1E7ZiC3tZGA33IMwzB5CrmOkavYeHUXMw0DhhaBJMmQVEvW/ckZhmFyRnYMJn22ORSamppw6aWXor6+XggWKmpJ4uXkk08Wy3/9619DlmVRwJKsMpRh7A9/+EPi+4qi4Pnnn8fVV18thI3L5RIxNLfeeitGG64Dkyd5xRmGYcY79DrStSi829cDIV+f5daqaXCXTxiVtjEMM7YYq/21eLtqf3crPFmuA+MNhjDtup+OuWMeDdgCwzAMw+SEQHsrQrs3kDRJXaBaYC2uhCIrIumAFvJDD3gH3V6koRZdkRAKJszIXaMZhmGygLAcZ9kEk+3t5TN5dSbeeecdnHnmmaipqRGuBP/6179Sll9++eWJtHXx6Qtf+MKotZdhGGZfwTB0RANeBFvr0bV7M9rWvIfQ7s/7ihdCiyLSvBvBxh0It9UnxIuZNPVHlNaPhHJ3IAzDMNnqYediYvLPAkPVQxcvXowrrrgC5513Xtp1SLA88MADic+jHWTEMAwzXvH7vAjXrt7r7ZgDzEsX9eKvq4Vn6ry93i/DMAyTn+SVgKFMCjQNBAmW0c5NzTAMk7MYkXAIYX+nSJ9M6ZQp65jqcI1ogLumafB+vmIQW0l2oD30PjItA3czhmGY8VrIkskzAZMJlB6uoqICxcXFOOGEE/Dzn/8cpaWl/a5PWRdoSg6+YhiGGYviJdDaiLC3Daahd3frTYS87bC6CuCumCCykuWaQEs9QvVbs7Y9c1gihl/iDMMw+zLjypuO3McefvhhUZTnf/7nf/D2228Li42u08s+PXfccYfIFhGfJk2aNKJtZhiGyQQSLqHOFtF5ly02KFaa7EK0RHyd8Lc25HT/eiSMzq1rsipehou1hK3sDMOMcchakouJGX8WmIsuuijx74ULF4p81zNmzBBWmRNPPLHfIj9UxCfZAsMihmGYsYRpGgh1tolilZJkCjFBSLIMWbUApopIlxd6UTkUizXL+zYRbNqFUPMuitTvWTDCL9JkK4yzYuKI7pthGIYZW4wrAdOb6dOno6ysDFu2bOlXwFDMDAf6MwwzliHBooVDMKJhGL2XhYNQ7E4hLrRQIKsCJhroQtfWNYCZxoodU1MYaRxTF4jCawzDMGMZjoHJLeNawOzevRutra2orq4e7aYwDMMMG1PXhXjpDz0UgJxly0vHls9gDBYsP8IixjphDhwFRSO2P4ZhGGZsklcCxufzCWtKnNraWqxatQolJSViuuWWW3D++eeLLGRbt27FD37wA8ycOROnnnrqqLabYRhmb/C3Nw+6DmUlo5iYvcUwDHSsfR8jgqxAMg3hpjYwMd9vmz27Va0ZhmFyBhWdzHbhSS5kmZ8CZuXKlTj++OMTn+OxK5dddhnuu+8+rF69Gg899BA6OjpEsctTTjkFt912G7uIMQyT10Q6WzNYyxSB/XtD0N+J4Na9r+uSgmIRk2SxwVJYCqvNDsViE+IFpiHieDq2roUZCQz4opasDqjkKscwDJMHiJj7bOsX9iDLTwFz3HHHDThS98orr4xoexiGYcYSe+MfHQqFsideZBWOmmmwe0ohKYO/ZopnL0Eb1ZVJThKQggRHafWIpIlmGIZhxj55JWAYhmH2NahoZOYlHodPYPPHe7kFCfbJ8+AsLBn6NyUJJfMOQcf2jTD87akLVSvsxZWwl1TuZfsYhmFGEDbB5BQWMAzDMGMYzd+V9MlM8zf+Qhv+i02LhIQ713CQ7W64p86HupdJBCRJRtHUuSKTWtTXDlOLCrczq7sIis3B2XcYhmGYBCxgGIZhxngNmO5/9VO3PpNa9gMT6Rg8SUA6HBPnwFFSgWxBIsXicImJYRgmn+EY/tzCAoZhGGYMo9ocA4iXZEyRQWxYNVL6jT3pB9mCorkHxopoMgzDMMwIwwKGYRhmDKPaScBkhh6NQLYNPdWwOgSLB7mMFc1eMuR9MAzD7EtIkMWU7W0yMfhMMAzDjGFisR+ZxX8YWmRY+7C4iyBlYE2RS2pYvDAMwzCjDgsYhmGYMY69uGzQdWIyZ3jxMJTq2Dlh5oAO1rayCSiaOGNY22cYhtnnkHM0MQJ2IWMYhhnjuMpqEG5vGlSeREMBWF2Fw9qHrbAM0lQFwYYd0IO+RMyNpFrhmjIfVlfBsLbLMAyzT8JR/DmFBQzDMMwYR7FYodic0MOBPiIm2bks2NYEV2n1sPdjLSgW7mRGJCSyn8mqlQP1GYZhmDEHCxiGYZg8QLZahYAZKBrGjIaHn4ksKeaG6q4wDMMww0eSJTFle5tMDLZFMQzD5AMZZjoOttbluiUMwzAMM6qwgGEYhskDJCWzx3XI257ztjAMwzCDIeVoYggWMAzDMHmArGZW38XQojlvC8MwDMOMJhwDwzAMkyeplENtGbiH6fpINIdhGIYZAI6ByS1sgWEYhskDLDaywGTy8jKhRcIj0CKGYRiGGR1YwDAMw+QJFrcno/UCrfU5bwvDMAwzAJKUm4kRsIBhGIbJE2yekozWC7e35LwtDMMwzACwgMkpLGAYhmHyBKvLk3HOZS0ayXFrGIZhGGZ0YAHDMAyTJygWG0VxZrSuv2FnztvDMAzD9ANbYHIKCxiGYZg8QnG4Mlov4u/MeVsYhmEYZjTgNMoMwzB5hKO4Ar5A1+ArGjp0XYeiKCPRLIZhGCYJTqOcW9gCwzAMk0fYCoozXjfc2ZrTtjAMwzDMaMAChmEYJo+QZRmKLTM3Mk6nzDAMM1pIOZoYggUMwzBMnuGqmJjRemY0jGgomPP2MAzDMMxIwgKGYRgmz7C4CjLORuZr2J7z9jAMwzC9oHiVXEyMgAUMwzBMHrqRWT2ZxcJogS4Yhp7zNjEMwzA9SDn6j4nBAoZhGCYPcZXVZLxuqL05p21hGIZhmJGEBQzDMEweotocgJRZiuRge1PO28MwDMMkIeXAfYwLWSZgAcMwDJOn2EsqMlrPiITYjYxhGIYZN7CAYRiGyVNc5Zm7kUW6OnPaFoZhGCYJspbkYmIELGAYhmHyFFlWoNidGa3LbmQMwzDMeIEFDMMwTB7jrpyc0XpGJAg9Gsl5exiGYZh43clsW2BG+6DGDixgGIZh8hirywPJYht0PUPTEPGxGxnDMAyT/7CAYRiG2SdiYUz4WxtgmuYItIhhGGYfh4oN52JiBHwmGIZh8hxbQQnkDKwwZiSIYFvDiLSJYRhmn0bK0cQIWMAwDMPkObKiwF6cWUplf+MutsIwDMMweQ0LGIZhmHGAo7g840e6r2lPztvDMAyzLyNJck4mJgafCYZhmHGArKhQbIO7kRGh1rqct4dhGIZhcgULGIZhmHGCxVWQ8bqhzpactoVhGGafhgtZ5hQWMAzDMOMEZ+mEjNft2lOb07YwDMMwTK5Qc7ZlhmEYZkRRLBbyJQMMPYO1TUQCPlid7hFoGcMwzD5GLiwmbIFJwBYYhmGYcYS7akrG63bu2pTTtjAMwzBMLmABwzAMM45wFJVlvrKuIRLoymVzGIZh9kkkScrJNBTuuOMOHHzwwSgoKEBFRQXOOeccbNy4MWWd4447rs8+vv3tb6ess3PnTpx++ulwOp1iO9///vehaRpGExYwDMMw4wxn9dSM1+3cyVYYhmGYrCNLuZmGwNtvv41rrrkGH3zwAV577TVEo1Gccsop8Pv9Ket94xvfQH19fWK66667Est0XRfiJRKJYNmyZXjooYfw4IMP4qc//SlGE46BYRiGGWe4iisQqN8h4lwGxdChR0JQrPaRaBrDMAwzQrz88sspn0l4kAXl448/xjHHHJOYT5aVqqqqtNt49dVXsX79erz++uuorKzE/vvvj9tuuw033ngjbr75ZlitVowGbIFhGIYZh7gqJ2e8blfDzpy2hWEYZt9DytEEeL3elCkcDmfUos7OTvG3pKQkZf4jjzyCsrIyLFiwADfddBMCgUBi2fLly7Fw4UIhXuKceuqpYr/r1q3DaMEWGIZhmHGIo6QC/kaywgyOHvJDj0agWEZnJI1hGIbJnEmTJqV8/tnPfiasIQNhGAauv/56HHnkkUKoxLn44osxZcoU1NTUYPXq1cKyQnEyTz/9tFje0NCQIl6I+GdaNlqwgGEYhhmHUCCm1VOKiLd10HVN04QWCrCAYRiGyYM0yrt27YLH40nMttlsg36VYmHWrl2L9957L2X+N7/5zcS/ydJSXV2NE088EVu3bsWMGTMwVmEXMoZhmHFKQc20jNaTJDmzeBmGYRhm1PF4PCnTYALm2muvxfPPP48333wTEydOHHDdQw89VPzdsmWL+EuxMY2NjSnrxD/3FzczErAFhmEYZpwiyzLcE2bCtyf2IkqHpKiQVDUrQfyhj16BsWtDbN+xjQPHXQR78RBSOzMMw4wHxkAhS9M0cd111+GZZ57BW2+9hWnTBh/UWrVqlfhLlhji8MMPx+23346mpiaRAICgjGYknObPn4/RggUMwzDMOMZRWIKorxRhbxu9zXoWSDIkmSYFFrtrrwQMpdeMPnsfZDkeYtptzzF14M1HEKqcCfuRpw/4kjUDXpjhgBBUeiQCfeMHQMCbumL5FFgWHQNF4VcXwzBMJm5jjz76KJ599llRCyYes1JYWAiHwyHcxGj5F7/4RZSWlooYmBtuuEFkKFu0aJFYl9Iuk1C55JJLRHpl2saPf/xjse1MXNdyBb8FGIZhxjkF3XVhIn6vEDGiGBq5jUmAanXAWV4z5AJpcaiYWeiZ+2Dp721iAmbDFuzatAeTZk/os9jwd0LfsQ6Gt0UU1jSjESASTL+t5h2ILv0bopUzIDtdUCbOgeJwD6vdDMMwOUU8Y7McqTHE7d13332JYpXJPPDAA7j88stFCmRKj/yb3/xG1Iah5ADnn3++EChxFEUR7mdXX321sMa4XC5cdtlluPXWWzGasIBhGIYZ55CVpaB6GiK+DoS72mFEI8LSYXUXwVZQBFm1DHvbDz2+AxdnYLxxf/oUfBOvgdupJOYZwS5EN3wAM+iDZHXAlBXAH0vzOSCNW2HQ92tXI0qf7QWwHHmueNEyDMOMCXqyHmd3m0PATLa6p4EECxW7HAzKUvbiiy9iLJFXQfzvvPMOzjzzTJHqjUYL//Wvf/X5oagyKPntkWnspJNOwubNm0etvQzDMGMFchezeUrgmTADRVPnoXDSLDiKy/dKvBCLAu9ntJ5dNfHxulTLir5nS0y8ODyQVCsQ9GW8XzN5CnUh/PrDqH13+aAvbIZhGCb/ySsBQ+atxYsX49577027nHzzfvvb3+L+++/HihUrhJmLiu2EQqERbyvDMMy+QKEl8+frJxt6iqOZWgRGW50QLgn3tejgxdjioqU3tImqwAb84/63sLOOn/m5Qg+HEFr/IUKfvovojg0wI3yuGWZAF7JsT0z+uZCddtppYkoHjbqRDx/57Z199tli3sMPPyyK7ZCl5qKLLkr7PapemlzBlCqLMgzDMJmxtrMUkwp2D7qeYQJR4e/VjRYBdB1Qki1Ae+lvIQFnTt2O791Tjpu/Nws1FaMXYDre6NqzA/rTv0+MetIvJX5OixW2Ey6AZdb+w46jYhiGGSrjRsrV1taKzAjkNhaHsixQPuvly5f3+7077rhDrBefelc3ZRiGYfpnhX9hSnKz/ni9fiKm1iSJFdVG0aGAofXMsw4sODJxDlNloEZtxt3370QgqCfmGwEfop9/jPBHbyCy6j3ozXXsbpYhHz//Dsynfw8lnVt/NILwK49C27J69BrIMGM5jXK2Jyb/LDADEU8NRxaXZOhzfFk6brrpJnz3u99NscCwiGEYhsmML55cjY9XFuOgivZ+1zEM4DXvofjuAmdinqRaIJfUQG/YBljsYvSeYmHMkH+v2zS9JIh/rg/i8eeb8PUvVSO6eTUin7wFM+CLuaCRcFnxKqBF4/meIXlKYT3kRFjnLMmaJcEI+hHevR3R3duhllXCPms/yHYH8gU6T4+86sNZtc+lpsdOIj4/tOI1qNPmi9+VYRgm14wbATNcKIf1aOaxZhiGyWeOPbgAf95xGiKNr+LwipY+A4QhDbjx8/Nw3kkeTJtgTVmmTJgJs7MZRtArRAyo8+ssBAIZZCIbgK6ghGr/NjQtXYedsKKwazMUiwypsBSmHgV2bwNMymPWg9myB+EXH0b4tcdgO+UrsM1ZApOUF7m6KRZIQ8hwFm1rRsv/3giEU+ND6KjksiqUXX87FMfYFzJvfxbBxE1PJT6ns1fRPPGTtzfCaNoNpWbwQnkMs2+QC4sJW2DGnYCpqqoSfxsbGxPVQ+Of999//1FsGcMwzPjmGxeUY2f9+bj10QZMCG/BEeW7sc1XjJfbD8DcaTZc8xU3Fs129LFsyI4CqPMOi9WB6WwGQmGRLQ3FVTFLTLArsW6mzl7+PU3wvPMBzgg3w9ago3FHCJ12BcVL5qNovwKYe2r7iBf0dol64SFEdmxBW30b9EAAmqSi3j0P2rQlOPqQElgtkhA3kd1bEd25XbTO1KKQLRZoigWBJ/7c7+aNlgY03Xw1Km7+AxRHj0VqrBGJmnhvtY5vYX3G3zEzSMLAMAyTDcaNgJk2bZoQMUuXLk0IFnIHo2xkVHyHYRiGyR2Tq+2483tUMDNWNHNh1MBZJmCzDhxqKTs9kOcdDiPQBYQDIi5GcheL2jVx2ndvg1S7CrbgwJaZYEMrtvz7AxQFdYTtRdAsFlTZm6BHImhesQa6z4viqsFFA4klfe1ymNYq6LIVqhHG9PYV8Hs34K210zBt91K4Ag3DHwvVImh/7H6Ufb3HfXmssaPRgC+YOt4rDSIkJWfBCLSMYfKEXMSscAxMfgoYn8+HLVu2pATur1q1CiUlJZg8eTKuv/56/PznP8esWbOEoPnJT34iasacc845o9puhmGYfQ2rZWg5YmTq/PbTAQ77OoGyqTA6m2D31vcrHPZ8uAmtLRrarRVw2VUopgZFlSHbnIj6Q+j8vBaekjlQrIO/+mQYiCpWROSY4ImEu+DZ8xkWhJZlxYkjuu5jYbUZzZiRhjYD62o17Go2RL9oSqWM/aaqKC+SEYqYQrE0oBqTUTf4xmQFclmP9wPDMEwuySsBs3LlShx//PGJz/Hg+8suuwwPPvggfvCDH4haMd/85jfR0dGBo446Ci+//DLs9gzKRDMMwzBjjkg8jkSSECmqRKSgFLa2OliDbSmB5V1yEXZt7kRAdcHlUqDrJlxuK2RVBXQNqtOOSGsbAs1eFEwo6Xd/yRYG1dAQodILehTOllpIZCHKFqYJvbMNamlq4pmRYs02DW98qiEUNmFRY8fd0KpjTa2BUw+ywGmXYFGAf0vn4lqzp/Za8jlPFnKWU78GiWtUMEwPImVfti0w2d1cPpNXAua4444bMO0l+VffeuutYmIYhmHyn4i/V20uRUW4fDLC5qRYkL1w05ARbWqGZOpQbC5oOuCwy6iptEEKeWB2tsRiaygGhRZmiC7FXpEWfxuUaFCIjsFIW2Szn3WT3eRyFccSjgJ2K2BRe1rR2G4I8UIir7Qw9u4k6P3a4TPx6sooLjrBgsoSCdsbKrBOm4P9sDHlWFKETPU02GcuyOmxMEzewS5kOSWvBAzDMAyzb9HvqD6lXe7ODEa6Qna5Yap2uBCFq9KDIo8KlTrtaiGMSAi6r0sIHcWWmcuWDgURJZYpzBLqBIzMhE+6OJH455Suh6JCLuzfEjRcSIS88EEEH6zTEYrG+jt2C7BkloITD7Sg0CVj3faY5SVZvIj2SRKK3CZavSa27DFxykFWPPlWGE/5Lkaj9hqOw3spxePouORjz0XBoiOyfhwMwzADwQKGYRiGGbPY3IXoatw14DrUB7cUFWLR+ceh5aWXYSuUISndHXNZhlRcAb0rAGtJEZxVpUKeDIbXVkHVYWIfRNayvR/5jLtd0d/GmSfjtbdkBKMifASFduCwOcCksuEPstY2aPjTcxFEk2qDkrgLRoBl63Rsqzdw5Rdt2N1kgjzr0tW7oXmyZKKuRcdh82248EQb3loVxaqmk7EsdDKcph8lrihOOqII82eO3SxqDDPqsAUmp7CAYZg8xPB1IvjK34G2+pT56vEXwjJtPuQh1KzIN8KBIEJ7douUtY6JE6FST4wZt6gWCyTVCpPqsQxAyeSZMM8sh+/zzxHavh1KYaGotWJEo9Da26EUFmPCt74F18RyBJe9BOzZDph9hQy5mvllN0yyNZBwkWToFiesaMuovWYGy8OyE8smXAzEsw4bQHMUeG4lRNzJ/lOBmTVAiTujXULTTTy/PIz31hiDBO2beG1llDTdgN5wQmh1d5Rm1CiYXi2jqcNEOGLC7bCjxMOxLgzDjC785meYPCOyawuiLz+Ydln0zccRehNoX3ABJhy8CBZ1/HQ0Ql0+tD/2B7hCzYlRbAqppi6o+tUbUVBSNtpNZHIEiZPWbf3XI3GUVMBitQEVFZj2/R+g8Zmn4f3oIyFcJFWFe8ECVJx1NjzdKfbV86+GXlcL3dsGra0JaKmPuZdNngXLwsPR9ckaaJ+8hwItJlokmwKTsoVR1rCMK9L075q27KAfxswuaYjqwKe1wK5W4JBZMYvMQOxs1PD269uAjkbMgAu75WkIgwqGph+pXbddx9GLVOxpjrmb9bbCGIYpxM3kip5nB61TWcwjvwwzNOgeyvY7ePy80/cWFjAMk0cY4WBa8ZLoUpkAdYtK1zyJBz4Kota6H+ZNVXD64TaUFubv7R7yB+B/8OdwpXH9oeM1H/kf7KpeiEkXXDoq7WNyC4mTshkL0Fm/HdGALzGfYmAKKibCmRRLYqusxORvX43ohRch2toK2eGAraYmNdZDUaFOmiVegLY0+5tw6IFonDwba5ZtghTsQlS2Q3J3YNqu1+AO9J/GORNpE7SXosMzfcB1NAMifuWjLWSFMUFZn3c1GQhFAJcDmFguQ5ElbHl7JUrXPoVz4vcFJTXQTeimjM/dB+PF6EkImqlZOGkbFcUy3E4D7V0migpMyN3nhsRLexdQ5JIwd/L4teIyDJP/5G+PhmH2QcJrlqXvNMV7Tt1+IdQdudj2PKJ4Cdu3TsSdG86EancJ91lao6xQwokHWDBrkgUux9jvqLQ9/zjcg8QtFNavwZ7770D5lTcOuQbJWMfQNYSWvYLI5jWx6vTUUTWi5F8FpaQUllmLYV1wBGS7C+PZlax08ixhNTB1TcS2yANk8bIUF4tpuFRWF6Dy/AMRbW1CqK4evk9XQdO6xN1lDiJVkgVO7zXDVnffJb1zEtM17zVhmMA9z0QRDOoi1bFVjaU2pvv3CMvHqNrwbPf3TUDvcR9TYGCBbwX2wwpstc7FI+bFKb7zpR4ZXzjEglc/ior9SJIp2kDNKHJLOP0wK1wOtrgwzN6nUc7BNhkBCxiGySOM9Sv6X5jGqd0CHbPUHfip+ntsj1Tgr/qF0OCEL2jiLy9STEFEpFidUSPjtEPtmFylpA3sHU2ow+ps6t99KJmCaBs67/8Jdiy6FIuPnJ2SOjZf6fzn72HWbuhnaSy7lr5rO7R1K2D/wlehVk4b9r5MQ4ceiQVmKFZbVtP8agE/zI4GwGKDUloDuTut8VCh6zNXxR/pWqP4skjdTkQ3r0No3UrobS2ARlHxZuKF2Z98SXe1JacbJlqL5olPfW7XXp9Jj9AsAzKCYR3hCOB2mChwSGhqjaKi499pxYv4bjiCsNcPzRdEaXQHrpHfFEKmvmAeGicegariGiiKjK+dLGPDTh11LbFClmTZmTNZgcue//cNwzDjGxYwDJNP0MhzOuvLIPUpqDsyzdqE28zfQTNlvKgdj5X6IkRhFS4l67Yb+HxHAJMrZZx/nB1Tq8bOo0HXtMG9fun4u8+BDSHMXvUndK5S8d6Ey3DaWbNhy6Dy+lik44E7gabdg69oAlpDA4L/+gscF1wDtXRoFdGpnkqooxnhrnYYWlTMk1ULbAUlsBeVJWqoDIdwexPMZU+n9M/pKo5ChnfBhZgw2TNqotkwDES2b0Tw0xXQdm+D1lwPRMPd6qH/gPjeoiR53kDfofU3TT0zk3Iy4nqOnRdy8eqO+QoD1gBwoPwZ5PjeyUyTRKTLj2BzOzS6sbuFjYQoZgQ/xozOj4Hdf8fuDaUou+Q7KFh8EA6em5/3BsOMeei5uRfPzn63yQj4ycUw+UTFJKBu615tQpUMnGVZioOUNfhH9Cy0mKWJftCORgMPvhjEVWc6MbF8bLiWDZpRLUm8JGOFhhP2/AXr7psBnHo5DpibXylfw631mYmXJPTODvif+gPcl/0Qii1WwyQTq4OvaRci3nYRyE7ChTrOhqYh2NYAPRqCq2LSsERGqGE7zI9fTrtMCQXheumX+KDOiqnVVrgmT4F9wYGwTJ6RE0Gjd3VCb2uGEfCj7YV/Anu2pV1PIrWQIUNtpbXYA4fpRwQFA65HlzPV26RLPxqJWUfil7kvZKJcrk1dOcnyEmrpEH97W2VS3No6WtH8u9vQDMB5wuko/9LXIVlyY9VimH0VMbaYg20yMVjKMUwe4Tjpwr3bQFIvpkpuxvmWl2BL5HKN9YU6/SZe/ygsOrZjAXI1GtAGM0g7Z2IrJr3yM9S++R7yieBj9w79S3QquroQeuXvMIO+zMRL406E2hphaBEYWhh6OAhDj8aEjGJBxNeJaIBiP4Yet4N+xIvm7YJ/3QaEd+3GFGM7Gmsb4V+1Ah1P/AX+91/L6rWn+7zwvvwkWv/yv2j5891o+9Od/YoXwuxl0cgWtvJi2Io9mNP2jgiWH4hIxICiSohGDYTDcStK7FKnr4bN9OI00hWAHonC7CVeBiLwxgvYcfUFaPnbH8bMPc8wDDMYLGAYJo+QbU6gZELi896MU5MLSqXcglnJo7ndbKvXRYaisYJ5zMX9LMisjTYYKF39DDrv+R5qX34ReYGvY3jfM3RoOzfD9+rf0fb2Cwh3tqdfzTDQsWODEC8JKEDe0ISI0SMh4TpGnVoSMUMl8vmKtKOFpq4juLUWRjgM2WGHxWFDc9iBLkuZyA4WWP4GIlsyi3kaDCMYQOczDyP4yfswvJ2A34uRQrKosJQUwl5dDte0CbAUxBIsFIfrUN8QRiCo9REMMcuLCVmWhOWloyMq8jWkbBfAdufCtPvUQ+GYABvGret7+xXU/eL7Ig6KYZgsIMm5mRgBnwmGyTNc518NVCQFau+FilGhYbJclzKP3FV0HQiExo6AKV28GD7b8DNKJZ+q0o1LsePfT2EsY3YH0g+bYFBkK7N3bkfLGy/gvsdbsX5HT/yUFg6ifdtaaANYVoxoWGT7Eu5k0YGLSKZlz6a0s6Nt7TBCYch2W8JVrNQeRkt7FLLbA1OLIrj6Q2SD0NqV0HbXQi4sgdHRkvH39soKI0tQ3U44asphKyqA6ug5Tvq/LtuFhaWxMYLtO4LYsTOAurogmlvC6OiMosurobUtgpaWMHQ9lu9MuI9135uqAnQ6JyIIR5r7f+9c76K1m7H9b3+DEfQj2tyASEsTmh/8HXbd9C3s+uG30PbsP6AHqfoSwzBMHsXAvPjii3j66adRUlKCK664AnPnzk0sa29vx/nnn4833ngjF+1kGCYJ19lXir/+N56CtPVTGBJAmVAHxUwvYuIo3RW6qZPkHGOZiGq++UPsefpBuPes2+tMksW1y2Ca5425jGtxRJrg4X63O/jb2LUT0qzZKFY6sUhehcffPhqHzY3g+Nmd8LfUw4iEBt0WuZJJIi5mGOGSRvpjMPyBWIB6UjCqIpsIRWKmBtnuRHTPdmGpoTove0NozUpAUWH4fRlb64YDtZxCZxSHHdaiAsg2a8+1Fd9t90dtwnzIu3pi78nCQhXuwxGyfPRYP2yqJOJ1I1rPurRJyhrY5pPxStW3cHbjbyHJPVnIVKdNBPEnMgYMh/efxfYPX4YcDfW5z7peeFxMckUNSr/yDTj3WzLMnTDMPgDdsNl+x4zRd9aYtsA8+uijOOuss9DQ0IDly5djyZIleOSRRxLLI5EI3n777Vy1k2GYNLhOOB+ub/wcBd+8HdFTvjmkPgutq5kqGsyKxLx4n3LGBAUlnrFnoJ1w3uXwXHsXgmUz9zqYsfGlf2GsIlEAvpquxGIGiGDv2NnR6+vEv+dYd8COMOrqvNi9vR6RcCSj80fZyQiru3Do7bA6Mn4Be8MWqIqUJMDkvX5R03Yo/kWyWGEmFb/MGooKyVUAy+xFaFxwLsxJ0+GoKoMStyylieDtUksw8cD9MK1q4E0LK6gJRLv1jNQ9uOCw0RQrMnnqCVVwf/0nkKbulxBH1gIXFIu6V8JcMg0oacRLMkZTHZrvuQU7f3Al/J+u4NgZhmFGnIyH1e6++2786le/wn/8x3+Iz//85z+FFSYUCuHKK2OjwQzDjB7F06Yg8qX/QPT5vwJBX98Oaq8ZVF+iEwXYaMSqglMHifqrxQUSTjxwmJ3nEYA6Z5Vf+ZaI4Wj516Ow7fp0eBaZnesAnIuxCFkn1BnzoG1ctVciRvL5YPq6YHFbYJeCmFXSKdwDDaXb2kYDhP1vQqTtNlUrZEtmGc2SUSbNhbZ5Zd/5brfooZM4ouMk44Ffs2BKhSVWpDIcgHX2wXuVujl+nchOt8g8lpUONokqiwVq1URYps6Gfe7+sM1eIPZj9Rt47LXTcPyeP6AKLX3uNTrPHVIJXpVOx/Q6N77+RRv+vSyMlRv0lCzIZMWpKQWOXmzB1joDrZ0m7FYJE8slTK1ShFXU7ZBQ5I6fGxfcZ1we24ehI7xtHbR//w2+TVtFLNRwSVNXM/16Ha1oue8OyrkNy+RpKDztfDgXH7LXvx3DjAdMUfQ2uxaTbG9vnxAwmzdvxplnnpn4/OUvfxnl5eXCKhONRnHuuWOzI8Aw+xLWkkpYL70JWlc7wv+8B+iu6SH6SFKqePGaBXg1egy8pkd0ZsltjArZnXecHRPGSArlwbKTVZz3Nfi3LIb+woPD2MDYThsrlZUBG/duGxTLodXVAdPdOGZqPco9UYR1tad/baaKmN7dfLK/RCMRNG3fhMIJU+FyD5z+Nxl18jxoO9YD4UDKtacWF0JxOaH7/JBsNmzzFgrLX2mxCqOzDbLNAfuiQ5AN7AsOgO+N54EhusDFUilLgMMJtaIaank1LDVT4DjoGCgud5/1PS4ZF53sxGsfXos/fhbAF6QXMVuuFddom1KBetd81Nlnojnogm9LFEcstOHC4+047xgdK9Zp2N1iwm6RcPBcBRPKY209aM7QjpWKjtpnLoL9u3fDtXUDWh6+F9qenRgRDA3R7ZvR8se7xDkv/eq3oDhdwgo3Vt00GYbJbzJ+qns8HjQ2NmLatJ7g4eOPPx7PP/88zjjjDOzePbR6BQzD5A61oBjqlTcj1FIP/YUHIIX8sQWKCjjcsE6ejQnzD8VFlnJs3q2LQuNTqmVMKFPyrsPhmrkQ+nfuhPfR30ChSu+Zfu+gYzFWIeuSEuyAVlQEs6NjLzdmAts2YYqrGEbxLNhUIxEUTkjdIqY3ogq81O2OZGpo3b0DG+VqTKt2objAPuhuJbsL1kNOQ/jj1yEFOhMihkbnHTOnw7dxK1raDNh1H6ZW2GC2+oTFxH3CGbBOnoFs4Fh4MMIbPkNkx1aYdO1nEltktcK24CDYFx4M28z5UNyejPZFImbOFAs+22rBGvc5WCdLcMohHO57BQdE3seSyDJsUeZgWeAwtHQ4MbFCgUVRcNSi7A8W2GfMRenF30LzH++G4d3L62coUEHU1SvRGvGiYPFC8byRa2bDNnPJkK0yZjQMrW4rjPZ6QFIg18yEWjYh688nYbla+RpQXxszS06aC9ucgyHZ86tuFDMG4RiYnCKZGdrWzznnHCxevBi33HJLn2VvvfWWEDHBYBA6+SfkMV6vF4WFhejs7BSijWGY/MGMRtDw7ONw7RnY9YosC0X/+UuMVXRfO6LLn4UZjSKybQtMf7cAHYYFJtjugxaKQlZkOKZNhHb06YDVNmjyKp1CJOWezjW9KFpRjqjsQKFbxYyazOJiTD0KvaUOHbW1aNjegF3tFry7pxK7vS6cN6cZx0xohmJqUCtqYJu3P9SScmQTvbMNXUv/jdCnH8CgNMoDvPIKf3AXXNWThr2vdbVRPLE0iLJiCSd2PI7JSLKAmEnncebJmHzsUTkdLAhtWhezwlAa7e7MYYO6hon+1t63SVIVFM2fAZnMumKGAhz6BbgWHxlLMNEdW0UWqt5Ql0Tb+hn0LR+LayfRcIrZg4Lo9MNQMj99GumhENq8Cli1NE3ju49//pGwzTsk7wZ09iXGan8t3q7GD16Gx+3K7rZ9flQe9oUxd8xj2gJzww03YNmyZWmXHXfccXjuuefw8MMPZ7NtDMMwQ4ICtqsvuAQ7XilD8YbX065DfSHrl/4TYxkSLgRVR7dOn4loUyOMxsytS0SwzYfWTfWI+EKJPLzKpnp4tjfCftk3oaiKmJ2urEBv8SLaIurphBGFA50+Dd5ACB5nBpYYxQK1cgrKaDoMWADgNIwcSmEJis67HJEjToL/7RcR2b4FRiQIM0CubRLk6bNR8ZXvQE7jGjZUJpYrmKFsx9kdTyJx9sw0qby3vIZ3vG4cefr+ieQF2cZSPQmKq0BcS3qIrgEjJTmZ1I94yTT+ZSBMTUe0yy8Kd8Zm6MAHL8D/wQuQFx0KSeu+Jm1OqJXToEzZD7KswOjqEBY7Y8/mWJyU1Q6EKSV4SFjPJEWGtbMVH29qwoHnnDj0dkVCCK//ANj88QArdZ+h9e8j6vbAOnnecE8DwzBjwQKzrzBWFT3DMEMjHA6j/c+/gEP3JTpugcIpKPvylbCQf/4YxtAiiLz5aOq8UAgaCRlyKeuObeqPUGcAjau2Qw9rUBxWYX0ha4wejoq/xccfDtc55yVqixCxpFkSTBot72fUuQsedMlFiQ7uAbNLkW9QZjKtfpfoqJLVRykqydq2A7Wfw3jjH7GU5gOpABNo1934ZN53cNYxey+c+qPjxSfhe39pTMR0tCUC+5Nf+hGrB6bVBlugRTR5KOKlXzFEYre0EO4pNWm/J02ZLtJlk6iib5uKFWYkCnP3VoDSe4sNm7GsImm6KOQO+Fn1OTjq7MxipUQx1k/fhLltVebptOkesDlgO+PbbIUZo4x5C8yKV3JjgTn01DF3zKPBMJL7MwzDjH1sNhuqrk11eR1GMuBRQVatMQtIUiYp2W6HdfIUmDU1MCJRGB1t0EnMkLWml+tu5/ZmaOEoLC57TxFFKrDosEILReD94BMU7j8P+oTpMKx2mJBhDuKvTd2+MFItLjrF6uRZximKaVFm7Zf17YY+eg1Y/a6oTZAupigFCShSfNiwtgnHHegU8TO5wHPiGUK4hDasBoqKYUTCMMOUIlmCddJ0qJf9NzbvsqDdZ2DRiz+Aw9eQFQsMYVABm34wd9TCmDlHxMWYpgGzbjtArm4pG0gvXghJ1zC/7t/47JNJ2G9xVb9WLCrIabbsRnTDCqCjeWgHQPuOhGD6OyG5i4b2XYZhcg4LGIZhmDGIdPAXYa54ru981QKFJqcTSnkldG8n9J3be+IEwlHhPqZYLX1HjqnYotUCLRRG+NOPURDpQrBmDjRP2aC9Vg0qIlJqeu22zhDKiznYObxrE4zV7w7pO3S6wyEdW/ZEccDs3KQtl212lHz5CoQ2r0dw3SfiWlE8RXAsOAD2WfNFodBTJgChCLDduBSRF/4Ca7B1QMtKnLjQ6c+eoWm9hHVc6Ipr0gQ6O2AWFsFsaoDZ2Q7NH0TU64ehaaJwKolv1dV/FjOLEUHko9fxevspOPEwN1SnE0ZXO8yuVugdzTDJDY1inihxg7D0DJPueB2GGTIcxJ9TWMAwDMOMQWyeUoT2PxVY9Ur/HUiLBUppOQyKF9heK+Ybmi7cxGRLr1H97n5jPEWwETWAgA/2PRsQtC2BbnP122OlfbWBRA6N3fcQ0bhzR+jvPDP0L0lAp+FCKJyLFiXtRlXhmLdITP1htwJzTzkC3gob2l5/Edj08V7XiTHDGvRwBIrN2iME4p0vul472mIWmI52BOqbEO30x+r1dF+nkQ4vLG4nnNVl/WYwm6OtRfOGRrRsM+F2yVAlTRxvNpEcY9vdlGHygaVLl4qpqakpkcQjzl//+tdhbTO/bP8MwzD7EPbyathPvhzS4hOAgtR4E8OURD0fzZSBogrok2aKjiFZWGRVhtFbXMSzYFEBSUWOjW7LCuSQH/aWHQOONHfAA13u7ogmYbOO/XpBucagIPN4mvIhcobjbZQWjp3XsGf/AzHlhh+i5KJvpBUosTip1M/Jf1NXNhFu7+ozLwG5Pno7EWppR6TDJ65JEjuK1QrFZhHWoUiXH8GW/tNAU8qBMjTDFW2F1NkMvcsLIxpNtLN3e4eM3Q3JMnaL+jJ5YoHJ9pRn3HLLLTjllFOEgGlpaUF7e3vKNFyGPFRxxRVX4J577kFBQWpBM7/fj+uuu27YSophGIZJj61iMszySdD3bIa+ZyO0QBDhsAaLEYISCYtSL5LTDXXmbKChDq7KQnTubIFpqN0Wlxg0wq1HdFgKnHBVFQm3HknToAY64W7bAV/RpFhWMhohl2JxMV54EJQK03ZoM6kHM94xmnYN+7sH2TfAVkFuVmOnqCoJB88JpwMOF9of+M3wNkIWE0qHHAj1XUZCmZZLgB7wI9LRJSwstN/UdsiQDDnmVlZS2JOSOb68W5zIlHoiqbCREfBD9hSmuJ5l4hLXB8pQdxQX6GaYveX+++/Hgw8+iEsuuQTZZMhDPw899JCo99IbmsdplBmGYXIDdcjUibNhWXgcOkvmIRoIQwn5IBsRqGYEDsMPBQas5WUoPWA2bIUuRAMhERNj6AZ0TUM0EBE1OsoWTIZkaCI+QBSsNEwoYR8Ktn4I1/r34P58Gew71yHolxAg8ZJm1K+8yAolSRztq2h7tg77u3RajU0fYSziOfw42Oct7nd5f5YNITwSnmIDXB+SBD0YEimXe4uXuNSga5VcIvX+/OyEcDFTxRFV5aVpCG1OyxHnwVpYNpRvMEwKIjlKDqZ8IxKJ4Igjjsj6dtWhpIWj0Tuaurq6YLf3jLxR8coXX3wRFRUVWW8gwzAM04PkcMPdtRuq6U3rTSApKmxlJZh00gFoWbsdvp1NMKK6sMS4KgpRPLMKzlIXjEAAkmHGYgaCfqCjJZZBK17zpasdVfXbUFgxHTunn5pSF6bIrWJiee7S/+YTxu4tKZ+H6rJktjdhrFJx/c1o/uPdCH6SvgZcH7pdXEzdiAnuAkf/65rJgf0DbTT1jJKgCbd1xiwztB9VhtXthLXYI9wnhaAx9sKq5SyC/fQrh/fdfQARpxTtFpQWG6eYHggRbpjtIH7kHVdddRUeffRR/OQnPxkdAVNUVCQuVJpmz57dZznNJz83hmEYJncYbQ2wNG0acB3JZofFo6Ny8VSUTK8Q9V9IqFhc3R0O6oRQsH84LISNRHEc8e8mb4f6c03bMKvtL9i68EKoBUWYVOlGoatvPMw+S7wz16urbUQ1aP4ADErxRdnfHN1ZteLWhu6ECJIj1R17LEHXSsW3fwA9GEDnS0/D98GbCPtCCFsLYA93QNVDScctxYLy9Vj6Y5oXau4Q8S2OymJYC3oLXhNKeRmknXUwdT1N8D0JIR2yoiQSAeiRKHw762PXc6yBwoITCnci6gvAWVMBVRRXHWIvz2IHDj8L9spJwz5X4x3hfrp9LbT1K4BAZ2xeXIeWTYH9+AtGu4nMGCUUCuFPf/oTXn/9dSxatAgWS+rgwq9+9avcCpg333xTXMAnnHACnnrqKZSU9BT/slqtmDJlCmpq0hetYhiGYbJD17KXYMsgDZToXEQ1qDYLVEevQGQSMTT6rWkiqF8epJaLokUw69O/QZp/BJzTT87CUYwj3IVAwJsiXki4RFo6YFAKX/qhSC9SmuCOLtgqSqAkeTAoNdMx1lEcTpSc9zV4jjsVLU88BGPbDoTlEphhLyxRvwimFySnTaYgfm8AEX8EXbvbYC10oGThdKhWa2JUWikph7W4CKGmVpiK0ZNtTHiGGUIMWYsKIFtUkdGsa2eDqIEUH0xNWHwMQ4iaYFMb3FOqgV4dpJS0aWRJtDogeUqgLDoWajF7jgwG9f20VW9C3/Jp7HPif92xSM07EHjil5APPhf2qWP/eh4pKIZQ1NfK8jbzjdWrV2P//fcX/167dm3Ksr2x4GUsYI499ljxt7a2FpMmTRr0hccwDMNkFz3khzXSldkAc7wQ4GAvCBoxz+B5LrayfhkCG1fCet41UF37dhXoOJbFxyD62iOJz9TBDre0x9yo1J5aPNQJpAxZ4eY2OCZUCssCiquhVE9FvqCWlKPyyv9E4eb18G3Zis4uDVGLDU5fHZS2PQhv3SBEMYmW9h3t0EI9sSiSIqFjdzumnbQEFreD8nnTTNgXL4L+0cfQOrtgQusODIqlU6Y0yvbKEiFeAo2tMCNaj3hJioEhK6Kpm9CDYWhRHSptO1m0SEDUlLEjUIp5Z54MpbhCZOBjMsNo2gl92+o+4iXFOhMIQ3/7Mfz9rdNw1eVLRqWdzNiEDCC5YMhZyMjS0tHRgQ8//DBtPudLL700m+1jGIZhuolu35i5S3Wm9TCGOgCmRxB54teIiIQCR0GtmLhP+8Grk2YjKqsUnCE+R7v8scB0S2ohUfFvi0W4lun+IOTJ02A/7lwRs5RPkChzzFsspvKk+ZGWJtT98FsIeYNo29rWt5Ormwi1BLD9zTWYdvISqAVOQIi4KhQcfgQi27ch3NAIMxwRiQCshQVQCpzQfAFEW9uFeOm3Ao0QPLKwxFBcTM9OY9/Y4ivBo7sPxH5LJmJhaY/3CJMZ2tbPRFxRb/FC57tzyx50bt6FSGdA/DRHl3yGm1Zciqt+eAxmTBq77pEjQ6zmVva3mb/s3r1b/J04ceJeb2vIT87nnnsOX/3qV+Hz+eDxePo8oFnAMAzD5K7mSKavL4qDER1EcutJJzDi1pnhWtN3b0KUJtpOSQ3sX7gEsm2AoO1xCr335EVHQ18VG2U0gqFYeuo05zw+j9ydPF+4DJJz/HTwWp57Cqaho2NHR9+8xUmd3mCzF61rt6No9gRIrg7I1R6oVZOgVc2Hv7kTBXonQpIDuzok1Kx5NhFnMzhmIv036RndlFDrL8Eftx+OjqgLlIX5ti8UZfuw9wnMrra+8wwDTSs+R8fmWBpxqt1DP0GwoQ3HRh/AYz9txeV3XIAJVc5RaDEzliBDx89//nP88pe/FNqBoFIs3/ve9/CjH/1o2B5dQxYwtEOqBfOLX/wCTidfmAzDMCOFXlCS8UNbuNq43TC9nT2pZhPuTNTXIIuADepwBUx8m/S3dQ9Cj9wJeep+IqZDnTJXZEvbV7AsOhL6mveFdSqTLGRS5eRxJV6IqM+LUGcIRjRNQdRkIWMAnbtaUDCxBJFNW2H1ReA68yLUhyZiSxQotEbg+eRfmLjpeRFbk9BCiihQ1H8DDBOm1Yq/t5+Mnd7JaAwVxK5xAC4HcM8PqmCxsOv7sEjjbuff3SwsLyRc4kkWCMVuhb1Dx4I9r+B/7p6P3/7yIOyz5KLwZB5au3/0ox/hL3/5C+68804ceeSRYt57772Hm2++WQT433777SMjYPbs2YP/+I//YPHCMAwzwuyRyjBRUqGY6etc9EZ2uYVLDRX3kwwjFoxrKtChwC+70YVSTEMjJOpVDoXe9Te6Mbavg7FrI7T1H0CZvhCW/Q5DxLTgo006tuwxYFWBw+YrmF6dX25Tg6FYrELERD99U3TgjHBUnOveVph4d9y23yEYbzhmzEHnSy/3zBhIa0QMyG43ILkgtTXA//q/oC75Cspr12Di9tfgaN/Z90uULU+VRUpwyvedHFsk/gJoLpqHj4LzRGwN5QqYVKni2ouKUFHKBVf3BqViMvSO1HTf3m11on6UJUm8xIlYPbCFvJjY/AkCgf3hdI6v+50Zev3I//u//8NZZ52VmEfZyCZMmIDvfOc7IydgTj31VKxcuRLTp3OmCYZhmDiRaBSaZohCY10BDVHdhMuuwONSY25GycHHwySsAY3VB6Cm7sPMvK8tVkgz9kNXWwiWlu2waEFEDCuCslvEyFQ7w1CKJ8L0tgPBrr1qW/KeTb8X+uZVaNjehI/aJ8ElB1EKK3ZJk/DwnkrIUhT/eY6KwoKxU4F+b7HsfwyMQBeU0PsiboNSAJMLX6KjTV3sqAa5chJsAxSIzEdMXUPh3OloSC5sOkCmPMVhEcLDYoZg+LwIr16B0tUrMFB0Cp1HGuk3zXAiVXN8N7SjsLsMb0+5Et9c6MHiOQ4UFXCQfrZQZh8AfcuqRJwXEW73QbakP8de3Q6n5IMn1ITNu6JYPGdfFTA5sMDkYQxMW1sb5s6d22c+zaNlw2XIV9Xpp5+O73//+1i/fj0WLlzYJ59zssJiGIYZz0SjUazdGYE/bPbziiHLRrTP98gf32GR4LQrCUOGwyajpECF0zaAm4sEeEtninrMFXWfQEZS2treFFdC7q4kXuLywCi1oT1aAK/PRBE6UFhkh2XiDCgTZgoXkcja5dDXvNtdBHDo1peeg1PpxCDi96PIWI+jpO2ImLER8AXmamzHNCyTj8KvnpLwo68qsI4Ttx7KamU78kwoMxcDz/8N4R3bYEajIiZDlN6RFSiVk+A542IolHp5nEBCJLpjLczm3Sg8aBF8L7w/aDXPgonFMDo6RMayoUDZxiglOCVJoIKWIuyFMpBZHXjngJ/hmvOqYLPmXwdvrCM7CmA58mxE330q8dPKVhVmV98fOmwo0EwVkmkgKtvgdu7LvwcH8ROLFy/G73//e/z2t79FMjSPlg0XyYzbXzNkoGAbGiHRk/PA5yFerxeFhYXo7OwUSQoYhmHSEY1q+HBzqN++WqavGRq0tlpia6uyhOoSCyqK0lsmPt/RhlBEj70WDR0u7x7YAi2Q9QgM04RD88FqatBsBdAVKxRFgtMqQYoERbE+y/wjILv7D2Q2tChCrzwENO8ZvoChQOpey32yGy0ohwIDLvjxuTQfy+SjUWn34dQDZNHRqSizobhgfIgZIlq/C6HVH0LbUwuoFlinzYFtvwNFKuLxhN7Vjsjad4BICIahY+PdDyDU1NHv+la3FRMOmgpZxLT0ZSgdElHrSFKxueYULL7iIhS5869zl0/ooQBCz90P2TTRtnYbmlduhMXjTNTvocQJn/uqIGkaXJF2vDv7Ctx+72mQky1z+0B/Ld6u+k/egadPAde93HaXD9UHHDPmjnkg3n77bWH8mDx5Mg4//HAxb/ny5di1axdefPFFHH300SNjgemdNplhGGZfZN3O/sULkUGtSYHImKSbwvKiGUBdWxR2qwyPM9U9g/zNVZFyN5bOlEb0uwoniymOZGgo7dgCd6gZVj0AKqsRikiQHS64Zx84oHghZNUC29HnIvzq3wFf/53QgSDxIgRMd5YzGthyIwAr6lCHCQjBjlnGRliNMKq8u2G8pcGAFSvk6djjmodt7Q74AjFhN7FSxtlH2zG9Rs272mOW6kliGu9Ea1fDDAfEv+m3nvb1s7H94ecRbGyLXdxJWNxW1BwwuV/xIrYxBCETtRRAOuBEHHPueft0Ku+RQrE74frSdxHq8gHtv4d18x6EO7uguhxo0ovREnZD1cNwRtrR6JkFy9xFORMv+QAlkYgnksjmNvONY489Fps2bcK9996LDRs2iHnnnXeeiH+pqakZOQtMMpQ9wJ5UUXg8MFYVPcMwYwfdMLF8g3/Q9YZihSEBY1ElhCIGitwqplfZUtbZ1RxGc6cGyQz2FLjohRA2pgRr1C86EcKNQ3UgYCvB1JoCFHsyS76i1a5DZPV7gLdNZNbqQz8DWSJhQDgEMxKF0Z2+WVIUyE4HFJsNHfCgy/SgyqxHGDZ4UQDDlGCXolD0INr0IjzrOxpdhhMqNPjhQkSyifM4syqKsw42MH2KWwgyZvTRg36EV/y755owDEjREPRACB0bdqDts83QfJT6W4en0g1XecGQhEZ/nRNNtsB+/HkoOeYEyHZOKDRa/PDHH2He6kdREtgN2SSXPlNYfkm8fDbvYtxz27ycCsux2l+Lt6vuk3dzYoGpOeDoMXfMo8GQLTDkIkYplO+//340NjYKVUUB/T/5yU8wdepUXHnllblpKcMwzBghGM7MEp2pFYaGkUgUWSBBkSX4gnpKFisSNW1dOmSJrBtSIp9V8mh1bCiKLB5A1OpCpzW1k1/bEMhYwKjT9oPk8kCvXQetaRfQ0QzoSbE8IqgjtXtJgkX3+WFQXAONvHeLHJMKN4bC0FUVziIdiqKJ2B0SJ37TgYJoBxyhOqihAFxmLa7Bp7HtAWhHMTZjJirQhEm790DZraOd0iRY7VD2OxgFp1yYcF9hRhaqAxL56EVRZ0iKhmOxU8LyZojUuqUHzEHpgXNhhCPwfboKCJLwHhrprDGmpxRV194MtZBruow2v/j5wajdORd//t8VcHftEQlMWgun45gz5uG3J3HBUFPUJcqyBSZPLI2rV6/GggULhOWc/j0QlJFsRAQMpTujlGh33XUXvvGNbyTmU0N/85vfsIBhGGb8M8LvEG9Ah64blGtJfNaN5E67KSw4mbzXfIEw3M5Uy05/KBWTxGTRoqJTasoqQstfALZ82rOzpExQejAkgqtBUzpI2LS0wFYiwbBYEIUFZV1b4Qq2JDqoyR1VOsJStKMUH/XZlBkJQf/0XXR8+i7U+QfDdcK5kAu4QzuShDevhBkNQQoFxPWRegGSItdihVQNnVw9hhTb0huxZZsdjgOPQcGZX2XROoaYNrkAv/jtSaPdDGaMsf/++6OhoQEVFRXi3zQYl87ha29i54csYB5++GH86U9/woknnohvf/vbifmUSSDu28YwDDOecVhl0akys6RzqO8X9xUnSwy5kCW7XkQ1A5oehSKTBYbm9HTgyMs6U7bU+TFroirSO2eKpMYSClBrnEedBRx1FkwacY9GhKgxGrej/u23UBBeHxMwg9HRinD5FNh8TXAmiZfhoq3/CJ07N8J+yPGwLj5a+OkzuUXr6oC5awOkUJIbZTpvdHIpo0ylJGT2AvvBx8J90rlQikr3ajsMM6JIVLAoy2I729vLEbW1tSgvL0/8OxcMq5DlzJkz0wb3U0pRhmGY8Q65eZV5ZDR7s5PUhAaUVRmIaKYQMqUFPY9mTdexszkMVY7HvaRKp0zd1GLbMrC1PoQZ1fYhiZjeSBYbYInFpshT5mGXvhnzjHWZfdkw0Bm2oiSwKyMRmBFUS2TFUqBpW6z2zdFfhs01virdjyWia94Cwhm4hJEbpKJCKSuDFiBLjRm72IeSDMjuhOe8K9jqwjB5xJQpU9L+O5sM+Ykwf/58vPvuu33mP/nkk1iyZEm22sUwDDOmmVXjgLNvEephBfCrioSwFuvKUxpljzP2aCaT+0eb/N2d/L1N2ByLK6F4mvr2WKX4bGAaOir8W4YkRDzeHbGg3yxiRsLQvJ0iOsh493F0fvBaYllTSxCvv9eGNRuyVaxz30VcN11tMbexTDAMmDXTILm6Y7KGmMnU87XrWLww+V0GJttTnvHQQw/hhRdeSHz+wQ9+gKKiIhxxxBHYsWPHsLc75KfCT3/6U1x77bX4n//5H2F1efrpp0UsDMXG0DKGYZh9AbKULJnhwoxKFYrU/zuGilVblZiFhcQKTTTPZZdQXqigpECB266golDFrBobKossCfexDbvj4iWWXSy24b5SoVe22n4xTVUMgvtDOkLR7AgYw9uOQngHrg3TC6sRGtT2Ig0wL+07nOIs/IGefXTswBuPvopzvr0eX//vbfj1g/X47//diTO+sQ4337M947YyqZjRSGpCh0HQZQvcFWXwnPNVqNPnxiwwGaIuPASOWQuG2VKGGV0oqUEupqFwxx134OCDD0ZBQYGIRznnnHOwcePGPhmFr7nmGpSWlsLtduP8888XSbqS2blzp6jl4nQ6xXaooL2WYSFaSvzlcDgS9V+ogCXF0ZeVleGGG27AiLmQnX322Xjuuedw6623wuVyCdFywAEHiHknn3zysBvCMAyTb5DQqC61ozpHrvkdvp7Rat1UxOuLYl565yCTaK7IWjZIvRlTFgKKaspoenYEDGWhsiAirDuZkuw6li7T1JDFi1jQ98V+WNFO/FKrThmrI5310Ro/rrl5M+69edYQWs30l4GuXxQLHMdfBJncDRUF9oVHIdpYj+CKpQhvWQujsf+CqXJ5DUq+em322s0w+yBvv/22ECckYkhw/PCHP8Qpp5yC9evXiz48QSKCLCRPPPGESP9MRgqq0/L++++L5RRkT+KlqqoKy5YtQ319PS699FJYLBYhTgaDClbGQ0/+9a9/4YILLsA3v/lNHHnkkTjuuONGTsAQVDXztdd6zPMMwzBMdtE0IzV9LFXTMGQoMmUj6y4WGe9P0vqGCtnUhKUnnXiJGhSML4kBcFmidM3ZaafsKRZtoExTQ0EEdyfFTfYWJuYggqfvBgHJ6eyjaQ6qasfKhr4Kc/vuCDbV+jB7WnbrNAwGpaXWN6+CqUUgl9VApQKjlgF8EccQRjgAbVfq6O1AqIuO65NUwVJZDctZXxP/9i19Bv63XgAisex6AkmGdf4SFF18LRenZPKbXLh8DXF7L7/8csrnBx98UFhQPv74YxxzzDGinsxf/vIXPProozjhhBPEOg888ADmzZuHDz74AIcddhheffVVIXhef/11VFZWiqxit912G2688UbcfPPNsFoHfn6RVae1tRWTJ08W2/rud78r5lMdyeAw0qvvlYAhIpEImpqahBtZMtRAhmEYZu/Q05g0yApj6BIUyRA1YWLrSXDaLPCHAA2KSLesSDqk7uWGqQjLi6gRI2JuaH1ZZFLLBhQ0D6cL8HYM7XuyDDODgO6MxIuiiHYohX0Lu+1X7k0rYIhf/GE3Hrx7LkaCaMCP4LP/ByXYlphnbF0N7aPXoB56GqzzDs55G/RwEP5XHoO2c7NQvqqnAGppKeRpC2GbczAkOX1iBxqB1da8A2PPRiFUM8rA5/JAKixH5//dAXQ09CxwF8F24LGwLTka7hPPhfOo0xBY8Qb0xjrIBYVwHHIc1JJY9iKGYfovlpmMzWYT02CQYCFKSmJ1ekjIUAKuk07qSYU9d+5c0Zcndy8SMPR34cKFQrzEOfXUU3H11Vdj3bp1g8a/k3fWVVddJdaj2pFf/OIXxXz6LtWPHDEBs3nzZlxxxRXCjJRMvOjacPM5M0x/aOEg9K524bYguwqhOlw8MseMe/oLFSAfaI0ESVIPcvYkFxTJxLaGMJq96F4egYWEDgwYUGFCFVYXqyqhqtia3XvIMGFoOgItXQh1BsRna4EDrgoPFGv614xkt0PxeKC1t8dqxPReHv+HwwHJ5QZaW9K7LskKJLsDlprqmJjqRWek/9dcZ5KLXi5p69RhPPV7OECZuGJFIGO5s8mfT4e2/HmRbcs6bb+c7N80DfhefQz+998AQuHEeYwoChS3G7bWNhgbV0KaOAdK+RTo29fD7GwBVBtgc0LbsR4I+MRFKbvdUAoKhAWtXxFjAuEduxD+OE1crK8D4befRWT1crgvvh6ywwX3MbEODcOMJ0xJFlO2t0lMmjQpZf7PfvYzYQ0ZCDI4XH/99cJ1i2o3ElSrhSwoFFSfDIkVWhZfJ1m8xJfHlw3Gvffeix//+MfCleypp54SsTZx8fSVr3wFIyZgLr/8cqiqiueffx7V1dXckWQyQgv6EOlsE37QluJKcQ0NRjgURHDzx7GCaElINidc0xdCtcWCwhhmPEKZySjYPzrImFChU4K1229s1gQnqguDqG3wpvT1bYjARASKasfkSgcKnHtXl6P3S9G/fSfa1m5H1BfuyW4mtaNzRzPK5k6Ao7SXmxa5sDkdkFQVss0Gg74jKrknrUOd68pqqFVVkK02mDNmQQ+FoO3ZDTPoF+tKNisUlxtKYSGkNG4MtNk3alNfvMlkK7mVQZ17qkjvdIm0wcmEIibWvPAODjT86NrTAm9tI0IdPvHudFYWo3B6FZxlHmjvPduvgNFam6C3NFL+blhqpkB2Zu72Rr+H79k/wk+Djr0FoK5D7+xE4PPPYS8vgbyjFsKpT1FBOSMQicT8D+k9b7VCovXb22H4/VArKyF3n/OUrcoqInUNQEfLwO1qb0Lg3w/AfSHHuTDMUNm1axc8nh6LcybWF4qFWbt2Ld577z2MJCSOKHC/N7fccstebXfIAmbVqlVCNZGJiWEGI+LrRGDzp90JXGOEd8d8qJWZB6GgoK/Lh1gn6EdwY98K3IQZDsC38WMUzDsESp74jjPMUKEO7vQqBzbtCfY70k0D+PMm93RmQ6GIEC+x7/faHt07eggy7HvjPdyHjY8+AX3tdkS6QlDtlpTqNHpYQ8vne1C5ZCqsrp4XrExWFasVWksrzGhUdISNSBShji7oAcpQBlg8LrgqYi5voiAi2ZCsFsjTZwGRYMxCM8j42YYWF7yR/p8Rhy8Zfq0YEgaB2q3Q1q2A2bC920LsgXXeAbAtOBiS1YbWTgPL1oRxiP8DtKytRcfmOvE9skqRFca7vQH+ulZUHDATnsnlCPztDsDhhDrvEFjmHQrD14mupf9CaPWHgJ9EG1luZEjlVSg673LYZswftJ3BVW/B/+GHAwfeRzVo/gCsThoUIhMRiRZy76O/4mhjAo0EC2V7i0Sgt7RA6h7EjP0MlA9che4LDCpe4uh1tTA6WiAXlWV83hkmX4ilXMnuIH98ex6PJ0XADAYF5pPh4Z133sHEiRMT8ykwn0JCOjo6UqwwlIWMlsXX+ZCeIUnEs5TF1xksDofiYI466qiERebPf/6zKMtC/y4uLsaI1YFpacns4cTs20T8XgTIgtJPfiJ9y0p0Ne8RL3RycUiuS9GfeElgaAjV56a6K8OMFUoKVEwqs6Z9BZJ1ZtE0V6yD383WPe2DbrO2rkMUtNxbjHAQ0fYmOD99GRFfCLIiw4hqMCI06eLfkgJooQh8DbH4GLrHDYpXcbvEKD4F8UuqgojXh66dDYi0e4WQ0YJhBBta0LbyM4S2bI5ZYenxYHOiJVqAoNZtQaJ5/fTL67ss+Nnb/afgpRih6y+nDGWAEY0ivGcXwo31g9bHoeUr13bhyT+8iW1/ewgNH3+GhtYo/FEZhrcNwWUvo/3FJ/DM653407M+vP5RGHp9nRAvskWFzeOEardCddhg9Thh6DqaV21FlIRbNASzvQXB155E6y+uRctdP0Bo2VLA1yXEizhc04DRVIe2++9A52v/GrCtGrlrLX8jJVlCf+j+YEysUGwSubiRW5/IzhCLnyIBE3cVJ8uZGQ6LKQFlGiupge6N+dhnhK4hunNL5uszDDMkTNMU4uWZZ57BG2+8gWnTpqUsP/DAA0U2saVLlybmUZplSpt8+OGHi8/0d82aNSLuPQ4l8iIBRZpgMCjlcjxmh7bzve99T8TB1NbWJgL6h8OQh+Go/gsVoaHUaRTUQweezFAUYbYh/7/eJqk5c+Zgw4YNo9amfZnAtjWDrqPv3ojO+u2xF6eh9WRWymD70fZGYPKcLLSUYcZwmmZ7GG6nF526BQHVI9yeitwWlLgVWJJSjlH8Yab1YHY3dWJq9dBHvYygH4F3/w1QJipdE/7YkeY2mJoBWLrr1MSbRG0xYtnSAs1euCsKEA1GoIciMDbvEsskhTrDSuz7lE2NDoA6z93HoetBdKz6HAWGDOfCRaC8BHLYjxBUWE2K7zFBthkaI1Hk2NgkbeKVreV4YPX02LK059XELf85CVI4jG23/wihVStTlsueIky65S64ps5ImU/H8uzrrXjv/TpcZL4DRdLQjmJoAaAtBFSVFaDIZaBzw+fw2SegUVqCiAZ07WgUx6bYLNAjGrRAWAg8kTlNVYTg69rdgqLpVQg1tohzZFI8aZLQ7PvTmvC++gy8BZMw6bAD+yyNdHUg/NKDCO/pP1Vx72MTlhe6wLqtXgkznkh1Z8TmKUoilTJZz2Ani17M7YyuVzPD2hCJ/RpDW59h8ofRT0N2zTXXiAxjzz77rKgFE49ZoXTJVJuF/l555ZVCSFBgP/Xhr7vuOiFaKICfoLTLJFQuueQSUb+FtkExLbTtTFzXSKjEhQ7FwJxxxhlCQ3zyySeJgP4RETDxTAUnnnjimAzi32+//USqtziZxFow2cegYmda0ujcQOjh2Ms5KdhtsJoQsZVGJgCXYUYDraUBvjefR3j9JzBDQdBrwlFUCvdJ58A5MWaKTyZCIiBDuvyRxDM7E2hd/4sPATs2JKVvjnViqUMu5ol3tdT33U3rhCIItXfBoICepKxjpmbGxEu/O6Z1dHStWQ9l2gKgvAaftoTQqRXAb7pwUMkOTHW2QZUMBCMSdnvteGFLNT5tLkWBSxZt9Pt1RLv74qoiY/E8B/77qkr4312KjT/5TdrdGt4O7Ljhm3AedDgm/fctUKjTTiOTtUEsXdaBxcpOFJpBeOUiqJIsXqTRqIHGVoo1skPTJEzzr8Zyy/4oVjoR6egSFqpwexeigXDfyqOyJCw09gIb9GAEslWFTgKn5zSkRYGO7c89D/e8RfC4EAu8l1RoTdsRePlJRClBAsWxZMBQq93HntlJv3fIB8PhAayDd2h6dipBmRirD8Ew4w5hwcyygBni9u677z7xt3e9FUqVTDHtxK9//WvIsiwKWIbDYZFh7A9/+ENiXXr+kfsZZR0jYUP1Yy677DJRDzITKElAIBArMkz9c6ohQ5Bg6p1NbSgMuXf/5ptvYixDgiUTnzwm9+k6MyXxcu727063nFNFMPsSWnM9Oh7+LbTG3SkuTXpLA7yP/xGR2k0ouuCKlO+Ew5lXRyciUQ02a6oFvT98j/0GRuNuGOQ21D3CHgvAt0K20D3bYzlN7WxLMcuDldI/i/Rb6StXDoIZ1dDxzD8AmwOzIiYMU4am2EQHvsmIwpQVtNuq8HpwCT42C4XrWiRqQicLkAQUe1Tc+O2JWDjbLdrf+Pe/oO25pwbdb2Dlcmz86lkoOuIYWKonYMdmDYXeiSir8AGUzCvpeWWxyDAiERi+djjlIKaZtfi2+xFMtrZijyQh7A8JsReLL0k6W92WqmBzJ7p2NMFVVZgQh4NBWyiP7IH+6O0IGrEOAl0v4ZYO6BGyjmSe6ESxdccKJeesFm2Nt4WypnUfL8XDUEayuPUlTnsdLKXliFLCgQygOjiWMn5fM0yuMDN4jlA9FopFoak/pkyZghdffHFYbaDYF7LwUPYziqV5/PHHxXxKqZwcj5NzAXPsscdiLENpnmtqasQPQkrxjjvuGLA2DalNmuLsjRpkesi0MFufWyv+wswAykbGMOMR39J/94iX5Noc3fFiwQ/fhHXOIjgXHjTskblM9UN4wyfQ63ZAp4JjSVYb6qyTC5G90AFfvQI9oguhkmzV0aPU0ZVgK7ClWkyHVvMyqTExS1Rs47EOe+zfgD2wBRejFgfKa/CE5UvwmQ7YrDLmTHfg4jMrMGd67Hnh+/RDeFe8F8t6ltE+Q+h46zWohcUo1mw4xbBACpXCcAWghrpEXRTDaoPbY0GhPQTV1EUMCZ2GadJuSJoEq8cBX11bL/ES/xs7GSZMdNW3w1mVms50MArkECyaT8TSkFgkkUTiRVhUomGYGYoh1dktRsyY451J2dSEOx9NJqDGxC7tRyQs8HiEiO2NRLm6XYWAf5BYGEmG49wrh3SsDJNP5DKIP5+gDGTf+c538OSTTwqL0IQJE8T8l156CV/4wheGvd1h+VdRtgKq3Pn5558n3LaoNgz50o0mhx56qKgySnEv9fX1Ih7m6KOPFmnjyPcvHSRw9jaVG9MXZQRSHLvIpYRhxglUTMzb1oJoUx3M9Z/0Gv3uRogDqvFiwLv03ykCJjmYfzAoe5na7RY1GOG3/wWju1qynPQd0ck1DKg2i4hv8TV1QQtrkGnjFAuhG0K82IscUJ2UvWovxUvyfvtZRhaZ+diCXxzwIbRTv44Cl4qSolQrU9eHy4YWaE6YJrSAH6HCCYj6gyhv3gijWYO1u1OvQoPUokCrLIZSRL5chqhzExdzsqr0tDrZpJz821LcfDAqXMyUAkff3z6lPT0ng2JoKPOXEE0mee7G4mfo3McCizI74aKtyftUuq81EizdliYSrBS7IyxJUUPU/lHLy6AkuZ9JMOA+90r43ngaqNuefmcWG1zf+CnUIaSDZhgmP5k8ebJwQesNua7tDUMWMCtXrhT+cRT8c8ghh4h5v/rVr3D77bfj1VdfxQEHHIDR4rTTTkv8e9GiRULQkNnrn//8pwhSSsdNN92UkgWBLDC9CwQxw8NSOQ3RxmFkCkvzwqVRxOTumbVyGlQ7W2CY/CcUDKK1cQ/07kxRkrcdajiUdC8k3w8kXmKfdRI6SRYRu63ncS60j2nAZgYhm2RpkBCVbdAki+ikFrhsIh4kEwxvZ7clKM36VM3daYOtyAnFbkXYGxTplKnJlgI77CVO0ZGm+A8SNHsjXkSAv9hnmoVJzwc6bnPzKtR8sRWWor7uCZGGuliWraGiRVEo+xHQuyAZGgzyqFIlWBU6LFXE9/jr24SAsxbQ+eiJBRHnwBIL1o8dTKooJX0Q0w4UExRbh+JgjEHcAoVEUenc6rEMZUb396mwKFm/MvyNSdGSZU9SraJAJaVDlmmDlDHOboehGzAjYfi37YTW2ZWIYwqSG5nDDveCubCVxip7w2KBUjUFhRffAK2zFf7nHgIadsSWeUrgvOBqWEoqhnLmGSYvIfdVYQHN8jbzka1bt4q4G/p7zz33oKKiQlhgSNyQEWREBMwNN9yAs846S+RwjgfIa5qGq666SlT4pBzTYwXKaT179mxs2dJ/mkbKoJBJFgVm6LhqpqGjoxEIJ7l6DEr6Hg65aSTiY6xOOKunZKeRDNMNdR6Da5fDeO+5RAdTg4yOY7+DPVoJ3l1joK2LrsUIDsRnmOZsxaQKFXbZQLCxDSYUqEVF8Oy/GLaJU0TR1sH219JQh6Av1W3VDFEl+3462MINq+cNFoxosFlUKLKEts54DARgNYJw651QERVODOK+MiREYINXLUVlSWnm50UUkpXSBvzTPMWiig67JAWhuh0ooPcCdYi7s2gpDhu0Ln/s80Dmk4wblH5mT/tM6IEAIru2w1LVV8BQ5XeRBngYu7abIcDwIwoLVOiwihTxMp0dYWWJ1bLxwzGhPMW9ikSerKrCYiElxc3ErB7d4ozOpVWFalFi1hSy7pAYSZfymr4jxIsigm8pEQKlgiaRmBB6BqWm7445SjpYIZLEOqZwMxNpkemv0wm1qlrUekn+rWnNcERC+PMPoXX0slwZBgx/AF2froZ8yIGweAoAT09NF7WwFIVfG36a1NEg0rQbwaf+DPhjqb8FZdUouPA6ce0wDDM03n77bWFgoBgY0ghk8CAB89lnnwlvLnItGzELTLJ4ERtRVZFa+aCDkvyxxwA+n0+oPUr9xowORfMPQ0dzPbA75m64V3QH+bumcBFVJrsYWhSBv9wSqzeS1N9TTAOlb/0e1N2fAwnNqEQlGmH4/Ijs9KLjlWYEmrtEx1SMpEs00q7CM70aRQfuD+u0OVBLK6GWVUKtmZLI9ESdyMbdOxEmsRJHi0Jqb4GyjmonDdS97hZXJTXYvLMTTocFHpcFrd5gLFTBDKNAb4dCbk2p/kqwIoRirRHBYCFs1gzddxRLoo5IuoQa1Ne1FblhLS9HxBcQYoUaorpdsE+oFrVOOj/7HNF2LWFdyDoiFr5bxHSnAxad9zS4DzgYodrN0Ki2yhCRTF1YXEKSIqwwIpDdQkUpe7zdyY0u1V4MuGtK0L6pDoamwdQpfTSJnu6md1vZaFueqZWwFhdAD9BvqUOy2WPnTGQS67km/LITpmxBsT2WYSwuXsRGFUlYeiJd4ZiLn9MCi80Kg8RGlPZPMSzxDEkxt0CLwwalukYUFBXE464MHWFDht7c0CNe4q5p8RNPVp+IhsDGLfAcvASWaYuQr3iXvQJzWZpA5ZZ6dN37Q2DKbHgu+E7G2fuYfZ3RT6M8Fvjv//5v/PznPxfeTsnhHCeccIKIjxkuQxYwlCOaCtzMnZvaidy1a1e/cSYjxX/913/hzDPPFG5jdXV1+NnPfibSv33lK18Z1Xbt6xSVVwPl1fDVrofWEctBHmfIA7KmCYtr9GoNMeOTwN/v6iNeel+YNNru2b0Wez7fhVBbV8ytRjfEyLvFZY2NhHenFe7YuAtSKADnpjUic5Zss8XiEuwOKMXl0OcdgEjlxFhHSNchb14Ned3HkLxtfYoOpkvaRW4Jgf2OEuP/gVBUTPH1HLo/IV7MRFGWnq3QMn/DdtitM2BLitPoD2X6XBjrP024q6WGcNA+ANVmhbr/AXDqGnQ/BbYDMrlQkWAzTXiWLEDX6vWItLT3FTHZsMrET1B3wygA3Vqd3hW44JAj4f1wGbTOToDSvWeKqkIhdyp/FxwWCWY4JkSEcBXxIt2GO2H56DnzhNXtQMmcCWhZuwNRf7jbEtOThIxczJyVxShbPBOKxy3STus61WIxITscUCur0RVVsWNPGGVuHXt2dKEqvAOSFBUiJe4SJ6x6GxvRVd+ZSE9NbbN57CiaXASLLTkeKLZzagulbJaVmFVKSvlRJEQ0CfquXbGvpCQg6P43HahhItLWgYBhQUlpLEA3HzACXTDJAmqxChfOtOIlmR2b4P3l9ZD2Pwqek740Us1kmLxmzZo1ohZNb8gK09LSMnIC5sILLxTxJP/7v/+LI444Qsx7//33RaXN0RYKu3fvFm1obW1FeXm5SN32wQcfiH8zo4972nz4dsrQWuuG1H9J7V5lo6fDMD0YAR8Q6Br06mr7fBeaPtses7bESqLHvh/VEQ1EYHXZRAdftanQQlH4mrxwlLmFkDG6LS3UWdIpxezmtSKGy5izCPKOLTHhQm49YnR7gFCPpITFkcruisrdNQZFyIJpwEpuTv1sIW4lUPUAOrZvhK7aoFkKYHEVoqjADqe9b1pl5xFfgHfzOpiU0arb5Ui0QbgiGcJVTl1yFOyLj0R0zTuxl0pycUI6J8XFKDrmCESbWxGo3YHQnvqYe1S3G1UmqT4zQVhC6Bx2dUCpqEm7jqWkFNVXXoPGv/2fyEiWUZ0UWYa1ohKyyw2zpRlSlGq1WPrEmIigdkfMXaw3RTOroTqsaNu0B6GWLiF0qa0Wlw1lC6aiaOEMqJQIh+JPqJxK2QTIcs92qOxos88PFT5UoQV+w4ESxZ8o/Em/Rd0nOxHqSE1hTxafUHsQzYEIyudUwBL/jZMSAej+IMKt7bBXJLkWUiZJTYNd0eANdV9TadLcJ65Kw8A69RAck2FyiNHEoCKfq96DtnUtjI4Wka0thbTH2YO56j34ZAvcJ5yT24YyeQ1nIesJ56DEWtOmdb+zuvn0008TGclGRMCQcKEXDhWiodgXwmKxiAI3d955J0aTxx57bFT3zwyOe/JcaNUz4K9dCzPuY0wjmN3uHpkUsDQNyrAz9l+STH4QWr+i78xe/emwN5AQL6KDTB1GqmvSDbnsaKqW6BxSwHY0GEXEHxbCJh0kbJTPPkid2R2/0O+1H/+uacC19m10HX5OLPuYEksWFX+9pVpfur/Tqy69TlYCLQSrHkZQi2JXsAgVRQ4Ue1Jre1BAtuPwkxBasTRWB0bYfWJblFUL1Kqq7hoiJuTySTAatwMadWj11DZLEqwVZbBUlMHd6UXHh59A93Z1K6/uYxcV4M2siJimP96F6v/4Sdp1bBMmYdL3f4rg5g3wr/kM3hXvIly/m/Lqx09kvNGx2JTCIshOtzj+mBFCglpWDinQExMSE7YmnBXF3RnAekHJEyaWwVVTgqgvKNZXXHbhekeWHZGmODmblxC0yQdmoqogisZWGRLFM5kWtGgelJmtYpl3T0ePeOm9e5Nqc+nw1nWidEZ3jEr8NFO8kmGIFM6WykqotE+LXQTwiyspYsAkN0LE0mj3l67bgIxwwfBrOowUhq8TwVcfg7Z7CxDpp9hy3P1wACGjf/ImjKNOgzyUwp3MvgUNzoxyIcuxwEUXXYQbb7wRTzzxhHgPkDsrGT7Iaype1HJEBAxV1KQMApR+mOJLiBkzZsDp5IxQuYR+cN3XgXDzLpiB7qBfeslYHYCvA4iEABoNtDtgKa6GtXxSSsrTsYRqsaBw9hIEG3chXB+7huJkcmtG2ptgK63OWfuYfQuTLDCD0Pr5rph4UWXhHpWwGCSZD/VwNCFg4rEYiYDqLNDbUmnf+qkQMD3IoFxUhiRD6bXbtOOA1DlTVBHL4dS70GU40dQRy2bmSMpoRsdiP/oMSEWl8C99FprXK6wutpIiqNUToNRMgqRFoW35BOrcw0UmK6N5J8xISMR8UGhGUHFjp2shCrRWTAqsg1rogeeg/eH9aFXMZY4C4AMhEaORDei8h9f2uL2lg47BOXc/MZV/6eKeIpB7dsG77G2Yfj8sk6cKDeFf/QmiLc1QPEVwH3AIgutXQ+toE795LGV0TPTYSz1wVhX3bU/337AmC+Eq6RoUupCCIUR274HsdEIpLITscok4FMlTDkSCMKMhQKUU1KawgLncFqxpmIGp2m441SCaox4USJ2wIIrOXW3xH7tfgh1B6JoBhdI6xwtVdgtHOeSD5qqEY8FBFMgTE6B2F3atq4NUsgu2rvUpAiZxRdE5BtBpr8R+c8Z+WuTI2hXQ9mzrX7wMoS5ZePUyOA46PrsNZJhxxi9+8Qtcc801IsOvruuYP3+++HvxxRfjxz/+8cjWgSFIsJBZKP5vJrsIX3p/J4I7NwCBpGwoyYT9qZ/pHeqPIOrrQHTX+tg8Vymccw4SsUBjDUflJFhLKhGq34Zoa33G7mG0Po16WQq603YyzF6gTl+A6NrlA64Tao25mMkSxbnEihQmrtZ4LINuJjrMFB9D7kXkTjZUBhLxyfEwcjSU7HHWvVBGQHKh0CRLgZGwwnQ7fSW+Kz5RuXoRT6NAMqOwGUGQg1InWY0sioir0XUD9a0Gwtu2oHDZ8zDrdokYFgo4D/k0FJROgNNiE3U9EPDCaKuHZfZBCFfPRHjrOkT31EKJ+KE6ZJRG96DeNgM1gQ2xDF7FRShYMBf+DZthhMKQLIpwWcqWl6ipadBammApr8z4O0KsTZwM+5dTE78UnfiFFDEUaaiHd/k78L7xPEx/FywFTjgqiuEoL0wkaohDY/k+awmiphVOby0kinkSflv0wDYSRUGNjg5Kiwm1eiJcJ1wKtO2BXr8NpnjOS1AqJsFaMwunLSnFZ/9sQGn9cnTpdgThgEUKiuQB/R9YzzVqCAFD12XqifZbS1Cx5BhhbUpm6uFVeHy7HUfU3QlLNJYhLzGqLMQLiWYF9QvPx6KKzAoYjxaUClrbvFoURM3wGwPekUb9zqy1jRmHxGsrZXubeYRpmmhoaMBvf/tb/PSnPxXxMJRga8mSJZg1a9ZebXvIb1dyG6PCj9QYagThdrtx3XXXiaB5cidj9o5woAuRTStjo2BDpXfmHX8rAp+8IkZb7YtPHHO/j2KxwjV5LjB5Ljo+fWPwLwgXEx2h+lrIFjsUrgXD7CXWCdMxcLWNWIarPtchqQcxeh2f170u1eDQdDjLCkRa3FwgdqVFYG3YCq1mZrdFiLKgAQG5AA4jABsoboFETN8XngFLj5tTtxqTTU100Dt9EfgCGtq7ogiGTbibt8Dz4v9B93WK45GsCoxwBOGGBkRebUG0pRWFhx4srDlmWz281mJE/v0nBDZtRbi1U5wjyaLCPqkG85bsj+2lB2Bm4DOxa1tNFdSiQoTrGxFta0eEAjojUejUGc9CXExo+5YhCZiBSLbkWKuqUXbuhSj+4lkIvvAA0NQd5J6M3Q1t7lFYVWfBVGcLbLWfxQQliWB6tpsmjIgmAujpeqFaOVIwDDO4GZ1/vg3OL14M6/7Hx1LIU+wRWWJITAE4+uIT0fHvehQ17qZiLDC7lO7YpEHOmcg61iuxA1l3ZBWfV5+GOb3EC2FRJVx40Tx8WHAtyt76IxxRb0K40P812Ya6+WfhhK8eg7GOGfLDCPqG+KX+rTCSe3SLdzPMWIfeTTNnzsS6deuEYMlmncUhv11JqDz99NO46667cPjhh4t5y5cvx8033yyC5++7776sNW5fI9zWhEjtZzRMNrwN9JM2NL4stOo1RCpnwDV5DsYihYuOReead/s/DkWNLVOtMLUIop3NUOxcD4bJQsf02POBt59Kmpk6QO0o9SDU5hOunBRzIrJMyRIMkbK3+yuyBD2ii3gCCsz2TCgaeluGsq5pouDdJ+E7/CyEJ84TekqWFRQU2GFVpiLYvAs2M9DH+mJQwIliSetSpukGdHK/ikiIaiYKbBqK3v8nok2NkB02GKGQqHUSH5im9L2dH34oMnN5Dj4QemMDom+8iI41W4R7lRBWtKNIFL4NWxHa04Ca03TsKFmIKZGNYreK0wHnjKnQSgqh6BEYqg2BVh/g9/bJyDZUWu6/C47ZD0It7OvWlQ0UmwPOs78Fbf0KaJs/hRn0ixTEZC1RZy1Go2MGXvrYh8Oca3GY3yfcfGWytmg6Il4/zGjPsz7+1ItSIcxwFP7Hfo/A5NnwnPYVqBWpga4Uj1N05sUIffw2wqs/QDTgha3QgWArpbBOHwNDWBwWKCLIJTnOQ0JL0Syccclh/R6nxSLjyHMORejIaWhb/j6Cn30gLHHRqlmoOOFETJszE/mAZLVndQTbtv+RWdsWM/7gIH6I7JwkXEgf7K3FpTeSOcT0L4WFhSJYPrnqPfHiiy+KDGCdlJoyj/F6veIY6TgoZXSuIT/AwNZVgLd57zbUp2J3/8juYjimL4ZsG3vWi6i3DYGdG2K+3wLRK4v564s6MBIUu1vU7ZBtdhTMWDzKLWbGCz4K5n/rmdS7qPtDsNWLHUs/E5mjRGyZCITprnzeXWhQsVtEDIyj1AVX+fCsL0N9NRkOJ7Syyeg45QqodrsQVxPKXShwxup++Lw+BL1tMEM+yHpYBGNHdSk22p84RkPUN+mylMNvWMUhi1IhkTBcf7sbwZUrhduRCNJXZJEy2lbkgEJpo7stTlTA0DGhEs5KD1pWrEOkq7u+DZ2fXlXnbZVlCB//ZQRb2lHp3wKbXYGtukKk/Q1t3QapqBIdIQVaRwfU1l1Q/J1p00kPdq7i/XhlwhRMvu13yDXiOCnbnCiM4xDCOBQ28KP/C6AqsgNnBR+HYkZQpLci3OFLES/psHpcImuZNHk2Cs//BuR+0sdrLQ3oeuxedK7dgPpPdvTEXfUOmpKA8jnlsHscPW2WJDSXL8Ks674HT+m+UaTR/++/Qtv46RC+0Y8bUGkVCr9+Uzabxozx/tpQ27Xt8zVZLy/S1dWF6fMWjrljHojnnntOGD3IwLFgwYKsbXfIb1iqWj916tQ+8yk9GgX4M5kR6WpHaNOH/bpJDF1jZ65DDV87QrWrYZ9GIqbnZTYWUAuKYauYiFDD9lgQaTwLDFmlhLuODL07e5ke9sO/cwMc1dMhU8pPhtkL3PMPBeYfCt/WtcCrj0M3o4kYE3tpAcr2m4KWdTtE2mThqtM9ZkCxLs5pE+A5+XioVHywo0n42JtkPdA0SN0pmgdjyPc8NU5SYDTshvKn22AGQlCrq2H5zg3QJRcCG9aJeIXCWfOh2mtE7RctHIROWadIdMlUbtEQ91kQdvh1C8zuTq9sRIH7f47A2s+6q8R3Z8rVDIQ7Q8LS5Kpwx2rf0H+SiWhzM4J6GFF/MPaddM82su40NsPyxj8h2QrQBQl0duzNAZScdBqsAR1aayNcrnJ0GKWIWqyQdm0QaZllLZJxdELynvU9OxBtaoClogo5t+T1qtRut8moLpMQrHdAgwq76YtZpgYRL0Q0GBKiGDs3I7p5Tb+j/WpZFdxnfA2G/iDCXUG0bWmKZcjrJV6KppXCrJyEiBEVgjXsKEbw5Kuw/3H7QUkKpmrp0NHaocNikTCxQoXVkl8jvoNhO/QUaJs+G9hjIZl04qWgGAWX/FfW28aML8wcZCHLelazEYAyjQUCASxevFjoBIcjtd/Z1tadgCTXAubaa6/FbbfdhgceeECIGSIcDuP2228Xy5jB8W5ZBXQ2DujjPXDo4N6jB32Itu6BrWZsmf6pE2CjVKyRMCLxejHihiUhQ64rqS/+aGudmNzzD4c6xsQYk5+4ZywArl7Qk/1v5yaY4QAmnFUA9ztvo+nl1xBsaI65Y5VWw3PBZZhx5jHoaGlGhASCCM7u7sB3dQLN9VA/fAtSV3u/+0xb84WERvwZkWzE6O5s0n7a120FkjJ3het3YOtVF8Y+UKC2rMCw2hGecyicF30TFbZ22KIBRE1N9N8osXIITviUopSOmvnR+zDXr0kUWUxuJIkTLRhF1B+B1W2LCR6F4jp0RNq7UsRL7wxgdD4p2UikrhFAY2yfVhWRDgda/vEgPCecCrOjDZK3BbJcBMXlBhxOyH4vTJsTJtVfSaox0/s52fuJGl8e3LA65wKmP758vA2/e6IcDUoN5hjdmcsygM4niWXFKiG6Y+OA7kqWqXNQ9LXrIc16E/Y3XoZ3Sx1C7f6YMaikANIRxyN84Bmwae2QJROOmhpMmTs9Rbi0dup4eZkfm3dEEI5SwgKg2CPjqP0dOGxhzKI0HlArJ8J64vmIvP7E4CtP2w+orwXC3R4BzgLYz74CtgnTc95Ohhkv/OY3v8nJdofsQnbuuedi6dKlQryQmiI+++wzRCIRnHjiiSnrUqxMvpFrk2SoZQ8iO9bGPmRw6jN+ZWQ6mhRHtUKxu+CYfTAkii0ZYxjRCPzb14oOC2U4IqvRYBQsOnZMZltjxhf0yNS8naJ3TIUH4x07TYsi4PXC294KI7mQY+xLkLZvgrr0mVjhwXT3uMUKuagURnN9+joivWjZVDdgzRRhILK5IFFwvmkgXDULHVfdjQUTdLgtIXT4ImgPSsIyEN+KiO3ZuRnavXfCaG7uKdSY9KwSrwyT4j8UuCs9QrzYyotghqOQrBb4dzcnhFdyp5fEi7D89G6yMCTJ3dYcCdGKKbBWlsMqU7YuA2YkAr2tVaRkJiuMIatQtUyzSMXOb+lXvwXPiadjtNiyR8MrL2zGsc2Po7h1Y0YWGMJW5IZis0CdswSeL3074/21tvrQVd8C02pHSXU5CgsGfi52dOl48N9e1LVocFglhCIGugImIlGK9TJxwCwLLj2rCE7H2HtXDBffuhXQX/x7v8utJ38Zjv2PHtE2MePLhWzLhnU5cSGbOXe/MXfMo8GQn0aUOvn8889PmZfNrALjncjO7vTGow1lwjF0mLo2JgUMuYTZq6aJlMl6KLOsMV1r3oFnwVGiuB7D5ArqlFvSZGtSVQs8JaVwFxWjvbkRfm+S6CZXgmlzEL38vyC/8yKUHZsALSq2Jbk9sMzcD475S2CbvRCBT5fD/+xDA7Yh5A0OWvBRSAdyBbO7RNILW8MW2D54Hp8fez6OmOWCHvbFguRFwEtMmKgfvAZl5ZuItLfFRIhBKaNTxZTIdkVp3qOxdNKq0xZbT5bgKC+Cb3dzzLUuSYRRsoMU8ZIc0CLS+xrd5UgkWBpqYTbUImB3oWvecYgcegpadDemrfgzPI3rIUkyorYCKOGuXqU6+8cycXSTfcycoGL6VXOx/bOvAY/eAmQoYOICsncQ/2CUlrrFlCkfrAmivkWDxyWjoUUTwsUhh7HEvQMHFmxFebAL4SfDMBQDijDrOCHPPRDW2QdBytPnrXu/Q2HMOxhdzz0IbEqKiZk0G+6zr4TiGHsxogyTj3i93bUL03nc2GzDDj8Zcs+VXMeY4UFiYciWkkyJB7lntnKsVoGsjEnxEsdSUAzZOh/+7ethaBkkhzBNdG34EM5Jc6B6SseNywOTX5AlobSyGgXFJWhrqEO0u+aE6LurKswTzoJptaKiZooo6tob9xEnwXrAUfA++Evo2zf2tdTKMvzddWkGQ4pGYNpdsWKI0Qjca5ei4fDz0dgJkW0sEctD625dC/O1ZxFuaxeuSxQeIywySiwApo+QkQGL0y7+HQ1EYC0ugK28GBa3HVFvdxyMiLMhf7ekmIzetWvi+Ud6patVQn4UffYCtI3voPWLt6Bt0iGw+ZsRdlXApGeXqaOobtXAx0+nvHoS7DPnYbShrHXTl8xEl/EtdD7428G/QIkWugWMddbCnLVL00x8tjECqwVobteF+5hHCeLckg8wxd4MjxqCRdJ7fhr6rUJdMFa9hdCqtwCHG45zr0O+3quFZ18x2s1gxi1002S7H5J//ZqioqIB+2MTJ07E5ZdfLkqx0D2ZKWO39zoOIYtHTslUxHSLFtVTllbAGKEAoh2NMAIkGiQo7mKoRRWQKQXlCENpSlV3ISKiLYNjRoLwb10FSbHCNnE27KV77/dOFbB1byu0cEhkR6MsblZPCSQq3scw/WC12lA1eRqikTACXd5Y5jxVhctTBHWQpBNWux1l3/6R+DelZQ4sew3BD9+CEfBBslhgRnfDELEmSV+SejrK6TBlGXK3K2YgAripcGSQKsl3Z1P71z8Q3R1zX5NUBWZESwTuC2uKbIqBj/9n7zzA3Dqr9P/eql5G06s97r3Edpw4vTghhdASCKGGUBbYpe3CstQFdmEXAv8sdUNZEnrJAkuA9N7sxI57r1M8varr1v9zvivNSDOaGc14xp5yf08Uj6Srqyvplu/9zjnvoe0hJJcMJZ60IkGCAJV3QmjqgH9hLXr2Hk9HXKzOJNT8M3sb8zZZTHd0z91oQFJiWPGnf4IuumCGyiGaKnRegmHyiATmw9d/euQvUpRRetfHwE2j1FLvBZcg9tAD0NrTNX4jIPvSdSeBYgiVUxdBIsGSVEx26UimKGUMuNR3ADXObjgFNVe85CMRReJXX4Pj9n8e1+DDxma2Y9soW9x333347Gc/y0TKhRdeyB57+eWXcf/99+Nzn/scOjs7cffdd7NozGc+8xlMmYAhL2fqpvnUU0+ho6PDKsqcBDeBuQDHn8VFVPZALKsF7wlCdPtGrPVIxaNQDjw78npEamAnMgtlqWR4WoLW14FUCw0+1LQgMqFH+6D1tMBRvRSCb2r6KYyGFCyF0jFGx+Mhws3UFSQb9iNF9UYuLzwL1kF0jE+A0aBLbTsF9cwxQE0OjBVJhlpluDzEpRfCGTo/xcE2MwNJdiBQXDrh15No8Fx6PdxbtkI7cwp6uA9t2/cPn6xI76AkbPKKGBITspstRk/7PTL6oikwnXHqOPQTx9mMvyiLMGQRqpZ2/ksX7ltCI13bInDMTpniK7zHCd7lQsqUETvTBUeRD566csRbumDq5NhGJ5aJ9rZKCxuyT6e6l47T4MIdUCoWQZF90HyliPKAp/f0sMt6qrQeCz/+KcgV40u/mmros5R++hto/9z7YcRieZcRvU6IDkvkel//nimNJjskDg6ZQyRmiU0fl8ASdyt0k4eLtwRuIaR+czdcd3xqyrbTxsZmZnL//ffjm9/8Jt785jcPPPba174Wq1evxr333svq6uvq6pgZ2JQKmHe84x04fvw47rrrLpSXl9tpOuOARTucfkpgTz9AU58j57Ez762iSjjnryq4ON3h9sKx6Ub2dyoahnbmkNV5mAYB6W7OgjsAuaJ+WB8YWo6JF0MHJ7sHflsaQJhKHKkzR+BcuB78OY48SJ5AnqYGWYwSdWIuRIkoYgeeZ45rzorhFuAjwcRLw/7cPhY5GNCObEOUolRLNsJVPL0GSjazCzp+pdqFUA4fZI0hR8QcFDEDe66hsbnA1LKLQBlhIS/gcYoI+Z3o6I3D2LuT1cJwspAWONTvxQEtlhoo2icDQI4zWX8bZ5EbjqAHotNhuZ3RccrziFJj2f4mBJbOh+j1IN7SybrNq5rBXLUmaq+YffSbyTj4jgY4/cVMiVFRf9f8y9C+8GoI5LDm8CJWuRbFQR5LyjAtEUQJFZ/5Frq+83loPT3Wd8Nx4CWR1RQJkvWdCvOWQqpZOKXbIooc1i2R8bcXNPZbB/kwnLwGgTNg2SoUig5D160+STY2NraNcpoXX3wR//3f/42hrF+/Hi+99BL7+9JLL0Vj4xgT1WcrYJ577jk8//zzAw5kNuPDvWA14gdfGHxgFBEjVS+Gs3LiFy+H1w/H0s1MkBjxMPuXl5zgnJ68wlPt64BJhcWOQfFibSLHZm6NVBx6fyf4khqcazzLNiJ2+JXhTxSQMpcZM5E4o8/mKBp7VKMnY1AbDo4iXnLfQT+2E0kDcJbaIsZmamn+r6+PvVBmt6X6Fy0FTlWh+4vRe+GbUOIDijzWcS2YIlpaTPjb2liEkjMyvVZM8KIAyediAkRXVJZGVrSsFoLIIdHRBy1J0RUVoodnhfU8Z0ATXUiIASgRGaEN6+FdGkYykoSY0hB//KFRt5XV5Y0CN2RSon3lTUiVzEfCV4Fo8SJW05cNlfFM52s97y9C8Ye/hOjvfwC948zguYw2mhcgVNTBd+sHzskk4UVrXNhzTMHRBgWqKcAwOcjc+Os1U8f3wLX0ginZRhsbm5lJbW0tfvKTn+A//uM/ch6nxzImYJTdVVRUNLUCZtmyZUgkCrewtMlFdHnhXnYR4oe3DT449AIlOVh9hdbfCaO4+qxrTyh1jepYxsKgBpEUpclzwWQihuOgx/ohFlextDI90sPqQzjZCWkStnM0JJcPQrAceh/1j0gzAUMEpfUk5GDpqIMC+mzJQy8N6zkzKmSte2InzJIqOyppM2VQ/Ylypqng5TlNgUn1KaV16L31X1BSHcKqWo7to8/v7McPftmGaEzHdW0c1vEOiJQgSWlfgsDSw9hYWhZZKpjsd7PzQ/+pNhiqBo5PMFVBURhPVQi81wEZKniHA363iOKb7mCig+rQ6f1OtTYjfmBf/kDqKMdMvmd4U4ejuwHNm9454ms9DitVbjojBIvhv/OfoRzfh9TebTCjYXAeL+QVF0JeuQH82aQdj4OgT8B7Xx/A937Xi8bWIPo0N8plZfwBs1T+lDgbm7mJXcRPUH3LbbfdhoceegibNm1ij+3YsQOHDx/GAw88wO6/8soreMtb0j3MpkrAfP/738enP/1pVgezatUqSENcdOa6L3UhiJ4APKsuQ+zQdkDP6i4tiEwEcJIlBAxqihfrPy/F8yNBUZzkyb3Qwp3MBjaD0nwE4ESISy+Cyzc1+4CvfiWip3lova0TdnMzkjH2vQrO4RaZmpJC6sBzQIG2zflQ+jrgKCqf8OttbEaD9Z8ZUneYF0FA0RvfgngK0BashWPlRtT5uIHIy9+e7sG9v2ljDsp0OTzhWo55/fthFhXDk+iCqWmDKVvMTYwHJ4msxwsTDNxAiRy0eALRM93wLvZAlhRInAqxKASJuZcNMu/L38SpT38EyeOHcxzJKHpj/Zvnwjzk8Wzt4+xtAq+lYKTPl0OpoMzTGQDZEDuWXcBu55PioIBP31mMr/y4E69EFuC60D5oJg+Jo3anhSFOs8bINjY2559bbrmFiRWqdzl69Ch77IYbbsCf/vQnzJ9vpfV/8IMfPDd9YMjT+eqrr855PFNoaXWhthkLVt8iO8AJHjY4sKa6rJnR7GWmzHY5D2QQoMcjA79lNqwOxjRYnYyRiAD5HNVMDdrh5xEhb+8110zY23s0vPOXI1VSieTRHSNVxIyBOWzbKTUu1XoCRuuJs94+o7cdsAXMOSMV7oF6ag+gJFlvCmnhejg8s3cShUvXm4wFCYiqd70v73MnGhO4/w8dTLwwczEeaPKtQEdfHfie0zBCZfDzEVZnwxzHVIq+eGCkqB7GgEaqiA4jZmdhnah0PQalNwKplOrjTHjWW04z2ZAD24JvfA9N3/gyotueG/xMo0VfRnJUoz5WgjRiPjg9uqRqrG/JZiiyxOH2rX7c/YtFcAsKrggeQpkULjgVTyqpnOpNtLGZMdg1MIPU19cPSyE7W8YtYN72trexqMuvfvUru4j/LKAUMZp5o5oTXnBaVqamAT0Rs/rFpIv+KT3rXCEVlUPrbYNJg0GKBGUV8UOJgxdE67mx7KBNE6k9j8OsWwm5rG7S9xGt7fSwnPiCof4R6e+UPpfSegJaRwNAouxsyHxGYWY2dZtp6JqKxK7HWXH6AIkw1P3PQOUluC7YWrDxxUyCI/tl+lxjTBQVXbV1xOf+8lQvkilrYiRTdqIKDjxRfTsua/sjKvtOQ5UlBKk+XzbhqikCJ/IIHz4JUxs+ocIiNAYQbWyFR9Pgv2ATPGs35N9+jkPtJ7+A8DOPoeXebwNKauTPKgxO6Aw9xg1eQrRiJUwxv6FITTEgzr6f/5ywrF5mdU5P963E3mgdLg8cwpbAMXiF1OhC5rLcBtc2NjY2Gfr6+ljNy6FDh9j9lStX4j3veQ8CgYmHyjmzsCrlAdxuN3bt2oWlS5diNkLRJfpC+/v7pzwdLtXeALWzkQ2oqWgcav6LuXftVeCpEd05gOpumBMZbQsnDHSZI+cx3u2H2tE0vtoQ2Qln3UrWR2YyhIyhq4jsfW64bfIor8l+V7KOdtdZTe2UpsNQKerCBGP+NRR2cLA8F/aXc/1147ZrthkfdMqK7XhoDCHNwbv5Zsw2ep5+Ame++e+juhcSS/7nN3CUDUYCdd3E3iMxPPhED149EB1wNc5EYAYwTZTEm1CRakLQx+OOG2QEXAk0/e8jiJ6w+pZkLhmsLo7+zjoUebcLnqXLUH7b7QhedvmYx7yWSKDz979A8shBCKFiBK+4BmpvD7p+/O0Rjz2TE5AMVKLhqo8hUjW8waPIA7deBKSNvGwmwO8fD+Ovzw/WupKDXa2jCx+r/gtcYp5f5vLb4Kqx08dsZu94bSLbdfjIUfh8vklddyQSwbKlS6bdZx4Nqne5/vrr4XK5BvrAUM0L1dM/+uijuOCCiaXPjvsUv3HjRjQ1Nc1aAXMukUuqWTqWSmlH2TPJQ4jueQquVZdDcrimfJvEQCl4p4f1g9Hjlt0za2QZKGW9YMYlXgglieTJ3RBLaiCXzWPrPhshYyRiedPq8kVjhr2L7GKubizy0nwUWvPhCW9H7pun30mi3g22eJlq1J7W4eJl2IDeRPTYTngX548EzEQ0JYnwn38+pniBJMOMxwfuknD51k/PoLvHqmtxijoWhBKg6YnWiAN9SWkwWsFxaHfVocNdh42rPIgt0xFsfAKp3ghSvQoSHSloCZ0V+MtBEc5iB0T3YKjDiCcQO3IEZ/7nx8xVLHjpZVA1qzmikJUOphsmjrYAR1ucSCx8L/jFQNAJXLAIcIhAQ/H1CPzys/A37845tg3BgVSgHG3r34xI5aq8H3/TIlu8nC23XuNDb9jAi3utSTUyU25MleITJ++EQwK+8k4ORXISvD8EweU935trYzNNodmhyW7uOvOaxX784x9ndTA/+tGPIKbToDVNw3vf+1587GMfw7PPjtK7cBTGfZr/h3/4B3z0ox/FJz/5SdaEZmgR/5o1aya0IXMRShFzVC+B2n1mzGUT+5+FcI4iMdQfRi4f3i+FLIhH7ccyEobO0rS0njYIbi/k8noIgdGdwEZC17JMD/Iw0hqFYBlctUthpmJI7N95VoX6uW+YPplwHNzrcuvCbKYGpfFA7gMjDei7zyDa3w3Phq2zItVVe+rXUMLRLHMbbqDRZA6qgv4n/wj57R/CoQYDX/pOE1KKAZE3cPWCblxc1we/Q2M9XRKqgL1tPjx0pAxxTWRfJd0kicPVV4SA/gOsDqbvQA9iTTGY2uD7kZBJdinw1VNPmMHzkhGPI37yBA7eex/auAuQAol6Ok5M1BUDxV5gTyOJmMFNJj3aFQMe3QO4JCCpCuh+w39AVGMI7HsYntZDTLwkyhaif94mJIvIenP4b+p3AQvtErSzho6X978xiFsuV/HAkzE0tWuQReDazS5cvj7XZt/GxsZmrAhMtngh6O9PfepTLCgyUcYtYDI2Z5S7liGTSmAX8Y+fRFdrwcuq3S1w5BEW5wrRX8IKpSdslamloIdTSIS7AacXjpqlkMdZ8J7qHuv7yhrQuYJwz18OQXax2WBKF1MbDoxLgI0o1zLChfAVw7PiYstNyWbqUbOaOI4VjdCSiG1/EPL6rZCHRDATyRRiCZVFB/weF8RpXDShxWOArubuY6N89P7nXoCoRsEXLUGNex6KSjRcU92CGqkLiYSMXr0UOnh4JB1b6vpQ5lHw41dqkdAFpouuvywIycEj2NmKjpeOIdpAxh1D3oSyxxQT4ZNxFK8WwUuD28YZBqSGQyjd+yD6L3w9okmJElHR2A00dI3+WRPpn1eiUh/Og/Z1bwLW5Vsy1+SXAjybF0/v3i8zjYoSCX//5uD53gwbmxmJlYA/+eucafj9ftakktqwZEPZXGeTYjduAXPq1KkJv5nNcPRoZ8HLUqqZXFo3ZsO3qYwYuepWIHFsx9kfRskoUsd3IsULkGuWwFFeX9DLzMRokZMh25ToQ/zQS5DnrQafjEBrOjih7c4RMUNEirR8CxyBknGv0+YsoFkc6lI4DpRdj8GoWQpnzVJ09UbR3h3JdvJFa2cETlnEvOoQxGlY/K+d3sv+lQI+JNu60sIt/77MiQKzQe7bdxTzXlOBr1y4Ax3P70b/S6fQHk2ylznKi+C69BL0VKxEQuOxIBTHhup+vNxSjJuvLsKbbyrFrn0d6HnqFTT+5Mnh4iXroDBVE7GWJHzzhliTGwYcz/wJnktvhmHyiKXGf94ajxhZUwdU2GNtGxsbm2kFBT7uuusu1g9my5Yt7LEXXniBZXK99a1vPXcCZt68eRN+M5vhcIJc8JCa3MlMmoXl8zvvnAvEYCkcizcideyVyVmhoUNpPASl+Rgc81dDLh7dhpN3UGfwfI1UR/4W1VO7Wb8Ibnx+FTlwvAS+rA5mMgaT5yFVzIfkn1ganM3ZIc1fDZWJ6PGhNR9BX/NxtAdWwpQGj6HMXpFMqTh+rAkVlcWQZQdUXUcyZdWmOWQRXrcDhmGiP5JAUlGRSGlQVOpGT3BwOXj4PU74PE4mhiZ130jXyHkX1CB2qhmGooy4y4teNwS3C1o4ilhTK1offwWRk21IdiswFIO9LnIiDLzYgNDWtUje8BboJofXrI7j1rdvwIIqEce+/SMkf/QLnO7rhdaTpz5vyHunehR461zDPjPX1Qapuwmivx4cZ8A0Cxcx6fYzBSWtlnqBVXUFr9rGxsZmyqHaMbpN9jpnGnfffTe7Nrzzne9ktS8ElZ9Q75ezsVaeUKnjiRMncM899wzYoa1YsYLVxSxcuHDCGzJXcVYtRoIaMxYARxbAWZ2Zme1ytBdafxdrzki2zJTmJfqLWbRkqqBO9sIF1yO+92mWFjYpGBpSJ3dBaT0G57zVELzBvANASjtLHHppyKOjD284chmjPjaZ++PdNn8Z3Ms2gbMtkqcFjlAlspLIxoUAHXX9e5EU3OgILINJx5SmwNV0CK6WI+BTMSR5AX1lC5CoWwkEisGn+zO1doZZ8Xn+Pc5EIqUjkYqjuz+BoM+F8pAX/CS1gudrl8NoPAR3TTlc1WWIN7XBVIcIC44DL4lMwFCUlmpXul4+iPDxNiQ6yP7csjw2VBMmK0Dh0PW3XeAe3Q3cdDk2fORNcNQ5cPTL30Tz/b8DkvSawkS/oVnrFeSszytQfysDfHcb5KL5kHgTyjgCZzTfQGujgFjGNS3vd8MB16y1U8dsbGxsphtUVrJt2zb867/+K772ta8x/UCQXiBX47Nh3KPcRx55hLkJrFu3DpdccslAKIg8nR988EFs3Tpy/wGb4UhOF/LFE/IhBkoGhAkNTlItx5h4YfVHNFWZNKBFesB1yODdASZm5DHSmwwlCUPXoMX6oHa3wkwlB/pNULd6we1n7ys4PTmvox4bvvXXIJmMQD2wDTAmOqQcniKWOLKdFd07a1eAH+LqJbs8SJCIG6sXzcAKzREtl0cc7/Aiq2sRy+oghSrBn6eUPZuRkddfB2XXo+N6TU4Xdz2O6p7daPEtg3/fU3B0NzMxY4oSE7yepn1wdp5G/9qtQEkV1IFIy9jRAE030RdJMPFCImYyoOM4mW4GWXrJBeh4bgfijW3pUb4lsDhJhFzkBy8IMEjccDyiDa1IdqWYeKHoi57Qs8qGTBgKpZxxiP3lWRzWk5j/9yF0/PkRloJGC44rijRU7IgSC6GYgeIR61bGWh3dyBaZ+mkO11IcK/i/ZZNVL2NjM92ga3Pq5FHEXn0JySMHoPV2s+asnMcP15IV8F97M+Qyu/nnbMWOwICNFa+77joW8KBmlmT+NVmMuw/M+vXrmZ/z0LDPpz/9aebn/Oqrr2Imcz58xXVdQ2z3E6Muw3moIH3VgJBQupqRaj8FXnQMiBo9HoGpWgJkGKIHjvIalgJG66Blle4z0MLdMFODlqt5cXrhLKuFVFw94oDG0HUoZ45A7TrDio0nBckBqbgKcsUC1ocm24ksujfbdm+UXdg0wavJdPrY8OWGfRrRAceSTUy02UxvVCWF1KuPFLx8vr0k0doJrqUBmssPZEctTRMiiXp/CXo2v2mgWUqhfYHoMGE1NZVBSJNkDpDq64D54p8Gjre2R15Aoq0LvFOGIEsQnI4BQxU1HIPgdaN923EkWhMwNAN6LC3CWNuirCa1BgkjDoJHQM1770D7A3+BFotbYQ+OgxJRgNHN/5jJWGi1H6Iz/VldLkBTYVbVQ/3Md2CYHAROZ05otAGKLiChSoipEuKKOOxIJCtl3RyMvGRkD0Vb6Dmvi8OGBcAk6UMbm0mHjq3Ic48h/MRfoHV2pFsA5DmDcBzEqjqUvuejcC1ccj42dcYy3fvAHDhyckr6wKxcumDafebRIKex//zP/8Q111wzqesdt4BxOp3Yt28fFi9enPP40aNHmYVyktIOZjDn84AIH3gRSA7vCM8HyuCqWsiiIYRp6Iif2AVTVcCnu8pr1LNlhEaYg3DgPQFIwTIr7UxJWA0rx4RjFsqu2iWWE9koGJoKva+DOabpsd50x/CzKPingZYgQyqfB7m4Chw5inEc1EQc8aPbC1o/r6bAsYjNGAKGPuOqy8DLU99vx2bywtOJHQ8X1J9oWKcYXYexfxcUU4ROAmYInK6CT8XRt/4GKCV142tsSlETSUBFsRcB7+T1BkpGeoDn/8CiiqnuPnQ+txNaLAHB5WDRGfpMWiIJwSEjsGElDn/3L0h1p6DFNeYYRkJj6CRERsSIHgHOujJosRSMaMwKe6SdJfW+Mb5fDpB8IlwVDjhL3eBgMDOB4NYrEb/qLVD81Mh20P2ZUA0BSU1kQqY75hyYWSSpeMtGIKYApzuBcNzKRivzAwvKSRjOrBlIm+kL1ZXqvd3suBGKSsDLk9emgCIvXT//AdS+bhh9vSM6JrLjL/upomKUvutD8K3fbNdYzngBc2qKBEz9tPvMo/Hwww/jX/7lX/CVr3wFGzZsgMeTm9Ez0c8x7hSy0tJS7N69e5iAocfKysomtBE2Fv6VljuDoSnQY/1sAEEChXf7c05klPZF4oVqXjLpZGOLF7Yk69GQSp220qTSxVSFvI5O9Ar1cfEVj3pS5UUJfEk1xOIqaL3tSJ05wgrfJwyd2LUU1JZjUNtPQQiUsagMCSnfqssRO7EHRrR71FUYggiB0sjYRSL3IpKZ2eV8JXAsu4gNAm1mVnjau/kmRKkeK914NR95hw6qwqIEGKFBrClILHInxPsxXXD6QsAN72URGLzwR5QC6Nt/DKmObmgKGXzwcFaUILhyERzlJZB8LiS76HxhFZTkO3ZZ1IYd4yaU7n4okoddGDKJk5RCqfP6cCeygRUM9oWJNSWg9KoILg2geGklgnIM5Qf/F4rDh4a1t8MQJJgGtcE0IfI6BI6HW9KgOhX0Jx0IuoGrVgIuBwe3EyidGddnmxmE1t2Bjvu+A+P0keFPSjLKPvv/IBfTkXV2xHZtgx6PwSQL9JHES74as95udN7zFZA/afk/fQneNRPvk2Fzfsn01Zrsdc40brzxRvYvlZ9kX4POtv3KuEdr73vf+/D+978fJ0+ezLFDo/DQJz7xiQlthE0u1KySDxRwAk3vyPp4mjKaKmDQNCwV2I6notaAQQ5cmsrqY8aCdkopVAEhUIJU6wlorScnGInJeLVSPokKnSI7va3gXX6WWuZdvA7xtgZorcdH3hZeYAMnnlLbhokYDo5FGyCW1kxg22ymC941VyLR0wH96LbCX0THAJ1MR7oikPEDPUdifwJQ8T9FYaYCqnNxXn4rxK4WyLXPQmtrhZ5MgZclSAHvwEWiaut6HPnhk4WtlC62Dgd00Q1BSUdg0pX0nGCJnKGNDTiJhyBRzY0O2SeDkzlWZ8MZDvgri2DEYlBNE3IIqN/9Kxxd+6604LG8xSReR0ITUF2kYWudDDmrl4yNzWRCE30t3/hnmM0NIy+kKuj41w+j6IOfhWfF2rN6P6XxlLWXK2rh4mUI7Xd/EamtW+GRyHVwyPI0mbjhasgV5PBnR2pspi9PPfXUlKx33Ffmz3/+8ywk9s1vfpOFhIiqqirmMPCRj3xkKrbRZgiU4sRJDlbvwgkuKgoZ/0pocDIuCi1hzoWn3jE1S6GXz0f88HbW/+XssNJdjFg/kg37IXaH4KxbhpTkhNq4f9jSA6d1QYTB81YqWfqzm7zIUuNs8TI7cIXKoG+8EYkDLwCJwajJiHsspYt4/OCicXCSC+aQQQBPKZaSA0qoeuCxQix92WupBsYhsjqYqUQsqYJ45e3s79SZ4zD35IqVsotXoeHPOxCL9cLURklhYZbuHHouuRlqVxyhw8+B1/pYBIojDSNyLEKDjB7TSdfxEBwiEy+cwMMRdLHHVFFF+HQ/Uv1JOAJOmPE4TJ8XEheHt/sooiVL2SoMisTwJjRyRTNMqLoJ2Tb6s5kCoi8/g76ff6/g5Xt/8O/o5XgE3v8p+FZdMKH35ASBOYXm9Sws0N2P6HvsMbiuv3S4mUykG+bTvwfLvSgqh7BwHfiyGvC+0HnrFWeTizXfM9lF/DML0zSZRlAUBUuXLoU4iVku497LSel//OMfR3NzM8vBoxv9TTbK9izAuYFOTuSOxWaIKQVm3B3gJ/Y7UTobJ04sR1iQHPCtvhzOpReR9RomDMvXJxGiAUoSWm8rEodfhqDG4V1zFTialcqkhQ19LceztCAalLI+IKIIMWinPc4mBFGEd+0VEJdfwjKeRjvZ0/kqWrsSpihDSEQGRT0ZPygJVjuVqFwMk0ROwVtgLelyiCgr8pzTc6JJ9TFDt4bjsOHf3gFethqqDB04ZepfSLxwEoc9mz6Extd9Au0bb0GyqJL1PCIEB8+WgUmig7eclCQBOrmzUWPMANXgWMuKLhF6SkOia9AcRE9aXovlLTuzNs76gUgXzbSLss3MofeRP45LvAxgGui/9z/Q9s3PTeh9HUtWWeeULDFBx9t4xEuGWEPL6Av0tkPf8QjUx38B5fk/Qm8+NjAxYWNzvqDG91Qbv2zZMvYvWSfv2DH+Hm4jUfDIN5FI4M9//jMrIMpAkRi6UcESPZdKTVJPEJsxofQsMVTJCvqzT5AFwyx9xqGEBRFSsPysB2SSPwTfuqvhWnkpc1YrWEzRhYDS16iRp6GxSAr7l6JPySjUziZonQ3wL74AnrVXgveNlYLHgSPHsXK7MetsI55MobEnhTPF65HiRm76Ghf9CNeuR5TEjuyAGO+DGOtl7mO0f8VqliO5fAucDgmhgBsBr4NFVsbaYyuKPaitCLLml+eUJqsvVz5Rt+Grb7NEDCtctgZRbCBF4oXnILh4nPzQ3ayHjOYJoPHmj+LA3/0QJ+74MuLXvQnO9csR3LQQ3qXVkP2Wdz85m5FocRW7IPsdQwrLLGvngYfSPWtEbdDkheco6sJbzmISB2d6+2xsJgNNVdHy5Y8g9pdfn916Th9Fz19+O+7XeS7YDCFUMjDpN6xYfxwkO0av8xxAVWB2NkPd9yz0U/sGjQraG6A3H2X/0v2haLqB7v4kjjVFcbghgp6wPZabHLgpus0MPvnJT7LGlb/4xS/wwAMPoKamBh/4wAcmbf0FX2F/+MMfMpFCRThDIQeBb3/722hqasKHP/zhSds4m5HhOB6OigWQ/CVQ+zuhFFpjwvEs/Swz+2kqBaSfcTzkUCXEosmLVohuP7wrtrAGnGQHrXW3WAXVtFGsLgGDn0dTRjlk0xEZVWEWzrzkBO/ywrNoDZsZTnU1QW05OdDJPPN5aBnXvJXgRyjgtpl5qJqO9q4+RGLpQTLHo6N4FaRkP4pjjRCp/ot2J05Ct6cOqjPA7ierliBVUgu5/TSEZJyZPsSKF2DxqgVwOnIjjrphIBpXkEyqSCgqkorOcusDPgfKQz5mKnDeGGXG1TuvFBd+813Y840/INUStsrfSIyRfXKJFwf+8Rc4GS9GUZboSIWq0E433IiFwX5cXnoYYl8HUnv3ouF7f2OpY84iFyvIz0ZLqBCdItzlg04zGTGjiSR0TCZa2HtoAgSBQ2lQhjBJTT9tbJLxOLr/5c5Ji0LEH/lfhG5+y7heI5VVIvSmd6L7t/8D5fSJiaV6Z+DGmaFgmtBP7rVcBBsPI9XfDzWlsRYHNHGgO/xw1C5Eq3MReoUQTCPGHuc4EzwMnIgnsf8kj/pKD2rLJ89F0WZu8fzzzzPhcumll7L7F110ERMxsVhsmBPZlAqYX/7yl6z+ZSQ+9rGP4ctf/rItYM4hNCgQPAF2k8rnI7b7ybGSZsC7fZDL5rHXUi8Zg0pzlVGsr51euKoXQ/SP7j42UUhAuOpWwKhaDLWjAUpHI3MdY2hW84mx39UE1CRMQ0Oq+TCb8eKdHkhl8+BK34xkHGq4k3XDE3xBiCz6YzNbiCdSaG7rYQIjQ+ZIIKHS5hy9eZYhuRCrXgnd5OB0erC8xg0xjxgReJ7ZIk+mNfKk4QkA/Z0jP10dwpZ73gstnkLSVQXnsgvgnl+HhnYT2x+KwYir0HUDQjoVLJvOA01o2/djqEePw1AUGKYCLaZBlQVIbnHg3ECpY1pSQ9m6CkieQfHHO6wITW/VWkgCswNAUhWhmTxETkRJwC5+mSxoUkhrOAAkIqzGj69cCH6Kzt/TERIt3Z+5a9LXayhkkjFyRDcfrqWrUPnxf0X4+cfR+4dfDjSKHi+e6vLCF2bnQA5mPAJt/wuIKCIiCQ5FQhICdMtZMdmN5PE4PMIJaJUrkSiqRUn/cXiS3SwvR3P6EXOWoqW9GIZRhHmV0/B8NwPI333u7Nc5U+jo6MhxLK6srITL5WKPU1PLcyZgjh07hrVrR3bloPw2Wsbm/CAIIvwbrkO4+RjQfjLfEpCrF7IeMJlmmGRFrMf6rN4tyTi0SDeboaH6EGeoGmJRKXjqen8OIPtlR9UiSCW1SLUeh94ysqvYaH6F1E2dTuBauAtapIeJNXJp4Z1uOJx2uthMgcLOJ8fI+6bhmNfngW4A0XhywvaSVBzrcAeYYCkLinDM0Lbu0uoroD7/wJjLOTZeDc+8FQMD2nmVJlYskNAb1hGLqpBkIcetIHh6B1b+6bNIxnsH1iG4qa4FSHRFoLpk5kRGKWm8wCO4uBgVm7OMMXgevNOBBO/FSXkFuJgDSVVALMEjEhdx62UCc2yzmYSu7889AIS7ch7Xj78KlM2D44JrJ1zDOJOIPv8oq1+ZbJSG43AuXjnu1wk+PzzrLkT0haegtDZb9u3jgefhrq4Yxws4JlJoYlKFiI6EF1ViFwTOhAbJapwJjUVayAWwpv0V8G0vQmAThumDnhPgdXsRELxoPhmCe+UyFM+rGreAs5nbcFRnGo0y0ZJ9vaVSFCo9OWd9YGhA0dnZibo6q6HbUOg5Wsbm/OKvWQzULE4X51KCu2UjPJJLCkVWBlmA8w2dIKmw3mixxPC4x6RqavA1hgqFLJyjvXDULofontyGUjZTg6KoON3Umvc5c8jf4Ugs3Z5k+D6ecesdTdjQuHl+TQmcs8D+SvCHoBZXA91nRl6obhWk+bmDMBIPr73Uxfqu/PHpOFwuCU63aJ07NBVLHv5PSFniJXNhkkMiDI8ALa7DUxWAM+hCYEEIvhrfoAsSx4H3ehAWi/FY6J2I9Qas9abnHOrLTQS9du3LZJB69D4Wic5LRwNSOx6FY/NNszoSo/V0IfzA/+T2OJqkNDJTUc7ixWmnP1lmPdzGQ8nmNeN7L9bXyTIhiBoyPFwCAmdAGxjucdAhQIIK3hQgacOdQXv2HsWp/92NSBOlm5pok3iEVlei8h//DjU3vxZcuoG2zeiQA9nku5DNnOPXNE0sWbJk2GPr168/t31gVq5ciccff5x10czHo48+ypaxmR6wi9T5zMefIGpfJ5RDLw7czz5Ux74MZWaP+KyojAEj0o3E0e1wVC1hTTA5wW5WOZ3JJ15G++3p1zbI15f9lbXHFCBeqstDs0K8ZHBuvgnJvc8AzXma9K25As4ay8J4KLLE4YaL3ZCMJH7zZARFJR643CKKG3bA1ds8cgqrk248kvEIAstCcFd6WBSUbJWZuYg3gOfKb0ezZ6VV2J8pQ2UTK0BLL48jZ4BltpP5WZFsbxpZvGToaoIR7oEQyJ60mj0kDu1Gz39/bcrWb5xFDYtYUg4hEGSpzFqssFYC8sp1KJpXPFC7VxB0zJFNLWelaUYUB/zCoBsgO/DSg2D6y6FlN5m2TpjNj+7AsV/vzbFd1zUdnS83o++9XwL3rS5Uv+09Vi2tzajMdQHz1BT1f8lQ8EjuPe95D2tUSSLl5ptvznnuwQcfxL//+7/jW9/61lRso80cwUjFoRyhRoT5R52Zwzbvs2xERKkvfNqbVc9akmdh+1TjQShtpyAWV0EMVUFwumf1bORMRFXHcbHOwvrVqaIrV8SM1KeSHq+pKIbPM/tmEp1rroC5+nIYlEpE9W2BEghyYWYV114SgtvZj+/+uh0OrwuhI7vAFdLw1gTadzag/0Q7SpZXwLN4HvTlF+NQXxn8zbuxytiBqLcKHWUXIOkqZT8RaRxK/9vXCCytHhhb2UyEV/5S0GLqvmcgXPpGzDb0/l703PdfeZ8jl71RrYu9fiAaLug9Jgovy/BuuhR9D/0BvM8PI5L//Ti3BzVf+TbkUitlzNB1qPueh3n45bHT4tikpQQ4XSz7wiTDDOaHM/zAsmI09Ey6Wa1psveKt3bg+O/2DYqXzIxDuphDjag4/uX/QcklF8G52JpFt7EZiSuuuALTQsC8//3vx7PPPstcyMjTmRrSEIcPH8bRo0fx5je/mS1jYzMRyA46eeRly0FlDIYJGervQrndmREQW0fWBSszADMNmKkY1JZj7AbZCWf1EiZoyNXN5vzT3z98dnI8CSDpfvHDREw2LoeE2soSCDSCnqWw6EhgLCvx/GzZEMBF633YeSCB5p9Yl4hCtUUqkkT73jMoMUxInf1YSOkBvAOa5EZp5x7UnHkOxxe+Dh3lm5h4od8mHAdiKWA6+iKcT8jdTu9uY5MvvK8IvC8wvtcPuc9+w752zNZGlUhmRRryiZghNsauK29C8ZveheZPvrug91DPNJ7VNvouvRpqRytiu0iMAEY8Nni943m4VqxH2Qf/EWLW78wLAhzrrgDolraGpsJ8NBwClPjg7Az9uCReZIdl3FC9BFxfOwINZxBTRXhyTnUmBGjQwUMktzJqf5Gw+jSdefgAjFRaKPH5L7rxlgj6nnwc5YvW2tfNMZjrRfxTzbhyacjLmQTMr371KyZa6IRAQuZLX/oSEzA2NhMVL6ljO2HG+sb1OnZOFWWYotMSKexkbs0mFYSSRPLUXgiRXrjmr7RPxlMEnSfiiSSSKQUupwyX05k38pVMqejpj5z1CdoSMcPXX+Rzo7TYf36tjmcIVGi5abUHKz52M3Y8+uOCjylWeqfp6D/RicqApUgkxGEqfYi6KyHoChYf/yOSzhKEA/UDk7vpNjFzAlPXoZ05Ba2tEXpnq9XfyumGWDkP0qKV4FweqMf3I7nreRg9HVYtoyRDql8Gx7otMHq7YSZj4FxeSHWLwA0prM52oM95fKD2yMo7n00kd1PkfnTYZ858bJ8frrp6xF58vGB7Y97jPatt5EQJoTe9A+5V6xHbuwNqRxvbJseCpfBuuRJS0dipfaIkQVx/JUC3TGNMXYMZ7mGuc5Q2zhdVgHO4YPR1Qux+FM6+MHTm9qfCMIWBepiEJkKId1v7H9XNGCZ6j6X7zeTbPTKtF3QTkQMnUZaIgbPrSm3OI+MuBiChYosVm8nCUFNIHtoGMzaB8HygAo66ZUg1HWKWkVaIfZQLMw0EqBGmaaTPxTw74eudjUiaBpz1a2bdhf18QhfX4ycb884EezwulJcWI6moUFUdhmGgqzcyUMkyCe8+sC/IkojayhBkafbUupwrPPPnwVlbg2RjU2EvSP/YSiwFJa5AdssDotIXb0HUVQGeV1DR9jITMJTZ4xBnb/Ql1XAc8Ud/C6OzxRoo0ySJKFm1CmrKyqGj2iDZAeXIbvC7noe8cDlS+19hA1Pe42fnKCOZQGrXi0i9+hwTO6A6I3oDtxdiaSXU48dgJKwaGE6SIIRCEINBlro0QDoAoafiENNOlLOFfM0ZR4MXJPT/3y+t1xVYVO9efzHOFjLOca1Yy26TAV2vSBghRDbLuVbLfLAUwUuvx+kXdkDrbYSfj0HgNCgxBVpfGGI8jCSJF4GH6HYyp8C0I8rY7yvyMJUEYAuYUTFNivxNcg3MJK9vJmNXM9ucN7RUEqm9Tw32fRkPriA8Ky5if3J1K5A6cxR6uDvtgT8ElUSLNkzasPxf3QCnq9DaG5CU3XBWL7JFzBSKF/YcpXzEEgjHqDhcGCI5rJL8UeudCoCctWRZQtDnQcDnYhEFm4mx6t7vYectb4JZSH0SNxiJoYaWGQGTwZPoQNRbjVDvYSulh+NQWwJIs+xKlDx1GLFf3kP2nUOe0dMNe9NmIyRGKLWVHjN06P3diD//MOtVJRQNpgByhgGDivRpwO30QAyVwohFoLc2QG88NswtS4vFoDU3MyEjVVSAdw4qxBO7T2HpRaswm3AsXIF4a4Eim84wscj43oCs1mtmng2/EChB/XXXorW5D3uO98HTuAMVrS+za57E0/EHmJoONRwFn1LgrnQj3k6paaPMBfJAaONScJSyZmNzHplllw2bmYKua0jtfJgNVnMoII2LX7ARrvJB2yJq5OlctAFq20konWk3HjbVSJ2HlYJm9HlDhdFyBHqgBKKvaCIfySaLxuaWMcWHJVXo97d+oaGiZTwyMlP3wpx1HDLqqqiHkS1aJgPP/Dps+PMD2HXHu6H3jh4p5XlWNWzVE1M/mTyTBqKWgCpZEQCXDGxchFmDnkyi77ufBaL9Yy9MEWOaAWdREg5mIgbeG4SpkBU8l1MLY/T3WHeo1i8RhamFYPR2AtooNYNU39DdDb2vD0IgAN7vB+/z4ZXdfViyeXalkfm3vg5xSgcroIaSIJtvTpJhMIE59gSavGT0RrjTDfpc+tGd0FuPw4xHUSw5UBwsQzy6F4agg5MFmIpmRQJ52sdMGCkFZRfWoedANww1Ha7L3kXSl2pvrR/u+vngKDpoMwYZF4TJXufM5Pjx4zhx4gQuv/xy1hvmbNNZ7Su8zTmH0oWS2/88XLxkLuoj5du7vHBtviVHvOQ0I6xaBNfC9eA5EZwSB1+geBlAU6A2H8ZsJ6kY6IvpiKeMSeuRMPT3TdHFsSDMsz4tZYsXSRRQGvLb4mUKUsm2PP0ofOtGHsiRCWDm2io6Rcje/Dargp5CX2ABnDKH69cBATdmBbEje9D3H39fmHjJkInGkKEEOUelEtZ3SO5xaegxk5oMCiIbeJOgMWNhqy9JIQ5xug69pwdqYyNSx09gSXwXTp/ompJj/3whBIvhu/n2AhcWmXghzNQY1tNpXGsvxExAjUWReOr3SP7m61BfeQRGy2mYkR5WD6PseRF6b1c6ws0NMzmgHc9X4UfZpkpwgjURwS7RmRsd114RK778TkjUCPccNbm2mfl0d3fj2muvZT1hbrzxRrS2Wq0S7rrrLvzjP/7jhNdrR2BszjmJ7Q+OscTw+DUfKIVj6UV5B6aGoVsnaHIW6+/IcX4cFzTpFO1j6Rwsr3iW0d6nYn8jWQ0P4pSApVUCSgOTdyoIRwrrc4BRfieqTyJTBbLw1bOWyF9bykEUBOYqFvB74HbN0oKK80Q4qmHb7hjCcQM1W98KZ08PlO5uGLH04I8mcWnAkymUphnxuqIRZ9YMXkR8wYW4eSNQMksmcVPtTUj++jvjfyGbsMnasTN9OrJTYY3MMlRorVsF1+R6kMdWd7TMH7YeVcEC4RTMHb9Fn3kZfLWLIVIa2yzAf80tEEvK0PvAfUB4eKSQL6uE0dMFjvqkZL7jAhvoicUTc/Q7J051zUehHNwOtDcOP5tSRIo+p2CyOqoBU2WKQPFC7n5GIsYwsPC2jXCVHELbS01I9qasiKrIoWhpMRZ+6u0ouvAS8JULz/VHnZlMQQ0Mc+OYYXz84x+HKIpobGzE8uXLBx5/y1vewtqzfPOb35zQesc1ajl9+jQee+wxKIrC/J1XrZpdebQ2U0+qs7mwWcPMxZnjwYeq4Fi8MUe8sBN3Xzu0thMw+rvypg5MTMQYlsOPN4jZxIuHUoinJ3sHnDc5IKkCexp0rKwDKoOTI2ISiQnUNOUbfDHXIJGZLtA2i6IAQzdgMBMGk4kWhyyxtCX61+txsX9nU2rM+UQ3TPzw1y1ItJ7B2rJu1DsVRAwdCc4PT7EEZygFtbNzWN2Zp9wHX8XIlr/JFVfiyhuWwZlbHjOjif7P1ydnRQ4XQO5ObEbcgk2msNQ8a8DN+YvyNs0xxxIxdP4004PX9mboXa3oVxMILFwLkd53FuBeexG76VQf1NfD3LiocJ73+pE6shc9993DziXs+xlFvFB0ytAM5qhHf/f8/mco+9h8SP7pc10wlSSUbX+F3nR0MJKXf0mWTs2iLsyk02A1VazhJaVZZy4I9C/PM5fGuq2rUX3lcsS7IlAD5ZCWrEbpqmXgS2vBe8Zn5z2XmS42ys8++yy+8Y1vYOfOnSz68cc//hGvf/3rB55/97vfjfvvvz/nNddffz0efpjS/C16enrwD//wD6zvI43F3vSmN+G//uu/4PWO7c5Hje4feeQR1NTkZs8sXrwYDQ0NmCjieDpqUgPLRNovnNTU//zP/+Dtb3/7hN/cZu6hHds5vheYBoyuJiRifRBKalnxIbmfGJSmkYqPKYbGJWJoxp8sdmfZAHjbUUu8DM0YyRYyh5t0lAcEVvx+tmQ6sRS27PDfKrMFRrrBGj3mccqoqSxOP89ZtRY2U8o37m3ABa7DWLA4ytzCFJ2Hr9iEtnU9uh59HgokeJYshtYfhhKOMHHpDfAoXlI24jrDdRuw4p1vnlW/n0HpXpT6NRHS1r6siJ85i5mAN8D+NsK94Dw+mJIMjuziEzHWu4p6wpjkYJZ1rJpjHFcMmnHP9EJRVZhd7ayJY7T5GIIL12A2IXh87JaNY/FKJmToezXTUZh80OQYueiReMl8kfEjh9Hw0XfDu/FilLz9/RAD579OUt3zDPSWE2OIl0F4lwNcP8eEmykYljCWZJiqYkViTBO8Qx6YABLcbpR8+GOQyqqn+JPYTDWxWAxr165lDenf+Mb8jWxf85rX4Kc//enAfYcjNwX4bW97GxM/FMSghtN33nkn6/1IbVUKeX+3e3ikl0TR0PeZEgHz+c9/Hlu3bsUPfvADOJ1OfO5zn8OnPvUpW8DYFIxBtovMKLdAskfciQj0poPsT9avZayuxFkU5mjFMfHCOb2sv8JsgepcouRpMMqHp+foV2nv01FZdPZRmKH51SO+b3rp3NcOPsfRBZXn4HU7UVEatOtaziFHTydQY57GolAEXXEHNGPwuxeqlqHsdQ40bDsJn9EHOVQEz8IFKL7mGhxFLYqf/X+AmTuoot8zufxyLH/v+1kdx2witX+ckzLZkECnBow0eeJ0g3e64bz8tTDjYaT2vASDur9ToSt1V09PDmjNuYPWQqYLTFasLaStnNMz8WmHNDURZUXf/CiD+mx0KhDvboWppSAUVUBweWZE1JN3OOG9+maE//wrq/YlTw0HCTwmXtTh1ymqOYq8+Azr4VJ0460ouvlWa8LrHKLqJuJJwJHsAVpOFmxaQJCltuBxQ4vGLHc8UQInOaykskScfRbR5wWcTgjzV8Gx8RpmKmFzlule0yCF7IYbbmC30SAhUVFRkfe5Q4cOsWjMK6+8go0bN7LHvvOd77B6lrvvvhtVVVWjrvuyyy7Dz372M3zlK19h9+l8QbWyX//613HVVVdhohQ8Wtm/fz9efPFFVFZWsvsUjrr33ntZcU5x8dgNmGxsCvXbZ4wy4mYh8Am8ffZrhvUmkRwsN1osrZ1VxYl7TqkFf909EQOV45hYZBd76uOiWekJosijtbOPNawsZIhq/Qa5S5JgCfg8rHcLDXS9Lidbr8255bv3NeGuVX2IKWKOeCGoKV6qtA5Vr6tDomwt1q0IQvT7wEsS6PKn3HQfjv35EUgHnmUF++4FS1D6xrdOi1nrqSB5ZPfEXsgcFyltR4BYUQtp2Xo4lq6DUGINIhzLN0BrbWAz5JTaE/n9vaN2mx/1OGMDbSuiyVG0SFUhnDgA9LSymfa+Y4cgeANwzl8Ced4ScPLwOjK1vwvaE79NNxy2jl49/Ve/Zz6819wKn98xrcWM97LXwAj3IfbSkzASw79LirqwyMsoGLEYev/ye3a9KLrpTTgXdPaZeOTZboQ696EqcRSlRiu8ssoiJkKB0Uz6XeTiENvv9KQCM5EYuA7SPuC66Go41l9upd3l+f1tphfhcHiYADmbaMbTTz+NsrIyFBUV4eqrr8a//du/DYztX3rpJQSDwQHxQlBRPk0qbt++HW94wxtGXTcJlWuuuQY7duxgJSgU/Dhw4ACLwLzwwgtTL2DoyyopKRm4T+EgskHr7++3BYxNYQjTxzNiMK2CByQnS9EQSmoglNZiNhEjo6ICM7p6ooUtSDMn0Xgc4XAMmqZZVojgmJDJSMtRi4kHTG2EYeKlvCQIv9c9rQdBs53+sAYXEnCLGnoS+QtV4qqIUk8Kjd2KNSjKQnaIWHnbTQDd5gA8pbmO5wU0811eA0F2WOk7igLPjW+DWFmXsxjncEKavxS6qqDv7k8ABTpm5YXqPjSVmQCwdDUiHgGXjMEQRMQ8pUg5Y5CbW2DsOYjK62+C7PXiREMcB49G4Yq1YEv0b1aK2xDoSA3GTgN/vhtxA+j11KHitbdNy7oaOq/4b7odrlUbEd/1IpLHD0NrOjlwkhxIG8uXe5x5jKXgpRB+6iH4LrsG4hTXxTR1mnjloZ3Y1PEogmo7xHR0k2SWQTV/RYECo2cc08yOqiqY7gCMSMQyrOFMSBXVcGy8GpzdmHJSyTJwm9R1ErW1uWOVL37xi/jXf/3XCa2T0scotay+vp7ZHH/mM59hERsSLlQT1dbWxsRNNlRGEgqF2HNjQfXyR48exXe/+134fD5Eo1H2fh/+8IcHgiITYVwjSirCCQQCOQOZJ554gkVnMtxyyy0T3hib2Q3ncAPU/EofIypQwIh7rAHymLj8EIqrwFEIXnZCDJaDc/vn9MA5pVHKmQm3I/93QEIlGo2jtz+CVCo1rHCYsAY49P+0K9WQUYB1/aeZ58H3oBnEYMCDUNAPYZalF81E7v1dJ6t5YbJ0hCIyloVkAk7X7IlWThShvAba0T0FLy/WLAAnp2dKRYmlkOm9ncMEDB1vautJxJ78E6BMzBiDrccwYcZiw5/QdHCiAE4w4EYXuo0iqKITIbUND/33X/Cn1hWIJwxoqobvXvQ0OMfY52UaIIcSjUj+9psQLn8LXPMXY7rBIhHzF7MboTSeQucPvgoz2s++q0JgJjK9XUjsfB7ey2+Y0lSy5548iQ3tD8Ov90AUDNYmgG0DpR8qKrS+fkjFobGvXWQf7UxHV0wNgtcFcG5w/mJIa6+wxcsMo6mpCX7/oI3j2URfbr990IJ89erVWLNmDRYuXMiiMhQ5mQxIO3z2s5/FZDIuAfOud71r2GMf+MAHBv6mA0gv0JbQZu5B+4dYvQRa44HztQXgS2ogLlgHMd0HYLYTcAH9icKiMOSEm1RHFjBkj9zZ3c+OcW6UyUkSLSbHswHw8IJ+65VWbYsLxUVeyNLcdA5TVB3PbuvFzn1hiAKHiy4I4OIN57fWp6E1iZf3JeAQ3OhLSvDJKnqTwy+M9HhEkbDyoonPns1UaJK+sQtop/IUDqgo2wQ//jri8sP27OzfN11Un9R4NDSqiCVNyBKHeuMYuCZLFBkNxwsPo2bBBrj6KFbB9LyqscE4bVGJoxMn1XnoNyXMd3Uj1duP7oQTWyraEXCMI/037cirP/dbaKUfheD2MqdIk6yNZRl8STX4aWRTL9fVo+orP0DPz78D7dWXoSvhMb9v1o9H16HsegaK3g9x+WYI1ZPfkbW5y0Rtz0449ThkXssxWWF22gIPQ1FZE0rBOcoA1uWFuPZyiIvWAX0dMLrbrHRCfwh8Wd05r+WZO0xdI0u/358jYCaTBQsWsIwrajxJAoZqYzo6OnKWoewLSgEbqW5mKMlkEnv37mXroeBHNhMNfBQsYIa+4XTme9/7HqvRodAWOS9QsdGFF86MRlSzHbl6MbTOJiCRm785pUhOiPNXQ6L6lmk2UE4d2IHUrudZUam0YDkc67ZAKJq8ngPr6kU8c7CwppLUS29oOjUNguLJFHr7Y4jH4mPXH5kmS3EQDIUtp3MCVMEFg3U5tBAFHsVFfgT9M6P4d7Kh7/RnDzTjl//XCdnpgOSSIQsGepsO47EHDaxcW4Hb3nR+2tP/5w/b2b8pXcC2M6W4cdEZeCQVMVUckKluSYdTNPBqVzkuqJg9hhdjQTpg2zHgyBmqAxp8/IhWgptHGaZkR4t10YmOXh7xpHVMeowoDDjw26eK0W/GIInA5aUnUF921KrVpetuuth+PCYl7HpNvWIK+mDUJ8SASw2Dd/GIayLKnAlUuuPoSDixKtQ7oSEYbwKxZ/4MmVOBrpaB5JfMduqCE/rqrQiuXovzDatneesHIASK0fXn/4Wp5skSyPqCDV0HT72nJB5GRyOUeBiyaUKomdyI0/FmDeWxUxA5Ei8jCSnDamo6goDhV14Cx4arB8+1xVXgi0cvuraZ2zQ3N7P69kx618UXX4y+vj5mw7xhwwb22JNPPsnOM5s3bx5zfWQA8M53vhNdXdRINZezCXxMWlECfZC//e1vzGr5fPLb3/6WNcb57//+b/bF3nPPPczP+siRI8Ny+GzOPeQg5lpzFZLHXoHZQxe1KcLpAR+qhly7FLw4/aItatNxRKnxXZaxQaqtAakXHwZqlyBw2/vBuzxn/T7Umb4upKGxZ/RJRbq0uWQOPufgVTKVUtDc1gtNS4LLWC6P8l6CloJH64eQdpqjKAz7V4siLvmhCFTbAtZokgr156J4Ie758Wk89Ewv3AEPFpck8LbKFzDPaGDfH3OEa5Nx4IfzsPStb4boO7eF7x09gxeS55vK4HcouLCqGxVy0hq/cYCiCdh+phive8dgQedsh8b4j+wBzvQMf04Tnehx1qI42TTi6zOHXp/uQW/Ysqx1guwBE9gjbkKX6odDBGQzhatKjw68iIkYitgUcIFneodFVcgzfXyfjwbBVMtD6ZyaRnFTDnra7SiTDjoRxO5Tg+8x5A9BS0LY9SB6dz/GPju5mpmcAMHjB7dxKxzVC8+pYx05wAXf+E6YDg+6f3f/gEtbXgz6T4fgSdf5xKNQD78MvrIe3CTWegrsxGtCMscXAWM43ZBe+0FI7rO/jtjM7D4w0WiURVMynDp1Crt372Y1LHT70pe+xPq6UDSFamCoyH7RokVs7ExQ80mqk3nf+97HxtZko/z3f//3LPVsLAcygvrH3HbbbfjCF76A8vJyTBacyYzhJw59KdQP5r777kNnZyf7YOcTEi2bNm1ixUIZYUXFTvQFfvrTny7IrIBy9cicYKrCczYWeiqJZMN+oIsu/CM0KRkBdkmlehpyDKMCRkGE4PKBK6qyrD0LtAQ9H2i9XYj84ItW08y8dtAcwIso+ud7Ju1i2N6bwr6mkb9WpwTUlwuoDgnQ+7rR3RtHn6IOdq0eTbzoOnxqJ6Q8FtkazZGkhUpMKoLTX4Ty0iBrQjlXYG5tzUdhnDkKTVFwsMHAybAPl9T1Idh9DOjrHdYMkr3OF4Tn5ndCrFxwTrYzmUjhn79yCBFFRljNuBCZqPHFsaK0n6WNkSvZwa4gbn19HbZsmDsN7fY3Uj+l/IMHztSx5fB3Uda9b9S+U3R0JOBFkrMGvQon45iwDM/K10LjJBZ9ubLiOK4rP5bzuuSBvTC7OnObLNKsO6mqdFdGigbQFD2lhE0InodYUoLD4nJ4uTiSuoB/e2UtYpqEC8s68flN5LQ2XlVknTRyvpNxrELneIibb4Rz8dpzPtnR/9Rf0fXzH7HUrNEQAz6UX0LbxzPBIF/6Bghlk2cEQ86Qp3/6Q8yL7gVPO8gQ2PBN0yGFAhBc1n7FRB8vgvMFIV9yy6yOtkzX8Vpmu7bvb4PXN7nbFY2EsXlVxbg+M9Wy5LMrprIQao1CTS137drFoiwkSK677jpmeZwtNihdjERLdiPLb3/72wU1sqTtpPVTXc1kMqHRETWz/P3vf48f//jHzAKNPJ5JWY1lpTbVkD0bhbj+5V/+ZeAx+qLJ7o3cFPJBxciZguR81nQ2U4fgcMKzZCNANzYLqENPRJBqOQ50NY442iabY75sPqSSanDeInZxm0nWx/EH72NuQCNfzU3AUNH7m+8h9LaPTug9TOr3QN9VWgCVFzlQGjBw5IyKtj5rRpkQBcAhcags4sA3HkTLw9sh9LWBh46gJEOpXIjEwnUj22qaJgJqO4QRPosIDRok1tMlICoIlRXNqX4uam8ntN2PDfzWggmsrqZbN4y+Hhj9fXnFC8FF+pB49FdwXHs71N3PAdS0LoMnCOnGd0MODjpDTpQkpXS+9BeYpo7/SGcDKDrwuxOL8UjzYjRHPOyWzcUXTJ/BwlRDx8rR1pGP1i0nf4xq9RQ0yvExhscr6HVUZaLzMvYJ6xHl/EhxDpwWFqCTKx8Q+KQ9FrqHp1hItXVQerrZfkIDVl1R2ftkv4FhDAoXbiJNQjkg5S2FI5mCU9TxVHMlEy/Ejs5ixFQBHmmC4ihrO8fTWVgwDejb/oLfP96DW+66HE4K05wjAlfdBFEy0fKD74+6nNYfgdIXgSMUsHrsUFPTSSTk49Ho8YCLWVEyjvJ8s2ucNJ05kFGPG0ZG6A1MjM3NKLdNLldeeaUldkcx6BoLitQU0rQyH7feeisTUedVwFATGxItv/nNb9iGUGdO6g3z/e9/HytWrMD5hvLrKJduaIiK7h8+fDjva772ta+x8JnN+Yc10vIGIaZFTbK/A/rJ3TQ1zGaVOKcHYu1yiEUVMzr9iNl2FnIVP3UQhqGDL1Cc0QlKazwGZd92pE4cBGJpMR4shWPztZB8PtS1NaOy6SS0vm4rxcvjR6R0KVK6BnfjTnC6CsPphsGJ4FUFzpN7IPR3InrBVubWNhSHGh1RvGSgmhhOdkEwNavx2hwRMLqShLb70RGfN3q6xkwNMnu6kXrwJ9YMezaxPqi/vwcGzVCv2TLhbUweeAk4bjVizB5bygLw9iXHUO5K4GfHcru0F/n5GX38jZd4CkiNkFhw4cn7UB07xP4WnE7oieFdYy1BIcAURIQcCTyKm2EMsRDPkDKGX5KFQBDS0uVQjhyy1j+GUxY5aY1XxAgeD1KiEw5ew4utZfhbQ83Ac4bJ4zfH6nHn8mN56zDyb8Q4Hx8BOlNc6tqDr/xXLT794Xr4POdOxMQ7CpvMjDa0wlFEgp4DJtk62lBSWCQ3Q/O4YcQSMFTN+m3T5g+8KEAq8g/83jnHpdPDivRtzh+Wkc3knisne33nAsqIohSy5557jrmcSVKuicdHPvKRCa234LMB2apRdOKOO+5gomXlypXs8ULSsqYzFK2hmpkM9BmH+mvbnB+cgTJg/XWYdZiFF6yFf34PAu/8xJgDRhIvyV3PIfHUn4FEJPfJnlakHvo5KM7IUh2yOrCYva0InDnOrr2myws9UDKYT09OQbIDUk8rHE2HkVq4bsi7GnAZo1/kM1vNrq/mVGQET1+Uw7lR32GfPJkYeyVsllVLNyIcjr79b1AXrYHkHn8xvUqF1WnxMhJba5vxx9OLEVEHB2afef/cqiWkQy/f4RcIn8L86GATS7Ik5p0OGFRQnREx6cIhXuDQ46hEKdeNeWYjTqE+73udjhdjRWAwXSyDVF7BhH/i1VcLOoZYb6ZCRaYo4njxhXj5uAd7OovQgwCcbg7R2OB56uHGWqwI9WNjaQekseZTMh+dUttw9viFOJa7mvGp74bwg38+dz3nwo89WNByetLK4OC8AfDFk+vKl/zLj8AbKiS/D4bDAT2esM4HnCWYKW2M9jtrA7J+b+prVreMNWi2sTnf/PrXv8ajjz4Kp9PJIjHZ5yb6e6ICpuDzCxXBX3755SyPbjpEW/JBtm/UdKe93XLSyUD3R7J6I+/sjB3dVNrS2dgQ4y05M5qOoeW5x9DQ2Iz2ji5mXZgPvb0ZiWf/Oly8DHv/wXSlgd4tps764XDJKDg1NaTOSIQpCHCcOcrsVjOv5KBAhuU0NhLckJQ2XpLBUd3SXKG7dfTnCx1gjhGlUR77JcaL2nIS+gt/GL5JeZZ9z9JB2/M7bvShvtaNuYTHARR7h/9cVzTcO2xZqlMQXE7wZBcsSeBlidnbkrBxcirIXLwMw9PEMhyPliGi5h4jmbc1KPqS88TZz8RSatt/me/FN3etwfbIIqScxfC6Jfi9IkRxcP1JXcT39q3Ao001iCji4FxEnhv90+udDyE4OcW6NIcd5CMsla+jdwLF7BMgdmAPjHC/laZFqXuZG90fcg6n35sEg7hqy6SmMiebjwORnoFBHu1HcigIR1kJHKUlEH3eQfEyJPrC16+CuHj9pG2LzcRggbIpuM00PvvZz7JMJ6rbOX36NDMRyNxOnqSMFExtBIbehAr1P/jBD7IamLe+9a0shWw6pRLIssws3qi5JhUlZTfbpOIjG5vzjdGTK64LQTz0MuJVi6CoKiKRCDweLyorcq2WlYM7gGjfWW0bR9ag0T7oRbkDD1OUwaeS4DQFpixDglLQzMfQwn+Hv3hanS+mnjGMKFwemFn1dxNcDdDRPK6tUg5tg3F0R86qs3+VoWUKi4O9WF4v4vabS7Fy0fTrrj7V0C67uBKgjCJKJ2OPGRqcZv56B5buKvPDBuFuM44EXCOmgNCjHQkP/q95FW6t3Q2naBXoDzDU8OMsRjKZupzW1bdha/1SvKPMgSX1HjS1JrH91T40tyahqAa6elI4fjqOWMJAvyLjvw+swF8a5uHy6k6sKulFmVeD2yVCkAUkxQCMkvmoWr8S1S43tBN7ob78MKCdvehImFYk4ZGXEnjHjVPvKtlyz79bQmXod5y+z85t6XNZYHEtpAuugVi7bFK3wXjiNxN74dJNkDduPacObjY2Y9Wnv+Utb5n0+teCBUx1dTVTUXQj/2dyHrvkkkvYjDAJm/e+971YsmQJzjeUDkbOChs3bmS9X8hGORaL4c477zzfm2ZjA5VSAMZZWimGu1lkxJSd7LXRWBRtHRwqygYLuLXmrALvMRht2MMl42lno3ROdVrYmKLE0mCETNQlvRINQl73saFIniDkdHranCHTrn6kpz1emH15fHmHMqZjW4Hdw6mz+56noTekIypZO+JQIZPdW8TvlfCVj+V2iZ9rzCsFYklgb6P1rz/VVvBrmRMys8TVoZsiWpE/G4B5ABjAiWQFnlEvx2XeI/BkvQ9PbkaTNAFAa/FddTMqrr0hZ6A7r9rFbtlEoioaziRhGCbKih0oL5ULmogQFqxm+7+68zFwStKyhJ6A5oobDpxIVbO/k+fA5DTRdgZmdIz6F4rEsPokD0Sfz2oQOemMv/ceV78Gzgst61ub8890sVE+39CYnFqcfOYzn5nU9U6oIu7qq69mNwoH/fKXv2Ri5u6778aqVatYp83zCak8snMmVzRqZLlu3TrWRGcyvadtbMYLmUscPd0COdqHIKUZMBeyAqCalTyD4GgkAr24iKVMpheclO3kqFElRVoyudOUS6+moNYshEgWWuyxweUV0QtJ6x91nbzDDU/Vgjk3I8iV1sHsaBi8P+Tiw5s6DLI+TYxSC8NxzGVoVArsc6Q3HYbacIg1GByJoeKaCdj50zNl+FxC4/WVdUB1MdDYBYQbR1hulHXQkdqFEGrUk7hUfQQ8DDTy9Tjm34g168rg8/AoCfCoKuFRHAiA4yz7Wy2Vgt7ZCElTkDx0GGb47CKtjLJquK9+XUHHpM8rYdXS8ad+ksgRF60FP38Fi8bo+1+EEe+30szScyRjnbVofzyYrMNpxbp+X7p26ms6mj7/8YKXLVm/HNxFE+siPqlQzcvayyGvmrihh43NVI5/vv71rzO3M6qnH1rE/61vfWtC6z0rSw/yuf7Qhz7EbtQUh4TMdIDSxeyUMZvpAvmn9/b2QqarsccPtaQaUkdjAZLDqh7WXd5BQZGGVtUXjqK4yOrFwVXUAo3pBnhni6YC9H6aAiERheH2Qqu1oqtsm7M3XBSRML1w6dH8n0B2ITB/xXAXrTmAtOxiKFkCJp9uEDxu6FTXlK9/FtmD04k+yzp1KLROftNrxtyWrj4d2t698E0g7cixbOxOy3OFoMe6meUhRHaOYyLCMKEZHGo7XsJCByCme3osMY5ga+xpeIJvh3PNRXlfKjocEKoXIfbUg5MjXqi4vr8TvV/9MLsrrLkIvpveBmGKCr55UYK8dANANwAHTir424sJKL1duMH5HJY4mvOmpNKe+nJsCf7QfxlLd6PTzvL5I9i5TxKxwweBsaIvWTjWXATnvKU43zjf8GHwbt/53gybYbApoClY58xi3759WL/eqsnav39/znNnk1Y+aZ6EFOmgpjY2NjaD9PX2slv26DWx4RqIj/8KUFOjnoqoeJ6jcnmaAc9zkKtZTeuSyzaDe/mJEWtTqABVV8jG2GQDYkGWRph95VkaGUcihuehB0uRWnEh4AuMuK2G5ECMFyHrcYiGle9Oef6Gw4ey+mVjRxBmKczJrX4DcGrn4HeX/SU6XeBSSVaca0oiDOrvkSnYJ0cr1qBVsE7wQ4QHy8+n1D5qath4FKo/CLF6QU7jU0VREYkl0BtW0NkWxTI9MlxE5clnzHnowpvHvMComgFNNyEKHCRxbkTZOKcbwrxl0E8NGhzkwzBNdB9pRc/RFmhx69gQZBG+qiBCi8sgkJBJJRH7030QQuWQavK7k6X2vYz4Yw8Uvn0j/WZsPMXnnE/0vdvQv/9l+D7wBUilU9/0cOUCGUvqJBxvduOVg7fi/sMpeLQe3B58EuViGCpE7EvMx3OxNejSgwOv+/CtU2ceQcdR7MBunPnKcFfVkSypxbJyODbfOGXbhOpFADlEjgG3castXqYpU1F0PxOL+J966qkpWW/BIwtKGSvkpEkF8zY2NpaBRE9v77BBoxEoReTqO+DZ9hcI/V2swDcbGvyTmw0TL2V1SCy9MO/65fQsLl1844ILwvpr4d71eO66qPFdUoGWULJcxACNOm+7HBBcDmuww5HgcEH3lyC5aDVLdzHdPughq9HemHMkggBF8CG7XDdUWj5nxYuh6+g7vgtIJYBQLfieNsgYEmUh6+NYhEW8WKcQlzDgcJQZgNJvZlB0xuSY4xA9Tg1f2WPp31M/thtm83EIVfWQt9wAJa4gSgXYmghVB5IK4BQV1rSU0znLYjd7O/JV8hNXvBXO4Mi2tUlFR0d3HGq0G5IZI8nKBLDLG0BReWVWeuPsxHXVGxE9fTDviCLzSMv24+g72cF6s2S+XyOhoPdEB1L9CVRtnA9eEpgpQOyR3yJ41/ABNNnmhh99YNwOhvnhWL+toQKH3AkjP/kqgv/4LeYWONVIIofl8yV2e+t1Hhw+5cG2A2/FzsMaE33ZkH74xzu8WFw3NREiIxFH89e/iMTB/Onv7LfLI2RK3vb+KTUlcV5xG5K/+toYS4lwrbx4yrbBxmY6U/Dogryb582bh5tuumlY/pqNjc1wotHoQMOxoRhFpYjccCe4cA/EzmYIfV0Qu1sgxPqZoNEdHiTrVyBJ4iXPQJBWebpHxuleBT4nwOsmzLVXIJlKwHHwhYGxqJ5SocapuR7ljfDsImxZg5rW4yROvD7oVEeh6VA9RTBdPmjFgx3CM+9HFHq59vj88AUGZ0/nGrHWU5Z4IUgcFldCSUYhxXoGv0NJghkshtHSBJMscnme2e4ykWIYUCNR6LEE68DN0n5ECYLbyX5DLrtBCS+gr6UTrb95Gspn/2twI2g9dfVQ3/8ZJErLkeKdcOsKa2BKtU7DSP/IqjsE7zVvBp8VzRlKIqWj4Uwv3ForcoeVBpLRXrTF+lE2bxEkefb2oeCDxeDL62C0DaYJZh8rkZZe9J3qYOcAXqIUqLQohQlDMxDvjqC/uQdF9ZajoN5ymolTEhjZaG2NQO/I1svjgnaZkVISNRXJ3S/CvelKnEtIzKxe7GS396UnXdq6VPTHTMyvFOB0TN0kCL1X6733jCheRnMQ9K6+AFMJ2XBLt34M6gP35F/AXwr3Gz44pdtgc3bM5UaWb3zjG5nBF7Umob9H4w9/GG7pXwgFnxn+8z//Ez/96U/x+9//ntknv+c972FF+zY2NvnR8tU1DMH0h6DSzUqTB6ckLIcbh3vkjvUmENHciGjUEd1ENGkiKHFwigaS66+HUrUGNY//gF2ctUSKLc8GLSwTKd0YUbeGWUpfBIgmrcE0Na6M7oFw7CDM0goYm64AinKdwwpxUCsqKZvT4oWJj97hdtmG04uU5IAY64OgJmD09kJtaoIRj1k1MGSgIIoQvG5o4SjMVK79rKGnoKdSEJwySzujZem3iLd2o+GhXcM7tFOkpeEk5M+/H9yGTejeuBJyqQlRFCwRQxGTIS85rM7HiqtuGLVmifahM50JONW2kVMWYaCr6SQqFiyb1dbZjs1bkfi/Hw/cz/46e462wtRzxQtBf/MiD0M1EG7sZgKGHVeUEkjpmx7fsAhBwbU2Y2FYfUyG/SbpAzu167lzLmCGQttWWSqjMtcpfkpQWpoQe3V7QcvSpE8mClP9ua+Bd05tPQ4hefyQ3vUFqD1tUF95DCCXyCUb4F6+ccrf28bmbGvkB6zGA1at7mRTsID55Cc/yW4vvfTSgIXy0qVLmZC544477AaQNjZDGBgEFmAfyp6m6IjTM/pyJtCvehBW/TkrjcEBgYtDpTFpqALdN9yF4CM/s9IfssVLKo+oonoXuhWVwAyEAFUB19oE/um/wrj2dYAvaL0xDaLIQS3PgNTh8iBYVASHyz2rB6yFoFMz0HwRDkKQoPlKoHa1wzjdwL5r0G/uEVgtBOIRqN19A+lhGbLTh/RECrqisv2LIjZNzxwYLl6yoQZ8O7aj+0wjEqUB1F29Ds6QF4ZJAtgSMaop4uH4FngWLsf6MVqt90dVxKN9CHGj79SGriERC8PtnZqL13RAXLAS8BUDke5hz6X642kfjuFOgkzQcICa1AYHxjRhkUc4CnT8UfQ03UjxrKGI3giTI6ZSQF+iWUTiyEGYdNyNA+fqC+BecG5bRkihCkjXv+OcvqfN2WOalPEwyRGYSV7fVEEBjy9/+cv4p3/6J/b3VDDuisuLL74YP/rRj9Da2ooPf/jDTMxUVVUhHC7cucPGZi7g8VhipJDTTTrLOqepNQ1hWa8BXoAsO6DAi8Z4GfpV/7AG2HFNRkKTIHAGRE4H5w8hctHNlnsZ6w7NDRMv2a9nUJoKXcxlB0x/Ebj+HvAHd0E6vheuZ/8E95O/h+vZP7L7XCoBQRARCJWgal49Kqpr4HR75rx4KQT22544ZIkXmm2XZWvg6vawiNxo4iVnJl3TEW7ogBorcNCpakj2RnH6+cOIi37okguK5MMBcxl+GLkNybLluPHCkcWLqqo42hjG8ZYoXFx87A9J+2X/JLhmTWNof3e/4x8pxDn8uXSqn9UxJA8UGSXhkj5k+PIa8M7hhepCeTXgH7kWabxQvcvwjU2/F7kZziEKaiQ7hJpP/9uUbIuNzWzjS1/6kpVKP0VMOLn01VdfxTPPPINDhw6xVDK7LsbGJhc6Jrw+H+vZMlpPQyZSJCeqykugsxQPAw6HDCldAN8f03CgSUPaxGiA7MAO5cX2Kx64RBEeIcGMhhAsguEvYq5DrOahbeyO7VxXG0xyQqIZWqq52P8ypPJS9jcEEVw8CunANsgNh+Ddcj0c1TXgzkHR70xCkJ0jh93odyAr3HA/ha3yRLMKnWE3Wa1EKkz1TQUtDjMeA19XC6WzGy1RL2Rma8mhr0tEtQO4Y2v+c3hnXxIN7bm9agoX5eNvxjfTEJ1uuN/zGcR/QgPbwR/DUx5AKpwAR9ExEipZv5PBRIQJd4l3wETDe8Nb866fnvdeeROiD/4CHKyIzWiM5JqVtcSIz7gvnUJXrWmIVFllneuGTBqMhP+1t056N3Gb2ctcb2RpTrFl2riOxJaWFnz1q1/FkiVLcOuttyIUCmH79u3Ytm0bXNSQzcbGJofS0tLBSEweS3gyQq6trcWCedVwOh3wuJ3wetwD4uXImSR2nBwuXvLVo5CISehO9Ch+6CYP+ItgVtYxW+QxO0tnoKhAGuqeTfcN6kNDNp1UjJyMgVdS4LvbkHj0t4j8/vtQDu2c8hPVTIIGnHJZXdrAwci9EYpipePlqzMZY3A67L1G6REzDKp9ICFKNTonT7J9hN6t1K/ipz8/ip17cxuSarqBvSd6h4kXIoXC8v8ptXAuIAaK4X73v8AQB00LihZVQHSIMHQDhk5VQdYFndwJTc1g7mOhRWWsx4nnhjsg1S0acf2uTVfCdfG1lvX2KAJlbPGSZ59h+omDuOwCiOU1mEu4V6yFWFpYk2vO6UT57XdO+TbZ2MwmuCnMyig4AnPjjTcyL+frrrsO3/jGN5gbmThHLVJtbMZz8JZXVLD0m96eHsSp67ppQpJlFBcXwzlCIejxM0k09Izt+Z4RMdmLGRDY4JTm0431W8B1toJryXVKGhXDsCI25KJFkVVRYiljfKSHDbA5mQbBlhmA3teD+PN/g5vjIS+zGlXNZQxNhdLXYXUcH2muzJFO69M1gB8SvSrUejh9UfCU+qxpqLEmkKnEgvY1NtNs1TNlLiuyxOHGa4L469OtqKyS4JQFeF0ijjZFQK2D8pGAGz70jzkD5qaaqjmCGCqD++++it0/+z3mR/bAEeJRvmkx2nacZG6Ahs6BS1tYU+1SaN0inKm6GMFrb0bZ2nmjrpt6NnlvuB2OpWuR3PcyUg3HYbY3TWg7c/o/pcWLtOlqeK9785xLAeVlGRV/93E0f+1z1sTCSIgCar7wDWZvb2NTKHM9AkNQwGOs8wo1+54InFng1CmFTSsrK1FWVjbqxlBq2UyGannIMaG/v982JrA5Lzy7PwllHJk32QLGLQEJzUSlsx1OjvqLmOBffhr8jmeBEQp0c6M4gDl/CYva8N3t4MsrwZeWQujtYNEYsvK1OjTqVtNFX4ANioVgCXxv/cg56SEx3UiFe5BoPQUztZ0sXAAAav1JREFUFc9bvD/0BMtm4V95AejuALy+3DQyOh13tOaktOQ7RTMHsrQxQ9OLxxHviIy+kTwHd2URBLcLSlxF4JabwV15PXTREtBJXYJqWr/dWBcbqumgJWTEEULviMtxnhJU11RirtETNvCTRzUElE4I0KD2R+E7/AICDTtZOme4di3a1r0eqr8UZV4Nd75mYlbTvT/5OtTjuV2tR0WUUfQPX4JYWoXk4V0wulogVi2AzJzi5nZaVPL0cbR+7xtQGk8Pe8616RJU3PVhyEWTV4dkM7vHa5ntenp3F7y+yd2uaCSMK9eVTLvPPJJuuOeee8Z0IXvXu941ofUXHEL54he/OKE3sLGxKZy9p8cnXnJ6tHBAeRE5HhnQYpSyQvatJng1BdPjA1eAwxBroJlMwIxFwJFVb8APjhot6qqVfkRT/ZTmxAbV6ZskQO9pR/+el1G08VLMFcJNx6D1tIz7dSQQ+MXLYcTCdDUCKDJCPVdIECYTgMcLkLUy3R9xJekf3ASqNtajaftJpLpHKJbkAUfIy+yXtb4IZL8XpfP8MHuOoMdbCzOpQNTJHa0cZlYK1GhvTShwows8AuiHxJIhLTQICHMBrKoqLDVnpkMpYfsagIONlsFXqR+oDIlo6a2wao9Kgf7SZWi+7K6B19BPJ3BAZenEa0eD7/5H9P/uXij7to8ZqpXWXYrAG+9kvUUI13LqYTK1fUxmEs75i1D/jXuZTbna0cbOfVJxmV3vYmNzltx+++0s8DEV2ALGxmYaDYQ6x5hIHwkaEJH7bXlQRG9Us4aT1MiQun1ILgg0kPIFwUX6Rq2l4b0+iG43hNUbYXQ0ApoCTpSZ7SuZC1jd1q00M6vQP30KoYhMx3EcPbUWS+pz+1jMNijq0XtwO6BN3HKWKyoGv24zjOOHgb4eK32Fvs/iUvCLlsE4fghoODnyNmhkaU2DKxOix4H6129Ba2Mc4W17YMbSDVQJUYDD5wIviVDDcYhOGWXr5jO3OuPUIQTbn4ah6cyaU3P6EJm/EdHFF1mCauStH5DNGpzoZvUwbE8jucyen1/mnhODv5ZuAw+8AGQb/LX2WD8Na0iap2Se7kukVw1g3llc18nEIfjWD0G/5R2Iv/QEEq88BYSzImJFpfDceAfcKy+Yc6lh4yWlmDh0SsGZDg2KFkJ9tYRVIW78Nq02NlnMZRtlYqrPO3YRi43NNKE7UmCzOtOAp3EP5L4WGA4P4hVL4Uz2oioAOGM1kMUQohAhsPaYgFGzAMLRPTCdbpYall2oP7BKGlRVz0PR7e9HzF2GpoQT8tHtCB5+EqYWByUX8SRS2Kx/uo7CYfV8YY0xqSeJwwGx6yD2CRuwum72nlrCpw6clXjJETEbt1hRGIqOkZ2y1w+0t4DraIOZtq5j3/HQGXa6z/Mw/UFwThez0PbU+hGoK4PHCCMJJ7r6BMhnjkLp7gPPc/BUF8M/vwKSg4d2/AiMcIT1CGJpgVR+k+yFfOAR+HuOI7J2K+LOUujCSCmBQyuvaLAusN1jcY0HfvfE0qJmEuG4gd88awmRobAMQKo7ynIfJFFDkwy0vGYARV5gSdXZb4fg8cF37evZLdNIle03hdZTzXFOtaj43aP9ON1iZAnRBBwS8MarPNh68dwworCxmWym2tyn4FFGUVFRXjVFuW1UpEPNarZu3TrZ22djc9bk7Tw9DemNjS1gPKd3omzbbyBFu6hifGB2lxNE8P4gun0BiAuXQ19yJUR3ephZWQujaj74puMwAiHwkTBADmOZeg1BgFKzFOV3/j1SnmKcblWYnTMWbURSj8F96hVrOSo6pzWSi5HTxW7sBJVKgvMHAZ8fQfTiQCdQWaSjxDf7BlD0eXUyM5gk2H6ZlSPNBp+njjJBw56zpvKZPGD2uVmj4WTtChRd+xok+RAadjair70XnKZgJfYiLvggVwgoq5WsvkAZsUH1N5EwjFgCcDhZLU36CXC8zMSo3HYCFQEnjOIK9Lur0eVdOELjw9xjqq5UQlnIi7nCwzsHxUtOGVPmf6zPCwuCWeZy1DA0PQcQcAGvuYAOvcmf488p0rcZla4+Hb9+qB8nmil6mAuJmV8/GkMsZeD1V87uqLLNFDHHq/iNAu3Jp1zAUCFOPvr6+rBz507cfPPNeOCBB/Da1752MrfPxmbCA814PI54LAZFVcFzHLP69ni907ZnkUsa3U7K3bwfVU//ELwy2ERwYNykazB6u2DyPIz9O1HU2YW+y18Hh4Nnjlfapa+BuP1J8M0nYZLluSQyRySqjdEuuAxYvAbtSRWpVAqUneSkWn1OQGLpZmhVtXCc3gvviZ2AprKBL6hYX1Os1CeHE/z8RWzALVAakWli9yng2jWYdegk/KaS/t5cy+uBkTHHLHLZ9ZB1ZOfQFvOipm4ZvByHS2vLoWomjpxOIflkExypKBTBA56j1K6BKimW6qenFPYb8dniJS2MSNCYqgqzsxWOgA9l4aPwpDrRGlwDRcovTqiWY0mtBx7X7DZweGa/gV0nyF7auj/S5CKbNEgHqGiZtfVAcxeQVC3tT2lja+s5lPin/6TKbGfX4SQaWgfFyzJnA95T/iRcouXSR4+3nvAhsuwt8FVMTR6/jY3NFAuYsVwC1q1bh6997Wu2gLE5r2iahnB/P2LRKPub8vAFUQSNOSKRCBM1xSUlcJCV7TSjNCDhaNvIqUklrzyQX7xkYXZ3QK+sg9jRiOKORvRWL4TE66xponb5TeB6O8F3tLDoixkshkldvtMOREoqAQMKRL4EHGedGqhxnuEtQnzVlfAFZKD5NMzebisNjRpklpSBr5kHjtzI0pUQAmcioXJQNAOyOMtmg6d4Rgmqmo50jQANitODZ39ZKCeyKIkcVi1yQkmuR2rn0+DcJsw4BzMT2KMXkQBNC5Wh4mUAjoOhKDBYA1QT7lQvqnr34kxoHVQK65HYdnCoLXHC43ZAKKD3yExG1Qz84G+5dS7jYeU8DpesAJIKIIuAU57d39dMYt+JJIuKEe8qfRib/LnNfumXqnJEgMd/jMQlr4OrfuX52VCbGYlVNTq5x/tkr28mM2mJ6hSB+bd/o07ENjbnnrbWFiTig4P7TPGsYegwFB2ywwlBEJioIc/x8vLyaVdkTAMbF9kgq8Nnd6X+Njh6B/s+jHoKa22EWVEL+cRu1G66GK1trQPLm0UlMIpKRnypAB0+dEEzvNA4V3Z5P9RAOZweD8xUyhIwZOVLqWRZxLjBVAtVswZsswledqbrgM42jp/+XjMChNKNKHpF0S3qNUGikpQHvU+WSMns1yoE1F6wLO+apWUboHe3QW84AjPTNJM10qS6JSc4Pw+zd7iZw+CbWNEZNgPNCxBNHV7EsUhsh7RwLWTKiZojUKTqJ4/mipeBnyxrFxjyMw0uS93bXXQccLPuWJgNRNLGfRs8R4aJl2G88H8wKuvBOy0Rb2Njc36ZtBEcpZ7IVIRqY3MO0XUdp04czxEvxNCxhJq2EKbmq5qqIpmc4lSgCbJhoYOl5NBgKHtAJMZ6WH0DUcj8i66koEfD8HpcEJ2DNRaFvJaDDsmIwWH0saaYFiZ6XNXWANrhAOf1DRMv9FyzMJ9FYeh9qAh2tsEPFEaPdxaMflB+8CYIcFUtRGjNZexWtOZS5vbG+uqQwMzeATLig2q5TAOGyaOLL4Vrfv7O7WR37bz0ZjguvRl85Twr3Y+ES3kluLp6iGXlbHPMPDbNmceEYqvnhZjZGUUJYqQdEotlzh3OdJuIZp0qCi6lS4ubqpAdcZnOlIesIdDtJS8WtHxq11NTvEU2NjbnXMD85Cc/YWlkNjbnCmro1HjqZEGz4TSTStGXTMqNSqk60xCHxGHLMgeqQ9Z2ZsaxcrAobVBbIOFeCIEi9ue8yhBMrvBZc84EdPDgTRWCqbLXUnSAmh52u+el2xgOD2s3iYvQxxWz54s8NPidXhGuyUIsrkmPZAv4NQZES3p5XoDg9sNbuwzOkkELKtov3XXLoWkm4PbliJZMzhjtw6opoNfwob3qInDyyGmQZOogLVgJ17VvBrZcD37FevClleBlB/hQMfhAkJkvUISG1stuVPuSSkHw+yEEg+CpHisTWhAkK5KTTkGbK7x8ZPD0MlS8DL0/8HMNOljj5gvP0YbaTIiVC+kYMuESChTmjYemepNsZhnZ54XJuNkMUnBQ+xOf+ETex6kb6KuvvoqjR4/i2WefLXR1NjYTpre7C/29PblmHAOjjJEHzYauwUzn/k9nVzJKN1lW7cDSKpO5F1klBvNx5gE3QDbIhWCacK3ZxP6kVDmn24dktK+wGWSWIUVxGB48pyBuBiCZcQicDt0VQKu4FL5kJxxajEUDorwfrcI8xOCGoolse1fXTd/v92zxV9ejJ0x1QIkhjjC5+yAnuyC4PJB9IUhuH0wSAFSTlbafHorkDWDbQyexhTsELk+tDb1G4114JLYRK1dsLmhbeYcbUrAMimGAV5PgUnFwiTDkJUuhnj4Fo6cbJkUjKbojihBLSyHX1VkWvCSiaJslhyXVKLUtbbk8V6DC+3HDWWljb74U8Llnp4ifLfi9/PSqgbOxsZl8AbNr1668j/v9fmaf/Ic//AH19fWFv7ONzTihWeLW5iakUqOkf9GgawQRY81gWJbK07GIfyjM1StrnOu55DrEnvhTQa/lQ6VwrhzstF1a5ENjtC9vY718OGUeimqlk1FCmNMbQtCpgTM1ZrHcHSnGkbDE3JYMg4NmCNAMDk6Jw8YFHPzu2V0nEVq+Ecm+bsQbD2Y9St1EXfAvWAnRkZteVwh6Rws26TvAmcP79DCooF5M4e1l26DvPoJocjkcKzdBLJ/HIi4j4fAWgUvGoMYBXSbxxEOI9UKur4dZUQ4jGmNOZbzXC54c6rLf0tDBOb0wlQSEigVWmtssQVENHGoE4oqBJVU8igPDzxslfqClZzAQNtKxE3ADCyqtyYaVdUB5kS1cZgKSyMMnpQo+L8IbnPqNspk10AQks1Cf5HXajFPAPPWUnftpc36g1K/uzg4kYtHCLNBHEDFsBlvTmJ3yTKzXCtz4JsSe/PNg/5ZRKHnvP4GngvA0TocEgZdgjjQ4zpPKJgkcDJ1HTZkDLicJvkHRV1oMUAm5oulo7jZZPwyyhS3yzG7hko0zWAxn8DKrF056nzubyF7s8f+FNNbvQ6mPmgohmUDy5Q7ox/YxISLULIFYtwKcv3hgG4z+LuiNB9i/nKFD5niYngDgLYLZfcaKrvAcBH/aHpleRzPMQ80tlCQ4lxdC5ULMRAzTRH/UGqAGvFYvlvuf0pBIWY03KZN6x0mrnm7rOgMr6wajTCRG9p0e7O1Cgn3AECMrtex1F9miZbIh17a9DcDhFhKb1mM1xZY9+2T4SOjxGObv/Am+WhstODVX3HzD2b+xjY3NpGD7othMazraWhGPRsbfuymdu5/VAYPdd7pcCBUPDvJmEiRIgu/+CPp+mr8nUwb3ZddDrq4b9ngo5EN3N6XepXt+jLIOGpQbus565jgdI4s9cqRaUI45DduXxlFjlA9TSUE9eaiwgZTVDIbZvKk93eA9biZQlJ5WCLXLINavgRnugnrwBZipBEtlozQwZs/c3wmz7dRAl0Wd+v6EwzDa22GkrOaZQiAAvn4BJCcJYA5CqBJC3XLwrpnVpJLqiR7YBnT2D32GJgAy4mUQQeDwxF4BuqFizXxLxFQWc1hSbeLImbRgSUdiMtA6Vtba4mWy6YsBf95hub9l5/03dgE/fRJYXAFcuXri69fiEah/+E76upDVcHCEA5A9HCyHWFoz8Te1sbGZVGwBYzMtaWlpgRIvMOIyCpnrkexwoLi4BA6nc0aKlwzeDZeAlxzo+cX3gHjaAzQDz8N3w23wv+ZNeV/r83qZhTQrwmcDsZGFTDyRgEOS4PP7z9v3pesGXjgC9MSsBoCLyoGlVRz4Wdh3RD19ZPwF8qyviwa1uxticQgc9fFpOgzd6YXR0QAzlQTnDgz+frwAk5zsTAM6NXjt6ITW2cXWkY0eTwCdncC8eRCKQkAlByQTMF2+GXPsaLqJHz0GaDnBypzpjLzQx3tiD48186371AD3+g2UUmniQEPu+mg3vHQlcOESW7xMJrRbP7xruHgZeB7A0TbgSCuwogrYspyZ+hW0T+w7rmDX4RRu7f8uclpUjSJi2N2qRXBeeeuM2f9tbOYCtoCxmVZQilfz6ZPs78lK9fT5A6x55Wy5+LjXbITraz+G2tqIVGszjGg/HPOWwFG/eNTPSBbS7HlynMq6auebeOTS6WHnq1bo6YMGuiKD92ngeOAM3UxcvsxEWZ56hZmMEembmMUMCdFE0hIhAgkgF/SmQ4CSAOdwDd8flCT0aBSp0w2WUBkiXgbQdCRPn4aoGuBSL0A79Ar46oWQN1wNjmyZpzmP7MoWG9b3OpKb2FBEkcPfXkrhxosdA6YaW9dzuHiZibZeEykNKAtQ49nZtQ9OF1p6gYjlKzEq9DsebLFu6+YBGxaNnFqmaib+8GSUCZgisxOiP4+ezdfHZ/MNcC5YY5la2NiME5oszOfaebbrtLGwBYzNtIFy0CdbvFTV1M6Igv3xQhdUuaae3cZDaUkJOmh2fXBN7P8ZSZOLif5wGMWhEM4lzx/OFS9DefYwcOM6A27HLBpAno0oyFgd07+yE2YiYrmKOTx5FjWgtLTBoKKCPH1gctANGP394GrrLeFz+hAUnofjwuvOYlNNqO1noOx8EnrraXC6Ds7tg7RkLeR1l4KfgPlBPk62D7zjuHShy4hglbkfnjNd2Pe/PPjSWizctAxOlxNeF4dFLnvwMNU0Zp+exiCz2+9uAI60AKvmAWvnDY/IvLw/ib3HFPg9PG4RX8h9Mj2Dk++XdS1eP7EPYWNjM+XYAsZm2kAOY5OFy+NBeUXlrIm6TBY+nw8dXb2AOXTmPc/3ZALRaBRF1BNkaGH3JKMbBk60Az1hoG1YzcJwXjkBXLECswZp3hLaaYFEbNzChXPIzAJ50LiCs/Z7g6IyubbHRlKBQU1f6fccbWSfidQlYjANLS0sTBjNx2Es3QA+YDW6HA9q0zHE/3o/EA0PvDfL2gn3ItXZDPXgK/Dc9iHw58npabm+DxvNlyFBhSla85xGTzP6Ht6LwJZr4CqvPifbocci0Hu6LFvrsqo5N/s/UZelhArsOA6cbANesx7wugZTx3YcSjFR43RwcOuJ4S8eYtBgYzMZTEXvFrsXzCC2gLGZFrBGk2phDlkjQRcfQRTh9ngRKim1xctIcDSoHSF1aAimYbC0vql0bXvukJFXtIz283WOEqGZiQiBEBzrtiD10mOFvyjdG1MqLbHuO92AmgLnoboXHmasD6YrnTaYxjTSTmPpfkhjQ11NDap5B2QXzHAPjPamcQkYSt9pevUgQi/+hEVc8uZy6TqMnnbE//pzeN/yDwWve7Iu9tVGAzaZ2yBAhwIJOo1mWam/Di8XQWzbI5AuuwFCoATcEFE4WWjhPoT/+lukjh+ymoqaBnivD56Lr4H30q1TPokwXagrBg42T+y19HN3R4FfPge4JAOJaBJHj8eYCx15kVDdyxl3JYoQHl7/YmNjM6OwBYzNtMA4iwZhmWGQJMtwuT0IhkK2eBkFp9OJRCzPLGQ+aIZ/ir7LzrCBp7PbqIyQGTVX8G69FcqRPTB7Ogp8BVkg+yGWlAC8yNLHyAhArFoIONzQDm8HEhGY1DhTEGHqGjhy4BIEmGMZIaRH/iyyk44A0H5g0o0iOwWSVEw88nIKF+34Jbjs6ch8be1NE3pbA/SOMxDKzi7aIQlkl1z4qHSNsQcidKRAVuPWtlH2usTpEDgTHsShPve/SAoyej0L0FV7BYr8ErxOIOjJX3sxVs2NogHN3UBLQw98T9+HYON2cAb9RoMY3R3obziB/t/8EI5rbkHJDbeCdw9PDZxN1JRMhqYwEVc4JroXLnOioSGCrs4UGtp1POjdhFWlR8ZexdINZ7UFNjZ2BGZqsQWMzYyFLnI8L8DhcrHeLiReREmyxcsYVJUHcfxkb0HpErLsYMX/k82hMwb2F5AxOJdEDImF4Hs+hb777obZ1TbKghyLoIjBIBx1teBEiQkWTtfAVywAX7kIHM3WLzWhn94PMx5mvVDouBArqiF09gD9vdDFJLgxnM8Ml88SR/RbkA0zx4H3FhX8mbYd1hE/fQJOJMe++mZc1RoOT1jA9ERMvHpMZ2lDpikUtE85zCRC6ILB3Pl4Fg3mYcLFp4a9VtAVlIQPQz7ahYcctzFnN1kE5pUCy6qBkBdo7wdOdwA9aZPA8gAwvwwo9mXe30T7q3vQ++Dv4Og+jVo9lXMsjuSVlnrizziz92VUffJrELxUhT47od+GUsAe2jXRwVpu3RO5FtbX++F2x9HUGENL1Ikj/mosdZzJLJ4X58aJ13rZ2CDL2G6y12ljYQsYm2nB0PSIsWbg6Pnisgp4fV6WLmNTODSQVTkPZHP0egvD5FjNzGQKQt0wse2ogZa06ZZkpLCcO4hSs52l66gQcQZ1aOTrkeJGLuiuDGDKYI0pDeO81B4I/iIUveefEd/xLFI7noaZcSejSJjbxSIugjcAvqwKQlm5VQTPnvNDKJsHLlQxcDwIpbXgi6tg9nXCpNQyyQEuWAr4qxF74k+IOwCH1jG6kO3pQOupdpTVlUGIh1nqGF85r6DPEk+aONpsYnXiwDi+gSGNVsZBV7+Jv2zX0Bs14ZIBldNHFDGUyaaqOmSZB2fqLNpC6XUGTPCcCSc3XLxk41e7sFrcgT3cZmb3e7wN6AgDFUGgvc/KuqMoEH0Uqu2i592CisDxZ1D9ys8gqTGMFUfJ25aksw09f/4lSu/4IGYz1LDymjXAE3vH1ry590deuKzMjWhEQ09PCve23YAPz3sEC830LEp2/YvohPMtH7cnwmxspjm2gLGZFtDFori0DN2dHaOKmEydS3XtPPBzrLh1MqmrKsWR0yb8YjxvhEM3eEQMP3yKjPTE8VmjaAYe3mWyTugCBwTRgw14EWKWoQAVUC/CEVQaTXiVuwhRPr9S2bJ0kq0pTRN73vw6GD09gw9ygHvpMiz6f9+DKJ87Jzve64f3ypvhuewG1reFE+UJiymOF5ioyUZeto71guG2P4XkiR4IwwwdsjABX9shxPkEfFWVkC64iqWjFUJ32EQ4ZsKV7BpuGzUSvABx3tIx100RltPtJpq7TBiGiZCPw/EWg4mXEAWNOI6JiFNtKoqC4kDvIHrrRFJHPG6w56mpJW8KiAUcCAhR8NDh5NSCopMLlQPYI25mPYroE1FW5rE44HdZN4LEDd0MRUHtrp+g6vQTLLpzNiRfehr6LW+b1VEYYkEZsOBa4NE9wGlylRvyo4w3OkO7XkWliwkY1QB+0X0DPLKG64L7sCbQAhSVQtp03ZREnG3mJpSOmklJncx12ljYR6rNtMHrDyAajSCVGKzPGHqoVtXNn9KC8rmCx8HB7y9CS68fMmLwigmInAkNIpKGA6rhZEKxo99AWdCEcJbNI/tjOp48MJi+IyGF9fo2iNCGtNO03J+8iGO1uQvbzMuz3LUsXrPKEryTxYFPfBiJVylfJT0TS+tm/3GIHz6Mfa+/Aav/9NA5FTEEiRZOcE3+ejkOjhUbIJTVQP1//zz2CwwDQrQTPfPfgpqy8XQiN5FQAEmPZ97Ycj/LFPJn/4bp0ShfXgOxfPT36IuZePgVDR19JhMhtBb6N5YEgl5LvBCabj3e2a2Nqp0MCDigLMIW1y44UJh4IaS0mxW5ZpGIofdiDlrpFVAJTn/ceryy8VmUndl21uLFWrEGvadz1guYDNettf7ddgTY0zDycqNFXzK43RKL9pPovXiNA6sWBbCg+tpZ2RzXxma2YwsYm2kDDawqqmqQTCbQfobykwcvSLLLjarq8QyebMb6rkv8Itr7DaiGF72ad+A5GmO6HRwblCmaiVjShN898Qu8ouh49pABWbC6zWg6jzrzNGQoQ8SL9bc1BjThRz+CZjf6UMqWWF4FLK+ZPFMBLZnEnte9BkY8U5+R/ofECw1oBN4qXE8pOP7xD2PZ936M2YLS1oT+3/yg4OXNZArK/peBtWNHRzLQV6jrJvxcjH23LKLKxGFaSQwdcEoyPK+9c8zIC4mX1h4zXTxv7QvRpIlwHOzmdphwSJlC/MGzyGjj213aGizSm1AljKMJSdZ+yyyX0+u3IjtkYGD9zWkKyppehKiPnpY2Lvi5F32+aKl1a+8F9jYAjV3ZzUoLw9r1TPjcwOuupPRjW7jYTB12Ef/UYgsYm2kFXVBcLjfmL1p8vjdl1kPXblngIMrWQIvqU6x/aTbbZE67HJWDnMUZ85WjCvoTGjyO9ODBMGGKQFl8lCL1NDwMBMw+LF1Uitriya1zokHMwbffNihe2BsOTtGbzMHKAJe2l6JIDL1mpg94jGQC0UcfQPKVpyw75ULRDPi6D4+/CzX7zrIr00kYUnGIVWc0AM+jQ6hAwDe6QQCljXX05ooXQuQ58LzJgjuRBOCQAFkCnDKHeGr0/ZfqZerKBGxrWoA3lhQuYJK8FR3LfLyMLstsFUWA6HE50QNHsheTiVQ5dydzyouArUVkzw0caAb2nQbiijmuAeWVF7hm/LFsYzPXsaufbWzmKE6JG+hYTQPNpErWs9ZMMo3fKXc/qQHRxBgd20ewxX5wh4JISoPImwhqnZgf34eV8e1YkXgZDiOdVjRCwk5mOELpHpXByR9ohHfvhNKZrs3IRAWy/86IrSzxpkXTtlIzFFPXEf7DT5Dc/sT4xAtB2V/m+PYDn4tjfTfCYii3ni2TSkYKOX0j1zTvGKYSREu3yfbNbPFCMMEiWoPTeMran2kJqo0RhiybjUsCPnCzgNaWMBLJ8Qn1V+TL006IaUMKIZ0eKQwZMHM8jPRtMiZP+dKKguuQZjOSCKybD7xxs4auzqyJiFGIRlWUBDnccoV7yrfPxiYjmCf7ZmNhnwVtbOYoTplHQNaQ6m6HqKsQBRcUKcBGYXSOTFHTQ0g43aEj5DPgdvBjihYlHkUqGUdDp4Fyp4CU6URZ8jSKNSviokOAAJP13BjFa8lKyQGH6nklwwar40WPxaB0dkDw+iBTzxQAHb+8jwmUUTEzBQ7pdKQZXnvV+6efQjuwY0KvpUiUWJxrBjAWAS+H6hIOe9ULUaOcyl1fnuUl0bB61YwyOM+kZw3bPjKF8HBoV01yYmbLUfDM5TDhc1KKmRUNyvzkFGxbUMXh7VeLaO/W0NalIcoVbm2XgBMt0kIrTY4cx0iH8dZ6U5olpuhG25V0lyDuq4Yz3g1hHGlkI+31YqgUhqaBt4vNGd/4eRhN7To8XglO58ipdTTw62mP4KsfKpozTUFtbGYz9hnQxmYOYqgK1FN7UNV1BkZWLxCdk9DvrECPqw684IFuKlANGc3dGpZUjTyA11QF/Z2t0JQUK5B1w4SXBnVKDB6tAyons3UPvD94eI2+9Mz8UBFjjTJjXAAdihdFqg5H9rR2gfS9vB0Nd/8nlLa2gaJx54IFqP3Ah6BFCoim5JbmQHSc2yL+yaT/qf+D9urzE3694JDh2rJ13K+7cbOI7/9hOa4XJAi6OoJcteCcTmjHdkJatnnE9ZX4LVFA+9jQwmuvy6qBIax/rf0o5OdwxRoeomginuRYtGZBJY9if7rYX7MiNqbTh6QhwcmP3huH1von17sHPgcJF6cIlAetfi8HmkgwZaWTcTza6y6Dr+8UeENhImYikjwTDUwd3ov273wFFR/9otXvZw6z/0SKiRfixPEIli7zQ2C1a7nLschcOIxPvSMIwXavtDlH2H1gphZbwNjYzDFMTYVy8EUY4a50fYuVbkOIpoJQogketRed7oXod5TD4BT0x0YWL6ZhMPGippKskWgiyUExTQicAb/Sx6ItCpc7aNB5CSnDyRocpg1uc55PwYFd4oXQujk0dJuQBA0XzAfKgoWdslp+/jOc+eEPcuPtlCZ3/DiOfeaf4Vm+tLB23+mRUPDqazFTMVUFqcf/OPEViDz46npI85eN+6UVIQHXbpRxeP8lWNn19IgDd1MQoYZqYLSdglG7DLwnfzRkYRWPl48Y6I9THUxuTRLVuridwLXrBeZERnURbplDTSlZOnPojQJ+jyU0yGo5Q0mRAJeDR1Ix8WJ4Ca4KHhhVYPAbb8LNXnLos+pcqNam1A+U+KzdpSwAtPQAfXEgpQDNPUBn5UbIsS7MP/R78KqV7jRi80ou67ER9k/1yD40ffJOVP7Tv8/ZehgSdE++Mpg6Fo9rOHiwH1VVLhQVOQb2jURCw4njYXzy7X4U+W3xYnPusG2UpxZbwNjYzDG09tMwIt0DVcfWOD7j2sRKr5ljUkniFFKCC6bohz5S7g6JjUSMRV5EUWJNFMkMIK2LWOdycp4SOB2GmTtbnBR9EDQr/iJAA7UR1CGii6/AYWENG9RmoNqc7ScAidewaRGHkNdyCMtH/NRJnPnxvYPiJbNc5r6qInHiNDiRh0kNIfJZ+tKiNMNP/3lcWPCZf8VMpecvvzqr10v1S+G//aOsp8xEuHydE48lr0UbelDRvW9YEjf9zt1FS1EV8sKM9UJrOAhp8QZw0nDRTO54V68T8NirOrojJmTRHEjbIte89Yt4LKsd3Dc6+008tstk/WEyb0sT8JVFwCUrAI+Tg8clYP0KN55+OYJ9yUWoU3tRL7WyVMec7QQHfslGOKvr4aTGiCNknFHqGEViMqzXgEMvHoFv7/3seBhcX/a6swRNoVOssQhav/QRFL/vk/BsuBhzjd6IgY7e3LqsVFLHqZNRNPBRFqEjF7zM715bNrejVTY2sw1bwNjYzCFM04DW0cAGkVRjwjqQZ80Fm+nHeFNjN7/SiaToh9Mx8qyPmkpYRdPpdBaqPTBVEkeZ9XEQoEPFYApZBo0T0SbVokeqQkoXkDRduWJi6HsZwItHTbglDcuqdFQGqVeKdRoj96mYYqL73h9bvUaI7HVlNQIx4jG4Fi9C8uQJmCTOciI11rK8wMO5eAlW3vtTzGT0nc9M/MWyE8E7PjZh8ZJh60VudNa+FpEXVLhjHeCUJPuOU5IXLp+MSjEGs8cq4jeOvoLUsZ3gKuZD2nA9eFFiA9H9x+I4eSaFgFfEjRvdONHO4VSr5ZxXW8ZhRR2P+opBm+1IwsTT+yx7ZZ/LihR29+vMGjwSE5md9/UbSPhw2HqxD81tCk40pfC72HpcXFaMlZ4z8PBJFs0Rg0G4lm2AVFY37s/OhbtR9JvPDRgn5NMnZzO07v7RNyDXfg9SWSXmArqiYP/3foaeh/+Ci1ICdi16M07PuzpnGfqqKc0wQ1kRpRDa0Rebc4ydQzal2ALGxmaGYSpJdoMggnN6xmcHSgn/qjJm+pT1NA+31s/ul/pGL47Nxu0AIkmrziUleuFWemmafdjryNWKojNxIQiFcyGJtI3TqJgIcv0o1ruhNsfRdAYwRBe6zWL06EG25f4D+9mAMO+asnqQeNdeAM+ypeh9/FEYSXWgxoATOMjzarHmZ7/DrOAsbGvcl1wPbpIaeJZUBqHWlEGNuxHWPBDUGPx697DlrNQpA2g9CeWZ3+IF54342YO9bFSa1AQYJomUbqxZ4sRnP1Ax4v5/vMWqhaGeHycbk4jGjYGvgud19PQLaGhI4IO3FsHnEXDXm0qwbU8ML++L4YWuxdgTXYALl3JYv8ILX1lgwra7Pb/4Xo7r21QkgPQ/+keUvP1DmM3Q8Xnqv3+Ilh/+kN2X07erdn4dxs5v4KEtX0FHxca8r/3QbVk5gzY2NrMCW8DY2MwADF1D8tB2oIcafKZxuCEESiFWLoQQsNy1xsLkycrVGsBzmQF77hKDfw1YCwOlo9SeiLJsCZ50nxSasfbIJmIKh7hcBJcWBm/oVlOZ9DpJvEhGElGhCBEhCFUfUXLkbFsF345yrj2dbiaxAamoRlFOzRKNJNrMioFB6mgF42y7PR7UfPTjqP37TyC8/Xmo7R1wrVkH/4pVmFVQhEq3utGPC38Q7ouumbTNoCgOX7UQ4vFdCHkNGF3DxUs27GcM92B97A/YfI3MfteIKuGphko8fKoae44k8U/fOINvfip/DcjpDmtHONmsssaky+RGlKnNgKagWyvCGWkpDjdy+NZ9bfjEuyvgcfG45iIfrrrQC0U1IYmjWzAXSuroAUw1yd3bgVkuYBruux+tP/zhsGOa7lO6300vfg5/vPI76Avl9hD7uzd5UFs+sx0EbWYmNG1hTME6bSxsAWNjM81JdTRAP7w9zxNx6B0NMGJ9kBesg1BUPuI6jGQMyqk9MPo6WARmaHb/MBnD8az4PiL5mYuwNEr6hdPtQ1zqga4qECSZiRif24rhpFQZYVcFHPFeOIzEwLsYHMfEyxnXMuimBH1IfUw+3IijnOtgkSEFg1EBDSJEU0UZ14mI6YNatwwCfc508CFn4nxwCh6hrdexP0W3G6GrrL9nI9L6S6DuGGcamS+Ikg9/GbzXP2nbYWoadMWA2h+F2dgAzimBdzlHjGxQypeRSEBK9bBUNt7pQtDrwxuWNGJTXRTf378Oja0qtu2O4KJ1vgErb+pfFE4AHX1WGpkPUWzu/ytK1DZWayVxKgRDhxZ5Evvdq/HA4SXo7itGcdBKcaTaidFSJsdNJp1xCjFShfVBmalosRjOfO/7oy5Dv9hrtn8Rv73xV+yYD3g43HmLDysXzFz3QBsbm5GxBYyNzTRGCffkFy9ZmLF+qM1HwAdKcmoVEl0tMI9uG55CRLUqwxoZZkVeqAqGBAsPFkFZPm/0pm+8IMBXXI5wVxuzU870WHCLJlwihwRXg9PCMkiJTrjMGCRqoOkrQlF5MWrdAkvz2d9kMNem0Sjie8FzOpImlVDnQiLGySVRxPWi7bI3wXFwGziNCqZZJ8F0TtzgZ3SvWAH3vPmYC/iuvxU94xAwruvfDN/lN07qNmhtTYg9/kfoPe1MmJjRPita5/XAUV0JLqunCUXy9HAYZn//YN0IH2NV+lyvA0J5BWrcwK2rzuBvxSvxq7/1YvUyDx7dBZxqs1r3EJxpoDx5Cpf2/gk+oxcK54SD15jTHmfqcGoxXKS/gPVLjuDx323Bbe+7lEUPs8lEFQlD16Ge3gvjzDEWxWH7luiAuHA9pOrcWf8c6LNR2uYUwjlnd2PGnheeK0gIuhI9qCkTsHGFA5tXOlFaZNe92JxH7BqYKcUWMDY20xjt4IsFLWf0tiHx/P9a4QZXEUBNFyOdeZdlqWF5RYwlXgxBhMmLSLpCKC5ywOMcXnw/FIfLg6LyWiSi/VASMTbwk9xOOL1+lDvdqGeDwHl5X1vkBTYsAHafNtA9SnsWqpIxWaQm3+w4x1zOyJZZXXwB4lffDs8Tv0qnTqVdxdLI1dVYds93MVcQ3T54b3s/or+3agdGwrnpavhuefuk9xbR+7oRfeg30Pt7IARC4EQJqpZiIkAPR5AyDTjm1TGhoFLPnmSeaAKlIFLyo5KC3t4GoboOS+UGvBxcC0P142dPALGsHpGCoWJz/1+wMLYbLjPOfn7ZTLH8C8uqmEvXQxlwxLpwo+dJPHd/L5ZefRH+uh146pUoi+Sw70/gcPUqFXfU7QAP3aqVsqrEAVWDeuhFJI9sg7jp9XD5htdaOFdtQHLXS5hKXGvy137MBuj7ju3fVdCy9Nu+/QYvFtXaKWM2NrMdW8DY2ExnlDHCEvlI9FKrcIuRBqMZEZMuaGdvJZNlshO6IEN1eGGKMpxc4bUTVAvjC5VSyf+4N9nt4HHxEg5HWnQca8u/DJkCkEPaSFB1Dy1Dny164/ugzlsB95O/gaP5CJtxJyepsje/FVW3vxVzDfe6LRDLqxD+629gnDo8+ITDBc87PgpP/fh7vBRK6uBOGH3dEIrLmM02oTkCkM0eS3hG4zCiMRjdXaOvKBONoWapkX64ih1w80mESr054oVYG3kKS2I7WWrhYKVXlt9edm4h/Z2IY2PgIJQdZ7AyXITdwnK0KpYY4U0Vt5TvYPsQufhxlK5FgmqgeQsHQRShb/sjEltug8vjytmW0Ns+gJZ9O6jbK6YESUbghtswW9H7OiG6Ck/pqyixhzU204Osy+ukrtPGwj7SbWxmMzToG03EZKXMqM4gFHdw8Gl2O3dNs2gGflm1iEXlBrYfM9AzRLv1mwEE+DBLDaI6mJzX0miSM9FvUHMO6tIOaKsvQXj1JWywSVEFsst1lgDOqIGgxzIbmEvIlfNR8t5PpyMI+oD99FSjHN8PyNRYcPA3Y40qkz3gBB6GakLp7GId7ceE8sPIDCIWBYrLoJocq1nJxqnHsDS2kxlFGJwAYUiz1gEG3B6siIoZj0LyuLAq1I2PrX4V3z6wAS1xL66rb4VP1q3vLBnPE7nkwFHqpAl0Pf8Iaq9/fc6zotePis9/C21f/wzr3TIimUkFSgNVSewUMFKRZJTc9XFIJVmNZ2YRhppC8sSr8K9YZPVlyrJGzovXD6/L7vdiMz2wi/inFvtIt7GxYZh5en3IHu853w5R5HHJchGv3SBiTR3gTdfg9pkBxE0XHFyKpfJk4GHAwSWRMF3oNQOZ/pOD8ORRxEEzgFOdwMvHdOw9rSGlzs2pLBKK50q8EKaiDOsjQ80ee1A8+EAiUejaBgb2cdOJuOkellFYojTBpUdgQGA3YkypSgJGIRFCjTENlDnjuKH2JHtqU1W3JXJY5CXP8CHd+JTTVYS4PqSU4bUacnk16r55P8o+/mU4N2yBvGw1vNfcjOIPfhrFf/cpFL/3Eyj+u39G6G0fRPCN70Tg9XfAufZC8MFicC43u0HMSuV0e+G95rWo/MI9cK/bjNmK0nAA0FUITgeKr798zOUXfPnL52S7bGxmEs8++yxe+9rXoqqqip3///SnP+U8T5NaX/jCF1BZWQmXy4Vrr70Wx44dy1mmp6cHb3vb2+D3+xEMBnHXXXchGh0l5/scYEdgbGymM+4AELd6sYzJSBGFIVGYfC1gDF6EKnuGrI+HaxJdqCbCvFIR80rJTcrAsVYRDb3zUCc0ws3FwcEqjCZxEjM9aNDrYHJiAWbMQGsffT4Na+aJcy4Sc64Ri8uhNtLFcHBfoq/cGfCjrY9HGZpZJKZgSDA4XdiTWgpRoMTB3N9PNpIDDVpJwNAeMVrq4QC6zgwGyISC40wsD/Sg1BmHLKSjLwNW1Fx+UcVEjIbO7hRqKvMX1TuXrmK3wj+qCSMeZdvGe3zghLlTlK7F+qF1twzcr77lSpjxGHqe2ZF3+aoPvReVV112DrfQxmZmFPHHYjGsXbsW73nPe/DGN75x2PNf//rX8e1vfxv3338/6uvr8fnPfx7XX389Dh48CKfTMs0h8dLa2orHHnsMqqrizjvvxPvf/3786le/wvnCFjA2NtMYed3VUF7845Sf/5LO4LBUs0BpJYRzOFM/Gj4XjwsW8Eipbhw+sxitPRF4OCvHjGbhw6ZVrzDW8C679KE7AvTFTIS8toCZSuTl66E2nYCRTDAr5AxeF2CGVXRLlaiQegtfoSCg3b0Q+7RVTEvQXpudWdQrlcPgeJZqCE4k42SrgL8ATDIQ8HpZFE8SdPglBW1RF6rFngJebP1vaErb2UCzpYJn7jVhJMe35NFXcs5W9F3UvvVmVN16PRp/8SCiB46xSZaiTatRc+cd8Kzccl632cZmunLDDTew20iTJPfccw8+97nP4XWvex177Gc/+xnKy8tZpOb222/HoUOH8PDDD+OVV17Bxo2WYch3vvMd3Hjjjbj77rtZZOd8MD1GJzY2NnkRRQnKumuB3Y+PvNBZRBBoeEBuYylPKHeVvAhvMPex6YBD4rF2Po++Uj+eP+IfUtA4vqkpRQP64yRgJnsrbbKRF6+G2ngcyqFd0BMxy/LXpB4vcXjdMoR1r4H58m8LqraiX/h04AI8br6e7fblAaCmFNiRle3QK1eiTyxDsdoKndXBiEChAobVnlhQyuE8Xy/MRAzwjlaAn4lpmswJr7x0uM23zfhIndoDKPnTCgVJQv2dWbPIvAD30k0j9hOysTlf0BxKvqzTs10nEQ6Hcx53OBzsNl5OnTqFtrY2ljaWIRAIYPPmzXjppZeYgKF/KW0sI14IWp6i1du3b8cb3vAGnA/sGhgbm2mO2x+C+/I3A3WUepK+SHPSsCL8EcmzDBMush99oYVIekuGPe/0DEknm2YEPSJuvkBEVXDwaxjtqxjpqcm+uNgMh9KeXBddA2mB5XRm9HfDTCUh1S+F58Y7ULVlM8SLxu47w1L/pPl4yncbfC4OW5YBt13G4YpVHJbW5C67PXgjUpwDDlOBMOBEVsC2Zr1ZQFLw7sWHsLGkc4g2HikvhEOTYykzi7CZOGpPO/TuMwUvL9UsAy/Ztsk2c4va2lomNDK3r33taxNaD4kXgiIu2dD9zHP0b1lZrlGIKIoIhUIDy5wPZlUEZv78+WhoaMh5jH7UT3/60+dtm2xsJgv3/BUA3dLEX3kISBZQRJc1sqdhV7+7DIanaFZYNW5YKCKW1PDCESBP7TSDtfvINDccMrZ0T2bHdZu8pI7sQfzZv8GMhpmrlKlrLL2LUsrEMiv1wHvRtQi/+jig5G/4yCSD4EDxzW/FB6s5yIKVUpThtRdy/7+9+wCPq7rWBvxNrxr15iL3jrHBxsYUB2OHktC5gdBiCNc3oYaScCGhGEInIdzk8kPuEzCE0BNKgIRAjIEQMAQT09xwl7FsSVbXaPr5n7VlySojaUaao2nfy3OQZ+aUrRnNzFln7b025kyIYNXnwL4moNo1CR9Zz8H8pr/C4a9DJNC+jwFfbXUFU6JhDVZT1zdBtC27v0m8RhemHntk7E8M9SJ/H/7N0ce4ROXwwFo2Ts8mEaWkyspKNaC+w2CyL+kuowIYcdttt2HZsmWdt3OiTCxGlAnsc46H76PXgGCUif+EMx+OQ45FxOdVg6QNVgdqKrep27F0XUsXLrsZS2ZGsKM2gg1fa72Cr76CMZsZKMphAKOn4K6t8L71MjRfK8IyviTgUy+I9LsOrluDhn17kXfxf8NosyPnkrvQ/NQDQE1lr/0Y8orhOulCmIv6nmNoRKER5x3T9Z7p0EKTEP56K3wb/o3A+k9gMfSOclVZaXUQA7T6ekT27Wu/bTLBYLfDmJMDo8UCg9ae5ov25xSw5CJvyXfYjWmIvF++d6CPzECMZjimzedzTlnJ4/F0C2AGq6ysTP3cu3evqkLWQW7Pnj27c53q6upu24VCIVWZrGP7ZMi4AEYClmQ+oUTDRfqfOg8/GYHWJoQ+fRsI7+/nb7bBNHsJbFJ6Vc7DnO7OE7VADMGLsCWhfPJQn4txJUaMKdKw6vMQ/D3OU6Od48wYbYTFzJMfPfk/+0hV0VKVtIL+XtFkeM9OtLz6JHLO+L46EfWcdzW0SBjBnZsQ2vkVDHYXLOOmwVRUPqgTVYPZAvOYKXCVVQC+Nvi3b4AFoc58Smfw0n5j//wrHY0Lq9LKkeZmRDweNRGq1DPrOp8NHDkwFJTDM2MBDFaOfRkK79bPAH/sE/daK6bDZOFzTqkrHSayHDdunDpnXrlyZWfAIuNrZGzLJZdcom4vWLAADQ0NWLNmDebMmaPue+uttxCJRNRYmWTJuADm7rvvxs9//nNUVFTg3HPPxdVXX6366vXF7/erpUPPgVFEqc7q8sB6xCkDrueTyf9iZN8f9KQbqQC1eJYFO6uD+LKPbvRy8nrIOKA0L3tK0kYTam5E48tPIbBto7ptLh0J91HfhH3qwWriz6HSAn4EKzdDCwYAfx/zvEhQvXEtwtW71fGFzBljHTtNLYlisDngXHwGzB/9HcFdWxBuaoAxImWRwwOeEUiQY2hqgqxtzs/fX92s/fkxTZoL89hp3YMailuwuR6Rmu7dv/tjcObCUlKha5uIMiWAaWlpwebNm7sN3F+7dq0awyLnyldddRVuv/12TJo0qbOMslQWO+209kl5p02bhhNOOEH1bnr44YdVGeXLL79cDfBPVgWyjAtgrrzyShx66KHqRXn//fdxww03qLrV999/f5/byBiZW2+9dVjbSZQMTfu6p4D7k+7dMipKLKgoAZpbg1hXBbT52ruMjS0FyvLMaf/7DUW4pRHVD96J0I4DX2giVFUJ35efwDF7PgovuExlL4ZCMinSHUjzNve/XpsXga3rOgMYvRjdubAtOgOW+mpE6mtUBYe2t/4Ira1l4LmD9gcxEZcLJqu1vZuTwQhT8UgGL0MU9rfBv/79OLYwwDGZVceIYvXxxx9j0aJFnbevueYa9XPp0qV47LHHcN1116m5YmReF8m0HHXUUapscsccMOLJJ59UQcvixYtVj4czzzxTzR2TTAatWw499cgA/HvuuaffdaRG9dSp7RVuunr00Ufxgx/8QEWffQ1wipaBkeoOjY2NCelfSJQKwqEQqrZuiGldi9WO0rETdW8TDS/5qG/46x/R8uoz/a9oNiPnuNORd9J3h3y8xiceQHDTZwOuazt0ITxnXIThJF3UvC88HHP5bXXC7HLBXFTUHvAYjLCdchlPpIdAuqB4167sexxfFOaRU2AfNVnXdlF6kPM1qcCVaudrHe16dlUDnAmeDNrb0oSzF+Wl3O+cDCmfgbn22mtx4YUX9rvO+PHjo94vffNkoNH27dsxZcqUqOsMtnY2UTqp29N7YHRfPMUHBvJRZgjs3om9v74VaGoYeOVwGN6P3oXnm6epwfWDJSf2xuKRQAwBjBZLNb0EC9dLRjLO63eBALRIpL2L3bhZDF6GyLdxdVzBCyx22EZO0rNJRJQmUj6AKS4uVstgSB8/SXX1rF9NlE3C4RD83tbYVjYYYHe2D/6n9Ccn2/v+8BDaVr8Vx0Yawo31CO3ZBeuYgTNxoaYGNL/2B4TX//vAnaMnoOD7/w2trf/uYx2M+cP/GS3jYgZFJg8yGmEZHf2iGMXGv2cbIk37K77FyD7jCAaNlDZSZQxMpkr5ACZWMlOoVE2Qfn5SiUxuywD+888/H/n5/c95QZTJGqpjn2jKU1TCE4QM4duyHjUP3S19DuLfeH+p44H4t29G86NRJlCr3IK6W/8Lmt0d8/iU4WYqkKBJ/tbjOCOQzEtHgYMEFDrIVqHmegR3fBHXNuZRU2C2pfYEu0Q0fDImgJFuYM888wyWL1+uxrRIJQUJYDoGKxFlo3A4jLbmGLoN7efOLdS1PaS/iL8N9X98HN5/vjnofRgdTlj2TzLZX5WxqMFLV94Yqzo6B5kNGQLp3mYoKIVWF3uAb3A4VFYfRhOMTs4xNhhhvxe+de/FtY0xvxz2kRz3MlThUBAtddVoqztQ0MWaU4C88lEwGrO7KqMemIHRV8YEMFJ9bPXq1cluBlFKaaqriXldV15h+8kZpa3dd/83wju7VxeLm3QjnDUPRmf/V7tb1/wDiWIuHP65uyTTaF9yFtqe+82AWRiVlbTZYHS3Z5QMpWNgsHDsZLwi4RDaPo/z78buhmNS+9wTNHhBvw/7tq3vdX+guQ7VzXXIHzsVNvvwX0ggGiyerRBlcIWf1vramNfPLSrVtT2kn9qXn0DlpWcOPXiRYKJ8NPJO/96A6/k+fGvA8TcxcbhgHTEWyWAZMRb248/Z35Wsn+DF7YapuBhGk0lNXmmedaAkKcU+Fs/7+btAOBDXdvZpC9itNQHfBdGCl67qt2+IqdsoxU7rkoVJ2JLsXyqFZEwGhoi6a6jeHfO67oIiZl/SVOM7f0PbGy8nYE8GOBYcg4Kzl8FojSG7EDhQfr6neE6ErIceDUMsx9OJddpcGPOL0fben4G9u4BQqLOcNDweGJ1OFbjIBJvGERNgOmghTHYWuoi7K+unq+KrOCYBZsUMmK2Dr4RH7aq3xFZCv3bnZhSPYZW3RGEXMn0xgCHKQHIC6Y2lZO5+uYXMvqTL6xpprIMWDsPkyVcDyZuf/92Qv9Uc8xYi/4LLYZIMQ4xM46cj/FkfExDG0Z7AP1+H/+hvweZO3pgSc9kYuE/7ASJ1VQjW74XW2gCEgjC4cmEsHAFTXgmMVocKYij+v1nfun/GHbwYcgphK48+RQLFl31BuO+LDV2F24a/nDnRYDGAIcpATfWxlyd15xWwi0aKa2uoR8MDNyMsY5okOLBYYMrNh2X00E7wTOWjUPKjW2H25MW9be7J56GurwAmTk2/vA7FtzyEZDKYrTCVjFELJS54ad34EeBtjG9Dix3OaQv0alZWqdu1NdlNyFrMwOiLAQxRBmqujb2yUk4h50lKVVXvrUL4mf/X+4GAH+GaPWoZFKMRud/5PjzfOHHQbVOTXI6eBFR+hSEL+hBsaYIlwbNWU/JoWgTedR8ALXXxbWg0wTFrES+qJCiADHljm4uJKN2w0ztRhvF5vTGvazCZYDLxOkaqCQWD2HX5d6IHL9HEcbJnnTgDI+/7/ZCClw5Fy64HyhOTsfB//HZC9kPJF4mE0fr5u9DiDV5MZjhmLeZnUoLU7d5xYDB5l4WGL4DUY6F2/JQgyjAN1btiXje/bKSubaH4yRfUnqvPTfh+jZ48FF1+I2yjxiV0v0WX3Ayfz4eWX1wLBOIb59BNeP/geUprkVAI3nX/AOIdT2GQzMuxMLE8dUI01OxFoLk+6mNyChztkodnJMccUfpgAEOUQcKhAEKB2MuUOl3sspNqav/4eNzbSHcbdV2uj6tz5qkHo/Syn8Go05Vtu90O+40PIhwMwvvGH+FbvRLQwnHtwzJjni5to+ETCfjg/fI9INAW97aOmQsZvCRIU0Md2vb1X4WyVxBjMMKZk6t307IKx8Doi13IiDJIU10c876UlOvaFhpc9sX/zmuD2laNGehYunAsOgnlV96iW/DSlcliQc63z0HBzQ8B8RQGsNhgKxulZ9NIZ+G2Zng/fXtQwYt14mEwOdonCaWhaWluROue9q5jsTOhbMosnVpEpA9mYIgyiL819m4bOXmFuraF4qcNsguWY8GxsE+fjYYXnoBWX6OuppoPmouyH16HZJBApvi6X6Fl/b/R9uSvB1zf88OfDUu7SB/Bhmr4N34Y/4YGE6xTDoM1t1iPZmWdxn174a2pinu70ikzdWlPttNjzBETMAcwgCHKoIHfoWCg1wdctL7OucXMvqQkQ/xJcYMrB55vngZLSTlch6RW6Vn3tEPgvn0F9r20ApGP342yQi5yL74B1mLOQ5Su2nauR7hqc/wbGs1wHHQUTI7kzf+TSfZsWQ8tGNt8L13ZPSyjrxctoqkl0fukdgxgiDLEnu2bol6d6biv61dUTj6zL6nIaLXBVDER4Z0xnhAaTShYeqUKXlJZ4WkXAbJIVyNvCzSfF8acPBgt1mQ3jYYwQaIa7xLvHC8dA/ZnHMngJUGvw94tXwLh+Macdcgtr0h4m4iGA8fAEGWAvbsrYy6vmFPAeV9SWcEZF8S2osON8ntXwDF9NtKJyemGuaCEwUsaC/l98P7rr4MLXoxmOCXz4mQBkaEKh0Oo3b4pSvASW0Ylf9x0Zl90pOm0UDsGMERpTgKXQMvAJxLqg89oQk5B0XA0iwbJNnE6cr5zcb/rOM+7FKPuWwGT3TFs7SISwcZa+Na+Kdf+49/YbINz5kIYGbwMWdDfpoKX8CDHzblKRsNmY9U3Sl/sQkaUAWNfYmV1OGE08rpFqsv9xglwTZ+F2teeRejjf7bfaTDCdsq5KFx4HIw2Bi40/BdKfJXrEK7aOrgdWJ0q82JkqeQhvw5tjXVoqqmC1u/cSYY+r9db3Pnw8EKW7lhGWV8MYIgyoBtBf19WXZkt9mFpEw2dubgcZRdeBchClEQhvxe+9aulzOHgdmB3wTnjaBjNlkQ3Lev4mhvQUrsXWiSWMS+9u4c5CoqQV8KS5ZT+GMAQpTlLHGMJbA6nrm0hoswRCAQQ+PLdQc3t0snhUQP2h2MeokwWCvjRWl+LtsZ90CKRwWV2R46HM4fd94YLMzD64icKUZozmc3tkxe2T8Xe/8pxzo5ORNmpZW8lsH1tt0+UeId7Gxy5cM48mgPFh0gCl2bpMhZT1iW64gkzYLYwA0aZgwEMUQawOnMQ8Db3E8S0z9Aea6UyIsrScS57tiG0axMQ6T22Tj49Yg5F3AVwzTgy0U3MKpoWQf3unfA3NwxhL0aUTZnJIDIJmIHRFwMYogxQVFqG3duau2RiuujyxRXpd9AnEWXrXCL+qi0Iff1Ve5iiDa6LUgfTiMlwjJ6SsPZlo6Z91Wit2T2kfbiKR8JTWJywNlGcGMHoigEMUQaQ/uUOdw7aWvYHMX1oa21FTn4Rr8YRZTlVfr2uCsHdm6G1Nce+XX9ZGKMJtulHweLiOIuhBJM12zYgEgwMeh92Tz5yy0az4iRlNAYwRBlAAhK7090ewPQj4PPC1+aFw+katrYRUeoELcGmWvh3rAN8LQndt7F4NBzjZvHiyBC0NdajoWrH4DY2GNSFLE/JCNhz8vg6pICI1r4kep/UjgEMUYYwSzUy1YWs/0+42q93YPSk6cPWLiJKjlAwgDbphrRns9RC1ucgJgtsk+bBklugz/6zQDgcxr6dmxH2D67am8FogqugGI7cgvbvAaIswACGKEMYTaaY+8c2NzYgJzdP9zYRkf60cBiBmh0I7N0B+GVm9qGNYYl1Ximjpxj2yXNZInmI5ZEleImEYp+QuGfwIt3FHB5+nqccTUt84RyOgenETx2iDGGxxj7DdUP1bgYwRBkg0FAD/5Z/A+HBnQAPlsFTAue0+cN6zEwSDgXRVL0bvqb6we/EYIC7qBT2nNxENo0oLTCAIcoQ8fZ5rty8EaMmTGZfaaI0FfY26RO89DOvlHxamMfNhr1kdGKPmU2lqpvq0Vj9tcqcDZbKvJRXwMHgJWWxCJm+GMAQZRCj0YRIrJOdaWHs2rye42GI0pS/eod+mRd1YaPLmDqbC45Jc2BmhbFBq9+9Y2gZl/0MJjOKx02BycyJKSl7MYAhyiB5pSNQV1UZ1zaVX61jEEOUZrRQEOHGGv0PZHfBMfFQmF280j9YdVW74G+s7ZbPMgwheCmZMJ0lktMAMzD6YgBDlEFc7hzUDWK7mqpKFJezS8hg+dvaUHvTfwFd525wuJG39Eq4ps1KZtMog2dp1/NsxphXAvuYg2CyOXQ7RqYLtLVh386t0LTeWTJtEIGM3VOA/BEVCWsf6Uxe5ES/RRnAdGIAQ5RhSsdMxN4dm+PaxjfA/DHUt6//+CTwjz/3fqCtBQ0P3wn/8Wei4FtnJaNplMEMJgsMZiu0gFQdSxCTBdZRk2EpruAV/iGMcWlrbkBzbTXCQT8ggeYQSdalaOwUmC3sMkbUgQEMUYaxWq0oKBuNuj2VcX/xckB/fBo3fB49eOmi7W9/QnDuQlhKyoatXZT5DEYjzEWjEdy5bmiXZQ0mmDyFsFZMg9nhTmQTs4qMPWxrbkRz7d4DJZFjCF7klevvU9dVVA5PUWniGkrDJqJpakn0PqkdAxiiDOTKyYHVNhF74szEUHxaHro9pvX2PfFrlF17p+7toexiKx6FUP0eaM374t7WXDYB1vKxMFnsurQtm+Zx8bU2w9tYh5BfJgsd+gmmwWSCp6gczvyihLSRKBMxgCHKUBarFTaHG/62lpjWZ/YlPlo4FPO64Z1bdG0LZSfpWuSaPBe+yk0I1ezo+4q/vLfNNhhzi2EdPQUWS+xzRlHvTLVkt/1NDYnfucEAe04ecorLYbZYE79/Gl4cxa8rBjBEGaxkVIWqMjaQvGJ2b4qXFgjEt34korr9ECU6iHGMnQ6tYipCbS3QAl4YbE4YbS6YTKZkNy+lhUJBNNbsga+5sTP4M5otKBg5FjZ79+IFwWAAtTu2QIunbLXBGPMYGCmWkFc6ClanK75fgihLMYAhynBSIrm/IMZqd8Cdmz+sbcoEBmscV7FNlv3zahDpQ4Jji8zRwnlaYhLw+1AjXWx7BBgyfqV2x1ed41IMRjMcefnw1ulTslqO4yooRU5xKQwS8FBmFSFLdAImsbtLawxgiLIkiKmv24eWfXsP3GkwoqC0HE63h93HBtlPPVbOI47lc0yUQt3Aaiu39psd6Rhcr0VCQwte+snCyP49ZWPgyuMFJKJ4MYAhyhL5BYVqocRxnnYBvC89MeB6rnnfGJb2ENHA/N7WuMawDVmPIEYCF3tuIfI591ZGYxUyfTGAISIapPxFJ8G/bRPCn37Y5zoFF10Da8WEYW0XEfXN542tsElCGYyw5+TCU1gGs41FFIiGigEMEdEQlH3/GjVAf/ftVwEdXfTMVnhOPQ+O6YfAzDkciFJLAiaXjJUUBXB48uAuKIbJxFOu7BsEo8M+SeG7iYgoAQOoR97862Q3g4hiYHd50Fpfq9v+TRYbHDke2FweWB1Ojn/LUuxCpi8GMERERJQ1bFKqWEqaRxKficktHQlnbgGDFiKdsWYfERERZQ0JLgpHjet/nXj3abKgdOJ0uPIKGbxQ9y5kiV5IYQaGiIiIsord4ULxuMmqnLIW6l6RrL/wQ+aFkdLKnfvJK0RB6UgdW0pE0TCAISIioqxjtdoxYsJ0NS/M3p1bEfG19rt+wajxsLvcw9Y+Sm/ydyVLovdJ7diFjIiIiLKWdPkqGzMBeSPGRn3caLGiqGIigxeiFMIMDBEREWU9Z44HzikHIxKJIBwMyuVumCxmGFn+mAZBkiWJTpgwAXMA35VERERE+xmNRhg52SRRSmMAQ0RERESUQBwDoy8GMERERERECaRFNLUkep/UjoP4iYiIiIgyzPLly1WRiq7L1KlTOx/3+Xy47LLLUFhYCLfbjTPPPBN79+5FOmAAQ0RERESUgfNYzpgxA1VVVZ3Le++91/nY1VdfjVdeeQXPP/883nnnHezevRtnnHEG0gG7kBERERERZSCz2YyysrJe9zc2NuKRRx7BU089hWOPPVbdt2LFCkybNg2rV6/G4YcfjlTGDAwRERERUQJpEX0W0dTU1G3x+/19tuOrr77CiBEjMH78eJx33nnYuXOnun/NmjUIBoNYsmRJ57rSvayiogIffPABUl3aBDB33HEHjjjiCDidTuTl5UVdR16Ub3/722qdkpIS/OQnP0EoFBr2thIRERER6WH06NHIzc3tXO66666o682fPx+PPfYYXn/9dTz00EPYtm0bjj76aDQ3N2PPnj2wWq29zqlLS0vVY6kubbqQBQIBfOc738GCBQtUyquncDisghdJk73//vuqn9/3vvc9WCwW3HnnnUlpMxERERFlHz3LKFdWVsLj8XTeb+tj3qITTzyx898HH3ywCmjGjBmD5557Dg6HA+ksbTIwt956qxpsNHPmzKiPv/HGG1i3bh3+8Ic/YPbs2epF+/nPf44HH3xQBT9EREREROnO4/F0W/oKYHqSbMvkyZOxefNmdcFfzo8bGhq6rSNVyKKNmUk1aRPADET660lwI6mvDscff7zqG/jll1/2uZ30G+zZl5CIiIiIaKgZmEQvQ9HS0oItW7agvLwcc+bMUb2UVq5c2fn4xo0b1XAM6e2U6tKmC9lApL9e1+BFdNzury+f9BuU7A4RERERUULo0IVM9hmPH//4xzj55JNVtzEpkXzLLbfAZDLhnHPOUWNnLr74YlxzzTUoKChQmZwrrrhCBS+pXoEs6RmY66+/vtcEOz2XDRs26NqGG264QZWS61ikXyERERERUTrbtWuXClamTJmCs846S01YKSWSi4uL1eO/+tWvcNJJJ6kJLBcuXKi6jr3wwgtIB0nNwFx77bW48MIL+11Hyr7FQp70jz76qNt9HbOJ9teXT/oNxtp3kIiIiIhoQIOdeXKgfcbhmWee6fdxu92uxorLkm6SGsBIBNgRBQ6VpLyk1HJ1dbUqoSzefPNNlRKbPn16Qo5BRERERETJlTZjYGRQUV1dnfopJZPXrl2r7p84cSLcbjeOO+44FahccMEFuPfee9W4lxtvvBGXXXYZMyxERERElBFllCmNApibb74Zjz/+eOftQw45RP1ctWoVjjnmGDUo6dVXX8Ull1yisjEulwtLly7FbbfdlsRWExERERFRVgYwMpOoLP2RKgt/+ctfhq1NREREQxGJRBBsaYYGI6xuF4zGjJndgCirRTRNLYneJ6VZAENERJQpIuEQWl57FBYEOwfm+gGEDYB57hmwjyhPdhOJiFIWL/UQERENo0g4DN9rv4VFOxC8dDBpQOTjF+DbujFZzSOiRJD3diTBCxMwnRjAEBERDaPWt1+AoZ8TEXlM++Lv0CJyxkJE6UjT6T9qxwCGiIhoGJlbqwdeSQP8n783HM0hIko7DGCIiIhS0Y7Pk90CIhokLSKLluAl2b9V6mAAQ0REREREaYNVyIiIiIaR9GI3DLSSrODMG54GEVHCScXjRFc9ZhXlA5iBISIiGkbGsXNiWs88e5HubSEiSkcMYIiIiIaR/eDDEeovBWMADK4CmAo5FwxRutI0TZeF2jGAISLKwEkSA80NCLQ0qpneKfXknHIZDO4iaBLIdFkMshSNgW3R2TDIDSIi6oVjYIiIMkQ4FETz9vUI+1q63W925cJdMRUmkylpbaPe7IvPVj/DvlZo9dWAxQpTfikMJn41E2VIGbLE75MUfkoSEWWAcCiEhk2fSPql12Oh1kY0bFqD/ClzYTQy8Z5qTHYXUD4u2c0gogSS5HeiE+BMqB/AbzIiogGEAwG0NVSjrWGfChRSkXf3lqjBS6dwCC2yDhERUZpjBoaIqA+hgA8N29dDCwW73W+w2pE/bjpMKdTVJ9BUN+A6wYYaYNSkYWkPEVE20/b/l+h9UjtmYIiIoggF/Kjf/NmB4KWjqL9UgvG3oW7DGtRsWY/UEdsXmz+GQIeIiCiVMYAhIoqiadfmAzf6Kl3pa0LNlx9iX9VOpIuWrr8XERHpI6Lps5DCAIaIqIdIJKwqQykx1N2P1FWpQMYnXbSSxRDjx3kkhH1ffohAa5PeLSIiItJF6nTgJiJKEZFg9zEvsWr+eit8jXXIHT0JhmGs9qVFIjA43NC8MQYlWhjN275QQY81vxTO0gqWWCYiSqCOXseJ3ie1YwBDRNSDYQgn88GWBrTs2QFnyWg0V21HxO+F0e5ETvk4XYIEmZnZW10JBHzxbaf+F4G/rgqBuirAYkPexNkMZIiIKOUxgCEi6sFktsj/VOnhwfDVV6ulQ1gG/TfuU/92jZoIZ25hwtoaamtBsLkeWhxt1aLdDvrRsP5D5EyeC6vVmrD2ERFlI02LqCXR+6R2HANDRBSFu3SULvtt3bVZjZdp+nob2ur2ItDcgJC/TWVSBpvxiedLTRvgsaZNH6PNu3/8DxERDUqXwpUJXagdMzBERFE48koQ8vng21ely/79DdXwNxqkvxpMZpP6KV3XQlK2uWd3MIMJOaMnw57j6bWfSCgAGGQ/RtUlrD+xfve1bv0UlslzYLba4vmViIiIhgUzMEREfcgpq0DepFn6HUAup0VCCAf8CPu9CHmbo49lkUH3O9ej/uutvR4ymqxqP6YEBxsNm9Yg6PcndJ9ERNlCi2i6LNSOAQwRUT8sVjuKZ8xHKgg11KBuy+cItDR23mfJyYVBsi8qC5PYAfiNX61RJaWJiIhSCQMYIqIYSBDjHHtQspuBsM+Lxh0bULP+YzWGxmh1wOLOU4P4jZKF6SeIMQzieE1fbxlSe4mIspOm00KCY2CIiGLkcrng2p+Nad23F766PYgEAzAYDDCYzDBanQi11g9PYyJhtFRtB/bshNnhhtmVq0o2w2pV88Jo4QhgNsFscyMcDsQ+R0wPocZaYPTkhDefiIhosBjAEBENgquwVC0qWJBuVgYDjCazqjA2rLQIQt4mhLySfLHAlpMHW24hzHYHjOYD5ZClypm/uQGtO9fHfQ3P17gP9gSWfiYiynSRiKaWRO+T2rELGRHREBiMRhjNFhW8iMJphyWtLVo4CF9Djepi1rBzM0LBA4PwJUtk9+Sj8KAjYHC449pvy+7exQOIiIiShRkYIqIEMhqNarxMfdV2hOr29rOm4cAPHYr7h9uaUb9pbfshLHZYczywuPJhNBrgLqlAa0MNIo01Me5scBN6EhFlK8l6D3Z+r/72Se0YwBAR6SC/fCxQPhbhUBC++loE25pVtCJzvWihACLBYPtMzeEQtLBU+tLvi0kL+uCvk6V6/x0HBoMOZmA/ERENRI+ZJxnAdGAAQ0SkI5PZAldxOQBZDpCxM+GAD5FIRA3ID7Q2qTEqaiC+nroELxK+aNAGCGIY4hARUWphAENElKSxM2a7s/O21Z0Ld+lo1UUg0NqC1j3b1eSWidfzCl57ENP9nu7/MjlzdGgHEVEG06ELmR7djdMVAxgiohQig+1t7hzYJs5UWRpvXTW8NV8DET3HoRgODMeJ8qh71CQdj01ERBQfBjBERCmcpXEVlakl5PPCu68KgZYmNYZmuJjzSmCRCTKJiChmWkRTS6L3Se0YwBARpQHpbuYZOUH9O9DajJbqSoS9UhggcXp9NRqNyBvVfkwiIqJUwQCGiCjNWF05KBg3HeFQCM27tyDY3KDLcfImHarLfomIMp2MLew5vjAR+6R2DGCIiNKUyWxGXsUUBAMBNFVuQsTXOvBGBqP0Q+j74f0/XeMPhtliSVxjiYiIEoQBDBFRmrNYrSiccJAqydxWtxfe2t39Tz4ZJYjprDxmd6Ng/Aw1IScREQ0Ox8DoiwEMEVGGkKDDVVSuFinfGWxrhb+hFuGgX3U8MBqM0BCR6TRhstlhsjpUpTOpcGZyumFx5DBwISJKVMljllHWDQMYIqIMLcdsdbrVQkRElEkYwBARERERJTwBk+AuZEzAdGJfASIiIiIiShvMwBARERERJZBkXxKfgWEKpgMzMERERERElDaYgSEiIiIiSiCWUdYXMzBERERERJQ2mIEhIiIiIkogjoHRFzMwRERERESUNpiBISIiIiJKIGZg9MUAhoiIiIgokbRI+5LofZLCLmRERERERJQ2GMAQERERESWQ9PbSYxmMBx98EGPHjoXdbsf8+fPx0UcfId0xgCEiIiIiykDPPvssrrnmGtxyyy345JNPMGvWLBx//PGorq5GOmMAQ0RERESUQFokossSr/vvvx/Lli3DRRddhOnTp+Phhx+G0+nEo48+inTGQfx9VHhoampKdlOIiIiIKIqO87RUrcwV8Lfots+mHueoNptNLb3WDwSwZs0a3HDDDZ33GY1GLFmyBB988AHSGQOYHpqbm9XP0aNHJ7spRERERDTAeVtubi5ShdVqRVlZGR6+/zhd9u92u3udo0r3sOXLl/dat7a2FuFwGKWlpd3ul9sbNmxAOmMA08OIESNQWVmJnJwcGAyGYTuuRNPyBynH9ng8w3Zc6o6vQ+rga5E6+FqkDr4WqYOvRXJJ5kWCFzlvSyUyUH7btm0q+6HX723ocX4aLfuS6RjA9CCptVGjRiXt+PIhyA/C5OPrkDr4WqQOvhapg69F6uBrkTyplHnpGcTIkmxFRUUwmUzYu3dvt/vltmSJ0hkH8RMRERERZRir1Yo5c+Zg5cqVnfdFIhF1e8GCBUhnzMAQEREREWWga665BkuXLsXcuXMxb948PPDAA2htbVVVydIZA5gUIf0XZRBWNvZjTCV8HVIHX4vUwdcidfC1SB18LSgdnH322aipqcHNN9+MPXv2YPbs2Xj99dd7DexPNwYtVevPERERERER9cAxMERERERElDYYwBARERERUdpgAENERERERGmDAQwREREREaUNBjApaOzYsWqW1a7L3XffnexmZYUHH3xQPf8yAdX8+fPx0UcfJbtJWWf58uW9/v6nTp2a7GZlhXfffRcnn3yymtlanveXXnqp2+NS80Uq2ZSXl8PhcGDJkiX46quvktbebH4tLrzwwl7vkxNOOCFp7c1Ud911Fw477DDk5OSgpKQEp512GjZu3NhtHZ/Ph8suuwyFhYVwu90488wze00cSESJxQAmRd12222oqqrqXK644opkNynjPfvss6peupTF/OSTTzBr1iwcf/zxqK6uTnbTss6MGTO6/f2/9957yW5SVpC5AeTvXgL5aO699178+te/xsMPP4wPP/wQLpdLvUfkBI6G97UQErB0fZ88/fTTw9rGbPDOO++o4GT16tV48803EQwGcdxxx6nXp8PVV1+NV155Bc8//7xaf/fu3TjjjDOS2m6iTMd5YFKUXO0pKytLdjOyyv33349ly5Z1Tu4kJ2mvvfYaHn30UVx//fXJbl5WMZvN/PtPghNPPFEt0Uj2RSZAu/HGG3Hqqaeq+37/+9+ruQQkO/Dd7353mFubva9FB5l/hO8Tfcl8GV099thjKhOzZs0aLFy4EI2NjXjkkUfw1FNP4dhjj1XrrFixAtOmTVNBz+GHH56klhNlNmZgUpR0GZN09CGHHIL77rsPoVAo2U3KaIFAQH0hSZeYDkajUd3+4IMPktq2bCTdkqTrzPjx43Heeedh586dyW5S1tu2bZuaBK3reyQ3N1d1teR7JDnefvttdTI9ZcoUXHLJJdi3b1+ym5TxJGARBQUF6qd8b0hWpuv7Qrq8VlRU8H1BpCNmYFLQlVdeiUMPPVR9QL7//vu44YYbVPcAyRCQPmpraxEOh3vNTCu3N2zYkLR2ZSM5IZarnHJSJn/3t956K44++mh88cUXKjNJySHBi4j2Hul4jIaPdB+Tbkrjxo3Dli1b8NOf/lRlbOSk2WQyJbt5GSkSieCqq67CkUceiYMOOkjdJ3/7VqsVeXl53dbl+4JIXwxghol0Qbrnnnv6XWf9+vXqyo2Mw+hw8MEHqw/HH/zgB2owoXQZIMpkXbvNyN+/BDRjxozBc889h4svvjipbSNKFV277M2cOVO9VyZMmKCyMosXL05q2zKVjIWRCykck0eUfAxghsm1116rqsb0R7rLRCMncNKFbPv27eqqNCVeUVGRumrZs3KM3GYf8+SSK5uTJ0/G5s2bk92UrNbxPpD3hFQh6yC3Z8+encSWUcf3h3yOyfuEAUziXX755Xj11VdVdbhRo0Z1e19IF+SGhoZuWRh+dxDpi2NghklxcbHKrvS3SKYlmrVr16rxGNLXmfQhz/2cOXOwcuXKbt0F5PaCBQuS2rZs19LSorrIdD1ppuEnXZXkhKzre6SpqUlVI+N7JPl27dqlxsDwfZJYUrxCgpcXX3wRb731lnofdCXfGxaLpdv7Qsosy7g9vi+I9MMMTIqR/styQrBo0SLV319uS4nG888/H/n5+cluXkaTrntLly7F3LlzMW/ePFVxSUpldlQlo+Hx4x//WM1/Id3GpByplLWW7Ng555yT7KZlRbDYNdMlA/flAoqMx5NBydL///bbb8ekSZPUidxNN92kii3I3Bg0fK+FLDI2TOYbkaBSAvzrrrsOEydOVGWtKbHdxqTC2Msvv6y+kzvGtUgBC5kLSX5K11b5/pDXxePxqGkPJHhhBTIiHWmUUtasWaPNnz9fy83N1ex2uzZt2jTtzjvv1Hw+X7KblhV+85vfaBUVFZrVatXmzZunrV69OtlNyjpnn322Vl5erl6DkSNHqtubN29OdrOywqpVqzT5Wui5LF26VD0eiUS0m266SSstLdVsNpu2ePFibePGjcludta9Fl6vVzvuuOO04uJizWKxaGPGjNGWLVum7dmzJ9nNzjjRXgNZVqxY0blOW1ubdumll2r5+fma0+nUTj/9dK2qqiqp7SbKdAb5n54BEhERERERUaJwDAwREREREaUNBjBERERERJQ2GMAQEREREVHaYABDRERERERpgwEMERERERGlDQYwRERERESUNhjAEBERERFR2mAAQ0REREREaYMBDBERERERpQ0GMESUcY455hhcddVVve5/7LHHkJeX13l7+fLlMBgMOOGEE3qte99996nHZF897dq1C1arFQcddFDU48t2HUtubi6OPPJIvPXWW/22WdM0/N///R/mz58Pt9ut2jl37lw88MAD8Hq9Mf7mme/tt99Wz2tDQ0O/6/l8Plx44YWYOXMmzGYzTjvttGFrIxER6YsBDBFltfLycqxatUoFJV09+uijqKioiLqNBEJnnXUWmpqa8OGHH0ZdZ8WKFaiqqsI///lPFBUV4aSTTsLWrVv7bMcFF1yggq5TTz1VtWft2rW46aab8PLLL+ONN94Y4m+ZfcLhMBwOB6688kosWbIk2c0hIqIEYgBDRFmtpKQExx13HB5//PHO+95//33U1tbi29/+dtRMiQQnEnCce+65eOSRR6LuVzIoZWVlKkvz0EMPoa2tDW+++WbUdZ977jk8+eSTePrpp/HTn/4Uhx12GMaOHauCGcncLFq0SK0XiURw2223YdSoUbDZbJg9ezZef/31zv1s375dZSdkf0cffbQ6gZd9bdq0Cf/6179URkeyOyeeeCJqamo6t5NMhWQobr31VhQXF8Pj8eCHP/whAoFA5zp+v18FA/J82e12HHXUUWqfPTMjK1euVMdxOp044ogjsHHjxm6/qwRkhx56qNrH+PHj1TFDoVDn47KP3/3udzj99NPVPiZNmoQ///nPnb9fx3ORn5+v1pW2R+NyudTzvmzZMvU6EBFR5mAAQ0RZ7/vf/77KqnTNvpx33nmqm1hPkh2RLl1yVf/888/HM888g9bW1n73L4GE6BoQdCXBy5QpU1TA0lNHNzTxP//zP/jlL3+JX/ziF/jss89w/PHH45RTTsFXX33VbZtbbrkFN954Iz755BPVfUoCreuuu05t/49//AObN2/GzTff3G0bCTzWr1+vAhEJpF544QUVXHSQ7f/0pz+pQE/2O3HiRHX8urq6bvv52c9+ptr48ccfq2PLc9tBjv29730PP/rRj7Bu3Tr89re/Vc/7HXfc0W0fclzJcMnv+K1vfUu9FnKc0aNHqzYICYwkwyW/ExERZRmNiCjDfOMb39B+9KMf9bp/xYoVWm5ubuftW265RZs1a5YWCAS0kpIS7Z133tFaWlq0nJwc7dNPP1X7kH11de6552pXXXVV523ZXvbblXy0vvjii+rfra2t2qWXXqqZTCa1z2imTZumnXLKKQP+XiNGjNDuuOOObvcddthhav9i27Zt6ti/+93vOh9/+umn1X0rV67svO+uu+7SpkyZ0nl76dKlWkFBgWprh4ceekhzu91aOBxWz4nFYtGefPLJzsflOZP23Hvvver2qlWr1HH+/ve/d67z2muvqfva2trU7cWLF2t33nlnt/Y/8cQTWnl5ebfn7sYbb+y8LceW+/761792O059ff2Az1fX3+/UU0+NeX0iIkpt5mQHUEREyWaxWFQ2RbqGyTiVyZMn4+CDD+61ngwcl8zEe++913mfbCfdyHp2ZTrnnHNgMplU1zHpliXrRNunaD9v75+Mt9m9e7cqCNCV3P7000+73df1OKWlpeqnDGbvel91dXW3bWbNmqW6bHVYsGABWlpaUFlZicbGRgSDwW7Hluds3rx5KmvT17FlfJGQY8l4ImmnjAnqmnGRsSoy4F6yWh3H77oP6QomXdp6tpeIiLIXAxgiyjhywisn3dECkI7uWD1JVyepAPbFF1906/bU1VNPPaVOtmW9rsGHjE2RcSYS+HT41a9+pbqZyfEkgOmPbLdhwwYkigQXXbugRbtP2qyHaMfuOJYERNI97Iwzzui1nYyJibYPvdtLRETph2NgiCjjyHgSGafRk9zXNcjoasaMGWqRAEbGjEQjWZRrr71WVQjrWCSrIAPmZdxMVzJwXMaJDBS8CDmeBEAywL0nCZAkGJOgbMSIESqD0ZXcnj59OoZKfg/JFnVYvXq1GvAv404mTJigxgN1PbZkZGQQfzzHlsH7MnZFnpeei9EY29dRx7gkydwQEVF2YgaGiDLOJZdcgv/93/9VVbP+8z//U1Xseu2119Tg9FdeeaXP7aTil5yYd50rpoMEKxIAyYD7qVOn9uouJtXBbr/9djVwPV4yYP3FF19U+5HB91IVTQKfzz//XGVyrrjiClUl7Cc/+YkaoC8BhVQgky5v0i5p01BJgYGLL75YHV+qfclxLr/8chVYSDcueU7l+AUFBao72L333qu6fck2sZLCAVJOWrb/j//4D7VvCZwkaJTnLhZjxoxRGZlXX31VDfCXAgkSaEUjhQLk95ICAM3Nzeq5EvLcERFR+mIAQ0QZR8rzvvvuu6oilnTjkpNYCTqef/75qJNWdpAT9b5I9kWyDT2DFyElf+Vk/y9/+YuqChYvOSGX7mkykaVkcmSMiARCUkJYqnZJtS8hAZlkYyQLJGNCpD1SYljWG6rFixer/SxcuFCVTJZgSib67HD33XerblxSPlqCASmV/Le//U2VM46V/B4SeEiwd88996iuYvJ8SpAZq5EjR6puaNdffz0uuugi9fx0rSDXlQQ4O3bs6Lx9yCGHxDzmiIiIUpdBRvInuxFERJQ8UoBAxge99NJLyW4KERHRgDgGhoiIiIiI0gYDGCIiIiIiShvsQkZERERERGmDGRgiIiIiIkobDGCIiIiIiChtMIAhIiIiIqK0wQCGiIiIiIjSBgMYIiIiIiJKGwxgiIiIiIgobTCAISIiIiKitMEAhoiIiIiIkC7+P5RJdl8FzBWjAAAAAElFTkSuQmCC",
      "text/plain": [
       "<Figure size 1000x600 with 2 Axes>"
      ]
     },
     "metadata": {},
     "output_type": "display_data"
    }
   ],
   "source": [
    "# Track note states\n",
    "active_notes = {}  # Stores active notes {note: velocity}\n",
    "time_series = []\n",
    "timestamps = []\n",
    "time_elapsed = 0\n",
    "\n",
    "for msg in midi_file:\n",
    "    time_elapsed += msg.time\n",
    "    \n",
    "    if msg.type == 'note_on' and msg.velocity > 0:\n",
    "        active_notes[msg.note] = msg.velocity  # Note is played with a velocity\n",
    "    elif msg.type == 'note_off' or (msg.type == 'note_on' and msg.velocity == 0):\n",
    "        active_notes.pop(msg.note, None)  # Note is released\n",
    "    \n",
    "    # Snapshot at each time step\n",
    "    timestamps.append(time_elapsed)\n",
    "    snapshot = [active_notes.get(note, 0) for note in range(21, 109)]  # MIDI range (A0 to C8)\n",
    "    time_series.append(snapshot)\n",
    "\n",
    "# Convert to NumPy array\n",
    "note_matrix = np.array(time_series)\n",
    "\n",
    "# Apply UMAP (reduce note matrix to 2D)\n",
    "reducer = umap.UMAP(n_neighbors=15, min_dist=0.1, metric='euclidean')\n",
    "embedded = reducer.fit_transform(note_matrix)\n",
    "\n",
    "# Plot results\n",
    "plt.figure(figsize=(10, 6))\n",
    "plt.scatter(embedded[:, 0], embedded[:, 1], c=timestamps, cmap=\"coolwarm\", alpha=0.7)\n",
    "plt.colorbar(label=\"Time Progression\")\n",
    "plt.title(\"UMAP Projection of Chopin's Nocturne Op. 48 No. 1 in C Minor\")\n",
    "plt.xlabel(\"UMAP Component 1\")\n",
    "plt.ylabel(\"UMAP Component 2\")\n",
    "plt.show()\n"
   ]
  },
  {
   "cell_type": "code",
   "execution_count": 40,
   "metadata": {},
   "outputs": [],
   "source": [
    "reconstructed = mido.MidiFile(\"/Users/kevinhan/Desktop/Independent Study/Music Analysis/reconstructed.mid\")"
   ]
  },
  {
   "cell_type": "code",
   "execution_count": 43,
   "metadata": {},
   "outputs": [],
   "source": [
    "total_reconstructed = ''\n",
    "for i in reconstructed.tracks[1]:\n",
    "    total_reconstructed += str(i)"
   ]
  },
  {
   "cell_type": "code",
   "execution_count": 17,
   "metadata": {},
   "outputs": [],
   "source": [
    "total_original = ''\n",
    "for i in midi_file.tracks[1]:\n",
    "    total_original += str(i)"
   ]
  },
  {
   "cell_type": "code",
   "execution_count": 45,
   "metadata": {},
   "outputs": [],
   "source": [
    "def find_differences(str1, str2):\n",
    "    # Find the length of the shorter string\n",
    "    min_len = min(len(str1), len(str2))\n",
    "    \n",
    "    # List to store the indices where the strings differ\n",
    "    differences = []\n",
    "    \n",
    "    # Compare the strings character by character\n",
    "    for i in range(min_len):\n",
    "        if str1[i] != str2[i]:\n",
    "            differences.append(i)\n",
    "    \n",
    "    # If one string is longer than the other, append the remaining indices\n",
    "    if len(str1) != len(str2):\n",
    "        differences.extend(range(min_len, max(len(str1), len(str2))))\n",
    "    \n",
    "    return differences\n",
    "\n",
    "differences = find_differences(total_original, total_reconstructed)\n"
   ]
  },
  {
   "cell_type": "code",
   "execution_count": 59,
   "metadata": {},
   "outputs": [
    {
     "name": "stdout",
     "output_type": "stream",
     "text": [
      "MidiFile(type=1, ticks_per_beat=384, tracks=[\n",
      "  MidiTrack([\n",
      "    MetaMessage('set_tempo', tempo=500000, time=0),\n",
      "    MetaMessage('time_signature', numerator=4, denominator=4, clocks_per_click=24, notated_32nd_notes_per_beat=8, time=0),\n",
      "    MetaMessage('end_of_track', time=1)]),\n",
      "  MidiTrack([\n",
      "    Message('control_change', channel=0, control=64, value=127, time=1128),\n",
      "    Message('control_change', channel=0, control=64, value=0, time=1644),\n",
      "    Message('control_change', channel=0, control=64, value=127, time=115),\n",
      "    Message('control_change', channel=0, control=64, value=0, time=16),\n",
      "    Message('note_on', channel=0, note=48, velocity=47, time=49),\n",
      "    Message('note_on', channel=0, note=36, velocity=36, time=8),\n",
      "    Message('control_change', channel=0, control=64, value=127, time=27),\n",
      "    Message('note_on', channel=0, note=79, velocity=67, time=800),\n",
      "    Message('note_on', channel=0, note=63, velocity=39, time=26),\n",
      "    Message('note_on', channel=0, note=55, velocity=33, time=0),\n",
      "    Message('note_on', channel=0, note=67, velocity=34, time=0),\n",
      "    Message('note_on', channel=0, note=67, velocity=0, time=728),\n",
      "    Message('note_on', channel=0, note=63, velocity=0, time=1),\n",
      "    Message('control_change', channel=0, control=64, value=0, time=0),\n",
      "    Message('note_on', channel=0, note=55, velocity=0, time=0),\n",
      "    Message('note_on', channel=0, note=48, velocity=0, time=12),\n",
      "    Message('note_on', channel=0, note=36, velocity=0, time=7),\n",
      "    Message('note_on', channel=0, note=48, velocity=43, time=4),\n",
      "    Message('note_on', channel=0, note=36, velocity=37, time=3),\n",
      "    Message('control_change', channel=0, control=64, value=127, time=63),\n",
      "    Message('note_on', channel=0, note=79, velocity=0, time=698),\n",
      "    Message('note_on', channel=0, note=80, velocity=77, time=118),\n",
      "    Message('note_on', channel=0, note=63, velocity=41, time=23),\n",
      "    Message('note_on', channel=0, note=68, velocity=45, time=0),\n",
      "    Message('note_on', channel=0, note=56, velocity=40, time=2),\n",
      "    Message('note_on', channel=0, note=36, velocity=0, time=288),\n",
      "    Message('note_on', channel=0, note=47, velocity=35, time=625),\n",
      "    Message('note_on', channel=0, note=35, velocity=36, time=6),\n",
      "    Message('control_change', channel=0, control=64, value=0, time=31),\n",
      "    Message('note_on', channel=0, note=48, velocity=0, time=1),\n",
      "    Message('note_on', channel=0, note=63, velocity=0, time=1),\n",
      "    Message('note_on', channel=0, note=56, velocity=0, time=0),\n",
      "    Message('note_on', channel=0, note=68, velocity=0, time=1),\n",
      "    Message('note_on', channel=0, note=80, velocity=0, time=0),\n",
      "    Message('control_change', channel=0, control=64, value=127, time=179),\n",
      "    Message('note_on', channel=0, note=35, velocity=0, time=100),\n",
      "    Message('note_on', channel=0, note=79, velocity=64, time=264),\n",
      "    Message('note_on', channel=0, note=65, velocity=32, time=362),\n",
      "    Message('note_on', channel=0, note=67, velocity=40, time=2),\n",
      "    Message('note_on', channel=0, note=55, velocity=26, time=8),\n",
      "    Message('note_on', channel=0, note=74, velocity=58, time=612),\n",
      "    Message('note_on', channel=0, note=48, velocity=33, time=237),\n",
      "    Message('note_on', channel=0, note=67, velocity=0, time=5),\n",
      "    Message('note_on', channel=0, note=36, velocity=31, time=3),\n",
      "    Message('note_on', channel=0, note=67, velocity=27, time=1),\n",
      "    Message('control_change', channel=0, control=64, value=0, time=8),\n",
      "    Message('note_on', channel=0, note=65, velocity=0, time=0),\n",
      "    Message('note_on', channel=0, note=55, velocity=0, time=0),\n",
      "    Message('note_on', channel=0, note=47, velocity=0, time=0),\n",
      "    Message('note_on', channel=0, note=79, velocity=0, time=0),\n",
      "    Message('control_change', channel=0, control=64, value=127, time=103),\n",
      "    Message('note_on', channel=0, note=75, velocity=71, time=177),\n",
      "    Message('note_on', channel=0, note=77, velocity=74, time=179),\n",
      "    Message('note_on', channel=0, note=75, velocity=0, time=136),\n",
      "    Message('note_on', channel=0, note=75, velocity=79, time=10),\n",
      "    Message('note_on', channel=0, note=74, velocity=0, time=136),\n",
      "    Message('note_on', channel=0, note=74, velocity=74, time=9),\n",
      "    Message('note_on', channel=0, note=60, velocity=36, time=24),\n",
      "    Message('note_on', channel=0, note=55, velocity=36, time=2),\n",
      "    Message('note_on', channel=0, note=63, velocity=44, time=1),\n",
      "    Message('note_on', channel=0, note=75, velocity=0, time=110),\n",
      "    Message('note_on', channel=0, note=75, velocity=77, time=11),\n",
      "    Message('note_on', channel=0, note=77, velocity=0, time=135),\n",
      "    Message('note_on', channel=0, note=77, velocity=72, time=6),\n",
      "    Message('note_on', channel=0, note=79, velocity=75, time=154),\n",
      "    Message('control_change', channel=0, control=64, value=0, time=133),\n",
      "    Message('note_on', channel=0, note=74, velocity=0, time=2),\n",
      "    Message('note_on', channel=0, note=60, velocity=0, time=0),\n",
      "    Message('note_on', channel=0, note=63, velocity=0, time=1),\n",
      "    Message('note_on', channel=0, note=77, velocity=0, time=0),\n",
      "    Message('note_on', channel=0, note=48, velocity=0, time=0),\n",
      "    Message('note_on', channel=0, note=55, velocity=0, time=0),\n",
      "    Message('note_on', channel=0, note=79, velocity=0, time=2),\n",
      "    Message('note_on', channel=0, note=36, velocity=0, time=9),\n",
      "    Message('note_on', channel=0, note=67, velocity=0, time=0),\n",
      "    Message('note_on', channel=0, note=72, velocity=68, time=13),\n",
      "    Message('note_on', channel=0, note=75, velocity=0, time=2),\n",
      "    Message('note_on', channel=0, note=44, velocity=36, time=31),\n",
      "    Message('note_on', channel=0, note=32, velocity=31, time=3),\n",
      "    Message('control_change', channel=0, control=64, value=127, time=112),\n",
      "    Message('note_on', channel=0, note=72, velocity=0, time=568),\n",
      "    Message('note_on', channel=0, note=72, velocity=58, time=5),\n",
      "    Message('note_on', channel=0, note=63, velocity=35, time=15),\n",
      "    Message('note_on', channel=0, note=68, velocity=40, time=5),\n",
      "    Message('note_on', channel=0, note=60, velocity=28, time=3),\n",
      "    Message('note_on', channel=0, note=72, velocity=0, time=579),\n",
      "    Message('note_on', channel=0, note=72, velocity=64, time=4),\n",
      "    Message('note_on', channel=0, note=44, velocity=0, time=150),\n",
      "    Message('control_change', channel=0, control=64, value=0, time=1),\n",
      "    Message('note_on', channel=0, note=68, velocity=0, time=0),\n",
      "    Message('note_on', channel=0, note=60, velocity=0, time=1),\n",
      "    Message('note_on', channel=0, note=63, velocity=0, time=1),\n",
      "    Message('note_on', channel=0, note=72, velocity=0, time=0),\n",
      "    Message('note_on', channel=0, note=32, velocity=0, time=4),\n",
      "    Message('note_on', channel=0, note=74, velocity=57, time=3),\n",
      "    Message('note_on', channel=0, note=29, velocity=34, time=5),\n",
      "    Message('note_on', channel=0, note=41, velocity=27, time=3),\n",
      "    Message('control_change', channel=0, control=64, value=127, time=128),\n",
      "    Message('note_on', channel=0, note=72, velocity=53, time=545),\n",
      "    Message('note_on', channel=0, note=62, velocity=34, time=27),\n",
      "    Message('note_on', channel=0, note=60, velocity=31, time=4),\n",
      "    Message('note_on', channel=0, note=41, velocity=0, time=7),\n",
      "    Message('note_on', channel=0, note=41, velocity=21, time=9),\n",
      "    Message('note_on', channel=0, note=68, velocity=54, time=721),\n",
      "    Message('note_on', channel=0, note=60, velocity=0, time=185),\n",
      "    Message('note_on', channel=0, note=29, velocity=0, time=1),\n",
      "    Message('note_on', channel=0, note=74, velocity=0, time=1),\n",
      "    Message('note_on', channel=0, note=62, velocity=0, time=0),\n",
      "    Message('note_on', channel=0, note=72, velocity=0, time=0),\n",
      "    Message('note_on', channel=0, note=41, velocity=0, time=0),\n",
      "    Message('note_on', channel=0, note=68, velocity=0, time=1),\n",
      "    Message('control_change', channel=0, control=64, value=0, time=8),\n",
      "    Message('note_on', channel=0, note=67, velocity=49, time=2),\n",
      "    Message('note_on', channel=0, note=43, velocity=28, time=12),\n",
      "    Message('note_on', channel=0, note=31, velocity=30, time=1),\n",
      "    Message('control_change', channel=0, control=64, value=127, time=219),\n",
      "    Message('note_on', channel=0, note=31, velocity=0, time=146),\n",
      "    Message('note_on', channel=0, note=59, velocity=35, time=622),\n",
      "    Message('note_on', channel=0, note=53, velocity=13, time=32),\n",
      "    Message('note_on', channel=0, note=70, velocity=43, time=356),\n",
      "    Message('note_on', channel=0, note=68, velocity=40, time=62),\n",
      "    Message('note_on', channel=0, note=67, velocity=0, time=218),\n",
      "    Message('note_on', channel=0, note=67, velocity=48, time=11),\n",
      "    Message('note_on', channel=0, note=62, velocity=46, time=212),\n",
      "    Message('note_on', channel=0, note=63, velocity=45, time=207),\n",
      "    Message('note_on', channel=0, note=36, velocity=24, time=7),\n",
      "    Message('note_on', channel=0, note=24, velocity=25, time=2),\n",
      "    Message('note_on', channel=0, note=24, velocity=0, time=7),\n",
      "    Message('control_change', channel=0, control=64, value=0, time=4),\n",
      "    Message('note_on', channel=0, note=53, velocity=0, time=7),\n",
      "    Message('note_on', channel=0, note=68, velocity=0, time=0),\n",
      "    Message('note_on', channel=0, note=67, velocity=0, time=0),\n",
      "    Message('note_on', channel=0, note=59, velocity=0, time=0),\n",
      "    Message('note_on', channel=0, note=43, velocity=0, time=0),\n",
      "    Message('note_on', channel=0, note=62, velocity=0, time=4),\n",
      "    Message('control_change', channel=0, control=64, value=127, time=269),\n",
      "    Message('note_on', channel=0, note=60, velocity=36, time=28),\n",
      "    Message('note_on', channel=0, note=55, velocity=23, time=605),\n",
      "    Message('note_on', channel=0, note=51, velocity=28, time=17),\n",
      "    Message('control_change', channel=0, control=64, value=0, time=891),\n",
      "    Message('note_on', channel=0, note=39, velocity=48, time=4),\n",
      "    Message('note_on', channel=0, note=27, velocity=59, time=1),\n",
      "    Message('note_on', channel=0, note=63, velocity=0, time=2),\n",
      "    Message('note_on', channel=0, note=60, velocity=0, time=4),\n",
      "    Message('note_on', channel=0, note=55, velocity=0, time=1),\n",
      "    Message('note_on', channel=0, note=36, velocity=0, time=4),\n",
      "    Message('control_change', channel=0, control=64, value=127, time=17),\n",
      "    Message('note_on', channel=0, note=70, velocity=0, time=115),\n",
      "    Message('note_on', channel=0, note=27, velocity=0, time=284),\n",
      "    Message('note_on', channel=0, note=79, velocity=73, time=381),\n",
      "    Message('note_on', channel=0, note=55, velocity=37, time=9),\n",
      "    Message('note_on', channel=0, note=67, velocity=46, time=2),\n",
      "    Message('note_on', channel=0, note=51, velocity=0, time=0),\n",
      "    Message('note_on', channel=0, note=63, velocity=40, time=4),\n",
      "    Message('note_on', channel=0, note=51, velocity=39, time=4),\n",
      "    Message('note_on', channel=0, note=70, velocity=46, time=6),\n",
      "    Message('note_on', channel=0, note=58, velocity=42, time=1),\n",
      "    Message('note_on', channel=0, note=44, velocity=51, time=887),\n",
      "    Message('note_on', channel=0, note=32, velocity=45, time=3),\n",
      "    Message('control_change', channel=0, control=64, value=0, time=35),\n",
      "    Message('note_on', channel=0, note=63, velocity=0, time=2),\n",
      "    Message('note_on', channel=0, note=58, velocity=0, time=0),\n",
      "    Message('note_on', channel=0, note=70, velocity=0, time=0),\n",
      "    Message('note_on', channel=0, note=51, velocity=0, time=2),\n",
      "    Message('note_on', channel=0, note=55, velocity=0, time=0),\n",
      "    Message('note_on', channel=0, note=79, velocity=0, time=1),\n",
      "    Message('note_on', channel=0, note=67, velocity=0, time=0),\n",
      "    Message('note_on', channel=0, note=39, velocity=0, time=0),\n",
      "    Message('control_change', channel=0, control=64, value=127, time=153),\n",
      "    Message('note_on', channel=0, note=32, velocity=0, time=131),\n",
      "    Message('note_on', channel=0, note=80, velocity=78, time=432),\n",
      "    Message('note_on', channel=0, note=63, velocity=44, time=8),\n",
      "    Message('note_on', channel=0, note=60, velocity=41, time=17),\n",
      "    Message('note_on', channel=0, note=53, velocity=32, time=3),\n",
      "    Message('note_on', channel=0, note=34, velocity=48, time=728),\n",
      "    Message('note_on', channel=0, note=46, velocity=44, time=2),\n",
      "    Message('note_on', channel=0, note=44, velocity=0, time=42),\n",
      "    Message('note_on', channel=0, note=60, velocity=0, time=0),\n",
      "    Message('note_on', channel=0, note=63, velocity=0, time=0),\n",
      "    Message('note_on', channel=0, note=53, velocity=0, time=0),\n",
      "    Message('control_change', channel=0, control=64, value=0, time=9),\n",
      "    Message('control_change', channel=0, control=64, value=127, time=72),\n",
      "    Message('note_on', channel=0, note=34, velocity=0, time=100),\n",
      "    Message('note_on', channel=0, note=79, velocity=77, time=326),\n",
      "    Message('note_on', channel=0, note=68, velocity=53, time=307),\n",
      "    Message('note_on', channel=0, note=62, velocity=45, time=8),\n",
      "    Message('note_on', channel=0, note=70, velocity=44, time=1),\n",
      "    Message('note_on', channel=0, note=58, velocity=44, time=4),\n",
      "    Message('note_on', channel=0, note=70, velocity=0, time=7),\n",
      "    Message('note_on', channel=0, note=80, velocity=0, time=369),\n",
      "    Message('note_on', channel=0, note=77, velocity=72, time=135),\n",
      "    Message('note_on', channel=0, note=35, velocity=40, time=172),\n",
      "    Message('note_on', channel=0, note=47, velocity=37, time=11),\n",
      "    Message('note_on', channel=0, note=48, velocity=50, time=223),\n",
      "    Message('note_on', channel=0, note=36, velocity=42, time=3),\n",
      "    Message('control_change', channel=0, control=64, value=0, time=13),\n",
      "    Message('note_on', channel=0, note=47, velocity=0, time=8),\n",
      "    Message('note_on', channel=0, note=79, velocity=0, time=0),\n",
      "    Message('note_on', channel=0, note=46, velocity=0, time=0),\n",
      "    Message('note_on', channel=0, note=68, velocity=0, time=0),\n",
      "    Message('note_on', channel=0, note=58, velocity=0, time=0),\n",
      "    Message('note_on', channel=0, note=62, velocity=0, time=1),\n",
      "    Message('note_on', channel=0, note=35, velocity=0, time=1),\n",
      "    Message('note_on', channel=0, note=77, velocity=0, time=0),\n",
      "    Message('control_change', channel=0, control=64, value=127, time=124),\n",
      "    Message('note_on', channel=0, note=75, velocity=80, time=103),\n",
      "    Message('note_on', channel=0, note=77, velocity=81, time=154),\n",
      "    Message('note_on', channel=0, note=75, velocity=0, time=119),\n",
      "    Message('note_on', channel=0, note=75, velocity=78, time=5),\n",
      "    Message('note_on', channel=0, note=77, velocity=0, time=26),\n",
      "    Message('note_on', channel=0, note=77, velocity=63, time=4),\n",
      "    Message('note_on', channel=0, note=75, velocity=0, time=50),\n",
      "    Message('note_on', channel=0, note=75, velocity=82, time=11),\n",
      "    Message('note_on', channel=0, note=74, velocity=78, time=138),\n",
      "    Message('note_on', channel=0, note=55, velocity=42, time=10),\n",
      "    Message('note_on', channel=0, note=57, velocity=41, time=6),\n",
      "    Message('note_on', channel=0, note=63, velocity=45, time=3),\n",
      "    Message('note_on', channel=0, note=55, velocity=0, time=0),\n",
      "    Message('control_change', channel=0, control=64, value=0, time=20),\n",
      "    Message('control_change', channel=0, control=64, value=127, time=11),\n",
      "    Message('note_on', channel=0, note=75, velocity=0, time=123),\n",
      "    Message('note_on', channel=0, note=75, velocity=86, time=9),\n",
      "    Message('note_on', channel=0, note=77, velocity=0, time=145),\n",
      "    Message('note_on', channel=0, note=77, velocity=82, time=6),\n",
      "    Message('note_on', channel=0, note=79, velocity=85, time=157),\n",
      "    Message('control_change', channel=0, control=64, value=0, time=125),\n",
      "    Message('note_on', channel=0, note=36, velocity=0, time=4),\n",
      "    Message('note_on', channel=0, note=57, velocity=0, time=0),\n",
      "    Message('note_on', channel=0, note=77, velocity=0, time=1),\n",
      "    Message('note_on', channel=0, note=75, velocity=0, time=0),\n",
      "    Message('note_on', channel=0, note=48, velocity=0, time=0),\n",
      "    Message('note_on', channel=0, note=63, velocity=0, time=1),\n",
      "    Message('note_on', channel=0, note=74, velocity=0, time=21),\n",
      "    Message('note_on', channel=0, note=74, velocity=84, time=3),\n",
      "    Message('note_on', channel=0, note=50, velocity=39, time=5),\n",
      "    Message('note_on', channel=0, note=38, velocity=41, time=3),\n",
      "    Message('note_on', channel=0, note=79, velocity=0, time=37),\n",
      "    Message('control_change', channel=0, control=64, value=127, time=151),\n",
      "    Message('note_on', channel=0, note=62, velocity=81, time=299),\n",
      "    Message('note_on', channel=0, note=67, velocity=52, time=475),\n",
      "    Message('note_on', channel=0, note=58, velocity=49, time=17),\n",
      "    Message('note_on', channel=0, note=70, velocity=48, time=4),\n",
      "    Message('note_on', channel=0, note=67, velocity=0, time=242),\n",
      "    Message('note_on', channel=0, note=67, velocity=71, time=11),\n",
      "    Message('note_on', channel=0, note=72, velocity=79, time=196),\n",
      "    Message('note_on', channel=0, note=74, velocity=0, time=162),\n",
      "    Message('note_on', channel=0, note=74, velocity=82, time=11),\n",
      "    Message('note_on', channel=0, note=58, velocity=0, time=178),\n",
      "    Message('note_on', channel=0, note=62, velocity=0, time=0),\n",
      "    Message('note_on', channel=0, note=70, velocity=0, time=0),\n",
      "    Message('note_on', channel=0, note=50, velocity=0, time=0),\n",
      "    Message('note_on', channel=0, note=72, velocity=0, time=1),\n",
      "    Message('note_on', channel=0, note=67, velocity=0, time=1),\n",
      "    Message('control_change', channel=0, control=64, value=0, time=1),\n",
      "    Message('note_on', channel=0, note=74, velocity=0, time=0),\n",
      "    Message('note_on', channel=0, note=75, velocity=77, time=19),\n",
      "    Message('note_on', channel=0, note=38, velocity=0, time=27),\n",
      "    Message('note_on', channel=0, note=26, velocity=31, time=1),\n",
      "    Message('note_on', channel=0, note=38, velocity=29, time=5),\n",
      "    Message('control_change', channel=0, control=64, value=127, time=155),\n",
      "    Message('note_on', channel=0, note=26, velocity=0, time=630),\n",
      "    Message('note_on', channel=0, note=60, velocity=37, time=18),\n",
      "    Message('note_on', channel=0, note=57, velocity=35, time=0),\n",
      "    Message('note_on', channel=0, note=66, velocity=51, time=791),\n",
      "    Message('note_on', channel=0, note=66, velocity=0, time=205),\n",
      "    Message('note_on', channel=0, note=66, velocity=49, time=7),\n",
      "    Message('note_on', channel=0, note=43, velocity=27, time=26),\n",
      "    Message('note_on', channel=0, note=31, velocity=28, time=1),\n",
      "    Message('note_on', channel=0, note=43, velocity=0, time=4),\n",
      "    Message('control_change', channel=0, control=64, value=0, time=4),\n",
      "    Message('note_on', channel=0, note=38, velocity=0, time=7),\n",
      "    Message('note_on', channel=0, note=57, velocity=0, time=0),\n",
      "    Message('note_on', channel=0, note=60, velocity=0, time=1),\n",
      "    Message('note_on', channel=0, note=75, velocity=0, time=2),\n",
      "    Message('control_change', channel=0, control=64, value=127, time=216),\n",
      "    Message('control_change', channel=0, control=64, value=0, time=39),\n",
      "    Message('control_change', channel=0, control=64, value=127, time=84),\n",
      "    Message('note_on', channel=0, note=62, velocity=32, time=481),\n",
      "    Message('note_on', channel=0, note=58, velocity=32, time=15),\n",
      "    Message('note_on', channel=0, note=50, velocity=23, time=0),\n",
      "    Message('note_on', channel=0, note=67, velocity=44, time=790),\n",
      "    Message('note_on', channel=0, note=70, velocity=50, time=146),\n",
      "    Message('note_on', channel=0, note=26, velocity=29, time=94),\n",
      "    Message('note_on', channel=0, note=38, velocity=24, time=2),\n",
      "    Message('note_on', channel=0, note=26, velocity=0, time=8),\n",
      "    Message('note_on', channel=0, note=69, velocity=45, time=21),\n",
      "    Message('control_change', channel=0, control=64, value=0, time=76),\n",
      "    Message('note_on', channel=0, note=58, velocity=0, time=3),\n",
      "    Message('note_on', channel=0, note=62, velocity=0, time=0),\n",
      "    Message('note_on', channel=0, note=67, velocity=0, time=0),\n",
      "    Message('note_on', channel=0, note=50, velocity=0, time=1),\n",
      "    Message('note_on', channel=0, note=31, velocity=0, time=0),\n",
      "    Message('note_on', channel=0, note=70, velocity=0, time=2),\n",
      "    Message('note_on', channel=0, note=69, velocity=0, time=2),\n",
      "    Message('note_on', channel=0, note=66, velocity=0, time=10),\n",
      "    Message('note_on', channel=0, note=67, velocity=36, time=52),\n",
      "    Message('note_on', channel=0, note=43, velocity=23, time=15),\n",
      "    Message('note_on', channel=0, note=38, velocity=0, time=3),\n",
      "    Message('note_on', channel=0, note=31, velocity=23, time=3),\n",
      "    Message('control_change', channel=0, control=64, value=127, time=219),\n",
      "    Message('note_on', channel=0, note=62, velocity=32, time=625),\n",
      "    Message('note_on', channel=0, note=58, velocity=27, time=17),\n",
      "    Message('note_on', channel=0, note=50, velocity=17, time=7),\n",
      "    Message('control_change', channel=0, control=64, value=0, time=23),\n",
      "    Message('note_on', channel=0, note=67, velocity=0, time=7),\n",
      "    Message('note_on', channel=0, note=31, velocity=0, time=1),\n",
      "    Message('control_change', channel=0, control=64, value=127, time=173),\n",
      "    Message('note_on', channel=0, note=43, velocity=0, time=38),\n",
      "    Message('note_on', channel=0, note=58, velocity=0, time=649),\n",
      "    Message('note_on', channel=0, note=62, velocity=0, time=0),\n",
      "    Message('note_on', channel=0, note=50, velocity=0, time=1),\n",
      "    Message('control_change', channel=0, control=64, value=0, time=4),\n",
      "    Message('note_on', channel=0, note=42, velocity=34, time=49),\n",
      "    Message('note_on', channel=0, note=30, velocity=34, time=7),\n",
      "    Message('note_on', channel=0, note=30, velocity=0, time=189),\n",
      "    Message('control_change', channel=0, control=64, value=127, time=0),\n",
      "    Message('note_on', channel=0, note=68, velocity=64, time=580),\n",
      "    Message('note_on', channel=0, note=63, velocity=38, time=20),\n",
      "    Message('note_on', channel=0, note=54, velocity=26, time=10),\n",
      "    Message('note_on', channel=0, note=60, velocity=30, time=0),\n",
      "    Message('note_on', channel=0, note=56, velocity=24, time=31),\n",
      "    Message('note_on', channel=0, note=41, velocity=36, time=751),\n",
      "    Message('note_on', channel=0, note=29, velocity=44, time=16),\n",
      "    Message('note_on', channel=0, note=42, velocity=0, time=13),\n",
      "    Message('control_change', channel=0, control=64, value=0, time=8),\n",
      "    Message('control_change', channel=0, control=64, value=127, time=76),\n",
      "    Message('note_on', channel=0, note=54, velocity=0, time=92),\n",
      "    Message('note_on', channel=0, note=73, velocity=67, time=391),\n",
      "    Message('note_on', channel=0, note=61, velocity=31, time=359),\n",
      "    Message('note_on', channel=0, note=53, velocity=24, time=24),\n",
      "    Message('note_on', channel=0, note=56, velocity=0, time=2),\n",
      "    Message('note_on', channel=0, note=77, velocity=71, time=4),\n",
      "    Message('note_on', channel=0, note=65, velocity=26, time=0),\n",
      "    Message('note_on', channel=0, note=56, velocity=32, time=3),\n",
      "    Message('note_on', channel=0, note=82, velocity=70, time=326),\n",
      "    Message('note_on', channel=0, note=80, velocity=66, time=314),\n",
      "    Message('note_on', channel=0, note=24, velocity=32, time=7),\n",
      "    Message('note_on', channel=0, note=41, velocity=0, time=3),\n",
      "    Message('note_on', channel=0, note=60, velocity=0, time=1),\n",
      "    Message('note_on', channel=0, note=68, velocity=0, time=0),\n",
      "    Message('note_on', channel=0, note=77, velocity=0, time=1),\n",
      "    Message('note_on', channel=0, note=61, velocity=0, time=1),\n",
      "    Message('note_on', channel=0, note=24, velocity=0, time=0),\n",
      "    Message('control_change', channel=0, control=64, value=0, time=1),\n",
      "    Message('note_on', channel=0, note=29, velocity=0, time=0),\n",
      "    Message('note_on', channel=0, note=65, velocity=0, time=1),\n",
      "    Message('note_on', channel=0, note=73, velocity=0, time=0),\n",
      "    Message('note_on', channel=0, note=82, velocity=0, time=0),\n",
      "    Message('note_on', channel=0, note=63, velocity=0, time=0),\n",
      "    Message('note_on', channel=0, note=56, velocity=0, time=1),\n",
      "    Message('note_on', channel=0, note=53, velocity=0, time=20),\n",
      "    Message('control_change', channel=0, control=64, value=127, time=154),\n",
      "    Message('note_on', channel=0, note=66, velocity=35, time=458),\n",
      "    Message('note_on', channel=0, note=68, velocity=48, time=117),\n",
      "    Message('note_on', channel=0, note=75, velocity=51, time=110),\n",
      "    Message('note_on', channel=0, note=80, velocity=0, time=129),\n",
      "    Message('note_on', channel=0, note=80, velocity=54, time=4),\n",
      "    Message('note_on', channel=0, note=63, velocity=31, time=31),\n",
      "    Message('note_on', channel=0, note=51, velocity=28, time=1),\n",
      "    Message('note_on', channel=0, note=56, velocity=30, time=2),\n",
      "    Message('note_on', channel=0, note=78, velocity=49, time=298),\n",
      "    Message('note_on', channel=0, note=77, velocity=48, time=253),\n",
      "    Message('note_on', channel=0, note=65, velocity=40, time=142),\n",
      "    Message('note_on', channel=0, note=68, velocity=0, time=45),\n",
      "    Message('note_on', channel=0, note=68, velocity=33, time=9),\n",
      "    Message('note_on', channel=0, note=73, velocity=40, time=36),\n",
      "    Message('note_on', channel=0, note=77, velocity=0, time=47),\n",
      "    Message('note_on', channel=0, note=77, velocity=51, time=5),\n",
      "    Message('note_on', channel=0, note=37, velocity=24, time=17),\n",
      "    Message('note_on', channel=0, note=25, velocity=32, time=4),\n",
      "    Message('note_on', channel=0, note=25, velocity=0, time=5),\n",
      "    Message('note_on', channel=0, note=66, velocity=0, time=722),\n",
      "    Message('note_on', channel=0, note=56, velocity=0, time=92),\n",
      "    Message('note_on', channel=0, note=56, velocity=29, time=6),\n",
      "    Message('note_on', channel=0, note=53, velocity=20, time=5),\n",
      "    Message('note_on', channel=0, note=61, velocity=29, time=5),\n",
      "    Message('note_on', channel=0, note=36, velocity=36, time=880),\n",
      "    Message('note_on', channel=0, note=48, velocity=37, time=0),\n",
      "    Message('note_on', channel=0, note=68, velocity=0, time=51),\n",
      "    Message('note_on', channel=0, note=51, velocity=0, time=1),\n",
      "    Message('note_on', channel=0, note=61, velocity=0, time=0),\n",
      "    Message('note_on', channel=0, note=73, velocity=0, time=0),\n",
      "    Message('note_on', channel=0, note=65, velocity=0, time=0),\n",
      "    Message('note_on', channel=0, note=56, velocity=0, time=0),\n",
      "    Message('note_on', channel=0, note=37, velocity=0, time=0),\n",
      "    Message('note_on', channel=0, note=78, velocity=0, time=0),\n",
      "    Message('note_on', channel=0, note=77, velocity=0, time=1),\n",
      "    Message('note_on', channel=0, note=80, velocity=0, time=0),\n",
      "    Message('note_on', channel=0, note=75, velocity=0, time=1),\n",
      "    Message('note_on', channel=0, note=63, velocity=0, time=10),\n",
      "    Message('control_change', channel=0, control=64, value=0, time=6),\n",
      "    Message('note_on', channel=0, note=53, velocity=0, time=1),\n",
      "    Message('note_on', channel=0, note=48, velocity=0, time=6),\n",
      "    Message('note_on', channel=0, note=36, velocity=0, time=48),\n",
      "    Message('note_on', channel=0, note=35, velocity=48, time=63),\n",
      "    Message('note_on', channel=0, note=47, velocity=41, time=0),\n",
      "    Message('control_change', channel=0, control=64, value=127, time=260),\n",
      "    Message('note_on', channel=0, note=67, velocity=64, time=488),\n",
      "    Message('note_on', channel=0, note=77, velocity=49, time=4),\n",
      "    Message('note_on', channel=0, note=65, velocity=40, time=8),\n",
      "    Message('note_on', channel=0, note=62, velocity=40, time=19),\n",
      "    Message('note_on', channel=0, note=55, velocity=32, time=7),\n",
      "    Message('note_on', channel=0, note=68, velocity=69, time=627),\n",
      "    Message('note_on', channel=0, note=70, velocity=63, time=57),\n",
      "    Message('note_on', channel=0, note=47, velocity=0, time=56),\n",
      "    Message('note_on', channel=0, note=55, velocity=0, time=0),\n",
      "    Message('note_on', channel=0, note=68, velocity=0, time=1),\n",
      "    Message('control_change', channel=0, control=64, value=0, time=0),\n",
      "    Message('note_on', channel=0, note=65, velocity=0, time=1),\n",
      "    Message('note_on', channel=0, note=67, velocity=0, time=0),\n",
      "    Message('note_on', channel=0, note=62, velocity=0, time=0),\n",
      "    Message('note_on', channel=0, note=68, velocity=66, time=4),\n",
      "    Message('note_on', channel=0, note=35, velocity=0, time=10),\n",
      "    Message('note_on', channel=0, note=77, velocity=0, time=8),\n",
      "    Message('note_on', channel=0, note=70, velocity=0, time=33),\n",
      "    Message('control_change', channel=0, control=64, value=127, time=105),\n",
      "    Message('note_on', channel=0, note=67, velocity=70, time=115),\n",
      "    Message('note_on', channel=0, note=71, velocity=75, time=186),\n",
      "    Message('note_on', channel=0, note=72, velocity=83, time=167),\n",
      "    Message('note_on', channel=0, note=74, velocity=75, time=150),\n",
      "    Message('note_on', channel=0, note=55, velocity=35, time=1),\n",
      "    Message('note_on', channel=0, note=63, velocity=43, time=3),\n",
      "    Message('note_on', channel=0, note=60, velocity=39, time=0),\n",
      "    Message('note_on', channel=0, note=71, velocity=0, time=3),\n",
      "    Message('note_on', channel=0, note=68, velocity=0, time=1),\n",
      "    Message('note_on', channel=0, note=72, velocity=0, time=1),\n",
      "    Message('control_change', channel=0, control=64, value=0, time=2),\n",
      "    Message('control_change', channel=0, control=64, value=127, time=155),\n",
      "    Message('note_on', channel=0, note=75, velocity=79, time=24),\n",
      "    Message('note_on', channel=0, note=84, velocity=62, time=209),\n",
      "    Message('note_on', channel=0, note=67, velocity=0, time=112),\n",
      "    Message('note_on', channel=0, note=80, velocity=69, time=102),\n",
      "    Message('note_on', channel=0, note=74, velocity=0, time=190),\n",
      "    Message('note_on', channel=0, note=84, velocity=0, time=4),\n",
      "    Message('note_on', channel=0, note=79, velocity=60, time=1),\n",
      "    Message('note_on', channel=0, note=55, velocity=0, time=0),\n",
      "    Message('note_on', channel=0, note=63, velocity=0, time=0),\n",
      "    Message('note_on', channel=0, note=60, velocity=0, time=1),\n",
      "    Message('note_on', channel=0, note=75, velocity=0, time=0),\n",
      "    Message('note_on', channel=0, note=80, velocity=0, time=0),\n",
      "    Message('control_change', channel=0, control=64, value=0, time=1),\n",
      "    Message('note_on', channel=0, note=50, velocity=33, time=14),\n",
      "    Message('note_on', channel=0, note=38, velocity=31, time=2),\n",
      "    Message('control_change', channel=0, control=64, value=127, time=184),\n",
      "    Message('note_on', channel=0, note=67, velocity=27, time=698),\n",
      "    Message('note_on', channel=0, note=65, velocity=25, time=0),\n",
      "    Message('note_on', channel=0, note=59, velocity=24, time=6),\n",
      "    Message('note_on', channel=0, note=55, velocity=24, time=2),\n",
      "    Message('note_on', channel=0, note=73, velocity=47, time=277),\n",
      "    Message('note_on', channel=0, note=74, velocity=49, time=155),\n",
      "    Message('note_on', channel=0, note=79, velocity=0, time=153),\n",
      "    Message('note_on', channel=0, note=79, velocity=36, time=5),\n",
      "    Message('note_on', channel=0, note=77, velocity=46, time=115),\n",
      "    Message('note_on', channel=0, note=75, velocity=53, time=166),\n",
      "    Message('note_on', channel=0, note=75, velocity=0, time=151),\n",
      "    Message('note_on', channel=0, note=51, velocity=27, time=8),\n",
      "    Message('note_on', channel=0, note=75, velocity=49, time=3),\n",
      "    Message('note_on', channel=0, note=39, velocity=27, time=1),\n",
      "    Message('note_on', channel=0, note=38, velocity=0, time=15),\n",
      "    Message('note_on', channel=0, note=55, velocity=0, time=0),\n",
      "    Message('control_change', channel=0, control=64, value=0, time=0),\n",
      "    Message('note_on', channel=0, note=73, velocity=0, time=0),\n",
      "    Message('note_on', channel=0, note=67, velocity=0, time=1),\n",
      "    Message('note_on', channel=0, note=59, velocity=0, time=0),\n",
      "    Message('note_on', channel=0, note=77, velocity=0, time=0),\n",
      "    Message('note_on', channel=0, note=50, velocity=0, time=0),\n",
      "    Message('note_on', channel=0, note=74, velocity=0, time=1),\n",
      "    Message('note_on', channel=0, note=65, velocity=0, time=0),\n",
      "    Message('note_on', channel=0, note=79, velocity=0, time=0),\n",
      "    Message('control_change', channel=0, control=64, value=127, time=117),\n",
      "    Message('note_on', channel=0, note=67, velocity=32, time=794),\n",
      "    Message('note_on', channel=0, note=60, velocity=25, time=12),\n",
      "    Message('note_on', channel=0, note=55, velocity=22, time=25),\n",
      "    Message('control_change', channel=0, control=64, value=0, time=784),\n",
      "    Message('note_on', channel=0, note=39, velocity=0, time=6),\n",
      "    Message('note_on', channel=0, note=51, velocity=0, time=0),\n",
      "    Message('note_on', channel=0, note=51, velocity=45, time=5),\n",
      "    Message('note_on', channel=0, note=39, velocity=36, time=5),\n",
      "    Message('note_on', channel=0, note=39, velocity=0, time=100),\n",
      "    Message('note_on', channel=0, note=55, velocity=0, time=0),\n",
      "    Message('note_on', channel=0, note=67, velocity=0, time=1),\n",
      "    Message('note_on', channel=0, note=60, velocity=0, time=0),\n",
      "    Message('note_on', channel=0, note=51, velocity=0, time=0),\n",
      "    Message('note_on', channel=0, note=75, velocity=0, time=19),\n",
      "    Message('note_on', channel=0, note=53, velocity=43, time=58),\n",
      "    Message('note_on', channel=0, note=41, velocity=36, time=23),\n",
      "    Message('control_change', channel=0, control=64, value=127, time=173),\n",
      "    Message('note_on', channel=0, note=71, velocity=59, time=609),\n",
      "    Message('note_on', channel=0, note=68, velocity=41, time=1),\n",
      "    Message('note_on', channel=0, note=68, velocity=0, time=12),\n",
      "    Message('note_on', channel=0, note=56, velocity=32, time=11),\n",
      "    Message('note_on', channel=0, note=62, velocity=36, time=1),\n",
      "    Message('note_on', channel=0, note=51, velocity=38, time=762),\n",
      "    Message('note_on', channel=0, note=39, velocity=31, time=21),\n",
      "    Message('note_on', channel=0, note=41, velocity=0, time=23),\n",
      "    Message('note_on', channel=0, note=62, velocity=0, time=0),\n",
      "    Message('note_on', channel=0, note=56, velocity=0, time=0),\n",
      "    Message('control_change', channel=0, control=64, value=0, time=0),\n",
      "    Message('note_on', channel=0, note=53, velocity=0, time=0),\n",
      "    Message('control_change', channel=0, control=64, value=127, time=73),\n",
      "    Message('note_on', channel=0, note=72, velocity=55, time=375),\n",
      "    Message('note_on', channel=0, note=74, velocity=59, time=374),\n",
      "    Message('note_on', channel=0, note=67, velocity=37, time=23),\n",
      "    Message('note_on', channel=0, note=60, velocity=27, time=4),\n",
      "    Message('note_on', channel=0, note=55, velocity=29, time=4),\n",
      "    Message('note_on', channel=0, note=75, velocity=51, time=446),\n",
      "    Message('note_on', channel=0, note=48, velocity=38, time=236),\n",
      "    Message('note_on', channel=0, note=36, velocity=36, time=3),\n",
      "    Message('note_on', channel=0, note=71, velocity=0, time=171),\n",
      "    Message('note_on', channel=0, note=47, velocity=42, time=24),\n",
      "    Message('note_on', channel=0, note=35, velocity=37, time=4),\n",
      "    Message('note_on', channel=0, note=51, velocity=0, time=5),\n",
      "    Message('note_on', channel=0, note=55, velocity=0, time=0),\n",
      "    Message('note_on', channel=0, note=67, velocity=0, time=0),\n",
      "    Message('control_change', channel=0, control=64, value=0, time=0),\n",
      "    Message('note_on', channel=0, note=39, velocity=0, time=0),\n",
      "    Message('note_on', channel=0, note=74, velocity=0, time=0),\n",
      "    Message('note_on', channel=0, note=72, velocity=0, time=0),\n",
      "    Message('note_on', channel=0, note=48, velocity=0, time=1),\n",
      "    Message('note_on', channel=0, note=60, velocity=0, time=0),\n",
      "    Message('note_on', channel=0, note=36, velocity=0, time=27),\n",
      "    Message('control_change', channel=0, control=64, value=127, time=123),\n",
      "    Message('note_on', channel=0, note=74, velocity=67, time=582),\n",
      "    Message('note_on', channel=0, note=65, velocity=40, time=4),\n",
      "    Message('note_on', channel=0, note=67, velocity=46, time=4),\n",
      "    Message('note_on', channel=0, note=62, velocity=35, time=8),\n",
      "    Message('note_on', channel=0, note=55, velocity=28, time=14),\n",
      "    Message('note_on', channel=0, note=35, velocity=0, time=64),\n",
      "    Message('note_on', channel=0, note=48, velocity=43, time=611),\n",
      "    Message('note_on', channel=0, note=36, velocity=39, time=4),\n",
      "    Message('note_on', channel=0, note=65, velocity=0, time=69),\n",
      "    Message('note_on', channel=0, note=47, velocity=0, time=1),\n",
      "    Message('note_on', channel=0, note=55, velocity=0, time=0),\n",
      "    Message('note_on', channel=0, note=62, velocity=0, time=0),\n",
      "    Message('control_change', channel=0, control=64, value=0, time=0),\n",
      "    Message('note_on', channel=0, note=75, velocity=0, time=6),\n",
      "    Message('control_change', channel=0, control=64, value=127, time=100),\n",
      "    Message('note_on', channel=0, note=75, velocity=77, time=223),\n",
      "    Message('note_on', channel=0, note=77, velocity=73, time=397),\n",
      "    Message('note_on', channel=0, note=67, velocity=0, time=2),\n",
      "    Message('note_on', channel=0, note=67, velocity=47, time=8),\n",
      "    Message('note_on', channel=0, note=55, velocity=38, time=11),\n",
      "    Message('note_on', channel=0, note=63, velocity=42, time=0),\n",
      "    Message('note_on', channel=0, note=72, velocity=44, time=2),\n",
      "    Message('note_on', channel=0, note=60, velocity=37, time=4),\n",
      "    Message('note_on', channel=0, note=74, velocity=0, time=52),\n",
      "    Message('note_on', channel=0, note=79, velocity=72, time=481),\n",
      "    Message('note_on', channel=0, note=36, velocity=0, time=194),\n",
      "    Message('note_on', channel=0, note=36, velocity=39, time=7),\n",
      "    Message('note_on', channel=0, note=79, velocity=0, time=239),\n",
      "    Message('note_on', channel=0, note=41, velocity=36, time=5),\n",
      "    Message('note_on', channel=0, note=79, velocity=68, time=0),\n",
      "    Message('note_on', channel=0, note=29, velocity=39, time=6),\n",
      "    Message('note_on', channel=0, note=67, velocity=0, time=24),\n",
      "    Message('note_on', channel=0, note=55, velocity=0, time=1),\n",
      "    Message('note_on', channel=0, note=60, velocity=0, time=1),\n",
      "    Message('note_on', channel=0, note=36, velocity=0, time=0),\n",
      "    Message('note_on', channel=0, note=63, velocity=0, time=1),\n",
      "    Message('note_on', channel=0, note=77, velocity=0, time=1),\n",
      "    Message('note_on', channel=0, note=75, velocity=0, time=1),\n",
      "    Message('control_change', channel=0, control=64, value=0, time=0),\n",
      "    Message('note_on', channel=0, note=48, velocity=0, time=6),\n",
      "    Message('note_on', channel=0, note=72, velocity=0, time=54),\n",
      "    Message('control_change', channel=0, control=64, value=127, time=31),\n",
      "    Message('note_on', channel=0, note=77, velocity=77, time=327),\n",
      "    Message('note_on', channel=0, note=80, velocity=73, time=404),\n",
      "    Message('note_on', channel=0, note=68, velocity=37, time=2),\n",
      "    Message('note_on', channel=0, note=29, velocity=0, time=4),\n",
      "    Message('note_on', channel=0, note=60, velocity=36, time=3),\n",
      "    Message('note_on', channel=0, note=53, velocity=26, time=13),\n",
      "    Message('control_change', channel=0, control=64, value=0, time=2),\n",
      "    Message('note_on', channel=0, note=77, velocity=0, time=4),\n",
      "    Message('note_on', channel=0, note=41, velocity=0, time=3),\n",
      "    Message('note_on', channel=0, note=79, velocity=0, time=13),\n",
      "    Message('control_change', channel=0, control=64, value=127, time=62),\n",
      "    Message('note_on', channel=0, note=72, velocity=68, time=323),\n",
      "    Message('note_on', channel=0, note=74, velocity=65, time=349),\n",
      "    Message('note_on', channel=0, note=68, velocity=0, time=19),\n",
      "    Message('note_on', channel=0, note=32, velocity=34, time=6),\n",
      "    Message('note_on', channel=0, note=72, velocity=0, time=5),\n",
      "    Message('note_on', channel=0, note=60, velocity=0, time=0),\n",
      "    Message('note_on', channel=0, note=68, velocity=32, time=0),\n",
      "    Message('note_on', channel=0, note=53, velocity=0, time=0),\n",
      "    Message('note_on', channel=0, note=44, velocity=38, time=0),\n",
      "    Message('note_on', channel=0, note=80, velocity=0, time=1),\n",
      "    Message('control_change', channel=0, control=64, value=0, time=5),\n",
      "    Message('note_on', channel=0, note=68, velocity=0, time=137),\n",
      "    Message('control_change', channel=0, control=64, value=127, time=0),\n",
      "    Message('note_on', channel=0, note=75, velocity=69, time=216),\n",
      "    Message('note_on', channel=0, note=75, velocity=0, time=122),\n",
      "    Message('note_on', channel=0, note=75, velocity=66, time=6),\n",
      "    Message('note_on', channel=0, note=77, velocity=62, time=122),\n",
      "    Message('note_on', channel=0, note=75, velocity=0, time=94),\n",
      "    Message('note_on', channel=0, note=75, velocity=68, time=10),\n",
      "    Message('note_on', channel=0, note=74, velocity=0, time=113),\n",
      "    Message('note_on', channel=0, note=74, velocity=59, time=4),\n",
      "    Message('note_on', channel=0, note=75, velocity=0, time=119),\n",
      "    Message('note_on', channel=0, note=75, velocity=61, time=10),\n",
      "    Message('note_on', channel=0, note=32, velocity=0, time=151),\n",
      "    Message('note_on', channel=0, note=79, velocity=57, time=8),\n",
      "    Message('note_on', channel=0, note=44, velocity=0, time=7),\n",
      "    Message('note_on', channel=0, note=74, velocity=0, time=4),\n",
      "    Message('note_on', channel=0, note=77, velocity=0, time=0),\n",
      "    Message('note_on', channel=0, note=75, velocity=0, time=0),\n",
      "    Message('control_change', channel=0, control=64, value=0, time=1),\n",
      "    Message('note_on', channel=0, note=60, velocity=31, time=22),\n",
      "    Message('note_on', channel=0, note=68, velocity=32, time=1),\n",
      "    Message('note_on', channel=0, note=53, velocity=22, time=1),\n",
      "    Message('control_change', channel=0, control=64, value=127, time=171),\n",
      "    Message('note_on', channel=0, note=77, velocity=51, time=312),\n",
      "    Message('note_on', channel=0, note=74, velocity=48, time=455),\n",
      "    Message('note_on', channel=0, note=68, velocity=0, time=13),\n",
      "    Message('note_on', channel=0, note=60, velocity=0, time=2),\n",
      "    Message('note_on', channel=0, note=79, velocity=0, time=0),\n",
      "    Message('control_change', channel=0, control=64, value=0, time=1),\n",
      "    Message('note_on', channel=0, note=53, velocity=0, time=0),\n",
      "    Message('note_on', channel=0, note=77, velocity=0, time=1),\n",
      "    Message('note_on', channel=0, note=46, velocity=18, time=4),\n",
      "    Message('note_on', channel=0, note=34, velocity=17, time=0),\n",
      "    Message('control_change', channel=0, control=64, value=127, time=195),\n",
      "    Message('note_on', channel=0, note=68, velocity=38, time=720),\n",
      "    Message('note_on', channel=0, note=58, velocity=35, time=5),\n",
      "    Message('note_on', channel=0, note=53, velocity=25, time=7),\n",
      "    Message('note_on', channel=0, note=62, velocity=27, time=10),\n",
      "    Message('note_on', channel=0, note=34, velocity=0, time=103),\n",
      "    Message('note_on', channel=0, note=46, velocity=0, time=653),\n",
      "    Message('note_on', channel=0, note=46, velocity=40, time=10),\n",
      "    Message('note_on', channel=0, note=34, velocity=30, time=2),\n",
      "    Message('note_on', channel=0, note=47, velocity=41, time=140),\n",
      "    Message('note_on', channel=0, note=35, velocity=40, time=24),\n",
      "    Message('control_change', channel=0, control=64, value=0, time=36),\n",
      "    Message('note_on', channel=0, note=68, velocity=0, time=3),\n",
      "    Message('note_on', channel=0, note=58, velocity=0, time=1),\n",
      "    Message('note_on', channel=0, note=62, velocity=0, time=1),\n",
      "    Message('note_on', channel=0, note=53, velocity=0, time=0),\n",
      "    Message('note_on', channel=0, note=34, velocity=0, time=1),\n",
      "    Message('note_on', channel=0, note=74, velocity=0, time=0),\n",
      "    Message('note_on', channel=0, note=46, velocity=0, time=12),\n",
      "    Message('control_change', channel=0, control=64, value=127, time=185),\n",
      "    Message('note_on', channel=0, note=65, velocity=28, time=695),\n",
      "    Message('note_on', channel=0, note=62, velocity=29, time=1),\n",
      "    Message('note_on', channel=0, note=55, velocity=27, time=1),\n",
      "    Message('control_change', channel=0, control=64, value=0, time=29),\n",
      "    Message('note_on', channel=0, note=35, velocity=0, time=7),\n",
      "    Message('control_change', channel=0, control=64, value=127, time=127),\n",
      "    Message('note_on', channel=0, note=47, velocity=0, time=184),\n",
      "    Message('note_on', channel=0, note=31, velocity=31, time=556),\n",
      "    Message('note_on', channel=0, note=43, velocity=27, time=3),\n",
      "    Message('note_on', channel=0, note=48, velocity=33, time=276),\n",
      "    Message('note_on', channel=0, note=36, velocity=27, time=6),\n",
      "    Message('control_change', channel=0, control=64, value=0, time=19),\n",
      "    Message('note_on', channel=0, note=65, velocity=0, time=11),\n",
      "    Message('note_on', channel=0, note=55, velocity=0, time=1),\n",
      "    Message('note_on', channel=0, note=31, velocity=0, time=0),\n",
      "    Message('note_on', channel=0, note=62, velocity=0, time=0),\n",
      "    Message('note_on', channel=0, note=43, velocity=0, time=3),\n",
      "    Message('control_change', channel=0, control=64, value=127, time=223),\n",
      "    Message('note_on', channel=0, note=36, velocity=0, time=254),\n",
      "    Message('note_on', channel=0, note=60, velocity=26, time=557),\n",
      "    Message('note_on', channel=0, note=79, velocity=51, time=7),\n",
      "    Message('note_on', channel=0, note=64, velocity=26, time=0),\n",
      "    Message('note_on', channel=0, note=70, velocity=35, time=1),\n",
      "    Message('note_on', channel=0, note=41, velocity=32, time=1079),\n",
      "    Message('note_on', channel=0, note=29, velocity=37, time=9),\n",
      "    Message('control_change', channel=0, control=64, value=0, time=50),\n",
      "    Message('note_on', channel=0, note=64, velocity=0, time=0),\n",
      "    Message('note_on', channel=0, note=79, velocity=0, time=6),\n",
      "    Message('note_on', channel=0, note=70, velocity=0, time=1),\n",
      "    Message('note_on', channel=0, note=60, velocity=0, time=0),\n",
      "    Message('note_on', channel=0, note=48, velocity=0, time=3),\n",
      "    Message('control_change', channel=0, control=64, value=127, time=130),\n",
      "    Message('note_on', channel=0, note=29, velocity=0, time=254),\n",
      "    Message('note_on', channel=0, note=80, velocity=66, time=454),\n",
      "    Message('note_on', channel=0, note=68, velocity=39, time=4),\n",
      "    Message('note_on', channel=0, note=63, velocity=30, time=1),\n",
      "    Message('note_on', channel=0, note=72, velocity=37, time=4),\n",
      "    Message('note_on', channel=0, note=60, velocity=27, time=7),\n",
      "    Message('note_on', channel=0, note=34, velocity=34, time=997),\n",
      "    Message('note_on', channel=0, note=46, velocity=35, time=1),\n",
      "    Message('note_on', channel=0, note=72, velocity=0, time=40),\n",
      "    Message('note_on', channel=0, note=41, velocity=0, time=0),\n",
      "    Message('note_on', channel=0, note=68, velocity=0, time=0),\n",
      "    Message('note_on', channel=0, note=60, velocity=0, time=0),\n",
      "    Message('control_change', channel=0, control=64, value=0, time=0),\n",
      "    Message('note_on', channel=0, note=63, velocity=0, time=0),\n",
      "    Message('control_change', channel=0, control=64, value=127, time=127),\n",
      "    Message('note_on', channel=0, note=34, velocity=0, time=77),\n",
      "    Message('note_on', channel=0, note=79, velocity=64, time=258),\n",
      "    Message('note_on', channel=0, note=53, velocity=32, time=383),\n",
      "    Message('note_on', channel=0, note=68, velocity=45, time=7),\n",
      "    Message('note_on', channel=0, note=58, velocity=40, time=8),\n",
      "    Message('note_on', channel=0, note=62, velocity=34, time=2),\n",
      "    Message('note_on', channel=0, note=77, velocity=61, time=615),\n",
      "    Message('note_on', channel=0, note=51, velocity=38, time=299),\n",
      "    Message('note_on', channel=0, note=39, velocity=29, time=8),\n",
      "    Message('control_change', channel=0, control=64, value=0, time=7),\n",
      "    Message('note_on', channel=0, note=53, velocity=0, time=2),\n",
      "    Message('note_on', channel=0, note=58, velocity=0, time=0),\n",
      "    Message('note_on', channel=0, note=68, velocity=0, time=0),\n",
      "    Message('note_on', channel=0, note=62, velocity=0, time=1),\n",
      "    Message('note_on', channel=0, note=79, velocity=0, time=1),\n",
      "    Message('note_on', channel=0, note=46, velocity=0, time=1),\n",
      "    Message('note_on', channel=0, note=80, velocity=0, time=59),\n",
      "    Message('control_change', channel=0, control=64, value=127, time=77),\n",
      "    Message('note_on', channel=0, note=75, velocity=68, time=125),\n",
      "    Message('note_on', channel=0, note=77, velocity=0, time=213),\n",
      "    Message('note_on', channel=0, note=77, velocity=68, time=7),\n",
      "    Message('note_on', channel=0, note=75, velocity=0, time=147),\n",
      "    Message('note_on', channel=0, note=75, velocity=60, time=4),\n",
      "    Message('note_on', channel=0, note=77, velocity=0, time=34),\n",
      "    Message('note_on', channel=0, note=77, velocity=58, time=5),\n",
      "    Message('note_on', channel=0, note=75, velocity=0, time=49),\n",
      "    Message('note_on', channel=0, note=75, velocity=73, time=11),\n",
      "    Message('note_on', channel=0, note=51, velocity=0, time=170),\n",
      "    Message('note_on', channel=0, note=74, velocity=68, time=3),\n",
      "    Message('note_on', channel=0, note=63, velocity=38, time=1),\n",
      "    Message('note_on', channel=0, note=67, velocity=43, time=3),\n",
      "    Message('note_on', channel=0, note=55, velocity=32, time=7),\n",
      "    Message('note_on', channel=0, note=58, velocity=34, time=8),\n",
      "    Message('note_on', channel=0, note=75, velocity=0, time=181),\n",
      "    Message('note_on', channel=0, note=75, velocity=73, time=5),\n",
      "    Message('note_on', channel=0, note=77, velocity=0, time=172),\n",
      "    Message('note_on', channel=0, note=77, velocity=74, time=9),\n",
      "    Message('note_on', channel=0, note=79, velocity=73, time=148),\n",
      "    Message('note_on', channel=0, note=79, velocity=0, time=104),\n",
      "    Message('note_on', channel=0, note=79, velocity=65, time=6),\n",
      "    Message('note_on', channel=0, note=63, velocity=0, time=153),\n",
      "    Message('note_on', channel=0, note=72, velocity=65, time=1),\n",
      "    Message('note_on', channel=0, note=58, velocity=0, time=1),\n",
      "    Message('note_on', channel=0, note=55, velocity=0, time=0),\n",
      "    Message('note_on', channel=0, note=67, velocity=0, time=0),\n",
      "    Message('note_on', channel=0, note=77, velocity=0, time=2),\n",
      "    Message('note_on', channel=0, note=74, velocity=0, time=0),\n",
      "    Message('note_on', channel=0, note=75, velocity=0, time=0),\n",
      "    Message('control_change', channel=0, control=64, value=0, time=0),\n",
      "    Message('note_on', channel=0, note=79, velocity=0, time=2),\n",
      "    Message('note_on', channel=0, note=39, velocity=0, time=4),\n",
      "    Message('note_on', channel=0, note=32, velocity=35, time=22),\n",
      "    Message('note_on', channel=0, note=44, velocity=36, time=2),\n",
      "    Message('control_change', channel=0, control=64, value=127, time=152),\n",
      "    Message('note_on', channel=0, note=67, velocity=46, time=723),\n",
      "    Message('note_on', channel=0, note=60, velocity=38, time=24),\n",
      "    Message('note_on', channel=0, note=56, velocity=36, time=0),\n",
      "    Message('note_on', channel=0, note=32, velocity=0, time=789),\n",
      "    Message('note_on', channel=0, note=50, velocity=43, time=3),\n",
      "    Message('note_on', channel=0, note=38, velocity=34, time=22),\n",
      "    Message('control_change', channel=0, control=64, value=0, time=25),\n",
      "    Message('note_on', channel=0, note=72, velocity=0, time=2),\n",
      "    Message('note_on', channel=0, note=60, velocity=0, time=2),\n",
      "    Message('note_on', channel=0, note=67, velocity=0, time=1),\n",
      "    Message('note_on', channel=0, note=56, velocity=0, time=1),\n",
      "    Message('note_on', channel=0, note=44, velocity=0, time=0),\n",
      "    Message('control_change', channel=0, control=64, value=127, time=159),\n",
      "    Message('note_on', channel=0, note=77, velocity=71, time=502),\n",
      "    Message('note_on', channel=0, note=56, velocity=36, time=22),\n",
      "    Message('note_on', channel=0, note=65, velocity=33, time=0),\n",
      "    Message('note_on', channel=0, note=60, velocity=29, time=8),\n",
      "    Message('control_change', channel=0, control=64, value=0, time=6),\n",
      "    Message('note_on', channel=0, note=50, velocity=0, time=3),\n",
      "    Message('note_on', channel=0, note=38, velocity=0, time=20),\n",
      "    Message('control_change', channel=0, control=64, value=127, time=123),\n",
      "    Message('note_on', channel=0, note=71, velocity=61, time=548),\n",
      "    Message('note_on', channel=0, note=60, velocity=0, time=20),\n",
      "    Message('note_on', channel=0, note=56, velocity=0, time=115),\n",
      "    Message('note_on', channel=0, note=77, velocity=0, time=11),\n",
      "    Message('control_change', channel=0, control=64, value=0, time=4),\n",
      "    Message('note_on', channel=0, note=31, velocity=39, time=6),\n",
      "    Message('note_on', channel=0, note=65, velocity=0, time=2),\n",
      "    Message('note_on', channel=0, note=75, velocity=75, time=3),\n",
      "    Message('control_change', channel=0, control=64, value=127, time=189),\n",
      "    Message('note_on', channel=0, note=31, velocity=0, time=177),\n",
      "    Message('note_on', channel=0, note=65, velocity=35, time=410),\n",
      "    Message('note_on', channel=0, note=59, velocity=41, time=2),\n",
      "    Message('note_on', channel=0, note=55, velocity=29, time=14),\n",
      "    Message('note_on', channel=0, note=74, velocity=68, time=440),\n",
      "    Message('note_on', channel=0, note=44, velocity=46, time=312),\n",
      "    Message('note_on', channel=0, note=32, velocity=39, time=24),\n",
      "    Message('control_change', channel=0, control=64, value=0, time=8),\n",
      "    Message('note_on', channel=0, note=55, velocity=0, time=8),\n",
      "    Message('note_on', channel=0, note=59, velocity=0, time=0),\n",
      "    Message('note_on', channel=0, note=65, velocity=0, time=0),\n",
      "    Message('note_on', channel=0, note=75, velocity=0, time=2),\n",
      "    Message('note_on', channel=0, note=71, velocity=0, time=2),\n",
      "    Message('control_change', channel=0, control=64, value=127, time=176),\n",
      "    Message('note_on', channel=0, note=72, velocity=73, time=46),\n",
      "    Message('note_on', channel=0, note=74, velocity=0, time=192),\n",
      "    Message('note_on', channel=0, note=74, velocity=75, time=8),\n",
      "    Message('note_on', channel=0, note=72, velocity=0, time=92),\n",
      "    Message('note_on', channel=0, note=72, velocity=69, time=8),\n",
      "    Message('note_on', channel=0, note=74, velocity=0, time=38),\n",
      "    Message('note_on', channel=0, note=74, velocity=72, time=9),\n",
      "    Message('note_on', channel=0, note=72, velocity=0, time=52),\n",
      "    Message('note_on', channel=0, note=72, velocity=73, time=7),\n",
      "    Message('note_on', channel=0, note=63, velocity=59, time=104),\n",
      "    Message('note_on', channel=0, note=56, velocity=48, time=15),\n",
      "    Message('note_on', channel=0, note=71, velocity=72, time=9),\n",
      "    Message('note_on', channel=0, note=72, velocity=0, time=195),\n",
      "    Message('note_on', channel=0, note=72, velocity=81, time=12),\n",
      "    Message('note_on', channel=0, note=74, velocity=0, time=157),\n",
      "    Message('note_on', channel=0, note=74, velocity=85, time=6),\n",
      "    Message('note_on', channel=0, note=75, velocity=86, time=146),\n",
      "    Message('note_on', channel=0, note=67, velocity=79, time=167),\n",
      "    Message('note_on', channel=0, note=27, velocity=62, time=15),\n",
      "    Message('note_on', channel=0, note=39, velocity=46, time=0),\n",
      "    Message('control_change', channel=0, control=64, value=0, time=4),\n",
      "    Message('note_on', channel=0, note=44, velocity=0, time=3),\n",
      "    Message('note_on', channel=0, note=71, velocity=0, time=2),\n",
      "    Message('note_on', channel=0, note=74, velocity=0, time=3),\n",
      "    Message('note_on', channel=0, note=63, velocity=0, time=3),\n",
      "    Message('note_on', channel=0, note=56, velocity=0, time=2),\n",
      "    Message('note_on', channel=0, note=75, velocity=0, time=2),\n",
      "    Message('note_on', channel=0, note=32, velocity=0, time=8),\n",
      "    Message('note_on', channel=0, note=72, velocity=0, time=0),\n",
      "    Message('control_change', channel=0, control=64, value=127, time=123),\n",
      "    Message('note_on', channel=0, note=27, velocity=0, time=630),\n",
      "    Message('note_on', channel=0, note=39, velocity=0, time=27),\n",
      "    Message('control_change', channel=0, control=64, value=0, time=3),\n",
      "    Message('note_on', channel=0, note=67, velocity=0, time=8),\n",
      "    Message('note_on', channel=0, note=67, velocity=43, time=10),\n",
      "    Message('note_on', channel=0, note=84, velocity=81, time=1),\n",
      "    Message('note_on', channel=0, note=60, velocity=45, time=6),\n",
      "    Message('note_on', channel=0, note=72, velocity=54, time=1),\n",
      "    Message('note_on', channel=0, note=55, velocity=38, time=1),\n",
      "    Message('note_on', channel=0, note=51, velocity=39, time=1),\n",
      "    Message('control_change', channel=0, control=64, value=127, time=226),\n",
      "    Message('note_on', channel=0, note=67, velocity=0, time=62),\n",
      "    Message('note_on', channel=0, note=29, velocity=75, time=563),\n",
      "    Message('control_change', channel=0, control=64, value=0, time=50),\n",
      "    Message('note_on', channel=0, note=51, velocity=0, time=12),\n",
      "    Message('note_on', channel=0, note=55, velocity=0, time=20),\n",
      "    Message('note_on', channel=0, note=60, velocity=0, time=15),\n",
      "    Message('note_on', channel=0, note=72, velocity=0, time=62),\n",
      "    Message('control_change', channel=0, control=64, value=127, time=15),\n",
      "    Message('note_on', channel=0, note=83, velocity=82, time=240),\n",
      "    Message('note_on', channel=0, note=82, velocity=77, time=276),\n",
      "    Message('note_on', channel=0, note=84, velocity=0, time=45),\n",
      "    Message('note_on', channel=0, note=81, velocity=80, time=150),\n",
      "    Message('note_on', channel=0, note=80, velocity=76, time=187),\n",
      "    Message('note_on', channel=0, note=61, velocity=39, time=29),\n",
      "    Message('note_on', channel=0, note=49, velocity=36, time=4),\n",
      "    Message('note_on', channel=0, note=49, velocity=0, time=6),\n",
      "    Message('note_on', channel=0, note=56, velocity=41, time=11),\n",
      "    Message('note_on', channel=0, note=77, velocity=76, time=171),\n",
      "    Message('note_on', channel=0, note=68, velocity=71, time=180),\n",
      "    Message('note_on', channel=0, note=73, velocity=78, time=174),\n",
      "    Message('note_on', channel=0, note=64, velocity=71, time=170),\n",
      "    Message('note_on', channel=0, note=83, velocity=0, time=9),\n",
      "    Message('note_on', channel=0, note=29, velocity=0, time=1),\n",
      "    Message('note_on', channel=0, note=68, velocity=0, time=1),\n",
      "    Message('note_on', channel=0, note=82, velocity=0, time=0),\n",
      "    Message('note_on', channel=0, note=80, velocity=0, time=1),\n",
      "    Message('note_on', channel=0, note=77, velocity=0, time=0),\n",
      "    Message('note_on', channel=0, note=81, velocity=0, time=1),\n",
      "    Message('control_change', channel=0, control=64, value=0, time=1),\n",
      "    Message('note_on', channel=0, note=56, velocity=0, time=0),\n",
      "    Message('note_on', channel=0, note=31, velocity=43, time=9),\n",
      "    Message('note_on', channel=0, note=61, velocity=0, time=85),\n",
      "    Message('control_change', channel=0, control=64, value=127, time=23),\n",
      "    Message('note_on', channel=0, note=72, velocity=80, time=132),\n",
      "    Message('note_on', channel=0, note=75, velocity=77, time=184),\n",
      "    Message('note_on', channel=0, note=73, velocity=0, time=14),\n",
      "    Message('note_on', channel=0, note=73, velocity=72, time=11),\n",
      "    Message('note_on', channel=0, note=72, velocity=0, time=158),\n",
      "    Message('note_on', channel=0, note=72, velocity=80, time=11),\n",
      "    Message('note_on', channel=0, note=75, velocity=0, time=166),\n",
      "    Message('note_on', channel=0, note=75, velocity=77, time=4),\n",
      "    Message('note_on', channel=0, note=60, velocity=49, time=6),\n",
      "    Message('note_on', channel=0, note=58, velocity=51, time=9),\n",
      "    Message('note_on', channel=0, note=52, velocity=45, time=0),\n",
      "    Message('note_on', channel=0, note=31, velocity=0, time=1),\n",
      "    Message('control_change', channel=0, control=64, value=0, time=6),\n",
      "    Message('note_on', channel=0, note=73, velocity=0, time=1),\n",
      "    Message('note_on', channel=0, note=64, velocity=0, time=1),\n",
      "    Message('note_on', channel=0, note=72, velocity=0, time=6),\n",
      "    Message('control_change', channel=0, control=64, value=127, time=142),\n",
      "    Message('note_on', channel=0, note=76, velocity=81, time=42),\n",
      "    Message('note_on', channel=0, note=80, velocity=78, time=218),\n",
      "    Message('note_on', channel=0, note=79, velocity=79, time=244),\n",
      "    Message('note_on', channel=0, note=65, velocity=69, time=229),\n",
      "    Message('note_on', channel=0, note=80, velocity=0, time=1),\n",
      "    Message('control_change', channel=0, control=64, value=0, time=1),\n",
      "    Message('note_on', channel=0, note=52, velocity=0, time=0),\n",
      "    Message('note_on', channel=0, note=75, velocity=0, time=0),\n",
      "    Message('note_on', channel=0, note=76, velocity=0, time=0),\n",
      "    Message('note_on', channel=0, note=58, velocity=0, time=1),\n",
      "    Message('note_on', channel=0, note=60, velocity=0, time=0),\n",
      "    Message('note_on', channel=0, note=44, velocity=50, time=13),\n",
      "    Message('note_on', channel=0, note=32, velocity=49, time=1),\n",
      "    Message('control_change', channel=0, control=64, value=127, time=134),\n",
      "    Message('note_on', channel=0, note=72, velocity=79, time=149),\n",
      "    Message('note_on', channel=0, note=79, velocity=0, time=166),\n",
      "    Message('note_on', channel=0, note=77, velocity=82, time=92),\n",
      "    Message('note_on', channel=0, note=79, velocity=88, time=215),\n",
      "    Message('note_on', channel=0, note=82, velocity=79, time=201),\n",
      "    Message('note_on', channel=0, note=60, velocity=53, time=10),\n",
      "    Message('note_on', channel=0, note=53, velocity=39, time=4),\n",
      "    Message('note_on', channel=0, note=80, velocity=81, time=196),\n",
      "    Message('note_on', channel=0, note=72, velocity=0, time=188),\n",
      "    Message('note_on', channel=0, note=72, velocity=79, time=9),\n",
      "    Message('note_on', channel=0, note=74, velocity=84, time=198),\n",
      "    Message('control_change', channel=0, control=64, value=0, time=190),\n",
      "    Message('note_on', channel=0, note=82, velocity=0, time=1),\n",
      "    Message('note_on', channel=0, note=53, velocity=0, time=1),\n",
      "    Message('note_on', channel=0, note=44, velocity=0, time=0),\n",
      "    Message('note_on', channel=0, note=79, velocity=0, time=0),\n",
      "    Message('note_on', channel=0, note=80, velocity=0, time=1),\n",
      "    Message('note_on', channel=0, note=60, velocity=0, time=0),\n",
      "    Message('note_on', channel=0, note=65, velocity=0, time=0),\n",
      "    Message('note_on', channel=0, note=74, velocity=0, time=0),\n",
      "    Message('note_on', channel=0, note=77, velocity=0, time=1),\n",
      "    Message('note_on', channel=0, note=32, velocity=0, time=13),\n",
      "    Message('note_on', channel=0, note=72, velocity=0, time=0),\n",
      "    Message('note_on', channel=0, note=75, velocity=85, time=13),\n",
      "    Message('note_on', channel=0, note=31, velocity=60, time=13),\n",
      "    Message('note_on', channel=0, note=43, velocity=59, time=1),\n",
      "    Message('control_change', channel=0, control=64, value=127, time=158),\n",
      "    Message('control_change', channel=0, control=64, value=0, time=161),\n",
      "    Message('control_change', channel=0, control=64, value=127, time=154),\n",
      "    Message('note_on', channel=0, note=60, velocity=71, time=392),\n",
      "    Message('note_on', channel=0, note=51, velocity=60, time=2),\n",
      "    Message('note_on', channel=0, note=55, velocity=60, time=2),\n",
      "    Message('note_on', channel=0, note=72, velocity=86, time=562),\n",
      "    Message('note_on', channel=0, note=74, velocity=82, time=123),\n",
      "    Message('note_on', channel=0, note=72, velocity=0, time=94),\n",
      "    Message('note_on', channel=0, note=72, velocity=85, time=6),\n",
      "    Message('note_on', channel=0, note=67, velocity=80, time=118),\n",
      "    Message('note_on', channel=0, note=31, velocity=0, time=6),\n",
      "    Message('note_on', channel=0, note=43, velocity=0, time=0),\n",
      "    Message('note_on', channel=0, note=43, velocity=67, time=6),\n",
      "    Message('note_on', channel=0, note=31, velocity=71, time=0),\n",
      "    Message('note_on', channel=0, note=55, velocity=0, time=27),\n",
      "    Message('control_change', channel=0, control=64, value=0, time=1),\n",
      "    Message('note_on', channel=0, note=51, velocity=0, time=0),\n",
      "    Message('note_on', channel=0, note=60, velocity=0, time=0),\n",
      "    Message('note_on', channel=0, note=74, velocity=0, time=0),\n",
      "    Message('note_on', channel=0, note=72, velocity=0, time=1),\n",
      "    Message('note_on', channel=0, note=75, velocity=0, time=2),\n",
      "    Message('control_change', channel=0, control=64, value=127, time=240),\n",
      "    Message('note_on', channel=0, note=59, velocity=81, time=725),\n",
      "    Message('note_on', channel=0, note=55, velocity=69, time=0),\n",
      "    Message('note_on', channel=0, note=50, velocity=66, time=2),\n",
      "    Message('note_on', channel=0, note=67, velocity=0, time=740),\n",
      "    Message('note_on', channel=0, note=67, velocity=88, time=8),\n",
      "    Message('note_on', channel=0, note=68, velocity=85, time=142),\n",
      "    Message('note_on', channel=0, note=67, velocity=0, time=103),\n",
      "    Message('note_on', channel=0, note=67, velocity=78, time=10),\n",
      "    Message('note_on', channel=0, note=60, velocity=88, time=122),\n",
      "    Message('note_on', channel=0, note=36, velocity=88, time=14),\n",
      "    Message('note_on', channel=0, note=24, velocity=89, time=3),\n",
      "    Message('control_change', channel=0, control=64, value=0, time=46),\n",
      "    Message('note_on', channel=0, note=43, velocity=0, time=6),\n",
      "    Message('note_on', channel=0, note=31, velocity=0, time=0),\n",
      "    Message('note_on', channel=0, note=68, velocity=0, time=0),\n",
      "    Message('note_on', channel=0, note=67, velocity=0, time=1),\n",
      "    Message('note_on', channel=0, note=55, velocity=0, time=0),\n",
      "    Message('note_on', channel=0, note=59, velocity=0, time=1),\n",
      "    Message('note_on', channel=0, note=50, velocity=0, time=0),\n",
      "    Message('control_change', channel=0, control=64, value=127, time=219),\n",
      "    Message('control_change', channel=0, control=64, value=0, time=8),\n",
      "    Message('control_change', channel=0, control=64, value=127, time=161),\n",
      "    Message('note_on', channel=0, note=58, velocity=80, time=458),\n",
      "    Message('note_on', channel=0, note=55, velocity=60, time=5),\n",
      "    Message('note_on', channel=0, note=60, velocity=0, time=904),\n",
      "    Message('note_on', channel=0, note=57, velocity=58, time=12),\n",
      "    Message('note_on', channel=0, note=54, velocity=43, time=8),\n",
      "    Message('control_change', channel=0, control=64, value=0, time=54),\n",
      "    Message('note_on', channel=0, note=58, velocity=0, time=11),\n",
      "    Message('control_change', channel=0, control=64, value=127, time=169),\n",
      "    Message('note_on', channel=0, note=55, velocity=0, time=238),\n",
      "    Message('note_on', channel=0, note=24, velocity=0, time=108),\n",
      "    Message('note_on', channel=0, note=54, velocity=0, time=360),\n",
      "    Message('note_on', channel=0, note=53, velocity=34, time=183),\n",
      "    Message('note_on', channel=0, note=56, velocity=42, time=8),\n",
      "    Message('control_change', channel=0, control=64, value=0, time=48),\n",
      "    Message('control_change', channel=0, control=64, value=127, time=138),\n",
      "    Message('note_on', channel=0, note=57, velocity=0, time=7),\n",
      "    Message('note_on', channel=0, note=64, velocity=39, time=1405),\n",
      "    Message('note_on', channel=0, note=36, velocity=0, time=9),\n",
      "    Message('note_on', channel=0, note=52, velocity=30, time=6),\n",
      "    Message('note_on', channel=0, note=48, velocity=28, time=4),\n",
      "    Message('note_on', channel=0, note=55, velocity=25, time=0),\n",
      "    Message('note_on', channel=0, note=36, velocity=29, time=0),\n",
      "    Message('control_change', channel=0, control=64, value=0, time=50),\n",
      "    Message('note_on', channel=0, note=56, velocity=0, time=15),\n",
      "    Message('note_on', channel=0, note=53, velocity=0, time=1),\n",
      "    Message('control_change', channel=0, control=64, value=127, time=238),\n",
      "    Message('note_on', channel=0, note=62, velocity=38, time=1197),\n",
      "    Message('note_on', channel=0, note=31, velocity=30, time=7),\n",
      "    Message('note_on', channel=0, note=59, velocity=30, time=6),\n",
      "    Message('note_on', channel=0, note=43, velocity=26, time=0),\n",
      "    Message('note_on', channel=0, note=53, velocity=24, time=1),\n",
      "    Message('note_on', channel=0, note=64, velocity=0, time=21),\n",
      "    Message('note_on', channel=0, note=52, velocity=0, time=0),\n",
      "    Message('control_change', channel=0, control=64, value=0, time=8),\n",
      "    Message('note_on', channel=0, note=36, velocity=0, time=12),\n",
      "    Message('note_on', channel=0, note=48, velocity=0, time=0),\n",
      "    Message('control_change', channel=0, control=64, value=127, time=162),\n",
      "    Message('note_on', channel=0, note=59, velocity=0, time=483),\n",
      "    Message('note_on', channel=0, note=64, velocity=47, time=3),\n",
      "    Message('note_on', channel=0, note=59, velocity=29, time=4),\n",
      "    Message('note_on', channel=0, note=43, velocity=0, time=9),\n",
      "    Message('note_on', channel=0, note=43, velocity=26, time=4),\n",
      "    Message('note_on', channel=0, note=55, velocity=0, time=19),\n",
      "    Message('note_on', channel=0, note=55, velocity=14, time=5),\n",
      "    Message('note_on', channel=0, note=31, velocity=0, time=9),\n",
      "    Message('note_on', channel=0, note=53, velocity=0, time=3),\n",
      "    Message('note_on', channel=0, note=62, velocity=0, time=1),\n",
      "    Message('control_change', channel=0, control=64, value=0, time=6),\n",
      "    Message('control_change', channel=0, control=64, value=127, time=91),\n",
      "    Message('note_on', channel=0, note=65, velocity=45, time=482),\n",
      "    Message('note_on', channel=0, note=43, velocity=0, time=10),\n",
      "    Message('note_on', channel=0, note=59, velocity=0, time=0),\n",
      "    Message('note_on', channel=0, note=59, velocity=35, time=6),\n",
      "    Message('note_on', channel=0, note=43, velocity=29, time=0),\n",
      "    Message('note_on', channel=0, note=55, velocity=0, time=1),\n",
      "    Message('note_on', channel=0, note=53, velocity=25, time=3),\n",
      "    Message('note_on', channel=0, note=55, velocity=23, time=3),\n",
      "    Message('control_change', channel=0, control=64, value=0, time=56),\n",
      "    Message('note_on', channel=0, note=64, velocity=0, time=76),\n",
      "    Message('note_on', channel=0, note=64, velocity=50, time=12),\n",
      "    Message('note_on', channel=0, note=59, velocity=0, time=16),\n",
      "    Message('note_on', channel=0, note=65, velocity=0, time=1),\n",
      "    Message('note_on', channel=0, note=60, velocity=33, time=5),\n",
      "    Message('note_on', channel=0, note=48, velocity=25, time=2),\n",
      "    Message('note_on', channel=0, note=53, velocity=0, time=3),\n",
      "    Message('note_on', channel=0, note=55, velocity=0, time=0),\n",
      "    Message('note_on', channel=0, note=36, velocity=22, time=1),\n",
      "    Message('note_on', channel=0, note=52, velocity=25, time=4),\n",
      "    Message('note_on', channel=0, note=55, velocity=17, time=5),\n",
      "    Message('control_change', channel=0, control=64, value=127, time=151),\n",
      "    Message('control_change', channel=0, control=64, value=0, time=16),\n",
      "    Message('control_change', channel=0, control=64, value=127, time=84),\n",
      "    Message('note_on', channel=0, note=55, velocity=0, time=484),\n",
      "    Message('note_on', channel=0, note=52, velocity=0, time=8),\n",
      "    Message('note_on', channel=0, note=55, velocity=34, time=3),\n",
      "    Message('note_on', channel=0, note=52, velocity=32, time=8),\n",
      "    Message('note_on', channel=0, note=36, velocity=0, time=4),\n",
      "    Message('note_on', channel=0, note=36, velocity=30, time=11),\n",
      "    Message('control_change', channel=0, control=64, value=0, time=53),\n",
      "    Message('control_change', channel=0, control=64, value=127, time=20),\n",
      "    Message('note_on', channel=0, note=60, velocity=0, time=653),\n",
      "    Message('note_on', channel=0, note=60, velocity=39, time=6),\n",
      "    Message('note_on', channel=0, note=52, velocity=0, time=10),\n",
      "    Message('note_on', channel=0, note=55, velocity=0, time=0),\n",
      "    Message('note_on', channel=0, note=55, velocity=25, time=5),\n",
      "    Message('note_on', channel=0, note=52, velocity=27, time=2),\n",
      "    Message('note_on', channel=0, note=36, velocity=0, time=0),\n",
      "    Message('note_on', channel=0, note=43, velocity=0, time=0),\n",
      "    Message('note_on', channel=0, note=48, velocity=0, time=0),\n",
      "    Message('note_on', channel=0, note=43, velocity=23, time=5),\n",
      "    Message('note_on', channel=0, note=36, velocity=24, time=0),\n",
      "    Message('note_on', channel=0, note=48, velocity=26, time=4),\n",
      "    Message('note_on', channel=0, note=64, velocity=0, time=752),\n",
      "    Message('note_on', channel=0, note=64, velocity=50, time=7),\n",
      "    Message('note_on', channel=0, note=36, velocity=0, time=16),\n",
      "    Message('note_on', channel=0, note=48, velocity=0, time=0),\n",
      "    Message('note_on', channel=0, note=55, velocity=0, time=0),\n",
      "    Message('note_on', channel=0, note=60, velocity=0, time=0),\n",
      "    Message('note_on', channel=0, note=55, velocity=25, time=5),\n",
      "    Message('note_on', channel=0, note=48, velocity=25, time=5),\n",
      "    Message('note_on', channel=0, note=36, velocity=25, time=0),\n",
      "    Message('note_on', channel=0, note=60, velocity=19, time=1),\n",
      "    Message('note_on', channel=0, note=67, velocity=51, time=898),\n",
      "    Message('note_on', channel=0, note=43, velocity=0, time=12),\n",
      "    Message('note_on', channel=0, note=52, velocity=0, time=0),\n",
      "    Message('note_on', channel=0, note=60, velocity=0, time=0),\n",
      "    Message('note_on', channel=0, note=52, velocity=29, time=5),\n",
      "    Message('note_on', channel=0, note=60, velocity=33, time=2),\n",
      "    Message('note_on', channel=0, note=36, velocity=0, time=1),\n",
      "    Message('note_on', channel=0, note=55, velocity=0, time=0),\n",
      "    Message('note_on', channel=0, note=43, velocity=25, time=3),\n",
      "    Message('note_on', channel=0, note=36, velocity=25, time=2),\n",
      "    Message('note_on', channel=0, note=55, velocity=27, time=6),\n",
      "    Message('control_change', channel=0, control=64, value=0, time=43),\n",
      "    Message('control_change', channel=0, control=64, value=127, time=15),\n",
      "    Message('note_on', channel=0, note=64, velocity=0, time=1421),\n",
      "    Message('note_on', channel=0, note=64, velocity=47, time=4),\n",
      "    Message('note_on', channel=0, note=60, velocity=0, time=3),\n",
      "    Message('note_on', channel=0, note=60, velocity=30, time=4),\n",
      "    Message('note_on', channel=0, note=57, velocity=33, time=8),\n",
      "    Message('note_on', channel=0, note=52, velocity=0, time=4),\n",
      "    Message('note_on', channel=0, note=52, velocity=27, time=4),\n",
      "    Message('note_on', channel=0, note=45, velocity=32, time=4),\n",
      "    Message('note_on', channel=0, note=48, velocity=0, time=34),\n",
      "    Message('control_change', channel=0, control=64, value=0, time=1),\n",
      "    Message('note_on', channel=0, note=67, velocity=0, time=1),\n",
      "    Message('note_on', channel=0, note=36, velocity=0, time=1),\n",
      "    Message('note_on', channel=0, note=43, velocity=0, time=3),\n",
      "    Message('note_on', channel=0, note=55, velocity=0, time=13),\n",
      "    Message('control_change', channel=0, control=64, value=127, time=162),\n",
      "    Message('note_on', channel=0, note=64, velocity=0, time=483),\n",
      "    Message('note_on', channel=0, note=64, velocity=38, time=11),\n",
      "    Message('note_on', channel=0, note=52, velocity=0, time=66),\n",
      "    Message('note_on', channel=0, note=57, velocity=0, time=0),\n",
      "    Message('note_on', channel=0, note=45, velocity=0, time=8),\n",
      "    Message('note_on', channel=0, note=57, velocity=35, time=2),\n",
      "    Message('note_on', channel=0, note=62, velocity=37, time=0),\n",
      "    Message('note_on', channel=0, note=52, velocity=31, time=1),\n",
      "    Message('note_on', channel=0, note=45, velocity=29, time=8),\n",
      "    Message('note_on', channel=0, note=33, velocity=27, time=1),\n",
      "    Message('note_on', channel=0, note=64, velocity=0, time=24),\n",
      "    Message('control_change', channel=0, control=64, value=0, time=3),\n",
      "    Message('note_on', channel=0, note=60, velocity=0, time=22),\n",
      "    Message('control_change', channel=0, control=64, value=127, time=123),\n",
      "    Message('note_on', channel=0, note=60, velocity=47, time=585),\n",
      "    Message('note_on', channel=0, note=57, velocity=0, time=7),\n",
      "    Message('note_on', channel=0, note=33, velocity=0, time=7),\n",
      "    Message('note_on', channel=0, note=52, velocity=0, time=0),\n",
      "    Message('note_on', channel=0, note=57, velocity=41, time=2),\n",
      "    Message('note_on', channel=0, note=52, velocity=37, time=2),\n",
      "    Message('note_on', channel=0, note=45, velocity=0, time=4),\n",
      "    Message('note_on', channel=0, note=33, velocity=33, time=3),\n",
      "    Message('note_on', channel=0, note=45, velocity=34, time=1),\n",
      "    Message('note_on', channel=0, note=60, velocity=0, time=149),\n",
      "    Message('note_on', channel=0, note=62, velocity=0, time=0),\n",
      "    Message('note_on', channel=0, note=62, velocity=45, time=7),\n",
      "    Message('note_on', channel=0, note=60, velocity=34, time=0),\n",
      "    Message('note_on', channel=0, note=57, velocity=0, time=1),\n",
      "    Message('note_on', channel=0, note=57, velocity=32, time=10),\n",
      "    Message('note_on', channel=0, note=54, velocity=29, time=1),\n",
      "    Message('note_on', channel=0, note=38, velocity=26, time=8),\n",
      "    Message('note_on', channel=0, note=50, velocity=26, time=0),\n",
      "    Message('control_change', channel=0, control=64, value=0, time=3),\n",
      "    Message('note_on', channel=0, note=52, velocity=0, time=5),\n",
      "    Message('note_on', channel=0, note=33, velocity=0, time=12),\n",
      "    Message('control_change', channel=0, control=64, value=127, time=376),\n",
      "    Message('note_on', channel=0, note=62, velocity=0, time=1137),\n",
      "    Message('note_on', channel=0, note=62, velocity=28, time=4),\n",
      "    Message('note_on', channel=0, note=59, velocity=34, time=19),\n",
      "    Message('note_on', channel=0, note=55, velocity=25, time=4),\n",
      "    Message('note_on', channel=0, note=50, velocity=0, time=11),\n",
      "    Message('note_on', channel=0, note=50, velocity=21, time=5),\n",
      "    Message('note_on', channel=0, note=31, velocity=27, time=1),\n",
      "    Message('note_on', channel=0, note=43, velocity=25, time=1),\n",
      "    Message('control_change', channel=0, control=64, value=0, time=26),\n",
      "    Message('note_on', channel=0, note=54, velocity=0, time=16),\n",
      "    Message('note_on', channel=0, note=45, velocity=0, time=3),\n",
      "    Message('note_on', channel=0, note=38, velocity=0, time=1),\n",
      "    Message('note_on', channel=0, note=57, velocity=0, time=8),\n",
      "    Message('note_on', channel=0, note=60, velocity=0, time=0),\n",
      "    Message('control_change', channel=0, control=64, value=127, time=162),\n",
      "    Message('note_on', channel=0, note=31, velocity=0, time=599),\n",
      "    Message('note_on', channel=0, note=55, velocity=0, time=46),\n",
      "    Message('note_on', channel=0, note=59, velocity=0, time=0),\n",
      "    Message('note_on', channel=0, note=59, velocity=36, time=4),\n",
      "    Message('note_on', channel=0, note=67, velocity=37, time=2),\n",
      "    Message('note_on', channel=0, note=55, velocity=31, time=2),\n",
      "    Message('note_on', channel=0, note=65, velocity=36, time=6),\n",
      "    Message('note_on', channel=0, note=43, velocity=0, time=1),\n",
      "    Message('note_on', channel=0, note=53, velocity=29, time=3),\n",
      "    Message('note_on', channel=0, note=63, velocity=30, time=2),\n",
      "    Message('note_on', channel=0, note=43, velocity=27, time=5),\n",
      "    Message('control_change', channel=0, control=64, value=0, time=19),\n",
      "    Message('note_on', channel=0, note=50, velocity=0, time=8),\n",
      "    Message('note_on', channel=0, note=62, velocity=0, time=17),\n",
      "    Message('control_change', channel=0, control=64, value=127, time=138),\n",
      "    Message('control_change', channel=0, control=64, value=0, time=642),\n",
      "    Message('note_on', channel=0, note=65, velocity=0, time=6),\n",
      "    Message('note_on', channel=0, note=67, velocity=0, time=0),\n",
      "    Message('note_on', channel=0, note=53, velocity=0, time=1),\n",
      "    Message('note_on', channel=0, note=63, velocity=0, time=0),\n",
      "    Message('note_on', channel=0, note=55, velocity=0, time=12),\n",
      "    Message('note_on', channel=0, note=59, velocity=0, time=0),\n",
      "    Message('note_on', channel=0, note=36, velocity=40, time=26),\n",
      "    Message('note_on', channel=0, note=43, velocity=0, time=43),\n",
      "    Message('control_change', channel=0, control=64, value=127, time=15),\n",
      "    Message('note_on', channel=0, note=43, velocity=21, time=69),\n",
      "    Message('note_on', channel=0, note=48, velocity=36, time=74),\n",
      "    Message('note_on', channel=0, note=76, velocity=45, time=69),\n",
      "    Message('note_on', channel=0, note=67, velocity=36, time=10),\n",
      "    Message('note_on', channel=0, note=55, velocity=35, time=12),\n",
      "    Message('note_on', channel=0, note=64, velocity=38, time=1),\n",
      "    Message('note_on', channel=0, note=36, velocity=0, time=1217),\n",
      "    Message('note_on', channel=0, note=36, velocity=39, time=9),\n",
      "    Message('note_on', channel=0, note=43, velocity=0, time=67),\n",
      "    Message('note_on', channel=0, note=43, velocity=37, time=9),\n",
      "    Message('note_on', channel=0, note=74, velocity=49, time=157),\n",
      "    Message('note_on', channel=0, note=67, velocity=0, time=3),\n",
      "    Message('note_on', channel=0, note=62, velocity=38, time=6),\n",
      "    Message('note_on', channel=0, note=67, velocity=36, time=1),\n",
      "    Message('note_on', channel=0, note=55, velocity=0, time=1),\n",
      "    Message('note_on', channel=0, note=53, velocity=29, time=4),\n",
      "    Message('note_on', channel=0, note=55, velocity=33, time=1),\n",
      "    Message('note_on', channel=0, note=36, velocity=0, time=579),\n",
      "    Message('note_on', channel=0, note=36, velocity=24, time=4),\n",
      "    Message('note_on', channel=0, note=43, velocity=0, time=65),\n",
      "    Message('note_on', channel=0, note=43, velocity=35, time=9),\n",
      "    Message('note_on', channel=0, note=76, velocity=0, time=83),\n",
      "    Message('note_on', channel=0, note=43, velocity=0, time=8),\n",
      "    Message('note_on', channel=0, note=64, velocity=0, time=0),\n",
      "    Message('note_on', channel=0, note=67, velocity=0, time=0),\n",
      "    Message('note_on', channel=0, note=76, velocity=52, time=1),\n",
      "    Message('note_on', channel=0, note=72, velocity=43, time=4),\n",
      "    Message('note_on', channel=0, note=67, velocity=42, time=1),\n",
      "    Message('note_on', channel=0, note=64, velocity=47, time=2),\n",
      "    Message('note_on', channel=0, note=43, velocity=30, time=3),\n",
      "    Message('note_on', channel=0, note=55, velocity=0, time=4),\n",
      "    Message('note_on', channel=0, note=55, velocity=30, time=5),\n",
      "    Message('note_on', channel=0, note=36, velocity=0, time=233),\n",
      "    Message('note_on', channel=0, note=36, velocity=45, time=4),\n",
      "    Message('note_on', channel=0, note=77, velocity=55, time=170),\n",
      "    Message('note_on', channel=0, note=62, velocity=0, time=3),\n",
      "    Message('note_on', channel=0, note=74, velocity=0, time=3),\n",
      "    Message('note_on', channel=0, note=71, velocity=43, time=5),\n",
      "    Message('note_on', channel=0, note=62, velocity=36, time=3),\n",
      "    Message('note_on', channel=0, note=65, velocity=42, time=2),\n",
      "    Message('note_on', channel=0, note=43, velocity=0, time=2),\n",
      "    Message('note_on', channel=0, note=55, velocity=0, time=0),\n",
      "    Message('note_on', channel=0, note=43, velocity=32, time=4),\n",
      "    Message('note_on', channel=0, note=50, velocity=40, time=1),\n",
      "    Message('note_on', channel=0, note=55, velocity=35, time=1),\n",
      "    Message('note_on', channel=0, note=43, velocity=0, time=370),\n",
      "    Message('note_on', channel=0, note=43, velocity=39, time=7),\n",
      "    Message('note_on', channel=0, note=48, velocity=0, time=47),\n",
      "    Message('note_on', channel=0, note=76, velocity=0, time=0),\n",
      "    Message('note_on', channel=0, note=64, velocity=0, time=8),\n",
      "    Message('note_on', channel=0, note=67, velocity=0, time=0),\n",
      "    Message('note_on', channel=0, note=72, velocity=0, time=0),\n",
      "    Message('note_on', channel=0, note=48, velocity=37, time=1),\n",
      "    Message('note_on', channel=0, note=76, velocity=57, time=0),\n",
      "    Message('note_on', channel=0, note=64, velocity=49, time=5),\n",
      "    Message('note_on', channel=0, note=67, velocity=41, time=1),\n",
      "    Message('note_on', channel=0, note=72, velocity=47, time=4),\n",
      "    Message('control_change', channel=0, control=64, value=0, time=3),\n",
      "    Message('note_on', channel=0, note=71, velocity=0, time=0),\n",
      "    Message('note_on', channel=0, note=65, velocity=0, time=0),\n",
      "    Message('note_on', channel=0, note=62, velocity=0, time=1),\n",
      "    Message('note_on', channel=0, note=50, velocity=0, time=2),\n",
      "    Message('note_on', channel=0, note=77, velocity=0, time=0),\n",
      "    Message('note_on', channel=0, note=53, velocity=0, time=0),\n",
      "    Message('note_on', channel=0, note=55, velocity=0, time=21),\n",
      "    Message('note_on', channel=0, note=55, velocity=36, time=8),\n",
      "    Message('control_change', channel=0, control=64, value=127, time=246),\n",
      "    Message('note_on', channel=0, note=67, velocity=0, time=484),\n",
      "    Message('note_on', channel=0, note=67, velocity=42, time=10),\n",
      "    Message('note_on', channel=0, note=43, velocity=0, time=5),\n",
      "    Message('note_on', channel=0, note=55, velocity=0, time=0),\n",
      "    Message('note_on', channel=0, note=64, velocity=0, time=0),\n",
      "    Message('note_on', channel=0, note=36, velocity=0, time=8),\n",
      "    Message('note_on', channel=0, note=64, velocity=37, time=2),\n",
      "    Message('note_on', channel=0, note=43, velocity=33, time=1),\n",
      "    Message('note_on', channel=0, note=55, velocity=35, time=0),\n",
      "    Message('note_on', channel=0, note=60, velocity=27, time=2),\n",
      "    Message('note_on', channel=0, note=36, velocity=33, time=1),\n",
      "    Message('note_on', channel=0, note=52, velocity=34, time=0),\n",
      "    Message('control_change', channel=0, control=64, value=0, time=2),\n",
      "    Message('control_change', channel=0, control=64, value=127, time=53),\n",
      "    Message('note_on', channel=0, note=60, velocity=0, time=822),\n",
      "    Message('note_on', channel=0, note=64, velocity=0, time=0),\n",
      "    Message('note_on', channel=0, note=72, velocity=0, time=0),\n",
      "    Message('note_on', channel=0, note=72, velocity=47, time=5),\n",
      "    Message('note_on', channel=0, note=64, velocity=44, time=2),\n",
      "    Message('note_on', channel=0, note=69, velocity=40, time=2),\n",
      "    Message('note_on', channel=0, note=57, velocity=39, time=1),\n",
      "    Message('note_on', channel=0, note=60, velocity=41, time=1),\n",
      "    Message('note_on', channel=0, note=57, velocity=0, time=4),\n",
      "    Message('note_on', channel=0, note=52, velocity=0, time=8),\n",
      "    Message('control_change', channel=0, control=64, value=0, time=2),\n",
      "    Message('note_on', channel=0, note=36, velocity=0, time=1),\n",
      "    Message('note_on', channel=0, note=55, velocity=0, time=1),\n",
      "    Message('note_on', channel=0, note=45, velocity=34, time=0),\n",
      "    Message('note_on', channel=0, note=52, velocity=35, time=0),\n",
      "    Message('note_on', channel=0, note=48, velocity=0, time=19),\n",
      "    Message('note_on', channel=0, note=76, velocity=0, time=0),\n",
      "    Message('note_on', channel=0, note=43, velocity=0, time=8),\n",
      "    Message('note_on', channel=0, note=67, velocity=0, time=0),\n",
      "    Message('control_change', channel=0, control=64, value=127, time=161),\n",
      "    Message('note_on', channel=0, note=40, velocity=29, time=538),\n",
      "    Message('note_on', channel=0, note=52, velocity=0, time=3),\n",
      "    Message('note_on', channel=0, note=45, velocity=0, time=0),\n",
      "    Message('note_on', channel=0, note=69, velocity=0, time=2),\n",
      "    Message('control_change', channel=0, control=64, value=0, time=0),\n",
      "    Message('note_on', channel=0, note=72, velocity=0, time=2),\n",
      "    Message('note_on', channel=0, note=60, velocity=0, time=8),\n",
      "    Message('note_on', channel=0, note=64, velocity=0, time=15),\n",
      "    Message('control_change', channel=0, control=64, value=127, time=39),\n",
      "    Message('note_on', channel=0, note=52, velocity=35, time=32),\n",
      "    Message('note_on', channel=0, note=76, velocity=45, time=121),\n",
      "    Message('note_on', channel=0, note=64, velocity=38, time=2),\n",
      "    Message('note_on', channel=0, note=67, velocity=26, time=15),\n",
      "    Message('note_on', channel=0, note=71, velocity=41, time=4),\n",
      "    Message('note_on', channel=0, note=59, velocity=48, time=0),\n",
      "    Message('note_on', channel=0, note=36, velocity=37, time=790),\n",
      "    Message('control_change', channel=0, control=64, value=0, time=21),\n",
      "    Message('note_on', channel=0, note=40, velocity=0, time=2),\n",
      "    Message('note_on', channel=0, note=52, velocity=0, time=1),\n",
      "    Message('note_on', channel=0, note=59, velocity=0, time=0),\n",
      "    Message('note_on', channel=0, note=67, velocity=0, time=1),\n",
      "    Message('note_on', channel=0, note=64, velocity=0, time=3),\n",
      "    Message('note_on', channel=0, note=71, velocity=0, time=1),\n",
      "    Message('note_on', channel=0, note=76, velocity=0, time=0),\n",
      "    Message('note_on', channel=0, note=43, velocity=35, time=55),\n",
      "    Message('control_change', channel=0, control=64, value=127, time=27),\n",
      "    Message('note_on', channel=0, note=36, velocity=0, time=4),\n",
      "    Message('note_on', channel=0, note=48, velocity=33, time=57),\n",
      "    Message('note_on', channel=0, note=52, velocity=46, time=94),\n",
      "    Message('note_on', channel=0, note=55, velocity=34, time=78),\n",
      "    Message('note_on', channel=0, note=60, velocity=51, time=65),\n",
      "    Message('note_on', channel=0, note=64, velocity=45, time=16),\n",
      "    Message('note_on', channel=0, note=67, velocity=43, time=73),\n",
      "    Message('note_on', channel=0, note=43, velocity=0, time=20),\n",
      "    Message('note_on', channel=0, note=72, velocity=49, time=44),\n",
      "    Message('note_on', channel=0, note=76, velocity=42, time=78),\n",
      "    Message('note_on', channel=0, note=79, velocity=51, time=71),\n",
      "    Message('note_on', channel=0, note=40, velocity=25, time=1431),\n",
      "    Message('note_on', channel=0, note=35, velocity=25, time=69),\n",
      "    Message('note_on', channel=0, note=35, velocity=0, time=4),\n",
      "    Message('note_on', channel=0, note=64, velocity=0, time=8),\n",
      "    Message('note_on', channel=0, note=47, velocity=27, time=3),\n",
      "    Message('note_on', channel=0, note=64, velocity=43, time=1),\n",
      "    Message('note_on', channel=0, note=76, velocity=0, time=19),\n",
      "    Message('note_on', channel=0, note=55, velocity=0, time=6),\n",
      "    Message('note_on', channel=0, note=76, velocity=50, time=1),\n",
      "    Message('note_on', channel=0, note=56, velocity=37, time=1),\n",
      "    Message('note_on', channel=0, note=72, velocity=0, time=3),\n",
      "    Message('note_on', channel=0, note=68, velocity=39, time=3),\n",
      "    Message('note_on', channel=0, note=71, velocity=36, time=7),\n",
      "    Message('control_change', channel=0, control=64, value=0, time=27),\n",
      "    Message('control_change', channel=0, control=64, value=127, time=90),\n",
      "    Message('note_on', channel=0, note=67, velocity=0, time=461),\n",
      "    Message('note_on', channel=0, note=60, velocity=0, time=284),\n",
      "    Message('note_on', channel=0, note=57, velocity=32, time=7),\n",
      "    Message('note_on', channel=0, note=74, velocity=41, time=2),\n",
      "    Message('note_on', channel=0, note=60, velocity=30, time=0),\n",
      "    Message('note_on', channel=0, note=62, velocity=35, time=2),\n",
      "    Message('note_on', channel=0, note=69, velocity=32, time=3),\n",
      "    Message('control_change', channel=0, control=64, value=0, time=6),\n",
      "    Message('note_on', channel=0, note=50, velocity=25, time=0),\n",
      "    Message('note_on', channel=0, note=41, velocity=29, time=3),\n",
      "    Message('note_on', channel=0, note=79, velocity=0, time=0),\n",
      "    Message('note_on', channel=0, note=40, velocity=0, time=7),\n",
      "    Message('note_on', channel=0, note=48, velocity=0, time=1),\n",
      "    Message('note_on', channel=0, note=68, velocity=0, time=0),\n",
      "    Message('note_on', channel=0, note=71, velocity=0, time=0),\n",
      "    Message('note_on', channel=0, note=56, velocity=0, time=1),\n",
      "    Message('note_on', channel=0, note=64, velocity=0, time=0),\n",
      "    Message('note_on', channel=0, note=76, velocity=0, time=1),\n",
      "    Message('note_on', channel=0, note=52, velocity=0, time=1),\n",
      "    Message('note_on', channel=0, note=47, velocity=0, time=4),\n",
      "    Message('control_change', channel=0, control=64, value=127, time=123),\n",
      "    Message('note_on', channel=0, note=59, velocity=44, time=625),\n",
      "    Message('note_on', channel=0, note=67, velocity=42, time=2),\n",
      "    Message('control_change', channel=0, control=64, value=0, time=1),\n",
      "    Message('note_on', channel=0, note=50, velocity=0, time=2),\n",
      "    Message('note_on', channel=0, note=57, velocity=0, time=1),\n",
      "    Message('note_on', channel=0, note=69, velocity=0, time=2),\n",
      "    Message('note_on', channel=0, note=55, velocity=32, time=0),\n",
      "    Message('note_on', channel=0, note=74, velocity=0, time=1),\n",
      "    Message('note_on', channel=0, note=62, velocity=0, time=0),\n",
      "    Message('note_on', channel=0, note=41, velocity=0, time=0),\n",
      "    Message('note_on', channel=0, note=43, velocity=27, time=3),\n",
      "    Message('note_on', channel=0, note=55, velocity=0, time=1),\n",
      "    Message('note_on', channel=0, note=50, velocity=23, time=3),\n",
      "    Message('note_on', channel=0, note=65, velocity=24, time=2),\n",
      "    Message('note_on', channel=0, note=60, velocity=0, time=10),\n",
      "    Message('control_change', channel=0, control=64, value=127, time=92),\n",
      "    Message('note_on', channel=0, note=59, velocity=0, time=8),\n",
      "    Message('note_on', channel=0, note=59, velocity=62, time=5),\n",
      "    Message('note_on', channel=0, note=67, velocity=0, time=149),\n",
      "    Message('note_on', channel=0, note=74, velocity=60, time=4),\n",
      "    Message('note_on', channel=0, note=67, velocity=38, time=5),\n",
      "    Message('note_on', channel=0, note=59, velocity=0, time=14),\n",
      "    Message('control_change', channel=0, control=64, value=0, time=7),\n",
      "    Message('note_on', channel=0, note=59, velocity=38, time=1),\n",
      "    Message('control_change', channel=0, control=64, value=127, time=84),\n",
      "    Message('note_on', channel=0, note=65, velocity=0, time=284),\n",
      "    Message('note_on', channel=0, note=31, velocity=35, time=511),\n",
      "    Message('note_on', channel=0, note=31, velocity=0, time=804),\n",
      "    Message('note_on', channel=0, note=50, velocity=0, time=1),\n",
      "    Message('note_on', channel=0, note=74, velocity=0, time=0),\n",
      "    Message('note_on', channel=0, note=67, velocity=0, time=0),\n",
      "    Message('note_on', channel=0, note=43, velocity=0, time=1),\n",
      "    Message('note_on', channel=0, note=59, velocity=0, time=0),\n",
      "    Message('control_change', channel=0, control=64, value=0, time=1),\n",
      "    Message('note_on', channel=0, note=36, velocity=36, time=21),\n",
      "    Message('note_on', channel=0, note=36, velocity=0, time=72),\n",
      "    Message('note_on', channel=0, note=43, velocity=28, time=10),\n",
      "    Message('control_change', channel=0, control=64, value=127, time=84),\n",
      "    Message('note_on', channel=0, note=36, velocity=24, time=11),\n",
      "    Message('note_on', channel=0, note=48, velocity=26, time=2),\n",
      "    Message('note_on', channel=0, note=72, velocity=43, time=21),\n",
      "    Message('note_on', channel=0, note=60, velocity=33, time=4),\n",
      "    Message('note_on', channel=0, note=64, velocity=29, time=8),\n",
      "    Message('note_on', channel=0, note=67, velocity=26, time=11),\n",
      "    Message('note_on', channel=0, note=55, velocity=31, time=4),\n",
      "    Message('control_change', channel=0, control=64, value=0, time=24),\n",
      "    Message('control_change', channel=0, control=64, value=127, time=99),\n",
      "    Message('note_on', channel=0, note=43, velocity=0, time=1395),\n",
      "    Message('note_on', channel=0, note=67, velocity=0, time=0),\n",
      "    Message('note_on', channel=0, note=36, velocity=0, time=0),\n",
      "    Message('note_on', channel=0, note=64, velocity=0, time=2),\n",
      "    Message('note_on', channel=0, note=55, velocity=0, time=0),\n",
      "    Message('note_on', channel=0, note=72, velocity=0, time=2),\n",
      "    Message('note_on', channel=0, note=60, velocity=0, time=2),\n",
      "    Message('control_change', channel=0, control=64, value=0, time=1),\n",
      "    Message('note_on', channel=0, note=48, velocity=0, time=4),\n",
      "    Message('note_on', channel=0, note=41, velocity=33, time=133),\n",
      "    Message('note_on', channel=0, note=41, velocity=0, time=42),\n",
      "    Message('note_on', channel=0, note=48, velocity=39, time=17),\n",
      "    Message('control_change', channel=0, control=64, value=127, time=38),\n",
      "    Message('note_on', channel=0, note=53, velocity=34, time=24),\n",
      "    Message('note_on', channel=0, note=81, velocity=55, time=41),\n",
      "    Message('note_on', channel=0, note=69, velocity=46, time=7),\n",
      "    Message('note_on', channel=0, note=72, velocity=49, time=1),\n",
      "    Message('note_on', channel=0, note=60, velocity=36, time=31),\n",
      "    Message('note_on', channel=0, note=72, velocity=0, time=1340),\n",
      "    Message('note_on', channel=0, note=79, velocity=49, time=3),\n",
      "    Message('note_on', channel=0, note=72, velocity=42, time=6),\n",
      "    Message('note_on', channel=0, note=67, velocity=33, time=2),\n",
      "    Message('note_on', channel=0, note=48, velocity=0, time=12),\n",
      "    Message('note_on', channel=0, note=55, velocity=29, time=5),\n",
      "    Message('note_on', channel=0, note=48, velocity=28, time=1),\n",
      "    Message('control_change', channel=0, control=64, value=0, time=5),\n",
      "    Message('note_on', channel=0, note=69, velocity=0, time=0),\n",
      "    Message('note_on', channel=0, note=60, velocity=0, time=1),\n",
      "    Message('note_on', channel=0, note=81, velocity=0, time=0),\n",
      "    Message('note_on', channel=0, note=53, velocity=0, time=0),\n",
      "    Message('note_on', channel=0, note=40, velocity=25, time=0),\n",
      "    Message('control_change', channel=0, control=64, value=127, time=119),\n",
      "    Message('note_on', channel=0, note=39, velocity=31, time=480),\n",
      "    Message('note_on', channel=0, note=48, velocity=0, time=65),\n",
      "    Message('note_on', channel=0, note=48, velocity=34, time=7),\n",
      "    Message('note_on', channel=0, note=81, velocity=53, time=12),\n",
      "    Message('note_on', channel=0, note=72, velocity=0, time=4),\n",
      "    Message('note_on', channel=0, note=55, velocity=0, time=4),\n",
      "    Message('note_on', channel=0, note=72, velocity=42, time=1),\n",
      "    Message('note_on', channel=0, note=40, velocity=0, time=1),\n",
      "    Message('note_on', channel=0, note=67, velocity=0, time=2),\n",
      "    Message('note_on', channel=0, note=69, velocity=41, time=1),\n",
      "    Message('control_change', channel=0, control=64, value=0, time=1),\n",
      "    Message('note_on', channel=0, note=79, velocity=0, time=1),\n",
      "    Message('note_on', channel=0, note=67, velocity=38, time=1),\n",
      "    Message('note_on', channel=0, note=57, velocity=42, time=23),\n",
      "    Message('note_on', channel=0, note=39, velocity=0, time=11),\n",
      "    Message('control_change', channel=0, control=64, value=127, time=8),\n",
      "    Message('control_change', channel=0, control=64, value=0, time=472),\n",
      "    Message('note_on', channel=0, note=69, velocity=0, time=0),\n",
      "    Message('note_on', channel=0, note=57, velocity=0, time=0),\n",
      "    Message('note_on', channel=0, note=81, velocity=0, time=0),\n",
      "    Message('note_on', channel=0, note=67, velocity=0, time=0),\n",
      "    Message('note_on', channel=0, note=72, velocity=0, time=1),\n",
      "    Message('note_on', channel=0, note=48, velocity=0, time=11),\n",
      "    Message('note_on', channel=0, note=38, velocity=40, time=12),\n",
      "    Message('control_change', channel=0, control=64, value=127, time=18),\n",
      "    Message('note_on', channel=0, note=45, velocity=31, time=89),\n",
      "    Message('note_on', channel=0, note=78, velocity=50, time=140),\n",
      "    Message('note_on', channel=0, note=38, velocity=0, time=2),\n",
      "    Message('note_on', channel=0, note=74, velocity=45, time=2),\n",
      "    Message('note_on', channel=0, note=38, velocity=32, time=3),\n",
      "    Message('note_on', channel=0, note=66, velocity=36, time=4),\n",
      "    Message('note_on', channel=0, note=69, velocity=38, time=6),\n",
      "    Message('note_on', channel=0, note=50, velocity=27, time=9),\n",
      "    Message('note_on', channel=0, note=57, velocity=41, time=5),\n",
      "    Message('note_on', channel=0, note=74, velocity=0, time=731),\n",
      "    Message('note_on', channel=0, note=42, velocity=47, time=1),\n",
      "    Message('note_on', channel=0, note=74, velocity=46, time=3),\n",
      "    Message('note_on', channel=0, note=50, velocity=0, time=11),\n",
      "    Message('note_on', channel=0, note=69, velocity=0, time=0),\n",
      "    Message('note_on', channel=0, note=69, velocity=40, time=5),\n",
      "    Message('note_on', channel=0, note=62, velocity=35, time=0),\n",
      "    Message('note_on', channel=0, note=57, velocity=0, time=3),\n",
      "    Message('note_on', channel=0, note=50, velocity=36, time=1),\n",
      "    Message('note_on', channel=0, note=60, velocity=33, time=3),\n",
      "    Message('note_on', channel=0, note=57, velocity=34, time=1),\n",
      "    Message('control_change', channel=0, control=64, value=0, time=6),\n",
      "    Message('note_on', channel=0, note=38, velocity=0, time=1),\n",
      "    Message('note_on', channel=0, note=66, velocity=0, time=3),\n",
      "    Message('note_on', channel=0, note=45, velocity=0, time=0),\n",
      "    Message('note_on', channel=0, note=78, velocity=0, time=1),\n",
      "    Message('control_change', channel=0, control=64, value=127, time=138),\n",
      "    Message('note_on', channel=0, note=74, velocity=0, time=438),\n",
      "    Message('note_on', channel=0, note=58, velocity=46, time=7),\n",
      "    Message('note_on', channel=0, note=42, velocity=0, time=0),\n",
      "    Message('note_on', channel=0, note=50, velocity=0, time=0),\n",
      "    Message('note_on', channel=0, note=62, velocity=0, time=0),\n",
      "    Message('note_on', channel=0, note=74, velocity=57, time=2),\n",
      "    Message('note_on', channel=0, note=42, velocity=42, time=4),\n",
      "    Message('note_on', channel=0, note=50, velocity=41, time=1),\n",
      "    Message('note_on', channel=0, note=62, velocity=46, time=2),\n",
      "    Message('note_on', channel=0, note=57, velocity=0, time=7),\n",
      "    Message('note_on', channel=0, note=60, velocity=0, time=7),\n",
      "    Message('note_on', channel=0, note=43, velocity=52, time=127),\n",
      "    Message('note_on', channel=0, note=74, velocity=0, time=4),\n",
      "    Message('note_on', channel=0, note=50, velocity=0, time=7),\n",
      "    Message('note_on', channel=0, note=62, velocity=0, time=0),\n",
      "    Message('note_on', channel=0, note=42, velocity=0, time=1),\n",
      "    Message('note_on', channel=0, note=58, velocity=0, time=1),\n",
      "    Message('note_on', channel=0, note=74, velocity=48, time=1),\n",
      "    Message('note_on', channel=0, note=71, velocity=46, time=3),\n",
      "    Message('note_on', channel=0, note=50, velocity=36, time=1),\n",
      "    Message('note_on', channel=0, note=59, velocity=44, time=2),\n",
      "    Message('note_on', channel=0, note=55, velocity=38, time=1),\n",
      "    Message('note_on', channel=0, note=62, velocity=38, time=1),\n",
      "    Message('note_on', channel=0, note=67, velocity=31, time=1),\n",
      "    Message('control_change', channel=0, control=64, value=0, time=1),\n",
      "    Message('note_on', channel=0, note=69, velocity=0, time=3),\n",
      "    Message('control_change', channel=0, control=64, value=127, time=223),\n",
      "    Message('note_on', channel=0, note=62, velocity=0, time=499),\n",
      "    Message('note_on', channel=0, note=74, velocity=0, time=0),\n",
      "    Message('note_on', channel=0, note=45, velocity=36, time=1),\n",
      "    Message('note_on', channel=0, note=66, velocity=35, time=2),\n",
      "    Message('note_on', channel=0, note=74, velocity=40, time=4),\n",
      "    Message('note_on', channel=0, note=50, velocity=0, time=0),\n",
      "    Message('note_on', channel=0, note=62, velocity=33, time=3),\n",
      "    Message('note_on', channel=0, note=60, velocity=27, time=2),\n",
      "    Message('note_on', channel=0, note=50, velocity=26, time=1),\n",
      "    Message('control_change', channel=0, control=64, value=0, time=4),\n",
      "    Message('note_on', channel=0, note=55, velocity=0, time=3),\n",
      "    Message('note_on', channel=0, note=59, velocity=0, time=0),\n",
      "    Message('note_on', channel=0, note=71, velocity=0, time=0),\n",
      "    Message('note_on', channel=0, note=43, velocity=0, time=2),\n",
      "    Message('note_on', channel=0, note=67, velocity=0, time=8),\n",
      "    Message('control_change', channel=0, control=64, value=127, time=192),\n",
      "    Message('note_on', channel=0, note=45, velocity=0, time=448),\n",
      "    Message('note_on', channel=0, note=66, velocity=0, time=1),\n",
      "    Message('control_change', channel=0, control=64, value=0, time=1),\n",
      "    Message('note_on', channel=0, note=50, velocity=0, time=1),\n",
      "    Message('note_on', channel=0, note=60, velocity=0, time=1),\n",
      "    Message('note_on', channel=0, note=43, velocity=50, time=0),\n",
      "    Message('note_on', channel=0, note=62, velocity=0, time=9),\n",
      "    Message('note_on', channel=0, note=74, velocity=0, time=8),\n",
      "    Message('control_change', channel=0, control=64, value=127, time=92),\n",
      "    Message('note_on', channel=0, note=50, velocity=43, time=6),\n",
      "    Message('note_on', channel=0, note=83, velocity=55, time=148),\n",
      "    Message('note_on', channel=0, note=74, velocity=46, time=3),\n",
      "    Message('note_on', channel=0, note=71, velocity=41, time=16),\n",
      "    Message('note_on', channel=0, note=67, velocity=31, time=7),\n",
      "    Message('note_on', channel=0, note=62, velocity=46, time=2),\n",
      "    Message('note_on', channel=0, note=67, velocity=0, time=2),\n",
      "    Message('note_on', channel=0, note=55, velocity=28, time=2),\n",
      "    Message('note_on', channel=0, note=42, velocity=40, time=1379),\n",
      "    Message('note_on', channel=0, note=81, velocity=51, time=19),\n",
      "    Message('note_on', channel=0, note=74, velocity=0, time=21),\n",
      "    Message('control_change', channel=0, control=64, value=0, time=3),\n",
      "    Message('note_on', channel=0, note=74, velocity=43, time=3),\n",
      "    Message('note_on', channel=0, note=69, velocity=33, time=6),\n",
      "    Message('note_on', channel=0, note=50, velocity=0, time=4),\n",
      "    Message('note_on', channel=0, note=50, velocity=31, time=4),\n",
      "    Message('note_on', channel=0, note=57, velocity=31, time=9),\n",
      "    Message('note_on', channel=0, note=62, velocity=0, time=4),\n",
      "    Message('note_on', channel=0, note=71, velocity=0, time=8),\n",
      "    Message('note_on', channel=0, note=43, velocity=0, time=5),\n",
      "    Message('note_on', channel=0, note=83, velocity=0, time=3),\n",
      "    Message('note_on', channel=0, note=55, velocity=0, time=20),\n",
      "    Message('control_change', channel=0, control=64, value=127, time=100),\n",
      "    Message('note_on', channel=0, note=41, velocity=45, time=454),\n",
      "    Message('control_change', channel=0, control=64, value=0, time=17),\n",
      "    Message('note_on', channel=0, note=42, velocity=0, time=67),\n",
      "    Message('note_on', channel=0, note=47, velocity=32, time=3),\n",
      "    Message('note_on', channel=0, note=57, velocity=0, time=19),\n",
      "    Message('note_on', channel=0, note=74, velocity=0, time=3),\n",
      "    Message('note_on', channel=0, note=69, velocity=0, time=0),\n",
      "    Message('note_on', channel=0, note=50, velocity=0, time=1),\n",
      "    Message('note_on', channel=0, note=81, velocity=0, time=0),\n",
      "    Message('note_on', channel=0, note=83, velocity=50, time=18),\n",
      "    Message('note_on', channel=0, note=75, velocity=42, time=12),\n",
      "    Message('note_on', channel=0, note=71, velocity=39, time=2),\n",
      "    Message('note_on', channel=0, note=47, velocity=0, time=3),\n",
      "    Message('note_on', channel=0, note=51, velocity=34, time=4),\n",
      "    Message('note_on', channel=0, note=78, velocity=32, time=1),\n",
      "    Message('note_on', channel=0, note=47, velocity=33, time=0),\n",
      "    Message('note_on', channel=0, note=78, velocity=0, time=11),\n",
      "    Message('note_on', channel=0, note=59, velocity=39, time=4),\n",
      "    Message('control_change', channel=0, control=64, value=127, time=49),\n",
      "    Message('note_on', channel=0, note=41, velocity=0, time=54),\n",
      "    Message('control_change', channel=0, control=64, value=0, time=500),\n",
      "    Message('note_on', channel=0, note=40, velocity=42, time=1),\n",
      "    Message('note_on', channel=0, note=47, velocity=0, time=8),\n",
      "    Message('note_on', channel=0, note=83, velocity=0, time=2),\n",
      "    Message('note_on', channel=0, note=75, velocity=0, time=0),\n",
      "    Message('note_on', channel=0, note=51, velocity=0, time=0),\n",
      "    Message('note_on', channel=0, note=59, velocity=0, time=0),\n",
      "    Message('note_on', channel=0, note=47, velocity=31, time=89),\n",
      "    Message('note_on', channel=0, note=52, velocity=36, time=80),\n",
      "    Message('note_on', channel=0, note=71, velocity=0, time=73),\n",
      "    Message('note_on', channel=0, note=80, velocity=49, time=6),\n",
      "    Message('note_on', channel=0, note=76, velocity=40, time=4),\n",
      "    Message('note_on', channel=0, note=71, velocity=38, time=0),\n",
      "    Message('note_on', channel=0, note=68, velocity=39, time=3),\n",
      "    Message('note_on', channel=0, note=59, velocity=45, time=101),\n",
      "    Message('control_change', channel=0, control=64, value=127, time=147),\n",
      "    Message('note_on', channel=0, note=40, velocity=0, time=1037),\n",
      "    Message('note_on', channel=0, note=40, velocity=30, time=11),\n",
      "    Message('control_change', channel=0, control=64, value=0, time=56),\n",
      "    Message('note_on', channel=0, note=76, velocity=0, time=4),\n",
      "    Message('note_on', channel=0, note=68, velocity=0, time=0),\n",
      "    Message('note_on', channel=0, note=80, velocity=0, time=0),\n",
      "    Message('note_on', channel=0, note=59, velocity=0, time=0),\n",
      "    Message('note_on', channel=0, note=52, velocity=0, time=0),\n",
      "    Message('note_on', channel=0, note=71, velocity=0, time=2),\n",
      "    Message('note_on', channel=0, note=47, velocity=0, time=19),\n",
      "    Message('note_on', channel=0, note=47, velocity=30, time=9),\n",
      "    Message('control_change', channel=0, control=64, value=127, time=45),\n",
      "    Message('note_on', channel=0, note=52, velocity=34, time=40),\n",
      "    Message('note_on', channel=0, note=79, velocity=45, time=101),\n",
      "    Message('note_on', channel=0, note=67, velocity=33, time=7),\n",
      "    Message('note_on', channel=0, note=59, velocity=33, time=40),\n",
      "    Message('note_on', channel=0, note=79, velocity=0, time=887),\n",
      "    Message('note_on', channel=0, note=59, velocity=0, time=7),\n",
      "    Message('note_on', channel=0, note=79, velocity=39, time=2),\n",
      "    Message('note_on', channel=0, note=59, velocity=32, time=7),\n",
      "    Message('control_change', channel=0, control=64, value=0, time=1),\n",
      "    Message('note_on', channel=0, note=74, velocity=35, time=1),\n",
      "    Message('note_on', channel=0, note=71, velocity=33, time=2),\n",
      "    Message('note_on', channel=0, note=43, velocity=26, time=3),\n",
      "    Message('note_on', channel=0, note=50, velocity=19, time=2),\n",
      "    Message('note_on', channel=0, note=52, velocity=0, time=0),\n",
      "    Message('note_on', channel=0, note=47, velocity=0, time=2),\n",
      "    Message('note_on', channel=0, note=40, velocity=0, time=4),\n",
      "    Message('note_on', channel=0, note=67, velocity=0, time=0),\n",
      "    Message('note_on', channel=0, note=65, velocity=24, time=0),\n",
      "    Message('note_on', channel=0, note=67, velocity=25, time=3),\n",
      "    Message('note_on', channel=0, note=77, velocity=44, time=336),\n",
      "    Message('control_change', channel=0, control=64, value=127, time=129),\n",
      "    Message('note_on', channel=0, note=76, velocity=44, time=734),\n",
      "    Message('note_on', channel=0, note=50, velocity=0, time=39),\n",
      "    Message('note_on', channel=0, note=67, velocity=0, time=3),\n",
      "    Message('note_on', channel=0, note=65, velocity=0, time=1),\n",
      "    Message('note_on', channel=0, note=74, velocity=0, time=0),\n",
      "    Message('note_on', channel=0, note=77, velocity=0, time=1),\n",
      "    Message('note_on', channel=0, note=71, velocity=0, time=0),\n",
      "    Message('note_on', channel=0, note=59, velocity=0, time=5),\n",
      "    Message('control_change', channel=0, control=64, value=0, time=2),\n",
      "    Message('note_on', channel=0, note=43, velocity=0, time=6),\n",
      "    Message('note_on', channel=0, note=79, velocity=0, time=15),\n",
      "    Message('note_on', channel=0, note=36, velocity=27, time=35),\n",
      "    Message('control_change', channel=0, control=64, value=127, time=65),\n",
      "    Message('note_on', channel=0, note=43, velocity=26, time=1),\n",
      "    Message('note_on', channel=0, note=48, velocity=31, time=110),\n",
      "    Message('note_on', channel=0, note=64, velocity=46, time=39),\n",
      "    Message('note_on', channel=0, note=72, velocity=36, time=30),\n",
      "    Message('note_on', channel=0, note=79, velocity=42, time=1),\n",
      "    Message('note_on', channel=0, note=67, velocity=33, time=4),\n",
      "    Message('note_on', channel=0, note=55, velocity=31, time=7),\n",
      "    Message('note_on', channel=0, note=36, velocity=0, time=1214),\n",
      "    Message('note_on', channel=0, note=36, velocity=34, time=9),\n",
      "    Message('note_on', channel=0, note=67, velocity=0, time=65),\n",
      "    Message('note_on', channel=0, note=55, velocity=0, time=2),\n",
      "    Message('note_on', channel=0, note=43, velocity=0, time=0),\n",
      "    Message('note_on', channel=0, note=64, velocity=0, time=1),\n",
      "    Message('control_change', channel=0, control=64, value=0, time=0),\n",
      "    Message('note_on', channel=0, note=76, velocity=0, time=2),\n",
      "    Message('note_on', channel=0, note=72, velocity=0, time=0),\n",
      "    Message('note_on', channel=0, note=43, velocity=34, time=3),\n",
      "    Message('note_on', channel=0, note=79, velocity=0, time=18),\n",
      "    Message('note_on', channel=0, note=48, velocity=0, time=7),\n",
      "    Message('note_on', channel=0, note=79, velocity=44, time=75),\n",
      "    Message('note_on', channel=0, note=74, velocity=44, time=2),\n",
      "    Message('note_on', channel=0, note=71, velocity=35, time=20),\n",
      "    Message('note_on', channel=0, note=67, velocity=37, time=3),\n",
      "    Message('note_on', channel=0, note=65, velocity=27, time=4),\n",
      "    Message('note_on', channel=0, note=55, velocity=43, time=7),\n",
      "    Message('control_change', channel=0, control=64, value=127, time=158),\n",
      "    Message('note_on', channel=0, note=36, velocity=0, time=445),\n",
      "    Message('note_on', channel=0, note=36, velocity=29, time=11),\n",
      "    Message('note_on', channel=0, note=43, velocity=0, time=66),\n",
      "    Message('note_on', channel=0, note=43, velocity=28, time=10),\n",
      "    Message('note_on', channel=0, note=79, velocity=0, time=52),\n",
      "    Message('note_on', channel=0, note=79, velocity=47, time=6),\n",
      "    Message('note_on', channel=0, note=67, velocity=0, time=1),\n",
      "    Message('note_on', channel=0, note=76, velocity=43, time=6),\n",
      "    Message('note_on', channel=0, note=71, velocity=0, time=2),\n",
      "    Message('note_on', channel=0, note=67, velocity=36, time=4),\n",
      "    Message('note_on', channel=0, note=71, velocity=37, time=3),\n",
      "    Message('note_on', channel=0, note=55, velocity=0, time=8),\n",
      "    Message('note_on', channel=0, note=65, velocity=0, time=0),\n",
      "    Message('note_on', channel=0, note=65, velocity=28, time=4),\n",
      "    Message('note_on', channel=0, note=55, velocity=38, time=2),\n",
      "    Message('note_on', channel=0, note=43, velocity=0, time=117),\n",
      "    Message('note_on', channel=0, note=43, velocity=21, time=10),\n",
      "    Message('note_on', channel=0, note=36, velocity=0, time=121),\n",
      "    Message('note_on', channel=0, note=36, velocity=33, time=4),\n",
      "    Message('note_on', channel=0, note=43, velocity=0, time=80),\n",
      "    Message('note_on', channel=0, note=43, velocity=26, time=8),\n",
      "    Message('note_on', channel=0, note=79, velocity=0, time=46),\n",
      "    Message('note_on', channel=0, note=79, velocity=52, time=6),\n",
      "    Message('note_on', channel=0, note=71, velocity=0, time=2),\n",
      "    Message('note_on', channel=0, note=77, velocity=50, time=1),\n",
      "    Message('note_on', channel=0, note=48, velocity=23, time=4),\n",
      "    Message('note_on', channel=0, note=71, velocity=38, time=1),\n",
      "    Message('note_on', channel=0, note=65, velocity=0, time=1),\n",
      "    Message('note_on', channel=0, note=65, velocity=32, time=5),\n",
      "    Message('note_on', channel=0, note=67, velocity=0, time=3),\n",
      "    Message('note_on', channel=0, note=67, velocity=34, time=6),\n",
      "    Message('note_on', channel=0, note=55, velocity=0, time=2),\n",
      "    Message('note_on', channel=0, note=55, velocity=37, time=4),\n",
      "    Message('note_on', channel=0, note=36, velocity=0, time=226),\n",
      "    Message('note_on', channel=0, note=36, velocity=33, time=10),\n",
      "    Message('note_on', channel=0, note=43, velocity=0, time=67),\n",
      "    Message('note_on', channel=0, note=43, velocity=31, time=4),\n",
      "    Message('note_on', channel=0, note=48, velocity=0, time=57),\n",
      "    Message('control_change', channel=0, control=64, value=0, time=2),\n",
      "    Message('note_on', channel=0, note=65, velocity=0, time=0),\n",
      "    Message('note_on', channel=0, note=55, velocity=0, time=2),\n",
      "    Message('note_on', channel=0, note=74, velocity=0, time=0),\n",
      "    Message('note_on', channel=0, note=79, velocity=0, time=1),\n",
      "    Message('note_on', channel=0, note=48, velocity=29, time=0),\n",
      "    Message('note_on', channel=0, note=77, velocity=0, time=18),\n",
      "    Message('note_on', channel=0, note=64, velocity=46, time=5),\n",
      "    Message('note_on', channel=0, note=71, velocity=0, time=11),\n",
      "    Message('note_on', channel=0, note=43, velocity=0, time=15),\n",
      "    Message('note_on', channel=0, note=76, velocity=0, time=0),\n",
      "    Message('note_on', channel=0, note=72, velocity=41, time=2),\n",
      "    Message('note_on', channel=0, note=76, velocity=45, time=2),\n",
      "    Message('note_on', channel=0, note=79, velocity=52, time=1),\n",
      "    Message('note_on', channel=0, note=43, velocity=29, time=5),\n",
      "    Message('control_change', channel=0, control=64, value=127, time=198),\n",
      "    Message('note_on', channel=0, note=67, velocity=0, time=430),\n",
      "    Message('note_on', channel=0, note=64, velocity=0, time=207),\n",
      "    Message('note_on', channel=0, note=36, velocity=0, time=8),\n",
      "    Message('note_on', channel=0, note=43, velocity=0, time=0),\n",
      "    Message('note_on', channel=0, note=67, velocity=43, time=1),\n",
      "    Message('note_on', channel=0, note=64, velocity=42, time=1),\n",
      "    Message('note_on', channel=0, note=60, velocity=32, time=2),\n",
      "    Message('note_on', channel=0, note=43, velocity=28, time=0),\n",
      "    Message('note_on', channel=0, note=36, velocity=28, time=0),\n",
      "    Message('note_on', channel=0, note=52, velocity=32, time=1),\n",
      "    Message('note_on', channel=0, note=55, velocity=33, time=0),\n",
      "    Message('control_change', channel=0, control=64, value=0, time=21),\n",
      "    Message('control_change', channel=0, control=64, value=127, time=43),\n",
      "    Message('note_on', channel=0, note=79, velocity=0, time=130),\n",
      "    Message('note_on', channel=0, note=60, velocity=0, time=753),\n",
      "    Message('note_on', channel=0, note=72, velocity=0, time=0),\n",
      "    Message('note_on', channel=0, note=72, velocity=48, time=5),\n",
      "    Message('note_on', channel=0, note=57, velocity=38, time=1),\n",
      "    Message('note_on', channel=0, note=64, velocity=0, time=2),\n",
      "    Message('note_on', channel=0, note=60, velocity=36, time=2),\n",
      "    Message('note_on', channel=0, note=64, velocity=39, time=2),\n",
      "    Message('note_on', channel=0, note=69, velocity=40, time=1),\n",
      "    Message('note_on', channel=0, note=52, velocity=0, time=2),\n",
      "    Message('note_on', channel=0, note=57, velocity=0, time=0),\n",
      "    Message('note_on', channel=0, note=52, velocity=33, time=5),\n",
      "    Message('note_on', channel=0, note=45, velocity=35, time=8),\n",
      "    Message('note_on', channel=0, note=36, velocity=0, time=11),\n",
      "    Message('note_on', channel=0, note=67, velocity=0, time=2),\n",
      "    Message('note_on', channel=0, note=55, velocity=0, time=1),\n",
      "    Message('note_on', channel=0, note=43, velocity=0, time=0),\n",
      "    Message('control_change', channel=0, control=64, value=0, time=1),\n",
      "    Message('note_on', channel=0, note=76, velocity=0, time=0),\n",
      "    Message('note_on', channel=0, note=48, velocity=0, time=95),\n",
      "    Message('control_change', channel=0, control=64, value=127, time=62),\n",
      "    Message('note_on', channel=0, note=43, velocity=41, time=574),\n",
      "    Message('note_on', channel=0, note=60, velocity=0, time=109),\n",
      "    Message('note_on', channel=0, note=60, velocity=52, time=5),\n",
      "    Message('note_on', channel=0, note=52, velocity=0, time=3),\n",
      "    Message('note_on', channel=0, note=64, velocity=0, time=8),\n",
      "    Message('note_on', channel=0, note=72, velocity=0, time=0),\n",
      "    Message('note_on', channel=0, note=52, velocity=43, time=3),\n",
      "    Message('note_on', channel=0, note=72, velocity=50, time=1),\n",
      "    Message('note_on', channel=0, note=76, velocity=59, time=4),\n",
      "    Message('note_on', channel=0, note=64, velocity=51, time=2),\n",
      "    Message('note_on', channel=0, note=67, velocity=43, time=4),\n",
      "    Message('control_change', channel=0, control=64, value=0, time=27),\n",
      "    Message('note_on', channel=0, note=45, velocity=0, time=3),\n",
      "    Message('note_on', channel=0, note=69, velocity=0, time=1),\n",
      "    Message('control_change', channel=0, control=64, value=127, time=162),\n",
      "    Message('note_on', channel=0, note=76, velocity=0, time=822),\n",
      "    Message('note_on', channel=0, note=79, velocity=65, time=6),\n",
      "    Message('note_on', channel=0, note=43, velocity=0, time=1),\n",
      "    Message('note_on', channel=0, note=67, velocity=0, time=0),\n",
      "    Message('note_on', channel=0, note=72, velocity=0, time=0),\n",
      "    Message('note_on', channel=0, note=76, velocity=54, time=4),\n",
      "    Message('note_on', channel=0, note=72, velocity=54, time=1),\n",
      "    Message('note_on', channel=0, note=31, velocity=44, time=0),\n",
      "    Message('note_on', channel=0, note=43, velocity=39, time=3),\n",
      "    Message('note_on', channel=0, note=67, velocity=41, time=4),\n",
      "    Message('control_change', channel=0, control=64, value=0, time=29),\n",
      "    Message('note_on', channel=0, note=52, velocity=0, time=13),\n",
      "    Message('note_on', channel=0, note=60, velocity=0, time=0),\n",
      "    Message('note_on', channel=0, note=64, velocity=0, time=8),\n",
      "    Message('control_change', channel=0, control=64, value=127, time=146),\n",
      "    Message('note_on', channel=0, note=66, velocity=39, time=357),\n",
      "    Message('note_on', channel=0, note=54, velocity=39, time=5),\n",
      "    Message('note_on', channel=0, note=42, velocity=29, time=30),\n",
      "    Message('note_on', channel=0, note=30, velocity=27, time=4),\n",
      "    Message('note_on', channel=0, note=67, velocity=0, time=88),\n",
      "    Message('note_on', channel=0, note=67, velocity=49, time=7),\n",
      "    Message('note_on', channel=0, note=30, velocity=0, time=16),\n",
      "    Message('note_on', channel=0, note=31, velocity=0, time=0),\n",
      "    Message('note_on', channel=0, note=43, velocity=0, time=0),\n",
      "    Message('note_on', channel=0, note=43, velocity=44, time=5),\n",
      "    Message('note_on', channel=0, note=55, velocity=38, time=0),\n",
      "    Message('note_on', channel=0, note=31, velocity=43, time=4),\n",
      "    Message('note_on', channel=0, note=67, velocity=0, time=75),\n",
      "    Message('note_on', channel=0, note=67, velocity=54, time=11),\n",
      "    Message('note_on', channel=0, note=31, velocity=0, time=20),\n",
      "    Message('note_on', channel=0, note=43, velocity=0, time=0),\n",
      "    Message('note_on', channel=0, note=55, velocity=0, time=0),\n",
      "    Message('note_on', channel=0, note=55, velocity=42, time=5),\n",
      "    Message('note_on', channel=0, note=43, velocity=48, time=1),\n",
      "    Message('note_on', channel=0, note=31, velocity=41, time=2),\n",
      "    Message('note_on', channel=0, note=31, velocity=0, time=92),\n",
      "    Message('note_on', channel=0, note=43, velocity=0, time=0),\n",
      "    Message('note_on', channel=0, note=55, velocity=0, time=0),\n",
      "    Message('note_on', channel=0, note=67, velocity=0, time=0),\n",
      "    Message('note_on', channel=0, note=67, velocity=56, time=4),\n",
      "    Message('note_on', channel=0, note=31, velocity=43, time=5),\n",
      "    Message('note_on', channel=0, note=43, velocity=47, time=1),\n",
      "    Message('note_on', channel=0, note=55, velocity=54, time=0),\n",
      "    Message('note_on', channel=0, note=68, velocity=63, time=105),\n",
      "    Message('note_on', channel=0, note=32, velocity=50, time=12),\n",
      "    Message('note_on', channel=0, note=56, velocity=53, time=1),\n",
      "    Message('note_on', channel=0, note=44, velocity=51, time=4),\n",
      "    Message('note_on', channel=0, note=32, velocity=0, time=83),\n",
      "    Message('note_on', channel=0, note=56, velocity=0, time=0),\n",
      "    Message('note_on', channel=0, note=68, velocity=0, time=0),\n",
      "    Message('note_on', channel=0, note=44, velocity=0, time=7),\n",
      "    Message('note_on', channel=0, note=56, velocity=52, time=0),\n",
      "    Message('note_on', channel=0, note=32, velocity=49, time=3),\n",
      "    Message('note_on', channel=0, note=68, velocity=57, time=0),\n",
      "    Message('note_on', channel=0, note=44, velocity=49, time=2),\n",
      "    Message('note_on', channel=0, note=32, velocity=0, time=95),\n",
      "    Message('note_on', channel=0, note=44, velocity=0, time=0),\n",
      "    Message('note_on', channel=0, note=56, velocity=0, time=0),\n",
      "    Message('note_on', channel=0, note=68, velocity=0, time=0),\n",
      "    Message('note_on', channel=0, note=68, velocity=52, time=5),\n",
      "    Message('note_on', channel=0, note=32, velocity=45, time=4),\n",
      "    Message('note_on', channel=0, note=44, velocity=49, time=0),\n",
      "    Message('note_on', channel=0, note=56, velocity=49, time=1),\n",
      "    Message('note_on', channel=0, note=31, velocity=0, time=105),\n",
      "    Message('note_on', channel=0, note=43, velocity=0, time=0),\n",
      "    Message('note_on', channel=0, note=67, velocity=0, time=0),\n",
      "    Message('note_on', channel=0, note=67, velocity=45, time=6),\n",
      "    Message('note_on', channel=0, note=43, velocity=51, time=0),\n",
      "    Message('note_on', channel=0, note=31, velocity=47, time=5),\n",
      "    Message('note_on', channel=0, note=67, velocity=0, time=97),\n",
      "    Message('note_on', channel=0, note=67, velocity=58, time=4),\n",
      "    Message('note_on', channel=0, note=31, velocity=0, time=4),\n",
      "    Message('note_on', channel=0, note=43, velocity=0, time=0),\n",
      "    Message('note_on', channel=0, note=31, velocity=49, time=6),\n",
      "    Message('note_on', channel=0, note=55, velocity=0, time=1),\n",
      "    Message('note_on', channel=0, note=43, velocity=51, time=3),\n",
      "    Message('note_on', channel=0, note=55, velocity=43, time=3),\n",
      "    Message('note_on', channel=0, note=42, velocity=0, time=171),\n",
      "    Message('note_on', channel=0, note=43, velocity=0, time=38),\n",
      "    Message('note_on', channel=0, note=43, velocity=43, time=4),\n",
      "    Message('note_on', channel=0, note=54, velocity=0, time=35),\n",
      "    Message('note_on', channel=0, note=67, velocity=0, time=7),\n",
      "    Message('note_on', channel=0, note=76, velocity=0, time=0),\n",
      "    Message('note_on', channel=0, note=67, velocity=49, time=6),\n",
      "    Message('note_on', channel=0, note=76, velocity=66, time=2),\n",
      "    Message('note_on', channel=0, note=31, velocity=0, time=5),\n",
      "    Message('note_on', channel=0, note=32, velocity=0, time=0),\n",
      "    Message('note_on', channel=0, note=64, velocity=57, time=1),\n",
      "    Message('note_on', channel=0, note=68, velocity=0, time=0),\n",
      "    Message('note_on', channel=0, note=56, velocity=0, time=4),\n",
      "    Message('note_on', channel=0, note=79, velocity=0, time=0),\n",
      "    Message('note_on', channel=0, note=55, velocity=0, time=0),\n",
      "    Message('note_on', channel=0, note=44, velocity=0, time=0),\n",
      "    Message('note_on', channel=0, note=66, velocity=0, time=5),\n",
      "    Message('note_on', channel=0, note=72, velocity=0, time=0),\n",
      "    Message('control_change', channel=0, control=64, value=0, time=8),\n",
      "    Message('note_on', channel=0, note=60, velocity=45, time=43),\n",
      "    Message('note_on', channel=0, note=59, velocity=41, time=2),\n",
      "    Message('control_change', channel=0, control=64, value=127, time=124),\n",
      "    Message('note_on', channel=0, note=59, velocity=0, time=246),\n",
      "    Message('note_on', channel=0, note=43, velocity=0, time=491),\n",
      "    Message('note_on', channel=0, note=43, velocity=32, time=12),\n",
      "    Message('note_on', channel=0, note=67, velocity=0, time=57),\n",
      "    Message('note_on', channel=0, note=74, velocity=61, time=4),\n",
      "    Message('note_on', channel=0, note=59, velocity=53, time=6),\n",
      "    Message('note_on', channel=0, note=62, velocity=53, time=1),\n",
      "    Message('note_on', channel=0, note=71, velocity=54, time=1),\n",
      "    Message('note_on', channel=0, note=67, velocity=43, time=0),\n",
      "    Message('note_on', channel=0, note=65, velocity=41, time=1),\n",
      "    Message('control_change', channel=0, control=64, value=0, time=32),\n",
      "    Message('note_on', channel=0, note=64, velocity=0, time=1),\n",
      "    Message('note_on', channel=0, note=60, velocity=0, time=3),\n",
      "    Message('note_on', channel=0, note=76, velocity=0, time=13),\n",
      "    Message('control_change', channel=0, control=64, value=127, time=77),\n",
      "    Message('note_on', channel=0, note=59, velocity=0, time=368),\n",
      "    Message('note_on', channel=0, note=65, velocity=0, time=0),\n",
      "    Message('note_on', channel=0, note=67, velocity=0, time=0),\n",
      "    Message('note_on', channel=0, note=59, velocity=52, time=4),\n",
      "    Message('note_on', channel=0, note=67, velocity=58, time=1),\n",
      "    Message('note_on', channel=0, note=43, velocity=0, time=3),\n",
      "    Message('note_on', channel=0, note=65, velocity=49, time=3),\n",
      "    Message('note_on', channel=0, note=55, velocity=46, time=1),\n",
      "    Message('note_on', channel=0, note=31, velocity=49, time=2),\n",
      "    Message('note_on', channel=0, note=43, velocity=48, time=0),\n",
      "    Message('control_change', channel=0, control=64, value=0, time=53),\n",
      "    Message('control_change', channel=0, control=64, value=127, time=33),\n",
      "    Message('note_on', channel=0, note=43, velocity=0, time=323),\n",
      "    Message('note_on', channel=0, note=43, velocity=38, time=8),\n",
      "    Message('note_on', channel=0, note=53, velocity=39, time=85),\n",
      "    Message('note_on', channel=0, note=43, velocity=0, time=14),\n",
      "    Message('note_on', channel=0, note=74, velocity=0, time=0),\n",
      "    Message('note_on', channel=0, note=59, velocity=0, time=8),\n",
      "    Message('note_on', channel=0, note=62, velocity=0, time=0),\n",
      "    Message('note_on', channel=0, note=67, velocity=0, time=0),\n",
      "    Message('note_on', channel=0, note=74, velocity=69, time=2),\n",
      "    Message('note_on', channel=0, note=43, velocity=40, time=1),\n",
      "    Message('note_on', channel=0, note=67, velocity=54, time=1),\n",
      "    Message('note_on', channel=0, note=65, velocity=0, time=4),\n",
      "    Message('note_on', channel=0, note=62, velocity=56, time=2),\n",
      "    Message('note_on', channel=0, note=59, velocity=57, time=1),\n",
      "    Message('note_on', channel=0, note=50, velocity=38, time=0),\n",
      "    Message('note_on', channel=0, note=65, velocity=47, time=4),\n",
      "    Message('control_change', channel=0, control=64, value=0, time=26),\n",
      "    Message('control_change', channel=0, control=64, value=127, time=90),\n",
      "    Message('note_on', channel=0, note=42, velocity=39, time=427),\n",
      "    Message('note_on', channel=0, note=54, velocity=41, time=0),\n",
      "    Message('note_on', channel=0, note=30, velocity=40, time=1),\n",
      "    Message('note_on', channel=0, note=66, velocity=38, time=0),\n",
      "    Message('note_on', channel=0, note=54, velocity=0, time=9),\n",
      "    Message('note_on', channel=0, note=31, velocity=0, time=131),\n",
      "    Message('note_on', channel=0, note=43, velocity=0, time=0),\n",
      "    Message('note_on', channel=0, note=55, velocity=0, time=8),\n",
      "    Message('note_on', channel=0, note=67, velocity=0, time=0),\n",
      "    Message('note_on', channel=0, note=43, velocity=44, time=0),\n",
      "    Message('note_on', channel=0, note=31, velocity=45, time=2),\n",
      "    Message('note_on', channel=0, note=67, velocity=39, time=3),\n",
      "    Message('note_on', channel=0, note=55, velocity=42, time=3),\n",
      "    Message('note_on', channel=0, note=31, velocity=0, time=99),\n",
      "    Message('note_on', channel=0, note=43, velocity=0, time=0),\n",
      "    Message('note_on', channel=0, note=67, velocity=0, time=0),\n",
      "    Message('note_on', channel=0, note=55, velocity=0, time=8),\n",
      "    Message('note_on', channel=0, note=31, velocity=51, time=0),\n",
      "    Message('note_on', channel=0, note=43, velocity=47, time=1),\n",
      "    Message('note_on', channel=0, note=67, velocity=56, time=2),\n",
      "    Message('note_on', channel=0, note=55, velocity=44, time=7),\n",
      "    Message('note_on', channel=0, note=68, velocity=60, time=112),\n",
      "    Message('note_on', channel=0, note=44, velocity=54, time=7),\n",
      "    Message('note_on', channel=0, note=32, velocity=53, time=0),\n",
      "    Message('note_on', channel=0, note=56, velocity=51, time=2),\n",
      "    Message('note_on', channel=0, note=32, velocity=0, time=99),\n",
      "    Message('note_on', channel=0, note=44, velocity=0, time=8),\n",
      "    Message('note_on', channel=0, note=32, velocity=54, time=2),\n",
      "    Message('note_on', channel=0, note=69, velocity=64, time=1),\n",
      "    Message('note_on', channel=0, note=44, velocity=52, time=5),\n",
      "    Message('note_on', channel=0, note=57, velocity=52, time=10),\n",
      "    Message('note_on', channel=0, note=69, velocity=0, time=82),\n",
      "    Message('note_on', channel=0, note=33, velocity=60, time=3),\n",
      "    Message('note_on', channel=0, note=45, velocity=55, time=2),\n",
      "    Message('note_on', channel=0, note=57, velocity=0, time=2),\n",
      "    Message('note_on', channel=0, note=69, velocity=66, time=4),\n",
      "    Message('note_on', channel=0, note=57, velocity=59, time=8),\n",
      "    Message('note_on', channel=0, note=46, velocity=60, time=97),\n",
      "    Message('note_on', channel=0, note=58, velocity=63, time=2),\n",
      "    Message('note_on', channel=0, note=70, velocity=64, time=1),\n",
      "    Message('note_on', channel=0, note=34, velocity=58, time=0),\n",
      "    Message('note_on', channel=0, note=47, velocity=60, time=102),\n",
      "    Message('note_on', channel=0, note=71, velocity=0, time=1),\n",
      "    Message('note_on', channel=0, note=35, velocity=59, time=2),\n",
      "    Message('note_on', channel=0, note=59, velocity=0, time=6),\n",
      "    Message('note_on', channel=0, note=69, velocity=0, time=0),\n",
      "    Message('note_on', channel=0, note=71, velocity=56, time=3),\n",
      "    Message('note_on', channel=0, note=59, velocity=54, time=7),\n",
      "    Message('note_on', channel=0, note=69, velocity=57, time=0),\n",
      "    Message('note_on', channel=0, note=35, velocity=0, time=90),\n",
      "    Message('note_on', channel=0, note=47, velocity=0, time=0),\n",
      "    Message('note_on', channel=0, note=59, velocity=0, time=0),\n",
      "    Message('note_on', channel=0, note=71, velocity=0, time=0),\n",
      "    Message('note_on', channel=0, note=47, velocity=61, time=6),\n",
      "    Message('note_on', channel=0, note=71, velocity=66, time=0),\n",
      "    Message('note_on', channel=0, note=35, velocity=55, time=3),\n",
      "    Message('note_on', channel=0, note=59, velocity=60, time=1),\n",
      "    Message('note_on', channel=0, note=30, velocity=0, time=113),\n",
      "    Message('note_on', channel=0, note=48, velocity=60, time=72),\n",
      "    Message('note_on', channel=0, note=72, velocity=70, time=0),\n",
      "    Message('note_on', channel=0, note=36, velocity=54, time=1),\n",
      "    Message('note_on', channel=0, note=60, velocity=59, time=4),\n",
      "    Message('note_on', channel=0, note=64, velocity=54, time=3),\n",
      "    Message('note_on', channel=0, note=62, velocity=0, time=11),\n",
      "    Message('note_on', channel=0, note=58, velocity=0, time=1),\n",
      "    Message('note_on', channel=0, note=34, velocity=0, time=0),\n",
      "    Message('note_on', channel=0, note=67, velocity=0, time=0),\n",
      "    Message('note_on', channel=0, note=53, velocity=0, time=0),\n",
      "    Message('note_on', channel=0, note=74, velocity=0, time=0),\n",
      "    Message('note_on', channel=0, note=69, velocity=0, time=0),\n",
      "    Message('note_on', channel=0, note=50, velocity=0, time=0),\n",
      "    Message('note_on', channel=0, note=47, velocity=0, time=0),\n",
      "    Message('note_on', channel=0, note=70, velocity=0, time=1),\n",
      "    Message('note_on', channel=0, note=59, velocity=0, time=0),\n",
      "    Message('note_on', channel=0, note=71, velocity=0, time=0),\n",
      "    Message('note_on', channel=0, note=33, velocity=0, time=0),\n",
      "    Message('note_on', channel=0, note=35, velocity=0, time=0),\n",
      "    Message('note_on', channel=0, note=56, velocity=0, time=0),\n",
      "    Message('note_on', channel=0, note=46, velocity=0, time=1),\n",
      "    Message('note_on', channel=0, note=45, velocity=0, time=0),\n",
      "    Message('note_on', channel=0, note=57, velocity=0, time=0),\n",
      "    Message('note_on', channel=0, note=43, velocity=0, time=1),\n",
      "    Message('note_on', channel=0, note=31, velocity=0, time=0),\n",
      "    Message('control_change', channel=0, control=64, value=0, time=0),\n",
      "    Message('note_on', channel=0, note=32, velocity=0, time=0),\n",
      "    Message('note_on', channel=0, note=44, velocity=0, time=1),\n",
      "    Message('note_on', channel=0, note=66, velocity=0, time=4),\n",
      "    Message('note_on', channel=0, note=42, velocity=0, time=7),\n",
      "    Message('note_on', channel=0, note=68, velocity=0, time=0),\n",
      "    Message('note_on', channel=0, note=55, velocity=0, time=8),\n",
      "    Message('note_on', channel=0, note=65, velocity=0, time=0),\n",
      "    Message('control_change', channel=0, control=64, value=127, time=276),\n",
      "    Message('note_on', channel=0, note=41, velocity=41, time=1070),\n",
      "    Message('note_on', channel=0, note=48, velocity=0, time=52),\n",
      "    Message('note_on', channel=0, note=48, velocity=46, time=4),\n",
      "    Message('note_on', channel=0, note=53, velocity=40, time=47),\n",
      "    Message('note_on', channel=0, note=72, velocity=0, time=33),\n",
      "    Message('note_on', channel=0, note=81, velocity=79, time=7),\n",
      "    Message('note_on', channel=0, note=60, velocity=0, time=1),\n",
      "    Message('control_change', channel=0, control=64, value=0, time=1),\n",
      "    Message('note_on', channel=0, note=69, velocity=73, time=1),\n",
      "    Message('note_on', channel=0, note=72, velocity=77, time=0),\n",
      "    Message('note_on', channel=0, note=60, velocity=66, time=9),\n",
      "    Message('note_on', channel=0, note=64, velocity=0, time=4),\n",
      "    Message('note_on', channel=0, note=36, velocity=0, time=8),\n",
      "    Message('control_change', channel=0, control=64, value=127, time=46),\n",
      "    Message('note_on', channel=0, note=47, velocity=36, time=418),\n",
      "    Message('note_on', channel=0, note=71, velocity=48, time=1),\n",
      "    Message('note_on', channel=0, note=35, velocity=36, time=0),\n",
      "    Message('note_on', channel=0, note=59, velocity=42, time=4),\n",
      "    Message('note_on', channel=0, note=48, velocity=0, time=161),\n",
      "    Message('note_on', channel=0, note=60, velocity=0, time=0),\n",
      "    Message('note_on', channel=0, note=72, velocity=0, time=0),\n",
      "    Message('note_on', channel=0, note=72, velocity=46, time=4),\n",
      "    Message('note_on', channel=0, note=48, velocity=45, time=0),\n",
      "    Message('note_on', channel=0, note=60, velocity=46, time=1),\n",
      "    Message('note_on', channel=0, note=36, velocity=39, time=2),\n",
      "    Message('note_on', channel=0, note=69, velocity=0, time=100),\n",
      "    Message('note_on', channel=0, note=72, velocity=0, time=0),\n",
      "    Message('note_on', channel=0, note=69, velocity=42, time=6),\n",
      "    Message('note_on', channel=0, note=72, velocity=49, time=0),\n",
      "    Message('note_on', channel=0, note=48, velocity=0, time=17),\n",
      "    Message('note_on', channel=0, note=60, velocity=0, time=0),\n",
      "    Message('note_on', channel=0, note=60, velocity=35, time=6),\n",
      "    Message('note_on', channel=0, note=36, velocity=0, time=2),\n",
      "    Message('note_on', channel=0, note=48, velocity=38, time=4),\n",
      "    Message('note_on', channel=0, note=36, velocity=29, time=0),\n",
      "    Message('note_on', channel=0, note=36, velocity=0, time=65),\n",
      "    Message('note_on', channel=0, note=48, velocity=0, time=0),\n",
      "    Message('note_on', channel=0, note=60, velocity=0, time=0),\n",
      "    Message('note_on', channel=0, note=72, velocity=0, time=0),\n",
      "    Message('note_on', channel=0, note=72, velocity=63, time=5),\n",
      "    Message('note_on', channel=0, note=48, velocity=54, time=0),\n",
      "    Message('note_on', channel=0, note=36, velocity=44, time=2),\n",
      "    Message('note_on', channel=0, note=60, velocity=49, time=3),\n",
      "    Message('note_on', channel=0, note=73, velocity=68, time=102),\n",
      "    Message('note_on', channel=0, note=61, velocity=51, time=8),\n",
      "    Message('note_on', channel=0, note=37, velocity=51, time=1),\n",
      "    Message('note_on', channel=0, note=49, velocity=55, time=0),\n",
      "    Message('note_on', channel=0, note=61, velocity=0, time=94),\n",
      "    Message('note_on', channel=0, note=73, velocity=0, time=0),\n",
      "    Message('note_on', channel=0, note=73, velocity=61, time=5),\n",
      "    Message('note_on', channel=0, note=37, velocity=0, time=3),\n",
      "    Message('note_on', channel=0, note=49, velocity=0, time=0),\n",
      "    Message('note_on', channel=0, note=61, velocity=58, time=3),\n",
      "    Message('note_on', channel=0, note=49, velocity=54, time=4),\n",
      "    Message('note_on', channel=0, note=37, velocity=49, time=2),\n",
      "    Message('note_on', channel=0, note=61, velocity=0, time=68),\n",
      "    Message('note_on', channel=0, note=73, velocity=0, time=0),\n",
      "    Message('note_on', channel=0, note=73, velocity=63, time=8),\n",
      "    Message('note_on', channel=0, note=61, velocity=56, time=2),\n",
      "    Message('note_on', channel=0, note=74, velocity=74, time=113),\n",
      "    Message('note_on', channel=0, note=62, velocity=71, time=2),\n",
      "    Message('note_on', channel=0, note=50, velocity=64, time=2),\n",
      "    Message('note_on', channel=0, note=69, velocity=0, time=2),\n",
      "    Message('note_on', channel=0, note=38, velocity=57, time=5),\n",
      "    Message('note_on', channel=0, note=75, velocity=73, time=93),\n",
      "    Message('note_on', channel=0, note=51, velocity=61, time=5),\n",
      "    Message('note_on', channel=0, note=39, velocity=51, time=2),\n",
      "    Message('note_on', channel=0, note=63, velocity=61, time=1),\n",
      "    Message('note_on', channel=0, note=60, velocity=0, time=202),\n",
      "    Message('note_on', channel=0, note=63, velocity=0, time=0),\n",
      "    Message('note_on', channel=0, note=72, velocity=0, time=0),\n",
      "    Message('note_on', channel=0, note=75, velocity=0, time=0),\n",
      "    Message('note_on', channel=0, note=79, velocity=81, time=3),\n",
      "    Message('note_on', channel=0, note=75, velocity=71, time=1),\n",
      "    Message('note_on', channel=0, note=72, velocity=70, time=2),\n",
      "    Message('note_on', channel=0, note=67, velocity=70, time=0),\n",
      "    Message('note_on', channel=0, note=51, velocity=0, time=2),\n",
      "    Message('note_on', channel=0, note=60, velocity=69, time=2),\n",
      "    Message('note_on', channel=0, note=63, velocity=73, time=2),\n",
      "    Message('note_on', channel=0, note=71, velocity=0, time=2),\n",
      "    Message('note_on', channel=0, note=47, velocity=0, time=2),\n",
      "    Message('note_on', channel=0, note=39, velocity=0, time=0),\n",
      "    Message('note_on', channel=0, note=59, velocity=0, time=1),\n",
      "    Message('note_on', channel=0, note=37, velocity=0, time=0),\n",
      "    Message('note_on', channel=0, note=73, velocity=0, time=1),\n",
      "    Message('note_on', channel=0, note=36, velocity=0, time=0),\n",
      "    Message('note_on', channel=0, note=48, velocity=0, time=0),\n",
      "    Message('control_change', channel=0, control=64, value=0, time=0),\n",
      "    Message('note_on', channel=0, note=38, velocity=0, time=0),\n",
      "    Message('note_on', channel=0, note=53, velocity=0, time=0),\n",
      "    Message('note_on', channel=0, note=62, velocity=0, time=1),\n",
      "    Message('note_on', channel=0, note=61, velocity=0, time=0),\n",
      "    Message('note_on', channel=0, note=50, velocity=0, time=0),\n",
      "    Message('note_on', channel=0, note=81, velocity=0, time=0),\n",
      "    Message('note_on', channel=0, note=51, velocity=59, time=0),\n",
      "    Message('note_on', channel=0, note=74, velocity=0, time=1),\n",
      "    Message('note_on', channel=0, note=55, velocity=60, time=1),\n",
      "    Message('note_on', channel=0, note=35, velocity=0, time=10),\n",
      "    Message('note_on', channel=0, note=41, velocity=0, time=0),\n",
      "    Message('note_on', channel=0, note=49, velocity=0, time=0),\n",
      "    Message('control_change', channel=0, control=64, value=127, time=77),\n",
      "    Message('note_on', channel=0, note=72, velocity=0, time=407),\n",
      "    Message('note_on', channel=0, note=72, velocity=46, time=7),\n",
      "    Message('note_on', channel=0, note=60, velocity=0, time=1),\n",
      "    Message('note_on', channel=0, note=48, velocity=44, time=3),\n",
      "    Message('note_on', channel=0, note=60, velocity=42, time=1),\n",
      "    Message('note_on', channel=0, note=36, velocity=37, time=0),\n",
      "    Message('note_on', channel=0, note=73, velocity=57, time=164),\n",
      "    Message('note_on', channel=0, note=61, velocity=51, time=2),\n",
      "    Message('note_on', channel=0, note=49, velocity=52, time=3),\n",
      "    Message('note_on', channel=0, note=37, velocity=47, time=0),\n",
      "    Message('note_on', channel=0, note=73, velocity=0, time=103),\n",
      "    Message('note_on', channel=0, note=37, velocity=0, time=8),\n",
      "    Message('note_on', channel=0, note=49, velocity=0, time=0),\n",
      "    Message('note_on', channel=0, note=61, velocity=0, time=0),\n",
      "    Message('note_on', channel=0, note=73, velocity=61, time=1),\n",
      "    Message('note_on', channel=0, note=61, velocity=54, time=3),\n",
      "    Message('note_on', channel=0, note=37, velocity=47, time=6),\n",
      "    Message('note_on', channel=0, note=49, velocity=50, time=1),\n",
      "    Message('note_on', channel=0, note=61, velocity=0, time=89),\n",
      "    Message('note_on', channel=0, note=73, velocity=0, time=0),\n",
      "    Message('note_on', channel=0, note=73, velocity=66, time=6),\n",
      "    Message('note_on', channel=0, note=37, velocity=0, time=1),\n",
      "    Message('note_on', channel=0, note=49, velocity=0, time=0),\n",
      "    Message('note_on', channel=0, note=61, velocity=63, time=4),\n",
      "    Message('note_on', channel=0, note=49, velocity=53, time=0),\n",
      "    Message('note_on', channel=0, note=37, velocity=50, time=5),\n",
      "    Message('note_on', channel=0, note=50, velocity=61, time=102),\n",
      "    Message('note_on', channel=0, note=74, velocity=69, time=0),\n",
      "    Message('note_on', channel=0, note=62, velocity=58, time=2),\n",
      "    Message('note_on', channel=0, note=38, velocity=50, time=5),\n",
      "    Message('note_on', channel=0, note=50, velocity=0, time=90),\n",
      "    Message('note_on', channel=0, note=62, velocity=0, time=0),\n",
      "    Message('note_on', channel=0, note=38, velocity=0, time=7),\n",
      "    Message('note_on', channel=0, note=74, velocity=0, time=0),\n",
      "    Message('note_on', channel=0, note=50, velocity=59, time=3),\n",
      "    Message('note_on', channel=0, note=62, velocity=63, time=1),\n",
      "    Message('note_on', channel=0, note=74, velocity=59, time=0),\n",
      "    Message('note_on', channel=0, note=38, velocity=51, time=3),\n",
      "    Message('note_on', channel=0, note=50, velocity=0, time=85),\n",
      "    Message('note_on', channel=0, note=38, velocity=0, time=8),\n",
      "    Message('note_on', channel=0, note=62, velocity=0, time=0),\n",
      "    Message('note_on', channel=0, note=74, velocity=0, time=0),\n",
      "    Message('note_on', channel=0, note=50, velocity=56, time=2),\n",
      "    Message('note_on', channel=0, note=38, velocity=59, time=2),\n",
      "    Message('note_on', channel=0, note=74, velocity=66, time=2),\n",
      "    Message('note_on', channel=0, note=62, velocity=59, time=1),\n",
      "    Message('note_on', channel=0, note=51, velocity=0, time=101),\n",
      "    Message('note_on', channel=0, note=75, velocity=0, time=0),\n",
      "    Message('note_on', channel=0, note=51, velocity=61, time=7),\n",
      "    Message('note_on', channel=0, note=63, velocity=0, time=0),\n",
      "    Message('note_on', channel=0, note=39, velocity=57, time=4),\n",
      "    Message('note_on', channel=0, note=75, velocity=78, time=0),\n",
      "    Message('note_on', channel=0, note=63, velocity=69, time=0),\n",
      "    Message('note_on', channel=0, note=63, velocity=0, time=150),\n",
      "    Message('note_on', channel=0, note=72, velocity=0, time=0),\n",
      "    Message('note_on', channel=0, note=81, velocity=85, time=6),\n",
      "    Message('note_on', channel=0, note=38, velocity=0, time=2),\n",
      "    Message('note_on', channel=0, note=50, velocity=0, time=0),\n",
      "    Message('note_on', channel=0, note=67, velocity=0, time=0),\n",
      "    Message('note_on', channel=0, note=75, velocity=0, time=0),\n",
      "    Message('note_on', channel=0, note=63, velocity=70, time=1),\n",
      "    Message('note_on', channel=0, note=72, velocity=82, time=1),\n",
      "    Message('note_on', channel=0, note=75, velocity=78, time=2),\n",
      "    Message('note_on', channel=0, note=67, velocity=73, time=0),\n",
      "    Message('note_on', channel=0, note=81, velocity=0, time=3),\n",
      "    Message('note_on', channel=0, note=38, velocity=63, time=4),\n",
      "    Message('note_on', channel=0, note=50, velocity=63, time=0),\n",
      "    Message('note_on', channel=0, note=37, velocity=0, time=155),\n",
      "    Message('note_on', channel=0, note=39, velocity=0, time=1),\n",
      "    Message('note_on', channel=0, note=73, velocity=0, time=1),\n",
      "    Message('note_on', channel=0, note=75, velocity=0, time=1),\n",
      "    Message('note_on', channel=0, note=63, velocity=0, time=1),\n",
      "    Message('note_on', channel=0, note=48, velocity=0, time=0),\n",
      "    Message('note_on', channel=0, note=49, velocity=0, time=0),\n",
      "    Message('note_on', channel=0, note=67, velocity=0, time=0),\n",
      "    Message('note_on', channel=0, note=55, velocity=0, time=0),\n",
      "    Message('note_on', channel=0, note=61, velocity=0, time=0),\n",
      "    Message('note_on', channel=0, note=79, velocity=0, time=2),\n",
      "    Message('control_change', channel=0, control=64, value=0, time=0),\n",
      "    Message('note_on', channel=0, note=36, velocity=0, time=4),\n",
      "    Message('note_on', channel=0, note=62, velocity=0, time=0),\n",
      "    Message('note_on', channel=0, note=72, velocity=0, time=0),\n",
      "    Message('note_on', channel=0, note=74, velocity=0, time=0),\n",
      "    Message('note_on', channel=0, note=78, velocity=82, time=4),\n",
      "    Message('note_on', channel=0, note=74, velocity=75, time=1),\n",
      "    Message('note_on', channel=0, note=38, velocity=0, time=3),\n",
      "    Message('note_on', channel=0, note=50, velocity=0, time=0),\n",
      "    Message('note_on', channel=0, note=51, velocity=0, time=0),\n",
      "    Message('note_on', channel=0, note=60, velocity=0, time=0),\n",
      "    Message('note_on', channel=0, note=72, velocity=71, time=1),\n",
      "    Message('note_on', channel=0, note=66, velocity=72, time=2),\n",
      "    Message('note_on', channel=0, note=62, velocity=76, time=0),\n",
      "    Message('note_on', channel=0, note=50, velocity=67, time=2),\n",
      "    Message('note_on', channel=0, note=60, velocity=60, time=3),\n",
      "    Message('note_on', channel=0, note=38, velocity=57, time=3),\n",
      "    Message('note_on', channel=0, note=38, velocity=0, time=81),\n",
      "    Message('control_change', channel=0, control=64, value=127, time=0),\n",
      "    Message('note_on', channel=0, note=73, velocity=43, time=388),\n",
      "    Message('note_on', channel=0, note=61, velocity=43, time=0),\n",
      "    Message('note_on', channel=0, note=49, velocity=45, time=1),\n",
      "    Message('note_on', channel=0, note=37, velocity=33, time=7),\n",
      "    Message('note_on', channel=0, note=37, velocity=0, time=11),\n",
      "    Message('note_on', channel=0, note=50, velocity=0, time=92),\n",
      "    Message('note_on', channel=0, note=62, velocity=0, time=0),\n",
      "    Message('note_on', channel=0, note=74, velocity=0, time=0),\n",
      "    Message('note_on', channel=0, note=50, velocity=48, time=4),\n",
      "    Message('note_on', channel=0, note=62, velocity=56, time=5),\n",
      "    Message('note_on', channel=0, note=74, velocity=54, time=1),\n",
      "    Message('note_on', channel=0, note=38, velocity=40, time=0),\n",
      "    Message('note_on', channel=0, note=74, velocity=0, time=98),\n",
      "    Message('note_on', channel=0, note=74, velocity=63, time=5),\n",
      "    Message('note_on', channel=0, note=62, velocity=0, time=2),\n",
      "    Message('note_on', channel=0, note=62, velocity=51, time=5),\n",
      "    Message('note_on', channel=0, note=38, velocity=0, time=3),\n",
      "    Message('note_on', channel=0, note=50, velocity=0, time=0),\n",
      "    Message('note_on', channel=0, note=50, velocity=42, time=4),\n",
      "    Message('note_on', channel=0, note=38, velocity=41, time=8),\n",
      "    Message('note_on', channel=0, note=50, velocity=0, time=88),\n",
      "    Message('note_on', channel=0, note=62, velocity=0, time=0),\n",
      "    Message('note_on', channel=0, note=74, velocity=0, time=0),\n",
      "    Message('note_on', channel=0, note=50, velocity=52, time=6),\n",
      "    Message('note_on', channel=0, note=38, velocity=0, time=2),\n",
      "    Message('note_on', channel=0, note=62, velocity=58, time=2),\n",
      "    Message('note_on', channel=0, note=74, velocity=58, time=0),\n",
      "    Message('note_on', channel=0, note=38, velocity=49, time=2),\n",
      "    Message('note_on', channel=0, note=75, velocity=67, time=110),\n",
      "    Message('note_on', channel=0, note=63, velocity=56, time=6),\n",
      "    Message('note_on', channel=0, note=51, velocity=50, time=1),\n",
      "    Message('note_on', channel=0, note=39, velocity=49, time=3),\n",
      "    Message('note_on', channel=0, note=75, velocity=0, time=83),\n",
      "    Message('note_on', channel=0, note=75, velocity=72, time=11),\n",
      "    Message('note_on', channel=0, note=39, velocity=0, time=4),\n",
      "    Message('note_on', channel=0, note=51, velocity=0, time=0),\n",
      "    Message('note_on', channel=0, note=63, velocity=0, time=0),\n",
      "    Message('note_on', channel=0, note=63, velocity=56, time=5),\n",
      "    Message('note_on', channel=0, note=39, velocity=46, time=0),\n",
      "    Message('note_on', channel=0, note=51, velocity=49, time=2),\n",
      "    Message('note_on', channel=0, note=51, velocity=0, time=78),\n",
      "    Message('note_on', channel=0, note=75, velocity=0, time=0),\n",
      "    Message('note_on', channel=0, note=39, velocity=0, time=8),\n",
      "    Message('note_on', channel=0, note=63, velocity=0, time=0),\n",
      "    Message('note_on', channel=0, note=75, velocity=71, time=1),\n",
      "    Message('note_on', channel=0, note=51, velocity=55, time=2),\n",
      "    Message('note_on', channel=0, note=63, velocity=50, time=4),\n",
      "    Message('note_on', channel=0, note=39, velocity=48, time=4),\n",
      "    Message('note_on', channel=0, note=76, velocity=75, time=93),\n",
      "    Message('note_on', channel=0, note=52, velocity=63, time=6),\n",
      "    Message('note_on', channel=0, note=64, velocity=66, time=1),\n",
      "    Message('note_on', channel=0, note=40, velocity=53, time=1),\n",
      "    Message('note_on', channel=0, note=40, velocity=0, time=87),\n",
      "    Message('note_on', channel=0, note=52, velocity=0, time=0),\n",
      "    Message('note_on', channel=0, note=64, velocity=0, time=0),\n",
      "    Message('note_on', channel=0, note=76, velocity=0, time=0),\n",
      "    Message('note_on', channel=0, note=76, velocity=63, time=6),\n",
      "    Message('note_on', channel=0, note=64, velocity=61, time=0),\n",
      "    Message('note_on', channel=0, note=52, velocity=54, time=3),\n",
      "    Message('note_on', channel=0, note=40, velocity=52, time=2),\n",
      "    Message('note_on', channel=0, note=76, velocity=0, time=81),\n",
      "    Message('note_on', channel=0, note=76, velocity=70, time=9),\n",
      "    Message('note_on', channel=0, note=64, velocity=0, time=7),\n",
      "    Message('note_on', channel=0, note=64, velocity=58, time=6),\n",
      "    Message('note_on', channel=0, note=40, velocity=0, time=1),\n",
      "    Message('note_on', channel=0, note=52, velocity=0, time=0),\n",
      "    Message('note_on', channel=0, note=40, velocity=53, time=4),\n",
      "    Message('note_on', channel=0, note=52, velocity=59, time=0),\n",
      "    Message('note_on', channel=0, note=77, velocity=73, time=102),\n",
      "    Message('note_on', channel=0, note=65, velocity=59, time=6),\n",
      "    Message('note_on', channel=0, note=53, velocity=61, time=0),\n",
      "    Message('note_on', channel=0, note=41, velocity=60, time=3),\n",
      "    Message('note_on', channel=0, note=53, velocity=0, time=85),\n",
      "    Message('note_on', channel=0, note=65, velocity=0, time=0),\n",
      "    Message('note_on', channel=0, note=77, velocity=0, time=0),\n",
      "    Message('note_on', channel=0, note=77, velocity=83, time=7),\n",
      "    Message('note_on', channel=0, note=41, velocity=0, time=1),\n",
      "    Message('note_on', channel=0, note=65, velocity=68, time=2),\n",
      "    Message('note_on', channel=0, note=53, velocity=61, time=2),\n",
      "    Message('note_on', channel=0, note=41, velocity=65, time=2),\n",
      "    Message('note_on', channel=0, note=41, velocity=0, time=101),\n",
      "    Message('note_on', channel=0, note=53, velocity=0, time=0),\n",
      "    Message('note_on', channel=0, note=65, velocity=0, time=0),\n",
      "    Message('note_on', channel=0, note=77, velocity=0, time=0),\n",
      "    Message('note_on', channel=0, note=77, velocity=76, time=5),\n",
      "    Message('note_on', channel=0, note=65, velocity=65, time=1),\n",
      "    Message('note_on', channel=0, note=53, velocity=64, time=3),\n",
      "    Message('note_on', channel=0, note=41, velocity=65, time=1),\n",
      "    Message('note_on', channel=0, note=78, velocity=0, time=90),\n",
      "    Message('note_on', channel=0, note=66, velocity=0, time=8),\n",
      "    Message('note_on', channel=0, note=78, velocity=78, time=4),\n",
      "    Message('note_on', channel=0, note=66, velocity=70, time=7),\n",
      "    Message('note_on', channel=0, note=54, velocity=71, time=0),\n",
      "    Message('note_on', channel=0, note=42, velocity=63, time=0),\n",
      "    Message('note_on', channel=0, note=42, velocity=0, time=89),\n",
      "    Message('note_on', channel=0, note=54, velocity=0, time=0),\n",
      "    Message('note_on', channel=0, note=66, velocity=0, time=0),\n",
      "    Message('note_on', channel=0, note=78, velocity=0, time=0),\n",
      "    Message('note_on', channel=0, note=78, velocity=80, time=7),\n",
      "    Message('note_on', channel=0, note=54, velocity=70, time=2),\n",
      "    Message('note_on', channel=0, note=42, velocity=67, time=0),\n",
      "    Message('note_on', channel=0, note=66, velocity=70, time=2),\n",
      "    Message('note_on', channel=0, note=42, velocity=0, time=104),\n",
      "    Message('note_on', channel=0, note=66, velocity=0, time=0),\n",
      "    Message('note_on', channel=0, note=78, velocity=0, time=0),\n",
      "    Message('note_on', channel=0, note=54, velocity=0, time=8),\n",
      "    Message('note_on', channel=0, note=78, velocity=76, time=2),\n",
      "    Message('note_on', channel=0, note=42, velocity=68, time=1),\n",
      "    Message('note_on', channel=0, note=66, velocity=75, time=0),\n",
      "    Message('note_on', channel=0, note=54, velocity=63, time=1),\n",
      "    Message('note_on', channel=0, note=79, velocity=80, time=121),\n",
      "    Message('note_on', channel=0, note=43, velocity=67, time=1),\n",
      "    Message('note_on', channel=0, note=55, velocity=68, time=1),\n",
      "    Message('note_on', channel=0, note=67, velocity=70, time=0),\n",
      "    Message('note_on', channel=0, note=75, velocity=0, time=3),\n",
      "    Message('note_on', channel=0, note=75, velocity=57, time=11),\n",
      "    Message('note_on', channel=0, note=80, velocity=90, time=85),\n",
      "    Message('note_on', channel=0, note=68, velocity=84, time=4),\n",
      "    Message('note_on', channel=0, note=56, velocity=74, time=3),\n",
      "    Message('note_on', channel=0, note=44, velocity=65, time=3),\n",
      "    Message('note_on', channel=0, note=44, velocity=0, time=94),\n",
      "    Message('note_on', channel=0, note=56, velocity=0, time=0),\n",
      "    Message('note_on', channel=0, note=68, velocity=0, time=0),\n",
      "    Message('note_on', channel=0, note=80, velocity=0, time=0),\n",
      "    Message('note_on', channel=0, note=80, velocity=83, time=9),\n",
      "    Message('note_on', channel=0, note=56, velocity=77, time=1),\n",
      "    Message('note_on', channel=0, note=68, velocity=81, time=1),\n",
      "    Message('note_on', channel=0, note=44, velocity=68, time=0),\n",
      "    Message('note_on', channel=0, note=45, velocity=73, time=121),\n",
      "    Message('note_on', channel=0, note=81, velocity=88, time=0),\n",
      "    Message('note_on', channel=0, note=57, velocity=79, time=2),\n",
      "    Message('note_on', channel=0, note=93, velocity=80, time=0),\n",
      "    Message('note_on', channel=0, note=69, velocity=77, time=1),\n",
      "    Message('note_on', channel=0, note=93, velocity=0, time=11),\n",
      "    Message('note_on', channel=0, note=94, velocity=83, time=95),\n",
      "    Message('note_on', channel=0, note=58, velocity=74, time=1),\n",
      "    Message('note_on', channel=0, note=82, velocity=90, time=0),\n",
      "    Message('note_on', channel=0, note=46, velocity=65, time=0),\n",
      "    Message('note_on', channel=0, note=70, velocity=86, time=1),\n",
      "    Message('note_on', channel=0, note=94, velocity=0, time=3),\n",
      "    Message('note_on', channel=0, note=72, velocity=0, time=76),\n",
      "    Message('note_on', channel=0, note=60, velocity=0, time=8),\n",
      "    Message('note_on', channel=0, note=62, velocity=0, time=4),\n",
      "    Message('note_on', channel=0, note=80, velocity=0, time=0),\n",
      "    Message('note_on', channel=0, note=66, velocity=0, time=0),\n",
      "    Message('note_on', channel=0, note=81, velocity=0, time=1),\n",
      "    Message('note_on', channel=0, note=42, velocity=0, time=0),\n",
      "    Message('note_on', channel=0, note=54, velocity=0, time=0),\n",
      "    Message('note_on', channel=0, note=65, velocity=0, time=0),\n",
      "    Message('note_on', channel=0, note=77, velocity=0, time=0),\n",
      "    Message('note_on', channel=0, note=53, velocity=0, time=0),\n",
      "    Message('note_on', channel=0, note=67, velocity=0, time=0),\n",
      "    Message('note_on', channel=0, note=56, velocity=0, time=0),\n",
      "    Message('note_on', channel=0, note=68, velocity=0, time=0),\n",
      "    Message('note_on', channel=0, note=82, velocity=0, time=0),\n",
      "    Message('note_on', channel=0, note=79, velocity=0, time=0),\n",
      "    Message('note_on', channel=0, note=41, velocity=0, time=0),\n",
      "    Message('note_on', channel=0, note=64, velocity=0, time=0),\n",
      "    Message('note_on', channel=0, note=49, velocity=0, time=0),\n",
      "    Message('note_on', channel=0, note=50, velocity=0, time=0),\n",
      "    Message('note_on', channel=0, note=69, velocity=0, time=0),\n",
      "    Message('note_on', channel=0, note=63, velocity=0, time=0),\n",
      "    Message('note_on', channel=0, note=40, velocity=0, time=1),\n",
      "    Message('note_on', channel=0, note=76, velocity=0, time=0),\n",
      "    Message('note_on', channel=0, note=78, velocity=0, time=0),\n",
      "    Message('note_on', channel=0, note=55, velocity=0, time=0),\n",
      "    Message('note_on', channel=0, note=52, velocity=0, time=0),\n",
      "    Message('note_on', channel=0, note=57, velocity=0, time=0),\n",
      "    Message('note_on', channel=0, note=75, velocity=0, time=0),\n",
      "    Message('note_on', channel=0, note=38, velocity=0, time=0),\n",
      "    Message('note_on', channel=0, note=46, velocity=0, time=0),\n",
      "    Message('note_on', channel=0, note=43, velocity=0, time=0),\n",
      "    Message('note_on', channel=0, note=44, velocity=0, time=1),\n",
      "    Message('note_on', channel=0, note=70, velocity=0, time=0),\n",
      "    Message('note_on', channel=0, note=58, velocity=0, time=2),\n",
      "    Message('note_on', channel=0, note=45, velocity=0, time=0),\n",
      "    Message('control_change', channel=0, control=64, value=0, time=3),\n",
      "    Message('note_on', channel=0, note=39, velocity=0, time=3),\n",
      "    Message('note_on', channel=0, note=51, velocity=0, time=0),\n",
      "    Message('note_on', channel=0, note=61, velocity=0, time=0),\n",
      "    Message('note_on', channel=0, note=73, velocity=0, time=0),\n",
      "    Message('note_on', channel=0, note=74, velocity=0, time=0),\n",
      "    Message('note_on', channel=0, note=43, velocity=70, time=53),\n",
      "    Message('note_on', channel=0, note=55, velocity=55, time=2),\n",
      "    Message('note_on', channel=0, note=83, velocity=91, time=96),\n",
      "    Message('note_on', channel=0, note=74, velocity=79, time=2),\n",
      "    Message('note_on', channel=0, note=71, velocity=89, time=4),\n",
      "    Message('note_on', channel=0, note=59, velocity=87, time=2),\n",
      "    Message('note_on', channel=0, note=50, velocity=60, time=7),\n",
      "    Message('control_change', channel=0, control=64, value=127, time=11),\n",
      "    Message('note_on', channel=0, note=51, velocity=57, time=4),\n",
      "    Message('note_on', channel=0, note=55, velocity=0, time=142),\n",
      "    Message('note_on', channel=0, note=61, velocity=53, time=242),\n",
      "    Message('note_on', channel=0, note=73, velocity=58, time=0),\n",
      "    Message('note_on', channel=0, note=49, velocity=50, time=14),\n",
      "    Message('note_on', channel=0, note=37, velocity=40, time=5),\n",
      "    Message('note_on', channel=0, note=37, velocity=0, time=8),\n",
      "    Message('note_on', channel=0, note=50, velocity=0, time=77),\n",
      "    Message('note_on', channel=0, note=74, velocity=0, time=0),\n",
      "    Message('note_on', channel=0, note=50, velocity=62, time=3),\n",
      "    Message('note_on', channel=0, note=74, velocity=64, time=5),\n",
      "    Message('note_on', channel=0, note=38, velocity=54, time=0),\n",
      "    Message('note_on', channel=0, note=62, velocity=57, time=2),\n",
      "    Message('note_on', channel=0, note=50, velocity=0, time=105),\n",
      "    Message('note_on', channel=0, note=62, velocity=0, time=0),\n",
      "    Message('note_on', channel=0, note=74, velocity=0, time=0),\n",
      "    Message('note_on', channel=0, note=74, velocity=69, time=4),\n",
      "    Message('note_on', channel=0, note=50, velocity=54, time=3),\n",
      "    Message('note_on', channel=0, note=38, velocity=0, time=0),\n",
      "    Message('note_on', channel=0, note=62, velocity=56, time=2),\n",
      "    Message('note_on', channel=0, note=38, velocity=45, time=3),\n",
      "    Message('note_on', channel=0, note=50, velocity=0, time=103),\n",
      "    Message('note_on', channel=0, note=62, velocity=0, time=0),\n",
      "    Message('note_on', channel=0, note=74, velocity=0, time=0),\n",
      "    Message('note_on', channel=0, note=50, velocity=66, time=6),\n",
      "    Message('note_on', channel=0, note=38, velocity=0, time=2),\n",
      "    Message('note_on', channel=0, note=74, velocity=63, time=2),\n",
      "    Message('note_on', channel=0, note=62, velocity=59, time=1),\n",
      "    Message('note_on', channel=0, note=38, velocity=50, time=2),\n",
      "    Message('note_on', channel=0, note=75, velocity=68, time=107),\n",
      "    Message('note_on', channel=0, note=51, velocity=0, time=3),\n",
      "    Message('note_on', channel=0, note=63, velocity=62, time=3),\n",
      "    Message('note_on', channel=0, note=51, velocity=58, time=3),\n",
      "    Message('note_on', channel=0, note=39, velocity=51, time=4),\n",
      "    Message('note_on', channel=0, note=63, velocity=0, time=90),\n",
      "    Message('note_on', channel=0, note=75, velocity=0, time=0),\n",
      "    Message('note_on', channel=0, note=75, velocity=75, time=5),\n",
      "    Message('note_on', channel=0, note=39, velocity=0, time=2),\n",
      "    Message('note_on', channel=0, note=51, velocity=0, time=0),\n",
      "    Message('note_on', channel=0, note=63, velocity=64, time=2),\n",
      "    Message('note_on', channel=0, note=51, velocity=55, time=4),\n",
      "    Message('note_on', channel=0, note=39, velocity=53, time=1),\n",
      "    Message('note_on', channel=0, note=63, velocity=0, time=86),\n",
      "    Message('note_on', channel=0, note=75, velocity=0, time=0),\n",
      "    Message('note_on', channel=0, note=75, velocity=70, time=5),\n",
      "    Message('note_on', channel=0, note=39, velocity=0, time=2),\n",
      "    Message('note_on', channel=0, note=51, velocity=0, time=0),\n",
      "    Message('note_on', channel=0, note=63, velocity=62, time=2),\n",
      "    Message('note_on', channel=0, note=51, velocity=64, time=4),\n",
      "    Message('note_on', channel=0, note=39, velocity=48, time=5),\n",
      "    Message('note_on', channel=0, note=76, velocity=74, time=96),\n",
      "    Message('note_on', channel=0, note=64, velocity=73, time=3),\n",
      "    Message('note_on', channel=0, note=52, velocity=64, time=1),\n",
      "    Message('note_on', channel=0, note=40, velocity=54, time=1),\n",
      "    Message('note_on', channel=0, note=77, velocity=88, time=100),\n",
      "    Message('note_on', channel=0, note=65, velocity=78, time=3),\n",
      "    Message('note_on', channel=0, note=53, velocity=61, time=12),\n",
      "    Message('note_on', channel=0, note=41, velocity=53, time=5),\n",
      "    Message('note_on', channel=0, note=68, velocity=50, time=8),\n",
      "    Message('note_on', channel=0, note=68, velocity=0, time=6),\n",
      "    Message('note_on', channel=0, note=53, velocity=0, time=253),\n",
      "    Message('note_on', channel=0, note=62, velocity=0, time=0),\n",
      "    Message('note_on', channel=0, note=65, velocity=0, time=0),\n",
      "    Message('note_on', channel=0, note=71, velocity=0, time=0),\n",
      "    Message('note_on', channel=0, note=74, velocity=0, time=0),\n",
      "    Message('note_on', channel=0, note=77, velocity=0, time=0),\n",
      "    Message('note_on', channel=0, note=62, velocity=74, time=4),\n",
      "    Message('note_on', channel=0, note=81, velocity=92, time=0),\n",
      "    Message('note_on', channel=0, note=65, velocity=77, time=2),\n",
      "    Message('note_on', channel=0, note=59, velocity=0, time=2),\n",
      "    Message('note_on', channel=0, note=77, velocity=78, time=2),\n",
      "    Message('note_on', channel=0, note=53, velocity=68, time=0),\n",
      "    Message('note_on', channel=0, note=69, velocity=84, time=0),\n",
      "    Message('note_on', channel=0, note=74, velocity=77, time=1),\n",
      "    Message('note_on', channel=0, note=57, velocity=71, time=0),\n",
      "    Message('note_on', channel=0, note=71, velocity=84, time=1),\n",
      "    Message('note_on', channel=0, note=59, velocity=70, time=1),\n",
      "    Message('note_on', channel=0, note=64, velocity=0, time=29),\n",
      "    Message('control_change', channel=0, control=64, value=0, time=0),\n",
      "    Message('note_on', channel=0, note=51, velocity=0, time=2),\n",
      "    Message('note_on', channel=0, note=76, velocity=0, time=0),\n",
      "    Message('note_on', channel=0, note=39, velocity=0, time=1),\n",
      "    Message('note_on', channel=0, note=73, velocity=0, time=1),\n",
      "    Message('note_on', channel=0, note=40, velocity=0, time=1),\n",
      "    Message('note_on', channel=0, note=63, velocity=0, time=0),\n",
      "    Message('note_on', channel=0, note=49, velocity=0, time=0),\n",
      "    Message('note_on', channel=0, note=38, velocity=0, time=1),\n",
      "    Message('note_on', channel=0, note=50, velocity=0, time=0),\n",
      "    Message('note_on', channel=0, note=75, velocity=0, time=0),\n",
      "    Message('note_on', channel=0, note=43, velocity=0, time=1),\n",
      "    Message('note_on', channel=0, note=61, velocity=0, time=0),\n",
      "    Message('note_on', channel=0, note=52, velocity=0, time=1),\n",
      "    Message('note_on', channel=0, note=83, velocity=0, time=4),\n",
      "    Message('note_on', channel=0, note=41, velocity=0, time=8),\n",
      "    Message('control_change', channel=0, control=64, value=127, time=38),\n",
      "    Message('note_on', channel=0, note=62, velocity=0, time=307),\n",
      "    Message('note_on', channel=0, note=74, velocity=0, time=0),\n",
      "    Message('note_on', channel=0, note=50, velocity=59, time=5),\n",
      "    Message('note_on', channel=0, note=74, velocity=65, time=0),\n",
      "    Message('note_on', channel=0, note=62, velocity=57, time=1),\n",
      "    Message('note_on', channel=0, note=38, velocity=51, time=5),\n",
      "    Message('note_on', channel=0, note=75, velocity=66, time=184),\n",
      "    Message('note_on', channel=0, note=63, velocity=57, time=1),\n",
      "    Message('note_on', channel=0, note=51, velocity=53, time=0),\n",
      "    Message('note_on', channel=0, note=39, velocity=46, time=5),\n",
      "    Message('note_on', channel=0, note=39, velocity=0, time=91),\n",
      "    Message('note_on', channel=0, note=51, velocity=0, time=0),\n",
      "    Message('note_on', channel=0, note=75, velocity=0, time=0),\n",
      "    Message('note_on', channel=0, note=63, velocity=0, time=8),\n",
      "    Message('note_on', channel=0, note=51, velocity=52, time=2),\n",
      "    Message('note_on', channel=0, note=75, velocity=70, time=0),\n",
      "    Message('note_on', channel=0, note=39, velocity=50, time=2),\n",
      "    Message('note_on', channel=0, note=63, velocity=55, time=1),\n",
      "    Message('note_on', channel=0, note=39, velocity=0, time=95),\n",
      "    Message('note_on', channel=0, note=51, velocity=0, time=0),\n",
      "    Message('note_on', channel=0, note=63, velocity=0, time=0),\n",
      "    Message('note_on', channel=0, note=75, velocity=0, time=0),\n",
      "    Message('note_on', channel=0, note=51, velocity=56, time=4),\n",
      "    Message('note_on', channel=0, note=39, velocity=49, time=5),\n",
      "    Message('note_on', channel=0, note=75, velocity=63, time=1),\n",
      "    Message('note_on', channel=0, note=63, velocity=62, time=0),\n",
      "    Message('note_on', channel=0, note=52, velocity=69, time=109),\n",
      "    Message('note_on', channel=0, note=40, velocity=64, time=5),\n",
      "    Message('note_on', channel=0, note=76, velocity=76, time=1),\n",
      "    Message('note_on', channel=0, note=64, velocity=74, time=1),\n",
      "    Message('note_on', channel=0, note=52, velocity=0, time=89),\n",
      "    Message('note_on', channel=0, note=40, velocity=0, time=8),\n",
      "    Message('note_on', channel=0, note=64, velocity=0, time=0),\n",
      "    Message('note_on', channel=0, note=76, velocity=0, time=0),\n",
      "    Message('note_on', channel=0, note=52, velocity=66, time=3),\n",
      "    Message('note_on', channel=0, note=76, velocity=66, time=1),\n",
      "    Message('note_on', channel=0, note=40, velocity=63, time=0),\n",
      "    Message('note_on', channel=0, note=64, velocity=65, time=4),\n",
      "    Message('note_on', channel=0, note=40, velocity=0, time=91),\n",
      "    Message('note_on', channel=0, note=52, velocity=0, time=0),\n",
      "    Message('note_on', channel=0, note=64, velocity=0, time=0),\n",
      "    Message('note_on', channel=0, note=76, velocity=0, time=0),\n",
      "    Message('note_on', channel=0, note=52, velocity=64, time=4),\n",
      "    Message('note_on', channel=0, note=64, velocity=71, time=1),\n",
      "    Message('note_on', channel=0, note=76, velocity=68, time=1),\n",
      "    Message('note_on', channel=0, note=40, velocity=62, time=0),\n",
      "    Message('note_on', channel=0, note=77, velocity=0, time=94),\n",
      "    Message('note_on', channel=0, note=53, velocity=0, time=8),\n",
      "    Message('note_on', channel=0, note=65, velocity=0, time=0),\n",
      "    Message('note_on', channel=0, note=77, velocity=85, time=3),\n",
      "    Message('note_on', channel=0, note=65, velocity=62, time=3),\n",
      "    Message('note_on', channel=0, note=53, velocity=60, time=3),\n",
      "    Message('note_on', channel=0, note=41, velocity=55, time=2),\n",
      "    Message('note_on', channel=0, note=67, velocity=56, time=2),\n",
      "    Message('note_on', channel=0, note=55, velocity=39, time=16),\n",
      "    Message('note_on', channel=0, note=55, velocity=0, time=9),\n",
      "    Message('note_on', channel=0, note=62, velocity=0, time=146),\n",
      "    Message('note_on', channel=0, note=71, velocity=0, time=0),\n",
      "    Message('note_on', channel=0, note=83, velocity=86, time=5),\n",
      "    Message('note_on', channel=0, note=53, velocity=0, time=3),\n",
      "    Message('note_on', channel=0, note=57, velocity=0, time=0),\n",
      "    Message('note_on', channel=0, note=74, velocity=0, time=0),\n",
      "    Message('note_on', channel=0, note=62, velocity=65, time=1),\n",
      "    Message('note_on', channel=0, note=71, velocity=81, time=2),\n",
      "    Message('note_on', channel=0, note=53, velocity=59, time=2),\n",
      "    Message('note_on', channel=0, note=74, velocity=78, time=2),\n",
      "    Message('note_on', channel=0, note=69, velocity=0, time=1),\n",
      "    Message('note_on', channel=0, note=81, velocity=0, time=0),\n",
      "    Message('note_on', channel=0, note=57, velocity=64, time=2),\n",
      "    Message('note_on', channel=0, note=69, velocity=79, time=2),\n",
      "    Message('note_on', channel=0, note=81, velocity=74, time=5),\n",
      "    Message('note_on', channel=0, note=62, velocity=0, time=152),\n",
      "    Message('note_on', channel=0, note=38, velocity=0, time=0),\n",
      "    Message('note_on', channel=0, note=53, velocity=0, time=0),\n",
      "    Message('note_on', channel=0, note=50, velocity=0, time=1),\n",
      "    Message('note_on', channel=0, note=41, velocity=0, time=0),\n",
      "    Message('note_on', channel=0, note=65, velocity=0, time=0),\n",
      "    Message('note_on', channel=0, note=67, velocity=0, time=0),\n",
      "    Message('note_on', channel=0, note=75, velocity=0, time=0),\n",
      "    Message('note_on', channel=0, note=77, velocity=0, time=0),\n",
      "    Message('note_on', channel=0, note=69, velocity=0, time=1),\n",
      "    Message('note_on', channel=0, note=51, velocity=0, time=0),\n",
      "    Message('note_on', channel=0, note=81, velocity=0, time=0),\n",
      "    Message('control_change', channel=0, control=64, value=0, time=0),\n",
      "    Message('note_on', channel=0, note=57, velocity=0, time=0),\n",
      "    Message('note_on', channel=0, note=83, velocity=0, time=0),\n",
      "    Message('note_on', channel=0, note=63, velocity=0, time=0),\n",
      "    Message('note_on', channel=0, note=39, velocity=0, time=6),\n",
      "    Message('note_on', channel=0, note=52, velocity=0, time=0),\n",
      "    Message('note_on', channel=0, note=59, velocity=0, time=0),\n",
      "    Message('note_on', channel=0, note=64, velocity=0, time=0),\n",
      "    Message('note_on', channel=0, note=71, velocity=0, time=0),\n",
      "    Message('note_on', channel=0, note=76, velocity=0, time=0),\n",
      "    Message('note_on', channel=0, note=80, velocity=79, time=3),\n",
      "    Message('note_on', channel=0, note=68, velocity=87, time=2),\n",
      "    Message('note_on', channel=0, note=64, velocity=83, time=3),\n",
      "    Message('note_on', channel=0, note=71, velocity=69, time=1),\n",
      "    Message('note_on', channel=0, note=76, velocity=78, time=1),\n",
      "    Message('note_on', channel=0, note=59, velocity=69, time=0),\n",
      "    Message('note_on', channel=0, note=52, velocity=66, time=0),\n",
      "    Message('note_on', channel=0, note=56, velocity=66, time=1),\n",
      "    Message('control_change', channel=0, control=64, value=127, time=81),\n",
      "    Message('note_on', channel=0, note=40, velocity=0, time=384),\n",
      "    Message('note_on', channel=0, note=75, velocity=59, time=12),\n",
      "    Message('note_on', channel=0, note=51, velocity=51, time=4),\n",
      "    Message('note_on', channel=0, note=63, velocity=51, time=0),\n",
      "    Message('note_on', channel=0, note=39, velocity=43, time=4),\n",
      "    Message('note_on', channel=0, note=52, velocity=0, time=126),\n",
      "    Message('note_on', channel=0, note=64, velocity=0, time=0),\n",
      "    Message('note_on', channel=0, note=76, velocity=0, time=0),\n",
      "    Message('note_on', channel=0, note=76, velocity=63, time=4),\n",
      "    Message('note_on', channel=0, note=64, velocity=62, time=0),\n",
      "    Message('note_on', channel=0, note=52, velocity=53, time=3),\n",
      "    Message('note_on', channel=0, note=40, velocity=46, time=0),\n",
      "    Message('note_on', channel=0, note=40, velocity=0, time=108),\n",
      "    Message('note_on', channel=0, note=52, velocity=0, time=0),\n",
      "    Message('note_on', channel=0, note=64, velocity=0, time=0),\n",
      "    Message('note_on', channel=0, note=76, velocity=0, time=0),\n",
      "    Message('note_on', channel=0, note=76, velocity=68, time=6),\n",
      "    Message('note_on', channel=0, note=68, velocity=0, time=1),\n",
      "    Message('note_on', channel=0, note=64, velocity=57, time=3),\n",
      "    Message('note_on', channel=0, note=52, velocity=54, time=1),\n",
      "    Message('note_on', channel=0, note=40, velocity=56, time=0),\n",
      "    Message('note_on', channel=0, note=68, velocity=51, time=3),\n",
      "    Message('note_on', channel=0, note=52, velocity=0, time=86),\n",
      "    Message('note_on', channel=0, note=64, velocity=0, time=0),\n",
      "    Message('note_on', channel=0, note=76, velocity=0, time=0),\n",
      "    Message('note_on', channel=0, note=40, velocity=0, time=7),\n",
      "    Message('note_on', channel=0, note=76, velocity=67, time=0),\n",
      "    Message('note_on', channel=0, note=64, velocity=63, time=3),\n",
      "    Message('note_on', channel=0, note=52, velocity=65, time=1),\n",
      "    Message('note_on', channel=0, note=40, velocity=53, time=7),\n",
      "    Message('note_on', channel=0, note=77, velocity=76, time=94),\n",
      "    Message('note_on', channel=0, note=65, velocity=67, time=4),\n",
      "    Message('note_on', channel=0, note=41, velocity=58, time=3),\n",
      "    Message('note_on', channel=0, note=53, velocity=58, time=0),\n",
      "    Message('note_on', channel=0, note=77, velocity=0, time=88),\n",
      "    Message('note_on', channel=0, note=40, velocity=0, time=8),\n",
      "    Message('note_on', channel=0, note=41, velocity=0, time=0),\n",
      "    Message('note_on', channel=0, note=53, velocity=0, time=0),\n",
      "    Message('note_on', channel=0, note=77, velocity=75, time=3),\n",
      "    Message('note_on', channel=0, note=40, velocity=60, time=3),\n",
      "    Message('note_on', channel=0, note=41, velocity=62, time=1),\n",
      "    Message('note_on', channel=0, note=65, velocity=0, time=0),\n",
      "    Message('note_on', channel=0, note=53, velocity=60, time=2),\n",
      "    Message('note_on', channel=0, note=65, velocity=53, time=2),\n",
      "    Message('note_on', channel=0, note=41, velocity=0, time=104),\n",
      "    Message('note_on', channel=0, note=53, velocity=0, time=0),\n",
      "    Message('note_on', channel=0, note=65, velocity=0, time=0),\n",
      "    Message('note_on', channel=0, note=77, velocity=0, time=0),\n",
      "    Message('note_on', channel=0, note=77, velocity=77, time=5),\n",
      "    Message('note_on', channel=0, note=65, velocity=70, time=4),\n",
      "    Message('note_on', channel=0, note=53, velocity=59, time=2),\n",
      "    Message('note_on', channel=0, note=41, velocity=62, time=0),\n",
      "    Message('note_on', channel=0, note=78, velocity=80, time=88),\n",
      "    Message('note_on', channel=0, note=66, velocity=70, time=6),\n",
      "    Message('note_on', channel=0, note=42, velocity=61, time=13),\n",
      "    Message('note_on', channel=0, note=54, velocity=60, time=1),\n",
      "    Message('note_on', channel=0, note=42, velocity=0, time=81),\n",
      "    Message('note_on', channel=0, note=54, velocity=0, time=0),\n",
      "    Message('note_on', channel=0, note=66, velocity=0, time=0),\n",
      "    Message('note_on', channel=0, note=78, velocity=0, time=0),\n",
      "    Message('note_on', channel=0, note=54, velocity=69, time=9),\n",
      "    Message('note_on', channel=0, note=42, velocity=65, time=1),\n",
      "    Message('note_on', channel=0, note=78, velocity=74, time=0),\n",
      "    Message('note_on', channel=0, note=66, velocity=71, time=1),\n",
      "    Message('note_on', channel=0, note=42, velocity=0, time=96),\n",
      "    Message('note_on', channel=0, note=78, velocity=0, time=0),\n",
      "    Message('note_on', channel=0, note=78, velocity=85, time=6),\n",
      "    Message('note_on', channel=0, note=41, velocity=0, time=2),\n",
      "    Message('note_on', channel=0, note=53, velocity=0, time=0),\n",
      "    Message('note_on', channel=0, note=54, velocity=0, time=0),\n",
      "    Message('note_on', channel=0, note=66, velocity=0, time=0),\n",
      "    Message('note_on', channel=0, note=42, velocity=65, time=3),\n",
      "    Message('note_on', channel=0, note=66, velocity=69, time=1),\n",
      "    Message('note_on', channel=0, note=41, velocity=58, time=0),\n",
      "    Message('note_on', channel=0, note=54, velocity=63, time=2),\n",
      "    Message('note_on', channel=0, note=53, velocity=61, time=5),\n",
      "    Message('note_on', channel=0, note=55, velocity=75, time=116),\n",
      "    Message('note_on', channel=0, note=43, velocity=69, time=1),\n",
      "    Message('note_on', channel=0, note=79, velocity=83, time=1),\n",
      "    Message('note_on', channel=0, note=67, velocity=71, time=4),\n",
      "    Message('note_on', channel=0, note=74, velocity=0, time=13),\n",
      "    Message('note_on', channel=0, note=52, velocity=0, time=56),\n",
      "    Message('note_on', channel=0, note=59, velocity=0, time=0),\n",
      "    Message('note_on', channel=0, note=71, velocity=0, time=1),\n",
      "    Message('note_on', channel=0, note=56, velocity=0, time=0),\n",
      "    Message('note_on', channel=0, note=66, velocity=0, time=0),\n",
      "    Message('note_on', channel=0, note=75, velocity=0, time=0),\n",
      "    Message('note_on', channel=0, note=65, velocity=0, time=0),\n",
      "    Message('note_on', channel=0, note=42, velocity=0, time=0),\n",
      "    Message('note_on', channel=0, note=77, velocity=0, time=0),\n",
      "    Message('note_on', channel=0, note=64, velocity=0, time=0),\n",
      "    Message('note_on', channel=0, note=40, velocity=0, time=0),\n",
      "    Message('note_on', channel=0, note=41, velocity=0, time=1),\n",
      "    Message('note_on', channel=0, note=53, velocity=0, time=0),\n",
      "    Message('note_on', channel=0, note=54, velocity=0, time=0),\n",
      "    Message('note_on', channel=0, note=68, velocity=0, time=0),\n",
      "    Message('note_on', channel=0, note=51, velocity=0, time=0),\n",
      "    Message('note_on', channel=0, note=63, velocity=0, time=0),\n",
      "    Message('note_on', channel=0, note=78, velocity=0, time=0),\n",
      "    Message('control_change', channel=0, control=64, value=0, time=1),\n",
      "    Message('note_on', channel=0, note=80, velocity=0, time=2),\n",
      "    Message('note_on', channel=0, note=39, velocity=0, time=8),\n",
      "    Message('note_on', channel=0, note=76, velocity=0, time=0),\n",
      "    Message('note_on', channel=0, note=43, velocity=0, time=7),\n",
      "    Message('note_on', channel=0, note=55, velocity=0, time=0),\n",
      "    Message('note_on', channel=0, note=67, velocity=0, time=0),\n",
      "    Message('note_on', channel=0, note=79, velocity=0, time=0),\n",
      "    Message('note_on', channel=0, note=79, velocity=81, time=6),\n",
      "    Message('note_on', channel=0, note=67, velocity=74, time=4),\n",
      "    Message('note_on', channel=0, note=55, velocity=74, time=1),\n",
      "    Message('note_on', channel=0, note=43, velocity=72, time=1),\n",
      "    Message('control_change', channel=0, control=64, value=127, time=35),\n",
      "    Message('note_on', channel=0, note=67, velocity=0, time=69),\n",
      "    Message('note_on', channel=0, note=79, velocity=0, time=0),\n",
      "    Message('note_on', channel=0, note=43, velocity=0, time=7),\n",
      "    Message('note_on', channel=0, note=55, velocity=0, time=0),\n",
      "    Message('note_on', channel=0, note=79, velocity=87, time=2),\n",
      "    Message('note_on', channel=0, note=67, velocity=76, time=1),\n",
      "    Message('note_on', channel=0, note=55, velocity=70, time=1),\n",
      "    Message('note_on', channel=0, note=43, velocity=62, time=1),\n",
      "    Message('control_change', channel=0, control=64, value=0, time=94),\n",
      "    Message('note_on', channel=0, note=67, velocity=0, time=24),\n",
      "    Message('note_on', channel=0, note=79, velocity=0, time=0),\n",
      "    Message('note_on', channel=0, note=56, velocity=76, time=3),\n",
      "    Message('note_on', channel=0, note=43, velocity=0, time=0),\n",
      "    Message('note_on', channel=0, note=79, velocity=80, time=3),\n",
      "    Message('note_on', channel=0, note=44, velocity=72, time=0),\n",
      "    Message('note_on', channel=0, note=67, velocity=75, time=4),\n",
      "    Message('note_on', channel=0, note=77, velocity=67, time=2),\n",
      "    Message('control_change', channel=0, control=64, value=127, time=4),\n",
      "    Message('note_on', channel=0, note=55, velocity=0, time=53),\n",
      "    Message('note_on', channel=0, note=56, velocity=0, time=22),\n",
      "    Message('note_on', channel=0, note=67, velocity=0, time=32),\n",
      "    Message('note_on', channel=0, note=77, velocity=0, time=0),\n",
      "    Message('note_on', channel=0, note=79, velocity=0, time=0),\n",
      "    Message('note_on', channel=0, note=79, velocity=80, time=6),\n",
      "    Message('note_on', channel=0, note=57, velocity=71, time=4),\n",
      "    Message('note_on', channel=0, note=45, velocity=72, time=1),\n",
      "    Message('note_on', channel=0, note=69, velocity=69, time=0),\n",
      "    Message('note_on', channel=0, note=67, velocity=72, time=0),\n",
      "    Message('note_on', channel=0, note=77, velocity=73, time=1),\n",
      "    Message('note_on', channel=0, note=69, velocity=0, time=3),\n",
      "    Message('note_on', channel=0, note=44, velocity=0, time=24),\n",
      "    Message('note_on', channel=0, note=67, velocity=0, time=84),\n",
      "    Message('note_on', channel=0, note=77, velocity=0, time=0),\n",
      "    Message('note_on', channel=0, note=79, velocity=0, time=0),\n",
      "    Message('note_on', channel=0, note=79, velocity=86, time=4),\n",
      "    Message('note_on', channel=0, note=58, velocity=86, time=1),\n",
      "    Message('note_on', channel=0, note=67, velocity=77, time=0),\n",
      "    Message('note_on', channel=0, note=70, velocity=75, time=0),\n",
      "    Message('note_on', channel=0, note=46, velocity=75, time=1),\n",
      "    Message('note_on', channel=0, note=77, velocity=78, time=4),\n",
      "    Message('note_on', channel=0, note=70, velocity=0, time=5),\n",
      "    Message('note_on', channel=0, note=67, velocity=0, time=116),\n",
      "    Message('note_on', channel=0, note=79, velocity=0, time=0),\n",
      "    Message('note_on', channel=0, note=59, velocity=79, time=1),\n",
      "    Message('note_on', channel=0, note=71, velocity=78, time=1),\n",
      "    Message('note_on', channel=0, note=47, velocity=77, time=0),\n",
      "    Message('note_on', channel=0, note=79, velocity=88, time=2),\n",
      "    Message('note_on', channel=0, note=67, velocity=76, time=1),\n",
      "    Message('note_on', channel=0, note=71, velocity=0, time=2),\n",
      "    Message('note_on', channel=0, note=77, velocity=0, time=0),\n",
      "    Message('note_on', channel=0, note=77, velocity=66, time=6),\n",
      "    Message('note_on', channel=0, note=67, velocity=0, time=109),\n",
      "    Message('note_on', channel=0, note=77, velocity=0, time=0),\n",
      "    Message('note_on', channel=0, note=79, velocity=0, time=0),\n",
      "    Message('note_on', channel=0, note=79, velocity=83, time=10),\n",
      "    Message('note_on', channel=0, note=60, velocity=78, time=0),\n",
      "    Message('note_on', channel=0, note=67, velocity=75, time=1),\n",
      "    Message('note_on', channel=0, note=77, velocity=76, time=1),\n",
      "    Message('note_on', channel=0, note=48, velocity=80, time=0),\n",
      "    Message('note_on', channel=0, note=67, velocity=0, time=127),\n",
      "    Message('note_on', channel=0, note=79, velocity=0, time=0),\n",
      "    Message('note_on', channel=0, note=79, velocity=90, time=4),\n",
      "    Message('note_on', channel=0, note=61, velocity=83, time=0),\n",
      "    Message('note_on', channel=0, note=67, velocity=79, time=2),\n",
      "    Message('note_on', channel=0, note=49, velocity=76, time=2),\n",
      "    Message('note_on', channel=0, note=58, velocity=0, time=125),\n",
      "    Message('note_on', channel=0, note=46, velocity=0, time=1),\n",
      "    Message('note_on', channel=0, note=61, velocity=0, time=0),\n",
      "    Message('note_on', channel=0, note=49, velocity=0, time=1),\n",
      "    Message('note_on', channel=0, note=57, velocity=0, time=0),\n",
      "    Message('note_on', channel=0, note=47, velocity=0, time=0),\n",
      "    Message('note_on', channel=0, note=48, velocity=0, time=0),\n",
      "    Message('note_on', channel=0, note=59, velocity=0, time=0),\n",
      "    Message('note_on', channel=0, note=60, velocity=0, time=1),\n",
      "    Message('control_change', channel=0, control=64, value=0, time=1),\n",
      "    Message('note_on', channel=0, note=67, velocity=0, time=1),\n",
      "    Message('note_on', channel=0, note=77, velocity=0, time=0),\n",
      "    Message('note_on', channel=0, note=79, velocity=0, time=0),\n",
      "    Message('note_on', channel=0, note=79, velocity=82, time=5),\n",
      "    Message('note_on', channel=0, note=67, velocity=78, time=2),\n",
      "    Message('note_on', channel=0, note=45, velocity=0, time=1),\n",
      "    Message('note_on', channel=0, note=77, velocity=77, time=1),\n",
      "    Message('note_on', channel=0, note=62, velocity=79, time=1),\n",
      "    Message('note_on', channel=0, note=50, velocity=72, time=2),\n",
      "    Message('note_on', channel=0, note=62, velocity=0, time=53),\n",
      "    Message('note_on', channel=0, note=67, velocity=0, time=1),\n",
      "    Message('note_on', channel=0, note=77, velocity=0, time=2),\n",
      "    Message('note_on', channel=0, note=50, velocity=0, time=0),\n",
      "    Message('note_on', channel=0, note=79, velocity=0, time=3),\n",
      "    Message('control_change', channel=0, control=64, value=127, time=44),\n",
      "    Message('note_on', channel=0, note=79, velocity=86, time=50),\n",
      "    Message('note_on', channel=0, note=63, velocity=82, time=0),\n",
      "    Message('note_on', channel=0, note=67, velocity=83, time=0),\n",
      "    Message('note_on', channel=0, note=51, velocity=75, time=1),\n",
      "    Message('note_on', channel=0, note=77, velocity=81, time=7),\n",
      "    Message('note_on', channel=0, note=77, velocity=0, time=158),\n",
      "    Message('note_on', channel=0, note=79, velocity=0, time=2),\n",
      "    Message('note_on', channel=0, note=63, velocity=0, time=0),\n",
      "    Message('note_on', channel=0, note=51, velocity=0, time=1),\n",
      "    Message('note_on', channel=0, note=67, velocity=0, time=0),\n",
      "    Message('control_change', channel=0, control=64, value=0, time=4),\n",
      "    Message('note_on', channel=0, note=48, velocity=62, time=18),\n",
      "    Message('note_on', channel=0, note=48, velocity=0, time=74),\n",
      "    Message('control_change', channel=0, control=64, value=127, time=8),\n",
      "    Message('note_on', channel=0, note=55, velocity=58, time=56),\n",
      "    Message('note_on', channel=0, note=60, velocity=74, time=6),\n",
      "    Message('note_on', channel=0, note=88, velocity=92, time=18),\n",
      "    Message('note_on', channel=0, note=79, velocity=82, time=0),\n",
      "    Message('note_on', channel=0, note=76, velocity=89, time=1),\n",
      "    Message('note_on', channel=0, note=64, velocity=86, time=1),\n",
      "    Message('note_on', channel=0, note=85, velocity=45, time=14),\n",
      "    Message('note_on', channel=0, note=42, velocity=77, time=448),\n",
      "    Message('note_on', channel=0, note=55, velocity=0, time=1),\n",
      "    Message('note_on', channel=0, note=43, velocity=80, time=4),\n",
      "    Message('note_on', channel=0, note=54, velocity=63, time=1),\n",
      "    Message('note_on', channel=0, note=55, velocity=70, time=6),\n",
      "    Message('note_on', channel=0, note=57, velocity=56, time=2),\n",
      "    Message('note_on', channel=0, note=57, velocity=0, time=87),\n",
      "    Message('note_on', channel=0, note=43, velocity=0, time=7),\n",
      "    Message('note_on', channel=0, note=57, velocity=66, time=4),\n",
      "    Message('note_on', channel=0, note=55, velocity=0, time=4),\n",
      "    Message('note_on', channel=0, note=43, velocity=62, time=2),\n",
      "    Message('note_on', channel=0, note=45, velocity=56, time=3),\n",
      "    Message('note_on', channel=0, note=55, velocity=61, time=1),\n",
      "    Message('note_on', channel=0, note=57, velocity=0, time=86),\n",
      "    Message('note_on', channel=0, note=57, velocity=65, time=5),\n",
      "    Message('note_on', channel=0, note=60, velocity=0, time=3),\n",
      "    Message('note_on', channel=0, note=43, velocity=0, time=31),\n",
      "    Message('note_on', channel=0, note=43, velocity=56, time=4),\n",
      "    Message('note_on', channel=0, note=55, velocity=0, time=19),\n",
      "    Message('note_on', channel=0, note=55, velocity=55, time=11),\n",
      "    Message('note_on', channel=0, note=45, velocity=0, time=50),\n",
      "    Message('note_on', channel=0, note=57, velocity=0, time=0),\n",
      "    Message('note_on', channel=0, note=57, velocity=58, time=9),\n",
      "    Message('note_on', channel=0, note=45, velocity=48, time=1),\n",
      "    Message('note_on', channel=0, note=43, velocity=0, time=36),\n",
      "    Message('note_on', channel=0, note=55, velocity=0, time=0),\n",
      "    Message('note_on', channel=0, note=55, velocity=60, time=10),\n",
      "    Message('note_on', channel=0, note=43, velocity=61, time=1),\n",
      "    Message('note_on', channel=0, note=45, velocity=0, time=58),\n",
      "    Message('note_on', channel=0, note=57, velocity=0, time=0),\n",
      "    Message('note_on', channel=0, note=57, velocity=65, time=5),\n",
      "    Message('note_on', channel=0, note=45, velocity=54, time=1),\n",
      "    Message('note_on', channel=0, note=43, velocity=0, time=48),\n",
      "    Message('note_on', channel=0, note=55, velocity=0, time=0),\n",
      "    Message('note_on', channel=0, note=55, velocity=57, time=10),\n",
      "    Message('note_on', channel=0, note=43, velocity=58, time=2),\n",
      "    Message('note_on', channel=0, note=57, velocity=0, time=50),\n",
      "    Message('note_on', channel=0, note=57, velocity=65, time=6),\n",
      "    Message('note_on', channel=0, note=45, velocity=0, time=1),\n",
      "    Message('note_on', channel=0, note=45, velocity=56, time=5),\n",
      "    Message('note_on', channel=0, note=43, velocity=0, time=72),\n",
      "    Message('note_on', channel=0, note=55, velocity=0, time=0),\n",
      "    Message('note_on', channel=0, note=43, velocity=57, time=4),\n",
      "    Message('note_on', channel=0, note=55, velocity=57, time=0),\n",
      "    Message('note_on', channel=0, note=57, velocity=0, time=27),\n",
      "    Message('note_on', channel=0, note=45, velocity=0, time=7),\n",
      "    Message('note_on', channel=0, note=57, velocity=60, time=4),\n",
      "    Message('note_on', channel=0, note=45, velocity=48, time=1),\n",
      "    Message('note_on', channel=0, note=55, velocity=0, time=49),\n",
      "    Message('note_on', channel=0, note=55, velocity=63, time=12),\n",
      "    Message('note_on', channel=0, note=45, velocity=0, time=50),\n",
      "    Message('note_on', channel=0, note=57, velocity=0, time=0),\n",
      "    Message('note_on', channel=0, note=45, velocity=50, time=4),\n",
      "    Message('note_on', channel=0, note=57, velocity=62, time=1),\n",
      "    Message('note_on', channel=0, note=55, velocity=0, time=56),\n",
      "    Message('note_on', channel=0, note=43, velocity=0, time=8),\n",
      "    Message('note_on', channel=0, note=55, velocity=59, time=2),\n",
      "    Message('note_on', channel=0, note=43, velocity=49, time=8),\n",
      "    Message('note_on', channel=0, note=57, velocity=0, time=28),\n",
      "    Message('note_on', channel=0, note=57, velocity=61, time=12),\n",
      "    Message('note_on', channel=0, note=42, velocity=0, time=111),\n",
      "    Message('note_on', channel=0, note=54, velocity=0, time=0),\n",
      "    Message('note_on', channel=0, note=54, velocity=66, time=7),\n",
      "    Message('note_on', channel=0, note=42, velocity=64, time=4),\n",
      "    Message('note_on', channel=0, note=43, velocity=0, time=74),\n",
      "    Message('note_on', channel=0, note=55, velocity=0, time=0),\n",
      "    Message('note_on', channel=0, note=55, velocity=77, time=4),\n",
      "    Message('note_on', channel=0, note=43, velocity=72, time=2),\n",
      "    Message('note_on', channel=0, note=43, velocity=0, time=285),\n",
      "    Message('note_on', channel=0, note=76, velocity=0, time=0),\n",
      "    Message('note_on', channel=0, note=79, velocity=0, time=0),\n",
      "    Message('note_on', channel=0, note=88, velocity=0, time=0),\n",
      "    Message('note_on', channel=0, note=88, velocity=93, time=4),\n",
      "    Message('note_on', channel=0, note=76, velocity=91, time=2),\n",
      "    Message('note_on', channel=0, note=79, velocity=87, time=1),\n",
      "    Message('note_on', channel=0, note=64, velocity=0, time=1),\n",
      "    Message('note_on', channel=0, note=43, velocity=84, time=4),\n",
      "    Message('note_on', channel=0, note=54, velocity=0, time=0),\n",
      "    Message('note_on', channel=0, note=42, velocity=0, time=0),\n",
      "    Message('note_on', channel=0, note=31, velocity=88, time=0),\n",
      "    Message('control_change', channel=0, control=64, value=0, time=1),\n",
      "    Message('note_on', channel=0, note=55, velocity=0, time=0),\n",
      "    Message('note_on', channel=0, note=45, velocity=0, time=1),\n",
      "    Message('note_on', channel=0, note=57, velocity=0, time=17),\n",
      "    Message('note_on', channel=0, note=85, velocity=0, time=0),\n",
      "    Message('control_change', channel=0, control=64, value=127, time=62),\n",
      "    Message('note_on', channel=0, note=55, velocity=52, time=279),\n",
      "    Message('note_on', channel=0, note=62, velocity=45, time=85),\n",
      "    Message('note_on', channel=0, note=86, velocity=90, time=43),\n",
      "    Message('note_on', channel=0, note=71, velocity=82, time=3),\n",
      "    Message('note_on', channel=0, note=74, velocity=86, time=0),\n",
      "    Message('note_on', channel=0, note=77, velocity=84, time=1),\n",
      "    Message('note_on', channel=0, note=55, velocity=0, time=364),\n",
      "    Message('note_on', channel=0, note=55, velocity=37, time=7),\n",
      "    Message('note_on', channel=0, note=57, velocity=39, time=12),\n",
      "    Message('note_on', channel=0, note=64, velocity=55, time=73),\n",
      "    Message('note_on', channel=0, note=76, velocity=0, time=23),\n",
      "    Message('note_on', channel=0, note=79, velocity=0, time=0),\n",
      "    Message('note_on', channel=0, note=88, velocity=0, time=0),\n",
      "    Message('note_on', channel=0, note=72, velocity=88, time=11),\n",
      "    Message('note_on', channel=0, note=84, velocity=80, time=0),\n",
      "    Message('note_on', channel=0, note=79, velocity=86, time=1),\n",
      "    Message('note_on', channel=0, note=88, velocity=91, time=0),\n",
      "    Message('note_on', channel=0, note=76, velocity=91, time=0),\n",
      "    Message('control_change', channel=0, control=64, value=0, time=10),\n",
      "    Message('note_on', channel=0, note=71, velocity=0, time=1),\n",
      "    Message('note_on', channel=0, note=77, velocity=0, time=3),\n",
      "    Message('note_on', channel=0, note=74, velocity=0, time=0),\n",
      "    Message('note_on', channel=0, note=86, velocity=0, time=1),\n",
      "    Message('note_on', channel=0, note=62, velocity=0, time=4),\n",
      "    Message('note_on', channel=0, note=31, velocity=0, time=8),\n",
      "    Message('note_on', channel=0, note=43, velocity=0, time=15),\n",
      "    Message('note_on', channel=0, note=57, velocity=0, time=8),\n",
      "    Message('control_change', channel=0, control=64, value=127, time=8),\n",
      "    Message('note_on', channel=0, note=55, velocity=0, time=192),\n",
      "    Message('note_on', channel=0, note=55, velocity=50, time=10),\n",
      "    Message('note_on', channel=0, note=79, velocity=0, time=151),\n",
      "    Message('note_on', channel=0, note=79, velocity=56, time=6),\n",
      "    Message('note_on', channel=0, note=67, velocity=52, time=0),\n",
      "    Message('note_on', channel=0, note=89, velocity=92, time=77),\n",
      "    Message('note_on', channel=0, note=79, velocity=0, time=1),\n",
      "    Message('note_on', channel=0, note=83, velocity=85, time=4),\n",
      "    Message('note_on', channel=0, note=86, velocity=83, time=0),\n",
      "    Message('note_on', channel=0, note=77, velocity=86, time=0),\n",
      "    Message('note_on', channel=0, note=74, velocity=77, time=0),\n",
      "    Message('note_on', channel=0, note=79, velocity=84, time=1),\n",
      "    Message('note_on', channel=0, note=48, velocity=74, time=337),\n",
      "    Message('note_on', channel=0, note=43, velocity=47, time=4),\n",
      "    Message('note_on', channel=0, note=64, velocity=0, time=8),\n",
      "    Message('note_on', channel=0, note=83, velocity=0, time=5),\n",
      "    Message('note_on', channel=0, note=79, velocity=0, time=0),\n",
      "    Message('note_on', channel=0, note=76, velocity=0, time=1),\n",
      "    Message('note_on', channel=0, note=74, velocity=0, time=0),\n",
      "    Message('note_on', channel=0, note=67, velocity=0, time=0),\n",
      "    Message('note_on', channel=0, note=86, velocity=0, time=0),\n",
      "    Message('note_on', channel=0, note=84, velocity=0, time=0),\n",
      "    Message('note_on', channel=0, note=77, velocity=0, time=1),\n",
      "    Message('note_on', channel=0, note=89, velocity=0, time=0),\n",
      "    Message('control_change', channel=0, control=64, value=0, time=1),\n",
      "    Message('note_on', channel=0, note=72, velocity=0, time=0),\n",
      "    Message('note_on', channel=0, note=55, velocity=0, time=7),\n",
      "    Message('note_on', channel=0, note=88, velocity=0, time=8),\n",
      "    Message('control_change', channel=0, control=64, value=127, time=46),\n",
      "    Message('note_on', channel=0, note=55, velocity=38, time=45),\n",
      "    Message('note_on', channel=0, note=60, velocity=56, time=76),\n",
      "    Message('note_on', channel=0, note=43, velocity=0, time=48),\n",
      "    Message('note_on', channel=0, note=84, velocity=87, time=3),\n",
      "    Message('note_on', channel=0, note=88, velocity=95, time=2),\n",
      "    Message('note_on', channel=0, note=76, velocity=96, time=2),\n",
      "    Message('note_on', channel=0, note=67, velocity=85, time=1),\n",
      "    Message('note_on', channel=0, note=79, velocity=88, time=0),\n",
      "    Message('note_on', channel=0, note=84, velocity=0, time=322),\n",
      "    Message('note_on', channel=0, note=96, velocity=92, time=3),\n",
      "    Message('note_on', channel=0, note=84, velocity=85, time=4),\n",
      "    Message('note_on', channel=0, note=60, velocity=0, time=1),\n",
      "    Message('note_on', channel=0, note=72, velocity=77, time=11),\n",
      "    Message('note_on', channel=0, note=60, velocity=73, time=0),\n",
      "    Message('note_on', channel=0, note=86, velocity=81, time=167),\n",
      "    Message('note_on', channel=0, note=98, velocity=96, time=1),\n",
      "    Message('note_on', channel=0, note=74, velocity=81, time=2),\n",
      "    Message('note_on', channel=0, note=62, velocity=71, time=6),\n",
      "    Message('note_on', channel=0, note=84, velocity=0, time=135),\n",
      "    Message('note_on', channel=0, note=96, velocity=0, time=0),\n",
      "    Message('note_on', channel=0, note=96, velocity=95, time=8),\n",
      "    Message('note_on', channel=0, note=84, velocity=87, time=4),\n",
      "    Message('note_on', channel=0, note=72, velocity=0, time=4),\n",
      "    Message('note_on', channel=0, note=60, velocity=0, time=7),\n",
      "    Message('note_on', channel=0, note=72, velocity=82, time=3),\n",
      "    Message('note_on', channel=0, note=60, velocity=65, time=2),\n",
      "    Message('note_on', channel=0, note=48, velocity=0, time=3),\n",
      "    Message('note_on', channel=0, note=48, velocity=50, time=6),\n",
      "    Message('note_on', channel=0, note=79, velocity=0, time=140),\n",
      "    Message('note_on', channel=0, note=91, velocity=92, time=11),\n",
      "    Message('note_on', channel=0, note=79, velocity=92, time=0),\n",
      "    Message('note_on', channel=0, note=67, velocity=0, time=4),\n",
      "    Message('note_on', channel=0, note=67, velocity=64, time=5),\n",
      "    Message('note_on', channel=0, note=55, velocity=0, time=3),\n",
      "    Message('note_on', channel=0, note=55, velocity=61, time=5),\n",
      "    Message('note_on', channel=0, note=93, velocity=95, time=129),\n",
      "    Message('note_on', channel=0, note=81, velocity=86, time=1),\n",
      "    Message('note_on', channel=0, note=69, velocity=72, time=6),\n",
      "    Message('note_on', channel=0, note=57, velocity=66, time=1),\n",
      "    Message('note_on', channel=0, note=79, velocity=0, time=111),\n",
      "    Message('note_on', channel=0, note=55, velocity=0, time=8),\n",
      "    Message('note_on', channel=0, note=67, velocity=0, time=0),\n",
      "    Message('note_on', channel=0, note=91, velocity=0, time=0),\n",
      "    Message('note_on', channel=0, note=79, velocity=86, time=4),\n",
      "    Message('note_on', channel=0, note=91, velocity=90, time=0),\n",
      "    Message('note_on', channel=0, note=67, velocity=70, time=6),\n",
      "    Message('note_on', channel=0, note=55, velocity=64, time=1),\n",
      "    Message('note_on', channel=0, note=76, velocity=0, time=127),\n",
      "    Message('note_on', channel=0, note=88, velocity=0, time=0),\n",
      "    Message('note_on', channel=0, note=88, velocity=89, time=8),\n",
      "    Message('note_on', channel=0, note=76, velocity=85, time=2),\n",
      "    Message('note_on', channel=0, note=64, velocity=65, time=2),\n",
      "    Message('note_on', channel=0, note=52, velocity=52, time=1),\n",
      "    Message('note_on', channel=0, note=89, velocity=88, time=116),\n",
      "    Message('note_on', channel=0, note=77, velocity=84, time=4),\n",
      "    Message('note_on', channel=0, note=65, velocity=65, time=3),\n",
      "    Message('note_on', channel=0, note=53, velocity=61, time=5),\n",
      "    Message('note_on', channel=0, note=64, velocity=0, time=105),\n",
      "    Message('note_on', channel=0, note=76, velocity=0, time=0),\n",
      "    Message('note_on', channel=0, note=88, velocity=0, time=0),\n",
      "    Message('note_on', channel=0, note=88, velocity=90, time=5),\n",
      "    Message('note_on', channel=0, note=76, velocity=84, time=1),\n",
      "    Message('note_on', channel=0, note=64, velocity=74, time=5),\n",
      "    Message('note_on', channel=0, note=52, velocity=0, time=4),\n",
      "    Message('note_on', channel=0, note=52, velocity=56, time=7),\n",
      "    Message('note_on', channel=0, note=72, velocity=0, time=109),\n",
      "    Message('note_on', channel=0, note=84, velocity=0, time=0),\n",
      "    Message('note_on', channel=0, note=84, velocity=84, time=3),\n",
      "    Message('note_on', channel=0, note=72, velocity=79, time=2),\n",
      "    Message('note_on', channel=0, note=48, velocity=0, time=2),\n",
      "    Message('note_on', channel=0, note=60, velocity=0, time=0),\n",
      "    Message('note_on', channel=0, note=60, velocity=66, time=5),\n",
      "    Message('note_on', channel=0, note=48, velocity=66, time=2),\n",
      "    Message('note_on', channel=0, note=74, velocity=0, time=101),\n",
      "    Message('note_on', channel=0, note=86, velocity=0, time=0),\n",
      "    Message('note_on', channel=0, note=62, velocity=0, time=7),\n",
      "    Message('note_on', channel=0, note=86, velocity=84, time=3),\n",
      "    Message('note_on', channel=0, note=74, velocity=81, time=1),\n",
      "    Message('note_on', channel=0, note=62, velocity=70, time=2),\n",
      "    Message('note_on', channel=0, note=50, velocity=67, time=5),\n",
      "    Message('note_on', channel=0, note=84, velocity=0, time=97),\n",
      "    Message('note_on', channel=0, note=60, velocity=0, time=8),\n",
      "    Message('note_on', channel=0, note=72, velocity=0, time=0),\n",
      "    Message('note_on', channel=0, note=84, velocity=91, time=3),\n",
      "    Message('note_on', channel=0, note=72, velocity=88, time=1),\n",
      "    Message('note_on', channel=0, note=60, velocity=71, time=0),\n",
      "    Message('note_on', channel=0, note=48, velocity=0, time=3),\n",
      "    Message('note_on', channel=0, note=48, velocity=58, time=11),\n",
      "    Message('note_on', channel=0, note=67, velocity=0, time=104),\n",
      "    Message('note_on', channel=0, note=79, velocity=0, time=0),\n",
      "    Message('note_on', channel=0, note=91, velocity=0, time=0),\n",
      "    Message('note_on', channel=0, note=55, velocity=0, time=8),\n",
      "    Message('note_on', channel=0, note=79, velocity=85, time=1),\n",
      "    Message('note_on', channel=0, note=91, velocity=77, time=2),\n",
      "    Message('note_on', channel=0, note=67, velocity=76, time=1),\n",
      "    Message('note_on', channel=0, note=55, velocity=63, time=0),\n",
      "    Message('note_on', channel=0, note=43, velocity=60, time=2),\n",
      "    Message('note_on', channel=0, note=93, velocity=0, time=102),\n",
      "    Message('note_on', channel=0, note=57, velocity=0, time=7),\n",
      "    Message('note_on', channel=0, note=69, velocity=0, time=0),\n",
      "    Message('note_on', channel=0, note=81, velocity=0, time=0),\n",
      "    Message('note_on', channel=0, note=93, velocity=83, time=4),\n",
      "    Message('note_on', channel=0, note=81, velocity=87, time=1),\n",
      "    Message('note_on', channel=0, note=69, velocity=84, time=1),\n",
      "    Message('note_on', channel=0, note=57, velocity=72, time=4),\n",
      "    Message('note_on', channel=0, note=45, velocity=65, time=4),\n",
      "    Message('note_on', channel=0, note=79, velocity=0, time=94),\n",
      "    Message('note_on', channel=0, note=55, velocity=0, time=8),\n",
      "    Message('note_on', channel=0, note=67, velocity=0, time=0),\n",
      "    Message('note_on', channel=0, note=91, velocity=0, time=0),\n",
      "    Message('note_on', channel=0, note=79, velocity=88, time=3),\n",
      "    Message('note_on', channel=0, note=91, velocity=77, time=0),\n",
      "    Message('note_on', channel=0, note=67, velocity=76, time=1),\n",
      "    Message('note_on', channel=0, note=43, velocity=0, time=3),\n",
      "    Message('note_on', channel=0, note=55, velocity=63, time=3),\n",
      "    Message('note_on', channel=0, note=43, velocity=59, time=4),\n",
      "    Message('note_on', channel=0, note=64, velocity=0, time=108),\n",
      "    Message('note_on', channel=0, note=76, velocity=0, time=0),\n",
      "    Message('note_on', channel=0, note=52, velocity=0, time=8),\n",
      "    Message('note_on', channel=0, note=64, velocity=79, time=2),\n",
      "    Message('note_on', channel=0, note=76, velocity=84, time=1),\n",
      "    Message('note_on', channel=0, note=52, velocity=68, time=3),\n",
      "    Message('note_on', channel=0, note=65, velocity=0, time=102),\n",
      "    Message('note_on', channel=0, note=77, velocity=0, time=0),\n",
      "    Message('note_on', channel=0, note=89, velocity=0, time=7),\n",
      "    Message('note_on', channel=0, note=77, velocity=86, time=3),\n",
      "    Message('note_on', channel=0, note=65, velocity=74, time=1),\n",
      "    Message('note_on', channel=0, note=89, velocity=75, time=0),\n",
      "    Message('note_on', channel=0, note=53, velocity=0, time=4),\n",
      "    Message('note_on', channel=0, note=41, velocity=67, time=1),\n",
      "    Message('note_on', channel=0, note=53, velocity=65, time=3),\n",
      "    Message('note_on', channel=0, note=64, velocity=0, time=104),\n",
      "    Message('note_on', channel=0, note=76, velocity=0, time=0),\n",
      "    Message('note_on', channel=0, note=88, velocity=0, time=0),\n",
      "    Message('note_on', channel=0, note=64, velocity=79, time=5),\n",
      "    Message('note_on', channel=0, note=76, velocity=91, time=0),\n",
      "    Message('note_on', channel=0, note=41, velocity=0, time=2),\n",
      "    Message('note_on', channel=0, note=88, velocity=75, time=2),\n",
      "    Message('note_on', channel=0, note=52, velocity=0, time=6),\n",
      "    Message('note_on', channel=0, note=41, velocity=61, time=2),\n",
      "    Message('note_on', channel=0, note=52, velocity=59, time=8),\n",
      "    Message('note_on', channel=0, note=60, velocity=0, time=105),\n",
      "    Message('note_on', channel=0, note=72, velocity=0, time=0),\n",
      "    Message('note_on', channel=0, note=72, velocity=84, time=6),\n",
      "    Message('note_on', channel=0, note=48, velocity=0, time=2),\n",
      "    Message('note_on', channel=0, note=60, velocity=77, time=2),\n",
      "    Message('note_on', channel=0, note=48, velocity=64, time=2),\n",
      "    Message('note_on', channel=0, note=36, velocity=60, time=3),\n",
      "    Message('note_on', channel=0, note=50, velocity=0, time=131),\n",
      "    Message('note_on', channel=0, note=62, velocity=0, time=0),\n",
      "    Message('note_on', channel=0, note=74, velocity=0, time=0),\n",
      "    Message('note_on', channel=0, note=74, velocity=82, time=4),\n",
      "    Message('note_on', channel=0, note=62, velocity=78, time=3),\n",
      "    Message('note_on', channel=0, note=50, velocity=67, time=4),\n",
      "    Message('note_on', channel=0, note=38, velocity=62, time=1),\n",
      "    Message('note_on', channel=0, note=36, velocity=0, time=126),\n",
      "    Message('note_on', channel=0, note=48, velocity=0, time=0),\n",
      "    Message('note_on', channel=0, note=60, velocity=0, time=0),\n",
      "    Message('note_on', channel=0, note=72, velocity=0, time=0),\n",
      "    Message('note_on', channel=0, note=72, velocity=88, time=8),\n",
      "    Message('note_on', channel=0, note=60, velocity=75, time=2),\n",
      "    Message('note_on', channel=0, note=48, velocity=61, time=2),\n",
      "    Message('note_on', channel=0, note=36, velocity=65, time=0),\n",
      "    Message('note_on', channel=0, note=57, velocity=0, time=150),\n",
      "    Message('note_on', channel=0, note=69, velocity=0, time=0),\n",
      "    Message('note_on', channel=0, note=96, velocity=0, time=0),\n",
      "    Message('note_on', channel=0, note=98, velocity=0, time=0),\n",
      "    Message('note_on', channel=0, note=45, velocity=0, time=7),\n",
      "    Message('note_on', channel=0, note=69, velocity=88, time=3),\n",
      "    Message('note_on', channel=0, note=57, velocity=79, time=0),\n",
      "    Message('note_on', channel=0, note=45, velocity=66, time=3),\n",
      "    Message('note_on', channel=0, note=33, velocity=63, time=4),\n",
      "    Message('note_on', channel=0, note=52, velocity=0, time=159),\n",
      "    Message('note_on', channel=0, note=64, velocity=0, time=0),\n",
      "    Message('note_on', channel=0, note=64, velocity=85, time=7),\n",
      "    Message('note_on', channel=0, note=52, velocity=75, time=4),\n",
      "    Message('note_on', channel=0, note=40, velocity=57, time=17),\n",
      "    Message('control_change', channel=0, control=64, value=0, time=237),\n",
      "    Message('note_on', channel=0, note=93, velocity=0, time=1),\n",
      "    Message('note_on', channel=0, note=38, velocity=0, time=0),\n",
      "    Message('note_on', channel=0, note=53, velocity=0, time=0),\n",
      "    Message('note_on', channel=0, note=69, velocity=0, time=0),\n",
      "    Message('note_on', channel=0, note=36, velocity=0, time=0),\n",
      "    Message('note_on', channel=0, note=74, velocity=0, time=1),\n",
      "    Message('note_on', channel=0, note=33, velocity=0, time=0),\n",
      "    Message('note_on', channel=0, note=40, velocity=0, time=0),\n",
      "    Message('note_on', channel=0, note=48, velocity=0, time=0),\n",
      "    Message('note_on', channel=0, note=45, velocity=0, time=0),\n",
      "    Message('note_on', channel=0, note=60, velocity=0, time=0),\n",
      "    Message('note_on', channel=0, note=41, velocity=0, time=0),\n",
      "    Message('note_on', channel=0, note=62, velocity=0, time=0),\n",
      "    Message('note_on', channel=0, note=86, velocity=0, time=0),\n",
      "    Message('note_on', channel=0, note=81, velocity=0, time=0),\n",
      "    Message('note_on', channel=0, note=57, velocity=0, time=0),\n",
      "    Message('note_on', channel=0, note=77, velocity=0, time=1),\n",
      "    Message('note_on', channel=0, note=88, velocity=0, time=0),\n",
      "    Message('note_on', channel=0, note=76, velocity=0, time=0),\n",
      "    Message('note_on', channel=0, note=89, velocity=0, time=0),\n",
      "    Message('note_on', channel=0, note=72, velocity=0, time=1),\n",
      "    Message('note_on', channel=0, note=84, velocity=0, time=0),\n",
      "    Message('note_on', channel=0, note=91, velocity=0, time=1),\n",
      "    Message('note_on', channel=0, note=50, velocity=0, time=14),\n",
      "    Message('note_on', channel=0, note=52, velocity=0, time=0),\n",
      "    Message('note_on', channel=0, note=55, velocity=0, time=0),\n",
      "    Message('note_on', channel=0, note=65, velocity=0, time=0),\n",
      "    Message('note_on', channel=0, note=79, velocity=0, time=0),\n",
      "    Message('note_on', channel=0, note=43, velocity=0, time=16),\n",
      "    Message('note_on', channel=0, note=64, velocity=0, time=0),\n",
      "    Message('note_on', channel=0, note=67, velocity=0, time=0),\n",
      "    Message('note_on', channel=0, note=67, velocity=85, time=5),\n",
      "    Message('note_on', channel=0, note=60, velocity=80, time=0),\n",
      "    Message('note_on', channel=0, note=64, velocity=82, time=1),\n",
      "    Message('note_on', channel=0, note=43, velocity=92, time=1),\n",
      "    Message('note_on', channel=0, note=55, velocity=91, time=2),\n",
      "    Message('note_on', channel=0, note=31, velocity=92, time=1),\n",
      "    Message('control_change', channel=0, control=64, value=127, time=36),\n",
      "    Message('note_on', channel=0, note=75, velocity=92, time=356),\n",
      "    Message('note_on', channel=0, note=87, velocity=89, time=0),\n",
      "    Message('note_on', channel=0, note=63, velocity=74, time=2),\n",
      "    Message('note_on', channel=0, note=51, velocity=67, time=2),\n",
      "    Message('note_on', channel=0, note=62, velocity=76, time=165),\n",
      "    Message('note_on', channel=0, note=86, velocity=90, time=1),\n",
      "    Message('note_on', channel=0, note=50, velocity=67, time=0),\n",
      "    Message('note_on', channel=0, note=74, velocity=81, time=0),\n",
      "    Message('note_on', channel=0, note=61, velocity=77, time=146),\n",
      "    Message('note_on', channel=0, note=85, velocity=80, time=2),\n",
      "    Message('note_on', channel=0, note=49, velocity=71, time=2),\n",
      "    Message('note_on', channel=0, note=73, velocity=80, time=1),\n",
      "    Message('note_on', channel=0, note=60, velocity=0, time=98),\n",
      "    Message('note_on', channel=0, note=60, velocity=75, time=12),\n",
      "    Message('note_on', channel=0, note=84, velocity=74, time=0),\n",
      "    Message('note_on', channel=0, note=72, velocity=72, time=1),\n",
      "    Message('note_on', channel=0, note=48, velocity=68, time=1),\n",
      "    Message('note_on', channel=0, note=83, velocity=88, time=118),\n",
      "    Message('note_on', channel=0, note=59, velocity=74, time=2),\n",
      "    Message('note_on', channel=0, note=71, velocity=81, time=0),\n",
      "    Message('note_on', channel=0, note=47, velocity=64, time=4),\n",
      "    Message('note_on', channel=0, note=58, velocity=73, time=97),\n",
      "    Message('note_on', channel=0, note=82, velocity=77, time=0),\n",
      "    Message('note_on', channel=0, note=70, velocity=78, time=1),\n",
      "    Message('note_on', channel=0, note=46, velocity=65, time=0),\n",
      "    Message('note_on', channel=0, note=31, velocity=0, time=26),\n",
      "    Message('note_on', channel=0, note=81, velocity=85, time=88),\n",
      "    Message('note_on', channel=0, note=69, velocity=80, time=3),\n",
      "    Message('note_on', channel=0, note=57, velocity=78, time=1),\n",
      "    Message('note_on', channel=0, note=45, velocity=69, time=2),\n",
      "    Message('note_on', channel=0, note=80, velocity=82, time=102),\n",
      "    Message('note_on', channel=0, note=68, velocity=77, time=0),\n",
      "    Message('note_on', channel=0, note=56, velocity=76, time=1),\n",
      "    Message('note_on', channel=0, note=44, velocity=70, time=0),\n",
      "    Message('note_on', channel=0, note=43, velocity=0, time=117),\n",
      "    Message('note_on', channel=0, note=55, velocity=0, time=0),\n",
      "    Message('note_on', channel=0, note=67, velocity=0, time=0),\n",
      "    Message('note_on', channel=0, note=79, velocity=89, time=3),\n",
      "    Message('note_on', channel=0, note=67, velocity=74, time=2),\n",
      "    Message('note_on', channel=0, note=55, velocity=73, time=0),\n",
      "    Message('note_on', channel=0, note=43, velocity=74, time=1),\n",
      "    Message('note_on', channel=0, note=66, velocity=76, time=114),\n",
      "    Message('note_on', channel=0, note=78, velocity=76, time=0),\n",
      "    Message('note_on', channel=0, note=54, velocity=76, time=1),\n",
      "    Message('note_on', channel=0, note=42, velocity=77, time=2),\n",
      "    Message('note_on', channel=0, note=41, velocity=70, time=119),\n",
      "    Message('note_on', channel=0, note=77, velocity=87, time=0),\n",
      "    Message('note_on', channel=0, note=53, velocity=73, time=1),\n",
      "    Message('note_on', channel=0, note=65, velocity=62, time=4),\n",
      "    Message('note_on', channel=0, note=69, velocity=0, time=118),\n",
      "    Message('note_on', channel=0, note=48, velocity=0, time=0),\n",
      "    Message('note_on', channel=0, note=53, velocity=0, time=1),\n",
      "    Message('note_on', channel=0, note=49, velocity=0, time=0),\n",
      "    Message('note_on', channel=0, note=50, velocity=0, time=0),\n",
      "    Message('note_on', channel=0, note=47, velocity=0, time=0),\n",
      "    Message('note_on', channel=0, note=54, velocity=0, time=0),\n",
      "    Message('note_on', channel=0, note=71, velocity=0, time=0),\n",
      "    Message('note_on', channel=0, note=62, velocity=0, time=0),\n",
      "    Message('note_on', channel=0, note=66, velocity=0, time=0),\n",
      "    Message('note_on', channel=0, note=68, velocity=0, time=0),\n",
      "    Message('note_on', channel=0, note=67, velocity=0, time=0),\n",
      "    Message('note_on', channel=0, note=42, velocity=0, time=0),\n",
      "    Message('note_on', channel=0, note=70, velocity=0, time=0),\n",
      "    Message('note_on', channel=0, note=73, velocity=0, time=0),\n",
      "    Message('note_on', channel=0, note=56, velocity=0, time=0),\n",
      "    Message('note_on', channel=0, note=65, velocity=0, time=0),\n",
      "    Message('note_on', channel=0, note=86, velocity=0, time=0),\n",
      "    Message('note_on', channel=0, note=75, velocity=0, time=0),\n",
      "    Message('note_on', channel=0, note=46, velocity=0, time=0),\n",
      "    Message('note_on', channel=0, note=45, velocity=0, time=0),\n",
      "    Message('note_on', channel=0, note=74, velocity=0, time=0),\n",
      "    Message('note_on', channel=0, note=51, velocity=0, time=0),\n",
      "    Message('note_on', channel=0, note=60, velocity=0, time=0),\n",
      "    Message('note_on', channel=0, note=55, velocity=0, time=0),\n",
      "    Message('note_on', channel=0, note=58, velocity=0, time=0),\n",
      "    Message('note_on', channel=0, note=43, velocity=0, time=0),\n",
      "    Message('note_on', channel=0, note=64, velocity=0, time=0),\n",
      "    Message('note_on', channel=0, note=57, velocity=0, time=0),\n",
      "    Message('note_on', channel=0, note=83, velocity=0, time=0),\n",
      "    Message('note_on', channel=0, note=72, velocity=0, time=0),\n",
      "    Message('note_on', channel=0, note=41, velocity=0, time=0),\n",
      "    Message('note_on', channel=0, note=44, velocity=0, time=0),\n",
      "    Message('note_on', channel=0, note=81, velocity=0, time=1),\n",
      "    Message('note_on', channel=0, note=78, velocity=0, time=0),\n",
      "    Message('note_on', channel=0, note=79, velocity=0, time=0),\n",
      "    Message('note_on', channel=0, note=61, velocity=0, time=0),\n",
      "    Message('note_on', channel=0, note=77, velocity=0, time=0),\n",
      "    Message('note_on', channel=0, note=84, velocity=0, time=0),\n",
      "    Message('note_on', channel=0, note=63, velocity=0, time=0),\n",
      "    Message('note_on', channel=0, note=87, velocity=0, time=0),\n",
      "    Message('note_on', channel=0, note=59, velocity=0, time=0),\n",
      "    Message('note_on', channel=0, note=85, velocity=0, time=0),\n",
      "    Message('note_on', channel=0, note=82, velocity=0, time=1),\n",
      "    Message('control_change', channel=0, control=64, value=0, time=0),\n",
      "    Message('note_on', channel=0, note=80, velocity=0, time=24),\n",
      "    Message('note_on', channel=0, note=80, velocity=90, time=11),\n",
      "    Message('note_on', channel=0, note=88, velocity=95, time=1),\n",
      "    Message('note_on', channel=0, note=76, velocity=99, time=1),\n",
      "    Message('note_on', channel=0, note=52, velocity=90, time=0),\n",
      "    Message('note_on', channel=0, note=40, velocity=83, time=5),\n",
      "    Message('control_change', channel=0, control=64, value=127, time=28),\n",
      "    Message('note_on', channel=0, note=51, velocity=74, time=126),\n",
      "    Message('note_on', channel=0, note=39, velocity=66, time=1),\n",
      "    Message('note_on', channel=0, note=63, velocity=64, time=6),\n",
      "    Message('note_on', channel=0, note=63, velocity=0, time=5),\n",
      "    Message('note_on', channel=0, note=62, velocity=62, time=106),\n",
      "    Message('note_on', channel=0, note=50, velocity=71, time=2),\n",
      "    Message('note_on', channel=0, note=38, velocity=65, time=4),\n",
      "    Message('note_on', channel=0, note=49, velocity=72, time=108),\n",
      "    Message('note_on', channel=0, note=37, velocity=75, time=0),\n",
      "    Message('note_on', channel=0, note=48, velocity=70, time=116),\n",
      "    Message('note_on', channel=0, note=36, velocity=68, time=0),\n",
      "    Message('note_on', channel=0, note=47, velocity=64, time=142),\n",
      "    Message('note_on', channel=0, note=35, velocity=73, time=1),\n",
      "    Message('note_on', channel=0, note=62, velocity=0, time=128),\n",
      "    Message('control_change', channel=0, control=64, value=0, time=10),\n",
      "    Message('note_on', channel=0, note=80, velocity=0, time=1),\n",
      "    Message('note_on', channel=0, note=49, velocity=0, time=0),\n",
      "    Message('note_on', channel=0, note=51, velocity=0, time=1),\n",
      "    Message('note_on', channel=0, note=39, velocity=0, time=0),\n",
      "    Message('note_on', channel=0, note=76, velocity=0, time=0),\n",
      "    Message('note_on', channel=0, note=37, velocity=0, time=0),\n",
      "    Message('note_on', channel=0, note=86, velocity=91, time=1),\n",
      "    Message('note_on', channel=0, note=48, velocity=0, time=0),\n",
      "    Message('note_on', channel=0, note=38, velocity=0, time=0),\n",
      "    Message('note_on', channel=0, note=36, velocity=0, time=0),\n",
      "    Message('note_on', channel=0, note=88, velocity=0, time=0),\n",
      "    Message('note_on', channel=0, note=47, velocity=0, time=0),\n",
      "    Message('note_on', channel=0, note=50, velocity=0, time=1),\n",
      "    Message('note_on', channel=0, note=77, velocity=83, time=1),\n",
      "    Message('note_on', channel=0, note=35, velocity=0, time=0),\n",
      "    Message('note_on', channel=0, note=74, velocity=89, time=3),\n",
      "    Message('note_on', channel=0, note=46, velocity=75, time=1),\n",
      "    Message('note_on', channel=0, note=79, velocity=87, time=0),\n",
      "    Message('note_on', channel=0, note=34, velocity=76, time=1),\n",
      "    Message('note_on', channel=0, note=52, velocity=0, time=3),\n",
      "    Message('note_on', channel=0, note=40, velocity=0, time=8),\n",
      "    Message('control_change', channel=0, control=64, value=127, time=31),\n",
      "    Message('note_on', channel=0, note=46, velocity=0, time=69),\n",
      "    Message('note_on', channel=0, note=45, velocity=70, time=44),\n",
      "    Message('note_on', channel=0, note=33, velocity=71, time=2),\n",
      "    Message('note_on', channel=0, note=32, velocity=64, time=124),\n",
      "    Message('note_on', channel=0, note=44, velocity=68, time=0),\n",
      "    Message('note_on', channel=0, note=79, velocity=0, time=160),\n",
      "    Message('note_on', channel=0, note=79, velocity=82, time=7),\n",
      "    Message('note_on', channel=0, note=74, velocity=0, time=1),\n",
      "    Message('note_on', channel=0, note=77, velocity=0, time=0),\n",
      "    Message('note_on', channel=0, note=43, velocity=79, time=5),\n",
      "    Message('note_on', channel=0, note=74, velocity=80, time=0),\n",
      "    Message('note_on', channel=0, note=67, velocity=73, time=0),\n",
      "    Message('note_on', channel=0, note=31, velocity=80, time=1),\n",
      "    Message('note_on', channel=0, note=65, velocity=82, time=1),\n",
      "    Message('note_on', channel=0, note=77, velocity=77, time=2),\n",
      "    Message('note_on', channel=0, note=30, velocity=73, time=133),\n",
      "    Message('note_on', channel=0, note=42, velocity=70, time=0),\n",
      "    Message('note_on', channel=0, note=31, velocity=0, time=365),\n",
      "    Message('note_on', channel=0, note=43, velocity=0, time=7),\n",
      "    Message('note_on', channel=0, note=31, velocity=60, time=2),\n",
      "    Message('note_on', channel=0, note=43, velocity=61, time=5),\n",
      "    Message('note_on', channel=0, note=42, velocity=0, time=36),\n",
      "    Message('control_change', channel=0, control=64, value=0, time=1),\n",
      "    Message('note_on', channel=0, note=33, velocity=0, time=2),\n",
      "    Message('note_on', channel=0, note=45, velocity=0, time=2),\n",
      "    Message('note_on', channel=0, note=67, velocity=0, time=2),\n",
      "    Message('note_on', channel=0, note=34, velocity=0, time=4),\n",
      "    Message('note_on', channel=0, note=30, velocity=0, time=8),\n",
      "    Message('note_on', channel=0, note=32, velocity=0, time=0),\n",
      "    Message('note_on', channel=0, note=44, velocity=0, time=0),\n",
      "    Message('note_on', channel=0, note=65, velocity=0, time=0),\n",
      "    Message('note_on', channel=0, note=74, velocity=0, time=0),\n",
      "    Message('note_on', channel=0, note=77, velocity=0, time=0),\n",
      "    Message('note_on', channel=0, note=79, velocity=0, time=0),\n",
      "    Message('note_on', channel=0, note=86, velocity=0, time=0),\n",
      "    Message('note_on', channel=0, note=86, velocity=92, time=4),\n",
      "    Message('note_on', channel=0, note=74, velocity=94, time=4),\n",
      "    Message('note_on', channel=0, note=79, velocity=88, time=1),\n",
      "    Message('note_on', channel=0, note=77, velocity=88, time=1),\n",
      "    Message('note_on', channel=0, note=65, velocity=80, time=0),\n",
      "    Message('note_on', channel=0, note=71, velocity=84, time=0),\n",
      "    Message('note_on', channel=0, note=83, velocity=71, time=4),\n",
      "    Message('note_on', channel=0, note=59, velocity=77, time=3),\n",
      "    Message('note_on', channel=0, note=81, velocity=76, time=1),\n",
      "    Message('control_change', channel=0, control=64, value=127, time=74),\n",
      "    Message('note_on', channel=0, note=65, velocity=0, time=46),\n",
      "    Message('note_on', channel=0, note=100, velocity=93, time=261),\n",
      "    Message('note_on', channel=0, note=88, velocity=94, time=3),\n",
      "    Message('note_on', channel=0, note=76, velocity=84, time=5),\n",
      "    Message('note_on', channel=0, note=98, velocity=80, time=3),\n",
      "    Message('note_on', channel=0, note=31, velocity=0, time=4),\n",
      "    Message('note_on', channel=0, note=64, velocity=73, time=4),\n",
      "    Message('note_on', channel=0, note=74, velocity=0, time=165),\n",
      "    Message('note_on', channel=0, note=76, velocity=0, time=0),\n",
      "    Message('note_on', channel=0, note=86, velocity=0, time=0),\n",
      "    Message('note_on', channel=0, note=98, velocity=0, time=0),\n",
      "    Message('note_on', channel=0, note=88, velocity=0, time=8),\n",
      "    Message('note_on', channel=0, note=98, velocity=92, time=2),\n",
      "    Message('note_on', channel=0, note=74, velocity=85, time=1),\n",
      "    Message('note_on', channel=0, note=86, velocity=82, time=1),\n",
      "    Message('note_on', channel=0, note=76, velocity=78, time=0),\n",
      "    Message('note_on', channel=0, note=62, velocity=71, time=1),\n",
      "    Message('note_on', channel=0, note=88, velocity=74, time=1),\n",
      "    Message('note_on', channel=0, note=81, velocity=0, time=155),\n",
      "    Message('note_on', channel=0, note=93, velocity=96, time=8),\n",
      "    Message('note_on', channel=0, note=81, velocity=81, time=1),\n",
      "    Message('note_on', channel=0, note=69, velocity=74, time=4),\n",
      "    Message('note_on', channel=0, note=57, velocity=67, time=7),\n",
      "    Message('note_on', channel=0, note=79, velocity=0, time=134),\n",
      "    Message('note_on', channel=0, note=91, velocity=85, time=4),\n",
      "    Message('note_on', channel=0, note=79, velocity=79, time=0),\n",
      "    Message('note_on', channel=0, note=67, velocity=71, time=3),\n",
      "    Message('note_on', channel=0, note=55, velocity=59, time=4),\n",
      "    Message('note_on', channel=0, note=64, velocity=0, time=127),\n",
      "    Message('note_on', channel=0, note=76, velocity=0, time=0),\n",
      "    Message('note_on', channel=0, note=88, velocity=0, time=0),\n",
      "    Message('note_on', channel=0, note=88, velocity=90, time=8),\n",
      "    Message('note_on', channel=0, note=76, velocity=84, time=2),\n",
      "    Message('note_on', channel=0, note=64, velocity=75, time=2),\n",
      "    Message('note_on', channel=0, note=52, velocity=69, time=0),\n",
      "    Message('note_on', channel=0, note=74, velocity=0, time=126),\n",
      "    Message('note_on', channel=0, note=86, velocity=0, time=0),\n",
      "    Message('note_on', channel=0, note=62, velocity=0, time=8),\n",
      "    Message('note_on', channel=0, note=86, velocity=79, time=0),\n",
      "    Message('note_on', channel=0, note=74, velocity=76, time=3),\n",
      "    Message('note_on', channel=0, note=50, velocity=65, time=1),\n",
      "    Message('note_on', channel=0, note=62, velocity=69, time=1),\n",
      "    Message('note_on', channel=0, note=57, velocity=0, time=133),\n",
      "    Message('note_on', channel=0, note=69, velocity=0, time=0),\n",
      "    Message('note_on', channel=0, note=81, velocity=0, time=0),\n",
      "    Message('note_on', channel=0, note=81, velocity=82, time=8),\n",
      "    Message('note_on', channel=0, note=69, velocity=81, time=3),\n",
      "    Message('note_on', channel=0, note=45, velocity=67, time=0),\n",
      "    Message('note_on', channel=0, note=57, velocity=71, time=1),\n",
      "    Message('note_on', channel=0, note=43, velocity=0, time=127),\n",
      "    Message('note_on', channel=0, note=55, velocity=0, time=0),\n",
      "    Message('note_on', channel=0, note=67, velocity=0, time=0),\n",
      "    Message('note_on', channel=0, note=79, velocity=0, time=0),\n",
      "    Message('note_on', channel=0, note=79, velocity=78, time=7),\n",
      "    Message('note_on', channel=0, note=67, velocity=77, time=2),\n",
      "    Message('note_on', channel=0, note=55, velocity=69, time=1),\n",
      "    Message('note_on', channel=0, note=43, velocity=72, time=0),\n",
      "    Message('note_on', channel=0, note=52, velocity=0, time=143),\n",
      "    Message('note_on', channel=0, note=64, velocity=0, time=0),\n",
      "    Message('note_on', channel=0, note=76, velocity=0, time=0),\n",
      "    Message('note_on', channel=0, note=76, velocity=85, time=4),\n",
      "    Message('note_on', channel=0, note=64, velocity=85, time=4),\n",
      "    Message('note_on', channel=0, note=52, velocity=76, time=2),\n",
      "    Message('note_on', channel=0, note=40, velocity=69, time=1),\n",
      "    Message('note_on', channel=0, note=40, velocity=0, time=4),\n",
      "    Message('note_on', channel=0, note=50, velocity=0, time=139),\n",
      "    Message('note_on', channel=0, note=62, velocity=0, time=0),\n",
      "    Message('note_on', channel=0, note=74, velocity=0, time=0),\n",
      "    Message('note_on', channel=0, note=69, velocity=0, time=4),\n",
      "    Message('note_on', channel=0, note=50, velocity=74, time=2),\n",
      "    Message('note_on', channel=0, note=74, velocity=75, time=2),\n",
      "    Message('note_on', channel=0, note=62, velocity=80, time=1),\n",
      "    Message('note_on', channel=0, note=38, velocity=70, time=2),\n",
      "    Message('note_on', channel=0, note=64, velocity=0, time=150),\n",
      "    Message('note_on', channel=0, note=64, velocity=69, time=8),\n",
      "    Message('note_on', channel=0, note=67, velocity=0, time=23),\n",
      "    Message('note_on', channel=0, note=67, velocity=85, time=6),\n",
      "    Message('note_on', channel=0, note=43, velocity=0, time=1),\n",
      "    Message('note_on', channel=0, note=55, velocity=0, time=0),\n",
      "    Message('note_on', channel=0, note=43, velocity=80, time=5),\n",
      "    Message('note_on', channel=0, note=31, velocity=78, time=0),\n",
      "    Message('note_on', channel=0, note=55, velocity=80, time=4),\n",
      "    Message('control_change', channel=0, control=64, value=0, time=189),\n",
      "    Message('note_on', channel=0, note=45, velocity=0, time=2),\n",
      "    Message('note_on', channel=0, note=93, velocity=0, time=0),\n",
      "    Message('note_on', channel=0, note=100, velocity=0, time=1),\n",
      "    Message('note_on', channel=0, note=98, velocity=0, time=0),\n",
      "    Message('note_on', channel=0, note=38, velocity=0, time=0),\n",
      "    Message('note_on', channel=0, note=59, velocity=0, time=0),\n",
      "    Message('note_on', channel=0, note=81, velocity=0, time=0),\n",
      "    Message('note_on', channel=0, note=52, velocity=0, time=0),\n",
      "    Message('note_on', channel=0, note=76, velocity=0, time=1),\n",
      "    Message('note_on', channel=0, note=71, velocity=0, time=0),\n",
      "    Message('note_on', channel=0, note=86, velocity=0, time=0),\n",
      "    Message('note_on', channel=0, note=74, velocity=0, time=0),\n",
      "    Message('note_on', channel=0, note=88, velocity=0, time=0),\n",
      "    Message('note_on', channel=0, note=57, velocity=0, time=0),\n",
      "    Message('note_on', channel=0, note=77, velocity=0, time=0),\n",
      "    Message('note_on', channel=0, note=62, velocity=0, time=0),\n",
      "    Message('note_on', channel=0, note=55, velocity=0, time=0),\n",
      "    Message('note_on', channel=0, note=83, velocity=0, time=0),\n",
      "    Message('note_on', channel=0, note=31, velocity=0, time=0),\n",
      "    Message('note_on', channel=0, note=50, velocity=0, time=0),\n",
      "    Message('note_on', channel=0, note=67, velocity=0, time=0),\n",
      "    Message('note_on', channel=0, note=43, velocity=0, time=0),\n",
      "    Message('note_on', channel=0, note=79, velocity=0, time=1),\n",
      "    Message('note_on', channel=0, note=91, velocity=0, time=0),\n",
      "    Message('note_on', channel=0, note=64, velocity=0, time=28),\n",
      "    Message('note_on', channel=0, note=64, velocity=81, time=4),\n",
      "    Message('note_on', channel=0, note=60, velocity=86, time=1),\n",
      "    Message('note_on', channel=0, note=72, velocity=83, time=0),\n",
      "    Message('note_on', channel=0, note=36, velocity=80, time=4),\n",
      "    Message('note_on', channel=0, note=24, velocity=83, time=1),\n",
      "    Message('control_change', channel=0, control=64, value=127, time=51),\n",
      "    Message('note_on', channel=0, note=43, velocity=59, time=268),\n",
      "    Message('note_on', channel=0, note=31, velocity=66, time=2),\n",
      "    Message('note_on', channel=0, note=31, velocity=0, time=214),\n",
      "    Message('note_on', channel=0, note=43, velocity=0, time=0),\n",
      "    Message('note_on', channel=0, note=31, velocity=58, time=5),\n",
      "    Message('note_on', channel=0, note=43, velocity=54, time=1),\n",
      "    Message('note_on', channel=0, note=24, velocity=0, time=71),\n",
      "    Message('note_on', channel=0, note=31, velocity=0, time=100),\n",
      "    Message('note_on', channel=0, note=43, velocity=0, time=0),\n",
      "    Message('note_on', channel=0, note=43, velocity=64, time=11),\n",
      "    Message('note_on', channel=0, note=31, velocity=62, time=0),\n",
      "    Message('note_on', channel=0, note=36, velocity=0, time=173),\n",
      "    Message('note_on', channel=0, note=48, velocity=58, time=3),\n",
      "    Message('note_on', channel=0, note=36, velocity=53, time=2),\n",
      "    Message('note_on', channel=0, note=38, velocity=48, time=23),\n",
      "    Message('note_on', channel=0, note=36, velocity=0, time=95),\n",
      "    Message('note_on', channel=0, note=48, velocity=0, time=0),\n",
      "    Message('note_on', channel=0, note=48, velocity=56, time=10),\n",
      "    Message('note_on', channel=0, note=36, velocity=52, time=0),\n",
      "    Message('note_on', channel=0, note=36, velocity=0, time=159),\n",
      "    Message('note_on', channel=0, note=48, velocity=0, time=0),\n",
      "    Message('note_on', channel=0, note=48, velocity=62, time=5),\n",
      "    Message('note_on', channel=0, note=36, velocity=51, time=4),\n",
      "    Message('note_on', channel=0, note=43, velocity=0, time=152),\n",
      "    Message('note_on', channel=0, note=43, velocity=58, time=11),\n",
      "    Message('note_on', channel=0, note=55, velocity=56, time=0),\n",
      "    Message('note_on', channel=0, note=55, velocity=0, time=150),\n",
      "    Message('note_on', channel=0, note=55, velocity=61, time=7),\n",
      "    Message('note_on', channel=0, note=43, velocity=0, time=1),\n",
      "    Message('note_on', channel=0, note=64, velocity=0, time=3),\n",
      "    Message('note_on', channel=0, note=43, velocity=45, time=2),\n",
      "    Message('note_on', channel=0, note=43, velocity=0, time=172),\n",
      "    Message('note_on', channel=0, note=55, velocity=0, time=0),\n",
      "    Message('note_on', channel=0, note=43, velocity=53, time=8),\n",
      "    Message('note_on', channel=0, note=55, velocity=56, time=2),\n",
      "    Message('note_on', channel=0, note=48, velocity=0, time=197),\n",
      "    Message('note_on', channel=0, note=48, velocity=48, time=6),\n",
      "    Message('note_on', channel=0, note=48, velocity=0, time=232),\n",
      "    Message('note_on', channel=0, note=60, velocity=0, time=0),\n",
      "    Message('note_on', channel=0, note=60, velocity=55, time=7),\n",
      "    Message('note_on', channel=0, note=48, velocity=47, time=2),\n",
      "    Message('note_on', channel=0, note=38, velocity=0, time=222),\n",
      "    Message('control_change', channel=0, control=64, value=0, time=47),\n",
      "    Message('note_on', channel=0, note=36, velocity=0, time=2),\n",
      "    Message('note_on', channel=0, note=31, velocity=0, time=0),\n",
      "    Message('note_on', channel=0, note=60, velocity=0, time=0),\n",
      "    Message('note_on', channel=0, note=72, velocity=0, time=1),\n",
      "    Message('note_on', channel=0, note=43, velocity=0, time=0),\n",
      "    Message('note_on', channel=0, note=48, velocity=0, time=3),\n",
      "    Message('note_on', channel=0, note=48, velocity=43, time=11),\n",
      "    Message('note_on', channel=0, note=55, velocity=0, time=12),\n",
      "    Message('control_change', channel=0, control=64, value=127, time=146),\n",
      "    Message('note_on', channel=0, note=75, velocity=42, time=171),\n",
      "    Message('note_on', channel=0, note=72, velocity=31, time=10),\n",
      "    Message('note_on', channel=0, note=48, velocity=0, time=4),\n",
      "    Message('note_on', channel=0, note=60, velocity=28, time=3),\n",
      "    Message('note_on', channel=0, note=51, velocity=22, time=2),\n",
      "    Message('note_on', channel=0, note=48, velocity=29, time=0),\n",
      "    Message('note_on', channel=0, note=67, velocity=27, time=2),\n",
      "    Message('note_on', channel=0, note=63, velocity=19, time=4),\n",
      "    Message('note_on', channel=0, note=63, velocity=0, time=150),\n",
      "    Message('note_on', channel=0, note=67, velocity=0, time=0),\n",
      "    Message('note_on', channel=0, note=75, velocity=0, time=0),\n",
      "    Message('note_on', channel=0, note=60, velocity=0, time=8),\n",
      "    Message('note_on', channel=0, note=72, velocity=0, time=0),\n",
      "    Message('note_on', channel=0, note=75, velocity=46, time=2),\n",
      "    Message('note_on', channel=0, note=67, velocity=30, time=1),\n",
      "    Message('note_on', channel=0, note=63, velocity=33, time=0),\n",
      "    Message('note_on', channel=0, note=60, velocity=21, time=1),\n",
      "    Message('note_on', channel=0, note=72, velocity=30, time=6),\n",
      "    Message('note_on', channel=0, note=79, velocity=59, time=192),\n",
      "    Message('note_on', channel=0, note=48, velocity=0, time=20),\n",
      "    Message('note_on', channel=0, note=60, velocity=0, time=0),\n",
      "    Message('note_on', channel=0, note=67, velocity=0, time=0),\n",
      "    Message('note_on', channel=0, note=51, velocity=0, time=8),\n",
      "    Message('note_on', channel=0, note=75, velocity=0, time=0),\n",
      "    Message('note_on', channel=0, note=60, velocity=33, time=1),\n",
      "    Message('note_on', channel=0, note=48, velocity=33, time=1),\n",
      "    Message('note_on', channel=0, note=67, velocity=35, time=2),\n",
      "    Message('note_on', channel=0, note=75, velocity=41, time=2),\n",
      "    Message('note_on', channel=0, note=51, velocity=25, time=3),\n",
      "    Message('note_on', channel=0, note=79, velocity=0, time=160),\n",
      "    Message('note_on', channel=0, note=63, velocity=0, time=8),\n",
      "    Message('note_on', channel=0, note=75, velocity=0, time=0),\n",
      "    Message('note_on', channel=0, note=79, velocity=44, time=3),\n",
      "    Message('note_on', channel=0, note=63, velocity=37, time=0),\n",
      "    Message('note_on', channel=0, note=75, velocity=44, time=4),\n",
      "    Message('note_on', channel=0, note=67, velocity=0, time=0),\n",
      "    Message('note_on', channel=0, note=67, velocity=30, time=6),\n",
      "    Message('note_on', channel=0, note=55, velocity=30, time=3),\n",
      "    Message('note_on', channel=0, note=67, velocity=0, time=145),\n",
      "    Message('note_on', channel=0, note=75, velocity=0, time=0),\n",
      "    Message('note_on', channel=0, note=51, velocity=0, time=8),\n",
      "    Message('note_on', channel=0, note=60, velocity=0, time=0),\n",
      "    Message('note_on', channel=0, note=72, velocity=0, time=0),\n",
      "    Message('note_on', channel=0, note=75, velocity=44, time=2),\n",
      "    Message('note_on', channel=0, note=67, velocity=37, time=1),\n",
      "    Message('note_on', channel=0, note=60, velocity=22, time=1),\n",
      "    Message('note_on', channel=0, note=51, velocity=31, time=5),\n",
      "    Message('note_on', channel=0, note=72, velocity=31, time=0),\n",
      "    Message('control_change', channel=0, control=64, value=0, time=159),\n",
      "    Message('note_on', channel=0, note=51, velocity=0, time=2),\n",
      "    Message('note_on', channel=0, note=60, velocity=0, time=1),\n",
      "    Message('note_on', channel=0, note=79, velocity=0, time=0),\n",
      "    Message('note_on', channel=0, note=48, velocity=0, time=13),\n",
      "    Message('note_on', channel=0, note=55, velocity=0, time=0),\n",
      "    Message('note_on', channel=0, note=63, velocity=0, time=0),\n",
      "    Message('note_on', channel=0, note=67, velocity=0, time=0),\n",
      "    Message('note_on', channel=0, note=75, velocity=0, time=0),\n",
      "    Message('note_on', channel=0, note=75, velocity=40, time=11),\n",
      "    Message('note_on', channel=0, note=72, velocity=0, time=4),\n",
      "    Message('note_on', channel=0, note=72, velocity=32, time=11),\n",
      "    Message('note_on', channel=0, note=68, velocity=33, time=2),\n",
      "    Message('note_on', channel=0, note=53, velocity=29, time=17),\n",
      "    Message('note_on', channel=0, note=41, velocity=32, time=2),\n",
      "    Message('control_change', channel=0, control=64, value=127, time=22),\n",
      "    Message('note_on', channel=0, note=75, velocity=0, time=154),\n",
      "    Message('note_on', channel=0, note=72, velocity=0, time=7),\n",
      "    Message('note_on', channel=0, note=75, velocity=45, time=1),\n",
      "    Message('note_on', channel=0, note=72, velocity=33, time=3),\n",
      "    Message('note_on', channel=0, note=68, velocity=0, time=4),\n",
      "    Message('note_on', channel=0, note=68, velocity=26, time=4),\n",
      "    Message('note_on', channel=0, note=60, velocity=17, time=16),\n",
      "    Message('note_on', channel=0, note=68, velocity=0, time=111),\n",
      "    Message('note_on', channel=0, note=63, velocity=45, time=2),\n",
      "    Message('note_on', channel=0, note=53, velocity=0, time=5),\n",
      "    Message('note_on', channel=0, note=75, velocity=0, time=0),\n",
      "    Message('note_on', channel=0, note=68, velocity=37, time=2),\n",
      "    Message('note_on', channel=0, note=56, velocity=38, time=2),\n",
      "    Message('note_on', channel=0, note=75, velocity=48, time=0),\n",
      "    Message('note_on', channel=0, note=72, velocity=0, time=4),\n",
      "    Message('note_on', channel=0, note=53, velocity=25, time=4),\n",
      "    Message('note_on', channel=0, note=72, velocity=37, time=0),\n",
      "    Message('note_on', channel=0, note=80, velocity=72, time=139),\n",
      "    Message('note_on', channel=0, note=60, velocity=0, time=3),\n",
      "    Message('note_on', channel=0, note=60, velocity=35, time=6),\n",
      "    Message('note_on', channel=0, note=72, velocity=0, time=9),\n",
      "    Message('note_on', channel=0, note=68, velocity=0, time=8),\n",
      "    Message('note_on', channel=0, note=72, velocity=39, time=1),\n",
      "    Message('note_on', channel=0, note=68, velocity=39, time=6),\n",
      "    Message('note_on', channel=0, note=53, velocity=0, time=16),\n",
      "    Message('note_on', channel=0, note=53, velocity=21, time=4),\n",
      "    Message('note_on', channel=0, note=56, velocity=0, time=4),\n",
      "    Message('note_on', channel=0, note=56, velocity=16, time=5),\n",
      "    Message('note_on', channel=0, note=63, velocity=0, time=102),\n",
      "    Message('note_on', channel=0, note=56, velocity=0, time=8),\n",
      "    Message('note_on', channel=0, note=68, velocity=0, time=0),\n",
      "    Message('note_on', channel=0, note=63, velocity=39, time=3),\n",
      "    Message('note_on', channel=0, note=56, velocity=34, time=1),\n",
      "    Message('note_on', channel=0, note=72, velocity=0, time=3),\n",
      "    Message('note_on', channel=0, note=68, velocity=45, time=1),\n",
      "    Message('note_on', channel=0, note=72, velocity=42, time=5),\n",
      "    Message('note_on', channel=0, note=53, velocity=0, time=125),\n",
      "    Message('note_on', channel=0, note=53, velocity=26, time=7),\n",
      "    Message('note_on', channel=0, note=65, velocity=25, time=8),\n",
      "    Message('note_on', channel=0, note=68, velocity=0, time=8),\n",
      "    Message('note_on', channel=0, note=72, velocity=0, time=8),\n",
      "    Message('note_on', channel=0, note=75, velocity=0, time=0),\n",
      "    Message('note_on', channel=0, note=68, velocity=42, time=3),\n",
      "    Message('note_on', channel=0, note=72, velocity=39, time=1),\n",
      "    Message('note_on', channel=0, note=75, velocity=49, time=1),\n",
      "    Message('note_on', channel=0, note=80, velocity=0, time=175),\n",
      "    Message('note_on', channel=0, note=56, velocity=0, time=0),\n",
      "    Message('note_on', channel=0, note=63, velocity=0, time=0),\n",
      "    Message('note_on', channel=0, note=72, velocity=0, time=0),\n",
      "    Message('note_on', channel=0, note=75, velocity=0, time=0),\n",
      "    Message('control_change', channel=0, control=64, value=0, time=1),\n",
      "    Message('note_on', channel=0, note=41, velocity=0, time=3),\n",
      "    Message('note_on', channel=0, note=65, velocity=0, time=0),\n",
      "    Message('note_on', channel=0, note=53, velocity=0, time=8),\n",
      "    Message('note_on', channel=0, note=60, velocity=0, time=0),\n",
      "    Message('note_on', channel=0, note=68, velocity=0, time=0),\n",
      "    Message('note_on', channel=0, note=74, velocity=44, time=17),\n",
      "    Message('note_on', channel=0, note=47, velocity=33, time=9),\n",
      "    Message('note_on', channel=0, note=35, velocity=38, time=0),\n",
      "    Message('note_on', channel=0, note=67, velocity=28, time=5),\n",
      "    Message('note_on', channel=0, note=65, velocity=19, time=3),\n",
      "    Message('note_on', channel=0, note=35, velocity=0, time=22),\n",
      "    Message('control_change', channel=0, control=64, value=127, time=21),\n",
      "    Message('note_on', channel=0, note=47, velocity=0, time=145),\n",
      "    Message('note_on', channel=0, note=67, velocity=0, time=0),\n",
      "    Message('note_on', channel=0, note=74, velocity=0, time=0),\n",
      "    Message('note_on', channel=0, note=55, velocity=41, time=4),\n",
      "    Message('note_on', channel=0, note=65, velocity=0, time=4),\n",
      "    Message('note_on', channel=0, note=74, velocity=49, time=2),\n",
      "    Message('note_on', channel=0, note=47, velocity=39, time=1),\n",
      "    Message('note_on', channel=0, note=67, velocity=37, time=1),\n",
      "    Message('note_on', channel=0, note=65, velocity=25, time=2),\n",
      "    Message('note_on', channel=0, note=79, velocity=70, time=201),\n",
      "    Message('note_on', channel=0, note=55, velocity=0, time=24),\n",
      "    Message('note_on', channel=0, note=67, velocity=0, time=0),\n",
      "    Message('note_on', channel=0, note=62, velocity=36, time=4),\n",
      "    Message('note_on', channel=0, note=74, velocity=0, time=3),\n",
      "    Message('note_on', channel=0, note=67, velocity=33, time=4),\n",
      "    Message('note_on', channel=0, note=55, velocity=36, time=0),\n",
      "    Message('note_on', channel=0, note=74, velocity=29, time=0),\n",
      "    Message('note_on', channel=0, note=65, velocity=0, time=4),\n",
      "    Message('note_on', channel=0, note=65, velocity=31, time=9),\n",
      "    Message('note_on', channel=0, note=65, velocity=0, time=152),\n",
      "    Message('note_on', channel=0, note=65, velocity=37, time=9),\n",
      "    Message('note_on', channel=0, note=77, velocity=45, time=5),\n",
      "    Message('note_on', channel=0, note=55, velocity=0, time=2),\n",
      "    Message('note_on', channel=0, note=67, velocity=0, time=0),\n",
      "    Message('note_on', channel=0, note=74, velocity=0, time=0),\n",
      "    Message('note_on', channel=0, note=67, velocity=36, time=4),\n",
      "    Message('note_on', channel=0, note=74, velocity=41, time=1),\n",
      "    Message('note_on', channel=0, note=47, velocity=0, time=2),\n",
      "    Message('note_on', channel=0, note=77, velocity=0, time=0),\n",
      "    Message('note_on', channel=0, note=55, velocity=37, time=3),\n",
      "    Message('note_on', channel=0, note=47, velocity=31, time=7),\n",
      "    Message('note_on', channel=0, note=59, velocity=32, time=1),\n",
      "    Message('note_on', channel=0, note=67, velocity=0, time=158),\n",
      "    Message('note_on', channel=0, note=74, velocity=0, time=0),\n",
      "    Message('note_on', channel=0, note=67, velocity=47, time=4),\n",
      "    Message('note_on', channel=0, note=62, velocity=0, time=4),\n",
      "    Message('note_on', channel=0, note=65, velocity=0, time=0),\n",
      "    Message('note_on', channel=0, note=74, velocity=43, time=3),\n",
      "    Message('note_on', channel=0, note=65, velocity=34, time=4),\n",
      "    Message('note_on', channel=0, note=55, velocity=0, time=1),\n",
      "    Message('note_on', channel=0, note=62, velocity=37, time=2),\n",
      "    Message('note_on', channel=0, note=55, velocity=31, time=6),\n",
      "    Message('note_on', channel=0, note=74, velocity=0, time=161),\n",
      "    Message('note_on', channel=0, note=55, velocity=0, time=7),\n",
      "    Message('note_on', channel=0, note=74, velocity=69, time=3),\n",
      "    Message('note_on', channel=0, note=55, velocity=39, time=8),\n",
      "    Message('note_on', channel=0, note=47, velocity=0, time=5),\n",
      "    Message('note_on', channel=0, note=65, velocity=0, time=0),\n",
      "    Message('note_on', channel=0, note=47, velocity=38, time=4),\n",
      "    Message('note_on', channel=0, note=65, velocity=36, time=0),\n",
      "    Message('note_on', channel=0, note=67, velocity=0, time=3),\n",
      "    Message('note_on', channel=0, note=67, velocity=42, time=10),\n",
      "    Message('note_on', channel=0, note=79, velocity=0, time=210),\n",
      "    Message('note_on', channel=0, note=65, velocity=0, time=0),\n",
      "    Message('note_on', channel=0, note=62, velocity=0, time=1),\n",
      "    Message('note_on', channel=0, note=74, velocity=0, time=0),\n",
      "    Message('note_on', channel=0, note=59, velocity=0, time=0),\n",
      "    Message('control_change', channel=0, control=64, value=0, time=3),\n",
      "    Message('note_on', channel=0, note=47, velocity=0, time=14),\n",
      "    Message('note_on', channel=0, note=55, velocity=0, time=0),\n",
      "    Message('note_on', channel=0, note=63, velocity=38, time=21),\n",
      "    Message('note_on', channel=0, note=67, velocity=0, time=2),\n",
      "    Message('note_on', channel=0, note=67, velocity=37, time=9),\n",
      "    Message('note_on', channel=0, note=36, velocity=39, time=3),\n",
      "    Message('note_on', channel=0, note=48, velocity=40, time=1),\n",
      "    Message('note_on', channel=0, note=60, velocity=30, time=1),\n",
      "    Message('control_change', channel=0, control=64, value=127, time=32),\n",
      "    Message('note_on', channel=0, note=75, velocity=66, time=189),\n",
      "    Message('note_on', channel=0, note=67, velocity=0, time=11),\n",
      "    Message('note_on', channel=0, note=60, velocity=0, time=8),\n",
      "    Message('note_on', channel=0, note=67, velocity=42, time=2),\n",
      "    Message('note_on', channel=0, note=72, velocity=48, time=2),\n",
      "    Message('note_on', channel=0, note=60, velocity=31, time=7),\n",
      "    Message('note_on', channel=0, note=48, velocity=0, time=4),\n",
      "    Message('note_on', channel=0, note=48, velocity=28, time=5),\n",
      "    Message('note_on', channel=0, note=55, velocity=41, time=6),\n",
      "    Message('note_on', channel=0, note=77, velocity=63, time=115),\n",
      "    Message('note_on', channel=0, note=67, velocity=0, time=12),\n",
      "    Message('note_on', channel=0, note=72, velocity=0, time=0),\n",
      "    Message('note_on', channel=0, note=72, velocity=39, time=6),\n",
      "    Message('note_on', channel=0, note=67, velocity=37, time=4),\n",
      "    Message('note_on', channel=0, note=55, velocity=0, time=44),\n",
      "    Message('note_on', channel=0, note=63, velocity=0, time=0),\n",
      "    Message('note_on', channel=0, note=63, velocity=40, time=10),\n",
      "    Message('note_on', channel=0, note=55, velocity=25, time=1),\n",
      "    Message('note_on', channel=0, note=67, velocity=0, time=51),\n",
      "    Message('note_on', channel=0, note=72, velocity=0, time=0),\n",
      "    Message('note_on', channel=0, note=75, velocity=0, time=0),\n",
      "    Message('note_on', channel=0, note=75, velocity=65, time=9),\n",
      "    Message('note_on', channel=0, note=72, velocity=60, time=1),\n",
      "    Message('note_on', channel=0, note=67, velocity=50, time=0),\n",
      "    Message('note_on', channel=0, note=55, velocity=0, time=120),\n",
      "    Message('note_on', channel=0, note=74, velocity=66, time=10),\n",
      "    Message('note_on', channel=0, note=55, velocity=43, time=1),\n",
      "    Message('note_on', channel=0, note=67, velocity=0, time=5),\n",
      "    Message('note_on', channel=0, note=67, velocity=52, time=11),\n",
      "    Message('note_on', channel=0, note=75, velocity=0, time=111),\n",
      "    Message('note_on', channel=0, note=67, velocity=0, time=8),\n",
      "    Message('note_on', channel=0, note=75, velocity=72, time=3),\n",
      "    Message('note_on', channel=0, note=72, velocity=0, time=5),\n",
      "    Message('note_on', channel=0, note=67, velocity=57, time=3),\n",
      "    Message('note_on', channel=0, note=72, velocity=58, time=2),\n",
      "    Message('note_on', channel=0, note=48, velocity=0, time=10),\n",
      "    Message('note_on', channel=0, note=55, velocity=0, time=0),\n",
      "    Message('note_on', channel=0, note=63, velocity=0, time=0),\n",
      "    Message('note_on', channel=0, note=63, velocity=40, time=4),\n",
      "    Message('note_on', channel=0, note=48, velocity=33, time=0),\n",
      "    Message('note_on', channel=0, note=55, velocity=38, time=1),\n",
      "    Message('note_on', channel=0, note=77, velocity=0, time=103),\n",
      "    Message('note_on', channel=0, note=72, velocity=0, time=7),\n",
      "    Message('note_on', channel=0, note=77, velocity=68, time=1),\n",
      "    Message('note_on', channel=0, note=67, velocity=0, time=7),\n",
      "    Message('note_on', channel=0, note=72, velocity=61, time=3),\n",
      "    Message('note_on', channel=0, note=67, velocity=52, time=8),\n",
      "    Message('note_on', channel=0, note=48, velocity=0, time=12),\n",
      "    Message('note_on', channel=0, note=55, velocity=0, time=0),\n",
      "    Message('note_on', channel=0, note=55, velocity=38, time=8),\n",
      "    Message('note_on', channel=0, note=48, velocity=38, time=3),\n",
      "    Message('note_on', channel=0, note=72, velocity=0, time=112),\n",
      "    Message('note_on', channel=0, note=79, velocity=64, time=2),\n",
      "    Message('note_on', channel=0, note=67, velocity=0, time=6),\n",
      "    Message('note_on', channel=0, note=72, velocity=59, time=3),\n",
      "    Message('note_on', channel=0, note=67, velocity=43, time=1),\n",
      "    Message('note_on', channel=0, note=36, velocity=0, time=134),\n",
      "    Message('note_on', channel=0, note=72, velocity=0, time=8),\n",
      "    Message('control_change', channel=0, control=64, value=0, time=7),\n",
      "    Message('note_on', channel=0, note=74, velocity=0, time=2),\n",
      "    Message('note_on', channel=0, note=67, velocity=0, time=0),\n",
      "    Message('note_on', channel=0, note=75, velocity=0, time=1),\n",
      "    Message('note_on', channel=0, note=72, velocity=63, time=0),\n",
      "    Message('note_on', channel=0, note=79, velocity=0, time=1),\n",
      "    Message('note_on', channel=0, note=48, velocity=0, time=12),\n",
      "    Message('note_on', channel=0, note=55, velocity=0, time=0),\n",
      "    Message('note_on', channel=0, note=68, velocity=46, time=0),\n",
      "    Message('note_on', channel=0, note=63, velocity=0, time=7),\n",
      "    Message('note_on', channel=0, note=77, velocity=0, time=0),\n",
      "    Message('note_on', channel=0, note=63, velocity=29, time=11),\n",
      "    Message('note_on', channel=0, note=44, velocity=43, time=2),\n",
      "    Message('note_on', channel=0, note=51, velocity=32, time=4),\n",
      "    Message('control_change', channel=0, control=64, value=127, time=45),\n",
      "    Message('note_on', channel=0, note=44, velocity=0, time=23),\n",
      "    Message('note_on', channel=0, note=63, velocity=0, time=107),\n",
      "    Message('note_on', channel=0, note=68, velocity=0, time=8),\n",
      "    Message('note_on', channel=0, note=63, velocity=37, time=3),\n",
      "    Message('note_on', channel=0, note=56, velocity=48, time=2),\n",
      "    Message('note_on', channel=0, note=68, velocity=44, time=4),\n",
      "    Message('note_on', channel=0, note=48, velocity=33, time=2),\n",
      "    Message('note_on', channel=0, note=44, velocity=37, time=1),\n",
      "    Message('note_on', channel=0, note=60, velocity=0, time=118),\n",
      "    Message('note_on', channel=0, note=63, velocity=0, time=0),\n",
      "    Message('note_on', channel=0, note=68, velocity=0, time=0),\n",
      "    Message('note_on', channel=0, note=68, velocity=47, time=8),\n",
      "    Message('note_on', channel=0, note=44, velocity=0, time=0),\n",
      "    Message('note_on', channel=0, note=48, velocity=0, time=0),\n",
      "    Message('note_on', channel=0, note=56, velocity=0, time=0),\n",
      "    Message('note_on', channel=0, note=63, velocity=40, time=1),\n",
      "    Message('note_on', channel=0, note=60, velocity=40, time=1),\n",
      "    Message('note_on', channel=0, note=56, velocity=40, time=3),\n",
      "    Message('note_on', channel=0, note=48, velocity=35, time=0),\n",
      "    Message('note_on', channel=0, note=44, velocity=38, time=1),\n",
      "    Message('note_on', channel=0, note=72, velocity=0, time=155),\n",
      "    Message('note_on', channel=0, note=72, velocity=58, time=7),\n",
      "    Message('note_on', channel=0, note=48, velocity=0, time=16),\n",
      "    Message('note_on', channel=0, note=68, velocity=0, time=0),\n",
      "    Message('note_on', channel=0, note=68, velocity=40, time=6),\n",
      "    Message('note_on', channel=0, note=56, velocity=0, time=2),\n",
      "    Message('note_on', channel=0, note=63, velocity=0, time=0),\n",
      "    Message('note_on', channel=0, note=48, velocity=37, time=4),\n",
      "    Message('note_on', channel=0, note=63, velocity=37, time=2),\n",
      "    Message('note_on', channel=0, note=56, velocity=39, time=3),\n",
      "    Message('note_on', channel=0, note=60, velocity=0, time=175),\n",
      "    Message('note_on', channel=0, note=63, velocity=0, time=0),\n",
      "    Message('note_on', channel=0, note=60, velocity=43, time=6),\n",
      "    Message('note_on', channel=0, note=56, velocity=0, time=2),\n",
      "    Message('note_on', channel=0, note=63, velocity=35, time=2),\n",
      "    Message('note_on', channel=0, note=48, velocity=0, time=6),\n",
      "    Message('note_on', channel=0, note=56, velocity=35, time=3),\n",
      "    Message('note_on', channel=0, note=48, velocity=27, time=2),\n",
      "    Message('note_on', channel=0, note=63, velocity=0, time=164),\n",
      "    Message('note_on', channel=0, note=68, velocity=0, time=0),\n",
      "    Message('note_on', channel=0, note=68, velocity=43, time=6),\n",
      "    Message('note_on', channel=0, note=63, velocity=36, time=1),\n",
      "    Message('note_on', channel=0, note=56, velocity=0, time=0),\n",
      "    Message('note_on', channel=0, note=56, velocity=38, time=7),\n",
      "    Message('note_on', channel=0, note=48, velocity=0, time=9),\n",
      "    Message('note_on', channel=0, note=48, velocity=31, time=4),\n",
      "    Message('note_on', channel=0, note=72, velocity=0, time=119),\n",
      "    Message('note_on', channel=0, note=72, velocity=54, time=11),\n",
      "    Message('note_on', channel=0, note=44, velocity=0, time=138),\n",
      "    Message('control_change', channel=0, control=64, value=0, time=0),\n",
      "    Message('note_on', channel=0, note=68, velocity=0, time=1),\n",
      "    Message('note_on', channel=0, note=60, velocity=0, time=0),\n",
      "    Message('note_on', channel=0, note=48, velocity=0, time=0),\n",
      "    Message('note_on', channel=0, note=63, velocity=0, time=0),\n",
      "    Message('note_on', channel=0, note=56, velocity=0, time=0),\n",
      "    Message('note_on', channel=0, note=72, velocity=0, time=2),\n",
      "    Message('note_on', channel=0, note=51, velocity=0, time=9),\n",
      "    Message('note_on', channel=0, note=74, velocity=57, time=18),\n",
      "    Message('note_on', channel=0, note=29, velocity=40, time=8),\n",
      "    Message('note_on', channel=0, note=41, velocity=33, time=1),\n",
      "    Message('note_on', channel=0, note=62, velocity=40, time=7),\n",
      "    Message('note_on', channel=0, note=68, velocity=40, time=0),\n",
      "    Message('control_change', channel=0, control=64, value=127, time=43),\n",
      "    Message('note_on', channel=0, note=29, velocity=0, time=7),\n",
      "    Message('note_on', channel=0, note=62, velocity=0, time=208),\n",
      "    Message('note_on', channel=0, note=62, velocity=42, time=11),\n",
      "    Message('note_on', channel=0, note=68, velocity=0, time=4),\n",
      "    Message('note_on', channel=0, note=56, velocity=44, time=5),\n",
      "    Message('note_on', channel=0, note=68, velocity=40, time=4),\n",
      "    Message('note_on', channel=0, note=50, velocity=31, time=11),\n",
      "    Message('note_on', channel=0, note=68, velocity=0, time=141),\n",
      "    Message('note_on', channel=0, note=68, velocity=41, time=10),\n",
      "    Message('note_on', channel=0, note=60, velocity=35, time=2),\n",
      "    Message('note_on', channel=0, note=62, velocity=0, time=12),\n",
      "    Message('note_on', channel=0, note=62, velocity=40, time=5),\n",
      "    Message('note_on', channel=0, note=56, velocity=0, time=2),\n",
      "    Message('note_on', channel=0, note=53, velocity=20, time=8),\n",
      "    Message('note_on', channel=0, note=56, velocity=25, time=1),\n",
      "    Message('note_on', channel=0, note=72, velocity=59, time=116),\n",
      "    Message('note_on', channel=0, note=60, velocity=0, time=21),\n",
      "    Message('note_on', channel=0, note=62, velocity=0, time=0),\n",
      "    Message('note_on', channel=0, note=62, velocity=34, time=4),\n",
      "    Message('note_on', channel=0, note=53, velocity=0, time=4),\n",
      "    Message('note_on', channel=0, note=56, velocity=0, time=0),\n",
      "    Message('note_on', channel=0, note=68, velocity=0, time=0),\n",
      "    Message('note_on', channel=0, note=60, velocity=21, time=0),\n",
      "    Message('note_on', channel=0, note=53, velocity=19, time=4),\n",
      "    Message('note_on', channel=0, note=68, velocity=33, time=4),\n",
      "    Message('note_on', channel=0, note=56, velocity=35, time=2),\n",
      "    Message('note_on', channel=0, note=53, velocity=0, time=174),\n",
      "    Message('note_on', channel=0, note=56, velocity=0, time=0),\n",
      "    Message('note_on', channel=0, note=60, velocity=0, time=0),\n",
      "    Message('note_on', channel=0, note=62, velocity=0, time=0),\n",
      "    Message('note_on', channel=0, note=60, velocity=38, time=4),\n",
      "    Message('note_on', channel=0, note=56, velocity=28, time=5),\n",
      "    Message('note_on', channel=0, note=62, velocity=40, time=2),\n",
      "    Message('note_on', channel=0, note=53, velocity=31, time=0),\n",
      "    Message('note_on', channel=0, note=62, velocity=0, time=173),\n",
      "    Message('note_on', channel=0, note=62, velocity=41, time=11),\n",
      "    Message('note_on', channel=0, note=50, velocity=0, time=5),\n",
      "    Message('note_on', channel=0, note=60, velocity=0, time=0),\n",
      "    Message('note_on', channel=0, note=60, velocity=25, time=4),\n",
      "    Message('note_on', channel=0, note=56, velocity=0, time=3),\n",
      "    Message('note_on', channel=0, note=50, velocity=34, time=4),\n",
      "    Message('note_on', channel=0, note=56, velocity=33, time=4),\n",
      "    Message('note_on', channel=0, note=68, velocity=0, time=123),\n",
      "    Message('note_on', channel=0, note=68, velocity=63, time=5),\n",
      "    Message('note_on', channel=0, note=67, velocity=59, time=208),\n",
      "    Message('note_on', channel=0, note=60, velocity=0, time=10),\n",
      "    Message('note_on', channel=0, note=60, velocity=34, time=11),\n",
      "    Message('note_on', channel=0, note=43, velocity=26, time=0),\n",
      "    Message('note_on', channel=0, note=31, velocity=29, time=0),\n",
      "    Message('note_on', channel=0, note=41, velocity=0, time=1),\n",
      "    Message('note_on', channel=0, note=56, velocity=0, time=1),\n",
      "    Message('control_change', channel=0, control=64, value=0, time=0),\n",
      "    Message('note_on', channel=0, note=68, velocity=0, time=0),\n",
      "    Message('note_on', channel=0, note=72, velocity=0, time=0),\n",
      "    Message('note_on', channel=0, note=74, velocity=0, time=1),\n",
      "    Message('note_on', channel=0, note=65, velocity=31, time=1),\n",
      "    Message('note_on', channel=0, note=50, velocity=0, time=8),\n",
      "    Message('note_on', channel=0, note=53, velocity=0, time=7),\n",
      "    Message('note_on', channel=0, note=62, velocity=0, time=0),\n",
      "    Message('note_on', channel=0, note=31, velocity=0, time=76),\n",
      "    Message('control_change', channel=0, control=64, value=127, time=24),\n",
      "    Message('note_on', channel=0, note=43, velocity=0, time=39),\n",
      "    Message('note_on', channel=0, note=60, velocity=0, time=115),\n",
      "    Message('note_on', channel=0, note=65, velocity=0, time=0),\n",
      "    Message('note_on', channel=0, note=67, velocity=0, time=8),\n",
      "    Message('note_on', channel=0, note=60, velocity=26, time=1),\n",
      "    Message('note_on', channel=0, note=65, velocity=30, time=1),\n",
      "    Message('note_on', channel=0, note=50, velocity=36, time=2),\n",
      "    Message('note_on', channel=0, note=67, velocity=37, time=0),\n",
      "    Message('note_on', channel=0, note=43, velocity=27, time=4),\n",
      "    Message('note_on', channel=0, note=55, velocity=27, time=2),\n",
      "    Message('note_on', channel=0, note=65, velocity=0, time=174),\n",
      "    Message('note_on', channel=0, note=55, velocity=0, time=8),\n",
      "    Message('note_on', channel=0, note=60, velocity=0, time=0),\n",
      "    Message('note_on', channel=0, note=67, velocity=0, time=0),\n",
      "    Message('note_on', channel=0, note=65, velocity=31, time=2),\n",
      "    Message('note_on', channel=0, note=60, velocity=32, time=3),\n",
      "    Message('note_on', channel=0, note=67, velocity=33, time=1),\n",
      "    Message('note_on', channel=0, note=55, velocity=30, time=1),\n",
      "    Message('note_on', channel=0, note=43, velocity=0, time=0),\n",
      "    Message('note_on', channel=0, note=50, velocity=0, time=0),\n",
      "    Message('note_on', channel=0, note=50, velocity=25, time=4),\n",
      "    Message('note_on', channel=0, note=43, velocity=27, time=2),\n",
      "    Message('note_on', channel=0, note=62, velocity=41, time=174),\n",
      "    Message('note_on', channel=0, note=59, velocity=41, time=23),\n",
      "    Message('note_on', channel=0, note=43, velocity=0, time=5),\n",
      "    Message('note_on', channel=0, note=50, velocity=0, time=0),\n",
      "    Message('note_on', channel=0, note=50, velocity=26, time=4),\n",
      "    Message('note_on', channel=0, note=43, velocity=31, time=0),\n",
      "    Message('control_change', channel=0, control=64, value=0, time=10),\n",
      "    Message('note_on', channel=0, note=60, velocity=0, time=3),\n",
      "    Message('note_on', channel=0, note=67, velocity=0, time=1),\n",
      "    Message('control_change', channel=0, control=64, value=127, time=112),\n",
      "    Message('note_on', channel=0, note=70, velocity=52, time=144),\n",
      "    Message('note_on', channel=0, note=59, velocity=0, time=41),\n",
      "    Message('note_on', channel=0, note=68, velocity=53, time=7),\n",
      "    Message('note_on', channel=0, note=59, velocity=38, time=3),\n",
      "    Message('note_on', channel=0, note=55, velocity=0, time=28),\n",
      "    Message('note_on', channel=0, note=55, velocity=14, time=11),\n",
      "    Message('note_on', channel=0, note=67, velocity=53, time=176),\n",
      "    Message('note_on', channel=0, note=50, velocity=0, time=20),\n",
      "    Message('note_on', channel=0, note=59, velocity=0, time=0),\n",
      "    Message('note_on', channel=0, note=50, velocity=26, time=4),\n",
      "    Message('note_on', channel=0, note=65, velocity=0, time=4),\n",
      "    Message('note_on', channel=0, note=59, velocity=32, time=4),\n",
      "    Message('note_on', channel=0, note=65, velocity=40, time=4),\n",
      "    Message('note_on', channel=0, note=43, velocity=0, time=115),\n",
      "    Message('note_on', channel=0, note=43, velocity=34, time=4),\n",
      "    Message('note_on', channel=0, note=62, velocity=0, time=57),\n",
      "    Message('note_on', channel=0, note=62, velocity=64, time=9),\n",
      "    Message('note_on', channel=0, note=59, velocity=0, time=7),\n",
      "    Message('note_on', channel=0, note=59, velocity=52, time=5),\n",
      "    Message('note_on', channel=0, note=53, velocity=31, time=6),\n",
      "    Message('note_on', channel=0, note=68, velocity=0, time=203),\n",
      "    Message('note_on', channel=0, note=53, velocity=0, time=0),\n",
      "    Message('note_on', channel=0, note=70, velocity=0, time=0),\n",
      "    Message('note_on', channel=0, note=50, velocity=0, time=1),\n",
      "    Message('control_change', channel=0, control=64, value=0, time=0),\n",
      "    Message('note_on', channel=0, note=65, velocity=0, time=0),\n",
      "    Message('note_on', channel=0, note=67, velocity=0, time=0),\n",
      "    Message('note_on', channel=0, note=55, velocity=0, time=0),\n",
      "    Message('note_on', channel=0, note=59, velocity=0, time=0),\n",
      "    Message('note_on', channel=0, note=62, velocity=0, time=0),\n",
      "    Message('note_on', channel=0, note=63, velocity=50, time=11),\n",
      "    Message('note_on', channel=0, note=43, velocity=0, time=4),\n",
      "    Message('note_on', channel=0, note=60, velocity=34, time=4),\n",
      "    Message('note_on', channel=0, note=43, velocity=31, time=7),\n",
      "    Message('note_on', channel=0, note=48, velocity=28, time=0),\n",
      "    Message('note_on', channel=0, note=36, velocity=28, time=1),\n",
      "    Message('control_change', channel=0, control=64, value=127, time=142),\n",
      "    Message('note_on', channel=0, note=60, velocity=0, time=153),\n",
      "    Message('note_on', channel=0, note=60, velocity=51, time=7),\n",
      "    Message('note_on', channel=0, note=43, velocity=0, time=1),\n",
      "    Message('note_on', channel=0, note=48, velocity=0, time=8),\n",
      "    Message('note_on', channel=0, note=43, velocity=31, time=2),\n",
      "    Message('note_on', channel=0, note=51, velocity=24, time=2),\n",
      "    Message('note_on', channel=0, note=55, velocity=29, time=3),\n",
      "    Message('note_on', channel=0, note=48, velocity=30, time=3),\n",
      "    Message('note_on', channel=0, note=55, velocity=0, time=189),\n",
      "    Message('note_on', channel=0, note=55, velocity=40, time=5),\n",
      "    Message('note_on', channel=0, note=43, velocity=0, time=18),\n",
      "    Message('note_on', channel=0, note=48, velocity=0, time=0),\n",
      "    Message('note_on', channel=0, note=51, velocity=0, time=0),\n",
      "    Message('note_on', channel=0, note=51, velocity=25, time=4),\n",
      "    Message('note_on', channel=0, note=43, velocity=25, time=2),\n",
      "    Message('note_on', channel=0, note=48, velocity=33, time=1),\n",
      "    Message('note_on', channel=0, note=48, velocity=0, time=162),\n",
      "    Message('note_on', channel=0, note=48, velocity=37, time=8),\n",
      "    Message('note_on', channel=0, note=43, velocity=0, time=8),\n",
      "    Message('note_on', channel=0, note=51, velocity=0, time=0),\n",
      "    Message('note_on', channel=0, note=55, velocity=0, time=7),\n",
      "    Message('note_on', channel=0, note=51, velocity=34, time=3),\n",
      "    Message('note_on', channel=0, note=43, velocity=27, time=1),\n",
      "    Message('note_on', channel=0, note=55, velocity=33, time=1),\n",
      "    Message('note_on', channel=0, note=55, velocity=0, time=164),\n",
      "    Message('note_on', channel=0, note=55, velocity=38, time=5),\n",
      "    Message('note_on', channel=0, note=48, velocity=0, time=3),\n",
      "    Message('note_on', channel=0, note=48, velocity=32, time=6),\n",
      "    Message('note_on', channel=0, note=51, velocity=0, time=2),\n",
      "    Message('note_on', channel=0, note=51, velocity=28, time=4),\n",
      "    Message('note_on', channel=0, note=60, velocity=0, time=1),\n",
      "    Message('control_change', channel=0, control=64, value=0, time=7),\n",
      "    Message('control_change', channel=0, control=64, value=127, time=18),\n",
      "    Message('note_on', channel=0, note=48, velocity=0, time=200),\n",
      "    Message('note_on', channel=0, note=48, velocity=30, time=5),\n",
      "    Message('note_on', channel=0, note=43, velocity=0, time=3),\n",
      "    Message('note_on', channel=0, note=51, velocity=0, time=0),\n",
      "    Message('note_on', channel=0, note=55, velocity=0, time=0),\n",
      "    Message('note_on', channel=0, note=51, velocity=33, time=4),\n",
      "    Message('note_on', channel=0, note=43, velocity=31, time=0),\n",
      "    Message('note_on', channel=0, note=55, velocity=34, time=0),\n",
      "    Message('note_on', channel=0, note=36, velocity=0, time=272),\n",
      "    Message('note_on', channel=0, note=51, velocity=0, time=0),\n",
      "    Message('note_on', channel=0, note=63, velocity=0, time=1),\n",
      "    Message('note_on', channel=0, note=48, velocity=0, time=1),\n",
      "    Message('note_on', channel=0, note=43, velocity=0, time=0),\n",
      "    Message('note_on', channel=0, note=55, velocity=0, time=1),\n",
      "    Message('control_change', channel=0, control=64, value=0, time=1),\n",
      "    Message('note_on', channel=0, note=58, velocity=45, time=38),\n",
      "    Message('note_on', channel=0, note=55, velocity=32, time=6),\n",
      "    Message('note_on', channel=0, note=51, velocity=30, time=8),\n",
      "    Message('note_on', channel=0, note=39, velocity=34, time=1),\n",
      "    Message('note_on', channel=0, note=27, velocity=42, time=1),\n",
      "    Message('control_change', channel=0, control=64, value=127, time=50),\n",
      "    Message('note_on', channel=0, note=27, velocity=0, time=23),\n",
      "    Message('note_on', channel=0, note=51, velocity=0, time=292),\n",
      "    Message('note_on', channel=0, note=51, velocity=35, time=5),\n",
      "    Message('note_on', channel=0, note=58, velocity=0, time=2),\n",
      "    Message('note_on', channel=0, note=58, velocity=33, time=4),\n",
      "    Message('note_on', channel=0, note=55, velocity=0, time=12),\n",
      "    Message('note_on', channel=0, note=70, velocity=29, time=2),\n",
      "    Message('note_on', channel=0, note=55, velocity=23, time=2),\n",
      "    Message('note_on', channel=0, note=75, velocity=29, time=1),\n",
      "    Message('note_on', channel=0, note=67, velocity=23, time=6),\n",
      "    Message('note_on', channel=0, note=75, velocity=0, time=150),\n",
      "    Message('note_on', channel=0, note=58, velocity=0, time=8),\n",
      "    Message('note_on', channel=0, note=67, velocity=0, time=0),\n",
      "    Message('note_on', channel=0, note=70, velocity=0, time=0),\n",
      "    Message('note_on', channel=0, note=75, velocity=51, time=3),\n",
      "    Message('note_on', channel=0, note=67, velocity=44, time=1),\n",
      "    Message('note_on', channel=0, note=55, velocity=0, time=3),\n",
      "    Message('note_on', channel=0, note=58, velocity=35, time=0),\n",
      "    Message('note_on', channel=0, note=70, velocity=35, time=2),\n",
      "    Message('note_on', channel=0, note=63, velocity=36, time=6),\n",
      "    Message('note_on', channel=0, note=55, velocity=29, time=0),\n",
      "    Message('note_on', channel=0, note=79, velocity=70, time=147),\n",
      "    Message('note_on', channel=0, note=58, velocity=0, time=14),\n",
      "    Message('note_on', channel=0, note=67, velocity=0, time=0),\n",
      "    Message('note_on', channel=0, note=70, velocity=0, time=0),\n",
      "    Message('note_on', channel=0, note=58, velocity=40, time=7),\n",
      "    Message('note_on', channel=0, note=55, velocity=0, time=1),\n",
      "    Message('note_on', channel=0, note=70, velocity=50, time=3),\n",
      "    Message('note_on', channel=0, note=67, velocity=45, time=0),\n",
      "    Message('note_on', channel=0, note=55, velocity=31, time=4),\n",
      "    Message('note_on', channel=0, note=51, velocity=0, time=1),\n",
      "    Message('note_on', channel=0, note=63, velocity=0, time=0),\n",
      "    Message('note_on', channel=0, note=75, velocity=0, time=0),\n",
      "    Message('note_on', channel=0, note=63, velocity=30, time=5),\n",
      "    Message('note_on', channel=0, note=75, velocity=33, time=4),\n",
      "    Message('note_on', channel=0, note=51, velocity=33, time=0),\n",
      "    Message('note_on', channel=0, note=67, velocity=0, time=144),\n",
      "    Message('note_on', channel=0, note=75, velocity=0, time=0),\n",
      "    Message('note_on', channel=0, note=67, velocity=38, time=7),\n",
      "    Message('note_on', channel=0, note=75, velocity=48, time=0),\n",
      "    Message('note_on', channel=0, note=63, velocity=0, time=1),\n",
      "    Message('note_on', channel=0, note=63, velocity=40, time=5),\n",
      "    Message('note_on', channel=0, note=70, velocity=0, time=3),\n",
      "    Message('note_on', channel=0, note=70, velocity=39, time=4),\n",
      "    Message('note_on', channel=0, note=58, velocity=0, time=3),\n",
      "    Message('note_on', channel=0, note=58, velocity=32, time=5),\n",
      "    Message('note_on', channel=0, note=55, velocity=0, time=3),\n",
      "    Message('note_on', channel=0, note=55, velocity=17, time=5),\n",
      "    Message('note_on', channel=0, note=51, velocity=0, time=125),\n",
      "    Message('note_on', channel=0, note=58, velocity=0, time=0),\n",
      "    Message('note_on', channel=0, note=55, velocity=0, time=8),\n",
      "    Message('note_on', channel=0, note=58, velocity=41, time=4),\n",
      "    Message('note_on', channel=0, note=51, velocity=47, time=0),\n",
      "    Message('note_on', channel=0, note=55, velocity=29, time=3),\n",
      "    Message('note_on', channel=0, note=55, velocity=0, time=196),\n",
      "    Message('note_on', channel=0, note=70, velocity=0, time=0),\n",
      "    Message('note_on', channel=0, note=67, velocity=0, time=0),\n",
      "    Message('note_on', channel=0, note=51, velocity=0, time=0),\n",
      "    Message('note_on', channel=0, note=58, velocity=0, time=0),\n",
      "    Message('note_on', channel=0, note=39, velocity=0, time=0),\n",
      "    Message('note_on', channel=0, note=79, velocity=0, time=1),\n",
      "    Message('control_change', channel=0, control=64, value=0, time=1),\n",
      "    Message('note_on', channel=0, note=63, velocity=0, time=10),\n",
      "    Message('note_on', channel=0, note=75, velocity=0, time=0),\n",
      "    Message('note_on', channel=0, note=75, velocity=48, time=11),\n",
      "    Message('note_on', channel=0, note=72, velocity=47, time=11),\n",
      "    Message('note_on', channel=0, note=68, velocity=41, time=1),\n",
      "    Message('note_on', channel=0, note=32, velocity=43, time=4),\n",
      "    Message('note_on', channel=0, note=44, velocity=47, time=4),\n",
      "    Message('control_change', channel=0, control=64, value=127, time=46),\n",
      "    Message('note_on', channel=0, note=75, velocity=0, time=184),\n",
      "    Message('note_on', channel=0, note=75, velocity=51, time=7),\n",
      "    Message('note_on', channel=0, note=68, velocity=0, time=1),\n",
      "    Message('note_on', channel=0, note=72, velocity=0, time=8),\n",
      "    Message('note_on', channel=0, note=68, velocity=38, time=3),\n",
      "    Message('note_on', channel=0, note=72, velocity=42, time=1),\n",
      "    Message('note_on', channel=0, note=60, velocity=35, time=0),\n",
      "    Message('note_on', channel=0, note=53, velocity=38, time=19),\n",
      "    Message('note_on', channel=0, note=68, velocity=0, time=138),\n",
      "    Message('note_on', channel=0, note=72, velocity=0, time=0),\n",
      "    Message('note_on', channel=0, note=75, velocity=0, time=0),\n",
      "    Message('note_on', channel=0, note=63, velocity=46, time=3),\n",
      "    Message('note_on', channel=0, note=72, velocity=48, time=4),\n",
      "    Message('note_on', channel=0, note=68, velocity=45, time=1),\n",
      "    Message('note_on', channel=0, note=56, velocity=46, time=2),\n",
      "    Message('note_on', channel=0, note=75, velocity=49, time=1),\n",
      "    Message('note_on', channel=0, note=32, velocity=0, time=135),\n",
      "    Message('note_on', channel=0, note=80, velocity=77, time=34),\n",
      "    Message('note_on', channel=0, note=60, velocity=0, time=20),\n",
      "    Message('note_on', channel=0, note=68, velocity=0, time=0),\n",
      "    Message('note_on', channel=0, note=68, velocity=43, time=7),\n",
      "    Message('note_on', channel=0, note=60, velocity=41, time=0),\n",
      "    Message('note_on', channel=0, note=53, velocity=0, time=0),\n",
      "    Message('note_on', channel=0, note=53, velocity=34, time=5),\n",
      "    Message('note_on', channel=0, note=72, velocity=0, time=3),\n",
      "    Message('note_on', channel=0, note=75, velocity=0, time=0),\n",
      "    Message('note_on', channel=0, note=75, velocity=40, time=5),\n",
      "    Message('note_on', channel=0, note=72, velocity=33, time=1),\n",
      "    Message('note_on', channel=0, note=56, velocity=0, time=2),\n",
      "    Message('note_on', channel=0, note=56, velocity=35, time=10),\n",
      "    Message('note_on', channel=0, note=63, velocity=0, time=143),\n",
      "    Message('note_on', channel=0, note=68, velocity=0, time=0),\n",
      "    Message('note_on', channel=0, note=72, velocity=0, time=0),\n",
      "    Message('note_on', channel=0, note=75, velocity=0, time=0),\n",
      "    Message('note_on', channel=0, note=75, velocity=44, time=4),\n",
      "    Message('note_on', channel=0, note=68, velocity=49, time=3),\n",
      "    Message('note_on', channel=0, note=63, velocity=41, time=1),\n",
      "    Message('note_on', channel=0, note=56, velocity=0, time=0),\n",
      "    Message('note_on', channel=0, note=72, velocity=41, time=4),\n",
      "    Message('note_on', channel=0, note=56, velocity=40, time=0),\n",
      "    Message('note_on', channel=0, note=53, velocity=0, time=134),\n",
      "    Message('note_on', channel=0, note=53, velocity=36, time=11),\n",
      "    Message('note_on', channel=0, note=72, velocity=0, time=5),\n",
      "    Message('note_on', channel=0, note=75, velocity=0, time=0),\n",
      "    Message('note_on', channel=0, note=72, velocity=46, time=5),\n",
      "    Message('note_on', channel=0, note=68, velocity=0, time=2),\n",
      "    Message('note_on', channel=0, note=80, velocity=0, time=0),\n",
      "    Message('note_on', channel=0, note=75, velocity=49, time=3),\n",
      "    Message('note_on', channel=0, note=80, velocity=48, time=2),\n",
      "    Message('note_on', channel=0, note=68, velocity=44, time=3),\n",
      "    Message('note_on', channel=0, note=80, velocity=0, time=150),\n",
      "    Message('note_on', channel=0, note=44, velocity=0, time=0),\n",
      "    Message('note_on', channel=0, note=56, velocity=0, time=1),\n",
      "    Message('note_on', channel=0, note=63, velocity=0, time=0),\n",
      "    Message('note_on', channel=0, note=75, velocity=0, time=0),\n",
      "    Message('note_on', channel=0, note=72, velocity=0, time=0),\n",
      "    Message('control_change', channel=0, control=64, value=0, time=0),\n",
      "    Message('note_on', channel=0, note=53, velocity=0, time=10),\n",
      "    Message('note_on', channel=0, note=60, velocity=0, time=0),\n",
      "    Message('note_on', channel=0, note=68, velocity=0, time=8),\n",
      "    Message('note_on', channel=0, note=68, velocity=49, time=11),\n",
      "    Message('note_on', channel=0, note=74, velocity=52, time=0),\n",
      "    Message('note_on', channel=0, note=46, velocity=39, time=6),\n",
      "    Message('note_on', channel=0, note=34, velocity=36, time=2),\n",
      "    Message('note_on', channel=0, note=70, velocity=43, time=1),\n",
      "    Message('control_change', channel=0, control=64, value=127, time=57),\n",
      "    Message('note_on', channel=0, note=68, velocity=0, time=146),\n",
      "    Message('note_on', channel=0, note=70, velocity=0, time=0),\n",
      "    Message('note_on', channel=0, note=74, velocity=0, time=0),\n",
      "    Message('note_on', channel=0, note=68, velocity=43, time=5),\n",
      "    Message('note_on', channel=0, note=46, velocity=0, time=2),\n",
      "    Message('note_on', channel=0, note=74, velocity=45, time=1),\n",
      "    Message('note_on', channel=0, note=70, velocity=40, time=1),\n",
      "    Message('note_on', channel=0, note=56, velocity=43, time=3),\n",
      "    Message('note_on', channel=0, note=46, velocity=26, time=0),\n",
      "    Message('note_on', channel=0, note=58, velocity=33, time=5),\n",
      "    Message('note_on', channel=0, note=62, velocity=20, time=2),\n",
      "    Message('note_on', channel=0, note=62, velocity=0, time=11),\n",
      "    Message('note_on', channel=0, note=79, velocity=68, time=158),\n",
      "    Message('note_on', channel=0, note=56, velocity=0, time=11),\n",
      "    Message('note_on', channel=0, note=74, velocity=0, time=0),\n",
      "    Message('note_on', channel=0, note=62, velocity=46, time=7),\n",
      "    Message('note_on', channel=0, note=70, velocity=0, time=1),\n",
      "    Message('note_on', channel=0, note=74, velocity=51, time=1),\n",
      "    Message('note_on', channel=0, note=56, velocity=43, time=1),\n",
      "    Message('note_on', channel=0, note=70, velocity=41, time=8),\n",
      "    Message('note_on', channel=0, note=46, velocity=0, time=151),\n",
      "    Message('note_on', channel=0, note=74, velocity=0, time=0),\n",
      "    Message('note_on', channel=0, note=46, velocity=37, time=11),\n",
      "    Message('note_on', channel=0, note=74, velocity=46, time=1),\n",
      "    Message('note_on', channel=0, note=56, velocity=0, time=11),\n",
      "    Message('note_on', channel=0, note=68, velocity=0, time=0),\n",
      "    Message('note_on', channel=0, note=68, velocity=37, time=10),\n",
      "    Message('note_on', channel=0, note=56, velocity=34, time=1),\n",
      "    Message('note_on', channel=0, note=62, velocity=0, time=151),\n",
      "    Message('note_on', channel=0, note=56, velocity=0, time=7),\n",
      "    Message('note_on', channel=0, note=62, velocity=32, time=3),\n",
      "    Message('note_on', channel=0, note=58, velocity=0, time=4),\n",
      "    Message('note_on', channel=0, note=56, velocity=38, time=4),\n",
      "    Message('note_on', channel=0, note=68, velocity=0, time=12),\n",
      "    Message('note_on', channel=0, note=70, velocity=0, time=0),\n",
      "    Message('note_on', channel=0, note=53, velocity=14, time=5),\n",
      "    Message('note_on', channel=0, note=70, velocity=29, time=0),\n",
      "    Message('note_on', channel=0, note=74, velocity=0, time=3),\n",
      "    Message('note_on', channel=0, note=68, velocity=37, time=0),\n",
      "    Message('note_on', channel=0, note=74, velocity=36, time=11),\n",
      "    Message('note_on', channel=0, note=77, velocity=68, time=229),\n",
      "    Message('note_on', channel=0, note=68, velocity=0, time=13),\n",
      "    Message('note_on', channel=0, note=35, velocity=36, time=1),\n",
      "    Message('note_on', channel=0, note=68, velocity=46, time=6),\n",
      "    Message('note_on', channel=0, note=35, velocity=0, time=1),\n",
      "    Message('note_on', channel=0, note=74, velocity=0, time=0),\n",
      "    Message('note_on', channel=0, note=47, velocity=30, time=5),\n",
      "    Message('note_on', channel=0, note=74, velocity=42, time=4),\n",
      "    Message('note_on', channel=0, note=53, velocity=0, time=175),\n",
      "    Message('note_on', channel=0, note=34, velocity=0, time=2),\n",
      "    Message('note_on', channel=0, note=46, velocity=0, time=0),\n",
      "    Message('note_on', channel=0, note=62, velocity=0, time=1),\n",
      "    Message('note_on', channel=0, note=68, velocity=0, time=0),\n",
      "    Message('control_change', channel=0, control=64, value=0, time=0),\n",
      "    Message('note_on', channel=0, note=70, velocity=0, time=1),\n",
      "    Message('note_on', channel=0, note=56, velocity=0, time=4),\n",
      "    Message('note_on', channel=0, note=79, velocity=0, time=8),\n",
      "    Message('note_on', channel=0, note=47, velocity=0, time=7),\n",
      "    Message('note_on', channel=0, note=72, velocity=47, time=36),\n",
      "    Message('note_on', channel=0, note=48, velocity=29, time=0),\n",
      "    Message('note_on', channel=0, note=36, velocity=32, time=6),\n",
      "    Message('note_on', channel=0, note=67, velocity=35, time=1),\n",
      "    Message('control_change', channel=0, control=64, value=127, time=42),\n",
      "    Message('note_on', channel=0, note=36, velocity=0, time=184),\n",
      "    Message('note_on', channel=0, note=75, velocity=66, time=4),\n",
      "    Message('note_on', channel=0, note=36, velocity=35, time=3),\n",
      "    Message('note_on', channel=0, note=48, velocity=0, time=1),\n",
      "    Message('note_on', channel=0, note=48, velocity=32, time=5),\n",
      "    Message('note_on', channel=0, note=72, velocity=0, time=3),\n",
      "    Message('note_on', channel=0, note=72, velocity=49, time=6),\n",
      "    Message('note_on', channel=0, note=67, velocity=0, time=1),\n",
      "    Message('note_on', channel=0, note=55, velocity=35, time=6),\n",
      "    Message('note_on', channel=0, note=67, velocity=34, time=1),\n",
      "    Message('note_on', channel=0, note=77, velocity=0, time=116),\n",
      "    Message('note_on', channel=0, note=77, velocity=69, time=11),\n",
      "    Message('note_on', channel=0, note=72, velocity=0, time=12),\n",
      "    Message('note_on', channel=0, note=67, velocity=0, time=8),\n",
      "    Message('note_on', channel=0, note=72, velocity=38, time=3),\n",
      "    Message('note_on', channel=0, note=67, velocity=36, time=1),\n",
      "    Message('note_on', channel=0, note=55, velocity=0, time=27),\n",
      "    Message('note_on', channel=0, note=63, velocity=37, time=4),\n",
      "    Message('note_on', channel=0, note=55, velocity=28, time=4),\n",
      "    Message('note_on', channel=0, note=48, velocity=0, time=7),\n",
      "    Message('note_on', channel=0, note=48, velocity=21, time=9),\n",
      "    Message('note_on', channel=0, note=75, velocity=0, time=60),\n",
      "    Message('note_on', channel=0, note=72, velocity=0, time=8),\n",
      "    Message('note_on', channel=0, note=75, velocity=70, time=2),\n",
      "    Message('note_on', channel=0, note=72, velocity=60, time=3),\n",
      "    Message('note_on', channel=0, note=55, velocity=0, time=10),\n",
      "    Message('note_on', channel=0, note=67, velocity=0, time=0),\n",
      "    Message('note_on', channel=0, note=67, velocity=45, time=4),\n",
      "    Message('note_on', channel=0, note=55, velocity=42, time=2),\n",
      "    Message('note_on', channel=0, note=48, velocity=0, time=117),\n",
      "    Message('note_on', channel=0, note=74, velocity=0, time=8),\n",
      "    Message('note_on', channel=0, note=48, velocity=35, time=3),\n",
      "    Message('note_on', channel=0, note=74, velocity=70, time=2),\n",
      "    Message('note_on', channel=0, note=55, velocity=0, time=2),\n",
      "    Message('note_on', channel=0, note=67, velocity=0, time=8),\n",
      "    Message('note_on', channel=0, note=72, velocity=0, time=0),\n",
      "    Message('note_on', channel=0, note=55, velocity=42, time=4),\n",
      "    Message('note_on', channel=0, note=72, velocity=50, time=2),\n",
      "    Message('note_on', channel=0, note=67, velocity=46, time=0),\n",
      "    Message('note_on', channel=0, note=75, velocity=0, time=132),\n",
      "    Message('note_on', channel=0, note=55, velocity=0, time=8),\n",
      "    Message('note_on', channel=0, note=67, velocity=0, time=0),\n",
      "    Message('note_on', channel=0, note=72, velocity=0, time=0),\n",
      "    Message('note_on', channel=0, note=75, velocity=70, time=3),\n",
      "    Message('note_on', channel=0, note=67, velocity=50, time=2),\n",
      "    Message('note_on', channel=0, note=55, velocity=42, time=4),\n",
      "    Message('note_on', channel=0, note=72, velocity=62, time=2),\n",
      "    Message('note_on', channel=0, note=63, velocity=0, time=50),\n",
      "    Message('note_on', channel=0, note=63, velocity=24, time=5),\n",
      "    Message('note_on', channel=0, note=55, velocity=0, time=3),\n",
      "    Message('note_on', channel=0, note=55, velocity=20, time=7),\n",
      "    Message('note_on', channel=0, note=77, velocity=0, time=70),\n",
      "    Message('note_on', channel=0, note=77, velocity=60, time=5),\n",
      "    Message('note_on', channel=0, note=72, velocity=0, time=3),\n",
      "    Message('note_on', channel=0, note=72, velocity=57, time=5),\n",
      "    Message('note_on', channel=0, note=67, velocity=0, time=10),\n",
      "    Message('note_on', channel=0, note=67, velocity=43, time=7),\n",
      "    Message('note_on', channel=0, note=69, velocity=41, time=5),\n",
      "    Message('note_on', channel=0, note=48, velocity=0, time=42),\n",
      "    Message('note_on', channel=0, note=48, velocity=40, time=4),\n",
      "    Message('note_on', channel=0, note=72, velocity=0, time=126),\n",
      "    Message('note_on', channel=0, note=79, velocity=65, time=1),\n",
      "    Message('note_on', channel=0, note=72, velocity=51, time=5),\n",
      "    Message('note_on', channel=0, note=48, velocity=0, time=2),\n",
      "    Message('note_on', channel=0, note=55, velocity=0, time=8),\n",
      "    Message('note_on', channel=0, note=48, velocity=31, time=1),\n",
      "    Message('note_on', channel=0, note=67, velocity=0, time=6),\n",
      "    Message('note_on', channel=0, note=55, velocity=25, time=1),\n",
      "    Message('note_on', channel=0, note=67, velocity=39, time=3),\n",
      "    Message('note_on', channel=0, note=74, velocity=0, time=188),\n",
      "    Message('note_on', channel=0, note=74, velocity=62, time=4),\n",
      "    Message('note_on', channel=0, note=67, velocity=0, time=19),\n",
      "    Message('note_on', channel=0, note=67, velocity=37, time=5),\n",
      "    Message('note_on', channel=0, note=62, velocity=40, time=1),\n",
      "    Message('note_on', channel=0, note=50, velocity=35, time=0),\n",
      "    Message('control_change', channel=0, control=64, value=0, time=4),\n",
      "    Message('note_on', channel=0, note=72, velocity=0, time=3),\n",
      "    Message('note_on', channel=0, note=69, velocity=0, time=0),\n",
      "    Message('note_on', channel=0, note=63, velocity=0, time=1),\n",
      "    Message('note_on', channel=0, note=55, velocity=0, time=0),\n",
      "    Message('note_on', channel=0, note=75, velocity=0, time=0),\n",
      "    Message('note_on', channel=0, note=77, velocity=0, time=0),\n",
      "    Message('note_on', channel=0, note=48, velocity=0, time=0),\n",
      "    Message('note_on', channel=0, note=79, velocity=0, time=0),\n",
      "    Message('note_on', channel=0, note=38, velocity=31, time=0),\n",
      "    Message('note_on', channel=0, note=36, velocity=0, time=9),\n",
      "    Message('note_on', channel=0, note=38, velocity=0, time=65),\n",
      "    Message('control_change', channel=0, control=64, value=127, time=20),\n",
      "    Message('note_on', channel=0, note=58, velocity=42, time=170),\n",
      "    Message('note_on', channel=0, note=50, velocity=0, time=6),\n",
      "    Message('note_on', channel=0, note=62, velocity=0, time=0),\n",
      "    Message('note_on', channel=0, note=50, velocity=28, time=5),\n",
      "    Message('note_on', channel=0, note=55, velocity=20, time=4),\n",
      "    Message('note_on', channel=0, note=62, velocity=30, time=2),\n",
      "    Message('note_on', channel=0, note=62, velocity=0, time=166),\n",
      "    Message('note_on', channel=0, note=62, velocity=63, time=5),\n",
      "    Message('note_on', channel=0, note=55, velocity=0, time=3),\n",
      "    Message('note_on', channel=0, note=55, velocity=39, time=7),\n",
      "    Message('note_on', channel=0, note=50, velocity=0, time=16),\n",
      "    Message('note_on', channel=0, note=46, velocity=32, time=4),\n",
      "    Message('note_on', channel=0, note=50, velocity=26, time=1),\n",
      "    Message('note_on', channel=0, note=50, velocity=0, time=195),\n",
      "    Message('note_on', channel=0, note=58, velocity=0, time=0),\n",
      "    Message('note_on', channel=0, note=62, velocity=0, time=0),\n",
      "    Message('note_on', channel=0, note=50, velocity=30, time=6),\n",
      "    Message('note_on', channel=0, note=55, velocity=0, time=1),\n",
      "    Message('note_on', channel=0, note=62, velocity=26, time=2),\n",
      "    Message('note_on', channel=0, note=58, velocity=38, time=1),\n",
      "    Message('note_on', channel=0, note=55, velocity=25, time=6),\n",
      "    Message('note_on', channel=0, note=67, velocity=0, time=152),\n",
      "    Message('note_on', channel=0, note=62, velocity=0, time=8),\n",
      "    Message('note_on', channel=0, note=67, velocity=58, time=3),\n",
      "    Message('note_on', channel=0, note=62, velocity=57, time=7),\n",
      "    Message('note_on', channel=0, note=55, velocity=0, time=6),\n",
      "    Message('note_on', channel=0, note=55, velocity=33, time=4),\n",
      "    Message('note_on', channel=0, note=72, velocity=65, time=137),\n",
      "    Message('note_on', channel=0, note=62, velocity=0, time=4),\n",
      "    Message('note_on', channel=0, note=62, velocity=47, time=11),\n",
      "    Message('note_on', channel=0, note=55, velocity=0, time=12),\n",
      "    Message('note_on', channel=0, note=67, velocity=0, time=0),\n",
      "    Message('note_on', channel=0, note=67, velocity=44, time=5),\n",
      "    Message('note_on', channel=0, note=55, velocity=25, time=2),\n",
      "    Message('note_on', channel=0, note=58, velocity=0, time=9),\n",
      "    Message('note_on', channel=0, note=58, velocity=23, time=5),\n",
      "    Message('note_on', channel=0, note=74, velocity=0, time=95),\n",
      "    Message('note_on', channel=0, note=74, velocity=71, time=10),\n",
      "    Message('note_on', channel=0, note=67, velocity=0, time=5),\n",
      "    Message('note_on', channel=0, note=67, velocity=43, time=6),\n",
      "    Message('note_on', channel=0, note=62, velocity=0, time=2),\n",
      "    Message('note_on', channel=0, note=62, velocity=47, time=4),\n",
      "    Message('note_on', channel=0, note=50, velocity=0, time=150),\n",
      "    Message('control_change', channel=0, control=64, value=0, time=0),\n",
      "    Message('note_on', channel=0, note=72, velocity=0, time=0),\n",
      "    Message('note_on', channel=0, note=67, velocity=0, time=1),\n",
      "    Message('note_on', channel=0, note=58, velocity=0, time=0),\n",
      "    Message('note_on', channel=0, note=62, velocity=0, time=0),\n",
      "    Message('note_on', channel=0, note=74, velocity=0, time=1),\n",
      "    Message('note_on', channel=0, note=75, velocity=69, time=0),\n",
      "    Message('note_on', channel=0, note=46, velocity=0, time=5),\n",
      "    Message('note_on', channel=0, note=55, velocity=0, time=8),\n",
      "    Message('note_on', channel=0, note=63, velocity=41, time=15),\n",
      "    Message('control_change', channel=0, control=64, value=127, time=92),\n",
      "    Message('note_on', channel=0, note=63, velocity=0, time=138),\n",
      "    Message('note_on', channel=0, note=69, velocity=42, time=12),\n",
      "    Message('note_on', channel=0, note=63, velocity=40, time=0),\n",
      "    Message('note_on', channel=0, note=67, velocity=41, time=0),\n",
      "    Message('note_on', channel=0, note=57, velocity=40, time=2),\n",
      "    Message('note_on', channel=0, note=57, velocity=0, time=155),\n",
      "    Message('note_on', channel=0, note=57, velocity=38, time=5),\n",
      "    Message('note_on', channel=0, note=63, velocity=0, time=11),\n",
      "    Message('note_on', channel=0, note=67, velocity=0, time=0),\n",
      "    Message('note_on', channel=0, note=63, velocity=34, time=5),\n",
      "    Message('note_on', channel=0, note=60, velocity=33, time=4),\n",
      "    Message('note_on', channel=0, note=67, velocity=35, time=1),\n",
      "    Message('note_on', channel=0, note=63, velocity=0, time=151),\n",
      "    Message('note_on', channel=0, note=63, velocity=41, time=10),\n",
      "    Message('note_on', channel=0, note=57, velocity=0, time=5),\n",
      "    Message('note_on', channel=0, note=60, velocity=0, time=0),\n",
      "    Message('note_on', channel=0, note=66, velocity=31, time=4),\n",
      "    Message('note_on', channel=0, note=57, velocity=37, time=7),\n",
      "    Message('note_on', channel=0, note=60, velocity=27, time=1),\n",
      "    Message('note_on', channel=0, note=50, velocity=31, time=0),\n",
      "    Message('note_on', channel=0, note=38, velocity=30, time=7),\n",
      "    Message('note_on', channel=0, note=57, velocity=0, time=181),\n",
      "    Message('note_on', channel=0, note=63, velocity=0, time=0),\n",
      "    Message('note_on', channel=0, note=69, velocity=0, time=0),\n",
      "    Message('note_on', channel=0, note=60, velocity=0, time=8),\n",
      "    Message('note_on', channel=0, note=69, velocity=41, time=0),\n",
      "    Message('note_on', channel=0, note=63, velocity=41, time=0),\n",
      "    Message('note_on', channel=0, note=57, velocity=39, time=3),\n",
      "    Message('note_on', channel=0, note=60, velocity=31, time=1),\n",
      "    Message('note_on', channel=0, note=57, velocity=0, time=234),\n",
      "    Message('note_on', channel=0, note=66, velocity=0, time=8),\n",
      "    Message('note_on', channel=0, note=57, velocity=39, time=1),\n",
      "    Message('note_on', channel=0, note=38, velocity=0, time=6),\n",
      "    Message('note_on', channel=0, note=66, velocity=50, time=3),\n",
      "    Message('note_on', channel=0, note=38, velocity=34, time=2),\n",
      "    Message('note_on', channel=0, note=50, velocity=0, time=3),\n",
      "    Message('note_on', channel=0, note=60, velocity=0, time=0),\n",
      "    Message('note_on', channel=0, note=50, velocity=33, time=6),\n",
      "    Message('note_on', channel=0, note=63, velocity=0, time=2),\n",
      "    Message('note_on', channel=0, note=60, velocity=36, time=0),\n",
      "    Message('note_on', channel=0, note=63, velocity=42, time=11),\n",
      "    Message('note_on', channel=0, note=66, velocity=0, time=242),\n",
      "    Message('note_on', channel=0, note=38, velocity=0, time=8),\n",
      "    Message('note_on', channel=0, note=50, velocity=0, time=0),\n",
      "    Message('note_on', channel=0, note=63, velocity=0, time=1),\n",
      "    Message('note_on', channel=0, note=69, velocity=0, time=0),\n",
      "    Message('note_on', channel=0, note=60, velocity=0, time=1),\n",
      "    Message('note_on', channel=0, note=66, velocity=46, time=0),\n",
      "    Message('control_change', channel=0, control=64, value=0, time=3),\n",
      "    Message('note_on', channel=0, note=62, velocity=44, time=6),\n",
      "    Message('note_on', channel=0, note=57, velocity=0, time=4),\n",
      "    Message('note_on', channel=0, note=75, velocity=0, time=0),\n",
      "    Message('note_on', channel=0, note=58, velocity=35, time=11),\n",
      "    Message('note_on', channel=0, note=31, velocity=30, time=9),\n",
      "    Message('control_change', channel=0, control=64, value=127, time=88),\n",
      "    Message('note_on', channel=0, note=62, velocity=0, time=161),\n",
      "    Message('note_on', channel=0, note=62, velocity=36, time=7),\n",
      "    Message('note_on', channel=0, note=58, velocity=0, time=1),\n",
      "    Message('note_on', channel=0, note=31, velocity=0, time=7),\n",
      "    Message('note_on', channel=0, note=58, velocity=38, time=3),\n",
      "    Message('note_on', channel=0, note=50, velocity=33, time=8),\n",
      "    Message('note_on', channel=0, note=55, velocity=27, time=0),\n",
      "    Message('note_on', channel=0, note=31, velocity=34, time=1),\n",
      "    Message('note_on', channel=0, note=67, velocity=0, time=249),\n",
      "    Message('note_on', channel=0, note=62, velocity=0, time=8),\n",
      "    Message('note_on', channel=0, note=67, velocity=49, time=1),\n",
      "    Message('note_on', channel=0, note=62, velocity=29, time=9),\n",
      "    Message('note_on', channel=0, note=50, velocity=0, time=13),\n",
      "    Message('note_on', channel=0, note=55, velocity=0, time=0),\n",
      "    Message('note_on', channel=0, note=58, velocity=0, time=0),\n",
      "    Message('note_on', channel=0, note=50, velocity=29, time=5),\n",
      "    Message('note_on', channel=0, note=58, velocity=29, time=0),\n",
      "    Message('note_on', channel=0, note=55, velocity=30, time=5),\n",
      "    Message('note_on', channel=0, note=31, velocity=0, time=56),\n",
      "    Message('note_on', channel=0, note=58, velocity=0, time=0),\n",
      "    Message('note_on', channel=0, note=62, velocity=0, time=4),\n",
      "    Message('note_on', channel=0, note=50, velocity=0, time=1),\n",
      "    Message('note_on', channel=0, note=66, velocity=0, time=0),\n",
      "    Message('control_change', channel=0, control=64, value=0, time=0),\n",
      "    Message('note_on', channel=0, note=58, velocity=36, time=108),\n",
      "    Message('note_on', channel=0, note=62, velocity=32, time=5),\n",
      "    Message('note_on', channel=0, note=55, velocity=0, time=0),\n",
      "    Message('note_on', channel=0, note=50, velocity=31, time=6),\n",
      "    Message('note_on', channel=0, note=55, velocity=25, time=1),\n",
      "    Message('note_on', channel=0, note=43, velocity=29, time=2),\n",
      "    Message('control_change', channel=0, control=64, value=127, time=7),\n",
      "    Message('note_on', channel=0, note=50, velocity=0, time=169),\n",
      "    Message('note_on', channel=0, note=55, velocity=0, time=0),\n",
      "    Message('note_on', channel=0, note=58, velocity=0, time=0),\n",
      "    Message('note_on', channel=0, note=58, velocity=39, time=4),\n",
      "    Message('note_on', channel=0, note=55, velocity=29, time=5),\n",
      "    Message('note_on', channel=0, note=50, velocity=24, time=2),\n",
      "    Message('note_on', channel=0, note=58, velocity=0, time=181),\n",
      "    Message('note_on', channel=0, note=62, velocity=0, time=0),\n",
      "    Message('note_on', channel=0, note=58, velocity=37, time=4),\n",
      "    Message('note_on', channel=0, note=62, velocity=33, time=1),\n",
      "    Message('note_on', channel=0, note=36, velocity=34, time=13),\n",
      "    Message('control_change', channel=0, control=64, value=0, time=198),\n",
      "    Message('note_on', channel=0, note=58, velocity=0, time=2),\n",
      "    Message('note_on', channel=0, note=36, velocity=0, time=0),\n",
      "    Message('note_on', channel=0, note=67, velocity=0, time=0),\n",
      "    Message('note_on', channel=0, note=62, velocity=0, time=4),\n",
      "    Message('note_on', channel=0, note=62, velocity=39, time=8),\n",
      "    Message('note_on', channel=0, note=43, velocity=0, time=8),\n",
      "    Message('note_on', channel=0, note=50, velocity=0, time=0),\n",
      "    Message('note_on', channel=0, note=55, velocity=0, time=0),\n",
      "    Message('note_on', channel=0, note=43, velocity=35, time=5),\n",
      "    Message('note_on', channel=0, note=31, velocity=42, time=2),\n",
      "    Message('note_on', channel=0, note=55, velocity=24, time=4),\n",
      "    Message('note_on', channel=0, note=31, velocity=0, time=52),\n",
      "    Message('control_change', channel=0, control=64, value=127, time=14),\n",
      "    Message('note_on', channel=0, note=59, velocity=41, time=165),\n",
      "    Message('note_on', channel=0, note=50, velocity=36, time=5),\n",
      "    Message('note_on', channel=0, note=43, velocity=0, time=6),\n",
      "    Message('note_on', channel=0, note=55, velocity=0, time=0),\n",
      "    Message('note_on', channel=0, note=31, velocity=33, time=4),\n",
      "    Message('note_on', channel=0, note=43, velocity=27, time=3),\n",
      "    Message('note_on', channel=0, note=55, velocity=23, time=1),\n",
      "    Message('note_on', channel=0, note=31, velocity=0, time=8),\n",
      "    Message('note_on', channel=0, note=59, velocity=0, time=153),\n",
      "    Message('note_on', channel=0, note=62, velocity=0, time=0),\n",
      "    Message('note_on', channel=0, note=62, velocity=39, time=7),\n",
      "    Message('note_on', channel=0, note=55, velocity=0, time=1),\n",
      "    Message('note_on', channel=0, note=59, velocity=37, time=3),\n",
      "    Message('note_on', channel=0, note=55, velocity=30, time=3),\n",
      "    Message('note_on', channel=0, note=50, velocity=0, time=17),\n",
      "    Message('note_on', channel=0, note=50, velocity=19, time=5),\n",
      "    Message('note_on', channel=0, note=67, velocity=58, time=184),\n",
      "    Message('note_on', channel=0, note=59, velocity=0, time=18),\n",
      "    Message('note_on', channel=0, note=62, velocity=0, time=8),\n",
      "    Message('note_on', channel=0, note=59, velocity=26, time=3),\n",
      "    Message('note_on', channel=0, note=62, velocity=24, time=1),\n",
      "    Message('note_on', channel=0, note=55, velocity=0, time=4),\n",
      "    Message('note_on', channel=0, note=55, velocity=19, time=6),\n",
      "    Message('note_on', channel=0, note=59, velocity=0, time=193),\n",
      "    Message('note_on', channel=0, note=62, velocity=0, time=0),\n",
      "    Message('note_on', channel=0, note=62, velocity=41, time=5),\n",
      "    Message('note_on', channel=0, note=50, velocity=0, time=3),\n",
      "    Message('note_on', channel=0, note=59, velocity=35, time=1),\n",
      "    Message('note_on', channel=0, note=50, velocity=34, time=5),\n",
      "    Message('note_on', channel=0, note=55, velocity=0, time=9),\n",
      "    Message('note_on', channel=0, note=55, velocity=16, time=4),\n",
      "    Message('note_on', channel=0, note=62, velocity=0, time=234),\n",
      "    Message('note_on', channel=0, note=59, velocity=0, time=8),\n",
      "    Message('note_on', channel=0, note=62, velocity=36, time=1),\n",
      "    Message('note_on', channel=0, note=59, velocity=35, time=4),\n",
      "    Message('note_on', channel=0, note=43, velocity=0, time=10),\n",
      "    Message('note_on', channel=0, note=43, velocity=35, time=6),\n",
      "    Message('note_on', channel=0, note=31, velocity=38, time=0),\n",
      "    Message('note_on', channel=0, note=55, velocity=0, time=2),\n",
      "    Message('note_on', channel=0, note=55, velocity=22, time=5),\n",
      "    Message('note_on', channel=0, note=43, velocity=0, time=310),\n",
      "    Message('note_on', channel=0, note=31, velocity=0, time=1),\n",
      "    Message('note_on', channel=0, note=55, velocity=0, time=1),\n",
      "    Message('note_on', channel=0, note=62, velocity=0, time=2),\n",
      "    Message('note_on', channel=0, note=59, velocity=0, time=0),\n",
      "    Message('note_on', channel=0, note=67, velocity=0, time=0),\n",
      "    Message('control_change', channel=0, control=64, value=0, time=0),\n",
      "    Message('note_on', channel=0, note=30, velocity=52, time=9),\n",
      "    Message('note_on', channel=0, note=50, velocity=0, time=2),\n",
      "    Message('note_on', channel=0, note=58, velocity=37, time=1),\n",
      "    Message('note_on', channel=0, note=42, velocity=43, time=2),\n",
      "    Message('note_on', channel=0, note=51, velocity=29, time=2),\n",
      "    Message('control_change', channel=0, control=64, value=127, time=80),\n",
      "    Message('note_on', channel=0, note=51, velocity=0, time=238),\n",
      "    Message('note_on', channel=0, note=60, velocity=35, time=10),\n",
      "    Message('note_on', channel=0, note=51, velocity=41, time=1),\n",
      "    Message('note_on', channel=0, note=63, velocity=38, time=1),\n",
      "    Message('note_on', channel=0, note=42, velocity=0, time=3),\n",
      "    Message('note_on', channel=0, note=57, velocity=25, time=1),\n",
      "    Message('note_on', channel=0, note=42, velocity=35, time=3),\n",
      "    Message('note_on', channel=0, note=58, velocity=0, time=135),\n",
      "    Message('note_on', channel=0, note=63, velocity=0, time=46),\n",
      "    Message('note_on', channel=0, note=51, velocity=0, time=7),\n",
      "    Message('note_on', channel=0, note=60, velocity=0, time=0),\n",
      "    Message('note_on', channel=0, note=63, velocity=43, time=3),\n",
      "    Message('note_on', channel=0, note=60, velocity=36, time=3),\n",
      "    Message('note_on', channel=0, note=56, velocity=39, time=0),\n",
      "    Message('note_on', channel=0, note=51, velocity=40, time=1),\n",
      "    Message('note_on', channel=0, note=42, velocity=0, time=208),\n",
      "    Message('note_on', channel=0, note=30, velocity=0, time=8),\n",
      "    Message('note_on', channel=0, note=68, velocity=69, time=3),\n",
      "    Message('note_on', channel=0, note=42, velocity=36, time=0),\n",
      "    Message('note_on', channel=0, note=30, velocity=32, time=2),\n",
      "    Message('note_on', channel=0, note=56, velocity=0, time=202),\n",
      "    Message('note_on', channel=0, note=60, velocity=0, time=0),\n",
      "    Message('note_on', channel=0, note=63, velocity=0, time=0),\n",
      "    Message('note_on', channel=0, note=63, velocity=40, time=5),\n",
      "    Message('note_on', channel=0, note=51, velocity=0, time=3),\n",
      "    Message('note_on', channel=0, note=60, velocity=39, time=1),\n",
      "    Message('note_on', channel=0, note=56, velocity=37, time=2),\n",
      "    Message('note_on', channel=0, note=51, velocity=37, time=1),\n",
      "    Message('note_on', channel=0, note=63, velocity=0, time=180),\n",
      "    Message('note_on', channel=0, note=63, velocity=53, time=7),\n",
      "    Message('note_on', channel=0, note=60, velocity=0, time=1),\n",
      "    Message('note_on', channel=0, note=60, velocity=33, time=11),\n",
      "    Message('note_on', channel=0, note=42, velocity=0, time=12),\n",
      "    Message('note_on', channel=0, note=54, velocity=32, time=2),\n",
      "    Message('note_on', channel=0, note=42, velocity=45, time=4),\n",
      "    Message('note_on', channel=0, note=30, velocity=0, time=2),\n",
      "    Message('note_on', channel=0, note=30, velocity=38, time=5),\n",
      "    Message('note_on', channel=0, note=54, velocity=0, time=141),\n",
      "    Message('note_on', channel=0, note=57, velocity=0, time=7),\n",
      "    Message('control_change', channel=0, control=64, value=0, time=4),\n",
      "    Message('note_on', channel=0, note=30, velocity=0, time=1),\n",
      "    Message('note_on', channel=0, note=51, velocity=0, time=0),\n",
      "    Message('note_on', channel=0, note=42, velocity=0, time=0),\n",
      "    Message('note_on', channel=0, note=63, velocity=0, time=1),\n",
      "    Message('note_on', channel=0, note=68, velocity=0, time=0),\n",
      "    Message('note_on', channel=0, note=60, velocity=0, time=1),\n",
      "    Message('note_on', channel=0, note=61, velocity=47, time=14),\n",
      "    Message('note_on', channel=0, note=56, velocity=0, time=2),\n",
      "    Message('note_on', channel=0, note=56, velocity=43, time=9),\n",
      "    Message('note_on', channel=0, note=29, velocity=45, time=5),\n",
      "    Message('note_on', channel=0, note=41, velocity=38, time=1),\n",
      "    Message('control_change', channel=0, control=64, value=127, time=55),\n",
      "    Message('note_on', channel=0, note=61, velocity=0, time=138),\n",
      "    Message('note_on', channel=0, note=61, velocity=41, time=5),\n",
      "    Message('note_on', channel=0, note=41, velocity=0, time=2),\n",
      "    Message('note_on', channel=0, note=41, velocity=38, time=7),\n",
      "    Message('note_on', channel=0, note=49, velocity=35, time=6),\n",
      "    Message('note_on', channel=0, note=73, velocity=67, time=183),\n",
      "    Message('note_on', channel=0, note=61, velocity=0, time=4),\n",
      "    Message('note_on', channel=0, note=61, velocity=47, time=6),\n",
      "    Message('note_on', channel=0, note=56, velocity=0, time=25),\n",
      "    Message('note_on', channel=0, note=56, velocity=30, time=8),\n",
      "    Message('note_on', channel=0, note=49, velocity=0, time=15),\n",
      "    Message('note_on', channel=0, note=49, velocity=37, time=5),\n",
      "    Message('note_on', channel=0, note=68, velocity=47, time=216),\n",
      "    Message('note_on', channel=0, note=77, velocity=67, time=1),\n",
      "    Message('note_on', channel=0, note=49, velocity=0, time=24),\n",
      "    Message('note_on', channel=0, note=73, velocity=0, time=0),\n",
      "    Message('note_on', channel=0, note=49, velocity=42, time=3),\n",
      "    Message('note_on', channel=0, note=41, velocity=0, time=4),\n",
      "    Message('note_on', channel=0, note=73, velocity=39, time=2),\n",
      "    Message('note_on', channel=0, note=41, velocity=31, time=2),\n",
      "    Message('note_on', channel=0, note=65, velocity=32, time=2),\n",
      "    Message('note_on', channel=0, note=56, velocity=0, time=209),\n",
      "    Message('note_on', channel=0, note=56, velocity=46, time=11),\n",
      "    Message('note_on', channel=0, note=61, velocity=0, time=5),\n",
      "    Message('note_on', channel=0, note=49, velocity=0, time=7),\n",
      "    Message('note_on', channel=0, note=61, velocity=30, time=3),\n",
      "    Message('note_on', channel=0, note=49, velocity=33, time=5),\n",
      "    Message('note_on', channel=0, note=82, velocity=69, time=95),\n",
      "    Message('note_on', channel=0, note=73, velocity=0, time=5),\n",
      "    Message('note_on', channel=0, note=77, velocity=0, time=0),\n",
      "    Message('note_on', channel=0, note=73, velocity=50, time=5),\n",
      "    Message('note_on', channel=0, note=70, velocity=48, time=0),\n",
      "    Message('note_on', channel=0, note=77, velocity=41, time=4),\n",
      "    Message('note_on', channel=0, note=41, velocity=0, time=68),\n",
      "    Message('note_on', channel=0, note=53, velocity=26, time=3),\n",
      "    Message('note_on', channel=0, note=41, velocity=36, time=3),\n",
      "    Message('note_on', channel=0, note=41, velocity=0, time=212),\n",
      "    Message('note_on', channel=0, note=65, velocity=0, time=0),\n",
      "    Message('note_on', channel=0, note=77, velocity=0, time=1),\n",
      "    Message('note_on', channel=0, note=73, velocity=0, time=0),\n",
      "    Message('note_on', channel=0, note=49, velocity=0, time=0),\n",
      "    Message('note_on', channel=0, note=61, velocity=0, time=0),\n",
      "    Message('note_on', channel=0, note=82, velocity=0, time=0),\n",
      "    Message('note_on', channel=0, note=56, velocity=0, time=0),\n",
      "    Message('note_on', channel=0, note=70, velocity=0, time=0),\n",
      "    Message('control_change', channel=0, control=64, value=0, time=1),\n",
      "    Message('note_on', channel=0, note=29, velocity=0, time=2),\n",
      "    Message('note_on', channel=0, note=53, velocity=0, time=8),\n",
      "    Message('note_on', channel=0, note=80, velocity=64, time=8),\n",
      "    Message('note_on', channel=0, note=68, velocity=0, time=7),\n",
      "    Message('note_on', channel=0, note=75, velocity=50, time=3),\n",
      "    Message('note_on', channel=0, note=68, velocity=48, time=1),\n",
      "    Message('note_on', channel=0, note=36, velocity=27, time=7),\n",
      "    Message('note_on', channel=0, note=48, velocity=22, time=8),\n",
      "    Message('control_change', channel=0, control=64, value=127, time=51),\n",
      "    Message('note_on', channel=0, note=48, velocity=0, time=199),\n",
      "    Message('note_on', channel=0, note=48, velocity=31, time=8),\n",
      "    Message('note_on', channel=0, note=66, velocity=34, time=4),\n",
      "    Message('note_on', channel=0, note=56, velocity=45, time=0),\n",
      "    Message('note_on', channel=0, note=66, velocity=0, time=165),\n",
      "    Message('note_on', channel=0, note=75, velocity=0, time=0),\n",
      "    Message('note_on', channel=0, note=75, velocity=53, time=5),\n",
      "    Message('note_on', channel=0, note=66, velocity=36, time=2),\n",
      "    Message('note_on', channel=0, note=56, velocity=0, time=1),\n",
      "    Message('note_on', channel=0, note=68, velocity=0, time=0),\n",
      "    Message('note_on', channel=0, note=48, velocity=0, time=7),\n",
      "    Message('note_on', channel=0, note=68, velocity=38, time=0),\n",
      "    Message('note_on', channel=0, note=63, velocity=40, time=1),\n",
      "    Message('note_on', channel=0, note=56, velocity=38, time=3),\n",
      "    Message('note_on', channel=0, note=48, velocity=24, time=3),\n",
      "    Message('note_on', channel=0, note=66, velocity=0, time=139),\n",
      "    Message('note_on', channel=0, note=66, velocity=41, time=11),\n",
      "    Message('note_on', channel=0, note=48, velocity=0, time=5),\n",
      "    Message('note_on', channel=0, note=56, velocity=0, time=0),\n",
      "    Message('note_on', channel=0, note=48, velocity=29, time=5),\n",
      "    Message('note_on', channel=0, note=75, velocity=0, time=2),\n",
      "    Message('note_on', channel=0, note=56, velocity=40, time=3),\n",
      "    Message('note_on', channel=0, note=75, velocity=43, time=8),\n",
      "    Message('note_on', channel=0, note=66, velocity=0, time=174),\n",
      "    Message('note_on', channel=0, note=66, velocity=46, time=5),\n",
      "    Message('note_on', channel=0, note=63, velocity=0, time=2),\n",
      "    Message('note_on', channel=0, note=56, velocity=0, time=8),\n",
      "    Message('note_on', channel=0, note=63, velocity=45, time=4),\n",
      "    Message('note_on', channel=0, note=56, velocity=37, time=2),\n",
      "    Message('note_on', channel=0, note=48, velocity=0, time=189),\n",
      "    Message('note_on', channel=0, note=66, velocity=0, time=5),\n",
      "    Message('note_on', channel=0, note=75, velocity=0, time=0),\n",
      "    Message('note_on', channel=0, note=78, velocity=60, time=3),\n",
      "    Message('note_on', channel=0, note=68, velocity=0, time=4),\n",
      "    Message('note_on', channel=0, note=75, velocity=45, time=3),\n",
      "    Message('note_on', channel=0, note=66, velocity=43, time=1),\n",
      "    Message('note_on', channel=0, note=68, velocity=46, time=3),\n",
      "    Message('note_on', channel=0, note=56, velocity=0, time=1),\n",
      "    Message('note_on', channel=0, note=56, velocity=32, time=7),\n",
      "    Message('note_on', channel=0, note=77, velocity=59, time=128),\n",
      "    Message('note_on', channel=0, note=65, velocity=43, time=5),\n",
      "    Message('note_on', channel=0, note=68, velocity=0, time=14),\n",
      "    Message('note_on', channel=0, note=68, velocity=38, time=4),\n",
      "    Message('note_on', channel=0, note=65, velocity=0, time=134),\n",
      "    Message('note_on', channel=0, note=77, velocity=0, time=0),\n",
      "    Message('note_on', channel=0, note=77, velocity=50, time=7),\n",
      "    Message('note_on', channel=0, note=65, velocity=49, time=2),\n",
      "    Message('control_change', channel=0, control=64, value=0, time=3),\n",
      "    Message('note_on', channel=0, note=56, velocity=0, time=0),\n",
      "    Message('note_on', channel=0, note=75, velocity=0, time=1),\n",
      "    Message('note_on', channel=0, note=68, velocity=0, time=0),\n",
      "    Message('note_on', channel=0, note=78, velocity=0, time=0),\n",
      "    Message('note_on', channel=0, note=80, velocity=0, time=0),\n",
      "    Message('note_on', channel=0, note=63, velocity=0, time=0),\n",
      "    Message('note_on', channel=0, note=36, velocity=0, time=2),\n",
      "    Message('note_on', channel=0, note=66, velocity=0, time=8),\n",
      "    Message('note_on', channel=0, note=73, velocity=35, time=8),\n",
      "    Message('note_on', channel=0, note=49, velocity=34, time=4),\n",
      "    Message('note_on', channel=0, note=37, velocity=32, time=0),\n",
      "    Message('control_change', channel=0, control=64, value=127, time=65),\n",
      "    Message('note_on', channel=0, note=49, velocity=0, time=169),\n",
      "    Message('note_on', channel=0, note=65, velocity=0, time=0),\n",
      "    Message('note_on', channel=0, note=77, velocity=0, time=0),\n",
      "    Message('note_on', channel=0, note=65, velocity=37, time=8),\n",
      "    Message('note_on', channel=0, note=49, velocity=36, time=1),\n",
      "    Message('note_on', channel=0, note=77, velocity=47, time=2),\n",
      "    Message('note_on', channel=0, note=73, velocity=0, time=4),\n",
      "    Message('note_on', channel=0, note=68, velocity=38, time=4),\n",
      "    Message('note_on', channel=0, note=73, velocity=33, time=4),\n",
      "    Message('note_on', channel=0, note=56, velocity=43, time=10),\n",
      "    Message('note_on', channel=0, note=77, velocity=0, time=159),\n",
      "    Message('note_on', channel=0, note=61, velocity=40, time=3),\n",
      "    Message('note_on', channel=0, note=65, velocity=0, time=4),\n",
      "    Message('note_on', channel=0, note=73, velocity=0, time=0),\n",
      "    Message('note_on', channel=0, note=77, velocity=42, time=2),\n",
      "    Message('note_on', channel=0, note=65, velocity=36, time=4),\n",
      "    Message('note_on', channel=0, note=73, velocity=43, time=1),\n",
      "    Message('note_on', channel=0, note=68, velocity=0, time=1),\n",
      "    Message('note_on', channel=0, note=68, velocity=36, time=8),\n",
      "    Message('note_on', channel=0, note=53, velocity=28, time=12),\n",
      "    Message('note_on', channel=0, note=56, velocity=0, time=134),\n",
      "    Message('note_on', channel=0, note=65, velocity=0, time=0),\n",
      "    Message('note_on', channel=0, note=68, velocity=0, time=0),\n",
      "    Message('note_on', channel=0, note=73, velocity=0, time=0),\n",
      "    Message('note_on', channel=0, note=56, velocity=45, time=4),\n",
      "    Message('note_on', channel=0, note=65, velocity=31, time=4),\n",
      "    Message('note_on', channel=0, note=68, velocity=41, time=0),\n",
      "    Message('note_on', channel=0, note=73, velocity=37, time=1),\n",
      "    Message('note_on', channel=0, note=53, velocity=0, time=160),\n",
      "    Message('note_on', channel=0, note=61, velocity=0, time=0),\n",
      "    Message('note_on', channel=0, note=61, velocity=31, time=4),\n",
      "    Message('note_on', channel=0, note=53, velocity=27, time=5),\n",
      "    Message('note_on', channel=0, note=68, velocity=0, time=6),\n",
      "    Message('note_on', channel=0, note=65, velocity=0, time=8),\n",
      "    Message('note_on', channel=0, note=68, velocity=32, time=3),\n",
      "    Message('note_on', channel=0, note=65, velocity=27, time=2),\n",
      "    Message('note_on', channel=0, note=49, velocity=0, time=191),\n",
      "    Message('note_on', channel=0, note=37, velocity=0, time=0),\n",
      "    Message('note_on', channel=0, note=73, velocity=0, time=0),\n",
      "    Message('note_on', channel=0, note=68, velocity=0, time=0),\n",
      "    Message('note_on', channel=0, note=53, velocity=0, time=1),\n",
      "    Message('note_on', channel=0, note=61, velocity=0, time=0),\n",
      "    Message('note_on', channel=0, note=77, velocity=0, time=1),\n",
      "    Message('control_change', channel=0, control=64, value=0, time=0),\n",
      "    Message('note_on', channel=0, note=65, velocity=0, time=9),\n",
      "    Message('note_on', channel=0, note=65, velocity=29, time=5),\n",
      "    Message('note_on', channel=0, note=48, velocity=36, time=0),\n",
      "    Message('note_on', channel=0, note=67, velocity=36, time=1),\n",
      "    Message('note_on', channel=0, note=56, velocity=0, time=2),\n",
      "    Message('note_on', channel=0, note=36, velocity=36, time=3),\n",
      "    Message('control_change', channel=0, control=64, value=127, time=20),\n",
      "    Message('control_change', channel=0, control=64, value=0, time=262),\n",
      "    Message('note_on', channel=0, note=36, velocity=0, time=0),\n",
      "    Message('note_on', channel=0, note=48, velocity=0, time=2),\n",
      "    Message('note_on', channel=0, note=74, velocity=46, time=5),\n",
      "    Message('note_on', channel=0, note=65, velocity=0, time=7),\n",
      "    Message('note_on', channel=0, note=67, velocity=0, time=0),\n",
      "    Message('note_on', channel=0, note=65, velocity=27, time=5),\n",
      "    Message('note_on', channel=0, note=47, velocity=31, time=1),\n",
      "    Message('note_on', channel=0, note=35, velocity=37, time=2),\n",
      "    Message('note_on', channel=0, note=67, velocity=32, time=1),\n",
      "    Message('control_change', channel=0, control=64, value=127, time=45),\n",
      "    Message('note_on', channel=0, note=47, velocity=0, time=246),\n",
      "    Message('note_on', channel=0, note=65, velocity=0, time=0),\n",
      "    Message('note_on', channel=0, note=74, velocity=0, time=0),\n",
      "    Message('note_on', channel=0, note=74, velocity=43, time=4),\n",
      "    Message('note_on', channel=0, note=55, velocity=39, time=4),\n",
      "    Message('note_on', channel=0, note=65, velocity=35, time=2),\n",
      "    Message('note_on', channel=0, note=47, velocity=31, time=1),\n",
      "    Message('note_on', channel=0, note=67, velocity=0, time=4),\n",
      "    Message('note_on', channel=0, note=67, velocity=32, time=5),\n",
      "    Message('note_on', channel=0, note=65, velocity=0, time=179),\n",
      "    Message('note_on', channel=0, note=67, velocity=0, time=0),\n",
      "    Message('note_on', channel=0, note=74, velocity=0, time=0),\n",
      "    Message('note_on', channel=0, note=62, velocity=53, time=7),\n",
      "    Message('note_on', channel=0, note=67, velocity=42, time=0),\n",
      "    Message('note_on', channel=0, note=55, velocity=0, time=1),\n",
      "    Message('note_on', channel=0, note=74, velocity=49, time=2),\n",
      "    Message('note_on', channel=0, note=65, velocity=36, time=0),\n",
      "    Message('note_on', channel=0, note=55, velocity=37, time=2),\n",
      "    Message('note_on', channel=0, note=67, velocity=0, time=165),\n",
      "    Message('note_on', channel=0, note=65, velocity=0, time=8),\n",
      "    Message('note_on', channel=0, note=67, velocity=58, time=1),\n",
      "    Message('note_on', channel=0, note=35, velocity=0, time=6),\n",
      "    Message('note_on', channel=0, note=47, velocity=0, time=0),\n",
      "    Message('note_on', channel=0, note=62, velocity=0, time=0),\n",
      "    Message('note_on', channel=0, note=65, velocity=49, time=4),\n",
      "    Message('note_on', channel=0, note=47, velocity=35, time=0),\n",
      "    Message('note_on', channel=0, note=62, velocity=44, time=1),\n",
      "    Message('note_on', channel=0, note=35, velocity=34, time=1),\n",
      "    Message('note_on', channel=0, note=55, velocity=0, time=140),\n",
      "    Message('note_on', channel=0, note=55, velocity=45, time=11),\n",
      "    Message('note_on', channel=0, note=62, velocity=0, time=20),\n",
      "    Message('note_on', channel=0, note=65, velocity=0, time=0),\n",
      "    Message('note_on', channel=0, note=67, velocity=0, time=0),\n",
      "    Message('note_on', channel=0, note=67, velocity=41, time=8),\n",
      "    Message('note_on', channel=0, note=62, velocity=40, time=2),\n",
      "    Message('note_on', channel=0, note=65, velocity=39, time=1),\n",
      "    Message('note_on', channel=0, note=35, velocity=0, time=196),\n",
      "    Message('note_on', channel=0, note=65, velocity=0, time=0),\n",
      "    Message('note_on', channel=0, note=65, velocity=40, time=5),\n",
      "    Message('note_on', channel=0, note=62, velocity=0, time=3),\n",
      "    Message('note_on', channel=0, note=35, velocity=46, time=3),\n",
      "    Message('note_on', channel=0, note=62, velocity=39, time=2),\n",
      "    Message('note_on', channel=0, note=55, velocity=0, time=3),\n",
      "    Message('note_on', channel=0, note=55, velocity=36, time=5),\n",
      "    Message('note_on', channel=0, note=68, velocity=63, time=220),\n",
      "    Message('note_on', channel=0, note=47, velocity=0, time=4),\n",
      "    Message('note_on', channel=0, note=74, velocity=0, time=0),\n",
      "    Message('note_on', channel=0, note=35, velocity=0, time=0),\n",
      "    Message('note_on', channel=0, note=67, velocity=0, time=0),\n",
      "    Message('note_on', channel=0, note=55, velocity=0, time=1),\n",
      "    Message('note_on', channel=0, note=65, velocity=0, time=1),\n",
      "    Message('note_on', channel=0, note=62, velocity=0, time=0),\n",
      "    Message('control_change', channel=0, control=64, value=0, time=3),\n",
      "    Message('note_on', channel=0, note=63, velocity=48, time=10),\n",
      "    Message('note_on', channel=0, note=36, velocity=36, time=2),\n",
      "    Message('note_on', channel=0, note=48, velocity=34, time=3),\n",
      "    Message('note_on', channel=0, note=36, velocity=0, time=73),\n",
      "    Message('control_change', channel=0, control=64, value=127, time=0),\n",
      "    Message('note_on', channel=0, note=63, velocity=0, time=162),\n",
      "    Message('note_on', channel=0, note=67, velocity=63, time=6),\n",
      "    Message('note_on', channel=0, note=63, velocity=54, time=5),\n",
      "    Message('note_on', channel=0, note=48, velocity=0, time=12),\n",
      "    Message('note_on', channel=0, note=48, velocity=25, time=7),\n",
      "    Message('note_on', channel=0, note=36, velocity=26, time=16),\n",
      "    Message('note_on', channel=0, note=55, velocity=27, time=0),\n",
      "    Message('note_on', channel=0, note=71, velocity=68, time=142),\n",
      "    Message('note_on', channel=0, note=63, velocity=0, time=4),\n",
      "    Message('note_on', channel=0, note=67, velocity=0, time=0),\n",
      "    Message('note_on', channel=0, note=67, velocity=57, time=4),\n",
      "    Message('note_on', channel=0, note=63, velocity=58, time=1),\n",
      "    Message('note_on', channel=0, note=48, velocity=0, time=87),\n",
      "    Message('note_on', channel=0, note=55, velocity=0, time=7),\n",
      "    Message('note_on', channel=0, note=60, velocity=47, time=2),\n",
      "    Message('note_on', channel=0, note=48, velocity=41, time=2),\n",
      "    Message('note_on', channel=0, note=55, velocity=32, time=6),\n",
      "    Message('note_on', channel=0, note=36, velocity=0, time=13),\n",
      "    Message('note_on', channel=0, note=72, velocity=83, time=20),\n",
      "    Message('note_on', channel=0, note=63, velocity=0, time=3),\n",
      "    Message('note_on', channel=0, note=67, velocity=0, time=0),\n",
      "    Message('note_on', channel=0, note=63, velocity=69, time=6),\n",
      "    Message('note_on', channel=0, note=67, velocity=47, time=5),\n",
      "    Message('note_on', channel=0, note=48, velocity=0, time=143),\n",
      "    Message('note_on', channel=0, note=72, velocity=0, time=0),\n",
      "    Message('note_on', channel=0, note=74, velocity=75, time=5),\n",
      "    Message('note_on', channel=0, note=55, velocity=0, time=3),\n",
      "    Message('note_on', channel=0, note=67, velocity=0, time=0),\n",
      "    Message('note_on', channel=0, note=48, velocity=40, time=2),\n",
      "    Message('note_on', channel=0, note=72, velocity=66, time=1),\n",
      "    Message('note_on', channel=0, note=67, velocity=64, time=2),\n",
      "    Message('note_on', channel=0, note=55, velocity=48, time=1),\n",
      "    Message('note_on', channel=0, note=67, velocity=0, time=155),\n",
      "    Message('note_on', channel=0, note=72, velocity=0, time=0),\n",
      "    Message('note_on', channel=0, note=75, velocity=79, time=3),\n",
      "    Message('note_on', channel=0, note=67, velocity=60, time=2),\n",
      "    Message('note_on', channel=0, note=72, velocity=56, time=2),\n",
      "    Message('note_on', channel=0, note=55, velocity=0, time=16),\n",
      "    Message('note_on', channel=0, note=55, velocity=39, time=8),\n",
      "    Message('note_on', channel=0, note=63, velocity=0, time=53),\n",
      "    Message('note_on', channel=0, note=63, velocity=48, time=7),\n",
      "    Message('note_on', channel=0, note=51, velocity=31, time=49),\n",
      "    Message('note_on', channel=0, note=84, velocity=70, time=36),\n",
      "    Message('note_on', channel=0, note=75, velocity=0, time=8),\n",
      "    Message('note_on', channel=0, note=72, velocity=0, time=8),\n",
      "    Message('note_on', channel=0, note=75, velocity=52, time=3),\n",
      "    Message('note_on', channel=0, note=72, velocity=57, time=1),\n",
      "    Message('note_on', channel=0, note=48, velocity=0, time=134),\n",
      "    Message('note_on', channel=0, note=48, velocity=31, time=5),\n",
      "    Message('note_on', channel=0, note=75, velocity=0, time=34),\n",
      "    Message('note_on', channel=0, note=67, velocity=0, time=7),\n",
      "    Message('note_on', channel=0, note=72, velocity=0, time=0),\n",
      "    Message('note_on', channel=0, note=80, velocity=70, time=3),\n",
      "    Message('note_on', channel=0, note=75, velocity=61, time=0),\n",
      "    Message('note_on', channel=0, note=72, velocity=57, time=2),\n",
      "    Message('note_on', channel=0, note=67, velocity=42, time=6),\n",
      "    Message('note_on', channel=0, note=48, velocity=0, time=191),\n",
      "    Message('note_on', channel=0, note=51, velocity=0, time=0),\n",
      "    Message('note_on', channel=0, note=63, velocity=0, time=0),\n",
      "    Message('note_on', channel=0, note=74, velocity=0, time=0),\n",
      "    Message('note_on', channel=0, note=60, velocity=0, time=0),\n",
      "    Message('note_on', channel=0, note=75, velocity=0, time=1),\n",
      "    Message('note_on', channel=0, note=55, velocity=0, time=0),\n",
      "    Message('control_change', channel=0, control=64, value=0, time=0),\n",
      "    Message('note_on', channel=0, note=72, velocity=0, time=0),\n",
      "    Message('note_on', channel=0, note=80, velocity=0, time=0),\n",
      "    Message('note_on', channel=0, note=84, velocity=0, time=1),\n",
      "    Message('note_on', channel=0, note=68, velocity=0, time=4),\n",
      "    Message('note_on', channel=0, note=79, velocity=66, time=3),\n",
      "    Message('note_on', channel=0, note=71, velocity=0, time=12),\n",
      "    Message('note_on', channel=0, note=67, velocity=0, time=8),\n",
      "    Message('note_on', channel=0, note=71, velocity=43, time=3),\n",
      "    Message('note_on', channel=0, note=65, velocity=40, time=1),\n",
      "    Message('note_on', channel=0, note=67, velocity=38, time=1),\n",
      "    Message('note_on', channel=0, note=50, velocity=37, time=4),\n",
      "    Message('note_on', channel=0, note=74, velocity=31, time=1),\n",
      "    Message('control_change', channel=0, control=64, value=127, time=67),\n",
      "    Message('note_on', channel=0, note=50, velocity=0, time=207),\n",
      "    Message('note_on', channel=0, note=71, velocity=0, time=8),\n",
      "    Message('note_on', channel=0, note=55, velocity=42, time=2),\n",
      "    Message('note_on', channel=0, note=50, velocity=28, time=1),\n",
      "    Message('note_on', channel=0, note=65, velocity=0, time=4),\n",
      "    Message('note_on', channel=0, note=67, velocity=0, time=0),\n",
      "    Message('note_on', channel=0, note=71, velocity=42, time=2),\n",
      "    Message('note_on', channel=0, note=67, velocity=39, time=4),\n",
      "    Message('note_on', channel=0, note=65, velocity=27, time=2),\n",
      "    Message('note_on', channel=0, note=71, velocity=0, time=161),\n",
      "    Message('note_on', channel=0, note=55, velocity=0, time=8),\n",
      "    Message('note_on', channel=0, note=67, velocity=0, time=0),\n",
      "    Message('note_on', channel=0, note=71, velocity=47, time=1),\n",
      "    Message('note_on', channel=0, note=62, velocity=40, time=2),\n",
      "    Message('note_on', channel=0, note=55, velocity=36, time=1),\n",
      "    Message('note_on', channel=0, note=65, velocity=0, time=4),\n",
      "    Message('note_on', channel=0, note=67, velocity=39, time=1),\n",
      "    Message('note_on', channel=0, note=65, velocity=32, time=5),\n",
      "    Message('note_on', channel=0, note=71, velocity=0, time=139),\n",
      "    Message('note_on', channel=0, note=71, velocity=47, time=6),\n",
      "    Message('note_on', channel=0, note=65, velocity=0, time=10),\n",
      "    Message('note_on', channel=0, note=65, velocity=35, time=4),\n",
      "    Message('note_on', channel=0, note=50, velocity=0, time=4),\n",
      "    Message('note_on', channel=0, note=55, velocity=0, time=0),\n",
      "    Message('note_on', channel=0, note=67, velocity=0, time=0),\n",
      "    Message('note_on', channel=0, note=67, velocity=38, time=5),\n",
      "    Message('note_on', channel=0, note=50, velocity=29, time=4),\n",
      "    Message('note_on', channel=0, note=55, velocity=35, time=1),\n",
      "    Message('note_on', channel=0, note=73, velocity=57, time=218),\n",
      "    Message('note_on', channel=0, note=71, velocity=0, time=2),\n",
      "    Message('note_on', channel=0, note=71, velocity=45, time=4),\n",
      "    Message('note_on', channel=0, note=67, velocity=0, time=11),\n",
      "    Message('note_on', channel=0, note=67, velocity=38, time=6),\n",
      "    Message('note_on', channel=0, note=62, velocity=0, time=63),\n",
      "    Message('note_on', channel=0, note=55, velocity=0, time=8),\n",
      "    Message('note_on', channel=0, note=62, velocity=37, time=4),\n",
      "    Message('note_on', channel=0, note=55, velocity=31, time=6),\n",
      "    Message('note_on', channel=0, note=74, velocity=0, time=28),\n",
      "    Message('note_on', channel=0, note=71, velocity=0, time=8),\n",
      "    Message('note_on', channel=0, note=74, velocity=60, time=3),\n",
      "    Message('note_on', channel=0, note=71, velocity=39, time=4),\n",
      "    Message('note_on', channel=0, note=65, velocity=0, time=1),\n",
      "    Message('note_on', channel=0, note=67, velocity=0, time=8),\n",
      "    Message('note_on', channel=0, note=65, velocity=28, time=2),\n",
      "    Message('note_on', channel=0, note=67, velocity=34, time=2),\n",
      "    Message('note_on', channel=0, note=79, velocity=0, time=126),\n",
      "    Message('note_on', channel=0, note=71, velocity=0, time=8),\n",
      "    Message('note_on', channel=0, note=79, velocity=64, time=3),\n",
      "    Message('note_on', channel=0, note=65, velocity=0, time=4),\n",
      "    Message('note_on', channel=0, note=71, velocity=49, time=3),\n",
      "    Message('note_on', channel=0, note=67, velocity=0, time=5),\n",
      "    Message('note_on', channel=0, note=65, velocity=32, time=4),\n",
      "    Message('note_on', channel=0, note=67, velocity=40, time=1),\n",
      "    Message('note_on', channel=0, note=50, velocity=0, time=80),\n",
      "    Message('note_on', channel=0, note=50, velocity=35, time=11),\n",
      "    Message('note_on', channel=0, note=38, velocity=36, time=4),\n",
      "    Message('note_on', channel=0, note=67, velocity=0, time=38),\n",
      "    Message('note_on', channel=0, note=71, velocity=0, time=0),\n",
      "    Message('note_on', channel=0, note=77, velocity=60, time=7),\n",
      "    Message('note_on', channel=0, note=67, velocity=38, time=2),\n",
      "    Message('note_on', channel=0, note=71, velocity=54, time=3),\n",
      "    Message('note_on', channel=0, note=65, velocity=0, time=19),\n",
      "    Message('note_on', channel=0, note=65, velocity=20, time=6),\n",
      "    Message('note_on', channel=0, note=71, velocity=0, time=109),\n",
      "    Message('note_on', channel=0, note=75, velocity=61, time=10),\n",
      "    Message('note_on', channel=0, note=71, velocity=50, time=0),\n",
      "    Message('note_on', channel=0, note=67, velocity=0, time=13),\n",
      "    Message('note_on', channel=0, note=67, velocity=25, time=5),\n",
      "    Message('note_on', channel=0, note=65, velocity=0, time=11),\n",
      "    Message('note_on', channel=0, note=65, velocity=14, time=9),\n",
      "    Message('note_on', channel=0, note=55, velocity=0, time=95),\n",
      "    Message('note_on', channel=0, note=38, velocity=0, time=1),\n",
      "    Message('note_on', channel=0, note=65, velocity=0, time=0),\n",
      "    Message('note_on', channel=0, note=71, velocity=0, time=0),\n",
      "    Message('note_on', channel=0, note=74, velocity=0, time=0),\n",
      "    Message('note_on', channel=0, note=73, velocity=0, time=0),\n",
      "    Message('note_on', channel=0, note=77, velocity=0, time=1),\n",
      "    Message('control_change', channel=0, control=64, value=0, time=2),\n",
      "    Message('note_on', channel=0, note=62, velocity=0, time=7),\n",
      "    Message('note_on', channel=0, note=75, velocity=0, time=0),\n",
      "    Message('note_on', channel=0, note=50, velocity=0, time=8),\n",
      "    Message('note_on', channel=0, note=79, velocity=0, time=0),\n",
      "    Message('note_on', channel=0, note=75, velocity=58, time=0),\n",
      "    Message('note_on', channel=0, note=67, velocity=0, time=15),\n",
      "    Message('note_on', channel=0, note=51, velocity=32, time=3),\n",
      "    Message('note_on', channel=0, note=67, velocity=32, time=2),\n",
      "    Message('note_on', channel=0, note=72, velocity=42, time=1),\n",
      "    Message('note_on', channel=0, note=39, velocity=36, time=5),\n",
      "    Message('control_change', channel=0, control=64, value=127, time=58),\n",
      "    Message('note_on', channel=0, note=39, velocity=0, time=26),\n",
      "    Message('note_on', channel=0, note=72, velocity=0, time=166),\n",
      "    Message('note_on', channel=0, note=72, velocity=41, time=4),\n",
      "    Message('note_on', channel=0, note=60, velocity=38, time=3),\n",
      "    Message('note_on', channel=0, note=51, velocity=0, time=1),\n",
      "    Message('note_on', channel=0, note=67, velocity=0, time=0),\n",
      "    Message('note_on', channel=0, note=63, velocity=28, time=3),\n",
      "    Message('note_on', channel=0, note=67, velocity=38, time=2),\n",
      "    Message('note_on', channel=0, note=51, velocity=30, time=4),\n",
      "    Message('note_on', channel=0, note=63, velocity=0, time=152),\n",
      "    Message('note_on', channel=0, note=63, velocity=41, time=5),\n",
      "    Message('note_on', channel=0, note=60, velocity=0, time=3),\n",
      "    Message('note_on', channel=0, note=67, velocity=0, time=0),\n",
      "    Message('note_on', channel=0, note=72, velocity=0, time=0),\n",
      "    Message('note_on', channel=0, note=72, velocity=43, time=4),\n",
      "    Message('note_on', channel=0, note=67, velocity=33, time=4),\n",
      "    Message('note_on', channel=0, note=60, velocity=28, time=2),\n",
      "    Message('note_on', channel=0, note=55, velocity=30, time=4),\n",
      "    Message('note_on', channel=0, note=60, velocity=0, time=147),\n",
      "    Message('note_on', channel=0, note=67, velocity=0, time=0),\n",
      "    Message('note_on', channel=0, note=72, velocity=0, time=0),\n",
      "    Message('note_on', channel=0, note=60, velocity=39, time=5),\n",
      "    Message('note_on', channel=0, note=72, velocity=44, time=0),\n",
      "    Message('note_on', channel=0, note=67, velocity=36, time=1),\n",
      "    Message('note_on', channel=0, note=51, velocity=0, time=9),\n",
      "    Message('note_on', channel=0, note=51, velocity=26, time=9),\n",
      "    Message('note_on', channel=0, note=63, velocity=0, time=160),\n",
      "    Message('note_on', channel=0, note=55, velocity=0, time=8),\n",
      "    Message('note_on', channel=0, note=67, velocity=0, time=0),\n",
      "    Message('note_on', channel=0, note=72, velocity=0, time=0),\n",
      "    Message('note_on', channel=0, note=63, velocity=31, time=4),\n",
      "    Message('note_on', channel=0, note=60, velocity=0, time=4),\n",
      "    Message('note_on', channel=0, note=67, velocity=33, time=2),\n",
      "    Message('note_on', channel=0, note=72, velocity=34, time=1),\n",
      "    Message('note_on', channel=0, note=55, velocity=26, time=0),\n",
      "    Message('note_on', channel=0, note=60, velocity=22, time=6),\n",
      "    Message('note_on', channel=0, note=72, velocity=0, time=206),\n",
      "    Message('note_on', channel=0, note=72, velocity=42, time=6),\n",
      "    Message('note_on', channel=0, note=51, velocity=0, time=1),\n",
      "    Message('note_on', channel=0, note=67, velocity=0, time=0),\n",
      "    Message('note_on', channel=0, note=51, velocity=37, time=8),\n",
      "    Message('note_on', channel=0, note=63, velocity=0, time=0),\n",
      "    Message('note_on', channel=0, note=55, velocity=0, time=0),\n",
      "    Message('note_on', channel=0, note=67, velocity=34, time=3),\n",
      "    Message('note_on', channel=0, note=63, velocity=31, time=2),\n",
      "    Message('note_on', channel=0, note=39, velocity=31, time=1),\n",
      "    Message('note_on', channel=0, note=63, velocity=0, time=200),\n",
      "    Message('note_on', channel=0, note=51, velocity=0, time=0),\n",
      "    Message('note_on', channel=0, note=67, velocity=0, time=0),\n",
      "    Message('note_on', channel=0, note=72, velocity=0, time=1),\n",
      "    Message('note_on', channel=0, note=75, velocity=0, time=1),\n",
      "    Message('note_on', channel=0, note=39, velocity=0, time=0),\n",
      "    Message('control_change', channel=0, control=64, value=0, time=2),\n",
      "    Message('note_on', channel=0, note=60, velocity=0, time=13),\n",
      "    Message('note_on', channel=0, note=68, velocity=40, time=12),\n",
      "    Message('note_on', channel=0, note=62, velocity=37, time=8),\n",
      "    Message('note_on', channel=0, note=41, velocity=25, time=7),\n",
      "    Message('note_on', channel=0, note=53, velocity=17, time=2),\n",
      "    Message('control_change', channel=0, control=64, value=127, time=40),\n",
      "    Message('note_on', channel=0, note=62, velocity=0, time=215),\n",
      "    Message('note_on', channel=0, note=62, velocity=31, time=8),\n",
      "    Message('note_on', channel=0, note=53, velocity=0, time=7),\n",
      "    Message('note_on', channel=0, note=68, velocity=0, time=0),\n",
      "    Message('note_on', channel=0, note=59, velocity=41, time=4),\n",
      "    Message('note_on', channel=0, note=53, velocity=34, time=1),\n",
      "    Message('note_on', channel=0, note=68, velocity=42, time=0),\n",
      "    Message('note_on', channel=0, note=62, velocity=0, time=180),\n",
      "    Message('note_on', channel=0, note=68, velocity=0, time=0),\n",
      "    Message('note_on', channel=0, note=68, velocity=39, time=4),\n",
      "    Message('note_on', channel=0, note=62, velocity=37, time=7),\n",
      "    Message('note_on', channel=0, note=65, velocity=31, time=0),\n",
      "    Message('note_on', channel=0, note=59, velocity=0, time=12),\n",
      "    Message('note_on', channel=0, note=59, velocity=24, time=5),\n",
      "    Message('note_on', channel=0, note=71, velocity=61, time=189),\n",
      "    Message('note_on', channel=0, note=62, velocity=0, time=5),\n",
      "    Message('note_on', channel=0, note=62, velocity=45, time=4),\n",
      "    Message('note_on', channel=0, note=53, velocity=0, time=4),\n",
      "    Message('note_on', channel=0, note=68, velocity=0, time=0),\n",
      "    Message('note_on', channel=0, note=59, velocity=0, time=8),\n",
      "    Message('note_on', channel=0, note=68, velocity=41, time=2),\n",
      "    Message('note_on', channel=0, note=53, velocity=25, time=0),\n",
      "    Message('note_on', channel=0, note=59, velocity=30, time=2),\n",
      "    Message('note_on', channel=0, note=62, velocity=0, time=165),\n",
      "    Message('note_on', channel=0, note=53, velocity=0, time=7),\n",
      "    Message('note_on', channel=0, note=59, velocity=0, time=0),\n",
      "    Message('note_on', channel=0, note=68, velocity=0, time=0),\n",
      "    Message('note_on', channel=0, note=62, velocity=39, time=4),\n",
      "    Message('note_on', channel=0, note=65, velocity=0, time=1),\n",
      "    Message('note_on', channel=0, note=59, velocity=31, time=2),\n",
      "    Message('note_on', channel=0, note=68, velocity=35, time=1),\n",
      "    Message('note_on', channel=0, note=53, velocity=23, time=1),\n",
      "    Message('note_on', channel=0, note=62, velocity=0, time=168),\n",
      "    Message('note_on', channel=0, note=68, velocity=0, time=0),\n",
      "    Message('note_on', channel=0, note=68, velocity=44, time=7),\n",
      "    Message('note_on', channel=0, note=53, velocity=0, time=1),\n",
      "    Message('note_on', channel=0, note=62, velocity=45, time=2),\n",
      "    Message('note_on', channel=0, note=53, velocity=27, time=2),\n",
      "    Message('note_on', channel=0, note=41, velocity=0, time=188),\n",
      "    Message('note_on', channel=0, note=59, velocity=0, time=2),\n",
      "    Message('note_on', channel=0, note=68, velocity=0, time=0),\n",
      "    Message('note_on', channel=0, note=53, velocity=0, time=1),\n",
      "    Message('note_on', channel=0, note=62, velocity=0, time=0),\n",
      "    Message('control_change', channel=0, control=64, value=0, time=1),\n",
      "    Message('note_on', channel=0, note=51, velocity=40, time=14),\n",
      "    Message('note_on', channel=0, note=67, velocity=31, time=2),\n",
      "    Message('note_on', channel=0, note=63, velocity=34, time=3),\n",
      "    Message('note_on', channel=0, note=39, velocity=34, time=4),\n",
      "    Message('note_on', channel=0, note=71, velocity=0, time=3),\n",
      "    Message('note_on', channel=0, note=39, velocity=0, time=66),\n",
      "    Message('control_change', channel=0, control=64, value=127, time=27),\n",
      "    Message('note_on', channel=0, note=63, velocity=0, time=115),\n",
      "    Message('note_on', channel=0, note=67, velocity=0, time=0),\n",
      "    Message('note_on', channel=0, note=67, velocity=38, time=5),\n",
      "    Message('note_on', channel=0, note=63, velocity=42, time=0),\n",
      "    Message('note_on', channel=0, note=55, velocity=32, time=12),\n",
      "    Message('note_on', channel=0, note=72, velocity=67, time=135),\n",
      "    Message('note_on', channel=0, note=63, velocity=0, time=24),\n",
      "    Message('note_on', channel=0, note=63, velocity=36, time=4),\n",
      "    Message('note_on', channel=0, note=67, velocity=0, time=12),\n",
      "    Message('note_on', channel=0, note=67, velocity=32, time=4),\n",
      "    Message('note_on', channel=0, note=55, velocity=0, time=3),\n",
      "    Message('note_on', channel=0, note=55, velocity=31, time=7),\n",
      "    Message('note_on', channel=0, note=60, velocity=26, time=12),\n",
      "    Message('note_on', channel=0, note=48, velocity=27, time=192),\n",
      "    Message('note_on', channel=0, note=74, velocity=68, time=2),\n",
      "    Message('note_on', channel=0, note=55, velocity=0, time=18),\n",
      "    Message('note_on', channel=0, note=55, velocity=32, time=6),\n",
      "    Message('note_on', channel=0, note=63, velocity=0, time=1),\n",
      "    Message('note_on', channel=0, note=67, velocity=0, time=0),\n",
      "    Message('note_on', channel=0, note=63, velocity=45, time=6),\n",
      "    Message('note_on', channel=0, note=67, velocity=35, time=0),\n",
      "    Message('note_on', channel=0, note=63, velocity=0, time=186),\n",
      "    Message('note_on', channel=0, note=55, velocity=0, time=8),\n",
      "    Message('note_on', channel=0, note=67, velocity=0, time=0),\n",
      "    Message('note_on', channel=0, note=63, velocity=48, time=2),\n",
      "    Message('note_on', channel=0, note=60, velocity=0, time=3),\n",
      "    Message('note_on', channel=0, note=67, velocity=36, time=1),\n",
      "    Message('note_on', channel=0, note=55, velocity=29, time=4),\n",
      "    Message('note_on', channel=0, note=75, velocity=65, time=159),\n",
      "    Message('note_on', channel=0, note=63, velocity=0, time=23),\n",
      "    Message('note_on', channel=0, note=63, velocity=25, time=9),\n",
      "    Message('note_on', channel=0, note=48, velocity=0, time=7),\n",
      "    Message('note_on', channel=0, note=67, velocity=0, time=0),\n",
      "    Message('note_on', channel=0, note=67, velocity=17, time=5),\n",
      "    Message('note_on', channel=0, note=36, velocity=29, time=0),\n",
      "    Message('note_on', channel=0, note=48, velocity=28, time=5),\n",
      "    Message('note_on', channel=0, note=48, velocity=0, time=201),\n",
      "    Message('note_on', channel=0, note=63, velocity=0, time=1),\n",
      "    Message('note_on', channel=0, note=74, velocity=0, time=0),\n",
      "    Message('note_on', channel=0, note=72, velocity=0, time=0),\n",
      "    Message('control_change', channel=0, control=64, value=0, time=1),\n",
      "    Message('note_on', channel=0, note=55, velocity=0, time=0),\n",
      "    Message('note_on', channel=0, note=51, velocity=0, time=9),\n",
      "    Message('note_on', channel=0, note=36, velocity=0, time=23),\n",
      "    Message('note_on', channel=0, note=67, velocity=0, time=8),\n",
      "    Message('note_on', channel=0, note=67, velocity=36, time=10),\n",
      "    Message('note_on', channel=0, note=35, velocity=43, time=2),\n",
      "    Message('note_on', channel=0, note=65, velocity=31, time=7),\n",
      "    Message('note_on', channel=0, note=47, velocity=31, time=0),\n",
      "    Message('control_change', channel=0, control=64, value=127, time=42),\n",
      "    Message('note_on', channel=0, note=65, velocity=0, time=185),\n",
      "    Message('note_on', channel=0, note=67, velocity=0, time=0),\n",
      "    Message('note_on', channel=0, note=65, velocity=36, time=4),\n",
      "    Message('note_on', channel=0, note=67, velocity=38, time=0),\n",
      "    Message('note_on', channel=0, note=55, velocity=41, time=1),\n",
      "    Message('note_on', channel=0, note=67, velocity=0, time=156),\n",
      "    Message('note_on', channel=0, note=55, velocity=0, time=8),\n",
      "    Message('note_on', channel=0, note=65, velocity=0, time=0),\n",
      "    Message('note_on', channel=0, note=67, velocity=46, time=3),\n",
      "    Message('note_on', channel=0, note=62, velocity=47, time=1),\n",
      "    Message('note_on', channel=0, note=65, velocity=41, time=1),\n",
      "    Message('note_on', channel=0, note=55, velocity=39, time=0),\n",
      "    Message('note_on', channel=0, note=74, velocity=79, time=191),\n",
      "    Message('note_on', channel=0, note=62, velocity=0, time=34),\n",
      "    Message('note_on', channel=0, note=65, velocity=0, time=8),\n",
      "    Message('note_on', channel=0, note=67, velocity=0, time=0),\n",
      "    Message('note_on', channel=0, note=62, velocity=13, time=4),\n",
      "    Message('note_on', channel=0, note=65, velocity=24, time=0),\n",
      "    Message('note_on', channel=0, note=67, velocity=32, time=2),\n",
      "    Message('note_on', channel=0, note=65, velocity=0, time=155),\n",
      "    Message('note_on', channel=0, note=67, velocity=0, time=0),\n",
      "    Message('note_on', channel=0, note=65, velocity=47, time=5),\n",
      "    Message('note_on', channel=0, note=55, velocity=0, time=3),\n",
      "    Message('note_on', channel=0, note=62, velocity=0, time=0),\n",
      "    Message('note_on', channel=0, note=67, velocity=46, time=3),\n",
      "    Message('note_on', channel=0, note=55, velocity=38, time=1),\n",
      "    Message('note_on', channel=0, note=62, velocity=28, time=1),\n",
      "    Message('note_on', channel=0, note=47, velocity=0, time=171),\n",
      "    Message('note_on', channel=0, note=67, velocity=0, time=0),\n",
      "    Message('note_on', channel=0, note=35, velocity=0, time=8),\n",
      "    Message('note_on', channel=0, note=62, velocity=0, time=0),\n",
      "    Message('note_on', channel=0, note=65, velocity=0, time=0),\n",
      "    Message('note_on', channel=0, note=67, velocity=42, time=1),\n",
      "    Message('note_on', channel=0, note=47, velocity=41, time=2),\n",
      "    Message('note_on', channel=0, note=35, velocity=45, time=4),\n",
      "    Message('note_on', channel=0, note=65, velocity=33, time=0),\n",
      "    Message('note_on', channel=0, note=55, velocity=0, time=1),\n",
      "    Message('note_on', channel=0, note=62, velocity=30, time=4),\n",
      "    Message('note_on', channel=0, note=55, velocity=37, time=7),\n",
      "    Message('note_on', channel=0, note=35, velocity=0, time=169),\n",
      "    Message('note_on', channel=0, note=55, velocity=0, time=1),\n",
      "    Message('note_on', channel=0, note=47, velocity=0, time=0),\n",
      "    Message('note_on', channel=0, note=62, velocity=0, time=1),\n",
      "    Message('note_on', channel=0, note=65, velocity=0, time=1),\n",
      "    Message('control_change', channel=0, control=64, value=0, time=2),\n",
      "    Message('note_on', channel=0, note=67, velocity=0, time=14),\n",
      "    Message('note_on', channel=0, note=67, velocity=43, time=8),\n",
      "    Message('note_on', channel=0, note=63, velocity=45, time=2),\n",
      "    Message('note_on', channel=0, note=60, velocity=26, time=13),\n",
      "    Message('note_on', channel=0, note=48, velocity=35, time=5),\n",
      "    Message('note_on', channel=0, note=36, velocity=36, time=0),\n",
      "    Message('note_on', channel=0, note=60, velocity=0, time=3),\n",
      "    Message('note_on', channel=0, note=36, velocity=0, time=37),\n",
      "    Message('control_change', channel=0, control=64, value=127, time=9),\n",
      "    Message('note_on', channel=0, note=63, velocity=0, time=131),\n",
      "    Message('note_on', channel=0, note=67, velocity=0, time=0),\n",
      "    Message('note_on', channel=0, note=63, velocity=45, time=6),\n",
      "    Message('note_on', channel=0, note=67, velocity=40, time=1),\n",
      "    Message('note_on', channel=0, note=60, velocity=18, time=53),\n",
      "    Message('note_on', channel=0, note=55, velocity=24, time=5),\n",
      "    Message('note_on', channel=0, note=75, velocity=0, time=81),\n",
      "    Message('note_on', channel=0, note=75, velocity=79, time=7),\n",
      "    Message('note_on', channel=0, note=67, velocity=0, time=8),\n",
      "    Message('note_on', channel=0, note=67, velocity=47, time=9),\n",
      "    Message('note_on', channel=0, note=72, velocity=62, time=2),\n",
      "    Message('note_on', channel=0, note=55, velocity=0, time=74),\n",
      "    Message('note_on', channel=0, note=63, velocity=0, time=0),\n",
      "    Message('note_on', channel=0, note=63, velocity=31, time=4),\n",
      "    Message('note_on', channel=0, note=55, velocity=26, time=6),\n",
      "    Message('note_on', channel=0, note=77, velocity=77, time=185),\n",
      "    Message('note_on', channel=0, note=48, velocity=0, time=20),\n",
      "    Message('note_on', channel=0, note=72, velocity=0, time=0),\n",
      "    Message('note_on', channel=0, note=55, velocity=0, time=7),\n",
      "    Message('note_on', channel=0, note=67, velocity=0, time=0),\n",
      "    Message('note_on', channel=0, note=48, velocity=35, time=3),\n",
      "    Message('note_on', channel=0, note=72, velocity=52, time=1),\n",
      "    Message('note_on', channel=0, note=67, velocity=42, time=6),\n",
      "    Message('note_on', channel=0, note=55, velocity=42, time=2),\n",
      "    Message('note_on', channel=0, note=72, velocity=0, time=165),\n",
      "    Message('note_on', channel=0, note=63, velocity=0, time=8),\n",
      "    Message('note_on', channel=0, note=72, velocity=51, time=3),\n",
      "    Message('note_on', channel=0, note=60, velocity=0, time=4),\n",
      "    Message('note_on', channel=0, note=67, velocity=0, time=0),\n",
      "    Message('note_on', channel=0, note=63, velocity=43, time=3),\n",
      "    Message('note_on', channel=0, note=48, velocity=0, time=5),\n",
      "    Message('note_on', channel=0, note=67, velocity=36, time=3),\n",
      "    Message('note_on', channel=0, note=60, velocity=29, time=0),\n",
      "    Message('note_on', channel=0, note=51, velocity=42, time=0),\n",
      "    Message('note_on', channel=0, note=48, velocity=29, time=4),\n",
      "    Message('note_on', channel=0, note=72, velocity=0, time=116),\n",
      "    Message('note_on', channel=0, note=79, velocity=80, time=2),\n",
      "    Message('note_on', channel=0, note=72, velocity=52, time=8),\n",
      "    Message('note_on', channel=0, note=67, velocity=0, time=5),\n",
      "    Message('note_on', channel=0, note=75, velocity=0, time=0),\n",
      "    Message('note_on', channel=0, note=75, velocity=43, time=4),\n",
      "    Message('note_on', channel=0, note=67, velocity=49, time=7),\n",
      "    Message('note_on', channel=0, note=48, velocity=0, time=97),\n",
      "    Message('note_on', channel=0, note=48, velocity=44, time=4),\n",
      "    Message('note_on', channel=0, note=36, velocity=40, time=3),\n",
      "    Message('note_on', channel=0, note=79, velocity=0, time=54),\n",
      "    Message('note_on', channel=0, note=67, velocity=0, time=8),\n",
      "    Message('note_on', channel=0, note=79, velocity=52, time=2),\n",
      "    Message('note_on', channel=0, note=67, velocity=43, time=4),\n",
      "    Message('note_on', channel=0, note=79, velocity=0, time=193),\n",
      "    Message('note_on', channel=0, note=79, velocity=76, time=6),\n",
      "    Message('note_on', channel=0, note=75, velocity=0, time=2),\n",
      "    Message('note_on', channel=0, note=72, velocity=0, time=8),\n",
      "    Message('note_on', channel=0, note=75, velocity=61, time=3),\n",
      "    Message('note_on', channel=0, note=72, velocity=58, time=1),\n",
      "    Message('note_on', channel=0, note=68, velocity=52, time=9),\n",
      "    Message('control_change', channel=0, control=64, value=0, time=0),\n",
      "    Message('note_on', channel=0, note=74, velocity=0, time=2),\n",
      "    Message('note_on', channel=0, note=51, velocity=0, time=1),\n",
      "    Message('note_on', channel=0, note=67, velocity=0, time=2),\n",
      "    Message('note_on', channel=0, note=55, velocity=0, time=0),\n",
      "    Message('note_on', channel=0, note=63, velocity=0, time=1),\n",
      "    Message('note_on', channel=0, note=77, velocity=0, time=0),\n",
      "    Message('note_on', channel=0, note=48, velocity=0, time=0),\n",
      "    Message('note_on', channel=0, note=41, velocity=48, time=1),\n",
      "    Message('note_on', channel=0, note=29, velocity=52, time=5),\n",
      "    Message('note_on', channel=0, note=36, velocity=0, time=13),\n",
      "    Message('note_on', channel=0, note=60, velocity=0, time=0),\n",
      "    Message('note_on', channel=0, note=29, velocity=0, time=34),\n",
      "    Message('note_on', channel=0, note=41, velocity=0, time=0),\n",
      "    Message('control_change', channel=0, control=64, value=127, time=20),\n",
      "    Message('note_on', channel=0, note=68, velocity=0, time=184),\n",
      "    Message('note_on', channel=0, note=72, velocity=0, time=0),\n",
      "    Message('note_on', channel=0, note=75, velocity=0, time=0),\n",
      "    Message('note_on', channel=0, note=68, velocity=51, time=5),\n",
      "    Message('note_on', channel=0, note=72, velocity=50, time=6),\n",
      "    Message('note_on', channel=0, note=75, velocity=54, time=0),\n",
      "    Message('note_on', channel=0, note=60, velocity=41, time=30),\n",
      "    Message('note_on', channel=0, note=53, velocity=41, time=5),\n",
      "    Message('note_on', channel=0, note=77, velocity=88, time=81),\n",
      "    Message('note_on', channel=0, note=68, velocity=0, time=19),\n",
      "    Message('note_on', channel=0, note=72, velocity=0, time=0),\n",
      "    Message('note_on', channel=0, note=72, velocity=52, time=5),\n",
      "    Message('note_on', channel=0, note=75, velocity=0, time=3),\n",
      "    Message('note_on', channel=0, note=68, velocity=63, time=3),\n",
      "    Message('note_on', channel=0, note=75, velocity=52, time=2),\n",
      "    Message('note_on', channel=0, note=63, velocity=57, time=91),\n",
      "    Message('note_on', channel=0, note=56, velocity=53, time=9),\n",
      "    Message('note_on', channel=0, note=80, velocity=88, time=173),\n",
      "    Message('note_on', channel=0, note=60, velocity=0, time=29),\n",
      "    Message('note_on', channel=0, note=68, velocity=0, time=0),\n",
      "    Message('note_on', channel=0, note=72, velocity=0, time=0),\n",
      "    Message('note_on', channel=0, note=72, velocity=49, time=4),\n",
      "    Message('note_on', channel=0, note=68, velocity=53, time=1),\n",
      "    Message('note_on', channel=0, note=60, velocity=48, time=0),\n",
      "    Message('note_on', channel=0, note=63, velocity=0, time=156),\n",
      "    Message('note_on', channel=0, note=56, velocity=0, time=8),\n",
      "    Message('note_on', channel=0, note=63, velocity=48, time=3),\n",
      "    Message('note_on', channel=0, note=56, velocity=51, time=1),\n",
      "    Message('note_on', channel=0, note=68, velocity=0, time=19),\n",
      "    Message('note_on', channel=0, note=72, velocity=0, time=8),\n",
      "    Message('note_on', channel=0, note=77, velocity=0, time=0),\n",
      "    Message('note_on', channel=0, note=68, velocity=51, time=1),\n",
      "    Message('note_on', channel=0, note=77, velocity=49, time=8),\n",
      "    Message('note_on', channel=0, note=72, velocity=54, time=2),\n",
      "    Message('note_on', channel=0, note=72, velocity=0, time=119),\n",
      "    Message('note_on', channel=0, note=72, velocity=80, time=11),\n",
      "    Message('note_on', channel=0, note=68, velocity=0, time=5),\n",
      "    Message('note_on', channel=0, note=77, velocity=0, time=0),\n",
      "    Message('note_on', channel=0, note=77, velocity=59, time=5),\n",
      "    Message('note_on', channel=0, note=68, velocity=64, time=1),\n",
      "    Message('note_on', channel=0, note=65, velocity=51, time=5),\n",
      "    Message('note_on', channel=0, note=29, velocity=55, time=80),\n",
      "    Message('note_on', channel=0, note=41, velocity=49, time=0),\n",
      "    Message('note_on', channel=0, note=72, velocity=0, time=216),\n",
      "    Message('control_change', channel=0, control=64, value=0, time=2),\n",
      "    Message('note_on', channel=0, note=60, velocity=0, time=1),\n",
      "    Message('note_on', channel=0, note=56, velocity=0, time=0),\n",
      "    Message('note_on', channel=0, note=53, velocity=0, time=0),\n",
      "    Message('note_on', channel=0, note=63, velocity=0, time=1),\n",
      "    Message('note_on', channel=0, note=41, velocity=0, time=0),\n",
      "    Message('note_on', channel=0, note=75, velocity=0, time=0),\n",
      "    Message('note_on', channel=0, note=77, velocity=0, time=0),\n",
      "    Message('note_on', channel=0, note=80, velocity=0, time=0),\n",
      "    Message('note_on', channel=0, note=74, velocity=77, time=3),\n",
      "    Message('note_on', channel=0, note=29, velocity=0, time=1),\n",
      "    Message('note_on', channel=0, note=68, velocity=0, time=0),\n",
      "    Message('note_on', channel=0, note=79, velocity=0, time=0),\n",
      "    Message('note_on', channel=0, note=72, velocity=69, time=3),\n",
      "    Message('note_on', channel=0, note=68, velocity=57, time=7),\n",
      "    Message('note_on', channel=0, note=65, velocity=0, time=5),\n",
      "    Message('note_on', channel=0, note=32, velocity=52, time=5),\n",
      "    Message('note_on', channel=0, note=65, velocity=45, time=5),\n",
      "    Message('note_on', channel=0, note=44, velocity=52, time=1),\n",
      "    Message('note_on', channel=0, note=32, velocity=0, time=28),\n",
      "    Message('control_change', channel=0, control=64, value=127, time=22),\n",
      "    Message('note_on', channel=0, note=65, velocity=0, time=177),\n",
      "    Message('note_on', channel=0, note=68, velocity=0, time=0),\n",
      "    Message('note_on', channel=0, note=74, velocity=0, time=0),\n",
      "    Message('note_on', channel=0, note=68, velocity=47, time=5),\n",
      "    Message('note_on', channel=0, note=56, velocity=35, time=0),\n",
      "    Message('note_on', channel=0, note=65, velocity=34, time=1),\n",
      "    Message('note_on', channel=0, note=74, velocity=41, time=2),\n",
      "    Message('note_on', channel=0, note=60, velocity=57, time=65),\n",
      "    Message('note_on', channel=0, note=53, velocity=47, time=0),\n",
      "    Message('note_on', channel=0, note=75, velocity=80, time=81),\n",
      "    Message('note_on', channel=0, note=65, velocity=0, time=7),\n",
      "    Message('note_on', channel=0, note=72, velocity=0, time=0),\n",
      "    Message('note_on', channel=0, note=65, velocity=48, time=9),\n",
      "    Message('note_on', channel=0, note=72, velocity=58, time=1),\n",
      "    Message('note_on', channel=0, note=53, velocity=0, time=6),\n",
      "    Message('note_on', channel=0, note=68, velocity=0, time=0),\n",
      "    Message('note_on', channel=0, note=53, velocity=50, time=5),\n",
      "    Message('note_on', channel=0, note=68, velocity=55, time=6),\n",
      "    Message('note_on', channel=0, note=56, velocity=0, time=81),\n",
      "    Message('note_on', channel=0, note=63, velocity=58, time=6),\n",
      "    Message('note_on', channel=0, note=56, velocity=51, time=4),\n",
      "    Message('note_on', channel=0, note=75, velocity=0, time=143),\n",
      "    Message('note_on', channel=0, note=75, velocity=78, time=8),\n",
      "    Message('note_on', channel=0, note=68, velocity=0, time=0),\n",
      "    Message('note_on', channel=0, note=72, velocity=0, time=0),\n",
      "    Message('note_on', channel=0, note=72, velocity=70, time=11),\n",
      "    Message('note_on', channel=0, note=68, velocity=64, time=0),\n",
      "    Message('note_on', channel=0, note=44, velocity=0, time=12),\n",
      "    Message('note_on', channel=0, note=60, velocity=0, time=16),\n",
      "    Message('note_on', channel=0, note=60, velocity=42, time=11),\n",
      "    Message('note_on', channel=0, note=77, velocity=80, time=133),\n",
      "    Message('note_on', channel=0, note=72, velocity=0, time=17),\n",
      "    Message('note_on', channel=0, note=56, velocity=0, time=7),\n",
      "    Message('note_on', channel=0, note=68, velocity=0, time=0),\n",
      "    Message('note_on', channel=0, note=72, velocity=66, time=4),\n",
      "    Message('note_on', channel=0, note=68, velocity=53, time=1),\n",
      "    Message('note_on', channel=0, note=56, velocity=41, time=1),\n",
      "    Message('note_on', channel=0, note=75, velocity=0, time=110),\n",
      "    Message('note_on', channel=0, note=72, velocity=0, time=7),\n",
      "    Message('note_on', channel=0, note=75, velocity=80, time=4),\n",
      "    Message('note_on', channel=0, note=63, velocity=0, time=4),\n",
      "    Message('note_on', channel=0, note=68, velocity=0, time=0),\n",
      "    Message('note_on', channel=0, note=72, velocity=68, time=3),\n",
      "    Message('note_on', channel=0, note=68, velocity=63, time=1),\n",
      "    Message('note_on', channel=0, note=63, velocity=49, time=7),\n",
      "    Message('note_on', channel=0, note=56, velocity=0, time=4),\n",
      "    Message('note_on', channel=0, note=56, velocity=51, time=8),\n",
      "    Message('note_on', channel=0, note=74, velocity=0, time=100),\n",
      "    Message('note_on', channel=0, note=74, velocity=74, time=5),\n",
      "    Message('note_on', channel=0, note=72, velocity=0, time=10),\n",
      "    Message('note_on', channel=0, note=68, velocity=0, time=8),\n",
      "    Message('note_on', channel=0, note=72, velocity=57, time=4),\n",
      "    Message('note_on', channel=0, note=68, velocity=58, time=4),\n",
      "    Message('note_on', channel=0, note=72, velocity=0, time=92),\n",
      "    Message('note_on', channel=0, note=75, velocity=0, time=0),\n",
      "    Message('note_on', channel=0, note=75, velocity=75, time=5),\n",
      "    Message('note_on', channel=0, note=72, velocity=67, time=3),\n",
      "    Message('note_on', channel=0, note=68, velocity=0, time=7),\n",
      "    Message('note_on', channel=0, note=68, velocity=57, time=5),\n",
      "    Message('note_on', channel=0, note=56, velocity=0, time=103),\n",
      "    Message('note_on', channel=0, note=72, velocity=0, time=0),\n",
      "    Message('note_on', channel=0, note=56, velocity=44, time=5),\n",
      "    Message('note_on', channel=0, note=68, velocity=0, time=2),\n",
      "    Message('note_on', channel=0, note=79, velocity=75, time=3),\n",
      "    Message('note_on', channel=0, note=72, velocity=70, time=1),\n",
      "    Message('note_on', channel=0, note=68, velocity=60, time=7),\n",
      "    Message('note_on', channel=0, note=68, velocity=0, time=112),\n",
      "    Message('note_on', channel=0, note=72, velocity=0, time=0),\n",
      "    Message('note_on', channel=0, note=77, velocity=0, time=0),\n",
      "    Message('note_on', channel=0, note=56, velocity=0, time=8),\n",
      "    Message('note_on', channel=0, note=77, velocity=74, time=0),\n",
      "    Message('note_on', channel=0, note=72, velocity=65, time=3),\n",
      "    Message('note_on', channel=0, note=68, velocity=60, time=1),\n",
      "    Message('note_on', channel=0, note=56, velocity=48, time=7),\n",
      "    Message('note_on', channel=0, note=65, velocity=0, time=158),\n",
      "    Message('note_on', channel=0, note=74, velocity=0, time=0),\n",
      "    Message('note_on', channel=0, note=74, velocity=76, time=7),\n",
      "    Message('note_on', channel=0, note=65, velocity=51, time=3),\n",
      "    Message('control_change', channel=0, control=64, value=0, time=3),\n",
      "    Message('note_on', channel=0, note=68, velocity=0, time=2),\n",
      "    Message('note_on', channel=0, note=56, velocity=0, time=7),\n",
      "    Message('note_on', channel=0, note=72, velocity=0, time=1),\n",
      "    Message('note_on', channel=0, note=77, velocity=0, time=1),\n",
      "    Message('note_on', channel=0, note=79, velocity=0, time=0),\n",
      "    Message('note_on', channel=0, note=75, velocity=0, time=0),\n",
      "    Message('note_on', channel=0, note=68, velocity=53, time=0),\n",
      "    Message('note_on', channel=0, note=53, velocity=0, time=1),\n",
      "    Message('note_on', channel=0, note=60, velocity=0, time=0),\n",
      "    Message('note_on', channel=0, note=46, velocity=52, time=2),\n",
      "    Message('note_on', channel=0, note=34, velocity=50, time=2),\n",
      "    Message('note_on', channel=0, note=70, velocity=47, time=3),\n",
      "    Message('note_on', channel=0, note=63, velocity=0, time=6),\n",
      "    Message('control_change', channel=0, control=64, value=127, time=54),\n",
      "    Message('note_on', channel=0, note=34, velocity=0, time=31),\n",
      "    Message('note_on', channel=0, note=65, velocity=0, time=192),\n",
      "    Message('note_on', channel=0, note=46, velocity=0, time=7),\n",
      "    Message('note_on', channel=0, note=70, velocity=0, time=0),\n",
      "    Message('note_on', channel=0, note=65, velocity=43, time=4),\n",
      "    Message('note_on', channel=0, note=62, velocity=35, time=0),\n",
      "    Message('note_on', channel=0, note=46, velocity=45, time=1),\n",
      "    Message('note_on', channel=0, note=56, velocity=48, time=1),\n",
      "    Message('note_on', channel=0, note=70, velocity=46, time=1),\n",
      "    Message('note_on', channel=0, note=62, velocity=0, time=1),\n",
      "    Message('note_on', channel=0, note=65, velocity=0, time=177),\n",
      "    Message('note_on', channel=0, note=68, velocity=0, time=0),\n",
      "    Message('note_on', channel=0, note=70, velocity=0, time=0),\n",
      "    Message('note_on', channel=0, note=70, velocity=49, time=4),\n",
      "    Message('note_on', channel=0, note=62, velocity=54, time=1),\n",
      "    Message('note_on', channel=0, note=46, velocity=0, time=2),\n",
      "    Message('note_on', channel=0, note=65, velocity=41, time=2),\n",
      "    Message('note_on', channel=0, note=68, velocity=48, time=1),\n",
      "    Message('note_on', channel=0, note=46, velocity=39, time=3),\n",
      "    Message('note_on', channel=0, note=56, velocity=0, time=2),\n",
      "    Message('note_on', channel=0, note=56, velocity=44, time=6),\n",
      "    Message('note_on', channel=0, note=56, velocity=0, time=140),\n",
      "    Message('note_on', channel=0, note=68, velocity=0, time=0),\n",
      "    Message('note_on', channel=0, note=46, velocity=0, time=8),\n",
      "    Message('note_on', channel=0, note=62, velocity=0, time=0),\n",
      "    Message('note_on', channel=0, note=65, velocity=0, time=0),\n",
      "    Message('note_on', channel=0, note=70, velocity=0, time=0),\n",
      "    Message('note_on', channel=0, note=56, velocity=53, time=0),\n",
      "    Message('note_on', channel=0, note=68, velocity=55, time=3),\n",
      "    Message('note_on', channel=0, note=62, velocity=41, time=1),\n",
      "    Message('note_on', channel=0, note=65, velocity=45, time=0),\n",
      "    Message('note_on', channel=0, note=70, velocity=50, time=1),\n",
      "    Message('note_on', channel=0, note=46, velocity=46, time=3),\n",
      "    Message('note_on', channel=0, note=68, velocity=0, time=161),\n",
      "    Message('note_on', channel=0, note=68, velocity=53, time=6),\n",
      "    Message('note_on', channel=0, note=56, velocity=0, time=1),\n",
      "    Message('note_on', channel=0, note=62, velocity=0, time=0),\n",
      "    Message('note_on', channel=0, note=65, velocity=0, time=0),\n",
      "    Message('note_on', channel=0, note=62, velocity=47, time=7),\n",
      "    Message('note_on', channel=0, note=46, velocity=0, time=1),\n",
      "    Message('note_on', channel=0, note=70, velocity=0, time=0),\n",
      "    Message('note_on', channel=0, note=65, velocity=39, time=4),\n",
      "    Message('note_on', channel=0, note=56, velocity=49, time=0),\n",
      "    Message('note_on', channel=0, note=70, velocity=45, time=1),\n",
      "    Message('note_on', channel=0, note=46, velocity=37, time=1),\n",
      "    Message('note_on', channel=0, note=46, velocity=0, time=155),\n",
      "    Message('note_on', channel=0, note=62, velocity=0, time=8),\n",
      "    Message('note_on', channel=0, note=65, velocity=0, time=0),\n",
      "    Message('note_on', channel=0, note=68, velocity=0, time=0),\n",
      "    Message('note_on', channel=0, note=46, velocity=52, time=4),\n",
      "    Message('note_on', channel=0, note=68, velocity=51, time=1),\n",
      "    Message('note_on', channel=0, note=34, velocity=50, time=1),\n",
      "    Message('note_on', channel=0, note=62, velocity=41, time=4),\n",
      "    Message('note_on', channel=0, note=65, velocity=44, time=0),\n",
      "    Message('note_on', channel=0, note=70, velocity=0, time=180),\n",
      "    Message('note_on', channel=0, note=68, velocity=0, time=0),\n",
      "    Message('note_on', channel=0, note=34, velocity=0, time=1),\n",
      "    Message('note_on', channel=0, note=62, velocity=0, time=0),\n",
      "    Message('control_change', channel=0, control=64, value=0, time=4),\n",
      "    Message('note_on', channel=0, note=46, velocity=0, time=12),\n",
      "    Message('note_on', channel=0, note=56, velocity=0, time=0),\n",
      "    Message('note_on', channel=0, note=65, velocity=0, time=16),\n",
      "    Message('note_on', channel=0, note=74, velocity=0, time=0),\n",
      "    Message('note_on', channel=0, note=67, velocity=53, time=3),\n",
      "    Message('note_on', channel=0, note=65, velocity=48, time=4),\n",
      "    Message('note_on', channel=0, note=35, velocity=62, time=7),\n",
      "    Message('note_on', channel=0, note=47, velocity=54, time=3),\n",
      "    Message('note_on', channel=0, note=35, velocity=0, time=33),\n",
      "    Message('control_change', channel=0, control=64, value=127, time=3),\n",
      "    Message('note_on', channel=0, note=65, velocity=0, time=208),\n",
      "    Message('note_on', channel=0, note=67, velocity=0, time=0),\n",
      "    Message('note_on', channel=0, note=47, velocity=0, time=8),\n",
      "    Message('note_on', channel=0, note=67, velocity=48, time=1),\n",
      "    Message('note_on', channel=0, note=65, velocity=45, time=1),\n",
      "    Message('note_on', channel=0, note=55, velocity=49, time=2),\n",
      "    Message('note_on', channel=0, note=47, velocity=44, time=4),\n",
      "    Message('note_on', channel=0, note=62, velocity=36, time=2),\n",
      "    Message('note_on', channel=0, note=47, velocity=0, time=174),\n",
      "    Message('note_on', channel=0, note=55, velocity=0, time=0),\n",
      "    Message('note_on', channel=0, note=62, velocity=0, time=0),\n",
      "    Message('note_on', channel=0, note=65, velocity=0, time=0),\n",
      "    Message('note_on', channel=0, note=67, velocity=0, time=0),\n",
      "    Message('note_on', channel=0, note=62, velocity=59, time=4),\n",
      "    Message('note_on', channel=0, note=55, velocity=55, time=2),\n",
      "    Message('note_on', channel=0, note=67, velocity=54, time=0),\n",
      "    Message('note_on', channel=0, note=65, velocity=51, time=3),\n",
      "    Message('note_on', channel=0, note=47, velocity=47, time=1),\n",
      "    Message('note_on', channel=0, note=62, velocity=0, time=190),\n",
      "    Message('note_on', channel=0, note=65, velocity=0, time=0),\n",
      "    Message('note_on', channel=0, note=67, velocity=0, time=0),\n",
      "    Message('note_on', channel=0, note=65, velocity=62, time=4),\n",
      "    Message('note_on', channel=0, note=67, velocity=54, time=0),\n",
      "    Message('note_on', channel=0, note=47, velocity=0, time=3),\n",
      "    Message('note_on', channel=0, note=55, velocity=0, time=0),\n",
      "    Message('note_on', channel=0, note=62, velocity=44, time=3),\n",
      "    Message('note_on', channel=0, note=47, velocity=43, time=5),\n",
      "    Message('note_on', channel=0, note=55, velocity=49, time=0),\n",
      "    Message('note_on', channel=0, note=70, velocity=69, time=200),\n",
      "    Message('note_on', channel=0, note=62, velocity=0, time=7),\n",
      "    Message('note_on', channel=0, note=65, velocity=0, time=8),\n",
      "    Message('note_on', channel=0, note=62, velocity=54, time=4),\n",
      "    Message('note_on', channel=0, note=55, velocity=0, time=4),\n",
      "    Message('note_on', channel=0, note=65, velocity=50, time=2),\n",
      "    Message('note_on', channel=0, note=55, velocity=47, time=8),\n",
      "    Message('note_on', channel=0, note=68, velocity=68, time=8),\n",
      "    Message('note_on', channel=0, note=65, velocity=0, time=220),\n",
      "    Message('note_on', channel=0, note=67, velocity=0, time=0),\n",
      "    Message('note_on', channel=0, note=67, velocity=75, time=10),\n",
      "    Message('note_on', channel=0, note=65, velocity=65, time=1),\n",
      "    Message('note_on', channel=0, note=47, velocity=0, time=4),\n",
      "    Message('note_on', channel=0, note=35, velocity=50, time=8),\n",
      "    Message('note_on', channel=0, note=47, velocity=47, time=2),\n",
      "    Message('note_on', channel=0, note=68, velocity=0, time=289),\n",
      "    Message('note_on', channel=0, note=67, velocity=0, time=1),\n",
      "    Message('note_on', channel=0, note=47, velocity=0, time=1),\n",
      "    Message('note_on', channel=0, note=35, velocity=0, time=0),\n",
      "    Message('control_change', channel=0, control=64, value=0, time=1),\n",
      "    Message('note_on', channel=0, note=70, velocity=0, time=5),\n",
      "    Message('note_on', channel=0, note=76, velocity=78, time=2),\n",
      "    Message('note_on', channel=0, note=67, velocity=75, time=1),\n",
      "    Message('note_on', channel=0, note=72, velocity=73, time=0),\n",
      "    Message('note_on', channel=0, note=70, velocity=74, time=1),\n",
      "    Message('note_on', channel=0, note=64, velocity=73, time=0),\n",
      "    Message('note_on', channel=0, note=55, velocity=0, time=4),\n",
      "    Message('note_on', channel=0, note=62, velocity=0, time=0),\n",
      "    Message('note_on', channel=0, note=48, velocity=73, time=3),\n",
      "    Message('note_on', channel=0, note=36, velocity=72, time=0),\n",
      "    Message('note_on', channel=0, note=65, velocity=0, time=5),\n",
      "    Message('note_on', channel=0, note=36, velocity=0, time=50),\n",
      "    Message('control_change', channel=0, control=64, value=127, time=11),\n",
      "    Message('note_on', channel=0, note=67, velocity=0, time=277),\n",
      "    Message('note_on', channel=0, note=64, velocity=0, time=7),\n",
      "    Message('note_on', channel=0, note=70, velocity=0, time=0),\n",
      "    Message('note_on', channel=0, note=72, velocity=0, time=0),\n",
      "    Message('note_on', channel=0, note=67, velocity=69, time=3),\n",
      "    Message('note_on', channel=0, note=72, velocity=64, time=1),\n",
      "    Message('note_on', channel=0, note=60, velocity=64, time=0),\n",
      "    Message('note_on', channel=0, note=64, velocity=69, time=1),\n",
      "    Message('note_on', channel=0, note=70, velocity=67, time=3),\n",
      "    Message('note_on', channel=0, note=58, velocity=62, time=1),\n",
      "    Message('note_on', channel=0, note=55, velocity=58, time=2),\n",
      "    Message('note_on', channel=0, note=60, velocity=0, time=220),\n",
      "    Message('note_on', channel=0, note=64, velocity=0, time=0),\n",
      "    Message('note_on', channel=0, note=67, velocity=0, time=0),\n",
      "    Message('note_on', channel=0, note=70, velocity=0, time=0),\n",
      "    Message('note_on', channel=0, note=72, velocity=0, time=0),\n",
      "    Message('note_on', channel=0, note=64, velocity=61, time=4),\n",
      "    Message('note_on', channel=0, note=67, velocity=63, time=0),\n",
      "    Message('note_on', channel=0, note=72, velocity=68, time=1),\n",
      "    Message('note_on', channel=0, note=55, velocity=0, time=2),\n",
      "    Message('note_on', channel=0, note=58, velocity=0, time=0),\n",
      "    Message('note_on', channel=0, note=70, velocity=68, time=1),\n",
      "    Message('note_on', channel=0, note=60, velocity=58, time=2),\n",
      "    Message('note_on', channel=0, note=55, velocity=50, time=2),\n",
      "    Message('note_on', channel=0, note=58, velocity=54, time=1),\n",
      "    Message('note_on', channel=0, note=79, velocity=87, time=240),\n",
      "    Message('note_on', channel=0, note=70, velocity=0, time=0),\n",
      "    Message('note_on', channel=0, note=55, velocity=0, time=8),\n",
      "    Message('note_on', channel=0, note=60, velocity=0, time=0),\n",
      "    Message('note_on', channel=0, note=67, velocity=0, time=0),\n",
      "    Message('note_on', channel=0, note=76, velocity=0, time=0),\n",
      "    Message('note_on', channel=0, note=70, velocity=82, time=2),\n",
      "    Message('note_on', channel=0, note=67, velocity=68, time=2),\n",
      "    Message('note_on', channel=0, note=60, velocity=63, time=1),\n",
      "    Message('note_on', channel=0, note=76, velocity=73, time=1),\n",
      "    Message('note_on', channel=0, note=58, velocity=0, time=1),\n",
      "    Message('note_on', channel=0, note=64, velocity=0, time=0),\n",
      "    Message('note_on', channel=0, note=55, velocity=58, time=1),\n",
      "    Message('note_on', channel=0, note=58, velocity=58, time=3),\n",
      "    Message('note_on', channel=0, note=64, velocity=54, time=0),\n",
      "    Message('note_on', channel=0, note=64, velocity=0, time=227),\n",
      "    Message('note_on', channel=0, note=55, velocity=0, time=7),\n",
      "    Message('note_on', channel=0, note=58, velocity=0, time=0),\n",
      "    Message('note_on', channel=0, note=70, velocity=0, time=0),\n",
      "    Message('note_on', channel=0, note=72, velocity=0, time=0),\n",
      "    Message('note_on', channel=0, note=64, velocity=55, time=3),\n",
      "    Message('note_on', channel=0, note=58, velocity=52, time=2),\n",
      "    Message('note_on', channel=0, note=55, velocity=49, time=1),\n",
      "    Message('note_on', channel=0, note=70, velocity=59, time=1),\n",
      "    Message('note_on', channel=0, note=67, velocity=0, time=1),\n",
      "    Message('note_on', channel=0, note=72, velocity=60, time=1),\n",
      "    Message('note_on', channel=0, note=67, velocity=50, time=4),\n",
      "    Message('note_on', channel=0, note=48, velocity=0, time=218),\n",
      "    Message('note_on', channel=0, note=70, velocity=0, time=0),\n",
      "    Message('note_on', channel=0, note=55, velocity=0, time=1),\n",
      "    Message('note_on', channel=0, note=70, velocity=71, time=5),\n",
      "    Message('note_on', channel=0, note=79, velocity=0, time=0),\n",
      "    Message('note_on', channel=0, note=48, velocity=62, time=2),\n",
      "    Message('note_on', channel=0, note=36, velocity=56, time=1),\n",
      "    Message('note_on', channel=0, note=72, velocity=0, time=183),\n",
      "    Message('note_on', channel=0, note=36, velocity=0, time=8),\n",
      "    Message('note_on', channel=0, note=76, velocity=0, time=0),\n",
      "    Message('note_on', channel=0, note=60, velocity=0, time=1),\n",
      "    Message('note_on', channel=0, note=64, velocity=0, time=0),\n",
      "    Message('note_on', channel=0, note=58, velocity=0, time=0),\n",
      "    Message('note_on', channel=0, note=70, velocity=0, time=1),\n",
      "    Message('note_on', channel=0, note=67, velocity=0, time=0),\n",
      "    Message('note_on', channel=0, note=72, velocity=72, time=0),\n",
      "    Message('note_on', channel=0, note=48, velocity=0, time=1),\n",
      "    Message('control_change', channel=0, control=64, value=0, time=0),\n",
      "    Message('note_on', channel=0, note=76, velocity=67, time=2),\n",
      "    Message('note_on', channel=0, note=68, velocity=74, time=5),\n",
      "    Message('note_on', channel=0, note=41, velocity=69, time=7),\n",
      "    Message('note_on', channel=0, note=53, velocity=69, time=0),\n",
      "    Message('control_change', channel=0, control=64, value=127, time=52),\n",
      "    Message('note_on', channel=0, note=68, velocity=0, time=176),\n",
      "    Message('note_on', channel=0, note=72, velocity=0, time=0),\n",
      "    Message('note_on', channel=0, note=60, velocity=64, time=7),\n",
      "    Message('note_on', channel=0, note=68, velocity=66, time=0),\n",
      "    Message('note_on', channel=0, note=76, velocity=0, time=1),\n",
      "    Message('note_on', channel=0, note=72, velocity=74, time=1),\n",
      "    Message('note_on', channel=0, note=76, velocity=64, time=3),\n",
      "    Message('note_on', channel=0, note=56, velocity=43, time=22),\n",
      "    Message('note_on', channel=0, note=56, velocity=0, time=158),\n",
      "    Message('note_on', channel=0, note=60, velocity=0, time=0),\n",
      "    Message('note_on', channel=0, note=68, velocity=0, time=0),\n",
      "    Message('note_on', channel=0, note=72, velocity=0, time=0),\n",
      "    Message('note_on', channel=0, note=76, velocity=0, time=0),\n",
      "    Message('note_on', channel=0, note=60, velocity=65, time=4),\n",
      "    Message('note_on', channel=0, note=64, velocity=71, time=3),\n",
      "    Message('note_on', channel=0, note=76, velocity=69, time=3),\n",
      "    Message('note_on', channel=0, note=68, velocity=75, time=1),\n",
      "    Message('note_on', channel=0, note=72, velocity=72, time=0),\n",
      "    Message('note_on', channel=0, note=56, velocity=56, time=1),\n",
      "    Message('note_on', channel=0, note=60, velocity=0, time=219),\n",
      "    Message('note_on', channel=0, note=68, velocity=0, time=0),\n",
      "    Message('note_on', channel=0, note=72, velocity=0, time=0),\n",
      "    Message('note_on', channel=0, note=80, velocity=83, time=4),\n",
      "    Message('note_on', channel=0, note=68, velocity=81, time=0),\n",
      "    Message('note_on', channel=0, note=72, velocity=79, time=2),\n",
      "    Message('note_on', channel=0, note=77, velocity=75, time=0),\n",
      "    Message('note_on', channel=0, note=60, velocity=75, time=0),\n",
      "    Message('note_on', channel=0, note=65, velocity=66, time=0),\n",
      "    Message('note_on', channel=0, note=53, velocity=0, time=1),\n",
      "    Message('note_on', channel=0, note=56, velocity=0, time=0),\n",
      "    Message('note_on', channel=0, note=53, velocity=59, time=4),\n",
      "    Message('note_on', channel=0, note=56, velocity=62, time=8),\n",
      "    Message('note_on', channel=0, note=64, velocity=0, time=0),\n",
      "    Message('note_on', channel=0, note=76, velocity=0, time=4),\n",
      "    Message('control_change', channel=0, control=64, value=0, time=2),\n",
      "    Message('control_change', channel=0, control=64, value=127, time=67),\n",
      "    Message('note_on', channel=0, note=53, velocity=0, time=161),\n",
      "    Message('note_on', channel=0, note=60, velocity=0, time=0),\n",
      "    Message('note_on', channel=0, note=65, velocity=0, time=0),\n",
      "    Message('note_on', channel=0, note=68, velocity=0, time=0),\n",
      "    Message('note_on', channel=0, note=56, velocity=0, time=8),\n",
      "    Message('note_on', channel=0, note=72, velocity=0, time=0),\n",
      "    Message('note_on', channel=0, note=77, velocity=0, time=0),\n",
      "    Message('note_on', channel=0, note=68, velocity=77, time=1),\n",
      "    Message('note_on', channel=0, note=53, velocity=56, time=1),\n",
      "    Message('note_on', channel=0, note=60, velocity=54, time=2),\n",
      "    Message('note_on', channel=0, note=65, velocity=61, time=0),\n",
      "    Message('note_on', channel=0, note=77, velocity=72, time=0),\n",
      "    Message('note_on', channel=0, note=72, velocity=74, time=1),\n",
      "    Message('note_on', channel=0, note=56, velocity=56, time=3),\n",
      "    Message('note_on', channel=0, note=41, velocity=0, time=238),\n",
      "    Message('note_on', channel=0, note=53, velocity=0, time=0),\n",
      "    Message('note_on', channel=0, note=68, velocity=0, time=0),\n",
      "    Message('note_on', channel=0, note=72, velocity=0, time=0),\n",
      "    Message('note_on', channel=0, note=80, velocity=0, time=0),\n",
      "    Message('note_on', channel=0, note=80, velocity=69, time=5),\n",
      "    Message('note_on', channel=0, note=68, velocity=71, time=2),\n",
      "    Message('note_on', channel=0, note=77, velocity=0, time=0),\n",
      "    Message('note_on', channel=0, note=53, velocity=58, time=1),\n",
      "    Message('note_on', channel=0, note=72, velocity=67, time=1),\n",
      "    Message('note_on', channel=0, note=41, velocity=61, time=2),\n",
      "    Message('note_on', channel=0, note=77, velocity=64, time=2),\n",
      "    Message('note_on', channel=0, note=41, velocity=0, time=232),\n",
      "    Message('note_on', channel=0, note=65, velocity=0, time=1),\n",
      "    Message('note_on', channel=0, note=60, velocity=0, time=0),\n",
      "    Message('note_on', channel=0, note=77, velocity=0, time=1),\n",
      "    Message('note_on', channel=0, note=53, velocity=0, time=1),\n",
      "    Message('note_on', channel=0, note=56, velocity=0, time=0),\n",
      "    Message('control_change', channel=0, control=64, value=0, time=4),\n",
      "    Message('note_on', channel=0, note=68, velocity=0, time=1),\n",
      "    Message('note_on', channel=0, note=72, velocity=0, time=0),\n",
      "    Message('note_on', channel=0, note=80, velocity=0, time=0),\n",
      "    Message('note_on', channel=0, note=68, velocity=81, time=9),\n",
      "    Message('note_on', channel=0, note=72, velocity=74, time=1),\n",
      "    Message('note_on', channel=0, note=80, velocity=75, time=0),\n",
      "    Message('note_on', channel=0, note=46, velocity=78, time=2),\n",
      "    Message('note_on', channel=0, note=75, velocity=80, time=1),\n",
      "    Message('note_on', channel=0, note=34, velocity=76, time=3),\n",
      "    Message('control_change', channel=0, control=64, value=127, time=53),\n",
      "    Message('note_on', channel=0, note=34, velocity=0, time=46),\n",
      "    Message('note_on', channel=0, note=68, velocity=0, time=246),\n",
      "    Message('note_on', channel=0, note=72, velocity=0, time=0),\n",
      "    Message('note_on', channel=0, note=75, velocity=0, time=0),\n",
      "    Message('note_on', channel=0, note=68, velocity=76, time=5),\n",
      "    Message('note_on', channel=0, note=75, velocity=75, time=1),\n",
      "    Message('note_on', channel=0, note=60, velocity=58, time=2),\n",
      "    Message('note_on', channel=0, note=72, velocity=76, time=1),\n",
      "    Message('note_on', channel=0, note=56, velocity=60, time=2),\n",
      "    Message('note_on', channel=0, note=68, velocity=0, time=219),\n",
      "    Message('note_on', channel=0, note=72, velocity=0, time=0),\n",
      "    Message('note_on', channel=0, note=75, velocity=0, time=0),\n",
      "    Message('note_on', channel=0, note=79, velocity=88, time=2),\n",
      "    Message('note_on', channel=0, note=72, velocity=80, time=5),\n",
      "    Message('note_on', channel=0, note=56, velocity=0, time=1),\n",
      "    Message('note_on', channel=0, note=60, velocity=0, time=0),\n",
      "    Message('note_on', channel=0, note=68, velocity=80, time=3),\n",
      "    Message('note_on', channel=0, note=75, velocity=83, time=0),\n",
      "    Message('note_on', channel=0, note=63, velocity=68, time=2),\n",
      "    Message('note_on', channel=0, note=60, velocity=60, time=0),\n",
      "    Message('note_on', channel=0, note=56, velocity=64, time=2),\n",
      "    Message('note_on', channel=0, note=58, velocity=54, time=5),\n",
      "    Message('note_on', channel=0, note=68, velocity=0, time=172),\n",
      "    Message('note_on', channel=0, note=46, velocity=0, time=8),\n",
      "    Message('note_on', channel=0, note=56, velocity=0, time=0),\n",
      "    Message('note_on', channel=0, note=58, velocity=0, time=0),\n",
      "    Message('note_on', channel=0, note=68, velocity=80, time=3),\n",
      "    Message('note_on', channel=0, note=58, velocity=60, time=1),\n",
      "    Message('note_on', channel=0, note=46, velocity=56, time=0),\n",
      "    Message('note_on', channel=0, note=56, velocity=58, time=6),\n",
      "    Message('note_on', channel=0, note=74, velocity=64, time=2),\n",
      "    Message('note_on', channel=0, note=56, velocity=0, time=180),\n",
      "    Message('note_on', channel=0, note=58, velocity=0, time=0),\n",
      "    Message('note_on', channel=0, note=62, velocity=70, time=5),\n",
      "    Message('note_on', channel=0, note=58, velocity=67, time=1),\n",
      "    Message('note_on', channel=0, note=68, velocity=0, time=2),\n",
      "    Message('note_on', channel=0, note=74, velocity=0, time=0),\n",
      "    Message('note_on', channel=0, note=56, velocity=67, time=3),\n",
      "    Message('note_on', channel=0, note=53, velocity=57, time=1),\n",
      "    Message('note_on', channel=0, note=68, velocity=79, time=0),\n",
      "    Message('note_on', channel=0, note=70, velocity=72, time=2),\n",
      "    Message('note_on', channel=0, note=74, velocity=74, time=2),\n",
      "    Message('note_on', channel=0, note=77, velocity=62, time=1),\n",
      "    Message('note_on', channel=0, note=68, velocity=0, time=213),\n",
      "    Message('note_on', channel=0, note=70, velocity=0, time=0),\n",
      "    Message('note_on', channel=0, note=74, velocity=0, time=0),\n",
      "    Message('note_on', channel=0, note=77, velocity=0, time=0),\n",
      "    Message('note_on', channel=0, note=80, velocity=0, time=0),\n",
      "    Message('note_on', channel=0, note=68, velocity=80, time=7),\n",
      "    Message('note_on', channel=0, note=46, velocity=0, time=1),\n",
      "    Message('note_on', channel=0, note=77, velocity=84, time=0),\n",
      "    Message('note_on', channel=0, note=70, velocity=75, time=3),\n",
      "    Message('note_on', channel=0, note=80, velocity=78, time=0),\n",
      "    Message('note_on', channel=0, note=74, velocity=77, time=1),\n",
      "    Message('note_on', channel=0, note=46, velocity=69, time=1),\n",
      "    Message('note_on', channel=0, note=58, velocity=0, time=1),\n",
      "    Message('note_on', channel=0, note=34, velocity=65, time=4),\n",
      "    Message('note_on', channel=0, note=62, velocity=0, time=2),\n",
      "    Message('note_on', channel=0, note=34, velocity=0, time=184),\n",
      "    Message('note_on', channel=0, note=79, velocity=0, time=0),\n",
      "    Message('note_on', channel=0, note=46, velocity=0, time=1),\n",
      "    Message('note_on', channel=0, note=77, velocity=0, time=0),\n",
      "    Message('note_on', channel=0, note=68, velocity=0, time=1),\n",
      "    Message('note_on', channel=0, note=75, velocity=0, time=0),\n",
      "    Message('note_on', channel=0, note=72, velocity=0, time=0),\n",
      "    Message('control_change', channel=0, control=64, value=0, time=3),\n",
      "    Message('note_on', channel=0, note=63, velocity=0, time=7),\n",
      "    Message('note_on', channel=0, note=53, velocity=0, time=7),\n",
      "    Message('note_on', channel=0, note=56, velocity=0, time=0),\n",
      "    Message('note_on', channel=0, note=60, velocity=0, time=0),\n",
      "    Message('note_on', channel=0, note=74, velocity=0, time=0),\n",
      "    Message('note_on', channel=0, note=80, velocity=0, time=0),\n",
      "    Message('note_on', channel=0, note=70, velocity=0, time=8),\n",
      "    Message('note_on', channel=0, note=51, velocity=74, time=17),\n",
      "    Message('note_on', channel=0, note=79, velocity=68, time=0),\n",
      "    Message('note_on', channel=0, note=67, velocity=68, time=2),\n",
      "    Message('note_on', channel=0, note=70, velocity=69, time=0),\n",
      "    Message('note_on', channel=0, note=39, velocity=67, time=1),\n",
      "    Message('note_on', channel=0, note=75, velocity=66, time=0),\n",
      "    Message('control_change', channel=0, control=64, value=127, time=41),\n",
      "    Message('note_on', channel=0, note=75, velocity=0, time=223),\n",
      "    Message('note_on', channel=0, note=67, velocity=0, time=8),\n",
      "    Message('note_on', channel=0, note=70, velocity=0, time=0),\n",
      "    Message('note_on', channel=0, note=75, velocity=87, time=3),\n",
      "    Message('note_on', channel=0, note=70, velocity=78, time=3),\n",
      "    Message('note_on', channel=0, note=67, velocity=75, time=1),\n",
      "    Message('note_on', channel=0, note=51, velocity=0, time=0),\n",
      "    Message('note_on', channel=0, note=58, velocity=63, time=5),\n",
      "    Message('note_on', channel=0, note=51, velocity=59, time=2),\n",
      "    Message('note_on', channel=0, note=55, velocity=63, time=3),\n",
      "    Message('note_on', channel=0, note=67, velocity=0, time=175),\n",
      "    Message('note_on', channel=0, note=70, velocity=0, time=0),\n",
      "    Message('note_on', channel=0, note=77, velocity=89, time=2),\n",
      "    Message('note_on', channel=0, note=67, velocity=75, time=3),\n",
      "    Message('note_on', channel=0, note=70, velocity=78, time=1),\n",
      "    Message('note_on', channel=0, note=55, velocity=0, time=86),\n",
      "    Message('note_on', channel=0, note=58, velocity=0, time=0),\n",
      "    Message('note_on', channel=0, note=70, velocity=0, time=0),\n",
      "    Message('note_on', channel=0, note=55, velocity=51, time=4),\n",
      "    Message('note_on', channel=0, note=62, velocity=66, time=1),\n",
      "    Message('note_on', channel=0, note=58, velocity=57, time=0),\n",
      "    Message('note_on', channel=0, note=70, velocity=68, time=1),\n",
      "    Message('note_on', channel=0, note=75, velocity=0, time=48),\n",
      "    Message('note_on', channel=0, note=67, velocity=0, time=7),\n",
      "    Message('note_on', channel=0, note=70, velocity=0, time=0),\n",
      "    Message('note_on', channel=0, note=75, velocity=86, time=3),\n",
      "    Message('note_on', channel=0, note=67, velocity=73, time=2),\n",
      "    Message('note_on', channel=0, note=70, velocity=71, time=0),\n",
      "    Message('note_on', channel=0, note=55, velocity=0, time=26),\n",
      "    Message('note_on', channel=0, note=55, velocity=44, time=5),\n",
      "    Message('note_on', channel=0, note=51, velocity=0, time=110),\n",
      "    Message('note_on', channel=0, note=55, velocity=0, time=0),\n",
      "    Message('note_on', channel=0, note=58, velocity=0, time=0),\n",
      "    Message('note_on', channel=0, note=67, velocity=0, time=0),\n",
      "    Message('note_on', channel=0, note=70, velocity=0, time=0),\n",
      "    Message('note_on', channel=0, note=63, velocity=66, time=2),\n",
      "    Message('note_on', channel=0, note=58, velocity=62, time=3),\n",
      "    Message('note_on', channel=0, note=74, velocity=80, time=1),\n",
      "    Message('note_on', channel=0, note=51, velocity=61, time=0),\n",
      "    Message('note_on', channel=0, note=70, velocity=80, time=0),\n",
      "    Message('note_on', channel=0, note=55, velocity=66, time=2),\n",
      "    Message('note_on', channel=0, note=67, velocity=74, time=3),\n",
      "    Message('note_on', channel=0, note=51, velocity=0, time=151),\n",
      "    Message('note_on', channel=0, note=67, velocity=0, time=0),\n",
      "    Message('note_on', channel=0, note=70, velocity=0, time=0),\n",
      "    Message('note_on', channel=0, note=75, velocity=0, time=0),\n",
      "    Message('note_on', channel=0, note=75, velocity=87, time=4),\n",
      "    Message('note_on', channel=0, note=70, velocity=78, time=4),\n",
      "    Message('note_on', channel=0, note=67, velocity=80, time=1),\n",
      "    Message('note_on', channel=0, note=51, velocity=52, time=2),\n",
      "    Message('note_on', channel=0, note=51, velocity=0, time=58),\n",
      "    Message('note_on', channel=0, note=55, velocity=0, time=0),\n",
      "    Message('note_on', channel=0, note=58, velocity=0, time=0),\n",
      "    Message('note_on', channel=0, note=63, velocity=0, time=0),\n",
      "    Message('note_on', channel=0, note=58, velocity=63, time=4),\n",
      "    Message('note_on', channel=0, note=63, velocity=65, time=0),\n",
      "    Message('note_on', channel=0, note=55, velocity=50, time=2),\n",
      "    Message('note_on', channel=0, note=51, velocity=58, time=4),\n",
      "    Message('note_on', channel=0, note=67, velocity=0, time=74),\n",
      "    Message('note_on', channel=0, note=77, velocity=0, time=0),\n",
      "    Message('note_on', channel=0, note=70, velocity=0, time=8),\n",
      "    Message('note_on', channel=0, note=67, velocity=83, time=3),\n",
      "    Message('note_on', channel=0, note=77, velocity=90, time=0),\n",
      "    Message('note_on', channel=0, note=70, velocity=75, time=6),\n",
      "    Message('note_on', channel=0, note=51, velocity=0, time=175),\n",
      "    Message('note_on', channel=0, note=63, velocity=0, time=0),\n",
      "    Message('note_on', channel=0, note=67, velocity=0, time=0),\n",
      "    Message('note_on', channel=0, note=70, velocity=0, time=0),\n",
      "    Message('note_on', channel=0, note=79, velocity=0, time=0),\n",
      "    Message('note_on', channel=0, note=79, velocity=87, time=5),\n",
      "    Message('note_on', channel=0, note=63, velocity=50, time=1),\n",
      "    Message('note_on', channel=0, note=51, velocity=54, time=1),\n",
      "    Message('note_on', channel=0, note=58, velocity=0, time=1),\n",
      "    Message('note_on', channel=0, note=70, velocity=77, time=3),\n",
      "    Message('note_on', channel=0, note=67, velocity=72, time=0),\n",
      "    Message('note_on', channel=0, note=58, velocity=58, time=1),\n",
      "    Message('note_on', channel=0, note=67, velocity=0, time=203),\n",
      "    Message('note_on', channel=0, note=79, velocity=0, time=0),\n",
      "    Message('note_on', channel=0, note=79, velocity=88, time=7),\n",
      "    Message('note_on', channel=0, note=39, velocity=0, time=1),\n",
      "    Message('note_on', channel=0, note=72, velocity=82, time=3),\n",
      "    Message('note_on', channel=0, note=67, velocity=76, time=0),\n",
      "    Message('note_on', channel=0, note=39, velocity=52, time=2),\n",
      "    Message('note_on', channel=0, note=39, velocity=0, time=133),\n",
      "    Message('note_on', channel=0, note=62, velocity=0, time=4),\n",
      "    Message('note_on', channel=0, note=51, velocity=0, time=0),\n",
      "    Message('note_on', channel=0, note=63, velocity=0, time=0),\n",
      "    Message('note_on', channel=0, note=74, velocity=0, time=0),\n",
      "    Message('note_on', channel=0, note=70, velocity=0, time=1),\n",
      "    Message('note_on', channel=0, note=77, velocity=0, time=0),\n",
      "    Message('note_on', channel=0, note=58, velocity=0, time=0),\n",
      "    Message('note_on', channel=0, note=67, velocity=0, time=3),\n",
      "    Message('note_on', channel=0, note=72, velocity=0, time=0),\n",
      "    Message('note_on', channel=0, note=75, velocity=0, time=0),\n",
      "    Message('note_on', channel=0, note=79, velocity=0, time=0),\n",
      "    Message('note_on', channel=0, note=79, velocity=74, time=8),\n",
      "    Message('control_change', channel=0, control=64, value=0, time=1),\n",
      "    Message('note_on', channel=0, note=67, velocity=80, time=0),\n",
      "    Message('note_on', channel=0, note=72, velocity=76, time=1),\n",
      "    Message('note_on', channel=0, note=75, velocity=75, time=0),\n",
      "    Message('note_on', channel=0, note=68, velocity=77, time=2),\n",
      "    Message('note_on', channel=0, note=55, velocity=0, time=3),\n",
      "    Message('note_on', channel=0, note=44, velocity=80, time=1),\n",
      "    Message('note_on', channel=0, note=32, velocity=74, time=0),\n",
      "    Message('control_change', channel=0, control=64, value=127, time=84),\n",
      "    Message('note_on', channel=0, note=67, velocity=0, time=222),\n",
      "    Message('note_on', channel=0, note=68, velocity=0, time=0),\n",
      "    Message('note_on', channel=0, note=56, velocity=60, time=5),\n",
      "    Message('note_on', channel=0, note=68, velocity=71, time=1),\n",
      "    Message('note_on', channel=0, note=48, velocity=48, time=5),\n",
      "    Message('note_on', channel=0, note=67, velocity=68, time=1),\n",
      "    Message('note_on', channel=0, note=32, velocity=0, time=50),\n",
      "    Message('note_on', channel=0, note=67, velocity=0, time=115),\n",
      "    Message('note_on', channel=0, note=68, velocity=0, time=0),\n",
      "    Message('note_on', channel=0, note=44, velocity=0, time=8),\n",
      "    Message('note_on', channel=0, note=56, velocity=0, time=0),\n",
      "    Message('note_on', channel=0, note=68, velocity=78, time=1),\n",
      "    Message('note_on', channel=0, note=60, velocity=60, time=0),\n",
      "    Message('note_on', channel=0, note=67, velocity=72, time=1),\n",
      "    Message('note_on', channel=0, note=56, velocity=59, time=4),\n",
      "    Message('note_on', channel=0, note=51, velocity=48, time=1),\n",
      "    Message('note_on', channel=0, note=44, velocity=56, time=3),\n",
      "    Message('note_on', channel=0, note=72, velocity=0, time=151),\n",
      "    Message('note_on', channel=0, note=44, velocity=0, time=8),\n",
      "    Message('note_on', channel=0, note=48, velocity=0, time=0),\n",
      "    Message('note_on', channel=0, note=56, velocity=0, time=0),\n",
      "    Message('note_on', channel=0, note=60, velocity=0, time=0),\n",
      "    Message('note_on', channel=0, note=68, velocity=0, time=0),\n",
      "    Message('note_on', channel=0, note=72, velocity=87, time=1),\n",
      "    Message('note_on', channel=0, note=68, velocity=80, time=5),\n",
      "    Message('note_on', channel=0, note=48, velocity=59, time=1),\n",
      "    Message('note_on', channel=0, note=56, velocity=67, time=2),\n",
      "    Message('note_on', channel=0, note=44, velocity=61, time=1),\n",
      "    Message('note_on', channel=0, note=60, velocity=59, time=1),\n",
      "    Message('note_on', channel=0, note=60, velocity=0, time=181),\n",
      "    Message('note_on', channel=0, note=51, velocity=0, time=7),\n",
      "    Message('note_on', channel=0, note=60, velocity=55, time=4),\n",
      "    Message('note_on', channel=0, note=51, velocity=48, time=2),\n",
      "    Message('note_on', channel=0, note=44, velocity=0, time=2),\n",
      "    Message('note_on', channel=0, note=67, velocity=0, time=0),\n",
      "    Message('note_on', channel=0, note=68, velocity=0, time=0),\n",
      "    Message('note_on', channel=0, note=67, velocity=76, time=5),\n",
      "    Message('note_on', channel=0, note=68, velocity=71, time=0),\n",
      "    Message('note_on', channel=0, note=44, velocity=45, time=0),\n",
      "    Message('note_on', channel=0, note=56, velocity=0, time=256),\n",
      "    Message('note_on', channel=0, note=72, velocity=0, time=0),\n",
      "    Message('note_on', channel=0, note=72, velocity=85, time=6),\n",
      "    Message('note_on', channel=0, note=44, velocity=0, time=2),\n",
      "    Message('note_on', channel=0, note=51, velocity=0, time=0),\n",
      "    Message('note_on', channel=0, note=67, velocity=0, time=0),\n",
      "    Message('note_on', channel=0, note=56, velocity=61, time=2),\n",
      "    Message('note_on', channel=0, note=67, velocity=80, time=2),\n",
      "    Message('note_on', channel=0, note=51, velocity=46, time=0),\n",
      "    Message('note_on', channel=0, note=44, velocity=53, time=1),\n",
      "    Message('control_change', channel=0, control=64, value=0, time=159),\n",
      "    Message('note_on', channel=0, note=60, velocity=0, time=1),\n",
      "    Message('note_on', channel=0, note=51, velocity=0, time=0),\n",
      "    Message('note_on', channel=0, note=67, velocity=0, time=0),\n",
      "    Message('note_on', channel=0, note=56, velocity=0, time=1),\n",
      "    Message('note_on', channel=0, note=44, velocity=0, time=0),\n",
      "    Message('note_on', channel=0, note=48, velocity=0, time=18),\n",
      "    Message('note_on', channel=0, note=68, velocity=0, time=0),\n",
      "    Message('note_on', channel=0, note=72, velocity=0, time=0),\n",
      "    Message('note_on', channel=0, note=75, velocity=0, time=0),\n",
      "    Message('note_on', channel=0, note=79, velocity=0, time=0),\n",
      "    Message('note_on', channel=0, note=65, velocity=72, time=7),\n",
      "    Message('note_on', channel=0, note=72, velocity=84, time=1),\n",
      "    Message('note_on', channel=0, note=50, velocity=63, time=2),\n",
      "    Message('note_on', channel=0, note=68, velocity=79, time=1),\n",
      "    Message('note_on', channel=0, note=80, velocity=76, time=1),\n",
      "    Message('control_change', channel=0, control=64, value=127, time=65),\n",
      "    Message('note_on', channel=0, note=50, velocity=0, time=161),\n",
      "    Message('note_on', channel=0, note=72, velocity=0, time=8),\n",
      "    Message('note_on', channel=0, note=50, velocity=56, time=0),\n",
      "    Message('note_on', channel=0, note=68, velocity=0, time=8),\n",
      "    Message('note_on', channel=0, note=56, velocity=61, time=0),\n",
      "    Message('note_on', channel=0, note=72, velocity=63, time=3),\n",
      "    Message('note_on', channel=0, note=68, velocity=69, time=1),\n",
      "    Message('note_on', channel=0, note=56, velocity=0, time=172),\n",
      "    Message('note_on', channel=0, note=65, velocity=0, time=0),\n",
      "    Message('note_on', channel=0, note=68, velocity=0, time=0),\n",
      "    Message('note_on', channel=0, note=72, velocity=0, time=0),\n",
      "    Message('note_on', channel=0, note=60, velocity=59, time=4),\n",
      "    Message('note_on', channel=0, note=56, velocity=59, time=0),\n",
      "    Message('note_on', channel=0, note=72, velocity=62, time=4),\n",
      "    Message('note_on', channel=0, note=53, velocity=49, time=0),\n",
      "    Message('note_on', channel=0, note=68, velocity=70, time=0),\n",
      "    Message('note_on', channel=0, note=65, velocity=66, time=0),\n",
      "    Message('note_on', channel=0, note=77, velocity=89, time=197),\n",
      "    Message('note_on', channel=0, note=56, velocity=0, time=3),\n",
      "    Message('note_on', channel=0, note=68, velocity=0, time=0),\n",
      "    Message('note_on', channel=0, note=72, velocity=0, time=0),\n",
      "    Message('note_on', channel=0, note=72, velocity=73, time=5),\n",
      "    Message('note_on', channel=0, note=53, velocity=0, time=2),\n",
      "    Message('note_on', channel=0, note=65, velocity=0, time=0),\n",
      "    Message('note_on', channel=0, note=56, velocity=62, time=1),\n",
      "    Message('note_on', channel=0, note=68, velocity=70, time=1),\n",
      "    Message('note_on', channel=0, note=53, velocity=51, time=2),\n",
      "    Message('note_on', channel=0, note=65, velocity=61, time=2),\n",
      "    Message('note_on', channel=0, note=50, velocity=0, time=2),\n",
      "    Message('note_on', channel=0, note=50, velocity=50, time=4),\n",
      "    Message('note_on', channel=0, note=50, velocity=0, time=219),\n",
      "    Message('note_on', channel=0, note=56, velocity=0, time=0),\n",
      "    Message('note_on', channel=0, note=60, velocity=0, time=0),\n",
      "    Message('note_on', channel=0, note=72, velocity=0, time=0),\n",
      "    Message('note_on', channel=0, note=56, velocity=53, time=4),\n",
      "    Message('note_on', channel=0, note=53, velocity=0, time=3),\n",
      "    Message('note_on', channel=0, note=65, velocity=0, time=0),\n",
      "    Message('note_on', channel=0, note=68, velocity=0, time=0),\n",
      "    Message('note_on', channel=0, note=60, velocity=48, time=3),\n",
      "    Message('note_on', channel=0, note=50, velocity=40, time=1),\n",
      "    Message('note_on', channel=0, note=72, velocity=64, time=0),\n",
      "    Message('note_on', channel=0, note=68, velocity=66, time=2),\n",
      "    Message('note_on', channel=0, note=65, velocity=59, time=4),\n",
      "    Message('note_on', channel=0, note=53, velocity=42, time=0),\n",
      "    Message('note_on', channel=0, note=50, velocity=0, time=267),\n",
      "    Message('note_on', channel=0, note=65, velocity=0, time=0),\n",
      "    Message('note_on', channel=0, note=68, velocity=0, time=0),\n",
      "    Message('note_on', channel=0, note=72, velocity=0, time=0),\n",
      "    Message('note_on', channel=0, note=75, velocity=90, time=0),\n",
      "    Message('note_on', channel=0, note=56, velocity=0, time=3),\n",
      "    Message('note_on', channel=0, note=72, velocity=77, time=1),\n",
      "    Message('note_on', channel=0, note=53, velocity=0, time=3),\n",
      "    Message('note_on', channel=0, note=68, velocity=71, time=1),\n",
      "    Message('note_on', channel=0, note=50, velocity=47, time=3),\n",
      "    Message('note_on', channel=0, note=65, velocity=58, time=0),\n",
      "    Message('note_on', channel=0, note=53, velocity=53, time=6),\n",
      "    Message('note_on', channel=0, note=60, velocity=0, time=224),\n",
      "    Message('note_on', channel=0, note=53, velocity=0, time=0),\n",
      "    Message('note_on', channel=0, note=77, velocity=0, time=0),\n",
      "    Message('note_on', channel=0, note=50, velocity=0, time=0),\n",
      "    Message('control_change', channel=0, control=64, value=0, time=3),\n",
      "    Message('note_on', channel=0, note=80, velocity=0, time=2),\n",
      "    Message('note_on', channel=0, note=75, velocity=0, time=7),\n",
      "    Message('note_on', channel=0, note=75, velocity=86, time=6),\n",
      "    Message('note_on', channel=0, note=65, velocity=0, time=2),\n",
      "    Message('note_on', channel=0, note=68, velocity=0, time=0),\n",
      "    Message('note_on', channel=0, note=72, velocity=0, time=0),\n",
      "    Message('note_on', channel=0, note=31, velocity=62, time=6),\n",
      "    Message('note_on', channel=0, note=72, velocity=66, time=2),\n",
      "    Message('note_on', channel=0, note=65, velocity=66, time=2),\n",
      "    Message('note_on', channel=0, note=43, velocity=61, time=0),\n",
      "    Message('note_on', channel=0, note=68, velocity=66, time=1),\n",
      "    Message('note_on', channel=0, note=31, velocity=0, time=54),\n",
      "    Message('control_change', channel=0, control=64, value=127, time=27),\n",
      "    Message('note_on', channel=0, note=68, velocity=0, time=207),\n",
      "    Message('note_on', channel=0, note=72, velocity=0, time=0),\n",
      "    Message('note_on', channel=0, note=68, velocity=66, time=8),\n",
      "    Message('note_on', channel=0, note=65, velocity=0, time=0),\n",
      "    Message('note_on', channel=0, note=72, velocity=66, time=4),\n",
      "    Message('note_on', channel=0, note=50, velocity=45, time=0),\n",
      "    Message('note_on', channel=0, note=65, velocity=55, time=1),\n",
      "    Message('note_on', channel=0, note=56, velocity=59, time=1),\n",
      "    Message('note_on', channel=0, note=56, velocity=0, time=178),\n",
      "    Message('note_on', channel=0, note=65, velocity=0, time=0),\n",
      "    Message('note_on', channel=0, note=68, velocity=0, time=0),\n",
      "    Message('note_on', channel=0, note=72, velocity=0, time=0),\n",
      "    Message('note_on', channel=0, note=60, velocity=64, time=7),\n",
      "    Message('note_on', channel=0, note=72, velocity=66, time=1),\n",
      "    Message('note_on', channel=0, note=65, velocity=59, time=3),\n",
      "    Message('note_on', channel=0, note=56, velocity=59, time=1),\n",
      "    Message('note_on', channel=0, note=68, velocity=61, time=0),\n",
      "    Message('note_on', channel=0, note=53, velocity=53, time=1),\n",
      "    Message('note_on', channel=0, note=50, velocity=0, time=156),\n",
      "    Message('note_on', channel=0, note=65, velocity=0, time=0),\n",
      "    Message('note_on', channel=0, note=68, velocity=0, time=3),\n",
      "    Message('note_on', channel=0, note=53, velocity=0, time=1),\n",
      "    Message('note_on', channel=0, note=72, velocity=0, time=0),\n",
      "    Message('note_on', channel=0, note=60, velocity=0, time=0),\n",
      "    Message('note_on', channel=0, note=56, velocity=0, time=0),\n",
      "    Message('note_on', channel=0, note=71, velocity=70, time=1),\n",
      "    Message('control_change', channel=0, control=64, value=0, time=0),\n",
      "    Message('note_on', channel=0, note=75, velocity=0, time=3),\n",
      "    Message('note_on', channel=0, note=59, velocity=57, time=1),\n",
      "    Message('note_on', channel=0, note=50, velocity=53, time=1),\n",
      "    Message('note_on', channel=0, note=65, velocity=67, time=0),\n",
      "    Message('note_on', channel=0, note=55, velocity=59, time=3),\n",
      "    Message('note_on', channel=0, note=67, velocity=65, time=0),\n",
      "    Message('control_change', channel=0, control=64, value=127, time=72),\n",
      "    Message('note_on', channel=0, note=55, velocity=0, time=92),\n",
      "    Message('note_on', channel=0, note=59, velocity=0, time=8),\n",
      "    Message('note_on', channel=0, note=55, velocity=52, time=3),\n",
      "    Message('note_on', channel=0, note=59, velocity=58, time=1),\n",
      "    Message('note_on', channel=0, note=71, velocity=0, time=3),\n",
      "    Message('note_on', channel=0, note=65, velocity=0, time=8),\n",
      "    Message('note_on', channel=0, note=67, velocity=0, time=0),\n",
      "    Message('note_on', channel=0, note=71, velocity=64, time=0),\n",
      "    Message('note_on', channel=0, note=65, velocity=73, time=8),\n",
      "    Message('note_on', channel=0, note=67, velocity=65, time=3),\n",
      "    Message('note_on', channel=0, note=65, velocity=0, time=219),\n",
      "    Message('note_on', channel=0, note=67, velocity=0, time=0),\n",
      "    Message('note_on', channel=0, note=71, velocity=0, time=0),\n",
      "    Message('note_on', channel=0, note=74, velocity=83, time=4),\n",
      "    Message('control_change', channel=0, control=64, value=0, time=3),\n",
      "    Message('note_on', channel=0, note=43, velocity=0, time=1),\n",
      "    Message('note_on', channel=0, note=71, velocity=70, time=1),\n",
      "    Message('note_on', channel=0, note=65, velocity=72, time=1),\n",
      "    Message('note_on', channel=0, note=67, velocity=71, time=1),\n",
      "    Message('note_on', channel=0, note=43, velocity=59, time=1),\n",
      "    Message('note_on', channel=0, note=31, velocity=61, time=0),\n",
      "    Message('note_on', channel=0, note=55, velocity=0, time=4),\n",
      "    Message('control_change', channel=0, control=64, value=127, time=31),\n",
      "    Message('note_on', channel=0, note=50, velocity=0, time=216),\n",
      "    Message('note_on', channel=0, note=74, velocity=0, time=0),\n",
      "    Message('note_on', channel=0, note=43, velocity=0, time=1),\n",
      "    Message('control_change', channel=0, control=64, value=0, time=1),\n",
      "    Message('note_on', channel=0, note=31, velocity=0, time=4),\n",
      "    Message('note_on', channel=0, note=59, velocity=0, time=0),\n",
      "    Message('note_on', channel=0, note=63, velocity=71, time=6),\n",
      "    Message('note_on', channel=0, note=65, velocity=0, time=2),\n",
      "    Message('note_on', channel=0, note=67, velocity=0, time=0),\n",
      "    Message('note_on', channel=0, note=68, velocity=68, time=1),\n",
      "    Message('note_on', channel=0, note=44, velocity=71, time=3),\n",
      "    Message('note_on', channel=0, note=32, velocity=67, time=1),\n",
      "    Message('note_on', channel=0, note=71, velocity=0, time=3),\n",
      "    Message('note_on', channel=0, note=32, velocity=0, time=44),\n",
      "    Message('control_change', channel=0, control=64, value=127, time=25),\n",
      "    Message('note_on', channel=0, note=63, velocity=0, time=199),\n",
      "    Message('note_on', channel=0, note=68, velocity=0, time=0),\n",
      "    Message('note_on', channel=0, note=72, velocity=80, time=6),\n",
      "    Message('note_on', channel=0, note=68, velocity=73, time=5),\n",
      "    Message('note_on', channel=0, note=63, velocity=68, time=1),\n",
      "    Message('note_on', channel=0, note=44, velocity=0, time=65),\n",
      "    Message('note_on', channel=0, note=56, velocity=57, time=5),\n",
      "    Message('note_on', channel=0, note=48, velocity=52, time=1),\n",
      "    Message('note_on', channel=0, note=44, velocity=53, time=3),\n",
      "    Message('note_on', channel=0, note=63, velocity=0, time=106),\n",
      "    Message('note_on', channel=0, note=74, velocity=77, time=4),\n",
      "    Message('note_on', channel=0, note=68, velocity=0, time=4),\n",
      "    Message('note_on', channel=0, note=63, velocity=66, time=4),\n",
      "    Message('note_on', channel=0, note=68, velocity=68, time=0),\n",
      "    Message('note_on', channel=0, note=56, velocity=0, time=11),\n",
      "    Message('note_on', channel=0, note=56, velocity=41, time=5),\n",
      "    Message('note_on', channel=0, note=60, velocity=57, time=97),\n",
      "    Message('note_on', channel=0, note=72, velocity=0, time=21),\n",
      "    Message('note_on', channel=0, note=72, velocity=76, time=7),\n",
      "    Message('note_on', channel=0, note=63, velocity=0, time=1),\n",
      "    Message('note_on', channel=0, note=68, velocity=0, time=8),\n",
      "    Message('note_on', channel=0, note=63, velocity=71, time=1),\n",
      "    Message('note_on', channel=0, note=51, velocity=54, time=1),\n",
      "    Message('note_on', channel=0, note=56, velocity=0, time=5),\n",
      "    Message('note_on', channel=0, note=68, velocity=70, time=3),\n",
      "    Message('note_on', channel=0, note=56, velocity=40, time=3),\n",
      "    Message('note_on', channel=0, note=71, velocity=77, time=138),\n",
      "    Message('note_on', channel=0, note=48, velocity=0, time=2),\n",
      "    Message('note_on', channel=0, note=56, velocity=0, time=0),\n",
      "    Message('note_on', channel=0, note=63, velocity=0, time=0),\n",
      "    Message('note_on', channel=0, note=68, velocity=0, time=0),\n",
      "    Message('note_on', channel=0, note=48, velocity=58, time=4),\n",
      "    Message('note_on', channel=0, note=56, velocity=56, time=1),\n",
      "    Message('note_on', channel=0, note=63, velocity=71, time=0),\n",
      "    Message('note_on', channel=0, note=68, velocity=72, time=5),\n",
      "    Message('note_on', channel=0, note=60, velocity=0, time=121),\n",
      "    Message('note_on', channel=0, note=72, velocity=0, time=8),\n",
      "    Message('note_on', channel=0, note=60, velocity=53, time=0),\n",
      "    Message('note_on', channel=0, note=63, velocity=0, time=7),\n",
      "    Message('note_on', channel=0, note=72, velocity=77, time=2),\n",
      "    Message('note_on', channel=0, note=68, velocity=0, time=6),\n",
      "    Message('note_on', channel=0, note=63, velocity=63, time=3),\n",
      "    Message('note_on', channel=0, note=56, velocity=0, time=5),\n",
      "    Message('note_on', channel=0, note=68, velocity=75, time=0),\n",
      "    Message('note_on', channel=0, note=56, velocity=48, time=5),\n",
      "    Message('note_on', channel=0, note=63, velocity=0, time=140),\n",
      "    Message('note_on', channel=0, note=74, velocity=0, time=0),\n",
      "    Message('note_on', channel=0, note=74, velocity=81, time=7),\n",
      "    Message('note_on', channel=0, note=68, velocity=0, time=1),\n",
      "    Message('note_on', channel=0, note=63, velocity=67, time=4),\n",
      "    Message('note_on', channel=0, note=68, velocity=72, time=2),\n",
      "    Message('note_on', channel=0, note=44, velocity=0, time=79),\n",
      "    Message('note_on', channel=0, note=44, velocity=75, time=11),\n",
      "    Message('note_on', channel=0, note=32, velocity=71, time=1),\n",
      "    Message('note_on', channel=0, note=63, velocity=0, time=80),\n",
      "    Message('note_on', channel=0, note=68, velocity=0, time=7),\n",
      "    Message('note_on', channel=0, note=75, velocity=89, time=2),\n",
      "    Message('note_on', channel=0, note=63, velocity=78, time=2),\n",
      "    Message('note_on', channel=0, note=68, velocity=59, time=2),\n",
      "    Message('note_on', channel=0, note=73, velocity=58, time=3),\n",
      "    Message('note_on', channel=0, note=73, velocity=0, time=7),\n",
      "    Message('note_on', channel=0, note=60, velocity=0, time=207),\n",
      "    Message('control_change', channel=0, control=64, value=0, time=4),\n",
      "    Message('note_on', channel=0, note=67, velocity=88, time=5),\n",
      "    Message('note_on', channel=0, note=60, velocity=76, time=2),\n",
      "    Message('note_on', channel=0, note=55, velocity=84, time=0),\n",
      "    Message('note_on', channel=0, note=71, velocity=0, time=1),\n",
      "    Message('note_on', channel=0, note=68, velocity=0, time=2),\n",
      "    Message('note_on', channel=0, note=75, velocity=0, time=0),\n",
      "    Message('note_on', channel=0, note=48, velocity=0, time=0),\n",
      "    Message('note_on', channel=0, note=39, velocity=77, time=1),\n",
      "    Message('note_on', channel=0, note=56, velocity=0, time=1),\n",
      "    Message('note_on', channel=0, note=74, velocity=0, time=1),\n",
      "    Message('note_on', channel=0, note=27, velocity=89, time=2),\n",
      "    Message('note_on', channel=0, note=32, velocity=0, time=7),\n",
      "    Message('note_on', channel=0, note=44, velocity=0, time=5),\n",
      "    Message('note_on', channel=0, note=72, velocity=0, time=8),\n",
      "    Message('note_on', channel=0, note=27, velocity=0, time=34),\n",
      "    Message('control_change', channel=0, control=64, value=127, time=12),\n",
      "    Message('note_on', channel=0, note=51, velocity=0, time=138),\n",
      "    Message('note_on', channel=0, note=60, velocity=0, time=84),\n",
      "    Message('note_on', channel=0, note=63, velocity=0, time=8),\n",
      "    Message('note_on', channel=0, note=67, velocity=0, time=0),\n",
      "    Message('note_on', channel=0, note=60, velocity=66, time=2),\n",
      "    Message('note_on', channel=0, note=63, velocity=57, time=3),\n",
      "    Message('note_on', channel=0, note=67, velocity=59, time=0),\n",
      "    Message('note_on', channel=0, note=55, velocity=0, time=3),\n",
      "    Message('note_on', channel=0, note=51, velocity=56, time=1),\n",
      "    Message('note_on', channel=0, note=55, velocity=51, time=3),\n",
      "    Message('note_on', channel=0, note=60, velocity=0, time=165),\n",
      "    Message('note_on', channel=0, note=60, velocity=55, time=10),\n",
      "    Message('note_on', channel=0, note=55, velocity=0, time=13),\n",
      "    Message('note_on', channel=0, note=63, velocity=0, time=0),\n",
      "    Message('note_on', channel=0, note=55, velocity=55, time=5),\n",
      "    Message('note_on', channel=0, note=63, velocity=79, time=6),\n",
      "    Message('note_on', channel=0, note=51, velocity=0, time=4),\n",
      "    Message('note_on', channel=0, note=51, velocity=45, time=5),\n",
      "    Message('note_on', channel=0, note=55, velocity=0, time=249),\n",
      "    Message('note_on', channel=0, note=55, velocity=54, time=6),\n",
      "    Message('note_on', channel=0, note=51, velocity=0, time=1),\n",
      "    Message('note_on', channel=0, note=84, velocity=92, time=1),\n",
      "    Message('note_on', channel=0, note=60, velocity=0, time=7),\n",
      "    Message('note_on', channel=0, note=72, velocity=89, time=1),\n",
      "    Message('note_on', channel=0, note=51, velocity=62, time=1),\n",
      "    Message('note_on', channel=0, note=79, velocity=85, time=0),\n",
      "    Message('note_on', channel=0, note=60, velocity=66, time=3),\n",
      "    Message('note_on', channel=0, note=72, velocity=0, time=241),\n",
      "    Message('note_on', channel=0, note=55, velocity=0, time=7),\n",
      "    Message('note_on', channel=0, note=60, velocity=0, time=0),\n",
      "    Message('note_on', channel=0, note=67, velocity=0, time=0),\n",
      "    Message('note_on', channel=0, note=79, velocity=0, time=0),\n",
      "    Message('note_on', channel=0, note=72, velocity=73, time=3),\n",
      "    Message('note_on', channel=0, note=67, velocity=69, time=2),\n",
      "    Message('note_on', channel=0, note=79, velocity=73, time=1),\n",
      "    Message('note_on', channel=0, note=60, velocity=40, time=0),\n",
      "    Message('note_on', channel=0, note=55, velocity=51, time=3),\n",
      "    Message('note_on', channel=0, note=60, velocity=0, time=206),\n",
      "    Message('note_on', channel=0, note=67, velocity=0, time=0),\n",
      "    Message('note_on', channel=0, note=72, velocity=0, time=8),\n",
      "    Message('note_on', channel=0, note=79, velocity=0, time=0),\n",
      "    Message('note_on', channel=0, note=60, velocity=50, time=1),\n",
      "    Message('note_on', channel=0, note=67, velocity=59, time=2),\n",
      "    Message('note_on', channel=0, note=79, velocity=86, time=5),\n",
      "    Message('note_on', channel=0, note=72, velocity=77, time=2),\n",
      "    Message('control_change', channel=0, control=64, value=0, time=231),\n",
      "    Message('note_on', channel=0, note=60, velocity=0, time=1),\n",
      "    Message('note_on', channel=0, note=63, velocity=0, time=0),\n",
      "    Message('note_on', channel=0, note=67, velocity=0, time=1),\n",
      "    Message('note_on', channel=0, note=79, velocity=0, time=0),\n",
      "    Message('note_on', channel=0, note=39, velocity=0, time=3),\n",
      "    Message('note_on', channel=0, note=51, velocity=0, time=15),\n",
      "    Message('note_on', channel=0, note=55, velocity=0, time=0),\n",
      "    Message('note_on', channel=0, note=72, velocity=0, time=8),\n",
      "    Message('note_on', channel=0, note=84, velocity=0, time=0),\n",
      "    Message('note_on', channel=0, note=84, velocity=93, time=8),\n",
      "    Message('note_on', channel=0, note=72, velocity=82, time=3),\n",
      "    Message('note_on', channel=0, note=41, velocity=81, time=2),\n",
      "    Message('note_on', channel=0, note=74, velocity=81, time=1),\n",
      "    Message('note_on', channel=0, note=29, velocity=84, time=3),\n",
      "    Message('control_change', channel=0, control=64, value=127, time=21),\n",
      "    Message('note_on', channel=0, note=72, velocity=0, time=277),\n",
      "    Message('note_on', channel=0, note=74, velocity=0, time=0),\n",
      "    Message('note_on', channel=0, note=84, velocity=0, time=0),\n",
      "    Message('note_on', channel=0, note=83, velocity=92, time=4),\n",
      "    Message('note_on', channel=0, note=72, velocity=81, time=5),\n",
      "    Message('note_on', channel=0, note=84, velocity=84, time=1),\n",
      "    Message('note_on', channel=0, note=74, velocity=80, time=0),\n",
      "    Message('note_on', channel=0, note=67, velocity=67, time=2),\n",
      "    Message('note_on', channel=0, note=67, velocity=0, time=11),\n",
      "    Message('note_on', channel=0, note=53, velocity=42, time=28),\n",
      "    Message('note_on', channel=0, note=62, velocity=47, time=4),\n",
      "    Message('note_on', channel=0, note=72, velocity=0, time=144),\n",
      "    Message('note_on', channel=0, note=74, velocity=0, time=0),\n",
      "    Message('note_on', channel=0, note=82, velocity=94, time=4),\n",
      "    Message('note_on', channel=0, note=72, velocity=87, time=1),\n",
      "    Message('note_on', channel=0, note=74, velocity=82, time=0),\n",
      "    Message('note_on', channel=0, note=70, velocity=74, time=2),\n",
      "    Message('note_on', channel=0, note=62, velocity=0, time=1),\n",
      "    Message('note_on', channel=0, note=60, velocity=55, time=4),\n",
      "    Message('note_on', channel=0, note=62, velocity=61, time=0),\n",
      "    Message('note_on', channel=0, note=70, velocity=0, time=4),\n",
      "    Message('note_on', channel=0, note=68, velocity=61, time=122),\n",
      "    Message('note_on', channel=0, note=60, velocity=0, time=1),\n",
      "    Message('note_on', channel=0, note=60, velocity=57, time=8),\n",
      "    Message('note_on', channel=0, note=74, velocity=0, time=30),\n",
      "    Message('note_on', channel=0, note=81, velocity=91, time=3),\n",
      "    Message('note_on', channel=0, note=74, velocity=84, time=6),\n",
      "    Message('note_on', channel=0, note=84, velocity=0, time=152),\n",
      "    Message('note_on', channel=0, note=68, velocity=0, time=8),\n",
      "    Message('note_on', channel=0, note=72, velocity=0, time=0),\n",
      "    Message('note_on', channel=0, note=84, velocity=78, time=2),\n",
      "    Message('note_on', channel=0, note=80, velocity=88, time=1),\n",
      "    Message('note_on', channel=0, note=72, velocity=87, time=1),\n",
      "    Message('note_on', channel=0, note=62, velocity=0, time=4),\n",
      "    Message('note_on', channel=0, note=68, velocity=68, time=0),\n",
      "    Message('note_on', channel=0, note=53, velocity=0, time=7),\n",
      "    Message('note_on', channel=0, note=62, velocity=66, time=0),\n",
      "    Message('note_on', channel=0, note=53, velocity=54, time=10),\n",
      "    Message('note_on', channel=0, note=84, velocity=0, time=144),\n",
      "    Message('note_on', channel=0, note=77, velocity=86, time=7),\n",
      "    Message('note_on', channel=0, note=72, velocity=0, time=1),\n",
      "    Message('note_on', channel=0, note=84, velocity=69, time=3),\n",
      "    Message('note_on', channel=0, note=72, velocity=72, time=4),\n",
      "    Message('note_on', channel=0, note=68, velocity=0, time=0),\n",
      "    Message('note_on', channel=0, note=68, velocity=68, time=4),\n",
      "    Message('note_on', channel=0, note=62, velocity=0, time=73),\n",
      "    Message('note_on', channel=0, note=62, velocity=58, time=4),\n",
      "    Message('note_on', channel=0, note=60, velocity=0, time=12),\n",
      "    Message('note_on', channel=0, note=60, velocity=53, time=3),\n",
      "    Message('note_on', channel=0, note=72, velocity=0, time=58),\n",
      "    Message('note_on', channel=0, note=60, velocity=0, time=8),\n",
      "    Message('note_on', channel=0, note=68, velocity=0, time=0),\n",
      "    Message('note_on', channel=0, note=72, velocity=81, time=3),\n",
      "    Message('note_on', channel=0, note=68, velocity=72, time=2),\n",
      "    Message('note_on', channel=0, note=65, velocity=73, time=1),\n",
      "    Message('note_on', channel=0, note=53, velocity=0, time=1),\n",
      "    Message('note_on', channel=0, note=56, velocity=60, time=2),\n",
      "    Message('note_on', channel=0, note=60, velocity=54, time=1),\n",
      "    Message('note_on', channel=0, note=53, velocity=53, time=9),\n",
      "    Message('note_on', channel=0, note=56, velocity=0, time=80),\n",
      "    Message('note_on', channel=0, note=56, velocity=50, time=10),\n",
      "    Message('note_on', channel=0, note=74, velocity=0, time=60),\n",
      "    Message('note_on', channel=0, note=65, velocity=0, time=7),\n",
      "    Message('note_on', channel=0, note=74, velocity=89, time=3),\n",
      "    Message('note_on', channel=0, note=65, velocity=73, time=3),\n",
      "    Message('note_on', channel=0, note=72, velocity=0, time=2),\n",
      "    Message('note_on', channel=0, note=72, velocity=61, time=5),\n",
      "    Message('note_on', channel=0, note=83, velocity=0, time=153),\n",
      "    Message('note_on', channel=0, note=82, velocity=0, time=1),\n",
      "    Message('note_on', channel=0, note=84, velocity=0, time=1),\n",
      "    Message('note_on', channel=0, note=56, velocity=0, time=1),\n",
      "    Message('note_on', channel=0, note=68, velocity=0, time=1),\n",
      "    Message('note_on', channel=0, note=62, velocity=0, time=0),\n",
      "    Message('note_on', channel=0, note=60, velocity=0, time=0),\n",
      "    Message('note_on', channel=0, note=53, velocity=0, time=0),\n",
      "    Message('note_on', channel=0, note=74, velocity=0, time=0),\n",
      "    Message('note_on', channel=0, note=77, velocity=0, time=0),\n",
      "    Message('note_on', channel=0, note=80, velocity=0, time=1),\n",
      "    Message('note_on', channel=0, note=81, velocity=0, time=0),\n",
      "    Message('note_on', channel=0, note=65, velocity=0, time=0),\n",
      "    Message('control_change', channel=0, control=64, value=0, time=1),\n",
      "    Message('note_on', channel=0, note=76, velocity=82, time=1),\n",
      "    Message('note_on', channel=0, note=29, velocity=0, time=4),\n",
      "    Message('note_on', channel=0, note=72, velocity=0, time=0),\n",
      "    Message('note_on', channel=0, note=64, velocity=81, time=4),\n",
      "    Message('note_on', channel=0, note=72, velocity=76, time=0),\n",
      "    Message('note_on', channel=0, note=41, velocity=0, time=4),\n",
      "    Message('note_on', channel=0, note=43, velocity=82, time=0),\n",
      "    Message('note_on', channel=0, note=31, velocity=77, time=2),\n",
      "    Message('note_on', channel=0, note=70, velocity=77, time=1),\n",
      "    Message('note_on', channel=0, note=31, velocity=0, time=40),\n",
      "    Message('control_change', channel=0, control=64, value=127, time=18),\n",
      "    Message('note_on', channel=0, note=70, velocity=0, time=154),\n",
      "    Message('note_on', channel=0, note=72, velocity=0, time=0),\n",
      "    Message('note_on', channel=0, note=77, velocity=85, time=8),\n",
      "    Message('note_on', channel=0, note=72, velocity=81, time=1),\n",
      "    Message('note_on', channel=0, note=65, velocity=73, time=1),\n",
      "    Message('note_on', channel=0, note=70, velocity=79, time=1),\n",
      "    Message('note_on', channel=0, note=55, velocity=48, time=73),\n",
      "    Message('note_on', channel=0, note=60, velocity=64, time=4),\n",
      "    Message('note_on', channel=0, note=76, velocity=0, time=88),\n",
      "    Message('note_on', channel=0, note=60, velocity=0, time=8),\n",
      "    Message('note_on', channel=0, note=64, velocity=0, time=0),\n",
      "    Message('note_on', channel=0, note=70, velocity=0, time=0),\n",
      "    Message('note_on', channel=0, note=72, velocity=0, time=0),\n",
      "    Message('note_on', channel=0, note=76, velocity=83, time=3),\n",
      "    Message('note_on', channel=0, note=70, velocity=82, time=1),\n",
      "    Message('note_on', channel=0, note=64, velocity=73, time=4),\n",
      "    Message('note_on', channel=0, note=72, velocity=80, time=1),\n",
      "    Message('note_on', channel=0, note=60, velocity=57, time=1),\n",
      "    Message('note_on', channel=0, note=65, velocity=0, time=5),\n",
      "    Message('note_on', channel=0, note=65, velocity=64, time=7),\n",
      "    Message('note_on', channel=0, note=72, velocity=0, time=124),\n",
      "    Message('note_on', channel=0, note=72, velocity=74, time=4),\n",
      "    Message('note_on', channel=0, note=74, velocity=80, time=2),\n",
      "    Message('note_on', channel=0, note=62, velocity=78, time=1),\n",
      "    Message('note_on', channel=0, note=70, velocity=0, time=1),\n",
      "    Message('note_on', channel=0, note=70, velocity=81, time=7),\n",
      "    Message('note_on', channel=0, note=58, velocity=62, time=2),\n",
      "    Message('note_on', channel=0, note=65, velocity=0, time=6),\n",
      "    Message('note_on', channel=0, note=65, velocity=57, time=5),\n",
      "    Message('note_on', channel=0, note=64, velocity=0, time=3),\n",
      "    Message('note_on', channel=0, note=64, velocity=57, time=4),\n",
      "    Message('note_on', channel=0, note=76, velocity=0, time=118),\n",
      "    Message('note_on', channel=0, note=76, velocity=84, time=7),\n",
      "    Message('note_on', channel=0, note=55, velocity=0, time=1),\n",
      "    Message('note_on', channel=0, note=60, velocity=0, time=0),\n",
      "    Message('note_on', channel=0, note=64, velocity=0, time=0),\n",
      "    Message('note_on', channel=0, note=70, velocity=0, time=0),\n",
      "    Message('note_on', channel=0, note=72, velocity=0, time=0),\n",
      "    Message('note_on', channel=0, note=64, velocity=70, time=4),\n",
      "    Message('note_on', channel=0, note=72, velocity=72, time=1),\n",
      "    Message('note_on', channel=0, note=70, velocity=76, time=0),\n",
      "    Message('note_on', channel=0, note=60, velocity=66, time=0),\n",
      "    Message('note_on', channel=0, note=55, velocity=61, time=7),\n",
      "    Message('note_on', channel=0, note=73, velocity=68, time=0),\n",
      "    Message('note_on', channel=0, note=65, velocity=0, time=142),\n",
      "    Message('note_on', channel=0, note=77, velocity=0, time=0),\n",
      "    Message('note_on', channel=0, note=77, velocity=90, time=4),\n",
      "    Message('note_on', channel=0, note=65, velocity=56, time=2),\n",
      "    Message('note_on', channel=0, note=72, velocity=0, time=1),\n",
      "    Message('note_on', channel=0, note=72, velocity=69, time=7),\n",
      "    Message('note_on', channel=0, note=70, velocity=0, time=40),\n",
      "    Message('note_on', channel=0, note=67, velocity=62, time=3),\n",
      "    Message('note_on', channel=0, note=70, velocity=66, time=6),\n",
      "    Message('note_on', channel=0, note=80, velocity=93, time=110),\n",
      "    Message('note_on', channel=0, note=72, velocity=0, time=3),\n",
      "    Message('note_on', channel=0, note=76, velocity=0, time=0),\n",
      "    Message('note_on', channel=0, note=75, velocity=72, time=3),\n",
      "    Message('note_on', channel=0, note=72, velocity=81, time=3),\n",
      "    Message('note_on', channel=0, note=76, velocity=71, time=1),\n",
      "    Message('note_on', channel=0, note=75, velocity=0, time=1),\n",
      "    Message('note_on', channel=0, note=55, velocity=0, time=8),\n",
      "    Message('note_on', channel=0, note=70, velocity=0, time=0),\n",
      "    Message('note_on', channel=0, note=70, velocity=63, time=7),\n",
      "    Message('note_on', channel=0, note=55, velocity=55, time=1),\n",
      "    Message('note_on', channel=0, note=79, velocity=90, time=159),\n",
      "    Message('note_on', channel=0, note=70, velocity=0, time=2),\n",
      "    Message('note_on', channel=0, note=70, velocity=73, time=4),\n",
      "    Message('note_on', channel=0, note=75, velocity=51, time=19),\n",
      "    Message('note_on', channel=0, note=72, velocity=0, time=138),\n",
      "    Message('note_on', channel=0, note=43, velocity=0, time=8),\n",
      "    Message('note_on', channel=0, note=65, velocity=0, time=0),\n",
      "    Message('note_on', channel=0, note=77, velocity=0, time=0),\n",
      "    Message('note_on', channel=0, note=72, velocity=87, time=2),\n",
      "    Message('note_on', channel=0, note=64, velocity=0, time=1),\n",
      "    Message('note_on', channel=0, note=76, velocity=0, time=1),\n",
      "    Message('note_on', channel=0, note=55, velocity=0, time=0),\n",
      "    Message('note_on', channel=0, note=60, velocity=0, time=0),\n",
      "    Message('note_on', channel=0, note=62, velocity=0, time=0),\n",
      "    Message('note_on', channel=0, note=74, velocity=0, time=0),\n",
      "    Message('note_on', channel=0, note=58, velocity=0, time=0),\n",
      "    Message('note_on', channel=0, note=65, velocity=70, time=0),\n",
      "    Message('note_on', channel=0, note=77, velocity=72, time=0),\n",
      "    Message('note_on', channel=0, note=67, velocity=0, time=0),\n",
      "    Message('note_on', channel=0, note=70, velocity=0, time=0),\n",
      "    Message('note_on', channel=0, note=44, velocity=80, time=0),\n",
      "    Message('note_on', channel=0, note=32, velocity=80, time=0),\n",
      "    Message('note_on', channel=0, note=80, velocity=0, time=1),\n",
      "    Message('note_on', channel=0, note=75, velocity=0, time=0),\n",
      "    Message('control_change', channel=0, control=64, value=0, time=1),\n",
      "    Message('note_on', channel=0, note=73, velocity=0, time=9),\n",
      "    Message('note_on', channel=0, note=79, velocity=0, time=8),\n",
      "    Message('note_on', channel=0, note=32, velocity=0, time=36),\n",
      "    Message('control_change', channel=0, control=64, value=127, time=2),\n",
      "    Message('note_on', channel=0, note=65, velocity=0, time=146),\n",
      "    Message('note_on', channel=0, note=72, velocity=0, time=0),\n",
      "    Message('note_on', channel=0, note=77, velocity=0, time=0),\n",
      "    Message('note_on', channel=0, note=72, velocity=79, time=4),\n",
      "    Message('note_on', channel=0, note=76, velocity=78, time=1),\n",
      "    Message('note_on', channel=0, note=77, velocity=75, time=1),\n",
      "    Message('note_on', channel=0, note=65, velocity=74, time=1),\n",
      "    Message('note_on', channel=0, note=60, velocity=63, time=92),\n",
      "    Message('note_on', channel=0, note=53, velocity=51, time=3),\n",
      "    Message('note_on', channel=0, note=72, velocity=0, time=75),\n",
      "    Message('note_on', channel=0, note=77, velocity=0, time=0),\n",
      "    Message('note_on', channel=0, note=77, velocity=87, time=10),\n",
      "    Message('note_on', channel=0, note=72, velocity=88, time=1),\n",
      "    Message('note_on', channel=0, note=60, velocity=0, time=104),\n",
      "    Message('note_on', channel=0, note=65, velocity=0, time=0),\n",
      "    Message('note_on', channel=0, note=60, velocity=51, time=10),\n",
      "    Message('note_on', channel=0, note=65, velocity=61, time=1),\n",
      "    Message('note_on', channel=0, note=79, velocity=89, time=49),\n",
      "    Message('note_on', channel=0, note=72, velocity=0, time=1),\n",
      "    Message('note_on', channel=0, note=72, velocity=86, time=5),\n",
      "    Message('note_on', channel=0, note=82, velocity=92, time=160),\n",
      "    Message('note_on', channel=0, note=53, velocity=0, time=4),\n",
      "    Message('note_on', channel=0, note=74, velocity=77, time=3),\n",
      "    Message('note_on', channel=0, note=53, velocity=65, time=2),\n",
      "    Message('note_on', channel=0, note=62, velocity=68, time=0),\n",
      "    Message('note_on', channel=0, note=72, velocity=0, time=172),\n",
      "    Message('note_on', channel=0, note=74, velocity=0, time=0),\n",
      "    Message('note_on', channel=0, note=80, velocity=85, time=3),\n",
      "    Message('note_on', channel=0, note=72, velocity=84, time=1),\n",
      "    Message('note_on', channel=0, note=68, velocity=74, time=0),\n",
      "    Message('note_on', channel=0, note=74, velocity=79, time=2),\n",
      "    Message('note_on', channel=0, note=60, velocity=0, time=55),\n",
      "    Message('note_on', channel=0, note=68, velocity=0, time=0),\n",
      "    Message('note_on', channel=0, note=68, velocity=65, time=6),\n",
      "    Message('note_on', channel=0, note=60, velocity=64, time=0),\n",
      "    Message('note_on', channel=0, note=72, velocity=0, time=117),\n",
      "    Message('note_on', channel=0, note=77, velocity=0, time=0),\n",
      "    Message('note_on', channel=0, note=79, velocity=0, time=0),\n",
      "    Message('note_on', channel=0, note=65, velocity=0, time=8),\n",
      "    Message('note_on', channel=0, note=72, velocity=95, time=1),\n",
      "    Message('note_on', channel=0, note=79, velocity=74, time=2),\n",
      "    Message('note_on', channel=0, note=77, velocity=73, time=0),\n",
      "    Message('note_on', channel=0, note=65, velocity=65, time=8),\n",
      "    Message('note_on', channel=0, note=67, velocity=59, time=1),\n",
      "    Message('note_on', channel=0, note=72, velocity=0, time=157),\n",
      "    Message('note_on', channel=0, note=74, velocity=0, time=0),\n",
      "    Message('note_on', channel=0, note=77, velocity=0, time=0),\n",
      "    Message('note_on', channel=0, note=72, velocity=87, time=7),\n",
      "    Message('note_on', channel=0, note=65, velocity=0, time=1),\n",
      "    Message('note_on', channel=0, note=77, velocity=75, time=1),\n",
      "    Message('note_on', channel=0, note=74, velocity=82, time=2),\n",
      "    Message('note_on', channel=0, note=53, velocity=0, time=1),\n",
      "    Message('note_on', channel=0, note=65, velocity=73, time=1),\n",
      "    Message('note_on', channel=0, note=44, velocity=0, time=2),\n",
      "    Message('note_on', channel=0, note=44, velocity=67, time=9),\n",
      "    Message('note_on', channel=0, note=32, velocity=69, time=0),\n",
      "    Message('note_on', channel=0, note=67, velocity=0, time=199),\n",
      "    Message('note_on', channel=0, note=72, velocity=0, time=0),\n",
      "    Message('control_change', channel=0, control=64, value=0, time=4),\n",
      "    Message('note_on', channel=0, note=75, velocity=88, time=1),\n",
      "    Message('note_on', channel=0, note=82, velocity=0, time=1),\n",
      "    Message('note_on', channel=0, note=68, velocity=0, time=2),\n",
      "    Message('note_on', channel=0, note=65, velocity=0, time=1),\n",
      "    Message('note_on', channel=0, note=80, velocity=0, time=0),\n",
      "    Message('note_on', channel=0, note=44, velocity=0, time=0),\n",
      "    Message('note_on', channel=0, note=79, velocity=0, time=0),\n",
      "    Message('note_on', channel=0, note=72, velocity=75, time=0),\n",
      "    Message('note_on', channel=0, note=77, velocity=0, time=0),\n",
      "    Message('note_on', channel=0, note=67, velocity=71, time=1),\n",
      "    Message('note_on', channel=0, note=76, velocity=0, time=0),\n",
      "    Message('note_on', channel=0, note=32, velocity=0, time=2),\n",
      "    Message('note_on', channel=0, note=63, velocity=76, time=0),\n",
      "    Message('note_on', channel=0, note=43, velocity=81, time=2),\n",
      "    Message('note_on', channel=0, note=31, velocity=80, time=3),\n",
      "    Message('note_on', channel=0, note=62, velocity=0, time=6),\n",
      "    Message('note_on', channel=0, note=74, velocity=0, time=7),\n",
      "    Message('note_on', channel=0, note=60, velocity=0, time=8),\n",
      "    Message('control_change', channel=0, control=64, value=127, time=61),\n",
      "    Message('note_on', channel=0, note=31, velocity=0, time=108),\n",
      "    Message('note_on', channel=0, note=43, velocity=0, time=154),\n",
      "    Message('note_on', channel=0, note=63, velocity=0, time=0),\n",
      "    Message('note_on', channel=0, note=67, velocity=0, time=0),\n",
      "    Message('note_on', channel=0, note=72, velocity=0, time=0),\n",
      "    Message('note_on', channel=0, note=72, velocity=71, time=6),\n",
      "    Message('note_on', channel=0, note=48, velocity=60, time=2),\n",
      "    Message('note_on', channel=0, note=55, velocity=60, time=0),\n",
      "    Message('note_on', channel=0, note=43, velocity=53, time=0),\n",
      "    Message('note_on', channel=0, note=63, velocity=65, time=1),\n",
      "    Message('note_on', channel=0, note=67, velocity=65, time=0),\n",
      "    Message('note_on', channel=0, note=43, velocity=0, time=221),\n",
      "    Message('note_on', channel=0, note=55, velocity=0, time=0),\n",
      "    Message('note_on', channel=0, note=63, velocity=0, time=0),\n",
      "    Message('note_on', channel=0, note=67, velocity=0, time=0),\n",
      "    Message('note_on', channel=0, note=72, velocity=0, time=0),\n",
      "    Message('note_on', channel=0, note=72, velocity=71, time=8),\n",
      "    Message('note_on', channel=0, note=67, velocity=63, time=2),\n",
      "    Message('note_on', channel=0, note=43, velocity=50, time=1),\n",
      "    Message('note_on', channel=0, note=60, velocity=64, time=0),\n",
      "    Message('note_on', channel=0, note=55, velocity=60, time=0),\n",
      "    Message('note_on', channel=0, note=63, velocity=66, time=0),\n",
      "    Message('note_on', channel=0, note=31, velocity=52, time=1),\n",
      "    Message('note_on', channel=0, note=31, velocity=0, time=11),\n",
      "    Message('note_on', channel=0, note=43, velocity=0, time=177),\n",
      "    Message('note_on', channel=0, note=48, velocity=0, time=0),\n",
      "    Message('note_on', channel=0, note=55, velocity=0, time=0),\n",
      "    Message('note_on', channel=0, note=60, velocity=0, time=0),\n",
      "    Message('note_on', channel=0, note=63, velocity=0, time=0),\n",
      "    Message('note_on', channel=0, note=67, velocity=0, time=0),\n",
      "    Message('note_on', channel=0, note=55, velocity=70, time=5),\n",
      "    Message('note_on', channel=0, note=48, velocity=63, time=3),\n",
      "    Message('note_on', channel=0, note=60, velocity=60, time=1),\n",
      "    Message('note_on', channel=0, note=63, velocity=69, time=0),\n",
      "    Message('note_on', channel=0, note=43, velocity=56, time=1),\n",
      "    Message('note_on', channel=0, note=67, velocity=69, time=0),\n",
      "    Message('note_on', channel=0, note=43, velocity=0, time=220),\n",
      "    Message('note_on', channel=0, note=55, velocity=0, time=0),\n",
      "    Message('note_on', channel=0, note=72, velocity=0, time=0),\n",
      "    Message('note_on', channel=0, note=72, velocity=70, time=6),\n",
      "    Message('note_on', channel=0, note=60, velocity=0, time=2),\n",
      "    Message('note_on', channel=0, note=63, velocity=0, time=0),\n",
      "    Message('note_on', channel=0, note=67, velocity=0, time=0),\n",
      "    Message('note_on', channel=0, note=43, velocity=54, time=3),\n",
      "    Message('note_on', channel=0, note=55, velocity=67, time=0),\n",
      "    Message('note_on', channel=0, note=60, velocity=66, time=1),\n",
      "    Message('note_on', channel=0, note=67, velocity=69, time=0),\n",
      "    Message('note_on', channel=0, note=63, velocity=67, time=0),\n",
      "    Message('note_on', channel=0, note=63, velocity=0, time=280),\n",
      "    Message('note_on', channel=0, note=67, velocity=0, time=0),\n",
      "    Message('note_on', channel=0, note=72, velocity=0, time=0),\n",
      "    Message('note_on', channel=0, note=72, velocity=89, time=5),\n",
      "    Message('note_on', channel=0, note=55, velocity=0, time=3),\n",
      "    Message('note_on', channel=0, note=63, velocity=82, time=0),\n",
      "    Message('note_on', channel=0, note=67, velocity=71, time=3),\n",
      "    Message('note_on', channel=0, note=55, velocity=65, time=0),\n",
      "    Message('note_on', channel=0, note=63, velocity=0, time=119),\n",
      "    Message('note_on', channel=0, note=67, velocity=0, time=0),\n",
      "    Message('note_on', channel=0, note=74, velocity=81, time=6),\n",
      "    Message('note_on', channel=0, note=63, velocity=73, time=1),\n",
      "    Message('note_on', channel=0, note=67, velocity=65, time=4),\n",
      "    Message('note_on', channel=0, note=63, velocity=0, time=105),\n",
      "    Message('note_on', channel=0, note=67, velocity=0, time=0),\n",
      "    Message('note_on', channel=0, note=72, velocity=0, time=0),\n",
      "    Message('note_on', channel=0, note=72, velocity=78, time=6),\n",
      "    Message('note_on', channel=0, note=63, velocity=66, time=0),\n",
      "    Message('note_on', channel=0, note=67, velocity=65, time=4),\n",
      "    Message('note_on', channel=0, note=55, velocity=0, time=5),\n",
      "    Message('note_on', channel=0, note=55, velocity=57, time=11),\n",
      "    Message('note_on', channel=0, note=60, velocity=0, time=127),\n",
      "    Message('note_on', channel=0, note=67, velocity=0, time=0),\n",
      "    Message('note_on', channel=0, note=67, velocity=82, time=7),\n",
      "    Message('note_on', channel=0, note=43, velocity=0, time=1),\n",
      "    Message('note_on', channel=0, note=60, velocity=80, time=2),\n",
      "    Message('note_on', channel=0, note=62, velocity=79, time=2),\n",
      "    Message('note_on', channel=0, note=43, velocity=88, time=0),\n",
      "    Message('note_on', channel=0, note=31, velocity=87, time=1),\n",
      "    Message('note_on', channel=0, note=63, velocity=0, time=27),\n",
      "    Message('control_change', channel=0, control=64, value=0, time=0),\n",
      "    Message('note_on', channel=0, note=55, velocity=0, time=3),\n",
      "    Message('note_on', channel=0, note=72, velocity=0, time=1),\n",
      "    Message('note_on', channel=0, note=74, velocity=0, time=0),\n",
      "    Message('note_on', channel=0, note=48, velocity=0, time=2),\n",
      "    Message('note_on', channel=0, note=75, velocity=0, time=2),\n",
      "    Message('control_change', channel=0, control=64, value=127, time=83),\n",
      "    Message('note_on', channel=0, note=31, velocity=0, time=184),\n",
      "    Message('note_on', channel=0, note=43, velocity=0, time=8),\n",
      "    Message('note_on', channel=0, note=62, velocity=0, time=0),\n",
      "    Message('note_on', channel=0, note=43, velocity=71, time=7),\n",
      "    Message('note_on', channel=0, note=50, velocity=68, time=1),\n",
      "    Message('note_on', channel=0, note=31, velocity=70, time=1),\n",
      "    Message('note_on', channel=0, note=55, velocity=66, time=1),\n",
      "    Message('note_on', channel=0, note=62, velocity=69, time=1),\n",
      "    Message('note_on', channel=0, note=59, velocity=69, time=0),\n",
      "    Message('note_on', channel=0, note=31, velocity=0, time=2),\n",
      "    Message('note_on', channel=0, note=59, velocity=0, time=2),\n",
      "    Message('note_on', channel=0, note=55, velocity=0, time=231),\n",
      "    Message('note_on', channel=0, note=60, velocity=0, time=0),\n",
      "    Message('note_on', channel=0, note=62, velocity=0, time=0),\n",
      "    Message('note_on', channel=0, note=50, velocity=0, time=7),\n",
      "    Message('note_on', channel=0, note=62, velocity=71, time=1),\n",
      "    Message('note_on', channel=0, note=60, velocity=69, time=0),\n",
      "    Message('note_on', channel=0, note=55, velocity=66, time=3),\n",
      "    Message('note_on', channel=0, note=50, velocity=68, time=0),\n",
      "    Message('note_on', channel=0, note=43, velocity=0, time=204),\n",
      "    Message('note_on', channel=0, note=50, velocity=0, time=0),\n",
      "    Message('note_on', channel=0, note=62, velocity=0, time=0),\n",
      "    Message('note_on', channel=0, note=59, velocity=76, time=6),\n",
      "    Message('note_on', channel=0, note=62, velocity=74, time=1),\n",
      "    Message('note_on', channel=0, note=55, velocity=0, time=0),\n",
      "    Message('note_on', channel=0, note=43, velocity=73, time=1),\n",
      "    Message('note_on', channel=0, note=50, velocity=68, time=1),\n",
      "    Message('note_on', channel=0, note=31, velocity=70, time=2),\n",
      "    Message('note_on', channel=0, note=55, velocity=67, time=1),\n",
      "    Message('note_on', channel=0, note=31, velocity=0, time=11),\n",
      "    Message('control_change', channel=0, control=64, value=0, time=5),\n",
      "    Message('note_on', channel=0, note=60, velocity=0, time=11),\n",
      "    Message('control_change', channel=0, control=64, value=127, time=60),\n",
      "    Message('note_on', channel=0, note=50, velocity=0, time=162),\n",
      "    Message('note_on', channel=0, note=43, velocity=0, time=7),\n",
      "    Message('note_on', channel=0, note=55, velocity=0, time=0),\n",
      "    Message('note_on', channel=0, note=59, velocity=0, time=0),\n",
      "    Message('note_on', channel=0, note=62, velocity=0, time=0),\n",
      "    Message('note_on', channel=0, note=50, velocity=66, time=4),\n",
      "    Message('note_on', channel=0, note=59, velocity=75, time=0),\n",
      "    Message('note_on', channel=0, note=62, velocity=74, time=1),\n",
      "    Message('note_on', channel=0, note=55, velocity=64, time=2),\n",
      "    Message('note_on', channel=0, note=43, velocity=63, time=1),\n",
      "    Message('note_on', channel=0, note=31, velocity=64, time=1),\n",
      "    Message('note_on', channel=0, note=31, velocity=0, time=7),\n",
      "    Message('control_change', channel=0, control=64, value=0, time=290),\n",
      "    Message('note_on', channel=0, note=59, velocity=0, time=2),\n",
      "    Message('note_on', channel=0, note=67, velocity=0, time=7),\n",
      "    Message('note_on', channel=0, note=59, velocity=81, time=4),\n",
      "    Message('note_on', channel=0, note=62, velocity=0, time=4),\n",
      "    Message('note_on', channel=0, note=67, velocity=83, time=3),\n",
      "    Message('note_on', channel=0, note=62, velocity=83, time=1),\n",
      "    Message('note_on', channel=0, note=43, velocity=0, time=4),\n",
      "    Message('note_on', channel=0, note=31, velocity=71, time=6),\n",
      "    Message('note_on', channel=0, note=43, velocity=70, time=4),\n",
      "    Message('control_change', channel=0, control=64, value=127, time=20),\n",
      "    Message('note_on', channel=0, note=43, velocity=0, time=131),\n",
      "    Message('note_on', channel=0, note=59, velocity=0, time=0),\n",
      "    Message('note_on', channel=0, note=62, velocity=0, time=0),\n",
      "    Message('note_on', channel=0, note=68, velocity=84, time=4),\n",
      "    Message('note_on', channel=0, note=62, velocity=76, time=3),\n",
      "    Message('note_on', channel=0, note=59, velocity=77, time=2),\n",
      "    Message('note_on', channel=0, note=43, velocity=68, time=1),\n",
      "    Message('note_on', channel=0, note=55, velocity=0, time=151),\n",
      "    Message('note_on', channel=0, note=59, velocity=0, time=0),\n",
      "    Message('note_on', channel=0, note=62, velocity=0, time=0),\n",
      "    Message('note_on', channel=0, note=67, velocity=0, time=0),\n",
      "    Message('note_on', channel=0, note=67, velocity=82, time=5),\n",
      "    Message('note_on', channel=0, note=59, velocity=77, time=1),\n",
      "    Message('note_on', channel=0, note=62, velocity=73, time=1),\n",
      "    Message('note_on', channel=0, note=55, velocity=62, time=1),\n",
      "    Message('note_on', channel=0, note=60, velocity=89, time=220),\n",
      "    Message('note_on', channel=0, note=51, velocity=82, time=9),\n",
      "    Message('note_on', channel=0, note=42, velocity=90, time=5),\n",
      "    Message('note_on', channel=0, note=30, velocity=90, time=0),\n",
      "    Message('note_on', channel=0, note=43, velocity=0, time=39),\n",
      "    Message('note_on', channel=0, note=67, velocity=0, time=1),\n",
      "    Message('note_on', channel=0, note=62, velocity=0, time=1),\n",
      "    Message('note_on', channel=0, note=55, velocity=0, time=1),\n",
      "    Message('note_on', channel=0, note=59, velocity=0, time=1),\n",
      "    Message('note_on', channel=0, note=68, velocity=0, time=0),\n",
      "    Message('control_change', channel=0, control=64, value=0, time=2),\n",
      "    Message('note_on', channel=0, note=31, velocity=0, time=5),\n",
      "    Message('note_on', channel=0, note=50, velocity=0, time=0),\n",
      "    Message('control_change', channel=0, control=64, value=127, time=92),\n",
      "    Message('note_on', channel=0, note=42, velocity=0, time=307),\n",
      "    Message('note_on', channel=0, note=51, velocity=0, time=0),\n",
      "    Message('note_on', channel=0, note=51, velocity=69, time=5),\n",
      "    Message('note_on', channel=0, note=42, velocity=62, time=1),\n",
      "    Message('note_on', channel=0, note=51, velocity=0, time=409),\n",
      "    Message('note_on', channel=0, note=56, velocity=62, time=5),\n",
      "    Message('note_on', channel=0, note=51, velocity=58, time=6),\n",
      "    Message('note_on', channel=0, note=42, velocity=0, time=266),\n",
      "    Message('note_on', channel=0, note=51, velocity=0, time=0),\n",
      "    Message('note_on', channel=0, note=51, velocity=63, time=4),\n",
      "    Message('note_on', channel=0, note=42, velocity=63, time=2),\n",
      "    Message('note_on', channel=0, note=63, velocity=62, time=3),\n",
      "    Message('note_on', channel=0, note=51, velocity=0, time=275),\n",
      "    Message('note_on', channel=0, note=56, velocity=0, time=0),\n",
      "    Message('note_on', channel=0, note=63, velocity=0, time=0),\n",
      "    Message('note_on', channel=0, note=63, velocity=55, time=6),\n",
      "    Message('note_on', channel=0, note=56, velocity=55, time=0),\n",
      "    Message('note_on', channel=0, note=51, velocity=59, time=3),\n",
      "    Message('note_on', channel=0, note=42, velocity=0, time=283),\n",
      "    Message('note_on', channel=0, note=30, velocity=0, time=7),\n",
      "    Message('note_on', channel=0, note=42, velocity=70, time=3),\n",
      "    Message('note_on', channel=0, note=30, velocity=67, time=2),\n",
      "    Message('note_on', channel=0, note=29, velocity=81, time=320),\n",
      "    Message('note_on', channel=0, note=41, velocity=72, time=1),\n",
      "    Message('control_change', channel=0, control=64, value=0, time=12),\n",
      "    Message('note_on', channel=0, note=42, velocity=0, time=14),\n",
      "    Message('note_on', channel=0, note=51, velocity=0, time=1),\n",
      "    Message('note_on', channel=0, note=60, velocity=0, time=0),\n",
      "    Message('note_on', channel=0, note=63, velocity=0, time=2),\n",
      "    Message('note_on', channel=0, note=30, velocity=0, time=2),\n",
      "    Message('control_change', channel=0, control=64, value=127, time=73),\n",
      "    Message('note_on', channel=0, note=61, velocity=81, time=259),\n",
      "    Message('note_on', channel=0, note=49, velocity=61, time=103),\n",
      "    Message('note_on', channel=0, note=56, velocity=0, time=38),\n",
      "    Message('note_on', channel=0, note=56, velocity=59, time=4),\n",
      "    Message('note_on', channel=0, note=65, velocity=81, time=123),\n",
      "    Message('note_on', channel=0, note=41, velocity=0, time=149),\n",
      "    Message('note_on', channel=0, note=49, velocity=0, time=0),\n",
      "    Message('note_on', channel=0, note=49, velocity=63, time=5),\n",
      "    Message('note_on', channel=0, note=41, velocity=59, time=4),\n",
      "    Message('note_on', channel=0, note=68, velocity=86, time=87),\n",
      "    Message('note_on', channel=0, note=41, velocity=0, time=211),\n",
      "    Message('note_on', channel=0, note=49, velocity=0, time=0),\n",
      "    Message('note_on', channel=0, note=49, velocity=61, time=8),\n",
      "    Message('note_on', channel=0, note=73, velocity=85, time=1),\n",
      "    Message('note_on', channel=0, note=41, velocity=48, time=2),\n",
      "    Message('note_on', channel=0, note=73, velocity=0, time=243),\n",
      "    Message('note_on', channel=0, note=76, velocity=87, time=4),\n",
      "    Message('note_on', channel=0, note=73, velocity=72, time=7),\n",
      "    Message('note_on', channel=0, note=49, velocity=0, time=89),\n",
      "    Message('note_on', channel=0, note=56, velocity=0, time=0),\n",
      "    Message('note_on', channel=0, note=49, velocity=52, time=9),\n",
      "    Message('note_on', channel=0, note=56, velocity=48, time=1),\n",
      "    Message('note_on', channel=0, note=77, velocity=92, time=143),\n",
      "    Message('note_on', channel=0, note=29, velocity=0, time=192),\n",
      "    Message('note_on', channel=0, note=41, velocity=0, time=0),\n",
      "    Message('note_on', channel=0, note=41, velocity=52, time=11),\n",
      "    Message('note_on', channel=0, note=29, velocity=51, time=0),\n",
      "    Message('note_on', channel=0, note=80, velocity=86, time=89),\n",
      "    Message('note_on', channel=0, note=59, velocity=85, time=404),\n",
      "    Message('control_change', channel=0, control=64, value=0, time=4),\n",
      "    Message('note_on', channel=0, note=43, velocity=79, time=3),\n",
      "    Message('note_on', channel=0, note=31, velocity=78, time=1),\n",
      "    Message('note_on', channel=0, note=68, velocity=0, time=8),\n",
      "    Message('note_on', channel=0, note=77, velocity=0, time=0),\n",
      "    Message('note_on', channel=0, note=65, velocity=0, time=1),\n",
      "    Message('note_on', channel=0, note=73, velocity=0, time=0),\n",
      "    Message('note_on', channel=0, note=76, velocity=0, time=0),\n",
      "    Message('note_on', channel=0, note=29, velocity=0, time=1),\n",
      "    Message('note_on', channel=0, note=56, velocity=0, time=1),\n",
      "    Message('note_on', channel=0, note=55, velocity=65, time=0),\n",
      "    Message('note_on', channel=0, note=80, velocity=0, time=2),\n",
      "    Message('note_on', channel=0, note=49, velocity=0, time=0),\n",
      "    Message('note_on', channel=0, note=41, velocity=0, time=13),\n",
      "    Message('note_on', channel=0, note=61, velocity=0, time=15),\n",
      "    Message('control_change', channel=0, control=64, value=127, time=46),\n",
      "    Message('note_on', channel=0, note=31, velocity=0, time=323),\n",
      "    Message('note_on', channel=0, note=43, velocity=0, time=0),\n",
      "    Message('note_on', channel=0, note=55, velocity=0, time=0),\n",
      "    Message('note_on', channel=0, note=59, velocity=0, time=0),\n",
      "    Message('note_on', channel=0, note=43, velocity=60, time=5),\n",
      "    Message('note_on', channel=0, note=50, velocity=65, time=0),\n",
      "    Message('note_on', channel=0, note=31, velocity=63, time=0),\n",
      "    Message('note_on', channel=0, note=59, velocity=57, time=3),\n",
      "    Message('note_on', channel=0, note=55, velocity=54, time=2),\n",
      "    Message('note_on', channel=0, note=50, velocity=0, time=343),\n",
      "    Message('note_on', channel=0, note=59, velocity=0, time=8),\n",
      "    Message('note_on', channel=0, note=50, velocity=57, time=0),\n",
      "    Message('note_on', channel=0, note=53, velocity=66, time=3),\n",
      "    Message('note_on', channel=0, note=59, velocity=53, time=1),\n",
      "    Message('note_on', channel=0, note=56, velocity=76, time=280),\n",
      "    Message('note_on', channel=0, note=53, velocity=0, time=315),\n",
      "    Message('note_on', channel=0, note=56, velocity=0, time=0),\n",
      "    Message('note_on', channel=0, note=56, velocity=71, time=4),\n",
      "    Message('note_on', channel=0, note=53, velocity=51, time=3),\n",
      "    Message('note_on', channel=0, note=31, velocity=0, time=39),\n",
      "    Message('note_on', channel=0, note=53, velocity=0, time=284),\n",
      "    Message('note_on', channel=0, note=56, velocity=0, time=8),\n",
      "    Message('note_on', channel=0, note=53, velocity=53, time=4),\n",
      "    Message('note_on', channel=0, note=56, velocity=52, time=0),\n",
      "    Message('note_on', channel=0, note=43, velocity=0, time=395),\n",
      "    Message('note_on', channel=0, note=31, velocity=70, time=12),\n",
      "    Message('note_on', channel=0, note=43, velocity=68, time=0),\n",
      "    Message('control_change', channel=0, control=64, value=0, time=21),\n",
      "    Message('note_on', channel=0, note=50, velocity=0, time=5),\n",
      "    Message('note_on', channel=0, note=56, velocity=0, time=2),\n",
      "    Message('control_change', channel=0, control=64, value=127, time=91),\n",
      "    Message('note_on', channel=0, note=31, velocity=0, time=146),\n",
      "    Message('note_on', channel=0, note=55, velocity=0, time=123),\n",
      "    Message('note_on', channel=0, note=68, velocity=68, time=164),\n",
      "    Message('note_on', channel=0, note=43, velocity=0, time=35),\n",
      "    Message('note_on', channel=0, note=50, velocity=51, time=6),\n",
      "    Message('note_on', channel=0, note=43, velocity=45, time=2),\n",
      "    Message('note_on', channel=0, note=67, velocity=66, time=325),\n",
      "    Message('note_on', channel=0, note=50, velocity=0, time=136),\n",
      "    Message('note_on', channel=0, note=50, velocity=44, time=11),\n",
      "    Message('note_on', channel=0, note=62, velocity=43, time=2),\n",
      "    Message('note_on', channel=0, note=53, velocity=0, time=2),\n",
      "    Message('note_on', channel=0, note=53, velocity=46, time=4),\n",
      "    Message('note_on', channel=0, note=62, velocity=0, time=4),\n",
      "    Message('note_on', channel=0, note=66, velocity=63, time=150),\n",
      "    Message('note_on', channel=0, note=53, velocity=0, time=272),\n",
      "    Message('note_on', channel=0, note=59, velocity=0, time=0),\n",
      "    Message('note_on', channel=0, note=65, velocity=62, time=3),\n",
      "    Message('note_on', channel=0, note=59, velocity=56, time=1),\n",
      "    Message('note_on', channel=0, note=50, velocity=0, time=4),\n",
      "    Message('note_on', channel=0, note=53, velocity=49, time=3),\n",
      "    Message('note_on', channel=0, note=50, velocity=39, time=7),\n",
      "    Message('control_change', channel=0, control=64, value=0, time=25),\n",
      "    Message('note_on', channel=0, note=67, velocity=0, time=0),\n",
      "    Message('note_on', channel=0, note=66, velocity=0, time=0),\n",
      "    Message('note_on', channel=0, note=68, velocity=0, time=1),\n",
      "    Message('control_change', channel=0, control=64, value=127, time=87),\n",
      "    Message('note_on', channel=0, note=55, velocity=67, time=302),\n",
      "    Message('note_on', channel=0, note=53, velocity=0, time=105),\n",
      "    Message('note_on', channel=0, note=53, velocity=34, time=4),\n",
      "    Message('note_on', channel=0, note=59, velocity=0, time=65),\n",
      "    Message('note_on', channel=0, note=59, velocity=50, time=6),\n",
      "    Message('note_on', channel=0, note=65, velocity=0, time=163),\n",
      "    Message('note_on', channel=0, note=65, velocity=72, time=4),\n",
      "    Message('note_on', channel=0, note=53, velocity=0, time=242),\n",
      "    Message('note_on', channel=0, note=59, velocity=0, time=0),\n",
      "    Message('note_on', channel=0, note=59, velocity=51, time=8),\n",
      "    Message('note_on', channel=0, note=53, velocity=38, time=2),\n",
      "    Message('note_on', channel=0, note=63, velocity=68, time=188),\n",
      "    Message('note_on', channel=0, note=60, velocity=69, time=495),\n",
      "    Message('note_on', channel=0, note=24, velocity=38, time=3),\n",
      "    Message('note_on', channel=0, note=36, velocity=35, time=6),\n",
      "    Message('control_change', channel=0, control=64, value=0, time=17),\n",
      "    Message('note_on', channel=0, note=65, velocity=0, time=0),\n",
      "    Message('note_on', channel=0, note=59, velocity=0, time=2),\n",
      "    Message('note_on', channel=0, note=53, velocity=0, time=0),\n",
      "    Message('note_on', channel=0, note=55, velocity=0, time=0),\n",
      "    Message('note_on', channel=0, note=63, velocity=0, time=13),\n",
      "    Message('note_on', channel=0, note=43, velocity=0, time=3),\n",
      "    Message('note_on', channel=0, note=50, velocity=0, time=0),\n",
      "    Message('control_change', channel=0, control=64, value=127, time=146),\n",
      "    Message('note_on', channel=0, note=24, velocity=0, time=61),\n",
      "    Message('note_on', channel=0, note=43, velocity=49, time=342),\n",
      "    Message('note_on', channel=0, note=51, velocity=49, time=508),\n",
      "    Message('note_on', channel=0, note=51, velocity=0, time=387),\n",
      "    Message('note_on', channel=0, note=55, velocity=45, time=7),\n",
      "    Message('note_on', channel=0, note=51, velocity=39, time=3),\n",
      "    Message('note_on', channel=0, note=55, velocity=0, time=404),\n",
      "    Message('note_on', channel=0, note=55, velocity=34, time=11),\n",
      "    Message('note_on', channel=0, note=51, velocity=0, time=12),\n",
      "    Message('note_on', channel=0, note=51, velocity=35, time=8),\n",
      "    Message('note_on', channel=0, note=31, velocity=46, time=390),\n",
      "    Message('control_change', channel=0, control=64, value=0, time=109),\n",
      "    Message('note_on', channel=0, note=36, velocity=0, time=377),\n",
      "    Message('note_on', channel=0, note=36, velocity=32, time=4),\n",
      "    Message('note_on', channel=0, note=31, velocity=0, time=28),\n",
      "    Message('note_on', channel=0, note=51, velocity=0, time=5),\n",
      "    Message('note_on', channel=0, note=43, velocity=0, time=24),\n",
      "    Message('control_change', channel=0, control=64, value=127, time=315),\n",
      "    Message('note_on', channel=0, note=43, velocity=29, time=212),\n",
      "    Message('note_on', channel=0, note=51, velocity=34, time=436),\n",
      "    Message('note_on', channel=0, note=55, velocity=0, time=496),\n",
      "    Message('note_on', channel=0, note=55, velocity=25, time=7),\n",
      "    Message('note_on', channel=0, note=51, velocity=0, time=1),\n",
      "    Message('note_on', channel=0, note=51, velocity=23, time=11),\n",
      "    Message('note_on', channel=0, note=60, velocity=0, time=258),\n",
      "    Message('note_on', channel=0, note=51, velocity=0, time=269),\n",
      "    Message('note_on', channel=0, note=55, velocity=0, time=0),\n",
      "    Message('note_on', channel=0, note=55, velocity=21, time=10),\n",
      "    Message('note_on', channel=0, note=51, velocity=24, time=1),\n",
      "    Message('note_on', channel=0, note=31, velocity=37, time=602),\n",
      "    Message('note_on', channel=0, note=36, velocity=0, time=961),\n",
      "    Message('note_on', channel=0, note=36, velocity=27, time=5),\n",
      "    Message('note_on', channel=0, note=24, velocity=32, time=1),\n",
      "    Message('control_change', channel=0, control=64, value=0, time=10),\n",
      "    Message('note_on', channel=0, note=31, velocity=0, time=10),\n",
      "    Message('note_on', channel=0, note=51, velocity=0, time=3),\n",
      "    Message('note_on', channel=0, note=55, velocity=0, time=0),\n",
      "    Message('note_on', channel=0, note=43, velocity=0, time=25),\n",
      "    Message('control_change', channel=0, control=64, value=127, time=84),\n",
      "    Message('note_on', channel=0, note=55, velocity=37, time=727),\n",
      "    Message('note_on', channel=0, note=60, velocity=54, time=406),\n",
      "    Message('note_on', channel=0, note=62, velocity=65, time=318),\n",
      "    Message('control_change', channel=0, control=64, value=0, time=13),\n",
      "    Message('note_on', channel=0, note=36, velocity=0, time=19),\n",
      "    Message('note_on', channel=0, note=55, velocity=0, time=2),\n",
      "    Message('note_on', channel=0, note=60, velocity=0, time=1),\n",
      "    Message('note_on', channel=0, note=24, velocity=0, time=12),\n",
      "    Message('note_on', channel=0, note=63, velocity=57, time=251),\n",
      "    Message('note_on', channel=0, note=62, velocity=0, time=80),\n",
      "    Message('note_on', channel=0, note=66, velocity=56, time=222),\n",
      "    Message('note_on', channel=0, note=63, velocity=0, time=42),\n",
      "    Message('note_on', channel=0, note=68, velocity=55, time=253),\n",
      "    Message('note_on', channel=0, note=66, velocity=0, time=37),\n",
      "    Message('note_on', channel=0, note=67, velocity=48, time=288),\n",
      "    Message('note_on', channel=0, note=68, velocity=0, time=37),\n",
      "    Message('note_on', channel=0, note=71, velocity=53, time=275),\n",
      "    Message('note_on', channel=0, note=67, velocity=0, time=64),\n",
      "    Message('note_on', channel=0, note=74, velocity=49, time=283),\n",
      "    Message('note_on', channel=0, note=71, velocity=0, time=53),\n",
      "    Message('note_on', channel=0, note=72, velocity=52, time=277),\n",
      "    Message('note_on', channel=0, note=74, velocity=0, time=11),\n",
      "    Message('control_change', channel=0, control=64, value=127, time=231),\n",
      "    Message('note_on', channel=0, note=75, velocity=55, time=132),\n",
      "    Message('control_change', channel=0, control=64, value=0, time=190),\n",
      "    Message('note_on', channel=0, note=78, velocity=52, time=172),\n",
      "    Message('note_on', channel=0, note=75, velocity=0, time=59),\n",
      "    Message('note_on', channel=0, note=79, velocity=48, time=324),\n",
      "    Message('note_on', channel=0, note=72, velocity=0, time=90),\n",
      "    Message('control_change', channel=0, control=64, value=127, time=116),\n",
      "    Message('note_on', channel=0, note=78, velocity=0, time=92),\n",
      "    Message('control_change', channel=0, control=64, value=0, time=7),\n",
      "    Message('note_on', channel=0, note=82, velocity=52, time=68),\n",
      "    Message('note_on', channel=0, note=79, velocity=0, time=44),\n",
      "    Message('note_on', channel=0, note=80, velocity=41, time=16),\n",
      "    Message('control_change', channel=0, control=64, value=127, time=249),\n",
      "    Message('control_change', channel=0, control=64, value=0, time=53),\n",
      "    Message('control_change', channel=0, control=64, value=127, time=85),\n",
      "    Message('note_on', channel=0, note=79, velocity=45, time=93),\n",
      "    Message('control_change', channel=0, control=64, value=0, time=38),\n",
      "    Message('note_on', channel=0, note=82, velocity=0, time=15),\n",
      "    Message('control_change', channel=0, control=64, value=127, time=100),\n",
      "    Message('note_on', channel=0, note=80, velocity=0, time=38),\n",
      "    Message('control_change', channel=0, control=64, value=0, time=92),\n",
      "    Message('note_on', channel=0, note=84, velocity=45, time=342),\n",
      "    Message('note_on', channel=0, note=79, velocity=0, time=38),\n",
      "    Message('control_change', channel=0, control=64, value=127, time=204),\n",
      "    Message('note_on', channel=0, note=63, velocity=30, time=2173),\n",
      "    Message('note_on', channel=0, note=51, velocity=27, time=1),\n",
      "    Message('note_on', channel=0, note=60, velocity=20, time=2),\n",
      "    Message('note_on', channel=0, note=48, velocity=21, time=6),\n",
      "    Message('note_on', channel=0, note=36, velocity=21, time=1),\n",
      "    Message('note_on', channel=0, note=55, velocity=17, time=6),\n",
      "    Message('note_on', channel=0, note=84, velocity=0, time=1037),\n",
      "    Message('note_on', channel=0, note=60, velocity=0, time=675),\n",
      "    Message('note_on', channel=0, note=63, velocity=0, time=0),\n",
      "    Message('note_on', channel=0, note=55, velocity=0, time=8),\n",
      "    Message('note_on', channel=0, note=63, velocity=29, time=2),\n",
      "    Message('note_on', channel=0, note=60, velocity=22, time=1),\n",
      "    Message('note_on', channel=0, note=36, velocity=0, time=5),\n",
      "    Message('note_on', channel=0, note=48, velocity=0, time=0),\n",
      "    Message('note_on', channel=0, note=55, velocity=17, time=3),\n",
      "    Message('note_on', channel=0, note=36, velocity=15, time=2),\n",
      "    Message('note_on', channel=0, note=48, velocity=15, time=1),\n",
      "    Message('note_on', channel=0, note=51, velocity=0, time=1),\n",
      "    Message('note_on', channel=0, note=51, velocity=18, time=6),\n",
      "    Message('note_on', channel=0, note=60, velocity=0, time=2222),\n",
      "    Message('note_on', channel=0, note=60, velocity=18, time=7),\n",
      "    Message('note_on', channel=0, note=63, velocity=0, time=0),\n",
      "    Message('note_on', channel=0, note=51, velocity=0, time=8),\n",
      "    Message('note_on', channel=0, note=63, velocity=27, time=0),\n",
      "    Message('note_on', channel=0, note=55, velocity=0, time=8),\n",
      "    Message('note_on', channel=0, note=51, velocity=22, time=1),\n",
      "    Message('note_on', channel=0, note=55, velocity=18, time=3),\n",
      "    Message('note_on', channel=0, note=36, velocity=0, time=11),\n",
      "    Message('note_on', channel=0, note=48, velocity=0, time=0),\n",
      "    Message('note_on', channel=0, note=43, velocity=18, time=3),\n",
      "    Message('note_on', channel=0, note=48, velocity=14, time=1),\n",
      "    Message('note_on', channel=0, note=36, velocity=19, time=1),\n",
      "    Message('note_on', channel=0, note=60, velocity=0, time=4572),\n",
      "    Message('note_on', channel=0, note=63, velocity=0, time=8),\n",
      "    Message('note_on', channel=0, note=51, velocity=0, time=8),\n",
      "    Message('note_on', channel=0, note=55, velocity=0, time=7),\n",
      "    Message('note_on', channel=0, note=43, velocity=0, time=8),\n",
      "    Message('note_on', channel=0, note=36, velocity=0, time=8),\n",
      "    Message('note_on', channel=0, note=48, velocity=0, time=0),\n",
      "    Message('control_change', channel=0, control=64, value=0, time=238),\n",
      "    MetaMessage('end_of_track', time=1)])\n",
      "])\n"
     ]
    }
   ],
   "source": [
    "print(midi_file)"
   ]
  },
  {
   "cell_type": "code",
   "execution_count": 60,
   "metadata": {},
   "outputs": [
    {
     "name": "stdout",
     "output_type": "stream",
     "text": [
      "MidiFile(type=1, ticks_per_beat=480, tracks=[\n",
      "  MidiTrack([\n",
      "    MetaMessage('set_tempo', tempo=500000, time=0),\n",
      "    MetaMessage('time_signature', numerator=4, denominator=4, clocks_per_click=24, notated_32nd_notes_per_beat=8, time=0),\n",
      "    MetaMessage('end_of_track', time=1)]),\n",
      "  MidiTrack([\n",
      "    Message('control_change', channel=0, control=64, value=127, time=1128),\n",
      "    Message('control_change', channel=0, control=64, value=0, time=1644),\n",
      "    Message('control_change', channel=0, control=64, value=127, time=115),\n",
      "    Message('control_change', channel=0, control=64, value=0, time=16),\n",
      "    Message('note_on', channel=0, note=48, velocity=47, time=49),\n",
      "    Message('note_on', channel=0, note=36, velocity=36, time=8),\n",
      "    Message('control_change', channel=0, control=64, value=127, time=27),\n",
      "    Message('note_on', channel=0, note=79, velocity=67, time=800),\n",
      "    Message('note_on', channel=0, note=63, velocity=39, time=26),\n",
      "    Message('note_on', channel=0, note=55, velocity=33, time=0),\n",
      "    Message('note_on', channel=0, note=67, velocity=34, time=0),\n",
      "    Message('note_on', channel=0, note=67, velocity=0, time=728),\n",
      "    Message('note_on', channel=0, note=63, velocity=0, time=1),\n",
      "    Message('control_change', channel=0, control=64, value=0, time=0),\n",
      "    Message('note_on', channel=0, note=55, velocity=0, time=0),\n",
      "    Message('note_on', channel=0, note=48, velocity=0, time=12),\n",
      "    Message('note_on', channel=0, note=36, velocity=0, time=7),\n",
      "    Message('note_on', channel=0, note=48, velocity=43, time=4),\n",
      "    Message('note_on', channel=0, note=36, velocity=37, time=3),\n",
      "    Message('control_change', channel=0, control=64, value=127, time=63),\n",
      "    Message('note_on', channel=0, note=79, velocity=0, time=698),\n",
      "    Message('note_on', channel=0, note=80, velocity=77, time=118),\n",
      "    Message('note_on', channel=0, note=63, velocity=41, time=23),\n",
      "    Message('note_on', channel=0, note=68, velocity=45, time=0),\n",
      "    Message('note_on', channel=0, note=56, velocity=40, time=2),\n",
      "    Message('note_on', channel=0, note=36, velocity=0, time=288),\n",
      "    Message('note_on', channel=0, note=47, velocity=35, time=625),\n",
      "    Message('note_on', channel=0, note=35, velocity=36, time=6),\n",
      "    Message('control_change', channel=0, control=64, value=0, time=31),\n",
      "    Message('note_on', channel=0, note=48, velocity=0, time=1),\n",
      "    Message('note_on', channel=0, note=63, velocity=0, time=1),\n",
      "    Message('note_on', channel=0, note=56, velocity=0, time=0),\n",
      "    Message('note_on', channel=0, note=68, velocity=0, time=1),\n",
      "    Message('note_on', channel=0, note=80, velocity=0, time=0),\n",
      "    Message('control_change', channel=0, control=64, value=127, time=179),\n",
      "    Message('note_on', channel=0, note=35, velocity=0, time=100),\n",
      "    Message('note_on', channel=0, note=79, velocity=64, time=264),\n",
      "    Message('note_on', channel=0, note=65, velocity=32, time=362),\n",
      "    Message('note_on', channel=0, note=67, velocity=40, time=2),\n",
      "    Message('note_on', channel=0, note=55, velocity=26, time=8),\n",
      "    Message('note_on', channel=0, note=74, velocity=58, time=612),\n",
      "    Message('note_on', channel=0, note=48, velocity=33, time=237),\n",
      "    Message('note_on', channel=0, note=67, velocity=0, time=5),\n",
      "    Message('note_on', channel=0, note=36, velocity=31, time=3),\n",
      "    Message('note_on', channel=0, note=67, velocity=27, time=1),\n",
      "    Message('control_change', channel=0, control=64, value=0, time=8),\n",
      "    Message('note_on', channel=0, note=65, velocity=0, time=0),\n",
      "    Message('note_on', channel=0, note=55, velocity=0, time=0),\n",
      "    Message('note_on', channel=0, note=47, velocity=0, time=0),\n",
      "    Message('note_on', channel=0, note=79, velocity=0, time=0),\n",
      "    Message('control_change', channel=0, control=64, value=127, time=103),\n",
      "    Message('note_on', channel=0, note=75, velocity=71, time=177),\n",
      "    Message('note_on', channel=0, note=77, velocity=74, time=179),\n",
      "    Message('note_on', channel=0, note=75, velocity=0, time=136),\n",
      "    Message('note_on', channel=0, note=75, velocity=79, time=10),\n",
      "    Message('note_on', channel=0, note=74, velocity=0, time=136),\n",
      "    Message('note_on', channel=0, note=74, velocity=74, time=9),\n",
      "    Message('note_on', channel=0, note=60, velocity=36, time=24),\n",
      "    Message('note_on', channel=0, note=55, velocity=36, time=2),\n",
      "    Message('note_on', channel=0, note=63, velocity=44, time=1),\n",
      "    Message('note_on', channel=0, note=75, velocity=0, time=110),\n",
      "    Message('note_on', channel=0, note=75, velocity=77, time=11),\n",
      "    Message('note_on', channel=0, note=77, velocity=0, time=135),\n",
      "    Message('note_on', channel=0, note=77, velocity=72, time=6),\n",
      "    Message('note_on', channel=0, note=79, velocity=75, time=154),\n",
      "    Message('control_change', channel=0, control=64, value=0, time=133),\n",
      "    Message('note_on', channel=0, note=74, velocity=0, time=2),\n",
      "    Message('note_on', channel=0, note=60, velocity=0, time=0),\n",
      "    Message('note_on', channel=0, note=63, velocity=0, time=1),\n",
      "    Message('note_on', channel=0, note=77, velocity=0, time=0),\n",
      "    Message('note_on', channel=0, note=48, velocity=0, time=0),\n",
      "    Message('note_on', channel=0, note=55, velocity=0, time=0),\n",
      "    Message('note_on', channel=0, note=79, velocity=0, time=2),\n",
      "    Message('note_on', channel=0, note=36, velocity=0, time=9),\n",
      "    Message('note_on', channel=0, note=67, velocity=0, time=0),\n",
      "    Message('note_on', channel=0, note=72, velocity=68, time=13),\n",
      "    Message('note_on', channel=0, note=75, velocity=0, time=2),\n",
      "    Message('note_on', channel=0, note=44, velocity=36, time=31),\n",
      "    Message('note_on', channel=0, note=32, velocity=31, time=3),\n",
      "    Message('control_change', channel=0, control=64, value=127, time=112),\n",
      "    Message('note_on', channel=0, note=72, velocity=0, time=568),\n",
      "    Message('note_on', channel=0, note=72, velocity=58, time=5),\n",
      "    Message('note_on', channel=0, note=63, velocity=35, time=15),\n",
      "    Message('note_on', channel=0, note=68, velocity=40, time=5),\n",
      "    Message('note_on', channel=0, note=60, velocity=28, time=3),\n",
      "    Message('note_on', channel=0, note=72, velocity=0, time=579),\n",
      "    Message('note_on', channel=0, note=72, velocity=64, time=4),\n",
      "    Message('note_on', channel=0, note=44, velocity=0, time=150),\n",
      "    Message('control_change', channel=0, control=64, value=0, time=1),\n",
      "    Message('note_on', channel=0, note=68, velocity=0, time=0),\n",
      "    Message('note_on', channel=0, note=60, velocity=0, time=1),\n",
      "    Message('note_on', channel=0, note=63, velocity=0, time=1),\n",
      "    Message('note_on', channel=0, note=72, velocity=0, time=0),\n",
      "    Message('note_on', channel=0, note=32, velocity=0, time=4),\n",
      "    Message('note_on', channel=0, note=74, velocity=57, time=3),\n",
      "    Message('note_on', channel=0, note=29, velocity=34, time=5),\n",
      "    Message('note_on', channel=0, note=41, velocity=27, time=3),\n",
      "    Message('control_change', channel=0, control=64, value=127, time=128),\n",
      "    Message('note_on', channel=0, note=72, velocity=53, time=545),\n",
      "    Message('note_on', channel=0, note=62, velocity=34, time=27),\n",
      "    Message('note_on', channel=0, note=60, velocity=31, time=4),\n",
      "    Message('note_on', channel=0, note=41, velocity=0, time=7),\n",
      "    Message('note_on', channel=0, note=41, velocity=21, time=9),\n",
      "    Message('note_on', channel=0, note=68, velocity=54, time=721),\n",
      "    Message('note_on', channel=0, note=60, velocity=0, time=185),\n",
      "    Message('note_on', channel=0, note=29, velocity=0, time=1),\n",
      "    Message('note_on', channel=0, note=74, velocity=0, time=1),\n",
      "    Message('note_on', channel=0, note=62, velocity=0, time=0),\n",
      "    Message('note_on', channel=0, note=72, velocity=0, time=0),\n",
      "    Message('note_on', channel=0, note=41, velocity=0, time=0),\n",
      "    Message('note_on', channel=0, note=68, velocity=0, time=1),\n",
      "    Message('control_change', channel=0, control=64, value=0, time=8),\n",
      "    Message('note_on', channel=0, note=67, velocity=49, time=2),\n",
      "    Message('note_on', channel=0, note=43, velocity=28, time=12),\n",
      "    Message('note_on', channel=0, note=31, velocity=30, time=1),\n",
      "    Message('control_change', channel=0, control=64, value=127, time=219),\n",
      "    Message('note_on', channel=0, note=31, velocity=0, time=146),\n",
      "    Message('note_on', channel=0, note=59, velocity=35, time=622),\n",
      "    Message('note_on', channel=0, note=53, velocity=13, time=32),\n",
      "    Message('note_on', channel=0, note=70, velocity=43, time=356),\n",
      "    Message('note_on', channel=0, note=68, velocity=40, time=62),\n",
      "    Message('note_on', channel=0, note=67, velocity=0, time=218),\n",
      "    Message('note_on', channel=0, note=67, velocity=48, time=11),\n",
      "    Message('note_on', channel=0, note=62, velocity=46, time=212),\n",
      "    Message('note_on', channel=0, note=63, velocity=45, time=207),\n",
      "    Message('note_on', channel=0, note=36, velocity=24, time=7),\n",
      "    Message('note_on', channel=0, note=24, velocity=25, time=2),\n",
      "    Message('note_on', channel=0, note=24, velocity=0, time=7),\n",
      "    Message('control_change', channel=0, control=64, value=0, time=4),\n",
      "    Message('note_on', channel=0, note=53, velocity=0, time=7),\n",
      "    Message('note_on', channel=0, note=68, velocity=0, time=0),\n",
      "    Message('note_on', channel=0, note=67, velocity=0, time=0),\n",
      "    Message('note_on', channel=0, note=59, velocity=0, time=0),\n",
      "    Message('note_on', channel=0, note=43, velocity=0, time=0),\n",
      "    Message('note_on', channel=0, note=62, velocity=0, time=4),\n",
      "    Message('control_change', channel=0, control=64, value=127, time=269),\n",
      "    Message('note_on', channel=0, note=60, velocity=36, time=28),\n",
      "    Message('note_on', channel=0, note=55, velocity=23, time=605),\n",
      "    Message('note_on', channel=0, note=51, velocity=28, time=17),\n",
      "    Message('control_change', channel=0, control=64, value=0, time=891),\n",
      "    Message('note_on', channel=0, note=39, velocity=48, time=4),\n",
      "    Message('note_on', channel=0, note=27, velocity=59, time=1),\n",
      "    Message('note_on', channel=0, note=63, velocity=0, time=2),\n",
      "    Message('note_on', channel=0, note=60, velocity=0, time=4),\n",
      "    Message('note_on', channel=0, note=55, velocity=0, time=1),\n",
      "    Message('note_on', channel=0, note=36, velocity=0, time=4),\n",
      "    Message('control_change', channel=0, control=64, value=127, time=17),\n",
      "    Message('note_on', channel=0, note=70, velocity=0, time=115),\n",
      "    Message('note_on', channel=0, note=27, velocity=0, time=284),\n",
      "    Message('note_on', channel=0, note=79, velocity=73, time=381),\n",
      "    Message('note_on', channel=0, note=55, velocity=37, time=9),\n",
      "    Message('note_on', channel=0, note=67, velocity=46, time=2),\n",
      "    Message('note_on', channel=0, note=51, velocity=0, time=0),\n",
      "    Message('note_on', channel=0, note=63, velocity=40, time=4),\n",
      "    Message('note_on', channel=0, note=51, velocity=39, time=4),\n",
      "    Message('note_on', channel=0, note=70, velocity=46, time=6),\n",
      "    Message('note_on', channel=0, note=58, velocity=42, time=1),\n",
      "    Message('note_on', channel=0, note=44, velocity=51, time=887),\n",
      "    Message('note_on', channel=0, note=32, velocity=45, time=3),\n",
      "    Message('control_change', channel=0, control=64, value=0, time=35),\n",
      "    Message('note_on', channel=0, note=63, velocity=0, time=2),\n",
      "    Message('note_on', channel=0, note=58, velocity=0, time=0),\n",
      "    Message('note_on', channel=0, note=70, velocity=0, time=0),\n",
      "    Message('note_on', channel=0, note=51, velocity=0, time=2),\n",
      "    Message('note_on', channel=0, note=55, velocity=0, time=0),\n",
      "    Message('note_on', channel=0, note=79, velocity=0, time=1),\n",
      "    Message('note_on', channel=0, note=67, velocity=0, time=0),\n",
      "    Message('note_on', channel=0, note=39, velocity=0, time=0),\n",
      "    Message('control_change', channel=0, control=64, value=127, time=153),\n",
      "    Message('note_on', channel=0, note=32, velocity=0, time=131),\n",
      "    Message('note_on', channel=0, note=80, velocity=78, time=432),\n",
      "    Message('note_on', channel=0, note=63, velocity=44, time=8),\n",
      "    Message('note_on', channel=0, note=60, velocity=41, time=17),\n",
      "    Message('note_on', channel=0, note=53, velocity=32, time=3),\n",
      "    Message('note_on', channel=0, note=34, velocity=48, time=728),\n",
      "    Message('note_on', channel=0, note=46, velocity=44, time=2),\n",
      "    Message('note_on', channel=0, note=44, velocity=0, time=42),\n",
      "    Message('note_on', channel=0, note=60, velocity=0, time=0),\n",
      "    Message('note_on', channel=0, note=63, velocity=0, time=0),\n",
      "    Message('note_on', channel=0, note=53, velocity=0, time=0),\n",
      "    Message('control_change', channel=0, control=64, value=0, time=9),\n",
      "    Message('control_change', channel=0, control=64, value=127, time=72),\n",
      "    Message('note_on', channel=0, note=34, velocity=0, time=100),\n",
      "    Message('note_on', channel=0, note=79, velocity=77, time=326),\n",
      "    Message('note_on', channel=0, note=68, velocity=53, time=307),\n",
      "    Message('note_on', channel=0, note=62, velocity=45, time=8),\n",
      "    Message('note_on', channel=0, note=70, velocity=44, time=1),\n",
      "    Message('note_on', channel=0, note=58, velocity=44, time=4),\n",
      "    Message('note_on', channel=0, note=70, velocity=0, time=7),\n",
      "    Message('note_on', channel=0, note=80, velocity=0, time=369),\n",
      "    Message('note_on', channel=0, note=77, velocity=72, time=135),\n",
      "    Message('note_on', channel=0, note=35, velocity=40, time=172),\n",
      "    Message('note_on', channel=0, note=47, velocity=37, time=11),\n",
      "    Message('note_on', channel=0, note=48, velocity=50, time=223),\n",
      "    Message('note_on', channel=0, note=36, velocity=42, time=3),\n",
      "    Message('control_change', channel=0, control=64, value=0, time=13),\n",
      "    Message('note_on', channel=0, note=47, velocity=0, time=8),\n",
      "    Message('note_on', channel=0, note=79, velocity=0, time=0),\n",
      "    Message('note_on', channel=0, note=46, velocity=0, time=0),\n",
      "    Message('note_on', channel=0, note=68, velocity=0, time=0),\n",
      "    Message('note_on', channel=0, note=58, velocity=0, time=0),\n",
      "    Message('note_on', channel=0, note=62, velocity=0, time=1),\n",
      "    Message('note_on', channel=0, note=35, velocity=0, time=1),\n",
      "    Message('note_on', channel=0, note=77, velocity=0, time=0),\n",
      "    Message('control_change', channel=0, control=64, value=127, time=124),\n",
      "    Message('note_on', channel=0, note=75, velocity=80, time=103),\n",
      "    Message('note_on', channel=0, note=77, velocity=81, time=154),\n",
      "    Message('note_on', channel=0, note=75, velocity=0, time=119),\n",
      "    Message('note_on', channel=0, note=75, velocity=78, time=5),\n",
      "    Message('note_on', channel=0, note=77, velocity=0, time=26),\n",
      "    Message('note_on', channel=0, note=77, velocity=63, time=4),\n",
      "    Message('note_on', channel=0, note=75, velocity=0, time=50),\n",
      "    Message('note_on', channel=0, note=75, velocity=82, time=11),\n",
      "    Message('note_on', channel=0, note=74, velocity=78, time=138),\n",
      "    Message('note_on', channel=0, note=55, velocity=42, time=10),\n",
      "    Message('note_on', channel=0, note=57, velocity=41, time=6),\n",
      "    Message('note_on', channel=0, note=63, velocity=45, time=3),\n",
      "    Message('note_on', channel=0, note=55, velocity=0, time=0),\n",
      "    Message('control_change', channel=0, control=64, value=0, time=20),\n",
      "    Message('control_change', channel=0, control=64, value=127, time=11),\n",
      "    Message('note_on', channel=0, note=75, velocity=0, time=123),\n",
      "    Message('note_on', channel=0, note=75, velocity=86, time=9),\n",
      "    Message('note_on', channel=0, note=77, velocity=0, time=145),\n",
      "    Message('note_on', channel=0, note=77, velocity=82, time=6),\n",
      "    Message('note_on', channel=0, note=79, velocity=85, time=157),\n",
      "    Message('control_change', channel=0, control=64, value=0, time=125),\n",
      "    Message('note_on', channel=0, note=36, velocity=0, time=4),\n",
      "    Message('note_on', channel=0, note=57, velocity=0, time=0),\n",
      "    Message('note_on', channel=0, note=77, velocity=0, time=1),\n",
      "    Message('note_on', channel=0, note=75, velocity=0, time=0),\n",
      "    Message('note_on', channel=0, note=48, velocity=0, time=0),\n",
      "    Message('note_on', channel=0, note=63, velocity=0, time=1),\n",
      "    Message('note_on', channel=0, note=74, velocity=0, time=21),\n",
      "    Message('note_on', channel=0, note=74, velocity=84, time=3),\n",
      "    Message('note_on', channel=0, note=50, velocity=39, time=5),\n",
      "    Message('note_on', channel=0, note=38, velocity=41, time=3),\n",
      "    Message('note_on', channel=0, note=79, velocity=0, time=37),\n",
      "    Message('control_change', channel=0, control=64, value=127, time=151),\n",
      "    Message('note_on', channel=0, note=62, velocity=81, time=299),\n",
      "    Message('note_on', channel=0, note=67, velocity=52, time=475),\n",
      "    Message('note_on', channel=0, note=58, velocity=49, time=17),\n",
      "    Message('note_on', channel=0, note=70, velocity=48, time=4),\n",
      "    Message('note_on', channel=0, note=67, velocity=0, time=242),\n",
      "    Message('note_on', channel=0, note=67, velocity=71, time=11),\n",
      "    Message('note_on', channel=0, note=72, velocity=79, time=196),\n",
      "    Message('note_on', channel=0, note=74, velocity=0, time=162),\n",
      "    Message('note_on', channel=0, note=74, velocity=82, time=11),\n",
      "    Message('note_on', channel=0, note=58, velocity=0, time=178),\n",
      "    Message('note_on', channel=0, note=62, velocity=0, time=0),\n",
      "    Message('note_on', channel=0, note=70, velocity=0, time=0),\n",
      "    Message('note_on', channel=0, note=50, velocity=0, time=0),\n",
      "    Message('note_on', channel=0, note=72, velocity=0, time=1),\n",
      "    Message('note_on', channel=0, note=67, velocity=0, time=1),\n",
      "    Message('control_change', channel=0, control=64, value=0, time=1),\n",
      "    Message('note_on', channel=0, note=74, velocity=0, time=0),\n",
      "    Message('note_on', channel=0, note=75, velocity=77, time=19),\n",
      "    Message('note_on', channel=0, note=38, velocity=0, time=27),\n",
      "    Message('note_on', channel=0, note=26, velocity=31, time=1),\n",
      "    Message('note_on', channel=0, note=38, velocity=29, time=5),\n",
      "    Message('control_change', channel=0, control=64, value=127, time=155),\n",
      "    Message('note_on', channel=0, note=26, velocity=0, time=630),\n",
      "    Message('note_on', channel=0, note=60, velocity=37, time=18),\n",
      "    Message('note_on', channel=0, note=57, velocity=35, time=0),\n",
      "    Message('note_on', channel=0, note=66, velocity=51, time=791),\n",
      "    Message('note_on', channel=0, note=66, velocity=0, time=205),\n",
      "    Message('note_on', channel=0, note=66, velocity=49, time=7),\n",
      "    Message('note_on', channel=0, note=43, velocity=27, time=26),\n",
      "    Message('note_on', channel=0, note=31, velocity=28, time=1),\n",
      "    Message('note_on', channel=0, note=43, velocity=0, time=4),\n",
      "    Message('control_change', channel=0, control=64, value=0, time=4),\n",
      "    Message('note_on', channel=0, note=38, velocity=0, time=7),\n",
      "    Message('note_on', channel=0, note=57, velocity=0, time=0),\n",
      "    Message('note_on', channel=0, note=60, velocity=0, time=1),\n",
      "    Message('note_on', channel=0, note=75, velocity=0, time=2),\n",
      "    Message('control_change', channel=0, control=64, value=127, time=216),\n",
      "    Message('control_change', channel=0, control=64, value=0, time=39),\n",
      "    Message('control_change', channel=0, control=64, value=127, time=84),\n",
      "    Message('note_on', channel=0, note=62, velocity=32, time=481),\n",
      "    Message('note_on', channel=0, note=58, velocity=32, time=15),\n",
      "    Message('note_on', channel=0, note=50, velocity=23, time=0),\n",
      "    Message('note_on', channel=0, note=67, velocity=44, time=790),\n",
      "    Message('note_on', channel=0, note=70, velocity=50, time=146),\n",
      "    Message('note_on', channel=0, note=26, velocity=29, time=94),\n",
      "    Message('note_on', channel=0, note=38, velocity=24, time=2),\n",
      "    Message('note_on', channel=0, note=26, velocity=0, time=8),\n",
      "    Message('note_on', channel=0, note=69, velocity=45, time=21),\n",
      "    Message('control_change', channel=0, control=64, value=0, time=76),\n",
      "    Message('note_on', channel=0, note=58, velocity=0, time=3),\n",
      "    Message('note_on', channel=0, note=62, velocity=0, time=0),\n",
      "    Message('note_on', channel=0, note=67, velocity=0, time=0),\n",
      "    Message('note_on', channel=0, note=50, velocity=0, time=1),\n",
      "    Message('note_on', channel=0, note=31, velocity=0, time=0),\n",
      "    Message('note_on', channel=0, note=70, velocity=0, time=2),\n",
      "    Message('note_on', channel=0, note=69, velocity=0, time=2),\n",
      "    Message('note_on', channel=0, note=66, velocity=0, time=10),\n",
      "    Message('note_on', channel=0, note=67, velocity=36, time=52),\n",
      "    Message('note_on', channel=0, note=43, velocity=23, time=15),\n",
      "    Message('note_on', channel=0, note=38, velocity=0, time=3),\n",
      "    Message('note_on', channel=0, note=31, velocity=23, time=3),\n",
      "    Message('control_change', channel=0, control=64, value=127, time=219),\n",
      "    Message('note_on', channel=0, note=62, velocity=32, time=625),\n",
      "    Message('note_on', channel=0, note=58, velocity=27, time=17),\n",
      "    Message('note_on', channel=0, note=50, velocity=17, time=7),\n",
      "    Message('control_change', channel=0, control=64, value=0, time=23),\n",
      "    Message('note_on', channel=0, note=67, velocity=0, time=7),\n",
      "    Message('note_on', channel=0, note=31, velocity=0, time=1),\n",
      "    Message('control_change', channel=0, control=64, value=127, time=173),\n",
      "    Message('note_on', channel=0, note=43, velocity=0, time=38),\n",
      "    Message('note_on', channel=0, note=58, velocity=0, time=649),\n",
      "    Message('note_on', channel=0, note=62, velocity=0, time=0),\n",
      "    Message('note_on', channel=0, note=50, velocity=0, time=1),\n",
      "    Message('control_change', channel=0, control=64, value=0, time=4),\n",
      "    Message('note_on', channel=0, note=42, velocity=34, time=49),\n",
      "    Message('note_on', channel=0, note=30, velocity=34, time=7),\n",
      "    Message('note_on', channel=0, note=30, velocity=0, time=189),\n",
      "    Message('control_change', channel=0, control=64, value=127, time=0),\n",
      "    Message('note_on', channel=0, note=68, velocity=64, time=580),\n",
      "    Message('note_on', channel=0, note=63, velocity=38, time=20),\n",
      "    Message('note_on', channel=0, note=54, velocity=26, time=10),\n",
      "    Message('note_on', channel=0, note=60, velocity=30, time=0),\n",
      "    Message('note_on', channel=0, note=56, velocity=24, time=31),\n",
      "    Message('note_on', channel=0, note=41, velocity=36, time=751),\n",
      "    Message('note_on', channel=0, note=29, velocity=44, time=16),\n",
      "    Message('note_on', channel=0, note=42, velocity=0, time=13),\n",
      "    Message('control_change', channel=0, control=64, value=0, time=8),\n",
      "    Message('control_change', channel=0, control=64, value=127, time=76),\n",
      "    Message('note_on', channel=0, note=54, velocity=0, time=92),\n",
      "    Message('note_on', channel=0, note=73, velocity=67, time=391),\n",
      "    Message('note_on', channel=0, note=61, velocity=31, time=359),\n",
      "    Message('note_on', channel=0, note=53, velocity=24, time=24),\n",
      "    Message('note_on', channel=0, note=56, velocity=0, time=2),\n",
      "    Message('note_on', channel=0, note=77, velocity=71, time=4),\n",
      "    Message('note_on', channel=0, note=65, velocity=26, time=0),\n",
      "    Message('note_on', channel=0, note=56, velocity=32, time=3),\n",
      "    Message('note_on', channel=0, note=82, velocity=70, time=326),\n",
      "    Message('note_on', channel=0, note=80, velocity=66, time=314),\n",
      "    Message('note_on', channel=0, note=24, velocity=32, time=7),\n",
      "    Message('note_on', channel=0, note=41, velocity=0, time=3),\n",
      "    Message('note_on', channel=0, note=60, velocity=0, time=1),\n",
      "    Message('note_on', channel=0, note=68, velocity=0, time=0),\n",
      "    Message('note_on', channel=0, note=77, velocity=0, time=1),\n",
      "    Message('note_on', channel=0, note=61, velocity=0, time=1),\n",
      "    Message('note_on', channel=0, note=24, velocity=0, time=0),\n",
      "    Message('control_change', channel=0, control=64, value=0, time=1),\n",
      "    Message('note_on', channel=0, note=29, velocity=0, time=0),\n",
      "    Message('note_on', channel=0, note=65, velocity=0, time=1),\n",
      "    Message('note_on', channel=0, note=73, velocity=0, time=0),\n",
      "    Message('note_on', channel=0, note=82, velocity=0, time=0),\n",
      "    Message('note_on', channel=0, note=63, velocity=0, time=0),\n",
      "    Message('note_on', channel=0, note=56, velocity=0, time=1),\n",
      "    Message('note_on', channel=0, note=53, velocity=0, time=20),\n",
      "    Message('control_change', channel=0, control=64, value=127, time=154),\n",
      "    Message('note_on', channel=0, note=66, velocity=35, time=458),\n",
      "    Message('note_on', channel=0, note=68, velocity=48, time=117),\n",
      "    Message('note_on', channel=0, note=75, velocity=51, time=110),\n",
      "    Message('note_on', channel=0, note=80, velocity=0, time=129),\n",
      "    Message('note_on', channel=0, note=80, velocity=54, time=4),\n",
      "    Message('note_on', channel=0, note=63, velocity=31, time=31),\n",
      "    Message('note_on', channel=0, note=51, velocity=28, time=1),\n",
      "    Message('note_on', channel=0, note=56, velocity=30, time=2),\n",
      "    Message('note_on', channel=0, note=78, velocity=49, time=298),\n",
      "    Message('note_on', channel=0, note=77, velocity=48, time=253),\n",
      "    Message('note_on', channel=0, note=65, velocity=40, time=142),\n",
      "    Message('note_on', channel=0, note=68, velocity=0, time=45),\n",
      "    Message('note_on', channel=0, note=68, velocity=33, time=9),\n",
      "    Message('note_on', channel=0, note=73, velocity=40, time=36),\n",
      "    Message('note_on', channel=0, note=77, velocity=0, time=47),\n",
      "    Message('note_on', channel=0, note=77, velocity=51, time=5),\n",
      "    Message('note_on', channel=0, note=37, velocity=24, time=17),\n",
      "    Message('note_on', channel=0, note=25, velocity=32, time=4),\n",
      "    Message('note_on', channel=0, note=25, velocity=0, time=5),\n",
      "    Message('note_on', channel=0, note=66, velocity=0, time=722),\n",
      "    Message('note_on', channel=0, note=56, velocity=0, time=92),\n",
      "    Message('note_on', channel=0, note=56, velocity=29, time=6),\n",
      "    Message('note_on', channel=0, note=53, velocity=20, time=5),\n",
      "    Message('note_on', channel=0, note=61, velocity=29, time=5),\n",
      "    Message('note_on', channel=0, note=36, velocity=36, time=880),\n",
      "    Message('note_on', channel=0, note=48, velocity=37, time=0),\n",
      "    Message('note_on', channel=0, note=68, velocity=0, time=51),\n",
      "    Message('note_on', channel=0, note=51, velocity=0, time=1),\n",
      "    Message('note_on', channel=0, note=61, velocity=0, time=0),\n",
      "    Message('note_on', channel=0, note=73, velocity=0, time=0),\n",
      "    Message('note_on', channel=0, note=65, velocity=0, time=0),\n",
      "    Message('note_on', channel=0, note=56, velocity=0, time=0),\n",
      "    Message('note_on', channel=0, note=37, velocity=0, time=0),\n",
      "    Message('note_on', channel=0, note=78, velocity=0, time=0),\n",
      "    Message('note_on', channel=0, note=77, velocity=0, time=1),\n",
      "    Message('note_on', channel=0, note=80, velocity=0, time=0),\n",
      "    Message('note_on', channel=0, note=75, velocity=0, time=1),\n",
      "    Message('note_on', channel=0, note=63, velocity=0, time=10),\n",
      "    Message('control_change', channel=0, control=64, value=0, time=6),\n",
      "    Message('note_on', channel=0, note=53, velocity=0, time=1),\n",
      "    Message('note_on', channel=0, note=48, velocity=0, time=6),\n",
      "    Message('note_on', channel=0, note=36, velocity=0, time=48),\n",
      "    Message('note_on', channel=0, note=35, velocity=48, time=63),\n",
      "    Message('note_on', channel=0, note=47, velocity=41, time=0),\n",
      "    Message('control_change', channel=0, control=64, value=127, time=260),\n",
      "    Message('note_on', channel=0, note=67, velocity=64, time=488),\n",
      "    Message('note_on', channel=0, note=77, velocity=49, time=4),\n",
      "    Message('note_on', channel=0, note=65, velocity=40, time=8),\n",
      "    Message('note_on', channel=0, note=62, velocity=40, time=19),\n",
      "    Message('note_on', channel=0, note=55, velocity=32, time=7),\n",
      "    Message('note_on', channel=0, note=68, velocity=69, time=627),\n",
      "    Message('note_on', channel=0, note=70, velocity=63, time=57),\n",
      "    Message('note_on', channel=0, note=47, velocity=0, time=56),\n",
      "    Message('note_on', channel=0, note=55, velocity=0, time=0),\n",
      "    Message('note_on', channel=0, note=68, velocity=0, time=1),\n",
      "    Message('control_change', channel=0, control=64, value=0, time=0),\n",
      "    Message('note_on', channel=0, note=65, velocity=0, time=1),\n",
      "    Message('note_on', channel=0, note=67, velocity=0, time=0),\n",
      "    Message('note_on', channel=0, note=62, velocity=0, time=0),\n",
      "    Message('note_on', channel=0, note=68, velocity=66, time=4),\n",
      "    Message('note_on', channel=0, note=35, velocity=0, time=10),\n",
      "    Message('note_on', channel=0, note=77, velocity=0, time=8),\n",
      "    Message('note_on', channel=0, note=70, velocity=0, time=33),\n",
      "    Message('control_change', channel=0, control=64, value=127, time=105),\n",
      "    Message('note_on', channel=0, note=67, velocity=70, time=115),\n",
      "    Message('note_on', channel=0, note=71, velocity=75, time=186),\n",
      "    Message('note_on', channel=0, note=72, velocity=83, time=167),\n",
      "    Message('note_on', channel=0, note=74, velocity=75, time=150),\n",
      "    Message('note_on', channel=0, note=55, velocity=35, time=1),\n",
      "    Message('note_on', channel=0, note=63, velocity=43, time=3),\n",
      "    Message('note_on', channel=0, note=60, velocity=39, time=0),\n",
      "    Message('note_on', channel=0, note=71, velocity=0, time=3),\n",
      "    Message('note_on', channel=0, note=68, velocity=0, time=1),\n",
      "    Message('note_on', channel=0, note=72, velocity=0, time=1),\n",
      "    Message('control_change', channel=0, control=64, value=0, time=2),\n",
      "    Message('control_change', channel=0, control=64, value=127, time=155),\n",
      "    Message('note_on', channel=0, note=75, velocity=79, time=24),\n",
      "    Message('note_on', channel=0, note=84, velocity=62, time=209),\n",
      "    Message('note_on', channel=0, note=67, velocity=0, time=112),\n",
      "    Message('note_on', channel=0, note=80, velocity=69, time=102),\n",
      "    Message('note_on', channel=0, note=74, velocity=0, time=190),\n",
      "    Message('note_on', channel=0, note=84, velocity=0, time=4),\n",
      "    Message('note_on', channel=0, note=79, velocity=60, time=1),\n",
      "    Message('note_on', channel=0, note=55, velocity=0, time=0),\n",
      "    Message('note_on', channel=0, note=63, velocity=0, time=0),\n",
      "    Message('note_on', channel=0, note=60, velocity=0, time=1),\n",
      "    Message('note_on', channel=0, note=75, velocity=0, time=0),\n",
      "    Message('note_on', channel=0, note=80, velocity=0, time=0),\n",
      "    Message('control_change', channel=0, control=64, value=0, time=1),\n",
      "    Message('note_on', channel=0, note=50, velocity=33, time=14),\n",
      "    Message('note_on', channel=0, note=38, velocity=31, time=2),\n",
      "    Message('control_change', channel=0, control=64, value=127, time=184),\n",
      "    Message('note_on', channel=0, note=67, velocity=27, time=698),\n",
      "    Message('note_on', channel=0, note=65, velocity=25, time=0),\n",
      "    Message('note_on', channel=0, note=59, velocity=24, time=6),\n",
      "    Message('note_on', channel=0, note=55, velocity=24, time=2),\n",
      "    Message('note_on', channel=0, note=73, velocity=47, time=277),\n",
      "    Message('note_on', channel=0, note=74, velocity=49, time=155),\n",
      "    Message('note_on', channel=0, note=79, velocity=0, time=153),\n",
      "    Message('note_on', channel=0, note=79, velocity=36, time=5),\n",
      "    Message('note_on', channel=0, note=77, velocity=46, time=115),\n",
      "    Message('note_on', channel=0, note=75, velocity=53, time=166),\n",
      "    Message('note_on', channel=0, note=75, velocity=0, time=151),\n",
      "    Message('note_on', channel=0, note=51, velocity=27, time=8),\n",
      "    Message('note_on', channel=0, note=75, velocity=49, time=3),\n",
      "    Message('note_on', channel=0, note=39, velocity=27, time=1),\n",
      "    Message('note_on', channel=0, note=38, velocity=0, time=15),\n",
      "    Message('note_on', channel=0, note=55, velocity=0, time=0),\n",
      "    Message('control_change', channel=0, control=64, value=0, time=0),\n",
      "    Message('note_on', channel=0, note=73, velocity=0, time=0),\n",
      "    Message('note_on', channel=0, note=67, velocity=0, time=1),\n",
      "    Message('note_on', channel=0, note=59, velocity=0, time=0),\n",
      "    Message('note_on', channel=0, note=77, velocity=0, time=0),\n",
      "    Message('note_on', channel=0, note=50, velocity=0, time=0),\n",
      "    Message('note_on', channel=0, note=74, velocity=0, time=1),\n",
      "    Message('note_on', channel=0, note=65, velocity=0, time=0),\n",
      "    Message('note_on', channel=0, note=79, velocity=0, time=0),\n",
      "    Message('control_change', channel=0, control=64, value=127, time=117),\n",
      "    Message('note_on', channel=0, note=67, velocity=32, time=794),\n",
      "    Message('note_on', channel=0, note=60, velocity=25, time=12),\n",
      "    Message('note_on', channel=0, note=55, velocity=22, time=25),\n",
      "    Message('control_change', channel=0, control=64, value=0, time=784),\n",
      "    Message('note_on', channel=0, note=39, velocity=0, time=6),\n",
      "    Message('note_on', channel=0, note=51, velocity=0, time=0),\n",
      "    Message('note_on', channel=0, note=51, velocity=45, time=5),\n",
      "    Message('note_on', channel=0, note=39, velocity=36, time=5),\n",
      "    Message('note_on', channel=0, note=39, velocity=0, time=100),\n",
      "    Message('note_on', channel=0, note=55, velocity=0, time=0),\n",
      "    Message('note_on', channel=0, note=67, velocity=0, time=1),\n",
      "    Message('note_on', channel=0, note=60, velocity=0, time=0),\n",
      "    Message('note_on', channel=0, note=51, velocity=0, time=0),\n",
      "    Message('note_on', channel=0, note=75, velocity=0, time=19),\n",
      "    Message('note_on', channel=0, note=53, velocity=43, time=58),\n",
      "    Message('note_on', channel=0, note=41, velocity=36, time=23),\n",
      "    Message('control_change', channel=0, control=64, value=127, time=173),\n",
      "    Message('note_on', channel=0, note=71, velocity=59, time=609),\n",
      "    Message('note_on', channel=0, note=68, velocity=41, time=1),\n",
      "    Message('note_on', channel=0, note=68, velocity=0, time=12),\n",
      "    Message('note_on', channel=0, note=56, velocity=32, time=11),\n",
      "    Message('note_on', channel=0, note=62, velocity=36, time=1),\n",
      "    Message('note_on', channel=0, note=51, velocity=38, time=762),\n",
      "    Message('note_on', channel=0, note=39, velocity=31, time=21),\n",
      "    Message('note_on', channel=0, note=41, velocity=0, time=23),\n",
      "    Message('note_on', channel=0, note=62, velocity=0, time=0),\n",
      "    Message('note_on', channel=0, note=56, velocity=0, time=0),\n",
      "    Message('control_change', channel=0, control=64, value=0, time=0),\n",
      "    Message('note_on', channel=0, note=53, velocity=0, time=0),\n",
      "    Message('control_change', channel=0, control=64, value=127, time=73),\n",
      "    Message('note_on', channel=0, note=72, velocity=55, time=375),\n",
      "    Message('note_on', channel=0, note=74, velocity=59, time=374),\n",
      "    Message('note_on', channel=0, note=67, velocity=37, time=23),\n",
      "    Message('note_on', channel=0, note=60, velocity=27, time=4),\n",
      "    Message('note_on', channel=0, note=55, velocity=29, time=4),\n",
      "    Message('note_on', channel=0, note=75, velocity=51, time=446),\n",
      "    Message('note_on', channel=0, note=48, velocity=38, time=236),\n",
      "    Message('note_on', channel=0, note=36, velocity=36, time=3),\n",
      "    Message('note_on', channel=0, note=71, velocity=0, time=171),\n",
      "    Message('note_on', channel=0, note=47, velocity=42, time=24),\n",
      "    Message('note_on', channel=0, note=35, velocity=37, time=4),\n",
      "    Message('note_on', channel=0, note=51, velocity=0, time=5),\n",
      "    Message('note_on', channel=0, note=55, velocity=0, time=0),\n",
      "    Message('note_on', channel=0, note=67, velocity=0, time=0),\n",
      "    Message('control_change', channel=0, control=64, value=0, time=0),\n",
      "    Message('note_on', channel=0, note=39, velocity=0, time=0),\n",
      "    Message('note_on', channel=0, note=74, velocity=0, time=0),\n",
      "    Message('note_on', channel=0, note=72, velocity=0, time=0),\n",
      "    Message('note_on', channel=0, note=48, velocity=0, time=1),\n",
      "    Message('note_on', channel=0, note=60, velocity=0, time=0),\n",
      "    Message('note_on', channel=0, note=36, velocity=0, time=27),\n",
      "    Message('control_change', channel=0, control=64, value=127, time=123),\n",
      "    Message('note_on', channel=0, note=74, velocity=67, time=582),\n",
      "    Message('note_on', channel=0, note=65, velocity=40, time=4),\n",
      "    Message('note_on', channel=0, note=67, velocity=46, time=4),\n",
      "    Message('note_on', channel=0, note=62, velocity=35, time=8),\n",
      "    Message('note_on', channel=0, note=55, velocity=28, time=14),\n",
      "    Message('note_on', channel=0, note=35, velocity=0, time=64),\n",
      "    Message('note_on', channel=0, note=48, velocity=43, time=611),\n",
      "    Message('note_on', channel=0, note=36, velocity=39, time=4),\n",
      "    Message('note_on', channel=0, note=65, velocity=0, time=69),\n",
      "    Message('note_on', channel=0, note=47, velocity=0, time=1),\n",
      "    Message('note_on', channel=0, note=55, velocity=0, time=0),\n",
      "    Message('note_on', channel=0, note=62, velocity=0, time=0),\n",
      "    Message('control_change', channel=0, control=64, value=0, time=0),\n",
      "    Message('note_on', channel=0, note=75, velocity=0, time=6),\n",
      "    Message('control_change', channel=0, control=64, value=127, time=100),\n",
      "    Message('note_on', channel=0, note=75, velocity=77, time=223),\n",
      "    Message('note_on', channel=0, note=77, velocity=73, time=397),\n",
      "    Message('note_on', channel=0, note=67, velocity=0, time=2),\n",
      "    Message('note_on', channel=0, note=67, velocity=47, time=8),\n",
      "    Message('note_on', channel=0, note=55, velocity=38, time=11),\n",
      "    Message('note_on', channel=0, note=63, velocity=42, time=0),\n",
      "    Message('note_on', channel=0, note=72, velocity=44, time=2),\n",
      "    Message('note_on', channel=0, note=60, velocity=37, time=4),\n",
      "    Message('note_on', channel=0, note=74, velocity=0, time=52),\n",
      "    Message('note_on', channel=0, note=79, velocity=72, time=481),\n",
      "    Message('note_on', channel=0, note=36, velocity=0, time=194),\n",
      "    Message('note_on', channel=0, note=36, velocity=39, time=7),\n",
      "    Message('note_on', channel=0, note=79, velocity=0, time=239),\n",
      "    Message('note_on', channel=0, note=41, velocity=36, time=5),\n",
      "    Message('note_on', channel=0, note=79, velocity=68, time=0),\n",
      "    Message('note_on', channel=0, note=29, velocity=39, time=6),\n",
      "    Message('note_on', channel=0, note=67, velocity=0, time=24),\n",
      "    Message('note_on', channel=0, note=55, velocity=0, time=1),\n",
      "    Message('note_on', channel=0, note=60, velocity=0, time=1),\n",
      "    Message('note_on', channel=0, note=36, velocity=0, time=0),\n",
      "    Message('note_on', channel=0, note=63, velocity=0, time=1),\n",
      "    Message('note_on', channel=0, note=77, velocity=0, time=1),\n",
      "    Message('note_on', channel=0, note=75, velocity=0, time=1),\n",
      "    Message('control_change', channel=0, control=64, value=0, time=0),\n",
      "    Message('note_on', channel=0, note=48, velocity=0, time=6),\n",
      "    Message('note_on', channel=0, note=72, velocity=0, time=54),\n",
      "    Message('control_change', channel=0, control=64, value=127, time=31),\n",
      "    Message('note_on', channel=0, note=77, velocity=77, time=327),\n",
      "    Message('note_on', channel=0, note=80, velocity=73, time=404),\n",
      "    Message('note_on', channel=0, note=68, velocity=37, time=2),\n",
      "    Message('note_on', channel=0, note=29, velocity=0, time=4),\n",
      "    Message('note_on', channel=0, note=60, velocity=36, time=3),\n",
      "    Message('note_on', channel=0, note=53, velocity=26, time=13),\n",
      "    Message('control_change', channel=0, control=64, value=0, time=2),\n",
      "    Message('note_on', channel=0, note=77, velocity=0, time=4),\n",
      "    Message('note_on', channel=0, note=41, velocity=0, time=3),\n",
      "    Message('note_on', channel=0, note=79, velocity=0, time=13),\n",
      "    Message('control_change', channel=0, control=64, value=127, time=62),\n",
      "    Message('note_on', channel=0, note=72, velocity=68, time=323),\n",
      "    Message('note_on', channel=0, note=74, velocity=65, time=349),\n",
      "    Message('note_on', channel=0, note=68, velocity=0, time=19),\n",
      "    Message('note_on', channel=0, note=32, velocity=34, time=6),\n",
      "    Message('note_on', channel=0, note=72, velocity=0, time=5),\n",
      "    Message('note_on', channel=0, note=60, velocity=0, time=0),\n",
      "    Message('note_on', channel=0, note=68, velocity=32, time=0),\n",
      "    Message('note_on', channel=0, note=53, velocity=0, time=0),\n",
      "    Message('note_on', channel=0, note=44, velocity=38, time=0),\n",
      "    Message('note_on', channel=0, note=80, velocity=0, time=1),\n",
      "    Message('control_change', channel=0, control=64, value=0, time=5),\n",
      "    Message('note_on', channel=0, note=68, velocity=0, time=137),\n",
      "    Message('control_change', channel=0, control=64, value=127, time=0),\n",
      "    Message('note_on', channel=0, note=75, velocity=69, time=216),\n",
      "    Message('note_on', channel=0, note=75, velocity=0, time=122),\n",
      "    Message('note_on', channel=0, note=75, velocity=66, time=6),\n",
      "    Message('note_on', channel=0, note=77, velocity=62, time=122),\n",
      "    Message('note_on', channel=0, note=75, velocity=0, time=94),\n",
      "    Message('note_on', channel=0, note=75, velocity=68, time=10),\n",
      "    Message('note_on', channel=0, note=74, velocity=0, time=113),\n",
      "    Message('note_on', channel=0, note=74, velocity=59, time=4),\n",
      "    Message('note_on', channel=0, note=75, velocity=0, time=119),\n",
      "    Message('note_on', channel=0, note=75, velocity=61, time=10),\n",
      "    Message('note_on', channel=0, note=32, velocity=0, time=151),\n",
      "    Message('note_on', channel=0, note=79, velocity=57, time=8),\n",
      "    Message('note_on', channel=0, note=44, velocity=0, time=7),\n",
      "    Message('note_on', channel=0, note=74, velocity=0, time=4),\n",
      "    Message('note_on', channel=0, note=77, velocity=0, time=0),\n",
      "    Message('note_on', channel=0, note=75, velocity=0, time=0),\n",
      "    Message('control_change', channel=0, control=64, value=0, time=1),\n",
      "    Message('note_on', channel=0, note=60, velocity=31, time=22),\n",
      "    Message('note_on', channel=0, note=68, velocity=32, time=1),\n",
      "    Message('note_on', channel=0, note=53, velocity=22, time=1),\n",
      "    Message('control_change', channel=0, control=64, value=127, time=171),\n",
      "    Message('note_on', channel=0, note=77, velocity=51, time=312),\n",
      "    Message('note_on', channel=0, note=74, velocity=48, time=455),\n",
      "    Message('note_on', channel=0, note=68, velocity=0, time=13),\n",
      "    Message('note_on', channel=0, note=60, velocity=0, time=2),\n",
      "    Message('note_on', channel=0, note=79, velocity=0, time=0),\n",
      "    Message('control_change', channel=0, control=64, value=0, time=1),\n",
      "    Message('note_on', channel=0, note=53, velocity=0, time=0),\n",
      "    Message('note_on', channel=0, note=77, velocity=0, time=1),\n",
      "    Message('note_on', channel=0, note=46, velocity=18, time=4),\n",
      "    Message('note_on', channel=0, note=34, velocity=17, time=0),\n",
      "    Message('control_change', channel=0, control=64, value=127, time=195),\n",
      "    Message('note_on', channel=0, note=68, velocity=38, time=720),\n",
      "    Message('note_on', channel=0, note=58, velocity=35, time=5),\n",
      "    Message('note_on', channel=0, note=53, velocity=25, time=7),\n",
      "    Message('note_on', channel=0, note=62, velocity=27, time=10),\n",
      "    Message('note_on', channel=0, note=34, velocity=0, time=103),\n",
      "    Message('note_on', channel=0, note=46, velocity=0, time=653),\n",
      "    Message('note_on', channel=0, note=46, velocity=40, time=10),\n",
      "    Message('note_on', channel=0, note=34, velocity=30, time=2),\n",
      "    Message('note_on', channel=0, note=47, velocity=41, time=140),\n",
      "    Message('note_on', channel=0, note=35, velocity=40, time=24),\n",
      "    Message('control_change', channel=0, control=64, value=0, time=36),\n",
      "    Message('note_on', channel=0, note=68, velocity=0, time=3),\n",
      "    Message('note_on', channel=0, note=58, velocity=0, time=1),\n",
      "    Message('note_on', channel=0, note=62, velocity=0, time=1),\n",
      "    Message('note_on', channel=0, note=53, velocity=0, time=0),\n",
      "    Message('note_on', channel=0, note=34, velocity=0, time=1),\n",
      "    Message('note_on', channel=0, note=74, velocity=0, time=0),\n",
      "    Message('note_on', channel=0, note=46, velocity=0, time=12),\n",
      "    Message('control_change', channel=0, control=64, value=127, time=185),\n",
      "    Message('note_on', channel=0, note=65, velocity=28, time=695),\n",
      "    Message('note_on', channel=0, note=62, velocity=29, time=1),\n",
      "    Message('note_on', channel=0, note=55, velocity=27, time=1),\n",
      "    Message('control_change', channel=0, control=64, value=0, time=29),\n",
      "    Message('note_on', channel=0, note=35, velocity=0, time=7),\n",
      "    Message('control_change', channel=0, control=64, value=127, time=127),\n",
      "    Message('note_on', channel=0, note=47, velocity=0, time=184),\n",
      "    Message('note_on', channel=0, note=31, velocity=31, time=556),\n",
      "    Message('note_on', channel=0, note=43, velocity=27, time=3),\n",
      "    Message('note_on', channel=0, note=48, velocity=33, time=276),\n",
      "    Message('note_on', channel=0, note=36, velocity=27, time=6),\n",
      "    Message('control_change', channel=0, control=64, value=0, time=19),\n",
      "    Message('note_on', channel=0, note=65, velocity=0, time=11),\n",
      "    Message('note_on', channel=0, note=55, velocity=0, time=1),\n",
      "    Message('note_on', channel=0, note=31, velocity=0, time=0),\n",
      "    Message('note_on', channel=0, note=62, velocity=0, time=0),\n",
      "    Message('note_on', channel=0, note=43, velocity=0, time=3),\n",
      "    Message('control_change', channel=0, control=64, value=127, time=223),\n",
      "    Message('note_on', channel=0, note=36, velocity=0, time=254),\n",
      "    Message('note_on', channel=0, note=60, velocity=26, time=557),\n",
      "    Message('note_on', channel=0, note=79, velocity=51, time=7),\n",
      "    Message('note_on', channel=0, note=64, velocity=26, time=0),\n",
      "    Message('note_on', channel=0, note=70, velocity=35, time=1),\n",
      "    Message('note_on', channel=0, note=41, velocity=32, time=1079),\n",
      "    Message('note_on', channel=0, note=29, velocity=37, time=9),\n",
      "    Message('control_change', channel=0, control=64, value=0, time=50),\n",
      "    Message('note_on', channel=0, note=64, velocity=0, time=0),\n",
      "    Message('note_on', channel=0, note=79, velocity=0, time=6),\n",
      "    Message('note_on', channel=0, note=70, velocity=0, time=1),\n",
      "    Message('note_on', channel=0, note=60, velocity=0, time=0),\n",
      "    Message('note_on', channel=0, note=48, velocity=0, time=3),\n",
      "    Message('control_change', channel=0, control=64, value=127, time=130),\n",
      "    Message('note_on', channel=0, note=29, velocity=0, time=254),\n",
      "    Message('note_on', channel=0, note=80, velocity=66, time=454),\n",
      "    Message('note_on', channel=0, note=68, velocity=39, time=4),\n",
      "    Message('note_on', channel=0, note=63, velocity=30, time=1),\n",
      "    Message('note_on', channel=0, note=72, velocity=37, time=4),\n",
      "    Message('note_on', channel=0, note=60, velocity=27, time=7),\n",
      "    Message('note_on', channel=0, note=34, velocity=34, time=997),\n",
      "    Message('note_on', channel=0, note=46, velocity=35, time=1),\n",
      "    Message('note_on', channel=0, note=72, velocity=0, time=40),\n",
      "    Message('note_on', channel=0, note=41, velocity=0, time=0),\n",
      "    Message('note_on', channel=0, note=68, velocity=0, time=0),\n",
      "    Message('note_on', channel=0, note=60, velocity=0, time=0),\n",
      "    Message('control_change', channel=0, control=64, value=0, time=0),\n",
      "    Message('note_on', channel=0, note=63, velocity=0, time=0),\n",
      "    Message('control_change', channel=0, control=64, value=127, time=127),\n",
      "    Message('note_on', channel=0, note=34, velocity=0, time=77),\n",
      "    Message('note_on', channel=0, note=79, velocity=64, time=258),\n",
      "    Message('note_on', channel=0, note=53, velocity=32, time=383),\n",
      "    Message('note_on', channel=0, note=68, velocity=45, time=7),\n",
      "    Message('note_on', channel=0, note=58, velocity=40, time=8),\n",
      "    Message('note_on', channel=0, note=62, velocity=34, time=2),\n",
      "    Message('note_on', channel=0, note=77, velocity=61, time=615),\n",
      "    Message('note_on', channel=0, note=51, velocity=38, time=299),\n",
      "    Message('note_on', channel=0, note=39, velocity=29, time=8),\n",
      "    Message('control_change', channel=0, control=64, value=0, time=7),\n",
      "    Message('note_on', channel=0, note=53, velocity=0, time=2),\n",
      "    Message('note_on', channel=0, note=58, velocity=0, time=0),\n",
      "    Message('note_on', channel=0, note=68, velocity=0, time=0),\n",
      "    Message('note_on', channel=0, note=62, velocity=0, time=1),\n",
      "    Message('note_on', channel=0, note=79, velocity=0, time=1),\n",
      "    Message('note_on', channel=0, note=46, velocity=0, time=1),\n",
      "    Message('note_on', channel=0, note=80, velocity=0, time=59),\n",
      "    Message('control_change', channel=0, control=64, value=127, time=77),\n",
      "    Message('note_on', channel=0, note=75, velocity=68, time=125),\n",
      "    Message('note_on', channel=0, note=77, velocity=0, time=213),\n",
      "    Message('note_on', channel=0, note=77, velocity=68, time=7),\n",
      "    Message('note_on', channel=0, note=75, velocity=0, time=147),\n",
      "    Message('note_on', channel=0, note=75, velocity=60, time=4),\n",
      "    Message('note_on', channel=0, note=77, velocity=0, time=34),\n",
      "    Message('note_on', channel=0, note=77, velocity=58, time=5),\n",
      "    Message('note_on', channel=0, note=75, velocity=0, time=49),\n",
      "    Message('note_on', channel=0, note=75, velocity=73, time=11),\n",
      "    Message('note_on', channel=0, note=51, velocity=0, time=170),\n",
      "    Message('note_on', channel=0, note=74, velocity=68, time=3),\n",
      "    Message('note_on', channel=0, note=63, velocity=38, time=1),\n",
      "    Message('note_on', channel=0, note=67, velocity=43, time=3),\n",
      "    Message('note_on', channel=0, note=55, velocity=32, time=7),\n",
      "    Message('note_on', channel=0, note=58, velocity=34, time=8),\n",
      "    Message('note_on', channel=0, note=75, velocity=0, time=181),\n",
      "    Message('note_on', channel=0, note=75, velocity=73, time=5),\n",
      "    Message('note_on', channel=0, note=77, velocity=0, time=172),\n",
      "    Message('note_on', channel=0, note=77, velocity=74, time=9),\n",
      "    Message('note_on', channel=0, note=79, velocity=73, time=148),\n",
      "    Message('note_on', channel=0, note=79, velocity=0, time=104),\n",
      "    Message('note_on', channel=0, note=79, velocity=65, time=6),\n",
      "    Message('note_on', channel=0, note=63, velocity=0, time=153),\n",
      "    Message('note_on', channel=0, note=72, velocity=65, time=1),\n",
      "    Message('note_on', channel=0, note=58, velocity=0, time=1),\n",
      "    Message('note_on', channel=0, note=55, velocity=0, time=0),\n",
      "    Message('note_on', channel=0, note=67, velocity=0, time=0),\n",
      "    Message('note_on', channel=0, note=77, velocity=0, time=2),\n",
      "    Message('note_on', channel=0, note=74, velocity=0, time=0),\n",
      "    Message('note_on', channel=0, note=75, velocity=0, time=0),\n",
      "    Message('control_change', channel=0, control=64, value=0, time=0),\n",
      "    Message('note_on', channel=0, note=79, velocity=0, time=2),\n",
      "    Message('note_on', channel=0, note=39, velocity=0, time=4),\n",
      "    Message('note_on', channel=0, note=32, velocity=35, time=22),\n",
      "    Message('note_on', channel=0, note=44, velocity=36, time=2),\n",
      "    Message('control_change', channel=0, control=64, value=127, time=152),\n",
      "    Message('note_on', channel=0, note=67, velocity=46, time=723),\n",
      "    Message('note_on', channel=0, note=60, velocity=38, time=24),\n",
      "    Message('note_on', channel=0, note=56, velocity=36, time=0),\n",
      "    Message('note_on', channel=0, note=32, velocity=0, time=789),\n",
      "    Message('note_on', channel=0, note=50, velocity=43, time=3),\n",
      "    Message('note_on', channel=0, note=38, velocity=34, time=22),\n",
      "    Message('control_change', channel=0, control=64, value=0, time=25),\n",
      "    Message('note_on', channel=0, note=72, velocity=0, time=2),\n",
      "    Message('note_on', channel=0, note=60, velocity=0, time=2),\n",
      "    Message('note_on', channel=0, note=67, velocity=0, time=1),\n",
      "    Message('note_on', channel=0, note=56, velocity=0, time=1),\n",
      "    Message('note_on', channel=0, note=44, velocity=0, time=0),\n",
      "    Message('control_change', channel=0, control=64, value=127, time=159),\n",
      "    Message('note_on', channel=0, note=77, velocity=71, time=502),\n",
      "    Message('note_on', channel=0, note=56, velocity=36, time=22),\n",
      "    Message('note_on', channel=0, note=65, velocity=33, time=0),\n",
      "    Message('note_on', channel=0, note=60, velocity=29, time=8),\n",
      "    Message('control_change', channel=0, control=64, value=0, time=6),\n",
      "    Message('note_on', channel=0, note=50, velocity=0, time=3),\n",
      "    Message('note_on', channel=0, note=38, velocity=0, time=20),\n",
      "    Message('control_change', channel=0, control=64, value=127, time=123),\n",
      "    Message('note_on', channel=0, note=71, velocity=61, time=548),\n",
      "    Message('note_on', channel=0, note=60, velocity=0, time=20),\n",
      "    Message('note_on', channel=0, note=56, velocity=0, time=115),\n",
      "    Message('note_on', channel=0, note=77, velocity=0, time=11),\n",
      "    Message('control_change', channel=0, control=64, value=0, time=4),\n",
      "    Message('note_on', channel=0, note=31, velocity=39, time=6),\n",
      "    Message('note_on', channel=0, note=65, velocity=0, time=2),\n",
      "    Message('note_on', channel=0, note=75, velocity=75, time=3),\n",
      "    Message('control_change', channel=0, control=64, value=127, time=189),\n",
      "    Message('note_on', channel=0, note=31, velocity=0, time=177),\n",
      "    Message('note_on', channel=0, note=65, velocity=35, time=410),\n",
      "    Message('note_on', channel=0, note=59, velocity=41, time=2),\n",
      "    Message('note_on', channel=0, note=55, velocity=29, time=14),\n",
      "    Message('note_on', channel=0, note=74, velocity=68, time=440),\n",
      "    Message('note_on', channel=0, note=44, velocity=46, time=312),\n",
      "    Message('note_on', channel=0, note=32, velocity=39, time=24),\n",
      "    Message('control_change', channel=0, control=64, value=0, time=8),\n",
      "    Message('note_on', channel=0, note=55, velocity=0, time=8),\n",
      "    Message('note_on', channel=0, note=59, velocity=0, time=0),\n",
      "    Message('note_on', channel=0, note=65, velocity=0, time=0),\n",
      "    Message('note_on', channel=0, note=75, velocity=0, time=2),\n",
      "    Message('note_on', channel=0, note=71, velocity=0, time=2),\n",
      "    Message('control_change', channel=0, control=64, value=127, time=176),\n",
      "    Message('note_on', channel=0, note=72, velocity=73, time=46),\n",
      "    Message('note_on', channel=0, note=74, velocity=0, time=192),\n",
      "    Message('note_on', channel=0, note=74, velocity=75, time=8),\n",
      "    Message('note_on', channel=0, note=72, velocity=0, time=92),\n",
      "    Message('note_on', channel=0, note=72, velocity=69, time=8),\n",
      "    Message('note_on', channel=0, note=74, velocity=0, time=38),\n",
      "    Message('note_on', channel=0, note=74, velocity=72, time=9),\n",
      "    Message('note_on', channel=0, note=72, velocity=0, time=52),\n",
      "    Message('note_on', channel=0, note=72, velocity=73, time=7),\n",
      "    Message('note_on', channel=0, note=63, velocity=59, time=104),\n",
      "    Message('note_on', channel=0, note=56, velocity=48, time=15),\n",
      "    Message('note_on', channel=0, note=71, velocity=72, time=9),\n",
      "    Message('note_on', channel=0, note=72, velocity=0, time=195),\n",
      "    Message('note_on', channel=0, note=72, velocity=81, time=12),\n",
      "    Message('note_on', channel=0, note=74, velocity=0, time=157),\n",
      "    Message('note_on', channel=0, note=74, velocity=85, time=6),\n",
      "    Message('note_on', channel=0, note=75, velocity=86, time=146),\n",
      "    Message('note_on', channel=0, note=67, velocity=79, time=167),\n",
      "    Message('note_on', channel=0, note=27, velocity=62, time=15),\n",
      "    Message('note_on', channel=0, note=39, velocity=46, time=0),\n",
      "    Message('control_change', channel=0, control=64, value=0, time=4),\n",
      "    Message('note_on', channel=0, note=44, velocity=0, time=3),\n",
      "    Message('note_on', channel=0, note=71, velocity=0, time=2),\n",
      "    Message('note_on', channel=0, note=74, velocity=0, time=3),\n",
      "    Message('note_on', channel=0, note=63, velocity=0, time=3),\n",
      "    Message('note_on', channel=0, note=56, velocity=0, time=2),\n",
      "    Message('note_on', channel=0, note=75, velocity=0, time=2),\n",
      "    Message('note_on', channel=0, note=32, velocity=0, time=8),\n",
      "    Message('note_on', channel=0, note=72, velocity=0, time=0),\n",
      "    Message('control_change', channel=0, control=64, value=127, time=123),\n",
      "    Message('note_on', channel=0, note=27, velocity=0, time=630),\n",
      "    Message('note_on', channel=0, note=39, velocity=0, time=27),\n",
      "    Message('control_change', channel=0, control=64, value=0, time=3),\n",
      "    Message('note_on', channel=0, note=67, velocity=0, time=8),\n",
      "    Message('note_on', channel=0, note=67, velocity=43, time=10),\n",
      "    Message('note_on', channel=0, note=84, velocity=81, time=1),\n",
      "    Message('note_on', channel=0, note=60, velocity=45, time=6),\n",
      "    Message('note_on', channel=0, note=72, velocity=54, time=1),\n",
      "    Message('note_on', channel=0, note=55, velocity=38, time=1),\n",
      "    Message('note_on', channel=0, note=51, velocity=39, time=1),\n",
      "    Message('control_change', channel=0, control=64, value=127, time=226),\n",
      "    Message('note_on', channel=0, note=67, velocity=0, time=62),\n",
      "    Message('note_on', channel=0, note=29, velocity=75, time=563),\n",
      "    Message('control_change', channel=0, control=64, value=0, time=50),\n",
      "    Message('note_on', channel=0, note=51, velocity=0, time=12),\n",
      "    Message('note_on', channel=0, note=55, velocity=0, time=20),\n",
      "    Message('note_on', channel=0, note=60, velocity=0, time=15),\n",
      "    Message('note_on', channel=0, note=72, velocity=0, time=62),\n",
      "    Message('control_change', channel=0, control=64, value=127, time=15),\n",
      "    Message('note_on', channel=0, note=83, velocity=82, time=240),\n",
      "    Message('note_on', channel=0, note=82, velocity=77, time=276),\n",
      "    Message('note_on', channel=0, note=84, velocity=0, time=45),\n",
      "    Message('note_on', channel=0, note=81, velocity=80, time=150),\n",
      "    Message('note_on', channel=0, note=80, velocity=76, time=187),\n",
      "    Message('note_on', channel=0, note=61, velocity=39, time=29),\n",
      "    Message('note_on', channel=0, note=49, velocity=36, time=4),\n",
      "    Message('note_on', channel=0, note=49, velocity=0, time=6),\n",
      "    Message('note_on', channel=0, note=56, velocity=41, time=11),\n",
      "    Message('note_on', channel=0, note=77, velocity=76, time=171),\n",
      "    Message('note_on', channel=0, note=68, velocity=71, time=180),\n",
      "    Message('note_on', channel=0, note=73, velocity=78, time=174),\n",
      "    Message('note_on', channel=0, note=64, velocity=71, time=170),\n",
      "    Message('note_on', channel=0, note=83, velocity=0, time=9),\n",
      "    Message('note_on', channel=0, note=29, velocity=0, time=1),\n",
      "    Message('note_on', channel=0, note=68, velocity=0, time=1),\n",
      "    Message('note_on', channel=0, note=82, velocity=0, time=0),\n",
      "    Message('note_on', channel=0, note=80, velocity=0, time=1),\n",
      "    Message('note_on', channel=0, note=77, velocity=0, time=0),\n",
      "    Message('note_on', channel=0, note=81, velocity=0, time=1),\n",
      "    Message('control_change', channel=0, control=64, value=0, time=1),\n",
      "    Message('note_on', channel=0, note=56, velocity=0, time=0),\n",
      "    Message('note_on', channel=0, note=31, velocity=43, time=9),\n",
      "    Message('note_on', channel=0, note=61, velocity=0, time=85),\n",
      "    Message('control_change', channel=0, control=64, value=127, time=23),\n",
      "    Message('note_on', channel=0, note=72, velocity=80, time=132),\n",
      "    Message('note_on', channel=0, note=75, velocity=77, time=184),\n",
      "    Message('note_on', channel=0, note=73, velocity=0, time=14),\n",
      "    Message('note_on', channel=0, note=73, velocity=72, time=11),\n",
      "    Message('note_on', channel=0, note=72, velocity=0, time=158),\n",
      "    Message('note_on', channel=0, note=72, velocity=80, time=11),\n",
      "    Message('note_on', channel=0, note=75, velocity=0, time=166),\n",
      "    Message('note_on', channel=0, note=75, velocity=77, time=4),\n",
      "    Message('note_on', channel=0, note=60, velocity=49, time=6),\n",
      "    Message('note_on', channel=0, note=58, velocity=51, time=9),\n",
      "    Message('note_on', channel=0, note=52, velocity=45, time=0),\n",
      "    Message('note_on', channel=0, note=31, velocity=0, time=1),\n",
      "    Message('control_change', channel=0, control=64, value=0, time=6),\n",
      "    Message('note_on', channel=0, note=73, velocity=0, time=1),\n",
      "    Message('note_on', channel=0, note=64, velocity=0, time=1),\n",
      "    Message('note_on', channel=0, note=72, velocity=0, time=6),\n",
      "    Message('control_change', channel=0, control=64, value=127, time=142),\n",
      "    Message('note_on', channel=0, note=76, velocity=81, time=42),\n",
      "    Message('note_on', channel=0, note=80, velocity=78, time=218),\n",
      "    Message('note_on', channel=0, note=79, velocity=79, time=244),\n",
      "    Message('note_on', channel=0, note=65, velocity=69, time=229),\n",
      "    Message('note_on', channel=0, note=80, velocity=0, time=1),\n",
      "    Message('control_change', channel=0, control=64, value=0, time=1),\n",
      "    Message('note_on', channel=0, note=52, velocity=0, time=0),\n",
      "    Message('note_on', channel=0, note=75, velocity=0, time=0),\n",
      "    Message('note_on', channel=0, note=76, velocity=0, time=0),\n",
      "    Message('note_on', channel=0, note=58, velocity=0, time=1),\n",
      "    Message('note_on', channel=0, note=60, velocity=0, time=0),\n",
      "    Message('note_on', channel=0, note=44, velocity=50, time=13),\n",
      "    Message('note_on', channel=0, note=32, velocity=49, time=1),\n",
      "    Message('control_change', channel=0, control=64, value=127, time=134),\n",
      "    Message('note_on', channel=0, note=72, velocity=79, time=149),\n",
      "    Message('note_on', channel=0, note=79, velocity=0, time=166),\n",
      "    Message('note_on', channel=0, note=77, velocity=82, time=92),\n",
      "    Message('note_on', channel=0, note=79, velocity=88, time=215),\n",
      "    Message('note_on', channel=0, note=82, velocity=79, time=201),\n",
      "    Message('note_on', channel=0, note=60, velocity=53, time=10),\n",
      "    Message('note_on', channel=0, note=53, velocity=39, time=4),\n",
      "    Message('note_on', channel=0, note=80, velocity=81, time=196),\n",
      "    Message('note_on', channel=0, note=72, velocity=0, time=188),\n",
      "    Message('note_on', channel=0, note=72, velocity=79, time=9),\n",
      "    Message('note_on', channel=0, note=74, velocity=84, time=198),\n",
      "    Message('control_change', channel=0, control=64, value=0, time=190),\n",
      "    Message('note_on', channel=0, note=82, velocity=0, time=1),\n",
      "    Message('note_on', channel=0, note=53, velocity=0, time=1),\n",
      "    Message('note_on', channel=0, note=44, velocity=0, time=0),\n",
      "    Message('note_on', channel=0, note=79, velocity=0, time=0),\n",
      "    Message('note_on', channel=0, note=80, velocity=0, time=1),\n",
      "    Message('note_on', channel=0, note=60, velocity=0, time=0),\n",
      "    Message('note_on', channel=0, note=65, velocity=0, time=0),\n",
      "    Message('note_on', channel=0, note=74, velocity=0, time=0),\n",
      "    Message('note_on', channel=0, note=77, velocity=0, time=1),\n",
      "    Message('note_on', channel=0, note=32, velocity=0, time=13),\n",
      "    Message('note_on', channel=0, note=72, velocity=0, time=0),\n",
      "    Message('note_on', channel=0, note=75, velocity=85, time=13),\n",
      "    Message('note_on', channel=0, note=31, velocity=60, time=13),\n",
      "    Message('note_on', channel=0, note=43, velocity=59, time=1),\n",
      "    Message('control_change', channel=0, control=64, value=127, time=158),\n",
      "    Message('control_change', channel=0, control=64, value=0, time=161),\n",
      "    Message('control_change', channel=0, control=64, value=127, time=154),\n",
      "    Message('note_on', channel=0, note=60, velocity=71, time=392),\n",
      "    Message('note_on', channel=0, note=51, velocity=60, time=2),\n",
      "    Message('note_on', channel=0, note=55, velocity=60, time=2),\n",
      "    Message('note_on', channel=0, note=72, velocity=86, time=562),\n",
      "    Message('note_on', channel=0, note=74, velocity=82, time=123),\n",
      "    Message('note_on', channel=0, note=72, velocity=0, time=94),\n",
      "    Message('note_on', channel=0, note=72, velocity=85, time=6),\n",
      "    Message('note_on', channel=0, note=67, velocity=80, time=118),\n",
      "    Message('note_on', channel=0, note=31, velocity=0, time=6),\n",
      "    Message('note_on', channel=0, note=43, velocity=0, time=0),\n",
      "    Message('note_on', channel=0, note=43, velocity=67, time=6),\n",
      "    Message('note_on', channel=0, note=31, velocity=71, time=0),\n",
      "    Message('note_on', channel=0, note=55, velocity=0, time=27),\n",
      "    Message('control_change', channel=0, control=64, value=0, time=1),\n",
      "    Message('note_on', channel=0, note=51, velocity=0, time=0),\n",
      "    Message('note_on', channel=0, note=60, velocity=0, time=0),\n",
      "    Message('note_on', channel=0, note=74, velocity=0, time=0),\n",
      "    Message('note_on', channel=0, note=72, velocity=0, time=1),\n",
      "    Message('note_on', channel=0, note=75, velocity=0, time=2),\n",
      "    Message('control_change', channel=0, control=64, value=127, time=240),\n",
      "    Message('note_on', channel=0, note=59, velocity=81, time=725),\n",
      "    Message('note_on', channel=0, note=55, velocity=69, time=0),\n",
      "    Message('note_on', channel=0, note=50, velocity=66, time=2),\n",
      "    Message('note_on', channel=0, note=67, velocity=0, time=740),\n",
      "    Message('note_on', channel=0, note=67, velocity=88, time=8),\n",
      "    Message('note_on', channel=0, note=68, velocity=85, time=142),\n",
      "    Message('note_on', channel=0, note=67, velocity=0, time=103),\n",
      "    Message('note_on', channel=0, note=67, velocity=78, time=10),\n",
      "    Message('note_on', channel=0, note=60, velocity=88, time=122),\n",
      "    Message('note_on', channel=0, note=36, velocity=88, time=14),\n",
      "    Message('note_on', channel=0, note=24, velocity=89, time=3),\n",
      "    Message('control_change', channel=0, control=64, value=0, time=46),\n",
      "    Message('note_on', channel=0, note=43, velocity=0, time=6),\n",
      "    Message('note_on', channel=0, note=31, velocity=0, time=0),\n",
      "    Message('note_on', channel=0, note=68, velocity=0, time=0),\n",
      "    Message('note_on', channel=0, note=67, velocity=0, time=1),\n",
      "    Message('note_on', channel=0, note=55, velocity=0, time=0),\n",
      "    Message('note_on', channel=0, note=59, velocity=0, time=1),\n",
      "    Message('note_on', channel=0, note=50, velocity=0, time=0),\n",
      "    Message('control_change', channel=0, control=64, value=127, time=219),\n",
      "    Message('control_change', channel=0, control=64, value=0, time=8),\n",
      "    Message('control_change', channel=0, control=64, value=127, time=161),\n",
      "    Message('note_on', channel=0, note=58, velocity=80, time=458),\n",
      "    Message('note_on', channel=0, note=55, velocity=60, time=5),\n",
      "    Message('note_on', channel=0, note=60, velocity=0, time=904),\n",
      "    Message('note_on', channel=0, note=57, velocity=58, time=12),\n",
      "    Message('note_on', channel=0, note=54, velocity=43, time=8),\n",
      "    Message('control_change', channel=0, control=64, value=0, time=54),\n",
      "    Message('note_on', channel=0, note=58, velocity=0, time=11),\n",
      "    Message('control_change', channel=0, control=64, value=127, time=169),\n",
      "    Message('note_on', channel=0, note=55, velocity=0, time=238),\n",
      "    Message('note_on', channel=0, note=24, velocity=0, time=108),\n",
      "    Message('note_on', channel=0, note=54, velocity=0, time=360),\n",
      "    Message('note_on', channel=0, note=53, velocity=34, time=183),\n",
      "    Message('note_on', channel=0, note=56, velocity=42, time=8),\n",
      "    Message('control_change', channel=0, control=64, value=0, time=48),\n",
      "    Message('control_change', channel=0, control=64, value=127, time=138),\n",
      "    Message('note_on', channel=0, note=57, velocity=0, time=7),\n",
      "    Message('note_on', channel=0, note=64, velocity=39, time=1405),\n",
      "    Message('note_on', channel=0, note=36, velocity=0, time=9),\n",
      "    Message('note_on', channel=0, note=52, velocity=30, time=6),\n",
      "    Message('note_on', channel=0, note=48, velocity=28, time=4),\n",
      "    Message('note_on', channel=0, note=55, velocity=25, time=0),\n",
      "    Message('note_on', channel=0, note=36, velocity=29, time=0),\n",
      "    Message('control_change', channel=0, control=64, value=0, time=50),\n",
      "    Message('note_on', channel=0, note=56, velocity=0, time=15),\n",
      "    Message('note_on', channel=0, note=53, velocity=0, time=1),\n",
      "    Message('control_change', channel=0, control=64, value=127, time=238),\n",
      "    Message('note_on', channel=0, note=62, velocity=38, time=1197),\n",
      "    Message('note_on', channel=0, note=31, velocity=30, time=7),\n",
      "    Message('note_on', channel=0, note=59, velocity=30, time=6),\n",
      "    Message('note_on', channel=0, note=43, velocity=26, time=0),\n",
      "    Message('note_on', channel=0, note=53, velocity=24, time=1),\n",
      "    Message('note_on', channel=0, note=64, velocity=0, time=21),\n",
      "    Message('note_on', channel=0, note=52, velocity=0, time=0),\n",
      "    Message('control_change', channel=0, control=64, value=0, time=8),\n",
      "    Message('note_on', channel=0, note=36, velocity=0, time=12),\n",
      "    Message('note_on', channel=0, note=48, velocity=0, time=0),\n",
      "    Message('control_change', channel=0, control=64, value=127, time=162),\n",
      "    Message('note_on', channel=0, note=59, velocity=0, time=483),\n",
      "    Message('note_on', channel=0, note=64, velocity=47, time=3),\n",
      "    Message('note_on', channel=0, note=59, velocity=29, time=4),\n",
      "    Message('note_on', channel=0, note=43, velocity=0, time=9),\n",
      "    Message('note_on', channel=0, note=43, velocity=26, time=4),\n",
      "    Message('note_on', channel=0, note=55, velocity=0, time=19),\n",
      "    Message('note_on', channel=0, note=55, velocity=14, time=5),\n",
      "    Message('note_on', channel=0, note=31, velocity=0, time=9),\n",
      "    Message('note_on', channel=0, note=53, velocity=0, time=3),\n",
      "    Message('note_on', channel=0, note=62, velocity=0, time=1),\n",
      "    Message('control_change', channel=0, control=64, value=0, time=6),\n",
      "    Message('control_change', channel=0, control=64, value=127, time=91),\n",
      "    Message('note_on', channel=0, note=65, velocity=45, time=482),\n",
      "    Message('note_on', channel=0, note=43, velocity=0, time=10),\n",
      "    Message('note_on', channel=0, note=59, velocity=0, time=0),\n",
      "    Message('note_on', channel=0, note=59, velocity=35, time=6),\n",
      "    Message('note_on', channel=0, note=43, velocity=29, time=0),\n",
      "    Message('note_on', channel=0, note=55, velocity=0, time=1),\n",
      "    Message('note_on', channel=0, note=53, velocity=25, time=3),\n",
      "    Message('note_on', channel=0, note=55, velocity=23, time=3),\n",
      "    Message('control_change', channel=0, control=64, value=0, time=56),\n",
      "    Message('note_on', channel=0, note=64, velocity=0, time=76),\n",
      "    Message('note_on', channel=0, note=64, velocity=50, time=12),\n",
      "    Message('note_on', channel=0, note=59, velocity=0, time=16),\n",
      "    Message('note_on', channel=0, note=65, velocity=0, time=1),\n",
      "    Message('note_on', channel=0, note=60, velocity=33, time=5),\n",
      "    Message('note_on', channel=0, note=48, velocity=25, time=2),\n",
      "    Message('note_on', channel=0, note=53, velocity=0, time=3),\n",
      "    Message('note_on', channel=0, note=55, velocity=0, time=0),\n",
      "    Message('note_on', channel=0, note=36, velocity=22, time=1),\n",
      "    Message('note_on', channel=0, note=52, velocity=25, time=4),\n",
      "    Message('note_on', channel=0, note=55, velocity=17, time=5),\n",
      "    Message('control_change', channel=0, control=64, value=127, time=151),\n",
      "    Message('control_change', channel=0, control=64, value=0, time=16),\n",
      "    Message('control_change', channel=0, control=64, value=127, time=84),\n",
      "    Message('note_on', channel=0, note=55, velocity=0, time=484),\n",
      "    Message('note_on', channel=0, note=52, velocity=0, time=8),\n",
      "    Message('note_on', channel=0, note=55, velocity=34, time=3),\n",
      "    Message('note_on', channel=0, note=52, velocity=32, time=8),\n",
      "    Message('note_on', channel=0, note=36, velocity=0, time=4),\n",
      "    Message('note_on', channel=0, note=36, velocity=30, time=11),\n",
      "    Message('control_change', channel=0, control=64, value=0, time=53),\n",
      "    Message('control_change', channel=0, control=64, value=127, time=20),\n",
      "    Message('note_on', channel=0, note=60, velocity=0, time=653),\n",
      "    Message('note_on', channel=0, note=60, velocity=39, time=6),\n",
      "    Message('note_on', channel=0, note=52, velocity=0, time=10),\n",
      "    Message('note_on', channel=0, note=55, velocity=0, time=0),\n",
      "    Message('note_on', channel=0, note=55, velocity=25, time=5),\n",
      "    Message('note_on', channel=0, note=52, velocity=27, time=2),\n",
      "    Message('note_on', channel=0, note=36, velocity=0, time=0),\n",
      "    Message('note_on', channel=0, note=43, velocity=0, time=0),\n",
      "    Message('note_on', channel=0, note=48, velocity=0, time=0),\n",
      "    Message('note_on', channel=0, note=43, velocity=23, time=5),\n",
      "    Message('note_on', channel=0, note=36, velocity=24, time=0),\n",
      "    Message('note_on', channel=0, note=48, velocity=26, time=4),\n",
      "    Message('note_on', channel=0, note=64, velocity=0, time=752),\n",
      "    Message('note_on', channel=0, note=64, velocity=50, time=7),\n",
      "    Message('note_on', channel=0, note=36, velocity=0, time=16),\n",
      "    Message('note_on', channel=0, note=48, velocity=0, time=0),\n",
      "    Message('note_on', channel=0, note=55, velocity=0, time=0),\n",
      "    Message('note_on', channel=0, note=60, velocity=0, time=0),\n",
      "    Message('note_on', channel=0, note=55, velocity=25, time=5),\n",
      "    Message('note_on', channel=0, note=48, velocity=25, time=5),\n",
      "    Message('note_on', channel=0, note=36, velocity=25, time=0),\n",
      "    Message('note_on', channel=0, note=60, velocity=19, time=1),\n",
      "    Message('note_on', channel=0, note=67, velocity=51, time=898),\n",
      "    Message('note_on', channel=0, note=43, velocity=0, time=12),\n",
      "    Message('note_on', channel=0, note=52, velocity=0, time=0),\n",
      "    Message('note_on', channel=0, note=60, velocity=0, time=0),\n",
      "    Message('note_on', channel=0, note=52, velocity=29, time=5),\n",
      "    Message('note_on', channel=0, note=60, velocity=33, time=2),\n",
      "    Message('note_on', channel=0, note=36, velocity=0, time=1),\n",
      "    Message('note_on', channel=0, note=55, velocity=0, time=0),\n",
      "    Message('note_on', channel=0, note=43, velocity=25, time=3),\n",
      "    Message('note_on', channel=0, note=36, velocity=25, time=2),\n",
      "    Message('note_on', channel=0, note=55, velocity=27, time=6),\n",
      "    Message('control_change', channel=0, control=64, value=0, time=43),\n",
      "    Message('control_change', channel=0, control=64, value=127, time=15),\n",
      "    Message('note_on', channel=0, note=64, velocity=0, time=1421),\n",
      "    Message('note_on', channel=0, note=64, velocity=47, time=4),\n",
      "    Message('note_on', channel=0, note=60, velocity=0, time=3),\n",
      "    Message('note_on', channel=0, note=60, velocity=30, time=4),\n",
      "    Message('note_on', channel=0, note=57, velocity=33, time=8),\n",
      "    Message('note_on', channel=0, note=52, velocity=0, time=4),\n",
      "    Message('note_on', channel=0, note=52, velocity=27, time=4),\n",
      "    Message('note_on', channel=0, note=45, velocity=32, time=4),\n",
      "    Message('note_on', channel=0, note=48, velocity=0, time=34),\n",
      "    Message('control_change', channel=0, control=64, value=0, time=1),\n",
      "    Message('note_on', channel=0, note=67, velocity=0, time=1),\n",
      "    Message('note_on', channel=0, note=36, velocity=0, time=1),\n",
      "    Message('note_on', channel=0, note=43, velocity=0, time=3),\n",
      "    Message('note_on', channel=0, note=55, velocity=0, time=13),\n",
      "    Message('control_change', channel=0, control=64, value=127, time=162),\n",
      "    Message('note_on', channel=0, note=64, velocity=0, time=483),\n",
      "    Message('note_on', channel=0, note=64, velocity=38, time=11),\n",
      "    Message('note_on', channel=0, note=52, velocity=0, time=66),\n",
      "    Message('note_on', channel=0, note=57, velocity=0, time=0),\n",
      "    Message('note_on', channel=0, note=45, velocity=0, time=8),\n",
      "    Message('note_on', channel=0, note=57, velocity=35, time=2),\n",
      "    Message('note_on', channel=0, note=62, velocity=37, time=0),\n",
      "    Message('note_on', channel=0, note=52, velocity=31, time=1),\n",
      "    Message('note_on', channel=0, note=45, velocity=29, time=8),\n",
      "    Message('note_on', channel=0, note=33, velocity=27, time=1),\n",
      "    Message('note_on', channel=0, note=64, velocity=0, time=24),\n",
      "    Message('control_change', channel=0, control=64, value=0, time=3),\n",
      "    Message('note_on', channel=0, note=60, velocity=0, time=22),\n",
      "    Message('control_change', channel=0, control=64, value=127, time=123),\n",
      "    Message('note_on', channel=0, note=60, velocity=47, time=585),\n",
      "    Message('note_on', channel=0, note=57, velocity=0, time=7),\n",
      "    Message('note_on', channel=0, note=33, velocity=0, time=7),\n",
      "    Message('note_on', channel=0, note=52, velocity=0, time=0),\n",
      "    Message('note_on', channel=0, note=57, velocity=41, time=2),\n",
      "    Message('note_on', channel=0, note=52, velocity=37, time=2),\n",
      "    Message('note_on', channel=0, note=45, velocity=0, time=4),\n",
      "    Message('note_on', channel=0, note=33, velocity=33, time=3),\n",
      "    Message('note_on', channel=0, note=45, velocity=34, time=1),\n",
      "    Message('note_on', channel=0, note=60, velocity=0, time=149),\n",
      "    Message('note_on', channel=0, note=62, velocity=0, time=0),\n",
      "    Message('note_on', channel=0, note=62, velocity=45, time=7),\n",
      "    Message('note_on', channel=0, note=60, velocity=34, time=0),\n",
      "    Message('note_on', channel=0, note=57, velocity=0, time=1),\n",
      "    Message('note_on', channel=0, note=57, velocity=32, time=10),\n",
      "    Message('note_on', channel=0, note=54, velocity=29, time=1),\n",
      "    Message('note_on', channel=0, note=38, velocity=26, time=8),\n",
      "    Message('note_on', channel=0, note=50, velocity=26, time=0),\n",
      "    Message('control_change', channel=0, control=64, value=0, time=3),\n",
      "    Message('note_on', channel=0, note=52, velocity=0, time=5),\n",
      "    Message('note_on', channel=0, note=33, velocity=0, time=12),\n",
      "    Message('control_change', channel=0, control=64, value=127, time=376),\n",
      "    Message('note_on', channel=0, note=62, velocity=0, time=1137),\n",
      "    Message('note_on', channel=0, note=62, velocity=28, time=4),\n",
      "    Message('note_on', channel=0, note=59, velocity=34, time=19),\n",
      "    Message('note_on', channel=0, note=55, velocity=25, time=4),\n",
      "    Message('note_on', channel=0, note=50, velocity=0, time=11),\n",
      "    Message('note_on', channel=0, note=50, velocity=21, time=5),\n",
      "    Message('note_on', channel=0, note=31, velocity=27, time=1),\n",
      "    Message('note_on', channel=0, note=43, velocity=25, time=1),\n",
      "    Message('control_change', channel=0, control=64, value=0, time=26),\n",
      "    Message('note_on', channel=0, note=54, velocity=0, time=16),\n",
      "    Message('note_on', channel=0, note=45, velocity=0, time=3),\n",
      "    Message('note_on', channel=0, note=38, velocity=0, time=1),\n",
      "    Message('note_on', channel=0, note=57, velocity=0, time=8),\n",
      "    Message('note_on', channel=0, note=60, velocity=0, time=0),\n",
      "    Message('control_change', channel=0, control=64, value=127, time=162),\n",
      "    Message('note_on', channel=0, note=31, velocity=0, time=599),\n",
      "    Message('note_on', channel=0, note=55, velocity=0, time=46),\n",
      "    Message('note_on', channel=0, note=59, velocity=0, time=0),\n",
      "    Message('note_on', channel=0, note=59, velocity=36, time=4),\n",
      "    Message('note_on', channel=0, note=67, velocity=37, time=2),\n",
      "    Message('note_on', channel=0, note=55, velocity=31, time=2),\n",
      "    Message('note_on', channel=0, note=65, velocity=36, time=6),\n",
      "    Message('note_on', channel=0, note=43, velocity=0, time=1),\n",
      "    Message('note_on', channel=0, note=53, velocity=29, time=3),\n",
      "    Message('note_on', channel=0, note=63, velocity=30, time=2),\n",
      "    Message('note_on', channel=0, note=43, velocity=27, time=5),\n",
      "    Message('control_change', channel=0, control=64, value=0, time=19),\n",
      "    Message('note_on', channel=0, note=50, velocity=0, time=8),\n",
      "    Message('note_on', channel=0, note=62, velocity=0, time=17),\n",
      "    Message('control_change', channel=0, control=64, value=127, time=138),\n",
      "    Message('control_change', channel=0, control=64, value=0, time=642),\n",
      "    Message('note_on', channel=0, note=65, velocity=0, time=6),\n",
      "    Message('note_on', channel=0, note=67, velocity=0, time=0),\n",
      "    Message('note_on', channel=0, note=53, velocity=0, time=1),\n",
      "    Message('note_on', channel=0, note=63, velocity=0, time=0),\n",
      "    Message('note_on', channel=0, note=55, velocity=0, time=12),\n",
      "    Message('note_on', channel=0, note=59, velocity=0, time=0),\n",
      "    Message('note_on', channel=0, note=36, velocity=40, time=26),\n",
      "    Message('note_on', channel=0, note=43, velocity=0, time=43),\n",
      "    Message('control_change', channel=0, control=64, value=127, time=15),\n",
      "    Message('note_on', channel=0, note=43, velocity=21, time=69),\n",
      "    Message('note_on', channel=0, note=48, velocity=36, time=74),\n",
      "    Message('note_on', channel=0, note=76, velocity=45, time=69),\n",
      "    Message('note_on', channel=0, note=67, velocity=36, time=10),\n",
      "    Message('note_on', channel=0, note=55, velocity=35, time=12),\n",
      "    Message('note_on', channel=0, note=64, velocity=38, time=1),\n",
      "    Message('note_on', channel=0, note=36, velocity=0, time=1217),\n",
      "    Message('note_on', channel=0, note=36, velocity=39, time=9),\n",
      "    Message('note_on', channel=0, note=43, velocity=0, time=67),\n",
      "    Message('note_on', channel=0, note=43, velocity=37, time=9),\n",
      "    Message('note_on', channel=0, note=74, velocity=49, time=157),\n",
      "    Message('note_on', channel=0, note=67, velocity=0, time=3),\n",
      "    Message('note_on', channel=0, note=62, velocity=38, time=6),\n",
      "    Message('note_on', channel=0, note=67, velocity=36, time=1),\n",
      "    Message('note_on', channel=0, note=55, velocity=0, time=1),\n",
      "    Message('note_on', channel=0, note=53, velocity=29, time=4),\n",
      "    Message('note_on', channel=0, note=55, velocity=33, time=1),\n",
      "    Message('note_on', channel=0, note=36, velocity=0, time=579),\n",
      "    Message('note_on', channel=0, note=36, velocity=24, time=4),\n",
      "    Message('note_on', channel=0, note=43, velocity=0, time=65),\n",
      "    Message('note_on', channel=0, note=43, velocity=35, time=9),\n",
      "    Message('note_on', channel=0, note=76, velocity=0, time=83),\n",
      "    Message('note_on', channel=0, note=43, velocity=0, time=8),\n",
      "    Message('note_on', channel=0, note=64, velocity=0, time=0),\n",
      "    Message('note_on', channel=0, note=67, velocity=0, time=0),\n",
      "    Message('note_on', channel=0, note=76, velocity=52, time=1),\n",
      "    Message('note_on', channel=0, note=72, velocity=43, time=4),\n",
      "    Message('note_on', channel=0, note=67, velocity=42, time=1),\n",
      "    Message('note_on', channel=0, note=64, velocity=47, time=2),\n",
      "    Message('note_on', channel=0, note=43, velocity=30, time=3),\n",
      "    Message('note_on', channel=0, note=55, velocity=0, time=4),\n",
      "    Message('note_on', channel=0, note=55, velocity=30, time=5),\n",
      "    Message('note_on', channel=0, note=36, velocity=0, time=233),\n",
      "    Message('note_on', channel=0, note=36, velocity=45, time=4),\n",
      "    Message('note_on', channel=0, note=77, velocity=55, time=170),\n",
      "    Message('note_on', channel=0, note=62, velocity=0, time=3),\n",
      "    Message('note_on', channel=0, note=74, velocity=0, time=3),\n",
      "    Message('note_on', channel=0, note=71, velocity=43, time=5),\n",
      "    Message('note_on', channel=0, note=62, velocity=36, time=3),\n",
      "    Message('note_on', channel=0, note=65, velocity=42, time=2),\n",
      "    Message('note_on', channel=0, note=43, velocity=0, time=2),\n",
      "    Message('note_on', channel=0, note=55, velocity=0, time=0),\n",
      "    Message('note_on', channel=0, note=43, velocity=32, time=4),\n",
      "    Message('note_on', channel=0, note=50, velocity=40, time=1),\n",
      "    Message('note_on', channel=0, note=55, velocity=35, time=1),\n",
      "    Message('note_on', channel=0, note=43, velocity=0, time=370),\n",
      "    Message('note_on', channel=0, note=43, velocity=39, time=7),\n",
      "    Message('note_on', channel=0, note=48, velocity=0, time=47),\n",
      "    Message('note_on', channel=0, note=76, velocity=0, time=0),\n",
      "    Message('note_on', channel=0, note=64, velocity=0, time=8),\n",
      "    Message('note_on', channel=0, note=67, velocity=0, time=0),\n",
      "    Message('note_on', channel=0, note=72, velocity=0, time=0),\n",
      "    Message('note_on', channel=0, note=48, velocity=37, time=1),\n",
      "    Message('note_on', channel=0, note=76, velocity=57, time=0),\n",
      "    Message('note_on', channel=0, note=64, velocity=49, time=5),\n",
      "    Message('note_on', channel=0, note=67, velocity=41, time=1),\n",
      "    Message('note_on', channel=0, note=72, velocity=47, time=4),\n",
      "    Message('control_change', channel=0, control=64, value=0, time=3),\n",
      "    Message('note_on', channel=0, note=71, velocity=0, time=0),\n",
      "    Message('note_on', channel=0, note=65, velocity=0, time=0),\n",
      "    Message('note_on', channel=0, note=62, velocity=0, time=1),\n",
      "    Message('note_on', channel=0, note=50, velocity=0, time=2),\n",
      "    Message('note_on', channel=0, note=77, velocity=0, time=0),\n",
      "    Message('note_on', channel=0, note=53, velocity=0, time=0),\n",
      "    Message('note_on', channel=0, note=55, velocity=0, time=21),\n",
      "    Message('note_on', channel=0, note=55, velocity=36, time=8),\n",
      "    Message('control_change', channel=0, control=64, value=127, time=246),\n",
      "    Message('note_on', channel=0, note=67, velocity=0, time=484),\n",
      "    Message('note_on', channel=0, note=67, velocity=42, time=10),\n",
      "    Message('note_on', channel=0, note=43, velocity=0, time=5),\n",
      "    Message('note_on', channel=0, note=55, velocity=0, time=0),\n",
      "    Message('note_on', channel=0, note=64, velocity=0, time=0),\n",
      "    Message('note_on', channel=0, note=36, velocity=0, time=8),\n",
      "    Message('note_on', channel=0, note=64, velocity=37, time=2),\n",
      "    Message('note_on', channel=0, note=43, velocity=33, time=1),\n",
      "    Message('note_on', channel=0, note=55, velocity=35, time=0),\n",
      "    Message('note_on', channel=0, note=60, velocity=27, time=2),\n",
      "    Message('note_on', channel=0, note=36, velocity=33, time=1),\n",
      "    Message('note_on', channel=0, note=52, velocity=34, time=0),\n",
      "    Message('control_change', channel=0, control=64, value=0, time=2),\n",
      "    Message('control_change', channel=0, control=64, value=127, time=53),\n",
      "    Message('note_on', channel=0, note=60, velocity=0, time=822),\n",
      "    Message('note_on', channel=0, note=64, velocity=0, time=0),\n",
      "    Message('note_on', channel=0, note=72, velocity=0, time=0),\n",
      "    Message('note_on', channel=0, note=72, velocity=47, time=5),\n",
      "    Message('note_on', channel=0, note=64, velocity=44, time=2),\n",
      "    Message('note_on', channel=0, note=69, velocity=40, time=2),\n",
      "    Message('note_on', channel=0, note=57, velocity=39, time=1),\n",
      "    Message('note_on', channel=0, note=60, velocity=41, time=1),\n",
      "    Message('note_on', channel=0, note=57, velocity=0, time=4),\n",
      "    Message('note_on', channel=0, note=52, velocity=0, time=8),\n",
      "    Message('control_change', channel=0, control=64, value=0, time=2),\n",
      "    Message('note_on', channel=0, note=36, velocity=0, time=1),\n",
      "    Message('note_on', channel=0, note=55, velocity=0, time=1),\n",
      "    Message('note_on', channel=0, note=45, velocity=34, time=0),\n",
      "    Message('note_on', channel=0, note=52, velocity=35, time=0),\n",
      "    Message('note_on', channel=0, note=48, velocity=0, time=19),\n",
      "    Message('note_on', channel=0, note=76, velocity=0, time=0),\n",
      "    Message('note_on', channel=0, note=43, velocity=0, time=8),\n",
      "    Message('note_on', channel=0, note=67, velocity=0, time=0),\n",
      "    Message('control_change', channel=0, control=64, value=127, time=161),\n",
      "    Message('note_on', channel=0, note=40, velocity=29, time=538),\n",
      "    Message('note_on', channel=0, note=52, velocity=0, time=3),\n",
      "    Message('note_on', channel=0, note=45, velocity=0, time=0),\n",
      "    Message('note_on', channel=0, note=69, velocity=0, time=2),\n",
      "    Message('control_change', channel=0, control=64, value=0, time=0),\n",
      "    Message('note_on', channel=0, note=72, velocity=0, time=2),\n",
      "    Message('note_on', channel=0, note=60, velocity=0, time=8),\n",
      "    Message('note_on', channel=0, note=64, velocity=0, time=15),\n",
      "    Message('control_change', channel=0, control=64, value=127, time=39),\n",
      "    Message('note_on', channel=0, note=52, velocity=35, time=32),\n",
      "    Message('note_on', channel=0, note=76, velocity=45, time=121),\n",
      "    Message('note_on', channel=0, note=64, velocity=38, time=2),\n",
      "    Message('note_on', channel=0, note=67, velocity=26, time=15),\n",
      "    Message('note_on', channel=0, note=71, velocity=41, time=4),\n",
      "    Message('note_on', channel=0, note=59, velocity=48, time=0),\n",
      "    Message('note_on', channel=0, note=36, velocity=37, time=790),\n",
      "    Message('control_change', channel=0, control=64, value=0, time=21),\n",
      "    Message('note_on', channel=0, note=40, velocity=0, time=2),\n",
      "    Message('note_on', channel=0, note=52, velocity=0, time=1),\n",
      "    Message('note_on', channel=0, note=59, velocity=0, time=0),\n",
      "    Message('note_on', channel=0, note=67, velocity=0, time=1),\n",
      "    Message('note_on', channel=0, note=64, velocity=0, time=3),\n",
      "    Message('note_on', channel=0, note=71, velocity=0, time=1),\n",
      "    Message('note_on', channel=0, note=76, velocity=0, time=0),\n",
      "    Message('note_on', channel=0, note=43, velocity=35, time=55),\n",
      "    Message('control_change', channel=0, control=64, value=127, time=27),\n",
      "    Message('note_on', channel=0, note=36, velocity=0, time=4),\n",
      "    Message('note_on', channel=0, note=48, velocity=33, time=57),\n",
      "    Message('note_on', channel=0, note=52, velocity=46, time=94),\n",
      "    Message('note_on', channel=0, note=55, velocity=34, time=78),\n",
      "    Message('note_on', channel=0, note=60, velocity=51, time=65),\n",
      "    Message('note_on', channel=0, note=64, velocity=45, time=16),\n",
      "    Message('note_on', channel=0, note=67, velocity=43, time=73),\n",
      "    Message('note_on', channel=0, note=43, velocity=0, time=20),\n",
      "    Message('note_on', channel=0, note=72, velocity=49, time=44),\n",
      "    Message('note_on', channel=0, note=76, velocity=42, time=78),\n",
      "    Message('note_on', channel=0, note=79, velocity=51, time=71),\n",
      "    Message('note_on', channel=0, note=40, velocity=25, time=1431),\n",
      "    Message('note_on', channel=0, note=35, velocity=25, time=69),\n",
      "    Message('note_on', channel=0, note=35, velocity=0, time=4),\n",
      "    Message('note_on', channel=0, note=64, velocity=0, time=8),\n",
      "    Message('note_on', channel=0, note=47, velocity=27, time=3),\n",
      "    Message('note_on', channel=0, note=64, velocity=43, time=1),\n",
      "    Message('note_on', channel=0, note=76, velocity=0, time=19),\n",
      "    Message('note_on', channel=0, note=55, velocity=0, time=6),\n",
      "    Message('note_on', channel=0, note=76, velocity=50, time=1),\n",
      "    Message('note_on', channel=0, note=56, velocity=37, time=1),\n",
      "    Message('note_on', channel=0, note=72, velocity=0, time=3),\n",
      "    Message('note_on', channel=0, note=68, velocity=39, time=3),\n",
      "    Message('note_on', channel=0, note=71, velocity=36, time=7),\n",
      "    Message('control_change', channel=0, control=64, value=0, time=27),\n",
      "    Message('control_change', channel=0, control=64, value=127, time=90),\n",
      "    Message('note_on', channel=0, note=67, velocity=0, time=461),\n",
      "    Message('note_on', channel=0, note=60, velocity=0, time=284),\n",
      "    Message('note_on', channel=0, note=57, velocity=32, time=7),\n",
      "    Message('note_on', channel=0, note=74, velocity=41, time=2),\n",
      "    Message('note_on', channel=0, note=60, velocity=30, time=0),\n",
      "    Message('note_on', channel=0, note=62, velocity=35, time=2),\n",
      "    Message('note_on', channel=0, note=69, velocity=32, time=3),\n",
      "    Message('control_change', channel=0, control=64, value=0, time=6),\n",
      "    Message('note_on', channel=0, note=50, velocity=25, time=0),\n",
      "    Message('note_on', channel=0, note=41, velocity=29, time=3),\n",
      "    Message('note_on', channel=0, note=79, velocity=0, time=0),\n",
      "    Message('note_on', channel=0, note=40, velocity=0, time=7),\n",
      "    Message('note_on', channel=0, note=48, velocity=0, time=1),\n",
      "    Message('note_on', channel=0, note=68, velocity=0, time=0),\n",
      "    Message('note_on', channel=0, note=71, velocity=0, time=0),\n",
      "    Message('note_on', channel=0, note=56, velocity=0, time=1),\n",
      "    Message('note_on', channel=0, note=64, velocity=0, time=0),\n",
      "    Message('note_on', channel=0, note=76, velocity=0, time=1),\n",
      "    Message('note_on', channel=0, note=52, velocity=0, time=1),\n",
      "    Message('note_on', channel=0, note=47, velocity=0, time=4),\n",
      "    Message('control_change', channel=0, control=64, value=127, time=123),\n",
      "    Message('note_on', channel=0, note=59, velocity=44, time=625),\n",
      "    Message('note_on', channel=0, note=67, velocity=42, time=2),\n",
      "    Message('control_change', channel=0, control=64, value=0, time=1),\n",
      "    Message('note_on', channel=0, note=50, velocity=0, time=2),\n",
      "    Message('note_on', channel=0, note=57, velocity=0, time=1),\n",
      "    Message('note_on', channel=0, note=69, velocity=0, time=2),\n",
      "    Message('note_on', channel=0, note=55, velocity=32, time=0),\n",
      "    Message('note_on', channel=0, note=74, velocity=0, time=1),\n",
      "    Message('note_on', channel=0, note=62, velocity=0, time=0),\n",
      "    Message('note_on', channel=0, note=41, velocity=0, time=0),\n",
      "    Message('note_on', channel=0, note=43, velocity=27, time=3),\n",
      "    Message('note_on', channel=0, note=55, velocity=0, time=1),\n",
      "    Message('note_on', channel=0, note=50, velocity=23, time=3),\n",
      "    Message('note_on', channel=0, note=65, velocity=24, time=2),\n",
      "    Message('note_on', channel=0, note=60, velocity=0, time=10),\n",
      "    Message('control_change', channel=0, control=64, value=127, time=92),\n",
      "    Message('note_on', channel=0, note=59, velocity=0, time=8),\n",
      "    Message('note_on', channel=0, note=59, velocity=62, time=5),\n",
      "    Message('note_on', channel=0, note=67, velocity=0, time=149),\n",
      "    Message('note_on', channel=0, note=74, velocity=60, time=4),\n",
      "    Message('note_on', channel=0, note=67, velocity=38, time=5),\n",
      "    Message('note_on', channel=0, note=59, velocity=0, time=14),\n",
      "    Message('control_change', channel=0, control=64, value=0, time=7),\n",
      "    Message('note_on', channel=0, note=59, velocity=38, time=1),\n",
      "    Message('control_change', channel=0, control=64, value=127, time=84),\n",
      "    Message('note_on', channel=0, note=65, velocity=0, time=284),\n",
      "    Message('note_on', channel=0, note=31, velocity=35, time=511),\n",
      "    Message('note_on', channel=0, note=31, velocity=0, time=804),\n",
      "    Message('note_on', channel=0, note=50, velocity=0, time=1),\n",
      "    Message('note_on', channel=0, note=74, velocity=0, time=0),\n",
      "    Message('note_on', channel=0, note=67, velocity=0, time=0),\n",
      "    Message('note_on', channel=0, note=43, velocity=0, time=1),\n",
      "    Message('note_on', channel=0, note=59, velocity=0, time=0),\n",
      "    Message('control_change', channel=0, control=64, value=0, time=1),\n",
      "    Message('note_on', channel=0, note=36, velocity=36, time=21),\n",
      "    Message('note_on', channel=0, note=36, velocity=0, time=72),\n",
      "    Message('note_on', channel=0, note=43, velocity=28, time=10),\n",
      "    Message('control_change', channel=0, control=64, value=127, time=84),\n",
      "    Message('note_on', channel=0, note=36, velocity=24, time=11),\n",
      "    Message('note_on', channel=0, note=48, velocity=26, time=2),\n",
      "    Message('note_on', channel=0, note=72, velocity=43, time=21),\n",
      "    Message('note_on', channel=0, note=60, velocity=33, time=4),\n",
      "    Message('note_on', channel=0, note=64, velocity=29, time=8),\n",
      "    Message('note_on', channel=0, note=67, velocity=26, time=11),\n",
      "    Message('note_on', channel=0, note=55, velocity=31, time=4),\n",
      "    Message('control_change', channel=0, control=64, value=0, time=24),\n",
      "    Message('control_change', channel=0, control=64, value=127, time=99),\n",
      "    Message('note_on', channel=0, note=43, velocity=0, time=1395),\n",
      "    Message('note_on', channel=0, note=67, velocity=0, time=0),\n",
      "    Message('note_on', channel=0, note=36, velocity=0, time=0),\n",
      "    Message('note_on', channel=0, note=64, velocity=0, time=2),\n",
      "    Message('note_on', channel=0, note=55, velocity=0, time=0),\n",
      "    Message('note_on', channel=0, note=72, velocity=0, time=2),\n",
      "    Message('note_on', channel=0, note=60, velocity=0, time=2),\n",
      "    Message('control_change', channel=0, control=64, value=0, time=1),\n",
      "    Message('note_on', channel=0, note=48, velocity=0, time=4),\n",
      "    Message('note_on', channel=0, note=41, velocity=33, time=133),\n",
      "    Message('note_on', channel=0, note=41, velocity=0, time=42),\n",
      "    Message('note_on', channel=0, note=48, velocity=39, time=17),\n",
      "    Message('control_change', channel=0, control=64, value=127, time=38),\n",
      "    Message('note_on', channel=0, note=53, velocity=34, time=24),\n",
      "    Message('note_on', channel=0, note=81, velocity=55, time=41),\n",
      "    Message('note_on', channel=0, note=69, velocity=46, time=7),\n",
      "    Message('note_on', channel=0, note=72, velocity=49, time=1),\n",
      "    Message('note_on', channel=0, note=60, velocity=36, time=31),\n",
      "    Message('note_on', channel=0, note=72, velocity=0, time=1340),\n",
      "    Message('note_on', channel=0, note=79, velocity=49, time=3),\n",
      "    Message('note_on', channel=0, note=72, velocity=42, time=6),\n",
      "    Message('note_on', channel=0, note=67, velocity=33, time=2),\n",
      "    Message('note_on', channel=0, note=48, velocity=0, time=12),\n",
      "    Message('note_on', channel=0, note=55, velocity=29, time=5),\n",
      "    Message('note_on', channel=0, note=48, velocity=28, time=1),\n",
      "    Message('control_change', channel=0, control=64, value=0, time=5),\n",
      "    Message('note_on', channel=0, note=69, velocity=0, time=0),\n",
      "    Message('note_on', channel=0, note=60, velocity=0, time=1),\n",
      "    Message('note_on', channel=0, note=81, velocity=0, time=0),\n",
      "    Message('note_on', channel=0, note=53, velocity=0, time=0),\n",
      "    Message('note_on', channel=0, note=40, velocity=25, time=0),\n",
      "    Message('control_change', channel=0, control=64, value=127, time=119),\n",
      "    Message('note_on', channel=0, note=39, velocity=31, time=480),\n",
      "    Message('note_on', channel=0, note=48, velocity=0, time=65),\n",
      "    Message('note_on', channel=0, note=48, velocity=34, time=7),\n",
      "    Message('note_on', channel=0, note=81, velocity=53, time=12),\n",
      "    Message('note_on', channel=0, note=72, velocity=0, time=4),\n",
      "    Message('note_on', channel=0, note=55, velocity=0, time=4),\n",
      "    Message('note_on', channel=0, note=72, velocity=42, time=1),\n",
      "    Message('note_on', channel=0, note=40, velocity=0, time=1),\n",
      "    Message('note_on', channel=0, note=67, velocity=0, time=2),\n",
      "    Message('note_on', channel=0, note=69, velocity=41, time=1),\n",
      "    Message('control_change', channel=0, control=64, value=0, time=1),\n",
      "    Message('note_on', channel=0, note=79, velocity=0, time=1),\n",
      "    Message('note_on', channel=0, note=67, velocity=38, time=1),\n",
      "    Message('note_on', channel=0, note=57, velocity=42, time=23),\n",
      "    Message('note_on', channel=0, note=39, velocity=0, time=11),\n",
      "    Message('control_change', channel=0, control=64, value=127, time=8),\n",
      "    Message('control_change', channel=0, control=64, value=0, time=472),\n",
      "    Message('note_on', channel=0, note=69, velocity=0, time=0),\n",
      "    Message('note_on', channel=0, note=57, velocity=0, time=0),\n",
      "    Message('note_on', channel=0, note=81, velocity=0, time=0),\n",
      "    Message('note_on', channel=0, note=67, velocity=0, time=0),\n",
      "    Message('note_on', channel=0, note=72, velocity=0, time=1),\n",
      "    Message('note_on', channel=0, note=48, velocity=0, time=11),\n",
      "    Message('note_on', channel=0, note=38, velocity=40, time=12),\n",
      "    Message('control_change', channel=0, control=64, value=127, time=18),\n",
      "    Message('note_on', channel=0, note=45, velocity=31, time=89),\n",
      "    Message('note_on', channel=0, note=78, velocity=50, time=140),\n",
      "    Message('note_on', channel=0, note=38, velocity=0, time=2),\n",
      "    Message('note_on', channel=0, note=74, velocity=45, time=2),\n",
      "    Message('note_on', channel=0, note=38, velocity=32, time=3),\n",
      "    Message('note_on', channel=0, note=66, velocity=36, time=4),\n",
      "    Message('note_on', channel=0, note=69, velocity=38, time=6),\n",
      "    Message('note_on', channel=0, note=50, velocity=27, time=9),\n",
      "    Message('note_on', channel=0, note=57, velocity=41, time=5),\n",
      "    Message('note_on', channel=0, note=74, velocity=0, time=731),\n",
      "    Message('note_on', channel=0, note=42, velocity=47, time=1),\n",
      "    Message('note_on', channel=0, note=74, velocity=46, time=3),\n",
      "    Message('note_on', channel=0, note=50, velocity=0, time=11),\n",
      "    Message('note_on', channel=0, note=69, velocity=0, time=0),\n",
      "    Message('note_on', channel=0, note=69, velocity=40, time=5),\n",
      "    Message('note_on', channel=0, note=62, velocity=35, time=0),\n",
      "    Message('note_on', channel=0, note=57, velocity=0, time=3),\n",
      "    Message('note_on', channel=0, note=50, velocity=36, time=1),\n",
      "    Message('note_on', channel=0, note=60, velocity=33, time=3),\n",
      "    Message('note_on', channel=0, note=57, velocity=34, time=1),\n",
      "    Message('control_change', channel=0, control=64, value=0, time=6),\n",
      "    Message('note_on', channel=0, note=38, velocity=0, time=1),\n",
      "    Message('note_on', channel=0, note=66, velocity=0, time=3),\n",
      "    Message('note_on', channel=0, note=45, velocity=0, time=0),\n",
      "    Message('note_on', channel=0, note=78, velocity=0, time=1),\n",
      "    Message('control_change', channel=0, control=64, value=127, time=138),\n",
      "    Message('note_on', channel=0, note=74, velocity=0, time=438),\n",
      "    Message('note_on', channel=0, note=58, velocity=46, time=7),\n",
      "    Message('note_on', channel=0, note=42, velocity=0, time=0),\n",
      "    Message('note_on', channel=0, note=50, velocity=0, time=0),\n",
      "    Message('note_on', channel=0, note=62, velocity=0, time=0),\n",
      "    Message('note_on', channel=0, note=74, velocity=57, time=2),\n",
      "    Message('note_on', channel=0, note=42, velocity=42, time=4),\n",
      "    Message('note_on', channel=0, note=50, velocity=41, time=1),\n",
      "    Message('note_on', channel=0, note=62, velocity=46, time=2),\n",
      "    Message('note_on', channel=0, note=57, velocity=0, time=7),\n",
      "    Message('note_on', channel=0, note=60, velocity=0, time=7),\n",
      "    Message('note_on', channel=0, note=43, velocity=52, time=127),\n",
      "    Message('note_on', channel=0, note=74, velocity=0, time=4),\n",
      "    Message('note_on', channel=0, note=50, velocity=0, time=7),\n",
      "    Message('note_on', channel=0, note=62, velocity=0, time=0),\n",
      "    Message('note_on', channel=0, note=42, velocity=0, time=1),\n",
      "    Message('note_on', channel=0, note=58, velocity=0, time=1),\n",
      "    Message('note_on', channel=0, note=74, velocity=48, time=1),\n",
      "    Message('note_on', channel=0, note=71, velocity=46, time=3),\n",
      "    Message('note_on', channel=0, note=50, velocity=36, time=1),\n",
      "    Message('note_on', channel=0, note=59, velocity=44, time=2),\n",
      "    Message('note_on', channel=0, note=55, velocity=38, time=1),\n",
      "    Message('note_on', channel=0, note=62, velocity=38, time=1),\n",
      "    Message('note_on', channel=0, note=67, velocity=31, time=1),\n",
      "    Message('control_change', channel=0, control=64, value=0, time=1),\n",
      "    Message('note_on', channel=0, note=69, velocity=0, time=3),\n",
      "    Message('control_change', channel=0, control=64, value=127, time=223),\n",
      "    Message('note_on', channel=0, note=62, velocity=0, time=499),\n",
      "    Message('note_on', channel=0, note=74, velocity=0, time=0),\n",
      "    Message('note_on', channel=0, note=45, velocity=36, time=1),\n",
      "    Message('note_on', channel=0, note=66, velocity=35, time=2),\n",
      "    Message('note_on', channel=0, note=74, velocity=40, time=4),\n",
      "    Message('note_on', channel=0, note=50, velocity=0, time=0),\n",
      "    Message('note_on', channel=0, note=62, velocity=33, time=3),\n",
      "    Message('note_on', channel=0, note=60, velocity=27, time=2),\n",
      "    Message('note_on', channel=0, note=50, velocity=26, time=1),\n",
      "    Message('control_change', channel=0, control=64, value=0, time=4),\n",
      "    Message('note_on', channel=0, note=55, velocity=0, time=3),\n",
      "    Message('note_on', channel=0, note=59, velocity=0, time=0),\n",
      "    Message('note_on', channel=0, note=71, velocity=0, time=0),\n",
      "    Message('note_on', channel=0, note=43, velocity=0, time=2),\n",
      "    Message('note_on', channel=0, note=67, velocity=0, time=8),\n",
      "    Message('control_change', channel=0, control=64, value=127, time=192),\n",
      "    Message('note_on', channel=0, note=45, velocity=0, time=448),\n",
      "    Message('note_on', channel=0, note=66, velocity=0, time=1),\n",
      "    Message('control_change', channel=0, control=64, value=0, time=1),\n",
      "    Message('note_on', channel=0, note=50, velocity=0, time=1),\n",
      "    Message('note_on', channel=0, note=60, velocity=0, time=1),\n",
      "    Message('note_on', channel=0, note=43, velocity=50, time=0),\n",
      "    Message('note_on', channel=0, note=62, velocity=0, time=9),\n",
      "    Message('note_on', channel=0, note=74, velocity=0, time=8),\n",
      "    Message('control_change', channel=0, control=64, value=127, time=92),\n",
      "    Message('note_on', channel=0, note=50, velocity=43, time=6),\n",
      "    Message('note_on', channel=0, note=83, velocity=55, time=148),\n",
      "    Message('note_on', channel=0, note=74, velocity=46, time=3),\n",
      "    Message('note_on', channel=0, note=71, velocity=41, time=16),\n",
      "    Message('note_on', channel=0, note=67, velocity=31, time=7),\n",
      "    Message('note_on', channel=0, note=62, velocity=46, time=2),\n",
      "    Message('note_on', channel=0, note=67, velocity=0, time=2),\n",
      "    Message('note_on', channel=0, note=55, velocity=28, time=2),\n",
      "    Message('note_on', channel=0, note=42, velocity=40, time=1379),\n",
      "    Message('note_on', channel=0, note=81, velocity=51, time=19),\n",
      "    Message('note_on', channel=0, note=74, velocity=0, time=21),\n",
      "    Message('control_change', channel=0, control=64, value=0, time=3),\n",
      "    Message('note_on', channel=0, note=74, velocity=43, time=3),\n",
      "    Message('note_on', channel=0, note=69, velocity=33, time=6),\n",
      "    Message('note_on', channel=0, note=50, velocity=0, time=4),\n",
      "    Message('note_on', channel=0, note=50, velocity=31, time=4),\n",
      "    Message('note_on', channel=0, note=57, velocity=31, time=9),\n",
      "    Message('note_on', channel=0, note=62, velocity=0, time=4),\n",
      "    Message('note_on', channel=0, note=71, velocity=0, time=8),\n",
      "    Message('note_on', channel=0, note=43, velocity=0, time=5),\n",
      "    Message('note_on', channel=0, note=83, velocity=0, time=3),\n",
      "    Message('note_on', channel=0, note=55, velocity=0, time=20),\n",
      "    Message('control_change', channel=0, control=64, value=127, time=100),\n",
      "    Message('note_on', channel=0, note=41, velocity=45, time=454),\n",
      "    Message('control_change', channel=0, control=64, value=0, time=17),\n",
      "    Message('note_on', channel=0, note=42, velocity=0, time=67),\n",
      "    Message('note_on', channel=0, note=47, velocity=32, time=3),\n",
      "    Message('note_on', channel=0, note=57, velocity=0, time=19),\n",
      "    Message('note_on', channel=0, note=74, velocity=0, time=3),\n",
      "    Message('note_on', channel=0, note=69, velocity=0, time=0),\n",
      "    Message('note_on', channel=0, note=50, velocity=0, time=1),\n",
      "    Message('note_on', channel=0, note=81, velocity=0, time=0),\n",
      "    Message('note_on', channel=0, note=83, velocity=50, time=18),\n",
      "    Message('note_on', channel=0, note=75, velocity=42, time=12),\n",
      "    Message('note_on', channel=0, note=71, velocity=39, time=2),\n",
      "    Message('note_on', channel=0, note=47, velocity=0, time=3),\n",
      "    Message('note_on', channel=0, note=51, velocity=34, time=4),\n",
      "    Message('note_on', channel=0, note=78, velocity=32, time=1),\n",
      "    Message('note_on', channel=0, note=47, velocity=33, time=0),\n",
      "    Message('note_on', channel=0, note=78, velocity=0, time=11),\n",
      "    Message('note_on', channel=0, note=59, velocity=39, time=4),\n",
      "    Message('control_change', channel=0, control=64, value=127, time=49),\n",
      "    Message('note_on', channel=0, note=41, velocity=0, time=54),\n",
      "    Message('control_change', channel=0, control=64, value=0, time=500),\n",
      "    Message('note_on', channel=0, note=40, velocity=42, time=1),\n",
      "    Message('note_on', channel=0, note=47, velocity=0, time=8),\n",
      "    Message('note_on', channel=0, note=83, velocity=0, time=2),\n",
      "    Message('note_on', channel=0, note=75, velocity=0, time=0),\n",
      "    Message('note_on', channel=0, note=51, velocity=0, time=0),\n",
      "    Message('note_on', channel=0, note=59, velocity=0, time=0),\n",
      "    Message('note_on', channel=0, note=47, velocity=31, time=89),\n",
      "    Message('note_on', channel=0, note=52, velocity=36, time=80),\n",
      "    Message('note_on', channel=0, note=71, velocity=0, time=73),\n",
      "    Message('note_on', channel=0, note=80, velocity=49, time=6),\n",
      "    Message('note_on', channel=0, note=76, velocity=40, time=4),\n",
      "    Message('note_on', channel=0, note=71, velocity=38, time=0),\n",
      "    Message('note_on', channel=0, note=68, velocity=39, time=3),\n",
      "    Message('note_on', channel=0, note=59, velocity=45, time=101),\n",
      "    Message('control_change', channel=0, control=64, value=127, time=147),\n",
      "    Message('note_on', channel=0, note=40, velocity=0, time=1037),\n",
      "    Message('note_on', channel=0, note=40, velocity=30, time=11),\n",
      "    Message('control_change', channel=0, control=64, value=0, time=56),\n",
      "    Message('note_on', channel=0, note=76, velocity=0, time=4),\n",
      "    Message('note_on', channel=0, note=68, velocity=0, time=0),\n",
      "    Message('note_on', channel=0, note=80, velocity=0, time=0),\n",
      "    Message('note_on', channel=0, note=59, velocity=0, time=0),\n",
      "    Message('note_on', channel=0, note=52, velocity=0, time=0),\n",
      "    Message('note_on', channel=0, note=71, velocity=0, time=2),\n",
      "    Message('note_on', channel=0, note=47, velocity=0, time=19),\n",
      "    Message('note_on', channel=0, note=47, velocity=30, time=9),\n",
      "    Message('control_change', channel=0, control=64, value=127, time=45),\n",
      "    Message('note_on', channel=0, note=52, velocity=34, time=40),\n",
      "    Message('note_on', channel=0, note=79, velocity=45, time=101),\n",
      "    Message('note_on', channel=0, note=67, velocity=33, time=7),\n",
      "    Message('note_on', channel=0, note=59, velocity=33, time=40),\n",
      "    Message('note_on', channel=0, note=79, velocity=0, time=887),\n",
      "    Message('note_on', channel=0, note=59, velocity=0, time=7),\n",
      "    Message('note_on', channel=0, note=79, velocity=39, time=2),\n",
      "    Message('note_on', channel=0, note=59, velocity=32, time=7),\n",
      "    Message('control_change', channel=0, control=64, value=0, time=1),\n",
      "    Message('note_on', channel=0, note=74, velocity=35, time=1),\n",
      "    Message('note_on', channel=0, note=71, velocity=33, time=2),\n",
      "    Message('note_on', channel=0, note=43, velocity=26, time=3),\n",
      "    Message('note_on', channel=0, note=50, velocity=19, time=2),\n",
      "    Message('note_on', channel=0, note=52, velocity=0, time=0),\n",
      "    Message('note_on', channel=0, note=47, velocity=0, time=2),\n",
      "    Message('note_on', channel=0, note=40, velocity=0, time=4),\n",
      "    Message('note_on', channel=0, note=67, velocity=0, time=0),\n",
      "    Message('note_on', channel=0, note=65, velocity=24, time=0),\n",
      "    Message('note_on', channel=0, note=67, velocity=25, time=3),\n",
      "    Message('note_on', channel=0, note=77, velocity=44, time=336),\n",
      "    Message('control_change', channel=0, control=64, value=127, time=129),\n",
      "    Message('note_on', channel=0, note=76, velocity=44, time=734),\n",
      "    Message('note_on', channel=0, note=50, velocity=0, time=39),\n",
      "    Message('note_on', channel=0, note=67, velocity=0, time=3),\n",
      "    Message('note_on', channel=0, note=65, velocity=0, time=1),\n",
      "    Message('note_on', channel=0, note=74, velocity=0, time=0),\n",
      "    Message('note_on', channel=0, note=77, velocity=0, time=1),\n",
      "    Message('note_on', channel=0, note=71, velocity=0, time=0),\n",
      "    Message('note_on', channel=0, note=59, velocity=0, time=5),\n",
      "    Message('control_change', channel=0, control=64, value=0, time=2),\n",
      "    Message('note_on', channel=0, note=43, velocity=0, time=6),\n",
      "    Message('note_on', channel=0, note=79, velocity=0, time=15),\n",
      "    Message('note_on', channel=0, note=36, velocity=27, time=35),\n",
      "    Message('control_change', channel=0, control=64, value=127, time=65),\n",
      "    Message('note_on', channel=0, note=43, velocity=26, time=1),\n",
      "    Message('note_on', channel=0, note=48, velocity=31, time=110),\n",
      "    Message('note_on', channel=0, note=64, velocity=46, time=39),\n",
      "    Message('note_on', channel=0, note=72, velocity=36, time=30),\n",
      "    Message('note_on', channel=0, note=79, velocity=42, time=1),\n",
      "    Message('note_on', channel=0, note=67, velocity=33, time=4),\n",
      "    Message('note_on', channel=0, note=55, velocity=31, time=7),\n",
      "    Message('note_on', channel=0, note=36, velocity=0, time=1214),\n",
      "    Message('note_on', channel=0, note=36, velocity=34, time=9),\n",
      "    Message('note_on', channel=0, note=67, velocity=0, time=65),\n",
      "    Message('note_on', channel=0, note=55, velocity=0, time=2),\n",
      "    Message('note_on', channel=0, note=43, velocity=0, time=0),\n",
      "    Message('note_on', channel=0, note=64, velocity=0, time=1),\n",
      "    Message('control_change', channel=0, control=64, value=0, time=0),\n",
      "    Message('note_on', channel=0, note=76, velocity=0, time=2),\n",
      "    Message('note_on', channel=0, note=72, velocity=0, time=0),\n",
      "    Message('note_on', channel=0, note=43, velocity=34, time=3),\n",
      "    Message('note_on', channel=0, note=79, velocity=0, time=18),\n",
      "    Message('note_on', channel=0, note=48, velocity=0, time=7),\n",
      "    Message('note_on', channel=0, note=79, velocity=44, time=75),\n",
      "    Message('note_on', channel=0, note=74, velocity=44, time=2),\n",
      "    Message('note_on', channel=0, note=71, velocity=35, time=20),\n",
      "    Message('note_on', channel=0, note=67, velocity=37, time=3),\n",
      "    Message('note_on', channel=0, note=65, velocity=27, time=4),\n",
      "    Message('note_on', channel=0, note=55, velocity=43, time=7),\n",
      "    Message('control_change', channel=0, control=64, value=127, time=158),\n",
      "    Message('note_on', channel=0, note=36, velocity=0, time=445),\n",
      "    Message('note_on', channel=0, note=36, velocity=29, time=11),\n",
      "    Message('note_on', channel=0, note=43, velocity=0, time=66),\n",
      "    Message('note_on', channel=0, note=43, velocity=28, time=10),\n",
      "    Message('note_on', channel=0, note=79, velocity=0, time=52),\n",
      "    Message('note_on', channel=0, note=79, velocity=47, time=6),\n",
      "    Message('note_on', channel=0, note=67, velocity=0, time=1),\n",
      "    Message('note_on', channel=0, note=76, velocity=43, time=6),\n",
      "    Message('note_on', channel=0, note=71, velocity=0, time=2),\n",
      "    Message('note_on', channel=0, note=67, velocity=36, time=4),\n",
      "    Message('note_on', channel=0, note=71, velocity=37, time=3),\n",
      "    Message('note_on', channel=0, note=55, velocity=0, time=8),\n",
      "    Message('note_on', channel=0, note=65, velocity=0, time=0),\n",
      "    Message('note_on', channel=0, note=65, velocity=28, time=4),\n",
      "    Message('note_on', channel=0, note=55, velocity=38, time=2),\n",
      "    Message('note_on', channel=0, note=43, velocity=0, time=117),\n",
      "    Message('note_on', channel=0, note=43, velocity=21, time=10),\n",
      "    Message('note_on', channel=0, note=36, velocity=0, time=121),\n",
      "    Message('note_on', channel=0, note=36, velocity=33, time=4),\n",
      "    Message('note_on', channel=0, note=43, velocity=0, time=80),\n",
      "    Message('note_on', channel=0, note=43, velocity=26, time=8),\n",
      "    Message('note_on', channel=0, note=79, velocity=0, time=46),\n",
      "    Message('note_on', channel=0, note=79, velocity=52, time=6),\n",
      "    Message('note_on', channel=0, note=71, velocity=0, time=2),\n",
      "    Message('note_on', channel=0, note=77, velocity=50, time=1),\n",
      "    Message('note_on', channel=0, note=48, velocity=23, time=4),\n",
      "    Message('note_on', channel=0, note=71, velocity=38, time=1),\n",
      "    Message('note_on', channel=0, note=65, velocity=0, time=1),\n",
      "    Message('note_on', channel=0, note=65, velocity=32, time=5),\n",
      "    Message('note_on', channel=0, note=67, velocity=0, time=3),\n",
      "    Message('note_on', channel=0, note=67, velocity=34, time=6),\n",
      "    Message('note_on', channel=0, note=55, velocity=0, time=2),\n",
      "    Message('note_on', channel=0, note=55, velocity=37, time=4),\n",
      "    Message('note_on', channel=0, note=36, velocity=0, time=226),\n",
      "    Message('note_on', channel=0, note=36, velocity=33, time=10),\n",
      "    Message('note_on', channel=0, note=43, velocity=0, time=67),\n",
      "    Message('note_on', channel=0, note=43, velocity=31, time=4),\n",
      "    Message('note_on', channel=0, note=48, velocity=0, time=57),\n",
      "    Message('control_change', channel=0, control=64, value=0, time=2),\n",
      "    Message('note_on', channel=0, note=65, velocity=0, time=0),\n",
      "    Message('note_on', channel=0, note=55, velocity=0, time=2),\n",
      "    Message('note_on', channel=0, note=74, velocity=0, time=0),\n",
      "    Message('note_on', channel=0, note=79, velocity=0, time=1),\n",
      "    Message('note_on', channel=0, note=48, velocity=29, time=0),\n",
      "    Message('note_on', channel=0, note=77, velocity=0, time=18),\n",
      "    Message('note_on', channel=0, note=64, velocity=46, time=5),\n",
      "    Message('note_on', channel=0, note=71, velocity=0, time=11),\n",
      "    Message('note_on', channel=0, note=43, velocity=0, time=15),\n",
      "    Message('note_on', channel=0, note=76, velocity=0, time=0),\n",
      "    Message('note_on', channel=0, note=72, velocity=41, time=2),\n",
      "    Message('note_on', channel=0, note=76, velocity=45, time=2),\n",
      "    Message('note_on', channel=0, note=79, velocity=52, time=1),\n",
      "    Message('note_on', channel=0, note=43, velocity=29, time=5),\n",
      "    Message('control_change', channel=0, control=64, value=127, time=198),\n",
      "    Message('note_on', channel=0, note=67, velocity=0, time=430),\n",
      "    Message('note_on', channel=0, note=64, velocity=0, time=207),\n",
      "    Message('note_on', channel=0, note=36, velocity=0, time=8),\n",
      "    Message('note_on', channel=0, note=43, velocity=0, time=0),\n",
      "    Message('note_on', channel=0, note=67, velocity=43, time=1),\n",
      "    Message('note_on', channel=0, note=64, velocity=42, time=1),\n",
      "    Message('note_on', channel=0, note=60, velocity=32, time=2),\n",
      "    Message('note_on', channel=0, note=43, velocity=28, time=0),\n",
      "    Message('note_on', channel=0, note=36, velocity=28, time=0),\n",
      "    Message('note_on', channel=0, note=52, velocity=32, time=1),\n",
      "    Message('note_on', channel=0, note=55, velocity=33, time=0),\n",
      "    Message('control_change', channel=0, control=64, value=0, time=21),\n",
      "    Message('control_change', channel=0, control=64, value=127, time=43),\n",
      "    Message('note_on', channel=0, note=79, velocity=0, time=130),\n",
      "    Message('note_on', channel=0, note=60, velocity=0, time=753),\n",
      "    Message('note_on', channel=0, note=72, velocity=0, time=0),\n",
      "    Message('note_on', channel=0, note=72, velocity=48, time=5),\n",
      "    Message('note_on', channel=0, note=57, velocity=38, time=1),\n",
      "    Message('note_on', channel=0, note=64, velocity=0, time=2),\n",
      "    Message('note_on', channel=0, note=60, velocity=36, time=2),\n",
      "    Message('note_on', channel=0, note=64, velocity=39, time=2),\n",
      "    Message('note_on', channel=0, note=69, velocity=40, time=1),\n",
      "    Message('note_on', channel=0, note=52, velocity=0, time=2),\n",
      "    Message('note_on', channel=0, note=57, velocity=0, time=0),\n",
      "    Message('note_on', channel=0, note=52, velocity=33, time=5),\n",
      "    Message('note_on', channel=0, note=45, velocity=35, time=8),\n",
      "    Message('note_on', channel=0, note=36, velocity=0, time=11),\n",
      "    Message('note_on', channel=0, note=67, velocity=0, time=2),\n",
      "    Message('note_on', channel=0, note=55, velocity=0, time=1),\n",
      "    Message('note_on', channel=0, note=43, velocity=0, time=0),\n",
      "    Message('control_change', channel=0, control=64, value=0, time=1),\n",
      "    Message('note_on', channel=0, note=76, velocity=0, time=0),\n",
      "    Message('note_on', channel=0, note=48, velocity=0, time=95),\n",
      "    Message('control_change', channel=0, control=64, value=127, time=62),\n",
      "    Message('note_on', channel=0, note=43, velocity=41, time=574),\n",
      "    Message('note_on', channel=0, note=60, velocity=0, time=109),\n",
      "    Message('note_on', channel=0, note=60, velocity=52, time=5),\n",
      "    Message('note_on', channel=0, note=52, velocity=0, time=3),\n",
      "    Message('note_on', channel=0, note=64, velocity=0, time=8),\n",
      "    Message('note_on', channel=0, note=72, velocity=0, time=0),\n",
      "    Message('note_on', channel=0, note=52, velocity=43, time=3),\n",
      "    Message('note_on', channel=0, note=72, velocity=50, time=1),\n",
      "    Message('note_on', channel=0, note=76, velocity=59, time=4),\n",
      "    Message('note_on', channel=0, note=64, velocity=51, time=2),\n",
      "    Message('note_on', channel=0, note=67, velocity=43, time=4),\n",
      "    Message('control_change', channel=0, control=64, value=0, time=27),\n",
      "    Message('note_on', channel=0, note=45, velocity=0, time=3),\n",
      "    Message('note_on', channel=0, note=69, velocity=0, time=1),\n",
      "    Message('control_change', channel=0, control=64, value=127, time=162),\n",
      "    Message('note_on', channel=0, note=76, velocity=0, time=822),\n",
      "    Message('note_on', channel=0, note=79, velocity=65, time=6),\n",
      "    Message('note_on', channel=0, note=43, velocity=0, time=1),\n",
      "    Message('note_on', channel=0, note=67, velocity=0, time=0),\n",
      "    Message('note_on', channel=0, note=72, velocity=0, time=0),\n",
      "    Message('note_on', channel=0, note=76, velocity=54, time=4),\n",
      "    Message('note_on', channel=0, note=72, velocity=54, time=1),\n",
      "    Message('note_on', channel=0, note=31, velocity=44, time=0),\n",
      "    Message('note_on', channel=0, note=43, velocity=39, time=3),\n",
      "    Message('note_on', channel=0, note=67, velocity=41, time=4),\n",
      "    Message('control_change', channel=0, control=64, value=0, time=29),\n",
      "    Message('note_on', channel=0, note=52, velocity=0, time=13),\n",
      "    Message('note_on', channel=0, note=60, velocity=0, time=0),\n",
      "    Message('note_on', channel=0, note=64, velocity=0, time=8),\n",
      "    Message('control_change', channel=0, control=64, value=127, time=146),\n",
      "    Message('note_on', channel=0, note=66, velocity=39, time=357),\n",
      "    Message('note_on', channel=0, note=54, velocity=39, time=5),\n",
      "    Message('note_on', channel=0, note=42, velocity=29, time=30),\n",
      "    Message('note_on', channel=0, note=30, velocity=27, time=4),\n",
      "    Message('note_on', channel=0, note=67, velocity=0, time=88),\n",
      "    Message('note_on', channel=0, note=67, velocity=49, time=7),\n",
      "    Message('note_on', channel=0, note=30, velocity=0, time=16),\n",
      "    Message('note_on', channel=0, note=31, velocity=0, time=0),\n",
      "    Message('note_on', channel=0, note=43, velocity=0, time=0),\n",
      "    Message('note_on', channel=0, note=43, velocity=44, time=5),\n",
      "    Message('note_on', channel=0, note=55, velocity=38, time=0),\n",
      "    Message('note_on', channel=0, note=31, velocity=43, time=4),\n",
      "    Message('note_on', channel=0, note=67, velocity=0, time=75),\n",
      "    Message('note_on', channel=0, note=67, velocity=54, time=11),\n",
      "    Message('note_on', channel=0, note=31, velocity=0, time=20),\n",
      "    Message('note_on', channel=0, note=43, velocity=0, time=0),\n",
      "    Message('note_on', channel=0, note=55, velocity=0, time=0),\n",
      "    Message('note_on', channel=0, note=55, velocity=42, time=5),\n",
      "    Message('note_on', channel=0, note=43, velocity=48, time=1),\n",
      "    Message('note_on', channel=0, note=31, velocity=41, time=2),\n",
      "    Message('note_on', channel=0, note=31, velocity=0, time=92),\n",
      "    Message('note_on', channel=0, note=43, velocity=0, time=0),\n",
      "    Message('note_on', channel=0, note=55, velocity=0, time=0),\n",
      "    Message('note_on', channel=0, note=67, velocity=0, time=0),\n",
      "    Message('note_on', channel=0, note=67, velocity=56, time=4),\n",
      "    Message('note_on', channel=0, note=31, velocity=43, time=5),\n",
      "    Message('note_on', channel=0, note=43, velocity=47, time=1),\n",
      "    Message('note_on', channel=0, note=55, velocity=54, time=0),\n",
      "    Message('note_on', channel=0, note=68, velocity=63, time=105),\n",
      "    Message('note_on', channel=0, note=32, velocity=50, time=12),\n",
      "    Message('note_on', channel=0, note=56, velocity=53, time=1),\n",
      "    Message('note_on', channel=0, note=44, velocity=51, time=4),\n",
      "    Message('note_on', channel=0, note=32, velocity=0, time=83),\n",
      "    Message('note_on', channel=0, note=56, velocity=0, time=0),\n",
      "    Message('note_on', channel=0, note=68, velocity=0, time=0),\n",
      "    Message('note_on', channel=0, note=44, velocity=0, time=7),\n",
      "    Message('note_on', channel=0, note=56, velocity=52, time=0),\n",
      "    Message('note_on', channel=0, note=32, velocity=49, time=3),\n",
      "    Message('note_on', channel=0, note=68, velocity=57, time=0),\n",
      "    Message('note_on', channel=0, note=44, velocity=49, time=2),\n",
      "    Message('note_on', channel=0, note=32, velocity=0, time=95),\n",
      "    Message('note_on', channel=0, note=44, velocity=0, time=0),\n",
      "    Message('note_on', channel=0, note=56, velocity=0, time=0),\n",
      "    Message('note_on', channel=0, note=68, velocity=0, time=0),\n",
      "    Message('note_on', channel=0, note=68, velocity=52, time=5),\n",
      "    Message('note_on', channel=0, note=32, velocity=45, time=4),\n",
      "    Message('note_on', channel=0, note=44, velocity=49, time=0),\n",
      "    Message('note_on', channel=0, note=56, velocity=49, time=1),\n",
      "    Message('note_on', channel=0, note=31, velocity=0, time=105),\n",
      "    Message('note_on', channel=0, note=43, velocity=0, time=0),\n",
      "    Message('note_on', channel=0, note=67, velocity=0, time=0),\n",
      "    Message('note_on', channel=0, note=67, velocity=45, time=6),\n",
      "    Message('note_on', channel=0, note=43, velocity=51, time=0),\n",
      "    Message('note_on', channel=0, note=31, velocity=47, time=5),\n",
      "    Message('note_on', channel=0, note=67, velocity=0, time=97),\n",
      "    Message('note_on', channel=0, note=67, velocity=58, time=4),\n",
      "    Message('note_on', channel=0, note=31, velocity=0, time=4),\n",
      "    Message('note_on', channel=0, note=43, velocity=0, time=0),\n",
      "    Message('note_on', channel=0, note=31, velocity=49, time=6),\n",
      "    Message('note_on', channel=0, note=55, velocity=0, time=1),\n",
      "    Message('note_on', channel=0, note=43, velocity=51, time=3),\n",
      "    Message('note_on', channel=0, note=55, velocity=43, time=3),\n",
      "    Message('note_on', channel=0, note=42, velocity=0, time=171),\n",
      "    Message('note_on', channel=0, note=43, velocity=0, time=38),\n",
      "    Message('note_on', channel=0, note=43, velocity=43, time=4),\n",
      "    Message('note_on', channel=0, note=54, velocity=0, time=35),\n",
      "    Message('note_on', channel=0, note=67, velocity=0, time=7),\n",
      "    Message('note_on', channel=0, note=76, velocity=0, time=0),\n",
      "    Message('note_on', channel=0, note=67, velocity=49, time=6),\n",
      "    Message('note_on', channel=0, note=76, velocity=66, time=2),\n",
      "    Message('note_on', channel=0, note=31, velocity=0, time=5),\n",
      "    Message('note_on', channel=0, note=32, velocity=0, time=0),\n",
      "    Message('note_on', channel=0, note=64, velocity=57, time=1),\n",
      "    Message('note_on', channel=0, note=68, velocity=0, time=0),\n",
      "    Message('note_on', channel=0, note=56, velocity=0, time=4),\n",
      "    Message('note_on', channel=0, note=79, velocity=0, time=0),\n",
      "    Message('note_on', channel=0, note=55, velocity=0, time=0),\n",
      "    Message('note_on', channel=0, note=44, velocity=0, time=0),\n",
      "    Message('note_on', channel=0, note=66, velocity=0, time=5),\n",
      "    Message('note_on', channel=0, note=72, velocity=0, time=0),\n",
      "    Message('control_change', channel=0, control=64, value=0, time=8),\n",
      "    Message('note_on', channel=0, note=60, velocity=45, time=43),\n",
      "    Message('note_on', channel=0, note=59, velocity=41, time=2),\n",
      "    Message('control_change', channel=0, control=64, value=127, time=124),\n",
      "    Message('note_on', channel=0, note=59, velocity=0, time=246),\n",
      "    Message('note_on', channel=0, note=43, velocity=0, time=491),\n",
      "    Message('note_on', channel=0, note=43, velocity=32, time=12),\n",
      "    Message('note_on', channel=0, note=67, velocity=0, time=57),\n",
      "    Message('note_on', channel=0, note=74, velocity=61, time=4),\n",
      "    Message('note_on', channel=0, note=59, velocity=53, time=6),\n",
      "    Message('note_on', channel=0, note=62, velocity=53, time=1),\n",
      "    Message('note_on', channel=0, note=71, velocity=54, time=1),\n",
      "    Message('note_on', channel=0, note=67, velocity=43, time=0),\n",
      "    Message('note_on', channel=0, note=65, velocity=41, time=1),\n",
      "    Message('control_change', channel=0, control=64, value=0, time=32),\n",
      "    Message('note_on', channel=0, note=64, velocity=0, time=1),\n",
      "    Message('note_on', channel=0, note=60, velocity=0, time=3),\n",
      "    Message('note_on', channel=0, note=76, velocity=0, time=13),\n",
      "    Message('control_change', channel=0, control=64, value=127, time=77),\n",
      "    Message('note_on', channel=0, note=59, velocity=0, time=368),\n",
      "    Message('note_on', channel=0, note=65, velocity=0, time=0),\n",
      "    Message('note_on', channel=0, note=67, velocity=0, time=0),\n",
      "    Message('note_on', channel=0, note=59, velocity=52, time=4),\n",
      "    Message('note_on', channel=0, note=67, velocity=58, time=1),\n",
      "    Message('note_on', channel=0, note=43, velocity=0, time=3),\n",
      "    Message('note_on', channel=0, note=65, velocity=49, time=3),\n",
      "    Message('note_on', channel=0, note=55, velocity=46, time=1),\n",
      "    Message('note_on', channel=0, note=31, velocity=49, time=2),\n",
      "    Message('note_on', channel=0, note=43, velocity=48, time=0),\n",
      "    Message('control_change', channel=0, control=64, value=0, time=53),\n",
      "    Message('control_change', channel=0, control=64, value=127, time=33),\n",
      "    Message('note_on', channel=0, note=43, velocity=0, time=323),\n",
      "    Message('note_on', channel=0, note=43, velocity=38, time=8),\n",
      "    Message('note_on', channel=0, note=53, velocity=39, time=85),\n",
      "    Message('note_on', channel=0, note=43, velocity=0, time=14),\n",
      "    Message('note_on', channel=0, note=74, velocity=0, time=0),\n",
      "    Message('note_on', channel=0, note=59, velocity=0, time=8),\n",
      "    Message('note_on', channel=0, note=62, velocity=0, time=0),\n",
      "    Message('note_on', channel=0, note=67, velocity=0, time=0),\n",
      "    Message('note_on', channel=0, note=74, velocity=69, time=2),\n",
      "    Message('note_on', channel=0, note=43, velocity=40, time=1),\n",
      "    Message('note_on', channel=0, note=67, velocity=54, time=1),\n",
      "    Message('note_on', channel=0, note=65, velocity=0, time=4),\n",
      "    Message('note_on', channel=0, note=62, velocity=56, time=2),\n",
      "    Message('note_on', channel=0, note=59, velocity=57, time=1),\n",
      "    Message('note_on', channel=0, note=50, velocity=38, time=0),\n",
      "    Message('note_on', channel=0, note=65, velocity=47, time=4),\n",
      "    Message('control_change', channel=0, control=64, value=0, time=26),\n",
      "    Message('control_change', channel=0, control=64, value=127, time=90),\n",
      "    Message('note_on', channel=0, note=42, velocity=39, time=427),\n",
      "    Message('note_on', channel=0, note=54, velocity=41, time=0),\n",
      "    Message('note_on', channel=0, note=30, velocity=40, time=1),\n",
      "    Message('note_on', channel=0, note=66, velocity=38, time=0),\n",
      "    Message('note_on', channel=0, note=54, velocity=0, time=9),\n",
      "    Message('note_on', channel=0, note=31, velocity=0, time=131),\n",
      "    Message('note_on', channel=0, note=43, velocity=0, time=0),\n",
      "    Message('note_on', channel=0, note=55, velocity=0, time=8),\n",
      "    Message('note_on', channel=0, note=67, velocity=0, time=0),\n",
      "    Message('note_on', channel=0, note=43, velocity=44, time=0),\n",
      "    Message('note_on', channel=0, note=31, velocity=45, time=2),\n",
      "    Message('note_on', channel=0, note=67, velocity=39, time=3),\n",
      "    Message('note_on', channel=0, note=55, velocity=42, time=3),\n",
      "    Message('note_on', channel=0, note=31, velocity=0, time=99),\n",
      "    Message('note_on', channel=0, note=43, velocity=0, time=0),\n",
      "    Message('note_on', channel=0, note=67, velocity=0, time=0),\n",
      "    Message('note_on', channel=0, note=55, velocity=0, time=8),\n",
      "    Message('note_on', channel=0, note=31, velocity=51, time=0),\n",
      "    Message('note_on', channel=0, note=43, velocity=47, time=1),\n",
      "    Message('note_on', channel=0, note=67, velocity=56, time=2),\n",
      "    Message('note_on', channel=0, note=55, velocity=44, time=7),\n",
      "    Message('note_on', channel=0, note=68, velocity=60, time=112),\n",
      "    Message('note_on', channel=0, note=44, velocity=54, time=7),\n",
      "    Message('note_on', channel=0, note=32, velocity=53, time=0),\n",
      "    Message('note_on', channel=0, note=56, velocity=51, time=2),\n",
      "    Message('note_on', channel=0, note=32, velocity=0, time=99),\n",
      "    Message('note_on', channel=0, note=44, velocity=0, time=8),\n",
      "    Message('note_on', channel=0, note=32, velocity=54, time=2),\n",
      "    Message('note_on', channel=0, note=69, velocity=64, time=1),\n",
      "    Message('note_on', channel=0, note=44, velocity=52, time=5),\n",
      "    Message('note_on', channel=0, note=57, velocity=52, time=10),\n",
      "    Message('note_on', channel=0, note=69, velocity=0, time=82),\n",
      "    Message('note_on', channel=0, note=33, velocity=60, time=3),\n",
      "    Message('note_on', channel=0, note=45, velocity=55, time=2),\n",
      "    Message('note_on', channel=0, note=57, velocity=0, time=2),\n",
      "    Message('note_on', channel=0, note=69, velocity=66, time=4),\n",
      "    Message('note_on', channel=0, note=57, velocity=59, time=8),\n",
      "    Message('note_on', channel=0, note=46, velocity=60, time=97),\n",
      "    Message('note_on', channel=0, note=58, velocity=63, time=2),\n",
      "    Message('note_on', channel=0, note=70, velocity=64, time=1),\n",
      "    Message('note_on', channel=0, note=34, velocity=58, time=0),\n",
      "    Message('note_on', channel=0, note=47, velocity=60, time=102),\n",
      "    Message('note_on', channel=0, note=71, velocity=0, time=1),\n",
      "    Message('note_on', channel=0, note=35, velocity=59, time=2),\n",
      "    Message('note_on', channel=0, note=59, velocity=0, time=6),\n",
      "    Message('note_on', channel=0, note=69, velocity=0, time=0),\n",
      "    Message('note_on', channel=0, note=71, velocity=56, time=3),\n",
      "    Message('note_on', channel=0, note=59, velocity=54, time=7),\n",
      "    Message('note_on', channel=0, note=69, velocity=57, time=0),\n",
      "    Message('note_on', channel=0, note=35, velocity=0, time=90),\n",
      "    Message('note_on', channel=0, note=47, velocity=0, time=0),\n",
      "    Message('note_on', channel=0, note=59, velocity=0, time=0),\n",
      "    Message('note_on', channel=0, note=71, velocity=0, time=0),\n",
      "    Message('note_on', channel=0, note=47, velocity=61, time=6),\n",
      "    Message('note_on', channel=0, note=71, velocity=66, time=0),\n",
      "    Message('note_on', channel=0, note=35, velocity=55, time=3),\n",
      "    Message('note_on', channel=0, note=59, velocity=60, time=1),\n",
      "    Message('note_on', channel=0, note=30, velocity=0, time=113),\n",
      "    Message('note_on', channel=0, note=48, velocity=60, time=72),\n",
      "    Message('note_on', channel=0, note=72, velocity=70, time=0),\n",
      "    Message('note_on', channel=0, note=36, velocity=54, time=1),\n",
      "    Message('note_on', channel=0, note=60, velocity=59, time=4),\n",
      "    Message('note_on', channel=0, note=64, velocity=54, time=3),\n",
      "    Message('note_on', channel=0, note=62, velocity=0, time=11),\n",
      "    Message('note_on', channel=0, note=58, velocity=0, time=1),\n",
      "    Message('note_on', channel=0, note=34, velocity=0, time=0),\n",
      "    Message('note_on', channel=0, note=67, velocity=0, time=0),\n",
      "    Message('note_on', channel=0, note=53, velocity=0, time=0),\n",
      "    Message('note_on', channel=0, note=74, velocity=0, time=0),\n",
      "    Message('note_on', channel=0, note=69, velocity=0, time=0),\n",
      "    Message('note_on', channel=0, note=50, velocity=0, time=0),\n",
      "    Message('note_on', channel=0, note=47, velocity=0, time=0),\n",
      "    Message('note_on', channel=0, note=70, velocity=0, time=1),\n",
      "    Message('note_on', channel=0, note=59, velocity=0, time=0),\n",
      "    Message('note_on', channel=0, note=71, velocity=0, time=0),\n",
      "    Message('note_on', channel=0, note=33, velocity=0, time=0),\n",
      "    Message('note_on', channel=0, note=35, velocity=0, time=0),\n",
      "    Message('note_on', channel=0, note=56, velocity=0, time=0),\n",
      "    Message('note_on', channel=0, note=46, velocity=0, time=1),\n",
      "    Message('note_on', channel=0, note=45, velocity=0, time=0),\n",
      "    Message('note_on', channel=0, note=57, velocity=0, time=0),\n",
      "    Message('note_on', channel=0, note=43, velocity=0, time=1),\n",
      "    Message('note_on', channel=0, note=31, velocity=0, time=0),\n",
      "    Message('control_change', channel=0, control=64, value=0, time=0),\n",
      "    Message('note_on', channel=0, note=32, velocity=0, time=0),\n",
      "    Message('note_on', channel=0, note=44, velocity=0, time=1),\n",
      "    Message('note_on', channel=0, note=66, velocity=0, time=4),\n",
      "    Message('note_on', channel=0, note=42, velocity=0, time=7),\n",
      "    Message('note_on', channel=0, note=68, velocity=0, time=0),\n",
      "    Message('note_on', channel=0, note=55, velocity=0, time=8),\n",
      "    Message('note_on', channel=0, note=65, velocity=0, time=0),\n",
      "    Message('control_change', channel=0, control=64, value=127, time=276),\n",
      "    Message('note_on', channel=0, note=41, velocity=41, time=1070),\n",
      "    Message('note_on', channel=0, note=48, velocity=0, time=52),\n",
      "    Message('note_on', channel=0, note=48, velocity=46, time=4),\n",
      "    Message('note_on', channel=0, note=53, velocity=40, time=47),\n",
      "    Message('note_on', channel=0, note=72, velocity=0, time=33),\n",
      "    Message('note_on', channel=0, note=81, velocity=79, time=7),\n",
      "    Message('note_on', channel=0, note=60, velocity=0, time=1),\n",
      "    Message('control_change', channel=0, control=64, value=0, time=1),\n",
      "    Message('note_on', channel=0, note=69, velocity=73, time=1),\n",
      "    Message('note_on', channel=0, note=72, velocity=77, time=0),\n",
      "    Message('note_on', channel=0, note=60, velocity=66, time=9),\n",
      "    Message('note_on', channel=0, note=64, velocity=0, time=4),\n",
      "    Message('note_on', channel=0, note=36, velocity=0, time=8),\n",
      "    Message('control_change', channel=0, control=64, value=127, time=46),\n",
      "    Message('note_on', channel=0, note=47, velocity=36, time=418),\n",
      "    Message('note_on', channel=0, note=71, velocity=48, time=1),\n",
      "    Message('note_on', channel=0, note=35, velocity=36, time=0),\n",
      "    Message('note_on', channel=0, note=59, velocity=42, time=4),\n",
      "    Message('note_on', channel=0, note=48, velocity=0, time=161),\n",
      "    Message('note_on', channel=0, note=60, velocity=0, time=0),\n",
      "    Message('note_on', channel=0, note=72, velocity=0, time=0),\n",
      "    Message('note_on', channel=0, note=72, velocity=46, time=4),\n",
      "    Message('note_on', channel=0, note=48, velocity=45, time=0),\n",
      "    Message('note_on', channel=0, note=60, velocity=46, time=1),\n",
      "    Message('note_on', channel=0, note=36, velocity=39, time=2),\n",
      "    Message('note_on', channel=0, note=69, velocity=0, time=100),\n",
      "    Message('note_on', channel=0, note=72, velocity=0, time=0),\n",
      "    Message('note_on', channel=0, note=69, velocity=42, time=6),\n",
      "    Message('note_on', channel=0, note=72, velocity=49, time=0),\n",
      "    Message('note_on', channel=0, note=48, velocity=0, time=17),\n",
      "    Message('note_on', channel=0, note=60, velocity=0, time=0),\n",
      "    Message('note_on', channel=0, note=60, velocity=35, time=6),\n",
      "    Message('note_on', channel=0, note=36, velocity=0, time=2),\n",
      "    Message('note_on', channel=0, note=48, velocity=38, time=4),\n",
      "    Message('note_on', channel=0, note=36, velocity=29, time=0),\n",
      "    Message('note_on', channel=0, note=36, velocity=0, time=65),\n",
      "    Message('note_on', channel=0, note=48, velocity=0, time=0),\n",
      "    Message('note_on', channel=0, note=60, velocity=0, time=0),\n",
      "    Message('note_on', channel=0, note=72, velocity=0, time=0),\n",
      "    Message('note_on', channel=0, note=72, velocity=63, time=5),\n",
      "    Message('note_on', channel=0, note=48, velocity=54, time=0),\n",
      "    Message('note_on', channel=0, note=36, velocity=44, time=2),\n",
      "    Message('note_on', channel=0, note=60, velocity=49, time=3),\n",
      "    Message('note_on', channel=0, note=73, velocity=68, time=102),\n",
      "    Message('note_on', channel=0, note=61, velocity=51, time=8),\n",
      "    Message('note_on', channel=0, note=37, velocity=51, time=1),\n",
      "    Message('note_on', channel=0, note=49, velocity=55, time=0),\n",
      "    Message('note_on', channel=0, note=61, velocity=0, time=94),\n",
      "    Message('note_on', channel=0, note=73, velocity=0, time=0),\n",
      "    Message('note_on', channel=0, note=73, velocity=61, time=5),\n",
      "    Message('note_on', channel=0, note=37, velocity=0, time=3),\n",
      "    Message('note_on', channel=0, note=49, velocity=0, time=0),\n",
      "    Message('note_on', channel=0, note=61, velocity=58, time=3),\n",
      "    Message('note_on', channel=0, note=49, velocity=54, time=4),\n",
      "    Message('note_on', channel=0, note=37, velocity=49, time=2),\n",
      "    Message('note_on', channel=0, note=61, velocity=0, time=68),\n",
      "    Message('note_on', channel=0, note=73, velocity=0, time=0),\n",
      "    Message('note_on', channel=0, note=73, velocity=63, time=8),\n",
      "    Message('note_on', channel=0, note=61, velocity=56, time=2),\n",
      "    Message('note_on', channel=0, note=74, velocity=74, time=113),\n",
      "    Message('note_on', channel=0, note=62, velocity=71, time=2),\n",
      "    Message('note_on', channel=0, note=50, velocity=64, time=2),\n",
      "    Message('note_on', channel=0, note=69, velocity=0, time=2),\n",
      "    Message('note_on', channel=0, note=38, velocity=57, time=5),\n",
      "    Message('note_on', channel=0, note=75, velocity=73, time=93),\n",
      "    Message('note_on', channel=0, note=51, velocity=61, time=5),\n",
      "    Message('note_on', channel=0, note=39, velocity=51, time=2),\n",
      "    Message('note_on', channel=0, note=63, velocity=61, time=1),\n",
      "    Message('note_on', channel=0, note=60, velocity=0, time=202),\n",
      "    Message('note_on', channel=0, note=63, velocity=0, time=0),\n",
      "    Message('note_on', channel=0, note=72, velocity=0, time=0),\n",
      "    Message('note_on', channel=0, note=75, velocity=0, time=0),\n",
      "    Message('note_on', channel=0, note=79, velocity=81, time=3),\n",
      "    Message('note_on', channel=0, note=75, velocity=71, time=1),\n",
      "    Message('note_on', channel=0, note=72, velocity=70, time=2),\n",
      "    Message('note_on', channel=0, note=67, velocity=70, time=0),\n",
      "    Message('note_on', channel=0, note=51, velocity=0, time=2),\n",
      "    Message('note_on', channel=0, note=60, velocity=69, time=2),\n",
      "    Message('note_on', channel=0, note=63, velocity=73, time=2),\n",
      "    Message('note_on', channel=0, note=71, velocity=0, time=2),\n",
      "    Message('note_on', channel=0, note=47, velocity=0, time=2),\n",
      "    Message('note_on', channel=0, note=39, velocity=0, time=0),\n",
      "    Message('note_on', channel=0, note=59, velocity=0, time=1),\n",
      "    Message('note_on', channel=0, note=37, velocity=0, time=0),\n",
      "    Message('note_on', channel=0, note=73, velocity=0, time=1),\n",
      "    Message('note_on', channel=0, note=36, velocity=0, time=0),\n",
      "    Message('note_on', channel=0, note=48, velocity=0, time=0),\n",
      "    Message('control_change', channel=0, control=64, value=0, time=0),\n",
      "    Message('note_on', channel=0, note=38, velocity=0, time=0),\n",
      "    Message('note_on', channel=0, note=53, velocity=0, time=0),\n",
      "    Message('note_on', channel=0, note=62, velocity=0, time=1),\n",
      "    Message('note_on', channel=0, note=61, velocity=0, time=0),\n",
      "    Message('note_on', channel=0, note=50, velocity=0, time=0),\n",
      "    Message('note_on', channel=0, note=81, velocity=0, time=0),\n",
      "    Message('note_on', channel=0, note=51, velocity=59, time=0),\n",
      "    Message('note_on', channel=0, note=74, velocity=0, time=1),\n",
      "    Message('note_on', channel=0, note=55, velocity=60, time=1),\n",
      "    Message('note_on', channel=0, note=35, velocity=0, time=10),\n",
      "    Message('note_on', channel=0, note=41, velocity=0, time=0),\n",
      "    Message('note_on', channel=0, note=49, velocity=0, time=0),\n",
      "    Message('control_change', channel=0, control=64, value=127, time=77),\n",
      "    Message('note_on', channel=0, note=72, velocity=0, time=407),\n",
      "    Message('note_on', channel=0, note=72, velocity=46, time=7),\n",
      "    Message('note_on', channel=0, note=60, velocity=0, time=1),\n",
      "    Message('note_on', channel=0, note=48, velocity=44, time=3),\n",
      "    Message('note_on', channel=0, note=60, velocity=42, time=1),\n",
      "    Message('note_on', channel=0, note=36, velocity=37, time=0),\n",
      "    Message('note_on', channel=0, note=73, velocity=57, time=164),\n",
      "    Message('note_on', channel=0, note=61, velocity=51, time=2),\n",
      "    Message('note_on', channel=0, note=49, velocity=52, time=3),\n",
      "    Message('note_on', channel=0, note=37, velocity=47, time=0),\n",
      "    Message('note_on', channel=0, note=73, velocity=0, time=103),\n",
      "    Message('note_on', channel=0, note=37, velocity=0, time=8),\n",
      "    Message('note_on', channel=0, note=49, velocity=0, time=0),\n",
      "    Message('note_on', channel=0, note=61, velocity=0, time=0),\n",
      "    Message('note_on', channel=0, note=73, velocity=61, time=1),\n",
      "    Message('note_on', channel=0, note=61, velocity=54, time=3),\n",
      "    Message('note_on', channel=0, note=37, velocity=47, time=6),\n",
      "    Message('note_on', channel=0, note=49, velocity=50, time=1),\n",
      "    Message('note_on', channel=0, note=61, velocity=0, time=89),\n",
      "    Message('note_on', channel=0, note=73, velocity=0, time=0),\n",
      "    Message('note_on', channel=0, note=73, velocity=66, time=6),\n",
      "    Message('note_on', channel=0, note=37, velocity=0, time=1),\n",
      "    Message('note_on', channel=0, note=49, velocity=0, time=0),\n",
      "    Message('note_on', channel=0, note=61, velocity=63, time=4),\n",
      "    Message('note_on', channel=0, note=49, velocity=53, time=0),\n",
      "    Message('note_on', channel=0, note=37, velocity=50, time=5),\n",
      "    Message('note_on', channel=0, note=50, velocity=61, time=102),\n",
      "    Message('note_on', channel=0, note=74, velocity=69, time=0),\n",
      "    Message('note_on', channel=0, note=62, velocity=58, time=2),\n",
      "    Message('note_on', channel=0, note=38, velocity=50, time=5),\n",
      "    Message('note_on', channel=0, note=50, velocity=0, time=90),\n",
      "    Message('note_on', channel=0, note=62, velocity=0, time=0),\n",
      "    Message('note_on', channel=0, note=38, velocity=0, time=7),\n",
      "    Message('note_on', channel=0, note=74, velocity=0, time=0),\n",
      "    Message('note_on', channel=0, note=50, velocity=59, time=3),\n",
      "    Message('note_on', channel=0, note=62, velocity=63, time=1),\n",
      "    Message('note_on', channel=0, note=74, velocity=59, time=0),\n",
      "    Message('note_on', channel=0, note=38, velocity=51, time=3),\n",
      "    Message('note_on', channel=0, note=50, velocity=0, time=85),\n",
      "    Message('note_on', channel=0, note=38, velocity=0, time=8),\n",
      "    Message('note_on', channel=0, note=62, velocity=0, time=0),\n",
      "    Message('note_on', channel=0, note=74, velocity=0, time=0),\n",
      "    Message('note_on', channel=0, note=50, velocity=56, time=2),\n",
      "    Message('note_on', channel=0, note=38, velocity=59, time=2),\n",
      "    Message('note_on', channel=0, note=74, velocity=66, time=2),\n",
      "    Message('note_on', channel=0, note=62, velocity=59, time=1),\n",
      "    Message('note_on', channel=0, note=51, velocity=0, time=101),\n",
      "    Message('note_on', channel=0, note=75, velocity=0, time=0),\n",
      "    Message('note_on', channel=0, note=51, velocity=61, time=7),\n",
      "    Message('note_on', channel=0, note=63, velocity=0, time=0),\n",
      "    Message('note_on', channel=0, note=39, velocity=57, time=4),\n",
      "    Message('note_on', channel=0, note=75, velocity=78, time=0),\n",
      "    Message('note_on', channel=0, note=63, velocity=69, time=0),\n",
      "    Message('note_on', channel=0, note=63, velocity=0, time=150),\n",
      "    Message('note_on', channel=0, note=72, velocity=0, time=0),\n",
      "    Message('note_on', channel=0, note=81, velocity=85, time=6),\n",
      "    Message('note_on', channel=0, note=38, velocity=0, time=2),\n",
      "    Message('note_on', channel=0, note=50, velocity=0, time=0),\n",
      "    Message('note_on', channel=0, note=67, velocity=0, time=0),\n",
      "    Message('note_on', channel=0, note=75, velocity=0, time=0),\n",
      "    Message('note_on', channel=0, note=63, velocity=70, time=1),\n",
      "    Message('note_on', channel=0, note=72, velocity=82, time=1),\n",
      "    Message('note_on', channel=0, note=75, velocity=78, time=2),\n",
      "    Message('note_on', channel=0, note=67, velocity=73, time=0),\n",
      "    Message('note_on', channel=0, note=81, velocity=0, time=3),\n",
      "    Message('note_on', channel=0, note=38, velocity=63, time=4),\n",
      "    Message('note_on', channel=0, note=50, velocity=63, time=0),\n",
      "    Message('note_on', channel=0, note=37, velocity=0, time=155),\n",
      "    Message('note_on', channel=0, note=39, velocity=0, time=1),\n",
      "    Message('note_on', channel=0, note=73, velocity=0, time=1),\n",
      "    Message('note_on', channel=0, note=75, velocity=0, time=1),\n",
      "    Message('note_on', channel=0, note=63, velocity=0, time=1),\n",
      "    Message('note_on', channel=0, note=48, velocity=0, time=0),\n",
      "    Message('note_on', channel=0, note=49, velocity=0, time=0),\n",
      "    Message('note_on', channel=0, note=67, velocity=0, time=0),\n",
      "    Message('note_on', channel=0, note=55, velocity=0, time=0),\n",
      "    Message('note_on', channel=0, note=61, velocity=0, time=0),\n",
      "    Message('note_on', channel=0, note=79, velocity=0, time=2),\n",
      "    Message('control_change', channel=0, control=64, value=0, time=0),\n",
      "    Message('note_on', channel=0, note=36, velocity=0, time=4),\n",
      "    Message('note_on', channel=0, note=62, velocity=0, time=0),\n",
      "    Message('note_on', channel=0, note=72, velocity=0, time=0),\n",
      "    Message('note_on', channel=0, note=74, velocity=0, time=0),\n",
      "    Message('note_on', channel=0, note=78, velocity=82, time=4),\n",
      "    Message('note_on', channel=0, note=74, velocity=75, time=1),\n",
      "    Message('note_on', channel=0, note=38, velocity=0, time=3),\n",
      "    Message('note_on', channel=0, note=50, velocity=0, time=0),\n",
      "    Message('note_on', channel=0, note=51, velocity=0, time=0),\n",
      "    Message('note_on', channel=0, note=60, velocity=0, time=0),\n",
      "    Message('note_on', channel=0, note=72, velocity=71, time=1),\n",
      "    Message('note_on', channel=0, note=66, velocity=72, time=2),\n",
      "    Message('note_on', channel=0, note=62, velocity=76, time=0),\n",
      "    Message('note_on', channel=0, note=50, velocity=67, time=2),\n",
      "    Message('note_on', channel=0, note=60, velocity=60, time=3),\n",
      "    Message('note_on', channel=0, note=38, velocity=57, time=3),\n",
      "    Message('note_on', channel=0, note=38, velocity=0, time=81),\n",
      "    Message('control_change', channel=0, control=64, value=127, time=0),\n",
      "    Message('note_on', channel=0, note=73, velocity=43, time=388),\n",
      "    Message('note_on', channel=0, note=61, velocity=43, time=0),\n",
      "    Message('note_on', channel=0, note=49, velocity=45, time=1),\n",
      "    Message('note_on', channel=0, note=37, velocity=33, time=7),\n",
      "    Message('note_on', channel=0, note=37, velocity=0, time=11),\n",
      "    Message('note_on', channel=0, note=50, velocity=0, time=92),\n",
      "    Message('note_on', channel=0, note=62, velocity=0, time=0),\n",
      "    Message('note_on', channel=0, note=74, velocity=0, time=0),\n",
      "    Message('note_on', channel=0, note=50, velocity=48, time=4),\n",
      "    Message('note_on', channel=0, note=62, velocity=56, time=5),\n",
      "    Message('note_on', channel=0, note=74, velocity=54, time=1),\n",
      "    Message('note_on', channel=0, note=38, velocity=40, time=0),\n",
      "    Message('note_on', channel=0, note=74, velocity=0, time=98),\n",
      "    Message('note_on', channel=0, note=74, velocity=63, time=5),\n",
      "    Message('note_on', channel=0, note=62, velocity=0, time=2),\n",
      "    Message('note_on', channel=0, note=62, velocity=51, time=5),\n",
      "    Message('note_on', channel=0, note=38, velocity=0, time=3),\n",
      "    Message('note_on', channel=0, note=50, velocity=0, time=0),\n",
      "    Message('note_on', channel=0, note=50, velocity=42, time=4),\n",
      "    Message('note_on', channel=0, note=38, velocity=41, time=8),\n",
      "    Message('note_on', channel=0, note=50, velocity=0, time=88),\n",
      "    Message('note_on', channel=0, note=62, velocity=0, time=0),\n",
      "    Message('note_on', channel=0, note=74, velocity=0, time=0),\n",
      "    Message('note_on', channel=0, note=50, velocity=52, time=6),\n",
      "    Message('note_on', channel=0, note=38, velocity=0, time=2),\n",
      "    Message('note_on', channel=0, note=62, velocity=58, time=2),\n",
      "    Message('note_on', channel=0, note=74, velocity=58, time=0),\n",
      "    Message('note_on', channel=0, note=38, velocity=49, time=2),\n",
      "    Message('note_on', channel=0, note=75, velocity=67, time=110),\n",
      "    Message('note_on', channel=0, note=63, velocity=56, time=6),\n",
      "    Message('note_on', channel=0, note=51, velocity=50, time=1),\n",
      "    Message('note_on', channel=0, note=39, velocity=49, time=3),\n",
      "    Message('note_on', channel=0, note=75, velocity=0, time=83),\n",
      "    Message('note_on', channel=0, note=75, velocity=72, time=11),\n",
      "    Message('note_on', channel=0, note=39, velocity=0, time=4),\n",
      "    Message('note_on', channel=0, note=51, velocity=0, time=0),\n",
      "    Message('note_on', channel=0, note=63, velocity=0, time=0),\n",
      "    Message('note_on', channel=0, note=63, velocity=56, time=5),\n",
      "    Message('note_on', channel=0, note=39, velocity=46, time=0),\n",
      "    Message('note_on', channel=0, note=51, velocity=49, time=2),\n",
      "    Message('note_on', channel=0, note=51, velocity=0, time=78),\n",
      "    Message('note_on', channel=0, note=75, velocity=0, time=0),\n",
      "    Message('note_on', channel=0, note=39, velocity=0, time=8),\n",
      "    Message('note_on', channel=0, note=63, velocity=0, time=0),\n",
      "    Message('note_on', channel=0, note=75, velocity=71, time=1),\n",
      "    Message('note_on', channel=0, note=51, velocity=55, time=2),\n",
      "    Message('note_on', channel=0, note=63, velocity=50, time=4),\n",
      "    Message('note_on', channel=0, note=39, velocity=48, time=4),\n",
      "    Message('note_on', channel=0, note=76, velocity=75, time=93),\n",
      "    Message('note_on', channel=0, note=52, velocity=63, time=6),\n",
      "    Message('note_on', channel=0, note=64, velocity=66, time=1),\n",
      "    Message('note_on', channel=0, note=40, velocity=53, time=1),\n",
      "    Message('note_on', channel=0, note=40, velocity=0, time=87),\n",
      "    Message('note_on', channel=0, note=52, velocity=0, time=0),\n",
      "    Message('note_on', channel=0, note=64, velocity=0, time=0),\n",
      "    Message('note_on', channel=0, note=76, velocity=0, time=0),\n",
      "    Message('note_on', channel=0, note=76, velocity=63, time=6),\n",
      "    Message('note_on', channel=0, note=64, velocity=61, time=0),\n",
      "    Message('note_on', channel=0, note=52, velocity=54, time=3),\n",
      "    Message('note_on', channel=0, note=40, velocity=52, time=2),\n",
      "    Message('note_on', channel=0, note=76, velocity=0, time=81),\n",
      "    Message('note_on', channel=0, note=76, velocity=70, time=9),\n",
      "    Message('note_on', channel=0, note=64, velocity=0, time=7),\n",
      "    Message('note_on', channel=0, note=64, velocity=58, time=6),\n",
      "    Message('note_on', channel=0, note=40, velocity=0, time=1),\n",
      "    Message('note_on', channel=0, note=52, velocity=0, time=0),\n",
      "    Message('note_on', channel=0, note=40, velocity=53, time=4),\n",
      "    Message('note_on', channel=0, note=52, velocity=59, time=0),\n",
      "    Message('note_on', channel=0, note=77, velocity=73, time=102),\n",
      "    Message('note_on', channel=0, note=65, velocity=59, time=6),\n",
      "    Message('note_on', channel=0, note=53, velocity=61, time=0),\n",
      "    Message('note_on', channel=0, note=41, velocity=60, time=3),\n",
      "    Message('note_on', channel=0, note=53, velocity=0, time=85),\n",
      "    Message('note_on', channel=0, note=65, velocity=0, time=0),\n",
      "    Message('note_on', channel=0, note=77, velocity=0, time=0),\n",
      "    Message('note_on', channel=0, note=77, velocity=83, time=7),\n",
      "    Message('note_on', channel=0, note=41, velocity=0, time=1),\n",
      "    Message('note_on', channel=0, note=65, velocity=68, time=2),\n",
      "    Message('note_on', channel=0, note=53, velocity=61, time=2),\n",
      "    Message('note_on', channel=0, note=41, velocity=65, time=2),\n",
      "    Message('note_on', channel=0, note=41, velocity=0, time=101),\n",
      "    Message('note_on', channel=0, note=53, velocity=0, time=0),\n",
      "    Message('note_on', channel=0, note=65, velocity=0, time=0),\n",
      "    Message('note_on', channel=0, note=77, velocity=0, time=0),\n",
      "    Message('note_on', channel=0, note=77, velocity=76, time=5),\n",
      "    Message('note_on', channel=0, note=65, velocity=65, time=1),\n",
      "    Message('note_on', channel=0, note=53, velocity=64, time=3),\n",
      "    Message('note_on', channel=0, note=41, velocity=65, time=1),\n",
      "    Message('note_on', channel=0, note=78, velocity=0, time=90),\n",
      "    Message('note_on', channel=0, note=66, velocity=0, time=8),\n",
      "    Message('note_on', channel=0, note=78, velocity=78, time=4),\n",
      "    Message('note_on', channel=0, note=66, velocity=70, time=7),\n",
      "    Message('note_on', channel=0, note=54, velocity=71, time=0),\n",
      "    Message('note_on', channel=0, note=42, velocity=63, time=0),\n",
      "    Message('note_on', channel=0, note=42, velocity=0, time=89),\n",
      "    Message('note_on', channel=0, note=54, velocity=0, time=0),\n",
      "    Message('note_on', channel=0, note=66, velocity=0, time=0),\n",
      "    Message('note_on', channel=0, note=78, velocity=0, time=0),\n",
      "    Message('note_on', channel=0, note=78, velocity=80, time=7),\n",
      "    Message('note_on', channel=0, note=54, velocity=70, time=2),\n",
      "    Message('note_on', channel=0, note=42, velocity=67, time=0),\n",
      "    Message('note_on', channel=0, note=66, velocity=70, time=2),\n",
      "    Message('note_on', channel=0, note=42, velocity=0, time=104),\n",
      "    Message('note_on', channel=0, note=66, velocity=0, time=0),\n",
      "    Message('note_on', channel=0, note=78, velocity=0, time=0),\n",
      "    Message('note_on', channel=0, note=54, velocity=0, time=8),\n",
      "    Message('note_on', channel=0, note=78, velocity=76, time=2),\n",
      "    Message('note_on', channel=0, note=42, velocity=68, time=1),\n",
      "    Message('note_on', channel=0, note=66, velocity=75, time=0),\n",
      "    Message('note_on', channel=0, note=54, velocity=63, time=1),\n",
      "    Message('note_on', channel=0, note=79, velocity=80, time=121),\n",
      "    Message('note_on', channel=0, note=43, velocity=67, time=1),\n",
      "    Message('note_on', channel=0, note=55, velocity=68, time=1),\n",
      "    Message('note_on', channel=0, note=67, velocity=70, time=0),\n",
      "    Message('note_on', channel=0, note=75, velocity=0, time=3),\n",
      "    Message('note_on', channel=0, note=75, velocity=57, time=11),\n",
      "    Message('note_on', channel=0, note=80, velocity=90, time=85),\n",
      "    Message('note_on', channel=0, note=68, velocity=84, time=4),\n",
      "    Message('note_on', channel=0, note=56, velocity=74, time=3),\n",
      "    Message('note_on', channel=0, note=44, velocity=65, time=3),\n",
      "    Message('note_on', channel=0, note=44, velocity=0, time=94),\n",
      "    Message('note_on', channel=0, note=56, velocity=0, time=0),\n",
      "    Message('note_on', channel=0, note=68, velocity=0, time=0),\n",
      "    Message('note_on', channel=0, note=80, velocity=0, time=0),\n",
      "    Message('note_on', channel=0, note=80, velocity=83, time=9),\n",
      "    Message('note_on', channel=0, note=56, velocity=77, time=1),\n",
      "    Message('note_on', channel=0, note=68, velocity=81, time=1),\n",
      "    Message('note_on', channel=0, note=44, velocity=68, time=0),\n",
      "    Message('note_on', channel=0, note=45, velocity=73, time=121),\n",
      "    Message('note_on', channel=0, note=81, velocity=88, time=0),\n",
      "    Message('note_on', channel=0, note=57, velocity=79, time=2),\n",
      "    Message('note_on', channel=0, note=93, velocity=80, time=0),\n",
      "    Message('note_on', channel=0, note=69, velocity=77, time=1),\n",
      "    Message('note_on', channel=0, note=93, velocity=0, time=11),\n",
      "    Message('note_on', channel=0, note=94, velocity=83, time=95),\n",
      "    Message('note_on', channel=0, note=58, velocity=74, time=1),\n",
      "    Message('note_on', channel=0, note=82, velocity=90, time=0),\n",
      "    Message('note_on', channel=0, note=46, velocity=65, time=0),\n",
      "    Message('note_on', channel=0, note=70, velocity=86, time=1),\n",
      "    Message('note_on', channel=0, note=94, velocity=0, time=3),\n",
      "    Message('note_on', channel=0, note=72, velocity=0, time=76),\n",
      "    Message('note_on', channel=0, note=60, velocity=0, time=8),\n",
      "    Message('note_on', channel=0, note=62, velocity=0, time=4),\n",
      "    Message('note_on', channel=0, note=80, velocity=0, time=0),\n",
      "    Message('note_on', channel=0, note=66, velocity=0, time=0),\n",
      "    Message('note_on', channel=0, note=81, velocity=0, time=1),\n",
      "    Message('note_on', channel=0, note=42, velocity=0, time=0),\n",
      "    Message('note_on', channel=0, note=54, velocity=0, time=0),\n",
      "    Message('note_on', channel=0, note=65, velocity=0, time=0),\n",
      "    Message('note_on', channel=0, note=77, velocity=0, time=0),\n",
      "    Message('note_on', channel=0, note=53, velocity=0, time=0),\n",
      "    Message('note_on', channel=0, note=67, velocity=0, time=0),\n",
      "    Message('note_on', channel=0, note=56, velocity=0, time=0),\n",
      "    Message('note_on', channel=0, note=68, velocity=0, time=0),\n",
      "    Message('note_on', channel=0, note=82, velocity=0, time=0),\n",
      "    Message('note_on', channel=0, note=79, velocity=0, time=0),\n",
      "    Message('note_on', channel=0, note=41, velocity=0, time=0),\n",
      "    Message('note_on', channel=0, note=64, velocity=0, time=0),\n",
      "    Message('note_on', channel=0, note=49, velocity=0, time=0),\n",
      "    Message('note_on', channel=0, note=50, velocity=0, time=0),\n",
      "    Message('note_on', channel=0, note=69, velocity=0, time=0),\n",
      "    Message('note_on', channel=0, note=63, velocity=0, time=0),\n",
      "    Message('note_on', channel=0, note=40, velocity=0, time=1),\n",
      "    Message('note_on', channel=0, note=76, velocity=0, time=0),\n",
      "    Message('note_on', channel=0, note=78, velocity=0, time=0),\n",
      "    Message('note_on', channel=0, note=55, velocity=0, time=0),\n",
      "    Message('note_on', channel=0, note=52, velocity=0, time=0),\n",
      "    Message('note_on', channel=0, note=57, velocity=0, time=0),\n",
      "    Message('note_on', channel=0, note=75, velocity=0, time=0),\n",
      "    Message('note_on', channel=0, note=38, velocity=0, time=0),\n",
      "    Message('note_on', channel=0, note=46, velocity=0, time=0),\n",
      "    Message('note_on', channel=0, note=43, velocity=0, time=0),\n",
      "    Message('note_on', channel=0, note=44, velocity=0, time=1),\n",
      "    Message('note_on', channel=0, note=70, velocity=0, time=0),\n",
      "    Message('note_on', channel=0, note=58, velocity=0, time=2),\n",
      "    Message('note_on', channel=0, note=45, velocity=0, time=0),\n",
      "    Message('control_change', channel=0, control=64, value=0, time=3),\n",
      "    Message('note_on', channel=0, note=39, velocity=0, time=3),\n",
      "    Message('note_on', channel=0, note=51, velocity=0, time=0),\n",
      "    Message('note_on', channel=0, note=61, velocity=0, time=0),\n",
      "    Message('note_on', channel=0, note=73, velocity=0, time=0),\n",
      "    Message('note_on', channel=0, note=74, velocity=0, time=0),\n",
      "    Message('note_on', channel=0, note=43, velocity=70, time=53),\n",
      "    Message('note_on', channel=0, note=55, velocity=55, time=2),\n",
      "    Message('note_on', channel=0, note=83, velocity=91, time=96),\n",
      "    Message('note_on', channel=0, note=74, velocity=79, time=2),\n",
      "    Message('note_on', channel=0, note=71, velocity=89, time=4),\n",
      "    Message('note_on', channel=0, note=59, velocity=87, time=2),\n",
      "    Message('note_on', channel=0, note=50, velocity=60, time=7),\n",
      "    Message('control_change', channel=0, control=64, value=127, time=11),\n",
      "    Message('note_on', channel=0, note=51, velocity=57, time=4),\n",
      "    Message('note_on', channel=0, note=55, velocity=0, time=142),\n",
      "    Message('note_on', channel=0, note=61, velocity=53, time=242),\n",
      "    Message('note_on', channel=0, note=73, velocity=58, time=0),\n",
      "    Message('note_on', channel=0, note=49, velocity=50, time=14),\n",
      "    Message('note_on', channel=0, note=37, velocity=40, time=5),\n",
      "    Message('note_on', channel=0, note=37, velocity=0, time=8),\n",
      "    Message('note_on', channel=0, note=50, velocity=0, time=77),\n",
      "    Message('note_on', channel=0, note=74, velocity=0, time=0),\n",
      "    Message('note_on', channel=0, note=50, velocity=62, time=3),\n",
      "    Message('note_on', channel=0, note=74, velocity=64, time=5),\n",
      "    Message('note_on', channel=0, note=38, velocity=54, time=0),\n",
      "    Message('note_on', channel=0, note=62, velocity=57, time=2),\n",
      "    Message('note_on', channel=0, note=50, velocity=0, time=105),\n",
      "    Message('note_on', channel=0, note=62, velocity=0, time=0),\n",
      "    Message('note_on', channel=0, note=74, velocity=0, time=0),\n",
      "    Message('note_on', channel=0, note=74, velocity=69, time=4),\n",
      "    Message('note_on', channel=0, note=50, velocity=54, time=3),\n",
      "    Message('note_on', channel=0, note=38, velocity=0, time=0),\n",
      "    Message('note_on', channel=0, note=62, velocity=56, time=2),\n",
      "    Message('note_on', channel=0, note=38, velocity=45, time=3),\n",
      "    Message('note_on', channel=0, note=50, velocity=0, time=103),\n",
      "    Message('note_on', channel=0, note=62, velocity=0, time=0),\n",
      "    Message('note_on', channel=0, note=74, velocity=0, time=0),\n",
      "    Message('note_on', channel=0, note=50, velocity=66, time=6),\n",
      "    Message('note_on', channel=0, note=38, velocity=0, time=2),\n",
      "    Message('note_on', channel=0, note=74, velocity=63, time=2),\n",
      "    Message('note_on', channel=0, note=62, velocity=59, time=1),\n",
      "    Message('note_on', channel=0, note=38, velocity=50, time=2),\n",
      "    Message('note_on', channel=0, note=75, velocity=68, time=107),\n",
      "    Message('note_on', channel=0, note=51, velocity=0, time=3),\n",
      "    Message('note_on', channel=0, note=63, velocity=62, time=3),\n",
      "    Message('note_on', channel=0, note=51, velocity=58, time=3),\n",
      "    Message('note_on', channel=0, note=39, velocity=51, time=4),\n",
      "    Message('note_on', channel=0, note=63, velocity=0, time=90),\n",
      "    Message('note_on', channel=0, note=75, velocity=0, time=0),\n",
      "    Message('note_on', channel=0, note=75, velocity=75, time=5),\n",
      "    Message('note_on', channel=0, note=39, velocity=0, time=2),\n",
      "    Message('note_on', channel=0, note=51, velocity=0, time=0),\n",
      "    Message('note_on', channel=0, note=63, velocity=64, time=2),\n",
      "    Message('note_on', channel=0, note=51, velocity=55, time=4),\n",
      "    Message('note_on', channel=0, note=39, velocity=53, time=1),\n",
      "    Message('note_on', channel=0, note=63, velocity=0, time=86),\n",
      "    Message('note_on', channel=0, note=75, velocity=0, time=0),\n",
      "    Message('note_on', channel=0, note=75, velocity=70, time=5),\n",
      "    Message('note_on', channel=0, note=39, velocity=0, time=2),\n",
      "    Message('note_on', channel=0, note=51, velocity=0, time=0),\n",
      "    Message('note_on', channel=0, note=63, velocity=62, time=2),\n",
      "    Message('note_on', channel=0, note=51, velocity=64, time=4),\n",
      "    Message('note_on', channel=0, note=39, velocity=48, time=5),\n",
      "    Message('note_on', channel=0, note=76, velocity=74, time=96),\n",
      "    Message('note_on', channel=0, note=64, velocity=73, time=3),\n",
      "    Message('note_on', channel=0, note=52, velocity=64, time=1),\n",
      "    Message('note_on', channel=0, note=40, velocity=54, time=1),\n",
      "    Message('note_on', channel=0, note=77, velocity=88, time=100),\n",
      "    Message('note_on', channel=0, note=65, velocity=78, time=3),\n",
      "    Message('note_on', channel=0, note=53, velocity=61, time=12),\n",
      "    Message('note_on', channel=0, note=41, velocity=53, time=5),\n",
      "    Message('note_on', channel=0, note=68, velocity=50, time=8),\n",
      "    Message('note_on', channel=0, note=68, velocity=0, time=6),\n",
      "    Message('note_on', channel=0, note=53, velocity=0, time=253),\n",
      "    Message('note_on', channel=0, note=62, velocity=0, time=0),\n",
      "    Message('note_on', channel=0, note=65, velocity=0, time=0),\n",
      "    Message('note_on', channel=0, note=71, velocity=0, time=0),\n",
      "    Message('note_on', channel=0, note=74, velocity=0, time=0),\n",
      "    Message('note_on', channel=0, note=77, velocity=0, time=0),\n",
      "    Message('note_on', channel=0, note=62, velocity=74, time=4),\n",
      "    Message('note_on', channel=0, note=81, velocity=92, time=0),\n",
      "    Message('note_on', channel=0, note=65, velocity=77, time=2),\n",
      "    Message('note_on', channel=0, note=59, velocity=0, time=2),\n",
      "    Message('note_on', channel=0, note=77, velocity=78, time=2),\n",
      "    Message('note_on', channel=0, note=53, velocity=68, time=0),\n",
      "    Message('note_on', channel=0, note=69, velocity=84, time=0),\n",
      "    Message('note_on', channel=0, note=74, velocity=77, time=1),\n",
      "    Message('note_on', channel=0, note=57, velocity=71, time=0),\n",
      "    Message('note_on', channel=0, note=71, velocity=84, time=1),\n",
      "    Message('note_on', channel=0, note=59, velocity=70, time=1),\n",
      "    Message('note_on', channel=0, note=64, velocity=0, time=29),\n",
      "    Message('control_change', channel=0, control=64, value=0, time=0),\n",
      "    Message('note_on', channel=0, note=51, velocity=0, time=2),\n",
      "    Message('note_on', channel=0, note=76, velocity=0, time=0),\n",
      "    Message('note_on', channel=0, note=39, velocity=0, time=1),\n",
      "    Message('note_on', channel=0, note=73, velocity=0, time=1),\n",
      "    Message('note_on', channel=0, note=40, velocity=0, time=1),\n",
      "    Message('note_on', channel=0, note=63, velocity=0, time=0),\n",
      "    Message('note_on', channel=0, note=49, velocity=0, time=0),\n",
      "    Message('note_on', channel=0, note=38, velocity=0, time=1),\n",
      "    Message('note_on', channel=0, note=50, velocity=0, time=0),\n",
      "    Message('note_on', channel=0, note=75, velocity=0, time=0),\n",
      "    Message('note_on', channel=0, note=43, velocity=0, time=1),\n",
      "    Message('note_on', channel=0, note=61, velocity=0, time=0),\n",
      "    Message('note_on', channel=0, note=52, velocity=0, time=1),\n",
      "    Message('note_on', channel=0, note=83, velocity=0, time=4),\n",
      "    Message('note_on', channel=0, note=41, velocity=0, time=8),\n",
      "    Message('control_change', channel=0, control=64, value=127, time=38),\n",
      "    Message('note_on', channel=0, note=62, velocity=0, time=307),\n",
      "    Message('note_on', channel=0, note=74, velocity=0, time=0),\n",
      "    Message('note_on', channel=0, note=50, velocity=59, time=5),\n",
      "    Message('note_on', channel=0, note=74, velocity=65, time=0),\n",
      "    Message('note_on', channel=0, note=62, velocity=57, time=1),\n",
      "    Message('note_on', channel=0, note=38, velocity=51, time=5),\n",
      "    Message('note_on', channel=0, note=75, velocity=66, time=184),\n",
      "    Message('note_on', channel=0, note=63, velocity=57, time=1),\n",
      "    Message('note_on', channel=0, note=51, velocity=53, time=0),\n",
      "    Message('note_on', channel=0, note=39, velocity=46, time=5),\n",
      "    Message('note_on', channel=0, note=39, velocity=0, time=91),\n",
      "    Message('note_on', channel=0, note=51, velocity=0, time=0),\n",
      "    Message('note_on', channel=0, note=75, velocity=0, time=0),\n",
      "    Message('note_on', channel=0, note=63, velocity=0, time=8),\n",
      "    Message('note_on', channel=0, note=51, velocity=52, time=2),\n",
      "    Message('note_on', channel=0, note=75, velocity=70, time=0),\n",
      "    Message('note_on', channel=0, note=39, velocity=50, time=2),\n",
      "    Message('note_on', channel=0, note=63, velocity=55, time=1),\n",
      "    Message('note_on', channel=0, note=39, velocity=0, time=95),\n",
      "    Message('note_on', channel=0, note=51, velocity=0, time=0),\n",
      "    Message('note_on', channel=0, note=63, velocity=0, time=0),\n",
      "    Message('note_on', channel=0, note=75, velocity=0, time=0),\n",
      "    Message('note_on', channel=0, note=51, velocity=56, time=4),\n",
      "    Message('note_on', channel=0, note=39, velocity=49, time=5),\n",
      "    Message('note_on', channel=0, note=75, velocity=63, time=1),\n",
      "    Message('note_on', channel=0, note=63, velocity=62, time=0),\n",
      "    Message('note_on', channel=0, note=52, velocity=69, time=109),\n",
      "    Message('note_on', channel=0, note=40, velocity=64, time=5),\n",
      "    Message('note_on', channel=0, note=76, velocity=76, time=1),\n",
      "    Message('note_on', channel=0, note=64, velocity=74, time=1),\n",
      "    Message('note_on', channel=0, note=52, velocity=0, time=89),\n",
      "    Message('note_on', channel=0, note=40, velocity=0, time=8),\n",
      "    Message('note_on', channel=0, note=64, velocity=0, time=0),\n",
      "    Message('note_on', channel=0, note=76, velocity=0, time=0),\n",
      "    Message('note_on', channel=0, note=52, velocity=66, time=3),\n",
      "    Message('note_on', channel=0, note=76, velocity=66, time=1),\n",
      "    Message('note_on', channel=0, note=40, velocity=63, time=0),\n",
      "    Message('note_on', channel=0, note=64, velocity=65, time=4),\n",
      "    Message('note_on', channel=0, note=40, velocity=0, time=91),\n",
      "    Message('note_on', channel=0, note=52, velocity=0, time=0),\n",
      "    Message('note_on', channel=0, note=64, velocity=0, time=0),\n",
      "    Message('note_on', channel=0, note=76, velocity=0, time=0),\n",
      "    Message('note_on', channel=0, note=52, velocity=64, time=4),\n",
      "    Message('note_on', channel=0, note=64, velocity=71, time=1),\n",
      "    Message('note_on', channel=0, note=76, velocity=68, time=1),\n",
      "    Message('note_on', channel=0, note=40, velocity=62, time=0),\n",
      "    Message('note_on', channel=0, note=77, velocity=0, time=94),\n",
      "    Message('note_on', channel=0, note=53, velocity=0, time=8),\n",
      "    Message('note_on', channel=0, note=65, velocity=0, time=0),\n",
      "    Message('note_on', channel=0, note=77, velocity=85, time=3),\n",
      "    Message('note_on', channel=0, note=65, velocity=62, time=3),\n",
      "    Message('note_on', channel=0, note=53, velocity=60, time=3),\n",
      "    Message('note_on', channel=0, note=41, velocity=55, time=2),\n",
      "    Message('note_on', channel=0, note=67, velocity=56, time=2),\n",
      "    Message('note_on', channel=0, note=55, velocity=39, time=16),\n",
      "    Message('note_on', channel=0, note=55, velocity=0, time=9),\n",
      "    Message('note_on', channel=0, note=62, velocity=0, time=146),\n",
      "    Message('note_on', channel=0, note=71, velocity=0, time=0),\n",
      "    Message('note_on', channel=0, note=83, velocity=86, time=5),\n",
      "    Message('note_on', channel=0, note=53, velocity=0, time=3),\n",
      "    Message('note_on', channel=0, note=57, velocity=0, time=0),\n",
      "    Message('note_on', channel=0, note=74, velocity=0, time=0),\n",
      "    Message('note_on', channel=0, note=62, velocity=65, time=1),\n",
      "    Message('note_on', channel=0, note=71, velocity=81, time=2),\n",
      "    Message('note_on', channel=0, note=53, velocity=59, time=2),\n",
      "    Message('note_on', channel=0, note=74, velocity=78, time=2),\n",
      "    Message('note_on', channel=0, note=69, velocity=0, time=1),\n",
      "    Message('note_on', channel=0, note=81, velocity=0, time=0),\n",
      "    Message('note_on', channel=0, note=57, velocity=64, time=2),\n",
      "    Message('note_on', channel=0, note=69, velocity=79, time=2),\n",
      "    Message('note_on', channel=0, note=81, velocity=74, time=5),\n",
      "    Message('note_on', channel=0, note=62, velocity=0, time=152),\n",
      "    Message('note_on', channel=0, note=38, velocity=0, time=0),\n",
      "    Message('note_on', channel=0, note=53, velocity=0, time=0),\n",
      "    Message('note_on', channel=0, note=50, velocity=0, time=1),\n",
      "    Message('note_on', channel=0, note=41, velocity=0, time=0),\n",
      "    Message('note_on', channel=0, note=65, velocity=0, time=0),\n",
      "    Message('note_on', channel=0, note=67, velocity=0, time=0),\n",
      "    Message('note_on', channel=0, note=75, velocity=0, time=0),\n",
      "    Message('note_on', channel=0, note=77, velocity=0, time=0),\n",
      "    Message('note_on', channel=0, note=69, velocity=0, time=1),\n",
      "    Message('note_on', channel=0, note=51, velocity=0, time=0),\n",
      "    Message('note_on', channel=0, note=81, velocity=0, time=0),\n",
      "    Message('control_change', channel=0, control=64, value=0, time=0),\n",
      "    Message('note_on', channel=0, note=57, velocity=0, time=0),\n",
      "    Message('note_on', channel=0, note=83, velocity=0, time=0),\n",
      "    Message('note_on', channel=0, note=63, velocity=0, time=0),\n",
      "    Message('note_on', channel=0, note=39, velocity=0, time=6),\n",
      "    Message('note_on', channel=0, note=52, velocity=0, time=0),\n",
      "    Message('note_on', channel=0, note=59, velocity=0, time=0),\n",
      "    Message('note_on', channel=0, note=64, velocity=0, time=0),\n",
      "    Message('note_on', channel=0, note=71, velocity=0, time=0),\n",
      "    Message('note_on', channel=0, note=76, velocity=0, time=0),\n",
      "    Message('note_on', channel=0, note=80, velocity=79, time=3),\n",
      "    Message('note_on', channel=0, note=68, velocity=87, time=2),\n",
      "    Message('note_on', channel=0, note=64, velocity=83, time=3),\n",
      "    Message('note_on', channel=0, note=71, velocity=69, time=1),\n",
      "    Message('note_on', channel=0, note=76, velocity=78, time=1),\n",
      "    Message('note_on', channel=0, note=59, velocity=69, time=0),\n",
      "    Message('note_on', channel=0, note=52, velocity=66, time=0),\n",
      "    Message('note_on', channel=0, note=56, velocity=66, time=1),\n",
      "    Message('control_change', channel=0, control=64, value=127, time=81),\n",
      "    Message('note_on', channel=0, note=40, velocity=0, time=384),\n",
      "    Message('note_on', channel=0, note=75, velocity=59, time=12),\n",
      "    Message('note_on', channel=0, note=51, velocity=51, time=4),\n",
      "    Message('note_on', channel=0, note=63, velocity=51, time=0),\n",
      "    Message('note_on', channel=0, note=39, velocity=43, time=4),\n",
      "    Message('note_on', channel=0, note=52, velocity=0, time=126),\n",
      "    Message('note_on', channel=0, note=64, velocity=0, time=0),\n",
      "    Message('note_on', channel=0, note=76, velocity=0, time=0),\n",
      "    Message('note_on', channel=0, note=76, velocity=63, time=4),\n",
      "    Message('note_on', channel=0, note=64, velocity=62, time=0),\n",
      "    Message('note_on', channel=0, note=52, velocity=53, time=3),\n",
      "    Message('note_on', channel=0, note=40, velocity=46, time=0),\n",
      "    Message('note_on', channel=0, note=40, velocity=0, time=108),\n",
      "    Message('note_on', channel=0, note=52, velocity=0, time=0),\n",
      "    Message('note_on', channel=0, note=64, velocity=0, time=0),\n",
      "    Message('note_on', channel=0, note=76, velocity=0, time=0),\n",
      "    Message('note_on', channel=0, note=76, velocity=68, time=6),\n",
      "    Message('note_on', channel=0, note=68, velocity=0, time=1),\n",
      "    Message('note_on', channel=0, note=64, velocity=57, time=3),\n",
      "    Message('note_on', channel=0, note=52, velocity=54, time=1),\n",
      "    Message('note_on', channel=0, note=40, velocity=56, time=0),\n",
      "    Message('note_on', channel=0, note=68, velocity=51, time=3),\n",
      "    Message('note_on', channel=0, note=52, velocity=0, time=86),\n",
      "    Message('note_on', channel=0, note=64, velocity=0, time=0),\n",
      "    Message('note_on', channel=0, note=76, velocity=0, time=0),\n",
      "    Message('note_on', channel=0, note=40, velocity=0, time=7),\n",
      "    Message('note_on', channel=0, note=76, velocity=67, time=0),\n",
      "    Message('note_on', channel=0, note=64, velocity=63, time=3),\n",
      "    Message('note_on', channel=0, note=52, velocity=65, time=1),\n",
      "    Message('note_on', channel=0, note=40, velocity=53, time=7),\n",
      "    Message('note_on', channel=0, note=77, velocity=76, time=94),\n",
      "    Message('note_on', channel=0, note=65, velocity=67, time=4),\n",
      "    Message('note_on', channel=0, note=41, velocity=58, time=3),\n",
      "    Message('note_on', channel=0, note=53, velocity=58, time=0),\n",
      "    Message('note_on', channel=0, note=77, velocity=0, time=88),\n",
      "    Message('note_on', channel=0, note=40, velocity=0, time=8),\n",
      "    Message('note_on', channel=0, note=41, velocity=0, time=0),\n",
      "    Message('note_on', channel=0, note=53, velocity=0, time=0),\n",
      "    Message('note_on', channel=0, note=77, velocity=75, time=3),\n",
      "    Message('note_on', channel=0, note=40, velocity=60, time=3),\n",
      "    Message('note_on', channel=0, note=41, velocity=62, time=1),\n",
      "    Message('note_on', channel=0, note=65, velocity=0, time=0),\n",
      "    Message('note_on', channel=0, note=53, velocity=60, time=2),\n",
      "    Message('note_on', channel=0, note=65, velocity=53, time=2),\n",
      "    Message('note_on', channel=0, note=41, velocity=0, time=104),\n",
      "    Message('note_on', channel=0, note=53, velocity=0, time=0),\n",
      "    Message('note_on', channel=0, note=65, velocity=0, time=0),\n",
      "    Message('note_on', channel=0, note=77, velocity=0, time=0),\n",
      "    Message('note_on', channel=0, note=77, velocity=77, time=5),\n",
      "    Message('note_on', channel=0, note=65, velocity=70, time=4),\n",
      "    Message('note_on', channel=0, note=53, velocity=59, time=2),\n",
      "    Message('note_on', channel=0, note=41, velocity=62, time=0),\n",
      "    Message('note_on', channel=0, note=78, velocity=80, time=88),\n",
      "    Message('note_on', channel=0, note=66, velocity=70, time=6),\n",
      "    Message('note_on', channel=0, note=42, velocity=61, time=13),\n",
      "    Message('note_on', channel=0, note=54, velocity=60, time=1),\n",
      "    Message('note_on', channel=0, note=42, velocity=0, time=81),\n",
      "    Message('note_on', channel=0, note=54, velocity=0, time=0),\n",
      "    Message('note_on', channel=0, note=66, velocity=0, time=0),\n",
      "    Message('note_on', channel=0, note=78, velocity=0, time=0),\n",
      "    Message('note_on', channel=0, note=54, velocity=69, time=9),\n",
      "    Message('note_on', channel=0, note=42, velocity=65, time=1),\n",
      "    Message('note_on', channel=0, note=78, velocity=74, time=0),\n",
      "    Message('note_on', channel=0, note=66, velocity=71, time=1),\n",
      "    Message('note_on', channel=0, note=42, velocity=0, time=96),\n",
      "    Message('note_on', channel=0, note=78, velocity=0, time=0),\n",
      "    Message('note_on', channel=0, note=78, velocity=85, time=6),\n",
      "    Message('note_on', channel=0, note=41, velocity=0, time=2),\n",
      "    Message('note_on', channel=0, note=53, velocity=0, time=0),\n",
      "    Message('note_on', channel=0, note=54, velocity=0, time=0),\n",
      "    Message('note_on', channel=0, note=66, velocity=0, time=0),\n",
      "    Message('note_on', channel=0, note=42, velocity=65, time=3),\n",
      "    Message('note_on', channel=0, note=66, velocity=69, time=1),\n",
      "    Message('note_on', channel=0, note=41, velocity=58, time=0),\n",
      "    Message('note_on', channel=0, note=54, velocity=63, time=2),\n",
      "    Message('note_on', channel=0, note=53, velocity=61, time=5),\n",
      "    Message('note_on', channel=0, note=55, velocity=75, time=116),\n",
      "    Message('note_on', channel=0, note=43, velocity=69, time=1),\n",
      "    Message('note_on', channel=0, note=79, velocity=83, time=1),\n",
      "    Message('note_on', channel=0, note=67, velocity=71, time=4),\n",
      "    Message('note_on', channel=0, note=74, velocity=0, time=13),\n",
      "    Message('note_on', channel=0, note=52, velocity=0, time=56),\n",
      "    Message('note_on', channel=0, note=59, velocity=0, time=0),\n",
      "    Message('note_on', channel=0, note=71, velocity=0, time=1),\n",
      "    Message('note_on', channel=0, note=56, velocity=0, time=0),\n",
      "    Message('note_on', channel=0, note=66, velocity=0, time=0),\n",
      "    Message('note_on', channel=0, note=75, velocity=0, time=0),\n",
      "    Message('note_on', channel=0, note=65, velocity=0, time=0),\n",
      "    Message('note_on', channel=0, note=42, velocity=0, time=0),\n",
      "    Message('note_on', channel=0, note=77, velocity=0, time=0),\n",
      "    Message('note_on', channel=0, note=64, velocity=0, time=0),\n",
      "    Message('note_on', channel=0, note=40, velocity=0, time=0),\n",
      "    Message('note_on', channel=0, note=41, velocity=0, time=1),\n",
      "    Message('note_on', channel=0, note=53, velocity=0, time=0),\n",
      "    Message('note_on', channel=0, note=54, velocity=0, time=0),\n",
      "    Message('note_on', channel=0, note=68, velocity=0, time=0),\n",
      "    Message('note_on', channel=0, note=51, velocity=0, time=0),\n",
      "    Message('note_on', channel=0, note=63, velocity=0, time=0),\n",
      "    Message('note_on', channel=0, note=78, velocity=0, time=0),\n",
      "    Message('control_change', channel=0, control=64, value=0, time=1),\n",
      "    Message('note_on', channel=0, note=80, velocity=0, time=2),\n",
      "    Message('note_on', channel=0, note=39, velocity=0, time=8),\n",
      "    Message('note_on', channel=0, note=76, velocity=0, time=0),\n",
      "    Message('note_on', channel=0, note=43, velocity=0, time=7),\n",
      "    Message('note_on', channel=0, note=55, velocity=0, time=0),\n",
      "    Message('note_on', channel=0, note=67, velocity=0, time=0),\n",
      "    Message('note_on', channel=0, note=79, velocity=0, time=0),\n",
      "    Message('note_on', channel=0, note=79, velocity=81, time=6),\n",
      "    Message('note_on', channel=0, note=67, velocity=74, time=4),\n",
      "    Message('note_on', channel=0, note=55, velocity=74, time=1),\n",
      "    Message('note_on', channel=0, note=43, velocity=72, time=1),\n",
      "    Message('control_change', channel=0, control=64, value=127, time=35),\n",
      "    Message('note_on', channel=0, note=67, velocity=0, time=69),\n",
      "    Message('note_on', channel=0, note=79, velocity=0, time=0),\n",
      "    Message('note_on', channel=0, note=43, velocity=0, time=7),\n",
      "    Message('note_on', channel=0, note=55, velocity=0, time=0),\n",
      "    Message('note_on', channel=0, note=79, velocity=87, time=2),\n",
      "    Message('note_on', channel=0, note=67, velocity=76, time=1),\n",
      "    Message('note_on', channel=0, note=55, velocity=70, time=1),\n",
      "    Message('note_on', channel=0, note=43, velocity=62, time=1),\n",
      "    Message('control_change', channel=0, control=64, value=0, time=94),\n",
      "    Message('note_on', channel=0, note=67, velocity=0, time=24),\n",
      "    Message('note_on', channel=0, note=79, velocity=0, time=0),\n",
      "    Message('note_on', channel=0, note=56, velocity=76, time=3),\n",
      "    Message('note_on', channel=0, note=43, velocity=0, time=0),\n",
      "    Message('note_on', channel=0, note=79, velocity=80, time=3),\n",
      "    Message('note_on', channel=0, note=44, velocity=72, time=0),\n",
      "    Message('note_on', channel=0, note=67, velocity=75, time=4),\n",
      "    Message('note_on', channel=0, note=77, velocity=67, time=2),\n",
      "    Message('control_change', channel=0, control=64, value=127, time=4),\n",
      "    Message('note_on', channel=0, note=55, velocity=0, time=53),\n",
      "    Message('note_on', channel=0, note=56, velocity=0, time=22),\n",
      "    Message('note_on', channel=0, note=67, velocity=0, time=32),\n",
      "    Message('note_on', channel=0, note=77, velocity=0, time=0),\n",
      "    Message('note_on', channel=0, note=79, velocity=0, time=0),\n",
      "    Message('note_on', channel=0, note=79, velocity=80, time=6),\n",
      "    Message('note_on', channel=0, note=57, velocity=71, time=4),\n",
      "    Message('note_on', channel=0, note=45, velocity=72, time=1),\n",
      "    Message('note_on', channel=0, note=69, velocity=69, time=0),\n",
      "    Message('note_on', channel=0, note=67, velocity=72, time=0),\n",
      "    Message('note_on', channel=0, note=77, velocity=73, time=1),\n",
      "    Message('note_on', channel=0, note=69, velocity=0, time=3),\n",
      "    Message('note_on', channel=0, note=44, velocity=0, time=24),\n",
      "    Message('note_on', channel=0, note=67, velocity=0, time=84),\n",
      "    Message('note_on', channel=0, note=77, velocity=0, time=0),\n",
      "    Message('note_on', channel=0, note=79, velocity=0, time=0),\n",
      "    Message('note_on', channel=0, note=79, velocity=86, time=4),\n",
      "    Message('note_on', channel=0, note=58, velocity=86, time=1),\n",
      "    Message('note_on', channel=0, note=67, velocity=77, time=0),\n",
      "    Message('note_on', channel=0, note=70, velocity=75, time=0),\n",
      "    Message('note_on', channel=0, note=46, velocity=75, time=1),\n",
      "    Message('note_on', channel=0, note=77, velocity=78, time=4),\n",
      "    Message('note_on', channel=0, note=70, velocity=0, time=5),\n",
      "    Message('note_on', channel=0, note=67, velocity=0, time=116),\n",
      "    Message('note_on', channel=0, note=79, velocity=0, time=0),\n",
      "    Message('note_on', channel=0, note=59, velocity=79, time=1),\n",
      "    Message('note_on', channel=0, note=71, velocity=78, time=1),\n",
      "    Message('note_on', channel=0, note=47, velocity=77, time=0),\n",
      "    Message('note_on', channel=0, note=79, velocity=88, time=2),\n",
      "    Message('note_on', channel=0, note=67, velocity=76, time=1),\n",
      "    Message('note_on', channel=0, note=71, velocity=0, time=2),\n",
      "    Message('note_on', channel=0, note=77, velocity=0, time=0),\n",
      "    Message('note_on', channel=0, note=77, velocity=66, time=6),\n",
      "    Message('note_on', channel=0, note=67, velocity=0, time=109),\n",
      "    Message('note_on', channel=0, note=77, velocity=0, time=0),\n",
      "    Message('note_on', channel=0, note=79, velocity=0, time=0),\n",
      "    Message('note_on', channel=0, note=79, velocity=83, time=10),\n",
      "    Message('note_on', channel=0, note=60, velocity=78, time=0),\n",
      "    Message('note_on', channel=0, note=67, velocity=75, time=1),\n",
      "    Message('note_on', channel=0, note=77, velocity=76, time=1),\n",
      "    Message('note_on', channel=0, note=48, velocity=80, time=0),\n",
      "    Message('note_on', channel=0, note=67, velocity=0, time=127),\n",
      "    Message('note_on', channel=0, note=79, velocity=0, time=0),\n",
      "    Message('note_on', channel=0, note=79, velocity=90, time=4),\n",
      "    Message('note_on', channel=0, note=61, velocity=83, time=0),\n",
      "    Message('note_on', channel=0, note=67, velocity=79, time=2),\n",
      "    Message('note_on', channel=0, note=49, velocity=76, time=2),\n",
      "    Message('note_on', channel=0, note=58, velocity=0, time=125),\n",
      "    Message('note_on', channel=0, note=46, velocity=0, time=1),\n",
      "    Message('note_on', channel=0, note=61, velocity=0, time=0),\n",
      "    Message('note_on', channel=0, note=49, velocity=0, time=1),\n",
      "    Message('note_on', channel=0, note=57, velocity=0, time=0),\n",
      "    Message('note_on', channel=0, note=47, velocity=0, time=0),\n",
      "    Message('note_on', channel=0, note=48, velocity=0, time=0),\n",
      "    Message('note_on', channel=0, note=59, velocity=0, time=0),\n",
      "    Message('note_on', channel=0, note=60, velocity=0, time=1),\n",
      "    Message('control_change', channel=0, control=64, value=0, time=1),\n",
      "    Message('note_on', channel=0, note=67, velocity=0, time=1),\n",
      "    Message('note_on', channel=0, note=77, velocity=0, time=0),\n",
      "    Message('note_on', channel=0, note=79, velocity=0, time=0),\n",
      "    Message('note_on', channel=0, note=79, velocity=82, time=5),\n",
      "    Message('note_on', channel=0, note=67, velocity=78, time=2),\n",
      "    Message('note_on', channel=0, note=45, velocity=0, time=1),\n",
      "    Message('note_on', channel=0, note=77, velocity=77, time=1),\n",
      "    Message('note_on', channel=0, note=62, velocity=79, time=1),\n",
      "    Message('note_on', channel=0, note=50, velocity=72, time=2),\n",
      "    Message('note_on', channel=0, note=62, velocity=0, time=53),\n",
      "    Message('note_on', channel=0, note=67, velocity=0, time=1),\n",
      "    Message('note_on', channel=0, note=77, velocity=0, time=2),\n",
      "    Message('note_on', channel=0, note=50, velocity=0, time=0),\n",
      "    Message('note_on', channel=0, note=79, velocity=0, time=3),\n",
      "    Message('control_change', channel=0, control=64, value=127, time=44),\n",
      "    Message('note_on', channel=0, note=79, velocity=86, time=50),\n",
      "    Message('note_on', channel=0, note=63, velocity=82, time=0),\n",
      "    Message('note_on', channel=0, note=67, velocity=83, time=0),\n",
      "    Message('note_on', channel=0, note=51, velocity=75, time=1),\n",
      "    Message('note_on', channel=0, note=77, velocity=81, time=7),\n",
      "    Message('note_on', channel=0, note=77, velocity=0, time=158),\n",
      "    Message('note_on', channel=0, note=79, velocity=0, time=2),\n",
      "    Message('note_on', channel=0, note=63, velocity=0, time=0),\n",
      "    Message('note_on', channel=0, note=51, velocity=0, time=1),\n",
      "    Message('note_on', channel=0, note=67, velocity=0, time=0),\n",
      "    Message('control_change', channel=0, control=64, value=0, time=4),\n",
      "    Message('note_on', channel=0, note=48, velocity=62, time=18),\n",
      "    Message('note_on', channel=0, note=48, velocity=0, time=74),\n",
      "    Message('control_change', channel=0, control=64, value=127, time=8),\n",
      "    Message('note_on', channel=0, note=55, velocity=58, time=56),\n",
      "    Message('note_on', channel=0, note=60, velocity=74, time=6),\n",
      "    Message('note_on', channel=0, note=88, velocity=92, time=18),\n",
      "    Message('note_on', channel=0, note=79, velocity=82, time=0),\n",
      "    Message('note_on', channel=0, note=76, velocity=89, time=1),\n",
      "    Message('note_on', channel=0, note=64, velocity=86, time=1),\n",
      "    Message('note_on', channel=0, note=85, velocity=45, time=14),\n",
      "    Message('note_on', channel=0, note=42, velocity=77, time=448),\n",
      "    Message('note_on', channel=0, note=55, velocity=0, time=1),\n",
      "    Message('note_on', channel=0, note=43, velocity=80, time=4),\n",
      "    Message('note_on', channel=0, note=54, velocity=63, time=1),\n",
      "    Message('note_on', channel=0, note=55, velocity=70, time=6),\n",
      "    Message('note_on', channel=0, note=57, velocity=56, time=2),\n",
      "    Message('note_on', channel=0, note=57, velocity=0, time=87),\n",
      "    Message('note_on', channel=0, note=43, velocity=0, time=7),\n",
      "    Message('note_on', channel=0, note=57, velocity=66, time=4),\n",
      "    Message('note_on', channel=0, note=55, velocity=0, time=4),\n",
      "    Message('note_on', channel=0, note=43, velocity=62, time=2),\n",
      "    Message('note_on', channel=0, note=45, velocity=56, time=3),\n",
      "    Message('note_on', channel=0, note=55, velocity=61, time=1),\n",
      "    Message('note_on', channel=0, note=57, velocity=0, time=86),\n",
      "    Message('note_on', channel=0, note=57, velocity=65, time=5),\n",
      "    Message('note_on', channel=0, note=60, velocity=0, time=3),\n",
      "    Message('note_on', channel=0, note=43, velocity=0, time=31),\n",
      "    Message('note_on', channel=0, note=43, velocity=56, time=4),\n",
      "    Message('note_on', channel=0, note=55, velocity=0, time=19),\n",
      "    Message('note_on', channel=0, note=55, velocity=55, time=11),\n",
      "    Message('note_on', channel=0, note=45, velocity=0, time=50),\n",
      "    Message('note_on', channel=0, note=57, velocity=0, time=0),\n",
      "    Message('note_on', channel=0, note=57, velocity=58, time=9),\n",
      "    Message('note_on', channel=0, note=45, velocity=48, time=1),\n",
      "    Message('note_on', channel=0, note=43, velocity=0, time=36),\n",
      "    Message('note_on', channel=0, note=55, velocity=0, time=0),\n",
      "    Message('note_on', channel=0, note=55, velocity=60, time=10),\n",
      "    Message('note_on', channel=0, note=43, velocity=61, time=1),\n",
      "    Message('note_on', channel=0, note=45, velocity=0, time=58),\n",
      "    Message('note_on', channel=0, note=57, velocity=0, time=0),\n",
      "    Message('note_on', channel=0, note=57, velocity=65, time=5),\n",
      "    Message('note_on', channel=0, note=45, velocity=54, time=1),\n",
      "    Message('note_on', channel=0, note=43, velocity=0, time=48),\n",
      "    Message('note_on', channel=0, note=55, velocity=0, time=0),\n",
      "    Message('note_on', channel=0, note=55, velocity=57, time=10),\n",
      "    Message('note_on', channel=0, note=43, velocity=58, time=2),\n",
      "    Message('note_on', channel=0, note=57, velocity=0, time=50),\n",
      "    Message('note_on', channel=0, note=57, velocity=65, time=6),\n",
      "    Message('note_on', channel=0, note=45, velocity=0, time=1),\n",
      "    Message('note_on', channel=0, note=45, velocity=56, time=5),\n",
      "    Message('note_on', channel=0, note=43, velocity=0, time=72),\n",
      "    Message('note_on', channel=0, note=55, velocity=0, time=0),\n",
      "    Message('note_on', channel=0, note=43, velocity=57, time=4),\n",
      "    Message('note_on', channel=0, note=55, velocity=57, time=0),\n",
      "    Message('note_on', channel=0, note=57, velocity=0, time=27),\n",
      "    Message('note_on', channel=0, note=45, velocity=0, time=7),\n",
      "    Message('note_on', channel=0, note=57, velocity=60, time=4),\n",
      "    Message('note_on', channel=0, note=45, velocity=48, time=1),\n",
      "    Message('note_on', channel=0, note=55, velocity=0, time=49),\n",
      "    Message('note_on', channel=0, note=55, velocity=63, time=12),\n",
      "    Message('note_on', channel=0, note=45, velocity=0, time=50),\n",
      "    Message('note_on', channel=0, note=57, velocity=0, time=0),\n",
      "    Message('note_on', channel=0, note=45, velocity=50, time=4),\n",
      "    Message('note_on', channel=0, note=57, velocity=62, time=1),\n",
      "    Message('note_on', channel=0, note=55, velocity=0, time=56),\n",
      "    Message('note_on', channel=0, note=43, velocity=0, time=8),\n",
      "    Message('note_on', channel=0, note=55, velocity=59, time=2),\n",
      "    Message('note_on', channel=0, note=43, velocity=49, time=8),\n",
      "    Message('note_on', channel=0, note=57, velocity=0, time=28),\n",
      "    Message('note_on', channel=0, note=57, velocity=61, time=12),\n",
      "    Message('note_on', channel=0, note=42, velocity=0, time=111),\n",
      "    Message('note_on', channel=0, note=54, velocity=0, time=0),\n",
      "    Message('note_on', channel=0, note=54, velocity=66, time=7),\n",
      "    Message('note_on', channel=0, note=42, velocity=64, time=4),\n",
      "    Message('note_on', channel=0, note=43, velocity=0, time=74),\n",
      "    Message('note_on', channel=0, note=55, velocity=0, time=0),\n",
      "    Message('note_on', channel=0, note=55, velocity=77, time=4),\n",
      "    Message('note_on', channel=0, note=43, velocity=72, time=2),\n",
      "    Message('note_on', channel=0, note=43, velocity=0, time=285),\n",
      "    Message('note_on', channel=0, note=76, velocity=0, time=0),\n",
      "    Message('note_on', channel=0, note=79, velocity=0, time=0),\n",
      "    Message('note_on', channel=0, note=88, velocity=0, time=0),\n",
      "    Message('note_on', channel=0, note=88, velocity=93, time=4),\n",
      "    Message('note_on', channel=0, note=76, velocity=91, time=2),\n",
      "    Message('note_on', channel=0, note=79, velocity=87, time=1),\n",
      "    Message('note_on', channel=0, note=64, velocity=0, time=1),\n",
      "    Message('note_on', channel=0, note=43, velocity=84, time=4),\n",
      "    Message('note_on', channel=0, note=54, velocity=0, time=0),\n",
      "    Message('note_on', channel=0, note=42, velocity=0, time=0),\n",
      "    Message('note_on', channel=0, note=31, velocity=88, time=0),\n",
      "    Message('control_change', channel=0, control=64, value=0, time=1),\n",
      "    Message('note_on', channel=0, note=55, velocity=0, time=0),\n",
      "    Message('note_on', channel=0, note=45, velocity=0, time=1),\n",
      "    Message('note_on', channel=0, note=57, velocity=0, time=17),\n",
      "    Message('note_on', channel=0, note=85, velocity=0, time=0),\n",
      "    Message('control_change', channel=0, control=64, value=127, time=62),\n",
      "    Message('note_on', channel=0, note=55, velocity=52, time=279),\n",
      "    Message('note_on', channel=0, note=62, velocity=45, time=85),\n",
      "    Message('note_on', channel=0, note=86, velocity=90, time=43),\n",
      "    Message('note_on', channel=0, note=71, velocity=82, time=3),\n",
      "    Message('note_on', channel=0, note=74, velocity=86, time=0),\n",
      "    Message('note_on', channel=0, note=77, velocity=84, time=1),\n",
      "    Message('note_on', channel=0, note=55, velocity=0, time=364),\n",
      "    Message('note_on', channel=0, note=55, velocity=37, time=7),\n",
      "    Message('note_on', channel=0, note=57, velocity=39, time=12),\n",
      "    Message('note_on', channel=0, note=64, velocity=55, time=73),\n",
      "    Message('note_on', channel=0, note=76, velocity=0, time=23),\n",
      "    Message('note_on', channel=0, note=79, velocity=0, time=0),\n",
      "    Message('note_on', channel=0, note=88, velocity=0, time=0),\n",
      "    Message('note_on', channel=0, note=72, velocity=88, time=11),\n",
      "    Message('note_on', channel=0, note=84, velocity=80, time=0),\n",
      "    Message('note_on', channel=0, note=79, velocity=86, time=1),\n",
      "    Message('note_on', channel=0, note=88, velocity=91, time=0),\n",
      "    Message('note_on', channel=0, note=76, velocity=91, time=0),\n",
      "    Message('control_change', channel=0, control=64, value=0, time=10),\n",
      "    Message('note_on', channel=0, note=71, velocity=0, time=1),\n",
      "    Message('note_on', channel=0, note=77, velocity=0, time=3),\n",
      "    Message('note_on', channel=0, note=74, velocity=0, time=0),\n",
      "    Message('note_on', channel=0, note=86, velocity=0, time=1),\n",
      "    Message('note_on', channel=0, note=62, velocity=0, time=4),\n",
      "    Message('note_on', channel=0, note=31, velocity=0, time=8),\n",
      "    Message('note_on', channel=0, note=43, velocity=0, time=15),\n",
      "    Message('note_on', channel=0, note=57, velocity=0, time=8),\n",
      "    Message('control_change', channel=0, control=64, value=127, time=8),\n",
      "    Message('note_on', channel=0, note=55, velocity=0, time=192),\n",
      "    Message('note_on', channel=0, note=55, velocity=50, time=10),\n",
      "    Message('note_on', channel=0, note=79, velocity=0, time=151),\n",
      "    Message('note_on', channel=0, note=79, velocity=56, time=6),\n",
      "    Message('note_on', channel=0, note=67, velocity=52, time=0),\n",
      "    Message('note_on', channel=0, note=89, velocity=92, time=77),\n",
      "    Message('note_on', channel=0, note=79, velocity=0, time=1),\n",
      "    Message('note_on', channel=0, note=83, velocity=85, time=4),\n",
      "    Message('note_on', channel=0, note=86, velocity=83, time=0),\n",
      "    Message('note_on', channel=0, note=77, velocity=86, time=0),\n",
      "    Message('note_on', channel=0, note=74, velocity=77, time=0),\n",
      "    Message('note_on', channel=0, note=79, velocity=84, time=1),\n",
      "    Message('note_on', channel=0, note=48, velocity=74, time=337),\n",
      "    Message('note_on', channel=0, note=43, velocity=47, time=4),\n",
      "    Message('note_on', channel=0, note=64, velocity=0, time=8),\n",
      "    Message('note_on', channel=0, note=83, velocity=0, time=5),\n",
      "    Message('note_on', channel=0, note=79, velocity=0, time=0),\n",
      "    Message('note_on', channel=0, note=76, velocity=0, time=1),\n",
      "    Message('note_on', channel=0, note=74, velocity=0, time=0),\n",
      "    Message('note_on', channel=0, note=67, velocity=0, time=0),\n",
      "    Message('note_on', channel=0, note=86, velocity=0, time=0),\n",
      "    Message('note_on', channel=0, note=84, velocity=0, time=0),\n",
      "    Message('note_on', channel=0, note=77, velocity=0, time=1),\n",
      "    Message('note_on', channel=0, note=89, velocity=0, time=0),\n",
      "    Message('control_change', channel=0, control=64, value=0, time=1),\n",
      "    Message('note_on', channel=0, note=72, velocity=0, time=0),\n",
      "    Message('note_on', channel=0, note=55, velocity=0, time=7),\n",
      "    Message('note_on', channel=0, note=88, velocity=0, time=8),\n",
      "    Message('control_change', channel=0, control=64, value=127, time=46),\n",
      "    Message('note_on', channel=0, note=55, velocity=38, time=45),\n",
      "    Message('note_on', channel=0, note=60, velocity=56, time=76),\n",
      "    Message('note_on', channel=0, note=43, velocity=0, time=48),\n",
      "    Message('note_on', channel=0, note=84, velocity=87, time=3),\n",
      "    Message('note_on', channel=0, note=88, velocity=95, time=2),\n",
      "    Message('note_on', channel=0, note=76, velocity=96, time=2),\n",
      "    Message('note_on', channel=0, note=67, velocity=85, time=1),\n",
      "    Message('note_on', channel=0, note=79, velocity=88, time=0),\n",
      "    Message('note_on', channel=0, note=84, velocity=0, time=322),\n",
      "    Message('note_on', channel=0, note=96, velocity=92, time=3),\n",
      "    Message('note_on', channel=0, note=84, velocity=85, time=4),\n",
      "    Message('note_on', channel=0, note=60, velocity=0, time=1),\n",
      "    Message('note_on', channel=0, note=72, velocity=77, time=11),\n",
      "    Message('note_on', channel=0, note=60, velocity=73, time=0),\n",
      "    Message('note_on', channel=0, note=86, velocity=81, time=167),\n",
      "    Message('note_on', channel=0, note=98, velocity=96, time=1),\n",
      "    Message('note_on', channel=0, note=74, velocity=81, time=2),\n",
      "    Message('note_on', channel=0, note=62, velocity=71, time=6),\n",
      "    Message('note_on', channel=0, note=84, velocity=0, time=135),\n",
      "    Message('note_on', channel=0, note=96, velocity=0, time=0),\n",
      "    Message('note_on', channel=0, note=96, velocity=95, time=8),\n",
      "    Message('note_on', channel=0, note=84, velocity=87, time=4),\n",
      "    Message('note_on', channel=0, note=72, velocity=0, time=4),\n",
      "    Message('note_on', channel=0, note=60, velocity=0, time=7),\n",
      "    Message('note_on', channel=0, note=72, velocity=82, time=3),\n",
      "    Message('note_on', channel=0, note=60, velocity=65, time=2),\n",
      "    Message('note_on', channel=0, note=48, velocity=0, time=3),\n",
      "    Message('note_on', channel=0, note=48, velocity=50, time=6),\n",
      "    Message('note_on', channel=0, note=79, velocity=0, time=140),\n",
      "    Message('note_on', channel=0, note=91, velocity=92, time=11),\n",
      "    Message('note_on', channel=0, note=79, velocity=92, time=0),\n",
      "    Message('note_on', channel=0, note=67, velocity=0, time=4),\n",
      "    Message('note_on', channel=0, note=67, velocity=64, time=5),\n",
      "    Message('note_on', channel=0, note=55, velocity=0, time=3),\n",
      "    Message('note_on', channel=0, note=55, velocity=61, time=5),\n",
      "    Message('note_on', channel=0, note=93, velocity=95, time=129),\n",
      "    Message('note_on', channel=0, note=81, velocity=86, time=1),\n",
      "    Message('note_on', channel=0, note=69, velocity=72, time=6),\n",
      "    Message('note_on', channel=0, note=57, velocity=66, time=1),\n",
      "    Message('note_on', channel=0, note=79, velocity=0, time=111),\n",
      "    Message('note_on', channel=0, note=55, velocity=0, time=8),\n",
      "    Message('note_on', channel=0, note=67, velocity=0, time=0),\n",
      "    Message('note_on', channel=0, note=91, velocity=0, time=0),\n",
      "    Message('note_on', channel=0, note=79, velocity=86, time=4),\n",
      "    Message('note_on', channel=0, note=91, velocity=90, time=0),\n",
      "    Message('note_on', channel=0, note=67, velocity=70, time=6),\n",
      "    Message('note_on', channel=0, note=55, velocity=64, time=1),\n",
      "    Message('note_on', channel=0, note=76, velocity=0, time=127),\n",
      "    Message('note_on', channel=0, note=88, velocity=0, time=0),\n",
      "    Message('note_on', channel=0, note=88, velocity=89, time=8),\n",
      "    Message('note_on', channel=0, note=76, velocity=85, time=2),\n",
      "    Message('note_on', channel=0, note=64, velocity=65, time=2),\n",
      "    Message('note_on', channel=0, note=52, velocity=52, time=1),\n",
      "    Message('note_on', channel=0, note=89, velocity=88, time=116),\n",
      "    Message('note_on', channel=0, note=77, velocity=84, time=4),\n",
      "    Message('note_on', channel=0, note=65, velocity=65, time=3),\n",
      "    Message('note_on', channel=0, note=53, velocity=61, time=5),\n",
      "    Message('note_on', channel=0, note=64, velocity=0, time=105),\n",
      "    Message('note_on', channel=0, note=76, velocity=0, time=0),\n",
      "    Message('note_on', channel=0, note=88, velocity=0, time=0),\n",
      "    Message('note_on', channel=0, note=88, velocity=90, time=5),\n",
      "    Message('note_on', channel=0, note=76, velocity=84, time=1),\n",
      "    Message('note_on', channel=0, note=64, velocity=74, time=5),\n",
      "    Message('note_on', channel=0, note=52, velocity=0, time=4),\n",
      "    Message('note_on', channel=0, note=52, velocity=56, time=7),\n",
      "    Message('note_on', channel=0, note=72, velocity=0, time=109),\n",
      "    Message('note_on', channel=0, note=84, velocity=0, time=0),\n",
      "    Message('note_on', channel=0, note=84, velocity=84, time=3),\n",
      "    Message('note_on', channel=0, note=72, velocity=79, time=2),\n",
      "    Message('note_on', channel=0, note=48, velocity=0, time=2),\n",
      "    Message('note_on', channel=0, note=60, velocity=0, time=0),\n",
      "    Message('note_on', channel=0, note=60, velocity=66, time=5),\n",
      "    Message('note_on', channel=0, note=48, velocity=66, time=2),\n",
      "    Message('note_on', channel=0, note=74, velocity=0, time=101),\n",
      "    Message('note_on', channel=0, note=86, velocity=0, time=0),\n",
      "    Message('note_on', channel=0, note=62, velocity=0, time=7),\n",
      "    Message('note_on', channel=0, note=86, velocity=84, time=3),\n",
      "    Message('note_on', channel=0, note=74, velocity=81, time=1),\n",
      "    Message('note_on', channel=0, note=62, velocity=70, time=2),\n",
      "    Message('note_on', channel=0, note=50, velocity=67, time=5),\n",
      "    Message('note_on', channel=0, note=84, velocity=0, time=97),\n",
      "    Message('note_on', channel=0, note=60, velocity=0, time=8),\n",
      "    Message('note_on', channel=0, note=72, velocity=0, time=0),\n",
      "    Message('note_on', channel=0, note=84, velocity=91, time=3),\n",
      "    Message('note_on', channel=0, note=72, velocity=88, time=1),\n",
      "    Message('note_on', channel=0, note=60, velocity=71, time=0),\n",
      "    Message('note_on', channel=0, note=48, velocity=0, time=3),\n",
      "    Message('note_on', channel=0, note=48, velocity=58, time=11),\n",
      "    Message('note_on', channel=0, note=67, velocity=0, time=104),\n",
      "    Message('note_on', channel=0, note=79, velocity=0, time=0),\n",
      "    Message('note_on', channel=0, note=91, velocity=0, time=0),\n",
      "    Message('note_on', channel=0, note=55, velocity=0, time=8),\n",
      "    Message('note_on', channel=0, note=79, velocity=85, time=1),\n",
      "    Message('note_on', channel=0, note=91, velocity=77, time=2),\n",
      "    Message('note_on', channel=0, note=67, velocity=76, time=1),\n",
      "    Message('note_on', channel=0, note=55, velocity=63, time=0),\n",
      "    Message('note_on', channel=0, note=43, velocity=60, time=2),\n",
      "    Message('note_on', channel=0, note=93, velocity=0, time=102),\n",
      "    Message('note_on', channel=0, note=57, velocity=0, time=7),\n",
      "    Message('note_on', channel=0, note=69, velocity=0, time=0),\n",
      "    Message('note_on', channel=0, note=81, velocity=0, time=0),\n",
      "    Message('note_on', channel=0, note=93, velocity=83, time=4),\n",
      "    Message('note_on', channel=0, note=81, velocity=87, time=1),\n",
      "    Message('note_on', channel=0, note=69, velocity=84, time=1),\n",
      "    Message('note_on', channel=0, note=57, velocity=72, time=4),\n",
      "    Message('note_on', channel=0, note=45, velocity=65, time=4),\n",
      "    Message('note_on', channel=0, note=79, velocity=0, time=94),\n",
      "    Message('note_on', channel=0, note=55, velocity=0, time=8),\n",
      "    Message('note_on', channel=0, note=67, velocity=0, time=0),\n",
      "    Message('note_on', channel=0, note=91, velocity=0, time=0),\n",
      "    Message('note_on', channel=0, note=79, velocity=88, time=3),\n",
      "    Message('note_on', channel=0, note=91, velocity=77, time=0),\n",
      "    Message('note_on', channel=0, note=67, velocity=76, time=1),\n",
      "    Message('note_on', channel=0, note=43, velocity=0, time=3),\n",
      "    Message('note_on', channel=0, note=55, velocity=63, time=3),\n",
      "    Message('note_on', channel=0, note=43, velocity=59, time=4),\n",
      "    Message('note_on', channel=0, note=64, velocity=0, time=108),\n",
      "    Message('note_on', channel=0, note=76, velocity=0, time=0),\n",
      "    Message('note_on', channel=0, note=52, velocity=0, time=8),\n",
      "    Message('note_on', channel=0, note=64, velocity=79, time=2),\n",
      "    Message('note_on', channel=0, note=76, velocity=84, time=1),\n",
      "    Message('note_on', channel=0, note=52, velocity=68, time=3),\n",
      "    Message('note_on', channel=0, note=65, velocity=0, time=102),\n",
      "    Message('note_on', channel=0, note=77, velocity=0, time=0),\n",
      "    Message('note_on', channel=0, note=89, velocity=0, time=7),\n",
      "    Message('note_on', channel=0, note=77, velocity=86, time=3),\n",
      "    Message('note_on', channel=0, note=65, velocity=74, time=1),\n",
      "    Message('note_on', channel=0, note=89, velocity=75, time=0),\n",
      "    Message('note_on', channel=0, note=53, velocity=0, time=4),\n",
      "    Message('note_on', channel=0, note=41, velocity=67, time=1),\n",
      "    Message('note_on', channel=0, note=53, velocity=65, time=3),\n",
      "    Message('note_on', channel=0, note=64, velocity=0, time=104),\n",
      "    Message('note_on', channel=0, note=76, velocity=0, time=0),\n",
      "    Message('note_on', channel=0, note=88, velocity=0, time=0),\n",
      "    Message('note_on', channel=0, note=64, velocity=79, time=5),\n",
      "    Message('note_on', channel=0, note=76, velocity=91, time=0),\n",
      "    Message('note_on', channel=0, note=41, velocity=0, time=2),\n",
      "    Message('note_on', channel=0, note=88, velocity=75, time=2),\n",
      "    Message('note_on', channel=0, note=52, velocity=0, time=6),\n",
      "    Message('note_on', channel=0, note=41, velocity=61, time=2),\n",
      "    Message('note_on', channel=0, note=52, velocity=59, time=8),\n",
      "    Message('note_on', channel=0, note=60, velocity=0, time=105),\n",
      "    Message('note_on', channel=0, note=72, velocity=0, time=0),\n",
      "    Message('note_on', channel=0, note=72, velocity=84, time=6),\n",
      "    Message('note_on', channel=0, note=48, velocity=0, time=2),\n",
      "    Message('note_on', channel=0, note=60, velocity=77, time=2),\n",
      "    Message('note_on', channel=0, note=48, velocity=64, time=2),\n",
      "    Message('note_on', channel=0, note=36, velocity=60, time=3),\n",
      "    Message('note_on', channel=0, note=50, velocity=0, time=131),\n",
      "    Message('note_on', channel=0, note=62, velocity=0, time=0),\n",
      "    Message('note_on', channel=0, note=74, velocity=0, time=0),\n",
      "    Message('note_on', channel=0, note=74, velocity=82, time=4),\n",
      "    Message('note_on', channel=0, note=62, velocity=78, time=3),\n",
      "    Message('note_on', channel=0, note=50, velocity=67, time=4),\n",
      "    Message('note_on', channel=0, note=38, velocity=62, time=1),\n",
      "    Message('note_on', channel=0, note=36, velocity=0, time=126),\n",
      "    Message('note_on', channel=0, note=48, velocity=0, time=0),\n",
      "    Message('note_on', channel=0, note=60, velocity=0, time=0),\n",
      "    Message('note_on', channel=0, note=72, velocity=0, time=0),\n",
      "    Message('note_on', channel=0, note=72, velocity=88, time=8),\n",
      "    Message('note_on', channel=0, note=60, velocity=75, time=2),\n",
      "    Message('note_on', channel=0, note=48, velocity=61, time=2),\n",
      "    Message('note_on', channel=0, note=36, velocity=65, time=0),\n",
      "    Message('note_on', channel=0, note=57, velocity=0, time=150),\n",
      "    Message('note_on', channel=0, note=69, velocity=0, time=0),\n",
      "    Message('note_on', channel=0, note=96, velocity=0, time=0),\n",
      "    Message('note_on', channel=0, note=98, velocity=0, time=0),\n",
      "    Message('note_on', channel=0, note=45, velocity=0, time=7),\n",
      "    Message('note_on', channel=0, note=69, velocity=88, time=3),\n",
      "    Message('note_on', channel=0, note=57, velocity=79, time=0),\n",
      "    Message('note_on', channel=0, note=45, velocity=66, time=3),\n",
      "    Message('note_on', channel=0, note=33, velocity=63, time=4),\n",
      "    Message('note_on', channel=0, note=52, velocity=0, time=159),\n",
      "    Message('note_on', channel=0, note=64, velocity=0, time=0),\n",
      "    Message('note_on', channel=0, note=64, velocity=85, time=7),\n",
      "    Message('note_on', channel=0, note=52, velocity=75, time=4),\n",
      "    Message('note_on', channel=0, note=40, velocity=57, time=17),\n",
      "    Message('control_change', channel=0, control=64, value=0, time=237),\n",
      "    Message('note_on', channel=0, note=93, velocity=0, time=1),\n",
      "    Message('note_on', channel=0, note=38, velocity=0, time=0),\n",
      "    Message('note_on', channel=0, note=53, velocity=0, time=0),\n",
      "    Message('note_on', channel=0, note=69, velocity=0, time=0),\n",
      "    Message('note_on', channel=0, note=36, velocity=0, time=0),\n",
      "    Message('note_on', channel=0, note=74, velocity=0, time=1),\n",
      "    Message('note_on', channel=0, note=33, velocity=0, time=0),\n",
      "    Message('note_on', channel=0, note=40, velocity=0, time=0),\n",
      "    Message('note_on', channel=0, note=48, velocity=0, time=0),\n",
      "    Message('note_on', channel=0, note=45, velocity=0, time=0),\n",
      "    Message('note_on', channel=0, note=60, velocity=0, time=0),\n",
      "    Message('note_on', channel=0, note=41, velocity=0, time=0),\n",
      "    Message('note_on', channel=0, note=62, velocity=0, time=0),\n",
      "    Message('note_on', channel=0, note=86, velocity=0, time=0),\n",
      "    Message('note_on', channel=0, note=81, velocity=0, time=0),\n",
      "    Message('note_on', channel=0, note=57, velocity=0, time=0),\n",
      "    Message('note_on', channel=0, note=77, velocity=0, time=1),\n",
      "    Message('note_on', channel=0, note=88, velocity=0, time=0),\n",
      "    Message('note_on', channel=0, note=76, velocity=0, time=0),\n",
      "    Message('note_on', channel=0, note=89, velocity=0, time=0),\n",
      "    Message('note_on', channel=0, note=72, velocity=0, time=1),\n",
      "    Message('note_on', channel=0, note=84, velocity=0, time=0),\n",
      "    Message('note_on', channel=0, note=91, velocity=0, time=1),\n",
      "    Message('note_on', channel=0, note=50, velocity=0, time=14),\n",
      "    Message('note_on', channel=0, note=52, velocity=0, time=0),\n",
      "    Message('note_on', channel=0, note=55, velocity=0, time=0),\n",
      "    Message('note_on', channel=0, note=65, velocity=0, time=0),\n",
      "    Message('note_on', channel=0, note=79, velocity=0, time=0),\n",
      "    Message('note_on', channel=0, note=43, velocity=0, time=16),\n",
      "    Message('note_on', channel=0, note=64, velocity=0, time=0),\n",
      "    Message('note_on', channel=0, note=67, velocity=0, time=0),\n",
      "    Message('note_on', channel=0, note=67, velocity=85, time=5),\n",
      "    Message('note_on', channel=0, note=60, velocity=80, time=0),\n",
      "    Message('note_on', channel=0, note=64, velocity=82, time=1),\n",
      "    Message('note_on', channel=0, note=43, velocity=92, time=1),\n",
      "    Message('note_on', channel=0, note=55, velocity=91, time=2),\n",
      "    Message('note_on', channel=0, note=31, velocity=92, time=1),\n",
      "    Message('control_change', channel=0, control=64, value=127, time=36),\n",
      "    Message('note_on', channel=0, note=75, velocity=92, time=356),\n",
      "    Message('note_on', channel=0, note=87, velocity=89, time=0),\n",
      "    Message('note_on', channel=0, note=63, velocity=74, time=2),\n",
      "    Message('note_on', channel=0, note=51, velocity=67, time=2),\n",
      "    Message('note_on', channel=0, note=62, velocity=76, time=165),\n",
      "    Message('note_on', channel=0, note=86, velocity=90, time=1),\n",
      "    Message('note_on', channel=0, note=50, velocity=67, time=0),\n",
      "    Message('note_on', channel=0, note=74, velocity=81, time=0),\n",
      "    Message('note_on', channel=0, note=61, velocity=77, time=146),\n",
      "    Message('note_on', channel=0, note=85, velocity=80, time=2),\n",
      "    Message('note_on', channel=0, note=49, velocity=71, time=2),\n",
      "    Message('note_on', channel=0, note=73, velocity=80, time=1),\n",
      "    Message('note_on', channel=0, note=60, velocity=0, time=98),\n",
      "    Message('note_on', channel=0, note=60, velocity=75, time=12),\n",
      "    Message('note_on', channel=0, note=84, velocity=74, time=0),\n",
      "    Message('note_on', channel=0, note=72, velocity=72, time=1),\n",
      "    Message('note_on', channel=0, note=48, velocity=68, time=1),\n",
      "    Message('note_on', channel=0, note=83, velocity=88, time=118),\n",
      "    Message('note_on', channel=0, note=59, velocity=74, time=2),\n",
      "    Message('note_on', channel=0, note=71, velocity=81, time=0),\n",
      "    Message('note_on', channel=0, note=47, velocity=64, time=4),\n",
      "    Message('note_on', channel=0, note=58, velocity=73, time=97),\n",
      "    Message('note_on', channel=0, note=82, velocity=77, time=0),\n",
      "    Message('note_on', channel=0, note=70, velocity=78, time=1),\n",
      "    Message('note_on', channel=0, note=46, velocity=65, time=0),\n",
      "    Message('note_on', channel=0, note=31, velocity=0, time=26),\n",
      "    Message('note_on', channel=0, note=81, velocity=85, time=88),\n",
      "    Message('note_on', channel=0, note=69, velocity=80, time=3),\n",
      "    Message('note_on', channel=0, note=57, velocity=78, time=1),\n",
      "    Message('note_on', channel=0, note=45, velocity=69, time=2),\n",
      "    Message('note_on', channel=0, note=80, velocity=82, time=102),\n",
      "    Message('note_on', channel=0, note=68, velocity=77, time=0),\n",
      "    Message('note_on', channel=0, note=56, velocity=76, time=1),\n",
      "    Message('note_on', channel=0, note=44, velocity=70, time=0),\n",
      "    Message('note_on', channel=0, note=43, velocity=0, time=117),\n",
      "    Message('note_on', channel=0, note=55, velocity=0, time=0),\n",
      "    Message('note_on', channel=0, note=67, velocity=0, time=0),\n",
      "    Message('note_on', channel=0, note=79, velocity=89, time=3),\n",
      "    Message('note_on', channel=0, note=67, velocity=74, time=2),\n",
      "    Message('note_on', channel=0, note=55, velocity=73, time=0),\n",
      "    Message('note_on', channel=0, note=43, velocity=74, time=1),\n",
      "    Message('note_on', channel=0, note=66, velocity=76, time=114),\n",
      "    Message('note_on', channel=0, note=78, velocity=76, time=0),\n",
      "    Message('note_on', channel=0, note=54, velocity=76, time=1),\n",
      "    Message('note_on', channel=0, note=42, velocity=77, time=2),\n",
      "    Message('note_on', channel=0, note=41, velocity=70, time=119),\n",
      "    Message('note_on', channel=0, note=77, velocity=87, time=0),\n",
      "    Message('note_on', channel=0, note=53, velocity=73, time=1),\n",
      "    Message('note_on', channel=0, note=65, velocity=62, time=4),\n",
      "    Message('note_on', channel=0, note=69, velocity=0, time=118),\n",
      "    Message('note_on', channel=0, note=48, velocity=0, time=0),\n",
      "    Message('note_on', channel=0, note=53, velocity=0, time=1),\n",
      "    Message('note_on', channel=0, note=49, velocity=0, time=0),\n",
      "    Message('note_on', channel=0, note=50, velocity=0, time=0),\n",
      "    Message('note_on', channel=0, note=47, velocity=0, time=0),\n",
      "    Message('note_on', channel=0, note=54, velocity=0, time=0),\n",
      "    Message('note_on', channel=0, note=71, velocity=0, time=0),\n",
      "    Message('note_on', channel=0, note=62, velocity=0, time=0),\n",
      "    Message('note_on', channel=0, note=66, velocity=0, time=0),\n",
      "    Message('note_on', channel=0, note=68, velocity=0, time=0),\n",
      "    Message('note_on', channel=0, note=67, velocity=0, time=0),\n",
      "    Message('note_on', channel=0, note=42, velocity=0, time=0),\n",
      "    Message('note_on', channel=0, note=70, velocity=0, time=0),\n",
      "    Message('note_on', channel=0, note=73, velocity=0, time=0),\n",
      "    Message('note_on', channel=0, note=56, velocity=0, time=0),\n",
      "    Message('note_on', channel=0, note=65, velocity=0, time=0),\n",
      "    Message('note_on', channel=0, note=86, velocity=0, time=0),\n",
      "    Message('note_on', channel=0, note=75, velocity=0, time=0),\n",
      "    Message('note_on', channel=0, note=46, velocity=0, time=0),\n",
      "    Message('note_on', channel=0, note=45, velocity=0, time=0),\n",
      "    Message('note_on', channel=0, note=74, velocity=0, time=0),\n",
      "    Message('note_on', channel=0, note=51, velocity=0, time=0),\n",
      "    Message('note_on', channel=0, note=60, velocity=0, time=0),\n",
      "    Message('note_on', channel=0, note=55, velocity=0, time=0),\n",
      "    Message('note_on', channel=0, note=58, velocity=0, time=0),\n",
      "    Message('note_on', channel=0, note=43, velocity=0, time=0),\n",
      "    Message('note_on', channel=0, note=64, velocity=0, time=0),\n",
      "    Message('note_on', channel=0, note=57, velocity=0, time=0),\n",
      "    Message('note_on', channel=0, note=83, velocity=0, time=0),\n",
      "    Message('note_on', channel=0, note=72, velocity=0, time=0),\n",
      "    Message('note_on', channel=0, note=41, velocity=0, time=0),\n",
      "    Message('note_on', channel=0, note=44, velocity=0, time=0),\n",
      "    Message('note_on', channel=0, note=81, velocity=0, time=1),\n",
      "    Message('note_on', channel=0, note=78, velocity=0, time=0),\n",
      "    Message('note_on', channel=0, note=79, velocity=0, time=0),\n",
      "    Message('note_on', channel=0, note=61, velocity=0, time=0),\n",
      "    Message('note_on', channel=0, note=77, velocity=0, time=0),\n",
      "    Message('note_on', channel=0, note=84, velocity=0, time=0),\n",
      "    Message('note_on', channel=0, note=63, velocity=0, time=0),\n",
      "    Message('note_on', channel=0, note=87, velocity=0, time=0),\n",
      "    Message('note_on', channel=0, note=59, velocity=0, time=0),\n",
      "    Message('note_on', channel=0, note=85, velocity=0, time=0),\n",
      "    Message('note_on', channel=0, note=82, velocity=0, time=1),\n",
      "    Message('control_change', channel=0, control=64, value=0, time=0),\n",
      "    Message('note_on', channel=0, note=80, velocity=0, time=24),\n",
      "    Message('note_on', channel=0, note=80, velocity=90, time=11),\n",
      "    Message('note_on', channel=0, note=88, velocity=95, time=1),\n",
      "    Message('note_on', channel=0, note=76, velocity=99, time=1),\n",
      "    Message('note_on', channel=0, note=52, velocity=90, time=0),\n",
      "    Message('note_on', channel=0, note=40, velocity=83, time=5),\n",
      "    Message('control_change', channel=0, control=64, value=127, time=28),\n",
      "    Message('note_on', channel=0, note=51, velocity=74, time=126),\n",
      "    Message('note_on', channel=0, note=39, velocity=66, time=1),\n",
      "    Message('note_on', channel=0, note=63, velocity=64, time=6),\n",
      "    Message('note_on', channel=0, note=63, velocity=0, time=5),\n",
      "    Message('note_on', channel=0, note=62, velocity=62, time=106),\n",
      "    Message('note_on', channel=0, note=50, velocity=71, time=2),\n",
      "    Message('note_on', channel=0, note=38, velocity=65, time=4),\n",
      "    Message('note_on', channel=0, note=49, velocity=72, time=108),\n",
      "    Message('note_on', channel=0, note=37, velocity=75, time=0),\n",
      "    Message('note_on', channel=0, note=48, velocity=70, time=116),\n",
      "    Message('note_on', channel=0, note=36, velocity=68, time=0),\n",
      "    Message('note_on', channel=0, note=47, velocity=64, time=142),\n",
      "    Message('note_on', channel=0, note=35, velocity=73, time=1),\n",
      "    Message('note_on', channel=0, note=62, velocity=0, time=128),\n",
      "    Message('control_change', channel=0, control=64, value=0, time=10),\n",
      "    Message('note_on', channel=0, note=80, velocity=0, time=1),\n",
      "    Message('note_on', channel=0, note=49, velocity=0, time=0),\n",
      "    Message('note_on', channel=0, note=51, velocity=0, time=1),\n",
      "    Message('note_on', channel=0, note=39, velocity=0, time=0),\n",
      "    Message('note_on', channel=0, note=76, velocity=0, time=0),\n",
      "    Message('note_on', channel=0, note=37, velocity=0, time=0),\n",
      "    Message('note_on', channel=0, note=86, velocity=91, time=1),\n",
      "    Message('note_on', channel=0, note=48, velocity=0, time=0),\n",
      "    Message('note_on', channel=0, note=38, velocity=0, time=0),\n",
      "    Message('note_on', channel=0, note=36, velocity=0, time=0),\n",
      "    Message('note_on', channel=0, note=88, velocity=0, time=0),\n",
      "    Message('note_on', channel=0, note=47, velocity=0, time=0),\n",
      "    Message('note_on', channel=0, note=50, velocity=0, time=1),\n",
      "    Message('note_on', channel=0, note=77, velocity=83, time=1),\n",
      "    Message('note_on', channel=0, note=35, velocity=0, time=0),\n",
      "    Message('note_on', channel=0, note=74, velocity=89, time=3),\n",
      "    Message('note_on', channel=0, note=46, velocity=75, time=1),\n",
      "    Message('note_on', channel=0, note=79, velocity=87, time=0),\n",
      "    Message('note_on', channel=0, note=34, velocity=76, time=1),\n",
      "    Message('note_on', channel=0, note=52, velocity=0, time=3),\n",
      "    Message('note_on', channel=0, note=40, velocity=0, time=8),\n",
      "    Message('control_change', channel=0, control=64, value=127, time=31),\n",
      "    Message('note_on', channel=0, note=46, velocity=0, time=69),\n",
      "    Message('note_on', channel=0, note=45, velocity=70, time=44),\n",
      "    Message('note_on', channel=0, note=33, velocity=71, time=2),\n",
      "    Message('note_on', channel=0, note=32, velocity=64, time=124),\n",
      "    Message('note_on', channel=0, note=44, velocity=68, time=0),\n",
      "    Message('note_on', channel=0, note=79, velocity=0, time=160),\n",
      "    Message('note_on', channel=0, note=79, velocity=82, time=7),\n",
      "    Message('note_on', channel=0, note=74, velocity=0, time=1),\n",
      "    Message('note_on', channel=0, note=77, velocity=0, time=0),\n",
      "    Message('note_on', channel=0, note=43, velocity=79, time=5),\n",
      "    Message('note_on', channel=0, note=74, velocity=80, time=0),\n",
      "    Message('note_on', channel=0, note=67, velocity=73, time=0),\n",
      "    Message('note_on', channel=0, note=31, velocity=80, time=1),\n",
      "    Message('note_on', channel=0, note=65, velocity=82, time=1),\n",
      "    Message('note_on', channel=0, note=77, velocity=77, time=2),\n",
      "    Message('note_on', channel=0, note=30, velocity=73, time=133),\n",
      "    Message('note_on', channel=0, note=42, velocity=70, time=0),\n",
      "    Message('note_on', channel=0, note=31, velocity=0, time=365),\n",
      "    Message('note_on', channel=0, note=43, velocity=0, time=7),\n",
      "    Message('note_on', channel=0, note=31, velocity=60, time=2),\n",
      "    Message('note_on', channel=0, note=43, velocity=61, time=5),\n",
      "    Message('note_on', channel=0, note=42, velocity=0, time=36),\n",
      "    Message('control_change', channel=0, control=64, value=0, time=1),\n",
      "    Message('note_on', channel=0, note=33, velocity=0, time=2),\n",
      "    Message('note_on', channel=0, note=45, velocity=0, time=2),\n",
      "    Message('note_on', channel=0, note=67, velocity=0, time=2),\n",
      "    Message('note_on', channel=0, note=34, velocity=0, time=4),\n",
      "    Message('note_on', channel=0, note=30, velocity=0, time=8),\n",
      "    Message('note_on', channel=0, note=32, velocity=0, time=0),\n",
      "    Message('note_on', channel=0, note=44, velocity=0, time=0),\n",
      "    Message('note_on', channel=0, note=65, velocity=0, time=0),\n",
      "    Message('note_on', channel=0, note=74, velocity=0, time=0),\n",
      "    Message('note_on', channel=0, note=77, velocity=0, time=0),\n",
      "    Message('note_on', channel=0, note=79, velocity=0, time=0),\n",
      "    Message('note_on', channel=0, note=86, velocity=0, time=0),\n",
      "    Message('note_on', channel=0, note=86, velocity=92, time=4),\n",
      "    Message('note_on', channel=0, note=74, velocity=94, time=4),\n",
      "    Message('note_on', channel=0, note=79, velocity=88, time=1),\n",
      "    Message('note_on', channel=0, note=77, velocity=88, time=1),\n",
      "    Message('note_on', channel=0, note=65, velocity=80, time=0),\n",
      "    Message('note_on', channel=0, note=71, velocity=84, time=0),\n",
      "    Message('note_on', channel=0, note=83, velocity=71, time=4),\n",
      "    Message('note_on', channel=0, note=59, velocity=77, time=3),\n",
      "    Message('note_on', channel=0, note=81, velocity=76, time=1),\n",
      "    Message('control_change', channel=0, control=64, value=127, time=74),\n",
      "    Message('note_on', channel=0, note=65, velocity=0, time=46),\n",
      "    Message('note_on', channel=0, note=100, velocity=93, time=261),\n",
      "    Message('note_on', channel=0, note=88, velocity=94, time=3),\n",
      "    Message('note_on', channel=0, note=76, velocity=84, time=5),\n",
      "    Message('note_on', channel=0, note=98, velocity=80, time=3),\n",
      "    Message('note_on', channel=0, note=31, velocity=0, time=4),\n",
      "    Message('note_on', channel=0, note=64, velocity=73, time=4),\n",
      "    Message('note_on', channel=0, note=74, velocity=0, time=165),\n",
      "    Message('note_on', channel=0, note=76, velocity=0, time=0),\n",
      "    Message('note_on', channel=0, note=86, velocity=0, time=0),\n",
      "    Message('note_on', channel=0, note=98, velocity=0, time=0),\n",
      "    Message('note_on', channel=0, note=88, velocity=0, time=8),\n",
      "    Message('note_on', channel=0, note=98, velocity=92, time=2),\n",
      "    Message('note_on', channel=0, note=74, velocity=85, time=1),\n",
      "    Message('note_on', channel=0, note=86, velocity=82, time=1),\n",
      "    Message('note_on', channel=0, note=76, velocity=78, time=0),\n",
      "    Message('note_on', channel=0, note=62, velocity=71, time=1),\n",
      "    Message('note_on', channel=0, note=88, velocity=74, time=1),\n",
      "    Message('note_on', channel=0, note=81, velocity=0, time=155),\n",
      "    Message('note_on', channel=0, note=93, velocity=96, time=8),\n",
      "    Message('note_on', channel=0, note=81, velocity=81, time=1),\n",
      "    Message('note_on', channel=0, note=69, velocity=74, time=4),\n",
      "    Message('note_on', channel=0, note=57, velocity=67, time=7),\n",
      "    Message('note_on', channel=0, note=79, velocity=0, time=134),\n",
      "    Message('note_on', channel=0, note=91, velocity=85, time=4),\n",
      "    Message('note_on', channel=0, note=79, velocity=79, time=0),\n",
      "    Message('note_on', channel=0, note=67, velocity=71, time=3),\n",
      "    Message('note_on', channel=0, note=55, velocity=59, time=4),\n",
      "    Message('note_on', channel=0, note=64, velocity=0, time=127),\n",
      "    Message('note_on', channel=0, note=76, velocity=0, time=0),\n",
      "    Message('note_on', channel=0, note=88, velocity=0, time=0),\n",
      "    Message('note_on', channel=0, note=88, velocity=90, time=8),\n",
      "    Message('note_on', channel=0, note=76, velocity=84, time=2),\n",
      "    Message('note_on', channel=0, note=64, velocity=75, time=2),\n",
      "    Message('note_on', channel=0, note=52, velocity=69, time=0),\n",
      "    Message('note_on', channel=0, note=74, velocity=0, time=126),\n",
      "    Message('note_on', channel=0, note=86, velocity=0, time=0),\n",
      "    Message('note_on', channel=0, note=62, velocity=0, time=8),\n",
      "    Message('note_on', channel=0, note=86, velocity=79, time=0),\n",
      "    Message('note_on', channel=0, note=74, velocity=76, time=3),\n",
      "    Message('note_on', channel=0, note=50, velocity=65, time=1),\n",
      "    Message('note_on', channel=0, note=62, velocity=69, time=1),\n",
      "    Message('note_on', channel=0, note=57, velocity=0, time=133),\n",
      "    Message('note_on', channel=0, note=69, velocity=0, time=0),\n",
      "    Message('note_on', channel=0, note=81, velocity=0, time=0),\n",
      "    Message('note_on', channel=0, note=81, velocity=82, time=8),\n",
      "    Message('note_on', channel=0, note=69, velocity=81, time=3),\n",
      "    Message('note_on', channel=0, note=45, velocity=67, time=0),\n",
      "    Message('note_on', channel=0, note=57, velocity=71, time=1),\n",
      "    Message('note_on', channel=0, note=43, velocity=0, time=127),\n",
      "    Message('note_on', channel=0, note=55, velocity=0, time=0),\n",
      "    Message('note_on', channel=0, note=67, velocity=0, time=0),\n",
      "    Message('note_on', channel=0, note=79, velocity=0, time=0),\n",
      "    Message('note_on', channel=0, note=79, velocity=78, time=7),\n",
      "    Message('note_on', channel=0, note=67, velocity=77, time=2),\n",
      "    Message('note_on', channel=0, note=55, velocity=69, time=1),\n",
      "    Message('note_on', channel=0, note=43, velocity=72, time=0),\n",
      "    Message('note_on', channel=0, note=52, velocity=0, time=143),\n",
      "    Message('note_on', channel=0, note=64, velocity=0, time=0),\n",
      "    Message('note_on', channel=0, note=76, velocity=0, time=0),\n",
      "    Message('note_on', channel=0, note=76, velocity=85, time=4),\n",
      "    Message('note_on', channel=0, note=64, velocity=85, time=4),\n",
      "    Message('note_on', channel=0, note=52, velocity=76, time=2),\n",
      "    Message('note_on', channel=0, note=40, velocity=69, time=1),\n",
      "    Message('note_on', channel=0, note=40, velocity=0, time=4),\n",
      "    Message('note_on', channel=0, note=50, velocity=0, time=139),\n",
      "    Message('note_on', channel=0, note=62, velocity=0, time=0),\n",
      "    Message('note_on', channel=0, note=74, velocity=0, time=0),\n",
      "    Message('note_on', channel=0, note=69, velocity=0, time=4),\n",
      "    Message('note_on', channel=0, note=50, velocity=74, time=2),\n",
      "    Message('note_on', channel=0, note=74, velocity=75, time=2),\n",
      "    Message('note_on', channel=0, note=62, velocity=80, time=1),\n",
      "    Message('note_on', channel=0, note=38, velocity=70, time=2),\n",
      "    Message('note_on', channel=0, note=64, velocity=0, time=150),\n",
      "    Message('note_on', channel=0, note=64, velocity=69, time=8),\n",
      "    Message('note_on', channel=0, note=67, velocity=0, time=23),\n",
      "    Message('note_on', channel=0, note=67, velocity=85, time=6),\n",
      "    Message('note_on', channel=0, note=43, velocity=0, time=1),\n",
      "    Message('note_on', channel=0, note=55, velocity=0, time=0),\n",
      "    Message('note_on', channel=0, note=43, velocity=80, time=5),\n",
      "    Message('note_on', channel=0, note=31, velocity=78, time=0),\n",
      "    Message('note_on', channel=0, note=55, velocity=80, time=4),\n",
      "    Message('control_change', channel=0, control=64, value=0, time=189),\n",
      "    Message('note_on', channel=0, note=45, velocity=0, time=2),\n",
      "    Message('note_on', channel=0, note=93, velocity=0, time=0),\n",
      "    Message('note_on', channel=0, note=100, velocity=0, time=1),\n",
      "    Message('note_on', channel=0, note=98, velocity=0, time=0),\n",
      "    Message('note_on', channel=0, note=38, velocity=0, time=0),\n",
      "    Message('note_on', channel=0, note=59, velocity=0, time=0),\n",
      "    Message('note_on', channel=0, note=81, velocity=0, time=0),\n",
      "    Message('note_on', channel=0, note=52, velocity=0, time=0),\n",
      "    Message('note_on', channel=0, note=76, velocity=0, time=1),\n",
      "    Message('note_on', channel=0, note=71, velocity=0, time=0),\n",
      "    Message('note_on', channel=0, note=86, velocity=0, time=0),\n",
      "    Message('note_on', channel=0, note=74, velocity=0, time=0),\n",
      "    Message('note_on', channel=0, note=88, velocity=0, time=0),\n",
      "    Message('note_on', channel=0, note=57, velocity=0, time=0),\n",
      "    Message('note_on', channel=0, note=77, velocity=0, time=0),\n",
      "    Message('note_on', channel=0, note=62, velocity=0, time=0),\n",
      "    Message('note_on', channel=0, note=55, velocity=0, time=0),\n",
      "    Message('note_on', channel=0, note=83, velocity=0, time=0),\n",
      "    Message('note_on', channel=0, note=31, velocity=0, time=0),\n",
      "    Message('note_on', channel=0, note=50, velocity=0, time=0),\n",
      "    Message('note_on', channel=0, note=67, velocity=0, time=0),\n",
      "    Message('note_on', channel=0, note=43, velocity=0, time=0),\n",
      "    Message('note_on', channel=0, note=79, velocity=0, time=1),\n",
      "    Message('note_on', channel=0, note=91, velocity=0, time=0),\n",
      "    Message('note_on', channel=0, note=64, velocity=0, time=28),\n",
      "    Message('note_on', channel=0, note=64, velocity=81, time=4),\n",
      "    Message('note_on', channel=0, note=60, velocity=86, time=1),\n",
      "    Message('note_on', channel=0, note=72, velocity=83, time=0),\n",
      "    Message('note_on', channel=0, note=36, velocity=80, time=4),\n",
      "    Message('note_on', channel=0, note=24, velocity=83, time=1),\n",
      "    Message('control_change', channel=0, control=64, value=127, time=51),\n",
      "    Message('note_on', channel=0, note=43, velocity=59, time=268),\n",
      "    Message('note_on', channel=0, note=31, velocity=66, time=2),\n",
      "    Message('note_on', channel=0, note=31, velocity=0, time=214),\n",
      "    Message('note_on', channel=0, note=43, velocity=0, time=0),\n",
      "    Message('note_on', channel=0, note=31, velocity=58, time=5),\n",
      "    Message('note_on', channel=0, note=43, velocity=54, time=1),\n",
      "    Message('note_on', channel=0, note=24, velocity=0, time=71),\n",
      "    Message('note_on', channel=0, note=31, velocity=0, time=100),\n",
      "    Message('note_on', channel=0, note=43, velocity=0, time=0),\n",
      "    Message('note_on', channel=0, note=43, velocity=64, time=11),\n",
      "    Message('note_on', channel=0, note=31, velocity=62, time=0),\n",
      "    Message('note_on', channel=0, note=36, velocity=0, time=173),\n",
      "    Message('note_on', channel=0, note=48, velocity=58, time=3),\n",
      "    Message('note_on', channel=0, note=36, velocity=53, time=2),\n",
      "    Message('note_on', channel=0, note=38, velocity=48, time=23),\n",
      "    Message('note_on', channel=0, note=36, velocity=0, time=95),\n",
      "    Message('note_on', channel=0, note=48, velocity=0, time=0),\n",
      "    Message('note_on', channel=0, note=48, velocity=56, time=10),\n",
      "    Message('note_on', channel=0, note=36, velocity=52, time=0),\n",
      "    Message('note_on', channel=0, note=36, velocity=0, time=159),\n",
      "    Message('note_on', channel=0, note=48, velocity=0, time=0),\n",
      "    Message('note_on', channel=0, note=48, velocity=62, time=5),\n",
      "    Message('note_on', channel=0, note=36, velocity=51, time=4),\n",
      "    Message('note_on', channel=0, note=43, velocity=0, time=152),\n",
      "    Message('note_on', channel=0, note=43, velocity=58, time=11),\n",
      "    Message('note_on', channel=0, note=55, velocity=56, time=0),\n",
      "    Message('note_on', channel=0, note=55, velocity=0, time=150),\n",
      "    Message('note_on', channel=0, note=55, velocity=61, time=7),\n",
      "    Message('note_on', channel=0, note=43, velocity=0, time=1),\n",
      "    Message('note_on', channel=0, note=64, velocity=0, time=3),\n",
      "    Message('note_on', channel=0, note=43, velocity=45, time=2),\n",
      "    Message('note_on', channel=0, note=43, velocity=0, time=172),\n",
      "    Message('note_on', channel=0, note=55, velocity=0, time=0),\n",
      "    Message('note_on', channel=0, note=43, velocity=53, time=8),\n",
      "    Message('note_on', channel=0, note=55, velocity=56, time=2),\n",
      "    Message('note_on', channel=0, note=48, velocity=0, time=197),\n",
      "    Message('note_on', channel=0, note=48, velocity=48, time=6),\n",
      "    Message('note_on', channel=0, note=48, velocity=0, time=232),\n",
      "    Message('note_on', channel=0, note=60, velocity=0, time=0),\n",
      "    Message('note_on', channel=0, note=60, velocity=55, time=7),\n",
      "    Message('note_on', channel=0, note=48, velocity=47, time=2),\n",
      "    Message('note_on', channel=0, note=38, velocity=0, time=222),\n",
      "    Message('control_change', channel=0, control=64, value=0, time=47),\n",
      "    Message('note_on', channel=0, note=36, velocity=0, time=2),\n",
      "    Message('note_on', channel=0, note=31, velocity=0, time=0),\n",
      "    Message('note_on', channel=0, note=60, velocity=0, time=0),\n",
      "    Message('note_on', channel=0, note=72, velocity=0, time=1),\n",
      "    Message('note_on', channel=0, note=43, velocity=0, time=0),\n",
      "    Message('note_on', channel=0, note=48, velocity=0, time=3),\n",
      "    Message('note_on', channel=0, note=48, velocity=43, time=11),\n",
      "    Message('note_on', channel=0, note=55, velocity=0, time=12),\n",
      "    Message('control_change', channel=0, control=64, value=127, time=146),\n",
      "    Message('note_on', channel=0, note=75, velocity=42, time=171),\n",
      "    Message('note_on', channel=0, note=72, velocity=31, time=10),\n",
      "    Message('note_on', channel=0, note=48, velocity=0, time=4),\n",
      "    Message('note_on', channel=0, note=60, velocity=28, time=3),\n",
      "    Message('note_on', channel=0, note=51, velocity=22, time=2),\n",
      "    Message('note_on', channel=0, note=48, velocity=29, time=0),\n",
      "    Message('note_on', channel=0, note=67, velocity=27, time=2),\n",
      "    Message('note_on', channel=0, note=63, velocity=19, time=4),\n",
      "    Message('note_on', channel=0, note=63, velocity=0, time=150),\n",
      "    Message('note_on', channel=0, note=67, velocity=0, time=0),\n",
      "    Message('note_on', channel=0, note=75, velocity=0, time=0),\n",
      "    Message('note_on', channel=0, note=60, velocity=0, time=8),\n",
      "    Message('note_on', channel=0, note=72, velocity=0, time=0),\n",
      "    Message('note_on', channel=0, note=75, velocity=46, time=2),\n",
      "    Message('note_on', channel=0, note=67, velocity=30, time=1),\n",
      "    Message('note_on', channel=0, note=63, velocity=33, time=0),\n",
      "    Message('note_on', channel=0, note=60, velocity=21, time=1),\n",
      "    Message('note_on', channel=0, note=72, velocity=30, time=6),\n",
      "    Message('note_on', channel=0, note=79, velocity=59, time=192),\n",
      "    Message('note_on', channel=0, note=48, velocity=0, time=20),\n",
      "    Message('note_on', channel=0, note=60, velocity=0, time=0),\n",
      "    Message('note_on', channel=0, note=67, velocity=0, time=0),\n",
      "    Message('note_on', channel=0, note=51, velocity=0, time=8),\n",
      "    Message('note_on', channel=0, note=75, velocity=0, time=0),\n",
      "    Message('note_on', channel=0, note=60, velocity=33, time=1),\n",
      "    Message('note_on', channel=0, note=48, velocity=33, time=1),\n",
      "    Message('note_on', channel=0, note=67, velocity=35, time=2),\n",
      "    Message('note_on', channel=0, note=75, velocity=41, time=2),\n",
      "    Message('note_on', channel=0, note=51, velocity=25, time=3),\n",
      "    Message('note_on', channel=0, note=79, velocity=0, time=160),\n",
      "    Message('note_on', channel=0, note=63, velocity=0, time=8),\n",
      "    Message('note_on', channel=0, note=75, velocity=0, time=0),\n",
      "    Message('note_on', channel=0, note=79, velocity=44, time=3),\n",
      "    Message('note_on', channel=0, note=63, velocity=37, time=0),\n",
      "    Message('note_on', channel=0, note=75, velocity=44, time=4),\n",
      "    Message('note_on', channel=0, note=67, velocity=0, time=0),\n",
      "    Message('note_on', channel=0, note=67, velocity=30, time=6),\n",
      "    Message('note_on', channel=0, note=55, velocity=30, time=3),\n",
      "    Message('note_on', channel=0, note=67, velocity=0, time=145),\n",
      "    Message('note_on', channel=0, note=75, velocity=0, time=0),\n",
      "    Message('note_on', channel=0, note=51, velocity=0, time=8),\n",
      "    Message('note_on', channel=0, note=60, velocity=0, time=0),\n",
      "    Message('note_on', channel=0, note=72, velocity=0, time=0),\n",
      "    Message('note_on', channel=0, note=75, velocity=44, time=2),\n",
      "    Message('note_on', channel=0, note=67, velocity=37, time=1),\n",
      "    Message('note_on', channel=0, note=60, velocity=22, time=1),\n",
      "    Message('note_on', channel=0, note=51, velocity=31, time=5),\n",
      "    Message('note_on', channel=0, note=72, velocity=31, time=0),\n",
      "    Message('control_change', channel=0, control=64, value=0, time=159),\n",
      "    Message('note_on', channel=0, note=51, velocity=0, time=2),\n",
      "    Message('note_on', channel=0, note=60, velocity=0, time=1),\n",
      "    Message('note_on', channel=0, note=79, velocity=0, time=0),\n",
      "    Message('note_on', channel=0, note=48, velocity=0, time=13),\n",
      "    Message('note_on', channel=0, note=55, velocity=0, time=0),\n",
      "    Message('note_on', channel=0, note=63, velocity=0, time=0),\n",
      "    Message('note_on', channel=0, note=67, velocity=0, time=0),\n",
      "    Message('note_on', channel=0, note=75, velocity=0, time=0),\n",
      "    Message('note_on', channel=0, note=75, velocity=40, time=11),\n",
      "    Message('note_on', channel=0, note=72, velocity=0, time=4),\n",
      "    Message('note_on', channel=0, note=72, velocity=32, time=11),\n",
      "    Message('note_on', channel=0, note=68, velocity=33, time=2),\n",
      "    Message('note_on', channel=0, note=53, velocity=29, time=17),\n",
      "    Message('note_on', channel=0, note=41, velocity=32, time=2),\n",
      "    Message('control_change', channel=0, control=64, value=127, time=22),\n",
      "    Message('note_on', channel=0, note=75, velocity=0, time=154),\n",
      "    Message('note_on', channel=0, note=72, velocity=0, time=7),\n",
      "    Message('note_on', channel=0, note=75, velocity=45, time=1),\n",
      "    Message('note_on', channel=0, note=72, velocity=33, time=3),\n",
      "    Message('note_on', channel=0, note=68, velocity=0, time=4),\n",
      "    Message('note_on', channel=0, note=68, velocity=26, time=4),\n",
      "    Message('note_on', channel=0, note=60, velocity=17, time=16),\n",
      "    Message('note_on', channel=0, note=68, velocity=0, time=111),\n",
      "    Message('note_on', channel=0, note=63, velocity=45, time=2),\n",
      "    Message('note_on', channel=0, note=53, velocity=0, time=5),\n",
      "    Message('note_on', channel=0, note=75, velocity=0, time=0),\n",
      "    Message('note_on', channel=0, note=68, velocity=37, time=2),\n",
      "    Message('note_on', channel=0, note=56, velocity=38, time=2),\n",
      "    Message('note_on', channel=0, note=75, velocity=48, time=0),\n",
      "    Message('note_on', channel=0, note=72, velocity=0, time=4),\n",
      "    Message('note_on', channel=0, note=53, velocity=25, time=4),\n",
      "    Message('note_on', channel=0, note=72, velocity=37, time=0),\n",
      "    Message('note_on', channel=0, note=80, velocity=72, time=139),\n",
      "    Message('note_on', channel=0, note=60, velocity=0, time=3),\n",
      "    Message('note_on', channel=0, note=60, velocity=35, time=6),\n",
      "    Message('note_on', channel=0, note=72, velocity=0, time=9),\n",
      "    Message('note_on', channel=0, note=68, velocity=0, time=8),\n",
      "    Message('note_on', channel=0, note=72, velocity=39, time=1),\n",
      "    Message('note_on', channel=0, note=68, velocity=39, time=6),\n",
      "    Message('note_on', channel=0, note=53, velocity=0, time=16),\n",
      "    Message('note_on', channel=0, note=53, velocity=21, time=4),\n",
      "    Message('note_on', channel=0, note=56, velocity=0, time=4),\n",
      "    Message('note_on', channel=0, note=56, velocity=16, time=5),\n",
      "    Message('note_on', channel=0, note=63, velocity=0, time=102),\n",
      "    Message('note_on', channel=0, note=56, velocity=0, time=8),\n",
      "    Message('note_on', channel=0, note=68, velocity=0, time=0),\n",
      "    Message('note_on', channel=0, note=63, velocity=39, time=3),\n",
      "    Message('note_on', channel=0, note=56, velocity=34, time=1),\n",
      "    Message('note_on', channel=0, note=72, velocity=0, time=3),\n",
      "    Message('note_on', channel=0, note=68, velocity=45, time=1),\n",
      "    Message('note_on', channel=0, note=72, velocity=42, time=5),\n",
      "    Message('note_on', channel=0, note=53, velocity=0, time=125),\n",
      "    Message('note_on', channel=0, note=53, velocity=26, time=7),\n",
      "    Message('note_on', channel=0, note=65, velocity=25, time=8),\n",
      "    Message('note_on', channel=0, note=68, velocity=0, time=8),\n",
      "    Message('note_on', channel=0, note=72, velocity=0, time=8),\n",
      "    Message('note_on', channel=0, note=75, velocity=0, time=0),\n",
      "    Message('note_on', channel=0, note=68, velocity=42, time=3),\n",
      "    Message('note_on', channel=0, note=72, velocity=39, time=1),\n",
      "    Message('note_on', channel=0, note=75, velocity=49, time=1),\n",
      "    Message('note_on', channel=0, note=80, velocity=0, time=175),\n",
      "    Message('note_on', channel=0, note=56, velocity=0, time=0),\n",
      "    Message('note_on', channel=0, note=63, velocity=0, time=0),\n",
      "    Message('note_on', channel=0, note=72, velocity=0, time=0),\n",
      "    Message('note_on', channel=0, note=75, velocity=0, time=0),\n",
      "    Message('control_change', channel=0, control=64, value=0, time=1),\n",
      "    Message('note_on', channel=0, note=41, velocity=0, time=3),\n",
      "    Message('note_on', channel=0, note=65, velocity=0, time=0),\n",
      "    Message('note_on', channel=0, note=53, velocity=0, time=8),\n",
      "    Message('note_on', channel=0, note=60, velocity=0, time=0),\n",
      "    Message('note_on', channel=0, note=68, velocity=0, time=0),\n",
      "    Message('note_on', channel=0, note=74, velocity=44, time=17),\n",
      "    Message('note_on', channel=0, note=47, velocity=33, time=9),\n",
      "    Message('note_on', channel=0, note=35, velocity=38, time=0),\n",
      "    Message('note_on', channel=0, note=67, velocity=28, time=5),\n",
      "    Message('note_on', channel=0, note=65, velocity=19, time=3),\n",
      "    Message('note_on', channel=0, note=35, velocity=0, time=22),\n",
      "    Message('control_change', channel=0, control=64, value=127, time=21),\n",
      "    Message('note_on', channel=0, note=47, velocity=0, time=145),\n",
      "    Message('note_on', channel=0, note=67, velocity=0, time=0),\n",
      "    Message('note_on', channel=0, note=74, velocity=0, time=0),\n",
      "    Message('note_on', channel=0, note=55, velocity=41, time=4),\n",
      "    Message('note_on', channel=0, note=65, velocity=0, time=4),\n",
      "    Message('note_on', channel=0, note=74, velocity=49, time=2),\n",
      "    Message('note_on', channel=0, note=47, velocity=39, time=1),\n",
      "    Message('note_on', channel=0, note=67, velocity=37, time=1),\n",
      "    Message('note_on', channel=0, note=65, velocity=25, time=2),\n",
      "    Message('note_on', channel=0, note=79, velocity=70, time=201),\n",
      "    Message('note_on', channel=0, note=55, velocity=0, time=24),\n",
      "    Message('note_on', channel=0, note=67, velocity=0, time=0),\n",
      "    Message('note_on', channel=0, note=62, velocity=36, time=4),\n",
      "    Message('note_on', channel=0, note=74, velocity=0, time=3),\n",
      "    Message('note_on', channel=0, note=67, velocity=33, time=4),\n",
      "    Message('note_on', channel=0, note=55, velocity=36, time=0),\n",
      "    Message('note_on', channel=0, note=74, velocity=29, time=0),\n",
      "    Message('note_on', channel=0, note=65, velocity=0, time=4),\n",
      "    Message('note_on', channel=0, note=65, velocity=31, time=9),\n",
      "    Message('note_on', channel=0, note=65, velocity=0, time=152),\n",
      "    Message('note_on', channel=0, note=65, velocity=37, time=9),\n",
      "    Message('note_on', channel=0, note=77, velocity=45, time=5),\n",
      "    Message('note_on', channel=0, note=55, velocity=0, time=2),\n",
      "    Message('note_on', channel=0, note=67, velocity=0, time=0),\n",
      "    Message('note_on', channel=0, note=74, velocity=0, time=0),\n",
      "    Message('note_on', channel=0, note=67, velocity=36, time=4),\n",
      "    Message('note_on', channel=0, note=74, velocity=41, time=1),\n",
      "    Message('note_on', channel=0, note=47, velocity=0, time=2),\n",
      "    Message('note_on', channel=0, note=77, velocity=0, time=0),\n",
      "    Message('note_on', channel=0, note=55, velocity=37, time=3),\n",
      "    Message('note_on', channel=0, note=47, velocity=31, time=7),\n",
      "    Message('note_on', channel=0, note=59, velocity=32, time=1),\n",
      "    Message('note_on', channel=0, note=67, velocity=0, time=158),\n",
      "    Message('note_on', channel=0, note=74, velocity=0, time=0),\n",
      "    Message('note_on', channel=0, note=67, velocity=47, time=4),\n",
      "    Message('note_on', channel=0, note=62, velocity=0, time=4),\n",
      "    Message('note_on', channel=0, note=65, velocity=0, time=0),\n",
      "    Message('note_on', channel=0, note=74, velocity=43, time=3),\n",
      "    Message('note_on', channel=0, note=65, velocity=34, time=4),\n",
      "    Message('note_on', channel=0, note=55, velocity=0, time=1),\n",
      "    Message('note_on', channel=0, note=62, velocity=37, time=2),\n",
      "    Message('note_on', channel=0, note=55, velocity=31, time=6),\n",
      "    Message('note_on', channel=0, note=74, velocity=0, time=161),\n",
      "    Message('note_on', channel=0, note=55, velocity=0, time=7),\n",
      "    Message('note_on', channel=0, note=74, velocity=69, time=3),\n",
      "    Message('note_on', channel=0, note=55, velocity=39, time=8),\n",
      "    Message('note_on', channel=0, note=47, velocity=0, time=5),\n",
      "    Message('note_on', channel=0, note=65, velocity=0, time=0),\n",
      "    Message('note_on', channel=0, note=47, velocity=38, time=4),\n",
      "    Message('note_on', channel=0, note=65, velocity=36, time=0),\n",
      "    Message('note_on', channel=0, note=67, velocity=0, time=3),\n",
      "    Message('note_on', channel=0, note=67, velocity=42, time=10),\n",
      "    Message('note_on', channel=0, note=79, velocity=0, time=210),\n",
      "    Message('note_on', channel=0, note=65, velocity=0, time=0),\n",
      "    Message('note_on', channel=0, note=62, velocity=0, time=1),\n",
      "    Message('note_on', channel=0, note=74, velocity=0, time=0),\n",
      "    Message('note_on', channel=0, note=59, velocity=0, time=0),\n",
      "    Message('control_change', channel=0, control=64, value=0, time=3),\n",
      "    Message('note_on', channel=0, note=47, velocity=0, time=14),\n",
      "    Message('note_on', channel=0, note=55, velocity=0, time=0),\n",
      "    Message('note_on', channel=0, note=63, velocity=38, time=21),\n",
      "    Message('note_on', channel=0, note=67, velocity=0, time=2),\n",
      "    Message('note_on', channel=0, note=67, velocity=37, time=9),\n",
      "    Message('note_on', channel=0, note=36, velocity=39, time=3),\n",
      "    Message('note_on', channel=0, note=48, velocity=40, time=1),\n",
      "    Message('note_on', channel=0, note=60, velocity=30, time=1),\n",
      "    Message('control_change', channel=0, control=64, value=127, time=32),\n",
      "    Message('note_on', channel=0, note=75, velocity=66, time=189),\n",
      "    Message('note_on', channel=0, note=67, velocity=0, time=11),\n",
      "    Message('note_on', channel=0, note=60, velocity=0, time=8),\n",
      "    Message('note_on', channel=0, note=67, velocity=42, time=2),\n",
      "    Message('note_on', channel=0, note=72, velocity=48, time=2),\n",
      "    Message('note_on', channel=0, note=60, velocity=31, time=7),\n",
      "    Message('note_on', channel=0, note=48, velocity=0, time=4),\n",
      "    Message('note_on', channel=0, note=48, velocity=28, time=5),\n",
      "    Message('note_on', channel=0, note=55, velocity=41, time=6),\n",
      "    Message('note_on', channel=0, note=77, velocity=63, time=115),\n",
      "    Message('note_on', channel=0, note=67, velocity=0, time=12),\n",
      "    Message('note_on', channel=0, note=72, velocity=0, time=0),\n",
      "    Message('note_on', channel=0, note=72, velocity=39, time=6),\n",
      "    Message('note_on', channel=0, note=67, velocity=37, time=4),\n",
      "    Message('note_on', channel=0, note=55, velocity=0, time=44),\n",
      "    Message('note_on', channel=0, note=63, velocity=0, time=0),\n",
      "    Message('note_on', channel=0, note=63, velocity=40, time=10),\n",
      "    Message('note_on', channel=0, note=55, velocity=25, time=1),\n",
      "    Message('note_on', channel=0, note=67, velocity=0, time=51),\n",
      "    Message('note_on', channel=0, note=72, velocity=0, time=0),\n",
      "    Message('note_on', channel=0, note=75, velocity=0, time=0),\n",
      "    Message('note_on', channel=0, note=75, velocity=65, time=9),\n",
      "    Message('note_on', channel=0, note=72, velocity=60, time=1),\n",
      "    Message('note_on', channel=0, note=67, velocity=50, time=0),\n",
      "    Message('note_on', channel=0, note=55, velocity=0, time=120),\n",
      "    Message('note_on', channel=0, note=74, velocity=66, time=10),\n",
      "    Message('note_on', channel=0, note=55, velocity=43, time=1),\n",
      "    Message('note_on', channel=0, note=67, velocity=0, time=5),\n",
      "    Message('note_on', channel=0, note=67, velocity=52, time=11),\n",
      "    Message('note_on', channel=0, note=75, velocity=0, time=111),\n",
      "    Message('note_on', channel=0, note=67, velocity=0, time=8),\n",
      "    Message('note_on', channel=0, note=75, velocity=72, time=3),\n",
      "    Message('note_on', channel=0, note=72, velocity=0, time=5),\n",
      "    Message('note_on', channel=0, note=67, velocity=57, time=3),\n",
      "    Message('note_on', channel=0, note=72, velocity=58, time=2),\n",
      "    Message('note_on', channel=0, note=48, velocity=0, time=10),\n",
      "    Message('note_on', channel=0, note=55, velocity=0, time=0),\n",
      "    Message('note_on', channel=0, note=63, velocity=0, time=0),\n",
      "    Message('note_on', channel=0, note=63, velocity=40, time=4),\n",
      "    Message('note_on', channel=0, note=48, velocity=33, time=0),\n",
      "    Message('note_on', channel=0, note=55, velocity=38, time=1),\n",
      "    Message('note_on', channel=0, note=77, velocity=0, time=103),\n",
      "    Message('note_on', channel=0, note=72, velocity=0, time=7),\n",
      "    Message('note_on', channel=0, note=77, velocity=68, time=1),\n",
      "    Message('note_on', channel=0, note=67, velocity=0, time=7),\n",
      "    Message('note_on', channel=0, note=72, velocity=61, time=3),\n",
      "    Message('note_on', channel=0, note=67, velocity=52, time=8),\n",
      "    Message('note_on', channel=0, note=48, velocity=0, time=12),\n",
      "    Message('note_on', channel=0, note=55, velocity=0, time=0),\n",
      "    Message('note_on', channel=0, note=55, velocity=38, time=8),\n",
      "    Message('note_on', channel=0, note=48, velocity=38, time=3),\n",
      "    Message('note_on', channel=0, note=72, velocity=0, time=112),\n",
      "    Message('note_on', channel=0, note=79, velocity=64, time=2),\n",
      "    Message('note_on', channel=0, note=67, velocity=0, time=6),\n",
      "    Message('note_on', channel=0, note=72, velocity=59, time=3),\n",
      "    Message('note_on', channel=0, note=67, velocity=43, time=1),\n",
      "    Message('note_on', channel=0, note=36, velocity=0, time=134),\n",
      "    Message('note_on', channel=0, note=72, velocity=0, time=8),\n",
      "    Message('control_change', channel=0, control=64, value=0, time=7),\n",
      "    Message('note_on', channel=0, note=74, velocity=0, time=2),\n",
      "    Message('note_on', channel=0, note=67, velocity=0, time=0),\n",
      "    Message('note_on', channel=0, note=75, velocity=0, time=1),\n",
      "    Message('note_on', channel=0, note=72, velocity=63, time=0),\n",
      "    Message('note_on', channel=0, note=79, velocity=0, time=1),\n",
      "    Message('note_on', channel=0, note=48, velocity=0, time=12),\n",
      "    Message('note_on', channel=0, note=55, velocity=0, time=0),\n",
      "    Message('note_on', channel=0, note=68, velocity=46, time=0),\n",
      "    Message('note_on', channel=0, note=63, velocity=0, time=7),\n",
      "    Message('note_on', channel=0, note=77, velocity=0, time=0),\n",
      "    Message('note_on', channel=0, note=63, velocity=29, time=11),\n",
      "    Message('note_on', channel=0, note=44, velocity=43, time=2),\n",
      "    Message('note_on', channel=0, note=51, velocity=32, time=4),\n",
      "    Message('control_change', channel=0, control=64, value=127, time=45),\n",
      "    Message('note_on', channel=0, note=44, velocity=0, time=23),\n",
      "    Message('note_on', channel=0, note=63, velocity=0, time=107),\n",
      "    Message('note_on', channel=0, note=68, velocity=0, time=8),\n",
      "    Message('note_on', channel=0, note=63, velocity=37, time=3),\n",
      "    Message('note_on', channel=0, note=56, velocity=48, time=2),\n",
      "    Message('note_on', channel=0, note=68, velocity=44, time=4),\n",
      "    Message('note_on', channel=0, note=48, velocity=33, time=2),\n",
      "    Message('note_on', channel=0, note=44, velocity=37, time=1),\n",
      "    Message('note_on', channel=0, note=60, velocity=0, time=118),\n",
      "    Message('note_on', channel=0, note=63, velocity=0, time=0),\n",
      "    Message('note_on', channel=0, note=68, velocity=0, time=0),\n",
      "    Message('note_on', channel=0, note=68, velocity=47, time=8),\n",
      "    Message('note_on', channel=0, note=44, velocity=0, time=0),\n",
      "    Message('note_on', channel=0, note=48, velocity=0, time=0),\n",
      "    Message('note_on', channel=0, note=56, velocity=0, time=0),\n",
      "    Message('note_on', channel=0, note=63, velocity=40, time=1),\n",
      "    Message('note_on', channel=0, note=60, velocity=40, time=1),\n",
      "    Message('note_on', channel=0, note=56, velocity=40, time=3),\n",
      "    Message('note_on', channel=0, note=48, velocity=35, time=0),\n",
      "    Message('note_on', channel=0, note=44, velocity=38, time=1),\n",
      "    Message('note_on', channel=0, note=72, velocity=0, time=155),\n",
      "    Message('note_on', channel=0, note=72, velocity=58, time=7),\n",
      "    Message('note_on', channel=0, note=48, velocity=0, time=16),\n",
      "    Message('note_on', channel=0, note=68, velocity=0, time=0),\n",
      "    Message('note_on', channel=0, note=68, velocity=40, time=6),\n",
      "    Message('note_on', channel=0, note=56, velocity=0, time=2),\n",
      "    Message('note_on', channel=0, note=63, velocity=0, time=0),\n",
      "    Message('note_on', channel=0, note=48, velocity=37, time=4),\n",
      "    Message('note_on', channel=0, note=63, velocity=37, time=2),\n",
      "    Message('note_on', channel=0, note=56, velocity=39, time=3),\n",
      "    Message('note_on', channel=0, note=60, velocity=0, time=175),\n",
      "    Message('note_on', channel=0, note=63, velocity=0, time=0),\n",
      "    Message('note_on', channel=0, note=60, velocity=43, time=6),\n",
      "    Message('note_on', channel=0, note=56, velocity=0, time=2),\n",
      "    Message('note_on', channel=0, note=63, velocity=35, time=2),\n",
      "    Message('note_on', channel=0, note=48, velocity=0, time=6),\n",
      "    Message('note_on', channel=0, note=56, velocity=35, time=3),\n",
      "    Message('note_on', channel=0, note=48, velocity=27, time=2),\n",
      "    Message('note_on', channel=0, note=63, velocity=0, time=164),\n",
      "    Message('note_on', channel=0, note=68, velocity=0, time=0),\n",
      "    Message('note_on', channel=0, note=68, velocity=43, time=6),\n",
      "    Message('note_on', channel=0, note=63, velocity=36, time=1),\n",
      "    Message('note_on', channel=0, note=56, velocity=0, time=0),\n",
      "    Message('note_on', channel=0, note=56, velocity=38, time=7),\n",
      "    Message('note_on', channel=0, note=48, velocity=0, time=9),\n",
      "    Message('note_on', channel=0, note=48, velocity=31, time=4),\n",
      "    Message('note_on', channel=0, note=72, velocity=0, time=119),\n",
      "    Message('note_on', channel=0, note=72, velocity=54, time=11),\n",
      "    Message('note_on', channel=0, note=44, velocity=0, time=138),\n",
      "    Message('control_change', channel=0, control=64, value=0, time=0),\n",
      "    Message('note_on', channel=0, note=68, velocity=0, time=1),\n",
      "    Message('note_on', channel=0, note=60, velocity=0, time=0),\n",
      "    Message('note_on', channel=0, note=48, velocity=0, time=0),\n",
      "    Message('note_on', channel=0, note=63, velocity=0, time=0),\n",
      "    Message('note_on', channel=0, note=56, velocity=0, time=0),\n",
      "    Message('note_on', channel=0, note=72, velocity=0, time=2),\n",
      "    Message('note_on', channel=0, note=51, velocity=0, time=9),\n",
      "    Message('note_on', channel=0, note=74, velocity=57, time=18),\n",
      "    Message('note_on', channel=0, note=29, velocity=40, time=8),\n",
      "    Message('note_on', channel=0, note=41, velocity=33, time=1),\n",
      "    Message('note_on', channel=0, note=62, velocity=40, time=7),\n",
      "    Message('note_on', channel=0, note=68, velocity=40, time=0),\n",
      "    Message('control_change', channel=0, control=64, value=127, time=43),\n",
      "    Message('note_on', channel=0, note=29, velocity=0, time=7),\n",
      "    Message('note_on', channel=0, note=62, velocity=0, time=208),\n",
      "    Message('note_on', channel=0, note=62, velocity=42, time=11),\n",
      "    Message('note_on', channel=0, note=68, velocity=0, time=4),\n",
      "    Message('note_on', channel=0, note=56, velocity=44, time=5),\n",
      "    Message('note_on', channel=0, note=68, velocity=40, time=4),\n",
      "    Message('note_on', channel=0, note=50, velocity=31, time=11),\n",
      "    Message('note_on', channel=0, note=68, velocity=0, time=141),\n",
      "    Message('note_on', channel=0, note=68, velocity=41, time=10),\n",
      "    Message('note_on', channel=0, note=60, velocity=35, time=2),\n",
      "    Message('note_on', channel=0, note=62, velocity=0, time=12),\n",
      "    Message('note_on', channel=0, note=62, velocity=40, time=5),\n",
      "    Message('note_on', channel=0, note=56, velocity=0, time=2),\n",
      "    Message('note_on', channel=0, note=53, velocity=20, time=8),\n",
      "    Message('note_on', channel=0, note=56, velocity=25, time=1),\n",
      "    Message('note_on', channel=0, note=72, velocity=59, time=116),\n",
      "    Message('note_on', channel=0, note=60, velocity=0, time=21),\n",
      "    Message('note_on', channel=0, note=62, velocity=0, time=0),\n",
      "    Message('note_on', channel=0, note=62, velocity=34, time=4),\n",
      "    Message('note_on', channel=0, note=53, velocity=0, time=4),\n",
      "    Message('note_on', channel=0, note=56, velocity=0, time=0),\n",
      "    Message('note_on', channel=0, note=68, velocity=0, time=0),\n",
      "    Message('note_on', channel=0, note=60, velocity=21, time=0),\n",
      "    Message('note_on', channel=0, note=53, velocity=19, time=4),\n",
      "    Message('note_on', channel=0, note=68, velocity=33, time=4),\n",
      "    Message('note_on', channel=0, note=56, velocity=35, time=2),\n",
      "    Message('note_on', channel=0, note=53, velocity=0, time=174),\n",
      "    Message('note_on', channel=0, note=56, velocity=0, time=0),\n",
      "    Message('note_on', channel=0, note=60, velocity=0, time=0),\n",
      "    Message('note_on', channel=0, note=62, velocity=0, time=0),\n",
      "    Message('note_on', channel=0, note=60, velocity=38, time=4),\n",
      "    Message('note_on', channel=0, note=56, velocity=28, time=5),\n",
      "    Message('note_on', channel=0, note=62, velocity=40, time=2),\n",
      "    Message('note_on', channel=0, note=53, velocity=31, time=0),\n",
      "    Message('note_on', channel=0, note=62, velocity=0, time=173),\n",
      "    Message('note_on', channel=0, note=62, velocity=41, time=11),\n",
      "    Message('note_on', channel=0, note=50, velocity=0, time=5),\n",
      "    Message('note_on', channel=0, note=60, velocity=0, time=0),\n",
      "    Message('note_on', channel=0, note=60, velocity=25, time=4),\n",
      "    Message('note_on', channel=0, note=56, velocity=0, time=3),\n",
      "    Message('note_on', channel=0, note=50, velocity=34, time=4),\n",
      "    Message('note_on', channel=0, note=56, velocity=33, time=4),\n",
      "    Message('note_on', channel=0, note=68, velocity=0, time=123),\n",
      "    Message('note_on', channel=0, note=68, velocity=63, time=5),\n",
      "    Message('note_on', channel=0, note=67, velocity=59, time=208),\n",
      "    Message('note_on', channel=0, note=60, velocity=0, time=10),\n",
      "    Message('note_on', channel=0, note=60, velocity=34, time=11),\n",
      "    Message('note_on', channel=0, note=43, velocity=26, time=0),\n",
      "    Message('note_on', channel=0, note=31, velocity=29, time=0),\n",
      "    Message('note_on', channel=0, note=41, velocity=0, time=1),\n",
      "    Message('note_on', channel=0, note=56, velocity=0, time=1),\n",
      "    Message('control_change', channel=0, control=64, value=0, time=0),\n",
      "    Message('note_on', channel=0, note=68, velocity=0, time=0),\n",
      "    Message('note_on', channel=0, note=72, velocity=0, time=0),\n",
      "    Message('note_on', channel=0, note=74, velocity=0, time=1),\n",
      "    Message('note_on', channel=0, note=65, velocity=31, time=1),\n",
      "    Message('note_on', channel=0, note=50, velocity=0, time=8),\n",
      "    Message('note_on', channel=0, note=53, velocity=0, time=7),\n",
      "    Message('note_on', channel=0, note=62, velocity=0, time=0),\n",
      "    Message('note_on', channel=0, note=31, velocity=0, time=76),\n",
      "    Message('control_change', channel=0, control=64, value=127, time=24),\n",
      "    Message('note_on', channel=0, note=43, velocity=0, time=39),\n",
      "    Message('note_on', channel=0, note=60, velocity=0, time=115),\n",
      "    Message('note_on', channel=0, note=65, velocity=0, time=0),\n",
      "    Message('note_on', channel=0, note=67, velocity=0, time=8),\n",
      "    Message('note_on', channel=0, note=60, velocity=26, time=1),\n",
      "    Message('note_on', channel=0, note=65, velocity=30, time=1),\n",
      "    Message('note_on', channel=0, note=50, velocity=36, time=2),\n",
      "    Message('note_on', channel=0, note=67, velocity=37, time=0),\n",
      "    Message('note_on', channel=0, note=43, velocity=27, time=4),\n",
      "    Message('note_on', channel=0, note=55, velocity=27, time=2),\n",
      "    Message('note_on', channel=0, note=65, velocity=0, time=174),\n",
      "    Message('note_on', channel=0, note=55, velocity=0, time=8),\n",
      "    Message('note_on', channel=0, note=60, velocity=0, time=0),\n",
      "    Message('note_on', channel=0, note=67, velocity=0, time=0),\n",
      "    Message('note_on', channel=0, note=65, velocity=31, time=2),\n",
      "    Message('note_on', channel=0, note=60, velocity=32, time=3),\n",
      "    Message('note_on', channel=0, note=67, velocity=33, time=1),\n",
      "    Message('note_on', channel=0, note=55, velocity=30, time=1),\n",
      "    Message('note_on', channel=0, note=43, velocity=0, time=0),\n",
      "    Message('note_on', channel=0, note=50, velocity=0, time=0),\n",
      "    Message('note_on', channel=0, note=50, velocity=25, time=4),\n",
      "    Message('note_on', channel=0, note=43, velocity=27, time=2),\n",
      "    Message('note_on', channel=0, note=62, velocity=41, time=174),\n",
      "    Message('note_on', channel=0, note=59, velocity=41, time=23),\n",
      "    Message('note_on', channel=0, note=43, velocity=0, time=5),\n",
      "    Message('note_on', channel=0, note=50, velocity=0, time=0),\n",
      "    Message('note_on', channel=0, note=50, velocity=26, time=4),\n",
      "    Message('note_on', channel=0, note=43, velocity=31, time=0),\n",
      "    Message('control_change', channel=0, control=64, value=0, time=10),\n",
      "    Message('note_on', channel=0, note=60, velocity=0, time=3),\n",
      "    Message('note_on', channel=0, note=67, velocity=0, time=1),\n",
      "    Message('control_change', channel=0, control=64, value=127, time=112),\n",
      "    Message('note_on', channel=0, note=70, velocity=52, time=144),\n",
      "    Message('note_on', channel=0, note=59, velocity=0, time=41),\n",
      "    Message('note_on', channel=0, note=68, velocity=53, time=7),\n",
      "    Message('note_on', channel=0, note=59, velocity=38, time=3),\n",
      "    Message('note_on', channel=0, note=55, velocity=0, time=28),\n",
      "    Message('note_on', channel=0, note=55, velocity=14, time=11),\n",
      "    Message('note_on', channel=0, note=67, velocity=53, time=176),\n",
      "    Message('note_on', channel=0, note=50, velocity=0, time=20),\n",
      "    Message('note_on', channel=0, note=59, velocity=0, time=0),\n",
      "    Message('note_on', channel=0, note=50, velocity=26, time=4),\n",
      "    Message('note_on', channel=0, note=65, velocity=0, time=4),\n",
      "    Message('note_on', channel=0, note=59, velocity=32, time=4),\n",
      "    Message('note_on', channel=0, note=65, velocity=40, time=4),\n",
      "    Message('note_on', channel=0, note=43, velocity=0, time=115),\n",
      "    Message('note_on', channel=0, note=43, velocity=34, time=4),\n",
      "    Message('note_on', channel=0, note=62, velocity=0, time=57),\n",
      "    Message('note_on', channel=0, note=62, velocity=64, time=9),\n",
      "    Message('note_on', channel=0, note=59, velocity=0, time=7),\n",
      "    Message('note_on', channel=0, note=59, velocity=52, time=5),\n",
      "    Message('note_on', channel=0, note=53, velocity=31, time=6),\n",
      "    Message('note_on', channel=0, note=68, velocity=0, time=203),\n",
      "    Message('note_on', channel=0, note=53, velocity=0, time=0),\n",
      "    Message('note_on', channel=0, note=70, velocity=0, time=0),\n",
      "    Message('note_on', channel=0, note=50, velocity=0, time=1),\n",
      "    Message('control_change', channel=0, control=64, value=0, time=0),\n",
      "    Message('note_on', channel=0, note=65, velocity=0, time=0),\n",
      "    Message('note_on', channel=0, note=67, velocity=0, time=0),\n",
      "    Message('note_on', channel=0, note=55, velocity=0, time=0),\n",
      "    Message('note_on', channel=0, note=59, velocity=0, time=0),\n",
      "    Message('note_on', channel=0, note=62, velocity=0, time=0),\n",
      "    Message('note_on', channel=0, note=63, velocity=50, time=11),\n",
      "    Message('note_on', channel=0, note=43, velocity=0, time=4),\n",
      "    Message('note_on', channel=0, note=60, velocity=34, time=4),\n",
      "    Message('note_on', channel=0, note=43, velocity=31, time=7),\n",
      "    Message('note_on', channel=0, note=48, velocity=28, time=0),\n",
      "    Message('note_on', channel=0, note=36, velocity=28, time=1),\n",
      "    Message('control_change', channel=0, control=64, value=127, time=142),\n",
      "    Message('note_on', channel=0, note=60, velocity=0, time=153),\n",
      "    Message('note_on', channel=0, note=60, velocity=51, time=7),\n",
      "    Message('note_on', channel=0, note=43, velocity=0, time=1),\n",
      "    Message('note_on', channel=0, note=48, velocity=0, time=8),\n",
      "    Message('note_on', channel=0, note=43, velocity=31, time=2),\n",
      "    Message('note_on', channel=0, note=51, velocity=24, time=2),\n",
      "    Message('note_on', channel=0, note=55, velocity=29, time=3),\n",
      "    Message('note_on', channel=0, note=48, velocity=30, time=3),\n",
      "    Message('note_on', channel=0, note=55, velocity=0, time=189),\n",
      "    Message('note_on', channel=0, note=55, velocity=40, time=5),\n",
      "    Message('note_on', channel=0, note=43, velocity=0, time=18),\n",
      "    Message('note_on', channel=0, note=48, velocity=0, time=0),\n",
      "    Message('note_on', channel=0, note=51, velocity=0, time=0),\n",
      "    Message('note_on', channel=0, note=51, velocity=25, time=4),\n",
      "    Message('note_on', channel=0, note=43, velocity=25, time=2),\n",
      "    Message('note_on', channel=0, note=48, velocity=33, time=1),\n",
      "    Message('note_on', channel=0, note=48, velocity=0, time=162),\n",
      "    Message('note_on', channel=0, note=48, velocity=37, time=8),\n",
      "    Message('note_on', channel=0, note=43, velocity=0, time=8),\n",
      "    Message('note_on', channel=0, note=51, velocity=0, time=0),\n",
      "    Message('note_on', channel=0, note=55, velocity=0, time=7),\n",
      "    Message('note_on', channel=0, note=51, velocity=34, time=3),\n",
      "    Message('note_on', channel=0, note=43, velocity=27, time=1),\n",
      "    Message('note_on', channel=0, note=55, velocity=33, time=1),\n",
      "    Message('note_on', channel=0, note=55, velocity=0, time=164),\n",
      "    Message('note_on', channel=0, note=55, velocity=38, time=5),\n",
      "    Message('note_on', channel=0, note=48, velocity=0, time=3),\n",
      "    Message('note_on', channel=0, note=48, velocity=32, time=6),\n",
      "    Message('note_on', channel=0, note=51, velocity=0, time=2),\n",
      "    Message('note_on', channel=0, note=51, velocity=28, time=4),\n",
      "    Message('note_on', channel=0, note=60, velocity=0, time=1),\n",
      "    Message('control_change', channel=0, control=64, value=0, time=7),\n",
      "    Message('control_change', channel=0, control=64, value=127, time=18),\n",
      "    Message('note_on', channel=0, note=48, velocity=0, time=200),\n",
      "    Message('note_on', channel=0, note=48, velocity=30, time=5),\n",
      "    Message('note_on', channel=0, note=43, velocity=0, time=3),\n",
      "    Message('note_on', channel=0, note=51, velocity=0, time=0),\n",
      "    Message('note_on', channel=0, note=55, velocity=0, time=0),\n",
      "    Message('note_on', channel=0, note=51, velocity=33, time=4),\n",
      "    Message('note_on', channel=0, note=43, velocity=31, time=0),\n",
      "    Message('note_on', channel=0, note=55, velocity=34, time=0),\n",
      "    Message('note_on', channel=0, note=36, velocity=0, time=272),\n",
      "    Message('note_on', channel=0, note=51, velocity=0, time=0),\n",
      "    Message('note_on', channel=0, note=63, velocity=0, time=1),\n",
      "    Message('note_on', channel=0, note=48, velocity=0, time=1),\n",
      "    Message('note_on', channel=0, note=43, velocity=0, time=0),\n",
      "    Message('note_on', channel=0, note=55, velocity=0, time=1),\n",
      "    Message('control_change', channel=0, control=64, value=0, time=1),\n",
      "    Message('note_on', channel=0, note=58, velocity=45, time=38),\n",
      "    Message('note_on', channel=0, note=55, velocity=32, time=6),\n",
      "    Message('note_on', channel=0, note=51, velocity=30, time=8),\n",
      "    Message('note_on', channel=0, note=39, velocity=34, time=1),\n",
      "    Message('note_on', channel=0, note=27, velocity=42, time=1),\n",
      "    Message('control_change', channel=0, control=64, value=127, time=50),\n",
      "    Message('note_on', channel=0, note=27, velocity=0, time=23),\n",
      "    Message('note_on', channel=0, note=51, velocity=0, time=292),\n",
      "    Message('note_on', channel=0, note=51, velocity=35, time=5),\n",
      "    Message('note_on', channel=0, note=58, velocity=0, time=2),\n",
      "    Message('note_on', channel=0, note=58, velocity=33, time=4),\n",
      "    Message('note_on', channel=0, note=55, velocity=0, time=12),\n",
      "    Message('note_on', channel=0, note=70, velocity=29, time=2),\n",
      "    Message('note_on', channel=0, note=55, velocity=23, time=2),\n",
      "    Message('note_on', channel=0, note=75, velocity=29, time=1),\n",
      "    Message('note_on', channel=0, note=67, velocity=23, time=6),\n",
      "    Message('note_on', channel=0, note=75, velocity=0, time=150),\n",
      "    Message('note_on', channel=0, note=58, velocity=0, time=8),\n",
      "    Message('note_on', channel=0, note=67, velocity=0, time=0),\n",
      "    Message('note_on', channel=0, note=70, velocity=0, time=0),\n",
      "    Message('note_on', channel=0, note=75, velocity=51, time=3),\n",
      "    Message('note_on', channel=0, note=67, velocity=44, time=1),\n",
      "    Message('note_on', channel=0, note=55, velocity=0, time=3),\n",
      "    Message('note_on', channel=0, note=58, velocity=35, time=0),\n",
      "    Message('note_on', channel=0, note=70, velocity=35, time=2),\n",
      "    Message('note_on', channel=0, note=63, velocity=36, time=6),\n",
      "    Message('note_on', channel=0, note=55, velocity=29, time=0),\n",
      "    Message('note_on', channel=0, note=79, velocity=70, time=147),\n",
      "    Message('note_on', channel=0, note=58, velocity=0, time=14),\n",
      "    Message('note_on', channel=0, note=67, velocity=0, time=0),\n",
      "    Message('note_on', channel=0, note=70, velocity=0, time=0),\n",
      "    Message('note_on', channel=0, note=58, velocity=40, time=7),\n",
      "    Message('note_on', channel=0, note=55, velocity=0, time=1),\n",
      "    Message('note_on', channel=0, note=70, velocity=50, time=3),\n",
      "    Message('note_on', channel=0, note=67, velocity=45, time=0),\n",
      "    Message('note_on', channel=0, note=55, velocity=31, time=4),\n",
      "    Message('note_on', channel=0, note=51, velocity=0, time=1),\n",
      "    Message('note_on', channel=0, note=63, velocity=0, time=0),\n",
      "    Message('note_on', channel=0, note=75, velocity=0, time=0),\n",
      "    Message('note_on', channel=0, note=63, velocity=30, time=5),\n",
      "    Message('note_on', channel=0, note=75, velocity=33, time=4),\n",
      "    Message('note_on', channel=0, note=51, velocity=33, time=0),\n",
      "    Message('note_on', channel=0, note=67, velocity=0, time=144),\n",
      "    Message('note_on', channel=0, note=75, velocity=0, time=0),\n",
      "    Message('note_on', channel=0, note=67, velocity=38, time=7),\n",
      "    Message('note_on', channel=0, note=75, velocity=48, time=0),\n",
      "    Message('note_on', channel=0, note=63, velocity=0, time=1),\n",
      "    Message('note_on', channel=0, note=63, velocity=40, time=5),\n",
      "    Message('note_on', channel=0, note=70, velocity=0, time=3),\n",
      "    Message('note_on', channel=0, note=70, velocity=39, time=4),\n",
      "    Message('note_on', channel=0, note=58, velocity=0, time=3),\n",
      "    Message('note_on', channel=0, note=58, velocity=32, time=5),\n",
      "    Message('note_on', channel=0, note=55, velocity=0, time=3),\n",
      "    Message('note_on', channel=0, note=55, velocity=17, time=5),\n",
      "    Message('note_on', channel=0, note=51, velocity=0, time=125),\n",
      "    Message('note_on', channel=0, note=58, velocity=0, time=0),\n",
      "    Message('note_on', channel=0, note=55, velocity=0, time=8),\n",
      "    Message('note_on', channel=0, note=58, velocity=41, time=4),\n",
      "    Message('note_on', channel=0, note=51, velocity=47, time=0),\n",
      "    Message('note_on', channel=0, note=55, velocity=29, time=3),\n",
      "    Message('note_on', channel=0, note=55, velocity=0, time=196),\n",
      "    Message('note_on', channel=0, note=70, velocity=0, time=0),\n",
      "    Message('note_on', channel=0, note=67, velocity=0, time=0),\n",
      "    Message('note_on', channel=0, note=51, velocity=0, time=0),\n",
      "    Message('note_on', channel=0, note=58, velocity=0, time=0),\n",
      "    Message('note_on', channel=0, note=39, velocity=0, time=0),\n",
      "    Message('note_on', channel=0, note=79, velocity=0, time=1),\n",
      "    Message('control_change', channel=0, control=64, value=0, time=1),\n",
      "    Message('note_on', channel=0, note=63, velocity=0, time=10),\n",
      "    Message('note_on', channel=0, note=75, velocity=0, time=0),\n",
      "    Message('note_on', channel=0, note=75, velocity=48, time=11),\n",
      "    Message('note_on', channel=0, note=72, velocity=47, time=11),\n",
      "    Message('note_on', channel=0, note=68, velocity=41, time=1),\n",
      "    Message('note_on', channel=0, note=32, velocity=43, time=4),\n",
      "    Message('note_on', channel=0, note=44, velocity=47, time=4),\n",
      "    Message('control_change', channel=0, control=64, value=127, time=46),\n",
      "    Message('note_on', channel=0, note=75, velocity=0, time=184),\n",
      "    Message('note_on', channel=0, note=75, velocity=51, time=7),\n",
      "    Message('note_on', channel=0, note=68, velocity=0, time=1),\n",
      "    Message('note_on', channel=0, note=72, velocity=0, time=8),\n",
      "    Message('note_on', channel=0, note=68, velocity=38, time=3),\n",
      "    Message('note_on', channel=0, note=72, velocity=42, time=1),\n",
      "    Message('note_on', channel=0, note=60, velocity=35, time=0),\n",
      "    Message('note_on', channel=0, note=53, velocity=38, time=19),\n",
      "    Message('note_on', channel=0, note=68, velocity=0, time=138),\n",
      "    Message('note_on', channel=0, note=72, velocity=0, time=0),\n",
      "    Message('note_on', channel=0, note=75, velocity=0, time=0),\n",
      "    Message('note_on', channel=0, note=63, velocity=46, time=3),\n",
      "    Message('note_on', channel=0, note=72, velocity=48, time=4),\n",
      "    Message('note_on', channel=0, note=68, velocity=45, time=1),\n",
      "    Message('note_on', channel=0, note=56, velocity=46, time=2),\n",
      "    Message('note_on', channel=0, note=75, velocity=49, time=1),\n",
      "    Message('note_on', channel=0, note=32, velocity=0, time=135),\n",
      "    Message('note_on', channel=0, note=80, velocity=77, time=34),\n",
      "    Message('note_on', channel=0, note=60, velocity=0, time=20),\n",
      "    Message('note_on', channel=0, note=68, velocity=0, time=0),\n",
      "    Message('note_on', channel=0, note=68, velocity=43, time=7),\n",
      "    Message('note_on', channel=0, note=60, velocity=41, time=0),\n",
      "    Message('note_on', channel=0, note=53, velocity=0, time=0),\n",
      "    Message('note_on', channel=0, note=53, velocity=34, time=5),\n",
      "    Message('note_on', channel=0, note=72, velocity=0, time=3),\n",
      "    Message('note_on', channel=0, note=75, velocity=0, time=0),\n",
      "    Message('note_on', channel=0, note=75, velocity=40, time=5),\n",
      "    Message('note_on', channel=0, note=72, velocity=33, time=1),\n",
      "    Message('note_on', channel=0, note=56, velocity=0, time=2),\n",
      "    Message('note_on', channel=0, note=56, velocity=35, time=10),\n",
      "    Message('note_on', channel=0, note=63, velocity=0, time=143),\n",
      "    Message('note_on', channel=0, note=68, velocity=0, time=0),\n",
      "    Message('note_on', channel=0, note=72, velocity=0, time=0),\n",
      "    Message('note_on', channel=0, note=75, velocity=0, time=0),\n",
      "    Message('note_on', channel=0, note=75, velocity=44, time=4),\n",
      "    Message('note_on', channel=0, note=68, velocity=49, time=3),\n",
      "    Message('note_on', channel=0, note=63, velocity=41, time=1),\n",
      "    Message('note_on', channel=0, note=56, velocity=0, time=0),\n",
      "    Message('note_on', channel=0, note=72, velocity=41, time=4),\n",
      "    Message('note_on', channel=0, note=56, velocity=40, time=0),\n",
      "    Message('note_on', channel=0, note=53, velocity=0, time=134),\n",
      "    Message('note_on', channel=0, note=53, velocity=36, time=11),\n",
      "    Message('note_on', channel=0, note=72, velocity=0, time=5),\n",
      "    Message('note_on', channel=0, note=75, velocity=0, time=0),\n",
      "    Message('note_on', channel=0, note=72, velocity=46, time=5),\n",
      "    Message('note_on', channel=0, note=68, velocity=0, time=2),\n",
      "    Message('note_on', channel=0, note=80, velocity=0, time=0),\n",
      "    Message('note_on', channel=0, note=75, velocity=49, time=3),\n",
      "    Message('note_on', channel=0, note=80, velocity=48, time=2),\n",
      "    Message('note_on', channel=0, note=68, velocity=44, time=3),\n",
      "    Message('note_on', channel=0, note=80, velocity=0, time=150),\n",
      "    Message('note_on', channel=0, note=44, velocity=0, time=0),\n",
      "    Message('note_on', channel=0, note=56, velocity=0, time=1),\n",
      "    Message('note_on', channel=0, note=63, velocity=0, time=0),\n",
      "    Message('note_on', channel=0, note=75, velocity=0, time=0),\n",
      "    Message('note_on', channel=0, note=72, velocity=0, time=0),\n",
      "    Message('control_change', channel=0, control=64, value=0, time=0),\n",
      "    Message('note_on', channel=0, note=53, velocity=0, time=10),\n",
      "    Message('note_on', channel=0, note=60, velocity=0, time=0),\n",
      "    Message('note_on', channel=0, note=68, velocity=0, time=8),\n",
      "    Message('note_on', channel=0, note=68, velocity=49, time=11),\n",
      "    Message('note_on', channel=0, note=74, velocity=52, time=0),\n",
      "    Message('note_on', channel=0, note=46, velocity=39, time=6),\n",
      "    Message('note_on', channel=0, note=34, velocity=36, time=2),\n",
      "    Message('note_on', channel=0, note=70, velocity=43, time=1),\n",
      "    Message('control_change', channel=0, control=64, value=127, time=57),\n",
      "    Message('note_on', channel=0, note=68, velocity=0, time=146),\n",
      "    Message('note_on', channel=0, note=70, velocity=0, time=0),\n",
      "    Message('note_on', channel=0, note=74, velocity=0, time=0),\n",
      "    Message('note_on', channel=0, note=68, velocity=43, time=5),\n",
      "    Message('note_on', channel=0, note=46, velocity=0, time=2),\n",
      "    Message('note_on', channel=0, note=74, velocity=45, time=1),\n",
      "    Message('note_on', channel=0, note=70, velocity=40, time=1),\n",
      "    Message('note_on', channel=0, note=56, velocity=43, time=3),\n",
      "    Message('note_on', channel=0, note=46, velocity=26, time=0),\n",
      "    Message('note_on', channel=0, note=58, velocity=33, time=5),\n",
      "    Message('note_on', channel=0, note=62, velocity=20, time=2),\n",
      "    Message('note_on', channel=0, note=62, velocity=0, time=11),\n",
      "    Message('note_on', channel=0, note=79, velocity=68, time=158),\n",
      "    Message('note_on', channel=0, note=56, velocity=0, time=11),\n",
      "    Message('note_on', channel=0, note=74, velocity=0, time=0),\n",
      "    Message('note_on', channel=0, note=62, velocity=46, time=7),\n",
      "    Message('note_on', channel=0, note=70, velocity=0, time=1),\n",
      "    Message('note_on', channel=0, note=74, velocity=51, time=1),\n",
      "    Message('note_on', channel=0, note=56, velocity=43, time=1),\n",
      "    Message('note_on', channel=0, note=70, velocity=41, time=8),\n",
      "    Message('note_on', channel=0, note=46, velocity=0, time=151),\n",
      "    Message('note_on', channel=0, note=74, velocity=0, time=0),\n",
      "    Message('note_on', channel=0, note=46, velocity=37, time=11),\n",
      "    Message('note_on', channel=0, note=74, velocity=46, time=1),\n",
      "    Message('note_on', channel=0, note=56, velocity=0, time=11),\n",
      "    Message('note_on', channel=0, note=68, velocity=0, time=0),\n",
      "    Message('note_on', channel=0, note=68, velocity=37, time=10),\n",
      "    Message('note_on', channel=0, note=56, velocity=34, time=1),\n",
      "    Message('note_on', channel=0, note=62, velocity=0, time=151),\n",
      "    Message('note_on', channel=0, note=56, velocity=0, time=7),\n",
      "    Message('note_on', channel=0, note=62, velocity=32, time=3),\n",
      "    Message('note_on', channel=0, note=58, velocity=0, time=4),\n",
      "    Message('note_on', channel=0, note=56, velocity=38, time=4),\n",
      "    Message('note_on', channel=0, note=68, velocity=0, time=12),\n",
      "    Message('note_on', channel=0, note=70, velocity=0, time=0),\n",
      "    Message('note_on', channel=0, note=53, velocity=14, time=5),\n",
      "    Message('note_on', channel=0, note=70, velocity=29, time=0),\n",
      "    Message('note_on', channel=0, note=74, velocity=0, time=3),\n",
      "    Message('note_on', channel=0, note=68, velocity=37, time=0),\n",
      "    Message('note_on', channel=0, note=74, velocity=36, time=11),\n",
      "    Message('note_on', channel=0, note=77, velocity=68, time=229),\n",
      "    Message('note_on', channel=0, note=68, velocity=0, time=13),\n",
      "    Message('note_on', channel=0, note=35, velocity=36, time=1),\n",
      "    Message('note_on', channel=0, note=68, velocity=46, time=6),\n",
      "    Message('note_on', channel=0, note=35, velocity=0, time=1),\n",
      "    Message('note_on', channel=0, note=74, velocity=0, time=0),\n",
      "    Message('note_on', channel=0, note=47, velocity=30, time=5),\n",
      "    Message('note_on', channel=0, note=74, velocity=42, time=4),\n",
      "    Message('note_on', channel=0, note=53, velocity=0, time=175),\n",
      "    Message('note_on', channel=0, note=34, velocity=0, time=2),\n",
      "    Message('note_on', channel=0, note=46, velocity=0, time=0),\n",
      "    Message('note_on', channel=0, note=62, velocity=0, time=1),\n",
      "    Message('note_on', channel=0, note=68, velocity=0, time=0),\n",
      "    Message('control_change', channel=0, control=64, value=0, time=0),\n",
      "    Message('note_on', channel=0, note=70, velocity=0, time=1),\n",
      "    Message('note_on', channel=0, note=56, velocity=0, time=4),\n",
      "    Message('note_on', channel=0, note=79, velocity=0, time=8),\n",
      "    Message('note_on', channel=0, note=47, velocity=0, time=7),\n",
      "    Message('note_on', channel=0, note=72, velocity=47, time=36),\n",
      "    Message('note_on', channel=0, note=48, velocity=29, time=0),\n",
      "    Message('note_on', channel=0, note=36, velocity=32, time=6),\n",
      "    Message('note_on', channel=0, note=67, velocity=35, time=1),\n",
      "    Message('control_change', channel=0, control=64, value=127, time=42),\n",
      "    Message('note_on', channel=0, note=36, velocity=0, time=184),\n",
      "    Message('note_on', channel=0, note=75, velocity=66, time=4),\n",
      "    Message('note_on', channel=0, note=36, velocity=35, time=3),\n",
      "    Message('note_on', channel=0, note=48, velocity=0, time=1),\n",
      "    Message('note_on', channel=0, note=48, velocity=32, time=5),\n",
      "    Message('note_on', channel=0, note=72, velocity=0, time=3),\n",
      "    Message('note_on', channel=0, note=72, velocity=49, time=6),\n",
      "    Message('note_on', channel=0, note=67, velocity=0, time=1),\n",
      "    Message('note_on', channel=0, note=55, velocity=35, time=6),\n",
      "    Message('note_on', channel=0, note=67, velocity=34, time=1),\n",
      "    Message('note_on', channel=0, note=77, velocity=0, time=116),\n",
      "    Message('note_on', channel=0, note=77, velocity=69, time=11),\n",
      "    Message('note_on', channel=0, note=72, velocity=0, time=12),\n",
      "    Message('note_on', channel=0, note=67, velocity=0, time=8),\n",
      "    Message('note_on', channel=0, note=72, velocity=38, time=3),\n",
      "    Message('note_on', channel=0, note=67, velocity=36, time=1),\n",
      "    Message('note_on', channel=0, note=55, velocity=0, time=27),\n",
      "    Message('note_on', channel=0, note=63, velocity=37, time=4),\n",
      "    Message('note_on', channel=0, note=55, velocity=28, time=4),\n",
      "    Message('note_on', channel=0, note=48, velocity=0, time=7),\n",
      "    Message('note_on', channel=0, note=48, velocity=21, time=9),\n",
      "    Message('note_on', channel=0, note=75, velocity=0, time=60),\n",
      "    Message('note_on', channel=0, note=72, velocity=0, time=8),\n",
      "    Message('note_on', channel=0, note=75, velocity=70, time=2),\n",
      "    Message('note_on', channel=0, note=72, velocity=60, time=3),\n",
      "    Message('note_on', channel=0, note=55, velocity=0, time=10),\n",
      "    Message('note_on', channel=0, note=67, velocity=0, time=0),\n",
      "    Message('note_on', channel=0, note=67, velocity=45, time=4),\n",
      "    Message('note_on', channel=0, note=55, velocity=42, time=2),\n",
      "    Message('note_on', channel=0, note=48, velocity=0, time=117),\n",
      "    Message('note_on', channel=0, note=74, velocity=0, time=8),\n",
      "    Message('note_on', channel=0, note=48, velocity=35, time=3),\n",
      "    Message('note_on', channel=0, note=74, velocity=70, time=2),\n",
      "    Message('note_on', channel=0, note=55, velocity=0, time=2),\n",
      "    Message('note_on', channel=0, note=67, velocity=0, time=8),\n",
      "    Message('note_on', channel=0, note=72, velocity=0, time=0),\n",
      "    Message('note_on', channel=0, note=55, velocity=42, time=4),\n",
      "    Message('note_on', channel=0, note=72, velocity=50, time=2),\n",
      "    Message('note_on', channel=0, note=67, velocity=46, time=0),\n",
      "    Message('note_on', channel=0, note=75, velocity=0, time=132),\n",
      "    Message('note_on', channel=0, note=55, velocity=0, time=8),\n",
      "    Message('note_on', channel=0, note=67, velocity=0, time=0),\n",
      "    Message('note_on', channel=0, note=72, velocity=0, time=0),\n",
      "    Message('note_on', channel=0, note=75, velocity=70, time=3),\n",
      "    Message('note_on', channel=0, note=67, velocity=50, time=2),\n",
      "    Message('note_on', channel=0, note=55, velocity=42, time=4),\n",
      "    Message('note_on', channel=0, note=72, velocity=62, time=2),\n",
      "    Message('note_on', channel=0, note=63, velocity=0, time=50),\n",
      "    Message('note_on', channel=0, note=63, velocity=24, time=5),\n",
      "    Message('note_on', channel=0, note=55, velocity=0, time=3),\n",
      "    Message('note_on', channel=0, note=55, velocity=20, time=7),\n",
      "    Message('note_on', channel=0, note=77, velocity=0, time=70),\n",
      "    Message('note_on', channel=0, note=77, velocity=60, time=5),\n",
      "    Message('note_on', channel=0, note=72, velocity=0, time=3),\n",
      "    Message('note_on', channel=0, note=72, velocity=57, time=5),\n",
      "    Message('note_on', channel=0, note=67, velocity=0, time=10),\n",
      "    Message('note_on', channel=0, note=67, velocity=43, time=7),\n",
      "    Message('note_on', channel=0, note=69, velocity=41, time=5),\n",
      "    Message('note_on', channel=0, note=48, velocity=0, time=42),\n",
      "    Message('note_on', channel=0, note=48, velocity=40, time=4),\n",
      "    Message('note_on', channel=0, note=72, velocity=0, time=126),\n",
      "    Message('note_on', channel=0, note=79, velocity=65, time=1),\n",
      "    Message('note_on', channel=0, note=72, velocity=51, time=5),\n",
      "    Message('note_on', channel=0, note=48, velocity=0, time=2),\n",
      "    Message('note_on', channel=0, note=55, velocity=0, time=8),\n",
      "    Message('note_on', channel=0, note=48, velocity=31, time=1),\n",
      "    Message('note_on', channel=0, note=67, velocity=0, time=6),\n",
      "    Message('note_on', channel=0, note=55, velocity=25, time=1),\n",
      "    Message('note_on', channel=0, note=67, velocity=39, time=3),\n",
      "    Message('note_on', channel=0, note=74, velocity=0, time=188),\n",
      "    Message('note_on', channel=0, note=74, velocity=62, time=4),\n",
      "    Message('note_on', channel=0, note=67, velocity=0, time=19),\n",
      "    Message('note_on', channel=0, note=67, velocity=37, time=5),\n",
      "    Message('note_on', channel=0, note=62, velocity=40, time=1),\n",
      "    Message('note_on', channel=0, note=50, velocity=35, time=0),\n",
      "    Message('control_change', channel=0, control=64, value=0, time=4),\n",
      "    Message('note_on', channel=0, note=72, velocity=0, time=3),\n",
      "    Message('note_on', channel=0, note=69, velocity=0, time=0),\n",
      "    Message('note_on', channel=0, note=63, velocity=0, time=1),\n",
      "    Message('note_on', channel=0, note=55, velocity=0, time=0),\n",
      "    Message('note_on', channel=0, note=75, velocity=0, time=0),\n",
      "    Message('note_on', channel=0, note=77, velocity=0, time=0),\n",
      "    Message('note_on', channel=0, note=48, velocity=0, time=0),\n",
      "    Message('note_on', channel=0, note=79, velocity=0, time=0),\n",
      "    Message('note_on', channel=0, note=38, velocity=31, time=0),\n",
      "    Message('note_on', channel=0, note=36, velocity=0, time=9),\n",
      "    Message('note_on', channel=0, note=38, velocity=0, time=65),\n",
      "    Message('control_change', channel=0, control=64, value=127, time=20),\n",
      "    Message('note_on', channel=0, note=58, velocity=42, time=170),\n",
      "    Message('note_on', channel=0, note=50, velocity=0, time=6),\n",
      "    Message('note_on', channel=0, note=62, velocity=0, time=0),\n",
      "    Message('note_on', channel=0, note=50, velocity=28, time=5),\n",
      "    Message('note_on', channel=0, note=55, velocity=20, time=4),\n",
      "    Message('note_on', channel=0, note=62, velocity=30, time=2),\n",
      "    Message('note_on', channel=0, note=62, velocity=0, time=166),\n",
      "    Message('note_on', channel=0, note=62, velocity=63, time=5),\n",
      "    Message('note_on', channel=0, note=55, velocity=0, time=3),\n",
      "    Message('note_on', channel=0, note=55, velocity=39, time=7),\n",
      "    Message('note_on', channel=0, note=50, velocity=0, time=16),\n",
      "    Message('note_on', channel=0, note=46, velocity=32, time=4),\n",
      "    Message('note_on', channel=0, note=50, velocity=26, time=1),\n",
      "    Message('note_on', channel=0, note=50, velocity=0, time=195),\n",
      "    Message('note_on', channel=0, note=58, velocity=0, time=0),\n",
      "    Message('note_on', channel=0, note=62, velocity=0, time=0),\n",
      "    Message('note_on', channel=0, note=50, velocity=30, time=6),\n",
      "    Message('note_on', channel=0, note=55, velocity=0, time=1),\n",
      "    Message('note_on', channel=0, note=62, velocity=26, time=2),\n",
      "    Message('note_on', channel=0, note=58, velocity=38, time=1),\n",
      "    Message('note_on', channel=0, note=55, velocity=25, time=6),\n",
      "    Message('note_on', channel=0, note=67, velocity=0, time=152),\n",
      "    Message('note_on', channel=0, note=62, velocity=0, time=8),\n",
      "    Message('note_on', channel=0, note=67, velocity=58, time=3),\n",
      "    Message('note_on', channel=0, note=62, velocity=57, time=7),\n",
      "    Message('note_on', channel=0, note=55, velocity=0, time=6),\n",
      "    Message('note_on', channel=0, note=55, velocity=33, time=4),\n",
      "    Message('note_on', channel=0, note=72, velocity=65, time=137),\n",
      "    Message('note_on', channel=0, note=62, velocity=0, time=4),\n",
      "    Message('note_on', channel=0, note=62, velocity=47, time=11),\n",
      "    Message('note_on', channel=0, note=55, velocity=0, time=12),\n",
      "    Message('note_on', channel=0, note=67, velocity=0, time=0),\n",
      "    Message('note_on', channel=0, note=67, velocity=44, time=5),\n",
      "    Message('note_on', channel=0, note=55, velocity=25, time=2),\n",
      "    Message('note_on', channel=0, note=58, velocity=0, time=9),\n",
      "    Message('note_on', channel=0, note=58, velocity=23, time=5),\n",
      "    Message('note_on', channel=0, note=74, velocity=0, time=95),\n",
      "    Message('note_on', channel=0, note=74, velocity=71, time=10),\n",
      "    Message('note_on', channel=0, note=67, velocity=0, time=5),\n",
      "    Message('note_on', channel=0, note=67, velocity=43, time=6),\n",
      "    Message('note_on', channel=0, note=62, velocity=0, time=2),\n",
      "    Message('note_on', channel=0, note=62, velocity=47, time=4),\n",
      "    Message('note_on', channel=0, note=50, velocity=0, time=150),\n",
      "    Message('control_change', channel=0, control=64, value=0, time=0),\n",
      "    Message('note_on', channel=0, note=72, velocity=0, time=0),\n",
      "    Message('note_on', channel=0, note=67, velocity=0, time=1),\n",
      "    Message('note_on', channel=0, note=58, velocity=0, time=0),\n",
      "    Message('note_on', channel=0, note=62, velocity=0, time=0),\n",
      "    Message('note_on', channel=0, note=74, velocity=0, time=1),\n",
      "    Message('note_on', channel=0, note=75, velocity=69, time=0),\n",
      "    Message('note_on', channel=0, note=46, velocity=0, time=5),\n",
      "    Message('note_on', channel=0, note=55, velocity=0, time=8),\n",
      "    Message('note_on', channel=0, note=63, velocity=41, time=15),\n",
      "    Message('control_change', channel=0, control=64, value=127, time=92),\n",
      "    Message('note_on', channel=0, note=63, velocity=0, time=138),\n",
      "    Message('note_on', channel=0, note=69, velocity=42, time=12),\n",
      "    Message('note_on', channel=0, note=63, velocity=40, time=0),\n",
      "    Message('note_on', channel=0, note=67, velocity=41, time=0),\n",
      "    Message('note_on', channel=0, note=57, velocity=40, time=2),\n",
      "    Message('note_on', channel=0, note=57, velocity=0, time=155),\n",
      "    Message('note_on', channel=0, note=57, velocity=38, time=5),\n",
      "    Message('note_on', channel=0, note=63, velocity=0, time=11),\n",
      "    Message('note_on', channel=0, note=67, velocity=0, time=0),\n",
      "    Message('note_on', channel=0, note=63, velocity=34, time=5),\n",
      "    Message('note_on', channel=0, note=60, velocity=33, time=4),\n",
      "    Message('note_on', channel=0, note=67, velocity=35, time=1),\n",
      "    Message('note_on', channel=0, note=63, velocity=0, time=151),\n",
      "    Message('note_on', channel=0, note=63, velocity=41, time=10),\n",
      "    Message('note_on', channel=0, note=57, velocity=0, time=5),\n",
      "    Message('note_on', channel=0, note=60, velocity=0, time=0),\n",
      "    Message('note_on', channel=0, note=66, velocity=31, time=4),\n",
      "    Message('note_on', channel=0, note=57, velocity=37, time=7),\n",
      "    Message('note_on', channel=0, note=60, velocity=27, time=1),\n",
      "    Message('note_on', channel=0, note=50, velocity=31, time=0),\n",
      "    Message('note_on', channel=0, note=38, velocity=30, time=7),\n",
      "    Message('note_on', channel=0, note=57, velocity=0, time=181),\n",
      "    Message('note_on', channel=0, note=63, velocity=0, time=0),\n",
      "    Message('note_on', channel=0, note=69, velocity=0, time=0),\n",
      "    Message('note_on', channel=0, note=60, velocity=0, time=8),\n",
      "    Message('note_on', channel=0, note=69, velocity=41, time=0),\n",
      "    Message('note_on', channel=0, note=63, velocity=41, time=0),\n",
      "    Message('note_on', channel=0, note=57, velocity=39, time=3),\n",
      "    Message('note_on', channel=0, note=60, velocity=31, time=1),\n",
      "    Message('note_on', channel=0, note=57, velocity=0, time=234),\n",
      "    Message('note_on', channel=0, note=66, velocity=0, time=8),\n",
      "    Message('note_on', channel=0, note=57, velocity=39, time=1),\n",
      "    Message('note_on', channel=0, note=38, velocity=0, time=6),\n",
      "    Message('note_on', channel=0, note=66, velocity=50, time=3),\n",
      "    Message('note_on', channel=0, note=38, velocity=34, time=2),\n",
      "    Message('note_on', channel=0, note=50, velocity=0, time=3),\n",
      "    Message('note_on', channel=0, note=60, velocity=0, time=0),\n",
      "    Message('note_on', channel=0, note=50, velocity=33, time=6),\n",
      "    Message('note_on', channel=0, note=63, velocity=0, time=2),\n",
      "    Message('note_on', channel=0, note=60, velocity=36, time=0),\n",
      "    Message('note_on', channel=0, note=63, velocity=42, time=11),\n",
      "    Message('note_on', channel=0, note=66, velocity=0, time=242),\n",
      "    Message('note_on', channel=0, note=38, velocity=0, time=8),\n",
      "    Message('note_on', channel=0, note=50, velocity=0, time=0),\n",
      "    Message('note_on', channel=0, note=63, velocity=0, time=1),\n",
      "    Message('note_on', channel=0, note=69, velocity=0, time=0),\n",
      "    Message('note_on', channel=0, note=60, velocity=0, time=1),\n",
      "    Message('note_on', channel=0, note=66, velocity=46, time=0),\n",
      "    Message('control_change', channel=0, control=64, value=0, time=3),\n",
      "    Message('note_on', channel=0, note=62, velocity=44, time=6),\n",
      "    Message('note_on', channel=0, note=57, velocity=0, time=4),\n",
      "    Message('note_on', channel=0, note=75, velocity=0, time=0),\n",
      "    Message('note_on', channel=0, note=58, velocity=35, time=11),\n",
      "    Message('note_on', channel=0, note=31, velocity=30, time=9),\n",
      "    Message('control_change', channel=0, control=64, value=127, time=88),\n",
      "    Message('note_on', channel=0, note=62, velocity=0, time=161),\n",
      "    Message('note_on', channel=0, note=62, velocity=36, time=7),\n",
      "    Message('note_on', channel=0, note=58, velocity=0, time=1),\n",
      "    Message('note_on', channel=0, note=31, velocity=0, time=7),\n",
      "    Message('note_on', channel=0, note=58, velocity=38, time=3),\n",
      "    Message('note_on', channel=0, note=50, velocity=33, time=8),\n",
      "    Message('note_on', channel=0, note=55, velocity=27, time=0),\n",
      "    Message('note_on', channel=0, note=31, velocity=34, time=1),\n",
      "    Message('note_on', channel=0, note=67, velocity=0, time=249),\n",
      "    Message('note_on', channel=0, note=62, velocity=0, time=8),\n",
      "    Message('note_on', channel=0, note=67, velocity=49, time=1),\n",
      "    Message('note_on', channel=0, note=62, velocity=29, time=9),\n",
      "    Message('note_on', channel=0, note=50, velocity=0, time=13),\n",
      "    Message('note_on', channel=0, note=55, velocity=0, time=0),\n",
      "    Message('note_on', channel=0, note=58, velocity=0, time=0),\n",
      "    Message('note_on', channel=0, note=50, velocity=29, time=5),\n",
      "    Message('note_on', channel=0, note=58, velocity=29, time=0),\n",
      "    Message('note_on', channel=0, note=55, velocity=30, time=5),\n",
      "    Message('note_on', channel=0, note=31, velocity=0, time=56),\n",
      "    Message('note_on', channel=0, note=58, velocity=0, time=0),\n",
      "    Message('note_on', channel=0, note=62, velocity=0, time=4),\n",
      "    Message('note_on', channel=0, note=50, velocity=0, time=1),\n",
      "    Message('note_on', channel=0, note=66, velocity=0, time=0),\n",
      "    Message('control_change', channel=0, control=64, value=0, time=0),\n",
      "    Message('note_on', channel=0, note=58, velocity=36, time=108),\n",
      "    Message('note_on', channel=0, note=62, velocity=32, time=5),\n",
      "    Message('note_on', channel=0, note=55, velocity=0, time=0),\n",
      "    Message('note_on', channel=0, note=50, velocity=31, time=6),\n",
      "    Message('note_on', channel=0, note=55, velocity=25, time=1),\n",
      "    Message('note_on', channel=0, note=43, velocity=29, time=2),\n",
      "    Message('control_change', channel=0, control=64, value=127, time=7),\n",
      "    Message('note_on', channel=0, note=50, velocity=0, time=169),\n",
      "    Message('note_on', channel=0, note=55, velocity=0, time=0),\n",
      "    Message('note_on', channel=0, note=58, velocity=0, time=0),\n",
      "    Message('note_on', channel=0, note=58, velocity=39, time=4),\n",
      "    Message('note_on', channel=0, note=55, velocity=29, time=5),\n",
      "    Message('note_on', channel=0, note=50, velocity=24, time=2),\n",
      "    Message('note_on', channel=0, note=58, velocity=0, time=181),\n",
      "    Message('note_on', channel=0, note=62, velocity=0, time=0),\n",
      "    Message('note_on', channel=0, note=58, velocity=37, time=4),\n",
      "    Message('note_on', channel=0, note=62, velocity=33, time=1),\n",
      "    Message('note_on', channel=0, note=36, velocity=34, time=13),\n",
      "    Message('control_change', channel=0, control=64, value=0, time=198),\n",
      "    Message('note_on', channel=0, note=58, velocity=0, time=2),\n",
      "    Message('note_on', channel=0, note=36, velocity=0, time=0),\n",
      "    Message('note_on', channel=0, note=67, velocity=0, time=0),\n",
      "    Message('note_on', channel=0, note=62, velocity=0, time=4),\n",
      "    Message('note_on', channel=0, note=62, velocity=39, time=8),\n",
      "    Message('note_on', channel=0, note=43, velocity=0, time=8),\n",
      "    Message('note_on', channel=0, note=50, velocity=0, time=0),\n",
      "    Message('note_on', channel=0, note=55, velocity=0, time=0),\n",
      "    Message('note_on', channel=0, note=43, velocity=35, time=5),\n",
      "    Message('note_on', channel=0, note=31, velocity=42, time=2),\n",
      "    Message('note_on', channel=0, note=55, velocity=24, time=4),\n",
      "    Message('note_on', channel=0, note=31, velocity=0, time=52),\n",
      "    Message('control_change', channel=0, control=64, value=127, time=14),\n",
      "    Message('note_on', channel=0, note=59, velocity=41, time=165),\n",
      "    Message('note_on', channel=0, note=50, velocity=36, time=5),\n",
      "    Message('note_on', channel=0, note=43, velocity=0, time=6),\n",
      "    Message('note_on', channel=0, note=55, velocity=0, time=0),\n",
      "    Message('note_on', channel=0, note=31, velocity=33, time=4),\n",
      "    Message('note_on', channel=0, note=43, velocity=27, time=3),\n",
      "    Message('note_on', channel=0, note=55, velocity=23, time=1),\n",
      "    Message('note_on', channel=0, note=31, velocity=0, time=8),\n",
      "    Message('note_on', channel=0, note=59, velocity=0, time=153),\n",
      "    Message('note_on', channel=0, note=62, velocity=0, time=0),\n",
      "    Message('note_on', channel=0, note=62, velocity=39, time=7),\n",
      "    Message('note_on', channel=0, note=55, velocity=0, time=1),\n",
      "    Message('note_on', channel=0, note=59, velocity=37, time=3),\n",
      "    Message('note_on', channel=0, note=55, velocity=30, time=3),\n",
      "    Message('note_on', channel=0, note=50, velocity=0, time=17),\n",
      "    Message('note_on', channel=0, note=50, velocity=19, time=5),\n",
      "    Message('note_on', channel=0, note=67, velocity=58, time=184),\n",
      "    Message('note_on', channel=0, note=59, velocity=0, time=18),\n",
      "    Message('note_on', channel=0, note=62, velocity=0, time=8),\n",
      "    Message('note_on', channel=0, note=59, velocity=26, time=3),\n",
      "    Message('note_on', channel=0, note=62, velocity=24, time=1),\n",
      "    Message('note_on', channel=0, note=55, velocity=0, time=4),\n",
      "    Message('note_on', channel=0, note=55, velocity=19, time=6),\n",
      "    Message('note_on', channel=0, note=59, velocity=0, time=193),\n",
      "    Message('note_on', channel=0, note=62, velocity=0, time=0),\n",
      "    Message('note_on', channel=0, note=62, velocity=41, time=5),\n",
      "    Message('note_on', channel=0, note=50, velocity=0, time=3),\n",
      "    Message('note_on', channel=0, note=59, velocity=35, time=1),\n",
      "    Message('note_on', channel=0, note=50, velocity=34, time=5),\n",
      "    Message('note_on', channel=0, note=55, velocity=0, time=9),\n",
      "    Message('note_on', channel=0, note=55, velocity=16, time=4),\n",
      "    Message('note_on', channel=0, note=62, velocity=0, time=234),\n",
      "    Message('note_on', channel=0, note=59, velocity=0, time=8),\n",
      "    Message('note_on', channel=0, note=62, velocity=36, time=1),\n",
      "    Message('note_on', channel=0, note=59, velocity=35, time=4),\n",
      "    Message('note_on', channel=0, note=43, velocity=0, time=10),\n",
      "    Message('note_on', channel=0, note=43, velocity=35, time=6),\n",
      "    Message('note_on', channel=0, note=31, velocity=38, time=0),\n",
      "    Message('note_on', channel=0, note=55, velocity=0, time=2),\n",
      "    Message('note_on', channel=0, note=55, velocity=22, time=5),\n",
      "    Message('note_on', channel=0, note=43, velocity=0, time=310),\n",
      "    Message('note_on', channel=0, note=31, velocity=0, time=1),\n",
      "    Message('note_on', channel=0, note=55, velocity=0, time=1),\n",
      "    Message('note_on', channel=0, note=62, velocity=0, time=2),\n",
      "    Message('note_on', channel=0, note=59, velocity=0, time=0),\n",
      "    Message('note_on', channel=0, note=67, velocity=0, time=0),\n",
      "    Message('control_change', channel=0, control=64, value=0, time=0),\n",
      "    Message('note_on', channel=0, note=30, velocity=52, time=9),\n",
      "    Message('note_on', channel=0, note=50, velocity=0, time=2),\n",
      "    Message('note_on', channel=0, note=58, velocity=37, time=1),\n",
      "    Message('note_on', channel=0, note=42, velocity=43, time=2),\n",
      "    Message('note_on', channel=0, note=51, velocity=29, time=2),\n",
      "    Message('control_change', channel=0, control=64, value=127, time=80),\n",
      "    Message('note_on', channel=0, note=51, velocity=0, time=238),\n",
      "    Message('note_on', channel=0, note=60, velocity=35, time=10),\n",
      "    Message('note_on', channel=0, note=51, velocity=41, time=1),\n",
      "    Message('note_on', channel=0, note=63, velocity=38, time=1),\n",
      "    Message('note_on', channel=0, note=42, velocity=0, time=3),\n",
      "    Message('note_on', channel=0, note=57, velocity=25, time=1),\n",
      "    Message('note_on', channel=0, note=42, velocity=35, time=3),\n",
      "    Message('note_on', channel=0, note=58, velocity=0, time=135),\n",
      "    Message('note_on', channel=0, note=63, velocity=0, time=46),\n",
      "    Message('note_on', channel=0, note=51, velocity=0, time=7),\n",
      "    Message('note_on', channel=0, note=60, velocity=0, time=0),\n",
      "    Message('note_on', channel=0, note=63, velocity=43, time=3),\n",
      "    Message('note_on', channel=0, note=60, velocity=36, time=3),\n",
      "    Message('note_on', channel=0, note=56, velocity=39, time=0),\n",
      "    Message('note_on', channel=0, note=51, velocity=40, time=1),\n",
      "    Message('note_on', channel=0, note=42, velocity=0, time=208),\n",
      "    Message('note_on', channel=0, note=30, velocity=0, time=8),\n",
      "    Message('note_on', channel=0, note=68, velocity=69, time=3),\n",
      "    Message('note_on', channel=0, note=42, velocity=36, time=0),\n",
      "    Message('note_on', channel=0, note=30, velocity=32, time=2),\n",
      "    Message('note_on', channel=0, note=56, velocity=0, time=202),\n",
      "    Message('note_on', channel=0, note=60, velocity=0, time=0),\n",
      "    Message('note_on', channel=0, note=63, velocity=0, time=0),\n",
      "    Message('note_on', channel=0, note=63, velocity=40, time=5),\n",
      "    Message('note_on', channel=0, note=51, velocity=0, time=3),\n",
      "    Message('note_on', channel=0, note=60, velocity=39, time=1),\n",
      "    Message('note_on', channel=0, note=56, velocity=37, time=2),\n",
      "    Message('note_on', channel=0, note=51, velocity=37, time=1),\n",
      "    Message('note_on', channel=0, note=63, velocity=0, time=180),\n",
      "    Message('note_on', channel=0, note=63, velocity=53, time=7),\n",
      "    Message('note_on', channel=0, note=60, velocity=0, time=1),\n",
      "    Message('note_on', channel=0, note=60, velocity=33, time=11),\n",
      "    Message('note_on', channel=0, note=42, velocity=0, time=12),\n",
      "    Message('note_on', channel=0, note=54, velocity=32, time=2),\n",
      "    Message('note_on', channel=0, note=42, velocity=45, time=4),\n",
      "    Message('note_on', channel=0, note=30, velocity=0, time=2),\n",
      "    Message('note_on', channel=0, note=30, velocity=38, time=5),\n",
      "    Message('note_on', channel=0, note=54, velocity=0, time=141),\n",
      "    Message('note_on', channel=0, note=57, velocity=0, time=7),\n",
      "    Message('control_change', channel=0, control=64, value=0, time=4),\n",
      "    Message('note_on', channel=0, note=30, velocity=0, time=1),\n",
      "    Message('note_on', channel=0, note=51, velocity=0, time=0),\n",
      "    Message('note_on', channel=0, note=42, velocity=0, time=0),\n",
      "    Message('note_on', channel=0, note=63, velocity=0, time=1),\n",
      "    Message('note_on', channel=0, note=68, velocity=0, time=0),\n",
      "    Message('note_on', channel=0, note=60, velocity=0, time=1),\n",
      "    Message('note_on', channel=0, note=61, velocity=47, time=14),\n",
      "    Message('note_on', channel=0, note=56, velocity=0, time=2),\n",
      "    Message('note_on', channel=0, note=56, velocity=43, time=9),\n",
      "    Message('note_on', channel=0, note=29, velocity=45, time=5),\n",
      "    Message('note_on', channel=0, note=41, velocity=38, time=1),\n",
      "    Message('control_change', channel=0, control=64, value=127, time=55),\n",
      "    Message('note_on', channel=0, note=61, velocity=0, time=138),\n",
      "    Message('note_on', channel=0, note=61, velocity=41, time=5),\n",
      "    Message('note_on', channel=0, note=41, velocity=0, time=2),\n",
      "    Message('note_on', channel=0, note=41, velocity=38, time=7),\n",
      "    Message('note_on', channel=0, note=49, velocity=35, time=6),\n",
      "    Message('note_on', channel=0, note=73, velocity=67, time=183),\n",
      "    Message('note_on', channel=0, note=61, velocity=0, time=4),\n",
      "    Message('note_on', channel=0, note=61, velocity=47, time=6),\n",
      "    Message('note_on', channel=0, note=56, velocity=0, time=25),\n",
      "    Message('note_on', channel=0, note=56, velocity=30, time=8),\n",
      "    Message('note_on', channel=0, note=49, velocity=0, time=15),\n",
      "    Message('note_on', channel=0, note=49, velocity=37, time=5),\n",
      "    Message('note_on', channel=0, note=68, velocity=47, time=216),\n",
      "    Message('note_on', channel=0, note=77, velocity=67, time=1),\n",
      "    Message('note_on', channel=0, note=49, velocity=0, time=24),\n",
      "    Message('note_on', channel=0, note=73, velocity=0, time=0),\n",
      "    Message('note_on', channel=0, note=49, velocity=42, time=3),\n",
      "    Message('note_on', channel=0, note=41, velocity=0, time=4),\n",
      "    Message('note_on', channel=0, note=73, velocity=39, time=2),\n",
      "    Message('note_on', channel=0, note=41, velocity=31, time=2),\n",
      "    Message('note_on', channel=0, note=65, velocity=32, time=2),\n",
      "    Message('note_on', channel=0, note=56, velocity=0, time=209),\n",
      "    Message('note_on', channel=0, note=56, velocity=46, time=11),\n",
      "    Message('note_on', channel=0, note=61, velocity=0, time=5),\n",
      "    Message('note_on', channel=0, note=49, velocity=0, time=7),\n",
      "    Message('note_on', channel=0, note=61, velocity=30, time=3),\n",
      "    Message('note_on', channel=0, note=49, velocity=33, time=5),\n",
      "    Message('note_on', channel=0, note=82, velocity=69, time=95),\n",
      "    Message('note_on', channel=0, note=73, velocity=0, time=5),\n",
      "    Message('note_on', channel=0, note=77, velocity=0, time=0),\n",
      "    Message('note_on', channel=0, note=73, velocity=50, time=5),\n",
      "    Message('note_on', channel=0, note=70, velocity=48, time=0),\n",
      "    Message('note_on', channel=0, note=77, velocity=41, time=4),\n",
      "    Message('note_on', channel=0, note=41, velocity=0, time=68),\n",
      "    Message('note_on', channel=0, note=53, velocity=26, time=3),\n",
      "    Message('note_on', channel=0, note=41, velocity=36, time=3),\n",
      "    Message('note_on', channel=0, note=41, velocity=0, time=212),\n",
      "    Message('note_on', channel=0, note=65, velocity=0, time=0),\n",
      "    Message('note_on', channel=0, note=77, velocity=0, time=1),\n",
      "    Message('note_on', channel=0, note=73, velocity=0, time=0),\n",
      "    Message('note_on', channel=0, note=49, velocity=0, time=0),\n",
      "    Message('note_on', channel=0, note=61, velocity=0, time=0),\n",
      "    Message('note_on', channel=0, note=82, velocity=0, time=0),\n",
      "    Message('note_on', channel=0, note=56, velocity=0, time=0),\n",
      "    Message('note_on', channel=0, note=70, velocity=0, time=0),\n",
      "    Message('control_change', channel=0, control=64, value=0, time=1),\n",
      "    Message('note_on', channel=0, note=29, velocity=0, time=2),\n",
      "    Message('note_on', channel=0, note=53, velocity=0, time=8),\n",
      "    Message('note_on', channel=0, note=80, velocity=64, time=8),\n",
      "    Message('note_on', channel=0, note=68, velocity=0, time=7),\n",
      "    Message('note_on', channel=0, note=75, velocity=50, time=3),\n",
      "    Message('note_on', channel=0, note=68, velocity=48, time=1),\n",
      "    Message('note_on', channel=0, note=36, velocity=27, time=7),\n",
      "    Message('note_on', channel=0, note=48, velocity=22, time=8),\n",
      "    Message('control_change', channel=0, control=64, value=127, time=51),\n",
      "    Message('note_on', channel=0, note=48, velocity=0, time=199),\n",
      "    Message('note_on', channel=0, note=48, velocity=31, time=8),\n",
      "    Message('note_on', channel=0, note=66, velocity=34, time=4),\n",
      "    Message('note_on', channel=0, note=56, velocity=45, time=0),\n",
      "    Message('note_on', channel=0, note=66, velocity=0, time=165),\n",
      "    Message('note_on', channel=0, note=75, velocity=0, time=0),\n",
      "    Message('note_on', channel=0, note=75, velocity=53, time=5),\n",
      "    Message('note_on', channel=0, note=66, velocity=36, time=2),\n",
      "    Message('note_on', channel=0, note=56, velocity=0, time=1),\n",
      "    Message('note_on', channel=0, note=68, velocity=0, time=0),\n",
      "    Message('note_on', channel=0, note=48, velocity=0, time=7),\n",
      "    Message('note_on', channel=0, note=68, velocity=38, time=0),\n",
      "    Message('note_on', channel=0, note=63, velocity=40, time=1),\n",
      "    Message('note_on', channel=0, note=56, velocity=38, time=3),\n",
      "    Message('note_on', channel=0, note=48, velocity=24, time=3),\n",
      "    Message('note_on', channel=0, note=66, velocity=0, time=139),\n",
      "    Message('note_on', channel=0, note=66, velocity=41, time=11),\n",
      "    Message('note_on', channel=0, note=48, velocity=0, time=5),\n",
      "    Message('note_on', channel=0, note=56, velocity=0, time=0),\n",
      "    Message('note_on', channel=0, note=48, velocity=29, time=5),\n",
      "    Message('note_on', channel=0, note=75, velocity=0, time=2),\n",
      "    Message('note_on', channel=0, note=56, velocity=40, time=3),\n",
      "    Message('note_on', channel=0, note=75, velocity=43, time=8),\n",
      "    Message('note_on', channel=0, note=66, velocity=0, time=174),\n",
      "    Message('note_on', channel=0, note=66, velocity=46, time=5),\n",
      "    Message('note_on', channel=0, note=63, velocity=0, time=2),\n",
      "    Message('note_on', channel=0, note=56, velocity=0, time=8),\n",
      "    Message('note_on', channel=0, note=63, velocity=45, time=4),\n",
      "    Message('note_on', channel=0, note=56, velocity=37, time=2),\n",
      "    Message('note_on', channel=0, note=48, velocity=0, time=189),\n",
      "    Message('note_on', channel=0, note=66, velocity=0, time=5),\n",
      "    Message('note_on', channel=0, note=75, velocity=0, time=0),\n",
      "    Message('note_on', channel=0, note=78, velocity=60, time=3),\n",
      "    Message('note_on', channel=0, note=68, velocity=0, time=4),\n",
      "    Message('note_on', channel=0, note=75, velocity=45, time=3),\n",
      "    Message('note_on', channel=0, note=66, velocity=43, time=1),\n",
      "    Message('note_on', channel=0, note=68, velocity=46, time=3),\n",
      "    Message('note_on', channel=0, note=56, velocity=0, time=1),\n",
      "    Message('note_on', channel=0, note=56, velocity=32, time=7),\n",
      "    Message('note_on', channel=0, note=77, velocity=59, time=128),\n",
      "    Message('note_on', channel=0, note=65, velocity=43, time=5),\n",
      "    Message('note_on', channel=0, note=68, velocity=0, time=14),\n",
      "    Message('note_on', channel=0, note=68, velocity=38, time=4),\n",
      "    Message('note_on', channel=0, note=65, velocity=0, time=134),\n",
      "    Message('note_on', channel=0, note=77, velocity=0, time=0),\n",
      "    Message('note_on', channel=0, note=77, velocity=50, time=7),\n",
      "    Message('note_on', channel=0, note=65, velocity=49, time=2),\n",
      "    Message('control_change', channel=0, control=64, value=0, time=3),\n",
      "    Message('note_on', channel=0, note=56, velocity=0, time=0),\n",
      "    Message('note_on', channel=0, note=75, velocity=0, time=1),\n",
      "    Message('note_on', channel=0, note=68, velocity=0, time=0),\n",
      "    Message('note_on', channel=0, note=78, velocity=0, time=0),\n",
      "    Message('note_on', channel=0, note=80, velocity=0, time=0),\n",
      "    Message('note_on', channel=0, note=63, velocity=0, time=0),\n",
      "    Message('note_on', channel=0, note=36, velocity=0, time=2),\n",
      "    Message('note_on', channel=0, note=66, velocity=0, time=8),\n",
      "    Message('note_on', channel=0, note=73, velocity=35, time=8),\n",
      "    Message('note_on', channel=0, note=49, velocity=34, time=4),\n",
      "    Message('note_on', channel=0, note=37, velocity=32, time=0),\n",
      "    Message('control_change', channel=0, control=64, value=127, time=65),\n",
      "    Message('note_on', channel=0, note=49, velocity=0, time=169),\n",
      "    Message('note_on', channel=0, note=65, velocity=0, time=0),\n",
      "    Message('note_on', channel=0, note=77, velocity=0, time=0),\n",
      "    Message('note_on', channel=0, note=65, velocity=37, time=8),\n",
      "    Message('note_on', channel=0, note=49, velocity=36, time=1),\n",
      "    Message('note_on', channel=0, note=77, velocity=47, time=2),\n",
      "    Message('note_on', channel=0, note=73, velocity=0, time=4),\n",
      "    Message('note_on', channel=0, note=68, velocity=38, time=4),\n",
      "    Message('note_on', channel=0, note=73, velocity=33, time=4),\n",
      "    Message('note_on', channel=0, note=56, velocity=43, time=10),\n",
      "    Message('note_on', channel=0, note=77, velocity=0, time=159),\n",
      "    Message('note_on', channel=0, note=61, velocity=40, time=3),\n",
      "    Message('note_on', channel=0, note=65, velocity=0, time=4),\n",
      "    Message('note_on', channel=0, note=73, velocity=0, time=0),\n",
      "    Message('note_on', channel=0, note=77, velocity=42, time=2),\n",
      "    Message('note_on', channel=0, note=65, velocity=36, time=4),\n",
      "    Message('note_on', channel=0, note=73, velocity=43, time=1),\n",
      "    Message('note_on', channel=0, note=68, velocity=0, time=1),\n",
      "    Message('note_on', channel=0, note=68, velocity=36, time=8),\n",
      "    Message('note_on', channel=0, note=53, velocity=28, time=12),\n",
      "    Message('note_on', channel=0, note=56, velocity=0, time=134),\n",
      "    Message('note_on', channel=0, note=65, velocity=0, time=0),\n",
      "    Message('note_on', channel=0, note=68, velocity=0, time=0),\n",
      "    Message('note_on', channel=0, note=73, velocity=0, time=0),\n",
      "    Message('note_on', channel=0, note=56, velocity=45, time=4),\n",
      "    Message('note_on', channel=0, note=65, velocity=31, time=4),\n",
      "    Message('note_on', channel=0, note=68, velocity=41, time=0),\n",
      "    Message('note_on', channel=0, note=73, velocity=37, time=1),\n",
      "    Message('note_on', channel=0, note=53, velocity=0, time=160),\n",
      "    Message('note_on', channel=0, note=61, velocity=0, time=0),\n",
      "    Message('note_on', channel=0, note=61, velocity=31, time=4),\n",
      "    Message('note_on', channel=0, note=53, velocity=27, time=5),\n",
      "    Message('note_on', channel=0, note=68, velocity=0, time=6),\n",
      "    Message('note_on', channel=0, note=65, velocity=0, time=8),\n",
      "    Message('note_on', channel=0, note=68, velocity=32, time=3),\n",
      "    Message('note_on', channel=0, note=65, velocity=27, time=2),\n",
      "    Message('note_on', channel=0, note=49, velocity=0, time=191),\n",
      "    Message('note_on', channel=0, note=37, velocity=0, time=0),\n",
      "    Message('note_on', channel=0, note=73, velocity=0, time=0),\n",
      "    Message('note_on', channel=0, note=68, velocity=0, time=0),\n",
      "    Message('note_on', channel=0, note=53, velocity=0, time=1),\n",
      "    Message('note_on', channel=0, note=61, velocity=0, time=0),\n",
      "    Message('note_on', channel=0, note=77, velocity=0, time=1),\n",
      "    Message('control_change', channel=0, control=64, value=0, time=0),\n",
      "    Message('note_on', channel=0, note=65, velocity=0, time=9),\n",
      "    Message('note_on', channel=0, note=65, velocity=29, time=5),\n",
      "    Message('note_on', channel=0, note=48, velocity=36, time=0),\n",
      "    Message('note_on', channel=0, note=67, velocity=36, time=1),\n",
      "    Message('note_on', channel=0, note=56, velocity=0, time=2),\n",
      "    Message('note_on', channel=0, note=36, velocity=36, time=3),\n",
      "    Message('control_change', channel=0, control=64, value=127, time=20),\n",
      "    Message('control_change', channel=0, control=64, value=0, time=262),\n",
      "    Message('note_on', channel=0, note=36, velocity=0, time=0),\n",
      "    Message('note_on', channel=0, note=48, velocity=0, time=2),\n",
      "    Message('note_on', channel=0, note=74, velocity=46, time=5),\n",
      "    Message('note_on', channel=0, note=65, velocity=0, time=7),\n",
      "    Message('note_on', channel=0, note=67, velocity=0, time=0),\n",
      "    Message('note_on', channel=0, note=65, velocity=27, time=5),\n",
      "    Message('note_on', channel=0, note=47, velocity=31, time=1),\n",
      "    Message('note_on', channel=0, note=35, velocity=37, time=2),\n",
      "    Message('note_on', channel=0, note=67, velocity=32, time=1),\n",
      "    Message('control_change', channel=0, control=64, value=127, time=45),\n",
      "    Message('note_on', channel=0, note=47, velocity=0, time=246),\n",
      "    Message('note_on', channel=0, note=65, velocity=0, time=0),\n",
      "    Message('note_on', channel=0, note=74, velocity=0, time=0),\n",
      "    Message('note_on', channel=0, note=74, velocity=43, time=4),\n",
      "    Message('note_on', channel=0, note=55, velocity=39, time=4),\n",
      "    Message('note_on', channel=0, note=65, velocity=35, time=2),\n",
      "    Message('note_on', channel=0, note=47, velocity=31, time=1),\n",
      "    Message('note_on', channel=0, note=67, velocity=0, time=4),\n",
      "    Message('note_on', channel=0, note=67, velocity=32, time=5),\n",
      "    Message('note_on', channel=0, note=65, velocity=0, time=179),\n",
      "    Message('note_on', channel=0, note=67, velocity=0, time=0),\n",
      "    Message('note_on', channel=0, note=74, velocity=0, time=0),\n",
      "    Message('note_on', channel=0, note=62, velocity=53, time=7),\n",
      "    Message('note_on', channel=0, note=67, velocity=42, time=0),\n",
      "    Message('note_on', channel=0, note=55, velocity=0, time=1),\n",
      "    Message('note_on', channel=0, note=74, velocity=49, time=2),\n",
      "    Message('note_on', channel=0, note=65, velocity=36, time=0),\n",
      "    Message('note_on', channel=0, note=55, velocity=37, time=2),\n",
      "    Message('note_on', channel=0, note=67, velocity=0, time=165),\n",
      "    Message('note_on', channel=0, note=65, velocity=0, time=8),\n",
      "    Message('note_on', channel=0, note=67, velocity=58, time=1),\n",
      "    Message('note_on', channel=0, note=35, velocity=0, time=6),\n",
      "    Message('note_on', channel=0, note=47, velocity=0, time=0),\n",
      "    Message('note_on', channel=0, note=62, velocity=0, time=0),\n",
      "    Message('note_on', channel=0, note=65, velocity=49, time=4),\n",
      "    Message('note_on', channel=0, note=47, velocity=35, time=0),\n",
      "    Message('note_on', channel=0, note=62, velocity=44, time=1),\n",
      "    Message('note_on', channel=0, note=35, velocity=34, time=1),\n",
      "    Message('note_on', channel=0, note=55, velocity=0, time=140),\n",
      "    Message('note_on', channel=0, note=55, velocity=45, time=11),\n",
      "    Message('note_on', channel=0, note=62, velocity=0, time=20),\n",
      "    Message('note_on', channel=0, note=65, velocity=0, time=0),\n",
      "    Message('note_on', channel=0, note=67, velocity=0, time=0),\n",
      "    Message('note_on', channel=0, note=67, velocity=41, time=8),\n",
      "    Message('note_on', channel=0, note=62, velocity=40, time=2),\n",
      "    Message('note_on', channel=0, note=65, velocity=39, time=1),\n",
      "    Message('note_on', channel=0, note=35, velocity=0, time=196),\n",
      "    Message('note_on', channel=0, note=65, velocity=0, time=0),\n",
      "    Message('note_on', channel=0, note=65, velocity=40, time=5),\n",
      "    Message('note_on', channel=0, note=62, velocity=0, time=3),\n",
      "    Message('note_on', channel=0, note=35, velocity=46, time=3),\n",
      "    Message('note_on', channel=0, note=62, velocity=39, time=2),\n",
      "    Message('note_on', channel=0, note=55, velocity=0, time=3),\n",
      "    Message('note_on', channel=0, note=55, velocity=36, time=5),\n",
      "    Message('note_on', channel=0, note=68, velocity=63, time=220),\n",
      "    Message('note_on', channel=0, note=47, velocity=0, time=4),\n",
      "    Message('note_on', channel=0, note=74, velocity=0, time=0),\n",
      "    Message('note_on', channel=0, note=35, velocity=0, time=0),\n",
      "    Message('note_on', channel=0, note=67, velocity=0, time=0),\n",
      "    Message('note_on', channel=0, note=55, velocity=0, time=1),\n",
      "    Message('note_on', channel=0, note=65, velocity=0, time=1),\n",
      "    Message('note_on', channel=0, note=62, velocity=0, time=0),\n",
      "    Message('control_change', channel=0, control=64, value=0, time=3),\n",
      "    Message('note_on', channel=0, note=63, velocity=48, time=10),\n",
      "    Message('note_on', channel=0, note=36, velocity=36, time=2),\n",
      "    Message('note_on', channel=0, note=48, velocity=34, time=3),\n",
      "    Message('note_on', channel=0, note=36, velocity=0, time=73),\n",
      "    Message('control_change', channel=0, control=64, value=127, time=0),\n",
      "    Message('note_on', channel=0, note=63, velocity=0, time=162),\n",
      "    Message('note_on', channel=0, note=67, velocity=63, time=6),\n",
      "    Message('note_on', channel=0, note=63, velocity=54, time=5),\n",
      "    Message('note_on', channel=0, note=48, velocity=0, time=12),\n",
      "    Message('note_on', channel=0, note=48, velocity=25, time=7),\n",
      "    Message('note_on', channel=0, note=36, velocity=26, time=16),\n",
      "    Message('note_on', channel=0, note=55, velocity=27, time=0),\n",
      "    Message('note_on', channel=0, note=71, velocity=68, time=142),\n",
      "    Message('note_on', channel=0, note=63, velocity=0, time=4),\n",
      "    Message('note_on', channel=0, note=67, velocity=0, time=0),\n",
      "    Message('note_on', channel=0, note=67, velocity=57, time=4),\n",
      "    Message('note_on', channel=0, note=63, velocity=58, time=1),\n",
      "    Message('note_on', channel=0, note=48, velocity=0, time=87),\n",
      "    Message('note_on', channel=0, note=55, velocity=0, time=7),\n",
      "    Message('note_on', channel=0, note=60, velocity=47, time=2),\n",
      "    Message('note_on', channel=0, note=48, velocity=41, time=2),\n",
      "    Message('note_on', channel=0, note=55, velocity=32, time=6),\n",
      "    Message('note_on', channel=0, note=36, velocity=0, time=13),\n",
      "    Message('note_on', channel=0, note=72, velocity=83, time=20),\n",
      "    Message('note_on', channel=0, note=63, velocity=0, time=3),\n",
      "    Message('note_on', channel=0, note=67, velocity=0, time=0),\n",
      "    Message('note_on', channel=0, note=63, velocity=69, time=6),\n",
      "    Message('note_on', channel=0, note=67, velocity=47, time=5),\n",
      "    Message('note_on', channel=0, note=48, velocity=0, time=143),\n",
      "    Message('note_on', channel=0, note=72, velocity=0, time=0),\n",
      "    Message('note_on', channel=0, note=74, velocity=75, time=5),\n",
      "    Message('note_on', channel=0, note=55, velocity=0, time=3),\n",
      "    Message('note_on', channel=0, note=67, velocity=0, time=0),\n",
      "    Message('note_on', channel=0, note=48, velocity=40, time=2),\n",
      "    Message('note_on', channel=0, note=72, velocity=66, time=1),\n",
      "    Message('note_on', channel=0, note=67, velocity=64, time=2),\n",
      "    Message('note_on', channel=0, note=55, velocity=48, time=1),\n",
      "    Message('note_on', channel=0, note=67, velocity=0, time=155),\n",
      "    Message('note_on', channel=0, note=72, velocity=0, time=0),\n",
      "    Message('note_on', channel=0, note=75, velocity=79, time=3),\n",
      "    Message('note_on', channel=0, note=67, velocity=60, time=2),\n",
      "    Message('note_on', channel=0, note=72, velocity=56, time=2),\n",
      "    Message('note_on', channel=0, note=55, velocity=0, time=16),\n",
      "    Message('note_on', channel=0, note=55, velocity=39, time=8),\n",
      "    Message('note_on', channel=0, note=63, velocity=0, time=53),\n",
      "    Message('note_on', channel=0, note=63, velocity=48, time=7),\n",
      "    Message('note_on', channel=0, note=51, velocity=31, time=49),\n",
      "    Message('note_on', channel=0, note=84, velocity=70, time=36),\n",
      "    Message('note_on', channel=0, note=75, velocity=0, time=8),\n",
      "    Message('note_on', channel=0, note=72, velocity=0, time=8),\n",
      "    Message('note_on', channel=0, note=75, velocity=52, time=3),\n",
      "    Message('note_on', channel=0, note=72, velocity=57, time=1),\n",
      "    Message('note_on', channel=0, note=48, velocity=0, time=134),\n",
      "    Message('note_on', channel=0, note=48, velocity=31, time=5),\n",
      "    Message('note_on', channel=0, note=75, velocity=0, time=34),\n",
      "    Message('note_on', channel=0, note=67, velocity=0, time=7),\n",
      "    Message('note_on', channel=0, note=72, velocity=0, time=0),\n",
      "    Message('note_on', channel=0, note=80, velocity=70, time=3),\n",
      "    Message('note_on', channel=0, note=75, velocity=61, time=0),\n",
      "    Message('note_on', channel=0, note=72, velocity=57, time=2),\n",
      "    Message('note_on', channel=0, note=67, velocity=42, time=6),\n",
      "    Message('note_on', channel=0, note=48, velocity=0, time=191),\n",
      "    Message('note_on', channel=0, note=51, velocity=0, time=0),\n",
      "    Message('note_on', channel=0, note=63, velocity=0, time=0),\n",
      "    Message('note_on', channel=0, note=74, velocity=0, time=0),\n",
      "    Message('note_on', channel=0, note=60, velocity=0, time=0),\n",
      "    Message('note_on', channel=0, note=75, velocity=0, time=1),\n",
      "    Message('note_on', channel=0, note=55, velocity=0, time=0),\n",
      "    Message('control_change', channel=0, control=64, value=0, time=0),\n",
      "    Message('note_on', channel=0, note=72, velocity=0, time=0),\n",
      "    Message('note_on', channel=0, note=80, velocity=0, time=0),\n",
      "    Message('note_on', channel=0, note=84, velocity=0, time=1),\n",
      "    Message('note_on', channel=0, note=68, velocity=0, time=4),\n",
      "    Message('note_on', channel=0, note=79, velocity=66, time=3),\n",
      "    Message('note_on', channel=0, note=71, velocity=0, time=12),\n",
      "    Message('note_on', channel=0, note=67, velocity=0, time=8),\n",
      "    Message('note_on', channel=0, note=71, velocity=43, time=3),\n",
      "    Message('note_on', channel=0, note=65, velocity=40, time=1),\n",
      "    Message('note_on', channel=0, note=67, velocity=38, time=1),\n",
      "    Message('note_on', channel=0, note=50, velocity=37, time=4),\n",
      "    Message('note_on', channel=0, note=74, velocity=31, time=1),\n",
      "    Message('control_change', channel=0, control=64, value=127, time=67),\n",
      "    Message('note_on', channel=0, note=50, velocity=0, time=207),\n",
      "    Message('note_on', channel=0, note=71, velocity=0, time=8),\n",
      "    Message('note_on', channel=0, note=55, velocity=42, time=2),\n",
      "    Message('note_on', channel=0, note=50, velocity=28, time=1),\n",
      "    Message('note_on', channel=0, note=65, velocity=0, time=4),\n",
      "    Message('note_on', channel=0, note=67, velocity=0, time=0),\n",
      "    Message('note_on', channel=0, note=71, velocity=42, time=2),\n",
      "    Message('note_on', channel=0, note=67, velocity=39, time=4),\n",
      "    Message('note_on', channel=0, note=65, velocity=27, time=2),\n",
      "    Message('note_on', channel=0, note=71, velocity=0, time=161),\n",
      "    Message('note_on', channel=0, note=55, velocity=0, time=8),\n",
      "    Message('note_on', channel=0, note=67, velocity=0, time=0),\n",
      "    Message('note_on', channel=0, note=71, velocity=47, time=1),\n",
      "    Message('note_on', channel=0, note=62, velocity=40, time=2),\n",
      "    Message('note_on', channel=0, note=55, velocity=36, time=1),\n",
      "    Message('note_on', channel=0, note=65, velocity=0, time=4),\n",
      "    Message('note_on', channel=0, note=67, velocity=39, time=1),\n",
      "    Message('note_on', channel=0, note=65, velocity=32, time=5),\n",
      "    Message('note_on', channel=0, note=71, velocity=0, time=139),\n",
      "    Message('note_on', channel=0, note=71, velocity=47, time=6),\n",
      "    Message('note_on', channel=0, note=65, velocity=0, time=10),\n",
      "    Message('note_on', channel=0, note=65, velocity=35, time=4),\n",
      "    Message('note_on', channel=0, note=50, velocity=0, time=4),\n",
      "    Message('note_on', channel=0, note=55, velocity=0, time=0),\n",
      "    Message('note_on', channel=0, note=67, velocity=0, time=0),\n",
      "    Message('note_on', channel=0, note=67, velocity=38, time=5),\n",
      "    Message('note_on', channel=0, note=50, velocity=29, time=4),\n",
      "    Message('note_on', channel=0, note=55, velocity=35, time=1),\n",
      "    Message('note_on', channel=0, note=73, velocity=57, time=218),\n",
      "    Message('note_on', channel=0, note=71, velocity=0, time=2),\n",
      "    Message('note_on', channel=0, note=71, velocity=45, time=4),\n",
      "    Message('note_on', channel=0, note=67, velocity=0, time=11),\n",
      "    Message('note_on', channel=0, note=67, velocity=38, time=6),\n",
      "    Message('note_on', channel=0, note=62, velocity=0, time=63),\n",
      "    Message('note_on', channel=0, note=55, velocity=0, time=8),\n",
      "    Message('note_on', channel=0, note=62, velocity=37, time=4),\n",
      "    Message('note_on', channel=0, note=55, velocity=31, time=6),\n",
      "    Message('note_on', channel=0, note=74, velocity=0, time=28),\n",
      "    Message('note_on', channel=0, note=71, velocity=0, time=8),\n",
      "    Message('note_on', channel=0, note=74, velocity=60, time=3),\n",
      "    Message('note_on', channel=0, note=71, velocity=39, time=4),\n",
      "    Message('note_on', channel=0, note=65, velocity=0, time=1),\n",
      "    Message('note_on', channel=0, note=67, velocity=0, time=8),\n",
      "    Message('note_on', channel=0, note=65, velocity=28, time=2),\n",
      "    Message('note_on', channel=0, note=67, velocity=34, time=2),\n",
      "    Message('note_on', channel=0, note=79, velocity=0, time=126),\n",
      "    Message('note_on', channel=0, note=71, velocity=0, time=8),\n",
      "    Message('note_on', channel=0, note=79, velocity=64, time=3),\n",
      "    Message('note_on', channel=0, note=65, velocity=0, time=4),\n",
      "    Message('note_on', channel=0, note=71, velocity=49, time=3),\n",
      "    Message('note_on', channel=0, note=67, velocity=0, time=5),\n",
      "    Message('note_on', channel=0, note=65, velocity=32, time=4),\n",
      "    Message('note_on', channel=0, note=67, velocity=40, time=1),\n",
      "    Message('note_on', channel=0, note=50, velocity=0, time=80),\n",
      "    Message('note_on', channel=0, note=50, velocity=35, time=11),\n",
      "    Message('note_on', channel=0, note=38, velocity=36, time=4),\n",
      "    Message('note_on', channel=0, note=67, velocity=0, time=38),\n",
      "    Message('note_on', channel=0, note=71, velocity=0, time=0),\n",
      "    Message('note_on', channel=0, note=77, velocity=60, time=7),\n",
      "    Message('note_on', channel=0, note=67, velocity=38, time=2),\n",
      "    Message('note_on', channel=0, note=71, velocity=54, time=3),\n",
      "    Message('note_on', channel=0, note=65, velocity=0, time=19),\n",
      "    Message('note_on', channel=0, note=65, velocity=20, time=6),\n",
      "    Message('note_on', channel=0, note=71, velocity=0, time=109),\n",
      "    Message('note_on', channel=0, note=75, velocity=61, time=10),\n",
      "    Message('note_on', channel=0, note=71, velocity=50, time=0),\n",
      "    Message('note_on', channel=0, note=67, velocity=0, time=13),\n",
      "    Message('note_on', channel=0, note=67, velocity=25, time=5),\n",
      "    Message('note_on', channel=0, note=65, velocity=0, time=11),\n",
      "    Message('note_on', channel=0, note=65, velocity=14, time=9),\n",
      "    Message('note_on', channel=0, note=55, velocity=0, time=95),\n",
      "    Message('note_on', channel=0, note=38, velocity=0, time=1),\n",
      "    Message('note_on', channel=0, note=65, velocity=0, time=0),\n",
      "    Message('note_on', channel=0, note=71, velocity=0, time=0),\n",
      "    Message('note_on', channel=0, note=74, velocity=0, time=0),\n",
      "    Message('note_on', channel=0, note=73, velocity=0, time=0),\n",
      "    Message('note_on', channel=0, note=77, velocity=0, time=1),\n",
      "    Message('control_change', channel=0, control=64, value=0, time=2),\n",
      "    Message('note_on', channel=0, note=62, velocity=0, time=7),\n",
      "    Message('note_on', channel=0, note=75, velocity=0, time=0),\n",
      "    Message('note_on', channel=0, note=50, velocity=0, time=8),\n",
      "    Message('note_on', channel=0, note=79, velocity=0, time=0),\n",
      "    Message('note_on', channel=0, note=75, velocity=58, time=0),\n",
      "    Message('note_on', channel=0, note=67, velocity=0, time=15),\n",
      "    Message('note_on', channel=0, note=51, velocity=32, time=3),\n",
      "    Message('note_on', channel=0, note=67, velocity=32, time=2),\n",
      "    Message('note_on', channel=0, note=72, velocity=42, time=1),\n",
      "    Message('note_on', channel=0, note=39, velocity=36, time=5),\n",
      "    Message('control_change', channel=0, control=64, value=127, time=58),\n",
      "    Message('note_on', channel=0, note=39, velocity=0, time=26),\n",
      "    Message('note_on', channel=0, note=72, velocity=0, time=166),\n",
      "    Message('note_on', channel=0, note=72, velocity=41, time=4),\n",
      "    Message('note_on', channel=0, note=60, velocity=38, time=3),\n",
      "    Message('note_on', channel=0, note=51, velocity=0, time=1),\n",
      "    Message('note_on', channel=0, note=67, velocity=0, time=0),\n",
      "    Message('note_on', channel=0, note=63, velocity=28, time=3),\n",
      "    Message('note_on', channel=0, note=67, velocity=38, time=2),\n",
      "    Message('note_on', channel=0, note=51, velocity=30, time=4),\n",
      "    Message('note_on', channel=0, note=63, velocity=0, time=152),\n",
      "    Message('note_on', channel=0, note=63, velocity=41, time=5),\n",
      "    Message('note_on', channel=0, note=60, velocity=0, time=3),\n",
      "    Message('note_on', channel=0, note=67, velocity=0, time=0),\n",
      "    Message('note_on', channel=0, note=72, velocity=0, time=0),\n",
      "    Message('note_on', channel=0, note=72, velocity=43, time=4),\n",
      "    Message('note_on', channel=0, note=67, velocity=33, time=4),\n",
      "    Message('note_on', channel=0, note=60, velocity=28, time=2),\n",
      "    Message('note_on', channel=0, note=55, velocity=30, time=4),\n",
      "    Message('note_on', channel=0, note=60, velocity=0, time=147),\n",
      "    Message('note_on', channel=0, note=67, velocity=0, time=0),\n",
      "    Message('note_on', channel=0, note=72, velocity=0, time=0),\n",
      "    Message('note_on', channel=0, note=60, velocity=39, time=5),\n",
      "    Message('note_on', channel=0, note=72, velocity=44, time=0),\n",
      "    Message('note_on', channel=0, note=67, velocity=36, time=1),\n",
      "    Message('note_on', channel=0, note=51, velocity=0, time=9),\n",
      "    Message('note_on', channel=0, note=51, velocity=26, time=9),\n",
      "    Message('note_on', channel=0, note=63, velocity=0, time=160),\n",
      "    Message('note_on', channel=0, note=55, velocity=0, time=8),\n",
      "    Message('note_on', channel=0, note=67, velocity=0, time=0),\n",
      "    Message('note_on', channel=0, note=72, velocity=0, time=0),\n",
      "    Message('note_on', channel=0, note=63, velocity=31, time=4),\n",
      "    Message('note_on', channel=0, note=60, velocity=0, time=4),\n",
      "    Message('note_on', channel=0, note=67, velocity=33, time=2),\n",
      "    Message('note_on', channel=0, note=72, velocity=34, time=1),\n",
      "    Message('note_on', channel=0, note=55, velocity=26, time=0),\n",
      "    Message('note_on', channel=0, note=60, velocity=22, time=6),\n",
      "    Message('note_on', channel=0, note=72, velocity=0, time=206),\n",
      "    Message('note_on', channel=0, note=72, velocity=42, time=6),\n",
      "    Message('note_on', channel=0, note=51, velocity=0, time=1),\n",
      "    Message('note_on', channel=0, note=67, velocity=0, time=0),\n",
      "    Message('note_on', channel=0, note=51, velocity=37, time=8),\n",
      "    Message('note_on', channel=0, note=63, velocity=0, time=0),\n",
      "    Message('note_on', channel=0, note=55, velocity=0, time=0),\n",
      "    Message('note_on', channel=0, note=67, velocity=34, time=3),\n",
      "    Message('note_on', channel=0, note=63, velocity=31, time=2),\n",
      "    Message('note_on', channel=0, note=39, velocity=31, time=1),\n",
      "    Message('note_on', channel=0, note=63, velocity=0, time=200),\n",
      "    Message('note_on', channel=0, note=51, velocity=0, time=0),\n",
      "    Message('note_on', channel=0, note=67, velocity=0, time=0),\n",
      "    Message('note_on', channel=0, note=72, velocity=0, time=1),\n",
      "    Message('note_on', channel=0, note=75, velocity=0, time=1),\n",
      "    Message('note_on', channel=0, note=39, velocity=0, time=0),\n",
      "    Message('control_change', channel=0, control=64, value=0, time=2),\n",
      "    Message('note_on', channel=0, note=60, velocity=0, time=13),\n",
      "    Message('note_on', channel=0, note=68, velocity=40, time=12),\n",
      "    Message('note_on', channel=0, note=62, velocity=37, time=8),\n",
      "    Message('note_on', channel=0, note=41, velocity=25, time=7),\n",
      "    Message('note_on', channel=0, note=53, velocity=17, time=2),\n",
      "    Message('control_change', channel=0, control=64, value=127, time=40),\n",
      "    Message('note_on', channel=0, note=62, velocity=0, time=215),\n",
      "    Message('note_on', channel=0, note=62, velocity=31, time=8),\n",
      "    Message('note_on', channel=0, note=53, velocity=0, time=7),\n",
      "    Message('note_on', channel=0, note=68, velocity=0, time=0),\n",
      "    Message('note_on', channel=0, note=59, velocity=41, time=4),\n",
      "    Message('note_on', channel=0, note=53, velocity=34, time=1),\n",
      "    Message('note_on', channel=0, note=68, velocity=42, time=0),\n",
      "    Message('note_on', channel=0, note=62, velocity=0, time=180),\n",
      "    Message('note_on', channel=0, note=68, velocity=0, time=0),\n",
      "    Message('note_on', channel=0, note=68, velocity=39, time=4),\n",
      "    Message('note_on', channel=0, note=62, velocity=37, time=7),\n",
      "    Message('note_on', channel=0, note=65, velocity=31, time=0),\n",
      "    Message('note_on', channel=0, note=59, velocity=0, time=12),\n",
      "    Message('note_on', channel=0, note=59, velocity=24, time=5),\n",
      "    Message('note_on', channel=0, note=71, velocity=61, time=189),\n",
      "    Message('note_on', channel=0, note=62, velocity=0, time=5),\n",
      "    Message('note_on', channel=0, note=62, velocity=45, time=4),\n",
      "    Message('note_on', channel=0, note=53, velocity=0, time=4),\n",
      "    Message('note_on', channel=0, note=68, velocity=0, time=0),\n",
      "    Message('note_on', channel=0, note=59, velocity=0, time=8),\n",
      "    Message('note_on', channel=0, note=68, velocity=41, time=2),\n",
      "    Message('note_on', channel=0, note=53, velocity=25, time=0),\n",
      "    Message('note_on', channel=0, note=59, velocity=30, time=2),\n",
      "    Message('note_on', channel=0, note=62, velocity=0, time=165),\n",
      "    Message('note_on', channel=0, note=53, velocity=0, time=7),\n",
      "    Message('note_on', channel=0, note=59, velocity=0, time=0),\n",
      "    Message('note_on', channel=0, note=68, velocity=0, time=0),\n",
      "    Message('note_on', channel=0, note=62, velocity=39, time=4),\n",
      "    Message('note_on', channel=0, note=65, velocity=0, time=1),\n",
      "    Message('note_on', channel=0, note=59, velocity=31, time=2),\n",
      "    Message('note_on', channel=0, note=68, velocity=35, time=1),\n",
      "    Message('note_on', channel=0, note=53, velocity=23, time=1),\n",
      "    Message('note_on', channel=0, note=62, velocity=0, time=168),\n",
      "    Message('note_on', channel=0, note=68, velocity=0, time=0),\n",
      "    Message('note_on', channel=0, note=68, velocity=44, time=7),\n",
      "    Message('note_on', channel=0, note=53, velocity=0, time=1),\n",
      "    Message('note_on', channel=0, note=62, velocity=45, time=2),\n",
      "    Message('note_on', channel=0, note=53, velocity=27, time=2),\n",
      "    Message('note_on', channel=0, note=41, velocity=0, time=188),\n",
      "    Message('note_on', channel=0, note=59, velocity=0, time=2),\n",
      "    Message('note_on', channel=0, note=68, velocity=0, time=0),\n",
      "    Message('note_on', channel=0, note=53, velocity=0, time=1),\n",
      "    Message('note_on', channel=0, note=62, velocity=0, time=0),\n",
      "    Message('control_change', channel=0, control=64, value=0, time=1),\n",
      "    Message('note_on', channel=0, note=51, velocity=40, time=14),\n",
      "    Message('note_on', channel=0, note=67, velocity=31, time=2),\n",
      "    Message('note_on', channel=0, note=63, velocity=34, time=3),\n",
      "    Message('note_on', channel=0, note=39, velocity=34, time=4),\n",
      "    Message('note_on', channel=0, note=71, velocity=0, time=3),\n",
      "    Message('note_on', channel=0, note=39, velocity=0, time=66),\n",
      "    Message('control_change', channel=0, control=64, value=127, time=27),\n",
      "    Message('note_on', channel=0, note=63, velocity=0, time=115),\n",
      "    Message('note_on', channel=0, note=67, velocity=0, time=0),\n",
      "    Message('note_on', channel=0, note=67, velocity=38, time=5),\n",
      "    Message('note_on', channel=0, note=63, velocity=42, time=0),\n",
      "    Message('note_on', channel=0, note=55, velocity=32, time=12),\n",
      "    Message('note_on', channel=0, note=72, velocity=67, time=135),\n",
      "    Message('note_on', channel=0, note=63, velocity=0, time=24),\n",
      "    Message('note_on', channel=0, note=63, velocity=36, time=4),\n",
      "    Message('note_on', channel=0, note=67, velocity=0, time=12),\n",
      "    Message('note_on', channel=0, note=67, velocity=32, time=4),\n",
      "    Message('note_on', channel=0, note=55, velocity=0, time=3),\n",
      "    Message('note_on', channel=0, note=55, velocity=31, time=7),\n",
      "    Message('note_on', channel=0, note=60, velocity=26, time=12),\n",
      "    Message('note_on', channel=0, note=48, velocity=27, time=192),\n",
      "    Message('note_on', channel=0, note=74, velocity=68, time=2),\n",
      "    Message('note_on', channel=0, note=55, velocity=0, time=18),\n",
      "    Message('note_on', channel=0, note=55, velocity=32, time=6),\n",
      "    Message('note_on', channel=0, note=63, velocity=0, time=1),\n",
      "    Message('note_on', channel=0, note=67, velocity=0, time=0),\n",
      "    Message('note_on', channel=0, note=63, velocity=45, time=6),\n",
      "    Message('note_on', channel=0, note=67, velocity=35, time=0),\n",
      "    Message('note_on', channel=0, note=63, velocity=0, time=186),\n",
      "    Message('note_on', channel=0, note=55, velocity=0, time=8),\n",
      "    Message('note_on', channel=0, note=67, velocity=0, time=0),\n",
      "    Message('note_on', channel=0, note=63, velocity=48, time=2),\n",
      "    Message('note_on', channel=0, note=60, velocity=0, time=3),\n",
      "    Message('note_on', channel=0, note=67, velocity=36, time=1),\n",
      "    Message('note_on', channel=0, note=55, velocity=29, time=4),\n",
      "    Message('note_on', channel=0, note=75, velocity=65, time=159),\n",
      "    Message('note_on', channel=0, note=63, velocity=0, time=23),\n",
      "    Message('note_on', channel=0, note=63, velocity=25, time=9),\n",
      "    Message('note_on', channel=0, note=48, velocity=0, time=7),\n",
      "    Message('note_on', channel=0, note=67, velocity=0, time=0),\n",
      "    Message('note_on', channel=0, note=67, velocity=17, time=5),\n",
      "    Message('note_on', channel=0, note=36, velocity=29, time=0),\n",
      "    Message('note_on', channel=0, note=48, velocity=28, time=5),\n",
      "    Message('note_on', channel=0, note=48, velocity=0, time=201),\n",
      "    Message('note_on', channel=0, note=63, velocity=0, time=1),\n",
      "    Message('note_on', channel=0, note=74, velocity=0, time=0),\n",
      "    Message('note_on', channel=0, note=72, velocity=0, time=0),\n",
      "    Message('control_change', channel=0, control=64, value=0, time=1),\n",
      "    Message('note_on', channel=0, note=55, velocity=0, time=0),\n",
      "    Message('note_on', channel=0, note=51, velocity=0, time=9),\n",
      "    Message('note_on', channel=0, note=36, velocity=0, time=23),\n",
      "    Message('note_on', channel=0, note=67, velocity=0, time=8),\n",
      "    Message('note_on', channel=0, note=67, velocity=36, time=10),\n",
      "    Message('note_on', channel=0, note=35, velocity=43, time=2),\n",
      "    Message('note_on', channel=0, note=65, velocity=31, time=7),\n",
      "    Message('note_on', channel=0, note=47, velocity=31, time=0),\n",
      "    Message('control_change', channel=0, control=64, value=127, time=42),\n",
      "    Message('note_on', channel=0, note=65, velocity=0, time=185),\n",
      "    Message('note_on', channel=0, note=67, velocity=0, time=0),\n",
      "    Message('note_on', channel=0, note=65, velocity=36, time=4),\n",
      "    Message('note_on', channel=0, note=67, velocity=38, time=0),\n",
      "    Message('note_on', channel=0, note=55, velocity=41, time=1),\n",
      "    Message('note_on', channel=0, note=67, velocity=0, time=156),\n",
      "    Message('note_on', channel=0, note=55, velocity=0, time=8),\n",
      "    Message('note_on', channel=0, note=65, velocity=0, time=0),\n",
      "    Message('note_on', channel=0, note=67, velocity=46, time=3),\n",
      "    Message('note_on', channel=0, note=62, velocity=47, time=1),\n",
      "    Message('note_on', channel=0, note=65, velocity=41, time=1),\n",
      "    Message('note_on', channel=0, note=55, velocity=39, time=0),\n",
      "    Message('note_on', channel=0, note=74, velocity=79, time=191),\n",
      "    Message('note_on', channel=0, note=62, velocity=0, time=34),\n",
      "    Message('note_on', channel=0, note=65, velocity=0, time=8),\n",
      "    Message('note_on', channel=0, note=67, velocity=0, time=0),\n",
      "    Message('note_on', channel=0, note=62, velocity=13, time=4),\n",
      "    Message('note_on', channel=0, note=65, velocity=24, time=0),\n",
      "    Message('note_on', channel=0, note=67, velocity=32, time=2),\n",
      "    Message('note_on', channel=0, note=65, velocity=0, time=155),\n",
      "    Message('note_on', channel=0, note=67, velocity=0, time=0),\n",
      "    Message('note_on', channel=0, note=65, velocity=47, time=5),\n",
      "    Message('note_on', channel=0, note=55, velocity=0, time=3),\n",
      "    Message('note_on', channel=0, note=62, velocity=0, time=0),\n",
      "    Message('note_on', channel=0, note=67, velocity=46, time=3),\n",
      "    Message('note_on', channel=0, note=55, velocity=38, time=1),\n",
      "    Message('note_on', channel=0, note=62, velocity=28, time=1),\n",
      "    Message('note_on', channel=0, note=47, velocity=0, time=171),\n",
      "    Message('note_on', channel=0, note=67, velocity=0, time=0),\n",
      "    Message('note_on', channel=0, note=35, velocity=0, time=8),\n",
      "    Message('note_on', channel=0, note=62, velocity=0, time=0),\n",
      "    Message('note_on', channel=0, note=65, velocity=0, time=0),\n",
      "    Message('note_on', channel=0, note=67, velocity=42, time=1),\n",
      "    Message('note_on', channel=0, note=47, velocity=41, time=2),\n",
      "    Message('note_on', channel=0, note=35, velocity=45, time=4),\n",
      "    Message('note_on', channel=0, note=65, velocity=33, time=0),\n",
      "    Message('note_on', channel=0, note=55, velocity=0, time=1),\n",
      "    Message('note_on', channel=0, note=62, velocity=30, time=4),\n",
      "    Message('note_on', channel=0, note=55, velocity=37, time=7),\n",
      "    Message('note_on', channel=0, note=35, velocity=0, time=169),\n",
      "    Message('note_on', channel=0, note=55, velocity=0, time=1),\n",
      "    Message('note_on', channel=0, note=47, velocity=0, time=0),\n",
      "    Message('note_on', channel=0, note=62, velocity=0, time=1),\n",
      "    Message('note_on', channel=0, note=65, velocity=0, time=1),\n",
      "    Message('control_change', channel=0, control=64, value=0, time=2),\n",
      "    Message('note_on', channel=0, note=67, velocity=0, time=14),\n",
      "    Message('note_on', channel=0, note=67, velocity=43, time=8),\n",
      "    Message('note_on', channel=0, note=63, velocity=45, time=2),\n",
      "    Message('note_on', channel=0, note=60, velocity=26, time=13),\n",
      "    Message('note_on', channel=0, note=48, velocity=35, time=5),\n",
      "    Message('note_on', channel=0, note=36, velocity=36, time=0),\n",
      "    Message('note_on', channel=0, note=60, velocity=0, time=3),\n",
      "    Message('note_on', channel=0, note=36, velocity=0, time=37),\n",
      "    Message('control_change', channel=0, control=64, value=127, time=9),\n",
      "    Message('note_on', channel=0, note=63, velocity=0, time=131),\n",
      "    Message('note_on', channel=0, note=67, velocity=0, time=0),\n",
      "    Message('note_on', channel=0, note=63, velocity=45, time=6),\n",
      "    Message('note_on', channel=0, note=67, velocity=40, time=1),\n",
      "    Message('note_on', channel=0, note=60, velocity=18, time=53),\n",
      "    Message('note_on', channel=0, note=55, velocity=24, time=5),\n",
      "    Message('note_on', channel=0, note=75, velocity=0, time=81),\n",
      "    Message('note_on', channel=0, note=75, velocity=79, time=7),\n",
      "    Message('note_on', channel=0, note=67, velocity=0, time=8),\n",
      "    Message('note_on', channel=0, note=67, velocity=47, time=9),\n",
      "    Message('note_on', channel=0, note=72, velocity=62, time=2),\n",
      "    Message('note_on', channel=0, note=55, velocity=0, time=74),\n",
      "    Message('note_on', channel=0, note=63, velocity=0, time=0),\n",
      "    Message('note_on', channel=0, note=63, velocity=31, time=4),\n",
      "    Message('note_on', channel=0, note=55, velocity=26, time=6),\n",
      "    Message('note_on', channel=0, note=77, velocity=77, time=185),\n",
      "    Message('note_on', channel=0, note=48, velocity=0, time=20),\n",
      "    Message('note_on', channel=0, note=72, velocity=0, time=0),\n",
      "    Message('note_on', channel=0, note=55, velocity=0, time=7),\n",
      "    Message('note_on', channel=0, note=67, velocity=0, time=0),\n",
      "    Message('note_on', channel=0, note=48, velocity=35, time=3),\n",
      "    Message('note_on', channel=0, note=72, velocity=52, time=1),\n",
      "    Message('note_on', channel=0, note=67, velocity=42, time=6),\n",
      "    Message('note_on', channel=0, note=55, velocity=42, time=2),\n",
      "    Message('note_on', channel=0, note=72, velocity=0, time=165),\n",
      "    Message('note_on', channel=0, note=63, velocity=0, time=8),\n",
      "    Message('note_on', channel=0, note=72, velocity=51, time=3),\n",
      "    Message('note_on', channel=0, note=60, velocity=0, time=4),\n",
      "    Message('note_on', channel=0, note=67, velocity=0, time=0),\n",
      "    Message('note_on', channel=0, note=63, velocity=43, time=3),\n",
      "    Message('note_on', channel=0, note=48, velocity=0, time=5),\n",
      "    Message('note_on', channel=0, note=67, velocity=36, time=3),\n",
      "    Message('note_on', channel=0, note=60, velocity=29, time=0),\n",
      "    Message('note_on', channel=0, note=51, velocity=42, time=0),\n",
      "    Message('note_on', channel=0, note=48, velocity=29, time=4),\n",
      "    Message('note_on', channel=0, note=72, velocity=0, time=116),\n",
      "    Message('note_on', channel=0, note=79, velocity=80, time=2),\n",
      "    Message('note_on', channel=0, note=72, velocity=52, time=8),\n",
      "    Message('note_on', channel=0, note=67, velocity=0, time=5),\n",
      "    Message('note_on', channel=0, note=75, velocity=0, time=0),\n",
      "    Message('note_on', channel=0, note=75, velocity=43, time=4),\n",
      "    Message('note_on', channel=0, note=67, velocity=49, time=7),\n",
      "    Message('note_on', channel=0, note=48, velocity=0, time=97),\n",
      "    Message('note_on', channel=0, note=48, velocity=44, time=4),\n",
      "    Message('note_on', channel=0, note=36, velocity=40, time=3),\n",
      "    Message('note_on', channel=0, note=79, velocity=0, time=54),\n",
      "    Message('note_on', channel=0, note=67, velocity=0, time=8),\n",
      "    Message('note_on', channel=0, note=79, velocity=52, time=2),\n",
      "    Message('note_on', channel=0, note=67, velocity=43, time=4),\n",
      "    Message('note_on', channel=0, note=79, velocity=0, time=193),\n",
      "    Message('note_on', channel=0, note=79, velocity=76, time=6),\n",
      "    Message('note_on', channel=0, note=75, velocity=0, time=2),\n",
      "    Message('note_on', channel=0, note=72, velocity=0, time=8),\n",
      "    Message('note_on', channel=0, note=75, velocity=61, time=3),\n",
      "    Message('note_on', channel=0, note=72, velocity=58, time=1),\n",
      "    Message('note_on', channel=0, note=68, velocity=52, time=9),\n",
      "    Message('control_change', channel=0, control=64, value=0, time=0),\n",
      "    Message('note_on', channel=0, note=74, velocity=0, time=2),\n",
      "    Message('note_on', channel=0, note=51, velocity=0, time=1),\n",
      "    Message('note_on', channel=0, note=67, velocity=0, time=2),\n",
      "    Message('note_on', channel=0, note=55, velocity=0, time=0),\n",
      "    Message('note_on', channel=0, note=63, velocity=0, time=1),\n",
      "    Message('note_on', channel=0, note=77, velocity=0, time=0),\n",
      "    Message('note_on', channel=0, note=48, velocity=0, time=0),\n",
      "    Message('note_on', channel=0, note=41, velocity=48, time=1),\n",
      "    Message('note_on', channel=0, note=29, velocity=52, time=5),\n",
      "    Message('note_on', channel=0, note=36, velocity=0, time=13),\n",
      "    Message('note_on', channel=0, note=60, velocity=0, time=0),\n",
      "    Message('note_on', channel=0, note=29, velocity=0, time=34),\n",
      "    Message('note_on', channel=0, note=41, velocity=0, time=0),\n",
      "    Message('control_change', channel=0, control=64, value=127, time=20),\n",
      "    Message('note_on', channel=0, note=68, velocity=0, time=184),\n",
      "    Message('note_on', channel=0, note=72, velocity=0, time=0),\n",
      "    Message('note_on', channel=0, note=75, velocity=0, time=0),\n",
      "    Message('note_on', channel=0, note=68, velocity=51, time=5),\n",
      "    Message('note_on', channel=0, note=72, velocity=50, time=6),\n",
      "    Message('note_on', channel=0, note=75, velocity=54, time=0),\n",
      "    Message('note_on', channel=0, note=60, velocity=41, time=30),\n",
      "    Message('note_on', channel=0, note=53, velocity=41, time=5),\n",
      "    Message('note_on', channel=0, note=77, velocity=88, time=81),\n",
      "    Message('note_on', channel=0, note=68, velocity=0, time=19),\n",
      "    Message('note_on', channel=0, note=72, velocity=0, time=0),\n",
      "    Message('note_on', channel=0, note=72, velocity=52, time=5),\n",
      "    Message('note_on', channel=0, note=75, velocity=0, time=3),\n",
      "    Message('note_on', channel=0, note=68, velocity=63, time=3),\n",
      "    Message('note_on', channel=0, note=75, velocity=52, time=2),\n",
      "    Message('note_on', channel=0, note=63, velocity=57, time=91),\n",
      "    Message('note_on', channel=0, note=56, velocity=53, time=9),\n",
      "    Message('note_on', channel=0, note=80, velocity=88, time=173),\n",
      "    Message('note_on', channel=0, note=60, velocity=0, time=29),\n",
      "    Message('note_on', channel=0, note=68, velocity=0, time=0),\n",
      "    Message('note_on', channel=0, note=72, velocity=0, time=0),\n",
      "    Message('note_on', channel=0, note=72, velocity=49, time=4),\n",
      "    Message('note_on', channel=0, note=68, velocity=53, time=1),\n",
      "    Message('note_on', channel=0, note=60, velocity=48, time=0),\n",
      "    Message('note_on', channel=0, note=63, velocity=0, time=156),\n",
      "    Message('note_on', channel=0, note=56, velocity=0, time=8),\n",
      "    Message('note_on', channel=0, note=63, velocity=48, time=3),\n",
      "    Message('note_on', channel=0, note=56, velocity=51, time=1),\n",
      "    Message('note_on', channel=0, note=68, velocity=0, time=19),\n",
      "    Message('note_on', channel=0, note=72, velocity=0, time=8),\n",
      "    Message('note_on', channel=0, note=77, velocity=0, time=0),\n",
      "    Message('note_on', channel=0, note=68, velocity=51, time=1),\n",
      "    Message('note_on', channel=0, note=77, velocity=49, time=8),\n",
      "    Message('note_on', channel=0, note=72, velocity=54, time=2),\n",
      "    Message('note_on', channel=0, note=72, velocity=0, time=119),\n",
      "    Message('note_on', channel=0, note=72, velocity=80, time=11),\n",
      "    Message('note_on', channel=0, note=68, velocity=0, time=5),\n",
      "    Message('note_on', channel=0, note=77, velocity=0, time=0),\n",
      "    Message('note_on', channel=0, note=77, velocity=59, time=5),\n",
      "    Message('note_on', channel=0, note=68, velocity=64, time=1),\n",
      "    Message('note_on', channel=0, note=65, velocity=51, time=5),\n",
      "    Message('note_on', channel=0, note=29, velocity=55, time=80),\n",
      "    Message('note_on', channel=0, note=41, velocity=49, time=0),\n",
      "    Message('note_on', channel=0, note=72, velocity=0, time=216),\n",
      "    Message('control_change', channel=0, control=64, value=0, time=2),\n",
      "    Message('note_on', channel=0, note=60, velocity=0, time=1),\n",
      "    Message('note_on', channel=0, note=56, velocity=0, time=0),\n",
      "    Message('note_on', channel=0, note=53, velocity=0, time=0),\n",
      "    Message('note_on', channel=0, note=63, velocity=0, time=1),\n",
      "    Message('note_on', channel=0, note=41, velocity=0, time=0),\n",
      "    Message('note_on', channel=0, note=75, velocity=0, time=0),\n",
      "    Message('note_on', channel=0, note=77, velocity=0, time=0),\n",
      "    Message('note_on', channel=0, note=80, velocity=0, time=0),\n",
      "    Message('note_on', channel=0, note=74, velocity=77, time=3),\n",
      "    Message('note_on', channel=0, note=29, velocity=0, time=1),\n",
      "    Message('note_on', channel=0, note=68, velocity=0, time=0),\n",
      "    Message('note_on', channel=0, note=79, velocity=0, time=0),\n",
      "    Message('note_on', channel=0, note=72, velocity=69, time=3),\n",
      "    Message('note_on', channel=0, note=68, velocity=57, time=7),\n",
      "    Message('note_on', channel=0, note=65, velocity=0, time=5),\n",
      "    Message('note_on', channel=0, note=32, velocity=52, time=5),\n",
      "    Message('note_on', channel=0, note=65, velocity=45, time=5),\n",
      "    Message('note_on', channel=0, note=44, velocity=52, time=1),\n",
      "    Message('note_on', channel=0, note=32, velocity=0, time=28),\n",
      "    Message('control_change', channel=0, control=64, value=127, time=22),\n",
      "    Message('note_on', channel=0, note=65, velocity=0, time=177),\n",
      "    Message('note_on', channel=0, note=68, velocity=0, time=0),\n",
      "    Message('note_on', channel=0, note=74, velocity=0, time=0),\n",
      "    Message('note_on', channel=0, note=68, velocity=47, time=5),\n",
      "    Message('note_on', channel=0, note=56, velocity=35, time=0),\n",
      "    Message('note_on', channel=0, note=65, velocity=34, time=1),\n",
      "    Message('note_on', channel=0, note=74, velocity=41, time=2),\n",
      "    Message('note_on', channel=0, note=60, velocity=57, time=65),\n",
      "    Message('note_on', channel=0, note=53, velocity=47, time=0),\n",
      "    Message('note_on', channel=0, note=75, velocity=80, time=81),\n",
      "    Message('note_on', channel=0, note=65, velocity=0, time=7),\n",
      "    Message('note_on', channel=0, note=72, velocity=0, time=0),\n",
      "    Message('note_on', channel=0, note=65, velocity=48, time=9),\n",
      "    Message('note_on', channel=0, note=72, velocity=58, time=1),\n",
      "    Message('note_on', channel=0, note=53, velocity=0, time=6),\n",
      "    Message('note_on', channel=0, note=68, velocity=0, time=0),\n",
      "    Message('note_on', channel=0, note=53, velocity=50, time=5),\n",
      "    Message('note_on', channel=0, note=68, velocity=55, time=6),\n",
      "    Message('note_on', channel=0, note=56, velocity=0, time=81),\n",
      "    Message('note_on', channel=0, note=63, velocity=58, time=6),\n",
      "    Message('note_on', channel=0, note=56, velocity=51, time=4),\n",
      "    Message('note_on', channel=0, note=75, velocity=0, time=143),\n",
      "    Message('note_on', channel=0, note=75, velocity=78, time=8),\n",
      "    Message('note_on', channel=0, note=68, velocity=0, time=0),\n",
      "    Message('note_on', channel=0, note=72, velocity=0, time=0),\n",
      "    Message('note_on', channel=0, note=72, velocity=70, time=11),\n",
      "    Message('note_on', channel=0, note=68, velocity=64, time=0),\n",
      "    Message('note_on', channel=0, note=44, velocity=0, time=12),\n",
      "    Message('note_on', channel=0, note=60, velocity=0, time=16),\n",
      "    Message('note_on', channel=0, note=60, velocity=42, time=11),\n",
      "    Message('note_on', channel=0, note=77, velocity=80, time=133),\n",
      "    Message('note_on', channel=0, note=72, velocity=0, time=17),\n",
      "    Message('note_on', channel=0, note=56, velocity=0, time=7),\n",
      "    Message('note_on', channel=0, note=68, velocity=0, time=0),\n",
      "    Message('note_on', channel=0, note=72, velocity=66, time=4),\n",
      "    Message('note_on', channel=0, note=68, velocity=53, time=1),\n",
      "    Message('note_on', channel=0, note=56, velocity=41, time=1),\n",
      "    Message('note_on', channel=0, note=75, velocity=0, time=110),\n",
      "    Message('note_on', channel=0, note=72, velocity=0, time=7),\n",
      "    Message('note_on', channel=0, note=75, velocity=80, time=4),\n",
      "    Message('note_on', channel=0, note=63, velocity=0, time=4),\n",
      "    Message('note_on', channel=0, note=68, velocity=0, time=0),\n",
      "    Message('note_on', channel=0, note=72, velocity=68, time=3),\n",
      "    Message('note_on', channel=0, note=68, velocity=63, time=1),\n",
      "    Message('note_on', channel=0, note=63, velocity=49, time=7),\n",
      "    Message('note_on', channel=0, note=56, velocity=0, time=4),\n",
      "    Message('note_on', channel=0, note=56, velocity=51, time=8),\n",
      "    Message('note_on', channel=0, note=74, velocity=0, time=100),\n",
      "    Message('note_on', channel=0, note=74, velocity=74, time=5),\n",
      "    Message('note_on', channel=0, note=72, velocity=0, time=10),\n",
      "    Message('note_on', channel=0, note=68, velocity=0, time=8),\n",
      "    Message('note_on', channel=0, note=72, velocity=57, time=4),\n",
      "    Message('note_on', channel=0, note=68, velocity=58, time=4),\n",
      "    Message('note_on', channel=0, note=72, velocity=0, time=92),\n",
      "    Message('note_on', channel=0, note=75, velocity=0, time=0),\n",
      "    Message('note_on', channel=0, note=75, velocity=75, time=5),\n",
      "    Message('note_on', channel=0, note=72, velocity=67, time=3),\n",
      "    Message('note_on', channel=0, note=68, velocity=0, time=7),\n",
      "    Message('note_on', channel=0, note=68, velocity=57, time=5),\n",
      "    Message('note_on', channel=0, note=56, velocity=0, time=103),\n",
      "    Message('note_on', channel=0, note=72, velocity=0, time=0),\n",
      "    Message('note_on', channel=0, note=56, velocity=44, time=5),\n",
      "    Message('note_on', channel=0, note=68, velocity=0, time=2),\n",
      "    Message('note_on', channel=0, note=79, velocity=75, time=3),\n",
      "    Message('note_on', channel=0, note=72, velocity=70, time=1),\n",
      "    Message('note_on', channel=0, note=68, velocity=60, time=7),\n",
      "    Message('note_on', channel=0, note=68, velocity=0, time=112),\n",
      "    Message('note_on', channel=0, note=72, velocity=0, time=0),\n",
      "    Message('note_on', channel=0, note=77, velocity=0, time=0),\n",
      "    Message('note_on', channel=0, note=56, velocity=0, time=8),\n",
      "    Message('note_on', channel=0, note=77, velocity=74, time=0),\n",
      "    Message('note_on', channel=0, note=72, velocity=65, time=3),\n",
      "    Message('note_on', channel=0, note=68, velocity=60, time=1),\n",
      "    Message('note_on', channel=0, note=56, velocity=48, time=7),\n",
      "    Message('note_on', channel=0, note=65, velocity=0, time=158),\n",
      "    Message('note_on', channel=0, note=74, velocity=0, time=0),\n",
      "    Message('note_on', channel=0, note=74, velocity=76, time=7),\n",
      "    Message('note_on', channel=0, note=65, velocity=51, time=3),\n",
      "    Message('control_change', channel=0, control=64, value=0, time=3),\n",
      "    Message('note_on', channel=0, note=68, velocity=0, time=2),\n",
      "    Message('note_on', channel=0, note=56, velocity=0, time=7),\n",
      "    Message('note_on', channel=0, note=72, velocity=0, time=1),\n",
      "    Message('note_on', channel=0, note=77, velocity=0, time=1),\n",
      "    Message('note_on', channel=0, note=79, velocity=0, time=0),\n",
      "    Message('note_on', channel=0, note=75, velocity=0, time=0),\n",
      "    Message('note_on', channel=0, note=68, velocity=53, time=0),\n",
      "    Message('note_on', channel=0, note=53, velocity=0, time=1),\n",
      "    Message('note_on', channel=0, note=60, velocity=0, time=0),\n",
      "    Message('note_on', channel=0, note=46, velocity=52, time=2),\n",
      "    Message('note_on', channel=0, note=34, velocity=50, time=2),\n",
      "    Message('note_on', channel=0, note=70, velocity=47, time=3),\n",
      "    Message('note_on', channel=0, note=63, velocity=0, time=6),\n",
      "    Message('control_change', channel=0, control=64, value=127, time=54),\n",
      "    Message('note_on', channel=0, note=34, velocity=0, time=31),\n",
      "    Message('note_on', channel=0, note=65, velocity=0, time=192),\n",
      "    Message('note_on', channel=0, note=46, velocity=0, time=7),\n",
      "    Message('note_on', channel=0, note=70, velocity=0, time=0),\n",
      "    Message('note_on', channel=0, note=65, velocity=43, time=4),\n",
      "    Message('note_on', channel=0, note=62, velocity=35, time=0),\n",
      "    Message('note_on', channel=0, note=46, velocity=45, time=1),\n",
      "    Message('note_on', channel=0, note=56, velocity=48, time=1),\n",
      "    Message('note_on', channel=0, note=70, velocity=46, time=1),\n",
      "    Message('note_on', channel=0, note=62, velocity=0, time=1),\n",
      "    Message('note_on', channel=0, note=65, velocity=0, time=177),\n",
      "    Message('note_on', channel=0, note=68, velocity=0, time=0),\n",
      "    Message('note_on', channel=0, note=70, velocity=0, time=0),\n",
      "    Message('note_on', channel=0, note=70, velocity=49, time=4),\n",
      "    Message('note_on', channel=0, note=62, velocity=54, time=1),\n",
      "    Message('note_on', channel=0, note=46, velocity=0, time=2),\n",
      "    Message('note_on', channel=0, note=65, velocity=41, time=2),\n",
      "    Message('note_on', channel=0, note=68, velocity=48, time=1),\n",
      "    Message('note_on', channel=0, note=46, velocity=39, time=3),\n",
      "    Message('note_on', channel=0, note=56, velocity=0, time=2),\n",
      "    Message('note_on', channel=0, note=56, velocity=44, time=6),\n",
      "    Message('note_on', channel=0, note=56, velocity=0, time=140),\n",
      "    Message('note_on', channel=0, note=68, velocity=0, time=0),\n",
      "    Message('note_on', channel=0, note=46, velocity=0, time=8),\n",
      "    Message('note_on', channel=0, note=62, velocity=0, time=0),\n",
      "    Message('note_on', channel=0, note=65, velocity=0, time=0),\n",
      "    Message('note_on', channel=0, note=70, velocity=0, time=0),\n",
      "    Message('note_on', channel=0, note=56, velocity=53, time=0),\n",
      "    Message('note_on', channel=0, note=68, velocity=55, time=3),\n",
      "    Message('note_on', channel=0, note=62, velocity=41, time=1),\n",
      "    Message('note_on', channel=0, note=65, velocity=45, time=0),\n",
      "    Message('note_on', channel=0, note=70, velocity=50, time=1),\n",
      "    Message('note_on', channel=0, note=46, velocity=46, time=3),\n",
      "    Message('note_on', channel=0, note=68, velocity=0, time=161),\n",
      "    Message('note_on', channel=0, note=68, velocity=53, time=6),\n",
      "    Message('note_on', channel=0, note=56, velocity=0, time=1),\n",
      "    Message('note_on', channel=0, note=62, velocity=0, time=0),\n",
      "    Message('note_on', channel=0, note=65, velocity=0, time=0),\n",
      "    Message('note_on', channel=0, note=62, velocity=47, time=7),\n",
      "    Message('note_on', channel=0, note=46, velocity=0, time=1),\n",
      "    Message('note_on', channel=0, note=70, velocity=0, time=0),\n",
      "    Message('note_on', channel=0, note=65, velocity=39, time=4),\n",
      "    Message('note_on', channel=0, note=56, velocity=49, time=0),\n",
      "    Message('note_on', channel=0, note=70, velocity=45, time=1),\n",
      "    Message('note_on', channel=0, note=46, velocity=37, time=1),\n",
      "    Message('note_on', channel=0, note=46, velocity=0, time=155),\n",
      "    Message('note_on', channel=0, note=62, velocity=0, time=8),\n",
      "    Message('note_on', channel=0, note=65, velocity=0, time=0),\n",
      "    Message('note_on', channel=0, note=68, velocity=0, time=0),\n",
      "    Message('note_on', channel=0, note=46, velocity=52, time=4),\n",
      "    Message('note_on', channel=0, note=68, velocity=51, time=1),\n",
      "    Message('note_on', channel=0, note=34, velocity=50, time=1),\n",
      "    Message('note_on', channel=0, note=62, velocity=41, time=4),\n",
      "    Message('note_on', channel=0, note=65, velocity=44, time=0),\n",
      "    Message('note_on', channel=0, note=70, velocity=0, time=180),\n",
      "    Message('note_on', channel=0, note=68, velocity=0, time=0),\n",
      "    Message('note_on', channel=0, note=34, velocity=0, time=1),\n",
      "    Message('note_on', channel=0, note=62, velocity=0, time=0),\n",
      "    Message('control_change', channel=0, control=64, value=0, time=4),\n",
      "    Message('note_on', channel=0, note=46, velocity=0, time=12),\n",
      "    Message('note_on', channel=0, note=56, velocity=0, time=0),\n",
      "    Message('note_on', channel=0, note=65, velocity=0, time=16),\n",
      "    Message('note_on', channel=0, note=74, velocity=0, time=0),\n",
      "    Message('note_on', channel=0, note=67, velocity=53, time=3),\n",
      "    Message('note_on', channel=0, note=65, velocity=48, time=4),\n",
      "    Message('note_on', channel=0, note=35, velocity=62, time=7),\n",
      "    Message('note_on', channel=0, note=47, velocity=54, time=3),\n",
      "    Message('note_on', channel=0, note=35, velocity=0, time=33),\n",
      "    Message('control_change', channel=0, control=64, value=127, time=3),\n",
      "    Message('note_on', channel=0, note=65, velocity=0, time=208),\n",
      "    Message('note_on', channel=0, note=67, velocity=0, time=0),\n",
      "    Message('note_on', channel=0, note=47, velocity=0, time=8),\n",
      "    Message('note_on', channel=0, note=67, velocity=48, time=1),\n",
      "    Message('note_on', channel=0, note=65, velocity=45, time=1),\n",
      "    Message('note_on', channel=0, note=55, velocity=49, time=2),\n",
      "    Message('note_on', channel=0, note=47, velocity=44, time=4),\n",
      "    Message('note_on', channel=0, note=62, velocity=36, time=2),\n",
      "    Message('note_on', channel=0, note=47, velocity=0, time=174),\n",
      "    Message('note_on', channel=0, note=55, velocity=0, time=0),\n",
      "    Message('note_on', channel=0, note=62, velocity=0, time=0),\n",
      "    Message('note_on', channel=0, note=65, velocity=0, time=0),\n",
      "    Message('note_on', channel=0, note=67, velocity=0, time=0),\n",
      "    Message('note_on', channel=0, note=62, velocity=59, time=4),\n",
      "    Message('note_on', channel=0, note=55, velocity=55, time=2),\n",
      "    Message('note_on', channel=0, note=67, velocity=54, time=0),\n",
      "    Message('note_on', channel=0, note=65, velocity=51, time=3),\n",
      "    Message('note_on', channel=0, note=47, velocity=47, time=1),\n",
      "    Message('note_on', channel=0, note=62, velocity=0, time=190),\n",
      "    Message('note_on', channel=0, note=65, velocity=0, time=0),\n",
      "    Message('note_on', channel=0, note=67, velocity=0, time=0),\n",
      "    Message('note_on', channel=0, note=65, velocity=62, time=4),\n",
      "    Message('note_on', channel=0, note=67, velocity=54, time=0),\n",
      "    Message('note_on', channel=0, note=47, velocity=0, time=3),\n",
      "    Message('note_on', channel=0, note=55, velocity=0, time=0),\n",
      "    Message('note_on', channel=0, note=62, velocity=44, time=3),\n",
      "    Message('note_on', channel=0, note=47, velocity=43, time=5),\n",
      "    Message('note_on', channel=0, note=55, velocity=49, time=0),\n",
      "    Message('note_on', channel=0, note=70, velocity=69, time=200),\n",
      "    Message('note_on', channel=0, note=62, velocity=0, time=7),\n",
      "    Message('note_on', channel=0, note=65, velocity=0, time=8),\n",
      "    Message('note_on', channel=0, note=62, velocity=54, time=4),\n",
      "    Message('note_on', channel=0, note=55, velocity=0, time=4),\n",
      "    Message('note_on', channel=0, note=65, velocity=50, time=2),\n",
      "    Message('note_on', channel=0, note=55, velocity=47, time=8),\n",
      "    Message('note_on', channel=0, note=68, velocity=68, time=8),\n",
      "    Message('note_on', channel=0, note=65, velocity=0, time=220),\n",
      "    Message('note_on', channel=0, note=67, velocity=0, time=0),\n",
      "    Message('note_on', channel=0, note=67, velocity=75, time=10),\n",
      "    Message('note_on', channel=0, note=65, velocity=65, time=1),\n",
      "    Message('note_on', channel=0, note=47, velocity=0, time=4),\n",
      "    Message('note_on', channel=0, note=35, velocity=50, time=8),\n",
      "    Message('note_on', channel=0, note=47, velocity=47, time=2),\n",
      "    Message('note_on', channel=0, note=68, velocity=0, time=289),\n",
      "    Message('note_on', channel=0, note=67, velocity=0, time=1),\n",
      "    Message('note_on', channel=0, note=47, velocity=0, time=1),\n",
      "    Message('note_on', channel=0, note=35, velocity=0, time=0),\n",
      "    Message('control_change', channel=0, control=64, value=0, time=1),\n",
      "    Message('note_on', channel=0, note=70, velocity=0, time=5),\n",
      "    Message('note_on', channel=0, note=76, velocity=78, time=2),\n",
      "    Message('note_on', channel=0, note=67, velocity=75, time=1),\n",
      "    Message('note_on', channel=0, note=72, velocity=73, time=0),\n",
      "    Message('note_on', channel=0, note=70, velocity=74, time=1),\n",
      "    Message('note_on', channel=0, note=64, velocity=73, time=0),\n",
      "    Message('note_on', channel=0, note=55, velocity=0, time=4),\n",
      "    Message('note_on', channel=0, note=62, velocity=0, time=0),\n",
      "    Message('note_on', channel=0, note=48, velocity=73, time=3),\n",
      "    Message('note_on', channel=0, note=36, velocity=72, time=0),\n",
      "    Message('note_on', channel=0, note=65, velocity=0, time=5),\n",
      "    Message('note_on', channel=0, note=36, velocity=0, time=50),\n",
      "    Message('control_change', channel=0, control=64, value=127, time=11),\n",
      "    Message('note_on', channel=0, note=67, velocity=0, time=277),\n",
      "    Message('note_on', channel=0, note=64, velocity=0, time=7),\n",
      "    Message('note_on', channel=0, note=70, velocity=0, time=0),\n",
      "    Message('note_on', channel=0, note=72, velocity=0, time=0),\n",
      "    Message('note_on', channel=0, note=67, velocity=69, time=3),\n",
      "    Message('note_on', channel=0, note=72, velocity=64, time=1),\n",
      "    Message('note_on', channel=0, note=60, velocity=64, time=0),\n",
      "    Message('note_on', channel=0, note=64, velocity=69, time=1),\n",
      "    Message('note_on', channel=0, note=70, velocity=67, time=3),\n",
      "    Message('note_on', channel=0, note=58, velocity=62, time=1),\n",
      "    Message('note_on', channel=0, note=55, velocity=58, time=2),\n",
      "    Message('note_on', channel=0, note=60, velocity=0, time=220),\n",
      "    Message('note_on', channel=0, note=64, velocity=0, time=0),\n",
      "    Message('note_on', channel=0, note=67, velocity=0, time=0),\n",
      "    Message('note_on', channel=0, note=70, velocity=0, time=0),\n",
      "    Message('note_on', channel=0, note=72, velocity=0, time=0),\n",
      "    Message('note_on', channel=0, note=64, velocity=61, time=4),\n",
      "    Message('note_on', channel=0, note=67, velocity=63, time=0),\n",
      "    Message('note_on', channel=0, note=72, velocity=68, time=1),\n",
      "    Message('note_on', channel=0, note=55, velocity=0, time=2),\n",
      "    Message('note_on', channel=0, note=58, velocity=0, time=0),\n",
      "    Message('note_on', channel=0, note=70, velocity=68, time=1),\n",
      "    Message('note_on', channel=0, note=60, velocity=58, time=2),\n",
      "    Message('note_on', channel=0, note=55, velocity=50, time=2),\n",
      "    Message('note_on', channel=0, note=58, velocity=54, time=1),\n",
      "    Message('note_on', channel=0, note=79, velocity=87, time=240),\n",
      "    Message('note_on', channel=0, note=70, velocity=0, time=0),\n",
      "    Message('note_on', channel=0, note=55, velocity=0, time=8),\n",
      "    Message('note_on', channel=0, note=60, velocity=0, time=0),\n",
      "    Message('note_on', channel=0, note=67, velocity=0, time=0),\n",
      "    Message('note_on', channel=0, note=76, velocity=0, time=0),\n",
      "    Message('note_on', channel=0, note=70, velocity=82, time=2),\n",
      "    Message('note_on', channel=0, note=67, velocity=68, time=2),\n",
      "    Message('note_on', channel=0, note=60, velocity=63, time=1),\n",
      "    Message('note_on', channel=0, note=76, velocity=73, time=1),\n",
      "    Message('note_on', channel=0, note=58, velocity=0, time=1),\n",
      "    Message('note_on', channel=0, note=64, velocity=0, time=0),\n",
      "    Message('note_on', channel=0, note=55, velocity=58, time=1),\n",
      "    Message('note_on', channel=0, note=58, velocity=58, time=3),\n",
      "    Message('note_on', channel=0, note=64, velocity=54, time=0),\n",
      "    Message('note_on', channel=0, note=64, velocity=0, time=227),\n",
      "    Message('note_on', channel=0, note=55, velocity=0, time=7),\n",
      "    Message('note_on', channel=0, note=58, velocity=0, time=0),\n",
      "    Message('note_on', channel=0, note=70, velocity=0, time=0),\n",
      "    Message('note_on', channel=0, note=72, velocity=0, time=0),\n",
      "    Message('note_on', channel=0, note=64, velocity=55, time=3),\n",
      "    Message('note_on', channel=0, note=58, velocity=52, time=2),\n",
      "    Message('note_on', channel=0, note=55, velocity=49, time=1),\n",
      "    Message('note_on', channel=0, note=70, velocity=59, time=1),\n",
      "    Message('note_on', channel=0, note=67, velocity=0, time=1),\n",
      "    Message('note_on', channel=0, note=72, velocity=60, time=1),\n",
      "    Message('note_on', channel=0, note=67, velocity=50, time=4),\n",
      "    Message('note_on', channel=0, note=48, velocity=0, time=218),\n",
      "    Message('note_on', channel=0, note=70, velocity=0, time=0),\n",
      "    Message('note_on', channel=0, note=55, velocity=0, time=1),\n",
      "    Message('note_on', channel=0, note=70, velocity=71, time=5),\n",
      "    Message('note_on', channel=0, note=79, velocity=0, time=0),\n",
      "    Message('note_on', channel=0, note=48, velocity=62, time=2),\n",
      "    Message('note_on', channel=0, note=36, velocity=56, time=1),\n",
      "    Message('note_on', channel=0, note=72, velocity=0, time=183),\n",
      "    Message('note_on', channel=0, note=36, velocity=0, time=8),\n",
      "    Message('note_on', channel=0, note=76, velocity=0, time=0),\n",
      "    Message('note_on', channel=0, note=60, velocity=0, time=1),\n",
      "    Message('note_on', channel=0, note=64, velocity=0, time=0),\n",
      "    Message('note_on', channel=0, note=58, velocity=0, time=0),\n",
      "    Message('note_on', channel=0, note=70, velocity=0, time=1),\n",
      "    Message('note_on', channel=0, note=67, velocity=0, time=0),\n",
      "    Message('note_on', channel=0, note=72, velocity=72, time=0),\n",
      "    Message('note_on', channel=0, note=48, velocity=0, time=1),\n",
      "    Message('control_change', channel=0, control=64, value=0, time=0),\n",
      "    Message('note_on', channel=0, note=76, velocity=67, time=2),\n",
      "    Message('note_on', channel=0, note=68, velocity=74, time=5),\n",
      "    Message('note_on', channel=0, note=41, velocity=69, time=7),\n",
      "    Message('note_on', channel=0, note=53, velocity=69, time=0),\n",
      "    Message('control_change', channel=0, control=64, value=127, time=52),\n",
      "    Message('note_on', channel=0, note=68, velocity=0, time=176),\n",
      "    Message('note_on', channel=0, note=72, velocity=0, time=0),\n",
      "    Message('note_on', channel=0, note=60, velocity=64, time=7),\n",
      "    Message('note_on', channel=0, note=68, velocity=66, time=0),\n",
      "    Message('note_on', channel=0, note=76, velocity=0, time=1),\n",
      "    Message('note_on', channel=0, note=72, velocity=74, time=1),\n",
      "    Message('note_on', channel=0, note=76, velocity=64, time=3),\n",
      "    Message('note_on', channel=0, note=56, velocity=43, time=22),\n",
      "    Message('note_on', channel=0, note=56, velocity=0, time=158),\n",
      "    Message('note_on', channel=0, note=60, velocity=0, time=0),\n",
      "    Message('note_on', channel=0, note=68, velocity=0, time=0),\n",
      "    Message('note_on', channel=0, note=72, velocity=0, time=0),\n",
      "    Message('note_on', channel=0, note=76, velocity=0, time=0),\n",
      "    Message('note_on', channel=0, note=60, velocity=65, time=4),\n",
      "    Message('note_on', channel=0, note=64, velocity=71, time=3),\n",
      "    Message('note_on', channel=0, note=76, velocity=69, time=3),\n",
      "    Message('note_on', channel=0, note=68, velocity=75, time=1),\n",
      "    Message('note_on', channel=0, note=72, velocity=72, time=0),\n",
      "    Message('note_on', channel=0, note=56, velocity=56, time=1),\n",
      "    Message('note_on', channel=0, note=60, velocity=0, time=219),\n",
      "    Message('note_on', channel=0, note=68, velocity=0, time=0),\n",
      "    Message('note_on', channel=0, note=72, velocity=0, time=0),\n",
      "    Message('note_on', channel=0, note=80, velocity=83, time=4),\n",
      "    Message('note_on', channel=0, note=68, velocity=81, time=0),\n",
      "    Message('note_on', channel=0, note=72, velocity=79, time=2),\n",
      "    Message('note_on', channel=0, note=77, velocity=75, time=0),\n",
      "    Message('note_on', channel=0, note=60, velocity=75, time=0),\n",
      "    Message('note_on', channel=0, note=65, velocity=66, time=0),\n",
      "    Message('note_on', channel=0, note=53, velocity=0, time=1),\n",
      "    Message('note_on', channel=0, note=56, velocity=0, time=0),\n",
      "    Message('note_on', channel=0, note=53, velocity=59, time=4),\n",
      "    Message('note_on', channel=0, note=56, velocity=62, time=8),\n",
      "    Message('note_on', channel=0, note=64, velocity=0, time=0),\n",
      "    Message('note_on', channel=0, note=76, velocity=0, time=4),\n",
      "    Message('control_change', channel=0, control=64, value=0, time=2),\n",
      "    Message('control_change', channel=0, control=64, value=127, time=67),\n",
      "    Message('note_on', channel=0, note=53, velocity=0, time=161),\n",
      "    Message('note_on', channel=0, note=60, velocity=0, time=0),\n",
      "    Message('note_on', channel=0, note=65, velocity=0, time=0),\n",
      "    Message('note_on', channel=0, note=68, velocity=0, time=0),\n",
      "    Message('note_on', channel=0, note=56, velocity=0, time=8),\n",
      "    Message('note_on', channel=0, note=72, velocity=0, time=0),\n",
      "    Message('note_on', channel=0, note=77, velocity=0, time=0),\n",
      "    Message('note_on', channel=0, note=68, velocity=77, time=1),\n",
      "    Message('note_on', channel=0, note=53, velocity=56, time=1),\n",
      "    Message('note_on', channel=0, note=60, velocity=54, time=2),\n",
      "    Message('note_on', channel=0, note=65, velocity=61, time=0),\n",
      "    Message('note_on', channel=0, note=77, velocity=72, time=0),\n",
      "    Message('note_on', channel=0, note=72, velocity=74, time=1),\n",
      "    Message('note_on', channel=0, note=56, velocity=56, time=3),\n",
      "    Message('note_on', channel=0, note=41, velocity=0, time=238),\n",
      "    Message('note_on', channel=0, note=53, velocity=0, time=0),\n",
      "    Message('note_on', channel=0, note=68, velocity=0, time=0),\n",
      "    Message('note_on', channel=0, note=72, velocity=0, time=0),\n",
      "    Message('note_on', channel=0, note=80, velocity=0, time=0),\n",
      "    Message('note_on', channel=0, note=80, velocity=69, time=5),\n",
      "    Message('note_on', channel=0, note=68, velocity=71, time=2),\n",
      "    Message('note_on', channel=0, note=77, velocity=0, time=0),\n",
      "    Message('note_on', channel=0, note=53, velocity=58, time=1),\n",
      "    Message('note_on', channel=0, note=72, velocity=67, time=1),\n",
      "    Message('note_on', channel=0, note=41, velocity=61, time=2),\n",
      "    Message('note_on', channel=0, note=77, velocity=64, time=2),\n",
      "    Message('note_on', channel=0, note=41, velocity=0, time=232),\n",
      "    Message('note_on', channel=0, note=65, velocity=0, time=1),\n",
      "    Message('note_on', channel=0, note=60, velocity=0, time=0),\n",
      "    Message('note_on', channel=0, note=77, velocity=0, time=1),\n",
      "    Message('note_on', channel=0, note=53, velocity=0, time=1),\n",
      "    Message('note_on', channel=0, note=56, velocity=0, time=0),\n",
      "    Message('control_change', channel=0, control=64, value=0, time=4),\n",
      "    Message('note_on', channel=0, note=68, velocity=0, time=1),\n",
      "    Message('note_on', channel=0, note=72, velocity=0, time=0),\n",
      "    Message('note_on', channel=0, note=80, velocity=0, time=0),\n",
      "    Message('note_on', channel=0, note=68, velocity=81, time=9),\n",
      "    Message('note_on', channel=0, note=72, velocity=74, time=1),\n",
      "    Message('note_on', channel=0, note=80, velocity=75, time=0),\n",
      "    Message('note_on', channel=0, note=46, velocity=78, time=2),\n",
      "    Message('note_on', channel=0, note=75, velocity=80, time=1),\n",
      "    Message('note_on', channel=0, note=34, velocity=76, time=3),\n",
      "    Message('control_change', channel=0, control=64, value=127, time=53),\n",
      "    Message('note_on', channel=0, note=34, velocity=0, time=46),\n",
      "    Message('note_on', channel=0, note=68, velocity=0, time=246),\n",
      "    Message('note_on', channel=0, note=72, velocity=0, time=0),\n",
      "    Message('note_on', channel=0, note=75, velocity=0, time=0),\n",
      "    Message('note_on', channel=0, note=68, velocity=76, time=5),\n",
      "    Message('note_on', channel=0, note=75, velocity=75, time=1),\n",
      "    Message('note_on', channel=0, note=60, velocity=58, time=2),\n",
      "    Message('note_on', channel=0, note=72, velocity=76, time=1),\n",
      "    Message('note_on', channel=0, note=56, velocity=60, time=2),\n",
      "    Message('note_on', channel=0, note=68, velocity=0, time=219),\n",
      "    Message('note_on', channel=0, note=72, velocity=0, time=0),\n",
      "    Message('note_on', channel=0, note=75, velocity=0, time=0),\n",
      "    Message('note_on', channel=0, note=79, velocity=88, time=2),\n",
      "    Message('note_on', channel=0, note=72, velocity=80, time=5),\n",
      "    Message('note_on', channel=0, note=56, velocity=0, time=1),\n",
      "    Message('note_on', channel=0, note=60, velocity=0, time=0),\n",
      "    Message('note_on', channel=0, note=68, velocity=80, time=3),\n",
      "    Message('note_on', channel=0, note=75, velocity=83, time=0),\n",
      "    Message('note_on', channel=0, note=63, velocity=68, time=2),\n",
      "    Message('note_on', channel=0, note=60, velocity=60, time=0),\n",
      "    Message('note_on', channel=0, note=56, velocity=64, time=2),\n",
      "    Message('note_on', channel=0, note=58, velocity=54, time=5),\n",
      "    Message('note_on', channel=0, note=68, velocity=0, time=172),\n",
      "    Message('note_on', channel=0, note=46, velocity=0, time=8),\n",
      "    Message('note_on', channel=0, note=56, velocity=0, time=0),\n",
      "    Message('note_on', channel=0, note=58, velocity=0, time=0),\n",
      "    Message('note_on', channel=0, note=68, velocity=80, time=3),\n",
      "    Message('note_on', channel=0, note=58, velocity=60, time=1),\n",
      "    Message('note_on', channel=0, note=46, velocity=56, time=0),\n",
      "    Message('note_on', channel=0, note=56, velocity=58, time=6),\n",
      "    Message('note_on', channel=0, note=74, velocity=64, time=2),\n",
      "    Message('note_on', channel=0, note=56, velocity=0, time=180),\n",
      "    Message('note_on', channel=0, note=58, velocity=0, time=0),\n",
      "    Message('note_on', channel=0, note=62, velocity=70, time=5),\n",
      "    Message('note_on', channel=0, note=58, velocity=67, time=1),\n",
      "    Message('note_on', channel=0, note=68, velocity=0, time=2),\n",
      "    Message('note_on', channel=0, note=74, velocity=0, time=0),\n",
      "    Message('note_on', channel=0, note=56, velocity=67, time=3),\n",
      "    Message('note_on', channel=0, note=53, velocity=57, time=1),\n",
      "    Message('note_on', channel=0, note=68, velocity=79, time=0),\n",
      "    Message('note_on', channel=0, note=70, velocity=72, time=2),\n",
      "    Message('note_on', channel=0, note=74, velocity=74, time=2),\n",
      "    Message('note_on', channel=0, note=77, velocity=62, time=1),\n",
      "    Message('note_on', channel=0, note=68, velocity=0, time=213),\n",
      "    Message('note_on', channel=0, note=70, velocity=0, time=0),\n",
      "    Message('note_on', channel=0, note=74, velocity=0, time=0),\n",
      "    Message('note_on', channel=0, note=77, velocity=0, time=0),\n",
      "    Message('note_on', channel=0, note=80, velocity=0, time=0),\n",
      "    Message('note_on', channel=0, note=68, velocity=80, time=7),\n",
      "    Message('note_on', channel=0, note=46, velocity=0, time=1),\n",
      "    Message('note_on', channel=0, note=77, velocity=84, time=0),\n",
      "    Message('note_on', channel=0, note=70, velocity=75, time=3),\n",
      "    Message('note_on', channel=0, note=80, velocity=78, time=0),\n",
      "    Message('note_on', channel=0, note=74, velocity=77, time=1),\n",
      "    Message('note_on', channel=0, note=46, velocity=69, time=1),\n",
      "    Message('note_on', channel=0, note=58, velocity=0, time=1),\n",
      "    Message('note_on', channel=0, note=34, velocity=65, time=4),\n",
      "    Message('note_on', channel=0, note=62, velocity=0, time=2),\n",
      "    Message('note_on', channel=0, note=34, velocity=0, time=184),\n",
      "    Message('note_on', channel=0, note=79, velocity=0, time=0),\n",
      "    Message('note_on', channel=0, note=46, velocity=0, time=1),\n",
      "    Message('note_on', channel=0, note=77, velocity=0, time=0),\n",
      "    Message('note_on', channel=0, note=68, velocity=0, time=1),\n",
      "    Message('note_on', channel=0, note=75, velocity=0, time=0),\n",
      "    Message('note_on', channel=0, note=72, velocity=0, time=0),\n",
      "    Message('control_change', channel=0, control=64, value=0, time=3),\n",
      "    Message('note_on', channel=0, note=63, velocity=0, time=7),\n",
      "    Message('note_on', channel=0, note=53, velocity=0, time=7),\n",
      "    Message('note_on', channel=0, note=56, velocity=0, time=0),\n",
      "    Message('note_on', channel=0, note=60, velocity=0, time=0),\n",
      "    Message('note_on', channel=0, note=74, velocity=0, time=0),\n",
      "    Message('note_on', channel=0, note=80, velocity=0, time=0),\n",
      "    Message('note_on', channel=0, note=70, velocity=0, time=8),\n",
      "    Message('note_on', channel=0, note=51, velocity=74, time=17),\n",
      "    Message('note_on', channel=0, note=79, velocity=68, time=0),\n",
      "    Message('note_on', channel=0, note=67, velocity=68, time=2),\n",
      "    Message('note_on', channel=0, note=70, velocity=69, time=0),\n",
      "    Message('note_on', channel=0, note=39, velocity=67, time=1),\n",
      "    Message('note_on', channel=0, note=75, velocity=66, time=0),\n",
      "    Message('control_change', channel=0, control=64, value=127, time=41),\n",
      "    Message('note_on', channel=0, note=75, velocity=0, time=223),\n",
      "    Message('note_on', channel=0, note=67, velocity=0, time=8),\n",
      "    Message('note_on', channel=0, note=70, velocity=0, time=0),\n",
      "    Message('note_on', channel=0, note=75, velocity=87, time=3),\n",
      "    Message('note_on', channel=0, note=70, velocity=78, time=3),\n",
      "    Message('note_on', channel=0, note=67, velocity=75, time=1),\n",
      "    Message('note_on', channel=0, note=51, velocity=0, time=0),\n",
      "    Message('note_on', channel=0, note=58, velocity=63, time=5),\n",
      "    Message('note_on', channel=0, note=51, velocity=59, time=2),\n",
      "    Message('note_on', channel=0, note=55, velocity=63, time=3),\n",
      "    Message('note_on', channel=0, note=67, velocity=0, time=175),\n",
      "    Message('note_on', channel=0, note=70, velocity=0, time=0),\n",
      "    Message('note_on', channel=0, note=77, velocity=89, time=2),\n",
      "    Message('note_on', channel=0, note=67, velocity=75, time=3),\n",
      "    Message('note_on', channel=0, note=70, velocity=78, time=1),\n",
      "    Message('note_on', channel=0, note=55, velocity=0, time=86),\n",
      "    Message('note_on', channel=0, note=58, velocity=0, time=0),\n",
      "    Message('note_on', channel=0, note=70, velocity=0, time=0),\n",
      "    Message('note_on', channel=0, note=55, velocity=51, time=4),\n",
      "    Message('note_on', channel=0, note=62, velocity=66, time=1),\n",
      "    Message('note_on', channel=0, note=58, velocity=57, time=0),\n",
      "    Message('note_on', channel=0, note=70, velocity=68, time=1),\n",
      "    Message('note_on', channel=0, note=75, velocity=0, time=48),\n",
      "    Message('note_on', channel=0, note=67, velocity=0, time=7),\n",
      "    Message('note_on', channel=0, note=70, velocity=0, time=0),\n",
      "    Message('note_on', channel=0, note=75, velocity=86, time=3),\n",
      "    Message('note_on', channel=0, note=67, velocity=73, time=2),\n",
      "    Message('note_on', channel=0, note=70, velocity=71, time=0),\n",
      "    Message('note_on', channel=0, note=55, velocity=0, time=26),\n",
      "    Message('note_on', channel=0, note=55, velocity=44, time=5),\n",
      "    Message('note_on', channel=0, note=51, velocity=0, time=110),\n",
      "    Message('note_on', channel=0, note=55, velocity=0, time=0),\n",
      "    Message('note_on', channel=0, note=58, velocity=0, time=0),\n",
      "    Message('note_on', channel=0, note=67, velocity=0, time=0),\n",
      "    Message('note_on', channel=0, note=70, velocity=0, time=0),\n",
      "    Message('note_on', channel=0, note=63, velocity=66, time=2),\n",
      "    Message('note_on', channel=0, note=58, velocity=62, time=3),\n",
      "    Message('note_on', channel=0, note=74, velocity=80, time=1),\n",
      "    Message('note_on', channel=0, note=51, velocity=61, time=0),\n",
      "    Message('note_on', channel=0, note=70, velocity=80, time=0),\n",
      "    Message('note_on', channel=0, note=55, velocity=66, time=2),\n",
      "    Message('note_on', channel=0, note=67, velocity=74, time=3),\n",
      "    Message('note_on', channel=0, note=51, velocity=0, time=151),\n",
      "    Message('note_on', channel=0, note=67, velocity=0, time=0),\n",
      "    Message('note_on', channel=0, note=70, velocity=0, time=0),\n",
      "    Message('note_on', channel=0, note=75, velocity=0, time=0),\n",
      "    Message('note_on', channel=0, note=75, velocity=87, time=4),\n",
      "    Message('note_on', channel=0, note=70, velocity=78, time=4),\n",
      "    Message('note_on', channel=0, note=67, velocity=80, time=1),\n",
      "    Message('note_on', channel=0, note=51, velocity=52, time=2),\n",
      "    Message('note_on', channel=0, note=51, velocity=0, time=58),\n",
      "    Message('note_on', channel=0, note=55, velocity=0, time=0),\n",
      "    Message('note_on', channel=0, note=58, velocity=0, time=0),\n",
      "    Message('note_on', channel=0, note=63, velocity=0, time=0),\n",
      "    Message('note_on', channel=0, note=58, velocity=63, time=4),\n",
      "    Message('note_on', channel=0, note=63, velocity=65, time=0),\n",
      "    Message('note_on', channel=0, note=55, velocity=50, time=2),\n",
      "    Message('note_on', channel=0, note=51, velocity=58, time=4),\n",
      "    Message('note_on', channel=0, note=67, velocity=0, time=74),\n",
      "    Message('note_on', channel=0, note=77, velocity=0, time=0),\n",
      "    Message('note_on', channel=0, note=70, velocity=0, time=8),\n",
      "    Message('note_on', channel=0, note=67, velocity=83, time=3),\n",
      "    Message('note_on', channel=0, note=77, velocity=90, time=0),\n",
      "    Message('note_on', channel=0, note=70, velocity=75, time=6),\n",
      "    Message('note_on', channel=0, note=51, velocity=0, time=175),\n",
      "    Message('note_on', channel=0, note=63, velocity=0, time=0),\n",
      "    Message('note_on', channel=0, note=67, velocity=0, time=0),\n",
      "    Message('note_on', channel=0, note=70, velocity=0, time=0),\n",
      "    Message('note_on', channel=0, note=79, velocity=0, time=0),\n",
      "    Message('note_on', channel=0, note=79, velocity=87, time=5),\n",
      "    Message('note_on', channel=0, note=63, velocity=50, time=1),\n",
      "    Message('note_on', channel=0, note=51, velocity=54, time=1),\n",
      "    Message('note_on', channel=0, note=58, velocity=0, time=1),\n",
      "    Message('note_on', channel=0, note=70, velocity=77, time=3),\n",
      "    Message('note_on', channel=0, note=67, velocity=72, time=0),\n",
      "    Message('note_on', channel=0, note=58, velocity=58, time=1),\n",
      "    Message('note_on', channel=0, note=67, velocity=0, time=203),\n",
      "    Message('note_on', channel=0, note=79, velocity=0, time=0),\n",
      "    Message('note_on', channel=0, note=79, velocity=88, time=7),\n",
      "    Message('note_on', channel=0, note=39, velocity=0, time=1),\n",
      "    Message('note_on', channel=0, note=72, velocity=82, time=3),\n",
      "    Message('note_on', channel=0, note=67, velocity=76, time=0),\n",
      "    Message('note_on', channel=0, note=39, velocity=52, time=2),\n",
      "    Message('note_on', channel=0, note=39, velocity=0, time=133),\n",
      "    Message('note_on', channel=0, note=62, velocity=0, time=4),\n",
      "    Message('note_on', channel=0, note=51, velocity=0, time=0),\n",
      "    Message('note_on', channel=0, note=63, velocity=0, time=0),\n",
      "    Message('note_on', channel=0, note=74, velocity=0, time=0),\n",
      "    Message('note_on', channel=0, note=70, velocity=0, time=1),\n",
      "    Message('note_on', channel=0, note=77, velocity=0, time=0),\n",
      "    Message('note_on', channel=0, note=58, velocity=0, time=0),\n",
      "    Message('note_on', channel=0, note=67, velocity=0, time=3),\n",
      "    Message('note_on', channel=0, note=72, velocity=0, time=0),\n",
      "    Message('note_on', channel=0, note=75, velocity=0, time=0),\n",
      "    Message('note_on', channel=0, note=79, velocity=0, time=0),\n",
      "    Message('note_on', channel=0, note=79, velocity=74, time=8),\n",
      "    Message('control_change', channel=0, control=64, value=0, time=1),\n",
      "    Message('note_on', channel=0, note=67, velocity=80, time=0),\n",
      "    Message('note_on', channel=0, note=72, velocity=76, time=1),\n",
      "    Message('note_on', channel=0, note=75, velocity=75, time=0),\n",
      "    Message('note_on', channel=0, note=68, velocity=77, time=2),\n",
      "    Message('note_on', channel=0, note=55, velocity=0, time=3),\n",
      "    Message('note_on', channel=0, note=44, velocity=80, time=1),\n",
      "    Message('note_on', channel=0, note=32, velocity=74, time=0),\n",
      "    Message('control_change', channel=0, control=64, value=127, time=84),\n",
      "    Message('note_on', channel=0, note=67, velocity=0, time=222),\n",
      "    Message('note_on', channel=0, note=68, velocity=0, time=0),\n",
      "    Message('note_on', channel=0, note=56, velocity=60, time=5),\n",
      "    Message('note_on', channel=0, note=68, velocity=71, time=1),\n",
      "    Message('note_on', channel=0, note=48, velocity=48, time=5),\n",
      "    Message('note_on', channel=0, note=67, velocity=68, time=1),\n",
      "    Message('note_on', channel=0, note=32, velocity=0, time=50),\n",
      "    Message('note_on', channel=0, note=67, velocity=0, time=115),\n",
      "    Message('note_on', channel=0, note=68, velocity=0, time=0),\n",
      "    Message('note_on', channel=0, note=44, velocity=0, time=8),\n",
      "    Message('note_on', channel=0, note=56, velocity=0, time=0),\n",
      "    Message('note_on', channel=0, note=68, velocity=78, time=1),\n",
      "    Message('note_on', channel=0, note=60, velocity=60, time=0),\n",
      "    Message('note_on', channel=0, note=67, velocity=72, time=1),\n",
      "    Message('note_on', channel=0, note=56, velocity=59, time=4),\n",
      "    Message('note_on', channel=0, note=51, velocity=48, time=1),\n",
      "    Message('note_on', channel=0, note=44, velocity=56, time=3),\n",
      "    Message('note_on', channel=0, note=72, velocity=0, time=151),\n",
      "    Message('note_on', channel=0, note=44, velocity=0, time=8),\n",
      "    Message('note_on', channel=0, note=48, velocity=0, time=0),\n",
      "    Message('note_on', channel=0, note=56, velocity=0, time=0),\n",
      "    Message('note_on', channel=0, note=60, velocity=0, time=0),\n",
      "    Message('note_on', channel=0, note=68, velocity=0, time=0),\n",
      "    Message('note_on', channel=0, note=72, velocity=87, time=1),\n",
      "    Message('note_on', channel=0, note=68, velocity=80, time=5),\n",
      "    Message('note_on', channel=0, note=48, velocity=59, time=1),\n",
      "    Message('note_on', channel=0, note=56, velocity=67, time=2),\n",
      "    Message('note_on', channel=0, note=44, velocity=61, time=1),\n",
      "    Message('note_on', channel=0, note=60, velocity=59, time=1),\n",
      "    Message('note_on', channel=0, note=60, velocity=0, time=181),\n",
      "    Message('note_on', channel=0, note=51, velocity=0, time=7),\n",
      "    Message('note_on', channel=0, note=60, velocity=55, time=4),\n",
      "    Message('note_on', channel=0, note=51, velocity=48, time=2),\n",
      "    Message('note_on', channel=0, note=44, velocity=0, time=2),\n",
      "    Message('note_on', channel=0, note=67, velocity=0, time=0),\n",
      "    Message('note_on', channel=0, note=68, velocity=0, time=0),\n",
      "    Message('note_on', channel=0, note=67, velocity=76, time=5),\n",
      "    Message('note_on', channel=0, note=68, velocity=71, time=0),\n",
      "    Message('note_on', channel=0, note=44, velocity=45, time=0),\n",
      "    Message('note_on', channel=0, note=56, velocity=0, time=256),\n",
      "    Message('note_on', channel=0, note=72, velocity=0, time=0),\n",
      "    Message('note_on', channel=0, note=72, velocity=85, time=6),\n",
      "    Message('note_on', channel=0, note=44, velocity=0, time=2),\n",
      "    Message('note_on', channel=0, note=51, velocity=0, time=0),\n",
      "    Message('note_on', channel=0, note=67, velocity=0, time=0),\n",
      "    Message('note_on', channel=0, note=56, velocity=61, time=2),\n",
      "    Message('note_on', channel=0, note=67, velocity=80, time=2),\n",
      "    Message('note_on', channel=0, note=51, velocity=46, time=0),\n",
      "    Message('note_on', channel=0, note=44, velocity=53, time=1),\n",
      "    Message('control_change', channel=0, control=64, value=0, time=159),\n",
      "    Message('note_on', channel=0, note=60, velocity=0, time=1),\n",
      "    Message('note_on', channel=0, note=51, velocity=0, time=0),\n",
      "    Message('note_on', channel=0, note=67, velocity=0, time=0),\n",
      "    Message('note_on', channel=0, note=56, velocity=0, time=1),\n",
      "    Message('note_on', channel=0, note=44, velocity=0, time=0),\n",
      "    Message('note_on', channel=0, note=48, velocity=0, time=18),\n",
      "    Message('note_on', channel=0, note=68, velocity=0, time=0),\n",
      "    Message('note_on', channel=0, note=72, velocity=0, time=0),\n",
      "    Message('note_on', channel=0, note=75, velocity=0, time=0),\n",
      "    Message('note_on', channel=0, note=79, velocity=0, time=0),\n",
      "    Message('note_on', channel=0, note=65, velocity=72, time=7),\n",
      "    Message('note_on', channel=0, note=72, velocity=84, time=1),\n",
      "    Message('note_on', channel=0, note=50, velocity=63, time=2),\n",
      "    Message('note_on', channel=0, note=68, velocity=79, time=1),\n",
      "    Message('note_on', channel=0, note=80, velocity=76, time=1),\n",
      "    Message('control_change', channel=0, control=64, value=127, time=65),\n",
      "    Message('note_on', channel=0, note=50, velocity=0, time=161),\n",
      "    Message('note_on', channel=0, note=72, velocity=0, time=8),\n",
      "    Message('note_on', channel=0, note=50, velocity=56, time=0),\n",
      "    Message('note_on', channel=0, note=68, velocity=0, time=8),\n",
      "    Message('note_on', channel=0, note=56, velocity=61, time=0),\n",
      "    Message('note_on', channel=0, note=72, velocity=63, time=3),\n",
      "    Message('note_on', channel=0, note=68, velocity=69, time=1),\n",
      "    Message('note_on', channel=0, note=56, velocity=0, time=172),\n",
      "    Message('note_on', channel=0, note=65, velocity=0, time=0),\n",
      "    Message('note_on', channel=0, note=68, velocity=0, time=0),\n",
      "    Message('note_on', channel=0, note=72, velocity=0, time=0),\n",
      "    Message('note_on', channel=0, note=60, velocity=59, time=4),\n",
      "    Message('note_on', channel=0, note=56, velocity=59, time=0),\n",
      "    Message('note_on', channel=0, note=72, velocity=62, time=4),\n",
      "    Message('note_on', channel=0, note=53, velocity=49, time=0),\n",
      "    Message('note_on', channel=0, note=68, velocity=70, time=0),\n",
      "    Message('note_on', channel=0, note=65, velocity=66, time=0),\n",
      "    Message('note_on', channel=0, note=77, velocity=89, time=197),\n",
      "    Message('note_on', channel=0, note=56, velocity=0, time=3),\n",
      "    Message('note_on', channel=0, note=68, velocity=0, time=0),\n",
      "    Message('note_on', channel=0, note=72, velocity=0, time=0),\n",
      "    Message('note_on', channel=0, note=72, velocity=73, time=5),\n",
      "    Message('note_on', channel=0, note=53, velocity=0, time=2),\n",
      "    Message('note_on', channel=0, note=65, velocity=0, time=0),\n",
      "    Message('note_on', channel=0, note=56, velocity=62, time=1),\n",
      "    Message('note_on', channel=0, note=68, velocity=70, time=1),\n",
      "    Message('note_on', channel=0, note=53, velocity=51, time=2),\n",
      "    Message('note_on', channel=0, note=65, velocity=61, time=2),\n",
      "    Message('note_on', channel=0, note=50, velocity=0, time=2),\n",
      "    Message('note_on', channel=0, note=50, velocity=50, time=4),\n",
      "    Message('note_on', channel=0, note=50, velocity=0, time=219),\n",
      "    Message('note_on', channel=0, note=56, velocity=0, time=0),\n",
      "    Message('note_on', channel=0, note=60, velocity=0, time=0),\n",
      "    Message('note_on', channel=0, note=72, velocity=0, time=0),\n",
      "    Message('note_on', channel=0, note=56, velocity=53, time=4),\n",
      "    Message('note_on', channel=0, note=53, velocity=0, time=3),\n",
      "    Message('note_on', channel=0, note=65, velocity=0, time=0),\n",
      "    Message('note_on', channel=0, note=68, velocity=0, time=0),\n",
      "    Message('note_on', channel=0, note=60, velocity=48, time=3),\n",
      "    Message('note_on', channel=0, note=50, velocity=40, time=1),\n",
      "    Message('note_on', channel=0, note=72, velocity=64, time=0),\n",
      "    Message('note_on', channel=0, note=68, velocity=66, time=2),\n",
      "    Message('note_on', channel=0, note=65, velocity=59, time=4),\n",
      "    Message('note_on', channel=0, note=53, velocity=42, time=0),\n",
      "    Message('note_on', channel=0, note=50, velocity=0, time=267),\n",
      "    Message('note_on', channel=0, note=65, velocity=0, time=0),\n",
      "    Message('note_on', channel=0, note=68, velocity=0, time=0),\n",
      "    Message('note_on', channel=0, note=72, velocity=0, time=0),\n",
      "    Message('note_on', channel=0, note=75, velocity=90, time=0),\n",
      "    Message('note_on', channel=0, note=56, velocity=0, time=3),\n",
      "    Message('note_on', channel=0, note=72, velocity=77, time=1),\n",
      "    Message('note_on', channel=0, note=53, velocity=0, time=3),\n",
      "    Message('note_on', channel=0, note=68, velocity=71, time=1),\n",
      "    Message('note_on', channel=0, note=50, velocity=47, time=3),\n",
      "    Message('note_on', channel=0, note=65, velocity=58, time=0),\n",
      "    Message('note_on', channel=0, note=53, velocity=53, time=6),\n",
      "    Message('note_on', channel=0, note=60, velocity=0, time=224),\n",
      "    Message('note_on', channel=0, note=53, velocity=0, time=0),\n",
      "    Message('note_on', channel=0, note=77, velocity=0, time=0),\n",
      "    Message('note_on', channel=0, note=50, velocity=0, time=0),\n",
      "    Message('control_change', channel=0, control=64, value=0, time=3),\n",
      "    Message('note_on', channel=0, note=80, velocity=0, time=2),\n",
      "    Message('note_on', channel=0, note=75, velocity=0, time=7),\n",
      "    Message('note_on', channel=0, note=75, velocity=86, time=6),\n",
      "    Message('note_on', channel=0, note=65, velocity=0, time=2),\n",
      "    Message('note_on', channel=0, note=68, velocity=0, time=0),\n",
      "    Message('note_on', channel=0, note=72, velocity=0, time=0),\n",
      "    Message('note_on', channel=0, note=31, velocity=62, time=6),\n",
      "    Message('note_on', channel=0, note=72, velocity=66, time=2),\n",
      "    Message('note_on', channel=0, note=65, velocity=66, time=2),\n",
      "    Message('note_on', channel=0, note=43, velocity=61, time=0),\n",
      "    Message('note_on', channel=0, note=68, velocity=66, time=1),\n",
      "    Message('note_on', channel=0, note=31, velocity=0, time=54),\n",
      "    Message('control_change', channel=0, control=64, value=127, time=27),\n",
      "    Message('note_on', channel=0, note=68, velocity=0, time=207),\n",
      "    Message('note_on', channel=0, note=72, velocity=0, time=0),\n",
      "    Message('note_on', channel=0, note=68, velocity=66, time=8),\n",
      "    Message('note_on', channel=0, note=65, velocity=0, time=0),\n",
      "    Message('note_on', channel=0, note=72, velocity=66, time=4),\n",
      "    Message('note_on', channel=0, note=50, velocity=45, time=0),\n",
      "    Message('note_on', channel=0, note=65, velocity=55, time=1),\n",
      "    Message('note_on', channel=0, note=56, velocity=59, time=1),\n",
      "    Message('note_on', channel=0, note=56, velocity=0, time=178),\n",
      "    Message('note_on', channel=0, note=65, velocity=0, time=0),\n",
      "    Message('note_on', channel=0, note=68, velocity=0, time=0),\n",
      "    Message('note_on', channel=0, note=72, velocity=0, time=0),\n",
      "    Message('note_on', channel=0, note=60, velocity=64, time=7),\n",
      "    Message('note_on', channel=0, note=72, velocity=66, time=1),\n",
      "    Message('note_on', channel=0, note=65, velocity=59, time=3),\n",
      "    Message('note_on', channel=0, note=56, velocity=59, time=1),\n",
      "    Message('note_on', channel=0, note=68, velocity=61, time=0),\n",
      "    Message('note_on', channel=0, note=53, velocity=53, time=1),\n",
      "    Message('note_on', channel=0, note=50, velocity=0, time=156),\n",
      "    Message('note_on', channel=0, note=65, velocity=0, time=0),\n",
      "    Message('note_on', channel=0, note=68, velocity=0, time=3),\n",
      "    Message('note_on', channel=0, note=53, velocity=0, time=1),\n",
      "    Message('note_on', channel=0, note=72, velocity=0, time=0),\n",
      "    Message('note_on', channel=0, note=60, velocity=0, time=0),\n",
      "    Message('note_on', channel=0, note=56, velocity=0, time=0),\n",
      "    Message('note_on', channel=0, note=71, velocity=70, time=1),\n",
      "    Message('control_change', channel=0, control=64, value=0, time=0),\n",
      "    Message('note_on', channel=0, note=75, velocity=0, time=3),\n",
      "    Message('note_on', channel=0, note=59, velocity=57, time=1),\n",
      "    Message('note_on', channel=0, note=50, velocity=53, time=1),\n",
      "    Message('note_on', channel=0, note=65, velocity=67, time=0),\n",
      "    Message('note_on', channel=0, note=55, velocity=59, time=3),\n",
      "    Message('note_on', channel=0, note=67, velocity=65, time=0),\n",
      "    Message('control_change', channel=0, control=64, value=127, time=72),\n",
      "    Message('note_on', channel=0, note=55, velocity=0, time=92),\n",
      "    Message('note_on', channel=0, note=59, velocity=0, time=8),\n",
      "    Message('note_on', channel=0, note=55, velocity=52, time=3),\n",
      "    Message('note_on', channel=0, note=59, velocity=58, time=1),\n",
      "    Message('note_on', channel=0, note=71, velocity=0, time=3),\n",
      "    Message('note_on', channel=0, note=65, velocity=0, time=8),\n",
      "    Message('note_on', channel=0, note=67, velocity=0, time=0),\n",
      "    Message('note_on', channel=0, note=71, velocity=64, time=0),\n",
      "    Message('note_on', channel=0, note=65, velocity=73, time=8),\n",
      "    Message('note_on', channel=0, note=67, velocity=65, time=3),\n",
      "    Message('note_on', channel=0, note=65, velocity=0, time=219),\n",
      "    Message('note_on', channel=0, note=67, velocity=0, time=0),\n",
      "    Message('note_on', channel=0, note=71, velocity=0, time=0),\n",
      "    Message('note_on', channel=0, note=74, velocity=83, time=4),\n",
      "    Message('control_change', channel=0, control=64, value=0, time=3),\n",
      "    Message('note_on', channel=0, note=43, velocity=0, time=1),\n",
      "    Message('note_on', channel=0, note=71, velocity=70, time=1),\n",
      "    Message('note_on', channel=0, note=65, velocity=72, time=1),\n",
      "    Message('note_on', channel=0, note=67, velocity=71, time=1),\n",
      "    Message('note_on', channel=0, note=43, velocity=59, time=1),\n",
      "    Message('note_on', channel=0, note=31, velocity=61, time=0),\n",
      "    Message('note_on', channel=0, note=55, velocity=0, time=4),\n",
      "    Message('control_change', channel=0, control=64, value=127, time=31),\n",
      "    Message('note_on', channel=0, note=50, velocity=0, time=216),\n",
      "    Message('note_on', channel=0, note=74, velocity=0, time=0),\n",
      "    Message('note_on', channel=0, note=43, velocity=0, time=1),\n",
      "    Message('control_change', channel=0, control=64, value=0, time=1),\n",
      "    Message('note_on', channel=0, note=31, velocity=0, time=4),\n",
      "    Message('note_on', channel=0, note=59, velocity=0, time=0),\n",
      "    Message('note_on', channel=0, note=63, velocity=71, time=6),\n",
      "    Message('note_on', channel=0, note=65, velocity=0, time=2),\n",
      "    Message('note_on', channel=0, note=67, velocity=0, time=0),\n",
      "    Message('note_on', channel=0, note=68, velocity=68, time=1),\n",
      "    Message('note_on', channel=0, note=44, velocity=71, time=3),\n",
      "    Message('note_on', channel=0, note=32, velocity=67, time=1),\n",
      "    Message('note_on', channel=0, note=71, velocity=0, time=3),\n",
      "    Message('note_on', channel=0, note=32, velocity=0, time=44),\n",
      "    Message('control_change', channel=0, control=64, value=127, time=25),\n",
      "    Message('note_on', channel=0, note=63, velocity=0, time=199),\n",
      "    Message('note_on', channel=0, note=68, velocity=0, time=0),\n",
      "    Message('note_on', channel=0, note=72, velocity=80, time=6),\n",
      "    Message('note_on', channel=0, note=68, velocity=73, time=5),\n",
      "    Message('note_on', channel=0, note=63, velocity=68, time=1),\n",
      "    Message('note_on', channel=0, note=44, velocity=0, time=65),\n",
      "    Message('note_on', channel=0, note=56, velocity=57, time=5),\n",
      "    Message('note_on', channel=0, note=48, velocity=52, time=1),\n",
      "    Message('note_on', channel=0, note=44, velocity=53, time=3),\n",
      "    Message('note_on', channel=0, note=63, velocity=0, time=106),\n",
      "    Message('note_on', channel=0, note=74, velocity=77, time=4),\n",
      "    Message('note_on', channel=0, note=68, velocity=0, time=4),\n",
      "    Message('note_on', channel=0, note=63, velocity=66, time=4),\n",
      "    Message('note_on', channel=0, note=68, velocity=68, time=0),\n",
      "    Message('note_on', channel=0, note=56, velocity=0, time=11),\n",
      "    Message('note_on', channel=0, note=56, velocity=41, time=5),\n",
      "    Message('note_on', channel=0, note=60, velocity=57, time=97),\n",
      "    Message('note_on', channel=0, note=72, velocity=0, time=21),\n",
      "    Message('note_on', channel=0, note=72, velocity=76, time=7),\n",
      "    Message('note_on', channel=0, note=63, velocity=0, time=1),\n",
      "    Message('note_on', channel=0, note=68, velocity=0, time=8),\n",
      "    Message('note_on', channel=0, note=63, velocity=71, time=1),\n",
      "    Message('note_on', channel=0, note=51, velocity=54, time=1),\n",
      "    Message('note_on', channel=0, note=56, velocity=0, time=5),\n",
      "    Message('note_on', channel=0, note=68, velocity=70, time=3),\n",
      "    Message('note_on', channel=0, note=56, velocity=40, time=3),\n",
      "    Message('note_on', channel=0, note=71, velocity=77, time=138),\n",
      "    Message('note_on', channel=0, note=48, velocity=0, time=2),\n",
      "    Message('note_on', channel=0, note=56, velocity=0, time=0),\n",
      "    Message('note_on', channel=0, note=63, velocity=0, time=0),\n",
      "    Message('note_on', channel=0, note=68, velocity=0, time=0),\n",
      "    Message('note_on', channel=0, note=48, velocity=58, time=4),\n",
      "    Message('note_on', channel=0, note=56, velocity=56, time=1),\n",
      "    Message('note_on', channel=0, note=63, velocity=71, time=0),\n",
      "    Message('note_on', channel=0, note=68, velocity=72, time=5),\n",
      "    Message('note_on', channel=0, note=60, velocity=0, time=121),\n",
      "    Message('note_on', channel=0, note=72, velocity=0, time=8),\n",
      "    Message('note_on', channel=0, note=60, velocity=53, time=0),\n",
      "    Message('note_on', channel=0, note=63, velocity=0, time=7),\n",
      "    Message('note_on', channel=0, note=72, velocity=77, time=2),\n",
      "    Message('note_on', channel=0, note=68, velocity=0, time=6),\n",
      "    Message('note_on', channel=0, note=63, velocity=63, time=3),\n",
      "    Message('note_on', channel=0, note=56, velocity=0, time=5),\n",
      "    Message('note_on', channel=0, note=68, velocity=75, time=0),\n",
      "    Message('note_on', channel=0, note=56, velocity=48, time=5),\n",
      "    Message('note_on', channel=0, note=63, velocity=0, time=140),\n",
      "    Message('note_on', channel=0, note=74, velocity=0, time=0),\n",
      "    Message('note_on', channel=0, note=74, velocity=81, time=7),\n",
      "    Message('note_on', channel=0, note=68, velocity=0, time=1),\n",
      "    Message('note_on', channel=0, note=63, velocity=67, time=4),\n",
      "    Message('note_on', channel=0, note=68, velocity=72, time=2),\n",
      "    Message('note_on', channel=0, note=44, velocity=0, time=79),\n",
      "    Message('note_on', channel=0, note=44, velocity=75, time=11),\n",
      "    Message('note_on', channel=0, note=32, velocity=71, time=1),\n",
      "    Message('note_on', channel=0, note=63, velocity=0, time=80),\n",
      "    Message('note_on', channel=0, note=68, velocity=0, time=7),\n",
      "    Message('note_on', channel=0, note=75, velocity=89, time=2),\n",
      "    Message('note_on', channel=0, note=63, velocity=78, time=2),\n",
      "    Message('note_on', channel=0, note=68, velocity=59, time=2),\n",
      "    Message('note_on', channel=0, note=73, velocity=58, time=3),\n",
      "    Message('note_on', channel=0, note=73, velocity=0, time=7),\n",
      "    Message('note_on', channel=0, note=60, velocity=0, time=207),\n",
      "    Message('control_change', channel=0, control=64, value=0, time=4),\n",
      "    Message('note_on', channel=0, note=67, velocity=88, time=5),\n",
      "    Message('note_on', channel=0, note=60, velocity=76, time=2),\n",
      "    Message('note_on', channel=0, note=55, velocity=84, time=0),\n",
      "    Message('note_on', channel=0, note=71, velocity=0, time=1),\n",
      "    Message('note_on', channel=0, note=68, velocity=0, time=2),\n",
      "    Message('note_on', channel=0, note=75, velocity=0, time=0),\n",
      "    Message('note_on', channel=0, note=48, velocity=0, time=0),\n",
      "    Message('note_on', channel=0, note=39, velocity=77, time=1),\n",
      "    Message('note_on', channel=0, note=56, velocity=0, time=1),\n",
      "    Message('note_on', channel=0, note=74, velocity=0, time=1),\n",
      "    Message('note_on', channel=0, note=27, velocity=89, time=2),\n",
      "    Message('note_on', channel=0, note=32, velocity=0, time=7),\n",
      "    Message('note_on', channel=0, note=44, velocity=0, time=5),\n",
      "    Message('note_on', channel=0, note=72, velocity=0, time=8),\n",
      "    Message('note_on', channel=0, note=27, velocity=0, time=34),\n",
      "    Message('control_change', channel=0, control=64, value=127, time=12),\n",
      "    Message('note_on', channel=0, note=51, velocity=0, time=138),\n",
      "    Message('note_on', channel=0, note=60, velocity=0, time=84),\n",
      "    Message('note_on', channel=0, note=63, velocity=0, time=8),\n",
      "    Message('note_on', channel=0, note=67, velocity=0, time=0),\n",
      "    Message('note_on', channel=0, note=60, velocity=66, time=2),\n",
      "    Message('note_on', channel=0, note=63, velocity=57, time=3),\n",
      "    Message('note_on', channel=0, note=67, velocity=59, time=0),\n",
      "    Message('note_on', channel=0, note=55, velocity=0, time=3),\n",
      "    Message('note_on', channel=0, note=51, velocity=56, time=1),\n",
      "    Message('note_on', channel=0, note=55, velocity=51, time=3),\n",
      "    Message('note_on', channel=0, note=60, velocity=0, time=165),\n",
      "    Message('note_on', channel=0, note=60, velocity=55, time=10),\n",
      "    Message('note_on', channel=0, note=55, velocity=0, time=13),\n",
      "    Message('note_on', channel=0, note=63, velocity=0, time=0),\n",
      "    Message('note_on', channel=0, note=55, velocity=55, time=5),\n",
      "    Message('note_on', channel=0, note=63, velocity=79, time=6),\n",
      "    Message('note_on', channel=0, note=51, velocity=0, time=4),\n",
      "    Message('note_on', channel=0, note=51, velocity=45, time=5),\n",
      "    Message('note_on', channel=0, note=55, velocity=0, time=249),\n",
      "    Message('note_on', channel=0, note=55, velocity=54, time=6),\n",
      "    Message('note_on', channel=0, note=51, velocity=0, time=1),\n",
      "    Message('note_on', channel=0, note=84, velocity=92, time=1),\n",
      "    Message('note_on', channel=0, note=60, velocity=0, time=7),\n",
      "    Message('note_on', channel=0, note=72, velocity=89, time=1),\n",
      "    Message('note_on', channel=0, note=51, velocity=62, time=1),\n",
      "    Message('note_on', channel=0, note=79, velocity=85, time=0),\n",
      "    Message('note_on', channel=0, note=60, velocity=66, time=3),\n",
      "    Message('note_on', channel=0, note=72, velocity=0, time=241),\n",
      "    Message('note_on', channel=0, note=55, velocity=0, time=7),\n",
      "    Message('note_on', channel=0, note=60, velocity=0, time=0),\n",
      "    Message('note_on', channel=0, note=67, velocity=0, time=0),\n",
      "    Message('note_on', channel=0, note=79, velocity=0, time=0),\n",
      "    Message('note_on', channel=0, note=72, velocity=73, time=3),\n",
      "    Message('note_on', channel=0, note=67, velocity=69, time=2),\n",
      "    Message('note_on', channel=0, note=79, velocity=73, time=1),\n",
      "    Message('note_on', channel=0, note=60, velocity=40, time=0),\n",
      "    Message('note_on', channel=0, note=55, velocity=51, time=3),\n",
      "    Message('note_on', channel=0, note=60, velocity=0, time=206),\n",
      "    Message('note_on', channel=0, note=67, velocity=0, time=0),\n",
      "    Message('note_on', channel=0, note=72, velocity=0, time=8),\n",
      "    Message('note_on', channel=0, note=79, velocity=0, time=0),\n",
      "    Message('note_on', channel=0, note=60, velocity=50, time=1),\n",
      "    Message('note_on', channel=0, note=67, velocity=59, time=2),\n",
      "    Message('note_on', channel=0, note=79, velocity=86, time=5),\n",
      "    Message('note_on', channel=0, note=72, velocity=77, time=2),\n",
      "    Message('control_change', channel=0, control=64, value=0, time=231),\n",
      "    Message('note_on', channel=0, note=60, velocity=0, time=1),\n",
      "    Message('note_on', channel=0, note=63, velocity=0, time=0),\n",
      "    Message('note_on', channel=0, note=67, velocity=0, time=1),\n",
      "    Message('note_on', channel=0, note=79, velocity=0, time=0),\n",
      "    Message('note_on', channel=0, note=39, velocity=0, time=3),\n",
      "    Message('note_on', channel=0, note=51, velocity=0, time=15),\n",
      "    Message('note_on', channel=0, note=55, velocity=0, time=0),\n",
      "    Message('note_on', channel=0, note=72, velocity=0, time=8),\n",
      "    Message('note_on', channel=0, note=84, velocity=0, time=0),\n",
      "    Message('note_on', channel=0, note=84, velocity=93, time=8),\n",
      "    Message('note_on', channel=0, note=72, velocity=82, time=3),\n",
      "    Message('note_on', channel=0, note=41, velocity=81, time=2),\n",
      "    Message('note_on', channel=0, note=74, velocity=81, time=1),\n",
      "    Message('note_on', channel=0, note=29, velocity=84, time=3),\n",
      "    Message('control_change', channel=0, control=64, value=127, time=21),\n",
      "    Message('note_on', channel=0, note=72, velocity=0, time=277),\n",
      "    Message('note_on', channel=0, note=74, velocity=0, time=0),\n",
      "    Message('note_on', channel=0, note=84, velocity=0, time=0),\n",
      "    Message('note_on', channel=0, note=83, velocity=92, time=4),\n",
      "    Message('note_on', channel=0, note=72, velocity=81, time=5),\n",
      "    Message('note_on', channel=0, note=84, velocity=84, time=1),\n",
      "    Message('note_on', channel=0, note=74, velocity=80, time=0),\n",
      "    Message('note_on', channel=0, note=67, velocity=67, time=2),\n",
      "    Message('note_on', channel=0, note=67, velocity=0, time=11),\n",
      "    Message('note_on', channel=0, note=53, velocity=42, time=28),\n",
      "    Message('note_on', channel=0, note=62, velocity=47, time=4),\n",
      "    Message('note_on', channel=0, note=72, velocity=0, time=144),\n",
      "    Message('note_on', channel=0, note=74, velocity=0, time=0),\n",
      "    Message('note_on', channel=0, note=82, velocity=94, time=4),\n",
      "    Message('note_on', channel=0, note=72, velocity=87, time=1),\n",
      "    Message('note_on', channel=0, note=74, velocity=82, time=0),\n",
      "    Message('note_on', channel=0, note=70, velocity=74, time=2),\n",
      "    Message('note_on', channel=0, note=62, velocity=0, time=1),\n",
      "    Message('note_on', channel=0, note=60, velocity=55, time=4),\n",
      "    Message('note_on', channel=0, note=62, velocity=61, time=0),\n",
      "    Message('note_on', channel=0, note=70, velocity=0, time=4),\n",
      "    Message('note_on', channel=0, note=68, velocity=61, time=122),\n",
      "    Message('note_on', channel=0, note=60, velocity=0, time=1),\n",
      "    Message('note_on', channel=0, note=60, velocity=57, time=8),\n",
      "    Message('note_on', channel=0, note=74, velocity=0, time=30),\n",
      "    Message('note_on', channel=0, note=81, velocity=91, time=3),\n",
      "    Message('note_on', channel=0, note=74, velocity=84, time=6),\n",
      "    Message('note_on', channel=0, note=84, velocity=0, time=152),\n",
      "    Message('note_on', channel=0, note=68, velocity=0, time=8),\n",
      "    Message('note_on', channel=0, note=72, velocity=0, time=0),\n",
      "    Message('note_on', channel=0, note=84, velocity=78, time=2),\n",
      "    Message('note_on', channel=0, note=80, velocity=88, time=1),\n",
      "    Message('note_on', channel=0, note=72, velocity=87, time=1),\n",
      "    Message('note_on', channel=0, note=62, velocity=0, time=4),\n",
      "    Message('note_on', channel=0, note=68, velocity=68, time=0),\n",
      "    Message('note_on', channel=0, note=53, velocity=0, time=7),\n",
      "    Message('note_on', channel=0, note=62, velocity=66, time=0),\n",
      "    Message('note_on', channel=0, note=53, velocity=54, time=10),\n",
      "    Message('note_on', channel=0, note=84, velocity=0, time=144),\n",
      "    Message('note_on', channel=0, note=77, velocity=86, time=7),\n",
      "    Message('note_on', channel=0, note=72, velocity=0, time=1),\n",
      "    Message('note_on', channel=0, note=84, velocity=69, time=3),\n",
      "    Message('note_on', channel=0, note=72, velocity=72, time=4),\n",
      "    Message('note_on', channel=0, note=68, velocity=0, time=0),\n",
      "    Message('note_on', channel=0, note=68, velocity=68, time=4),\n",
      "    Message('note_on', channel=0, note=62, velocity=0, time=73),\n",
      "    Message('note_on', channel=0, note=62, velocity=58, time=4),\n",
      "    Message('note_on', channel=0, note=60, velocity=0, time=12),\n",
      "    Message('note_on', channel=0, note=60, velocity=53, time=3),\n",
      "    Message('note_on', channel=0, note=72, velocity=0, time=58),\n",
      "    Message('note_on', channel=0, note=60, velocity=0, time=8),\n",
      "    Message('note_on', channel=0, note=68, velocity=0, time=0),\n",
      "    Message('note_on', channel=0, note=72, velocity=81, time=3),\n",
      "    Message('note_on', channel=0, note=68, velocity=72, time=2),\n",
      "    Message('note_on', channel=0, note=65, velocity=73, time=1),\n",
      "    Message('note_on', channel=0, note=53, velocity=0, time=1),\n",
      "    Message('note_on', channel=0, note=56, velocity=60, time=2),\n",
      "    Message('note_on', channel=0, note=60, velocity=54, time=1),\n",
      "    Message('note_on', channel=0, note=53, velocity=53, time=9),\n",
      "    Message('note_on', channel=0, note=56, velocity=0, time=80),\n",
      "    Message('note_on', channel=0, note=56, velocity=50, time=10),\n",
      "    Message('note_on', channel=0, note=74, velocity=0, time=60),\n",
      "    Message('note_on', channel=0, note=65, velocity=0, time=7),\n",
      "    Message('note_on', channel=0, note=74, velocity=89, time=3),\n",
      "    Message('note_on', channel=0, note=65, velocity=73, time=3),\n",
      "    Message('note_on', channel=0, note=72, velocity=0, time=2),\n",
      "    Message('note_on', channel=0, note=72, velocity=61, time=5),\n",
      "    Message('note_on', channel=0, note=83, velocity=0, time=153),\n",
      "    Message('note_on', channel=0, note=82, velocity=0, time=1),\n",
      "    Message('note_on', channel=0, note=84, velocity=0, time=1),\n",
      "    Message('note_on', channel=0, note=56, velocity=0, time=1),\n",
      "    Message('note_on', channel=0, note=68, velocity=0, time=1),\n",
      "    Message('note_on', channel=0, note=62, velocity=0, time=0),\n",
      "    Message('note_on', channel=0, note=60, velocity=0, time=0),\n",
      "    Message('note_on', channel=0, note=53, velocity=0, time=0),\n",
      "    Message('note_on', channel=0, note=74, velocity=0, time=0),\n",
      "    Message('note_on', channel=0, note=77, velocity=0, time=0),\n",
      "    Message('note_on', channel=0, note=80, velocity=0, time=1),\n",
      "    Message('note_on', channel=0, note=81, velocity=0, time=0),\n",
      "    Message('note_on', channel=0, note=65, velocity=0, time=0),\n",
      "    Message('control_change', channel=0, control=64, value=0, time=1),\n",
      "    Message('note_on', channel=0, note=76, velocity=82, time=1),\n",
      "    Message('note_on', channel=0, note=29, velocity=0, time=4),\n",
      "    Message('note_on', channel=0, note=72, velocity=0, time=0),\n",
      "    Message('note_on', channel=0, note=64, velocity=81, time=4),\n",
      "    Message('note_on', channel=0, note=72, velocity=76, time=0),\n",
      "    Message('note_on', channel=0, note=41, velocity=0, time=4),\n",
      "    Message('note_on', channel=0, note=43, velocity=82, time=0),\n",
      "    Message('note_on', channel=0, note=31, velocity=77, time=2),\n",
      "    Message('note_on', channel=0, note=70, velocity=77, time=1),\n",
      "    Message('note_on', channel=0, note=31, velocity=0, time=40),\n",
      "    Message('control_change', channel=0, control=64, value=127, time=18),\n",
      "    Message('note_on', channel=0, note=70, velocity=0, time=154),\n",
      "    Message('note_on', channel=0, note=72, velocity=0, time=0),\n",
      "    Message('note_on', channel=0, note=77, velocity=85, time=8),\n",
      "    Message('note_on', channel=0, note=72, velocity=81, time=1),\n",
      "    Message('note_on', channel=0, note=65, velocity=73, time=1),\n",
      "    Message('note_on', channel=0, note=70, velocity=79, time=1),\n",
      "    Message('note_on', channel=0, note=55, velocity=48, time=73),\n",
      "    Message('note_on', channel=0, note=60, velocity=64, time=4),\n",
      "    Message('note_on', channel=0, note=76, velocity=0, time=88),\n",
      "    Message('note_on', channel=0, note=60, velocity=0, time=8),\n",
      "    Message('note_on', channel=0, note=64, velocity=0, time=0),\n",
      "    Message('note_on', channel=0, note=70, velocity=0, time=0),\n",
      "    Message('note_on', channel=0, note=72, velocity=0, time=0),\n",
      "    Message('note_on', channel=0, note=76, velocity=83, time=3),\n",
      "    Message('note_on', channel=0, note=70, velocity=82, time=1),\n",
      "    Message('note_on', channel=0, note=64, velocity=73, time=4),\n",
      "    Message('note_on', channel=0, note=72, velocity=80, time=1),\n",
      "    Message('note_on', channel=0, note=60, velocity=57, time=1),\n",
      "    Message('note_on', channel=0, note=65, velocity=0, time=5),\n",
      "    Message('note_on', channel=0, note=65, velocity=64, time=7),\n",
      "    Message('note_on', channel=0, note=72, velocity=0, time=124),\n",
      "    Message('note_on', channel=0, note=72, velocity=74, time=4),\n",
      "    Message('note_on', channel=0, note=74, velocity=80, time=2),\n",
      "    Message('note_on', channel=0, note=62, velocity=78, time=1),\n",
      "    Message('note_on', channel=0, note=70, velocity=0, time=1),\n",
      "    Message('note_on', channel=0, note=70, velocity=81, time=7),\n",
      "    Message('note_on', channel=0, note=58, velocity=62, time=2),\n",
      "    Message('note_on', channel=0, note=65, velocity=0, time=6),\n",
      "    Message('note_on', channel=0, note=65, velocity=57, time=5),\n",
      "    Message('note_on', channel=0, note=64, velocity=0, time=3),\n",
      "    Message('note_on', channel=0, note=64, velocity=57, time=4),\n",
      "    Message('note_on', channel=0, note=76, velocity=0, time=118),\n",
      "    Message('note_on', channel=0, note=76, velocity=84, time=7),\n",
      "    Message('note_on', channel=0, note=55, velocity=0, time=1),\n",
      "    Message('note_on', channel=0, note=60, velocity=0, time=0),\n",
      "    Message('note_on', channel=0, note=64, velocity=0, time=0),\n",
      "    Message('note_on', channel=0, note=70, velocity=0, time=0),\n",
      "    Message('note_on', channel=0, note=72, velocity=0, time=0),\n",
      "    Message('note_on', channel=0, note=64, velocity=70, time=4),\n",
      "    Message('note_on', channel=0, note=72, velocity=72, time=1),\n",
      "    Message('note_on', channel=0, note=70, velocity=76, time=0),\n",
      "    Message('note_on', channel=0, note=60, velocity=66, time=0),\n",
      "    Message('note_on', channel=0, note=55, velocity=61, time=7),\n",
      "    Message('note_on', channel=0, note=73, velocity=68, time=0),\n",
      "    Message('note_on', channel=0, note=65, velocity=0, time=142),\n",
      "    Message('note_on', channel=0, note=77, velocity=0, time=0),\n",
      "    Message('note_on', channel=0, note=77, velocity=90, time=4),\n",
      "    Message('note_on', channel=0, note=65, velocity=56, time=2),\n",
      "    Message('note_on', channel=0, note=72, velocity=0, time=1),\n",
      "    Message('note_on', channel=0, note=72, velocity=69, time=7),\n",
      "    Message('note_on', channel=0, note=70, velocity=0, time=40),\n",
      "    Message('note_on', channel=0, note=67, velocity=62, time=3),\n",
      "    Message('note_on', channel=0, note=70, velocity=66, time=6),\n",
      "    Message('note_on', channel=0, note=80, velocity=93, time=110),\n",
      "    Message('note_on', channel=0, note=72, velocity=0, time=3),\n",
      "    Message('note_on', channel=0, note=76, velocity=0, time=0),\n",
      "    Message('note_on', channel=0, note=75, velocity=72, time=3),\n",
      "    Message('note_on', channel=0, note=72, velocity=81, time=3),\n",
      "    Message('note_on', channel=0, note=76, velocity=71, time=1),\n",
      "    Message('note_on', channel=0, note=75, velocity=0, time=1),\n",
      "    Message('note_on', channel=0, note=55, velocity=0, time=8),\n",
      "    Message('note_on', channel=0, note=70, velocity=0, time=0),\n",
      "    Message('note_on', channel=0, note=70, velocity=63, time=7),\n",
      "    Message('note_on', channel=0, note=55, velocity=55, time=1),\n",
      "    Message('note_on', channel=0, note=79, velocity=90, time=159),\n",
      "    Message('note_on', channel=0, note=70, velocity=0, time=2),\n",
      "    Message('note_on', channel=0, note=70, velocity=73, time=4),\n",
      "    Message('note_on', channel=0, note=75, velocity=51, time=19),\n",
      "    Message('note_on', channel=0, note=72, velocity=0, time=138),\n",
      "    Message('note_on', channel=0, note=43, velocity=0, time=8),\n",
      "    Message('note_on', channel=0, note=65, velocity=0, time=0),\n",
      "    Message('note_on', channel=0, note=77, velocity=0, time=0),\n",
      "    Message('note_on', channel=0, note=72, velocity=87, time=2),\n",
      "    Message('note_on', channel=0, note=64, velocity=0, time=1),\n",
      "    Message('note_on', channel=0, note=76, velocity=0, time=1),\n",
      "    Message('note_on', channel=0, note=55, velocity=0, time=0),\n",
      "    Message('note_on', channel=0, note=60, velocity=0, time=0),\n",
      "    Message('note_on', channel=0, note=62, velocity=0, time=0),\n",
      "    Message('note_on', channel=0, note=74, velocity=0, time=0),\n",
      "    Message('note_on', channel=0, note=58, velocity=0, time=0),\n",
      "    Message('note_on', channel=0, note=65, velocity=70, time=0),\n",
      "    Message('note_on', channel=0, note=77, velocity=72, time=0),\n",
      "    Message('note_on', channel=0, note=67, velocity=0, time=0),\n",
      "    Message('note_on', channel=0, note=70, velocity=0, time=0),\n",
      "    Message('note_on', channel=0, note=44, velocity=80, time=0),\n",
      "    Message('note_on', channel=0, note=32, velocity=80, time=0),\n",
      "    Message('note_on', channel=0, note=80, velocity=0, time=1),\n",
      "    Message('note_on', channel=0, note=75, velocity=0, time=0),\n",
      "    Message('control_change', channel=0, control=64, value=0, time=1),\n",
      "    Message('note_on', channel=0, note=73, velocity=0, time=9),\n",
      "    Message('note_on', channel=0, note=79, velocity=0, time=8),\n",
      "    Message('note_on', channel=0, note=32, velocity=0, time=36),\n",
      "    Message('control_change', channel=0, control=64, value=127, time=2),\n",
      "    Message('note_on', channel=0, note=65, velocity=0, time=146),\n",
      "    Message('note_on', channel=0, note=72, velocity=0, time=0),\n",
      "    Message('note_on', channel=0, note=77, velocity=0, time=0),\n",
      "    Message('note_on', channel=0, note=72, velocity=79, time=4),\n",
      "    Message('note_on', channel=0, note=76, velocity=78, time=1),\n",
      "    Message('note_on', channel=0, note=77, velocity=75, time=1),\n",
      "    Message('note_on', channel=0, note=65, velocity=74, time=1),\n",
      "    Message('note_on', channel=0, note=60, velocity=63, time=92),\n",
      "    Message('note_on', channel=0, note=53, velocity=51, time=3),\n",
      "    Message('note_on', channel=0, note=72, velocity=0, time=75),\n",
      "    Message('note_on', channel=0, note=77, velocity=0, time=0),\n",
      "    Message('note_on', channel=0, note=77, velocity=87, time=10),\n",
      "    Message('note_on', channel=0, note=72, velocity=88, time=1),\n",
      "    Message('note_on', channel=0, note=60, velocity=0, time=104),\n",
      "    Message('note_on', channel=0, note=65, velocity=0, time=0),\n",
      "    Message('note_on', channel=0, note=60, velocity=51, time=10),\n",
      "    Message('note_on', channel=0, note=65, velocity=61, time=1),\n",
      "    Message('note_on', channel=0, note=79, velocity=89, time=49),\n",
      "    Message('note_on', channel=0, note=72, velocity=0, time=1),\n",
      "    Message('note_on', channel=0, note=72, velocity=86, time=5),\n",
      "    Message('note_on', channel=0, note=82, velocity=92, time=160),\n",
      "    Message('note_on', channel=0, note=53, velocity=0, time=4),\n",
      "    Message('note_on', channel=0, note=74, velocity=77, time=3),\n",
      "    Message('note_on', channel=0, note=53, velocity=65, time=2),\n",
      "    Message('note_on', channel=0, note=62, velocity=68, time=0),\n",
      "    Message('note_on', channel=0, note=72, velocity=0, time=172),\n",
      "    Message('note_on', channel=0, note=74, velocity=0, time=0),\n",
      "    Message('note_on', channel=0, note=80, velocity=85, time=3),\n",
      "    Message('note_on', channel=0, note=72, velocity=84, time=1),\n",
      "    Message('note_on', channel=0, note=68, velocity=74, time=0),\n",
      "    Message('note_on', channel=0, note=74, velocity=79, time=2),\n",
      "    Message('note_on', channel=0, note=60, velocity=0, time=55),\n",
      "    Message('note_on', channel=0, note=68, velocity=0, time=0),\n",
      "    Message('note_on', channel=0, note=68, velocity=65, time=6),\n",
      "    Message('note_on', channel=0, note=60, velocity=64, time=0),\n",
      "    Message('note_on', channel=0, note=72, velocity=0, time=117),\n",
      "    Message('note_on', channel=0, note=77, velocity=0, time=0),\n",
      "    Message('note_on', channel=0, note=79, velocity=0, time=0),\n",
      "    Message('note_on', channel=0, note=65, velocity=0, time=8),\n",
      "    Message('note_on', channel=0, note=72, velocity=95, time=1),\n",
      "    Message('note_on', channel=0, note=79, velocity=74, time=2),\n",
      "    Message('note_on', channel=0, note=77, velocity=73, time=0),\n",
      "    Message('note_on', channel=0, note=65, velocity=65, time=8),\n",
      "    Message('note_on', channel=0, note=67, velocity=59, time=1),\n",
      "    Message('note_on', channel=0, note=72, velocity=0, time=157),\n",
      "    Message('note_on', channel=0, note=74, velocity=0, time=0),\n",
      "    Message('note_on', channel=0, note=77, velocity=0, time=0),\n",
      "    Message('note_on', channel=0, note=72, velocity=87, time=7),\n",
      "    Message('note_on', channel=0, note=65, velocity=0, time=1),\n",
      "    Message('note_on', channel=0, note=77, velocity=75, time=1),\n",
      "    Message('note_on', channel=0, note=74, velocity=82, time=2),\n",
      "    Message('note_on', channel=0, note=53, velocity=0, time=1),\n",
      "    Message('note_on', channel=0, note=65, velocity=73, time=1),\n",
      "    Message('note_on', channel=0, note=44, velocity=0, time=2),\n",
      "    Message('note_on', channel=0, note=44, velocity=67, time=9),\n",
      "    Message('note_on', channel=0, note=32, velocity=69, time=0),\n",
      "    Message('note_on', channel=0, note=67, velocity=0, time=199),\n",
      "    Message('note_on', channel=0, note=72, velocity=0, time=0),\n",
      "    Message('control_change', channel=0, control=64, value=0, time=4),\n",
      "    Message('note_on', channel=0, note=75, velocity=88, time=1),\n",
      "    Message('note_on', channel=0, note=82, velocity=0, time=1),\n",
      "    Message('note_on', channel=0, note=68, velocity=0, time=2),\n",
      "    Message('note_on', channel=0, note=65, velocity=0, time=1),\n",
      "    Message('note_on', channel=0, note=80, velocity=0, time=0),\n",
      "    Message('note_on', channel=0, note=44, velocity=0, time=0),\n",
      "    Message('note_on', channel=0, note=79, velocity=0, time=0),\n",
      "    Message('note_on', channel=0, note=72, velocity=75, time=0),\n",
      "    Message('note_on', channel=0, note=77, velocity=0, time=0),\n",
      "    Message('note_on', channel=0, note=67, velocity=71, time=1),\n",
      "    Message('note_on', channel=0, note=76, velocity=0, time=0),\n",
      "    Message('note_on', channel=0, note=32, velocity=0, time=2),\n",
      "    Message('note_on', channel=0, note=63, velocity=76, time=0),\n",
      "    Message('note_on', channel=0, note=43, velocity=81, time=2),\n",
      "    Message('note_on', channel=0, note=31, velocity=80, time=3),\n",
      "    Message('note_on', channel=0, note=62, velocity=0, time=6),\n",
      "    Message('note_on', channel=0, note=74, velocity=0, time=7),\n",
      "    Message('note_on', channel=0, note=60, velocity=0, time=8),\n",
      "    Message('control_change', channel=0, control=64, value=127, time=61),\n",
      "    Message('note_on', channel=0, note=31, velocity=0, time=108),\n",
      "    Message('note_on', channel=0, note=43, velocity=0, time=154),\n",
      "    Message('note_on', channel=0, note=63, velocity=0, time=0),\n",
      "    Message('note_on', channel=0, note=67, velocity=0, time=0),\n",
      "    Message('note_on', channel=0, note=72, velocity=0, time=0),\n",
      "    Message('note_on', channel=0, note=72, velocity=71, time=6),\n",
      "    Message('note_on', channel=0, note=48, velocity=60, time=2),\n",
      "    Message('note_on', channel=0, note=55, velocity=60, time=0),\n",
      "    Message('note_on', channel=0, note=43, velocity=53, time=0),\n",
      "    Message('note_on', channel=0, note=63, velocity=65, time=1),\n",
      "    Message('note_on', channel=0, note=67, velocity=65, time=0),\n",
      "    Message('note_on', channel=0, note=43, velocity=0, time=221),\n",
      "    Message('note_on', channel=0, note=55, velocity=0, time=0),\n",
      "    Message('note_on', channel=0, note=63, velocity=0, time=0),\n",
      "    Message('note_on', channel=0, note=67, velocity=0, time=0),\n",
      "    Message('note_on', channel=0, note=72, velocity=0, time=0),\n",
      "    Message('note_on', channel=0, note=72, velocity=71, time=8),\n",
      "    Message('note_on', channel=0, note=67, velocity=63, time=2),\n",
      "    Message('note_on', channel=0, note=43, velocity=50, time=1),\n",
      "    Message('note_on', channel=0, note=60, velocity=64, time=0),\n",
      "    Message('note_on', channel=0, note=55, velocity=60, time=0),\n",
      "    Message('note_on', channel=0, note=63, velocity=66, time=0),\n",
      "    Message('note_on', channel=0, note=31, velocity=52, time=1),\n",
      "    Message('note_on', channel=0, note=31, velocity=0, time=11),\n",
      "    Message('note_on', channel=0, note=43, velocity=0, time=177),\n",
      "    Message('note_on', channel=0, note=48, velocity=0, time=0),\n",
      "    Message('note_on', channel=0, note=55, velocity=0, time=0),\n",
      "    Message('note_on', channel=0, note=60, velocity=0, time=0),\n",
      "    Message('note_on', channel=0, note=63, velocity=0, time=0),\n",
      "    Message('note_on', channel=0, note=67, velocity=0, time=0),\n",
      "    Message('note_on', channel=0, note=55, velocity=70, time=5),\n",
      "    Message('note_on', channel=0, note=48, velocity=63, time=3),\n",
      "    Message('note_on', channel=0, note=60, velocity=60, time=1),\n",
      "    Message('note_on', channel=0, note=63, velocity=69, time=0),\n",
      "    Message('note_on', channel=0, note=43, velocity=56, time=1),\n",
      "    Message('note_on', channel=0, note=67, velocity=69, time=0),\n",
      "    Message('note_on', channel=0, note=43, velocity=0, time=220),\n",
      "    Message('note_on', channel=0, note=55, velocity=0, time=0),\n",
      "    Message('note_on', channel=0, note=72, velocity=0, time=0),\n",
      "    Message('note_on', channel=0, note=72, velocity=70, time=6),\n",
      "    Message('note_on', channel=0, note=60, velocity=0, time=2),\n",
      "    Message('note_on', channel=0, note=63, velocity=0, time=0),\n",
      "    Message('note_on', channel=0, note=67, velocity=0, time=0),\n",
      "    Message('note_on', channel=0, note=43, velocity=54, time=3),\n",
      "    Message('note_on', channel=0, note=55, velocity=67, time=0),\n",
      "    Message('note_on', channel=0, note=60, velocity=66, time=1),\n",
      "    Message('note_on', channel=0, note=67, velocity=69, time=0),\n",
      "    Message('note_on', channel=0, note=63, velocity=67, time=0),\n",
      "    Message('note_on', channel=0, note=63, velocity=0, time=280),\n",
      "    Message('note_on', channel=0, note=67, velocity=0, time=0),\n",
      "    Message('note_on', channel=0, note=72, velocity=0, time=0),\n",
      "    Message('note_on', channel=0, note=72, velocity=89, time=5),\n",
      "    Message('note_on', channel=0, note=55, velocity=0, time=3),\n",
      "    Message('note_on', channel=0, note=63, velocity=82, time=0),\n",
      "    Message('note_on', channel=0, note=67, velocity=71, time=3),\n",
      "    Message('note_on', channel=0, note=55, velocity=65, time=0),\n",
      "    Message('note_on', channel=0, note=63, velocity=0, time=119),\n",
      "    Message('note_on', channel=0, note=67, velocity=0, time=0),\n",
      "    Message('note_on', channel=0, note=74, velocity=81, time=6),\n",
      "    Message('note_on', channel=0, note=63, velocity=73, time=1),\n",
      "    Message('note_on', channel=0, note=67, velocity=65, time=4),\n",
      "    Message('note_on', channel=0, note=63, velocity=0, time=105),\n",
      "    Message('note_on', channel=0, note=67, velocity=0, time=0),\n",
      "    Message('note_on', channel=0, note=72, velocity=0, time=0),\n",
      "    Message('note_on', channel=0, note=72, velocity=78, time=6),\n",
      "    Message('note_on', channel=0, note=63, velocity=66, time=0),\n",
      "    Message('note_on', channel=0, note=67, velocity=65, time=4),\n",
      "    Message('note_on', channel=0, note=55, velocity=0, time=5),\n",
      "    Message('note_on', channel=0, note=55, velocity=57, time=11),\n",
      "    Message('note_on', channel=0, note=60, velocity=0, time=127),\n",
      "    Message('note_on', channel=0, note=67, velocity=0, time=0),\n",
      "    Message('note_on', channel=0, note=67, velocity=82, time=7),\n",
      "    Message('note_on', channel=0, note=43, velocity=0, time=1),\n",
      "    Message('note_on', channel=0, note=60, velocity=80, time=2),\n",
      "    Message('note_on', channel=0, note=62, velocity=79, time=2),\n",
      "    Message('note_on', channel=0, note=43, velocity=88, time=0),\n",
      "    Message('note_on', channel=0, note=31, velocity=87, time=1),\n",
      "    Message('note_on', channel=0, note=63, velocity=0, time=27),\n",
      "    Message('control_change', channel=0, control=64, value=0, time=0),\n",
      "    Message('note_on', channel=0, note=55, velocity=0, time=3),\n",
      "    Message('note_on', channel=0, note=72, velocity=0, time=1),\n",
      "    Message('note_on', channel=0, note=74, velocity=0, time=0),\n",
      "    Message('note_on', channel=0, note=48, velocity=0, time=2),\n",
      "    Message('note_on', channel=0, note=75, velocity=0, time=2),\n",
      "    Message('control_change', channel=0, control=64, value=127, time=83),\n",
      "    Message('note_on', channel=0, note=31, velocity=0, time=184),\n",
      "    Message('note_on', channel=0, note=43, velocity=0, time=8),\n",
      "    Message('note_on', channel=0, note=62, velocity=0, time=0),\n",
      "    Message('note_on', channel=0, note=43, velocity=71, time=7),\n",
      "    Message('note_on', channel=0, note=50, velocity=68, time=1),\n",
      "    Message('note_on', channel=0, note=31, velocity=70, time=1),\n",
      "    Message('note_on', channel=0, note=55, velocity=66, time=1),\n",
      "    Message('note_on', channel=0, note=62, velocity=69, time=1),\n",
      "    Message('note_on', channel=0, note=59, velocity=69, time=0),\n",
      "    Message('note_on', channel=0, note=31, velocity=0, time=2),\n",
      "    Message('note_on', channel=0, note=59, velocity=0, time=2),\n",
      "    Message('note_on', channel=0, note=55, velocity=0, time=231),\n",
      "    Message('note_on', channel=0, note=60, velocity=0, time=0),\n",
      "    Message('note_on', channel=0, note=62, velocity=0, time=0),\n",
      "    Message('note_on', channel=0, note=50, velocity=0, time=7),\n",
      "    Message('note_on', channel=0, note=62, velocity=71, time=1),\n",
      "    Message('note_on', channel=0, note=60, velocity=69, time=0),\n",
      "    Message('note_on', channel=0, note=55, velocity=66, time=3),\n",
      "    Message('note_on', channel=0, note=50, velocity=68, time=0),\n",
      "    Message('note_on', channel=0, note=43, velocity=0, time=204),\n",
      "    Message('note_on', channel=0, note=50, velocity=0, time=0),\n",
      "    Message('note_on', channel=0, note=62, velocity=0, time=0),\n",
      "    Message('note_on', channel=0, note=59, velocity=76, time=6),\n",
      "    Message('note_on', channel=0, note=62, velocity=74, time=1),\n",
      "    Message('note_on', channel=0, note=55, velocity=0, time=0),\n",
      "    Message('note_on', channel=0, note=43, velocity=73, time=1),\n",
      "    Message('note_on', channel=0, note=50, velocity=68, time=1),\n",
      "    Message('note_on', channel=0, note=31, velocity=70, time=2),\n",
      "    Message('note_on', channel=0, note=55, velocity=67, time=1),\n",
      "    Message('note_on', channel=0, note=31, velocity=0, time=11),\n",
      "    Message('control_change', channel=0, control=64, value=0, time=5),\n",
      "    Message('note_on', channel=0, note=60, velocity=0, time=11),\n",
      "    Message('control_change', channel=0, control=64, value=127, time=60),\n",
      "    Message('note_on', channel=0, note=50, velocity=0, time=162),\n",
      "    Message('note_on', channel=0, note=43, velocity=0, time=7),\n",
      "    Message('note_on', channel=0, note=55, velocity=0, time=0),\n",
      "    Message('note_on', channel=0, note=59, velocity=0, time=0),\n",
      "    Message('note_on', channel=0, note=62, velocity=0, time=0),\n",
      "    Message('note_on', channel=0, note=50, velocity=66, time=4),\n",
      "    Message('note_on', channel=0, note=59, velocity=75, time=0),\n",
      "    Message('note_on', channel=0, note=62, velocity=74, time=1),\n",
      "    Message('note_on', channel=0, note=55, velocity=64, time=2),\n",
      "    Message('note_on', channel=0, note=43, velocity=63, time=1),\n",
      "    Message('note_on', channel=0, note=31, velocity=64, time=1),\n",
      "    Message('note_on', channel=0, note=31, velocity=0, time=7),\n",
      "    Message('control_change', channel=0, control=64, value=0, time=290),\n",
      "    Message('note_on', channel=0, note=59, velocity=0, time=2),\n",
      "    Message('note_on', channel=0, note=67, velocity=0, time=7),\n",
      "    Message('note_on', channel=0, note=59, velocity=81, time=4),\n",
      "    Message('note_on', channel=0, note=62, velocity=0, time=4),\n",
      "    Message('note_on', channel=0, note=67, velocity=83, time=3),\n",
      "    Message('note_on', channel=0, note=62, velocity=83, time=1),\n",
      "    Message('note_on', channel=0, note=43, velocity=0, time=4),\n",
      "    Message('note_on', channel=0, note=31, velocity=71, time=6),\n",
      "    Message('note_on', channel=0, note=43, velocity=70, time=4),\n",
      "    Message('control_change', channel=0, control=64, value=127, time=20),\n",
      "    Message('note_on', channel=0, note=43, velocity=0, time=131),\n",
      "    Message('note_on', channel=0, note=59, velocity=0, time=0),\n",
      "    Message('note_on', channel=0, note=62, velocity=0, time=0),\n",
      "    Message('note_on', channel=0, note=68, velocity=84, time=4),\n",
      "    Message('note_on', channel=0, note=62, velocity=76, time=3),\n",
      "    Message('note_on', channel=0, note=59, velocity=77, time=2),\n",
      "    Message('note_on', channel=0, note=43, velocity=68, time=1),\n",
      "    Message('note_on', channel=0, note=55, velocity=0, time=151),\n",
      "    Message('note_on', channel=0, note=59, velocity=0, time=0),\n",
      "    Message('note_on', channel=0, note=62, velocity=0, time=0),\n",
      "    Message('note_on', channel=0, note=67, velocity=0, time=0),\n",
      "    Message('note_on', channel=0, note=67, velocity=82, time=5),\n",
      "    Message('note_on', channel=0, note=59, velocity=77, time=1),\n",
      "    Message('note_on', channel=0, note=62, velocity=73, time=1),\n",
      "    Message('note_on', channel=0, note=55, velocity=62, time=1),\n",
      "    Message('note_on', channel=0, note=60, velocity=89, time=220),\n",
      "    Message('note_on', channel=0, note=51, velocity=82, time=9),\n",
      "    Message('note_on', channel=0, note=42, velocity=90, time=5),\n",
      "    Message('note_on', channel=0, note=30, velocity=90, time=0),\n",
      "    Message('note_on', channel=0, note=43, velocity=0, time=39),\n",
      "    Message('note_on', channel=0, note=67, velocity=0, time=1),\n",
      "    Message('note_on', channel=0, note=62, velocity=0, time=1),\n",
      "    Message('note_on', channel=0, note=55, velocity=0, time=1),\n",
      "    Message('note_on', channel=0, note=59, velocity=0, time=1),\n",
      "    Message('note_on', channel=0, note=68, velocity=0, time=0),\n",
      "    Message('control_change', channel=0, control=64, value=0, time=2),\n",
      "    Message('note_on', channel=0, note=31, velocity=0, time=5),\n",
      "    Message('note_on', channel=0, note=50, velocity=0, time=0),\n",
      "    Message('control_change', channel=0, control=64, value=127, time=92),\n",
      "    Message('note_on', channel=0, note=42, velocity=0, time=307),\n",
      "    Message('note_on', channel=0, note=51, velocity=0, time=0),\n",
      "    Message('note_on', channel=0, note=51, velocity=69, time=5),\n",
      "    Message('note_on', channel=0, note=42, velocity=62, time=1),\n",
      "    Message('note_on', channel=0, note=51, velocity=0, time=409),\n",
      "    Message('note_on', channel=0, note=56, velocity=62, time=5),\n",
      "    Message('note_on', channel=0, note=51, velocity=58, time=6),\n",
      "    Message('note_on', channel=0, note=42, velocity=0, time=266),\n",
      "    Message('note_on', channel=0, note=51, velocity=0, time=0),\n",
      "    Message('note_on', channel=0, note=51, velocity=63, time=4),\n",
      "    Message('note_on', channel=0, note=42, velocity=63, time=2),\n",
      "    Message('note_on', channel=0, note=63, velocity=62, time=3),\n",
      "    Message('note_on', channel=0, note=51, velocity=0, time=275),\n",
      "    Message('note_on', channel=0, note=56, velocity=0, time=0),\n",
      "    Message('note_on', channel=0, note=63, velocity=0, time=0),\n",
      "    Message('note_on', channel=0, note=63, velocity=55, time=6),\n",
      "    Message('note_on', channel=0, note=56, velocity=55, time=0),\n",
      "    Message('note_on', channel=0, note=51, velocity=59, time=3),\n",
      "    Message('note_on', channel=0, note=42, velocity=0, time=283),\n",
      "    Message('note_on', channel=0, note=30, velocity=0, time=7),\n",
      "    Message('note_on', channel=0, note=42, velocity=70, time=3),\n",
      "    Message('note_on', channel=0, note=30, velocity=67, time=2),\n",
      "    Message('note_on', channel=0, note=29, velocity=81, time=320),\n",
      "    Message('note_on', channel=0, note=41, velocity=72, time=1),\n",
      "    Message('control_change', channel=0, control=64, value=0, time=12),\n",
      "    Message('note_on', channel=0, note=42, velocity=0, time=14),\n",
      "    Message('note_on', channel=0, note=51, velocity=0, time=1),\n",
      "    Message('note_on', channel=0, note=60, velocity=0, time=0),\n",
      "    Message('note_on', channel=0, note=63, velocity=0, time=2),\n",
      "    Message('note_on', channel=0, note=30, velocity=0, time=2),\n",
      "    Message('control_change', channel=0, control=64, value=127, time=73),\n",
      "    Message('note_on', channel=0, note=61, velocity=81, time=259),\n",
      "    Message('note_on', channel=0, note=49, velocity=61, time=103),\n",
      "    Message('note_on', channel=0, note=56, velocity=0, time=38),\n",
      "    Message('note_on', channel=0, note=56, velocity=59, time=4),\n",
      "    Message('note_on', channel=0, note=65, velocity=81, time=123),\n",
      "    Message('note_on', channel=0, note=41, velocity=0, time=149),\n",
      "    Message('note_on', channel=0, note=49, velocity=0, time=0),\n",
      "    Message('note_on', channel=0, note=49, velocity=63, time=5),\n",
      "    Message('note_on', channel=0, note=41, velocity=59, time=4),\n",
      "    Message('note_on', channel=0, note=68, velocity=86, time=87),\n",
      "    Message('note_on', channel=0, note=41, velocity=0, time=211),\n",
      "    Message('note_on', channel=0, note=49, velocity=0, time=0),\n",
      "    Message('note_on', channel=0, note=49, velocity=61, time=8),\n",
      "    Message('note_on', channel=0, note=73, velocity=85, time=1),\n",
      "    Message('note_on', channel=0, note=41, velocity=48, time=2),\n",
      "    Message('note_on', channel=0, note=73, velocity=0, time=243),\n",
      "    Message('note_on', channel=0, note=76, velocity=87, time=4),\n",
      "    Message('note_on', channel=0, note=73, velocity=72, time=7),\n",
      "    Message('note_on', channel=0, note=49, velocity=0, time=89),\n",
      "    Message('note_on', channel=0, note=56, velocity=0, time=0),\n",
      "    Message('note_on', channel=0, note=49, velocity=52, time=9),\n",
      "    Message('note_on', channel=0, note=56, velocity=48, time=1),\n",
      "    Message('note_on', channel=0, note=77, velocity=92, time=143),\n",
      "    Message('note_on', channel=0, note=29, velocity=0, time=192),\n",
      "    Message('note_on', channel=0, note=41, velocity=0, time=0),\n",
      "    Message('note_on', channel=0, note=41, velocity=52, time=11),\n",
      "    Message('note_on', channel=0, note=29, velocity=51, time=0),\n",
      "    Message('note_on', channel=0, note=80, velocity=86, time=89),\n",
      "    Message('note_on', channel=0, note=59, velocity=85, time=404),\n",
      "    Message('control_change', channel=0, control=64, value=0, time=4),\n",
      "    Message('note_on', channel=0, note=43, velocity=79, time=3),\n",
      "    Message('note_on', channel=0, note=31, velocity=78, time=1),\n",
      "    Message('note_on', channel=0, note=68, velocity=0, time=8),\n",
      "    Message('note_on', channel=0, note=77, velocity=0, time=0),\n",
      "    Message('note_on', channel=0, note=65, velocity=0, time=1),\n",
      "    Message('note_on', channel=0, note=73, velocity=0, time=0),\n",
      "    Message('note_on', channel=0, note=76, velocity=0, time=0),\n",
      "    Message('note_on', channel=0, note=29, velocity=0, time=1),\n",
      "    Message('note_on', channel=0, note=56, velocity=0, time=1),\n",
      "    Message('note_on', channel=0, note=55, velocity=65, time=0),\n",
      "    Message('note_on', channel=0, note=80, velocity=0, time=2),\n",
      "    Message('note_on', channel=0, note=49, velocity=0, time=0),\n",
      "    Message('note_on', channel=0, note=41, velocity=0, time=13),\n",
      "    Message('note_on', channel=0, note=61, velocity=0, time=15),\n",
      "    Message('control_change', channel=0, control=64, value=127, time=46),\n",
      "    Message('note_on', channel=0, note=31, velocity=0, time=323),\n",
      "    Message('note_on', channel=0, note=43, velocity=0, time=0),\n",
      "    Message('note_on', channel=0, note=55, velocity=0, time=0),\n",
      "    Message('note_on', channel=0, note=59, velocity=0, time=0),\n",
      "    Message('note_on', channel=0, note=43, velocity=60, time=5),\n",
      "    Message('note_on', channel=0, note=50, velocity=65, time=0),\n",
      "    Message('note_on', channel=0, note=31, velocity=63, time=0),\n",
      "    Message('note_on', channel=0, note=59, velocity=57, time=3),\n",
      "    Message('note_on', channel=0, note=55, velocity=54, time=2),\n",
      "    Message('note_on', channel=0, note=50, velocity=0, time=343),\n",
      "    Message('note_on', channel=0, note=59, velocity=0, time=8),\n",
      "    Message('note_on', channel=0, note=50, velocity=57, time=0),\n",
      "    Message('note_on', channel=0, note=53, velocity=66, time=3),\n",
      "    Message('note_on', channel=0, note=59, velocity=53, time=1),\n",
      "    Message('note_on', channel=0, note=56, velocity=76, time=280),\n",
      "    Message('note_on', channel=0, note=53, velocity=0, time=315),\n",
      "    Message('note_on', channel=0, note=56, velocity=0, time=0),\n",
      "    Message('note_on', channel=0, note=56, velocity=71, time=4),\n",
      "    Message('note_on', channel=0, note=53, velocity=51, time=3),\n",
      "    Message('note_on', channel=0, note=31, velocity=0, time=39),\n",
      "    Message('note_on', channel=0, note=53, velocity=0, time=284),\n",
      "    Message('note_on', channel=0, note=56, velocity=0, time=8),\n",
      "    Message('note_on', channel=0, note=53, velocity=53, time=4),\n",
      "    Message('note_on', channel=0, note=56, velocity=52, time=0),\n",
      "    Message('note_on', channel=0, note=43, velocity=0, time=395),\n",
      "    Message('note_on', channel=0, note=31, velocity=70, time=12),\n",
      "    Message('note_on', channel=0, note=43, velocity=68, time=0),\n",
      "    Message('control_change', channel=0, control=64, value=0, time=21),\n",
      "    Message('note_on', channel=0, note=50, velocity=0, time=5),\n",
      "    Message('note_on', channel=0, note=56, velocity=0, time=2),\n",
      "    Message('control_change', channel=0, control=64, value=127, time=91),\n",
      "    Message('note_on', channel=0, note=31, velocity=0, time=146),\n",
      "    Message('note_on', channel=0, note=55, velocity=0, time=123),\n",
      "    Message('note_on', channel=0, note=68, velocity=68, time=164),\n",
      "    Message('note_on', channel=0, note=43, velocity=0, time=35),\n",
      "    Message('note_on', channel=0, note=50, velocity=51, time=6),\n",
      "    Message('note_on', channel=0, note=43, velocity=45, time=2),\n",
      "    Message('note_on', channel=0, note=67, velocity=66, time=325),\n",
      "    Message('note_on', channel=0, note=50, velocity=0, time=136),\n",
      "    Message('note_on', channel=0, note=50, velocity=44, time=11),\n",
      "    Message('note_on', channel=0, note=62, velocity=43, time=2),\n",
      "    Message('note_on', channel=0, note=53, velocity=0, time=2),\n",
      "    Message('note_on', channel=0, note=53, velocity=46, time=4),\n",
      "    Message('note_on', channel=0, note=62, velocity=0, time=4),\n",
      "    Message('note_on', channel=0, note=66, velocity=63, time=150),\n",
      "    Message('note_on', channel=0, note=53, velocity=0, time=272),\n",
      "    Message('note_on', channel=0, note=59, velocity=0, time=0),\n",
      "    Message('note_on', channel=0, note=65, velocity=62, time=3),\n",
      "    Message('note_on', channel=0, note=59, velocity=56, time=1),\n",
      "    Message('note_on', channel=0, note=50, velocity=0, time=4),\n",
      "    Message('note_on', channel=0, note=53, velocity=49, time=3),\n",
      "    Message('note_on', channel=0, note=50, velocity=39, time=7),\n",
      "    Message('control_change', channel=0, control=64, value=0, time=25),\n",
      "    Message('note_on', channel=0, note=67, velocity=0, time=0),\n",
      "    Message('note_on', channel=0, note=66, velocity=0, time=0),\n",
      "    Message('note_on', channel=0, note=68, velocity=0, time=1),\n",
      "    Message('control_change', channel=0, control=64, value=127, time=87),\n",
      "    Message('note_on', channel=0, note=55, velocity=67, time=302),\n",
      "    Message('note_on', channel=0, note=53, velocity=0, time=105),\n",
      "    Message('note_on', channel=0, note=53, velocity=34, time=4),\n",
      "    Message('note_on', channel=0, note=59, velocity=0, time=65),\n",
      "    Message('note_on', channel=0, note=59, velocity=50, time=6),\n",
      "    Message('note_on', channel=0, note=65, velocity=0, time=163),\n",
      "    Message('note_on', channel=0, note=65, velocity=72, time=4),\n",
      "    Message('note_on', channel=0, note=53, velocity=0, time=242),\n",
      "    Message('note_on', channel=0, note=59, velocity=0, time=0),\n",
      "    Message('note_on', channel=0, note=59, velocity=51, time=8),\n",
      "    Message('note_on', channel=0, note=53, velocity=38, time=2),\n",
      "    Message('note_on', channel=0, note=63, velocity=68, time=188),\n",
      "    Message('note_on', channel=0, note=60, velocity=69, time=495),\n",
      "    Message('note_on', channel=0, note=24, velocity=38, time=3),\n",
      "    Message('note_on', channel=0, note=36, velocity=35, time=6),\n",
      "    Message('control_change', channel=0, control=64, value=0, time=17),\n",
      "    Message('note_on', channel=0, note=65, velocity=0, time=0),\n",
      "    Message('note_on', channel=0, note=59, velocity=0, time=2),\n",
      "    Message('note_on', channel=0, note=53, velocity=0, time=0),\n",
      "    Message('note_on', channel=0, note=55, velocity=0, time=0),\n",
      "    Message('note_on', channel=0, note=63, velocity=0, time=13),\n",
      "    Message('note_on', channel=0, note=43, velocity=0, time=3),\n",
      "    Message('note_on', channel=0, note=50, velocity=0, time=0),\n",
      "    Message('control_change', channel=0, control=64, value=127, time=146),\n",
      "    Message('note_on', channel=0, note=24, velocity=0, time=61),\n",
      "    Message('note_on', channel=0, note=43, velocity=49, time=342),\n",
      "    Message('note_on', channel=0, note=51, velocity=49, time=508),\n",
      "    Message('note_on', channel=0, note=51, velocity=0, time=387),\n",
      "    Message('note_on', channel=0, note=55, velocity=45, time=7),\n",
      "    Message('note_on', channel=0, note=51, velocity=39, time=3),\n",
      "    Message('note_on', channel=0, note=55, velocity=0, time=404),\n",
      "    Message('note_on', channel=0, note=55, velocity=34, time=11),\n",
      "    Message('note_on', channel=0, note=51, velocity=0, time=12),\n",
      "    Message('note_on', channel=0, note=51, velocity=35, time=8),\n",
      "    Message('note_on', channel=0, note=31, velocity=46, time=390),\n",
      "    Message('control_change', channel=0, control=64, value=0, time=109),\n",
      "    Message('note_on', channel=0, note=36, velocity=0, time=377),\n",
      "    Message('note_on', channel=0, note=36, velocity=32, time=4),\n",
      "    Message('note_on', channel=0, note=31, velocity=0, time=28),\n",
      "    Message('note_on', channel=0, note=51, velocity=0, time=5),\n",
      "    Message('note_on', channel=0, note=43, velocity=0, time=24),\n",
      "    Message('control_change', channel=0, control=64, value=127, time=315),\n",
      "    Message('note_on', channel=0, note=43, velocity=29, time=212),\n",
      "    Message('note_on', channel=0, note=51, velocity=34, time=436),\n",
      "    Message('note_on', channel=0, note=55, velocity=0, time=496),\n",
      "    Message('note_on', channel=0, note=55, velocity=25, time=7),\n",
      "    Message('note_on', channel=0, note=51, velocity=0, time=1),\n",
      "    Message('note_on', channel=0, note=51, velocity=23, time=11),\n",
      "    Message('note_on', channel=0, note=60, velocity=0, time=258),\n",
      "    Message('note_on', channel=0, note=51, velocity=0, time=269),\n",
      "    Message('note_on', channel=0, note=55, velocity=0, time=0),\n",
      "    Message('note_on', channel=0, note=55, velocity=21, time=10),\n",
      "    Message('note_on', channel=0, note=51, velocity=24, time=1),\n",
      "    Message('note_on', channel=0, note=31, velocity=37, time=602),\n",
      "    Message('note_on', channel=0, note=36, velocity=0, time=961),\n",
      "    Message('note_on', channel=0, note=36, velocity=27, time=5),\n",
      "    Message('note_on', channel=0, note=24, velocity=32, time=1),\n",
      "    Message('control_change', channel=0, control=64, value=0, time=10),\n",
      "    Message('note_on', channel=0, note=31, velocity=0, time=10),\n",
      "    Message('note_on', channel=0, note=51, velocity=0, time=3),\n",
      "    Message('note_on', channel=0, note=55, velocity=0, time=0),\n",
      "    Message('note_on', channel=0, note=43, velocity=0, time=25),\n",
      "    Message('control_change', channel=0, control=64, value=127, time=84),\n",
      "    Message('note_on', channel=0, note=55, velocity=37, time=727),\n",
      "    Message('note_on', channel=0, note=60, velocity=54, time=406),\n",
      "    Message('note_on', channel=0, note=62, velocity=65, time=318),\n",
      "    Message('control_change', channel=0, control=64, value=0, time=13),\n",
      "    Message('note_on', channel=0, note=36, velocity=0, time=19),\n",
      "    Message('note_on', channel=0, note=55, velocity=0, time=2),\n",
      "    Message('note_on', channel=0, note=60, velocity=0, time=1),\n",
      "    Message('note_on', channel=0, note=24, velocity=0, time=12),\n",
      "    Message('note_on', channel=0, note=63, velocity=57, time=251),\n",
      "    Message('note_on', channel=0, note=62, velocity=0, time=80),\n",
      "    Message('note_on', channel=0, note=66, velocity=56, time=222),\n",
      "    Message('note_on', channel=0, note=63, velocity=0, time=42),\n",
      "    Message('note_on', channel=0, note=68, velocity=55, time=253),\n",
      "    Message('note_on', channel=0, note=66, velocity=0, time=37),\n",
      "    Message('note_on', channel=0, note=67, velocity=48, time=288),\n",
      "    Message('note_on', channel=0, note=68, velocity=0, time=37),\n",
      "    Message('note_on', channel=0, note=71, velocity=53, time=275),\n",
      "    Message('note_on', channel=0, note=67, velocity=0, time=64),\n",
      "    Message('note_on', channel=0, note=74, velocity=49, time=283),\n",
      "    Message('note_on', channel=0, note=71, velocity=0, time=53),\n",
      "    Message('note_on', channel=0, note=72, velocity=52, time=277),\n",
      "    Message('note_on', channel=0, note=74, velocity=0, time=11),\n",
      "    Message('control_change', channel=0, control=64, value=127, time=231),\n",
      "    Message('note_on', channel=0, note=75, velocity=55, time=132),\n",
      "    Message('control_change', channel=0, control=64, value=0, time=190),\n",
      "    Message('note_on', channel=0, note=78, velocity=52, time=172),\n",
      "    Message('note_on', channel=0, note=75, velocity=0, time=59),\n",
      "    Message('note_on', channel=0, note=79, velocity=48, time=324),\n",
      "    Message('note_on', channel=0, note=72, velocity=0, time=90),\n",
      "    Message('control_change', channel=0, control=64, value=127, time=116),\n",
      "    Message('note_on', channel=0, note=78, velocity=0, time=92),\n",
      "    Message('control_change', channel=0, control=64, value=0, time=7),\n",
      "    Message('note_on', channel=0, note=82, velocity=52, time=68),\n",
      "    Message('note_on', channel=0, note=79, velocity=0, time=44),\n",
      "    Message('note_on', channel=0, note=80, velocity=41, time=16),\n",
      "    Message('control_change', channel=0, control=64, value=127, time=249),\n",
      "    Message('control_change', channel=0, control=64, value=0, time=53),\n",
      "    Message('control_change', channel=0, control=64, value=127, time=85),\n",
      "    Message('note_on', channel=0, note=79, velocity=45, time=93),\n",
      "    Message('control_change', channel=0, control=64, value=0, time=38),\n",
      "    Message('note_on', channel=0, note=82, velocity=0, time=15),\n",
      "    Message('control_change', channel=0, control=64, value=127, time=100),\n",
      "    Message('note_on', channel=0, note=80, velocity=0, time=38),\n",
      "    Message('control_change', channel=0, control=64, value=0, time=92),\n",
      "    Message('note_on', channel=0, note=84, velocity=45, time=342),\n",
      "    Message('note_on', channel=0, note=79, velocity=0, time=38),\n",
      "    Message('control_change', channel=0, control=64, value=127, time=204),\n",
      "    Message('note_on', channel=0, note=63, velocity=30, time=2173),\n",
      "    Message('note_on', channel=0, note=51, velocity=27, time=1),\n",
      "    Message('note_on', channel=0, note=60, velocity=20, time=2),\n",
      "    Message('note_on', channel=0, note=48, velocity=21, time=6),\n",
      "    Message('note_on', channel=0, note=36, velocity=21, time=1),\n",
      "    Message('note_on', channel=0, note=55, velocity=17, time=6),\n",
      "    Message('note_on', channel=0, note=84, velocity=0, time=1037),\n",
      "    Message('note_on', channel=0, note=60, velocity=0, time=675),\n",
      "    Message('note_on', channel=0, note=63, velocity=0, time=0),\n",
      "    Message('note_on', channel=0, note=55, velocity=0, time=8),\n",
      "    Message('note_on', channel=0, note=63, velocity=29, time=2),\n",
      "    Message('note_on', channel=0, note=60, velocity=22, time=1),\n",
      "    Message('note_on', channel=0, note=36, velocity=0, time=5),\n",
      "    Message('note_on', channel=0, note=48, velocity=0, time=0),\n",
      "    Message('note_on', channel=0, note=55, velocity=17, time=3),\n",
      "    Message('note_on', channel=0, note=36, velocity=15, time=2),\n",
      "    Message('note_on', channel=0, note=48, velocity=15, time=1),\n",
      "    Message('note_on', channel=0, note=51, velocity=0, time=1),\n",
      "    Message('note_on', channel=0, note=51, velocity=18, time=6),\n",
      "    Message('note_on', channel=0, note=60, velocity=0, time=2222),\n",
      "    Message('note_on', channel=0, note=60, velocity=18, time=7),\n",
      "    Message('note_on', channel=0, note=63, velocity=0, time=0),\n",
      "    Message('note_on', channel=0, note=51, velocity=0, time=8),\n",
      "    Message('note_on', channel=0, note=63, velocity=27, time=0),\n",
      "    Message('note_on', channel=0, note=55, velocity=0, time=8),\n",
      "    Message('note_on', channel=0, note=51, velocity=22, time=1),\n",
      "    Message('note_on', channel=0, note=55, velocity=18, time=3),\n",
      "    Message('note_on', channel=0, note=36, velocity=0, time=11),\n",
      "    Message('note_on', channel=0, note=48, velocity=0, time=0),\n",
      "    Message('note_on', channel=0, note=43, velocity=18, time=3),\n",
      "    Message('note_on', channel=0, note=48, velocity=14, time=1),\n",
      "    Message('note_on', channel=0, note=36, velocity=19, time=1),\n",
      "    Message('note_on', channel=0, note=60, velocity=0, time=4572),\n",
      "    Message('note_on', channel=0, note=63, velocity=0, time=8),\n",
      "    Message('note_on', channel=0, note=51, velocity=0, time=8),\n",
      "    Message('note_on', channel=0, note=55, velocity=0, time=7),\n",
      "    Message('note_on', channel=0, note=43, velocity=0, time=8),\n",
      "    Message('note_on', channel=0, note=36, velocity=0, time=8),\n",
      "    Message('note_on', channel=0, note=48, velocity=0, time=0),\n",
      "    Message('control_change', channel=0, control=64, value=0, time=238),\n",
      "    MetaMessage('end_of_track', time=0)])\n",
      "])\n"
     ]
    }
   ],
   "source": [
    "print(reconstructed)"
   ]
  },
  {
   "cell_type": "code",
   "execution_count": 1,
   "metadata": {},
   "outputs": [
    {
     "name": "stdout",
     "output_type": "stream",
     "text": [
      "Total pieces: 102\n",
      "Mean length: 21352.17 tokens\n",
      "Std dev: 31281.91 tokens\n",
      "Max length: 174456 tokens\n",
      "Min length: 993 tokens\n"
     ]
    }
   ],
   "source": [
    "import os\n",
    "import numpy as np\n",
    "\n",
    "# Directory containing tokenized pieces\n",
    "directory = \"Chopin_Tokens\"\n",
    "\n",
    "# List to store lengths of all pieces\n",
    "piece_lengths = []\n",
    "\n",
    "# Iterate over all files in the directory\n",
    "for filename in os.listdir(directory):\n",
    "    if filename.endswith(\".txt\"):  # Ensure we're reading only text files\n",
    "        file_path = os.path.join(directory, filename)\n",
    "        \n",
    "        with open(file_path, \"r\") as file:\n",
    "            tokens = file.readlines()  # Read all lines (tokens)\n",
    "            piece_lengths.append(len(tokens))  # Store the number of tokens\n",
    "\n",
    "# Compute statistics\n",
    "mean_length = np.mean(piece_lengths)\n",
    "std_dev = np.std(piece_lengths)\n",
    "max_length = max(piece_lengths)\n",
    "min_length = min(piece_lengths)\n",
    "\n",
    "print(f\"Total pieces: {len(piece_lengths)}\")\n",
    "print(f\"Mean length: {mean_length:.2f} tokens\")\n",
    "print(f\"Std dev: {std_dev:.2f} tokens\")\n",
    "print(f\"Max length: {max_length} tokens\")\n",
    "print(f\"Min length: {min_length} tokens\")\n"
   ]
  },
  {
   "cell_type": "code",
   "execution_count": null,
   "metadata": {},
   "outputs": [],
   "source": []
  }
 ],
 "metadata": {
  "kernelspec": {
   "display_name": "musicGen",
   "language": "python",
   "name": "python3"
  },
  "language_info": {
   "codemirror_mode": {
    "name": "ipython",
    "version": 3
   },
   "file_extension": ".py",
   "mimetype": "text/x-python",
   "name": "python",
   "nbconvert_exporter": "python",
   "pygments_lexer": "ipython3",
   "version": "3.9.21"
  }
 },
 "nbformat": 4,
 "nbformat_minor": 2
}
