Note_On_22_Vel_0,0
Note_On_22_Vel_3,1
Note_On_22_Vel_5,2
Note_On_22_Vel_6,3
Note_On_22_Vel_7,4
Note_On_22_Vel_8,5
Note_On_22_Vel_9,6
Note_On_22_Vel_10,7
Note_On_22_Vel_11,8
Note_On_22_Vel_12,9
Note_On_22_Vel_13,10
Note_On_22_Vel_14,11
Note_On_22_Vel_15,12
Note_On_22_Vel_16,13
Note_On_22_Vel_17,14
Note_On_22_Vel_18,15
Note_On_22_Vel_19,16
Note_On_22_Vel_20,17
Note_On_22_Vel_21,18
Note_On_22_Vel_22,19
Note_On_22_Vel_23,20
Note_On_22_Vel_24,21
Note_On_22_Vel_25,22
Note_On_22_Vel_26,23
Note_On_22_Vel_27,24
Note_On_22_Vel_28,25
Note_On_22_Vel_29,26
Note_On_22_Vel_30,27
Note_On_22_Vel_31,28
Note_On_22_Vel_32,29
Note_On_22_Vel_33,30
Note_On_22_Vel_34,31
Note_On_22_Vel_35,32
Note_On_22_Vel_36,33
Note_On_22_Vel_37,34
Note_On_22_Vel_38,35
Note_On_22_Vel_39,36
Note_On_22_Vel_40,37
Note_On_22_Vel_41,38
Note_On_22_Vel_42,39
Note_On_22_Vel_43,40
Note_On_22_Vel_44,41
Note_On_22_Vel_45,42
Note_On_22_Vel_46,43
Note_On_22_Vel_47,44
Note_On_22_Vel_48,45
Note_On_22_Vel_49,46
Note_On_22_Vel_50,47
Note_On_22_Vel_51,48
Note_On_22_Vel_52,49
Note_On_22_Vel_53,50
Note_On_22_Vel_54,51
Note_On_22_Vel_55,52
Note_On_22_Vel_56,53
Note_On_22_Vel_57,54
Note_On_22_Vel_58,55
Note_On_22_Vel_59,56
Note_On_22_Vel_60,57
Note_On_22_Vel_61,58
Note_On_22_Vel_62,59
Note_On_22_Vel_63,60
Note_On_22_Vel_64,61
Note_On_22_Vel_65,62
Note_On_22_Vel_66,63
Note_On_22_Vel_67,64
Note_On_22_Vel_68,65
Note_On_22_Vel_69,66
Note_On_22_Vel_70,67
Note_On_22_Vel_71,68
Note_On_22_Vel_72,69
Note_On_22_Vel_73,70
Note_On_22_Vel_74,71
Note_On_22_Vel_75,72
Note_On_22_Vel_76,73
Note_On_22_Vel_77,74
Note_On_22_Vel_78,75
Note_On_22_Vel_79,76
Note_On_22_Vel_80,77
Note_On_22_Vel_81,78
Note_On_22_Vel_82,79
Note_On_22_Vel_83,80
Note_On_22_Vel_84,81
Note_On_22_Vel_85,82
Note_On_22_Vel_86,83
Note_On_22_Vel_87,84
Note_On_22_Vel_88,85
Note_On_22_Vel_89,86
Note_On_22_Vel_90,87
Note_On_22_Vel_91,88
Note_On_22_Vel_92,89
Note_On_22_Vel_93,90
Note_On_22_Vel_94,91
Note_On_22_Vel_95,92
Note_On_22_Vel_96,93
Note_On_22_Vel_97,94
Note_On_22_Vel_98,95
Note_On_22_Vel_99,96
Note_On_22_Vel_100,97
Note_On_22_Vel_101,98
Note_On_22_Vel_102,99
Note_On_22_Vel_103,100
Note_On_22_Vel_104,101
Note_On_22_Vel_105,102
Note_On_22_Vel_106,103
Note_On_22_Vel_107,104
Note_On_22_Vel_108,105
Note_On_22_Vel_109,106
Note_On_22_Vel_110,107
Note_On_22_Vel_111,108
Note_On_22_Vel_112,109
Note_On_22_Vel_113,110
Note_On_22_Vel_114,111
Note_On_22_Vel_115,112
Note_On_22_Vel_116,113
Note_On_22_Vel_117,114
Note_On_22_Vel_118,115
Note_On_23_Vel_0,116
Note_On_23_Vel_3,117
Note_On_23_Vel_5,118
Note_On_23_Vel_6,119
Note_On_23_Vel_7,120
Note_On_23_Vel_8,121
Note_On_23_Vel_9,122
Note_On_23_Vel_10,123
Note_On_23_Vel_11,124
Note_On_23_Vel_12,125
Note_On_23_Vel_13,126
Note_On_23_Vel_14,127
Note_On_23_Vel_15,128
Note_On_23_Vel_16,129
Note_On_23_Vel_17,130
Note_On_23_Vel_18,131
Note_On_23_Vel_19,132
Note_On_23_Vel_20,133
Note_On_23_Vel_21,134
Note_On_23_Vel_22,135
Note_On_23_Vel_23,136
Note_On_23_Vel_24,137
Note_On_23_Vel_25,138
Note_On_23_Vel_26,139
Note_On_23_Vel_27,140
Note_On_23_Vel_28,141
Note_On_23_Vel_29,142
Note_On_23_Vel_30,143
Note_On_23_Vel_31,144
Note_On_23_Vel_32,145
Note_On_23_Vel_33,146
Note_On_23_Vel_34,147
Note_On_23_Vel_35,148
Note_On_23_Vel_36,149
Note_On_23_Vel_37,150
Note_On_23_Vel_38,151
Note_On_23_Vel_39,152
Note_On_23_Vel_40,153
Note_On_23_Vel_41,154
Note_On_23_Vel_42,155
Note_On_23_Vel_43,156
Note_On_23_Vel_44,157
Note_On_23_Vel_45,158
Note_On_23_Vel_46,159
Note_On_23_Vel_47,160
Note_On_23_Vel_48,161
Note_On_23_Vel_49,162
Note_On_23_Vel_50,163
Note_On_23_Vel_51,164
Note_On_23_Vel_52,165
Note_On_23_Vel_53,166
Note_On_23_Vel_54,167
Note_On_23_Vel_55,168
Note_On_23_Vel_56,169
Note_On_23_Vel_57,170
Note_On_23_Vel_58,171
Note_On_23_Vel_59,172
Note_On_23_Vel_60,173
Note_On_23_Vel_61,174
Note_On_23_Vel_62,175
Note_On_23_Vel_63,176
Note_On_23_Vel_64,177
Note_On_23_Vel_65,178
Note_On_23_Vel_66,179
Note_On_23_Vel_67,180
Note_On_23_Vel_68,181
Note_On_23_Vel_69,182
Note_On_23_Vel_70,183
Note_On_23_Vel_71,184
Note_On_23_Vel_72,185
Note_On_23_Vel_73,186
Note_On_23_Vel_74,187
Note_On_23_Vel_75,188
Note_On_23_Vel_76,189
Note_On_23_Vel_77,190
Note_On_23_Vel_78,191
Note_On_23_Vel_79,192
Note_On_23_Vel_80,193
Note_On_23_Vel_81,194
Note_On_23_Vel_82,195
Note_On_23_Vel_83,196
Note_On_23_Vel_84,197
Note_On_23_Vel_85,198
Note_On_23_Vel_86,199
Note_On_23_Vel_87,200
Note_On_23_Vel_88,201
Note_On_23_Vel_89,202
Note_On_23_Vel_90,203
Note_On_23_Vel_91,204
Note_On_23_Vel_92,205
Note_On_23_Vel_93,206
Note_On_23_Vel_94,207
Note_On_23_Vel_95,208
Note_On_23_Vel_96,209
Note_On_23_Vel_97,210
Note_On_23_Vel_98,211
Note_On_23_Vel_99,212
Note_On_23_Vel_100,213
Note_On_23_Vel_101,214
Note_On_23_Vel_102,215
Note_On_23_Vel_103,216
Note_On_23_Vel_104,217
Note_On_23_Vel_105,218
Note_On_23_Vel_106,219
Note_On_23_Vel_107,220
Note_On_23_Vel_108,221
Note_On_23_Vel_109,222
Note_On_23_Vel_110,223
Note_On_23_Vel_111,224
Note_On_23_Vel_112,225
Note_On_23_Vel_113,226
Note_On_23_Vel_114,227
Note_On_23_Vel_115,228
Note_On_23_Vel_116,229
Note_On_23_Vel_117,230
Note_On_23_Vel_118,231
Note_On_24_Vel_0,232
Note_On_24_Vel_3,233
Note_On_24_Vel_5,234
Note_On_24_Vel_6,235
Note_On_24_Vel_7,236
Note_On_24_Vel_8,237
Note_On_24_Vel_9,238
Note_On_24_Vel_10,239
Note_On_24_Vel_11,240
Note_On_24_Vel_12,241
Note_On_24_Vel_13,242
Note_On_24_Vel_14,243
Note_On_24_Vel_15,244
Note_On_24_Vel_16,245
Note_On_24_Vel_17,246
Note_On_24_Vel_18,247
Note_On_24_Vel_19,248
Note_On_24_Vel_20,249
Note_On_24_Vel_21,250
Note_On_24_Vel_22,251
Note_On_24_Vel_23,252
Note_On_24_Vel_24,253
Note_On_24_Vel_25,254
Note_On_24_Vel_26,255
Note_On_24_Vel_27,256
Note_On_24_Vel_28,257
Note_On_24_Vel_29,258
Note_On_24_Vel_30,259
Note_On_24_Vel_31,260
Note_On_24_Vel_32,261
Note_On_24_Vel_33,262
Note_On_24_Vel_34,263
Note_On_24_Vel_35,264
Note_On_24_Vel_36,265
Note_On_24_Vel_37,266
Note_On_24_Vel_38,267
Note_On_24_Vel_39,268
Note_On_24_Vel_40,269
Note_On_24_Vel_41,270
Note_On_24_Vel_42,271
Note_On_24_Vel_43,272
Note_On_24_Vel_44,273
Note_On_24_Vel_45,274
Note_On_24_Vel_46,275
Note_On_24_Vel_47,276
Note_On_24_Vel_48,277
Note_On_24_Vel_49,278
Note_On_24_Vel_50,279
Note_On_24_Vel_51,280
Note_On_24_Vel_52,281
Note_On_24_Vel_53,282
Note_On_24_Vel_54,283
Note_On_24_Vel_55,284
Note_On_24_Vel_56,285
Note_On_24_Vel_57,286
Note_On_24_Vel_58,287
Note_On_24_Vel_59,288
Note_On_24_Vel_60,289
Note_On_24_Vel_61,290
Note_On_24_Vel_62,291
Note_On_24_Vel_63,292
Note_On_24_Vel_64,293
Note_On_24_Vel_65,294
Note_On_24_Vel_66,295
Note_On_24_Vel_67,296
Note_On_24_Vel_68,297
Note_On_24_Vel_69,298
Note_On_24_Vel_70,299
Note_On_24_Vel_71,300
Note_On_24_Vel_72,301
Note_On_24_Vel_73,302
Note_On_24_Vel_74,303
Note_On_24_Vel_75,304
Note_On_24_Vel_76,305
Note_On_24_Vel_77,306
Note_On_24_Vel_78,307
Note_On_24_Vel_79,308
Note_On_24_Vel_80,309
Note_On_24_Vel_81,310
Note_On_24_Vel_82,311
Note_On_24_Vel_83,312
Note_On_24_Vel_84,313
Note_On_24_Vel_85,314
Note_On_24_Vel_86,315
Note_On_24_Vel_87,316
Note_On_24_Vel_88,317
Note_On_24_Vel_89,318
Note_On_24_Vel_90,319
Note_On_24_Vel_91,320
Note_On_24_Vel_92,321
Note_On_24_Vel_93,322
Note_On_24_Vel_94,323
Note_On_24_Vel_95,324
Note_On_24_Vel_96,325
Note_On_24_Vel_97,326
Note_On_24_Vel_98,327
Note_On_24_Vel_99,328
Note_On_24_Vel_100,329
Note_On_24_Vel_101,330
Note_On_24_Vel_102,331
Note_On_24_Vel_103,332
Note_On_24_Vel_104,333
Note_On_24_Vel_105,334
Note_On_24_Vel_106,335
Note_On_24_Vel_107,336
Note_On_24_Vel_108,337
Note_On_24_Vel_109,338
Note_On_24_Vel_110,339
Note_On_24_Vel_111,340
Note_On_24_Vel_112,341
Note_On_24_Vel_113,342
Note_On_24_Vel_114,343
Note_On_24_Vel_115,344
Note_On_24_Vel_116,345
Note_On_24_Vel_117,346
Note_On_24_Vel_118,347
Note_On_25_Vel_0,348
Note_On_25_Vel_3,349
Note_On_25_Vel_5,350
Note_On_25_Vel_6,351
Note_On_25_Vel_7,352
Note_On_25_Vel_8,353
Note_On_25_Vel_9,354
Note_On_25_Vel_10,355
Note_On_25_Vel_11,356
Note_On_25_Vel_12,357
Note_On_25_Vel_13,358
Note_On_25_Vel_14,359
Note_On_25_Vel_15,360
Note_On_25_Vel_16,361
Note_On_25_Vel_17,362
Note_On_25_Vel_18,363
Note_On_25_Vel_19,364
Note_On_25_Vel_20,365
Note_On_25_Vel_21,366
Note_On_25_Vel_22,367
Note_On_25_Vel_23,368
Note_On_25_Vel_24,369
Note_On_25_Vel_25,370
Note_On_25_Vel_26,371
Note_On_25_Vel_27,372
Note_On_25_Vel_28,373
Note_On_25_Vel_29,374
Note_On_25_Vel_30,375
Note_On_25_Vel_31,376
Note_On_25_Vel_32,377
Note_On_25_Vel_33,378
Note_On_25_Vel_34,379
Note_On_25_Vel_35,380
Note_On_25_Vel_36,381
Note_On_25_Vel_37,382
Note_On_25_Vel_38,383
Note_On_25_Vel_39,384
Note_On_25_Vel_40,385
Note_On_25_Vel_41,386
Note_On_25_Vel_42,387
Note_On_25_Vel_43,388
Note_On_25_Vel_44,389
Note_On_25_Vel_45,390
Note_On_25_Vel_46,391
Note_On_25_Vel_47,392
Note_On_25_Vel_48,393
Note_On_25_Vel_49,394
Note_On_25_Vel_50,395
Note_On_25_Vel_51,396
Note_On_25_Vel_52,397
Note_On_25_Vel_53,398
Note_On_25_Vel_54,399
Note_On_25_Vel_55,400
Note_On_25_Vel_56,401
Note_On_25_Vel_57,402
Note_On_25_Vel_58,403
Note_On_25_Vel_59,404
Note_On_25_Vel_60,405
Note_On_25_Vel_61,406
Note_On_25_Vel_62,407
Note_On_25_Vel_63,408
Note_On_25_Vel_64,409
Note_On_25_Vel_65,410
Note_On_25_Vel_66,411
Note_On_25_Vel_67,412
Note_On_25_Vel_68,413
Note_On_25_Vel_69,414
Note_On_25_Vel_70,415
Note_On_25_Vel_71,416
Note_On_25_Vel_72,417
Note_On_25_Vel_73,418
Note_On_25_Vel_74,419
Note_On_25_Vel_75,420
Note_On_25_Vel_76,421
Note_On_25_Vel_77,422
Note_On_25_Vel_78,423
Note_On_25_Vel_79,424
Note_On_25_Vel_80,425
Note_On_25_Vel_81,426
Note_On_25_Vel_82,427
Note_On_25_Vel_83,428
Note_On_25_Vel_84,429
Note_On_25_Vel_85,430
Note_On_25_Vel_86,431
Note_On_25_Vel_87,432
Note_On_25_Vel_88,433
Note_On_25_Vel_89,434
Note_On_25_Vel_90,435
Note_On_25_Vel_91,436
Note_On_25_Vel_92,437
Note_On_25_Vel_93,438
Note_On_25_Vel_94,439
Note_On_25_Vel_95,440
Note_On_25_Vel_96,441
Note_On_25_Vel_97,442
Note_On_25_Vel_98,443
Note_On_25_Vel_99,444
Note_On_25_Vel_100,445
Note_On_25_Vel_101,446
Note_On_25_Vel_102,447
Note_On_25_Vel_103,448
Note_On_25_Vel_104,449
Note_On_25_Vel_105,450
Note_On_25_Vel_106,451
Note_On_25_Vel_107,452
Note_On_25_Vel_108,453
Note_On_25_Vel_109,454
Note_On_25_Vel_110,455
Note_On_25_Vel_111,456
Note_On_25_Vel_112,457
Note_On_25_Vel_113,458
Note_On_25_Vel_114,459
Note_On_25_Vel_115,460
Note_On_25_Vel_116,461
Note_On_25_Vel_117,462
Note_On_25_Vel_118,463
Note_On_26_Vel_0,464
Note_On_26_Vel_3,465
Note_On_26_Vel_5,466
Note_On_26_Vel_6,467
Note_On_26_Vel_7,468
Note_On_26_Vel_8,469
Note_On_26_Vel_9,470
Note_On_26_Vel_10,471
Note_On_26_Vel_11,472
Note_On_26_Vel_12,473
Note_On_26_Vel_13,474
Note_On_26_Vel_14,475
Note_On_26_Vel_15,476
Note_On_26_Vel_16,477
Note_On_26_Vel_17,478
Note_On_26_Vel_18,479
Note_On_26_Vel_19,480
Note_On_26_Vel_20,481
Note_On_26_Vel_21,482
Note_On_26_Vel_22,483
Note_On_26_Vel_23,484
Note_On_26_Vel_24,485
Note_On_26_Vel_25,486
Note_On_26_Vel_26,487
Note_On_26_Vel_27,488
Note_On_26_Vel_28,489
Note_On_26_Vel_29,490
Note_On_26_Vel_30,491
Note_On_26_Vel_31,492
Note_On_26_Vel_32,493
Note_On_26_Vel_33,494
Note_On_26_Vel_34,495
Note_On_26_Vel_35,496
Note_On_26_Vel_36,497
Note_On_26_Vel_37,498
Note_On_26_Vel_38,499
Note_On_26_Vel_39,500
Note_On_26_Vel_40,501
Note_On_26_Vel_41,502
Note_On_26_Vel_42,503
Note_On_26_Vel_43,504
Note_On_26_Vel_44,505
Note_On_26_Vel_45,506
Note_On_26_Vel_46,507
Note_On_26_Vel_47,508
Note_On_26_Vel_48,509
Note_On_26_Vel_49,510
Note_On_26_Vel_50,511
Note_On_26_Vel_51,512
Note_On_26_Vel_52,513
Note_On_26_Vel_53,514
Note_On_26_Vel_54,515
Note_On_26_Vel_55,516
Note_On_26_Vel_56,517
Note_On_26_Vel_57,518
Note_On_26_Vel_58,519
Note_On_26_Vel_59,520
Note_On_26_Vel_60,521
Note_On_26_Vel_61,522
Note_On_26_Vel_62,523
Note_On_26_Vel_63,524
Note_On_26_Vel_64,525
Note_On_26_Vel_65,526
Note_On_26_Vel_66,527
Note_On_26_Vel_67,528
Note_On_26_Vel_68,529
Note_On_26_Vel_69,530
Note_On_26_Vel_70,531
Note_On_26_Vel_71,532
Note_On_26_Vel_72,533
Note_On_26_Vel_73,534
Note_On_26_Vel_74,535
Note_On_26_Vel_75,536
Note_On_26_Vel_76,537
Note_On_26_Vel_77,538
Note_On_26_Vel_78,539
Note_On_26_Vel_79,540
Note_On_26_Vel_80,541
Note_On_26_Vel_81,542
Note_On_26_Vel_82,543
Note_On_26_Vel_83,544
Note_On_26_Vel_84,545
Note_On_26_Vel_85,546
Note_On_26_Vel_86,547
Note_On_26_Vel_87,548
Note_On_26_Vel_88,549
Note_On_26_Vel_89,550
Note_On_26_Vel_90,551
Note_On_26_Vel_91,552
Note_On_26_Vel_92,553
Note_On_26_Vel_93,554
Note_On_26_Vel_94,555
Note_On_26_Vel_95,556
Note_On_26_Vel_96,557
Note_On_26_Vel_97,558
Note_On_26_Vel_98,559
Note_On_26_Vel_99,560
Note_On_26_Vel_100,561
Note_On_26_Vel_101,562
Note_On_26_Vel_102,563
Note_On_26_Vel_103,564
Note_On_26_Vel_104,565
Note_On_26_Vel_105,566
Note_On_26_Vel_106,567
Note_On_26_Vel_107,568
Note_On_26_Vel_108,569
Note_On_26_Vel_109,570
Note_On_26_Vel_110,571
Note_On_26_Vel_111,572
Note_On_26_Vel_112,573
Note_On_26_Vel_113,574
Note_On_26_Vel_114,575
Note_On_26_Vel_115,576
Note_On_26_Vel_116,577
Note_On_26_Vel_117,578
Note_On_26_Vel_118,579
Note_On_27_Vel_0,580
Note_On_27_Vel_3,581
Note_On_27_Vel_5,582
Note_On_27_Vel_6,583
Note_On_27_Vel_7,584
Note_On_27_Vel_8,585
Note_On_27_Vel_9,586
Note_On_27_Vel_10,587
Note_On_27_Vel_11,588
Note_On_27_Vel_12,589
Note_On_27_Vel_13,590
Note_On_27_Vel_14,591
Note_On_27_Vel_15,592
Note_On_27_Vel_16,593
Note_On_27_Vel_17,594
Note_On_27_Vel_18,595
Note_On_27_Vel_19,596
Note_On_27_Vel_20,597
Note_On_27_Vel_21,598
Note_On_27_Vel_22,599
Note_On_27_Vel_23,600
Note_On_27_Vel_24,601
Note_On_27_Vel_25,602
Note_On_27_Vel_26,603
Note_On_27_Vel_27,604
Note_On_27_Vel_28,605
Note_On_27_Vel_29,606
Note_On_27_Vel_30,607
Note_On_27_Vel_31,608
Note_On_27_Vel_32,609
Note_On_27_Vel_33,610
Note_On_27_Vel_34,611
Note_On_27_Vel_35,612
Note_On_27_Vel_36,613
Note_On_27_Vel_37,614
Note_On_27_Vel_38,615
Note_On_27_Vel_39,616
Note_On_27_Vel_40,617
Note_On_27_Vel_41,618
Note_On_27_Vel_42,619
Note_On_27_Vel_43,620
Note_On_27_Vel_44,621
Note_On_27_Vel_45,622
Note_On_27_Vel_46,623
Note_On_27_Vel_47,624
Note_On_27_Vel_48,625
Note_On_27_Vel_49,626
Note_On_27_Vel_50,627
Note_On_27_Vel_51,628
Note_On_27_Vel_52,629
Note_On_27_Vel_53,630
Note_On_27_Vel_54,631
Note_On_27_Vel_55,632
Note_On_27_Vel_56,633
Note_On_27_Vel_57,634
Note_On_27_Vel_58,635
Note_On_27_Vel_59,636
Note_On_27_Vel_60,637
Note_On_27_Vel_61,638
Note_On_27_Vel_62,639
Note_On_27_Vel_63,640
Note_On_27_Vel_64,641
Note_On_27_Vel_65,642
Note_On_27_Vel_66,643
Note_On_27_Vel_67,644
Note_On_27_Vel_68,645
Note_On_27_Vel_69,646
Note_On_27_Vel_70,647
Note_On_27_Vel_71,648
Note_On_27_Vel_72,649
Note_On_27_Vel_73,650
Note_On_27_Vel_74,651
Note_On_27_Vel_75,652
Note_On_27_Vel_76,653
Note_On_27_Vel_77,654
Note_On_27_Vel_78,655
Note_On_27_Vel_79,656
Note_On_27_Vel_80,657
Note_On_27_Vel_81,658
Note_On_27_Vel_82,659
Note_On_27_Vel_83,660
Note_On_27_Vel_84,661
Note_On_27_Vel_85,662
Note_On_27_Vel_86,663
Note_On_27_Vel_87,664
Note_On_27_Vel_88,665
Note_On_27_Vel_89,666
Note_On_27_Vel_90,667
Note_On_27_Vel_91,668
Note_On_27_Vel_92,669
Note_On_27_Vel_93,670
Note_On_27_Vel_94,671
Note_On_27_Vel_95,672
Note_On_27_Vel_96,673
Note_On_27_Vel_97,674
Note_On_27_Vel_98,675
Note_On_27_Vel_99,676
Note_On_27_Vel_100,677
Note_On_27_Vel_101,678
Note_On_27_Vel_102,679
Note_On_27_Vel_103,680
Note_On_27_Vel_104,681
Note_On_27_Vel_105,682
Note_On_27_Vel_106,683
Note_On_27_Vel_107,684
Note_On_27_Vel_108,685
Note_On_27_Vel_109,686
Note_On_27_Vel_110,687
Note_On_27_Vel_111,688
Note_On_27_Vel_112,689
Note_On_27_Vel_113,690
Note_On_27_Vel_114,691
Note_On_27_Vel_115,692
Note_On_27_Vel_116,693
Note_On_27_Vel_117,694
Note_On_27_Vel_118,695
Note_On_28_Vel_0,696
Note_On_28_Vel_3,697
Note_On_28_Vel_5,698
Note_On_28_Vel_6,699
Note_On_28_Vel_7,700
Note_On_28_Vel_8,701
Note_On_28_Vel_9,702
Note_On_28_Vel_10,703
Note_On_28_Vel_11,704
Note_On_28_Vel_12,705
Note_On_28_Vel_13,706
Note_On_28_Vel_14,707
Note_On_28_Vel_15,708
Note_On_28_Vel_16,709
Note_On_28_Vel_17,710
Note_On_28_Vel_18,711
Note_On_28_Vel_19,712
Note_On_28_Vel_20,713
Note_On_28_Vel_21,714
Note_On_28_Vel_22,715
Note_On_28_Vel_23,716
Note_On_28_Vel_24,717
Note_On_28_Vel_25,718
Note_On_28_Vel_26,719
Note_On_28_Vel_27,720
Note_On_28_Vel_28,721
Note_On_28_Vel_29,722
Note_On_28_Vel_30,723
Note_On_28_Vel_31,724
Note_On_28_Vel_32,725
Note_On_28_Vel_33,726
Note_On_28_Vel_34,727
Note_On_28_Vel_35,728
Note_On_28_Vel_36,729
Note_On_28_Vel_37,730
Note_On_28_Vel_38,731
Note_On_28_Vel_39,732
Note_On_28_Vel_40,733
Note_On_28_Vel_41,734
Note_On_28_Vel_42,735
Note_On_28_Vel_43,736
Note_On_28_Vel_44,737
Note_On_28_Vel_45,738
Note_On_28_Vel_46,739
Note_On_28_Vel_47,740
Note_On_28_Vel_48,741
Note_On_28_Vel_49,742
Note_On_28_Vel_50,743
Note_On_28_Vel_51,744
Note_On_28_Vel_52,745
Note_On_28_Vel_53,746
Note_On_28_Vel_54,747
Note_On_28_Vel_55,748
Note_On_28_Vel_56,749
Note_On_28_Vel_57,750
Note_On_28_Vel_58,751
Note_On_28_Vel_59,752
Note_On_28_Vel_60,753
Note_On_28_Vel_61,754
Note_On_28_Vel_62,755
Note_On_28_Vel_63,756
Note_On_28_Vel_64,757
Note_On_28_Vel_65,758
Note_On_28_Vel_66,759
Note_On_28_Vel_67,760
Note_On_28_Vel_68,761
Note_On_28_Vel_69,762
Note_On_28_Vel_70,763
Note_On_28_Vel_71,764
Note_On_28_Vel_72,765
Note_On_28_Vel_73,766
Note_On_28_Vel_74,767
Note_On_28_Vel_75,768
Note_On_28_Vel_76,769
Note_On_28_Vel_77,770
Note_On_28_Vel_78,771
Note_On_28_Vel_79,772
Note_On_28_Vel_80,773
Note_On_28_Vel_81,774
Note_On_28_Vel_82,775
Note_On_28_Vel_83,776
Note_On_28_Vel_84,777
Note_On_28_Vel_85,778
Note_On_28_Vel_86,779
Note_On_28_Vel_87,780
Note_On_28_Vel_88,781
Note_On_28_Vel_89,782
Note_On_28_Vel_90,783
Note_On_28_Vel_91,784
Note_On_28_Vel_92,785
Note_On_28_Vel_93,786
Note_On_28_Vel_94,787
Note_On_28_Vel_95,788
Note_On_28_Vel_96,789
Note_On_28_Vel_97,790
Note_On_28_Vel_98,791
Note_On_28_Vel_99,792
Note_On_28_Vel_100,793
Note_On_28_Vel_101,794
Note_On_28_Vel_102,795
Note_On_28_Vel_103,796
Note_On_28_Vel_104,797
Note_On_28_Vel_105,798
Note_On_28_Vel_106,799
Note_On_28_Vel_107,800
Note_On_28_Vel_108,801
Note_On_28_Vel_109,802
Note_On_28_Vel_110,803
Note_On_28_Vel_111,804
Note_On_28_Vel_112,805
Note_On_28_Vel_113,806
Note_On_28_Vel_114,807
Note_On_28_Vel_115,808
Note_On_28_Vel_116,809
Note_On_28_Vel_117,810
Note_On_28_Vel_118,811
Note_On_29_Vel_0,812
Note_On_29_Vel_3,813
Note_On_29_Vel_5,814
Note_On_29_Vel_6,815
Note_On_29_Vel_7,816
Note_On_29_Vel_8,817
Note_On_29_Vel_9,818
Note_On_29_Vel_10,819
Note_On_29_Vel_11,820
Note_On_29_Vel_12,821
Note_On_29_Vel_13,822
Note_On_29_Vel_14,823
Note_On_29_Vel_15,824
Note_On_29_Vel_16,825
Note_On_29_Vel_17,826
Note_On_29_Vel_18,827
Note_On_29_Vel_19,828
Note_On_29_Vel_20,829
Note_On_29_Vel_21,830
Note_On_29_Vel_22,831
Note_On_29_Vel_23,832
Note_On_29_Vel_24,833
Note_On_29_Vel_25,834
Note_On_29_Vel_26,835
Note_On_29_Vel_27,836
Note_On_29_Vel_28,837
Note_On_29_Vel_29,838
Note_On_29_Vel_30,839
Note_On_29_Vel_31,840
Note_On_29_Vel_32,841
Note_On_29_Vel_33,842
Note_On_29_Vel_34,843
Note_On_29_Vel_35,844
Note_On_29_Vel_36,845
Note_On_29_Vel_37,846
Note_On_29_Vel_38,847
Note_On_29_Vel_39,848
Note_On_29_Vel_40,849
Note_On_29_Vel_41,850
Note_On_29_Vel_42,851
Note_On_29_Vel_43,852
Note_On_29_Vel_44,853
Note_On_29_Vel_45,854
Note_On_29_Vel_46,855
Note_On_29_Vel_47,856
Note_On_29_Vel_48,857
Note_On_29_Vel_49,858
Note_On_29_Vel_50,859
Note_On_29_Vel_51,860
Note_On_29_Vel_52,861
Note_On_29_Vel_53,862
Note_On_29_Vel_54,863
Note_On_29_Vel_55,864
Note_On_29_Vel_56,865
Note_On_29_Vel_57,866
Note_On_29_Vel_58,867
Note_On_29_Vel_59,868
Note_On_29_Vel_60,869
Note_On_29_Vel_61,870
Note_On_29_Vel_62,871
Note_On_29_Vel_63,872
Note_On_29_Vel_64,873
Note_On_29_Vel_65,874
Note_On_29_Vel_66,875
Note_On_29_Vel_67,876
Note_On_29_Vel_68,877
Note_On_29_Vel_69,878
Note_On_29_Vel_70,879
Note_On_29_Vel_71,880
Note_On_29_Vel_72,881
Note_On_29_Vel_73,882
Note_On_29_Vel_74,883
Note_On_29_Vel_75,884
Note_On_29_Vel_76,885
Note_On_29_Vel_77,886
Note_On_29_Vel_78,887
Note_On_29_Vel_79,888
Note_On_29_Vel_80,889
Note_On_29_Vel_81,890
Note_On_29_Vel_82,891
Note_On_29_Vel_83,892
Note_On_29_Vel_84,893
Note_On_29_Vel_85,894
Note_On_29_Vel_86,895
Note_On_29_Vel_87,896
Note_On_29_Vel_88,897
Note_On_29_Vel_89,898
Note_On_29_Vel_90,899
Note_On_29_Vel_91,900
Note_On_29_Vel_92,901
Note_On_29_Vel_93,902
Note_On_29_Vel_94,903
Note_On_29_Vel_95,904
Note_On_29_Vel_96,905
Note_On_29_Vel_97,906
Note_On_29_Vel_98,907
Note_On_29_Vel_99,908
Note_On_29_Vel_100,909
Note_On_29_Vel_101,910
Note_On_29_Vel_102,911
Note_On_29_Vel_103,912
Note_On_29_Vel_104,913
Note_On_29_Vel_105,914
Note_On_29_Vel_106,915
Note_On_29_Vel_107,916
Note_On_29_Vel_108,917
Note_On_29_Vel_109,918
Note_On_29_Vel_110,919
Note_On_29_Vel_111,920
Note_On_29_Vel_112,921
Note_On_29_Vel_113,922
Note_On_29_Vel_114,923
Note_On_29_Vel_115,924
Note_On_29_Vel_116,925
Note_On_29_Vel_117,926
Note_On_29_Vel_118,927
Note_On_30_Vel_0,928
Note_On_30_Vel_3,929
Note_On_30_Vel_5,930
Note_On_30_Vel_6,931
Note_On_30_Vel_7,932
Note_On_30_Vel_8,933
Note_On_30_Vel_9,934
Note_On_30_Vel_10,935
Note_On_30_Vel_11,936
Note_On_30_Vel_12,937
Note_On_30_Vel_13,938
Note_On_30_Vel_14,939
Note_On_30_Vel_15,940
Note_On_30_Vel_16,941
Note_On_30_Vel_17,942
Note_On_30_Vel_18,943
Note_On_30_Vel_19,944
Note_On_30_Vel_20,945
Note_On_30_Vel_21,946
Note_On_30_Vel_22,947
Note_On_30_Vel_23,948
Note_On_30_Vel_24,949
Note_On_30_Vel_25,950
Note_On_30_Vel_26,951
Note_On_30_Vel_27,952
Note_On_30_Vel_28,953
Note_On_30_Vel_29,954
Note_On_30_Vel_30,955
Note_On_30_Vel_31,956
Note_On_30_Vel_32,957
Note_On_30_Vel_33,958
Note_On_30_Vel_34,959
Note_On_30_Vel_35,960
Note_On_30_Vel_36,961
Note_On_30_Vel_37,962
Note_On_30_Vel_38,963
Note_On_30_Vel_39,964
Note_On_30_Vel_40,965
Note_On_30_Vel_41,966
Note_On_30_Vel_42,967
Note_On_30_Vel_43,968
Note_On_30_Vel_44,969
Note_On_30_Vel_45,970
Note_On_30_Vel_46,971
Note_On_30_Vel_47,972
Note_On_30_Vel_48,973
Note_On_30_Vel_49,974
Note_On_30_Vel_50,975
Note_On_30_Vel_51,976
Note_On_30_Vel_52,977
Note_On_30_Vel_53,978
Note_On_30_Vel_54,979
Note_On_30_Vel_55,980
Note_On_30_Vel_56,981
Note_On_30_Vel_57,982
Note_On_30_Vel_58,983
Note_On_30_Vel_59,984
Note_On_30_Vel_60,985
Note_On_30_Vel_61,986
Note_On_30_Vel_62,987
Note_On_30_Vel_63,988
Note_On_30_Vel_64,989
Note_On_30_Vel_65,990
Note_On_30_Vel_66,991
Note_On_30_Vel_67,992
Note_On_30_Vel_68,993
Note_On_30_Vel_69,994
Note_On_30_Vel_70,995
Note_On_30_Vel_71,996
Note_On_30_Vel_72,997
Note_On_30_Vel_73,998
Note_On_30_Vel_74,999
Note_On_30_Vel_75,1000
Note_On_30_Vel_76,1001
Note_On_30_Vel_77,1002
Note_On_30_Vel_78,1003
Note_On_30_Vel_79,1004
Note_On_30_Vel_80,1005
Note_On_30_Vel_81,1006
Note_On_30_Vel_82,1007
Note_On_30_Vel_83,1008
Note_On_30_Vel_84,1009
Note_On_30_Vel_85,1010
Note_On_30_Vel_86,1011
Note_On_30_Vel_87,1012
Note_On_30_Vel_88,1013
Note_On_30_Vel_89,1014
Note_On_30_Vel_90,1015
Note_On_30_Vel_91,1016
Note_On_30_Vel_92,1017
Note_On_30_Vel_93,1018
Note_On_30_Vel_94,1019
Note_On_30_Vel_95,1020
Note_On_30_Vel_96,1021
Note_On_30_Vel_97,1022
Note_On_30_Vel_98,1023
Note_On_30_Vel_99,1024
Note_On_30_Vel_100,1025
Note_On_30_Vel_101,1026
Note_On_30_Vel_102,1027
Note_On_30_Vel_103,1028
Note_On_30_Vel_104,1029
Note_On_30_Vel_105,1030
Note_On_30_Vel_106,1031
Note_On_30_Vel_107,1032
Note_On_30_Vel_108,1033
Note_On_30_Vel_109,1034
Note_On_30_Vel_110,1035
Note_On_30_Vel_111,1036
Note_On_30_Vel_112,1037
Note_On_30_Vel_113,1038
Note_On_30_Vel_114,1039
Note_On_30_Vel_115,1040
Note_On_30_Vel_116,1041
Note_On_30_Vel_117,1042
Note_On_30_Vel_118,1043
Note_On_31_Vel_0,1044
Note_On_31_Vel_3,1045
Note_On_31_Vel_5,1046
Note_On_31_Vel_6,1047
Note_On_31_Vel_7,1048
Note_On_31_Vel_8,1049
Note_On_31_Vel_9,1050
Note_On_31_Vel_10,1051
Note_On_31_Vel_11,1052
Note_On_31_Vel_12,1053
Note_On_31_Vel_13,1054
Note_On_31_Vel_14,1055
Note_On_31_Vel_15,1056
Note_On_31_Vel_16,1057
Note_On_31_Vel_17,1058
Note_On_31_Vel_18,1059
Note_On_31_Vel_19,1060
Note_On_31_Vel_20,1061
Note_On_31_Vel_21,1062
Note_On_31_Vel_22,1063
Note_On_31_Vel_23,1064
Note_On_31_Vel_24,1065
Note_On_31_Vel_25,1066
Note_On_31_Vel_26,1067
Note_On_31_Vel_27,1068
Note_On_31_Vel_28,1069
Note_On_31_Vel_29,1070
Note_On_31_Vel_30,1071
Note_On_31_Vel_31,1072
Note_On_31_Vel_32,1073
Note_On_31_Vel_33,1074
Note_On_31_Vel_34,1075
Note_On_31_Vel_35,1076
Note_On_31_Vel_36,1077
Note_On_31_Vel_37,1078
Note_On_31_Vel_38,1079
Note_On_31_Vel_39,1080
Note_On_31_Vel_40,1081
Note_On_31_Vel_41,1082
Note_On_31_Vel_42,1083
Note_On_31_Vel_43,1084
Note_On_31_Vel_44,1085
Note_On_31_Vel_45,1086
Note_On_31_Vel_46,1087
Note_On_31_Vel_47,1088
Note_On_31_Vel_48,1089
Note_On_31_Vel_49,1090
Note_On_31_Vel_50,1091
Note_On_31_Vel_51,1092
Note_On_31_Vel_52,1093
Note_On_31_Vel_53,1094
Note_On_31_Vel_54,1095
Note_On_31_Vel_55,1096
Note_On_31_Vel_56,1097
Note_On_31_Vel_57,1098
Note_On_31_Vel_58,1099
Note_On_31_Vel_59,1100
Note_On_31_Vel_60,1101
Note_On_31_Vel_61,1102
Note_On_31_Vel_62,1103
Note_On_31_Vel_63,1104
Note_On_31_Vel_64,1105
Note_On_31_Vel_65,1106
Note_On_31_Vel_66,1107
Note_On_31_Vel_67,1108
Note_On_31_Vel_68,1109
Note_On_31_Vel_69,1110
Note_On_31_Vel_70,1111
Note_On_31_Vel_71,1112
Note_On_31_Vel_72,1113
Note_On_31_Vel_73,1114
Note_On_31_Vel_74,1115
Note_On_31_Vel_75,1116
Note_On_31_Vel_76,1117
Note_On_31_Vel_77,1118
Note_On_31_Vel_78,1119
Note_On_31_Vel_79,1120
Note_On_31_Vel_80,1121
Note_On_31_Vel_81,1122
Note_On_31_Vel_82,1123
Note_On_31_Vel_83,1124
Note_On_31_Vel_84,1125
Note_On_31_Vel_85,1126
Note_On_31_Vel_86,1127
Note_On_31_Vel_87,1128
Note_On_31_Vel_88,1129
Note_On_31_Vel_89,1130
Note_On_31_Vel_90,1131
Note_On_31_Vel_91,1132
Note_On_31_Vel_92,1133
Note_On_31_Vel_93,1134
Note_On_31_Vel_94,1135
Note_On_31_Vel_95,1136
Note_On_31_Vel_96,1137
Note_On_31_Vel_97,1138
Note_On_31_Vel_98,1139
Note_On_31_Vel_99,1140
Note_On_31_Vel_100,1141
Note_On_31_Vel_101,1142
Note_On_31_Vel_102,1143
Note_On_31_Vel_103,1144
Note_On_31_Vel_104,1145
Note_On_31_Vel_105,1146
Note_On_31_Vel_106,1147
Note_On_31_Vel_107,1148
Note_On_31_Vel_108,1149
Note_On_31_Vel_109,1150
Note_On_31_Vel_110,1151
Note_On_31_Vel_111,1152
Note_On_31_Vel_112,1153
Note_On_31_Vel_113,1154
Note_On_31_Vel_114,1155
Note_On_31_Vel_115,1156
Note_On_31_Vel_116,1157
Note_On_31_Vel_117,1158
Note_On_31_Vel_118,1159
Note_On_32_Vel_0,1160
Note_On_32_Vel_3,1161
Note_On_32_Vel_5,1162
Note_On_32_Vel_6,1163
Note_On_32_Vel_7,1164
Note_On_32_Vel_8,1165
Note_On_32_Vel_9,1166
Note_On_32_Vel_10,1167
Note_On_32_Vel_11,1168
Note_On_32_Vel_12,1169
Note_On_32_Vel_13,1170
Note_On_32_Vel_14,1171
Note_On_32_Vel_15,1172
Note_On_32_Vel_16,1173
Note_On_32_Vel_17,1174
Note_On_32_Vel_18,1175
Note_On_32_Vel_19,1176
Note_On_32_Vel_20,1177
Note_On_32_Vel_21,1178
Note_On_32_Vel_22,1179
Note_On_32_Vel_23,1180
Note_On_32_Vel_24,1181
Note_On_32_Vel_25,1182
Note_On_32_Vel_26,1183
Note_On_32_Vel_27,1184
Note_On_32_Vel_28,1185
Note_On_32_Vel_29,1186
Note_On_32_Vel_30,1187
Note_On_32_Vel_31,1188
Note_On_32_Vel_32,1189
Note_On_32_Vel_33,1190
Note_On_32_Vel_34,1191
Note_On_32_Vel_35,1192
Note_On_32_Vel_36,1193
Note_On_32_Vel_37,1194
Note_On_32_Vel_38,1195
Note_On_32_Vel_39,1196
Note_On_32_Vel_40,1197
Note_On_32_Vel_41,1198
Note_On_32_Vel_42,1199
Note_On_32_Vel_43,1200
Note_On_32_Vel_44,1201
Note_On_32_Vel_45,1202
Note_On_32_Vel_46,1203
Note_On_32_Vel_47,1204
Note_On_32_Vel_48,1205
Note_On_32_Vel_49,1206
Note_On_32_Vel_50,1207
Note_On_32_Vel_51,1208
Note_On_32_Vel_52,1209
Note_On_32_Vel_53,1210
Note_On_32_Vel_54,1211
Note_On_32_Vel_55,1212
Note_On_32_Vel_56,1213
Note_On_32_Vel_57,1214
Note_On_32_Vel_58,1215
Note_On_32_Vel_59,1216
Note_On_32_Vel_60,1217
Note_On_32_Vel_61,1218
Note_On_32_Vel_62,1219
Note_On_32_Vel_63,1220
Note_On_32_Vel_64,1221
Note_On_32_Vel_65,1222
Note_On_32_Vel_66,1223
Note_On_32_Vel_67,1224
Note_On_32_Vel_68,1225
Note_On_32_Vel_69,1226
Note_On_32_Vel_70,1227
Note_On_32_Vel_71,1228
Note_On_32_Vel_72,1229
Note_On_32_Vel_73,1230
Note_On_32_Vel_74,1231
Note_On_32_Vel_75,1232
Note_On_32_Vel_76,1233
Note_On_32_Vel_77,1234
Note_On_32_Vel_78,1235
Note_On_32_Vel_79,1236
Note_On_32_Vel_80,1237
Note_On_32_Vel_81,1238
Note_On_32_Vel_82,1239
Note_On_32_Vel_83,1240
Note_On_32_Vel_84,1241
Note_On_32_Vel_85,1242
Note_On_32_Vel_86,1243
Note_On_32_Vel_87,1244
Note_On_32_Vel_88,1245
Note_On_32_Vel_89,1246
Note_On_32_Vel_90,1247
Note_On_32_Vel_91,1248
Note_On_32_Vel_92,1249
Note_On_32_Vel_93,1250
Note_On_32_Vel_94,1251
Note_On_32_Vel_95,1252
Note_On_32_Vel_96,1253
Note_On_32_Vel_97,1254
Note_On_32_Vel_98,1255
Note_On_32_Vel_99,1256
Note_On_32_Vel_100,1257
Note_On_32_Vel_101,1258
Note_On_32_Vel_102,1259
Note_On_32_Vel_103,1260
Note_On_32_Vel_104,1261
Note_On_32_Vel_105,1262
Note_On_32_Vel_106,1263
Note_On_32_Vel_107,1264
Note_On_32_Vel_108,1265
Note_On_32_Vel_109,1266
Note_On_32_Vel_110,1267
Note_On_32_Vel_111,1268
Note_On_32_Vel_112,1269
Note_On_32_Vel_113,1270
Note_On_32_Vel_114,1271
Note_On_32_Vel_115,1272
Note_On_32_Vel_116,1273
Note_On_32_Vel_117,1274
Note_On_32_Vel_118,1275
Note_On_33_Vel_0,1276
Note_On_33_Vel_3,1277
Note_On_33_Vel_5,1278
Note_On_33_Vel_6,1279
Note_On_33_Vel_7,1280
Note_On_33_Vel_8,1281
Note_On_33_Vel_9,1282
Note_On_33_Vel_10,1283
Note_On_33_Vel_11,1284
Note_On_33_Vel_12,1285
Note_On_33_Vel_13,1286
Note_On_33_Vel_14,1287
Note_On_33_Vel_15,1288
Note_On_33_Vel_16,1289
Note_On_33_Vel_17,1290
Note_On_33_Vel_18,1291
Note_On_33_Vel_19,1292
Note_On_33_Vel_20,1293
Note_On_33_Vel_21,1294
Note_On_33_Vel_22,1295
Note_On_33_Vel_23,1296
Note_On_33_Vel_24,1297
Note_On_33_Vel_25,1298
Note_On_33_Vel_26,1299
Note_On_33_Vel_27,1300
Note_On_33_Vel_28,1301
Note_On_33_Vel_29,1302
Note_On_33_Vel_30,1303
Note_On_33_Vel_31,1304
Note_On_33_Vel_32,1305
Note_On_33_Vel_33,1306
Note_On_33_Vel_34,1307
Note_On_33_Vel_35,1308
Note_On_33_Vel_36,1309
Note_On_33_Vel_37,1310
Note_On_33_Vel_38,1311
Note_On_33_Vel_39,1312
Note_On_33_Vel_40,1313
Note_On_33_Vel_41,1314
Note_On_33_Vel_42,1315
Note_On_33_Vel_43,1316
Note_On_33_Vel_44,1317
Note_On_33_Vel_45,1318
Note_On_33_Vel_46,1319
Note_On_33_Vel_47,1320
Note_On_33_Vel_48,1321
Note_On_33_Vel_49,1322
Note_On_33_Vel_50,1323
Note_On_33_Vel_51,1324
Note_On_33_Vel_52,1325
Note_On_33_Vel_53,1326
Note_On_33_Vel_54,1327
Note_On_33_Vel_55,1328
Note_On_33_Vel_56,1329
Note_On_33_Vel_57,1330
Note_On_33_Vel_58,1331
Note_On_33_Vel_59,1332
Note_On_33_Vel_60,1333
Note_On_33_Vel_61,1334
Note_On_33_Vel_62,1335
Note_On_33_Vel_63,1336
Note_On_33_Vel_64,1337
Note_On_33_Vel_65,1338
Note_On_33_Vel_66,1339
Note_On_33_Vel_67,1340
Note_On_33_Vel_68,1341
Note_On_33_Vel_69,1342
Note_On_33_Vel_70,1343
Note_On_33_Vel_71,1344
Note_On_33_Vel_72,1345
Note_On_33_Vel_73,1346
Note_On_33_Vel_74,1347
Note_On_33_Vel_75,1348
Note_On_33_Vel_76,1349
Note_On_33_Vel_77,1350
Note_On_33_Vel_78,1351
Note_On_33_Vel_79,1352
Note_On_33_Vel_80,1353
Note_On_33_Vel_81,1354
Note_On_33_Vel_82,1355
Note_On_33_Vel_83,1356
Note_On_33_Vel_84,1357
Note_On_33_Vel_85,1358
Note_On_33_Vel_86,1359
Note_On_33_Vel_87,1360
Note_On_33_Vel_88,1361
Note_On_33_Vel_89,1362
Note_On_33_Vel_90,1363
Note_On_33_Vel_91,1364
Note_On_33_Vel_92,1365
Note_On_33_Vel_93,1366
Note_On_33_Vel_94,1367
Note_On_33_Vel_95,1368
Note_On_33_Vel_96,1369
Note_On_33_Vel_97,1370
Note_On_33_Vel_98,1371
Note_On_33_Vel_99,1372
Note_On_33_Vel_100,1373
Note_On_33_Vel_101,1374
Note_On_33_Vel_102,1375
Note_On_33_Vel_103,1376
Note_On_33_Vel_104,1377
Note_On_33_Vel_105,1378
Note_On_33_Vel_106,1379
Note_On_33_Vel_107,1380
Note_On_33_Vel_108,1381
Note_On_33_Vel_109,1382
Note_On_33_Vel_110,1383
Note_On_33_Vel_111,1384
Note_On_33_Vel_112,1385
Note_On_33_Vel_113,1386
Note_On_33_Vel_114,1387
Note_On_33_Vel_115,1388
Note_On_33_Vel_116,1389
Note_On_33_Vel_117,1390
Note_On_33_Vel_118,1391
Note_On_34_Vel_0,1392
Note_On_34_Vel_3,1393
Note_On_34_Vel_5,1394
Note_On_34_Vel_6,1395
Note_On_34_Vel_7,1396
Note_On_34_Vel_8,1397
Note_On_34_Vel_9,1398
Note_On_34_Vel_10,1399
Note_On_34_Vel_11,1400
Note_On_34_Vel_12,1401
Note_On_34_Vel_13,1402
Note_On_34_Vel_14,1403
Note_On_34_Vel_15,1404
Note_On_34_Vel_16,1405
Note_On_34_Vel_17,1406
Note_On_34_Vel_18,1407
Note_On_34_Vel_19,1408
Note_On_34_Vel_20,1409
Note_On_34_Vel_21,1410
Note_On_34_Vel_22,1411
Note_On_34_Vel_23,1412
Note_On_34_Vel_24,1413
Note_On_34_Vel_25,1414
Note_On_34_Vel_26,1415
Note_On_34_Vel_27,1416
Note_On_34_Vel_28,1417
Note_On_34_Vel_29,1418
Note_On_34_Vel_30,1419
Note_On_34_Vel_31,1420
Note_On_34_Vel_32,1421
Note_On_34_Vel_33,1422
Note_On_34_Vel_34,1423
Note_On_34_Vel_35,1424
Note_On_34_Vel_36,1425
Note_On_34_Vel_37,1426
Note_On_34_Vel_38,1427
Note_On_34_Vel_39,1428
Note_On_34_Vel_40,1429
Note_On_34_Vel_41,1430
Note_On_34_Vel_42,1431
Note_On_34_Vel_43,1432
Note_On_34_Vel_44,1433
Note_On_34_Vel_45,1434
Note_On_34_Vel_46,1435
Note_On_34_Vel_47,1436
Note_On_34_Vel_48,1437
Note_On_34_Vel_49,1438
Note_On_34_Vel_50,1439
Note_On_34_Vel_51,1440
Note_On_34_Vel_52,1441
Note_On_34_Vel_53,1442
Note_On_34_Vel_54,1443
Note_On_34_Vel_55,1444
Note_On_34_Vel_56,1445
Note_On_34_Vel_57,1446
Note_On_34_Vel_58,1447
Note_On_34_Vel_59,1448
Note_On_34_Vel_60,1449
Note_On_34_Vel_61,1450
Note_On_34_Vel_62,1451
Note_On_34_Vel_63,1452
Note_On_34_Vel_64,1453
Note_On_34_Vel_65,1454
Note_On_34_Vel_66,1455
Note_On_34_Vel_67,1456
Note_On_34_Vel_68,1457
Note_On_34_Vel_69,1458
Note_On_34_Vel_70,1459
Note_On_34_Vel_71,1460
Note_On_34_Vel_72,1461
Note_On_34_Vel_73,1462
Note_On_34_Vel_74,1463
Note_On_34_Vel_75,1464
Note_On_34_Vel_76,1465
Note_On_34_Vel_77,1466
Note_On_34_Vel_78,1467
Note_On_34_Vel_79,1468
Note_On_34_Vel_80,1469
Note_On_34_Vel_81,1470
Note_On_34_Vel_82,1471
Note_On_34_Vel_83,1472
Note_On_34_Vel_84,1473
Note_On_34_Vel_85,1474
Note_On_34_Vel_86,1475
Note_On_34_Vel_87,1476
Note_On_34_Vel_88,1477
Note_On_34_Vel_89,1478
Note_On_34_Vel_90,1479
Note_On_34_Vel_91,1480
Note_On_34_Vel_92,1481
Note_On_34_Vel_93,1482
Note_On_34_Vel_94,1483
Note_On_34_Vel_95,1484
Note_On_34_Vel_96,1485
Note_On_34_Vel_97,1486
Note_On_34_Vel_98,1487
Note_On_34_Vel_99,1488
Note_On_34_Vel_100,1489
Note_On_34_Vel_101,1490
Note_On_34_Vel_102,1491
Note_On_34_Vel_103,1492
Note_On_34_Vel_104,1493
Note_On_34_Vel_105,1494
Note_On_34_Vel_106,1495
Note_On_34_Vel_107,1496
Note_On_34_Vel_108,1497
Note_On_34_Vel_109,1498
Note_On_34_Vel_110,1499
Note_On_34_Vel_111,1500
Note_On_34_Vel_112,1501
Note_On_34_Vel_113,1502
Note_On_34_Vel_114,1503
Note_On_34_Vel_115,1504
Note_On_34_Vel_116,1505
Note_On_34_Vel_117,1506
Note_On_34_Vel_118,1507
Note_On_35_Vel_0,1508
Note_On_35_Vel_3,1509
Note_On_35_Vel_5,1510
Note_On_35_Vel_6,1511
Note_On_35_Vel_7,1512
Note_On_35_Vel_8,1513
Note_On_35_Vel_9,1514
Note_On_35_Vel_10,1515
Note_On_35_Vel_11,1516
Note_On_35_Vel_12,1517
Note_On_35_Vel_13,1518
Note_On_35_Vel_14,1519
Note_On_35_Vel_15,1520
Note_On_35_Vel_16,1521
Note_On_35_Vel_17,1522
Note_On_35_Vel_18,1523
Note_On_35_Vel_19,1524
Note_On_35_Vel_20,1525
Note_On_35_Vel_21,1526
Note_On_35_Vel_22,1527
Note_On_35_Vel_23,1528
Note_On_35_Vel_24,1529
Note_On_35_Vel_25,1530
Note_On_35_Vel_26,1531
Note_On_35_Vel_27,1532
Note_On_35_Vel_28,1533
Note_On_35_Vel_29,1534
Note_On_35_Vel_30,1535
Note_On_35_Vel_31,1536
Note_On_35_Vel_32,1537
Note_On_35_Vel_33,1538
Note_On_35_Vel_34,1539
Note_On_35_Vel_35,1540
Note_On_35_Vel_36,1541
Note_On_35_Vel_37,1542
Note_On_35_Vel_38,1543
Note_On_35_Vel_39,1544
Note_On_35_Vel_40,1545
Note_On_35_Vel_41,1546
Note_On_35_Vel_42,1547
Note_On_35_Vel_43,1548
Note_On_35_Vel_44,1549
Note_On_35_Vel_45,1550
Note_On_35_Vel_46,1551
Note_On_35_Vel_47,1552
Note_On_35_Vel_48,1553
Note_On_35_Vel_49,1554
Note_On_35_Vel_50,1555
Note_On_35_Vel_51,1556
Note_On_35_Vel_52,1557
Note_On_35_Vel_53,1558
Note_On_35_Vel_54,1559
Note_On_35_Vel_55,1560
Note_On_35_Vel_56,1561
Note_On_35_Vel_57,1562
Note_On_35_Vel_58,1563
Note_On_35_Vel_59,1564
Note_On_35_Vel_60,1565
Note_On_35_Vel_61,1566
Note_On_35_Vel_62,1567
Note_On_35_Vel_63,1568
Note_On_35_Vel_64,1569
Note_On_35_Vel_65,1570
Note_On_35_Vel_66,1571
Note_On_35_Vel_67,1572
Note_On_35_Vel_68,1573
Note_On_35_Vel_69,1574
Note_On_35_Vel_70,1575
Note_On_35_Vel_71,1576
Note_On_35_Vel_72,1577
Note_On_35_Vel_73,1578
Note_On_35_Vel_74,1579
Note_On_35_Vel_75,1580
Note_On_35_Vel_76,1581
Note_On_35_Vel_77,1582
Note_On_35_Vel_78,1583
Note_On_35_Vel_79,1584
Note_On_35_Vel_80,1585
Note_On_35_Vel_81,1586
Note_On_35_Vel_82,1587
Note_On_35_Vel_83,1588
Note_On_35_Vel_84,1589
Note_On_35_Vel_85,1590
Note_On_35_Vel_86,1591
Note_On_35_Vel_87,1592
Note_On_35_Vel_88,1593
Note_On_35_Vel_89,1594
Note_On_35_Vel_90,1595
Note_On_35_Vel_91,1596
Note_On_35_Vel_92,1597
Note_On_35_Vel_93,1598
Note_On_35_Vel_94,1599
Note_On_35_Vel_95,1600
Note_On_35_Vel_96,1601
Note_On_35_Vel_97,1602
Note_On_35_Vel_98,1603
Note_On_35_Vel_99,1604
Note_On_35_Vel_100,1605
Note_On_35_Vel_101,1606
Note_On_35_Vel_102,1607
Note_On_35_Vel_103,1608
Note_On_35_Vel_104,1609
Note_On_35_Vel_105,1610
Note_On_35_Vel_106,1611
Note_On_35_Vel_107,1612
Note_On_35_Vel_108,1613
Note_On_35_Vel_109,1614
Note_On_35_Vel_110,1615
Note_On_35_Vel_111,1616
Note_On_35_Vel_112,1617
Note_On_35_Vel_113,1618
Note_On_35_Vel_114,1619
Note_On_35_Vel_115,1620
Note_On_35_Vel_116,1621
Note_On_35_Vel_117,1622
Note_On_35_Vel_118,1623
Note_On_36_Vel_0,1624
Note_On_36_Vel_3,1625
Note_On_36_Vel_5,1626
Note_On_36_Vel_6,1627
Note_On_36_Vel_7,1628
Note_On_36_Vel_8,1629
Note_On_36_Vel_9,1630
Note_On_36_Vel_10,1631
Note_On_36_Vel_11,1632
Note_On_36_Vel_12,1633
Note_On_36_Vel_13,1634
Note_On_36_Vel_14,1635
Note_On_36_Vel_15,1636
Note_On_36_Vel_16,1637
Note_On_36_Vel_17,1638
Note_On_36_Vel_18,1639
Note_On_36_Vel_19,1640
Note_On_36_Vel_20,1641
Note_On_36_Vel_21,1642
Note_On_36_Vel_22,1643
Note_On_36_Vel_23,1644
Note_On_36_Vel_24,1645
Note_On_36_Vel_25,1646
Note_On_36_Vel_26,1647
Note_On_36_Vel_27,1648
Note_On_36_Vel_28,1649
Note_On_36_Vel_29,1650
Note_On_36_Vel_30,1651
Note_On_36_Vel_31,1652
Note_On_36_Vel_32,1653
Note_On_36_Vel_33,1654
Note_On_36_Vel_34,1655
Note_On_36_Vel_35,1656
Note_On_36_Vel_36,1657
Note_On_36_Vel_37,1658
Note_On_36_Vel_38,1659
Note_On_36_Vel_39,1660
Note_On_36_Vel_40,1661
Note_On_36_Vel_41,1662
Note_On_36_Vel_42,1663
Note_On_36_Vel_43,1664
Note_On_36_Vel_44,1665
Note_On_36_Vel_45,1666
Note_On_36_Vel_46,1667
Note_On_36_Vel_47,1668
Note_On_36_Vel_48,1669
Note_On_36_Vel_49,1670
Note_On_36_Vel_50,1671
Note_On_36_Vel_51,1672
Note_On_36_Vel_52,1673
Note_On_36_Vel_53,1674
Note_On_36_Vel_54,1675
Note_On_36_Vel_55,1676
Note_On_36_Vel_56,1677
Note_On_36_Vel_57,1678
Note_On_36_Vel_58,1679
Note_On_36_Vel_59,1680
Note_On_36_Vel_60,1681
Note_On_36_Vel_61,1682
Note_On_36_Vel_62,1683
Note_On_36_Vel_63,1684
Note_On_36_Vel_64,1685
Note_On_36_Vel_65,1686
Note_On_36_Vel_66,1687
Note_On_36_Vel_67,1688
Note_On_36_Vel_68,1689
Note_On_36_Vel_69,1690
Note_On_36_Vel_70,1691
Note_On_36_Vel_71,1692
Note_On_36_Vel_72,1693
Note_On_36_Vel_73,1694
Note_On_36_Vel_74,1695
Note_On_36_Vel_75,1696
Note_On_36_Vel_76,1697
Note_On_36_Vel_77,1698
Note_On_36_Vel_78,1699
Note_On_36_Vel_79,1700
Note_On_36_Vel_80,1701
Note_On_36_Vel_81,1702
Note_On_36_Vel_82,1703
Note_On_36_Vel_83,1704
Note_On_36_Vel_84,1705
Note_On_36_Vel_85,1706
Note_On_36_Vel_86,1707
Note_On_36_Vel_87,1708
Note_On_36_Vel_88,1709
Note_On_36_Vel_89,1710
Note_On_36_Vel_90,1711
Note_On_36_Vel_91,1712
Note_On_36_Vel_92,1713
Note_On_36_Vel_93,1714
Note_On_36_Vel_94,1715
Note_On_36_Vel_95,1716
Note_On_36_Vel_96,1717
Note_On_36_Vel_97,1718
Note_On_36_Vel_98,1719
Note_On_36_Vel_99,1720
Note_On_36_Vel_100,1721
Note_On_36_Vel_101,1722
Note_On_36_Vel_102,1723
Note_On_36_Vel_103,1724
Note_On_36_Vel_104,1725
Note_On_36_Vel_105,1726
Note_On_36_Vel_106,1727
Note_On_36_Vel_107,1728
Note_On_36_Vel_108,1729
Note_On_36_Vel_109,1730
Note_On_36_Vel_110,1731
Note_On_36_Vel_111,1732
Note_On_36_Vel_112,1733
Note_On_36_Vel_113,1734
Note_On_36_Vel_114,1735
Note_On_36_Vel_115,1736
Note_On_36_Vel_116,1737
Note_On_36_Vel_117,1738
Note_On_36_Vel_118,1739
Note_On_37_Vel_0,1740
Note_On_37_Vel_3,1741
Note_On_37_Vel_5,1742
Note_On_37_Vel_6,1743
Note_On_37_Vel_7,1744
Note_On_37_Vel_8,1745
Note_On_37_Vel_9,1746
Note_On_37_Vel_10,1747
Note_On_37_Vel_11,1748
Note_On_37_Vel_12,1749
Note_On_37_Vel_13,1750
Note_On_37_Vel_14,1751
Note_On_37_Vel_15,1752
Note_On_37_Vel_16,1753
Note_On_37_Vel_17,1754
Note_On_37_Vel_18,1755
Note_On_37_Vel_19,1756
Note_On_37_Vel_20,1757
Note_On_37_Vel_21,1758
Note_On_37_Vel_22,1759
Note_On_37_Vel_23,1760
Note_On_37_Vel_24,1761
Note_On_37_Vel_25,1762
Note_On_37_Vel_26,1763
Note_On_37_Vel_27,1764
Note_On_37_Vel_28,1765
Note_On_37_Vel_29,1766
Note_On_37_Vel_30,1767
Note_On_37_Vel_31,1768
Note_On_37_Vel_32,1769
Note_On_37_Vel_33,1770
Note_On_37_Vel_34,1771
Note_On_37_Vel_35,1772
Note_On_37_Vel_36,1773
Note_On_37_Vel_37,1774
Note_On_37_Vel_38,1775
Note_On_37_Vel_39,1776
Note_On_37_Vel_40,1777
Note_On_37_Vel_41,1778
Note_On_37_Vel_42,1779
Note_On_37_Vel_43,1780
Note_On_37_Vel_44,1781
Note_On_37_Vel_45,1782
Note_On_37_Vel_46,1783
Note_On_37_Vel_47,1784
Note_On_37_Vel_48,1785
Note_On_37_Vel_49,1786
Note_On_37_Vel_50,1787
Note_On_37_Vel_51,1788
Note_On_37_Vel_52,1789
Note_On_37_Vel_53,1790
Note_On_37_Vel_54,1791
Note_On_37_Vel_55,1792
Note_On_37_Vel_56,1793
Note_On_37_Vel_57,1794
Note_On_37_Vel_58,1795
Note_On_37_Vel_59,1796
Note_On_37_Vel_60,1797
Note_On_37_Vel_61,1798
Note_On_37_Vel_62,1799
Note_On_37_Vel_63,1800
Note_On_37_Vel_64,1801
Note_On_37_Vel_65,1802
Note_On_37_Vel_66,1803
Note_On_37_Vel_67,1804
Note_On_37_Vel_68,1805
Note_On_37_Vel_69,1806
Note_On_37_Vel_70,1807
Note_On_37_Vel_71,1808
Note_On_37_Vel_72,1809
Note_On_37_Vel_73,1810
Note_On_37_Vel_74,1811
Note_On_37_Vel_75,1812
Note_On_37_Vel_76,1813
Note_On_37_Vel_77,1814
Note_On_37_Vel_78,1815
Note_On_37_Vel_79,1816
Note_On_37_Vel_80,1817
Note_On_37_Vel_81,1818
Note_On_37_Vel_82,1819
Note_On_37_Vel_83,1820
Note_On_37_Vel_84,1821
Note_On_37_Vel_85,1822
Note_On_37_Vel_86,1823
Note_On_37_Vel_87,1824
Note_On_37_Vel_88,1825
Note_On_37_Vel_89,1826
Note_On_37_Vel_90,1827
Note_On_37_Vel_91,1828
Note_On_37_Vel_92,1829
Note_On_37_Vel_93,1830
Note_On_37_Vel_94,1831
Note_On_37_Vel_95,1832
Note_On_37_Vel_96,1833
Note_On_37_Vel_97,1834
Note_On_37_Vel_98,1835
Note_On_37_Vel_99,1836
Note_On_37_Vel_100,1837
Note_On_37_Vel_101,1838
Note_On_37_Vel_102,1839
Note_On_37_Vel_103,1840
Note_On_37_Vel_104,1841
Note_On_37_Vel_105,1842
Note_On_37_Vel_106,1843
Note_On_37_Vel_107,1844
Note_On_37_Vel_108,1845
Note_On_37_Vel_109,1846
Note_On_37_Vel_110,1847
Note_On_37_Vel_111,1848
Note_On_37_Vel_112,1849
Note_On_37_Vel_113,1850
Note_On_37_Vel_114,1851
Note_On_37_Vel_115,1852
Note_On_37_Vel_116,1853
Note_On_37_Vel_117,1854
Note_On_37_Vel_118,1855
Note_On_38_Vel_0,1856
Note_On_38_Vel_3,1857
Note_On_38_Vel_5,1858
Note_On_38_Vel_6,1859
Note_On_38_Vel_7,1860
Note_On_38_Vel_8,1861
Note_On_38_Vel_9,1862
Note_On_38_Vel_10,1863
Note_On_38_Vel_11,1864
Note_On_38_Vel_12,1865
Note_On_38_Vel_13,1866
Note_On_38_Vel_14,1867
Note_On_38_Vel_15,1868
Note_On_38_Vel_16,1869
Note_On_38_Vel_17,1870
Note_On_38_Vel_18,1871
Note_On_38_Vel_19,1872
Note_On_38_Vel_20,1873
Note_On_38_Vel_21,1874
Note_On_38_Vel_22,1875
Note_On_38_Vel_23,1876
Note_On_38_Vel_24,1877
Note_On_38_Vel_25,1878
Note_On_38_Vel_26,1879
Note_On_38_Vel_27,1880
Note_On_38_Vel_28,1881
Note_On_38_Vel_29,1882
Note_On_38_Vel_30,1883
Note_On_38_Vel_31,1884
Note_On_38_Vel_32,1885
Note_On_38_Vel_33,1886
Note_On_38_Vel_34,1887
Note_On_38_Vel_35,1888
Note_On_38_Vel_36,1889
Note_On_38_Vel_37,1890
Note_On_38_Vel_38,1891
Note_On_38_Vel_39,1892
Note_On_38_Vel_40,1893
Note_On_38_Vel_41,1894
Note_On_38_Vel_42,1895
Note_On_38_Vel_43,1896
Note_On_38_Vel_44,1897
Note_On_38_Vel_45,1898
Note_On_38_Vel_46,1899
Note_On_38_Vel_47,1900
Note_On_38_Vel_48,1901
Note_On_38_Vel_49,1902
Note_On_38_Vel_50,1903
Note_On_38_Vel_51,1904
Note_On_38_Vel_52,1905
Note_On_38_Vel_53,1906
Note_On_38_Vel_54,1907
Note_On_38_Vel_55,1908
Note_On_38_Vel_56,1909
Note_On_38_Vel_57,1910
Note_On_38_Vel_58,1911
Note_On_38_Vel_59,1912
Note_On_38_Vel_60,1913
Note_On_38_Vel_61,1914
Note_On_38_Vel_62,1915
Note_On_38_Vel_63,1916
Note_On_38_Vel_64,1917
Note_On_38_Vel_65,1918
Note_On_38_Vel_66,1919
Note_On_38_Vel_67,1920
Note_On_38_Vel_68,1921
Note_On_38_Vel_69,1922
Note_On_38_Vel_70,1923
Note_On_38_Vel_71,1924
Note_On_38_Vel_72,1925
Note_On_38_Vel_73,1926
Note_On_38_Vel_74,1927
Note_On_38_Vel_75,1928
Note_On_38_Vel_76,1929
Note_On_38_Vel_77,1930
Note_On_38_Vel_78,1931
Note_On_38_Vel_79,1932
Note_On_38_Vel_80,1933
Note_On_38_Vel_81,1934
Note_On_38_Vel_82,1935
Note_On_38_Vel_83,1936
Note_On_38_Vel_84,1937
Note_On_38_Vel_85,1938
Note_On_38_Vel_86,1939
Note_On_38_Vel_87,1940
Note_On_38_Vel_88,1941
Note_On_38_Vel_89,1942
Note_On_38_Vel_90,1943
Note_On_38_Vel_91,1944
Note_On_38_Vel_92,1945
Note_On_38_Vel_93,1946
Note_On_38_Vel_94,1947
Note_On_38_Vel_95,1948
Note_On_38_Vel_96,1949
Note_On_38_Vel_97,1950
Note_On_38_Vel_98,1951
Note_On_38_Vel_99,1952
Note_On_38_Vel_100,1953
Note_On_38_Vel_101,1954
Note_On_38_Vel_102,1955
Note_On_38_Vel_103,1956
Note_On_38_Vel_104,1957
Note_On_38_Vel_105,1958
Note_On_38_Vel_106,1959
Note_On_38_Vel_107,1960
Note_On_38_Vel_108,1961
Note_On_38_Vel_109,1962
Note_On_38_Vel_110,1963
Note_On_38_Vel_111,1964
Note_On_38_Vel_112,1965
Note_On_38_Vel_113,1966
Note_On_38_Vel_114,1967
Note_On_38_Vel_115,1968
Note_On_38_Vel_116,1969
Note_On_38_Vel_117,1970
Note_On_38_Vel_118,1971
Note_On_39_Vel_0,1972
Note_On_39_Vel_3,1973
Note_On_39_Vel_5,1974
Note_On_39_Vel_6,1975
Note_On_39_Vel_7,1976
Note_On_39_Vel_8,1977
Note_On_39_Vel_9,1978
Note_On_39_Vel_10,1979
Note_On_39_Vel_11,1980
Note_On_39_Vel_12,1981
Note_On_39_Vel_13,1982
Note_On_39_Vel_14,1983
Note_On_39_Vel_15,1984
Note_On_39_Vel_16,1985
Note_On_39_Vel_17,1986
Note_On_39_Vel_18,1987
Note_On_39_Vel_19,1988
Note_On_39_Vel_20,1989
Note_On_39_Vel_21,1990
Note_On_39_Vel_22,1991
Note_On_39_Vel_23,1992
Note_On_39_Vel_24,1993
Note_On_39_Vel_25,1994
Note_On_39_Vel_26,1995
Note_On_39_Vel_27,1996
Note_On_39_Vel_28,1997
Note_On_39_Vel_29,1998
Note_On_39_Vel_30,1999
Note_On_39_Vel_31,2000
Note_On_39_Vel_32,2001
Note_On_39_Vel_33,2002
Note_On_39_Vel_34,2003
Note_On_39_Vel_35,2004
Note_On_39_Vel_36,2005
Note_On_39_Vel_37,2006
Note_On_39_Vel_38,2007
Note_On_39_Vel_39,2008
Note_On_39_Vel_40,2009
Note_On_39_Vel_41,2010
Note_On_39_Vel_42,2011
Note_On_39_Vel_43,2012
Note_On_39_Vel_44,2013
Note_On_39_Vel_45,2014
Note_On_39_Vel_46,2015
Note_On_39_Vel_47,2016
Note_On_39_Vel_48,2017
Note_On_39_Vel_49,2018
Note_On_39_Vel_50,2019
Note_On_39_Vel_51,2020
Note_On_39_Vel_52,2021
Note_On_39_Vel_53,2022
Note_On_39_Vel_54,2023
Note_On_39_Vel_55,2024
Note_On_39_Vel_56,2025
Note_On_39_Vel_57,2026
Note_On_39_Vel_58,2027
Note_On_39_Vel_59,2028
Note_On_39_Vel_60,2029
Note_On_39_Vel_61,2030
Note_On_39_Vel_62,2031
Note_On_39_Vel_63,2032
Note_On_39_Vel_64,2033
Note_On_39_Vel_65,2034
Note_On_39_Vel_66,2035
Note_On_39_Vel_67,2036
Note_On_39_Vel_68,2037
Note_On_39_Vel_69,2038
Note_On_39_Vel_70,2039
Note_On_39_Vel_71,2040
Note_On_39_Vel_72,2041
Note_On_39_Vel_73,2042
Note_On_39_Vel_74,2043
Note_On_39_Vel_75,2044
Note_On_39_Vel_76,2045
Note_On_39_Vel_77,2046
Note_On_39_Vel_78,2047
Note_On_39_Vel_79,2048
Note_On_39_Vel_80,2049
Note_On_39_Vel_81,2050
Note_On_39_Vel_82,2051
Note_On_39_Vel_83,2052
Note_On_39_Vel_84,2053
Note_On_39_Vel_85,2054
Note_On_39_Vel_86,2055
Note_On_39_Vel_87,2056
Note_On_39_Vel_88,2057
Note_On_39_Vel_89,2058
Note_On_39_Vel_90,2059
Note_On_39_Vel_91,2060
Note_On_39_Vel_92,2061
Note_On_39_Vel_93,2062
Note_On_39_Vel_94,2063
Note_On_39_Vel_95,2064
Note_On_39_Vel_96,2065
Note_On_39_Vel_97,2066
Note_On_39_Vel_98,2067
Note_On_39_Vel_99,2068
Note_On_39_Vel_100,2069
Note_On_39_Vel_101,2070
Note_On_39_Vel_102,2071
Note_On_39_Vel_103,2072
Note_On_39_Vel_104,2073
Note_On_39_Vel_105,2074
Note_On_39_Vel_106,2075
Note_On_39_Vel_107,2076
Note_On_39_Vel_108,2077
Note_On_39_Vel_109,2078
Note_On_39_Vel_110,2079
Note_On_39_Vel_111,2080
Note_On_39_Vel_112,2081
Note_On_39_Vel_113,2082
Note_On_39_Vel_114,2083
Note_On_39_Vel_115,2084
Note_On_39_Vel_116,2085
Note_On_39_Vel_117,2086
Note_On_39_Vel_118,2087
Note_On_40_Vel_0,2088
Note_On_40_Vel_3,2089
Note_On_40_Vel_5,2090
Note_On_40_Vel_6,2091
Note_On_40_Vel_7,2092
Note_On_40_Vel_8,2093
Note_On_40_Vel_9,2094
Note_On_40_Vel_10,2095
Note_On_40_Vel_11,2096
Note_On_40_Vel_12,2097
Note_On_40_Vel_13,2098
Note_On_40_Vel_14,2099
Note_On_40_Vel_15,2100
Note_On_40_Vel_16,2101
Note_On_40_Vel_17,2102
Note_On_40_Vel_18,2103
Note_On_40_Vel_19,2104
Note_On_40_Vel_20,2105
Note_On_40_Vel_21,2106
Note_On_40_Vel_22,2107
Note_On_40_Vel_23,2108
Note_On_40_Vel_24,2109
Note_On_40_Vel_25,2110
Note_On_40_Vel_26,2111
Note_On_40_Vel_27,2112
Note_On_40_Vel_28,2113
Note_On_40_Vel_29,2114
Note_On_40_Vel_30,2115
Note_On_40_Vel_31,2116
Note_On_40_Vel_32,2117
Note_On_40_Vel_33,2118
Note_On_40_Vel_34,2119
Note_On_40_Vel_35,2120
Note_On_40_Vel_36,2121
Note_On_40_Vel_37,2122
Note_On_40_Vel_38,2123
Note_On_40_Vel_39,2124
Note_On_40_Vel_40,2125
Note_On_40_Vel_41,2126
Note_On_40_Vel_42,2127
Note_On_40_Vel_43,2128
Note_On_40_Vel_44,2129
Note_On_40_Vel_45,2130
Note_On_40_Vel_46,2131
Note_On_40_Vel_47,2132
Note_On_40_Vel_48,2133
Note_On_40_Vel_49,2134
Note_On_40_Vel_50,2135
Note_On_40_Vel_51,2136
Note_On_40_Vel_52,2137
Note_On_40_Vel_53,2138
Note_On_40_Vel_54,2139
Note_On_40_Vel_55,2140
Note_On_40_Vel_56,2141
Note_On_40_Vel_57,2142
Note_On_40_Vel_58,2143
Note_On_40_Vel_59,2144
Note_On_40_Vel_60,2145
Note_On_40_Vel_61,2146
Note_On_40_Vel_62,2147
Note_On_40_Vel_63,2148
Note_On_40_Vel_64,2149
Note_On_40_Vel_65,2150
Note_On_40_Vel_66,2151
Note_On_40_Vel_67,2152
Note_On_40_Vel_68,2153
Note_On_40_Vel_69,2154
Note_On_40_Vel_70,2155
Note_On_40_Vel_71,2156
Note_On_40_Vel_72,2157
Note_On_40_Vel_73,2158
Note_On_40_Vel_74,2159
Note_On_40_Vel_75,2160
Note_On_40_Vel_76,2161
Note_On_40_Vel_77,2162
Note_On_40_Vel_78,2163
Note_On_40_Vel_79,2164
Note_On_40_Vel_80,2165
Note_On_40_Vel_81,2166
Note_On_40_Vel_82,2167
Note_On_40_Vel_83,2168
Note_On_40_Vel_84,2169
Note_On_40_Vel_85,2170
Note_On_40_Vel_86,2171
Note_On_40_Vel_87,2172
Note_On_40_Vel_88,2173
Note_On_40_Vel_89,2174
Note_On_40_Vel_90,2175
Note_On_40_Vel_91,2176
Note_On_40_Vel_92,2177
Note_On_40_Vel_93,2178
Note_On_40_Vel_94,2179
Note_On_40_Vel_95,2180
Note_On_40_Vel_96,2181
Note_On_40_Vel_97,2182
Note_On_40_Vel_98,2183
Note_On_40_Vel_99,2184
Note_On_40_Vel_100,2185
Note_On_40_Vel_101,2186
Note_On_40_Vel_102,2187
Note_On_40_Vel_103,2188
Note_On_40_Vel_104,2189
Note_On_40_Vel_105,2190
Note_On_40_Vel_106,2191
Note_On_40_Vel_107,2192
Note_On_40_Vel_108,2193
Note_On_40_Vel_109,2194
Note_On_40_Vel_110,2195
Note_On_40_Vel_111,2196
Note_On_40_Vel_112,2197
Note_On_40_Vel_113,2198
Note_On_40_Vel_114,2199
Note_On_40_Vel_115,2200
Note_On_40_Vel_116,2201
Note_On_40_Vel_117,2202
Note_On_40_Vel_118,2203
Note_On_41_Vel_0,2204
Note_On_41_Vel_3,2205
Note_On_41_Vel_5,2206
Note_On_41_Vel_6,2207
Note_On_41_Vel_7,2208
Note_On_41_Vel_8,2209
Note_On_41_Vel_9,2210
Note_On_41_Vel_10,2211
Note_On_41_Vel_11,2212
Note_On_41_Vel_12,2213
Note_On_41_Vel_13,2214
Note_On_41_Vel_14,2215
Note_On_41_Vel_15,2216
Note_On_41_Vel_16,2217
Note_On_41_Vel_17,2218
Note_On_41_Vel_18,2219
Note_On_41_Vel_19,2220
Note_On_41_Vel_20,2221
Note_On_41_Vel_21,2222
Note_On_41_Vel_22,2223
Note_On_41_Vel_23,2224
Note_On_41_Vel_24,2225
Note_On_41_Vel_25,2226
Note_On_41_Vel_26,2227
Note_On_41_Vel_27,2228
Note_On_41_Vel_28,2229
Note_On_41_Vel_29,2230
Note_On_41_Vel_30,2231
Note_On_41_Vel_31,2232
Note_On_41_Vel_32,2233
Note_On_41_Vel_33,2234
Note_On_41_Vel_34,2235
Note_On_41_Vel_35,2236
Note_On_41_Vel_36,2237
Note_On_41_Vel_37,2238
Note_On_41_Vel_38,2239
Note_On_41_Vel_39,2240
Note_On_41_Vel_40,2241
Note_On_41_Vel_41,2242
Note_On_41_Vel_42,2243
Note_On_41_Vel_43,2244
Note_On_41_Vel_44,2245
Note_On_41_Vel_45,2246
Note_On_41_Vel_46,2247
Note_On_41_Vel_47,2248
Note_On_41_Vel_48,2249
Note_On_41_Vel_49,2250
Note_On_41_Vel_50,2251
Note_On_41_Vel_51,2252
Note_On_41_Vel_52,2253
Note_On_41_Vel_53,2254
Note_On_41_Vel_54,2255
Note_On_41_Vel_55,2256
Note_On_41_Vel_56,2257
Note_On_41_Vel_57,2258
Note_On_41_Vel_58,2259
Note_On_41_Vel_59,2260
Note_On_41_Vel_60,2261
Note_On_41_Vel_61,2262
Note_On_41_Vel_62,2263
Note_On_41_Vel_63,2264
Note_On_41_Vel_64,2265
Note_On_41_Vel_65,2266
Note_On_41_Vel_66,2267
Note_On_41_Vel_67,2268
Note_On_41_Vel_68,2269
Note_On_41_Vel_69,2270
Note_On_41_Vel_70,2271
Note_On_41_Vel_71,2272
Note_On_41_Vel_72,2273
Note_On_41_Vel_73,2274
Note_On_41_Vel_74,2275
Note_On_41_Vel_75,2276
Note_On_41_Vel_76,2277
Note_On_41_Vel_77,2278
Note_On_41_Vel_78,2279
Note_On_41_Vel_79,2280
Note_On_41_Vel_80,2281
Note_On_41_Vel_81,2282
Note_On_41_Vel_82,2283
Note_On_41_Vel_83,2284
Note_On_41_Vel_84,2285
Note_On_41_Vel_85,2286
Note_On_41_Vel_86,2287
Note_On_41_Vel_87,2288
Note_On_41_Vel_88,2289
Note_On_41_Vel_89,2290
Note_On_41_Vel_90,2291
Note_On_41_Vel_91,2292
Note_On_41_Vel_92,2293
Note_On_41_Vel_93,2294
Note_On_41_Vel_94,2295
Note_On_41_Vel_95,2296
Note_On_41_Vel_96,2297
Note_On_41_Vel_97,2298
Note_On_41_Vel_98,2299
Note_On_41_Vel_99,2300
Note_On_41_Vel_100,2301
Note_On_41_Vel_101,2302
Note_On_41_Vel_102,2303
Note_On_41_Vel_103,2304
Note_On_41_Vel_104,2305
Note_On_41_Vel_105,2306
Note_On_41_Vel_106,2307
Note_On_41_Vel_107,2308
Note_On_41_Vel_108,2309
Note_On_41_Vel_109,2310
Note_On_41_Vel_110,2311
Note_On_41_Vel_111,2312
Note_On_41_Vel_112,2313
Note_On_41_Vel_113,2314
Note_On_41_Vel_114,2315
Note_On_41_Vel_115,2316
Note_On_41_Vel_116,2317
Note_On_41_Vel_117,2318
Note_On_41_Vel_118,2319
Note_On_42_Vel_0,2320
Note_On_42_Vel_3,2321
Note_On_42_Vel_5,2322
Note_On_42_Vel_6,2323
Note_On_42_Vel_7,2324
Note_On_42_Vel_8,2325
Note_On_42_Vel_9,2326
Note_On_42_Vel_10,2327
Note_On_42_Vel_11,2328
Note_On_42_Vel_12,2329
Note_On_42_Vel_13,2330
Note_On_42_Vel_14,2331
Note_On_42_Vel_15,2332
Note_On_42_Vel_16,2333
Note_On_42_Vel_17,2334
Note_On_42_Vel_18,2335
Note_On_42_Vel_19,2336
Note_On_42_Vel_20,2337
Note_On_42_Vel_21,2338
Note_On_42_Vel_22,2339
Note_On_42_Vel_23,2340
Note_On_42_Vel_24,2341
Note_On_42_Vel_25,2342
Note_On_42_Vel_26,2343
Note_On_42_Vel_27,2344
Note_On_42_Vel_28,2345
Note_On_42_Vel_29,2346
Note_On_42_Vel_30,2347
Note_On_42_Vel_31,2348
Note_On_42_Vel_32,2349
Note_On_42_Vel_33,2350
Note_On_42_Vel_34,2351
Note_On_42_Vel_35,2352
Note_On_42_Vel_36,2353
Note_On_42_Vel_37,2354
Note_On_42_Vel_38,2355
Note_On_42_Vel_39,2356
Note_On_42_Vel_40,2357
Note_On_42_Vel_41,2358
Note_On_42_Vel_42,2359
Note_On_42_Vel_43,2360
Note_On_42_Vel_44,2361
Note_On_42_Vel_45,2362
Note_On_42_Vel_46,2363
Note_On_42_Vel_47,2364
Note_On_42_Vel_48,2365
Note_On_42_Vel_49,2366
Note_On_42_Vel_50,2367
Note_On_42_Vel_51,2368
Note_On_42_Vel_52,2369
Note_On_42_Vel_53,2370
Note_On_42_Vel_54,2371
Note_On_42_Vel_55,2372
Note_On_42_Vel_56,2373
Note_On_42_Vel_57,2374
Note_On_42_Vel_58,2375
Note_On_42_Vel_59,2376
Note_On_42_Vel_60,2377
Note_On_42_Vel_61,2378
Note_On_42_Vel_62,2379
Note_On_42_Vel_63,2380
Note_On_42_Vel_64,2381
Note_On_42_Vel_65,2382
Note_On_42_Vel_66,2383
Note_On_42_Vel_67,2384
Note_On_42_Vel_68,2385
Note_On_42_Vel_69,2386
Note_On_42_Vel_70,2387
Note_On_42_Vel_71,2388
Note_On_42_Vel_72,2389
Note_On_42_Vel_73,2390
Note_On_42_Vel_74,2391
Note_On_42_Vel_75,2392
Note_On_42_Vel_76,2393
Note_On_42_Vel_77,2394
Note_On_42_Vel_78,2395
Note_On_42_Vel_79,2396
Note_On_42_Vel_80,2397
Note_On_42_Vel_81,2398
Note_On_42_Vel_82,2399
Note_On_42_Vel_83,2400
Note_On_42_Vel_84,2401
Note_On_42_Vel_85,2402
Note_On_42_Vel_86,2403
Note_On_42_Vel_87,2404
Note_On_42_Vel_88,2405
Note_On_42_Vel_89,2406
Note_On_42_Vel_90,2407
Note_On_42_Vel_91,2408
Note_On_42_Vel_92,2409
Note_On_42_Vel_93,2410
Note_On_42_Vel_94,2411
Note_On_42_Vel_95,2412
Note_On_42_Vel_96,2413
Note_On_42_Vel_97,2414
Note_On_42_Vel_98,2415
Note_On_42_Vel_99,2416
Note_On_42_Vel_100,2417
Note_On_42_Vel_101,2418
Note_On_42_Vel_102,2419
Note_On_42_Vel_103,2420
Note_On_42_Vel_104,2421
Note_On_42_Vel_105,2422
Note_On_42_Vel_106,2423
Note_On_42_Vel_107,2424
Note_On_42_Vel_108,2425
Note_On_42_Vel_109,2426
Note_On_42_Vel_110,2427
Note_On_42_Vel_111,2428
Note_On_42_Vel_112,2429
Note_On_42_Vel_113,2430
Note_On_42_Vel_114,2431
Note_On_42_Vel_115,2432
Note_On_42_Vel_116,2433
Note_On_42_Vel_117,2434
Note_On_42_Vel_118,2435
Note_On_43_Vel_0,2436
Note_On_43_Vel_3,2437
Note_On_43_Vel_5,2438
Note_On_43_Vel_6,2439
Note_On_43_Vel_7,2440
Note_On_43_Vel_8,2441
Note_On_43_Vel_9,2442
Note_On_43_Vel_10,2443
Note_On_43_Vel_11,2444
Note_On_43_Vel_12,2445
Note_On_43_Vel_13,2446
Note_On_43_Vel_14,2447
Note_On_43_Vel_15,2448
Note_On_43_Vel_16,2449
Note_On_43_Vel_17,2450
Note_On_43_Vel_18,2451
Note_On_43_Vel_19,2452
Note_On_43_Vel_20,2453
Note_On_43_Vel_21,2454
Note_On_43_Vel_22,2455
Note_On_43_Vel_23,2456
Note_On_43_Vel_24,2457
Note_On_43_Vel_25,2458
Note_On_43_Vel_26,2459
Note_On_43_Vel_27,2460
Note_On_43_Vel_28,2461
Note_On_43_Vel_29,2462
Note_On_43_Vel_30,2463
Note_On_43_Vel_31,2464
Note_On_43_Vel_32,2465
Note_On_43_Vel_33,2466
Note_On_43_Vel_34,2467
Note_On_43_Vel_35,2468
Note_On_43_Vel_36,2469
Note_On_43_Vel_37,2470
Note_On_43_Vel_38,2471
Note_On_43_Vel_39,2472
Note_On_43_Vel_40,2473
Note_On_43_Vel_41,2474
Note_On_43_Vel_42,2475
Note_On_43_Vel_43,2476
Note_On_43_Vel_44,2477
Note_On_43_Vel_45,2478
Note_On_43_Vel_46,2479
Note_On_43_Vel_47,2480
Note_On_43_Vel_48,2481
Note_On_43_Vel_49,2482
Note_On_43_Vel_50,2483
Note_On_43_Vel_51,2484
Note_On_43_Vel_52,2485
Note_On_43_Vel_53,2486
Note_On_43_Vel_54,2487
Note_On_43_Vel_55,2488
Note_On_43_Vel_56,2489
Note_On_43_Vel_57,2490
Note_On_43_Vel_58,2491
Note_On_43_Vel_59,2492
Note_On_43_Vel_60,2493
Note_On_43_Vel_61,2494
Note_On_43_Vel_62,2495
Note_On_43_Vel_63,2496
Note_On_43_Vel_64,2497
Note_On_43_Vel_65,2498
Note_On_43_Vel_66,2499
Note_On_43_Vel_67,2500
Note_On_43_Vel_68,2501
Note_On_43_Vel_69,2502
Note_On_43_Vel_70,2503
Note_On_43_Vel_71,2504
Note_On_43_Vel_72,2505
Note_On_43_Vel_73,2506
Note_On_43_Vel_74,2507
Note_On_43_Vel_75,2508
Note_On_43_Vel_76,2509
Note_On_43_Vel_77,2510
Note_On_43_Vel_78,2511
Note_On_43_Vel_79,2512
Note_On_43_Vel_80,2513
Note_On_43_Vel_81,2514
Note_On_43_Vel_82,2515
Note_On_43_Vel_83,2516
Note_On_43_Vel_84,2517
Note_On_43_Vel_85,2518
Note_On_43_Vel_86,2519
Note_On_43_Vel_87,2520
Note_On_43_Vel_88,2521
Note_On_43_Vel_89,2522
Note_On_43_Vel_90,2523
Note_On_43_Vel_91,2524
Note_On_43_Vel_92,2525
Note_On_43_Vel_93,2526
Note_On_43_Vel_94,2527
Note_On_43_Vel_95,2528
Note_On_43_Vel_96,2529
Note_On_43_Vel_97,2530
Note_On_43_Vel_98,2531
Note_On_43_Vel_99,2532
Note_On_43_Vel_100,2533
Note_On_43_Vel_101,2534
Note_On_43_Vel_102,2535
Note_On_43_Vel_103,2536
Note_On_43_Vel_104,2537
Note_On_43_Vel_105,2538
Note_On_43_Vel_106,2539
Note_On_43_Vel_107,2540
Note_On_43_Vel_108,2541
Note_On_43_Vel_109,2542
Note_On_43_Vel_110,2543
Note_On_43_Vel_111,2544
Note_On_43_Vel_112,2545
Note_On_43_Vel_113,2546
Note_On_43_Vel_114,2547
Note_On_43_Vel_115,2548
Note_On_43_Vel_116,2549
Note_On_43_Vel_117,2550
Note_On_43_Vel_118,2551
Note_On_44_Vel_0,2552
Note_On_44_Vel_3,2553
Note_On_44_Vel_5,2554
Note_On_44_Vel_6,2555
Note_On_44_Vel_7,2556
Note_On_44_Vel_8,2557
Note_On_44_Vel_9,2558
Note_On_44_Vel_10,2559
Note_On_44_Vel_11,2560
Note_On_44_Vel_12,2561
Note_On_44_Vel_13,2562
Note_On_44_Vel_14,2563
Note_On_44_Vel_15,2564
Note_On_44_Vel_16,2565
Note_On_44_Vel_17,2566
Note_On_44_Vel_18,2567
Note_On_44_Vel_19,2568
Note_On_44_Vel_20,2569
Note_On_44_Vel_21,2570
Note_On_44_Vel_22,2571
Note_On_44_Vel_23,2572
Note_On_44_Vel_24,2573
Note_On_44_Vel_25,2574
Note_On_44_Vel_26,2575
Note_On_44_Vel_27,2576
Note_On_44_Vel_28,2577
Note_On_44_Vel_29,2578
Note_On_44_Vel_30,2579
Note_On_44_Vel_31,2580
Note_On_44_Vel_32,2581
Note_On_44_Vel_33,2582
Note_On_44_Vel_34,2583
Note_On_44_Vel_35,2584
Note_On_44_Vel_36,2585
Note_On_44_Vel_37,2586
Note_On_44_Vel_38,2587
Note_On_44_Vel_39,2588
Note_On_44_Vel_40,2589
Note_On_44_Vel_41,2590
Note_On_44_Vel_42,2591
Note_On_44_Vel_43,2592
Note_On_44_Vel_44,2593
Note_On_44_Vel_45,2594
Note_On_44_Vel_46,2595
Note_On_44_Vel_47,2596
Note_On_44_Vel_48,2597
Note_On_44_Vel_49,2598
Note_On_44_Vel_50,2599
Note_On_44_Vel_51,2600
Note_On_44_Vel_52,2601
Note_On_44_Vel_53,2602
Note_On_44_Vel_54,2603
Note_On_44_Vel_55,2604
Note_On_44_Vel_56,2605
Note_On_44_Vel_57,2606
Note_On_44_Vel_58,2607
Note_On_44_Vel_59,2608
Note_On_44_Vel_60,2609
Note_On_44_Vel_61,2610
Note_On_44_Vel_62,2611
Note_On_44_Vel_63,2612
Note_On_44_Vel_64,2613
Note_On_44_Vel_65,2614
Note_On_44_Vel_66,2615
Note_On_44_Vel_67,2616
Note_On_44_Vel_68,2617
Note_On_44_Vel_69,2618
Note_On_44_Vel_70,2619
Note_On_44_Vel_71,2620
Note_On_44_Vel_72,2621
Note_On_44_Vel_73,2622
Note_On_44_Vel_74,2623
Note_On_44_Vel_75,2624
Note_On_44_Vel_76,2625
Note_On_44_Vel_77,2626
Note_On_44_Vel_78,2627
Note_On_44_Vel_79,2628
Note_On_44_Vel_80,2629
Note_On_44_Vel_81,2630
Note_On_44_Vel_82,2631
Note_On_44_Vel_83,2632
Note_On_44_Vel_84,2633
Note_On_44_Vel_85,2634
Note_On_44_Vel_86,2635
Note_On_44_Vel_87,2636
Note_On_44_Vel_88,2637
Note_On_44_Vel_89,2638
Note_On_44_Vel_90,2639
Note_On_44_Vel_91,2640
Note_On_44_Vel_92,2641
Note_On_44_Vel_93,2642
Note_On_44_Vel_94,2643
Note_On_44_Vel_95,2644
Note_On_44_Vel_96,2645
Note_On_44_Vel_97,2646
Note_On_44_Vel_98,2647
Note_On_44_Vel_99,2648
Note_On_44_Vel_100,2649
Note_On_44_Vel_101,2650
Note_On_44_Vel_102,2651
Note_On_44_Vel_103,2652
Note_On_44_Vel_104,2653
Note_On_44_Vel_105,2654
Note_On_44_Vel_106,2655
Note_On_44_Vel_107,2656
Note_On_44_Vel_108,2657
Note_On_44_Vel_109,2658
Note_On_44_Vel_110,2659
Note_On_44_Vel_111,2660
Note_On_44_Vel_112,2661
Note_On_44_Vel_113,2662
Note_On_44_Vel_114,2663
Note_On_44_Vel_115,2664
Note_On_44_Vel_116,2665
Note_On_44_Vel_117,2666
Note_On_44_Vel_118,2667
Note_On_45_Vel_0,2668
Note_On_45_Vel_3,2669
Note_On_45_Vel_5,2670
Note_On_45_Vel_6,2671
Note_On_45_Vel_7,2672
Note_On_45_Vel_8,2673
Note_On_45_Vel_9,2674
Note_On_45_Vel_10,2675
Note_On_45_Vel_11,2676
Note_On_45_Vel_12,2677
Note_On_45_Vel_13,2678
Note_On_45_Vel_14,2679
Note_On_45_Vel_15,2680
Note_On_45_Vel_16,2681
Note_On_45_Vel_17,2682
Note_On_45_Vel_18,2683
Note_On_45_Vel_19,2684
Note_On_45_Vel_20,2685
Note_On_45_Vel_21,2686
Note_On_45_Vel_22,2687
Note_On_45_Vel_23,2688
Note_On_45_Vel_24,2689
Note_On_45_Vel_25,2690
Note_On_45_Vel_26,2691
Note_On_45_Vel_27,2692
Note_On_45_Vel_28,2693
Note_On_45_Vel_29,2694
Note_On_45_Vel_30,2695
Note_On_45_Vel_31,2696
Note_On_45_Vel_32,2697
Note_On_45_Vel_33,2698
Note_On_45_Vel_34,2699
Note_On_45_Vel_35,2700
Note_On_45_Vel_36,2701
Note_On_45_Vel_37,2702
Note_On_45_Vel_38,2703
Note_On_45_Vel_39,2704
Note_On_45_Vel_40,2705
Note_On_45_Vel_41,2706
Note_On_45_Vel_42,2707
Note_On_45_Vel_43,2708
Note_On_45_Vel_44,2709
Note_On_45_Vel_45,2710
Note_On_45_Vel_46,2711
Note_On_45_Vel_47,2712
Note_On_45_Vel_48,2713
Note_On_45_Vel_49,2714
Note_On_45_Vel_50,2715
Note_On_45_Vel_51,2716
Note_On_45_Vel_52,2717
Note_On_45_Vel_53,2718
Note_On_45_Vel_54,2719
Note_On_45_Vel_55,2720
Note_On_45_Vel_56,2721
Note_On_45_Vel_57,2722
Note_On_45_Vel_58,2723
Note_On_45_Vel_59,2724
Note_On_45_Vel_60,2725
Note_On_45_Vel_61,2726
Note_On_45_Vel_62,2727
Note_On_45_Vel_63,2728
Note_On_45_Vel_64,2729
Note_On_45_Vel_65,2730
Note_On_45_Vel_66,2731
Note_On_45_Vel_67,2732
Note_On_45_Vel_68,2733
Note_On_45_Vel_69,2734
Note_On_45_Vel_70,2735
Note_On_45_Vel_71,2736
Note_On_45_Vel_72,2737
Note_On_45_Vel_73,2738
Note_On_45_Vel_74,2739
Note_On_45_Vel_75,2740
Note_On_45_Vel_76,2741
Note_On_45_Vel_77,2742
Note_On_45_Vel_78,2743
Note_On_45_Vel_79,2744
Note_On_45_Vel_80,2745
Note_On_45_Vel_81,2746
Note_On_45_Vel_82,2747
Note_On_45_Vel_83,2748
Note_On_45_Vel_84,2749
Note_On_45_Vel_85,2750
Note_On_45_Vel_86,2751
Note_On_45_Vel_87,2752
Note_On_45_Vel_88,2753
Note_On_45_Vel_89,2754
Note_On_45_Vel_90,2755
Note_On_45_Vel_91,2756
Note_On_45_Vel_92,2757
Note_On_45_Vel_93,2758
Note_On_45_Vel_94,2759
Note_On_45_Vel_95,2760
Note_On_45_Vel_96,2761
Note_On_45_Vel_97,2762
Note_On_45_Vel_98,2763
Note_On_45_Vel_99,2764
Note_On_45_Vel_100,2765
Note_On_45_Vel_101,2766
Note_On_45_Vel_102,2767
Note_On_45_Vel_103,2768
Note_On_45_Vel_104,2769
Note_On_45_Vel_105,2770
Note_On_45_Vel_106,2771
Note_On_45_Vel_107,2772
Note_On_45_Vel_108,2773
Note_On_45_Vel_109,2774
Note_On_45_Vel_110,2775
Note_On_45_Vel_111,2776
Note_On_45_Vel_112,2777
Note_On_45_Vel_113,2778
Note_On_45_Vel_114,2779
Note_On_45_Vel_115,2780
Note_On_45_Vel_116,2781
Note_On_45_Vel_117,2782
Note_On_45_Vel_118,2783
Note_On_46_Vel_0,2784
Note_On_46_Vel_3,2785
Note_On_46_Vel_5,2786
Note_On_46_Vel_6,2787
Note_On_46_Vel_7,2788
Note_On_46_Vel_8,2789
Note_On_46_Vel_9,2790
Note_On_46_Vel_10,2791
Note_On_46_Vel_11,2792
Note_On_46_Vel_12,2793
Note_On_46_Vel_13,2794
Note_On_46_Vel_14,2795
Note_On_46_Vel_15,2796
Note_On_46_Vel_16,2797
Note_On_46_Vel_17,2798
Note_On_46_Vel_18,2799
Note_On_46_Vel_19,2800
Note_On_46_Vel_20,2801
Note_On_46_Vel_21,2802
Note_On_46_Vel_22,2803
Note_On_46_Vel_23,2804
Note_On_46_Vel_24,2805
Note_On_46_Vel_25,2806
Note_On_46_Vel_26,2807
Note_On_46_Vel_27,2808
Note_On_46_Vel_28,2809
Note_On_46_Vel_29,2810
Note_On_46_Vel_30,2811
Note_On_46_Vel_31,2812
Note_On_46_Vel_32,2813
Note_On_46_Vel_33,2814
Note_On_46_Vel_34,2815
Note_On_46_Vel_35,2816
Note_On_46_Vel_36,2817
Note_On_46_Vel_37,2818
Note_On_46_Vel_38,2819
Note_On_46_Vel_39,2820
Note_On_46_Vel_40,2821
Note_On_46_Vel_41,2822
Note_On_46_Vel_42,2823
Note_On_46_Vel_43,2824
Note_On_46_Vel_44,2825
Note_On_46_Vel_45,2826
Note_On_46_Vel_46,2827
Note_On_46_Vel_47,2828
Note_On_46_Vel_48,2829
Note_On_46_Vel_49,2830
Note_On_46_Vel_50,2831
Note_On_46_Vel_51,2832
Note_On_46_Vel_52,2833
Note_On_46_Vel_53,2834
Note_On_46_Vel_54,2835
Note_On_46_Vel_55,2836
Note_On_46_Vel_56,2837
Note_On_46_Vel_57,2838
Note_On_46_Vel_58,2839
Note_On_46_Vel_59,2840
Note_On_46_Vel_60,2841
Note_On_46_Vel_61,2842
Note_On_46_Vel_62,2843
Note_On_46_Vel_63,2844
Note_On_46_Vel_64,2845
Note_On_46_Vel_65,2846
Note_On_46_Vel_66,2847
Note_On_46_Vel_67,2848
Note_On_46_Vel_68,2849
Note_On_46_Vel_69,2850
Note_On_46_Vel_70,2851
Note_On_46_Vel_71,2852
Note_On_46_Vel_72,2853
Note_On_46_Vel_73,2854
Note_On_46_Vel_74,2855
Note_On_46_Vel_75,2856
Note_On_46_Vel_76,2857
Note_On_46_Vel_77,2858
Note_On_46_Vel_78,2859
Note_On_46_Vel_79,2860
Note_On_46_Vel_80,2861
Note_On_46_Vel_81,2862
Note_On_46_Vel_82,2863
Note_On_46_Vel_83,2864
Note_On_46_Vel_84,2865
Note_On_46_Vel_85,2866
Note_On_46_Vel_86,2867
Note_On_46_Vel_87,2868
Note_On_46_Vel_88,2869
Note_On_46_Vel_89,2870
Note_On_46_Vel_90,2871
Note_On_46_Vel_91,2872
Note_On_46_Vel_92,2873
Note_On_46_Vel_93,2874
Note_On_46_Vel_94,2875
Note_On_46_Vel_95,2876
Note_On_46_Vel_96,2877
Note_On_46_Vel_97,2878
Note_On_46_Vel_98,2879
Note_On_46_Vel_99,2880
Note_On_46_Vel_100,2881
Note_On_46_Vel_101,2882
Note_On_46_Vel_102,2883
Note_On_46_Vel_103,2884
Note_On_46_Vel_104,2885
Note_On_46_Vel_105,2886
Note_On_46_Vel_106,2887
Note_On_46_Vel_107,2888
Note_On_46_Vel_108,2889
Note_On_46_Vel_109,2890
Note_On_46_Vel_110,2891
Note_On_46_Vel_111,2892
Note_On_46_Vel_112,2893
Note_On_46_Vel_113,2894
Note_On_46_Vel_114,2895
Note_On_46_Vel_115,2896
Note_On_46_Vel_116,2897
Note_On_46_Vel_117,2898
Note_On_46_Vel_118,2899
Note_On_47_Vel_0,2900
Note_On_47_Vel_3,2901
Note_On_47_Vel_5,2902
Note_On_47_Vel_6,2903
Note_On_47_Vel_7,2904
Note_On_47_Vel_8,2905
Note_On_47_Vel_9,2906
Note_On_47_Vel_10,2907
Note_On_47_Vel_11,2908
Note_On_47_Vel_12,2909
Note_On_47_Vel_13,2910
Note_On_47_Vel_14,2911
Note_On_47_Vel_15,2912
Note_On_47_Vel_16,2913
Note_On_47_Vel_17,2914
Note_On_47_Vel_18,2915
Note_On_47_Vel_19,2916
Note_On_47_Vel_20,2917
Note_On_47_Vel_21,2918
Note_On_47_Vel_22,2919
Note_On_47_Vel_23,2920
Note_On_47_Vel_24,2921
Note_On_47_Vel_25,2922
Note_On_47_Vel_26,2923
Note_On_47_Vel_27,2924
Note_On_47_Vel_28,2925
Note_On_47_Vel_29,2926
Note_On_47_Vel_30,2927
Note_On_47_Vel_31,2928
Note_On_47_Vel_32,2929
Note_On_47_Vel_33,2930
Note_On_47_Vel_34,2931
Note_On_47_Vel_35,2932
Note_On_47_Vel_36,2933
Note_On_47_Vel_37,2934
Note_On_47_Vel_38,2935
Note_On_47_Vel_39,2936
Note_On_47_Vel_40,2937
Note_On_47_Vel_41,2938
Note_On_47_Vel_42,2939
Note_On_47_Vel_43,2940
Note_On_47_Vel_44,2941
Note_On_47_Vel_45,2942
Note_On_47_Vel_46,2943
Note_On_47_Vel_47,2944
Note_On_47_Vel_48,2945
Note_On_47_Vel_49,2946
Note_On_47_Vel_50,2947
Note_On_47_Vel_51,2948
Note_On_47_Vel_52,2949
Note_On_47_Vel_53,2950
Note_On_47_Vel_54,2951
Note_On_47_Vel_55,2952
Note_On_47_Vel_56,2953
Note_On_47_Vel_57,2954
Note_On_47_Vel_58,2955
Note_On_47_Vel_59,2956
Note_On_47_Vel_60,2957
Note_On_47_Vel_61,2958
Note_On_47_Vel_62,2959
Note_On_47_Vel_63,2960
Note_On_47_Vel_64,2961
Note_On_47_Vel_65,2962
Note_On_47_Vel_66,2963
Note_On_47_Vel_67,2964
Note_On_47_Vel_68,2965
Note_On_47_Vel_69,2966
Note_On_47_Vel_70,2967
Note_On_47_Vel_71,2968
Note_On_47_Vel_72,2969
Note_On_47_Vel_73,2970
Note_On_47_Vel_74,2971
Note_On_47_Vel_75,2972
Note_On_47_Vel_76,2973
Note_On_47_Vel_77,2974
Note_On_47_Vel_78,2975
Note_On_47_Vel_79,2976
Note_On_47_Vel_80,2977
Note_On_47_Vel_81,2978
Note_On_47_Vel_82,2979
Note_On_47_Vel_83,2980
Note_On_47_Vel_84,2981
Note_On_47_Vel_85,2982
Note_On_47_Vel_86,2983
Note_On_47_Vel_87,2984
Note_On_47_Vel_88,2985
Note_On_47_Vel_89,2986
Note_On_47_Vel_90,2987
Note_On_47_Vel_91,2988
Note_On_47_Vel_92,2989
Note_On_47_Vel_93,2990
Note_On_47_Vel_94,2991
Note_On_47_Vel_95,2992
Note_On_47_Vel_96,2993
Note_On_47_Vel_97,2994
Note_On_47_Vel_98,2995
Note_On_47_Vel_99,2996
Note_On_47_Vel_100,2997
Note_On_47_Vel_101,2998
Note_On_47_Vel_102,2999
Note_On_47_Vel_103,3000
Note_On_47_Vel_104,3001
Note_On_47_Vel_105,3002
Note_On_47_Vel_106,3003
Note_On_47_Vel_107,3004
Note_On_47_Vel_108,3005
Note_On_47_Vel_109,3006
Note_On_47_Vel_110,3007
Note_On_47_Vel_111,3008
Note_On_47_Vel_112,3009
Note_On_47_Vel_113,3010
Note_On_47_Vel_114,3011
Note_On_47_Vel_115,3012
Note_On_47_Vel_116,3013
Note_On_47_Vel_117,3014
Note_On_47_Vel_118,3015
Note_On_48_Vel_0,3016
Note_On_48_Vel_3,3017
Note_On_48_Vel_5,3018
Note_On_48_Vel_6,3019
Note_On_48_Vel_7,3020
Note_On_48_Vel_8,3021
Note_On_48_Vel_9,3022
Note_On_48_Vel_10,3023
Note_On_48_Vel_11,3024
Note_On_48_Vel_12,3025
Note_On_48_Vel_13,3026
Note_On_48_Vel_14,3027
Note_On_48_Vel_15,3028
Note_On_48_Vel_16,3029
Note_On_48_Vel_17,3030
Note_On_48_Vel_18,3031
Note_On_48_Vel_19,3032
Note_On_48_Vel_20,3033
Note_On_48_Vel_21,3034
Note_On_48_Vel_22,3035
Note_On_48_Vel_23,3036
Note_On_48_Vel_24,3037
Note_On_48_Vel_25,3038
Note_On_48_Vel_26,3039
Note_On_48_Vel_27,3040
Note_On_48_Vel_28,3041
Note_On_48_Vel_29,3042
Note_On_48_Vel_30,3043
Note_On_48_Vel_31,3044
Note_On_48_Vel_32,3045
Note_On_48_Vel_33,3046
Note_On_48_Vel_34,3047
Note_On_48_Vel_35,3048
Note_On_48_Vel_36,3049
Note_On_48_Vel_37,3050
Note_On_48_Vel_38,3051
Note_On_48_Vel_39,3052
Note_On_48_Vel_40,3053
Note_On_48_Vel_41,3054
Note_On_48_Vel_42,3055
Note_On_48_Vel_43,3056
Note_On_48_Vel_44,3057
Note_On_48_Vel_45,3058
Note_On_48_Vel_46,3059
Note_On_48_Vel_47,3060
Note_On_48_Vel_48,3061
Note_On_48_Vel_49,3062
Note_On_48_Vel_50,3063
Note_On_48_Vel_51,3064
Note_On_48_Vel_52,3065
Note_On_48_Vel_53,3066
Note_On_48_Vel_54,3067
Note_On_48_Vel_55,3068
Note_On_48_Vel_56,3069
Note_On_48_Vel_57,3070
Note_On_48_Vel_58,3071
Note_On_48_Vel_59,3072
Note_On_48_Vel_60,3073
Note_On_48_Vel_61,3074
Note_On_48_Vel_62,3075
Note_On_48_Vel_63,3076
Note_On_48_Vel_64,3077
Note_On_48_Vel_65,3078
Note_On_48_Vel_66,3079
Note_On_48_Vel_67,3080
Note_On_48_Vel_68,3081
Note_On_48_Vel_69,3082
Note_On_48_Vel_70,3083
Note_On_48_Vel_71,3084
Note_On_48_Vel_72,3085
Note_On_48_Vel_73,3086
Note_On_48_Vel_74,3087
Note_On_48_Vel_75,3088
Note_On_48_Vel_76,3089
Note_On_48_Vel_77,3090
Note_On_48_Vel_78,3091
Note_On_48_Vel_79,3092
Note_On_48_Vel_80,3093
Note_On_48_Vel_81,3094
Note_On_48_Vel_82,3095
Note_On_48_Vel_83,3096
Note_On_48_Vel_84,3097
Note_On_48_Vel_85,3098
Note_On_48_Vel_86,3099
Note_On_48_Vel_87,3100
Note_On_48_Vel_88,3101
Note_On_48_Vel_89,3102
Note_On_48_Vel_90,3103
Note_On_48_Vel_91,3104
Note_On_48_Vel_92,3105
Note_On_48_Vel_93,3106
Note_On_48_Vel_94,3107
Note_On_48_Vel_95,3108
Note_On_48_Vel_96,3109
Note_On_48_Vel_97,3110
Note_On_48_Vel_98,3111
Note_On_48_Vel_99,3112
Note_On_48_Vel_100,3113
Note_On_48_Vel_101,3114
Note_On_48_Vel_102,3115
Note_On_48_Vel_103,3116
Note_On_48_Vel_104,3117
Note_On_48_Vel_105,3118
Note_On_48_Vel_106,3119
Note_On_48_Vel_107,3120
Note_On_48_Vel_108,3121
Note_On_48_Vel_109,3122
Note_On_48_Vel_110,3123
Note_On_48_Vel_111,3124
Note_On_48_Vel_112,3125
Note_On_48_Vel_113,3126
Note_On_48_Vel_114,3127
Note_On_48_Vel_115,3128
Note_On_48_Vel_116,3129
Note_On_48_Vel_117,3130
Note_On_48_Vel_118,3131
Note_On_49_Vel_0,3132
Note_On_49_Vel_3,3133
Note_On_49_Vel_5,3134
Note_On_49_Vel_6,3135
Note_On_49_Vel_7,3136
Note_On_49_Vel_8,3137
Note_On_49_Vel_9,3138
Note_On_49_Vel_10,3139
Note_On_49_Vel_11,3140
Note_On_49_Vel_12,3141
Note_On_49_Vel_13,3142
Note_On_49_Vel_14,3143
Note_On_49_Vel_15,3144
Note_On_49_Vel_16,3145
Note_On_49_Vel_17,3146
Note_On_49_Vel_18,3147
Note_On_49_Vel_19,3148
Note_On_49_Vel_20,3149
Note_On_49_Vel_21,3150
Note_On_49_Vel_22,3151
Note_On_49_Vel_23,3152
Note_On_49_Vel_24,3153
Note_On_49_Vel_25,3154
Note_On_49_Vel_26,3155
Note_On_49_Vel_27,3156
Note_On_49_Vel_28,3157
Note_On_49_Vel_29,3158
Note_On_49_Vel_30,3159
Note_On_49_Vel_31,3160
Note_On_49_Vel_32,3161
Note_On_49_Vel_33,3162
Note_On_49_Vel_34,3163
Note_On_49_Vel_35,3164
Note_On_49_Vel_36,3165
Note_On_49_Vel_37,3166
Note_On_49_Vel_38,3167
Note_On_49_Vel_39,3168
Note_On_49_Vel_40,3169
Note_On_49_Vel_41,3170
Note_On_49_Vel_42,3171
Note_On_49_Vel_43,3172
Note_On_49_Vel_44,3173
Note_On_49_Vel_45,3174
Note_On_49_Vel_46,3175
Note_On_49_Vel_47,3176
Note_On_49_Vel_48,3177
Note_On_49_Vel_49,3178
Note_On_49_Vel_50,3179
Note_On_49_Vel_51,3180
Note_On_49_Vel_52,3181
Note_On_49_Vel_53,3182
Note_On_49_Vel_54,3183
Note_On_49_Vel_55,3184
Note_On_49_Vel_56,3185
Note_On_49_Vel_57,3186
Note_On_49_Vel_58,3187
Note_On_49_Vel_59,3188
Note_On_49_Vel_60,3189
Note_On_49_Vel_61,3190
Note_On_49_Vel_62,3191
Note_On_49_Vel_63,3192
Note_On_49_Vel_64,3193
Note_On_49_Vel_65,3194
Note_On_49_Vel_66,3195
Note_On_49_Vel_67,3196
Note_On_49_Vel_68,3197
Note_On_49_Vel_69,3198
Note_On_49_Vel_70,3199
Note_On_49_Vel_71,3200
Note_On_49_Vel_72,3201
Note_On_49_Vel_73,3202
Note_On_49_Vel_74,3203
Note_On_49_Vel_75,3204
Note_On_49_Vel_76,3205
Note_On_49_Vel_77,3206
Note_On_49_Vel_78,3207
Note_On_49_Vel_79,3208
Note_On_49_Vel_80,3209
Note_On_49_Vel_81,3210
Note_On_49_Vel_82,3211
Note_On_49_Vel_83,3212
Note_On_49_Vel_84,3213
Note_On_49_Vel_85,3214
Note_On_49_Vel_86,3215
Note_On_49_Vel_87,3216
Note_On_49_Vel_88,3217
Note_On_49_Vel_89,3218
Note_On_49_Vel_90,3219
Note_On_49_Vel_91,3220
Note_On_49_Vel_92,3221
Note_On_49_Vel_93,3222
Note_On_49_Vel_94,3223
Note_On_49_Vel_95,3224
Note_On_49_Vel_96,3225
Note_On_49_Vel_97,3226
Note_On_49_Vel_98,3227
Note_On_49_Vel_99,3228
Note_On_49_Vel_100,3229
Note_On_49_Vel_101,3230
Note_On_49_Vel_102,3231
Note_On_49_Vel_103,3232
Note_On_49_Vel_104,3233
Note_On_49_Vel_105,3234
Note_On_49_Vel_106,3235
Note_On_49_Vel_107,3236
Note_On_49_Vel_108,3237
Note_On_49_Vel_109,3238
Note_On_49_Vel_110,3239
Note_On_49_Vel_111,3240
Note_On_49_Vel_112,3241
Note_On_49_Vel_113,3242
Note_On_49_Vel_114,3243
Note_On_49_Vel_115,3244
Note_On_49_Vel_116,3245
Note_On_49_Vel_117,3246
Note_On_49_Vel_118,3247
Note_On_50_Vel_0,3248
Note_On_50_Vel_3,3249
Note_On_50_Vel_5,3250
Note_On_50_Vel_6,3251
Note_On_50_Vel_7,3252
Note_On_50_Vel_8,3253
Note_On_50_Vel_9,3254
Note_On_50_Vel_10,3255
Note_On_50_Vel_11,3256
Note_On_50_Vel_12,3257
Note_On_50_Vel_13,3258
Note_On_50_Vel_14,3259
Note_On_50_Vel_15,3260
Note_On_50_Vel_16,3261
Note_On_50_Vel_17,3262
Note_On_50_Vel_18,3263
Note_On_50_Vel_19,3264
Note_On_50_Vel_20,3265
Note_On_50_Vel_21,3266
Note_On_50_Vel_22,3267
Note_On_50_Vel_23,3268
Note_On_50_Vel_24,3269
Note_On_50_Vel_25,3270
Note_On_50_Vel_26,3271
Note_On_50_Vel_27,3272
Note_On_50_Vel_28,3273
Note_On_50_Vel_29,3274
Note_On_50_Vel_30,3275
Note_On_50_Vel_31,3276
Note_On_50_Vel_32,3277
Note_On_50_Vel_33,3278
Note_On_50_Vel_34,3279
Note_On_50_Vel_35,3280
Note_On_50_Vel_36,3281
Note_On_50_Vel_37,3282
Note_On_50_Vel_38,3283
Note_On_50_Vel_39,3284
Note_On_50_Vel_40,3285
Note_On_50_Vel_41,3286
Note_On_50_Vel_42,3287
Note_On_50_Vel_43,3288
Note_On_50_Vel_44,3289
Note_On_50_Vel_45,3290
Note_On_50_Vel_46,3291
Note_On_50_Vel_47,3292
Note_On_50_Vel_48,3293
Note_On_50_Vel_49,3294
Note_On_50_Vel_50,3295
Note_On_50_Vel_51,3296
Note_On_50_Vel_52,3297
Note_On_50_Vel_53,3298
Note_On_50_Vel_54,3299
Note_On_50_Vel_55,3300
Note_On_50_Vel_56,3301
Note_On_50_Vel_57,3302
Note_On_50_Vel_58,3303
Note_On_50_Vel_59,3304
Note_On_50_Vel_60,3305
Note_On_50_Vel_61,3306
Note_On_50_Vel_62,3307
Note_On_50_Vel_63,3308
Note_On_50_Vel_64,3309
Note_On_50_Vel_65,3310
Note_On_50_Vel_66,3311
Note_On_50_Vel_67,3312
Note_On_50_Vel_68,3313
Note_On_50_Vel_69,3314
Note_On_50_Vel_70,3315
Note_On_50_Vel_71,3316
Note_On_50_Vel_72,3317
Note_On_50_Vel_73,3318
Note_On_50_Vel_74,3319
Note_On_50_Vel_75,3320
Note_On_50_Vel_76,3321
Note_On_50_Vel_77,3322
Note_On_50_Vel_78,3323
Note_On_50_Vel_79,3324
Note_On_50_Vel_80,3325
Note_On_50_Vel_81,3326
Note_On_50_Vel_82,3327
Note_On_50_Vel_83,3328
Note_On_50_Vel_84,3329
Note_On_50_Vel_85,3330
Note_On_50_Vel_86,3331
Note_On_50_Vel_87,3332
Note_On_50_Vel_88,3333
Note_On_50_Vel_89,3334
Note_On_50_Vel_90,3335
Note_On_50_Vel_91,3336
Note_On_50_Vel_92,3337
Note_On_50_Vel_93,3338
Note_On_50_Vel_94,3339
Note_On_50_Vel_95,3340
Note_On_50_Vel_96,3341
Note_On_50_Vel_97,3342
Note_On_50_Vel_98,3343
Note_On_50_Vel_99,3344
Note_On_50_Vel_100,3345
Note_On_50_Vel_101,3346
Note_On_50_Vel_102,3347
Note_On_50_Vel_103,3348
Note_On_50_Vel_104,3349
Note_On_50_Vel_105,3350
Note_On_50_Vel_106,3351
Note_On_50_Vel_107,3352
Note_On_50_Vel_108,3353
Note_On_50_Vel_109,3354
Note_On_50_Vel_110,3355
Note_On_50_Vel_111,3356
Note_On_50_Vel_112,3357
Note_On_50_Vel_113,3358
Note_On_50_Vel_114,3359
Note_On_50_Vel_115,3360
Note_On_50_Vel_116,3361
Note_On_50_Vel_117,3362
Note_On_50_Vel_118,3363
Note_On_51_Vel_0,3364
Note_On_51_Vel_3,3365
Note_On_51_Vel_5,3366
Note_On_51_Vel_6,3367
Note_On_51_Vel_7,3368
Note_On_51_Vel_8,3369
Note_On_51_Vel_9,3370
Note_On_51_Vel_10,3371
Note_On_51_Vel_11,3372
Note_On_51_Vel_12,3373
Note_On_51_Vel_13,3374
Note_On_51_Vel_14,3375
Note_On_51_Vel_15,3376
Note_On_51_Vel_16,3377
Note_On_51_Vel_17,3378
Note_On_51_Vel_18,3379
Note_On_51_Vel_19,3380
Note_On_51_Vel_20,3381
Note_On_51_Vel_21,3382
Note_On_51_Vel_22,3383
Note_On_51_Vel_23,3384
Note_On_51_Vel_24,3385
Note_On_51_Vel_25,3386
Note_On_51_Vel_26,3387
Note_On_51_Vel_27,3388
Note_On_51_Vel_28,3389
Note_On_51_Vel_29,3390
Note_On_51_Vel_30,3391
Note_On_51_Vel_31,3392
Note_On_51_Vel_32,3393
Note_On_51_Vel_33,3394
Note_On_51_Vel_34,3395
Note_On_51_Vel_35,3396
Note_On_51_Vel_36,3397
Note_On_51_Vel_37,3398
Note_On_51_Vel_38,3399
Note_On_51_Vel_39,3400
Note_On_51_Vel_40,3401
Note_On_51_Vel_41,3402
Note_On_51_Vel_42,3403
Note_On_51_Vel_43,3404
Note_On_51_Vel_44,3405
Note_On_51_Vel_45,3406
Note_On_51_Vel_46,3407
Note_On_51_Vel_47,3408
Note_On_51_Vel_48,3409
Note_On_51_Vel_49,3410
Note_On_51_Vel_50,3411
Note_On_51_Vel_51,3412
Note_On_51_Vel_52,3413
Note_On_51_Vel_53,3414
Note_On_51_Vel_54,3415
Note_On_51_Vel_55,3416
Note_On_51_Vel_56,3417
Note_On_51_Vel_57,3418
Note_On_51_Vel_58,3419
Note_On_51_Vel_59,3420
Note_On_51_Vel_60,3421
Note_On_51_Vel_61,3422
Note_On_51_Vel_62,3423
Note_On_51_Vel_63,3424
Note_On_51_Vel_64,3425
Note_On_51_Vel_65,3426
Note_On_51_Vel_66,3427
Note_On_51_Vel_67,3428
Note_On_51_Vel_68,3429
Note_On_51_Vel_69,3430
Note_On_51_Vel_70,3431
Note_On_51_Vel_71,3432
Note_On_51_Vel_72,3433
Note_On_51_Vel_73,3434
Note_On_51_Vel_74,3435
Note_On_51_Vel_75,3436
Note_On_51_Vel_76,3437
Note_On_51_Vel_77,3438
Note_On_51_Vel_78,3439
Note_On_51_Vel_79,3440
Note_On_51_Vel_80,3441
Note_On_51_Vel_81,3442
Note_On_51_Vel_82,3443
Note_On_51_Vel_83,3444
Note_On_51_Vel_84,3445
Note_On_51_Vel_85,3446
Note_On_51_Vel_86,3447
Note_On_51_Vel_87,3448
Note_On_51_Vel_88,3449
Note_On_51_Vel_89,3450
Note_On_51_Vel_90,3451
Note_On_51_Vel_91,3452
Note_On_51_Vel_92,3453
Note_On_51_Vel_93,3454
Note_On_51_Vel_94,3455
Note_On_51_Vel_95,3456
Note_On_51_Vel_96,3457
Note_On_51_Vel_97,3458
Note_On_51_Vel_98,3459
Note_On_51_Vel_99,3460
Note_On_51_Vel_100,3461
Note_On_51_Vel_101,3462
Note_On_51_Vel_102,3463
Note_On_51_Vel_103,3464
Note_On_51_Vel_104,3465
Note_On_51_Vel_105,3466
Note_On_51_Vel_106,3467
Note_On_51_Vel_107,3468
Note_On_51_Vel_108,3469
Note_On_51_Vel_109,3470
Note_On_51_Vel_110,3471
Note_On_51_Vel_111,3472
Note_On_51_Vel_112,3473
Note_On_51_Vel_113,3474
Note_On_51_Vel_114,3475
Note_On_51_Vel_115,3476
Note_On_51_Vel_116,3477
Note_On_51_Vel_117,3478
Note_On_51_Vel_118,3479
Note_On_52_Vel_0,3480
Note_On_52_Vel_3,3481
Note_On_52_Vel_5,3482
Note_On_52_Vel_6,3483
Note_On_52_Vel_7,3484
Note_On_52_Vel_8,3485
Note_On_52_Vel_9,3486
Note_On_52_Vel_10,3487
Note_On_52_Vel_11,3488
Note_On_52_Vel_12,3489
Note_On_52_Vel_13,3490
Note_On_52_Vel_14,3491
Note_On_52_Vel_15,3492
Note_On_52_Vel_16,3493
Note_On_52_Vel_17,3494
Note_On_52_Vel_18,3495
Note_On_52_Vel_19,3496
Note_On_52_Vel_20,3497
Note_On_52_Vel_21,3498
Note_On_52_Vel_22,3499
Note_On_52_Vel_23,3500
Note_On_52_Vel_24,3501
Note_On_52_Vel_25,3502
Note_On_52_Vel_26,3503
Note_On_52_Vel_27,3504
Note_On_52_Vel_28,3505
Note_On_52_Vel_29,3506
Note_On_52_Vel_30,3507
Note_On_52_Vel_31,3508
Note_On_52_Vel_32,3509
Note_On_52_Vel_33,3510
Note_On_52_Vel_34,3511
Note_On_52_Vel_35,3512
Note_On_52_Vel_36,3513
Note_On_52_Vel_37,3514
Note_On_52_Vel_38,3515
Note_On_52_Vel_39,3516
Note_On_52_Vel_40,3517
Note_On_52_Vel_41,3518
Note_On_52_Vel_42,3519
Note_On_52_Vel_43,3520
Note_On_52_Vel_44,3521
Note_On_52_Vel_45,3522
Note_On_52_Vel_46,3523
Note_On_52_Vel_47,3524
Note_On_52_Vel_48,3525
Note_On_52_Vel_49,3526
Note_On_52_Vel_50,3527
Note_On_52_Vel_51,3528
Note_On_52_Vel_52,3529
Note_On_52_Vel_53,3530
Note_On_52_Vel_54,3531
Note_On_52_Vel_55,3532
Note_On_52_Vel_56,3533
Note_On_52_Vel_57,3534
Note_On_52_Vel_58,3535
Note_On_52_Vel_59,3536
Note_On_52_Vel_60,3537
Note_On_52_Vel_61,3538
Note_On_52_Vel_62,3539
Note_On_52_Vel_63,3540
Note_On_52_Vel_64,3541
Note_On_52_Vel_65,3542
Note_On_52_Vel_66,3543
Note_On_52_Vel_67,3544
Note_On_52_Vel_68,3545
Note_On_52_Vel_69,3546
Note_On_52_Vel_70,3547
Note_On_52_Vel_71,3548
Note_On_52_Vel_72,3549
Note_On_52_Vel_73,3550
Note_On_52_Vel_74,3551
Note_On_52_Vel_75,3552
Note_On_52_Vel_76,3553
Note_On_52_Vel_77,3554
Note_On_52_Vel_78,3555
Note_On_52_Vel_79,3556
Note_On_52_Vel_80,3557
Note_On_52_Vel_81,3558
Note_On_52_Vel_82,3559
Note_On_52_Vel_83,3560
Note_On_52_Vel_84,3561
Note_On_52_Vel_85,3562
Note_On_52_Vel_86,3563
Note_On_52_Vel_87,3564
Note_On_52_Vel_88,3565
Note_On_52_Vel_89,3566
Note_On_52_Vel_90,3567
Note_On_52_Vel_91,3568
Note_On_52_Vel_92,3569
Note_On_52_Vel_93,3570
Note_On_52_Vel_94,3571
Note_On_52_Vel_95,3572
Note_On_52_Vel_96,3573
Note_On_52_Vel_97,3574
Note_On_52_Vel_98,3575
Note_On_52_Vel_99,3576
Note_On_52_Vel_100,3577
Note_On_52_Vel_101,3578
Note_On_52_Vel_102,3579
Note_On_52_Vel_103,3580
Note_On_52_Vel_104,3581
Note_On_52_Vel_105,3582
Note_On_52_Vel_106,3583
Note_On_52_Vel_107,3584
Note_On_52_Vel_108,3585
Note_On_52_Vel_109,3586
Note_On_52_Vel_110,3587
Note_On_52_Vel_111,3588
Note_On_52_Vel_112,3589
Note_On_52_Vel_113,3590
Note_On_52_Vel_114,3591
Note_On_52_Vel_115,3592
Note_On_52_Vel_116,3593
Note_On_52_Vel_117,3594
Note_On_52_Vel_118,3595
Note_On_53_Vel_0,3596
Note_On_53_Vel_3,3597
Note_On_53_Vel_5,3598
Note_On_53_Vel_6,3599
Note_On_53_Vel_7,3600
Note_On_53_Vel_8,3601
Note_On_53_Vel_9,3602
Note_On_53_Vel_10,3603
Note_On_53_Vel_11,3604
Note_On_53_Vel_12,3605
Note_On_53_Vel_13,3606
Note_On_53_Vel_14,3607
Note_On_53_Vel_15,3608
Note_On_53_Vel_16,3609
Note_On_53_Vel_17,3610
Note_On_53_Vel_18,3611
Note_On_53_Vel_19,3612
Note_On_53_Vel_20,3613
Note_On_53_Vel_21,3614
Note_On_53_Vel_22,3615
Note_On_53_Vel_23,3616
Note_On_53_Vel_24,3617
Note_On_53_Vel_25,3618
Note_On_53_Vel_26,3619
Note_On_53_Vel_27,3620
Note_On_53_Vel_28,3621
Note_On_53_Vel_29,3622
Note_On_53_Vel_30,3623
Note_On_53_Vel_31,3624
Note_On_53_Vel_32,3625
Note_On_53_Vel_33,3626
Note_On_53_Vel_34,3627
Note_On_53_Vel_35,3628
Note_On_53_Vel_36,3629
Note_On_53_Vel_37,3630
Note_On_53_Vel_38,3631
Note_On_53_Vel_39,3632
Note_On_53_Vel_40,3633
Note_On_53_Vel_41,3634
Note_On_53_Vel_42,3635
Note_On_53_Vel_43,3636
Note_On_53_Vel_44,3637
Note_On_53_Vel_45,3638
Note_On_53_Vel_46,3639
Note_On_53_Vel_47,3640
Note_On_53_Vel_48,3641
Note_On_53_Vel_49,3642
Note_On_53_Vel_50,3643
Note_On_53_Vel_51,3644
Note_On_53_Vel_52,3645
Note_On_53_Vel_53,3646
Note_On_53_Vel_54,3647
Note_On_53_Vel_55,3648
Note_On_53_Vel_56,3649
Note_On_53_Vel_57,3650
Note_On_53_Vel_58,3651
Note_On_53_Vel_59,3652
Note_On_53_Vel_60,3653
Note_On_53_Vel_61,3654
Note_On_53_Vel_62,3655
Note_On_53_Vel_63,3656
Note_On_53_Vel_64,3657
Note_On_53_Vel_65,3658
Note_On_53_Vel_66,3659
Note_On_53_Vel_67,3660
Note_On_53_Vel_68,3661
Note_On_53_Vel_69,3662
Note_On_53_Vel_70,3663
Note_On_53_Vel_71,3664
Note_On_53_Vel_72,3665
Note_On_53_Vel_73,3666
Note_On_53_Vel_74,3667
Note_On_53_Vel_75,3668
Note_On_53_Vel_76,3669
Note_On_53_Vel_77,3670
Note_On_53_Vel_78,3671
Note_On_53_Vel_79,3672
Note_On_53_Vel_80,3673
Note_On_53_Vel_81,3674
Note_On_53_Vel_82,3675
Note_On_53_Vel_83,3676
Note_On_53_Vel_84,3677
Note_On_53_Vel_85,3678
Note_On_53_Vel_86,3679
Note_On_53_Vel_87,3680
Note_On_53_Vel_88,3681
Note_On_53_Vel_89,3682
Note_On_53_Vel_90,3683
Note_On_53_Vel_91,3684
Note_On_53_Vel_92,3685
Note_On_53_Vel_93,3686
Note_On_53_Vel_94,3687
Note_On_53_Vel_95,3688
Note_On_53_Vel_96,3689
Note_On_53_Vel_97,3690
Note_On_53_Vel_98,3691
Note_On_53_Vel_99,3692
Note_On_53_Vel_100,3693
Note_On_53_Vel_101,3694
Note_On_53_Vel_102,3695
Note_On_53_Vel_103,3696
Note_On_53_Vel_104,3697
Note_On_53_Vel_105,3698
Note_On_53_Vel_106,3699
Note_On_53_Vel_107,3700
Note_On_53_Vel_108,3701
Note_On_53_Vel_109,3702
Note_On_53_Vel_110,3703
Note_On_53_Vel_111,3704
Note_On_53_Vel_112,3705
Note_On_53_Vel_113,3706
Note_On_53_Vel_114,3707
Note_On_53_Vel_115,3708
Note_On_53_Vel_116,3709
Note_On_53_Vel_117,3710
Note_On_53_Vel_118,3711
Note_On_54_Vel_0,3712
Note_On_54_Vel_3,3713
Note_On_54_Vel_5,3714
Note_On_54_Vel_6,3715
Note_On_54_Vel_7,3716
Note_On_54_Vel_8,3717
Note_On_54_Vel_9,3718
Note_On_54_Vel_10,3719
Note_On_54_Vel_11,3720
Note_On_54_Vel_12,3721
Note_On_54_Vel_13,3722
Note_On_54_Vel_14,3723
Note_On_54_Vel_15,3724
Note_On_54_Vel_16,3725
Note_On_54_Vel_17,3726
Note_On_54_Vel_18,3727
Note_On_54_Vel_19,3728
Note_On_54_Vel_20,3729
Note_On_54_Vel_21,3730
Note_On_54_Vel_22,3731
Note_On_54_Vel_23,3732
Note_On_54_Vel_24,3733
Note_On_54_Vel_25,3734
Note_On_54_Vel_26,3735
Note_On_54_Vel_27,3736
Note_On_54_Vel_28,3737
Note_On_54_Vel_29,3738
Note_On_54_Vel_30,3739
Note_On_54_Vel_31,3740
Note_On_54_Vel_32,3741
Note_On_54_Vel_33,3742
Note_On_54_Vel_34,3743
Note_On_54_Vel_35,3744
Note_On_54_Vel_36,3745
Note_On_54_Vel_37,3746
Note_On_54_Vel_38,3747
Note_On_54_Vel_39,3748
Note_On_54_Vel_40,3749
Note_On_54_Vel_41,3750
Note_On_54_Vel_42,3751
Note_On_54_Vel_43,3752
Note_On_54_Vel_44,3753
Note_On_54_Vel_45,3754
Note_On_54_Vel_46,3755
Note_On_54_Vel_47,3756
Note_On_54_Vel_48,3757
Note_On_54_Vel_49,3758
Note_On_54_Vel_50,3759
Note_On_54_Vel_51,3760
Note_On_54_Vel_52,3761
Note_On_54_Vel_53,3762
Note_On_54_Vel_54,3763
Note_On_54_Vel_55,3764
Note_On_54_Vel_56,3765
Note_On_54_Vel_57,3766
Note_On_54_Vel_58,3767
Note_On_54_Vel_59,3768
Note_On_54_Vel_60,3769
Note_On_54_Vel_61,3770
Note_On_54_Vel_62,3771
Note_On_54_Vel_63,3772
Note_On_54_Vel_64,3773
Note_On_54_Vel_65,3774
Note_On_54_Vel_66,3775
Note_On_54_Vel_67,3776
Note_On_54_Vel_68,3777
Note_On_54_Vel_69,3778
Note_On_54_Vel_70,3779
Note_On_54_Vel_71,3780
Note_On_54_Vel_72,3781
Note_On_54_Vel_73,3782
Note_On_54_Vel_74,3783
Note_On_54_Vel_75,3784
Note_On_54_Vel_76,3785
Note_On_54_Vel_77,3786
Note_On_54_Vel_78,3787
Note_On_54_Vel_79,3788
Note_On_54_Vel_80,3789
Note_On_54_Vel_81,3790
Note_On_54_Vel_82,3791
Note_On_54_Vel_83,3792
Note_On_54_Vel_84,3793
Note_On_54_Vel_85,3794
Note_On_54_Vel_86,3795
Note_On_54_Vel_87,3796
Note_On_54_Vel_88,3797
Note_On_54_Vel_89,3798
Note_On_54_Vel_90,3799
Note_On_54_Vel_91,3800
Note_On_54_Vel_92,3801
Note_On_54_Vel_93,3802
Note_On_54_Vel_94,3803
Note_On_54_Vel_95,3804
Note_On_54_Vel_96,3805
Note_On_54_Vel_97,3806
Note_On_54_Vel_98,3807
Note_On_54_Vel_99,3808
Note_On_54_Vel_100,3809
Note_On_54_Vel_101,3810
Note_On_54_Vel_102,3811
Note_On_54_Vel_103,3812
Note_On_54_Vel_104,3813
Note_On_54_Vel_105,3814
Note_On_54_Vel_106,3815
Note_On_54_Vel_107,3816
Note_On_54_Vel_108,3817
Note_On_54_Vel_109,3818
Note_On_54_Vel_110,3819
Note_On_54_Vel_111,3820
Note_On_54_Vel_112,3821
Note_On_54_Vel_113,3822
Note_On_54_Vel_114,3823
Note_On_54_Vel_115,3824
Note_On_54_Vel_116,3825
Note_On_54_Vel_117,3826
Note_On_54_Vel_118,3827
Note_On_55_Vel_0,3828
Note_On_55_Vel_3,3829
Note_On_55_Vel_5,3830
Note_On_55_Vel_6,3831
Note_On_55_Vel_7,3832
Note_On_55_Vel_8,3833
Note_On_55_Vel_9,3834
Note_On_55_Vel_10,3835
Note_On_55_Vel_11,3836
Note_On_55_Vel_12,3837
Note_On_55_Vel_13,3838
Note_On_55_Vel_14,3839
Note_On_55_Vel_15,3840
Note_On_55_Vel_16,3841
Note_On_55_Vel_17,3842
Note_On_55_Vel_18,3843
Note_On_55_Vel_19,3844
Note_On_55_Vel_20,3845
Note_On_55_Vel_21,3846
Note_On_55_Vel_22,3847
Note_On_55_Vel_23,3848
Note_On_55_Vel_24,3849
Note_On_55_Vel_25,3850
Note_On_55_Vel_26,3851
Note_On_55_Vel_27,3852
Note_On_55_Vel_28,3853
Note_On_55_Vel_29,3854
Note_On_55_Vel_30,3855
Note_On_55_Vel_31,3856
Note_On_55_Vel_32,3857
Note_On_55_Vel_33,3858
Note_On_55_Vel_34,3859
Note_On_55_Vel_35,3860
Note_On_55_Vel_36,3861
Note_On_55_Vel_37,3862
Note_On_55_Vel_38,3863
Note_On_55_Vel_39,3864
Note_On_55_Vel_40,3865
Note_On_55_Vel_41,3866
Note_On_55_Vel_42,3867
Note_On_55_Vel_43,3868
Note_On_55_Vel_44,3869
Note_On_55_Vel_45,3870
Note_On_55_Vel_46,3871
Note_On_55_Vel_47,3872
Note_On_55_Vel_48,3873
Note_On_55_Vel_49,3874
Note_On_55_Vel_50,3875
Note_On_55_Vel_51,3876
Note_On_55_Vel_52,3877
Note_On_55_Vel_53,3878
Note_On_55_Vel_54,3879
Note_On_55_Vel_55,3880
Note_On_55_Vel_56,3881
Note_On_55_Vel_57,3882
Note_On_55_Vel_58,3883
Note_On_55_Vel_59,3884
Note_On_55_Vel_60,3885
Note_On_55_Vel_61,3886
Note_On_55_Vel_62,3887
Note_On_55_Vel_63,3888
Note_On_55_Vel_64,3889
Note_On_55_Vel_65,3890
Note_On_55_Vel_66,3891
Note_On_55_Vel_67,3892
Note_On_55_Vel_68,3893
Note_On_55_Vel_69,3894
Note_On_55_Vel_70,3895
Note_On_55_Vel_71,3896
Note_On_55_Vel_72,3897
Note_On_55_Vel_73,3898
Note_On_55_Vel_74,3899
Note_On_55_Vel_75,3900
Note_On_55_Vel_76,3901
Note_On_55_Vel_77,3902
Note_On_55_Vel_78,3903
Note_On_55_Vel_79,3904
Note_On_55_Vel_80,3905
Note_On_55_Vel_81,3906
Note_On_55_Vel_82,3907
Note_On_55_Vel_83,3908
Note_On_55_Vel_84,3909
Note_On_55_Vel_85,3910
Note_On_55_Vel_86,3911
Note_On_55_Vel_87,3912
Note_On_55_Vel_88,3913
Note_On_55_Vel_89,3914
Note_On_55_Vel_90,3915
Note_On_55_Vel_91,3916
Note_On_55_Vel_92,3917
Note_On_55_Vel_93,3918
Note_On_55_Vel_94,3919
Note_On_55_Vel_95,3920
Note_On_55_Vel_96,3921
Note_On_55_Vel_97,3922
Note_On_55_Vel_98,3923
Note_On_55_Vel_99,3924
Note_On_55_Vel_100,3925
Note_On_55_Vel_101,3926
Note_On_55_Vel_102,3927
Note_On_55_Vel_103,3928
Note_On_55_Vel_104,3929
Note_On_55_Vel_105,3930
Note_On_55_Vel_106,3931
Note_On_55_Vel_107,3932
Note_On_55_Vel_108,3933
Note_On_55_Vel_109,3934
Note_On_55_Vel_110,3935
Note_On_55_Vel_111,3936
Note_On_55_Vel_112,3937
Note_On_55_Vel_113,3938
Note_On_55_Vel_114,3939
Note_On_55_Vel_115,3940
Note_On_55_Vel_116,3941
Note_On_55_Vel_117,3942
Note_On_55_Vel_118,3943
Note_On_56_Vel_0,3944
Note_On_56_Vel_3,3945
Note_On_56_Vel_5,3946
Note_On_56_Vel_6,3947
Note_On_56_Vel_7,3948
Note_On_56_Vel_8,3949
Note_On_56_Vel_9,3950
Note_On_56_Vel_10,3951
Note_On_56_Vel_11,3952
Note_On_56_Vel_12,3953
Note_On_56_Vel_13,3954
Note_On_56_Vel_14,3955
Note_On_56_Vel_15,3956
Note_On_56_Vel_16,3957
Note_On_56_Vel_17,3958
Note_On_56_Vel_18,3959
Note_On_56_Vel_19,3960
Note_On_56_Vel_20,3961
Note_On_56_Vel_21,3962
Note_On_56_Vel_22,3963
Note_On_56_Vel_23,3964
Note_On_56_Vel_24,3965
Note_On_56_Vel_25,3966
Note_On_56_Vel_26,3967
Note_On_56_Vel_27,3968
Note_On_56_Vel_28,3969
Note_On_56_Vel_29,3970
Note_On_56_Vel_30,3971
Note_On_56_Vel_31,3972
Note_On_56_Vel_32,3973
Note_On_56_Vel_33,3974
Note_On_56_Vel_34,3975
Note_On_56_Vel_35,3976
Note_On_56_Vel_36,3977
Note_On_56_Vel_37,3978
Note_On_56_Vel_38,3979
Note_On_56_Vel_39,3980
Note_On_56_Vel_40,3981
Note_On_56_Vel_41,3982
Note_On_56_Vel_42,3983
Note_On_56_Vel_43,3984
Note_On_56_Vel_44,3985
Note_On_56_Vel_45,3986
Note_On_56_Vel_46,3987
Note_On_56_Vel_47,3988
Note_On_56_Vel_48,3989
Note_On_56_Vel_49,3990
Note_On_56_Vel_50,3991
Note_On_56_Vel_51,3992
Note_On_56_Vel_52,3993
Note_On_56_Vel_53,3994
Note_On_56_Vel_54,3995
Note_On_56_Vel_55,3996
Note_On_56_Vel_56,3997
Note_On_56_Vel_57,3998
Note_On_56_Vel_58,3999
Note_On_56_Vel_59,4000
Note_On_56_Vel_60,4001
Note_On_56_Vel_61,4002
Note_On_56_Vel_62,4003
Note_On_56_Vel_63,4004
Note_On_56_Vel_64,4005
Note_On_56_Vel_65,4006
Note_On_56_Vel_66,4007
Note_On_56_Vel_67,4008
Note_On_56_Vel_68,4009
Note_On_56_Vel_69,4010
Note_On_56_Vel_70,4011
Note_On_56_Vel_71,4012
Note_On_56_Vel_72,4013
Note_On_56_Vel_73,4014
Note_On_56_Vel_74,4015
Note_On_56_Vel_75,4016
Note_On_56_Vel_76,4017
Note_On_56_Vel_77,4018
Note_On_56_Vel_78,4019
Note_On_56_Vel_79,4020
Note_On_56_Vel_80,4021
Note_On_56_Vel_81,4022
Note_On_56_Vel_82,4023
Note_On_56_Vel_83,4024
Note_On_56_Vel_84,4025
Note_On_56_Vel_85,4026
Note_On_56_Vel_86,4027
Note_On_56_Vel_87,4028
Note_On_56_Vel_88,4029
Note_On_56_Vel_89,4030
Note_On_56_Vel_90,4031
Note_On_56_Vel_91,4032
Note_On_56_Vel_92,4033
Note_On_56_Vel_93,4034
Note_On_56_Vel_94,4035
Note_On_56_Vel_95,4036
Note_On_56_Vel_96,4037
Note_On_56_Vel_97,4038
Note_On_56_Vel_98,4039
Note_On_56_Vel_99,4040
Note_On_56_Vel_100,4041
Note_On_56_Vel_101,4042
Note_On_56_Vel_102,4043
Note_On_56_Vel_103,4044
Note_On_56_Vel_104,4045
Note_On_56_Vel_105,4046
Note_On_56_Vel_106,4047
Note_On_56_Vel_107,4048
Note_On_56_Vel_108,4049
Note_On_56_Vel_109,4050
Note_On_56_Vel_110,4051
Note_On_56_Vel_111,4052
Note_On_56_Vel_112,4053
Note_On_56_Vel_113,4054
Note_On_56_Vel_114,4055
Note_On_56_Vel_115,4056
Note_On_56_Vel_116,4057
Note_On_56_Vel_117,4058
Note_On_56_Vel_118,4059
Note_On_57_Vel_0,4060
Note_On_57_Vel_3,4061
Note_On_57_Vel_5,4062
Note_On_57_Vel_6,4063
Note_On_57_Vel_7,4064
Note_On_57_Vel_8,4065
Note_On_57_Vel_9,4066
Note_On_57_Vel_10,4067
Note_On_57_Vel_11,4068
Note_On_57_Vel_12,4069
Note_On_57_Vel_13,4070
Note_On_57_Vel_14,4071
Note_On_57_Vel_15,4072
Note_On_57_Vel_16,4073
Note_On_57_Vel_17,4074
Note_On_57_Vel_18,4075
Note_On_57_Vel_19,4076
Note_On_57_Vel_20,4077
Note_On_57_Vel_21,4078
Note_On_57_Vel_22,4079
Note_On_57_Vel_23,4080
Note_On_57_Vel_24,4081
Note_On_57_Vel_25,4082
Note_On_57_Vel_26,4083
Note_On_57_Vel_27,4084
Note_On_57_Vel_28,4085
Note_On_57_Vel_29,4086
Note_On_57_Vel_30,4087
Note_On_57_Vel_31,4088
Note_On_57_Vel_32,4089
Note_On_57_Vel_33,4090
Note_On_57_Vel_34,4091
Note_On_57_Vel_35,4092
Note_On_57_Vel_36,4093
Note_On_57_Vel_37,4094
Note_On_57_Vel_38,4095
Note_On_57_Vel_39,4096
Note_On_57_Vel_40,4097
Note_On_57_Vel_41,4098
Note_On_57_Vel_42,4099
Note_On_57_Vel_43,4100
Note_On_57_Vel_44,4101
Note_On_57_Vel_45,4102
Note_On_57_Vel_46,4103
Note_On_57_Vel_47,4104
Note_On_57_Vel_48,4105
Note_On_57_Vel_49,4106
Note_On_57_Vel_50,4107
Note_On_57_Vel_51,4108
Note_On_57_Vel_52,4109
Note_On_57_Vel_53,4110
Note_On_57_Vel_54,4111
Note_On_57_Vel_55,4112
Note_On_57_Vel_56,4113
Note_On_57_Vel_57,4114
Note_On_57_Vel_58,4115
Note_On_57_Vel_59,4116
Note_On_57_Vel_60,4117
Note_On_57_Vel_61,4118
Note_On_57_Vel_62,4119
Note_On_57_Vel_63,4120
Note_On_57_Vel_64,4121
Note_On_57_Vel_65,4122
Note_On_57_Vel_66,4123
Note_On_57_Vel_67,4124
Note_On_57_Vel_68,4125
Note_On_57_Vel_69,4126
Note_On_57_Vel_70,4127
Note_On_57_Vel_71,4128
Note_On_57_Vel_72,4129
Note_On_57_Vel_73,4130
Note_On_57_Vel_74,4131
Note_On_57_Vel_75,4132
Note_On_57_Vel_76,4133
Note_On_57_Vel_77,4134
Note_On_57_Vel_78,4135
Note_On_57_Vel_79,4136
Note_On_57_Vel_80,4137
Note_On_57_Vel_81,4138
Note_On_57_Vel_82,4139
Note_On_57_Vel_83,4140
Note_On_57_Vel_84,4141
Note_On_57_Vel_85,4142
Note_On_57_Vel_86,4143
Note_On_57_Vel_87,4144
Note_On_57_Vel_88,4145
Note_On_57_Vel_89,4146
Note_On_57_Vel_90,4147
Note_On_57_Vel_91,4148
Note_On_57_Vel_92,4149
Note_On_57_Vel_93,4150
Note_On_57_Vel_94,4151
Note_On_57_Vel_95,4152
Note_On_57_Vel_96,4153
Note_On_57_Vel_97,4154
Note_On_57_Vel_98,4155
Note_On_57_Vel_99,4156
Note_On_57_Vel_100,4157
Note_On_57_Vel_101,4158
Note_On_57_Vel_102,4159
Note_On_57_Vel_103,4160
Note_On_57_Vel_104,4161
Note_On_57_Vel_105,4162
Note_On_57_Vel_106,4163
Note_On_57_Vel_107,4164
Note_On_57_Vel_108,4165
Note_On_57_Vel_109,4166
Note_On_57_Vel_110,4167
Note_On_57_Vel_111,4168
Note_On_57_Vel_112,4169
Note_On_57_Vel_113,4170
Note_On_57_Vel_114,4171
Note_On_57_Vel_115,4172
Note_On_57_Vel_116,4173
Note_On_57_Vel_117,4174
Note_On_57_Vel_118,4175
Note_On_58_Vel_0,4176
Note_On_58_Vel_3,4177
Note_On_58_Vel_5,4178
Note_On_58_Vel_6,4179
Note_On_58_Vel_7,4180
Note_On_58_Vel_8,4181
Note_On_58_Vel_9,4182
Note_On_58_Vel_10,4183
Note_On_58_Vel_11,4184
Note_On_58_Vel_12,4185
Note_On_58_Vel_13,4186
Note_On_58_Vel_14,4187
Note_On_58_Vel_15,4188
Note_On_58_Vel_16,4189
Note_On_58_Vel_17,4190
Note_On_58_Vel_18,4191
Note_On_58_Vel_19,4192
Note_On_58_Vel_20,4193
Note_On_58_Vel_21,4194
Note_On_58_Vel_22,4195
Note_On_58_Vel_23,4196
Note_On_58_Vel_24,4197
Note_On_58_Vel_25,4198
Note_On_58_Vel_26,4199
Note_On_58_Vel_27,4200
Note_On_58_Vel_28,4201
Note_On_58_Vel_29,4202
Note_On_58_Vel_30,4203
Note_On_58_Vel_31,4204
Note_On_58_Vel_32,4205
Note_On_58_Vel_33,4206
Note_On_58_Vel_34,4207
Note_On_58_Vel_35,4208
Note_On_58_Vel_36,4209
Note_On_58_Vel_37,4210
Note_On_58_Vel_38,4211
Note_On_58_Vel_39,4212
Note_On_58_Vel_40,4213
Note_On_58_Vel_41,4214
Note_On_58_Vel_42,4215
Note_On_58_Vel_43,4216
Note_On_58_Vel_44,4217
Note_On_58_Vel_45,4218
Note_On_58_Vel_46,4219
Note_On_58_Vel_47,4220
Note_On_58_Vel_48,4221
Note_On_58_Vel_49,4222
Note_On_58_Vel_50,4223
Note_On_58_Vel_51,4224
Note_On_58_Vel_52,4225
Note_On_58_Vel_53,4226
Note_On_58_Vel_54,4227
Note_On_58_Vel_55,4228
Note_On_58_Vel_56,4229
Note_On_58_Vel_57,4230
Note_On_58_Vel_58,4231
Note_On_58_Vel_59,4232
Note_On_58_Vel_60,4233
Note_On_58_Vel_61,4234
Note_On_58_Vel_62,4235
Note_On_58_Vel_63,4236
Note_On_58_Vel_64,4237
Note_On_58_Vel_65,4238
Note_On_58_Vel_66,4239
Note_On_58_Vel_67,4240
Note_On_58_Vel_68,4241
Note_On_58_Vel_69,4242
Note_On_58_Vel_70,4243
Note_On_58_Vel_71,4244
Note_On_58_Vel_72,4245
Note_On_58_Vel_73,4246
Note_On_58_Vel_74,4247
Note_On_58_Vel_75,4248
Note_On_58_Vel_76,4249
Note_On_58_Vel_77,4250
Note_On_58_Vel_78,4251
Note_On_58_Vel_79,4252
Note_On_58_Vel_80,4253
Note_On_58_Vel_81,4254
Note_On_58_Vel_82,4255
Note_On_58_Vel_83,4256
Note_On_58_Vel_84,4257
Note_On_58_Vel_85,4258
Note_On_58_Vel_86,4259
Note_On_58_Vel_87,4260
Note_On_58_Vel_88,4261
Note_On_58_Vel_89,4262
Note_On_58_Vel_90,4263
Note_On_58_Vel_91,4264
Note_On_58_Vel_92,4265
Note_On_58_Vel_93,4266
Note_On_58_Vel_94,4267
Note_On_58_Vel_95,4268
Note_On_58_Vel_96,4269
Note_On_58_Vel_97,4270
Note_On_58_Vel_98,4271
Note_On_58_Vel_99,4272
Note_On_58_Vel_100,4273
Note_On_58_Vel_101,4274
Note_On_58_Vel_102,4275
Note_On_58_Vel_103,4276
Note_On_58_Vel_104,4277
Note_On_58_Vel_105,4278
Note_On_58_Vel_106,4279
Note_On_58_Vel_107,4280
Note_On_58_Vel_108,4281
Note_On_58_Vel_109,4282
Note_On_58_Vel_110,4283
Note_On_58_Vel_111,4284
Note_On_58_Vel_112,4285
Note_On_58_Vel_113,4286
Note_On_58_Vel_114,4287
Note_On_58_Vel_115,4288
Note_On_58_Vel_116,4289
Note_On_58_Vel_117,4290
Note_On_58_Vel_118,4291
Note_On_59_Vel_0,4292
Note_On_59_Vel_3,4293
Note_On_59_Vel_5,4294
Note_On_59_Vel_6,4295
Note_On_59_Vel_7,4296
Note_On_59_Vel_8,4297
Note_On_59_Vel_9,4298
Note_On_59_Vel_10,4299
Note_On_59_Vel_11,4300
Note_On_59_Vel_12,4301
Note_On_59_Vel_13,4302
Note_On_59_Vel_14,4303
Note_On_59_Vel_15,4304
Note_On_59_Vel_16,4305
Note_On_59_Vel_17,4306
Note_On_59_Vel_18,4307
Note_On_59_Vel_19,4308
Note_On_59_Vel_20,4309
Note_On_59_Vel_21,4310
Note_On_59_Vel_22,4311
Note_On_59_Vel_23,4312
Note_On_59_Vel_24,4313
Note_On_59_Vel_25,4314
Note_On_59_Vel_26,4315
Note_On_59_Vel_27,4316
Note_On_59_Vel_28,4317
Note_On_59_Vel_29,4318
Note_On_59_Vel_30,4319
Note_On_59_Vel_31,4320
Note_On_59_Vel_32,4321
Note_On_59_Vel_33,4322
Note_On_59_Vel_34,4323
Note_On_59_Vel_35,4324
Note_On_59_Vel_36,4325
Note_On_59_Vel_37,4326
Note_On_59_Vel_38,4327
Note_On_59_Vel_39,4328
Note_On_59_Vel_40,4329
Note_On_59_Vel_41,4330
Note_On_59_Vel_42,4331
Note_On_59_Vel_43,4332
Note_On_59_Vel_44,4333
Note_On_59_Vel_45,4334
Note_On_59_Vel_46,4335
Note_On_59_Vel_47,4336
Note_On_59_Vel_48,4337
Note_On_59_Vel_49,4338
Note_On_59_Vel_50,4339
Note_On_59_Vel_51,4340
Note_On_59_Vel_52,4341
Note_On_59_Vel_53,4342
Note_On_59_Vel_54,4343
Note_On_59_Vel_55,4344
Note_On_59_Vel_56,4345
Note_On_59_Vel_57,4346
Note_On_59_Vel_58,4347
Note_On_59_Vel_59,4348
Note_On_59_Vel_60,4349
Note_On_59_Vel_61,4350
Note_On_59_Vel_62,4351
Note_On_59_Vel_63,4352
Note_On_59_Vel_64,4353
Note_On_59_Vel_65,4354
Note_On_59_Vel_66,4355
Note_On_59_Vel_67,4356
Note_On_59_Vel_68,4357
Note_On_59_Vel_69,4358
Note_On_59_Vel_70,4359
Note_On_59_Vel_71,4360
Note_On_59_Vel_72,4361
Note_On_59_Vel_73,4362
Note_On_59_Vel_74,4363
Note_On_59_Vel_75,4364
Note_On_59_Vel_76,4365
Note_On_59_Vel_77,4366
Note_On_59_Vel_78,4367
Note_On_59_Vel_79,4368
Note_On_59_Vel_80,4369
Note_On_59_Vel_81,4370
Note_On_59_Vel_82,4371
Note_On_59_Vel_83,4372
Note_On_59_Vel_84,4373
Note_On_59_Vel_85,4374
Note_On_59_Vel_86,4375
Note_On_59_Vel_87,4376
Note_On_59_Vel_88,4377
Note_On_59_Vel_89,4378
Note_On_59_Vel_90,4379
Note_On_59_Vel_91,4380
Note_On_59_Vel_92,4381
Note_On_59_Vel_93,4382
Note_On_59_Vel_94,4383
Note_On_59_Vel_95,4384
Note_On_59_Vel_96,4385
Note_On_59_Vel_97,4386
Note_On_59_Vel_98,4387
Note_On_59_Vel_99,4388
Note_On_59_Vel_100,4389
Note_On_59_Vel_101,4390
Note_On_59_Vel_102,4391
Note_On_59_Vel_103,4392
Note_On_59_Vel_104,4393
Note_On_59_Vel_105,4394
Note_On_59_Vel_106,4395
Note_On_59_Vel_107,4396
Note_On_59_Vel_108,4397
Note_On_59_Vel_109,4398
Note_On_59_Vel_110,4399
Note_On_59_Vel_111,4400
Note_On_59_Vel_112,4401
Note_On_59_Vel_113,4402
Note_On_59_Vel_114,4403
Note_On_59_Vel_115,4404
Note_On_59_Vel_116,4405
Note_On_59_Vel_117,4406
Note_On_59_Vel_118,4407
Note_On_60_Vel_0,4408
Note_On_60_Vel_3,4409
Note_On_60_Vel_5,4410
Note_On_60_Vel_6,4411
Note_On_60_Vel_7,4412
Note_On_60_Vel_8,4413
Note_On_60_Vel_9,4414
Note_On_60_Vel_10,4415
Note_On_60_Vel_11,4416
Note_On_60_Vel_12,4417
Note_On_60_Vel_13,4418
Note_On_60_Vel_14,4419
Note_On_60_Vel_15,4420
Note_On_60_Vel_16,4421
Note_On_60_Vel_17,4422
Note_On_60_Vel_18,4423
Note_On_60_Vel_19,4424
Note_On_60_Vel_20,4425
Note_On_60_Vel_21,4426
Note_On_60_Vel_22,4427
Note_On_60_Vel_23,4428
Note_On_60_Vel_24,4429
Note_On_60_Vel_25,4430
Note_On_60_Vel_26,4431
Note_On_60_Vel_27,4432
Note_On_60_Vel_28,4433
Note_On_60_Vel_29,4434
Note_On_60_Vel_30,4435
Note_On_60_Vel_31,4436
Note_On_60_Vel_32,4437
Note_On_60_Vel_33,4438
Note_On_60_Vel_34,4439
Note_On_60_Vel_35,4440
Note_On_60_Vel_36,4441
Note_On_60_Vel_37,4442
Note_On_60_Vel_38,4443
Note_On_60_Vel_39,4444
Note_On_60_Vel_40,4445
Note_On_60_Vel_41,4446
Note_On_60_Vel_42,4447
Note_On_60_Vel_43,4448
Note_On_60_Vel_44,4449
Note_On_60_Vel_45,4450
Note_On_60_Vel_46,4451
Note_On_60_Vel_47,4452
Note_On_60_Vel_48,4453
Note_On_60_Vel_49,4454
Note_On_60_Vel_50,4455
Note_On_60_Vel_51,4456
Note_On_60_Vel_52,4457
Note_On_60_Vel_53,4458
Note_On_60_Vel_54,4459
Note_On_60_Vel_55,4460
Note_On_60_Vel_56,4461
Note_On_60_Vel_57,4462
Note_On_60_Vel_58,4463
Note_On_60_Vel_59,4464
Note_On_60_Vel_60,4465
Note_On_60_Vel_61,4466
Note_On_60_Vel_62,4467
Note_On_60_Vel_63,4468
Note_On_60_Vel_64,4469
Note_On_60_Vel_65,4470
Note_On_60_Vel_66,4471
Note_On_60_Vel_67,4472
Note_On_60_Vel_68,4473
Note_On_60_Vel_69,4474
Note_On_60_Vel_70,4475
Note_On_60_Vel_71,4476
Note_On_60_Vel_72,4477
Note_On_60_Vel_73,4478
Note_On_60_Vel_74,4479
Note_On_60_Vel_75,4480
Note_On_60_Vel_76,4481
Note_On_60_Vel_77,4482
Note_On_60_Vel_78,4483
Note_On_60_Vel_79,4484
Note_On_60_Vel_80,4485
Note_On_60_Vel_81,4486
Note_On_60_Vel_82,4487
Note_On_60_Vel_83,4488
Note_On_60_Vel_84,4489
Note_On_60_Vel_85,4490
Note_On_60_Vel_86,4491
Note_On_60_Vel_87,4492
Note_On_60_Vel_88,4493
Note_On_60_Vel_89,4494
Note_On_60_Vel_90,4495
Note_On_60_Vel_91,4496
Note_On_60_Vel_92,4497
Note_On_60_Vel_93,4498
Note_On_60_Vel_94,4499
Note_On_60_Vel_95,4500
Note_On_60_Vel_96,4501
Note_On_60_Vel_97,4502
Note_On_60_Vel_98,4503
Note_On_60_Vel_99,4504
Note_On_60_Vel_100,4505
Note_On_60_Vel_101,4506
Note_On_60_Vel_102,4507
Note_On_60_Vel_103,4508
Note_On_60_Vel_104,4509
Note_On_60_Vel_105,4510
Note_On_60_Vel_106,4511
Note_On_60_Vel_107,4512
Note_On_60_Vel_108,4513
Note_On_60_Vel_109,4514
Note_On_60_Vel_110,4515
Note_On_60_Vel_111,4516
Note_On_60_Vel_112,4517
Note_On_60_Vel_113,4518
Note_On_60_Vel_114,4519
Note_On_60_Vel_115,4520
Note_On_60_Vel_116,4521
Note_On_60_Vel_117,4522
Note_On_60_Vel_118,4523
Note_On_61_Vel_0,4524
Note_On_61_Vel_3,4525
Note_On_61_Vel_5,4526
Note_On_61_Vel_6,4527
Note_On_61_Vel_7,4528
Note_On_61_Vel_8,4529
Note_On_61_Vel_9,4530
Note_On_61_Vel_10,4531
Note_On_61_Vel_11,4532
Note_On_61_Vel_12,4533
Note_On_61_Vel_13,4534
Note_On_61_Vel_14,4535
Note_On_61_Vel_15,4536
Note_On_61_Vel_16,4537
Note_On_61_Vel_17,4538
Note_On_61_Vel_18,4539
Note_On_61_Vel_19,4540
Note_On_61_Vel_20,4541
Note_On_61_Vel_21,4542
Note_On_61_Vel_22,4543
Note_On_61_Vel_23,4544
Note_On_61_Vel_24,4545
Note_On_61_Vel_25,4546
Note_On_61_Vel_26,4547
Note_On_61_Vel_27,4548
Note_On_61_Vel_28,4549
Note_On_61_Vel_29,4550
Note_On_61_Vel_30,4551
Note_On_61_Vel_31,4552
Note_On_61_Vel_32,4553
Note_On_61_Vel_33,4554
Note_On_61_Vel_34,4555
Note_On_61_Vel_35,4556
Note_On_61_Vel_36,4557
Note_On_61_Vel_37,4558
Note_On_61_Vel_38,4559
Note_On_61_Vel_39,4560
Note_On_61_Vel_40,4561
Note_On_61_Vel_41,4562
Note_On_61_Vel_42,4563
Note_On_61_Vel_43,4564
Note_On_61_Vel_44,4565
Note_On_61_Vel_45,4566
Note_On_61_Vel_46,4567
Note_On_61_Vel_47,4568
Note_On_61_Vel_48,4569
Note_On_61_Vel_49,4570
Note_On_61_Vel_50,4571
Note_On_61_Vel_51,4572
Note_On_61_Vel_52,4573
Note_On_61_Vel_53,4574
Note_On_61_Vel_54,4575
Note_On_61_Vel_55,4576
Note_On_61_Vel_56,4577
Note_On_61_Vel_57,4578
Note_On_61_Vel_58,4579
Note_On_61_Vel_59,4580
Note_On_61_Vel_60,4581
Note_On_61_Vel_61,4582
Note_On_61_Vel_62,4583
Note_On_61_Vel_63,4584
Note_On_61_Vel_64,4585
Note_On_61_Vel_65,4586
Note_On_61_Vel_66,4587
Note_On_61_Vel_67,4588
Note_On_61_Vel_68,4589
Note_On_61_Vel_69,4590
Note_On_61_Vel_70,4591
Note_On_61_Vel_71,4592
Note_On_61_Vel_72,4593
Note_On_61_Vel_73,4594
Note_On_61_Vel_74,4595
Note_On_61_Vel_75,4596
Note_On_61_Vel_76,4597
Note_On_61_Vel_77,4598
Note_On_61_Vel_78,4599
Note_On_61_Vel_79,4600
Note_On_61_Vel_80,4601
Note_On_61_Vel_81,4602
Note_On_61_Vel_82,4603
Note_On_61_Vel_83,4604
Note_On_61_Vel_84,4605
Note_On_61_Vel_85,4606
Note_On_61_Vel_86,4607
Note_On_61_Vel_87,4608
Note_On_61_Vel_88,4609
Note_On_61_Vel_89,4610
Note_On_61_Vel_90,4611
Note_On_61_Vel_91,4612
Note_On_61_Vel_92,4613
Note_On_61_Vel_93,4614
Note_On_61_Vel_94,4615
Note_On_61_Vel_95,4616
Note_On_61_Vel_96,4617
Note_On_61_Vel_97,4618
Note_On_61_Vel_98,4619
Note_On_61_Vel_99,4620
Note_On_61_Vel_100,4621
Note_On_61_Vel_101,4622
Note_On_61_Vel_102,4623
Note_On_61_Vel_103,4624
Note_On_61_Vel_104,4625
Note_On_61_Vel_105,4626
Note_On_61_Vel_106,4627
Note_On_61_Vel_107,4628
Note_On_61_Vel_108,4629
Note_On_61_Vel_109,4630
Note_On_61_Vel_110,4631
Note_On_61_Vel_111,4632
Note_On_61_Vel_112,4633
Note_On_61_Vel_113,4634
Note_On_61_Vel_114,4635
Note_On_61_Vel_115,4636
Note_On_61_Vel_116,4637
Note_On_61_Vel_117,4638
Note_On_61_Vel_118,4639
Note_On_62_Vel_0,4640
Note_On_62_Vel_3,4641
Note_On_62_Vel_5,4642
Note_On_62_Vel_6,4643
Note_On_62_Vel_7,4644
Note_On_62_Vel_8,4645
Note_On_62_Vel_9,4646
Note_On_62_Vel_10,4647
Note_On_62_Vel_11,4648
Note_On_62_Vel_12,4649
Note_On_62_Vel_13,4650
Note_On_62_Vel_14,4651
Note_On_62_Vel_15,4652
Note_On_62_Vel_16,4653
Note_On_62_Vel_17,4654
Note_On_62_Vel_18,4655
Note_On_62_Vel_19,4656
Note_On_62_Vel_20,4657
Note_On_62_Vel_21,4658
Note_On_62_Vel_22,4659
Note_On_62_Vel_23,4660
Note_On_62_Vel_24,4661
Note_On_62_Vel_25,4662
Note_On_62_Vel_26,4663
Note_On_62_Vel_27,4664
Note_On_62_Vel_28,4665
Note_On_62_Vel_29,4666
Note_On_62_Vel_30,4667
Note_On_62_Vel_31,4668
Note_On_62_Vel_32,4669
Note_On_62_Vel_33,4670
Note_On_62_Vel_34,4671
Note_On_62_Vel_35,4672
Note_On_62_Vel_36,4673
Note_On_62_Vel_37,4674
Note_On_62_Vel_38,4675
Note_On_62_Vel_39,4676
Note_On_62_Vel_40,4677
Note_On_62_Vel_41,4678
Note_On_62_Vel_42,4679
Note_On_62_Vel_43,4680
Note_On_62_Vel_44,4681
Note_On_62_Vel_45,4682
Note_On_62_Vel_46,4683
Note_On_62_Vel_47,4684
Note_On_62_Vel_48,4685
Note_On_62_Vel_49,4686
Note_On_62_Vel_50,4687
Note_On_62_Vel_51,4688
Note_On_62_Vel_52,4689
Note_On_62_Vel_53,4690
Note_On_62_Vel_54,4691
Note_On_62_Vel_55,4692
Note_On_62_Vel_56,4693
Note_On_62_Vel_57,4694
Note_On_62_Vel_58,4695
Note_On_62_Vel_59,4696
Note_On_62_Vel_60,4697
Note_On_62_Vel_61,4698
Note_On_62_Vel_62,4699
Note_On_62_Vel_63,4700
Note_On_62_Vel_64,4701
Note_On_62_Vel_65,4702
Note_On_62_Vel_66,4703
Note_On_62_Vel_67,4704
Note_On_62_Vel_68,4705
Note_On_62_Vel_69,4706
Note_On_62_Vel_70,4707
Note_On_62_Vel_71,4708
Note_On_62_Vel_72,4709
Note_On_62_Vel_73,4710
Note_On_62_Vel_74,4711
Note_On_62_Vel_75,4712
Note_On_62_Vel_76,4713
Note_On_62_Vel_77,4714
Note_On_62_Vel_78,4715
Note_On_62_Vel_79,4716
Note_On_62_Vel_80,4717
Note_On_62_Vel_81,4718
Note_On_62_Vel_82,4719
Note_On_62_Vel_83,4720
Note_On_62_Vel_84,4721
Note_On_62_Vel_85,4722
Note_On_62_Vel_86,4723
Note_On_62_Vel_87,4724
Note_On_62_Vel_88,4725
Note_On_62_Vel_89,4726
Note_On_62_Vel_90,4727
Note_On_62_Vel_91,4728
Note_On_62_Vel_92,4729
Note_On_62_Vel_93,4730
Note_On_62_Vel_94,4731
Note_On_62_Vel_95,4732
Note_On_62_Vel_96,4733
Note_On_62_Vel_97,4734
Note_On_62_Vel_98,4735
Note_On_62_Vel_99,4736
Note_On_62_Vel_100,4737
Note_On_62_Vel_101,4738
Note_On_62_Vel_102,4739
Note_On_62_Vel_103,4740
Note_On_62_Vel_104,4741
Note_On_62_Vel_105,4742
Note_On_62_Vel_106,4743
Note_On_62_Vel_107,4744
Note_On_62_Vel_108,4745
Note_On_62_Vel_109,4746
Note_On_62_Vel_110,4747
Note_On_62_Vel_111,4748
Note_On_62_Vel_112,4749
Note_On_62_Vel_113,4750
Note_On_62_Vel_114,4751
Note_On_62_Vel_115,4752
Note_On_62_Vel_116,4753
Note_On_62_Vel_117,4754
Note_On_62_Vel_118,4755
Note_On_63_Vel_0,4756
Note_On_63_Vel_3,4757
Note_On_63_Vel_5,4758
Note_On_63_Vel_6,4759
Note_On_63_Vel_7,4760
Note_On_63_Vel_8,4761
Note_On_63_Vel_9,4762
Note_On_63_Vel_10,4763
Note_On_63_Vel_11,4764
Note_On_63_Vel_12,4765
Note_On_63_Vel_13,4766
Note_On_63_Vel_14,4767
Note_On_63_Vel_15,4768
Note_On_63_Vel_16,4769
Note_On_63_Vel_17,4770
Note_On_63_Vel_18,4771
Note_On_63_Vel_19,4772
Note_On_63_Vel_20,4773
Note_On_63_Vel_21,4774
Note_On_63_Vel_22,4775
Note_On_63_Vel_23,4776
Note_On_63_Vel_24,4777
Note_On_63_Vel_25,4778
Note_On_63_Vel_26,4779
Note_On_63_Vel_27,4780
Note_On_63_Vel_28,4781
Note_On_63_Vel_29,4782
Note_On_63_Vel_30,4783
Note_On_63_Vel_31,4784
Note_On_63_Vel_32,4785
Note_On_63_Vel_33,4786
Note_On_63_Vel_34,4787
Note_On_63_Vel_35,4788
Note_On_63_Vel_36,4789
Note_On_63_Vel_37,4790
Note_On_63_Vel_38,4791
Note_On_63_Vel_39,4792
Note_On_63_Vel_40,4793
Note_On_63_Vel_41,4794
Note_On_63_Vel_42,4795
Note_On_63_Vel_43,4796
Note_On_63_Vel_44,4797
Note_On_63_Vel_45,4798
Note_On_63_Vel_46,4799
Note_On_63_Vel_47,4800
Note_On_63_Vel_48,4801
Note_On_63_Vel_49,4802
Note_On_63_Vel_50,4803
Note_On_63_Vel_51,4804
Note_On_63_Vel_52,4805
Note_On_63_Vel_53,4806
Note_On_63_Vel_54,4807
Note_On_63_Vel_55,4808
Note_On_63_Vel_56,4809
Note_On_63_Vel_57,4810
Note_On_63_Vel_58,4811
Note_On_63_Vel_59,4812
Note_On_63_Vel_60,4813
Note_On_63_Vel_61,4814
Note_On_63_Vel_62,4815
Note_On_63_Vel_63,4816
Note_On_63_Vel_64,4817
Note_On_63_Vel_65,4818
Note_On_63_Vel_66,4819
Note_On_63_Vel_67,4820
Note_On_63_Vel_68,4821
Note_On_63_Vel_69,4822
Note_On_63_Vel_70,4823
Note_On_63_Vel_71,4824
Note_On_63_Vel_72,4825
Note_On_63_Vel_73,4826
Note_On_63_Vel_74,4827
Note_On_63_Vel_75,4828
Note_On_63_Vel_76,4829
Note_On_63_Vel_77,4830
Note_On_63_Vel_78,4831
Note_On_63_Vel_79,4832
Note_On_63_Vel_80,4833
Note_On_63_Vel_81,4834
Note_On_63_Vel_82,4835
Note_On_63_Vel_83,4836
Note_On_63_Vel_84,4837
Note_On_63_Vel_85,4838
Note_On_63_Vel_86,4839
Note_On_63_Vel_87,4840
Note_On_63_Vel_88,4841
Note_On_63_Vel_89,4842
Note_On_63_Vel_90,4843
Note_On_63_Vel_91,4844
Note_On_63_Vel_92,4845
Note_On_63_Vel_93,4846
Note_On_63_Vel_94,4847
Note_On_63_Vel_95,4848
Note_On_63_Vel_96,4849
Note_On_63_Vel_97,4850
Note_On_63_Vel_98,4851
Note_On_63_Vel_99,4852
Note_On_63_Vel_100,4853
Note_On_63_Vel_101,4854
Note_On_63_Vel_102,4855
Note_On_63_Vel_103,4856
Note_On_63_Vel_104,4857
Note_On_63_Vel_105,4858
Note_On_63_Vel_106,4859
Note_On_63_Vel_107,4860
Note_On_63_Vel_108,4861
Note_On_63_Vel_109,4862
Note_On_63_Vel_110,4863
Note_On_63_Vel_111,4864
Note_On_63_Vel_112,4865
Note_On_63_Vel_113,4866
Note_On_63_Vel_114,4867
Note_On_63_Vel_115,4868
Note_On_63_Vel_116,4869
Note_On_63_Vel_117,4870
Note_On_63_Vel_118,4871
Note_On_64_Vel_0,4872
Note_On_64_Vel_3,4873
Note_On_64_Vel_5,4874
Note_On_64_Vel_6,4875
Note_On_64_Vel_7,4876
Note_On_64_Vel_8,4877
Note_On_64_Vel_9,4878
Note_On_64_Vel_10,4879
Note_On_64_Vel_11,4880
Note_On_64_Vel_12,4881
Note_On_64_Vel_13,4882
Note_On_64_Vel_14,4883
Note_On_64_Vel_15,4884
Note_On_64_Vel_16,4885
Note_On_64_Vel_17,4886
Note_On_64_Vel_18,4887
Note_On_64_Vel_19,4888
Note_On_64_Vel_20,4889
Note_On_64_Vel_21,4890
Note_On_64_Vel_22,4891
Note_On_64_Vel_23,4892
Note_On_64_Vel_24,4893
Note_On_64_Vel_25,4894
Note_On_64_Vel_26,4895
Note_On_64_Vel_27,4896
Note_On_64_Vel_28,4897
Note_On_64_Vel_29,4898
Note_On_64_Vel_30,4899
Note_On_64_Vel_31,4900
Note_On_64_Vel_32,4901
Note_On_64_Vel_33,4902
Note_On_64_Vel_34,4903
Note_On_64_Vel_35,4904
Note_On_64_Vel_36,4905
Note_On_64_Vel_37,4906
Note_On_64_Vel_38,4907
Note_On_64_Vel_39,4908
Note_On_64_Vel_40,4909
Note_On_64_Vel_41,4910
Note_On_64_Vel_42,4911
Note_On_64_Vel_43,4912
Note_On_64_Vel_44,4913
Note_On_64_Vel_45,4914
Note_On_64_Vel_46,4915
Note_On_64_Vel_47,4916
Note_On_64_Vel_48,4917
Note_On_64_Vel_49,4918
Note_On_64_Vel_50,4919
Note_On_64_Vel_51,4920
Note_On_64_Vel_52,4921
Note_On_64_Vel_53,4922
Note_On_64_Vel_54,4923
Note_On_64_Vel_55,4924
Note_On_64_Vel_56,4925
Note_On_64_Vel_57,4926
Note_On_64_Vel_58,4927
Note_On_64_Vel_59,4928
Note_On_64_Vel_60,4929
Note_On_64_Vel_61,4930
Note_On_64_Vel_62,4931
Note_On_64_Vel_63,4932
Note_On_64_Vel_64,4933
Note_On_64_Vel_65,4934
Note_On_64_Vel_66,4935
Note_On_64_Vel_67,4936
Note_On_64_Vel_68,4937
Note_On_64_Vel_69,4938
Note_On_64_Vel_70,4939
Note_On_64_Vel_71,4940
Note_On_64_Vel_72,4941
Note_On_64_Vel_73,4942
Note_On_64_Vel_74,4943
Note_On_64_Vel_75,4944
Note_On_64_Vel_76,4945
Note_On_64_Vel_77,4946
Note_On_64_Vel_78,4947
Note_On_64_Vel_79,4948
Note_On_64_Vel_80,4949
Note_On_64_Vel_81,4950
Note_On_64_Vel_82,4951
Note_On_64_Vel_83,4952
Note_On_64_Vel_84,4953
Note_On_64_Vel_85,4954
Note_On_64_Vel_86,4955
Note_On_64_Vel_87,4956
Note_On_64_Vel_88,4957
Note_On_64_Vel_89,4958
Note_On_64_Vel_90,4959
Note_On_64_Vel_91,4960
Note_On_64_Vel_92,4961
Note_On_64_Vel_93,4962
Note_On_64_Vel_94,4963
Note_On_64_Vel_95,4964
Note_On_64_Vel_96,4965
Note_On_64_Vel_97,4966
Note_On_64_Vel_98,4967
Note_On_64_Vel_99,4968
Note_On_64_Vel_100,4969
Note_On_64_Vel_101,4970
Note_On_64_Vel_102,4971
Note_On_64_Vel_103,4972
Note_On_64_Vel_104,4973
Note_On_64_Vel_105,4974
Note_On_64_Vel_106,4975
Note_On_64_Vel_107,4976
Note_On_64_Vel_108,4977
Note_On_64_Vel_109,4978
Note_On_64_Vel_110,4979
Note_On_64_Vel_111,4980
Note_On_64_Vel_112,4981
Note_On_64_Vel_113,4982
Note_On_64_Vel_114,4983
Note_On_64_Vel_115,4984
Note_On_64_Vel_116,4985
Note_On_64_Vel_117,4986
Note_On_64_Vel_118,4987
Note_On_65_Vel_0,4988
Note_On_65_Vel_3,4989
Note_On_65_Vel_5,4990
Note_On_65_Vel_6,4991
Note_On_65_Vel_7,4992
Note_On_65_Vel_8,4993
Note_On_65_Vel_9,4994
Note_On_65_Vel_10,4995
Note_On_65_Vel_11,4996
Note_On_65_Vel_12,4997
Note_On_65_Vel_13,4998
Note_On_65_Vel_14,4999
Note_On_65_Vel_15,5000
Note_On_65_Vel_16,5001
Note_On_65_Vel_17,5002
Note_On_65_Vel_18,5003
Note_On_65_Vel_19,5004
Note_On_65_Vel_20,5005
Note_On_65_Vel_21,5006
Note_On_65_Vel_22,5007
Note_On_65_Vel_23,5008
Note_On_65_Vel_24,5009
Note_On_65_Vel_25,5010
Note_On_65_Vel_26,5011
Note_On_65_Vel_27,5012
Note_On_65_Vel_28,5013
Note_On_65_Vel_29,5014
Note_On_65_Vel_30,5015
Note_On_65_Vel_31,5016
Note_On_65_Vel_32,5017
Note_On_65_Vel_33,5018
Note_On_65_Vel_34,5019
Note_On_65_Vel_35,5020
Note_On_65_Vel_36,5021
Note_On_65_Vel_37,5022
Note_On_65_Vel_38,5023
Note_On_65_Vel_39,5024
Note_On_65_Vel_40,5025
Note_On_65_Vel_41,5026
Note_On_65_Vel_42,5027
Note_On_65_Vel_43,5028
Note_On_65_Vel_44,5029
Note_On_65_Vel_45,5030
Note_On_65_Vel_46,5031
Note_On_65_Vel_47,5032
Note_On_65_Vel_48,5033
Note_On_65_Vel_49,5034
Note_On_65_Vel_50,5035
Note_On_65_Vel_51,5036
Note_On_65_Vel_52,5037
Note_On_65_Vel_53,5038
Note_On_65_Vel_54,5039
Note_On_65_Vel_55,5040
Note_On_65_Vel_56,5041
Note_On_65_Vel_57,5042
Note_On_65_Vel_58,5043
Note_On_65_Vel_59,5044
Note_On_65_Vel_60,5045
Note_On_65_Vel_61,5046
Note_On_65_Vel_62,5047
Note_On_65_Vel_63,5048
Note_On_65_Vel_64,5049
Note_On_65_Vel_65,5050
Note_On_65_Vel_66,5051
Note_On_65_Vel_67,5052
Note_On_65_Vel_68,5053
Note_On_65_Vel_69,5054
Note_On_65_Vel_70,5055
Note_On_65_Vel_71,5056
Note_On_65_Vel_72,5057
Note_On_65_Vel_73,5058
Note_On_65_Vel_74,5059
Note_On_65_Vel_75,5060
Note_On_65_Vel_76,5061
Note_On_65_Vel_77,5062
Note_On_65_Vel_78,5063
Note_On_65_Vel_79,5064
Note_On_65_Vel_80,5065
Note_On_65_Vel_81,5066
Note_On_65_Vel_82,5067
Note_On_65_Vel_83,5068
Note_On_65_Vel_84,5069
Note_On_65_Vel_85,5070
Note_On_65_Vel_86,5071
Note_On_65_Vel_87,5072
Note_On_65_Vel_88,5073
Note_On_65_Vel_89,5074
Note_On_65_Vel_90,5075
Note_On_65_Vel_91,5076
Note_On_65_Vel_92,5077
Note_On_65_Vel_93,5078
Note_On_65_Vel_94,5079
Note_On_65_Vel_95,5080
Note_On_65_Vel_96,5081
Note_On_65_Vel_97,5082
Note_On_65_Vel_98,5083
Note_On_65_Vel_99,5084
Note_On_65_Vel_100,5085
Note_On_65_Vel_101,5086
Note_On_65_Vel_102,5087
Note_On_65_Vel_103,5088
Note_On_65_Vel_104,5089
Note_On_65_Vel_105,5090
Note_On_65_Vel_106,5091
Note_On_65_Vel_107,5092
Note_On_65_Vel_108,5093
Note_On_65_Vel_109,5094
Note_On_65_Vel_110,5095
Note_On_65_Vel_111,5096
Note_On_65_Vel_112,5097
Note_On_65_Vel_113,5098
Note_On_65_Vel_114,5099
Note_On_65_Vel_115,5100
Note_On_65_Vel_116,5101
Note_On_65_Vel_117,5102
Note_On_65_Vel_118,5103
Note_On_66_Vel_0,5104
Note_On_66_Vel_3,5105
Note_On_66_Vel_5,5106
Note_On_66_Vel_6,5107
Note_On_66_Vel_7,5108
Note_On_66_Vel_8,5109
Note_On_66_Vel_9,5110
Note_On_66_Vel_10,5111
Note_On_66_Vel_11,5112
Note_On_66_Vel_12,5113
Note_On_66_Vel_13,5114
Note_On_66_Vel_14,5115
Note_On_66_Vel_15,5116
Note_On_66_Vel_16,5117
Note_On_66_Vel_17,5118
Note_On_66_Vel_18,5119
Note_On_66_Vel_19,5120
Note_On_66_Vel_20,5121
Note_On_66_Vel_21,5122
Note_On_66_Vel_22,5123
Note_On_66_Vel_23,5124
Note_On_66_Vel_24,5125
Note_On_66_Vel_25,5126
Note_On_66_Vel_26,5127
Note_On_66_Vel_27,5128
Note_On_66_Vel_28,5129
Note_On_66_Vel_29,5130
Note_On_66_Vel_30,5131
Note_On_66_Vel_31,5132
Note_On_66_Vel_32,5133
Note_On_66_Vel_33,5134
Note_On_66_Vel_34,5135
Note_On_66_Vel_35,5136
Note_On_66_Vel_36,5137
Note_On_66_Vel_37,5138
Note_On_66_Vel_38,5139
Note_On_66_Vel_39,5140
Note_On_66_Vel_40,5141
Note_On_66_Vel_41,5142
Note_On_66_Vel_42,5143
Note_On_66_Vel_43,5144
Note_On_66_Vel_44,5145
Note_On_66_Vel_45,5146
Note_On_66_Vel_46,5147
Note_On_66_Vel_47,5148
Note_On_66_Vel_48,5149
Note_On_66_Vel_49,5150
Note_On_66_Vel_50,5151
Note_On_66_Vel_51,5152
Note_On_66_Vel_52,5153
Note_On_66_Vel_53,5154
Note_On_66_Vel_54,5155
Note_On_66_Vel_55,5156
Note_On_66_Vel_56,5157
Note_On_66_Vel_57,5158
Note_On_66_Vel_58,5159
Note_On_66_Vel_59,5160
Note_On_66_Vel_60,5161
Note_On_66_Vel_61,5162
Note_On_66_Vel_62,5163
Note_On_66_Vel_63,5164
Note_On_66_Vel_64,5165
Note_On_66_Vel_65,5166
Note_On_66_Vel_66,5167
Note_On_66_Vel_67,5168
Note_On_66_Vel_68,5169
Note_On_66_Vel_69,5170
Note_On_66_Vel_70,5171
Note_On_66_Vel_71,5172
Note_On_66_Vel_72,5173
Note_On_66_Vel_73,5174
Note_On_66_Vel_74,5175
Note_On_66_Vel_75,5176
Note_On_66_Vel_76,5177
Note_On_66_Vel_77,5178
Note_On_66_Vel_78,5179
Note_On_66_Vel_79,5180
Note_On_66_Vel_80,5181
Note_On_66_Vel_81,5182
Note_On_66_Vel_82,5183
Note_On_66_Vel_83,5184
Note_On_66_Vel_84,5185
Note_On_66_Vel_85,5186
Note_On_66_Vel_86,5187
Note_On_66_Vel_87,5188
Note_On_66_Vel_88,5189
Note_On_66_Vel_89,5190
Note_On_66_Vel_90,5191
Note_On_66_Vel_91,5192
Note_On_66_Vel_92,5193
Note_On_66_Vel_93,5194
Note_On_66_Vel_94,5195
Note_On_66_Vel_95,5196
Note_On_66_Vel_96,5197
Note_On_66_Vel_97,5198
Note_On_66_Vel_98,5199
Note_On_66_Vel_99,5200
Note_On_66_Vel_100,5201
Note_On_66_Vel_101,5202
Note_On_66_Vel_102,5203
Note_On_66_Vel_103,5204
Note_On_66_Vel_104,5205
Note_On_66_Vel_105,5206
Note_On_66_Vel_106,5207
Note_On_66_Vel_107,5208
Note_On_66_Vel_108,5209
Note_On_66_Vel_109,5210
Note_On_66_Vel_110,5211
Note_On_66_Vel_111,5212
Note_On_66_Vel_112,5213
Note_On_66_Vel_113,5214
Note_On_66_Vel_114,5215
Note_On_66_Vel_115,5216
Note_On_66_Vel_116,5217
Note_On_66_Vel_117,5218
Note_On_66_Vel_118,5219
Note_On_67_Vel_0,5220
Note_On_67_Vel_3,5221
Note_On_67_Vel_5,5222
Note_On_67_Vel_6,5223
Note_On_67_Vel_7,5224
Note_On_67_Vel_8,5225
Note_On_67_Vel_9,5226
Note_On_67_Vel_10,5227
Note_On_67_Vel_11,5228
Note_On_67_Vel_12,5229
Note_On_67_Vel_13,5230
Note_On_67_Vel_14,5231
Note_On_67_Vel_15,5232
Note_On_67_Vel_16,5233
Note_On_67_Vel_17,5234
Note_On_67_Vel_18,5235
Note_On_67_Vel_19,5236
Note_On_67_Vel_20,5237
Note_On_67_Vel_21,5238
Note_On_67_Vel_22,5239
Note_On_67_Vel_23,5240
Note_On_67_Vel_24,5241
Note_On_67_Vel_25,5242
Note_On_67_Vel_26,5243
Note_On_67_Vel_27,5244
Note_On_67_Vel_28,5245
Note_On_67_Vel_29,5246
Note_On_67_Vel_30,5247
Note_On_67_Vel_31,5248
Note_On_67_Vel_32,5249
Note_On_67_Vel_33,5250
Note_On_67_Vel_34,5251
Note_On_67_Vel_35,5252
Note_On_67_Vel_36,5253
Note_On_67_Vel_37,5254
Note_On_67_Vel_38,5255
Note_On_67_Vel_39,5256
Note_On_67_Vel_40,5257
Note_On_67_Vel_41,5258
Note_On_67_Vel_42,5259
Note_On_67_Vel_43,5260
Note_On_67_Vel_44,5261
Note_On_67_Vel_45,5262
Note_On_67_Vel_46,5263
Note_On_67_Vel_47,5264
Note_On_67_Vel_48,5265
Note_On_67_Vel_49,5266
Note_On_67_Vel_50,5267
Note_On_67_Vel_51,5268
Note_On_67_Vel_52,5269
Note_On_67_Vel_53,5270
Note_On_67_Vel_54,5271
Note_On_67_Vel_55,5272
Note_On_67_Vel_56,5273
Note_On_67_Vel_57,5274
Note_On_67_Vel_58,5275
Note_On_67_Vel_59,5276
Note_On_67_Vel_60,5277
Note_On_67_Vel_61,5278
Note_On_67_Vel_62,5279
Note_On_67_Vel_63,5280
Note_On_67_Vel_64,5281
Note_On_67_Vel_65,5282
Note_On_67_Vel_66,5283
Note_On_67_Vel_67,5284
Note_On_67_Vel_68,5285
Note_On_67_Vel_69,5286
Note_On_67_Vel_70,5287
Note_On_67_Vel_71,5288
Note_On_67_Vel_72,5289
Note_On_67_Vel_73,5290
Note_On_67_Vel_74,5291
Note_On_67_Vel_75,5292
Note_On_67_Vel_76,5293
Note_On_67_Vel_77,5294
Note_On_67_Vel_78,5295
Note_On_67_Vel_79,5296
Note_On_67_Vel_80,5297
Note_On_67_Vel_81,5298
Note_On_67_Vel_82,5299
Note_On_67_Vel_83,5300
Note_On_67_Vel_84,5301
Note_On_67_Vel_85,5302
Note_On_67_Vel_86,5303
Note_On_67_Vel_87,5304
Note_On_67_Vel_88,5305
Note_On_67_Vel_89,5306
Note_On_67_Vel_90,5307
Note_On_67_Vel_91,5308
Note_On_67_Vel_92,5309
Note_On_67_Vel_93,5310
Note_On_67_Vel_94,5311
Note_On_67_Vel_95,5312
Note_On_67_Vel_96,5313
Note_On_67_Vel_97,5314
Note_On_67_Vel_98,5315
Note_On_67_Vel_99,5316
Note_On_67_Vel_100,5317
Note_On_67_Vel_101,5318
Note_On_67_Vel_102,5319
Note_On_67_Vel_103,5320
Note_On_67_Vel_104,5321
Note_On_67_Vel_105,5322
Note_On_67_Vel_106,5323
Note_On_67_Vel_107,5324
Note_On_67_Vel_108,5325
Note_On_67_Vel_109,5326
Note_On_67_Vel_110,5327
Note_On_67_Vel_111,5328
Note_On_67_Vel_112,5329
Note_On_67_Vel_113,5330
Note_On_67_Vel_114,5331
Note_On_67_Vel_115,5332
Note_On_67_Vel_116,5333
Note_On_67_Vel_117,5334
Note_On_67_Vel_118,5335
Note_On_68_Vel_0,5336
Note_On_68_Vel_3,5337
Note_On_68_Vel_5,5338
Note_On_68_Vel_6,5339
Note_On_68_Vel_7,5340
Note_On_68_Vel_8,5341
Note_On_68_Vel_9,5342
Note_On_68_Vel_10,5343
Note_On_68_Vel_11,5344
Note_On_68_Vel_12,5345
Note_On_68_Vel_13,5346
Note_On_68_Vel_14,5347
Note_On_68_Vel_15,5348
Note_On_68_Vel_16,5349
Note_On_68_Vel_17,5350
Note_On_68_Vel_18,5351
Note_On_68_Vel_19,5352
Note_On_68_Vel_20,5353
Note_On_68_Vel_21,5354
Note_On_68_Vel_22,5355
Note_On_68_Vel_23,5356
Note_On_68_Vel_24,5357
Note_On_68_Vel_25,5358
Note_On_68_Vel_26,5359
Note_On_68_Vel_27,5360
Note_On_68_Vel_28,5361
Note_On_68_Vel_29,5362
Note_On_68_Vel_30,5363
Note_On_68_Vel_31,5364
Note_On_68_Vel_32,5365
Note_On_68_Vel_33,5366
Note_On_68_Vel_34,5367
Note_On_68_Vel_35,5368
Note_On_68_Vel_36,5369
Note_On_68_Vel_37,5370
Note_On_68_Vel_38,5371
Note_On_68_Vel_39,5372
Note_On_68_Vel_40,5373
Note_On_68_Vel_41,5374
Note_On_68_Vel_42,5375
Note_On_68_Vel_43,5376
Note_On_68_Vel_44,5377
Note_On_68_Vel_45,5378
Note_On_68_Vel_46,5379
Note_On_68_Vel_47,5380
Note_On_68_Vel_48,5381
Note_On_68_Vel_49,5382
Note_On_68_Vel_50,5383
Note_On_68_Vel_51,5384
Note_On_68_Vel_52,5385
Note_On_68_Vel_53,5386
Note_On_68_Vel_54,5387
Note_On_68_Vel_55,5388
Note_On_68_Vel_56,5389
Note_On_68_Vel_57,5390
Note_On_68_Vel_58,5391
Note_On_68_Vel_59,5392
Note_On_68_Vel_60,5393
Note_On_68_Vel_61,5394
Note_On_68_Vel_62,5395
Note_On_68_Vel_63,5396
Note_On_68_Vel_64,5397
Note_On_68_Vel_65,5398
Note_On_68_Vel_66,5399
Note_On_68_Vel_67,5400
Note_On_68_Vel_68,5401
Note_On_68_Vel_69,5402
Note_On_68_Vel_70,5403
Note_On_68_Vel_71,5404
Note_On_68_Vel_72,5405
Note_On_68_Vel_73,5406
Note_On_68_Vel_74,5407
Note_On_68_Vel_75,5408
Note_On_68_Vel_76,5409
Note_On_68_Vel_77,5410
Note_On_68_Vel_78,5411
Note_On_68_Vel_79,5412
Note_On_68_Vel_80,5413
Note_On_68_Vel_81,5414
Note_On_68_Vel_82,5415
Note_On_68_Vel_83,5416
Note_On_68_Vel_84,5417
Note_On_68_Vel_85,5418
Note_On_68_Vel_86,5419
Note_On_68_Vel_87,5420
Note_On_68_Vel_88,5421
Note_On_68_Vel_89,5422
Note_On_68_Vel_90,5423
Note_On_68_Vel_91,5424
Note_On_68_Vel_92,5425
Note_On_68_Vel_93,5426
Note_On_68_Vel_94,5427
Note_On_68_Vel_95,5428
Note_On_68_Vel_96,5429
Note_On_68_Vel_97,5430
Note_On_68_Vel_98,5431
Note_On_68_Vel_99,5432
Note_On_68_Vel_100,5433
Note_On_68_Vel_101,5434
Note_On_68_Vel_102,5435
Note_On_68_Vel_103,5436
Note_On_68_Vel_104,5437
Note_On_68_Vel_105,5438
Note_On_68_Vel_106,5439
Note_On_68_Vel_107,5440
Note_On_68_Vel_108,5441
Note_On_68_Vel_109,5442
Note_On_68_Vel_110,5443
Note_On_68_Vel_111,5444
Note_On_68_Vel_112,5445
Note_On_68_Vel_113,5446
Note_On_68_Vel_114,5447
Note_On_68_Vel_115,5448
Note_On_68_Vel_116,5449
Note_On_68_Vel_117,5450
Note_On_68_Vel_118,5451
Note_On_69_Vel_0,5452
Note_On_69_Vel_3,5453
Note_On_69_Vel_5,5454
Note_On_69_Vel_6,5455
Note_On_69_Vel_7,5456
Note_On_69_Vel_8,5457
Note_On_69_Vel_9,5458
Note_On_69_Vel_10,5459
Note_On_69_Vel_11,5460
Note_On_69_Vel_12,5461
Note_On_69_Vel_13,5462
Note_On_69_Vel_14,5463
Note_On_69_Vel_15,5464
Note_On_69_Vel_16,5465
Note_On_69_Vel_17,5466
Note_On_69_Vel_18,5467
Note_On_69_Vel_19,5468
Note_On_69_Vel_20,5469
Note_On_69_Vel_21,5470
Note_On_69_Vel_22,5471
Note_On_69_Vel_23,5472
Note_On_69_Vel_24,5473
Note_On_69_Vel_25,5474
Note_On_69_Vel_26,5475
Note_On_69_Vel_27,5476
Note_On_69_Vel_28,5477
Note_On_69_Vel_29,5478
Note_On_69_Vel_30,5479
Note_On_69_Vel_31,5480
Note_On_69_Vel_32,5481
Note_On_69_Vel_33,5482
Note_On_69_Vel_34,5483
Note_On_69_Vel_35,5484
Note_On_69_Vel_36,5485
Note_On_69_Vel_37,5486
Note_On_69_Vel_38,5487
Note_On_69_Vel_39,5488
Note_On_69_Vel_40,5489
Note_On_69_Vel_41,5490
Note_On_69_Vel_42,5491
Note_On_69_Vel_43,5492
Note_On_69_Vel_44,5493
Note_On_69_Vel_45,5494
Note_On_69_Vel_46,5495
Note_On_69_Vel_47,5496
Note_On_69_Vel_48,5497
Note_On_69_Vel_49,5498
Note_On_69_Vel_50,5499
Note_On_69_Vel_51,5500
Note_On_69_Vel_52,5501
Note_On_69_Vel_53,5502
Note_On_69_Vel_54,5503
Note_On_69_Vel_55,5504
Note_On_69_Vel_56,5505
Note_On_69_Vel_57,5506
Note_On_69_Vel_58,5507
Note_On_69_Vel_59,5508
Note_On_69_Vel_60,5509
Note_On_69_Vel_61,5510
Note_On_69_Vel_62,5511
Note_On_69_Vel_63,5512
Note_On_69_Vel_64,5513
Note_On_69_Vel_65,5514
Note_On_69_Vel_66,5515
Note_On_69_Vel_67,5516
Note_On_69_Vel_68,5517
Note_On_69_Vel_69,5518
Note_On_69_Vel_70,5519
Note_On_69_Vel_71,5520
Note_On_69_Vel_72,5521
Note_On_69_Vel_73,5522
Note_On_69_Vel_74,5523
Note_On_69_Vel_75,5524
Note_On_69_Vel_76,5525
Note_On_69_Vel_77,5526
Note_On_69_Vel_78,5527
Note_On_69_Vel_79,5528
Note_On_69_Vel_80,5529
Note_On_69_Vel_81,5530
Note_On_69_Vel_82,5531
Note_On_69_Vel_83,5532
Note_On_69_Vel_84,5533
Note_On_69_Vel_85,5534
Note_On_69_Vel_86,5535
Note_On_69_Vel_87,5536
Note_On_69_Vel_88,5537
Note_On_69_Vel_89,5538
Note_On_69_Vel_90,5539
Note_On_69_Vel_91,5540
Note_On_69_Vel_92,5541
Note_On_69_Vel_93,5542
Note_On_69_Vel_94,5543
Note_On_69_Vel_95,5544
Note_On_69_Vel_96,5545
Note_On_69_Vel_97,5546
Note_On_69_Vel_98,5547
Note_On_69_Vel_99,5548
Note_On_69_Vel_100,5549
Note_On_69_Vel_101,5550
Note_On_69_Vel_102,5551
Note_On_69_Vel_103,5552
Note_On_69_Vel_104,5553
Note_On_69_Vel_105,5554
Note_On_69_Vel_106,5555
Note_On_69_Vel_107,5556
Note_On_69_Vel_108,5557
Note_On_69_Vel_109,5558
Note_On_69_Vel_110,5559
Note_On_69_Vel_111,5560
Note_On_69_Vel_112,5561
Note_On_69_Vel_113,5562
Note_On_69_Vel_114,5563
Note_On_69_Vel_115,5564
Note_On_69_Vel_116,5565
Note_On_69_Vel_117,5566
Note_On_69_Vel_118,5567
Note_On_70_Vel_0,5568
Note_On_70_Vel_3,5569
Note_On_70_Vel_5,5570
Note_On_70_Vel_6,5571
Note_On_70_Vel_7,5572
Note_On_70_Vel_8,5573
Note_On_70_Vel_9,5574
Note_On_70_Vel_10,5575
Note_On_70_Vel_11,5576
Note_On_70_Vel_12,5577
Note_On_70_Vel_13,5578
Note_On_70_Vel_14,5579
Note_On_70_Vel_15,5580
Note_On_70_Vel_16,5581
Note_On_70_Vel_17,5582
Note_On_70_Vel_18,5583
Note_On_70_Vel_19,5584
Note_On_70_Vel_20,5585
Note_On_70_Vel_21,5586
Note_On_70_Vel_22,5587
Note_On_70_Vel_23,5588
Note_On_70_Vel_24,5589
Note_On_70_Vel_25,5590
Note_On_70_Vel_26,5591
Note_On_70_Vel_27,5592
Note_On_70_Vel_28,5593
Note_On_70_Vel_29,5594
Note_On_70_Vel_30,5595
Note_On_70_Vel_31,5596
Note_On_70_Vel_32,5597
Note_On_70_Vel_33,5598
Note_On_70_Vel_34,5599
Note_On_70_Vel_35,5600
Note_On_70_Vel_36,5601
Note_On_70_Vel_37,5602
Note_On_70_Vel_38,5603
Note_On_70_Vel_39,5604
Note_On_70_Vel_40,5605
Note_On_70_Vel_41,5606
Note_On_70_Vel_42,5607
Note_On_70_Vel_43,5608
Note_On_70_Vel_44,5609
Note_On_70_Vel_45,5610
Note_On_70_Vel_46,5611
Note_On_70_Vel_47,5612
Note_On_70_Vel_48,5613
Note_On_70_Vel_49,5614
Note_On_70_Vel_50,5615
Note_On_70_Vel_51,5616
Note_On_70_Vel_52,5617
Note_On_70_Vel_53,5618
Note_On_70_Vel_54,5619
Note_On_70_Vel_55,5620
Note_On_70_Vel_56,5621
Note_On_70_Vel_57,5622
Note_On_70_Vel_58,5623
Note_On_70_Vel_59,5624
Note_On_70_Vel_60,5625
Note_On_70_Vel_61,5626
Note_On_70_Vel_62,5627
Note_On_70_Vel_63,5628
Note_On_70_Vel_64,5629
Note_On_70_Vel_65,5630
Note_On_70_Vel_66,5631
Note_On_70_Vel_67,5632
Note_On_70_Vel_68,5633
Note_On_70_Vel_69,5634
Note_On_70_Vel_70,5635
Note_On_70_Vel_71,5636
Note_On_70_Vel_72,5637
Note_On_70_Vel_73,5638
Note_On_70_Vel_74,5639
Note_On_70_Vel_75,5640
Note_On_70_Vel_76,5641
Note_On_70_Vel_77,5642
Note_On_70_Vel_78,5643
Note_On_70_Vel_79,5644
Note_On_70_Vel_80,5645
Note_On_70_Vel_81,5646
Note_On_70_Vel_82,5647
Note_On_70_Vel_83,5648
Note_On_70_Vel_84,5649
Note_On_70_Vel_85,5650
Note_On_70_Vel_86,5651
Note_On_70_Vel_87,5652
Note_On_70_Vel_88,5653
Note_On_70_Vel_89,5654
Note_On_70_Vel_90,5655
Note_On_70_Vel_91,5656
Note_On_70_Vel_92,5657
Note_On_70_Vel_93,5658
Note_On_70_Vel_94,5659
Note_On_70_Vel_95,5660
Note_On_70_Vel_96,5661
Note_On_70_Vel_97,5662
Note_On_70_Vel_98,5663
Note_On_70_Vel_99,5664
Note_On_70_Vel_100,5665
Note_On_70_Vel_101,5666
Note_On_70_Vel_102,5667
Note_On_70_Vel_103,5668
Note_On_70_Vel_104,5669
Note_On_70_Vel_105,5670
Note_On_70_Vel_106,5671
Note_On_70_Vel_107,5672
Note_On_70_Vel_108,5673
Note_On_70_Vel_109,5674
Note_On_70_Vel_110,5675
Note_On_70_Vel_111,5676
Note_On_70_Vel_112,5677
Note_On_70_Vel_113,5678
Note_On_70_Vel_114,5679
Note_On_70_Vel_115,5680
Note_On_70_Vel_116,5681
Note_On_70_Vel_117,5682
Note_On_70_Vel_118,5683
Note_On_71_Vel_0,5684
Note_On_71_Vel_3,5685
Note_On_71_Vel_5,5686
Note_On_71_Vel_6,5687
Note_On_71_Vel_7,5688
Note_On_71_Vel_8,5689
Note_On_71_Vel_9,5690
Note_On_71_Vel_10,5691
Note_On_71_Vel_11,5692
Note_On_71_Vel_12,5693
Note_On_71_Vel_13,5694
Note_On_71_Vel_14,5695
Note_On_71_Vel_15,5696
Note_On_71_Vel_16,5697
Note_On_71_Vel_17,5698
Note_On_71_Vel_18,5699
Note_On_71_Vel_19,5700
Note_On_71_Vel_20,5701
Note_On_71_Vel_21,5702
Note_On_71_Vel_22,5703
Note_On_71_Vel_23,5704
Note_On_71_Vel_24,5705
Note_On_71_Vel_25,5706
Note_On_71_Vel_26,5707
Note_On_71_Vel_27,5708
Note_On_71_Vel_28,5709
Note_On_71_Vel_29,5710
Note_On_71_Vel_30,5711
Note_On_71_Vel_31,5712
Note_On_71_Vel_32,5713
Note_On_71_Vel_33,5714
Note_On_71_Vel_34,5715
Note_On_71_Vel_35,5716
Note_On_71_Vel_36,5717
Note_On_71_Vel_37,5718
Note_On_71_Vel_38,5719
Note_On_71_Vel_39,5720
Note_On_71_Vel_40,5721
Note_On_71_Vel_41,5722
Note_On_71_Vel_42,5723
Note_On_71_Vel_43,5724
Note_On_71_Vel_44,5725
Note_On_71_Vel_45,5726
Note_On_71_Vel_46,5727
Note_On_71_Vel_47,5728
Note_On_71_Vel_48,5729
Note_On_71_Vel_49,5730
Note_On_71_Vel_50,5731
Note_On_71_Vel_51,5732
Note_On_71_Vel_52,5733
Note_On_71_Vel_53,5734
Note_On_71_Vel_54,5735
Note_On_71_Vel_55,5736
Note_On_71_Vel_56,5737
Note_On_71_Vel_57,5738
Note_On_71_Vel_58,5739
Note_On_71_Vel_59,5740
Note_On_71_Vel_60,5741
Note_On_71_Vel_61,5742
Note_On_71_Vel_62,5743
Note_On_71_Vel_63,5744
Note_On_71_Vel_64,5745
Note_On_71_Vel_65,5746
Note_On_71_Vel_66,5747
Note_On_71_Vel_67,5748
Note_On_71_Vel_68,5749
Note_On_71_Vel_69,5750
Note_On_71_Vel_70,5751
Note_On_71_Vel_71,5752
Note_On_71_Vel_72,5753
Note_On_71_Vel_73,5754
Note_On_71_Vel_74,5755
Note_On_71_Vel_75,5756
Note_On_71_Vel_76,5757
Note_On_71_Vel_77,5758
Note_On_71_Vel_78,5759
Note_On_71_Vel_79,5760
Note_On_71_Vel_80,5761
Note_On_71_Vel_81,5762
Note_On_71_Vel_82,5763
Note_On_71_Vel_83,5764
Note_On_71_Vel_84,5765
Note_On_71_Vel_85,5766
Note_On_71_Vel_86,5767
Note_On_71_Vel_87,5768
Note_On_71_Vel_88,5769
Note_On_71_Vel_89,5770
Note_On_71_Vel_90,5771
Note_On_71_Vel_91,5772
Note_On_71_Vel_92,5773
Note_On_71_Vel_93,5774
Note_On_71_Vel_94,5775
Note_On_71_Vel_95,5776
Note_On_71_Vel_96,5777
Note_On_71_Vel_97,5778
Note_On_71_Vel_98,5779
Note_On_71_Vel_99,5780
Note_On_71_Vel_100,5781
Note_On_71_Vel_101,5782
Note_On_71_Vel_102,5783
Note_On_71_Vel_103,5784
Note_On_71_Vel_104,5785
Note_On_71_Vel_105,5786
Note_On_71_Vel_106,5787
Note_On_71_Vel_107,5788
Note_On_71_Vel_108,5789
Note_On_71_Vel_109,5790
Note_On_71_Vel_110,5791
Note_On_71_Vel_111,5792
Note_On_71_Vel_112,5793
Note_On_71_Vel_113,5794
Note_On_71_Vel_114,5795
Note_On_71_Vel_115,5796
Note_On_71_Vel_116,5797
Note_On_71_Vel_117,5798
Note_On_71_Vel_118,5799
Note_On_72_Vel_0,5800
Note_On_72_Vel_3,5801
Note_On_72_Vel_5,5802
Note_On_72_Vel_6,5803
Note_On_72_Vel_7,5804
Note_On_72_Vel_8,5805
Note_On_72_Vel_9,5806
Note_On_72_Vel_10,5807
Note_On_72_Vel_11,5808
Note_On_72_Vel_12,5809
Note_On_72_Vel_13,5810
Note_On_72_Vel_14,5811
Note_On_72_Vel_15,5812
Note_On_72_Vel_16,5813
Note_On_72_Vel_17,5814
Note_On_72_Vel_18,5815
Note_On_72_Vel_19,5816
Note_On_72_Vel_20,5817
Note_On_72_Vel_21,5818
Note_On_72_Vel_22,5819
Note_On_72_Vel_23,5820
Note_On_72_Vel_24,5821
Note_On_72_Vel_25,5822
Note_On_72_Vel_26,5823
Note_On_72_Vel_27,5824
Note_On_72_Vel_28,5825
Note_On_72_Vel_29,5826
Note_On_72_Vel_30,5827
Note_On_72_Vel_31,5828
Note_On_72_Vel_32,5829
Note_On_72_Vel_33,5830
Note_On_72_Vel_34,5831
Note_On_72_Vel_35,5832
Note_On_72_Vel_36,5833
Note_On_72_Vel_37,5834
Note_On_72_Vel_38,5835
Note_On_72_Vel_39,5836
Note_On_72_Vel_40,5837
Note_On_72_Vel_41,5838
Note_On_72_Vel_42,5839
Note_On_72_Vel_43,5840
Note_On_72_Vel_44,5841
Note_On_72_Vel_45,5842
Note_On_72_Vel_46,5843
Note_On_72_Vel_47,5844
Note_On_72_Vel_48,5845
Note_On_72_Vel_49,5846
Note_On_72_Vel_50,5847
Note_On_72_Vel_51,5848
Note_On_72_Vel_52,5849
Note_On_72_Vel_53,5850
Note_On_72_Vel_54,5851
Note_On_72_Vel_55,5852
Note_On_72_Vel_56,5853
Note_On_72_Vel_57,5854
Note_On_72_Vel_58,5855
Note_On_72_Vel_59,5856
Note_On_72_Vel_60,5857
Note_On_72_Vel_61,5858
Note_On_72_Vel_62,5859
Note_On_72_Vel_63,5860
Note_On_72_Vel_64,5861
Note_On_72_Vel_65,5862
Note_On_72_Vel_66,5863
Note_On_72_Vel_67,5864
Note_On_72_Vel_68,5865
Note_On_72_Vel_69,5866
Note_On_72_Vel_70,5867
Note_On_72_Vel_71,5868
Note_On_72_Vel_72,5869
Note_On_72_Vel_73,5870
Note_On_72_Vel_74,5871
Note_On_72_Vel_75,5872
Note_On_72_Vel_76,5873
Note_On_72_Vel_77,5874
Note_On_72_Vel_78,5875
Note_On_72_Vel_79,5876
Note_On_72_Vel_80,5877
Note_On_72_Vel_81,5878
Note_On_72_Vel_82,5879
Note_On_72_Vel_83,5880
Note_On_72_Vel_84,5881
Note_On_72_Vel_85,5882
Note_On_72_Vel_86,5883
Note_On_72_Vel_87,5884
Note_On_72_Vel_88,5885
Note_On_72_Vel_89,5886
Note_On_72_Vel_90,5887
Note_On_72_Vel_91,5888
Note_On_72_Vel_92,5889
Note_On_72_Vel_93,5890
Note_On_72_Vel_94,5891
Note_On_72_Vel_95,5892
Note_On_72_Vel_96,5893
Note_On_72_Vel_97,5894
Note_On_72_Vel_98,5895
Note_On_72_Vel_99,5896
Note_On_72_Vel_100,5897
Note_On_72_Vel_101,5898
Note_On_72_Vel_102,5899
Note_On_72_Vel_103,5900
Note_On_72_Vel_104,5901
Note_On_72_Vel_105,5902
Note_On_72_Vel_106,5903
Note_On_72_Vel_107,5904
Note_On_72_Vel_108,5905
Note_On_72_Vel_109,5906
Note_On_72_Vel_110,5907
Note_On_72_Vel_111,5908
Note_On_72_Vel_112,5909
Note_On_72_Vel_113,5910
Note_On_72_Vel_114,5911
Note_On_72_Vel_115,5912
Note_On_72_Vel_116,5913
Note_On_72_Vel_117,5914
Note_On_72_Vel_118,5915
Note_On_73_Vel_0,5916
Note_On_73_Vel_3,5917
Note_On_73_Vel_5,5918
Note_On_73_Vel_6,5919
Note_On_73_Vel_7,5920
Note_On_73_Vel_8,5921
Note_On_73_Vel_9,5922
Note_On_73_Vel_10,5923
Note_On_73_Vel_11,5924
Note_On_73_Vel_12,5925
Note_On_73_Vel_13,5926
Note_On_73_Vel_14,5927
Note_On_73_Vel_15,5928
Note_On_73_Vel_16,5929
Note_On_73_Vel_17,5930
Note_On_73_Vel_18,5931
Note_On_73_Vel_19,5932
Note_On_73_Vel_20,5933
Note_On_73_Vel_21,5934
Note_On_73_Vel_22,5935
Note_On_73_Vel_23,5936
Note_On_73_Vel_24,5937
Note_On_73_Vel_25,5938
Note_On_73_Vel_26,5939
Note_On_73_Vel_27,5940
Note_On_73_Vel_28,5941
Note_On_73_Vel_29,5942
Note_On_73_Vel_30,5943
Note_On_73_Vel_31,5944
Note_On_73_Vel_32,5945
Note_On_73_Vel_33,5946
Note_On_73_Vel_34,5947
Note_On_73_Vel_35,5948
Note_On_73_Vel_36,5949
Note_On_73_Vel_37,5950
Note_On_73_Vel_38,5951
Note_On_73_Vel_39,5952
Note_On_73_Vel_40,5953
Note_On_73_Vel_41,5954
Note_On_73_Vel_42,5955
Note_On_73_Vel_43,5956
Note_On_73_Vel_44,5957
Note_On_73_Vel_45,5958
Note_On_73_Vel_46,5959
Note_On_73_Vel_47,5960
Note_On_73_Vel_48,5961
Note_On_73_Vel_49,5962
Note_On_73_Vel_50,5963
Note_On_73_Vel_51,5964
Note_On_73_Vel_52,5965
Note_On_73_Vel_53,5966
Note_On_73_Vel_54,5967
Note_On_73_Vel_55,5968
Note_On_73_Vel_56,5969
Note_On_73_Vel_57,5970
Note_On_73_Vel_58,5971
Note_On_73_Vel_59,5972
Note_On_73_Vel_60,5973
Note_On_73_Vel_61,5974
Note_On_73_Vel_62,5975
Note_On_73_Vel_63,5976
Note_On_73_Vel_64,5977
Note_On_73_Vel_65,5978
Note_On_73_Vel_66,5979
Note_On_73_Vel_67,5980
Note_On_73_Vel_68,5981
Note_On_73_Vel_69,5982
Note_On_73_Vel_70,5983
Note_On_73_Vel_71,5984
Note_On_73_Vel_72,5985
Note_On_73_Vel_73,5986
Note_On_73_Vel_74,5987
Note_On_73_Vel_75,5988
Note_On_73_Vel_76,5989
Note_On_73_Vel_77,5990
Note_On_73_Vel_78,5991
Note_On_73_Vel_79,5992
Note_On_73_Vel_80,5993
Note_On_73_Vel_81,5994
Note_On_73_Vel_82,5995
Note_On_73_Vel_83,5996
Note_On_73_Vel_84,5997
Note_On_73_Vel_85,5998
Note_On_73_Vel_86,5999
Note_On_73_Vel_87,6000
Note_On_73_Vel_88,6001
Note_On_73_Vel_89,6002
Note_On_73_Vel_90,6003
Note_On_73_Vel_91,6004
Note_On_73_Vel_92,6005
Note_On_73_Vel_93,6006
Note_On_73_Vel_94,6007
Note_On_73_Vel_95,6008
Note_On_73_Vel_96,6009
Note_On_73_Vel_97,6010
Note_On_73_Vel_98,6011
Note_On_73_Vel_99,6012
Note_On_73_Vel_100,6013
Note_On_73_Vel_101,6014
Note_On_73_Vel_102,6015
Note_On_73_Vel_103,6016
Note_On_73_Vel_104,6017
Note_On_73_Vel_105,6018
Note_On_73_Vel_106,6019
Note_On_73_Vel_107,6020
Note_On_73_Vel_108,6021
Note_On_73_Vel_109,6022
Note_On_73_Vel_110,6023
Note_On_73_Vel_111,6024
Note_On_73_Vel_112,6025
Note_On_73_Vel_113,6026
Note_On_73_Vel_114,6027
Note_On_73_Vel_115,6028
Note_On_73_Vel_116,6029
Note_On_73_Vel_117,6030
Note_On_73_Vel_118,6031
Note_On_74_Vel_0,6032
Note_On_74_Vel_3,6033
Note_On_74_Vel_5,6034
Note_On_74_Vel_6,6035
Note_On_74_Vel_7,6036
Note_On_74_Vel_8,6037
Note_On_74_Vel_9,6038
Note_On_74_Vel_10,6039
Note_On_74_Vel_11,6040
Note_On_74_Vel_12,6041
Note_On_74_Vel_13,6042
Note_On_74_Vel_14,6043
Note_On_74_Vel_15,6044
Note_On_74_Vel_16,6045
Note_On_74_Vel_17,6046
Note_On_74_Vel_18,6047
Note_On_74_Vel_19,6048
Note_On_74_Vel_20,6049
Note_On_74_Vel_21,6050
Note_On_74_Vel_22,6051
Note_On_74_Vel_23,6052
Note_On_74_Vel_24,6053
Note_On_74_Vel_25,6054
Note_On_74_Vel_26,6055
Note_On_74_Vel_27,6056
Note_On_74_Vel_28,6057
Note_On_74_Vel_29,6058
Note_On_74_Vel_30,6059
Note_On_74_Vel_31,6060
Note_On_74_Vel_32,6061
Note_On_74_Vel_33,6062
Note_On_74_Vel_34,6063
Note_On_74_Vel_35,6064
Note_On_74_Vel_36,6065
Note_On_74_Vel_37,6066
Note_On_74_Vel_38,6067
Note_On_74_Vel_39,6068
Note_On_74_Vel_40,6069
Note_On_74_Vel_41,6070
Note_On_74_Vel_42,6071
Note_On_74_Vel_43,6072
Note_On_74_Vel_44,6073
Note_On_74_Vel_45,6074
Note_On_74_Vel_46,6075
Note_On_74_Vel_47,6076
Note_On_74_Vel_48,6077
Note_On_74_Vel_49,6078
Note_On_74_Vel_50,6079
Note_On_74_Vel_51,6080
Note_On_74_Vel_52,6081
Note_On_74_Vel_53,6082
Note_On_74_Vel_54,6083
Note_On_74_Vel_55,6084
Note_On_74_Vel_56,6085
Note_On_74_Vel_57,6086
Note_On_74_Vel_58,6087
Note_On_74_Vel_59,6088
Note_On_74_Vel_60,6089
Note_On_74_Vel_61,6090
Note_On_74_Vel_62,6091
Note_On_74_Vel_63,6092
Note_On_74_Vel_64,6093
Note_On_74_Vel_65,6094
Note_On_74_Vel_66,6095
Note_On_74_Vel_67,6096
Note_On_74_Vel_68,6097
Note_On_74_Vel_69,6098
Note_On_74_Vel_70,6099
Note_On_74_Vel_71,6100
Note_On_74_Vel_72,6101
Note_On_74_Vel_73,6102
Note_On_74_Vel_74,6103
Note_On_74_Vel_75,6104
Note_On_74_Vel_76,6105
Note_On_74_Vel_77,6106
Note_On_74_Vel_78,6107
Note_On_74_Vel_79,6108
Note_On_74_Vel_80,6109
Note_On_74_Vel_81,6110
Note_On_74_Vel_82,6111
Note_On_74_Vel_83,6112
Note_On_74_Vel_84,6113
Note_On_74_Vel_85,6114
Note_On_74_Vel_86,6115
Note_On_74_Vel_87,6116
Note_On_74_Vel_88,6117
Note_On_74_Vel_89,6118
Note_On_74_Vel_90,6119
Note_On_74_Vel_91,6120
Note_On_74_Vel_92,6121
Note_On_74_Vel_93,6122
Note_On_74_Vel_94,6123
Note_On_74_Vel_95,6124
Note_On_74_Vel_96,6125
Note_On_74_Vel_97,6126
Note_On_74_Vel_98,6127
Note_On_74_Vel_99,6128
Note_On_74_Vel_100,6129
Note_On_74_Vel_101,6130
Note_On_74_Vel_102,6131
Note_On_74_Vel_103,6132
Note_On_74_Vel_104,6133
Note_On_74_Vel_105,6134
Note_On_74_Vel_106,6135
Note_On_74_Vel_107,6136
Note_On_74_Vel_108,6137
Note_On_74_Vel_109,6138
Note_On_74_Vel_110,6139
Note_On_74_Vel_111,6140
Note_On_74_Vel_112,6141
Note_On_74_Vel_113,6142
Note_On_74_Vel_114,6143
Note_On_74_Vel_115,6144
Note_On_74_Vel_116,6145
Note_On_74_Vel_117,6146
Note_On_74_Vel_118,6147
Note_On_75_Vel_0,6148
Note_On_75_Vel_3,6149
Note_On_75_Vel_5,6150
Note_On_75_Vel_6,6151
Note_On_75_Vel_7,6152
Note_On_75_Vel_8,6153
Note_On_75_Vel_9,6154
Note_On_75_Vel_10,6155
Note_On_75_Vel_11,6156
Note_On_75_Vel_12,6157
Note_On_75_Vel_13,6158
Note_On_75_Vel_14,6159
Note_On_75_Vel_15,6160
Note_On_75_Vel_16,6161
Note_On_75_Vel_17,6162
Note_On_75_Vel_18,6163
Note_On_75_Vel_19,6164
Note_On_75_Vel_20,6165
Note_On_75_Vel_21,6166
Note_On_75_Vel_22,6167
Note_On_75_Vel_23,6168
Note_On_75_Vel_24,6169
Note_On_75_Vel_25,6170
Note_On_75_Vel_26,6171
Note_On_75_Vel_27,6172
Note_On_75_Vel_28,6173
Note_On_75_Vel_29,6174
Note_On_75_Vel_30,6175
Note_On_75_Vel_31,6176
Note_On_75_Vel_32,6177
Note_On_75_Vel_33,6178
Note_On_75_Vel_34,6179
Note_On_75_Vel_35,6180
Note_On_75_Vel_36,6181
Note_On_75_Vel_37,6182
Note_On_75_Vel_38,6183
Note_On_75_Vel_39,6184
Note_On_75_Vel_40,6185
Note_On_75_Vel_41,6186
Note_On_75_Vel_42,6187
Note_On_75_Vel_43,6188
Note_On_75_Vel_44,6189
Note_On_75_Vel_45,6190
Note_On_75_Vel_46,6191
Note_On_75_Vel_47,6192
Note_On_75_Vel_48,6193
Note_On_75_Vel_49,6194
Note_On_75_Vel_50,6195
Note_On_75_Vel_51,6196
Note_On_75_Vel_52,6197
Note_On_75_Vel_53,6198
Note_On_75_Vel_54,6199
Note_On_75_Vel_55,6200
Note_On_75_Vel_56,6201
Note_On_75_Vel_57,6202
Note_On_75_Vel_58,6203
Note_On_75_Vel_59,6204
Note_On_75_Vel_60,6205
Note_On_75_Vel_61,6206
Note_On_75_Vel_62,6207
Note_On_75_Vel_63,6208
Note_On_75_Vel_64,6209
Note_On_75_Vel_65,6210
Note_On_75_Vel_66,6211
Note_On_75_Vel_67,6212
Note_On_75_Vel_68,6213
Note_On_75_Vel_69,6214
Note_On_75_Vel_70,6215
Note_On_75_Vel_71,6216
Note_On_75_Vel_72,6217
Note_On_75_Vel_73,6218
Note_On_75_Vel_74,6219
Note_On_75_Vel_75,6220
Note_On_75_Vel_76,6221
Note_On_75_Vel_77,6222
Note_On_75_Vel_78,6223
Note_On_75_Vel_79,6224
Note_On_75_Vel_80,6225
Note_On_75_Vel_81,6226
Note_On_75_Vel_82,6227
Note_On_75_Vel_83,6228
Note_On_75_Vel_84,6229
Note_On_75_Vel_85,6230
Note_On_75_Vel_86,6231
Note_On_75_Vel_87,6232
Note_On_75_Vel_88,6233
Note_On_75_Vel_89,6234
Note_On_75_Vel_90,6235
Note_On_75_Vel_91,6236
Note_On_75_Vel_92,6237
Note_On_75_Vel_93,6238
Note_On_75_Vel_94,6239
Note_On_75_Vel_95,6240
Note_On_75_Vel_96,6241
Note_On_75_Vel_97,6242
Note_On_75_Vel_98,6243
Note_On_75_Vel_99,6244
Note_On_75_Vel_100,6245
Note_On_75_Vel_101,6246
Note_On_75_Vel_102,6247
Note_On_75_Vel_103,6248
Note_On_75_Vel_104,6249
Note_On_75_Vel_105,6250
Note_On_75_Vel_106,6251
Note_On_75_Vel_107,6252
Note_On_75_Vel_108,6253
Note_On_75_Vel_109,6254
Note_On_75_Vel_110,6255
Note_On_75_Vel_111,6256
Note_On_75_Vel_112,6257
Note_On_75_Vel_113,6258
Note_On_75_Vel_114,6259
Note_On_75_Vel_115,6260
Note_On_75_Vel_116,6261
Note_On_75_Vel_117,6262
Note_On_75_Vel_118,6263
Note_On_76_Vel_0,6264
Note_On_76_Vel_3,6265
Note_On_76_Vel_5,6266
Note_On_76_Vel_6,6267
Note_On_76_Vel_7,6268
Note_On_76_Vel_8,6269
Note_On_76_Vel_9,6270
Note_On_76_Vel_10,6271
Note_On_76_Vel_11,6272
Note_On_76_Vel_12,6273
Note_On_76_Vel_13,6274
Note_On_76_Vel_14,6275
Note_On_76_Vel_15,6276
Note_On_76_Vel_16,6277
Note_On_76_Vel_17,6278
Note_On_76_Vel_18,6279
Note_On_76_Vel_19,6280
Note_On_76_Vel_20,6281
Note_On_76_Vel_21,6282
Note_On_76_Vel_22,6283
Note_On_76_Vel_23,6284
Note_On_76_Vel_24,6285
Note_On_76_Vel_25,6286
Note_On_76_Vel_26,6287
Note_On_76_Vel_27,6288
Note_On_76_Vel_28,6289
Note_On_76_Vel_29,6290
Note_On_76_Vel_30,6291
Note_On_76_Vel_31,6292
Note_On_76_Vel_32,6293
Note_On_76_Vel_33,6294
Note_On_76_Vel_34,6295
Note_On_76_Vel_35,6296
Note_On_76_Vel_36,6297
Note_On_76_Vel_37,6298
Note_On_76_Vel_38,6299
Note_On_76_Vel_39,6300
Note_On_76_Vel_40,6301
Note_On_76_Vel_41,6302
Note_On_76_Vel_42,6303
Note_On_76_Vel_43,6304
Note_On_76_Vel_44,6305
Note_On_76_Vel_45,6306
Note_On_76_Vel_46,6307
Note_On_76_Vel_47,6308
Note_On_76_Vel_48,6309
Note_On_76_Vel_49,6310
Note_On_76_Vel_50,6311
Note_On_76_Vel_51,6312
Note_On_76_Vel_52,6313
Note_On_76_Vel_53,6314
Note_On_76_Vel_54,6315
Note_On_76_Vel_55,6316
Note_On_76_Vel_56,6317
Note_On_76_Vel_57,6318
Note_On_76_Vel_58,6319
Note_On_76_Vel_59,6320
Note_On_76_Vel_60,6321
Note_On_76_Vel_61,6322
Note_On_76_Vel_62,6323
Note_On_76_Vel_63,6324
Note_On_76_Vel_64,6325
Note_On_76_Vel_65,6326
Note_On_76_Vel_66,6327
Note_On_76_Vel_67,6328
Note_On_76_Vel_68,6329
Note_On_76_Vel_69,6330
Note_On_76_Vel_70,6331
Note_On_76_Vel_71,6332
Note_On_76_Vel_72,6333
Note_On_76_Vel_73,6334
Note_On_76_Vel_74,6335
Note_On_76_Vel_75,6336
Note_On_76_Vel_76,6337
Note_On_76_Vel_77,6338
Note_On_76_Vel_78,6339
Note_On_76_Vel_79,6340
Note_On_76_Vel_80,6341
Note_On_76_Vel_81,6342
Note_On_76_Vel_82,6343
Note_On_76_Vel_83,6344
Note_On_76_Vel_84,6345
Note_On_76_Vel_85,6346
Note_On_76_Vel_86,6347
Note_On_76_Vel_87,6348
Note_On_76_Vel_88,6349
Note_On_76_Vel_89,6350
Note_On_76_Vel_90,6351
Note_On_76_Vel_91,6352
Note_On_76_Vel_92,6353
Note_On_76_Vel_93,6354
Note_On_76_Vel_94,6355
Note_On_76_Vel_95,6356
Note_On_76_Vel_96,6357
Note_On_76_Vel_97,6358
Note_On_76_Vel_98,6359
Note_On_76_Vel_99,6360
Note_On_76_Vel_100,6361
Note_On_76_Vel_101,6362
Note_On_76_Vel_102,6363
Note_On_76_Vel_103,6364
Note_On_76_Vel_104,6365
Note_On_76_Vel_105,6366
Note_On_76_Vel_106,6367
Note_On_76_Vel_107,6368
Note_On_76_Vel_108,6369
Note_On_76_Vel_109,6370
Note_On_76_Vel_110,6371
Note_On_76_Vel_111,6372
Note_On_76_Vel_112,6373
Note_On_76_Vel_113,6374
Note_On_76_Vel_114,6375
Note_On_76_Vel_115,6376
Note_On_76_Vel_116,6377
Note_On_76_Vel_117,6378
Note_On_76_Vel_118,6379
Note_On_77_Vel_0,6380
Note_On_77_Vel_3,6381
Note_On_77_Vel_5,6382
Note_On_77_Vel_6,6383
Note_On_77_Vel_7,6384
Note_On_77_Vel_8,6385
Note_On_77_Vel_9,6386
Note_On_77_Vel_10,6387
Note_On_77_Vel_11,6388
Note_On_77_Vel_12,6389
Note_On_77_Vel_13,6390
Note_On_77_Vel_14,6391
Note_On_77_Vel_15,6392
Note_On_77_Vel_16,6393
Note_On_77_Vel_17,6394
Note_On_77_Vel_18,6395
Note_On_77_Vel_19,6396
Note_On_77_Vel_20,6397
Note_On_77_Vel_21,6398
Note_On_77_Vel_22,6399
Note_On_77_Vel_23,6400
Note_On_77_Vel_24,6401
Note_On_77_Vel_25,6402
Note_On_77_Vel_26,6403
Note_On_77_Vel_27,6404
Note_On_77_Vel_28,6405
Note_On_77_Vel_29,6406
Note_On_77_Vel_30,6407
Note_On_77_Vel_31,6408
Note_On_77_Vel_32,6409
Note_On_77_Vel_33,6410
Note_On_77_Vel_34,6411
Note_On_77_Vel_35,6412
Note_On_77_Vel_36,6413
Note_On_77_Vel_37,6414
Note_On_77_Vel_38,6415
Note_On_77_Vel_39,6416
Note_On_77_Vel_40,6417
Note_On_77_Vel_41,6418
Note_On_77_Vel_42,6419
Note_On_77_Vel_43,6420
Note_On_77_Vel_44,6421
Note_On_77_Vel_45,6422
Note_On_77_Vel_46,6423
Note_On_77_Vel_47,6424
Note_On_77_Vel_48,6425
Note_On_77_Vel_49,6426
Note_On_77_Vel_50,6427
Note_On_77_Vel_51,6428
Note_On_77_Vel_52,6429
Note_On_77_Vel_53,6430
Note_On_77_Vel_54,6431
Note_On_77_Vel_55,6432
Note_On_77_Vel_56,6433
Note_On_77_Vel_57,6434
Note_On_77_Vel_58,6435
Note_On_77_Vel_59,6436
Note_On_77_Vel_60,6437
Note_On_77_Vel_61,6438
Note_On_77_Vel_62,6439
Note_On_77_Vel_63,6440
Note_On_77_Vel_64,6441
Note_On_77_Vel_65,6442
Note_On_77_Vel_66,6443
Note_On_77_Vel_67,6444
Note_On_77_Vel_68,6445
Note_On_77_Vel_69,6446
Note_On_77_Vel_70,6447
Note_On_77_Vel_71,6448
Note_On_77_Vel_72,6449
Note_On_77_Vel_73,6450
Note_On_77_Vel_74,6451
Note_On_77_Vel_75,6452
Note_On_77_Vel_76,6453
Note_On_77_Vel_77,6454
Note_On_77_Vel_78,6455
Note_On_77_Vel_79,6456
Note_On_77_Vel_80,6457
Note_On_77_Vel_81,6458
Note_On_77_Vel_82,6459
Note_On_77_Vel_83,6460
Note_On_77_Vel_84,6461
Note_On_77_Vel_85,6462
Note_On_77_Vel_86,6463
Note_On_77_Vel_87,6464
Note_On_77_Vel_88,6465
Note_On_77_Vel_89,6466
Note_On_77_Vel_90,6467
Note_On_77_Vel_91,6468
Note_On_77_Vel_92,6469
Note_On_77_Vel_93,6470
Note_On_77_Vel_94,6471
Note_On_77_Vel_95,6472
Note_On_77_Vel_96,6473
Note_On_77_Vel_97,6474
Note_On_77_Vel_98,6475
Note_On_77_Vel_99,6476
Note_On_77_Vel_100,6477
Note_On_77_Vel_101,6478
Note_On_77_Vel_102,6479
Note_On_77_Vel_103,6480
Note_On_77_Vel_104,6481
Note_On_77_Vel_105,6482
Note_On_77_Vel_106,6483
Note_On_77_Vel_107,6484
Note_On_77_Vel_108,6485
Note_On_77_Vel_109,6486
Note_On_77_Vel_110,6487
Note_On_77_Vel_111,6488
Note_On_77_Vel_112,6489
Note_On_77_Vel_113,6490
Note_On_77_Vel_114,6491
Note_On_77_Vel_115,6492
Note_On_77_Vel_116,6493
Note_On_77_Vel_117,6494
Note_On_77_Vel_118,6495
Note_On_78_Vel_0,6496
Note_On_78_Vel_3,6497
Note_On_78_Vel_5,6498
Note_On_78_Vel_6,6499
Note_On_78_Vel_7,6500
Note_On_78_Vel_8,6501
Note_On_78_Vel_9,6502
Note_On_78_Vel_10,6503
Note_On_78_Vel_11,6504
Note_On_78_Vel_12,6505
Note_On_78_Vel_13,6506
Note_On_78_Vel_14,6507
Note_On_78_Vel_15,6508
Note_On_78_Vel_16,6509
Note_On_78_Vel_17,6510
Note_On_78_Vel_18,6511
Note_On_78_Vel_19,6512
Note_On_78_Vel_20,6513
Note_On_78_Vel_21,6514
Note_On_78_Vel_22,6515
Note_On_78_Vel_23,6516
Note_On_78_Vel_24,6517
Note_On_78_Vel_25,6518
Note_On_78_Vel_26,6519
Note_On_78_Vel_27,6520
Note_On_78_Vel_28,6521
Note_On_78_Vel_29,6522
Note_On_78_Vel_30,6523
Note_On_78_Vel_31,6524
Note_On_78_Vel_32,6525
Note_On_78_Vel_33,6526
Note_On_78_Vel_34,6527
Note_On_78_Vel_35,6528
Note_On_78_Vel_36,6529
Note_On_78_Vel_37,6530
Note_On_78_Vel_38,6531
Note_On_78_Vel_39,6532
Note_On_78_Vel_40,6533
Note_On_78_Vel_41,6534
Note_On_78_Vel_42,6535
Note_On_78_Vel_43,6536
Note_On_78_Vel_44,6537
Note_On_78_Vel_45,6538
Note_On_78_Vel_46,6539
Note_On_78_Vel_47,6540
Note_On_78_Vel_48,6541
Note_On_78_Vel_49,6542
Note_On_78_Vel_50,6543
Note_On_78_Vel_51,6544
Note_On_78_Vel_52,6545
Note_On_78_Vel_53,6546
Note_On_78_Vel_54,6547
Note_On_78_Vel_55,6548
Note_On_78_Vel_56,6549
Note_On_78_Vel_57,6550
Note_On_78_Vel_58,6551
Note_On_78_Vel_59,6552
Note_On_78_Vel_60,6553
Note_On_78_Vel_61,6554
Note_On_78_Vel_62,6555
Note_On_78_Vel_63,6556
Note_On_78_Vel_64,6557
Note_On_78_Vel_65,6558
Note_On_78_Vel_66,6559
Note_On_78_Vel_67,6560
Note_On_78_Vel_68,6561
Note_On_78_Vel_69,6562
Note_On_78_Vel_70,6563
Note_On_78_Vel_71,6564
Note_On_78_Vel_72,6565
Note_On_78_Vel_73,6566
Note_On_78_Vel_74,6567
Note_On_78_Vel_75,6568
Note_On_78_Vel_76,6569
Note_On_78_Vel_77,6570
Note_On_78_Vel_78,6571
Note_On_78_Vel_79,6572
Note_On_78_Vel_80,6573
Note_On_78_Vel_81,6574
Note_On_78_Vel_82,6575
Note_On_78_Vel_83,6576
Note_On_78_Vel_84,6577
Note_On_78_Vel_85,6578
Note_On_78_Vel_86,6579
Note_On_78_Vel_87,6580
Note_On_78_Vel_88,6581
Note_On_78_Vel_89,6582
Note_On_78_Vel_90,6583
Note_On_78_Vel_91,6584
Note_On_78_Vel_92,6585
Note_On_78_Vel_93,6586
Note_On_78_Vel_94,6587
Note_On_78_Vel_95,6588
Note_On_78_Vel_96,6589
Note_On_78_Vel_97,6590
Note_On_78_Vel_98,6591
Note_On_78_Vel_99,6592
Note_On_78_Vel_100,6593
Note_On_78_Vel_101,6594
Note_On_78_Vel_102,6595
Note_On_78_Vel_103,6596
Note_On_78_Vel_104,6597
Note_On_78_Vel_105,6598
Note_On_78_Vel_106,6599
Note_On_78_Vel_107,6600
Note_On_78_Vel_108,6601
Note_On_78_Vel_109,6602
Note_On_78_Vel_110,6603
Note_On_78_Vel_111,6604
Note_On_78_Vel_112,6605
Note_On_78_Vel_113,6606
Note_On_78_Vel_114,6607
Note_On_78_Vel_115,6608
Note_On_78_Vel_116,6609
Note_On_78_Vel_117,6610
Note_On_78_Vel_118,6611
Note_On_79_Vel_0,6612
Note_On_79_Vel_3,6613
Note_On_79_Vel_5,6614
Note_On_79_Vel_6,6615
Note_On_79_Vel_7,6616
Note_On_79_Vel_8,6617
Note_On_79_Vel_9,6618
Note_On_79_Vel_10,6619
Note_On_79_Vel_11,6620
Note_On_79_Vel_12,6621
Note_On_79_Vel_13,6622
Note_On_79_Vel_14,6623
Note_On_79_Vel_15,6624
Note_On_79_Vel_16,6625
Note_On_79_Vel_17,6626
Note_On_79_Vel_18,6627
Note_On_79_Vel_19,6628
Note_On_79_Vel_20,6629
Note_On_79_Vel_21,6630
Note_On_79_Vel_22,6631
Note_On_79_Vel_23,6632
Note_On_79_Vel_24,6633
Note_On_79_Vel_25,6634
Note_On_79_Vel_26,6635
Note_On_79_Vel_27,6636
Note_On_79_Vel_28,6637
Note_On_79_Vel_29,6638
Note_On_79_Vel_30,6639
Note_On_79_Vel_31,6640
Note_On_79_Vel_32,6641
Note_On_79_Vel_33,6642
Note_On_79_Vel_34,6643
Note_On_79_Vel_35,6644
Note_On_79_Vel_36,6645
Note_On_79_Vel_37,6646
Note_On_79_Vel_38,6647
Note_On_79_Vel_39,6648
Note_On_79_Vel_40,6649
Note_On_79_Vel_41,6650
Note_On_79_Vel_42,6651
Note_On_79_Vel_43,6652
Note_On_79_Vel_44,6653
Note_On_79_Vel_45,6654
Note_On_79_Vel_46,6655
Note_On_79_Vel_47,6656
Note_On_79_Vel_48,6657
Note_On_79_Vel_49,6658
Note_On_79_Vel_50,6659
Note_On_79_Vel_51,6660
Note_On_79_Vel_52,6661
Note_On_79_Vel_53,6662
Note_On_79_Vel_54,6663
Note_On_79_Vel_55,6664
Note_On_79_Vel_56,6665
Note_On_79_Vel_57,6666
Note_On_79_Vel_58,6667
Note_On_79_Vel_59,6668
Note_On_79_Vel_60,6669
Note_On_79_Vel_61,6670
Note_On_79_Vel_62,6671
Note_On_79_Vel_63,6672
Note_On_79_Vel_64,6673
Note_On_79_Vel_65,6674
Note_On_79_Vel_66,6675
Note_On_79_Vel_67,6676
Note_On_79_Vel_68,6677
Note_On_79_Vel_69,6678
Note_On_79_Vel_70,6679
Note_On_79_Vel_71,6680
Note_On_79_Vel_72,6681
Note_On_79_Vel_73,6682
Note_On_79_Vel_74,6683
Note_On_79_Vel_75,6684
Note_On_79_Vel_76,6685
Note_On_79_Vel_77,6686
Note_On_79_Vel_78,6687
Note_On_79_Vel_79,6688
Note_On_79_Vel_80,6689
Note_On_79_Vel_81,6690
Note_On_79_Vel_82,6691
Note_On_79_Vel_83,6692
Note_On_79_Vel_84,6693
Note_On_79_Vel_85,6694
Note_On_79_Vel_86,6695
Note_On_79_Vel_87,6696
Note_On_79_Vel_88,6697
Note_On_79_Vel_89,6698
Note_On_79_Vel_90,6699
Note_On_79_Vel_91,6700
Note_On_79_Vel_92,6701
Note_On_79_Vel_93,6702
Note_On_79_Vel_94,6703
Note_On_79_Vel_95,6704
Note_On_79_Vel_96,6705
Note_On_79_Vel_97,6706
Note_On_79_Vel_98,6707
Note_On_79_Vel_99,6708
Note_On_79_Vel_100,6709
Note_On_79_Vel_101,6710
Note_On_79_Vel_102,6711
Note_On_79_Vel_103,6712
Note_On_79_Vel_104,6713
Note_On_79_Vel_105,6714
Note_On_79_Vel_106,6715
Note_On_79_Vel_107,6716
Note_On_79_Vel_108,6717
Note_On_79_Vel_109,6718
Note_On_79_Vel_110,6719
Note_On_79_Vel_111,6720
Note_On_79_Vel_112,6721
Note_On_79_Vel_113,6722
Note_On_79_Vel_114,6723
Note_On_79_Vel_115,6724
Note_On_79_Vel_116,6725
Note_On_79_Vel_117,6726
Note_On_79_Vel_118,6727
Note_On_80_Vel_0,6728
Note_On_80_Vel_3,6729
Note_On_80_Vel_5,6730
Note_On_80_Vel_6,6731
Note_On_80_Vel_7,6732
Note_On_80_Vel_8,6733
Note_On_80_Vel_9,6734
Note_On_80_Vel_10,6735
Note_On_80_Vel_11,6736
Note_On_80_Vel_12,6737
Note_On_80_Vel_13,6738
Note_On_80_Vel_14,6739
Note_On_80_Vel_15,6740
Note_On_80_Vel_16,6741
Note_On_80_Vel_17,6742
Note_On_80_Vel_18,6743
Note_On_80_Vel_19,6744
Note_On_80_Vel_20,6745
Note_On_80_Vel_21,6746
Note_On_80_Vel_22,6747
Note_On_80_Vel_23,6748
Note_On_80_Vel_24,6749
Note_On_80_Vel_25,6750
Note_On_80_Vel_26,6751
Note_On_80_Vel_27,6752
Note_On_80_Vel_28,6753
Note_On_80_Vel_29,6754
Note_On_80_Vel_30,6755
Note_On_80_Vel_31,6756
Note_On_80_Vel_32,6757
Note_On_80_Vel_33,6758
Note_On_80_Vel_34,6759
Note_On_80_Vel_35,6760
Note_On_80_Vel_36,6761
Note_On_80_Vel_37,6762
Note_On_80_Vel_38,6763
Note_On_80_Vel_39,6764
Note_On_80_Vel_40,6765
Note_On_80_Vel_41,6766
Note_On_80_Vel_42,6767
Note_On_80_Vel_43,6768
Note_On_80_Vel_44,6769
Note_On_80_Vel_45,6770
Note_On_80_Vel_46,6771
Note_On_80_Vel_47,6772
Note_On_80_Vel_48,6773
Note_On_80_Vel_49,6774
Note_On_80_Vel_50,6775
Note_On_80_Vel_51,6776
Note_On_80_Vel_52,6777
Note_On_80_Vel_53,6778
Note_On_80_Vel_54,6779
Note_On_80_Vel_55,6780
Note_On_80_Vel_56,6781
Note_On_80_Vel_57,6782
Note_On_80_Vel_58,6783
Note_On_80_Vel_59,6784
Note_On_80_Vel_60,6785
Note_On_80_Vel_61,6786
Note_On_80_Vel_62,6787
Note_On_80_Vel_63,6788
Note_On_80_Vel_64,6789
Note_On_80_Vel_65,6790
Note_On_80_Vel_66,6791
Note_On_80_Vel_67,6792
Note_On_80_Vel_68,6793
Note_On_80_Vel_69,6794
Note_On_80_Vel_70,6795
Note_On_80_Vel_71,6796
Note_On_80_Vel_72,6797
Note_On_80_Vel_73,6798
Note_On_80_Vel_74,6799
Note_On_80_Vel_75,6800
Note_On_80_Vel_76,6801
Note_On_80_Vel_77,6802
Note_On_80_Vel_78,6803
Note_On_80_Vel_79,6804
Note_On_80_Vel_80,6805
Note_On_80_Vel_81,6806
Note_On_80_Vel_82,6807
Note_On_80_Vel_83,6808
Note_On_80_Vel_84,6809
Note_On_80_Vel_85,6810
Note_On_80_Vel_86,6811
Note_On_80_Vel_87,6812
Note_On_80_Vel_88,6813
Note_On_80_Vel_89,6814
Note_On_80_Vel_90,6815
Note_On_80_Vel_91,6816
Note_On_80_Vel_92,6817
Note_On_80_Vel_93,6818
Note_On_80_Vel_94,6819
Note_On_80_Vel_95,6820
Note_On_80_Vel_96,6821
Note_On_80_Vel_97,6822
Note_On_80_Vel_98,6823
Note_On_80_Vel_99,6824
Note_On_80_Vel_100,6825
Note_On_80_Vel_101,6826
Note_On_80_Vel_102,6827
Note_On_80_Vel_103,6828
Note_On_80_Vel_104,6829
Note_On_80_Vel_105,6830
Note_On_80_Vel_106,6831
Note_On_80_Vel_107,6832
Note_On_80_Vel_108,6833
Note_On_80_Vel_109,6834
Note_On_80_Vel_110,6835
Note_On_80_Vel_111,6836
Note_On_80_Vel_112,6837
Note_On_80_Vel_113,6838
Note_On_80_Vel_114,6839
Note_On_80_Vel_115,6840
Note_On_80_Vel_116,6841
Note_On_80_Vel_117,6842
Note_On_80_Vel_118,6843
Note_On_81_Vel_0,6844
Note_On_81_Vel_3,6845
Note_On_81_Vel_5,6846
Note_On_81_Vel_6,6847
Note_On_81_Vel_7,6848
Note_On_81_Vel_8,6849
Note_On_81_Vel_9,6850
Note_On_81_Vel_10,6851
Note_On_81_Vel_11,6852
Note_On_81_Vel_12,6853
Note_On_81_Vel_13,6854
Note_On_81_Vel_14,6855
Note_On_81_Vel_15,6856
Note_On_81_Vel_16,6857
Note_On_81_Vel_17,6858
Note_On_81_Vel_18,6859
Note_On_81_Vel_19,6860
Note_On_81_Vel_20,6861
Note_On_81_Vel_21,6862
Note_On_81_Vel_22,6863
Note_On_81_Vel_23,6864
Note_On_81_Vel_24,6865
Note_On_81_Vel_25,6866
Note_On_81_Vel_26,6867
Note_On_81_Vel_27,6868
Note_On_81_Vel_28,6869
Note_On_81_Vel_29,6870
Note_On_81_Vel_30,6871
Note_On_81_Vel_31,6872
Note_On_81_Vel_32,6873
Note_On_81_Vel_33,6874
Note_On_81_Vel_34,6875
Note_On_81_Vel_35,6876
Note_On_81_Vel_36,6877
Note_On_81_Vel_37,6878
Note_On_81_Vel_38,6879
Note_On_81_Vel_39,6880
Note_On_81_Vel_40,6881
Note_On_81_Vel_41,6882
Note_On_81_Vel_42,6883
Note_On_81_Vel_43,6884
Note_On_81_Vel_44,6885
Note_On_81_Vel_45,6886
Note_On_81_Vel_46,6887
Note_On_81_Vel_47,6888
Note_On_81_Vel_48,6889
Note_On_81_Vel_49,6890
Note_On_81_Vel_50,6891
Note_On_81_Vel_51,6892
Note_On_81_Vel_52,6893
Note_On_81_Vel_53,6894
Note_On_81_Vel_54,6895
Note_On_81_Vel_55,6896
Note_On_81_Vel_56,6897
Note_On_81_Vel_57,6898
Note_On_81_Vel_58,6899
Note_On_81_Vel_59,6900
Note_On_81_Vel_60,6901
Note_On_81_Vel_61,6902
Note_On_81_Vel_62,6903
Note_On_81_Vel_63,6904
Note_On_81_Vel_64,6905
Note_On_81_Vel_65,6906
Note_On_81_Vel_66,6907
Note_On_81_Vel_67,6908
Note_On_81_Vel_68,6909
Note_On_81_Vel_69,6910
Note_On_81_Vel_70,6911
Note_On_81_Vel_71,6912
Note_On_81_Vel_72,6913
Note_On_81_Vel_73,6914
Note_On_81_Vel_74,6915
Note_On_81_Vel_75,6916
Note_On_81_Vel_76,6917
Note_On_81_Vel_77,6918
Note_On_81_Vel_78,6919
Note_On_81_Vel_79,6920
Note_On_81_Vel_80,6921
Note_On_81_Vel_81,6922
Note_On_81_Vel_82,6923
Note_On_81_Vel_83,6924
Note_On_81_Vel_84,6925
Note_On_81_Vel_85,6926
Note_On_81_Vel_86,6927
Note_On_81_Vel_87,6928
Note_On_81_Vel_88,6929
Note_On_81_Vel_89,6930
Note_On_81_Vel_90,6931
Note_On_81_Vel_91,6932
Note_On_81_Vel_92,6933
Note_On_81_Vel_93,6934
Note_On_81_Vel_94,6935
Note_On_81_Vel_95,6936
Note_On_81_Vel_96,6937
Note_On_81_Vel_97,6938
Note_On_81_Vel_98,6939
Note_On_81_Vel_99,6940
Note_On_81_Vel_100,6941
Note_On_81_Vel_101,6942
Note_On_81_Vel_102,6943
Note_On_81_Vel_103,6944
Note_On_81_Vel_104,6945
Note_On_81_Vel_105,6946
Note_On_81_Vel_106,6947
Note_On_81_Vel_107,6948
Note_On_81_Vel_108,6949
Note_On_81_Vel_109,6950
Note_On_81_Vel_110,6951
Note_On_81_Vel_111,6952
Note_On_81_Vel_112,6953
Note_On_81_Vel_113,6954
Note_On_81_Vel_114,6955
Note_On_81_Vel_115,6956
Note_On_81_Vel_116,6957
Note_On_81_Vel_117,6958
Note_On_81_Vel_118,6959
Note_On_82_Vel_0,6960
Note_On_82_Vel_3,6961
Note_On_82_Vel_5,6962
Note_On_82_Vel_6,6963
Note_On_82_Vel_7,6964
Note_On_82_Vel_8,6965
Note_On_82_Vel_9,6966
Note_On_82_Vel_10,6967
Note_On_82_Vel_11,6968
Note_On_82_Vel_12,6969
Note_On_82_Vel_13,6970
Note_On_82_Vel_14,6971
Note_On_82_Vel_15,6972
Note_On_82_Vel_16,6973
Note_On_82_Vel_17,6974
Note_On_82_Vel_18,6975
Note_On_82_Vel_19,6976
Note_On_82_Vel_20,6977
Note_On_82_Vel_21,6978
Note_On_82_Vel_22,6979
Note_On_82_Vel_23,6980
Note_On_82_Vel_24,6981
Note_On_82_Vel_25,6982
Note_On_82_Vel_26,6983
Note_On_82_Vel_27,6984
Note_On_82_Vel_28,6985
Note_On_82_Vel_29,6986
Note_On_82_Vel_30,6987
Note_On_82_Vel_31,6988
Note_On_82_Vel_32,6989
Note_On_82_Vel_33,6990
Note_On_82_Vel_34,6991
Note_On_82_Vel_35,6992
Note_On_82_Vel_36,6993
Note_On_82_Vel_37,6994
Note_On_82_Vel_38,6995
Note_On_82_Vel_39,6996
Note_On_82_Vel_40,6997
Note_On_82_Vel_41,6998
Note_On_82_Vel_42,6999
Note_On_82_Vel_43,7000
Note_On_82_Vel_44,7001
Note_On_82_Vel_45,7002
Note_On_82_Vel_46,7003
Note_On_82_Vel_47,7004
Note_On_82_Vel_48,7005
Note_On_82_Vel_49,7006
Note_On_82_Vel_50,7007
Note_On_82_Vel_51,7008
Note_On_82_Vel_52,7009
Note_On_82_Vel_53,7010
Note_On_82_Vel_54,7011
Note_On_82_Vel_55,7012
Note_On_82_Vel_56,7013
Note_On_82_Vel_57,7014
Note_On_82_Vel_58,7015
Note_On_82_Vel_59,7016
Note_On_82_Vel_60,7017
Note_On_82_Vel_61,7018
Note_On_82_Vel_62,7019
Note_On_82_Vel_63,7020
Note_On_82_Vel_64,7021
Note_On_82_Vel_65,7022
Note_On_82_Vel_66,7023
Note_On_82_Vel_67,7024
Note_On_82_Vel_68,7025
Note_On_82_Vel_69,7026
Note_On_82_Vel_70,7027
Note_On_82_Vel_71,7028
Note_On_82_Vel_72,7029
Note_On_82_Vel_73,7030
Note_On_82_Vel_74,7031
Note_On_82_Vel_75,7032
Note_On_82_Vel_76,7033
Note_On_82_Vel_77,7034
Note_On_82_Vel_78,7035
Note_On_82_Vel_79,7036
Note_On_82_Vel_80,7037
Note_On_82_Vel_81,7038
Note_On_82_Vel_82,7039
Note_On_82_Vel_83,7040
Note_On_82_Vel_84,7041
Note_On_82_Vel_85,7042
Note_On_82_Vel_86,7043
Note_On_82_Vel_87,7044
Note_On_82_Vel_88,7045
Note_On_82_Vel_89,7046
Note_On_82_Vel_90,7047
Note_On_82_Vel_91,7048
Note_On_82_Vel_92,7049
Note_On_82_Vel_93,7050
Note_On_82_Vel_94,7051
Note_On_82_Vel_95,7052
Note_On_82_Vel_96,7053
Note_On_82_Vel_97,7054
Note_On_82_Vel_98,7055
Note_On_82_Vel_99,7056
Note_On_82_Vel_100,7057
Note_On_82_Vel_101,7058
Note_On_82_Vel_102,7059
Note_On_82_Vel_103,7060
Note_On_82_Vel_104,7061
Note_On_82_Vel_105,7062
Note_On_82_Vel_106,7063
Note_On_82_Vel_107,7064
Note_On_82_Vel_108,7065
Note_On_82_Vel_109,7066
Note_On_82_Vel_110,7067
Note_On_82_Vel_111,7068
Note_On_82_Vel_112,7069
Note_On_82_Vel_113,7070
Note_On_82_Vel_114,7071
Note_On_82_Vel_115,7072
Note_On_82_Vel_116,7073
Note_On_82_Vel_117,7074
Note_On_82_Vel_118,7075
Note_On_83_Vel_0,7076
Note_On_83_Vel_3,7077
Note_On_83_Vel_5,7078
Note_On_83_Vel_6,7079
Note_On_83_Vel_7,7080
Note_On_83_Vel_8,7081
Note_On_83_Vel_9,7082
Note_On_83_Vel_10,7083
Note_On_83_Vel_11,7084
Note_On_83_Vel_12,7085
Note_On_83_Vel_13,7086
Note_On_83_Vel_14,7087
Note_On_83_Vel_15,7088
Note_On_83_Vel_16,7089
Note_On_83_Vel_17,7090
Note_On_83_Vel_18,7091
Note_On_83_Vel_19,7092
Note_On_83_Vel_20,7093
Note_On_83_Vel_21,7094
Note_On_83_Vel_22,7095
Note_On_83_Vel_23,7096
Note_On_83_Vel_24,7097
Note_On_83_Vel_25,7098
Note_On_83_Vel_26,7099
Note_On_83_Vel_27,7100
Note_On_83_Vel_28,7101
Note_On_83_Vel_29,7102
Note_On_83_Vel_30,7103
Note_On_83_Vel_31,7104
Note_On_83_Vel_32,7105
Note_On_83_Vel_33,7106
Note_On_83_Vel_34,7107
Note_On_83_Vel_35,7108
Note_On_83_Vel_36,7109
Note_On_83_Vel_37,7110
Note_On_83_Vel_38,7111
Note_On_83_Vel_39,7112
Note_On_83_Vel_40,7113
Note_On_83_Vel_41,7114
Note_On_83_Vel_42,7115
Note_On_83_Vel_43,7116
Note_On_83_Vel_44,7117
Note_On_83_Vel_45,7118
Note_On_83_Vel_46,7119
Note_On_83_Vel_47,7120
Note_On_83_Vel_48,7121
Note_On_83_Vel_49,7122
Note_On_83_Vel_50,7123
Note_On_83_Vel_51,7124
Note_On_83_Vel_52,7125
Note_On_83_Vel_53,7126
Note_On_83_Vel_54,7127
Note_On_83_Vel_55,7128
Note_On_83_Vel_56,7129
Note_On_83_Vel_57,7130
Note_On_83_Vel_58,7131
Note_On_83_Vel_59,7132
Note_On_83_Vel_60,7133
Note_On_83_Vel_61,7134
Note_On_83_Vel_62,7135
Note_On_83_Vel_63,7136
Note_On_83_Vel_64,7137
Note_On_83_Vel_65,7138
Note_On_83_Vel_66,7139
Note_On_83_Vel_67,7140
Note_On_83_Vel_68,7141
Note_On_83_Vel_69,7142
Note_On_83_Vel_70,7143
Note_On_83_Vel_71,7144
Note_On_83_Vel_72,7145
Note_On_83_Vel_73,7146
Note_On_83_Vel_74,7147
Note_On_83_Vel_75,7148
Note_On_83_Vel_76,7149
Note_On_83_Vel_77,7150
Note_On_83_Vel_78,7151
Note_On_83_Vel_79,7152
Note_On_83_Vel_80,7153
Note_On_83_Vel_81,7154
Note_On_83_Vel_82,7155
Note_On_83_Vel_83,7156
Note_On_83_Vel_84,7157
Note_On_83_Vel_85,7158
Note_On_83_Vel_86,7159
Note_On_83_Vel_87,7160
Note_On_83_Vel_88,7161
Note_On_83_Vel_89,7162
Note_On_83_Vel_90,7163
Note_On_83_Vel_91,7164
Note_On_83_Vel_92,7165
Note_On_83_Vel_93,7166
Note_On_83_Vel_94,7167
Note_On_83_Vel_95,7168
Note_On_83_Vel_96,7169
Note_On_83_Vel_97,7170
Note_On_83_Vel_98,7171
Note_On_83_Vel_99,7172
Note_On_83_Vel_100,7173
Note_On_83_Vel_101,7174
Note_On_83_Vel_102,7175
Note_On_83_Vel_103,7176
Note_On_83_Vel_104,7177
Note_On_83_Vel_105,7178
Note_On_83_Vel_106,7179
Note_On_83_Vel_107,7180
Note_On_83_Vel_108,7181
Note_On_83_Vel_109,7182
Note_On_83_Vel_110,7183
Note_On_83_Vel_111,7184
Note_On_83_Vel_112,7185
Note_On_83_Vel_113,7186
Note_On_83_Vel_114,7187
Note_On_83_Vel_115,7188
Note_On_83_Vel_116,7189
Note_On_83_Vel_117,7190
Note_On_83_Vel_118,7191
Note_On_84_Vel_0,7192
Note_On_84_Vel_3,7193
Note_On_84_Vel_5,7194
Note_On_84_Vel_6,7195
Note_On_84_Vel_7,7196
Note_On_84_Vel_8,7197
Note_On_84_Vel_9,7198
Note_On_84_Vel_10,7199
Note_On_84_Vel_11,7200
Note_On_84_Vel_12,7201
Note_On_84_Vel_13,7202
Note_On_84_Vel_14,7203
Note_On_84_Vel_15,7204
Note_On_84_Vel_16,7205
Note_On_84_Vel_17,7206
Note_On_84_Vel_18,7207
Note_On_84_Vel_19,7208
Note_On_84_Vel_20,7209
Note_On_84_Vel_21,7210
Note_On_84_Vel_22,7211
Note_On_84_Vel_23,7212
Note_On_84_Vel_24,7213
Note_On_84_Vel_25,7214
Note_On_84_Vel_26,7215
Note_On_84_Vel_27,7216
Note_On_84_Vel_28,7217
Note_On_84_Vel_29,7218
Note_On_84_Vel_30,7219
Note_On_84_Vel_31,7220
Note_On_84_Vel_32,7221
Note_On_84_Vel_33,7222
Note_On_84_Vel_34,7223
Note_On_84_Vel_35,7224
Note_On_84_Vel_36,7225
Note_On_84_Vel_37,7226
Note_On_84_Vel_38,7227
Note_On_84_Vel_39,7228
Note_On_84_Vel_40,7229
Note_On_84_Vel_41,7230
Note_On_84_Vel_42,7231
Note_On_84_Vel_43,7232
Note_On_84_Vel_44,7233
Note_On_84_Vel_45,7234
Note_On_84_Vel_46,7235
Note_On_84_Vel_47,7236
Note_On_84_Vel_48,7237
Note_On_84_Vel_49,7238
Note_On_84_Vel_50,7239
Note_On_84_Vel_51,7240
Note_On_84_Vel_52,7241
Note_On_84_Vel_53,7242
Note_On_84_Vel_54,7243
Note_On_84_Vel_55,7244
Note_On_84_Vel_56,7245
Note_On_84_Vel_57,7246
Note_On_84_Vel_58,7247
Note_On_84_Vel_59,7248
Note_On_84_Vel_60,7249
Note_On_84_Vel_61,7250
Note_On_84_Vel_62,7251
Note_On_84_Vel_63,7252
Note_On_84_Vel_64,7253
Note_On_84_Vel_65,7254
Note_On_84_Vel_66,7255
Note_On_84_Vel_67,7256
Note_On_84_Vel_68,7257
Note_On_84_Vel_69,7258
Note_On_84_Vel_70,7259
Note_On_84_Vel_71,7260
Note_On_84_Vel_72,7261
Note_On_84_Vel_73,7262
Note_On_84_Vel_74,7263
Note_On_84_Vel_75,7264
Note_On_84_Vel_76,7265
Note_On_84_Vel_77,7266
Note_On_84_Vel_78,7267
Note_On_84_Vel_79,7268
Note_On_84_Vel_80,7269
Note_On_84_Vel_81,7270
Note_On_84_Vel_82,7271
Note_On_84_Vel_83,7272
Note_On_84_Vel_84,7273
Note_On_84_Vel_85,7274
Note_On_84_Vel_86,7275
Note_On_84_Vel_87,7276
Note_On_84_Vel_88,7277
Note_On_84_Vel_89,7278
Note_On_84_Vel_90,7279
Note_On_84_Vel_91,7280
Note_On_84_Vel_92,7281
Note_On_84_Vel_93,7282
Note_On_84_Vel_94,7283
Note_On_84_Vel_95,7284
Note_On_84_Vel_96,7285
Note_On_84_Vel_97,7286
Note_On_84_Vel_98,7287
Note_On_84_Vel_99,7288
Note_On_84_Vel_100,7289
Note_On_84_Vel_101,7290
Note_On_84_Vel_102,7291
Note_On_84_Vel_103,7292
Note_On_84_Vel_104,7293
Note_On_84_Vel_105,7294
Note_On_84_Vel_106,7295
Note_On_84_Vel_107,7296
Note_On_84_Vel_108,7297
Note_On_84_Vel_109,7298
Note_On_84_Vel_110,7299
Note_On_84_Vel_111,7300
Note_On_84_Vel_112,7301
Note_On_84_Vel_113,7302
Note_On_84_Vel_114,7303
Note_On_84_Vel_115,7304
Note_On_84_Vel_116,7305
Note_On_84_Vel_117,7306
Note_On_84_Vel_118,7307
Note_On_85_Vel_0,7308
Note_On_85_Vel_3,7309
Note_On_85_Vel_5,7310
Note_On_85_Vel_6,7311
Note_On_85_Vel_7,7312
Note_On_85_Vel_8,7313
Note_On_85_Vel_9,7314
Note_On_85_Vel_10,7315
Note_On_85_Vel_11,7316
Note_On_85_Vel_12,7317
Note_On_85_Vel_13,7318
Note_On_85_Vel_14,7319
Note_On_85_Vel_15,7320
Note_On_85_Vel_16,7321
Note_On_85_Vel_17,7322
Note_On_85_Vel_18,7323
Note_On_85_Vel_19,7324
Note_On_85_Vel_20,7325
Note_On_85_Vel_21,7326
Note_On_85_Vel_22,7327
Note_On_85_Vel_23,7328
Note_On_85_Vel_24,7329
Note_On_85_Vel_25,7330
Note_On_85_Vel_26,7331
Note_On_85_Vel_27,7332
Note_On_85_Vel_28,7333
Note_On_85_Vel_29,7334
Note_On_85_Vel_30,7335
Note_On_85_Vel_31,7336
Note_On_85_Vel_32,7337
Note_On_85_Vel_33,7338
Note_On_85_Vel_34,7339
Note_On_85_Vel_35,7340
Note_On_85_Vel_36,7341
Note_On_85_Vel_37,7342
Note_On_85_Vel_38,7343
Note_On_85_Vel_39,7344
Note_On_85_Vel_40,7345
Note_On_85_Vel_41,7346
Note_On_85_Vel_42,7347
Note_On_85_Vel_43,7348
Note_On_85_Vel_44,7349
Note_On_85_Vel_45,7350
Note_On_85_Vel_46,7351
Note_On_85_Vel_47,7352
Note_On_85_Vel_48,7353
Note_On_85_Vel_49,7354
Note_On_85_Vel_50,7355
Note_On_85_Vel_51,7356
Note_On_85_Vel_52,7357
Note_On_85_Vel_53,7358
Note_On_85_Vel_54,7359
Note_On_85_Vel_55,7360
Note_On_85_Vel_56,7361
Note_On_85_Vel_57,7362
Note_On_85_Vel_58,7363
Note_On_85_Vel_59,7364
Note_On_85_Vel_60,7365
Note_On_85_Vel_61,7366
Note_On_85_Vel_62,7367
Note_On_85_Vel_63,7368
Note_On_85_Vel_64,7369
Note_On_85_Vel_65,7370
Note_On_85_Vel_66,7371
Note_On_85_Vel_67,7372
Note_On_85_Vel_68,7373
Note_On_85_Vel_69,7374
Note_On_85_Vel_70,7375
Note_On_85_Vel_71,7376
Note_On_85_Vel_72,7377
Note_On_85_Vel_73,7378
Note_On_85_Vel_74,7379
Note_On_85_Vel_75,7380
Note_On_85_Vel_76,7381
Note_On_85_Vel_77,7382
Note_On_85_Vel_78,7383
Note_On_85_Vel_79,7384
Note_On_85_Vel_80,7385
Note_On_85_Vel_81,7386
Note_On_85_Vel_82,7387
Note_On_85_Vel_83,7388
Note_On_85_Vel_84,7389
Note_On_85_Vel_85,7390
Note_On_85_Vel_86,7391
Note_On_85_Vel_87,7392
Note_On_85_Vel_88,7393
Note_On_85_Vel_89,7394
Note_On_85_Vel_90,7395
Note_On_85_Vel_91,7396
Note_On_85_Vel_92,7397
Note_On_85_Vel_93,7398
Note_On_85_Vel_94,7399
Note_On_85_Vel_95,7400
Note_On_85_Vel_96,7401
Note_On_85_Vel_97,7402
Note_On_85_Vel_98,7403
Note_On_85_Vel_99,7404
Note_On_85_Vel_100,7405
Note_On_85_Vel_101,7406
Note_On_85_Vel_102,7407
Note_On_85_Vel_103,7408
Note_On_85_Vel_104,7409
Note_On_85_Vel_105,7410
Note_On_85_Vel_106,7411
Note_On_85_Vel_107,7412
Note_On_85_Vel_108,7413
Note_On_85_Vel_109,7414
Note_On_85_Vel_110,7415
Note_On_85_Vel_111,7416
Note_On_85_Vel_112,7417
Note_On_85_Vel_113,7418
Note_On_85_Vel_114,7419
Note_On_85_Vel_115,7420
Note_On_85_Vel_116,7421
Note_On_85_Vel_117,7422
Note_On_85_Vel_118,7423
Note_On_86_Vel_0,7424
Note_On_86_Vel_3,7425
Note_On_86_Vel_5,7426
Note_On_86_Vel_6,7427
Note_On_86_Vel_7,7428
Note_On_86_Vel_8,7429
Note_On_86_Vel_9,7430
Note_On_86_Vel_10,7431
Note_On_86_Vel_11,7432
Note_On_86_Vel_12,7433
Note_On_86_Vel_13,7434
Note_On_86_Vel_14,7435
Note_On_86_Vel_15,7436
Note_On_86_Vel_16,7437
Note_On_86_Vel_17,7438
Note_On_86_Vel_18,7439
Note_On_86_Vel_19,7440
Note_On_86_Vel_20,7441
Note_On_86_Vel_21,7442
Note_On_86_Vel_22,7443
Note_On_86_Vel_23,7444
Note_On_86_Vel_24,7445
Note_On_86_Vel_25,7446
Note_On_86_Vel_26,7447
Note_On_86_Vel_27,7448
Note_On_86_Vel_28,7449
Note_On_86_Vel_29,7450
Note_On_86_Vel_30,7451
Note_On_86_Vel_31,7452
Note_On_86_Vel_32,7453
Note_On_86_Vel_33,7454
Note_On_86_Vel_34,7455
Note_On_86_Vel_35,7456
Note_On_86_Vel_36,7457
Note_On_86_Vel_37,7458
Note_On_86_Vel_38,7459
Note_On_86_Vel_39,7460
Note_On_86_Vel_40,7461
Note_On_86_Vel_41,7462
Note_On_86_Vel_42,7463
Note_On_86_Vel_43,7464
Note_On_86_Vel_44,7465
Note_On_86_Vel_45,7466
Note_On_86_Vel_46,7467
Note_On_86_Vel_47,7468
Note_On_86_Vel_48,7469
Note_On_86_Vel_49,7470
Note_On_86_Vel_50,7471
Note_On_86_Vel_51,7472
Note_On_86_Vel_52,7473
Note_On_86_Vel_53,7474
Note_On_86_Vel_54,7475
Note_On_86_Vel_55,7476
Note_On_86_Vel_56,7477
Note_On_86_Vel_57,7478
Note_On_86_Vel_58,7479
Note_On_86_Vel_59,7480
Note_On_86_Vel_60,7481
Note_On_86_Vel_61,7482
Note_On_86_Vel_62,7483
Note_On_86_Vel_63,7484
Note_On_86_Vel_64,7485
Note_On_86_Vel_65,7486
Note_On_86_Vel_66,7487
Note_On_86_Vel_67,7488
Note_On_86_Vel_68,7489
Note_On_86_Vel_69,7490
Note_On_86_Vel_70,7491
Note_On_86_Vel_71,7492
Note_On_86_Vel_72,7493
Note_On_86_Vel_73,7494
Note_On_86_Vel_74,7495
Note_On_86_Vel_75,7496
Note_On_86_Vel_76,7497
Note_On_86_Vel_77,7498
Note_On_86_Vel_78,7499
Note_On_86_Vel_79,7500
Note_On_86_Vel_80,7501
Note_On_86_Vel_81,7502
Note_On_86_Vel_82,7503
Note_On_86_Vel_83,7504
Note_On_86_Vel_84,7505
Note_On_86_Vel_85,7506
Note_On_86_Vel_86,7507
Note_On_86_Vel_87,7508
Note_On_86_Vel_88,7509
Note_On_86_Vel_89,7510
Note_On_86_Vel_90,7511
Note_On_86_Vel_91,7512
Note_On_86_Vel_92,7513
Note_On_86_Vel_93,7514
Note_On_86_Vel_94,7515
Note_On_86_Vel_95,7516
Note_On_86_Vel_96,7517
Note_On_86_Vel_97,7518
Note_On_86_Vel_98,7519
Note_On_86_Vel_99,7520
Note_On_86_Vel_100,7521
Note_On_86_Vel_101,7522
Note_On_86_Vel_102,7523
Note_On_86_Vel_103,7524
Note_On_86_Vel_104,7525
Note_On_86_Vel_105,7526
Note_On_86_Vel_106,7527
Note_On_86_Vel_107,7528
Note_On_86_Vel_108,7529
Note_On_86_Vel_109,7530
Note_On_86_Vel_110,7531
Note_On_86_Vel_111,7532
Note_On_86_Vel_112,7533
Note_On_86_Vel_113,7534
Note_On_86_Vel_114,7535
Note_On_86_Vel_115,7536
Note_On_86_Vel_116,7537
Note_On_86_Vel_117,7538
Note_On_86_Vel_118,7539
Note_On_87_Vel_0,7540
Note_On_87_Vel_3,7541
Note_On_87_Vel_5,7542
Note_On_87_Vel_6,7543
Note_On_87_Vel_7,7544
Note_On_87_Vel_8,7545
Note_On_87_Vel_9,7546
Note_On_87_Vel_10,7547
Note_On_87_Vel_11,7548
Note_On_87_Vel_12,7549
Note_On_87_Vel_13,7550
Note_On_87_Vel_14,7551
Note_On_87_Vel_15,7552
Note_On_87_Vel_16,7553
Note_On_87_Vel_17,7554
Note_On_87_Vel_18,7555
Note_On_87_Vel_19,7556
Note_On_87_Vel_20,7557
Note_On_87_Vel_21,7558
Note_On_87_Vel_22,7559
Note_On_87_Vel_23,7560
Note_On_87_Vel_24,7561
Note_On_87_Vel_25,7562
Note_On_87_Vel_26,7563
Note_On_87_Vel_27,7564
Note_On_87_Vel_28,7565
Note_On_87_Vel_29,7566
Note_On_87_Vel_30,7567
Note_On_87_Vel_31,7568
Note_On_87_Vel_32,7569
Note_On_87_Vel_33,7570
Note_On_87_Vel_34,7571
Note_On_87_Vel_35,7572
Note_On_87_Vel_36,7573
Note_On_87_Vel_37,7574
Note_On_87_Vel_38,7575
Note_On_87_Vel_39,7576
Note_On_87_Vel_40,7577
Note_On_87_Vel_41,7578
Note_On_87_Vel_42,7579
Note_On_87_Vel_43,7580
Note_On_87_Vel_44,7581
Note_On_87_Vel_45,7582
Note_On_87_Vel_46,7583
Note_On_87_Vel_47,7584
Note_On_87_Vel_48,7585
Note_On_87_Vel_49,7586
Note_On_87_Vel_50,7587
Note_On_87_Vel_51,7588
Note_On_87_Vel_52,7589
Note_On_87_Vel_53,7590
Note_On_87_Vel_54,7591
Note_On_87_Vel_55,7592
Note_On_87_Vel_56,7593
Note_On_87_Vel_57,7594
Note_On_87_Vel_58,7595
Note_On_87_Vel_59,7596
Note_On_87_Vel_60,7597
Note_On_87_Vel_61,7598
Note_On_87_Vel_62,7599
Note_On_87_Vel_63,7600
Note_On_87_Vel_64,7601
Note_On_87_Vel_65,7602
Note_On_87_Vel_66,7603
Note_On_87_Vel_67,7604
Note_On_87_Vel_68,7605
Note_On_87_Vel_69,7606
Note_On_87_Vel_70,7607
Note_On_87_Vel_71,7608
Note_On_87_Vel_72,7609
Note_On_87_Vel_73,7610
Note_On_87_Vel_74,7611
Note_On_87_Vel_75,7612
Note_On_87_Vel_76,7613
Note_On_87_Vel_77,7614
Note_On_87_Vel_78,7615
Note_On_87_Vel_79,7616
Note_On_87_Vel_80,7617
Note_On_87_Vel_81,7618
Note_On_87_Vel_82,7619
Note_On_87_Vel_83,7620
Note_On_87_Vel_84,7621
Note_On_87_Vel_85,7622
Note_On_87_Vel_86,7623
Note_On_87_Vel_87,7624
Note_On_87_Vel_88,7625
Note_On_87_Vel_89,7626
Note_On_87_Vel_90,7627
Note_On_87_Vel_91,7628
Note_On_87_Vel_92,7629
Note_On_87_Vel_93,7630
Note_On_87_Vel_94,7631
Note_On_87_Vel_95,7632
Note_On_87_Vel_96,7633
Note_On_87_Vel_97,7634
Note_On_87_Vel_98,7635
Note_On_87_Vel_99,7636
Note_On_87_Vel_100,7637
Note_On_87_Vel_101,7638
Note_On_87_Vel_102,7639
Note_On_87_Vel_103,7640
Note_On_87_Vel_104,7641
Note_On_87_Vel_105,7642
Note_On_87_Vel_106,7643
Note_On_87_Vel_107,7644
Note_On_87_Vel_108,7645
Note_On_87_Vel_109,7646
Note_On_87_Vel_110,7647
Note_On_87_Vel_111,7648
Note_On_87_Vel_112,7649
Note_On_87_Vel_113,7650
Note_On_87_Vel_114,7651
Note_On_87_Vel_115,7652
Note_On_87_Vel_116,7653
Note_On_87_Vel_117,7654
Note_On_87_Vel_118,7655
Note_On_88_Vel_0,7656
Note_On_88_Vel_3,7657
Note_On_88_Vel_5,7658
Note_On_88_Vel_6,7659
Note_On_88_Vel_7,7660
Note_On_88_Vel_8,7661
Note_On_88_Vel_9,7662
Note_On_88_Vel_10,7663
Note_On_88_Vel_11,7664
Note_On_88_Vel_12,7665
Note_On_88_Vel_13,7666
Note_On_88_Vel_14,7667
Note_On_88_Vel_15,7668
Note_On_88_Vel_16,7669
Note_On_88_Vel_17,7670
Note_On_88_Vel_18,7671
Note_On_88_Vel_19,7672
Note_On_88_Vel_20,7673
Note_On_88_Vel_21,7674
Note_On_88_Vel_22,7675
Note_On_88_Vel_23,7676
Note_On_88_Vel_24,7677
Note_On_88_Vel_25,7678
Note_On_88_Vel_26,7679
Note_On_88_Vel_27,7680
Note_On_88_Vel_28,7681
Note_On_88_Vel_29,7682
Note_On_88_Vel_30,7683
Note_On_88_Vel_31,7684
Note_On_88_Vel_32,7685
Note_On_88_Vel_33,7686
Note_On_88_Vel_34,7687
Note_On_88_Vel_35,7688
Note_On_88_Vel_36,7689
Note_On_88_Vel_37,7690
Note_On_88_Vel_38,7691
Note_On_88_Vel_39,7692
Note_On_88_Vel_40,7693
Note_On_88_Vel_41,7694
Note_On_88_Vel_42,7695
Note_On_88_Vel_43,7696
Note_On_88_Vel_44,7697
Note_On_88_Vel_45,7698
Note_On_88_Vel_46,7699
Note_On_88_Vel_47,7700
Note_On_88_Vel_48,7701
Note_On_88_Vel_49,7702
Note_On_88_Vel_50,7703
Note_On_88_Vel_51,7704
Note_On_88_Vel_52,7705
Note_On_88_Vel_53,7706
Note_On_88_Vel_54,7707
Note_On_88_Vel_55,7708
Note_On_88_Vel_56,7709
Note_On_88_Vel_57,7710
Note_On_88_Vel_58,7711
Note_On_88_Vel_59,7712
Note_On_88_Vel_60,7713
Note_On_88_Vel_61,7714
Note_On_88_Vel_62,7715
Note_On_88_Vel_63,7716
Note_On_88_Vel_64,7717
Note_On_88_Vel_65,7718
Note_On_88_Vel_66,7719
Note_On_88_Vel_67,7720
Note_On_88_Vel_68,7721
Note_On_88_Vel_69,7722
Note_On_88_Vel_70,7723
Note_On_88_Vel_71,7724
Note_On_88_Vel_72,7725
Note_On_88_Vel_73,7726
Note_On_88_Vel_74,7727
Note_On_88_Vel_75,7728
Note_On_88_Vel_76,7729
Note_On_88_Vel_77,7730
Note_On_88_Vel_78,7731
Note_On_88_Vel_79,7732
Note_On_88_Vel_80,7733
Note_On_88_Vel_81,7734
Note_On_88_Vel_82,7735
Note_On_88_Vel_83,7736
Note_On_88_Vel_84,7737
Note_On_88_Vel_85,7738
Note_On_88_Vel_86,7739
Note_On_88_Vel_87,7740
Note_On_88_Vel_88,7741
Note_On_88_Vel_89,7742
Note_On_88_Vel_90,7743
Note_On_88_Vel_91,7744
Note_On_88_Vel_92,7745
Note_On_88_Vel_93,7746
Note_On_88_Vel_94,7747
Note_On_88_Vel_95,7748
Note_On_88_Vel_96,7749
Note_On_88_Vel_97,7750
Note_On_88_Vel_98,7751
Note_On_88_Vel_99,7752
Note_On_88_Vel_100,7753
Note_On_88_Vel_101,7754
Note_On_88_Vel_102,7755
Note_On_88_Vel_103,7756
Note_On_88_Vel_104,7757
Note_On_88_Vel_105,7758
Note_On_88_Vel_106,7759
Note_On_88_Vel_107,7760
Note_On_88_Vel_108,7761
Note_On_88_Vel_109,7762
Note_On_88_Vel_110,7763
Note_On_88_Vel_111,7764
Note_On_88_Vel_112,7765
Note_On_88_Vel_113,7766
Note_On_88_Vel_114,7767
Note_On_88_Vel_115,7768
Note_On_88_Vel_116,7769
Note_On_88_Vel_117,7770
Note_On_88_Vel_118,7771
Note_On_89_Vel_0,7772
Note_On_89_Vel_3,7773
Note_On_89_Vel_5,7774
Note_On_89_Vel_6,7775
Note_On_89_Vel_7,7776
Note_On_89_Vel_8,7777
Note_On_89_Vel_9,7778
Note_On_89_Vel_10,7779
Note_On_89_Vel_11,7780
Note_On_89_Vel_12,7781
Note_On_89_Vel_13,7782
Note_On_89_Vel_14,7783
Note_On_89_Vel_15,7784
Note_On_89_Vel_16,7785
Note_On_89_Vel_17,7786
Note_On_89_Vel_18,7787
Note_On_89_Vel_19,7788
Note_On_89_Vel_20,7789
Note_On_89_Vel_21,7790
Note_On_89_Vel_22,7791
Note_On_89_Vel_23,7792
Note_On_89_Vel_24,7793
Note_On_89_Vel_25,7794
Note_On_89_Vel_26,7795
Note_On_89_Vel_27,7796
Note_On_89_Vel_28,7797
Note_On_89_Vel_29,7798
Note_On_89_Vel_30,7799
Note_On_89_Vel_31,7800
Note_On_89_Vel_32,7801
Note_On_89_Vel_33,7802
Note_On_89_Vel_34,7803
Note_On_89_Vel_35,7804
Note_On_89_Vel_36,7805
Note_On_89_Vel_37,7806
Note_On_89_Vel_38,7807
Note_On_89_Vel_39,7808
Note_On_89_Vel_40,7809
Note_On_89_Vel_41,7810
Note_On_89_Vel_42,7811
Note_On_89_Vel_43,7812
Note_On_89_Vel_44,7813
Note_On_89_Vel_45,7814
Note_On_89_Vel_46,7815
Note_On_89_Vel_47,7816
Note_On_89_Vel_48,7817
Note_On_89_Vel_49,7818
Note_On_89_Vel_50,7819
Note_On_89_Vel_51,7820
Note_On_89_Vel_52,7821
Note_On_89_Vel_53,7822
Note_On_89_Vel_54,7823
Note_On_89_Vel_55,7824
Note_On_89_Vel_56,7825
Note_On_89_Vel_57,7826
Note_On_89_Vel_58,7827
Note_On_89_Vel_59,7828
Note_On_89_Vel_60,7829
Note_On_89_Vel_61,7830
Note_On_89_Vel_62,7831
Note_On_89_Vel_63,7832
Note_On_89_Vel_64,7833
Note_On_89_Vel_65,7834
Note_On_89_Vel_66,7835
Note_On_89_Vel_67,7836
Note_On_89_Vel_68,7837
Note_On_89_Vel_69,7838
Note_On_89_Vel_70,7839
Note_On_89_Vel_71,7840
Note_On_89_Vel_72,7841
Note_On_89_Vel_73,7842
Note_On_89_Vel_74,7843
Note_On_89_Vel_75,7844
Note_On_89_Vel_76,7845
Note_On_89_Vel_77,7846
Note_On_89_Vel_78,7847
Note_On_89_Vel_79,7848
Note_On_89_Vel_80,7849
Note_On_89_Vel_81,7850
Note_On_89_Vel_82,7851
Note_On_89_Vel_83,7852
Note_On_89_Vel_84,7853
Note_On_89_Vel_85,7854
Note_On_89_Vel_86,7855
Note_On_89_Vel_87,7856
Note_On_89_Vel_88,7857
Note_On_89_Vel_89,7858
Note_On_89_Vel_90,7859
Note_On_89_Vel_91,7860
Note_On_89_Vel_92,7861
Note_On_89_Vel_93,7862
Note_On_89_Vel_94,7863
Note_On_89_Vel_95,7864
Note_On_89_Vel_96,7865
Note_On_89_Vel_97,7866
Note_On_89_Vel_98,7867
Note_On_89_Vel_99,7868
Note_On_89_Vel_100,7869
Note_On_89_Vel_101,7870
Note_On_89_Vel_102,7871
Note_On_89_Vel_103,7872
Note_On_89_Vel_104,7873
Note_On_89_Vel_105,7874
Note_On_89_Vel_106,7875
Note_On_89_Vel_107,7876
Note_On_89_Vel_108,7877
Note_On_89_Vel_109,7878
Note_On_89_Vel_110,7879
Note_On_89_Vel_111,7880
Note_On_89_Vel_112,7881
Note_On_89_Vel_113,7882
Note_On_89_Vel_114,7883
Note_On_89_Vel_115,7884
Note_On_89_Vel_116,7885
Note_On_89_Vel_117,7886
Note_On_89_Vel_118,7887
Note_On_90_Vel_0,7888
Note_On_90_Vel_3,7889
Note_On_90_Vel_5,7890
Note_On_90_Vel_6,7891
Note_On_90_Vel_7,7892
Note_On_90_Vel_8,7893
Note_On_90_Vel_9,7894
Note_On_90_Vel_10,7895
Note_On_90_Vel_11,7896
Note_On_90_Vel_12,7897
Note_On_90_Vel_13,7898
Note_On_90_Vel_14,7899
Note_On_90_Vel_15,7900
Note_On_90_Vel_16,7901
Note_On_90_Vel_17,7902
Note_On_90_Vel_18,7903
Note_On_90_Vel_19,7904
Note_On_90_Vel_20,7905
Note_On_90_Vel_21,7906
Note_On_90_Vel_22,7907
Note_On_90_Vel_23,7908
Note_On_90_Vel_24,7909
Note_On_90_Vel_25,7910
Note_On_90_Vel_26,7911
Note_On_90_Vel_27,7912
Note_On_90_Vel_28,7913
Note_On_90_Vel_29,7914
Note_On_90_Vel_30,7915
Note_On_90_Vel_31,7916
Note_On_90_Vel_32,7917
Note_On_90_Vel_33,7918
Note_On_90_Vel_34,7919
Note_On_90_Vel_35,7920
Note_On_90_Vel_36,7921
Note_On_90_Vel_37,7922
Note_On_90_Vel_38,7923
Note_On_90_Vel_39,7924
Note_On_90_Vel_40,7925
Note_On_90_Vel_41,7926
Note_On_90_Vel_42,7927
Note_On_90_Vel_43,7928
Note_On_90_Vel_44,7929
Note_On_90_Vel_45,7930
Note_On_90_Vel_46,7931
Note_On_90_Vel_47,7932
Note_On_90_Vel_48,7933
Note_On_90_Vel_49,7934
Note_On_90_Vel_50,7935
Note_On_90_Vel_51,7936
Note_On_90_Vel_52,7937
Note_On_90_Vel_53,7938
Note_On_90_Vel_54,7939
Note_On_90_Vel_55,7940
Note_On_90_Vel_56,7941
Note_On_90_Vel_57,7942
Note_On_90_Vel_58,7943
Note_On_90_Vel_59,7944
Note_On_90_Vel_60,7945
Note_On_90_Vel_61,7946
Note_On_90_Vel_62,7947
Note_On_90_Vel_63,7948
Note_On_90_Vel_64,7949
Note_On_90_Vel_65,7950
Note_On_90_Vel_66,7951
Note_On_90_Vel_67,7952
Note_On_90_Vel_68,7953
Note_On_90_Vel_69,7954
Note_On_90_Vel_70,7955
Note_On_90_Vel_71,7956
Note_On_90_Vel_72,7957
Note_On_90_Vel_73,7958
Note_On_90_Vel_74,7959
Note_On_90_Vel_75,7960
Note_On_90_Vel_76,7961
Note_On_90_Vel_77,7962
Note_On_90_Vel_78,7963
Note_On_90_Vel_79,7964
Note_On_90_Vel_80,7965
Note_On_90_Vel_81,7966
Note_On_90_Vel_82,7967
Note_On_90_Vel_83,7968
Note_On_90_Vel_84,7969
Note_On_90_Vel_85,7970
Note_On_90_Vel_86,7971
Note_On_90_Vel_87,7972
Note_On_90_Vel_88,7973
Note_On_90_Vel_89,7974
Note_On_90_Vel_90,7975
Note_On_90_Vel_91,7976
Note_On_90_Vel_92,7977
Note_On_90_Vel_93,7978
Note_On_90_Vel_94,7979
Note_On_90_Vel_95,7980
Note_On_90_Vel_96,7981
Note_On_90_Vel_97,7982
Note_On_90_Vel_98,7983
Note_On_90_Vel_99,7984
Note_On_90_Vel_100,7985
Note_On_90_Vel_101,7986
Note_On_90_Vel_102,7987
Note_On_90_Vel_103,7988
Note_On_90_Vel_104,7989
Note_On_90_Vel_105,7990
Note_On_90_Vel_106,7991
Note_On_90_Vel_107,7992
Note_On_90_Vel_108,7993
Note_On_90_Vel_109,7994
Note_On_90_Vel_110,7995
Note_On_90_Vel_111,7996
Note_On_90_Vel_112,7997
Note_On_90_Vel_113,7998
Note_On_90_Vel_114,7999
Note_On_90_Vel_115,8000
Note_On_90_Vel_116,8001
Note_On_90_Vel_117,8002
Note_On_90_Vel_118,8003
Note_On_91_Vel_0,8004
Note_On_91_Vel_3,8005
Note_On_91_Vel_5,8006
Note_On_91_Vel_6,8007
Note_On_91_Vel_7,8008
Note_On_91_Vel_8,8009
Note_On_91_Vel_9,8010
Note_On_91_Vel_10,8011
Note_On_91_Vel_11,8012
Note_On_91_Vel_12,8013
Note_On_91_Vel_13,8014
Note_On_91_Vel_14,8015
Note_On_91_Vel_15,8016
Note_On_91_Vel_16,8017
Note_On_91_Vel_17,8018
Note_On_91_Vel_18,8019
Note_On_91_Vel_19,8020
Note_On_91_Vel_20,8021
Note_On_91_Vel_21,8022
Note_On_91_Vel_22,8023
Note_On_91_Vel_23,8024
Note_On_91_Vel_24,8025
Note_On_91_Vel_25,8026
Note_On_91_Vel_26,8027
Note_On_91_Vel_27,8028
Note_On_91_Vel_28,8029
Note_On_91_Vel_29,8030
Note_On_91_Vel_30,8031
Note_On_91_Vel_31,8032
Note_On_91_Vel_32,8033
Note_On_91_Vel_33,8034
Note_On_91_Vel_34,8035
Note_On_91_Vel_35,8036
Note_On_91_Vel_36,8037
Note_On_91_Vel_37,8038
Note_On_91_Vel_38,8039
Note_On_91_Vel_39,8040
Note_On_91_Vel_40,8041
Note_On_91_Vel_41,8042
Note_On_91_Vel_42,8043
Note_On_91_Vel_43,8044
Note_On_91_Vel_44,8045
Note_On_91_Vel_45,8046
Note_On_91_Vel_46,8047
Note_On_91_Vel_47,8048
Note_On_91_Vel_48,8049
Note_On_91_Vel_49,8050
Note_On_91_Vel_50,8051
Note_On_91_Vel_51,8052
Note_On_91_Vel_52,8053
Note_On_91_Vel_53,8054
Note_On_91_Vel_54,8055
Note_On_91_Vel_55,8056
Note_On_91_Vel_56,8057
Note_On_91_Vel_57,8058
Note_On_91_Vel_58,8059
Note_On_91_Vel_59,8060
Note_On_91_Vel_60,8061
Note_On_91_Vel_61,8062
Note_On_91_Vel_62,8063
Note_On_91_Vel_63,8064
Note_On_91_Vel_64,8065
Note_On_91_Vel_65,8066
Note_On_91_Vel_66,8067
Note_On_91_Vel_67,8068
Note_On_91_Vel_68,8069
Note_On_91_Vel_69,8070
Note_On_91_Vel_70,8071
Note_On_91_Vel_71,8072
Note_On_91_Vel_72,8073
Note_On_91_Vel_73,8074
Note_On_91_Vel_74,8075
Note_On_91_Vel_75,8076
Note_On_91_Vel_76,8077
Note_On_91_Vel_77,8078
Note_On_91_Vel_78,8079
Note_On_91_Vel_79,8080
Note_On_91_Vel_80,8081
Note_On_91_Vel_81,8082
Note_On_91_Vel_82,8083
Note_On_91_Vel_83,8084
Note_On_91_Vel_84,8085
Note_On_91_Vel_85,8086
Note_On_91_Vel_86,8087
Note_On_91_Vel_87,8088
Note_On_91_Vel_88,8089
Note_On_91_Vel_89,8090
Note_On_91_Vel_90,8091
Note_On_91_Vel_91,8092
Note_On_91_Vel_92,8093
Note_On_91_Vel_93,8094
Note_On_91_Vel_94,8095
Note_On_91_Vel_95,8096
Note_On_91_Vel_96,8097
Note_On_91_Vel_97,8098
Note_On_91_Vel_98,8099
Note_On_91_Vel_99,8100
Note_On_91_Vel_100,8101
Note_On_91_Vel_101,8102
Note_On_91_Vel_102,8103
Note_On_91_Vel_103,8104
Note_On_91_Vel_104,8105
Note_On_91_Vel_105,8106
Note_On_91_Vel_106,8107
Note_On_91_Vel_107,8108
Note_On_91_Vel_108,8109
Note_On_91_Vel_109,8110
Note_On_91_Vel_110,8111
Note_On_91_Vel_111,8112
Note_On_91_Vel_112,8113
Note_On_91_Vel_113,8114
Note_On_91_Vel_114,8115
Note_On_91_Vel_115,8116
Note_On_91_Vel_116,8117
Note_On_91_Vel_117,8118
Note_On_91_Vel_118,8119
Note_On_92_Vel_0,8120
Note_On_92_Vel_3,8121
Note_On_92_Vel_5,8122
Note_On_92_Vel_6,8123
Note_On_92_Vel_7,8124
Note_On_92_Vel_8,8125
Note_On_92_Vel_9,8126
Note_On_92_Vel_10,8127
Note_On_92_Vel_11,8128
Note_On_92_Vel_12,8129
Note_On_92_Vel_13,8130
Note_On_92_Vel_14,8131
Note_On_92_Vel_15,8132
Note_On_92_Vel_16,8133
Note_On_92_Vel_17,8134
Note_On_92_Vel_18,8135
Note_On_92_Vel_19,8136
Note_On_92_Vel_20,8137
Note_On_92_Vel_21,8138
Note_On_92_Vel_22,8139
Note_On_92_Vel_23,8140
Note_On_92_Vel_24,8141
Note_On_92_Vel_25,8142
Note_On_92_Vel_26,8143
Note_On_92_Vel_27,8144
Note_On_92_Vel_28,8145
Note_On_92_Vel_29,8146
Note_On_92_Vel_30,8147
Note_On_92_Vel_31,8148
Note_On_92_Vel_32,8149
Note_On_92_Vel_33,8150
Note_On_92_Vel_34,8151
Note_On_92_Vel_35,8152
Note_On_92_Vel_36,8153
Note_On_92_Vel_37,8154
Note_On_92_Vel_38,8155
Note_On_92_Vel_39,8156
Note_On_92_Vel_40,8157
Note_On_92_Vel_41,8158
Note_On_92_Vel_42,8159
Note_On_92_Vel_43,8160
Note_On_92_Vel_44,8161
Note_On_92_Vel_45,8162
Note_On_92_Vel_46,8163
Note_On_92_Vel_47,8164
Note_On_92_Vel_48,8165
Note_On_92_Vel_49,8166
Note_On_92_Vel_50,8167
Note_On_92_Vel_51,8168
Note_On_92_Vel_52,8169
Note_On_92_Vel_53,8170
Note_On_92_Vel_54,8171
Note_On_92_Vel_55,8172
Note_On_92_Vel_56,8173
Note_On_92_Vel_57,8174
Note_On_92_Vel_58,8175
Note_On_92_Vel_59,8176
Note_On_92_Vel_60,8177
Note_On_92_Vel_61,8178
Note_On_92_Vel_62,8179
Note_On_92_Vel_63,8180
Note_On_92_Vel_64,8181
Note_On_92_Vel_65,8182
Note_On_92_Vel_66,8183
Note_On_92_Vel_67,8184
Note_On_92_Vel_68,8185
Note_On_92_Vel_69,8186
Note_On_92_Vel_70,8187
Note_On_92_Vel_71,8188
Note_On_92_Vel_72,8189
Note_On_92_Vel_73,8190
Note_On_92_Vel_74,8191
Note_On_92_Vel_75,8192
Note_On_92_Vel_76,8193
Note_On_92_Vel_77,8194
Note_On_92_Vel_78,8195
Note_On_92_Vel_79,8196
Note_On_92_Vel_80,8197
Note_On_92_Vel_81,8198
Note_On_92_Vel_82,8199
Note_On_92_Vel_83,8200
Note_On_92_Vel_84,8201
Note_On_92_Vel_85,8202
Note_On_92_Vel_86,8203
Note_On_92_Vel_87,8204
Note_On_92_Vel_88,8205
Note_On_92_Vel_89,8206
Note_On_92_Vel_90,8207
Note_On_92_Vel_91,8208
Note_On_92_Vel_92,8209
Note_On_92_Vel_93,8210
Note_On_92_Vel_94,8211
Note_On_92_Vel_95,8212
Note_On_92_Vel_96,8213
Note_On_92_Vel_97,8214
Note_On_92_Vel_98,8215
Note_On_92_Vel_99,8216
Note_On_92_Vel_100,8217
Note_On_92_Vel_101,8218
Note_On_92_Vel_102,8219
Note_On_92_Vel_103,8220
Note_On_92_Vel_104,8221
Note_On_92_Vel_105,8222
Note_On_92_Vel_106,8223
Note_On_92_Vel_107,8224
Note_On_92_Vel_108,8225
Note_On_92_Vel_109,8226
Note_On_92_Vel_110,8227
Note_On_92_Vel_111,8228
Note_On_92_Vel_112,8229
Note_On_92_Vel_113,8230
Note_On_92_Vel_114,8231
Note_On_92_Vel_115,8232
Note_On_92_Vel_116,8233
Note_On_92_Vel_117,8234
Note_On_92_Vel_118,8235
Note_On_93_Vel_0,8236
Note_On_93_Vel_3,8237
Note_On_93_Vel_5,8238
Note_On_93_Vel_6,8239
Note_On_93_Vel_7,8240
Note_On_93_Vel_8,8241
Note_On_93_Vel_9,8242
Note_On_93_Vel_10,8243
Note_On_93_Vel_11,8244
Note_On_93_Vel_12,8245
Note_On_93_Vel_13,8246
Note_On_93_Vel_14,8247
Note_On_93_Vel_15,8248
Note_On_93_Vel_16,8249
Note_On_93_Vel_17,8250
Note_On_93_Vel_18,8251
Note_On_93_Vel_19,8252
Note_On_93_Vel_20,8253
Note_On_93_Vel_21,8254
Note_On_93_Vel_22,8255
Note_On_93_Vel_23,8256
Note_On_93_Vel_24,8257
Note_On_93_Vel_25,8258
Note_On_93_Vel_26,8259
Note_On_93_Vel_27,8260
Note_On_93_Vel_28,8261
Note_On_93_Vel_29,8262
Note_On_93_Vel_30,8263
Note_On_93_Vel_31,8264
Note_On_93_Vel_32,8265
Note_On_93_Vel_33,8266
Note_On_93_Vel_34,8267
Note_On_93_Vel_35,8268
Note_On_93_Vel_36,8269
Note_On_93_Vel_37,8270
Note_On_93_Vel_38,8271
Note_On_93_Vel_39,8272
Note_On_93_Vel_40,8273
Note_On_93_Vel_41,8274
Note_On_93_Vel_42,8275
Note_On_93_Vel_43,8276
Note_On_93_Vel_44,8277
Note_On_93_Vel_45,8278
Note_On_93_Vel_46,8279
Note_On_93_Vel_47,8280
Note_On_93_Vel_48,8281
Note_On_93_Vel_49,8282
Note_On_93_Vel_50,8283
Note_On_93_Vel_51,8284
Note_On_93_Vel_52,8285
Note_On_93_Vel_53,8286
Note_On_93_Vel_54,8287
Note_On_93_Vel_55,8288
Note_On_93_Vel_56,8289
Note_On_93_Vel_57,8290
Note_On_93_Vel_58,8291
Note_On_93_Vel_59,8292
Note_On_93_Vel_60,8293
Note_On_93_Vel_61,8294
Note_On_93_Vel_62,8295
Note_On_93_Vel_63,8296
Note_On_93_Vel_64,8297
Note_On_93_Vel_65,8298
Note_On_93_Vel_66,8299
Note_On_93_Vel_67,8300
Note_On_93_Vel_68,8301
Note_On_93_Vel_69,8302
Note_On_93_Vel_70,8303
Note_On_93_Vel_71,8304
Note_On_93_Vel_72,8305
Note_On_93_Vel_73,8306
Note_On_93_Vel_74,8307
Note_On_93_Vel_75,8308
Note_On_93_Vel_76,8309
Note_On_93_Vel_77,8310
Note_On_93_Vel_78,8311
Note_On_93_Vel_79,8312
Note_On_93_Vel_80,8313
Note_On_93_Vel_81,8314
Note_On_93_Vel_82,8315
Note_On_93_Vel_83,8316
Note_On_93_Vel_84,8317
Note_On_93_Vel_85,8318
Note_On_93_Vel_86,8319
Note_On_93_Vel_87,8320
Note_On_93_Vel_88,8321
Note_On_93_Vel_89,8322
Note_On_93_Vel_90,8323
Note_On_93_Vel_91,8324
Note_On_93_Vel_92,8325
Note_On_93_Vel_93,8326
Note_On_93_Vel_94,8327
Note_On_93_Vel_95,8328
Note_On_93_Vel_96,8329
Note_On_93_Vel_97,8330
Note_On_93_Vel_98,8331
Note_On_93_Vel_99,8332
Note_On_93_Vel_100,8333
Note_On_93_Vel_101,8334
Note_On_93_Vel_102,8335
Note_On_93_Vel_103,8336
Note_On_93_Vel_104,8337
Note_On_93_Vel_105,8338
Note_On_93_Vel_106,8339
Note_On_93_Vel_107,8340
Note_On_93_Vel_108,8341
Note_On_93_Vel_109,8342
Note_On_93_Vel_110,8343
Note_On_93_Vel_111,8344
Note_On_93_Vel_112,8345
Note_On_93_Vel_113,8346
Note_On_93_Vel_114,8347
Note_On_93_Vel_115,8348
Note_On_93_Vel_116,8349
Note_On_93_Vel_117,8350
Note_On_93_Vel_118,8351
Note_On_94_Vel_0,8352
Note_On_94_Vel_3,8353
Note_On_94_Vel_5,8354
Note_On_94_Vel_6,8355
Note_On_94_Vel_7,8356
Note_On_94_Vel_8,8357
Note_On_94_Vel_9,8358
Note_On_94_Vel_10,8359
Note_On_94_Vel_11,8360
Note_On_94_Vel_12,8361
Note_On_94_Vel_13,8362
Note_On_94_Vel_14,8363
Note_On_94_Vel_15,8364
Note_On_94_Vel_16,8365
Note_On_94_Vel_17,8366
Note_On_94_Vel_18,8367
Note_On_94_Vel_19,8368
Note_On_94_Vel_20,8369
Note_On_94_Vel_21,8370
Note_On_94_Vel_22,8371
Note_On_94_Vel_23,8372
Note_On_94_Vel_24,8373
Note_On_94_Vel_25,8374
Note_On_94_Vel_26,8375
Note_On_94_Vel_27,8376
Note_On_94_Vel_28,8377
Note_On_94_Vel_29,8378
Note_On_94_Vel_30,8379
Note_On_94_Vel_31,8380
Note_On_94_Vel_32,8381
Note_On_94_Vel_33,8382
Note_On_94_Vel_34,8383
Note_On_94_Vel_35,8384
Note_On_94_Vel_36,8385
Note_On_94_Vel_37,8386
Note_On_94_Vel_38,8387
Note_On_94_Vel_39,8388
Note_On_94_Vel_40,8389
Note_On_94_Vel_41,8390
Note_On_94_Vel_42,8391
Note_On_94_Vel_43,8392
Note_On_94_Vel_44,8393
Note_On_94_Vel_45,8394
Note_On_94_Vel_46,8395
Note_On_94_Vel_47,8396
Note_On_94_Vel_48,8397
Note_On_94_Vel_49,8398
Note_On_94_Vel_50,8399
Note_On_94_Vel_51,8400
Note_On_94_Vel_52,8401
Note_On_94_Vel_53,8402
Note_On_94_Vel_54,8403
Note_On_94_Vel_55,8404
Note_On_94_Vel_56,8405
Note_On_94_Vel_57,8406
Note_On_94_Vel_58,8407
Note_On_94_Vel_59,8408
Note_On_94_Vel_60,8409
Note_On_94_Vel_61,8410
Note_On_94_Vel_62,8411
Note_On_94_Vel_63,8412
Note_On_94_Vel_64,8413
Note_On_94_Vel_65,8414
Note_On_94_Vel_66,8415
Note_On_94_Vel_67,8416
Note_On_94_Vel_68,8417
Note_On_94_Vel_69,8418
Note_On_94_Vel_70,8419
Note_On_94_Vel_71,8420
Note_On_94_Vel_72,8421
Note_On_94_Vel_73,8422
Note_On_94_Vel_74,8423
Note_On_94_Vel_75,8424
Note_On_94_Vel_76,8425
Note_On_94_Vel_77,8426
Note_On_94_Vel_78,8427
Note_On_94_Vel_79,8428
Note_On_94_Vel_80,8429
Note_On_94_Vel_81,8430
Note_On_94_Vel_82,8431
Note_On_94_Vel_83,8432
Note_On_94_Vel_84,8433
Note_On_94_Vel_85,8434
Note_On_94_Vel_86,8435
Note_On_94_Vel_87,8436
Note_On_94_Vel_88,8437
Note_On_94_Vel_89,8438
Note_On_94_Vel_90,8439
Note_On_94_Vel_91,8440
Note_On_94_Vel_92,8441
Note_On_94_Vel_93,8442
Note_On_94_Vel_94,8443
Note_On_94_Vel_95,8444
Note_On_94_Vel_96,8445
Note_On_94_Vel_97,8446
Note_On_94_Vel_98,8447
Note_On_94_Vel_99,8448
Note_On_94_Vel_100,8449
Note_On_94_Vel_101,8450
Note_On_94_Vel_102,8451
Note_On_94_Vel_103,8452
Note_On_94_Vel_104,8453
Note_On_94_Vel_105,8454
Note_On_94_Vel_106,8455
Note_On_94_Vel_107,8456
Note_On_94_Vel_108,8457
Note_On_94_Vel_109,8458
Note_On_94_Vel_110,8459
Note_On_94_Vel_111,8460
Note_On_94_Vel_112,8461
Note_On_94_Vel_113,8462
Note_On_94_Vel_114,8463
Note_On_94_Vel_115,8464
Note_On_94_Vel_116,8465
Note_On_94_Vel_117,8466
Note_On_94_Vel_118,8467
Note_On_95_Vel_0,8468
Note_On_95_Vel_3,8469
Note_On_95_Vel_5,8470
Note_On_95_Vel_6,8471
Note_On_95_Vel_7,8472
Note_On_95_Vel_8,8473
Note_On_95_Vel_9,8474
Note_On_95_Vel_10,8475
Note_On_95_Vel_11,8476
Note_On_95_Vel_12,8477
Note_On_95_Vel_13,8478
Note_On_95_Vel_14,8479
Note_On_95_Vel_15,8480
Note_On_95_Vel_16,8481
Note_On_95_Vel_17,8482
Note_On_95_Vel_18,8483
Note_On_95_Vel_19,8484
Note_On_95_Vel_20,8485
Note_On_95_Vel_21,8486
Note_On_95_Vel_22,8487
Note_On_95_Vel_23,8488
Note_On_95_Vel_24,8489
Note_On_95_Vel_25,8490
Note_On_95_Vel_26,8491
Note_On_95_Vel_27,8492
Note_On_95_Vel_28,8493
Note_On_95_Vel_29,8494
Note_On_95_Vel_30,8495
Note_On_95_Vel_31,8496
Note_On_95_Vel_32,8497
Note_On_95_Vel_33,8498
Note_On_95_Vel_34,8499
Note_On_95_Vel_35,8500
Note_On_95_Vel_36,8501
Note_On_95_Vel_37,8502
Note_On_95_Vel_38,8503
Note_On_95_Vel_39,8504
Note_On_95_Vel_40,8505
Note_On_95_Vel_41,8506
Note_On_95_Vel_42,8507
Note_On_95_Vel_43,8508
Note_On_95_Vel_44,8509
Note_On_95_Vel_45,8510
Note_On_95_Vel_46,8511
Note_On_95_Vel_47,8512
Note_On_95_Vel_48,8513
Note_On_95_Vel_49,8514
Note_On_95_Vel_50,8515
Note_On_95_Vel_51,8516
Note_On_95_Vel_52,8517
Note_On_95_Vel_53,8518
Note_On_95_Vel_54,8519
Note_On_95_Vel_55,8520
Note_On_95_Vel_56,8521
Note_On_95_Vel_57,8522
Note_On_95_Vel_58,8523
Note_On_95_Vel_59,8524
Note_On_95_Vel_60,8525
Note_On_95_Vel_61,8526
Note_On_95_Vel_62,8527
Note_On_95_Vel_63,8528
Note_On_95_Vel_64,8529
Note_On_95_Vel_65,8530
Note_On_95_Vel_66,8531
Note_On_95_Vel_67,8532
Note_On_95_Vel_68,8533
Note_On_95_Vel_69,8534
Note_On_95_Vel_70,8535
Note_On_95_Vel_71,8536
Note_On_95_Vel_72,8537
Note_On_95_Vel_73,8538
Note_On_95_Vel_74,8539
Note_On_95_Vel_75,8540
Note_On_95_Vel_76,8541
Note_On_95_Vel_77,8542
Note_On_95_Vel_78,8543
Note_On_95_Vel_79,8544
Note_On_95_Vel_80,8545
Note_On_95_Vel_81,8546
Note_On_95_Vel_82,8547
Note_On_95_Vel_83,8548
Note_On_95_Vel_84,8549
Note_On_95_Vel_85,8550
Note_On_95_Vel_86,8551
Note_On_95_Vel_87,8552
Note_On_95_Vel_88,8553
Note_On_95_Vel_89,8554
Note_On_95_Vel_90,8555
Note_On_95_Vel_91,8556
Note_On_95_Vel_92,8557
Note_On_95_Vel_93,8558
Note_On_95_Vel_94,8559
Note_On_95_Vel_95,8560
Note_On_95_Vel_96,8561
Note_On_95_Vel_97,8562
Note_On_95_Vel_98,8563
Note_On_95_Vel_99,8564
Note_On_95_Vel_100,8565
Note_On_95_Vel_101,8566
Note_On_95_Vel_102,8567
Note_On_95_Vel_103,8568
Note_On_95_Vel_104,8569
Note_On_95_Vel_105,8570
Note_On_95_Vel_106,8571
Note_On_95_Vel_107,8572
Note_On_95_Vel_108,8573
Note_On_95_Vel_109,8574
Note_On_95_Vel_110,8575
Note_On_95_Vel_111,8576
Note_On_95_Vel_112,8577
Note_On_95_Vel_113,8578
Note_On_95_Vel_114,8579
Note_On_95_Vel_115,8580
Note_On_95_Vel_116,8581
Note_On_95_Vel_117,8582
Note_On_95_Vel_118,8583
Note_On_96_Vel_0,8584
Note_On_96_Vel_3,8585
Note_On_96_Vel_5,8586
Note_On_96_Vel_6,8587
Note_On_96_Vel_7,8588
Note_On_96_Vel_8,8589
Note_On_96_Vel_9,8590
Note_On_96_Vel_10,8591
Note_On_96_Vel_11,8592
Note_On_96_Vel_12,8593
Note_On_96_Vel_13,8594
Note_On_96_Vel_14,8595
Note_On_96_Vel_15,8596
Note_On_96_Vel_16,8597
Note_On_96_Vel_17,8598
Note_On_96_Vel_18,8599
Note_On_96_Vel_19,8600
Note_On_96_Vel_20,8601
Note_On_96_Vel_21,8602
Note_On_96_Vel_22,8603
Note_On_96_Vel_23,8604
Note_On_96_Vel_24,8605
Note_On_96_Vel_25,8606
Note_On_96_Vel_26,8607
Note_On_96_Vel_27,8608
Note_On_96_Vel_28,8609
Note_On_96_Vel_29,8610
Note_On_96_Vel_30,8611
Note_On_96_Vel_31,8612
Note_On_96_Vel_32,8613
Note_On_96_Vel_33,8614
Note_On_96_Vel_34,8615
Note_On_96_Vel_35,8616
Note_On_96_Vel_36,8617
Note_On_96_Vel_37,8618
Note_On_96_Vel_38,8619
Note_On_96_Vel_39,8620
Note_On_96_Vel_40,8621
Note_On_96_Vel_41,8622
Note_On_96_Vel_42,8623
Note_On_96_Vel_43,8624
Note_On_96_Vel_44,8625
Note_On_96_Vel_45,8626
Note_On_96_Vel_46,8627
Note_On_96_Vel_47,8628
Note_On_96_Vel_48,8629
Note_On_96_Vel_49,8630
Note_On_96_Vel_50,8631
Note_On_96_Vel_51,8632
Note_On_96_Vel_52,8633
Note_On_96_Vel_53,8634
Note_On_96_Vel_54,8635
Note_On_96_Vel_55,8636
Note_On_96_Vel_56,8637
Note_On_96_Vel_57,8638
Note_On_96_Vel_58,8639
Note_On_96_Vel_59,8640
Note_On_96_Vel_60,8641
Note_On_96_Vel_61,8642
Note_On_96_Vel_62,8643
Note_On_96_Vel_63,8644
Note_On_96_Vel_64,8645
Note_On_96_Vel_65,8646
Note_On_96_Vel_66,8647
Note_On_96_Vel_67,8648
Note_On_96_Vel_68,8649
Note_On_96_Vel_69,8650
Note_On_96_Vel_70,8651
Note_On_96_Vel_71,8652
Note_On_96_Vel_72,8653
Note_On_96_Vel_73,8654
Note_On_96_Vel_74,8655
Note_On_96_Vel_75,8656
Note_On_96_Vel_76,8657
Note_On_96_Vel_77,8658
Note_On_96_Vel_78,8659
Note_On_96_Vel_79,8660
Note_On_96_Vel_80,8661
Note_On_96_Vel_81,8662
Note_On_96_Vel_82,8663
Note_On_96_Vel_83,8664
Note_On_96_Vel_84,8665
Note_On_96_Vel_85,8666
Note_On_96_Vel_86,8667
Note_On_96_Vel_87,8668
Note_On_96_Vel_88,8669
Note_On_96_Vel_89,8670
Note_On_96_Vel_90,8671
Note_On_96_Vel_91,8672
Note_On_96_Vel_92,8673
Note_On_96_Vel_93,8674
Note_On_96_Vel_94,8675
Note_On_96_Vel_95,8676
Note_On_96_Vel_96,8677
Note_On_96_Vel_97,8678
Note_On_96_Vel_98,8679
Note_On_96_Vel_99,8680
Note_On_96_Vel_100,8681
Note_On_96_Vel_101,8682
Note_On_96_Vel_102,8683
Note_On_96_Vel_103,8684
Note_On_96_Vel_104,8685
Note_On_96_Vel_105,8686
Note_On_96_Vel_106,8687
Note_On_96_Vel_107,8688
Note_On_96_Vel_108,8689
Note_On_96_Vel_109,8690
Note_On_96_Vel_110,8691
Note_On_96_Vel_111,8692
Note_On_96_Vel_112,8693
Note_On_96_Vel_113,8694
Note_On_96_Vel_114,8695
Note_On_96_Vel_115,8696
Note_On_96_Vel_116,8697
Note_On_96_Vel_117,8698
Note_On_96_Vel_118,8699
Note_On_97_Vel_0,8700
Note_On_97_Vel_3,8701
Note_On_97_Vel_5,8702
Note_On_97_Vel_6,8703
Note_On_97_Vel_7,8704
Note_On_97_Vel_8,8705
Note_On_97_Vel_9,8706
Note_On_97_Vel_10,8707
Note_On_97_Vel_11,8708
Note_On_97_Vel_12,8709
Note_On_97_Vel_13,8710
Note_On_97_Vel_14,8711
Note_On_97_Vel_15,8712
Note_On_97_Vel_16,8713
Note_On_97_Vel_17,8714
Note_On_97_Vel_18,8715
Note_On_97_Vel_19,8716
Note_On_97_Vel_20,8717
Note_On_97_Vel_21,8718
Note_On_97_Vel_22,8719
Note_On_97_Vel_23,8720
Note_On_97_Vel_24,8721
Note_On_97_Vel_25,8722
Note_On_97_Vel_26,8723
Note_On_97_Vel_27,8724
Note_On_97_Vel_28,8725
Note_On_97_Vel_29,8726
Note_On_97_Vel_30,8727
Note_On_97_Vel_31,8728
Note_On_97_Vel_32,8729
Note_On_97_Vel_33,8730
Note_On_97_Vel_34,8731
Note_On_97_Vel_35,8732
Note_On_97_Vel_36,8733
Note_On_97_Vel_37,8734
Note_On_97_Vel_38,8735
Note_On_97_Vel_39,8736
Note_On_97_Vel_40,8737
Note_On_97_Vel_41,8738
Note_On_97_Vel_42,8739
Note_On_97_Vel_43,8740
Note_On_97_Vel_44,8741
Note_On_97_Vel_45,8742
Note_On_97_Vel_46,8743
Note_On_97_Vel_47,8744
Note_On_97_Vel_48,8745
Note_On_97_Vel_49,8746
Note_On_97_Vel_50,8747
Note_On_97_Vel_51,8748
Note_On_97_Vel_52,8749
Note_On_97_Vel_53,8750
Note_On_97_Vel_54,8751
Note_On_97_Vel_55,8752
Note_On_97_Vel_56,8753
Note_On_97_Vel_57,8754
Note_On_97_Vel_58,8755
Note_On_97_Vel_59,8756
Note_On_97_Vel_60,8757
Note_On_97_Vel_61,8758
Note_On_97_Vel_62,8759
Note_On_97_Vel_63,8760
Note_On_97_Vel_64,8761
Note_On_97_Vel_65,8762
Note_On_97_Vel_66,8763
Note_On_97_Vel_67,8764
Note_On_97_Vel_68,8765
Note_On_97_Vel_69,8766
Note_On_97_Vel_70,8767
Note_On_97_Vel_71,8768
Note_On_97_Vel_72,8769
Note_On_97_Vel_73,8770
Note_On_97_Vel_74,8771
Note_On_97_Vel_75,8772
Note_On_97_Vel_76,8773
Note_On_97_Vel_77,8774
Note_On_97_Vel_78,8775
Note_On_97_Vel_79,8776
Note_On_97_Vel_80,8777
Note_On_97_Vel_81,8778
Note_On_97_Vel_82,8779
Note_On_97_Vel_83,8780
Note_On_97_Vel_84,8781
Note_On_97_Vel_85,8782
Note_On_97_Vel_86,8783
Note_On_97_Vel_87,8784
Note_On_97_Vel_88,8785
Note_On_97_Vel_89,8786
Note_On_97_Vel_90,8787
Note_On_97_Vel_91,8788
Note_On_97_Vel_92,8789
Note_On_97_Vel_93,8790
Note_On_97_Vel_94,8791
Note_On_97_Vel_95,8792
Note_On_97_Vel_96,8793
Note_On_97_Vel_97,8794
Note_On_97_Vel_98,8795
Note_On_97_Vel_99,8796
Note_On_97_Vel_100,8797
Note_On_97_Vel_101,8798
Note_On_97_Vel_102,8799
Note_On_97_Vel_103,8800
Note_On_97_Vel_104,8801
Note_On_97_Vel_105,8802
Note_On_97_Vel_106,8803
Note_On_97_Vel_107,8804
Note_On_97_Vel_108,8805
Note_On_97_Vel_109,8806
Note_On_97_Vel_110,8807
Note_On_97_Vel_111,8808
Note_On_97_Vel_112,8809
Note_On_97_Vel_113,8810
Note_On_97_Vel_114,8811
Note_On_97_Vel_115,8812
Note_On_97_Vel_116,8813
Note_On_97_Vel_117,8814
Note_On_97_Vel_118,8815
Note_On_98_Vel_0,8816
Note_On_98_Vel_3,8817
Note_On_98_Vel_5,8818
Note_On_98_Vel_6,8819
Note_On_98_Vel_7,8820
Note_On_98_Vel_8,8821
Note_On_98_Vel_9,8822
Note_On_98_Vel_10,8823
Note_On_98_Vel_11,8824
Note_On_98_Vel_12,8825
Note_On_98_Vel_13,8826
Note_On_98_Vel_14,8827
Note_On_98_Vel_15,8828
Note_On_98_Vel_16,8829
Note_On_98_Vel_17,8830
Note_On_98_Vel_18,8831
Note_On_98_Vel_19,8832
Note_On_98_Vel_20,8833
Note_On_98_Vel_21,8834
Note_On_98_Vel_22,8835
Note_On_98_Vel_23,8836
Note_On_98_Vel_24,8837
Note_On_98_Vel_25,8838
Note_On_98_Vel_26,8839
Note_On_98_Vel_27,8840
Note_On_98_Vel_28,8841
Note_On_98_Vel_29,8842
Note_On_98_Vel_30,8843
Note_On_98_Vel_31,8844
Note_On_98_Vel_32,8845
Note_On_98_Vel_33,8846
Note_On_98_Vel_34,8847
Note_On_98_Vel_35,8848
Note_On_98_Vel_36,8849
Note_On_98_Vel_37,8850
Note_On_98_Vel_38,8851
Note_On_98_Vel_39,8852
Note_On_98_Vel_40,8853
Note_On_98_Vel_41,8854
Note_On_98_Vel_42,8855
Note_On_98_Vel_43,8856
Note_On_98_Vel_44,8857
Note_On_98_Vel_45,8858
Note_On_98_Vel_46,8859
Note_On_98_Vel_47,8860
Note_On_98_Vel_48,8861
Note_On_98_Vel_49,8862
Note_On_98_Vel_50,8863
Note_On_98_Vel_51,8864
Note_On_98_Vel_52,8865
Note_On_98_Vel_53,8866
Note_On_98_Vel_54,8867
Note_On_98_Vel_55,8868
Note_On_98_Vel_56,8869
Note_On_98_Vel_57,8870
Note_On_98_Vel_58,8871
Note_On_98_Vel_59,8872
Note_On_98_Vel_60,8873
Note_On_98_Vel_61,8874
Note_On_98_Vel_62,8875
Note_On_98_Vel_63,8876
Note_On_98_Vel_64,8877
Note_On_98_Vel_65,8878
Note_On_98_Vel_66,8879
Note_On_98_Vel_67,8880
Note_On_98_Vel_68,8881
Note_On_98_Vel_69,8882
Note_On_98_Vel_70,8883
Note_On_98_Vel_71,8884
Note_On_98_Vel_72,8885
Note_On_98_Vel_73,8886
Note_On_98_Vel_74,8887
Note_On_98_Vel_75,8888
Note_On_98_Vel_76,8889
Note_On_98_Vel_77,8890
Note_On_98_Vel_78,8891
Note_On_98_Vel_79,8892
Note_On_98_Vel_80,8893
Note_On_98_Vel_81,8894
Note_On_98_Vel_82,8895
Note_On_98_Vel_83,8896
Note_On_98_Vel_84,8897
Note_On_98_Vel_85,8898
Note_On_98_Vel_86,8899
Note_On_98_Vel_87,8900
Note_On_98_Vel_88,8901
Note_On_98_Vel_89,8902
Note_On_98_Vel_90,8903
Note_On_98_Vel_91,8904
Note_On_98_Vel_92,8905
Note_On_98_Vel_93,8906
Note_On_98_Vel_94,8907
Note_On_98_Vel_95,8908
Note_On_98_Vel_96,8909
Note_On_98_Vel_97,8910
Note_On_98_Vel_98,8911
Note_On_98_Vel_99,8912
Note_On_98_Vel_100,8913
Note_On_98_Vel_101,8914
Note_On_98_Vel_102,8915
Note_On_98_Vel_103,8916
Note_On_98_Vel_104,8917
Note_On_98_Vel_105,8918
Note_On_98_Vel_106,8919
Note_On_98_Vel_107,8920
Note_On_98_Vel_108,8921
Note_On_98_Vel_109,8922
Note_On_98_Vel_110,8923
Note_On_98_Vel_111,8924
Note_On_98_Vel_112,8925
Note_On_98_Vel_113,8926
Note_On_98_Vel_114,8927
Note_On_98_Vel_115,8928
Note_On_98_Vel_116,8929
Note_On_98_Vel_117,8930
Note_On_98_Vel_118,8931
Note_On_99_Vel_0,8932
Note_On_99_Vel_3,8933
Note_On_99_Vel_5,8934
Note_On_99_Vel_6,8935
Note_On_99_Vel_7,8936
Note_On_99_Vel_8,8937
Note_On_99_Vel_9,8938
Note_On_99_Vel_10,8939
Note_On_99_Vel_11,8940
Note_On_99_Vel_12,8941
Note_On_99_Vel_13,8942
Note_On_99_Vel_14,8943
Note_On_99_Vel_15,8944
Note_On_99_Vel_16,8945
Note_On_99_Vel_17,8946
Note_On_99_Vel_18,8947
Note_On_99_Vel_19,8948
Note_On_99_Vel_20,8949
Note_On_99_Vel_21,8950
Note_On_99_Vel_22,8951
Note_On_99_Vel_23,8952
Note_On_99_Vel_24,8953
Note_On_99_Vel_25,8954
Note_On_99_Vel_26,8955
Note_On_99_Vel_27,8956
Note_On_99_Vel_28,8957
Note_On_99_Vel_29,8958
Note_On_99_Vel_30,8959
Note_On_99_Vel_31,8960
Note_On_99_Vel_32,8961
Note_On_99_Vel_33,8962
Note_On_99_Vel_34,8963
Note_On_99_Vel_35,8964
Note_On_99_Vel_36,8965
Note_On_99_Vel_37,8966
Note_On_99_Vel_38,8967
Note_On_99_Vel_39,8968
Note_On_99_Vel_40,8969
Note_On_99_Vel_41,8970
Note_On_99_Vel_42,8971
Note_On_99_Vel_43,8972
Note_On_99_Vel_44,8973
Note_On_99_Vel_45,8974
Note_On_99_Vel_46,8975
Note_On_99_Vel_47,8976
Note_On_99_Vel_48,8977
Note_On_99_Vel_49,8978
Note_On_99_Vel_50,8979
Note_On_99_Vel_51,8980
Note_On_99_Vel_52,8981
Note_On_99_Vel_53,8982
Note_On_99_Vel_54,8983
Note_On_99_Vel_55,8984
Note_On_99_Vel_56,8985
Note_On_99_Vel_57,8986
Note_On_99_Vel_58,8987
Note_On_99_Vel_59,8988
Note_On_99_Vel_60,8989
Note_On_99_Vel_61,8990
Note_On_99_Vel_62,8991
Note_On_99_Vel_63,8992
Note_On_99_Vel_64,8993
Note_On_99_Vel_65,8994
Note_On_99_Vel_66,8995
Note_On_99_Vel_67,8996
Note_On_99_Vel_68,8997
Note_On_99_Vel_69,8998
Note_On_99_Vel_70,8999
Note_On_99_Vel_71,9000
Note_On_99_Vel_72,9001
Note_On_99_Vel_73,9002
Note_On_99_Vel_74,9003
Note_On_99_Vel_75,9004
Note_On_99_Vel_76,9005
Note_On_99_Vel_77,9006
Note_On_99_Vel_78,9007
Note_On_99_Vel_79,9008
Note_On_99_Vel_80,9009
Note_On_99_Vel_81,9010
Note_On_99_Vel_82,9011
Note_On_99_Vel_83,9012
Note_On_99_Vel_84,9013
Note_On_99_Vel_85,9014
Note_On_99_Vel_86,9015
Note_On_99_Vel_87,9016
Note_On_99_Vel_88,9017
Note_On_99_Vel_89,9018
Note_On_99_Vel_90,9019
Note_On_99_Vel_91,9020
Note_On_99_Vel_92,9021
Note_On_99_Vel_93,9022
Note_On_99_Vel_94,9023
Note_On_99_Vel_95,9024
Note_On_99_Vel_96,9025
Note_On_99_Vel_97,9026
Note_On_99_Vel_98,9027
Note_On_99_Vel_99,9028
Note_On_99_Vel_100,9029
Note_On_99_Vel_101,9030
Note_On_99_Vel_102,9031
Note_On_99_Vel_103,9032
Note_On_99_Vel_104,9033
Note_On_99_Vel_105,9034
Note_On_99_Vel_106,9035
Note_On_99_Vel_107,9036
Note_On_99_Vel_108,9037
Note_On_99_Vel_109,9038
Note_On_99_Vel_110,9039
Note_On_99_Vel_111,9040
Note_On_99_Vel_112,9041
Note_On_99_Vel_113,9042
Note_On_99_Vel_114,9043
Note_On_99_Vel_115,9044
Note_On_99_Vel_116,9045
Note_On_99_Vel_117,9046
Note_On_99_Vel_118,9047
Note_On_100_Vel_0,9048
Note_On_100_Vel_3,9049
Note_On_100_Vel_5,9050
Note_On_100_Vel_6,9051
Note_On_100_Vel_7,9052
Note_On_100_Vel_8,9053
Note_On_100_Vel_9,9054
Note_On_100_Vel_10,9055
Note_On_100_Vel_11,9056
Note_On_100_Vel_12,9057
Note_On_100_Vel_13,9058
Note_On_100_Vel_14,9059
Note_On_100_Vel_15,9060
Note_On_100_Vel_16,9061
Note_On_100_Vel_17,9062
Note_On_100_Vel_18,9063
Note_On_100_Vel_19,9064
Note_On_100_Vel_20,9065
Note_On_100_Vel_21,9066
Note_On_100_Vel_22,9067
Note_On_100_Vel_23,9068
Note_On_100_Vel_24,9069
Note_On_100_Vel_25,9070
Note_On_100_Vel_26,9071
Note_On_100_Vel_27,9072
Note_On_100_Vel_28,9073
Note_On_100_Vel_29,9074
Note_On_100_Vel_30,9075
Note_On_100_Vel_31,9076
Note_On_100_Vel_32,9077
Note_On_100_Vel_33,9078
Note_On_100_Vel_34,9079
Note_On_100_Vel_35,9080
Note_On_100_Vel_36,9081
Note_On_100_Vel_37,9082
Note_On_100_Vel_38,9083
Note_On_100_Vel_39,9084
Note_On_100_Vel_40,9085
Note_On_100_Vel_41,9086
Note_On_100_Vel_42,9087
Note_On_100_Vel_43,9088
Note_On_100_Vel_44,9089
Note_On_100_Vel_45,9090
Note_On_100_Vel_46,9091
Note_On_100_Vel_47,9092
Note_On_100_Vel_48,9093
Note_On_100_Vel_49,9094
Note_On_100_Vel_50,9095
Note_On_100_Vel_51,9096
Note_On_100_Vel_52,9097
Note_On_100_Vel_53,9098
Note_On_100_Vel_54,9099
Note_On_100_Vel_55,9100
Note_On_100_Vel_56,9101
Note_On_100_Vel_57,9102
Note_On_100_Vel_58,9103
Note_On_100_Vel_59,9104
Note_On_100_Vel_60,9105
Note_On_100_Vel_61,9106
Note_On_100_Vel_62,9107
Note_On_100_Vel_63,9108
Note_On_100_Vel_64,9109
Note_On_100_Vel_65,9110
Note_On_100_Vel_66,9111
Note_On_100_Vel_67,9112
Note_On_100_Vel_68,9113
Note_On_100_Vel_69,9114
Note_On_100_Vel_70,9115
Note_On_100_Vel_71,9116
Note_On_100_Vel_72,9117
Note_On_100_Vel_73,9118
Note_On_100_Vel_74,9119
Note_On_100_Vel_75,9120
Note_On_100_Vel_76,9121
Note_On_100_Vel_77,9122
Note_On_100_Vel_78,9123
Note_On_100_Vel_79,9124
Note_On_100_Vel_80,9125
Note_On_100_Vel_81,9126
Note_On_100_Vel_82,9127
Note_On_100_Vel_83,9128
Note_On_100_Vel_84,9129
Note_On_100_Vel_85,9130
Note_On_100_Vel_86,9131
Note_On_100_Vel_87,9132
Note_On_100_Vel_88,9133
Note_On_100_Vel_89,9134
Note_On_100_Vel_90,9135
Note_On_100_Vel_91,9136
Note_On_100_Vel_92,9137
Note_On_100_Vel_93,9138
Note_On_100_Vel_94,9139
Note_On_100_Vel_95,9140
Note_On_100_Vel_96,9141
Note_On_100_Vel_97,9142
Note_On_100_Vel_98,9143
Note_On_100_Vel_99,9144
Note_On_100_Vel_100,9145
Note_On_100_Vel_101,9146
Note_On_100_Vel_102,9147
Note_On_100_Vel_103,9148
Note_On_100_Vel_104,9149
Note_On_100_Vel_105,9150
Note_On_100_Vel_106,9151
Note_On_100_Vel_107,9152
Note_On_100_Vel_108,9153
Note_On_100_Vel_109,9154
Note_On_100_Vel_110,9155
Note_On_100_Vel_111,9156
Note_On_100_Vel_112,9157
Note_On_100_Vel_113,9158
Note_On_100_Vel_114,9159
Note_On_100_Vel_115,9160
Note_On_100_Vel_116,9161
Note_On_100_Vel_117,9162
Note_On_100_Vel_118,9163
Note_On_101_Vel_0,9164
Note_On_101_Vel_3,9165
Note_On_101_Vel_5,9166
Note_On_101_Vel_6,9167
Note_On_101_Vel_7,9168
Note_On_101_Vel_8,9169
Note_On_101_Vel_9,9170
Note_On_101_Vel_10,9171
Note_On_101_Vel_11,9172
Note_On_101_Vel_12,9173
Note_On_101_Vel_13,9174
Note_On_101_Vel_14,9175
Note_On_101_Vel_15,9176
Note_On_101_Vel_16,9177
Note_On_101_Vel_17,9178
Note_On_101_Vel_18,9179
Note_On_101_Vel_19,9180
Note_On_101_Vel_20,9181
Note_On_101_Vel_21,9182
Note_On_101_Vel_22,9183
Note_On_101_Vel_23,9184
Note_On_101_Vel_24,9185
Note_On_101_Vel_25,9186
Note_On_101_Vel_26,9187
Note_On_101_Vel_27,9188
Note_On_101_Vel_28,9189
Note_On_101_Vel_29,9190
Note_On_101_Vel_30,9191
Note_On_101_Vel_31,9192
Note_On_101_Vel_32,9193
Note_On_101_Vel_33,9194
Note_On_101_Vel_34,9195
Note_On_101_Vel_35,9196
Note_On_101_Vel_36,9197
Note_On_101_Vel_37,9198
Note_On_101_Vel_38,9199
Note_On_101_Vel_39,9200
Note_On_101_Vel_40,9201
Note_On_101_Vel_41,9202
Note_On_101_Vel_42,9203
Note_On_101_Vel_43,9204
Note_On_101_Vel_44,9205
Note_On_101_Vel_45,9206
Note_On_101_Vel_46,9207
Note_On_101_Vel_47,9208
Note_On_101_Vel_48,9209
Note_On_101_Vel_49,9210
Note_On_101_Vel_50,9211
Note_On_101_Vel_51,9212
Note_On_101_Vel_52,9213
Note_On_101_Vel_53,9214
Note_On_101_Vel_54,9215
Note_On_101_Vel_55,9216
Note_On_101_Vel_56,9217
Note_On_101_Vel_57,9218
Note_On_101_Vel_58,9219
Note_On_101_Vel_59,9220
Note_On_101_Vel_60,9221
Note_On_101_Vel_61,9222
Note_On_101_Vel_62,9223
Note_On_101_Vel_63,9224
Note_On_101_Vel_64,9225
Note_On_101_Vel_65,9226
Note_On_101_Vel_66,9227
Note_On_101_Vel_67,9228
Note_On_101_Vel_68,9229
Note_On_101_Vel_69,9230
Note_On_101_Vel_70,9231
Note_On_101_Vel_71,9232
Note_On_101_Vel_72,9233
Note_On_101_Vel_73,9234
Note_On_101_Vel_74,9235
Note_On_101_Vel_75,9236
Note_On_101_Vel_76,9237
Note_On_101_Vel_77,9238
Note_On_101_Vel_78,9239
Note_On_101_Vel_79,9240
Note_On_101_Vel_80,9241
Note_On_101_Vel_81,9242
Note_On_101_Vel_82,9243
Note_On_101_Vel_83,9244
Note_On_101_Vel_84,9245
Note_On_101_Vel_85,9246
Note_On_101_Vel_86,9247
Note_On_101_Vel_87,9248
Note_On_101_Vel_88,9249
Note_On_101_Vel_89,9250
Note_On_101_Vel_90,9251
Note_On_101_Vel_91,9252
Note_On_101_Vel_92,9253
Note_On_101_Vel_93,9254
Note_On_101_Vel_94,9255
Note_On_101_Vel_95,9256
Note_On_101_Vel_96,9257
Note_On_101_Vel_97,9258
Note_On_101_Vel_98,9259
Note_On_101_Vel_99,9260
Note_On_101_Vel_100,9261
Note_On_101_Vel_101,9262
Note_On_101_Vel_102,9263
Note_On_101_Vel_103,9264
Note_On_101_Vel_104,9265
Note_On_101_Vel_105,9266
Note_On_101_Vel_106,9267
Note_On_101_Vel_107,9268
Note_On_101_Vel_108,9269
Note_On_101_Vel_109,9270
Note_On_101_Vel_110,9271
Note_On_101_Vel_111,9272
Note_On_101_Vel_112,9273
Note_On_101_Vel_113,9274
Note_On_101_Vel_114,9275
Note_On_101_Vel_115,9276
Note_On_101_Vel_116,9277
Note_On_101_Vel_117,9278
Note_On_101_Vel_118,9279
Note_On_102_Vel_0,9280
Note_On_102_Vel_3,9281
Note_On_102_Vel_5,9282
Note_On_102_Vel_6,9283
Note_On_102_Vel_7,9284
Note_On_102_Vel_8,9285
Note_On_102_Vel_9,9286
Note_On_102_Vel_10,9287
Note_On_102_Vel_11,9288
Note_On_102_Vel_12,9289
Note_On_102_Vel_13,9290
Note_On_102_Vel_14,9291
Note_On_102_Vel_15,9292
Note_On_102_Vel_16,9293
Note_On_102_Vel_17,9294
Note_On_102_Vel_18,9295
Note_On_102_Vel_19,9296
Note_On_102_Vel_20,9297
Note_On_102_Vel_21,9298
Note_On_102_Vel_22,9299
Note_On_102_Vel_23,9300
Note_On_102_Vel_24,9301
Note_On_102_Vel_25,9302
Note_On_102_Vel_26,9303
Note_On_102_Vel_27,9304
Note_On_102_Vel_28,9305
Note_On_102_Vel_29,9306
Note_On_102_Vel_30,9307
Note_On_102_Vel_31,9308
Note_On_102_Vel_32,9309
Note_On_102_Vel_33,9310
Note_On_102_Vel_34,9311
Note_On_102_Vel_35,9312
Note_On_102_Vel_36,9313
Note_On_102_Vel_37,9314
Note_On_102_Vel_38,9315
Note_On_102_Vel_39,9316
Note_On_102_Vel_40,9317
Note_On_102_Vel_41,9318
Note_On_102_Vel_42,9319
Note_On_102_Vel_43,9320
Note_On_102_Vel_44,9321
Note_On_102_Vel_45,9322
Note_On_102_Vel_46,9323
Note_On_102_Vel_47,9324
Note_On_102_Vel_48,9325
Note_On_102_Vel_49,9326
Note_On_102_Vel_50,9327
Note_On_102_Vel_51,9328
Note_On_102_Vel_52,9329
Note_On_102_Vel_53,9330
Note_On_102_Vel_54,9331
Note_On_102_Vel_55,9332
Note_On_102_Vel_56,9333
Note_On_102_Vel_57,9334
Note_On_102_Vel_58,9335
Note_On_102_Vel_59,9336
Note_On_102_Vel_60,9337
Note_On_102_Vel_61,9338
Note_On_102_Vel_62,9339
Note_On_102_Vel_63,9340
Note_On_102_Vel_64,9341
Note_On_102_Vel_65,9342
Note_On_102_Vel_66,9343
Note_On_102_Vel_67,9344
Note_On_102_Vel_68,9345
Note_On_102_Vel_69,9346
Note_On_102_Vel_70,9347
Note_On_102_Vel_71,9348
Note_On_102_Vel_72,9349
Note_On_102_Vel_73,9350
Note_On_102_Vel_74,9351
Note_On_102_Vel_75,9352
Note_On_102_Vel_76,9353
Note_On_102_Vel_77,9354
Note_On_102_Vel_78,9355
Note_On_102_Vel_79,9356
Note_On_102_Vel_80,9357
Note_On_102_Vel_81,9358
Note_On_102_Vel_82,9359
Note_On_102_Vel_83,9360
Note_On_102_Vel_84,9361
Note_On_102_Vel_85,9362
Note_On_102_Vel_86,9363
Note_On_102_Vel_87,9364
Note_On_102_Vel_88,9365
Note_On_102_Vel_89,9366
Note_On_102_Vel_90,9367
Note_On_102_Vel_91,9368
Note_On_102_Vel_92,9369
Note_On_102_Vel_93,9370
Note_On_102_Vel_94,9371
Note_On_102_Vel_95,9372
Note_On_102_Vel_96,9373
Note_On_102_Vel_97,9374
Note_On_102_Vel_98,9375
Note_On_102_Vel_99,9376
Note_On_102_Vel_100,9377
Note_On_102_Vel_101,9378
Note_On_102_Vel_102,9379
Note_On_102_Vel_103,9380
Note_On_102_Vel_104,9381
Note_On_102_Vel_105,9382
Note_On_102_Vel_106,9383
Note_On_102_Vel_107,9384
Note_On_102_Vel_108,9385
Note_On_102_Vel_109,9386
Note_On_102_Vel_110,9387
Note_On_102_Vel_111,9388
Note_On_102_Vel_112,9389
Note_On_102_Vel_113,9390
Note_On_102_Vel_114,9391
Note_On_102_Vel_115,9392
Note_On_102_Vel_116,9393
Note_On_102_Vel_117,9394
Note_On_102_Vel_118,9395
Note_On_103_Vel_0,9396
Note_On_103_Vel_3,9397
Note_On_103_Vel_5,9398
Note_On_103_Vel_6,9399
Note_On_103_Vel_7,9400
Note_On_103_Vel_8,9401
Note_On_103_Vel_9,9402
Note_On_103_Vel_10,9403
Note_On_103_Vel_11,9404
Note_On_103_Vel_12,9405
Note_On_103_Vel_13,9406
Note_On_103_Vel_14,9407
Note_On_103_Vel_15,9408
Note_On_103_Vel_16,9409
Note_On_103_Vel_17,9410
Note_On_103_Vel_18,9411
Note_On_103_Vel_19,9412
Note_On_103_Vel_20,9413
Note_On_103_Vel_21,9414
Note_On_103_Vel_22,9415
Note_On_103_Vel_23,9416
Note_On_103_Vel_24,9417
Note_On_103_Vel_25,9418
Note_On_103_Vel_26,9419
Note_On_103_Vel_27,9420
Note_On_103_Vel_28,9421
Note_On_103_Vel_29,9422
Note_On_103_Vel_30,9423
Note_On_103_Vel_31,9424
Note_On_103_Vel_32,9425
Note_On_103_Vel_33,9426
Note_On_103_Vel_34,9427
Note_On_103_Vel_35,9428
Note_On_103_Vel_36,9429
Note_On_103_Vel_37,9430
Note_On_103_Vel_38,9431
Note_On_103_Vel_39,9432
Note_On_103_Vel_40,9433
Note_On_103_Vel_41,9434
Note_On_103_Vel_42,9435
Note_On_103_Vel_43,9436
Note_On_103_Vel_44,9437
Note_On_103_Vel_45,9438
Note_On_103_Vel_46,9439
Note_On_103_Vel_47,9440
Note_On_103_Vel_48,9441
Note_On_103_Vel_49,9442
Note_On_103_Vel_50,9443
Note_On_103_Vel_51,9444
Note_On_103_Vel_52,9445
Note_On_103_Vel_53,9446
Note_On_103_Vel_54,9447
Note_On_103_Vel_55,9448
Note_On_103_Vel_56,9449
Note_On_103_Vel_57,9450
Note_On_103_Vel_58,9451
Note_On_103_Vel_59,9452
Note_On_103_Vel_60,9453
Note_On_103_Vel_61,9454
Note_On_103_Vel_62,9455
Note_On_103_Vel_63,9456
Note_On_103_Vel_64,9457
Note_On_103_Vel_65,9458
Note_On_103_Vel_66,9459
Note_On_103_Vel_67,9460
Note_On_103_Vel_68,9461
Note_On_103_Vel_69,9462
Note_On_103_Vel_70,9463
Note_On_103_Vel_71,9464
Note_On_103_Vel_72,9465
Note_On_103_Vel_73,9466
Note_On_103_Vel_74,9467
Note_On_103_Vel_75,9468
Note_On_103_Vel_76,9469
Note_On_103_Vel_77,9470
Note_On_103_Vel_78,9471
Note_On_103_Vel_79,9472
Note_On_103_Vel_80,9473
Note_On_103_Vel_81,9474
Note_On_103_Vel_82,9475
Note_On_103_Vel_83,9476
Note_On_103_Vel_84,9477
Note_On_103_Vel_85,9478
Note_On_103_Vel_86,9479
Note_On_103_Vel_87,9480
Note_On_103_Vel_88,9481
Note_On_103_Vel_89,9482
Note_On_103_Vel_90,9483
Note_On_103_Vel_91,9484
Note_On_103_Vel_92,9485
Note_On_103_Vel_93,9486
Note_On_103_Vel_94,9487
Note_On_103_Vel_95,9488
Note_On_103_Vel_96,9489
Note_On_103_Vel_97,9490
Note_On_103_Vel_98,9491
Note_On_103_Vel_99,9492
Note_On_103_Vel_100,9493
Note_On_103_Vel_101,9494
Note_On_103_Vel_102,9495
Note_On_103_Vel_103,9496
Note_On_103_Vel_104,9497
Note_On_103_Vel_105,9498
Note_On_103_Vel_106,9499
Note_On_103_Vel_107,9500
Note_On_103_Vel_108,9501
Note_On_103_Vel_109,9502
Note_On_103_Vel_110,9503
Note_On_103_Vel_111,9504
Note_On_103_Vel_112,9505
Note_On_103_Vel_113,9506
Note_On_103_Vel_114,9507
Note_On_103_Vel_115,9508
Note_On_103_Vel_116,9509
Note_On_103_Vel_117,9510
Note_On_103_Vel_118,9511
Note_On_104_Vel_0,9512
Note_On_104_Vel_3,9513
Note_On_104_Vel_5,9514
Note_On_104_Vel_6,9515
Note_On_104_Vel_7,9516
Note_On_104_Vel_8,9517
Note_On_104_Vel_9,9518
Note_On_104_Vel_10,9519
Note_On_104_Vel_11,9520
Note_On_104_Vel_12,9521
Note_On_104_Vel_13,9522
Note_On_104_Vel_14,9523
Note_On_104_Vel_15,9524
Note_On_104_Vel_16,9525
Note_On_104_Vel_17,9526
Note_On_104_Vel_18,9527
Note_On_104_Vel_19,9528
Note_On_104_Vel_20,9529
Note_On_104_Vel_21,9530
Note_On_104_Vel_22,9531
Note_On_104_Vel_23,9532
Note_On_104_Vel_24,9533
Note_On_104_Vel_25,9534
Note_On_104_Vel_26,9535
Note_On_104_Vel_27,9536
Note_On_104_Vel_28,9537
Note_On_104_Vel_29,9538
Note_On_104_Vel_30,9539
Note_On_104_Vel_31,9540
Note_On_104_Vel_32,9541
Note_On_104_Vel_33,9542
Note_On_104_Vel_34,9543
Note_On_104_Vel_35,9544
Note_On_104_Vel_36,9545
Note_On_104_Vel_37,9546
Note_On_104_Vel_38,9547
Note_On_104_Vel_39,9548
Note_On_104_Vel_40,9549
Note_On_104_Vel_41,9550
Note_On_104_Vel_42,9551
Note_On_104_Vel_43,9552
Note_On_104_Vel_44,9553
Note_On_104_Vel_45,9554
Note_On_104_Vel_46,9555
Note_On_104_Vel_47,9556
Note_On_104_Vel_48,9557
Note_On_104_Vel_49,9558
Note_On_104_Vel_50,9559
Note_On_104_Vel_51,9560
Note_On_104_Vel_52,9561
Note_On_104_Vel_53,9562
Note_On_104_Vel_54,9563
Note_On_104_Vel_55,9564
Note_On_104_Vel_56,9565
Note_On_104_Vel_57,9566
Note_On_104_Vel_58,9567
Note_On_104_Vel_59,9568
Note_On_104_Vel_60,9569
Note_On_104_Vel_61,9570
Note_On_104_Vel_62,9571
Note_On_104_Vel_63,9572
Note_On_104_Vel_64,9573
Note_On_104_Vel_65,9574
Note_On_104_Vel_66,9575
Note_On_104_Vel_67,9576
Note_On_104_Vel_68,9577
Note_On_104_Vel_69,9578
Note_On_104_Vel_70,9579
Note_On_104_Vel_71,9580
Note_On_104_Vel_72,9581
Note_On_104_Vel_73,9582
Note_On_104_Vel_74,9583
Note_On_104_Vel_75,9584
Note_On_104_Vel_76,9585
Note_On_104_Vel_77,9586
Note_On_104_Vel_78,9587
Note_On_104_Vel_79,9588
Note_On_104_Vel_80,9589
Note_On_104_Vel_81,9590
Note_On_104_Vel_82,9591
Note_On_104_Vel_83,9592
Note_On_104_Vel_84,9593
Note_On_104_Vel_85,9594
Note_On_104_Vel_86,9595
Note_On_104_Vel_87,9596
Note_On_104_Vel_88,9597
Note_On_104_Vel_89,9598
Note_On_104_Vel_90,9599
Note_On_104_Vel_91,9600
Note_On_104_Vel_92,9601
Note_On_104_Vel_93,9602
Note_On_104_Vel_94,9603
Note_On_104_Vel_95,9604
Note_On_104_Vel_96,9605
Note_On_104_Vel_97,9606
Note_On_104_Vel_98,9607
Note_On_104_Vel_99,9608
Note_On_104_Vel_100,9609
Note_On_104_Vel_101,9610
Note_On_104_Vel_102,9611
Note_On_104_Vel_103,9612
Note_On_104_Vel_104,9613
Note_On_104_Vel_105,9614
Note_On_104_Vel_106,9615
Note_On_104_Vel_107,9616
Note_On_104_Vel_108,9617
Note_On_104_Vel_109,9618
Note_On_104_Vel_110,9619
Note_On_104_Vel_111,9620
Note_On_104_Vel_112,9621
Note_On_104_Vel_113,9622
Note_On_104_Vel_114,9623
Note_On_104_Vel_115,9624
Note_On_104_Vel_116,9625
Note_On_104_Vel_117,9626
Note_On_104_Vel_118,9627
Time_Shift_1,9628
Time_Shift_2,9629
Time_Shift_3,9630
Time_Shift_4,9631
Time_Shift_5,9632
Time_Shift_6,9633
Time_Shift_7,9634
Time_Shift_8,9635
Time_Shift_9,9636
Time_Shift_10,9637
Time_Shift_11,9638
Time_Shift_12,9639
Time_Shift_13,9640
Time_Shift_14,9641
Time_Shift_15,9642
Time_Shift_16,9643
Time_Shift_17,9644
Time_Shift_18,9645
Time_Shift_19,9646
Time_Shift_20,9647
Time_Shift_21,9648
Time_Shift_22,9649
Time_Shift_23,9650
Time_Shift_24,9651
Time_Shift_25,9652
Time_Shift_26,9653
Time_Shift_27,9654
Time_Shift_28,9655
Time_Shift_29,9656
Time_Shift_30,9657
Time_Shift_31,9658
Time_Shift_32,9659
Time_Shift_33,9660
Time_Shift_34,9661
Time_Shift_35,9662
Time_Shift_36,9663
Time_Shift_37,9664
Time_Shift_38,9665
Time_Shift_39,9666
Time_Shift_40,9667
Time_Shift_41,9668
Time_Shift_42,9669
Time_Shift_43,9670
Time_Shift_44,9671
Time_Shift_45,9672
Time_Shift_46,9673
Time_Shift_47,9674
Time_Shift_48,9675
Time_Shift_49,9676
Time_Shift_50,9677
Time_Shift_51,9678
Time_Shift_52,9679
Time_Shift_53,9680
Time_Shift_54,9681
Time_Shift_55,9682
Time_Shift_56,9683
Time_Shift_57,9684
Time_Shift_58,9685
Time_Shift_59,9686
Time_Shift_60,9687
Time_Shift_61,9688
Time_Shift_62,9689
Time_Shift_63,9690
Time_Shift_64,9691
Time_Shift_65,9692
Time_Shift_66,9693
Time_Shift_67,9694
Time_Shift_68,9695
Time_Shift_69,9696
Time_Shift_70,9697
Time_Shift_71,9698
Time_Shift_72,9699
Time_Shift_73,9700
Time_Shift_74,9701
Time_Shift_75,9702
Time_Shift_76,9703
Time_Shift_77,9704
Time_Shift_78,9705
Time_Shift_79,9706
Time_Shift_80,9707
Time_Shift_81,9708
Time_Shift_82,9709
Time_Shift_83,9710
Time_Shift_84,9711
Time_Shift_85,9712
Time_Shift_86,9713
Time_Shift_87,9714
Time_Shift_88,9715
Time_Shift_89,9716
Time_Shift_90,9717
Time_Shift_91,9718
Time_Shift_92,9719
Time_Shift_93,9720
Time_Shift_94,9721
Time_Shift_95,9722
Time_Shift_96,9723
Time_Shift_97,9724
Time_Shift_98,9725
Time_Shift_99,9726
Time_Shift_100,9727
Time_Shift_101,9728
Time_Shift_102,9729
Time_Shift_103,9730
Time_Shift_104,9731
Time_Shift_105,9732
Time_Shift_106,9733
Time_Shift_107,9734
Time_Shift_108,9735
Time_Shift_109,9736
Time_Shift_110,9737
Time_Shift_111,9738
Time_Shift_112,9739
Time_Shift_113,9740
Time_Shift_114,9741
Time_Shift_115,9742
Time_Shift_116,9743
Time_Shift_117,9744
Time_Shift_118,9745
Time_Shift_119,9746
Time_Shift_120,9747
Time_Shift_121,9748
Time_Shift_122,9749
Time_Shift_123,9750
Time_Shift_124,9751
Time_Shift_125,9752
Time_Shift_126,9753
Time_Shift_127,9754
Time_Shift_128,9755
Time_Shift_129,9756
Time_Shift_130,9757
Time_Shift_131,9758
Time_Shift_132,9759
Time_Shift_133,9760
Time_Shift_134,9761
Time_Shift_135,9762
Time_Shift_136,9763
Time_Shift_137,9764
Time_Shift_138,9765
Time_Shift_139,9766
Time_Shift_140,9767
Time_Shift_141,9768
Time_Shift_142,9769
Time_Shift_143,9770
Time_Shift_144,9771
Time_Shift_145,9772
Time_Shift_146,9773
Time_Shift_147,9774
Time_Shift_148,9775
Time_Shift_149,9776
Time_Shift_150,9777
Time_Shift_151,9778
Time_Shift_152,9779
Time_Shift_153,9780
Time_Shift_154,9781
Time_Shift_155,9782
Time_Shift_156,9783
Time_Shift_157,9784
Time_Shift_158,9785
Time_Shift_159,9786
Time_Shift_160,9787
Time_Shift_161,9788
Time_Shift_162,9789
Time_Shift_163,9790
Time_Shift_164,9791
Time_Shift_165,9792
Time_Shift_166,9793
Time_Shift_167,9794
Time_Shift_168,9795
Time_Shift_169,9796
Time_Shift_170,9797
Time_Shift_171,9798
Time_Shift_172,9799
Time_Shift_173,9800
Time_Shift_174,9801
Time_Shift_175,9802
Time_Shift_176,9803
Time_Shift_177,9804
Time_Shift_178,9805
Time_Shift_179,9806
Time_Shift_180,9807
Time_Shift_181,9808
Time_Shift_182,9809
Time_Shift_183,9810
Time_Shift_184,9811
Time_Shift_185,9812
Time_Shift_186,9813
Time_Shift_187,9814
Time_Shift_188,9815
Time_Shift_189,9816
Time_Shift_190,9817
Time_Shift_191,9818
Time_Shift_192,9819
Time_Shift_193,9820
Time_Shift_194,9821
Time_Shift_195,9822
Time_Shift_196,9823
Time_Shift_197,9824
Time_Shift_198,9825
Time_Shift_199,9826
Time_Shift_200,9827
Time_Shift_201,9828
Time_Shift_202,9829
Time_Shift_203,9830
Time_Shift_204,9831
Time_Shift_205,9832
Time_Shift_206,9833
Time_Shift_207,9834
Time_Shift_208,9835
Time_Shift_209,9836
Time_Shift_210,9837
Time_Shift_211,9838
Time_Shift_212,9839
Time_Shift_213,9840
Time_Shift_214,9841
Time_Shift_215,9842
Time_Shift_216,9843
Time_Shift_217,9844
Time_Shift_218,9845
Time_Shift_219,9846
Time_Shift_220,9847
Time_Shift_221,9848
Time_Shift_222,9849
Time_Shift_223,9850
Time_Shift_224,9851
Time_Shift_225,9852
Time_Shift_226,9853
Time_Shift_227,9854
Time_Shift_228,9855
Time_Shift_229,9856
Time_Shift_230,9857
Time_Shift_231,9858
Time_Shift_232,9859
Time_Shift_233,9860
Time_Shift_234,9861
Time_Shift_235,9862
Time_Shift_236,9863
Time_Shift_237,9864
Time_Shift_238,9865
Time_Shift_239,9866
Time_Shift_240,9867
Time_Shift_241,9868
Time_Shift_242,9869
Time_Shift_243,9870
Time_Shift_244,9871
Time_Shift_245,9872
Time_Shift_246,9873
Time_Shift_247,9874
Time_Shift_248,9875
Time_Shift_249,9876
Time_Shift_250,9877
Time_Shift_251,9878
Time_Shift_252,9879
Time_Shift_253,9880
Time_Shift_254,9881
Time_Shift_255,9882
Time_Shift_256,9883
Time_Shift_257,9884
Time_Shift_258,9885
Time_Shift_259,9886
Time_Shift_260,9887
Time_Shift_261,9888
Time_Shift_262,9889
Time_Shift_263,9890
Time_Shift_264,9891
Time_Shift_265,9892
Time_Shift_266,9893
Time_Shift_267,9894
Time_Shift_268,9895
Time_Shift_269,9896
Time_Shift_270,9897
Time_Shift_271,9898
Time_Shift_272,9899
Time_Shift_273,9900
Time_Shift_274,9901
Time_Shift_275,9902
Time_Shift_276,9903
Time_Shift_277,9904
Time_Shift_278,9905
Time_Shift_279,9906
Time_Shift_280,9907
Time_Shift_281,9908
Time_Shift_282,9909
Time_Shift_283,9910
Time_Shift_284,9911
Time_Shift_285,9912
Time_Shift_286,9913
Time_Shift_287,9914
Time_Shift_288,9915
Time_Shift_289,9916
Time_Shift_290,9917
Time_Shift_291,9918
Time_Shift_292,9919
Time_Shift_293,9920
Time_Shift_294,9921
Time_Shift_295,9922
Time_Shift_296,9923
Time_Shift_297,9924
Time_Shift_298,9925
Time_Shift_299,9926
Time_Shift_300,9927
Time_Shift_301,9928
Time_Shift_302,9929
Time_Shift_303,9930
Time_Shift_304,9931
Time_Shift_305,9932
Time_Shift_306,9933
Time_Shift_307,9934
Time_Shift_308,9935
Time_Shift_309,9936
Time_Shift_310,9937
Time_Shift_311,9938
Time_Shift_312,9939
Time_Shift_313,9940
Time_Shift_314,9941
Time_Shift_315,9942
Time_Shift_316,9943
Time_Shift_317,9944
Time_Shift_318,9945
Time_Shift_319,9946
Time_Shift_320,9947
Time_Shift_321,9948
Time_Shift_322,9949
Time_Shift_323,9950
Time_Shift_324,9951
Time_Shift_325,9952
Time_Shift_326,9953
Time_Shift_327,9954
Time_Shift_328,9955
Time_Shift_329,9956
Time_Shift_330,9957
Time_Shift_331,9958
Time_Shift_332,9959
Time_Shift_333,9960
Time_Shift_334,9961
Time_Shift_335,9962
Time_Shift_336,9963
Time_Shift_337,9964
Time_Shift_338,9965
Time_Shift_339,9966
Time_Shift_340,9967
Time_Shift_341,9968
Time_Shift_342,9969
Time_Shift_343,9970
Time_Shift_344,9971
Time_Shift_345,9972
Time_Shift_346,9973
Time_Shift_347,9974
Time_Shift_348,9975
Time_Shift_349,9976
Time_Shift_350,9977
Time_Shift_351,9978
Time_Shift_352,9979
Time_Shift_353,9980
Time_Shift_354,9981
Time_Shift_355,9982
Time_Shift_356,9983
Time_Shift_357,9984
Time_Shift_358,9985
Time_Shift_359,9986
Time_Shift_360,9987
Time_Shift_361,9988
Time_Shift_362,9989
Time_Shift_363,9990
Time_Shift_364,9991
Time_Shift_365,9992
Time_Shift_366,9993
Time_Shift_367,9994
Time_Shift_368,9995
Time_Shift_369,9996
Time_Shift_370,9997
Time_Shift_371,9998
Time_Shift_372,9999
Time_Shift_373,10000
Time_Shift_374,10001
Time_Shift_375,10002
Time_Shift_376,10003
Time_Shift_377,10004
Time_Shift_378,10005
Time_Shift_379,10006
Time_Shift_380,10007
Time_Shift_381,10008
Time_Shift_382,10009
Time_Shift_383,10010
Time_Shift_384,10011
Time_Shift_385,10012
Time_Shift_386,10013
Time_Shift_387,10014
Time_Shift_388,10015
Time_Shift_389,10016
Time_Shift_390,10017
Time_Shift_391,10018
Time_Shift_392,10019
Time_Shift_393,10020
Time_Shift_394,10021
Time_Shift_395,10022
Time_Shift_396,10023
Time_Shift_397,10024
Time_Shift_398,10025
Time_Shift_399,10026
Time_Shift_400,10027
Time_Shift_401,10028
Time_Shift_402,10029
Time_Shift_403,10030
Time_Shift_404,10031
Time_Shift_405,10032
Time_Shift_406,10033
Time_Shift_407,10034
Time_Shift_408,10035
Time_Shift_409,10036
Time_Shift_410,10037
Time_Shift_411,10038
Time_Shift_412,10039
Time_Shift_413,10040
Time_Shift_414,10041
Time_Shift_415,10042
Time_Shift_416,10043
Time_Shift_417,10044
Time_Shift_418,10045
Time_Shift_419,10046
Time_Shift_420,10047
Time_Shift_421,10048
Time_Shift_422,10049
Time_Shift_423,10050
Time_Shift_424,10051
Time_Shift_425,10052
Time_Shift_426,10053
Time_Shift_427,10054
Time_Shift_428,10055
Time_Shift_429,10056
Time_Shift_430,10057
Time_Shift_431,10058
Time_Shift_432,10059
Time_Shift_433,10060
Time_Shift_434,10061
Time_Shift_435,10062
Time_Shift_436,10063
Time_Shift_437,10064
Time_Shift_438,10065
Time_Shift_439,10066
Time_Shift_440,10067
Time_Shift_441,10068
Time_Shift_442,10069
Time_Shift_443,10070
Time_Shift_444,10071
Time_Shift_445,10072
Time_Shift_446,10073
Time_Shift_447,10074
Time_Shift_448,10075
Time_Shift_449,10076
Time_Shift_450,10077
Time_Shift_451,10078
Time_Shift_452,10079
Time_Shift_453,10080
Time_Shift_454,10081
Time_Shift_455,10082
Time_Shift_456,10083
Time_Shift_457,10084
Time_Shift_458,10085
Time_Shift_459,10086
Time_Shift_460,10087
Time_Shift_461,10088
Time_Shift_462,10089
Time_Shift_463,10090
Time_Shift_464,10091
Time_Shift_465,10092
Time_Shift_466,10093
Time_Shift_467,10094
Time_Shift_468,10095
Time_Shift_469,10096
Time_Shift_470,10097
Time_Shift_471,10098
Time_Shift_472,10099
Time_Shift_473,10100
Time_Shift_474,10101
Time_Shift_475,10102
Time_Shift_476,10103
Time_Shift_477,10104
Time_Shift_478,10105
Time_Shift_479,10106
Time_Shift_480,10107
Time_Shift_481,10108
Time_Shift_482,10109
Time_Shift_483,10110
Time_Shift_484,10111
Time_Shift_485,10112
Time_Shift_486,10113
Time_Shift_487,10114
Time_Shift_488,10115
Time_Shift_489,10116
Time_Shift_490,10117
Time_Shift_491,10118
Time_Shift_492,10119
Time_Shift_493,10120
Time_Shift_494,10121
Time_Shift_495,10122
Time_Shift_496,10123
Time_Shift_497,10124
Time_Shift_498,10125
Time_Shift_499,10126
Time_Shift_500,10127
Time_Shift_501,10128
Time_Shift_502,10129
Time_Shift_503,10130
Time_Shift_504,10131
Time_Shift_505,10132
Time_Shift_506,10133
Time_Shift_507,10134
Time_Shift_508,10135
Time_Shift_509,10136
Time_Shift_510,10137
Time_Shift_511,10138
Time_Shift_512,10139
Time_Shift_513,10140
Time_Shift_514,10141
Time_Shift_515,10142
Time_Shift_516,10143
Time_Shift_517,10144
Time_Shift_518,10145
Time_Shift_519,10146
Time_Shift_520,10147
Time_Shift_521,10148
Time_Shift_522,10149
Time_Shift_523,10150
Time_Shift_524,10151
Time_Shift_525,10152
Time_Shift_526,10153
Time_Shift_527,10154
Time_Shift_528,10155
Time_Shift_529,10156
Time_Shift_530,10157
Time_Shift_531,10158
Time_Shift_532,10159
Time_Shift_533,10160
Time_Shift_534,10161
Time_Shift_535,10162
Time_Shift_536,10163
Time_Shift_537,10164
Time_Shift_538,10165
Time_Shift_539,10166
Time_Shift_540,10167
Time_Shift_541,10168
Time_Shift_542,10169
Time_Shift_543,10170
Time_Shift_544,10171
Time_Shift_545,10172
Time_Shift_546,10173
Time_Shift_547,10174
Time_Shift_548,10175
Time_Shift_549,10176
Time_Shift_550,10177
Time_Shift_551,10178
Time_Shift_552,10179
Time_Shift_553,10180
Time_Shift_554,10181
Time_Shift_555,10182
Time_Shift_556,10183
Time_Shift_557,10184
Time_Shift_558,10185
Time_Shift_559,10186
Time_Shift_560,10187
Time_Shift_561,10188
Time_Shift_562,10189
Time_Shift_563,10190
Time_Shift_564,10191
Time_Shift_565,10192
Time_Shift_566,10193
Time_Shift_567,10194
Time_Shift_568,10195
Time_Shift_569,10196
Time_Shift_570,10197
Time_Shift_571,10198
Time_Shift_572,10199
Time_Shift_573,10200
Time_Shift_574,10201
Time_Shift_575,10202
Time_Shift_576,10203
Time_Shift_577,10204
Time_Shift_578,10205
Time_Shift_579,10206
Time_Shift_580,10207
Time_Shift_581,10208
Time_Shift_582,10209
Time_Shift_583,10210
Time_Shift_584,10211
Time_Shift_585,10212
Time_Shift_586,10213
Time_Shift_587,10214
Time_Shift_588,10215
Time_Shift_589,10216
Time_Shift_590,10217
Time_Shift_591,10218
Time_Shift_592,10219
Time_Shift_593,10220
Time_Shift_594,10221
Time_Shift_595,10222
Time_Shift_596,10223
Time_Shift_597,10224
Time_Shift_598,10225
Time_Shift_599,10226
Time_Shift_600,10227
Time_Shift_601,10228
Time_Shift_602,10229
Time_Shift_603,10230
Time_Shift_604,10231
Time_Shift_605,10232
Time_Shift_606,10233
Time_Shift_607,10234
Time_Shift_608,10235
Time_Shift_609,10236
Time_Shift_610,10237
Time_Shift_611,10238
Time_Shift_612,10239
Time_Shift_613,10240
Time_Shift_614,10241
Time_Shift_615,10242
Time_Shift_616,10243
Time_Shift_617,10244
Time_Shift_618,10245
Time_Shift_619,10246
Time_Shift_620,10247
Time_Shift_621,10248
Time_Shift_622,10249
Time_Shift_623,10250
Time_Shift_624,10251
Time_Shift_625,10252
Time_Shift_626,10253
Time_Shift_627,10254
Time_Shift_628,10255
Time_Shift_629,10256
Time_Shift_630,10257
Time_Shift_631,10258
Time_Shift_632,10259
Time_Shift_633,10260
Time_Shift_634,10261
Time_Shift_635,10262
Time_Shift_636,10263
Time_Shift_637,10264
Time_Shift_638,10265
Time_Shift_639,10266
Time_Shift_640,10267
Time_Shift_641,10268
Time_Shift_642,10269
Time_Shift_643,10270
Time_Shift_644,10271
Time_Shift_645,10272
Time_Shift_646,10273
Time_Shift_647,10274
Time_Shift_648,10275
Time_Shift_649,10276
Time_Shift_650,10277
Time_Shift_651,10278
Time_Shift_652,10279
Time_Shift_653,10280
Time_Shift_654,10281
Time_Shift_655,10282
Time_Shift_656,10283
Time_Shift_657,10284
Time_Shift_658,10285
Time_Shift_659,10286
Time_Shift_660,10287
Time_Shift_661,10288
Time_Shift_662,10289
Time_Shift_663,10290
Time_Shift_664,10291
Time_Shift_665,10292
Time_Shift_666,10293
Time_Shift_667,10294
Time_Shift_668,10295
Time_Shift_669,10296
Time_Shift_670,10297
Time_Shift_671,10298
Time_Shift_672,10299
Time_Shift_673,10300
Time_Shift_674,10301
Time_Shift_675,10302
Time_Shift_676,10303
Time_Shift_677,10304
Time_Shift_678,10305
Time_Shift_679,10306
Time_Shift_680,10307
Time_Shift_681,10308
Time_Shift_682,10309
Time_Shift_683,10310
Time_Shift_684,10311
Time_Shift_685,10312
Time_Shift_686,10313
Time_Shift_687,10314
Time_Shift_688,10315
Time_Shift_689,10316
Time_Shift_690,10317
Time_Shift_691,10318
Time_Shift_692,10319
Time_Shift_693,10320
Time_Shift_694,10321
Time_Shift_695,10322
Time_Shift_696,10323
Time_Shift_697,10324
Time_Shift_698,10325
Time_Shift_699,10326
Time_Shift_700,10327
Time_Shift_701,10328
Time_Shift_702,10329
Time_Shift_703,10330
Time_Shift_704,10331
Time_Shift_705,10332
Time_Shift_706,10333
Time_Shift_707,10334
Time_Shift_708,10335
Time_Shift_709,10336
Time_Shift_710,10337
Time_Shift_711,10338
Time_Shift_712,10339
Time_Shift_713,10340
Time_Shift_714,10341
Time_Shift_715,10342
Time_Shift_716,10343
Time_Shift_717,10344
Time_Shift_718,10345
Time_Shift_719,10346
Time_Shift_720,10347
Time_Shift_721,10348
Time_Shift_722,10349
Time_Shift_723,10350
Time_Shift_724,10351
Time_Shift_725,10352
Time_Shift_726,10353
Time_Shift_727,10354
Time_Shift_728,10355
Time_Shift_729,10356
Time_Shift_730,10357
Time_Shift_731,10358
Time_Shift_732,10359
Time_Shift_733,10360
Time_Shift_734,10361
Time_Shift_735,10362
Time_Shift_736,10363
Time_Shift_737,10364
Time_Shift_738,10365
Time_Shift_739,10366
Time_Shift_740,10367
Time_Shift_741,10368
Time_Shift_742,10369
Time_Shift_743,10370
Time_Shift_744,10371
Time_Shift_745,10372
Time_Shift_746,10373
Time_Shift_747,10374
Time_Shift_748,10375
Time_Shift_749,10376
Time_Shift_750,10377
Time_Shift_751,10378
Time_Shift_752,10379
Time_Shift_753,10380
Time_Shift_754,10381
Time_Shift_755,10382
Time_Shift_756,10383
Time_Shift_757,10384
Time_Shift_758,10385
Time_Shift_759,10386
Time_Shift_760,10387
Time_Shift_761,10388
Time_Shift_762,10389
Time_Shift_763,10390
Time_Shift_764,10391
Time_Shift_765,10392
Time_Shift_766,10393
Time_Shift_767,10394
Time_Shift_768,10395
Time_Shift_769,10396
Time_Shift_770,10397
Time_Shift_771,10398
Time_Shift_772,10399
Time_Shift_773,10400
Time_Shift_774,10401
Time_Shift_775,10402
Time_Shift_776,10403
Time_Shift_777,10404
Time_Shift_778,10405
Time_Shift_779,10406
Time_Shift_780,10407
Time_Shift_781,10408
Time_Shift_782,10409
Time_Shift_783,10410
Time_Shift_784,10411
Time_Shift_785,10412
Time_Shift_786,10413
Time_Shift_787,10414
Time_Shift_788,10415
Time_Shift_789,10416
Time_Shift_790,10417
Time_Shift_791,10418
Time_Shift_792,10419
Time_Shift_793,10420
Time_Shift_794,10421
Time_Shift_795,10422
Time_Shift_796,10423
Time_Shift_798,10424
Time_Shift_799,10425
Time_Shift_800,10426
Time_Shift_801,10427
Time_Shift_802,10428
Time_Shift_803,10429
Time_Shift_804,10430
Time_Shift_805,10431
Time_Shift_806,10432
Time_Shift_807,10433
Time_Shift_808,10434
Time_Shift_809,10435
Time_Shift_810,10436
Time_Shift_811,10437
Time_Shift_812,10438
Time_Shift_813,10439
Time_Shift_814,10440
Time_Shift_815,10441
Time_Shift_816,10442
Time_Shift_817,10443
Time_Shift_818,10444
Time_Shift_819,10445
Time_Shift_820,10446
Time_Shift_821,10447
Time_Shift_822,10448
Time_Shift_823,10449
Time_Shift_824,10450
Time_Shift_825,10451
Time_Shift_826,10452
Time_Shift_827,10453
Time_Shift_828,10454
Time_Shift_829,10455
Time_Shift_830,10456
Time_Shift_831,10457
Time_Shift_832,10458
Time_Shift_833,10459
Time_Shift_834,10460
Time_Shift_835,10461
Time_Shift_836,10462
Time_Shift_837,10463
Time_Shift_838,10464
Time_Shift_839,10465
Time_Shift_840,10466
Time_Shift_841,10467
Time_Shift_842,10468
Time_Shift_843,10469
Time_Shift_844,10470
Time_Shift_845,10471
Time_Shift_846,10472
Time_Shift_847,10473
Time_Shift_848,10474
Time_Shift_849,10475
Time_Shift_850,10476
Time_Shift_851,10477
Time_Shift_852,10478
Time_Shift_853,10479
Time_Shift_854,10480
Time_Shift_855,10481
Time_Shift_856,10482
Time_Shift_857,10483
Time_Shift_858,10484
Time_Shift_859,10485
Time_Shift_860,10486
Time_Shift_861,10487
Time_Shift_862,10488
Time_Shift_863,10489
Time_Shift_864,10490
Time_Shift_865,10491
Time_Shift_866,10492
Time_Shift_867,10493
Time_Shift_868,10494
Time_Shift_869,10495
Time_Shift_870,10496
Time_Shift_871,10497
Time_Shift_872,10498
Time_Shift_873,10499
Time_Shift_874,10500
Time_Shift_875,10501
Time_Shift_876,10502
Time_Shift_878,10503
Time_Shift_879,10504
Time_Shift_880,10505
Time_Shift_882,10506
Time_Shift_883,10507
Time_Shift_884,10508
Time_Shift_885,10509
Time_Shift_886,10510
Time_Shift_887,10511
Time_Shift_888,10512
Time_Shift_889,10513
Time_Shift_890,10514
Time_Shift_891,10515
Time_Shift_892,10516
Time_Shift_893,10517
Time_Shift_894,10518
Time_Shift_895,10519
Time_Shift_897,10520
Time_Shift_898,10521
Time_Shift_899,10522
Time_Shift_900,10523
Time_Shift_901,10524
Time_Shift_902,10525
Time_Shift_903,10526
Time_Shift_904,10527
Time_Shift_905,10528
Time_Shift_906,10529
Time_Shift_907,10530
Time_Shift_908,10531
Time_Shift_909,10532
Time_Shift_910,10533
Time_Shift_911,10534
Time_Shift_912,10535
Time_Shift_913,10536
Time_Shift_914,10537
Time_Shift_915,10538
Time_Shift_916,10539
Time_Shift_917,10540
Time_Shift_918,10541
Time_Shift_919,10542
Time_Shift_920,10543
Time_Shift_921,10544
Time_Shift_922,10545
Time_Shift_923,10546
Time_Shift_924,10547
Time_Shift_925,10548
Time_Shift_926,10549
Time_Shift_927,10550
Time_Shift_928,10551
Time_Shift_929,10552
Time_Shift_930,10553
Time_Shift_931,10554
Time_Shift_932,10555
Time_Shift_933,10556
Time_Shift_934,10557
Time_Shift_935,10558
Time_Shift_936,10559
Time_Shift_937,10560
Time_Shift_938,10561
Time_Shift_939,10562
Time_Shift_940,10563
Time_Shift_941,10564
Time_Shift_942,10565
Time_Shift_943,10566
Time_Shift_944,10567
Time_Shift_945,10568
Time_Shift_946,10569
Time_Shift_947,10570
Time_Shift_949,10571
Time_Shift_950,10572
Time_Shift_952,10573
Time_Shift_953,10574
Time_Shift_954,10575
Time_Shift_955,10576
Time_Shift_956,10577
Time_Shift_957,10578
Time_Shift_958,10579
Time_Shift_959,10580
Time_Shift_960,10581
Time_Shift_961,10582
Time_Shift_962,10583
Time_Shift_963,10584
Time_Shift_964,10585
Time_Shift_966,10586
Time_Shift_968,10587
Time_Shift_969,10588
Time_Shift_970,10589
Time_Shift_971,10590
Time_Shift_972,10591
Time_Shift_973,10592
Time_Shift_974,10593
Time_Shift_975,10594
Time_Shift_976,10595
Time_Shift_977,10596
Time_Shift_978,10597
Time_Shift_979,10598
Time_Shift_980,10599
Time_Shift_981,10600
Time_Shift_982,10601
Time_Shift_983,10602
Time_Shift_984,10603
Time_Shift_985,10604
Time_Shift_986,10605
Time_Shift_987,10606
Time_Shift_988,10607
Time_Shift_989,10608
Time_Shift_990,10609
Time_Shift_991,10610
Time_Shift_993,10611
Time_Shift_994,10612
Time_Shift_995,10613
Time_Shift_996,10614
Time_Shift_997,10615
Time_Shift_998,10616
Time_Shift_999,10617
Time_Shift_1001,10618
Time_Shift_1002,10619
Time_Shift_1003,10620
Time_Shift_1004,10621
Time_Shift_1005,10622
Time_Shift_1006,10623
Time_Shift_1007,10624
Time_Shift_1008,10625
Time_Shift_1009,10626
Time_Shift_1010,10627
Time_Shift_1011,10628
Time_Shift_1013,10629
Time_Shift_1014,10630
Time_Shift_1015,10631
Time_Shift_1016,10632
Time_Shift_1017,10633
Time_Shift_1018,10634
Time_Shift_1019,10635
Time_Shift_1021,10636
Time_Shift_1022,10637
Time_Shift_1023,10638
Time_Shift_1024,10639
Time_Shift_1025,10640
Time_Shift_1026,10641
Time_Shift_1027,10642
Time_Shift_1029,10643
Time_Shift_1030,10644
Time_Shift_1031,10645
Time_Shift_1032,10646
Time_Shift_1033,10647
Time_Shift_1034,10648
Time_Shift_1035,10649
Time_Shift_1036,10650
Time_Shift_1037,10651
Time_Shift_1038,10652
Time_Shift_1039,10653
Time_Shift_1040,10654
Time_Shift_1042,10655
Time_Shift_1043,10656
Time_Shift_1045,10657
Time_Shift_1046,10658
Time_Shift_1047,10659
Time_Shift_1048,10660
Time_Shift_1050,10661
Time_Shift_1051,10662
Time_Shift_1052,10663
Time_Shift_1053,10664
Time_Shift_1055,10665
Time_Shift_1056,10666
Time_Shift_1057,10667
Time_Shift_1058,10668
Time_Shift_1060,10669
Time_Shift_1061,10670
Time_Shift_1062,10671
Time_Shift_1063,10672
Time_Shift_1064,10673
Time_Shift_1065,10674
Time_Shift_1066,10675
Time_Shift_1067,10676
Time_Shift_1068,10677
Time_Shift_1069,10678
Time_Shift_1070,10679
Time_Shift_1071,10680
Time_Shift_1072,10681
Time_Shift_1073,10682
Time_Shift_1074,10683
Time_Shift_1075,10684
Time_Shift_1076,10685
Time_Shift_1077,10686
Time_Shift_1078,10687
Time_Shift_1079,10688
Time_Shift_1080,10689
Time_Shift_1081,10690
Time_Shift_1082,10691
Time_Shift_1083,10692
Time_Shift_1084,10693
Time_Shift_1086,10694
Time_Shift_1087,10695
Time_Shift_1088,10696
Time_Shift_1089,10697
Time_Shift_1090,10698
Time_Shift_1091,10699
Time_Shift_1092,10700
Time_Shift_1093,10701
Time_Shift_1094,10702
Time_Shift_1098,10703
Time_Shift_1099,10704
Time_Shift_1100,10705
Time_Shift_1101,10706
Time_Shift_1102,10707
Time_Shift_1104,10708
Time_Shift_1105,10709
Time_Shift_1106,10710
Time_Shift_1107,10711
Time_Shift_1109,10712
Time_Shift_1113,10713
Time_Shift_1114,10714
Time_Shift_1115,10715
Time_Shift_1117,10716
Time_Shift_1118,10717
Time_Shift_1119,10718
Time_Shift_1120,10719
Time_Shift_1122,10720
Time_Shift_1123,10721
Time_Shift_1126,10722
Time_Shift_1128,10723
Time_Shift_1130,10724
Time_Shift_1131,10725
Time_Shift_1132,10726
Time_Shift_1133,10727
Time_Shift_1134,10728
Time_Shift_1136,10729
Time_Shift_1137,10730
Time_Shift_1138,10731
Time_Shift_1140,10732
Time_Shift_1141,10733
Time_Shift_1142,10734
Time_Shift_1143,10735
Time_Shift_1144,10736
Time_Shift_1145,10737
Time_Shift_1146,10738
Time_Shift_1148,10739
Time_Shift_1149,10740
Time_Shift_1152,10741
Time_Shift_1153,10742
Time_Shift_1154,10743
Time_Shift_1155,10744
Time_Shift_1157,10745
Time_Shift_1158,10746
Time_Shift_1159,10747
Time_Shift_1160,10748
Time_Shift_1161,10749
Time_Shift_1162,10750
Time_Shift_1163,10751
Time_Shift_1164,10752
Time_Shift_1165,10753
Time_Shift_1167,10754
Time_Shift_1169,10755
Time_Shift_1170,10756
Time_Shift_1171,10757
Time_Shift_1172,10758
Time_Shift_1173,10759
Time_Shift_1175,10760
Time_Shift_1176,10761
Time_Shift_1177,10762
Time_Shift_1178,10763
Time_Shift_1179,10764
Time_Shift_1180,10765
Time_Shift_1181,10766
Time_Shift_1182,10767
Time_Shift_1183,10768
Time_Shift_1185,10769
Time_Shift_1187,10770
Time_Shift_1188,10771
Time_Shift_1189,10772
Time_Shift_1190,10773
Time_Shift_1192,10774
Time_Shift_1193,10775
Time_Shift_1196,10776
Time_Shift_1197,10777
Time_Shift_1198,10778
Time_Shift_1200,10779
Time_Shift_1201,10780
Time_Shift_1202,10781
Time_Shift_1204,10782
Time_Shift_1206,10783
Time_Shift_1208,10784
Time_Shift_1209,10785
Time_Shift_1210,10786
Time_Shift_1211,10787
Time_Shift_1212,10788
Time_Shift_1213,10789
Time_Shift_1214,10790
Time_Shift_1215,10791
Time_Shift_1216,10792
Time_Shift_1217,10793
Time_Shift_1218,10794
Time_Shift_1220,10795
Time_Shift_1221,10796
Time_Shift_1224,10797
Time_Shift_1225,10798
Time_Shift_1227,10799
Time_Shift_1228,10800
Time_Shift_1230,10801
Time_Shift_1231,10802
Time_Shift_1233,10803
Time_Shift_1234,10804
Time_Shift_1237,10805
Time_Shift_1238,10806
Time_Shift_1240,10807
Time_Shift_1241,10808
Time_Shift_1242,10809
Time_Shift_1243,10810
Time_Shift_1244,10811
Time_Shift_1245,10812
Time_Shift_1246,10813
Time_Shift_1247,10814
Time_Shift_1249,10815
Time_Shift_1250,10816
Time_Shift_1251,10817
Time_Shift_1252,10818
Time_Shift_1253,10819
Time_Shift_1254,10820
Time_Shift_1255,10821
Time_Shift_1256,10822
Time_Shift_1259,10823
Time_Shift_1260,10824
Time_Shift_1262,10825
Time_Shift_1263,10826
Time_Shift_1265,10827
Time_Shift_1267,10828
Time_Shift_1268,10829
Time_Shift_1270,10830
Time_Shift_1271,10831
Time_Shift_1272,10832
Time_Shift_1274,10833
Time_Shift_1275,10834
Time_Shift_1277,10835
Time_Shift_1278,10836
Time_Shift_1279,10837
Time_Shift_1280,10838
Time_Shift_1281,10839
Time_Shift_1282,10840
Time_Shift_1283,10841
Time_Shift_1284,10842
Time_Shift_1285,10843
Time_Shift_1286,10844
Time_Shift_1287,10845
Time_Shift_1288,10846
Time_Shift_1290,10847
Time_Shift_1291,10848
Time_Shift_1292,10849
Time_Shift_1294,10850
Time_Shift_1295,10851
Time_Shift_1298,10852
Time_Shift_1299,10853
Time_Shift_1300,10854
Time_Shift_1302,10855
Time_Shift_1303,10856
Time_Shift_1305,10857
Time_Shift_1306,10858
Time_Shift_1310,10859
Time_Shift_1311,10860
Time_Shift_1313,10861
Time_Shift_1316,10862
Time_Shift_1317,10863
Time_Shift_1318,10864
Time_Shift_1319,10865
Time_Shift_1320,10866
Time_Shift_1321,10867
Time_Shift_1322,10868
Time_Shift_1324,10869
Time_Shift_1325,10870
Time_Shift_1326,10871
Time_Shift_1327,10872
Time_Shift_1329,10873
Time_Shift_1330,10874
Time_Shift_1333,10875
Time_Shift_1336,10876
Time_Shift_1337,10877
Time_Shift_1338,10878
Time_Shift_1340,10879
Time_Shift_1344,10880
Time_Shift_1345,10881
Time_Shift_1346,10882
Time_Shift_1347,10883
Time_Shift_1349,10884
Time_Shift_1350,10885
Time_Shift_1351,10886
Time_Shift_1352,10887
Time_Shift_1353,10888
Time_Shift_1354,10889
Time_Shift_1355,10890
Time_Shift_1357,10891
Time_Shift_1359,10892
Time_Shift_1360,10893
Time_Shift_1362,10894
Time_Shift_1363,10895
Time_Shift_1364,10896
Time_Shift_1367,10897
Time_Shift_1368,10898
Time_Shift_1370,10899
Time_Shift_1371,10900
Time_Shift_1374,10901
Time_Shift_1375,10902
Time_Shift_1378,10903
Time_Shift_1379,10904
Time_Shift_1381,10905
Time_Shift_1383,10906
Time_Shift_1386,10907
Time_Shift_1387,10908
Time_Shift_1388,10909
Time_Shift_1389,10910
Time_Shift_1390,10911
Time_Shift_1393,10912
Time_Shift_1394,10913
Time_Shift_1395,10914
Time_Shift_1396,10915
Time_Shift_1397,10916
Time_Shift_1398,10917
Time_Shift_1399,10918
Time_Shift_1400,10919
Time_Shift_1403,10920
Time_Shift_1405,10921
Time_Shift_1406,10922
Time_Shift_1407,10923
Time_Shift_1409,10924
Time_Shift_1410,10925
Time_Shift_1412,10926
Time_Shift_1413,10927
Time_Shift_1414,10928
Time_Shift_1415,10929
Time_Shift_1416,10930
Time_Shift_1419,10931
Time_Shift_1421,10932
Time_Shift_1426,10933
Time_Shift_1427,10934
Time_Shift_1428,10935
Time_Shift_1431,10936
Time_Shift_1432,10937
Time_Shift_1434,10938
Time_Shift_1443,10939
Time_Shift_1444,10940
Time_Shift_1446,10941
Time_Shift_1448,10942
Time_Shift_1451,10943
Time_Shift_1452,10944
Time_Shift_1455,10945
Time_Shift_1456,10946
Time_Shift_1457,10947
Time_Shift_1458,10948
Time_Shift_1461,10949
Time_Shift_1463,10950
Time_Shift_1465,10951
Time_Shift_1466,10952
Time_Shift_1468,10953
Time_Shift_1470,10954
Time_Shift_1471,10955
Time_Shift_1473,10956
Time_Shift_1474,10957
Time_Shift_1475,10958
Time_Shift_1476,10959
Time_Shift_1477,10960
Time_Shift_1479,10961
Time_Shift_1481,10962
Time_Shift_1485,10963
Time_Shift_1487,10964
Time_Shift_1488,10965
Time_Shift_1490,10966
Time_Shift_1492,10967
Time_Shift_1493,10968
Time_Shift_1494,10969
Time_Shift_1495,10970
Time_Shift_1498,10971
Time_Shift_1499,10972
Time_Shift_1501,10973
Time_Shift_1502,10974
Time_Shift_1504,10975
Time_Shift_1509,10976
Time_Shift_1514,10977
Time_Shift_1515,10978
Time_Shift_1516,10979
Time_Shift_1517,10980
Time_Shift_1519,10981
Time_Shift_1521,10982
Time_Shift_1523,10983
Time_Shift_1525,10984
Time_Shift_1533,10985
Time_Shift_1536,10986
Time_Shift_1538,10987
Time_Shift_1539,10988
Time_Shift_1540,10989
Time_Shift_1542,10990
Time_Shift_1543,10991
Time_Shift_1544,10992
Time_Shift_1546,10993
Time_Shift_1547,10994
Time_Shift_1548,10995
Time_Shift_1551,10996
Time_Shift_1552,10997
Time_Shift_1553,10998
Time_Shift_1556,10999
Time_Shift_1557,11000
Time_Shift_1560,11001
Time_Shift_1563,11002
Time_Shift_1565,11003
Time_Shift_1574,11004
Time_Shift_1575,11005
Time_Shift_1577,11006
Time_Shift_1578,11007
Time_Shift_1582,11008
Time_Shift_1583,11009
Time_Shift_1584,11010
Time_Shift_1586,11011
Time_Shift_1588,11012
Time_Shift_1591,11013
Time_Shift_1593,11014
Time_Shift_1594,11015
Time_Shift_1597,11016
Time_Shift_1598,11017
Time_Shift_1602,11018
Time_Shift_1605,11019
Time_Shift_1615,11020
Time_Shift_1624,11021
Time_Shift_1626,11022
Time_Shift_1631,11023
Time_Shift_1638,11024
Time_Shift_1641,11025
Time_Shift_1643,11026
Time_Shift_1644,11027
Time_Shift_1648,11028
Time_Shift_1651,11029
Time_Shift_1656,11030
Time_Shift_1659,11031
Time_Shift_1667,11032
Time_Shift_1671,11033
Time_Shift_1674,11034
Time_Shift_1679,11035
Time_Shift_1682,11036
Time_Shift_1687,11037
Time_Shift_1690,11038
Time_Shift_1691,11039
Time_Shift_1694,11040
Time_Shift_1701,11041
Time_Shift_1702,11042
Time_Shift_1704,11043
Time_Shift_1705,11044
Time_Shift_1708,11045
Time_Shift_1710,11046
Time_Shift_1720,11047
Time_Shift_1732,11048
Time_Shift_1736,11049
Time_Shift_1738,11050
Time_Shift_1739,11051
Time_Shift_1740,11052
Time_Shift_1741,11053
Time_Shift_1743,11054
Time_Shift_1744,11055
Time_Shift_1747,11056
Time_Shift_1752,11057
Time_Shift_1753,11058
Time_Shift_1755,11059
Time_Shift_1758,11060
Time_Shift_1759,11061
Time_Shift_1763,11062
Time_Shift_1771,11063
Time_Shift_1774,11064
Time_Shift_1775,11065
Time_Shift_1776,11066
Time_Shift_1782,11067
Time_Shift_1783,11068
Time_Shift_1790,11069
Time_Shift_1792,11070
Time_Shift_1793,11071
Time_Shift_1797,11072
Time_Shift_1801,11073
Time_Shift_1803,11074
Time_Shift_1805,11075
Time_Shift_1807,11076
Time_Shift_1808,11077
Time_Shift_1810,11078
Time_Shift_1813,11079
Time_Shift_1815,11080
Time_Shift_1818,11081
Time_Shift_1820,11082
Time_Shift_1826,11083
Time_Shift_1832,11084
Time_Shift_1833,11085
Time_Shift_1835,11086
Time_Shift_1837,11087
Time_Shift_1839,11088
Time_Shift_1841,11089
Time_Shift_1843,11090
Time_Shift_1844,11091
Time_Shift_1849,11092
Time_Shift_1850,11093
Time_Shift_1851,11094
Time_Shift_1859,11095
Time_Shift_1861,11096
Time_Shift_1866,11097
Time_Shift_1874,11098
Time_Shift_1877,11099
Time_Shift_1880,11100
Time_Shift_1890,11101
Time_Shift_1896,11102
Time_Shift_1900,11103
Time_Shift_1904,11104
Time_Shift_1907,11105
Time_Shift_1912,11106
Time_Shift_1924,11107
Time_Shift_1925,11108
Time_Shift_1929,11109
Time_Shift_1930,11110
Time_Shift_1932,11111
Time_Shift_1933,11112
Time_Shift_1938,11113
Time_Shift_1941,11114
Time_Shift_1946,11115
Time_Shift_1948,11116
Time_Shift_1950,11117
Time_Shift_1951,11118
Time_Shift_1958,11119
Time_Shift_1961,11120
Time_Shift_1966,11121
Time_Shift_1972,11122
Time_Shift_1982,11123
Time_Shift_1989,11124
Time_Shift_1992,11125
Time_Shift_1994,11126
Time_Shift_2000,11127
Time_Shift_2001,11128
Time_Shift_2003,11129
Time_Shift_2004,11130
Time_Shift_2009,11131
Time_Shift_2026,11132
Time_Shift_2027,11133
Time_Shift_2028,11134
Time_Shift_2029,11135
Time_Shift_2031,11136
Time_Shift_2033,11137
Time_Shift_2039,11138
Time_Shift_2040,11139
Time_Shift_2043,11140
Time_Shift_2045,11141
Time_Shift_2048,11142
Time_Shift_2049,11143
Time_Shift_2051,11144
Time_Shift_2065,11145
Time_Shift_2066,11146
Time_Shift_2071,11147
Time_Shift_2074,11148
Time_Shift_2076,11149
Time_Shift_2077,11150
Time_Shift_2081,11151
Time_Shift_2082,11152
Time_Shift_2084,11153
Time_Shift_2100,11154
Time_Shift_2108,11155
Time_Shift_2110,11156
Time_Shift_2117,11157
Time_Shift_2118,11158
Time_Shift_2119,11159
Time_Shift_2122,11160
Time_Shift_2128,11161
Time_Shift_2132,11162
Time_Shift_2136,11163
Time_Shift_2141,11164
Time_Shift_2157,11165
Time_Shift_2158,11166
Time_Shift_2173,11167
Time_Shift_2181,11168
Time_Shift_2185,11169
Time_Shift_2193,11170
Time_Shift_2196,11171
Time_Shift_2198,11172
Time_Shift_2203,11173
Time_Shift_2210,11174
Time_Shift_2219,11175
Time_Shift_2222,11176
Time_Shift_2225,11177
Time_Shift_2226,11178
Time_Shift_2232,11179
Time_Shift_2236,11180
Time_Shift_2242,11181
Time_Shift_2243,11182
Time_Shift_2244,11183
Time_Shift_2248,11184
Time_Shift_2250,11185
Time_Shift_2257,11186
Time_Shift_2265,11187
Time_Shift_2268,11188
Time_Shift_2270,11189
Time_Shift_2274,11190
Time_Shift_2275,11191
Time_Shift_2281,11192
Time_Shift_2294,11193
Time_Shift_2300,11194
Time_Shift_2302,11195
Time_Shift_2308,11196
Time_Shift_2313,11197
Time_Shift_2316,11198
Time_Shift_2319,11199
Time_Shift_2320,11200
Time_Shift_2322,11201
Time_Shift_2328,11202
Time_Shift_2351,11203
Time_Shift_2359,11204
Time_Shift_2362,11205
Time_Shift_2372,11206
Time_Shift_2375,11207
Time_Shift_2377,11208
Time_Shift_2381,11209
Time_Shift_2383,11210
Time_Shift_2411,11211
Time_Shift_2414,11212
Time_Shift_2415,11213
Time_Shift_2419,11214
Time_Shift_2424,11215
Time_Shift_2458,11216
Time_Shift_2461,11217
Time_Shift_2463,11218
Time_Shift_2466,11219
Time_Shift_2469,11220
Time_Shift_2472,11221
Time_Shift_2475,11222
Time_Shift_2483,11223
Time_Shift_2487,11224
Time_Shift_2488,11225
Time_Shift_2496,11226
Time_Shift_2500,11227
Time_Shift_2519,11228
Time_Shift_2521,11229
Time_Shift_2550,11230
Time_Shift_2557,11231
Time_Shift_2558,11232
Time_Shift_2561,11233
Time_Shift_2562,11234
Time_Shift_2565,11235
Time_Shift_2570,11236
Time_Shift_2572,11237
Time_Shift_2573,11238
Time_Shift_2584,11239
Time_Shift_2588,11240
Time_Shift_2593,11241
Time_Shift_2614,11242
Time_Shift_2615,11243
Time_Shift_2626,11244
Time_Shift_2657,11245
Time_Shift_2695,11246
Time_Shift_2699,11247
Time_Shift_2702,11248
Time_Shift_2705,11249
Time_Shift_2711,11250
Time_Shift_2718,11251
Time_Shift_2719,11252
Time_Shift_2726,11253
Time_Shift_2727,11254
Time_Shift_2734,11255
Time_Shift_2737,11256
Time_Shift_2746,11257
Time_Shift_2772,11258
Time_Shift_2783,11259
Time_Shift_2790,11260
Time_Shift_2793,11261
Time_Shift_2796,11262
Time_Shift_2799,11263
Time_Shift_2810,11264
Time_Shift_2811,11265
Time_Shift_2821,11266
Time_Shift_2831,11267
Time_Shift_2834,11268
Time_Shift_2849,11269
Time_Shift_2855,11270
Time_Shift_2856,11271
Time_Shift_2857,11272
Time_Shift_2864,11273
Time_Shift_2865,11274
Time_Shift_2881,11275
Time_Shift_2888,11276
Time_Shift_2892,11277
Time_Shift_2894,11278
Time_Shift_2895,11279
Time_Shift_2901,11280
Time_Shift_2903,11281
Time_Shift_2906,11282
Time_Shift_2911,11283
Time_Shift_2925,11284
Time_Shift_2931,11285
Time_Shift_2943,11286
Time_Shift_2957,11287
Time_Shift_2982,11288
Time_Shift_2999,11289
Time_Shift_3010,11290
Time_Shift_3015,11291
Time_Shift_3020,11292
Time_Shift_3023,11293
Time_Shift_3038,11294
Time_Shift_3041,11295
Time_Shift_3061,11296
Time_Shift_3079,11297
Time_Shift_3088,11298
Time_Shift_3092,11299
Time_Shift_3097,11300
Time_Shift_3111,11301
Time_Shift_3118,11302
Time_Shift_3122,11303
Time_Shift_3134,11304
Time_Shift_3165,11305
Time_Shift_3174,11306
Time_Shift_3180,11307
Time_Shift_3181,11308
Time_Shift_3228,11309
Time_Shift_3237,11310
Time_Shift_3245,11311
Time_Shift_3249,11312
Time_Shift_3256,11313
Time_Shift_3275,11314
Time_Shift_3294,11315
Time_Shift_3295,11316
Time_Shift_3310,11317
Time_Shift_3349,11318
Time_Shift_3356,11319
Time_Shift_3364,11320
Time_Shift_3366,11321
Time_Shift_3371,11322
Time_Shift_3386,11323
Time_Shift_3387,11324
Time_Shift_3390,11325
Time_Shift_3394,11326
Time_Shift_3400,11327
Time_Shift_3407,11328
Time_Shift_3408,11329
Time_Shift_3410,11330
Time_Shift_3414,11331
Time_Shift_3418,11332
Time_Shift_3425,11333
Time_Shift_3431,11334
Time_Shift_3433,11335
Time_Shift_3464,11336
Time_Shift_3465,11337
Time_Shift_3468,11338
Time_Shift_3471,11339
Time_Shift_3480,11340
Time_Shift_3492,11341
Time_Shift_3504,11342
Time_Shift_3506,11343
Time_Shift_3536,11344
Time_Shift_3575,11345
Time_Shift_3583,11346
Time_Shift_3639,11347
Time_Shift_3640,11348
Time_Shift_3659,11349
Time_Shift_3672,11350
Time_Shift_3688,11351
Time_Shift_3701,11352
Time_Shift_3702,11353
Time_Shift_3724,11354
Time_Shift_3729,11355
Time_Shift_3733,11356
Time_Shift_3793,11357
Time_Shift_3794,11358
Time_Shift_3831,11359
Time_Shift_3840,11360
Time_Shift_3848,11361
Time_Shift_3871,11362
Time_Shift_3885,11363
Time_Shift_3887,11364
Time_Shift_3899,11365
Time_Shift_3940,11366
Time_Shift_3947,11367
Time_Shift_3958,11368
Time_Shift_3977,11369
Time_Shift_4001,11370
Time_Shift_4015,11371
Time_Shift_4024,11372
Time_Shift_4037,11373
Time_Shift_4039,11374
Time_Shift_4050,11375
Time_Shift_4067,11376
Time_Shift_4130,11377
Time_Shift_4145,11378
Time_Shift_4228,11379
Time_Shift_4244,11380
Time_Shift_4262,11381
Time_Shift_4270,11382
Time_Shift_4272,11383
Time_Shift_4347,11384
Time_Shift_4358,11385
Time_Shift_4377,11386
Time_Shift_4400,11387
Time_Shift_4411,11388
Time_Shift_4412,11389
Time_Shift_4416,11390
Time_Shift_4432,11391
Time_Shift_4446,11392
Time_Shift_4487,11393
Time_Shift_4572,11394
Time_Shift_4600,11395
Time_Shift_4635,11396
Time_Shift_4686,11397
Time_Shift_4860,11398
Time_Shift_4869,11399
Time_Shift_4886,11400
Time_Shift_5046,11401
Time_Shift_5153,11402
Time_Shift_5336,11403
Time_Shift_5589,11404
Time_Shift_5607,11405
Time_Shift_5615,11406
Time_Shift_5652,11407
Time_Shift_5775,11408
Time_Shift_5947,11409
Time_Shift_6005,11410
Time_Shift_6193,11411
Time_Shift_6504,11412
Time_Shift_6528,11413
Time_Shift_6640,11414
Time_Shift_6942,11415
Time_Shift_7311,11416
Time_Shift_9455,11417
Time_Shift_9991,11418
Time_Shift_10629,11419
Time_Shift_11430,11420
Time_Shift_12680,11421
Time_Shift_12700,11422
Time_Shift_12926,11423
Time_Shift_30755,11424
Time_Shift_38814,11425
Time_Shift_53940,11426
Sustain_On,11427
Sustain_Off,11428
PAD,11429
